M48
; DRILL file {KiCad (5.1.5-0-10_14)} date Sunday, 18 April 2021 at 03:00:41 PM
; FORMAT={-:-/ absolute / metric / decimal}
; #@! TF.CreationDate,2021-04-18T15:00:41+10:00
; #@! TF.GenerationSoftware,Kicad,Pcbnew,(5.1.5-0-10_14)
; #@! TF.FileFunction,Plated,1,2,PTH
FMAT,2
METRIC
T1C0.800
T2C1.200
%
G90
G05
T1
X128.27Y-106.045
X128.27Y-113.665
X132.842Y-105.918
X132.842Y-113.538
X89.662Y-107.442
X89.662Y-115.062
T2
X124.587Y-99.187
X127.127Y-99.187
X129.667Y-99.187
X132.207Y-99.187
X134.747Y-99.187
X137.287Y-99.187
X111.633Y-120.396
X114.173Y-120.396
X116.713Y-120.396
X140.081Y-108.966
X142.621Y-108.966
X96.393Y-99.06
X98.933Y-99.06
X101.473Y-99.06
X104.013Y-99.06
X106.553Y-99.06
X109.093Y-99.06
X111.633Y-99.06
X114.173Y-99.06
X116.713Y-99.06
X119.253Y-99.06
X133.096Y-120.396
X135.636Y-120.396
X138.176Y-120.396
X97.536Y-120.396
X100.076Y-120.396
X102.616Y-120.396
X105.156Y-120.396
X97.536Y-108.839
X100.076Y-108.839
X102.616Y-108.839
X105.156Y-108.839
X107.696Y-108.839
X110.236Y-108.839
X112.776Y-108.839
X115.316Y-108.839
X117.856Y-108.839
X120.396Y-108.839
T0
M30
