G04 DipTrace 2.4.0.2*
%INTopSilk.gbr*%
%MOIN*%
%ADD10C,0.0098*%
%ADD15C,0.006*%
%ADD46C,0.0077*%
%ADD47C,0.0093*%
%FSLAX44Y44*%
G04*
G70*
G90*
G75*
G01*
%LNTopSilk*%
%LPD*%
X20190Y5440D2*
D15*
X20690D1*
X20940Y5190D1*
Y4690D1*
X20690Y4440D1*
X20940Y5190D2*
X21190Y5440D1*
X21690D1*
X21940Y5190D1*
Y4690D1*
X21690Y4440D1*
X21190D1*
X20940Y4690D1*
X18940Y5190D2*
X19190Y5440D1*
X19690D1*
X19940Y5190D1*
Y4690D1*
X19690Y4440D1*
X19190D1*
X18940Y4690D1*
X20190Y5440D2*
X19940Y5190D1*
Y4690D2*
X20190Y4440D1*
X20690D2*
X20190D1*
X17190Y5440D2*
X17690D1*
X17940Y5190D1*
Y4690D1*
X17690Y4440D1*
X17940Y5190D2*
X18190Y5440D1*
X18690D1*
X18940Y5190D1*
Y4690D1*
X18690Y4440D1*
X18190D1*
X17940Y4690D1*
X16940Y5190D2*
Y4690D1*
X17190Y5440D2*
X16940Y5190D1*
Y4690D2*
X17190Y4440D1*
X17690D2*
X17190D1*
X22190Y5440D2*
X22690D1*
X22940Y5190D1*
Y4690D1*
X22690Y4440D1*
X22190Y5440D2*
X21940Y5190D1*
Y4690D2*
X22190Y4440D1*
X22690D2*
X22190D1*
X16691Y23440D2*
X16191D1*
X15940Y23690D1*
Y24190D1*
X16191Y24440D1*
X17940Y23690D2*
X17691Y23440D1*
X17191D1*
X16940Y23690D1*
Y24190D1*
X17191Y24440D1*
X17691D1*
X17940Y24190D1*
X16691Y23440D2*
X16940Y23690D1*
Y24190D2*
X16691Y24440D1*
X16191D2*
X16691D1*
X19691Y23440D2*
X19191D1*
X18940Y23690D1*
Y24190D1*
X19191Y24440D1*
X18940Y23690D2*
X18691Y23440D1*
X18190D1*
X17940Y23690D1*
Y24190D1*
X18190Y24440D1*
X18691D1*
X18940Y24190D1*
X20940Y23690D2*
X20691Y23440D1*
X20190D1*
X19940Y23690D1*
Y24190D1*
X20190Y24440D1*
X20691D1*
X20940Y24190D1*
X19691Y23440D2*
X19940Y23690D1*
Y24190D2*
X19691Y24440D1*
X19191D2*
X19691D1*
X22691Y23440D2*
X22190D1*
X21940Y23690D1*
Y24190D1*
X22190Y24440D1*
X21940Y23690D2*
X21691Y23440D1*
X21190D1*
X20940Y23690D1*
Y24190D1*
X21190Y24440D1*
X21691D1*
X21940Y24190D1*
X22940Y23690D2*
Y24190D1*
X22691Y23440D2*
X22940Y23690D1*
Y24190D2*
X22691Y24440D1*
X22190D2*
X22691D1*
X15691Y23440D2*
X15190D1*
X14940Y23690D1*
Y24190D1*
X15190Y24440D1*
X15691Y23440D2*
X15940Y23690D1*
Y24190D2*
X15691Y24440D1*
X15190D2*
X15691D1*
X14190Y5440D2*
X14690D1*
X14940Y5190D1*
Y4690D1*
X14690Y4440D1*
X12940Y5190D2*
X13190Y5440D1*
X13690D1*
X13940Y5190D1*
Y4690D1*
X13690Y4440D1*
X13190D1*
X12940Y4690D1*
X14190Y5440D2*
X13940Y5190D1*
Y4690D2*
X14190Y4440D1*
X14690D2*
X14190D1*
X11190Y5440D2*
X11690D1*
X11940Y5190D1*
Y4690D1*
X11690Y4440D1*
X11940Y5190D2*
X12190Y5440D1*
X12691D1*
X12940Y5190D1*
Y4690D1*
X12691Y4440D1*
X12190D1*
X11940Y4690D1*
X9940Y5190D2*
X10190Y5440D1*
X10691D1*
X10940Y5190D1*
Y4690D1*
X10691Y4440D1*
X10190D1*
X9940Y4690D1*
X11190Y5440D2*
X10940Y5190D1*
Y4690D2*
X11190Y4440D1*
X11690D2*
X11190D1*
X8190Y5440D2*
X8691D1*
X8940Y5190D1*
Y4690D1*
X8691Y4440D1*
X8940Y5190D2*
X9190Y5440D1*
X9691D1*
X9940Y5190D1*
Y4690D1*
X9691Y4440D1*
X9190D1*
X8940Y4690D1*
X7940Y5190D2*
Y4690D1*
X8190Y5440D2*
X7940Y5190D1*
Y4690D2*
X8190Y4440D1*
X8691D2*
X8190D1*
X15190Y5440D2*
X15691D1*
X15940Y5190D1*
Y4690D1*
X15691Y4440D1*
X15190Y5440D2*
X14940Y5190D1*
Y4690D2*
X15190Y4440D1*
X15691D2*
X15190D1*
X6340Y23690D2*
X6090Y23440D1*
X5590D1*
X5340Y23690D1*
Y24190D1*
X5590Y24440D1*
X6090D1*
X6340Y24190D1*
X8090Y23440D2*
X7590D1*
X7340Y23690D1*
Y24190D1*
X7590Y24440D1*
X7340Y23690D2*
X7090Y23440D1*
X6590D1*
X6340Y23690D1*
Y24190D1*
X6590Y24440D1*
X7090D1*
X7340Y24190D1*
X9340Y23690D2*
X9090Y23440D1*
X8590D1*
X8340Y23690D1*
Y24190D1*
X8590Y24440D1*
X9090D1*
X9340Y24190D1*
X8090Y23440D2*
X8340Y23690D1*
Y24190D2*
X8090Y24440D1*
X7590D2*
X8090D1*
X11090Y23440D2*
X10590D1*
X10340Y23690D1*
Y24190D1*
X10590Y24440D1*
X10340Y23690D2*
X10090Y23440D1*
X9590D1*
X9340Y23690D1*
Y24190D1*
X9590Y24440D1*
X10090D1*
X10340Y24190D1*
X12340Y23690D2*
X12090Y23440D1*
X11590D1*
X11340Y23690D1*
Y24190D1*
X11590Y24440D1*
X12090D1*
X12340Y24190D1*
X11090Y23440D2*
X11340Y23690D1*
Y24190D2*
X11090Y24440D1*
X10590D2*
X11090D1*
X14090Y23440D2*
X13590D1*
X13340Y23690D1*
Y24190D1*
X13590Y24440D1*
X13340Y23690D2*
X13090Y23440D1*
X12590D1*
X12340Y23690D1*
Y24190D1*
X12590Y24440D1*
X13090D1*
X13340Y24190D1*
X14340Y23690D2*
Y24190D1*
X14090Y23440D2*
X14340Y23690D1*
Y24190D2*
X14090Y24440D1*
X13590D2*
X14090D1*
X5090Y23440D2*
X4590D1*
X4340Y23690D1*
Y24190D1*
X4590Y24440D1*
X5090Y23440D2*
X5340Y23690D1*
Y24190D2*
X5090Y24440D1*
X4590D2*
X5090D1*
X6340Y22690D2*
X6090Y22440D1*
X5590D1*
X5340Y22690D1*
Y23190D1*
X5590Y23440D1*
X6090D1*
X6340Y23190D1*
X8090Y22440D2*
X7590D1*
X7340Y22690D1*
Y23190D1*
X7590Y23440D1*
X7340Y22690D2*
X7090Y22440D1*
X6590D1*
X6340Y22690D1*
Y23190D1*
X6590Y23440D1*
X7090D1*
X7340Y23190D1*
X9340Y22690D2*
X9090Y22440D1*
X8590D1*
X8340Y22690D1*
Y23190D1*
X8590Y23440D1*
X9090D1*
X9340Y23190D1*
X8090Y22440D2*
X8340Y22690D1*
Y23190D2*
X8090Y23440D1*
X7590D2*
X8090D1*
X11090Y22440D2*
X10590D1*
X10340Y22690D1*
Y23190D1*
X10590Y23440D1*
X10340Y22690D2*
X10090Y22440D1*
X9590D1*
X9340Y22690D1*
Y23190D1*
X9590Y23440D1*
X10090D1*
X10340Y23190D1*
X12340Y22690D2*
X12090Y22440D1*
X11590D1*
X11340Y22690D1*
Y23190D1*
X11590Y23440D1*
X12090D1*
X12340Y23190D1*
X11090Y22440D2*
X11340Y22690D1*
Y23190D2*
X11090Y23440D1*
X10590D2*
X11090D1*
X14090Y22440D2*
X13590D1*
X13340Y22690D1*
Y23190D1*
X13590Y23440D1*
X13340Y22690D2*
X13090Y22440D1*
X12590D1*
X12340Y22690D1*
Y23190D1*
X12590Y23440D1*
X13090D1*
X13340Y23190D1*
X14340Y22690D2*
Y23190D1*
X14090Y22440D2*
X14340Y22690D1*
Y23190D2*
X14090Y23440D1*
X13590D2*
X14090D1*
X5090Y22440D2*
X4590D1*
X4340Y22690D1*
Y23190D1*
X4590Y23440D1*
X5090Y22440D2*
X5340Y22690D1*
Y23190D2*
X5090Y23440D1*
X4590D2*
X5090D1*
X16691Y22440D2*
X16191D1*
X15940Y22690D1*
Y23190D1*
X16191Y23440D1*
X17940Y22690D2*
X17691Y22440D1*
X17191D1*
X16940Y22690D1*
Y23190D1*
X17191Y23440D1*
X17691D1*
X17940Y23190D1*
X16691Y22440D2*
X16940Y22690D1*
Y23190D2*
X16691Y23440D1*
X16191D2*
X16691D1*
X19691Y22440D2*
X19191D1*
X18940Y22690D1*
Y23190D1*
X19191Y23440D1*
X18940Y22690D2*
X18691Y22440D1*
X18190D1*
X17940Y22690D1*
Y23190D1*
X18190Y23440D1*
X18691D1*
X18940Y23190D1*
X20940Y22690D2*
X20691Y22440D1*
X20190D1*
X19940Y22690D1*
Y23190D1*
X20190Y23440D1*
X20691D1*
X20940Y23190D1*
X19691Y22440D2*
X19940Y22690D1*
Y23190D2*
X19691Y23440D1*
X19191D2*
X19691D1*
X22691Y22440D2*
X22190D1*
X21940Y22690D1*
Y23190D1*
X22190Y23440D1*
X21940Y22690D2*
X21691Y22440D1*
X21190D1*
X20940Y22690D1*
Y23190D1*
X21190Y23440D1*
X21691D1*
X21940Y23190D1*
X22940Y22690D2*
Y23190D1*
X22691Y22440D2*
X22940Y22690D1*
Y23190D2*
X22691Y23440D1*
X22190D2*
X22691D1*
X15691Y22440D2*
X15190D1*
X14940Y22690D1*
Y23190D1*
X15190Y23440D1*
X15691Y22440D2*
X15940Y22690D1*
Y23190D2*
X15691Y23440D1*
X15190D2*
X15691D1*
X20190Y6440D2*
X20690D1*
X20940Y6190D1*
Y5690D1*
X20690Y5440D1*
X20940Y6190D2*
X21190Y6440D1*
X21690D1*
X21940Y6190D1*
Y5690D1*
X21690Y5440D1*
X21190D1*
X20940Y5690D1*
X18940Y6190D2*
X19190Y6440D1*
X19690D1*
X19940Y6190D1*
Y5690D1*
X19690Y5440D1*
X19190D1*
X18940Y5690D1*
X20190Y6440D2*
X19940Y6190D1*
Y5690D2*
X20190Y5440D1*
X20690D2*
X20190D1*
X17190Y6440D2*
X17690D1*
X17940Y6190D1*
Y5690D1*
X17690Y5440D1*
X17940Y6190D2*
X18190Y6440D1*
X18690D1*
X18940Y6190D1*
Y5690D1*
X18690Y5440D1*
X18190D1*
X17940Y5690D1*
X16940Y6190D2*
Y5690D1*
X17190Y6440D2*
X16940Y6190D1*
Y5690D2*
X17190Y5440D1*
X17690D2*
X17190D1*
X22190Y6440D2*
X22690D1*
X22940Y6190D1*
Y5690D1*
X22690Y5440D1*
X22190Y6440D2*
X21940Y6190D1*
Y5690D2*
X22190Y5440D1*
X22690D2*
X22190D1*
X14190Y6440D2*
X14690D1*
X14940Y6190D1*
Y5690D1*
X14690Y5440D1*
X12940Y6190D2*
X13190Y6440D1*
X13690D1*
X13940Y6190D1*
Y5690D1*
X13690Y5440D1*
X13190D1*
X12940Y5690D1*
X14190Y6440D2*
X13940Y6190D1*
Y5690D2*
X14190Y5440D1*
X14690D2*
X14190D1*
X11190Y6440D2*
X11690D1*
X11940Y6190D1*
Y5690D1*
X11690Y5440D1*
X11940Y6190D2*
X12190Y6440D1*
X12691D1*
X12940Y6190D1*
Y5690D1*
X12691Y5440D1*
X12190D1*
X11940Y5690D1*
X9940Y6190D2*
X10190Y6440D1*
X10691D1*
X10940Y6190D1*
Y5690D1*
X10691Y5440D1*
X10190D1*
X9940Y5690D1*
X11190Y6440D2*
X10940Y6190D1*
Y5690D2*
X11190Y5440D1*
X11690D2*
X11190D1*
X8190Y6440D2*
X8691D1*
X8940Y6190D1*
Y5690D1*
X8691Y5440D1*
X8940Y6190D2*
X9190Y6440D1*
X9691D1*
X9940Y6190D1*
Y5690D1*
X9691Y5440D1*
X9190D1*
X8940Y5690D1*
X7940Y6190D2*
Y5690D1*
X8190Y6440D2*
X7940Y6190D1*
Y5690D2*
X8190Y5440D1*
X8691D2*
X8190D1*
X15190Y6440D2*
X15691D1*
X15940Y6190D1*
Y5690D1*
X15691Y5440D1*
X15190Y6440D2*
X14940Y6190D1*
Y5690D2*
X15190Y5440D1*
X15691D2*
X15190D1*
X9190Y6940D2*
D10*
X7691D1*
X9193Y6942D2*
G03X7688Y6942I-752J998D01*
G01*
X21690Y16940D2*
X20191D1*
X21693Y16942D2*
G03X20188Y16942I-752J998D01*
G01*
X21690Y11940D2*
X20191D1*
X21693Y11942D2*
G03X20188Y11942I-752J998D01*
G01*
X28690Y19440D2*
X27191D1*
X28693Y19442D2*
G03X27188Y19442I-752J998D01*
G01*
X25690Y17440D2*
X24191D1*
X25693Y17442D2*
G03X24188Y17442I-752J998D01*
G01*
X28690Y8940D2*
X27191D1*
X28693Y8942D2*
G03X27188Y8942I-752J998D01*
G01*
X25690Y7440D2*
X24191D1*
X25693Y7442D2*
G03X24188Y7442I-752J998D01*
G01*
X6440Y8940D2*
X5440D1*
X6440Y4940D2*
Y8940D1*
X5440Y4940D2*
Y8940D1*
X6440Y4940D2*
X5440D1*
X17940Y19940D2*
X16940D1*
X17940Y15940D2*
Y19940D1*
X16940Y15940D2*
Y19940D1*
X17940Y15940D2*
X16940D1*
X17940Y13940D2*
X16940D1*
X17940Y9940D2*
Y13940D1*
X16940Y9940D2*
Y13940D1*
X17940Y9940D2*
X16940D1*
X28440Y22940D2*
Y23940D1*
X24440Y22940D2*
X28440D1*
X24440Y23940D2*
X28440D1*
X24440Y22940D2*
Y23940D1*
X28440Y14940D2*
Y15940D1*
X24440Y14940D2*
X28440D1*
X24440Y15940D2*
X28440D1*
X24440Y14940D2*
Y15940D1*
X28440Y12440D2*
Y13440D1*
X24440Y12440D2*
X28440D1*
X24440Y13440D2*
X28440D1*
X24440Y12440D2*
Y13440D1*
X28440Y4940D2*
Y5940D1*
X24440Y4940D2*
X28440D1*
X24440Y5940D2*
X28440D1*
X24440Y4940D2*
Y5940D1*
X9948Y9936D2*
Y11944D1*
X10932Y9936D2*
Y11944D1*
Y9936D2*
X9948D1*
X10932Y11944D2*
X9948D1*
X19936Y16432D2*
X21944D1*
X19936Y15448D2*
X21944D1*
X19936D2*
Y16432D1*
X21944Y15448D2*
Y16432D1*
X19936Y10432D2*
X21944D1*
X19936Y9448D2*
X21944D1*
X19936D2*
Y10432D1*
X21944Y9448D2*
Y10432D1*
X26936Y18932D2*
X28944D1*
X26936Y17948D2*
X28944D1*
X26936D2*
Y18932D1*
X28944Y17948D2*
Y18932D1*
X23936Y21432D2*
X25944D1*
X23936Y20448D2*
X25944D1*
X23936D2*
Y21432D1*
X25944Y20448D2*
Y21432D1*
X26936Y8432D2*
X28944D1*
X26936Y7448D2*
X28944D1*
X26936D2*
Y8432D1*
X28944Y7448D2*
Y8432D1*
X23936Y10932D2*
X25944D1*
X23936Y9948D2*
X25944D1*
X23936D2*
Y10932D1*
X25944Y9948D2*
Y10932D1*
X8464Y19798D2*
Y12082D1*
X6416D2*
X8464D1*
X6416Y19798D2*
Y12082D1*
Y19798D2*
X7204D1*
X8464D2*
X7676D1*
X7204D2*
G03X7676Y19798I236J0D01*
G01*
X14464Y20298D2*
Y12582D1*
X12416D2*
X14464D1*
X12416Y20298D2*
Y12582D1*
Y20298D2*
X13204D1*
X14464D2*
X13676D1*
X13204D2*
G03X13676Y20298I236J0D01*
G01*
X6741Y11540D2*
X9139D1*
X6741Y10340D2*
X9139D1*
G03X9139Y11540I1J600D01*
G01*
X6741D2*
G03X6741Y10340I-1J-600D01*
G01*
X12241Y11540D2*
X14639D1*
X12241Y10340D2*
X14639D1*
G03X14639Y11540I1J600D01*
G01*
X12241D2*
G03X12241Y10340I-1J-600D01*
G01*
X18873Y5765D2*
D46*
X18681Y6268D1*
X18490Y5765D1*
X18562Y5933D2*
X18801D1*
X19362Y6268D2*
Y5765D1*
X19027Y6268D1*
Y5765D1*
X19899D2*
X19708Y6268D1*
X19516Y5765D1*
X19588Y5933D2*
X19828D1*
X20054Y6268D2*
Y5765D1*
X20341D1*
X20639Y6268D2*
X20591Y6244D1*
X20543Y6196D1*
X20519Y6148D1*
X20495Y6077D1*
Y5957D1*
X20519Y5885D1*
X20543Y5837D1*
X20591Y5790D1*
X20639Y5765D1*
X20734D1*
X20782Y5790D1*
X20830Y5837D1*
X20854Y5885D1*
X20878Y5957D1*
Y6077D1*
X20854Y6148D1*
X20830Y6196D1*
X20782Y6244D1*
X20734Y6268D1*
X20639D1*
X21391Y6148D2*
X21367Y6196D1*
X21319Y6244D1*
X21271Y6268D1*
X21176D1*
X21128Y6244D1*
X21080Y6196D1*
X21056Y6148D1*
X21032Y6077D1*
Y5957D1*
X21056Y5885D1*
X21080Y5837D1*
X21128Y5790D1*
X21176Y5765D1*
X21271D1*
X21319Y5790D1*
X21367Y5837D1*
X21391Y5885D1*
Y5957D1*
X21271D1*
X18582Y25243D2*
X18606Y25219D1*
X18630Y25243D1*
X18606Y25266D1*
X18582Y25243D1*
X18606Y25075D2*
Y24668D1*
X18582Y24597D1*
X18535Y24573D1*
X18486D1*
X18809Y25122D2*
Y25146D1*
X18833Y25194D1*
X18856Y25218D1*
X18905Y25242D1*
X19000D1*
X19048Y25218D1*
X19071Y25194D1*
X19096Y25146D1*
Y25098D1*
X19071Y25050D1*
X19024Y24979D1*
X18785Y24740D1*
X19120D1*
X19274Y25146D2*
X19322Y25170D1*
X19394Y25242D1*
Y24740D1*
X11475Y6243D2*
X11499Y6219D1*
X11523Y6243D1*
X11499Y6266D1*
X11475Y6243D1*
X11499Y6075D2*
Y5668D1*
X11475Y5597D1*
X11427Y5573D1*
X11379D1*
X11701Y6122D2*
Y6146D1*
X11725Y6194D1*
X11749Y6218D1*
X11797Y6242D1*
X11893D1*
X11940Y6218D1*
X11964Y6194D1*
X11988Y6146D1*
Y6098D1*
X11964Y6050D1*
X11916Y5979D1*
X11677Y5740D1*
X12012D1*
X12191Y6122D2*
Y6146D1*
X12214Y6194D1*
X12238Y6218D1*
X12286Y6242D1*
X12382D1*
X12429Y6218D1*
X12453Y6194D1*
X12478Y6146D1*
Y6098D1*
X12453Y6050D1*
X12406Y5979D1*
X12166Y5740D1*
X12501D1*
X8970Y25242D2*
Y24860D1*
X8947Y24788D1*
X8922Y24764D1*
X8875Y24740D1*
X8827D1*
X8779Y24764D1*
X8755Y24788D1*
X8731Y24860D1*
Y24907D1*
X9149Y25122D2*
Y25146D1*
X9173Y25194D1*
X9197Y25218D1*
X9245Y25242D1*
X9340D1*
X9388Y25218D1*
X9412Y25194D1*
X9436Y25146D1*
Y25098D1*
X9412Y25050D1*
X9364Y24979D1*
X9125Y24740D1*
X9460D1*
X9662Y25242D2*
X9925D1*
X9782Y25050D1*
X9854D1*
X9901Y25027D1*
X9925Y25003D1*
X9949Y24931D1*
Y24883D1*
X9925Y24812D1*
X9877Y24763D1*
X9805Y24740D1*
X9734D1*
X9662Y24763D1*
X9639Y24788D1*
X9614Y24835D1*
X9203Y24242D2*
Y23860D1*
X9180Y23788D1*
X9155Y23764D1*
X9108Y23740D1*
X9060D1*
X9012Y23764D1*
X8988Y23788D1*
X8964Y23860D1*
Y23907D1*
X9597Y23740D2*
Y24242D1*
X9358Y23907D1*
X9716D1*
X18815Y24242D2*
Y23860D1*
X18791Y23788D1*
X18767Y23764D1*
X18720Y23740D1*
X18671D1*
X18624Y23764D1*
X18600Y23788D1*
X18576Y23860D1*
Y23907D1*
X19256Y24242D2*
X19018D1*
X18994Y24027D1*
X19018Y24050D1*
X19089Y24075D1*
X19161D1*
X19233Y24050D1*
X19281Y24003D1*
X19304Y23931D1*
Y23883D1*
X19281Y23812D1*
X19233Y23763D1*
X19161Y23740D1*
X19089D1*
X19018Y23763D1*
X18994Y23788D1*
X18970Y23835D1*
X19487Y7268D2*
X19511Y7245D1*
X19535Y7268D1*
X19511Y7292D1*
X19487Y7268D1*
X19511Y7101D2*
Y6694D1*
X19487Y6622D1*
X19439Y6599D1*
X19391D1*
X19714Y7148D2*
Y7172D1*
X19737Y7220D1*
X19761Y7244D1*
X19809Y7267D1*
X19905D1*
X19952Y7244D1*
X19976Y7220D1*
X20000Y7172D1*
Y7124D1*
X19976Y7076D1*
X19929Y7005D1*
X19689Y6765D1*
X20024D1*
X20465Y7196D2*
X20442Y7244D1*
X20370Y7267D1*
X20322D1*
X20250Y7244D1*
X20202Y7172D1*
X20179Y7052D1*
Y6933D1*
X20202Y6837D1*
X20250Y6789D1*
X20322Y6765D1*
X20346D1*
X20417Y6789D1*
X20465Y6837D1*
X20489Y6909D1*
Y6933D1*
X20465Y7005D1*
X20417Y7052D1*
X20346Y7076D1*
X20322D1*
X20250Y7052D1*
X20202Y7005D1*
X20179Y6933D1*
X10711Y6979D2*
X10926D1*
X10997Y7003D1*
X11022Y7027D1*
X11046Y7075D1*
Y7146D1*
X11022Y7194D1*
X10997Y7218D1*
X10926Y7242D1*
X10711D1*
Y6740D1*
X11344Y7242D2*
X11296Y7218D1*
X11248Y7170D1*
X11224Y7123D1*
X11200Y7051D1*
Y6931D1*
X11224Y6860D1*
X11248Y6812D1*
X11296Y6764D1*
X11344Y6740D1*
X11439D1*
X11487Y6764D1*
X11535Y6812D1*
X11559Y6860D1*
X11582Y6931D1*
Y7051D1*
X11559Y7123D1*
X11535Y7170D1*
X11487Y7218D1*
X11439Y7242D1*
X11344D1*
X11737D2*
X11857Y6740D1*
X11976Y7242D1*
X12095Y6740D1*
X12215Y7242D1*
X12680D2*
X12370D1*
Y6740D1*
X12680D1*
X12370Y7003D2*
X12561D1*
X12835D2*
X13050D1*
X13122Y7027D1*
X13146Y7051D1*
X13170Y7098D1*
Y7146D1*
X13146Y7194D1*
X13122Y7218D1*
X13050Y7242D1*
X12835D1*
Y6740D1*
X13002Y7003D2*
X13170Y6740D1*
X8136Y9922D2*
Y9420D1*
X8303D1*
X8375Y9444D1*
X8423Y9492D1*
X8447Y9540D1*
X8470Y9611D1*
Y9731D1*
X8447Y9803D1*
X8423Y9851D1*
X8375Y9899D1*
X8303Y9922D1*
X8136D1*
X8625Y9826D2*
X8673Y9851D1*
X8745Y9922D1*
Y9420D1*
X20528Y19922D2*
Y19420D1*
X20695D1*
X20767Y19444D1*
X20815Y19492D1*
X20839Y19540D1*
X20863Y19611D1*
Y19731D1*
X20839Y19803D1*
X20815Y19851D1*
X20767Y19899D1*
X20695Y19922D1*
X20528D1*
X21042Y19803D2*
Y19826D1*
X21065Y19874D1*
X21089Y19898D1*
X21137Y19922D1*
X21233D1*
X21280Y19898D1*
X21304Y19874D1*
X21329Y19826D1*
Y19779D1*
X21304Y19731D1*
X21257Y19659D1*
X21017Y19420D1*
X21352D1*
X20528Y14922D2*
Y14420D1*
X20695D1*
X20767Y14444D1*
X20815Y14492D1*
X20839Y14540D1*
X20863Y14611D1*
Y14731D1*
X20839Y14803D1*
X20815Y14851D1*
X20767Y14899D1*
X20695Y14922D1*
X20528D1*
X21065D2*
X21328D1*
X21185Y14731D1*
X21257D1*
X21304Y14707D1*
X21328Y14683D1*
X21352Y14611D1*
Y14564D1*
X21328Y14492D1*
X21280Y14444D1*
X21209Y14420D1*
X21137D1*
X21065Y14444D1*
X21042Y14468D1*
X21017Y14516D1*
X27516Y22422D2*
Y21920D1*
X27684D1*
X27755Y21944D1*
X27804Y21992D1*
X27827Y22040D1*
X27851Y22111D1*
Y22231D1*
X27827Y22303D1*
X27804Y22351D1*
X27755Y22399D1*
X27684Y22422D1*
X27516D1*
X28245Y21920D2*
Y22422D1*
X28005Y22088D1*
X28364D1*
X24528Y20422D2*
Y19920D1*
X24695D1*
X24767Y19944D1*
X24815Y19992D1*
X24839Y20040D1*
X24863Y20111D1*
Y20231D1*
X24839Y20303D1*
X24815Y20351D1*
X24767Y20399D1*
X24695Y20422D1*
X24528D1*
X25304D2*
X25065D1*
X25042Y20207D1*
X25065Y20231D1*
X25137Y20255D1*
X25209D1*
X25280Y20231D1*
X25329Y20183D1*
X25352Y20111D1*
Y20064D1*
X25329Y19992D1*
X25280Y19944D1*
X25209Y19920D1*
X25137D1*
X25065Y19944D1*
X25042Y19968D1*
X25017Y20016D1*
X27540Y11922D2*
Y11420D1*
X27708D1*
X27780Y11444D1*
X27828Y11492D1*
X27851Y11540D1*
X27875Y11611D1*
Y11731D1*
X27851Y11803D1*
X27828Y11851D1*
X27780Y11899D1*
X27708Y11922D1*
X27540D1*
X28316Y11851D2*
X28293Y11898D1*
X28221Y11922D1*
X28173D1*
X28101Y11898D1*
X28053Y11826D1*
X28030Y11707D1*
Y11588D1*
X28053Y11492D1*
X28101Y11444D1*
X28173Y11420D1*
X28197D1*
X28268Y11444D1*
X28316Y11492D1*
X28340Y11564D1*
Y11588D1*
X28316Y11659D1*
X28268Y11707D1*
X28197Y11731D1*
X28173D1*
X28101Y11707D1*
X28053Y11659D1*
X28030Y11588D1*
X24528Y10422D2*
Y9920D1*
X24695D1*
X24767Y9944D1*
X24815Y9992D1*
X24839Y10040D1*
X24863Y10111D1*
Y10231D1*
X24839Y10303D1*
X24815Y10351D1*
X24767Y10399D1*
X24695Y10422D1*
X24528D1*
X25113Y9920D2*
X25352Y10422D1*
X25017D1*
X5923Y9672D2*
Y9290D1*
X5899Y9218D1*
X5875Y9194D1*
X5827Y9170D1*
X5779D1*
X5731Y9194D1*
X5708Y9218D1*
X5683Y9290D1*
Y9337D1*
X6077Y9576D2*
X6125Y9601D1*
X6197Y9672D1*
Y9170D1*
X17315Y20672D2*
Y20290D1*
X17291Y20218D1*
X17267Y20194D1*
X17220Y20170D1*
X17171D1*
X17124Y20194D1*
X17100Y20218D1*
X17076Y20290D1*
Y20337D1*
X17494Y20552D2*
Y20576D1*
X17518Y20624D1*
X17541Y20648D1*
X17589Y20672D1*
X17685D1*
X17733Y20648D1*
X17756Y20624D1*
X17781Y20576D1*
Y20529D1*
X17756Y20481D1*
X17709Y20409D1*
X17470Y20170D1*
X17804D1*
X17315Y14672D2*
Y14290D1*
X17291Y14218D1*
X17267Y14194D1*
X17220Y14170D1*
X17171D1*
X17124Y14194D1*
X17100Y14218D1*
X17076Y14290D1*
Y14337D1*
X17518Y14672D2*
X17780D1*
X17637Y14481D1*
X17709D1*
X17756Y14457D1*
X17780Y14433D1*
X17804Y14361D1*
Y14314D1*
X17780Y14242D1*
X17733Y14194D1*
X17661Y14170D1*
X17589D1*
X17518Y14194D1*
X17494Y14218D1*
X17470Y14266D1*
X26166Y24672D2*
Y24290D1*
X26142Y24218D1*
X26118Y24194D1*
X26070Y24170D1*
X26022D1*
X25975Y24194D1*
X25951Y24218D1*
X25927Y24290D1*
Y24337D1*
X26321Y24576D2*
X26369Y24601D1*
X26440Y24672D1*
Y24170D1*
X26834D2*
Y24672D1*
X26595Y24337D1*
X26954D1*
X26178Y16672D2*
Y16290D1*
X26154Y16218D1*
X26130Y16194D1*
X26082Y16170D1*
X26034D1*
X25987Y16194D1*
X25963Y16218D1*
X25939Y16290D1*
Y16337D1*
X26332Y16576D2*
X26380Y16601D1*
X26452Y16672D1*
Y16170D1*
X26894Y16672D2*
X26655D1*
X26631Y16457D1*
X26655Y16481D1*
X26727Y16505D1*
X26798D1*
X26870Y16481D1*
X26918Y16433D1*
X26942Y16361D1*
Y16314D1*
X26918Y16242D1*
X26870Y16194D1*
X26798Y16170D1*
X26727D1*
X26655Y16194D1*
X26631Y16218D1*
X26607Y16266D1*
X26190Y14172D2*
Y13790D1*
X26166Y13718D1*
X26142Y13694D1*
X26095Y13670D1*
X26046D1*
X25999Y13694D1*
X25975Y13718D1*
X25951Y13790D1*
Y13837D1*
X26345Y14076D2*
X26393Y14101D1*
X26464Y14172D1*
Y13670D1*
X26906Y14101D2*
X26882Y14148D1*
X26810Y14172D1*
X26763D1*
X26691Y14148D1*
X26643Y14076D1*
X26619Y13957D1*
Y13837D1*
X26643Y13742D1*
X26691Y13694D1*
X26763Y13670D1*
X26786D1*
X26858Y13694D1*
X26906Y13742D1*
X26929Y13814D1*
Y13837D1*
X26906Y13909D1*
X26858Y13957D1*
X26786Y13981D1*
X26763D1*
X26691Y13957D1*
X26643Y13909D1*
X26619Y13837D1*
X26178Y6672D2*
Y6290D1*
X26154Y6218D1*
X26130Y6194D1*
X26082Y6170D1*
X26034D1*
X25987Y6194D1*
X25963Y6218D1*
X25939Y6290D1*
Y6337D1*
X26332Y6576D2*
X26380Y6601D1*
X26452Y6672D1*
Y6170D1*
X26702D2*
X26942Y6672D1*
X26607D1*
X9455Y10636D2*
Y10851D1*
X9431Y10922D1*
X9407Y10947D1*
X9360Y10970D1*
X9311D1*
X9264Y10947D1*
X9240Y10922D1*
X9216Y10851D1*
Y10636D1*
X9718D1*
X9455Y10803D2*
X9718Y10970D1*
X9312Y11125D2*
X9288Y11173D1*
X9216Y11245D1*
X9718D1*
X20528Y16925D2*
X20743D1*
X20815Y16950D1*
X20839Y16973D1*
X20863Y17021D1*
Y17069D1*
X20839Y17116D1*
X20815Y17141D1*
X20743Y17165D1*
X20528D1*
Y16662D1*
X20695Y16925D2*
X20863Y16662D1*
X21042Y17045D2*
Y17068D1*
X21065Y17116D1*
X21089Y17140D1*
X21137Y17164D1*
X21233D1*
X21280Y17140D1*
X21304Y17116D1*
X21329Y17068D1*
Y17021D1*
X21304Y16973D1*
X21257Y16901D1*
X21017Y16662D1*
X21352D1*
X20528Y10925D2*
X20743D1*
X20815Y10950D1*
X20839Y10973D1*
X20863Y11021D1*
Y11069D1*
X20839Y11116D1*
X20815Y11141D1*
X20743Y11165D1*
X20528D1*
Y10662D1*
X20695Y10925D2*
X20863Y10662D1*
X21065Y11164D2*
X21328D1*
X21185Y10973D1*
X21257D1*
X21304Y10949D1*
X21328Y10925D1*
X21352Y10853D1*
Y10806D1*
X21328Y10734D1*
X21280Y10686D1*
X21209Y10662D1*
X21137D1*
X21065Y10686D1*
X21042Y10710D1*
X21017Y10758D1*
X27516Y19425D2*
X27731D1*
X27803Y19450D1*
X27827Y19473D1*
X27851Y19521D1*
Y19569D1*
X27827Y19616D1*
X27803Y19641D1*
X27731Y19665D1*
X27516D1*
Y19162D1*
X27684Y19425D2*
X27851Y19162D1*
X28245D2*
Y19664D1*
X28005Y19330D1*
X28364D1*
X24528Y21925D2*
X24743D1*
X24815Y21950D1*
X24839Y21973D1*
X24863Y22021D1*
Y22069D1*
X24839Y22116D1*
X24815Y22141D1*
X24743Y22165D1*
X24528D1*
Y21662D1*
X24695Y21925D2*
X24863Y21662D1*
X25304Y22164D2*
X25065D1*
X25042Y21949D1*
X25065Y21973D1*
X25137Y21997D1*
X25209D1*
X25280Y21973D1*
X25329Y21925D1*
X25352Y21853D1*
Y21806D1*
X25329Y21734D1*
X25280Y21686D1*
X25209Y21662D1*
X25137D1*
X25065Y21686D1*
X25042Y21710D1*
X25017Y21758D1*
X27540Y8925D2*
X27755D1*
X27827Y8950D1*
X27851Y8973D1*
X27875Y9021D1*
Y9069D1*
X27851Y9116D1*
X27827Y9141D1*
X27755Y9165D1*
X27540D1*
Y8662D1*
X27708Y8925D2*
X27875Y8662D1*
X28316Y9093D2*
X28293Y9140D1*
X28221Y9164D1*
X28173D1*
X28101Y9140D1*
X28053Y9068D1*
X28030Y8949D1*
Y8830D1*
X28053Y8734D1*
X28101Y8686D1*
X28173Y8662D1*
X28197D1*
X28268Y8686D1*
X28316Y8734D1*
X28340Y8806D1*
Y8830D1*
X28316Y8901D1*
X28268Y8949D1*
X28197Y8973D1*
X28173D1*
X28101Y8949D1*
X28053Y8901D1*
X28030Y8830D1*
X24528Y11425D2*
X24743D1*
X24815Y11450D1*
X24839Y11473D1*
X24863Y11521D1*
Y11569D1*
X24839Y11616D1*
X24815Y11641D1*
X24743Y11665D1*
X24528D1*
Y11162D1*
X24695Y11425D2*
X24863Y11162D1*
X25113D2*
X25352Y11664D1*
X25017D1*
X7136Y20531D2*
Y20172D1*
X7159Y20100D1*
X7207Y20053D1*
X7279Y20028D1*
X7327D1*
X7399Y20053D1*
X7447Y20100D1*
X7470Y20172D1*
Y20531D1*
X7625Y20434D2*
X7673Y20459D1*
X7745Y20530D1*
Y20028D1*
X13028Y21031D2*
Y20672D1*
X13052Y20600D1*
X13100Y20553D1*
X13172Y20528D1*
X13219D1*
X13291Y20553D1*
X13339Y20600D1*
X13363Y20672D1*
Y21031D1*
X13542Y20911D2*
Y20934D1*
X13565Y20983D1*
X13589Y21006D1*
X13637Y21030D1*
X13733D1*
X13780Y21006D1*
X13804Y20983D1*
X13829Y20934D1*
Y20887D1*
X13804Y20839D1*
X13757Y20768D1*
X13517Y20528D1*
X13852D1*
X7982Y12153D2*
X7959Y12201D1*
X7910Y12249D1*
X7863Y12272D1*
X7767D1*
X7719Y12249D1*
X7672Y12201D1*
X7647Y12153D1*
X7624Y12081D1*
Y11961D1*
X7647Y11890D1*
X7672Y11842D1*
X7719Y11794D1*
X7767Y11770D1*
X7863D1*
X7910Y11794D1*
X7959Y11842D1*
X7982Y11890D1*
X8137Y12176D2*
X8185Y12201D1*
X8257Y12272D1*
Y11770D1*
X13375Y12153D2*
X13351Y12201D1*
X13303Y12249D1*
X13255Y12272D1*
X13160D1*
X13112Y12249D1*
X13064Y12201D1*
X13040Y12153D1*
X13016Y12081D1*
Y11961D1*
X13040Y11890D1*
X13064Y11842D1*
X13112Y11794D1*
X13160Y11770D1*
X13255D1*
X13303Y11794D1*
X13351Y11842D1*
X13375Y11890D1*
X13554Y12152D2*
Y12176D1*
X13577Y12224D1*
X13601Y12248D1*
X13649Y12272D1*
X13745D1*
X13792Y12248D1*
X13816Y12224D1*
X13840Y12176D1*
Y12129D1*
X13816Y12081D1*
X13769Y12009D1*
X13529Y11770D1*
X13864D1*
X10534Y6621D2*
D47*
Y6879D1*
X10505Y6965D1*
X10476Y6994D1*
X10419Y7023D1*
X10362D1*
X10305Y6994D1*
X10275Y6965D1*
X10247Y6879D1*
Y6621D1*
X10850D1*
X10534Y6822D2*
X10850Y7023D1*
X10247Y7581D2*
Y7208D1*
X10850D1*
Y7581D1*
X10534Y7208D2*
Y7437D1*
X10333Y8168D2*
X10275Y8111D1*
X10247Y8025D1*
Y7910D1*
X10275Y7824D1*
X10333Y7766D1*
X10390D1*
X10448Y7795D1*
X10476Y7824D1*
X10505Y7881D1*
X10563Y8053D1*
X10591Y8111D1*
X10620Y8139D1*
X10677Y8168D1*
X10764D1*
X10821Y8111D1*
X10850Y8025D1*
Y7910D1*
X10821Y7824D1*
X10764Y7766D1*
X10247Y8726D2*
Y8353D1*
X10850D1*
Y8726D1*
X10534Y8353D2*
Y8583D1*
X10247Y9112D2*
X10850D1*
X10247Y8911D2*
Y9313D1*
X12248Y7965D2*
Y7678D1*
X12506Y7650D1*
X12477Y7678D1*
X12448Y7765D1*
Y7850D1*
X12477Y7936D1*
X12534Y7994D1*
X12620Y8023D1*
X12677D1*
X12764Y7994D1*
X12821Y7936D1*
X12850Y7850D1*
Y7765D1*
X12821Y7678D1*
X12792Y7650D1*
X12735Y7621D1*
X12247Y8208D2*
X12850Y8437D1*
X12247Y8667D1*
X22850Y7080D2*
X22247Y6850D1*
X22850Y6621D1*
X22649Y6707D2*
Y6994D1*
X22248Y7610D2*
Y7323D1*
X22506Y7295D1*
X22477Y7323D1*
X22448Y7410D1*
Y7495D1*
X22477Y7581D1*
X22534Y7639D1*
X22620Y7668D1*
X22677D1*
X22764Y7639D1*
X22821Y7581D1*
X22850Y7495D1*
Y7410D1*
X22821Y7323D1*
X22792Y7295D1*
X22735Y7266D1*
X22534Y20121D2*
Y20379D1*
X22505Y20465D1*
X22476Y20494D1*
X22419Y20523D1*
X22362D1*
X22305Y20494D1*
X22275Y20465D1*
X22247Y20379D1*
Y20121D1*
X22850D1*
X22534Y20322D2*
X22850Y20523D1*
X22247Y20708D2*
X22850Y21110D1*
X22247D2*
X22850Y20708D1*
X22248Y22051D2*
X22276Y21965D1*
X22362Y21907D1*
X22506Y21878D1*
X22592D1*
X22735Y21907D1*
X22821Y21965D1*
X22850Y22051D1*
Y22108D1*
X22821Y22194D1*
X22735Y22251D1*
X22592Y22280D1*
X22506D1*
X22362Y22251D1*
X22276Y22194D1*
X22248Y22108D1*
Y22051D1*
X22362Y22251D2*
X22735Y21907D1*
X11248Y7678D2*
Y7993D1*
X11477Y7822D1*
Y7908D1*
X11506Y7965D1*
X11534Y7993D1*
X11620Y8023D1*
X11677D1*
X11764Y7993D1*
X11821Y7936D1*
X11850Y7850D1*
Y7764D1*
X11821Y7678D1*
X11792Y7650D1*
X11735Y7621D1*
X11792Y8236D2*
X11821Y8208D1*
X11850Y8236D1*
X11821Y8266D1*
X11792Y8236D1*
X11248Y8509D2*
Y8824D1*
X11477Y8652D1*
Y8738D1*
X11506Y8795D1*
X11534Y8824D1*
X11620Y8853D1*
X11677D1*
X11764Y8824D1*
X11821Y8767D1*
X11850Y8680D1*
Y8594D1*
X11821Y8509D1*
X11792Y8480D1*
X11735Y8451D1*
X11247Y9038D2*
X11850Y9268D1*
X11247Y9497D1*
X13390Y7051D2*
X13333Y7023D1*
X13275Y6965D1*
X13247Y6908D1*
Y6793D1*
X13275Y6735D1*
X13333Y6678D1*
X13390Y6649D1*
X13476Y6621D1*
X13620D1*
X13706Y6649D1*
X13763Y6678D1*
X13821Y6735D1*
X13850Y6793D1*
Y6908D1*
X13821Y6965D1*
X13764Y7023D1*
X13706Y7051D1*
X13620D1*
Y6908D1*
X13247Y7638D2*
X13850D1*
X13247Y7236D1*
X13850D1*
X13247Y7824D2*
X13850D1*
Y8025D1*
X13821Y8111D1*
X13764Y8169D1*
X13706Y8197D1*
X13620Y8226D1*
X13476D1*
X13390Y8197D1*
X13333Y8169D1*
X13275Y8111D1*
X13247Y8025D1*
Y7824D1*
X14390Y7051D2*
X14333Y7023D1*
X14275Y6965D1*
X14247Y6908D1*
Y6793D1*
X14275Y6735D1*
X14333Y6678D1*
X14390Y6649D1*
X14476Y6621D1*
X14620D1*
X14706Y6649D1*
X14763Y6678D1*
X14821Y6735D1*
X14850Y6793D1*
Y6908D1*
X14821Y6965D1*
X14764Y7023D1*
X14706Y7051D1*
X14620D1*
Y6908D1*
X14247Y7638D2*
X14850D1*
X14247Y7236D1*
X14850D1*
X14247Y7824D2*
X14850D1*
Y8025D1*
X14821Y8111D1*
X14764Y8169D1*
X14706Y8197D1*
X14620Y8226D1*
X14476D1*
X14390Y8197D1*
X14333Y8169D1*
X14275Y8111D1*
X14247Y8025D1*
Y7824D1*
X15247Y6621D2*
X15850Y6850D1*
X15247Y7080D1*
Y7265D2*
X15275Y7294D1*
X15247Y7323D1*
X15218Y7294D1*
X15247Y7265D1*
X15448Y7294D2*
X15850D1*
X15448Y7508D2*
X15850D1*
X15563D2*
X15476Y7594D1*
X15448Y7652D1*
Y7737D1*
X15476Y7795D1*
X15563Y7824D1*
X15850D1*
X21850Y7080D2*
X21247Y6850D1*
X21850Y6621D1*
X21649Y6707D2*
Y6994D1*
X21850Y7553D2*
X21248D1*
X21649Y7266D1*
Y7696D1*
X20850Y7080D2*
X20247Y6850D1*
X20850Y6621D1*
X20649Y6707D2*
Y6994D1*
X20248Y7323D2*
Y7638D1*
X20477Y7467D1*
Y7553D1*
X20506Y7610D1*
X20534Y7638D1*
X20620Y7668D1*
X20677D1*
X20764Y7638D1*
X20821Y7581D1*
X20850Y7495D1*
Y7409D1*
X20821Y7323D1*
X20792Y7295D1*
X20735Y7266D1*
X19850Y7080D2*
X19247Y6850D1*
X19850Y6621D1*
X19649Y6707D2*
Y6994D1*
X19391Y7295D2*
X19362D1*
X19305Y7323D1*
X19276Y7352D1*
X19248Y7410D1*
Y7524D1*
X19276Y7581D1*
X19305Y7610D1*
X19362Y7639D1*
X19419D1*
X19477Y7610D1*
X19563Y7553D1*
X19850Y7266D1*
Y7668D1*
X18850Y7080D2*
X18247Y6850D1*
X18850Y6621D1*
X18649Y6707D2*
Y6994D1*
X18362Y7266D2*
X18333Y7323D1*
X18248Y7410D1*
X18850D1*
X17850Y7080D2*
X17247Y6850D1*
X17850Y6621D1*
X17649Y6707D2*
Y6994D1*
X17248Y7438D2*
X17276Y7352D1*
X17362Y7294D1*
X17506Y7266D1*
X17592D1*
X17735Y7294D1*
X17821Y7352D1*
X17850Y7438D1*
Y7495D1*
X17821Y7581D1*
X17735Y7638D1*
X17592Y7668D1*
X17506D1*
X17362Y7638D1*
X17276Y7581D1*
X17248Y7495D1*
Y7438D1*
X17362Y7638D2*
X17735Y7294D1*
X21247Y20322D2*
X21850D1*
X21247Y20121D2*
Y20523D1*
Y20708D2*
X21850Y21110D1*
X21247D2*
X21850Y20708D1*
X21362Y21878D2*
X21333Y21936D1*
X21248Y22022D1*
X21850D1*
X20391Y21650D2*
X20362D1*
X20305Y21678D1*
X20276Y21707D1*
X20248Y21765D1*
Y21879D1*
X20276Y21936D1*
X20305Y21965D1*
X20362Y21994D1*
X20419D1*
X20477Y21965D1*
X20563Y21908D1*
X20850Y21621D1*
Y22023D1*
X18850Y21908D2*
X18248D1*
X18649Y21621D1*
Y22051D1*
X17248Y21965D2*
Y21678D1*
X17506Y21650D1*
X17477Y21678D1*
X17448Y21765D1*
Y21850D1*
X17477Y21936D1*
X17534Y21994D1*
X17620Y22023D1*
X17677D1*
X17764Y21994D1*
X17821Y21936D1*
X17850Y21850D1*
Y21765D1*
X17821Y21678D1*
X17792Y21650D1*
X17735Y21621D1*
X16333Y21965D2*
X16276Y21936D1*
X16248Y21850D1*
Y21793D1*
X16276Y21707D1*
X16362Y21649D1*
X16506Y21621D1*
X16649D1*
X16763Y21649D1*
X16821Y21707D1*
X16850Y21793D1*
Y21822D1*
X16821Y21907D1*
X16764Y21965D1*
X16677Y21993D1*
X16649D1*
X16563Y21965D1*
X16506Y21907D1*
X16477Y21822D1*
Y21793D1*
X16506Y21707D1*
X16563Y21649D1*
X16649Y21621D1*
X19248Y21678D2*
Y21993D1*
X19477Y21822D1*
Y21908D1*
X19506Y21965D1*
X19534Y21993D1*
X19620Y22023D1*
X19677D1*
X19764Y21993D1*
X19821Y21936D1*
X19850Y21850D1*
Y21764D1*
X19821Y21678D1*
X19792Y21650D1*
X19735Y21621D1*
X15850Y21735D2*
X15248Y22023D1*
Y21621D1*
X8862D2*
X8833Y21678D1*
X8748Y21765D1*
X9350D1*
X8748Y22008D2*
Y22323D1*
X8977Y22151D1*
Y22237D1*
X9006Y22294D1*
X9034Y22323D1*
X9120Y22352D1*
X9177D1*
X9264Y22323D1*
X9321Y22266D1*
X9350Y22179D1*
Y22093D1*
X9321Y22008D1*
X9292Y21979D1*
X9235Y21950D1*
X12948Y21994D2*
X13034Y21965D1*
X13092Y21908D1*
X13120Y21822D1*
Y21793D1*
X13092Y21707D1*
X13034Y21650D1*
X12948Y21621D1*
X12919D1*
X12833Y21650D1*
X12776Y21707D1*
X12748Y21793D1*
Y21822D1*
X12776Y21908D1*
X12833Y21965D1*
X12948Y21994D1*
X13092D1*
X13235Y21965D1*
X13321Y21908D1*
X13350Y21822D1*
Y21765D1*
X13321Y21678D1*
X13263Y21650D1*
X11862Y21621D2*
X11833Y21678D1*
X11748Y21765D1*
X12350D1*
X11748Y22122D2*
X11776Y22036D1*
X11862Y21978D1*
X12006Y21950D1*
X12092D1*
X12235Y21978D1*
X12321Y22036D1*
X12350Y22122D1*
Y22179D1*
X12321Y22266D1*
X12235Y22323D1*
X12092Y22352D1*
X12006D1*
X11862Y22323D1*
X11776Y22266D1*
X11748Y22179D1*
Y22122D1*
X11862Y22323D2*
X12235Y21978D1*
X10862Y21621D2*
X10833Y21678D1*
X10748Y21765D1*
X11350D1*
X10862Y21950D2*
X10833Y22008D1*
X10748Y22094D1*
X11350D1*
X9862Y21621D2*
X9833Y21678D1*
X9748Y21765D1*
X10350D1*
X9891Y21979D2*
X9862D1*
X9805Y22008D1*
X9776Y22036D1*
X9748Y22094D1*
Y22209D1*
X9776Y22266D1*
X9805Y22294D1*
X9862Y22323D1*
X9919D1*
X9977Y22294D1*
X10063Y22237D1*
X10350Y21950D1*
Y22352D1*
X13748Y21764D2*
X13776Y21678D1*
X13833Y21649D1*
X13891D1*
X13948Y21678D1*
X13977Y21735D1*
X14006Y21850D1*
X14034Y21936D1*
X14092Y21993D1*
X14149Y22022D1*
X14235D1*
X14292Y21993D1*
X14321Y21965D1*
X14350Y21879D1*
Y21764D1*
X14321Y21678D1*
X14292Y21649D1*
X14235Y21621D1*
X14149D1*
X14092Y21649D1*
X14034Y21707D1*
X14006Y21793D1*
X13977Y21907D1*
X13948Y21965D1*
X13891Y21993D1*
X13833D1*
X13776Y21965D1*
X13748Y21879D1*
Y21764D1*
X7890Y21051D2*
X7833Y21023D1*
X7775Y20965D1*
X7747Y20908D1*
Y20793D1*
X7775Y20735D1*
X7833Y20678D1*
X7890Y20649D1*
X7976Y20621D1*
X8120D1*
X8206Y20649D1*
X8263Y20678D1*
X8321Y20735D1*
X8350Y20793D1*
Y20908D1*
X8321Y20965D1*
X8264Y21023D1*
X8206Y21051D1*
X8120D1*
Y20908D1*
X7747Y21638D2*
X8350D1*
X7747Y21236D1*
X8350D1*
X7747Y21824D2*
X8350D1*
Y22025D1*
X8321Y22111D1*
X8264Y22169D1*
X8206Y22197D1*
X8120Y22226D1*
X7976D1*
X7890Y22197D1*
X7833Y22169D1*
X7775Y22111D1*
X7747Y22025D1*
Y21824D1*
X7350Y20580D2*
X6747Y20350D1*
X7350Y20121D1*
X7149Y20207D2*
Y20494D1*
X7034Y20766D2*
Y21024D1*
X7005Y21110D1*
X6976Y21139D1*
X6919Y21168D1*
X6862D1*
X6805Y21139D1*
X6775Y21110D1*
X6747Y21024D1*
Y20766D1*
X7350D1*
X7034Y20967D2*
X7350Y21168D1*
X6747Y21726D2*
Y21353D1*
X7350D1*
Y21726D1*
X7034Y21353D2*
Y21582D1*
X6747Y22284D2*
Y21911D1*
X7350D1*
X7034D2*
Y22140D1*
M02*
