M48
; DRILL file {KiCad 8.0.2-1} date 2024-08-19T19:19:22+1000
; FORMAT={-:-/ absolute / metric / decimal}
; #@! TF.CreationDate,2024-08-19T19:19:22+10:00
; #@! TF.GenerationSoftware,Kicad,Pcbnew,8.0.2-1
; #@! TF.FileFunction,Plated,1,2,PTH
FMAT,2
METRIC
; #@! TA.AperFunction,Plated,PTH,ViaDrill
T1C0.400
; #@! TA.AperFunction,Plated,PTH,ComponentDrill
T2C0.700
; #@! TA.AperFunction,Plated,PTH,ComponentDrill
T3C0.900
; #@! TA.AperFunction,Plated,PTH,ComponentDrill
T4C1.000
; #@! TA.AperFunction,Plated,PTH,ComponentDrill
T5C1.110
; #@! TA.AperFunction,Plated,PTH,ComponentDrill
T6C1.190
%
G90
G05
T1
X127.67Y-74.755
X127.954Y-62.081
X128.37Y-59.13
X132.199Y-94.013
X133.188Y-95.144
X136.674Y-71.344
X136.735Y-92.719
X144.775Y-77.897
X145.936Y-56.297
X149.456Y-94.069
X151.882Y-74.01
X172.329Y-70.257
X185.147Y-61.576
X199.976Y-119.809
X201.062Y-104.016
X204.746Y-93.269
T2
X119.1Y-45.644
X120.325Y-132.385
X120.43Y-73.05
X120.48Y-70.15
X120.56Y-75.95
X121.64Y-45.644
X122.865Y-132.385
X122.97Y-73.05
X123.02Y-70.15
X123.1Y-75.95
X127.94Y-40.26
X127.94Y-42.8
X201.85Y-94.9
X201.85Y-97.504
X201.85Y-100.109
X201.85Y-102.714
X201.85Y-105.318
X201.85Y-107.923
X201.85Y-110.527
X201.85Y-113.132
X201.85Y-115.736
X201.85Y-118.341
X201.85Y-120.945
X201.85Y-123.55
X204.39Y-94.9
X204.39Y-97.504
X204.39Y-100.109
X204.39Y-102.714
X204.39Y-105.318
X204.39Y-107.923
X204.39Y-110.527
X204.39Y-113.132
X204.39Y-115.736
X204.39Y-118.341
X204.39Y-120.945
X204.39Y-123.55
T3
X117.013Y-40.564
X119.553Y-40.564
X122.601Y-40.564
X125.141Y-40.564
T4
X118.796Y-49.2
X118.796Y-52.985
X121.336Y-49.2
X121.336Y-52.985
X123.876Y-49.2
X123.876Y-52.985
X126.416Y-49.2
X126.416Y-52.985
X127.94Y-97.46
X127.94Y-101.27
X128.956Y-49.2
X128.956Y-52.985
X130.48Y-97.46
X130.48Y-101.27
X130.9Y-58.15
X130.9Y-75.93
X131.496Y-49.2
X131.496Y-52.985
X133.02Y-97.46
X133.02Y-101.27
X133.44Y-58.15
X133.44Y-75.93
X134.036Y-49.2
X134.036Y-52.985
X135.56Y-97.46
X135.56Y-101.27
X135.98Y-58.15
X135.98Y-75.93
X136.576Y-49.2
X136.576Y-52.985
X138.1Y-97.46
X138.1Y-101.27
X138.52Y-58.15
X138.52Y-75.93
X139.116Y-49.2
X139.116Y-52.985
X140.64Y-97.46
X140.64Y-101.27
X141.06Y-58.15
X141.06Y-75.93
X141.656Y-49.2
X141.656Y-52.985
X142.82Y-107.8
X142.82Y-112.45
X142.82Y-117.1
X142.82Y-121.75
X143.18Y-97.46
X143.18Y-101.27
X143.6Y-58.15
X143.6Y-75.93
X145.36Y-107.8
X145.36Y-112.45
X145.36Y-117.1
X145.36Y-121.75
X145.72Y-49.2
X145.72Y-53.01
X145.72Y-97.46
X145.72Y-101.27
X146.14Y-58.15
X146.14Y-75.93
X147.9Y-107.8
X147.9Y-112.45
X147.9Y-117.1
X147.9Y-121.75
X148.26Y-49.2
X148.26Y-53.01
X148.68Y-58.15
X148.68Y-75.93
X150.44Y-107.8
X150.44Y-112.45
X150.44Y-117.1
X150.44Y-121.75
X150.8Y-49.2
X150.8Y-53.01
X150.8Y-97.46
X150.8Y-101.905
X151.22Y-58.15
X151.22Y-75.93
X151.98Y-39.95
X151.98Y-44.55
X152.98Y-107.8
X152.98Y-112.45
X152.98Y-117.1
X152.98Y-121.75
X153.34Y-49.2
X153.34Y-53.01
X153.34Y-97.46
X153.34Y-101.905
X153.76Y-58.15
X153.76Y-75.93
X154.52Y-39.95
X154.52Y-44.55
X155.52Y-107.8
X155.52Y-112.45
X155.52Y-117.1
X155.52Y-121.75
X155.88Y-49.2
X155.88Y-53.01
X155.88Y-97.46
X155.88Y-101.905
X156.3Y-58.15
X156.3Y-75.93
X157.06Y-39.95
X157.06Y-44.55
X158.06Y-107.8
X158.06Y-112.45
X158.06Y-117.1
X158.06Y-121.75
X158.42Y-49.2
X158.42Y-53.01
X158.42Y-97.46
X158.42Y-101.905
X158.84Y-58.15
X158.84Y-75.93
X159.6Y-39.95
X159.6Y-44.55
X160.6Y-107.8
X160.6Y-112.45
X160.6Y-117.1
X160.6Y-121.75
X160.96Y-49.2
X160.96Y-53.01
X160.96Y-97.46
X160.96Y-101.905
X162.14Y-39.95
X162.14Y-44.55
X163.14Y-107.8
X163.14Y-112.45
X163.14Y-117.1
X163.14Y-121.75
X163.5Y-49.2
X163.5Y-53.01
X163.5Y-97.46
X163.5Y-101.905
X164.68Y-39.95
X164.68Y-44.55
X165.68Y-107.8
X165.68Y-112.45
X165.68Y-117.1
X165.68Y-121.75
X166.04Y-97.46
X166.04Y-101.905
X167.22Y-39.95
X167.22Y-44.55
X168.22Y-107.8
X168.22Y-112.45
X168.22Y-117.1
X168.22Y-121.75
X168.58Y-49.2
X168.58Y-53.01
X168.58Y-97.46
X168.58Y-101.905
X169.76Y-39.95
X169.76Y-44.55
X170.76Y-107.8
X170.76Y-112.45
X170.76Y-117.1
X170.76Y-121.75
X171.12Y-49.2
X171.12Y-53.01
X172.3Y-39.95
X172.3Y-44.55
X173.3Y-107.8
X173.3Y-112.45
X173.3Y-117.1
X173.3Y-121.75
X173.66Y-49.2
X173.66Y-53.01
X173.66Y-97.46
X173.66Y-101.905
X174.84Y-39.95
X174.84Y-44.55
X175.84Y-107.8
X175.84Y-112.45
X175.84Y-117.1
X175.84Y-121.75
X176.2Y-49.2
X176.2Y-53.01
X176.2Y-97.46
X176.2Y-101.905
X177.38Y-39.95
X177.38Y-44.55
X178.38Y-107.8
X178.38Y-112.45
X178.38Y-117.1
X178.38Y-121.75
X178.74Y-49.2
X178.74Y-53.01
X178.74Y-97.46
X178.74Y-101.905
X179.92Y-39.95
X179.92Y-44.55
X180.92Y-107.8
X180.92Y-112.45
X180.92Y-117.1
X180.92Y-121.75
X181.28Y-49.2
X181.28Y-53.01
X181.28Y-97.46
X181.28Y-101.905
X183.82Y-49.2
X183.82Y-53.01
X183.82Y-97.46
X183.82Y-101.905
X186.36Y-49.2
X186.36Y-53.01
X186.36Y-97.46
X186.36Y-101.905
X188.9Y-97.46
X188.9Y-101.905
X191.44Y-97.46
X191.44Y-101.905
X193.98Y-49.2
X193.98Y-51.74
X193.98Y-54.28
X193.98Y-56.82
X193.98Y-59.36
X193.98Y-61.9
X193.98Y-64.44
X193.98Y-66.98
X193.98Y-69.52
X193.98Y-72.06
X193.98Y-74.6
X193.98Y-77.14
X193.98Y-79.68
X193.98Y-82.22
X193.98Y-84.76
X193.98Y-87.3
X193.98Y-89.84
X193.98Y-92.38
X196.52Y-49.2
X196.52Y-51.74
X196.52Y-54.28
X196.52Y-56.82
X196.52Y-59.36
X196.52Y-61.9
X196.52Y-64.44
X196.52Y-66.98
X196.52Y-69.52
X196.52Y-72.06
X196.52Y-74.6
X196.52Y-77.14
X196.52Y-79.68
X196.52Y-82.22
X196.52Y-84.76
X196.52Y-87.3
X196.52Y-89.84
X196.52Y-92.38
X196.85Y-96.81
X196.85Y-99.35
X196.85Y-101.89
X196.85Y-104.43
X196.85Y-106.97
X196.85Y-109.51
X196.85Y-112.05
X196.85Y-114.59
X196.85Y-117.13
X196.85Y-119.67
X196.85Y-122.21
X196.85Y-124.75
X203.45Y-47.6
X203.45Y-50.14
X203.45Y-52.68
X203.45Y-55.22
X203.45Y-57.76
X203.45Y-60.3
X203.45Y-62.84
X203.45Y-65.38
X203.45Y-67.92
X203.45Y-70.46
X203.45Y-73.0
X203.45Y-75.54
X203.45Y-78.08
X203.45Y-80.62
X203.45Y-83.16
X203.45Y-85.7
T5
X117.495Y-105.715
X117.495Y-126.035
X120.035Y-105.715
X120.035Y-126.035
X122.575Y-105.715
X122.575Y-126.035
X125.115Y-105.715
X125.115Y-126.035
X127.655Y-105.715
X127.655Y-126.035
X130.195Y-105.715
X130.195Y-126.035
T6
X120.44Y-84.22
X122.98Y-84.22
X125.52Y-84.22
X128.06Y-84.22
X134.01Y-84.3
X136.55Y-84.3
X139.09Y-84.3
X141.63Y-84.3
X145.71Y-84.4
X148.25Y-84.4
X150.79Y-84.4
X153.33Y-84.4
X163.0Y-73.2
X165.39Y-82.22
X165.51Y-90.55
X165.54Y-73.2
X167.93Y-82.22
X168.05Y-90.55
X168.08Y-73.2
X170.47Y-82.22
X170.59Y-90.55
X170.62Y-73.2
X173.01Y-82.22
X173.13Y-90.55
X173.16Y-73.2
X175.7Y-73.2
X180.48Y-59.45
X180.48Y-70.432
X180.48Y-79.891
X180.48Y-89.35
X183.02Y-59.45
X183.02Y-70.432
X183.02Y-79.891
X183.02Y-89.35
X185.56Y-59.45
X185.56Y-70.432
X185.56Y-79.891
X185.56Y-89.35
X188.1Y-59.45
X188.1Y-70.432
X188.1Y-79.891
X188.1Y-89.35
M30
