%TF.GenerationSoftware,KiCad,Pcbnew,(6.0.7-1)-1*%
%TF.CreationDate,2023-11-06T04:03:55+10:00*%
%TF.ProjectId,Caution Panel,43617574-696f-46e2-9050-616e656c2e6b,rev?*%
%TF.SameCoordinates,Original*%
%TF.FileFunction,Soldermask,Bot*%
%TF.FilePolarity,Negative*%
%FSLAX46Y46*%
G04 Gerber Fmt 4.6, Leading zero omitted, Abs format (unit mm)*
G04 Created by KiCad (PCBNEW (6.0.7-1)-1) date 2023-11-06 04:03:55*
%MOMM*%
%LPD*%
G01*
G04 APERTURE LIST*
G04 Aperture macros list*
%AMRoundRect*
0 Rectangle with rounded corners*
0 $1 Rounding radius*
0 $2 $3 $4 $5 $6 $7 $8 $9 X,Y pos of 4 corners*
0 Add a 4 corners polygon primitive as box body*
4,1,4,$2,$3,$4,$5,$6,$7,$8,$9,$2,$3,0*
0 Add four circle primitives for the rounded corners*
1,1,$1+$1,$2,$3*
1,1,$1+$1,$4,$5*
1,1,$1+$1,$6,$7*
1,1,$1+$1,$8,$9*
0 Add four rect primitives between the rounded corners*
20,1,$1+$1,$2,$3,$4,$5,0*
20,1,$1+$1,$4,$5,$6,$7,0*
20,1,$1+$1,$6,$7,$8,$9,0*
20,1,$1+$1,$8,$9,$2,$3,0*%
G04 Aperture macros list end*
%ADD10R,1.800000X1.800000*%
%ADD11C,1.800000*%
%ADD12RoundRect,0.250000X0.845000X-0.620000X0.845000X0.620000X-0.845000X0.620000X-0.845000X-0.620000X0*%
%ADD13O,2.190000X1.740000*%
G04 APERTURE END LIST*
D10*
%TO.C,D92*%
X245000000Y-97893600D03*
D11*
X245000000Y-95353600D03*
%TD*%
D10*
%TO.C,D77*%
X214524800Y-82650500D03*
D11*
X214524800Y-80110500D03*
%TD*%
D10*
%TO.C,D39*%
X138367300Y-57259300D03*
D11*
X138367300Y-54719300D03*
%TD*%
D10*
%TO.C,D62*%
X184044600Y-72475700D03*
D11*
X184044600Y-69935700D03*
%TD*%
D10*
%TO.C,D63*%
X184044600Y-57259300D03*
D11*
X184044600Y-54719300D03*
%TD*%
D10*
%TO.C,D96*%
X245000000Y-57259300D03*
D11*
X245000000Y-54719300D03*
%TD*%
D10*
%TO.C,D91*%
X245000000Y-108055000D03*
D11*
X245000000Y-105515000D03*
%TD*%
D10*
%TO.C,D55*%
X168805900Y-57259300D03*
D11*
X168805900Y-54719300D03*
%TD*%
D10*
%TO.C,D60*%
X184044600Y-97893600D03*
D11*
X184044600Y-95353600D03*
%TD*%
D10*
%TO.C,D69*%
X199281400Y-82650500D03*
D11*
X199281400Y-80110500D03*
%TD*%
D10*
%TO.C,D73*%
X214524800Y-133465000D03*
D11*
X214524800Y-130925000D03*
%TD*%
D10*
%TO.C,D38*%
X138367300Y-72475700D03*
D11*
X138367300Y-69935700D03*
%TD*%
D10*
%TO.C,D23*%
X107871400Y-57259300D03*
D11*
X107871400Y-54719300D03*
%TD*%
D10*
%TO.C,D20*%
X107871400Y-97893600D03*
D11*
X107871400Y-95353600D03*
%TD*%
D10*
%TO.C,D8*%
X77400300Y-47101300D03*
D11*
X77400300Y-44561300D03*
%TD*%
D10*
%TO.C,D15*%
X92647100Y-57259300D03*
D11*
X92647100Y-54719300D03*
%TD*%
D10*
%TO.C,D6*%
X77390100Y-72475700D03*
D11*
X77390100Y-69935700D03*
%TD*%
D10*
%TO.C,D34*%
X138367300Y-123289800D03*
D11*
X138367300Y-120749800D03*
%TD*%
D10*
%TO.C,D59*%
X184044600Y-108055000D03*
D11*
X184044600Y-105515000D03*
%TD*%
D10*
%TO.C,D17*%
X107871400Y-133479700D03*
D11*
X107871400Y-130939700D03*
%TD*%
D10*
%TO.C,D3*%
X77413300Y-108055000D03*
D11*
X77413300Y-105515000D03*
%TD*%
D10*
%TO.C,D11*%
X92647100Y-108055000D03*
D11*
X92647100Y-105515000D03*
%TD*%
D10*
%TO.C,D2*%
X77391600Y-123289800D03*
D11*
X77391600Y-120749800D03*
%TD*%
D10*
%TO.C,D47*%
X153596400Y-57259300D03*
D11*
X153596400Y-54719300D03*
%TD*%
D10*
%TO.C,D58*%
X184044600Y-123289800D03*
D11*
X184044600Y-120749800D03*
%TD*%
D10*
%TO.C,D89*%
X245000000Y-133462100D03*
D11*
X245000000Y-130922100D03*
%TD*%
D10*
%TO.C,D32*%
X123100500Y-47101300D03*
D11*
X123100500Y-44561300D03*
%TD*%
D10*
%TO.C,D33*%
X138367300Y-133456200D03*
D11*
X138367300Y-130916200D03*
%TD*%
D10*
%TO.C,D48*%
X153596400Y-47101300D03*
D11*
X153596400Y-44561300D03*
%TD*%
D10*
%TO.C,D46*%
X153596400Y-72475700D03*
D11*
X153596400Y-69935700D03*
%TD*%
D10*
%TO.C,D82*%
X229779700Y-123289800D03*
D11*
X229779700Y-120749800D03*
%TD*%
D10*
%TO.C,D95*%
X245000000Y-47101300D03*
D11*
X245000000Y-44561300D03*
%TD*%
D10*
%TO.C,D13*%
X92647100Y-82650500D03*
D11*
X92647100Y-80110500D03*
%TD*%
D10*
%TO.C,D19*%
X107871400Y-108055000D03*
D11*
X107871400Y-105515000D03*
%TD*%
D10*
%TO.C,D67*%
X199281400Y-108055000D03*
D11*
X199281400Y-105515000D03*
%TD*%
D10*
%TO.C,D78*%
X214524800Y-72475700D03*
D11*
X214524800Y-69935700D03*
%TD*%
D10*
%TO.C,D44*%
X153596400Y-97893600D03*
D11*
X153596400Y-95353600D03*
%TD*%
D10*
%TO.C,D94*%
X245000000Y-72475700D03*
D11*
X245000000Y-69935700D03*
%TD*%
D10*
%TO.C,D80*%
X214524800Y-47101300D03*
D11*
X214524800Y-44561300D03*
%TD*%
D10*
%TO.C,D86*%
X229779700Y-72475700D03*
D11*
X229779700Y-69935700D03*
%TD*%
D10*
%TO.C,D12*%
X92647100Y-97893600D03*
D11*
X92647100Y-95353600D03*
%TD*%
D10*
%TO.C,D37*%
X138367300Y-82650500D03*
D11*
X138367300Y-80110500D03*
%TD*%
D10*
%TO.C,D75*%
X214524800Y-108055000D03*
D11*
X214524800Y-105515000D03*
%TD*%
D10*
%TO.C,D21*%
X107871400Y-82650500D03*
D11*
X107871400Y-80110500D03*
%TD*%
D10*
%TO.C,D93*%
X245000000Y-82650500D03*
D11*
X245000000Y-80110500D03*
%TD*%
D10*
%TO.C,D18*%
X107871400Y-123289800D03*
D11*
X107871400Y-120749800D03*
%TD*%
D10*
%TO.C,D45*%
X153596400Y-82650500D03*
D11*
X153596400Y-80110500D03*
%TD*%
D10*
%TO.C,D42*%
X153596400Y-123289800D03*
D11*
X153596400Y-120749800D03*
%TD*%
D10*
%TO.C,D57*%
X184044600Y-133459400D03*
D11*
X184044600Y-130919400D03*
%TD*%
D10*
%TO.C,D22*%
X107871400Y-72475700D03*
D11*
X107871400Y-69935700D03*
%TD*%
D10*
%TO.C,D43*%
X153596400Y-108055000D03*
D11*
X153596400Y-105515000D03*
%TD*%
D10*
%TO.C,D27*%
X123100500Y-108055000D03*
D11*
X123100500Y-105515000D03*
%TD*%
D10*
%TO.C,D83*%
X229779700Y-108055000D03*
D11*
X229779700Y-105515000D03*
%TD*%
D10*
%TO.C,D28*%
X123100500Y-97893600D03*
D11*
X123100500Y-95353600D03*
%TD*%
D10*
%TO.C,D10*%
X92647100Y-123289800D03*
D11*
X92647100Y-120749800D03*
%TD*%
D10*
%TO.C,D5*%
X77409700Y-82650500D03*
D11*
X77409700Y-80110500D03*
%TD*%
D10*
%TO.C,D79*%
X214524800Y-57259300D03*
D11*
X214524800Y-54719300D03*
%TD*%
D10*
%TO.C,D56*%
X168805900Y-47101300D03*
D11*
X168805900Y-44561300D03*
%TD*%
D10*
%TO.C,D40*%
X138367300Y-47101300D03*
D11*
X138367300Y-44561300D03*
%TD*%
D10*
%TO.C,D36*%
X138367300Y-97893600D03*
D11*
X138367300Y-95353600D03*
%TD*%
D10*
%TO.C,D25*%
X123100500Y-133466700D03*
D11*
X123100500Y-130926700D03*
%TD*%
D10*
%TO.C,D87*%
X229779700Y-57259300D03*
D11*
X229779700Y-54719300D03*
%TD*%
D10*
%TO.C,D53*%
X168805900Y-82650500D03*
D11*
X168805900Y-80110500D03*
%TD*%
D10*
%TO.C,D49*%
X168805900Y-133450900D03*
D11*
X168805900Y-130910900D03*
%TD*%
D10*
%TO.C,D14*%
X92647100Y-72475700D03*
D11*
X92647100Y-69935700D03*
%TD*%
D10*
%TO.C,D9*%
X92647100Y-133482200D03*
D11*
X92647100Y-130942200D03*
%TD*%
D10*
%TO.C,D52*%
X168805900Y-97893600D03*
D11*
X168805900Y-95353600D03*
%TD*%
D10*
%TO.C,D4*%
X77406300Y-97893600D03*
D11*
X77406300Y-95353600D03*
%TD*%
D10*
%TO.C,D66*%
X199281400Y-123289800D03*
D11*
X199281400Y-120749800D03*
%TD*%
D10*
%TO.C,D85*%
X229779700Y-82650500D03*
D11*
X229779700Y-80110500D03*
%TD*%
D10*
%TO.C,D26*%
X123100500Y-123289800D03*
D11*
X123100500Y-120749800D03*
%TD*%
D10*
%TO.C,D81*%
X229779700Y-133470000D03*
D11*
X229779700Y-130930000D03*
%TD*%
D10*
%TO.C,D30*%
X123100500Y-72475700D03*
D11*
X123100500Y-69935700D03*
%TD*%
D10*
%TO.C,D7*%
X77394900Y-57259300D03*
D11*
X77394900Y-54719300D03*
%TD*%
D10*
%TO.C,D16*%
X92647100Y-47101300D03*
D11*
X92647100Y-44561300D03*
%TD*%
D10*
%TO.C,D29*%
X123100500Y-82650500D03*
D11*
X123100500Y-80110500D03*
%TD*%
D10*
%TO.C,D84*%
X229779700Y-97893600D03*
D11*
X229779700Y-95353600D03*
%TD*%
D10*
%TO.C,D64*%
X184044600Y-47101300D03*
D11*
X184044600Y-44561300D03*
%TD*%
D10*
%TO.C,D70*%
X199281400Y-72475700D03*
D11*
X199281400Y-69935700D03*
%TD*%
D10*
%TO.C,D54*%
X168805900Y-72475700D03*
D11*
X168805900Y-69935700D03*
%TD*%
D10*
%TO.C,D72*%
X199281400Y-47101300D03*
D11*
X199281400Y-44561300D03*
%TD*%
D10*
%TO.C,D50*%
X168805900Y-123289800D03*
D11*
X168805900Y-120749800D03*
%TD*%
D10*
%TO.C,D90*%
X245000000Y-123289800D03*
D11*
X245000000Y-120749800D03*
%TD*%
D10*
%TO.C,D41*%
X153596400Y-133392400D03*
D11*
X153596400Y-130852400D03*
%TD*%
D10*
%TO.C,D71*%
X199281400Y-57259300D03*
D11*
X199281400Y-54719300D03*
%TD*%
D10*
%TO.C,D1*%
X77397300Y-133446800D03*
D11*
X77397300Y-130906800D03*
%TD*%
D10*
%TO.C,D76*%
X214524800Y-97893600D03*
D11*
X214524800Y-95353600D03*
%TD*%
D10*
%TO.C,D61*%
X184044600Y-82650500D03*
D11*
X184044600Y-80110500D03*
%TD*%
D10*
%TO.C,D24*%
X107871400Y-47101300D03*
D11*
X107871400Y-44561300D03*
%TD*%
D10*
%TO.C,D74*%
X214524800Y-123289800D03*
D11*
X214524800Y-120749800D03*
%TD*%
D10*
%TO.C,D88*%
X229779700Y-47101300D03*
D11*
X229779700Y-44561300D03*
%TD*%
D10*
%TO.C,D68*%
X199281400Y-97893600D03*
D11*
X199281400Y-95353600D03*
%TD*%
D10*
%TO.C,D31*%
X123100500Y-57259300D03*
D11*
X123100500Y-54719300D03*
%TD*%
D10*
%TO.C,D51*%
X168805900Y-108055000D03*
D11*
X168805900Y-105515000D03*
%TD*%
D10*
%TO.C,D35*%
X138367300Y-108055000D03*
D11*
X138367300Y-105515000D03*
%TD*%
D10*
%TO.C,D65*%
X199281400Y-133491000D03*
D11*
X199281400Y-130951000D03*
%TD*%
D12*
%TO.C,J2*%
X160774300Y-109247600D03*
D13*
X160774300Y-106707600D03*
X160774300Y-104167600D03*
X160774300Y-101627600D03*
X160774300Y-99087600D03*
X160774300Y-96547600D03*
X160774300Y-94007600D03*
X160774300Y-91467600D03*
%TD*%
D12*
%TO.C,J1*%
X161162500Y-79652600D03*
D13*
X161162500Y-77112600D03*
X161162500Y-74572600D03*
X161162500Y-72032600D03*
X161162500Y-69492600D03*
X161162500Y-66952600D03*
X161162500Y-64412600D03*
X161162500Y-61872600D03*
%TD*%
D12*
%TO.C,J3*%
X176331800Y-109247600D03*
D13*
X176331800Y-106707600D03*
X176331800Y-104167600D03*
X176331800Y-101627600D03*
X176331800Y-99087600D03*
X176331800Y-96547600D03*
X176331800Y-94007600D03*
X176331800Y-91467600D03*
%TD*%
D12*
%TO.C,J4*%
X176351800Y-74572600D03*
D13*
X176351800Y-72032600D03*
X176351800Y-69492600D03*
X176351800Y-66952600D03*
%TD*%
M02*
