  0
SECTION
  2
HEADER
  9
$ANGBASE
  50
0.0
  9
$ANGDIR
  70
1
  9
$MEASUREMENT
  70
1
  0
ENDSEC
  0
SECTION
  2
TABLES
  0
TABLE
  2
LTYPE
  70
4
  0
LTYPE
  5
40F
  2
CONTINUOUS
  70
0
  3
Solid line
  72
65
  73
0
  40
0.0
  0
LTYPE
  5
410
  2
DASHDOT
 70
0
  3
Dash Dot ____ _ ____ _
 72
65
 73
4
 40
2.0
 49
1.25
 49
-0.25
 49
0.25
 49
-0.25
  0
LTYPE
  5
411
  2
DASHED
 70
0
  3
Dashed __ __ __ __ __
 72
65
 73
2
 40
0.75
 49
0.5
 49
-0.25
  0
LTYPE
  5
43B
  2
DOTTED
 70
0
  3
Dotted .  .  .  .
 72
65
 73
2
 40
0.2
 49
0.0
 49
-0.2
  0
ENDTAB
  0
TABLE
  2
STYLE
  70
4
  0
STYLE
  2
KICAD
  70
0
  40
0
  41
1
  42
1
  50
0
  71
0
  3
isocp.shx
  0
STYLE
  2
KICADB
  70
0
  40
0
  41
1
  42
1
  50
0
  71
0
  3
isocp.shx
  0
STYLE
  2
KICADI
  70
0
  40
0
  41
1
  42
1
  50
15
  71
0
  3
isocp.shx
  0
STYLE
  2
KICADBI
  70
0
  40
0
  41
1
  42
1
  50
15
  71
0
  3
isocp.shx
  0
ENDTAB
  0
TABLE
  2
LAYER
  70
1
  0
LAYER
  2
BLACK
  70
0
  62
7
  6
CONTINUOUS
  0
ENDTAB
  0
ENDSEC
  0
SECTION
  2
ENTITIES
0
LINE
8
BLACK
6
CONTINUOUS
10
72.5
20
-40
11
250
21
-40
0
LINE
8
BLACK
6
CONTINUOUS
10
250
20
-40
11
250
21
-137.5
0
LINE
8
BLACK
6
CONTINUOUS
10
250
20
-137.5
11
72.5
21
-137.5
0
LINE
8
BLACK
6
CONTINUOUS
10
72.5
20
-137.5
11
72.5
21
-40
0
LINE
8
BLACK
6
CONTINUOUS
10
76.9401
20
-69.4857
11
77.8401
21
-70.3857
0
LINE
8
BLACK
6
CONTINUOUS
10
77.8401
20
-69.4857
11
76.9401
21
-70.3857
0
LINE
8
BLACK
6
CONTINUOUS
10
76.9401
20
-72.0257
11
77.8401
21
-72.9257
0
LINE
8
BLACK
6
CONTINUOUS
10
77.8401
20
-72.0257
11
76.9401
21
-72.9257
0
LINE
8
BLACK
6
CONTINUOUS
10
76.9416
20
-120.3
11
77.8416
21
-121.2
0
LINE
8
BLACK
6
CONTINUOUS
10
77.8416
20
-120.3
11
76.9416
21
-121.2
0
LINE
8
BLACK
6
CONTINUOUS
10
76.9416
20
-122.84
11
77.8416
21
-123.74
0
LINE
8
BLACK
6
CONTINUOUS
10
77.8416
20
-122.84
11
76.9416
21
-123.74
0
LINE
8
BLACK
6
CONTINUOUS
10
76.9449
20
-54.2693
11
77.8449
21
-55.1693
0
LINE
8
BLACK
6
CONTINUOUS
10
77.8449
20
-54.2693
11
76.9449
21
-55.1693
0
LINE
8
BLACK
6
CONTINUOUS
10
76.9449
20
-56.8093
11
77.8449
21
-57.7093
0
LINE
8
BLACK
6
CONTINUOUS
10
77.8449
20
-56.8093
11
76.9449
21
-57.7093
0
LINE
8
BLACK
6
CONTINUOUS
10
76.9473
20
-130.457
11
77.8473
21
-131.357
0
LINE
8
BLACK
6
CONTINUOUS
10
77.8473
20
-130.457
11
76.9473
21
-131.357
0
LINE
8
BLACK
6
CONTINUOUS
10
76.9473
20
-132.997
11
77.8473
21
-133.897
0
LINE
8
BLACK
6
CONTINUOUS
10
77.8473
20
-132.997
11
76.9473
21
-133.897
0
LINE
8
BLACK
6
CONTINUOUS
10
76.9503
20
-44.1113
11
77.8503
21
-45.0113
0
LINE
8
BLACK
6
CONTINUOUS
10
77.8503
20
-44.1113
11
76.9503
21
-45.0113
0
LINE
8
BLACK
6
CONTINUOUS
10
76.9503
20
-46.6513
11
77.8503
21
-47.5513
0
LINE
8
BLACK
6
CONTINUOUS
10
77.8503
20
-46.6513
11
76.9503
21
-47.5513
0
LINE
8
BLACK
6
CONTINUOUS
10
76.9563
20
-94.9036
11
77.8563
21
-95.8036
0
LINE
8
BLACK
6
CONTINUOUS
10
77.8563
20
-94.9036
11
76.9563
21
-95.8036
0
LINE
8
BLACK
6
CONTINUOUS
10
76.9563
20
-97.4436
11
77.8563
21
-98.3436
0
LINE
8
BLACK
6
CONTINUOUS
10
77.8563
20
-97.4436
11
76.9563
21
-98.3436
0
LINE
8
BLACK
6
CONTINUOUS
10
76.9597
20
-79.6605
11
77.8597
21
-80.5605
0
LINE
8
BLACK
6
CONTINUOUS
10
77.8597
20
-79.6605
11
76.9597
21
-80.5605
0
LINE
8
BLACK
6
CONTINUOUS
10
76.9597
20
-82.2005
11
77.8597
21
-83.1005
0
LINE
8
BLACK
6
CONTINUOUS
10
77.8597
20
-82.2005
11
76.9597
21
-83.1005
0
LINE
8
BLACK
6
CONTINUOUS
10
76.9633
20
-105.065
11
77.8633
21
-105.965
0
LINE
8
BLACK
6
CONTINUOUS
10
77.8633
20
-105.065
11
76.9633
21
-105.965
0
LINE
8
BLACK
6
CONTINUOUS
10
76.9633
20
-107.605
11
77.8633
21
-108.505
0
LINE
8
BLACK
6
CONTINUOUS
10
77.8633
20
-107.605
11
76.9633
21
-108.505
0
LINE
8
BLACK
6
CONTINUOUS
10
92.1971
20
-44.1113
11
93.0971
21
-45.0113
0
LINE
8
BLACK
6
CONTINUOUS
10
93.0971
20
-44.1113
11
92.1971
21
-45.0113
0
LINE
8
BLACK
6
CONTINUOUS
10
92.1971
20
-46.6513
11
93.0971
21
-47.5513
0
LINE
8
BLACK
6
CONTINUOUS
10
93.0971
20
-46.6513
11
92.1971
21
-47.5513
0
LINE
8
BLACK
6
CONTINUOUS
10
92.1971
20
-54.2693
11
93.0971
21
-55.1693
0
LINE
8
BLACK
6
CONTINUOUS
10
93.0971
20
-54.2693
11
92.1971
21
-55.1693
0
LINE
8
BLACK
6
CONTINUOUS
10
92.1971
20
-56.8093
11
93.0971
21
-57.7093
0
LINE
8
BLACK
6
CONTINUOUS
10
93.0971
20
-56.8093
11
92.1971
21
-57.7093
0
LINE
8
BLACK
6
CONTINUOUS
10
92.1971
20
-69.4857
11
93.0971
21
-70.3857
0
LINE
8
BLACK
6
CONTINUOUS
10
93.0971
20
-69.4857
11
92.1971
21
-70.3857
0
LINE
8
BLACK
6
CONTINUOUS
10
92.1971
20
-72.0257
11
93.0971
21
-72.9257
0
LINE
8
BLACK
6
CONTINUOUS
10
93.0971
20
-72.0257
11
92.1971
21
-72.9257
0
LINE
8
BLACK
6
CONTINUOUS
10
92.1971
20
-79.6605
11
93.0971
21
-80.5605
0
LINE
8
BLACK
6
CONTINUOUS
10
93.0971
20
-79.6605
11
92.1971
21
-80.5605
0
LINE
8
BLACK
6
CONTINUOUS
10
92.1971
20
-82.2005
11
93.0971
21
-83.1005
0
LINE
8
BLACK
6
CONTINUOUS
10
93.0971
20
-82.2005
11
92.1971
21
-83.1005
0
LINE
8
BLACK
6
CONTINUOUS
10
92.1971
20
-94.9036
11
93.0971
21
-95.8036
0
LINE
8
BLACK
6
CONTINUOUS
10
93.0971
20
-94.9036
11
92.1971
21
-95.8036
0
LINE
8
BLACK
6
CONTINUOUS
10
92.1971
20
-97.4436
11
93.0971
21
-98.3436
0
LINE
8
BLACK
6
CONTINUOUS
10
93.0971
20
-97.4436
11
92.1971
21
-98.3436
0
LINE
8
BLACK
6
CONTINUOUS
10
92.1971
20
-105.065
11
93.0971
21
-105.965
0
LINE
8
BLACK
6
CONTINUOUS
10
93.0971
20
-105.065
11
92.1971
21
-105.965
0
LINE
8
BLACK
6
CONTINUOUS
10
92.1971
20
-107.605
11
93.0971
21
-108.505
0
LINE
8
BLACK
6
CONTINUOUS
10
93.0971
20
-107.605
11
92.1971
21
-108.505
0
LINE
8
BLACK
6
CONTINUOUS
10
92.1971
20
-120.3
11
93.0971
21
-121.2
0
LINE
8
BLACK
6
CONTINUOUS
10
93.0971
20
-120.3
11
92.1971
21
-121.2
0
LINE
8
BLACK
6
CONTINUOUS
10
92.1971
20
-122.84
11
93.0971
21
-123.74
0
LINE
8
BLACK
6
CONTINUOUS
10
93.0971
20
-122.84
11
92.1971
21
-123.74
0
LINE
8
BLACK
6
CONTINUOUS
10
92.1971
20
-130.492
11
93.0971
21
-131.392
0
LINE
8
BLACK
6
CONTINUOUS
10
93.0971
20
-130.492
11
92.1971
21
-131.392
0
LINE
8
BLACK
6
CONTINUOUS
10
92.1971
20
-133.032
11
93.0971
21
-133.932
0
LINE
8
BLACK
6
CONTINUOUS
10
93.0971
20
-133.032
11
92.1971
21
-133.932
0
LINE
8
BLACK
6
CONTINUOUS
10
107.421
20
-44.1113
11
108.321
21
-45.0113
0
LINE
8
BLACK
6
CONTINUOUS
10
108.321
20
-44.1113
11
107.421
21
-45.0113
0
LINE
8
BLACK
6
CONTINUOUS
10
107.421
20
-46.6513
11
108.321
21
-47.5513
0
LINE
8
BLACK
6
CONTINUOUS
10
108.321
20
-46.6513
11
107.421
21
-47.5513
0
LINE
8
BLACK
6
CONTINUOUS
10
107.421
20
-54.2693
11
108.321
21
-55.1693
0
LINE
8
BLACK
6
CONTINUOUS
10
108.321
20
-54.2693
11
107.421
21
-55.1693
0
LINE
8
BLACK
6
CONTINUOUS
10
107.421
20
-56.8093
11
108.321
21
-57.7093
0
LINE
8
BLACK
6
CONTINUOUS
10
108.321
20
-56.8093
11
107.421
21
-57.7093
0
LINE
8
BLACK
6
CONTINUOUS
10
107.421
20
-69.4857
11
108.321
21
-70.3857
0
LINE
8
BLACK
6
CONTINUOUS
10
108.321
20
-69.4857
11
107.421
21
-70.3857
0
LINE
8
BLACK
6
CONTINUOUS
10
107.421
20
-72.0257
11
108.321
21
-72.9257
0
LINE
8
BLACK
6
CONTINUOUS
10
108.321
20
-72.0257
11
107.421
21
-72.9257
0
LINE
8
BLACK
6
CONTINUOUS
10
107.421
20
-79.6605
11
108.321
21
-80.5605
0
LINE
8
BLACK
6
CONTINUOUS
10
108.321
20
-79.6605
11
107.421
21
-80.5605
0
LINE
8
BLACK
6
CONTINUOUS
10
107.421
20
-82.2005
11
108.321
21
-83.1005
0
LINE
8
BLACK
6
CONTINUOUS
10
108.321
20
-82.2005
11
107.421
21
-83.1005
0
LINE
8
BLACK
6
CONTINUOUS
10
107.421
20
-94.9036
11
108.321
21
-95.8036
0
LINE
8
BLACK
6
CONTINUOUS
10
108.321
20
-94.9036
11
107.421
21
-95.8036
0
LINE
8
BLACK
6
CONTINUOUS
10
107.421
20
-97.4436
11
108.321
21
-98.3436
0
LINE
8
BLACK
6
CONTINUOUS
10
108.321
20
-97.4436
11
107.421
21
-98.3436
0
LINE
8
BLACK
6
CONTINUOUS
10
107.421
20
-105.065
11
108.321
21
-105.965
0
LINE
8
BLACK
6
CONTINUOUS
10
108.321
20
-105.065
11
107.421
21
-105.965
0
LINE
8
BLACK
6
CONTINUOUS
10
107.421
20
-107.605
11
108.321
21
-108.505
0
LINE
8
BLACK
6
CONTINUOUS
10
108.321
20
-107.605
11
107.421
21
-108.505
0
LINE
8
BLACK
6
CONTINUOUS
10
107.421
20
-120.3
11
108.321
21
-121.2
0
LINE
8
BLACK
6
CONTINUOUS
10
108.321
20
-120.3
11
107.421
21
-121.2
0
LINE
8
BLACK
6
CONTINUOUS
10
107.421
20
-122.84
11
108.321
21
-123.74
0
LINE
8
BLACK
6
CONTINUOUS
10
108.321
20
-122.84
11
107.421
21
-123.74
0
LINE
8
BLACK
6
CONTINUOUS
10
107.421
20
-130.49
11
108.321
21
-131.39
0
LINE
8
BLACK
6
CONTINUOUS
10
108.321
20
-130.49
11
107.421
21
-131.39
0
LINE
8
BLACK
6
CONTINUOUS
10
107.421
20
-133.03
11
108.321
21
-133.93
0
LINE
8
BLACK
6
CONTINUOUS
10
108.321
20
-133.03
11
107.421
21
-133.93
0
LINE
8
BLACK
6
CONTINUOUS
10
122.65
20
-44.1113
11
123.55
21
-45.0113
0
LINE
8
BLACK
6
CONTINUOUS
10
123.55
20
-44.1113
11
122.65
21
-45.0113
0
LINE
8
BLACK
6
CONTINUOUS
10
122.65
20
-46.6513
11
123.55
21
-47.5513
0
LINE
8
BLACK
6
CONTINUOUS
10
123.55
20
-46.6513
11
122.65
21
-47.5513
0
LINE
8
BLACK
6
CONTINUOUS
10
122.65
20
-54.2693
11
123.55
21
-55.1693
0
LINE
8
BLACK
6
CONTINUOUS
10
123.55
20
-54.2693
11
122.65
21
-55.1693
0
LINE
8
BLACK
6
CONTINUOUS
10
122.65
20
-56.8093
11
123.55
21
-57.7093
0
LINE
8
BLACK
6
CONTINUOUS
10
123.55
20
-56.8093
11
122.65
21
-57.7093
0
LINE
8
BLACK
6
CONTINUOUS
10
122.65
20
-69.4857
11
123.55
21
-70.3857
0
LINE
8
BLACK
6
CONTINUOUS
10
123.55
20
-69.4857
11
122.65
21
-70.3857
0
LINE
8
BLACK
6
CONTINUOUS
10
122.65
20
-72.0257
11
123.55
21
-72.9257
0
LINE
8
BLACK
6
CONTINUOUS
10
123.55
20
-72.0257
11
122.65
21
-72.9257
0
LINE
8
BLACK
6
CONTINUOUS
10
122.65
20
-79.6605
11
123.55
21
-80.5605
0
LINE
8
BLACK
6
CONTINUOUS
10
123.55
20
-79.6605
11
122.65
21
-80.5605
0
LINE
8
BLACK
6
CONTINUOUS
10
122.65
20
-82.2005
11
123.55
21
-83.1005
0
LINE
8
BLACK
6
CONTINUOUS
10
123.55
20
-82.2005
11
122.65
21
-83.1005
0
LINE
8
BLACK
6
CONTINUOUS
10
122.65
20
-94.9036
11
123.55
21
-95.8036
0
LINE
8
BLACK
6
CONTINUOUS
10
123.55
20
-94.9036
11
122.65
21
-95.8036
0
LINE
8
BLACK
6
CONTINUOUS
10
122.65
20
-97.4436
11
123.55
21
-98.3436
0
LINE
8
BLACK
6
CONTINUOUS
10
123.55
20
-97.4436
11
122.65
21
-98.3436
0
LINE
8
BLACK
6
CONTINUOUS
10
122.65
20
-105.065
11
123.55
21
-105.965
0
LINE
8
BLACK
6
CONTINUOUS
10
123.55
20
-105.065
11
122.65
21
-105.965
0
LINE
8
BLACK
6
CONTINUOUS
10
122.65
20
-107.605
11
123.55
21
-108.505
0
LINE
8
BLACK
6
CONTINUOUS
10
123.55
20
-107.605
11
122.65
21
-108.505
0
LINE
8
BLACK
6
CONTINUOUS
10
122.65
20
-120.3
11
123.55
21
-121.2
0
LINE
8
BLACK
6
CONTINUOUS
10
123.55
20
-120.3
11
122.65
21
-121.2
0
LINE
8
BLACK
6
CONTINUOUS
10
122.65
20
-122.84
11
123.55
21
-123.74
0
LINE
8
BLACK
6
CONTINUOUS
10
123.55
20
-122.84
11
122.65
21
-123.74
0
LINE
8
BLACK
6
CONTINUOUS
10
122.65
20
-130.477
11
123.55
21
-131.377
0
LINE
8
BLACK
6
CONTINUOUS
10
123.55
20
-130.477
11
122.65
21
-131.377
0
LINE
8
BLACK
6
CONTINUOUS
10
122.65
20
-133.017
11
123.55
21
-133.917
0
LINE
8
BLACK
6
CONTINUOUS
10
123.55
20
-133.017
11
122.65
21
-133.917
0
LINE
8
BLACK
6
CONTINUOUS
10
137.917
20
-44.1113
11
138.817
21
-45.0113
0
LINE
8
BLACK
6
CONTINUOUS
10
138.817
20
-44.1113
11
137.917
21
-45.0113
0
LINE
8
BLACK
6
CONTINUOUS
10
137.917
20
-46.6513
11
138.817
21
-47.5513
0
LINE
8
BLACK
6
CONTINUOUS
10
138.817
20
-46.6513
11
137.917
21
-47.5513
0
LINE
8
BLACK
6
CONTINUOUS
10
137.917
20
-54.2693
11
138.817
21
-55.1693
0
LINE
8
BLACK
6
CONTINUOUS
10
138.817
20
-54.2693
11
137.917
21
-55.1693
0
LINE
8
BLACK
6
CONTINUOUS
10
137.917
20
-56.8093
11
138.817
21
-57.7093
0
LINE
8
BLACK
6
CONTINUOUS
10
138.817
20
-56.8093
11
137.917
21
-57.7093
0
LINE
8
BLACK
6
CONTINUOUS
10
137.917
20
-69.4857
11
138.817
21
-70.3857
0
LINE
8
BLACK
6
CONTINUOUS
10
138.817
20
-69.4857
11
137.917
21
-70.3857
0
LINE
8
BLACK
6
CONTINUOUS
10
137.917
20
-72.0257
11
138.817
21
-72.9257
0
LINE
8
BLACK
6
CONTINUOUS
10
138.817
20
-72.0257
11
137.917
21
-72.9257
0
LINE
8
BLACK
6
CONTINUOUS
10
137.917
20
-79.6605
11
138.817
21
-80.5605
0
LINE
8
BLACK
6
CONTINUOUS
10
138.817
20
-79.6605
11
137.917
21
-80.5605
0
LINE
8
BLACK
6
CONTINUOUS
10
137.917
20
-82.2005
11
138.817
21
-83.1005
0
LINE
8
BLACK
6
CONTINUOUS
10
138.817
20
-82.2005
11
137.917
21
-83.1005
0
LINE
8
BLACK
6
CONTINUOUS
10
137.917
20
-94.9036
11
138.817
21
-95.8036
0
LINE
8
BLACK
6
CONTINUOUS
10
138.817
20
-94.9036
11
137.917
21
-95.8036
0
LINE
8
BLACK
6
CONTINUOUS
10
137.917
20
-97.4436
11
138.817
21
-98.3436
0
LINE
8
BLACK
6
CONTINUOUS
10
138.817
20
-97.4436
11
137.917
21
-98.3436
0
LINE
8
BLACK
6
CONTINUOUS
10
137.917
20
-105.065
11
138.817
21
-105.965
0
LINE
8
BLACK
6
CONTINUOUS
10
138.817
20
-105.065
11
137.917
21
-105.965
0
LINE
8
BLACK
6
CONTINUOUS
10
137.917
20
-107.605
11
138.817
21
-108.505
0
LINE
8
BLACK
6
CONTINUOUS
10
138.817
20
-107.605
11
137.917
21
-108.505
0
LINE
8
BLACK
6
CONTINUOUS
10
137.917
20
-120.3
11
138.817
21
-121.2
0
LINE
8
BLACK
6
CONTINUOUS
10
138.817
20
-120.3
11
137.917
21
-121.2
0
LINE
8
BLACK
6
CONTINUOUS
10
137.917
20
-122.84
11
138.817
21
-123.74
0
LINE
8
BLACK
6
CONTINUOUS
10
138.817
20
-122.84
11
137.917
21
-123.74
0
LINE
8
BLACK
6
CONTINUOUS
10
137.917
20
-130.466
11
138.817
21
-131.366
0
LINE
8
BLACK
6
CONTINUOUS
10
138.817
20
-130.466
11
137.917
21
-131.366
0
LINE
8
BLACK
6
CONTINUOUS
10
137.917
20
-133.006
11
138.817
21
-133.906
0
LINE
8
BLACK
6
CONTINUOUS
10
138.817
20
-133.006
11
137.917
21
-133.906
0
LINE
8
BLACK
6
CONTINUOUS
10
153.146
20
-44.1113
11
154.046
21
-45.0113
0
LINE
8
BLACK
6
CONTINUOUS
10
154.046
20
-44.1113
11
153.146
21
-45.0113
0
LINE
8
BLACK
6
CONTINUOUS
10
153.146
20
-46.6513
11
154.046
21
-47.5513
0
LINE
8
BLACK
6
CONTINUOUS
10
154.046
20
-46.6513
11
153.146
21
-47.5513
0
LINE
8
BLACK
6
CONTINUOUS
10
153.146
20
-54.2693
11
154.046
21
-55.1693
0
LINE
8
BLACK
6
CONTINUOUS
10
154.046
20
-54.2693
11
153.146
21
-55.1693
0
LINE
8
BLACK
6
CONTINUOUS
10
153.146
20
-56.8093
11
154.046
21
-57.7093
0
LINE
8
BLACK
6
CONTINUOUS
10
154.046
20
-56.8093
11
153.146
21
-57.7093
0
LINE
8
BLACK
6
CONTINUOUS
10
153.146
20
-69.4857
11
154.046
21
-70.3857
0
LINE
8
BLACK
6
CONTINUOUS
10
154.046
20
-69.4857
11
153.146
21
-70.3857
0
LINE
8
BLACK
6
CONTINUOUS
10
153.146
20
-72.0257
11
154.046
21
-72.9257
0
LINE
8
BLACK
6
CONTINUOUS
10
154.046
20
-72.0257
11
153.146
21
-72.9257
0
LINE
8
BLACK
6
CONTINUOUS
10
153.146
20
-79.6605
11
154.046
21
-80.5605
0
LINE
8
BLACK
6
CONTINUOUS
10
154.046
20
-79.6605
11
153.146
21
-80.5605
0
LINE
8
BLACK
6
CONTINUOUS
10
153.146
20
-82.2005
11
154.046
21
-83.1005
0
LINE
8
BLACK
6
CONTINUOUS
10
154.046
20
-82.2005
11
153.146
21
-83.1005
0
LINE
8
BLACK
6
CONTINUOUS
10
153.146
20
-94.9036
11
154.046
21
-95.8036
0
LINE
8
BLACK
6
CONTINUOUS
10
154.046
20
-94.9036
11
153.146
21
-95.8036
0
LINE
8
BLACK
6
CONTINUOUS
10
153.146
20
-97.4436
11
154.046
21
-98.3436
0
LINE
8
BLACK
6
CONTINUOUS
10
154.046
20
-97.4436
11
153.146
21
-98.3436
0
LINE
8
BLACK
6
CONTINUOUS
10
153.146
20
-105.065
11
154.046
21
-105.965
0
LINE
8
BLACK
6
CONTINUOUS
10
154.046
20
-105.065
11
153.146
21
-105.965
0
LINE
8
BLACK
6
CONTINUOUS
10
153.146
20
-107.605
11
154.046
21
-108.505
0
LINE
8
BLACK
6
CONTINUOUS
10
154.046
20
-107.605
11
153.146
21
-108.505
0
LINE
8
BLACK
6
CONTINUOUS
10
153.146
20
-120.3
11
154.046
21
-121.2
0
LINE
8
BLACK
6
CONTINUOUS
10
154.046
20
-120.3
11
153.146
21
-121.2
0
LINE
8
BLACK
6
CONTINUOUS
10
153.146
20
-122.84
11
154.046
21
-123.74
0
LINE
8
BLACK
6
CONTINUOUS
10
154.046
20
-122.84
11
153.146
21
-123.74
0
LINE
8
BLACK
6
CONTINUOUS
10
153.146
20
-130.402
11
154.046
21
-131.302
0
LINE
8
BLACK
6
CONTINUOUS
10
154.046
20
-130.402
11
153.146
21
-131.302
0
LINE
8
BLACK
6
CONTINUOUS
10
153.146
20
-132.942
11
154.046
21
-133.842
0
LINE
8
BLACK
6
CONTINUOUS
10
154.046
20
-132.942
11
153.146
21
-133.842
0
LINE
8
BLACK
6
CONTINUOUS
10
168.356
20
-44.1113
11
169.256
21
-45.0113
0
LINE
8
BLACK
6
CONTINUOUS
10
169.256
20
-44.1113
11
168.356
21
-45.0113
0
LINE
8
BLACK
6
CONTINUOUS
10
168.356
20
-46.6513
11
169.256
21
-47.5513
0
LINE
8
BLACK
6
CONTINUOUS
10
169.256
20
-46.6513
11
168.356
21
-47.5513
0
LINE
8
BLACK
6
CONTINUOUS
10
168.356
20
-54.2693
11
169.256
21
-55.1693
0
LINE
8
BLACK
6
CONTINUOUS
10
169.256
20
-54.2693
11
168.356
21
-55.1693
0
LINE
8
BLACK
6
CONTINUOUS
10
168.356
20
-56.8093
11
169.256
21
-57.7093
0
LINE
8
BLACK
6
CONTINUOUS
10
169.256
20
-56.8093
11
168.356
21
-57.7093
0
LINE
8
BLACK
6
CONTINUOUS
10
168.356
20
-69.4857
11
169.256
21
-70.3857
0
LINE
8
BLACK
6
CONTINUOUS
10
169.256
20
-69.4857
11
168.356
21
-70.3857
0
LINE
8
BLACK
6
CONTINUOUS
10
168.356
20
-72.0257
11
169.256
21
-72.9257
0
LINE
8
BLACK
6
CONTINUOUS
10
169.256
20
-72.0257
11
168.356
21
-72.9257
0
LINE
8
BLACK
6
CONTINUOUS
10
168.356
20
-79.6605
11
169.256
21
-80.5605
0
LINE
8
BLACK
6
CONTINUOUS
10
169.256
20
-79.6605
11
168.356
21
-80.5605
0
LINE
8
BLACK
6
CONTINUOUS
10
168.356
20
-82.2005
11
169.256
21
-83.1005
0
LINE
8
BLACK
6
CONTINUOUS
10
169.256
20
-82.2005
11
168.356
21
-83.1005
0
LINE
8
BLACK
6
CONTINUOUS
10
168.356
20
-94.9036
11
169.256
21
-95.8036
0
LINE
8
BLACK
6
CONTINUOUS
10
169.256
20
-94.9036
11
168.356
21
-95.8036
0
LINE
8
BLACK
6
CONTINUOUS
10
168.356
20
-97.4436
11
169.256
21
-98.3436
0
LINE
8
BLACK
6
CONTINUOUS
10
169.256
20
-97.4436
11
168.356
21
-98.3436
0
LINE
8
BLACK
6
CONTINUOUS
10
168.356
20
-105.065
11
169.256
21
-105.965
0
LINE
8
BLACK
6
CONTINUOUS
10
169.256
20
-105.065
11
168.356
21
-105.965
0
LINE
8
BLACK
6
CONTINUOUS
10
168.356
20
-107.605
11
169.256
21
-108.505
0
LINE
8
BLACK
6
CONTINUOUS
10
169.256
20
-107.605
11
168.356
21
-108.505
0
LINE
8
BLACK
6
CONTINUOUS
10
168.356
20
-120.3
11
169.256
21
-121.2
0
LINE
8
BLACK
6
CONTINUOUS
10
169.256
20
-120.3
11
168.356
21
-121.2
0
LINE
8
BLACK
6
CONTINUOUS
10
168.356
20
-122.84
11
169.256
21
-123.74
0
LINE
8
BLACK
6
CONTINUOUS
10
169.256
20
-122.84
11
168.356
21
-123.74
0
LINE
8
BLACK
6
CONTINUOUS
10
168.356
20
-130.461
11
169.256
21
-131.361
0
LINE
8
BLACK
6
CONTINUOUS
10
169.256
20
-130.461
11
168.356
21
-131.361
0
LINE
8
BLACK
6
CONTINUOUS
10
168.356
20
-133.001
11
169.256
21
-133.901
0
LINE
8
BLACK
6
CONTINUOUS
10
169.256
20
-133.001
11
168.356
21
-133.901
0
LINE
8
BLACK
6
CONTINUOUS
10
183.595
20
-44.1113
11
184.495
21
-45.0113
0
LINE
8
BLACK
6
CONTINUOUS
10
184.495
20
-44.1113
11
183.595
21
-45.0113
0
LINE
8
BLACK
6
CONTINUOUS
10
183.595
20
-46.6513
11
184.495
21
-47.5513
0
LINE
8
BLACK
6
CONTINUOUS
10
184.495
20
-46.6513
11
183.595
21
-47.5513
0
LINE
8
BLACK
6
CONTINUOUS
10
183.595
20
-54.2693
11
184.495
21
-55.1693
0
LINE
8
BLACK
6
CONTINUOUS
10
184.495
20
-54.2693
11
183.595
21
-55.1693
0
LINE
8
BLACK
6
CONTINUOUS
10
183.595
20
-56.8093
11
184.495
21
-57.7093
0
LINE
8
BLACK
6
CONTINUOUS
10
184.495
20
-56.8093
11
183.595
21
-57.7093
0
LINE
8
BLACK
6
CONTINUOUS
10
183.595
20
-69.4857
11
184.495
21
-70.3857
0
LINE
8
BLACK
6
CONTINUOUS
10
184.495
20
-69.4857
11
183.595
21
-70.3857
0
LINE
8
BLACK
6
CONTINUOUS
10
183.595
20
-72.0257
11
184.495
21
-72.9257
0
LINE
8
BLACK
6
CONTINUOUS
10
184.495
20
-72.0257
11
183.595
21
-72.9257
0
LINE
8
BLACK
6
CONTINUOUS
10
183.595
20
-79.6605
11
184.495
21
-80.5605
0
LINE
8
BLACK
6
CONTINUOUS
10
184.495
20
-79.6605
11
183.595
21
-80.5605
0
LINE
8
BLACK
6
CONTINUOUS
10
183.595
20
-82.2005
11
184.495
21
-83.1005
0
LINE
8
BLACK
6
CONTINUOUS
10
184.495
20
-82.2005
11
183.595
21
-83.1005
0
LINE
8
BLACK
6
CONTINUOUS
10
183.595
20
-94.9036
11
184.495
21
-95.8036
0
LINE
8
BLACK
6
CONTINUOUS
10
184.495
20
-94.9036
11
183.595
21
-95.8036
0
LINE
8
BLACK
6
CONTINUOUS
10
183.595
20
-97.4436
11
184.495
21
-98.3436
0
LINE
8
BLACK
6
CONTINUOUS
10
184.495
20
-97.4436
11
183.595
21
-98.3436
0
LINE
8
BLACK
6
CONTINUOUS
10
183.595
20
-105.065
11
184.495
21
-105.965
0
LINE
8
BLACK
6
CONTINUOUS
10
184.495
20
-105.065
11
183.595
21
-105.965
0
LINE
8
BLACK
6
CONTINUOUS
10
183.595
20
-107.605
11
184.495
21
-108.505
0
LINE
8
BLACK
6
CONTINUOUS
10
184.495
20
-107.605
11
183.595
21
-108.505
0
LINE
8
BLACK
6
CONTINUOUS
10
183.595
20
-120.3
11
184.495
21
-121.2
0
LINE
8
BLACK
6
CONTINUOUS
10
184.495
20
-120.3
11
183.595
21
-121.2
0
LINE
8
BLACK
6
CONTINUOUS
10
183.595
20
-122.84
11
184.495
21
-123.74
0
LINE
8
BLACK
6
CONTINUOUS
10
184.495
20
-122.84
11
183.595
21
-123.74
0
LINE
8
BLACK
6
CONTINUOUS
10
183.595
20
-130.469
11
184.495
21
-131.369
0
LINE
8
BLACK
6
CONTINUOUS
10
184.495
20
-130.469
11
183.595
21
-131.369
0
LINE
8
BLACK
6
CONTINUOUS
10
183.595
20
-133.009
11
184.495
21
-133.909
0
LINE
8
BLACK
6
CONTINUOUS
10
184.495
20
-133.009
11
183.595
21
-133.909
0
LINE
8
BLACK
6
CONTINUOUS
10
198.831
20
-44.1113
11
199.731
21
-45.0113
0
LINE
8
BLACK
6
CONTINUOUS
10
199.731
20
-44.1113
11
198.831
21
-45.0113
0
LINE
8
BLACK
6
CONTINUOUS
10
198.831
20
-46.6513
11
199.731
21
-47.5513
0
LINE
8
BLACK
6
CONTINUOUS
10
199.731
20
-46.6513
11
198.831
21
-47.5513
0
LINE
8
BLACK
6
CONTINUOUS
10
198.831
20
-54.2693
11
199.731
21
-55.1693
0
LINE
8
BLACK
6
CONTINUOUS
10
199.731
20
-54.2693
11
198.831
21
-55.1693
0
LINE
8
BLACK
6
CONTINUOUS
10
198.831
20
-56.8093
11
199.731
21
-57.7093
0
LINE
8
BLACK
6
CONTINUOUS
10
199.731
20
-56.8093
11
198.831
21
-57.7093
0
LINE
8
BLACK
6
CONTINUOUS
10
198.831
20
-69.4857
11
199.731
21
-70.3857
0
LINE
8
BLACK
6
CONTINUOUS
10
199.731
20
-69.4857
11
198.831
21
-70.3857
0
LINE
8
BLACK
6
CONTINUOUS
10
198.831
20
-72.0257
11
199.731
21
-72.9257
0
LINE
8
BLACK
6
CONTINUOUS
10
199.731
20
-72.0257
11
198.831
21
-72.9257
0
LINE
8
BLACK
6
CONTINUOUS
10
198.831
20
-79.6605
11
199.731
21
-80.5605
0
LINE
8
BLACK
6
CONTINUOUS
10
199.731
20
-79.6605
11
198.831
21
-80.5605
0
LINE
8
BLACK
6
CONTINUOUS
10
198.831
20
-82.2005
11
199.731
21
-83.1005
0
LINE
8
BLACK
6
CONTINUOUS
10
199.731
20
-82.2005
11
198.831
21
-83.1005
0
LINE
8
BLACK
6
CONTINUOUS
10
198.831
20
-94.9036
11
199.731
21
-95.8036
0
LINE
8
BLACK
6
CONTINUOUS
10
199.731
20
-94.9036
11
198.831
21
-95.8036
0
LINE
8
BLACK
6
CONTINUOUS
10
198.831
20
-97.4436
11
199.731
21
-98.3436
0
LINE
8
BLACK
6
CONTINUOUS
10
199.731
20
-97.4436
11
198.831
21
-98.3436
0
LINE
8
BLACK
6
CONTINUOUS
10
198.831
20
-105.065
11
199.731
21
-105.965
0
LINE
8
BLACK
6
CONTINUOUS
10
199.731
20
-105.065
11
198.831
21
-105.965
0
LINE
8
BLACK
6
CONTINUOUS
10
198.831
20
-107.605
11
199.731
21
-108.505
0
LINE
8
BLACK
6
CONTINUOUS
10
199.731
20
-107.605
11
198.831
21
-108.505
0
LINE
8
BLACK
6
CONTINUOUS
10
198.831
20
-120.3
11
199.731
21
-121.2
0
LINE
8
BLACK
6
CONTINUOUS
10
199.731
20
-120.3
11
198.831
21
-121.2
0
LINE
8
BLACK
6
CONTINUOUS
10
198.831
20
-122.84
11
199.731
21
-123.74
0
LINE
8
BLACK
6
CONTINUOUS
10
199.731
20
-122.84
11
198.831
21
-123.74
0
LINE
8
BLACK
6
CONTINUOUS
10
198.831
20
-130.501
11
199.731
21
-131.401
0
LINE
8
BLACK
6
CONTINUOUS
10
199.731
20
-130.501
11
198.831
21
-131.401
0
LINE
8
BLACK
6
CONTINUOUS
10
198.831
20
-133.041
11
199.731
21
-133.941
0
LINE
8
BLACK
6
CONTINUOUS
10
199.731
20
-133.041
11
198.831
21
-133.941
0
LINE
8
BLACK
6
CONTINUOUS
10
214.075
20
-44.1113
11
214.975
21
-45.0113
0
LINE
8
BLACK
6
CONTINUOUS
10
214.975
20
-44.1113
11
214.075
21
-45.0113
0
LINE
8
BLACK
6
CONTINUOUS
10
214.075
20
-46.6513
11
214.975
21
-47.5513
0
LINE
8
BLACK
6
CONTINUOUS
10
214.975
20
-46.6513
11
214.075
21
-47.5513
0
LINE
8
BLACK
6
CONTINUOUS
10
214.075
20
-54.2693
11
214.975
21
-55.1693
0
LINE
8
BLACK
6
CONTINUOUS
10
214.975
20
-54.2693
11
214.075
21
-55.1693
0
LINE
8
BLACK
6
CONTINUOUS
10
214.075
20
-56.8093
11
214.975
21
-57.7093
0
LINE
8
BLACK
6
CONTINUOUS
10
214.975
20
-56.8093
11
214.075
21
-57.7093
0
LINE
8
BLACK
6
CONTINUOUS
10
214.075
20
-69.4857
11
214.975
21
-70.3857
0
LINE
8
BLACK
6
CONTINUOUS
10
214.975
20
-69.4857
11
214.075
21
-70.3857
0
LINE
8
BLACK
6
CONTINUOUS
10
214.075
20
-72.0257
11
214.975
21
-72.9257
0
LINE
8
BLACK
6
CONTINUOUS
10
214.975
20
-72.0257
11
214.075
21
-72.9257
0
LINE
8
BLACK
6
CONTINUOUS
10
214.075
20
-79.6605
11
214.975
21
-80.5605
0
LINE
8
BLACK
6
CONTINUOUS
10
214.975
20
-79.6605
11
214.075
21
-80.5605
0
LINE
8
BLACK
6
CONTINUOUS
10
214.075
20
-82.2005
11
214.975
21
-83.1005
0
LINE
8
BLACK
6
CONTINUOUS
10
214.975
20
-82.2005
11
214.075
21
-83.1005
0
LINE
8
BLACK
6
CONTINUOUS
10
214.075
20
-94.9036
11
214.975
21
-95.8036
0
LINE
8
BLACK
6
CONTINUOUS
10
214.975
20
-94.9036
11
214.075
21
-95.8036
0
LINE
8
BLACK
6
CONTINUOUS
10
214.075
20
-97.4436
11
214.975
21
-98.3436
0
LINE
8
BLACK
6
CONTINUOUS
10
214.975
20
-97.4436
11
214.075
21
-98.3436
0
LINE
8
BLACK
6
CONTINUOUS
10
214.075
20
-105.065
11
214.975
21
-105.965
0
LINE
8
BLACK
6
CONTINUOUS
10
214.975
20
-105.065
11
214.075
21
-105.965
0
LINE
8
BLACK
6
CONTINUOUS
10
214.075
20
-107.605
11
214.975
21
-108.505
0
LINE
8
BLACK
6
CONTINUOUS
10
214.975
20
-107.605
11
214.075
21
-108.505
0
LINE
8
BLACK
6
CONTINUOUS
10
214.075
20
-120.3
11
214.975
21
-121.2
0
LINE
8
BLACK
6
CONTINUOUS
10
214.975
20
-120.3
11
214.075
21
-121.2
0
LINE
8
BLACK
6
CONTINUOUS
10
214.075
20
-122.84
11
214.975
21
-123.74
0
LINE
8
BLACK
6
CONTINUOUS
10
214.975
20
-122.84
11
214.075
21
-123.74
0
LINE
8
BLACK
6
CONTINUOUS
10
214.075
20
-130.475
11
214.975
21
-131.375
0
LINE
8
BLACK
6
CONTINUOUS
10
214.975
20
-130.475
11
214.075
21
-131.375
0
LINE
8
BLACK
6
CONTINUOUS
10
214.075
20
-133.015
11
214.975
21
-133.915
0
LINE
8
BLACK
6
CONTINUOUS
10
214.975
20
-133.015
11
214.075
21
-133.915
0
LINE
8
BLACK
6
CONTINUOUS
10
229.33
20
-44.1113
11
230.23
21
-45.0113
0
LINE
8
BLACK
6
CONTINUOUS
10
230.23
20
-44.1113
11
229.33
21
-45.0113
0
LINE
8
BLACK
6
CONTINUOUS
10
229.33
20
-46.6513
11
230.23
21
-47.5513
0
LINE
8
BLACK
6
CONTINUOUS
10
230.23
20
-46.6513
11
229.33
21
-47.5513
0
LINE
8
BLACK
6
CONTINUOUS
10
229.33
20
-54.2693
11
230.23
21
-55.1693
0
LINE
8
BLACK
6
CONTINUOUS
10
230.23
20
-54.2693
11
229.33
21
-55.1693
0
LINE
8
BLACK
6
CONTINUOUS
10
229.33
20
-56.8093
11
230.23
21
-57.7093
0
LINE
8
BLACK
6
CONTINUOUS
10
230.23
20
-56.8093
11
229.33
21
-57.7093
0
LINE
8
BLACK
6
CONTINUOUS
10
229.33
20
-69.4857
11
230.23
21
-70.3857
0
LINE
8
BLACK
6
CONTINUOUS
10
230.23
20
-69.4857
11
229.33
21
-70.3857
0
LINE
8
BLACK
6
CONTINUOUS
10
229.33
20
-72.0257
11
230.23
21
-72.9257
0
LINE
8
BLACK
6
CONTINUOUS
10
230.23
20
-72.0257
11
229.33
21
-72.9257
0
LINE
8
BLACK
6
CONTINUOUS
10
229.33
20
-79.6605
11
230.23
21
-80.5605
0
LINE
8
BLACK
6
CONTINUOUS
10
230.23
20
-79.6605
11
229.33
21
-80.5605
0
LINE
8
BLACK
6
CONTINUOUS
10
229.33
20
-82.2005
11
230.23
21
-83.1005
0
LINE
8
BLACK
6
CONTINUOUS
10
230.23
20
-82.2005
11
229.33
21
-83.1005
0
LINE
8
BLACK
6
CONTINUOUS
10
229.33
20
-94.9036
11
230.23
21
-95.8036
0
LINE
8
BLACK
6
CONTINUOUS
10
230.23
20
-94.9036
11
229.33
21
-95.8036
0
LINE
8
BLACK
6
CONTINUOUS
10
229.33
20
-97.4436
11
230.23
21
-98.3436
0
LINE
8
BLACK
6
CONTINUOUS
10
230.23
20
-97.4436
11
229.33
21
-98.3436
0
LINE
8
BLACK
6
CONTINUOUS
10
229.33
20
-105.065
11
230.23
21
-105.965
0
LINE
8
BLACK
6
CONTINUOUS
10
230.23
20
-105.065
11
229.33
21
-105.965
0
LINE
8
BLACK
6
CONTINUOUS
10
229.33
20
-107.605
11
230.23
21
-108.505
0
LINE
8
BLACK
6
CONTINUOUS
10
230.23
20
-107.605
11
229.33
21
-108.505
0
LINE
8
BLACK
6
CONTINUOUS
10
229.33
20
-120.3
11
230.23
21
-121.2
0
LINE
8
BLACK
6
CONTINUOUS
10
230.23
20
-120.3
11
229.33
21
-121.2
0
LINE
8
BLACK
6
CONTINUOUS
10
229.33
20
-122.84
11
230.23
21
-123.74
0
LINE
8
BLACK
6
CONTINUOUS
10
230.23
20
-122.84
11
229.33
21
-123.74
0
LINE
8
BLACK
6
CONTINUOUS
10
229.33
20
-130.48
11
230.23
21
-131.38
0
LINE
8
BLACK
6
CONTINUOUS
10
230.23
20
-130.48
11
229.33
21
-131.38
0
LINE
8
BLACK
6
CONTINUOUS
10
229.33
20
-133.02
11
230.23
21
-133.92
0
LINE
8
BLACK
6
CONTINUOUS
10
230.23
20
-133.02
11
229.33
21
-133.92
0
LINE
8
BLACK
6
CONTINUOUS
10
244.55
20
-44.1113
11
245.45
21
-45.0113
0
LINE
8
BLACK
6
CONTINUOUS
10
245.45
20
-44.1113
11
244.55
21
-45.0113
0
LINE
8
BLACK
6
CONTINUOUS
10
244.55
20
-46.6513
11
245.45
21
-47.5513
0
LINE
8
BLACK
6
CONTINUOUS
10
245.45
20
-46.6513
11
244.55
21
-47.5513
0
LINE
8
BLACK
6
CONTINUOUS
10
244.55
20
-54.2693
11
245.45
21
-55.1693
0
LINE
8
BLACK
6
CONTINUOUS
10
245.45
20
-54.2693
11
244.55
21
-55.1693
0
LINE
8
BLACK
6
CONTINUOUS
10
244.55
20
-56.8093
11
245.45
21
-57.7093
0
LINE
8
BLACK
6
CONTINUOUS
10
245.45
20
-56.8093
11
244.55
21
-57.7093
0
LINE
8
BLACK
6
CONTINUOUS
10
244.55
20
-69.4857
11
245.45
21
-70.3857
0
LINE
8
BLACK
6
CONTINUOUS
10
245.45
20
-69.4857
11
244.55
21
-70.3857
0
LINE
8
BLACK
6
CONTINUOUS
10
244.55
20
-72.0257
11
245.45
21
-72.9257
0
LINE
8
BLACK
6
CONTINUOUS
10
245.45
20
-72.0257
11
244.55
21
-72.9257
0
LINE
8
BLACK
6
CONTINUOUS
10
244.55
20
-79.6605
11
245.45
21
-80.5605
0
LINE
8
BLACK
6
CONTINUOUS
10
245.45
20
-79.6605
11
244.55
21
-80.5605
0
LINE
8
BLACK
6
CONTINUOUS
10
244.55
20
-82.2005
11
245.45
21
-83.1005
0
LINE
8
BLACK
6
CONTINUOUS
10
245.45
20
-82.2005
11
244.55
21
-83.1005
0
LINE
8
BLACK
6
CONTINUOUS
10
244.55
20
-94.9036
11
245.45
21
-95.8036
0
LINE
8
BLACK
6
CONTINUOUS
10
245.45
20
-94.9036
11
244.55
21
-95.8036
0
LINE
8
BLACK
6
CONTINUOUS
10
244.55
20
-97.4436
11
245.45
21
-98.3436
0
LINE
8
BLACK
6
CONTINUOUS
10
245.45
20
-97.4436
11
244.55
21
-98.3436
0
LINE
8
BLACK
6
CONTINUOUS
10
244.55
20
-105.065
11
245.45
21
-105.965
0
LINE
8
BLACK
6
CONTINUOUS
10
245.45
20
-105.065
11
244.55
21
-105.965
0
LINE
8
BLACK
6
CONTINUOUS
10
244.55
20
-107.605
11
245.45
21
-108.505
0
LINE
8
BLACK
6
CONTINUOUS
10
245.45
20
-107.605
11
244.55
21
-108.505
0
LINE
8
BLACK
6
CONTINUOUS
10
244.55
20
-120.3
11
245.45
21
-121.2
0
LINE
8
BLACK
6
CONTINUOUS
10
245.45
20
-120.3
11
244.55
21
-121.2
0
LINE
8
BLACK
6
CONTINUOUS
10
244.55
20
-122.84
11
245.45
21
-123.74
0
LINE
8
BLACK
6
CONTINUOUS
10
245.45
20
-122.84
11
244.55
21
-123.74
0
LINE
8
BLACK
6
CONTINUOUS
10
244.55
20
-130.472
11
245.45
21
-131.372
0
LINE
8
BLACK
6
CONTINUOUS
10
245.45
20
-130.472
11
244.55
21
-131.372
0
LINE
8
BLACK
6
CONTINUOUS
10
244.55
20
-133.012
11
245.45
21
-133.912
0
LINE
8
BLACK
6
CONTINUOUS
10
245.45
20
-133.012
11
244.55
21
-133.912
0
CIRCLE
8
BLACK
10
160.774
20
-91.4676
40
0.595
0
CIRCLE
8
BLACK
10
160.774
20
-94.0076
40
0.595
0
CIRCLE
8
BLACK
10
160.774
20
-96.5476
40
0.595
0
CIRCLE
8
BLACK
10
160.774
20
-99.0876
40
0.595
0
CIRCLE
8
BLACK
10
160.774
20
-101.628
40
0.595
0
CIRCLE
8
BLACK
10
160.774
20
-104.168
40
0.595
0
CIRCLE
8
BLACK
10
160.774
20
-106.708
40
0.595
0
CIRCLE
8
BLACK
10
160.774
20
-109.248
40
0.595
0
CIRCLE
8
BLACK
10
161.162
20
-61.8726
40
0.595
0
CIRCLE
8
BLACK
10
161.162
20
-64.4126
40
0.595
0
CIRCLE
8
BLACK
10
161.162
20
-66.9526
40
0.595
0
CIRCLE
8
BLACK
10
161.162
20
-69.4926
40
0.595
0
CIRCLE
8
BLACK
10
161.162
20
-72.0326
40
0.595
0
CIRCLE
8
BLACK
10
161.162
20
-74.5726
40
0.595
0
CIRCLE
8
BLACK
10
161.162
20
-77.1126
40
0.595
0
CIRCLE
8
BLACK
10
161.162
20
-79.6526
40
0.595
0
CIRCLE
8
BLACK
10
176.332
20
-91.4676
40
0.595
0
CIRCLE
8
BLACK
10
176.332
20
-94.0076
40
0.595
0
CIRCLE
8
BLACK
10
176.332
20
-96.5476
40
0.595
0
CIRCLE
8
BLACK
10
176.332
20
-99.0876
40
0.595
0
CIRCLE
8
BLACK
10
176.332
20
-101.628
40
0.595
0
CIRCLE
8
BLACK
10
176.332
20
-104.168
40
0.595
0
CIRCLE
8
BLACK
10
176.332
20
-106.708
40
0.595
0
CIRCLE
8
BLACK
10
176.332
20
-109.248
40
0.595
0
CIRCLE
8
BLACK
10
176.352
20
-66.9526
40
0.595
0
CIRCLE
8
BLACK
10
176.352
20
-69.4926
40
0.595
0
CIRCLE
8
BLACK
10
176.352
20
-72.0326
40
0.595
0
CIRCLE
8
BLACK
10
176.352
20
-74.5726
40
0.595
0
LINE
8
BLACK
6
CONTINUOUS
10
75.0262
20
-140.655
11
75.0262
21
-138.655
0
LINE
8
BLACK
6
CONTINUOUS
10
75.0262
20
-138.655
11
75.5024
21
-138.655
0
LINE
8
BLACK
6
CONTINUOUS
10
75.5024
20
-138.655
11
75.7881
21
-138.75
0
LINE
8
BLACK
6
CONTINUOUS
10
75.7881
20
-138.75
11
75.9786
21
-138.94
0
LINE
8
BLACK
6
CONTINUOUS
10
75.9786
20
-138.94
11
76.0738
21
-139.131
0
LINE
8
BLACK
6
CONTINUOUS
10
76.0738
20
-139.131
11
76.169
21
-139.512
0
LINE
8
BLACK
6
CONTINUOUS
10
76.169
20
-139.512
11
76.169
21
-139.798
0
LINE
8
BLACK
6
CONTINUOUS
10
76.169
20
-139.798
11
76.0738
21
-140.179
0
LINE
8
BLACK
6
CONTINUOUS
10
76.0738
20
-140.179
11
75.9786
21
-140.369
0
LINE
8
BLACK
6
CONTINUOUS
10
75.9786
20
-140.369
11
75.7881
21
-140.56
0
LINE
8
BLACK
6
CONTINUOUS
10
75.7881
20
-140.56
11
75.5024
21
-140.655
0
LINE
8
BLACK
6
CONTINUOUS
10
75.5024
20
-140.655
11
75.0262
21
-140.655
0
LINE
8
BLACK
6
CONTINUOUS
10
77.0262
20
-140.655
11
77.0262
21
-139.321
0
LINE
8
BLACK
6
CONTINUOUS
10
77.0262
20
-139.702
11
77.1214
21
-139.512
0
LINE
8
BLACK
6
CONTINUOUS
10
77.1214
20
-139.512
11
77.2167
21
-139.417
0
LINE
8
BLACK
6
CONTINUOUS
10
77.2167
20
-139.417
11
77.4071
21
-139.321
0
LINE
8
BLACK
6
CONTINUOUS
10
77.4071
20
-139.321
11
77.5976
21
-139.321
0
LINE
8
BLACK
6
CONTINUOUS
10
78.2643
20
-140.655
11
78.2643
21
-139.321
0
LINE
8
BLACK
6
CONTINUOUS
10
78.2643
20
-138.655
11
78.169
21
-138.75
0
LINE
8
BLACK
6
CONTINUOUS
10
78.169
20
-138.75
11
78.2643
21
-138.845
0
LINE
8
BLACK
6
CONTINUOUS
10
78.2643
20
-138.845
11
78.3595
21
-138.75
0
LINE
8
BLACK
6
CONTINUOUS
10
78.3595
20
-138.75
11
78.2643
21
-138.655
0
LINE
8
BLACK
6
CONTINUOUS
10
78.2643
20
-138.655
11
78.2643
21
-138.845
0
LINE
8
BLACK
6
CONTINUOUS
10
79.5024
20
-140.655
11
79.3119
21
-140.56
0
LINE
8
BLACK
6
CONTINUOUS
10
79.3119
20
-140.56
11
79.2167
21
-140.369
0
LINE
8
BLACK
6
CONTINUOUS
10
79.2167
20
-140.369
11
79.2167
21
-138.655
0
LINE
8
BLACK
6
CONTINUOUS
10
80.55
20
-140.655
11
80.3595
21
-140.56
0
LINE
8
BLACK
6
CONTINUOUS
10
80.3595
20
-140.56
11
80.2643
21
-140.369
0
LINE
8
BLACK
6
CONTINUOUS
10
80.2643
20
-140.369
11
80.2643
21
-138.655
0
LINE
8
BLACK
6
CONTINUOUS
10
82.8357
20
-140.655
11
82.8357
21
-138.655
0
LINE
8
BLACK
6
CONTINUOUS
10
82.8357
20
-138.655
11
83.5024
21
-140.083
0
LINE
8
BLACK
6
CONTINUOUS
10
83.5024
20
-140.083
11
84.169
21
-138.655
0
LINE
8
BLACK
6
CONTINUOUS
10
84.169
20
-138.655
11
84.169
21
-140.655
0
LINE
8
BLACK
6
CONTINUOUS
10
85.9786
20
-140.655
11
85.9786
21
-139.607
0
LINE
8
BLACK
6
CONTINUOUS
10
85.9786
20
-139.607
11
85.8833
21
-139.417
0
LINE
8
BLACK
6
CONTINUOUS
10
85.8833
20
-139.417
11
85.6929
21
-139.321
0
LINE
8
BLACK
6
CONTINUOUS
10
85.6929
20
-139.321
11
85.3119
21
-139.321
0
LINE
8
BLACK
6
CONTINUOUS
10
85.3119
20
-139.321
11
85.1214
21
-139.417
0
LINE
8
BLACK
6
CONTINUOUS
10
85.9786
20
-140.56
11
85.7881
21
-140.655
0
LINE
8
BLACK
6
CONTINUOUS
10
85.7881
20
-140.655
11
85.3119
21
-140.655
0
LINE
8
BLACK
6
CONTINUOUS
10
85.3119
20
-140.655
11
85.1214
21
-140.56
0
LINE
8
BLACK
6
CONTINUOUS
10
85.1214
20
-140.56
11
85.0262
21
-140.369
0
LINE
8
BLACK
6
CONTINUOUS
10
85.0262
20
-140.369
11
85.0262
21
-140.179
0
LINE
8
BLACK
6
CONTINUOUS
10
85.0262
20
-140.179
11
85.1214
21
-139.988
0
LINE
8
BLACK
6
CONTINUOUS
10
85.1214
20
-139.988
11
85.3119
21
-139.893
0
LINE
8
BLACK
6
CONTINUOUS
10
85.3119
20
-139.893
11
85.7881
21
-139.893
0
LINE
8
BLACK
6
CONTINUOUS
10
85.7881
20
-139.893
11
85.9786
21
-139.798
0
LINE
8
BLACK
6
CONTINUOUS
10
86.931
20
-139.321
11
86.931
21
-141.321
0
LINE
8
BLACK
6
CONTINUOUS
10
86.931
20
-139.417
11
87.1214
21
-139.321
0
LINE
8
BLACK
6
CONTINUOUS
10
87.1214
20
-139.321
11
87.5024
21
-139.321
0
LINE
8
BLACK
6
CONTINUOUS
10
87.5024
20
-139.321
11
87.6929
21
-139.417
0
LINE
8
BLACK
6
CONTINUOUS
10
87.6929
20
-139.417
11
87.7881
21
-139.512
0
LINE
8
BLACK
6
CONTINUOUS
10
87.7881
20
-139.512
11
87.8833
21
-139.702
0
LINE
8
BLACK
6
CONTINUOUS
10
87.8833
20
-139.702
11
87.8833
21
-140.274
0
LINE
8
BLACK
6
CONTINUOUS
10
87.8833
20
-140.274
11
87.7881
21
-140.464
0
LINE
8
BLACK
6
CONTINUOUS
10
87.7881
20
-140.464
11
87.6929
21
-140.56
0
LINE
8
BLACK
6
CONTINUOUS
10
87.6929
20
-140.56
11
87.5024
21
-140.655
0
LINE
8
BLACK
6
CONTINUOUS
10
87.5024
20
-140.655
11
87.1214
21
-140.655
0
LINE
8
BLACK
6
CONTINUOUS
10
87.1214
20
-140.655
11
86.931
21
-140.56
0
LINE
8
BLACK
6
CONTINUOUS
10
88.7405
20
-140.464
11
88.8357
21
-140.56
0
LINE
8
BLACK
6
CONTINUOUS
10
88.8357
20
-140.56
11
88.7405
21
-140.655
0
LINE
8
BLACK
6
CONTINUOUS
10
88.7405
20
-140.655
11
88.6452
21
-140.56
0
LINE
8
BLACK
6
CONTINUOUS
10
88.6452
20
-140.56
11
88.7405
21
-140.464
0
LINE
8
BLACK
6
CONTINUOUS
10
88.7405
20
-140.464
11
88.7405
21
-140.655
0
LINE
8
BLACK
6
CONTINUOUS
10
88.7405
20
-139.417
11
88.8357
21
-139.512
0
LINE
8
BLACK
6
CONTINUOUS
10
88.8357
20
-139.512
11
88.7405
21
-139.607
0
LINE
8
BLACK
6
CONTINUOUS
10
88.7405
20
-139.607
11
88.6452
21
-139.512
0
LINE
8
BLACK
6
CONTINUOUS
10
88.6452
20
-139.512
11
88.7405
21
-139.417
0
LINE
8
BLACK
6
CONTINUOUS
10
88.7405
20
-139.417
11
88.7405
21
-139.607
0
LINE
8
BLACK
6
CONTINUOUS
10
71.55
20
-143.5
11
72.45
21
-144.4
0
LINE
8
BLACK
6
CONTINUOUS
10
72.45
20
-143.5
11
71.55
21
-144.4
0
LINE
8
BLACK
6
CONTINUOUS
10
75.4071
20
-142.855
11
75.5976
21
-142.855
0
LINE
8
BLACK
6
CONTINUOUS
10
75.5976
20
-142.855
11
75.7881
21
-142.95
0
LINE
8
BLACK
6
CONTINUOUS
10
75.7881
20
-142.95
11
75.8833
21
-143.045
0
LINE
8
BLACK
6
CONTINUOUS
10
75.8833
20
-143.045
11
75.9786
21
-143.236
0
LINE
8
BLACK
6
CONTINUOUS
10
75.9786
20
-143.236
11
76.0738
21
-143.617
0
LINE
8
BLACK
6
CONTINUOUS
10
76.0738
20
-143.617
11
76.0738
21
-144.093
0
LINE
8
BLACK
6
CONTINUOUS
10
76.0738
20
-144.093
11
75.9786
21
-144.474
0
LINE
8
BLACK
6
CONTINUOUS
10
75.9786
20
-144.474
11
75.8833
21
-144.664
0
LINE
8
BLACK
6
CONTINUOUS
10
75.8833
20
-144.664
11
75.7881
21
-144.76
0
LINE
8
BLACK
6
CONTINUOUS
10
75.7881
20
-144.76
11
75.5976
21
-144.855
0
LINE
8
BLACK
6
CONTINUOUS
10
75.5976
20
-144.855
11
75.4071
21
-144.855
0
LINE
8
BLACK
6
CONTINUOUS
10
75.4071
20
-144.855
11
75.2167
21
-144.76
0
LINE
8
BLACK
6
CONTINUOUS
10
75.2167
20
-144.76
11
75.1214
21
-144.664
0
LINE
8
BLACK
6
CONTINUOUS
10
75.1214
20
-144.664
11
75.0262
21
-144.474
0
LINE
8
BLACK
6
CONTINUOUS
10
75.0262
20
-144.474
11
74.931
21
-144.093
0
LINE
8
BLACK
6
CONTINUOUS
10
74.931
20
-144.093
11
74.931
21
-143.617
0
LINE
8
BLACK
6
CONTINUOUS
10
74.931
20
-143.617
11
75.0262
21
-143.236
0
LINE
8
BLACK
6
CONTINUOUS
10
75.0262
20
-143.236
11
75.1214
21
-143.045
0
LINE
8
BLACK
6
CONTINUOUS
10
75.1214
20
-143.045
11
75.2167
21
-142.95
0
LINE
8
BLACK
6
CONTINUOUS
10
75.2167
20
-142.95
11
75.4071
21
-142.855
0
LINE
8
BLACK
6
CONTINUOUS
10
76.931
20
-144.664
11
77.0262
21
-144.76
0
LINE
8
BLACK
6
CONTINUOUS
10
77.0262
20
-144.76
11
76.931
21
-144.855
0
LINE
8
BLACK
6
CONTINUOUS
10
76.931
20
-144.855
11
76.8357
21
-144.76
0
LINE
8
BLACK
6
CONTINUOUS
10
76.8357
20
-144.76
11
76.931
21
-144.664
0
LINE
8
BLACK
6
CONTINUOUS
10
76.931
20
-144.664
11
76.931
21
-144.855
0
LINE
8
BLACK
6
CONTINUOUS
10
77.9786
20
-144.855
11
78.3595
21
-144.855
0
LINE
8
BLACK
6
CONTINUOUS
10
78.3595
20
-144.855
11
78.55
21
-144.76
0
LINE
8
BLACK
6
CONTINUOUS
10
78.55
20
-144.76
11
78.6452
21
-144.664
0
LINE
8
BLACK
6
CONTINUOUS
10
78.6452
20
-144.664
11
78.8357
21
-144.379
0
LINE
8
BLACK
6
CONTINUOUS
10
78.8357
20
-144.379
11
78.931
21
-143.998
0
LINE
8
BLACK
6
CONTINUOUS
10
78.931
20
-143.998
11
78.931
21
-143.236
0
LINE
8
BLACK
6
CONTINUOUS
10
78.931
20
-143.236
11
78.8357
21
-143.045
0
LINE
8
BLACK
6
CONTINUOUS
10
78.8357
20
-143.045
11
78.7405
21
-142.95
0
LINE
8
BLACK
6
CONTINUOUS
10
78.7405
20
-142.95
11
78.55
21
-142.855
0
LINE
8
BLACK
6
CONTINUOUS
10
78.55
20
-142.855
11
78.169
21
-142.855
0
LINE
8
BLACK
6
CONTINUOUS
10
78.169
20
-142.855
11
77.9786
21
-142.95
0
LINE
8
BLACK
6
CONTINUOUS
10
77.9786
20
-142.95
11
77.8833
21
-143.045
0
LINE
8
BLACK
6
CONTINUOUS
10
77.8833
20
-143.045
11
77.7881
21
-143.236
0
LINE
8
BLACK
6
CONTINUOUS
10
77.7881
20
-143.236
11
77.7881
21
-143.712
0
LINE
8
BLACK
6
CONTINUOUS
10
77.7881
20
-143.712
11
77.8833
21
-143.902
0
LINE
8
BLACK
6
CONTINUOUS
10
77.8833
20
-143.902
11
77.9786
21
-143.998
0
LINE
8
BLACK
6
CONTINUOUS
10
77.9786
20
-143.998
11
78.169
21
-144.093
0
LINE
8
BLACK
6
CONTINUOUS
10
78.169
20
-144.093
11
78.55
21
-144.093
0
LINE
8
BLACK
6
CONTINUOUS
10
78.55
20
-144.093
11
78.7405
21
-143.998
0
LINE
8
BLACK
6
CONTINUOUS
10
78.7405
20
-143.998
11
78.8357
21
-143.902
0
LINE
8
BLACK
6
CONTINUOUS
10
78.8357
20
-143.902
11
78.931
21
-143.712
0
LINE
8
BLACK
6
CONTINUOUS
10
80.169
20
-142.855
11
80.3595
21
-142.855
0
LINE
8
BLACK
6
CONTINUOUS
10
80.3595
20
-142.855
11
80.55
21
-142.95
0
LINE
8
BLACK
6
CONTINUOUS
10
80.55
20
-142.95
11
80.6452
21
-143.045
0
LINE
8
BLACK
6
CONTINUOUS
10
80.6452
20
-143.045
11
80.7405
21
-143.236
0
LINE
8
BLACK
6
CONTINUOUS
10
80.7405
20
-143.236
11
80.8357
21
-143.617
0
LINE
8
BLACK
6
CONTINUOUS
10
80.8357
20
-143.617
11
80.8357
21
-144.093
0
LINE
8
BLACK
6
CONTINUOUS
10
80.8357
20
-144.093
11
80.7405
21
-144.474
0
LINE
8
BLACK
6
CONTINUOUS
10
80.7405
20
-144.474
11
80.6452
21
-144.664
0
LINE
8
BLACK
6
CONTINUOUS
10
80.6452
20
-144.664
11
80.55
21
-144.76
0
LINE
8
BLACK
6
CONTINUOUS
10
80.55
20
-144.76
11
80.3595
21
-144.855
0
LINE
8
BLACK
6
CONTINUOUS
10
80.3595
20
-144.855
11
80.169
21
-144.855
0
LINE
8
BLACK
6
CONTINUOUS
10
80.169
20
-144.855
11
79.9786
21
-144.76
0
LINE
8
BLACK
6
CONTINUOUS
10
79.9786
20
-144.76
11
79.8833
21
-144.664
0
LINE
8
BLACK
6
CONTINUOUS
10
79.8833
20
-144.664
11
79.7881
21
-144.474
0
LINE
8
BLACK
6
CONTINUOUS
10
79.7881
20
-144.474
11
79.6929
21
-144.093
0
LINE
8
BLACK
6
CONTINUOUS
10
79.6929
20
-144.093
11
79.6929
21
-143.617
0
LINE
8
BLACK
6
CONTINUOUS
10
79.6929
20
-143.617
11
79.7881
21
-143.236
0
LINE
8
BLACK
6
CONTINUOUS
10
79.7881
20
-143.236
11
79.8833
21
-143.045
0
LINE
8
BLACK
6
CONTINUOUS
10
79.8833
20
-143.045
11
79.9786
21
-142.95
0
LINE
8
BLACK
6
CONTINUOUS
10
79.9786
20
-142.95
11
80.169
21
-142.855
0
LINE
8
BLACK
6
CONTINUOUS
10
82.0738
20
-142.855
11
82.2643
21
-142.855
0
LINE
8
BLACK
6
CONTINUOUS
10
82.2643
20
-142.855
11
82.4548
21
-142.95
0
LINE
8
BLACK
6
CONTINUOUS
10
82.4548
20
-142.95
11
82.55
21
-143.045
0
LINE
8
BLACK
6
CONTINUOUS
10
82.55
20
-143.045
11
82.6452
21
-143.236
0
LINE
8
BLACK
6
CONTINUOUS
10
82.6452
20
-143.236
11
82.7405
21
-143.617
0
LINE
8
BLACK
6
CONTINUOUS
10
82.7405
20
-143.617
11
82.7405
21
-144.093
0
LINE
8
BLACK
6
CONTINUOUS
10
82.7405
20
-144.093
11
82.6452
21
-144.474
0
LINE
8
BLACK
6
CONTINUOUS
10
82.6452
20
-144.474
11
82.55
21
-144.664
0
LINE
8
BLACK
6
CONTINUOUS
10
82.55
20
-144.664
11
82.4548
21
-144.76
0
LINE
8
BLACK
6
CONTINUOUS
10
82.4548
20
-144.76
11
82.2643
21
-144.855
0
LINE
8
BLACK
6
CONTINUOUS
10
82.2643
20
-144.855
11
82.0738
21
-144.855
0
LINE
8
BLACK
6
CONTINUOUS
10
82.0738
20
-144.855
11
81.8833
21
-144.76
0
LINE
8
BLACK
6
CONTINUOUS
10
81.8833
20
-144.76
11
81.7881
21
-144.664
0
LINE
8
BLACK
6
CONTINUOUS
10
81.7881
20
-144.664
11
81.6929
21
-144.474
0
LINE
8
BLACK
6
CONTINUOUS
10
81.6929
20
-144.474
11
81.5976
21
-144.093
0
LINE
8
BLACK
6
CONTINUOUS
10
81.5976
20
-144.093
11
81.5976
21
-143.617
0
LINE
8
BLACK
6
CONTINUOUS
10
81.5976
20
-143.617
11
81.6929
21
-143.236
0
LINE
8
BLACK
6
CONTINUOUS
10
81.6929
20
-143.236
11
81.7881
21
-143.045
0
LINE
8
BLACK
6
CONTINUOUS
10
81.7881
20
-143.045
11
81.8833
21
-142.95
0
LINE
8
BLACK
6
CONTINUOUS
10
81.8833
20
-142.95
11
82.0738
21
-142.855
0
LINE
8
BLACK
6
CONTINUOUS
10
83.5976
20
-144.855
11
83.5976
21
-143.521
0
LINE
8
BLACK
6
CONTINUOUS
10
83.5976
20
-143.712
11
83.6929
21
-143.617
0
LINE
8
BLACK
6
CONTINUOUS
10
83.6929
20
-143.617
11
83.8833
21
-143.521
0
LINE
8
BLACK
6
CONTINUOUS
10
83.8833
20
-143.521
11
84.169
21
-143.521
0
LINE
8
BLACK
6
CONTINUOUS
10
84.169
20
-143.521
11
84.3595
21
-143.617
0
LINE
8
BLACK
6
CONTINUOUS
10
84.3595
20
-143.617
11
84.4548
21
-143.807
0
LINE
8
BLACK
6
CONTINUOUS
10
84.4548
20
-143.807
11
84.4548
21
-144.855
0
LINE
8
BLACK
6
CONTINUOUS
10
84.4548
20
-143.807
11
84.55
21
-143.617
0
LINE
8
BLACK
6
CONTINUOUS
10
84.55
20
-143.617
11
84.7405
21
-143.521
0
LINE
8
BLACK
6
CONTINUOUS
10
84.7405
20
-143.521
11
85.0262
21
-143.521
0
LINE
8
BLACK
6
CONTINUOUS
10
85.0262
20
-143.521
11
85.2167
21
-143.617
0
LINE
8
BLACK
6
CONTINUOUS
10
85.2167
20
-143.617
11
85.3119
21
-143.807
0
LINE
8
BLACK
6
CONTINUOUS
10
85.3119
20
-143.807
11
85.3119
21
-144.855
0
LINE
8
BLACK
6
CONTINUOUS
10
86.2643
20
-144.855
11
86.2643
21
-143.521
0
LINE
8
BLACK
6
CONTINUOUS
10
86.2643
20
-143.712
11
86.3595
21
-143.617
0
LINE
8
BLACK
6
CONTINUOUS
10
86.3595
20
-143.617
11
86.55
21
-143.521
0
LINE
8
BLACK
6
CONTINUOUS
10
86.55
20
-143.521
11
86.8357
21
-143.521
0
LINE
8
BLACK
6
CONTINUOUS
10
86.8357
20
-143.521
11
87.0262
21
-143.617
0
LINE
8
BLACK
6
CONTINUOUS
10
87.0262
20
-143.617
11
87.1214
21
-143.807
0
LINE
8
BLACK
6
CONTINUOUS
10
87.1214
20
-143.807
11
87.1214
21
-144.855
0
LINE
8
BLACK
6
CONTINUOUS
10
87.1214
20
-143.807
11
87.2167
21
-143.617
0
LINE
8
BLACK
6
CONTINUOUS
10
87.2167
20
-143.617
11
87.4071
21
-143.521
0
LINE
8
BLACK
6
CONTINUOUS
10
87.4071
20
-143.521
11
87.6929
21
-143.521
0
LINE
8
BLACK
6
CONTINUOUS
10
87.6929
20
-143.521
11
87.8833
21
-143.617
0
LINE
8
BLACK
6
CONTINUOUS
10
87.8833
20
-143.617
11
87.9786
21
-143.807
0
LINE
8
BLACK
6
CONTINUOUS
10
87.9786
20
-143.807
11
87.9786
21
-144.855
0
LINE
8
BLACK
6
CONTINUOUS
10
91.8833
20
-142.76
11
90.169
21
-145.331
0
LINE
8
BLACK
6
CONTINUOUS
10
94.4548
20
-142.855
11
94.6452
21
-142.855
0
LINE
8
BLACK
6
CONTINUOUS
10
94.6452
20
-142.855
11
94.8357
21
-142.95
0
LINE
8
BLACK
6
CONTINUOUS
10
94.8357
20
-142.95
11
94.931
21
-143.045
0
LINE
8
BLACK
6
CONTINUOUS
10
94.931
20
-143.045
11
95.0262
21
-143.236
0
LINE
8
BLACK
6
CONTINUOUS
10
95.0262
20
-143.236
11
95.1214
21
-143.617
0
LINE
8
BLACK
6
CONTINUOUS
10
95.1214
20
-143.617
11
95.1214
21
-144.093
0
LINE
8
BLACK
6
CONTINUOUS
10
95.1214
20
-144.093
11
95.0262
21
-144.474
0
LINE
8
BLACK
6
CONTINUOUS
10
95.0262
20
-144.474
11
94.931
21
-144.664
0
LINE
8
BLACK
6
CONTINUOUS
10
94.931
20
-144.664
11
94.8357
21
-144.76
0
LINE
8
BLACK
6
CONTINUOUS
10
94.8357
20
-144.76
11
94.6452
21
-144.855
0
LINE
8
BLACK
6
CONTINUOUS
10
94.6452
20
-144.855
11
94.4548
21
-144.855
0
LINE
8
BLACK
6
CONTINUOUS
10
94.4548
20
-144.855
11
94.2643
21
-144.76
0
LINE
8
BLACK
6
CONTINUOUS
10
94.2643
20
-144.76
11
94.169
21
-144.664
0
LINE
8
BLACK
6
CONTINUOUS
10
94.169
20
-144.664
11
94.0738
21
-144.474
0
LINE
8
BLACK
6
CONTINUOUS
10
94.0738
20
-144.474
11
93.9786
21
-144.093
0
LINE
8
BLACK
6
CONTINUOUS
10
93.9786
20
-144.093
11
93.9786
21
-143.617
0
LINE
8
BLACK
6
CONTINUOUS
10
93.9786
20
-143.617
11
94.0738
21
-143.236
0
LINE
8
BLACK
6
CONTINUOUS
10
94.0738
20
-143.236
11
94.169
21
-143.045
0
LINE
8
BLACK
6
CONTINUOUS
10
94.169
20
-143.045
11
94.2643
21
-142.95
0
LINE
8
BLACK
6
CONTINUOUS
10
94.2643
20
-142.95
11
94.4548
21
-142.855
0
LINE
8
BLACK
6
CONTINUOUS
10
95.9786
20
-144.664
11
96.0738
21
-144.76
0
LINE
8
BLACK
6
CONTINUOUS
10
96.0738
20
-144.76
11
95.9786
21
-144.855
0
LINE
8
BLACK
6
CONTINUOUS
10
95.9786
20
-144.855
11
95.8833
21
-144.76
0
LINE
8
BLACK
6
CONTINUOUS
10
95.8833
20
-144.76
11
95.9786
21
-144.664
0
LINE
8
BLACK
6
CONTINUOUS
10
95.9786
20
-144.664
11
95.9786
21
-144.855
0
LINE
8
BLACK
6
CONTINUOUS
10
97.3119
20
-142.855
11
97.5024
21
-142.855
0
LINE
8
BLACK
6
CONTINUOUS
10
97.5024
20
-142.855
11
97.6929
21
-142.95
0
LINE
8
BLACK
6
CONTINUOUS
10
97.6929
20
-142.95
11
97.7881
21
-143.045
0
LINE
8
BLACK
6
CONTINUOUS
10
97.7881
20
-143.045
11
97.8833
21
-143.236
0
LINE
8
BLACK
6
CONTINUOUS
10
97.8833
20
-143.236
11
97.9786
21
-143.617
0
LINE
8
BLACK
6
CONTINUOUS
10
97.9786
20
-143.617
11
97.9786
21
-144.093
0
LINE
8
BLACK
6
CONTINUOUS
10
97.9786
20
-144.093
11
97.8833
21
-144.474
0
LINE
8
BLACK
6
CONTINUOUS
10
97.8833
20
-144.474
11
97.7881
21
-144.664
0
LINE
8
BLACK
6
CONTINUOUS
10
97.7881
20
-144.664
11
97.6929
21
-144.76
0
LINE
8
BLACK
6
CONTINUOUS
10
97.6929
20
-144.76
11
97.5024
21
-144.855
0
LINE
8
BLACK
6
CONTINUOUS
10
97.5024
20
-144.855
11
97.3119
21
-144.855
0
LINE
8
BLACK
6
CONTINUOUS
10
97.3119
20
-144.855
11
97.1214
21
-144.76
0
LINE
8
BLACK
6
CONTINUOUS
10
97.1214
20
-144.76
11
97.0262
21
-144.664
0
LINE
8
BLACK
6
CONTINUOUS
10
97.0262
20
-144.664
11
96.931
21
-144.474
0
LINE
8
BLACK
6
CONTINUOUS
10
96.931
20
-144.474
11
96.8357
21
-144.093
0
LINE
8
BLACK
6
CONTINUOUS
10
96.8357
20
-144.093
11
96.8357
21
-143.617
0
LINE
8
BLACK
6
CONTINUOUS
10
96.8357
20
-143.617
11
96.931
21
-143.236
0
LINE
8
BLACK
6
CONTINUOUS
10
96.931
20
-143.236
11
97.0262
21
-143.045
0
LINE
8
BLACK
6
CONTINUOUS
10
97.0262
20
-143.045
11
97.1214
21
-142.95
0
LINE
8
BLACK
6
CONTINUOUS
10
97.1214
20
-142.95
11
97.3119
21
-142.855
0
LINE
8
BLACK
6
CONTINUOUS
10
98.6452
20
-142.855
11
99.8833
21
-142.855
0
LINE
8
BLACK
6
CONTINUOUS
10
99.8833
20
-142.855
11
99.2167
21
-143.617
0
LINE
8
BLACK
6
CONTINUOUS
10
99.2167
20
-143.617
11
99.5024
21
-143.617
0
LINE
8
BLACK
6
CONTINUOUS
10
99.5024
20
-143.617
11
99.6929
21
-143.712
0
LINE
8
BLACK
6
CONTINUOUS
10
99.6929
20
-143.712
11
99.7881
21
-143.807
0
LINE
8
BLACK
6
CONTINUOUS
10
99.7881
20
-143.807
11
99.8833
21
-143.998
0
LINE
8
BLACK
6
CONTINUOUS
10
99.8833
20
-143.998
11
99.8833
21
-144.474
0
LINE
8
BLACK
6
CONTINUOUS
10
99.8833
20
-144.474
11
99.7881
21
-144.664
0
LINE
8
BLACK
6
CONTINUOUS
10
99.7881
20
-144.664
11
99.6929
21
-144.76
0
LINE
8
BLACK
6
CONTINUOUS
10
99.6929
20
-144.76
11
99.5024
21
-144.855
0
LINE
8
BLACK
6
CONTINUOUS
10
99.5024
20
-144.855
11
98.931
21
-144.855
0
LINE
8
BLACK
6
CONTINUOUS
10
98.931
20
-144.855
11
98.7405
21
-144.76
0
LINE
8
BLACK
6
CONTINUOUS
10
98.7405
20
-144.76
11
98.6452
21
-144.664
0
LINE
8
BLACK
6
CONTINUOUS
10
101.693
20
-142.855
11
100.74
21
-142.855
0
LINE
8
BLACK
6
CONTINUOUS
10
100.74
20
-142.855
11
100.645
21
-143.807
0
LINE
8
BLACK
6
CONTINUOUS
10
100.645
20
-143.807
11
100.74
21
-143.712
0
LINE
8
BLACK
6
CONTINUOUS
10
100.74
20
-143.712
11
100.931
21
-143.617
0
LINE
8
BLACK
6
CONTINUOUS
10
100.931
20
-143.617
11
101.407
21
-143.617
0
LINE
8
BLACK
6
CONTINUOUS
10
101.407
20
-143.617
11
101.598
21
-143.712
0
LINE
8
BLACK
6
CONTINUOUS
10
101.598
20
-143.712
11
101.693
21
-143.807
0
LINE
8
BLACK
6
CONTINUOUS
10
101.693
20
-143.807
11
101.788
21
-143.998
0
LINE
8
BLACK
6
CONTINUOUS
10
101.788
20
-143.998
11
101.788
21
-144.474
0
LINE
8
BLACK
6
CONTINUOUS
10
101.788
20
-144.474
11
101.693
21
-144.664
0
LINE
8
BLACK
6
CONTINUOUS
10
101.693
20
-144.664
11
101.598
21
-144.76
0
LINE
8
BLACK
6
CONTINUOUS
10
101.598
20
-144.76
11
101.407
21
-144.855
0
LINE
8
BLACK
6
CONTINUOUS
10
101.407
20
-144.855
11
100.931
21
-144.855
0
LINE
8
BLACK
6
CONTINUOUS
10
100.931
20
-144.855
11
100.74
21
-144.76
0
LINE
8
BLACK
6
CONTINUOUS
10
100.74
20
-144.76
11
100.645
21
-144.664
0
LINE
8
BLACK
6
CONTINUOUS
10
103.502
20
-143.521
11
103.502
21
-144.855
0
LINE
8
BLACK
6
CONTINUOUS
10
103.026
20
-142.76
11
102.55
21
-144.188
0
LINE
8
BLACK
6
CONTINUOUS
10
102.55
20
-144.188
11
103.788
21
-144.188
0
LINE
8
BLACK
6
CONTINUOUS
10
104.455
20
-142.855
11
104.455
21
-143.236
0
LINE
8
BLACK
6
CONTINUOUS
10
105.217
20
-142.855
11
105.217
21
-143.236
0
LINE
8
BLACK
6
CONTINUOUS
10
108.169
20
-145.617
11
108.074
21
-145.521
0
LINE
8
BLACK
6
CONTINUOUS
10
108.074
20
-145.521
11
107.883
21
-145.236
0
LINE
8
BLACK
6
CONTINUOUS
10
107.883
20
-145.236
11
107.788
21
-145.045
0
LINE
8
BLACK
6
CONTINUOUS
10
107.788
20
-145.045
11
107.693
21
-144.76
0
LINE
8
BLACK
6
CONTINUOUS
10
107.693
20
-144.76
11
107.598
21
-144.283
0
LINE
8
BLACK
6
CONTINUOUS
10
107.598
20
-144.283
11
107.598
21
-143.902
0
LINE
8
BLACK
6
CONTINUOUS
10
107.598
20
-143.902
11
107.693
21
-143.426
0
LINE
8
BLACK
6
CONTINUOUS
10
107.693
20
-143.426
11
107.788
21
-143.14
0
LINE
8
BLACK
6
CONTINUOUS
10
107.788
20
-143.14
11
107.883
21
-142.95
0
LINE
8
BLACK
6
CONTINUOUS
10
107.883
20
-142.95
11
108.074
21
-142.664
0
LINE
8
BLACK
6
CONTINUOUS
10
108.074
20
-142.664
11
108.169
21
-142.569
0
LINE
8
BLACK
6
CONTINUOUS
10
109.979
20
-144.855
11
108.836
21
-144.855
0
LINE
8
BLACK
6
CONTINUOUS
10
109.407
20
-144.855
11
109.407
21
-142.855
0
LINE
8
BLACK
6
CONTINUOUS
10
109.407
20
-142.855
11
109.217
21
-143.14
0
LINE
8
BLACK
6
CONTINUOUS
10
109.217
20
-143.14
11
109.026
21
-143.331
0
LINE
8
BLACK
6
CONTINUOUS
10
109.026
20
-143.331
11
108.836
21
-143.426
0
LINE
8
BLACK
6
CONTINUOUS
10
110.931
20
-144.855
11
111.312
21
-144.855
0
LINE
8
BLACK
6
CONTINUOUS
10
111.312
20
-144.855
11
111.502
21
-144.76
0
LINE
8
BLACK
6
CONTINUOUS
10
111.502
20
-144.76
11
111.598
21
-144.664
0
LINE
8
BLACK
6
CONTINUOUS
10
111.598
20
-144.664
11
111.788
21
-144.379
0
LINE
8
BLACK
6
CONTINUOUS
10
111.788
20
-144.379
11
111.883
21
-143.998
0
LINE
8
BLACK
6
CONTINUOUS
10
111.883
20
-143.998
11
111.883
21
-143.236
0
LINE
8
BLACK
6
CONTINUOUS
10
111.883
20
-143.236
11
111.788
21
-143.045
0
LINE
8
BLACK
6
CONTINUOUS
10
111.788
20
-143.045
11
111.693
21
-142.95
0
LINE
8
BLACK
6
CONTINUOUS
10
111.693
20
-142.95
11
111.502
21
-142.855
0
LINE
8
BLACK
6
CONTINUOUS
10
111.502
20
-142.855
11
111.121
21
-142.855
0
LINE
8
BLACK
6
CONTINUOUS
10
111.121
20
-142.855
11
110.931
21
-142.95
0
LINE
8
BLACK
6
CONTINUOUS
10
110.931
20
-142.95
11
110.836
21
-143.045
0
LINE
8
BLACK
6
CONTINUOUS
10
110.836
20
-143.045
11
110.74
21
-143.236
0
LINE
8
BLACK
6
CONTINUOUS
10
110.74
20
-143.236
11
110.74
21
-143.712
0
LINE
8
BLACK
6
CONTINUOUS
10
110.74
20
-143.712
11
110.836
21
-143.902
0
LINE
8
BLACK
6
CONTINUOUS
10
110.836
20
-143.902
11
110.931
21
-143.998
0
LINE
8
BLACK
6
CONTINUOUS
10
110.931
20
-143.998
11
111.121
21
-144.093
0
LINE
8
BLACK
6
CONTINUOUS
10
111.121
20
-144.093
11
111.502
21
-144.093
0
LINE
8
BLACK
6
CONTINUOUS
10
111.502
20
-144.093
11
111.693
21
-143.998
0
LINE
8
BLACK
6
CONTINUOUS
10
111.693
20
-143.998
11
111.788
21
-143.902
0
LINE
8
BLACK
6
CONTINUOUS
10
111.788
20
-143.902
11
111.883
21
-143.712
0
LINE
8
BLACK
6
CONTINUOUS
10
112.645
20
-143.045
11
112.74
21
-142.95
0
LINE
8
BLACK
6
CONTINUOUS
10
112.74
20
-142.95
11
112.931
21
-142.855
0
LINE
8
BLACK
6
CONTINUOUS
10
112.931
20
-142.855
11
113.407
21
-142.855
0
LINE
8
BLACK
6
CONTINUOUS
10
113.407
20
-142.855
11
113.598
21
-142.95
0
LINE
8
BLACK
6
CONTINUOUS
10
113.598
20
-142.95
11
113.693
21
-143.045
0
LINE
8
BLACK
6
CONTINUOUS
10
113.693
20
-143.045
11
113.788
21
-143.236
0
LINE
8
BLACK
6
CONTINUOUS
10
113.788
20
-143.236
11
113.788
21
-143.426
0
LINE
8
BLACK
6
CONTINUOUS
10
113.788
20
-143.426
11
113.693
21
-143.712
0
LINE
8
BLACK
6
CONTINUOUS
10
113.693
20
-143.712
11
112.55
21
-144.855
0
LINE
8
BLACK
6
CONTINUOUS
10
112.55
20
-144.855
11
113.788
21
-144.855
0
LINE
8
BLACK
6
CONTINUOUS
10
116.169
20
-144.855
11
116.169
21
-142.855
0
LINE
8
BLACK
6
CONTINUOUS
10
117.026
20
-144.855
11
117.026
21
-143.807
0
LINE
8
BLACK
6
CONTINUOUS
10
117.026
20
-143.807
11
116.931
21
-143.617
0
LINE
8
BLACK
6
CONTINUOUS
10
116.931
20
-143.617
11
116.74
21
-143.521
0
LINE
8
BLACK
6
CONTINUOUS
10
116.74
20
-143.521
11
116.455
21
-143.521
0
LINE
8
BLACK
6
CONTINUOUS
10
116.455
20
-143.521
11
116.264
21
-143.617
0
LINE
8
BLACK
6
CONTINUOUS
10
116.264
20
-143.617
11
116.169
21
-143.712
0
LINE
8
BLACK
6
CONTINUOUS
10
118.264
20
-144.855
11
118.074
21
-144.76
0
LINE
8
BLACK
6
CONTINUOUS
10
118.074
20
-144.76
11
117.979
21
-144.664
0
LINE
8
BLACK
6
CONTINUOUS
10
117.979
20
-144.664
11
117.883
21
-144.474
0
LINE
8
BLACK
6
CONTINUOUS
10
117.883
20
-144.474
11
117.883
21
-143.902
0
LINE
8
BLACK
6
CONTINUOUS
10
117.883
20
-143.902
11
117.979
21
-143.712
0
LINE
8
BLACK
6
CONTINUOUS
10
117.979
20
-143.712
11
118.074
21
-143.617
0
LINE
8
BLACK
6
CONTINUOUS
10
118.074
20
-143.617
11
118.264
21
-143.521
0
LINE
8
BLACK
6
CONTINUOUS
10
118.264
20
-143.521
11
118.55
21
-143.521
0
LINE
8
BLACK
6
CONTINUOUS
10
118.55
20
-143.521
11
118.74
21
-143.617
0
LINE
8
BLACK
6
CONTINUOUS
10
118.74
20
-143.617
11
118.836
21
-143.712
0
LINE
8
BLACK
6
CONTINUOUS
10
118.836
20
-143.712
11
118.931
21
-143.902
0
LINE
8
BLACK
6
CONTINUOUS
10
118.931
20
-143.902
11
118.931
21
-144.474
0
LINE
8
BLACK
6
CONTINUOUS
10
118.931
20
-144.474
11
118.836
21
-144.664
0
LINE
8
BLACK
6
CONTINUOUS
10
118.836
20
-144.664
11
118.74
21
-144.76
0
LINE
8
BLACK
6
CONTINUOUS
10
118.74
20
-144.76
11
118.55
21
-144.855
0
LINE
8
BLACK
6
CONTINUOUS
10
118.55
20
-144.855
11
118.264
21
-144.855
0
LINE
8
BLACK
6
CONTINUOUS
10
120.074
20
-144.855
11
119.883
21
-144.76
0
LINE
8
BLACK
6
CONTINUOUS
10
119.883
20
-144.76
11
119.788
21
-144.569
0
LINE
8
BLACK
6
CONTINUOUS
10
119.788
20
-144.569
11
119.788
21
-142.855
0
LINE
8
BLACK
6
CONTINUOUS
10
121.598
20
-144.76
11
121.407
21
-144.855
0
LINE
8
BLACK
6
CONTINUOUS
10
121.407
20
-144.855
11
121.026
21
-144.855
0
LINE
8
BLACK
6
CONTINUOUS
10
121.026
20
-144.855
11
120.836
21
-144.76
0
LINE
8
BLACK
6
CONTINUOUS
10
120.836
20
-144.76
11
120.74
21
-144.569
0
LINE
8
BLACK
6
CONTINUOUS
10
120.74
20
-144.569
11
120.74
21
-143.807
0
LINE
8
BLACK
6
CONTINUOUS
10
120.74
20
-143.807
11
120.836
21
-143.617
0
LINE
8
BLACK
6
CONTINUOUS
10
120.836
20
-143.617
11
121.026
21
-143.521
0
LINE
8
BLACK
6
CONTINUOUS
10
121.026
20
-143.521
11
121.407
21
-143.521
0
LINE
8
BLACK
6
CONTINUOUS
10
121.407
20
-143.521
11
121.598
21
-143.617
0
LINE
8
BLACK
6
CONTINUOUS
10
121.598
20
-143.617
11
121.693
21
-143.807
0
LINE
8
BLACK
6
CONTINUOUS
10
121.693
20
-143.807
11
121.693
21
-143.998
0
LINE
8
BLACK
6
CONTINUOUS
10
121.693
20
-143.998
11
120.74
21
-144.188
0
LINE
8
BLACK
6
CONTINUOUS
10
122.455
20
-144.76
11
122.645
21
-144.855
0
LINE
8
BLACK
6
CONTINUOUS
10
122.645
20
-144.855
11
123.026
21
-144.855
0
LINE
8
BLACK
6
CONTINUOUS
10
123.026
20
-144.855
11
123.217
21
-144.76
0
LINE
8
BLACK
6
CONTINUOUS
10
123.217
20
-144.76
11
123.312
21
-144.569
0
LINE
8
BLACK
6
CONTINUOUS
10
123.312
20
-144.569
11
123.312
21
-144.474
0
LINE
8
BLACK
6
CONTINUOUS
10
123.312
20
-144.474
11
123.217
21
-144.283
0
LINE
8
BLACK
6
CONTINUOUS
10
123.217
20
-144.283
11
123.026
21
-144.188
0
LINE
8
BLACK
6
CONTINUOUS
10
123.026
20
-144.188
11
122.74
21
-144.188
0
LINE
8
BLACK
6
CONTINUOUS
10
122.74
20
-144.188
11
122.55
21
-144.093
0
LINE
8
BLACK
6
CONTINUOUS
10
122.55
20
-144.093
11
122.455
21
-143.902
0
LINE
8
BLACK
6
CONTINUOUS
10
122.455
20
-143.902
11
122.455
21
-143.807
0
LINE
8
BLACK
6
CONTINUOUS
10
122.455
20
-143.807
11
122.55
21
-143.617
0
LINE
8
BLACK
6
CONTINUOUS
10
122.55
20
-143.617
11
122.74
21
-143.521
0
LINE
8
BLACK
6
CONTINUOUS
10
122.74
20
-143.521
11
123.026
21
-143.521
0
LINE
8
BLACK
6
CONTINUOUS
10
123.026
20
-143.521
11
123.217
21
-143.617
0
LINE
8
BLACK
6
CONTINUOUS
10
123.979
20
-145.617
11
124.074
21
-145.521
0
LINE
8
BLACK
6
CONTINUOUS
10
124.074
20
-145.521
11
124.264
21
-145.236
0
LINE
8
BLACK
6
CONTINUOUS
10
124.264
20
-145.236
11
124.36
21
-145.045
0
LINE
8
BLACK
6
CONTINUOUS
10
124.36
20
-145.045
11
124.455
21
-144.76
0
LINE
8
BLACK
6
CONTINUOUS
10
124.455
20
-144.76
11
124.55
21
-144.283
0
LINE
8
BLACK
6
CONTINUOUS
10
124.55
20
-144.283
11
124.55
21
-143.902
0
LINE
8
BLACK
6
CONTINUOUS
10
124.55
20
-143.902
11
124.455
21
-143.426
0
LINE
8
BLACK
6
CONTINUOUS
10
124.455
20
-143.426
11
124.36
21
-143.14
0
LINE
8
BLACK
6
CONTINUOUS
10
124.36
20
-143.14
11
124.264
21
-142.95
0
LINE
8
BLACK
6
CONTINUOUS
10
124.264
20
-142.95
11
124.074
21
-142.664
0
LINE
8
BLACK
6
CONTINUOUS
10
124.074
20
-142.664
11
123.979
21
-142.569
0
CIRCLE
8
BLACK
10
71.855
20
-146.59
40
0.595
0
LINE
8
BLACK
6
CONTINUOUS
10
76.0738
20
-147.495
11
74.931
21
-147.495
0
LINE
8
BLACK
6
CONTINUOUS
10
75.5024
20
-147.495
11
75.5024
21
-145.495
0
LINE
8
BLACK
6
CONTINUOUS
10
75.5024
20
-145.495
11
75.3119
21
-145.78
0
LINE
8
BLACK
6
CONTINUOUS
10
75.3119
20
-145.78
11
75.1214
21
-145.971
0
LINE
8
BLACK
6
CONTINUOUS
10
75.1214
20
-145.971
11
74.931
21
-146.066
0
LINE
8
BLACK
6
CONTINUOUS
10
76.931
20
-147.304
11
77.0262
21
-147.4
0
LINE
8
BLACK
6
CONTINUOUS
10
77.0262
20
-147.4
11
76.931
21
-147.495
0
LINE
8
BLACK
6
CONTINUOUS
10
76.931
20
-147.495
11
76.8357
21
-147.4
0
LINE
8
BLACK
6
CONTINUOUS
10
76.8357
20
-147.4
11
76.931
21
-147.304
0
LINE
8
BLACK
6
CONTINUOUS
10
76.931
20
-147.304
11
76.931
21
-147.495
0
LINE
8
BLACK
6
CONTINUOUS
10
78.931
20
-147.495
11
77.7881
21
-147.495
0
LINE
8
BLACK
6
CONTINUOUS
10
78.3595
20
-147.495
11
78.3595
21
-145.495
0
LINE
8
BLACK
6
CONTINUOUS
10
78.3595
20
-145.495
11
78.169
21
-145.78
0
LINE
8
BLACK
6
CONTINUOUS
10
78.169
20
-145.78
11
77.9786
21
-145.971
0
LINE
8
BLACK
6
CONTINUOUS
10
77.9786
20
-145.971
11
77.7881
21
-146.066
0
LINE
8
BLACK
6
CONTINUOUS
10
79.8833
20
-147.495
11
80.2643
21
-147.495
0
LINE
8
BLACK
6
CONTINUOUS
10
80.2643
20
-147.495
11
80.4548
21
-147.4
0
LINE
8
BLACK
6
CONTINUOUS
10
80.4548
20
-147.4
11
80.55
21
-147.304
0
LINE
8
BLACK
6
CONTINUOUS
10
80.55
20
-147.304
11
80.7405
21
-147.019
0
LINE
8
BLACK
6
CONTINUOUS
10
80.7405
20
-147.019
11
80.8357
21
-146.638
0
LINE
8
BLACK
6
CONTINUOUS
10
80.8357
20
-146.638
11
80.8357
21
-145.876
0
LINE
8
BLACK
6
CONTINUOUS
10
80.8357
20
-145.876
11
80.7405
21
-145.685
0
LINE
8
BLACK
6
CONTINUOUS
10
80.7405
20
-145.685
11
80.6452
21
-145.59
0
LINE
8
BLACK
6
CONTINUOUS
10
80.6452
20
-145.59
11
80.4548
21
-145.495
0
LINE
8
BLACK
6
CONTINUOUS
10
80.4548
20
-145.495
11
80.0738
21
-145.495
0
LINE
8
BLACK
6
CONTINUOUS
10
80.0738
20
-145.495
11
79.8833
21
-145.59
0
LINE
8
BLACK
6
CONTINUOUS
10
79.8833
20
-145.59
11
79.7881
21
-145.685
0
LINE
8
BLACK
6
CONTINUOUS
10
79.7881
20
-145.685
11
79.6929
21
-145.876
0
LINE
8
BLACK
6
CONTINUOUS
10
79.6929
20
-145.876
11
79.6929
21
-146.352
0
LINE
8
BLACK
6
CONTINUOUS
10
79.6929
20
-146.352
11
79.7881
21
-146.542
0
LINE
8
BLACK
6
CONTINUOUS
10
79.7881
20
-146.542
11
79.8833
21
-146.638
0
LINE
8
BLACK
6
CONTINUOUS
10
79.8833
20
-146.638
11
80.0738
21
-146.733
0
LINE
8
BLACK
6
CONTINUOUS
10
80.0738
20
-146.733
11
80.4548
21
-146.733
0
LINE
8
BLACK
6
CONTINUOUS
10
80.4548
20
-146.733
11
80.6452
21
-146.638
0
LINE
8
BLACK
6
CONTINUOUS
10
80.6452
20
-146.638
11
80.7405
21
-146.542
0
LINE
8
BLACK
6
CONTINUOUS
10
80.7405
20
-146.542
11
80.8357
21
-146.352
0
LINE
8
BLACK
6
CONTINUOUS
10
82.0738
20
-145.495
11
82.2643
21
-145.495
0
LINE
8
BLACK
6
CONTINUOUS
10
82.2643
20
-145.495
11
82.4548
21
-145.59
0
LINE
8
BLACK
6
CONTINUOUS
10
82.4548
20
-145.59
11
82.55
21
-145.685
0
LINE
8
BLACK
6
CONTINUOUS
10
82.55
20
-145.685
11
82.6452
21
-145.876
0
LINE
8
BLACK
6
CONTINUOUS
10
82.6452
20
-145.876
11
82.7405
21
-146.257
0
LINE
8
BLACK
6
CONTINUOUS
10
82.7405
20
-146.257
11
82.7405
21
-146.733
0
LINE
8
BLACK
6
CONTINUOUS
10
82.7405
20
-146.733
11
82.6452
21
-147.114
0
LINE
8
BLACK
6
CONTINUOUS
10
82.6452
20
-147.114
11
82.55
21
-147.304
0
LINE
8
BLACK
6
CONTINUOUS
10
82.55
20
-147.304
11
82.4548
21
-147.4
0
LINE
8
BLACK
6
CONTINUOUS
10
82.4548
20
-147.4
11
82.2643
21
-147.495
0
LINE
8
BLACK
6
CONTINUOUS
10
82.2643
20
-147.495
11
82.0738
21
-147.495
0
LINE
8
BLACK
6
CONTINUOUS
10
82.0738
20
-147.495
11
81.8833
21
-147.4
0
LINE
8
BLACK
6
CONTINUOUS
10
81.8833
20
-147.4
11
81.7881
21
-147.304
0
LINE
8
BLACK
6
CONTINUOUS
10
81.7881
20
-147.304
11
81.6929
21
-147.114
0
LINE
8
BLACK
6
CONTINUOUS
10
81.6929
20
-147.114
11
81.5976
21
-146.733
0
LINE
8
BLACK
6
CONTINUOUS
10
81.5976
20
-146.733
11
81.5976
21
-146.257
0
LINE
8
BLACK
6
CONTINUOUS
10
81.5976
20
-146.257
11
81.6929
21
-145.876
0
LINE
8
BLACK
6
CONTINUOUS
10
81.6929
20
-145.876
11
81.7881
21
-145.685
0
LINE
8
BLACK
6
CONTINUOUS
10
81.7881
20
-145.685
11
81.8833
21
-145.59
0
LINE
8
BLACK
6
CONTINUOUS
10
81.8833
20
-145.59
11
82.0738
21
-145.495
0
LINE
8
BLACK
6
CONTINUOUS
10
83.5976
20
-147.495
11
83.5976
21
-146.161
0
LINE
8
BLACK
6
CONTINUOUS
10
83.5976
20
-146.352
11
83.6929
21
-146.257
0
LINE
8
BLACK
6
CONTINUOUS
10
83.6929
20
-146.257
11
83.8833
21
-146.161
0
LINE
8
BLACK
6
CONTINUOUS
10
83.8833
20
-146.161
11
84.169
21
-146.161
0
LINE
8
BLACK
6
CONTINUOUS
10
84.169
20
-146.161
11
84.3595
21
-146.257
0
LINE
8
BLACK
6
CONTINUOUS
10
84.3595
20
-146.257
11
84.4548
21
-146.447
0
LINE
8
BLACK
6
CONTINUOUS
10
84.4548
20
-146.447
11
84.4548
21
-147.495
0
LINE
8
BLACK
6
CONTINUOUS
10
84.4548
20
-146.447
11
84.55
21
-146.257
0
LINE
8
BLACK
6
CONTINUOUS
10
84.55
20
-146.257
11
84.7405
21
-146.161
0
LINE
8
BLACK
6
CONTINUOUS
10
84.7405
20
-146.161
11
85.0262
21
-146.161
0
LINE
8
BLACK
6
CONTINUOUS
10
85.0262
20
-146.161
11
85.2167
21
-146.257
0
LINE
8
BLACK
6
CONTINUOUS
10
85.2167
20
-146.257
11
85.3119
21
-146.447
0
LINE
8
BLACK
6
CONTINUOUS
10
85.3119
20
-146.447
11
85.3119
21
-147.495
0
LINE
8
BLACK
6
CONTINUOUS
10
86.2643
20
-147.495
11
86.2643
21
-146.161
0
LINE
8
BLACK
6
CONTINUOUS
10
86.2643
20
-146.352
11
86.3595
21
-146.257
0
LINE
8
BLACK
6
CONTINUOUS
10
86.3595
20
-146.257
11
86.55
21
-146.161
0
LINE
8
BLACK
6
CONTINUOUS
10
86.55
20
-146.161
11
86.8357
21
-146.161
0
LINE
8
BLACK
6
CONTINUOUS
10
86.8357
20
-146.161
11
87.0262
21
-146.257
0
LINE
8
BLACK
6
CONTINUOUS
10
87.0262
20
-146.257
11
87.1214
21
-146.447
0
LINE
8
BLACK
6
CONTINUOUS
10
87.1214
20
-146.447
11
87.1214
21
-147.495
0
LINE
8
BLACK
6
CONTINUOUS
10
87.1214
20
-146.447
11
87.2167
21
-146.257
0
LINE
8
BLACK
6
CONTINUOUS
10
87.2167
20
-146.257
11
87.4071
21
-146.161
0
LINE
8
BLACK
6
CONTINUOUS
10
87.4071
20
-146.161
11
87.6929
21
-146.161
0
LINE
8
BLACK
6
CONTINUOUS
10
87.6929
20
-146.161
11
87.8833
21
-146.257
0
LINE
8
BLACK
6
CONTINUOUS
10
87.8833
20
-146.257
11
87.9786
21
-146.447
0
LINE
8
BLACK
6
CONTINUOUS
10
87.9786
20
-146.447
11
87.9786
21
-147.495
0
LINE
8
BLACK
6
CONTINUOUS
10
91.8833
20
-145.4
11
90.169
21
-147.971
0
LINE
8
BLACK
6
CONTINUOUS
10
94.4548
20
-145.495
11
94.6452
21
-145.495
0
LINE
8
BLACK
6
CONTINUOUS
10
94.6452
20
-145.495
11
94.8357
21
-145.59
0
LINE
8
BLACK
6
CONTINUOUS
10
94.8357
20
-145.59
11
94.931
21
-145.685
0
LINE
8
BLACK
6
CONTINUOUS
10
94.931
20
-145.685
11
95.0262
21
-145.876
0
LINE
8
BLACK
6
CONTINUOUS
10
95.0262
20
-145.876
11
95.1214
21
-146.257
0
LINE
8
BLACK
6
CONTINUOUS
10
95.1214
20
-146.257
11
95.1214
21
-146.733
0
LINE
8
BLACK
6
CONTINUOUS
10
95.1214
20
-146.733
11
95.0262
21
-147.114
0
LINE
8
BLACK
6
CONTINUOUS
10
95.0262
20
-147.114
11
94.931
21
-147.304
0
LINE
8
BLACK
6
CONTINUOUS
10
94.931
20
-147.304
11
94.8357
21
-147.4
0
LINE
8
BLACK
6
CONTINUOUS
10
94.8357
20
-147.4
11
94.6452
21
-147.495
0
LINE
8
BLACK
6
CONTINUOUS
10
94.6452
20
-147.495
11
94.4548
21
-147.495
0
LINE
8
BLACK
6
CONTINUOUS
10
94.4548
20
-147.495
11
94.2643
21
-147.4
0
LINE
8
BLACK
6
CONTINUOUS
10
94.2643
20
-147.4
11
94.169
21
-147.304
0
LINE
8
BLACK
6
CONTINUOUS
10
94.169
20
-147.304
11
94.0738
21
-147.114
0
LINE
8
BLACK
6
CONTINUOUS
10
94.0738
20
-147.114
11
93.9786
21
-146.733
0
LINE
8
BLACK
6
CONTINUOUS
10
93.9786
20
-146.733
11
93.9786
21
-146.257
0
LINE
8
BLACK
6
CONTINUOUS
10
93.9786
20
-146.257
11
94.0738
21
-145.876
0
LINE
8
BLACK
6
CONTINUOUS
10
94.0738
20
-145.876
11
94.169
21
-145.685
0
LINE
8
BLACK
6
CONTINUOUS
10
94.169
20
-145.685
11
94.2643
21
-145.59
0
LINE
8
BLACK
6
CONTINUOUS
10
94.2643
20
-145.59
11
94.4548
21
-145.495
0
LINE
8
BLACK
6
CONTINUOUS
10
95.9786
20
-147.304
11
96.0738
21
-147.4
0
LINE
8
BLACK
6
CONTINUOUS
10
96.0738
20
-147.4
11
95.9786
21
-147.495
0
LINE
8
BLACK
6
CONTINUOUS
10
95.9786
20
-147.495
11
95.8833
21
-147.4
0
LINE
8
BLACK
6
CONTINUOUS
10
95.8833
20
-147.4
11
95.9786
21
-147.304
0
LINE
8
BLACK
6
CONTINUOUS
10
95.9786
20
-147.304
11
95.9786
21
-147.495
0
LINE
8
BLACK
6
CONTINUOUS
10
97.3119
20
-145.495
11
97.5024
21
-145.495
0
LINE
8
BLACK
6
CONTINUOUS
10
97.5024
20
-145.495
11
97.6929
21
-145.59
0
LINE
8
BLACK
6
CONTINUOUS
10
97.6929
20
-145.59
11
97.7881
21
-145.685
0
LINE
8
BLACK
6
CONTINUOUS
10
97.7881
20
-145.685
11
97.8833
21
-145.876
0
LINE
8
BLACK
6
CONTINUOUS
10
97.8833
20
-145.876
11
97.9786
21
-146.257
0
LINE
8
BLACK
6
CONTINUOUS
10
97.9786
20
-146.257
11
97.9786
21
-146.733
0
LINE
8
BLACK
6
CONTINUOUS
10
97.9786
20
-146.733
11
97.8833
21
-147.114
0
LINE
8
BLACK
6
CONTINUOUS
10
97.8833
20
-147.114
11
97.7881
21
-147.304
0
LINE
8
BLACK
6
CONTINUOUS
10
97.7881
20
-147.304
11
97.6929
21
-147.4
0
LINE
8
BLACK
6
CONTINUOUS
10
97.6929
20
-147.4
11
97.5024
21
-147.495
0
LINE
8
BLACK
6
CONTINUOUS
10
97.5024
20
-147.495
11
97.3119
21
-147.495
0
LINE
8
BLACK
6
CONTINUOUS
10
97.3119
20
-147.495
11
97.1214
21
-147.4
0
LINE
8
BLACK
6
CONTINUOUS
10
97.1214
20
-147.4
11
97.0262
21
-147.304
0
LINE
8
BLACK
6
CONTINUOUS
10
97.0262
20
-147.304
11
96.931
21
-147.114
0
LINE
8
BLACK
6
CONTINUOUS
10
96.931
20
-147.114
11
96.8357
21
-146.733
0
LINE
8
BLACK
6
CONTINUOUS
10
96.8357
20
-146.733
11
96.8357
21
-146.257
0
LINE
8
BLACK
6
CONTINUOUS
10
96.8357
20
-146.257
11
96.931
21
-145.876
0
LINE
8
BLACK
6
CONTINUOUS
10
96.931
20
-145.876
11
97.0262
21
-145.685
0
LINE
8
BLACK
6
CONTINUOUS
10
97.0262
20
-145.685
11
97.1214
21
-145.59
0
LINE
8
BLACK
6
CONTINUOUS
10
97.1214
20
-145.59
11
97.3119
21
-145.495
0
LINE
8
BLACK
6
CONTINUOUS
10
99.6929
20
-146.161
11
99.6929
21
-147.495
0
LINE
8
BLACK
6
CONTINUOUS
10
99.2167
20
-145.4
11
98.7405
21
-146.828
0
LINE
8
BLACK
6
CONTINUOUS
10
98.7405
20
-146.828
11
99.9786
21
-146.828
0
LINE
8
BLACK
6
CONTINUOUS
10
101.598
20
-145.495
11
101.217
21
-145.495
0
LINE
8
BLACK
6
CONTINUOUS
10
101.217
20
-145.495
11
101.026
21
-145.59
0
LINE
8
BLACK
6
CONTINUOUS
10
101.026
20
-145.59
11
100.931
21
-145.685
0
LINE
8
BLACK
6
CONTINUOUS
10
100.931
20
-145.685
11
100.74
21
-145.971
0
LINE
8
BLACK
6
CONTINUOUS
10
100.74
20
-145.971
11
100.645
21
-146.352
0
LINE
8
BLACK
6
CONTINUOUS
10
100.645
20
-146.352
11
100.645
21
-147.114
0
LINE
8
BLACK
6
CONTINUOUS
10
100.645
20
-147.114
11
100.74
21
-147.304
0
LINE
8
BLACK
6
CONTINUOUS
10
100.74
20
-147.304
11
100.836
21
-147.4
0
LINE
8
BLACK
6
CONTINUOUS
10
100.836
20
-147.4
11
101.026
21
-147.495
0
LINE
8
BLACK
6
CONTINUOUS
10
101.026
20
-147.495
11
101.407
21
-147.495
0
LINE
8
BLACK
6
CONTINUOUS
10
101.407
20
-147.495
11
101.598
21
-147.4
0
LINE
8
BLACK
6
CONTINUOUS
10
101.598
20
-147.4
11
101.693
21
-147.304
0
LINE
8
BLACK
6
CONTINUOUS
10
101.693
20
-147.304
11
101.788
21
-147.114
0
LINE
8
BLACK
6
CONTINUOUS
10
101.788
20
-147.114
11
101.788
21
-146.638
0
LINE
8
BLACK
6
CONTINUOUS
10
101.788
20
-146.638
11
101.693
21
-146.447
0
LINE
8
BLACK
6
CONTINUOUS
10
101.693
20
-146.447
11
101.598
21
-146.352
0
LINE
8
BLACK
6
CONTINUOUS
10
101.598
20
-146.352
11
101.407
21
-146.257
0
LINE
8
BLACK
6
CONTINUOUS
10
101.407
20
-146.257
11
101.026
21
-146.257
0
LINE
8
BLACK
6
CONTINUOUS
10
101.026
20
-146.257
11
100.836
21
-146.352
0
LINE
8
BLACK
6
CONTINUOUS
10
100.836
20
-146.352
11
100.74
21
-146.447
0
LINE
8
BLACK
6
CONTINUOUS
10
100.74
20
-146.447
11
100.645
21
-146.638
0
LINE
8
BLACK
6
CONTINUOUS
10
102.74
20
-147.495
11
103.121
21
-147.495
0
LINE
8
BLACK
6
CONTINUOUS
10
103.121
20
-147.495
11
103.312
21
-147.4
0
LINE
8
BLACK
6
CONTINUOUS
10
103.312
20
-147.4
11
103.407
21
-147.304
0
LINE
8
BLACK
6
CONTINUOUS
10
103.407
20
-147.304
11
103.598
21
-147.019
0
LINE
8
BLACK
6
CONTINUOUS
10
103.598
20
-147.019
11
103.693
21
-146.638
0
LINE
8
BLACK
6
CONTINUOUS
10
103.693
20
-146.638
11
103.693
21
-145.876
0
LINE
8
BLACK
6
CONTINUOUS
10
103.693
20
-145.876
11
103.598
21
-145.685
0
LINE
8
BLACK
6
CONTINUOUS
10
103.598
20
-145.685
11
103.502
21
-145.59
0
LINE
8
BLACK
6
CONTINUOUS
10
103.502
20
-145.59
11
103.312
21
-145.495
0
LINE
8
BLACK
6
CONTINUOUS
10
103.312
20
-145.495
11
102.931
21
-145.495
0
LINE
8
BLACK
6
CONTINUOUS
10
102.931
20
-145.495
11
102.74
21
-145.59
0
LINE
8
BLACK
6
CONTINUOUS
10
102.74
20
-145.59
11
102.645
21
-145.685
0
LINE
8
BLACK
6
CONTINUOUS
10
102.645
20
-145.685
11
102.55
21
-145.876
0
LINE
8
BLACK
6
CONTINUOUS
10
102.55
20
-145.876
11
102.55
21
-146.352
0
LINE
8
BLACK
6
CONTINUOUS
10
102.55
20
-146.352
11
102.645
21
-146.542
0
LINE
8
BLACK
6
CONTINUOUS
10
102.645
20
-146.542
11
102.74
21
-146.638
0
LINE
8
BLACK
6
CONTINUOUS
10
102.74
20
-146.638
11
102.931
21
-146.733
0
LINE
8
BLACK
6
CONTINUOUS
10
102.931
20
-146.733
11
103.312
21
-146.733
0
LINE
8
BLACK
6
CONTINUOUS
10
103.312
20
-146.733
11
103.502
21
-146.638
0
LINE
8
BLACK
6
CONTINUOUS
10
103.502
20
-146.638
11
103.598
21
-146.542
0
LINE
8
BLACK
6
CONTINUOUS
10
103.598
20
-146.542
11
103.693
21
-146.352
0
LINE
8
BLACK
6
CONTINUOUS
10
104.455
20
-145.495
11
104.455
21
-145.876
0
LINE
8
BLACK
6
CONTINUOUS
10
105.217
20
-145.495
11
105.217
21
-145.876
0
LINE
8
BLACK
6
CONTINUOUS
10
108.169
20
-148.257
11
108.074
21
-148.161
0
LINE
8
BLACK
6
CONTINUOUS
10
108.074
20
-148.161
11
107.883
21
-147.876
0
LINE
8
BLACK
6
CONTINUOUS
10
107.883
20
-147.876
11
107.788
21
-147.685
0
LINE
8
BLACK
6
CONTINUOUS
10
107.788
20
-147.685
11
107.693
21
-147.4
0
LINE
8
BLACK
6
CONTINUOUS
10
107.693
20
-147.4
11
107.598
21
-146.923
0
LINE
8
BLACK
6
CONTINUOUS
10
107.598
20
-146.923
11
107.598
21
-146.542
0
LINE
8
BLACK
6
CONTINUOUS
10
107.598
20
-146.542
11
107.693
21
-146.066
0
LINE
8
BLACK
6
CONTINUOUS
10
107.693
20
-146.066
11
107.788
21
-145.78
0
LINE
8
BLACK
6
CONTINUOUS
10
107.788
20
-145.78
11
107.883
21
-145.59
0
LINE
8
BLACK
6
CONTINUOUS
10
107.883
20
-145.59
11
108.074
21
-145.304
0
LINE
8
BLACK
6
CONTINUOUS
10
108.074
20
-145.304
11
108.169
21
-145.209
0
LINE
8
BLACK
6
CONTINUOUS
10
108.836
20
-145.685
11
108.931
21
-145.59
0
LINE
8
BLACK
6
CONTINUOUS
10
108.931
20
-145.59
11
109.121
21
-145.495
0
LINE
8
BLACK
6
CONTINUOUS
10
109.121
20
-145.495
11
109.598
21
-145.495
0
LINE
8
BLACK
6
CONTINUOUS
10
109.598
20
-145.495
11
109.788
21
-145.59
0
LINE
8
BLACK
6
CONTINUOUS
10
109.788
20
-145.59
11
109.883
21
-145.685
0
LINE
8
BLACK
6
CONTINUOUS
10
109.883
20
-145.685
11
109.979
21
-145.876
0
LINE
8
BLACK
6
CONTINUOUS
10
109.979
20
-145.876
11
109.979
21
-146.066
0
LINE
8
BLACK
6
CONTINUOUS
10
109.979
20
-146.066
11
109.883
21
-146.352
0
LINE
8
BLACK
6
CONTINUOUS
10
109.883
20
-146.352
11
108.74
21
-147.495
0
LINE
8
BLACK
6
CONTINUOUS
10
108.74
20
-147.495
11
109.979
21
-147.495
0
LINE
8
BLACK
6
CONTINUOUS
10
111.121
20
-146.352
11
110.931
21
-146.257
0
LINE
8
BLACK
6
CONTINUOUS
10
110.931
20
-146.257
11
110.836
21
-146.161
0
LINE
8
BLACK
6
CONTINUOUS
10
110.836
20
-146.161
11
110.74
21
-145.971
0
LINE
8
BLACK
6
CONTINUOUS
10
110.74
20
-145.971
11
110.74
21
-145.876
0
LINE
8
BLACK
6
CONTINUOUS
10
110.74
20
-145.876
11
110.836
21
-145.685
0
LINE
8
BLACK
6
CONTINUOUS
10
110.836
20
-145.685
11
110.931
21
-145.59
0
LINE
8
BLACK
6
CONTINUOUS
10
110.931
20
-145.59
11
111.121
21
-145.495
0
LINE
8
BLACK
6
CONTINUOUS
10
111.121
20
-145.495
11
111.502
21
-145.495
0
LINE
8
BLACK
6
CONTINUOUS
10
111.502
20
-145.495
11
111.693
21
-145.59
0
LINE
8
BLACK
6
CONTINUOUS
10
111.693
20
-145.59
11
111.788
21
-145.685
0
LINE
8
BLACK
6
CONTINUOUS
10
111.788
20
-145.685
11
111.883
21
-145.876
0
LINE
8
BLACK
6
CONTINUOUS
10
111.883
20
-145.876
11
111.883
21
-145.971
0
LINE
8
BLACK
6
CONTINUOUS
10
111.883
20
-145.971
11
111.788
21
-146.161
0
LINE
8
BLACK
6
CONTINUOUS
10
111.788
20
-146.161
11
111.693
21
-146.257
0
LINE
8
BLACK
6
CONTINUOUS
10
111.693
20
-146.257
11
111.502
21
-146.352
0
LINE
8
BLACK
6
CONTINUOUS
10
111.502
20
-146.352
11
111.121
21
-146.352
0
LINE
8
BLACK
6
CONTINUOUS
10
111.121
20
-146.352
11
110.931
21
-146.447
0
LINE
8
BLACK
6
CONTINUOUS
10
110.931
20
-146.447
11
110.836
21
-146.542
0
LINE
8
BLACK
6
CONTINUOUS
10
110.836
20
-146.542
11
110.74
21
-146.733
0
LINE
8
BLACK
6
CONTINUOUS
10
110.74
20
-146.733
11
110.74
21
-147.114
0
LINE
8
BLACK
6
CONTINUOUS
10
110.74
20
-147.114
11
110.836
21
-147.304
0
LINE
8
BLACK
6
CONTINUOUS
10
110.836
20
-147.304
11
110.931
21
-147.4
0
LINE
8
BLACK
6
CONTINUOUS
10
110.931
20
-147.4
11
111.121
21
-147.495
0
LINE
8
BLACK
6
CONTINUOUS
10
111.121
20
-147.495
11
111.502
21
-147.495
0
LINE
8
BLACK
6
CONTINUOUS
10
111.502
20
-147.495
11
111.693
21
-147.4
0
LINE
8
BLACK
6
CONTINUOUS
10
111.693
20
-147.4
11
111.788
21
-147.304
0
LINE
8
BLACK
6
CONTINUOUS
10
111.788
20
-147.304
11
111.883
21
-147.114
0
LINE
8
BLACK
6
CONTINUOUS
10
111.883
20
-147.114
11
111.883
21
-146.733
0
LINE
8
BLACK
6
CONTINUOUS
10
111.883
20
-146.733
11
111.788
21
-146.542
0
LINE
8
BLACK
6
CONTINUOUS
10
111.788
20
-146.542
11
111.693
21
-146.447
0
LINE
8
BLACK
6
CONTINUOUS
10
111.693
20
-146.447
11
111.502
21
-146.352
0
LINE
8
BLACK
6
CONTINUOUS
10
114.264
20
-147.495
11
114.264
21
-145.495
0
LINE
8
BLACK
6
CONTINUOUS
10
115.121
20
-147.495
11
115.121
21
-146.447
0
LINE
8
BLACK
6
CONTINUOUS
10
115.121
20
-146.447
11
115.026
21
-146.257
0
LINE
8
BLACK
6
CONTINUOUS
10
115.026
20
-146.257
11
114.836
21
-146.161
0
LINE
8
BLACK
6
CONTINUOUS
10
114.836
20
-146.161
11
114.55
21
-146.161
0
LINE
8
BLACK
6
CONTINUOUS
10
114.55
20
-146.161
11
114.36
21
-146.257
0
LINE
8
BLACK
6
CONTINUOUS
10
114.36
20
-146.257
11
114.264
21
-146.352
0
LINE
8
BLACK
6
CONTINUOUS
10
116.36
20
-147.495
11
116.169
21
-147.4
0
LINE
8
BLACK
6
CONTINUOUS
10
116.169
20
-147.4
11
116.074
21
-147.304
0
LINE
8
BLACK
6
CONTINUOUS
10
116.074
20
-147.304
11
115.979
21
-147.114
0
LINE
8
BLACK
6
CONTINUOUS
10
115.979
20
-147.114
11
115.979
21
-146.542
0
LINE
8
BLACK
6
CONTINUOUS
10
115.979
20
-146.542
11
116.074
21
-146.352
0
LINE
8
BLACK
6
CONTINUOUS
10
116.074
20
-146.352
11
116.169
21
-146.257
0
LINE
8
BLACK
6
CONTINUOUS
10
116.169
20
-146.257
11
116.36
21
-146.161
0
LINE
8
BLACK
6
CONTINUOUS
10
116.36
20
-146.161
11
116.645
21
-146.161
0
LINE
8
BLACK
6
CONTINUOUS
10
116.645
20
-146.161
11
116.836
21
-146.257
0
LINE
8
BLACK
6
CONTINUOUS
10
116.836
20
-146.257
11
116.931
21
-146.352
0
LINE
8
BLACK
6
CONTINUOUS
10
116.931
20
-146.352
11
117.026
21
-146.542
0
LINE
8
BLACK
6
CONTINUOUS
10
117.026
20
-146.542
11
117.026
21
-147.114
0
LINE
8
BLACK
6
CONTINUOUS
10
117.026
20
-147.114
11
116.931
21
-147.304
0
LINE
8
BLACK
6
CONTINUOUS
10
116.931
20
-147.304
11
116.836
21
-147.4
0
LINE
8
BLACK
6
CONTINUOUS
10
116.836
20
-147.4
11
116.645
21
-147.495
0
LINE
8
BLACK
6
CONTINUOUS
10
116.645
20
-147.495
11
116.36
21
-147.495
0
LINE
8
BLACK
6
CONTINUOUS
10
118.169
20
-147.495
11
117.979
21
-147.4
0
LINE
8
BLACK
6
CONTINUOUS
10
117.979
20
-147.4
11
117.883
21
-147.209
0
LINE
8
BLACK
6
CONTINUOUS
10
117.883
20
-147.209
11
117.883
21
-145.495
0
LINE
8
BLACK
6
CONTINUOUS
10
119.693
20
-147.4
11
119.502
21
-147.495
0
LINE
8
BLACK
6
CONTINUOUS
10
119.502
20
-147.495
11
119.121
21
-147.495
0
LINE
8
BLACK
6
CONTINUOUS
10
119.121
20
-147.495
11
118.931
21
-147.4
0
LINE
8
BLACK
6
CONTINUOUS
10
118.931
20
-147.4
11
118.836
21
-147.209
0
LINE
8
BLACK
6
CONTINUOUS
10
118.836
20
-147.209
11
118.836
21
-146.447
0
LINE
8
BLACK
6
CONTINUOUS
10
118.836
20
-146.447
11
118.931
21
-146.257
0
LINE
8
BLACK
6
CONTINUOUS
10
118.931
20
-146.257
11
119.121
21
-146.161
0
LINE
8
BLACK
6
CONTINUOUS
10
119.121
20
-146.161
11
119.502
21
-146.161
0
LINE
8
BLACK
6
CONTINUOUS
10
119.502
20
-146.161
11
119.693
21
-146.257
0
LINE
8
BLACK
6
CONTINUOUS
10
119.693
20
-146.257
11
119.788
21
-146.447
0
LINE
8
BLACK
6
CONTINUOUS
10
119.788
20
-146.447
11
119.788
21
-146.638
0
LINE
8
BLACK
6
CONTINUOUS
10
119.788
20
-146.638
11
118.836
21
-146.828
0
LINE
8
BLACK
6
CONTINUOUS
10
120.55
20
-147.4
11
120.74
21
-147.495
0
LINE
8
BLACK
6
CONTINUOUS
10
120.74
20
-147.495
11
121.121
21
-147.495
0
LINE
8
BLACK
6
CONTINUOUS
10
121.121
20
-147.495
11
121.312
21
-147.4
0
LINE
8
BLACK
6
CONTINUOUS
10
121.312
20
-147.4
11
121.407
21
-147.209
0
LINE
8
BLACK
6
CONTINUOUS
10
121.407
20
-147.209
11
121.407
21
-147.114
0
LINE
8
BLACK
6
CONTINUOUS
10
121.407
20
-147.114
11
121.312
21
-146.923
0
LINE
8
BLACK
6
CONTINUOUS
10
121.312
20
-146.923
11
121.121
21
-146.828
0
LINE
8
BLACK
6
CONTINUOUS
10
121.121
20
-146.828
11
120.836
21
-146.828
0
LINE
8
BLACK
6
CONTINUOUS
10
120.836
20
-146.828
11
120.645
21
-146.733
0
LINE
8
BLACK
6
CONTINUOUS
10
120.645
20
-146.733
11
120.55
21
-146.542
0
LINE
8
BLACK
6
CONTINUOUS
10
120.55
20
-146.542
11
120.55
21
-146.447
0
LINE
8
BLACK
6
CONTINUOUS
10
120.55
20
-146.447
11
120.645
21
-146.257
0
LINE
8
BLACK
6
CONTINUOUS
10
120.645
20
-146.257
11
120.836
21
-146.161
0
LINE
8
BLACK
6
CONTINUOUS
10
120.836
20
-146.161
11
121.121
21
-146.161
0
LINE
8
BLACK
6
CONTINUOUS
10
121.121
20
-146.161
11
121.312
21
-146.257
0
LINE
8
BLACK
6
CONTINUOUS
10
122.074
20
-148.257
11
122.169
21
-148.161
0
LINE
8
BLACK
6
CONTINUOUS
10
122.169
20
-148.161
11
122.36
21
-147.876
0
LINE
8
BLACK
6
CONTINUOUS
10
122.36
20
-147.876
11
122.455
21
-147.685
0
LINE
8
BLACK
6
CONTINUOUS
10
122.455
20
-147.685
11
122.55
21
-147.4
0
LINE
8
BLACK
6
CONTINUOUS
10
122.55
20
-147.4
11
122.645
21
-146.923
0
LINE
8
BLACK
6
CONTINUOUS
10
122.645
20
-146.923
11
122.645
21
-146.542
0
LINE
8
BLACK
6
CONTINUOUS
10
122.645
20
-146.542
11
122.55
21
-146.066
0
LINE
8
BLACK
6
CONTINUOUS
10
122.55
20
-146.066
11
122.455
21
-145.78
0
LINE
8
BLACK
6
CONTINUOUS
10
122.455
20
-145.78
11
122.36
21
-145.59
0
LINE
8
BLACK
6
CONTINUOUS
10
122.36
20
-145.59
11
122.169
21
-145.304
0
LINE
8
BLACK
6
CONTINUOUS
10
122.169
20
-145.304
11
122.074
21
-145.209
  0
ENDSEC
  0
EOF
