  0
SECTION
  2
HEADER
  9
$ANGBASE
  50
0.0
  9
$ANGDIR
  70
  1
  9
$MEASUREMENT
  70
0
  0
ENDSEC
  0
SECTION
  2
TABLES
  0
TABLE
  2
LTYPE
  70
4
  0
LTYPE
  5
40F
  2
CONTINUOUS
  70
0
  3
Solid line
  72
65
  73
0
  40
0.0
  0
LTYPE
  5
410
  2
DASHDOT
 70
0
  3
Dash Dot ____ _ ____ _
 72
65
 73
4
 40
2.0
 49
1.25
 49
-0.25
 49
0.25
 49
-0.25
  0
LTYPE
  5
411
  2
DASHED
 70
0
  3
Dashed __ __ __ __ __
 72
65
 73
2
 40
0.75
 49
0.5
 49
-0.25
  0
LTYPE
  5
43B
  2
DOTTED
 70
0
  3
Dotted .  .  .  .
 72
65
 73
2
 40
0.2
 49
0.0
 49
-0.2
  0
ENDTAB
  0
TABLE
  2
STYLE
  70
4
  0
STYLE
  2
KICAD
  70
0
  40
0
  41
1
  42
1
  50
0
  71
0
  3
isocp.shx
  0
STYLE
  2
KICADB
  70
0
  40
0
  41
1
  42
1
  50
0
  71
0
  3
isocp.shx
  0
STYLE
  2
KICADI
  70
0
  40
0
  41
1
  42
1
  50
15
  71
0
  3
isocp.shx
  0
STYLE
  2
KICADBI
  70
0
  40
0
  41
1
  42
1
  50
15
  71
0
  3
isocp.shx
  0
ENDTAB
  0
TABLE
  2
LAYER
  70
30
  0
LAYER
  2
BLACK
  70
0
  62
7
  6
CONTINUOUS
  0
LAYER
  2
GRAY1
  70
0
  62
251
  6
CONTINUOUS
  0
LAYER
  2
GRAY2
  70
0
  62
8
  6
CONTINUOUS
  0
LAYER
  2
GRAY3
  70
0
  62
9
  6
CONTINUOUS
  0
LAYER
  2
WHITE
  70
0
  62
7
  6
CONTINUOUS
  0
LAYER
  2
LYELLOW
  70
0
  62
51
  6
CONTINUOUS
  0
LAYER
  2
BLUE1
  70
0
  62
178
  6
CONTINUOUS
  0
LAYER
  2
GREEN1
  70
0
  62
98
  6
CONTINUOUS
  0
LAYER
  2
CYAN1
  70
0
  62
138
  6
CONTINUOUS
  0
LAYER
  2
RED1
  70
0
  62
18
  6
CONTINUOUS
  0
LAYER
  2
MAGENTA1
  70
0
  62
228
  6
CONTINUOUS
  0
LAYER
  2
BROWN1
  70
0
  62
58
  6
CONTINUOUS
  0
LAYER
  2
BLUE2
  70
0
  62
5
  6
CONTINUOUS
  0
LAYER
  2
GREEN2
  70
0
  62
3
  6
CONTINUOUS
  0
LAYER
  2
CYAN2
  70
0
  62
4
  6
CONTINUOUS
  0
LAYER
  2
RED2
  70
0
  62
1
  6
CONTINUOUS
  0
LAYER
  2
MAGENTA2
  70
0
  62
6
  6
CONTINUOUS
  0
LAYER
  2
BROWN2
  70
0
  62
54
  6
CONTINUOUS
  0
LAYER
  2
BLUE3
  70
0
  62
171
  6
CONTINUOUS
  0
LAYER
  2
GREEN3
  70
0
  62
91
  6
CONTINUOUS
  0
LAYER
  2
CYAN3
  70
0
  62
131
  6
CONTINUOUS
  0
LAYER
  2
RED3
  70
0
  62
11
  6
CONTINUOUS
  0
LAYER
  2
MAGENTA3
  70
0
  62
221
  6
CONTINUOUS
  0
LAYER
  2
YELLOW3
  70
0
  62
2
  6
CONTINUOUS
  0
LAYER
  2
BLUE4
  70
0
  62
5
  6
CONTINUOUS
  0
LAYER
  2
GREEN4
  70
0
  62
3
  6
CONTINUOUS
  0
LAYER
  2
CYAN4
  70
0
  62
4
  6
CONTINUOUS
  0
LAYER
  2
RED4
  70
0
  62
1
  6
CONTINUOUS
  0
LAYER
  2
MAGENTA4
  70
0
  62
6
  6
CONTINUOUS
  0
LAYER
  2
YELLOW4
  70
0
  62
2
  6
CONTINUOUS
  0
ENDTAB
  0
ENDSEC
  0
SECTION
  2
ENTITIES
0
LINE
8
BLACK
6
CONTINUOUS
10
146.051
20
-39.345
11
146.051
21
-39.345
0
LINE
8
BLACK
6
CONTINUOUS
10
146.051
20
-39.345
11
146.055
21
-39.3454
0
LINE
8
BLACK
6
CONTINUOUS
10
146.055
20
-39.3454
11
146.06
21
-39.3468
0
LINE
8
BLACK
6
CONTINUOUS
10
146.06
20
-39.3468
11
146.064
21
-39.3491
0
LINE
8
BLACK
6
CONTINUOUS
10
146.064
20
-39.3491
11
146.068
21
-39.3522
0
LINE
8
BLACK
6
CONTINUOUS
10
146.068
20
-39.3522
11
146.071
21
-39.356
0
LINE
8
BLACK
6
CONTINUOUS
10
146.071
20
-39.356
11
146.073
21
-39.3604
0
LINE
8
BLACK
6
CONTINUOUS
10
146.073
20
-39.3604
11
146.075
21
-39.3651
0
LINE
8
BLACK
6
CONTINUOUS
10
146.075
20
-39.3651
11
146.075
21
-39.37
0
LINE
8
BLACK
6
CONTINUOUS
10
146.075
20
-39.37
11
146.075
21
-39.3712
0
LINE
8
BLACK
6
CONTINUOUS
10
146.075
20
-39.3712
11
146.075
21
-90.1688
0
LINE
8
BLACK
6
CONTINUOUS
10
146.075
20
-90.1688
11
146.075
21
-90.17
0
LINE
8
BLACK
6
CONTINUOUS
10
146.075
20
-90.17
11
146.075
21
-90.1712
0
LINE
8
BLACK
6
CONTINUOUS
10
146.075
20
-90.1712
11
146.075
21
-90.1712
0
LINE
8
BLACK
6
CONTINUOUS
10
146.075
20
-90.1712
11
146.075
21
-90.1749
0
LINE
8
BLACK
6
CONTINUOUS
10
146.075
20
-90.1749
11
146.073
21
-90.1796
0
LINE
8
BLACK
6
CONTINUOUS
10
146.073
20
-90.1796
11
146.071
21
-90.184
0
LINE
8
BLACK
6
CONTINUOUS
10
146.071
20
-90.184
11
146.068
21
-90.1878
0
LINE
8
BLACK
6
CONTINUOUS
10
146.068
20
-90.1878
11
146.064
21
-90.1909
0
LINE
8
BLACK
6
CONTINUOUS
10
146.064
20
-90.1909
11
146.06
21
-90.1932
0
LINE
8
BLACK
6
CONTINUOUS
10
146.06
20
-90.1932
11
146.055
21
-90.1946
0
LINE
8
BLACK
6
CONTINUOUS
10
146.055
20
-90.1946
11
146.05
21
-90.1951
0
LINE
8
BLACK
6
CONTINUOUS
10
146.05
20
-90.1951
11
146.049
21
-90.195
0
LINE
8
BLACK
6
CONTINUOUS
10
146.049
20
-90.195
11
46.9912
21
-90.195
0
LINE
8
BLACK
6
CONTINUOUS
10
46.9912
20
-90.195
11
46.99
21
-90.1951
0
LINE
8
BLACK
6
CONTINUOUS
10
46.99
20
-90.1951
11
46.9851
21
-90.1946
0
LINE
8
BLACK
6
CONTINUOUS
10
46.9851
20
-90.1946
11
46.9804
21
-90.1932
0
LINE
8
BLACK
6
CONTINUOUS
10
46.9804
20
-90.1932
11
46.976
21
-90.1909
0
LINE
8
BLACK
6
CONTINUOUS
10
46.976
20
-90.1909
11
46.9722
21
-90.1878
0
LINE
8
BLACK
6
CONTINUOUS
10
46.9722
20
-90.1878
11
46.9691
21
-90.184
0
LINE
8
BLACK
6
CONTINUOUS
10
46.9691
20
-90.184
11
46.9668
21
-90.1796
0
LINE
8
BLACK
6
CONTINUOUS
10
46.9668
20
-90.1796
11
46.9654
21
-90.1749
0
LINE
8
BLACK
6
CONTINUOUS
10
46.9654
20
-90.1749
11
46.9649
21
-90.17
0
LINE
8
BLACK
6
CONTINUOUS
10
46.9649
20
-90.17
11
46.965
21
-90.1688
0
LINE
8
BLACK
6
CONTINUOUS
10
46.965
20
-90.1688
11
46.965
21
-39.3712
0
LINE
8
BLACK
6
CONTINUOUS
10
46.965
20
-39.3712
11
46.9649
21
-39.37
0
LINE
8
BLACK
6
CONTINUOUS
10
46.9649
20
-39.37
11
46.9654
21
-39.3651
0
LINE
8
BLACK
6
CONTINUOUS
10
46.9654
20
-39.3651
11
46.9668
21
-39.3604
0
LINE
8
BLACK
6
CONTINUOUS
10
46.9668
20
-39.3604
11
46.9691
21
-39.356
0
LINE
8
BLACK
6
CONTINUOUS
10
46.9691
20
-39.356
11
46.9722
21
-39.3522
0
LINE
8
BLACK
6
CONTINUOUS
10
46.9722
20
-39.3522
11
46.976
21
-39.3491
0
LINE
8
BLACK
6
CONTINUOUS
10
46.976
20
-39.3491
11
46.9804
21
-39.3468
0
LINE
8
BLACK
6
CONTINUOUS
10
46.9804
20
-39.3468
11
46.9851
21
-39.3454
0
LINE
8
BLACK
6
CONTINUOUS
10
46.9851
20
-39.3454
11
46.9888
21
-39.345
0
LINE
8
BLACK
6
CONTINUOUS
10
46.9888
20
-39.345
11
46.9888
21
-39.345
0
LINE
8
BLACK
6
CONTINUOUS
10
46.9888
20
-39.345
11
46.99
21
-39.3449
0
LINE
8
BLACK
6
CONTINUOUS
10
46.99
20
-39.3449
11
46.9912
21
-39.345
0
LINE
8
BLACK
6
CONTINUOUS
10
46.9912
20
-39.345
11
146.049
21
-39.345
0
LINE
8
BLACK
6
CONTINUOUS
10
146.049
20
-39.345
11
146.05
21
-39.3449
0
LINE
8
BLACK
6
CONTINUOUS
10
146.05
20
-39.3449
11
146.051
21
-39.345
0
LINE
8
BLACK
6
CONTINUOUS
10
47.015
20
-39.395
11
47.015
21
-90.145
0
LINE
8
BLACK
6
CONTINUOUS
10
47.015
20
-90.145
11
146.025
21
-90.145
0
LINE
8
BLACK
6
CONTINUOUS
10
146.025
20
-90.145
11
146.025
21
-39.395
0
LINE
8
BLACK
6
CONTINUOUS
10
146.025
20
-39.395
11
47.015
21
-39.395
  0
ENDSEC
  0
EOF
