  0
SECTION
  2
HEADER
  9
$ANGBASE
  50
0.0
  9
$ANGDIR
  70
1
  9
$MEASUREMENT
  70
1
  0
ENDSEC
  0
SECTION
  2
TABLES
  0
TABLE
  2
LTYPE
  70
4
  0
LTYPE
  5
40F
  2
CONTINUOUS
  70
0
  3
Solid line
  72
65
  73
0
  40
0.0
  0
LTYPE
  5
410
  2
DASHDOT
 70
0
  3
Dash Dot ____ _ ____ _
 72
65
 73
4
 40
2.0
 49
1.25
 49
-0.25
 49
0.25
 49
-0.25
  0
LTYPE
  5
411
  2
DASHED
 70
0
  3
Dashed __ __ __ __ __
 72
65
 73
2
 40
0.75
 49
0.5
 49
-0.25
  0
LTYPE
  5
43B
  2
DOTTED
 70
0
  3
Dotted .  .  .  .
 72
65
 73
2
 40
0.2
 49
0.0
 49
-0.2
  0
ENDTAB
  0
TABLE
  2
STYLE
  70
4
  0
STYLE
  2
KICAD
  70
0
  40
0
  41
1
  42
1
  50
0
  71
0
  3
isocp.shx
  0
STYLE
  2
KICADB
  70
0
  40
0
  41
1
  42
1
  50
0
  71
0
  3
isocp.shx
  0
STYLE
  2
KICADI
  70
0
  40
0
  41
1
  42
1
  50
15
  71
0
  3
isocp.shx
  0
STYLE
  2
KICADBI
  70
0
  40
0
  41
1
  42
1
  50
15
  71
0
  3
isocp.shx
  0
ENDTAB
  0
TABLE
  2
LAYER
  70
1
  0
LAYER
  2
BLACK
  70
0
  62
7
  6
CONTINUOUS
  0
ENDTAB
  0
ENDSEC
  0
SECTION
  2
ENTITIES
0
LINE
8
BLACK
6
CONTINUOUS
10
171.958
20
-106.934
11
171.704
21
-55.372
0
LINE
8
BLACK
6
CONTINUOUS
10
101.092
20
-106.934
11
171.958
21
-106.934
0
LINE
8
BLACK
6
CONTINUOUS
10
101.092
20
-55.372
11
101.092
21
-106.934
0
LINE
8
BLACK
6
CONTINUOUS
10
171.704
20
-55.372
11
101.092
21
-55.372
0
LINE
8
BLACK
6
CONTINUOUS
10
111.741
20
-97.136
11
112.541
21
-97.936
0
LINE
8
BLACK
6
CONTINUOUS
10
112.541
20
-97.136
11
111.741
21
-97.936
0
LINE
8
BLACK
6
CONTINUOUS
10
111.741
20
-104.756
11
112.541
21
-105.556
0
LINE
8
BLACK
6
CONTINUOUS
10
112.541
20
-104.756
11
111.741
21
-105.556
0
LINE
8
BLACK
6
CONTINUOUS
10
111.17
20
-77.07
11
111.97
21
-77.87
0
LINE
8
BLACK
6
CONTINUOUS
10
111.97
20
-77.07
11
111.17
21
-77.87
0
LINE
8
BLACK
6
CONTINUOUS
10
111.17
20
-84.69
11
111.97
21
-85.49
0
LINE
8
BLACK
6
CONTINUOUS
10
111.97
20
-84.69
11
111.17
21
-85.49
0
CIRCLE
8
BLACK
10
103.188
20
-78.6765
40
0.45
0
CIRCLE
8
BLACK
10
105.728
20
-78.6765
40
0.45
0
CIRCLE
8
BLACK
10
103.188
20
-83.5025
40
0.45
0
CIRCLE
8
BLACK
10
105.728
20
-83.5025
40
0.45
0
LINE
8
BLACK
6
CONTINUOUS
10
105.379
20
-90.686
11
105.379
21
-91.686
0
LINE
8
BLACK
6
CONTINUOUS
10
104.879
20
-91.186
11
105.879
21
-91.186
0
LINE
8
BLACK
6
CONTINUOUS
10
104.879
20
-90.186
11
104.879
21
-92.186
0
LINE
8
BLACK
6
CONTINUOUS
10
105.879
20
-90.186
11
105.879
21
-92.186
0
ARC
8
BLACK
10
105.379
20
-92.186
40
0.5
50
180
51
360
0
ARC
8
BLACK
10
105.379
20
-90.186
40
0.5
50
0
51
180
0
LINE
8
BLACK
6
CONTINUOUS
10
108.379
20
-95.386
11
108.379
21
-96.386
0
LINE
8
BLACK
6
CONTINUOUS
10
107.879
20
-95.886
11
108.879
21
-95.886
0
LINE
8
BLACK
6
CONTINUOUS
10
107.379
20
-96.386
11
109.379
21
-96.386
0
LINE
8
BLACK
6
CONTINUOUS
10
107.379
20
-95.386
11
109.379
21
-95.386
0
ARC
8
BLACK
10
109.379
20
-95.886
40
0.5
50
270
51
450
0
ARC
8
BLACK
10
107.379
20
-95.886
40
0.5
50
90
51
270
0
LINE
8
BLACK
6
CONTINUOUS
10
111.379
20
-90.686
11
111.379
21
-91.686
0
LINE
8
BLACK
6
CONTINUOUS
10
110.879
20
-91.186
11
111.879
21
-91.186
0
LINE
8
BLACK
6
CONTINUOUS
10
110.879
20
-90.186
11
110.879
21
-92.186
0
LINE
8
BLACK
6
CONTINUOUS
10
111.879
20
-90.186
11
111.879
21
-92.186
0
ARC
8
BLACK
10
111.379
20
-92.186
40
0.5
50
180
51
360
0
ARC
8
BLACK
10
111.379
20
-90.186
40
0.5
50
0
51
180
0
LINE
8
BLACK
6
CONTINUOUS
10
105.442
20
-68.9055
11
105.442
21
-69.9055
0
LINE
8
BLACK
6
CONTINUOUS
10
104.942
20
-69.4055
11
105.942
21
-69.4055
0
LINE
8
BLACK
6
CONTINUOUS
10
104.942
20
-68.4055
11
104.942
21
-70.4055
0
LINE
8
BLACK
6
CONTINUOUS
10
105.942
20
-68.4055
11
105.942
21
-70.4055
0
ARC
8
BLACK
10
105.442
20
-70.4055
40
0.5
50
180
51
360
0
ARC
8
BLACK
10
105.442
20
-68.4055
40
0.5
50
0
51
180
0
LINE
8
BLACK
6
CONTINUOUS
10
108.442
20
-73.6055
11
108.442
21
-74.6055
0
LINE
8
BLACK
6
CONTINUOUS
10
107.942
20
-74.1055
11
108.942
21
-74.1055
0
LINE
8
BLACK
6
CONTINUOUS
10
107.442
20
-74.6055
11
109.442
21
-74.6055
0
LINE
8
BLACK
6
CONTINUOUS
10
107.442
20
-73.6055
11
109.442
21
-73.6055
0
ARC
8
BLACK
10
109.442
20
-74.1055
40
0.5
50
270
51
450
0
ARC
8
BLACK
10
107.442
20
-74.1055
40
0.5
50
90
51
270
0
LINE
8
BLACK
6
CONTINUOUS
10
111.442
20
-68.9055
11
111.442
21
-69.9055
0
LINE
8
BLACK
6
CONTINUOUS
10
110.942
20
-69.4055
11
111.942
21
-69.4055
0
LINE
8
BLACK
6
CONTINUOUS
10
110.942
20
-68.4055
11
110.942
21
-70.4055
0
LINE
8
BLACK
6
CONTINUOUS
10
111.942
20
-68.4055
11
111.942
21
-70.4055
0
ARC
8
BLACK
10
111.442
20
-70.4055
40
0.5
50
180
51
360
0
ARC
8
BLACK
10
111.442
20
-68.4055
40
0.5
50
0
51
180
0
LINE
8
BLACK
6
CONTINUOUS
10
160.518
20
-101.624
11
160.518
21
-100.776
0
LINE
8
BLACK
6
CONTINUOUS
10
160.518
20
-100.776
11
159.67
21
-100.776
0
LINE
8
BLACK
6
CONTINUOUS
10
159.67
20
-100.776
11
159.67
21
-101.624
0
LINE
8
BLACK
6
CONTINUOUS
10
159.67
20
-101.624
11
160.518
21
-101.624
0
LINE
8
BLACK
6
CONTINUOUS
10
163.058
20
-101.624
11
163.058
21
-100.776
0
LINE
8
BLACK
6
CONTINUOUS
10
163.058
20
-100.776
11
162.21
21
-100.776
0
LINE
8
BLACK
6
CONTINUOUS
10
162.21
20
-100.776
11
162.21
21
-101.624
0
LINE
8
BLACK
6
CONTINUOUS
10
162.21
20
-101.624
11
163.058
21
-101.624
0
LINE
8
BLACK
6
CONTINUOUS
10
143.787
20
-95.1653
11
143.787
21
-94.3167
0
LINE
8
BLACK
6
CONTINUOUS
10
143.787
20
-94.3167
11
142.939
21
-94.3167
0
LINE
8
BLACK
6
CONTINUOUS
10
142.939
20
-94.3167
11
142.939
21
-95.1653
0
LINE
8
BLACK
6
CONTINUOUS
10
142.939
20
-95.1653
11
143.787
21
-95.1653
0
LINE
8
BLACK
6
CONTINUOUS
10
143.787
20
-97.7053
11
143.787
21
-96.8567
0
LINE
8
BLACK
6
CONTINUOUS
10
143.787
20
-96.8567
11
142.939
21
-96.8567
0
LINE
8
BLACK
6
CONTINUOUS
10
142.939
20
-96.8567
11
142.939
21
-97.7053
0
LINE
8
BLACK
6
CONTINUOUS
10
142.939
20
-97.7053
11
143.787
21
-97.7053
0
LINE
8
BLACK
6
CONTINUOUS
10
126.694
20
-95.1653
11
126.694
21
-94.3167
0
LINE
8
BLACK
6
CONTINUOUS
10
126.694
20
-94.3167
11
125.846
21
-94.3167
0
LINE
8
BLACK
6
CONTINUOUS
10
125.846
20
-94.3167
11
125.846
21
-95.1653
0
LINE
8
BLACK
6
CONTINUOUS
10
125.846
20
-95.1653
11
126.694
21
-95.1653
0
LINE
8
BLACK
6
CONTINUOUS
10
126.694
20
-97.7053
11
126.694
21
-96.8567
0
LINE
8
BLACK
6
CONTINUOUS
10
126.694
20
-96.8567
11
125.846
21
-96.8567
0
LINE
8
BLACK
6
CONTINUOUS
10
125.846
20
-96.8567
11
125.846
21
-97.7053
0
LINE
8
BLACK
6
CONTINUOUS
10
125.846
20
-97.7053
11
126.694
21
-97.7053
0
LINE
8
BLACK
6
CONTINUOUS
10
135.24
20
-101.975
11
135.24
21
-101.127
0
LINE
8
BLACK
6
CONTINUOUS
10
135.24
20
-101.127
11
134.392
21
-101.127
0
LINE
8
BLACK
6
CONTINUOUS
10
134.392
20
-101.127
11
134.392
21
-101.975
0
LINE
8
BLACK
6
CONTINUOUS
10
134.392
20
-101.975
11
135.24
21
-101.975
0
LINE
8
BLACK
6
CONTINUOUS
10
135.24
20
-104.515
11
135.24
21
-103.667
0
LINE
8
BLACK
6
CONTINUOUS
10
135.24
20
-103.667
11
134.392
21
-103.667
0
LINE
8
BLACK
6
CONTINUOUS
10
134.392
20
-103.667
11
134.392
21
-104.515
0
LINE
8
BLACK
6
CONTINUOUS
10
134.392
20
-104.515
11
135.24
21
-104.515
0
LINE
8
BLACK
6
CONTINUOUS
10
126.186
20
-59.0873
11
126.186
21
-58.2387
0
LINE
8
BLACK
6
CONTINUOUS
10
126.186
20
-58.2387
11
125.338
21
-58.2387
0
LINE
8
BLACK
6
CONTINUOUS
10
125.338
20
-58.2387
11
125.338
21
-59.0873
0
LINE
8
BLACK
6
CONTINUOUS
10
125.338
20
-59.0873
11
126.186
21
-59.0873
0
LINE
8
BLACK
6
CONTINUOUS
10
126.186
20
-61.6273
11
126.186
21
-60.7787
0
LINE
8
BLACK
6
CONTINUOUS
10
126.186
20
-60.7787
11
125.338
21
-60.7787
0
LINE
8
BLACK
6
CONTINUOUS
10
125.338
20
-60.7787
11
125.338
21
-61.6273
0
LINE
8
BLACK
6
CONTINUOUS
10
125.338
20
-61.6273
11
126.186
21
-61.6273
0
LINE
8
BLACK
6
CONTINUOUS
10
126.694
20
-88.3553
11
126.694
21
-87.5067
0
LINE
8
BLACK
6
CONTINUOUS
10
126.694
20
-87.5067
11
125.846
21
-87.5067
0
LINE
8
BLACK
6
CONTINUOUS
10
125.846
20
-87.5067
11
125.846
21
-88.3553
0
LINE
8
BLACK
6
CONTINUOUS
10
125.846
20
-88.3553
11
126.694
21
-88.3553
0
LINE
8
BLACK
6
CONTINUOUS
10
126.694
20
-90.8953
11
126.694
21
-90.0467
0
LINE
8
BLACK
6
CONTINUOUS
10
126.694
20
-90.0467
11
125.846
21
-90.0467
0
LINE
8
BLACK
6
CONTINUOUS
10
125.846
20
-90.0467
11
125.846
21
-90.8953
0
LINE
8
BLACK
6
CONTINUOUS
10
125.846
20
-90.8953
11
126.694
21
-90.8953
0
LINE
8
BLACK
6
CONTINUOUS
10
134.732
20
-72.6073
11
134.732
21
-71.7587
0
LINE
8
BLACK
6
CONTINUOUS
10
134.732
20
-71.7587
11
133.884
21
-71.7587
0
LINE
8
BLACK
6
CONTINUOUS
10
133.884
20
-71.7587
11
133.884
21
-72.6073
0
LINE
8
BLACK
6
CONTINUOUS
10
133.884
20
-72.6073
11
134.732
21
-72.6073
0
LINE
8
BLACK
6
CONTINUOUS
10
134.732
20
-75.1473
11
134.732
21
-74.2987
0
LINE
8
BLACK
6
CONTINUOUS
10
134.732
20
-74.2987
11
133.884
21
-74.2987
0
LINE
8
BLACK
6
CONTINUOUS
10
133.884
20
-74.2987
11
133.884
21
-75.1473
0
LINE
8
BLACK
6
CONTINUOUS
10
133.884
20
-75.1473
11
134.732
21
-75.1473
0
LINE
8
BLACK
6
CONTINUOUS
10
117.639
20
-65.8473
11
117.639
21
-64.9987
0
LINE
8
BLACK
6
CONTINUOUS
10
117.639
20
-64.9987
11
116.791
21
-64.9987
0
LINE
8
BLACK
6
CONTINUOUS
10
116.791
20
-64.9987
11
116.791
21
-65.8473
0
LINE
8
BLACK
6
CONTINUOUS
10
116.791
20
-65.8473
11
117.639
21
-65.8473
0
LINE
8
BLACK
6
CONTINUOUS
10
117.639
20
-68.3873
11
117.639
21
-67.5387
0
LINE
8
BLACK
6
CONTINUOUS
10
117.639
20
-67.5387
11
116.791
21
-67.5387
0
LINE
8
BLACK
6
CONTINUOUS
10
116.791
20
-67.5387
11
116.791
21
-68.3873
0
LINE
8
BLACK
6
CONTINUOUS
10
116.791
20
-68.3873
11
117.639
21
-68.3873
0
LINE
8
BLACK
6
CONTINUOUS
10
167.112
20
-77.2593
11
167.112
21
-76.4107
0
LINE
8
BLACK
6
CONTINUOUS
10
167.112
20
-76.4107
11
166.264
21
-76.4107
0
LINE
8
BLACK
6
CONTINUOUS
10
166.264
20
-76.4107
11
166.264
21
-77.2593
0
LINE
8
BLACK
6
CONTINUOUS
10
166.264
20
-77.2593
11
167.112
21
-77.2593
0
LINE
8
BLACK
6
CONTINUOUS
10
169.652
20
-77.2593
11
169.652
21
-76.4107
0
LINE
8
BLACK
6
CONTINUOUS
10
169.652
20
-76.4107
11
168.804
21
-76.4107
0
LINE
8
BLACK
6
CONTINUOUS
10
168.804
20
-76.4107
11
168.804
21
-77.2593
0
LINE
8
BLACK
6
CONTINUOUS
10
168.804
20
-77.2593
11
169.652
21
-77.2593
0
LINE
8
BLACK
6
CONTINUOUS
10
126.186
20
-72.6073
11
126.186
21
-71.7587
0
LINE
8
BLACK
6
CONTINUOUS
10
126.186
20
-71.7587
11
125.338
21
-71.7587
0
LINE
8
BLACK
6
CONTINUOUS
10
125.338
20
-71.7587
11
125.338
21
-72.6073
0
LINE
8
BLACK
6
CONTINUOUS
10
125.338
20
-72.6073
11
126.186
21
-72.6073
0
LINE
8
BLACK
6
CONTINUOUS
10
126.186
20
-75.1473
11
126.186
21
-74.2987
0
LINE
8
BLACK
6
CONTINUOUS
10
126.186
20
-74.2987
11
125.338
21
-74.2987
0
LINE
8
BLACK
6
CONTINUOUS
10
125.338
20
-74.2987
11
125.338
21
-75.1473
0
LINE
8
BLACK
6
CONTINUOUS
10
125.338
20
-75.1473
11
126.186
21
-75.1473
0
LINE
8
BLACK
6
CONTINUOUS
10
167.212
20
-69.0483
11
167.212
21
-68.1997
0
LINE
8
BLACK
6
CONTINUOUS
10
167.212
20
-68.1997
11
166.364
21
-68.1997
0
LINE
8
BLACK
6
CONTINUOUS
10
166.364
20
-68.1997
11
166.364
21
-69.0483
0
LINE
8
BLACK
6
CONTINUOUS
10
166.364
20
-69.0483
11
167.212
21
-69.0483
0
LINE
8
BLACK
6
CONTINUOUS
10
169.752
20
-69.0483
11
169.752
21
-68.1997
0
LINE
8
BLACK
6
CONTINUOUS
10
169.752
20
-68.1997
11
168.904
21
-68.1997
0
LINE
8
BLACK
6
CONTINUOUS
10
168.904
20
-68.1997
11
168.904
21
-69.0483
0
LINE
8
BLACK
6
CONTINUOUS
10
168.904
20
-69.0483
11
169.752
21
-69.0483
0
LINE
8
BLACK
6
CONTINUOUS
10
143.787
20
-101.975
11
143.787
21
-101.127
0
LINE
8
BLACK
6
CONTINUOUS
10
143.787
20
-101.127
11
142.939
21
-101.127
0
LINE
8
BLACK
6
CONTINUOUS
10
142.939
20
-101.127
11
142.939
21
-101.975
0
LINE
8
BLACK
6
CONTINUOUS
10
142.939
20
-101.975
11
143.787
21
-101.975
0
LINE
8
BLACK
6
CONTINUOUS
10
143.787
20
-104.515
11
143.787
21
-103.667
0
LINE
8
BLACK
6
CONTINUOUS
10
143.787
20
-103.667
11
142.939
21
-103.667
0
LINE
8
BLACK
6
CONTINUOUS
10
142.939
20
-103.667
11
142.939
21
-104.515
0
LINE
8
BLACK
6
CONTINUOUS
10
142.939
20
-104.515
11
143.787
21
-104.515
0
LINE
8
BLACK
6
CONTINUOUS
10
143.279
20
-59.0873
11
143.279
21
-58.2387
0
LINE
8
BLACK
6
CONTINUOUS
10
143.279
20
-58.2387
11
142.431
21
-58.2387
0
LINE
8
BLACK
6
CONTINUOUS
10
142.431
20
-58.2387
11
142.431
21
-59.0873
0
LINE
8
BLACK
6
CONTINUOUS
10
142.431
20
-59.0873
11
143.279
21
-59.0873
0
LINE
8
BLACK
6
CONTINUOUS
10
143.279
20
-61.6273
11
143.279
21
-60.7787
0
LINE
8
BLACK
6
CONTINUOUS
10
143.279
20
-60.7787
11
142.431
21
-60.7787
0
LINE
8
BLACK
6
CONTINUOUS
10
142.431
20
-60.7787
11
142.431
21
-61.6273
0
LINE
8
BLACK
6
CONTINUOUS
10
142.431
20
-61.6273
11
143.279
21
-61.6273
0
LINE
8
BLACK
6
CONTINUOUS
10
118.147
20
-95.1653
11
118.147
21
-94.3167
0
LINE
8
BLACK
6
CONTINUOUS
10
118.147
20
-94.3167
11
117.299
21
-94.3167
0
LINE
8
BLACK
6
CONTINUOUS
10
117.299
20
-94.3167
11
117.299
21
-95.1653
0
LINE
8
BLACK
6
CONTINUOUS
10
117.299
20
-95.1653
11
118.147
21
-95.1653
0
LINE
8
BLACK
6
CONTINUOUS
10
118.147
20
-97.7053
11
118.147
21
-96.8567
0
LINE
8
BLACK
6
CONTINUOUS
10
118.147
20
-96.8567
11
117.299
21
-96.8567
0
LINE
8
BLACK
6
CONTINUOUS
10
117.299
20
-96.8567
11
117.299
21
-97.7053
0
LINE
8
BLACK
6
CONTINUOUS
10
117.299
20
-97.7053
11
118.147
21
-97.7053
0
LINE
8
BLACK
6
CONTINUOUS
10
126.186
20
-65.8473
11
126.186
21
-64.9987
0
LINE
8
BLACK
6
CONTINUOUS
10
126.186
20
-64.9987
11
125.338
21
-64.9987
0
LINE
8
BLACK
6
CONTINUOUS
10
125.338
20
-64.9987
11
125.338
21
-65.8473
0
LINE
8
BLACK
6
CONTINUOUS
10
125.338
20
-65.8473
11
126.186
21
-65.8473
0
LINE
8
BLACK
6
CONTINUOUS
10
126.186
20
-68.3873
11
126.186
21
-67.5387
0
LINE
8
BLACK
6
CONTINUOUS
10
126.186
20
-67.5387
11
125.338
21
-67.5387
0
LINE
8
BLACK
6
CONTINUOUS
10
125.338
20
-67.5387
11
125.338
21
-68.3873
0
LINE
8
BLACK
6
CONTINUOUS
10
125.338
20
-68.3873
11
126.186
21
-68.3873
0
LINE
8
BLACK
6
CONTINUOUS
10
160.518
20
-93.4803
11
160.518
21
-92.6317
0
LINE
8
BLACK
6
CONTINUOUS
10
160.518
20
-92.6317
11
159.67
21
-92.6317
0
LINE
8
BLACK
6
CONTINUOUS
10
159.67
20
-92.6317
11
159.67
21
-93.4803
0
LINE
8
BLACK
6
CONTINUOUS
10
159.67
20
-93.4803
11
160.518
21
-93.4803
0
LINE
8
BLACK
6
CONTINUOUS
10
163.058
20
-93.4803
11
163.058
21
-92.6317
0
LINE
8
BLACK
6
CONTINUOUS
10
163.058
20
-92.6317
11
162.21
21
-92.6317
0
LINE
8
BLACK
6
CONTINUOUS
10
162.21
20
-92.6317
11
162.21
21
-93.4803
0
LINE
8
BLACK
6
CONTINUOUS
10
162.21
20
-93.4803
11
163.058
21
-93.4803
0
LINE
8
BLACK
6
CONTINUOUS
10
153.824
20
-60.9043
11
153.824
21
-60.0557
0
LINE
8
BLACK
6
CONTINUOUS
10
153.824
20
-60.0557
11
152.976
21
-60.0557
0
LINE
8
BLACK
6
CONTINUOUS
10
152.976
20
-60.0557
11
152.976
21
-60.9043
0
LINE
8
BLACK
6
CONTINUOUS
10
152.976
20
-60.9043
11
153.824
21
-60.9043
0
LINE
8
BLACK
6
CONTINUOUS
10
156.364
20
-60.9043
11
156.364
21
-60.0557
0
LINE
8
BLACK
6
CONTINUOUS
10
156.364
20
-60.0557
11
155.516
21
-60.0557
0
LINE
8
BLACK
6
CONTINUOUS
10
155.516
20
-60.0557
11
155.516
21
-60.9043
0
LINE
8
BLACK
6
CONTINUOUS
10
155.516
20
-60.9043
11
156.364
21
-60.9043
0
LINE
8
BLACK
6
CONTINUOUS
10
158.904
20
-60.9043
11
158.904
21
-60.0557
0
LINE
8
BLACK
6
CONTINUOUS
10
158.904
20
-60.0557
11
158.056
21
-60.0557
0
LINE
8
BLACK
6
CONTINUOUS
10
158.056
20
-60.0557
11
158.056
21
-60.9043
0
LINE
8
BLACK
6
CONTINUOUS
10
158.056
20
-60.9043
11
158.904
21
-60.9043
0
LINE
8
BLACK
6
CONTINUOUS
10
161.444
20
-60.9043
11
161.444
21
-60.0557
0
LINE
8
BLACK
6
CONTINUOUS
10
161.444
20
-60.0557
11
160.596
21
-60.0557
0
LINE
8
BLACK
6
CONTINUOUS
10
160.596
20
-60.0557
11
160.596
21
-60.9043
0
LINE
8
BLACK
6
CONTINUOUS
10
160.596
20
-60.9043
11
161.444
21
-60.9043
0
LINE
8
BLACK
6
CONTINUOUS
10
153.824
20
-101.624
11
153.824
21
-100.776
0
LINE
8
BLACK
6
CONTINUOUS
10
153.824
20
-100.776
11
152.976
21
-100.776
0
LINE
8
BLACK
6
CONTINUOUS
10
152.976
20
-100.776
11
152.976
21
-101.624
0
LINE
8
BLACK
6
CONTINUOUS
10
152.976
20
-101.624
11
153.824
21
-101.624
0
LINE
8
BLACK
6
CONTINUOUS
10
156.364
20
-101.624
11
156.364
21
-100.776
0
LINE
8
BLACK
6
CONTINUOUS
10
156.364
20
-100.776
11
155.516
21
-100.776
0
LINE
8
BLACK
6
CONTINUOUS
10
155.516
20
-100.776
11
155.516
21
-101.624
0
LINE
8
BLACK
6
CONTINUOUS
10
155.516
20
-101.624
11
156.364
21
-101.624
0
LINE
8
BLACK
6
CONTINUOUS
10
160.508
20
-85.3238
11
160.508
21
-84.4752
0
LINE
8
BLACK
6
CONTINUOUS
10
160.508
20
-84.4752
11
159.66
21
-84.4752
0
LINE
8
BLACK
6
CONTINUOUS
10
159.66
20
-84.4752
11
159.66
21
-85.3238
0
LINE
8
BLACK
6
CONTINUOUS
10
159.66
20
-85.3238
11
160.508
21
-85.3238
0
LINE
8
BLACK
6
CONTINUOUS
10
163.048
20
-85.3238
11
163.048
21
-84.4752
0
LINE
8
BLACK
6
CONTINUOUS
10
163.048
20
-84.4752
11
162.2
21
-84.4752
0
LINE
8
BLACK
6
CONTINUOUS
10
162.2
20
-84.4752
11
162.2
21
-85.3238
0
LINE
8
BLACK
6
CONTINUOUS
10
162.2
20
-85.3238
11
163.048
21
-85.3238
0
LINE
8
BLACK
6
CONTINUOUS
10
134.732
20
-59.0873
11
134.732
21
-58.2387
0
LINE
8
BLACK
6
CONTINUOUS
10
134.732
20
-58.2387
11
133.884
21
-58.2387
0
LINE
8
BLACK
6
CONTINUOUS
10
133.884
20
-58.2387
11
133.884
21
-59.0873
0
LINE
8
BLACK
6
CONTINUOUS
10
133.884
20
-59.0873
11
134.732
21
-59.0873
0
LINE
8
BLACK
6
CONTINUOUS
10
134.732
20
-61.6273
11
134.732
21
-60.7787
0
LINE
8
BLACK
6
CONTINUOUS
10
134.732
20
-60.7787
11
133.884
21
-60.7787
0
LINE
8
BLACK
6
CONTINUOUS
10
133.884
20
-60.7787
11
133.884
21
-61.6273
0
LINE
8
BLACK
6
CONTINUOUS
10
133.884
20
-61.6273
11
134.732
21
-61.6273
0
LINE
8
BLACK
6
CONTINUOUS
10
126.694
20
-101.975
11
126.694
21
-101.127
0
LINE
8
BLACK
6
CONTINUOUS
10
126.694
20
-101.127
11
125.846
21
-101.127
0
LINE
8
BLACK
6
CONTINUOUS
10
125.846
20
-101.127
11
125.846
21
-101.975
0
LINE
8
BLACK
6
CONTINUOUS
10
125.846
20
-101.975
11
126.694
21
-101.975
0
LINE
8
BLACK
6
CONTINUOUS
10
126.694
20
-104.515
11
126.694
21
-103.667
0
LINE
8
BLACK
6
CONTINUOUS
10
126.694
20
-103.667
11
125.846
21
-103.667
0
LINE
8
BLACK
6
CONTINUOUS
10
125.846
20
-103.667
11
125.846
21
-104.515
0
LINE
8
BLACK
6
CONTINUOUS
10
125.846
20
-104.515
11
126.694
21
-104.515
0
LINE
8
BLACK
6
CONTINUOUS
10
153.824
20
-93.4803
11
153.824
21
-92.6317
0
LINE
8
BLACK
6
CONTINUOUS
10
153.824
20
-92.6317
11
152.976
21
-92.6317
0
LINE
8
BLACK
6
CONTINUOUS
10
152.976
20
-92.6317
11
152.976
21
-93.4803
0
LINE
8
BLACK
6
CONTINUOUS
10
152.976
20
-93.4803
11
153.824
21
-93.4803
0
LINE
8
BLACK
6
CONTINUOUS
10
156.364
20
-93.4803
11
156.364
21
-92.6317
0
LINE
8
BLACK
6
CONTINUOUS
10
156.364
20
-92.6317
11
155.516
21
-92.6317
0
LINE
8
BLACK
6
CONTINUOUS
10
155.516
20
-92.6317
11
155.516
21
-93.4803
0
LINE
8
BLACK
6
CONTINUOUS
10
155.516
20
-93.4803
11
156.364
21
-93.4803
0
LINE
8
BLACK
6
CONTINUOUS
10
143.279
20
-72.6073
11
143.279
21
-71.7587
0
LINE
8
BLACK
6
CONTINUOUS
10
143.279
20
-71.7587
11
142.431
21
-71.7587
0
LINE
8
BLACK
6
CONTINUOUS
10
142.431
20
-71.7587
11
142.431
21
-72.6073
0
LINE
8
BLACK
6
CONTINUOUS
10
142.431
20
-72.6073
11
143.279
21
-72.6073
0
LINE
8
BLACK
6
CONTINUOUS
10
143.279
20
-75.1473
11
143.279
21
-74.2987
0
LINE
8
BLACK
6
CONTINUOUS
10
143.279
20
-74.2987
11
142.431
21
-74.2987
0
LINE
8
BLACK
6
CONTINUOUS
10
142.431
20
-74.2987
11
142.431
21
-75.1473
0
LINE
8
BLACK
6
CONTINUOUS
10
142.431
20
-75.1473
11
143.279
21
-75.1473
0
LINE
8
BLACK
6
CONTINUOUS
10
167.212
20
-85.3363
11
167.212
21
-84.4877
0
LINE
8
BLACK
6
CONTINUOUS
10
167.212
20
-84.4877
11
166.364
21
-84.4877
0
LINE
8
BLACK
6
CONTINUOUS
10
166.364
20
-84.4877
11
166.364
21
-85.3363
0
LINE
8
BLACK
6
CONTINUOUS
10
166.364
20
-85.3363
11
167.212
21
-85.3363
0
LINE
8
BLACK
6
CONTINUOUS
10
169.752
20
-85.3363
11
169.752
21
-84.4877
0
LINE
8
BLACK
6
CONTINUOUS
10
169.752
20
-84.4877
11
168.904
21
-84.4877
0
LINE
8
BLACK
6
CONTINUOUS
10
168.904
20
-84.4877
11
168.904
21
-85.3363
0
LINE
8
BLACK
6
CONTINUOUS
10
168.904
20
-85.3363
11
169.752
21
-85.3363
0
LINE
8
BLACK
6
CONTINUOUS
10
143.787
20
-88.3553
11
143.787
21
-87.5067
0
LINE
8
BLACK
6
CONTINUOUS
10
143.787
20
-87.5067
11
142.939
21
-87.5067
0
LINE
8
BLACK
6
CONTINUOUS
10
142.939
20
-87.5067
11
142.939
21
-88.3553
0
LINE
8
BLACK
6
CONTINUOUS
10
142.939
20
-88.3553
11
143.787
21
-88.3553
0
LINE
8
BLACK
6
CONTINUOUS
10
143.787
20
-90.8953
11
143.787
21
-90.0467
0
LINE
8
BLACK
6
CONTINUOUS
10
143.787
20
-90.0467
11
142.939
21
-90.0467
0
LINE
8
BLACK
6
CONTINUOUS
10
142.939
20
-90.0467
11
142.939
21
-90.8953
0
LINE
8
BLACK
6
CONTINUOUS
10
142.939
20
-90.8953
11
143.787
21
-90.8953
0
LINE
8
BLACK
6
CONTINUOUS
10
153.824
20
-77.1923
11
153.824
21
-76.3437
0
LINE
8
BLACK
6
CONTINUOUS
10
153.824
20
-76.3437
11
152.976
21
-76.3437
0
LINE
8
BLACK
6
CONTINUOUS
10
152.976
20
-76.3437
11
152.976
21
-77.1923
0
LINE
8
BLACK
6
CONTINUOUS
10
152.976
20
-77.1923
11
153.824
21
-77.1923
0
LINE
8
BLACK
6
CONTINUOUS
10
156.364
20
-77.1923
11
156.364
21
-76.3437
0
LINE
8
BLACK
6
CONTINUOUS
10
156.364
20
-76.3437
11
155.516
21
-76.3437
0
LINE
8
BLACK
6
CONTINUOUS
10
155.516
20
-76.3437
11
155.516
21
-77.1923
0
LINE
8
BLACK
6
CONTINUOUS
10
155.516
20
-77.1923
11
156.364
21
-77.1923
0
LINE
8
BLACK
6
CONTINUOUS
10
158.904
20
-77.1923
11
158.904
21
-76.3437
0
LINE
8
BLACK
6
CONTINUOUS
10
158.904
20
-76.3437
11
158.056
21
-76.3437
0
LINE
8
BLACK
6
CONTINUOUS
10
158.056
20
-76.3437
11
158.056
21
-77.1923
0
LINE
8
BLACK
6
CONTINUOUS
10
158.056
20
-77.1923
11
158.904
21
-77.1923
0
LINE
8
BLACK
6
CONTINUOUS
10
161.444
20
-77.1923
11
161.444
21
-76.3437
0
LINE
8
BLACK
6
CONTINUOUS
10
161.444
20
-76.3437
11
160.596
21
-76.3437
0
LINE
8
BLACK
6
CONTINUOUS
10
160.596
20
-76.3437
11
160.596
21
-77.1923
0
LINE
8
BLACK
6
CONTINUOUS
10
160.596
20
-77.1923
11
161.444
21
-77.1923
0
LINE
8
BLACK
6
CONTINUOUS
10
134.732
20
-65.8473
11
134.732
21
-64.9987
0
LINE
8
BLACK
6
CONTINUOUS
10
134.732
20
-64.9987
11
133.884
21
-64.9987
0
LINE
8
BLACK
6
CONTINUOUS
10
133.884
20
-64.9987
11
133.884
21
-65.8473
0
LINE
8
BLACK
6
CONTINUOUS
10
133.884
20
-65.8473
11
134.732
21
-65.8473
0
LINE
8
BLACK
6
CONTINUOUS
10
134.732
20
-68.3873
11
134.732
21
-67.5387
0
LINE
8
BLACK
6
CONTINUOUS
10
134.732
20
-67.5387
11
133.884
21
-67.5387
0
LINE
8
BLACK
6
CONTINUOUS
10
133.884
20
-67.5387
11
133.884
21
-68.3873
0
LINE
8
BLACK
6
CONTINUOUS
10
133.884
20
-68.3873
11
134.732
21
-68.3873
0
LINE
8
BLACK
6
CONTINUOUS
10
117.639
20
-59.0873
11
117.639
21
-58.2387
0
LINE
8
BLACK
6
CONTINUOUS
10
117.639
20
-58.2387
11
116.791
21
-58.2387
0
LINE
8
BLACK
6
CONTINUOUS
10
116.791
20
-58.2387
11
116.791
21
-59.0873
0
LINE
8
BLACK
6
CONTINUOUS
10
116.791
20
-59.0873
11
117.639
21
-59.0873
0
LINE
8
BLACK
6
CONTINUOUS
10
117.639
20
-61.6273
11
117.639
21
-60.7787
0
LINE
8
BLACK
6
CONTINUOUS
10
117.639
20
-60.7787
11
116.791
21
-60.7787
0
LINE
8
BLACK
6
CONTINUOUS
10
116.791
20
-60.7787
11
116.791
21
-61.6273
0
LINE
8
BLACK
6
CONTINUOUS
10
116.791
20
-61.6273
11
117.639
21
-61.6273
0
LINE
8
BLACK
6
CONTINUOUS
10
117.639
20
-72.6073
11
117.639
21
-71.7587
0
LINE
8
BLACK
6
CONTINUOUS
10
117.639
20
-71.7587
11
116.791
21
-71.7587
0
LINE
8
BLACK
6
CONTINUOUS
10
116.791
20
-71.7587
11
116.791
21
-72.6073
0
LINE
8
BLACK
6
CONTINUOUS
10
116.791
20
-72.6073
11
117.639
21
-72.6073
0
LINE
8
BLACK
6
CONTINUOUS
10
117.639
20
-75.1473
11
117.639
21
-74.2987
0
LINE
8
BLACK
6
CONTINUOUS
10
117.639
20
-74.2987
11
116.791
21
-74.2987
0
LINE
8
BLACK
6
CONTINUOUS
10
116.791
20
-74.2987
11
116.791
21
-75.1473
0
LINE
8
BLACK
6
CONTINUOUS
10
116.791
20
-75.1473
11
117.639
21
-75.1473
0
LINE
8
BLACK
6
CONTINUOUS
10
135.24
20
-88.3553
11
135.24
21
-87.5067
0
LINE
8
BLACK
6
CONTINUOUS
10
135.24
20
-87.5067
11
134.392
21
-87.5067
0
LINE
8
BLACK
6
CONTINUOUS
10
134.392
20
-87.5067
11
134.392
21
-88.3553
0
LINE
8
BLACK
6
CONTINUOUS
10
134.392
20
-88.3553
11
135.24
21
-88.3553
0
LINE
8
BLACK
6
CONTINUOUS
10
135.24
20
-90.8953
11
135.24
21
-90.0467
0
LINE
8
BLACK
6
CONTINUOUS
10
135.24
20
-90.0467
11
134.392
21
-90.0467
0
LINE
8
BLACK
6
CONTINUOUS
10
134.392
20
-90.0467
11
134.392
21
-90.8953
0
LINE
8
BLACK
6
CONTINUOUS
10
134.392
20
-90.8953
11
135.24
21
-90.8953
0
LINE
8
BLACK
6
CONTINUOUS
10
118.147
20
-101.975
11
118.147
21
-101.127
0
LINE
8
BLACK
6
CONTINUOUS
10
118.147
20
-101.127
11
117.299
21
-101.127
0
LINE
8
BLACK
6
CONTINUOUS
10
117.299
20
-101.127
11
117.299
21
-101.975
0
LINE
8
BLACK
6
CONTINUOUS
10
117.299
20
-101.975
11
118.147
21
-101.975
0
LINE
8
BLACK
6
CONTINUOUS
10
118.147
20
-104.515
11
118.147
21
-103.667
0
LINE
8
BLACK
6
CONTINUOUS
10
118.147
20
-103.667
11
117.299
21
-103.667
0
LINE
8
BLACK
6
CONTINUOUS
10
117.299
20
-103.667
11
117.299
21
-104.515
0
LINE
8
BLACK
6
CONTINUOUS
10
117.299
20
-104.515
11
118.147
21
-104.515
0
LINE
8
BLACK
6
CONTINUOUS
10
118.147
20
-88.3553
11
118.147
21
-87.5067
0
LINE
8
BLACK
6
CONTINUOUS
10
118.147
20
-87.5067
11
117.299
21
-87.5067
0
LINE
8
BLACK
6
CONTINUOUS
10
117.299
20
-87.5067
11
117.299
21
-88.3553
0
LINE
8
BLACK
6
CONTINUOUS
10
117.299
20
-88.3553
11
118.147
21
-88.3553
0
LINE
8
BLACK
6
CONTINUOUS
10
118.147
20
-90.8953
11
118.147
21
-90.0467
0
LINE
8
BLACK
6
CONTINUOUS
10
118.147
20
-90.0467
11
117.299
21
-90.0467
0
LINE
8
BLACK
6
CONTINUOUS
10
117.299
20
-90.0467
11
117.299
21
-90.8953
0
LINE
8
BLACK
6
CONTINUOUS
10
117.299
20
-90.8953
11
118.147
21
-90.8953
0
LINE
8
BLACK
6
CONTINUOUS
10
135.24
20
-95.1653
11
135.24
21
-94.3167
0
LINE
8
BLACK
6
CONTINUOUS
10
135.24
20
-94.3167
11
134.392
21
-94.3167
0
LINE
8
BLACK
6
CONTINUOUS
10
134.392
20
-94.3167
11
134.392
21
-95.1653
0
LINE
8
BLACK
6
CONTINUOUS
10
134.392
20
-95.1653
11
135.24
21
-95.1653
0
LINE
8
BLACK
6
CONTINUOUS
10
135.24
20
-97.7053
11
135.24
21
-96.8567
0
LINE
8
BLACK
6
CONTINUOUS
10
135.24
20
-96.8567
11
134.392
21
-96.8567
0
LINE
8
BLACK
6
CONTINUOUS
10
134.392
20
-96.8567
11
134.392
21
-97.7053
0
LINE
8
BLACK
6
CONTINUOUS
10
134.392
20
-97.7053
11
135.24
21
-97.7053
0
LINE
8
BLACK
6
CONTINUOUS
10
167.212
20
-93.4803
11
167.212
21
-92.6317
0
LINE
8
BLACK
6
CONTINUOUS
10
167.212
20
-92.6317
11
166.364
21
-92.6317
0
LINE
8
BLACK
6
CONTINUOUS
10
166.364
20
-92.6317
11
166.364
21
-93.4803
0
LINE
8
BLACK
6
CONTINUOUS
10
166.364
20
-93.4803
11
167.212
21
-93.4803
0
LINE
8
BLACK
6
CONTINUOUS
10
169.752
20
-93.4803
11
169.752
21
-92.6317
0
LINE
8
BLACK
6
CONTINUOUS
10
169.752
20
-92.6317
11
168.904
21
-92.6317
0
LINE
8
BLACK
6
CONTINUOUS
10
168.904
20
-92.6317
11
168.904
21
-93.4803
0
LINE
8
BLACK
6
CONTINUOUS
10
168.904
20
-93.4803
11
169.752
21
-93.4803
0
LINE
8
BLACK
6
CONTINUOUS
10
143.279
20
-65.8473
11
143.279
21
-64.9987
0
LINE
8
BLACK
6
CONTINUOUS
10
143.279
20
-64.9987
11
142.431
21
-64.9987
0
LINE
8
BLACK
6
CONTINUOUS
10
142.431
20
-64.9987
11
142.431
21
-65.8473
0
LINE
8
BLACK
6
CONTINUOUS
10
142.431
20
-65.8473
11
143.279
21
-65.8473
0
LINE
8
BLACK
6
CONTINUOUS
10
143.279
20
-68.3873
11
143.279
21
-67.5387
0
LINE
8
BLACK
6
CONTINUOUS
10
143.279
20
-67.5387
11
142.431
21
-67.5387
0
LINE
8
BLACK
6
CONTINUOUS
10
142.431
20
-67.5387
11
142.431
21
-68.3873
0
LINE
8
BLACK
6
CONTINUOUS
10
142.431
20
-68.3873
11
143.279
21
-68.3873
0
LINE
8
BLACK
6
CONTINUOUS
10
153.824
20
-85.3363
11
153.824
21
-84.4877
0
LINE
8
BLACK
6
CONTINUOUS
10
153.824
20
-84.4877
11
152.976
21
-84.4877
0
LINE
8
BLACK
6
CONTINUOUS
10
152.976
20
-84.4877
11
152.976
21
-85.3363
0
LINE
8
BLACK
6
CONTINUOUS
10
152.976
20
-85.3363
11
153.824
21
-85.3363
0
LINE
8
BLACK
6
CONTINUOUS
10
156.364
20
-85.3363
11
156.364
21
-84.4877
0
LINE
8
BLACK
6
CONTINUOUS
10
156.364
20
-84.4877
11
155.516
21
-84.4877
0
LINE
8
BLACK
6
CONTINUOUS
10
155.516
20
-84.4877
11
155.516
21
-85.3363
0
LINE
8
BLACK
6
CONTINUOUS
10
155.516
20
-85.3363
11
156.364
21
-85.3363
0
LINE
8
BLACK
6
CONTINUOUS
10
153.824
20
-69.0483
11
153.824
21
-68.1997
0
LINE
8
BLACK
6
CONTINUOUS
10
153.824
20
-68.1997
11
152.976
21
-68.1997
0
LINE
8
BLACK
6
CONTINUOUS
10
152.976
20
-68.1997
11
152.976
21
-69.0483
0
LINE
8
BLACK
6
CONTINUOUS
10
152.976
20
-69.0483
11
153.824
21
-69.0483
0
LINE
8
BLACK
6
CONTINUOUS
10
156.364
20
-69.0483
11
156.364
21
-68.1997
0
LINE
8
BLACK
6
CONTINUOUS
10
156.364
20
-68.1997
11
155.516
21
-68.1997
0
LINE
8
BLACK
6
CONTINUOUS
10
155.516
20
-68.1997
11
155.516
21
-69.0483
0
LINE
8
BLACK
6
CONTINUOUS
10
155.516
20
-69.0483
11
156.364
21
-69.0483
0
LINE
8
BLACK
6
CONTINUOUS
10
158.904
20
-69.0483
11
158.904
21
-68.1997
0
LINE
8
BLACK
6
CONTINUOUS
10
158.904
20
-68.1997
11
158.056
21
-68.1997
0
LINE
8
BLACK
6
CONTINUOUS
10
158.056
20
-68.1997
11
158.056
21
-69.0483
0
LINE
8
BLACK
6
CONTINUOUS
10
158.056
20
-69.0483
11
158.904
21
-69.0483
0
LINE
8
BLACK
6
CONTINUOUS
10
161.444
20
-69.0483
11
161.444
21
-68.1997
0
LINE
8
BLACK
6
CONTINUOUS
10
161.444
20
-68.1997
11
160.596
21
-68.1997
0
LINE
8
BLACK
6
CONTINUOUS
10
160.596
20
-68.1997
11
160.596
21
-69.0483
0
LINE
8
BLACK
6
CONTINUOUS
10
160.596
20
-69.0483
11
161.444
21
-69.0483
0
LINE
8
BLACK
6
CONTINUOUS
10
103.931
20
-111.616
11
103.931
21
-108.616
0
LINE
8
BLACK
6
CONTINUOUS
10
103.931
20
-108.616
11
104.646
21
-108.616
0
LINE
8
BLACK
6
CONTINUOUS
10
104.646
20
-108.616
11
105.074
21
-108.759
0
LINE
8
BLACK
6
CONTINUOUS
10
105.074
20
-108.759
11
105.36
21
-109.045
0
LINE
8
BLACK
6
CONTINUOUS
10
105.36
20
-109.045
11
105.503
21
-109.33
0
LINE
8
BLACK
6
CONTINUOUS
10
105.503
20
-109.33
11
105.646
21
-109.902
0
LINE
8
BLACK
6
CONTINUOUS
10
105.646
20
-109.902
11
105.646
21
-110.33
0
LINE
8
BLACK
6
CONTINUOUS
10
105.646
20
-110.33
11
105.503
21
-110.902
0
LINE
8
BLACK
6
CONTINUOUS
10
105.503
20
-110.902
11
105.36
21
-111.188
0
LINE
8
BLACK
6
CONTINUOUS
10
105.36
20
-111.188
11
105.074
21
-111.473
0
LINE
8
BLACK
6
CONTINUOUS
10
105.074
20
-111.473
11
104.646
21
-111.616
0
LINE
8
BLACK
6
CONTINUOUS
10
104.646
20
-111.616
11
103.931
21
-111.616
0
LINE
8
BLACK
6
CONTINUOUS
10
106.931
20
-111.616
11
106.931
21
-109.616
0
LINE
8
BLACK
6
CONTINUOUS
10
106.931
20
-110.188
11
107.074
21
-109.902
0
LINE
8
BLACK
6
CONTINUOUS
10
107.074
20
-109.902
11
107.217
21
-109.759
0
LINE
8
BLACK
6
CONTINUOUS
10
107.217
20
-109.759
11
107.503
21
-109.616
0
LINE
8
BLACK
6
CONTINUOUS
10
107.503
20
-109.616
11
107.788
21
-109.616
0
LINE
8
BLACK
6
CONTINUOUS
10
108.788
20
-111.616
11
108.788
21
-109.616
0
LINE
8
BLACK
6
CONTINUOUS
10
108.788
20
-108.616
11
108.646
21
-108.759
0
LINE
8
BLACK
6
CONTINUOUS
10
108.646
20
-108.759
11
108.788
21
-108.902
0
LINE
8
BLACK
6
CONTINUOUS
10
108.788
20
-108.902
11
108.931
21
-108.759
0
LINE
8
BLACK
6
CONTINUOUS
10
108.931
20
-108.759
11
108.788
21
-108.616
0
LINE
8
BLACK
6
CONTINUOUS
10
108.788
20
-108.616
11
108.788
21
-108.902
0
LINE
8
BLACK
6
CONTINUOUS
10
110.646
20
-111.616
11
110.36
21
-111.473
0
LINE
8
BLACK
6
CONTINUOUS
10
110.36
20
-111.473
11
110.217
21
-111.188
0
LINE
8
BLACK
6
CONTINUOUS
10
110.217
20
-111.188
11
110.217
21
-108.616
0
LINE
8
BLACK
6
CONTINUOUS
10
112.217
20
-111.616
11
111.931
21
-111.473
0
LINE
8
BLACK
6
CONTINUOUS
10
111.931
20
-111.473
11
111.788
21
-111.188
0
LINE
8
BLACK
6
CONTINUOUS
10
111.788
20
-111.188
11
111.788
21
-108.616
0
LINE
8
BLACK
6
CONTINUOUS
10
115.646
20
-111.616
11
115.646
21
-108.616
0
LINE
8
BLACK
6
CONTINUOUS
10
115.646
20
-108.616
11
116.646
21
-110.759
0
LINE
8
BLACK
6
CONTINUOUS
10
116.646
20
-110.759
11
117.646
21
-108.616
0
LINE
8
BLACK
6
CONTINUOUS
10
117.646
20
-108.616
11
117.646
21
-111.616
0
LINE
8
BLACK
6
CONTINUOUS
10
120.36
20
-111.616
11
120.36
21
-110.045
0
LINE
8
BLACK
6
CONTINUOUS
10
120.36
20
-110.045
11
120.217
21
-109.759
0
LINE
8
BLACK
6
CONTINUOUS
10
120.217
20
-109.759
11
119.931
21
-109.616
0
LINE
8
BLACK
6
CONTINUOUS
10
119.931
20
-109.616
11
119.36
21
-109.616
0
LINE
8
BLACK
6
CONTINUOUS
10
119.36
20
-109.616
11
119.074
21
-109.759
0
LINE
8
BLACK
6
CONTINUOUS
10
120.36
20
-111.473
11
120.074
21
-111.616
0
LINE
8
BLACK
6
CONTINUOUS
10
120.074
20
-111.616
11
119.36
21
-111.616
0
LINE
8
BLACK
6
CONTINUOUS
10
119.36
20
-111.616
11
119.074
21
-111.473
0
LINE
8
BLACK
6
CONTINUOUS
10
119.074
20
-111.473
11
118.931
21
-111.188
0
LINE
8
BLACK
6
CONTINUOUS
10
118.931
20
-111.188
11
118.931
21
-110.902
0
LINE
8
BLACK
6
CONTINUOUS
10
118.931
20
-110.902
11
119.074
21
-110.616
0
LINE
8
BLACK
6
CONTINUOUS
10
119.074
20
-110.616
11
119.36
21
-110.473
0
LINE
8
BLACK
6
CONTINUOUS
10
119.36
20
-110.473
11
120.074
21
-110.473
0
LINE
8
BLACK
6
CONTINUOUS
10
120.074
20
-110.473
11
120.36
21
-110.33
0
LINE
8
BLACK
6
CONTINUOUS
10
121.788
20
-109.616
11
121.788
21
-112.616
0
LINE
8
BLACK
6
CONTINUOUS
10
121.788
20
-109.759
11
122.074
21
-109.616
0
LINE
8
BLACK
6
CONTINUOUS
10
122.074
20
-109.616
11
122.646
21
-109.616
0
LINE
8
BLACK
6
CONTINUOUS
10
122.646
20
-109.616
11
122.931
21
-109.759
0
LINE
8
BLACK
6
CONTINUOUS
10
122.931
20
-109.759
11
123.074
21
-109.902
0
LINE
8
BLACK
6
CONTINUOUS
10
123.074
20
-109.902
11
123.217
21
-110.188
0
LINE
8
BLACK
6
CONTINUOUS
10
123.217
20
-110.188
11
123.217
21
-111.045
0
LINE
8
BLACK
6
CONTINUOUS
10
123.217
20
-111.045
11
123.074
21
-111.33
0
LINE
8
BLACK
6
CONTINUOUS
10
123.074
20
-111.33
11
122.931
21
-111.473
0
LINE
8
BLACK
6
CONTINUOUS
10
122.931
20
-111.473
11
122.646
21
-111.616
0
LINE
8
BLACK
6
CONTINUOUS
10
122.646
20
-111.616
11
122.074
21
-111.616
0
LINE
8
BLACK
6
CONTINUOUS
10
122.074
20
-111.616
11
121.788
21
-111.473
0
LINE
8
BLACK
6
CONTINUOUS
10
124.503
20
-111.33
11
124.646
21
-111.473
0
LINE
8
BLACK
6
CONTINUOUS
10
124.646
20
-111.473
11
124.503
21
-111.616
0
LINE
8
BLACK
6
CONTINUOUS
10
124.503
20
-111.616
11
124.36
21
-111.473
0
LINE
8
BLACK
6
CONTINUOUS
10
124.36
20
-111.473
11
124.503
21
-111.33
0
LINE
8
BLACK
6
CONTINUOUS
10
124.503
20
-111.33
11
124.503
21
-111.616
0
LINE
8
BLACK
6
CONTINUOUS
10
124.503
20
-109.759
11
124.646
21
-109.902
0
LINE
8
BLACK
6
CONTINUOUS
10
124.646
20
-109.902
11
124.503
21
-110.045
0
LINE
8
BLACK
6
CONTINUOUS
10
124.503
20
-110.045
11
124.36
21
-109.902
0
LINE
8
BLACK
6
CONTINUOUS
10
124.36
20
-109.902
11
124.503
21
-109.759
0
LINE
8
BLACK
6
CONTINUOUS
10
124.503
20
-109.759
11
124.503
21
-110.045
0
LINE
8
BLACK
6
CONTINUOUS
10
100.267
20
-116.159
11
101.067
21
-116.959
0
LINE
8
BLACK
6
CONTINUOUS
10
101.067
20
-116.159
11
100.267
21
-116.959
0
LINE
8
BLACK
6
CONTINUOUS
10
104.503
20
-114.916
11
104.788
21
-114.916
0
LINE
8
BLACK
6
CONTINUOUS
10
104.788
20
-114.916
11
105.074
21
-115.059
0
LINE
8
BLACK
6
CONTINUOUS
10
105.074
20
-115.059
11
105.217
21
-115.202
0
LINE
8
BLACK
6
CONTINUOUS
10
105.217
20
-115.202
11
105.36
21
-115.488
0
LINE
8
BLACK
6
CONTINUOUS
10
105.36
20
-115.488
11
105.503
21
-116.059
0
LINE
8
BLACK
6
CONTINUOUS
10
105.503
20
-116.059
11
105.503
21
-116.773
0
LINE
8
BLACK
6
CONTINUOUS
10
105.503
20
-116.773
11
105.36
21
-117.345
0
LINE
8
BLACK
6
CONTINUOUS
10
105.36
20
-117.345
11
105.217
21
-117.63
0
LINE
8
BLACK
6
CONTINUOUS
10
105.217
20
-117.63
11
105.074
21
-117.773
0
LINE
8
BLACK
6
CONTINUOUS
10
105.074
20
-117.773
11
104.788
21
-117.916
0
LINE
8
BLACK
6
CONTINUOUS
10
104.788
20
-117.916
11
104.503
21
-117.916
0
LINE
8
BLACK
6
CONTINUOUS
10
104.503
20
-117.916
11
104.217
21
-117.773
0
LINE
8
BLACK
6
CONTINUOUS
10
104.217
20
-117.773
11
104.074
21
-117.63
0
LINE
8
BLACK
6
CONTINUOUS
10
104.074
20
-117.63
11
103.931
21
-117.345
0
LINE
8
BLACK
6
CONTINUOUS
10
103.931
20
-117.345
11
103.788
21
-116.773
0
LINE
8
BLACK
6
CONTINUOUS
10
103.788
20
-116.773
11
103.788
21
-116.059
0
LINE
8
BLACK
6
CONTINUOUS
10
103.788
20
-116.059
11
103.931
21
-115.488
0
LINE
8
BLACK
6
CONTINUOUS
10
103.931
20
-115.488
11
104.074
21
-115.202
0
LINE
8
BLACK
6
CONTINUOUS
10
104.074
20
-115.202
11
104.217
21
-115.059
0
LINE
8
BLACK
6
CONTINUOUS
10
104.217
20
-115.059
11
104.503
21
-114.916
0
LINE
8
BLACK
6
CONTINUOUS
10
106.788
20
-117.63
11
106.931
21
-117.773
0
LINE
8
BLACK
6
CONTINUOUS
10
106.931
20
-117.773
11
106.788
21
-117.916
0
LINE
8
BLACK
6
CONTINUOUS
10
106.788
20
-117.916
11
106.646
21
-117.773
0
LINE
8
BLACK
6
CONTINUOUS
10
106.646
20
-117.773
11
106.788
21
-117.63
0
LINE
8
BLACK
6
CONTINUOUS
10
106.788
20
-117.63
11
106.788
21
-117.916
0
LINE
8
BLACK
6
CONTINUOUS
10
108.646
20
-116.202
11
108.36
21
-116.059
0
LINE
8
BLACK
6
CONTINUOUS
10
108.36
20
-116.059
11
108.217
21
-115.916
0
LINE
8
BLACK
6
CONTINUOUS
10
108.217
20
-115.916
11
108.074
21
-115.63
0
LINE
8
BLACK
6
CONTINUOUS
10
108.074
20
-115.63
11
108.074
21
-115.488
0
LINE
8
BLACK
6
CONTINUOUS
10
108.074
20
-115.488
11
108.217
21
-115.202
0
LINE
8
BLACK
6
CONTINUOUS
10
108.217
20
-115.202
11
108.36
21
-115.059
0
LINE
8
BLACK
6
CONTINUOUS
10
108.36
20
-115.059
11
108.646
21
-114.916
0
LINE
8
BLACK
6
CONTINUOUS
10
108.646
20
-114.916
11
109.217
21
-114.916
0
LINE
8
BLACK
6
CONTINUOUS
10
109.217
20
-114.916
11
109.503
21
-115.059
0
LINE
8
BLACK
6
CONTINUOUS
10
109.503
20
-115.059
11
109.646
21
-115.202
0
LINE
8
BLACK
6
CONTINUOUS
10
109.646
20
-115.202
11
109.788
21
-115.488
0
LINE
8
BLACK
6
CONTINUOUS
10
109.788
20
-115.488
11
109.788
21
-115.63
0
LINE
8
BLACK
6
CONTINUOUS
10
109.788
20
-115.63
11
109.646
21
-115.916
0
LINE
8
BLACK
6
CONTINUOUS
10
109.646
20
-115.916
11
109.503
21
-116.059
0
LINE
8
BLACK
6
CONTINUOUS
10
109.503
20
-116.059
11
109.217
21
-116.202
0
LINE
8
BLACK
6
CONTINUOUS
10
109.217
20
-116.202
11
108.646
21
-116.202
0
LINE
8
BLACK
6
CONTINUOUS
10
108.646
20
-116.202
11
108.36
21
-116.345
0
LINE
8
BLACK
6
CONTINUOUS
10
108.36
20
-116.345
11
108.217
21
-116.488
0
LINE
8
BLACK
6
CONTINUOUS
10
108.217
20
-116.488
11
108.074
21
-116.773
0
LINE
8
BLACK
6
CONTINUOUS
10
108.074
20
-116.773
11
108.074
21
-117.345
0
LINE
8
BLACK
6
CONTINUOUS
10
108.074
20
-117.345
11
108.217
21
-117.63
0
LINE
8
BLACK
6
CONTINUOUS
10
108.217
20
-117.63
11
108.36
21
-117.773
0
LINE
8
BLACK
6
CONTINUOUS
10
108.36
20
-117.773
11
108.646
21
-117.916
0
LINE
8
BLACK
6
CONTINUOUS
10
108.646
20
-117.916
11
109.217
21
-117.916
0
LINE
8
BLACK
6
CONTINUOUS
10
109.217
20
-117.916
11
109.503
21
-117.773
0
LINE
8
BLACK
6
CONTINUOUS
10
109.503
20
-117.773
11
109.646
21
-117.63
0
LINE
8
BLACK
6
CONTINUOUS
10
109.646
20
-117.63
11
109.788
21
-117.345
0
LINE
8
BLACK
6
CONTINUOUS
10
109.788
20
-117.345
11
109.788
21
-116.773
0
LINE
8
BLACK
6
CONTINUOUS
10
109.788
20
-116.773
11
109.646
21
-116.488
0
LINE
8
BLACK
6
CONTINUOUS
10
109.646
20
-116.488
11
109.503
21
-116.345
0
LINE
8
BLACK
6
CONTINUOUS
10
109.503
20
-116.345
11
109.217
21
-116.202
0
LINE
8
BLACK
6
CONTINUOUS
10
111.646
20
-114.916
11
111.931
21
-114.916
0
LINE
8
BLACK
6
CONTINUOUS
10
111.931
20
-114.916
11
112.217
21
-115.059
0
LINE
8
BLACK
6
CONTINUOUS
10
112.217
20
-115.059
11
112.36
21
-115.202
0
LINE
8
BLACK
6
CONTINUOUS
10
112.36
20
-115.202
11
112.503
21
-115.488
0
LINE
8
BLACK
6
CONTINUOUS
10
112.503
20
-115.488
11
112.646
21
-116.059
0
LINE
8
BLACK
6
CONTINUOUS
10
112.646
20
-116.059
11
112.646
21
-116.773
0
LINE
8
BLACK
6
CONTINUOUS
10
112.646
20
-116.773
11
112.503
21
-117.345
0
LINE
8
BLACK
6
CONTINUOUS
10
112.503
20
-117.345
11
112.36
21
-117.63
0
LINE
8
BLACK
6
CONTINUOUS
10
112.36
20
-117.63
11
112.217
21
-117.773
0
LINE
8
BLACK
6
CONTINUOUS
10
112.217
20
-117.773
11
111.931
21
-117.916
0
LINE
8
BLACK
6
CONTINUOUS
10
111.931
20
-117.916
11
111.646
21
-117.916
0
LINE
8
BLACK
6
CONTINUOUS
10
111.646
20
-117.916
11
111.36
21
-117.773
0
LINE
8
BLACK
6
CONTINUOUS
10
111.36
20
-117.773
11
111.217
21
-117.63
0
LINE
8
BLACK
6
CONTINUOUS
10
111.217
20
-117.63
11
111.074
21
-117.345
0
LINE
8
BLACK
6
CONTINUOUS
10
111.074
20
-117.345
11
110.931
21
-116.773
0
LINE
8
BLACK
6
CONTINUOUS
10
110.931
20
-116.773
11
110.931
21
-116.059
0
LINE
8
BLACK
6
CONTINUOUS
10
110.931
20
-116.059
11
111.074
21
-115.488
0
LINE
8
BLACK
6
CONTINUOUS
10
111.074
20
-115.488
11
111.217
21
-115.202
0
LINE
8
BLACK
6
CONTINUOUS
10
111.217
20
-115.202
11
111.36
21
-115.059
0
LINE
8
BLACK
6
CONTINUOUS
10
111.36
20
-115.059
11
111.646
21
-114.916
0
LINE
8
BLACK
6
CONTINUOUS
10
113.931
20
-117.916
11
113.931
21
-115.916
0
LINE
8
BLACK
6
CONTINUOUS
10
113.931
20
-116.202
11
114.074
21
-116.059
0
LINE
8
BLACK
6
CONTINUOUS
10
114.074
20
-116.059
11
114.36
21
-115.916
0
LINE
8
BLACK
6
CONTINUOUS
10
114.36
20
-115.916
11
114.788
21
-115.916
0
LINE
8
BLACK
6
CONTINUOUS
10
114.788
20
-115.916
11
115.074
21
-116.059
0
LINE
8
BLACK
6
CONTINUOUS
10
115.074
20
-116.059
11
115.217
21
-116.345
0
LINE
8
BLACK
6
CONTINUOUS
10
115.217
20
-116.345
11
115.217
21
-117.916
0
LINE
8
BLACK
6
CONTINUOUS
10
115.217
20
-116.345
11
115.36
21
-116.059
0
LINE
8
BLACK
6
CONTINUOUS
10
115.36
20
-116.059
11
115.646
21
-115.916
0
LINE
8
BLACK
6
CONTINUOUS
10
115.646
20
-115.916
11
116.074
21
-115.916
0
LINE
8
BLACK
6
CONTINUOUS
10
116.074
20
-115.916
11
116.36
21
-116.059
0
LINE
8
BLACK
6
CONTINUOUS
10
116.36
20
-116.059
11
116.503
21
-116.345
0
LINE
8
BLACK
6
CONTINUOUS
10
116.503
20
-116.345
11
116.503
21
-117.916
0
LINE
8
BLACK
6
CONTINUOUS
10
117.931
20
-117.916
11
117.931
21
-115.916
0
LINE
8
BLACK
6
CONTINUOUS
10
117.931
20
-116.202
11
118.074
21
-116.059
0
LINE
8
BLACK
6
CONTINUOUS
10
118.074
20
-116.059
11
118.36
21
-115.916
0
LINE
8
BLACK
6
CONTINUOUS
10
118.36
20
-115.916
11
118.788
21
-115.916
0
LINE
8
BLACK
6
CONTINUOUS
10
118.788
20
-115.916
11
119.074
21
-116.059
0
LINE
8
BLACK
6
CONTINUOUS
10
119.074
20
-116.059
11
119.217
21
-116.345
0
LINE
8
BLACK
6
CONTINUOUS
10
119.217
20
-116.345
11
119.217
21
-117.916
0
LINE
8
BLACK
6
CONTINUOUS
10
119.217
20
-116.345
11
119.36
21
-116.059
0
LINE
8
BLACK
6
CONTINUOUS
10
119.36
20
-116.059
11
119.646
21
-115.916
0
LINE
8
BLACK
6
CONTINUOUS
10
119.646
20
-115.916
11
120.074
21
-115.916
0
LINE
8
BLACK
6
CONTINUOUS
10
120.074
20
-115.916
11
120.36
21
-116.059
0
LINE
8
BLACK
6
CONTINUOUS
10
120.36
20
-116.059
11
120.503
21
-116.345
0
LINE
8
BLACK
6
CONTINUOUS
10
120.503
20
-116.345
11
120.503
21
-117.916
0
LINE
8
BLACK
6
CONTINUOUS
10
126.36
20
-114.773
11
123.788
21
-118.63
0
LINE
8
BLACK
6
CONTINUOUS
10
130.217
20
-114.916
11
130.503
21
-114.916
0
LINE
8
BLACK
6
CONTINUOUS
10
130.503
20
-114.916
11
130.788
21
-115.059
0
LINE
8
BLACK
6
CONTINUOUS
10
130.788
20
-115.059
11
130.931
21
-115.202
0
LINE
8
BLACK
6
CONTINUOUS
10
130.931
20
-115.202
11
131.074
21
-115.488
0
LINE
8
BLACK
6
CONTINUOUS
10
131.074
20
-115.488
11
131.217
21
-116.059
0
LINE
8
BLACK
6
CONTINUOUS
10
131.217
20
-116.059
11
131.217
21
-116.773
0
LINE
8
BLACK
6
CONTINUOUS
10
131.217
20
-116.773
11
131.074
21
-117.345
0
LINE
8
BLACK
6
CONTINUOUS
10
131.074
20
-117.345
11
130.931
21
-117.63
0
LINE
8
BLACK
6
CONTINUOUS
10
130.931
20
-117.63
11
130.788
21
-117.773
0
LINE
8
BLACK
6
CONTINUOUS
10
130.788
20
-117.773
11
130.503
21
-117.916
0
LINE
8
BLACK
6
CONTINUOUS
10
130.503
20
-117.916
11
130.217
21
-117.916
0
LINE
8
BLACK
6
CONTINUOUS
10
130.217
20
-117.916
11
129.931
21
-117.773
0
LINE
8
BLACK
6
CONTINUOUS
10
129.931
20
-117.773
11
129.788
21
-117.63
0
LINE
8
BLACK
6
CONTINUOUS
10
129.788
20
-117.63
11
129.646
21
-117.345
0
LINE
8
BLACK
6
CONTINUOUS
10
129.646
20
-117.345
11
129.503
21
-116.773
0
LINE
8
BLACK
6
CONTINUOUS
10
129.503
20
-116.773
11
129.503
21
-116.059
0
LINE
8
BLACK
6
CONTINUOUS
10
129.503
20
-116.059
11
129.646
21
-115.488
0
LINE
8
BLACK
6
CONTINUOUS
10
129.646
20
-115.488
11
129.788
21
-115.202
0
LINE
8
BLACK
6
CONTINUOUS
10
129.788
20
-115.202
11
129.931
21
-115.059
0
LINE
8
BLACK
6
CONTINUOUS
10
129.931
20
-115.059
11
130.217
21
-114.916
0
LINE
8
BLACK
6
CONTINUOUS
10
132.503
20
-117.63
11
132.646
21
-117.773
0
LINE
8
BLACK
6
CONTINUOUS
10
132.646
20
-117.773
11
132.503
21
-117.916
0
LINE
8
BLACK
6
CONTINUOUS
10
132.503
20
-117.916
11
132.36
21
-117.773
0
LINE
8
BLACK
6
CONTINUOUS
10
132.36
20
-117.773
11
132.503
21
-117.63
0
LINE
8
BLACK
6
CONTINUOUS
10
132.503
20
-117.63
11
132.503
21
-117.916
0
LINE
8
BLACK
6
CONTINUOUS
10
134.503
20
-114.916
11
134.788
21
-114.916
0
LINE
8
BLACK
6
CONTINUOUS
10
134.788
20
-114.916
11
135.074
21
-115.059
0
LINE
8
BLACK
6
CONTINUOUS
10
135.074
20
-115.059
11
135.217
21
-115.202
0
LINE
8
BLACK
6
CONTINUOUS
10
135.217
20
-115.202
11
135.36
21
-115.488
0
LINE
8
BLACK
6
CONTINUOUS
10
135.36
20
-115.488
11
135.503
21
-116.059
0
LINE
8
BLACK
6
CONTINUOUS
10
135.503
20
-116.059
11
135.503
21
-116.773
0
LINE
8
BLACK
6
CONTINUOUS
10
135.503
20
-116.773
11
135.36
21
-117.345
0
LINE
8
BLACK
6
CONTINUOUS
10
135.36
20
-117.345
11
135.217
21
-117.63
0
LINE
8
BLACK
6
CONTINUOUS
10
135.217
20
-117.63
11
135.074
21
-117.773
0
LINE
8
BLACK
6
CONTINUOUS
10
135.074
20
-117.773
11
134.788
21
-117.916
0
LINE
8
BLACK
6
CONTINUOUS
10
134.788
20
-117.916
11
134.503
21
-117.916
0
LINE
8
BLACK
6
CONTINUOUS
10
134.503
20
-117.916
11
134.217
21
-117.773
0
LINE
8
BLACK
6
CONTINUOUS
10
134.217
20
-117.773
11
134.074
21
-117.63
0
LINE
8
BLACK
6
CONTINUOUS
10
134.074
20
-117.63
11
133.931
21
-117.345
0
LINE
8
BLACK
6
CONTINUOUS
10
133.931
20
-117.345
11
133.788
21
-116.773
0
LINE
8
BLACK
6
CONTINUOUS
10
133.788
20
-116.773
11
133.788
21
-116.059
0
LINE
8
BLACK
6
CONTINUOUS
10
133.788
20
-116.059
11
133.931
21
-115.488
0
LINE
8
BLACK
6
CONTINUOUS
10
133.931
20
-115.488
11
134.074
21
-115.202
0
LINE
8
BLACK
6
CONTINUOUS
10
134.074
20
-115.202
11
134.217
21
-115.059
0
LINE
8
BLACK
6
CONTINUOUS
10
134.217
20
-115.059
11
134.503
21
-114.916
0
LINE
8
BLACK
6
CONTINUOUS
10
136.503
20
-114.916
11
138.36
21
-114.916
0
LINE
8
BLACK
6
CONTINUOUS
10
138.36
20
-114.916
11
137.36
21
-116.059
0
LINE
8
BLACK
6
CONTINUOUS
10
137.36
20
-116.059
11
137.788
21
-116.059
0
LINE
8
BLACK
6
CONTINUOUS
10
137.788
20
-116.059
11
138.074
21
-116.202
0
LINE
8
BLACK
6
CONTINUOUS
10
138.074
20
-116.202
11
138.217
21
-116.345
0
LINE
8
BLACK
6
CONTINUOUS
10
138.217
20
-116.345
11
138.36
21
-116.63
0
LINE
8
BLACK
6
CONTINUOUS
10
138.36
20
-116.63
11
138.36
21
-117.345
0
LINE
8
BLACK
6
CONTINUOUS
10
138.36
20
-117.345
11
138.217
21
-117.63
0
LINE
8
BLACK
6
CONTINUOUS
10
138.217
20
-117.63
11
138.074
21
-117.773
0
LINE
8
BLACK
6
CONTINUOUS
10
138.074
20
-117.773
11
137.788
21
-117.916
0
LINE
8
BLACK
6
CONTINUOUS
10
137.788
20
-117.916
11
136.931
21
-117.916
0
LINE
8
BLACK
6
CONTINUOUS
10
136.931
20
-117.916
11
136.646
21
-117.773
0
LINE
8
BLACK
6
CONTINUOUS
10
136.646
20
-117.773
11
136.503
21
-117.63
0
LINE
8
BLACK
6
CONTINUOUS
10
141.217
20
-117.916
11
139.503
21
-117.916
0
LINE
8
BLACK
6
CONTINUOUS
10
140.36
20
-117.916
11
140.36
21
-114.916
0
LINE
8
BLACK
6
CONTINUOUS
10
140.36
20
-114.916
11
140.074
21
-115.345
0
LINE
8
BLACK
6
CONTINUOUS
10
140.074
20
-115.345
11
139.788
21
-115.63
0
LINE
8
BLACK
6
CONTINUOUS
10
139.788
20
-115.63
11
139.503
21
-115.773
0
LINE
8
BLACK
6
CONTINUOUS
10
142.36
20
-114.916
11
142.36
21
-115.488
0
LINE
8
BLACK
6
CONTINUOUS
10
143.503
20
-114.916
11
143.503
21
-115.488
0
LINE
8
BLACK
6
CONTINUOUS
10
147.931
20
-119.059
11
147.788
21
-118.916
0
LINE
8
BLACK
6
CONTINUOUS
10
147.788
20
-118.916
11
147.503
21
-118.488
0
LINE
8
BLACK
6
CONTINUOUS
10
147.503
20
-118.488
11
147.36
21
-118.202
0
LINE
8
BLACK
6
CONTINUOUS
10
147.36
20
-118.202
11
147.217
21
-117.773
0
LINE
8
BLACK
6
CONTINUOUS
10
147.217
20
-117.773
11
147.074
21
-117.059
0
LINE
8
BLACK
6
CONTINUOUS
10
147.074
20
-117.059
11
147.074
21
-116.488
0
LINE
8
BLACK
6
CONTINUOUS
10
147.074
20
-116.488
11
147.217
21
-115.773
0
LINE
8
BLACK
6
CONTINUOUS
10
147.217
20
-115.773
11
147.36
21
-115.345
0
LINE
8
BLACK
6
CONTINUOUS
10
147.36
20
-115.345
11
147.503
21
-115.059
0
LINE
8
BLACK
6
CONTINUOUS
10
147.503
20
-115.059
11
147.788
21
-114.63
0
LINE
8
BLACK
6
CONTINUOUS
10
147.788
20
-114.63
11
147.931
21
-114.488
0
LINE
8
BLACK
6
CONTINUOUS
10
150.36
20
-115.916
11
150.36
21
-117.916
0
LINE
8
BLACK
6
CONTINUOUS
10
149.646
20
-114.773
11
148.931
21
-116.916
0
LINE
8
BLACK
6
CONTINUOUS
10
148.931
20
-116.916
11
150.788
21
-116.916
0
LINE
8
BLACK
6
CONTINUOUS
10
154.217
20
-117.916
11
154.217
21
-114.916
0
LINE
8
BLACK
6
CONTINUOUS
10
155.503
20
-117.916
11
155.503
21
-116.345
0
LINE
8
BLACK
6
CONTINUOUS
10
155.503
20
-116.345
11
155.36
21
-116.059
0
LINE
8
BLACK
6
CONTINUOUS
10
155.36
20
-116.059
11
155.074
21
-115.916
0
LINE
8
BLACK
6
CONTINUOUS
10
155.074
20
-115.916
11
154.646
21
-115.916
0
LINE
8
BLACK
6
CONTINUOUS
10
154.646
20
-115.916
11
154.36
21
-116.059
0
LINE
8
BLACK
6
CONTINUOUS
10
154.36
20
-116.059
11
154.217
21
-116.202
0
LINE
8
BLACK
6
CONTINUOUS
10
157.36
20
-117.916
11
157.074
21
-117.773
0
LINE
8
BLACK
6
CONTINUOUS
10
157.074
20
-117.773
11
156.931
21
-117.63
0
LINE
8
BLACK
6
CONTINUOUS
10
156.931
20
-117.63
11
156.788
21
-117.345
0
LINE
8
BLACK
6
CONTINUOUS
10
156.788
20
-117.345
11
156.788
21
-116.488
0
LINE
8
BLACK
6
CONTINUOUS
10
156.788
20
-116.488
11
156.931
21
-116.202
0
LINE
8
BLACK
6
CONTINUOUS
10
156.931
20
-116.202
11
157.074
21
-116.059
0
LINE
8
BLACK
6
CONTINUOUS
10
157.074
20
-116.059
11
157.36
21
-115.916
0
LINE
8
BLACK
6
CONTINUOUS
10
157.36
20
-115.916
11
157.788
21
-115.916
0
LINE
8
BLACK
6
CONTINUOUS
10
157.788
20
-115.916
11
158.074
21
-116.059
0
LINE
8
BLACK
6
CONTINUOUS
10
158.074
20
-116.059
11
158.217
21
-116.202
0
LINE
8
BLACK
6
CONTINUOUS
10
158.217
20
-116.202
11
158.36
21
-116.488
0
LINE
8
BLACK
6
CONTINUOUS
10
158.36
20
-116.488
11
158.36
21
-117.345
0
LINE
8
BLACK
6
CONTINUOUS
10
158.36
20
-117.345
11
158.217
21
-117.63
0
LINE
8
BLACK
6
CONTINUOUS
10
158.217
20
-117.63
11
158.074
21
-117.773
0
LINE
8
BLACK
6
CONTINUOUS
10
158.074
20
-117.773
11
157.788
21
-117.916
0
LINE
8
BLACK
6
CONTINUOUS
10
157.788
20
-117.916
11
157.36
21
-117.916
0
LINE
8
BLACK
6
CONTINUOUS
10
160.074
20
-117.916
11
159.788
21
-117.773
0
LINE
8
BLACK
6
CONTINUOUS
10
159.788
20
-117.773
11
159.646
21
-117.488
0
LINE
8
BLACK
6
CONTINUOUS
10
159.646
20
-117.488
11
159.646
21
-114.916
0
LINE
8
BLACK
6
CONTINUOUS
10
162.36
20
-117.773
11
162.074
21
-117.916
0
LINE
8
BLACK
6
CONTINUOUS
10
162.074
20
-117.916
11
161.503
21
-117.916
0
LINE
8
BLACK
6
CONTINUOUS
10
161.503
20
-117.916
11
161.217
21
-117.773
0
LINE
8
BLACK
6
CONTINUOUS
10
161.217
20
-117.773
11
161.074
21
-117.488
0
LINE
8
BLACK
6
CONTINUOUS
10
161.074
20
-117.488
11
161.074
21
-116.345
0
LINE
8
BLACK
6
CONTINUOUS
10
161.074
20
-116.345
11
161.217
21
-116.059
0
LINE
8
BLACK
6
CONTINUOUS
10
161.217
20
-116.059
11
161.503
21
-115.916
0
LINE
8
BLACK
6
CONTINUOUS
10
161.503
20
-115.916
11
162.074
21
-115.916
0
LINE
8
BLACK
6
CONTINUOUS
10
162.074
20
-115.916
11
162.36
21
-116.059
0
LINE
8
BLACK
6
CONTINUOUS
10
162.36
20
-116.059
11
162.503
21
-116.345
0
LINE
8
BLACK
6
CONTINUOUS
10
162.503
20
-116.345
11
162.503
21
-116.63
0
LINE
8
BLACK
6
CONTINUOUS
10
162.503
20
-116.63
11
161.074
21
-116.916
0
LINE
8
BLACK
6
CONTINUOUS
10
163.646
20
-117.773
11
163.931
21
-117.916
0
LINE
8
BLACK
6
CONTINUOUS
10
163.931
20
-117.916
11
164.503
21
-117.916
0
LINE
8
BLACK
6
CONTINUOUS
10
164.503
20
-117.916
11
164.788
21
-117.773
0
LINE
8
BLACK
6
CONTINUOUS
10
164.788
20
-117.773
11
164.931
21
-117.488
0
LINE
8
BLACK
6
CONTINUOUS
10
164.931
20
-117.488
11
164.931
21
-117.345
0
LINE
8
BLACK
6
CONTINUOUS
10
164.931
20
-117.345
11
164.788
21
-117.059
0
LINE
8
BLACK
6
CONTINUOUS
10
164.788
20
-117.059
11
164.503
21
-116.916
0
LINE
8
BLACK
6
CONTINUOUS
10
164.503
20
-116.916
11
164.074
21
-116.916
0
LINE
8
BLACK
6
CONTINUOUS
10
164.074
20
-116.916
11
163.788
21
-116.773
0
LINE
8
BLACK
6
CONTINUOUS
10
163.788
20
-116.773
11
163.646
21
-116.488
0
LINE
8
BLACK
6
CONTINUOUS
10
163.646
20
-116.488
11
163.646
21
-116.345
0
LINE
8
BLACK
6
CONTINUOUS
10
163.646
20
-116.345
11
163.788
21
-116.059
0
LINE
8
BLACK
6
CONTINUOUS
10
163.788
20
-116.059
11
164.074
21
-115.916
0
LINE
8
BLACK
6
CONTINUOUS
10
164.074
20
-115.916
11
164.503
21
-115.916
0
LINE
8
BLACK
6
CONTINUOUS
10
164.503
20
-115.916
11
164.788
21
-116.059
0
LINE
8
BLACK
6
CONTINUOUS
10
165.931
20
-119.059
11
166.074
21
-118.916
0
LINE
8
BLACK
6
CONTINUOUS
10
166.074
20
-118.916
11
166.36
21
-118.488
0
LINE
8
BLACK
6
CONTINUOUS
10
166.36
20
-118.488
11
166.503
21
-118.202
0
LINE
8
BLACK
6
CONTINUOUS
10
166.503
20
-118.202
11
166.646
21
-117.773
0
LINE
8
BLACK
6
CONTINUOUS
10
166.646
20
-117.773
11
166.788
21
-117.059
0
LINE
8
BLACK
6
CONTINUOUS
10
166.788
20
-117.059
11
166.788
21
-116.488
0
LINE
8
BLACK
6
CONTINUOUS
10
166.788
20
-116.488
11
166.646
21
-115.773
0
LINE
8
BLACK
6
CONTINUOUS
10
166.646
20
-115.773
11
166.503
21
-115.345
0
LINE
8
BLACK
6
CONTINUOUS
10
166.503
20
-115.345
11
166.36
21
-115.059
0
LINE
8
BLACK
6
CONTINUOUS
10
166.36
20
-115.059
11
166.074
21
-114.63
0
LINE
8
BLACK
6
CONTINUOUS
10
166.074
20
-114.63
11
165.931
21
-114.488
0
CIRCLE
8
BLACK
10
100.617
20
-120.519
40
0.45
0
LINE
8
BLACK
6
CONTINUOUS
10
104.503
20
-118.876
11
104.788
21
-118.876
0
LINE
8
BLACK
6
CONTINUOUS
10
104.788
20
-118.876
11
105.074
21
-119.019
0
LINE
8
BLACK
6
CONTINUOUS
10
105.074
20
-119.019
11
105.217
21
-119.162
0
LINE
8
BLACK
6
CONTINUOUS
10
105.217
20
-119.162
11
105.36
21
-119.448
0
LINE
8
BLACK
6
CONTINUOUS
10
105.36
20
-119.448
11
105.503
21
-120.019
0
LINE
8
BLACK
6
CONTINUOUS
10
105.503
20
-120.019
11
105.503
21
-120.733
0
LINE
8
BLACK
6
CONTINUOUS
10
105.503
20
-120.733
11
105.36
21
-121.305
0
LINE
8
BLACK
6
CONTINUOUS
10
105.36
20
-121.305
11
105.217
21
-121.59
0
LINE
8
BLACK
6
CONTINUOUS
10
105.217
20
-121.59
11
105.074
21
-121.733
0
LINE
8
BLACK
6
CONTINUOUS
10
105.074
20
-121.733
11
104.788
21
-121.876
0
LINE
8
BLACK
6
CONTINUOUS
10
104.788
20
-121.876
11
104.503
21
-121.876
0
LINE
8
BLACK
6
CONTINUOUS
10
104.503
20
-121.876
11
104.217
21
-121.733
0
LINE
8
BLACK
6
CONTINUOUS
10
104.217
20
-121.733
11
104.074
21
-121.59
0
LINE
8
BLACK
6
CONTINUOUS
10
104.074
20
-121.59
11
103.931
21
-121.305
0
LINE
8
BLACK
6
CONTINUOUS
10
103.931
20
-121.305
11
103.788
21
-120.733
0
LINE
8
BLACK
6
CONTINUOUS
10
103.788
20
-120.733
11
103.788
21
-120.019
0
LINE
8
BLACK
6
CONTINUOUS
10
103.788
20
-120.019
11
103.931
21
-119.448
0
LINE
8
BLACK
6
CONTINUOUS
10
103.931
20
-119.448
11
104.074
21
-119.162
0
LINE
8
BLACK
6
CONTINUOUS
10
104.074
20
-119.162
11
104.217
21
-119.019
0
LINE
8
BLACK
6
CONTINUOUS
10
104.217
20
-119.019
11
104.503
21
-118.876
0
LINE
8
BLACK
6
CONTINUOUS
10
106.788
20
-121.59
11
106.931
21
-121.733
0
LINE
8
BLACK
6
CONTINUOUS
10
106.931
20
-121.733
11
106.788
21
-121.876
0
LINE
8
BLACK
6
CONTINUOUS
10
106.788
20
-121.876
11
106.646
21
-121.733
0
LINE
8
BLACK
6
CONTINUOUS
10
106.646
20
-121.733
11
106.788
21
-121.59
0
LINE
8
BLACK
6
CONTINUOUS
10
106.788
20
-121.59
11
106.788
21
-121.876
0
LINE
8
BLACK
6
CONTINUOUS
10
108.36
20
-121.876
11
108.931
21
-121.876
0
LINE
8
BLACK
6
CONTINUOUS
10
108.931
20
-121.876
11
109.217
21
-121.733
0
LINE
8
BLACK
6
CONTINUOUS
10
109.217
20
-121.733
11
109.36
21
-121.59
0
LINE
8
BLACK
6
CONTINUOUS
10
109.36
20
-121.59
11
109.646
21
-121.162
0
LINE
8
BLACK
6
CONTINUOUS
10
109.646
20
-121.162
11
109.788
21
-120.59
0
LINE
8
BLACK
6
CONTINUOUS
10
109.788
20
-120.59
11
109.788
21
-119.448
0
LINE
8
BLACK
6
CONTINUOUS
10
109.788
20
-119.448
11
109.646
21
-119.162
0
LINE
8
BLACK
6
CONTINUOUS
10
109.646
20
-119.162
11
109.503
21
-119.019
0
LINE
8
BLACK
6
CONTINUOUS
10
109.503
20
-119.019
11
109.217
21
-118.876
0
LINE
8
BLACK
6
CONTINUOUS
10
109.217
20
-118.876
11
108.646
21
-118.876
0
LINE
8
BLACK
6
CONTINUOUS
10
108.646
20
-118.876
11
108.36
21
-119.019
0
LINE
8
BLACK
6
CONTINUOUS
10
108.36
20
-119.019
11
108.217
21
-119.162
0
LINE
8
BLACK
6
CONTINUOUS
10
108.217
20
-119.162
11
108.074
21
-119.448
0
LINE
8
BLACK
6
CONTINUOUS
10
108.074
20
-119.448
11
108.074
21
-120.162
0
LINE
8
BLACK
6
CONTINUOUS
10
108.074
20
-120.162
11
108.217
21
-120.448
0
LINE
8
BLACK
6
CONTINUOUS
10
108.217
20
-120.448
11
108.36
21
-120.59
0
LINE
8
BLACK
6
CONTINUOUS
10
108.36
20
-120.59
11
108.646
21
-120.733
0
LINE
8
BLACK
6
CONTINUOUS
10
108.646
20
-120.733
11
109.217
21
-120.733
0
LINE
8
BLACK
6
CONTINUOUS
10
109.217
20
-120.733
11
109.503
21
-120.59
0
LINE
8
BLACK
6
CONTINUOUS
10
109.503
20
-120.59
11
109.646
21
-120.448
0
LINE
8
BLACK
6
CONTINUOUS
10
109.646
20
-120.448
11
109.788
21
-120.162
0
LINE
8
BLACK
6
CONTINUOUS
10
111.646
20
-118.876
11
111.931
21
-118.876
0
LINE
8
BLACK
6
CONTINUOUS
10
111.931
20
-118.876
11
112.217
21
-119.019
0
LINE
8
BLACK
6
CONTINUOUS
10
112.217
20
-119.019
11
112.36
21
-119.162
0
LINE
8
BLACK
6
CONTINUOUS
10
112.36
20
-119.162
11
112.503
21
-119.448
0
LINE
8
BLACK
6
CONTINUOUS
10
112.503
20
-119.448
11
112.646
21
-120.019
0
LINE
8
BLACK
6
CONTINUOUS
10
112.646
20
-120.019
11
112.646
21
-120.733
0
LINE
8
BLACK
6
CONTINUOUS
10
112.646
20
-120.733
11
112.503
21
-121.305
0
LINE
8
BLACK
6
CONTINUOUS
10
112.503
20
-121.305
11
112.36
21
-121.59
0
LINE
8
BLACK
6
CONTINUOUS
10
112.36
20
-121.59
11
112.217
21
-121.733
0
LINE
8
BLACK
6
CONTINUOUS
10
112.217
20
-121.733
11
111.931
21
-121.876
0
LINE
8
BLACK
6
CONTINUOUS
10
111.931
20
-121.876
11
111.646
21
-121.876
0
LINE
8
BLACK
6
CONTINUOUS
10
111.646
20
-121.876
11
111.36
21
-121.733
0
LINE
8
BLACK
6
CONTINUOUS
10
111.36
20
-121.733
11
111.217
21
-121.59
0
LINE
8
BLACK
6
CONTINUOUS
10
111.217
20
-121.59
11
111.074
21
-121.305
0
LINE
8
BLACK
6
CONTINUOUS
10
111.074
20
-121.305
11
110.931
21
-120.733
0
LINE
8
BLACK
6
CONTINUOUS
10
110.931
20
-120.733
11
110.931
21
-120.019
0
LINE
8
BLACK
6
CONTINUOUS
10
110.931
20
-120.019
11
111.074
21
-119.448
0
LINE
8
BLACK
6
CONTINUOUS
10
111.074
20
-119.448
11
111.217
21
-119.162
0
LINE
8
BLACK
6
CONTINUOUS
10
111.217
20
-119.162
11
111.36
21
-119.019
0
LINE
8
BLACK
6
CONTINUOUS
10
111.36
20
-119.019
11
111.646
21
-118.876
0
LINE
8
BLACK
6
CONTINUOUS
10
113.931
20
-121.876
11
113.931
21
-119.876
0
LINE
8
BLACK
6
CONTINUOUS
10
113.931
20
-120.162
11
114.074
21
-120.019
0
LINE
8
BLACK
6
CONTINUOUS
10
114.074
20
-120.019
11
114.36
21
-119.876
0
LINE
8
BLACK
6
CONTINUOUS
10
114.36
20
-119.876
11
114.788
21
-119.876
0
LINE
8
BLACK
6
CONTINUOUS
10
114.788
20
-119.876
11
115.074
21
-120.019
0
LINE
8
BLACK
6
CONTINUOUS
10
115.074
20
-120.019
11
115.217
21
-120.305
0
LINE
8
BLACK
6
CONTINUOUS
10
115.217
20
-120.305
11
115.217
21
-121.876
0
LINE
8
BLACK
6
CONTINUOUS
10
115.217
20
-120.305
11
115.36
21
-120.019
0
LINE
8
BLACK
6
CONTINUOUS
10
115.36
20
-120.019
11
115.646
21
-119.876
0
LINE
8
BLACK
6
CONTINUOUS
10
115.646
20
-119.876
11
116.074
21
-119.876
0
LINE
8
BLACK
6
CONTINUOUS
10
116.074
20
-119.876
11
116.36
21
-120.019
0
LINE
8
BLACK
6
CONTINUOUS
10
116.36
20
-120.019
11
116.503
21
-120.305
0
LINE
8
BLACK
6
CONTINUOUS
10
116.503
20
-120.305
11
116.503
21
-121.876
0
LINE
8
BLACK
6
CONTINUOUS
10
117.931
20
-121.876
11
117.931
21
-119.876
0
LINE
8
BLACK
6
CONTINUOUS
10
117.931
20
-120.162
11
118.074
21
-120.019
0
LINE
8
BLACK
6
CONTINUOUS
10
118.074
20
-120.019
11
118.36
21
-119.876
0
LINE
8
BLACK
6
CONTINUOUS
10
118.36
20
-119.876
11
118.788
21
-119.876
0
LINE
8
BLACK
6
CONTINUOUS
10
118.788
20
-119.876
11
119.074
21
-120.019
0
LINE
8
BLACK
6
CONTINUOUS
10
119.074
20
-120.019
11
119.217
21
-120.305
0
LINE
8
BLACK
6
CONTINUOUS
10
119.217
20
-120.305
11
119.217
21
-121.876
0
LINE
8
BLACK
6
CONTINUOUS
10
119.217
20
-120.305
11
119.36
21
-120.019
0
LINE
8
BLACK
6
CONTINUOUS
10
119.36
20
-120.019
11
119.646
21
-119.876
0
LINE
8
BLACK
6
CONTINUOUS
10
119.646
20
-119.876
11
120.074
21
-119.876
0
LINE
8
BLACK
6
CONTINUOUS
10
120.074
20
-119.876
11
120.36
21
-120.019
0
LINE
8
BLACK
6
CONTINUOUS
10
120.36
20
-120.019
11
120.503
21
-120.305
0
LINE
8
BLACK
6
CONTINUOUS
10
120.503
20
-120.305
11
120.503
21
-121.876
0
LINE
8
BLACK
6
CONTINUOUS
10
126.36
20
-118.733
11
123.788
21
-122.59
0
LINE
8
BLACK
6
CONTINUOUS
10
130.217
20
-118.876
11
130.503
21
-118.876
0
LINE
8
BLACK
6
CONTINUOUS
10
130.503
20
-118.876
11
130.788
21
-119.019
0
LINE
8
BLACK
6
CONTINUOUS
10
130.788
20
-119.019
11
130.931
21
-119.162
0
LINE
8
BLACK
6
CONTINUOUS
10
130.931
20
-119.162
11
131.074
21
-119.448
0
LINE
8
BLACK
6
CONTINUOUS
10
131.074
20
-119.448
11
131.217
21
-120.019
0
LINE
8
BLACK
6
CONTINUOUS
10
131.217
20
-120.019
11
131.217
21
-120.733
0
LINE
8
BLACK
6
CONTINUOUS
10
131.217
20
-120.733
11
131.074
21
-121.305
0
LINE
8
BLACK
6
CONTINUOUS
10
131.074
20
-121.305
11
130.931
21
-121.59
0
LINE
8
BLACK
6
CONTINUOUS
10
130.931
20
-121.59
11
130.788
21
-121.733
0
LINE
8
BLACK
6
CONTINUOUS
10
130.788
20
-121.733
11
130.503
21
-121.876
0
LINE
8
BLACK
6
CONTINUOUS
10
130.503
20
-121.876
11
130.217
21
-121.876
0
LINE
8
BLACK
6
CONTINUOUS
10
130.217
20
-121.876
11
129.931
21
-121.733
0
LINE
8
BLACK
6
CONTINUOUS
10
129.931
20
-121.733
11
129.788
21
-121.59
0
LINE
8
BLACK
6
CONTINUOUS
10
129.788
20
-121.59
11
129.646
21
-121.305
0
LINE
8
BLACK
6
CONTINUOUS
10
129.646
20
-121.305
11
129.503
21
-120.733
0
LINE
8
BLACK
6
CONTINUOUS
10
129.503
20
-120.733
11
129.503
21
-120.019
0
LINE
8
BLACK
6
CONTINUOUS
10
129.503
20
-120.019
11
129.646
21
-119.448
0
LINE
8
BLACK
6
CONTINUOUS
10
129.646
20
-119.448
11
129.788
21
-119.162
0
LINE
8
BLACK
6
CONTINUOUS
10
129.788
20
-119.162
11
129.931
21
-119.019
0
LINE
8
BLACK
6
CONTINUOUS
10
129.931
20
-119.019
11
130.217
21
-118.876
0
LINE
8
BLACK
6
CONTINUOUS
10
132.503
20
-121.59
11
132.646
21
-121.733
0
LINE
8
BLACK
6
CONTINUOUS
10
132.646
20
-121.733
11
132.503
21
-121.876
0
LINE
8
BLACK
6
CONTINUOUS
10
132.503
20
-121.876
11
132.36
21
-121.733
0
LINE
8
BLACK
6
CONTINUOUS
10
132.36
20
-121.733
11
132.503
21
-121.59
0
LINE
8
BLACK
6
CONTINUOUS
10
132.503
20
-121.59
11
132.503
21
-121.876
0
LINE
8
BLACK
6
CONTINUOUS
10
134.503
20
-118.876
11
134.788
21
-118.876
0
LINE
8
BLACK
6
CONTINUOUS
10
134.788
20
-118.876
11
135.074
21
-119.019
0
LINE
8
BLACK
6
CONTINUOUS
10
135.074
20
-119.019
11
135.217
21
-119.162
0
LINE
8
BLACK
6
CONTINUOUS
10
135.217
20
-119.162
11
135.36
21
-119.448
0
LINE
8
BLACK
6
CONTINUOUS
10
135.36
20
-119.448
11
135.503
21
-120.019
0
LINE
8
BLACK
6
CONTINUOUS
10
135.503
20
-120.019
11
135.503
21
-120.733
0
LINE
8
BLACK
6
CONTINUOUS
10
135.503
20
-120.733
11
135.36
21
-121.305
0
LINE
8
BLACK
6
CONTINUOUS
10
135.36
20
-121.305
11
135.217
21
-121.59
0
LINE
8
BLACK
6
CONTINUOUS
10
135.217
20
-121.59
11
135.074
21
-121.733
0
LINE
8
BLACK
6
CONTINUOUS
10
135.074
20
-121.733
11
134.788
21
-121.876
0
LINE
8
BLACK
6
CONTINUOUS
10
134.788
20
-121.876
11
134.503
21
-121.876
0
LINE
8
BLACK
6
CONTINUOUS
10
134.503
20
-121.876
11
134.217
21
-121.733
0
LINE
8
BLACK
6
CONTINUOUS
10
134.217
20
-121.733
11
134.074
21
-121.59
0
LINE
8
BLACK
6
CONTINUOUS
10
134.074
20
-121.59
11
133.931
21
-121.305
0
LINE
8
BLACK
6
CONTINUOUS
10
133.931
20
-121.305
11
133.788
21
-120.733
0
LINE
8
BLACK
6
CONTINUOUS
10
133.788
20
-120.733
11
133.788
21
-120.019
0
LINE
8
BLACK
6
CONTINUOUS
10
133.788
20
-120.019
11
133.931
21
-119.448
0
LINE
8
BLACK
6
CONTINUOUS
10
133.931
20
-119.448
11
134.074
21
-119.162
0
LINE
8
BLACK
6
CONTINUOUS
10
134.074
20
-119.162
11
134.217
21
-119.019
0
LINE
8
BLACK
6
CONTINUOUS
10
134.217
20
-119.019
11
134.503
21
-118.876
0
LINE
8
BLACK
6
CONTINUOUS
10
136.503
20
-118.876
11
138.36
21
-118.876
0
LINE
8
BLACK
6
CONTINUOUS
10
138.36
20
-118.876
11
137.36
21
-120.019
0
LINE
8
BLACK
6
CONTINUOUS
10
137.36
20
-120.019
11
137.788
21
-120.019
0
LINE
8
BLACK
6
CONTINUOUS
10
137.788
20
-120.019
11
138.074
21
-120.162
0
LINE
8
BLACK
6
CONTINUOUS
10
138.074
20
-120.162
11
138.217
21
-120.305
0
LINE
8
BLACK
6
CONTINUOUS
10
138.217
20
-120.305
11
138.36
21
-120.59
0
LINE
8
BLACK
6
CONTINUOUS
10
138.36
20
-120.59
11
138.36
21
-121.305
0
LINE
8
BLACK
6
CONTINUOUS
10
138.36
20
-121.305
11
138.217
21
-121.59
0
LINE
8
BLACK
6
CONTINUOUS
10
138.217
20
-121.59
11
138.074
21
-121.733
0
LINE
8
BLACK
6
CONTINUOUS
10
138.074
20
-121.733
11
137.788
21
-121.876
0
LINE
8
BLACK
6
CONTINUOUS
10
137.788
20
-121.876
11
136.931
21
-121.876
0
LINE
8
BLACK
6
CONTINUOUS
10
136.931
20
-121.876
11
136.646
21
-121.733
0
LINE
8
BLACK
6
CONTINUOUS
10
136.646
20
-121.733
11
136.503
21
-121.59
0
LINE
8
BLACK
6
CONTINUOUS
10
141.074
20
-118.876
11
139.646
21
-118.876
0
LINE
8
BLACK
6
CONTINUOUS
10
139.646
20
-118.876
11
139.503
21
-120.305
0
LINE
8
BLACK
6
CONTINUOUS
10
139.503
20
-120.305
11
139.646
21
-120.162
0
LINE
8
BLACK
6
CONTINUOUS
10
139.646
20
-120.162
11
139.931
21
-120.019
0
LINE
8
BLACK
6
CONTINUOUS
10
139.931
20
-120.019
11
140.646
21
-120.019
0
LINE
8
BLACK
6
CONTINUOUS
10
140.646
20
-120.019
11
140.931
21
-120.162
0
LINE
8
BLACK
6
CONTINUOUS
10
140.931
20
-120.162
11
141.074
21
-120.305
0
LINE
8
BLACK
6
CONTINUOUS
10
141.074
20
-120.305
11
141.217
21
-120.59
0
LINE
8
BLACK
6
CONTINUOUS
10
141.217
20
-120.59
11
141.217
21
-121.305
0
LINE
8
BLACK
6
CONTINUOUS
10
141.217
20
-121.305
11
141.074
21
-121.59
0
LINE
8
BLACK
6
CONTINUOUS
10
141.074
20
-121.59
11
140.931
21
-121.733
0
LINE
8
BLACK
6
CONTINUOUS
10
140.931
20
-121.733
11
140.646
21
-121.876
0
LINE
8
BLACK
6
CONTINUOUS
10
140.646
20
-121.876
11
139.931
21
-121.876
0
LINE
8
BLACK
6
CONTINUOUS
10
139.931
20
-121.876
11
139.646
21
-121.733
0
LINE
8
BLACK
6
CONTINUOUS
10
139.646
20
-121.733
11
139.503
21
-121.59
0
LINE
8
BLACK
6
CONTINUOUS
10
142.36
20
-118.876
11
142.36
21
-119.448
0
LINE
8
BLACK
6
CONTINUOUS
10
143.503
20
-118.876
11
143.503
21
-119.448
0
LINE
8
BLACK
6
CONTINUOUS
10
147.931
20
-123.019
11
147.788
21
-122.876
0
LINE
8
BLACK
6
CONTINUOUS
10
147.788
20
-122.876
11
147.503
21
-122.448
0
LINE
8
BLACK
6
CONTINUOUS
10
147.503
20
-122.448
11
147.36
21
-122.162
0
LINE
8
BLACK
6
CONTINUOUS
10
147.36
20
-122.162
11
147.217
21
-121.733
0
LINE
8
BLACK
6
CONTINUOUS
10
147.217
20
-121.733
11
147.074
21
-121.019
0
LINE
8
BLACK
6
CONTINUOUS
10
147.074
20
-121.019
11
147.074
21
-120.448
0
LINE
8
BLACK
6
CONTINUOUS
10
147.074
20
-120.448
11
147.217
21
-119.733
0
LINE
8
BLACK
6
CONTINUOUS
10
147.217
20
-119.733
11
147.36
21
-119.305
0
LINE
8
BLACK
6
CONTINUOUS
10
147.36
20
-119.305
11
147.503
21
-119.019
0
LINE
8
BLACK
6
CONTINUOUS
10
147.503
20
-119.019
11
147.788
21
-118.59
0
LINE
8
BLACK
6
CONTINUOUS
10
147.788
20
-118.59
11
147.931
21
-118.448
0
LINE
8
BLACK
6
CONTINUOUS
10
150.36
20
-119.876
11
150.36
21
-121.876
0
LINE
8
BLACK
6
CONTINUOUS
10
149.646
20
-118.733
11
148.931
21
-120.876
0
LINE
8
BLACK
6
CONTINUOUS
10
148.931
20
-120.876
11
150.788
21
-120.876
0
LINE
8
BLACK
6
CONTINUOUS
10
154.217
20
-121.876
11
154.217
21
-118.876
0
LINE
8
BLACK
6
CONTINUOUS
10
155.503
20
-121.876
11
155.503
21
-120.305
0
LINE
8
BLACK
6
CONTINUOUS
10
155.503
20
-120.305
11
155.36
21
-120.019
0
LINE
8
BLACK
6
CONTINUOUS
10
155.36
20
-120.019
11
155.074
21
-119.876
0
LINE
8
BLACK
6
CONTINUOUS
10
155.074
20
-119.876
11
154.646
21
-119.876
0
LINE
8
BLACK
6
CONTINUOUS
10
154.646
20
-119.876
11
154.36
21
-120.019
0
LINE
8
BLACK
6
CONTINUOUS
10
154.36
20
-120.019
11
154.217
21
-120.162
0
LINE
8
BLACK
6
CONTINUOUS
10
157.36
20
-121.876
11
157.074
21
-121.733
0
LINE
8
BLACK
6
CONTINUOUS
10
157.074
20
-121.733
11
156.931
21
-121.59
0
LINE
8
BLACK
6
CONTINUOUS
10
156.931
20
-121.59
11
156.788
21
-121.305
0
LINE
8
BLACK
6
CONTINUOUS
10
156.788
20
-121.305
11
156.788
21
-120.448
0
LINE
8
BLACK
6
CONTINUOUS
10
156.788
20
-120.448
11
156.931
21
-120.162
0
LINE
8
BLACK
6
CONTINUOUS
10
156.931
20
-120.162
11
157.074
21
-120.019
0
LINE
8
BLACK
6
CONTINUOUS
10
157.074
20
-120.019
11
157.36
21
-119.876
0
LINE
8
BLACK
6
CONTINUOUS
10
157.36
20
-119.876
11
157.788
21
-119.876
0
LINE
8
BLACK
6
CONTINUOUS
10
157.788
20
-119.876
11
158.074
21
-120.019
0
LINE
8
BLACK
6
CONTINUOUS
10
158.074
20
-120.019
11
158.217
21
-120.162
0
LINE
8
BLACK
6
CONTINUOUS
10
158.217
20
-120.162
11
158.36
21
-120.448
0
LINE
8
BLACK
6
CONTINUOUS
10
158.36
20
-120.448
11
158.36
21
-121.305
0
LINE
8
BLACK
6
CONTINUOUS
10
158.36
20
-121.305
11
158.217
21
-121.59
0
LINE
8
BLACK
6
CONTINUOUS
10
158.217
20
-121.59
11
158.074
21
-121.733
0
LINE
8
BLACK
6
CONTINUOUS
10
158.074
20
-121.733
11
157.788
21
-121.876
0
LINE
8
BLACK
6
CONTINUOUS
10
157.788
20
-121.876
11
157.36
21
-121.876
0
LINE
8
BLACK
6
CONTINUOUS
10
160.074
20
-121.876
11
159.788
21
-121.733
0
LINE
8
BLACK
6
CONTINUOUS
10
159.788
20
-121.733
11
159.646
21
-121.448
0
LINE
8
BLACK
6
CONTINUOUS
10
159.646
20
-121.448
11
159.646
21
-118.876
0
LINE
8
BLACK
6
CONTINUOUS
10
162.36
20
-121.733
11
162.074
21
-121.876
0
LINE
8
BLACK
6
CONTINUOUS
10
162.074
20
-121.876
11
161.503
21
-121.876
0
LINE
8
BLACK
6
CONTINUOUS
10
161.503
20
-121.876
11
161.217
21
-121.733
0
LINE
8
BLACK
6
CONTINUOUS
10
161.217
20
-121.733
11
161.074
21
-121.448
0
LINE
8
BLACK
6
CONTINUOUS
10
161.074
20
-121.448
11
161.074
21
-120.305
0
LINE
8
BLACK
6
CONTINUOUS
10
161.074
20
-120.305
11
161.217
21
-120.019
0
LINE
8
BLACK
6
CONTINUOUS
10
161.217
20
-120.019
11
161.503
21
-119.876
0
LINE
8
BLACK
6
CONTINUOUS
10
161.503
20
-119.876
11
162.074
21
-119.876
0
LINE
8
BLACK
6
CONTINUOUS
10
162.074
20
-119.876
11
162.36
21
-120.019
0
LINE
8
BLACK
6
CONTINUOUS
10
162.36
20
-120.019
11
162.503
21
-120.305
0
LINE
8
BLACK
6
CONTINUOUS
10
162.503
20
-120.305
11
162.503
21
-120.59
0
LINE
8
BLACK
6
CONTINUOUS
10
162.503
20
-120.59
11
161.074
21
-120.876
0
LINE
8
BLACK
6
CONTINUOUS
10
163.646
20
-121.733
11
163.931
21
-121.876
0
LINE
8
BLACK
6
CONTINUOUS
10
163.931
20
-121.876
11
164.503
21
-121.876
0
LINE
8
BLACK
6
CONTINUOUS
10
164.503
20
-121.876
11
164.788
21
-121.733
0
LINE
8
BLACK
6
CONTINUOUS
10
164.788
20
-121.733
11
164.931
21
-121.448
0
LINE
8
BLACK
6
CONTINUOUS
10
164.931
20
-121.448
11
164.931
21
-121.305
0
LINE
8
BLACK
6
CONTINUOUS
10
164.931
20
-121.305
11
164.788
21
-121.019
0
LINE
8
BLACK
6
CONTINUOUS
10
164.788
20
-121.019
11
164.503
21
-120.876
0
LINE
8
BLACK
6
CONTINUOUS
10
164.503
20
-120.876
11
164.074
21
-120.876
0
LINE
8
BLACK
6
CONTINUOUS
10
164.074
20
-120.876
11
163.788
21
-120.733
0
LINE
8
BLACK
6
CONTINUOUS
10
163.788
20
-120.733
11
163.646
21
-120.448
0
LINE
8
BLACK
6
CONTINUOUS
10
163.646
20
-120.448
11
163.646
21
-120.305
0
LINE
8
BLACK
6
CONTINUOUS
10
163.646
20
-120.305
11
163.788
21
-120.019
0
LINE
8
BLACK
6
CONTINUOUS
10
163.788
20
-120.019
11
164.074
21
-119.876
0
LINE
8
BLACK
6
CONTINUOUS
10
164.074
20
-119.876
11
164.503
21
-119.876
0
LINE
8
BLACK
6
CONTINUOUS
10
164.503
20
-119.876
11
164.788
21
-120.019
0
LINE
8
BLACK
6
CONTINUOUS
10
165.931
20
-123.019
11
166.074
21
-122.876
0
LINE
8
BLACK
6
CONTINUOUS
10
166.074
20
-122.876
11
166.36
21
-122.448
0
LINE
8
BLACK
6
CONTINUOUS
10
166.36
20
-122.448
11
166.503
21
-122.162
0
LINE
8
BLACK
6
CONTINUOUS
10
166.503
20
-122.162
11
166.646
21
-121.733
0
LINE
8
BLACK
6
CONTINUOUS
10
166.646
20
-121.733
11
166.788
21
-121.019
0
LINE
8
BLACK
6
CONTINUOUS
10
166.788
20
-121.019
11
166.788
21
-120.448
0
LINE
8
BLACK
6
CONTINUOUS
10
166.788
20
-120.448
11
166.646
21
-119.733
0
LINE
8
BLACK
6
CONTINUOUS
10
166.646
20
-119.733
11
166.503
21
-119.305
0
LINE
8
BLACK
6
CONTINUOUS
10
166.503
20
-119.305
11
166.36
21
-119.019
0
LINE
8
BLACK
6
CONTINUOUS
10
166.36
20
-119.019
11
166.074
21
-118.59
0
LINE
8
BLACK
6
CONTINUOUS
10
166.074
20
-118.59
11
165.931
21
-118.448
0
LINE
8
BLACK
6
CONTINUOUS
10
100.567
20
-123.979
11
100.567
21
-124.979
0
LINE
8
BLACK
6
CONTINUOUS
10
100.067
20
-124.479
11
101.067
21
-124.479
0
LINE
8
BLACK
6
CONTINUOUS
10
105.503
20
-125.836
11
103.788
21
-125.836
0
LINE
8
BLACK
6
CONTINUOUS
10
104.646
20
-125.836
11
104.646
21
-122.836
0
LINE
8
BLACK
6
CONTINUOUS
10
104.646
20
-122.836
11
104.36
21
-123.265
0
LINE
8
BLACK
6
CONTINUOUS
10
104.36
20
-123.265
11
104.074
21
-123.55
0
LINE
8
BLACK
6
CONTINUOUS
10
104.074
20
-123.55
11
103.788
21
-123.693
0
LINE
8
BLACK
6
CONTINUOUS
10
106.788
20
-125.55
11
106.931
21
-125.693
0
LINE
8
BLACK
6
CONTINUOUS
10
106.931
20
-125.693
11
106.788
21
-125.836
0
LINE
8
BLACK
6
CONTINUOUS
10
106.788
20
-125.836
11
106.646
21
-125.693
0
LINE
8
BLACK
6
CONTINUOUS
10
106.646
20
-125.693
11
106.788
21
-125.55
0
LINE
8
BLACK
6
CONTINUOUS
10
106.788
20
-125.55
11
106.788
21
-125.836
0
LINE
8
BLACK
6
CONTINUOUS
10
108.788
20
-122.836
11
109.074
21
-122.836
0
LINE
8
BLACK
6
CONTINUOUS
10
109.074
20
-122.836
11
109.36
21
-122.979
0
LINE
8
BLACK
6
CONTINUOUS
10
109.36
20
-122.979
11
109.503
21
-123.122
0
LINE
8
BLACK
6
CONTINUOUS
10
109.503
20
-123.122
11
109.646
21
-123.408
0
LINE
8
BLACK
6
CONTINUOUS
10
109.646
20
-123.408
11
109.788
21
-123.979
0
LINE
8
BLACK
6
CONTINUOUS
10
109.788
20
-123.979
11
109.788
21
-124.693
0
LINE
8
BLACK
6
CONTINUOUS
10
109.788
20
-124.693
11
109.646
21
-125.265
0
LINE
8
BLACK
6
CONTINUOUS
10
109.646
20
-125.265
11
109.503
21
-125.55
0
LINE
8
BLACK
6
CONTINUOUS
10
109.503
20
-125.55
11
109.36
21
-125.693
0
LINE
8
BLACK
6
CONTINUOUS
10
109.36
20
-125.693
11
109.074
21
-125.836
0
LINE
8
BLACK
6
CONTINUOUS
10
109.074
20
-125.836
11
108.788
21
-125.836
0
LINE
8
BLACK
6
CONTINUOUS
10
108.788
20
-125.836
11
108.503
21
-125.693
0
LINE
8
BLACK
6
CONTINUOUS
10
108.503
20
-125.693
11
108.36
21
-125.55
0
LINE
8
BLACK
6
CONTINUOUS
10
108.36
20
-125.55
11
108.217
21
-125.265
0
LINE
8
BLACK
6
CONTINUOUS
10
108.217
20
-125.265
11
108.074
21
-124.693
0
LINE
8
BLACK
6
CONTINUOUS
10
108.074
20
-124.693
11
108.074
21
-123.979
0
LINE
8
BLACK
6
CONTINUOUS
10
108.074
20
-123.979
11
108.217
21
-123.408
0
LINE
8
BLACK
6
CONTINUOUS
10
108.217
20
-123.408
11
108.36
21
-123.122
0
LINE
8
BLACK
6
CONTINUOUS
10
108.36
20
-123.122
11
108.503
21
-122.979
0
LINE
8
BLACK
6
CONTINUOUS
10
108.503
20
-122.979
11
108.788
21
-122.836
0
LINE
8
BLACK
6
CONTINUOUS
10
111.646
20
-122.836
11
111.931
21
-122.836
0
LINE
8
BLACK
6
CONTINUOUS
10
111.931
20
-122.836
11
112.217
21
-122.979
0
LINE
8
BLACK
6
CONTINUOUS
10
112.217
20
-122.979
11
112.36
21
-123.122
0
LINE
8
BLACK
6
CONTINUOUS
10
112.36
20
-123.122
11
112.503
21
-123.408
0
LINE
8
BLACK
6
CONTINUOUS
10
112.503
20
-123.408
11
112.646
21
-123.979
0
LINE
8
BLACK
6
CONTINUOUS
10
112.646
20
-123.979
11
112.646
21
-124.693
0
LINE
8
BLACK
6
CONTINUOUS
10
112.646
20
-124.693
11
112.503
21
-125.265
0
LINE
8
BLACK
6
CONTINUOUS
10
112.503
20
-125.265
11
112.36
21
-125.55
0
LINE
8
BLACK
6
CONTINUOUS
10
112.36
20
-125.55
11
112.217
21
-125.693
0
LINE
8
BLACK
6
CONTINUOUS
10
112.217
20
-125.693
11
111.931
21
-125.836
0
LINE
8
BLACK
6
CONTINUOUS
10
111.931
20
-125.836
11
111.646
21
-125.836
0
LINE
8
BLACK
6
CONTINUOUS
10
111.646
20
-125.836
11
111.36
21
-125.693
0
LINE
8
BLACK
6
CONTINUOUS
10
111.36
20
-125.693
11
111.217
21
-125.55
0
LINE
8
BLACK
6
CONTINUOUS
10
111.217
20
-125.55
11
111.074
21
-125.265
0
LINE
8
BLACK
6
CONTINUOUS
10
111.074
20
-125.265
11
110.931
21
-124.693
0
LINE
8
BLACK
6
CONTINUOUS
10
110.931
20
-124.693
11
110.931
21
-123.979
0
LINE
8
BLACK
6
CONTINUOUS
10
110.931
20
-123.979
11
111.074
21
-123.408
0
LINE
8
BLACK
6
CONTINUOUS
10
111.074
20
-123.408
11
111.217
21
-123.122
0
LINE
8
BLACK
6
CONTINUOUS
10
111.217
20
-123.122
11
111.36
21
-122.979
0
LINE
8
BLACK
6
CONTINUOUS
10
111.36
20
-122.979
11
111.646
21
-122.836
0
LINE
8
BLACK
6
CONTINUOUS
10
113.931
20
-125.836
11
113.931
21
-123.836
0
LINE
8
BLACK
6
CONTINUOUS
10
113.931
20
-124.122
11
114.074
21
-123.979
0
LINE
8
BLACK
6
CONTINUOUS
10
114.074
20
-123.979
11
114.36
21
-123.836
0
LINE
8
BLACK
6
CONTINUOUS
10
114.36
20
-123.836
11
114.788
21
-123.836
0
LINE
8
BLACK
6
CONTINUOUS
10
114.788
20
-123.836
11
115.074
21
-123.979
0
LINE
8
BLACK
6
CONTINUOUS
10
115.074
20
-123.979
11
115.217
21
-124.265
0
LINE
8
BLACK
6
CONTINUOUS
10
115.217
20
-124.265
11
115.217
21
-125.836
0
LINE
8
BLACK
6
CONTINUOUS
10
115.217
20
-124.265
11
115.36
21
-123.979
0
LINE
8
BLACK
6
CONTINUOUS
10
115.36
20
-123.979
11
115.646
21
-123.836
0
LINE
8
BLACK
6
CONTINUOUS
10
115.646
20
-123.836
11
116.074
21
-123.836
0
LINE
8
BLACK
6
CONTINUOUS
10
116.074
20
-123.836
11
116.36
21
-123.979
0
LINE
8
BLACK
6
CONTINUOUS
10
116.36
20
-123.979
11
116.503
21
-124.265
0
LINE
8
BLACK
6
CONTINUOUS
10
116.503
20
-124.265
11
116.503
21
-125.836
0
LINE
8
BLACK
6
CONTINUOUS
10
117.931
20
-125.836
11
117.931
21
-123.836
0
LINE
8
BLACK
6
CONTINUOUS
10
117.931
20
-124.122
11
118.074
21
-123.979
0
LINE
8
BLACK
6
CONTINUOUS
10
118.074
20
-123.979
11
118.36
21
-123.836
0
LINE
8
BLACK
6
CONTINUOUS
10
118.36
20
-123.836
11
118.788
21
-123.836
0
LINE
8
BLACK
6
CONTINUOUS
10
118.788
20
-123.836
11
119.074
21
-123.979
0
LINE
8
BLACK
6
CONTINUOUS
10
119.074
20
-123.979
11
119.217
21
-124.265
0
LINE
8
BLACK
6
CONTINUOUS
10
119.217
20
-124.265
11
119.217
21
-125.836
0
LINE
8
BLACK
6
CONTINUOUS
10
119.217
20
-124.265
11
119.36
21
-123.979
0
LINE
8
BLACK
6
CONTINUOUS
10
119.36
20
-123.979
11
119.646
21
-123.836
0
LINE
8
BLACK
6
CONTINUOUS
10
119.646
20
-123.836
11
120.074
21
-123.836
0
LINE
8
BLACK
6
CONTINUOUS
10
120.074
20
-123.836
11
120.36
21
-123.979
0
LINE
8
BLACK
6
CONTINUOUS
10
120.36
20
-123.979
11
120.503
21
-124.265
0
LINE
8
BLACK
6
CONTINUOUS
10
120.503
20
-124.265
11
120.503
21
-125.836
0
LINE
8
BLACK
6
CONTINUOUS
10
126.36
20
-122.693
11
123.788
21
-126.55
0
LINE
8
BLACK
6
CONTINUOUS
10
130.217
20
-122.836
11
130.503
21
-122.836
0
LINE
8
BLACK
6
CONTINUOUS
10
130.503
20
-122.836
11
130.788
21
-122.979
0
LINE
8
BLACK
6
CONTINUOUS
10
130.788
20
-122.979
11
130.931
21
-123.122
0
LINE
8
BLACK
6
CONTINUOUS
10
130.931
20
-123.122
11
131.074
21
-123.408
0
LINE
8
BLACK
6
CONTINUOUS
10
131.074
20
-123.408
11
131.217
21
-123.979
0
LINE
8
BLACK
6
CONTINUOUS
10
131.217
20
-123.979
11
131.217
21
-124.693
0
LINE
8
BLACK
6
CONTINUOUS
10
131.217
20
-124.693
11
131.074
21
-125.265
0
LINE
8
BLACK
6
CONTINUOUS
10
131.074
20
-125.265
11
130.931
21
-125.55
0
LINE
8
BLACK
6
CONTINUOUS
10
130.931
20
-125.55
11
130.788
21
-125.693
0
LINE
8
BLACK
6
CONTINUOUS
10
130.788
20
-125.693
11
130.503
21
-125.836
0
LINE
8
BLACK
6
CONTINUOUS
10
130.503
20
-125.836
11
130.217
21
-125.836
0
LINE
8
BLACK
6
CONTINUOUS
10
130.217
20
-125.836
11
129.931
21
-125.693
0
LINE
8
BLACK
6
CONTINUOUS
10
129.931
20
-125.693
11
129.788
21
-125.55
0
LINE
8
BLACK
6
CONTINUOUS
10
129.788
20
-125.55
11
129.646
21
-125.265
0
LINE
8
BLACK
6
CONTINUOUS
10
129.646
20
-125.265
11
129.503
21
-124.693
0
LINE
8
BLACK
6
CONTINUOUS
10
129.503
20
-124.693
11
129.503
21
-123.979
0
LINE
8
BLACK
6
CONTINUOUS
10
129.503
20
-123.979
11
129.646
21
-123.408
0
LINE
8
BLACK
6
CONTINUOUS
10
129.646
20
-123.408
11
129.788
21
-123.122
0
LINE
8
BLACK
6
CONTINUOUS
10
129.788
20
-123.122
11
129.931
21
-122.979
0
LINE
8
BLACK
6
CONTINUOUS
10
129.931
20
-122.979
11
130.217
21
-122.836
0
LINE
8
BLACK
6
CONTINUOUS
10
132.503
20
-125.55
11
132.646
21
-125.693
0
LINE
8
BLACK
6
CONTINUOUS
10
132.646
20
-125.693
11
132.503
21
-125.836
0
LINE
8
BLACK
6
CONTINUOUS
10
132.503
20
-125.836
11
132.36
21
-125.693
0
LINE
8
BLACK
6
CONTINUOUS
10
132.36
20
-125.693
11
132.503
21
-125.55
0
LINE
8
BLACK
6
CONTINUOUS
10
132.503
20
-125.55
11
132.503
21
-125.836
0
LINE
8
BLACK
6
CONTINUOUS
10
134.503
20
-122.836
11
134.788
21
-122.836
0
LINE
8
BLACK
6
CONTINUOUS
10
134.788
20
-122.836
11
135.074
21
-122.979
0
LINE
8
BLACK
6
CONTINUOUS
10
135.074
20
-122.979
11
135.217
21
-123.122
0
LINE
8
BLACK
6
CONTINUOUS
10
135.217
20
-123.122
11
135.36
21
-123.408
0
LINE
8
BLACK
6
CONTINUOUS
10
135.36
20
-123.408
11
135.503
21
-123.979
0
LINE
8
BLACK
6
CONTINUOUS
10
135.503
20
-123.979
11
135.503
21
-124.693
0
LINE
8
BLACK
6
CONTINUOUS
10
135.503
20
-124.693
11
135.36
21
-125.265
0
LINE
8
BLACK
6
CONTINUOUS
10
135.36
20
-125.265
11
135.217
21
-125.55
0
LINE
8
BLACK
6
CONTINUOUS
10
135.217
20
-125.55
11
135.074
21
-125.693
0
LINE
8
BLACK
6
CONTINUOUS
10
135.074
20
-125.693
11
134.788
21
-125.836
0
LINE
8
BLACK
6
CONTINUOUS
10
134.788
20
-125.836
11
134.503
21
-125.836
0
LINE
8
BLACK
6
CONTINUOUS
10
134.503
20
-125.836
11
134.217
21
-125.693
0
LINE
8
BLACK
6
CONTINUOUS
10
134.217
20
-125.693
11
134.074
21
-125.55
0
LINE
8
BLACK
6
CONTINUOUS
10
134.074
20
-125.55
11
133.931
21
-125.265
0
LINE
8
BLACK
6
CONTINUOUS
10
133.931
20
-125.265
11
133.788
21
-124.693
0
LINE
8
BLACK
6
CONTINUOUS
10
133.788
20
-124.693
11
133.788
21
-123.979
0
LINE
8
BLACK
6
CONTINUOUS
10
133.788
20
-123.979
11
133.931
21
-123.408
0
LINE
8
BLACK
6
CONTINUOUS
10
133.931
20
-123.408
11
134.074
21
-123.122
0
LINE
8
BLACK
6
CONTINUOUS
10
134.074
20
-123.122
11
134.217
21
-122.979
0
LINE
8
BLACK
6
CONTINUOUS
10
134.217
20
-122.979
11
134.503
21
-122.836
0
LINE
8
BLACK
6
CONTINUOUS
10
136.503
20
-122.836
11
138.36
21
-122.836
0
LINE
8
BLACK
6
CONTINUOUS
10
138.36
20
-122.836
11
137.36
21
-123.979
0
LINE
8
BLACK
6
CONTINUOUS
10
137.36
20
-123.979
11
137.788
21
-123.979
0
LINE
8
BLACK
6
CONTINUOUS
10
137.788
20
-123.979
11
138.074
21
-124.122
0
LINE
8
BLACK
6
CONTINUOUS
10
138.074
20
-124.122
11
138.217
21
-124.265
0
LINE
8
BLACK
6
CONTINUOUS
10
138.217
20
-124.265
11
138.36
21
-124.55
0
LINE
8
BLACK
6
CONTINUOUS
10
138.36
20
-124.55
11
138.36
21
-125.265
0
LINE
8
BLACK
6
CONTINUOUS
10
138.36
20
-125.265
11
138.217
21
-125.55
0
LINE
8
BLACK
6
CONTINUOUS
10
138.217
20
-125.55
11
138.074
21
-125.693
0
LINE
8
BLACK
6
CONTINUOUS
10
138.074
20
-125.693
11
137.788
21
-125.836
0
LINE
8
BLACK
6
CONTINUOUS
10
137.788
20
-125.836
11
136.931
21
-125.836
0
LINE
8
BLACK
6
CONTINUOUS
10
136.931
20
-125.836
11
136.646
21
-125.693
0
LINE
8
BLACK
6
CONTINUOUS
10
136.646
20
-125.693
11
136.503
21
-125.55
0
LINE
8
BLACK
6
CONTINUOUS
10
139.788
20
-125.836
11
140.36
21
-125.836
0
LINE
8
BLACK
6
CONTINUOUS
10
140.36
20
-125.836
11
140.646
21
-125.693
0
LINE
8
BLACK
6
CONTINUOUS
10
140.646
20
-125.693
11
140.788
21
-125.55
0
LINE
8
BLACK
6
CONTINUOUS
10
140.788
20
-125.55
11
141.074
21
-125.122
0
LINE
8
BLACK
6
CONTINUOUS
10
141.074
20
-125.122
11
141.217
21
-124.55
0
LINE
8
BLACK
6
CONTINUOUS
10
141.217
20
-124.55
11
141.217
21
-123.408
0
LINE
8
BLACK
6
CONTINUOUS
10
141.217
20
-123.408
11
141.074
21
-123.122
0
LINE
8
BLACK
6
CONTINUOUS
10
141.074
20
-123.122
11
140.931
21
-122.979
0
LINE
8
BLACK
6
CONTINUOUS
10
140.931
20
-122.979
11
140.646
21
-122.836
0
LINE
8
BLACK
6
CONTINUOUS
10
140.646
20
-122.836
11
140.074
21
-122.836
0
LINE
8
BLACK
6
CONTINUOUS
10
140.074
20
-122.836
11
139.788
21
-122.979
0
LINE
8
BLACK
6
CONTINUOUS
10
139.788
20
-122.979
11
139.646
21
-123.122
0
LINE
8
BLACK
6
CONTINUOUS
10
139.646
20
-123.122
11
139.503
21
-123.408
0
LINE
8
BLACK
6
CONTINUOUS
10
139.503
20
-123.408
11
139.503
21
-124.122
0
LINE
8
BLACK
6
CONTINUOUS
10
139.503
20
-124.122
11
139.646
21
-124.408
0
LINE
8
BLACK
6
CONTINUOUS
10
139.646
20
-124.408
11
139.788
21
-124.55
0
LINE
8
BLACK
6
CONTINUOUS
10
139.788
20
-124.55
11
140.074
21
-124.693
0
LINE
8
BLACK
6
CONTINUOUS
10
140.074
20
-124.693
11
140.646
21
-124.693
0
LINE
8
BLACK
6
CONTINUOUS
10
140.646
20
-124.693
11
140.931
21
-124.55
0
LINE
8
BLACK
6
CONTINUOUS
10
140.931
20
-124.55
11
141.074
21
-124.408
0
LINE
8
BLACK
6
CONTINUOUS
10
141.074
20
-124.408
11
141.217
21
-124.122
0
LINE
8
BLACK
6
CONTINUOUS
10
142.36
20
-122.836
11
142.36
21
-123.408
0
LINE
8
BLACK
6
CONTINUOUS
10
143.503
20
-122.836
11
143.503
21
-123.408
0
LINE
8
BLACK
6
CONTINUOUS
10
147.931
20
-126.979
11
147.788
21
-126.836
0
LINE
8
BLACK
6
CONTINUOUS
10
147.788
20
-126.836
11
147.503
21
-126.408
0
LINE
8
BLACK
6
CONTINUOUS
10
147.503
20
-126.408
11
147.36
21
-126.122
0
LINE
8
BLACK
6
CONTINUOUS
10
147.36
20
-126.122
11
147.217
21
-125.693
0
LINE
8
BLACK
6
CONTINUOUS
10
147.217
20
-125.693
11
147.074
21
-124.979
0
LINE
8
BLACK
6
CONTINUOUS
10
147.074
20
-124.979
11
147.074
21
-124.408
0
LINE
8
BLACK
6
CONTINUOUS
10
147.074
20
-124.408
11
147.217
21
-123.693
0
LINE
8
BLACK
6
CONTINUOUS
10
147.217
20
-123.693
11
147.36
21
-123.265
0
LINE
8
BLACK
6
CONTINUOUS
10
147.36
20
-123.265
11
147.503
21
-122.979
0
LINE
8
BLACK
6
CONTINUOUS
10
147.503
20
-122.979
11
147.788
21
-122.55
0
LINE
8
BLACK
6
CONTINUOUS
10
147.788
20
-122.55
11
147.931
21
-122.408
0
LINE
8
BLACK
6
CONTINUOUS
10
149.646
20
-122.836
11
149.931
21
-122.836
0
LINE
8
BLACK
6
CONTINUOUS
10
149.931
20
-122.836
11
150.217
21
-122.979
0
LINE
8
BLACK
6
CONTINUOUS
10
150.217
20
-122.979
11
150.36
21
-123.122
0
LINE
8
BLACK
6
CONTINUOUS
10
150.36
20
-123.122
11
150.503
21
-123.408
0
LINE
8
BLACK
6
CONTINUOUS
10
150.503
20
-123.408
11
150.646
21
-123.979
0
LINE
8
BLACK
6
CONTINUOUS
10
150.646
20
-123.979
11
150.646
21
-124.693
0
LINE
8
BLACK
6
CONTINUOUS
10
150.646
20
-124.693
11
150.503
21
-125.265
0
LINE
8
BLACK
6
CONTINUOUS
10
150.503
20
-125.265
11
150.36
21
-125.55
0
LINE
8
BLACK
6
CONTINUOUS
10
150.36
20
-125.55
11
150.217
21
-125.693
0
LINE
8
BLACK
6
CONTINUOUS
10
150.217
20
-125.693
11
149.931
21
-125.836
0
LINE
8
BLACK
6
CONTINUOUS
10
149.931
20
-125.836
11
149.646
21
-125.836
0
LINE
8
BLACK
6
CONTINUOUS
10
149.646
20
-125.836
11
149.36
21
-125.693
0
LINE
8
BLACK
6
CONTINUOUS
10
149.36
20
-125.693
11
149.217
21
-125.55
0
LINE
8
BLACK
6
CONTINUOUS
10
149.217
20
-125.55
11
149.074
21
-125.265
0
LINE
8
BLACK
6
CONTINUOUS
10
149.074
20
-125.265
11
148.931
21
-124.693
0
LINE
8
BLACK
6
CONTINUOUS
10
148.931
20
-124.693
11
148.931
21
-123.979
0
LINE
8
BLACK
6
CONTINUOUS
10
148.931
20
-123.979
11
149.074
21
-123.408
0
LINE
8
BLACK
6
CONTINUOUS
10
149.074
20
-123.408
11
149.217
21
-123.122
0
LINE
8
BLACK
6
CONTINUOUS
10
149.217
20
-123.122
11
149.36
21
-122.979
0
LINE
8
BLACK
6
CONTINUOUS
10
149.36
20
-122.979
11
149.646
21
-122.836
0
LINE
8
BLACK
6
CONTINUOUS
10
154.217
20
-125.836
11
154.217
21
-122.836
0
LINE
8
BLACK
6
CONTINUOUS
10
155.503
20
-125.836
11
155.503
21
-124.265
0
LINE
8
BLACK
6
CONTINUOUS
10
155.503
20
-124.265
11
155.36
21
-123.979
0
LINE
8
BLACK
6
CONTINUOUS
10
155.36
20
-123.979
11
155.074
21
-123.836
0
LINE
8
BLACK
6
CONTINUOUS
10
155.074
20
-123.836
11
154.646
21
-123.836
0
LINE
8
BLACK
6
CONTINUOUS
10
154.646
20
-123.836
11
154.36
21
-123.979
0
LINE
8
BLACK
6
CONTINUOUS
10
154.36
20
-123.979
11
154.217
21
-124.122
0
LINE
8
BLACK
6
CONTINUOUS
10
157.36
20
-125.836
11
157.074
21
-125.693
0
LINE
8
BLACK
6
CONTINUOUS
10
157.074
20
-125.693
11
156.931
21
-125.55
0
LINE
8
BLACK
6
CONTINUOUS
10
156.931
20
-125.55
11
156.788
21
-125.265
0
LINE
8
BLACK
6
CONTINUOUS
10
156.788
20
-125.265
11
156.788
21
-124.408
0
LINE
8
BLACK
6
CONTINUOUS
10
156.788
20
-124.408
11
156.931
21
-124.122
0
LINE
8
BLACK
6
CONTINUOUS
10
156.931
20
-124.122
11
157.074
21
-123.979
0
LINE
8
BLACK
6
CONTINUOUS
10
157.074
20
-123.979
11
157.36
21
-123.836
0
LINE
8
BLACK
6
CONTINUOUS
10
157.36
20
-123.836
11
157.788
21
-123.836
0
LINE
8
BLACK
6
CONTINUOUS
10
157.788
20
-123.836
11
158.074
21
-123.979
0
LINE
8
BLACK
6
CONTINUOUS
10
158.074
20
-123.979
11
158.217
21
-124.122
0
LINE
8
BLACK
6
CONTINUOUS
10
158.217
20
-124.122
11
158.36
21
-124.408
0
LINE
8
BLACK
6
CONTINUOUS
10
158.36
20
-124.408
11
158.36
21
-125.265
0
LINE
8
BLACK
6
CONTINUOUS
10
158.36
20
-125.265
11
158.217
21
-125.55
0
LINE
8
BLACK
6
CONTINUOUS
10
158.217
20
-125.55
11
158.074
21
-125.693
0
LINE
8
BLACK
6
CONTINUOUS
10
158.074
20
-125.693
11
157.788
21
-125.836
0
LINE
8
BLACK
6
CONTINUOUS
10
157.788
20
-125.836
11
157.36
21
-125.836
0
LINE
8
BLACK
6
CONTINUOUS
10
160.074
20
-125.836
11
159.788
21
-125.693
0
LINE
8
BLACK
6
CONTINUOUS
10
159.788
20
-125.693
11
159.646
21
-125.408
0
LINE
8
BLACK
6
CONTINUOUS
10
159.646
20
-125.408
11
159.646
21
-122.836
0
LINE
8
BLACK
6
CONTINUOUS
10
162.36
20
-125.693
11
162.074
21
-125.836
0
LINE
8
BLACK
6
CONTINUOUS
10
162.074
20
-125.836
11
161.503
21
-125.836
0
LINE
8
BLACK
6
CONTINUOUS
10
161.503
20
-125.836
11
161.217
21
-125.693
0
LINE
8
BLACK
6
CONTINUOUS
10
161.217
20
-125.693
11
161.074
21
-125.408
0
LINE
8
BLACK
6
CONTINUOUS
10
161.074
20
-125.408
11
161.074
21
-124.265
0
LINE
8
BLACK
6
CONTINUOUS
10
161.074
20
-124.265
11
161.217
21
-123.979
0
LINE
8
BLACK
6
CONTINUOUS
10
161.217
20
-123.979
11
161.503
21
-123.836
0
LINE
8
BLACK
6
CONTINUOUS
10
161.503
20
-123.836
11
162.074
21
-123.836
0
LINE
8
BLACK
6
CONTINUOUS
10
162.074
20
-123.836
11
162.36
21
-123.979
0
LINE
8
BLACK
6
CONTINUOUS
10
162.36
20
-123.979
11
162.503
21
-124.265
0
LINE
8
BLACK
6
CONTINUOUS
10
162.503
20
-124.265
11
162.503
21
-124.55
0
LINE
8
BLACK
6
CONTINUOUS
10
162.503
20
-124.55
11
161.074
21
-124.836
0
LINE
8
BLACK
6
CONTINUOUS
10
163.646
20
-125.693
11
163.931
21
-125.836
0
LINE
8
BLACK
6
CONTINUOUS
10
163.931
20
-125.836
11
164.503
21
-125.836
0
LINE
8
BLACK
6
CONTINUOUS
10
164.503
20
-125.836
11
164.788
21
-125.693
0
LINE
8
BLACK
6
CONTINUOUS
10
164.788
20
-125.693
11
164.931
21
-125.408
0
LINE
8
BLACK
6
CONTINUOUS
10
164.931
20
-125.408
11
164.931
21
-125.265
0
LINE
8
BLACK
6
CONTINUOUS
10
164.931
20
-125.265
11
164.788
21
-124.979
0
LINE
8
BLACK
6
CONTINUOUS
10
164.788
20
-124.979
11
164.503
21
-124.836
0
LINE
8
BLACK
6
CONTINUOUS
10
164.503
20
-124.836
11
164.074
21
-124.836
0
LINE
8
BLACK
6
CONTINUOUS
10
164.074
20
-124.836
11
163.788
21
-124.693
0
LINE
8
BLACK
6
CONTINUOUS
10
163.788
20
-124.693
11
163.646
21
-124.408
0
LINE
8
BLACK
6
CONTINUOUS
10
163.646
20
-124.408
11
163.646
21
-124.265
0
LINE
8
BLACK
6
CONTINUOUS
10
163.646
20
-124.265
11
163.788
21
-123.979
0
LINE
8
BLACK
6
CONTINUOUS
10
163.788
20
-123.979
11
164.074
21
-123.836
0
LINE
8
BLACK
6
CONTINUOUS
10
164.074
20
-123.836
11
164.503
21
-123.836
0
LINE
8
BLACK
6
CONTINUOUS
10
164.503
20
-123.836
11
164.788
21
-123.979
0
LINE
8
BLACK
6
CONTINUOUS
10
168.503
20
-124.693
11
170.788
21
-124.693
0
LINE
8
BLACK
6
CONTINUOUS
10
169.646
20
-125.836
11
169.646
21
-123.55
0
LINE
8
BLACK
6
CONTINUOUS
10
175.788
20
-122.836
11
175.217
21
-122.836
0
LINE
8
BLACK
6
CONTINUOUS
10
175.217
20
-122.836
11
174.931
21
-122.979
0
LINE
8
BLACK
6
CONTINUOUS
10
174.931
20
-122.979
11
174.788
21
-123.122
0
LINE
8
BLACK
6
CONTINUOUS
10
174.788
20
-123.122
11
174.503
21
-123.55
0
LINE
8
BLACK
6
CONTINUOUS
10
174.503
20
-123.55
11
174.36
21
-124.122
0
LINE
8
BLACK
6
CONTINUOUS
10
174.36
20
-124.122
11
174.36
21
-125.265
0
LINE
8
BLACK
6
CONTINUOUS
10
174.36
20
-125.265
11
174.503
21
-125.55
0
LINE
8
BLACK
6
CONTINUOUS
10
174.503
20
-125.55
11
174.646
21
-125.693
0
LINE
8
BLACK
6
CONTINUOUS
10
174.646
20
-125.693
11
174.931
21
-125.836
0
LINE
8
BLACK
6
CONTINUOUS
10
174.931
20
-125.836
11
175.503
21
-125.836
0
LINE
8
BLACK
6
CONTINUOUS
10
175.503
20
-125.836
11
175.788
21
-125.693
0
LINE
8
BLACK
6
CONTINUOUS
10
175.788
20
-125.693
11
175.931
21
-125.55
0
LINE
8
BLACK
6
CONTINUOUS
10
175.931
20
-125.55
11
176.074
21
-125.265
0
LINE
8
BLACK
6
CONTINUOUS
10
176.074
20
-125.265
11
176.074
21
-124.55
0
LINE
8
BLACK
6
CONTINUOUS
10
176.074
20
-124.55
11
175.931
21
-124.265
0
LINE
8
BLACK
6
CONTINUOUS
10
175.931
20
-124.265
11
175.788
21
-124.122
0
LINE
8
BLACK
6
CONTINUOUS
10
175.788
20
-124.122
11
175.503
21
-123.979
0
LINE
8
BLACK
6
CONTINUOUS
10
175.503
20
-123.979
11
174.931
21
-123.979
0
LINE
8
BLACK
6
CONTINUOUS
10
174.931
20
-123.979
11
174.646
21
-124.122
0
LINE
8
BLACK
6
CONTINUOUS
10
174.646
20
-124.122
11
174.503
21
-124.265
0
LINE
8
BLACK
6
CONTINUOUS
10
174.503
20
-124.265
11
174.36
21
-124.55
0
LINE
8
BLACK
6
CONTINUOUS
10
179.503
20
-125.693
11
179.788
21
-125.836
0
LINE
8
BLACK
6
CONTINUOUS
10
179.788
20
-125.836
11
180.36
21
-125.836
0
LINE
8
BLACK
6
CONTINUOUS
10
180.36
20
-125.836
11
180.646
21
-125.693
0
LINE
8
BLACK
6
CONTINUOUS
10
180.646
20
-125.693
11
180.788
21
-125.408
0
LINE
8
BLACK
6
CONTINUOUS
10
180.788
20
-125.408
11
180.788
21
-125.265
0
LINE
8
BLACK
6
CONTINUOUS
10
180.788
20
-125.265
11
180.646
21
-124.979
0
LINE
8
BLACK
6
CONTINUOUS
10
180.646
20
-124.979
11
180.36
21
-124.836
0
LINE
8
BLACK
6
CONTINUOUS
10
180.36
20
-124.836
11
179.931
21
-124.836
0
LINE
8
BLACK
6
CONTINUOUS
10
179.931
20
-124.836
11
179.646
21
-124.693
0
LINE
8
BLACK
6
CONTINUOUS
10
179.646
20
-124.693
11
179.503
21
-124.408
0
LINE
8
BLACK
6
CONTINUOUS
10
179.503
20
-124.408
11
179.503
21
-124.265
0
LINE
8
BLACK
6
CONTINUOUS
10
179.503
20
-124.265
11
179.646
21
-123.979
0
LINE
8
BLACK
6
CONTINUOUS
10
179.646
20
-123.979
11
179.931
21
-123.836
0
LINE
8
BLACK
6
CONTINUOUS
10
179.931
20
-123.836
11
180.36
21
-123.836
0
LINE
8
BLACK
6
CONTINUOUS
10
180.36
20
-123.836
11
180.646
21
-123.979
0
LINE
8
BLACK
6
CONTINUOUS
10
182.503
20
-125.836
11
182.217
21
-125.693
0
LINE
8
BLACK
6
CONTINUOUS
10
182.217
20
-125.693
11
182.074
21
-125.408
0
LINE
8
BLACK
6
CONTINUOUS
10
182.074
20
-125.408
11
182.074
21
-122.836
0
LINE
8
BLACK
6
CONTINUOUS
10
184.074
20
-125.836
11
183.788
21
-125.693
0
LINE
8
BLACK
6
CONTINUOUS
10
183.788
20
-125.693
11
183.646
21
-125.55
0
LINE
8
BLACK
6
CONTINUOUS
10
183.646
20
-125.55
11
183.503
21
-125.265
0
LINE
8
BLACK
6
CONTINUOUS
10
183.503
20
-125.265
11
183.503
21
-124.408
0
LINE
8
BLACK
6
CONTINUOUS
10
183.503
20
-124.408
11
183.646
21
-124.122
0
LINE
8
BLACK
6
CONTINUOUS
10
183.646
20
-124.122
11
183.788
21
-123.979
0
LINE
8
BLACK
6
CONTINUOUS
10
183.788
20
-123.979
11
184.074
21
-123.836
0
LINE
8
BLACK
6
CONTINUOUS
10
184.074
20
-123.836
11
184.503
21
-123.836
0
LINE
8
BLACK
6
CONTINUOUS
10
184.503
20
-123.836
11
184.788
21
-123.979
0
LINE
8
BLACK
6
CONTINUOUS
10
184.788
20
-123.979
11
184.931
21
-124.122
0
LINE
8
BLACK
6
CONTINUOUS
10
184.931
20
-124.122
11
185.074
21
-124.408
0
LINE
8
BLACK
6
CONTINUOUS
10
185.074
20
-124.408
11
185.074
21
-125.265
0
LINE
8
BLACK
6
CONTINUOUS
10
185.074
20
-125.265
11
184.931
21
-125.55
0
LINE
8
BLACK
6
CONTINUOUS
10
184.931
20
-125.55
11
184.788
21
-125.693
0
LINE
8
BLACK
6
CONTINUOUS
10
184.788
20
-125.693
11
184.503
21
-125.836
0
LINE
8
BLACK
6
CONTINUOUS
10
184.503
20
-125.836
11
184.074
21
-125.836
0
LINE
8
BLACK
6
CONTINUOUS
10
185.931
20
-123.836
11
187.074
21
-123.836
0
LINE
8
BLACK
6
CONTINUOUS
10
186.36
20
-122.836
11
186.36
21
-125.408
0
LINE
8
BLACK
6
CONTINUOUS
10
186.36
20
-125.408
11
186.503
21
-125.693
0
LINE
8
BLACK
6
CONTINUOUS
10
186.503
20
-125.693
11
186.788
21
-125.836
0
LINE
8
BLACK
6
CONTINUOUS
10
186.788
20
-125.836
11
187.074
21
-125.836
0
LINE
8
BLACK
6
CONTINUOUS
10
187.931
20
-125.693
11
188.217
21
-125.836
0
LINE
8
BLACK
6
CONTINUOUS
10
188.217
20
-125.836
11
188.788
21
-125.836
0
LINE
8
BLACK
6
CONTINUOUS
10
188.788
20
-125.836
11
189.074
21
-125.693
0
LINE
8
BLACK
6
CONTINUOUS
10
189.074
20
-125.693
11
189.217
21
-125.408
0
LINE
8
BLACK
6
CONTINUOUS
10
189.217
20
-125.408
11
189.217
21
-125.265
0
LINE
8
BLACK
6
CONTINUOUS
10
189.217
20
-125.265
11
189.074
21
-124.979
0
LINE
8
BLACK
6
CONTINUOUS
10
189.074
20
-124.979
11
188.788
21
-124.836
0
LINE
8
BLACK
6
CONTINUOUS
10
188.788
20
-124.836
11
188.36
21
-124.836
0
LINE
8
BLACK
6
CONTINUOUS
10
188.36
20
-124.836
11
188.074
21
-124.693
0
LINE
8
BLACK
6
CONTINUOUS
10
188.074
20
-124.693
11
187.931
21
-124.408
0
LINE
8
BLACK
6
CONTINUOUS
10
187.931
20
-124.408
11
187.931
21
-124.265
0
LINE
8
BLACK
6
CONTINUOUS
10
187.931
20
-124.265
11
188.074
21
-123.979
0
LINE
8
BLACK
6
CONTINUOUS
10
188.074
20
-123.979
11
188.36
21
-123.836
0
LINE
8
BLACK
6
CONTINUOUS
10
188.36
20
-123.836
11
188.788
21
-123.836
0
LINE
8
BLACK
6
CONTINUOUS
10
188.788
20
-123.836
11
189.074
21
-123.979
0
LINE
8
BLACK
6
CONTINUOUS
10
190.217
20
-126.979
11
190.36
21
-126.836
0
LINE
8
BLACK
6
CONTINUOUS
10
190.36
20
-126.836
11
190.646
21
-126.408
0
LINE
8
BLACK
6
CONTINUOUS
10
190.646
20
-126.408
11
190.788
21
-126.122
0
LINE
8
BLACK
6
CONTINUOUS
10
190.788
20
-126.122
11
190.931
21
-125.693
0
LINE
8
BLACK
6
CONTINUOUS
10
190.931
20
-125.693
11
191.074
21
-124.979
0
LINE
8
BLACK
6
CONTINUOUS
10
191.074
20
-124.979
11
191.074
21
-124.408
0
LINE
8
BLACK
6
CONTINUOUS
10
191.074
20
-124.408
11
190.931
21
-123.693
0
LINE
8
BLACK
6
CONTINUOUS
10
190.931
20
-123.693
11
190.788
21
-123.265
0
LINE
8
BLACK
6
CONTINUOUS
10
190.788
20
-123.265
11
190.646
21
-122.979
0
LINE
8
BLACK
6
CONTINUOUS
10
190.646
20
-122.979
11
190.36
21
-122.55
0
LINE
8
BLACK
6
CONTINUOUS
10
190.36
20
-122.55
11
190.217
21
-122.408
0
LINE
8
BLACK
6
CONTINUOUS
10
100.891
20
-128.863
11
100.891
21
-128.015
0
LINE
8
BLACK
6
CONTINUOUS
10
100.891
20
-128.015
11
100.043
21
-128.015
0
LINE
8
BLACK
6
CONTINUOUS
10
100.043
20
-128.015
11
100.043
21
-128.863
0
LINE
8
BLACK
6
CONTINUOUS
10
100.043
20
-128.863
11
100.891
21
-128.863
0
LINE
8
BLACK
6
CONTINUOUS
10
105.503
20
-129.796
11
103.788
21
-129.796
0
LINE
8
BLACK
6
CONTINUOUS
10
104.646
20
-129.796
11
104.646
21
-126.796
0
LINE
8
BLACK
6
CONTINUOUS
10
104.646
20
-126.796
11
104.36
21
-127.225
0
LINE
8
BLACK
6
CONTINUOUS
10
104.36
20
-127.225
11
104.074
21
-127.51
0
LINE
8
BLACK
6
CONTINUOUS
10
104.074
20
-127.51
11
103.788
21
-127.653
0
LINE
8
BLACK
6
CONTINUOUS
10
106.788
20
-129.51
11
106.931
21
-129.653
0
LINE
8
BLACK
6
CONTINUOUS
10
106.931
20
-129.653
11
106.788
21
-129.796
0
LINE
8
BLACK
6
CONTINUOUS
10
106.788
20
-129.796
11
106.646
21
-129.653
0
LINE
8
BLACK
6
CONTINUOUS
10
106.646
20
-129.653
11
106.788
21
-129.51
0
LINE
8
BLACK
6
CONTINUOUS
10
106.788
20
-129.51
11
106.788
21
-129.796
0
LINE
8
BLACK
6
CONTINUOUS
10
108.074
20
-127.082
11
108.217
21
-126.939
0
LINE
8
BLACK
6
CONTINUOUS
10
108.217
20
-126.939
11
108.503
21
-126.796
0
LINE
8
BLACK
6
CONTINUOUS
10
108.503
20
-126.796
11
109.217
21
-126.796
0
LINE
8
BLACK
6
CONTINUOUS
10
109.217
20
-126.796
11
109.503
21
-126.939
0
LINE
8
BLACK
6
CONTINUOUS
10
109.503
20
-126.939
11
109.646
21
-127.082
0
LINE
8
BLACK
6
CONTINUOUS
10
109.646
20
-127.082
11
109.788
21
-127.368
0
LINE
8
BLACK
6
CONTINUOUS
10
109.788
20
-127.368
11
109.788
21
-127.653
0
LINE
8
BLACK
6
CONTINUOUS
10
109.788
20
-127.653
11
109.646
21
-128.082
0
LINE
8
BLACK
6
CONTINUOUS
10
109.646
20
-128.082
11
107.931
21
-129.796
0
LINE
8
BLACK
6
CONTINUOUS
10
107.931
20
-129.796
11
109.788
21
-129.796
0
LINE
8
BLACK
6
CONTINUOUS
10
111.646
20
-126.796
11
111.931
21
-126.796
0
LINE
8
BLACK
6
CONTINUOUS
10
111.931
20
-126.796
11
112.217
21
-126.939
0
LINE
8
BLACK
6
CONTINUOUS
10
112.217
20
-126.939
11
112.36
21
-127.082
0
LINE
8
BLACK
6
CONTINUOUS
10
112.36
20
-127.082
11
112.503
21
-127.368
0
LINE
8
BLACK
6
CONTINUOUS
10
112.503
20
-127.368
11
112.646
21
-127.939
0
LINE
8
BLACK
6
CONTINUOUS
10
112.646
20
-127.939
11
112.646
21
-128.653
0
LINE
8
BLACK
6
CONTINUOUS
10
112.646
20
-128.653
11
112.503
21
-129.225
0
LINE
8
BLACK
6
CONTINUOUS
10
112.503
20
-129.225
11
112.36
21
-129.51
0
LINE
8
BLACK
6
CONTINUOUS
10
112.36
20
-129.51
11
112.217
21
-129.653
0
LINE
8
BLACK
6
CONTINUOUS
10
112.217
20
-129.653
11
111.931
21
-129.796
0
LINE
8
BLACK
6
CONTINUOUS
10
111.931
20
-129.796
11
111.646
21
-129.796
0
LINE
8
BLACK
6
CONTINUOUS
10
111.646
20
-129.796
11
111.36
21
-129.653
0
LINE
8
BLACK
6
CONTINUOUS
10
111.36
20
-129.653
11
111.217
21
-129.51
0
LINE
8
BLACK
6
CONTINUOUS
10
111.217
20
-129.51
11
111.074
21
-129.225
0
LINE
8
BLACK
6
CONTINUOUS
10
111.074
20
-129.225
11
110.931
21
-128.653
0
LINE
8
BLACK
6
CONTINUOUS
10
110.931
20
-128.653
11
110.931
21
-127.939
0
LINE
8
BLACK
6
CONTINUOUS
10
110.931
20
-127.939
11
111.074
21
-127.368
0
LINE
8
BLACK
6
CONTINUOUS
10
111.074
20
-127.368
11
111.217
21
-127.082
0
LINE
8
BLACK
6
CONTINUOUS
10
111.217
20
-127.082
11
111.36
21
-126.939
0
LINE
8
BLACK
6
CONTINUOUS
10
111.36
20
-126.939
11
111.646
21
-126.796
0
LINE
8
BLACK
6
CONTINUOUS
10
113.931
20
-129.796
11
113.931
21
-127.796
0
LINE
8
BLACK
6
CONTINUOUS
10
113.931
20
-128.082
11
114.074
21
-127.939
0
LINE
8
BLACK
6
CONTINUOUS
10
114.074
20
-127.939
11
114.36
21
-127.796
0
LINE
8
BLACK
6
CONTINUOUS
10
114.36
20
-127.796
11
114.788
21
-127.796
0
LINE
8
BLACK
6
CONTINUOUS
10
114.788
20
-127.796
11
115.074
21
-127.939
0
LINE
8
BLACK
6
CONTINUOUS
10
115.074
20
-127.939
11
115.217
21
-128.225
0
LINE
8
BLACK
6
CONTINUOUS
10
115.217
20
-128.225
11
115.217
21
-129.796
0
LINE
8
BLACK
6
CONTINUOUS
10
115.217
20
-128.225
11
115.36
21
-127.939
0
LINE
8
BLACK
6
CONTINUOUS
10
115.36
20
-127.939
11
115.646
21
-127.796
0
LINE
8
BLACK
6
CONTINUOUS
10
115.646
20
-127.796
11
116.074
21
-127.796
0
LINE
8
BLACK
6
CONTINUOUS
10
116.074
20
-127.796
11
116.36
21
-127.939
0
LINE
8
BLACK
6
CONTINUOUS
10
116.36
20
-127.939
11
116.503
21
-128.225
0
LINE
8
BLACK
6
CONTINUOUS
10
116.503
20
-128.225
11
116.503
21
-129.796
0
LINE
8
BLACK
6
CONTINUOUS
10
117.931
20
-129.796
11
117.931
21
-127.796
0
LINE
8
BLACK
6
CONTINUOUS
10
117.931
20
-128.082
11
118.074
21
-127.939
0
LINE
8
BLACK
6
CONTINUOUS
10
118.074
20
-127.939
11
118.36
21
-127.796
0
LINE
8
BLACK
6
CONTINUOUS
10
118.36
20
-127.796
11
118.788
21
-127.796
0
LINE
8
BLACK
6
CONTINUOUS
10
118.788
20
-127.796
11
119.074
21
-127.939
0
LINE
8
BLACK
6
CONTINUOUS
10
119.074
20
-127.939
11
119.217
21
-128.225
0
LINE
8
BLACK
6
CONTINUOUS
10
119.217
20
-128.225
11
119.217
21
-129.796
0
LINE
8
BLACK
6
CONTINUOUS
10
119.217
20
-128.225
11
119.36
21
-127.939
0
LINE
8
BLACK
6
CONTINUOUS
10
119.36
20
-127.939
11
119.646
21
-127.796
0
LINE
8
BLACK
6
CONTINUOUS
10
119.646
20
-127.796
11
120.074
21
-127.796
0
LINE
8
BLACK
6
CONTINUOUS
10
120.074
20
-127.796
11
120.36
21
-127.939
0
LINE
8
BLACK
6
CONTINUOUS
10
120.36
20
-127.939
11
120.503
21
-128.225
0
LINE
8
BLACK
6
CONTINUOUS
10
120.503
20
-128.225
11
120.503
21
-129.796
0
LINE
8
BLACK
6
CONTINUOUS
10
126.36
20
-126.653
11
123.788
21
-130.51
0
LINE
8
BLACK
6
CONTINUOUS
10
130.217
20
-126.796
11
130.503
21
-126.796
0
LINE
8
BLACK
6
CONTINUOUS
10
130.503
20
-126.796
11
130.788
21
-126.939
0
LINE
8
BLACK
6
CONTINUOUS
10
130.788
20
-126.939
11
130.931
21
-127.082
0
LINE
8
BLACK
6
CONTINUOUS
10
130.931
20
-127.082
11
131.074
21
-127.368
0
LINE
8
BLACK
6
CONTINUOUS
10
131.074
20
-127.368
11
131.217
21
-127.939
0
LINE
8
BLACK
6
CONTINUOUS
10
131.217
20
-127.939
11
131.217
21
-128.653
0
LINE
8
BLACK
6
CONTINUOUS
10
131.217
20
-128.653
11
131.074
21
-129.225
0
LINE
8
BLACK
6
CONTINUOUS
10
131.074
20
-129.225
11
130.931
21
-129.51
0
LINE
8
BLACK
6
CONTINUOUS
10
130.931
20
-129.51
11
130.788
21
-129.653
0
LINE
8
BLACK
6
CONTINUOUS
10
130.788
20
-129.653
11
130.503
21
-129.796
0
LINE
8
BLACK
6
CONTINUOUS
10
130.503
20
-129.796
11
130.217
21
-129.796
0
LINE
8
BLACK
6
CONTINUOUS
10
130.217
20
-129.796
11
129.931
21
-129.653
0
LINE
8
BLACK
6
CONTINUOUS
10
129.931
20
-129.653
11
129.788
21
-129.51
0
LINE
8
BLACK
6
CONTINUOUS
10
129.788
20
-129.51
11
129.646
21
-129.225
0
LINE
8
BLACK
6
CONTINUOUS
10
129.646
20
-129.225
11
129.503
21
-128.653
0
LINE
8
BLACK
6
CONTINUOUS
10
129.503
20
-128.653
11
129.503
21
-127.939
0
LINE
8
BLACK
6
CONTINUOUS
10
129.503
20
-127.939
11
129.646
21
-127.368
0
LINE
8
BLACK
6
CONTINUOUS
10
129.646
20
-127.368
11
129.788
21
-127.082
0
LINE
8
BLACK
6
CONTINUOUS
10
129.788
20
-127.082
11
129.931
21
-126.939
0
LINE
8
BLACK
6
CONTINUOUS
10
129.931
20
-126.939
11
130.217
21
-126.796
0
LINE
8
BLACK
6
CONTINUOUS
10
132.503
20
-129.51
11
132.646
21
-129.653
0
LINE
8
BLACK
6
CONTINUOUS
10
132.646
20
-129.653
11
132.503
21
-129.796
0
LINE
8
BLACK
6
CONTINUOUS
10
132.503
20
-129.796
11
132.36
21
-129.653
0
LINE
8
BLACK
6
CONTINUOUS
10
132.36
20
-129.653
11
132.503
21
-129.51
0
LINE
8
BLACK
6
CONTINUOUS
10
132.503
20
-129.51
11
132.503
21
-129.796
0
LINE
8
BLACK
6
CONTINUOUS
10
134.503
20
-126.796
11
134.788
21
-126.796
0
LINE
8
BLACK
6
CONTINUOUS
10
134.788
20
-126.796
11
135.074
21
-126.939
0
LINE
8
BLACK
6
CONTINUOUS
10
135.074
20
-126.939
11
135.217
21
-127.082
0
LINE
8
BLACK
6
CONTINUOUS
10
135.217
20
-127.082
11
135.36
21
-127.368
0
LINE
8
BLACK
6
CONTINUOUS
10
135.36
20
-127.368
11
135.503
21
-127.939
0
LINE
8
BLACK
6
CONTINUOUS
10
135.503
20
-127.939
11
135.503
21
-128.653
0
LINE
8
BLACK
6
CONTINUOUS
10
135.503
20
-128.653
11
135.36
21
-129.225
0
LINE
8
BLACK
6
CONTINUOUS
10
135.36
20
-129.225
11
135.217
21
-129.51
0
LINE
8
BLACK
6
CONTINUOUS
10
135.217
20
-129.51
11
135.074
21
-129.653
0
LINE
8
BLACK
6
CONTINUOUS
10
135.074
20
-129.653
11
134.788
21
-129.796
0
LINE
8
BLACK
6
CONTINUOUS
10
134.788
20
-129.796
11
134.503
21
-129.796
0
LINE
8
BLACK
6
CONTINUOUS
10
134.503
20
-129.796
11
134.217
21
-129.653
0
LINE
8
BLACK
6
CONTINUOUS
10
134.217
20
-129.653
11
134.074
21
-129.51
0
LINE
8
BLACK
6
CONTINUOUS
10
134.074
20
-129.51
11
133.931
21
-129.225
0
LINE
8
BLACK
6
CONTINUOUS
10
133.931
20
-129.225
11
133.788
21
-128.653
0
LINE
8
BLACK
6
CONTINUOUS
10
133.788
20
-128.653
11
133.788
21
-127.939
0
LINE
8
BLACK
6
CONTINUOUS
10
133.788
20
-127.939
11
133.931
21
-127.368
0
LINE
8
BLACK
6
CONTINUOUS
10
133.931
20
-127.368
11
134.074
21
-127.082
0
LINE
8
BLACK
6
CONTINUOUS
10
134.074
20
-127.082
11
134.217
21
-126.939
0
LINE
8
BLACK
6
CONTINUOUS
10
134.217
20
-126.939
11
134.503
21
-126.796
0
LINE
8
BLACK
6
CONTINUOUS
10
138.074
20
-127.796
11
138.074
21
-129.796
0
LINE
8
BLACK
6
CONTINUOUS
10
137.36
20
-126.653
11
136.646
21
-128.796
0
LINE
8
BLACK
6
CONTINUOUS
10
136.646
20
-128.796
11
138.503
21
-128.796
0
LINE
8
BLACK
6
CONTINUOUS
10
139.36
20
-126.796
11
141.36
21
-126.796
0
LINE
8
BLACK
6
CONTINUOUS
10
141.36
20
-126.796
11
140.074
21
-129.796
0
LINE
8
BLACK
6
CONTINUOUS
10
142.36
20
-126.796
11
142.36
21
-127.368
0
LINE
8
BLACK
6
CONTINUOUS
10
143.503
20
-126.796
11
143.503
21
-127.368
0
LINE
8
BLACK
6
CONTINUOUS
10
147.931
20
-130.939
11
147.788
21
-130.796
0
LINE
8
BLACK
6
CONTINUOUS
10
147.788
20
-130.796
11
147.503
21
-130.368
0
LINE
8
BLACK
6
CONTINUOUS
10
147.503
20
-130.368
11
147.36
21
-130.082
0
LINE
8
BLACK
6
CONTINUOUS
10
147.36
20
-130.082
11
147.217
21
-129.653
0
LINE
8
BLACK
6
CONTINUOUS
10
147.217
20
-129.653
11
147.074
21
-128.939
0
LINE
8
BLACK
6
CONTINUOUS
10
147.074
20
-128.939
11
147.074
21
-128.368
0
LINE
8
BLACK
6
CONTINUOUS
10
147.074
20
-128.368
11
147.217
21
-127.653
0
LINE
8
BLACK
6
CONTINUOUS
10
147.217
20
-127.653
11
147.36
21
-127.225
0
LINE
8
BLACK
6
CONTINUOUS
10
147.36
20
-127.225
11
147.503
21
-126.939
0
LINE
8
BLACK
6
CONTINUOUS
10
147.503
20
-126.939
11
147.788
21
-126.51
0
LINE
8
BLACK
6
CONTINUOUS
10
147.788
20
-126.51
11
147.931
21
-126.368
0
LINE
8
BLACK
6
CONTINUOUS
10
149.503
20
-128.082
11
149.217
21
-127.939
0
LINE
8
BLACK
6
CONTINUOUS
10
149.217
20
-127.939
11
149.074
21
-127.796
0
LINE
8
BLACK
6
CONTINUOUS
10
149.074
20
-127.796
11
148.931
21
-127.51
0
LINE
8
BLACK
6
CONTINUOUS
10
148.931
20
-127.51
11
148.931
21
-127.368
0
LINE
8
BLACK
6
CONTINUOUS
10
148.931
20
-127.368
11
149.074
21
-127.082
0
LINE
8
BLACK
6
CONTINUOUS
10
149.074
20
-127.082
11
149.217
21
-126.939
0
LINE
8
BLACK
6
CONTINUOUS
10
149.217
20
-126.939
11
149.503
21
-126.796
0
LINE
8
BLACK
6
CONTINUOUS
10
149.503
20
-126.796
11
150.074
21
-126.796
0
LINE
8
BLACK
6
CONTINUOUS
10
150.074
20
-126.796
11
150.36
21
-126.939
0
LINE
8
BLACK
6
CONTINUOUS
10
150.36
20
-126.939
11
150.503
21
-127.082
0
LINE
8
BLACK
6
CONTINUOUS
10
150.503
20
-127.082
11
150.646
21
-127.368
0
LINE
8
BLACK
6
CONTINUOUS
10
150.646
20
-127.368
11
150.646
21
-127.51
0
LINE
8
BLACK
6
CONTINUOUS
10
150.646
20
-127.51
11
150.503
21
-127.796
0
LINE
8
BLACK
6
CONTINUOUS
10
150.503
20
-127.796
11
150.36
21
-127.939
0
LINE
8
BLACK
6
CONTINUOUS
10
150.36
20
-127.939
11
150.074
21
-128.082
0
LINE
8
BLACK
6
CONTINUOUS
10
150.074
20
-128.082
11
149.503
21
-128.082
0
LINE
8
BLACK
6
CONTINUOUS
10
149.503
20
-128.082
11
149.217
21
-128.225
0
LINE
8
BLACK
6
CONTINUOUS
10
149.217
20
-128.225
11
149.074
21
-128.368
0
LINE
8
BLACK
6
CONTINUOUS
10
149.074
20
-128.368
11
148.931
21
-128.653
0
LINE
8
BLACK
6
CONTINUOUS
10
148.931
20
-128.653
11
148.931
21
-129.225
0
LINE
8
BLACK
6
CONTINUOUS
10
148.931
20
-129.225
11
149.074
21
-129.51
0
LINE
8
BLACK
6
CONTINUOUS
10
149.074
20
-129.51
11
149.217
21
-129.653
0
LINE
8
BLACK
6
CONTINUOUS
10
149.217
20
-129.653
11
149.503
21
-129.796
0
LINE
8
BLACK
6
CONTINUOUS
10
149.503
20
-129.796
11
150.074
21
-129.796
0
LINE
8
BLACK
6
CONTINUOUS
10
150.074
20
-129.796
11
150.36
21
-129.653
0
LINE
8
BLACK
6
CONTINUOUS
10
150.36
20
-129.653
11
150.503
21
-129.51
0
LINE
8
BLACK
6
CONTINUOUS
10
150.503
20
-129.51
11
150.646
21
-129.225
0
LINE
8
BLACK
6
CONTINUOUS
10
150.646
20
-129.225
11
150.646
21
-128.653
0
LINE
8
BLACK
6
CONTINUOUS
10
150.646
20
-128.653
11
150.503
21
-128.368
0
LINE
8
BLACK
6
CONTINUOUS
10
150.503
20
-128.368
11
150.36
21
-128.225
0
LINE
8
BLACK
6
CONTINUOUS
10
150.36
20
-128.225
11
150.074
21
-128.082
0
LINE
8
BLACK
6
CONTINUOUS
10
152.503
20
-126.796
11
152.788
21
-126.796
0
LINE
8
BLACK
6
CONTINUOUS
10
152.788
20
-126.796
11
153.074
21
-126.939
0
LINE
8
BLACK
6
CONTINUOUS
10
153.074
20
-126.939
11
153.217
21
-127.082
0
LINE
8
BLACK
6
CONTINUOUS
10
153.217
20
-127.082
11
153.36
21
-127.368
0
LINE
8
BLACK
6
CONTINUOUS
10
153.36
20
-127.368
11
153.503
21
-127.939
0
LINE
8
BLACK
6
CONTINUOUS
10
153.503
20
-127.939
11
153.503
21
-128.653
0
LINE
8
BLACK
6
CONTINUOUS
10
153.503
20
-128.653
11
153.36
21
-129.225
0
LINE
8
BLACK
6
CONTINUOUS
10
153.36
20
-129.225
11
153.217
21
-129.51
0
LINE
8
BLACK
6
CONTINUOUS
10
153.217
20
-129.51
11
153.074
21
-129.653
0
LINE
8
BLACK
6
CONTINUOUS
10
153.074
20
-129.653
11
152.788
21
-129.796
0
LINE
8
BLACK
6
CONTINUOUS
10
152.788
20
-129.796
11
152.503
21
-129.796
0
LINE
8
BLACK
6
CONTINUOUS
10
152.503
20
-129.796
11
152.217
21
-129.653
0
LINE
8
BLACK
6
CONTINUOUS
10
152.217
20
-129.653
11
152.074
21
-129.51
0
LINE
8
BLACK
6
CONTINUOUS
10
152.074
20
-129.51
11
151.931
21
-129.225
0
LINE
8
BLACK
6
CONTINUOUS
10
151.931
20
-129.225
11
151.788
21
-128.653
0
LINE
8
BLACK
6
CONTINUOUS
10
151.788
20
-128.653
11
151.788
21
-127.939
0
LINE
8
BLACK
6
CONTINUOUS
10
151.788
20
-127.939
11
151.931
21
-127.368
0
LINE
8
BLACK
6
CONTINUOUS
10
151.931
20
-127.368
11
152.074
21
-127.082
0
LINE
8
BLACK
6
CONTINUOUS
10
152.074
20
-127.082
11
152.217
21
-126.939
0
LINE
8
BLACK
6
CONTINUOUS
10
152.217
20
-126.939
11
152.503
21
-126.796
0
LINE
8
BLACK
6
CONTINUOUS
10
157.074
20
-129.796
11
157.074
21
-126.796
0
LINE
8
BLACK
6
CONTINUOUS
10
158.36
20
-129.796
11
158.36
21
-128.225
0
LINE
8
BLACK
6
CONTINUOUS
10
158.36
20
-128.225
11
158.217
21
-127.939
0
LINE
8
BLACK
6
CONTINUOUS
10
158.217
20
-127.939
11
157.931
21
-127.796
0
LINE
8
BLACK
6
CONTINUOUS
10
157.931
20
-127.796
11
157.503
21
-127.796
0
LINE
8
BLACK
6
CONTINUOUS
10
157.503
20
-127.796
11
157.217
21
-127.939
0
LINE
8
BLACK
6
CONTINUOUS
10
157.217
20
-127.939
11
157.074
21
-128.082
0
LINE
8
BLACK
6
CONTINUOUS
10
160.217
20
-129.796
11
159.931
21
-129.653
0
LINE
8
BLACK
6
CONTINUOUS
10
159.931
20
-129.653
11
159.788
21
-129.51
0
LINE
8
BLACK
6
CONTINUOUS
10
159.788
20
-129.51
11
159.646
21
-129.225
0
LINE
8
BLACK
6
CONTINUOUS
10
159.646
20
-129.225
11
159.646
21
-128.368
0
LINE
8
BLACK
6
CONTINUOUS
10
159.646
20
-128.368
11
159.788
21
-128.082
0
LINE
8
BLACK
6
CONTINUOUS
10
159.788
20
-128.082
11
159.931
21
-127.939
0
LINE
8
BLACK
6
CONTINUOUS
10
159.931
20
-127.939
11
160.217
21
-127.796
0
LINE
8
BLACK
6
CONTINUOUS
10
160.217
20
-127.796
11
160.646
21
-127.796
0
LINE
8
BLACK
6
CONTINUOUS
10
160.646
20
-127.796
11
160.931
21
-127.939
0
LINE
8
BLACK
6
CONTINUOUS
10
160.931
20
-127.939
11
161.074
21
-128.082
0
LINE
8
BLACK
6
CONTINUOUS
10
161.074
20
-128.082
11
161.217
21
-128.368
0
LINE
8
BLACK
6
CONTINUOUS
10
161.217
20
-128.368
11
161.217
21
-129.225
0
LINE
8
BLACK
6
CONTINUOUS
10
161.217
20
-129.225
11
161.074
21
-129.51
0
LINE
8
BLACK
6
CONTINUOUS
10
161.074
20
-129.51
11
160.931
21
-129.653
0
LINE
8
BLACK
6
CONTINUOUS
10
160.931
20
-129.653
11
160.646
21
-129.796
0
LINE
8
BLACK
6
CONTINUOUS
10
160.646
20
-129.796
11
160.217
21
-129.796
0
LINE
8
BLACK
6
CONTINUOUS
10
162.931
20
-129.796
11
162.646
21
-129.653
0
LINE
8
BLACK
6
CONTINUOUS
10
162.646
20
-129.653
11
162.503
21
-129.368
0
LINE
8
BLACK
6
CONTINUOUS
10
162.503
20
-129.368
11
162.503
21
-126.796
0
LINE
8
BLACK
6
CONTINUOUS
10
165.217
20
-129.653
11
164.931
21
-129.796
0
LINE
8
BLACK
6
CONTINUOUS
10
164.931
20
-129.796
11
164.36
21
-129.796
0
LINE
8
BLACK
6
CONTINUOUS
10
164.36
20
-129.796
11
164.074
21
-129.653
0
LINE
8
BLACK
6
CONTINUOUS
10
164.074
20
-129.653
11
163.931
21
-129.368
0
LINE
8
BLACK
6
CONTINUOUS
10
163.931
20
-129.368
11
163.931
21
-128.225
0
LINE
8
BLACK
6
CONTINUOUS
10
163.931
20
-128.225
11
164.074
21
-127.939
0
LINE
8
BLACK
6
CONTINUOUS
10
164.074
20
-127.939
11
164.36
21
-127.796
0
LINE
8
BLACK
6
CONTINUOUS
10
164.36
20
-127.796
11
164.931
21
-127.796
0
LINE
8
BLACK
6
CONTINUOUS
10
164.931
20
-127.796
11
165.217
21
-127.939
0
LINE
8
BLACK
6
CONTINUOUS
10
165.217
20
-127.939
11
165.36
21
-128.225
0
LINE
8
BLACK
6
CONTINUOUS
10
165.36
20
-128.225
11
165.36
21
-128.51
0
LINE
8
BLACK
6
CONTINUOUS
10
165.36
20
-128.51
11
163.931
21
-128.796
0
LINE
8
BLACK
6
CONTINUOUS
10
166.503
20
-129.653
11
166.788
21
-129.796
0
LINE
8
BLACK
6
CONTINUOUS
10
166.788
20
-129.796
11
167.36
21
-129.796
0
LINE
8
BLACK
6
CONTINUOUS
10
167.36
20
-129.796
11
167.646
21
-129.653
0
LINE
8
BLACK
6
CONTINUOUS
10
167.646
20
-129.653
11
167.788
21
-129.368
0
LINE
8
BLACK
6
CONTINUOUS
10
167.788
20
-129.368
11
167.788
21
-129.225
0
LINE
8
BLACK
6
CONTINUOUS
10
167.788
20
-129.225
11
167.646
21
-128.939
0
LINE
8
BLACK
6
CONTINUOUS
10
167.646
20
-128.939
11
167.36
21
-128.796
0
LINE
8
BLACK
6
CONTINUOUS
10
167.36
20
-128.796
11
166.931
21
-128.796
0
LINE
8
BLACK
6
CONTINUOUS
10
166.931
20
-128.796
11
166.646
21
-128.653
0
LINE
8
BLACK
6
CONTINUOUS
10
166.646
20
-128.653
11
166.503
21
-128.368
0
LINE
8
BLACK
6
CONTINUOUS
10
166.503
20
-128.368
11
166.503
21
-128.225
0
LINE
8
BLACK
6
CONTINUOUS
10
166.503
20
-128.225
11
166.646
21
-127.939
0
LINE
8
BLACK
6
CONTINUOUS
10
166.646
20
-127.939
11
166.931
21
-127.796
0
LINE
8
BLACK
6
CONTINUOUS
10
166.931
20
-127.796
11
167.36
21
-127.796
0
LINE
8
BLACK
6
CONTINUOUS
10
167.36
20
-127.796
11
167.646
21
-127.939
0
LINE
8
BLACK
6
CONTINUOUS
10
168.788
20
-130.939
11
168.931
21
-130.796
0
LINE
8
BLACK
6
CONTINUOUS
10
168.931
20
-130.796
11
169.217
21
-130.368
0
LINE
8
BLACK
6
CONTINUOUS
10
169.217
20
-130.368
11
169.36
21
-130.082
0
LINE
8
BLACK
6
CONTINUOUS
10
169.36
20
-130.082
11
169.503
21
-129.653
0
LINE
8
BLACK
6
CONTINUOUS
10
169.503
20
-129.653
11
169.646
21
-128.939
0
LINE
8
BLACK
6
CONTINUOUS
10
169.646
20
-128.939
11
169.646
21
-128.368
0
LINE
8
BLACK
6
CONTINUOUS
10
169.646
20
-128.368
11
169.503
21
-127.653
0
LINE
8
BLACK
6
CONTINUOUS
10
169.503
20
-127.653
11
169.36
21
-127.225
0
LINE
8
BLACK
6
CONTINUOUS
10
169.36
20
-127.225
11
169.217
21
-126.939
0
LINE
8
BLACK
6
CONTINUOUS
10
169.217
20
-126.939
11
168.931
21
-126.51
0
LINE
8
BLACK
6
CONTINUOUS
10
168.931
20
-126.51
11
168.788
21
-126.368
  0
ENDSEC
  0
EOF
