  0
SECTION
  2
HEADER
  9
$ANGBASE
  50
0.0
  9
$ANGDIR
  70
1
  9
$MEASUREMENT
  70
1
  0
ENDSEC
  0
SECTION
  2
TABLES
  0
TABLE
  2
LTYPE
  70
4
  0
LTYPE
  5
40F
  2
CONTINUOUS
  70
0
  3
Solid line
  72
65
  73
0
  40
0.0
  0
LTYPE
  5
410
  2
DASHDOT
 70
0
  3
Dash Dot ____ _ ____ _
 72
65
 73
4
 40
2.0
 49
1.25
 49
-0.25
 49
0.25
 49
-0.25
  0
LTYPE
  5
411
  2
DASHED
 70
0
  3
Dashed __ __ __ __ __
 72
65
 73
2
 40
0.75
 49
0.5
 49
-0.25
  0
LTYPE
  5
43B
  2
DOTTED
 70
0
  3
Dotted .  .  .  .
 72
65
 73
2
 40
0.2
 49
0.0
 49
-0.2
  0
ENDTAB
  0
TABLE
  2
STYLE
  70
4
  0
STYLE
  2
KICAD
  70
0
  40
0
  41
1
  42
1
  50
0
  71
0
  3
isocp.shx
  0
STYLE
  2
KICADB
  70
0
  40
0
  41
1
  42
1
  50
0
  71
0
  3
isocp.shx
  0
STYLE
  2
KICADI
  70
0
  40
0
  41
1
  42
1
  50
15
  71
0
  3
isocp.shx
  0
STYLE
  2
KICADBI
  70
0
  40
0
  41
1
  42
1
  50
15
  71
0
  3
isocp.shx
  0
ENDTAB
  0
TABLE
  2
LAYER
  70
1
  0
LAYER
  2
BLACK
  70
0
  62
7
  6
CONTINUOUS
  0
ENDTAB
  0
ENDSEC
  0
SECTION
  2
ENTITIES
0
LINE
8
BLACK
6
CONTINUOUS
10
97.4344
20
-49.1744
11
97.4344
21
-127.813
0
LINE
8
BLACK
6
CONTINUOUS
10
101.397
20
-127.813
11
97.4344
21
-127.813
0
LINE
8
BLACK
6
CONTINUOUS
10
101.397
20
-49.1744
11
101.397
21
-127.813
0
LINE
8
BLACK
6
CONTINUOUS
10
97.4344
20
-49.1744
11
101.397
21
-49.1744
0
LINE
8
BLACK
6
CONTINUOUS
10
38.5064
20
-40.0304
11
38.5064
21
-137.211
0
LINE
8
BLACK
6
CONTINUOUS
10
138.227
20
-137.211
11
38.5064
21
-137.211
0
LINE
8
BLACK
6
CONTINUOUS
10
138.227
20
-40.0304
11
138.227
21
-137.211
0
LINE
8
BLACK
6
CONTINUOUS
10
38.5064
20
-40.0304
11
138.227
21
-40.0304
0
LINE
8
BLACK
6
CONTINUOUS
10
118.37
20
-60.4076
11
119.17
21
-61.2076
0
LINE
8
BLACK
6
CONTINUOUS
10
119.17
20
-60.4076
11
118.37
21
-61.2076
0
LINE
8
BLACK
6
CONTINUOUS
10
125.99
20
-60.4076
11
126.79
21
-61.2076
0
LINE
8
BLACK
6
CONTINUOUS
10
126.79
20
-60.4076
11
125.99
21
-61.2076
0
CIRCLE
8
BLACK
10
130.607
20
-58.2168
40
0.45
0
CIRCLE
8
BLACK
10
133.147
20
-58.2168
40
0.45
0
LINE
8
BLACK
6
CONTINUOUS
10
116.255
20
-51.6688
11
116.255
21
-52.6688
0
LINE
8
BLACK
6
CONTINUOUS
10
115.755
20
-52.1688
11
116.755
21
-52.1688
0
LINE
8
BLACK
6
CONTINUOUS
10
115.755
20
-51.1688
11
115.755
21
-53.1688
0
LINE
8
BLACK
6
CONTINUOUS
10
116.755
20
-51.1688
11
116.755
21
-53.1688
0
ARC
8
BLACK
10
116.255
20
-53.1688
40
0.5
50
180
51
360
0
ARC
8
BLACK
10
116.255
20
-51.1688
40
0.5
50
0
51
180
0
LINE
8
BLACK
6
CONTINUOUS
10
120.955
20
-48.6688
11
120.955
21
-49.6688
0
LINE
8
BLACK
6
CONTINUOUS
10
120.455
20
-49.1688
11
121.455
21
-49.1688
0
LINE
8
BLACK
6
CONTINUOUS
10
121.955
20
-48.6688
11
119.955
21
-48.6688
0
LINE
8
BLACK
6
CONTINUOUS
10
121.955
20
-49.6688
11
119.955
21
-49.6688
0
ARC
8
BLACK
10
119.955
20
-49.1688
40
0.5
50
450
51
630
0
ARC
8
BLACK
10
121.955
20
-49.1688
40
0.5
50
270
51
450
0
LINE
8
BLACK
6
CONTINUOUS
10
120.955
20
-54.6688
11
120.955
21
-55.6688
0
LINE
8
BLACK
6
CONTINUOUS
10
120.455
20
-55.1688
11
121.455
21
-55.1688
0
LINE
8
BLACK
6
CONTINUOUS
10
121.955
20
-54.6688
11
119.955
21
-54.6688
0
LINE
8
BLACK
6
CONTINUOUS
10
121.955
20
-55.6688
11
119.955
21
-55.6688
0
ARC
8
BLACK
10
119.955
20
-55.1688
40
0.5
50
450
51
630
0
ARC
8
BLACK
10
121.955
20
-55.1688
40
0.5
50
270
51
450
0
LINE
8
BLACK
6
CONTINUOUS
10
107.696
20
-60.3584
11
107.696
21
-61.3584
0
LINE
8
BLACK
6
CONTINUOUS
10
107.196
20
-60.8584
11
108.196
21
-60.8584
0
LINE
8
BLACK
6
CONTINUOUS
10
110.236
20
-60.3584
11
110.236
21
-61.3584
0
LINE
8
BLACK
6
CONTINUOUS
10
109.736
20
-60.8584
11
110.736
21
-60.8584
0
LINE
8
BLACK
6
CONTINUOUS
10
112.776
20
-60.3584
11
112.776
21
-61.3584
0
LINE
8
BLACK
6
CONTINUOUS
10
112.276
20
-60.8584
11
113.276
21
-60.8584
0
LINE
8
BLACK
6
CONTINUOUS
10
54.1707
20
-115.334
11
54.1707
21
-114.486
0
LINE
8
BLACK
6
CONTINUOUS
10
54.1707
20
-114.486
11
53.3221
21
-114.486
0
LINE
8
BLACK
6
CONTINUOUS
10
53.3221
20
-114.486
11
53.3221
21
-115.334
0
LINE
8
BLACK
6
CONTINUOUS
10
53.3221
20
-115.334
11
54.1707
21
-115.334
0
LINE
8
BLACK
6
CONTINUOUS
10
56.7107
20
-115.334
11
56.7107
21
-114.486
0
LINE
8
BLACK
6
CONTINUOUS
10
56.7107
20
-114.486
11
55.8621
21
-114.486
0
LINE
8
BLACK
6
CONTINUOUS
10
55.8621
20
-114.486
11
55.8621
21
-115.334
0
LINE
8
BLACK
6
CONTINUOUS
10
55.8621
20
-115.334
11
56.7107
21
-115.334
0
LINE
8
BLACK
6
CONTINUOUS
10
59.2507
20
-115.334
11
59.2507
21
-114.486
0
LINE
8
BLACK
6
CONTINUOUS
10
59.2507
20
-114.486
11
58.4021
21
-114.486
0
LINE
8
BLACK
6
CONTINUOUS
10
58.4021
20
-114.486
11
58.4021
21
-115.334
0
LINE
8
BLACK
6
CONTINUOUS
10
58.4021
20
-115.334
11
59.2507
21
-115.334
0
LINE
8
BLACK
6
CONTINUOUS
10
109.238
20
-83.2283
11
109.238
21
-82.3797
0
LINE
8
BLACK
6
CONTINUOUS
10
109.238
20
-82.3797
11
108.39
21
-82.3797
0
LINE
8
BLACK
6
CONTINUOUS
10
108.39
20
-82.3797
11
108.39
21
-83.2283
0
LINE
8
BLACK
6
CONTINUOUS
10
108.39
20
-83.2283
11
109.238
21
-83.2283
0
LINE
8
BLACK
6
CONTINUOUS
10
109.238
20
-85.7683
11
109.238
21
-84.9197
0
LINE
8
BLACK
6
CONTINUOUS
10
109.238
20
-84.9197
11
108.39
21
-84.9197
0
LINE
8
BLACK
6
CONTINUOUS
10
108.39
20
-84.9197
11
108.39
21
-85.7683
0
LINE
8
BLACK
6
CONTINUOUS
10
108.39
20
-85.7683
11
109.238
21
-85.7683
0
LINE
8
BLACK
6
CONTINUOUS
10
109.238
20
-88.3083
11
109.238
21
-87.4597
0
LINE
8
BLACK
6
CONTINUOUS
10
109.238
20
-87.4597
11
108.39
21
-87.4597
0
LINE
8
BLACK
6
CONTINUOUS
10
108.39
20
-87.4597
11
108.39
21
-88.3083
0
LINE
8
BLACK
6
CONTINUOUS
10
108.39
20
-88.3083
11
109.238
21
-88.3083
0
LINE
8
BLACK
6
CONTINUOUS
10
109.238
20
-90.8483
11
109.238
21
-89.9997
0
LINE
8
BLACK
6
CONTINUOUS
10
109.238
20
-89.9997
11
108.39
21
-89.9997
0
LINE
8
BLACK
6
CONTINUOUS
10
108.39
20
-89.9997
11
108.39
21
-90.8483
0
LINE
8
BLACK
6
CONTINUOUS
10
108.39
20
-90.8483
11
109.238
21
-90.8483
0
LINE
8
BLACK
6
CONTINUOUS
10
109.238
20
-93.3883
11
109.238
21
-92.5397
0
LINE
8
BLACK
6
CONTINUOUS
10
109.238
20
-92.5397
11
108.39
21
-92.5397
0
LINE
8
BLACK
6
CONTINUOUS
10
108.39
20
-92.5397
11
108.39
21
-93.3883
0
LINE
8
BLACK
6
CONTINUOUS
10
108.39
20
-93.3883
11
109.238
21
-93.3883
0
LINE
8
BLACK
6
CONTINUOUS
10
109.238
20
-95.9283
11
109.238
21
-95.0797
0
LINE
8
BLACK
6
CONTINUOUS
10
109.238
20
-95.0797
11
108.39
21
-95.0797
0
LINE
8
BLACK
6
CONTINUOUS
10
108.39
20
-95.0797
11
108.39
21
-95.9283
0
LINE
8
BLACK
6
CONTINUOUS
10
108.39
20
-95.9283
11
109.238
21
-95.9283
0
LINE
8
BLACK
6
CONTINUOUS
10
116.908
20
-106.054
11
116.908
21
-105.206
0
LINE
8
BLACK
6
CONTINUOUS
10
116.908
20
-105.206
11
116.06
21
-105.206
0
LINE
8
BLACK
6
CONTINUOUS
10
116.06
20
-105.206
11
116.06
21
-106.054
0
LINE
8
BLACK
6
CONTINUOUS
10
116.06
20
-106.054
11
116.908
21
-106.054
0
LINE
8
BLACK
6
CONTINUOUS
10
119.448
20
-106.054
11
119.448
21
-105.206
0
LINE
8
BLACK
6
CONTINUOUS
10
119.448
20
-105.206
11
118.6
21
-105.206
0
LINE
8
BLACK
6
CONTINUOUS
10
118.6
20
-105.206
11
118.6
21
-106.054
0
LINE
8
BLACK
6
CONTINUOUS
10
118.6
20
-106.054
11
119.448
21
-106.054
0
LINE
8
BLACK
6
CONTINUOUS
10
121.988
20
-106.054
11
121.988
21
-105.206
0
LINE
8
BLACK
6
CONTINUOUS
10
121.988
20
-105.206
11
121.14
21
-105.206
0
LINE
8
BLACK
6
CONTINUOUS
10
121.14
20
-105.206
11
121.14
21
-106.054
0
LINE
8
BLACK
6
CONTINUOUS
10
121.14
20
-106.054
11
121.988
21
-106.054
0
LINE
8
BLACK
6
CONTINUOUS
10
79.0839
20
-81.1807
11
79.0839
21
-80.3321
0
LINE
8
BLACK
6
CONTINUOUS
10
79.0839
20
-80.3321
11
78.2353
21
-80.3321
0
LINE
8
BLACK
6
CONTINUOUS
10
78.2353
20
-80.3321
11
78.2353
21
-81.1807
0
LINE
8
BLACK
6
CONTINUOUS
10
78.2353
20
-81.1807
11
79.0839
21
-81.1807
0
LINE
8
BLACK
6
CONTINUOUS
10
81.6239
20
-81.1807
11
81.6239
21
-80.3321
0
LINE
8
BLACK
6
CONTINUOUS
10
81.6239
20
-80.3321
11
80.7753
21
-80.3321
0
LINE
8
BLACK
6
CONTINUOUS
10
80.7753
20
-80.3321
11
80.7753
21
-81.1807
0
LINE
8
BLACK
6
CONTINUOUS
10
80.7753
20
-81.1807
11
81.6239
21
-81.1807
0
LINE
8
BLACK
6
CONTINUOUS
10
84.1639
20
-81.1807
11
84.1639
21
-80.3321
0
LINE
8
BLACK
6
CONTINUOUS
10
84.1639
20
-80.3321
11
83.3153
21
-80.3321
0
LINE
8
BLACK
6
CONTINUOUS
10
83.3153
20
-80.3321
11
83.3153
21
-81.1807
0
LINE
8
BLACK
6
CONTINUOUS
10
83.3153
20
-81.1807
11
84.1639
21
-81.1807
0
LINE
8
BLACK
6
CONTINUOUS
10
86.7039
20
-81.1807
11
86.7039
21
-80.3321
0
LINE
8
BLACK
6
CONTINUOUS
10
86.7039
20
-80.3321
11
85.8553
21
-80.3321
0
LINE
8
BLACK
6
CONTINUOUS
10
85.8553
20
-80.3321
11
85.8553
21
-81.1807
0
LINE
8
BLACK
6
CONTINUOUS
10
85.8553
20
-81.1807
11
86.7039
21
-81.1807
0
LINE
8
BLACK
6
CONTINUOUS
10
89.2439
20
-81.1807
11
89.2439
21
-80.3321
0
LINE
8
BLACK
6
CONTINUOUS
10
89.2439
20
-80.3321
11
88.3953
21
-80.3321
0
LINE
8
BLACK
6
CONTINUOUS
10
88.3953
20
-80.3321
11
88.3953
21
-81.1807
0
LINE
8
BLACK
6
CONTINUOUS
10
88.3953
20
-81.1807
11
89.2439
21
-81.1807
0
LINE
8
BLACK
6
CONTINUOUS
10
91.7839
20
-81.1807
11
91.7839
21
-80.3321
0
LINE
8
BLACK
6
CONTINUOUS
10
91.7839
20
-80.3321
11
90.9353
21
-80.3321
0
LINE
8
BLACK
6
CONTINUOUS
10
90.9353
20
-80.3321
11
90.9353
21
-81.1807
0
LINE
8
BLACK
6
CONTINUOUS
10
90.9353
20
-81.1807
11
91.7839
21
-81.1807
0
LINE
8
BLACK
6
CONTINUOUS
10
70.5791
20
-115.638
11
70.5791
21
-114.79
0
LINE
8
BLACK
6
CONTINUOUS
10
70.5791
20
-114.79
11
69.7305
21
-114.79
0
LINE
8
BLACK
6
CONTINUOUS
10
69.7305
20
-114.79
11
69.7305
21
-115.638
0
LINE
8
BLACK
6
CONTINUOUS
10
69.7305
20
-115.638
11
70.5791
21
-115.638
0
LINE
8
BLACK
6
CONTINUOUS
10
73.1191
20
-115.638
11
73.1191
21
-114.79
0
LINE
8
BLACK
6
CONTINUOUS
10
73.1191
20
-114.79
11
72.2705
21
-114.79
0
LINE
8
BLACK
6
CONTINUOUS
10
72.2705
20
-114.79
11
72.2705
21
-115.638
0
LINE
8
BLACK
6
CONTINUOUS
10
72.2705
20
-115.638
11
73.1191
21
-115.638
0
LINE
8
BLACK
6
CONTINUOUS
10
81.2471
20
-125.544
11
81.2471
21
-124.696
0
LINE
8
BLACK
6
CONTINUOUS
10
81.2471
20
-124.696
11
80.3985
21
-124.696
0
LINE
8
BLACK
6
CONTINUOUS
10
80.3985
20
-124.696
11
80.3985
21
-125.544
0
LINE
8
BLACK
6
CONTINUOUS
10
80.3985
20
-125.544
11
81.2471
21
-125.544
0
LINE
8
BLACK
6
CONTINUOUS
10
83.7871
20
-125.544
11
83.7871
21
-124.696
0
LINE
8
BLACK
6
CONTINUOUS
10
83.7871
20
-124.696
11
82.9385
21
-124.696
0
LINE
8
BLACK
6
CONTINUOUS
10
82.9385
20
-124.696
11
82.9385
21
-125.544
0
LINE
8
BLACK
6
CONTINUOUS
10
82.9385
20
-125.544
11
83.7871
21
-125.544
0
LINE
8
BLACK
6
CONTINUOUS
10
70.5791
20
-125.544
11
70.5791
21
-124.696
0
LINE
8
BLACK
6
CONTINUOUS
10
70.5791
20
-124.696
11
69.7305
21
-124.696
0
LINE
8
BLACK
6
CONTINUOUS
10
69.7305
20
-124.696
11
69.7305
21
-125.544
0
LINE
8
BLACK
6
CONTINUOUS
10
69.7305
20
-125.544
11
70.5791
21
-125.544
0
LINE
8
BLACK
6
CONTINUOUS
10
73.1191
20
-125.544
11
73.1191
21
-124.696
0
LINE
8
BLACK
6
CONTINUOUS
10
73.1191
20
-124.696
11
72.2705
21
-124.696
0
LINE
8
BLACK
6
CONTINUOUS
10
72.2705
20
-124.696
11
72.2705
21
-125.544
0
LINE
8
BLACK
6
CONTINUOUS
10
72.2705
20
-125.544
11
73.1191
21
-125.544
0
LINE
8
BLACK
6
CONTINUOUS
10
54.1707
20
-123.868
11
54.1707
21
-123.02
0
LINE
8
BLACK
6
CONTINUOUS
10
54.1707
20
-123.02
11
53.3221
21
-123.02
0
LINE
8
BLACK
6
CONTINUOUS
10
53.3221
20
-123.02
11
53.3221
21
-123.868
0
LINE
8
BLACK
6
CONTINUOUS
10
53.3221
20
-123.868
11
54.1707
21
-123.868
0
LINE
8
BLACK
6
CONTINUOUS
10
56.7107
20
-123.868
11
56.7107
21
-123.02
0
LINE
8
BLACK
6
CONTINUOUS
10
56.7107
20
-123.02
11
55.8621
21
-123.02
0
LINE
8
BLACK
6
CONTINUOUS
10
55.8621
20
-123.02
11
55.8621
21
-123.868
0
LINE
8
BLACK
6
CONTINUOUS
10
55.8621
20
-123.868
11
56.7107
21
-123.868
0
LINE
8
BLACK
6
CONTINUOUS
10
59.2507
20
-123.868
11
59.2507
21
-123.02
0
LINE
8
BLACK
6
CONTINUOUS
10
59.2507
20
-123.02
11
58.4021
21
-123.02
0
LINE
8
BLACK
6
CONTINUOUS
10
58.4021
20
-123.02
11
58.4021
21
-123.868
0
LINE
8
BLACK
6
CONTINUOUS
10
58.4021
20
-123.868
11
59.2507
21
-123.868
0
LINE
8
BLACK
6
CONTINUOUS
10
116.908
20
-71.3411
11
116.908
21
-70.4925
0
LINE
8
BLACK
6
CONTINUOUS
10
116.908
20
-70.4925
11
116.06
21
-70.4925
0
LINE
8
BLACK
6
CONTINUOUS
10
116.06
20
-70.4925
11
116.06
21
-71.3411
0
LINE
8
BLACK
6
CONTINUOUS
10
116.06
20
-71.3411
11
116.908
21
-71.3411
0
LINE
8
BLACK
6
CONTINUOUS
10
119.448
20
-71.3411
11
119.448
21
-70.4925
0
LINE
8
BLACK
6
CONTINUOUS
10
119.448
20
-70.4925
11
118.6
21
-70.4925
0
LINE
8
BLACK
6
CONTINUOUS
10
118.6
20
-70.4925
11
118.6
21
-71.3411
0
LINE
8
BLACK
6
CONTINUOUS
10
118.6
20
-71.3411
11
119.448
21
-71.3411
0
LINE
8
BLACK
6
CONTINUOUS
10
121.988
20
-71.3411
11
121.988
21
-70.4925
0
LINE
8
BLACK
6
CONTINUOUS
10
121.988
20
-70.4925
11
121.14
21
-70.4925
0
LINE
8
BLACK
6
CONTINUOUS
10
121.14
20
-70.4925
11
121.14
21
-71.3411
0
LINE
8
BLACK
6
CONTINUOUS
10
121.14
20
-71.3411
11
121.988
21
-71.3411
0
LINE
8
BLACK
6
CONTINUOUS
10
67.3063
20
-52.7931
11
67.3063
21
-51.9445
0
LINE
8
BLACK
6
CONTINUOUS
10
67.3063
20
-51.9445
11
66.4577
21
-51.9445
0
LINE
8
BLACK
6
CONTINUOUS
10
66.4577
20
-51.9445
11
66.4577
21
-52.7931
0
LINE
8
BLACK
6
CONTINUOUS
10
66.4577
20
-52.7931
11
67.3063
21
-52.7931
0
LINE
8
BLACK
6
CONTINUOUS
10
69.8463
20
-52.7931
11
69.8463
21
-51.9445
0
LINE
8
BLACK
6
CONTINUOUS
10
69.8463
20
-51.9445
11
68.9977
21
-51.9445
0
LINE
8
BLACK
6
CONTINUOUS
10
68.9977
20
-51.9445
11
68.9977
21
-52.7931
0
LINE
8
BLACK
6
CONTINUOUS
10
68.9977
20
-52.7931
11
69.8463
21
-52.7931
0
LINE
8
BLACK
6
CONTINUOUS
10
72.3863
20
-52.7931
11
72.3863
21
-51.9445
0
LINE
8
BLACK
6
CONTINUOUS
10
72.3863
20
-51.9445
11
71.5377
21
-51.9445
0
LINE
8
BLACK
6
CONTINUOUS
10
71.5377
20
-51.9445
11
71.5377
21
-52.7931
0
LINE
8
BLACK
6
CONTINUOUS
10
71.5377
20
-52.7931
11
72.3863
21
-52.7931
0
LINE
8
BLACK
6
CONTINUOUS
10
74.9263
20
-52.7931
11
74.9263
21
-51.9445
0
LINE
8
BLACK
6
CONTINUOUS
10
74.9263
20
-51.9445
11
74.0777
21
-51.9445
0
LINE
8
BLACK
6
CONTINUOUS
10
74.0777
20
-51.9445
11
74.0777
21
-52.7931
0
LINE
8
BLACK
6
CONTINUOUS
10
74.0777
20
-52.7931
11
74.9263
21
-52.7931
0
LINE
8
BLACK
6
CONTINUOUS
10
116.908
20
-123.411
11
116.908
21
-122.563
0
LINE
8
BLACK
6
CONTINUOUS
10
116.908
20
-122.563
11
116.06
21
-122.563
0
LINE
8
BLACK
6
CONTINUOUS
10
116.06
20
-122.563
11
116.06
21
-123.411
0
LINE
8
BLACK
6
CONTINUOUS
10
116.06
20
-123.411
11
116.908
21
-123.411
0
LINE
8
BLACK
6
CONTINUOUS
10
119.448
20
-123.411
11
119.448
21
-122.563
0
LINE
8
BLACK
6
CONTINUOUS
10
119.448
20
-122.563
11
118.6
21
-122.563
0
LINE
8
BLACK
6
CONTINUOUS
10
118.6
20
-122.563
11
118.6
21
-123.411
0
LINE
8
BLACK
6
CONTINUOUS
10
118.6
20
-123.411
11
119.448
21
-123.411
0
LINE
8
BLACK
6
CONTINUOUS
10
121.988
20
-123.411
11
121.988
21
-122.563
0
LINE
8
BLACK
6
CONTINUOUS
10
121.988
20
-122.563
11
121.14
21
-122.563
0
LINE
8
BLACK
6
CONTINUOUS
10
121.14
20
-122.563
11
121.14
21
-123.411
0
LINE
8
BLACK
6
CONTINUOUS
10
121.14
20
-123.411
11
121.988
21
-123.411
0
LINE
8
BLACK
6
CONTINUOUS
10
55.0507
20
-73.6755
11
55.0507
21
-72.8269
0
LINE
8
BLACK
6
CONTINUOUS
10
55.0507
20
-72.8269
11
54.2021
21
-72.8269
0
LINE
8
BLACK
6
CONTINUOUS
10
54.2021
20
-72.8269
11
54.2021
21
-73.6755
0
LINE
8
BLACK
6
CONTINUOUS
10
54.2021
20
-73.6755
11
55.0507
21
-73.6755
0
LINE
8
BLACK
6
CONTINUOUS
10
57.5907
20
-73.6755
11
57.5907
21
-72.8269
0
LINE
8
BLACK
6
CONTINUOUS
10
57.5907
20
-72.8269
11
56.7421
21
-72.8269
0
LINE
8
BLACK
6
CONTINUOUS
10
56.7421
20
-72.8269
11
56.7421
21
-73.6755
0
LINE
8
BLACK
6
CONTINUOUS
10
56.7421
20
-73.6755
11
57.5907
21
-73.6755
0
LINE
8
BLACK
6
CONTINUOUS
10
60.1307
20
-73.6755
11
60.1307
21
-72.8269
0
LINE
8
BLACK
6
CONTINUOUS
10
60.1307
20
-72.8269
11
59.2821
21
-72.8269
0
LINE
8
BLACK
6
CONTINUOUS
10
59.2821
20
-72.8269
11
59.2821
21
-73.6755
0
LINE
8
BLACK
6
CONTINUOUS
10
59.2821
20
-73.6755
11
60.1307
21
-73.6755
0
LINE
8
BLACK
6
CONTINUOUS
10
62.6707
20
-73.6755
11
62.6707
21
-72.8269
0
LINE
8
BLACK
6
CONTINUOUS
10
62.6707
20
-72.8269
11
61.8221
21
-72.8269
0
LINE
8
BLACK
6
CONTINUOUS
10
61.8221
20
-72.8269
11
61.8221
21
-73.6755
0
LINE
8
BLACK
6
CONTINUOUS
10
61.8221
20
-73.6755
11
62.6707
21
-73.6755
0
LINE
8
BLACK
6
CONTINUOUS
10
65.2107
20
-73.6755
11
65.2107
21
-72.8269
0
LINE
8
BLACK
6
CONTINUOUS
10
65.2107
20
-72.8269
11
64.3621
21
-72.8269
0
LINE
8
BLACK
6
CONTINUOUS
10
64.3621
20
-72.8269
11
64.3621
21
-73.6755
0
LINE
8
BLACK
6
CONTINUOUS
10
64.3621
20
-73.6755
11
65.2107
21
-73.6755
0
LINE
8
BLACK
6
CONTINUOUS
10
67.7507
20
-73.6755
11
67.7507
21
-72.8269
0
LINE
8
BLACK
6
CONTINUOUS
10
67.7507
20
-72.8269
11
66.9021
21
-72.8269
0
LINE
8
BLACK
6
CONTINUOUS
10
66.9021
20
-72.8269
11
66.9021
21
-73.6755
0
LINE
8
BLACK
6
CONTINUOUS
10
66.9021
20
-73.6755
11
67.7507
21
-73.6755
0
LINE
8
BLACK
6
CONTINUOUS
10
42.3127
20
-73.6755
11
42.3127
21
-72.8269
0
LINE
8
BLACK
6
CONTINUOUS
10
42.3127
20
-72.8269
11
41.4641
21
-72.8269
0
LINE
8
BLACK
6
CONTINUOUS
10
41.4641
20
-72.8269
11
41.4641
21
-73.6755
0
LINE
8
BLACK
6
CONTINUOUS
10
41.4641
20
-73.6755
11
42.3127
21
-73.6755
0
LINE
8
BLACK
6
CONTINUOUS
10
44.8527
20
-73.6755
11
44.8527
21
-72.8269
0
LINE
8
BLACK
6
CONTINUOUS
10
44.8527
20
-72.8269
11
44.0041
21
-72.8269
0
LINE
8
BLACK
6
CONTINUOUS
10
44.0041
20
-72.8269
11
44.0041
21
-73.6755
0
LINE
8
BLACK
6
CONTINUOUS
10
44.0041
20
-73.6755
11
44.8527
21
-73.6755
0
LINE
8
BLACK
6
CONTINUOUS
10
47.3927
20
-73.6755
11
47.3927
21
-72.8269
0
LINE
8
BLACK
6
CONTINUOUS
10
47.3927
20
-72.8269
11
46.5441
21
-72.8269
0
LINE
8
BLACK
6
CONTINUOUS
10
46.5441
20
-72.8269
11
46.5441
21
-73.6755
0
LINE
8
BLACK
6
CONTINUOUS
10
46.5441
20
-73.6755
11
47.3927
21
-73.6755
0
LINE
8
BLACK
6
CONTINUOUS
10
49.9327
20
-73.6755
11
49.9327
21
-72.8269
0
LINE
8
BLACK
6
CONTINUOUS
10
49.9327
20
-72.8269
11
49.0841
21
-72.8269
0
LINE
8
BLACK
6
CONTINUOUS
10
49.0841
20
-72.8269
11
49.0841
21
-73.6755
0
LINE
8
BLACK
6
CONTINUOUS
10
49.0841
20
-73.6755
11
49.9327
21
-73.6755
0
LINE
8
BLACK
6
CONTINUOUS
10
61.8487
20
-93.7699
11
61.8487
21
-92.9213
0
LINE
8
BLACK
6
CONTINUOUS
10
61.8487
20
-92.9213
11
61.0001
21
-92.9213
0
LINE
8
BLACK
6
CONTINUOUS
10
61.0001
20
-92.9213
11
61.0001
21
-93.7699
0
LINE
8
BLACK
6
CONTINUOUS
10
61.0001
20
-93.7699
11
61.8487
21
-93.7699
0
LINE
8
BLACK
6
CONTINUOUS
10
64.3887
20
-93.7699
11
64.3887
21
-92.9213
0
LINE
8
BLACK
6
CONTINUOUS
10
64.3887
20
-92.9213
11
63.5401
21
-92.9213
0
LINE
8
BLACK
6
CONTINUOUS
10
63.5401
20
-92.9213
11
63.5401
21
-93.7699
0
LINE
8
BLACK
6
CONTINUOUS
10
63.5401
20
-93.7699
11
64.3887
21
-93.7699
0
LINE
8
BLACK
6
CONTINUOUS
10
66.9287
20
-93.7699
11
66.9287
21
-92.9213
0
LINE
8
BLACK
6
CONTINUOUS
10
66.9287
20
-92.9213
11
66.0801
21
-92.9213
0
LINE
8
BLACK
6
CONTINUOUS
10
66.0801
20
-92.9213
11
66.0801
21
-93.7699
0
LINE
8
BLACK
6
CONTINUOUS
10
66.0801
20
-93.7699
11
66.9287
21
-93.7699
0
LINE
8
BLACK
6
CONTINUOUS
10
69.4687
20
-93.7699
11
69.4687
21
-92.9213
0
LINE
8
BLACK
6
CONTINUOUS
10
69.4687
20
-92.9213
11
68.6201
21
-92.9213
0
LINE
8
BLACK
6
CONTINUOUS
10
68.6201
20
-92.9213
11
68.6201
21
-93.7699
0
LINE
8
BLACK
6
CONTINUOUS
10
68.6201
20
-93.7699
11
69.4687
21
-93.7699
0
LINE
8
BLACK
6
CONTINUOUS
10
72.0087
20
-93.7699
11
72.0087
21
-92.9213
0
LINE
8
BLACK
6
CONTINUOUS
10
72.0087
20
-92.9213
11
71.1601
21
-92.9213
0
LINE
8
BLACK
6
CONTINUOUS
10
71.1601
20
-92.9213
11
71.1601
21
-93.7699
0
LINE
8
BLACK
6
CONTINUOUS
10
71.1601
20
-93.7699
11
72.0087
21
-93.7699
0
LINE
8
BLACK
6
CONTINUOUS
10
74.5487
20
-93.7699
11
74.5487
21
-92.9213
0
LINE
8
BLACK
6
CONTINUOUS
10
74.5487
20
-92.9213
11
73.7001
21
-92.9213
0
LINE
8
BLACK
6
CONTINUOUS
10
73.7001
20
-92.9213
11
73.7001
21
-93.7699
0
LINE
8
BLACK
6
CONTINUOUS
10
73.7001
20
-93.7699
11
74.5487
21
-93.7699
0
LINE
8
BLACK
6
CONTINUOUS
10
79.6603
20
-93.7699
11
79.6603
21
-92.9213
0
LINE
8
BLACK
6
CONTINUOUS
10
79.6603
20
-92.9213
11
78.8117
21
-92.9213
0
LINE
8
BLACK
6
CONTINUOUS
10
78.8117
20
-92.9213
11
78.8117
21
-93.7699
0
LINE
8
BLACK
6
CONTINUOUS
10
78.8117
20
-93.7699
11
79.6603
21
-93.7699
0
LINE
8
BLACK
6
CONTINUOUS
10
82.2003
20
-93.7699
11
82.2003
21
-92.9213
0
LINE
8
BLACK
6
CONTINUOUS
10
82.2003
20
-92.9213
11
81.3517
21
-92.9213
0
LINE
8
BLACK
6
CONTINUOUS
10
81.3517
20
-92.9213
11
81.3517
21
-93.7699
0
LINE
8
BLACK
6
CONTINUOUS
10
81.3517
20
-93.7699
11
82.2003
21
-93.7699
0
LINE
8
BLACK
6
CONTINUOUS
10
84.7403
20
-93.7699
11
84.7403
21
-92.9213
0
LINE
8
BLACK
6
CONTINUOUS
10
84.7403
20
-92.9213
11
83.8917
21
-92.9213
0
LINE
8
BLACK
6
CONTINUOUS
10
83.8917
20
-92.9213
11
83.8917
21
-93.7699
0
LINE
8
BLACK
6
CONTINUOUS
10
83.8917
20
-93.7699
11
84.7403
21
-93.7699
0
LINE
8
BLACK
6
CONTINUOUS
10
87.2803
20
-93.7699
11
87.2803
21
-92.9213
0
LINE
8
BLACK
6
CONTINUOUS
10
87.2803
20
-92.9213
11
86.4317
21
-92.9213
0
LINE
8
BLACK
6
CONTINUOUS
10
86.4317
20
-92.9213
11
86.4317
21
-93.7699
0
LINE
8
BLACK
6
CONTINUOUS
10
86.4317
20
-93.7699
11
87.2803
21
-93.7699
0
LINE
8
BLACK
6
CONTINUOUS
10
89.8203
20
-93.7699
11
89.8203
21
-92.9213
0
LINE
8
BLACK
6
CONTINUOUS
10
89.8203
20
-92.9213
11
88.9717
21
-92.9213
0
LINE
8
BLACK
6
CONTINUOUS
10
88.9717
20
-92.9213
11
88.9717
21
-93.7699
0
LINE
8
BLACK
6
CONTINUOUS
10
88.9717
20
-93.7699
11
89.8203
21
-93.7699
0
LINE
8
BLACK
6
CONTINUOUS
10
92.3603
20
-93.7699
11
92.3603
21
-92.9213
0
LINE
8
BLACK
6
CONTINUOUS
10
92.3603
20
-92.9213
11
91.5117
21
-92.9213
0
LINE
8
BLACK
6
CONTINUOUS
10
91.5117
20
-92.9213
11
91.5117
21
-93.7699
0
LINE
8
BLACK
6
CONTINUOUS
10
91.5117
20
-93.7699
11
92.3603
21
-93.7699
0
LINE
8
BLACK
6
CONTINUOUS
10
42.4359
20
-115.334
11
42.4359
21
-114.486
0
LINE
8
BLACK
6
CONTINUOUS
10
42.4359
20
-114.486
11
41.5873
21
-114.486
0
LINE
8
BLACK
6
CONTINUOUS
10
41.5873
20
-114.486
11
41.5873
21
-115.334
0
LINE
8
BLACK
6
CONTINUOUS
10
41.5873
20
-115.334
11
42.4359
21
-115.334
0
LINE
8
BLACK
6
CONTINUOUS
10
44.9759
20
-115.334
11
44.9759
21
-114.486
0
LINE
8
BLACK
6
CONTINUOUS
10
44.9759
20
-114.486
11
44.1273
21
-114.486
0
LINE
8
BLACK
6
CONTINUOUS
10
44.1273
20
-114.486
11
44.1273
21
-115.334
0
LINE
8
BLACK
6
CONTINUOUS
10
44.1273
20
-115.334
11
44.9759
21
-115.334
0
LINE
8
BLACK
6
CONTINUOUS
10
47.5159
20
-115.334
11
47.5159
21
-114.486
0
LINE
8
BLACK
6
CONTINUOUS
10
47.5159
20
-114.486
11
46.6673
21
-114.486
0
LINE
8
BLACK
6
CONTINUOUS
10
46.6673
20
-114.486
11
46.6673
21
-115.334
0
LINE
8
BLACK
6
CONTINUOUS
10
46.6673
20
-115.334
11
47.5159
21
-115.334
0
LINE
8
BLACK
6
CONTINUOUS
10
116.908
20
-88.6978
11
116.908
21
-87.8492
0
LINE
8
BLACK
6
CONTINUOUS
10
116.908
20
-87.8492
11
116.06
21
-87.8492
0
LINE
8
BLACK
6
CONTINUOUS
10
116.06
20
-87.8492
11
116.06
21
-88.6978
0
LINE
8
BLACK
6
CONTINUOUS
10
116.06
20
-88.6978
11
116.908
21
-88.6978
0
LINE
8
BLACK
6
CONTINUOUS
10
119.448
20
-88.6978
11
119.448
21
-87.8492
0
LINE
8
BLACK
6
CONTINUOUS
10
119.448
20
-87.8492
11
118.6
21
-87.8492
0
LINE
8
BLACK
6
CONTINUOUS
10
118.6
20
-87.8492
11
118.6
21
-88.6978
0
LINE
8
BLACK
6
CONTINUOUS
10
118.6
20
-88.6978
11
119.448
21
-88.6978
0
LINE
8
BLACK
6
CONTINUOUS
10
121.988
20
-88.6978
11
121.988
21
-87.8492
0
LINE
8
BLACK
6
CONTINUOUS
10
121.988
20
-87.8492
11
121.14
21
-87.8492
0
LINE
8
BLACK
6
CONTINUOUS
10
121.14
20
-87.8492
11
121.14
21
-88.6978
0
LINE
8
BLACK
6
CONTINUOUS
10
121.14
20
-88.6978
11
121.988
21
-88.6978
0
LINE
8
BLACK
6
CONTINUOUS
10
79.0639
20
-71.9807
11
79.0639
21
-71.1321
0
LINE
8
BLACK
6
CONTINUOUS
10
79.0639
20
-71.1321
11
78.2153
21
-71.1321
0
LINE
8
BLACK
6
CONTINUOUS
10
78.2153
20
-71.1321
11
78.2153
21
-71.9807
0
LINE
8
BLACK
6
CONTINUOUS
10
78.2153
20
-71.9807
11
79.0639
21
-71.9807
0
LINE
8
BLACK
6
CONTINUOUS
10
81.6039
20
-71.9807
11
81.6039
21
-71.1321
0
LINE
8
BLACK
6
CONTINUOUS
10
81.6039
20
-71.1321
11
80.7553
21
-71.1321
0
LINE
8
BLACK
6
CONTINUOUS
10
80.7553
20
-71.1321
11
80.7553
21
-71.9807
0
LINE
8
BLACK
6
CONTINUOUS
10
80.7553
20
-71.9807
11
81.6039
21
-71.9807
0
LINE
8
BLACK
6
CONTINUOUS
10
84.1439
20
-71.9807
11
84.1439
21
-71.1321
0
LINE
8
BLACK
6
CONTINUOUS
10
84.1439
20
-71.1321
11
83.2953
21
-71.1321
0
LINE
8
BLACK
6
CONTINUOUS
10
83.2953
20
-71.1321
11
83.2953
21
-71.9807
0
LINE
8
BLACK
6
CONTINUOUS
10
83.2953
20
-71.9807
11
84.1439
21
-71.9807
0
LINE
8
BLACK
6
CONTINUOUS
10
86.6839
20
-71.9807
11
86.6839
21
-71.1321
0
LINE
8
BLACK
6
CONTINUOUS
10
86.6839
20
-71.1321
11
85.8353
21
-71.1321
0
LINE
8
BLACK
6
CONTINUOUS
10
85.8353
20
-71.1321
11
85.8353
21
-71.9807
0
LINE
8
BLACK
6
CONTINUOUS
10
85.8353
20
-71.9807
11
86.6839
21
-71.9807
0
LINE
8
BLACK
6
CONTINUOUS
10
89.2239
20
-71.9807
11
89.2239
21
-71.1321
0
LINE
8
BLACK
6
CONTINUOUS
10
89.2239
20
-71.1321
11
88.3753
21
-71.1321
0
LINE
8
BLACK
6
CONTINUOUS
10
88.3753
20
-71.1321
11
88.3753
21
-71.9807
0
LINE
8
BLACK
6
CONTINUOUS
10
88.3753
20
-71.9807
11
89.2239
21
-71.9807
0
LINE
8
BLACK
6
CONTINUOUS
10
91.7639
20
-71.9807
11
91.7639
21
-71.1321
0
LINE
8
BLACK
6
CONTINUOUS
10
91.7639
20
-71.1321
11
90.9153
21
-71.1321
0
LINE
8
BLACK
6
CONTINUOUS
10
90.9153
20
-71.1321
11
90.9153
21
-71.9807
0
LINE
8
BLACK
6
CONTINUOUS
10
90.9153
20
-71.9807
11
91.7639
21
-71.9807
0
LINE
8
BLACK
6
CONTINUOUS
10
83.1775
20
-61.4351
11
83.1775
21
-60.5865
0
LINE
8
BLACK
6
CONTINUOUS
10
83.1775
20
-60.5865
11
82.3289
21
-60.5865
0
LINE
8
BLACK
6
CONTINUOUS
10
82.3289
20
-60.5865
11
82.3289
21
-61.4351
0
LINE
8
BLACK
6
CONTINUOUS
10
82.3289
20
-61.4351
11
83.1775
21
-61.4351
0
LINE
8
BLACK
6
CONTINUOUS
10
85.7175
20
-61.4351
11
85.7175
21
-60.5865
0
LINE
8
BLACK
6
CONTINUOUS
10
85.7175
20
-60.5865
11
84.8689
21
-60.5865
0
LINE
8
BLACK
6
CONTINUOUS
10
84.8689
20
-60.5865
11
84.8689
21
-61.4351
0
LINE
8
BLACK
6
CONTINUOUS
10
84.8689
20
-61.4351
11
85.7175
21
-61.4351
0
LINE
8
BLACK
6
CONTINUOUS
10
88.2575
20
-61.4351
11
88.2575
21
-60.5865
0
LINE
8
BLACK
6
CONTINUOUS
10
88.2575
20
-60.5865
11
87.4089
21
-60.5865
0
LINE
8
BLACK
6
CONTINUOUS
10
87.4089
20
-60.5865
11
87.4089
21
-61.4351
0
LINE
8
BLACK
6
CONTINUOUS
10
87.4089
20
-61.4351
11
88.2575
21
-61.4351
0
LINE
8
BLACK
6
CONTINUOUS
10
81.2471
20
-115.638
11
81.2471
21
-114.79
0
LINE
8
BLACK
6
CONTINUOUS
10
81.2471
20
-114.79
11
80.3985
21
-114.79
0
LINE
8
BLACK
6
CONTINUOUS
10
80.3985
20
-114.79
11
80.3985
21
-115.638
0
LINE
8
BLACK
6
CONTINUOUS
10
80.3985
20
-115.638
11
81.2471
21
-115.638
0
LINE
8
BLACK
6
CONTINUOUS
10
83.7871
20
-115.638
11
83.7871
21
-114.79
0
LINE
8
BLACK
6
CONTINUOUS
10
83.7871
20
-114.79
11
82.9385
21
-114.79
0
LINE
8
BLACK
6
CONTINUOUS
10
82.9385
20
-114.79
11
82.9385
21
-115.638
0
LINE
8
BLACK
6
CONTINUOUS
10
82.9385
20
-115.638
11
83.7871
21
-115.638
0
LINE
8
BLACK
6
CONTINUOUS
10
83.1739
20
-52.7931
11
83.1739
21
-51.9445
0
LINE
8
BLACK
6
CONTINUOUS
10
83.1739
20
-51.9445
11
82.3253
21
-51.9445
0
LINE
8
BLACK
6
CONTINUOUS
10
82.3253
20
-51.9445
11
82.3253
21
-52.7931
0
LINE
8
BLACK
6
CONTINUOUS
10
82.3253
20
-52.7931
11
83.1739
21
-52.7931
0
LINE
8
BLACK
6
CONTINUOUS
10
85.7139
20
-52.7931
11
85.7139
21
-51.9445
0
LINE
8
BLACK
6
CONTINUOUS
10
85.7139
20
-51.9445
11
84.8653
21
-51.9445
0
LINE
8
BLACK
6
CONTINUOUS
10
84.8653
20
-51.9445
11
84.8653
21
-52.7931
0
LINE
8
BLACK
6
CONTINUOUS
10
84.8653
20
-52.7931
11
85.7139
21
-52.7931
0
LINE
8
BLACK
6
CONTINUOUS
10
88.2539
20
-52.7931
11
88.2539
21
-51.9445
0
LINE
8
BLACK
6
CONTINUOUS
10
88.2539
20
-51.9445
11
87.4053
21
-51.9445
0
LINE
8
BLACK
6
CONTINUOUS
10
87.4053
20
-51.9445
11
87.4053
21
-52.7931
0
LINE
8
BLACK
6
CONTINUOUS
10
87.4053
20
-52.7931
11
88.2539
21
-52.7931
0
LINE
8
BLACK
6
CONTINUOUS
10
67.2163
20
-61.4351
11
67.2163
21
-60.5865
0
LINE
8
BLACK
6
CONTINUOUS
10
67.2163
20
-60.5865
11
66.3677
21
-60.5865
0
LINE
8
BLACK
6
CONTINUOUS
10
66.3677
20
-60.5865
11
66.3677
21
-61.4351
0
LINE
8
BLACK
6
CONTINUOUS
10
66.3677
20
-61.4351
11
67.2163
21
-61.4351
0
LINE
8
BLACK
6
CONTINUOUS
10
69.7563
20
-61.4351
11
69.7563
21
-60.5865
0
LINE
8
BLACK
6
CONTINUOUS
10
69.7563
20
-60.5865
11
68.9077
21
-60.5865
0
LINE
8
BLACK
6
CONTINUOUS
10
68.9077
20
-60.5865
11
68.9077
21
-61.4351
0
LINE
8
BLACK
6
CONTINUOUS
10
68.9077
20
-61.4351
11
69.7563
21
-61.4351
0
LINE
8
BLACK
6
CONTINUOUS
10
72.2963
20
-61.4351
11
72.2963
21
-60.5865
0
LINE
8
BLACK
6
CONTINUOUS
10
72.2963
20
-60.5865
11
71.4477
21
-60.5865
0
LINE
8
BLACK
6
CONTINUOUS
10
71.4477
20
-60.5865
11
71.4477
21
-61.4351
0
LINE
8
BLACK
6
CONTINUOUS
10
71.4477
20
-61.4351
11
72.2963
21
-61.4351
0
LINE
8
BLACK
6
CONTINUOUS
10
74.8363
20
-61.4351
11
74.8363
21
-60.5865
0
LINE
8
BLACK
6
CONTINUOUS
10
74.8363
20
-60.5865
11
73.9877
21
-60.5865
0
LINE
8
BLACK
6
CONTINUOUS
10
73.9877
20
-60.5865
11
73.9877
21
-61.4351
0
LINE
8
BLACK
6
CONTINUOUS
10
73.9877
20
-61.4351
11
74.8363
21
-61.4351
0
LINE
8
BLACK
6
CONTINUOUS
10
54.9607
20
-82.6055
11
54.9607
21
-81.7569
0
LINE
8
BLACK
6
CONTINUOUS
10
54.9607
20
-81.7569
11
54.1121
21
-81.7569
0
LINE
8
BLACK
6
CONTINUOUS
10
54.1121
20
-81.7569
11
54.1121
21
-82.6055
0
LINE
8
BLACK
6
CONTINUOUS
10
54.1121
20
-82.6055
11
54.9607
21
-82.6055
0
LINE
8
BLACK
6
CONTINUOUS
10
57.5007
20
-82.6055
11
57.5007
21
-81.7569
0
LINE
8
BLACK
6
CONTINUOUS
10
57.5007
20
-81.7569
11
56.6521
21
-81.7569
0
LINE
8
BLACK
6
CONTINUOUS
10
56.6521
20
-81.7569
11
56.6521
21
-82.6055
0
LINE
8
BLACK
6
CONTINUOUS
10
56.6521
20
-82.6055
11
57.5007
21
-82.6055
0
LINE
8
BLACK
6
CONTINUOUS
10
60.0407
20
-82.6055
11
60.0407
21
-81.7569
0
LINE
8
BLACK
6
CONTINUOUS
10
60.0407
20
-81.7569
11
59.1921
21
-81.7569
0
LINE
8
BLACK
6
CONTINUOUS
10
59.1921
20
-81.7569
11
59.1921
21
-82.6055
0
LINE
8
BLACK
6
CONTINUOUS
10
59.1921
20
-82.6055
11
60.0407
21
-82.6055
0
LINE
8
BLACK
6
CONTINUOUS
10
62.5807
20
-82.6055
11
62.5807
21
-81.7569
0
LINE
8
BLACK
6
CONTINUOUS
10
62.5807
20
-81.7569
11
61.7321
21
-81.7569
0
LINE
8
BLACK
6
CONTINUOUS
10
61.7321
20
-81.7569
11
61.7321
21
-82.6055
0
LINE
8
BLACK
6
CONTINUOUS
10
61.7321
20
-82.6055
11
62.5807
21
-82.6055
0
LINE
8
BLACK
6
CONTINUOUS
10
65.1207
20
-82.6055
11
65.1207
21
-81.7569
0
LINE
8
BLACK
6
CONTINUOUS
10
65.1207
20
-81.7569
11
64.2721
21
-81.7569
0
LINE
8
BLACK
6
CONTINUOUS
10
64.2721
20
-81.7569
11
64.2721
21
-82.6055
0
LINE
8
BLACK
6
CONTINUOUS
10
64.2721
20
-82.6055
11
65.1207
21
-82.6055
0
LINE
8
BLACK
6
CONTINUOUS
10
67.6607
20
-82.6055
11
67.6607
21
-81.7569
0
LINE
8
BLACK
6
CONTINUOUS
10
67.6607
20
-81.7569
11
66.8121
21
-81.7569
0
LINE
8
BLACK
6
CONTINUOUS
10
66.8121
20
-81.7569
11
66.8121
21
-82.6055
0
LINE
8
BLACK
6
CONTINUOUS
10
66.8121
20
-82.6055
11
67.6607
21
-82.6055
0
LINE
8
BLACK
6
CONTINUOUS
10
42.5027
20
-82.6055
11
42.5027
21
-81.7569
0
LINE
8
BLACK
6
CONTINUOUS
10
42.5027
20
-81.7569
11
41.6541
21
-81.7569
0
LINE
8
BLACK
6
CONTINUOUS
10
41.6541
20
-81.7569
11
41.6541
21
-82.6055
0
LINE
8
BLACK
6
CONTINUOUS
10
41.6541
20
-82.6055
11
42.5027
21
-82.6055
0
LINE
8
BLACK
6
CONTINUOUS
10
45.0427
20
-82.6055
11
45.0427
21
-81.7569
0
LINE
8
BLACK
6
CONTINUOUS
10
45.0427
20
-81.7569
11
44.1941
21
-81.7569
0
LINE
8
BLACK
6
CONTINUOUS
10
44.1941
20
-81.7569
11
44.1941
21
-82.6055
0
LINE
8
BLACK
6
CONTINUOUS
10
44.1941
20
-82.6055
11
45.0427
21
-82.6055
0
LINE
8
BLACK
6
CONTINUOUS
10
47.5827
20
-82.6055
11
47.5827
21
-81.7569
0
LINE
8
BLACK
6
CONTINUOUS
10
47.5827
20
-81.7569
11
46.7341
21
-81.7569
0
LINE
8
BLACK
6
CONTINUOUS
10
46.7341
20
-81.7569
11
46.7341
21
-82.6055
0
LINE
8
BLACK
6
CONTINUOUS
10
46.7341
20
-82.6055
11
47.5827
21
-82.6055
0
LINE
8
BLACK
6
CONTINUOUS
10
50.1227
20
-82.6055
11
50.1227
21
-81.7569
0
LINE
8
BLACK
6
CONTINUOUS
10
50.1227
20
-81.7569
11
49.2741
21
-81.7569
0
LINE
8
BLACK
6
CONTINUOUS
10
49.2741
20
-81.7569
11
49.2741
21
-82.6055
0
LINE
8
BLACK
6
CONTINUOUS
10
49.2741
20
-82.6055
11
50.1227
21
-82.6055
0
LINE
8
BLACK
6
CONTINUOUS
10
79.7303
20
-102.56
11
79.7303
21
-101.712
0
LINE
8
BLACK
6
CONTINUOUS
10
79.7303
20
-101.712
11
78.8817
21
-101.712
0
LINE
8
BLACK
6
CONTINUOUS
10
78.8817
20
-101.712
11
78.8817
21
-102.56
0
LINE
8
BLACK
6
CONTINUOUS
10
78.8817
20
-102.56
11
79.7303
21
-102.56
0
LINE
8
BLACK
6
CONTINUOUS
10
82.2703
20
-102.56
11
82.2703
21
-101.712
0
LINE
8
BLACK
6
CONTINUOUS
10
82.2703
20
-101.712
11
81.4217
21
-101.712
0
LINE
8
BLACK
6
CONTINUOUS
10
81.4217
20
-101.712
11
81.4217
21
-102.56
0
LINE
8
BLACK
6
CONTINUOUS
10
81.4217
20
-102.56
11
82.2703
21
-102.56
0
LINE
8
BLACK
6
CONTINUOUS
10
84.8103
20
-102.56
11
84.8103
21
-101.712
0
LINE
8
BLACK
6
CONTINUOUS
10
84.8103
20
-101.712
11
83.9617
21
-101.712
0
LINE
8
BLACK
6
CONTINUOUS
10
83.9617
20
-101.712
11
83.9617
21
-102.56
0
LINE
8
BLACK
6
CONTINUOUS
10
83.9617
20
-102.56
11
84.8103
21
-102.56
0
LINE
8
BLACK
6
CONTINUOUS
10
87.3503
20
-102.56
11
87.3503
21
-101.712
0
LINE
8
BLACK
6
CONTINUOUS
10
87.3503
20
-101.712
11
86.5017
21
-101.712
0
LINE
8
BLACK
6
CONTINUOUS
10
86.5017
20
-101.712
11
86.5017
21
-102.56
0
LINE
8
BLACK
6
CONTINUOUS
10
86.5017
20
-102.56
11
87.3503
21
-102.56
0
LINE
8
BLACK
6
CONTINUOUS
10
89.8903
20
-102.56
11
89.8903
21
-101.712
0
LINE
8
BLACK
6
CONTINUOUS
10
89.8903
20
-101.712
11
89.0417
21
-101.712
0
LINE
8
BLACK
6
CONTINUOUS
10
89.0417
20
-101.712
11
89.0417
21
-102.56
0
LINE
8
BLACK
6
CONTINUOUS
10
89.0417
20
-102.56
11
89.8903
21
-102.56
0
LINE
8
BLACK
6
CONTINUOUS
10
92.4303
20
-102.56
11
92.4303
21
-101.712
0
LINE
8
BLACK
6
CONTINUOUS
10
92.4303
20
-101.712
11
91.5817
21
-101.712
0
LINE
8
BLACK
6
CONTINUOUS
10
91.5817
20
-101.712
11
91.5817
21
-102.56
0
LINE
8
BLACK
6
CONTINUOUS
10
91.5817
20
-102.56
11
92.4303
21
-102.56
0
LINE
8
BLACK
6
CONTINUOUS
10
61.8487
20
-102.56
11
61.8487
21
-101.712
0
LINE
8
BLACK
6
CONTINUOUS
10
61.8487
20
-101.712
11
61.0001
21
-101.712
0
LINE
8
BLACK
6
CONTINUOUS
10
61.0001
20
-101.712
11
61.0001
21
-102.56
0
LINE
8
BLACK
6
CONTINUOUS
10
61.0001
20
-102.56
11
61.8487
21
-102.56
0
LINE
8
BLACK
6
CONTINUOUS
10
64.3887
20
-102.56
11
64.3887
21
-101.712
0
LINE
8
BLACK
6
CONTINUOUS
10
64.3887
20
-101.712
11
63.5401
21
-101.712
0
LINE
8
BLACK
6
CONTINUOUS
10
63.5401
20
-101.712
11
63.5401
21
-102.56
0
LINE
8
BLACK
6
CONTINUOUS
10
63.5401
20
-102.56
11
64.3887
21
-102.56
0
LINE
8
BLACK
6
CONTINUOUS
10
66.9287
20
-102.56
11
66.9287
21
-101.712
0
LINE
8
BLACK
6
CONTINUOUS
10
66.9287
20
-101.712
11
66.0801
21
-101.712
0
LINE
8
BLACK
6
CONTINUOUS
10
66.0801
20
-101.712
11
66.0801
21
-102.56
0
LINE
8
BLACK
6
CONTINUOUS
10
66.0801
20
-102.56
11
66.9287
21
-102.56
0
LINE
8
BLACK
6
CONTINUOUS
10
69.4687
20
-102.56
11
69.4687
21
-101.712
0
LINE
8
BLACK
6
CONTINUOUS
10
69.4687
20
-101.712
11
68.6201
21
-101.712
0
LINE
8
BLACK
6
CONTINUOUS
10
68.6201
20
-101.712
11
68.6201
21
-102.56
0
LINE
8
BLACK
6
CONTINUOUS
10
68.6201
20
-102.56
11
69.4687
21
-102.56
0
LINE
8
BLACK
6
CONTINUOUS
10
72.0087
20
-102.56
11
72.0087
21
-101.712
0
LINE
8
BLACK
6
CONTINUOUS
10
72.0087
20
-101.712
11
71.1601
21
-101.712
0
LINE
8
BLACK
6
CONTINUOUS
10
71.1601
20
-101.712
11
71.1601
21
-102.56
0
LINE
8
BLACK
6
CONTINUOUS
10
71.1601
20
-102.56
11
72.0087
21
-102.56
0
LINE
8
BLACK
6
CONTINUOUS
10
74.5487
20
-102.56
11
74.5487
21
-101.712
0
LINE
8
BLACK
6
CONTINUOUS
10
74.5487
20
-101.712
11
73.7001
21
-101.712
0
LINE
8
BLACK
6
CONTINUOUS
10
73.7001
20
-101.712
11
73.7001
21
-102.56
0
LINE
8
BLACK
6
CONTINUOUS
10
73.7001
20
-102.56
11
74.5487
21
-102.56
0
LINE
8
BLACK
6
CONTINUOUS
10
42.4359
20
-123.868
11
42.4359
21
-123.02
0
LINE
8
BLACK
6
CONTINUOUS
10
42.4359
20
-123.02
11
41.5873
21
-123.02
0
LINE
8
BLACK
6
CONTINUOUS
10
41.5873
20
-123.02
11
41.5873
21
-123.868
0
LINE
8
BLACK
6
CONTINUOUS
10
41.5873
20
-123.868
11
42.4359
21
-123.868
0
LINE
8
BLACK
6
CONTINUOUS
10
44.9759
20
-123.868
11
44.9759
21
-123.02
0
LINE
8
BLACK
6
CONTINUOUS
10
44.9759
20
-123.02
11
44.1273
21
-123.02
0
LINE
8
BLACK
6
CONTINUOUS
10
44.1273
20
-123.02
11
44.1273
21
-123.868
0
LINE
8
BLACK
6
CONTINUOUS
10
44.1273
20
-123.868
11
44.9759
21
-123.868
0
LINE
8
BLACK
6
CONTINUOUS
10
47.5159
20
-123.868
11
47.5159
21
-123.02
0
LINE
8
BLACK
6
CONTINUOUS
10
47.5159
20
-123.02
11
46.6673
21
-123.02
0
LINE
8
BLACK
6
CONTINUOUS
10
46.6673
20
-123.02
11
46.6673
21
-123.868
0
LINE
8
BLACK
6
CONTINUOUS
10
46.6673
20
-123.868
11
47.5159
21
-123.868
0
LINE
8
BLACK
6
CONTINUOUS
10
129.083
20
-103.722
11
129.783
21
-103.022
0
LINE
8
BLACK
6
CONTINUOUS
10
129.783
20
-103.022
11
129.083
21
-102.322
0
LINE
8
BLACK
6
CONTINUOUS
10
129.083
20
-102.322
11
128.383
21
-103.022
0
LINE
8
BLACK
6
CONTINUOUS
10
128.383
20
-103.022
11
129.083
21
-103.722
0
LINE
8
BLACK
6
CONTINUOUS
10
129.083
20
-109.222
11
129.783
21
-108.522
0
LINE
8
BLACK
6
CONTINUOUS
10
129.783
20
-108.522
11
129.083
21
-107.822
0
LINE
8
BLACK
6
CONTINUOUS
10
129.083
20
-107.822
11
128.383
21
-108.522
0
LINE
8
BLACK
6
CONTINUOUS
10
128.383
20
-108.522
11
129.083
21
-109.222
0
LINE
8
BLACK
6
CONTINUOUS
10
133.283
20
-103.722
11
133.983
21
-103.022
0
LINE
8
BLACK
6
CONTINUOUS
10
133.983
20
-103.022
11
133.283
21
-102.322
0
LINE
8
BLACK
6
CONTINUOUS
10
133.283
20
-102.322
11
132.583
21
-103.022
0
LINE
8
BLACK
6
CONTINUOUS
10
132.583
20
-103.022
11
133.283
21
-103.722
0
LINE
8
BLACK
6
CONTINUOUS
10
133.283
20
-109.222
11
133.983
21
-108.522
0
LINE
8
BLACK
6
CONTINUOUS
10
133.983
20
-108.522
11
133.283
21
-107.822
0
LINE
8
BLACK
6
CONTINUOUS
10
133.283
20
-107.822
11
132.583
21
-108.522
0
LINE
8
BLACK
6
CONTINUOUS
10
132.583
20
-108.522
11
133.283
21
-109.222
0
LINE
8
BLACK
6
CONTINUOUS
10
129.083
20
-84.6216
11
129.783
21
-83.9216
0
LINE
8
BLACK
6
CONTINUOUS
10
129.783
20
-83.9216
11
129.083
21
-83.2216
0
LINE
8
BLACK
6
CONTINUOUS
10
129.083
20
-83.2216
11
128.383
21
-83.9216
0
LINE
8
BLACK
6
CONTINUOUS
10
128.383
20
-83.9216
11
129.083
21
-84.6216
0
LINE
8
BLACK
6
CONTINUOUS
10
129.083
20
-90.1216
11
129.783
21
-89.4216
0
LINE
8
BLACK
6
CONTINUOUS
10
129.783
20
-89.4216
11
129.083
21
-88.7216
0
LINE
8
BLACK
6
CONTINUOUS
10
129.083
20
-88.7216
11
128.383
21
-89.4216
0
LINE
8
BLACK
6
CONTINUOUS
10
128.383
20
-89.4216
11
129.083
21
-90.1216
0
LINE
8
BLACK
6
CONTINUOUS
10
133.283
20
-84.6216
11
133.983
21
-83.9216
0
LINE
8
BLACK
6
CONTINUOUS
10
133.983
20
-83.9216
11
133.283
21
-83.2216
0
LINE
8
BLACK
6
CONTINUOUS
10
133.283
20
-83.2216
11
132.583
21
-83.9216
0
LINE
8
BLACK
6
CONTINUOUS
10
132.583
20
-83.9216
11
133.283
21
-84.6216
0
LINE
8
BLACK
6
CONTINUOUS
10
133.283
20
-90.1216
11
133.983
21
-89.4216
0
LINE
8
BLACK
6
CONTINUOUS
10
133.983
20
-89.4216
11
133.283
21
-88.7216
0
LINE
8
BLACK
6
CONTINUOUS
10
133.283
20
-88.7216
11
132.583
21
-89.4216
0
LINE
8
BLACK
6
CONTINUOUS
10
132.583
20
-89.4216
11
133.283
21
-90.1216
0
LINE
8
BLACK
6
CONTINUOUS
10
129.083
20
-68.6704
11
129.783
21
-67.9704
0
LINE
8
BLACK
6
CONTINUOUS
10
129.783
20
-67.9704
11
129.083
21
-67.2704
0
LINE
8
BLACK
6
CONTINUOUS
10
129.083
20
-67.2704
11
128.383
21
-67.9704
0
LINE
8
BLACK
6
CONTINUOUS
10
128.383
20
-67.9704
11
129.083
21
-68.6704
0
LINE
8
BLACK
6
CONTINUOUS
10
129.083
20
-74.1704
11
129.783
21
-73.4704
0
LINE
8
BLACK
6
CONTINUOUS
10
129.783
20
-73.4704
11
129.083
21
-72.7704
0
LINE
8
BLACK
6
CONTINUOUS
10
129.083
20
-72.7704
11
128.383
21
-73.4704
0
LINE
8
BLACK
6
CONTINUOUS
10
128.383
20
-73.4704
11
129.083
21
-74.1704
0
LINE
8
BLACK
6
CONTINUOUS
10
133.283
20
-68.6704
11
133.983
21
-67.9704
0
LINE
8
BLACK
6
CONTINUOUS
10
133.983
20
-67.9704
11
133.283
21
-67.2704
0
LINE
8
BLACK
6
CONTINUOUS
10
133.283
20
-67.2704
11
132.583
21
-67.9704
0
LINE
8
BLACK
6
CONTINUOUS
10
132.583
20
-67.9704
11
133.283
21
-68.6704
0
LINE
8
BLACK
6
CONTINUOUS
10
133.283
20
-74.1704
11
133.983
21
-73.4704
0
LINE
8
BLACK
6
CONTINUOUS
10
133.983
20
-73.4704
11
133.283
21
-72.7704
0
LINE
8
BLACK
6
CONTINUOUS
10
133.283
20
-72.7704
11
132.583
21
-73.4704
0
LINE
8
BLACK
6
CONTINUOUS
10
132.583
20
-73.4704
11
133.283
21
-74.1704
0
LINE
8
BLACK
6
CONTINUOUS
10
129.083
20
-120.283
11
129.783
21
-119.583
0
LINE
8
BLACK
6
CONTINUOUS
10
129.783
20
-119.583
11
129.083
21
-118.883
0
LINE
8
BLACK
6
CONTINUOUS
10
129.083
20
-118.883
11
128.383
21
-119.583
0
LINE
8
BLACK
6
CONTINUOUS
10
128.383
20
-119.583
11
129.083
21
-120.283
0
LINE
8
BLACK
6
CONTINUOUS
10
129.083
20
-125.783
11
129.783
21
-125.083
0
LINE
8
BLACK
6
CONTINUOUS
10
129.783
20
-125.083
11
129.083
21
-124.383
0
LINE
8
BLACK
6
CONTINUOUS
10
129.083
20
-124.383
11
128.383
21
-125.083
0
LINE
8
BLACK
6
CONTINUOUS
10
128.383
20
-125.083
11
129.083
21
-125.783
0
LINE
8
BLACK
6
CONTINUOUS
10
133.283
20
-120.283
11
133.983
21
-119.583
0
LINE
8
BLACK
6
CONTINUOUS
10
133.983
20
-119.583
11
133.283
21
-118.883
0
LINE
8
BLACK
6
CONTINUOUS
10
133.283
20
-118.883
11
132.583
21
-119.583
0
LINE
8
BLACK
6
CONTINUOUS
10
132.583
20
-119.583
11
133.283
21
-120.283
0
LINE
8
BLACK
6
CONTINUOUS
10
133.283
20
-125.783
11
133.983
21
-125.083
0
LINE
8
BLACK
6
CONTINUOUS
10
133.983
20
-125.083
11
133.283
21
-124.383
0
LINE
8
BLACK
6
CONTINUOUS
10
133.283
20
-124.383
11
132.583
21
-125.083
0
LINE
8
BLACK
6
CONTINUOUS
10
132.583
20
-125.083
11
133.283
21
-125.783
0
LINE
8
BLACK
6
CONTINUOUS
10
41.3107
20
-141.928
11
41.3107
21
-138.928
0
LINE
8
BLACK
6
CONTINUOUS
10
41.3107
20
-138.928
11
42.025
21
-138.928
0
LINE
8
BLACK
6
CONTINUOUS
10
42.025
20
-138.928
11
42.4535
21
-139.071
0
LINE
8
BLACK
6
CONTINUOUS
10
42.4535
20
-139.071
11
42.7393
21
-139.357
0
LINE
8
BLACK
6
CONTINUOUS
10
42.7393
20
-139.357
11
42.8821
21
-139.642
0
LINE
8
BLACK
6
CONTINUOUS
10
42.8821
20
-139.642
11
43.025
21
-140.214
0
LINE
8
BLACK
6
CONTINUOUS
10
43.025
20
-140.214
11
43.025
21
-140.642
0
LINE
8
BLACK
6
CONTINUOUS
10
43.025
20
-140.642
11
42.8821
21
-141.214
0
LINE
8
BLACK
6
CONTINUOUS
10
42.8821
20
-141.214
11
42.7393
21
-141.499
0
LINE
8
BLACK
6
CONTINUOUS
10
42.7393
20
-141.499
11
42.4535
21
-141.785
0
LINE
8
BLACK
6
CONTINUOUS
10
42.4535
20
-141.785
11
42.025
21
-141.928
0
LINE
8
BLACK
6
CONTINUOUS
10
42.025
20
-141.928
11
41.3107
21
-141.928
0
LINE
8
BLACK
6
CONTINUOUS
10
44.3107
20
-141.928
11
44.3107
21
-139.928
0
LINE
8
BLACK
6
CONTINUOUS
10
44.3107
20
-140.499
11
44.4535
21
-140.214
0
LINE
8
BLACK
6
CONTINUOUS
10
44.4535
20
-140.214
11
44.5964
21
-140.071
0
LINE
8
BLACK
6
CONTINUOUS
10
44.5964
20
-140.071
11
44.8821
21
-139.928
0
LINE
8
BLACK
6
CONTINUOUS
10
44.8821
20
-139.928
11
45.1678
21
-139.928
0
LINE
8
BLACK
6
CONTINUOUS
10
46.1678
20
-141.928
11
46.1678
21
-139.928
0
LINE
8
BLACK
6
CONTINUOUS
10
46.1678
20
-138.928
11
46.025
21
-139.071
0
LINE
8
BLACK
6
CONTINUOUS
10
46.025
20
-139.071
11
46.1678
21
-139.214
0
LINE
8
BLACK
6
CONTINUOUS
10
46.1678
20
-139.214
11
46.3107
21
-139.071
0
LINE
8
BLACK
6
CONTINUOUS
10
46.3107
20
-139.071
11
46.1678
21
-138.928
0
LINE
8
BLACK
6
CONTINUOUS
10
46.1678
20
-138.928
11
46.1678
21
-139.214
0
LINE
8
BLACK
6
CONTINUOUS
10
48.025
20
-141.928
11
47.7393
21
-141.785
0
LINE
8
BLACK
6
CONTINUOUS
10
47.7393
20
-141.785
11
47.5964
21
-141.499
0
LINE
8
BLACK
6
CONTINUOUS
10
47.5964
20
-141.499
11
47.5964
21
-138.928
0
LINE
8
BLACK
6
CONTINUOUS
10
49.5964
20
-141.928
11
49.3107
21
-141.785
0
LINE
8
BLACK
6
CONTINUOUS
10
49.3107
20
-141.785
11
49.1678
21
-141.499
0
LINE
8
BLACK
6
CONTINUOUS
10
49.1678
20
-141.499
11
49.1678
21
-138.928
0
LINE
8
BLACK
6
CONTINUOUS
10
53.025
20
-141.928
11
53.025
21
-138.928
0
LINE
8
BLACK
6
CONTINUOUS
10
53.025
20
-138.928
11
54.025
21
-141.071
0
LINE
8
BLACK
6
CONTINUOUS
10
54.025
20
-141.071
11
55.025
21
-138.928
0
LINE
8
BLACK
6
CONTINUOUS
10
55.025
20
-138.928
11
55.025
21
-141.928
0
LINE
8
BLACK
6
CONTINUOUS
10
57.7393
20
-141.928
11
57.7393
21
-140.357
0
LINE
8
BLACK
6
CONTINUOUS
10
57.7393
20
-140.357
11
57.5964
21
-140.071
0
LINE
8
BLACK
6
CONTINUOUS
10
57.5964
20
-140.071
11
57.3107
21
-139.928
0
LINE
8
BLACK
6
CONTINUOUS
10
57.3107
20
-139.928
11
56.7393
21
-139.928
0
LINE
8
BLACK
6
CONTINUOUS
10
56.7393
20
-139.928
11
56.4535
21
-140.071
0
LINE
8
BLACK
6
CONTINUOUS
10
57.7393
20
-141.785
11
57.4535
21
-141.928
0
LINE
8
BLACK
6
CONTINUOUS
10
57.4535
20
-141.928
11
56.7393
21
-141.928
0
LINE
8
BLACK
6
CONTINUOUS
10
56.7393
20
-141.928
11
56.4535
21
-141.785
0
LINE
8
BLACK
6
CONTINUOUS
10
56.4535
20
-141.785
11
56.3107
21
-141.499
0
LINE
8
BLACK
6
CONTINUOUS
10
56.3107
20
-141.499
11
56.3107
21
-141.214
0
LINE
8
BLACK
6
CONTINUOUS
10
56.3107
20
-141.214
11
56.4535
21
-140.928
0
LINE
8
BLACK
6
CONTINUOUS
10
56.4535
20
-140.928
11
56.7393
21
-140.785
0
LINE
8
BLACK
6
CONTINUOUS
10
56.7393
20
-140.785
11
57.4535
21
-140.785
0
LINE
8
BLACK
6
CONTINUOUS
10
57.4535
20
-140.785
11
57.7393
21
-140.642
0
LINE
8
BLACK
6
CONTINUOUS
10
59.1678
20
-139.928
11
59.1678
21
-142.928
0
LINE
8
BLACK
6
CONTINUOUS
10
59.1678
20
-140.071
11
59.4535
21
-139.928
0
LINE
8
BLACK
6
CONTINUOUS
10
59.4535
20
-139.928
11
60.025
21
-139.928
0
LINE
8
BLACK
6
CONTINUOUS
10
60.025
20
-139.928
11
60.3107
21
-140.071
0
LINE
8
BLACK
6
CONTINUOUS
10
60.3107
20
-140.071
11
60.4535
21
-140.214
0
LINE
8
BLACK
6
CONTINUOUS
10
60.4535
20
-140.214
11
60.5964
21
-140.499
0
LINE
8
BLACK
6
CONTINUOUS
10
60.5964
20
-140.499
11
60.5964
21
-141.357
0
LINE
8
BLACK
6
CONTINUOUS
10
60.5964
20
-141.357
11
60.4535
21
-141.642
0
LINE
8
BLACK
6
CONTINUOUS
10
60.4535
20
-141.642
11
60.3107
21
-141.785
0
LINE
8
BLACK
6
CONTINUOUS
10
60.3107
20
-141.785
11
60.025
21
-141.928
0
LINE
8
BLACK
6
CONTINUOUS
10
60.025
20
-141.928
11
59.4535
21
-141.928
0
LINE
8
BLACK
6
CONTINUOUS
10
59.4535
20
-141.928
11
59.1678
21
-141.785
0
LINE
8
BLACK
6
CONTINUOUS
10
61.8821
20
-141.642
11
62.025
21
-141.785
0
LINE
8
BLACK
6
CONTINUOUS
10
62.025
20
-141.785
11
61.8821
21
-141.928
0
LINE
8
BLACK
6
CONTINUOUS
10
61.8821
20
-141.928
11
61.7393
21
-141.785
0
LINE
8
BLACK
6
CONTINUOUS
10
61.7393
20
-141.785
11
61.8821
21
-141.642
0
LINE
8
BLACK
6
CONTINUOUS
10
61.8821
20
-141.642
11
61.8821
21
-141.928
0
LINE
8
BLACK
6
CONTINUOUS
10
61.8821
20
-140.071
11
62.025
21
-140.214
0
LINE
8
BLACK
6
CONTINUOUS
10
62.025
20
-140.214
11
61.8821
21
-140.357
0
LINE
8
BLACK
6
CONTINUOUS
10
61.8821
20
-140.357
11
61.7393
21
-140.214
0
LINE
8
BLACK
6
CONTINUOUS
10
61.7393
20
-140.214
11
61.8821
21
-140.071
0
LINE
8
BLACK
6
CONTINUOUS
10
61.8821
20
-140.071
11
61.8821
21
-140.357
0
LINE
8
BLACK
6
CONTINUOUS
10
37.6464
20
-146.471
11
38.4464
21
-147.271
0
LINE
8
BLACK
6
CONTINUOUS
10
38.4464
20
-146.471
11
37.6464
21
-147.271
0
LINE
8
BLACK
6
CONTINUOUS
10
41.8821
20
-145.228
11
42.1678
21
-145.228
0
LINE
8
BLACK
6
CONTINUOUS
10
42.1678
20
-145.228
11
42.4535
21
-145.371
0
LINE
8
BLACK
6
CONTINUOUS
10
42.4535
20
-145.371
11
42.5964
21
-145.514
0
LINE
8
BLACK
6
CONTINUOUS
10
42.5964
20
-145.514
11
42.7393
21
-145.799
0
LINE
8
BLACK
6
CONTINUOUS
10
42.7393
20
-145.799
11
42.8821
21
-146.371
0
LINE
8
BLACK
6
CONTINUOUS
10
42.8821
20
-146.371
11
42.8821
21
-147.085
0
LINE
8
BLACK
6
CONTINUOUS
10
42.8821
20
-147.085
11
42.7393
21
-147.657
0
LINE
8
BLACK
6
CONTINUOUS
10
42.7393
20
-147.657
11
42.5964
21
-147.942
0
LINE
8
BLACK
6
CONTINUOUS
10
42.5964
20
-147.942
11
42.4535
21
-148.085
0
LINE
8
BLACK
6
CONTINUOUS
10
42.4535
20
-148.085
11
42.1678
21
-148.228
0
LINE
8
BLACK
6
CONTINUOUS
10
42.1678
20
-148.228
11
41.8821
21
-148.228
0
LINE
8
BLACK
6
CONTINUOUS
10
41.8821
20
-148.228
11
41.5964
21
-148.085
0
LINE
8
BLACK
6
CONTINUOUS
10
41.5964
20
-148.085
11
41.4535
21
-147.942
0
LINE
8
BLACK
6
CONTINUOUS
10
41.4535
20
-147.942
11
41.3107
21
-147.657
0
LINE
8
BLACK
6
CONTINUOUS
10
41.3107
20
-147.657
11
41.1678
21
-147.085
0
LINE
8
BLACK
6
CONTINUOUS
10
41.1678
20
-147.085
11
41.1678
21
-146.371
0
LINE
8
BLACK
6
CONTINUOUS
10
41.1678
20
-146.371
11
41.3107
21
-145.799
0
LINE
8
BLACK
6
CONTINUOUS
10
41.3107
20
-145.799
11
41.4535
21
-145.514
0
LINE
8
BLACK
6
CONTINUOUS
10
41.4535
20
-145.514
11
41.5964
21
-145.371
0
LINE
8
BLACK
6
CONTINUOUS
10
41.5964
20
-145.371
11
41.8821
21
-145.228
0
LINE
8
BLACK
6
CONTINUOUS
10
44.1678
20
-147.942
11
44.3107
21
-148.085
0
LINE
8
BLACK
6
CONTINUOUS
10
44.3107
20
-148.085
11
44.1678
21
-148.228
0
LINE
8
BLACK
6
CONTINUOUS
10
44.1678
20
-148.228
11
44.025
21
-148.085
0
LINE
8
BLACK
6
CONTINUOUS
10
44.025
20
-148.085
11
44.1678
21
-147.942
0
LINE
8
BLACK
6
CONTINUOUS
10
44.1678
20
-147.942
11
44.1678
21
-148.228
0
LINE
8
BLACK
6
CONTINUOUS
10
46.025
20
-146.514
11
45.7393
21
-146.371
0
LINE
8
BLACK
6
CONTINUOUS
10
45.7393
20
-146.371
11
45.5964
21
-146.228
0
LINE
8
BLACK
6
CONTINUOUS
10
45.5964
20
-146.228
11
45.4535
21
-145.942
0
LINE
8
BLACK
6
CONTINUOUS
10
45.4535
20
-145.942
11
45.4535
21
-145.799
0
LINE
8
BLACK
6
CONTINUOUS
10
45.4535
20
-145.799
11
45.5964
21
-145.514
0
LINE
8
BLACK
6
CONTINUOUS
10
45.5964
20
-145.514
11
45.7393
21
-145.371
0
LINE
8
BLACK
6
CONTINUOUS
10
45.7393
20
-145.371
11
46.025
21
-145.228
0
LINE
8
BLACK
6
CONTINUOUS
10
46.025
20
-145.228
11
46.5964
21
-145.228
0
LINE
8
BLACK
6
CONTINUOUS
10
46.5964
20
-145.228
11
46.8821
21
-145.371
0
LINE
8
BLACK
6
CONTINUOUS
10
46.8821
20
-145.371
11
47.025
21
-145.514
0
LINE
8
BLACK
6
CONTINUOUS
10
47.025
20
-145.514
11
47.1678
21
-145.799
0
LINE
8
BLACK
6
CONTINUOUS
10
47.1678
20
-145.799
11
47.1678
21
-145.942
0
LINE
8
BLACK
6
CONTINUOUS
10
47.1678
20
-145.942
11
47.025
21
-146.228
0
LINE
8
BLACK
6
CONTINUOUS
10
47.025
20
-146.228
11
46.8821
21
-146.371
0
LINE
8
BLACK
6
CONTINUOUS
10
46.8821
20
-146.371
11
46.5964
21
-146.514
0
LINE
8
BLACK
6
CONTINUOUS
10
46.5964
20
-146.514
11
46.025
21
-146.514
0
LINE
8
BLACK
6
CONTINUOUS
10
46.025
20
-146.514
11
45.7393
21
-146.657
0
LINE
8
BLACK
6
CONTINUOUS
10
45.7393
20
-146.657
11
45.5964
21
-146.799
0
LINE
8
BLACK
6
CONTINUOUS
10
45.5964
20
-146.799
11
45.4535
21
-147.085
0
LINE
8
BLACK
6
CONTINUOUS
10
45.4535
20
-147.085
11
45.4535
21
-147.657
0
LINE
8
BLACK
6
CONTINUOUS
10
45.4535
20
-147.657
11
45.5964
21
-147.942
0
LINE
8
BLACK
6
CONTINUOUS
10
45.5964
20
-147.942
11
45.7393
21
-148.085
0
LINE
8
BLACK
6
CONTINUOUS
10
45.7393
20
-148.085
11
46.025
21
-148.228
0
LINE
8
BLACK
6
CONTINUOUS
10
46.025
20
-148.228
11
46.5964
21
-148.228
0
LINE
8
BLACK
6
CONTINUOUS
10
46.5964
20
-148.228
11
46.8821
21
-148.085
0
LINE
8
BLACK
6
CONTINUOUS
10
46.8821
20
-148.085
11
47.025
21
-147.942
0
LINE
8
BLACK
6
CONTINUOUS
10
47.025
20
-147.942
11
47.1678
21
-147.657
0
LINE
8
BLACK
6
CONTINUOUS
10
47.1678
20
-147.657
11
47.1678
21
-147.085
0
LINE
8
BLACK
6
CONTINUOUS
10
47.1678
20
-147.085
11
47.025
21
-146.799
0
LINE
8
BLACK
6
CONTINUOUS
10
47.025
20
-146.799
11
46.8821
21
-146.657
0
LINE
8
BLACK
6
CONTINUOUS
10
46.8821
20
-146.657
11
46.5964
21
-146.514
0
LINE
8
BLACK
6
CONTINUOUS
10
49.025
20
-145.228
11
49.3107
21
-145.228
0
LINE
8
BLACK
6
CONTINUOUS
10
49.3107
20
-145.228
11
49.5964
21
-145.371
0
LINE
8
BLACK
6
CONTINUOUS
10
49.5964
20
-145.371
11
49.7393
21
-145.514
0
LINE
8
BLACK
6
CONTINUOUS
10
49.7393
20
-145.514
11
49.8821
21
-145.799
0
LINE
8
BLACK
6
CONTINUOUS
10
49.8821
20
-145.799
11
50.025
21
-146.371
0
LINE
8
BLACK
6
CONTINUOUS
10
50.025
20
-146.371
11
50.025
21
-147.085
0
LINE
8
BLACK
6
CONTINUOUS
10
50.025
20
-147.085
11
49.8821
21
-147.657
0
LINE
8
BLACK
6
CONTINUOUS
10
49.8821
20
-147.657
11
49.7393
21
-147.942
0
LINE
8
BLACK
6
CONTINUOUS
10
49.7393
20
-147.942
11
49.5964
21
-148.085
0
LINE
8
BLACK
6
CONTINUOUS
10
49.5964
20
-148.085
11
49.3107
21
-148.228
0
LINE
8
BLACK
6
CONTINUOUS
10
49.3107
20
-148.228
11
49.025
21
-148.228
0
LINE
8
BLACK
6
CONTINUOUS
10
49.025
20
-148.228
11
48.7393
21
-148.085
0
LINE
8
BLACK
6
CONTINUOUS
10
48.7393
20
-148.085
11
48.5964
21
-147.942
0
LINE
8
BLACK
6
CONTINUOUS
10
48.5964
20
-147.942
11
48.4535
21
-147.657
0
LINE
8
BLACK
6
CONTINUOUS
10
48.4535
20
-147.657
11
48.3107
21
-147.085
0
LINE
8
BLACK
6
CONTINUOUS
10
48.3107
20
-147.085
11
48.3107
21
-146.371
0
LINE
8
BLACK
6
CONTINUOUS
10
48.3107
20
-146.371
11
48.4535
21
-145.799
0
LINE
8
BLACK
6
CONTINUOUS
10
48.4535
20
-145.799
11
48.5964
21
-145.514
0
LINE
8
BLACK
6
CONTINUOUS
10
48.5964
20
-145.514
11
48.7393
21
-145.371
0
LINE
8
BLACK
6
CONTINUOUS
10
48.7393
20
-145.371
11
49.025
21
-145.228
0
LINE
8
BLACK
6
CONTINUOUS
10
51.3107
20
-148.228
11
51.3107
21
-146.228
0
LINE
8
BLACK
6
CONTINUOUS
10
51.3107
20
-146.514
11
51.4535
21
-146.371
0
LINE
8
BLACK
6
CONTINUOUS
10
51.4535
20
-146.371
11
51.7393
21
-146.228
0
LINE
8
BLACK
6
CONTINUOUS
10
51.7393
20
-146.228
11
52.1678
21
-146.228
0
LINE
8
BLACK
6
CONTINUOUS
10
52.1678
20
-146.228
11
52.4535
21
-146.371
0
LINE
8
BLACK
6
CONTINUOUS
10
52.4535
20
-146.371
11
52.5964
21
-146.657
0
LINE
8
BLACK
6
CONTINUOUS
10
52.5964
20
-146.657
11
52.5964
21
-148.228
0
LINE
8
BLACK
6
CONTINUOUS
10
52.5964
20
-146.657
11
52.7393
21
-146.371
0
LINE
8
BLACK
6
CONTINUOUS
10
52.7393
20
-146.371
11
53.025
21
-146.228
0
LINE
8
BLACK
6
CONTINUOUS
10
53.025
20
-146.228
11
53.4535
21
-146.228
0
LINE
8
BLACK
6
CONTINUOUS
10
53.4535
20
-146.228
11
53.7393
21
-146.371
0
LINE
8
BLACK
6
CONTINUOUS
10
53.7393
20
-146.371
11
53.8821
21
-146.657
0
LINE
8
BLACK
6
CONTINUOUS
10
53.8821
20
-146.657
11
53.8821
21
-148.228
0
LINE
8
BLACK
6
CONTINUOUS
10
55.3107
20
-148.228
11
55.3107
21
-146.228
0
LINE
8
BLACK
6
CONTINUOUS
10
55.3107
20
-146.514
11
55.4535
21
-146.371
0
LINE
8
BLACK
6
CONTINUOUS
10
55.4535
20
-146.371
11
55.7393
21
-146.228
0
LINE
8
BLACK
6
CONTINUOUS
10
55.7393
20
-146.228
11
56.1678
21
-146.228
0
LINE
8
BLACK
6
CONTINUOUS
10
56.1678
20
-146.228
11
56.4535
21
-146.371
0
LINE
8
BLACK
6
CONTINUOUS
10
56.4535
20
-146.371
11
56.5964
21
-146.657
0
LINE
8
BLACK
6
CONTINUOUS
10
56.5964
20
-146.657
11
56.5964
21
-148.228
0
LINE
8
BLACK
6
CONTINUOUS
10
56.5964
20
-146.657
11
56.7393
21
-146.371
0
LINE
8
BLACK
6
CONTINUOUS
10
56.7393
20
-146.371
11
57.025
21
-146.228
0
LINE
8
BLACK
6
CONTINUOUS
10
57.025
20
-146.228
11
57.4535
21
-146.228
0
LINE
8
BLACK
6
CONTINUOUS
10
57.4535
20
-146.228
11
57.7393
21
-146.371
0
LINE
8
BLACK
6
CONTINUOUS
10
57.7393
20
-146.371
11
57.8821
21
-146.657
0
LINE
8
BLACK
6
CONTINUOUS
10
57.8821
20
-146.657
11
57.8821
21
-148.228
0
LINE
8
BLACK
6
CONTINUOUS
10
63.7393
20
-145.085
11
61.1678
21
-148.942
0
LINE
8
BLACK
6
CONTINUOUS
10
67.5964
20
-145.228
11
67.8821
21
-145.228
0
LINE
8
BLACK
6
CONTINUOUS
10
67.8821
20
-145.228
11
68.1678
21
-145.371
0
LINE
8
BLACK
6
CONTINUOUS
10
68.1678
20
-145.371
11
68.3107
21
-145.514
0
LINE
8
BLACK
6
CONTINUOUS
10
68.3107
20
-145.514
11
68.4535
21
-145.799
0
LINE
8
BLACK
6
CONTINUOUS
10
68.4535
20
-145.799
11
68.5964
21
-146.371
0
LINE
8
BLACK
6
CONTINUOUS
10
68.5964
20
-146.371
11
68.5964
21
-147.085
0
LINE
8
BLACK
6
CONTINUOUS
10
68.5964
20
-147.085
11
68.4535
21
-147.657
0
LINE
8
BLACK
6
CONTINUOUS
10
68.4535
20
-147.657
11
68.3107
21
-147.942
0
LINE
8
BLACK
6
CONTINUOUS
10
68.3107
20
-147.942
11
68.1678
21
-148.085
0
LINE
8
BLACK
6
CONTINUOUS
10
68.1678
20
-148.085
11
67.8821
21
-148.228
0
LINE
8
BLACK
6
CONTINUOUS
10
67.8821
20
-148.228
11
67.5964
21
-148.228
0
LINE
8
BLACK
6
CONTINUOUS
10
67.5964
20
-148.228
11
67.3107
21
-148.085
0
LINE
8
BLACK
6
CONTINUOUS
10
67.3107
20
-148.085
11
67.1678
21
-147.942
0
LINE
8
BLACK
6
CONTINUOUS
10
67.1678
20
-147.942
11
67.025
21
-147.657
0
LINE
8
BLACK
6
CONTINUOUS
10
67.025
20
-147.657
11
66.8821
21
-147.085
0
LINE
8
BLACK
6
CONTINUOUS
10
66.8821
20
-147.085
11
66.8821
21
-146.371
0
LINE
8
BLACK
6
CONTINUOUS
10
66.8821
20
-146.371
11
67.025
21
-145.799
0
LINE
8
BLACK
6
CONTINUOUS
10
67.025
20
-145.799
11
67.1678
21
-145.514
0
LINE
8
BLACK
6
CONTINUOUS
10
67.1678
20
-145.514
11
67.3107
21
-145.371
0
LINE
8
BLACK
6
CONTINUOUS
10
67.3107
20
-145.371
11
67.5964
21
-145.228
0
LINE
8
BLACK
6
CONTINUOUS
10
69.8821
20
-147.942
11
70.025
21
-148.085
0
LINE
8
BLACK
6
CONTINUOUS
10
70.025
20
-148.085
11
69.8821
21
-148.228
0
LINE
8
BLACK
6
CONTINUOUS
10
69.8821
20
-148.228
11
69.7393
21
-148.085
0
LINE
8
BLACK
6
CONTINUOUS
10
69.7393
20
-148.085
11
69.8821
21
-147.942
0
LINE
8
BLACK
6
CONTINUOUS
10
69.8821
20
-147.942
11
69.8821
21
-148.228
0
LINE
8
BLACK
6
CONTINUOUS
10
71.8821
20
-145.228
11
72.1678
21
-145.228
0
LINE
8
BLACK
6
CONTINUOUS
10
72.1678
20
-145.228
11
72.4535
21
-145.371
0
LINE
8
BLACK
6
CONTINUOUS
10
72.4535
20
-145.371
11
72.5964
21
-145.514
0
LINE
8
BLACK
6
CONTINUOUS
10
72.5964
20
-145.514
11
72.7393
21
-145.799
0
LINE
8
BLACK
6
CONTINUOUS
10
72.7393
20
-145.799
11
72.8821
21
-146.371
0
LINE
8
BLACK
6
CONTINUOUS
10
72.8821
20
-146.371
11
72.8821
21
-147.085
0
LINE
8
BLACK
6
CONTINUOUS
10
72.8821
20
-147.085
11
72.7393
21
-147.657
0
LINE
8
BLACK
6
CONTINUOUS
10
72.7393
20
-147.657
11
72.5964
21
-147.942
0
LINE
8
BLACK
6
CONTINUOUS
10
72.5964
20
-147.942
11
72.4535
21
-148.085
0
LINE
8
BLACK
6
CONTINUOUS
10
72.4535
20
-148.085
11
72.1678
21
-148.228
0
LINE
8
BLACK
6
CONTINUOUS
10
72.1678
20
-148.228
11
71.8821
21
-148.228
0
LINE
8
BLACK
6
CONTINUOUS
10
71.8821
20
-148.228
11
71.5964
21
-148.085
0
LINE
8
BLACK
6
CONTINUOUS
10
71.5964
20
-148.085
11
71.4535
21
-147.942
0
LINE
8
BLACK
6
CONTINUOUS
10
71.4535
20
-147.942
11
71.3107
21
-147.657
0
LINE
8
BLACK
6
CONTINUOUS
10
71.3107
20
-147.657
11
71.1678
21
-147.085
0
LINE
8
BLACK
6
CONTINUOUS
10
71.1678
20
-147.085
11
71.1678
21
-146.371
0
LINE
8
BLACK
6
CONTINUOUS
10
71.1678
20
-146.371
11
71.3107
21
-145.799
0
LINE
8
BLACK
6
CONTINUOUS
10
71.3107
20
-145.799
11
71.4535
21
-145.514
0
LINE
8
BLACK
6
CONTINUOUS
10
71.4535
20
-145.514
11
71.5964
21
-145.371
0
LINE
8
BLACK
6
CONTINUOUS
10
71.5964
20
-145.371
11
71.8821
21
-145.228
0
LINE
8
BLACK
6
CONTINUOUS
10
73.8821
20
-145.228
11
75.7393
21
-145.228
0
LINE
8
BLACK
6
CONTINUOUS
10
75.7393
20
-145.228
11
74.7393
21
-146.371
0
LINE
8
BLACK
6
CONTINUOUS
10
74.7393
20
-146.371
11
75.1678
21
-146.371
0
LINE
8
BLACK
6
CONTINUOUS
10
75.1678
20
-146.371
11
75.4535
21
-146.514
0
LINE
8
BLACK
6
CONTINUOUS
10
75.4535
20
-146.514
11
75.5964
21
-146.657
0
LINE
8
BLACK
6
CONTINUOUS
10
75.5964
20
-146.657
11
75.7393
21
-146.942
0
LINE
8
BLACK
6
CONTINUOUS
10
75.7393
20
-146.942
11
75.7393
21
-147.657
0
LINE
8
BLACK
6
CONTINUOUS
10
75.7393
20
-147.657
11
75.5964
21
-147.942
0
LINE
8
BLACK
6
CONTINUOUS
10
75.5964
20
-147.942
11
75.4535
21
-148.085
0
LINE
8
BLACK
6
CONTINUOUS
10
75.4535
20
-148.085
11
75.1678
21
-148.228
0
LINE
8
BLACK
6
CONTINUOUS
10
75.1678
20
-148.228
11
74.3107
21
-148.228
0
LINE
8
BLACK
6
CONTINUOUS
10
74.3107
20
-148.228
11
74.025
21
-148.085
0
LINE
8
BLACK
6
CONTINUOUS
10
74.025
20
-148.085
11
73.8821
21
-147.942
0
LINE
8
BLACK
6
CONTINUOUS
10
78.5964
20
-148.228
11
76.8821
21
-148.228
0
LINE
8
BLACK
6
CONTINUOUS
10
77.7393
20
-148.228
11
77.7393
21
-145.228
0
LINE
8
BLACK
6
CONTINUOUS
10
77.7393
20
-145.228
11
77.4535
21
-145.657
0
LINE
8
BLACK
6
CONTINUOUS
10
77.4535
20
-145.657
11
77.1678
21
-145.942
0
LINE
8
BLACK
6
CONTINUOUS
10
77.1678
20
-145.942
11
76.8821
21
-146.085
0
LINE
8
BLACK
6
CONTINUOUS
10
79.7393
20
-145.228
11
79.7393
21
-145.799
0
LINE
8
BLACK
6
CONTINUOUS
10
80.8821
20
-145.228
11
80.8821
21
-145.799
0
LINE
8
BLACK
6
CONTINUOUS
10
85.3107
20
-149.371
11
85.1678
21
-149.228
0
LINE
8
BLACK
6
CONTINUOUS
10
85.1678
20
-149.228
11
84.8821
21
-148.799
0
LINE
8
BLACK
6
CONTINUOUS
10
84.8821
20
-148.799
11
84.7393
21
-148.514
0
LINE
8
BLACK
6
CONTINUOUS
10
84.7393
20
-148.514
11
84.5964
21
-148.085
0
LINE
8
BLACK
6
CONTINUOUS
10
84.5964
20
-148.085
11
84.4535
21
-147.371
0
LINE
8
BLACK
6
CONTINUOUS
10
84.4535
20
-147.371
11
84.4535
21
-146.799
0
LINE
8
BLACK
6
CONTINUOUS
10
84.4535
20
-146.799
11
84.5964
21
-146.085
0
LINE
8
BLACK
6
CONTINUOUS
10
84.5964
20
-146.085
11
84.7393
21
-145.657
0
LINE
8
BLACK
6
CONTINUOUS
10
84.7393
20
-145.657
11
84.8821
21
-145.371
0
LINE
8
BLACK
6
CONTINUOUS
10
84.8821
20
-145.371
11
85.1678
21
-144.942
0
LINE
8
BLACK
6
CONTINUOUS
10
85.1678
20
-144.942
11
85.3107
21
-144.799
0
LINE
8
BLACK
6
CONTINUOUS
10
86.3107
20
-145.514
11
86.4535
21
-145.371
0
LINE
8
BLACK
6
CONTINUOUS
10
86.4535
20
-145.371
11
86.7393
21
-145.228
0
LINE
8
BLACK
6
CONTINUOUS
10
86.7393
20
-145.228
11
87.4535
21
-145.228
0
LINE
8
BLACK
6
CONTINUOUS
10
87.4535
20
-145.228
11
87.7393
21
-145.371
0
LINE
8
BLACK
6
CONTINUOUS
10
87.7393
20
-145.371
11
87.8821
21
-145.514
0
LINE
8
BLACK
6
CONTINUOUS
10
87.8821
20
-145.514
11
88.025
21
-145.799
0
LINE
8
BLACK
6
CONTINUOUS
10
88.025
20
-145.799
11
88.025
21
-146.085
0
LINE
8
BLACK
6
CONTINUOUS
10
88.025
20
-146.085
11
87.8821
21
-146.514
0
LINE
8
BLACK
6
CONTINUOUS
10
87.8821
20
-146.514
11
86.1678
21
-148.228
0
LINE
8
BLACK
6
CONTINUOUS
10
86.1678
20
-148.228
11
88.025
21
-148.228
0
LINE
8
BLACK
6
CONTINUOUS
10
91.5964
20
-148.228
11
91.5964
21
-145.228
0
LINE
8
BLACK
6
CONTINUOUS
10
92.8821
20
-148.228
11
92.8821
21
-146.657
0
LINE
8
BLACK
6
CONTINUOUS
10
92.8821
20
-146.657
11
92.7393
21
-146.371
0
LINE
8
BLACK
6
CONTINUOUS
10
92.7393
20
-146.371
11
92.4535
21
-146.228
0
LINE
8
BLACK
6
CONTINUOUS
10
92.4535
20
-146.228
11
92.025
21
-146.228
0
LINE
8
BLACK
6
CONTINUOUS
10
92.025
20
-146.228
11
91.7393
21
-146.371
0
LINE
8
BLACK
6
CONTINUOUS
10
91.7393
20
-146.371
11
91.5964
21
-146.514
0
LINE
8
BLACK
6
CONTINUOUS
10
94.7393
20
-148.228
11
94.4535
21
-148.085
0
LINE
8
BLACK
6
CONTINUOUS
10
94.4535
20
-148.085
11
94.3107
21
-147.942
0
LINE
8
BLACK
6
CONTINUOUS
10
94.3107
20
-147.942
11
94.1678
21
-147.657
0
LINE
8
BLACK
6
CONTINUOUS
10
94.1678
20
-147.657
11
94.1678
21
-146.799
0
LINE
8
BLACK
6
CONTINUOUS
10
94.1678
20
-146.799
11
94.3107
21
-146.514
0
LINE
8
BLACK
6
CONTINUOUS
10
94.3107
20
-146.514
11
94.4535
21
-146.371
0
LINE
8
BLACK
6
CONTINUOUS
10
94.4535
20
-146.371
11
94.7393
21
-146.228
0
LINE
8
BLACK
6
CONTINUOUS
10
94.7393
20
-146.228
11
95.1678
21
-146.228
0
LINE
8
BLACK
6
CONTINUOUS
10
95.1678
20
-146.228
11
95.4535
21
-146.371
0
LINE
8
BLACK
6
CONTINUOUS
10
95.4535
20
-146.371
11
95.5964
21
-146.514
0
LINE
8
BLACK
6
CONTINUOUS
10
95.5964
20
-146.514
11
95.7393
21
-146.799
0
LINE
8
BLACK
6
CONTINUOUS
10
95.7393
20
-146.799
11
95.7393
21
-147.657
0
LINE
8
BLACK
6
CONTINUOUS
10
95.7393
20
-147.657
11
95.5964
21
-147.942
0
LINE
8
BLACK
6
CONTINUOUS
10
95.5964
20
-147.942
11
95.4535
21
-148.085
0
LINE
8
BLACK
6
CONTINUOUS
10
95.4535
20
-148.085
11
95.1678
21
-148.228
0
LINE
8
BLACK
6
CONTINUOUS
10
95.1678
20
-148.228
11
94.7393
21
-148.228
0
LINE
8
BLACK
6
CONTINUOUS
10
97.4535
20
-148.228
11
97.1678
21
-148.085
0
LINE
8
BLACK
6
CONTINUOUS
10
97.1678
20
-148.085
11
97.025
21
-147.799
0
LINE
8
BLACK
6
CONTINUOUS
10
97.025
20
-147.799
11
97.025
21
-145.228
0
LINE
8
BLACK
6
CONTINUOUS
10
99.7393
20
-148.085
11
99.4535
21
-148.228
0
LINE
8
BLACK
6
CONTINUOUS
10
99.4535
20
-148.228
11
98.8821
21
-148.228
0
LINE
8
BLACK
6
CONTINUOUS
10
98.8821
20
-148.228
11
98.5964
21
-148.085
0
LINE
8
BLACK
6
CONTINUOUS
10
98.5964
20
-148.085
11
98.4535
21
-147.799
0
LINE
8
BLACK
6
CONTINUOUS
10
98.4535
20
-147.799
11
98.4535
21
-146.657
0
LINE
8
BLACK
6
CONTINUOUS
10
98.4535
20
-146.657
11
98.5964
21
-146.371
0
LINE
8
BLACK
6
CONTINUOUS
10
98.5964
20
-146.371
11
98.8821
21
-146.228
0
LINE
8
BLACK
6
CONTINUOUS
10
98.8821
20
-146.228
11
99.4535
21
-146.228
0
LINE
8
BLACK
6
CONTINUOUS
10
99.4535
20
-146.228
11
99.7393
21
-146.371
0
LINE
8
BLACK
6
CONTINUOUS
10
99.7393
20
-146.371
11
99.8821
21
-146.657
0
LINE
8
BLACK
6
CONTINUOUS
10
99.8821
20
-146.657
11
99.8821
21
-146.942
0
LINE
8
BLACK
6
CONTINUOUS
10
99.8821
20
-146.942
11
98.4535
21
-147.228
0
LINE
8
BLACK
6
CONTINUOUS
10
101.025
20
-148.085
11
101.311
21
-148.228
0
LINE
8
BLACK
6
CONTINUOUS
10
101.311
20
-148.228
11
101.882
21
-148.228
0
LINE
8
BLACK
6
CONTINUOUS
10
101.882
20
-148.228
11
102.168
21
-148.085
0
LINE
8
BLACK
6
CONTINUOUS
10
102.168
20
-148.085
11
102.311
21
-147.799
0
LINE
8
BLACK
6
CONTINUOUS
10
102.311
20
-147.799
11
102.311
21
-147.657
0
LINE
8
BLACK
6
CONTINUOUS
10
102.311
20
-147.657
11
102.168
21
-147.371
0
LINE
8
BLACK
6
CONTINUOUS
10
102.168
20
-147.371
11
101.882
21
-147.228
0
LINE
8
BLACK
6
CONTINUOUS
10
101.882
20
-147.228
11
101.454
21
-147.228
0
LINE
8
BLACK
6
CONTINUOUS
10
101.454
20
-147.228
11
101.168
21
-147.085
0
LINE
8
BLACK
6
CONTINUOUS
10
101.168
20
-147.085
11
101.025
21
-146.799
0
LINE
8
BLACK
6
CONTINUOUS
10
101.025
20
-146.799
11
101.025
21
-146.657
0
LINE
8
BLACK
6
CONTINUOUS
10
101.025
20
-146.657
11
101.168
21
-146.371
0
LINE
8
BLACK
6
CONTINUOUS
10
101.168
20
-146.371
11
101.454
21
-146.228
0
LINE
8
BLACK
6
CONTINUOUS
10
101.454
20
-146.228
11
101.882
21
-146.228
0
LINE
8
BLACK
6
CONTINUOUS
10
101.882
20
-146.228
11
102.168
21
-146.371
0
LINE
8
BLACK
6
CONTINUOUS
10
103.311
20
-149.371
11
103.454
21
-149.228
0
LINE
8
BLACK
6
CONTINUOUS
10
103.454
20
-149.228
11
103.739
21
-148.799
0
LINE
8
BLACK
6
CONTINUOUS
10
103.739
20
-148.799
11
103.882
21
-148.514
0
LINE
8
BLACK
6
CONTINUOUS
10
103.882
20
-148.514
11
104.025
21
-148.085
0
LINE
8
BLACK
6
CONTINUOUS
10
104.025
20
-148.085
11
104.168
21
-147.371
0
LINE
8
BLACK
6
CONTINUOUS
10
104.168
20
-147.371
11
104.168
21
-146.799
0
LINE
8
BLACK
6
CONTINUOUS
10
104.168
20
-146.799
11
104.025
21
-146.085
0
LINE
8
BLACK
6
CONTINUOUS
10
104.025
20
-146.085
11
103.882
21
-145.657
0
LINE
8
BLACK
6
CONTINUOUS
10
103.882
20
-145.657
11
103.739
21
-145.371
0
LINE
8
BLACK
6
CONTINUOUS
10
103.739
20
-145.371
11
103.454
21
-144.942
0
LINE
8
BLACK
6
CONTINUOUS
10
103.454
20
-144.942
11
103.311
21
-144.799
0
CIRCLE
8
BLACK
10
37.9964
20
-150.831
40
0.45
0
LINE
8
BLACK
6
CONTINUOUS
10
41.8821
20
-149.188
11
42.1678
21
-149.188
0
LINE
8
BLACK
6
CONTINUOUS
10
42.1678
20
-149.188
11
42.4535
21
-149.331
0
LINE
8
BLACK
6
CONTINUOUS
10
42.4535
20
-149.331
11
42.5964
21
-149.474
0
LINE
8
BLACK
6
CONTINUOUS
10
42.5964
20
-149.474
11
42.7393
21
-149.759
0
LINE
8
BLACK
6
CONTINUOUS
10
42.7393
20
-149.759
11
42.8821
21
-150.331
0
LINE
8
BLACK
6
CONTINUOUS
10
42.8821
20
-150.331
11
42.8821
21
-151.045
0
LINE
8
BLACK
6
CONTINUOUS
10
42.8821
20
-151.045
11
42.7393
21
-151.617
0
LINE
8
BLACK
6
CONTINUOUS
10
42.7393
20
-151.617
11
42.5964
21
-151.902
0
LINE
8
BLACK
6
CONTINUOUS
10
42.5964
20
-151.902
11
42.4535
21
-152.045
0
LINE
8
BLACK
6
CONTINUOUS
10
42.4535
20
-152.045
11
42.1678
21
-152.188
0
LINE
8
BLACK
6
CONTINUOUS
10
42.1678
20
-152.188
11
41.8821
21
-152.188
0
LINE
8
BLACK
6
CONTINUOUS
10
41.8821
20
-152.188
11
41.5964
21
-152.045
0
LINE
8
BLACK
6
CONTINUOUS
10
41.5964
20
-152.045
11
41.4535
21
-151.902
0
LINE
8
BLACK
6
CONTINUOUS
10
41.4535
20
-151.902
11
41.3107
21
-151.617
0
LINE
8
BLACK
6
CONTINUOUS
10
41.3107
20
-151.617
11
41.1678
21
-151.045
0
LINE
8
BLACK
6
CONTINUOUS
10
41.1678
20
-151.045
11
41.1678
21
-150.331
0
LINE
8
BLACK
6
CONTINUOUS
10
41.1678
20
-150.331
11
41.3107
21
-149.759
0
LINE
8
BLACK
6
CONTINUOUS
10
41.3107
20
-149.759
11
41.4535
21
-149.474
0
LINE
8
BLACK
6
CONTINUOUS
10
41.4535
20
-149.474
11
41.5964
21
-149.331
0
LINE
8
BLACK
6
CONTINUOUS
10
41.5964
20
-149.331
11
41.8821
21
-149.188
0
LINE
8
BLACK
6
CONTINUOUS
10
44.1678
20
-151.902
11
44.3107
21
-152.045
0
LINE
8
BLACK
6
CONTINUOUS
10
44.3107
20
-152.045
11
44.1678
21
-152.188
0
LINE
8
BLACK
6
CONTINUOUS
10
44.1678
20
-152.188
11
44.025
21
-152.045
0
LINE
8
BLACK
6
CONTINUOUS
10
44.025
20
-152.045
11
44.1678
21
-151.902
0
LINE
8
BLACK
6
CONTINUOUS
10
44.1678
20
-151.902
11
44.1678
21
-152.188
0
LINE
8
BLACK
6
CONTINUOUS
10
45.7393
20
-152.188
11
46.3107
21
-152.188
0
LINE
8
BLACK
6
CONTINUOUS
10
46.3107
20
-152.188
11
46.5964
21
-152.045
0
LINE
8
BLACK
6
CONTINUOUS
10
46.5964
20
-152.045
11
46.7393
21
-151.902
0
LINE
8
BLACK
6
CONTINUOUS
10
46.7393
20
-151.902
11
47.025
21
-151.474
0
LINE
8
BLACK
6
CONTINUOUS
10
47.025
20
-151.474
11
47.1678
21
-150.902
0
LINE
8
BLACK
6
CONTINUOUS
10
47.1678
20
-150.902
11
47.1678
21
-149.759
0
LINE
8
BLACK
6
CONTINUOUS
10
47.1678
20
-149.759
11
47.025
21
-149.474
0
LINE
8
BLACK
6
CONTINUOUS
10
47.025
20
-149.474
11
46.8821
21
-149.331
0
LINE
8
BLACK
6
CONTINUOUS
10
46.8821
20
-149.331
11
46.5964
21
-149.188
0
LINE
8
BLACK
6
CONTINUOUS
10
46.5964
20
-149.188
11
46.025
21
-149.188
0
LINE
8
BLACK
6
CONTINUOUS
10
46.025
20
-149.188
11
45.7393
21
-149.331
0
LINE
8
BLACK
6
CONTINUOUS
10
45.7393
20
-149.331
11
45.5964
21
-149.474
0
LINE
8
BLACK
6
CONTINUOUS
10
45.5964
20
-149.474
11
45.4535
21
-149.759
0
LINE
8
BLACK
6
CONTINUOUS
10
45.4535
20
-149.759
11
45.4535
21
-150.474
0
LINE
8
BLACK
6
CONTINUOUS
10
45.4535
20
-150.474
11
45.5964
21
-150.759
0
LINE
8
BLACK
6
CONTINUOUS
10
45.5964
20
-150.759
11
45.7393
21
-150.902
0
LINE
8
BLACK
6
CONTINUOUS
10
45.7393
20
-150.902
11
46.025
21
-151.045
0
LINE
8
BLACK
6
CONTINUOUS
10
46.025
20
-151.045
11
46.5964
21
-151.045
0
LINE
8
BLACK
6
CONTINUOUS
10
46.5964
20
-151.045
11
46.8821
21
-150.902
0
LINE
8
BLACK
6
CONTINUOUS
10
46.8821
20
-150.902
11
47.025
21
-150.759
0
LINE
8
BLACK
6
CONTINUOUS
10
47.025
20
-150.759
11
47.1678
21
-150.474
0
LINE
8
BLACK
6
CONTINUOUS
10
49.025
20
-149.188
11
49.3107
21
-149.188
0
LINE
8
BLACK
6
CONTINUOUS
10
49.3107
20
-149.188
11
49.5964
21
-149.331
0
LINE
8
BLACK
6
CONTINUOUS
10
49.5964
20
-149.331
11
49.7393
21
-149.474
0
LINE
8
BLACK
6
CONTINUOUS
10
49.7393
20
-149.474
11
49.8821
21
-149.759
0
LINE
8
BLACK
6
CONTINUOUS
10
49.8821
20
-149.759
11
50.025
21
-150.331
0
LINE
8
BLACK
6
CONTINUOUS
10
50.025
20
-150.331
11
50.025
21
-151.045
0
LINE
8
BLACK
6
CONTINUOUS
10
50.025
20
-151.045
11
49.8821
21
-151.617
0
LINE
8
BLACK
6
CONTINUOUS
10
49.8821
20
-151.617
11
49.7393
21
-151.902
0
LINE
8
BLACK
6
CONTINUOUS
10
49.7393
20
-151.902
11
49.5964
21
-152.045
0
LINE
8
BLACK
6
CONTINUOUS
10
49.5964
20
-152.045
11
49.3107
21
-152.188
0
LINE
8
BLACK
6
CONTINUOUS
10
49.3107
20
-152.188
11
49.025
21
-152.188
0
LINE
8
BLACK
6
CONTINUOUS
10
49.025
20
-152.188
11
48.7393
21
-152.045
0
LINE
8
BLACK
6
CONTINUOUS
10
48.7393
20
-152.045
11
48.5964
21
-151.902
0
LINE
8
BLACK
6
CONTINUOUS
10
48.5964
20
-151.902
11
48.4535
21
-151.617
0
LINE
8
BLACK
6
CONTINUOUS
10
48.4535
20
-151.617
11
48.3107
21
-151.045
0
LINE
8
BLACK
6
CONTINUOUS
10
48.3107
20
-151.045
11
48.3107
21
-150.331
0
LINE
8
BLACK
6
CONTINUOUS
10
48.3107
20
-150.331
11
48.4535
21
-149.759
0
LINE
8
BLACK
6
CONTINUOUS
10
48.4535
20
-149.759
11
48.5964
21
-149.474
0
LINE
8
BLACK
6
CONTINUOUS
10
48.5964
20
-149.474
11
48.7393
21
-149.331
0
LINE
8
BLACK
6
CONTINUOUS
10
48.7393
20
-149.331
11
49.025
21
-149.188
0
LINE
8
BLACK
6
CONTINUOUS
10
51.3107
20
-152.188
11
51.3107
21
-150.188
0
LINE
8
BLACK
6
CONTINUOUS
10
51.3107
20
-150.474
11
51.4535
21
-150.331
0
LINE
8
BLACK
6
CONTINUOUS
10
51.4535
20
-150.331
11
51.7393
21
-150.188
0
LINE
8
BLACK
6
CONTINUOUS
10
51.7393
20
-150.188
11
52.1678
21
-150.188
0
LINE
8
BLACK
6
CONTINUOUS
10
52.1678
20
-150.188
11
52.4535
21
-150.331
0
LINE
8
BLACK
6
CONTINUOUS
10
52.4535
20
-150.331
11
52.5964
21
-150.617
0
LINE
8
BLACK
6
CONTINUOUS
10
52.5964
20
-150.617
11
52.5964
21
-152.188
0
LINE
8
BLACK
6
CONTINUOUS
10
52.5964
20
-150.617
11
52.7393
21
-150.331
0
LINE
8
BLACK
6
CONTINUOUS
10
52.7393
20
-150.331
11
53.025
21
-150.188
0
LINE
8
BLACK
6
CONTINUOUS
10
53.025
20
-150.188
11
53.4535
21
-150.188
0
LINE
8
BLACK
6
CONTINUOUS
10
53.4535
20
-150.188
11
53.7393
21
-150.331
0
LINE
8
BLACK
6
CONTINUOUS
10
53.7393
20
-150.331
11
53.8821
21
-150.617
0
LINE
8
BLACK
6
CONTINUOUS
10
53.8821
20
-150.617
11
53.8821
21
-152.188
0
LINE
8
BLACK
6
CONTINUOUS
10
55.3107
20
-152.188
11
55.3107
21
-150.188
0
LINE
8
BLACK
6
CONTINUOUS
10
55.3107
20
-150.474
11
55.4535
21
-150.331
0
LINE
8
BLACK
6
CONTINUOUS
10
55.4535
20
-150.331
11
55.7393
21
-150.188
0
LINE
8
BLACK
6
CONTINUOUS
10
55.7393
20
-150.188
11
56.1678
21
-150.188
0
LINE
8
BLACK
6
CONTINUOUS
10
56.1678
20
-150.188
11
56.4535
21
-150.331
0
LINE
8
BLACK
6
CONTINUOUS
10
56.4535
20
-150.331
11
56.5964
21
-150.617
0
LINE
8
BLACK
6
CONTINUOUS
10
56.5964
20
-150.617
11
56.5964
21
-152.188
0
LINE
8
BLACK
6
CONTINUOUS
10
56.5964
20
-150.617
11
56.7393
21
-150.331
0
LINE
8
BLACK
6
CONTINUOUS
10
56.7393
20
-150.331
11
57.025
21
-150.188
0
LINE
8
BLACK
6
CONTINUOUS
10
57.025
20
-150.188
11
57.4535
21
-150.188
0
LINE
8
BLACK
6
CONTINUOUS
10
57.4535
20
-150.188
11
57.7393
21
-150.331
0
LINE
8
BLACK
6
CONTINUOUS
10
57.7393
20
-150.331
11
57.8821
21
-150.617
0
LINE
8
BLACK
6
CONTINUOUS
10
57.8821
20
-150.617
11
57.8821
21
-152.188
0
LINE
8
BLACK
6
CONTINUOUS
10
63.7393
20
-149.045
11
61.1678
21
-152.902
0
LINE
8
BLACK
6
CONTINUOUS
10
67.5964
20
-149.188
11
67.8821
21
-149.188
0
LINE
8
BLACK
6
CONTINUOUS
10
67.8821
20
-149.188
11
68.1678
21
-149.331
0
LINE
8
BLACK
6
CONTINUOUS
10
68.1678
20
-149.331
11
68.3107
21
-149.474
0
LINE
8
BLACK
6
CONTINUOUS
10
68.3107
20
-149.474
11
68.4535
21
-149.759
0
LINE
8
BLACK
6
CONTINUOUS
10
68.4535
20
-149.759
11
68.5964
21
-150.331
0
LINE
8
BLACK
6
CONTINUOUS
10
68.5964
20
-150.331
11
68.5964
21
-151.045
0
LINE
8
BLACK
6
CONTINUOUS
10
68.5964
20
-151.045
11
68.4535
21
-151.617
0
LINE
8
BLACK
6
CONTINUOUS
10
68.4535
20
-151.617
11
68.3107
21
-151.902
0
LINE
8
BLACK
6
CONTINUOUS
10
68.3107
20
-151.902
11
68.1678
21
-152.045
0
LINE
8
BLACK
6
CONTINUOUS
10
68.1678
20
-152.045
11
67.8821
21
-152.188
0
LINE
8
BLACK
6
CONTINUOUS
10
67.8821
20
-152.188
11
67.5964
21
-152.188
0
LINE
8
BLACK
6
CONTINUOUS
10
67.5964
20
-152.188
11
67.3107
21
-152.045
0
LINE
8
BLACK
6
CONTINUOUS
10
67.3107
20
-152.045
11
67.1678
21
-151.902
0
LINE
8
BLACK
6
CONTINUOUS
10
67.1678
20
-151.902
11
67.025
21
-151.617
0
LINE
8
BLACK
6
CONTINUOUS
10
67.025
20
-151.617
11
66.8821
21
-151.045
0
LINE
8
BLACK
6
CONTINUOUS
10
66.8821
20
-151.045
11
66.8821
21
-150.331
0
LINE
8
BLACK
6
CONTINUOUS
10
66.8821
20
-150.331
11
67.025
21
-149.759
0
LINE
8
BLACK
6
CONTINUOUS
10
67.025
20
-149.759
11
67.1678
21
-149.474
0
LINE
8
BLACK
6
CONTINUOUS
10
67.1678
20
-149.474
11
67.3107
21
-149.331
0
LINE
8
BLACK
6
CONTINUOUS
10
67.3107
20
-149.331
11
67.5964
21
-149.188
0
LINE
8
BLACK
6
CONTINUOUS
10
69.8821
20
-151.902
11
70.025
21
-152.045
0
LINE
8
BLACK
6
CONTINUOUS
10
70.025
20
-152.045
11
69.8821
21
-152.188
0
LINE
8
BLACK
6
CONTINUOUS
10
69.8821
20
-152.188
11
69.7393
21
-152.045
0
LINE
8
BLACK
6
CONTINUOUS
10
69.7393
20
-152.045
11
69.8821
21
-151.902
0
LINE
8
BLACK
6
CONTINUOUS
10
69.8821
20
-151.902
11
69.8821
21
-152.188
0
LINE
8
BLACK
6
CONTINUOUS
10
71.8821
20
-149.188
11
72.1678
21
-149.188
0
LINE
8
BLACK
6
CONTINUOUS
10
72.1678
20
-149.188
11
72.4535
21
-149.331
0
LINE
8
BLACK
6
CONTINUOUS
10
72.4535
20
-149.331
11
72.5964
21
-149.474
0
LINE
8
BLACK
6
CONTINUOUS
10
72.5964
20
-149.474
11
72.7393
21
-149.759
0
LINE
8
BLACK
6
CONTINUOUS
10
72.7393
20
-149.759
11
72.8821
21
-150.331
0
LINE
8
BLACK
6
CONTINUOUS
10
72.8821
20
-150.331
11
72.8821
21
-151.045
0
LINE
8
BLACK
6
CONTINUOUS
10
72.8821
20
-151.045
11
72.7393
21
-151.617
0
LINE
8
BLACK
6
CONTINUOUS
10
72.7393
20
-151.617
11
72.5964
21
-151.902
0
LINE
8
BLACK
6
CONTINUOUS
10
72.5964
20
-151.902
11
72.4535
21
-152.045
0
LINE
8
BLACK
6
CONTINUOUS
10
72.4535
20
-152.045
11
72.1678
21
-152.188
0
LINE
8
BLACK
6
CONTINUOUS
10
72.1678
20
-152.188
11
71.8821
21
-152.188
0
LINE
8
BLACK
6
CONTINUOUS
10
71.8821
20
-152.188
11
71.5964
21
-152.045
0
LINE
8
BLACK
6
CONTINUOUS
10
71.5964
20
-152.045
11
71.4535
21
-151.902
0
LINE
8
BLACK
6
CONTINUOUS
10
71.4535
20
-151.902
11
71.3107
21
-151.617
0
LINE
8
BLACK
6
CONTINUOUS
10
71.3107
20
-151.617
11
71.1678
21
-151.045
0
LINE
8
BLACK
6
CONTINUOUS
10
71.1678
20
-151.045
11
71.1678
21
-150.331
0
LINE
8
BLACK
6
CONTINUOUS
10
71.1678
20
-150.331
11
71.3107
21
-149.759
0
LINE
8
BLACK
6
CONTINUOUS
10
71.3107
20
-149.759
11
71.4535
21
-149.474
0
LINE
8
BLACK
6
CONTINUOUS
10
71.4535
20
-149.474
11
71.5964
21
-149.331
0
LINE
8
BLACK
6
CONTINUOUS
10
71.5964
20
-149.331
11
71.8821
21
-149.188
0
LINE
8
BLACK
6
CONTINUOUS
10
73.8821
20
-149.188
11
75.7393
21
-149.188
0
LINE
8
BLACK
6
CONTINUOUS
10
75.7393
20
-149.188
11
74.7393
21
-150.331
0
LINE
8
BLACK
6
CONTINUOUS
10
74.7393
20
-150.331
11
75.1678
21
-150.331
0
LINE
8
BLACK
6
CONTINUOUS
10
75.1678
20
-150.331
11
75.4535
21
-150.474
0
LINE
8
BLACK
6
CONTINUOUS
10
75.4535
20
-150.474
11
75.5964
21
-150.617
0
LINE
8
BLACK
6
CONTINUOUS
10
75.5964
20
-150.617
11
75.7393
21
-150.902
0
LINE
8
BLACK
6
CONTINUOUS
10
75.7393
20
-150.902
11
75.7393
21
-151.617
0
LINE
8
BLACK
6
CONTINUOUS
10
75.7393
20
-151.617
11
75.5964
21
-151.902
0
LINE
8
BLACK
6
CONTINUOUS
10
75.5964
20
-151.902
11
75.4535
21
-152.045
0
LINE
8
BLACK
6
CONTINUOUS
10
75.4535
20
-152.045
11
75.1678
21
-152.188
0
LINE
8
BLACK
6
CONTINUOUS
10
75.1678
20
-152.188
11
74.3107
21
-152.188
0
LINE
8
BLACK
6
CONTINUOUS
10
74.3107
20
-152.188
11
74.025
21
-152.045
0
LINE
8
BLACK
6
CONTINUOUS
10
74.025
20
-152.045
11
73.8821
21
-151.902
0
LINE
8
BLACK
6
CONTINUOUS
10
78.4535
20
-149.188
11
77.025
21
-149.188
0
LINE
8
BLACK
6
CONTINUOUS
10
77.025
20
-149.188
11
76.8821
21
-150.617
0
LINE
8
BLACK
6
CONTINUOUS
10
76.8821
20
-150.617
11
77.025
21
-150.474
0
LINE
8
BLACK
6
CONTINUOUS
10
77.025
20
-150.474
11
77.3107
21
-150.331
0
LINE
8
BLACK
6
CONTINUOUS
10
77.3107
20
-150.331
11
78.025
21
-150.331
0
LINE
8
BLACK
6
CONTINUOUS
10
78.025
20
-150.331
11
78.3107
21
-150.474
0
LINE
8
BLACK
6
CONTINUOUS
10
78.3107
20
-150.474
11
78.4535
21
-150.617
0
LINE
8
BLACK
6
CONTINUOUS
10
78.4535
20
-150.617
11
78.5964
21
-150.902
0
LINE
8
BLACK
6
CONTINUOUS
10
78.5964
20
-150.902
11
78.5964
21
-151.617
0
LINE
8
BLACK
6
CONTINUOUS
10
78.5964
20
-151.617
11
78.4535
21
-151.902
0
LINE
8
BLACK
6
CONTINUOUS
10
78.4535
20
-151.902
11
78.3107
21
-152.045
0
LINE
8
BLACK
6
CONTINUOUS
10
78.3107
20
-152.045
11
78.025
21
-152.188
0
LINE
8
BLACK
6
CONTINUOUS
10
78.025
20
-152.188
11
77.3107
21
-152.188
0
LINE
8
BLACK
6
CONTINUOUS
10
77.3107
20
-152.188
11
77.025
21
-152.045
0
LINE
8
BLACK
6
CONTINUOUS
10
77.025
20
-152.045
11
76.8821
21
-151.902
0
LINE
8
BLACK
6
CONTINUOUS
10
79.7393
20
-149.188
11
79.7393
21
-149.759
0
LINE
8
BLACK
6
CONTINUOUS
10
80.8821
20
-149.188
11
80.8821
21
-149.759
0
LINE
8
BLACK
6
CONTINUOUS
10
85.3107
20
-153.331
11
85.1678
21
-153.188
0
LINE
8
BLACK
6
CONTINUOUS
10
85.1678
20
-153.188
11
84.8821
21
-152.759
0
LINE
8
BLACK
6
CONTINUOUS
10
84.8821
20
-152.759
11
84.7393
21
-152.474
0
LINE
8
BLACK
6
CONTINUOUS
10
84.7393
20
-152.474
11
84.5964
21
-152.045
0
LINE
8
BLACK
6
CONTINUOUS
10
84.5964
20
-152.045
11
84.4535
21
-151.331
0
LINE
8
BLACK
6
CONTINUOUS
10
84.4535
20
-151.331
11
84.4535
21
-150.759
0
LINE
8
BLACK
6
CONTINUOUS
10
84.4535
20
-150.759
11
84.5964
21
-150.045
0
LINE
8
BLACK
6
CONTINUOUS
10
84.5964
20
-150.045
11
84.7393
21
-149.617
0
LINE
8
BLACK
6
CONTINUOUS
10
84.7393
20
-149.617
11
84.8821
21
-149.331
0
LINE
8
BLACK
6
CONTINUOUS
10
84.8821
20
-149.331
11
85.1678
21
-148.902
0
LINE
8
BLACK
6
CONTINUOUS
10
85.1678
20
-148.902
11
85.3107
21
-148.759
0
LINE
8
BLACK
6
CONTINUOUS
10
86.3107
20
-149.474
11
86.4535
21
-149.331
0
LINE
8
BLACK
6
CONTINUOUS
10
86.4535
20
-149.331
11
86.7393
21
-149.188
0
LINE
8
BLACK
6
CONTINUOUS
10
86.7393
20
-149.188
11
87.4535
21
-149.188
0
LINE
8
BLACK
6
CONTINUOUS
10
87.4535
20
-149.188
11
87.7393
21
-149.331
0
LINE
8
BLACK
6
CONTINUOUS
10
87.7393
20
-149.331
11
87.8821
21
-149.474
0
LINE
8
BLACK
6
CONTINUOUS
10
87.8821
20
-149.474
11
88.025
21
-149.759
0
LINE
8
BLACK
6
CONTINUOUS
10
88.025
20
-149.759
11
88.025
21
-150.045
0
LINE
8
BLACK
6
CONTINUOUS
10
88.025
20
-150.045
11
87.8821
21
-150.474
0
LINE
8
BLACK
6
CONTINUOUS
10
87.8821
20
-150.474
11
86.1678
21
-152.188
0
LINE
8
BLACK
6
CONTINUOUS
10
86.1678
20
-152.188
11
88.025
21
-152.188
0
LINE
8
BLACK
6
CONTINUOUS
10
91.5964
20
-152.188
11
91.5964
21
-149.188
0
LINE
8
BLACK
6
CONTINUOUS
10
92.8821
20
-152.188
11
92.8821
21
-150.617
0
LINE
8
BLACK
6
CONTINUOUS
10
92.8821
20
-150.617
11
92.7393
21
-150.331
0
LINE
8
BLACK
6
CONTINUOUS
10
92.7393
20
-150.331
11
92.4535
21
-150.188
0
LINE
8
BLACK
6
CONTINUOUS
10
92.4535
20
-150.188
11
92.025
21
-150.188
0
LINE
8
BLACK
6
CONTINUOUS
10
92.025
20
-150.188
11
91.7393
21
-150.331
0
LINE
8
BLACK
6
CONTINUOUS
10
91.7393
20
-150.331
11
91.5964
21
-150.474
0
LINE
8
BLACK
6
CONTINUOUS
10
94.7393
20
-152.188
11
94.4535
21
-152.045
0
LINE
8
BLACK
6
CONTINUOUS
10
94.4535
20
-152.045
11
94.3107
21
-151.902
0
LINE
8
BLACK
6
CONTINUOUS
10
94.3107
20
-151.902
11
94.1678
21
-151.617
0
LINE
8
BLACK
6
CONTINUOUS
10
94.1678
20
-151.617
11
94.1678
21
-150.759
0
LINE
8
BLACK
6
CONTINUOUS
10
94.1678
20
-150.759
11
94.3107
21
-150.474
0
LINE
8
BLACK
6
CONTINUOUS
10
94.3107
20
-150.474
11
94.4535
21
-150.331
0
LINE
8
BLACK
6
CONTINUOUS
10
94.4535
20
-150.331
11
94.7393
21
-150.188
0
LINE
8
BLACK
6
CONTINUOUS
10
94.7393
20
-150.188
11
95.1678
21
-150.188
0
LINE
8
BLACK
6
CONTINUOUS
10
95.1678
20
-150.188
11
95.4535
21
-150.331
0
LINE
8
BLACK
6
CONTINUOUS
10
95.4535
20
-150.331
11
95.5964
21
-150.474
0
LINE
8
BLACK
6
CONTINUOUS
10
95.5964
20
-150.474
11
95.7393
21
-150.759
0
LINE
8
BLACK
6
CONTINUOUS
10
95.7393
20
-150.759
11
95.7393
21
-151.617
0
LINE
8
BLACK
6
CONTINUOUS
10
95.7393
20
-151.617
11
95.5964
21
-151.902
0
LINE
8
BLACK
6
CONTINUOUS
10
95.5964
20
-151.902
11
95.4535
21
-152.045
0
LINE
8
BLACK
6
CONTINUOUS
10
95.4535
20
-152.045
11
95.1678
21
-152.188
0
LINE
8
BLACK
6
CONTINUOUS
10
95.1678
20
-152.188
11
94.7393
21
-152.188
0
LINE
8
BLACK
6
CONTINUOUS
10
97.4535
20
-152.188
11
97.1678
21
-152.045
0
LINE
8
BLACK
6
CONTINUOUS
10
97.1678
20
-152.045
11
97.025
21
-151.759
0
LINE
8
BLACK
6
CONTINUOUS
10
97.025
20
-151.759
11
97.025
21
-149.188
0
LINE
8
BLACK
6
CONTINUOUS
10
99.7393
20
-152.045
11
99.4535
21
-152.188
0
LINE
8
BLACK
6
CONTINUOUS
10
99.4535
20
-152.188
11
98.8821
21
-152.188
0
LINE
8
BLACK
6
CONTINUOUS
10
98.8821
20
-152.188
11
98.5964
21
-152.045
0
LINE
8
BLACK
6
CONTINUOUS
10
98.5964
20
-152.045
11
98.4535
21
-151.759
0
LINE
8
BLACK
6
CONTINUOUS
10
98.4535
20
-151.759
11
98.4535
21
-150.617
0
LINE
8
BLACK
6
CONTINUOUS
10
98.4535
20
-150.617
11
98.5964
21
-150.331
0
LINE
8
BLACK
6
CONTINUOUS
10
98.5964
20
-150.331
11
98.8821
21
-150.188
0
LINE
8
BLACK
6
CONTINUOUS
10
98.8821
20
-150.188
11
99.4535
21
-150.188
0
LINE
8
BLACK
6
CONTINUOUS
10
99.4535
20
-150.188
11
99.7393
21
-150.331
0
LINE
8
BLACK
6
CONTINUOUS
10
99.7393
20
-150.331
11
99.8821
21
-150.617
0
LINE
8
BLACK
6
CONTINUOUS
10
99.8821
20
-150.617
11
99.8821
21
-150.902
0
LINE
8
BLACK
6
CONTINUOUS
10
99.8821
20
-150.902
11
98.4535
21
-151.188
0
LINE
8
BLACK
6
CONTINUOUS
10
101.025
20
-152.045
11
101.311
21
-152.188
0
LINE
8
BLACK
6
CONTINUOUS
10
101.311
20
-152.188
11
101.882
21
-152.188
0
LINE
8
BLACK
6
CONTINUOUS
10
101.882
20
-152.188
11
102.168
21
-152.045
0
LINE
8
BLACK
6
CONTINUOUS
10
102.168
20
-152.045
11
102.311
21
-151.759
0
LINE
8
BLACK
6
CONTINUOUS
10
102.311
20
-151.759
11
102.311
21
-151.617
0
LINE
8
BLACK
6
CONTINUOUS
10
102.311
20
-151.617
11
102.168
21
-151.331
0
LINE
8
BLACK
6
CONTINUOUS
10
102.168
20
-151.331
11
101.882
21
-151.188
0
LINE
8
BLACK
6
CONTINUOUS
10
101.882
20
-151.188
11
101.454
21
-151.188
0
LINE
8
BLACK
6
CONTINUOUS
10
101.454
20
-151.188
11
101.168
21
-151.045
0
LINE
8
BLACK
6
CONTINUOUS
10
101.168
20
-151.045
11
101.025
21
-150.759
0
LINE
8
BLACK
6
CONTINUOUS
10
101.025
20
-150.759
11
101.025
21
-150.617
0
LINE
8
BLACK
6
CONTINUOUS
10
101.025
20
-150.617
11
101.168
21
-150.331
0
LINE
8
BLACK
6
CONTINUOUS
10
101.168
20
-150.331
11
101.454
21
-150.188
0
LINE
8
BLACK
6
CONTINUOUS
10
101.454
20
-150.188
11
101.882
21
-150.188
0
LINE
8
BLACK
6
CONTINUOUS
10
101.882
20
-150.188
11
102.168
21
-150.331
0
LINE
8
BLACK
6
CONTINUOUS
10
103.311
20
-153.331
11
103.454
21
-153.188
0
LINE
8
BLACK
6
CONTINUOUS
10
103.454
20
-153.188
11
103.739
21
-152.759
0
LINE
8
BLACK
6
CONTINUOUS
10
103.739
20
-152.759
11
103.882
21
-152.474
0
LINE
8
BLACK
6
CONTINUOUS
10
103.882
20
-152.474
11
104.025
21
-152.045
0
LINE
8
BLACK
6
CONTINUOUS
10
104.025
20
-152.045
11
104.168
21
-151.331
0
LINE
8
BLACK
6
CONTINUOUS
10
104.168
20
-151.331
11
104.168
21
-150.759
0
LINE
8
BLACK
6
CONTINUOUS
10
104.168
20
-150.759
11
104.025
21
-150.045
0
LINE
8
BLACK
6
CONTINUOUS
10
104.025
20
-150.045
11
103.882
21
-149.617
0
LINE
8
BLACK
6
CONTINUOUS
10
103.882
20
-149.617
11
103.739
21
-149.331
0
LINE
8
BLACK
6
CONTINUOUS
10
103.739
20
-149.331
11
103.454
21
-148.902
0
LINE
8
BLACK
6
CONTINUOUS
10
103.454
20
-148.902
11
103.311
21
-148.759
0
LINE
8
BLACK
6
CONTINUOUS
10
37.9464
20
-154.291
11
37.9464
21
-155.291
0
LINE
8
BLACK
6
CONTINUOUS
10
37.4464
20
-154.791
11
38.4464
21
-154.791
0
LINE
8
BLACK
6
CONTINUOUS
10
42.8821
20
-156.148
11
41.1678
21
-156.148
0
LINE
8
BLACK
6
CONTINUOUS
10
42.025
20
-156.148
11
42.025
21
-153.148
0
LINE
8
BLACK
6
CONTINUOUS
10
42.025
20
-153.148
11
41.7393
21
-153.577
0
LINE
8
BLACK
6
CONTINUOUS
10
41.7393
20
-153.577
11
41.4535
21
-153.862
0
LINE
8
BLACK
6
CONTINUOUS
10
41.4535
20
-153.862
11
41.1678
21
-154.005
0
LINE
8
BLACK
6
CONTINUOUS
10
44.1678
20
-155.862
11
44.3107
21
-156.005
0
LINE
8
BLACK
6
CONTINUOUS
10
44.3107
20
-156.005
11
44.1678
21
-156.148
0
LINE
8
BLACK
6
CONTINUOUS
10
44.1678
20
-156.148
11
44.025
21
-156.005
0
LINE
8
BLACK
6
CONTINUOUS
10
44.025
20
-156.005
11
44.1678
21
-155.862
0
LINE
8
BLACK
6
CONTINUOUS
10
44.1678
20
-155.862
11
44.1678
21
-156.148
0
LINE
8
BLACK
6
CONTINUOUS
10
46.1678
20
-153.148
11
46.4535
21
-153.148
0
LINE
8
BLACK
6
CONTINUOUS
10
46.4535
20
-153.148
11
46.7393
21
-153.291
0
LINE
8
BLACK
6
CONTINUOUS
10
46.7393
20
-153.291
11
46.8821
21
-153.434
0
LINE
8
BLACK
6
CONTINUOUS
10
46.8821
20
-153.434
11
47.025
21
-153.719
0
LINE
8
BLACK
6
CONTINUOUS
10
47.025
20
-153.719
11
47.1678
21
-154.291
0
LINE
8
BLACK
6
CONTINUOUS
10
47.1678
20
-154.291
11
47.1678
21
-155.005
0
LINE
8
BLACK
6
CONTINUOUS
10
47.1678
20
-155.005
11
47.025
21
-155.577
0
LINE
8
BLACK
6
CONTINUOUS
10
47.025
20
-155.577
11
46.8821
21
-155.862
0
LINE
8
BLACK
6
CONTINUOUS
10
46.8821
20
-155.862
11
46.7393
21
-156.005
0
LINE
8
BLACK
6
CONTINUOUS
10
46.7393
20
-156.005
11
46.4535
21
-156.148
0
LINE
8
BLACK
6
CONTINUOUS
10
46.4535
20
-156.148
11
46.1678
21
-156.148
0
LINE
8
BLACK
6
CONTINUOUS
10
46.1678
20
-156.148
11
45.8821
21
-156.005
0
LINE
8
BLACK
6
CONTINUOUS
10
45.8821
20
-156.005
11
45.7393
21
-155.862
0
LINE
8
BLACK
6
CONTINUOUS
10
45.7393
20
-155.862
11
45.5964
21
-155.577
0
LINE
8
BLACK
6
CONTINUOUS
10
45.5964
20
-155.577
11
45.4535
21
-155.005
0
LINE
8
BLACK
6
CONTINUOUS
10
45.4535
20
-155.005
11
45.4535
21
-154.291
0
LINE
8
BLACK
6
CONTINUOUS
10
45.4535
20
-154.291
11
45.5964
21
-153.719
0
LINE
8
BLACK
6
CONTINUOUS
10
45.5964
20
-153.719
11
45.7393
21
-153.434
0
LINE
8
BLACK
6
CONTINUOUS
10
45.7393
20
-153.434
11
45.8821
21
-153.291
0
LINE
8
BLACK
6
CONTINUOUS
10
45.8821
20
-153.291
11
46.1678
21
-153.148
0
LINE
8
BLACK
6
CONTINUOUS
10
49.025
20
-153.148
11
49.3107
21
-153.148
0
LINE
8
BLACK
6
CONTINUOUS
10
49.3107
20
-153.148
11
49.5964
21
-153.291
0
LINE
8
BLACK
6
CONTINUOUS
10
49.5964
20
-153.291
11
49.7393
21
-153.434
0
LINE
8
BLACK
6
CONTINUOUS
10
49.7393
20
-153.434
11
49.8821
21
-153.719
0
LINE
8
BLACK
6
CONTINUOUS
10
49.8821
20
-153.719
11
50.025
21
-154.291
0
LINE
8
BLACK
6
CONTINUOUS
10
50.025
20
-154.291
11
50.025
21
-155.005
0
LINE
8
BLACK
6
CONTINUOUS
10
50.025
20
-155.005
11
49.8821
21
-155.577
0
LINE
8
BLACK
6
CONTINUOUS
10
49.8821
20
-155.577
11
49.7393
21
-155.862
0
LINE
8
BLACK
6
CONTINUOUS
10
49.7393
20
-155.862
11
49.5964
21
-156.005
0
LINE
8
BLACK
6
CONTINUOUS
10
49.5964
20
-156.005
11
49.3107
21
-156.148
0
LINE
8
BLACK
6
CONTINUOUS
10
49.3107
20
-156.148
11
49.025
21
-156.148
0
LINE
8
BLACK
6
CONTINUOUS
10
49.025
20
-156.148
11
48.7393
21
-156.005
0
LINE
8
BLACK
6
CONTINUOUS
10
48.7393
20
-156.005
11
48.5964
21
-155.862
0
LINE
8
BLACK
6
CONTINUOUS
10
48.5964
20
-155.862
11
48.4535
21
-155.577
0
LINE
8
BLACK
6
CONTINUOUS
10
48.4535
20
-155.577
11
48.3107
21
-155.005
0
LINE
8
BLACK
6
CONTINUOUS
10
48.3107
20
-155.005
11
48.3107
21
-154.291
0
LINE
8
BLACK
6
CONTINUOUS
10
48.3107
20
-154.291
11
48.4535
21
-153.719
0
LINE
8
BLACK
6
CONTINUOUS
10
48.4535
20
-153.719
11
48.5964
21
-153.434
0
LINE
8
BLACK
6
CONTINUOUS
10
48.5964
20
-153.434
11
48.7393
21
-153.291
0
LINE
8
BLACK
6
CONTINUOUS
10
48.7393
20
-153.291
11
49.025
21
-153.148
0
LINE
8
BLACK
6
CONTINUOUS
10
51.3107
20
-156.148
11
51.3107
21
-154.148
0
LINE
8
BLACK
6
CONTINUOUS
10
51.3107
20
-154.434
11
51.4535
21
-154.291
0
LINE
8
BLACK
6
CONTINUOUS
10
51.4535
20
-154.291
11
51.7393
21
-154.148
0
LINE
8
BLACK
6
CONTINUOUS
10
51.7393
20
-154.148
11
52.1678
21
-154.148
0
LINE
8
BLACK
6
CONTINUOUS
10
52.1678
20
-154.148
11
52.4535
21
-154.291
0
LINE
8
BLACK
6
CONTINUOUS
10
52.4535
20
-154.291
11
52.5964
21
-154.577
0
LINE
8
BLACK
6
CONTINUOUS
10
52.5964
20
-154.577
11
52.5964
21
-156.148
0
LINE
8
BLACK
6
CONTINUOUS
10
52.5964
20
-154.577
11
52.7393
21
-154.291
0
LINE
8
BLACK
6
CONTINUOUS
10
52.7393
20
-154.291
11
53.025
21
-154.148
0
LINE
8
BLACK
6
CONTINUOUS
10
53.025
20
-154.148
11
53.4535
21
-154.148
0
LINE
8
BLACK
6
CONTINUOUS
10
53.4535
20
-154.148
11
53.7393
21
-154.291
0
LINE
8
BLACK
6
CONTINUOUS
10
53.7393
20
-154.291
11
53.8821
21
-154.577
0
LINE
8
BLACK
6
CONTINUOUS
10
53.8821
20
-154.577
11
53.8821
21
-156.148
0
LINE
8
BLACK
6
CONTINUOUS
10
55.3107
20
-156.148
11
55.3107
21
-154.148
0
LINE
8
BLACK
6
CONTINUOUS
10
55.3107
20
-154.434
11
55.4535
21
-154.291
0
LINE
8
BLACK
6
CONTINUOUS
10
55.4535
20
-154.291
11
55.7393
21
-154.148
0
LINE
8
BLACK
6
CONTINUOUS
10
55.7393
20
-154.148
11
56.1678
21
-154.148
0
LINE
8
BLACK
6
CONTINUOUS
10
56.1678
20
-154.148
11
56.4535
21
-154.291
0
LINE
8
BLACK
6
CONTINUOUS
10
56.4535
20
-154.291
11
56.5964
21
-154.577
0
LINE
8
BLACK
6
CONTINUOUS
10
56.5964
20
-154.577
11
56.5964
21
-156.148
0
LINE
8
BLACK
6
CONTINUOUS
10
56.5964
20
-154.577
11
56.7393
21
-154.291
0
LINE
8
BLACK
6
CONTINUOUS
10
56.7393
20
-154.291
11
57.025
21
-154.148
0
LINE
8
BLACK
6
CONTINUOUS
10
57.025
20
-154.148
11
57.4535
21
-154.148
0
LINE
8
BLACK
6
CONTINUOUS
10
57.4535
20
-154.148
11
57.7393
21
-154.291
0
LINE
8
BLACK
6
CONTINUOUS
10
57.7393
20
-154.291
11
57.8821
21
-154.577
0
LINE
8
BLACK
6
CONTINUOUS
10
57.8821
20
-154.577
11
57.8821
21
-156.148
0
LINE
8
BLACK
6
CONTINUOUS
10
63.7393
20
-153.005
11
61.1678
21
-156.862
0
LINE
8
BLACK
6
CONTINUOUS
10
67.5964
20
-153.148
11
67.8821
21
-153.148
0
LINE
8
BLACK
6
CONTINUOUS
10
67.8821
20
-153.148
11
68.1678
21
-153.291
0
LINE
8
BLACK
6
CONTINUOUS
10
68.1678
20
-153.291
11
68.3107
21
-153.434
0
LINE
8
BLACK
6
CONTINUOUS
10
68.3107
20
-153.434
11
68.4535
21
-153.719
0
LINE
8
BLACK
6
CONTINUOUS
10
68.4535
20
-153.719
11
68.5964
21
-154.291
0
LINE
8
BLACK
6
CONTINUOUS
10
68.5964
20
-154.291
11
68.5964
21
-155.005
0
LINE
8
BLACK
6
CONTINUOUS
10
68.5964
20
-155.005
11
68.4535
21
-155.577
0
LINE
8
BLACK
6
CONTINUOUS
10
68.4535
20
-155.577
11
68.3107
21
-155.862
0
LINE
8
BLACK
6
CONTINUOUS
10
68.3107
20
-155.862
11
68.1678
21
-156.005
0
LINE
8
BLACK
6
CONTINUOUS
10
68.1678
20
-156.005
11
67.8821
21
-156.148
0
LINE
8
BLACK
6
CONTINUOUS
10
67.8821
20
-156.148
11
67.5964
21
-156.148
0
LINE
8
BLACK
6
CONTINUOUS
10
67.5964
20
-156.148
11
67.3107
21
-156.005
0
LINE
8
BLACK
6
CONTINUOUS
10
67.3107
20
-156.005
11
67.1678
21
-155.862
0
LINE
8
BLACK
6
CONTINUOUS
10
67.1678
20
-155.862
11
67.025
21
-155.577
0
LINE
8
BLACK
6
CONTINUOUS
10
67.025
20
-155.577
11
66.8821
21
-155.005
0
LINE
8
BLACK
6
CONTINUOUS
10
66.8821
20
-155.005
11
66.8821
21
-154.291
0
LINE
8
BLACK
6
CONTINUOUS
10
66.8821
20
-154.291
11
67.025
21
-153.719
0
LINE
8
BLACK
6
CONTINUOUS
10
67.025
20
-153.719
11
67.1678
21
-153.434
0
LINE
8
BLACK
6
CONTINUOUS
10
67.1678
20
-153.434
11
67.3107
21
-153.291
0
LINE
8
BLACK
6
CONTINUOUS
10
67.3107
20
-153.291
11
67.5964
21
-153.148
0
LINE
8
BLACK
6
CONTINUOUS
10
69.8821
20
-155.862
11
70.025
21
-156.005
0
LINE
8
BLACK
6
CONTINUOUS
10
70.025
20
-156.005
11
69.8821
21
-156.148
0
LINE
8
BLACK
6
CONTINUOUS
10
69.8821
20
-156.148
11
69.7393
21
-156.005
0
LINE
8
BLACK
6
CONTINUOUS
10
69.7393
20
-156.005
11
69.8821
21
-155.862
0
LINE
8
BLACK
6
CONTINUOUS
10
69.8821
20
-155.862
11
69.8821
21
-156.148
0
LINE
8
BLACK
6
CONTINUOUS
10
71.8821
20
-153.148
11
72.1678
21
-153.148
0
LINE
8
BLACK
6
CONTINUOUS
10
72.1678
20
-153.148
11
72.4535
21
-153.291
0
LINE
8
BLACK
6
CONTINUOUS
10
72.4535
20
-153.291
11
72.5964
21
-153.434
0
LINE
8
BLACK
6
CONTINUOUS
10
72.5964
20
-153.434
11
72.7393
21
-153.719
0
LINE
8
BLACK
6
CONTINUOUS
10
72.7393
20
-153.719
11
72.8821
21
-154.291
0
LINE
8
BLACK
6
CONTINUOUS
10
72.8821
20
-154.291
11
72.8821
21
-155.005
0
LINE
8
BLACK
6
CONTINUOUS
10
72.8821
20
-155.005
11
72.7393
21
-155.577
0
LINE
8
BLACK
6
CONTINUOUS
10
72.7393
20
-155.577
11
72.5964
21
-155.862
0
LINE
8
BLACK
6
CONTINUOUS
10
72.5964
20
-155.862
11
72.4535
21
-156.005
0
LINE
8
BLACK
6
CONTINUOUS
10
72.4535
20
-156.005
11
72.1678
21
-156.148
0
LINE
8
BLACK
6
CONTINUOUS
10
72.1678
20
-156.148
11
71.8821
21
-156.148
0
LINE
8
BLACK
6
CONTINUOUS
10
71.8821
20
-156.148
11
71.5964
21
-156.005
0
LINE
8
BLACK
6
CONTINUOUS
10
71.5964
20
-156.005
11
71.4535
21
-155.862
0
LINE
8
BLACK
6
CONTINUOUS
10
71.4535
20
-155.862
11
71.3107
21
-155.577
0
LINE
8
BLACK
6
CONTINUOUS
10
71.3107
20
-155.577
11
71.1678
21
-155.005
0
LINE
8
BLACK
6
CONTINUOUS
10
71.1678
20
-155.005
11
71.1678
21
-154.291
0
LINE
8
BLACK
6
CONTINUOUS
10
71.1678
20
-154.291
11
71.3107
21
-153.719
0
LINE
8
BLACK
6
CONTINUOUS
10
71.3107
20
-153.719
11
71.4535
21
-153.434
0
LINE
8
BLACK
6
CONTINUOUS
10
71.4535
20
-153.434
11
71.5964
21
-153.291
0
LINE
8
BLACK
6
CONTINUOUS
10
71.5964
20
-153.291
11
71.8821
21
-153.148
0
LINE
8
BLACK
6
CONTINUOUS
10
73.8821
20
-153.148
11
75.7393
21
-153.148
0
LINE
8
BLACK
6
CONTINUOUS
10
75.7393
20
-153.148
11
74.7393
21
-154.291
0
LINE
8
BLACK
6
CONTINUOUS
10
74.7393
20
-154.291
11
75.1678
21
-154.291
0
LINE
8
BLACK
6
CONTINUOUS
10
75.1678
20
-154.291
11
75.4535
21
-154.434
0
LINE
8
BLACK
6
CONTINUOUS
10
75.4535
20
-154.434
11
75.5964
21
-154.577
0
LINE
8
BLACK
6
CONTINUOUS
10
75.5964
20
-154.577
11
75.7393
21
-154.862
0
LINE
8
BLACK
6
CONTINUOUS
10
75.7393
20
-154.862
11
75.7393
21
-155.577
0
LINE
8
BLACK
6
CONTINUOUS
10
75.7393
20
-155.577
11
75.5964
21
-155.862
0
LINE
8
BLACK
6
CONTINUOUS
10
75.5964
20
-155.862
11
75.4535
21
-156.005
0
LINE
8
BLACK
6
CONTINUOUS
10
75.4535
20
-156.005
11
75.1678
21
-156.148
0
LINE
8
BLACK
6
CONTINUOUS
10
75.1678
20
-156.148
11
74.3107
21
-156.148
0
LINE
8
BLACK
6
CONTINUOUS
10
74.3107
20
-156.148
11
74.025
21
-156.005
0
LINE
8
BLACK
6
CONTINUOUS
10
74.025
20
-156.005
11
73.8821
21
-155.862
0
LINE
8
BLACK
6
CONTINUOUS
10
77.1678
20
-156.148
11
77.7393
21
-156.148
0
LINE
8
BLACK
6
CONTINUOUS
10
77.7393
20
-156.148
11
78.025
21
-156.005
0
LINE
8
BLACK
6
CONTINUOUS
10
78.025
20
-156.005
11
78.1678
21
-155.862
0
LINE
8
BLACK
6
CONTINUOUS
10
78.1678
20
-155.862
11
78.4535
21
-155.434
0
LINE
8
BLACK
6
CONTINUOUS
10
78.4535
20
-155.434
11
78.5964
21
-154.862
0
LINE
8
BLACK
6
CONTINUOUS
10
78.5964
20
-154.862
11
78.5964
21
-153.719
0
LINE
8
BLACK
6
CONTINUOUS
10
78.5964
20
-153.719
11
78.4535
21
-153.434
0
LINE
8
BLACK
6
CONTINUOUS
10
78.4535
20
-153.434
11
78.3107
21
-153.291
0
LINE
8
BLACK
6
CONTINUOUS
10
78.3107
20
-153.291
11
78.025
21
-153.148
0
LINE
8
BLACK
6
CONTINUOUS
10
78.025
20
-153.148
11
77.4535
21
-153.148
0
LINE
8
BLACK
6
CONTINUOUS
10
77.4535
20
-153.148
11
77.1678
21
-153.291
0
LINE
8
BLACK
6
CONTINUOUS
10
77.1678
20
-153.291
11
77.025
21
-153.434
0
LINE
8
BLACK
6
CONTINUOUS
10
77.025
20
-153.434
11
76.8821
21
-153.719
0
LINE
8
BLACK
6
CONTINUOUS
10
76.8821
20
-153.719
11
76.8821
21
-154.434
0
LINE
8
BLACK
6
CONTINUOUS
10
76.8821
20
-154.434
11
77.025
21
-154.719
0
LINE
8
BLACK
6
CONTINUOUS
10
77.025
20
-154.719
11
77.1678
21
-154.862
0
LINE
8
BLACK
6
CONTINUOUS
10
77.1678
20
-154.862
11
77.4535
21
-155.005
0
LINE
8
BLACK
6
CONTINUOUS
10
77.4535
20
-155.005
11
78.025
21
-155.005
0
LINE
8
BLACK
6
CONTINUOUS
10
78.025
20
-155.005
11
78.3107
21
-154.862
0
LINE
8
BLACK
6
CONTINUOUS
10
78.3107
20
-154.862
11
78.4535
21
-154.719
0
LINE
8
BLACK
6
CONTINUOUS
10
78.4535
20
-154.719
11
78.5964
21
-154.434
0
LINE
8
BLACK
6
CONTINUOUS
10
79.7393
20
-153.148
11
79.7393
21
-153.719
0
LINE
8
BLACK
6
CONTINUOUS
10
80.8821
20
-153.148
11
80.8821
21
-153.719
0
LINE
8
BLACK
6
CONTINUOUS
10
85.3107
20
-157.291
11
85.1678
21
-157.148
0
LINE
8
BLACK
6
CONTINUOUS
10
85.1678
20
-157.148
11
84.8821
21
-156.719
0
LINE
8
BLACK
6
CONTINUOUS
10
84.8821
20
-156.719
11
84.7393
21
-156.434
0
LINE
8
BLACK
6
CONTINUOUS
10
84.7393
20
-156.434
11
84.5964
21
-156.005
0
LINE
8
BLACK
6
CONTINUOUS
10
84.5964
20
-156.005
11
84.4535
21
-155.291
0
LINE
8
BLACK
6
CONTINUOUS
10
84.4535
20
-155.291
11
84.4535
21
-154.719
0
LINE
8
BLACK
6
CONTINUOUS
10
84.4535
20
-154.719
11
84.5964
21
-154.005
0
LINE
8
BLACK
6
CONTINUOUS
10
84.5964
20
-154.005
11
84.7393
21
-153.577
0
LINE
8
BLACK
6
CONTINUOUS
10
84.7393
20
-153.577
11
84.8821
21
-153.291
0
LINE
8
BLACK
6
CONTINUOUS
10
84.8821
20
-153.291
11
85.1678
21
-152.862
0
LINE
8
BLACK
6
CONTINUOUS
10
85.1678
20
-152.862
11
85.3107
21
-152.719
0
LINE
8
BLACK
6
CONTINUOUS
10
86.1678
20
-153.148
11
88.025
21
-153.148
0
LINE
8
BLACK
6
CONTINUOUS
10
88.025
20
-153.148
11
87.025
21
-154.291
0
LINE
8
BLACK
6
CONTINUOUS
10
87.025
20
-154.291
11
87.4535
21
-154.291
0
LINE
8
BLACK
6
CONTINUOUS
10
87.4535
20
-154.291
11
87.7393
21
-154.434
0
LINE
8
BLACK
6
CONTINUOUS
10
87.7393
20
-154.434
11
87.8821
21
-154.577
0
LINE
8
BLACK
6
CONTINUOUS
10
87.8821
20
-154.577
11
88.025
21
-154.862
0
LINE
8
BLACK
6
CONTINUOUS
10
88.025
20
-154.862
11
88.025
21
-155.577
0
LINE
8
BLACK
6
CONTINUOUS
10
88.025
20
-155.577
11
87.8821
21
-155.862
0
LINE
8
BLACK
6
CONTINUOUS
10
87.8821
20
-155.862
11
87.7393
21
-156.005
0
LINE
8
BLACK
6
CONTINUOUS
10
87.7393
20
-156.005
11
87.4535
21
-156.148
0
LINE
8
BLACK
6
CONTINUOUS
10
87.4535
20
-156.148
11
86.5964
21
-156.148
0
LINE
8
BLACK
6
CONTINUOUS
10
86.5964
20
-156.148
11
86.3107
21
-156.005
0
LINE
8
BLACK
6
CONTINUOUS
10
86.3107
20
-156.005
11
86.1678
21
-155.862
0
LINE
8
BLACK
6
CONTINUOUS
10
91.5964
20
-156.148
11
91.5964
21
-153.148
0
LINE
8
BLACK
6
CONTINUOUS
10
92.8821
20
-156.148
11
92.8821
21
-154.577
0
LINE
8
BLACK
6
CONTINUOUS
10
92.8821
20
-154.577
11
92.7393
21
-154.291
0
LINE
8
BLACK
6
CONTINUOUS
10
92.7393
20
-154.291
11
92.4535
21
-154.148
0
LINE
8
BLACK
6
CONTINUOUS
10
92.4535
20
-154.148
11
92.025
21
-154.148
0
LINE
8
BLACK
6
CONTINUOUS
10
92.025
20
-154.148
11
91.7393
21
-154.291
0
LINE
8
BLACK
6
CONTINUOUS
10
91.7393
20
-154.291
11
91.5964
21
-154.434
0
LINE
8
BLACK
6
CONTINUOUS
10
94.7393
20
-156.148
11
94.4535
21
-156.005
0
LINE
8
BLACK
6
CONTINUOUS
10
94.4535
20
-156.005
11
94.3107
21
-155.862
0
LINE
8
BLACK
6
CONTINUOUS
10
94.3107
20
-155.862
11
94.1678
21
-155.577
0
LINE
8
BLACK
6
CONTINUOUS
10
94.1678
20
-155.577
11
94.1678
21
-154.719
0
LINE
8
BLACK
6
CONTINUOUS
10
94.1678
20
-154.719
11
94.3107
21
-154.434
0
LINE
8
BLACK
6
CONTINUOUS
10
94.3107
20
-154.434
11
94.4535
21
-154.291
0
LINE
8
BLACK
6
CONTINUOUS
10
94.4535
20
-154.291
11
94.7393
21
-154.148
0
LINE
8
BLACK
6
CONTINUOUS
10
94.7393
20
-154.148
11
95.1678
21
-154.148
0
LINE
8
BLACK
6
CONTINUOUS
10
95.1678
20
-154.148
11
95.4535
21
-154.291
0
LINE
8
BLACK
6
CONTINUOUS
10
95.4535
20
-154.291
11
95.5964
21
-154.434
0
LINE
8
BLACK
6
CONTINUOUS
10
95.5964
20
-154.434
11
95.7393
21
-154.719
0
LINE
8
BLACK
6
CONTINUOUS
10
95.7393
20
-154.719
11
95.7393
21
-155.577
0
LINE
8
BLACK
6
CONTINUOUS
10
95.7393
20
-155.577
11
95.5964
21
-155.862
0
LINE
8
BLACK
6
CONTINUOUS
10
95.5964
20
-155.862
11
95.4535
21
-156.005
0
LINE
8
BLACK
6
CONTINUOUS
10
95.4535
20
-156.005
11
95.1678
21
-156.148
0
LINE
8
BLACK
6
CONTINUOUS
10
95.1678
20
-156.148
11
94.7393
21
-156.148
0
LINE
8
BLACK
6
CONTINUOUS
10
97.4535
20
-156.148
11
97.1678
21
-156.005
0
LINE
8
BLACK
6
CONTINUOUS
10
97.1678
20
-156.005
11
97.025
21
-155.719
0
LINE
8
BLACK
6
CONTINUOUS
10
97.025
20
-155.719
11
97.025
21
-153.148
0
LINE
8
BLACK
6
CONTINUOUS
10
99.7393
20
-156.005
11
99.4535
21
-156.148
0
LINE
8
BLACK
6
CONTINUOUS
10
99.4535
20
-156.148
11
98.8821
21
-156.148
0
LINE
8
BLACK
6
CONTINUOUS
10
98.8821
20
-156.148
11
98.5964
21
-156.005
0
LINE
8
BLACK
6
CONTINUOUS
10
98.5964
20
-156.005
11
98.4535
21
-155.719
0
LINE
8
BLACK
6
CONTINUOUS
10
98.4535
20
-155.719
11
98.4535
21
-154.577
0
LINE
8
BLACK
6
CONTINUOUS
10
98.4535
20
-154.577
11
98.5964
21
-154.291
0
LINE
8
BLACK
6
CONTINUOUS
10
98.5964
20
-154.291
11
98.8821
21
-154.148
0
LINE
8
BLACK
6
CONTINUOUS
10
98.8821
20
-154.148
11
99.4535
21
-154.148
0
LINE
8
BLACK
6
CONTINUOUS
10
99.4535
20
-154.148
11
99.7393
21
-154.291
0
LINE
8
BLACK
6
CONTINUOUS
10
99.7393
20
-154.291
11
99.8821
21
-154.577
0
LINE
8
BLACK
6
CONTINUOUS
10
99.8821
20
-154.577
11
99.8821
21
-154.862
0
LINE
8
BLACK
6
CONTINUOUS
10
99.8821
20
-154.862
11
98.4535
21
-155.148
0
LINE
8
BLACK
6
CONTINUOUS
10
101.025
20
-156.005
11
101.311
21
-156.148
0
LINE
8
BLACK
6
CONTINUOUS
10
101.311
20
-156.148
11
101.882
21
-156.148
0
LINE
8
BLACK
6
CONTINUOUS
10
101.882
20
-156.148
11
102.168
21
-156.005
0
LINE
8
BLACK
6
CONTINUOUS
10
102.168
20
-156.005
11
102.311
21
-155.719
0
LINE
8
BLACK
6
CONTINUOUS
10
102.311
20
-155.719
11
102.311
21
-155.577
0
LINE
8
BLACK
6
CONTINUOUS
10
102.311
20
-155.577
11
102.168
21
-155.291
0
LINE
8
BLACK
6
CONTINUOUS
10
102.168
20
-155.291
11
101.882
21
-155.148
0
LINE
8
BLACK
6
CONTINUOUS
10
101.882
20
-155.148
11
101.454
21
-155.148
0
LINE
8
BLACK
6
CONTINUOUS
10
101.454
20
-155.148
11
101.168
21
-155.005
0
LINE
8
BLACK
6
CONTINUOUS
10
101.168
20
-155.005
11
101.025
21
-154.719
0
LINE
8
BLACK
6
CONTINUOUS
10
101.025
20
-154.719
11
101.025
21
-154.577
0
LINE
8
BLACK
6
CONTINUOUS
10
101.025
20
-154.577
11
101.168
21
-154.291
0
LINE
8
BLACK
6
CONTINUOUS
10
101.168
20
-154.291
11
101.454
21
-154.148
0
LINE
8
BLACK
6
CONTINUOUS
10
101.454
20
-154.148
11
101.882
21
-154.148
0
LINE
8
BLACK
6
CONTINUOUS
10
101.882
20
-154.148
11
102.168
21
-154.291
0
LINE
8
BLACK
6
CONTINUOUS
10
105.882
20
-155.005
11
108.168
21
-155.005
0
LINE
8
BLACK
6
CONTINUOUS
10
107.025
20
-156.148
11
107.025
21
-153.862
0
LINE
8
BLACK
6
CONTINUOUS
10
111.596
20
-153.148
11
113.454
21
-153.148
0
LINE
8
BLACK
6
CONTINUOUS
10
113.454
20
-153.148
11
112.454
21
-154.291
0
LINE
8
BLACK
6
CONTINUOUS
10
112.454
20
-154.291
11
112.882
21
-154.291
0
LINE
8
BLACK
6
CONTINUOUS
10
112.882
20
-154.291
11
113.168
21
-154.434
0
LINE
8
BLACK
6
CONTINUOUS
10
113.168
20
-154.434
11
113.311
21
-154.577
0
LINE
8
BLACK
6
CONTINUOUS
10
113.311
20
-154.577
11
113.454
21
-154.862
0
LINE
8
BLACK
6
CONTINUOUS
10
113.454
20
-154.862
11
113.454
21
-155.577
0
LINE
8
BLACK
6
CONTINUOUS
10
113.454
20
-155.577
11
113.311
21
-155.862
0
LINE
8
BLACK
6
CONTINUOUS
10
113.311
20
-155.862
11
113.168
21
-156.005
0
LINE
8
BLACK
6
CONTINUOUS
10
113.168
20
-156.005
11
112.882
21
-156.148
0
LINE
8
BLACK
6
CONTINUOUS
10
112.882
20
-156.148
11
112.025
21
-156.148
0
LINE
8
BLACK
6
CONTINUOUS
10
112.025
20
-156.148
11
111.739
21
-156.005
0
LINE
8
BLACK
6
CONTINUOUS
10
111.739
20
-156.005
11
111.596
21
-155.862
0
LINE
8
BLACK
6
CONTINUOUS
10
116.882
20
-156.005
11
117.168
21
-156.148
0
LINE
8
BLACK
6
CONTINUOUS
10
117.168
20
-156.148
11
117.739
21
-156.148
0
LINE
8
BLACK
6
CONTINUOUS
10
117.739
20
-156.148
11
118.025
21
-156.005
0
LINE
8
BLACK
6
CONTINUOUS
10
118.025
20
-156.005
11
118.168
21
-155.719
0
LINE
8
BLACK
6
CONTINUOUS
10
118.168
20
-155.719
11
118.168
21
-155.577
0
LINE
8
BLACK
6
CONTINUOUS
10
118.168
20
-155.577
11
118.025
21
-155.291
0
LINE
8
BLACK
6
CONTINUOUS
10
118.025
20
-155.291
11
117.739
21
-155.148
0
LINE
8
BLACK
6
CONTINUOUS
10
117.739
20
-155.148
11
117.311
21
-155.148
0
LINE
8
BLACK
6
CONTINUOUS
10
117.311
20
-155.148
11
117.025
21
-155.005
0
LINE
8
BLACK
6
CONTINUOUS
10
117.025
20
-155.005
11
116.882
21
-154.719
0
LINE
8
BLACK
6
CONTINUOUS
10
116.882
20
-154.719
11
116.882
21
-154.577
0
LINE
8
BLACK
6
CONTINUOUS
10
116.882
20
-154.577
11
117.025
21
-154.291
0
LINE
8
BLACK
6
CONTINUOUS
10
117.025
20
-154.291
11
117.311
21
-154.148
0
LINE
8
BLACK
6
CONTINUOUS
10
117.311
20
-154.148
11
117.739
21
-154.148
0
LINE
8
BLACK
6
CONTINUOUS
10
117.739
20
-154.148
11
118.025
21
-154.291
0
LINE
8
BLACK
6
CONTINUOUS
10
119.882
20
-156.148
11
119.596
21
-156.005
0
LINE
8
BLACK
6
CONTINUOUS
10
119.596
20
-156.005
11
119.454
21
-155.719
0
LINE
8
BLACK
6
CONTINUOUS
10
119.454
20
-155.719
11
119.454
21
-153.148
0
LINE
8
BLACK
6
CONTINUOUS
10
121.454
20
-156.148
11
121.168
21
-156.005
0
LINE
8
BLACK
6
CONTINUOUS
10
121.168
20
-156.005
11
121.025
21
-155.862
0
LINE
8
BLACK
6
CONTINUOUS
10
121.025
20
-155.862
11
120.882
21
-155.577
0
LINE
8
BLACK
6
CONTINUOUS
10
120.882
20
-155.577
11
120.882
21
-154.719
0
LINE
8
BLACK
6
CONTINUOUS
10
120.882
20
-154.719
11
121.025
21
-154.434
0
LINE
8
BLACK
6
CONTINUOUS
10
121.025
20
-154.434
11
121.168
21
-154.291
0
LINE
8
BLACK
6
CONTINUOUS
10
121.168
20
-154.291
11
121.454
21
-154.148
0
LINE
8
BLACK
6
CONTINUOUS
10
121.454
20
-154.148
11
121.882
21
-154.148
0
LINE
8
BLACK
6
CONTINUOUS
10
121.882
20
-154.148
11
122.168
21
-154.291
0
LINE
8
BLACK
6
CONTINUOUS
10
122.168
20
-154.291
11
122.311
21
-154.434
0
LINE
8
BLACK
6
CONTINUOUS
10
122.311
20
-154.434
11
122.454
21
-154.719
0
LINE
8
BLACK
6
CONTINUOUS
10
122.454
20
-154.719
11
122.454
21
-155.577
0
LINE
8
BLACK
6
CONTINUOUS
10
122.454
20
-155.577
11
122.311
21
-155.862
0
LINE
8
BLACK
6
CONTINUOUS
10
122.311
20
-155.862
11
122.168
21
-156.005
0
LINE
8
BLACK
6
CONTINUOUS
10
122.168
20
-156.005
11
121.882
21
-156.148
0
LINE
8
BLACK
6
CONTINUOUS
10
121.882
20
-156.148
11
121.454
21
-156.148
0
LINE
8
BLACK
6
CONTINUOUS
10
123.311
20
-154.148
11
124.454
21
-154.148
0
LINE
8
BLACK
6
CONTINUOUS
10
123.739
20
-153.148
11
123.739
21
-155.719
0
LINE
8
BLACK
6
CONTINUOUS
10
123.739
20
-155.719
11
123.882
21
-156.005
0
LINE
8
BLACK
6
CONTINUOUS
10
123.882
20
-156.005
11
124.168
21
-156.148
0
LINE
8
BLACK
6
CONTINUOUS
10
124.168
20
-156.148
11
124.454
21
-156.148
0
LINE
8
BLACK
6
CONTINUOUS
10
125.311
20
-156.005
11
125.596
21
-156.148
0
LINE
8
BLACK
6
CONTINUOUS
10
125.596
20
-156.148
11
126.168
21
-156.148
0
LINE
8
BLACK
6
CONTINUOUS
10
126.168
20
-156.148
11
126.454
21
-156.005
0
LINE
8
BLACK
6
CONTINUOUS
10
126.454
20
-156.005
11
126.596
21
-155.719
0
LINE
8
BLACK
6
CONTINUOUS
10
126.596
20
-155.719
11
126.596
21
-155.577
0
LINE
8
BLACK
6
CONTINUOUS
10
126.596
20
-155.577
11
126.454
21
-155.291
0
LINE
8
BLACK
6
CONTINUOUS
10
126.454
20
-155.291
11
126.168
21
-155.148
0
LINE
8
BLACK
6
CONTINUOUS
10
126.168
20
-155.148
11
125.739
21
-155.148
0
LINE
8
BLACK
6
CONTINUOUS
10
125.739
20
-155.148
11
125.454
21
-155.005
0
LINE
8
BLACK
6
CONTINUOUS
10
125.454
20
-155.005
11
125.311
21
-154.719
0
LINE
8
BLACK
6
CONTINUOUS
10
125.311
20
-154.719
11
125.311
21
-154.577
0
LINE
8
BLACK
6
CONTINUOUS
10
125.311
20
-154.577
11
125.454
21
-154.291
0
LINE
8
BLACK
6
CONTINUOUS
10
125.454
20
-154.291
11
125.739
21
-154.148
0
LINE
8
BLACK
6
CONTINUOUS
10
125.739
20
-154.148
11
126.168
21
-154.148
0
LINE
8
BLACK
6
CONTINUOUS
10
126.168
20
-154.148
11
126.454
21
-154.291
0
LINE
8
BLACK
6
CONTINUOUS
10
127.596
20
-157.291
11
127.739
21
-157.148
0
LINE
8
BLACK
6
CONTINUOUS
10
127.739
20
-157.148
11
128.025
21
-156.719
0
LINE
8
BLACK
6
CONTINUOUS
10
128.025
20
-156.719
11
128.168
21
-156.434
0
LINE
8
BLACK
6
CONTINUOUS
10
128.168
20
-156.434
11
128.311
21
-156.005
0
LINE
8
BLACK
6
CONTINUOUS
10
128.311
20
-156.005
11
128.454
21
-155.291
0
LINE
8
BLACK
6
CONTINUOUS
10
128.454
20
-155.291
11
128.454
21
-154.719
0
LINE
8
BLACK
6
CONTINUOUS
10
128.454
20
-154.719
11
128.311
21
-154.005
0
LINE
8
BLACK
6
CONTINUOUS
10
128.311
20
-154.005
11
128.168
21
-153.577
0
LINE
8
BLACK
6
CONTINUOUS
10
128.168
20
-153.577
11
128.025
21
-153.291
0
LINE
8
BLACK
6
CONTINUOUS
10
128.025
20
-153.291
11
127.739
21
-152.862
0
LINE
8
BLACK
6
CONTINUOUS
10
127.739
20
-152.862
11
127.596
21
-152.719
0
LINE
8
BLACK
6
CONTINUOUS
10
38.2707
20
-159.175
11
38.2707
21
-158.327
0
LINE
8
BLACK
6
CONTINUOUS
10
38.2707
20
-158.327
11
37.4221
21
-158.327
0
LINE
8
BLACK
6
CONTINUOUS
10
37.4221
20
-158.327
11
37.4221
21
-159.175
0
LINE
8
BLACK
6
CONTINUOUS
10
37.4221
20
-159.175
11
38.2707
21
-159.175
0
LINE
8
BLACK
6
CONTINUOUS
10
42.8821
20
-160.108
11
41.1678
21
-160.108
0
LINE
8
BLACK
6
CONTINUOUS
10
42.025
20
-160.108
11
42.025
21
-157.108
0
LINE
8
BLACK
6
CONTINUOUS
10
42.025
20
-157.108
11
41.7393
21
-157.537
0
LINE
8
BLACK
6
CONTINUOUS
10
41.7393
20
-157.537
11
41.4535
21
-157.822
0
LINE
8
BLACK
6
CONTINUOUS
10
41.4535
20
-157.822
11
41.1678
21
-157.965
0
LINE
8
BLACK
6
CONTINUOUS
10
44.1678
20
-159.822
11
44.3107
21
-159.965
0
LINE
8
BLACK
6
CONTINUOUS
10
44.3107
20
-159.965
11
44.1678
21
-160.108
0
LINE
8
BLACK
6
CONTINUOUS
10
44.1678
20
-160.108
11
44.025
21
-159.965
0
LINE
8
BLACK
6
CONTINUOUS
10
44.025
20
-159.965
11
44.1678
21
-159.822
0
LINE
8
BLACK
6
CONTINUOUS
10
44.1678
20
-159.822
11
44.1678
21
-160.108
0
LINE
8
BLACK
6
CONTINUOUS
10
45.4535
20
-157.394
11
45.5964
21
-157.251
0
LINE
8
BLACK
6
CONTINUOUS
10
45.5964
20
-157.251
11
45.8821
21
-157.108
0
LINE
8
BLACK
6
CONTINUOUS
10
45.8821
20
-157.108
11
46.5964
21
-157.108
0
LINE
8
BLACK
6
CONTINUOUS
10
46.5964
20
-157.108
11
46.8821
21
-157.251
0
LINE
8
BLACK
6
CONTINUOUS
10
46.8821
20
-157.251
11
47.025
21
-157.394
0
LINE
8
BLACK
6
CONTINUOUS
10
47.025
20
-157.394
11
47.1678
21
-157.679
0
LINE
8
BLACK
6
CONTINUOUS
10
47.1678
20
-157.679
11
47.1678
21
-157.965
0
LINE
8
BLACK
6
CONTINUOUS
10
47.1678
20
-157.965
11
47.025
21
-158.394
0
LINE
8
BLACK
6
CONTINUOUS
10
47.025
20
-158.394
11
45.3107
21
-160.108
0
LINE
8
BLACK
6
CONTINUOUS
10
45.3107
20
-160.108
11
47.1678
21
-160.108
0
LINE
8
BLACK
6
CONTINUOUS
10
49.025
20
-157.108
11
49.3107
21
-157.108
0
LINE
8
BLACK
6
CONTINUOUS
10
49.3107
20
-157.108
11
49.5964
21
-157.251
0
LINE
8
BLACK
6
CONTINUOUS
10
49.5964
20
-157.251
11
49.7393
21
-157.394
0
LINE
8
BLACK
6
CONTINUOUS
10
49.7393
20
-157.394
11
49.8821
21
-157.679
0
LINE
8
BLACK
6
CONTINUOUS
10
49.8821
20
-157.679
11
50.025
21
-158.251
0
LINE
8
BLACK
6
CONTINUOUS
10
50.025
20
-158.251
11
50.025
21
-158.965
0
LINE
8
BLACK
6
CONTINUOUS
10
50.025
20
-158.965
11
49.8821
21
-159.537
0
LINE
8
BLACK
6
CONTINUOUS
10
49.8821
20
-159.537
11
49.7393
21
-159.822
0
LINE
8
BLACK
6
CONTINUOUS
10
49.7393
20
-159.822
11
49.5964
21
-159.965
0
LINE
8
BLACK
6
CONTINUOUS
10
49.5964
20
-159.965
11
49.3107
21
-160.108
0
LINE
8
BLACK
6
CONTINUOUS
10
49.3107
20
-160.108
11
49.025
21
-160.108
0
LINE
8
BLACK
6
CONTINUOUS
10
49.025
20
-160.108
11
48.7393
21
-159.965
0
LINE
8
BLACK
6
CONTINUOUS
10
48.7393
20
-159.965
11
48.5964
21
-159.822
0
LINE
8
BLACK
6
CONTINUOUS
10
48.5964
20
-159.822
11
48.4535
21
-159.537
0
LINE
8
BLACK
6
CONTINUOUS
10
48.4535
20
-159.537
11
48.3107
21
-158.965
0
LINE
8
BLACK
6
CONTINUOUS
10
48.3107
20
-158.965
11
48.3107
21
-158.251
0
LINE
8
BLACK
6
CONTINUOUS
10
48.3107
20
-158.251
11
48.4535
21
-157.679
0
LINE
8
BLACK
6
CONTINUOUS
10
48.4535
20
-157.679
11
48.5964
21
-157.394
0
LINE
8
BLACK
6
CONTINUOUS
10
48.5964
20
-157.394
11
48.7393
21
-157.251
0
LINE
8
BLACK
6
CONTINUOUS
10
48.7393
20
-157.251
11
49.025
21
-157.108
0
LINE
8
BLACK
6
CONTINUOUS
10
51.3107
20
-160.108
11
51.3107
21
-158.108
0
LINE
8
BLACK
6
CONTINUOUS
10
51.3107
20
-158.394
11
51.4535
21
-158.251
0
LINE
8
BLACK
6
CONTINUOUS
10
51.4535
20
-158.251
11
51.7393
21
-158.108
0
LINE
8
BLACK
6
CONTINUOUS
10
51.7393
20
-158.108
11
52.1678
21
-158.108
0
LINE
8
BLACK
6
CONTINUOUS
10
52.1678
20
-158.108
11
52.4535
21
-158.251
0
LINE
8
BLACK
6
CONTINUOUS
10
52.4535
20
-158.251
11
52.5964
21
-158.537
0
LINE
8
BLACK
6
CONTINUOUS
10
52.5964
20
-158.537
11
52.5964
21
-160.108
0
LINE
8
BLACK
6
CONTINUOUS
10
52.5964
20
-158.537
11
52.7393
21
-158.251
0
LINE
8
BLACK
6
CONTINUOUS
10
52.7393
20
-158.251
11
53.025
21
-158.108
0
LINE
8
BLACK
6
CONTINUOUS
10
53.025
20
-158.108
11
53.4535
21
-158.108
0
LINE
8
BLACK
6
CONTINUOUS
10
53.4535
20
-158.108
11
53.7393
21
-158.251
0
LINE
8
BLACK
6
CONTINUOUS
10
53.7393
20
-158.251
11
53.8821
21
-158.537
0
LINE
8
BLACK
6
CONTINUOUS
10
53.8821
20
-158.537
11
53.8821
21
-160.108
0
LINE
8
BLACK
6
CONTINUOUS
10
55.3107
20
-160.108
11
55.3107
21
-158.108
0
LINE
8
BLACK
6
CONTINUOUS
10
55.3107
20
-158.394
11
55.4535
21
-158.251
0
LINE
8
BLACK
6
CONTINUOUS
10
55.4535
20
-158.251
11
55.7393
21
-158.108
0
LINE
8
BLACK
6
CONTINUOUS
10
55.7393
20
-158.108
11
56.1678
21
-158.108
0
LINE
8
BLACK
6
CONTINUOUS
10
56.1678
20
-158.108
11
56.4535
21
-158.251
0
LINE
8
BLACK
6
CONTINUOUS
10
56.4535
20
-158.251
11
56.5964
21
-158.537
0
LINE
8
BLACK
6
CONTINUOUS
10
56.5964
20
-158.537
11
56.5964
21
-160.108
0
LINE
8
BLACK
6
CONTINUOUS
10
56.5964
20
-158.537
11
56.7393
21
-158.251
0
LINE
8
BLACK
6
CONTINUOUS
10
56.7393
20
-158.251
11
57.025
21
-158.108
0
LINE
8
BLACK
6
CONTINUOUS
10
57.025
20
-158.108
11
57.4535
21
-158.108
0
LINE
8
BLACK
6
CONTINUOUS
10
57.4535
20
-158.108
11
57.7393
21
-158.251
0
LINE
8
BLACK
6
CONTINUOUS
10
57.7393
20
-158.251
11
57.8821
21
-158.537
0
LINE
8
BLACK
6
CONTINUOUS
10
57.8821
20
-158.537
11
57.8821
21
-160.108
0
LINE
8
BLACK
6
CONTINUOUS
10
63.7393
20
-156.965
11
61.1678
21
-160.822
0
LINE
8
BLACK
6
CONTINUOUS
10
67.5964
20
-157.108
11
67.8821
21
-157.108
0
LINE
8
BLACK
6
CONTINUOUS
10
67.8821
20
-157.108
11
68.1678
21
-157.251
0
LINE
8
BLACK
6
CONTINUOUS
10
68.1678
20
-157.251
11
68.3107
21
-157.394
0
LINE
8
BLACK
6
CONTINUOUS
10
68.3107
20
-157.394
11
68.4535
21
-157.679
0
LINE
8
BLACK
6
CONTINUOUS
10
68.4535
20
-157.679
11
68.5964
21
-158.251
0
LINE
8
BLACK
6
CONTINUOUS
10
68.5964
20
-158.251
11
68.5964
21
-158.965
0
LINE
8
BLACK
6
CONTINUOUS
10
68.5964
20
-158.965
11
68.4535
21
-159.537
0
LINE
8
BLACK
6
CONTINUOUS
10
68.4535
20
-159.537
11
68.3107
21
-159.822
0
LINE
8
BLACK
6
CONTINUOUS
10
68.3107
20
-159.822
11
68.1678
21
-159.965
0
LINE
8
BLACK
6
CONTINUOUS
10
68.1678
20
-159.965
11
67.8821
21
-160.108
0
LINE
8
BLACK
6
CONTINUOUS
10
67.8821
20
-160.108
11
67.5964
21
-160.108
0
LINE
8
BLACK
6
CONTINUOUS
10
67.5964
20
-160.108
11
67.3107
21
-159.965
0
LINE
8
BLACK
6
CONTINUOUS
10
67.3107
20
-159.965
11
67.1678
21
-159.822
0
LINE
8
BLACK
6
CONTINUOUS
10
67.1678
20
-159.822
11
67.025
21
-159.537
0
LINE
8
BLACK
6
CONTINUOUS
10
67.025
20
-159.537
11
66.8821
21
-158.965
0
LINE
8
BLACK
6
CONTINUOUS
10
66.8821
20
-158.965
11
66.8821
21
-158.251
0
LINE
8
BLACK
6
CONTINUOUS
10
66.8821
20
-158.251
11
67.025
21
-157.679
0
LINE
8
BLACK
6
CONTINUOUS
10
67.025
20
-157.679
11
67.1678
21
-157.394
0
LINE
8
BLACK
6
CONTINUOUS
10
67.1678
20
-157.394
11
67.3107
21
-157.251
0
LINE
8
BLACK
6
CONTINUOUS
10
67.3107
20
-157.251
11
67.5964
21
-157.108
0
LINE
8
BLACK
6
CONTINUOUS
10
69.8821
20
-159.822
11
70.025
21
-159.965
0
LINE
8
BLACK
6
CONTINUOUS
10
70.025
20
-159.965
11
69.8821
21
-160.108
0
LINE
8
BLACK
6
CONTINUOUS
10
69.8821
20
-160.108
11
69.7393
21
-159.965
0
LINE
8
BLACK
6
CONTINUOUS
10
69.7393
20
-159.965
11
69.8821
21
-159.822
0
LINE
8
BLACK
6
CONTINUOUS
10
69.8821
20
-159.822
11
69.8821
21
-160.108
0
LINE
8
BLACK
6
CONTINUOUS
10
71.8821
20
-157.108
11
72.1678
21
-157.108
0
LINE
8
BLACK
6
CONTINUOUS
10
72.1678
20
-157.108
11
72.4535
21
-157.251
0
LINE
8
BLACK
6
CONTINUOUS
10
72.4535
20
-157.251
11
72.5964
21
-157.394
0
LINE
8
BLACK
6
CONTINUOUS
10
72.5964
20
-157.394
11
72.7393
21
-157.679
0
LINE
8
BLACK
6
CONTINUOUS
10
72.7393
20
-157.679
11
72.8821
21
-158.251
0
LINE
8
BLACK
6
CONTINUOUS
10
72.8821
20
-158.251
11
72.8821
21
-158.965
0
LINE
8
BLACK
6
CONTINUOUS
10
72.8821
20
-158.965
11
72.7393
21
-159.537
0
LINE
8
BLACK
6
CONTINUOUS
10
72.7393
20
-159.537
11
72.5964
21
-159.822
0
LINE
8
BLACK
6
CONTINUOUS
10
72.5964
20
-159.822
11
72.4535
21
-159.965
0
LINE
8
BLACK
6
CONTINUOUS
10
72.4535
20
-159.965
11
72.1678
21
-160.108
0
LINE
8
BLACK
6
CONTINUOUS
10
72.1678
20
-160.108
11
71.8821
21
-160.108
0
LINE
8
BLACK
6
CONTINUOUS
10
71.8821
20
-160.108
11
71.5964
21
-159.965
0
LINE
8
BLACK
6
CONTINUOUS
10
71.5964
20
-159.965
11
71.4535
21
-159.822
0
LINE
8
BLACK
6
CONTINUOUS
10
71.4535
20
-159.822
11
71.3107
21
-159.537
0
LINE
8
BLACK
6
CONTINUOUS
10
71.3107
20
-159.537
11
71.1678
21
-158.965
0
LINE
8
BLACK
6
CONTINUOUS
10
71.1678
20
-158.965
11
71.1678
21
-158.251
0
LINE
8
BLACK
6
CONTINUOUS
10
71.1678
20
-158.251
11
71.3107
21
-157.679
0
LINE
8
BLACK
6
CONTINUOUS
10
71.3107
20
-157.679
11
71.4535
21
-157.394
0
LINE
8
BLACK
6
CONTINUOUS
10
71.4535
20
-157.394
11
71.5964
21
-157.251
0
LINE
8
BLACK
6
CONTINUOUS
10
71.5964
20
-157.251
11
71.8821
21
-157.108
0
LINE
8
BLACK
6
CONTINUOUS
10
75.4535
20
-158.108
11
75.4535
21
-160.108
0
LINE
8
BLACK
6
CONTINUOUS
10
74.7393
20
-156.965
11
74.025
21
-159.108
0
LINE
8
BLACK
6
CONTINUOUS
10
74.025
20
-159.108
11
75.8821
21
-159.108
0
LINE
8
BLACK
6
CONTINUOUS
10
76.7393
20
-157.108
11
78.7393
21
-157.108
0
LINE
8
BLACK
6
CONTINUOUS
10
78.7393
20
-157.108
11
77.4535
21
-160.108
0
LINE
8
BLACK
6
CONTINUOUS
10
79.7393
20
-157.108
11
79.7393
21
-157.679
0
LINE
8
BLACK
6
CONTINUOUS
10
80.8821
20
-157.108
11
80.8821
21
-157.679
0
LINE
8
BLACK
6
CONTINUOUS
10
85.3107
20
-161.251
11
85.1678
21
-161.108
0
LINE
8
BLACK
6
CONTINUOUS
10
85.1678
20
-161.108
11
84.8821
21
-160.679
0
LINE
8
BLACK
6
CONTINUOUS
10
84.8821
20
-160.679
11
84.7393
21
-160.394
0
LINE
8
BLACK
6
CONTINUOUS
10
84.7393
20
-160.394
11
84.5964
21
-159.965
0
LINE
8
BLACK
6
CONTINUOUS
10
84.5964
20
-159.965
11
84.4535
21
-159.251
0
LINE
8
BLACK
6
CONTINUOUS
10
84.4535
20
-159.251
11
84.4535
21
-158.679
0
LINE
8
BLACK
6
CONTINUOUS
10
84.4535
20
-158.679
11
84.5964
21
-157.965
0
LINE
8
BLACK
6
CONTINUOUS
10
84.5964
20
-157.965
11
84.7393
21
-157.537
0
LINE
8
BLACK
6
CONTINUOUS
10
84.7393
20
-157.537
11
84.8821
21
-157.251
0
LINE
8
BLACK
6
CONTINUOUS
10
84.8821
20
-157.251
11
85.1678
21
-156.822
0
LINE
8
BLACK
6
CONTINUOUS
10
85.1678
20
-156.822
11
85.3107
21
-156.679
0
LINE
8
BLACK
6
CONTINUOUS
10
88.025
20
-160.108
11
86.3107
21
-160.108
0
LINE
8
BLACK
6
CONTINUOUS
10
87.1678
20
-160.108
11
87.1678
21
-157.108
0
LINE
8
BLACK
6
CONTINUOUS
10
87.1678
20
-157.108
11
86.8821
21
-157.537
0
LINE
8
BLACK
6
CONTINUOUS
10
86.8821
20
-157.537
11
86.5964
21
-157.822
0
LINE
8
BLACK
6
CONTINUOUS
10
86.5964
20
-157.822
11
86.3107
21
-157.965
0
LINE
8
BLACK
6
CONTINUOUS
10
89.8821
20
-157.108
11
90.1678
21
-157.108
0
LINE
8
BLACK
6
CONTINUOUS
10
90.1678
20
-157.108
11
90.4535
21
-157.251
0
LINE
8
BLACK
6
CONTINUOUS
10
90.4535
20
-157.251
11
90.5964
21
-157.394
0
LINE
8
BLACK
6
CONTINUOUS
10
90.5964
20
-157.394
11
90.7393
21
-157.679
0
LINE
8
BLACK
6
CONTINUOUS
10
90.7393
20
-157.679
11
90.8821
21
-158.251
0
LINE
8
BLACK
6
CONTINUOUS
10
90.8821
20
-158.251
11
90.8821
21
-158.965
0
LINE
8
BLACK
6
CONTINUOUS
10
90.8821
20
-158.965
11
90.7393
21
-159.537
0
LINE
8
BLACK
6
CONTINUOUS
10
90.7393
20
-159.537
11
90.5964
21
-159.822
0
LINE
8
BLACK
6
CONTINUOUS
10
90.5964
20
-159.822
11
90.4535
21
-159.965
0
LINE
8
BLACK
6
CONTINUOUS
10
90.4535
20
-159.965
11
90.1678
21
-160.108
0
LINE
8
BLACK
6
CONTINUOUS
10
90.1678
20
-160.108
11
89.8821
21
-160.108
0
LINE
8
BLACK
6
CONTINUOUS
10
89.8821
20
-160.108
11
89.5964
21
-159.965
0
LINE
8
BLACK
6
CONTINUOUS
10
89.5964
20
-159.965
11
89.4535
21
-159.822
0
LINE
8
BLACK
6
CONTINUOUS
10
89.4535
20
-159.822
11
89.3107
21
-159.537
0
LINE
8
BLACK
6
CONTINUOUS
10
89.3107
20
-159.537
11
89.1678
21
-158.965
0
LINE
8
BLACK
6
CONTINUOUS
10
89.1678
20
-158.965
11
89.1678
21
-158.251
0
LINE
8
BLACK
6
CONTINUOUS
10
89.1678
20
-158.251
11
89.3107
21
-157.679
0
LINE
8
BLACK
6
CONTINUOUS
10
89.3107
20
-157.679
11
89.4535
21
-157.394
0
LINE
8
BLACK
6
CONTINUOUS
10
89.4535
20
-157.394
11
89.5964
21
-157.251
0
LINE
8
BLACK
6
CONTINUOUS
10
89.5964
20
-157.251
11
89.8821
21
-157.108
0
LINE
8
BLACK
6
CONTINUOUS
10
92.5964
20
-158.394
11
92.3107
21
-158.251
0
LINE
8
BLACK
6
CONTINUOUS
10
92.3107
20
-158.251
11
92.1678
21
-158.108
0
LINE
8
BLACK
6
CONTINUOUS
10
92.1678
20
-158.108
11
92.025
21
-157.822
0
LINE
8
BLACK
6
CONTINUOUS
10
92.025
20
-157.822
11
92.025
21
-157.679
0
LINE
8
BLACK
6
CONTINUOUS
10
92.025
20
-157.679
11
92.1678
21
-157.394
0
LINE
8
BLACK
6
CONTINUOUS
10
92.1678
20
-157.394
11
92.3107
21
-157.251
0
LINE
8
BLACK
6
CONTINUOUS
10
92.3107
20
-157.251
11
92.5964
21
-157.108
0
LINE
8
BLACK
6
CONTINUOUS
10
92.5964
20
-157.108
11
93.1678
21
-157.108
0
LINE
8
BLACK
6
CONTINUOUS
10
93.1678
20
-157.108
11
93.4535
21
-157.251
0
LINE
8
BLACK
6
CONTINUOUS
10
93.4535
20
-157.251
11
93.5964
21
-157.394
0
LINE
8
BLACK
6
CONTINUOUS
10
93.5964
20
-157.394
11
93.7393
21
-157.679
0
LINE
8
BLACK
6
CONTINUOUS
10
93.7393
20
-157.679
11
93.7393
21
-157.822
0
LINE
8
BLACK
6
CONTINUOUS
10
93.7393
20
-157.822
11
93.5964
21
-158.108
0
LINE
8
BLACK
6
CONTINUOUS
10
93.5964
20
-158.108
11
93.4535
21
-158.251
0
LINE
8
BLACK
6
CONTINUOUS
10
93.4535
20
-158.251
11
93.1678
21
-158.394
0
LINE
8
BLACK
6
CONTINUOUS
10
93.1678
20
-158.394
11
92.5964
21
-158.394
0
LINE
8
BLACK
6
CONTINUOUS
10
92.5964
20
-158.394
11
92.3107
21
-158.537
0
LINE
8
BLACK
6
CONTINUOUS
10
92.3107
20
-158.537
11
92.1678
21
-158.679
0
LINE
8
BLACK
6
CONTINUOUS
10
92.1678
20
-158.679
11
92.025
21
-158.965
0
LINE
8
BLACK
6
CONTINUOUS
10
92.025
20
-158.965
11
92.025
21
-159.537
0
LINE
8
BLACK
6
CONTINUOUS
10
92.025
20
-159.537
11
92.1678
21
-159.822
0
LINE
8
BLACK
6
CONTINUOUS
10
92.1678
20
-159.822
11
92.3107
21
-159.965
0
LINE
8
BLACK
6
CONTINUOUS
10
92.3107
20
-159.965
11
92.5964
21
-160.108
0
LINE
8
BLACK
6
CONTINUOUS
10
92.5964
20
-160.108
11
93.1678
21
-160.108
0
LINE
8
BLACK
6
CONTINUOUS
10
93.1678
20
-160.108
11
93.4535
21
-159.965
0
LINE
8
BLACK
6
CONTINUOUS
10
93.4535
20
-159.965
11
93.5964
21
-159.822
0
LINE
8
BLACK
6
CONTINUOUS
10
93.5964
20
-159.822
11
93.7393
21
-159.537
0
LINE
8
BLACK
6
CONTINUOUS
10
93.7393
20
-159.537
11
93.7393
21
-158.965
0
LINE
8
BLACK
6
CONTINUOUS
10
93.7393
20
-158.965
11
93.5964
21
-158.679
0
LINE
8
BLACK
6
CONTINUOUS
10
93.5964
20
-158.679
11
93.4535
21
-158.537
0
LINE
8
BLACK
6
CONTINUOUS
10
93.4535
20
-158.537
11
93.1678
21
-158.394
0
LINE
8
BLACK
6
CONTINUOUS
10
97.3107
20
-160.108
11
97.3107
21
-157.108
0
LINE
8
BLACK
6
CONTINUOUS
10
98.5964
20
-160.108
11
98.5964
21
-158.537
0
LINE
8
BLACK
6
CONTINUOUS
10
98.5964
20
-158.537
11
98.4535
21
-158.251
0
LINE
8
BLACK
6
CONTINUOUS
10
98.4535
20
-158.251
11
98.1678
21
-158.108
0
LINE
8
BLACK
6
CONTINUOUS
10
98.1678
20
-158.108
11
97.7393
21
-158.108
0
LINE
8
BLACK
6
CONTINUOUS
10
97.7393
20
-158.108
11
97.4535
21
-158.251
0
LINE
8
BLACK
6
CONTINUOUS
10
97.4535
20
-158.251
11
97.3107
21
-158.394
0
LINE
8
BLACK
6
CONTINUOUS
10
100.454
20
-160.108
11
100.168
21
-159.965
0
LINE
8
BLACK
6
CONTINUOUS
10
100.168
20
-159.965
11
100.025
21
-159.822
0
LINE
8
BLACK
6
CONTINUOUS
10
100.025
20
-159.822
11
99.8821
21
-159.537
0
LINE
8
BLACK
6
CONTINUOUS
10
99.8821
20
-159.537
11
99.8821
21
-158.679
0
LINE
8
BLACK
6
CONTINUOUS
10
99.8821
20
-158.679
11
100.025
21
-158.394
0
LINE
8
BLACK
6
CONTINUOUS
10
100.025
20
-158.394
11
100.168
21
-158.251
0
LINE
8
BLACK
6
CONTINUOUS
10
100.168
20
-158.251
11
100.454
21
-158.108
0
LINE
8
BLACK
6
CONTINUOUS
10
100.454
20
-158.108
11
100.882
21
-158.108
0
LINE
8
BLACK
6
CONTINUOUS
10
100.882
20
-158.108
11
101.168
21
-158.251
0
LINE
8
BLACK
6
CONTINUOUS
10
101.168
20
-158.251
11
101.311
21
-158.394
0
LINE
8
BLACK
6
CONTINUOUS
10
101.311
20
-158.394
11
101.454
21
-158.679
0
LINE
8
BLACK
6
CONTINUOUS
10
101.454
20
-158.679
11
101.454
21
-159.537
0
LINE
8
BLACK
6
CONTINUOUS
10
101.454
20
-159.537
11
101.311
21
-159.822
0
LINE
8
BLACK
6
CONTINUOUS
10
101.311
20
-159.822
11
101.168
21
-159.965
0
LINE
8
BLACK
6
CONTINUOUS
10
101.168
20
-159.965
11
100.882
21
-160.108
0
LINE
8
BLACK
6
CONTINUOUS
10
100.882
20
-160.108
11
100.454
21
-160.108
0
LINE
8
BLACK
6
CONTINUOUS
10
103.168
20
-160.108
11
102.882
21
-159.965
0
LINE
8
BLACK
6
CONTINUOUS
10
102.882
20
-159.965
11
102.739
21
-159.679
0
LINE
8
BLACK
6
CONTINUOUS
10
102.739
20
-159.679
11
102.739
21
-157.108
0
LINE
8
BLACK
6
CONTINUOUS
10
105.454
20
-159.965
11
105.168
21
-160.108
0
LINE
8
BLACK
6
CONTINUOUS
10
105.168
20
-160.108
11
104.596
21
-160.108
0
LINE
8
BLACK
6
CONTINUOUS
10
104.596
20
-160.108
11
104.311
21
-159.965
0
LINE
8
BLACK
6
CONTINUOUS
10
104.311
20
-159.965
11
104.168
21
-159.679
0
LINE
8
BLACK
6
CONTINUOUS
10
104.168
20
-159.679
11
104.168
21
-158.537
0
LINE
8
BLACK
6
CONTINUOUS
10
104.168
20
-158.537
11
104.311
21
-158.251
0
LINE
8
BLACK
6
CONTINUOUS
10
104.311
20
-158.251
11
104.596
21
-158.108
0
LINE
8
BLACK
6
CONTINUOUS
10
104.596
20
-158.108
11
105.168
21
-158.108
0
LINE
8
BLACK
6
CONTINUOUS
10
105.168
20
-158.108
11
105.454
21
-158.251
0
LINE
8
BLACK
6
CONTINUOUS
10
105.454
20
-158.251
11
105.596
21
-158.537
0
LINE
8
BLACK
6
CONTINUOUS
10
105.596
20
-158.537
11
105.596
21
-158.822
0
LINE
8
BLACK
6
CONTINUOUS
10
105.596
20
-158.822
11
104.168
21
-159.108
0
LINE
8
BLACK
6
CONTINUOUS
10
106.739
20
-159.965
11
107.025
21
-160.108
0
LINE
8
BLACK
6
CONTINUOUS
10
107.025
20
-160.108
11
107.596
21
-160.108
0
LINE
8
BLACK
6
CONTINUOUS
10
107.596
20
-160.108
11
107.882
21
-159.965
0
LINE
8
BLACK
6
CONTINUOUS
10
107.882
20
-159.965
11
108.025
21
-159.679
0
LINE
8
BLACK
6
CONTINUOUS
10
108.025
20
-159.679
11
108.025
21
-159.537
0
LINE
8
BLACK
6
CONTINUOUS
10
108.025
20
-159.537
11
107.882
21
-159.251
0
LINE
8
BLACK
6
CONTINUOUS
10
107.882
20
-159.251
11
107.596
21
-159.108
0
LINE
8
BLACK
6
CONTINUOUS
10
107.596
20
-159.108
11
107.168
21
-159.108
0
LINE
8
BLACK
6
CONTINUOUS
10
107.168
20
-159.108
11
106.882
21
-158.965
0
LINE
8
BLACK
6
CONTINUOUS
10
106.882
20
-158.965
11
106.739
21
-158.679
0
LINE
8
BLACK
6
CONTINUOUS
10
106.739
20
-158.679
11
106.739
21
-158.537
0
LINE
8
BLACK
6
CONTINUOUS
10
106.739
20
-158.537
11
106.882
21
-158.251
0
LINE
8
BLACK
6
CONTINUOUS
10
106.882
20
-158.251
11
107.168
21
-158.108
0
LINE
8
BLACK
6
CONTINUOUS
10
107.168
20
-158.108
11
107.596
21
-158.108
0
LINE
8
BLACK
6
CONTINUOUS
10
107.596
20
-158.108
11
107.882
21
-158.251
0
LINE
8
BLACK
6
CONTINUOUS
10
109.025
20
-161.251
11
109.168
21
-161.108
0
LINE
8
BLACK
6
CONTINUOUS
10
109.168
20
-161.108
11
109.454
21
-160.679
0
LINE
8
BLACK
6
CONTINUOUS
10
109.454
20
-160.679
11
109.596
21
-160.394
0
LINE
8
BLACK
6
CONTINUOUS
10
109.596
20
-160.394
11
109.739
21
-159.965
0
LINE
8
BLACK
6
CONTINUOUS
10
109.739
20
-159.965
11
109.882
21
-159.251
0
LINE
8
BLACK
6
CONTINUOUS
10
109.882
20
-159.251
11
109.882
21
-158.679
0
LINE
8
BLACK
6
CONTINUOUS
10
109.882
20
-158.679
11
109.739
21
-157.965
0
LINE
8
BLACK
6
CONTINUOUS
10
109.739
20
-157.965
11
109.596
21
-157.537
0
LINE
8
BLACK
6
CONTINUOUS
10
109.596
20
-157.537
11
109.454
21
-157.251
0
LINE
8
BLACK
6
CONTINUOUS
10
109.454
20
-157.251
11
109.168
21
-156.822
0
LINE
8
BLACK
6
CONTINUOUS
10
109.168
20
-156.822
11
109.025
21
-156.679
0
LINE
8
BLACK
6
CONTINUOUS
10
37.7464
20
-163.411
11
38.4464
21
-162.711
0
LINE
8
BLACK
6
CONTINUOUS
10
38.4464
20
-162.711
11
37.7464
21
-162.011
0
LINE
8
BLACK
6
CONTINUOUS
10
37.7464
20
-162.011
11
37.0464
21
-162.711
0
LINE
8
BLACK
6
CONTINUOUS
10
37.0464
20
-162.711
11
37.7464
21
-163.411
0
LINE
8
BLACK
6
CONTINUOUS
10
42.8821
20
-164.068
11
41.1678
21
-164.068
0
LINE
8
BLACK
6
CONTINUOUS
10
42.025
20
-164.068
11
42.025
21
-161.068
0
LINE
8
BLACK
6
CONTINUOUS
10
42.025
20
-161.068
11
41.7393
21
-161.497
0
LINE
8
BLACK
6
CONTINUOUS
10
41.7393
20
-161.497
11
41.4535
21
-161.782
0
LINE
8
BLACK
6
CONTINUOUS
10
41.4535
20
-161.782
11
41.1678
21
-161.925
0
LINE
8
BLACK
6
CONTINUOUS
10
44.1678
20
-163.782
11
44.3107
21
-163.925
0
LINE
8
BLACK
6
CONTINUOUS
10
44.3107
20
-163.925
11
44.1678
21
-164.068
0
LINE
8
BLACK
6
CONTINUOUS
10
44.1678
20
-164.068
11
44.025
21
-163.925
0
LINE
8
BLACK
6
CONTINUOUS
10
44.025
20
-163.925
11
44.1678
21
-163.782
0
LINE
8
BLACK
6
CONTINUOUS
10
44.1678
20
-163.782
11
44.1678
21
-164.068
0
LINE
8
BLACK
6
CONTINUOUS
10
46.8821
20
-162.068
11
46.8821
21
-164.068
0
LINE
8
BLACK
6
CONTINUOUS
10
46.1678
20
-160.925
11
45.4535
21
-163.068
0
LINE
8
BLACK
6
CONTINUOUS
10
45.4535
20
-163.068
11
47.3107
21
-163.068
0
LINE
8
BLACK
6
CONTINUOUS
10
49.025
20
-161.068
11
49.3107
21
-161.068
0
LINE
8
BLACK
6
CONTINUOUS
10
49.3107
20
-161.068
11
49.5964
21
-161.211
0
LINE
8
BLACK
6
CONTINUOUS
10
49.5964
20
-161.211
11
49.7393
21
-161.354
0
LINE
8
BLACK
6
CONTINUOUS
10
49.7393
20
-161.354
11
49.8821
21
-161.639
0
LINE
8
BLACK
6
CONTINUOUS
10
49.8821
20
-161.639
11
50.025
21
-162.211
0
LINE
8
BLACK
6
CONTINUOUS
10
50.025
20
-162.211
11
50.025
21
-162.925
0
LINE
8
BLACK
6
CONTINUOUS
10
50.025
20
-162.925
11
49.8821
21
-163.497
0
LINE
8
BLACK
6
CONTINUOUS
10
49.8821
20
-163.497
11
49.7393
21
-163.782
0
LINE
8
BLACK
6
CONTINUOUS
10
49.7393
20
-163.782
11
49.5964
21
-163.925
0
LINE
8
BLACK
6
CONTINUOUS
10
49.5964
20
-163.925
11
49.3107
21
-164.068
0
LINE
8
BLACK
6
CONTINUOUS
10
49.3107
20
-164.068
11
49.025
21
-164.068
0
LINE
8
BLACK
6
CONTINUOUS
10
49.025
20
-164.068
11
48.7393
21
-163.925
0
LINE
8
BLACK
6
CONTINUOUS
10
48.7393
20
-163.925
11
48.5964
21
-163.782
0
LINE
8
BLACK
6
CONTINUOUS
10
48.5964
20
-163.782
11
48.4535
21
-163.497
0
LINE
8
BLACK
6
CONTINUOUS
10
48.4535
20
-163.497
11
48.3107
21
-162.925
0
LINE
8
BLACK
6
CONTINUOUS
10
48.3107
20
-162.925
11
48.3107
21
-162.211
0
LINE
8
BLACK
6
CONTINUOUS
10
48.3107
20
-162.211
11
48.4535
21
-161.639
0
LINE
8
BLACK
6
CONTINUOUS
10
48.4535
20
-161.639
11
48.5964
21
-161.354
0
LINE
8
BLACK
6
CONTINUOUS
10
48.5964
20
-161.354
11
48.7393
21
-161.211
0
LINE
8
BLACK
6
CONTINUOUS
10
48.7393
20
-161.211
11
49.025
21
-161.068
0
LINE
8
BLACK
6
CONTINUOUS
10
51.3107
20
-164.068
11
51.3107
21
-162.068
0
LINE
8
BLACK
6
CONTINUOUS
10
51.3107
20
-162.354
11
51.4535
21
-162.211
0
LINE
8
BLACK
6
CONTINUOUS
10
51.4535
20
-162.211
11
51.7393
21
-162.068
0
LINE
8
BLACK
6
CONTINUOUS
10
51.7393
20
-162.068
11
52.1678
21
-162.068
0
LINE
8
BLACK
6
CONTINUOUS
10
52.1678
20
-162.068
11
52.4535
21
-162.211
0
LINE
8
BLACK
6
CONTINUOUS
10
52.4535
20
-162.211
11
52.5964
21
-162.497
0
LINE
8
BLACK
6
CONTINUOUS
10
52.5964
20
-162.497
11
52.5964
21
-164.068
0
LINE
8
BLACK
6
CONTINUOUS
10
52.5964
20
-162.497
11
52.7393
21
-162.211
0
LINE
8
BLACK
6
CONTINUOUS
10
52.7393
20
-162.211
11
53.025
21
-162.068
0
LINE
8
BLACK
6
CONTINUOUS
10
53.025
20
-162.068
11
53.4535
21
-162.068
0
LINE
8
BLACK
6
CONTINUOUS
10
53.4535
20
-162.068
11
53.7393
21
-162.211
0
LINE
8
BLACK
6
CONTINUOUS
10
53.7393
20
-162.211
11
53.8821
21
-162.497
0
LINE
8
BLACK
6
CONTINUOUS
10
53.8821
20
-162.497
11
53.8821
21
-164.068
0
LINE
8
BLACK
6
CONTINUOUS
10
55.3107
20
-164.068
11
55.3107
21
-162.068
0
LINE
8
BLACK
6
CONTINUOUS
10
55.3107
20
-162.354
11
55.4535
21
-162.211
0
LINE
8
BLACK
6
CONTINUOUS
10
55.4535
20
-162.211
11
55.7393
21
-162.068
0
LINE
8
BLACK
6
CONTINUOUS
10
55.7393
20
-162.068
11
56.1678
21
-162.068
0
LINE
8
BLACK
6
CONTINUOUS
10
56.1678
20
-162.068
11
56.4535
21
-162.211
0
LINE
8
BLACK
6
CONTINUOUS
10
56.4535
20
-162.211
11
56.5964
21
-162.497
0
LINE
8
BLACK
6
CONTINUOUS
10
56.5964
20
-162.497
11
56.5964
21
-164.068
0
LINE
8
BLACK
6
CONTINUOUS
10
56.5964
20
-162.497
11
56.7393
21
-162.211
0
LINE
8
BLACK
6
CONTINUOUS
10
56.7393
20
-162.211
11
57.025
21
-162.068
0
LINE
8
BLACK
6
CONTINUOUS
10
57.025
20
-162.068
11
57.4535
21
-162.068
0
LINE
8
BLACK
6
CONTINUOUS
10
57.4535
20
-162.068
11
57.7393
21
-162.211
0
LINE
8
BLACK
6
CONTINUOUS
10
57.7393
20
-162.211
11
57.8821
21
-162.497
0
LINE
8
BLACK
6
CONTINUOUS
10
57.8821
20
-162.497
11
57.8821
21
-164.068
0
LINE
8
BLACK
6
CONTINUOUS
10
63.7393
20
-160.925
11
61.1678
21
-164.782
0
LINE
8
BLACK
6
CONTINUOUS
10
67.5964
20
-161.068
11
67.8821
21
-161.068
0
LINE
8
BLACK
6
CONTINUOUS
10
67.8821
20
-161.068
11
68.1678
21
-161.211
0
LINE
8
BLACK
6
CONTINUOUS
10
68.1678
20
-161.211
11
68.3107
21
-161.354
0
LINE
8
BLACK
6
CONTINUOUS
10
68.3107
20
-161.354
11
68.4535
21
-161.639
0
LINE
8
BLACK
6
CONTINUOUS
10
68.4535
20
-161.639
11
68.5964
21
-162.211
0
LINE
8
BLACK
6
CONTINUOUS
10
68.5964
20
-162.211
11
68.5964
21
-162.925
0
LINE
8
BLACK
6
CONTINUOUS
10
68.5964
20
-162.925
11
68.4535
21
-163.497
0
LINE
8
BLACK
6
CONTINUOUS
10
68.4535
20
-163.497
11
68.3107
21
-163.782
0
LINE
8
BLACK
6
CONTINUOUS
10
68.3107
20
-163.782
11
68.1678
21
-163.925
0
LINE
8
BLACK
6
CONTINUOUS
10
68.1678
20
-163.925
11
67.8821
21
-164.068
0
LINE
8
BLACK
6
CONTINUOUS
10
67.8821
20
-164.068
11
67.5964
21
-164.068
0
LINE
8
BLACK
6
CONTINUOUS
10
67.5964
20
-164.068
11
67.3107
21
-163.925
0
LINE
8
BLACK
6
CONTINUOUS
10
67.3107
20
-163.925
11
67.1678
21
-163.782
0
LINE
8
BLACK
6
CONTINUOUS
10
67.1678
20
-163.782
11
67.025
21
-163.497
0
LINE
8
BLACK
6
CONTINUOUS
10
67.025
20
-163.497
11
66.8821
21
-162.925
0
LINE
8
BLACK
6
CONTINUOUS
10
66.8821
20
-162.925
11
66.8821
21
-162.211
0
LINE
8
BLACK
6
CONTINUOUS
10
66.8821
20
-162.211
11
67.025
21
-161.639
0
LINE
8
BLACK
6
CONTINUOUS
10
67.025
20
-161.639
11
67.1678
21
-161.354
0
LINE
8
BLACK
6
CONTINUOUS
10
67.1678
20
-161.354
11
67.3107
21
-161.211
0
LINE
8
BLACK
6
CONTINUOUS
10
67.3107
20
-161.211
11
67.5964
21
-161.068
0
LINE
8
BLACK
6
CONTINUOUS
10
69.8821
20
-163.782
11
70.025
21
-163.925
0
LINE
8
BLACK
6
CONTINUOUS
10
70.025
20
-163.925
11
69.8821
21
-164.068
0
LINE
8
BLACK
6
CONTINUOUS
10
69.8821
20
-164.068
11
69.7393
21
-163.925
0
LINE
8
BLACK
6
CONTINUOUS
10
69.7393
20
-163.925
11
69.8821
21
-163.782
0
LINE
8
BLACK
6
CONTINUOUS
10
69.8821
20
-163.782
11
69.8821
21
-164.068
0
LINE
8
BLACK
6
CONTINUOUS
10
71.8821
20
-161.068
11
72.1678
21
-161.068
0
LINE
8
BLACK
6
CONTINUOUS
10
72.1678
20
-161.068
11
72.4535
21
-161.211
0
LINE
8
BLACK
6
CONTINUOUS
10
72.4535
20
-161.211
11
72.5964
21
-161.354
0
LINE
8
BLACK
6
CONTINUOUS
10
72.5964
20
-161.354
11
72.7393
21
-161.639
0
LINE
8
BLACK
6
CONTINUOUS
10
72.7393
20
-161.639
11
72.8821
21
-162.211
0
LINE
8
BLACK
6
CONTINUOUS
10
72.8821
20
-162.211
11
72.8821
21
-162.925
0
LINE
8
BLACK
6
CONTINUOUS
10
72.8821
20
-162.925
11
72.7393
21
-163.497
0
LINE
8
BLACK
6
CONTINUOUS
10
72.7393
20
-163.497
11
72.5964
21
-163.782
0
LINE
8
BLACK
6
CONTINUOUS
10
72.5964
20
-163.782
11
72.4535
21
-163.925
0
LINE
8
BLACK
6
CONTINUOUS
10
72.4535
20
-163.925
11
72.1678
21
-164.068
0
LINE
8
BLACK
6
CONTINUOUS
10
72.1678
20
-164.068
11
71.8821
21
-164.068
0
LINE
8
BLACK
6
CONTINUOUS
10
71.8821
20
-164.068
11
71.5964
21
-163.925
0
LINE
8
BLACK
6
CONTINUOUS
10
71.5964
20
-163.925
11
71.4535
21
-163.782
0
LINE
8
BLACK
6
CONTINUOUS
10
71.4535
20
-163.782
11
71.3107
21
-163.497
0
LINE
8
BLACK
6
CONTINUOUS
10
71.3107
20
-163.497
11
71.1678
21
-162.925
0
LINE
8
BLACK
6
CONTINUOUS
10
71.1678
20
-162.925
11
71.1678
21
-162.211
0
LINE
8
BLACK
6
CONTINUOUS
10
71.1678
20
-162.211
11
71.3107
21
-161.639
0
LINE
8
BLACK
6
CONTINUOUS
10
71.3107
20
-161.639
11
71.4535
21
-161.354
0
LINE
8
BLACK
6
CONTINUOUS
10
71.4535
20
-161.354
11
71.5964
21
-161.211
0
LINE
8
BLACK
6
CONTINUOUS
10
71.5964
20
-161.211
11
71.8821
21
-161.068
0
LINE
8
BLACK
6
CONTINUOUS
10
75.5964
20
-161.068
11
74.1678
21
-161.068
0
LINE
8
BLACK
6
CONTINUOUS
10
74.1678
20
-161.068
11
74.025
21
-162.497
0
LINE
8
BLACK
6
CONTINUOUS
10
74.025
20
-162.497
11
74.1678
21
-162.354
0
LINE
8
BLACK
6
CONTINUOUS
10
74.1678
20
-162.354
11
74.4535
21
-162.211
0
LINE
8
BLACK
6
CONTINUOUS
10
74.4535
20
-162.211
11
75.1678
21
-162.211
0
LINE
8
BLACK
6
CONTINUOUS
10
75.1678
20
-162.211
11
75.4535
21
-162.354
0
LINE
8
BLACK
6
CONTINUOUS
10
75.4535
20
-162.354
11
75.5964
21
-162.497
0
LINE
8
BLACK
6
CONTINUOUS
10
75.5964
20
-162.497
11
75.7393
21
-162.782
0
LINE
8
BLACK
6
CONTINUOUS
10
75.7393
20
-162.782
11
75.7393
21
-163.497
0
LINE
8
BLACK
6
CONTINUOUS
10
75.7393
20
-163.497
11
75.5964
21
-163.782
0
LINE
8
BLACK
6
CONTINUOUS
10
75.5964
20
-163.782
11
75.4535
21
-163.925
0
LINE
8
BLACK
6
CONTINUOUS
10
75.4535
20
-163.925
11
75.1678
21
-164.068
0
LINE
8
BLACK
6
CONTINUOUS
10
75.1678
20
-164.068
11
74.4535
21
-164.068
0
LINE
8
BLACK
6
CONTINUOUS
10
74.4535
20
-164.068
11
74.1678
21
-163.925
0
LINE
8
BLACK
6
CONTINUOUS
10
74.1678
20
-163.925
11
74.025
21
-163.782
0
LINE
8
BLACK
6
CONTINUOUS
10
78.4535
20
-161.068
11
77.025
21
-161.068
0
LINE
8
BLACK
6
CONTINUOUS
10
77.025
20
-161.068
11
76.8821
21
-162.497
0
LINE
8
BLACK
6
CONTINUOUS
10
76.8821
20
-162.497
11
77.025
21
-162.354
0
LINE
8
BLACK
6
CONTINUOUS
10
77.025
20
-162.354
11
77.3107
21
-162.211
0
LINE
8
BLACK
6
CONTINUOUS
10
77.3107
20
-162.211
11
78.025
21
-162.211
0
LINE
8
BLACK
6
CONTINUOUS
10
78.025
20
-162.211
11
78.3107
21
-162.354
0
LINE
8
BLACK
6
CONTINUOUS
10
78.3107
20
-162.354
11
78.4535
21
-162.497
0
LINE
8
BLACK
6
CONTINUOUS
10
78.4535
20
-162.497
11
78.5964
21
-162.782
0
LINE
8
BLACK
6
CONTINUOUS
10
78.5964
20
-162.782
11
78.5964
21
-163.497
0
LINE
8
BLACK
6
CONTINUOUS
10
78.5964
20
-163.497
11
78.4535
21
-163.782
0
LINE
8
BLACK
6
CONTINUOUS
10
78.4535
20
-163.782
11
78.3107
21
-163.925
0
LINE
8
BLACK
6
CONTINUOUS
10
78.3107
20
-163.925
11
78.025
21
-164.068
0
LINE
8
BLACK
6
CONTINUOUS
10
78.025
20
-164.068
11
77.3107
21
-164.068
0
LINE
8
BLACK
6
CONTINUOUS
10
77.3107
20
-164.068
11
77.025
21
-163.925
0
LINE
8
BLACK
6
CONTINUOUS
10
77.025
20
-163.925
11
76.8821
21
-163.782
0
LINE
8
BLACK
6
CONTINUOUS
10
79.7393
20
-161.068
11
79.7393
21
-161.639
0
LINE
8
BLACK
6
CONTINUOUS
10
80.8821
20
-161.068
11
80.8821
21
-161.639
0
LINE
8
BLACK
6
CONTINUOUS
10
85.3107
20
-165.211
11
85.1678
21
-165.068
0
LINE
8
BLACK
6
CONTINUOUS
10
85.1678
20
-165.068
11
84.8821
21
-164.639
0
LINE
8
BLACK
6
CONTINUOUS
10
84.8821
20
-164.639
11
84.7393
21
-164.354
0
LINE
8
BLACK
6
CONTINUOUS
10
84.7393
20
-164.354
11
84.5964
21
-163.925
0
LINE
8
BLACK
6
CONTINUOUS
10
84.5964
20
-163.925
11
84.4535
21
-163.211
0
LINE
8
BLACK
6
CONTINUOUS
10
84.4535
20
-163.211
11
84.4535
21
-162.639
0
LINE
8
BLACK
6
CONTINUOUS
10
84.4535
20
-162.639
11
84.5964
21
-161.925
0
LINE
8
BLACK
6
CONTINUOUS
10
84.5964
20
-161.925
11
84.7393
21
-161.497
0
LINE
8
BLACK
6
CONTINUOUS
10
84.7393
20
-161.497
11
84.8821
21
-161.211
0
LINE
8
BLACK
6
CONTINUOUS
10
84.8821
20
-161.211
11
85.1678
21
-160.782
0
LINE
8
BLACK
6
CONTINUOUS
10
85.1678
20
-160.782
11
85.3107
21
-160.639
0
LINE
8
BLACK
6
CONTINUOUS
10
88.025
20
-164.068
11
86.3107
21
-164.068
0
LINE
8
BLACK
6
CONTINUOUS
10
87.1678
20
-164.068
11
87.1678
21
-161.068
0
LINE
8
BLACK
6
CONTINUOUS
10
87.1678
20
-161.068
11
86.8821
21
-161.497
0
LINE
8
BLACK
6
CONTINUOUS
10
86.8821
20
-161.497
11
86.5964
21
-161.782
0
LINE
8
BLACK
6
CONTINUOUS
10
86.5964
20
-161.782
11
86.3107
21
-161.925
0
LINE
8
BLACK
6
CONTINUOUS
10
90.5964
20
-161.068
11
90.025
21
-161.068
0
LINE
8
BLACK
6
CONTINUOUS
10
90.025
20
-161.068
11
89.7393
21
-161.211
0
LINE
8
BLACK
6
CONTINUOUS
10
89.7393
20
-161.211
11
89.5964
21
-161.354
0
LINE
8
BLACK
6
CONTINUOUS
10
89.5964
20
-161.354
11
89.3107
21
-161.782
0
LINE
8
BLACK
6
CONTINUOUS
10
89.3107
20
-161.782
11
89.1678
21
-162.354
0
LINE
8
BLACK
6
CONTINUOUS
10
89.1678
20
-162.354
11
89.1678
21
-163.497
0
LINE
8
BLACK
6
CONTINUOUS
10
89.1678
20
-163.497
11
89.3107
21
-163.782
0
LINE
8
BLACK
6
CONTINUOUS
10
89.3107
20
-163.782
11
89.4535
21
-163.925
0
LINE
8
BLACK
6
CONTINUOUS
10
89.4535
20
-163.925
11
89.7393
21
-164.068
0
LINE
8
BLACK
6
CONTINUOUS
10
89.7393
20
-164.068
11
90.3107
21
-164.068
0
LINE
8
BLACK
6
CONTINUOUS
10
90.3107
20
-164.068
11
90.5964
21
-163.925
0
LINE
8
BLACK
6
CONTINUOUS
10
90.5964
20
-163.925
11
90.7393
21
-163.782
0
LINE
8
BLACK
6
CONTINUOUS
10
90.7393
20
-163.782
11
90.8821
21
-163.497
0
LINE
8
BLACK
6
CONTINUOUS
10
90.8821
20
-163.497
11
90.8821
21
-162.782
0
LINE
8
BLACK
6
CONTINUOUS
10
90.8821
20
-162.782
11
90.7393
21
-162.497
0
LINE
8
BLACK
6
CONTINUOUS
10
90.7393
20
-162.497
11
90.5964
21
-162.354
0
LINE
8
BLACK
6
CONTINUOUS
10
90.5964
20
-162.354
11
90.3107
21
-162.211
0
LINE
8
BLACK
6
CONTINUOUS
10
90.3107
20
-162.211
11
89.7393
21
-162.211
0
LINE
8
BLACK
6
CONTINUOUS
10
89.7393
20
-162.211
11
89.4535
21
-162.354
0
LINE
8
BLACK
6
CONTINUOUS
10
89.4535
20
-162.354
11
89.3107
21
-162.497
0
LINE
8
BLACK
6
CONTINUOUS
10
89.3107
20
-162.497
11
89.1678
21
-162.782
0
LINE
8
BLACK
6
CONTINUOUS
10
94.4535
20
-164.068
11
94.4535
21
-161.068
0
LINE
8
BLACK
6
CONTINUOUS
10
95.7393
20
-164.068
11
95.7393
21
-162.497
0
LINE
8
BLACK
6
CONTINUOUS
10
95.7393
20
-162.497
11
95.5964
21
-162.211
0
LINE
8
BLACK
6
CONTINUOUS
10
95.5964
20
-162.211
11
95.3107
21
-162.068
0
LINE
8
BLACK
6
CONTINUOUS
10
95.3107
20
-162.068
11
94.8821
21
-162.068
0
LINE
8
BLACK
6
CONTINUOUS
10
94.8821
20
-162.068
11
94.5964
21
-162.211
0
LINE
8
BLACK
6
CONTINUOUS
10
94.5964
20
-162.211
11
94.4535
21
-162.354
0
LINE
8
BLACK
6
CONTINUOUS
10
97.5964
20
-164.068
11
97.3107
21
-163.925
0
LINE
8
BLACK
6
CONTINUOUS
10
97.3107
20
-163.925
11
97.1678
21
-163.782
0
LINE
8
BLACK
6
CONTINUOUS
10
97.1678
20
-163.782
11
97.025
21
-163.497
0
LINE
8
BLACK
6
CONTINUOUS
10
97.025
20
-163.497
11
97.025
21
-162.639
0
LINE
8
BLACK
6
CONTINUOUS
10
97.025
20
-162.639
11
97.1678
21
-162.354
0
LINE
8
BLACK
6
CONTINUOUS
10
97.1678
20
-162.354
11
97.3107
21
-162.211
0
LINE
8
BLACK
6
CONTINUOUS
10
97.3107
20
-162.211
11
97.5964
21
-162.068
0
LINE
8
BLACK
6
CONTINUOUS
10
97.5964
20
-162.068
11
98.025
21
-162.068
0
LINE
8
BLACK
6
CONTINUOUS
10
98.025
20
-162.068
11
98.3107
21
-162.211
0
LINE
8
BLACK
6
CONTINUOUS
10
98.3107
20
-162.211
11
98.4535
21
-162.354
0
LINE
8
BLACK
6
CONTINUOUS
10
98.4535
20
-162.354
11
98.5964
21
-162.639
0
LINE
8
BLACK
6
CONTINUOUS
10
98.5964
20
-162.639
11
98.5964
21
-163.497
0
LINE
8
BLACK
6
CONTINUOUS
10
98.5964
20
-163.497
11
98.4535
21
-163.782
0
LINE
8
BLACK
6
CONTINUOUS
10
98.4535
20
-163.782
11
98.3107
21
-163.925
0
LINE
8
BLACK
6
CONTINUOUS
10
98.3107
20
-163.925
11
98.025
21
-164.068
0
LINE
8
BLACK
6
CONTINUOUS
10
98.025
20
-164.068
11
97.5964
21
-164.068
0
LINE
8
BLACK
6
CONTINUOUS
10
100.311
20
-164.068
11
100.025
21
-163.925
0
LINE
8
BLACK
6
CONTINUOUS
10
100.025
20
-163.925
11
99.8821
21
-163.639
0
LINE
8
BLACK
6
CONTINUOUS
10
99.8821
20
-163.639
11
99.8821
21
-161.068
0
LINE
8
BLACK
6
CONTINUOUS
10
102.596
20
-163.925
11
102.311
21
-164.068
0
LINE
8
BLACK
6
CONTINUOUS
10
102.311
20
-164.068
11
101.739
21
-164.068
0
LINE
8
BLACK
6
CONTINUOUS
10
101.739
20
-164.068
11
101.454
21
-163.925
0
LINE
8
BLACK
6
CONTINUOUS
10
101.454
20
-163.925
11
101.311
21
-163.639
0
LINE
8
BLACK
6
CONTINUOUS
10
101.311
20
-163.639
11
101.311
21
-162.497
0
LINE
8
BLACK
6
CONTINUOUS
10
101.311
20
-162.497
11
101.454
21
-162.211
0
LINE
8
BLACK
6
CONTINUOUS
10
101.454
20
-162.211
11
101.739
21
-162.068
0
LINE
8
BLACK
6
CONTINUOUS
10
101.739
20
-162.068
11
102.311
21
-162.068
0
LINE
8
BLACK
6
CONTINUOUS
10
102.311
20
-162.068
11
102.596
21
-162.211
0
LINE
8
BLACK
6
CONTINUOUS
10
102.596
20
-162.211
11
102.739
21
-162.497
0
LINE
8
BLACK
6
CONTINUOUS
10
102.739
20
-162.497
11
102.739
21
-162.782
0
LINE
8
BLACK
6
CONTINUOUS
10
102.739
20
-162.782
11
101.311
21
-163.068
0
LINE
8
BLACK
6
CONTINUOUS
10
103.882
20
-163.925
11
104.168
21
-164.068
0
LINE
8
BLACK
6
CONTINUOUS
10
104.168
20
-164.068
11
104.739
21
-164.068
0
LINE
8
BLACK
6
CONTINUOUS
10
104.739
20
-164.068
11
105.025
21
-163.925
0
LINE
8
BLACK
6
CONTINUOUS
10
105.025
20
-163.925
11
105.168
21
-163.639
0
LINE
8
BLACK
6
CONTINUOUS
10
105.168
20
-163.639
11
105.168
21
-163.497
0
LINE
8
BLACK
6
CONTINUOUS
10
105.168
20
-163.497
11
105.025
21
-163.211
0
LINE
8
BLACK
6
CONTINUOUS
10
105.025
20
-163.211
11
104.739
21
-163.068
0
LINE
8
BLACK
6
CONTINUOUS
10
104.739
20
-163.068
11
104.311
21
-163.068
0
LINE
8
BLACK
6
CONTINUOUS
10
104.311
20
-163.068
11
104.025
21
-162.925
0
LINE
8
BLACK
6
CONTINUOUS
10
104.025
20
-162.925
11
103.882
21
-162.639
0
LINE
8
BLACK
6
CONTINUOUS
10
103.882
20
-162.639
11
103.882
21
-162.497
0
LINE
8
BLACK
6
CONTINUOUS
10
103.882
20
-162.497
11
104.025
21
-162.211
0
LINE
8
BLACK
6
CONTINUOUS
10
104.025
20
-162.211
11
104.311
21
-162.068
0
LINE
8
BLACK
6
CONTINUOUS
10
104.311
20
-162.068
11
104.739
21
-162.068
0
LINE
8
BLACK
6
CONTINUOUS
10
104.739
20
-162.068
11
105.025
21
-162.211
0
LINE
8
BLACK
6
CONTINUOUS
10
106.168
20
-165.211
11
106.311
21
-165.068
0
LINE
8
BLACK
6
CONTINUOUS
10
106.311
20
-165.068
11
106.596
21
-164.639
0
LINE
8
BLACK
6
CONTINUOUS
10
106.596
20
-164.639
11
106.739
21
-164.354
0
LINE
8
BLACK
6
CONTINUOUS
10
106.739
20
-164.354
11
106.882
21
-163.925
0
LINE
8
BLACK
6
CONTINUOUS
10
106.882
20
-163.925
11
107.025
21
-163.211
0
LINE
8
BLACK
6
CONTINUOUS
10
107.025
20
-163.211
11
107.025
21
-162.639
0
LINE
8
BLACK
6
CONTINUOUS
10
107.025
20
-162.639
11
106.882
21
-161.925
0
LINE
8
BLACK
6
CONTINUOUS
10
106.882
20
-161.925
11
106.739
21
-161.497
0
LINE
8
BLACK
6
CONTINUOUS
10
106.739
20
-161.497
11
106.596
21
-161.211
0
LINE
8
BLACK
6
CONTINUOUS
10
106.596
20
-161.211
11
106.311
21
-160.782
0
LINE
8
BLACK
6
CONTINUOUS
10
106.311
20
-160.782
11
106.168
21
-160.639
  0
ENDSEC
  0
EOF
