G04 #@! TF.GenerationSoftware,KiCad,Pcbnew,(5.1.5-0-10_14)*
G04 #@! TF.CreationDate,2021-11-28T13:41:55+10:00*
G04 #@! TF.ProjectId,UFC - General Purpose Small PCB,55464320-2d20-4476-956e-6572616c2050,rev?*
G04 #@! TF.SameCoordinates,Original*
G04 #@! TF.FileFunction,Legend,Bot*
G04 #@! TF.FilePolarity,Positive*
%FSLAX46Y46*%
G04 Gerber Fmt 4.6, Leading zero omitted, Abs format (unit mm)*
G04 Created by KiCad (PCBNEW (5.1.5-0-10_14)) date 2021-11-28 13:41:55*
%MOMM*%
%LPD*%
G04 APERTURE LIST*
%ADD10C,0.150000*%
G04 APERTURE END LIST*
D10*
X44935733Y-111873180D02*
X44935733Y-112587466D01*
X44983352Y-112730323D01*
X45078590Y-112825561D01*
X45221447Y-112873180D01*
X45316685Y-112873180D01*
X43935733Y-112873180D02*
X44507161Y-112873180D01*
X44221447Y-112873180D02*
X44221447Y-111873180D01*
X44316685Y-112016038D01*
X44411923Y-112111276D01*
X44507161Y-112158895D01*
X56657833Y-120737380D02*
X56657833Y-121451666D01*
X56705452Y-121594523D01*
X56800690Y-121689761D01*
X56943547Y-121737380D01*
X57038785Y-121737380D01*
X56229261Y-120832619D02*
X56181642Y-120785000D01*
X56086404Y-120737380D01*
X55848309Y-120737380D01*
X55753071Y-120785000D01*
X55705452Y-120832619D01*
X55657833Y-120927857D01*
X55657833Y-121023095D01*
X55705452Y-121165952D01*
X56276880Y-121737380D01*
X55657833Y-121737380D01*
X44935733Y-120711980D02*
X44935733Y-121426266D01*
X44983352Y-121569123D01*
X45078590Y-121664361D01*
X45221447Y-121711980D01*
X45316685Y-121711980D01*
X44554780Y-120711980D02*
X43935733Y-120711980D01*
X44269066Y-121092933D01*
X44126209Y-121092933D01*
X44030971Y-121140552D01*
X43983352Y-121188171D01*
X43935733Y-121283409D01*
X43935733Y-121521504D01*
X43983352Y-121616742D01*
X44030971Y-121664361D01*
X44126209Y-121711980D01*
X44411923Y-121711980D01*
X44507161Y-121664361D01*
X44554780Y-121616742D01*
X56721333Y-111974780D02*
X56721333Y-112689066D01*
X56768952Y-112831923D01*
X56864190Y-112927161D01*
X57007047Y-112974780D01*
X57102285Y-112974780D01*
X55816571Y-112308114D02*
X55816571Y-112974780D01*
X56054666Y-111927161D02*
X56292761Y-112641447D01*
X55673714Y-112641447D01*
X85728133Y-49337980D02*
X85728133Y-50052266D01*
X85775752Y-50195123D01*
X85870990Y-50290361D01*
X86013847Y-50337980D01*
X86109085Y-50337980D01*
X84775752Y-49337980D02*
X85251942Y-49337980D01*
X85299561Y-49814171D01*
X85251942Y-49766552D01*
X85156704Y-49718933D01*
X84918609Y-49718933D01*
X84823371Y-49766552D01*
X84775752Y-49814171D01*
X84728133Y-49909409D01*
X84728133Y-50147504D01*
X84775752Y-50242742D01*
X84823371Y-50290361D01*
X84918609Y-50337980D01*
X85156704Y-50337980D01*
X85251942Y-50290361D01*
X85299561Y-50242742D01*
X86356723Y-58278780D02*
X86356723Y-58993066D01*
X86404342Y-59135923D01*
X86499580Y-59231161D01*
X86642438Y-59278780D01*
X86737676Y-59278780D01*
X85356723Y-59278780D02*
X85928152Y-59278780D01*
X85642438Y-59278780D02*
X85642438Y-58278780D01*
X85737676Y-58421638D01*
X85832914Y-58516876D01*
X85928152Y-58564495D01*
X85023390Y-58278780D02*
X84404342Y-58278780D01*
X84737676Y-58659733D01*
X84594819Y-58659733D01*
X84499580Y-58707352D01*
X84451961Y-58754971D01*
X84404342Y-58850209D01*
X84404342Y-59088304D01*
X84451961Y-59183542D01*
X84499580Y-59231161D01*
X84594819Y-59278780D01*
X84880533Y-59278780D01*
X84975771Y-59231161D01*
X85023390Y-59183542D01*
X120087523Y-119899380D02*
X120087523Y-120613666D01*
X120135142Y-120756523D01*
X120230380Y-120851761D01*
X120373238Y-120899380D01*
X120468476Y-120899380D01*
X119658952Y-119994619D02*
X119611333Y-119947000D01*
X119516095Y-119899380D01*
X119278000Y-119899380D01*
X119182761Y-119947000D01*
X119135142Y-119994619D01*
X119087523Y-120089857D01*
X119087523Y-120185095D01*
X119135142Y-120327952D01*
X119706571Y-120899380D01*
X119087523Y-120899380D01*
X118182761Y-119899380D02*
X118658952Y-119899380D01*
X118706571Y-120375571D01*
X118658952Y-120327952D01*
X118563714Y-120280333D01*
X118325619Y-120280333D01*
X118230380Y-120327952D01*
X118182761Y-120375571D01*
X118135142Y-120470809D01*
X118135142Y-120708904D01*
X118182761Y-120804142D01*
X118230380Y-120851761D01*
X118325619Y-120899380D01*
X118563714Y-120899380D01*
X118658952Y-120851761D01*
X118706571Y-120804142D01*
X119871623Y-68349880D02*
X119871623Y-69064166D01*
X119919242Y-69207023D01*
X120014480Y-69302261D01*
X120157338Y-69349880D01*
X120252576Y-69349880D01*
X119443052Y-68445119D02*
X119395433Y-68397500D01*
X119300195Y-68349880D01*
X119062100Y-68349880D01*
X118966861Y-68397500D01*
X118919242Y-68445119D01*
X118871623Y-68540357D01*
X118871623Y-68635595D01*
X118919242Y-68778452D01*
X119490671Y-69349880D01*
X118871623Y-69349880D01*
X118014480Y-68349880D02*
X118204957Y-68349880D01*
X118300195Y-68397500D01*
X118347814Y-68445119D01*
X118443052Y-68587976D01*
X118490671Y-68778452D01*
X118490671Y-69159404D01*
X118443052Y-69254642D01*
X118395433Y-69302261D01*
X118300195Y-69349880D01*
X118109719Y-69349880D01*
X118014480Y-69302261D01*
X117966861Y-69254642D01*
X117919242Y-69159404D01*
X117919242Y-68921309D01*
X117966861Y-68826071D01*
X118014480Y-68778452D01*
X118109719Y-68730833D01*
X118300195Y-68730833D01*
X118395433Y-68778452D01*
X118443052Y-68826071D01*
X118490671Y-68921309D01*
X119833523Y-85304414D02*
X119833523Y-86018700D01*
X119881142Y-86161557D01*
X119976380Y-86256795D01*
X120119238Y-86304414D01*
X120214476Y-86304414D01*
X119404952Y-85399653D02*
X119357333Y-85352034D01*
X119262095Y-85304414D01*
X119024000Y-85304414D01*
X118928761Y-85352034D01*
X118881142Y-85399653D01*
X118833523Y-85494891D01*
X118833523Y-85590129D01*
X118881142Y-85732986D01*
X119452571Y-86304414D01*
X118833523Y-86304414D01*
X118500190Y-85304414D02*
X117833523Y-85304414D01*
X118262095Y-86304414D01*
X119833523Y-102830248D02*
X119833523Y-103544534D01*
X119881142Y-103687391D01*
X119976380Y-103782629D01*
X120119238Y-103830248D01*
X120214476Y-103830248D01*
X119404952Y-102925487D02*
X119357333Y-102877868D01*
X119262095Y-102830248D01*
X119024000Y-102830248D01*
X118928761Y-102877868D01*
X118881142Y-102925487D01*
X118833523Y-103020725D01*
X118833523Y-103115963D01*
X118881142Y-103258820D01*
X119452571Y-103830248D01*
X118833523Y-103830248D01*
X118262095Y-103258820D02*
X118357333Y-103211201D01*
X118404952Y-103163582D01*
X118452571Y-103068344D01*
X118452571Y-103020725D01*
X118404952Y-102925487D01*
X118357333Y-102877868D01*
X118262095Y-102830248D01*
X118071619Y-102830248D01*
X117976380Y-102877868D01*
X117928761Y-102925487D01*
X117881142Y-103020725D01*
X117881142Y-103068344D01*
X117928761Y-103163582D01*
X117976380Y-103211201D01*
X118071619Y-103258820D01*
X118262095Y-103258820D01*
X118357333Y-103306439D01*
X118404952Y-103354058D01*
X118452571Y-103449296D01*
X118452571Y-103639772D01*
X118404952Y-103735010D01*
X118357333Y-103782629D01*
X118262095Y-103830248D01*
X118071619Y-103830248D01*
X117976380Y-103782629D01*
X117928761Y-103735010D01*
X117881142Y-103639772D01*
X117881142Y-103449296D01*
X117928761Y-103354058D01*
X117976380Y-103306439D01*
X118071619Y-103258820D01*
X132330923Y-65289180D02*
X132330923Y-66003466D01*
X132378542Y-66146323D01*
X132473780Y-66241561D01*
X132616638Y-66289180D01*
X132711876Y-66289180D01*
X131949971Y-65289180D02*
X131330923Y-65289180D01*
X131664257Y-65670133D01*
X131521400Y-65670133D01*
X131426161Y-65717752D01*
X131378542Y-65765371D01*
X131330923Y-65860609D01*
X131330923Y-66098704D01*
X131378542Y-66193942D01*
X131426161Y-66241561D01*
X131521400Y-66289180D01*
X131807114Y-66289180D01*
X131902352Y-66241561D01*
X131949971Y-66193942D01*
X130711876Y-65289180D02*
X130616638Y-65289180D01*
X130521400Y-65336800D01*
X130473780Y-65384419D01*
X130426161Y-65479657D01*
X130378542Y-65670133D01*
X130378542Y-65908228D01*
X130426161Y-66098704D01*
X130473780Y-66193942D01*
X130521400Y-66241561D01*
X130616638Y-66289180D01*
X130711876Y-66289180D01*
X130807114Y-66241561D01*
X130854733Y-66193942D01*
X130902352Y-66098704D01*
X130949971Y-65908228D01*
X130949971Y-65670133D01*
X130902352Y-65479657D01*
X130854733Y-65384419D01*
X130807114Y-65336800D01*
X130711876Y-65289180D01*
X132178523Y-81189580D02*
X132178523Y-81903866D01*
X132226142Y-82046723D01*
X132321380Y-82141961D01*
X132464238Y-82189580D01*
X132559476Y-82189580D01*
X131797571Y-81189580D02*
X131178523Y-81189580D01*
X131511857Y-81570533D01*
X131369000Y-81570533D01*
X131273761Y-81618152D01*
X131226142Y-81665771D01*
X131178523Y-81761009D01*
X131178523Y-81999104D01*
X131226142Y-82094342D01*
X131273761Y-82141961D01*
X131369000Y-82189580D01*
X131654714Y-82189580D01*
X131749952Y-82141961D01*
X131797571Y-82094342D01*
X130226142Y-82189580D02*
X130797571Y-82189580D01*
X130511857Y-82189580D02*
X130511857Y-81189580D01*
X130607095Y-81332438D01*
X130702333Y-81427676D01*
X130797571Y-81475295D01*
X132330923Y-100391580D02*
X132330923Y-101105866D01*
X132378542Y-101248723D01*
X132473780Y-101343961D01*
X132616638Y-101391580D01*
X132711876Y-101391580D01*
X131949971Y-100391580D02*
X131330923Y-100391580D01*
X131664257Y-100772533D01*
X131521400Y-100772533D01*
X131426161Y-100820152D01*
X131378542Y-100867771D01*
X131330923Y-100963009D01*
X131330923Y-101201104D01*
X131378542Y-101296342D01*
X131426161Y-101343961D01*
X131521400Y-101391580D01*
X131807114Y-101391580D01*
X131902352Y-101343961D01*
X131949971Y-101296342D01*
X130949971Y-100486819D02*
X130902352Y-100439200D01*
X130807114Y-100391580D01*
X130569019Y-100391580D01*
X130473780Y-100439200D01*
X130426161Y-100486819D01*
X130378542Y-100582057D01*
X130378542Y-100677295D01*
X130426161Y-100820152D01*
X130997590Y-101391580D01*
X130378542Y-101391580D01*
X132229323Y-116952580D02*
X132229323Y-117666866D01*
X132276942Y-117809723D01*
X132372180Y-117904961D01*
X132515038Y-117952580D01*
X132610276Y-117952580D01*
X131848371Y-116952580D02*
X131229323Y-116952580D01*
X131562657Y-117333533D01*
X131419800Y-117333533D01*
X131324561Y-117381152D01*
X131276942Y-117428771D01*
X131229323Y-117524009D01*
X131229323Y-117762104D01*
X131276942Y-117857342D01*
X131324561Y-117904961D01*
X131419800Y-117952580D01*
X131705514Y-117952580D01*
X131800752Y-117904961D01*
X131848371Y-117857342D01*
X130895990Y-116952580D02*
X130276942Y-116952580D01*
X130610276Y-117333533D01*
X130467419Y-117333533D01*
X130372180Y-117381152D01*
X130324561Y-117428771D01*
X130276942Y-117524009D01*
X130276942Y-117762104D01*
X130324561Y-117857342D01*
X130372180Y-117904961D01*
X130467419Y-117952580D01*
X130753133Y-117952580D01*
X130848371Y-117904961D01*
X130895990Y-117857342D01*
X122746666Y-61259980D02*
X123080000Y-60783790D01*
X123318095Y-61259980D02*
X123318095Y-60259980D01*
X122937142Y-60259980D01*
X122841904Y-60307600D01*
X122794285Y-60355219D01*
X122746666Y-60450457D01*
X122746666Y-60593314D01*
X122794285Y-60688552D01*
X122841904Y-60736171D01*
X122937142Y-60783790D01*
X123318095Y-60783790D01*
X121794285Y-61259980D02*
X122365714Y-61259980D01*
X122080000Y-61259980D02*
X122080000Y-60259980D01*
X122175238Y-60402838D01*
X122270476Y-60498076D01*
X122365714Y-60545695D01*
X83003923Y-122387980D02*
X83003923Y-123102266D01*
X83051542Y-123245123D01*
X83146780Y-123340361D01*
X83289638Y-123387980D01*
X83384876Y-123387980D01*
X82575352Y-122483219D02*
X82527733Y-122435600D01*
X82432495Y-122387980D01*
X82194400Y-122387980D01*
X82099161Y-122435600D01*
X82051542Y-122483219D01*
X82003923Y-122578457D01*
X82003923Y-122673695D01*
X82051542Y-122816552D01*
X82622971Y-123387980D01*
X82003923Y-123387980D01*
X81622971Y-122483219D02*
X81575352Y-122435600D01*
X81480114Y-122387980D01*
X81242019Y-122387980D01*
X81146780Y-122435600D01*
X81099161Y-122483219D01*
X81051542Y-122578457D01*
X81051542Y-122673695D01*
X81099161Y-122816552D01*
X81670590Y-123387980D01*
X81051542Y-123387980D01*
X114615980Y-60048876D02*
X115330266Y-60048876D01*
X115473123Y-60001257D01*
X115568361Y-59906019D01*
X115615980Y-59763161D01*
X115615980Y-59667923D01*
X114711219Y-60477447D02*
X114663600Y-60525066D01*
X114615980Y-60620304D01*
X114615980Y-60858400D01*
X114663600Y-60953638D01*
X114711219Y-61001257D01*
X114806457Y-61048876D01*
X114901695Y-61048876D01*
X115044552Y-61001257D01*
X115615980Y-60429828D01*
X115615980Y-61048876D01*
X114615980Y-61382209D02*
X114615980Y-62001257D01*
X114996933Y-61667923D01*
X114996933Y-61810780D01*
X115044552Y-61906019D01*
X115092171Y-61953638D01*
X115187409Y-62001257D01*
X115425504Y-62001257D01*
X115520742Y-61953638D01*
X115568361Y-61906019D01*
X115615980Y-61810780D01*
X115615980Y-61525066D01*
X115568361Y-61429828D01*
X115520742Y-61382209D01*
X110552380Y-88344476D02*
X111266666Y-88344476D01*
X111409523Y-88296857D01*
X111504761Y-88201619D01*
X111552380Y-88058761D01*
X111552380Y-87963523D01*
X110647619Y-88773047D02*
X110600000Y-88820666D01*
X110552380Y-88915904D01*
X110552380Y-89154000D01*
X110600000Y-89249238D01*
X110647619Y-89296857D01*
X110742857Y-89344476D01*
X110838095Y-89344476D01*
X110980952Y-89296857D01*
X111552380Y-88725428D01*
X111552380Y-89344476D01*
X111552380Y-89820666D02*
X111552380Y-90011142D01*
X111504761Y-90106380D01*
X111457142Y-90154000D01*
X111314285Y-90249238D01*
X111123809Y-90296857D01*
X110742857Y-90296857D01*
X110647619Y-90249238D01*
X110600000Y-90201619D01*
X110552380Y-90106380D01*
X110552380Y-89915904D01*
X110600000Y-89820666D01*
X110647619Y-89773047D01*
X110742857Y-89725428D01*
X110980952Y-89725428D01*
X111076190Y-89773047D01*
X111123809Y-89820666D01*
X111171428Y-89915904D01*
X111171428Y-90106380D01*
X111123809Y-90201619D01*
X111076190Y-90249238D01*
X110980952Y-90296857D01*
X117257780Y-45266076D02*
X117972066Y-45266076D01*
X118114923Y-45218457D01*
X118210161Y-45123219D01*
X118257780Y-44980361D01*
X118257780Y-44885123D01*
X117353019Y-45694647D02*
X117305400Y-45742266D01*
X117257780Y-45837504D01*
X117257780Y-46075600D01*
X117305400Y-46170838D01*
X117353019Y-46218457D01*
X117448257Y-46266076D01*
X117543495Y-46266076D01*
X117686352Y-46218457D01*
X118257780Y-45647028D01*
X118257780Y-46266076D01*
X117591114Y-47123219D02*
X118257780Y-47123219D01*
X117210161Y-46885123D02*
X117924447Y-46647028D01*
X117924447Y-47266076D01*
X72394323Y-122347980D02*
X72394323Y-123062266D01*
X72441942Y-123205123D01*
X72537180Y-123300361D01*
X72680038Y-123347980D01*
X72775276Y-123347980D01*
X71965752Y-122443219D02*
X71918133Y-122395600D01*
X71822895Y-122347980D01*
X71584800Y-122347980D01*
X71489561Y-122395600D01*
X71441942Y-122443219D01*
X71394323Y-122538457D01*
X71394323Y-122633695D01*
X71441942Y-122776552D01*
X72013371Y-123347980D01*
X71394323Y-123347980D01*
X70441942Y-123347980D02*
X71013371Y-123347980D01*
X70727657Y-123347980D02*
X70727657Y-122347980D01*
X70822895Y-122490838D01*
X70918133Y-122586076D01*
X71013371Y-122633695D01*
X72279523Y-112504780D02*
X72279523Y-113219066D01*
X72327142Y-113361923D01*
X72422380Y-113457161D01*
X72565238Y-113504780D01*
X72660476Y-113504780D01*
X71850952Y-112600019D02*
X71803333Y-112552400D01*
X71708095Y-112504780D01*
X71470000Y-112504780D01*
X71374761Y-112552400D01*
X71327142Y-112600019D01*
X71279523Y-112695257D01*
X71279523Y-112790495D01*
X71327142Y-112933352D01*
X71898571Y-113504780D01*
X71279523Y-113504780D01*
X70660476Y-112504780D02*
X70565238Y-112504780D01*
X70470000Y-112552400D01*
X70422380Y-112600019D01*
X70374761Y-112695257D01*
X70327142Y-112885733D01*
X70327142Y-113123828D01*
X70374761Y-113314304D01*
X70422380Y-113409542D01*
X70470000Y-113457161D01*
X70565238Y-113504780D01*
X70660476Y-113504780D01*
X70755714Y-113457161D01*
X70803333Y-113409542D01*
X70850952Y-113314304D01*
X70898571Y-113123828D01*
X70898571Y-112885733D01*
X70850952Y-112695257D01*
X70803333Y-112600019D01*
X70755714Y-112552400D01*
X70660476Y-112504780D01*
X85899523Y-77938380D02*
X85899523Y-78652666D01*
X85947142Y-78795523D01*
X86042380Y-78890761D01*
X86185238Y-78938380D01*
X86280476Y-78938380D01*
X84899523Y-78938380D02*
X85470952Y-78938380D01*
X85185238Y-78938380D02*
X85185238Y-77938380D01*
X85280476Y-78081238D01*
X85375714Y-78176476D01*
X85470952Y-78224095D01*
X84423333Y-78938380D02*
X84232857Y-78938380D01*
X84137619Y-78890761D01*
X84090000Y-78843142D01*
X83994761Y-78700285D01*
X83947142Y-78509809D01*
X83947142Y-78128857D01*
X83994761Y-78033619D01*
X84042380Y-77986000D01*
X84137619Y-77938380D01*
X84328095Y-77938380D01*
X84423333Y-77986000D01*
X84470952Y-78033619D01*
X84518571Y-78128857D01*
X84518571Y-78366952D01*
X84470952Y-78462190D01*
X84423333Y-78509809D01*
X84328095Y-78557428D01*
X84137619Y-78557428D01*
X84042380Y-78509809D01*
X83994761Y-78462190D01*
X83947142Y-78366952D01*
X86407523Y-99376380D02*
X86407523Y-100090666D01*
X86455142Y-100233523D01*
X86550380Y-100328761D01*
X86693238Y-100376380D01*
X86788476Y-100376380D01*
X85407523Y-100376380D02*
X85978952Y-100376380D01*
X85693238Y-100376380D02*
X85693238Y-99376380D01*
X85788476Y-99519238D01*
X85883714Y-99614476D01*
X85978952Y-99662095D01*
X84836095Y-99804952D02*
X84931333Y-99757333D01*
X84978952Y-99709714D01*
X85026571Y-99614476D01*
X85026571Y-99566857D01*
X84978952Y-99471619D01*
X84931333Y-99424000D01*
X84836095Y-99376380D01*
X84645619Y-99376380D01*
X84550380Y-99424000D01*
X84502761Y-99471619D01*
X84455142Y-99566857D01*
X84455142Y-99614476D01*
X84502761Y-99709714D01*
X84550380Y-99757333D01*
X84645619Y-99804952D01*
X84836095Y-99804952D01*
X84931333Y-99852571D01*
X84978952Y-99900190D01*
X85026571Y-99995428D01*
X85026571Y-100185904D01*
X84978952Y-100281142D01*
X84931333Y-100328761D01*
X84836095Y-100376380D01*
X84645619Y-100376380D01*
X84550380Y-100328761D01*
X84502761Y-100281142D01*
X84455142Y-100185904D01*
X84455142Y-99995428D01*
X84502761Y-99900190D01*
X84550380Y-99852571D01*
X84645619Y-99804952D01*
X68627523Y-99348780D02*
X68627523Y-100063066D01*
X68675142Y-100205923D01*
X68770380Y-100301161D01*
X68913238Y-100348780D01*
X69008476Y-100348780D01*
X67627523Y-100348780D02*
X68198952Y-100348780D01*
X67913238Y-100348780D02*
X67913238Y-99348780D01*
X68008476Y-99491638D01*
X68103714Y-99586876D01*
X68198952Y-99634495D01*
X67294190Y-99348780D02*
X66627523Y-99348780D01*
X67056095Y-100348780D01*
X46783523Y-79401580D02*
X46783523Y-80115866D01*
X46831142Y-80258723D01*
X46926380Y-80353961D01*
X47069238Y-80401580D01*
X47164476Y-80401580D01*
X45783523Y-80401580D02*
X46354952Y-80401580D01*
X46069238Y-80401580D02*
X46069238Y-79401580D01*
X46164476Y-79544438D01*
X46259714Y-79639676D01*
X46354952Y-79687295D01*
X44926380Y-79401580D02*
X45116857Y-79401580D01*
X45212095Y-79449200D01*
X45259714Y-79496819D01*
X45354952Y-79639676D01*
X45402571Y-79830152D01*
X45402571Y-80211104D01*
X45354952Y-80306342D01*
X45307333Y-80353961D01*
X45212095Y-80401580D01*
X45021619Y-80401580D01*
X44926380Y-80353961D01*
X44878761Y-80306342D01*
X44831142Y-80211104D01*
X44831142Y-79973009D01*
X44878761Y-79877771D01*
X44926380Y-79830152D01*
X45021619Y-79782533D01*
X45212095Y-79782533D01*
X45307333Y-79830152D01*
X45354952Y-79877771D01*
X45402571Y-79973009D01*
X61718723Y-79513180D02*
X61718723Y-80227466D01*
X61766342Y-80370323D01*
X61861580Y-80465561D01*
X62004438Y-80513180D01*
X62099676Y-80513180D01*
X60718723Y-80513180D02*
X61290152Y-80513180D01*
X61004438Y-80513180D02*
X61004438Y-79513180D01*
X61099676Y-79656038D01*
X61194914Y-79751276D01*
X61290152Y-79798895D01*
X59813961Y-79513180D02*
X60290152Y-79513180D01*
X60337771Y-79989371D01*
X60290152Y-79941752D01*
X60194914Y-79894133D01*
X59956819Y-79894133D01*
X59861580Y-79941752D01*
X59813961Y-79989371D01*
X59766342Y-80084609D01*
X59766342Y-80322704D01*
X59813961Y-80417942D01*
X59861580Y-80465561D01*
X59956819Y-80513180D01*
X60194914Y-80513180D01*
X60290152Y-80465561D01*
X60337771Y-80417942D01*
X71472323Y-58230380D02*
X71472323Y-58944666D01*
X71519942Y-59087523D01*
X71615180Y-59182761D01*
X71758038Y-59230380D01*
X71853276Y-59230380D01*
X70472323Y-59230380D02*
X71043752Y-59230380D01*
X70758038Y-59230380D02*
X70758038Y-58230380D01*
X70853276Y-58373238D01*
X70948514Y-58468476D01*
X71043752Y-58516095D01*
X69615180Y-58563714D02*
X69615180Y-59230380D01*
X69853276Y-58182761D02*
X70091371Y-58897047D01*
X69472323Y-58897047D01*
X83041523Y-112472780D02*
X83041523Y-113187066D01*
X83089142Y-113329923D01*
X83184380Y-113425161D01*
X83327238Y-113472780D01*
X83422476Y-113472780D01*
X82041523Y-113472780D02*
X82612952Y-113472780D01*
X82327238Y-113472780D02*
X82327238Y-112472780D01*
X82422476Y-112615638D01*
X82517714Y-112710876D01*
X82612952Y-112758495D01*
X81660571Y-112568019D02*
X81612952Y-112520400D01*
X81517714Y-112472780D01*
X81279619Y-112472780D01*
X81184380Y-112520400D01*
X81136761Y-112568019D01*
X81089142Y-112663257D01*
X81089142Y-112758495D01*
X81136761Y-112901352D01*
X81708190Y-113472780D01*
X81089142Y-113472780D01*
X86001123Y-68895980D02*
X86001123Y-69610266D01*
X86048742Y-69753123D01*
X86143980Y-69848361D01*
X86286838Y-69895980D01*
X86382076Y-69895980D01*
X85001123Y-69895980D02*
X85572552Y-69895980D01*
X85286838Y-69895980D02*
X85286838Y-68895980D01*
X85382076Y-69038838D01*
X85477314Y-69134076D01*
X85572552Y-69181695D01*
X84048742Y-69895980D02*
X84620171Y-69895980D01*
X84334457Y-69895980D02*
X84334457Y-68895980D01*
X84429695Y-69038838D01*
X84524933Y-69134076D01*
X84620171Y-69181695D01*
X86255123Y-90587580D02*
X86255123Y-91301866D01*
X86302742Y-91444723D01*
X86397980Y-91539961D01*
X86540838Y-91587580D01*
X86636076Y-91587580D01*
X85255123Y-91587580D02*
X85826552Y-91587580D01*
X85540838Y-91587580D02*
X85540838Y-90587580D01*
X85636076Y-90730438D01*
X85731314Y-90825676D01*
X85826552Y-90873295D01*
X84636076Y-90587580D02*
X84540838Y-90587580D01*
X84445600Y-90635200D01*
X84397980Y-90682819D01*
X84350361Y-90778057D01*
X84302742Y-90968533D01*
X84302742Y-91206628D01*
X84350361Y-91397104D01*
X84397980Y-91492342D01*
X84445600Y-91539961D01*
X84540838Y-91587580D01*
X84636076Y-91587580D01*
X84731314Y-91539961D01*
X84778933Y-91492342D01*
X84826552Y-91397104D01*
X84874171Y-91206628D01*
X84874171Y-90968533D01*
X84826552Y-90778057D01*
X84778933Y-90682819D01*
X84731314Y-90635200D01*
X84636076Y-90587580D01*
X68151333Y-90621580D02*
X68151333Y-91335866D01*
X68198952Y-91478723D01*
X68294190Y-91573961D01*
X68437047Y-91621580D01*
X68532285Y-91621580D01*
X67627523Y-91621580D02*
X67437047Y-91621580D01*
X67341809Y-91573961D01*
X67294190Y-91526342D01*
X67198952Y-91383485D01*
X67151333Y-91193009D01*
X67151333Y-90812057D01*
X67198952Y-90716819D01*
X67246571Y-90669200D01*
X67341809Y-90621580D01*
X67532285Y-90621580D01*
X67627523Y-90669200D01*
X67675142Y-90716819D01*
X67722761Y-90812057D01*
X67722761Y-91050152D01*
X67675142Y-91145390D01*
X67627523Y-91193009D01*
X67532285Y-91240628D01*
X67341809Y-91240628D01*
X67246571Y-91193009D01*
X67198952Y-91145390D01*
X67151333Y-91050152D01*
X46205733Y-70452380D02*
X46205733Y-71166666D01*
X46253352Y-71309523D01*
X46348590Y-71404761D01*
X46491447Y-71452380D01*
X46586685Y-71452380D01*
X45586685Y-70880952D02*
X45681923Y-70833333D01*
X45729542Y-70785714D01*
X45777161Y-70690476D01*
X45777161Y-70642857D01*
X45729542Y-70547619D01*
X45681923Y-70500000D01*
X45586685Y-70452380D01*
X45396209Y-70452380D01*
X45300971Y-70500000D01*
X45253352Y-70547619D01*
X45205733Y-70642857D01*
X45205733Y-70690476D01*
X45253352Y-70785714D01*
X45300971Y-70833333D01*
X45396209Y-70880952D01*
X45586685Y-70880952D01*
X45681923Y-70928571D01*
X45729542Y-70976190D01*
X45777161Y-71071428D01*
X45777161Y-71261904D01*
X45729542Y-71357142D01*
X45681923Y-71404761D01*
X45586685Y-71452380D01*
X45396209Y-71452380D01*
X45300971Y-71404761D01*
X45253352Y-71357142D01*
X45205733Y-71261904D01*
X45205733Y-71071428D01*
X45253352Y-70976190D01*
X45300971Y-70928571D01*
X45396209Y-70880952D01*
X61547333Y-70572380D02*
X61547333Y-71286666D01*
X61594952Y-71429523D01*
X61690190Y-71524761D01*
X61833047Y-71572380D01*
X61928285Y-71572380D01*
X61166380Y-70572380D02*
X60499714Y-70572380D01*
X60928285Y-71572380D01*
X71250133Y-49759180D02*
X71250133Y-50473466D01*
X71297752Y-50616323D01*
X71392990Y-50711561D01*
X71535847Y-50759180D01*
X71631085Y-50759180D01*
X70345371Y-49759180D02*
X70535847Y-49759180D01*
X70631085Y-49806800D01*
X70678704Y-49854419D01*
X70773942Y-49997276D01*
X70821561Y-50187752D01*
X70821561Y-50568704D01*
X70773942Y-50663942D01*
X70726323Y-50711561D01*
X70631085Y-50759180D01*
X70440609Y-50759180D01*
X70345371Y-50711561D01*
X70297752Y-50663942D01*
X70250133Y-50568704D01*
X70250133Y-50330609D01*
X70297752Y-50235371D01*
X70345371Y-50187752D01*
X70440609Y-50140133D01*
X70631085Y-50140133D01*
X70726323Y-50187752D01*
X70773942Y-50235371D01*
X70821561Y-50330609D01*
M02*
