G04 #@! TF.GenerationSoftware,KiCad,Pcbnew,(5.1.5-0-10_14)*
G04 #@! TF.CreationDate,2021-11-28T08:00:54+10:00*
G04 #@! TF.ProjectId,AP,41502e6b-6963-4616-945f-706362585858,rev?*
G04 #@! TF.SameCoordinates,Original*
G04 #@! TF.FileFunction,Copper,L1,Top*
G04 #@! TF.FilePolarity,Positive*
%FSLAX46Y46*%
G04 Gerber Fmt 4.6, Leading zero omitted, Abs format (unit mm)*
G04 Created by KiCad (PCBNEW (5.1.5-0-10_14)) date 2021-11-28 08:00:54*
%MOMM*%
%LPD*%
G04 APERTURE LIST*
%ADD10O,1.700000X1.700000*%
%ADD11R,1.700000X1.700000*%
%ADD12O,1.600000X1.600000*%
%ADD13R,1.600000X1.600000*%
%ADD14C,1.600000*%
%ADD15C,1.524000*%
%ADD16C,1.700000*%
%ADD17C,0.250000*%
G04 APERTURE END LIST*
D10*
X131978000Y-101955600D03*
X131978000Y-99415600D03*
D11*
X131978000Y-96875600D03*
D10*
X165760000Y-99771200D03*
X165760000Y-97231200D03*
D11*
X165760000Y-94691200D03*
D12*
X170840000Y-103124000D03*
D13*
X170840000Y-95504000D03*
D12*
X182570000Y-103190000D03*
D13*
X182570000Y-95570000D03*
D12*
X186810000Y-103380000D03*
D13*
X186810000Y-95760000D03*
D12*
X135810000Y-103190000D03*
D13*
X135810000Y-95570000D03*
D12*
X114700000Y-103090000D03*
D13*
X114700000Y-95470000D03*
D12*
X101690000Y-103090000D03*
D13*
X101690000Y-95470000D03*
D12*
X148340000Y-103380000D03*
D13*
X148340000Y-95760000D03*
D12*
X152590000Y-103290000D03*
D14*
X152590000Y-95670000D03*
D12*
X97540000Y-103000000D03*
D14*
X97540000Y-95380000D03*
D12*
X118750000Y-103190000D03*
D14*
X118750000Y-95570000D03*
D10*
X167691000Y-103530000D03*
D11*
X165151000Y-103530000D03*
D15*
X190300000Y-99605000D03*
X196091000Y-99565000D03*
D16*
X191011000Y-102740000D03*
X191011000Y-96390000D03*
X195456000Y-102740000D03*
X195456000Y-96390000D03*
D15*
X173360000Y-99605000D03*
X179151000Y-99565000D03*
D16*
X174071000Y-102740000D03*
X174071000Y-96390000D03*
X178516000Y-102740000D03*
X178516000Y-96390000D03*
D15*
X156430000Y-99605000D03*
X162221000Y-99565000D03*
D16*
X157141000Y-102740000D03*
X157141000Y-96390000D03*
X161586000Y-102740000D03*
X161586000Y-96390000D03*
D15*
X139500000Y-99605000D03*
X145291000Y-99565000D03*
D16*
X140211000Y-102740000D03*
X140211000Y-96390000D03*
X144656000Y-102740000D03*
X144656000Y-96390000D03*
D15*
X122560000Y-99605000D03*
X128351000Y-99565000D03*
D16*
X123271000Y-102740000D03*
X123271000Y-96390000D03*
X127716000Y-102740000D03*
X127716000Y-96390000D03*
D15*
X105630000Y-99605000D03*
X111421000Y-99565000D03*
D16*
X106341000Y-102740000D03*
X106341000Y-96390000D03*
X110786000Y-102740000D03*
X110786000Y-96390000D03*
D15*
X88700000Y-99605000D03*
X94491000Y-99565000D03*
D16*
X89411000Y-102740000D03*
X89411000Y-96390000D03*
X93856000Y-102740000D03*
X93856000Y-96390000D03*
D17*
X127716000Y-96390000D02*
X129661400Y-94444600D01*
X129661400Y-94444600D02*
X145899300Y-94444600D01*
X145899300Y-94444600D02*
X147214700Y-95760000D01*
X148340000Y-95760000D02*
X147214700Y-95760000D01*
X94491000Y-99565000D02*
X100513600Y-99565000D01*
X100513600Y-99565000D02*
X105734000Y-94344600D01*
X105734000Y-94344600D02*
X117524600Y-94344600D01*
X117524600Y-94344600D02*
X118750000Y-95570000D01*
X196091000Y-99565000D02*
X190041800Y-93515800D01*
X190041800Y-93515800D02*
X154744200Y-93515800D01*
X154744200Y-93515800D02*
X152590000Y-95670000D01*
X105630000Y-99605000D02*
X106719400Y-100694400D01*
X106719400Y-100694400D02*
X127221600Y-100694400D01*
X127221600Y-100694400D02*
X128351000Y-99565000D01*
X152590000Y-103290000D02*
X153715300Y-103290000D01*
X165151000Y-103530000D02*
X163975700Y-103530000D01*
X163975700Y-103530000D02*
X163582200Y-103923500D01*
X163582200Y-103923500D02*
X154348800Y-103923500D01*
X154348800Y-103923500D02*
X153715300Y-103290000D01*
X119312700Y-103190000D02*
X120654800Y-104532100D01*
X120654800Y-104532100D02*
X150222600Y-104532100D01*
X150222600Y-104532100D02*
X151464700Y-103290000D01*
X152590000Y-103290000D02*
X151464700Y-103290000D01*
X119312700Y-103190000D02*
X118285300Y-104217400D01*
X118285300Y-104217400D02*
X99882700Y-104217400D01*
X99882700Y-104217400D02*
X98665300Y-103000000D01*
X97540000Y-103000000D02*
X98665300Y-103000000D01*
X118750000Y-103190000D02*
X119312700Y-103190000D01*
X139500000Y-99605000D02*
X140567300Y-100672300D01*
X140567300Y-100672300D02*
X155362700Y-100672300D01*
X155362700Y-100672300D02*
X156430000Y-99605000D01*
X122560000Y-99605000D02*
X123935700Y-98229300D01*
X123935700Y-98229300D02*
X138085600Y-98229300D01*
X138085600Y-98229300D02*
X138322300Y-98466000D01*
X138322300Y-98466000D02*
X144192000Y-98466000D01*
X144192000Y-98466000D02*
X145291000Y-99565000D01*
X133153300Y-96875600D02*
X133843100Y-97565400D01*
X133843100Y-97565400D02*
X138058600Y-97565400D01*
X138058600Y-97565400D02*
X138508900Y-98015700D01*
X138508900Y-98015700D02*
X162209600Y-98015700D01*
X162209600Y-98015700D02*
X162636500Y-98442600D01*
X162636500Y-98442600D02*
X180747300Y-98442600D01*
X180747300Y-98442600D02*
X185684700Y-103380000D01*
X186810000Y-103380000D02*
X185684700Y-103380000D01*
X131978000Y-96875600D02*
X133153300Y-96875600D01*
X131978000Y-99415600D02*
X130802700Y-99415600D01*
X114700000Y-103090000D02*
X115825300Y-103090000D01*
X115825300Y-103090000D02*
X117507500Y-101407800D01*
X117507500Y-101407800D02*
X128810500Y-101407800D01*
X128810500Y-101407800D02*
X130802700Y-99415600D01*
X182570000Y-103190000D02*
X181444700Y-103190000D01*
X131978000Y-99415600D02*
X133153300Y-99415600D01*
X133153300Y-99415600D02*
X135134600Y-101396900D01*
X135134600Y-101396900D02*
X179651600Y-101396900D01*
X179651600Y-101396900D02*
X181444700Y-103190000D01*
X135810000Y-103190000D02*
X136935300Y-103190000D01*
X148340000Y-103380000D02*
X147214700Y-103380000D01*
X147214700Y-103380000D02*
X146677600Y-103917100D01*
X146677600Y-103917100D02*
X137662400Y-103917100D01*
X137662400Y-103917100D02*
X136935300Y-103190000D01*
X189187900Y-97574100D02*
X189826900Y-97574100D01*
X189826900Y-97574100D02*
X191011000Y-96390000D01*
X174071000Y-96390000D02*
X175255100Y-97574100D01*
X175255100Y-97574100D02*
X189187900Y-97574100D01*
X189187900Y-97574100D02*
X189187900Y-100916900D01*
X189187900Y-100916900D02*
X191011000Y-102740000D01*
X89794900Y-100818200D02*
X89794900Y-102356100D01*
X89794900Y-102356100D02*
X89411000Y-102740000D01*
X89411000Y-96390000D02*
X89794900Y-96773900D01*
X89794900Y-96773900D02*
X89794900Y-100818200D01*
X89794900Y-100818200D02*
X104518600Y-100818200D01*
X104518600Y-100818200D02*
X104518600Y-99178700D01*
X104518600Y-99178700D02*
X106113100Y-97584200D01*
X106113100Y-97584200D02*
X106341000Y-97584200D01*
X106341000Y-102740000D02*
X104518600Y-100917600D01*
X104518600Y-100917600D02*
X104518600Y-100818200D01*
X106341000Y-97584200D02*
X123271000Y-97584200D01*
X106341000Y-97584200D02*
X106341000Y-96390000D01*
X123271000Y-97584200D02*
X128200000Y-97584200D01*
X128200000Y-97584200D02*
X130084000Y-95700200D01*
X130084000Y-95700200D02*
X133153400Y-95700200D01*
X133153400Y-95700200D02*
X134199000Y-96745800D01*
X134199000Y-96745800D02*
X138100900Y-96745800D01*
X138100900Y-96745800D02*
X138920500Y-97565400D01*
X138920500Y-97565400D02*
X164250500Y-97565400D01*
X164250500Y-97565400D02*
X164584700Y-97231200D01*
X123271000Y-96390000D02*
X123271000Y-97584200D01*
X165760000Y-97231200D02*
X164584700Y-97231200D01*
X140211000Y-96390000D02*
X141425200Y-95175800D01*
X141425200Y-95175800D02*
X145104100Y-95175800D01*
X145104100Y-95175800D02*
X146867400Y-96939100D01*
X146867400Y-96939100D02*
X153394300Y-96939100D01*
X153394300Y-96939100D02*
X155642200Y-94691200D01*
X155642200Y-94691200D02*
X165760000Y-94691200D01*
M02*
