M48
; DRILL file {KiCad 8.0.2-1} date 2024-08-11T12:55:13+1000
; FORMAT={-:-/ absolute / metric / decimal}
; #@! TF.CreationDate,2024-08-11T12:55:13+10:00
; #@! TF.GenerationSoftware,Kicad,Pcbnew,8.0.2-1
; #@! TF.FileFunction,Plated,1,2,PTH
FMAT,2
METRIC
; #@! TA.AperFunction,Plated,PTH,ViaDrill
T1C0.400
; #@! TA.AperFunction,Plated,PTH,ComponentDrill
T2C0.900
; #@! TA.AperFunction,Plated,PTH,ComponentDrill
T3C0.950
; #@! TA.AperFunction,Plated,PTH,ComponentDrill
T4C1.000
; #@! TA.AperFunction,Plated,PTH,ComponentDrill
T5C1.400
%
G90
G05
T1
X116.512Y-108.104
X120.671Y-111.365
X121.216Y-101.686
X123.124Y-127.757
X123.15Y-126.516
X128.771Y-134.417
X129.7Y-86.168
X130.663Y-108.314
X139.094Y-84.441
X144.796Y-86.139
X149.239Y-128.223
X150.037Y-88.576
X160.624Y-111.502
T2
X118.2Y-80.65
X118.2Y-84.225
X118.2Y-87.8
X118.2Y-91.375
X118.2Y-94.95
X118.2Y-98.525
X118.2Y-102.1
X118.2Y-105.675
X118.2Y-109.25
X125.82Y-80.65
X125.82Y-84.225
X125.82Y-87.8
X125.82Y-91.375
X125.82Y-94.95
X125.82Y-98.525
X125.82Y-102.1
X125.82Y-105.675
X125.82Y-109.25
T3
X104.275Y-80.9
X106.55Y-116.9
X106.775Y-80.9
X109.05Y-116.9
X109.275Y-80.9
X111.55Y-116.9
X111.775Y-80.9
X150.875Y-114.8
X153.375Y-114.8
X155.875Y-114.8
X161.455Y-82.2
X163.955Y-82.2
X166.455Y-82.2
T4
X95.6Y-80.925
X98.1Y-80.925
X109.775Y-129.4
X109.775Y-131.94
X112.315Y-129.4
X112.315Y-131.94
X114.855Y-129.4
X114.855Y-131.94
X117.395Y-129.4
X117.395Y-131.94
X119.935Y-129.4
X119.935Y-131.94
X122.475Y-129.4
X122.475Y-131.94
X125.015Y-129.4
X125.015Y-131.94
X125.6Y-117.5
X125.6Y-120.0
X127.555Y-129.4
X127.555Y-131.94
X130.095Y-129.4
X130.095Y-131.94
X132.635Y-129.4
X132.635Y-131.94
X135.175Y-129.4
X135.175Y-131.94
X137.715Y-129.4
X137.715Y-131.94
X140.255Y-129.4
X140.255Y-131.94
X142.795Y-129.4
X142.795Y-131.94
X145.335Y-129.4
X145.335Y-131.94
X147.875Y-129.4
X147.875Y-131.94
X150.415Y-129.4
X150.415Y-131.94
X163.2Y-39.76
X163.2Y-42.26
T5
X72.225Y-121.3
X72.225Y-126.994
X72.475Y-58.5
X72.475Y-64.194
X75.072Y-116.369
X75.072Y-131.925
X75.322Y-53.569
X75.322Y-69.125
X80.003Y-113.522
X80.003Y-134.772
X80.253Y-50.722
X80.253Y-71.972
X85.678Y-121.319
X85.697Y-113.522
X85.697Y-134.772
X85.928Y-58.519
X85.947Y-50.722
X85.947Y-71.972
X90.628Y-116.369
X90.628Y-131.925
X90.878Y-53.569
X90.878Y-69.125
X93.475Y-121.3
X93.475Y-126.994
X93.725Y-58.5
X93.725Y-64.194
X102.475Y-58.5
X102.475Y-64.194
X105.322Y-53.569
X105.322Y-69.125
X110.253Y-50.722
X110.253Y-71.972
X115.928Y-58.519
X115.947Y-50.722
X115.947Y-71.972
X120.878Y-53.569
X120.878Y-69.125
X123.725Y-58.5
X123.725Y-64.194
X132.475Y-58.5
X132.475Y-64.194
X133.028Y-91.475
X133.028Y-97.169
X135.322Y-53.569
X135.322Y-69.125
X135.875Y-86.544
X135.875Y-102.1
X140.253Y-50.722
X140.253Y-71.972
X140.806Y-83.697
X140.806Y-104.947
X145.928Y-58.519
X145.947Y-50.722
X145.947Y-71.972
X146.481Y-91.494
X146.5Y-83.697
X146.5Y-104.947
X150.878Y-53.569
X150.878Y-69.125
X151.431Y-86.544
X151.431Y-102.1
X153.725Y-58.5
X153.725Y-64.194
X154.278Y-91.475
X154.278Y-97.169
X162.475Y-58.5
X162.475Y-64.194
X162.725Y-121.031
X162.725Y-126.725
X165.322Y-53.569
X165.322Y-69.125
X165.572Y-116.1
X165.572Y-131.656
X170.253Y-50.722
X170.253Y-71.972
X170.503Y-113.253
X170.503Y-134.503
X170.522Y-121.05
X175.928Y-58.519
X175.947Y-50.722
X175.947Y-71.972
X176.197Y-113.253
X176.197Y-134.503
X180.878Y-53.569
X180.878Y-69.125
X181.128Y-116.1
X181.128Y-131.656
X183.725Y-58.5
X183.725Y-64.194
X183.975Y-121.031
X183.975Y-126.725
M30
