%TF.GenerationSoftware,KiCad,Pcbnew,8.0.2-1*%
%TF.CreationDate,2024-08-11T12:55:08+10:00*%
%TF.ProjectId,VHF-AM-ROTARIES,5648462d-414d-42d5-924f-544152494553,rev?*%
%TF.SameCoordinates,Original*%
%TF.FileFunction,Profile,NP*%
%FSLAX46Y46*%
G04 Gerber Fmt 4.6, Leading zero omitted, Abs format (unit mm)*
G04 Created by KiCad (PCBNEW 8.0.2-1) date 2024-08-11 12:55:08*
%MOMM*%
%LPD*%
G01*
G04 APERTURE LIST*
%TA.AperFunction,Profile*%
%ADD10C,0.100000*%
%TD*%
%TA.AperFunction,Profile*%
%ADD11C,0.150000*%
%TD*%
G04 APERTURE END LIST*
D10*
X187266942Y-39403884D02*
G75*
G02*
X183859174Y-39403884I-1703884J0D01*
G01*
X183859174Y-39403884D02*
G75*
G02*
X187266942Y-39403884I1703884J0D01*
G01*
X129803884Y-39403884D02*
G75*
G02*
X126396116Y-39403884I-1703884J0D01*
G01*
X126396116Y-39403884D02*
G75*
G02*
X129803884Y-39403884I1703884J0D01*
G01*
D11*
X95067798Y-94300000D02*
G75*
G02*
X70075000Y-94300000I-12496399J0D01*
G01*
X70075000Y-94300000D02*
G75*
G02*
X95067798Y-94300000I12496399J0D01*
G01*
D10*
X187318884Y-139230000D02*
G75*
G02*
X183911116Y-139230000I-1703884J0D01*
G01*
X183911116Y-139230000D02*
G75*
G02*
X187318884Y-139230000I1703884J0D01*
G01*
X67400000Y-35600000D02*
X188800000Y-35600000D01*
X188800000Y-142700000D01*
X67400000Y-142700000D01*
X67400000Y-35600000D01*
X103600000Y-90200000D02*
X114600000Y-90200000D01*
X114600000Y-103200000D01*
X103600000Y-103200000D01*
X103600000Y-90200000D01*
X99278884Y-94200000D02*
G75*
G02*
X95871116Y-94200000I-1703884J0D01*
G01*
X95871116Y-94200000D02*
G75*
G02*
X99278884Y-94200000I1703884J0D01*
G01*
X72340826Y-39403884D02*
G75*
G02*
X68933058Y-39403884I-1703884J0D01*
G01*
X68933058Y-39403884D02*
G75*
G02*
X72340826Y-39403884I1703884J0D01*
G01*
X134800000Y-111900000D02*
X145800000Y-111900000D01*
X145800000Y-124900000D01*
X134800000Y-124900000D01*
X134800000Y-111900000D01*
X72288884Y-139230000D02*
G75*
G02*
X68881116Y-139230000I-1703884J0D01*
G01*
X68881116Y-139230000D02*
G75*
G02*
X72288884Y-139230000I1703884J0D01*
G01*
X187516942Y-94300000D02*
G75*
G02*
X184109174Y-94300000I-1703884J0D01*
G01*
X184109174Y-94300000D02*
G75*
G02*
X187516942Y-94300000I1703884J0D01*
G01*
X165600000Y-88500000D02*
X176600000Y-88500000D01*
X176600000Y-101500000D01*
X165600000Y-101500000D01*
X165600000Y-88500000D01*
X129803884Y-139230000D02*
G75*
G02*
X126396116Y-139230000I-1703884J0D01*
G01*
X126396116Y-139230000D02*
G75*
G02*
X129803884Y-139230000I1703884J0D01*
G01*
X150700000Y-37900000D02*
X157500000Y-37900000D01*
X157500000Y-44100000D01*
X150700000Y-44100000D01*
X150700000Y-37900000D01*
M02*
