  0
SECTION
  2
HEADER
  9
$ANGBASE
  50
0.0
  9
$ANGDIR
  70
1
  9
$MEASUREMENT
  70
1
  0
ENDSEC
  0
SECTION
  2
TABLES
  0
TABLE
  2
LTYPE
  70
4
  0
LTYPE
  5
40F
  2
CONTINUOUS
  70
0
  3
Solid line
  72
65
  73
0
  40
0.0
  0
LTYPE
  5
410
  2
DASHDOT
 70
0
  3
Dash Dot ____ _ ____ _
 72
65
 73
4
 40
2.0
 49
1.25
 49
-0.25
 49
0.25
 49
-0.25
  0
LTYPE
  5
411
  2
DASHED
 70
0
  3
Dashed __ __ __ __ __
 72
65
 73
2
 40
0.75
 49
0.5
 49
-0.25
  0
LTYPE
  5
43B
  2
DOTTED
 70
0
  3
Dotted .  .  .  .
 72
65
 73
2
 40
0.2
 49
0.0
 49
-0.2
  0
ENDTAB
  0
TABLE
  2
STYLE
  70
4
  0
STYLE
  2
KICAD
  70
0
  40
0
  41
1
  42
1
  50
0
  71
0
  3
isocp.shx
  0
STYLE
  2
KICADB
  70
0
  40
0
  41
1
  42
1
  50
0
  71
0
  3
isocp.shx
  0
STYLE
  2
KICADI
  70
0
  40
0
  41
1
  42
1
  50
15
  71
0
  3
isocp.shx
  0
STYLE
  2
KICADBI
  70
0
  40
0
  41
1
  42
1
  50
15
  71
0
  3
isocp.shx
  0
ENDTAB
  0
TABLE
  2
LAYER
  70
1
  0
LAYER
  2
BLACK
  70
0
  62
7
  6
CONTINUOUS
  0
ENDTAB
  0
ENDSEC
  0
SECTION
  2
ENTITIES
0
CIRCLE
8
BLACK
10
89.9307
20
-18.3763
40
1.1
0
CIRCLE
8
BLACK
10
96.3564
20
-16.2885
40
3.175
0
LINE
8
BLACK
6
CONTINUOUS
10
126.464
20
-9.144
11
66.1064
21
-9.1765
0
CIRCLE
8
BLACK
10
25.9874
20
-164.503
40
5
0
CIRCLE
8
BLACK
10
59.2347
20
-17.9864
40
1.35255
0
CIRCLE
8
BLACK
10
171.796
20
-113.792
40
1.35255
0
ARC
8
BLACK
10
50.6041
20
-145.293
40
16.4411
50
180
51
270
0
CIRCLE
8
BLACK
10
157.512
20
-174.434
40
1.35255
0
CIRCLE
8
BLACK
10
35.2742
20
-174.434
40
1.35255
0
LINE
8
BLACK
6
CONTINUOUS
10
158.623
20
-145.293
11
158.623
21
-53.7156
0
ARC
8
BLACK
10
142.182
20
-53.7156
40
16.4411
50
-0
51
90
0
LINE
8
BLACK
6
CONTINUOUS
10
142.182
20
-37.2745
11
50.6041
21
-37.2745
0
LINE
8
BLACK
6
CONTINUOUS
10
50.6041
20
-161.734
11
142.182
21
-161.734
0
CIRCLE
8
BLACK
10
166.799
20
-164.503
40
5
0
ARC
8
BLACK
10
126.464
20
-9.652
40
0.508
50
48.7188
51
90
0
LINE
8
BLACK
6
CONTINUOUS
10
17.3038
20
-52.2408
11
17.3038
21
-176.022
0
LINE
8
BLACK
6
CONTINUOUS
10
17.8117
20
-176.53
11
174.974
21
-176.53
0
LINE
8
BLACK
6
CONTINUOUS
10
175.309
20
-51.859
11
126.8
21
-9.27025
0
ARC
8
BLACK
10
174.974
20
-52.2408
40
0.508
50
-0
51
48.7188
0
ARC
8
BLACK
10
142.182
20
-145.293
40
16.4411
50
-90
51
-0
0
LINE
8
BLACK
6
CONTINUOUS
10
34.163
20
-53.7156
11
34.163
21
-145.293
0
CIRCLE
8
BLACK
10
133.551
20
-17.9864
40
1.35255
0
CIRCLE
8
BLACK
10
20.9899
20
-113.792
40
1.35255
0
LINE
8
BLACK
6
CONTINUOUS
10
175.482
20
-176.022
11
175.482
21
-52.2408
0
ARC
8
BLACK
10
174.974
20
-176.022
40
0.508
50
-90
51
-0
0
ARC
8
BLACK
10
17.8117
20
-52.2408
40
0.508
50
131.281
51
180
0
ARC
8
BLACK
10
50.6041
20
-53.7156
40
16.4411
50
90
51
180
0
ARC
8
BLACK
10
17.8117
20
-176.022
40
0.508
50
180
51
270
0
LINE
8
BLACK
6
CONTINUOUS
10
66.1064
20
-9.1765
11
17.4766
21
-51.859
0
LINE
8
BLACK
6
CONTINUOUS
10
17.6363
20
-183.687
11
17.6363
21
-180.687
0
LINE
8
BLACK
6
CONTINUOUS
10
17.6363
20
-180.687
11
18.3506
21
-180.687
0
LINE
8
BLACK
6
CONTINUOUS
10
18.3506
20
-180.687
11
18.7791
21
-180.83
0
LINE
8
BLACK
6
CONTINUOUS
10
18.7791
20
-180.83
11
19.0649
21
-181.116
0
LINE
8
BLACK
6
CONTINUOUS
10
19.0649
20
-181.116
11
19.2077
21
-181.401
0
LINE
8
BLACK
6
CONTINUOUS
10
19.2077
20
-181.401
11
19.3506
21
-181.973
0
LINE
8
BLACK
6
CONTINUOUS
10
19.3506
20
-181.973
11
19.3506
21
-182.401
0
LINE
8
BLACK
6
CONTINUOUS
10
19.3506
20
-182.401
11
19.2077
21
-182.973
0
LINE
8
BLACK
6
CONTINUOUS
10
19.2077
20
-182.973
11
19.0649
21
-183.259
0
LINE
8
BLACK
6
CONTINUOUS
10
19.0649
20
-183.259
11
18.7791
21
-183.544
0
LINE
8
BLACK
6
CONTINUOUS
10
18.7791
20
-183.544
11
18.3506
21
-183.687
0
LINE
8
BLACK
6
CONTINUOUS
10
18.3506
20
-183.687
11
17.6363
21
-183.687
0
LINE
8
BLACK
6
CONTINUOUS
10
20.6363
20
-183.687
11
20.6363
21
-181.687
0
LINE
8
BLACK
6
CONTINUOUS
10
20.6363
20
-182.259
11
20.7791
21
-181.973
0
LINE
8
BLACK
6
CONTINUOUS
10
20.7791
20
-181.973
11
20.922
21
-181.83
0
LINE
8
BLACK
6
CONTINUOUS
10
20.922
20
-181.83
11
21.2077
21
-181.687
0
LINE
8
BLACK
6
CONTINUOUS
10
21.2077
20
-181.687
11
21.4934
21
-181.687
0
LINE
8
BLACK
6
CONTINUOUS
10
22.4934
20
-183.687
11
22.4934
21
-181.687
0
LINE
8
BLACK
6
CONTINUOUS
10
22.4934
20
-180.687
11
22.3506
21
-180.83
0
LINE
8
BLACK
6
CONTINUOUS
10
22.3506
20
-180.83
11
22.4934
21
-180.973
0
LINE
8
BLACK
6
CONTINUOUS
10
22.4934
20
-180.973
11
22.6363
21
-180.83
0
LINE
8
BLACK
6
CONTINUOUS
10
22.6363
20
-180.83
11
22.4934
21
-180.687
0
LINE
8
BLACK
6
CONTINUOUS
10
22.4934
20
-180.687
11
22.4934
21
-180.973
0
LINE
8
BLACK
6
CONTINUOUS
10
24.3506
20
-183.687
11
24.0649
21
-183.544
0
LINE
8
BLACK
6
CONTINUOUS
10
24.0649
20
-183.544
11
23.922
21
-183.259
0
LINE
8
BLACK
6
CONTINUOUS
10
23.922
20
-183.259
11
23.922
21
-180.687
0
LINE
8
BLACK
6
CONTINUOUS
10
25.922
20
-183.687
11
25.6363
21
-183.544
0
LINE
8
BLACK
6
CONTINUOUS
10
25.6363
20
-183.544
11
25.4934
21
-183.259
0
LINE
8
BLACK
6
CONTINUOUS
10
25.4934
20
-183.259
11
25.4934
21
-180.687
0
LINE
8
BLACK
6
CONTINUOUS
10
29.3506
20
-183.687
11
29.3506
21
-180.687
0
LINE
8
BLACK
6
CONTINUOUS
10
29.3506
20
-180.687
11
30.3506
21
-182.83
0
LINE
8
BLACK
6
CONTINUOUS
10
30.3506
20
-182.83
11
31.3506
21
-180.687
0
LINE
8
BLACK
6
CONTINUOUS
10
31.3506
20
-180.687
11
31.3506
21
-183.687
0
LINE
8
BLACK
6
CONTINUOUS
10
34.0649
20
-183.687
11
34.0649
21
-182.116
0
LINE
8
BLACK
6
CONTINUOUS
10
34.0649
20
-182.116
11
33.922
21
-181.83
0
LINE
8
BLACK
6
CONTINUOUS
10
33.922
20
-181.83
11
33.6363
21
-181.687
0
LINE
8
BLACK
6
CONTINUOUS
10
33.6363
20
-181.687
11
33.0649
21
-181.687
0
LINE
8
BLACK
6
CONTINUOUS
10
33.0649
20
-181.687
11
32.7791
21
-181.83
0
LINE
8
BLACK
6
CONTINUOUS
10
34.0649
20
-183.544
11
33.7791
21
-183.687
0
LINE
8
BLACK
6
CONTINUOUS
10
33.7791
20
-183.687
11
33.0649
21
-183.687
0
LINE
8
BLACK
6
CONTINUOUS
10
33.0649
20
-183.687
11
32.7791
21
-183.544
0
LINE
8
BLACK
6
CONTINUOUS
10
32.7791
20
-183.544
11
32.6363
21
-183.259
0
LINE
8
BLACK
6
CONTINUOUS
10
32.6363
20
-183.259
11
32.6363
21
-182.973
0
LINE
8
BLACK
6
CONTINUOUS
10
32.6363
20
-182.973
11
32.7791
21
-182.687
0
LINE
8
BLACK
6
CONTINUOUS
10
32.7791
20
-182.687
11
33.0649
21
-182.544
0
LINE
8
BLACK
6
CONTINUOUS
10
33.0649
20
-182.544
11
33.7791
21
-182.544
0
LINE
8
BLACK
6
CONTINUOUS
10
33.7791
20
-182.544
11
34.0649
21
-182.401
0
LINE
8
BLACK
6
CONTINUOUS
10
35.4934
20
-181.687
11
35.4934
21
-184.687
0
LINE
8
BLACK
6
CONTINUOUS
10
35.4934
20
-181.83
11
35.7791
21
-181.687
0
LINE
8
BLACK
6
CONTINUOUS
10
35.7791
20
-181.687
11
36.3506
21
-181.687
0
LINE
8
BLACK
6
CONTINUOUS
10
36.3506
20
-181.687
11
36.6363
21
-181.83
0
LINE
8
BLACK
6
CONTINUOUS
10
36.6363
20
-181.83
11
36.7791
21
-181.973
0
LINE
8
BLACK
6
CONTINUOUS
10
36.7791
20
-181.973
11
36.922
21
-182.259
0
LINE
8
BLACK
6
CONTINUOUS
10
36.922
20
-182.259
11
36.922
21
-183.116
0
LINE
8
BLACK
6
CONTINUOUS
10
36.922
20
-183.116
11
36.7791
21
-183.401
0
LINE
8
BLACK
6
CONTINUOUS
10
36.7791
20
-183.401
11
36.6363
21
-183.544
0
LINE
8
BLACK
6
CONTINUOUS
10
36.6363
20
-183.544
11
36.3506
21
-183.687
0
LINE
8
BLACK
6
CONTINUOUS
10
36.3506
20
-183.687
11
35.7791
21
-183.687
0
LINE
8
BLACK
6
CONTINUOUS
10
35.7791
20
-183.687
11
35.4934
21
-183.544
0
LINE
8
BLACK
6
CONTINUOUS
10
38.2077
20
-183.401
11
38.3506
21
-183.544
0
LINE
8
BLACK
6
CONTINUOUS
10
38.3506
20
-183.544
11
38.2077
21
-183.687
0
LINE
8
BLACK
6
CONTINUOUS
10
38.2077
20
-183.687
11
38.0649
21
-183.544
0
LINE
8
BLACK
6
CONTINUOUS
10
38.0649
20
-183.544
11
38.2077
21
-183.401
0
LINE
8
BLACK
6
CONTINUOUS
10
38.2077
20
-183.401
11
38.2077
21
-183.687
0
LINE
8
BLACK
6
CONTINUOUS
10
38.2077
20
-181.83
11
38.3506
21
-181.973
0
LINE
8
BLACK
6
CONTINUOUS
10
38.3506
20
-181.973
11
38.2077
21
-182.116
0
LINE
8
BLACK
6
CONTINUOUS
10
38.2077
20
-182.116
11
38.0649
21
-181.973
0
LINE
8
BLACK
6
CONTINUOUS
10
38.0649
20
-181.973
11
38.2077
21
-181.83
0
LINE
8
BLACK
6
CONTINUOUS
10
38.2077
20
-181.83
11
38.2077
21
-182.116
  0
ENDSEC
  0
EOF
