<?xml version="1.0" standalone="no"?>
 <!DOCTYPE svg PUBLIC "-//W3C//DTD SVG 1.1//EN" 
 "http://www.w3.org/Graphics/SVG/1.1/DTD/svg11.dtd"> 
<svg xmlns="http://www.w3.org/2000/svg" version="1.1" 
    width="29.7002cm" height="21.0007cm" viewBox="0 0 116930 82680 ">
<title>SVG Picture created as OH - Left Console 5 - Fuel Panel-PTH-drl_map.svg date 2021/02/06 13:08:30 </title>
  <desc>Picture generated by PCBNEW </desc>
<g style="fill:#000000; fill-opacity:1;stroke:#000000; stroke-opacity:1;
stroke-linecap:round; stroke-linejoin:round; "
 transform="translate(0 0) scale(1 1)">
</g>
<g style="fill:#000000; fill-opacity:0.0; 
stroke:#000000; stroke-width:-0.000393701; stroke-opacity:1; 
stroke-linecap:round; stroke-linejoin:round;">
</g>
<g style="fill:#000000; fill-opacity:0.0; 
stroke:#000000; stroke-width:19.685; stroke-opacity:1; 
stroke-linecap:round; stroke-linejoin:round;">
<path d="M57150 40387
L57150 18650
" />
<path d="M37464 18650
L37464 40387
" />
<path d="M37464 40387
L57150 40387
" />
<path d="M37464 18650
L57150 18650
" />
</g>
<g style="fill:#000000; fill-opacity:0.0; 
stroke:#000000; stroke-width:78.7402; stroke-opacity:1; 
stroke-linecap:round; stroke-linejoin:round;">
<path d="M39242 26542
L39557 26857
" />
<path d="M39557 26542
L39242 26857
" />
<path d="M42242 26542
L42557 26857
" />
<path d="M42557 26542
L42242 26857
" />
<path d="M43892 26542
L44207 26857
" />
<path d="M44207 26542
L43892 26857
" />
<path d="M46892 26542
L47207 26857
" />
<path d="M47207 26542
L46892 26857
" />
<path d="M52542 26542
L52857 26857
" />
<path d="M52857 26542
L52542 26857
" />
<path d="M55542 26542
L55857 26857
" />
<path d="M55857 26542
L55542 26857
" />
<path d="M45642 37779
L45957 38094
" />
<path d="M45957 37779
L45642 38094
" />
<path d="M48642 37779
L48957 38094
" />
<path d="M48957 37779
L48642 38094
" />
<path d="M48242 26492
L48557 26807
" />
<path d="M48557 26492
L48242 26807
" />
<path d="M51242 26492
L51557 26807
" />
<path d="M51557 26492
L51242 26807
" />
<circle cx="48300" cy="32799.6" r="236.22" /> 
<circle cx="49300" cy="32799.6" r="236.22" /> 
<circle cx="50300" cy="32799.6" r="236.22" /> 
<circle cx="43000" cy="37987" r="236.22" /> 
<circle cx="44000" cy="37987" r="236.22" /> 
<circle cx="39700" cy="32799.6" r="236.22" /> 
<circle cx="40700" cy="32799.6" r="236.22" /> 
<circle cx="43500" cy="32799.6" r="236.22" /> 
<circle cx="44500" cy="32799.6" r="236.22" /> 
<circle cx="45500" cy="32799.6" r="236.22" /> 
<circle cx="50500" cy="23600" r="236.22" /> 
<circle cx="51500" cy="23600" r="236.22" /> 
<circle cx="54550" cy="23600" r="236.22" /> 
<circle cx="55550" cy="23600" r="236.22" /> 
<circle cx="50800" cy="37987" r="236.22" /> 
<circle cx="51800" cy="37987" r="236.22" /> 
<circle cx="53100" cy="32899.6" r="236.22" /> 
<circle cx="54100" cy="32899.6" r="236.22" /> 
<circle cx="55100" cy="32899.6" r="236.22" /> 
<circle cx="43050" cy="23600" r="236.22" /> 
<circle cx="44050" cy="23600" r="236.22" /> 
<circle cx="45050" cy="23600" r="236.22" /> 
<circle cx="46050" cy="23600" r="236.22" /> 
<circle cx="39550" cy="23600" r="236.22" /> 
<circle cx="40550" cy="23600" r="236.22" /> 
</g>
<g style="fill:#000000; fill-opacity:0.0; 
stroke:#000000; stroke-width:118.11; stroke-opacity:1; 
stroke-linecap:round; stroke-linejoin:round;">
<text x="38242.5" y="42286.6"
textLength="8738.19" font-size="1574.8" lengthAdjust="spacingAndGlyphs"
text-anchor="start" opacity="0">Drill Map:</text>
<path d="M38582 42230
L38582 41049
L38864 41049
L39032 41105
L39145 41217
L39201 41330
L39257 41555
L39257 41724
L39201 41949
L39145 42061
L39032 42174
L38864 42230
L38582 42230
" />
<path d="M39763 42230
L39763 41442
" />
<path d="M39763 41667
L39820 41555
L39876 41499
L39988 41442
L40101 41442
" />
<path d="M40495 42230
L40495 41442
" />
<path d="M40495 41049
L40438 41105
L40495 41161
L40551 41105
L40495 41049
L40495 41161
" />
<path d="M41226 42230
L41113 42174
L41057 42061
L41057 41049
" />
<path d="M41844 42230
L41732 42174
L41676 42061
L41676 41049
" />
<path d="M43194 42230
L43194 41049
L43588 41892
L43982 41049
L43982 42230
" />
<path d="M45050 42230
L45050 41611
L44994 41499
L44882 41442
L44657 41442
L44544 41499
" />
<path d="M45050 42174
L44938 42230
L44657 42230
L44544 42174
L44488 42061
L44488 41949
L44544 41836
L44657 41780
L44938 41780
L45050 41724
" />
<path d="M45613 41442
L45613 42624
" />
<path d="M45613 41499
L45725 41442
L45950 41442
L46063 41499
L46119 41555
L46175 41667
L46175 42005
L46119 42117
L46063 42174
L45950 42230
L45725 42230
L45613 42174
" />
<path d="M46681 42117
L46738 42174
L46681 42230
L46625 42174
L46681 42117
L46681 42230
" />
<path d="M46681 41499
L46738 41555
L46681 41611
L46625 41555
L46681 41499
L46681 41611
" />
<path d="M37140 44018
L37455 44333
" />
<path d="M37455 44018
L37140 44333
" />
<text x="38242.5" y="44766.9"
textLength="26552.3" font-size="1574.8" lengthAdjust="spacingAndGlyphs"
text-anchor="start" opacity="0">0.80mm / 0.031" (10 holes)</text>
<path d="M38807 43529
L38920 43529
L39032 43585
L39088 43642
L39145 43754
L39201 43979
L39201 44260
L39145 44485
L39088 44598
L39032 44654
L38920 44710
L38807 44710
L38695 44654
L38639 44598
L38582 44485
L38526 44260
L38526 43979
L38582 43754
L38639 43642
L38695 43585
L38807 43529
" />
<path d="M39707 44598
L39763 44654
L39707 44710
L39651 44654
L39707 44598
L39707 44710
" />
<path d="M40438 44035
L40326 43979
L40270 43923
L40213 43810
L40213 43754
L40270 43642
L40326 43585
L40438 43529
L40663 43529
L40776 43585
L40832 43642
L40888 43754
L40888 43810
L40832 43923
L40776 43979
L40663 44035
L40438 44035
L40326 44092
L40270 44148
L40213 44260
L40213 44485
L40270 44598
L40326 44654
L40438 44710
L40663 44710
L40776 44654
L40832 44598
L40888 44485
L40888 44260
L40832 44148
L40776 44092
L40663 44035
" />
<path d="M41619 43529
L41732 43529
L41844 43585
L41901 43642
L41957 43754
L42013 43979
L42013 44260
L41957 44485
L41901 44598
L41844 44654
L41732 44710
L41619 44710
L41507 44654
L41451 44598
L41394 44485
L41338 44260
L41338 43979
L41394 43754
L41451 43642
L41507 43585
L41619 43529
" />
<path d="M42519 44710
L42519 43923
" />
<path d="M42519 44035
L42576 43979
L42688 43923
L42857 43923
L42969 43979
L43025 44092
L43025 44710
" />
<path d="M43025 44092
L43082 43979
L43194 43923
L43363 43923
L43475 43979
L43532 44092
L43532 44710
" />
<path d="M44094 44710
L44094 43923
" />
<path d="M44094 44035
L44150 43979
L44263 43923
L44432 43923
L44544 43979
L44600 44092
L44600 44710
" />
<path d="M44600 44092
L44657 43979
L44769 43923
L44938 43923
L45050 43979
L45106 44092
L45106 44710
" />
<path d="M47412 43473
L46400 44991
" />
<path d="M48931 43529
L49043 43529
L49156 43585
L49212 43642
L49268 43754
L49325 43979
L49325 44260
L49268 44485
L49212 44598
L49156 44654
L49043 44710
L48931 44710
L48819 44654
L48762 44598
L48706 44485
L48650 44260
L48650 43979
L48706 43754
L48762 43642
L48819 43585
L48931 43529
" />
<path d="M49831 44598
L49887 44654
L49831 44710
L49775 44654
L49831 44598
L49831 44710
" />
<path d="M50618 43529
L50731 43529
L50843 43585
L50899 43642
L50956 43754
L51012 43979
L51012 44260
L50956 44485
L50899 44598
L50843 44654
L50731 44710
L50618 44710
L50506 44654
L50450 44598
L50393 44485
L50337 44260
L50337 43979
L50393 43754
L50450 43642
L50506 43585
L50618 43529
" />
<path d="M51406 43529
L52137 43529
L51743 43979
L51912 43979
L52024 44035
L52081 44092
L52137 44204
L52137 44485
L52081 44598
L52024 44654
L51912 44710
L51574 44710
L51462 44654
L51406 44598
" />
<path d="M53262 44710
L52587 44710
" />
<path d="M52924 44710
L52924 43529
L52812 43698
L52699 43810
L52587 43867
" />
<path d="M53712 43529
L53712 43754
" />
<path d="M54162 43529
L54162 43754
" />
<path d="M55905 45160
L55849 45104
L55736 44935
L55680 44823
L55624 44654
L55568 44373
L55568 44148
L55624 43867
L55680 43698
L55736 43585
L55849 43417
L55905 43360
" />
<path d="M56974 44710
L56299 44710
" />
<path d="M56636 44710
L56636 43529
L56524 43698
L56411 43810
L56299 43867
" />
<path d="M57705 43529
L57817 43529
L57930 43585
L57986 43642
L58042 43754
L58099 43979
L58099 44260
L58042 44485
L57986 44598
L57930 44654
L57817 44710
L57705 44710
L57592 44654
L57536 44598
L57480 44485
L57424 44260
L57424 43979
L57480 43754
L57536 43642
L57592 43585
L57705 43529
" />
<path d="M59505 44710
L59505 43529
" />
<path d="M60011 44710
L60011 44092
L59955 43979
L59842 43923
L59673 43923
L59561 43979
L59505 44035
" />
<path d="M60742 44710
L60630 44654
L60573 44598
L60517 44485
L60517 44148
L60573 44035
L60630 43979
L60742 43923
L60911 43923
L61023 43979
L61079 44035
L61136 44148
L61136 44485
L61079 44598
L61023 44654
L60911 44710
L60742 44710
" />
<path d="M61811 44710
L61698 44654
L61642 44541
L61642 43529
" />
<path d="M62711 44654
L62598 44710
L62373 44710
L62261 44654
L62204 44541
L62204 44092
L62261 43979
L62373 43923
L62598 43923
L62711 43979
L62767 44092
L62767 44204
L62204 44316
" />
<path d="M63217 44654
L63329 44710
L63554 44710
L63667 44654
L63723 44541
L63723 44485
L63667 44373
L63554 44316
L63385 44316
L63273 44260
L63217 44148
L63217 44092
L63273 43979
L63385 43923
L63554 43923
L63667 43979
" />
<path d="M64117 45160
L64173 45104
L64285 44935
L64342 44823
L64398 44654
L64454 44373
L64454 44148
L64398 43867
L64342 43698
L64285 43585
L64173 43417
L64117 43360
" />
<circle cx="37218.9" cy="45735.4" r="236.22" /> 
<text x="38242.5" y="46326"
textLength="26552.3" font-size="1574.8" lengthAdjust="spacingAndGlyphs"
text-anchor="start" opacity="0">1.20mm / 0.047" (25 holes)</text>
<path d="M39201 46269
L38526 46269
" />
<path d="M38864 46269
L38864 45088
L38751 45257
L38639 45369
L38526 45426
" />
<path d="M39707 46157
L39763 46213
L39707 46269
L39651 46213
L39707 46157
L39707 46269
" />
<path d="M40213 45201
L40270 45144
L40382 45088
L40663 45088
L40776 45144
L40832 45201
L40888 45313
L40888 45426
L40832 45594
L40157 46269
L40888 46269
" />
<path d="M41619 45088
L41732 45088
L41844 45144
L41901 45201
L41957 45313
L42013 45538
L42013 45819
L41957 46044
L41901 46157
L41844 46213
L41732 46269
L41619 46269
L41507 46213
L41451 46157
L41394 46044
L41338 45819
L41338 45538
L41394 45313
L41451 45201
L41507 45144
L41619 45088
" />
<path d="M42519 46269
L42519 45482
" />
<path d="M42519 45594
L42576 45538
L42688 45482
L42857 45482
L42969 45538
L43025 45651
L43025 46269
" />
<path d="M43025 45651
L43082 45538
L43194 45482
L43363 45482
L43475 45538
L43532 45651
L43532 46269
" />
<path d="M44094 46269
L44094 45482
" />
<path d="M44094 45594
L44150 45538
L44263 45482
L44432 45482
L44544 45538
L44600 45651
L44600 46269
" />
<path d="M44600 45651
L44657 45538
L44769 45482
L44938 45482
L45050 45538
L45106 45651
L45106 46269
" />
<path d="M47412 45032
L46400 46550
" />
<path d="M48931 45088
L49043 45088
L49156 45144
L49212 45201
L49268 45313
L49325 45538
L49325 45819
L49268 46044
L49212 46157
L49156 46213
L49043 46269
L48931 46269
L48819 46213
L48762 46157
L48706 46044
L48650 45819
L48650 45538
L48706 45313
L48762 45201
L48819 45144
L48931 45088
" />
<path d="M49831 46157
L49887 46213
L49831 46269
L49775 46213
L49831 46157
L49831 46269
" />
<path d="M50618 45088
L50731 45088
L50843 45144
L50899 45201
L50956 45313
L51012 45538
L51012 45819
L50956 46044
L50899 46157
L50843 46213
L50731 46269
L50618 46269
L50506 46213
L50450 46157
L50393 46044
L50337 45819
L50337 45538
L50393 45313
L50450 45201
L50506 45144
L50618 45088
" />
<path d="M52024 45482
L52024 46269
" />
<path d="M51743 45032
L51462 45876
L52193 45876
" />
<path d="M52531 45088
L53318 45088
L52812 46269
" />
<path d="M53712 45088
L53712 45313
" />
<path d="M54162 45088
L54162 45313
" />
<path d="M55905 46719
L55849 46663
L55736 46494
L55680 46382
L55624 46213
L55568 45932
L55568 45707
L55624 45426
L55680 45257
L55736 45144
L55849 44976
L55905 44919
" />
<path d="M56299 45201
L56355 45144
L56468 45088
L56749 45088
L56861 45144
L56917 45201
L56974 45313
L56974 45426
L56917 45594
L56243 46269
L56974 46269
" />
<path d="M58042 45088
L57480 45088
L57424 45651
L57480 45594
L57592 45538
L57874 45538
L57986 45594
L58042 45651
L58099 45763
L58099 46044
L58042 46157
L57986 46213
L57874 46269
L57592 46269
L57480 46213
L57424 46157
" />
<path d="M59505 46269
L59505 45088
" />
<path d="M60011 46269
L60011 45651
L59955 45538
L59842 45482
L59673 45482
L59561 45538
L59505 45594
" />
<path d="M60742 46269
L60630 46213
L60573 46157
L60517 46044
L60517 45707
L60573 45594
L60630 45538
L60742 45482
L60911 45482
L61023 45538
L61079 45594
L61136 45707
L61136 46044
L61079 46157
L61023 46213
L60911 46269
L60742 46269
" />
<path d="M61811 46269
L61698 46213
L61642 46101
L61642 45088
" />
<path d="M62711 46213
L62598 46269
L62373 46269
L62261 46213
L62204 46101
L62204 45651
L62261 45538
L62373 45482
L62598 45482
L62711 45538
L62767 45651
L62767 45763
L62204 45876
" />
<path d="M63217 46213
L63329 46269
L63554 46269
L63667 46213
L63723 46101
L63723 46044
L63667 45932
L63554 45876
L63385 45876
L63273 45819
L63217 45707
L63217 45651
L63273 45538
L63385 45482
L63554 45482
L63667 45538
" />
<path d="M64117 46719
L64173 46663
L64285 46494
L64342 46382
L64398 46213
L64454 45932
L64454 45707
L64398 45426
L64342 45257
L64285 45144
L64173 44976
L64117 44919
" />
</g> 
</svg>
