<?xml version="1.0" standalone="no"?>
 <!DOCTYPE svg PUBLIC "-//W3C//DTD SVG 1.1//EN" 
 "http://www.w3.org/Graphics/SVG/1.1/DTD/svg11.dtd"> 
<svg xmlns="http://www.w3.org/2000/svg" version="1.1" 
    width="29.7002cm" height="21.0007cm" viewBox="0 0 116930 82680 ">
<title>SVG Picture created as OH - Left Console 5 - Fuel Panel-NPTH-drl_map.svg date 2021/02/06 13:08:30 </title>
  <desc>Picture generated by PCBNEW </desc>
<g style="fill:#000000; fill-opacity:1;stroke:#000000; stroke-opacity:1;
stroke-linecap:round; stroke-linejoin:round; "
 transform="translate(0 0) scale(1 1)">
</g>
<g style="fill:#000000; fill-opacity:0.0; 
stroke:#000000; stroke-width:-0.000393701; stroke-opacity:1; 
stroke-linecap:round; stroke-linejoin:round;">
</g>
<g style="fill:#000000; fill-opacity:0.0; 
stroke:#000000; stroke-width:19.685; stroke-opacity:1; 
stroke-linecap:round; stroke-linejoin:round;">
<path d="M57150 40387
L57150 18650
" />
<path d="M37464 18650
L37464 40387
" />
<path d="M37464 40387
L57150 40387
" />
<path d="M37464 18650
L57150 18650
" />
</g>
<g style="fill:#000000; fill-opacity:0.0; 
stroke:#000000; stroke-width:78.7402; stroke-opacity:1; 
stroke-linecap:round; stroke-linejoin:round;">
<path d="M54488 38740
L55748 40000
" />
<path d="M55748 38740
L54488 40000
" />
<path d="M38740 38740
L40000 40000
" />
<path d="M40000 38740
L38740 40000
" />
<path d="M54488 19055
L55748 20314
" />
<path d="M55748 19055
L54488 20314
" />
<path d="M38740 19055
L40000 20314
" />
<path d="M40000 19055
L38740 20314
" />
</g>
<g style="fill:#000000; fill-opacity:0.0; 
stroke:#000000; stroke-width:118.11; stroke-opacity:1; 
stroke-linecap:round; stroke-linejoin:round;">
<text x="38242.5" y="42286.6"
textLength="8779.53" font-size="1574.8" lengthAdjust="spacingAndGlyphs"
text-anchor="start" opacity="0">Drill Map:</text>
<path d="M38582 42230
L38582 41049
L38864 41049
L39032 41105
L39145 41217
L39201 41330
L39257 41555
L39257 41724
L39201 41949
L39145 42061
L39032 42174
L38864 42230
L38582 42230
" />
<path d="M39763 42230
L39763 41442
" />
<path d="M39763 41667
L39820 41555
L39876 41499
L39988 41442
L40101 41442
" />
<path d="M40495 42230
L40495 41442
" />
<path d="M40495 41049
L40438 41105
L40495 41161
L40551 41105
L40495 41049
L40495 41161
" />
<path d="M41226 42230
L41113 42174
L41057 42061
L41057 41049
" />
<path d="M41844 42230
L41732 42174
L41676 42061
L41676 41049
" />
<path d="M43194 42230
L43194 41049
L43588 41892
L43982 41049
L43982 42230
" />
<path d="M45050 42230
L45050 41611
L44994 41499
L44882 41442
L44657 41442
L44544 41499
" />
<path d="M45050 42174
L44938 42230
L44657 42230
L44544 42174
L44488 42061
L44488 41949
L44544 41836
L44657 41780
L44938 41780
L45050 41724
" />
<path d="M45613 41442
L45613 42624
" />
<path d="M45613 41499
L45725 41442
L45950 41442
L46063 41499
L46119 41555
L46175 41667
L46175 42005
L46119 42117
L46063 42174
L45950 42230
L45725 42230
L45613 42174
" />
<path d="M46681 42117
L46738 42174
L46681 42230
L46625 42174
L46681 42117
L46681 42230
" />
<path d="M46681 41499
L46738 41555
L46681 41611
L46625 41555
L46681 41499
L46681 41611
" />
<path d="M36195 43546
L37455 44806
" />
<path d="M37455 43546
L36195 44806
" />
<text x="38242.5" y="44766.9"
textLength="37126" font-size="1574.8" lengthAdjust="spacingAndGlyphs"
text-anchor="start" opacity="0">3.20mm / 0.126" (4 holes) (not plated)</text>
<path d="M38470 43529
L39201 43529
L38807 43979
L38976 43979
L39088 44035
L39145 44092
L39201 44204
L39201 44485
L39145 44598
L39088 44654
L38976 44710
L38639 44710
L38526 44654
L38470 44598
" />
<path d="M39707 44598
L39763 44654
L39707 44710
L39651 44654
L39707 44598
L39707 44710
" />
<path d="M40213 43642
L40270 43585
L40382 43529
L40663 43529
L40776 43585
L40832 43642
L40888 43754
L40888 43867
L40832 44035
L40157 44710
L40888 44710
" />
<path d="M41619 43529
L41732 43529
L41844 43585
L41901 43642
L41957 43754
L42013 43979
L42013 44260
L41957 44485
L41901 44598
L41844 44654
L41732 44710
L41619 44710
L41507 44654
L41451 44598
L41394 44485
L41338 44260
L41338 43979
L41394 43754
L41451 43642
L41507 43585
L41619 43529
" />
<path d="M42519 44710
L42519 43923
" />
<path d="M42519 44035
L42576 43979
L42688 43923
L42857 43923
L42969 43979
L43025 44092
L43025 44710
" />
<path d="M43025 44092
L43082 43979
L43194 43923
L43363 43923
L43475 43979
L43532 44092
L43532 44710
" />
<path d="M44094 44710
L44094 43923
" />
<path d="M44094 44035
L44150 43979
L44263 43923
L44432 43923
L44544 43979
L44600 44092
L44600 44710
" />
<path d="M44600 44092
L44657 43979
L44769 43923
L44938 43923
L45050 43979
L45106 44092
L45106 44710
" />
<path d="M47412 43473
L46400 44991
" />
<path d="M48931 43529
L49043 43529
L49156 43585
L49212 43642
L49268 43754
L49325 43979
L49325 44260
L49268 44485
L49212 44598
L49156 44654
L49043 44710
L48931 44710
L48819 44654
L48762 44598
L48706 44485
L48650 44260
L48650 43979
L48706 43754
L48762 43642
L48819 43585
L48931 43529
" />
<path d="M49831 44598
L49887 44654
L49831 44710
L49775 44654
L49831 44598
L49831 44710
" />
<path d="M51012 44710
L50337 44710
" />
<path d="M50675 44710
L50675 43529
L50562 43698
L50450 43810
L50337 43867
" />
<path d="M51462 43642
L51518 43585
L51631 43529
L51912 43529
L52024 43585
L52081 43642
L52137 43754
L52137 43867
L52081 44035
L51406 44710
L52137 44710
" />
<path d="M53149 43529
L52924 43529
L52812 43585
L52756 43642
L52643 43810
L52587 44035
L52587 44485
L52643 44598
L52699 44654
L52812 44710
L53037 44710
L53149 44654
L53205 44598
L53262 44485
L53262 44204
L53205 44092
L53149 44035
L53037 43979
L52812 43979
L52699 44035
L52643 44092
L52587 44204
" />
<path d="M53712 43529
L53712 43754
" />
<path d="M54162 43529
L54162 43754
" />
<path d="M55905 45160
L55849 45104
L55736 44935
L55680 44823
L55624 44654
L55568 44373
L55568 44148
L55624 43867
L55680 43698
L55736 43585
L55849 43417
L55905 43360
" />
<path d="M56861 43923
L56861 44710
" />
<path d="M56580 43473
L56299 44316
L57030 44316
" />
<path d="M58380 44710
L58380 43529
" />
<path d="M58886 44710
L58886 44092
L58830 43979
L58717 43923
L58549 43923
L58436 43979
L58380 44035
" />
<path d="M59617 44710
L59505 44654
L59448 44598
L59392 44485
L59392 44148
L59448 44035
L59505 43979
L59617 43923
L59786 43923
L59898 43979
L59955 44035
L60011 44148
L60011 44485
L59955 44598
L59898 44654
L59786 44710
L59617 44710
" />
<path d="M60686 44710
L60573 44654
L60517 44541
L60517 43529
" />
<path d="M61586 44654
L61473 44710
L61248 44710
L61136 44654
L61079 44541
L61079 44092
L61136 43979
L61248 43923
L61473 43923
L61586 43979
L61642 44092
L61642 44204
L61079 44316
" />
<path d="M62092 44654
L62204 44710
L62429 44710
L62542 44654
L62598 44541
L62598 44485
L62542 44373
L62429 44316
L62261 44316
L62148 44260
L62092 44148
L62092 44092
L62148 43979
L62261 43923
L62429 43923
L62542 43979
" />
<path d="M62992 45160
L63048 45104
L63160 44935
L63217 44823
L63273 44654
L63329 44373
L63329 44148
L63273 43867
L63217 43698
L63160 43585
L63048 43417
L62992 43360
" />
<path d="M65129 45160
L65073 45104
L64960 44935
L64904 44823
L64848 44654
L64792 44373
L64792 44148
L64848 43867
L64904 43698
L64960 43585
L65073 43417
L65129 43360
" />
<path d="M65579 43923
L65579 44710
" />
<path d="M65579 44035
L65635 43979
L65748 43923
L65916 43923
L66029 43979
L66085 44092
L66085 44710
" />
<path d="M66816 44710
L66704 44654
L66648 44598
L66591 44485
L66591 44148
L66648 44035
L66704 43979
L66816 43923
L66985 43923
L67097 43979
L67154 44035
L67210 44148
L67210 44485
L67154 44598
L67097 44654
L66985 44710
L66816 44710
" />
<path d="M67547 43923
L67997 43923
" />
<path d="M67716 43529
L67716 44541
L67772 44654
L67885 44710
L67997 44710
" />
<path d="M69291 43923
L69291 45104
" />
<path d="M69291 43979
L69403 43923
L69628 43923
L69741 43979
L69797 44035
L69853 44148
L69853 44485
L69797 44598
L69741 44654
L69628 44710
L69403 44710
L69291 44654
" />
<path d="M70528 44710
L70416 44654
L70360 44541
L70360 43529
" />
<path d="M71484 44710
L71484 44092
L71428 43979
L71316 43923
L71091 43923
L70978 43979
" />
<path d="M71484 44654
L71372 44710
L71091 44710
L70978 44654
L70922 44541
L70922 44429
L70978 44316
L71091 44260
L71372 44260
L71484 44204
" />
<path d="M71878 43923
L72328 43923
" />
<path d="M72047 43529
L72047 44541
L72103 44654
L72216 44710
L72328 44710
" />
<path d="M73172 44654
L73059 44710
L72834 44710
L72722 44654
L72666 44541
L72666 44092
L72722 43979
L72834 43923
L73059 43923
L73172 43979
L73228 44092
L73228 44204
L72666 44316
" />
<path d="M74240 44710
L74240 43529
" />
<path d="M74240 44654
L74128 44710
L73903 44710
L73790 44654
L73734 44598
L73678 44485
L73678 44148
L73734 44035
L73790 43979
L73903 43923
L74128 43923
L74240 43979
" />
<path d="M74690 45160
L74747 45104
L74859 44935
L74915 44823
L74971 44654
L75028 44373
L75028 44148
L74971 43867
L74915 43698
L74859 43585
L74747 43417
L74690 43360
" />
</g> 
</svg>
