  0
SECTION
  2
HEADER
  9
$ANGBASE
  50
0.0
  9
$ANGDIR
  70
1
  9
$MEASUREMENT
  70
1
  0
ENDSEC
  0
SECTION
  2
TABLES
  0
TABLE
  2
LTYPE
  70
4
  0
LTYPE
  5
40F
  2
CONTINUOUS
  70
0
  3
Solid line
  72
65
  73
0
  40
0.0
  0
LTYPE
  5
410
  2
DASHDOT
 70
0
  3
Dash Dot ____ _ ____ _
 72
65
 73
4
 40
2.0
 49
1.25
 49
-0.25
 49
0.25
 49
-0.25
  0
LTYPE
  5
411
  2
DASHED
 70
0
  3
Dashed __ __ __ __ __
 72
65
 73
2
 40
0.75
 49
0.5
 49
-0.25
  0
LTYPE
  5
43B
  2
DOTTED
 70
0
  3
Dotted .  .  .  .
 72
65
 73
2
 40
0.2
 49
0.0
 49
-0.2
  0
ENDTAB
  0
TABLE
  2
STYLE
  70
4
  0
STYLE
  2
KICAD
  70
0
  40
0
  41
1
  42
1
  50
0
  71
0
  3
isocp.shx
  0
STYLE
  2
KICADB
  70
0
  40
0
  41
1
  42
1
  50
0
  71
0
  3
isocp.shx
  0
STYLE
  2
KICADI
  70
0
  40
0
  41
1
  42
1
  50
15
  71
0
  3
isocp.shx
  0
STYLE
  2
KICADBI
  70
0
  40
0
  41
1
  42
1
  50
15
  71
0
  3
isocp.shx
  0
ENDTAB
  0
TABLE
  2
LAYER
  70
1
  0
LAYER
  2
BLACK
  70
0
  62
7
  6
CONTINUOUS
  0
ENDTAB
  0
ENDSEC
  0
SECTION
  2
ENTITIES
0
LINE
8
BLACK
6
CONTINUOUS
10
75.946
20
-95.124
11
112.141
21
-95.124
0
LINE
8
BLACK
6
CONTINUOUS
10
112.141
20
-125.095
11
112.141
21
-95.124
0
LINE
8
BLACK
6
CONTINUOUS
10
87.884
20
-126.873
11
75.946
21
-126.873
0
LINE
8
BLACK
6
CONTINUOUS
10
75.946
20
-95.124
11
75.946
21
-126.873
0
LINE
8
BLACK
6
CONTINUOUS
10
132.682
20
-125.095
11
112.141
21
-125.095
0
LINE
8
BLACK
6
CONTINUOUS
10
87.884
20
-151.257
11
87.884
21
-126.873
0
LINE
8
BLACK
6
CONTINUOUS
10
132.682
20
-151.257
11
87.884
21
-151.257
0
LINE
8
BLACK
6
CONTINUOUS
10
132.682
20
-125.095
11
132.682
21
-151.257
0
LINE
8
BLACK
6
CONTINUOUS
10
116.256
20
-146.99
11
119.456
21
-150.19
0
LINE
8
BLACK
6
CONTINUOUS
10
119.456
20
-146.99
11
116.256
21
-150.19
0
LINE
8
BLACK
6
CONTINUOUS
10
107.747
20
-96.19
11
110.947
21
-99.39
0
LINE
8
BLACK
6
CONTINUOUS
10
110.947
20
-96.19
11
107.747
21
-99.39
0
LINE
8
BLACK
6
CONTINUOUS
10
77.267
20
-103.937
11
80.467
21
-107.137
0
LINE
8
BLACK
6
CONTINUOUS
10
80.467
20
-103.937
11
77.267
21
-107.137
0
LINE
8
BLACK
6
CONTINUOUS
10
89.205
20
-146.99
11
92.405
21
-150.19
0
LINE
8
BLACK
6
CONTINUOUS
10
92.405
20
-146.99
11
89.205
21
-150.19
0
LINE
8
BLACK
6
CONTINUOUS
10
116.256
20
-126.035
11
119.456
21
-129.235
0
LINE
8
BLACK
6
CONTINUOUS
10
119.456
20
-126.035
11
116.256
21
-129.235
0
LINE
8
BLACK
6
CONTINUOUS
10
78.7853
20
-155.939
11
78.7853
21
-152.939
0
LINE
8
BLACK
6
CONTINUOUS
10
78.7853
20
-152.939
11
79.4996
21
-152.939
0
LINE
8
BLACK
6
CONTINUOUS
10
79.4996
20
-152.939
11
79.9281
21
-153.082
0
LINE
8
BLACK
6
CONTINUOUS
10
79.9281
20
-153.082
11
80.2139
21
-153.368
0
LINE
8
BLACK
6
CONTINUOUS
10
80.2139
20
-153.368
11
80.3567
21
-153.653
0
LINE
8
BLACK
6
CONTINUOUS
10
80.3567
20
-153.653
11
80.4996
21
-154.225
0
LINE
8
BLACK
6
CONTINUOUS
10
80.4996
20
-154.225
11
80.4996
21
-154.653
0
LINE
8
BLACK
6
CONTINUOUS
10
80.4996
20
-154.653
11
80.3567
21
-155.225
0
LINE
8
BLACK
6
CONTINUOUS
10
80.3567
20
-155.225
11
80.2139
21
-155.511
0
LINE
8
BLACK
6
CONTINUOUS
10
80.2139
20
-155.511
11
79.9281
21
-155.796
0
LINE
8
BLACK
6
CONTINUOUS
10
79.9281
20
-155.796
11
79.4996
21
-155.939
0
LINE
8
BLACK
6
CONTINUOUS
10
79.4996
20
-155.939
11
78.7853
21
-155.939
0
LINE
8
BLACK
6
CONTINUOUS
10
81.7853
20
-155.939
11
81.7853
21
-153.939
0
LINE
8
BLACK
6
CONTINUOUS
10
81.7853
20
-154.511
11
81.9281
21
-154.225
0
LINE
8
BLACK
6
CONTINUOUS
10
81.9281
20
-154.225
11
82.071
21
-154.082
0
LINE
8
BLACK
6
CONTINUOUS
10
82.071
20
-154.082
11
82.3567
21
-153.939
0
LINE
8
BLACK
6
CONTINUOUS
10
82.3567
20
-153.939
11
82.6424
21
-153.939
0
LINE
8
BLACK
6
CONTINUOUS
10
83.6424
20
-155.939
11
83.6424
21
-153.939
0
LINE
8
BLACK
6
CONTINUOUS
10
83.6424
20
-152.939
11
83.4996
21
-153.082
0
LINE
8
BLACK
6
CONTINUOUS
10
83.4996
20
-153.082
11
83.6424
21
-153.225
0
LINE
8
BLACK
6
CONTINUOUS
10
83.6424
20
-153.225
11
83.7853
21
-153.082
0
LINE
8
BLACK
6
CONTINUOUS
10
83.7853
20
-153.082
11
83.6424
21
-152.939
0
LINE
8
BLACK
6
CONTINUOUS
10
83.6424
20
-152.939
11
83.6424
21
-153.225
0
LINE
8
BLACK
6
CONTINUOUS
10
85.4996
20
-155.939
11
85.2139
21
-155.796
0
LINE
8
BLACK
6
CONTINUOUS
10
85.2139
20
-155.796
11
85.071
21
-155.511
0
LINE
8
BLACK
6
CONTINUOUS
10
85.071
20
-155.511
11
85.071
21
-152.939
0
LINE
8
BLACK
6
CONTINUOUS
10
87.071
20
-155.939
11
86.7853
21
-155.796
0
LINE
8
BLACK
6
CONTINUOUS
10
86.7853
20
-155.796
11
86.6424
21
-155.511
0
LINE
8
BLACK
6
CONTINUOUS
10
86.6424
20
-155.511
11
86.6424
21
-152.939
0
LINE
8
BLACK
6
CONTINUOUS
10
90.4996
20
-155.939
11
90.4996
21
-152.939
0
LINE
8
BLACK
6
CONTINUOUS
10
90.4996
20
-152.939
11
91.4996
21
-155.082
0
LINE
8
BLACK
6
CONTINUOUS
10
91.4996
20
-155.082
11
92.4996
21
-152.939
0
LINE
8
BLACK
6
CONTINUOUS
10
92.4996
20
-152.939
11
92.4996
21
-155.939
0
LINE
8
BLACK
6
CONTINUOUS
10
95.2139
20
-155.939
11
95.2139
21
-154.368
0
LINE
8
BLACK
6
CONTINUOUS
10
95.2139
20
-154.368
11
95.071
21
-154.082
0
LINE
8
BLACK
6
CONTINUOUS
10
95.071
20
-154.082
11
94.7853
21
-153.939
0
LINE
8
BLACK
6
CONTINUOUS
10
94.7853
20
-153.939
11
94.2139
21
-153.939
0
LINE
8
BLACK
6
CONTINUOUS
10
94.2139
20
-153.939
11
93.9281
21
-154.082
0
LINE
8
BLACK
6
CONTINUOUS
10
95.2139
20
-155.796
11
94.9281
21
-155.939
0
LINE
8
BLACK
6
CONTINUOUS
10
94.9281
20
-155.939
11
94.2139
21
-155.939
0
LINE
8
BLACK
6
CONTINUOUS
10
94.2139
20
-155.939
11
93.9281
21
-155.796
0
LINE
8
BLACK
6
CONTINUOUS
10
93.9281
20
-155.796
11
93.7853
21
-155.511
0
LINE
8
BLACK
6
CONTINUOUS
10
93.7853
20
-155.511
11
93.7853
21
-155.225
0
LINE
8
BLACK
6
CONTINUOUS
10
93.7853
20
-155.225
11
93.9281
21
-154.939
0
LINE
8
BLACK
6
CONTINUOUS
10
93.9281
20
-154.939
11
94.2139
21
-154.796
0
LINE
8
BLACK
6
CONTINUOUS
10
94.2139
20
-154.796
11
94.9281
21
-154.796
0
LINE
8
BLACK
6
CONTINUOUS
10
94.9281
20
-154.796
11
95.2139
21
-154.653
0
LINE
8
BLACK
6
CONTINUOUS
10
96.6424
20
-153.939
11
96.6424
21
-156.939
0
LINE
8
BLACK
6
CONTINUOUS
10
96.6424
20
-154.082
11
96.9281
21
-153.939
0
LINE
8
BLACK
6
CONTINUOUS
10
96.9281
20
-153.939
11
97.4996
21
-153.939
0
LINE
8
BLACK
6
CONTINUOUS
10
97.4996
20
-153.939
11
97.7853
21
-154.082
0
LINE
8
BLACK
6
CONTINUOUS
10
97.7853
20
-154.082
11
97.9281
21
-154.225
0
LINE
8
BLACK
6
CONTINUOUS
10
97.9281
20
-154.225
11
98.071
21
-154.511
0
LINE
8
BLACK
6
CONTINUOUS
10
98.071
20
-154.511
11
98.071
21
-155.368
0
LINE
8
BLACK
6
CONTINUOUS
10
98.071
20
-155.368
11
97.9281
21
-155.653
0
LINE
8
BLACK
6
CONTINUOUS
10
97.9281
20
-155.653
11
97.7853
21
-155.796
0
LINE
8
BLACK
6
CONTINUOUS
10
97.7853
20
-155.796
11
97.4996
21
-155.939
0
LINE
8
BLACK
6
CONTINUOUS
10
97.4996
20
-155.939
11
96.9281
21
-155.939
0
LINE
8
BLACK
6
CONTINUOUS
10
96.9281
20
-155.939
11
96.6424
21
-155.796
0
LINE
8
BLACK
6
CONTINUOUS
10
99.3567
20
-155.653
11
99.4996
21
-155.796
0
LINE
8
BLACK
6
CONTINUOUS
10
99.4996
20
-155.796
11
99.3567
21
-155.939
0
LINE
8
BLACK
6
CONTINUOUS
10
99.3567
20
-155.939
11
99.2139
21
-155.796
0
LINE
8
BLACK
6
CONTINUOUS
10
99.2139
20
-155.796
11
99.3567
21
-155.653
0
LINE
8
BLACK
6
CONTINUOUS
10
99.3567
20
-155.653
11
99.3567
21
-155.939
0
LINE
8
BLACK
6
CONTINUOUS
10
99.3567
20
-154.082
11
99.4996
21
-154.225
0
LINE
8
BLACK
6
CONTINUOUS
10
99.4996
20
-154.225
11
99.3567
21
-154.368
0
LINE
8
BLACK
6
CONTINUOUS
10
99.3567
20
-154.368
11
99.2139
21
-154.225
0
LINE
8
BLACK
6
CONTINUOUS
10
99.2139
20
-154.225
11
99.3567
21
-154.082
0
LINE
8
BLACK
6
CONTINUOUS
10
99.3567
20
-154.082
11
99.3567
21
-154.368
0
LINE
8
BLACK
6
CONTINUOUS
10
72.721
20
-159.282
11
75.921
21
-162.482
0
LINE
8
BLACK
6
CONTINUOUS
10
75.921
20
-159.282
11
72.721
21
-162.482
0
LINE
8
BLACK
6
CONTINUOUS
10
78.4996
20
-159.239
11
80.3567
21
-159.239
0
LINE
8
BLACK
6
CONTINUOUS
10
80.3567
20
-159.239
11
79.3567
21
-160.382
0
LINE
8
BLACK
6
CONTINUOUS
10
79.3567
20
-160.382
11
79.7853
21
-160.382
0
LINE
8
BLACK
6
CONTINUOUS
10
79.7853
20
-160.382
11
80.071
21
-160.525
0
LINE
8
BLACK
6
CONTINUOUS
10
80.071
20
-160.525
11
80.2139
21
-160.668
0
LINE
8
BLACK
6
CONTINUOUS
10
80.2139
20
-160.668
11
80.3567
21
-160.953
0
LINE
8
BLACK
6
CONTINUOUS
10
80.3567
20
-160.953
11
80.3567
21
-161.668
0
LINE
8
BLACK
6
CONTINUOUS
10
80.3567
20
-161.668
11
80.2139
21
-161.953
0
LINE
8
BLACK
6
CONTINUOUS
10
80.2139
20
-161.953
11
80.071
21
-162.096
0
LINE
8
BLACK
6
CONTINUOUS
10
80.071
20
-162.096
11
79.7853
21
-162.239
0
LINE
8
BLACK
6
CONTINUOUS
10
79.7853
20
-162.239
11
78.9281
21
-162.239
0
LINE
8
BLACK
6
CONTINUOUS
10
78.9281
20
-162.239
11
78.6424
21
-162.096
0
LINE
8
BLACK
6
CONTINUOUS
10
78.6424
20
-162.096
11
78.4996
21
-161.953
0
LINE
8
BLACK
6
CONTINUOUS
10
81.6424
20
-161.953
11
81.7853
21
-162.096
0
LINE
8
BLACK
6
CONTINUOUS
10
81.7853
20
-162.096
11
81.6424
21
-162.239
0
LINE
8
BLACK
6
CONTINUOUS
10
81.6424
20
-162.239
11
81.4996
21
-162.096
0
LINE
8
BLACK
6
CONTINUOUS
10
81.4996
20
-162.096
11
81.6424
21
-161.953
0
LINE
8
BLACK
6
CONTINUOUS
10
81.6424
20
-161.953
11
81.6424
21
-162.239
0
LINE
8
BLACK
6
CONTINUOUS
10
82.9281
20
-159.525
11
83.071
21
-159.382
0
LINE
8
BLACK
6
CONTINUOUS
10
83.071
20
-159.382
11
83.3567
21
-159.239
0
LINE
8
BLACK
6
CONTINUOUS
10
83.3567
20
-159.239
11
84.071
21
-159.239
0
LINE
8
BLACK
6
CONTINUOUS
10
84.071
20
-159.239
11
84.3567
21
-159.382
0
LINE
8
BLACK
6
CONTINUOUS
10
84.3567
20
-159.382
11
84.4996
21
-159.525
0
LINE
8
BLACK
6
CONTINUOUS
10
84.4996
20
-159.525
11
84.6424
21
-159.811
0
LINE
8
BLACK
6
CONTINUOUS
10
84.6424
20
-159.811
11
84.6424
21
-160.096
0
LINE
8
BLACK
6
CONTINUOUS
10
84.6424
20
-160.096
11
84.4996
21
-160.525
0
LINE
8
BLACK
6
CONTINUOUS
10
84.4996
20
-160.525
11
82.7853
21
-162.239
0
LINE
8
BLACK
6
CONTINUOUS
10
82.7853
20
-162.239
11
84.6424
21
-162.239
0
LINE
8
BLACK
6
CONTINUOUS
10
86.4996
20
-159.239
11
86.7853
21
-159.239
0
LINE
8
BLACK
6
CONTINUOUS
10
86.7853
20
-159.239
11
87.071
21
-159.382
0
LINE
8
BLACK
6
CONTINUOUS
10
87.071
20
-159.382
11
87.2139
21
-159.525
0
LINE
8
BLACK
6
CONTINUOUS
10
87.2139
20
-159.525
11
87.3567
21
-159.811
0
LINE
8
BLACK
6
CONTINUOUS
10
87.3567
20
-159.811
11
87.4996
21
-160.382
0
LINE
8
BLACK
6
CONTINUOUS
10
87.4996
20
-160.382
11
87.4996
21
-161.096
0
LINE
8
BLACK
6
CONTINUOUS
10
87.4996
20
-161.096
11
87.3567
21
-161.668
0
LINE
8
BLACK
6
CONTINUOUS
10
87.3567
20
-161.668
11
87.2139
21
-161.953
0
LINE
8
BLACK
6
CONTINUOUS
10
87.2139
20
-161.953
11
87.071
21
-162.096
0
LINE
8
BLACK
6
CONTINUOUS
10
87.071
20
-162.096
11
86.7853
21
-162.239
0
LINE
8
BLACK
6
CONTINUOUS
10
86.7853
20
-162.239
11
86.4996
21
-162.239
0
LINE
8
BLACK
6
CONTINUOUS
10
86.4996
20
-162.239
11
86.2139
21
-162.096
0
LINE
8
BLACK
6
CONTINUOUS
10
86.2139
20
-162.096
11
86.071
21
-161.953
0
LINE
8
BLACK
6
CONTINUOUS
10
86.071
20
-161.953
11
85.9281
21
-161.668
0
LINE
8
BLACK
6
CONTINUOUS
10
85.9281
20
-161.668
11
85.7853
21
-161.096
0
LINE
8
BLACK
6
CONTINUOUS
10
85.7853
20
-161.096
11
85.7853
21
-160.382
0
LINE
8
BLACK
6
CONTINUOUS
10
85.7853
20
-160.382
11
85.9281
21
-159.811
0
LINE
8
BLACK
6
CONTINUOUS
10
85.9281
20
-159.811
11
86.071
21
-159.525
0
LINE
8
BLACK
6
CONTINUOUS
10
86.071
20
-159.525
11
86.2139
21
-159.382
0
LINE
8
BLACK
6
CONTINUOUS
10
86.2139
20
-159.382
11
86.4996
21
-159.239
0
LINE
8
BLACK
6
CONTINUOUS
10
88.7853
20
-162.239
11
88.7853
21
-160.239
0
LINE
8
BLACK
6
CONTINUOUS
10
88.7853
20
-160.525
11
88.9281
21
-160.382
0
LINE
8
BLACK
6
CONTINUOUS
10
88.9281
20
-160.382
11
89.2139
21
-160.239
0
LINE
8
BLACK
6
CONTINUOUS
10
89.2139
20
-160.239
11
89.6424
21
-160.239
0
LINE
8
BLACK
6
CONTINUOUS
10
89.6424
20
-160.239
11
89.9281
21
-160.382
0
LINE
8
BLACK
6
CONTINUOUS
10
89.9281
20
-160.382
11
90.071
21
-160.668
0
LINE
8
BLACK
6
CONTINUOUS
10
90.071
20
-160.668
11
90.071
21
-162.239
0
LINE
8
BLACK
6
CONTINUOUS
10
90.071
20
-160.668
11
90.2139
21
-160.382
0
LINE
8
BLACK
6
CONTINUOUS
10
90.2139
20
-160.382
11
90.4996
21
-160.239
0
LINE
8
BLACK
6
CONTINUOUS
10
90.4996
20
-160.239
11
90.9281
21
-160.239
0
LINE
8
BLACK
6
CONTINUOUS
10
90.9281
20
-160.239
11
91.2139
21
-160.382
0
LINE
8
BLACK
6
CONTINUOUS
10
91.2139
20
-160.382
11
91.3567
21
-160.668
0
LINE
8
BLACK
6
CONTINUOUS
10
91.3567
20
-160.668
11
91.3567
21
-162.239
0
LINE
8
BLACK
6
CONTINUOUS
10
92.7853
20
-162.239
11
92.7853
21
-160.239
0
LINE
8
BLACK
6
CONTINUOUS
10
92.7853
20
-160.525
11
92.9281
21
-160.382
0
LINE
8
BLACK
6
CONTINUOUS
10
92.9281
20
-160.382
11
93.2139
21
-160.239
0
LINE
8
BLACK
6
CONTINUOUS
10
93.2139
20
-160.239
11
93.6424
21
-160.239
0
LINE
8
BLACK
6
CONTINUOUS
10
93.6424
20
-160.239
11
93.9281
21
-160.382
0
LINE
8
BLACK
6
CONTINUOUS
10
93.9281
20
-160.382
11
94.071
21
-160.668
0
LINE
8
BLACK
6
CONTINUOUS
10
94.071
20
-160.668
11
94.071
21
-162.239
0
LINE
8
BLACK
6
CONTINUOUS
10
94.071
20
-160.668
11
94.2139
21
-160.382
0
LINE
8
BLACK
6
CONTINUOUS
10
94.2139
20
-160.382
11
94.4996
21
-160.239
0
LINE
8
BLACK
6
CONTINUOUS
10
94.4996
20
-160.239
11
94.9281
21
-160.239
0
LINE
8
BLACK
6
CONTINUOUS
10
94.9281
20
-160.239
11
95.2139
21
-160.382
0
LINE
8
BLACK
6
CONTINUOUS
10
95.2139
20
-160.382
11
95.3567
21
-160.668
0
LINE
8
BLACK
6
CONTINUOUS
10
95.3567
20
-160.668
11
95.3567
21
-162.239
0
LINE
8
BLACK
6
CONTINUOUS
10
101.214
20
-159.096
11
98.6424
21
-162.953
0
LINE
8
BLACK
6
CONTINUOUS
10
105.071
20
-159.239
11
105.357
21
-159.239
0
LINE
8
BLACK
6
CONTINUOUS
10
105.357
20
-159.239
11
105.642
21
-159.382
0
LINE
8
BLACK
6
CONTINUOUS
10
105.642
20
-159.382
11
105.785
21
-159.525
0
LINE
8
BLACK
6
CONTINUOUS
10
105.785
20
-159.525
11
105.928
21
-159.811
0
LINE
8
BLACK
6
CONTINUOUS
10
105.928
20
-159.811
11
106.071
21
-160.382
0
LINE
8
BLACK
6
CONTINUOUS
10
106.071
20
-160.382
11
106.071
21
-161.096
0
LINE
8
BLACK
6
CONTINUOUS
10
106.071
20
-161.096
11
105.928
21
-161.668
0
LINE
8
BLACK
6
CONTINUOUS
10
105.928
20
-161.668
11
105.785
21
-161.953
0
LINE
8
BLACK
6
CONTINUOUS
10
105.785
20
-161.953
11
105.642
21
-162.096
0
LINE
8
BLACK
6
CONTINUOUS
10
105.642
20
-162.096
11
105.357
21
-162.239
0
LINE
8
BLACK
6
CONTINUOUS
10
105.357
20
-162.239
11
105.071
21
-162.239
0
LINE
8
BLACK
6
CONTINUOUS
10
105.071
20
-162.239
11
104.785
21
-162.096
0
LINE
8
BLACK
6
CONTINUOUS
10
104.785
20
-162.096
11
104.642
21
-161.953
0
LINE
8
BLACK
6
CONTINUOUS
10
104.642
20
-161.953
11
104.5
21
-161.668
0
LINE
8
BLACK
6
CONTINUOUS
10
104.5
20
-161.668
11
104.357
21
-161.096
0
LINE
8
BLACK
6
CONTINUOUS
10
104.357
20
-161.096
11
104.357
21
-160.382
0
LINE
8
BLACK
6
CONTINUOUS
10
104.357
20
-160.382
11
104.5
21
-159.811
0
LINE
8
BLACK
6
CONTINUOUS
10
104.5
20
-159.811
11
104.642
21
-159.525
0
LINE
8
BLACK
6
CONTINUOUS
10
104.642
20
-159.525
11
104.785
21
-159.382
0
LINE
8
BLACK
6
CONTINUOUS
10
104.785
20
-159.382
11
105.071
21
-159.239
0
LINE
8
BLACK
6
CONTINUOUS
10
107.357
20
-161.953
11
107.5
21
-162.096
0
LINE
8
BLACK
6
CONTINUOUS
10
107.5
20
-162.096
11
107.357
21
-162.239
0
LINE
8
BLACK
6
CONTINUOUS
10
107.357
20
-162.239
11
107.214
21
-162.096
0
LINE
8
BLACK
6
CONTINUOUS
10
107.214
20
-162.096
11
107.357
21
-161.953
0
LINE
8
BLACK
6
CONTINUOUS
10
107.357
20
-161.953
11
107.357
21
-162.239
0
LINE
8
BLACK
6
CONTINUOUS
10
110.357
20
-162.239
11
108.642
21
-162.239
0
LINE
8
BLACK
6
CONTINUOUS
10
109.5
20
-162.239
11
109.5
21
-159.239
0
LINE
8
BLACK
6
CONTINUOUS
10
109.5
20
-159.239
11
109.214
21
-159.668
0
LINE
8
BLACK
6
CONTINUOUS
10
109.214
20
-159.668
11
108.928
21
-159.953
0
LINE
8
BLACK
6
CONTINUOUS
10
108.928
20
-159.953
11
108.642
21
-160.096
0
LINE
8
BLACK
6
CONTINUOUS
10
111.5
20
-159.525
11
111.642
21
-159.382
0
LINE
8
BLACK
6
CONTINUOUS
10
111.642
20
-159.382
11
111.928
21
-159.239
0
LINE
8
BLACK
6
CONTINUOUS
10
111.928
20
-159.239
11
112.642
21
-159.239
0
LINE
8
BLACK
6
CONTINUOUS
10
112.642
20
-159.239
11
112.928
21
-159.382
0
LINE
8
BLACK
6
CONTINUOUS
10
112.928
20
-159.382
11
113.071
21
-159.525
0
LINE
8
BLACK
6
CONTINUOUS
10
113.071
20
-159.525
11
113.214
21
-159.811
0
LINE
8
BLACK
6
CONTINUOUS
10
113.214
20
-159.811
11
113.214
21
-160.096
0
LINE
8
BLACK
6
CONTINUOUS
10
113.214
20
-160.096
11
113.071
21
-160.525
0
LINE
8
BLACK
6
CONTINUOUS
10
113.071
20
-160.525
11
111.357
21
-162.239
0
LINE
8
BLACK
6
CONTINUOUS
10
111.357
20
-162.239
11
113.214
21
-162.239
0
LINE
8
BLACK
6
CONTINUOUS
10
115.785
20
-159.239
11
115.214
21
-159.239
0
LINE
8
BLACK
6
CONTINUOUS
10
115.214
20
-159.239
11
114.928
21
-159.382
0
LINE
8
BLACK
6
CONTINUOUS
10
114.928
20
-159.382
11
114.785
21
-159.525
0
LINE
8
BLACK
6
CONTINUOUS
10
114.785
20
-159.525
11
114.5
21
-159.953
0
LINE
8
BLACK
6
CONTINUOUS
10
114.5
20
-159.953
11
114.357
21
-160.525
0
LINE
8
BLACK
6
CONTINUOUS
10
114.357
20
-160.525
11
114.357
21
-161.668
0
LINE
8
BLACK
6
CONTINUOUS
10
114.357
20
-161.668
11
114.5
21
-161.953
0
LINE
8
BLACK
6
CONTINUOUS
10
114.5
20
-161.953
11
114.642
21
-162.096
0
LINE
8
BLACK
6
CONTINUOUS
10
114.642
20
-162.096
11
114.928
21
-162.239
0
LINE
8
BLACK
6
CONTINUOUS
10
114.928
20
-162.239
11
115.5
21
-162.239
0
LINE
8
BLACK
6
CONTINUOUS
10
115.5
20
-162.239
11
115.785
21
-162.096
0
LINE
8
BLACK
6
CONTINUOUS
10
115.785
20
-162.096
11
115.928
21
-161.953
0
LINE
8
BLACK
6
CONTINUOUS
10
115.928
20
-161.953
11
116.071
21
-161.668
0
LINE
8
BLACK
6
CONTINUOUS
10
116.071
20
-161.668
11
116.071
21
-160.953
0
LINE
8
BLACK
6
CONTINUOUS
10
116.071
20
-160.953
11
115.928
21
-160.668
0
LINE
8
BLACK
6
CONTINUOUS
10
115.928
20
-160.668
11
115.785
21
-160.525
0
LINE
8
BLACK
6
CONTINUOUS
10
115.785
20
-160.525
11
115.5
21
-160.382
0
LINE
8
BLACK
6
CONTINUOUS
10
115.5
20
-160.382
11
114.928
21
-160.382
0
LINE
8
BLACK
6
CONTINUOUS
10
114.928
20
-160.382
11
114.642
21
-160.525
0
LINE
8
BLACK
6
CONTINUOUS
10
114.642
20
-160.525
11
114.5
21
-160.668
0
LINE
8
BLACK
6
CONTINUOUS
10
114.5
20
-160.668
11
114.357
21
-160.953
0
LINE
8
BLACK
6
CONTINUOUS
10
117.214
20
-159.239
11
117.214
21
-159.811
0
LINE
8
BLACK
6
CONTINUOUS
10
118.357
20
-159.239
11
118.357
21
-159.811
0
LINE
8
BLACK
6
CONTINUOUS
10
122.785
20
-163.382
11
122.642
21
-163.239
0
LINE
8
BLACK
6
CONTINUOUS
10
122.642
20
-163.239
11
122.357
21
-162.811
0
LINE
8
BLACK
6
CONTINUOUS
10
122.357
20
-162.811
11
122.214
21
-162.525
0
LINE
8
BLACK
6
CONTINUOUS
10
122.214
20
-162.525
11
122.071
21
-162.096
0
LINE
8
BLACK
6
CONTINUOUS
10
122.071
20
-162.096
11
121.928
21
-161.382
0
LINE
8
BLACK
6
CONTINUOUS
10
121.928
20
-161.382
11
121.928
21
-160.811
0
LINE
8
BLACK
6
CONTINUOUS
10
121.928
20
-160.811
11
122.071
21
-160.096
0
LINE
8
BLACK
6
CONTINUOUS
10
122.071
20
-160.096
11
122.214
21
-159.668
0
LINE
8
BLACK
6
CONTINUOUS
10
122.214
20
-159.668
11
122.357
21
-159.382
0
LINE
8
BLACK
6
CONTINUOUS
10
122.357
20
-159.382
11
122.642
21
-158.953
0
LINE
8
BLACK
6
CONTINUOUS
10
122.642
20
-158.953
11
122.785
21
-158.811
0
LINE
8
BLACK
6
CONTINUOUS
10
125.357
20
-159.239
11
123.928
21
-159.239
0
LINE
8
BLACK
6
CONTINUOUS
10
123.928
20
-159.239
11
123.785
21
-160.668
0
LINE
8
BLACK
6
CONTINUOUS
10
123.785
20
-160.668
11
123.928
21
-160.525
0
LINE
8
BLACK
6
CONTINUOUS
10
123.928
20
-160.525
11
124.214
21
-160.382
0
LINE
8
BLACK
6
CONTINUOUS
10
124.214
20
-160.382
11
124.928
21
-160.382
0
LINE
8
BLACK
6
CONTINUOUS
10
124.928
20
-160.382
11
125.214
21
-160.525
0
LINE
8
BLACK
6
CONTINUOUS
10
125.214
20
-160.525
11
125.357
21
-160.668
0
LINE
8
BLACK
6
CONTINUOUS
10
125.357
20
-160.668
11
125.5
21
-160.953
0
LINE
8
BLACK
6
CONTINUOUS
10
125.5
20
-160.953
11
125.5
21
-161.668
0
LINE
8
BLACK
6
CONTINUOUS
10
125.5
20
-161.668
11
125.357
21
-161.953
0
LINE
8
BLACK
6
CONTINUOUS
10
125.357
20
-161.953
11
125.214
21
-162.096
0
LINE
8
BLACK
6
CONTINUOUS
10
125.214
20
-162.096
11
124.928
21
-162.239
0
LINE
8
BLACK
6
CONTINUOUS
10
124.928
20
-162.239
11
124.214
21
-162.239
0
LINE
8
BLACK
6
CONTINUOUS
10
124.214
20
-162.239
11
123.928
21
-162.096
0
LINE
8
BLACK
6
CONTINUOUS
10
123.928
20
-162.096
11
123.785
21
-161.953
0
LINE
8
BLACK
6
CONTINUOUS
10
129.071
20
-162.239
11
129.071
21
-159.239
0
LINE
8
BLACK
6
CONTINUOUS
10
130.357
20
-162.239
11
130.357
21
-160.668
0
LINE
8
BLACK
6
CONTINUOUS
10
130.357
20
-160.668
11
130.214
21
-160.382
0
LINE
8
BLACK
6
CONTINUOUS
10
130.214
20
-160.382
11
129.928
21
-160.239
0
LINE
8
BLACK
6
CONTINUOUS
10
129.928
20
-160.239
11
129.5
21
-160.239
0
LINE
8
BLACK
6
CONTINUOUS
10
129.5
20
-160.239
11
129.214
21
-160.382
0
LINE
8
BLACK
6
CONTINUOUS
10
129.214
20
-160.382
11
129.071
21
-160.525
0
LINE
8
BLACK
6
CONTINUOUS
10
132.214
20
-162.239
11
131.928
21
-162.096
0
LINE
8
BLACK
6
CONTINUOUS
10
131.928
20
-162.096
11
131.785
21
-161.953
0
LINE
8
BLACK
6
CONTINUOUS
10
131.785
20
-161.953
11
131.642
21
-161.668
0
LINE
8
BLACK
6
CONTINUOUS
10
131.642
20
-161.668
11
131.642
21
-160.811
0
LINE
8
BLACK
6
CONTINUOUS
10
131.642
20
-160.811
11
131.785
21
-160.525
0
LINE
8
BLACK
6
CONTINUOUS
10
131.785
20
-160.525
11
131.928
21
-160.382
0
LINE
8
BLACK
6
CONTINUOUS
10
131.928
20
-160.382
11
132.214
21
-160.239
0
LINE
8
BLACK
6
CONTINUOUS
10
132.214
20
-160.239
11
132.642
21
-160.239
0
LINE
8
BLACK
6
CONTINUOUS
10
132.642
20
-160.239
11
132.928
21
-160.382
0
LINE
8
BLACK
6
CONTINUOUS
10
132.928
20
-160.382
11
133.071
21
-160.525
0
LINE
8
BLACK
6
CONTINUOUS
10
133.071
20
-160.525
11
133.214
21
-160.811
0
LINE
8
BLACK
6
CONTINUOUS
10
133.214
20
-160.811
11
133.214
21
-161.668
0
LINE
8
BLACK
6
CONTINUOUS
10
133.214
20
-161.668
11
133.071
21
-161.953
0
LINE
8
BLACK
6
CONTINUOUS
10
133.071
20
-161.953
11
132.928
21
-162.096
0
LINE
8
BLACK
6
CONTINUOUS
10
132.928
20
-162.096
11
132.642
21
-162.239
0
LINE
8
BLACK
6
CONTINUOUS
10
132.642
20
-162.239
11
132.214
21
-162.239
0
LINE
8
BLACK
6
CONTINUOUS
10
134.928
20
-162.239
11
134.642
21
-162.096
0
LINE
8
BLACK
6
CONTINUOUS
10
134.642
20
-162.096
11
134.5
21
-161.811
0
LINE
8
BLACK
6
CONTINUOUS
10
134.5
20
-161.811
11
134.5
21
-159.239
0
LINE
8
BLACK
6
CONTINUOUS
10
137.214
20
-162.096
11
136.928
21
-162.239
0
LINE
8
BLACK
6
CONTINUOUS
10
136.928
20
-162.239
11
136.357
21
-162.239
0
LINE
8
BLACK
6
CONTINUOUS
10
136.357
20
-162.239
11
136.071
21
-162.096
0
LINE
8
BLACK
6
CONTINUOUS
10
136.071
20
-162.096
11
135.928
21
-161.811
0
LINE
8
BLACK
6
CONTINUOUS
10
135.928
20
-161.811
11
135.928
21
-160.668
0
LINE
8
BLACK
6
CONTINUOUS
10
135.928
20
-160.668
11
136.071
21
-160.382
0
LINE
8
BLACK
6
CONTINUOUS
10
136.071
20
-160.382
11
136.357
21
-160.239
0
LINE
8
BLACK
6
CONTINUOUS
10
136.357
20
-160.239
11
136.928
21
-160.239
0
LINE
8
BLACK
6
CONTINUOUS
10
136.928
20
-160.239
11
137.214
21
-160.382
0
LINE
8
BLACK
6
CONTINUOUS
10
137.214
20
-160.382
11
137.357
21
-160.668
0
LINE
8
BLACK
6
CONTINUOUS
10
137.357
20
-160.668
11
137.357
21
-160.953
0
LINE
8
BLACK
6
CONTINUOUS
10
137.357
20
-160.953
11
135.928
21
-161.239
0
LINE
8
BLACK
6
CONTINUOUS
10
138.5
20
-162.096
11
138.785
21
-162.239
0
LINE
8
BLACK
6
CONTINUOUS
10
138.785
20
-162.239
11
139.357
21
-162.239
0
LINE
8
BLACK
6
CONTINUOUS
10
139.357
20
-162.239
11
139.642
21
-162.096
0
LINE
8
BLACK
6
CONTINUOUS
10
139.642
20
-162.096
11
139.785
21
-161.811
0
LINE
8
BLACK
6
CONTINUOUS
10
139.785
20
-161.811
11
139.785
21
-161.668
0
LINE
8
BLACK
6
CONTINUOUS
10
139.785
20
-161.668
11
139.642
21
-161.382
0
LINE
8
BLACK
6
CONTINUOUS
10
139.642
20
-161.382
11
139.357
21
-161.239
0
LINE
8
BLACK
6
CONTINUOUS
10
139.357
20
-161.239
11
138.928
21
-161.239
0
LINE
8
BLACK
6
CONTINUOUS
10
138.928
20
-161.239
11
138.642
21
-161.096
0
LINE
8
BLACK
6
CONTINUOUS
10
138.642
20
-161.096
11
138.5
21
-160.811
0
LINE
8
BLACK
6
CONTINUOUS
10
138.5
20
-160.811
11
138.5
21
-160.668
0
LINE
8
BLACK
6
CONTINUOUS
10
138.5
20
-160.668
11
138.642
21
-160.382
0
LINE
8
BLACK
6
CONTINUOUS
10
138.642
20
-160.382
11
138.928
21
-160.239
0
LINE
8
BLACK
6
CONTINUOUS
10
138.928
20
-160.239
11
139.357
21
-160.239
0
LINE
8
BLACK
6
CONTINUOUS
10
139.357
20
-160.239
11
139.642
21
-160.382
0
LINE
8
BLACK
6
CONTINUOUS
10
140.785
20
-163.382
11
140.928
21
-163.239
0
LINE
8
BLACK
6
CONTINUOUS
10
140.928
20
-163.239
11
141.214
21
-162.811
0
LINE
8
BLACK
6
CONTINUOUS
10
141.214
20
-162.811
11
141.357
21
-162.525
0
LINE
8
BLACK
6
CONTINUOUS
10
141.357
20
-162.525
11
141.5
21
-162.096
0
LINE
8
BLACK
6
CONTINUOUS
10
141.5
20
-162.096
11
141.642
21
-161.382
0
LINE
8
BLACK
6
CONTINUOUS
10
141.642
20
-161.382
11
141.642
21
-160.811
0
LINE
8
BLACK
6
CONTINUOUS
10
141.642
20
-160.811
11
141.5
21
-160.096
0
LINE
8
BLACK
6
CONTINUOUS
10
141.5
20
-160.096
11
141.357
21
-159.668
0
LINE
8
BLACK
6
CONTINUOUS
10
141.357
20
-159.668
11
141.214
21
-159.382
0
LINE
8
BLACK
6
CONTINUOUS
10
141.214
20
-159.382
11
140.928
21
-158.953
0
LINE
8
BLACK
6
CONTINUOUS
10
140.928
20
-158.953
11
140.785
21
-158.811
0
LINE
8
BLACK
6
CONTINUOUS
10
146.214
20
-163.382
11
146.071
21
-163.239
0
LINE
8
BLACK
6
CONTINUOUS
10
146.071
20
-163.239
11
145.785
21
-162.811
0
LINE
8
BLACK
6
CONTINUOUS
10
145.785
20
-162.811
11
145.642
21
-162.525
0
LINE
8
BLACK
6
CONTINUOUS
10
145.642
20
-162.525
11
145.5
21
-162.096
0
LINE
8
BLACK
6
CONTINUOUS
10
145.5
20
-162.096
11
145.357
21
-161.382
0
LINE
8
BLACK
6
CONTINUOUS
10
145.357
20
-161.382
11
145.357
21
-160.811
0
LINE
8
BLACK
6
CONTINUOUS
10
145.357
20
-160.811
11
145.5
21
-160.096
0
LINE
8
BLACK
6
CONTINUOUS
10
145.5
20
-160.096
11
145.642
21
-159.668
0
LINE
8
BLACK
6
CONTINUOUS
10
145.642
20
-159.668
11
145.785
21
-159.382
0
LINE
8
BLACK
6
CONTINUOUS
10
145.785
20
-159.382
11
146.071
21
-158.953
0
LINE
8
BLACK
6
CONTINUOUS
10
146.071
20
-158.953
11
146.214
21
-158.811
0
LINE
8
BLACK
6
CONTINUOUS
10
147.357
20
-160.239
11
147.357
21
-162.239
0
LINE
8
BLACK
6
CONTINUOUS
10
147.357
20
-160.525
11
147.5
21
-160.382
0
LINE
8
BLACK
6
CONTINUOUS
10
147.5
20
-160.382
11
147.785
21
-160.239
0
LINE
8
BLACK
6
CONTINUOUS
10
147.785
20
-160.239
11
148.214
21
-160.239
0
LINE
8
BLACK
6
CONTINUOUS
10
148.214
20
-160.239
11
148.5
21
-160.382
0
LINE
8
BLACK
6
CONTINUOUS
10
148.5
20
-160.382
11
148.642
21
-160.668
0
LINE
8
BLACK
6
CONTINUOUS
10
148.642
20
-160.668
11
148.642
21
-162.239
0
LINE
8
BLACK
6
CONTINUOUS
10
150.5
20
-162.239
11
150.214
21
-162.096
0
LINE
8
BLACK
6
CONTINUOUS
10
150.214
20
-162.096
11
150.071
21
-161.953
0
LINE
8
BLACK
6
CONTINUOUS
10
150.071
20
-161.953
11
149.928
21
-161.668
0
LINE
8
BLACK
6
CONTINUOUS
10
149.928
20
-161.668
11
149.928
21
-160.811
0
LINE
8
BLACK
6
CONTINUOUS
10
149.928
20
-160.811
11
150.071
21
-160.525
0
LINE
8
BLACK
6
CONTINUOUS
10
150.071
20
-160.525
11
150.214
21
-160.382
0
LINE
8
BLACK
6
CONTINUOUS
10
150.214
20
-160.382
11
150.5
21
-160.239
0
LINE
8
BLACK
6
CONTINUOUS
10
150.5
20
-160.239
11
150.928
21
-160.239
0
LINE
8
BLACK
6
CONTINUOUS
10
150.928
20
-160.239
11
151.214
21
-160.382
0
LINE
8
BLACK
6
CONTINUOUS
10
151.214
20
-160.382
11
151.357
21
-160.525
0
LINE
8
BLACK
6
CONTINUOUS
10
151.357
20
-160.525
11
151.5
21
-160.811
0
LINE
8
BLACK
6
CONTINUOUS
10
151.5
20
-160.811
11
151.5
21
-161.668
0
LINE
8
BLACK
6
CONTINUOUS
10
151.5
20
-161.668
11
151.357
21
-161.953
0
LINE
8
BLACK
6
CONTINUOUS
10
151.357
20
-161.953
11
151.214
21
-162.096
0
LINE
8
BLACK
6
CONTINUOUS
10
151.214
20
-162.096
11
150.928
21
-162.239
0
LINE
8
BLACK
6
CONTINUOUS
10
150.928
20
-162.239
11
150.5
21
-162.239
0
LINE
8
BLACK
6
CONTINUOUS
10
152.357
20
-160.239
11
153.5
21
-160.239
0
LINE
8
BLACK
6
CONTINUOUS
10
152.785
20
-159.239
11
152.785
21
-161.811
0
LINE
8
BLACK
6
CONTINUOUS
10
152.785
20
-161.811
11
152.928
21
-162.096
0
LINE
8
BLACK
6
CONTINUOUS
10
152.928
20
-162.096
11
153.214
21
-162.239
0
LINE
8
BLACK
6
CONTINUOUS
10
153.214
20
-162.239
11
153.5
21
-162.239
0
LINE
8
BLACK
6
CONTINUOUS
10
156.785
20
-160.239
11
156.785
21
-163.239
0
LINE
8
BLACK
6
CONTINUOUS
10
156.785
20
-160.382
11
157.071
21
-160.239
0
LINE
8
BLACK
6
CONTINUOUS
10
157.071
20
-160.239
11
157.642
21
-160.239
0
LINE
8
BLACK
6
CONTINUOUS
10
157.642
20
-160.239
11
157.928
21
-160.382
0
LINE
8
BLACK
6
CONTINUOUS
10
157.928
20
-160.382
11
158.071
21
-160.525
0
LINE
8
BLACK
6
CONTINUOUS
10
158.071
20
-160.525
11
158.214
21
-160.811
0
LINE
8
BLACK
6
CONTINUOUS
10
158.214
20
-160.811
11
158.214
21
-161.668
0
LINE
8
BLACK
6
CONTINUOUS
10
158.214
20
-161.668
11
158.071
21
-161.953
0
LINE
8
BLACK
6
CONTINUOUS
10
158.071
20
-161.953
11
157.928
21
-162.096
0
LINE
8
BLACK
6
CONTINUOUS
10
157.928
20
-162.096
11
157.642
21
-162.239
0
LINE
8
BLACK
6
CONTINUOUS
10
157.642
20
-162.239
11
157.071
21
-162.239
0
LINE
8
BLACK
6
CONTINUOUS
10
157.071
20
-162.239
11
156.785
21
-162.096
0
LINE
8
BLACK
6
CONTINUOUS
10
159.928
20
-162.239
11
159.642
21
-162.096
0
LINE
8
BLACK
6
CONTINUOUS
10
159.642
20
-162.096
11
159.5
21
-161.811
0
LINE
8
BLACK
6
CONTINUOUS
10
159.5
20
-161.811
11
159.5
21
-159.239
0
LINE
8
BLACK
6
CONTINUOUS
10
162.357
20
-162.239
11
162.357
21
-160.668
0
LINE
8
BLACK
6
CONTINUOUS
10
162.357
20
-160.668
11
162.214
21
-160.382
0
LINE
8
BLACK
6
CONTINUOUS
10
162.214
20
-160.382
11
161.928
21
-160.239
0
LINE
8
BLACK
6
CONTINUOUS
10
161.928
20
-160.239
11
161.357
21
-160.239
0
LINE
8
BLACK
6
CONTINUOUS
10
161.357
20
-160.239
11
161.071
21
-160.382
0
LINE
8
BLACK
6
CONTINUOUS
10
162.357
20
-162.096
11
162.071
21
-162.239
0
LINE
8
BLACK
6
CONTINUOUS
10
162.071
20
-162.239
11
161.357
21
-162.239
0
LINE
8
BLACK
6
CONTINUOUS
10
161.357
20
-162.239
11
161.071
21
-162.096
0
LINE
8
BLACK
6
CONTINUOUS
10
161.071
20
-162.096
11
160.928
21
-161.811
0
LINE
8
BLACK
6
CONTINUOUS
10
160.928
20
-161.811
11
160.928
21
-161.525
0
LINE
8
BLACK
6
CONTINUOUS
10
160.928
20
-161.525
11
161.071
21
-161.239
0
LINE
8
BLACK
6
CONTINUOUS
10
161.071
20
-161.239
11
161.357
21
-161.096
0
LINE
8
BLACK
6
CONTINUOUS
10
161.357
20
-161.096
11
162.071
21
-161.096
0
LINE
8
BLACK
6
CONTINUOUS
10
162.071
20
-161.096
11
162.357
21
-160.953
0
LINE
8
BLACK
6
CONTINUOUS
10
163.357
20
-160.239
11
164.5
21
-160.239
0
LINE
8
BLACK
6
CONTINUOUS
10
163.785
20
-159.239
11
163.785
21
-161.811
0
LINE
8
BLACK
6
CONTINUOUS
10
163.785
20
-161.811
11
163.928
21
-162.096
0
LINE
8
BLACK
6
CONTINUOUS
10
163.928
20
-162.096
11
164.214
21
-162.239
0
LINE
8
BLACK
6
CONTINUOUS
10
164.214
20
-162.239
11
164.5
21
-162.239
0
LINE
8
BLACK
6
CONTINUOUS
10
166.642
20
-162.096
11
166.357
21
-162.239
0
LINE
8
BLACK
6
CONTINUOUS
10
166.357
20
-162.239
11
165.785
21
-162.239
0
LINE
8
BLACK
6
CONTINUOUS
10
165.785
20
-162.239
11
165.5
21
-162.096
0
LINE
8
BLACK
6
CONTINUOUS
10
165.5
20
-162.096
11
165.357
21
-161.811
0
LINE
8
BLACK
6
CONTINUOUS
10
165.357
20
-161.811
11
165.357
21
-160.668
0
LINE
8
BLACK
6
CONTINUOUS
10
165.357
20
-160.668
11
165.5
21
-160.382
0
LINE
8
BLACK
6
CONTINUOUS
10
165.5
20
-160.382
11
165.785
21
-160.239
0
LINE
8
BLACK
6
CONTINUOUS
10
165.785
20
-160.239
11
166.357
21
-160.239
0
LINE
8
BLACK
6
CONTINUOUS
10
166.357
20
-160.239
11
166.642
21
-160.382
0
LINE
8
BLACK
6
CONTINUOUS
10
166.642
20
-160.382
11
166.785
21
-160.668
0
LINE
8
BLACK
6
CONTINUOUS
10
166.785
20
-160.668
11
166.785
21
-160.953
0
LINE
8
BLACK
6
CONTINUOUS
10
166.785
20
-160.953
11
165.357
21
-161.239
0
LINE
8
BLACK
6
CONTINUOUS
10
169.357
20
-162.239
11
169.357
21
-159.239
0
LINE
8
BLACK
6
CONTINUOUS
10
169.357
20
-162.096
11
169.071
21
-162.239
0
LINE
8
BLACK
6
CONTINUOUS
10
169.071
20
-162.239
11
168.5
21
-162.239
0
LINE
8
BLACK
6
CONTINUOUS
10
168.5
20
-162.239
11
168.214
21
-162.096
0
LINE
8
BLACK
6
CONTINUOUS
10
168.214
20
-162.096
11
168.071
21
-161.953
0
LINE
8
BLACK
6
CONTINUOUS
10
168.071
20
-161.953
11
167.928
21
-161.668
0
LINE
8
BLACK
6
CONTINUOUS
10
167.928
20
-161.668
11
167.928
21
-160.811
0
LINE
8
BLACK
6
CONTINUOUS
10
167.928
20
-160.811
11
168.071
21
-160.525
0
LINE
8
BLACK
6
CONTINUOUS
10
168.071
20
-160.525
11
168.214
21
-160.382
0
LINE
8
BLACK
6
CONTINUOUS
10
168.214
20
-160.382
11
168.5
21
-160.239
0
LINE
8
BLACK
6
CONTINUOUS
10
168.5
20
-160.239
11
169.071
21
-160.239
0
LINE
8
BLACK
6
CONTINUOUS
10
169.071
20
-160.239
11
169.357
21
-160.382
0
LINE
8
BLACK
6
CONTINUOUS
10
170.5
20
-163.382
11
170.642
21
-163.239
0
LINE
8
BLACK
6
CONTINUOUS
10
170.642
20
-163.239
11
170.928
21
-162.811
0
LINE
8
BLACK
6
CONTINUOUS
10
170.928
20
-162.811
11
171.071
21
-162.525
0
LINE
8
BLACK
6
CONTINUOUS
10
171.071
20
-162.525
11
171.214
21
-162.096
0
LINE
8
BLACK
6
CONTINUOUS
10
171.214
20
-162.096
11
171.357
21
-161.382
0
LINE
8
BLACK
6
CONTINUOUS
10
171.357
20
-161.382
11
171.357
21
-160.811
0
LINE
8
BLACK
6
CONTINUOUS
10
171.357
20
-160.811
11
171.214
21
-160.096
0
LINE
8
BLACK
6
CONTINUOUS
10
171.214
20
-160.096
11
171.071
21
-159.668
0
LINE
8
BLACK
6
CONTINUOUS
10
171.071
20
-159.668
11
170.928
21
-159.382
0
LINE
8
BLACK
6
CONTINUOUS
10
170.928
20
-159.382
11
170.642
21
-158.953
0
LINE
8
BLACK
6
CONTINUOUS
10
170.642
20
-158.953
11
170.5
21
-158.811
  0
ENDSEC
  0
EOF
