  0
SECTION
  2
HEADER
  9
$ANGBASE
  50
0.0
  9
$ANGDIR
  70
1
  9
$MEASUREMENT
  70
1
  0
ENDSEC
  0
SECTION
  2
TABLES
  0
TABLE
  2
LTYPE
  70
4
  0
LTYPE
  5
40F
  2
CONTINUOUS
  70
0
  3
Solid line
  72
65
  73
0
  40
0.0
  0
LTYPE
  5
410
  2
DASHDOT
 70
0
  3
Dash Dot ____ _ ____ _
 72
65
 73
4
 40
2.0
 49
1.25
 49
-0.25
 49
0.25
 49
-0.25
  0
LTYPE
  5
411
  2
DASHED
 70
0
  3
Dashed __ __ __ __ __
 72
65
 73
2
 40
0.75
 49
0.5
 49
-0.25
  0
LTYPE
  5
43B
  2
DOTTED
 70
0
  3
Dotted .  .  .  .
 72
65
 73
2
 40
0.2
 49
0.0
 49
-0.2
  0
ENDTAB
  0
TABLE
  2
STYLE
  70
4
  0
STYLE
  2
KICAD
  70
0
  40
0
  41
1
  42
1
  50
0
  71
0
  3
isocp.shx
  0
STYLE
  2
KICADB
  70
0
  40
0
  41
1
  42
1
  50
0
  71
0
  3
isocp.shx
  0
STYLE
  2
KICADI
  70
0
  40
0
  41
1
  42
1
  50
15
  71
0
  3
isocp.shx
  0
STYLE
  2
KICADBI
  70
0
  40
0
  41
1
  42
1
  50
15
  71
0
  3
isocp.shx
  0
ENDTAB
  0
TABLE
  2
LAYER
  70
1
  0
LAYER
  2
BLACK
  70
0
  62
7
  6
CONTINUOUS
  0
ENDTAB
  0
ENDSEC
  0
SECTION
  2
ENTITIES
0
LINE
8
BLACK
6
CONTINUOUS
10
219.6755149999999901
20
-140.6645739999999876
11
140.2855150000000037
21
-61.2945739999999972
0
POLYLINE
8
BLACK
66
1
70
1
40
1.8884779999999999
41
1.8884779999999999
0
VERTEX
8
BLACK
10
142.9897539999999765
 20
-127.2645739999999961
42
1.0
0
VERTEX
8
BLACK
10
144.878231999999997
 20
-127.2645739999999961
42
1.0
0
SEQEND
0
LINE
8
BLACK
6
CONTINUOUS
10
180.0155149999999935
20
-68.484573999999995
11
180.0155149999999935
21
-73.484573999999995
0
LINE
8
BLACK
6
CONTINUOUS
10
140.2855150000000037
20
-61.2745739999999941
11
153.3255149999999958
21
-61.2745739999999941
0
LINE
8
BLACK
6
CONTINUOUS
10
153.3255149999999958
20
-61.2745739999999941
11
153.3255149999999958
21
-74.3145739999999932
0
LINE
8
BLACK
6
CONTINUOUS
10
153.3255149999999958
20
-74.3145739999999932
11
140.2855150000000037
21
-74.3145739999999932
0
LINE
8
BLACK
6
CONTINUOUS
10
140.2855150000000037
20
-74.3145739999999932
11
140.2855150000000037
21
-61.2745739999999941
0
LINE
8
BLACK
6
CONTINUOUS
10
153.3155150000000049
20
-74.2845739999999921
11
219.7355149999999924
21
-74.2845739999999921
0
POLYLINE
8
BLACK
66
1
70
1
40
1.8884779999999999
41
1.8884779999999999
0
VERTEX
8
BLACK
10
143.359753999999981
 20
-74.6145739999999904
42
1.0
0
VERTEX
8
BLACK
10
145.2482320000000016
 20
-74.6145739999999904
42
1.0
0
SEQEND
0
CIRCLE
8
BLACK
10
179.9655149999999821
20
-100.8745739999999955
40
47.5317179999999979
0
LINE
8
BLACK
6
CONTINUOUS
10
140.2755149999999844
20
-61.2745739999999941
11
219.6755149999999901
21
-61.2745739999999941
0
LINE
8
BLACK
6
CONTINUOUS
10
219.6755149999999901
20
-61.2745739999999941
11
219.6755149999999901
21
-140.6745740000000069
0
LINE
8
BLACK
6
CONTINUOUS
10
219.6755149999999901
20
-140.6745740000000069
11
140.2755149999999844
21
-140.6745740000000069
0
LINE
8
BLACK
6
CONTINUOUS
10
140.2755149999999844
20
-140.6745740000000069
11
140.2755149999999844
21
-61.2745739999999941
0
CIRCLE
8
BLACK
10
179.9555149999999912
20
-101.0395740000000018
40
36.
0
LINE
8
BLACK
6
CONTINUOUS
10
219.6655149999999992
20
-127.0245740000000012
11
140.2855150000000037
21
-74.734573999999995
0
POLYLINE
8
BLACK
66
1
70
1
40
1.8884779999999999
41
1.8884779999999999
0
VERTEX
8
BLACK
10
215.3412759999999935
 20
-118.2660959999999903
42
1.0
0
VERTEX
8
BLACK
10
217.229754000000014
 20
-118.2660959999999903
42
1.0
0
SEQEND
0
LINE
8
BLACK
6
CONTINUOUS
10
150.6055149999999969
20
-71.6265739999999909
11
155.4315149999999903
21
-71.6265739999999909
0
LINE
8
BLACK
6
CONTINUOUS
10
155.4315149999999903
20
-71.6265739999999909
11
155.4315149999999903
21
-75.9445740000000029
0
LINE
8
BLACK
6
CONTINUOUS
10
155.4315149999999903
20
-75.9445740000000029
11
150.6055149999999969
21
-75.9445740000000029
0
LINE
8
BLACK
6
CONTINUOUS
10
150.6055149999999969
20
-75.9445740000000029
11
150.6055149999999969
21
-71.6265739999999909
0
CIRCLE
8
BLACK
10
159.7455149999999833
20
-80.6045739999999995
40
1.77
0
POLYLINE
8
BLACK
66
1
70
1
40
1.8884779999999999
41
1.8884779999999999
0
VERTEX
8
BLACK
10
204.9597539999999753
 20
-64.9245739999999927
42
1.0
0
VERTEX
8
BLACK
10
206.8482319999999959
 20
-64.9245739999999927
42
1.0
0
SEQEND
0
POLYLINE
8
BLACK
66
1
70
1
40
1.8884779999999999
41
1.8884779999999999
0
VERTEX
8
BLACK
10
153.1912759999999878
 20
-137.2045739999999796
42
1.0
0
VERTEX
8
BLACK
10
155.0797540000000083
 20
-137.2045739999999796
42
1.0
0
SEQEND
0
LINE
8
BLACK
6
CONTINUOUS
10
161.5155149999999935
20
-72.8845740000000006
11
198.5155149999999935
21
-72.8845740000000006
0
LINE
8
BLACK
6
CONTINUOUS
10
198.5155149999999935
20
-72.8845740000000006
11
198.5155149999999935
21
-109.8845740000000006
0
LINE
8
BLACK
6
CONTINUOUS
10
198.5155149999999935
20
-109.8845740000000006
11
161.5155149999999935
21
-109.8845740000000006
0
LINE
8
BLACK
6
CONTINUOUS
10
161.5155149999999935
20
-109.8845740000000006
11
161.5155149999999935
21
-72.8845740000000006
0
LINE
8
BLACK
6
CONTINUOUS
10
143.9955149999999833
20
-91.1845739999999978
11
170.5255149999999844
21
-91.1845739999999978
0
LINE
8
BLACK
6
CONTINUOUS
10
170.5255149999999844
20
-91.1845739999999978
11
170.5255149999999844
21
-118.7445740000000001
0
LINE
8
BLACK
6
CONTINUOUS
10
170.5255149999999844
20
-118.7445740000000001
11
143.9955149999999833
21
-118.7445740000000001
0
LINE
8
BLACK
6
CONTINUOUS
10
143.9955149999999833
20
-118.7445740000000001
11
143.9955149999999833
21
-91.1845739999999978
0
LINE
8
BLACK
6
CONTINUOUS
10
204.4535149999999817
20
-71.3725740000000002
11
209.2795150000000035
21
-71.3725740000000002
0
LINE
8
BLACK
6
CONTINUOUS
10
209.2795150000000035
20
-71.3725740000000002
11
209.2795150000000035
21
-75.9445740000000029
0
LINE
8
BLACK
6
CONTINUOUS
10
209.2795150000000035
20
-75.9445740000000029
11
204.4535149999999817
21
-75.9445740000000029
0
LINE
8
BLACK
6
CONTINUOUS
10
204.4535149999999817
20
-75.9445740000000029
11
204.4535149999999817
21
-71.3725740000000002
0
CIRCLE
8
BLACK
10
200.4055149999999799
20
-80.6845739999999978
40
1.77
0
LINE
8
BLACK
6
CONTINUOUS
10
153.9855149999999924
20
-140.6645739999999876
11
206.0055150000000026
21
-61.234573999999995
0
POLYLINE
8
BLACK
66
1
70
1
40
1.8884779999999999
41
1.8884779999999999
0
VERTEX
8
BLACK
10
153.4497539999999844
 20
-64.9645739999999989
42
1.0
0
VERTEX
8
BLACK
10
155.338232000000005
 20
-64.9645739999999989
42
1.0
0
SEQEND
0
CIRCLE
8
BLACK
10
179.9455150000000003
20
-100.8345739999999893
40
39.769999999999996
0
LINE
8
BLACK
6
CONTINUOUS
10
219.6655149999999992
20
-61.2845739999999992
11
140.2855150000000037
21
-140.6145740000000046
0
LINE
8
BLACK
6
CONTINUOUS
10
205.7255150000000015
20
-140.7445740000000001
11
153.6755149999999901
21
-61.2945739999999972
0
POLYLINE
8
BLACK
66
1
70
1
40
1.8884779999999999
41
1.8884779999999999
0
VERTEX
8
BLACK
10
197.2927979999999764
 20
-137.1545739999999967
42
1.0
0
VERTEX
8
BLACK
10
199.1812759999999969
 20
-137.1545739999999967
42
1.0
0
SEQEND
0
LINE
8
BLACK
6
CONTINUOUS
10
219.6755149999999901
20
-74.7945739999999972
11
140.2855150000000037
21
-127.0345739999999921
0
POLYLINE
8
BLACK
66
1
70
1
40
1.8884779999999999
41
1.8884779999999999
0
VERTEX
8
BLACK
10
214.9412759999999878
 20
-74.8045740000000023
42
1.0
0
VERTEX
8
BLACK
10
216.8297540000000083
 20
-74.8045740000000023
42
1.0
0
SEQEND
  0
ENDSEC
  0
EOF
