  0
SECTION
  2
HEADER
  9
$ANGBASE
  50
0.0
  9
$ANGDIR
  70
1
  9
$MEASUREMENT
  70
1
  0
ENDSEC
  0
SECTION
  2
TABLES
  0
TABLE
  2
LTYPE
  70
4
  0
LTYPE
  5
40F
  2
CONTINUOUS
  70
0
  3
Solid line
  72
65
  73
0
  40
0.0
  0
LTYPE
  5
410
  2
DASHDOT
 70
0
  3
Dash Dot ____ _ ____ _
 72
65
 73
4
 40
2.0
 49
1.25
 49
-0.25
 49
0.25
 49
-0.25
  0
LTYPE
  5
411
  2
DASHED
 70
0
  3
Dashed __ __ __ __ __
 72
65
 73
2
 40
0.75
 49
0.5
 49
-0.25
  0
LTYPE
  5
43B
  2
DOTTED
 70
0
  3
Dotted .  .  .  .
 72
65
 73
2
 40
0.2
 49
0.0
 49
-0.2
  0
ENDTAB
  0
TABLE
  2
STYLE
  70
4
  0
STYLE
  2
KICAD
  70
0
  40
0
  41
1
  42
1
  50
0
  71
0
  3
isocp.shx
  0
STYLE
  2
KICADB
  70
0
  40
0
  41
1
  42
1
  50
0
  71
0
  3
isocp.shx
  0
STYLE
  2
KICADI
  70
0
  40
0
  41
1
  42
1
  50
15
  71
0
  3
isocp.shx
  0
STYLE
  2
KICADBI
  70
0
  40
0
  41
1
  42
1
  50
15
  71
0
  3
isocp.shx
  0
ENDTAB
  0
TABLE
  2
LAYER
  70
1
  0
LAYER
  2
BLACK
  70
0
  62
7
  6
CONTINUOUS
  0
ENDTAB
  0
ENDSEC
  0
SECTION
  2
ENTITIES
0
LINE
8
BLACK
6
CONTINUOUS
10
206.146
20
-61.2746
11
153.586
21
-61.2746
0
LINE
8
BLACK
6
CONTINUOUS
10
153.586
20
-61.2746
11
140.306
21
-74.5546
0
LINE
8
BLACK
6
CONTINUOUS
10
219.686
20
-138.295
11
219.686
21
-74.8146
0
LINE
8
BLACK
6
CONTINUOUS
10
140.306
20
-74.5546
11
140.306
21
-126.985
0
LINE
8
BLACK
6
CONTINUOUS
10
140.306
20
-126.985
11
153.986
21
-140.665
0
CIRCLE
8
BLACK
10
198.249
20
-137.145
40
1.85
0
CIRCLE
8
BLACK
10
154.396
20
-64.9746
40
1.85
0
CIRCLE
8
BLACK
10
144.306
20
-74.6046
40
1.85
0
CIRCLE
8
BLACK
10
143.956
20
-127.275
40
1.85
0
LINE
8
BLACK
6
CONTINUOUS
10
219.686
20
-74.8146
11
206.146
21
-61.2746
0
CIRCLE
8
BLACK
10
154.136
20
-137.195
40
1.85
0
LINE
8
BLACK
6
CONTINUOUS
10
153.986
20
-140.665
11
205.836
21
-140.665
0
CIRCLE
8
BLACK
10
215.876
20
-74.8046
40
1.85
0
CIRCLE
8
BLACK
10
205.896
20
-64.9346
40
1.85
0
LINE
8
BLACK
6
CONTINUOUS
10
205.836
20
-140.665
11
217.316
21
-140.665
0
LINE
8
BLACK
6
CONTINUOUS
10
217.316
20
-140.665
11
219.686
21
-138.295
0
CIRCLE
8
BLACK
10
216.307
20
-118.266
40
1.85
0
LINE
8
BLACK
6
CONTINUOUS
10
200.135
20
-115.145
11
200.835
21
-115.845
0
LINE
8
BLACK
6
CONTINUOUS
10
200.835
20
-115.145
11
200.135
21
-115.845
0
LINE
8
BLACK
6
CONTINUOUS
10
200.135
20
-117.045
11
200.835
21
-117.745
0
LINE
8
BLACK
6
CONTINUOUS
10
200.835
20
-117.045
11
200.135
21
-117.745
0
CIRCLE
8
BLACK
10
182.545
20
-89.4196
40
0.381
0
CIRCLE
8
BLACK
10
182.545
20
-112.27
40
0.381
0
CIRCLE
8
BLACK
10
190.245
20
-89.4196
40
0.381
0
CIRCLE
8
BLACK
10
190.245
20
-112.27
40
0.381
0
LINE
8
BLACK
6
CONTINUOUS
10
151.75
20
-73.3246
11
151.75
21
-74.2246
0
LINE
8
BLACK
6
CONTINUOUS
10
151.3
20
-73.7746
11
152.201
21
-73.7746
0
LINE
8
BLACK
6
CONTINUOUS
10
154.29
20
-73.3246
11
154.29
21
-74.2246
0
LINE
8
BLACK
6
CONTINUOUS
10
153.84
20
-73.7746
11
154.74
21
-73.7746
0
LINE
8
BLACK
6
CONTINUOUS
10
205.75
20
-73.3246
11
205.75
21
-74.2246
0
LINE
8
BLACK
6
CONTINUOUS
10
205.3
20
-73.7746
11
206.2
21
-73.7746
0
LINE
8
BLACK
6
CONTINUOUS
10
208.29
20
-73.3246
11
208.29
21
-74.2246
0
LINE
8
BLACK
6
CONTINUOUS
10
207.84
20
-73.7746
11
208.74
21
-73.7746
0
LINE
8
BLACK
6
CONTINUOUS
10
143.339
20
-97.6342
11
143.339
21
-96.927
0
LINE
8
BLACK
6
CONTINUOUS
10
143.339
20
-96.927
11
142.632
21
-96.927
0
LINE
8
BLACK
6
CONTINUOUS
10
142.632
20
-96.927
11
142.632
21
-97.6342
0
LINE
8
BLACK
6
CONTINUOUS
10
142.632
20
-97.6342
11
143.339
21
-97.6342
0
LINE
8
BLACK
6
CONTINUOUS
10
143.339
20
-100.174
11
143.339
21
-99.467
0
LINE
8
BLACK
6
CONTINUOUS
10
143.339
20
-99.467
11
142.632
21
-99.467
0
LINE
8
BLACK
6
CONTINUOUS
10
142.632
20
-99.467
11
142.632
21
-100.174
0
LINE
8
BLACK
6
CONTINUOUS
10
142.632
20
-100.174
11
143.339
21
-100.174
0
LINE
8
BLACK
6
CONTINUOUS
10
143.339
20
-102.714
11
143.339
21
-102.007
0
LINE
8
BLACK
6
CONTINUOUS
10
143.339
20
-102.007
11
142.632
21
-102.007
0
LINE
8
BLACK
6
CONTINUOUS
10
142.632
20
-102.007
11
142.632
21
-102.714
0
LINE
8
BLACK
6
CONTINUOUS
10
142.632
20
-102.714
11
143.339
21
-102.714
0
LINE
8
BLACK
6
CONTINUOUS
10
143.339
20
-105.254
11
143.339
21
-104.547
0
LINE
8
BLACK
6
CONTINUOUS
10
143.339
20
-104.547
11
142.632
21
-104.547
0
LINE
8
BLACK
6
CONTINUOUS
10
142.632
20
-104.547
11
142.632
21
-105.254
0
LINE
8
BLACK
6
CONTINUOUS
10
142.632
20
-105.254
11
143.339
21
-105.254
0
LINE
8
BLACK
6
CONTINUOUS
10
153.753
20
-117.192
11
153.753
21
-116.485
0
LINE
8
BLACK
6
CONTINUOUS
10
153.753
20
-116.485
11
153.046
21
-116.485
0
LINE
8
BLACK
6
CONTINUOUS
10
153.046
20
-116.485
11
153.046
21
-117.192
0
LINE
8
BLACK
6
CONTINUOUS
10
153.046
20
-117.192
11
153.753
21
-117.192
0
LINE
8
BLACK
6
CONTINUOUS
10
156.293
20
-117.192
11
156.293
21
-116.485
0
LINE
8
BLACK
6
CONTINUOUS
10
156.293
20
-116.485
11
155.586
21
-116.485
0
LINE
8
BLACK
6
CONTINUOUS
10
155.586
20
-116.485
11
155.586
21
-117.192
0
LINE
8
BLACK
6
CONTINUOUS
10
155.586
20
-117.192
11
156.293
21
-117.192
0
LINE
8
BLACK
6
CONTINUOUS
10
158.833
20
-117.192
11
158.833
21
-116.485
0
LINE
8
BLACK
6
CONTINUOUS
10
158.833
20
-116.485
11
158.126
21
-116.485
0
LINE
8
BLACK
6
CONTINUOUS
10
158.126
20
-116.485
11
158.126
21
-117.192
0
LINE
8
BLACK
6
CONTINUOUS
10
158.126
20
-117.192
11
158.833
21
-117.192
0
LINE
8
BLACK
6
CONTINUOUS
10
161.373
20
-117.192
11
161.373
21
-116.485
0
LINE
8
BLACK
6
CONTINUOUS
10
161.373
20
-116.485
11
160.666
21
-116.485
0
LINE
8
BLACK
6
CONTINUOUS
10
160.666
20
-116.485
11
160.666
21
-117.192
0
LINE
8
BLACK
6
CONTINUOUS
10
160.666
20
-117.192
11
161.373
21
-117.192
0
LINE
8
BLACK
6
CONTINUOUS
10
161.856
20
-129.648
11
161.856
21
-128.941
0
LINE
8
BLACK
6
CONTINUOUS
10
161.856
20
-128.941
11
161.149
21
-128.941
0
LINE
8
BLACK
6
CONTINUOUS
10
161.149
20
-128.941
11
161.149
21
-129.648
0
LINE
8
BLACK
6
CONTINUOUS
10
161.149
20
-129.648
11
161.856
21
-129.648
0
LINE
8
BLACK
6
CONTINUOUS
10
161.856
20
-132.188
11
161.856
21
-131.481
0
LINE
8
BLACK
6
CONTINUOUS
10
161.856
20
-131.481
11
161.149
21
-131.481
0
LINE
8
BLACK
6
CONTINUOUS
10
161.149
20
-131.481
11
161.149
21
-132.188
0
LINE
8
BLACK
6
CONTINUOUS
10
161.149
20
-132.188
11
161.856
21
-132.188
0
LINE
8
BLACK
6
CONTINUOUS
10
161.856
20
-134.728
11
161.856
21
-134.021
0
LINE
8
BLACK
6
CONTINUOUS
10
161.856
20
-134.021
11
161.149
21
-134.021
0
LINE
8
BLACK
6
CONTINUOUS
10
161.149
20
-134.021
11
161.149
21
-134.728
0
LINE
8
BLACK
6
CONTINUOUS
10
161.149
20
-134.728
11
161.856
21
-134.728
0
LINE
8
BLACK
6
CONTINUOUS
10
161.856
20
-137.268
11
161.856
21
-136.561
0
LINE
8
BLACK
6
CONTINUOUS
10
161.856
20
-136.561
11
161.149
21
-136.561
0
LINE
8
BLACK
6
CONTINUOUS
10
161.149
20
-136.561
11
161.149
21
-137.268
0
LINE
8
BLACK
6
CONTINUOUS
10
161.149
20
-137.268
11
161.856
21
-137.268
0
LINE
8
BLACK
6
CONTINUOUS
10
208.369
20
-124.408
11
208.369
21
-123.701
0
LINE
8
BLACK
6
CONTINUOUS
10
208.369
20
-123.701
11
207.662
21
-123.701
0
LINE
8
BLACK
6
CONTINUOUS
10
207.662
20
-123.701
11
207.662
21
-124.408
0
LINE
8
BLACK
6
CONTINUOUS
10
207.662
20
-124.408
11
208.369
21
-124.408
0
LINE
8
BLACK
6
CONTINUOUS
10
208.369
20
-138.908
11
208.369
21
-138.201
0
LINE
8
BLACK
6
CONTINUOUS
10
208.369
20
-138.201
11
207.662
21
-138.201
0
LINE
8
BLACK
6
CONTINUOUS
10
207.662
20
-138.201
11
207.662
21
-138.908
0
LINE
8
BLACK
6
CONTINUOUS
10
207.662
20
-138.908
11
208.369
21
-138.908
0
LINE
8
BLACK
6
CONTINUOUS
10
210.869
20
-124.408
11
210.869
21
-123.701
0
LINE
8
BLACK
6
CONTINUOUS
10
210.869
20
-123.701
11
210.162
21
-123.701
0
LINE
8
BLACK
6
CONTINUOUS
10
210.162
20
-123.701
11
210.162
21
-124.408
0
LINE
8
BLACK
6
CONTINUOUS
10
210.162
20
-124.408
11
210.869
21
-124.408
0
LINE
8
BLACK
6
CONTINUOUS
10
213.369
20
-124.408
11
213.369
21
-123.701
0
LINE
8
BLACK
6
CONTINUOUS
10
213.369
20
-123.701
11
212.662
21
-123.701
0
LINE
8
BLACK
6
CONTINUOUS
10
212.662
20
-123.701
11
212.662
21
-124.408
0
LINE
8
BLACK
6
CONTINUOUS
10
212.662
20
-124.408
11
213.369
21
-124.408
0
LINE
8
BLACK
6
CONTINUOUS
10
213.369
20
-138.908
11
213.369
21
-138.201
0
LINE
8
BLACK
6
CONTINUOUS
10
213.369
20
-138.201
11
212.662
21
-138.201
0
LINE
8
BLACK
6
CONTINUOUS
10
212.662
20
-138.201
11
212.662
21
-138.908
0
LINE
8
BLACK
6
CONTINUOUS
10
212.662
20
-138.908
11
213.369
21
-138.908
0
LINE
8
BLACK
6
CONTINUOUS
10
173.974
20
-75.2696
11
174.569
21
-74.6746
0
LINE
8
BLACK
6
CONTINUOUS
10
174.569
20
-74.6746
11
173.974
21
-74.0796
0
LINE
8
BLACK
6
CONTINUOUS
10
173.974
20
-74.0796
11
173.379
21
-74.6746
0
LINE
8
BLACK
6
CONTINUOUS
10
173.379
20
-74.6746
11
173.974
21
-75.2696
0
LINE
8
BLACK
6
CONTINUOUS
10
176.513
20
-75.2696
11
177.108
21
-74.6746
0
LINE
8
BLACK
6
CONTINUOUS
10
177.108
20
-74.6746
11
176.513
21
-74.0796
0
LINE
8
BLACK
6
CONTINUOUS
10
176.513
20
-74.0796
11
175.918
21
-74.6746
0
LINE
8
BLACK
6
CONTINUOUS
10
175.918
20
-74.6746
11
176.513
21
-75.2696
0
LINE
8
BLACK
6
CONTINUOUS
10
179.053
20
-75.2696
11
179.648
21
-74.6746
0
LINE
8
BLACK
6
CONTINUOUS
10
179.648
20
-74.6746
11
179.053
21
-74.0796
0
LINE
8
BLACK
6
CONTINUOUS
10
179.053
20
-74.0796
11
178.458
21
-74.6746
0
LINE
8
BLACK
6
CONTINUOUS
10
178.458
20
-74.6746
11
179.053
21
-75.2696
0
LINE
8
BLACK
6
CONTINUOUS
10
181.594
20
-75.2696
11
182.189
21
-74.6746
0
LINE
8
BLACK
6
CONTINUOUS
10
182.189
20
-74.6746
11
181.594
21
-74.0796
0
LINE
8
BLACK
6
CONTINUOUS
10
181.594
20
-74.0796
11
180.998
21
-74.6746
0
LINE
8
BLACK
6
CONTINUOUS
10
180.998
20
-74.6746
11
181.594
21
-75.2696
0
LINE
8
BLACK
6
CONTINUOUS
10
184.133
20
-75.2696
11
184.728
21
-74.6746
0
LINE
8
BLACK
6
CONTINUOUS
10
184.728
20
-74.6746
11
184.133
21
-74.0796
0
LINE
8
BLACK
6
CONTINUOUS
10
184.133
20
-74.0796
11
183.538
21
-74.6746
0
LINE
8
BLACK
6
CONTINUOUS
10
183.538
20
-74.6746
11
184.133
21
-75.2696
0
LINE
8
BLACK
6
CONTINUOUS
10
186.673
20
-75.2696
11
187.268
21
-74.6746
0
LINE
8
BLACK
6
CONTINUOUS
10
187.268
20
-74.6746
11
186.673
21
-74.0796
0
LINE
8
BLACK
6
CONTINUOUS
10
186.673
20
-74.0796
11
186.078
21
-74.6746
0
LINE
8
BLACK
6
CONTINUOUS
10
186.078
20
-74.6746
11
186.673
21
-75.2696
0
LINE
8
BLACK
6
CONTINUOUS
10
203.691
20
-89.2596
11
204.286
21
-88.6646
0
LINE
8
BLACK
6
CONTINUOUS
10
204.286
20
-88.6646
11
203.691
21
-88.0696
0
LINE
8
BLACK
6
CONTINUOUS
10
203.691
20
-88.0696
11
203.096
21
-88.6646
0
LINE
8
BLACK
6
CONTINUOUS
10
203.096
20
-88.6646
11
203.691
21
-89.2596
0
LINE
8
BLACK
6
CONTINUOUS
10
203.785
20
-110.88
11
204.38
21
-110.285
0
LINE
8
BLACK
6
CONTINUOUS
10
204.38
20
-110.285
11
203.785
21
-109.69
0
LINE
8
BLACK
6
CONTINUOUS
10
203.785
20
-109.69
11
203.19
21
-110.285
0
LINE
8
BLACK
6
CONTINUOUS
10
203.19
20
-110.285
11
203.785
21
-110.88
0
LINE
8
BLACK
6
CONTINUOUS
10
206.231
20
-89.2596
11
206.826
21
-88.6646
0
LINE
8
BLACK
6
CONTINUOUS
10
206.826
20
-88.6646
11
206.231
21
-88.0696
0
LINE
8
BLACK
6
CONTINUOUS
10
206.231
20
-88.0696
11
205.636
21
-88.6646
0
LINE
8
BLACK
6
CONTINUOUS
10
205.636
20
-88.6646
11
206.231
21
-89.2596
0
LINE
8
BLACK
6
CONTINUOUS
10
206.325
20
-110.88
11
206.921
21
-110.285
0
LINE
8
BLACK
6
CONTINUOUS
10
206.921
20
-110.285
11
206.325
21
-109.69
0
LINE
8
BLACK
6
CONTINUOUS
10
206.325
20
-109.69
11
205.73
21
-110.285
0
LINE
8
BLACK
6
CONTINUOUS
10
205.73
20
-110.285
11
206.325
21
-110.88
0
LINE
8
BLACK
6
CONTINUOUS
10
208.772
20
-89.2596
11
209.367
21
-88.6646
0
LINE
8
BLACK
6
CONTINUOUS
10
209.367
20
-88.6646
11
208.772
21
-88.0696
0
LINE
8
BLACK
6
CONTINUOUS
10
208.772
20
-88.0696
11
208.177
21
-88.6646
0
LINE
8
BLACK
6
CONTINUOUS
10
208.177
20
-88.6646
11
208.772
21
-89.2596
0
LINE
8
BLACK
6
CONTINUOUS
10
208.865
20
-110.88
11
209.46
21
-110.285
0
LINE
8
BLACK
6
CONTINUOUS
10
209.46
20
-110.285
11
208.865
21
-109.69
0
LINE
8
BLACK
6
CONTINUOUS
10
208.865
20
-109.69
11
208.27
21
-110.285
0
LINE
8
BLACK
6
CONTINUOUS
10
208.27
20
-110.285
11
208.865
21
-110.88
0
LINE
8
BLACK
6
CONTINUOUS
10
211.311
20
-89.2596
11
211.906
21
-88.6646
0
LINE
8
BLACK
6
CONTINUOUS
10
211.906
20
-88.6646
11
211.311
21
-88.0696
0
LINE
8
BLACK
6
CONTINUOUS
10
211.311
20
-88.0696
11
210.716
21
-88.6646
0
LINE
8
BLACK
6
CONTINUOUS
10
210.716
20
-88.6646
11
211.311
21
-89.2596
0
LINE
8
BLACK
6
CONTINUOUS
10
211.405
20
-110.88
11
212
21
-110.285
0
LINE
8
BLACK
6
CONTINUOUS
10
212
20
-110.285
11
211.405
21
-109.69
0
LINE
8
BLACK
6
CONTINUOUS
10
211.405
20
-109.69
11
210.81
21
-110.285
0
LINE
8
BLACK
6
CONTINUOUS
10
210.81
20
-110.285
11
211.405
21
-110.88
0
LINE
8
BLACK
6
CONTINUOUS
10
213.851
20
-89.2596
11
214.446
21
-88.6646
0
LINE
8
BLACK
6
CONTINUOUS
10
214.446
20
-88.6646
11
213.851
21
-88.0696
0
LINE
8
BLACK
6
CONTINUOUS
10
213.851
20
-88.0696
11
213.256
21
-88.6646
0
LINE
8
BLACK
6
CONTINUOUS
10
213.256
20
-88.6646
11
213.851
21
-89.2596
0
LINE
8
BLACK
6
CONTINUOUS
10
213.945
20
-110.88
11
214.54
21
-110.285
0
LINE
8
BLACK
6
CONTINUOUS
10
214.54
20
-110.285
11
213.945
21
-109.69
0
LINE
8
BLACK
6
CONTINUOUS
10
213.945
20
-109.69
11
213.35
21
-110.285
0
LINE
8
BLACK
6
CONTINUOUS
10
213.35
20
-110.285
11
213.945
21
-110.88
0
LINE
8
BLACK
6
CONTINUOUS
10
216.391
20
-89.2596
11
216.986
21
-88.6646
0
LINE
8
BLACK
6
CONTINUOUS
10
216.986
20
-88.6646
11
216.391
21
-88.0696
0
LINE
8
BLACK
6
CONTINUOUS
10
216.391
20
-88.0696
11
215.796
21
-88.6646
0
LINE
8
BLACK
6
CONTINUOUS
10
215.796
20
-88.6646
11
216.391
21
-89.2596
0
LINE
8
BLACK
6
CONTINUOUS
10
216.486
20
-110.88
11
217.081
21
-110.285
0
LINE
8
BLACK
6
CONTINUOUS
10
217.081
20
-110.285
11
216.486
21
-109.69
0
LINE
8
BLACK
6
CONTINUOUS
10
216.486
20
-109.69
11
215.891
21
-110.285
0
LINE
8
BLACK
6
CONTINUOUS
10
215.891
20
-110.285
11
216.486
21
-110.88
0
LINE
8
BLACK
6
CONTINUOUS
10
204.165
20
-130.805
11
205.665
21
-132.305
0
LINE
8
BLACK
6
CONTINUOUS
10
205.665
20
-130.805
11
204.165
21
-132.305
0
CIRCLE
8
BLACK
10
204.915
20
-131.555
40
0.75
0
LINE
8
BLACK
6
CONTINUOUS
10
204.165
20
-130.905
11
204.165
21
-132.205
0
LINE
8
BLACK
6
CONTINUOUS
10
205.665
20
-130.905
11
205.665
21
-132.205
0
ARC
8
BLACK
10
204.915
20
-132.205
40
0.75
50
180
51
360
0
ARC
8
BLACK
10
204.915
20
-130.905
40
0.75
50
0
51
180
0
LINE
8
BLACK
6
CONTINUOUS
10
215.365
20
-130.805
11
216.865
21
-132.305
0
LINE
8
BLACK
6
CONTINUOUS
10
216.865
20
-130.805
11
215.365
21
-132.305
0
CIRCLE
8
BLACK
10
216.115
20
-131.555
40
0.75
0
LINE
8
BLACK
6
CONTINUOUS
10
215.365
20
-130.905
11
215.365
21
-132.205
0
LINE
8
BLACK
6
CONTINUOUS
10
216.865
20
-130.905
11
216.865
21
-132.205
0
ARC
8
BLACK
10
216.115
20
-132.205
40
0.75
50
180
51
360
0
ARC
8
BLACK
10
216.115
20
-130.905
40
0.75
50
0
51
180
0
LINE
8
BLACK
6
CONTINUOUS
10
142.857
20
-143.794
11
142.857
21
-141.794
0
LINE
8
BLACK
6
CONTINUOUS
10
142.857
20
-141.794
11
143.333
21
-141.794
0
LINE
8
BLACK
6
CONTINUOUS
10
143.333
20
-141.794
11
143.619
21
-141.89
0
LINE
8
BLACK
6
CONTINUOUS
10
143.619
20
-141.89
11
143.809
21
-142.08
0
LINE
8
BLACK
6
CONTINUOUS
10
143.809
20
-142.08
11
143.904
21
-142.271
0
LINE
8
BLACK
6
CONTINUOUS
10
143.904
20
-142.271
11
144
21
-142.651
0
LINE
8
BLACK
6
CONTINUOUS
10
144
20
-142.651
11
144
21
-142.937
0
LINE
8
BLACK
6
CONTINUOUS
10
144
20
-142.937
11
143.904
21
-143.318
0
LINE
8
BLACK
6
CONTINUOUS
10
143.904
20
-143.318
11
143.809
21
-143.509
0
LINE
8
BLACK
6
CONTINUOUS
10
143.809
20
-143.509
11
143.619
21
-143.699
0
LINE
8
BLACK
6
CONTINUOUS
10
143.619
20
-143.699
11
143.333
21
-143.794
0
LINE
8
BLACK
6
CONTINUOUS
10
143.333
20
-143.794
11
142.857
21
-143.794
0
LINE
8
BLACK
6
CONTINUOUS
10
144.857
20
-143.794
11
144.857
21
-142.461
0
LINE
8
BLACK
6
CONTINUOUS
10
144.857
20
-142.842
11
144.952
21
-142.651
0
LINE
8
BLACK
6
CONTINUOUS
10
144.952
20
-142.651
11
145.047
21
-142.556
0
LINE
8
BLACK
6
CONTINUOUS
10
145.047
20
-142.556
11
145.238
21
-142.461
0
LINE
8
BLACK
6
CONTINUOUS
10
145.238
20
-142.461
11
145.428
21
-142.461
0
LINE
8
BLACK
6
CONTINUOUS
10
146.095
20
-143.794
11
146.095
21
-142.461
0
LINE
8
BLACK
6
CONTINUOUS
10
146.095
20
-141.794
11
146
21
-141.89
0
LINE
8
BLACK
6
CONTINUOUS
10
146
20
-141.89
11
146.095
21
-141.985
0
LINE
8
BLACK
6
CONTINUOUS
10
146.095
20
-141.985
11
146.19
21
-141.89
0
LINE
8
BLACK
6
CONTINUOUS
10
146.19
20
-141.89
11
146.095
21
-141.794
0
LINE
8
BLACK
6
CONTINUOUS
10
146.095
20
-141.794
11
146.095
21
-141.985
0
LINE
8
BLACK
6
CONTINUOUS
10
147.333
20
-143.794
11
147.142
21
-143.699
0
LINE
8
BLACK
6
CONTINUOUS
10
147.142
20
-143.699
11
147.047
21
-143.509
0
LINE
8
BLACK
6
CONTINUOUS
10
147.047
20
-143.509
11
147.047
21
-141.794
0
LINE
8
BLACK
6
CONTINUOUS
10
148.381
20
-143.794
11
148.19
21
-143.699
0
LINE
8
BLACK
6
CONTINUOUS
10
148.19
20
-143.699
11
148.095
21
-143.509
0
LINE
8
BLACK
6
CONTINUOUS
10
148.095
20
-143.509
11
148.095
21
-141.794
0
LINE
8
BLACK
6
CONTINUOUS
10
150.666
20
-143.794
11
150.666
21
-141.794
0
LINE
8
BLACK
6
CONTINUOUS
10
150.666
20
-141.794
11
151.333
21
-143.223
0
LINE
8
BLACK
6
CONTINUOUS
10
151.333
20
-143.223
11
152
21
-141.794
0
LINE
8
BLACK
6
CONTINUOUS
10
152
20
-141.794
11
152
21
-143.794
0
LINE
8
BLACK
6
CONTINUOUS
10
153.809
20
-143.794
11
153.809
21
-142.747
0
LINE
8
BLACK
6
CONTINUOUS
10
153.809
20
-142.747
11
153.714
21
-142.556
0
LINE
8
BLACK
6
CONTINUOUS
10
153.714
20
-142.556
11
153.523
21
-142.461
0
LINE
8
BLACK
6
CONTINUOUS
10
153.523
20
-142.461
11
153.142
21
-142.461
0
LINE
8
BLACK
6
CONTINUOUS
10
153.142
20
-142.461
11
152.952
21
-142.556
0
LINE
8
BLACK
6
CONTINUOUS
10
153.809
20
-143.699
11
153.619
21
-143.794
0
LINE
8
BLACK
6
CONTINUOUS
10
153.619
20
-143.794
11
153.142
21
-143.794
0
LINE
8
BLACK
6
CONTINUOUS
10
153.142
20
-143.794
11
152.952
21
-143.699
0
LINE
8
BLACK
6
CONTINUOUS
10
152.952
20
-143.699
11
152.857
21
-143.509
0
LINE
8
BLACK
6
CONTINUOUS
10
152.857
20
-143.509
11
152.857
21
-143.318
0
LINE
8
BLACK
6
CONTINUOUS
10
152.857
20
-143.318
11
152.952
21
-143.128
0
LINE
8
BLACK
6
CONTINUOUS
10
152.952
20
-143.128
11
153.142
21
-143.032
0
LINE
8
BLACK
6
CONTINUOUS
10
153.142
20
-143.032
11
153.619
21
-143.032
0
LINE
8
BLACK
6
CONTINUOUS
10
153.619
20
-143.032
11
153.809
21
-142.937
0
LINE
8
BLACK
6
CONTINUOUS
10
154.761
20
-142.461
11
154.761
21
-144.461
0
LINE
8
BLACK
6
CONTINUOUS
10
154.761
20
-142.556
11
154.952
21
-142.461
0
LINE
8
BLACK
6
CONTINUOUS
10
154.952
20
-142.461
11
155.333
21
-142.461
0
LINE
8
BLACK
6
CONTINUOUS
10
155.333
20
-142.461
11
155.523
21
-142.556
0
LINE
8
BLACK
6
CONTINUOUS
10
155.523
20
-142.556
11
155.619
21
-142.651
0
LINE
8
BLACK
6
CONTINUOUS
10
155.619
20
-142.651
11
155.714
21
-142.842
0
LINE
8
BLACK
6
CONTINUOUS
10
155.714
20
-142.842
11
155.714
21
-143.413
0
LINE
8
BLACK
6
CONTINUOUS
10
155.714
20
-143.413
11
155.619
21
-143.604
0
LINE
8
BLACK
6
CONTINUOUS
10
155.619
20
-143.604
11
155.523
21
-143.699
0
LINE
8
BLACK
6
CONTINUOUS
10
155.523
20
-143.699
11
155.333
21
-143.794
0
LINE
8
BLACK
6
CONTINUOUS
10
155.333
20
-143.794
11
154.952
21
-143.794
0
LINE
8
BLACK
6
CONTINUOUS
10
154.952
20
-143.794
11
154.761
21
-143.699
0
LINE
8
BLACK
6
CONTINUOUS
10
156.571
20
-143.604
11
156.666
21
-143.699
0
LINE
8
BLACK
6
CONTINUOUS
10
156.666
20
-143.699
11
156.571
21
-143.794
0
LINE
8
BLACK
6
CONTINUOUS
10
156.571
20
-143.794
11
156.476
21
-143.699
0
LINE
8
BLACK
6
CONTINUOUS
10
156.476
20
-143.699
11
156.571
21
-143.604
0
LINE
8
BLACK
6
CONTINUOUS
10
156.571
20
-143.604
11
156.571
21
-143.794
0
LINE
8
BLACK
6
CONTINUOUS
10
156.571
20
-142.556
11
156.666
21
-142.651
0
LINE
8
BLACK
6
CONTINUOUS
10
156.666
20
-142.651
11
156.571
21
-142.747
0
LINE
8
BLACK
6
CONTINUOUS
10
156.571
20
-142.747
11
156.476
21
-142.651
0
LINE
8
BLACK
6
CONTINUOUS
10
156.476
20
-142.651
11
156.571
21
-142.556
0
LINE
8
BLACK
6
CONTINUOUS
10
156.571
20
-142.556
11
156.571
21
-142.747
0
LINE
8
BLACK
6
CONTINUOUS
10
139.581
20
-146.74
11
140.281
21
-147.44
0
LINE
8
BLACK
6
CONTINUOUS
10
140.281
20
-146.74
11
139.581
21
-147.44
0
LINE
8
BLACK
6
CONTINUOUS
10
143.238
20
-145.994
11
143.428
21
-145.994
0
LINE
8
BLACK
6
CONTINUOUS
10
143.428
20
-145.994
11
143.619
21
-146.09
0
LINE
8
BLACK
6
CONTINUOUS
10
143.619
20
-146.09
11
143.714
21
-146.185
0
LINE
8
BLACK
6
CONTINUOUS
10
143.714
20
-146.185
11
143.809
21
-146.375
0
LINE
8
BLACK
6
CONTINUOUS
10
143.809
20
-146.375
11
143.904
21
-146.756
0
LINE
8
BLACK
6
CONTINUOUS
10
143.904
20
-146.756
11
143.904
21
-147.232
0
LINE
8
BLACK
6
CONTINUOUS
10
143.904
20
-147.232
11
143.809
21
-147.613
0
LINE
8
BLACK
6
CONTINUOUS
10
143.809
20
-147.613
11
143.714
21
-147.804
0
LINE
8
BLACK
6
CONTINUOUS
10
143.714
20
-147.804
11
143.619
21
-147.899
0
LINE
8
BLACK
6
CONTINUOUS
10
143.619
20
-147.899
11
143.428
21
-147.994
0
LINE
8
BLACK
6
CONTINUOUS
10
143.428
20
-147.994
11
143.238
21
-147.994
0
LINE
8
BLACK
6
CONTINUOUS
10
143.238
20
-147.994
11
143.047
21
-147.899
0
LINE
8
BLACK
6
CONTINUOUS
10
143.047
20
-147.899
11
142.952
21
-147.804
0
LINE
8
BLACK
6
CONTINUOUS
10
142.952
20
-147.804
11
142.857
21
-147.613
0
LINE
8
BLACK
6
CONTINUOUS
10
142.857
20
-147.613
11
142.761
21
-147.232
0
LINE
8
BLACK
6
CONTINUOUS
10
142.761
20
-147.232
11
142.761
21
-146.756
0
LINE
8
BLACK
6
CONTINUOUS
10
142.761
20
-146.756
11
142.857
21
-146.375
0
LINE
8
BLACK
6
CONTINUOUS
10
142.857
20
-146.375
11
142.952
21
-146.185
0
LINE
8
BLACK
6
CONTINUOUS
10
142.952
20
-146.185
11
143.047
21
-146.09
0
LINE
8
BLACK
6
CONTINUOUS
10
143.047
20
-146.09
11
143.238
21
-145.994
0
LINE
8
BLACK
6
CONTINUOUS
10
144.761
20
-147.804
11
144.857
21
-147.899
0
LINE
8
BLACK
6
CONTINUOUS
10
144.857
20
-147.899
11
144.761
21
-147.994
0
LINE
8
BLACK
6
CONTINUOUS
10
144.761
20
-147.994
11
144.666
21
-147.899
0
LINE
8
BLACK
6
CONTINUOUS
10
144.666
20
-147.899
11
144.761
21
-147.804
0
LINE
8
BLACK
6
CONTINUOUS
10
144.761
20
-147.804
11
144.761
21
-147.994
0
LINE
8
BLACK
6
CONTINUOUS
10
145.523
20
-145.994
11
146.857
21
-145.994
0
LINE
8
BLACK
6
CONTINUOUS
10
146.857
20
-145.994
11
146
21
-147.994
0
LINE
8
BLACK
6
CONTINUOUS
10
148
20
-145.994
11
148.19
21
-145.994
0
LINE
8
BLACK
6
CONTINUOUS
10
148.19
20
-145.994
11
148.381
21
-146.09
0
LINE
8
BLACK
6
CONTINUOUS
10
148.381
20
-146.09
11
148.476
21
-146.185
0
LINE
8
BLACK
6
CONTINUOUS
10
148.476
20
-146.185
11
148.571
21
-146.375
0
LINE
8
BLACK
6
CONTINUOUS
10
148.571
20
-146.375
11
148.666
21
-146.756
0
LINE
8
BLACK
6
CONTINUOUS
10
148.666
20
-146.756
11
148.666
21
-147.232
0
LINE
8
BLACK
6
CONTINUOUS
10
148.666
20
-147.232
11
148.571
21
-147.613
0
LINE
8
BLACK
6
CONTINUOUS
10
148.571
20
-147.613
11
148.476
21
-147.804
0
LINE
8
BLACK
6
CONTINUOUS
10
148.476
20
-147.804
11
148.381
21
-147.899
0
LINE
8
BLACK
6
CONTINUOUS
10
148.381
20
-147.899
11
148.19
21
-147.994
0
LINE
8
BLACK
6
CONTINUOUS
10
148.19
20
-147.994
11
148
21
-147.994
0
LINE
8
BLACK
6
CONTINUOUS
10
148
20
-147.994
11
147.809
21
-147.899
0
LINE
8
BLACK
6
CONTINUOUS
10
147.809
20
-147.899
11
147.714
21
-147.804
0
LINE
8
BLACK
6
CONTINUOUS
10
147.714
20
-147.804
11
147.619
21
-147.613
0
LINE
8
BLACK
6
CONTINUOUS
10
147.619
20
-147.613
11
147.523
21
-147.232
0
LINE
8
BLACK
6
CONTINUOUS
10
147.523
20
-147.232
11
147.523
21
-146.756
0
LINE
8
BLACK
6
CONTINUOUS
10
147.523
20
-146.756
11
147.619
21
-146.375
0
LINE
8
BLACK
6
CONTINUOUS
10
147.619
20
-146.375
11
147.714
21
-146.185
0
LINE
8
BLACK
6
CONTINUOUS
10
147.714
20
-146.185
11
147.809
21
-146.09
0
LINE
8
BLACK
6
CONTINUOUS
10
147.809
20
-146.09
11
148
21
-145.994
0
LINE
8
BLACK
6
CONTINUOUS
10
149.904
20
-145.994
11
150.095
21
-145.994
0
LINE
8
BLACK
6
CONTINUOUS
10
150.095
20
-145.994
11
150.285
21
-146.09
0
LINE
8
BLACK
6
CONTINUOUS
10
150.285
20
-146.09
11
150.381
21
-146.185
0
LINE
8
BLACK
6
CONTINUOUS
10
150.381
20
-146.185
11
150.476
21
-146.375
0
LINE
8
BLACK
6
CONTINUOUS
10
150.476
20
-146.375
11
150.571
21
-146.756
0
LINE
8
BLACK
6
CONTINUOUS
10
150.571
20
-146.756
11
150.571
21
-147.232
0
LINE
8
BLACK
6
CONTINUOUS
10
150.571
20
-147.232
11
150.476
21
-147.613
0
LINE
8
BLACK
6
CONTINUOUS
10
150.476
20
-147.613
11
150.381
21
-147.804
0
LINE
8
BLACK
6
CONTINUOUS
10
150.381
20
-147.804
11
150.285
21
-147.899
0
LINE
8
BLACK
6
CONTINUOUS
10
150.285
20
-147.899
11
150.095
21
-147.994
0
LINE
8
BLACK
6
CONTINUOUS
10
150.095
20
-147.994
11
149.904
21
-147.994
0
LINE
8
BLACK
6
CONTINUOUS
10
149.904
20
-147.994
11
149.714
21
-147.899
0
LINE
8
BLACK
6
CONTINUOUS
10
149.714
20
-147.899
11
149.619
21
-147.804
0
LINE
8
BLACK
6
CONTINUOUS
10
149.619
20
-147.804
11
149.523
21
-147.613
0
LINE
8
BLACK
6
CONTINUOUS
10
149.523
20
-147.613
11
149.428
21
-147.232
0
LINE
8
BLACK
6
CONTINUOUS
10
149.428
20
-147.232
11
149.428
21
-146.756
0
LINE
8
BLACK
6
CONTINUOUS
10
149.428
20
-146.756
11
149.523
21
-146.375
0
LINE
8
BLACK
6
CONTINUOUS
10
149.523
20
-146.375
11
149.619
21
-146.185
0
LINE
8
BLACK
6
CONTINUOUS
10
149.619
20
-146.185
11
149.714
21
-146.09
0
LINE
8
BLACK
6
CONTINUOUS
10
149.714
20
-146.09
11
149.904
21
-145.994
0
LINE
8
BLACK
6
CONTINUOUS
10
151.428
20
-147.994
11
151.428
21
-146.661
0
LINE
8
BLACK
6
CONTINUOUS
10
151.428
20
-146.851
11
151.523
21
-146.756
0
LINE
8
BLACK
6
CONTINUOUS
10
151.523
20
-146.756
11
151.714
21
-146.661
0
LINE
8
BLACK
6
CONTINUOUS
10
151.714
20
-146.661
11
152
21
-146.661
0
LINE
8
BLACK
6
CONTINUOUS
10
152
20
-146.661
11
152.19
21
-146.756
0
LINE
8
BLACK
6
CONTINUOUS
10
152.19
20
-146.756
11
152.285
21
-146.947
0
LINE
8
BLACK
6
CONTINUOUS
10
152.285
20
-146.947
11
152.285
21
-147.994
0
LINE
8
BLACK
6
CONTINUOUS
10
152.285
20
-146.947
11
152.381
21
-146.756
0
LINE
8
BLACK
6
CONTINUOUS
10
152.381
20
-146.756
11
152.571
21
-146.661
0
LINE
8
BLACK
6
CONTINUOUS
10
152.571
20
-146.661
11
152.857
21
-146.661
0
LINE
8
BLACK
6
CONTINUOUS
10
152.857
20
-146.661
11
153.047
21
-146.756
0
LINE
8
BLACK
6
CONTINUOUS
10
153.047
20
-146.756
11
153.142
21
-146.947
0
LINE
8
BLACK
6
CONTINUOUS
10
153.142
20
-146.947
11
153.142
21
-147.994
0
LINE
8
BLACK
6
CONTINUOUS
10
154.095
20
-147.994
11
154.095
21
-146.661
0
LINE
8
BLACK
6
CONTINUOUS
10
154.095
20
-146.851
11
154.19
21
-146.756
0
LINE
8
BLACK
6
CONTINUOUS
10
154.19
20
-146.756
11
154.381
21
-146.661
0
LINE
8
BLACK
6
CONTINUOUS
10
154.381
20
-146.661
11
154.666
21
-146.661
0
LINE
8
BLACK
6
CONTINUOUS
10
154.666
20
-146.661
11
154.857
21
-146.756
0
LINE
8
BLACK
6
CONTINUOUS
10
154.857
20
-146.756
11
154.952
21
-146.947
0
LINE
8
BLACK
6
CONTINUOUS
10
154.952
20
-146.947
11
154.952
21
-147.994
0
LINE
8
BLACK
6
CONTINUOUS
10
154.952
20
-146.947
11
155.047
21
-146.756
0
LINE
8
BLACK
6
CONTINUOUS
10
155.047
20
-146.756
11
155.238
21
-146.661
0
LINE
8
BLACK
6
CONTINUOUS
10
155.238
20
-146.661
11
155.523
21
-146.661
0
LINE
8
BLACK
6
CONTINUOUS
10
155.523
20
-146.661
11
155.714
21
-146.756
0
LINE
8
BLACK
6
CONTINUOUS
10
155.714
20
-146.756
11
155.809
21
-146.947
0
LINE
8
BLACK
6
CONTINUOUS
10
155.809
20
-146.947
11
155.809
21
-147.994
0
LINE
8
BLACK
6
CONTINUOUS
10
159.714
20
-145.899
11
158
21
-148.471
0
LINE
8
BLACK
6
CONTINUOUS
10
162.285
20
-145.994
11
162.476
21
-145.994
0
LINE
8
BLACK
6
CONTINUOUS
10
162.476
20
-145.994
11
162.666
21
-146.09
0
LINE
8
BLACK
6
CONTINUOUS
10
162.666
20
-146.09
11
162.761
21
-146.185
0
LINE
8
BLACK
6
CONTINUOUS
10
162.761
20
-146.185
11
162.857
21
-146.375
0
LINE
8
BLACK
6
CONTINUOUS
10
162.857
20
-146.375
11
162.952
21
-146.756
0
LINE
8
BLACK
6
CONTINUOUS
10
162.952
20
-146.756
11
162.952
21
-147.232
0
LINE
8
BLACK
6
CONTINUOUS
10
162.952
20
-147.232
11
162.857
21
-147.613
0
LINE
8
BLACK
6
CONTINUOUS
10
162.857
20
-147.613
11
162.761
21
-147.804
0
LINE
8
BLACK
6
CONTINUOUS
10
162.761
20
-147.804
11
162.666
21
-147.899
0
LINE
8
BLACK
6
CONTINUOUS
10
162.666
20
-147.899
11
162.476
21
-147.994
0
LINE
8
BLACK
6
CONTINUOUS
10
162.476
20
-147.994
11
162.285
21
-147.994
0
LINE
8
BLACK
6
CONTINUOUS
10
162.285
20
-147.994
11
162.095
21
-147.899
0
LINE
8
BLACK
6
CONTINUOUS
10
162.095
20
-147.899
11
162
21
-147.804
0
LINE
8
BLACK
6
CONTINUOUS
10
162
20
-147.804
11
161.904
21
-147.613
0
LINE
8
BLACK
6
CONTINUOUS
10
161.904
20
-147.613
11
161.809
21
-147.232
0
LINE
8
BLACK
6
CONTINUOUS
10
161.809
20
-147.232
11
161.809
21
-146.756
0
LINE
8
BLACK
6
CONTINUOUS
10
161.809
20
-146.756
11
161.904
21
-146.375
0
LINE
8
BLACK
6
CONTINUOUS
10
161.904
20
-146.375
11
162
21
-146.185
0
LINE
8
BLACK
6
CONTINUOUS
10
162
20
-146.185
11
162.095
21
-146.09
0
LINE
8
BLACK
6
CONTINUOUS
10
162.095
20
-146.09
11
162.285
21
-145.994
0
LINE
8
BLACK
6
CONTINUOUS
10
163.809
20
-147.804
11
163.904
21
-147.899
0
LINE
8
BLACK
6
CONTINUOUS
10
163.904
20
-147.899
11
163.809
21
-147.994
0
LINE
8
BLACK
6
CONTINUOUS
10
163.809
20
-147.994
11
163.714
21
-147.899
0
LINE
8
BLACK
6
CONTINUOUS
10
163.714
20
-147.899
11
163.809
21
-147.804
0
LINE
8
BLACK
6
CONTINUOUS
10
163.809
20
-147.804
11
163.809
21
-147.994
0
LINE
8
BLACK
6
CONTINUOUS
10
165.142
20
-145.994
11
165.333
21
-145.994
0
LINE
8
BLACK
6
CONTINUOUS
10
165.333
20
-145.994
11
165.523
21
-146.09
0
LINE
8
BLACK
6
CONTINUOUS
10
165.523
20
-146.09
11
165.619
21
-146.185
0
LINE
8
BLACK
6
CONTINUOUS
10
165.619
20
-146.185
11
165.714
21
-146.375
0
LINE
8
BLACK
6
CONTINUOUS
10
165.714
20
-146.375
11
165.809
21
-146.756
0
LINE
8
BLACK
6
CONTINUOUS
10
165.809
20
-146.756
11
165.809
21
-147.232
0
LINE
8
BLACK
6
CONTINUOUS
10
165.809
20
-147.232
11
165.714
21
-147.613
0
LINE
8
BLACK
6
CONTINUOUS
10
165.714
20
-147.613
11
165.619
21
-147.804
0
LINE
8
BLACK
6
CONTINUOUS
10
165.619
20
-147.804
11
165.523
21
-147.899
0
LINE
8
BLACK
6
CONTINUOUS
10
165.523
20
-147.899
11
165.333
21
-147.994
0
LINE
8
BLACK
6
CONTINUOUS
10
165.333
20
-147.994
11
165.142
21
-147.994
0
LINE
8
BLACK
6
CONTINUOUS
10
165.142
20
-147.994
11
164.952
21
-147.899
0
LINE
8
BLACK
6
CONTINUOUS
10
164.952
20
-147.899
11
164.857
21
-147.804
0
LINE
8
BLACK
6
CONTINUOUS
10
164.857
20
-147.804
11
164.761
21
-147.613
0
LINE
8
BLACK
6
CONTINUOUS
10
164.761
20
-147.613
11
164.666
21
-147.232
0
LINE
8
BLACK
6
CONTINUOUS
10
164.666
20
-147.232
11
164.666
21
-146.756
0
LINE
8
BLACK
6
CONTINUOUS
10
164.666
20
-146.756
11
164.761
21
-146.375
0
LINE
8
BLACK
6
CONTINUOUS
10
164.761
20
-146.375
11
164.857
21
-146.185
0
LINE
8
BLACK
6
CONTINUOUS
10
164.857
20
-146.185
11
164.952
21
-146.09
0
LINE
8
BLACK
6
CONTINUOUS
10
164.952
20
-146.09
11
165.142
21
-145.994
0
LINE
8
BLACK
6
CONTINUOUS
10
166.571
20
-146.185
11
166.666
21
-146.09
0
LINE
8
BLACK
6
CONTINUOUS
10
166.666
20
-146.09
11
166.857
21
-145.994
0
LINE
8
BLACK
6
CONTINUOUS
10
166.857
20
-145.994
11
167.333
21
-145.994
0
LINE
8
BLACK
6
CONTINUOUS
10
167.333
20
-145.994
11
167.523
21
-146.09
0
LINE
8
BLACK
6
CONTINUOUS
10
167.523
20
-146.09
11
167.619
21
-146.185
0
LINE
8
BLACK
6
CONTINUOUS
10
167.619
20
-146.185
11
167.714
21
-146.375
0
LINE
8
BLACK
6
CONTINUOUS
10
167.714
20
-146.375
11
167.714
21
-146.566
0
LINE
8
BLACK
6
CONTINUOUS
10
167.714
20
-146.566
11
167.619
21
-146.851
0
LINE
8
BLACK
6
CONTINUOUS
10
167.619
20
-146.851
11
166.476
21
-147.994
0
LINE
8
BLACK
6
CONTINUOUS
10
166.476
20
-147.994
11
167.714
21
-147.994
0
LINE
8
BLACK
6
CONTINUOUS
10
168.381
20
-145.994
11
169.714
21
-145.994
0
LINE
8
BLACK
6
CONTINUOUS
10
169.714
20
-145.994
11
168.857
21
-147.994
0
LINE
8
BLACK
6
CONTINUOUS
10
171.333
20
-145.994
11
170.952
21
-145.994
0
LINE
8
BLACK
6
CONTINUOUS
10
170.952
20
-145.994
11
170.761
21
-146.09
0
LINE
8
BLACK
6
CONTINUOUS
10
170.761
20
-146.09
11
170.666
21
-146.185
0
LINE
8
BLACK
6
CONTINUOUS
10
170.666
20
-146.185
11
170.476
21
-146.471
0
LINE
8
BLACK
6
CONTINUOUS
10
170.476
20
-146.471
11
170.381
21
-146.851
0
LINE
8
BLACK
6
CONTINUOUS
10
170.381
20
-146.851
11
170.381
21
-147.613
0
LINE
8
BLACK
6
CONTINUOUS
10
170.381
20
-147.613
11
170.476
21
-147.804
0
LINE
8
BLACK
6
CONTINUOUS
10
170.476
20
-147.804
11
170.571
21
-147.899
0
LINE
8
BLACK
6
CONTINUOUS
10
170.571
20
-147.899
11
170.761
21
-147.994
0
LINE
8
BLACK
6
CONTINUOUS
10
170.761
20
-147.994
11
171.142
21
-147.994
0
LINE
8
BLACK
6
CONTINUOUS
10
171.142
20
-147.994
11
171.333
21
-147.899
0
LINE
8
BLACK
6
CONTINUOUS
10
171.333
20
-147.899
11
171.428
21
-147.804
0
LINE
8
BLACK
6
CONTINUOUS
10
171.428
20
-147.804
11
171.523
21
-147.613
0
LINE
8
BLACK
6
CONTINUOUS
10
171.523
20
-147.613
11
171.523
21
-147.137
0
LINE
8
BLACK
6
CONTINUOUS
10
171.523
20
-147.137
11
171.428
21
-146.947
0
LINE
8
BLACK
6
CONTINUOUS
10
171.428
20
-146.947
11
171.333
21
-146.851
0
LINE
8
BLACK
6
CONTINUOUS
10
171.333
20
-146.851
11
171.142
21
-146.756
0
LINE
8
BLACK
6
CONTINUOUS
10
171.142
20
-146.756
11
170.761
21
-146.756
0
LINE
8
BLACK
6
CONTINUOUS
10
170.761
20
-146.756
11
170.571
21
-146.851
0
LINE
8
BLACK
6
CONTINUOUS
10
170.571
20
-146.851
11
170.476
21
-146.947
0
LINE
8
BLACK
6
CONTINUOUS
10
170.476
20
-146.947
11
170.381
21
-147.137
0
LINE
8
BLACK
6
CONTINUOUS
10
172.285
20
-145.994
11
172.285
21
-146.375
0
LINE
8
BLACK
6
CONTINUOUS
10
173.047
20
-145.994
11
173.047
21
-146.375
0
LINE
8
BLACK
6
CONTINUOUS
10
176
20
-148.756
11
175.904
21
-148.661
0
LINE
8
BLACK
6
CONTINUOUS
10
175.904
20
-148.661
11
175.714
21
-148.375
0
LINE
8
BLACK
6
CONTINUOUS
10
175.714
20
-148.375
11
175.619
21
-148.185
0
LINE
8
BLACK
6
CONTINUOUS
10
175.619
20
-148.185
11
175.523
21
-147.899
0
LINE
8
BLACK
6
CONTINUOUS
10
175.523
20
-147.899
11
175.428
21
-147.423
0
LINE
8
BLACK
6
CONTINUOUS
10
175.428
20
-147.423
11
175.428
21
-147.042
0
LINE
8
BLACK
6
CONTINUOUS
10
175.428
20
-147.042
11
175.523
21
-146.566
0
LINE
8
BLACK
6
CONTINUOUS
10
175.523
20
-146.566
11
175.619
21
-146.28
0
LINE
8
BLACK
6
CONTINUOUS
10
175.619
20
-146.28
11
175.714
21
-146.09
0
LINE
8
BLACK
6
CONTINUOUS
10
175.714
20
-146.09
11
175.904
21
-145.804
0
LINE
8
BLACK
6
CONTINUOUS
10
175.904
20
-145.804
11
176
21
-145.709
0
LINE
8
BLACK
6
CONTINUOUS
10
176.666
20
-146.185
11
176.761
21
-146.09
0
LINE
8
BLACK
6
CONTINUOUS
10
176.761
20
-146.09
11
176.952
21
-145.994
0
LINE
8
BLACK
6
CONTINUOUS
10
176.952
20
-145.994
11
177.428
21
-145.994
0
LINE
8
BLACK
6
CONTINUOUS
10
177.428
20
-145.994
11
177.619
21
-146.09
0
LINE
8
BLACK
6
CONTINUOUS
10
177.619
20
-146.09
11
177.714
21
-146.185
0
LINE
8
BLACK
6
CONTINUOUS
10
177.714
20
-146.185
11
177.809
21
-146.375
0
LINE
8
BLACK
6
CONTINUOUS
10
177.809
20
-146.375
11
177.809
21
-146.566
0
LINE
8
BLACK
6
CONTINUOUS
10
177.809
20
-146.566
11
177.714
21
-146.851
0
LINE
8
BLACK
6
CONTINUOUS
10
177.714
20
-146.851
11
176.571
21
-147.994
0
LINE
8
BLACK
6
CONTINUOUS
10
176.571
20
-147.994
11
177.809
21
-147.994
0
LINE
8
BLACK
6
CONTINUOUS
10
180.19
20
-147.994
11
180.19
21
-145.994
0
LINE
8
BLACK
6
CONTINUOUS
10
181.047
20
-147.994
11
181.047
21
-146.947
0
LINE
8
BLACK
6
CONTINUOUS
10
181.047
20
-146.947
11
180.952
21
-146.756
0
LINE
8
BLACK
6
CONTINUOUS
10
180.952
20
-146.756
11
180.761
21
-146.661
0
LINE
8
BLACK
6
CONTINUOUS
10
180.761
20
-146.661
11
180.476
21
-146.661
0
LINE
8
BLACK
6
CONTINUOUS
10
180.476
20
-146.661
11
180.285
21
-146.756
0
LINE
8
BLACK
6
CONTINUOUS
10
180.285
20
-146.756
11
180.19
21
-146.851
0
LINE
8
BLACK
6
CONTINUOUS
10
182.285
20
-147.994
11
182.095
21
-147.899
0
LINE
8
BLACK
6
CONTINUOUS
10
182.095
20
-147.899
11
182
21
-147.804
0
LINE
8
BLACK
6
CONTINUOUS
10
182
20
-147.804
11
181.904
21
-147.613
0
LINE
8
BLACK
6
CONTINUOUS
10
181.904
20
-147.613
11
181.904
21
-147.042
0
LINE
8
BLACK
6
CONTINUOUS
10
181.904
20
-147.042
11
182
21
-146.851
0
LINE
8
BLACK
6
CONTINUOUS
10
182
20
-146.851
11
182.095
21
-146.756
0
LINE
8
BLACK
6
CONTINUOUS
10
182.095
20
-146.756
11
182.285
21
-146.661
0
LINE
8
BLACK
6
CONTINUOUS
10
182.285
20
-146.661
11
182.571
21
-146.661
0
LINE
8
BLACK
6
CONTINUOUS
10
182.571
20
-146.661
11
182.761
21
-146.756
0
LINE
8
BLACK
6
CONTINUOUS
10
182.761
20
-146.756
11
182.857
21
-146.851
0
LINE
8
BLACK
6
CONTINUOUS
10
182.857
20
-146.851
11
182.952
21
-147.042
0
LINE
8
BLACK
6
CONTINUOUS
10
182.952
20
-147.042
11
182.952
21
-147.613
0
LINE
8
BLACK
6
CONTINUOUS
10
182.952
20
-147.613
11
182.857
21
-147.804
0
LINE
8
BLACK
6
CONTINUOUS
10
182.857
20
-147.804
11
182.761
21
-147.899
0
LINE
8
BLACK
6
CONTINUOUS
10
182.761
20
-147.899
11
182.571
21
-147.994
0
LINE
8
BLACK
6
CONTINUOUS
10
182.571
20
-147.994
11
182.285
21
-147.994
0
LINE
8
BLACK
6
CONTINUOUS
10
184.095
20
-147.994
11
183.904
21
-147.899
0
LINE
8
BLACK
6
CONTINUOUS
10
183.904
20
-147.899
11
183.809
21
-147.709
0
LINE
8
BLACK
6
CONTINUOUS
10
183.809
20
-147.709
11
183.809
21
-145.994
0
LINE
8
BLACK
6
CONTINUOUS
10
185.619
20
-147.899
11
185.428
21
-147.994
0
LINE
8
BLACK
6
CONTINUOUS
10
185.428
20
-147.994
11
185.047
21
-147.994
0
LINE
8
BLACK
6
CONTINUOUS
10
185.047
20
-147.994
11
184.857
21
-147.899
0
LINE
8
BLACK
6
CONTINUOUS
10
184.857
20
-147.899
11
184.761
21
-147.709
0
LINE
8
BLACK
6
CONTINUOUS
10
184.761
20
-147.709
11
184.761
21
-146.947
0
LINE
8
BLACK
6
CONTINUOUS
10
184.761
20
-146.947
11
184.857
21
-146.756
0
LINE
8
BLACK
6
CONTINUOUS
10
184.857
20
-146.756
11
185.047
21
-146.661
0
LINE
8
BLACK
6
CONTINUOUS
10
185.047
20
-146.661
11
185.428
21
-146.661
0
LINE
8
BLACK
6
CONTINUOUS
10
185.428
20
-146.661
11
185.619
21
-146.756
0
LINE
8
BLACK
6
CONTINUOUS
10
185.619
20
-146.756
11
185.714
21
-146.947
0
LINE
8
BLACK
6
CONTINUOUS
10
185.714
20
-146.947
11
185.714
21
-147.137
0
LINE
8
BLACK
6
CONTINUOUS
10
185.714
20
-147.137
11
184.761
21
-147.328
0
LINE
8
BLACK
6
CONTINUOUS
10
186.476
20
-147.899
11
186.666
21
-147.994
0
LINE
8
BLACK
6
CONTINUOUS
10
186.666
20
-147.994
11
187.047
21
-147.994
0
LINE
8
BLACK
6
CONTINUOUS
10
187.047
20
-147.994
11
187.238
21
-147.899
0
LINE
8
BLACK
6
CONTINUOUS
10
187.238
20
-147.899
11
187.333
21
-147.709
0
LINE
8
BLACK
6
CONTINUOUS
10
187.333
20
-147.709
11
187.333
21
-147.613
0
LINE
8
BLACK
6
CONTINUOUS
10
187.333
20
-147.613
11
187.238
21
-147.423
0
LINE
8
BLACK
6
CONTINUOUS
10
187.238
20
-147.423
11
187.047
21
-147.328
0
LINE
8
BLACK
6
CONTINUOUS
10
187.047
20
-147.328
11
186.761
21
-147.328
0
LINE
8
BLACK
6
CONTINUOUS
10
186.761
20
-147.328
11
186.571
21
-147.232
0
LINE
8
BLACK
6
CONTINUOUS
10
186.571
20
-147.232
11
186.476
21
-147.042
0
LINE
8
BLACK
6
CONTINUOUS
10
186.476
20
-147.042
11
186.476
21
-146.947
0
LINE
8
BLACK
6
CONTINUOUS
10
186.476
20
-146.947
11
186.571
21
-146.756
0
LINE
8
BLACK
6
CONTINUOUS
10
186.571
20
-146.756
11
186.761
21
-146.661
0
LINE
8
BLACK
6
CONTINUOUS
10
186.761
20
-146.661
11
187.047
21
-146.661
0
LINE
8
BLACK
6
CONTINUOUS
10
187.047
20
-146.661
11
187.238
21
-146.756
0
LINE
8
BLACK
6
CONTINUOUS
10
188
20
-148.756
11
188.095
21
-148.661
0
LINE
8
BLACK
6
CONTINUOUS
10
188.095
20
-148.661
11
188.285
21
-148.375
0
LINE
8
BLACK
6
CONTINUOUS
10
188.285
20
-148.375
11
188.381
21
-148.185
0
LINE
8
BLACK
6
CONTINUOUS
10
188.381
20
-148.185
11
188.476
21
-147.899
0
LINE
8
BLACK
6
CONTINUOUS
10
188.476
20
-147.899
11
188.571
21
-147.423
0
LINE
8
BLACK
6
CONTINUOUS
10
188.571
20
-147.423
11
188.571
21
-147.042
0
LINE
8
BLACK
6
CONTINUOUS
10
188.571
20
-147.042
11
188.476
21
-146.566
0
LINE
8
BLACK
6
CONTINUOUS
10
188.476
20
-146.566
11
188.381
21
-146.28
0
LINE
8
BLACK
6
CONTINUOUS
10
188.381
20
-146.28
11
188.285
21
-146.09
0
LINE
8
BLACK
6
CONTINUOUS
10
188.285
20
-146.09
11
188.095
21
-145.804
0
LINE
8
BLACK
6
CONTINUOUS
10
188.095
20
-145.804
11
188
21
-145.709
0
CIRCLE
8
BLACK
10
139.9
20
-149.73
40
0.381
0
LINE
8
BLACK
6
CONTINUOUS
10
143.238
20
-148.634
11
143.428
21
-148.634
0
LINE
8
BLACK
6
CONTINUOUS
10
143.428
20
-148.634
11
143.619
21
-148.73
0
LINE
8
BLACK
6
CONTINUOUS
10
143.619
20
-148.73
11
143.714
21
-148.825
0
LINE
8
BLACK
6
CONTINUOUS
10
143.714
20
-148.825
11
143.809
21
-149.015
0
LINE
8
BLACK
6
CONTINUOUS
10
143.809
20
-149.015
11
143.904
21
-149.396
0
LINE
8
BLACK
6
CONTINUOUS
10
143.904
20
-149.396
11
143.904
21
-149.872
0
LINE
8
BLACK
6
CONTINUOUS
10
143.904
20
-149.872
11
143.809
21
-150.253
0
LINE
8
BLACK
6
CONTINUOUS
10
143.809
20
-150.253
11
143.714
21
-150.444
0
LINE
8
BLACK
6
CONTINUOUS
10
143.714
20
-150.444
11
143.619
21
-150.539
0
LINE
8
BLACK
6
CONTINUOUS
10
143.619
20
-150.539
11
143.428
21
-150.634
0
LINE
8
BLACK
6
CONTINUOUS
10
143.428
20
-150.634
11
143.238
21
-150.634
0
LINE
8
BLACK
6
CONTINUOUS
10
143.238
20
-150.634
11
143.047
21
-150.539
0
LINE
8
BLACK
6
CONTINUOUS
10
143.047
20
-150.539
11
142.952
21
-150.444
0
LINE
8
BLACK
6
CONTINUOUS
10
142.952
20
-150.444
11
142.857
21
-150.253
0
LINE
8
BLACK
6
CONTINUOUS
10
142.857
20
-150.253
11
142.761
21
-149.872
0
LINE
8
BLACK
6
CONTINUOUS
10
142.761
20
-149.872
11
142.761
21
-149.396
0
LINE
8
BLACK
6
CONTINUOUS
10
142.761
20
-149.396
11
142.857
21
-149.015
0
LINE
8
BLACK
6
CONTINUOUS
10
142.857
20
-149.015
11
142.952
21
-148.825
0
LINE
8
BLACK
6
CONTINUOUS
10
142.952
20
-148.825
11
143.047
21
-148.73
0
LINE
8
BLACK
6
CONTINUOUS
10
143.047
20
-148.73
11
143.238
21
-148.634
0
LINE
8
BLACK
6
CONTINUOUS
10
144.761
20
-150.444
11
144.857
21
-150.539
0
LINE
8
BLACK
6
CONTINUOUS
10
144.857
20
-150.539
11
144.761
21
-150.634
0
LINE
8
BLACK
6
CONTINUOUS
10
144.761
20
-150.634
11
144.666
21
-150.539
0
LINE
8
BLACK
6
CONTINUOUS
10
144.666
20
-150.539
11
144.761
21
-150.444
0
LINE
8
BLACK
6
CONTINUOUS
10
144.761
20
-150.444
11
144.761
21
-150.634
0
LINE
8
BLACK
6
CONTINUOUS
10
145.523
20
-148.634
11
146.857
21
-148.634
0
LINE
8
BLACK
6
CONTINUOUS
10
146.857
20
-148.634
11
146
21
-150.634
0
LINE
8
BLACK
6
CONTINUOUS
10
148.476
20
-148.634
11
148.095
21
-148.634
0
LINE
8
BLACK
6
CONTINUOUS
10
148.095
20
-148.634
11
147.904
21
-148.73
0
LINE
8
BLACK
6
CONTINUOUS
10
147.904
20
-148.73
11
147.809
21
-148.825
0
LINE
8
BLACK
6
CONTINUOUS
10
147.809
20
-148.825
11
147.619
21
-149.111
0
LINE
8
BLACK
6
CONTINUOUS
10
147.619
20
-149.111
11
147.523
21
-149.491
0
LINE
8
BLACK
6
CONTINUOUS
10
147.523
20
-149.491
11
147.523
21
-150.253
0
LINE
8
BLACK
6
CONTINUOUS
10
147.523
20
-150.253
11
147.619
21
-150.444
0
LINE
8
BLACK
6
CONTINUOUS
10
147.619
20
-150.444
11
147.714
21
-150.539
0
LINE
8
BLACK
6
CONTINUOUS
10
147.714
20
-150.539
11
147.904
21
-150.634
0
LINE
8
BLACK
6
CONTINUOUS
10
147.904
20
-150.634
11
148.285
21
-150.634
0
LINE
8
BLACK
6
CONTINUOUS
10
148.285
20
-150.634
11
148.476
21
-150.539
0
LINE
8
BLACK
6
CONTINUOUS
10
148.476
20
-150.539
11
148.571
21
-150.444
0
LINE
8
BLACK
6
CONTINUOUS
10
148.571
20
-150.444
11
148.666
21
-150.253
0
LINE
8
BLACK
6
CONTINUOUS
10
148.666
20
-150.253
11
148.666
21
-149.777
0
LINE
8
BLACK
6
CONTINUOUS
10
148.666
20
-149.777
11
148.571
21
-149.587
0
LINE
8
BLACK
6
CONTINUOUS
10
148.571
20
-149.587
11
148.476
21
-149.491
0
LINE
8
BLACK
6
CONTINUOUS
10
148.476
20
-149.491
11
148.285
21
-149.396
0
LINE
8
BLACK
6
CONTINUOUS
10
148.285
20
-149.396
11
147.904
21
-149.396
0
LINE
8
BLACK
6
CONTINUOUS
10
147.904
20
-149.396
11
147.714
21
-149.491
0
LINE
8
BLACK
6
CONTINUOUS
10
147.714
20
-149.491
11
147.619
21
-149.587
0
LINE
8
BLACK
6
CONTINUOUS
10
147.619
20
-149.587
11
147.523
21
-149.777
0
LINE
8
BLACK
6
CONTINUOUS
10
149.428
20
-148.825
11
149.523
21
-148.73
0
LINE
8
BLACK
6
CONTINUOUS
10
149.523
20
-148.73
11
149.714
21
-148.634
0
LINE
8
BLACK
6
CONTINUOUS
10
149.714
20
-148.634
11
150.19
21
-148.634
0
LINE
8
BLACK
6
CONTINUOUS
10
150.19
20
-148.634
11
150.381
21
-148.73
0
LINE
8
BLACK
6
CONTINUOUS
10
150.381
20
-148.73
11
150.476
21
-148.825
0
LINE
8
BLACK
6
CONTINUOUS
10
150.476
20
-148.825
11
150.571
21
-149.015
0
LINE
8
BLACK
6
CONTINUOUS
10
150.571
20
-149.015
11
150.571
21
-149.206
0
LINE
8
BLACK
6
CONTINUOUS
10
150.571
20
-149.206
11
150.476
21
-149.491
0
LINE
8
BLACK
6
CONTINUOUS
10
150.476
20
-149.491
11
149.333
21
-150.634
0
LINE
8
BLACK
6
CONTINUOUS
10
149.333
20
-150.634
11
150.571
21
-150.634
0
LINE
8
BLACK
6
CONTINUOUS
10
151.428
20
-150.634
11
151.428
21
-149.301
0
LINE
8
BLACK
6
CONTINUOUS
10
151.428
20
-149.491
11
151.523
21
-149.396
0
LINE
8
BLACK
6
CONTINUOUS
10
151.523
20
-149.396
11
151.714
21
-149.301
0
LINE
8
BLACK
6
CONTINUOUS
10
151.714
20
-149.301
11
152
21
-149.301
0
LINE
8
BLACK
6
CONTINUOUS
10
152
20
-149.301
11
152.19
21
-149.396
0
LINE
8
BLACK
6
CONTINUOUS
10
152.19
20
-149.396
11
152.285
21
-149.587
0
LINE
8
BLACK
6
CONTINUOUS
10
152.285
20
-149.587
11
152.285
21
-150.634
0
LINE
8
BLACK
6
CONTINUOUS
10
152.285
20
-149.587
11
152.381
21
-149.396
0
LINE
8
BLACK
6
CONTINUOUS
10
152.381
20
-149.396
11
152.571
21
-149.301
0
LINE
8
BLACK
6
CONTINUOUS
10
152.571
20
-149.301
11
152.857
21
-149.301
0
LINE
8
BLACK
6
CONTINUOUS
10
152.857
20
-149.301
11
153.047
21
-149.396
0
LINE
8
BLACK
6
CONTINUOUS
10
153.047
20
-149.396
11
153.142
21
-149.587
0
LINE
8
BLACK
6
CONTINUOUS
10
153.142
20
-149.587
11
153.142
21
-150.634
0
LINE
8
BLACK
6
CONTINUOUS
10
154.095
20
-150.634
11
154.095
21
-149.301
0
LINE
8
BLACK
6
CONTINUOUS
10
154.095
20
-149.491
11
154.19
21
-149.396
0
LINE
8
BLACK
6
CONTINUOUS
10
154.19
20
-149.396
11
154.381
21
-149.301
0
LINE
8
BLACK
6
CONTINUOUS
10
154.381
20
-149.301
11
154.666
21
-149.301
0
LINE
8
BLACK
6
CONTINUOUS
10
154.666
20
-149.301
11
154.857
21
-149.396
0
LINE
8
BLACK
6
CONTINUOUS
10
154.857
20
-149.396
11
154.952
21
-149.587
0
LINE
8
BLACK
6
CONTINUOUS
10
154.952
20
-149.587
11
154.952
21
-150.634
0
LINE
8
BLACK
6
CONTINUOUS
10
154.952
20
-149.587
11
155.047
21
-149.396
0
LINE
8
BLACK
6
CONTINUOUS
10
155.047
20
-149.396
11
155.238
21
-149.301
0
LINE
8
BLACK
6
CONTINUOUS
10
155.238
20
-149.301
11
155.523
21
-149.301
0
LINE
8
BLACK
6
CONTINUOUS
10
155.523
20
-149.301
11
155.714
21
-149.396
0
LINE
8
BLACK
6
CONTINUOUS
10
155.714
20
-149.396
11
155.809
21
-149.587
0
LINE
8
BLACK
6
CONTINUOUS
10
155.809
20
-149.587
11
155.809
21
-150.634
0
LINE
8
BLACK
6
CONTINUOUS
10
159.714
20
-148.539
11
158
21
-151.111
0
LINE
8
BLACK
6
CONTINUOUS
10
162.285
20
-148.634
11
162.476
21
-148.634
0
LINE
8
BLACK
6
CONTINUOUS
10
162.476
20
-148.634
11
162.666
21
-148.73
0
LINE
8
BLACK
6
CONTINUOUS
10
162.666
20
-148.73
11
162.761
21
-148.825
0
LINE
8
BLACK
6
CONTINUOUS
10
162.761
20
-148.825
11
162.857
21
-149.015
0
LINE
8
BLACK
6
CONTINUOUS
10
162.857
20
-149.015
11
162.952
21
-149.396
0
LINE
8
BLACK
6
CONTINUOUS
10
162.952
20
-149.396
11
162.952
21
-149.872
0
LINE
8
BLACK
6
CONTINUOUS
10
162.952
20
-149.872
11
162.857
21
-150.253
0
LINE
8
BLACK
6
CONTINUOUS
10
162.857
20
-150.253
11
162.761
21
-150.444
0
LINE
8
BLACK
6
CONTINUOUS
10
162.761
20
-150.444
11
162.666
21
-150.539
0
LINE
8
BLACK
6
CONTINUOUS
10
162.666
20
-150.539
11
162.476
21
-150.634
0
LINE
8
BLACK
6
CONTINUOUS
10
162.476
20
-150.634
11
162.285
21
-150.634
0
LINE
8
BLACK
6
CONTINUOUS
10
162.285
20
-150.634
11
162.095
21
-150.539
0
LINE
8
BLACK
6
CONTINUOUS
10
162.095
20
-150.539
11
162
21
-150.444
0
LINE
8
BLACK
6
CONTINUOUS
10
162
20
-150.444
11
161.904
21
-150.253
0
LINE
8
BLACK
6
CONTINUOUS
10
161.904
20
-150.253
11
161.809
21
-149.872
0
LINE
8
BLACK
6
CONTINUOUS
10
161.809
20
-149.872
11
161.809
21
-149.396
0
LINE
8
BLACK
6
CONTINUOUS
10
161.809
20
-149.396
11
161.904
21
-149.015
0
LINE
8
BLACK
6
CONTINUOUS
10
161.904
20
-149.015
11
162
21
-148.825
0
LINE
8
BLACK
6
CONTINUOUS
10
162
20
-148.825
11
162.095
21
-148.73
0
LINE
8
BLACK
6
CONTINUOUS
10
162.095
20
-148.73
11
162.285
21
-148.634
0
LINE
8
BLACK
6
CONTINUOUS
10
163.809
20
-150.444
11
163.904
21
-150.539
0
LINE
8
BLACK
6
CONTINUOUS
10
163.904
20
-150.539
11
163.809
21
-150.634
0
LINE
8
BLACK
6
CONTINUOUS
10
163.809
20
-150.634
11
163.714
21
-150.539
0
LINE
8
BLACK
6
CONTINUOUS
10
163.714
20
-150.539
11
163.809
21
-150.444
0
LINE
8
BLACK
6
CONTINUOUS
10
163.809
20
-150.444
11
163.809
21
-150.634
0
LINE
8
BLACK
6
CONTINUOUS
10
165.142
20
-148.634
11
165.333
21
-148.634
0
LINE
8
BLACK
6
CONTINUOUS
10
165.333
20
-148.634
11
165.523
21
-148.73
0
LINE
8
BLACK
6
CONTINUOUS
10
165.523
20
-148.73
11
165.619
21
-148.825
0
LINE
8
BLACK
6
CONTINUOUS
10
165.619
20
-148.825
11
165.714
21
-149.015
0
LINE
8
BLACK
6
CONTINUOUS
10
165.714
20
-149.015
11
165.809
21
-149.396
0
LINE
8
BLACK
6
CONTINUOUS
10
165.809
20
-149.396
11
165.809
21
-149.872
0
LINE
8
BLACK
6
CONTINUOUS
10
165.809
20
-149.872
11
165.714
21
-150.253
0
LINE
8
BLACK
6
CONTINUOUS
10
165.714
20
-150.253
11
165.619
21
-150.444
0
LINE
8
BLACK
6
CONTINUOUS
10
165.619
20
-150.444
11
165.523
21
-150.539
0
LINE
8
BLACK
6
CONTINUOUS
10
165.523
20
-150.539
11
165.333
21
-150.634
0
LINE
8
BLACK
6
CONTINUOUS
10
165.333
20
-150.634
11
165.142
21
-150.634
0
LINE
8
BLACK
6
CONTINUOUS
10
165.142
20
-150.634
11
164.952
21
-150.539
0
LINE
8
BLACK
6
CONTINUOUS
10
164.952
20
-150.539
11
164.857
21
-150.444
0
LINE
8
BLACK
6
CONTINUOUS
10
164.857
20
-150.444
11
164.761
21
-150.253
0
LINE
8
BLACK
6
CONTINUOUS
10
164.761
20
-150.253
11
164.666
21
-149.872
0
LINE
8
BLACK
6
CONTINUOUS
10
164.666
20
-149.872
11
164.666
21
-149.396
0
LINE
8
BLACK
6
CONTINUOUS
10
164.666
20
-149.396
11
164.761
21
-149.015
0
LINE
8
BLACK
6
CONTINUOUS
10
164.761
20
-149.015
11
164.857
21
-148.825
0
LINE
8
BLACK
6
CONTINUOUS
10
164.857
20
-148.825
11
164.952
21
-148.73
0
LINE
8
BLACK
6
CONTINUOUS
10
164.952
20
-148.73
11
165.142
21
-148.634
0
LINE
8
BLACK
6
CONTINUOUS
10
166.476
20
-148.634
11
167.714
21
-148.634
0
LINE
8
BLACK
6
CONTINUOUS
10
167.714
20
-148.634
11
167.047
21
-149.396
0
LINE
8
BLACK
6
CONTINUOUS
10
167.047
20
-149.396
11
167.333
21
-149.396
0
LINE
8
BLACK
6
CONTINUOUS
10
167.333
20
-149.396
11
167.523
21
-149.491
0
LINE
8
BLACK
6
CONTINUOUS
10
167.523
20
-149.491
11
167.619
21
-149.587
0
LINE
8
BLACK
6
CONTINUOUS
10
167.619
20
-149.587
11
167.714
21
-149.777
0
LINE
8
BLACK
6
CONTINUOUS
10
167.714
20
-149.777
11
167.714
21
-150.253
0
LINE
8
BLACK
6
CONTINUOUS
10
167.714
20
-150.253
11
167.619
21
-150.444
0
LINE
8
BLACK
6
CONTINUOUS
10
167.619
20
-150.444
11
167.523
21
-150.539
0
LINE
8
BLACK
6
CONTINUOUS
10
167.523
20
-150.539
11
167.333
21
-150.634
0
LINE
8
BLACK
6
CONTINUOUS
10
167.333
20
-150.634
11
166.761
21
-150.634
0
LINE
8
BLACK
6
CONTINUOUS
10
166.761
20
-150.634
11
166.571
21
-150.539
0
LINE
8
BLACK
6
CONTINUOUS
10
166.571
20
-150.539
11
166.476
21
-150.444
0
LINE
8
BLACK
6
CONTINUOUS
10
168.952
20
-148.634
11
169.142
21
-148.634
0
LINE
8
BLACK
6
CONTINUOUS
10
169.142
20
-148.634
11
169.333
21
-148.73
0
LINE
8
BLACK
6
CONTINUOUS
10
169.333
20
-148.73
11
169.428
21
-148.825
0
LINE
8
BLACK
6
CONTINUOUS
10
169.428
20
-148.825
11
169.523
21
-149.015
0
LINE
8
BLACK
6
CONTINUOUS
10
169.523
20
-149.015
11
169.619
21
-149.396
0
LINE
8
BLACK
6
CONTINUOUS
10
169.619
20
-149.396
11
169.619
21
-149.872
0
LINE
8
BLACK
6
CONTINUOUS
10
169.619
20
-149.872
11
169.523
21
-150.253
0
LINE
8
BLACK
6
CONTINUOUS
10
169.523
20
-150.253
11
169.428
21
-150.444
0
LINE
8
BLACK
6
CONTINUOUS
10
169.428
20
-150.444
11
169.333
21
-150.539
0
LINE
8
BLACK
6
CONTINUOUS
10
169.333
20
-150.539
11
169.142
21
-150.634
0
LINE
8
BLACK
6
CONTINUOUS
10
169.142
20
-150.634
11
168.952
21
-150.634
0
LINE
8
BLACK
6
CONTINUOUS
10
168.952
20
-150.634
11
168.761
21
-150.539
0
LINE
8
BLACK
6
CONTINUOUS
10
168.761
20
-150.539
11
168.666
21
-150.444
0
LINE
8
BLACK
6
CONTINUOUS
10
168.666
20
-150.444
11
168.571
21
-150.253
0
LINE
8
BLACK
6
CONTINUOUS
10
168.571
20
-150.253
11
168.476
21
-149.872
0
LINE
8
BLACK
6
CONTINUOUS
10
168.476
20
-149.872
11
168.476
21
-149.396
0
LINE
8
BLACK
6
CONTINUOUS
10
168.476
20
-149.396
11
168.571
21
-149.015
0
LINE
8
BLACK
6
CONTINUOUS
10
168.571
20
-149.015
11
168.666
21
-148.825
0
LINE
8
BLACK
6
CONTINUOUS
10
168.666
20
-148.825
11
168.761
21
-148.73
0
LINE
8
BLACK
6
CONTINUOUS
10
168.761
20
-148.73
11
168.952
21
-148.634
0
LINE
8
BLACK
6
CONTINUOUS
10
170.857
20
-148.634
11
171.047
21
-148.634
0
LINE
8
BLACK
6
CONTINUOUS
10
171.047
20
-148.634
11
171.238
21
-148.73
0
LINE
8
BLACK
6
CONTINUOUS
10
171.238
20
-148.73
11
171.333
21
-148.825
0
LINE
8
BLACK
6
CONTINUOUS
10
171.333
20
-148.825
11
171.428
21
-149.015
0
LINE
8
BLACK
6
CONTINUOUS
10
171.428
20
-149.015
11
171.523
21
-149.396
0
LINE
8
BLACK
6
CONTINUOUS
10
171.523
20
-149.396
11
171.523
21
-149.872
0
LINE
8
BLACK
6
CONTINUOUS
10
171.523
20
-149.872
11
171.428
21
-150.253
0
LINE
8
BLACK
6
CONTINUOUS
10
171.428
20
-150.253
11
171.333
21
-150.444
0
LINE
8
BLACK
6
CONTINUOUS
10
171.333
20
-150.444
11
171.238
21
-150.539
0
LINE
8
BLACK
6
CONTINUOUS
10
171.238
20
-150.539
11
171.047
21
-150.634
0
LINE
8
BLACK
6
CONTINUOUS
10
171.047
20
-150.634
11
170.857
21
-150.634
0
LINE
8
BLACK
6
CONTINUOUS
10
170.857
20
-150.634
11
170.666
21
-150.539
0
LINE
8
BLACK
6
CONTINUOUS
10
170.666
20
-150.539
11
170.571
21
-150.444
0
LINE
8
BLACK
6
CONTINUOUS
10
170.571
20
-150.444
11
170.476
21
-150.253
0
LINE
8
BLACK
6
CONTINUOUS
10
170.476
20
-150.253
11
170.381
21
-149.872
0
LINE
8
BLACK
6
CONTINUOUS
10
170.381
20
-149.872
11
170.381
21
-149.396
0
LINE
8
BLACK
6
CONTINUOUS
10
170.381
20
-149.396
11
170.476
21
-149.015
0
LINE
8
BLACK
6
CONTINUOUS
10
170.476
20
-149.015
11
170.571
21
-148.825
0
LINE
8
BLACK
6
CONTINUOUS
10
170.571
20
-148.825
11
170.666
21
-148.73
0
LINE
8
BLACK
6
CONTINUOUS
10
170.666
20
-148.73
11
170.857
21
-148.634
0
LINE
8
BLACK
6
CONTINUOUS
10
172.285
20
-148.634
11
172.285
21
-149.015
0
LINE
8
BLACK
6
CONTINUOUS
10
173.047
20
-148.634
11
173.047
21
-149.015
0
LINE
8
BLACK
6
CONTINUOUS
10
176
20
-151.396
11
175.904
21
-151.301
0
LINE
8
BLACK
6
CONTINUOUS
10
175.904
20
-151.301
11
175.714
21
-151.015
0
LINE
8
BLACK
6
CONTINUOUS
10
175.714
20
-151.015
11
175.619
21
-150.825
0
LINE
8
BLACK
6
CONTINUOUS
10
175.619
20
-150.825
11
175.523
21
-150.539
0
LINE
8
BLACK
6
CONTINUOUS
10
175.523
20
-150.539
11
175.428
21
-150.063
0
LINE
8
BLACK
6
CONTINUOUS
10
175.428
20
-150.063
11
175.428
21
-149.682
0
LINE
8
BLACK
6
CONTINUOUS
10
175.428
20
-149.682
11
175.523
21
-149.206
0
LINE
8
BLACK
6
CONTINUOUS
10
175.523
20
-149.206
11
175.619
21
-148.92
0
LINE
8
BLACK
6
CONTINUOUS
10
175.619
20
-148.92
11
175.714
21
-148.73
0
LINE
8
BLACK
6
CONTINUOUS
10
175.714
20
-148.73
11
175.904
21
-148.444
0
LINE
8
BLACK
6
CONTINUOUS
10
175.904
20
-148.444
11
176
21
-148.349
0
LINE
8
BLACK
6
CONTINUOUS
10
177.619
20
-149.301
11
177.619
21
-150.634
0
LINE
8
BLACK
6
CONTINUOUS
10
177.142
20
-148.539
11
176.666
21
-149.968
0
LINE
8
BLACK
6
CONTINUOUS
10
176.666
20
-149.968
11
177.904
21
-149.968
0
LINE
8
BLACK
6
CONTINUOUS
10
180.19
20
-150.634
11
180.19
21
-148.634
0
LINE
8
BLACK
6
CONTINUOUS
10
181.047
20
-150.634
11
181.047
21
-149.587
0
LINE
8
BLACK
6
CONTINUOUS
10
181.047
20
-149.587
11
180.952
21
-149.396
0
LINE
8
BLACK
6
CONTINUOUS
10
180.952
20
-149.396
11
180.761
21
-149.301
0
LINE
8
BLACK
6
CONTINUOUS
10
180.761
20
-149.301
11
180.476
21
-149.301
0
LINE
8
BLACK
6
CONTINUOUS
10
180.476
20
-149.301
11
180.285
21
-149.396
0
LINE
8
BLACK
6
CONTINUOUS
10
180.285
20
-149.396
11
180.19
21
-149.491
0
LINE
8
BLACK
6
CONTINUOUS
10
182.285
20
-150.634
11
182.095
21
-150.539
0
LINE
8
BLACK
6
CONTINUOUS
10
182.095
20
-150.539
11
182
21
-150.444
0
LINE
8
BLACK
6
CONTINUOUS
10
182
20
-150.444
11
181.904
21
-150.253
0
LINE
8
BLACK
6
CONTINUOUS
10
181.904
20
-150.253
11
181.904
21
-149.682
0
LINE
8
BLACK
6
CONTINUOUS
10
181.904
20
-149.682
11
182
21
-149.491
0
LINE
8
BLACK
6
CONTINUOUS
10
182
20
-149.491
11
182.095
21
-149.396
0
LINE
8
BLACK
6
CONTINUOUS
10
182.095
20
-149.396
11
182.285
21
-149.301
0
LINE
8
BLACK
6
CONTINUOUS
10
182.285
20
-149.301
11
182.571
21
-149.301
0
LINE
8
BLACK
6
CONTINUOUS
10
182.571
20
-149.301
11
182.761
21
-149.396
0
LINE
8
BLACK
6
CONTINUOUS
10
182.761
20
-149.396
11
182.857
21
-149.491
0
LINE
8
BLACK
6
CONTINUOUS
10
182.857
20
-149.491
11
182.952
21
-149.682
0
LINE
8
BLACK
6
CONTINUOUS
10
182.952
20
-149.682
11
182.952
21
-150.253
0
LINE
8
BLACK
6
CONTINUOUS
10
182.952
20
-150.253
11
182.857
21
-150.444
0
LINE
8
BLACK
6
CONTINUOUS
10
182.857
20
-150.444
11
182.761
21
-150.539
0
LINE
8
BLACK
6
CONTINUOUS
10
182.761
20
-150.539
11
182.571
21
-150.634
0
LINE
8
BLACK
6
CONTINUOUS
10
182.571
20
-150.634
11
182.285
21
-150.634
0
LINE
8
BLACK
6
CONTINUOUS
10
184.095
20
-150.634
11
183.904
21
-150.539
0
LINE
8
BLACK
6
CONTINUOUS
10
183.904
20
-150.539
11
183.809
21
-150.349
0
LINE
8
BLACK
6
CONTINUOUS
10
183.809
20
-150.349
11
183.809
21
-148.634
0
LINE
8
BLACK
6
CONTINUOUS
10
185.619
20
-150.539
11
185.428
21
-150.634
0
LINE
8
BLACK
6
CONTINUOUS
10
185.428
20
-150.634
11
185.047
21
-150.634
0
LINE
8
BLACK
6
CONTINUOUS
10
185.047
20
-150.634
11
184.857
21
-150.539
0
LINE
8
BLACK
6
CONTINUOUS
10
184.857
20
-150.539
11
184.761
21
-150.349
0
LINE
8
BLACK
6
CONTINUOUS
10
184.761
20
-150.349
11
184.761
21
-149.587
0
LINE
8
BLACK
6
CONTINUOUS
10
184.761
20
-149.587
11
184.857
21
-149.396
0
LINE
8
BLACK
6
CONTINUOUS
10
184.857
20
-149.396
11
185.047
21
-149.301
0
LINE
8
BLACK
6
CONTINUOUS
10
185.047
20
-149.301
11
185.428
21
-149.301
0
LINE
8
BLACK
6
CONTINUOUS
10
185.428
20
-149.301
11
185.619
21
-149.396
0
LINE
8
BLACK
6
CONTINUOUS
10
185.619
20
-149.396
11
185.714
21
-149.587
0
LINE
8
BLACK
6
CONTINUOUS
10
185.714
20
-149.587
11
185.714
21
-149.777
0
LINE
8
BLACK
6
CONTINUOUS
10
185.714
20
-149.777
11
184.761
21
-149.968
0
LINE
8
BLACK
6
CONTINUOUS
10
186.476
20
-150.539
11
186.666
21
-150.634
0
LINE
8
BLACK
6
CONTINUOUS
10
186.666
20
-150.634
11
187.047
21
-150.634
0
LINE
8
BLACK
6
CONTINUOUS
10
187.047
20
-150.634
11
187.238
21
-150.539
0
LINE
8
BLACK
6
CONTINUOUS
10
187.238
20
-150.539
11
187.333
21
-150.349
0
LINE
8
BLACK
6
CONTINUOUS
10
187.333
20
-150.349
11
187.333
21
-150.253
0
LINE
8
BLACK
6
CONTINUOUS
10
187.333
20
-150.253
11
187.238
21
-150.063
0
LINE
8
BLACK
6
CONTINUOUS
10
187.238
20
-150.063
11
187.047
21
-149.968
0
LINE
8
BLACK
6
CONTINUOUS
10
187.047
20
-149.968
11
186.761
21
-149.968
0
LINE
8
BLACK
6
CONTINUOUS
10
186.761
20
-149.968
11
186.571
21
-149.872
0
LINE
8
BLACK
6
CONTINUOUS
10
186.571
20
-149.872
11
186.476
21
-149.682
0
LINE
8
BLACK
6
CONTINUOUS
10
186.476
20
-149.682
11
186.476
21
-149.587
0
LINE
8
BLACK
6
CONTINUOUS
10
186.476
20
-149.587
11
186.571
21
-149.396
0
LINE
8
BLACK
6
CONTINUOUS
10
186.571
20
-149.396
11
186.761
21
-149.301
0
LINE
8
BLACK
6
CONTINUOUS
10
186.761
20
-149.301
11
187.047
21
-149.301
0
LINE
8
BLACK
6
CONTINUOUS
10
187.047
20
-149.301
11
187.238
21
-149.396
0
LINE
8
BLACK
6
CONTINUOUS
10
188
20
-151.396
11
188.095
21
-151.301
0
LINE
8
BLACK
6
CONTINUOUS
10
188.095
20
-151.301
11
188.285
21
-151.015
0
LINE
8
BLACK
6
CONTINUOUS
10
188.285
20
-151.015
11
188.381
21
-150.825
0
LINE
8
BLACK
6
CONTINUOUS
10
188.381
20
-150.825
11
188.476
21
-150.539
0
LINE
8
BLACK
6
CONTINUOUS
10
188.476
20
-150.539
11
188.571
21
-150.063
0
LINE
8
BLACK
6
CONTINUOUS
10
188.571
20
-150.063
11
188.571
21
-149.682
0
LINE
8
BLACK
6
CONTINUOUS
10
188.571
20
-149.682
11
188.476
21
-149.206
0
LINE
8
BLACK
6
CONTINUOUS
10
188.476
20
-149.206
11
188.381
21
-148.92
0
LINE
8
BLACK
6
CONTINUOUS
10
188.381
20
-148.92
11
188.285
21
-148.73
0
LINE
8
BLACK
6
CONTINUOUS
10
188.285
20
-148.73
11
188.095
21
-148.444
0
LINE
8
BLACK
6
CONTINUOUS
10
188.095
20
-148.444
11
188
21
-148.349
0
LINE
8
BLACK
6
CONTINUOUS
10
139.831
20
-151.92
11
139.831
21
-152.82
0
LINE
8
BLACK
6
CONTINUOUS
10
139.381
20
-152.37
11
140.281
21
-152.37
0
LINE
8
BLACK
6
CONTINUOUS
10
143.238
20
-151.274
11
143.428
21
-151.274
0
LINE
8
BLACK
6
CONTINUOUS
10
143.428
20
-151.274
11
143.619
21
-151.37
0
LINE
8
BLACK
6
CONTINUOUS
10
143.619
20
-151.37
11
143.714
21
-151.465
0
LINE
8
BLACK
6
CONTINUOUS
10
143.714
20
-151.465
11
143.809
21
-151.655
0
LINE
8
BLACK
6
CONTINUOUS
10
143.809
20
-151.655
11
143.904
21
-152.036
0
LINE
8
BLACK
6
CONTINUOUS
10
143.904
20
-152.036
11
143.904
21
-152.512
0
LINE
8
BLACK
6
CONTINUOUS
10
143.904
20
-152.512
11
143.809
21
-152.893
0
LINE
8
BLACK
6
CONTINUOUS
10
143.809
20
-152.893
11
143.714
21
-153.084
0
LINE
8
BLACK
6
CONTINUOUS
10
143.714
20
-153.084
11
143.619
21
-153.179
0
LINE
8
BLACK
6
CONTINUOUS
10
143.619
20
-153.179
11
143.428
21
-153.274
0
LINE
8
BLACK
6
CONTINUOUS
10
143.428
20
-153.274
11
143.238
21
-153.274
0
LINE
8
BLACK
6
CONTINUOUS
10
143.238
20
-153.274
11
143.047
21
-153.179
0
LINE
8
BLACK
6
CONTINUOUS
10
143.047
20
-153.179
11
142.952
21
-153.084
0
LINE
8
BLACK
6
CONTINUOUS
10
142.952
20
-153.084
11
142.857
21
-152.893
0
LINE
8
BLACK
6
CONTINUOUS
10
142.857
20
-152.893
11
142.761
21
-152.512
0
LINE
8
BLACK
6
CONTINUOUS
10
142.761
20
-152.512
11
142.761
21
-152.036
0
LINE
8
BLACK
6
CONTINUOUS
10
142.761
20
-152.036
11
142.857
21
-151.655
0
LINE
8
BLACK
6
CONTINUOUS
10
142.857
20
-151.655
11
142.952
21
-151.465
0
LINE
8
BLACK
6
CONTINUOUS
10
142.952
20
-151.465
11
143.047
21
-151.37
0
LINE
8
BLACK
6
CONTINUOUS
10
143.047
20
-151.37
11
143.238
21
-151.274
0
LINE
8
BLACK
6
CONTINUOUS
10
144.761
20
-153.084
11
144.857
21
-153.179
0
LINE
8
BLACK
6
CONTINUOUS
10
144.857
20
-153.179
11
144.761
21
-153.274
0
LINE
8
BLACK
6
CONTINUOUS
10
144.761
20
-153.274
11
144.666
21
-153.179
0
LINE
8
BLACK
6
CONTINUOUS
10
144.666
20
-153.179
11
144.761
21
-153.084
0
LINE
8
BLACK
6
CONTINUOUS
10
144.761
20
-153.084
11
144.761
21
-153.274
0
LINE
8
BLACK
6
CONTINUOUS
10
145.809
20
-153.274
11
146.19
21
-153.274
0
LINE
8
BLACK
6
CONTINUOUS
10
146.19
20
-153.274
11
146.381
21
-153.179
0
LINE
8
BLACK
6
CONTINUOUS
10
146.381
20
-153.179
11
146.476
21
-153.084
0
LINE
8
BLACK
6
CONTINUOUS
10
146.476
20
-153.084
11
146.666
21
-152.798
0
LINE
8
BLACK
6
CONTINUOUS
10
146.666
20
-152.798
11
146.761
21
-152.417
0
LINE
8
BLACK
6
CONTINUOUS
10
146.761
20
-152.417
11
146.761
21
-151.655
0
LINE
8
BLACK
6
CONTINUOUS
10
146.761
20
-151.655
11
146.666
21
-151.465
0
LINE
8
BLACK
6
CONTINUOUS
10
146.666
20
-151.465
11
146.571
21
-151.37
0
LINE
8
BLACK
6
CONTINUOUS
10
146.571
20
-151.37
11
146.381
21
-151.274
0
LINE
8
BLACK
6
CONTINUOUS
10
146.381
20
-151.274
11
146
21
-151.274
0
LINE
8
BLACK
6
CONTINUOUS
10
146
20
-151.274
11
145.809
21
-151.37
0
LINE
8
BLACK
6
CONTINUOUS
10
145.809
20
-151.37
11
145.714
21
-151.465
0
LINE
8
BLACK
6
CONTINUOUS
10
145.714
20
-151.465
11
145.619
21
-151.655
0
LINE
8
BLACK
6
CONTINUOUS
10
145.619
20
-151.655
11
145.619
21
-152.131
0
LINE
8
BLACK
6
CONTINUOUS
10
145.619
20
-152.131
11
145.714
21
-152.322
0
LINE
8
BLACK
6
CONTINUOUS
10
145.714
20
-152.322
11
145.809
21
-152.417
0
LINE
8
BLACK
6
CONTINUOUS
10
145.809
20
-152.417
11
146
21
-152.512
0
LINE
8
BLACK
6
CONTINUOUS
10
146
20
-152.512
11
146.381
21
-152.512
0
LINE
8
BLACK
6
CONTINUOUS
10
146.381
20
-152.512
11
146.571
21
-152.417
0
LINE
8
BLACK
6
CONTINUOUS
10
146.571
20
-152.417
11
146.666
21
-152.322
0
LINE
8
BLACK
6
CONTINUOUS
10
146.666
20
-152.322
11
146.761
21
-152.131
0
LINE
8
BLACK
6
CONTINUOUS
10
148
20
-151.274
11
148.19
21
-151.274
0
LINE
8
BLACK
6
CONTINUOUS
10
148.19
20
-151.274
11
148.381
21
-151.37
0
LINE
8
BLACK
6
CONTINUOUS
10
148.381
20
-151.37
11
148.476
21
-151.465
0
LINE
8
BLACK
6
CONTINUOUS
10
148.476
20
-151.465
11
148.571
21
-151.655
0
LINE
8
BLACK
6
CONTINUOUS
10
148.571
20
-151.655
11
148.666
21
-152.036
0
LINE
8
BLACK
6
CONTINUOUS
10
148.666
20
-152.036
11
148.666
21
-152.512
0
LINE
8
BLACK
6
CONTINUOUS
10
148.666
20
-152.512
11
148.571
21
-152.893
0
LINE
8
BLACK
6
CONTINUOUS
10
148.571
20
-152.893
11
148.476
21
-153.084
0
LINE
8
BLACK
6
CONTINUOUS
10
148.476
20
-153.084
11
148.381
21
-153.179
0
LINE
8
BLACK
6
CONTINUOUS
10
148.381
20
-153.179
11
148.19
21
-153.274
0
LINE
8
BLACK
6
CONTINUOUS
10
148.19
20
-153.274
11
148
21
-153.274
0
LINE
8
BLACK
6
CONTINUOUS
10
148
20
-153.274
11
147.809
21
-153.179
0
LINE
8
BLACK
6
CONTINUOUS
10
147.809
20
-153.179
11
147.714
21
-153.084
0
LINE
8
BLACK
6
CONTINUOUS
10
147.714
20
-153.084
11
147.619
21
-152.893
0
LINE
8
BLACK
6
CONTINUOUS
10
147.619
20
-152.893
11
147.523
21
-152.512
0
LINE
8
BLACK
6
CONTINUOUS
10
147.523
20
-152.512
11
147.523
21
-152.036
0
LINE
8
BLACK
6
CONTINUOUS
10
147.523
20
-152.036
11
147.619
21
-151.655
0
LINE
8
BLACK
6
CONTINUOUS
10
147.619
20
-151.655
11
147.714
21
-151.465
0
LINE
8
BLACK
6
CONTINUOUS
10
147.714
20
-151.465
11
147.809
21
-151.37
0
LINE
8
BLACK
6
CONTINUOUS
10
147.809
20
-151.37
11
148
21
-151.274
0
LINE
8
BLACK
6
CONTINUOUS
10
149.904
20
-151.274
11
150.095
21
-151.274
0
LINE
8
BLACK
6
CONTINUOUS
10
150.095
20
-151.274
11
150.285
21
-151.37
0
LINE
8
BLACK
6
CONTINUOUS
10
150.285
20
-151.37
11
150.381
21
-151.465
0
LINE
8
BLACK
6
CONTINUOUS
10
150.381
20
-151.465
11
150.476
21
-151.655
0
LINE
8
BLACK
6
CONTINUOUS
10
150.476
20
-151.655
11
150.571
21
-152.036
0
LINE
8
BLACK
6
CONTINUOUS
10
150.571
20
-152.036
11
150.571
21
-152.512
0
LINE
8
BLACK
6
CONTINUOUS
10
150.571
20
-152.512
11
150.476
21
-152.893
0
LINE
8
BLACK
6
CONTINUOUS
10
150.476
20
-152.893
11
150.381
21
-153.084
0
LINE
8
BLACK
6
CONTINUOUS
10
150.381
20
-153.084
11
150.285
21
-153.179
0
LINE
8
BLACK
6
CONTINUOUS
10
150.285
20
-153.179
11
150.095
21
-153.274
0
LINE
8
BLACK
6
CONTINUOUS
10
150.095
20
-153.274
11
149.904
21
-153.274
0
LINE
8
BLACK
6
CONTINUOUS
10
149.904
20
-153.274
11
149.714
21
-153.179
0
LINE
8
BLACK
6
CONTINUOUS
10
149.714
20
-153.179
11
149.619
21
-153.084
0
LINE
8
BLACK
6
CONTINUOUS
10
149.619
20
-153.084
11
149.523
21
-152.893
0
LINE
8
BLACK
6
CONTINUOUS
10
149.523
20
-152.893
11
149.428
21
-152.512
0
LINE
8
BLACK
6
CONTINUOUS
10
149.428
20
-152.512
11
149.428
21
-152.036
0
LINE
8
BLACK
6
CONTINUOUS
10
149.428
20
-152.036
11
149.523
21
-151.655
0
LINE
8
BLACK
6
CONTINUOUS
10
149.523
20
-151.655
11
149.619
21
-151.465
0
LINE
8
BLACK
6
CONTINUOUS
10
149.619
20
-151.465
11
149.714
21
-151.37
0
LINE
8
BLACK
6
CONTINUOUS
10
149.714
20
-151.37
11
149.904
21
-151.274
0
LINE
8
BLACK
6
CONTINUOUS
10
151.428
20
-153.274
11
151.428
21
-151.941
0
LINE
8
BLACK
6
CONTINUOUS
10
151.428
20
-152.131
11
151.523
21
-152.036
0
LINE
8
BLACK
6
CONTINUOUS
10
151.523
20
-152.036
11
151.714
21
-151.941
0
LINE
8
BLACK
6
CONTINUOUS
10
151.714
20
-151.941
11
152
21
-151.941
0
LINE
8
BLACK
6
CONTINUOUS
10
152
20
-151.941
11
152.19
21
-152.036
0
LINE
8
BLACK
6
CONTINUOUS
10
152.19
20
-152.036
11
152.285
21
-152.227
0
LINE
8
BLACK
6
CONTINUOUS
10
152.285
20
-152.227
11
152.285
21
-153.274
0
LINE
8
BLACK
6
CONTINUOUS
10
152.285
20
-152.227
11
152.381
21
-152.036
0
LINE
8
BLACK
6
CONTINUOUS
10
152.381
20
-152.036
11
152.571
21
-151.941
0
LINE
8
BLACK
6
CONTINUOUS
10
152.571
20
-151.941
11
152.857
21
-151.941
0
LINE
8
BLACK
6
CONTINUOUS
10
152.857
20
-151.941
11
153.047
21
-152.036
0
LINE
8
BLACK
6
CONTINUOUS
10
153.047
20
-152.036
11
153.142
21
-152.227
0
LINE
8
BLACK
6
CONTINUOUS
10
153.142
20
-152.227
11
153.142
21
-153.274
0
LINE
8
BLACK
6
CONTINUOUS
10
154.095
20
-153.274
11
154.095
21
-151.941
0
LINE
8
BLACK
6
CONTINUOUS
10
154.095
20
-152.131
11
154.19
21
-152.036
0
LINE
8
BLACK
6
CONTINUOUS
10
154.19
20
-152.036
11
154.381
21
-151.941
0
LINE
8
BLACK
6
CONTINUOUS
10
154.381
20
-151.941
11
154.666
21
-151.941
0
LINE
8
BLACK
6
CONTINUOUS
10
154.666
20
-151.941
11
154.857
21
-152.036
0
LINE
8
BLACK
6
CONTINUOUS
10
154.857
20
-152.036
11
154.952
21
-152.227
0
LINE
8
BLACK
6
CONTINUOUS
10
154.952
20
-152.227
11
154.952
21
-153.274
0
LINE
8
BLACK
6
CONTINUOUS
10
154.952
20
-152.227
11
155.047
21
-152.036
0
LINE
8
BLACK
6
CONTINUOUS
10
155.047
20
-152.036
11
155.238
21
-151.941
0
LINE
8
BLACK
6
CONTINUOUS
10
155.238
20
-151.941
11
155.523
21
-151.941
0
LINE
8
BLACK
6
CONTINUOUS
10
155.523
20
-151.941
11
155.714
21
-152.036
0
LINE
8
BLACK
6
CONTINUOUS
10
155.714
20
-152.036
11
155.809
21
-152.227
0
LINE
8
BLACK
6
CONTINUOUS
10
155.809
20
-152.227
11
155.809
21
-153.274
0
LINE
8
BLACK
6
CONTINUOUS
10
159.714
20
-151.179
11
158
21
-153.751
0
LINE
8
BLACK
6
CONTINUOUS
10
162.285
20
-151.274
11
162.476
21
-151.274
0
LINE
8
BLACK
6
CONTINUOUS
10
162.476
20
-151.274
11
162.666
21
-151.37
0
LINE
8
BLACK
6
CONTINUOUS
10
162.666
20
-151.37
11
162.761
21
-151.465
0
LINE
8
BLACK
6
CONTINUOUS
10
162.761
20
-151.465
11
162.857
21
-151.655
0
LINE
8
BLACK
6
CONTINUOUS
10
162.857
20
-151.655
11
162.952
21
-152.036
0
LINE
8
BLACK
6
CONTINUOUS
10
162.952
20
-152.036
11
162.952
21
-152.512
0
LINE
8
BLACK
6
CONTINUOUS
10
162.952
20
-152.512
11
162.857
21
-152.893
0
LINE
8
BLACK
6
CONTINUOUS
10
162.857
20
-152.893
11
162.761
21
-153.084
0
LINE
8
BLACK
6
CONTINUOUS
10
162.761
20
-153.084
11
162.666
21
-153.179
0
LINE
8
BLACK
6
CONTINUOUS
10
162.666
20
-153.179
11
162.476
21
-153.274
0
LINE
8
BLACK
6
CONTINUOUS
10
162.476
20
-153.274
11
162.285
21
-153.274
0
LINE
8
BLACK
6
CONTINUOUS
10
162.285
20
-153.274
11
162.095
21
-153.179
0
LINE
8
BLACK
6
CONTINUOUS
10
162.095
20
-153.179
11
162
21
-153.084
0
LINE
8
BLACK
6
CONTINUOUS
10
162
20
-153.084
11
161.904
21
-152.893
0
LINE
8
BLACK
6
CONTINUOUS
10
161.904
20
-152.893
11
161.809
21
-152.512
0
LINE
8
BLACK
6
CONTINUOUS
10
161.809
20
-152.512
11
161.809
21
-152.036
0
LINE
8
BLACK
6
CONTINUOUS
10
161.809
20
-152.036
11
161.904
21
-151.655
0
LINE
8
BLACK
6
CONTINUOUS
10
161.904
20
-151.655
11
162
21
-151.465
0
LINE
8
BLACK
6
CONTINUOUS
10
162
20
-151.465
11
162.095
21
-151.37
0
LINE
8
BLACK
6
CONTINUOUS
10
162.095
20
-151.37
11
162.285
21
-151.274
0
LINE
8
BLACK
6
CONTINUOUS
10
163.809
20
-153.084
11
163.904
21
-153.179
0
LINE
8
BLACK
6
CONTINUOUS
10
163.904
20
-153.179
11
163.809
21
-153.274
0
LINE
8
BLACK
6
CONTINUOUS
10
163.809
20
-153.274
11
163.714
21
-153.179
0
LINE
8
BLACK
6
CONTINUOUS
10
163.714
20
-153.179
11
163.809
21
-153.084
0
LINE
8
BLACK
6
CONTINUOUS
10
163.809
20
-153.084
11
163.809
21
-153.274
0
LINE
8
BLACK
6
CONTINUOUS
10
165.142
20
-151.274
11
165.333
21
-151.274
0
LINE
8
BLACK
6
CONTINUOUS
10
165.333
20
-151.274
11
165.523
21
-151.37
0
LINE
8
BLACK
6
CONTINUOUS
10
165.523
20
-151.37
11
165.619
21
-151.465
0
LINE
8
BLACK
6
CONTINUOUS
10
165.619
20
-151.465
11
165.714
21
-151.655
0
LINE
8
BLACK
6
CONTINUOUS
10
165.714
20
-151.655
11
165.809
21
-152.036
0
LINE
8
BLACK
6
CONTINUOUS
10
165.809
20
-152.036
11
165.809
21
-152.512
0
LINE
8
BLACK
6
CONTINUOUS
10
165.809
20
-152.512
11
165.714
21
-152.893
0
LINE
8
BLACK
6
CONTINUOUS
10
165.714
20
-152.893
11
165.619
21
-153.084
0
LINE
8
BLACK
6
CONTINUOUS
10
165.619
20
-153.084
11
165.523
21
-153.179
0
LINE
8
BLACK
6
CONTINUOUS
10
165.523
20
-153.179
11
165.333
21
-153.274
0
LINE
8
BLACK
6
CONTINUOUS
10
165.333
20
-153.274
11
165.142
21
-153.274
0
LINE
8
BLACK
6
CONTINUOUS
10
165.142
20
-153.274
11
164.952
21
-153.179
0
LINE
8
BLACK
6
CONTINUOUS
10
164.952
20
-153.179
11
164.857
21
-153.084
0
LINE
8
BLACK
6
CONTINUOUS
10
164.857
20
-153.084
11
164.761
21
-152.893
0
LINE
8
BLACK
6
CONTINUOUS
10
164.761
20
-152.893
11
164.666
21
-152.512
0
LINE
8
BLACK
6
CONTINUOUS
10
164.666
20
-152.512
11
164.666
21
-152.036
0
LINE
8
BLACK
6
CONTINUOUS
10
164.666
20
-152.036
11
164.761
21
-151.655
0
LINE
8
BLACK
6
CONTINUOUS
10
164.761
20
-151.655
11
164.857
21
-151.465
0
LINE
8
BLACK
6
CONTINUOUS
10
164.857
20
-151.465
11
164.952
21
-151.37
0
LINE
8
BLACK
6
CONTINUOUS
10
164.952
20
-151.37
11
165.142
21
-151.274
0
LINE
8
BLACK
6
CONTINUOUS
10
166.476
20
-151.274
11
167.714
21
-151.274
0
LINE
8
BLACK
6
CONTINUOUS
10
167.714
20
-151.274
11
167.047
21
-152.036
0
LINE
8
BLACK
6
CONTINUOUS
10
167.047
20
-152.036
11
167.333
21
-152.036
0
LINE
8
BLACK
6
CONTINUOUS
10
167.333
20
-152.036
11
167.523
21
-152.131
0
LINE
8
BLACK
6
CONTINUOUS
10
167.523
20
-152.131
11
167.619
21
-152.227
0
LINE
8
BLACK
6
CONTINUOUS
10
167.619
20
-152.227
11
167.714
21
-152.417
0
LINE
8
BLACK
6
CONTINUOUS
10
167.714
20
-152.417
11
167.714
21
-152.893
0
LINE
8
BLACK
6
CONTINUOUS
10
167.714
20
-152.893
11
167.619
21
-153.084
0
LINE
8
BLACK
6
CONTINUOUS
10
167.619
20
-153.084
11
167.523
21
-153.179
0
LINE
8
BLACK
6
CONTINUOUS
10
167.523
20
-153.179
11
167.333
21
-153.274
0
LINE
8
BLACK
6
CONTINUOUS
10
167.333
20
-153.274
11
166.761
21
-153.274
0
LINE
8
BLACK
6
CONTINUOUS
10
166.761
20
-153.274
11
166.571
21
-153.179
0
LINE
8
BLACK
6
CONTINUOUS
10
166.571
20
-153.179
11
166.476
21
-153.084
0
LINE
8
BLACK
6
CONTINUOUS
10
169.523
20
-151.274
11
168.571
21
-151.274
0
LINE
8
BLACK
6
CONTINUOUS
10
168.571
20
-151.274
11
168.476
21
-152.227
0
LINE
8
BLACK
6
CONTINUOUS
10
168.476
20
-152.227
11
168.571
21
-152.131
0
LINE
8
BLACK
6
CONTINUOUS
10
168.571
20
-152.131
11
168.761
21
-152.036
0
LINE
8
BLACK
6
CONTINUOUS
10
168.761
20
-152.036
11
169.238
21
-152.036
0
LINE
8
BLACK
6
CONTINUOUS
10
169.238
20
-152.036
11
169.428
21
-152.131
0
LINE
8
BLACK
6
CONTINUOUS
10
169.428
20
-152.131
11
169.523
21
-152.227
0
LINE
8
BLACK
6
CONTINUOUS
10
169.523
20
-152.227
11
169.619
21
-152.417
0
LINE
8
BLACK
6
CONTINUOUS
10
169.619
20
-152.417
11
169.619
21
-152.893
0
LINE
8
BLACK
6
CONTINUOUS
10
169.619
20
-152.893
11
169.523
21
-153.084
0
LINE
8
BLACK
6
CONTINUOUS
10
169.523
20
-153.084
11
169.428
21
-153.179
0
LINE
8
BLACK
6
CONTINUOUS
10
169.428
20
-153.179
11
169.238
21
-153.274
0
LINE
8
BLACK
6
CONTINUOUS
10
169.238
20
-153.274
11
168.761
21
-153.274
0
LINE
8
BLACK
6
CONTINUOUS
10
168.761
20
-153.274
11
168.571
21
-153.179
0
LINE
8
BLACK
6
CONTINUOUS
10
168.571
20
-153.179
11
168.476
21
-153.084
0
LINE
8
BLACK
6
CONTINUOUS
10
171.333
20
-151.941
11
171.333
21
-153.274
0
LINE
8
BLACK
6
CONTINUOUS
10
170.857
20
-151.179
11
170.381
21
-152.608
0
LINE
8
BLACK
6
CONTINUOUS
10
170.381
20
-152.608
11
171.619
21
-152.608
0
LINE
8
BLACK
6
CONTINUOUS
10
172.285
20
-151.274
11
172.285
21
-151.655
0
LINE
8
BLACK
6
CONTINUOUS
10
173.047
20
-151.274
11
173.047
21
-151.655
0
LINE
8
BLACK
6
CONTINUOUS
10
176
20
-154.036
11
175.904
21
-153.941
0
LINE
8
BLACK
6
CONTINUOUS
10
175.904
20
-153.941
11
175.714
21
-153.655
0
LINE
8
BLACK
6
CONTINUOUS
10
175.714
20
-153.655
11
175.619
21
-153.465
0
LINE
8
BLACK
6
CONTINUOUS
10
175.619
20
-153.465
11
175.523
21
-153.179
0
LINE
8
BLACK
6
CONTINUOUS
10
175.523
20
-153.179
11
175.428
21
-152.703
0
LINE
8
BLACK
6
CONTINUOUS
10
175.428
20
-152.703
11
175.428
21
-152.322
0
LINE
8
BLACK
6
CONTINUOUS
10
175.428
20
-152.322
11
175.523
21
-151.846
0
LINE
8
BLACK
6
CONTINUOUS
10
175.523
20
-151.846
11
175.619
21
-151.56
0
LINE
8
BLACK
6
CONTINUOUS
10
175.619
20
-151.56
11
175.714
21
-151.37
0
LINE
8
BLACK
6
CONTINUOUS
10
175.714
20
-151.37
11
175.904
21
-151.084
0
LINE
8
BLACK
6
CONTINUOUS
10
175.904
20
-151.084
11
176
21
-150.989
0
LINE
8
BLACK
6
CONTINUOUS
10
177.619
20
-151.941
11
177.619
21
-153.274
0
LINE
8
BLACK
6
CONTINUOUS
10
177.142
20
-151.179
11
176.666
21
-152.608
0
LINE
8
BLACK
6
CONTINUOUS
10
176.666
20
-152.608
11
177.904
21
-152.608
0
LINE
8
BLACK
6
CONTINUOUS
10
180.19
20
-153.274
11
180.19
21
-151.274
0
LINE
8
BLACK
6
CONTINUOUS
10
181.047
20
-153.274
11
181.047
21
-152.227
0
LINE
8
BLACK
6
CONTINUOUS
10
181.047
20
-152.227
11
180.952
21
-152.036
0
LINE
8
BLACK
6
CONTINUOUS
10
180.952
20
-152.036
11
180.761
21
-151.941
0
LINE
8
BLACK
6
CONTINUOUS
10
180.761
20
-151.941
11
180.476
21
-151.941
0
LINE
8
BLACK
6
CONTINUOUS
10
180.476
20
-151.941
11
180.285
21
-152.036
0
LINE
8
BLACK
6
CONTINUOUS
10
180.285
20
-152.036
11
180.19
21
-152.131
0
LINE
8
BLACK
6
CONTINUOUS
10
182.285
20
-153.274
11
182.095
21
-153.179
0
LINE
8
BLACK
6
CONTINUOUS
10
182.095
20
-153.179
11
182
21
-153.084
0
LINE
8
BLACK
6
CONTINUOUS
10
182
20
-153.084
11
181.904
21
-152.893
0
LINE
8
BLACK
6
CONTINUOUS
10
181.904
20
-152.893
11
181.904
21
-152.322
0
LINE
8
BLACK
6
CONTINUOUS
10
181.904
20
-152.322
11
182
21
-152.131
0
LINE
8
BLACK
6
CONTINUOUS
10
182
20
-152.131
11
182.095
21
-152.036
0
LINE
8
BLACK
6
CONTINUOUS
10
182.095
20
-152.036
11
182.285
21
-151.941
0
LINE
8
BLACK
6
CONTINUOUS
10
182.285
20
-151.941
11
182.571
21
-151.941
0
LINE
8
BLACK
6
CONTINUOUS
10
182.571
20
-151.941
11
182.761
21
-152.036
0
LINE
8
BLACK
6
CONTINUOUS
10
182.761
20
-152.036
11
182.857
21
-152.131
0
LINE
8
BLACK
6
CONTINUOUS
10
182.857
20
-152.131
11
182.952
21
-152.322
0
LINE
8
BLACK
6
CONTINUOUS
10
182.952
20
-152.322
11
182.952
21
-152.893
0
LINE
8
BLACK
6
CONTINUOUS
10
182.952
20
-152.893
11
182.857
21
-153.084
0
LINE
8
BLACK
6
CONTINUOUS
10
182.857
20
-153.084
11
182.761
21
-153.179
0
LINE
8
BLACK
6
CONTINUOUS
10
182.761
20
-153.179
11
182.571
21
-153.274
0
LINE
8
BLACK
6
CONTINUOUS
10
182.571
20
-153.274
11
182.285
21
-153.274
0
LINE
8
BLACK
6
CONTINUOUS
10
184.095
20
-153.274
11
183.904
21
-153.179
0
LINE
8
BLACK
6
CONTINUOUS
10
183.904
20
-153.179
11
183.809
21
-152.989
0
LINE
8
BLACK
6
CONTINUOUS
10
183.809
20
-152.989
11
183.809
21
-151.274
0
LINE
8
BLACK
6
CONTINUOUS
10
185.619
20
-153.179
11
185.428
21
-153.274
0
LINE
8
BLACK
6
CONTINUOUS
10
185.428
20
-153.274
11
185.047
21
-153.274
0
LINE
8
BLACK
6
CONTINUOUS
10
185.047
20
-153.274
11
184.857
21
-153.179
0
LINE
8
BLACK
6
CONTINUOUS
10
184.857
20
-153.179
11
184.761
21
-152.989
0
LINE
8
BLACK
6
CONTINUOUS
10
184.761
20
-152.989
11
184.761
21
-152.227
0
LINE
8
BLACK
6
CONTINUOUS
10
184.761
20
-152.227
11
184.857
21
-152.036
0
LINE
8
BLACK
6
CONTINUOUS
10
184.857
20
-152.036
11
185.047
21
-151.941
0
LINE
8
BLACK
6
CONTINUOUS
10
185.047
20
-151.941
11
185.428
21
-151.941
0
LINE
8
BLACK
6
CONTINUOUS
10
185.428
20
-151.941
11
185.619
21
-152.036
0
LINE
8
BLACK
6
CONTINUOUS
10
185.619
20
-152.036
11
185.714
21
-152.227
0
LINE
8
BLACK
6
CONTINUOUS
10
185.714
20
-152.227
11
185.714
21
-152.417
0
LINE
8
BLACK
6
CONTINUOUS
10
185.714
20
-152.417
11
184.761
21
-152.608
0
LINE
8
BLACK
6
CONTINUOUS
10
186.476
20
-153.179
11
186.666
21
-153.274
0
LINE
8
BLACK
6
CONTINUOUS
10
186.666
20
-153.274
11
187.047
21
-153.274
0
LINE
8
BLACK
6
CONTINUOUS
10
187.047
20
-153.274
11
187.238
21
-153.179
0
LINE
8
BLACK
6
CONTINUOUS
10
187.238
20
-153.179
11
187.333
21
-152.989
0
LINE
8
BLACK
6
CONTINUOUS
10
187.333
20
-152.989
11
187.333
21
-152.893
0
LINE
8
BLACK
6
CONTINUOUS
10
187.333
20
-152.893
11
187.238
21
-152.703
0
LINE
8
BLACK
6
CONTINUOUS
10
187.238
20
-152.703
11
187.047
21
-152.608
0
LINE
8
BLACK
6
CONTINUOUS
10
187.047
20
-152.608
11
186.761
21
-152.608
0
LINE
8
BLACK
6
CONTINUOUS
10
186.761
20
-152.608
11
186.571
21
-152.512
0
LINE
8
BLACK
6
CONTINUOUS
10
186.571
20
-152.512
11
186.476
21
-152.322
0
LINE
8
BLACK
6
CONTINUOUS
10
186.476
20
-152.322
11
186.476
21
-152.227
0
LINE
8
BLACK
6
CONTINUOUS
10
186.476
20
-152.227
11
186.571
21
-152.036
0
LINE
8
BLACK
6
CONTINUOUS
10
186.571
20
-152.036
11
186.761
21
-151.941
0
LINE
8
BLACK
6
CONTINUOUS
10
186.761
20
-151.941
11
187.047
21
-151.941
0
LINE
8
BLACK
6
CONTINUOUS
10
187.047
20
-151.941
11
187.238
21
-152.036
0
LINE
8
BLACK
6
CONTINUOUS
10
188
20
-154.036
11
188.095
21
-153.941
0
LINE
8
BLACK
6
CONTINUOUS
10
188.095
20
-153.941
11
188.285
21
-153.655
0
LINE
8
BLACK
6
CONTINUOUS
10
188.285
20
-153.655
11
188.381
21
-153.465
0
LINE
8
BLACK
6
CONTINUOUS
10
188.381
20
-153.465
11
188.476
21
-153.179
0
LINE
8
BLACK
6
CONTINUOUS
10
188.476
20
-153.179
11
188.571
21
-152.703
0
LINE
8
BLACK
6
CONTINUOUS
10
188.571
20
-152.703
11
188.571
21
-152.322
0
LINE
8
BLACK
6
CONTINUOUS
10
188.571
20
-152.322
11
188.476
21
-151.846
0
LINE
8
BLACK
6
CONTINUOUS
10
188.476
20
-151.846
11
188.381
21
-151.56
0
LINE
8
BLACK
6
CONTINUOUS
10
188.381
20
-151.56
11
188.285
21
-151.37
0
LINE
8
BLACK
6
CONTINUOUS
10
188.285
20
-151.37
11
188.095
21
-151.084
0
LINE
8
BLACK
6
CONTINUOUS
10
188.095
20
-151.084
11
188
21
-150.989
0
LINE
8
BLACK
6
CONTINUOUS
10
140.134
20
-155.363
11
140.134
21
-154.656
0
LINE
8
BLACK
6
CONTINUOUS
10
140.134
20
-154.656
11
139.427
21
-154.656
0
LINE
8
BLACK
6
CONTINUOUS
10
139.427
20
-154.656
11
139.427
21
-155.363
0
LINE
8
BLACK
6
CONTINUOUS
10
139.427
20
-155.363
11
140.134
21
-155.363
0
LINE
8
BLACK
6
CONTINUOUS
10
143.904
20
-155.914
11
142.761
21
-155.914
0
LINE
8
BLACK
6
CONTINUOUS
10
143.333
20
-155.914
11
143.333
21
-153.914
0
LINE
8
BLACK
6
CONTINUOUS
10
143.333
20
-153.914
11
143.142
21
-154.2
0
LINE
8
BLACK
6
CONTINUOUS
10
143.142
20
-154.2
11
142.952
21
-154.391
0
LINE
8
BLACK
6
CONTINUOUS
10
142.952
20
-154.391
11
142.761
21
-154.486
0
LINE
8
BLACK
6
CONTINUOUS
10
144.761
20
-155.724
11
144.857
21
-155.819
0
LINE
8
BLACK
6
CONTINUOUS
10
144.857
20
-155.819
11
144.761
21
-155.914
0
LINE
8
BLACK
6
CONTINUOUS
10
144.761
20
-155.914
11
144.666
21
-155.819
0
LINE
8
BLACK
6
CONTINUOUS
10
144.666
20
-155.819
11
144.761
21
-155.724
0
LINE
8
BLACK
6
CONTINUOUS
10
144.761
20
-155.724
11
144.761
21
-155.914
0
LINE
8
BLACK
6
CONTINUOUS
10
146.095
20
-153.914
11
146.285
21
-153.914
0
LINE
8
BLACK
6
CONTINUOUS
10
146.285
20
-153.914
11
146.476
21
-154.01
0
LINE
8
BLACK
6
CONTINUOUS
10
146.476
20
-154.01
11
146.571
21
-154.105
0
LINE
8
BLACK
6
CONTINUOUS
10
146.571
20
-154.105
11
146.666
21
-154.295
0
LINE
8
BLACK
6
CONTINUOUS
10
146.666
20
-154.295
11
146.761
21
-154.676
0
LINE
8
BLACK
6
CONTINUOUS
10
146.761
20
-154.676
11
146.761
21
-155.152
0
LINE
8
BLACK
6
CONTINUOUS
10
146.761
20
-155.152
11
146.666
21
-155.533
0
LINE
8
BLACK
6
CONTINUOUS
10
146.666
20
-155.533
11
146.571
21
-155.724
0
LINE
8
BLACK
6
CONTINUOUS
10
146.571
20
-155.724
11
146.476
21
-155.819
0
LINE
8
BLACK
6
CONTINUOUS
10
146.476
20
-155.819
11
146.285
21
-155.914
0
LINE
8
BLACK
6
CONTINUOUS
10
146.285
20
-155.914
11
146.095
21
-155.914
0
LINE
8
BLACK
6
CONTINUOUS
10
146.095
20
-155.914
11
145.904
21
-155.819
0
LINE
8
BLACK
6
CONTINUOUS
10
145.904
20
-155.819
11
145.809
21
-155.724
0
LINE
8
BLACK
6
CONTINUOUS
10
145.809
20
-155.724
11
145.714
21
-155.533
0
LINE
8
BLACK
6
CONTINUOUS
10
145.714
20
-155.533
11
145.619
21
-155.152
0
LINE
8
BLACK
6
CONTINUOUS
10
145.619
20
-155.152
11
145.619
21
-154.676
0
LINE
8
BLACK
6
CONTINUOUS
10
145.619
20
-154.676
11
145.714
21
-154.295
0
LINE
8
BLACK
6
CONTINUOUS
10
145.714
20
-154.295
11
145.809
21
-154.105
0
LINE
8
BLACK
6
CONTINUOUS
10
145.809
20
-154.105
11
145.904
21
-154.01
0
LINE
8
BLACK
6
CONTINUOUS
10
145.904
20
-154.01
11
146.095
21
-153.914
0
LINE
8
BLACK
6
CONTINUOUS
10
148
20
-153.914
11
148.19
21
-153.914
0
LINE
8
BLACK
6
CONTINUOUS
10
148.19
20
-153.914
11
148.381
21
-154.01
0
LINE
8
BLACK
6
CONTINUOUS
10
148.381
20
-154.01
11
148.476
21
-154.105
0
LINE
8
BLACK
6
CONTINUOUS
10
148.476
20
-154.105
11
148.571
21
-154.295
0
LINE
8
BLACK
6
CONTINUOUS
10
148.571
20
-154.295
11
148.666
21
-154.676
0
LINE
8
BLACK
6
CONTINUOUS
10
148.666
20
-154.676
11
148.666
21
-155.152
0
LINE
8
BLACK
6
CONTINUOUS
10
148.666
20
-155.152
11
148.571
21
-155.533
0
LINE
8
BLACK
6
CONTINUOUS
10
148.571
20
-155.533
11
148.476
21
-155.724
0
LINE
8
BLACK
6
CONTINUOUS
10
148.476
20
-155.724
11
148.381
21
-155.819
0
LINE
8
BLACK
6
CONTINUOUS
10
148.381
20
-155.819
11
148.19
21
-155.914
0
LINE
8
BLACK
6
CONTINUOUS
10
148.19
20
-155.914
11
148
21
-155.914
0
LINE
8
BLACK
6
CONTINUOUS
10
148
20
-155.914
11
147.809
21
-155.819
0
LINE
8
BLACK
6
CONTINUOUS
10
147.809
20
-155.819
11
147.714
21
-155.724
0
LINE
8
BLACK
6
CONTINUOUS
10
147.714
20
-155.724
11
147.619
21
-155.533
0
LINE
8
BLACK
6
CONTINUOUS
10
147.619
20
-155.533
11
147.523
21
-155.152
0
LINE
8
BLACK
6
CONTINUOUS
10
147.523
20
-155.152
11
147.523
21
-154.676
0
LINE
8
BLACK
6
CONTINUOUS
10
147.523
20
-154.676
11
147.619
21
-154.295
0
LINE
8
BLACK
6
CONTINUOUS
10
147.619
20
-154.295
11
147.714
21
-154.105
0
LINE
8
BLACK
6
CONTINUOUS
10
147.714
20
-154.105
11
147.809
21
-154.01
0
LINE
8
BLACK
6
CONTINUOUS
10
147.809
20
-154.01
11
148
21
-153.914
0
LINE
8
BLACK
6
CONTINUOUS
10
149.904
20
-153.914
11
150.095
21
-153.914
0
LINE
8
BLACK
6
CONTINUOUS
10
150.095
20
-153.914
11
150.285
21
-154.01
0
LINE
8
BLACK
6
CONTINUOUS
10
150.285
20
-154.01
11
150.381
21
-154.105
0
LINE
8
BLACK
6
CONTINUOUS
10
150.381
20
-154.105
11
150.476
21
-154.295
0
LINE
8
BLACK
6
CONTINUOUS
10
150.476
20
-154.295
11
150.571
21
-154.676
0
LINE
8
BLACK
6
CONTINUOUS
10
150.571
20
-154.676
11
150.571
21
-155.152
0
LINE
8
BLACK
6
CONTINUOUS
10
150.571
20
-155.152
11
150.476
21
-155.533
0
LINE
8
BLACK
6
CONTINUOUS
10
150.476
20
-155.533
11
150.381
21
-155.724
0
LINE
8
BLACK
6
CONTINUOUS
10
150.381
20
-155.724
11
150.285
21
-155.819
0
LINE
8
BLACK
6
CONTINUOUS
10
150.285
20
-155.819
11
150.095
21
-155.914
0
LINE
8
BLACK
6
CONTINUOUS
10
150.095
20
-155.914
11
149.904
21
-155.914
0
LINE
8
BLACK
6
CONTINUOUS
10
149.904
20
-155.914
11
149.714
21
-155.819
0
LINE
8
BLACK
6
CONTINUOUS
10
149.714
20
-155.819
11
149.619
21
-155.724
0
LINE
8
BLACK
6
CONTINUOUS
10
149.619
20
-155.724
11
149.523
21
-155.533
0
LINE
8
BLACK
6
CONTINUOUS
10
149.523
20
-155.533
11
149.428
21
-155.152
0
LINE
8
BLACK
6
CONTINUOUS
10
149.428
20
-155.152
11
149.428
21
-154.676
0
LINE
8
BLACK
6
CONTINUOUS
10
149.428
20
-154.676
11
149.523
21
-154.295
0
LINE
8
BLACK
6
CONTINUOUS
10
149.523
20
-154.295
11
149.619
21
-154.105
0
LINE
8
BLACK
6
CONTINUOUS
10
149.619
20
-154.105
11
149.714
21
-154.01
0
LINE
8
BLACK
6
CONTINUOUS
10
149.714
20
-154.01
11
149.904
21
-153.914
0
LINE
8
BLACK
6
CONTINUOUS
10
151.428
20
-155.914
11
151.428
21
-154.581
0
LINE
8
BLACK
6
CONTINUOUS
10
151.428
20
-154.771
11
151.523
21
-154.676
0
LINE
8
BLACK
6
CONTINUOUS
10
151.523
20
-154.676
11
151.714
21
-154.581
0
LINE
8
BLACK
6
CONTINUOUS
10
151.714
20
-154.581
11
152
21
-154.581
0
LINE
8
BLACK
6
CONTINUOUS
10
152
20
-154.581
11
152.19
21
-154.676
0
LINE
8
BLACK
6
CONTINUOUS
10
152.19
20
-154.676
11
152.285
21
-154.867
0
LINE
8
BLACK
6
CONTINUOUS
10
152.285
20
-154.867
11
152.285
21
-155.914
0
LINE
8
BLACK
6
CONTINUOUS
10
152.285
20
-154.867
11
152.381
21
-154.676
0
LINE
8
BLACK
6
CONTINUOUS
10
152.381
20
-154.676
11
152.571
21
-154.581
0
LINE
8
BLACK
6
CONTINUOUS
10
152.571
20
-154.581
11
152.857
21
-154.581
0
LINE
8
BLACK
6
CONTINUOUS
10
152.857
20
-154.581
11
153.047
21
-154.676
0
LINE
8
BLACK
6
CONTINUOUS
10
153.047
20
-154.676
11
153.142
21
-154.867
0
LINE
8
BLACK
6
CONTINUOUS
10
153.142
20
-154.867
11
153.142
21
-155.914
0
LINE
8
BLACK
6
CONTINUOUS
10
154.095
20
-155.914
11
154.095
21
-154.581
0
LINE
8
BLACK
6
CONTINUOUS
10
154.095
20
-154.771
11
154.19
21
-154.676
0
LINE
8
BLACK
6
CONTINUOUS
10
154.19
20
-154.676
11
154.381
21
-154.581
0
LINE
8
BLACK
6
CONTINUOUS
10
154.381
20
-154.581
11
154.666
21
-154.581
0
LINE
8
BLACK
6
CONTINUOUS
10
154.666
20
-154.581
11
154.857
21
-154.676
0
LINE
8
BLACK
6
CONTINUOUS
10
154.857
20
-154.676
11
154.952
21
-154.867
0
LINE
8
BLACK
6
CONTINUOUS
10
154.952
20
-154.867
11
154.952
21
-155.914
0
LINE
8
BLACK
6
CONTINUOUS
10
154.952
20
-154.867
11
155.047
21
-154.676
0
LINE
8
BLACK
6
CONTINUOUS
10
155.047
20
-154.676
11
155.238
21
-154.581
0
LINE
8
BLACK
6
CONTINUOUS
10
155.238
20
-154.581
11
155.523
21
-154.581
0
LINE
8
BLACK
6
CONTINUOUS
10
155.523
20
-154.581
11
155.714
21
-154.676
0
LINE
8
BLACK
6
CONTINUOUS
10
155.714
20
-154.676
11
155.809
21
-154.867
0
LINE
8
BLACK
6
CONTINUOUS
10
155.809
20
-154.867
11
155.809
21
-155.914
0
LINE
8
BLACK
6
CONTINUOUS
10
159.714
20
-153.819
11
158
21
-156.391
0
LINE
8
BLACK
6
CONTINUOUS
10
162.285
20
-153.914
11
162.476
21
-153.914
0
LINE
8
BLACK
6
CONTINUOUS
10
162.476
20
-153.914
11
162.666
21
-154.01
0
LINE
8
BLACK
6
CONTINUOUS
10
162.666
20
-154.01
11
162.761
21
-154.105
0
LINE
8
BLACK
6
CONTINUOUS
10
162.761
20
-154.105
11
162.857
21
-154.295
0
LINE
8
BLACK
6
CONTINUOUS
10
162.857
20
-154.295
11
162.952
21
-154.676
0
LINE
8
BLACK
6
CONTINUOUS
10
162.952
20
-154.676
11
162.952
21
-155.152
0
LINE
8
BLACK
6
CONTINUOUS
10
162.952
20
-155.152
11
162.857
21
-155.533
0
LINE
8
BLACK
6
CONTINUOUS
10
162.857
20
-155.533
11
162.761
21
-155.724
0
LINE
8
BLACK
6
CONTINUOUS
10
162.761
20
-155.724
11
162.666
21
-155.819
0
LINE
8
BLACK
6
CONTINUOUS
10
162.666
20
-155.819
11
162.476
21
-155.914
0
LINE
8
BLACK
6
CONTINUOUS
10
162.476
20
-155.914
11
162.285
21
-155.914
0
LINE
8
BLACK
6
CONTINUOUS
10
162.285
20
-155.914
11
162.095
21
-155.819
0
LINE
8
BLACK
6
CONTINUOUS
10
162.095
20
-155.819
11
162
21
-155.724
0
LINE
8
BLACK
6
CONTINUOUS
10
162
20
-155.724
11
161.904
21
-155.533
0
LINE
8
BLACK
6
CONTINUOUS
10
161.904
20
-155.533
11
161.809
21
-155.152
0
LINE
8
BLACK
6
CONTINUOUS
10
161.809
20
-155.152
11
161.809
21
-154.676
0
LINE
8
BLACK
6
CONTINUOUS
10
161.809
20
-154.676
11
161.904
21
-154.295
0
LINE
8
BLACK
6
CONTINUOUS
10
161.904
20
-154.295
11
162
21
-154.105
0
LINE
8
BLACK
6
CONTINUOUS
10
162
20
-154.105
11
162.095
21
-154.01
0
LINE
8
BLACK
6
CONTINUOUS
10
162.095
20
-154.01
11
162.285
21
-153.914
0
LINE
8
BLACK
6
CONTINUOUS
10
163.809
20
-155.724
11
163.904
21
-155.819
0
LINE
8
BLACK
6
CONTINUOUS
10
163.904
20
-155.819
11
163.809
21
-155.914
0
LINE
8
BLACK
6
CONTINUOUS
10
163.809
20
-155.914
11
163.714
21
-155.819
0
LINE
8
BLACK
6
CONTINUOUS
10
163.714
20
-155.819
11
163.809
21
-155.724
0
LINE
8
BLACK
6
CONTINUOUS
10
163.809
20
-155.724
11
163.809
21
-155.914
0
LINE
8
BLACK
6
CONTINUOUS
10
165.142
20
-153.914
11
165.333
21
-153.914
0
LINE
8
BLACK
6
CONTINUOUS
10
165.333
20
-153.914
11
165.523
21
-154.01
0
LINE
8
BLACK
6
CONTINUOUS
10
165.523
20
-154.01
11
165.619
21
-154.105
0
LINE
8
BLACK
6
CONTINUOUS
10
165.619
20
-154.105
11
165.714
21
-154.295
0
LINE
8
BLACK
6
CONTINUOUS
10
165.714
20
-154.295
11
165.809
21
-154.676
0
LINE
8
BLACK
6
CONTINUOUS
10
165.809
20
-154.676
11
165.809
21
-155.152
0
LINE
8
BLACK
6
CONTINUOUS
10
165.809
20
-155.152
11
165.714
21
-155.533
0
LINE
8
BLACK
6
CONTINUOUS
10
165.714
20
-155.533
11
165.619
21
-155.724
0
LINE
8
BLACK
6
CONTINUOUS
10
165.619
20
-155.724
11
165.523
21
-155.819
0
LINE
8
BLACK
6
CONTINUOUS
10
165.523
20
-155.819
11
165.333
21
-155.914
0
LINE
8
BLACK
6
CONTINUOUS
10
165.333
20
-155.914
11
165.142
21
-155.914
0
LINE
8
BLACK
6
CONTINUOUS
10
165.142
20
-155.914
11
164.952
21
-155.819
0
LINE
8
BLACK
6
CONTINUOUS
10
164.952
20
-155.819
11
164.857
21
-155.724
0
LINE
8
BLACK
6
CONTINUOUS
10
164.857
20
-155.724
11
164.761
21
-155.533
0
LINE
8
BLACK
6
CONTINUOUS
10
164.761
20
-155.533
11
164.666
21
-155.152
0
LINE
8
BLACK
6
CONTINUOUS
10
164.666
20
-155.152
11
164.666
21
-154.676
0
LINE
8
BLACK
6
CONTINUOUS
10
164.666
20
-154.676
11
164.761
21
-154.295
0
LINE
8
BLACK
6
CONTINUOUS
10
164.761
20
-154.295
11
164.857
21
-154.105
0
LINE
8
BLACK
6
CONTINUOUS
10
164.857
20
-154.105
11
164.952
21
-154.01
0
LINE
8
BLACK
6
CONTINUOUS
10
164.952
20
-154.01
11
165.142
21
-153.914
0
LINE
8
BLACK
6
CONTINUOUS
10
166.476
20
-153.914
11
167.714
21
-153.914
0
LINE
8
BLACK
6
CONTINUOUS
10
167.714
20
-153.914
11
167.047
21
-154.676
0
LINE
8
BLACK
6
CONTINUOUS
10
167.047
20
-154.676
11
167.333
21
-154.676
0
LINE
8
BLACK
6
CONTINUOUS
10
167.333
20
-154.676
11
167.523
21
-154.771
0
LINE
8
BLACK
6
CONTINUOUS
10
167.523
20
-154.771
11
167.619
21
-154.867
0
LINE
8
BLACK
6
CONTINUOUS
10
167.619
20
-154.867
11
167.714
21
-155.057
0
LINE
8
BLACK
6
CONTINUOUS
10
167.714
20
-155.057
11
167.714
21
-155.533
0
LINE
8
BLACK
6
CONTINUOUS
10
167.714
20
-155.533
11
167.619
21
-155.724
0
LINE
8
BLACK
6
CONTINUOUS
10
167.619
20
-155.724
11
167.523
21
-155.819
0
LINE
8
BLACK
6
CONTINUOUS
10
167.523
20
-155.819
11
167.333
21
-155.914
0
LINE
8
BLACK
6
CONTINUOUS
10
167.333
20
-155.914
11
166.761
21
-155.914
0
LINE
8
BLACK
6
CONTINUOUS
10
166.761
20
-155.914
11
166.571
21
-155.819
0
LINE
8
BLACK
6
CONTINUOUS
10
166.571
20
-155.819
11
166.476
21
-155.724
0
LINE
8
BLACK
6
CONTINUOUS
10
168.666
20
-155.914
11
169.047
21
-155.914
0
LINE
8
BLACK
6
CONTINUOUS
10
169.047
20
-155.914
11
169.238
21
-155.819
0
LINE
8
BLACK
6
CONTINUOUS
10
169.238
20
-155.819
11
169.333
21
-155.724
0
LINE
8
BLACK
6
CONTINUOUS
10
169.333
20
-155.724
11
169.523
21
-155.438
0
LINE
8
BLACK
6
CONTINUOUS
10
169.523
20
-155.438
11
169.619
21
-155.057
0
LINE
8
BLACK
6
CONTINUOUS
10
169.619
20
-155.057
11
169.619
21
-154.295
0
LINE
8
BLACK
6
CONTINUOUS
10
169.619
20
-154.295
11
169.523
21
-154.105
0
LINE
8
BLACK
6
CONTINUOUS
10
169.523
20
-154.105
11
169.428
21
-154.01
0
LINE
8
BLACK
6
CONTINUOUS
10
169.428
20
-154.01
11
169.238
21
-153.914
0
LINE
8
BLACK
6
CONTINUOUS
10
169.238
20
-153.914
11
168.857
21
-153.914
0
LINE
8
BLACK
6
CONTINUOUS
10
168.857
20
-153.914
11
168.666
21
-154.01
0
LINE
8
BLACK
6
CONTINUOUS
10
168.666
20
-154.01
11
168.571
21
-154.105
0
LINE
8
BLACK
6
CONTINUOUS
10
168.571
20
-154.105
11
168.476
21
-154.295
0
LINE
8
BLACK
6
CONTINUOUS
10
168.476
20
-154.295
11
168.476
21
-154.771
0
LINE
8
BLACK
6
CONTINUOUS
10
168.476
20
-154.771
11
168.571
21
-154.962
0
LINE
8
BLACK
6
CONTINUOUS
10
168.571
20
-154.962
11
168.666
21
-155.057
0
LINE
8
BLACK
6
CONTINUOUS
10
168.666
20
-155.057
11
168.857
21
-155.152
0
LINE
8
BLACK
6
CONTINUOUS
10
168.857
20
-155.152
11
169.238
21
-155.152
0
LINE
8
BLACK
6
CONTINUOUS
10
169.238
20
-155.152
11
169.428
21
-155.057
0
LINE
8
BLACK
6
CONTINUOUS
10
169.428
20
-155.057
11
169.523
21
-154.962
0
LINE
8
BLACK
6
CONTINUOUS
10
169.523
20
-154.962
11
169.619
21
-154.771
0
LINE
8
BLACK
6
CONTINUOUS
10
171.333
20
-154.581
11
171.333
21
-155.914
0
LINE
8
BLACK
6
CONTINUOUS
10
170.857
20
-153.819
11
170.381
21
-155.248
0
LINE
8
BLACK
6
CONTINUOUS
10
170.381
20
-155.248
11
171.619
21
-155.248
0
LINE
8
BLACK
6
CONTINUOUS
10
172.285
20
-153.914
11
172.285
21
-154.295
0
LINE
8
BLACK
6
CONTINUOUS
10
173.047
20
-153.914
11
173.047
21
-154.295
0
LINE
8
BLACK
6
CONTINUOUS
10
176
20
-156.676
11
175.904
21
-156.581
0
LINE
8
BLACK
6
CONTINUOUS
10
175.904
20
-156.581
11
175.714
21
-156.295
0
LINE
8
BLACK
6
CONTINUOUS
10
175.714
20
-156.295
11
175.619
21
-156.105
0
LINE
8
BLACK
6
CONTINUOUS
10
175.619
20
-156.105
11
175.523
21
-155.819
0
LINE
8
BLACK
6
CONTINUOUS
10
175.523
20
-155.819
11
175.428
21
-155.343
0
LINE
8
BLACK
6
CONTINUOUS
10
175.428
20
-155.343
11
175.428
21
-154.962
0
LINE
8
BLACK
6
CONTINUOUS
10
175.428
20
-154.962
11
175.523
21
-154.486
0
LINE
8
BLACK
6
CONTINUOUS
10
175.523
20
-154.486
11
175.619
21
-154.2
0
LINE
8
BLACK
6
CONTINUOUS
10
175.619
20
-154.2
11
175.714
21
-154.01
0
LINE
8
BLACK
6
CONTINUOUS
10
175.714
20
-154.01
11
175.904
21
-153.724
0
LINE
8
BLACK
6
CONTINUOUS
10
175.904
20
-153.724
11
176
21
-153.629
0
LINE
8
BLACK
6
CONTINUOUS
10
177.809
20
-155.914
11
176.666
21
-155.914
0
LINE
8
BLACK
6
CONTINUOUS
10
177.238
20
-155.914
11
177.238
21
-153.914
0
LINE
8
BLACK
6
CONTINUOUS
10
177.238
20
-153.914
11
177.047
21
-154.2
0
LINE
8
BLACK
6
CONTINUOUS
10
177.047
20
-154.2
11
176.857
21
-154.391
0
LINE
8
BLACK
6
CONTINUOUS
10
176.857
20
-154.391
11
176.666
21
-154.486
0
LINE
8
BLACK
6
CONTINUOUS
10
178.476
20
-153.914
11
179.809
21
-153.914
0
LINE
8
BLACK
6
CONTINUOUS
10
179.809
20
-153.914
11
178.952
21
-155.914
0
LINE
8
BLACK
6
CONTINUOUS
10
182.095
20
-155.914
11
182.095
21
-153.914
0
LINE
8
BLACK
6
CONTINUOUS
10
182.952
20
-155.914
11
182.952
21
-154.867
0
LINE
8
BLACK
6
CONTINUOUS
10
182.952
20
-154.867
11
182.857
21
-154.676
0
LINE
8
BLACK
6
CONTINUOUS
10
182.857
20
-154.676
11
182.666
21
-154.581
0
LINE
8
BLACK
6
CONTINUOUS
10
182.666
20
-154.581
11
182.381
21
-154.581
0
LINE
8
BLACK
6
CONTINUOUS
10
182.381
20
-154.581
11
182.19
21
-154.676
0
LINE
8
BLACK
6
CONTINUOUS
10
182.19
20
-154.676
11
182.095
21
-154.771
0
LINE
8
BLACK
6
CONTINUOUS
10
184.19
20
-155.914
11
184
21
-155.819
0
LINE
8
BLACK
6
CONTINUOUS
10
184
20
-155.819
11
183.904
21
-155.724
0
LINE
8
BLACK
6
CONTINUOUS
10
183.904
20
-155.724
11
183.809
21
-155.533
0
LINE
8
BLACK
6
CONTINUOUS
10
183.809
20
-155.533
11
183.809
21
-154.962
0
LINE
8
BLACK
6
CONTINUOUS
10
183.809
20
-154.962
11
183.904
21
-154.771
0
LINE
8
BLACK
6
CONTINUOUS
10
183.904
20
-154.771
11
184
21
-154.676
0
LINE
8
BLACK
6
CONTINUOUS
10
184
20
-154.676
11
184.19
21
-154.581
0
LINE
8
BLACK
6
CONTINUOUS
10
184.19
20
-154.581
11
184.476
21
-154.581
0
LINE
8
BLACK
6
CONTINUOUS
10
184.476
20
-154.581
11
184.666
21
-154.676
0
LINE
8
BLACK
6
CONTINUOUS
10
184.666
20
-154.676
11
184.761
21
-154.771
0
LINE
8
BLACK
6
CONTINUOUS
10
184.761
20
-154.771
11
184.857
21
-154.962
0
LINE
8
BLACK
6
CONTINUOUS
10
184.857
20
-154.962
11
184.857
21
-155.533
0
LINE
8
BLACK
6
CONTINUOUS
10
184.857
20
-155.533
11
184.761
21
-155.724
0
LINE
8
BLACK
6
CONTINUOUS
10
184.761
20
-155.724
11
184.666
21
-155.819
0
LINE
8
BLACK
6
CONTINUOUS
10
184.666
20
-155.819
11
184.476
21
-155.914
0
LINE
8
BLACK
6
CONTINUOUS
10
184.476
20
-155.914
11
184.19
21
-155.914
0
LINE
8
BLACK
6
CONTINUOUS
10
186
20
-155.914
11
185.809
21
-155.819
0
LINE
8
BLACK
6
CONTINUOUS
10
185.809
20
-155.819
11
185.714
21
-155.629
0
LINE
8
BLACK
6
CONTINUOUS
10
185.714
20
-155.629
11
185.714
21
-153.914
0
LINE
8
BLACK
6
CONTINUOUS
10
187.523
20
-155.819
11
187.333
21
-155.914
0
LINE
8
BLACK
6
CONTINUOUS
10
187.333
20
-155.914
11
186.952
21
-155.914
0
LINE
8
BLACK
6
CONTINUOUS
10
186.952
20
-155.914
11
186.761
21
-155.819
0
LINE
8
BLACK
6
CONTINUOUS
10
186.761
20
-155.819
11
186.666
21
-155.629
0
LINE
8
BLACK
6
CONTINUOUS
10
186.666
20
-155.629
11
186.666
21
-154.867
0
LINE
8
BLACK
6
CONTINUOUS
10
186.666
20
-154.867
11
186.761
21
-154.676
0
LINE
8
BLACK
6
CONTINUOUS
10
186.761
20
-154.676
11
186.952
21
-154.581
0
LINE
8
BLACK
6
CONTINUOUS
10
186.952
20
-154.581
11
187.333
21
-154.581
0
LINE
8
BLACK
6
CONTINUOUS
10
187.333
20
-154.581
11
187.523
21
-154.676
0
LINE
8
BLACK
6
CONTINUOUS
10
187.523
20
-154.676
11
187.619
21
-154.867
0
LINE
8
BLACK
6
CONTINUOUS
10
187.619
20
-154.867
11
187.619
21
-155.057
0
LINE
8
BLACK
6
CONTINUOUS
10
187.619
20
-155.057
11
186.666
21
-155.248
0
LINE
8
BLACK
6
CONTINUOUS
10
188.381
20
-155.819
11
188.571
21
-155.914
0
LINE
8
BLACK
6
CONTINUOUS
10
188.571
20
-155.914
11
188.952
21
-155.914
0
LINE
8
BLACK
6
CONTINUOUS
10
188.952
20
-155.914
11
189.142
21
-155.819
0
LINE
8
BLACK
6
CONTINUOUS
10
189.142
20
-155.819
11
189.238
21
-155.629
0
LINE
8
BLACK
6
CONTINUOUS
10
189.238
20
-155.629
11
189.238
21
-155.533
0
LINE
8
BLACK
6
CONTINUOUS
10
189.238
20
-155.533
11
189.142
21
-155.343
0
LINE
8
BLACK
6
CONTINUOUS
10
189.142
20
-155.343
11
188.952
21
-155.248
0
LINE
8
BLACK
6
CONTINUOUS
10
188.952
20
-155.248
11
188.666
21
-155.248
0
LINE
8
BLACK
6
CONTINUOUS
10
188.666
20
-155.248
11
188.476
21
-155.152
0
LINE
8
BLACK
6
CONTINUOUS
10
188.476
20
-155.152
11
188.381
21
-154.962
0
LINE
8
BLACK
6
CONTINUOUS
10
188.381
20
-154.962
11
188.381
21
-154.867
0
LINE
8
BLACK
6
CONTINUOUS
10
188.381
20
-154.867
11
188.476
21
-154.676
0
LINE
8
BLACK
6
CONTINUOUS
10
188.476
20
-154.676
11
188.666
21
-154.581
0
LINE
8
BLACK
6
CONTINUOUS
10
188.666
20
-154.581
11
188.952
21
-154.581
0
LINE
8
BLACK
6
CONTINUOUS
10
188.952
20
-154.581
11
189.142
21
-154.676
0
LINE
8
BLACK
6
CONTINUOUS
10
189.904
20
-156.676
11
190
21
-156.581
0
LINE
8
BLACK
6
CONTINUOUS
10
190
20
-156.581
11
190.19
21
-156.295
0
LINE
8
BLACK
6
CONTINUOUS
10
190.19
20
-156.295
11
190.285
21
-156.105
0
LINE
8
BLACK
6
CONTINUOUS
10
190.285
20
-156.105
11
190.381
21
-155.819
0
LINE
8
BLACK
6
CONTINUOUS
10
190.381
20
-155.819
11
190.476
21
-155.343
0
LINE
8
BLACK
6
CONTINUOUS
10
190.476
20
-155.343
11
190.476
21
-154.962
0
LINE
8
BLACK
6
CONTINUOUS
10
190.476
20
-154.962
11
190.381
21
-154.486
0
LINE
8
BLACK
6
CONTINUOUS
10
190.381
20
-154.486
11
190.285
21
-154.2
0
LINE
8
BLACK
6
CONTINUOUS
10
190.285
20
-154.2
11
190.19
21
-154.01
0
LINE
8
BLACK
6
CONTINUOUS
10
190.19
20
-154.01
11
190
21
-153.724
0
LINE
8
BLACK
6
CONTINUOUS
10
190
20
-153.724
11
189.904
21
-153.629
0
LINE
8
BLACK
6
CONTINUOUS
10
139.686
20
-158.245
11
140.281
21
-157.65
0
LINE
8
BLACK
6
CONTINUOUS
10
140.281
20
-157.65
11
139.686
21
-157.055
0
LINE
8
BLACK
6
CONTINUOUS
10
139.686
20
-157.055
11
139.091
21
-157.65
0
LINE
8
BLACK
6
CONTINUOUS
10
139.091
20
-157.65
11
139.686
21
-158.245
0
LINE
8
BLACK
6
CONTINUOUS
10
143.904
20
-158.554
11
142.761
21
-158.554
0
LINE
8
BLACK
6
CONTINUOUS
10
143.333
20
-158.554
11
143.333
21
-156.554
0
LINE
8
BLACK
6
CONTINUOUS
10
143.333
20
-156.554
11
143.142
21
-156.84
0
LINE
8
BLACK
6
CONTINUOUS
10
143.142
20
-156.84
11
142.952
21
-157.031
0
LINE
8
BLACK
6
CONTINUOUS
10
142.952
20
-157.031
11
142.761
21
-157.126
0
LINE
8
BLACK
6
CONTINUOUS
10
144.761
20
-158.364
11
144.857
21
-158.459
0
LINE
8
BLACK
6
CONTINUOUS
10
144.857
20
-158.459
11
144.761
21
-158.554
0
LINE
8
BLACK
6
CONTINUOUS
10
144.761
20
-158.554
11
144.666
21
-158.459
0
LINE
8
BLACK
6
CONTINUOUS
10
144.666
20
-158.459
11
144.761
21
-158.364
0
LINE
8
BLACK
6
CONTINUOUS
10
144.761
20
-158.364
11
144.761
21
-158.554
0
LINE
8
BLACK
6
CONTINUOUS
10
146.761
20
-158.554
11
145.619
21
-158.554
0
LINE
8
BLACK
6
CONTINUOUS
10
146.19
20
-158.554
11
146.19
21
-156.554
0
LINE
8
BLACK
6
CONTINUOUS
10
146.19
20
-156.554
11
146
21
-156.84
0
LINE
8
BLACK
6
CONTINUOUS
10
146
20
-156.84
11
145.809
21
-157.031
0
LINE
8
BLACK
6
CONTINUOUS
10
145.809
20
-157.031
11
145.619
21
-157.126
0
LINE
8
BLACK
6
CONTINUOUS
10
147.714
20
-158.554
11
148.095
21
-158.554
0
LINE
8
BLACK
6
CONTINUOUS
10
148.095
20
-158.554
11
148.285
21
-158.459
0
LINE
8
BLACK
6
CONTINUOUS
10
148.285
20
-158.459
11
148.381
21
-158.364
0
LINE
8
BLACK
6
CONTINUOUS
10
148.381
20
-158.364
11
148.571
21
-158.078
0
LINE
8
BLACK
6
CONTINUOUS
10
148.571
20
-158.078
11
148.666
21
-157.697
0
LINE
8
BLACK
6
CONTINUOUS
10
148.666
20
-157.697
11
148.666
21
-156.935
0
LINE
8
BLACK
6
CONTINUOUS
10
148.666
20
-156.935
11
148.571
21
-156.745
0
LINE
8
BLACK
6
CONTINUOUS
10
148.571
20
-156.745
11
148.476
21
-156.65
0
LINE
8
BLACK
6
CONTINUOUS
10
148.476
20
-156.65
11
148.285
21
-156.554
0
LINE
8
BLACK
6
CONTINUOUS
10
148.285
20
-156.554
11
147.904
21
-156.554
0
LINE
8
BLACK
6
CONTINUOUS
10
147.904
20
-156.554
11
147.714
21
-156.65
0
LINE
8
BLACK
6
CONTINUOUS
10
147.714
20
-156.65
11
147.619
21
-156.745
0
LINE
8
BLACK
6
CONTINUOUS
10
147.619
20
-156.745
11
147.523
21
-156.935
0
LINE
8
BLACK
6
CONTINUOUS
10
147.523
20
-156.935
11
147.523
21
-157.411
0
LINE
8
BLACK
6
CONTINUOUS
10
147.523
20
-157.411
11
147.619
21
-157.602
0
LINE
8
BLACK
6
CONTINUOUS
10
147.619
20
-157.602
11
147.714
21
-157.697
0
LINE
8
BLACK
6
CONTINUOUS
10
147.714
20
-157.697
11
147.904
21
-157.792
0
LINE
8
BLACK
6
CONTINUOUS
10
147.904
20
-157.792
11
148.285
21
-157.792
0
LINE
8
BLACK
6
CONTINUOUS
10
148.285
20
-157.792
11
148.476
21
-157.697
0
LINE
8
BLACK
6
CONTINUOUS
10
148.476
20
-157.697
11
148.571
21
-157.602
0
LINE
8
BLACK
6
CONTINUOUS
10
148.571
20
-157.602
11
148.666
21
-157.411
0
LINE
8
BLACK
6
CONTINUOUS
10
149.904
20
-156.554
11
150.095
21
-156.554
0
LINE
8
BLACK
6
CONTINUOUS
10
150.095
20
-156.554
11
150.285
21
-156.65
0
LINE
8
BLACK
6
CONTINUOUS
10
150.285
20
-156.65
11
150.381
21
-156.745
0
LINE
8
BLACK
6
CONTINUOUS
10
150.381
20
-156.745
11
150.476
21
-156.935
0
LINE
8
BLACK
6
CONTINUOUS
10
150.476
20
-156.935
11
150.571
21
-157.316
0
LINE
8
BLACK
6
CONTINUOUS
10
150.571
20
-157.316
11
150.571
21
-157.792
0
LINE
8
BLACK
6
CONTINUOUS
10
150.571
20
-157.792
11
150.476
21
-158.173
0
LINE
8
BLACK
6
CONTINUOUS
10
150.476
20
-158.173
11
150.381
21
-158.364
0
LINE
8
BLACK
6
CONTINUOUS
10
150.381
20
-158.364
11
150.285
21
-158.459
0
LINE
8
BLACK
6
CONTINUOUS
10
150.285
20
-158.459
11
150.095
21
-158.554
0
LINE
8
BLACK
6
CONTINUOUS
10
150.095
20
-158.554
11
149.904
21
-158.554
0
LINE
8
BLACK
6
CONTINUOUS
10
149.904
20
-158.554
11
149.714
21
-158.459
0
LINE
8
BLACK
6
CONTINUOUS
10
149.714
20
-158.459
11
149.619
21
-158.364
0
LINE
8
BLACK
6
CONTINUOUS
10
149.619
20
-158.364
11
149.523
21
-158.173
0
LINE
8
BLACK
6
CONTINUOUS
10
149.523
20
-158.173
11
149.428
21
-157.792
0
LINE
8
BLACK
6
CONTINUOUS
10
149.428
20
-157.792
11
149.428
21
-157.316
0
LINE
8
BLACK
6
CONTINUOUS
10
149.428
20
-157.316
11
149.523
21
-156.935
0
LINE
8
BLACK
6
CONTINUOUS
10
149.523
20
-156.935
11
149.619
21
-156.745
0
LINE
8
BLACK
6
CONTINUOUS
10
149.619
20
-156.745
11
149.714
21
-156.65
0
LINE
8
BLACK
6
CONTINUOUS
10
149.714
20
-156.65
11
149.904
21
-156.554
0
LINE
8
BLACK
6
CONTINUOUS
10
151.428
20
-158.554
11
151.428
21
-157.221
0
LINE
8
BLACK
6
CONTINUOUS
10
151.428
20
-157.411
11
151.523
21
-157.316
0
LINE
8
BLACK
6
CONTINUOUS
10
151.523
20
-157.316
11
151.714
21
-157.221
0
LINE
8
BLACK
6
CONTINUOUS
10
151.714
20
-157.221
11
152
21
-157.221
0
LINE
8
BLACK
6
CONTINUOUS
10
152
20
-157.221
11
152.19
21
-157.316
0
LINE
8
BLACK
6
CONTINUOUS
10
152.19
20
-157.316
11
152.285
21
-157.507
0
LINE
8
BLACK
6
CONTINUOUS
10
152.285
20
-157.507
11
152.285
21
-158.554
0
LINE
8
BLACK
6
CONTINUOUS
10
152.285
20
-157.507
11
152.381
21
-157.316
0
LINE
8
BLACK
6
CONTINUOUS
10
152.381
20
-157.316
11
152.571
21
-157.221
0
LINE
8
BLACK
6
CONTINUOUS
10
152.571
20
-157.221
11
152.857
21
-157.221
0
LINE
8
BLACK
6
CONTINUOUS
10
152.857
20
-157.221
11
153.047
21
-157.316
0
LINE
8
BLACK
6
CONTINUOUS
10
153.047
20
-157.316
11
153.142
21
-157.507
0
LINE
8
BLACK
6
CONTINUOUS
10
153.142
20
-157.507
11
153.142
21
-158.554
0
LINE
8
BLACK
6
CONTINUOUS
10
154.095
20
-158.554
11
154.095
21
-157.221
0
LINE
8
BLACK
6
CONTINUOUS
10
154.095
20
-157.411
11
154.19
21
-157.316
0
LINE
8
BLACK
6
CONTINUOUS
10
154.19
20
-157.316
11
154.381
21
-157.221
0
LINE
8
BLACK
6
CONTINUOUS
10
154.381
20
-157.221
11
154.666
21
-157.221
0
LINE
8
BLACK
6
CONTINUOUS
10
154.666
20
-157.221
11
154.857
21
-157.316
0
LINE
8
BLACK
6
CONTINUOUS
10
154.857
20
-157.316
11
154.952
21
-157.507
0
LINE
8
BLACK
6
CONTINUOUS
10
154.952
20
-157.507
11
154.952
21
-158.554
0
LINE
8
BLACK
6
CONTINUOUS
10
154.952
20
-157.507
11
155.047
21
-157.316
0
LINE
8
BLACK
6
CONTINUOUS
10
155.047
20
-157.316
11
155.238
21
-157.221
0
LINE
8
BLACK
6
CONTINUOUS
10
155.238
20
-157.221
11
155.523
21
-157.221
0
LINE
8
BLACK
6
CONTINUOUS
10
155.523
20
-157.221
11
155.714
21
-157.316
0
LINE
8
BLACK
6
CONTINUOUS
10
155.714
20
-157.316
11
155.809
21
-157.507
0
LINE
8
BLACK
6
CONTINUOUS
10
155.809
20
-157.507
11
155.809
21
-158.554
0
LINE
8
BLACK
6
CONTINUOUS
10
159.714
20
-156.459
11
158
21
-159.031
0
LINE
8
BLACK
6
CONTINUOUS
10
162.285
20
-156.554
11
162.476
21
-156.554
0
LINE
8
BLACK
6
CONTINUOUS
10
162.476
20
-156.554
11
162.666
21
-156.65
0
LINE
8
BLACK
6
CONTINUOUS
10
162.666
20
-156.65
11
162.761
21
-156.745
0
LINE
8
BLACK
6
CONTINUOUS
10
162.761
20
-156.745
11
162.857
21
-156.935
0
LINE
8
BLACK
6
CONTINUOUS
10
162.857
20
-156.935
11
162.952
21
-157.316
0
LINE
8
BLACK
6
CONTINUOUS
10
162.952
20
-157.316
11
162.952
21
-157.792
0
LINE
8
BLACK
6
CONTINUOUS
10
162.952
20
-157.792
11
162.857
21
-158.173
0
LINE
8
BLACK
6
CONTINUOUS
10
162.857
20
-158.173
11
162.761
21
-158.364
0
LINE
8
BLACK
6
CONTINUOUS
10
162.761
20
-158.364
11
162.666
21
-158.459
0
LINE
8
BLACK
6
CONTINUOUS
10
162.666
20
-158.459
11
162.476
21
-158.554
0
LINE
8
BLACK
6
CONTINUOUS
10
162.476
20
-158.554
11
162.285
21
-158.554
0
LINE
8
BLACK
6
CONTINUOUS
10
162.285
20
-158.554
11
162.095
21
-158.459
0
LINE
8
BLACK
6
CONTINUOUS
10
162.095
20
-158.459
11
162
21
-158.364
0
LINE
8
BLACK
6
CONTINUOUS
10
162
20
-158.364
11
161.904
21
-158.173
0
LINE
8
BLACK
6
CONTINUOUS
10
161.904
20
-158.173
11
161.809
21
-157.792
0
LINE
8
BLACK
6
CONTINUOUS
10
161.809
20
-157.792
11
161.809
21
-157.316
0
LINE
8
BLACK
6
CONTINUOUS
10
161.809
20
-157.316
11
161.904
21
-156.935
0
LINE
8
BLACK
6
CONTINUOUS
10
161.904
20
-156.935
11
162
21
-156.745
0
LINE
8
BLACK
6
CONTINUOUS
10
162
20
-156.745
11
162.095
21
-156.65
0
LINE
8
BLACK
6
CONTINUOUS
10
162.095
20
-156.65
11
162.285
21
-156.554
0
LINE
8
BLACK
6
CONTINUOUS
10
163.809
20
-158.364
11
163.904
21
-158.459
0
LINE
8
BLACK
6
CONTINUOUS
10
163.904
20
-158.459
11
163.809
21
-158.554
0
LINE
8
BLACK
6
CONTINUOUS
10
163.809
20
-158.554
11
163.714
21
-158.459
0
LINE
8
BLACK
6
CONTINUOUS
10
163.714
20
-158.459
11
163.809
21
-158.364
0
LINE
8
BLACK
6
CONTINUOUS
10
163.809
20
-158.364
11
163.809
21
-158.554
0
LINE
8
BLACK
6
CONTINUOUS
10
165.142
20
-156.554
11
165.333
21
-156.554
0
LINE
8
BLACK
6
CONTINUOUS
10
165.333
20
-156.554
11
165.523
21
-156.65
0
LINE
8
BLACK
6
CONTINUOUS
10
165.523
20
-156.65
11
165.619
21
-156.745
0
LINE
8
BLACK
6
CONTINUOUS
10
165.619
20
-156.745
11
165.714
21
-156.935
0
LINE
8
BLACK
6
CONTINUOUS
10
165.714
20
-156.935
11
165.809
21
-157.316
0
LINE
8
BLACK
6
CONTINUOUS
10
165.809
20
-157.316
11
165.809
21
-157.792
0
LINE
8
BLACK
6
CONTINUOUS
10
165.809
20
-157.792
11
165.714
21
-158.173
0
LINE
8
BLACK
6
CONTINUOUS
10
165.714
20
-158.173
11
165.619
21
-158.364
0
LINE
8
BLACK
6
CONTINUOUS
10
165.619
20
-158.364
11
165.523
21
-158.459
0
LINE
8
BLACK
6
CONTINUOUS
10
165.523
20
-158.459
11
165.333
21
-158.554
0
LINE
8
BLACK
6
CONTINUOUS
10
165.333
20
-158.554
11
165.142
21
-158.554
0
LINE
8
BLACK
6
CONTINUOUS
10
165.142
20
-158.554
11
164.952
21
-158.459
0
LINE
8
BLACK
6
CONTINUOUS
10
164.952
20
-158.459
11
164.857
21
-158.364
0
LINE
8
BLACK
6
CONTINUOUS
10
164.857
20
-158.364
11
164.761
21
-158.173
0
LINE
8
BLACK
6
CONTINUOUS
10
164.761
20
-158.173
11
164.666
21
-157.792
0
LINE
8
BLACK
6
CONTINUOUS
10
164.666
20
-157.792
11
164.666
21
-157.316
0
LINE
8
BLACK
6
CONTINUOUS
10
164.666
20
-157.316
11
164.761
21
-156.935
0
LINE
8
BLACK
6
CONTINUOUS
10
164.761
20
-156.935
11
164.857
21
-156.745
0
LINE
8
BLACK
6
CONTINUOUS
10
164.857
20
-156.745
11
164.952
21
-156.65
0
LINE
8
BLACK
6
CONTINUOUS
10
164.952
20
-156.65
11
165.142
21
-156.554
0
LINE
8
BLACK
6
CONTINUOUS
10
167.523
20
-157.221
11
167.523
21
-158.554
0
LINE
8
BLACK
6
CONTINUOUS
10
167.047
20
-156.459
11
166.571
21
-157.888
0
LINE
8
BLACK
6
CONTINUOUS
10
166.571
20
-157.888
11
167.809
21
-157.888
0
LINE
8
BLACK
6
CONTINUOUS
10
169.428
20
-156.554
11
169.047
21
-156.554
0
LINE
8
BLACK
6
CONTINUOUS
10
169.047
20
-156.554
11
168.857
21
-156.65
0
LINE
8
BLACK
6
CONTINUOUS
10
168.857
20
-156.65
11
168.761
21
-156.745
0
LINE
8
BLACK
6
CONTINUOUS
10
168.761
20
-156.745
11
168.571
21
-157.031
0
LINE
8
BLACK
6
CONTINUOUS
10
168.571
20
-157.031
11
168.476
21
-157.411
0
LINE
8
BLACK
6
CONTINUOUS
10
168.476
20
-157.411
11
168.476
21
-158.173
0
LINE
8
BLACK
6
CONTINUOUS
10
168.476
20
-158.173
11
168.571
21
-158.364
0
LINE
8
BLACK
6
CONTINUOUS
10
168.571
20
-158.364
11
168.666
21
-158.459
0
LINE
8
BLACK
6
CONTINUOUS
10
168.666
20
-158.459
11
168.857
21
-158.554
0
LINE
8
BLACK
6
CONTINUOUS
10
168.857
20
-158.554
11
169.238
21
-158.554
0
LINE
8
BLACK
6
CONTINUOUS
10
169.238
20
-158.554
11
169.428
21
-158.459
0
LINE
8
BLACK
6
CONTINUOUS
10
169.428
20
-158.459
11
169.523
21
-158.364
0
LINE
8
BLACK
6
CONTINUOUS
10
169.523
20
-158.364
11
169.619
21
-158.173
0
LINE
8
BLACK
6
CONTINUOUS
10
169.619
20
-158.173
11
169.619
21
-157.697
0
LINE
8
BLACK
6
CONTINUOUS
10
169.619
20
-157.697
11
169.523
21
-157.507
0
LINE
8
BLACK
6
CONTINUOUS
10
169.523
20
-157.507
11
169.428
21
-157.411
0
LINE
8
BLACK
6
CONTINUOUS
10
169.428
20
-157.411
11
169.238
21
-157.316
0
LINE
8
BLACK
6
CONTINUOUS
10
169.238
20
-157.316
11
168.857
21
-157.316
0
LINE
8
BLACK
6
CONTINUOUS
10
168.857
20
-157.316
11
168.666
21
-157.411
0
LINE
8
BLACK
6
CONTINUOUS
10
168.666
20
-157.411
11
168.571
21
-157.507
0
LINE
8
BLACK
6
CONTINUOUS
10
168.571
20
-157.507
11
168.476
21
-157.697
0
LINE
8
BLACK
6
CONTINUOUS
10
170.571
20
-158.554
11
170.952
21
-158.554
0
LINE
8
BLACK
6
CONTINUOUS
10
170.952
20
-158.554
11
171.142
21
-158.459
0
LINE
8
BLACK
6
CONTINUOUS
10
171.142
20
-158.459
11
171.238
21
-158.364
0
LINE
8
BLACK
6
CONTINUOUS
10
171.238
20
-158.364
11
171.428
21
-158.078
0
LINE
8
BLACK
6
CONTINUOUS
10
171.428
20
-158.078
11
171.523
21
-157.697
0
LINE
8
BLACK
6
CONTINUOUS
10
171.523
20
-157.697
11
171.523
21
-156.935
0
LINE
8
BLACK
6
CONTINUOUS
10
171.523
20
-156.935
11
171.428
21
-156.745
0
LINE
8
BLACK
6
CONTINUOUS
10
171.428
20
-156.745
11
171.333
21
-156.65
0
LINE
8
BLACK
6
CONTINUOUS
10
171.333
20
-156.65
11
171.142
21
-156.554
0
LINE
8
BLACK
6
CONTINUOUS
10
171.142
20
-156.554
11
170.761
21
-156.554
0
LINE
8
BLACK
6
CONTINUOUS
10
170.761
20
-156.554
11
170.571
21
-156.65
0
LINE
8
BLACK
6
CONTINUOUS
10
170.571
20
-156.65
11
170.476
21
-156.745
0
LINE
8
BLACK
6
CONTINUOUS
10
170.476
20
-156.745
11
170.381
21
-156.935
0
LINE
8
BLACK
6
CONTINUOUS
10
170.381
20
-156.935
11
170.381
21
-157.411
0
LINE
8
BLACK
6
CONTINUOUS
10
170.381
20
-157.411
11
170.476
21
-157.602
0
LINE
8
BLACK
6
CONTINUOUS
10
170.476
20
-157.602
11
170.571
21
-157.697
0
LINE
8
BLACK
6
CONTINUOUS
10
170.571
20
-157.697
11
170.761
21
-157.792
0
LINE
8
BLACK
6
CONTINUOUS
10
170.761
20
-157.792
11
171.142
21
-157.792
0
LINE
8
BLACK
6
CONTINUOUS
10
171.142
20
-157.792
11
171.333
21
-157.697
0
LINE
8
BLACK
6
CONTINUOUS
10
171.333
20
-157.697
11
171.428
21
-157.602
0
LINE
8
BLACK
6
CONTINUOUS
10
171.428
20
-157.602
11
171.523
21
-157.411
0
LINE
8
BLACK
6
CONTINUOUS
10
172.285
20
-156.554
11
172.285
21
-156.935
0
LINE
8
BLACK
6
CONTINUOUS
10
173.047
20
-156.554
11
173.047
21
-156.935
0
LINE
8
BLACK
6
CONTINUOUS
10
176
20
-159.316
11
175.904
21
-159.221
0
LINE
8
BLACK
6
CONTINUOUS
10
175.904
20
-159.221
11
175.714
21
-158.935
0
LINE
8
BLACK
6
CONTINUOUS
10
175.714
20
-158.935
11
175.619
21
-158.745
0
LINE
8
BLACK
6
CONTINUOUS
10
175.619
20
-158.745
11
175.523
21
-158.459
0
LINE
8
BLACK
6
CONTINUOUS
10
175.523
20
-158.459
11
175.428
21
-157.983
0
LINE
8
BLACK
6
CONTINUOUS
10
175.428
20
-157.983
11
175.428
21
-157.602
0
LINE
8
BLACK
6
CONTINUOUS
10
175.428
20
-157.602
11
175.523
21
-157.126
0
LINE
8
BLACK
6
CONTINUOUS
10
175.523
20
-157.126
11
175.619
21
-156.84
0
LINE
8
BLACK
6
CONTINUOUS
10
175.619
20
-156.84
11
175.714
21
-156.65
0
LINE
8
BLACK
6
CONTINUOUS
10
175.714
20
-156.65
11
175.904
21
-156.364
0
LINE
8
BLACK
6
CONTINUOUS
10
175.904
20
-156.364
11
176
21
-156.269
0
LINE
8
BLACK
6
CONTINUOUS
10
177.809
20
-158.554
11
176.666
21
-158.554
0
LINE
8
BLACK
6
CONTINUOUS
10
177.238
20
-158.554
11
177.238
21
-156.554
0
LINE
8
BLACK
6
CONTINUOUS
10
177.238
20
-156.554
11
177.047
21
-156.84
0
LINE
8
BLACK
6
CONTINUOUS
10
177.047
20
-156.84
11
176.857
21
-157.031
0
LINE
8
BLACK
6
CONTINUOUS
10
176.857
20
-157.031
11
176.666
21
-157.126
0
LINE
8
BLACK
6
CONTINUOUS
10
178.952
20
-157.411
11
178.761
21
-157.316
0
LINE
8
BLACK
6
CONTINUOUS
10
178.761
20
-157.316
11
178.666
21
-157.221
0
LINE
8
BLACK
6
CONTINUOUS
10
178.666
20
-157.221
11
178.571
21
-157.031
0
LINE
8
BLACK
6
CONTINUOUS
10
178.571
20
-157.031
11
178.571
21
-156.935
0
LINE
8
BLACK
6
CONTINUOUS
10
178.571
20
-156.935
11
178.666
21
-156.745
0
LINE
8
BLACK
6
CONTINUOUS
10
178.666
20
-156.745
11
178.761
21
-156.65
0
LINE
8
BLACK
6
CONTINUOUS
10
178.761
20
-156.65
11
178.952
21
-156.554
0
LINE
8
BLACK
6
CONTINUOUS
10
178.952
20
-156.554
11
179.333
21
-156.554
0
LINE
8
BLACK
6
CONTINUOUS
10
179.333
20
-156.554
11
179.523
21
-156.65
0
LINE
8
BLACK
6
CONTINUOUS
10
179.523
20
-156.65
11
179.619
21
-156.745
0
LINE
8
BLACK
6
CONTINUOUS
10
179.619
20
-156.745
11
179.714
21
-156.935
0
LINE
8
BLACK
6
CONTINUOUS
10
179.714
20
-156.935
11
179.714
21
-157.031
0
LINE
8
BLACK
6
CONTINUOUS
10
179.714
20
-157.031
11
179.619
21
-157.221
0
LINE
8
BLACK
6
CONTINUOUS
10
179.619
20
-157.221
11
179.523
21
-157.316
0
LINE
8
BLACK
6
CONTINUOUS
10
179.523
20
-157.316
11
179.333
21
-157.411
0
LINE
8
BLACK
6
CONTINUOUS
10
179.333
20
-157.411
11
178.952
21
-157.411
0
LINE
8
BLACK
6
CONTINUOUS
10
178.952
20
-157.411
11
178.761
21
-157.507
0
LINE
8
BLACK
6
CONTINUOUS
10
178.761
20
-157.507
11
178.666
21
-157.602
0
LINE
8
BLACK
6
CONTINUOUS
10
178.666
20
-157.602
11
178.571
21
-157.792
0
LINE
8
BLACK
6
CONTINUOUS
10
178.571
20
-157.792
11
178.571
21
-158.173
0
LINE
8
BLACK
6
CONTINUOUS
10
178.571
20
-158.173
11
178.666
21
-158.364
0
LINE
8
BLACK
6
CONTINUOUS
10
178.666
20
-158.364
11
178.761
21
-158.459
0
LINE
8
BLACK
6
CONTINUOUS
10
178.761
20
-158.459
11
178.952
21
-158.554
0
LINE
8
BLACK
6
CONTINUOUS
10
178.952
20
-158.554
11
179.333
21
-158.554
0
LINE
8
BLACK
6
CONTINUOUS
10
179.333
20
-158.554
11
179.523
21
-158.459
0
LINE
8
BLACK
6
CONTINUOUS
10
179.523
20
-158.459
11
179.619
21
-158.364
0
LINE
8
BLACK
6
CONTINUOUS
10
179.619
20
-158.364
11
179.714
21
-158.173
0
LINE
8
BLACK
6
CONTINUOUS
10
179.714
20
-158.173
11
179.714
21
-157.792
0
LINE
8
BLACK
6
CONTINUOUS
10
179.714
20
-157.792
11
179.619
21
-157.602
0
LINE
8
BLACK
6
CONTINUOUS
10
179.619
20
-157.602
11
179.523
21
-157.507
0
LINE
8
BLACK
6
CONTINUOUS
10
179.523
20
-157.507
11
179.333
21
-157.411
0
LINE
8
BLACK
6
CONTINUOUS
10
182.095
20
-158.554
11
182.095
21
-156.554
0
LINE
8
BLACK
6
CONTINUOUS
10
182.952
20
-158.554
11
182.952
21
-157.507
0
LINE
8
BLACK
6
CONTINUOUS
10
182.952
20
-157.507
11
182.857
21
-157.316
0
LINE
8
BLACK
6
CONTINUOUS
10
182.857
20
-157.316
11
182.666
21
-157.221
0
LINE
8
BLACK
6
CONTINUOUS
10
182.666
20
-157.221
11
182.381
21
-157.221
0
LINE
8
BLACK
6
CONTINUOUS
10
182.381
20
-157.221
11
182.19
21
-157.316
0
LINE
8
BLACK
6
CONTINUOUS
10
182.19
20
-157.316
11
182.095
21
-157.411
0
LINE
8
BLACK
6
CONTINUOUS
10
184.19
20
-158.554
11
184
21
-158.459
0
LINE
8
BLACK
6
CONTINUOUS
10
184
20
-158.459
11
183.904
21
-158.364
0
LINE
8
BLACK
6
CONTINUOUS
10
183.904
20
-158.364
11
183.809
21
-158.173
0
LINE
8
BLACK
6
CONTINUOUS
10
183.809
20
-158.173
11
183.809
21
-157.602
0
LINE
8
BLACK
6
CONTINUOUS
10
183.809
20
-157.602
11
183.904
21
-157.411
0
LINE
8
BLACK
6
CONTINUOUS
10
183.904
20
-157.411
11
184
21
-157.316
0
LINE
8
BLACK
6
CONTINUOUS
10
184
20
-157.316
11
184.19
21
-157.221
0
LINE
8
BLACK
6
CONTINUOUS
10
184.19
20
-157.221
11
184.476
21
-157.221
0
LINE
8
BLACK
6
CONTINUOUS
10
184.476
20
-157.221
11
184.666
21
-157.316
0
LINE
8
BLACK
6
CONTINUOUS
10
184.666
20
-157.316
11
184.761
21
-157.411
0
LINE
8
BLACK
6
CONTINUOUS
10
184.761
20
-157.411
11
184.857
21
-157.602
0
LINE
8
BLACK
6
CONTINUOUS
10
184.857
20
-157.602
11
184.857
21
-158.173
0
LINE
8
BLACK
6
CONTINUOUS
10
184.857
20
-158.173
11
184.761
21
-158.364
0
LINE
8
BLACK
6
CONTINUOUS
10
184.761
20
-158.364
11
184.666
21
-158.459
0
LINE
8
BLACK
6
CONTINUOUS
10
184.666
20
-158.459
11
184.476
21
-158.554
0
LINE
8
BLACK
6
CONTINUOUS
10
184.476
20
-158.554
11
184.19
21
-158.554
0
LINE
8
BLACK
6
CONTINUOUS
10
186
20
-158.554
11
185.809
21
-158.459
0
LINE
8
BLACK
6
CONTINUOUS
10
185.809
20
-158.459
11
185.714
21
-158.269
0
LINE
8
BLACK
6
CONTINUOUS
10
185.714
20
-158.269
11
185.714
21
-156.554
0
LINE
8
BLACK
6
CONTINUOUS
10
187.523
20
-158.459
11
187.333
21
-158.554
0
LINE
8
BLACK
6
CONTINUOUS
10
187.333
20
-158.554
11
186.952
21
-158.554
0
LINE
8
BLACK
6
CONTINUOUS
10
186.952
20
-158.554
11
186.761
21
-158.459
0
LINE
8
BLACK
6
CONTINUOUS
10
186.761
20
-158.459
11
186.666
21
-158.269
0
LINE
8
BLACK
6
CONTINUOUS
10
186.666
20
-158.269
11
186.666
21
-157.507
0
LINE
8
BLACK
6
CONTINUOUS
10
186.666
20
-157.507
11
186.761
21
-157.316
0
LINE
8
BLACK
6
CONTINUOUS
10
186.761
20
-157.316
11
186.952
21
-157.221
0
LINE
8
BLACK
6
CONTINUOUS
10
186.952
20
-157.221
11
187.333
21
-157.221
0
LINE
8
BLACK
6
CONTINUOUS
10
187.333
20
-157.221
11
187.523
21
-157.316
0
LINE
8
BLACK
6
CONTINUOUS
10
187.523
20
-157.316
11
187.619
21
-157.507
0
LINE
8
BLACK
6
CONTINUOUS
10
187.619
20
-157.507
11
187.619
21
-157.697
0
LINE
8
BLACK
6
CONTINUOUS
10
187.619
20
-157.697
11
186.666
21
-157.888
0
LINE
8
BLACK
6
CONTINUOUS
10
188.381
20
-158.459
11
188.571
21
-158.554
0
LINE
8
BLACK
6
CONTINUOUS
10
188.571
20
-158.554
11
188.952
21
-158.554
0
LINE
8
BLACK
6
CONTINUOUS
10
188.952
20
-158.554
11
189.142
21
-158.459
0
LINE
8
BLACK
6
CONTINUOUS
10
189.142
20
-158.459
11
189.238
21
-158.269
0
LINE
8
BLACK
6
CONTINUOUS
10
189.238
20
-158.269
11
189.238
21
-158.173
0
LINE
8
BLACK
6
CONTINUOUS
10
189.238
20
-158.173
11
189.142
21
-157.983
0
LINE
8
BLACK
6
CONTINUOUS
10
189.142
20
-157.983
11
188.952
21
-157.888
0
LINE
8
BLACK
6
CONTINUOUS
10
188.952
20
-157.888
11
188.666
21
-157.888
0
LINE
8
BLACK
6
CONTINUOUS
10
188.666
20
-157.888
11
188.476
21
-157.792
0
LINE
8
BLACK
6
CONTINUOUS
10
188.476
20
-157.792
11
188.381
21
-157.602
0
LINE
8
BLACK
6
CONTINUOUS
10
188.381
20
-157.602
11
188.381
21
-157.507
0
LINE
8
BLACK
6
CONTINUOUS
10
188.381
20
-157.507
11
188.476
21
-157.316
0
LINE
8
BLACK
6
CONTINUOUS
10
188.476
20
-157.316
11
188.666
21
-157.221
0
LINE
8
BLACK
6
CONTINUOUS
10
188.666
20
-157.221
11
188.952
21
-157.221
0
LINE
8
BLACK
6
CONTINUOUS
10
188.952
20
-157.221
11
189.142
21
-157.316
0
LINE
8
BLACK
6
CONTINUOUS
10
189.904
20
-159.316
11
190
21
-159.221
0
LINE
8
BLACK
6
CONTINUOUS
10
190
20
-159.221
11
190.19
21
-158.935
0
LINE
8
BLACK
6
CONTINUOUS
10
190.19
20
-158.935
11
190.285
21
-158.745
0
LINE
8
BLACK
6
CONTINUOUS
10
190.285
20
-158.745
11
190.381
21
-158.459
0
LINE
8
BLACK
6
CONTINUOUS
10
190.381
20
-158.459
11
190.476
21
-157.983
0
LINE
8
BLACK
6
CONTINUOUS
10
190.476
20
-157.983
11
190.476
21
-157.602
0
LINE
8
BLACK
6
CONTINUOUS
10
190.476
20
-157.602
11
190.381
21
-157.126
0
LINE
8
BLACK
6
CONTINUOUS
10
190.381
20
-157.126
11
190.285
21
-156.84
0
LINE
8
BLACK
6
CONTINUOUS
10
190.285
20
-156.84
11
190.19
21
-156.65
0
LINE
8
BLACK
6
CONTINUOUS
10
190.19
20
-156.65
11
190
21
-156.364
0
LINE
8
BLACK
6
CONTINUOUS
10
190
20
-156.364
11
189.904
21
-156.269
0
LINE
8
BLACK
6
CONTINUOUS
10
138.781
20
-159.54
11
140.281
21
-161.04
0
LINE
8
BLACK
6
CONTINUOUS
10
140.281
20
-159.54
11
138.781
21
-161.04
0
CIRCLE
8
BLACK
10
139.531
20
-160.29
40
0.75
0
LINE
8
BLACK
6
CONTINUOUS
10
143.904
20
-161.194
11
142.761
21
-161.194
0
LINE
8
BLACK
6
CONTINUOUS
10
143.333
20
-161.194
11
143.333
21
-159.194
0
LINE
8
BLACK
6
CONTINUOUS
10
143.333
20
-159.194
11
143.142
21
-159.48
0
LINE
8
BLACK
6
CONTINUOUS
10
143.142
20
-159.48
11
142.952
21
-159.671
0
LINE
8
BLACK
6
CONTINUOUS
10
142.952
20
-159.671
11
142.761
21
-159.766
0
LINE
8
BLACK
6
CONTINUOUS
10
144.761
20
-161.004
11
144.857
21
-161.099
0
LINE
8
BLACK
6
CONTINUOUS
10
144.857
20
-161.099
11
144.761
21
-161.194
0
LINE
8
BLACK
6
CONTINUOUS
10
144.761
20
-161.194
11
144.666
21
-161.099
0
LINE
8
BLACK
6
CONTINUOUS
10
144.666
20
-161.099
11
144.761
21
-161.004
0
LINE
8
BLACK
6
CONTINUOUS
10
144.761
20
-161.004
11
144.761
21
-161.194
0
LINE
8
BLACK
6
CONTINUOUS
10
146.666
20
-159.194
11
145.714
21
-159.194
0
LINE
8
BLACK
6
CONTINUOUS
10
145.714
20
-159.194
11
145.619
21
-160.147
0
LINE
8
BLACK
6
CONTINUOUS
10
145.619
20
-160.147
11
145.714
21
-160.051
0
LINE
8
BLACK
6
CONTINUOUS
10
145.714
20
-160.051
11
145.904
21
-159.956
0
LINE
8
BLACK
6
CONTINUOUS
10
145.904
20
-159.956
11
146.381
21
-159.956
0
LINE
8
BLACK
6
CONTINUOUS
10
146.381
20
-159.956
11
146.571
21
-160.051
0
LINE
8
BLACK
6
CONTINUOUS
10
146.571
20
-160.051
11
146.666
21
-160.147
0
LINE
8
BLACK
6
CONTINUOUS
10
146.666
20
-160.147
11
146.761
21
-160.337
0
LINE
8
BLACK
6
CONTINUOUS
10
146.761
20
-160.337
11
146.761
21
-160.813
0
LINE
8
BLACK
6
CONTINUOUS
10
146.761
20
-160.813
11
146.666
21
-161.004
0
LINE
8
BLACK
6
CONTINUOUS
10
146.666
20
-161.004
11
146.571
21
-161.099
0
LINE
8
BLACK
6
CONTINUOUS
10
146.571
20
-161.099
11
146.381
21
-161.194
0
LINE
8
BLACK
6
CONTINUOUS
10
146.381
20
-161.194
11
145.904
21
-161.194
0
LINE
8
BLACK
6
CONTINUOUS
10
145.904
20
-161.194
11
145.714
21
-161.099
0
LINE
8
BLACK
6
CONTINUOUS
10
145.714
20
-161.099
11
145.619
21
-161.004
0
LINE
8
BLACK
6
CONTINUOUS
10
148
20
-159.194
11
148.19
21
-159.194
0
LINE
8
BLACK
6
CONTINUOUS
10
148.19
20
-159.194
11
148.381
21
-159.29
0
LINE
8
BLACK
6
CONTINUOUS
10
148.381
20
-159.29
11
148.476
21
-159.385
0
LINE
8
BLACK
6
CONTINUOUS
10
148.476
20
-159.385
11
148.571
21
-159.575
0
LINE
8
BLACK
6
CONTINUOUS
10
148.571
20
-159.575
11
148.666
21
-159.956
0
LINE
8
BLACK
6
CONTINUOUS
10
148.666
20
-159.956
11
148.666
21
-160.432
0
LINE
8
BLACK
6
CONTINUOUS
10
148.666
20
-160.432
11
148.571
21
-160.813
0
LINE
8
BLACK
6
CONTINUOUS
10
148.571
20
-160.813
11
148.476
21
-161.004
0
LINE
8
BLACK
6
CONTINUOUS
10
148.476
20
-161.004
11
148.381
21
-161.099
0
LINE
8
BLACK
6
CONTINUOUS
10
148.381
20
-161.099
11
148.19
21
-161.194
0
LINE
8
BLACK
6
CONTINUOUS
10
148.19
20
-161.194
11
148
21
-161.194
0
LINE
8
BLACK
6
CONTINUOUS
10
148
20
-161.194
11
147.809
21
-161.099
0
LINE
8
BLACK
6
CONTINUOUS
10
147.809
20
-161.099
11
147.714
21
-161.004
0
LINE
8
BLACK
6
CONTINUOUS
10
147.714
20
-161.004
11
147.619
21
-160.813
0
LINE
8
BLACK
6
CONTINUOUS
10
147.619
20
-160.813
11
147.523
21
-160.432
0
LINE
8
BLACK
6
CONTINUOUS
10
147.523
20
-160.432
11
147.523
21
-159.956
0
LINE
8
BLACK
6
CONTINUOUS
10
147.523
20
-159.956
11
147.619
21
-159.575
0
LINE
8
BLACK
6
CONTINUOUS
10
147.619
20
-159.575
11
147.714
21
-159.385
0
LINE
8
BLACK
6
CONTINUOUS
10
147.714
20
-159.385
11
147.809
21
-159.29
0
LINE
8
BLACK
6
CONTINUOUS
10
147.809
20
-159.29
11
148
21
-159.194
0
LINE
8
BLACK
6
CONTINUOUS
10
149.904
20
-159.194
11
150.095
21
-159.194
0
LINE
8
BLACK
6
CONTINUOUS
10
150.095
20
-159.194
11
150.285
21
-159.29
0
LINE
8
BLACK
6
CONTINUOUS
10
150.285
20
-159.29
11
150.381
21
-159.385
0
LINE
8
BLACK
6
CONTINUOUS
10
150.381
20
-159.385
11
150.476
21
-159.575
0
LINE
8
BLACK
6
CONTINUOUS
10
150.476
20
-159.575
11
150.571
21
-159.956
0
LINE
8
BLACK
6
CONTINUOUS
10
150.571
20
-159.956
11
150.571
21
-160.432
0
LINE
8
BLACK
6
CONTINUOUS
10
150.571
20
-160.432
11
150.476
21
-160.813
0
LINE
8
BLACK
6
CONTINUOUS
10
150.476
20
-160.813
11
150.381
21
-161.004
0
LINE
8
BLACK
6
CONTINUOUS
10
150.381
20
-161.004
11
150.285
21
-161.099
0
LINE
8
BLACK
6
CONTINUOUS
10
150.285
20
-161.099
11
150.095
21
-161.194
0
LINE
8
BLACK
6
CONTINUOUS
10
150.095
20
-161.194
11
149.904
21
-161.194
0
LINE
8
BLACK
6
CONTINUOUS
10
149.904
20
-161.194
11
149.714
21
-161.099
0
LINE
8
BLACK
6
CONTINUOUS
10
149.714
20
-161.099
11
149.619
21
-161.004
0
LINE
8
BLACK
6
CONTINUOUS
10
149.619
20
-161.004
11
149.523
21
-160.813
0
LINE
8
BLACK
6
CONTINUOUS
10
149.523
20
-160.813
11
149.428
21
-160.432
0
LINE
8
BLACK
6
CONTINUOUS
10
149.428
20
-160.432
11
149.428
21
-159.956
0
LINE
8
BLACK
6
CONTINUOUS
10
149.428
20
-159.956
11
149.523
21
-159.575
0
LINE
8
BLACK
6
CONTINUOUS
10
149.523
20
-159.575
11
149.619
21
-159.385
0
LINE
8
BLACK
6
CONTINUOUS
10
149.619
20
-159.385
11
149.714
21
-159.29
0
LINE
8
BLACK
6
CONTINUOUS
10
149.714
20
-159.29
11
149.904
21
-159.194
0
LINE
8
BLACK
6
CONTINUOUS
10
151.428
20
-161.194
11
151.428
21
-159.861
0
LINE
8
BLACK
6
CONTINUOUS
10
151.428
20
-160.051
11
151.523
21
-159.956
0
LINE
8
BLACK
6
CONTINUOUS
10
151.523
20
-159.956
11
151.714
21
-159.861
0
LINE
8
BLACK
6
CONTINUOUS
10
151.714
20
-159.861
11
152
21
-159.861
0
LINE
8
BLACK
6
CONTINUOUS
10
152
20
-159.861
11
152.19
21
-159.956
0
LINE
8
BLACK
6
CONTINUOUS
10
152.19
20
-159.956
11
152.285
21
-160.147
0
LINE
8
BLACK
6
CONTINUOUS
10
152.285
20
-160.147
11
152.285
21
-161.194
0
LINE
8
BLACK
6
CONTINUOUS
10
152.285
20
-160.147
11
152.381
21
-159.956
0
LINE
8
BLACK
6
CONTINUOUS
10
152.381
20
-159.956
11
152.571
21
-159.861
0
LINE
8
BLACK
6
CONTINUOUS
10
152.571
20
-159.861
11
152.857
21
-159.861
0
LINE
8
BLACK
6
CONTINUOUS
10
152.857
20
-159.861
11
153.047
21
-159.956
0
LINE
8
BLACK
6
CONTINUOUS
10
153.047
20
-159.956
11
153.142
21
-160.147
0
LINE
8
BLACK
6
CONTINUOUS
10
153.142
20
-160.147
11
153.142
21
-161.194
0
LINE
8
BLACK
6
CONTINUOUS
10
154.095
20
-161.194
11
154.095
21
-159.861
0
LINE
8
BLACK
6
CONTINUOUS
10
154.095
20
-160.051
11
154.19
21
-159.956
0
LINE
8
BLACK
6
CONTINUOUS
10
154.19
20
-159.956
11
154.381
21
-159.861
0
LINE
8
BLACK
6
CONTINUOUS
10
154.381
20
-159.861
11
154.666
21
-159.861
0
LINE
8
BLACK
6
CONTINUOUS
10
154.666
20
-159.861
11
154.857
21
-159.956
0
LINE
8
BLACK
6
CONTINUOUS
10
154.857
20
-159.956
11
154.952
21
-160.147
0
LINE
8
BLACK
6
CONTINUOUS
10
154.952
20
-160.147
11
154.952
21
-161.194
0
LINE
8
BLACK
6
CONTINUOUS
10
154.952
20
-160.147
11
155.047
21
-159.956
0
LINE
8
BLACK
6
CONTINUOUS
10
155.047
20
-159.956
11
155.238
21
-159.861
0
LINE
8
BLACK
6
CONTINUOUS
10
155.238
20
-159.861
11
155.523
21
-159.861
0
LINE
8
BLACK
6
CONTINUOUS
10
155.523
20
-159.861
11
155.714
21
-159.956
0
LINE
8
BLACK
6
CONTINUOUS
10
155.714
20
-159.956
11
155.809
21
-160.147
0
LINE
8
BLACK
6
CONTINUOUS
10
155.809
20
-160.147
11
155.809
21
-161.194
0
LINE
8
BLACK
6
CONTINUOUS
10
159.714
20
-159.099
11
158
21
-161.671
0
LINE
8
BLACK
6
CONTINUOUS
10
162.285
20
-159.194
11
162.476
21
-159.194
0
LINE
8
BLACK
6
CONTINUOUS
10
162.476
20
-159.194
11
162.666
21
-159.29
0
LINE
8
BLACK
6
CONTINUOUS
10
162.666
20
-159.29
11
162.761
21
-159.385
0
LINE
8
BLACK
6
CONTINUOUS
10
162.761
20
-159.385
11
162.857
21
-159.575
0
LINE
8
BLACK
6
CONTINUOUS
10
162.857
20
-159.575
11
162.952
21
-159.956
0
LINE
8
BLACK
6
CONTINUOUS
10
162.952
20
-159.956
11
162.952
21
-160.432
0
LINE
8
BLACK
6
CONTINUOUS
10
162.952
20
-160.432
11
162.857
21
-160.813
0
LINE
8
BLACK
6
CONTINUOUS
10
162.857
20
-160.813
11
162.761
21
-161.004
0
LINE
8
BLACK
6
CONTINUOUS
10
162.761
20
-161.004
11
162.666
21
-161.099
0
LINE
8
BLACK
6
CONTINUOUS
10
162.666
20
-161.099
11
162.476
21
-161.194
0
LINE
8
BLACK
6
CONTINUOUS
10
162.476
20
-161.194
11
162.285
21
-161.194
0
LINE
8
BLACK
6
CONTINUOUS
10
162.285
20
-161.194
11
162.095
21
-161.099
0
LINE
8
BLACK
6
CONTINUOUS
10
162.095
20
-161.099
11
162
21
-161.004
0
LINE
8
BLACK
6
CONTINUOUS
10
162
20
-161.004
11
161.904
21
-160.813
0
LINE
8
BLACK
6
CONTINUOUS
10
161.904
20
-160.813
11
161.809
21
-160.432
0
LINE
8
BLACK
6
CONTINUOUS
10
161.809
20
-160.432
11
161.809
21
-159.956
0
LINE
8
BLACK
6
CONTINUOUS
10
161.809
20
-159.956
11
161.904
21
-159.575
0
LINE
8
BLACK
6
CONTINUOUS
10
161.904
20
-159.575
11
162
21
-159.385
0
LINE
8
BLACK
6
CONTINUOUS
10
162
20
-159.385
11
162.095
21
-159.29
0
LINE
8
BLACK
6
CONTINUOUS
10
162.095
20
-159.29
11
162.285
21
-159.194
0
LINE
8
BLACK
6
CONTINUOUS
10
163.809
20
-161.004
11
163.904
21
-161.099
0
LINE
8
BLACK
6
CONTINUOUS
10
163.904
20
-161.099
11
163.809
21
-161.194
0
LINE
8
BLACK
6
CONTINUOUS
10
163.809
20
-161.194
11
163.714
21
-161.099
0
LINE
8
BLACK
6
CONTINUOUS
10
163.714
20
-161.099
11
163.809
21
-161.004
0
LINE
8
BLACK
6
CONTINUOUS
10
163.809
20
-161.004
11
163.809
21
-161.194
0
LINE
8
BLACK
6
CONTINUOUS
10
165.142
20
-159.194
11
165.333
21
-159.194
0
LINE
8
BLACK
6
CONTINUOUS
10
165.333
20
-159.194
11
165.523
21
-159.29
0
LINE
8
BLACK
6
CONTINUOUS
10
165.523
20
-159.29
11
165.619
21
-159.385
0
LINE
8
BLACK
6
CONTINUOUS
10
165.619
20
-159.385
11
165.714
21
-159.575
0
LINE
8
BLACK
6
CONTINUOUS
10
165.714
20
-159.575
11
165.809
21
-159.956
0
LINE
8
BLACK
6
CONTINUOUS
10
165.809
20
-159.956
11
165.809
21
-160.432
0
LINE
8
BLACK
6
CONTINUOUS
10
165.809
20
-160.432
11
165.714
21
-160.813
0
LINE
8
BLACK
6
CONTINUOUS
10
165.714
20
-160.813
11
165.619
21
-161.004
0
LINE
8
BLACK
6
CONTINUOUS
10
165.619
20
-161.004
11
165.523
21
-161.099
0
LINE
8
BLACK
6
CONTINUOUS
10
165.523
20
-161.099
11
165.333
21
-161.194
0
LINE
8
BLACK
6
CONTINUOUS
10
165.333
20
-161.194
11
165.142
21
-161.194
0
LINE
8
BLACK
6
CONTINUOUS
10
165.142
20
-161.194
11
164.952
21
-161.099
0
LINE
8
BLACK
6
CONTINUOUS
10
164.952
20
-161.099
11
164.857
21
-161.004
0
LINE
8
BLACK
6
CONTINUOUS
10
164.857
20
-161.004
11
164.761
21
-160.813
0
LINE
8
BLACK
6
CONTINUOUS
10
164.761
20
-160.813
11
164.666
21
-160.432
0
LINE
8
BLACK
6
CONTINUOUS
10
164.666
20
-160.432
11
164.666
21
-159.956
0
LINE
8
BLACK
6
CONTINUOUS
10
164.666
20
-159.956
11
164.761
21
-159.575
0
LINE
8
BLACK
6
CONTINUOUS
10
164.761
20
-159.575
11
164.857
21
-159.385
0
LINE
8
BLACK
6
CONTINUOUS
10
164.857
20
-159.385
11
164.952
21
-159.29
0
LINE
8
BLACK
6
CONTINUOUS
10
164.952
20
-159.29
11
165.142
21
-159.194
0
LINE
8
BLACK
6
CONTINUOUS
10
167.619
20
-159.194
11
166.666
21
-159.194
0
LINE
8
BLACK
6
CONTINUOUS
10
166.666
20
-159.194
11
166.571
21
-160.147
0
LINE
8
BLACK
6
CONTINUOUS
10
166.571
20
-160.147
11
166.666
21
-160.051
0
LINE
8
BLACK
6
CONTINUOUS
10
166.666
20
-160.051
11
166.857
21
-159.956
0
LINE
8
BLACK
6
CONTINUOUS
10
166.857
20
-159.956
11
167.333
21
-159.956
0
LINE
8
BLACK
6
CONTINUOUS
10
167.333
20
-159.956
11
167.523
21
-160.051
0
LINE
8
BLACK
6
CONTINUOUS
10
167.523
20
-160.051
11
167.619
21
-160.147
0
LINE
8
BLACK
6
CONTINUOUS
10
167.619
20
-160.147
11
167.714
21
-160.337
0
LINE
8
BLACK
6
CONTINUOUS
10
167.714
20
-160.337
11
167.714
21
-160.813
0
LINE
8
BLACK
6
CONTINUOUS
10
167.714
20
-160.813
11
167.619
21
-161.004
0
LINE
8
BLACK
6
CONTINUOUS
10
167.619
20
-161.004
11
167.523
21
-161.099
0
LINE
8
BLACK
6
CONTINUOUS
10
167.523
20
-161.099
11
167.333
21
-161.194
0
LINE
8
BLACK
6
CONTINUOUS
10
167.333
20
-161.194
11
166.857
21
-161.194
0
LINE
8
BLACK
6
CONTINUOUS
10
166.857
20
-161.194
11
166.666
21
-161.099
0
LINE
8
BLACK
6
CONTINUOUS
10
166.666
20
-161.099
11
166.571
21
-161.004
0
LINE
8
BLACK
6
CONTINUOUS
10
168.666
20
-161.194
11
169.047
21
-161.194
0
LINE
8
BLACK
6
CONTINUOUS
10
169.047
20
-161.194
11
169.238
21
-161.099
0
LINE
8
BLACK
6
CONTINUOUS
10
169.238
20
-161.099
11
169.333
21
-161.004
0
LINE
8
BLACK
6
CONTINUOUS
10
169.333
20
-161.004
11
169.523
21
-160.718
0
LINE
8
BLACK
6
CONTINUOUS
10
169.523
20
-160.718
11
169.619
21
-160.337
0
LINE
8
BLACK
6
CONTINUOUS
10
169.619
20
-160.337
11
169.619
21
-159.575
0
LINE
8
BLACK
6
CONTINUOUS
10
169.619
20
-159.575
11
169.523
21
-159.385
0
LINE
8
BLACK
6
CONTINUOUS
10
169.523
20
-159.385
11
169.428
21
-159.29
0
LINE
8
BLACK
6
CONTINUOUS
10
169.428
20
-159.29
11
169.238
21
-159.194
0
LINE
8
BLACK
6
CONTINUOUS
10
169.238
20
-159.194
11
168.857
21
-159.194
0
LINE
8
BLACK
6
CONTINUOUS
10
168.857
20
-159.194
11
168.666
21
-159.29
0
LINE
8
BLACK
6
CONTINUOUS
10
168.666
20
-159.29
11
168.571
21
-159.385
0
LINE
8
BLACK
6
CONTINUOUS
10
168.571
20
-159.385
11
168.476
21
-159.575
0
LINE
8
BLACK
6
CONTINUOUS
10
168.476
20
-159.575
11
168.476
21
-160.051
0
LINE
8
BLACK
6
CONTINUOUS
10
168.476
20
-160.051
11
168.571
21
-160.242
0
LINE
8
BLACK
6
CONTINUOUS
10
168.571
20
-160.242
11
168.666
21
-160.337
0
LINE
8
BLACK
6
CONTINUOUS
10
168.666
20
-160.337
11
168.857
21
-160.432
0
LINE
8
BLACK
6
CONTINUOUS
10
168.857
20
-160.432
11
169.238
21
-160.432
0
LINE
8
BLACK
6
CONTINUOUS
10
169.238
20
-160.432
11
169.428
21
-160.337
0
LINE
8
BLACK
6
CONTINUOUS
10
169.428
20
-160.337
11
169.523
21
-160.242
0
LINE
8
BLACK
6
CONTINUOUS
10
169.523
20
-160.242
11
169.619
21
-160.051
0
LINE
8
BLACK
6
CONTINUOUS
10
171.523
20
-161.194
11
170.381
21
-161.194
0
LINE
8
BLACK
6
CONTINUOUS
10
170.952
20
-161.194
11
170.952
21
-159.194
0
LINE
8
BLACK
6
CONTINUOUS
10
170.952
20
-159.194
11
170.761
21
-159.48
0
LINE
8
BLACK
6
CONTINUOUS
10
170.761
20
-159.48
11
170.571
21
-159.671
0
LINE
8
BLACK
6
CONTINUOUS
10
170.571
20
-159.671
11
170.381
21
-159.766
0
LINE
8
BLACK
6
CONTINUOUS
10
172.285
20
-159.194
11
172.285
21
-159.575
0
LINE
8
BLACK
6
CONTINUOUS
10
173.047
20
-159.194
11
173.047
21
-159.575
0
LINE
8
BLACK
6
CONTINUOUS
10
176
20
-161.956
11
175.904
21
-161.861
0
LINE
8
BLACK
6
CONTINUOUS
10
175.904
20
-161.861
11
175.714
21
-161.575
0
LINE
8
BLACK
6
CONTINUOUS
10
175.714
20
-161.575
11
175.619
21
-161.385
0
LINE
8
BLACK
6
CONTINUOUS
10
175.619
20
-161.385
11
175.523
21
-161.099
0
LINE
8
BLACK
6
CONTINUOUS
10
175.523
20
-161.099
11
175.428
21
-160.623
0
LINE
8
BLACK
6
CONTINUOUS
10
175.428
20
-160.623
11
175.428
21
-160.242
0
LINE
8
BLACK
6
CONTINUOUS
10
175.428
20
-160.242
11
175.523
21
-159.766
0
LINE
8
BLACK
6
CONTINUOUS
10
175.523
20
-159.766
11
175.619
21
-159.48
0
LINE
8
BLACK
6
CONTINUOUS
10
175.619
20
-159.48
11
175.714
21
-159.29
0
LINE
8
BLACK
6
CONTINUOUS
10
175.714
20
-159.29
11
175.904
21
-159.004
0
LINE
8
BLACK
6
CONTINUOUS
10
175.904
20
-159.004
11
176
21
-158.909
0
LINE
8
BLACK
6
CONTINUOUS
10
177.142
20
-159.194
11
177.333
21
-159.194
0
LINE
8
BLACK
6
CONTINUOUS
10
177.333
20
-159.194
11
177.523
21
-159.29
0
LINE
8
BLACK
6
CONTINUOUS
10
177.523
20
-159.29
11
177.619
21
-159.385
0
LINE
8
BLACK
6
CONTINUOUS
10
177.619
20
-159.385
11
177.714
21
-159.575
0
LINE
8
BLACK
6
CONTINUOUS
10
177.714
20
-159.575
11
177.809
21
-159.956
0
LINE
8
BLACK
6
CONTINUOUS
10
177.809
20
-159.956
11
177.809
21
-160.432
0
LINE
8
BLACK
6
CONTINUOUS
10
177.809
20
-160.432
11
177.714
21
-160.813
0
LINE
8
BLACK
6
CONTINUOUS
10
177.714
20
-160.813
11
177.619
21
-161.004
0
LINE
8
BLACK
6
CONTINUOUS
10
177.619
20
-161.004
11
177.523
21
-161.099
0
LINE
8
BLACK
6
CONTINUOUS
10
177.523
20
-161.099
11
177.333
21
-161.194
0
LINE
8
BLACK
6
CONTINUOUS
10
177.333
20
-161.194
11
177.142
21
-161.194
0
LINE
8
BLACK
6
CONTINUOUS
10
177.142
20
-161.194
11
176.952
21
-161.099
0
LINE
8
BLACK
6
CONTINUOUS
10
176.952
20
-161.099
11
176.857
21
-161.004
0
LINE
8
BLACK
6
CONTINUOUS
10
176.857
20
-161.004
11
176.761
21
-160.813
0
LINE
8
BLACK
6
CONTINUOUS
10
176.761
20
-160.813
11
176.666
21
-160.432
0
LINE
8
BLACK
6
CONTINUOUS
10
176.666
20
-160.432
11
176.666
21
-159.956
0
LINE
8
BLACK
6
CONTINUOUS
10
176.666
20
-159.956
11
176.761
21
-159.575
0
LINE
8
BLACK
6
CONTINUOUS
10
176.761
20
-159.575
11
176.857
21
-159.385
0
LINE
8
BLACK
6
CONTINUOUS
10
176.857
20
-159.385
11
176.952
21
-159.29
0
LINE
8
BLACK
6
CONTINUOUS
10
176.952
20
-159.29
11
177.142
21
-159.194
0
LINE
8
BLACK
6
CONTINUOUS
10
180.19
20
-161.194
11
180.19
21
-159.194
0
LINE
8
BLACK
6
CONTINUOUS
10
181.047
20
-161.194
11
181.047
21
-160.147
0
LINE
8
BLACK
6
CONTINUOUS
10
181.047
20
-160.147
11
180.952
21
-159.956
0
LINE
8
BLACK
6
CONTINUOUS
10
180.952
20
-159.956
11
180.761
21
-159.861
0
LINE
8
BLACK
6
CONTINUOUS
10
180.761
20
-159.861
11
180.476
21
-159.861
0
LINE
8
BLACK
6
CONTINUOUS
10
180.476
20
-159.861
11
180.285
21
-159.956
0
LINE
8
BLACK
6
CONTINUOUS
10
180.285
20
-159.956
11
180.19
21
-160.051
0
LINE
8
BLACK
6
CONTINUOUS
10
182.285
20
-161.194
11
182.095
21
-161.099
0
LINE
8
BLACK
6
CONTINUOUS
10
182.095
20
-161.099
11
182
21
-161.004
0
LINE
8
BLACK
6
CONTINUOUS
10
182
20
-161.004
11
181.904
21
-160.813
0
LINE
8
BLACK
6
CONTINUOUS
10
181.904
20
-160.813
11
181.904
21
-160.242
0
LINE
8
BLACK
6
CONTINUOUS
10
181.904
20
-160.242
11
182
21
-160.051
0
LINE
8
BLACK
6
CONTINUOUS
10
182
20
-160.051
11
182.095
21
-159.956
0
LINE
8
BLACK
6
CONTINUOUS
10
182.095
20
-159.956
11
182.285
21
-159.861
0
LINE
8
BLACK
6
CONTINUOUS
10
182.285
20
-159.861
11
182.571
21
-159.861
0
LINE
8
BLACK
6
CONTINUOUS
10
182.571
20
-159.861
11
182.761
21
-159.956
0
LINE
8
BLACK
6
CONTINUOUS
10
182.761
20
-159.956
11
182.857
21
-160.051
0
LINE
8
BLACK
6
CONTINUOUS
10
182.857
20
-160.051
11
182.952
21
-160.242
0
LINE
8
BLACK
6
CONTINUOUS
10
182.952
20
-160.242
11
182.952
21
-160.813
0
LINE
8
BLACK
6
CONTINUOUS
10
182.952
20
-160.813
11
182.857
21
-161.004
0
LINE
8
BLACK
6
CONTINUOUS
10
182.857
20
-161.004
11
182.761
21
-161.099
0
LINE
8
BLACK
6
CONTINUOUS
10
182.761
20
-161.099
11
182.571
21
-161.194
0
LINE
8
BLACK
6
CONTINUOUS
10
182.571
20
-161.194
11
182.285
21
-161.194
0
LINE
8
BLACK
6
CONTINUOUS
10
184.095
20
-161.194
11
183.904
21
-161.099
0
LINE
8
BLACK
6
CONTINUOUS
10
183.904
20
-161.099
11
183.809
21
-160.909
0
LINE
8
BLACK
6
CONTINUOUS
10
183.809
20
-160.909
11
183.809
21
-159.194
0
LINE
8
BLACK
6
CONTINUOUS
10
185.619
20
-161.099
11
185.428
21
-161.194
0
LINE
8
BLACK
6
CONTINUOUS
10
185.428
20
-161.194
11
185.047
21
-161.194
0
LINE
8
BLACK
6
CONTINUOUS
10
185.047
20
-161.194
11
184.857
21
-161.099
0
LINE
8
BLACK
6
CONTINUOUS
10
184.857
20
-161.099
11
184.761
21
-160.909
0
LINE
8
BLACK
6
CONTINUOUS
10
184.761
20
-160.909
11
184.761
21
-160.147
0
LINE
8
BLACK
6
CONTINUOUS
10
184.761
20
-160.147
11
184.857
21
-159.956
0
LINE
8
BLACK
6
CONTINUOUS
10
184.857
20
-159.956
11
185.047
21
-159.861
0
LINE
8
BLACK
6
CONTINUOUS
10
185.047
20
-159.861
11
185.428
21
-159.861
0
LINE
8
BLACK
6
CONTINUOUS
10
185.428
20
-159.861
11
185.619
21
-159.956
0
LINE
8
BLACK
6
CONTINUOUS
10
185.619
20
-159.956
11
185.714
21
-160.147
0
LINE
8
BLACK
6
CONTINUOUS
10
185.714
20
-160.147
11
185.714
21
-160.337
0
LINE
8
BLACK
6
CONTINUOUS
10
185.714
20
-160.337
11
184.761
21
-160.528
0
LINE
8
BLACK
6
CONTINUOUS
10
186.476
20
-161.099
11
186.666
21
-161.194
0
LINE
8
BLACK
6
CONTINUOUS
10
186.666
20
-161.194
11
187.047
21
-161.194
0
LINE
8
BLACK
6
CONTINUOUS
10
187.047
20
-161.194
11
187.238
21
-161.099
0
LINE
8
BLACK
6
CONTINUOUS
10
187.238
20
-161.099
11
187.333
21
-160.909
0
LINE
8
BLACK
6
CONTINUOUS
10
187.333
20
-160.909
11
187.333
21
-160.813
0
LINE
8
BLACK
6
CONTINUOUS
10
187.333
20
-160.813
11
187.238
21
-160.623
0
LINE
8
BLACK
6
CONTINUOUS
10
187.238
20
-160.623
11
187.047
21
-160.528
0
LINE
8
BLACK
6
CONTINUOUS
10
187.047
20
-160.528
11
186.761
21
-160.528
0
LINE
8
BLACK
6
CONTINUOUS
10
186.761
20
-160.528
11
186.571
21
-160.432
0
LINE
8
BLACK
6
CONTINUOUS
10
186.571
20
-160.432
11
186.476
21
-160.242
0
LINE
8
BLACK
6
CONTINUOUS
10
186.476
20
-160.242
11
186.476
21
-160.147
0
LINE
8
BLACK
6
CONTINUOUS
10
186.476
20
-160.147
11
186.571
21
-159.956
0
LINE
8
BLACK
6
CONTINUOUS
10
186.571
20
-159.956
11
186.761
21
-159.861
0
LINE
8
BLACK
6
CONTINUOUS
10
186.761
20
-159.861
11
187.047
21
-159.861
0
LINE
8
BLACK
6
CONTINUOUS
10
187.047
20
-159.861
11
187.238
21
-159.956
0
LINE
8
BLACK
6
CONTINUOUS
10
189.714
20
-160.432
11
191.238
21
-160.432
0
LINE
8
BLACK
6
CONTINUOUS
10
190.476
20
-161.194
11
190.476
21
-159.671
0
LINE
8
BLACK
6
CONTINUOUS
10
193.619
20
-159.385
11
193.714
21
-159.29
0
LINE
8
BLACK
6
CONTINUOUS
10
193.714
20
-159.29
11
193.904
21
-159.194
0
LINE
8
BLACK
6
CONTINUOUS
10
193.904
20
-159.194
11
194.381
21
-159.194
0
LINE
8
BLACK
6
CONTINUOUS
10
194.381
20
-159.194
11
194.571
21
-159.29
0
LINE
8
BLACK
6
CONTINUOUS
10
194.571
20
-159.29
11
194.666
21
-159.385
0
LINE
8
BLACK
6
CONTINUOUS
10
194.666
20
-159.385
11
194.761
21
-159.575
0
LINE
8
BLACK
6
CONTINUOUS
10
194.761
20
-159.575
11
194.761
21
-159.766
0
LINE
8
BLACK
6
CONTINUOUS
10
194.761
20
-159.766
11
194.666
21
-160.051
0
LINE
8
BLACK
6
CONTINUOUS
10
194.666
20
-160.051
11
193.523
21
-161.194
0
LINE
8
BLACK
6
CONTINUOUS
10
193.523
20
-161.194
11
194.761
21
-161.194
0
LINE
8
BLACK
6
CONTINUOUS
10
197.047
20
-161.099
11
197.238
21
-161.194
0
LINE
8
BLACK
6
CONTINUOUS
10
197.238
20
-161.194
11
197.619
21
-161.194
0
LINE
8
BLACK
6
CONTINUOUS
10
197.619
20
-161.194
11
197.809
21
-161.099
0
LINE
8
BLACK
6
CONTINUOUS
10
197.809
20
-161.099
11
197.904
21
-160.909
0
LINE
8
BLACK
6
CONTINUOUS
10
197.904
20
-160.909
11
197.904
21
-160.813
0
LINE
8
BLACK
6
CONTINUOUS
10
197.904
20
-160.813
11
197.809
21
-160.623
0
LINE
8
BLACK
6
CONTINUOUS
10
197.809
20
-160.623
11
197.619
21
-160.528
0
LINE
8
BLACK
6
CONTINUOUS
10
197.619
20
-160.528
11
197.333
21
-160.528
0
LINE
8
BLACK
6
CONTINUOUS
10
197.333
20
-160.528
11
197.142
21
-160.432
0
LINE
8
BLACK
6
CONTINUOUS
10
197.142
20
-160.432
11
197.047
21
-160.242
0
LINE
8
BLACK
6
CONTINUOUS
10
197.047
20
-160.242
11
197.047
21
-160.147
0
LINE
8
BLACK
6
CONTINUOUS
10
197.047
20
-160.147
11
197.142
21
-159.956
0
LINE
8
BLACK
6
CONTINUOUS
10
197.142
20
-159.956
11
197.333
21
-159.861
0
LINE
8
BLACK
6
CONTINUOUS
10
197.333
20
-159.861
11
197.619
21
-159.861
0
LINE
8
BLACK
6
CONTINUOUS
10
197.619
20
-159.861
11
197.809
21
-159.956
0
LINE
8
BLACK
6
CONTINUOUS
10
199.047
20
-161.194
11
198.857
21
-161.099
0
LINE
8
BLACK
6
CONTINUOUS
10
198.857
20
-161.099
11
198.761
21
-160.909
0
LINE
8
BLACK
6
CONTINUOUS
10
198.761
20
-160.909
11
198.761
21
-159.194
0
LINE
8
BLACK
6
CONTINUOUS
10
200.095
20
-161.194
11
199.904
21
-161.099
0
LINE
8
BLACK
6
CONTINUOUS
10
199.904
20
-161.099
11
199.809
21
-161.004
0
LINE
8
BLACK
6
CONTINUOUS
10
199.809
20
-161.004
11
199.714
21
-160.813
0
LINE
8
BLACK
6
CONTINUOUS
10
199.714
20
-160.813
11
199.714
21
-160.242
0
LINE
8
BLACK
6
CONTINUOUS
10
199.714
20
-160.242
11
199.809
21
-160.051
0
LINE
8
BLACK
6
CONTINUOUS
10
199.809
20
-160.051
11
199.904
21
-159.956
0
LINE
8
BLACK
6
CONTINUOUS
10
199.904
20
-159.956
11
200.095
21
-159.861
0
LINE
8
BLACK
6
CONTINUOUS
10
200.095
20
-159.861
11
200.381
21
-159.861
0
LINE
8
BLACK
6
CONTINUOUS
10
200.381
20
-159.861
11
200.571
21
-159.956
0
LINE
8
BLACK
6
CONTINUOUS
10
200.571
20
-159.956
11
200.666
21
-160.051
0
LINE
8
BLACK
6
CONTINUOUS
10
200.666
20
-160.051
11
200.761
21
-160.242
0
LINE
8
BLACK
6
CONTINUOUS
10
200.761
20
-160.242
11
200.761
21
-160.813
0
LINE
8
BLACK
6
CONTINUOUS
10
200.761
20
-160.813
11
200.666
21
-161.004
0
LINE
8
BLACK
6
CONTINUOUS
10
200.666
20
-161.004
11
200.571
21
-161.099
0
LINE
8
BLACK
6
CONTINUOUS
10
200.571
20
-161.099
11
200.381
21
-161.194
0
LINE
8
BLACK
6
CONTINUOUS
10
200.381
20
-161.194
11
200.095
21
-161.194
0
LINE
8
BLACK
6
CONTINUOUS
10
201.333
20
-159.861
11
202.095
21
-159.861
0
LINE
8
BLACK
6
CONTINUOUS
10
201.619
20
-159.194
11
201.619
21
-160.909
0
LINE
8
BLACK
6
CONTINUOUS
10
201.619
20
-160.909
11
201.714
21
-161.099
0
LINE
8
BLACK
6
CONTINUOUS
10
201.714
20
-161.099
11
201.904
21
-161.194
0
LINE
8
BLACK
6
CONTINUOUS
10
201.904
20
-161.194
11
202.095
21
-161.194
0
LINE
8
BLACK
6
CONTINUOUS
10
202.666
20
-161.099
11
202.857
21
-161.194
0
LINE
8
BLACK
6
CONTINUOUS
10
202.857
20
-161.194
11
203.238
21
-161.194
0
LINE
8
BLACK
6
CONTINUOUS
10
203.238
20
-161.194
11
203.428
21
-161.099
0
LINE
8
BLACK
6
CONTINUOUS
10
203.428
20
-161.099
11
203.523
21
-160.909
0
LINE
8
BLACK
6
CONTINUOUS
10
203.523
20
-160.909
11
203.523
21
-160.813
0
LINE
8
BLACK
6
CONTINUOUS
10
203.523
20
-160.813
11
203.428
21
-160.623
0
LINE
8
BLACK
6
CONTINUOUS
10
203.428
20
-160.623
11
203.238
21
-160.528
0
LINE
8
BLACK
6
CONTINUOUS
10
203.238
20
-160.528
11
202.952
21
-160.528
0
LINE
8
BLACK
6
CONTINUOUS
10
202.952
20
-160.528
11
202.761
21
-160.432
0
LINE
8
BLACK
6
CONTINUOUS
10
202.761
20
-160.432
11
202.666
21
-160.242
0
LINE
8
BLACK
6
CONTINUOUS
10
202.666
20
-160.242
11
202.666
21
-160.147
0
LINE
8
BLACK
6
CONTINUOUS
10
202.666
20
-160.147
11
202.761
21
-159.956
0
LINE
8
BLACK
6
CONTINUOUS
10
202.761
20
-159.956
11
202.952
21
-159.861
0
LINE
8
BLACK
6
CONTINUOUS
10
202.952
20
-159.861
11
203.238
21
-159.861
0
LINE
8
BLACK
6
CONTINUOUS
10
203.238
20
-159.861
11
203.428
21
-159.956
0
LINE
8
BLACK
6
CONTINUOUS
10
204.19
20
-161.956
11
204.285
21
-161.861
0
LINE
8
BLACK
6
CONTINUOUS
10
204.285
20
-161.861
11
204.476
21
-161.575
0
LINE
8
BLACK
6
CONTINUOUS
10
204.476
20
-161.575
11
204.571
21
-161.385
0
LINE
8
BLACK
6
CONTINUOUS
10
204.571
20
-161.385
11
204.666
21
-161.099
0
LINE
8
BLACK
6
CONTINUOUS
10
204.666
20
-161.099
11
204.761
21
-160.623
0
LINE
8
BLACK
6
CONTINUOUS
10
204.761
20
-160.623
11
204.761
21
-160.242
0
LINE
8
BLACK
6
CONTINUOUS
10
204.761
20
-160.242
11
204.666
21
-159.766
0
LINE
8
BLACK
6
CONTINUOUS
10
204.666
20
-159.766
11
204.571
21
-159.48
0
LINE
8
BLACK
6
CONTINUOUS
10
204.571
20
-159.48
11
204.476
21
-159.29
0
LINE
8
BLACK
6
CONTINUOUS
10
204.476
20
-159.29
11
204.285
21
-159.004
0
LINE
8
BLACK
6
CONTINUOUS
10
204.285
20
-159.004
11
204.19
21
-158.909
  0
ENDSEC
  0
EOF
