%TF.GenerationSoftware,KiCad,Pcbnew,(6.0.11-0)*%
%TF.CreationDate,2023-11-06T07:34:33+10:00*%
%TF.ProjectId,Potentiometer Mount Type 2,506f7465-6e74-4696-9f6d-65746572204d,rev?*%
%TF.SameCoordinates,Original*%
%TF.FileFunction,Legend,Top*%
%TF.FilePolarity,Positive*%
%FSLAX46Y46*%
G04 Gerber Fmt 4.6, Leading zero omitted, Abs format (unit mm)*
G04 Created by KiCad (PCBNEW (6.0.11-0)) date 2023-11-06 07:34:33*
%MOMM*%
%LPD*%
G01*
G04 APERTURE LIST*
%ADD10C,0.150000*%
%ADD11C,0.120000*%
G04 APERTURE END LIST*
D10*
X148296380Y-74548761D02*
X149296380Y-74215428D01*
X148296380Y-73882095D01*
X149296380Y-72263047D02*
X149296380Y-72834476D01*
X149296380Y-72548761D02*
X148296380Y-72548761D01*
X148439238Y-72644000D01*
X148534476Y-72739238D01*
X148582095Y-72834476D01*
X149201142Y-71834476D02*
X149248761Y-71786857D01*
X149296380Y-71834476D01*
X149248761Y-71882095D01*
X149201142Y-71834476D01*
X149296380Y-71834476D01*
X148296380Y-71167809D02*
X148296380Y-71072571D01*
X148344000Y-70977333D01*
X148391619Y-70929714D01*
X148486857Y-70882095D01*
X148677333Y-70834476D01*
X148915428Y-70834476D01*
X149105904Y-70882095D01*
X149201142Y-70929714D01*
X149248761Y-70977333D01*
X149296380Y-71072571D01*
X149296380Y-71167809D01*
X149248761Y-71263047D01*
X149201142Y-71310666D01*
X149105904Y-71358285D01*
X148915428Y-71405904D01*
X148677333Y-71405904D01*
X148486857Y-71358285D01*
X148391619Y-71310666D01*
X148344000Y-71263047D01*
X148296380Y-71167809D01*
X161996380Y-70381714D02*
X161520190Y-70715047D01*
X161996380Y-70953142D02*
X160996380Y-70953142D01*
X160996380Y-70572190D01*
X161044000Y-70476952D01*
X161091619Y-70429333D01*
X161186857Y-70381714D01*
X161329714Y-70381714D01*
X161424952Y-70429333D01*
X161472571Y-70476952D01*
X161520190Y-70572190D01*
X161520190Y-70953142D01*
X160996380Y-69762666D02*
X160996380Y-69572190D01*
X161044000Y-69476952D01*
X161139238Y-69381714D01*
X161329714Y-69334095D01*
X161663047Y-69334095D01*
X161853523Y-69381714D01*
X161948761Y-69476952D01*
X161996380Y-69572190D01*
X161996380Y-69762666D01*
X161948761Y-69857904D01*
X161853523Y-69953142D01*
X161663047Y-70000761D01*
X161329714Y-70000761D01*
X161139238Y-69953142D01*
X161044000Y-69857904D01*
X160996380Y-69762666D01*
X160996380Y-69000761D02*
X161996380Y-68762666D01*
X161282095Y-68572190D01*
X161996380Y-68381714D01*
X160996380Y-68143619D01*
X153424000Y-70357904D02*
X153376380Y-70453142D01*
X153376380Y-70596000D01*
X153424000Y-70738857D01*
X153519238Y-70834095D01*
X153614476Y-70881714D01*
X153804952Y-70929333D01*
X153947809Y-70929333D01*
X154138285Y-70881714D01*
X154233523Y-70834095D01*
X154328761Y-70738857D01*
X154376380Y-70596000D01*
X154376380Y-70500761D01*
X154328761Y-70357904D01*
X154281142Y-70310285D01*
X153947809Y-70310285D01*
X153947809Y-70500761D01*
X154376380Y-69881714D02*
X153376380Y-69881714D01*
X154376380Y-69310285D01*
X153376380Y-69310285D01*
X154376380Y-68834095D02*
X153376380Y-68834095D01*
X153376380Y-68596000D01*
X153424000Y-68453142D01*
X153519238Y-68357904D01*
X153614476Y-68310285D01*
X153804952Y-68262666D01*
X153947809Y-68262666D01*
X154138285Y-68310285D01*
X154233523Y-68357904D01*
X154328761Y-68453142D01*
X154376380Y-68596000D01*
X154376380Y-68834095D01*
X151455428Y-70881714D02*
X151455428Y-70119809D01*
X151836380Y-70500761D02*
X151074476Y-70500761D01*
X150836380Y-69167428D02*
X150836380Y-69643619D01*
X151312571Y-69691238D01*
X151264952Y-69643619D01*
X151217333Y-69548380D01*
X151217333Y-69310285D01*
X151264952Y-69215047D01*
X151312571Y-69167428D01*
X151407809Y-69119809D01*
X151645904Y-69119809D01*
X151741142Y-69167428D01*
X151788761Y-69215047D01*
X151836380Y-69310285D01*
X151836380Y-69548380D01*
X151788761Y-69643619D01*
X151741142Y-69691238D01*
X150836380Y-68834095D02*
X151836380Y-68500761D01*
X150836380Y-68167428D01*
X140351047Y-72810666D02*
X140827238Y-72810666D01*
X140255809Y-73096380D02*
X140589142Y-72096380D01*
X140922476Y-73096380D01*
X142017714Y-73096380D02*
X142017714Y-72096380D01*
X142493904Y-73096380D02*
X142493904Y-72096380D01*
X143065333Y-73096380D01*
X143065333Y-72096380D01*
X140970095Y-74684000D02*
X140874857Y-74636380D01*
X140732000Y-74636380D01*
X140589142Y-74684000D01*
X140493904Y-74779238D01*
X140446285Y-74874476D01*
X140398666Y-75064952D01*
X140398666Y-75207809D01*
X140446285Y-75398285D01*
X140493904Y-75493523D01*
X140589142Y-75588761D01*
X140732000Y-75636380D01*
X140827238Y-75636380D01*
X140970095Y-75588761D01*
X141017714Y-75541142D01*
X141017714Y-75207809D01*
X140827238Y-75207809D01*
X141446285Y-75636380D02*
X141446285Y-74636380D01*
X142017714Y-75636380D01*
X142017714Y-74636380D01*
X142493904Y-75636380D02*
X142493904Y-74636380D01*
X142732000Y-74636380D01*
X142874857Y-74684000D01*
X142970095Y-74779238D01*
X143017714Y-74874476D01*
X143065333Y-75064952D01*
X143065333Y-75207809D01*
X143017714Y-75398285D01*
X142970095Y-75493523D01*
X142874857Y-75588761D01*
X142732000Y-75636380D01*
X142493904Y-75636380D01*
X139938285Y-70175428D02*
X140700190Y-70175428D01*
X140319238Y-70556380D02*
X140319238Y-69794476D01*
X141652571Y-69556380D02*
X141176380Y-69556380D01*
X141128761Y-70032571D01*
X141176380Y-69984952D01*
X141271619Y-69937333D01*
X141509714Y-69937333D01*
X141604952Y-69984952D01*
X141652571Y-70032571D01*
X141700190Y-70127809D01*
X141700190Y-70365904D01*
X141652571Y-70461142D01*
X141604952Y-70508761D01*
X141509714Y-70556380D01*
X141271619Y-70556380D01*
X141176380Y-70508761D01*
X141128761Y-70461142D01*
X141985904Y-69556380D02*
X142319238Y-70556380D01*
X142652571Y-69556380D01*
X146153285Y-75636380D02*
X145819952Y-75160190D01*
X145581857Y-75636380D02*
X145581857Y-74636380D01*
X145962809Y-74636380D01*
X146058047Y-74684000D01*
X146105666Y-74731619D01*
X146153285Y-74826857D01*
X146153285Y-74969714D01*
X146105666Y-75064952D01*
X146058047Y-75112571D01*
X145962809Y-75160190D01*
X145581857Y-75160190D01*
X146772333Y-74636380D02*
X146962809Y-74636380D01*
X147058047Y-74684000D01*
X147153285Y-74779238D01*
X147200904Y-74969714D01*
X147200904Y-75303047D01*
X147153285Y-75493523D01*
X147058047Y-75588761D01*
X146962809Y-75636380D01*
X146772333Y-75636380D01*
X146677095Y-75588761D01*
X146581857Y-75493523D01*
X146534238Y-75303047D01*
X146534238Y-74969714D01*
X146581857Y-74779238D01*
X146677095Y-74684000D01*
X146772333Y-74636380D01*
X147534238Y-74636380D02*
X147772333Y-75636380D01*
X147962809Y-74922095D01*
X148153285Y-75636380D01*
X148391380Y-74636380D01*
X156630666Y-70976952D02*
X156630666Y-70500761D01*
X156916380Y-71072190D02*
X155916380Y-70738857D01*
X156916380Y-70405523D01*
X156916380Y-69310285D02*
X155916380Y-69310285D01*
X156916380Y-68834095D02*
X155916380Y-68834095D01*
X156916380Y-68262666D01*
X155916380Y-68262666D01*
X159361142Y-70215047D02*
X159408761Y-70262666D01*
X159456380Y-70405523D01*
X159456380Y-70500761D01*
X159408761Y-70643619D01*
X159313523Y-70738857D01*
X159218285Y-70786476D01*
X159027809Y-70834095D01*
X158884952Y-70834095D01*
X158694476Y-70786476D01*
X158599238Y-70738857D01*
X158504000Y-70643619D01*
X158456380Y-70500761D01*
X158456380Y-70405523D01*
X158504000Y-70262666D01*
X158551619Y-70215047D01*
X158456380Y-69596000D02*
X158456380Y-69405523D01*
X158504000Y-69310285D01*
X158599238Y-69215047D01*
X158789714Y-69167428D01*
X159123047Y-69167428D01*
X159313523Y-69215047D01*
X159408761Y-69310285D01*
X159456380Y-69405523D01*
X159456380Y-69596000D01*
X159408761Y-69691238D01*
X159313523Y-69786476D01*
X159123047Y-69834095D01*
X158789714Y-69834095D01*
X158599238Y-69786476D01*
X158504000Y-69691238D01*
X158456380Y-69596000D01*
X159456380Y-68262666D02*
X159456380Y-68738857D01*
X158456380Y-68738857D01*
X146446952Y-70461142D02*
X146399333Y-70508761D01*
X146256476Y-70556380D01*
X146161238Y-70556380D01*
X146018380Y-70508761D01*
X145923142Y-70413523D01*
X145875523Y-70318285D01*
X145827904Y-70127809D01*
X145827904Y-69984952D01*
X145875523Y-69794476D01*
X145923142Y-69699238D01*
X146018380Y-69604000D01*
X146161238Y-69556380D01*
X146256476Y-69556380D01*
X146399333Y-69604000D01*
X146446952Y-69651619D01*
X147066000Y-69556380D02*
X147256476Y-69556380D01*
X147351714Y-69604000D01*
X147446952Y-69699238D01*
X147494571Y-69889714D01*
X147494571Y-70223047D01*
X147446952Y-70413523D01*
X147351714Y-70508761D01*
X147256476Y-70556380D01*
X147066000Y-70556380D01*
X146970761Y-70508761D01*
X146875523Y-70413523D01*
X146827904Y-70223047D01*
X146827904Y-69889714D01*
X146875523Y-69699238D01*
X146970761Y-69604000D01*
X147066000Y-69556380D01*
X148399333Y-70556380D02*
X147923142Y-70556380D01*
X147923142Y-69556380D01*
D11*
%TO.C,SW1*%
X145094000Y-71389000D02*
X145094000Y-76529000D01*
X142434000Y-70119000D02*
X142434000Y-68789000D01*
X142434000Y-68789000D02*
X143764000Y-68789000D01*
X142434000Y-76529000D02*
X145094000Y-76529000D01*
X142434000Y-71389000D02*
X145094000Y-71389000D01*
X142434000Y-71389000D02*
X142434000Y-76529000D01*
%TO.C,J1*%
X153124000Y-71357000D02*
X154724000Y-71357000D01*
X161294000Y-75247000D02*
X161544000Y-75777000D01*
X162924000Y-70757000D02*
X150004000Y-70757000D01*
X155664000Y-71357000D02*
X157264000Y-71357000D01*
X154724000Y-71357000D02*
X154724000Y-70757000D01*
X162344000Y-71357000D02*
X162344000Y-70757000D01*
X162924000Y-76777000D02*
X162924000Y-70757000D01*
X160744000Y-71357000D02*
X162344000Y-71357000D01*
X150004000Y-70757000D02*
X150004000Y-76777000D01*
X158204000Y-70757000D02*
X158204000Y-71357000D01*
X159804000Y-71357000D02*
X159804000Y-70757000D01*
X150584000Y-70757000D02*
X150584000Y-71357000D01*
X152184000Y-71357000D02*
X152184000Y-70757000D01*
X161544000Y-75777000D02*
X161544000Y-76777000D01*
X151384000Y-76777000D02*
X151384000Y-75777000D01*
X151634000Y-75247000D02*
X161294000Y-75247000D01*
X151634000Y-76777000D02*
X151634000Y-75777000D01*
X158204000Y-71357000D02*
X159804000Y-71357000D01*
X150584000Y-71357000D02*
X152184000Y-71357000D01*
X149714000Y-71787000D02*
X149714000Y-75787000D01*
X161294000Y-76777000D02*
X161294000Y-75777000D01*
X153124000Y-70757000D02*
X153124000Y-71357000D01*
X160744000Y-70757000D02*
X160744000Y-71357000D01*
X155664000Y-70757000D02*
X155664000Y-71357000D01*
X150004000Y-76777000D02*
X162924000Y-76777000D01*
X151384000Y-75777000D02*
X161544000Y-75777000D01*
X157264000Y-71357000D02*
X157264000Y-70757000D01*
X151384000Y-75777000D02*
X151634000Y-75247000D01*
%TO.C,RV1*%
X137394000Y-71389000D02*
X140054000Y-71389000D01*
X140054000Y-71389000D02*
X140054000Y-76529000D01*
X137394000Y-76529000D02*
X140054000Y-76529000D01*
X137394000Y-70119000D02*
X137394000Y-68789000D01*
X137394000Y-68789000D02*
X138724000Y-68789000D01*
X137394000Y-71389000D02*
X137394000Y-76529000D01*
%TD*%
M02*
