G04 #@! TF.GenerationSoftware,KiCad,Pcbnew,(5.1.5-0-10_14)*
G04 #@! TF.CreationDate,2021-04-18T14:18:57+10:00*
G04 #@! TF.ProjectId,OH - Right Console - 1 - Electrical Power,4f48202d-2052-4696-9768-7420436f6e73,rev?*
G04 #@! TF.SameCoordinates,Original*
G04 #@! TF.FileFunction,Copper,L1,Top*
G04 #@! TF.FilePolarity,Positive*
%FSLAX46Y46*%
G04 Gerber Fmt 4.6, Leading zero omitted, Abs format (unit mm)*
G04 Created by KiCad (PCBNEW (5.1.5-0-10_14)) date 2021-04-18 14:18:57*
%MOMM*%
%LPD*%
G04 APERTURE LIST*
%ADD10O,1.740000X2.200000*%
%ADD11C,0.100000*%
%ADD12O,1.600000X1.600000*%
%ADD13R,1.600000X1.600000*%
%ADD14C,0.250000*%
G04 APERTURE END LIST*
D10*
X138303000Y-82042000D03*
X135763000Y-82042000D03*
G04 #@! TA.AperFunction,ComponentPad*
D11*
G36*
X133867505Y-80943204D02*
G01*
X133891773Y-80946804D01*
X133915572Y-80952765D01*
X133938671Y-80961030D01*
X133960850Y-80971520D01*
X133981893Y-80984132D01*
X134001599Y-80998747D01*
X134019777Y-81015223D01*
X134036253Y-81033401D01*
X134050868Y-81053107D01*
X134063480Y-81074150D01*
X134073970Y-81096329D01*
X134082235Y-81119428D01*
X134088196Y-81143227D01*
X134091796Y-81167495D01*
X134093000Y-81191999D01*
X134093000Y-82892001D01*
X134091796Y-82916505D01*
X134088196Y-82940773D01*
X134082235Y-82964572D01*
X134073970Y-82987671D01*
X134063480Y-83009850D01*
X134050868Y-83030893D01*
X134036253Y-83050599D01*
X134019777Y-83068777D01*
X134001599Y-83085253D01*
X133981893Y-83099868D01*
X133960850Y-83112480D01*
X133938671Y-83122970D01*
X133915572Y-83131235D01*
X133891773Y-83137196D01*
X133867505Y-83140796D01*
X133843001Y-83142000D01*
X132602999Y-83142000D01*
X132578495Y-83140796D01*
X132554227Y-83137196D01*
X132530428Y-83131235D01*
X132507329Y-83122970D01*
X132485150Y-83112480D01*
X132464107Y-83099868D01*
X132444401Y-83085253D01*
X132426223Y-83068777D01*
X132409747Y-83050599D01*
X132395132Y-83030893D01*
X132382520Y-83009850D01*
X132372030Y-82987671D01*
X132363765Y-82964572D01*
X132357804Y-82940773D01*
X132354204Y-82916505D01*
X132353000Y-82892001D01*
X132353000Y-81191999D01*
X132354204Y-81167495D01*
X132357804Y-81143227D01*
X132363765Y-81119428D01*
X132372030Y-81096329D01*
X132382520Y-81074150D01*
X132395132Y-81053107D01*
X132409747Y-81033401D01*
X132426223Y-81015223D01*
X132444401Y-80998747D01*
X132464107Y-80984132D01*
X132485150Y-80971520D01*
X132507329Y-80961030D01*
X132530428Y-80952765D01*
X132554227Y-80946804D01*
X132578495Y-80943204D01*
X132602999Y-80942000D01*
X133843001Y-80942000D01*
X133867505Y-80943204D01*
G37*
G04 #@! TD.AperFunction*
D10*
X151892000Y-82042000D03*
X149352000Y-82042000D03*
G04 #@! TA.AperFunction,ComponentPad*
D11*
G36*
X147456505Y-80943204D02*
G01*
X147480773Y-80946804D01*
X147504572Y-80952765D01*
X147527671Y-80961030D01*
X147549850Y-80971520D01*
X147570893Y-80984132D01*
X147590599Y-80998747D01*
X147608777Y-81015223D01*
X147625253Y-81033401D01*
X147639868Y-81053107D01*
X147652480Y-81074150D01*
X147662970Y-81096329D01*
X147671235Y-81119428D01*
X147677196Y-81143227D01*
X147680796Y-81167495D01*
X147682000Y-81191999D01*
X147682000Y-82892001D01*
X147680796Y-82916505D01*
X147677196Y-82940773D01*
X147671235Y-82964572D01*
X147662970Y-82987671D01*
X147652480Y-83009850D01*
X147639868Y-83030893D01*
X147625253Y-83050599D01*
X147608777Y-83068777D01*
X147590599Y-83085253D01*
X147570893Y-83099868D01*
X147549850Y-83112480D01*
X147527671Y-83122970D01*
X147504572Y-83131235D01*
X147480773Y-83137196D01*
X147456505Y-83140796D01*
X147432001Y-83142000D01*
X146191999Y-83142000D01*
X146167495Y-83140796D01*
X146143227Y-83137196D01*
X146119428Y-83131235D01*
X146096329Y-83122970D01*
X146074150Y-83112480D01*
X146053107Y-83099868D01*
X146033401Y-83085253D01*
X146015223Y-83068777D01*
X145998747Y-83050599D01*
X145984132Y-83030893D01*
X145971520Y-83009850D01*
X145961030Y-82987671D01*
X145952765Y-82964572D01*
X145946804Y-82940773D01*
X145943204Y-82916505D01*
X145942000Y-82892001D01*
X145942000Y-81191999D01*
X145943204Y-81167495D01*
X145946804Y-81143227D01*
X145952765Y-81119428D01*
X145961030Y-81096329D01*
X145971520Y-81074150D01*
X145984132Y-81053107D01*
X145998747Y-81033401D01*
X146015223Y-81015223D01*
X146033401Y-80998747D01*
X146053107Y-80984132D01*
X146074150Y-80971520D01*
X146096329Y-80961030D01*
X146119428Y-80952765D01*
X146143227Y-80946804D01*
X146167495Y-80943204D01*
X146191999Y-80942000D01*
X147432001Y-80942000D01*
X147456505Y-80943204D01*
G37*
G04 #@! TD.AperFunction*
D10*
X138303000Y-90805000D03*
X135763000Y-90805000D03*
G04 #@! TA.AperFunction,ComponentPad*
D11*
G36*
X133867505Y-89706204D02*
G01*
X133891773Y-89709804D01*
X133915572Y-89715765D01*
X133938671Y-89724030D01*
X133960850Y-89734520D01*
X133981893Y-89747132D01*
X134001599Y-89761747D01*
X134019777Y-89778223D01*
X134036253Y-89796401D01*
X134050868Y-89816107D01*
X134063480Y-89837150D01*
X134073970Y-89859329D01*
X134082235Y-89882428D01*
X134088196Y-89906227D01*
X134091796Y-89930495D01*
X134093000Y-89954999D01*
X134093000Y-91655001D01*
X134091796Y-91679505D01*
X134088196Y-91703773D01*
X134082235Y-91727572D01*
X134073970Y-91750671D01*
X134063480Y-91772850D01*
X134050868Y-91793893D01*
X134036253Y-91813599D01*
X134019777Y-91831777D01*
X134001599Y-91848253D01*
X133981893Y-91862868D01*
X133960850Y-91875480D01*
X133938671Y-91885970D01*
X133915572Y-91894235D01*
X133891773Y-91900196D01*
X133867505Y-91903796D01*
X133843001Y-91905000D01*
X132602999Y-91905000D01*
X132578495Y-91903796D01*
X132554227Y-91900196D01*
X132530428Y-91894235D01*
X132507329Y-91885970D01*
X132485150Y-91875480D01*
X132464107Y-91862868D01*
X132444401Y-91848253D01*
X132426223Y-91831777D01*
X132409747Y-91813599D01*
X132395132Y-91793893D01*
X132382520Y-91772850D01*
X132372030Y-91750671D01*
X132363765Y-91727572D01*
X132357804Y-91703773D01*
X132354204Y-91679505D01*
X132353000Y-91655001D01*
X132353000Y-89954999D01*
X132354204Y-89930495D01*
X132357804Y-89906227D01*
X132363765Y-89882428D01*
X132372030Y-89859329D01*
X132382520Y-89837150D01*
X132395132Y-89816107D01*
X132409747Y-89796401D01*
X132426223Y-89778223D01*
X132444401Y-89761747D01*
X132464107Y-89747132D01*
X132485150Y-89734520D01*
X132507329Y-89724030D01*
X132530428Y-89715765D01*
X132554227Y-89709804D01*
X132578495Y-89706204D01*
X132602999Y-89705000D01*
X133843001Y-89705000D01*
X133867505Y-89706204D01*
G37*
G04 #@! TD.AperFunction*
D10*
X151892000Y-91059000D03*
X149352000Y-91059000D03*
G04 #@! TA.AperFunction,ComponentPad*
D11*
G36*
X147456505Y-89960204D02*
G01*
X147480773Y-89963804D01*
X147504572Y-89969765D01*
X147527671Y-89978030D01*
X147549850Y-89988520D01*
X147570893Y-90001132D01*
X147590599Y-90015747D01*
X147608777Y-90032223D01*
X147625253Y-90050401D01*
X147639868Y-90070107D01*
X147652480Y-90091150D01*
X147662970Y-90113329D01*
X147671235Y-90136428D01*
X147677196Y-90160227D01*
X147680796Y-90184495D01*
X147682000Y-90208999D01*
X147682000Y-91909001D01*
X147680796Y-91933505D01*
X147677196Y-91957773D01*
X147671235Y-91981572D01*
X147662970Y-92004671D01*
X147652480Y-92026850D01*
X147639868Y-92047893D01*
X147625253Y-92067599D01*
X147608777Y-92085777D01*
X147590599Y-92102253D01*
X147570893Y-92116868D01*
X147549850Y-92129480D01*
X147527671Y-92139970D01*
X147504572Y-92148235D01*
X147480773Y-92154196D01*
X147456505Y-92157796D01*
X147432001Y-92159000D01*
X146191999Y-92159000D01*
X146167495Y-92157796D01*
X146143227Y-92154196D01*
X146119428Y-92148235D01*
X146096329Y-92139970D01*
X146074150Y-92129480D01*
X146053107Y-92116868D01*
X146033401Y-92102253D01*
X146015223Y-92085777D01*
X145998747Y-92067599D01*
X145984132Y-92047893D01*
X145971520Y-92026850D01*
X145961030Y-92004671D01*
X145952765Y-91981572D01*
X145946804Y-91957773D01*
X145943204Y-91933505D01*
X145942000Y-91909001D01*
X145942000Y-90208999D01*
X145943204Y-90184495D01*
X145946804Y-90160227D01*
X145952765Y-90136428D01*
X145961030Y-90113329D01*
X145971520Y-90091150D01*
X145984132Y-90070107D01*
X145998747Y-90050401D01*
X146015223Y-90032223D01*
X146033401Y-90015747D01*
X146053107Y-90001132D01*
X146074150Y-89988520D01*
X146096329Y-89978030D01*
X146119428Y-89969765D01*
X146143227Y-89963804D01*
X146167495Y-89960204D01*
X146191999Y-89959000D01*
X147432001Y-89959000D01*
X147456505Y-89960204D01*
G37*
G04 #@! TD.AperFunction*
D10*
X111506000Y-82042000D03*
X108966000Y-82042000D03*
X106426000Y-82042000D03*
G04 #@! TA.AperFunction,ComponentPad*
D11*
G36*
X104530505Y-80943204D02*
G01*
X104554773Y-80946804D01*
X104578572Y-80952765D01*
X104601671Y-80961030D01*
X104623850Y-80971520D01*
X104644893Y-80984132D01*
X104664599Y-80998747D01*
X104682777Y-81015223D01*
X104699253Y-81033401D01*
X104713868Y-81053107D01*
X104726480Y-81074150D01*
X104736970Y-81096329D01*
X104745235Y-81119428D01*
X104751196Y-81143227D01*
X104754796Y-81167495D01*
X104756000Y-81191999D01*
X104756000Y-82892001D01*
X104754796Y-82916505D01*
X104751196Y-82940773D01*
X104745235Y-82964572D01*
X104736970Y-82987671D01*
X104726480Y-83009850D01*
X104713868Y-83030893D01*
X104699253Y-83050599D01*
X104682777Y-83068777D01*
X104664599Y-83085253D01*
X104644893Y-83099868D01*
X104623850Y-83112480D01*
X104601671Y-83122970D01*
X104578572Y-83131235D01*
X104554773Y-83137196D01*
X104530505Y-83140796D01*
X104506001Y-83142000D01*
X103265999Y-83142000D01*
X103241495Y-83140796D01*
X103217227Y-83137196D01*
X103193428Y-83131235D01*
X103170329Y-83122970D01*
X103148150Y-83112480D01*
X103127107Y-83099868D01*
X103107401Y-83085253D01*
X103089223Y-83068777D01*
X103072747Y-83050599D01*
X103058132Y-83030893D01*
X103045520Y-83009850D01*
X103035030Y-82987671D01*
X103026765Y-82964572D01*
X103020804Y-82940773D01*
X103017204Y-82916505D01*
X103016000Y-82892001D01*
X103016000Y-81191999D01*
X103017204Y-81167495D01*
X103020804Y-81143227D01*
X103026765Y-81119428D01*
X103035030Y-81096329D01*
X103045520Y-81074150D01*
X103058132Y-81053107D01*
X103072747Y-81033401D01*
X103089223Y-81015223D01*
X103107401Y-80998747D01*
X103127107Y-80984132D01*
X103148150Y-80971520D01*
X103170329Y-80961030D01*
X103193428Y-80952765D01*
X103217227Y-80946804D01*
X103241495Y-80943204D01*
X103265999Y-80942000D01*
X104506001Y-80942000D01*
X104530505Y-80943204D01*
G37*
G04 #@! TD.AperFunction*
D10*
X162814000Y-93345000D03*
G04 #@! TA.AperFunction,ComponentPad*
D11*
G36*
X160918505Y-92246204D02*
G01*
X160942773Y-92249804D01*
X160966572Y-92255765D01*
X160989671Y-92264030D01*
X161011850Y-92274520D01*
X161032893Y-92287132D01*
X161052599Y-92301747D01*
X161070777Y-92318223D01*
X161087253Y-92336401D01*
X161101868Y-92356107D01*
X161114480Y-92377150D01*
X161124970Y-92399329D01*
X161133235Y-92422428D01*
X161139196Y-92446227D01*
X161142796Y-92470495D01*
X161144000Y-92494999D01*
X161144000Y-94195001D01*
X161142796Y-94219505D01*
X161139196Y-94243773D01*
X161133235Y-94267572D01*
X161124970Y-94290671D01*
X161114480Y-94312850D01*
X161101868Y-94333893D01*
X161087253Y-94353599D01*
X161070777Y-94371777D01*
X161052599Y-94388253D01*
X161032893Y-94402868D01*
X161011850Y-94415480D01*
X160989671Y-94425970D01*
X160966572Y-94434235D01*
X160942773Y-94440196D01*
X160918505Y-94443796D01*
X160894001Y-94445000D01*
X159653999Y-94445000D01*
X159629495Y-94443796D01*
X159605227Y-94440196D01*
X159581428Y-94434235D01*
X159558329Y-94425970D01*
X159536150Y-94415480D01*
X159515107Y-94402868D01*
X159495401Y-94388253D01*
X159477223Y-94371777D01*
X159460747Y-94353599D01*
X159446132Y-94333893D01*
X159433520Y-94312850D01*
X159423030Y-94290671D01*
X159414765Y-94267572D01*
X159408804Y-94243773D01*
X159405204Y-94219505D01*
X159404000Y-94195001D01*
X159404000Y-92494999D01*
X159405204Y-92470495D01*
X159408804Y-92446227D01*
X159414765Y-92422428D01*
X159423030Y-92399329D01*
X159433520Y-92377150D01*
X159446132Y-92356107D01*
X159460747Y-92336401D01*
X159477223Y-92318223D01*
X159495401Y-92301747D01*
X159515107Y-92287132D01*
X159536150Y-92274520D01*
X159558329Y-92264030D01*
X159581428Y-92255765D01*
X159605227Y-92249804D01*
X159629495Y-92246204D01*
X159653999Y-92245000D01*
X160894001Y-92245000D01*
X160918505Y-92246204D01*
G37*
G04 #@! TD.AperFunction*
D10*
X95504000Y-100203000D03*
G04 #@! TA.AperFunction,ComponentPad*
D11*
G36*
X93608505Y-99104204D02*
G01*
X93632773Y-99107804D01*
X93656572Y-99113765D01*
X93679671Y-99122030D01*
X93701850Y-99132520D01*
X93722893Y-99145132D01*
X93742599Y-99159747D01*
X93760777Y-99176223D01*
X93777253Y-99194401D01*
X93791868Y-99214107D01*
X93804480Y-99235150D01*
X93814970Y-99257329D01*
X93823235Y-99280428D01*
X93829196Y-99304227D01*
X93832796Y-99328495D01*
X93834000Y-99352999D01*
X93834000Y-101053001D01*
X93832796Y-101077505D01*
X93829196Y-101101773D01*
X93823235Y-101125572D01*
X93814970Y-101148671D01*
X93804480Y-101170850D01*
X93791868Y-101191893D01*
X93777253Y-101211599D01*
X93760777Y-101229777D01*
X93742599Y-101246253D01*
X93722893Y-101260868D01*
X93701850Y-101273480D01*
X93679671Y-101283970D01*
X93656572Y-101292235D01*
X93632773Y-101298196D01*
X93608505Y-101301796D01*
X93584001Y-101303000D01*
X92343999Y-101303000D01*
X92319495Y-101301796D01*
X92295227Y-101298196D01*
X92271428Y-101292235D01*
X92248329Y-101283970D01*
X92226150Y-101273480D01*
X92205107Y-101260868D01*
X92185401Y-101246253D01*
X92167223Y-101229777D01*
X92150747Y-101211599D01*
X92136132Y-101191893D01*
X92123520Y-101170850D01*
X92113030Y-101148671D01*
X92104765Y-101125572D01*
X92098804Y-101101773D01*
X92095204Y-101077505D01*
X92094000Y-101053001D01*
X92094000Y-99352999D01*
X92095204Y-99328495D01*
X92098804Y-99304227D01*
X92104765Y-99280428D01*
X92113030Y-99257329D01*
X92123520Y-99235150D01*
X92136132Y-99214107D01*
X92150747Y-99194401D01*
X92167223Y-99176223D01*
X92185401Y-99159747D01*
X92205107Y-99145132D01*
X92226150Y-99132520D01*
X92248329Y-99122030D01*
X92271428Y-99113765D01*
X92295227Y-99107804D01*
X92319495Y-99104204D01*
X92343999Y-99103000D01*
X93584001Y-99103000D01*
X93608505Y-99104204D01*
G37*
G04 #@! TD.AperFunction*
D10*
X121285000Y-93345000D03*
X118745000Y-93345000D03*
G04 #@! TA.AperFunction,ComponentPad*
D11*
G36*
X116849505Y-92246204D02*
G01*
X116873773Y-92249804D01*
X116897572Y-92255765D01*
X116920671Y-92264030D01*
X116942850Y-92274520D01*
X116963893Y-92287132D01*
X116983599Y-92301747D01*
X117001777Y-92318223D01*
X117018253Y-92336401D01*
X117032868Y-92356107D01*
X117045480Y-92377150D01*
X117055970Y-92399329D01*
X117064235Y-92422428D01*
X117070196Y-92446227D01*
X117073796Y-92470495D01*
X117075000Y-92494999D01*
X117075000Y-94195001D01*
X117073796Y-94219505D01*
X117070196Y-94243773D01*
X117064235Y-94267572D01*
X117055970Y-94290671D01*
X117045480Y-94312850D01*
X117032868Y-94333893D01*
X117018253Y-94353599D01*
X117001777Y-94371777D01*
X116983599Y-94388253D01*
X116963893Y-94402868D01*
X116942850Y-94415480D01*
X116920671Y-94425970D01*
X116897572Y-94434235D01*
X116873773Y-94440196D01*
X116849505Y-94443796D01*
X116825001Y-94445000D01*
X115584999Y-94445000D01*
X115560495Y-94443796D01*
X115536227Y-94440196D01*
X115512428Y-94434235D01*
X115489329Y-94425970D01*
X115467150Y-94415480D01*
X115446107Y-94402868D01*
X115426401Y-94388253D01*
X115408223Y-94371777D01*
X115391747Y-94353599D01*
X115377132Y-94333893D01*
X115364520Y-94312850D01*
X115354030Y-94290671D01*
X115345765Y-94267572D01*
X115339804Y-94243773D01*
X115336204Y-94219505D01*
X115335000Y-94195001D01*
X115335000Y-92494999D01*
X115336204Y-92470495D01*
X115339804Y-92446227D01*
X115345765Y-92422428D01*
X115354030Y-92399329D01*
X115364520Y-92377150D01*
X115377132Y-92356107D01*
X115391747Y-92336401D01*
X115408223Y-92318223D01*
X115426401Y-92301747D01*
X115446107Y-92287132D01*
X115467150Y-92274520D01*
X115489329Y-92264030D01*
X115512428Y-92255765D01*
X115536227Y-92249804D01*
X115560495Y-92246204D01*
X115584999Y-92245000D01*
X116825001Y-92245000D01*
X116849505Y-92246204D01*
G37*
G04 #@! TD.AperFunction*
D12*
X102743000Y-96012000D03*
D13*
X102743000Y-88392000D03*
D12*
X116205000Y-87292000D03*
D13*
X116205000Y-79672000D03*
D12*
X120650000Y-87292000D03*
D13*
X120650000Y-79672000D03*
D14*
X120650000Y-87292000D02*
X116205000Y-87292000D01*
X120650000Y-79672000D02*
X128569400Y-79672000D01*
X128569400Y-79672000D02*
X137273500Y-88376100D01*
X137273500Y-88376100D02*
X155305100Y-88376100D01*
X155305100Y-88376100D02*
X160274000Y-93345000D01*
X102743000Y-96012000D02*
X102743000Y-94886700D01*
X102743000Y-94886700D02*
X106426000Y-91203700D01*
X106426000Y-91203700D02*
X106426000Y-82042000D01*
X116205000Y-93345000D02*
X110161300Y-87301300D01*
X110161300Y-87301300D02*
X110161300Y-82042000D01*
X161618700Y-93345000D02*
X161618700Y-94316200D01*
X161618700Y-94316200D02*
X161163300Y-94771600D01*
X161163300Y-94771600D02*
X117631600Y-94771600D01*
X117631600Y-94771600D02*
X116205000Y-93345000D01*
X108966000Y-82042000D02*
X110161300Y-82042000D01*
X162814000Y-93345000D02*
X161618700Y-93345000D01*
M02*
