<?xml version="1.0" standalone="no"?>
 <!DOCTYPE svg PUBLIC "-//W3C//DTD SVG 1.1//EN" 
 "http://www.w3.org/Graphics/SVG/1.1/DTD/svg11.dtd"> 
<svg xmlns="http://www.w3.org/2000/svg" version="1.1" 
    width="29.7002cm" height="21.0007cm" viewBox="0 0 116930 82680 ">
<title>SVG Picture created as OH - Right Console - 1 - Electrical Power-NPTH-drl_map.svg date 2021/04/10 11:53:08 </title>
  <desc>Picture generated by PCBNEW </desc>
<g style="fill:#000000; fill-opacity:1;stroke:#000000; stroke-opacity:1;
stroke-linecap:round; stroke-linejoin:round; "
 transform="translate(0 0) scale(1 1)">
</g>
<g style="fill:#000000; fill-opacity:0.0; 
stroke:#000000; stroke-width:-0.000393701; stroke-opacity:1; 
stroke-linecap:round; stroke-linejoin:round;">
</g>
<g style="fill:#000000; fill-opacity:0.0; 
stroke:#000000; stroke-width:19.685; stroke-opacity:1; 
stroke-linecap:round; stroke-linejoin:round;">
<path d="M69293 30631
L69293 34050
" />
<path d="M64850 40950
L69293 34050
" />
<path d="M31750 40950
L64850 40950
" />
<path d="M31750 37850
L31750 40950
" />
<path d="M39400 37850
L31750 37850
" />
<path d="M39400 30631
L39400 37850
" />
<path d="M69293 30631
L39400 30631
" />
</g>
<g style="fill:#000000; fill-opacity:0.0; 
stroke:#000000; stroke-width:78.7402; stroke-opacity:1; 
stroke-linecap:round; stroke-linejoin:round;">
<path d="M66903 32803
L68596 34496
" />
<path d="M68596 32803
L66903 34496
" />
<path d="M49053 31753
L50746 33446
" />
<path d="M50746 31753
L49053 33446
" />
<path d="M32303 38403
L33996 40096
" />
<path d="M33996 38403
L32303 40096
" />
<path d="M53853 38253
L55546 39946
" />
<path d="M55546 38253
L53853 39946
" />
</g>
<g style="fill:#000000; fill-opacity:0.0; 
stroke:#000000; stroke-width:118.11; stroke-opacity:1; 
stroke-linecap:round; stroke-linejoin:round;">
<text x="32527.6" y="42849.6"
textLength="8779.53" font-size="1574.8" lengthAdjust="spacingAndGlyphs"
text-anchor="start" opacity="0">Drill Map:</text>
<path d="M32867 42793
L32867 41612
L33149 41612
L33317 41668
L33430 41780
L33486 41893
L33542 42118
L33542 42287
L33486 42512
L33430 42624
L33317 42737
L33149 42793
L32867 42793
" />
<path d="M34048 42793
L34048 42005
" />
<path d="M34048 42230
L34105 42118
L34161 42062
L34273 42005
L34386 42005
" />
<path d="M34780 42793
L34780 42005
" />
<path d="M34780 41612
L34723 41668
L34780 41724
L34836 41668
L34780 41612
L34780 41724
" />
<path d="M35511 42793
L35398 42737
L35342 42624
L35342 41612
" />
<path d="M36129 42793
L36017 42737
L35961 42624
L35961 41612
" />
<path d="M37479 42793
L37479 41612
L37873 42455
L38267 41612
L38267 42793
" />
<path d="M39335 42793
L39335 42174
L39279 42062
L39167 42005
L38942 42005
L38829 42062
" />
<path d="M39335 42737
L39223 42793
L38942 42793
L38829 42737
L38773 42624
L38773 42512
L38829 42399
L38942 42343
L39223 42343
L39335 42287
" />
<path d="M39898 42005
L39898 43187
" />
<path d="M39898 42062
L40010 42005
L40235 42005
L40348 42062
L40404 42118
L40460 42230
L40460 42568
L40404 42680
L40348 42737
L40235 42793
L40010 42793
L39898 42737
" />
<path d="M40966 42680
L41023 42737
L40966 42793
L40910 42737
L40966 42680
L40966 42793
" />
<path d="M40966 42062
L41023 42118
L40966 42174
L40910 42118
L40966 42062
L40966 42174
" />
<path d="M30047 43892
L31740 45585
" />
<path d="M31740 43892
L30047 45585
" />
<text x="32527.6" y="45329.9"
textLength="37126" font-size="1574.8" lengthAdjust="spacingAndGlyphs"
text-anchor="start" opacity="0">4.30mm / 0.169" (4 holes) (not plated)</text>
<path d="M33374 44486
L33374 45273
" />
<path d="M33092 44036
L32811 44879
L33542 44879
" />
<path d="M33992 45161
L34048 45217
L33992 45273
L33936 45217
L33992 45161
L33992 45273
" />
<path d="M34442 44092
L35173 44092
L34780 44542
L34948 44542
L35061 44598
L35117 44655
L35173 44767
L35173 45048
L35117 45161
L35061 45217
L34948 45273
L34611 45273
L34498 45217
L34442 45161
" />
<path d="M35904 44092
L36017 44092
L36129 44148
L36186 44205
L36242 44317
L36298 44542
L36298 44823
L36242 45048
L36186 45161
L36129 45217
L36017 45273
L35904 45273
L35792 45217
L35736 45161
L35679 45048
L35623 44823
L35623 44542
L35679 44317
L35736 44205
L35792 44148
L35904 44092
" />
<path d="M36804 45273
L36804 44486
" />
<path d="M36804 44598
L36861 44542
L36973 44486
L37142 44486
L37254 44542
L37311 44655
L37311 45273
" />
<path d="M37311 44655
L37367 44542
L37479 44486
L37648 44486
L37760 44542
L37817 44655
L37817 45273
" />
<path d="M38379 45273
L38379 44486
" />
<path d="M38379 44598
L38435 44542
L38548 44486
L38717 44486
L38829 44542
L38885 44655
L38885 45273
" />
<path d="M38885 44655
L38942 44542
L39054 44486
L39223 44486
L39335 44542
L39392 44655
L39392 45273
" />
<path d="M41697 44036
L40685 45554
" />
<path d="M43216 44092
L43329 44092
L43441 44148
L43497 44205
L43553 44317
L43610 44542
L43610 44823
L43553 45048
L43497 45161
L43441 45217
L43329 45273
L43216 45273
L43104 45217
L43047 45161
L42991 45048
L42935 44823
L42935 44542
L42991 44317
L43047 44205
L43104 44148
L43216 44092
" />
<path d="M44116 45161
L44172 45217
L44116 45273
L44060 45217
L44116 45161
L44116 45273
" />
<path d="M45297 45273
L44622 45273
" />
<path d="M44960 45273
L44960 44092
L44847 44261
L44735 44373
L44622 44430
" />
<path d="M46309 44092
L46084 44092
L45972 44148
L45916 44205
L45803 44373
L45747 44598
L45747 45048
L45803 45161
L45859 45217
L45972 45273
L46197 45273
L46309 45217
L46366 45161
L46422 45048
L46422 44767
L46366 44655
L46309 44598
L46197 44542
L45972 44542
L45859 44598
L45803 44655
L45747 44767
" />
<path d="M46984 45273
L47209 45273
L47322 45217
L47378 45161
L47491 44992
L47547 44767
L47547 44317
L47491 44205
L47434 44148
L47322 44092
L47097 44092
L46984 44148
L46928 44205
L46872 44317
L46872 44598
L46928 44711
L46984 44767
L47097 44823
L47322 44823
L47434 44767
L47491 44711
L47547 44598
" />
<path d="M47997 44092
L47997 44317
" />
<path d="M48447 44092
L48447 44317
" />
<path d="M50190 45723
L50134 45667
L50021 45498
L49965 45386
L49909 45217
L49853 44936
L49853 44711
L49909 44430
L49965 44261
L50021 44148
L50134 43980
L50190 43923
" />
<path d="M51146 44486
L51146 45273
" />
<path d="M50865 44036
L50584 44879
L51315 44879
" />
<path d="M52665 45273
L52665 44092
" />
<path d="M53171 45273
L53171 44655
L53115 44542
L53002 44486
L52834 44486
L52721 44542
L52665 44598
" />
<path d="M53902 45273
L53790 45217
L53733 45161
L53677 45048
L53677 44711
L53733 44598
L53790 44542
L53902 44486
L54071 44486
L54183 44542
L54240 44598
L54296 44711
L54296 45048
L54240 45161
L54183 45217
L54071 45273
L53902 45273
" />
<path d="M54971 45273
L54858 45217
L54802 45104
L54802 44092
" />
<path d="M55871 45217
L55758 45273
L55533 45273
L55421 45217
L55365 45104
L55365 44655
L55421 44542
L55533 44486
L55758 44486
L55871 44542
L55927 44655
L55927 44767
L55365 44879
" />
<path d="M56377 45217
L56489 45273
L56714 45273
L56827 45217
L56883 45104
L56883 45048
L56827 44936
L56714 44879
L56546 44879
L56433 44823
L56377 44711
L56377 44655
L56433 44542
L56546 44486
L56714 44486
L56827 44542
" />
<path d="M57277 45723
L57333 45667
L57446 45498
L57502 45386
L57558 45217
L57614 44936
L57614 44711
L57558 44430
L57502 44261
L57446 44148
L57333 43980
L57277 43923
" />
<path d="M59414 45723
L59358 45667
L59245 45498
L59189 45386
L59133 45217
L59077 44936
L59077 44711
L59133 44430
L59189 44261
L59245 44148
L59358 43980
L59414 43923
" />
<path d="M59864 44486
L59864 45273
" />
<path d="M59864 44598
L59920 44542
L60033 44486
L60201 44486
L60314 44542
L60370 44655
L60370 45273
" />
<path d="M61101 45273
L60989 45217
L60933 45161
L60876 45048
L60876 44711
L60933 44598
L60989 44542
L61101 44486
L61270 44486
L61383 44542
L61439 44598
L61495 44711
L61495 45048
L61439 45161
L61383 45217
L61270 45273
L61101 45273
" />
<path d="M61832 44486
L62282 44486
" />
<path d="M62001 44092
L62001 45104
L62057 45217
L62170 45273
L62282 45273
" />
<path d="M63576 44486
L63576 45667
" />
<path d="M63576 44542
L63688 44486
L63913 44486
L64026 44542
L64082 44598
L64138 44711
L64138 45048
L64082 45161
L64026 45217
L63913 45273
L63688 45273
L63576 45217
" />
<path d="M64813 45273
L64701 45217
L64645 45104
L64645 44092
" />
<path d="M65769 45273
L65769 44655
L65713 44542
L65601 44486
L65376 44486
L65263 44542
" />
<path d="M65769 45217
L65657 45273
L65376 45273
L65263 45217
L65207 45104
L65207 44992
L65263 44879
L65376 44823
L65657 44823
L65769 44767
" />
<path d="M66163 44486
L66613 44486
" />
<path d="M66332 44092
L66332 45104
L66388 45217
L66501 45273
L66613 45273
" />
<path d="M67457 45217
L67344 45273
L67119 45273
L67007 45217
L66951 45104
L66951 44655
L67007 44542
L67119 44486
L67344 44486
L67457 44542
L67513 44655
L67513 44767
L66951 44879
" />
<path d="M68525 45273
L68525 44092
" />
<path d="M68525 45217
L68413 45273
L68188 45273
L68075 45217
L68019 45161
L67963 45048
L67963 44711
L68019 44598
L68075 44542
L68188 44486
L68413 44486
L68525 44542
" />
<path d="M68975 45723
L69032 45667
L69144 45498
L69200 45386
L69257 45217
L69313 44936
L69313 44711
L69257 44430
L69200 44261
L69144 44148
L69032 43980
L68975 43923
" />
</g> 
</svg>
