<?xml version="1.0" standalone="no"?>
 <!DOCTYPE svg PUBLIC "-//W3C//DTD SVG 1.1//EN" 
 "http://www.w3.org/Graphics/SVG/1.1/DTD/svg11.dtd"> 
<svg xmlns="http://www.w3.org/2000/svg" version="1.1" 
    width="29.7002cm" height="21.0007cm" viewBox="0 0 116930 82680 ">
<title>SVG Picture created as OH - Right Console - 1 - Electrical Power-PTH-drl_map.svg date 2021/04/10 11:53:07 </title>
  <desc>Picture generated by PCBNEW </desc>
<g style="fill:#000000; fill-opacity:1;stroke:#000000; stroke-opacity:1;
stroke-linecap:round; stroke-linejoin:round; "
 transform="translate(0 0) scale(1 1)">
</g>
<g style="fill:#000000; fill-opacity:0.0; 
stroke:#000000; stroke-width:-0.000393701; stroke-opacity:1; 
stroke-linecap:round; stroke-linejoin:round;">
</g>
<g style="fill:#000000; fill-opacity:0.0; 
stroke:#000000; stroke-width:19.685; stroke-opacity:1; 
stroke-linecap:round; stroke-linejoin:round;">
<path d="M69293 30631
L69293 34050
" />
<path d="M64850 40950
L69293 34050
" />
<path d="M31750 40950
L64850 40950
" />
<path d="M31750 37850
L31750 40950
" />
<path d="M39400 37850
L31750 37850
" />
<path d="M39400 30631
L39400 37850
" />
<path d="M69293 30631
L39400 30631
" />
</g>
<g style="fill:#000000; fill-opacity:0.0; 
stroke:#000000; stroke-width:78.7402; stroke-opacity:1; 
stroke-linecap:round; stroke-linejoin:round;">
<path d="M40292 34642
L40607 34957
" />
<path d="M40607 34642
L40292 34957
" />
<path d="M40292 37642
L40607 37957
" />
<path d="M40607 37642
L40292 37957
" />
<path d="M45592 31209
L45907 31524
" />
<path d="M45907 31209
L45592 31524
" />
<path d="M45592 34209
L45907 34524
" />
<path d="M45907 34209
L45592 34524
" />
<path d="M47342 31209
L47657 31524
" />
<path d="M47657 31209
L47342 31524
" />
<path d="M47342 34209
L47657 34524
" />
<path d="M47657 34209
L47342 34524
" />
<circle cx="57800" cy="35850" r="236.22" /> 
<circle cx="58800" cy="35850" r="236.22" /> 
<circle cx="59800" cy="35850" r="236.22" /> 
<circle cx="60800" cy="35850" r="236.22" /> 
<circle cx="45750" cy="36750" r="236.22" /> 
<circle cx="46750" cy="36750" r="236.22" /> 
<circle cx="47750" cy="36750" r="236.22" /> 
<circle cx="63100" cy="36750" r="236.22" /> 
<circle cx="64100" cy="36750" r="236.22" /> 
<circle cx="52450" cy="32300" r="236.22" /> 
<circle cx="53450" cy="32300" r="236.22" /> 
<circle cx="54450" cy="32300" r="236.22" /> 
<circle cx="55450" cy="32300" r="236.22" /> 
<circle cx="57800" cy="32300" r="236.22" /> 
<circle cx="58800" cy="32300" r="236.22" /> 
<circle cx="59800" cy="32300" r="236.22" /> 
<circle cx="60800" cy="32300" r="236.22" /> 
<circle cx="40900" cy="32300" r="236.22" /> 
<circle cx="41900" cy="32300" r="236.22" /> 
<circle cx="42900" cy="32300" r="236.22" /> 
<circle cx="43900" cy="32300" r="236.22" /> 
<circle cx="52450" cy="35750" r="236.22" /> 
<circle cx="53450" cy="35750" r="236.22" /> 
<circle cx="54450" cy="35750" r="236.22" /> 
<circle cx="55450" cy="35750" r="236.22" /> 
<circle cx="36600" cy="39450" r="236.22" /> 
<circle cx="37600" cy="39450" r="236.22" /> 
</g>
<g style="fill:#000000; fill-opacity:0.0; 
stroke:#000000; stroke-width:118.11; stroke-opacity:1; 
stroke-linecap:round; stroke-linejoin:round;">
<text x="32527.6" y="42849.6"
textLength="8738.19" font-size="1574.8" lengthAdjust="spacingAndGlyphs"
text-anchor="start" opacity="0">Drill Map:</text>
<path d="M32867 42793
L32867 41612
L33149 41612
L33317 41668
L33430 41780
L33486 41893
L33542 42118
L33542 42287
L33486 42512
L33430 42624
L33317 42737
L33149 42793
L32867 42793
" />
<path d="M34048 42793
L34048 42005
" />
<path d="M34048 42230
L34105 42118
L34161 42062
L34273 42005
L34386 42005
" />
<path d="M34780 42793
L34780 42005
" />
<path d="M34780 41612
L34723 41668
L34780 41724
L34836 41668
L34780 41612
L34780 41724
" />
<path d="M35511 42793
L35398 42737
L35342 42624
L35342 41612
" />
<path d="M36129 42793
L36017 42737
L35961 42624
L35961 41612
" />
<path d="M37479 42793
L37479 41612
L37873 42455
L38267 41612
L38267 42793
" />
<path d="M39335 42793
L39335 42174
L39279 42062
L39167 42005
L38942 42005
L38829 42062
" />
<path d="M39335 42737
L39223 42793
L38942 42793
L38829 42737
L38773 42624
L38773 42512
L38829 42399
L38942 42343
L39223 42343
L39335 42287
" />
<path d="M39898 42005
L39898 43187
" />
<path d="M39898 42062
L40010 42005
L40235 42005
L40348 42062
L40404 42118
L40460 42230
L40460 42568
L40404 42680
L40348 42737
L40235 42793
L40010 42793
L39898 42737
" />
<path d="M40966 42680
L41023 42737
L40966 42793
L40910 42737
L40966 42680
L40966 42793
" />
<path d="M40966 42062
L41023 42118
L40966 42174
L40910 42118
L40966 42062
L40966 42174
" />
<path d="M31425 44581
L31740 44896
" />
<path d="M31740 44581
L31425 44896
" />
<text x="32527.6" y="45329.9"
textLength="25427.4" font-size="1574.8" lengthAdjust="spacingAndGlyphs"
text-anchor="start" opacity="0">0.80mm / 0.031" (6 holes)</text>
<path d="M33092 44092
L33205 44092
L33317 44148
L33374 44205
L33430 44317
L33486 44542
L33486 44823
L33430 45048
L33374 45161
L33317 45217
L33205 45273
L33092 45273
L32980 45217
L32924 45161
L32867 45048
L32811 44823
L32811 44542
L32867 44317
L32924 44205
L32980 44148
L33092 44092
" />
<path d="M33992 45161
L34048 45217
L33992 45273
L33936 45217
L33992 45161
L33992 45273
" />
<path d="M34723 44598
L34611 44542
L34555 44486
L34498 44373
L34498 44317
L34555 44205
L34611 44148
L34723 44092
L34948 44092
L35061 44148
L35117 44205
L35173 44317
L35173 44373
L35117 44486
L35061 44542
L34948 44598
L34723 44598
L34611 44655
L34555 44711
L34498 44823
L34498 45048
L34555 45161
L34611 45217
L34723 45273
L34948 45273
L35061 45217
L35117 45161
L35173 45048
L35173 44823
L35117 44711
L35061 44655
L34948 44598
" />
<path d="M35904 44092
L36017 44092
L36129 44148
L36186 44205
L36242 44317
L36298 44542
L36298 44823
L36242 45048
L36186 45161
L36129 45217
L36017 45273
L35904 45273
L35792 45217
L35736 45161
L35679 45048
L35623 44823
L35623 44542
L35679 44317
L35736 44205
L35792 44148
L35904 44092
" />
<path d="M36804 45273
L36804 44486
" />
<path d="M36804 44598
L36861 44542
L36973 44486
L37142 44486
L37254 44542
L37311 44655
L37311 45273
" />
<path d="M37311 44655
L37367 44542
L37479 44486
L37648 44486
L37760 44542
L37817 44655
L37817 45273
" />
<path d="M38379 45273
L38379 44486
" />
<path d="M38379 44598
L38435 44542
L38548 44486
L38717 44486
L38829 44542
L38885 44655
L38885 45273
" />
<path d="M38885 44655
L38942 44542
L39054 44486
L39223 44486
L39335 44542
L39392 44655
L39392 45273
" />
<path d="M41697 44036
L40685 45554
" />
<path d="M43216 44092
L43329 44092
L43441 44148
L43497 44205
L43553 44317
L43610 44542
L43610 44823
L43553 45048
L43497 45161
L43441 45217
L43329 45273
L43216 45273
L43104 45217
L43047 45161
L42991 45048
L42935 44823
L42935 44542
L42991 44317
L43047 44205
L43104 44148
L43216 44092
" />
<path d="M44116 45161
L44172 45217
L44116 45273
L44060 45217
L44116 45161
L44116 45273
" />
<path d="M44903 44092
L45016 44092
L45128 44148
L45185 44205
L45241 44317
L45297 44542
L45297 44823
L45241 45048
L45185 45161
L45128 45217
L45016 45273
L44903 45273
L44791 45217
L44735 45161
L44678 45048
L44622 44823
L44622 44542
L44678 44317
L44735 44205
L44791 44148
L44903 44092
" />
<path d="M45691 44092
L46422 44092
L46028 44542
L46197 44542
L46309 44598
L46366 44655
L46422 44767
L46422 45048
L46366 45161
L46309 45217
L46197 45273
L45859 45273
L45747 45217
L45691 45161
" />
<path d="M47547 45273
L46872 45273
" />
<path d="M47209 45273
L47209 44092
L47097 44261
L46984 44373
L46872 44430
" />
<path d="M47997 44092
L47997 44317
" />
<path d="M48447 44092
L48447 44317
" />
<path d="M50190 45723
L50134 45667
L50021 45498
L49965 45386
L49909 45217
L49853 44936
L49853 44711
L49909 44430
L49965 44261
L50021 44148
L50134 43980
L50190 43923
" />
<path d="M51146 44092
L50921 44092
L50809 44148
L50753 44205
L50640 44373
L50584 44598
L50584 45048
L50640 45161
L50696 45217
L50809 45273
L51034 45273
L51146 45217
L51203 45161
L51259 45048
L51259 44767
L51203 44655
L51146 44598
L51034 44542
L50809 44542
L50696 44598
L50640 44655
L50584 44767
" />
<path d="M52665 45273
L52665 44092
" />
<path d="M53171 45273
L53171 44655
L53115 44542
L53002 44486
L52834 44486
L52721 44542
L52665 44598
" />
<path d="M53902 45273
L53790 45217
L53733 45161
L53677 45048
L53677 44711
L53733 44598
L53790 44542
L53902 44486
L54071 44486
L54183 44542
L54240 44598
L54296 44711
L54296 45048
L54240 45161
L54183 45217
L54071 45273
L53902 45273
" />
<path d="M54971 45273
L54858 45217
L54802 45104
L54802 44092
" />
<path d="M55871 45217
L55758 45273
L55533 45273
L55421 45217
L55365 45104
L55365 44655
L55421 44542
L55533 44486
L55758 44486
L55871 44542
L55927 44655
L55927 44767
L55365 44879
" />
<path d="M56377 45217
L56489 45273
L56714 45273
L56827 45217
L56883 45104
L56883 45048
L56827 44936
L56714 44879
L56546 44879
L56433 44823
L56377 44711
L56377 44655
L56433 44542
L56546 44486
L56714 44486
L56827 44542
" />
<path d="M57277 45723
L57333 45667
L57446 45498
L57502 45386
L57558 45217
L57614 44936
L57614 44711
L57558 44430
L57502 44261
L57446 44148
L57333 43980
L57277 43923
" />
<circle cx="31503.9" cy="46298.4" r="236.22" /> 
<text x="32527.6" y="46889"
textLength="26552.3" font-size="1574.8" lengthAdjust="spacingAndGlyphs"
text-anchor="start" opacity="0">1.20mm / 0.047" (27 holes)</text>
<path d="M33486 46832
L32811 46832
" />
<path d="M33149 46832
L33149 45651
L33036 45820
L32924 45932
L32811 45989
" />
<path d="M33992 46720
L34048 46776
L33992 46832
L33936 46776
L33992 46720
L33992 46832
" />
<path d="M34498 45764
L34555 45707
L34667 45651
L34948 45651
L35061 45707
L35117 45764
L35173 45876
L35173 45989
L35117 46157
L34442 46832
L35173 46832
" />
<path d="M35904 45651
L36017 45651
L36129 45707
L36186 45764
L36242 45876
L36298 46101
L36298 46382
L36242 46607
L36186 46720
L36129 46776
L36017 46832
L35904 46832
L35792 46776
L35736 46720
L35679 46607
L35623 46382
L35623 46101
L35679 45876
L35736 45764
L35792 45707
L35904 45651
" />
<path d="M36804 46832
L36804 46045
" />
<path d="M36804 46157
L36861 46101
L36973 46045
L37142 46045
L37254 46101
L37311 46214
L37311 46832
" />
<path d="M37311 46214
L37367 46101
L37479 46045
L37648 46045
L37760 46101
L37817 46214
L37817 46832
" />
<path d="M38379 46832
L38379 46045
" />
<path d="M38379 46157
L38435 46101
L38548 46045
L38717 46045
L38829 46101
L38885 46214
L38885 46832
" />
<path d="M38885 46214
L38942 46101
L39054 46045
L39223 46045
L39335 46101
L39392 46214
L39392 46832
" />
<path d="M41697 45595
L40685 47113
" />
<path d="M43216 45651
L43329 45651
L43441 45707
L43497 45764
L43553 45876
L43610 46101
L43610 46382
L43553 46607
L43497 46720
L43441 46776
L43329 46832
L43216 46832
L43104 46776
L43047 46720
L42991 46607
L42935 46382
L42935 46101
L42991 45876
L43047 45764
L43104 45707
L43216 45651
" />
<path d="M44116 46720
L44172 46776
L44116 46832
L44060 46776
L44116 46720
L44116 46832
" />
<path d="M44903 45651
L45016 45651
L45128 45707
L45185 45764
L45241 45876
L45297 46101
L45297 46382
L45241 46607
L45185 46720
L45128 46776
L45016 46832
L44903 46832
L44791 46776
L44735 46720
L44678 46607
L44622 46382
L44622 46101
L44678 45876
L44735 45764
L44791 45707
L44903 45651
" />
<path d="M46309 46045
L46309 46832
" />
<path d="M46028 45595
L45747 46439
L46478 46439
" />
<path d="M46816 45651
L47603 45651
L47097 46832
" />
<path d="M47997 45651
L47997 45876
" />
<path d="M48447 45651
L48447 45876
" />
<path d="M50190 47282
L50134 47226
L50021 47057
L49965 46945
L49909 46776
L49853 46495
L49853 46270
L49909 45989
L49965 45820
L50021 45707
L50134 45539
L50190 45482
" />
<path d="M50584 45764
L50640 45707
L50753 45651
L51034 45651
L51146 45707
L51203 45764
L51259 45876
L51259 45989
L51203 46157
L50528 46832
L51259 46832
" />
<path d="M51652 45651
L52440 45651
L51934 46832
" />
<path d="M53790 46832
L53790 45651
" />
<path d="M54296 46832
L54296 46214
L54240 46101
L54127 46045
L53958 46045
L53846 46101
L53790 46157
" />
<path d="M55027 46832
L54915 46776
L54858 46720
L54802 46607
L54802 46270
L54858 46157
L54915 46101
L55027 46045
L55196 46045
L55308 46101
L55365 46157
L55421 46270
L55421 46607
L55365 46720
L55308 46776
L55196 46832
L55027 46832
" />
<path d="M56096 46832
L55983 46776
L55927 46664
L55927 45651
" />
<path d="M56996 46776
L56883 46832
L56658 46832
L56546 46776
L56489 46664
L56489 46214
L56546 46101
L56658 46045
L56883 46045
L56996 46101
L57052 46214
L57052 46326
L56489 46439
" />
<path d="M57502 46776
L57614 46832
L57839 46832
L57952 46776
L58008 46664
L58008 46607
L57952 46495
L57839 46439
L57670 46439
L57558 46382
L57502 46270
L57502 46214
L57558 46101
L57670 46045
L57839 46045
L57952 46101
" />
<path d="M58402 47282
L58458 47226
L58570 47057
L58627 46945
L58683 46776
L58739 46495
L58739 46270
L58683 45989
L58627 45820
L58570 45707
L58458 45539
L58402 45482
" />
</g> 
</svg>
