G04 DipTrace 2.4.0.2*
%INTopAssy.gbr*%
%MOIN*%
%FSLAX44Y44*%
G04*
G70*
G90*
G75*
G01*
%LNTopAssy*%
%LPD*%
G36*
X28040Y5040D2*
X27841D1*
Y4840D1*
X28040D1*
Y5040D1*
G37*
G36*
X27040D2*
X26840D1*
Y4840D1*
X27040D1*
Y5040D1*
G37*
G36*
X26040D2*
X25840D1*
Y4840D1*
X26040D1*
Y5040D1*
G37*
G36*
X25040D2*
X24841D1*
Y4840D1*
X25040D1*
Y5040D1*
G37*
G36*
X24040D2*
X23840D1*
Y4840D1*
X24040D1*
Y5040D1*
G37*
G36*
X29040D2*
X28840D1*
Y4840D1*
X29040D1*
Y5040D1*
G37*
G36*
X22840Y23840D2*
X23040D1*
Y24040D1*
X22840D1*
Y23840D1*
G37*
G36*
X23840D2*
X24040D1*
Y24040D1*
X23840D1*
Y23840D1*
G37*
G36*
X24840D2*
X25040D1*
Y24040D1*
X24840D1*
Y23840D1*
G37*
G36*
X25840D2*
X26040D1*
Y24040D1*
X25840D1*
Y23840D1*
G37*
G36*
X26840D2*
X27040D1*
Y24040D1*
X26840D1*
Y23840D1*
G37*
G36*
X27840D2*
X28040D1*
Y24040D1*
X27840D1*
Y23840D1*
G37*
G36*
X28840D2*
X29040D1*
Y24040D1*
X28840D1*
Y23840D1*
G37*
G36*
X21840D2*
X22040D1*
Y24040D1*
X21840D1*
Y23840D1*
G37*
G36*
X21040Y5040D2*
X20840D1*
Y4840D1*
X21040D1*
Y5040D1*
G37*
G36*
X20040D2*
X19840D1*
Y4840D1*
X20040D1*
Y5040D1*
G37*
G36*
X19040D2*
X18840D1*
Y4840D1*
X19040D1*
Y5040D1*
G37*
G36*
X18040D2*
X17840D1*
Y4840D1*
X18040D1*
Y5040D1*
G37*
G36*
X17040D2*
X16840D1*
Y4840D1*
X17040D1*
Y5040D1*
G37*
G36*
X16040D2*
X15840D1*
Y4840D1*
X16040D1*
Y5040D1*
G37*
G36*
X15040D2*
X14840D1*
Y4840D1*
X15040D1*
Y5040D1*
G37*
G36*
X22040D2*
X21840D1*
Y4840D1*
X22040D1*
Y5040D1*
G37*
G36*
X12240Y23840D2*
X12440D1*
Y24040D1*
X12240D1*
Y23840D1*
G37*
G36*
X13240D2*
X13440D1*
Y24040D1*
X13240D1*
Y23840D1*
G37*
G36*
X14240D2*
X14440D1*
Y24040D1*
X14240D1*
Y23840D1*
G37*
G36*
X15240D2*
X15440D1*
Y24040D1*
X15240D1*
Y23840D1*
G37*
G36*
X16240D2*
X16440D1*
Y24040D1*
X16240D1*
Y23840D1*
G37*
G36*
X17240D2*
X17440D1*
Y24040D1*
X17240D1*
Y23840D1*
G37*
G36*
X18240D2*
X18440D1*
Y24040D1*
X18240D1*
Y23840D1*
G37*
G36*
X19240D2*
X19440D1*
Y24040D1*
X19240D1*
Y23840D1*
G37*
G36*
X20240D2*
X20440D1*
Y24040D1*
X20240D1*
Y23840D1*
G37*
G36*
X11240D2*
X11440D1*
Y24040D1*
X11240D1*
Y23840D1*
G37*
G36*
X12240Y22840D2*
X12440D1*
Y23040D1*
X12240D1*
Y22840D1*
G37*
G36*
X13240D2*
X13440D1*
Y23040D1*
X13240D1*
Y22840D1*
G37*
G36*
X14240D2*
X14440D1*
Y23040D1*
X14240D1*
Y22840D1*
G37*
G36*
X15240D2*
X15440D1*
Y23040D1*
X15240D1*
Y22840D1*
G37*
G36*
X16240D2*
X16440D1*
Y23040D1*
X16240D1*
Y22840D1*
G37*
G36*
X17240D2*
X17440D1*
Y23040D1*
X17240D1*
Y22840D1*
G37*
G36*
X18240D2*
X18440D1*
Y23040D1*
X18240D1*
Y22840D1*
G37*
G36*
X19240D2*
X19440D1*
Y23040D1*
X19240D1*
Y22840D1*
G37*
G36*
X20240D2*
X20440D1*
Y23040D1*
X20240D1*
Y22840D1*
G37*
G36*
X11240D2*
X11440D1*
Y23040D1*
X11240D1*
Y22840D1*
G37*
G36*
X22840D2*
X23040D1*
Y23040D1*
X22840D1*
Y22840D1*
G37*
G36*
X23840D2*
X24040D1*
Y23040D1*
X23840D1*
Y22840D1*
G37*
G36*
X24840D2*
X25040D1*
Y23040D1*
X24840D1*
Y22840D1*
G37*
G36*
X25840D2*
X26040D1*
Y23040D1*
X25840D1*
Y22840D1*
G37*
G36*
X26840D2*
X27040D1*
Y23040D1*
X26840D1*
Y22840D1*
G37*
G36*
X27840D2*
X28040D1*
Y23040D1*
X27840D1*
Y22840D1*
G37*
G36*
X28840D2*
X29040D1*
Y23040D1*
X28840D1*
Y22840D1*
G37*
G36*
X21840D2*
X22040D1*
Y23040D1*
X21840D1*
Y22840D1*
G37*
G36*
X28040Y6040D2*
X27841D1*
Y5840D1*
X28040D1*
Y6040D1*
G37*
G36*
X27040D2*
X26840D1*
Y5840D1*
X27040D1*
Y6040D1*
G37*
G36*
X26040D2*
X25840D1*
Y5840D1*
X26040D1*
Y6040D1*
G37*
G36*
X25040D2*
X24841D1*
Y5840D1*
X25040D1*
Y6040D1*
G37*
G36*
X24040D2*
X23840D1*
Y5840D1*
X24040D1*
Y6040D1*
G37*
G36*
X29040D2*
X28840D1*
Y5840D1*
X29040D1*
Y6040D1*
G37*
G36*
X21040D2*
X20840D1*
Y5840D1*
X21040D1*
Y6040D1*
G37*
G36*
X20040D2*
X19840D1*
Y5840D1*
X20040D1*
Y6040D1*
G37*
G36*
X19040D2*
X18840D1*
Y5840D1*
X19040D1*
Y6040D1*
G37*
G36*
X18040D2*
X17840D1*
Y5840D1*
X18040D1*
Y6040D1*
G37*
G36*
X17040D2*
X16840D1*
Y5840D1*
X17040D1*
Y6040D1*
G37*
G36*
X16040D2*
X15840D1*
Y5840D1*
X16040D1*
Y6040D1*
G37*
G36*
X15040D2*
X14840D1*
Y5840D1*
X15040D1*
Y6040D1*
G37*
G36*
X22040D2*
X21840D1*
Y5840D1*
X22040D1*
Y6040D1*
G37*
M02*
