G04 #@! TF.GenerationSoftware,KiCad,Pcbnew,(5.1.5-0-10_14)*
G04 #@! TF.CreationDate,2021-03-15T05:54:21+10:00*
G04 #@! TF.ProjectId,OH - Left Console - 31 - Landing Gear,4f48202d-204c-4656-9674-20436f6e736f,rev?*
G04 #@! TF.SameCoordinates,Original*
G04 #@! TF.FileFunction,Copper,L2,Bot*
G04 #@! TF.FilePolarity,Positive*
%FSLAX46Y46*%
G04 Gerber Fmt 4.6, Leading zero omitted, Abs format (unit mm)*
G04 Created by KiCad (PCBNEW (5.1.5-0-10_14)) date 2021-03-15 05:54:21*
%MOMM*%
%LPD*%
G04 APERTURE LIST*
%ADD10O,1.740000X2.200000*%
%ADD11C,0.100000*%
%ADD12O,2.200000X1.740000*%
%ADD13O,1.600000X1.600000*%
%ADD14R,1.600000X1.600000*%
%ADD15C,0.250000*%
G04 APERTURE END LIST*
D10*
X178689000Y-68580000D03*
G04 #@! TA.AperFunction,ComponentPad*
D11*
G36*
X176793505Y-67481204D02*
G01*
X176817773Y-67484804D01*
X176841572Y-67490765D01*
X176864671Y-67499030D01*
X176886850Y-67509520D01*
X176907893Y-67522132D01*
X176927599Y-67536747D01*
X176945777Y-67553223D01*
X176962253Y-67571401D01*
X176976868Y-67591107D01*
X176989480Y-67612150D01*
X176999970Y-67634329D01*
X177008235Y-67657428D01*
X177014196Y-67681227D01*
X177017796Y-67705495D01*
X177019000Y-67729999D01*
X177019000Y-69430001D01*
X177017796Y-69454505D01*
X177014196Y-69478773D01*
X177008235Y-69502572D01*
X176999970Y-69525671D01*
X176989480Y-69547850D01*
X176976868Y-69568893D01*
X176962253Y-69588599D01*
X176945777Y-69606777D01*
X176927599Y-69623253D01*
X176907893Y-69637868D01*
X176886850Y-69650480D01*
X176864671Y-69660970D01*
X176841572Y-69669235D01*
X176817773Y-69675196D01*
X176793505Y-69678796D01*
X176769001Y-69680000D01*
X175528999Y-69680000D01*
X175504495Y-69678796D01*
X175480227Y-69675196D01*
X175456428Y-69669235D01*
X175433329Y-69660970D01*
X175411150Y-69650480D01*
X175390107Y-69637868D01*
X175370401Y-69623253D01*
X175352223Y-69606777D01*
X175335747Y-69588599D01*
X175321132Y-69568893D01*
X175308520Y-69547850D01*
X175298030Y-69525671D01*
X175289765Y-69502572D01*
X175283804Y-69478773D01*
X175280204Y-69454505D01*
X175279000Y-69430001D01*
X175279000Y-67729999D01*
X175280204Y-67705495D01*
X175283804Y-67681227D01*
X175289765Y-67657428D01*
X175298030Y-67634329D01*
X175308520Y-67612150D01*
X175321132Y-67591107D01*
X175335747Y-67571401D01*
X175352223Y-67553223D01*
X175370401Y-67536747D01*
X175390107Y-67522132D01*
X175411150Y-67509520D01*
X175433329Y-67499030D01*
X175456428Y-67490765D01*
X175480227Y-67484804D01*
X175504495Y-67481204D01*
X175528999Y-67480000D01*
X176769001Y-67480000D01*
X176793505Y-67481204D01*
G37*
G04 #@! TD.AperFunction*
D10*
X170053000Y-68707000D03*
G04 #@! TA.AperFunction,ComponentPad*
D11*
G36*
X168157505Y-67608204D02*
G01*
X168181773Y-67611804D01*
X168205572Y-67617765D01*
X168228671Y-67626030D01*
X168250850Y-67636520D01*
X168271893Y-67649132D01*
X168291599Y-67663747D01*
X168309777Y-67680223D01*
X168326253Y-67698401D01*
X168340868Y-67718107D01*
X168353480Y-67739150D01*
X168363970Y-67761329D01*
X168372235Y-67784428D01*
X168378196Y-67808227D01*
X168381796Y-67832495D01*
X168383000Y-67856999D01*
X168383000Y-69557001D01*
X168381796Y-69581505D01*
X168378196Y-69605773D01*
X168372235Y-69629572D01*
X168363970Y-69652671D01*
X168353480Y-69674850D01*
X168340868Y-69695893D01*
X168326253Y-69715599D01*
X168309777Y-69733777D01*
X168291599Y-69750253D01*
X168271893Y-69764868D01*
X168250850Y-69777480D01*
X168228671Y-69787970D01*
X168205572Y-69796235D01*
X168181773Y-69802196D01*
X168157505Y-69805796D01*
X168133001Y-69807000D01*
X166892999Y-69807000D01*
X166868495Y-69805796D01*
X166844227Y-69802196D01*
X166820428Y-69796235D01*
X166797329Y-69787970D01*
X166775150Y-69777480D01*
X166754107Y-69764868D01*
X166734401Y-69750253D01*
X166716223Y-69733777D01*
X166699747Y-69715599D01*
X166685132Y-69695893D01*
X166672520Y-69674850D01*
X166662030Y-69652671D01*
X166653765Y-69629572D01*
X166647804Y-69605773D01*
X166644204Y-69581505D01*
X166643000Y-69557001D01*
X166643000Y-67856999D01*
X166644204Y-67832495D01*
X166647804Y-67808227D01*
X166653765Y-67784428D01*
X166662030Y-67761329D01*
X166672520Y-67739150D01*
X166685132Y-67718107D01*
X166699747Y-67698401D01*
X166716223Y-67680223D01*
X166734401Y-67663747D01*
X166754107Y-67649132D01*
X166775150Y-67636520D01*
X166797329Y-67626030D01*
X166820428Y-67617765D01*
X166844227Y-67611804D01*
X166868495Y-67608204D01*
X166892999Y-67607000D01*
X168133001Y-67607000D01*
X168157505Y-67608204D01*
G37*
G04 #@! TD.AperFunction*
D10*
X152908000Y-68453000D03*
G04 #@! TA.AperFunction,ComponentPad*
D11*
G36*
X151012505Y-67354204D02*
G01*
X151036773Y-67357804D01*
X151060572Y-67363765D01*
X151083671Y-67372030D01*
X151105850Y-67382520D01*
X151126893Y-67395132D01*
X151146599Y-67409747D01*
X151164777Y-67426223D01*
X151181253Y-67444401D01*
X151195868Y-67464107D01*
X151208480Y-67485150D01*
X151218970Y-67507329D01*
X151227235Y-67530428D01*
X151233196Y-67554227D01*
X151236796Y-67578495D01*
X151238000Y-67602999D01*
X151238000Y-69303001D01*
X151236796Y-69327505D01*
X151233196Y-69351773D01*
X151227235Y-69375572D01*
X151218970Y-69398671D01*
X151208480Y-69420850D01*
X151195868Y-69441893D01*
X151181253Y-69461599D01*
X151164777Y-69479777D01*
X151146599Y-69496253D01*
X151126893Y-69510868D01*
X151105850Y-69523480D01*
X151083671Y-69533970D01*
X151060572Y-69542235D01*
X151036773Y-69548196D01*
X151012505Y-69551796D01*
X150988001Y-69553000D01*
X149747999Y-69553000D01*
X149723495Y-69551796D01*
X149699227Y-69548196D01*
X149675428Y-69542235D01*
X149652329Y-69533970D01*
X149630150Y-69523480D01*
X149609107Y-69510868D01*
X149589401Y-69496253D01*
X149571223Y-69479777D01*
X149554747Y-69461599D01*
X149540132Y-69441893D01*
X149527520Y-69420850D01*
X149517030Y-69398671D01*
X149508765Y-69375572D01*
X149502804Y-69351773D01*
X149499204Y-69327505D01*
X149498000Y-69303001D01*
X149498000Y-67602999D01*
X149499204Y-67578495D01*
X149502804Y-67554227D01*
X149508765Y-67530428D01*
X149517030Y-67507329D01*
X149527520Y-67485150D01*
X149540132Y-67464107D01*
X149554747Y-67444401D01*
X149571223Y-67426223D01*
X149589401Y-67409747D01*
X149609107Y-67395132D01*
X149630150Y-67382520D01*
X149652329Y-67372030D01*
X149675428Y-67363765D01*
X149699227Y-67357804D01*
X149723495Y-67354204D01*
X149747999Y-67353000D01*
X150988001Y-67353000D01*
X151012505Y-67354204D01*
G37*
G04 #@! TD.AperFunction*
D10*
X161671000Y-68326000D03*
G04 #@! TA.AperFunction,ComponentPad*
D11*
G36*
X159775505Y-67227204D02*
G01*
X159799773Y-67230804D01*
X159823572Y-67236765D01*
X159846671Y-67245030D01*
X159868850Y-67255520D01*
X159889893Y-67268132D01*
X159909599Y-67282747D01*
X159927777Y-67299223D01*
X159944253Y-67317401D01*
X159958868Y-67337107D01*
X159971480Y-67358150D01*
X159981970Y-67380329D01*
X159990235Y-67403428D01*
X159996196Y-67427227D01*
X159999796Y-67451495D01*
X160001000Y-67475999D01*
X160001000Y-69176001D01*
X159999796Y-69200505D01*
X159996196Y-69224773D01*
X159990235Y-69248572D01*
X159981970Y-69271671D01*
X159971480Y-69293850D01*
X159958868Y-69314893D01*
X159944253Y-69334599D01*
X159927777Y-69352777D01*
X159909599Y-69369253D01*
X159889893Y-69383868D01*
X159868850Y-69396480D01*
X159846671Y-69406970D01*
X159823572Y-69415235D01*
X159799773Y-69421196D01*
X159775505Y-69424796D01*
X159751001Y-69426000D01*
X158510999Y-69426000D01*
X158486495Y-69424796D01*
X158462227Y-69421196D01*
X158438428Y-69415235D01*
X158415329Y-69406970D01*
X158393150Y-69396480D01*
X158372107Y-69383868D01*
X158352401Y-69369253D01*
X158334223Y-69352777D01*
X158317747Y-69334599D01*
X158303132Y-69314893D01*
X158290520Y-69293850D01*
X158280030Y-69271671D01*
X158271765Y-69248572D01*
X158265804Y-69224773D01*
X158262204Y-69200505D01*
X158261000Y-69176001D01*
X158261000Y-67475999D01*
X158262204Y-67451495D01*
X158265804Y-67427227D01*
X158271765Y-67403428D01*
X158280030Y-67380329D01*
X158290520Y-67358150D01*
X158303132Y-67337107D01*
X158317747Y-67317401D01*
X158334223Y-67299223D01*
X158352401Y-67282747D01*
X158372107Y-67268132D01*
X158393150Y-67255520D01*
X158415329Y-67245030D01*
X158438428Y-67236765D01*
X158462227Y-67230804D01*
X158486495Y-67227204D01*
X158510999Y-67226000D01*
X159751001Y-67226000D01*
X159775505Y-67227204D01*
G37*
G04 #@! TD.AperFunction*
D10*
X176022000Y-76835000D03*
G04 #@! TA.AperFunction,ComponentPad*
D11*
G36*
X174126505Y-75736204D02*
G01*
X174150773Y-75739804D01*
X174174572Y-75745765D01*
X174197671Y-75754030D01*
X174219850Y-75764520D01*
X174240893Y-75777132D01*
X174260599Y-75791747D01*
X174278777Y-75808223D01*
X174295253Y-75826401D01*
X174309868Y-75846107D01*
X174322480Y-75867150D01*
X174332970Y-75889329D01*
X174341235Y-75912428D01*
X174347196Y-75936227D01*
X174350796Y-75960495D01*
X174352000Y-75984999D01*
X174352000Y-77685001D01*
X174350796Y-77709505D01*
X174347196Y-77733773D01*
X174341235Y-77757572D01*
X174332970Y-77780671D01*
X174322480Y-77802850D01*
X174309868Y-77823893D01*
X174295253Y-77843599D01*
X174278777Y-77861777D01*
X174260599Y-77878253D01*
X174240893Y-77892868D01*
X174219850Y-77905480D01*
X174197671Y-77915970D01*
X174174572Y-77924235D01*
X174150773Y-77930196D01*
X174126505Y-77933796D01*
X174102001Y-77935000D01*
X172861999Y-77935000D01*
X172837495Y-77933796D01*
X172813227Y-77930196D01*
X172789428Y-77924235D01*
X172766329Y-77915970D01*
X172744150Y-77905480D01*
X172723107Y-77892868D01*
X172703401Y-77878253D01*
X172685223Y-77861777D01*
X172668747Y-77843599D01*
X172654132Y-77823893D01*
X172641520Y-77802850D01*
X172631030Y-77780671D01*
X172622765Y-77757572D01*
X172616804Y-77733773D01*
X172613204Y-77709505D01*
X172612000Y-77685001D01*
X172612000Y-75984999D01*
X172613204Y-75960495D01*
X172616804Y-75936227D01*
X172622765Y-75912428D01*
X172631030Y-75889329D01*
X172641520Y-75867150D01*
X172654132Y-75846107D01*
X172668747Y-75826401D01*
X172685223Y-75808223D01*
X172703401Y-75791747D01*
X172723107Y-75777132D01*
X172744150Y-75764520D01*
X172766329Y-75754030D01*
X172789428Y-75745765D01*
X172813227Y-75739804D01*
X172837495Y-75736204D01*
X172861999Y-75735000D01*
X174102001Y-75735000D01*
X174126505Y-75736204D01*
G37*
G04 #@! TD.AperFunction*
D10*
X169672000Y-76835000D03*
G04 #@! TA.AperFunction,ComponentPad*
D11*
G36*
X167776505Y-75736204D02*
G01*
X167800773Y-75739804D01*
X167824572Y-75745765D01*
X167847671Y-75754030D01*
X167869850Y-75764520D01*
X167890893Y-75777132D01*
X167910599Y-75791747D01*
X167928777Y-75808223D01*
X167945253Y-75826401D01*
X167959868Y-75846107D01*
X167972480Y-75867150D01*
X167982970Y-75889329D01*
X167991235Y-75912428D01*
X167997196Y-75936227D01*
X168000796Y-75960495D01*
X168002000Y-75984999D01*
X168002000Y-77685001D01*
X168000796Y-77709505D01*
X167997196Y-77733773D01*
X167991235Y-77757572D01*
X167982970Y-77780671D01*
X167972480Y-77802850D01*
X167959868Y-77823893D01*
X167945253Y-77843599D01*
X167928777Y-77861777D01*
X167910599Y-77878253D01*
X167890893Y-77892868D01*
X167869850Y-77905480D01*
X167847671Y-77915970D01*
X167824572Y-77924235D01*
X167800773Y-77930196D01*
X167776505Y-77933796D01*
X167752001Y-77935000D01*
X166511999Y-77935000D01*
X166487495Y-77933796D01*
X166463227Y-77930196D01*
X166439428Y-77924235D01*
X166416329Y-77915970D01*
X166394150Y-77905480D01*
X166373107Y-77892868D01*
X166353401Y-77878253D01*
X166335223Y-77861777D01*
X166318747Y-77843599D01*
X166304132Y-77823893D01*
X166291520Y-77802850D01*
X166281030Y-77780671D01*
X166272765Y-77757572D01*
X166266804Y-77733773D01*
X166263204Y-77709505D01*
X166262000Y-77685001D01*
X166262000Y-75984999D01*
X166263204Y-75960495D01*
X166266804Y-75936227D01*
X166272765Y-75912428D01*
X166281030Y-75889329D01*
X166291520Y-75867150D01*
X166304132Y-75846107D01*
X166318747Y-75826401D01*
X166335223Y-75808223D01*
X166353401Y-75791747D01*
X166373107Y-75777132D01*
X166394150Y-75764520D01*
X166416329Y-75754030D01*
X166439428Y-75745765D01*
X166463227Y-75739804D01*
X166487495Y-75736204D01*
X166511999Y-75735000D01*
X167752001Y-75735000D01*
X167776505Y-75736204D01*
G37*
G04 #@! TD.AperFunction*
D10*
X157099000Y-76835000D03*
G04 #@! TA.AperFunction,ComponentPad*
D11*
G36*
X155203505Y-75736204D02*
G01*
X155227773Y-75739804D01*
X155251572Y-75745765D01*
X155274671Y-75754030D01*
X155296850Y-75764520D01*
X155317893Y-75777132D01*
X155337599Y-75791747D01*
X155355777Y-75808223D01*
X155372253Y-75826401D01*
X155386868Y-75846107D01*
X155399480Y-75867150D01*
X155409970Y-75889329D01*
X155418235Y-75912428D01*
X155424196Y-75936227D01*
X155427796Y-75960495D01*
X155429000Y-75984999D01*
X155429000Y-77685001D01*
X155427796Y-77709505D01*
X155424196Y-77733773D01*
X155418235Y-77757572D01*
X155409970Y-77780671D01*
X155399480Y-77802850D01*
X155386868Y-77823893D01*
X155372253Y-77843599D01*
X155355777Y-77861777D01*
X155337599Y-77878253D01*
X155317893Y-77892868D01*
X155296850Y-77905480D01*
X155274671Y-77915970D01*
X155251572Y-77924235D01*
X155227773Y-77930196D01*
X155203505Y-77933796D01*
X155179001Y-77935000D01*
X153938999Y-77935000D01*
X153914495Y-77933796D01*
X153890227Y-77930196D01*
X153866428Y-77924235D01*
X153843329Y-77915970D01*
X153821150Y-77905480D01*
X153800107Y-77892868D01*
X153780401Y-77878253D01*
X153762223Y-77861777D01*
X153745747Y-77843599D01*
X153731132Y-77823893D01*
X153718520Y-77802850D01*
X153708030Y-77780671D01*
X153699765Y-77757572D01*
X153693804Y-77733773D01*
X153690204Y-77709505D01*
X153689000Y-77685001D01*
X153689000Y-75984999D01*
X153690204Y-75960495D01*
X153693804Y-75936227D01*
X153699765Y-75912428D01*
X153708030Y-75889329D01*
X153718520Y-75867150D01*
X153731132Y-75846107D01*
X153745747Y-75826401D01*
X153762223Y-75808223D01*
X153780401Y-75791747D01*
X153800107Y-75777132D01*
X153821150Y-75764520D01*
X153843329Y-75754030D01*
X153866428Y-75745765D01*
X153890227Y-75739804D01*
X153914495Y-75736204D01*
X153938999Y-75735000D01*
X155179001Y-75735000D01*
X155203505Y-75736204D01*
G37*
G04 #@! TD.AperFunction*
D12*
X159512000Y-53467000D03*
X159512000Y-56007000D03*
X159512000Y-58547000D03*
G04 #@! TA.AperFunction,ComponentPad*
D11*
G36*
X160386505Y-60218204D02*
G01*
X160410773Y-60221804D01*
X160434572Y-60227765D01*
X160457671Y-60236030D01*
X160479850Y-60246520D01*
X160500893Y-60259132D01*
X160520599Y-60273747D01*
X160538777Y-60290223D01*
X160555253Y-60308401D01*
X160569868Y-60328107D01*
X160582480Y-60349150D01*
X160592970Y-60371329D01*
X160601235Y-60394428D01*
X160607196Y-60418227D01*
X160610796Y-60442495D01*
X160612000Y-60466999D01*
X160612000Y-61707001D01*
X160610796Y-61731505D01*
X160607196Y-61755773D01*
X160601235Y-61779572D01*
X160592970Y-61802671D01*
X160582480Y-61824850D01*
X160569868Y-61845893D01*
X160555253Y-61865599D01*
X160538777Y-61883777D01*
X160520599Y-61900253D01*
X160500893Y-61914868D01*
X160479850Y-61927480D01*
X160457671Y-61937970D01*
X160434572Y-61946235D01*
X160410773Y-61952196D01*
X160386505Y-61955796D01*
X160362001Y-61957000D01*
X158661999Y-61957000D01*
X158637495Y-61955796D01*
X158613227Y-61952196D01*
X158589428Y-61946235D01*
X158566329Y-61937970D01*
X158544150Y-61927480D01*
X158523107Y-61914868D01*
X158503401Y-61900253D01*
X158485223Y-61883777D01*
X158468747Y-61865599D01*
X158454132Y-61845893D01*
X158441520Y-61824850D01*
X158431030Y-61802671D01*
X158422765Y-61779572D01*
X158416804Y-61755773D01*
X158413204Y-61731505D01*
X158412000Y-61707001D01*
X158412000Y-60466999D01*
X158413204Y-60442495D01*
X158416804Y-60418227D01*
X158422765Y-60394428D01*
X158431030Y-60371329D01*
X158441520Y-60349150D01*
X158454132Y-60328107D01*
X158468747Y-60308401D01*
X158485223Y-60290223D01*
X158503401Y-60273747D01*
X158523107Y-60259132D01*
X158544150Y-60246520D01*
X158566329Y-60236030D01*
X158589428Y-60227765D01*
X158613227Y-60221804D01*
X158637495Y-60218204D01*
X158661999Y-60217000D01*
X160362001Y-60217000D01*
X160386505Y-60218204D01*
G37*
G04 #@! TD.AperFunction*
D13*
X183515000Y-72390000D03*
D14*
X183515000Y-64770000D03*
D10*
X163322000Y-76835000D03*
G04 #@! TA.AperFunction,ComponentPad*
D11*
G36*
X161426505Y-75736204D02*
G01*
X161450773Y-75739804D01*
X161474572Y-75745765D01*
X161497671Y-75754030D01*
X161519850Y-75764520D01*
X161540893Y-75777132D01*
X161560599Y-75791747D01*
X161578777Y-75808223D01*
X161595253Y-75826401D01*
X161609868Y-75846107D01*
X161622480Y-75867150D01*
X161632970Y-75889329D01*
X161641235Y-75912428D01*
X161647196Y-75936227D01*
X161650796Y-75960495D01*
X161652000Y-75984999D01*
X161652000Y-77685001D01*
X161650796Y-77709505D01*
X161647196Y-77733773D01*
X161641235Y-77757572D01*
X161632970Y-77780671D01*
X161622480Y-77802850D01*
X161609868Y-77823893D01*
X161595253Y-77843599D01*
X161578777Y-77861777D01*
X161560599Y-77878253D01*
X161540893Y-77892868D01*
X161519850Y-77905480D01*
X161497671Y-77915970D01*
X161474572Y-77924235D01*
X161450773Y-77930196D01*
X161426505Y-77933796D01*
X161402001Y-77935000D01*
X160161999Y-77935000D01*
X160137495Y-77933796D01*
X160113227Y-77930196D01*
X160089428Y-77924235D01*
X160066329Y-77915970D01*
X160044150Y-77905480D01*
X160023107Y-77892868D01*
X160003401Y-77878253D01*
X159985223Y-77861777D01*
X159968747Y-77843599D01*
X159954132Y-77823893D01*
X159941520Y-77802850D01*
X159931030Y-77780671D01*
X159922765Y-77757572D01*
X159916804Y-77733773D01*
X159913204Y-77709505D01*
X159912000Y-77685001D01*
X159912000Y-75984999D01*
X159913204Y-75960495D01*
X159916804Y-75936227D01*
X159922765Y-75912428D01*
X159931030Y-75889329D01*
X159941520Y-75867150D01*
X159954132Y-75846107D01*
X159968747Y-75826401D01*
X159985223Y-75808223D01*
X160003401Y-75791747D01*
X160023107Y-75777132D01*
X160044150Y-75764520D01*
X160066329Y-75754030D01*
X160089428Y-75745765D01*
X160113227Y-75739804D01*
X160137495Y-75736204D01*
X160161999Y-75735000D01*
X161402001Y-75735000D01*
X161426505Y-75736204D01*
G37*
G04 #@! TD.AperFunction*
D13*
X173228000Y-61849000D03*
D14*
X165608000Y-61849000D03*
D13*
X173228000Y-58547000D03*
D14*
X165608000Y-58547000D03*
D13*
X173355000Y-55626000D03*
D14*
X165735000Y-55626000D03*
D13*
X173355000Y-52451000D03*
D14*
X165735000Y-52451000D03*
D15*
X173228000Y-58547000D02*
X173228000Y-57421700D01*
X173355000Y-52451000D02*
X173355000Y-53576300D01*
X173355000Y-53576300D02*
X172218600Y-54712700D01*
X172218600Y-54712700D02*
X172218600Y-56412300D01*
X172218600Y-56412300D02*
X173228000Y-57421700D01*
X165735000Y-52451000D02*
X165735000Y-53576300D01*
X159131000Y-68326000D02*
X164200100Y-63256900D01*
X164200100Y-63256900D02*
X164200100Y-54970500D01*
X164200100Y-54970500D02*
X165594300Y-53576300D01*
X165594300Y-53576300D02*
X165735000Y-53576300D01*
X173228000Y-61849000D02*
X173228000Y-60723700D01*
X173355000Y-55626000D02*
X173355000Y-56751300D01*
X173355000Y-56751300D02*
X174353300Y-57749600D01*
X174353300Y-57749600D02*
X174353300Y-59598400D01*
X174353300Y-59598400D02*
X173228000Y-60723700D01*
X165608000Y-58547000D02*
X165608000Y-59672300D01*
X165608000Y-59672300D02*
X167513000Y-61577300D01*
X167513000Y-61577300D02*
X167513000Y-68707000D01*
X169672000Y-76835000D02*
X170867300Y-76835000D01*
X176022000Y-76835000D02*
X174826700Y-76835000D01*
X174826700Y-76835000D02*
X174826700Y-77806200D01*
X174826700Y-77806200D02*
X174367800Y-78265100D01*
X174367800Y-78265100D02*
X172297400Y-78265100D01*
X172297400Y-78265100D02*
X170867300Y-76835000D01*
X183515000Y-64770000D02*
X183515000Y-66802000D01*
X183515000Y-66802000D02*
X173482000Y-76835000D01*
X159512000Y-53467000D02*
X159512000Y-52271700D01*
X170650700Y-68707000D02*
X170650700Y-55242500D01*
X170650700Y-55242500D02*
X166733800Y-51325600D01*
X166733800Y-51325600D02*
X160458100Y-51325600D01*
X160458100Y-51325600D02*
X159512000Y-52271700D01*
X170650700Y-68707000D02*
X171248300Y-68707000D01*
X170053000Y-68707000D02*
X170650700Y-68707000D01*
X178689000Y-68580000D02*
X177493700Y-68580000D01*
X171248300Y-68707000D02*
X172591900Y-70050600D01*
X172591900Y-70050600D02*
X176994300Y-70050600D01*
X176994300Y-70050600D02*
X177493700Y-69551200D01*
X177493700Y-69551200D02*
X177493700Y-68580000D01*
X159512000Y-56007000D02*
X159512000Y-57202300D01*
X159512000Y-57202300D02*
X158914400Y-57202300D01*
X158914400Y-57202300D02*
X152908000Y-63208700D01*
X152908000Y-63208700D02*
X152908000Y-68453000D01*
M02*
