  0
SECTION
  2
HEADER
  9
$ANGBASE
  50
0.0
  9
$ANGDIR
  70
1
  9
$MEASUREMENT
  70
1
  0
ENDSEC
  0
SECTION
  2
TABLES
  0
TABLE
  2
LTYPE
  70
4
  0
LTYPE
  5
40F
  2
CONTINUOUS
  70
0
  3
Solid line
  72
65
  73
0
  40
0.0
  0
LTYPE
  5
410
  2
DASHDOT
 70
0
  3
Dash Dot ____ _ ____ _
 72
65
 73
4
 40
2.0
 49
1.25
 49
-0.25
 49
0.25
 49
-0.25
  0
LTYPE
  5
411
  2
DASHED
 70
0
  3
Dashed __ __ __ __ __
 72
65
 73
2
 40
0.75
 49
0.5
 49
-0.25
  0
LTYPE
  5
43B
  2
DOTTED
 70
0
  3
Dotted .  .  .  .
 72
65
 73
2
 40
0.2
 49
0.0
 49
-0.2
  0
ENDTAB
  0
TABLE
  2
STYLE
  70
4
  0
STYLE
  2
KICAD
  70
0
  40
0
  41
1
  42
1
  50
0
  71
0
  3
isocp.shx
  0
STYLE
  2
KICADB
  70
0
  40
0
  41
1
  42
1
  50
0
  71
0
  3
isocp.shx
  0
STYLE
  2
KICADI
  70
0
  40
0
  41
1
  42
1
  50
15
  71
0
  3
isocp.shx
  0
STYLE
  2
KICADBI
  70
0
  40
0
  41
1
  42
1
  50
15
  71
0
  3
isocp.shx
  0
ENDTAB
  0
TABLE
  2
LAYER
  70
1
  0
LAYER
  2
BLACK
  70
0
  62
7
  6
CONTINUOUS
  0
ENDTAB
  0
ENDSEC
  0
SECTION
  2
ENTITIES
0
LINE
8
BLACK
6
CONTINUOUS
10
186.69
20
-50.8
11
186.69
21
-82.296
0
LINE
8
BLACK
6
CONTINUOUS
10
145.034
20
-82.296
11
186.69
21
-82.296
0
LINE
8
BLACK
6
CONTINUOUS
10
145.034
20
-50.8
11
145.034
21
-82.296
0
LINE
8
BLACK
6
CONTINUOUS
10
186.69
20
-50.8
11
145.034
21
-50.8
0
LINE
8
BLACK
6
CONTINUOUS
10
146.708
20
-52.394
11
149.908
21
-55.594
0
LINE
8
BLACK
6
CONTINUOUS
10
149.908
20
-52.394
11
146.708
21
-55.594
0
LINE
8
BLACK
6
CONTINUOUS
10
181.708
20
-52.394
11
184.908
21
-55.594
0
LINE
8
BLACK
6
CONTINUOUS
10
184.908
20
-52.394
11
181.708
21
-55.594
0
LINE
8
BLACK
6
CONTINUOUS
10
146.708
20
-77.394
11
149.908
21
-80.594
0
LINE
8
BLACK
6
CONTINUOUS
10
149.908
20
-77.394
11
146.708
21
-80.594
0
LINE
8
BLACK
6
CONTINUOUS
10
181.708
20
-77.394
11
184.908
21
-80.594
0
LINE
8
BLACK
6
CONTINUOUS
10
184.908
20
-77.394
11
181.708
21
-80.594
0
LINE
8
BLACK
6
CONTINUOUS
10
147.873
20
-86.9781
11
147.873
21
-83.9781
0
LINE
8
BLACK
6
CONTINUOUS
10
147.873
20
-83.9781
11
148.588
21
-83.9781
0
LINE
8
BLACK
6
CONTINUOUS
10
148.588
20
-83.9781
11
149.016
21
-84.121
0
LINE
8
BLACK
6
CONTINUOUS
10
149.016
20
-84.121
11
149.302
21
-84.4067
0
LINE
8
BLACK
6
CONTINUOUS
10
149.302
20
-84.4067
11
149.445
21
-84.6924
0
LINE
8
BLACK
6
CONTINUOUS
10
149.445
20
-84.6924
11
149.588
21
-85.2639
0
LINE
8
BLACK
6
CONTINUOUS
10
149.588
20
-85.2639
11
149.588
21
-85.6924
0
LINE
8
BLACK
6
CONTINUOUS
10
149.588
20
-85.6924
11
149.445
21
-86.2639
0
LINE
8
BLACK
6
CONTINUOUS
10
149.445
20
-86.2639
11
149.302
21
-86.5496
0
LINE
8
BLACK
6
CONTINUOUS
10
149.302
20
-86.5496
11
149.016
21
-86.8353
0
LINE
8
BLACK
6
CONTINUOUS
10
149.016
20
-86.8353
11
148.588
21
-86.9781
0
LINE
8
BLACK
6
CONTINUOUS
10
148.588
20
-86.9781
11
147.873
21
-86.9781
0
LINE
8
BLACK
6
CONTINUOUS
10
150.873
20
-86.9781
11
150.873
21
-84.9781
0
LINE
8
BLACK
6
CONTINUOUS
10
150.873
20
-85.5496
11
151.016
21
-85.2639
0
LINE
8
BLACK
6
CONTINUOUS
10
151.016
20
-85.2639
11
151.159
21
-85.121
0
LINE
8
BLACK
6
CONTINUOUS
10
151.159
20
-85.121
11
151.445
21
-84.9781
0
LINE
8
BLACK
6
CONTINUOUS
10
151.445
20
-84.9781
11
151.73
21
-84.9781
0
LINE
8
BLACK
6
CONTINUOUS
10
152.73
20
-86.9781
11
152.73
21
-84.9781
0
LINE
8
BLACK
6
CONTINUOUS
10
152.73
20
-83.9781
11
152.588
21
-84.121
0
LINE
8
BLACK
6
CONTINUOUS
10
152.588
20
-84.121
11
152.73
21
-84.2639
0
LINE
8
BLACK
6
CONTINUOUS
10
152.73
20
-84.2639
11
152.873
21
-84.121
0
LINE
8
BLACK
6
CONTINUOUS
10
152.873
20
-84.121
11
152.73
21
-83.9781
0
LINE
8
BLACK
6
CONTINUOUS
10
152.73
20
-83.9781
11
152.73
21
-84.2639
0
LINE
8
BLACK
6
CONTINUOUS
10
154.588
20
-86.9781
11
154.302
21
-86.8353
0
LINE
8
BLACK
6
CONTINUOUS
10
154.302
20
-86.8353
11
154.159
21
-86.5496
0
LINE
8
BLACK
6
CONTINUOUS
10
154.159
20
-86.5496
11
154.159
21
-83.9781
0
LINE
8
BLACK
6
CONTINUOUS
10
156.159
20
-86.9781
11
155.873
21
-86.8353
0
LINE
8
BLACK
6
CONTINUOUS
10
155.873
20
-86.8353
11
155.73
21
-86.5496
0
LINE
8
BLACK
6
CONTINUOUS
10
155.73
20
-86.5496
11
155.73
21
-83.9781
0
LINE
8
BLACK
6
CONTINUOUS
10
159.588
20
-86.9781
11
159.588
21
-83.9781
0
LINE
8
BLACK
6
CONTINUOUS
10
159.588
20
-83.9781
11
160.588
21
-86.121
0
LINE
8
BLACK
6
CONTINUOUS
10
160.588
20
-86.121
11
161.588
21
-83.9781
0
LINE
8
BLACK
6
CONTINUOUS
10
161.588
20
-83.9781
11
161.588
21
-86.9781
0
LINE
8
BLACK
6
CONTINUOUS
10
164.302
20
-86.9781
11
164.302
21
-85.4067
0
LINE
8
BLACK
6
CONTINUOUS
10
164.302
20
-85.4067
11
164.159
21
-85.121
0
LINE
8
BLACK
6
CONTINUOUS
10
164.159
20
-85.121
11
163.873
21
-84.9781
0
LINE
8
BLACK
6
CONTINUOUS
10
163.873
20
-84.9781
11
163.302
21
-84.9781
0
LINE
8
BLACK
6
CONTINUOUS
10
163.302
20
-84.9781
11
163.016
21
-85.121
0
LINE
8
BLACK
6
CONTINUOUS
10
164.302
20
-86.8353
11
164.016
21
-86.9781
0
LINE
8
BLACK
6
CONTINUOUS
10
164.016
20
-86.9781
11
163.302
21
-86.9781
0
LINE
8
BLACK
6
CONTINUOUS
10
163.302
20
-86.9781
11
163.016
21
-86.8353
0
LINE
8
BLACK
6
CONTINUOUS
10
163.016
20
-86.8353
11
162.873
21
-86.5496
0
LINE
8
BLACK
6
CONTINUOUS
10
162.873
20
-86.5496
11
162.873
21
-86.2639
0
LINE
8
BLACK
6
CONTINUOUS
10
162.873
20
-86.2639
11
163.016
21
-85.9781
0
LINE
8
BLACK
6
CONTINUOUS
10
163.016
20
-85.9781
11
163.302
21
-85.8353
0
LINE
8
BLACK
6
CONTINUOUS
10
163.302
20
-85.8353
11
164.016
21
-85.8353
0
LINE
8
BLACK
6
CONTINUOUS
10
164.016
20
-85.8353
11
164.302
21
-85.6924
0
LINE
8
BLACK
6
CONTINUOUS
10
165.73
20
-84.9781
11
165.73
21
-87.9781
0
LINE
8
BLACK
6
CONTINUOUS
10
165.73
20
-85.121
11
166.016
21
-84.9781
0
LINE
8
BLACK
6
CONTINUOUS
10
166.016
20
-84.9781
11
166.588
21
-84.9781
0
LINE
8
BLACK
6
CONTINUOUS
10
166.588
20
-84.9781
11
166.873
21
-85.121
0
LINE
8
BLACK
6
CONTINUOUS
10
166.873
20
-85.121
11
167.016
21
-85.2639
0
LINE
8
BLACK
6
CONTINUOUS
10
167.016
20
-85.2639
11
167.159
21
-85.5496
0
LINE
8
BLACK
6
CONTINUOUS
10
167.159
20
-85.5496
11
167.159
21
-86.4067
0
LINE
8
BLACK
6
CONTINUOUS
10
167.159
20
-86.4067
11
167.016
21
-86.6924
0
LINE
8
BLACK
6
CONTINUOUS
10
167.016
20
-86.6924
11
166.873
21
-86.8353
0
LINE
8
BLACK
6
CONTINUOUS
10
166.873
20
-86.8353
11
166.588
21
-86.9781
0
LINE
8
BLACK
6
CONTINUOUS
10
166.588
20
-86.9781
11
166.016
21
-86.9781
0
LINE
8
BLACK
6
CONTINUOUS
10
166.016
20
-86.9781
11
165.73
21
-86.8353
0
LINE
8
BLACK
6
CONTINUOUS
10
168.445
20
-86.6924
11
168.588
21
-86.8353
0
LINE
8
BLACK
6
CONTINUOUS
10
168.588
20
-86.8353
11
168.445
21
-86.9781
0
LINE
8
BLACK
6
CONTINUOUS
10
168.445
20
-86.9781
11
168.302
21
-86.8353
0
LINE
8
BLACK
6
CONTINUOUS
10
168.302
20
-86.8353
11
168.445
21
-86.6924
0
LINE
8
BLACK
6
CONTINUOUS
10
168.445
20
-86.6924
11
168.445
21
-86.9781
0
LINE
8
BLACK
6
CONTINUOUS
10
168.445
20
-85.121
11
168.588
21
-85.2639
0
LINE
8
BLACK
6
CONTINUOUS
10
168.588
20
-85.2639
11
168.445
21
-85.4067
0
LINE
8
BLACK
6
CONTINUOUS
10
168.445
20
-85.4067
11
168.302
21
-85.2639
0
LINE
8
BLACK
6
CONTINUOUS
10
168.302
20
-85.2639
11
168.445
21
-85.121
0
LINE
8
BLACK
6
CONTINUOUS
10
168.445
20
-85.121
11
168.445
21
-85.4067
0
LINE
8
BLACK
6
CONTINUOUS
10
141.809
20
-90.321
11
145.009
21
-93.521
0
LINE
8
BLACK
6
CONTINUOUS
10
145.009
20
-90.321
11
141.809
21
-93.521
0
LINE
8
BLACK
6
CONTINUOUS
10
147.588
20
-90.2781
11
149.445
21
-90.2781
0
LINE
8
BLACK
6
CONTINUOUS
10
149.445
20
-90.2781
11
148.445
21
-91.421
0
LINE
8
BLACK
6
CONTINUOUS
10
148.445
20
-91.421
11
148.873
21
-91.421
0
LINE
8
BLACK
6
CONTINUOUS
10
148.873
20
-91.421
11
149.159
21
-91.5639
0
LINE
8
BLACK
6
CONTINUOUS
10
149.159
20
-91.5639
11
149.302
21
-91.7067
0
LINE
8
BLACK
6
CONTINUOUS
10
149.302
20
-91.7067
11
149.445
21
-91.9924
0
LINE
8
BLACK
6
CONTINUOUS
10
149.445
20
-91.9924
11
149.445
21
-92.7067
0
LINE
8
BLACK
6
CONTINUOUS
10
149.445
20
-92.7067
11
149.302
21
-92.9924
0
LINE
8
BLACK
6
CONTINUOUS
10
149.302
20
-92.9924
11
149.159
21
-93.1353
0
LINE
8
BLACK
6
CONTINUOUS
10
149.159
20
-93.1353
11
148.873
21
-93.2781
0
LINE
8
BLACK
6
CONTINUOUS
10
148.873
20
-93.2781
11
148.016
21
-93.2781
0
LINE
8
BLACK
6
CONTINUOUS
10
148.016
20
-93.2781
11
147.73
21
-93.1353
0
LINE
8
BLACK
6
CONTINUOUS
10
147.73
20
-93.1353
11
147.588
21
-92.9924
0
LINE
8
BLACK
6
CONTINUOUS
10
150.73
20
-92.9924
11
150.873
21
-93.1353
0
LINE
8
BLACK
6
CONTINUOUS
10
150.873
20
-93.1353
11
150.73
21
-93.2781
0
LINE
8
BLACK
6
CONTINUOUS
10
150.73
20
-93.2781
11
150.588
21
-93.1353
0
LINE
8
BLACK
6
CONTINUOUS
10
150.588
20
-93.1353
11
150.73
21
-92.9924
0
LINE
8
BLACK
6
CONTINUOUS
10
150.73
20
-92.9924
11
150.73
21
-93.2781
0
LINE
8
BLACK
6
CONTINUOUS
10
152.016
20
-90.5639
11
152.159
21
-90.421
0
LINE
8
BLACK
6
CONTINUOUS
10
152.159
20
-90.421
11
152.445
21
-90.2781
0
LINE
8
BLACK
6
CONTINUOUS
10
152.445
20
-90.2781
11
153.159
21
-90.2781
0
LINE
8
BLACK
6
CONTINUOUS
10
153.159
20
-90.2781
11
153.445
21
-90.421
0
LINE
8
BLACK
6
CONTINUOUS
10
153.445
20
-90.421
11
153.588
21
-90.5639
0
LINE
8
BLACK
6
CONTINUOUS
10
153.588
20
-90.5639
11
153.73
21
-90.8496
0
LINE
8
BLACK
6
CONTINUOUS
10
153.73
20
-90.8496
11
153.73
21
-91.1353
0
LINE
8
BLACK
6
CONTINUOUS
10
153.73
20
-91.1353
11
153.588
21
-91.5639
0
LINE
8
BLACK
6
CONTINUOUS
10
153.588
20
-91.5639
11
151.873
21
-93.2781
0
LINE
8
BLACK
6
CONTINUOUS
10
151.873
20
-93.2781
11
153.73
21
-93.2781
0
LINE
8
BLACK
6
CONTINUOUS
10
155.588
20
-90.2781
11
155.873
21
-90.2781
0
LINE
8
BLACK
6
CONTINUOUS
10
155.873
20
-90.2781
11
156.159
21
-90.421
0
LINE
8
BLACK
6
CONTINUOUS
10
156.159
20
-90.421
11
156.302
21
-90.5639
0
LINE
8
BLACK
6
CONTINUOUS
10
156.302
20
-90.5639
11
156.445
21
-90.8496
0
LINE
8
BLACK
6
CONTINUOUS
10
156.445
20
-90.8496
11
156.588
21
-91.421
0
LINE
8
BLACK
6
CONTINUOUS
10
156.588
20
-91.421
11
156.588
21
-92.1353
0
LINE
8
BLACK
6
CONTINUOUS
10
156.588
20
-92.1353
11
156.445
21
-92.7067
0
LINE
8
BLACK
6
CONTINUOUS
10
156.445
20
-92.7067
11
156.302
21
-92.9924
0
LINE
8
BLACK
6
CONTINUOUS
10
156.302
20
-92.9924
11
156.159
21
-93.1353
0
LINE
8
BLACK
6
CONTINUOUS
10
156.159
20
-93.1353
11
155.873
21
-93.2781
0
LINE
8
BLACK
6
CONTINUOUS
10
155.873
20
-93.2781
11
155.588
21
-93.2781
0
LINE
8
BLACK
6
CONTINUOUS
10
155.588
20
-93.2781
11
155.302
21
-93.1353
0
LINE
8
BLACK
6
CONTINUOUS
10
155.302
20
-93.1353
11
155.159
21
-92.9924
0
LINE
8
BLACK
6
CONTINUOUS
10
155.159
20
-92.9924
11
155.016
21
-92.7067
0
LINE
8
BLACK
6
CONTINUOUS
10
155.016
20
-92.7067
11
154.873
21
-92.1353
0
LINE
8
BLACK
6
CONTINUOUS
10
154.873
20
-92.1353
11
154.873
21
-91.421
0
LINE
8
BLACK
6
CONTINUOUS
10
154.873
20
-91.421
11
155.016
21
-90.8496
0
LINE
8
BLACK
6
CONTINUOUS
10
155.016
20
-90.8496
11
155.159
21
-90.5639
0
LINE
8
BLACK
6
CONTINUOUS
10
155.159
20
-90.5639
11
155.302
21
-90.421
0
LINE
8
BLACK
6
CONTINUOUS
10
155.302
20
-90.421
11
155.588
21
-90.2781
0
LINE
8
BLACK
6
CONTINUOUS
10
157.873
20
-93.2781
11
157.873
21
-91.2781
0
LINE
8
BLACK
6
CONTINUOUS
10
157.873
20
-91.5639
11
158.016
21
-91.421
0
LINE
8
BLACK
6
CONTINUOUS
10
158.016
20
-91.421
11
158.302
21
-91.2781
0
LINE
8
BLACK
6
CONTINUOUS
10
158.302
20
-91.2781
11
158.73
21
-91.2781
0
LINE
8
BLACK
6
CONTINUOUS
10
158.73
20
-91.2781
11
159.016
21
-91.421
0
LINE
8
BLACK
6
CONTINUOUS
10
159.016
20
-91.421
11
159.159
21
-91.7067
0
LINE
8
BLACK
6
CONTINUOUS
10
159.159
20
-91.7067
11
159.159
21
-93.2781
0
LINE
8
BLACK
6
CONTINUOUS
10
159.159
20
-91.7067
11
159.302
21
-91.421
0
LINE
8
BLACK
6
CONTINUOUS
10
159.302
20
-91.421
11
159.588
21
-91.2781
0
LINE
8
BLACK
6
CONTINUOUS
10
159.588
20
-91.2781
11
160.016
21
-91.2781
0
LINE
8
BLACK
6
CONTINUOUS
10
160.016
20
-91.2781
11
160.302
21
-91.421
0
LINE
8
BLACK
6
CONTINUOUS
10
160.302
20
-91.421
11
160.445
21
-91.7067
0
LINE
8
BLACK
6
CONTINUOUS
10
160.445
20
-91.7067
11
160.445
21
-93.2781
0
LINE
8
BLACK
6
CONTINUOUS
10
161.873
20
-93.2781
11
161.873
21
-91.2781
0
LINE
8
BLACK
6
CONTINUOUS
10
161.873
20
-91.5639
11
162.016
21
-91.421
0
LINE
8
BLACK
6
CONTINUOUS
10
162.016
20
-91.421
11
162.302
21
-91.2781
0
LINE
8
BLACK
6
CONTINUOUS
10
162.302
20
-91.2781
11
162.73
21
-91.2781
0
LINE
8
BLACK
6
CONTINUOUS
10
162.73
20
-91.2781
11
163.016
21
-91.421
0
LINE
8
BLACK
6
CONTINUOUS
10
163.016
20
-91.421
11
163.159
21
-91.7067
0
LINE
8
BLACK
6
CONTINUOUS
10
163.159
20
-91.7067
11
163.159
21
-93.2781
0
LINE
8
BLACK
6
CONTINUOUS
10
163.159
20
-91.7067
11
163.302
21
-91.421
0
LINE
8
BLACK
6
CONTINUOUS
10
163.302
20
-91.421
11
163.588
21
-91.2781
0
LINE
8
BLACK
6
CONTINUOUS
10
163.588
20
-91.2781
11
164.016
21
-91.2781
0
LINE
8
BLACK
6
CONTINUOUS
10
164.016
20
-91.2781
11
164.302
21
-91.421
0
LINE
8
BLACK
6
CONTINUOUS
10
164.302
20
-91.421
11
164.445
21
-91.7067
0
LINE
8
BLACK
6
CONTINUOUS
10
164.445
20
-91.7067
11
164.445
21
-93.2781
0
LINE
8
BLACK
6
CONTINUOUS
10
170.302
20
-90.1353
11
167.73
21
-93.9924
0
LINE
8
BLACK
6
CONTINUOUS
10
174.159
20
-90.2781
11
174.445
21
-90.2781
0
LINE
8
BLACK
6
CONTINUOUS
10
174.445
20
-90.2781
11
174.73
21
-90.421
0
LINE
8
BLACK
6
CONTINUOUS
10
174.73
20
-90.421
11
174.873
21
-90.5639
0
LINE
8
BLACK
6
CONTINUOUS
10
174.873
20
-90.5639
11
175.016
21
-90.8496
0
LINE
8
BLACK
6
CONTINUOUS
10
175.016
20
-90.8496
11
175.159
21
-91.421
0
LINE
8
BLACK
6
CONTINUOUS
10
175.159
20
-91.421
11
175.159
21
-92.1353
0
LINE
8
BLACK
6
CONTINUOUS
10
175.159
20
-92.1353
11
175.016
21
-92.7067
0
LINE
8
BLACK
6
CONTINUOUS
10
175.016
20
-92.7067
11
174.873
21
-92.9924
0
LINE
8
BLACK
6
CONTINUOUS
10
174.873
20
-92.9924
11
174.73
21
-93.1353
0
LINE
8
BLACK
6
CONTINUOUS
10
174.73
20
-93.1353
11
174.445
21
-93.2781
0
LINE
8
BLACK
6
CONTINUOUS
10
174.445
20
-93.2781
11
174.159
21
-93.2781
0
LINE
8
BLACK
6
CONTINUOUS
10
174.159
20
-93.2781
11
173.873
21
-93.1353
0
LINE
8
BLACK
6
CONTINUOUS
10
173.873
20
-93.1353
11
173.73
21
-92.9924
0
LINE
8
BLACK
6
CONTINUOUS
10
173.73
20
-92.9924
11
173.588
21
-92.7067
0
LINE
8
BLACK
6
CONTINUOUS
10
173.588
20
-92.7067
11
173.445
21
-92.1353
0
LINE
8
BLACK
6
CONTINUOUS
10
173.445
20
-92.1353
11
173.445
21
-91.421
0
LINE
8
BLACK
6
CONTINUOUS
10
173.445
20
-91.421
11
173.588
21
-90.8496
0
LINE
8
BLACK
6
CONTINUOUS
10
173.588
20
-90.8496
11
173.73
21
-90.5639
0
LINE
8
BLACK
6
CONTINUOUS
10
173.73
20
-90.5639
11
173.873
21
-90.421
0
LINE
8
BLACK
6
CONTINUOUS
10
173.873
20
-90.421
11
174.159
21
-90.2781
0
LINE
8
BLACK
6
CONTINUOUS
10
176.445
20
-92.9924
11
176.588
21
-93.1353
0
LINE
8
BLACK
6
CONTINUOUS
10
176.588
20
-93.1353
11
176.445
21
-93.2781
0
LINE
8
BLACK
6
CONTINUOUS
10
176.445
20
-93.2781
11
176.302
21
-93.1353
0
LINE
8
BLACK
6
CONTINUOUS
10
176.302
20
-93.1353
11
176.445
21
-92.9924
0
LINE
8
BLACK
6
CONTINUOUS
10
176.445
20
-92.9924
11
176.445
21
-93.2781
0
LINE
8
BLACK
6
CONTINUOUS
10
179.445
20
-93.2781
11
177.73
21
-93.2781
0
LINE
8
BLACK
6
CONTINUOUS
10
178.588
20
-93.2781
11
178.588
21
-90.2781
0
LINE
8
BLACK
6
CONTINUOUS
10
178.588
20
-90.2781
11
178.302
21
-90.7067
0
LINE
8
BLACK
6
CONTINUOUS
10
178.302
20
-90.7067
11
178.016
21
-90.9924
0
LINE
8
BLACK
6
CONTINUOUS
10
178.016
20
-90.9924
11
177.73
21
-91.1353
0
LINE
8
BLACK
6
CONTINUOUS
10
180.588
20
-90.5639
11
180.73
21
-90.421
0
LINE
8
BLACK
6
CONTINUOUS
10
180.73
20
-90.421
11
181.016
21
-90.2781
0
LINE
8
BLACK
6
CONTINUOUS
10
181.016
20
-90.2781
11
181.73
21
-90.2781
0
LINE
8
BLACK
6
CONTINUOUS
10
181.73
20
-90.2781
11
182.016
21
-90.421
0
LINE
8
BLACK
6
CONTINUOUS
10
182.016
20
-90.421
11
182.159
21
-90.5639
0
LINE
8
BLACK
6
CONTINUOUS
10
182.159
20
-90.5639
11
182.302
21
-90.8496
0
LINE
8
BLACK
6
CONTINUOUS
10
182.302
20
-90.8496
11
182.302
21
-91.1353
0
LINE
8
BLACK
6
CONTINUOUS
10
182.302
20
-91.1353
11
182.159
21
-91.5639
0
LINE
8
BLACK
6
CONTINUOUS
10
182.159
20
-91.5639
11
180.445
21
-93.2781
0
LINE
8
BLACK
6
CONTINUOUS
10
180.445
20
-93.2781
11
182.302
21
-93.2781
0
LINE
8
BLACK
6
CONTINUOUS
10
184.873
20
-90.2781
11
184.302
21
-90.2781
0
LINE
8
BLACK
6
CONTINUOUS
10
184.302
20
-90.2781
11
184.016
21
-90.421
0
LINE
8
BLACK
6
CONTINUOUS
10
184.016
20
-90.421
11
183.873
21
-90.5639
0
LINE
8
BLACK
6
CONTINUOUS
10
183.873
20
-90.5639
11
183.588
21
-90.9924
0
LINE
8
BLACK
6
CONTINUOUS
10
183.588
20
-90.9924
11
183.445
21
-91.5639
0
LINE
8
BLACK
6
CONTINUOUS
10
183.445
20
-91.5639
11
183.445
21
-92.7067
0
LINE
8
BLACK
6
CONTINUOUS
10
183.445
20
-92.7067
11
183.588
21
-92.9924
0
LINE
8
BLACK
6
CONTINUOUS
10
183.588
20
-92.9924
11
183.73
21
-93.1353
0
LINE
8
BLACK
6
CONTINUOUS
10
183.73
20
-93.1353
11
184.016
21
-93.2781
0
LINE
8
BLACK
6
CONTINUOUS
10
184.016
20
-93.2781
11
184.588
21
-93.2781
0
LINE
8
BLACK
6
CONTINUOUS
10
184.588
20
-93.2781
11
184.873
21
-93.1353
0
LINE
8
BLACK
6
CONTINUOUS
10
184.873
20
-93.1353
11
185.016
21
-92.9924
0
LINE
8
BLACK
6
CONTINUOUS
10
185.016
20
-92.9924
11
185.159
21
-92.7067
0
LINE
8
BLACK
6
CONTINUOUS
10
185.159
20
-92.7067
11
185.159
21
-91.9924
0
LINE
8
BLACK
6
CONTINUOUS
10
185.159
20
-91.9924
11
185.016
21
-91.7067
0
LINE
8
BLACK
6
CONTINUOUS
10
185.016
20
-91.7067
11
184.873
21
-91.5639
0
LINE
8
BLACK
6
CONTINUOUS
10
184.873
20
-91.5639
11
184.588
21
-91.421
0
LINE
8
BLACK
6
CONTINUOUS
10
184.588
20
-91.421
11
184.016
21
-91.421
0
LINE
8
BLACK
6
CONTINUOUS
10
184.016
20
-91.421
11
183.73
21
-91.5639
0
LINE
8
BLACK
6
CONTINUOUS
10
183.73
20
-91.5639
11
183.588
21
-91.7067
0
LINE
8
BLACK
6
CONTINUOUS
10
183.588
20
-91.7067
11
183.445
21
-91.9924
0
LINE
8
BLACK
6
CONTINUOUS
10
186.302
20
-90.2781
11
186.302
21
-90.8496
0
LINE
8
BLACK
6
CONTINUOUS
10
187.445
20
-90.2781
11
187.445
21
-90.8496
0
LINE
8
BLACK
6
CONTINUOUS
10
191.873
20
-94.421
11
191.73
21
-94.2781
0
LINE
8
BLACK
6
CONTINUOUS
10
191.73
20
-94.2781
11
191.445
21
-93.8496
0
LINE
8
BLACK
6
CONTINUOUS
10
191.445
20
-93.8496
11
191.302
21
-93.5639
0
LINE
8
BLACK
6
CONTINUOUS
10
191.302
20
-93.5639
11
191.159
21
-93.1353
0
LINE
8
BLACK
6
CONTINUOUS
10
191.159
20
-93.1353
11
191.016
21
-92.421
0
LINE
8
BLACK
6
CONTINUOUS
10
191.016
20
-92.421
11
191.016
21
-91.8496
0
LINE
8
BLACK
6
CONTINUOUS
10
191.016
20
-91.8496
11
191.159
21
-91.1353
0
LINE
8
BLACK
6
CONTINUOUS
10
191.159
20
-91.1353
11
191.302
21
-90.7067
0
LINE
8
BLACK
6
CONTINUOUS
10
191.302
20
-90.7067
11
191.445
21
-90.421
0
LINE
8
BLACK
6
CONTINUOUS
10
191.445
20
-90.421
11
191.73
21
-89.9924
0
LINE
8
BLACK
6
CONTINUOUS
10
191.73
20
-89.9924
11
191.873
21
-89.8496
0
LINE
8
BLACK
6
CONTINUOUS
10
194.302
20
-91.2781
11
194.302
21
-93.2781
0
LINE
8
BLACK
6
CONTINUOUS
10
193.588
20
-90.1353
11
192.873
21
-92.2781
0
LINE
8
BLACK
6
CONTINUOUS
10
192.873
20
-92.2781
11
194.73
21
-92.2781
0
LINE
8
BLACK
6
CONTINUOUS
10
198.159
20
-93.2781
11
198.159
21
-90.2781
0
LINE
8
BLACK
6
CONTINUOUS
10
199.445
20
-93.2781
11
199.445
21
-91.7067
0
LINE
8
BLACK
6
CONTINUOUS
10
199.445
20
-91.7067
11
199.302
21
-91.421
0
LINE
8
BLACK
6
CONTINUOUS
10
199.302
20
-91.421
11
199.016
21
-91.2781
0
LINE
8
BLACK
6
CONTINUOUS
10
199.016
20
-91.2781
11
198.588
21
-91.2781
0
LINE
8
BLACK
6
CONTINUOUS
10
198.588
20
-91.2781
11
198.302
21
-91.421
0
LINE
8
BLACK
6
CONTINUOUS
10
198.302
20
-91.421
11
198.159
21
-91.5639
0
LINE
8
BLACK
6
CONTINUOUS
10
201.302
20
-93.2781
11
201.016
21
-93.1353
0
LINE
8
BLACK
6
CONTINUOUS
10
201.016
20
-93.1353
11
200.873
21
-92.9924
0
LINE
8
BLACK
6
CONTINUOUS
10
200.873
20
-92.9924
11
200.73
21
-92.7067
0
LINE
8
BLACK
6
CONTINUOUS
10
200.73
20
-92.7067
11
200.73
21
-91.8496
0
LINE
8
BLACK
6
CONTINUOUS
10
200.73
20
-91.8496
11
200.873
21
-91.5639
0
LINE
8
BLACK
6
CONTINUOUS
10
200.873
20
-91.5639
11
201.016
21
-91.421
0
LINE
8
BLACK
6
CONTINUOUS
10
201.016
20
-91.421
11
201.302
21
-91.2781
0
LINE
8
BLACK
6
CONTINUOUS
10
201.302
20
-91.2781
11
201.73
21
-91.2781
0
LINE
8
BLACK
6
CONTINUOUS
10
201.73
20
-91.2781
11
202.016
21
-91.421
0
LINE
8
BLACK
6
CONTINUOUS
10
202.016
20
-91.421
11
202.159
21
-91.5639
0
LINE
8
BLACK
6
CONTINUOUS
10
202.159
20
-91.5639
11
202.302
21
-91.8496
0
LINE
8
BLACK
6
CONTINUOUS
10
202.302
20
-91.8496
11
202.302
21
-92.7067
0
LINE
8
BLACK
6
CONTINUOUS
10
202.302
20
-92.7067
11
202.159
21
-92.9924
0
LINE
8
BLACK
6
CONTINUOUS
10
202.159
20
-92.9924
11
202.016
21
-93.1353
0
LINE
8
BLACK
6
CONTINUOUS
10
202.016
20
-93.1353
11
201.73
21
-93.2781
0
LINE
8
BLACK
6
CONTINUOUS
10
201.73
20
-93.2781
11
201.302
21
-93.2781
0
LINE
8
BLACK
6
CONTINUOUS
10
204.016
20
-93.2781
11
203.73
21
-93.1353
0
LINE
8
BLACK
6
CONTINUOUS
10
203.73
20
-93.1353
11
203.588
21
-92.8496
0
LINE
8
BLACK
6
CONTINUOUS
10
203.588
20
-92.8496
11
203.588
21
-90.2781
0
LINE
8
BLACK
6
CONTINUOUS
10
206.302
20
-93.1353
11
206.016
21
-93.2781
0
LINE
8
BLACK
6
CONTINUOUS
10
206.016
20
-93.2781
11
205.445
21
-93.2781
0
LINE
8
BLACK
6
CONTINUOUS
10
205.445
20
-93.2781
11
205.159
21
-93.1353
0
LINE
8
BLACK
6
CONTINUOUS
10
205.159
20
-93.1353
11
205.016
21
-92.8496
0
LINE
8
BLACK
6
CONTINUOUS
10
205.016
20
-92.8496
11
205.016
21
-91.7067
0
LINE
8
BLACK
6
CONTINUOUS
10
205.016
20
-91.7067
11
205.159
21
-91.421
0
LINE
8
BLACK
6
CONTINUOUS
10
205.159
20
-91.421
11
205.445
21
-91.2781
0
LINE
8
BLACK
6
CONTINUOUS
10
205.445
20
-91.2781
11
206.016
21
-91.2781
0
LINE
8
BLACK
6
CONTINUOUS
10
206.016
20
-91.2781
11
206.302
21
-91.421
0
LINE
8
BLACK
6
CONTINUOUS
10
206.302
20
-91.421
11
206.445
21
-91.7067
0
LINE
8
BLACK
6
CONTINUOUS
10
206.445
20
-91.7067
11
206.445
21
-91.9924
0
LINE
8
BLACK
6
CONTINUOUS
10
206.445
20
-91.9924
11
205.016
21
-92.2781
0
LINE
8
BLACK
6
CONTINUOUS
10
207.588
20
-93.1353
11
207.873
21
-93.2781
0
LINE
8
BLACK
6
CONTINUOUS
10
207.873
20
-93.2781
11
208.445
21
-93.2781
0
LINE
8
BLACK
6
CONTINUOUS
10
208.445
20
-93.2781
11
208.73
21
-93.1353
0
LINE
8
BLACK
6
CONTINUOUS
10
208.73
20
-93.1353
11
208.873
21
-92.8496
0
LINE
8
BLACK
6
CONTINUOUS
10
208.873
20
-92.8496
11
208.873
21
-92.7067
0
LINE
8
BLACK
6
CONTINUOUS
10
208.873
20
-92.7067
11
208.73
21
-92.421
0
LINE
8
BLACK
6
CONTINUOUS
10
208.73
20
-92.421
11
208.445
21
-92.2781
0
LINE
8
BLACK
6
CONTINUOUS
10
208.445
20
-92.2781
11
208.016
21
-92.2781
0
LINE
8
BLACK
6
CONTINUOUS
10
208.016
20
-92.2781
11
207.73
21
-92.1353
0
LINE
8
BLACK
6
CONTINUOUS
10
207.73
20
-92.1353
11
207.588
21
-91.8496
0
LINE
8
BLACK
6
CONTINUOUS
10
207.588
20
-91.8496
11
207.588
21
-91.7067
0
LINE
8
BLACK
6
CONTINUOUS
10
207.588
20
-91.7067
11
207.73
21
-91.421
0
LINE
8
BLACK
6
CONTINUOUS
10
207.73
20
-91.421
11
208.016
21
-91.2781
0
LINE
8
BLACK
6
CONTINUOUS
10
208.016
20
-91.2781
11
208.445
21
-91.2781
0
LINE
8
BLACK
6
CONTINUOUS
10
208.445
20
-91.2781
11
208.73
21
-91.421
0
LINE
8
BLACK
6
CONTINUOUS
10
209.873
20
-94.421
11
210.016
21
-94.2781
0
LINE
8
BLACK
6
CONTINUOUS
10
210.016
20
-94.2781
11
210.302
21
-93.8496
0
LINE
8
BLACK
6
CONTINUOUS
10
210.302
20
-93.8496
11
210.445
21
-93.5639
0
LINE
8
BLACK
6
CONTINUOUS
10
210.445
20
-93.5639
11
210.588
21
-93.1353
0
LINE
8
BLACK
6
CONTINUOUS
10
210.588
20
-93.1353
11
210.73
21
-92.421
0
LINE
8
BLACK
6
CONTINUOUS
10
210.73
20
-92.421
11
210.73
21
-91.8496
0
LINE
8
BLACK
6
CONTINUOUS
10
210.73
20
-91.8496
11
210.588
21
-91.1353
0
LINE
8
BLACK
6
CONTINUOUS
10
210.588
20
-91.1353
11
210.445
21
-90.7067
0
LINE
8
BLACK
6
CONTINUOUS
10
210.445
20
-90.7067
11
210.302
21
-90.421
0
LINE
8
BLACK
6
CONTINUOUS
10
210.302
20
-90.421
11
210.016
21
-89.9924
0
LINE
8
BLACK
6
CONTINUOUS
10
210.016
20
-89.9924
11
209.873
21
-89.8496
0
LINE
8
BLACK
6
CONTINUOUS
10
215.302
20
-94.421
11
215.159
21
-94.2781
0
LINE
8
BLACK
6
CONTINUOUS
10
215.159
20
-94.2781
11
214.873
21
-93.8496
0
LINE
8
BLACK
6
CONTINUOUS
10
214.873
20
-93.8496
11
214.73
21
-93.5639
0
LINE
8
BLACK
6
CONTINUOUS
10
214.73
20
-93.5639
11
214.588
21
-93.1353
0
LINE
8
BLACK
6
CONTINUOUS
10
214.588
20
-93.1353
11
214.445
21
-92.421
0
LINE
8
BLACK
6
CONTINUOUS
10
214.445
20
-92.421
11
214.445
21
-91.8496
0
LINE
8
BLACK
6
CONTINUOUS
10
214.445
20
-91.8496
11
214.588
21
-91.1353
0
LINE
8
BLACK
6
CONTINUOUS
10
214.588
20
-91.1353
11
214.73
21
-90.7067
0
LINE
8
BLACK
6
CONTINUOUS
10
214.73
20
-90.7067
11
214.873
21
-90.421
0
LINE
8
BLACK
6
CONTINUOUS
10
214.873
20
-90.421
11
215.159
21
-89.9924
0
LINE
8
BLACK
6
CONTINUOUS
10
215.159
20
-89.9924
11
215.302
21
-89.8496
0
LINE
8
BLACK
6
CONTINUOUS
10
216.445
20
-91.2781
11
216.445
21
-93.2781
0
LINE
8
BLACK
6
CONTINUOUS
10
216.445
20
-91.5639
11
216.588
21
-91.421
0
LINE
8
BLACK
6
CONTINUOUS
10
216.588
20
-91.421
11
216.873
21
-91.2781
0
LINE
8
BLACK
6
CONTINUOUS
10
216.873
20
-91.2781
11
217.302
21
-91.2781
0
LINE
8
BLACK
6
CONTINUOUS
10
217.302
20
-91.2781
11
217.588
21
-91.421
0
LINE
8
BLACK
6
CONTINUOUS
10
217.588
20
-91.421
11
217.73
21
-91.7067
0
LINE
8
BLACK
6
CONTINUOUS
10
217.73
20
-91.7067
11
217.73
21
-93.2781
0
LINE
8
BLACK
6
CONTINUOUS
10
219.588
20
-93.2781
11
219.302
21
-93.1353
0
LINE
8
BLACK
6
CONTINUOUS
10
219.302
20
-93.1353
11
219.159
21
-92.9924
0
LINE
8
BLACK
6
CONTINUOUS
10
219.159
20
-92.9924
11
219.016
21
-92.7067
0
LINE
8
BLACK
6
CONTINUOUS
10
219.016
20
-92.7067
11
219.016
21
-91.8496
0
LINE
8
BLACK
6
CONTINUOUS
10
219.016
20
-91.8496
11
219.159
21
-91.5639
0
LINE
8
BLACK
6
CONTINUOUS
10
219.159
20
-91.5639
11
219.302
21
-91.421
0
LINE
8
BLACK
6
CONTINUOUS
10
219.302
20
-91.421
11
219.588
21
-91.2781
0
LINE
8
BLACK
6
CONTINUOUS
10
219.588
20
-91.2781
11
220.016
21
-91.2781
0
LINE
8
BLACK
6
CONTINUOUS
10
220.016
20
-91.2781
11
220.302
21
-91.421
0
LINE
8
BLACK
6
CONTINUOUS
10
220.302
20
-91.421
11
220.445
21
-91.5639
0
LINE
8
BLACK
6
CONTINUOUS
10
220.445
20
-91.5639
11
220.588
21
-91.8496
0
LINE
8
BLACK
6
CONTINUOUS
10
220.588
20
-91.8496
11
220.588
21
-92.7067
0
LINE
8
BLACK
6
CONTINUOUS
10
220.588
20
-92.7067
11
220.445
21
-92.9924
0
LINE
8
BLACK
6
CONTINUOUS
10
220.445
20
-92.9924
11
220.302
21
-93.1353
0
LINE
8
BLACK
6
CONTINUOUS
10
220.302
20
-93.1353
11
220.016
21
-93.2781
0
LINE
8
BLACK
6
CONTINUOUS
10
220.016
20
-93.2781
11
219.588
21
-93.2781
0
LINE
8
BLACK
6
CONTINUOUS
10
221.445
20
-91.2781
11
222.588
21
-91.2781
0
LINE
8
BLACK
6
CONTINUOUS
10
221.873
20
-90.2781
11
221.873
21
-92.8496
0
LINE
8
BLACK
6
CONTINUOUS
10
221.873
20
-92.8496
11
222.016
21
-93.1353
0
LINE
8
BLACK
6
CONTINUOUS
10
222.016
20
-93.1353
11
222.302
21
-93.2781
0
LINE
8
BLACK
6
CONTINUOUS
10
222.302
20
-93.2781
11
222.588
21
-93.2781
0
LINE
8
BLACK
6
CONTINUOUS
10
225.873
20
-91.2781
11
225.873
21
-94.2781
0
LINE
8
BLACK
6
CONTINUOUS
10
225.873
20
-91.421
11
226.159
21
-91.2781
0
LINE
8
BLACK
6
CONTINUOUS
10
226.159
20
-91.2781
11
226.73
21
-91.2781
0
LINE
8
BLACK
6
CONTINUOUS
10
226.73
20
-91.2781
11
227.016
21
-91.421
0
LINE
8
BLACK
6
CONTINUOUS
10
227.016
20
-91.421
11
227.159
21
-91.5639
0
LINE
8
BLACK
6
CONTINUOUS
10
227.159
20
-91.5639
11
227.302
21
-91.8496
0
LINE
8
BLACK
6
CONTINUOUS
10
227.302
20
-91.8496
11
227.302
21
-92.7067
0
LINE
8
BLACK
6
CONTINUOUS
10
227.302
20
-92.7067
11
227.159
21
-92.9924
0
LINE
8
BLACK
6
CONTINUOUS
10
227.159
20
-92.9924
11
227.016
21
-93.1353
0
LINE
8
BLACK
6
CONTINUOUS
10
227.016
20
-93.1353
11
226.73
21
-93.2781
0
LINE
8
BLACK
6
CONTINUOUS
10
226.73
20
-93.2781
11
226.159
21
-93.2781
0
LINE
8
BLACK
6
CONTINUOUS
10
226.159
20
-93.2781
11
225.873
21
-93.1353
0
LINE
8
BLACK
6
CONTINUOUS
10
229.016
20
-93.2781
11
228.73
21
-93.1353
0
LINE
8
BLACK
6
CONTINUOUS
10
228.73
20
-93.1353
11
228.588
21
-92.8496
0
LINE
8
BLACK
6
CONTINUOUS
10
228.588
20
-92.8496
11
228.588
21
-90.2781
0
LINE
8
BLACK
6
CONTINUOUS
10
231.445
20
-93.2781
11
231.445
21
-91.7067
0
LINE
8
BLACK
6
CONTINUOUS
10
231.445
20
-91.7067
11
231.302
21
-91.421
0
LINE
8
BLACK
6
CONTINUOUS
10
231.302
20
-91.421
11
231.016
21
-91.2781
0
LINE
8
BLACK
6
CONTINUOUS
10
231.016
20
-91.2781
11
230.445
21
-91.2781
0
LINE
8
BLACK
6
CONTINUOUS
10
230.445
20
-91.2781
11
230.159
21
-91.421
0
LINE
8
BLACK
6
CONTINUOUS
10
231.445
20
-93.1353
11
231.159
21
-93.2781
0
LINE
8
BLACK
6
CONTINUOUS
10
231.159
20
-93.2781
11
230.445
21
-93.2781
0
LINE
8
BLACK
6
CONTINUOUS
10
230.445
20
-93.2781
11
230.159
21
-93.1353
0
LINE
8
BLACK
6
CONTINUOUS
10
230.159
20
-93.1353
11
230.016
21
-92.8496
0
LINE
8
BLACK
6
CONTINUOUS
10
230.016
20
-92.8496
11
230.016
21
-92.5639
0
LINE
8
BLACK
6
CONTINUOUS
10
230.016
20
-92.5639
11
230.159
21
-92.2781
0
LINE
8
BLACK
6
CONTINUOUS
10
230.159
20
-92.2781
11
230.445
21
-92.1353
0
LINE
8
BLACK
6
CONTINUOUS
10
230.445
20
-92.1353
11
231.159
21
-92.1353
0
LINE
8
BLACK
6
CONTINUOUS
10
231.159
20
-92.1353
11
231.445
21
-91.9924
0
LINE
8
BLACK
6
CONTINUOUS
10
232.445
20
-91.2781
11
233.588
21
-91.2781
0
LINE
8
BLACK
6
CONTINUOUS
10
232.873
20
-90.2781
11
232.873
21
-92.8496
0
LINE
8
BLACK
6
CONTINUOUS
10
232.873
20
-92.8496
11
233.016
21
-93.1353
0
LINE
8
BLACK
6
CONTINUOUS
10
233.016
20
-93.1353
11
233.302
21
-93.2781
0
LINE
8
BLACK
6
CONTINUOUS
10
233.302
20
-93.2781
11
233.588
21
-93.2781
0
LINE
8
BLACK
6
CONTINUOUS
10
235.73
20
-93.1353
11
235.445
21
-93.2781
0
LINE
8
BLACK
6
CONTINUOUS
10
235.445
20
-93.2781
11
234.873
21
-93.2781
0
LINE
8
BLACK
6
CONTINUOUS
10
234.873
20
-93.2781
11
234.588
21
-93.1353
0
LINE
8
BLACK
6
CONTINUOUS
10
234.588
20
-93.1353
11
234.445
21
-92.8496
0
LINE
8
BLACK
6
CONTINUOUS
10
234.445
20
-92.8496
11
234.445
21
-91.7067
0
LINE
8
BLACK
6
CONTINUOUS
10
234.445
20
-91.7067
11
234.588
21
-91.421
0
LINE
8
BLACK
6
CONTINUOUS
10
234.588
20
-91.421
11
234.873
21
-91.2781
0
LINE
8
BLACK
6
CONTINUOUS
10
234.873
20
-91.2781
11
235.445
21
-91.2781
0
LINE
8
BLACK
6
CONTINUOUS
10
235.445
20
-91.2781
11
235.73
21
-91.421
0
LINE
8
BLACK
6
CONTINUOUS
10
235.73
20
-91.421
11
235.873
21
-91.7067
0
LINE
8
BLACK
6
CONTINUOUS
10
235.873
20
-91.7067
11
235.873
21
-91.9924
0
LINE
8
BLACK
6
CONTINUOUS
10
235.873
20
-91.9924
11
234.445
21
-92.2781
0
LINE
8
BLACK
6
CONTINUOUS
10
238.445
20
-93.2781
11
238.445
21
-90.2781
0
LINE
8
BLACK
6
CONTINUOUS
10
238.445
20
-93.1353
11
238.159
21
-93.2781
0
LINE
8
BLACK
6
CONTINUOUS
10
238.159
20
-93.2781
11
237.588
21
-93.2781
0
LINE
8
BLACK
6
CONTINUOUS
10
237.588
20
-93.2781
11
237.302
21
-93.1353
0
LINE
8
BLACK
6
CONTINUOUS
10
237.302
20
-93.1353
11
237.159
21
-92.9924
0
LINE
8
BLACK
6
CONTINUOUS
10
237.159
20
-92.9924
11
237.016
21
-92.7067
0
LINE
8
BLACK
6
CONTINUOUS
10
237.016
20
-92.7067
11
237.016
21
-91.8496
0
LINE
8
BLACK
6
CONTINUOUS
10
237.016
20
-91.8496
11
237.159
21
-91.5639
0
LINE
8
BLACK
6
CONTINUOUS
10
237.159
20
-91.5639
11
237.302
21
-91.421
0
LINE
8
BLACK
6
CONTINUOUS
10
237.302
20
-91.421
11
237.588
21
-91.2781
0
LINE
8
BLACK
6
CONTINUOUS
10
237.588
20
-91.2781
11
238.159
21
-91.2781
0
LINE
8
BLACK
6
CONTINUOUS
10
238.159
20
-91.2781
11
238.445
21
-91.421
0
LINE
8
BLACK
6
CONTINUOUS
10
239.588
20
-94.421
11
239.73
21
-94.2781
0
LINE
8
BLACK
6
CONTINUOUS
10
239.73
20
-94.2781
11
240.016
21
-93.8496
0
LINE
8
BLACK
6
CONTINUOUS
10
240.016
20
-93.8496
11
240.159
21
-93.5639
0
LINE
8
BLACK
6
CONTINUOUS
10
240.159
20
-93.5639
11
240.302
21
-93.1353
0
LINE
8
BLACK
6
CONTINUOUS
10
240.302
20
-93.1353
11
240.445
21
-92.421
0
LINE
8
BLACK
6
CONTINUOUS
10
240.445
20
-92.421
11
240.445
21
-91.8496
0
LINE
8
BLACK
6
CONTINUOUS
10
240.445
20
-91.8496
11
240.302
21
-91.1353
0
LINE
8
BLACK
6
CONTINUOUS
10
240.302
20
-91.1353
11
240.159
21
-90.7067
0
LINE
8
BLACK
6
CONTINUOUS
10
240.159
20
-90.7067
11
240.016
21
-90.421
0
LINE
8
BLACK
6
CONTINUOUS
10
240.016
20
-90.421
11
239.73
21
-89.9924
0
LINE
8
BLACK
6
CONTINUOUS
10
239.73
20
-89.9924
11
239.588
21
-89.8496
  0
ENDSEC
  0
EOF
