G04 #@! TF.GenerationSoftware,KiCad,Pcbnew,(5.1.5-0-10_14)*
G04 #@! TF.CreationDate,2021-04-18T14:35:59+10:00*
G04 #@! TF.ProjectId,OH - Right Console - 3 - Interior Lights Panel,4f48202d-2052-4696-9768-7420436f6e73,rev?*
G04 #@! TF.SameCoordinates,Original*
G04 #@! TF.FileFunction,Soldermask,Bot*
G04 #@! TF.FilePolarity,Negative*
%FSLAX46Y46*%
G04 Gerber Fmt 4.6, Leading zero omitted, Abs format (unit mm)*
G04 Created by KiCad (PCBNEW (5.1.5-0-10_14)) date 2021-04-18 14:35:59*
%MOMM*%
%LPD*%
G04 APERTURE LIST*
%ADD10C,0.100000*%
G04 APERTURE END LIST*
D10*
G36*
X130931256Y-116374298D02*
G01*
X131037579Y-116395447D01*
X131338042Y-116519903D01*
X131608451Y-116700585D01*
X131838415Y-116930549D01*
X131951932Y-117100439D01*
X132019098Y-117200960D01*
X132042560Y-117257602D01*
X132143553Y-117501421D01*
X132148411Y-117525843D01*
X132198935Y-117779842D01*
X132207000Y-117820391D01*
X132207000Y-118145609D01*
X132143553Y-118464579D01*
X132019097Y-118765042D01*
X131838415Y-119035451D01*
X131608451Y-119265415D01*
X131338042Y-119446097D01*
X131338041Y-119446098D01*
X131338040Y-119446098D01*
X131279374Y-119470398D01*
X131037579Y-119570553D01*
X130931256Y-119591702D01*
X130718611Y-119634000D01*
X130393389Y-119634000D01*
X130180744Y-119591702D01*
X130074421Y-119570553D01*
X129832626Y-119470398D01*
X129773960Y-119446098D01*
X129773959Y-119446098D01*
X129773958Y-119446097D01*
X129503549Y-119265415D01*
X129273585Y-119035451D01*
X129092903Y-118765042D01*
X128968447Y-118464579D01*
X128905000Y-118145609D01*
X128905000Y-117820391D01*
X128913066Y-117779842D01*
X128963589Y-117525843D01*
X128968447Y-117501421D01*
X129069440Y-117257602D01*
X129092902Y-117200960D01*
X129160068Y-117100439D01*
X129273585Y-116930549D01*
X129503549Y-116700585D01*
X129773958Y-116519903D01*
X130074421Y-116395447D01*
X130180744Y-116374298D01*
X130393389Y-116332000D01*
X130718611Y-116332000D01*
X130931256Y-116374298D01*
G37*
G36*
X94990256Y-116374298D02*
G01*
X95096579Y-116395447D01*
X95397042Y-116519903D01*
X95667451Y-116700585D01*
X95897415Y-116930549D01*
X96010932Y-117100439D01*
X96078098Y-117200960D01*
X96101560Y-117257602D01*
X96202553Y-117501421D01*
X96207411Y-117525843D01*
X96257935Y-117779842D01*
X96266000Y-117820391D01*
X96266000Y-118145609D01*
X96202553Y-118464579D01*
X96078097Y-118765042D01*
X95897415Y-119035451D01*
X95667451Y-119265415D01*
X95397042Y-119446097D01*
X95397041Y-119446098D01*
X95397040Y-119446098D01*
X95338374Y-119470398D01*
X95096579Y-119570553D01*
X94990256Y-119591702D01*
X94777611Y-119634000D01*
X94452389Y-119634000D01*
X94239744Y-119591702D01*
X94133421Y-119570553D01*
X93891626Y-119470398D01*
X93832960Y-119446098D01*
X93832959Y-119446098D01*
X93832958Y-119446097D01*
X93562549Y-119265415D01*
X93332585Y-119035451D01*
X93151903Y-118765042D01*
X93027447Y-118464579D01*
X92964000Y-118145609D01*
X92964000Y-117820391D01*
X92972066Y-117779842D01*
X93022589Y-117525843D01*
X93027447Y-117501421D01*
X93128440Y-117257602D01*
X93151902Y-117200960D01*
X93219068Y-117100439D01*
X93332585Y-116930549D01*
X93562549Y-116700585D01*
X93832958Y-116519903D01*
X94133421Y-116395447D01*
X94239744Y-116374298D01*
X94452389Y-116332000D01*
X94777611Y-116332000D01*
X94990256Y-116374298D01*
G37*
G36*
X106479547Y-117226326D02*
G01*
X106653156Y-117278990D01*
X106653158Y-117278991D01*
X106813155Y-117364511D01*
X106953397Y-117479603D01*
X106991345Y-117525844D01*
X107068489Y-117619844D01*
X107154010Y-117779843D01*
X107206674Y-117953452D01*
X107220000Y-118088756D01*
X107220000Y-118639243D01*
X107206674Y-118774548D01*
X107154010Y-118948157D01*
X107068489Y-119108156D01*
X107039581Y-119143380D01*
X106953397Y-119248397D01*
X106856729Y-119327729D01*
X106813156Y-119363489D01*
X106653157Y-119449010D01*
X106479548Y-119501674D01*
X106299000Y-119519456D01*
X106118453Y-119501674D01*
X105944844Y-119449010D01*
X105784845Y-119363489D01*
X105741272Y-119327729D01*
X105644604Y-119248397D01*
X105529513Y-119108157D01*
X105529512Y-119108155D01*
X105443990Y-118948157D01*
X105391326Y-118774548D01*
X105378000Y-118639244D01*
X105378000Y-118088757D01*
X105391326Y-117953453D01*
X105443990Y-117779844D01*
X105529511Y-117619845D01*
X105529512Y-117619844D01*
X105644603Y-117479603D01*
X105783219Y-117365845D01*
X105784844Y-117364511D01*
X105944843Y-117278990D01*
X106118452Y-117226326D01*
X106299000Y-117208544D01*
X106479547Y-117226326D01*
G37*
G36*
X109019547Y-117226326D02*
G01*
X109193156Y-117278990D01*
X109193158Y-117278991D01*
X109353155Y-117364511D01*
X109493397Y-117479603D01*
X109531345Y-117525844D01*
X109608489Y-117619844D01*
X109694010Y-117779843D01*
X109746674Y-117953452D01*
X109760000Y-118088756D01*
X109760000Y-118639243D01*
X109746674Y-118774548D01*
X109694010Y-118948157D01*
X109608489Y-119108156D01*
X109579581Y-119143380D01*
X109493397Y-119248397D01*
X109396729Y-119327729D01*
X109353156Y-119363489D01*
X109193157Y-119449010D01*
X109019548Y-119501674D01*
X108839000Y-119519456D01*
X108658453Y-119501674D01*
X108484844Y-119449010D01*
X108324845Y-119363489D01*
X108281272Y-119327729D01*
X108184604Y-119248397D01*
X108069513Y-119108157D01*
X108069512Y-119108155D01*
X107983990Y-118948157D01*
X107931326Y-118774548D01*
X107918000Y-118639244D01*
X107918000Y-118088757D01*
X107931326Y-117953453D01*
X107983990Y-117779844D01*
X108069511Y-117619845D01*
X108069512Y-117619844D01*
X108184603Y-117479603D01*
X108323219Y-117365845D01*
X108324844Y-117364511D01*
X108484843Y-117278990D01*
X108658452Y-117226326D01*
X108839000Y-117208544D01*
X109019547Y-117226326D01*
G37*
G36*
X104538561Y-117216966D02*
G01*
X104571383Y-117226923D01*
X104601632Y-117243092D01*
X104628148Y-117264852D01*
X104649908Y-117291368D01*
X104666077Y-117321617D01*
X104676034Y-117354439D01*
X104680000Y-117394713D01*
X104680000Y-119333287D01*
X104676034Y-119373561D01*
X104666077Y-119406383D01*
X104649908Y-119436632D01*
X104628148Y-119463148D01*
X104601632Y-119484908D01*
X104571383Y-119501077D01*
X104538561Y-119511034D01*
X104498287Y-119515000D01*
X103019713Y-119515000D01*
X102979439Y-119511034D01*
X102946617Y-119501077D01*
X102916368Y-119484908D01*
X102889852Y-119463148D01*
X102868092Y-119436632D01*
X102851923Y-119406383D01*
X102841966Y-119373561D01*
X102838000Y-119333287D01*
X102838000Y-117394713D01*
X102841966Y-117354439D01*
X102851923Y-117321617D01*
X102868092Y-117291368D01*
X102889852Y-117264852D01*
X102916368Y-117243092D01*
X102946617Y-117226923D01*
X102979439Y-117216966D01*
X103019713Y-117213000D01*
X104498287Y-117213000D01*
X104538561Y-117216966D01*
G37*
G36*
X120322547Y-116972326D02*
G01*
X120496156Y-117024990D01*
X120496158Y-117024991D01*
X120656155Y-117110511D01*
X120796397Y-117225603D01*
X120849668Y-117290515D01*
X120911489Y-117365844D01*
X120997010Y-117525843D01*
X121049674Y-117699452D01*
X121063000Y-117834756D01*
X121063000Y-118385243D01*
X121049674Y-118520548D01*
X120997010Y-118694157D01*
X120911489Y-118854156D01*
X120875729Y-118897729D01*
X120796397Y-118994397D01*
X120699729Y-119073729D01*
X120656156Y-119109489D01*
X120496157Y-119195010D01*
X120322548Y-119247674D01*
X120142000Y-119265456D01*
X119961453Y-119247674D01*
X119787844Y-119195010D01*
X119627845Y-119109489D01*
X119584272Y-119073729D01*
X119487604Y-118994397D01*
X119372513Y-118854157D01*
X119372512Y-118854155D01*
X119286990Y-118694157D01*
X119234326Y-118520548D01*
X119221000Y-118385244D01*
X119221000Y-117834757D01*
X119234326Y-117699453D01*
X119286990Y-117525844D01*
X119372511Y-117365845D01*
X119401419Y-117330620D01*
X119487603Y-117225603D01*
X119613388Y-117122375D01*
X119627844Y-117110511D01*
X119787843Y-117024990D01*
X119961452Y-116972326D01*
X120142000Y-116954544D01*
X120322547Y-116972326D01*
G37*
G36*
X122862547Y-116972326D02*
G01*
X123036156Y-117024990D01*
X123036158Y-117024991D01*
X123196155Y-117110511D01*
X123336397Y-117225603D01*
X123389668Y-117290515D01*
X123451489Y-117365844D01*
X123537010Y-117525843D01*
X123589674Y-117699452D01*
X123603000Y-117834756D01*
X123603000Y-118385243D01*
X123589674Y-118520548D01*
X123537010Y-118694157D01*
X123451489Y-118854156D01*
X123415729Y-118897729D01*
X123336397Y-118994397D01*
X123239729Y-119073729D01*
X123196156Y-119109489D01*
X123036157Y-119195010D01*
X122862548Y-119247674D01*
X122682000Y-119265456D01*
X122501453Y-119247674D01*
X122327844Y-119195010D01*
X122167845Y-119109489D01*
X122124272Y-119073729D01*
X122027604Y-118994397D01*
X121912513Y-118854157D01*
X121912512Y-118854155D01*
X121826990Y-118694157D01*
X121774326Y-118520548D01*
X121761000Y-118385244D01*
X121761000Y-117834757D01*
X121774326Y-117699453D01*
X121826990Y-117525844D01*
X121912511Y-117365845D01*
X121941419Y-117330620D01*
X122027603Y-117225603D01*
X122153388Y-117122375D01*
X122167844Y-117110511D01*
X122327843Y-117024990D01*
X122501452Y-116972326D01*
X122682000Y-116954544D01*
X122862547Y-116972326D01*
G37*
G36*
X118381561Y-116962966D02*
G01*
X118414383Y-116972923D01*
X118444632Y-116989092D01*
X118471148Y-117010852D01*
X118492908Y-117037368D01*
X118509077Y-117067617D01*
X118519034Y-117100439D01*
X118523000Y-117140713D01*
X118523000Y-119079287D01*
X118519034Y-119119561D01*
X118509077Y-119152383D01*
X118492908Y-119182632D01*
X118471148Y-119209148D01*
X118444632Y-119230908D01*
X118414383Y-119247077D01*
X118381561Y-119257034D01*
X118341287Y-119261000D01*
X116862713Y-119261000D01*
X116822439Y-119257034D01*
X116789617Y-119247077D01*
X116759368Y-119230908D01*
X116732852Y-119209148D01*
X116711092Y-119182632D01*
X116694923Y-119152383D01*
X116684966Y-119119561D01*
X116681000Y-119079287D01*
X116681000Y-117140713D01*
X116684966Y-117100439D01*
X116694923Y-117067617D01*
X116711092Y-117037368D01*
X116732852Y-117010852D01*
X116759368Y-116989092D01*
X116789617Y-116972923D01*
X116822439Y-116962966D01*
X116862713Y-116959000D01*
X118341287Y-116959000D01*
X118381561Y-116962966D01*
G37*
G36*
X143436547Y-114178326D02*
G01*
X143610156Y-114230990D01*
X143610158Y-114230991D01*
X143770155Y-114316511D01*
X143910397Y-114431603D01*
X143989729Y-114528271D01*
X144025489Y-114571844D01*
X144111010Y-114731843D01*
X144163674Y-114905452D01*
X144177000Y-115040756D01*
X144177000Y-115591243D01*
X144163674Y-115726548D01*
X144111010Y-115900157D01*
X144025489Y-116060156D01*
X143989729Y-116103729D01*
X143910397Y-116200397D01*
X143813729Y-116279729D01*
X143770156Y-116315489D01*
X143610157Y-116401010D01*
X143436548Y-116453674D01*
X143256000Y-116471456D01*
X143075453Y-116453674D01*
X142901844Y-116401010D01*
X142741845Y-116315489D01*
X142698272Y-116279729D01*
X142601604Y-116200397D01*
X142486513Y-116060157D01*
X142486512Y-116060155D01*
X142400990Y-115900157D01*
X142348326Y-115726548D01*
X142335000Y-115591244D01*
X142335000Y-115040757D01*
X142348326Y-114905453D01*
X142400990Y-114731844D01*
X142486511Y-114571845D01*
X142486512Y-114571844D01*
X142601603Y-114431603D01*
X142727388Y-114328375D01*
X142741844Y-114316511D01*
X142901843Y-114230990D01*
X143075452Y-114178326D01*
X143256000Y-114160544D01*
X143436547Y-114178326D01*
G37*
G36*
X140896547Y-114178326D02*
G01*
X141070156Y-114230990D01*
X141070158Y-114230991D01*
X141230155Y-114316511D01*
X141370397Y-114431603D01*
X141449729Y-114528271D01*
X141485489Y-114571844D01*
X141571010Y-114731843D01*
X141623674Y-114905452D01*
X141637000Y-115040756D01*
X141637000Y-115591243D01*
X141623674Y-115726548D01*
X141571010Y-115900157D01*
X141485489Y-116060156D01*
X141449729Y-116103729D01*
X141370397Y-116200397D01*
X141273729Y-116279729D01*
X141230156Y-116315489D01*
X141070157Y-116401010D01*
X140896548Y-116453674D01*
X140716000Y-116471456D01*
X140535453Y-116453674D01*
X140361844Y-116401010D01*
X140201845Y-116315489D01*
X140158272Y-116279729D01*
X140061604Y-116200397D01*
X139946513Y-116060157D01*
X139946512Y-116060155D01*
X139860990Y-115900157D01*
X139808326Y-115726548D01*
X139795000Y-115591244D01*
X139795000Y-115040757D01*
X139808326Y-114905453D01*
X139860990Y-114731844D01*
X139946511Y-114571845D01*
X139946512Y-114571844D01*
X140061603Y-114431603D01*
X140187388Y-114328375D01*
X140201844Y-114316511D01*
X140361843Y-114230990D01*
X140535452Y-114178326D01*
X140716000Y-114160544D01*
X140896547Y-114178326D01*
G37*
G36*
X84508547Y-114178326D02*
G01*
X84682156Y-114230990D01*
X84682158Y-114230991D01*
X84842155Y-114316511D01*
X84982397Y-114431603D01*
X85061729Y-114528271D01*
X85097489Y-114571844D01*
X85183010Y-114731843D01*
X85235674Y-114905452D01*
X85249000Y-115040756D01*
X85249000Y-115591243D01*
X85235674Y-115726548D01*
X85183010Y-115900157D01*
X85097489Y-116060156D01*
X85061729Y-116103729D01*
X84982397Y-116200397D01*
X84885729Y-116279729D01*
X84842156Y-116315489D01*
X84682157Y-116401010D01*
X84508548Y-116453674D01*
X84328000Y-116471456D01*
X84147453Y-116453674D01*
X83973844Y-116401010D01*
X83813845Y-116315489D01*
X83770272Y-116279729D01*
X83673604Y-116200397D01*
X83558513Y-116060157D01*
X83558512Y-116060155D01*
X83472990Y-115900157D01*
X83420326Y-115726548D01*
X83407000Y-115591244D01*
X83407000Y-115040757D01*
X83420326Y-114905453D01*
X83472990Y-114731844D01*
X83558511Y-114571845D01*
X83558512Y-114571844D01*
X83673603Y-114431603D01*
X83799388Y-114328375D01*
X83813844Y-114316511D01*
X83973843Y-114230990D01*
X84147452Y-114178326D01*
X84328000Y-114160544D01*
X84508547Y-114178326D01*
G37*
G36*
X81968547Y-114178326D02*
G01*
X82142156Y-114230990D01*
X82142158Y-114230991D01*
X82302155Y-114316511D01*
X82442397Y-114431603D01*
X82521729Y-114528271D01*
X82557489Y-114571844D01*
X82643010Y-114731843D01*
X82695674Y-114905452D01*
X82709000Y-115040756D01*
X82709000Y-115591243D01*
X82695674Y-115726548D01*
X82643010Y-115900157D01*
X82557489Y-116060156D01*
X82521729Y-116103729D01*
X82442397Y-116200397D01*
X82345729Y-116279729D01*
X82302156Y-116315489D01*
X82142157Y-116401010D01*
X81968548Y-116453674D01*
X81788000Y-116471456D01*
X81607453Y-116453674D01*
X81433844Y-116401010D01*
X81273845Y-116315489D01*
X81230272Y-116279729D01*
X81133604Y-116200397D01*
X81018513Y-116060157D01*
X81018512Y-116060155D01*
X80932990Y-115900157D01*
X80880326Y-115726548D01*
X80867000Y-115591244D01*
X80867000Y-115040757D01*
X80880326Y-114905453D01*
X80932990Y-114731844D01*
X81018511Y-114571845D01*
X81018512Y-114571844D01*
X81133603Y-114431603D01*
X81259388Y-114328375D01*
X81273844Y-114316511D01*
X81433843Y-114230990D01*
X81607452Y-114178326D01*
X81788000Y-114160544D01*
X81968547Y-114178326D01*
G37*
G36*
X138955561Y-114168966D02*
G01*
X138988383Y-114178923D01*
X139018632Y-114195092D01*
X139045148Y-114216852D01*
X139066908Y-114243368D01*
X139083077Y-114273617D01*
X139093034Y-114306439D01*
X139097000Y-114346713D01*
X139097000Y-116285287D01*
X139093034Y-116325561D01*
X139083077Y-116358383D01*
X139066908Y-116388632D01*
X139045148Y-116415148D01*
X139018632Y-116436908D01*
X138988383Y-116453077D01*
X138955561Y-116463034D01*
X138915287Y-116467000D01*
X137436713Y-116467000D01*
X137396439Y-116463034D01*
X137363617Y-116453077D01*
X137333368Y-116436908D01*
X137306852Y-116415148D01*
X137285092Y-116388632D01*
X137268923Y-116358383D01*
X137258966Y-116325561D01*
X137255000Y-116285287D01*
X137255000Y-114346713D01*
X137258966Y-114306439D01*
X137268923Y-114273617D01*
X137285092Y-114243368D01*
X137306852Y-114216852D01*
X137333368Y-114195092D01*
X137363617Y-114178923D01*
X137396439Y-114168966D01*
X137436713Y-114165000D01*
X138915287Y-114165000D01*
X138955561Y-114168966D01*
G37*
G36*
X80027561Y-114168966D02*
G01*
X80060383Y-114178923D01*
X80090632Y-114195092D01*
X80117148Y-114216852D01*
X80138908Y-114243368D01*
X80155077Y-114273617D01*
X80165034Y-114306439D01*
X80169000Y-114346713D01*
X80169000Y-116285287D01*
X80165034Y-116325561D01*
X80155077Y-116358383D01*
X80138908Y-116388632D01*
X80117148Y-116415148D01*
X80090632Y-116436908D01*
X80060383Y-116453077D01*
X80027561Y-116463034D01*
X79987287Y-116467000D01*
X78508713Y-116467000D01*
X78468439Y-116463034D01*
X78435617Y-116453077D01*
X78405368Y-116436908D01*
X78378852Y-116415148D01*
X78357092Y-116388632D01*
X78340923Y-116358383D01*
X78330966Y-116325561D01*
X78327000Y-116285287D01*
X78327000Y-114346713D01*
X78330966Y-114306439D01*
X78340923Y-114273617D01*
X78357092Y-114243368D01*
X78378852Y-114216852D01*
X78405368Y-114195092D01*
X78435617Y-114178923D01*
X78468439Y-114168966D01*
X78508713Y-114165000D01*
X79987287Y-114165000D01*
X80027561Y-114168966D01*
G37*
G36*
X125851228Y-111195703D02*
G01*
X126006100Y-111259853D01*
X126145481Y-111352985D01*
X126264015Y-111471519D01*
X126357147Y-111610900D01*
X126421297Y-111765772D01*
X126454000Y-111930184D01*
X126454000Y-112097816D01*
X126421297Y-112262228D01*
X126357147Y-112417100D01*
X126264015Y-112556481D01*
X126145481Y-112675015D01*
X126006100Y-112768147D01*
X125851228Y-112832297D01*
X125686816Y-112865000D01*
X125519184Y-112865000D01*
X125354772Y-112832297D01*
X125199900Y-112768147D01*
X125060519Y-112675015D01*
X124941985Y-112556481D01*
X124848853Y-112417100D01*
X124784703Y-112262228D01*
X124752000Y-112097816D01*
X124752000Y-111930184D01*
X124784703Y-111765772D01*
X124848853Y-111610900D01*
X124941985Y-111471519D01*
X125060519Y-111352985D01*
X125199900Y-111259853D01*
X125354772Y-111195703D01*
X125519184Y-111163000D01*
X125686816Y-111163000D01*
X125851228Y-111195703D01*
G37*
G36*
X132895547Y-108717326D02*
G01*
X133069156Y-108769990D01*
X133069158Y-108769991D01*
X133229155Y-108855511D01*
X133369397Y-108970603D01*
X133407345Y-109016844D01*
X133484489Y-109110844D01*
X133570010Y-109270843D01*
X133622674Y-109444452D01*
X133636000Y-109579756D01*
X133636000Y-110130243D01*
X133622674Y-110265548D01*
X133570010Y-110439157D01*
X133484489Y-110599156D01*
X133455581Y-110634380D01*
X133369397Y-110739397D01*
X133272729Y-110818729D01*
X133229156Y-110854489D01*
X133069157Y-110940010D01*
X132895548Y-110992674D01*
X132715000Y-111010456D01*
X132534453Y-110992674D01*
X132360844Y-110940010D01*
X132200845Y-110854489D01*
X132157272Y-110818729D01*
X132060604Y-110739397D01*
X131945513Y-110599157D01*
X131945512Y-110599155D01*
X131859990Y-110439157D01*
X131807326Y-110265548D01*
X131794000Y-110130244D01*
X131794000Y-109579757D01*
X131807326Y-109444453D01*
X131859990Y-109270844D01*
X131945511Y-109110845D01*
X131945512Y-109110844D01*
X132060603Y-108970603D01*
X132186388Y-108867375D01*
X132200844Y-108855511D01*
X132360843Y-108769990D01*
X132534452Y-108717326D01*
X132715000Y-108699544D01*
X132895547Y-108717326D01*
G37*
G36*
X130954561Y-108707966D02*
G01*
X130987383Y-108717923D01*
X131017632Y-108734092D01*
X131044148Y-108755852D01*
X131065908Y-108782368D01*
X131082077Y-108812617D01*
X131092034Y-108845439D01*
X131096000Y-108885713D01*
X131096000Y-110824287D01*
X131092034Y-110864561D01*
X131082077Y-110897383D01*
X131065908Y-110927632D01*
X131044148Y-110954148D01*
X131017632Y-110975908D01*
X130987383Y-110992077D01*
X130954561Y-111002034D01*
X130914287Y-111006000D01*
X129435713Y-111006000D01*
X129395439Y-111002034D01*
X129362617Y-110992077D01*
X129332368Y-110975908D01*
X129305852Y-110954148D01*
X129284092Y-110927632D01*
X129267923Y-110897383D01*
X129257966Y-110864561D01*
X129254000Y-110824287D01*
X129254000Y-108885713D01*
X129257966Y-108845439D01*
X129267923Y-108812617D01*
X129284092Y-108782368D01*
X129305852Y-108755852D01*
X129332368Y-108734092D01*
X129362617Y-108717923D01*
X129395439Y-108707966D01*
X129435713Y-108704000D01*
X130914287Y-108704000D01*
X130954561Y-108707966D01*
G37*
G36*
X95938547Y-108463326D02*
G01*
X96112156Y-108515990D01*
X96112158Y-108515991D01*
X96272155Y-108601511D01*
X96412397Y-108716603D01*
X96465668Y-108781515D01*
X96527489Y-108856844D01*
X96613010Y-109016843D01*
X96665674Y-109190452D01*
X96679000Y-109325756D01*
X96679000Y-109876243D01*
X96665674Y-110011548D01*
X96613010Y-110185157D01*
X96527489Y-110345156D01*
X96491729Y-110388729D01*
X96412397Y-110485397D01*
X96315729Y-110564729D01*
X96272156Y-110600489D01*
X96112157Y-110686010D01*
X95938548Y-110738674D01*
X95758000Y-110756456D01*
X95577453Y-110738674D01*
X95403844Y-110686010D01*
X95243845Y-110600489D01*
X95200272Y-110564729D01*
X95103604Y-110485397D01*
X94988513Y-110345157D01*
X94988512Y-110345155D01*
X94902990Y-110185157D01*
X94850326Y-110011548D01*
X94837000Y-109876244D01*
X94837000Y-109325757D01*
X94850326Y-109190453D01*
X94902990Y-109016844D01*
X94925891Y-108974000D01*
X94988511Y-108856845D01*
X95103603Y-108716603D01*
X95229388Y-108613375D01*
X95243844Y-108601511D01*
X95403843Y-108515990D01*
X95577452Y-108463326D01*
X95758000Y-108445544D01*
X95938547Y-108463326D01*
G37*
G36*
X98478547Y-108463326D02*
G01*
X98652156Y-108515990D01*
X98652158Y-108515991D01*
X98812155Y-108601511D01*
X98952397Y-108716603D01*
X99005668Y-108781515D01*
X99067489Y-108856844D01*
X99153010Y-109016843D01*
X99205674Y-109190452D01*
X99219000Y-109325756D01*
X99219000Y-109876243D01*
X99205674Y-110011548D01*
X99153010Y-110185157D01*
X99067489Y-110345156D01*
X99031729Y-110388729D01*
X98952397Y-110485397D01*
X98855729Y-110564729D01*
X98812156Y-110600489D01*
X98652157Y-110686010D01*
X98478548Y-110738674D01*
X98298000Y-110756456D01*
X98117453Y-110738674D01*
X97943844Y-110686010D01*
X97783845Y-110600489D01*
X97740272Y-110564729D01*
X97643604Y-110485397D01*
X97528513Y-110345157D01*
X97528512Y-110345155D01*
X97442990Y-110185157D01*
X97390326Y-110011548D01*
X97377000Y-109876244D01*
X97377000Y-109325757D01*
X97390326Y-109190453D01*
X97442990Y-109016844D01*
X97465891Y-108974000D01*
X97528511Y-108856845D01*
X97643603Y-108716603D01*
X97769388Y-108613375D01*
X97783844Y-108601511D01*
X97943843Y-108515990D01*
X98117452Y-108463326D01*
X98298000Y-108445544D01*
X98478547Y-108463326D01*
G37*
G36*
X93997561Y-108453966D02*
G01*
X94030383Y-108463923D01*
X94060632Y-108480092D01*
X94087148Y-108501852D01*
X94108908Y-108528368D01*
X94125077Y-108558617D01*
X94135034Y-108591439D01*
X94139000Y-108631713D01*
X94139000Y-110570287D01*
X94135034Y-110610561D01*
X94125077Y-110643383D01*
X94108908Y-110673632D01*
X94087148Y-110700148D01*
X94060632Y-110721908D01*
X94030383Y-110738077D01*
X93997561Y-110748034D01*
X93957287Y-110752000D01*
X92478713Y-110752000D01*
X92438439Y-110748034D01*
X92405617Y-110738077D01*
X92375368Y-110721908D01*
X92348852Y-110700148D01*
X92327092Y-110673632D01*
X92310923Y-110643383D01*
X92300966Y-110610561D01*
X92297000Y-110570287D01*
X92297000Y-108631713D01*
X92300966Y-108591439D01*
X92310923Y-108558617D01*
X92327092Y-108528368D01*
X92348852Y-108501852D01*
X92375368Y-108480092D01*
X92405617Y-108463923D01*
X92438439Y-108453966D01*
X92478713Y-108450000D01*
X93957287Y-108450000D01*
X93997561Y-108453966D01*
G37*
G36*
X106733547Y-106685326D02*
G01*
X106907156Y-106737990D01*
X106907158Y-106737991D01*
X107067155Y-106823511D01*
X107207397Y-106938603D01*
X107286729Y-107035271D01*
X107322489Y-107078844D01*
X107408010Y-107238843D01*
X107460674Y-107412452D01*
X107474000Y-107547756D01*
X107474000Y-108098243D01*
X107460674Y-108233548D01*
X107408010Y-108407157D01*
X107322489Y-108567156D01*
X107302560Y-108591439D01*
X107207397Y-108707397D01*
X107117083Y-108781515D01*
X107067156Y-108822489D01*
X106907157Y-108908010D01*
X106733548Y-108960674D01*
X106553000Y-108978456D01*
X106372453Y-108960674D01*
X106198844Y-108908010D01*
X106038845Y-108822489D01*
X105988918Y-108781515D01*
X105898604Y-108707397D01*
X105783513Y-108567157D01*
X105783512Y-108567155D01*
X105697990Y-108407157D01*
X105645326Y-108233548D01*
X105632000Y-108098244D01*
X105632000Y-107547757D01*
X105645326Y-107412453D01*
X105697990Y-107238844D01*
X105783511Y-107078845D01*
X105805167Y-107052457D01*
X105898603Y-106938603D01*
X106024388Y-106835375D01*
X106038844Y-106823511D01*
X106198843Y-106737990D01*
X106372452Y-106685326D01*
X106553000Y-106667544D01*
X106733547Y-106685326D01*
G37*
G36*
X109273547Y-106685326D02*
G01*
X109447156Y-106737990D01*
X109447158Y-106737991D01*
X109607155Y-106823511D01*
X109747397Y-106938603D01*
X109826729Y-107035271D01*
X109862489Y-107078844D01*
X109948010Y-107238843D01*
X110000674Y-107412452D01*
X110014000Y-107547756D01*
X110014000Y-108098243D01*
X110000674Y-108233548D01*
X109948010Y-108407157D01*
X109862489Y-108567156D01*
X109842560Y-108591439D01*
X109747397Y-108707397D01*
X109657083Y-108781515D01*
X109607156Y-108822489D01*
X109447157Y-108908010D01*
X109273548Y-108960674D01*
X109093000Y-108978456D01*
X108912453Y-108960674D01*
X108738844Y-108908010D01*
X108578845Y-108822489D01*
X108528918Y-108781515D01*
X108438604Y-108707397D01*
X108323513Y-108567157D01*
X108323512Y-108567155D01*
X108237990Y-108407157D01*
X108185326Y-108233548D01*
X108172000Y-108098244D01*
X108172000Y-107547757D01*
X108185326Y-107412453D01*
X108237990Y-107238844D01*
X108323511Y-107078845D01*
X108345167Y-107052457D01*
X108438603Y-106938603D01*
X108564388Y-106835375D01*
X108578844Y-106823511D01*
X108738843Y-106737990D01*
X108912452Y-106685326D01*
X109093000Y-106667544D01*
X109273547Y-106685326D01*
G37*
G36*
X111813547Y-106685326D02*
G01*
X111987156Y-106737990D01*
X111987158Y-106737991D01*
X112147155Y-106823511D01*
X112287397Y-106938603D01*
X112366729Y-107035271D01*
X112402489Y-107078844D01*
X112488010Y-107238843D01*
X112540674Y-107412452D01*
X112554000Y-107547756D01*
X112554000Y-108098243D01*
X112540674Y-108233548D01*
X112488010Y-108407157D01*
X112402489Y-108567156D01*
X112382560Y-108591439D01*
X112287397Y-108707397D01*
X112197083Y-108781515D01*
X112147156Y-108822489D01*
X111987157Y-108908010D01*
X111813548Y-108960674D01*
X111633000Y-108978456D01*
X111452453Y-108960674D01*
X111278844Y-108908010D01*
X111118845Y-108822489D01*
X111068918Y-108781515D01*
X110978604Y-108707397D01*
X110863513Y-108567157D01*
X110863512Y-108567155D01*
X110777990Y-108407157D01*
X110725326Y-108233548D01*
X110712000Y-108098244D01*
X110712000Y-107547757D01*
X110725326Y-107412453D01*
X110777990Y-107238844D01*
X110863511Y-107078845D01*
X110885167Y-107052457D01*
X110978603Y-106938603D01*
X111104388Y-106835375D01*
X111118844Y-106823511D01*
X111278843Y-106737990D01*
X111452452Y-106685326D01*
X111633000Y-106667544D01*
X111813547Y-106685326D01*
G37*
G36*
X114353547Y-106685326D02*
G01*
X114527156Y-106737990D01*
X114527158Y-106737991D01*
X114687155Y-106823511D01*
X114827397Y-106938603D01*
X114906729Y-107035271D01*
X114942489Y-107078844D01*
X115028010Y-107238843D01*
X115080674Y-107412452D01*
X115094000Y-107547756D01*
X115094000Y-108098243D01*
X115080674Y-108233548D01*
X115028010Y-108407157D01*
X114942489Y-108567156D01*
X114922560Y-108591439D01*
X114827397Y-108707397D01*
X114737083Y-108781515D01*
X114687156Y-108822489D01*
X114527157Y-108908010D01*
X114353548Y-108960674D01*
X114173000Y-108978456D01*
X113992453Y-108960674D01*
X113818844Y-108908010D01*
X113658845Y-108822489D01*
X113608918Y-108781515D01*
X113518604Y-108707397D01*
X113403513Y-108567157D01*
X113403512Y-108567155D01*
X113317990Y-108407157D01*
X113265326Y-108233548D01*
X113252000Y-108098244D01*
X113252000Y-107547757D01*
X113265326Y-107412453D01*
X113317990Y-107238844D01*
X113403511Y-107078845D01*
X113425167Y-107052457D01*
X113518603Y-106938603D01*
X113644388Y-106835375D01*
X113658844Y-106823511D01*
X113818843Y-106737990D01*
X113992452Y-106685326D01*
X114173000Y-106667544D01*
X114353547Y-106685326D01*
G37*
G36*
X119433547Y-106685326D02*
G01*
X119607156Y-106737990D01*
X119607158Y-106737991D01*
X119767155Y-106823511D01*
X119907397Y-106938603D01*
X119986729Y-107035271D01*
X120022489Y-107078844D01*
X120108010Y-107238843D01*
X120160674Y-107412452D01*
X120174000Y-107547756D01*
X120174000Y-108098243D01*
X120160674Y-108233548D01*
X120108010Y-108407157D01*
X120022489Y-108567156D01*
X120002560Y-108591439D01*
X119907397Y-108707397D01*
X119817083Y-108781515D01*
X119767156Y-108822489D01*
X119607157Y-108908010D01*
X119433548Y-108960674D01*
X119253000Y-108978456D01*
X119072453Y-108960674D01*
X118898844Y-108908010D01*
X118738845Y-108822489D01*
X118688918Y-108781515D01*
X118598604Y-108707397D01*
X118483513Y-108567157D01*
X118483512Y-108567155D01*
X118397990Y-108407157D01*
X118345326Y-108233548D01*
X118332000Y-108098244D01*
X118332000Y-107547757D01*
X118345326Y-107412453D01*
X118397990Y-107238844D01*
X118483511Y-107078845D01*
X118505167Y-107052457D01*
X118598603Y-106938603D01*
X118724388Y-106835375D01*
X118738844Y-106823511D01*
X118898843Y-106737990D01*
X119072452Y-106685326D01*
X119253000Y-106667544D01*
X119433547Y-106685326D01*
G37*
G36*
X121973547Y-106685326D02*
G01*
X122147156Y-106737990D01*
X122147158Y-106737991D01*
X122307155Y-106823511D01*
X122447397Y-106938603D01*
X122526729Y-107035271D01*
X122562489Y-107078844D01*
X122648010Y-107238843D01*
X122700674Y-107412452D01*
X122714000Y-107547756D01*
X122714000Y-108098243D01*
X122700674Y-108233548D01*
X122648010Y-108407157D01*
X122562489Y-108567156D01*
X122542560Y-108591439D01*
X122447397Y-108707397D01*
X122357083Y-108781515D01*
X122307156Y-108822489D01*
X122147157Y-108908010D01*
X121973548Y-108960674D01*
X121793000Y-108978456D01*
X121612453Y-108960674D01*
X121438844Y-108908010D01*
X121278845Y-108822489D01*
X121228918Y-108781515D01*
X121138604Y-108707397D01*
X121023513Y-108567157D01*
X121023512Y-108567155D01*
X120937990Y-108407157D01*
X120885326Y-108233548D01*
X120872000Y-108098244D01*
X120872000Y-107547757D01*
X120885326Y-107412453D01*
X120937990Y-107238844D01*
X121023511Y-107078845D01*
X121045167Y-107052457D01*
X121138603Y-106938603D01*
X121264388Y-106835375D01*
X121278844Y-106823511D01*
X121438843Y-106737990D01*
X121612452Y-106685326D01*
X121793000Y-106667544D01*
X121973547Y-106685326D01*
G37*
G36*
X116893547Y-106685326D02*
G01*
X117067156Y-106737990D01*
X117067158Y-106737991D01*
X117227155Y-106823511D01*
X117367397Y-106938603D01*
X117446729Y-107035271D01*
X117482489Y-107078844D01*
X117568010Y-107238843D01*
X117620674Y-107412452D01*
X117634000Y-107547756D01*
X117634000Y-108098243D01*
X117620674Y-108233548D01*
X117568010Y-108407157D01*
X117482489Y-108567156D01*
X117462560Y-108591439D01*
X117367397Y-108707397D01*
X117277083Y-108781515D01*
X117227156Y-108822489D01*
X117067157Y-108908010D01*
X116893548Y-108960674D01*
X116713000Y-108978456D01*
X116532453Y-108960674D01*
X116358844Y-108908010D01*
X116198845Y-108822489D01*
X116148918Y-108781515D01*
X116058604Y-108707397D01*
X115943513Y-108567157D01*
X115943512Y-108567155D01*
X115857990Y-108407157D01*
X115805326Y-108233548D01*
X115792000Y-108098244D01*
X115792000Y-107547757D01*
X115805326Y-107412453D01*
X115857990Y-107238844D01*
X115943511Y-107078845D01*
X115965167Y-107052457D01*
X116058603Y-106938603D01*
X116184388Y-106835375D01*
X116198844Y-106823511D01*
X116358843Y-106737990D01*
X116532452Y-106685326D01*
X116713000Y-106667544D01*
X116893547Y-106685326D01*
G37*
G36*
X104792561Y-106675966D02*
G01*
X104825383Y-106685923D01*
X104855632Y-106702092D01*
X104882148Y-106723852D01*
X104903908Y-106750368D01*
X104920077Y-106780617D01*
X104930034Y-106813439D01*
X104934000Y-106853713D01*
X104934000Y-108792287D01*
X104930034Y-108832561D01*
X104920077Y-108865383D01*
X104903908Y-108895632D01*
X104882148Y-108922148D01*
X104855632Y-108943908D01*
X104825383Y-108960077D01*
X104792561Y-108970034D01*
X104752287Y-108974000D01*
X103273713Y-108974000D01*
X103233439Y-108970034D01*
X103200617Y-108960077D01*
X103170368Y-108943908D01*
X103143852Y-108922148D01*
X103122092Y-108895632D01*
X103105923Y-108865383D01*
X103095966Y-108832561D01*
X103092000Y-108792287D01*
X103092000Y-106853713D01*
X103095966Y-106813439D01*
X103105923Y-106780617D01*
X103122092Y-106750368D01*
X103143852Y-106723852D01*
X103170368Y-106702092D01*
X103200617Y-106685923D01*
X103233439Y-106675966D01*
X103273713Y-106672000D01*
X104752287Y-106672000D01*
X104792561Y-106675966D01*
G37*
G36*
X143436547Y-105330626D02*
G01*
X143610156Y-105383290D01*
X143610158Y-105383291D01*
X143770155Y-105468811D01*
X143910397Y-105583903D01*
X143989729Y-105680571D01*
X144025489Y-105724144D01*
X144111010Y-105884143D01*
X144163674Y-106057752D01*
X144177000Y-106193056D01*
X144177000Y-106743543D01*
X144163674Y-106878848D01*
X144111010Y-107052457D01*
X144025489Y-107212456D01*
X143989729Y-107256029D01*
X143910397Y-107352697D01*
X143813729Y-107432029D01*
X143770156Y-107467789D01*
X143610157Y-107553310D01*
X143436548Y-107605974D01*
X143256000Y-107623756D01*
X143075453Y-107605974D01*
X142901844Y-107553310D01*
X142741845Y-107467789D01*
X142698272Y-107432029D01*
X142601604Y-107352697D01*
X142486513Y-107212457D01*
X142486512Y-107212455D01*
X142400990Y-107052457D01*
X142348326Y-106878848D01*
X142335000Y-106743544D01*
X142335000Y-106193057D01*
X142348326Y-106057753D01*
X142400990Y-105884144D01*
X142486511Y-105724145D01*
X142486512Y-105724144D01*
X142601603Y-105583903D01*
X142727388Y-105480675D01*
X142741844Y-105468811D01*
X142901843Y-105383290D01*
X143075452Y-105330626D01*
X143256000Y-105312844D01*
X143436547Y-105330626D01*
G37*
G36*
X140896547Y-105330626D02*
G01*
X141070156Y-105383290D01*
X141070158Y-105383291D01*
X141230155Y-105468811D01*
X141370397Y-105583903D01*
X141449729Y-105680571D01*
X141485489Y-105724144D01*
X141571010Y-105884143D01*
X141623674Y-106057752D01*
X141637000Y-106193056D01*
X141637000Y-106743543D01*
X141623674Y-106878848D01*
X141571010Y-107052457D01*
X141485489Y-107212456D01*
X141449729Y-107256029D01*
X141370397Y-107352697D01*
X141273729Y-107432029D01*
X141230156Y-107467789D01*
X141070157Y-107553310D01*
X140896548Y-107605974D01*
X140716000Y-107623756D01*
X140535453Y-107605974D01*
X140361844Y-107553310D01*
X140201845Y-107467789D01*
X140158272Y-107432029D01*
X140061604Y-107352697D01*
X139946513Y-107212457D01*
X139946512Y-107212455D01*
X139860990Y-107052457D01*
X139808326Y-106878848D01*
X139795000Y-106743544D01*
X139795000Y-106193057D01*
X139808326Y-106057753D01*
X139860990Y-105884144D01*
X139946511Y-105724145D01*
X139946512Y-105724144D01*
X140061603Y-105583903D01*
X140187388Y-105480675D01*
X140201844Y-105468811D01*
X140361843Y-105383290D01*
X140535452Y-105330626D01*
X140716000Y-105312844D01*
X140896547Y-105330626D01*
G37*
G36*
X84381547Y-105330626D02*
G01*
X84555156Y-105383290D01*
X84555158Y-105383291D01*
X84715155Y-105468811D01*
X84855397Y-105583903D01*
X84934729Y-105680571D01*
X84970489Y-105724144D01*
X85056010Y-105884143D01*
X85108674Y-106057752D01*
X85122000Y-106193056D01*
X85122000Y-106743543D01*
X85108674Y-106878848D01*
X85056010Y-107052457D01*
X84970489Y-107212456D01*
X84934729Y-107256029D01*
X84855397Y-107352697D01*
X84758729Y-107432029D01*
X84715156Y-107467789D01*
X84555157Y-107553310D01*
X84381548Y-107605974D01*
X84201000Y-107623756D01*
X84020453Y-107605974D01*
X83846844Y-107553310D01*
X83686845Y-107467789D01*
X83643272Y-107432029D01*
X83546604Y-107352697D01*
X83431513Y-107212457D01*
X83431512Y-107212455D01*
X83345990Y-107052457D01*
X83293326Y-106878848D01*
X83280000Y-106743544D01*
X83280000Y-106193057D01*
X83293326Y-106057753D01*
X83345990Y-105884144D01*
X83431511Y-105724145D01*
X83431512Y-105724144D01*
X83546603Y-105583903D01*
X83672388Y-105480675D01*
X83686844Y-105468811D01*
X83846843Y-105383290D01*
X84020452Y-105330626D01*
X84201000Y-105312844D01*
X84381547Y-105330626D01*
G37*
G36*
X81841547Y-105330626D02*
G01*
X82015156Y-105383290D01*
X82015158Y-105383291D01*
X82175155Y-105468811D01*
X82315397Y-105583903D01*
X82394729Y-105680571D01*
X82430489Y-105724144D01*
X82516010Y-105884143D01*
X82568674Y-106057752D01*
X82582000Y-106193056D01*
X82582000Y-106743543D01*
X82568674Y-106878848D01*
X82516010Y-107052457D01*
X82430489Y-107212456D01*
X82394729Y-107256029D01*
X82315397Y-107352697D01*
X82218729Y-107432029D01*
X82175156Y-107467789D01*
X82015157Y-107553310D01*
X81841548Y-107605974D01*
X81661000Y-107623756D01*
X81480453Y-107605974D01*
X81306844Y-107553310D01*
X81146845Y-107467789D01*
X81103272Y-107432029D01*
X81006604Y-107352697D01*
X80891513Y-107212457D01*
X80891512Y-107212455D01*
X80805990Y-107052457D01*
X80753326Y-106878848D01*
X80740000Y-106743544D01*
X80740000Y-106193057D01*
X80753326Y-106057753D01*
X80805990Y-105884144D01*
X80891511Y-105724145D01*
X80891512Y-105724144D01*
X81006603Y-105583903D01*
X81132388Y-105480675D01*
X81146844Y-105468811D01*
X81306843Y-105383290D01*
X81480452Y-105330626D01*
X81661000Y-105312844D01*
X81841547Y-105330626D01*
G37*
G36*
X79900561Y-105321266D02*
G01*
X79933383Y-105331223D01*
X79963632Y-105347392D01*
X79990148Y-105369152D01*
X80011908Y-105395668D01*
X80028077Y-105425917D01*
X80038034Y-105458739D01*
X80042000Y-105499013D01*
X80042000Y-107437587D01*
X80038034Y-107477861D01*
X80028077Y-107510683D01*
X80011908Y-107540932D01*
X79990148Y-107567448D01*
X79963632Y-107589208D01*
X79933383Y-107605377D01*
X79900561Y-107615334D01*
X79860287Y-107619300D01*
X78381713Y-107619300D01*
X78341439Y-107615334D01*
X78308617Y-107605377D01*
X78278368Y-107589208D01*
X78251852Y-107567448D01*
X78230092Y-107540932D01*
X78213923Y-107510683D01*
X78203966Y-107477861D01*
X78200000Y-107437587D01*
X78200000Y-105499013D01*
X78203966Y-105458739D01*
X78213923Y-105425917D01*
X78230092Y-105395668D01*
X78251852Y-105369152D01*
X78278368Y-105347392D01*
X78308617Y-105331223D01*
X78341439Y-105321266D01*
X78381713Y-105317300D01*
X79860287Y-105317300D01*
X79900561Y-105321266D01*
G37*
G36*
X138955561Y-105321266D02*
G01*
X138988383Y-105331223D01*
X139018632Y-105347392D01*
X139045148Y-105369152D01*
X139066908Y-105395668D01*
X139083077Y-105425917D01*
X139093034Y-105458739D01*
X139097000Y-105499013D01*
X139097000Y-107437587D01*
X139093034Y-107477861D01*
X139083077Y-107510683D01*
X139066908Y-107540932D01*
X139045148Y-107567448D01*
X139018632Y-107589208D01*
X138988383Y-107605377D01*
X138955561Y-107615334D01*
X138915287Y-107619300D01*
X137436713Y-107619300D01*
X137396439Y-107615334D01*
X137363617Y-107605377D01*
X137333368Y-107589208D01*
X137306852Y-107567448D01*
X137285092Y-107540932D01*
X137268923Y-107510683D01*
X137258966Y-107477861D01*
X137255000Y-107437587D01*
X137255000Y-105499013D01*
X137258966Y-105458739D01*
X137268923Y-105425917D01*
X137285092Y-105395668D01*
X137306852Y-105369152D01*
X137333368Y-105347392D01*
X137363617Y-105331223D01*
X137396439Y-105321266D01*
X137436713Y-105317300D01*
X138915287Y-105317300D01*
X138955561Y-105321266D01*
G37*
G36*
X126454000Y-105245000D02*
G01*
X124752000Y-105245000D01*
X124752000Y-103543000D01*
X126454000Y-103543000D01*
X126454000Y-105245000D01*
G37*
G36*
X105531228Y-102305703D02*
G01*
X105686100Y-102369853D01*
X105825481Y-102462985D01*
X105944015Y-102581519D01*
X106037147Y-102720900D01*
X106101297Y-102875772D01*
X106134000Y-103040184D01*
X106134000Y-103207816D01*
X106101297Y-103372228D01*
X106037147Y-103527100D01*
X105944015Y-103666481D01*
X105825481Y-103785015D01*
X105686100Y-103878147D01*
X105531228Y-103942297D01*
X105366816Y-103975000D01*
X105199184Y-103975000D01*
X105034772Y-103942297D01*
X104879900Y-103878147D01*
X104740519Y-103785015D01*
X104621985Y-103666481D01*
X104528853Y-103527100D01*
X104464703Y-103372228D01*
X104432000Y-103207816D01*
X104432000Y-103040184D01*
X104464703Y-102875772D01*
X104528853Y-102720900D01*
X104621985Y-102581519D01*
X104740519Y-102462985D01*
X104879900Y-102369853D01*
X105034772Y-102305703D01*
X105199184Y-102273000D01*
X105366816Y-102273000D01*
X105531228Y-102305703D01*
G37*
G36*
X101721228Y-102178703D02*
G01*
X101876100Y-102242853D01*
X102015481Y-102335985D01*
X102134015Y-102454519D01*
X102227147Y-102593900D01*
X102291297Y-102748772D01*
X102324000Y-102913184D01*
X102324000Y-103080816D01*
X102291297Y-103245228D01*
X102227147Y-103400100D01*
X102134015Y-103539481D01*
X102015481Y-103658015D01*
X101876100Y-103751147D01*
X101721228Y-103815297D01*
X101556816Y-103848000D01*
X101389184Y-103848000D01*
X101224772Y-103815297D01*
X101069900Y-103751147D01*
X100930519Y-103658015D01*
X100811985Y-103539481D01*
X100718853Y-103400100D01*
X100654703Y-103245228D01*
X100622000Y-103080816D01*
X100622000Y-102913184D01*
X100654703Y-102748772D01*
X100718853Y-102593900D01*
X100811985Y-102454519D01*
X100930519Y-102335985D01*
X101069900Y-102242853D01*
X101224772Y-102178703D01*
X101389184Y-102146000D01*
X101556816Y-102146000D01*
X101721228Y-102178703D01*
G37*
G36*
X95176547Y-97922326D02*
G01*
X95350156Y-97974990D01*
X95350158Y-97974991D01*
X95510155Y-98060511D01*
X95650397Y-98175603D01*
X95729729Y-98272271D01*
X95765489Y-98315844D01*
X95851010Y-98475843D01*
X95903674Y-98649452D01*
X95917000Y-98784756D01*
X95917000Y-99335243D01*
X95903674Y-99470548D01*
X95851010Y-99644157D01*
X95765489Y-99804156D01*
X95729729Y-99847729D01*
X95650397Y-99944397D01*
X95553729Y-100023729D01*
X95510156Y-100059489D01*
X95350157Y-100145010D01*
X95176548Y-100197674D01*
X94996000Y-100215456D01*
X94815453Y-100197674D01*
X94641844Y-100145010D01*
X94481845Y-100059489D01*
X94438272Y-100023729D01*
X94341604Y-99944397D01*
X94226513Y-99804157D01*
X94226512Y-99804155D01*
X94140990Y-99644157D01*
X94088326Y-99470548D01*
X94075000Y-99335244D01*
X94075000Y-98784757D01*
X94088326Y-98649453D01*
X94140990Y-98475844D01*
X94226511Y-98315845D01*
X94226512Y-98315844D01*
X94341603Y-98175603D01*
X94467388Y-98072375D01*
X94481844Y-98060511D01*
X94641843Y-97974990D01*
X94815452Y-97922326D01*
X94996000Y-97904544D01*
X95176547Y-97922326D01*
G37*
G36*
X97716547Y-97922326D02*
G01*
X97890156Y-97974990D01*
X97890158Y-97974991D01*
X98050155Y-98060511D01*
X98190397Y-98175603D01*
X98269729Y-98272271D01*
X98305489Y-98315844D01*
X98391010Y-98475843D01*
X98443674Y-98649452D01*
X98457000Y-98784756D01*
X98457000Y-99335243D01*
X98443674Y-99470548D01*
X98391010Y-99644157D01*
X98305489Y-99804156D01*
X98269729Y-99847729D01*
X98190397Y-99944397D01*
X98093729Y-100023729D01*
X98050156Y-100059489D01*
X97890157Y-100145010D01*
X97716548Y-100197674D01*
X97536000Y-100215456D01*
X97355453Y-100197674D01*
X97181844Y-100145010D01*
X97021845Y-100059489D01*
X96978272Y-100023729D01*
X96881604Y-99944397D01*
X96766513Y-99804157D01*
X96766512Y-99804155D01*
X96680990Y-99644157D01*
X96628326Y-99470548D01*
X96615000Y-99335244D01*
X96615000Y-98784757D01*
X96628326Y-98649453D01*
X96680990Y-98475844D01*
X96766511Y-98315845D01*
X96766512Y-98315844D01*
X96881603Y-98175603D01*
X97007388Y-98072375D01*
X97021844Y-98060511D01*
X97181843Y-97974990D01*
X97355452Y-97922326D01*
X97536000Y-97904544D01*
X97716547Y-97922326D01*
G37*
G36*
X93235561Y-97912966D02*
G01*
X93268383Y-97922923D01*
X93298632Y-97939092D01*
X93325148Y-97960852D01*
X93346908Y-97987368D01*
X93363077Y-98017617D01*
X93373034Y-98050439D01*
X93377000Y-98090713D01*
X93377000Y-100029287D01*
X93373034Y-100069561D01*
X93363077Y-100102383D01*
X93346908Y-100132632D01*
X93325148Y-100159148D01*
X93298632Y-100180908D01*
X93268383Y-100197077D01*
X93235561Y-100207034D01*
X93195287Y-100211000D01*
X91716713Y-100211000D01*
X91676439Y-100207034D01*
X91643617Y-100197077D01*
X91613368Y-100180908D01*
X91586852Y-100159148D01*
X91565092Y-100132632D01*
X91548923Y-100102383D01*
X91538966Y-100069561D01*
X91535000Y-100029287D01*
X91535000Y-98090713D01*
X91538966Y-98050439D01*
X91548923Y-98017617D01*
X91565092Y-97987368D01*
X91586852Y-97960852D01*
X91613368Y-97939092D01*
X91643617Y-97922923D01*
X91676439Y-97912966D01*
X91716713Y-97909000D01*
X93195287Y-97909000D01*
X93235561Y-97912966D01*
G37*
G36*
X132768547Y-97287326D02*
G01*
X132942156Y-97339990D01*
X132942158Y-97339991D01*
X133102155Y-97425511D01*
X133242397Y-97540603D01*
X133280345Y-97586844D01*
X133357489Y-97680844D01*
X133443010Y-97840843D01*
X133495674Y-98014452D01*
X133509000Y-98149756D01*
X133509000Y-98700243D01*
X133495674Y-98835548D01*
X133443010Y-99009157D01*
X133357489Y-99169156D01*
X133328581Y-99204380D01*
X133242397Y-99309397D01*
X133145729Y-99388729D01*
X133102156Y-99424489D01*
X132942157Y-99510010D01*
X132768548Y-99562674D01*
X132588000Y-99580456D01*
X132407453Y-99562674D01*
X132233844Y-99510010D01*
X132073845Y-99424489D01*
X132030272Y-99388729D01*
X131933604Y-99309397D01*
X131818513Y-99169157D01*
X131818512Y-99169155D01*
X131732990Y-99009157D01*
X131680326Y-98835548D01*
X131667000Y-98700244D01*
X131667000Y-98149757D01*
X131669732Y-98122023D01*
X131679128Y-98026620D01*
X131680326Y-98014453D01*
X131732990Y-97840844D01*
X131818511Y-97680845D01*
X131818512Y-97680844D01*
X131933603Y-97540603D01*
X132072219Y-97426845D01*
X132073844Y-97425511D01*
X132233843Y-97339990D01*
X132407452Y-97287326D01*
X132588000Y-97269544D01*
X132768547Y-97287326D01*
G37*
G36*
X130228547Y-97287326D02*
G01*
X130402156Y-97339990D01*
X130402158Y-97339991D01*
X130562155Y-97425511D01*
X130702397Y-97540603D01*
X130740345Y-97586844D01*
X130817489Y-97680844D01*
X130903010Y-97840843D01*
X130955674Y-98014452D01*
X130969000Y-98149756D01*
X130969000Y-98700243D01*
X130955674Y-98835548D01*
X130903010Y-99009157D01*
X130817489Y-99169156D01*
X130788581Y-99204380D01*
X130702397Y-99309397D01*
X130605729Y-99388729D01*
X130562156Y-99424489D01*
X130402157Y-99510010D01*
X130228548Y-99562674D01*
X130048000Y-99580456D01*
X129867453Y-99562674D01*
X129693844Y-99510010D01*
X129533845Y-99424489D01*
X129490272Y-99388729D01*
X129393604Y-99309397D01*
X129278513Y-99169157D01*
X129278512Y-99169155D01*
X129192990Y-99009157D01*
X129140326Y-98835548D01*
X129127000Y-98700244D01*
X129127000Y-98149757D01*
X129129732Y-98122023D01*
X129139128Y-98026620D01*
X129140326Y-98014453D01*
X129192990Y-97840844D01*
X129278511Y-97680845D01*
X129278512Y-97680844D01*
X129393603Y-97540603D01*
X129532219Y-97426845D01*
X129533844Y-97425511D01*
X129693843Y-97339990D01*
X129867452Y-97287326D01*
X130048000Y-97269544D01*
X130228547Y-97287326D01*
G37*
G36*
X128287561Y-97277966D02*
G01*
X128320383Y-97287923D01*
X128350632Y-97304092D01*
X128377148Y-97325852D01*
X128398908Y-97352368D01*
X128415077Y-97382617D01*
X128425034Y-97415439D01*
X128429000Y-97455713D01*
X128429000Y-99394287D01*
X128425034Y-99434561D01*
X128415077Y-99467383D01*
X128398908Y-99497632D01*
X128377148Y-99524148D01*
X128350632Y-99545908D01*
X128320383Y-99562077D01*
X128287561Y-99572034D01*
X128247287Y-99576000D01*
X126768713Y-99576000D01*
X126728439Y-99572034D01*
X126695617Y-99562077D01*
X126665368Y-99545908D01*
X126638852Y-99524148D01*
X126617092Y-99497632D01*
X126600923Y-99467383D01*
X126590966Y-99434561D01*
X126587000Y-99394287D01*
X126587000Y-97455713D01*
X126590966Y-97415439D01*
X126600923Y-97382617D01*
X126617092Y-97352368D01*
X126638852Y-97325852D01*
X126665368Y-97304092D01*
X126695617Y-97287923D01*
X126728439Y-97277966D01*
X126768713Y-97274000D01*
X128247287Y-97274000D01*
X128287561Y-97277966D01*
G37*
G36*
X119560547Y-97033326D02*
G01*
X119734156Y-97085990D01*
X119734158Y-97085991D01*
X119894155Y-97171511D01*
X120034397Y-97286603D01*
X120087668Y-97351515D01*
X120149489Y-97426844D01*
X120235010Y-97586843D01*
X120287674Y-97760452D01*
X120301000Y-97895756D01*
X120301000Y-98446243D01*
X120287674Y-98581548D01*
X120235010Y-98755157D01*
X120149489Y-98915156D01*
X120113729Y-98958729D01*
X120034397Y-99055397D01*
X119937729Y-99134729D01*
X119894156Y-99170489D01*
X119734157Y-99256010D01*
X119560548Y-99308674D01*
X119380000Y-99326456D01*
X119199453Y-99308674D01*
X119025844Y-99256010D01*
X118865845Y-99170489D01*
X118822272Y-99134729D01*
X118725604Y-99055397D01*
X118610513Y-98915157D01*
X118610512Y-98915155D01*
X118524990Y-98755157D01*
X118472326Y-98581548D01*
X118459000Y-98446244D01*
X118459000Y-97895757D01*
X118472326Y-97760453D01*
X118524990Y-97586844D01*
X118610511Y-97426845D01*
X118639419Y-97391620D01*
X118725603Y-97286603D01*
X118851388Y-97183375D01*
X118865844Y-97171511D01*
X119025843Y-97085990D01*
X119199452Y-97033326D01*
X119380000Y-97015544D01*
X119560547Y-97033326D01*
G37*
G36*
X117020547Y-97033326D02*
G01*
X117194156Y-97085990D01*
X117194158Y-97085991D01*
X117354155Y-97171511D01*
X117494397Y-97286603D01*
X117547668Y-97351515D01*
X117609489Y-97426844D01*
X117695010Y-97586843D01*
X117747674Y-97760452D01*
X117761000Y-97895756D01*
X117761000Y-98446243D01*
X117747674Y-98581548D01*
X117695010Y-98755157D01*
X117609489Y-98915156D01*
X117573729Y-98958729D01*
X117494397Y-99055397D01*
X117397729Y-99134729D01*
X117354156Y-99170489D01*
X117194157Y-99256010D01*
X117020548Y-99308674D01*
X116840000Y-99326456D01*
X116659453Y-99308674D01*
X116485844Y-99256010D01*
X116325845Y-99170489D01*
X116282272Y-99134729D01*
X116185604Y-99055397D01*
X116070513Y-98915157D01*
X116070512Y-98915155D01*
X115984990Y-98755157D01*
X115932326Y-98581548D01*
X115919000Y-98446244D01*
X115919000Y-97895757D01*
X115932326Y-97760453D01*
X115984990Y-97586844D01*
X116070511Y-97426845D01*
X116099419Y-97391620D01*
X116185603Y-97286603D01*
X116311388Y-97183375D01*
X116325844Y-97171511D01*
X116485843Y-97085990D01*
X116659452Y-97033326D01*
X116840000Y-97015544D01*
X117020547Y-97033326D01*
G37*
G36*
X111940547Y-97033326D02*
G01*
X112114156Y-97085990D01*
X112114158Y-97085991D01*
X112274155Y-97171511D01*
X112414397Y-97286603D01*
X112467668Y-97351515D01*
X112529489Y-97426844D01*
X112615010Y-97586843D01*
X112667674Y-97760452D01*
X112681000Y-97895756D01*
X112681000Y-98446243D01*
X112667674Y-98581548D01*
X112615010Y-98755157D01*
X112529489Y-98915156D01*
X112493729Y-98958729D01*
X112414397Y-99055397D01*
X112317729Y-99134729D01*
X112274156Y-99170489D01*
X112114157Y-99256010D01*
X111940548Y-99308674D01*
X111760000Y-99326456D01*
X111579453Y-99308674D01*
X111405844Y-99256010D01*
X111245845Y-99170489D01*
X111202272Y-99134729D01*
X111105604Y-99055397D01*
X110990513Y-98915157D01*
X110990512Y-98915155D01*
X110904990Y-98755157D01*
X110852326Y-98581548D01*
X110839000Y-98446244D01*
X110839000Y-97895757D01*
X110852326Y-97760453D01*
X110904990Y-97586844D01*
X110990511Y-97426845D01*
X111019419Y-97391620D01*
X111105603Y-97286603D01*
X111231388Y-97183375D01*
X111245844Y-97171511D01*
X111405843Y-97085990D01*
X111579452Y-97033326D01*
X111760000Y-97015544D01*
X111940547Y-97033326D01*
G37*
G36*
X114480547Y-97033326D02*
G01*
X114654156Y-97085990D01*
X114654158Y-97085991D01*
X114814155Y-97171511D01*
X114954397Y-97286603D01*
X115007668Y-97351515D01*
X115069489Y-97426844D01*
X115155010Y-97586843D01*
X115207674Y-97760452D01*
X115221000Y-97895756D01*
X115221000Y-98446243D01*
X115207674Y-98581548D01*
X115155010Y-98755157D01*
X115069489Y-98915156D01*
X115033729Y-98958729D01*
X114954397Y-99055397D01*
X114857729Y-99134729D01*
X114814156Y-99170489D01*
X114654157Y-99256010D01*
X114480548Y-99308674D01*
X114300000Y-99326456D01*
X114119453Y-99308674D01*
X113945844Y-99256010D01*
X113785845Y-99170489D01*
X113742272Y-99134729D01*
X113645604Y-99055397D01*
X113530513Y-98915157D01*
X113530512Y-98915155D01*
X113444990Y-98755157D01*
X113392326Y-98581548D01*
X113379000Y-98446244D01*
X113379000Y-97895757D01*
X113392326Y-97760453D01*
X113444990Y-97586844D01*
X113530511Y-97426845D01*
X113559419Y-97391620D01*
X113645603Y-97286603D01*
X113771388Y-97183375D01*
X113785844Y-97171511D01*
X113945843Y-97085990D01*
X114119452Y-97033326D01*
X114300000Y-97015544D01*
X114480547Y-97033326D01*
G37*
G36*
X122100547Y-97033326D02*
G01*
X122274156Y-97085990D01*
X122274158Y-97085991D01*
X122434155Y-97171511D01*
X122574397Y-97286603D01*
X122627668Y-97351515D01*
X122689489Y-97426844D01*
X122775010Y-97586843D01*
X122827674Y-97760452D01*
X122841000Y-97895756D01*
X122841000Y-98446243D01*
X122827674Y-98581548D01*
X122775010Y-98755157D01*
X122689489Y-98915156D01*
X122653729Y-98958729D01*
X122574397Y-99055397D01*
X122477729Y-99134729D01*
X122434156Y-99170489D01*
X122274157Y-99256010D01*
X122100548Y-99308674D01*
X121920000Y-99326456D01*
X121739453Y-99308674D01*
X121565844Y-99256010D01*
X121405845Y-99170489D01*
X121362272Y-99134729D01*
X121265604Y-99055397D01*
X121150513Y-98915157D01*
X121150512Y-98915155D01*
X121064990Y-98755157D01*
X121012326Y-98581548D01*
X120999000Y-98446244D01*
X120999000Y-97895757D01*
X121012326Y-97760453D01*
X121064990Y-97586844D01*
X121150511Y-97426845D01*
X121179419Y-97391620D01*
X121265603Y-97286603D01*
X121391388Y-97183375D01*
X121405844Y-97171511D01*
X121565843Y-97085990D01*
X121739452Y-97033326D01*
X121920000Y-97015544D01*
X122100547Y-97033326D01*
G37*
G36*
X109999561Y-97023966D02*
G01*
X110032383Y-97033923D01*
X110062632Y-97050092D01*
X110089148Y-97071852D01*
X110110908Y-97098368D01*
X110127077Y-97128617D01*
X110137034Y-97161439D01*
X110141000Y-97201713D01*
X110141000Y-99140287D01*
X110137034Y-99180561D01*
X110127077Y-99213383D01*
X110110908Y-99243632D01*
X110089148Y-99270148D01*
X110062632Y-99291908D01*
X110032383Y-99308077D01*
X109999561Y-99318034D01*
X109959287Y-99322000D01*
X108480713Y-99322000D01*
X108440439Y-99318034D01*
X108407617Y-99308077D01*
X108377368Y-99291908D01*
X108350852Y-99270148D01*
X108329092Y-99243632D01*
X108312923Y-99213383D01*
X108302966Y-99180561D01*
X108299000Y-99140287D01*
X108299000Y-97201713D01*
X108302966Y-97161439D01*
X108312923Y-97128617D01*
X108329092Y-97098368D01*
X108350852Y-97071852D01*
X108377368Y-97050092D01*
X108407617Y-97033923D01*
X108440439Y-97023966D01*
X108480713Y-97020000D01*
X109959287Y-97020000D01*
X109999561Y-97023966D01*
G37*
G36*
X143436547Y-96483026D02*
G01*
X143610156Y-96535690D01*
X143610158Y-96535691D01*
X143770155Y-96621211D01*
X143910397Y-96736303D01*
X143989729Y-96832971D01*
X144025489Y-96876544D01*
X144099786Y-97015544D01*
X144109291Y-97033326D01*
X144111010Y-97036543D01*
X144163674Y-97210152D01*
X144177000Y-97345456D01*
X144177000Y-97895943D01*
X144163674Y-98031248D01*
X144111010Y-98204857D01*
X144025489Y-98364856D01*
X143989729Y-98408429D01*
X143910397Y-98505097D01*
X143817242Y-98581546D01*
X143770156Y-98620189D01*
X143610157Y-98705710D01*
X143436548Y-98758374D01*
X143256000Y-98776156D01*
X143075453Y-98758374D01*
X142901844Y-98705710D01*
X142741845Y-98620189D01*
X142694759Y-98581546D01*
X142601604Y-98505097D01*
X142486513Y-98364857D01*
X142486512Y-98364855D01*
X142400990Y-98204857D01*
X142348326Y-98031248D01*
X142335000Y-97895944D01*
X142335000Y-97345457D01*
X142348326Y-97210153D01*
X142400990Y-97036544D01*
X142486511Y-96876545D01*
X142486512Y-96876544D01*
X142601603Y-96736303D01*
X142727388Y-96633075D01*
X142741844Y-96621211D01*
X142901843Y-96535690D01*
X143075452Y-96483026D01*
X143256000Y-96465244D01*
X143436547Y-96483026D01*
G37*
G36*
X140896547Y-96483026D02*
G01*
X141070156Y-96535690D01*
X141070158Y-96535691D01*
X141230155Y-96621211D01*
X141370397Y-96736303D01*
X141449729Y-96832971D01*
X141485489Y-96876544D01*
X141559786Y-97015544D01*
X141569291Y-97033326D01*
X141571010Y-97036543D01*
X141623674Y-97210152D01*
X141637000Y-97345456D01*
X141637000Y-97895943D01*
X141623674Y-98031248D01*
X141571010Y-98204857D01*
X141485489Y-98364856D01*
X141449729Y-98408429D01*
X141370397Y-98505097D01*
X141277242Y-98581546D01*
X141230156Y-98620189D01*
X141070157Y-98705710D01*
X140896548Y-98758374D01*
X140716000Y-98776156D01*
X140535453Y-98758374D01*
X140361844Y-98705710D01*
X140201845Y-98620189D01*
X140154759Y-98581546D01*
X140061604Y-98505097D01*
X139946513Y-98364857D01*
X139946512Y-98364855D01*
X139860990Y-98204857D01*
X139808326Y-98031248D01*
X139795000Y-97895944D01*
X139795000Y-97345457D01*
X139808326Y-97210153D01*
X139860990Y-97036544D01*
X139946511Y-96876545D01*
X139946512Y-96876544D01*
X140061603Y-96736303D01*
X140187388Y-96633075D01*
X140201844Y-96621211D01*
X140361843Y-96535690D01*
X140535452Y-96483026D01*
X140716000Y-96465244D01*
X140896547Y-96483026D01*
G37*
G36*
X84381547Y-96483026D02*
G01*
X84555156Y-96535690D01*
X84555158Y-96535691D01*
X84715155Y-96621211D01*
X84855397Y-96736303D01*
X84934729Y-96832971D01*
X84970489Y-96876544D01*
X85044786Y-97015544D01*
X85054291Y-97033326D01*
X85056010Y-97036543D01*
X85108674Y-97210152D01*
X85122000Y-97345456D01*
X85122000Y-97895943D01*
X85108674Y-98031248D01*
X85056010Y-98204857D01*
X84970489Y-98364856D01*
X84934729Y-98408429D01*
X84855397Y-98505097D01*
X84762242Y-98581546D01*
X84715156Y-98620189D01*
X84555157Y-98705710D01*
X84381548Y-98758374D01*
X84201000Y-98776156D01*
X84020453Y-98758374D01*
X83846844Y-98705710D01*
X83686845Y-98620189D01*
X83639759Y-98581546D01*
X83546604Y-98505097D01*
X83431513Y-98364857D01*
X83431512Y-98364855D01*
X83345990Y-98204857D01*
X83293326Y-98031248D01*
X83280000Y-97895944D01*
X83280000Y-97345457D01*
X83293326Y-97210153D01*
X83345990Y-97036544D01*
X83431511Y-96876545D01*
X83431512Y-96876544D01*
X83546603Y-96736303D01*
X83672388Y-96633075D01*
X83686844Y-96621211D01*
X83846843Y-96535690D01*
X84020452Y-96483026D01*
X84201000Y-96465244D01*
X84381547Y-96483026D01*
G37*
G36*
X81841547Y-96483026D02*
G01*
X82015156Y-96535690D01*
X82015158Y-96535691D01*
X82175155Y-96621211D01*
X82315397Y-96736303D01*
X82394729Y-96832971D01*
X82430489Y-96876544D01*
X82504786Y-97015544D01*
X82514291Y-97033326D01*
X82516010Y-97036543D01*
X82568674Y-97210152D01*
X82582000Y-97345456D01*
X82582000Y-97895943D01*
X82568674Y-98031248D01*
X82516010Y-98204857D01*
X82430489Y-98364856D01*
X82394729Y-98408429D01*
X82315397Y-98505097D01*
X82222242Y-98581546D01*
X82175156Y-98620189D01*
X82015157Y-98705710D01*
X81841548Y-98758374D01*
X81661000Y-98776156D01*
X81480453Y-98758374D01*
X81306844Y-98705710D01*
X81146845Y-98620189D01*
X81099759Y-98581546D01*
X81006604Y-98505097D01*
X80891513Y-98364857D01*
X80891512Y-98364855D01*
X80805990Y-98204857D01*
X80753326Y-98031248D01*
X80740000Y-97895944D01*
X80740000Y-97345457D01*
X80753326Y-97210153D01*
X80805990Y-97036544D01*
X80891511Y-96876545D01*
X80891512Y-96876544D01*
X81006603Y-96736303D01*
X81132388Y-96633075D01*
X81146844Y-96621211D01*
X81306843Y-96535690D01*
X81480452Y-96483026D01*
X81661000Y-96465244D01*
X81841547Y-96483026D01*
G37*
G36*
X138955561Y-96473666D02*
G01*
X138988383Y-96483623D01*
X139018632Y-96499792D01*
X139045148Y-96521552D01*
X139066908Y-96548068D01*
X139083077Y-96578317D01*
X139093034Y-96611139D01*
X139097000Y-96651413D01*
X139097000Y-98589987D01*
X139093034Y-98630261D01*
X139083077Y-98663083D01*
X139066908Y-98693332D01*
X139045148Y-98719848D01*
X139018632Y-98741608D01*
X138988383Y-98757777D01*
X138955561Y-98767734D01*
X138915287Y-98771700D01*
X137436713Y-98771700D01*
X137396439Y-98767734D01*
X137363617Y-98757777D01*
X137333368Y-98741608D01*
X137306852Y-98719848D01*
X137285092Y-98693332D01*
X137268923Y-98663083D01*
X137258966Y-98630261D01*
X137255000Y-98589987D01*
X137255000Y-96651413D01*
X137258966Y-96611139D01*
X137268923Y-96578317D01*
X137285092Y-96548068D01*
X137306852Y-96521552D01*
X137333368Y-96499792D01*
X137363617Y-96483623D01*
X137396439Y-96473666D01*
X137436713Y-96469700D01*
X138915287Y-96469700D01*
X138955561Y-96473666D01*
G37*
G36*
X79900561Y-96473666D02*
G01*
X79933383Y-96483623D01*
X79963632Y-96499792D01*
X79990148Y-96521552D01*
X80011908Y-96548068D01*
X80028077Y-96578317D01*
X80038034Y-96611139D01*
X80042000Y-96651413D01*
X80042000Y-98589987D01*
X80038034Y-98630261D01*
X80028077Y-98663083D01*
X80011908Y-98693332D01*
X79990148Y-98719848D01*
X79963632Y-98741608D01*
X79933383Y-98757777D01*
X79900561Y-98767734D01*
X79860287Y-98771700D01*
X78381713Y-98771700D01*
X78341439Y-98767734D01*
X78308617Y-98757777D01*
X78278368Y-98741608D01*
X78251852Y-98719848D01*
X78230092Y-98693332D01*
X78213923Y-98663083D01*
X78203966Y-98630261D01*
X78200000Y-98589987D01*
X78200000Y-96651413D01*
X78203966Y-96611139D01*
X78213923Y-96578317D01*
X78230092Y-96548068D01*
X78251852Y-96521552D01*
X78278368Y-96499792D01*
X78308617Y-96483623D01*
X78341439Y-96473666D01*
X78381713Y-96469700D01*
X79860287Y-96469700D01*
X79900561Y-96473666D01*
G37*
G36*
X106134000Y-96355000D02*
G01*
X104432000Y-96355000D01*
X104432000Y-94653000D01*
X106134000Y-94653000D01*
X106134000Y-96355000D01*
G37*
G36*
X102324000Y-96228000D02*
G01*
X100622000Y-96228000D01*
X100622000Y-94526000D01*
X102324000Y-94526000D01*
X102324000Y-96228000D01*
G37*
G36*
X130931256Y-88815298D02*
G01*
X131037579Y-88836447D01*
X131338042Y-88960903D01*
X131608451Y-89141585D01*
X131838415Y-89371549D01*
X131935707Y-89517157D01*
X132019098Y-89641960D01*
X132020008Y-89644157D01*
X132143553Y-89942421D01*
X132207000Y-90261391D01*
X132207000Y-90586609D01*
X132143553Y-90905579D01*
X132019097Y-91206042D01*
X131838415Y-91476451D01*
X131608451Y-91706415D01*
X131338042Y-91887097D01*
X131037579Y-92011553D01*
X130931256Y-92032702D01*
X130718611Y-92075000D01*
X130393389Y-92075000D01*
X130180744Y-92032702D01*
X130074421Y-92011553D01*
X129773958Y-91887097D01*
X129503549Y-91706415D01*
X129273585Y-91476451D01*
X129092903Y-91206042D01*
X128968447Y-90905579D01*
X128905000Y-90586609D01*
X128905000Y-90261391D01*
X128968447Y-89942421D01*
X129091992Y-89644157D01*
X129092902Y-89641960D01*
X129176293Y-89517157D01*
X129273585Y-89371549D01*
X129503549Y-89141585D01*
X129773958Y-88960903D01*
X130074421Y-88836447D01*
X130180744Y-88815298D01*
X130393389Y-88773000D01*
X130718611Y-88773000D01*
X130931256Y-88815298D01*
G37*
G36*
X94990256Y-88815298D02*
G01*
X95096579Y-88836447D01*
X95397042Y-88960903D01*
X95667451Y-89141585D01*
X95897415Y-89371549D01*
X95994707Y-89517157D01*
X96078098Y-89641960D01*
X96079008Y-89644157D01*
X96202553Y-89942421D01*
X96266000Y-90261391D01*
X96266000Y-90586609D01*
X96202553Y-90905579D01*
X96078097Y-91206042D01*
X95897415Y-91476451D01*
X95667451Y-91706415D01*
X95397042Y-91887097D01*
X95096579Y-92011553D01*
X94990256Y-92032702D01*
X94777611Y-92075000D01*
X94452389Y-92075000D01*
X94239744Y-92032702D01*
X94133421Y-92011553D01*
X93832958Y-91887097D01*
X93562549Y-91706415D01*
X93332585Y-91476451D01*
X93151903Y-91206042D01*
X93027447Y-90905579D01*
X92964000Y-90586609D01*
X92964000Y-90261391D01*
X93027447Y-89942421D01*
X93150992Y-89644157D01*
X93151902Y-89641960D01*
X93235293Y-89517157D01*
X93332585Y-89371549D01*
X93562549Y-89141585D01*
X93832958Y-88960903D01*
X94133421Y-88836447D01*
X94239744Y-88815298D01*
X94452389Y-88773000D01*
X94777611Y-88773000D01*
X94990256Y-88815298D01*
G37*
G36*
X105463547Y-87762326D02*
G01*
X105637156Y-87814990D01*
X105637158Y-87814991D01*
X105797155Y-87900511D01*
X105937397Y-88015603D01*
X105975345Y-88061844D01*
X106052489Y-88155844D01*
X106138010Y-88315843D01*
X106190674Y-88489452D01*
X106204000Y-88624756D01*
X106204000Y-89175243D01*
X106190674Y-89310548D01*
X106138010Y-89484157D01*
X106052489Y-89644156D01*
X106023581Y-89679380D01*
X105937397Y-89784397D01*
X105861741Y-89846485D01*
X105797156Y-89899489D01*
X105637157Y-89985010D01*
X105463548Y-90037674D01*
X105283000Y-90055456D01*
X105102453Y-90037674D01*
X104928844Y-89985010D01*
X104768845Y-89899489D01*
X104704260Y-89846485D01*
X104628604Y-89784397D01*
X104513513Y-89644157D01*
X104513512Y-89644155D01*
X104427990Y-89484157D01*
X104375326Y-89310548D01*
X104362818Y-89183546D01*
X104362000Y-89175245D01*
X104362000Y-88624756D01*
X104374508Y-88497756D01*
X104375326Y-88489453D01*
X104427990Y-88315844D01*
X104513511Y-88155845D01*
X104513512Y-88155844D01*
X104628603Y-88015603D01*
X104767219Y-87901845D01*
X104768844Y-87900511D01*
X104928843Y-87814990D01*
X105102452Y-87762326D01*
X105283000Y-87744544D01*
X105463547Y-87762326D01*
G37*
G36*
X102923547Y-87762326D02*
G01*
X103097156Y-87814990D01*
X103097158Y-87814991D01*
X103257155Y-87900511D01*
X103397397Y-88015603D01*
X103435345Y-88061844D01*
X103512489Y-88155844D01*
X103598010Y-88315843D01*
X103650674Y-88489452D01*
X103664000Y-88624756D01*
X103664000Y-89175243D01*
X103650674Y-89310548D01*
X103598010Y-89484157D01*
X103512489Y-89644156D01*
X103483581Y-89679380D01*
X103397397Y-89784397D01*
X103321741Y-89846485D01*
X103257156Y-89899489D01*
X103097157Y-89985010D01*
X102923548Y-90037674D01*
X102743000Y-90055456D01*
X102562453Y-90037674D01*
X102388844Y-89985010D01*
X102228845Y-89899489D01*
X102164260Y-89846485D01*
X102088604Y-89784397D01*
X101973513Y-89644157D01*
X101973512Y-89644155D01*
X101887990Y-89484157D01*
X101835326Y-89310548D01*
X101822818Y-89183546D01*
X101822000Y-89175245D01*
X101822000Y-88624756D01*
X101834508Y-88497756D01*
X101835326Y-88489453D01*
X101887990Y-88315844D01*
X101973511Y-88155845D01*
X101973512Y-88155844D01*
X102088603Y-88015603D01*
X102227219Y-87901845D01*
X102228844Y-87900511D01*
X102388843Y-87814990D01*
X102562452Y-87762326D01*
X102743000Y-87744544D01*
X102923547Y-87762326D01*
G37*
G36*
X100982561Y-87752966D02*
G01*
X101015383Y-87762923D01*
X101045632Y-87779092D01*
X101072148Y-87800852D01*
X101093908Y-87827368D01*
X101110077Y-87857617D01*
X101120034Y-87890439D01*
X101124000Y-87930713D01*
X101124000Y-89869287D01*
X101120034Y-89909561D01*
X101110077Y-89942383D01*
X101093908Y-89972632D01*
X101072148Y-89999148D01*
X101045632Y-90020908D01*
X101015383Y-90037077D01*
X100982561Y-90047034D01*
X100942287Y-90051000D01*
X99463713Y-90051000D01*
X99423439Y-90047034D01*
X99390617Y-90037077D01*
X99360368Y-90020908D01*
X99333852Y-89999148D01*
X99312092Y-89972632D01*
X99295923Y-89942383D01*
X99285966Y-89909561D01*
X99282000Y-89869287D01*
X99282000Y-87930713D01*
X99285966Y-87890439D01*
X99295923Y-87857617D01*
X99312092Y-87827368D01*
X99333852Y-87800852D01*
X99360368Y-87779092D01*
X99390617Y-87762923D01*
X99423439Y-87752966D01*
X99463713Y-87749000D01*
X100942287Y-87749000D01*
X100982561Y-87752966D01*
G37*
G36*
X122608547Y-87635326D02*
G01*
X122782156Y-87687990D01*
X122782158Y-87687991D01*
X122942155Y-87773511D01*
X123082397Y-87888603D01*
X123142650Y-87962023D01*
X123197489Y-88028844D01*
X123283010Y-88188843D01*
X123335674Y-88362452D01*
X123335674Y-88362454D01*
X123348183Y-88489455D01*
X123349000Y-88497756D01*
X123349000Y-89048243D01*
X123335674Y-89183548D01*
X123283010Y-89357157D01*
X123197489Y-89517156D01*
X123161729Y-89560729D01*
X123082397Y-89657397D01*
X123006741Y-89719485D01*
X122942156Y-89772489D01*
X122782157Y-89858010D01*
X122608548Y-89910674D01*
X122428000Y-89928456D01*
X122247453Y-89910674D01*
X122073844Y-89858010D01*
X121913845Y-89772489D01*
X121849260Y-89719485D01*
X121773604Y-89657397D01*
X121658513Y-89517157D01*
X121658512Y-89517155D01*
X121572990Y-89357157D01*
X121520326Y-89183548D01*
X121507818Y-89056546D01*
X121507000Y-89048245D01*
X121507000Y-88497756D01*
X121519508Y-88370756D01*
X121520326Y-88362453D01*
X121572990Y-88188844D01*
X121658511Y-88028845D01*
X121658512Y-88028844D01*
X121773603Y-87888603D01*
X121880529Y-87800852D01*
X121913844Y-87773511D01*
X122073843Y-87687990D01*
X122247452Y-87635326D01*
X122428000Y-87617544D01*
X122608547Y-87635326D01*
G37*
G36*
X125148547Y-87635326D02*
G01*
X125322156Y-87687990D01*
X125322158Y-87687991D01*
X125482155Y-87773511D01*
X125622397Y-87888603D01*
X125682650Y-87962023D01*
X125737489Y-88028844D01*
X125823010Y-88188843D01*
X125875674Y-88362452D01*
X125875674Y-88362454D01*
X125888183Y-88489455D01*
X125889000Y-88497756D01*
X125889000Y-89048243D01*
X125875674Y-89183548D01*
X125823010Y-89357157D01*
X125737489Y-89517156D01*
X125701729Y-89560729D01*
X125622397Y-89657397D01*
X125546741Y-89719485D01*
X125482156Y-89772489D01*
X125322157Y-89858010D01*
X125148548Y-89910674D01*
X124968000Y-89928456D01*
X124787453Y-89910674D01*
X124613844Y-89858010D01*
X124453845Y-89772489D01*
X124389260Y-89719485D01*
X124313604Y-89657397D01*
X124198513Y-89517157D01*
X124198512Y-89517155D01*
X124112990Y-89357157D01*
X124060326Y-89183548D01*
X124047818Y-89056546D01*
X124047000Y-89048245D01*
X124047000Y-88497756D01*
X124059508Y-88370756D01*
X124060326Y-88362453D01*
X124112990Y-88188844D01*
X124198511Y-88028845D01*
X124198512Y-88028844D01*
X124313603Y-87888603D01*
X124420529Y-87800852D01*
X124453844Y-87773511D01*
X124613843Y-87687990D01*
X124787452Y-87635326D01*
X124968000Y-87617544D01*
X125148547Y-87635326D01*
G37*
G36*
X81968547Y-87635326D02*
G01*
X82142156Y-87687990D01*
X82142158Y-87687991D01*
X82302155Y-87773511D01*
X82442397Y-87888603D01*
X82502650Y-87962023D01*
X82557489Y-88028844D01*
X82643010Y-88188843D01*
X82695674Y-88362452D01*
X82695674Y-88362454D01*
X82708183Y-88489455D01*
X82709000Y-88497756D01*
X82709000Y-89048243D01*
X82695674Y-89183548D01*
X82643010Y-89357157D01*
X82557489Y-89517156D01*
X82521729Y-89560729D01*
X82442397Y-89657397D01*
X82366741Y-89719485D01*
X82302156Y-89772489D01*
X82142157Y-89858010D01*
X81968548Y-89910674D01*
X81788000Y-89928456D01*
X81607453Y-89910674D01*
X81433844Y-89858010D01*
X81273845Y-89772489D01*
X81209260Y-89719485D01*
X81133604Y-89657397D01*
X81018513Y-89517157D01*
X81018512Y-89517155D01*
X80932990Y-89357157D01*
X80880326Y-89183548D01*
X80867818Y-89056546D01*
X80867000Y-89048245D01*
X80867000Y-88497756D01*
X80879508Y-88370756D01*
X80880326Y-88362453D01*
X80932990Y-88188844D01*
X81018511Y-88028845D01*
X81018512Y-88028844D01*
X81133603Y-87888603D01*
X81240529Y-87800852D01*
X81273844Y-87773511D01*
X81433843Y-87687990D01*
X81607452Y-87635326D01*
X81788000Y-87617544D01*
X81968547Y-87635326D01*
G37*
G36*
X84508547Y-87635326D02*
G01*
X84682156Y-87687990D01*
X84682158Y-87687991D01*
X84842155Y-87773511D01*
X84982397Y-87888603D01*
X85042650Y-87962023D01*
X85097489Y-88028844D01*
X85183010Y-88188843D01*
X85235674Y-88362452D01*
X85235674Y-88362454D01*
X85248183Y-88489455D01*
X85249000Y-88497756D01*
X85249000Y-89048243D01*
X85235674Y-89183548D01*
X85183010Y-89357157D01*
X85097489Y-89517156D01*
X85061729Y-89560729D01*
X84982397Y-89657397D01*
X84906741Y-89719485D01*
X84842156Y-89772489D01*
X84682157Y-89858010D01*
X84508548Y-89910674D01*
X84328000Y-89928456D01*
X84147453Y-89910674D01*
X83973844Y-89858010D01*
X83813845Y-89772489D01*
X83749260Y-89719485D01*
X83673604Y-89657397D01*
X83558513Y-89517157D01*
X83558512Y-89517155D01*
X83472990Y-89357157D01*
X83420326Y-89183548D01*
X83407818Y-89056546D01*
X83407000Y-89048245D01*
X83407000Y-88497756D01*
X83419508Y-88370756D01*
X83420326Y-88362453D01*
X83472990Y-88188844D01*
X83558511Y-88028845D01*
X83558512Y-88028844D01*
X83673603Y-87888603D01*
X83780529Y-87800852D01*
X83813844Y-87773511D01*
X83973843Y-87687990D01*
X84147452Y-87635326D01*
X84328000Y-87617544D01*
X84508547Y-87635326D01*
G37*
G36*
X140896547Y-87635326D02*
G01*
X141070156Y-87687990D01*
X141070158Y-87687991D01*
X141230155Y-87773511D01*
X141370397Y-87888603D01*
X141430650Y-87962023D01*
X141485489Y-88028844D01*
X141571010Y-88188843D01*
X141623674Y-88362452D01*
X141623674Y-88362454D01*
X141636183Y-88489455D01*
X141637000Y-88497756D01*
X141637000Y-89048243D01*
X141623674Y-89183548D01*
X141571010Y-89357157D01*
X141485489Y-89517156D01*
X141449729Y-89560729D01*
X141370397Y-89657397D01*
X141294741Y-89719485D01*
X141230156Y-89772489D01*
X141070157Y-89858010D01*
X140896548Y-89910674D01*
X140716000Y-89928456D01*
X140535453Y-89910674D01*
X140361844Y-89858010D01*
X140201845Y-89772489D01*
X140137260Y-89719485D01*
X140061604Y-89657397D01*
X139946513Y-89517157D01*
X139946512Y-89517155D01*
X139860990Y-89357157D01*
X139808326Y-89183548D01*
X139795818Y-89056546D01*
X139795000Y-89048245D01*
X139795000Y-88497756D01*
X139807508Y-88370756D01*
X139808326Y-88362453D01*
X139860990Y-88188844D01*
X139946511Y-88028845D01*
X139946512Y-88028844D01*
X140061603Y-87888603D01*
X140168529Y-87800852D01*
X140201844Y-87773511D01*
X140361843Y-87687990D01*
X140535452Y-87635326D01*
X140716000Y-87617544D01*
X140896547Y-87635326D01*
G37*
G36*
X143436547Y-87635326D02*
G01*
X143610156Y-87687990D01*
X143610158Y-87687991D01*
X143770155Y-87773511D01*
X143910397Y-87888603D01*
X143970650Y-87962023D01*
X144025489Y-88028844D01*
X144111010Y-88188843D01*
X144163674Y-88362452D01*
X144163674Y-88362454D01*
X144176183Y-88489455D01*
X144177000Y-88497756D01*
X144177000Y-89048243D01*
X144163674Y-89183548D01*
X144111010Y-89357157D01*
X144025489Y-89517156D01*
X143989729Y-89560729D01*
X143910397Y-89657397D01*
X143834741Y-89719485D01*
X143770156Y-89772489D01*
X143610157Y-89858010D01*
X143436548Y-89910674D01*
X143256000Y-89928456D01*
X143075453Y-89910674D01*
X142901844Y-89858010D01*
X142741845Y-89772489D01*
X142677260Y-89719485D01*
X142601604Y-89657397D01*
X142486513Y-89517157D01*
X142486512Y-89517155D01*
X142400990Y-89357157D01*
X142348326Y-89183548D01*
X142335818Y-89056546D01*
X142335000Y-89048245D01*
X142335000Y-88497756D01*
X142347508Y-88370756D01*
X142348326Y-88362453D01*
X142400990Y-88188844D01*
X142486511Y-88028845D01*
X142486512Y-88028844D01*
X142601603Y-87888603D01*
X142708529Y-87800852D01*
X142741844Y-87773511D01*
X142901843Y-87687990D01*
X143075452Y-87635326D01*
X143256000Y-87617544D01*
X143436547Y-87635326D01*
G37*
G36*
X120667561Y-87625966D02*
G01*
X120700383Y-87635923D01*
X120730632Y-87652092D01*
X120757148Y-87673852D01*
X120778908Y-87700368D01*
X120795077Y-87730617D01*
X120805034Y-87763439D01*
X120809000Y-87803713D01*
X120809000Y-89742287D01*
X120805034Y-89782561D01*
X120795077Y-89815383D01*
X120778908Y-89845632D01*
X120757148Y-89872148D01*
X120730632Y-89893908D01*
X120700383Y-89910077D01*
X120667561Y-89920034D01*
X120627287Y-89924000D01*
X119148713Y-89924000D01*
X119108439Y-89920034D01*
X119075617Y-89910077D01*
X119045368Y-89893908D01*
X119018852Y-89872148D01*
X118997092Y-89845632D01*
X118980923Y-89815383D01*
X118970966Y-89782561D01*
X118967000Y-89742287D01*
X118967000Y-87803713D01*
X118970966Y-87763439D01*
X118980923Y-87730617D01*
X118997092Y-87700368D01*
X119018852Y-87673852D01*
X119045368Y-87652092D01*
X119075617Y-87635923D01*
X119108439Y-87625966D01*
X119148713Y-87622000D01*
X120627287Y-87622000D01*
X120667561Y-87625966D01*
G37*
G36*
X80027561Y-87625966D02*
G01*
X80060383Y-87635923D01*
X80090632Y-87652092D01*
X80117148Y-87673852D01*
X80138908Y-87700368D01*
X80155077Y-87730617D01*
X80165034Y-87763439D01*
X80169000Y-87803713D01*
X80169000Y-89742287D01*
X80165034Y-89782561D01*
X80155077Y-89815383D01*
X80138908Y-89845632D01*
X80117148Y-89872148D01*
X80090632Y-89893908D01*
X80060383Y-89910077D01*
X80027561Y-89920034D01*
X79987287Y-89924000D01*
X78508713Y-89924000D01*
X78468439Y-89920034D01*
X78435617Y-89910077D01*
X78405368Y-89893908D01*
X78378852Y-89872148D01*
X78357092Y-89845632D01*
X78340923Y-89815383D01*
X78330966Y-89782561D01*
X78327000Y-89742287D01*
X78327000Y-87803713D01*
X78330966Y-87763439D01*
X78340923Y-87730617D01*
X78357092Y-87700368D01*
X78378852Y-87673852D01*
X78405368Y-87652092D01*
X78435617Y-87635923D01*
X78468439Y-87625966D01*
X78508713Y-87622000D01*
X79987287Y-87622000D01*
X80027561Y-87625966D01*
G37*
G36*
X138955561Y-87625966D02*
G01*
X138988383Y-87635923D01*
X139018632Y-87652092D01*
X139045148Y-87673852D01*
X139066908Y-87700368D01*
X139083077Y-87730617D01*
X139093034Y-87763439D01*
X139097000Y-87803713D01*
X139097000Y-89742287D01*
X139093034Y-89782561D01*
X139083077Y-89815383D01*
X139066908Y-89845632D01*
X139045148Y-89872148D01*
X139018632Y-89893908D01*
X138988383Y-89910077D01*
X138955561Y-89920034D01*
X138915287Y-89924000D01*
X137436713Y-89924000D01*
X137396439Y-89920034D01*
X137363617Y-89910077D01*
X137333368Y-89893908D01*
X137306852Y-89872148D01*
X137285092Y-89845632D01*
X137268923Y-89815383D01*
X137258966Y-89782561D01*
X137255000Y-89742287D01*
X137255000Y-87803713D01*
X137258966Y-87763439D01*
X137268923Y-87730617D01*
X137285092Y-87700368D01*
X137306852Y-87673852D01*
X137333368Y-87652092D01*
X137363617Y-87635923D01*
X137396439Y-87625966D01*
X137436713Y-87622000D01*
X138915287Y-87622000D01*
X138955561Y-87625966D01*
G37*
G36*
X112829547Y-87508326D02*
G01*
X113003156Y-87560990D01*
X113003158Y-87560991D01*
X113163155Y-87646511D01*
X113303397Y-87761603D01*
X113356668Y-87826515D01*
X113418489Y-87901844D01*
X113504010Y-88061843D01*
X113556674Y-88235452D01*
X113556674Y-88235454D01*
X113569183Y-88362455D01*
X113570000Y-88370756D01*
X113570000Y-88921243D01*
X113556674Y-89056548D01*
X113504010Y-89230157D01*
X113418489Y-89390156D01*
X113382729Y-89433729D01*
X113303397Y-89530397D01*
X113206729Y-89609729D01*
X113163156Y-89645489D01*
X113003157Y-89731010D01*
X112829548Y-89783674D01*
X112649000Y-89801456D01*
X112468453Y-89783674D01*
X112294844Y-89731010D01*
X112134845Y-89645489D01*
X112091272Y-89609729D01*
X111994604Y-89530397D01*
X111879513Y-89390157D01*
X111879512Y-89390155D01*
X111793990Y-89230157D01*
X111741326Y-89056548D01*
X111728000Y-88921244D01*
X111728000Y-88370757D01*
X111741326Y-88235453D01*
X111793990Y-88061844D01*
X111879511Y-87901845D01*
X111888872Y-87890439D01*
X111994603Y-87761603D01*
X112101529Y-87673852D01*
X112134844Y-87646511D01*
X112294843Y-87560990D01*
X112468452Y-87508326D01*
X112649000Y-87490544D01*
X112829547Y-87508326D01*
G37*
G36*
X115369547Y-87508326D02*
G01*
X115543156Y-87560990D01*
X115543158Y-87560991D01*
X115703155Y-87646511D01*
X115843397Y-87761603D01*
X115896668Y-87826515D01*
X115958489Y-87901844D01*
X116044010Y-88061843D01*
X116096674Y-88235452D01*
X116096674Y-88235454D01*
X116109183Y-88362455D01*
X116110000Y-88370756D01*
X116110000Y-88921243D01*
X116096674Y-89056548D01*
X116044010Y-89230157D01*
X115958489Y-89390156D01*
X115922729Y-89433729D01*
X115843397Y-89530397D01*
X115746729Y-89609729D01*
X115703156Y-89645489D01*
X115543157Y-89731010D01*
X115369548Y-89783674D01*
X115189000Y-89801456D01*
X115008453Y-89783674D01*
X114834844Y-89731010D01*
X114674845Y-89645489D01*
X114631272Y-89609729D01*
X114534604Y-89530397D01*
X114419513Y-89390157D01*
X114419512Y-89390155D01*
X114333990Y-89230157D01*
X114281326Y-89056548D01*
X114268000Y-88921244D01*
X114268000Y-88370757D01*
X114281326Y-88235453D01*
X114333990Y-88061844D01*
X114419511Y-87901845D01*
X114428872Y-87890439D01*
X114534603Y-87761603D01*
X114641529Y-87673852D01*
X114674844Y-87646511D01*
X114834843Y-87560990D01*
X115008452Y-87508326D01*
X115189000Y-87490544D01*
X115369547Y-87508326D01*
G37*
G36*
X110888561Y-87498966D02*
G01*
X110921383Y-87508923D01*
X110951632Y-87525092D01*
X110978148Y-87546852D01*
X110999908Y-87573368D01*
X111016077Y-87603617D01*
X111026034Y-87636439D01*
X111030000Y-87676713D01*
X111030000Y-89615287D01*
X111026034Y-89655561D01*
X111016077Y-89688383D01*
X110999908Y-89718632D01*
X110978148Y-89745148D01*
X110951632Y-89766908D01*
X110921383Y-89783077D01*
X110888561Y-89793034D01*
X110848287Y-89797000D01*
X109369713Y-89797000D01*
X109329439Y-89793034D01*
X109296617Y-89783077D01*
X109266368Y-89766908D01*
X109239852Y-89745148D01*
X109218092Y-89718632D01*
X109201923Y-89688383D01*
X109191966Y-89655561D01*
X109188000Y-89615287D01*
X109188000Y-87676713D01*
X109191966Y-87636439D01*
X109201923Y-87603617D01*
X109218092Y-87573368D01*
X109239852Y-87546852D01*
X109266368Y-87525092D01*
X109296617Y-87508923D01*
X109329439Y-87498966D01*
X109369713Y-87495000D01*
X110848287Y-87495000D01*
X110888561Y-87498966D01*
G37*
M02*
