  0
SECTION
  2
HEADER
  9
$ANGBASE
  50
0.0
  9
$ANGDIR
  70
1
  9
$MEASUREMENT
  70
1
  0
ENDSEC
  0
SECTION
  2
TABLES
  0
TABLE
  2
LTYPE
  70
4
  0
LTYPE
  5
40F
  2
CONTINUOUS
  70
0
  3
Solid line
  72
65
  73
0
  40
0.0
  0
LTYPE
  5
410
  2
DASHDOT
 70
0
  3
Dash Dot ____ _ ____ _
 72
65
 73
4
 40
2.0
 49
1.25
 49
-0.25
 49
0.25
 49
-0.25
  0
LTYPE
  5
411
  2
DASHED
 70
0
  3
Dashed __ __ __ __ __
 72
65
 73
2
 40
0.75
 49
0.5
 49
-0.25
  0
LTYPE
  5
43B
  2
DOTTED
 70
0
  3
Dotted .  .  .  .
 72
65
 73
2
 40
0.2
 49
0.0
 49
-0.2
  0
ENDTAB
  0
TABLE
  2
STYLE
  70
4
  0
STYLE
  2
KICAD
  70
0
  40
0
  41
1
  42
1
  50
0
  71
0
  3
isocp.shx
  0
STYLE
  2
KICADB
  70
0
  40
0
  41
1
  42
1
  50
0
  71
0
  3
isocp.shx
  0
STYLE
  2
KICADI
  70
0
  40
0
  41
1
  42
1
  50
15
  71
0
  3
isocp.shx
  0
STYLE
  2
KICADBI
  70
0
  40
0
  41
1
  42
1
  50
15
  71
0
  3
isocp.shx
  0
ENDTAB
  0
TABLE
  2
LAYER
  70
1
  0
LAYER
  2
BLACK
  70
0
  62
7
  6
CONTINUOUS
  0
ENDTAB
  0
ENDSEC
  0
SECTION
  2
ENTITIES
0
LINE
8
BLACK
6
CONTINUOUS
10
124.841
20
-121.666
11
222.631
21
-121.666
0
LINE
8
BLACK
6
CONTINUOUS
10
149.479
20
-77.597
11
149.606
21
-77.597
0
LINE
8
BLACK
6
CONTINUOUS
10
169.418
20
-117.5
11
169.469
21
-75.5904
0
LINE
8
BLACK
6
CONTINUOUS
10
124.841
20
-68.326
11
222.758
21
-68.326
0
LINE
8
BLACK
6
CONTINUOUS
10
173.228
20
-117.5
11
169.418
21
-117.5
0
LINE
8
BLACK
6
CONTINUOUS
10
149.606
20
-77.597
11
162.052
21
-77.597
0
LINE
8
BLACK
6
CONTINUOUS
10
149.479
20
-81.534
11
149.479
21
-77.597
0
LINE
8
BLACK
6
CONTINUOUS
10
173.279
20
-75.5904
11
173.228
21
-117.5
0
LINE
8
BLACK
6
CONTINUOUS
10
162.052
20
-81.534
11
149.479
21
-81.534
0
LINE
8
BLACK
6
CONTINUOUS
10
222.631
20
-121.666
11
222.758
21
-68.326
0
LINE
8
BLACK
6
CONTINUOUS
10
124.841
20
-68.326
11
124.841
21
-121.666
0
LINE
8
BLACK
6
CONTINUOUS
10
169.469
20
-75.5904
11
173.279
21
-75.5904
0
LINE
8
BLACK
6
CONTINUOUS
10
162.052
20
-77.597
11
162.052
21
-81.534
0
LINE
8
BLACK
6
CONTINUOUS
10
127.342
20
-124.846
11
127.342
21
-122.846
0
LINE
8
BLACK
6
CONTINUOUS
10
127.342
20
-122.846
11
127.818
21
-122.846
0
LINE
8
BLACK
6
CONTINUOUS
10
127.818
20
-122.846
11
128.104
21
-122.941
0
LINE
8
BLACK
6
CONTINUOUS
10
128.104
20
-122.941
11
128.295
21
-123.131
0
LINE
8
BLACK
6
CONTINUOUS
10
128.295
20
-123.131
11
128.39
21
-123.322
0
LINE
8
BLACK
6
CONTINUOUS
10
128.39
20
-123.322
11
128.485
21
-123.703
0
LINE
8
BLACK
6
CONTINUOUS
10
128.485
20
-123.703
11
128.485
21
-123.989
0
LINE
8
BLACK
6
CONTINUOUS
10
128.485
20
-123.989
11
128.39
21
-124.37
0
LINE
8
BLACK
6
CONTINUOUS
10
128.39
20
-124.37
11
128.295
21
-124.56
0
LINE
8
BLACK
6
CONTINUOUS
10
128.295
20
-124.56
11
128.104
21
-124.751
0
LINE
8
BLACK
6
CONTINUOUS
10
128.104
20
-124.751
11
127.818
21
-124.846
0
LINE
8
BLACK
6
CONTINUOUS
10
127.818
20
-124.846
11
127.342
21
-124.846
0
LINE
8
BLACK
6
CONTINUOUS
10
129.342
20
-124.846
11
129.342
21
-123.512
0
LINE
8
BLACK
6
CONTINUOUS
10
129.342
20
-123.893
11
129.437
21
-123.703
0
LINE
8
BLACK
6
CONTINUOUS
10
129.437
20
-123.703
11
129.533
21
-123.608
0
LINE
8
BLACK
6
CONTINUOUS
10
129.533
20
-123.608
11
129.723
21
-123.512
0
LINE
8
BLACK
6
CONTINUOUS
10
129.723
20
-123.512
11
129.914
21
-123.512
0
LINE
8
BLACK
6
CONTINUOUS
10
130.58
20
-124.846
11
130.58
21
-123.512
0
LINE
8
BLACK
6
CONTINUOUS
10
130.58
20
-122.846
11
130.485
21
-122.941
0
LINE
8
BLACK
6
CONTINUOUS
10
130.485
20
-122.941
11
130.58
21
-123.036
0
LINE
8
BLACK
6
CONTINUOUS
10
130.58
20
-123.036
11
130.676
21
-122.941
0
LINE
8
BLACK
6
CONTINUOUS
10
130.676
20
-122.941
11
130.58
21
-122.846
0
LINE
8
BLACK
6
CONTINUOUS
10
130.58
20
-122.846
11
130.58
21
-123.036
0
LINE
8
BLACK
6
CONTINUOUS
10
131.818
20
-124.846
11
131.628
21
-124.751
0
LINE
8
BLACK
6
CONTINUOUS
10
131.628
20
-124.751
11
131.533
21
-124.56
0
LINE
8
BLACK
6
CONTINUOUS
10
131.533
20
-124.56
11
131.533
21
-122.846
0
LINE
8
BLACK
6
CONTINUOUS
10
132.866
20
-124.846
11
132.676
21
-124.751
0
LINE
8
BLACK
6
CONTINUOUS
10
132.676
20
-124.751
11
132.58
21
-124.56
0
LINE
8
BLACK
6
CONTINUOUS
10
132.58
20
-124.56
11
132.58
21
-122.846
0
LINE
8
BLACK
6
CONTINUOUS
10
135.152
20
-124.846
11
135.152
21
-122.846
0
LINE
8
BLACK
6
CONTINUOUS
10
135.152
20
-122.846
11
135.818
21
-124.274
0
LINE
8
BLACK
6
CONTINUOUS
10
135.818
20
-124.274
11
136.485
21
-122.846
0
LINE
8
BLACK
6
CONTINUOUS
10
136.485
20
-122.846
11
136.485
21
-124.846
0
LINE
8
BLACK
6
CONTINUOUS
10
138.295
20
-124.846
11
138.295
21
-123.798
0
LINE
8
BLACK
6
CONTINUOUS
10
138.295
20
-123.798
11
138.199
21
-123.608
0
LINE
8
BLACK
6
CONTINUOUS
10
138.199
20
-123.608
11
138.009
21
-123.512
0
LINE
8
BLACK
6
CONTINUOUS
10
138.009
20
-123.512
11
137.628
21
-123.512
0
LINE
8
BLACK
6
CONTINUOUS
10
137.628
20
-123.512
11
137.437
21
-123.608
0
LINE
8
BLACK
6
CONTINUOUS
10
138.295
20
-124.751
11
138.104
21
-124.846
0
LINE
8
BLACK
6
CONTINUOUS
10
138.104
20
-124.846
11
137.628
21
-124.846
0
LINE
8
BLACK
6
CONTINUOUS
10
137.628
20
-124.846
11
137.437
21
-124.751
0
LINE
8
BLACK
6
CONTINUOUS
10
137.437
20
-124.751
11
137.342
21
-124.56
0
LINE
8
BLACK
6
CONTINUOUS
10
137.342
20
-124.56
11
137.342
21
-124.37
0
LINE
8
BLACK
6
CONTINUOUS
10
137.342
20
-124.37
11
137.437
21
-124.179
0
LINE
8
BLACK
6
CONTINUOUS
10
137.437
20
-124.179
11
137.628
21
-124.084
0
LINE
8
BLACK
6
CONTINUOUS
10
137.628
20
-124.084
11
138.104
21
-124.084
0
LINE
8
BLACK
6
CONTINUOUS
10
138.104
20
-124.084
11
138.295
21
-123.989
0
LINE
8
BLACK
6
CONTINUOUS
10
139.247
20
-123.512
11
139.247
21
-125.512
0
LINE
8
BLACK
6
CONTINUOUS
10
139.247
20
-123.608
11
139.437
21
-123.512
0
LINE
8
BLACK
6
CONTINUOUS
10
139.437
20
-123.512
11
139.818
21
-123.512
0
LINE
8
BLACK
6
CONTINUOUS
10
139.818
20
-123.512
11
140.009
21
-123.608
0
LINE
8
BLACK
6
CONTINUOUS
10
140.009
20
-123.608
11
140.104
21
-123.703
0
LINE
8
BLACK
6
CONTINUOUS
10
140.104
20
-123.703
11
140.199
21
-123.893
0
LINE
8
BLACK
6
CONTINUOUS
10
140.199
20
-123.893
11
140.199
21
-124.465
0
LINE
8
BLACK
6
CONTINUOUS
10
140.199
20
-124.465
11
140.104
21
-124.655
0
LINE
8
BLACK
6
CONTINUOUS
10
140.104
20
-124.655
11
140.009
21
-124.751
0
LINE
8
BLACK
6
CONTINUOUS
10
140.009
20
-124.751
11
139.818
21
-124.846
0
LINE
8
BLACK
6
CONTINUOUS
10
139.818
20
-124.846
11
139.437
21
-124.846
0
LINE
8
BLACK
6
CONTINUOUS
10
139.437
20
-124.846
11
139.247
21
-124.751
0
LINE
8
BLACK
6
CONTINUOUS
10
141.056
20
-124.655
11
141.152
21
-124.751
0
LINE
8
BLACK
6
CONTINUOUS
10
141.152
20
-124.751
11
141.056
21
-124.846
0
LINE
8
BLACK
6
CONTINUOUS
10
141.056
20
-124.846
11
140.961
21
-124.751
0
LINE
8
BLACK
6
CONTINUOUS
10
140.961
20
-124.751
11
141.056
21
-124.655
0
LINE
8
BLACK
6
CONTINUOUS
10
141.056
20
-124.655
11
141.056
21
-124.846
0
LINE
8
BLACK
6
CONTINUOUS
10
141.056
20
-123.608
11
141.152
21
-123.703
0
LINE
8
BLACK
6
CONTINUOUS
10
141.152
20
-123.703
11
141.056
21
-123.798
0
LINE
8
BLACK
6
CONTINUOUS
10
141.056
20
-123.798
11
140.961
21
-123.703
0
LINE
8
BLACK
6
CONTINUOUS
10
140.961
20
-123.703
11
141.056
21
-123.608
0
LINE
8
BLACK
6
CONTINUOUS
10
141.056
20
-123.608
11
141.056
21
-123.798
  0
ENDSEC
  0
EOF
