  0
SECTION
  2
HEADER
  9
$ANGBASE
  50
0.0
  9
$ANGDIR
  70
1
  9
$MEASUREMENT
  70
1
  0
ENDSEC
  0
SECTION
  2
TABLES
  0
TABLE
  2
LTYPE
  70
4
  0
LTYPE
  5
40F
  2
CONTINUOUS
  70
0
  3
Solid line
  72
65
  73
0
  40
0.0
  0
LTYPE
  5
410
  2
DASHDOT
 70
0
  3
Dash Dot ____ _ ____ _
 72
65
 73
4
 40
2.0
 49
1.25
 49
-0.25
 49
0.25
 49
-0.25
  0
LTYPE
  5
411
  2
DASHED
 70
0
  3
Dashed __ __ __ __ __
 72
65
 73
2
 40
0.75
 49
0.5
 49
-0.25
  0
LTYPE
  5
43B
  2
DOTTED
 70
0
  3
Dotted .  .  .  .
 72
65
 73
2
 40
0.2
 49
0.0
 49
-0.2
  0
ENDTAB
  0
TABLE
  2
STYLE
  70
4
  0
STYLE
  2
KICAD
  70
0
  40
0
  41
1
  42
1
  50
0
  71
0
  3
isocp.shx
  0
STYLE
  2
KICADB
  70
0
  40
0
  41
1
  42
1
  50
0
  71
0
  3
isocp.shx
  0
STYLE
  2
KICADI
  70
0
  40
0
  41
1
  42
1
  50
15
  71
0
  3
isocp.shx
  0
STYLE
  2
KICADBI
  70
0
  40
0
  41
1
  42
1
  50
15
  71
0
  3
isocp.shx
  0
ENDTAB
  0
TABLE
  2
LAYER
  70
1
  0
LAYER
  2
BLACK
  70
0
  62
7
  6
CONTINUOUS
  0
ENDTAB
  0
ENDSEC
  0
SECTION
  2
ENTITIES
0
ARC
8
BLACK
10
140.546
20
-113.818
40
2.99996
50
-90.0008
51
-0.100212
0
ARC
8
BLACK
10
81.5464
20
-113.818
40
3.00001
50
-180
51
-90.0008
0
LINE
8
BLACK
6
CONTINUOUS
10
143.546
20
-113.823
11
143.546
21
-63.8176
0
LINE
8
BLACK
6
CONTINUOUS
10
81.5464
20
-116.818
11
140.546
21
-116.818
0
LINE
8
BLACK
6
CONTINUOUS
10
78.5464
20
-63.8176
11
78.5464
21
-113.818
0
LINE
8
BLACK
6
CONTINUOUS
10
140.546
20
-60.8176
11
81.5464
21
-60.8176
0
ARC
8
BLACK
10
140.546
20
-63.8176
40
2.99999
50
-0.000210088
51
90.0008
0
ARC
8
BLACK
10
81.5464
20
-63.8176
40
3.00004
50
-269.999
51
-180
0
LINE
8
BLACK
6
CONTINUOUS
10
107.661
20
-82.903
11
107.861
21
-83.103
0
LINE
8
BLACK
6
CONTINUOUS
10
107.861
20
-82.903
11
107.661
21
-83.103
0
CIRCLE
8
BLACK
10
93.3704
20
-92.71
40
0.4
0
CIRCLE
8
BLACK
10
93.472
20
-87.0204
40
0.4
0
CIRCLE
8
BLACK
10
98.3704
20
-92.71
40
0.4
0
CIRCLE
8
BLACK
10
98.472
20
-87.0204
40
0.4
0
CIRCLE
8
BLACK
10
101.671
20
-87.0148
40
0.4
0
CIRCLE
8
BLACK
10
101.671
20
-89.5548
40
0.4
0
CIRCLE
8
BLACK
10
101.671
20
-92.0948
40
0.4
0
CIRCLE
8
BLACK
10
101.671
20
-94.6348
40
0.4
0
CIRCLE
8
BLACK
10
101.671
20
-97.1748
40
0.4
0
CIRCLE
8
BLACK
10
101.671
20
-99.7148
40
0.4
0
CIRCLE
8
BLACK
10
101.671
20
-102.255
40
0.4
0
CIRCLE
8
BLACK
10
101.671
20
-104.795
40
0.4
0
CIRCLE
8
BLACK
10
109.291
20
-87.0148
40
0.4
0
CIRCLE
8
BLACK
10
109.291
20
-89.5548
40
0.4
0
CIRCLE
8
BLACK
10
109.291
20
-92.0948
40
0.4
0
CIRCLE
8
BLACK
10
109.291
20
-94.6348
40
0.4
0
CIRCLE
8
BLACK
10
109.291
20
-97.1748
40
0.4
0
CIRCLE
8
BLACK
10
109.291
20
-99.7148
40
0.4
0
CIRCLE
8
BLACK
10
109.291
20
-102.255
40
0.4
0
CIRCLE
8
BLACK
10
109.291
20
-104.795
40
0.4
0
LINE
8
BLACK
6
CONTINUOUS
10
86.92
20
-62.55
11
86.92
21
-63.55
0
LINE
8
BLACK
6
CONTINUOUS
10
86.42
20
-63.05
11
87.42
21
-63.05
0
LINE
8
BLACK
6
CONTINUOUS
10
86.92
20
-65.09
11
86.92
21
-66.09
0
LINE
8
BLACK
6
CONTINUOUS
10
86.42
20
-65.59
11
87.42
21
-65.59
0
LINE
8
BLACK
6
CONTINUOUS
10
89.46
20
-62.55
11
89.46
21
-63.55
0
LINE
8
BLACK
6
CONTINUOUS
10
88.96
20
-63.05
11
89.96
21
-63.05
0
LINE
8
BLACK
6
CONTINUOUS
10
89.46
20
-65.09
11
89.46
21
-66.09
0
LINE
8
BLACK
6
CONTINUOUS
10
88.96
20
-65.59
11
89.96
21
-65.59
0
LINE
8
BLACK
6
CONTINUOUS
10
92
20
-62.55
11
92
21
-63.55
0
LINE
8
BLACK
6
CONTINUOUS
10
91.5
20
-63.05
11
92.5
21
-63.05
0
LINE
8
BLACK
6
CONTINUOUS
10
92
20
-65.09
11
92
21
-66.09
0
LINE
8
BLACK
6
CONTINUOUS
10
91.5
20
-65.59
11
92.5
21
-65.59
0
LINE
8
BLACK
6
CONTINUOUS
10
94.54
20
-62.55
11
94.54
21
-63.55
0
LINE
8
BLACK
6
CONTINUOUS
10
94.04
20
-63.05
11
95.04
21
-63.05
0
LINE
8
BLACK
6
CONTINUOUS
10
94.54
20
-65.09
11
94.54
21
-66.09
0
LINE
8
BLACK
6
CONTINUOUS
10
94.04
20
-65.59
11
95.04
21
-65.59
0
LINE
8
BLACK
6
CONTINUOUS
10
97.08
20
-62.55
11
97.08
21
-63.55
0
LINE
8
BLACK
6
CONTINUOUS
10
96.58
20
-63.05
11
97.58
21
-63.05
0
LINE
8
BLACK
6
CONTINUOUS
10
97.08
20
-65.09
11
97.08
21
-66.09
0
LINE
8
BLACK
6
CONTINUOUS
10
96.58
20
-65.59
11
97.58
21
-65.59
0
LINE
8
BLACK
6
CONTINUOUS
10
99.62
20
-62.55
11
99.62
21
-63.55
0
LINE
8
BLACK
6
CONTINUOUS
10
99.12
20
-63.05
11
100.12
21
-63.05
0
LINE
8
BLACK
6
CONTINUOUS
10
99.62
20
-65.09
11
99.62
21
-66.09
0
LINE
8
BLACK
6
CONTINUOUS
10
99.12
20
-65.59
11
100.12
21
-65.59
0
LINE
8
BLACK
6
CONTINUOUS
10
102.16
20
-62.55
11
102.16
21
-63.55
0
LINE
8
BLACK
6
CONTINUOUS
10
101.66
20
-63.05
11
102.66
21
-63.05
0
LINE
8
BLACK
6
CONTINUOUS
10
102.16
20
-65.09
11
102.16
21
-66.09
0
LINE
8
BLACK
6
CONTINUOUS
10
101.66
20
-65.59
11
102.66
21
-65.59
0
LINE
8
BLACK
6
CONTINUOUS
10
104.7
20
-62.55
11
104.7
21
-63.55
0
LINE
8
BLACK
6
CONTINUOUS
10
104.2
20
-63.05
11
105.2
21
-63.05
0
LINE
8
BLACK
6
CONTINUOUS
10
104.7
20
-65.09
11
104.7
21
-66.09
0
LINE
8
BLACK
6
CONTINUOUS
10
104.2
20
-65.59
11
105.2
21
-65.59
0
LINE
8
BLACK
6
CONTINUOUS
10
107.24
20
-62.55
11
107.24
21
-63.55
0
LINE
8
BLACK
6
CONTINUOUS
10
106.74
20
-63.05
11
107.74
21
-63.05
0
LINE
8
BLACK
6
CONTINUOUS
10
107.24
20
-65.09
11
107.24
21
-66.09
0
LINE
8
BLACK
6
CONTINUOUS
10
106.74
20
-65.59
11
107.74
21
-65.59
0
LINE
8
BLACK
6
CONTINUOUS
10
109.78
20
-62.55
11
109.78
21
-63.55
0
LINE
8
BLACK
6
CONTINUOUS
10
109.28
20
-63.05
11
110.28
21
-63.05
0
LINE
8
BLACK
6
CONTINUOUS
10
109.78
20
-65.09
11
109.78
21
-66.09
0
LINE
8
BLACK
6
CONTINUOUS
10
109.28
20
-65.59
11
110.28
21
-65.59
0
LINE
8
BLACK
6
CONTINUOUS
10
112.32
20
-62.55
11
112.32
21
-63.55
0
LINE
8
BLACK
6
CONTINUOUS
10
111.82
20
-63.05
11
112.82
21
-63.05
0
LINE
8
BLACK
6
CONTINUOUS
10
112.32
20
-65.09
11
112.32
21
-66.09
0
LINE
8
BLACK
6
CONTINUOUS
10
111.82
20
-65.59
11
112.82
21
-65.59
0
LINE
8
BLACK
6
CONTINUOUS
10
114.86
20
-62.55
11
114.86
21
-63.55
0
LINE
8
BLACK
6
CONTINUOUS
10
114.36
20
-63.05
11
115.36
21
-63.05
0
LINE
8
BLACK
6
CONTINUOUS
10
114.86
20
-65.09
11
114.86
21
-66.09
0
LINE
8
BLACK
6
CONTINUOUS
10
114.36
20
-65.59
11
115.36
21
-65.59
0
LINE
8
BLACK
6
CONTINUOUS
10
117.4
20
-62.55
11
117.4
21
-63.55
0
LINE
8
BLACK
6
CONTINUOUS
10
116.9
20
-63.05
11
117.9
21
-63.05
0
LINE
8
BLACK
6
CONTINUOUS
10
117.4
20
-65.09
11
117.4
21
-66.09
0
LINE
8
BLACK
6
CONTINUOUS
10
116.9
20
-65.59
11
117.9
21
-65.59
0
LINE
8
BLACK
6
CONTINUOUS
10
119.94
20
-62.55
11
119.94
21
-63.55
0
LINE
8
BLACK
6
CONTINUOUS
10
119.44
20
-63.05
11
120.44
21
-63.05
0
LINE
8
BLACK
6
CONTINUOUS
10
119.94
20
-65.09
11
119.94
21
-66.09
0
LINE
8
BLACK
6
CONTINUOUS
10
119.44
20
-65.59
11
120.44
21
-65.59
0
LINE
8
BLACK
6
CONTINUOUS
10
122.48
20
-62.55
11
122.48
21
-63.55
0
LINE
8
BLACK
6
CONTINUOUS
10
121.98
20
-63.05
11
122.98
21
-63.05
0
LINE
8
BLACK
6
CONTINUOUS
10
122.48
20
-65.09
11
122.48
21
-66.09
0
LINE
8
BLACK
6
CONTINUOUS
10
121.98
20
-65.59
11
122.98
21
-65.59
0
LINE
8
BLACK
6
CONTINUOUS
10
125.02
20
-62.55
11
125.02
21
-63.55
0
LINE
8
BLACK
6
CONTINUOUS
10
124.52
20
-63.05
11
125.52
21
-63.05
0
LINE
8
BLACK
6
CONTINUOUS
10
125.02
20
-65.09
11
125.02
21
-66.09
0
LINE
8
BLACK
6
CONTINUOUS
10
124.52
20
-65.59
11
125.52
21
-65.59
0
LINE
8
BLACK
6
CONTINUOUS
10
127.56
20
-62.55
11
127.56
21
-63.55
0
LINE
8
BLACK
6
CONTINUOUS
10
127.06
20
-63.05
11
128.06
21
-63.05
0
LINE
8
BLACK
6
CONTINUOUS
10
127.56
20
-65.09
11
127.56
21
-66.09
0
LINE
8
BLACK
6
CONTINUOUS
10
127.06
20
-65.59
11
128.06
21
-65.59
0
LINE
8
BLACK
6
CONTINUOUS
10
130.1
20
-62.55
11
130.1
21
-63.55
0
LINE
8
BLACK
6
CONTINUOUS
10
129.6
20
-63.05
11
130.6
21
-63.05
0
LINE
8
BLACK
6
CONTINUOUS
10
130.1
20
-65.09
11
130.1
21
-66.09
0
LINE
8
BLACK
6
CONTINUOUS
10
129.6
20
-65.59
11
130.6
21
-65.59
0
LINE
8
BLACK
6
CONTINUOUS
10
132.64
20
-62.55
11
132.64
21
-63.55
0
LINE
8
BLACK
6
CONTINUOUS
10
132.14
20
-63.05
11
133.14
21
-63.05
0
LINE
8
BLACK
6
CONTINUOUS
10
132.64
20
-65.09
11
132.64
21
-66.09
0
LINE
8
BLACK
6
CONTINUOUS
10
132.14
20
-65.59
11
133.14
21
-65.59
0
LINE
8
BLACK
6
CONTINUOUS
10
135.18
20
-62.55
11
135.18
21
-63.55
0
LINE
8
BLACK
6
CONTINUOUS
10
134.68
20
-63.05
11
135.68
21
-63.05
0
LINE
8
BLACK
6
CONTINUOUS
10
135.18
20
-65.09
11
135.18
21
-66.09
0
LINE
8
BLACK
6
CONTINUOUS
10
134.68
20
-65.59
11
135.68
21
-65.59
0
LINE
8
BLACK
6
CONTINUOUS
10
119.674
20
-97.4687
11
119.674
21
-96.6273
0
LINE
8
BLACK
6
CONTINUOUS
10
119.674
20
-96.6273
11
118.832
21
-96.6273
0
LINE
8
BLACK
6
CONTINUOUS
10
118.832
20
-96.6273
11
118.832
21
-97.4687
0
LINE
8
BLACK
6
CONTINUOUS
10
118.832
20
-97.4687
11
119.674
21
-97.4687
0
LINE
8
BLACK
6
CONTINUOUS
10
122.087
20
-109.153
11
122.087
21
-108.311
0
LINE
8
BLACK
6
CONTINUOUS
10
122.087
20
-108.311
11
121.245
21
-108.311
0
LINE
8
BLACK
6
CONTINUOUS
10
121.245
20
-108.311
11
121.245
21
-109.153
0
LINE
8
BLACK
6
CONTINUOUS
10
121.245
20
-109.153
11
122.087
21
-109.153
0
LINE
8
BLACK
6
CONTINUOUS
10
122.214
20
-97.4687
11
122.214
21
-96.6273
0
LINE
8
BLACK
6
CONTINUOUS
10
122.214
20
-96.6273
11
121.372
21
-96.6273
0
LINE
8
BLACK
6
CONTINUOUS
10
121.372
20
-96.6273
11
121.372
21
-97.4687
0
LINE
8
BLACK
6
CONTINUOUS
10
121.372
20
-97.4687
11
122.214
21
-97.4687
0
LINE
8
BLACK
6
CONTINUOUS
10
123.865
20
-81.7207
11
123.865
21
-80.8793
0
LINE
8
BLACK
6
CONTINUOUS
10
123.865
20
-80.8793
11
123.023
21
-80.8793
0
LINE
8
BLACK
6
CONTINUOUS
10
123.023
20
-80.8793
11
123.023
21
-81.7207
0
LINE
8
BLACK
6
CONTINUOUS
10
123.023
20
-81.7207
11
123.865
21
-81.7207
0
LINE
8
BLACK
6
CONTINUOUS
10
124.627
20
-109.153
11
124.627
21
-108.311
0
LINE
8
BLACK
6
CONTINUOUS
10
124.627
20
-108.311
11
123.785
21
-108.311
0
LINE
8
BLACK
6
CONTINUOUS
10
123.785
20
-108.311
11
123.785
21
-109.153
0
LINE
8
BLACK
6
CONTINUOUS
10
123.785
20
-109.153
11
124.627
21
-109.153
0
LINE
8
BLACK
6
CONTINUOUS
10
124.754
20
-97.4687
11
124.754
21
-96.6273
0
LINE
8
BLACK
6
CONTINUOUS
10
124.754
20
-96.6273
11
123.912
21
-96.6273
0
LINE
8
BLACK
6
CONTINUOUS
10
123.912
20
-96.6273
11
123.912
21
-97.4687
0
LINE
8
BLACK
6
CONTINUOUS
10
123.912
20
-97.4687
11
124.754
21
-97.4687
0
LINE
8
BLACK
6
CONTINUOUS
10
126.405
20
-81.7207
11
126.405
21
-80.8793
0
LINE
8
BLACK
6
CONTINUOUS
10
126.405
20
-80.8793
11
125.563
21
-80.8793
0
LINE
8
BLACK
6
CONTINUOUS
10
125.563
20
-80.8793
11
125.563
21
-81.7207
0
LINE
8
BLACK
6
CONTINUOUS
10
125.563
20
-81.7207
11
126.405
21
-81.7207
0
LINE
8
BLACK
6
CONTINUOUS
10
127.167
20
-109.153
11
127.167
21
-108.311
0
LINE
8
BLACK
6
CONTINUOUS
10
127.167
20
-108.311
11
126.325
21
-108.311
0
LINE
8
BLACK
6
CONTINUOUS
10
126.325
20
-108.311
11
126.325
21
-109.153
0
LINE
8
BLACK
6
CONTINUOUS
10
126.325
20
-109.153
11
127.167
21
-109.153
0
LINE
8
BLACK
6
CONTINUOUS
10
127.294
20
-97.4687
11
127.294
21
-96.6273
0
LINE
8
BLACK
6
CONTINUOUS
10
127.294
20
-96.6273
11
126.452
21
-96.6273
0
LINE
8
BLACK
6
CONTINUOUS
10
126.452
20
-96.6273
11
126.452
21
-97.4687
0
LINE
8
BLACK
6
CONTINUOUS
10
126.452
20
-97.4687
11
127.294
21
-97.4687
0
LINE
8
BLACK
6
CONTINUOUS
10
128.945
20
-81.7207
11
128.945
21
-80.8793
0
LINE
8
BLACK
6
CONTINUOUS
10
128.945
20
-80.8793
11
128.103
21
-80.8793
0
LINE
8
BLACK
6
CONTINUOUS
10
128.103
20
-80.8793
11
128.103
21
-81.7207
0
LINE
8
BLACK
6
CONTINUOUS
10
128.103
20
-81.7207
11
128.945
21
-81.7207
0
LINE
8
BLACK
6
CONTINUOUS
10
129.707
20
-109.153
11
129.707
21
-108.311
0
LINE
8
BLACK
6
CONTINUOUS
10
129.707
20
-108.311
11
128.865
21
-108.311
0
LINE
8
BLACK
6
CONTINUOUS
10
128.865
20
-108.311
11
128.865
21
-109.153
0
LINE
8
BLACK
6
CONTINUOUS
10
128.865
20
-109.153
11
129.707
21
-109.153
0
LINE
8
BLACK
6
CONTINUOUS
10
129.834
20
-97.4687
11
129.834
21
-96.6273
0
LINE
8
BLACK
6
CONTINUOUS
10
129.834
20
-96.6273
11
128.992
21
-96.6273
0
LINE
8
BLACK
6
CONTINUOUS
10
128.992
20
-96.6273
11
128.992
21
-97.4687
0
LINE
8
BLACK
6
CONTINUOUS
10
128.992
20
-97.4687
11
129.834
21
-97.4687
0
LINE
8
BLACK
6
CONTINUOUS
10
132.374
20
-97.4687
11
132.374
21
-96.6273
0
LINE
8
BLACK
6
CONTINUOUS
10
132.374
20
-96.6273
11
131.532
21
-96.6273
0
LINE
8
BLACK
6
CONTINUOUS
10
131.532
20
-96.6273
11
131.532
21
-97.4687
0
LINE
8
BLACK
6
CONTINUOUS
10
131.532
20
-97.4687
11
132.374
21
-97.4687
0
LINE
8
BLACK
6
CONTINUOUS
10
86.9696
20
-80.6608
11
87.5696
21
-80.0608
0
LINE
8
BLACK
6
CONTINUOUS
10
87.5696
20
-80.0608
11
86.9696
21
-79.4608
0
LINE
8
BLACK
6
CONTINUOUS
10
86.9696
20
-79.4608
11
86.3696
21
-80.0608
0
LINE
8
BLACK
6
CONTINUOUS
10
86.3696
20
-80.0608
11
86.9696
21
-80.6608
0
LINE
8
BLACK
6
CONTINUOUS
10
87.5792
20
-100.676
11
88.1792
21
-100.076
0
LINE
8
BLACK
6
CONTINUOUS
10
88.1792
20
-100.076
11
87.5792
21
-99.476
0
LINE
8
BLACK
6
CONTINUOUS
10
87.5792
20
-99.476
11
86.9792
21
-100.076
0
LINE
8
BLACK
6
CONTINUOUS
10
86.9792
20
-100.076
11
87.5792
21
-100.676
0
LINE
8
BLACK
6
CONTINUOUS
10
89.5096
20
-80.6608
11
90.1096
21
-80.0608
0
LINE
8
BLACK
6
CONTINUOUS
10
90.1096
20
-80.0608
11
89.5096
21
-79.4608
0
LINE
8
BLACK
6
CONTINUOUS
10
89.5096
20
-79.4608
11
88.9096
21
-80.0608
0
LINE
8
BLACK
6
CONTINUOUS
10
88.9096
20
-80.0608
11
89.5096
21
-80.6608
0
LINE
8
BLACK
6
CONTINUOUS
10
90.1192
20
-100.676
11
90.7192
21
-100.076
0
LINE
8
BLACK
6
CONTINUOUS
10
90.7192
20
-100.076
11
90.1192
21
-99.476
0
LINE
8
BLACK
6
CONTINUOUS
10
90.1192
20
-99.476
11
89.5192
21
-100.076
0
LINE
8
BLACK
6
CONTINUOUS
10
89.5192
20
-100.076
11
90.1192
21
-100.676
0
LINE
8
BLACK
6
CONTINUOUS
10
81.0725
20
-119.972
11
81.0725
21
-117.972
0
LINE
8
BLACK
6
CONTINUOUS
10
81.0725
20
-117.972
11
81.5487
21
-117.972
0
LINE
8
BLACK
6
CONTINUOUS
10
81.5487
20
-117.972
11
81.8345
21
-118.068
0
LINE
8
BLACK
6
CONTINUOUS
10
81.8345
20
-118.068
11
82.0249
21
-118.258
0
LINE
8
BLACK
6
CONTINUOUS
10
82.0249
20
-118.258
11
82.1202
21
-118.449
0
LINE
8
BLACK
6
CONTINUOUS
10
82.1202
20
-118.449
11
82.2154
21
-118.83
0
LINE
8
BLACK
6
CONTINUOUS
10
82.2154
20
-118.83
11
82.2154
21
-119.115
0
LINE
8
BLACK
6
CONTINUOUS
10
82.2154
20
-119.115
11
82.1202
21
-119.496
0
LINE
8
BLACK
6
CONTINUOUS
10
82.1202
20
-119.496
11
82.0249
21
-119.687
0
LINE
8
BLACK
6
CONTINUOUS
10
82.0249
20
-119.687
11
81.8345
21
-119.877
0
LINE
8
BLACK
6
CONTINUOUS
10
81.8345
20
-119.877
11
81.5487
21
-119.972
0
LINE
8
BLACK
6
CONTINUOUS
10
81.5487
20
-119.972
11
81.0725
21
-119.972
0
LINE
8
BLACK
6
CONTINUOUS
10
83.0725
20
-119.972
11
83.0725
21
-118.639
0
LINE
8
BLACK
6
CONTINUOUS
10
83.0725
20
-119.02
11
83.1678
21
-118.83
0
LINE
8
BLACK
6
CONTINUOUS
10
83.1678
20
-118.83
11
83.263
21
-118.734
0
LINE
8
BLACK
6
CONTINUOUS
10
83.263
20
-118.734
11
83.4535
21
-118.639
0
LINE
8
BLACK
6
CONTINUOUS
10
83.4535
20
-118.639
11
83.644
21
-118.639
0
LINE
8
BLACK
6
CONTINUOUS
10
84.3106
20
-119.972
11
84.3106
21
-118.639
0
LINE
8
BLACK
6
CONTINUOUS
10
84.3106
20
-117.972
11
84.2154
21
-118.068
0
LINE
8
BLACK
6
CONTINUOUS
10
84.2154
20
-118.068
11
84.3106
21
-118.163
0
LINE
8
BLACK
6
CONTINUOUS
10
84.3106
20
-118.163
11
84.4059
21
-118.068
0
LINE
8
BLACK
6
CONTINUOUS
10
84.4059
20
-118.068
11
84.3106
21
-117.972
0
LINE
8
BLACK
6
CONTINUOUS
10
84.3106
20
-117.972
11
84.3106
21
-118.163
0
LINE
8
BLACK
6
CONTINUOUS
10
85.5487
20
-119.972
11
85.3583
21
-119.877
0
LINE
8
BLACK
6
CONTINUOUS
10
85.3583
20
-119.877
11
85.263
21
-119.687
0
LINE
8
BLACK
6
CONTINUOUS
10
85.263
20
-119.687
11
85.263
21
-117.972
0
LINE
8
BLACK
6
CONTINUOUS
10
86.5964
20
-119.972
11
86.4059
21
-119.877
0
LINE
8
BLACK
6
CONTINUOUS
10
86.4059
20
-119.877
11
86.3106
21
-119.687
0
LINE
8
BLACK
6
CONTINUOUS
10
86.3106
20
-119.687
11
86.3106
21
-117.972
0
LINE
8
BLACK
6
CONTINUOUS
10
88.8821
20
-119.972
11
88.8821
21
-117.972
0
LINE
8
BLACK
6
CONTINUOUS
10
88.8821
20
-117.972
11
89.5487
21
-119.401
0
LINE
8
BLACK
6
CONTINUOUS
10
89.5487
20
-119.401
11
90.2154
21
-117.972
0
LINE
8
BLACK
6
CONTINUOUS
10
90.2154
20
-117.972
11
90.2154
21
-119.972
0
LINE
8
BLACK
6
CONTINUOUS
10
92.0249
20
-119.972
11
92.0249
21
-118.925
0
LINE
8
BLACK
6
CONTINUOUS
10
92.0249
20
-118.925
11
91.9297
21
-118.734
0
LINE
8
BLACK
6
CONTINUOUS
10
91.9297
20
-118.734
11
91.7392
21
-118.639
0
LINE
8
BLACK
6
CONTINUOUS
10
91.7392
20
-118.639
11
91.3583
21
-118.639
0
LINE
8
BLACK
6
CONTINUOUS
10
91.3583
20
-118.639
11
91.1678
21
-118.734
0
LINE
8
BLACK
6
CONTINUOUS
10
92.0249
20
-119.877
11
91.8345
21
-119.972
0
LINE
8
BLACK
6
CONTINUOUS
10
91.8345
20
-119.972
11
91.3583
21
-119.972
0
LINE
8
BLACK
6
CONTINUOUS
10
91.3583
20
-119.972
11
91.1678
21
-119.877
0
LINE
8
BLACK
6
CONTINUOUS
10
91.1678
20
-119.877
11
91.0725
21
-119.687
0
LINE
8
BLACK
6
CONTINUOUS
10
91.0725
20
-119.687
11
91.0725
21
-119.496
0
LINE
8
BLACK
6
CONTINUOUS
10
91.0725
20
-119.496
11
91.1678
21
-119.306
0
LINE
8
BLACK
6
CONTINUOUS
10
91.1678
20
-119.306
11
91.3583
21
-119.21
0
LINE
8
BLACK
6
CONTINUOUS
10
91.3583
20
-119.21
11
91.8345
21
-119.21
0
LINE
8
BLACK
6
CONTINUOUS
10
91.8345
20
-119.21
11
92.0249
21
-119.115
0
LINE
8
BLACK
6
CONTINUOUS
10
92.9773
20
-118.639
11
92.9773
21
-120.639
0
LINE
8
BLACK
6
CONTINUOUS
10
92.9773
20
-118.734
11
93.1678
21
-118.639
0
LINE
8
BLACK
6
CONTINUOUS
10
93.1678
20
-118.639
11
93.5487
21
-118.639
0
LINE
8
BLACK
6
CONTINUOUS
10
93.5487
20
-118.639
11
93.7392
21
-118.734
0
LINE
8
BLACK
6
CONTINUOUS
10
93.7392
20
-118.734
11
93.8345
21
-118.83
0
LINE
8
BLACK
6
CONTINUOUS
10
93.8345
20
-118.83
11
93.9297
21
-119.02
0
LINE
8
BLACK
6
CONTINUOUS
10
93.9297
20
-119.02
11
93.9297
21
-119.591
0
LINE
8
BLACK
6
CONTINUOUS
10
93.9297
20
-119.591
11
93.8345
21
-119.782
0
LINE
8
BLACK
6
CONTINUOUS
10
93.8345
20
-119.782
11
93.7392
21
-119.877
0
LINE
8
BLACK
6
CONTINUOUS
10
93.7392
20
-119.877
11
93.5487
21
-119.972
0
LINE
8
BLACK
6
CONTINUOUS
10
93.5487
20
-119.972
11
93.1678
21
-119.972
0
LINE
8
BLACK
6
CONTINUOUS
10
93.1678
20
-119.972
11
92.9773
21
-119.877
0
LINE
8
BLACK
6
CONTINUOUS
10
94.7868
20
-119.782
11
94.8821
21
-119.877
0
LINE
8
BLACK
6
CONTINUOUS
10
94.8821
20
-119.877
11
94.7868
21
-119.972
0
LINE
8
BLACK
6
CONTINUOUS
10
94.7868
20
-119.972
11
94.6916
21
-119.877
0
LINE
8
BLACK
6
CONTINUOUS
10
94.6916
20
-119.877
11
94.7868
21
-119.782
0
LINE
8
BLACK
6
CONTINUOUS
10
94.7868
20
-119.782
11
94.7868
21
-119.972
0
LINE
8
BLACK
6
CONTINUOUS
10
94.7868
20
-118.734
11
94.8821
21
-118.83
0
LINE
8
BLACK
6
CONTINUOUS
10
94.8821
20
-118.83
11
94.7868
21
-118.925
0
LINE
8
BLACK
6
CONTINUOUS
10
94.7868
20
-118.925
11
94.6916
21
-118.83
0
LINE
8
BLACK
6
CONTINUOUS
10
94.6916
20
-118.83
11
94.7868
21
-118.734
0
LINE
8
BLACK
6
CONTINUOUS
10
94.7868
20
-118.734
11
94.7868
21
-118.925
0
LINE
8
BLACK
6
CONTINUOUS
10
78.2964
20
-123.168
11
78.4964
21
-123.368
0
LINE
8
BLACK
6
CONTINUOUS
10
78.4964
20
-123.168
11
78.2964
21
-123.368
0
LINE
8
BLACK
6
CONTINUOUS
10
81.4535
20
-122.172
11
81.644
21
-122.172
0
LINE
8
BLACK
6
CONTINUOUS
10
81.644
20
-122.172
11
81.8345
21
-122.268
0
LINE
8
BLACK
6
CONTINUOUS
10
81.8345
20
-122.268
11
81.9297
21
-122.363
0
LINE
8
BLACK
6
CONTINUOUS
10
81.9297
20
-122.363
11
82.0249
21
-122.553
0
LINE
8
BLACK
6
CONTINUOUS
10
82.0249
20
-122.553
11
82.1202
21
-122.934
0
LINE
8
BLACK
6
CONTINUOUS
10
82.1202
20
-122.934
11
82.1202
21
-123.41
0
LINE
8
BLACK
6
CONTINUOUS
10
82.1202
20
-123.41
11
82.0249
21
-123.791
0
LINE
8
BLACK
6
CONTINUOUS
10
82.0249
20
-123.791
11
81.9297
21
-123.982
0
LINE
8
BLACK
6
CONTINUOUS
10
81.9297
20
-123.982
11
81.8345
21
-124.077
0
LINE
8
BLACK
6
CONTINUOUS
10
81.8345
20
-124.077
11
81.644
21
-124.172
0
LINE
8
BLACK
6
CONTINUOUS
10
81.644
20
-124.172
11
81.4535
21
-124.172
0
LINE
8
BLACK
6
CONTINUOUS
10
81.4535
20
-124.172
11
81.263
21
-124.077
0
LINE
8
BLACK
6
CONTINUOUS
10
81.263
20
-124.077
11
81.1678
21
-123.982
0
LINE
8
BLACK
6
CONTINUOUS
10
81.1678
20
-123.982
11
81.0725
21
-123.791
0
LINE
8
BLACK
6
CONTINUOUS
10
81.0725
20
-123.791
11
80.9773
21
-123.41
0
LINE
8
BLACK
6
CONTINUOUS
10
80.9773
20
-123.41
11
80.9773
21
-122.934
0
LINE
8
BLACK
6
CONTINUOUS
10
80.9773
20
-122.934
11
81.0725
21
-122.553
0
LINE
8
BLACK
6
CONTINUOUS
10
81.0725
20
-122.553
11
81.1678
21
-122.363
0
LINE
8
BLACK
6
CONTINUOUS
10
81.1678
20
-122.363
11
81.263
21
-122.268
0
LINE
8
BLACK
6
CONTINUOUS
10
81.263
20
-122.268
11
81.4535
21
-122.172
0
LINE
8
BLACK
6
CONTINUOUS
10
82.9773
20
-123.982
11
83.0725
21
-124.077
0
LINE
8
BLACK
6
CONTINUOUS
10
83.0725
20
-124.077
11
82.9773
21
-124.172
0
LINE
8
BLACK
6
CONTINUOUS
10
82.9773
20
-124.172
11
82.8821
21
-124.077
0
LINE
8
BLACK
6
CONTINUOUS
10
82.8821
20
-124.077
11
82.9773
21
-123.982
0
LINE
8
BLACK
6
CONTINUOUS
10
82.9773
20
-123.982
11
82.9773
21
-124.172
0
LINE
8
BLACK
6
CONTINUOUS
10
83.8345
20
-122.363
11
83.9297
21
-122.268
0
LINE
8
BLACK
6
CONTINUOUS
10
83.9297
20
-122.268
11
84.1202
21
-122.172
0
LINE
8
BLACK
6
CONTINUOUS
10
84.1202
20
-122.172
11
84.5964
21
-122.172
0
LINE
8
BLACK
6
CONTINUOUS
10
84.5964
20
-122.172
11
84.7868
21
-122.268
0
LINE
8
BLACK
6
CONTINUOUS
10
84.7868
20
-122.268
11
84.8821
21
-122.363
0
LINE
8
BLACK
6
CONTINUOUS
10
84.8821
20
-122.363
11
84.9773
21
-122.553
0
LINE
8
BLACK
6
CONTINUOUS
10
84.9773
20
-122.553
11
84.9773
21
-122.744
0
LINE
8
BLACK
6
CONTINUOUS
10
84.9773
20
-122.744
11
84.8821
21
-123.03
0
LINE
8
BLACK
6
CONTINUOUS
10
84.8821
20
-123.03
11
83.7392
21
-124.172
0
LINE
8
BLACK
6
CONTINUOUS
10
83.7392
20
-124.172
11
84.9773
21
-124.172
0
LINE
8
BLACK
6
CONTINUOUS
10
86.2154
20
-122.172
11
86.4059
21
-122.172
0
LINE
8
BLACK
6
CONTINUOUS
10
86.4059
20
-122.172
11
86.5964
21
-122.268
0
LINE
8
BLACK
6
CONTINUOUS
10
86.5964
20
-122.268
11
86.6916
21
-122.363
0
LINE
8
BLACK
6
CONTINUOUS
10
86.6916
20
-122.363
11
86.7868
21
-122.553
0
LINE
8
BLACK
6
CONTINUOUS
10
86.7868
20
-122.553
11
86.8821
21
-122.934
0
LINE
8
BLACK
6
CONTINUOUS
10
86.8821
20
-122.934
11
86.8821
21
-123.41
0
LINE
8
BLACK
6
CONTINUOUS
10
86.8821
20
-123.41
11
86.7868
21
-123.791
0
LINE
8
BLACK
6
CONTINUOUS
10
86.7868
20
-123.791
11
86.6916
21
-123.982
0
LINE
8
BLACK
6
CONTINUOUS
10
86.6916
20
-123.982
11
86.5964
21
-124.077
0
LINE
8
BLACK
6
CONTINUOUS
10
86.5964
20
-124.077
11
86.4059
21
-124.172
0
LINE
8
BLACK
6
CONTINUOUS
10
86.4059
20
-124.172
11
86.2154
21
-124.172
0
LINE
8
BLACK
6
CONTINUOUS
10
86.2154
20
-124.172
11
86.0249
21
-124.077
0
LINE
8
BLACK
6
CONTINUOUS
10
86.0249
20
-124.077
11
85.9297
21
-123.982
0
LINE
8
BLACK
6
CONTINUOUS
10
85.9297
20
-123.982
11
85.8345
21
-123.791
0
LINE
8
BLACK
6
CONTINUOUS
10
85.8345
20
-123.791
11
85.7392
21
-123.41
0
LINE
8
BLACK
6
CONTINUOUS
10
85.7392
20
-123.41
11
85.7392
21
-122.934
0
LINE
8
BLACK
6
CONTINUOUS
10
85.7392
20
-122.934
11
85.8345
21
-122.553
0
LINE
8
BLACK
6
CONTINUOUS
10
85.8345
20
-122.553
11
85.9297
21
-122.363
0
LINE
8
BLACK
6
CONTINUOUS
10
85.9297
20
-122.363
11
86.0249
21
-122.268
0
LINE
8
BLACK
6
CONTINUOUS
10
86.0249
20
-122.268
11
86.2154
21
-122.172
0
LINE
8
BLACK
6
CONTINUOUS
10
88.1202
20
-122.172
11
88.3106
21
-122.172
0
LINE
8
BLACK
6
CONTINUOUS
10
88.3106
20
-122.172
11
88.5011
21
-122.268
0
LINE
8
BLACK
6
CONTINUOUS
10
88.5011
20
-122.268
11
88.5964
21
-122.363
0
LINE
8
BLACK
6
CONTINUOUS
10
88.5964
20
-122.363
11
88.6916
21
-122.553
0
LINE
8
BLACK
6
CONTINUOUS
10
88.6916
20
-122.553
11
88.7868
21
-122.934
0
LINE
8
BLACK
6
CONTINUOUS
10
88.7868
20
-122.934
11
88.7868
21
-123.41
0
LINE
8
BLACK
6
CONTINUOUS
10
88.7868
20
-123.41
11
88.6916
21
-123.791
0
LINE
8
BLACK
6
CONTINUOUS
10
88.6916
20
-123.791
11
88.5964
21
-123.982
0
LINE
8
BLACK
6
CONTINUOUS
10
88.5964
20
-123.982
11
88.5011
21
-124.077
0
LINE
8
BLACK
6
CONTINUOUS
10
88.5011
20
-124.077
11
88.3106
21
-124.172
0
LINE
8
BLACK
6
CONTINUOUS
10
88.3106
20
-124.172
11
88.1202
21
-124.172
0
LINE
8
BLACK
6
CONTINUOUS
10
88.1202
20
-124.172
11
87.9297
21
-124.077
0
LINE
8
BLACK
6
CONTINUOUS
10
87.9297
20
-124.077
11
87.8345
21
-123.982
0
LINE
8
BLACK
6
CONTINUOUS
10
87.8345
20
-123.982
11
87.7392
21
-123.791
0
LINE
8
BLACK
6
CONTINUOUS
10
87.7392
20
-123.791
11
87.644
21
-123.41
0
LINE
8
BLACK
6
CONTINUOUS
10
87.644
20
-123.41
11
87.644
21
-122.934
0
LINE
8
BLACK
6
CONTINUOUS
10
87.644
20
-122.934
11
87.7392
21
-122.553
0
LINE
8
BLACK
6
CONTINUOUS
10
87.7392
20
-122.553
11
87.8345
21
-122.363
0
LINE
8
BLACK
6
CONTINUOUS
10
87.8345
20
-122.363
11
87.9297
21
-122.268
0
LINE
8
BLACK
6
CONTINUOUS
10
87.9297
20
-122.268
11
88.1202
21
-122.172
0
LINE
8
BLACK
6
CONTINUOUS
10
89.644
20
-124.172
11
89.644
21
-122.839
0
LINE
8
BLACK
6
CONTINUOUS
10
89.644
20
-123.03
11
89.7392
21
-122.934
0
LINE
8
BLACK
6
CONTINUOUS
10
89.7392
20
-122.934
11
89.9297
21
-122.839
0
LINE
8
BLACK
6
CONTINUOUS
10
89.9297
20
-122.839
11
90.2154
21
-122.839
0
LINE
8
BLACK
6
CONTINUOUS
10
90.2154
20
-122.839
11
90.4059
21
-122.934
0
LINE
8
BLACK
6
CONTINUOUS
10
90.4059
20
-122.934
11
90.5011
21
-123.125
0
LINE
8
BLACK
6
CONTINUOUS
10
90.5011
20
-123.125
11
90.5011
21
-124.172
0
LINE
8
BLACK
6
CONTINUOUS
10
90.5011
20
-123.125
11
90.5964
21
-122.934
0
LINE
8
BLACK
6
CONTINUOUS
10
90.5964
20
-122.934
11
90.7868
21
-122.839
0
LINE
8
BLACK
6
CONTINUOUS
10
90.7868
20
-122.839
11
91.0725
21
-122.839
0
LINE
8
BLACK
6
CONTINUOUS
10
91.0725
20
-122.839
11
91.263
21
-122.934
0
LINE
8
BLACK
6
CONTINUOUS
10
91.263
20
-122.934
11
91.3583
21
-123.125
0
LINE
8
BLACK
6
CONTINUOUS
10
91.3583
20
-123.125
11
91.3583
21
-124.172
0
LINE
8
BLACK
6
CONTINUOUS
10
92.3106
20
-124.172
11
92.3106
21
-122.839
0
LINE
8
BLACK
6
CONTINUOUS
10
92.3106
20
-123.03
11
92.4059
21
-122.934
0
LINE
8
BLACK
6
CONTINUOUS
10
92.4059
20
-122.934
11
92.5964
21
-122.839
0
LINE
8
BLACK
6
CONTINUOUS
10
92.5964
20
-122.839
11
92.8821
21
-122.839
0
LINE
8
BLACK
6
CONTINUOUS
10
92.8821
20
-122.839
11
93.0725
21
-122.934
0
LINE
8
BLACK
6
CONTINUOUS
10
93.0725
20
-122.934
11
93.1678
21
-123.125
0
LINE
8
BLACK
6
CONTINUOUS
10
93.1678
20
-123.125
11
93.1678
21
-124.172
0
LINE
8
BLACK
6
CONTINUOUS
10
93.1678
20
-123.125
11
93.263
21
-122.934
0
LINE
8
BLACK
6
CONTINUOUS
10
93.263
20
-122.934
11
93.4535
21
-122.839
0
LINE
8
BLACK
6
CONTINUOUS
10
93.4535
20
-122.839
11
93.7392
21
-122.839
0
LINE
8
BLACK
6
CONTINUOUS
10
93.7392
20
-122.839
11
93.9297
21
-122.934
0
LINE
8
BLACK
6
CONTINUOUS
10
93.9297
20
-122.934
11
94.0249
21
-123.125
0
LINE
8
BLACK
6
CONTINUOUS
10
94.0249
20
-123.125
11
94.0249
21
-124.172
0
LINE
8
BLACK
6
CONTINUOUS
10
97.9297
20
-122.077
11
96.2154
21
-124.649
0
LINE
8
BLACK
6
CONTINUOUS
10
100.501
20
-122.172
11
100.692
21
-122.172
0
LINE
8
BLACK
6
CONTINUOUS
10
100.692
20
-122.172
11
100.882
21
-122.268
0
LINE
8
BLACK
6
CONTINUOUS
10
100.882
20
-122.268
11
100.977
21
-122.363
0
LINE
8
BLACK
6
CONTINUOUS
10
100.977
20
-122.363
11
101.073
21
-122.553
0
LINE
8
BLACK
6
CONTINUOUS
10
101.073
20
-122.553
11
101.168
21
-122.934
0
LINE
8
BLACK
6
CONTINUOUS
10
101.168
20
-122.934
11
101.168
21
-123.41
0
LINE
8
BLACK
6
CONTINUOUS
10
101.168
20
-123.41
11
101.073
21
-123.791
0
LINE
8
BLACK
6
CONTINUOUS
10
101.073
20
-123.791
11
100.977
21
-123.982
0
LINE
8
BLACK
6
CONTINUOUS
10
100.977
20
-123.982
11
100.882
21
-124.077
0
LINE
8
BLACK
6
CONTINUOUS
10
100.882
20
-124.077
11
100.692
21
-124.172
0
LINE
8
BLACK
6
CONTINUOUS
10
100.692
20
-124.172
11
100.501
21
-124.172
0
LINE
8
BLACK
6
CONTINUOUS
10
100.501
20
-124.172
11
100.311
21
-124.077
0
LINE
8
BLACK
6
CONTINUOUS
10
100.311
20
-124.077
11
100.215
21
-123.982
0
LINE
8
BLACK
6
CONTINUOUS
10
100.215
20
-123.982
11
100.12
21
-123.791
0
LINE
8
BLACK
6
CONTINUOUS
10
100.12
20
-123.791
11
100.025
21
-123.41
0
LINE
8
BLACK
6
CONTINUOUS
10
100.025
20
-123.41
11
100.025
21
-122.934
0
LINE
8
BLACK
6
CONTINUOUS
10
100.025
20
-122.934
11
100.12
21
-122.553
0
LINE
8
BLACK
6
CONTINUOUS
10
100.12
20
-122.553
11
100.215
21
-122.363
0
LINE
8
BLACK
6
CONTINUOUS
10
100.215
20
-122.363
11
100.311
21
-122.268
0
LINE
8
BLACK
6
CONTINUOUS
10
100.311
20
-122.268
11
100.501
21
-122.172
0
LINE
8
BLACK
6
CONTINUOUS
10
102.025
20
-123.982
11
102.12
21
-124.077
0
LINE
8
BLACK
6
CONTINUOUS
10
102.12
20
-124.077
11
102.025
21
-124.172
0
LINE
8
BLACK
6
CONTINUOUS
10
102.025
20
-124.172
11
101.93
21
-124.077
0
LINE
8
BLACK
6
CONTINUOUS
10
101.93
20
-124.077
11
102.025
21
-123.982
0
LINE
8
BLACK
6
CONTINUOUS
10
102.025
20
-123.982
11
102.025
21
-124.172
0
LINE
8
BLACK
6
CONTINUOUS
10
103.358
20
-122.172
11
103.549
21
-122.172
0
LINE
8
BLACK
6
CONTINUOUS
10
103.549
20
-122.172
11
103.739
21
-122.268
0
LINE
8
BLACK
6
CONTINUOUS
10
103.739
20
-122.268
11
103.834
21
-122.363
0
LINE
8
BLACK
6
CONTINUOUS
10
103.834
20
-122.363
11
103.93
21
-122.553
0
LINE
8
BLACK
6
CONTINUOUS
10
103.93
20
-122.553
11
104.025
21
-122.934
0
LINE
8
BLACK
6
CONTINUOUS
10
104.025
20
-122.934
11
104.025
21
-123.41
0
LINE
8
BLACK
6
CONTINUOUS
10
104.025
20
-123.41
11
103.93
21
-123.791
0
LINE
8
BLACK
6
CONTINUOUS
10
103.93
20
-123.791
11
103.834
21
-123.982
0
LINE
8
BLACK
6
CONTINUOUS
10
103.834
20
-123.982
11
103.739
21
-124.077
0
LINE
8
BLACK
6
CONTINUOUS
10
103.739
20
-124.077
11
103.549
21
-124.172
0
LINE
8
BLACK
6
CONTINUOUS
10
103.549
20
-124.172
11
103.358
21
-124.172
0
LINE
8
BLACK
6
CONTINUOUS
10
103.358
20
-124.172
11
103.168
21
-124.077
0
LINE
8
BLACK
6
CONTINUOUS
10
103.168
20
-124.077
11
103.073
21
-123.982
0
LINE
8
BLACK
6
CONTINUOUS
10
103.073
20
-123.982
11
102.977
21
-123.791
0
LINE
8
BLACK
6
CONTINUOUS
10
102.977
20
-123.791
11
102.882
21
-123.41
0
LINE
8
BLACK
6
CONTINUOUS
10
102.882
20
-123.41
11
102.882
21
-122.934
0
LINE
8
BLACK
6
CONTINUOUS
10
102.882
20
-122.934
11
102.977
21
-122.553
0
LINE
8
BLACK
6
CONTINUOUS
10
102.977
20
-122.553
11
103.073
21
-122.363
0
LINE
8
BLACK
6
CONTINUOUS
10
103.073
20
-122.363
11
103.168
21
-122.268
0
LINE
8
BLACK
6
CONTINUOUS
10
103.168
20
-122.268
11
103.358
21
-122.172
0
LINE
8
BLACK
6
CONTINUOUS
10
105.263
20
-122.172
11
105.453
21
-122.172
0
LINE
8
BLACK
6
CONTINUOUS
10
105.453
20
-122.172
11
105.644
21
-122.268
0
LINE
8
BLACK
6
CONTINUOUS
10
105.644
20
-122.268
11
105.739
21
-122.363
0
LINE
8
BLACK
6
CONTINUOUS
10
105.739
20
-122.363
11
105.834
21
-122.553
0
LINE
8
BLACK
6
CONTINUOUS
10
105.834
20
-122.553
11
105.93
21
-122.934
0
LINE
8
BLACK
6
CONTINUOUS
10
105.93
20
-122.934
11
105.93
21
-123.41
0
LINE
8
BLACK
6
CONTINUOUS
10
105.93
20
-123.41
11
105.834
21
-123.791
0
LINE
8
BLACK
6
CONTINUOUS
10
105.834
20
-123.791
11
105.739
21
-123.982
0
LINE
8
BLACK
6
CONTINUOUS
10
105.739
20
-123.982
11
105.644
21
-124.077
0
LINE
8
BLACK
6
CONTINUOUS
10
105.644
20
-124.077
11
105.453
21
-124.172
0
LINE
8
BLACK
6
CONTINUOUS
10
105.453
20
-124.172
11
105.263
21
-124.172
0
LINE
8
BLACK
6
CONTINUOUS
10
105.263
20
-124.172
11
105.073
21
-124.077
0
LINE
8
BLACK
6
CONTINUOUS
10
105.073
20
-124.077
11
104.977
21
-123.982
0
LINE
8
BLACK
6
CONTINUOUS
10
104.977
20
-123.982
11
104.882
21
-123.791
0
LINE
8
BLACK
6
CONTINUOUS
10
104.882
20
-123.791
11
104.787
21
-123.41
0
LINE
8
BLACK
6
CONTINUOUS
10
104.787
20
-123.41
11
104.787
21
-122.934
0
LINE
8
BLACK
6
CONTINUOUS
10
104.787
20
-122.934
11
104.882
21
-122.553
0
LINE
8
BLACK
6
CONTINUOUS
10
104.882
20
-122.553
11
104.977
21
-122.363
0
LINE
8
BLACK
6
CONTINUOUS
10
104.977
20
-122.363
11
105.073
21
-122.268
0
LINE
8
BLACK
6
CONTINUOUS
10
105.073
20
-122.268
11
105.263
21
-122.172
0
LINE
8
BLACK
6
CONTINUOUS
10
106.596
20
-122.172
11
107.93
21
-122.172
0
LINE
8
BLACK
6
CONTINUOUS
10
107.93
20
-122.172
11
107.073
21
-124.172
0
LINE
8
BLACK
6
CONTINUOUS
10
108.787
20
-124.172
11
109.168
21
-124.172
0
LINE
8
BLACK
6
CONTINUOUS
10
109.168
20
-124.172
11
109.358
21
-124.077
0
LINE
8
BLACK
6
CONTINUOUS
10
109.358
20
-124.077
11
109.453
21
-123.982
0
LINE
8
BLACK
6
CONTINUOUS
10
109.453
20
-123.982
11
109.644
21
-123.696
0
LINE
8
BLACK
6
CONTINUOUS
10
109.644
20
-123.696
11
109.739
21
-123.315
0
LINE
8
BLACK
6
CONTINUOUS
10
109.739
20
-123.315
11
109.739
21
-122.553
0
LINE
8
BLACK
6
CONTINUOUS
10
109.739
20
-122.553
11
109.644
21
-122.363
0
LINE
8
BLACK
6
CONTINUOUS
10
109.644
20
-122.363
11
109.549
21
-122.268
0
LINE
8
BLACK
6
CONTINUOUS
10
109.549
20
-122.268
11
109.358
21
-122.172
0
LINE
8
BLACK
6
CONTINUOUS
10
109.358
20
-122.172
11
108.977
21
-122.172
0
LINE
8
BLACK
6
CONTINUOUS
10
108.977
20
-122.172
11
108.787
21
-122.268
0
LINE
8
BLACK
6
CONTINUOUS
10
108.787
20
-122.268
11
108.692
21
-122.363
0
LINE
8
BLACK
6
CONTINUOUS
10
108.692
20
-122.363
11
108.596
21
-122.553
0
LINE
8
BLACK
6
CONTINUOUS
10
108.596
20
-122.553
11
108.596
21
-123.03
0
LINE
8
BLACK
6
CONTINUOUS
10
108.596
20
-123.03
11
108.692
21
-123.22
0
LINE
8
BLACK
6
CONTINUOUS
10
108.692
20
-123.22
11
108.787
21
-123.315
0
LINE
8
BLACK
6
CONTINUOUS
10
108.787
20
-123.315
11
108.977
21
-123.41
0
LINE
8
BLACK
6
CONTINUOUS
10
108.977
20
-123.41
11
109.358
21
-123.41
0
LINE
8
BLACK
6
CONTINUOUS
10
109.358
20
-123.41
11
109.549
21
-123.315
0
LINE
8
BLACK
6
CONTINUOUS
10
109.549
20
-123.315
11
109.644
21
-123.22
0
LINE
8
BLACK
6
CONTINUOUS
10
109.644
20
-123.22
11
109.739
21
-123.03
0
LINE
8
BLACK
6
CONTINUOUS
10
110.501
20
-122.172
11
110.501
21
-122.553
0
LINE
8
BLACK
6
CONTINUOUS
10
111.263
20
-122.172
11
111.263
21
-122.553
0
LINE
8
BLACK
6
CONTINUOUS
10
114.215
20
-124.934
11
114.12
21
-124.839
0
LINE
8
BLACK
6
CONTINUOUS
10
114.12
20
-124.839
11
113.93
21
-124.553
0
LINE
8
BLACK
6
CONTINUOUS
10
113.93
20
-124.553
11
113.834
21
-124.363
0
LINE
8
BLACK
6
CONTINUOUS
10
113.834
20
-124.363
11
113.739
21
-124.077
0
LINE
8
BLACK
6
CONTINUOUS
10
113.739
20
-124.077
11
113.644
21
-123.601
0
LINE
8
BLACK
6
CONTINUOUS
10
113.644
20
-123.601
11
113.644
21
-123.22
0
LINE
8
BLACK
6
CONTINUOUS
10
113.644
20
-123.22
11
113.739
21
-122.744
0
LINE
8
BLACK
6
CONTINUOUS
10
113.739
20
-122.744
11
113.834
21
-122.458
0
LINE
8
BLACK
6
CONTINUOUS
10
113.834
20
-122.458
11
113.93
21
-122.268
0
LINE
8
BLACK
6
CONTINUOUS
10
113.93
20
-122.268
11
114.12
21
-121.982
0
LINE
8
BLACK
6
CONTINUOUS
10
114.12
20
-121.982
11
114.215
21
-121.887
0
LINE
8
BLACK
6
CONTINUOUS
10
116.025
20
-124.172
11
114.882
21
-124.172
0
LINE
8
BLACK
6
CONTINUOUS
10
115.453
20
-124.172
11
115.453
21
-122.172
0
LINE
8
BLACK
6
CONTINUOUS
10
115.453
20
-122.172
11
115.263
21
-122.458
0
LINE
8
BLACK
6
CONTINUOUS
10
115.263
20
-122.458
11
115.073
21
-122.649
0
LINE
8
BLACK
6
CONTINUOUS
10
115.073
20
-122.649
11
114.882
21
-122.744
0
LINE
8
BLACK
6
CONTINUOUS
10
118.406
20
-124.172
11
118.406
21
-122.172
0
LINE
8
BLACK
6
CONTINUOUS
10
119.263
20
-124.172
11
119.263
21
-123.125
0
LINE
8
BLACK
6
CONTINUOUS
10
119.263
20
-123.125
11
119.168
21
-122.934
0
LINE
8
BLACK
6
CONTINUOUS
10
119.168
20
-122.934
11
118.977
21
-122.839
0
LINE
8
BLACK
6
CONTINUOUS
10
118.977
20
-122.839
11
118.692
21
-122.839
0
LINE
8
BLACK
6
CONTINUOUS
10
118.692
20
-122.839
11
118.501
21
-122.934
0
LINE
8
BLACK
6
CONTINUOUS
10
118.501
20
-122.934
11
118.406
21
-123.03
0
LINE
8
BLACK
6
CONTINUOUS
10
120.501
20
-124.172
11
120.311
21
-124.077
0
LINE
8
BLACK
6
CONTINUOUS
10
120.311
20
-124.077
11
120.215
21
-123.982
0
LINE
8
BLACK
6
CONTINUOUS
10
120.215
20
-123.982
11
120.12
21
-123.791
0
LINE
8
BLACK
6
CONTINUOUS
10
120.12
20
-123.791
11
120.12
21
-123.22
0
LINE
8
BLACK
6
CONTINUOUS
10
120.12
20
-123.22
11
120.215
21
-123.03
0
LINE
8
BLACK
6
CONTINUOUS
10
120.215
20
-123.03
11
120.311
21
-122.934
0
LINE
8
BLACK
6
CONTINUOUS
10
120.311
20
-122.934
11
120.501
21
-122.839
0
LINE
8
BLACK
6
CONTINUOUS
10
120.501
20
-122.839
11
120.787
21
-122.839
0
LINE
8
BLACK
6
CONTINUOUS
10
120.787
20
-122.839
11
120.977
21
-122.934
0
LINE
8
BLACK
6
CONTINUOUS
10
120.977
20
-122.934
11
121.073
21
-123.03
0
LINE
8
BLACK
6
CONTINUOUS
10
121.073
20
-123.03
11
121.168
21
-123.22
0
LINE
8
BLACK
6
CONTINUOUS
10
121.168
20
-123.22
11
121.168
21
-123.791
0
LINE
8
BLACK
6
CONTINUOUS
10
121.168
20
-123.791
11
121.073
21
-123.982
0
LINE
8
BLACK
6
CONTINUOUS
10
121.073
20
-123.982
11
120.977
21
-124.077
0
LINE
8
BLACK
6
CONTINUOUS
10
120.977
20
-124.077
11
120.787
21
-124.172
0
LINE
8
BLACK
6
CONTINUOUS
10
120.787
20
-124.172
11
120.501
21
-124.172
0
LINE
8
BLACK
6
CONTINUOUS
10
122.311
20
-124.172
11
122.12
21
-124.077
0
LINE
8
BLACK
6
CONTINUOUS
10
122.12
20
-124.077
11
122.025
21
-123.887
0
LINE
8
BLACK
6
CONTINUOUS
10
122.025
20
-123.887
11
122.025
21
-122.172
0
LINE
8
BLACK
6
CONTINUOUS
10
123.834
20
-124.077
11
123.644
21
-124.172
0
LINE
8
BLACK
6
CONTINUOUS
10
123.644
20
-124.172
11
123.263
21
-124.172
0
LINE
8
BLACK
6
CONTINUOUS
10
123.263
20
-124.172
11
123.073
21
-124.077
0
LINE
8
BLACK
6
CONTINUOUS
10
123.073
20
-124.077
11
122.977
21
-123.887
0
LINE
8
BLACK
6
CONTINUOUS
10
122.977
20
-123.887
11
122.977
21
-123.125
0
LINE
8
BLACK
6
CONTINUOUS
10
122.977
20
-123.125
11
123.073
21
-122.934
0
LINE
8
BLACK
6
CONTINUOUS
10
123.073
20
-122.934
11
123.263
21
-122.839
0
LINE
8
BLACK
6
CONTINUOUS
10
123.263
20
-122.839
11
123.644
21
-122.839
0
LINE
8
BLACK
6
CONTINUOUS
10
123.644
20
-122.839
11
123.834
21
-122.934
0
LINE
8
BLACK
6
CONTINUOUS
10
123.834
20
-122.934
11
123.93
21
-123.125
0
LINE
8
BLACK
6
CONTINUOUS
10
123.93
20
-123.125
11
123.93
21
-123.315
0
LINE
8
BLACK
6
CONTINUOUS
10
123.93
20
-123.315
11
122.977
21
-123.506
0
LINE
8
BLACK
6
CONTINUOUS
10
124.596
20
-124.934
11
124.692
21
-124.839
0
LINE
8
BLACK
6
CONTINUOUS
10
124.692
20
-124.839
11
124.882
21
-124.553
0
LINE
8
BLACK
6
CONTINUOUS
10
124.882
20
-124.553
11
124.977
21
-124.363
0
LINE
8
BLACK
6
CONTINUOUS
10
124.977
20
-124.363
11
125.073
21
-124.077
0
LINE
8
BLACK
6
CONTINUOUS
10
125.073
20
-124.077
11
125.168
21
-123.601
0
LINE
8
BLACK
6
CONTINUOUS
10
125.168
20
-123.601
11
125.168
21
-123.22
0
LINE
8
BLACK
6
CONTINUOUS
10
125.168
20
-123.22
11
125.073
21
-122.744
0
LINE
8
BLACK
6
CONTINUOUS
10
125.073
20
-122.744
11
124.977
21
-122.458
0
LINE
8
BLACK
6
CONTINUOUS
10
124.977
20
-122.458
11
124.882
21
-122.268
0
LINE
8
BLACK
6
CONTINUOUS
10
124.882
20
-122.268
11
124.692
21
-121.982
0
LINE
8
BLACK
6
CONTINUOUS
10
124.692
20
-121.982
11
124.596
21
-121.887
0
CIRCLE
8
BLACK
10
78.0964
20
-125.908
40
0.4
0
LINE
8
BLACK
6
CONTINUOUS
10
81.4535
20
-124.812
11
81.644
21
-124.812
0
LINE
8
BLACK
6
CONTINUOUS
10
81.644
20
-124.812
11
81.8345
21
-124.908
0
LINE
8
BLACK
6
CONTINUOUS
10
81.8345
20
-124.908
11
81.9297
21
-125.003
0
LINE
8
BLACK
6
CONTINUOUS
10
81.9297
20
-125.003
11
82.0249
21
-125.193
0
LINE
8
BLACK
6
CONTINUOUS
10
82.0249
20
-125.193
11
82.1202
21
-125.574
0
LINE
8
BLACK
6
CONTINUOUS
10
82.1202
20
-125.574
11
82.1202
21
-126.05
0
LINE
8
BLACK
6
CONTINUOUS
10
82.1202
20
-126.05
11
82.0249
21
-126.431
0
LINE
8
BLACK
6
CONTINUOUS
10
82.0249
20
-126.431
11
81.9297
21
-126.622
0
LINE
8
BLACK
6
CONTINUOUS
10
81.9297
20
-126.622
11
81.8345
21
-126.717
0
LINE
8
BLACK
6
CONTINUOUS
10
81.8345
20
-126.717
11
81.644
21
-126.812
0
LINE
8
BLACK
6
CONTINUOUS
10
81.644
20
-126.812
11
81.4535
21
-126.812
0
LINE
8
BLACK
6
CONTINUOUS
10
81.4535
20
-126.812
11
81.263
21
-126.717
0
LINE
8
BLACK
6
CONTINUOUS
10
81.263
20
-126.717
11
81.1678
21
-126.622
0
LINE
8
BLACK
6
CONTINUOUS
10
81.1678
20
-126.622
11
81.0725
21
-126.431
0
LINE
8
BLACK
6
CONTINUOUS
10
81.0725
20
-126.431
11
80.9773
21
-126.05
0
LINE
8
BLACK
6
CONTINUOUS
10
80.9773
20
-126.05
11
80.9773
21
-125.574
0
LINE
8
BLACK
6
CONTINUOUS
10
80.9773
20
-125.574
11
81.0725
21
-125.193
0
LINE
8
BLACK
6
CONTINUOUS
10
81.0725
20
-125.193
11
81.1678
21
-125.003
0
LINE
8
BLACK
6
CONTINUOUS
10
81.1678
20
-125.003
11
81.263
21
-124.908
0
LINE
8
BLACK
6
CONTINUOUS
10
81.263
20
-124.908
11
81.4535
21
-124.812
0
LINE
8
BLACK
6
CONTINUOUS
10
82.9773
20
-126.622
11
83.0725
21
-126.717
0
LINE
8
BLACK
6
CONTINUOUS
10
83.0725
20
-126.717
11
82.9773
21
-126.812
0
LINE
8
BLACK
6
CONTINUOUS
10
82.9773
20
-126.812
11
82.8821
21
-126.717
0
LINE
8
BLACK
6
CONTINUOUS
10
82.8821
20
-126.717
11
82.9773
21
-126.622
0
LINE
8
BLACK
6
CONTINUOUS
10
82.9773
20
-126.622
11
82.9773
21
-126.812
0
LINE
8
BLACK
6
CONTINUOUS
10
84.2154
20
-125.67
11
84.0249
21
-125.574
0
LINE
8
BLACK
6
CONTINUOUS
10
84.0249
20
-125.574
11
83.9297
21
-125.479
0
LINE
8
BLACK
6
CONTINUOUS
10
83.9297
20
-125.479
11
83.8345
21
-125.289
0
LINE
8
BLACK
6
CONTINUOUS
10
83.8345
20
-125.289
11
83.8345
21
-125.193
0
LINE
8
BLACK
6
CONTINUOUS
10
83.8345
20
-125.193
11
83.9297
21
-125.003
0
LINE
8
BLACK
6
CONTINUOUS
10
83.9297
20
-125.003
11
84.0249
21
-124.908
0
LINE
8
BLACK
6
CONTINUOUS
10
84.0249
20
-124.908
11
84.2154
21
-124.812
0
LINE
8
BLACK
6
CONTINUOUS
10
84.2154
20
-124.812
11
84.5964
21
-124.812
0
LINE
8
BLACK
6
CONTINUOUS
10
84.5964
20
-124.812
11
84.7868
21
-124.908
0
LINE
8
BLACK
6
CONTINUOUS
10
84.7868
20
-124.908
11
84.8821
21
-125.003
0
LINE
8
BLACK
6
CONTINUOUS
10
84.8821
20
-125.003
11
84.9773
21
-125.193
0
LINE
8
BLACK
6
CONTINUOUS
10
84.9773
20
-125.193
11
84.9773
21
-125.289
0
LINE
8
BLACK
6
CONTINUOUS
10
84.9773
20
-125.289
11
84.8821
21
-125.479
0
LINE
8
BLACK
6
CONTINUOUS
10
84.8821
20
-125.479
11
84.7868
21
-125.574
0
LINE
8
BLACK
6
CONTINUOUS
10
84.7868
20
-125.574
11
84.5964
21
-125.67
0
LINE
8
BLACK
6
CONTINUOUS
10
84.5964
20
-125.67
11
84.2154
21
-125.67
0
LINE
8
BLACK
6
CONTINUOUS
10
84.2154
20
-125.67
11
84.0249
21
-125.765
0
LINE
8
BLACK
6
CONTINUOUS
10
84.0249
20
-125.765
11
83.9297
21
-125.86
0
LINE
8
BLACK
6
CONTINUOUS
10
83.9297
20
-125.86
11
83.8345
21
-126.05
0
LINE
8
BLACK
6
CONTINUOUS
10
83.8345
20
-126.05
11
83.8345
21
-126.431
0
LINE
8
BLACK
6
CONTINUOUS
10
83.8345
20
-126.431
11
83.9297
21
-126.622
0
LINE
8
BLACK
6
CONTINUOUS
10
83.9297
20
-126.622
11
84.0249
21
-126.717
0
LINE
8
BLACK
6
CONTINUOUS
10
84.0249
20
-126.717
11
84.2154
21
-126.812
0
LINE
8
BLACK
6
CONTINUOUS
10
84.2154
20
-126.812
11
84.5964
21
-126.812
0
LINE
8
BLACK
6
CONTINUOUS
10
84.5964
20
-126.812
11
84.7868
21
-126.717
0
LINE
8
BLACK
6
CONTINUOUS
10
84.7868
20
-126.717
11
84.8821
21
-126.622
0
LINE
8
BLACK
6
CONTINUOUS
10
84.8821
20
-126.622
11
84.9773
21
-126.431
0
LINE
8
BLACK
6
CONTINUOUS
10
84.9773
20
-126.431
11
84.9773
21
-126.05
0
LINE
8
BLACK
6
CONTINUOUS
10
84.9773
20
-126.05
11
84.8821
21
-125.86
0
LINE
8
BLACK
6
CONTINUOUS
10
84.8821
20
-125.86
11
84.7868
21
-125.765
0
LINE
8
BLACK
6
CONTINUOUS
10
84.7868
20
-125.765
11
84.5964
21
-125.67
0
LINE
8
BLACK
6
CONTINUOUS
10
86.2154
20
-124.812
11
86.4059
21
-124.812
0
LINE
8
BLACK
6
CONTINUOUS
10
86.4059
20
-124.812
11
86.5964
21
-124.908
0
LINE
8
BLACK
6
CONTINUOUS
10
86.5964
20
-124.908
11
86.6916
21
-125.003
0
LINE
8
BLACK
6
CONTINUOUS
10
86.6916
20
-125.003
11
86.7868
21
-125.193
0
LINE
8
BLACK
6
CONTINUOUS
10
86.7868
20
-125.193
11
86.8821
21
-125.574
0
LINE
8
BLACK
6
CONTINUOUS
10
86.8821
20
-125.574
11
86.8821
21
-126.05
0
LINE
8
BLACK
6
CONTINUOUS
10
86.8821
20
-126.05
11
86.7868
21
-126.431
0
LINE
8
BLACK
6
CONTINUOUS
10
86.7868
20
-126.431
11
86.6916
21
-126.622
0
LINE
8
BLACK
6
CONTINUOUS
10
86.6916
20
-126.622
11
86.5964
21
-126.717
0
LINE
8
BLACK
6
CONTINUOUS
10
86.5964
20
-126.717
11
86.4059
21
-126.812
0
LINE
8
BLACK
6
CONTINUOUS
10
86.4059
20
-126.812
11
86.2154
21
-126.812
0
LINE
8
BLACK
6
CONTINUOUS
10
86.2154
20
-126.812
11
86.0249
21
-126.717
0
LINE
8
BLACK
6
CONTINUOUS
10
86.0249
20
-126.717
11
85.9297
21
-126.622
0
LINE
8
BLACK
6
CONTINUOUS
10
85.9297
20
-126.622
11
85.8345
21
-126.431
0
LINE
8
BLACK
6
CONTINUOUS
10
85.8345
20
-126.431
11
85.7392
21
-126.05
0
LINE
8
BLACK
6
CONTINUOUS
10
85.7392
20
-126.05
11
85.7392
21
-125.574
0
LINE
8
BLACK
6
CONTINUOUS
10
85.7392
20
-125.574
11
85.8345
21
-125.193
0
LINE
8
BLACK
6
CONTINUOUS
10
85.8345
20
-125.193
11
85.9297
21
-125.003
0
LINE
8
BLACK
6
CONTINUOUS
10
85.9297
20
-125.003
11
86.0249
21
-124.908
0
LINE
8
BLACK
6
CONTINUOUS
10
86.0249
20
-124.908
11
86.2154
21
-124.812
0
LINE
8
BLACK
6
CONTINUOUS
10
88.1202
20
-124.812
11
88.3106
21
-124.812
0
LINE
8
BLACK
6
CONTINUOUS
10
88.3106
20
-124.812
11
88.5011
21
-124.908
0
LINE
8
BLACK
6
CONTINUOUS
10
88.5011
20
-124.908
11
88.5964
21
-125.003
0
LINE
8
BLACK
6
CONTINUOUS
10
88.5964
20
-125.003
11
88.6916
21
-125.193
0
LINE
8
BLACK
6
CONTINUOUS
10
88.6916
20
-125.193
11
88.7868
21
-125.574
0
LINE
8
BLACK
6
CONTINUOUS
10
88.7868
20
-125.574
11
88.7868
21
-126.05
0
LINE
8
BLACK
6
CONTINUOUS
10
88.7868
20
-126.05
11
88.6916
21
-126.431
0
LINE
8
BLACK
6
CONTINUOUS
10
88.6916
20
-126.431
11
88.5964
21
-126.622
0
LINE
8
BLACK
6
CONTINUOUS
10
88.5964
20
-126.622
11
88.5011
21
-126.717
0
LINE
8
BLACK
6
CONTINUOUS
10
88.5011
20
-126.717
11
88.3106
21
-126.812
0
LINE
8
BLACK
6
CONTINUOUS
10
88.3106
20
-126.812
11
88.1202
21
-126.812
0
LINE
8
BLACK
6
CONTINUOUS
10
88.1202
20
-126.812
11
87.9297
21
-126.717
0
LINE
8
BLACK
6
CONTINUOUS
10
87.9297
20
-126.717
11
87.8345
21
-126.622
0
LINE
8
BLACK
6
CONTINUOUS
10
87.8345
20
-126.622
11
87.7392
21
-126.431
0
LINE
8
BLACK
6
CONTINUOUS
10
87.7392
20
-126.431
11
87.644
21
-126.05
0
LINE
8
BLACK
6
CONTINUOUS
10
87.644
20
-126.05
11
87.644
21
-125.574
0
LINE
8
BLACK
6
CONTINUOUS
10
87.644
20
-125.574
11
87.7392
21
-125.193
0
LINE
8
BLACK
6
CONTINUOUS
10
87.7392
20
-125.193
11
87.8345
21
-125.003
0
LINE
8
BLACK
6
CONTINUOUS
10
87.8345
20
-125.003
11
87.9297
21
-124.908
0
LINE
8
BLACK
6
CONTINUOUS
10
87.9297
20
-124.908
11
88.1202
21
-124.812
0
LINE
8
BLACK
6
CONTINUOUS
10
89.644
20
-126.812
11
89.644
21
-125.479
0
LINE
8
BLACK
6
CONTINUOUS
10
89.644
20
-125.67
11
89.7392
21
-125.574
0
LINE
8
BLACK
6
CONTINUOUS
10
89.7392
20
-125.574
11
89.9297
21
-125.479
0
LINE
8
BLACK
6
CONTINUOUS
10
89.9297
20
-125.479
11
90.2154
21
-125.479
0
LINE
8
BLACK
6
CONTINUOUS
10
90.2154
20
-125.479
11
90.4059
21
-125.574
0
LINE
8
BLACK
6
CONTINUOUS
10
90.4059
20
-125.574
11
90.5011
21
-125.765
0
LINE
8
BLACK
6
CONTINUOUS
10
90.5011
20
-125.765
11
90.5011
21
-126.812
0
LINE
8
BLACK
6
CONTINUOUS
10
90.5011
20
-125.765
11
90.5964
21
-125.574
0
LINE
8
BLACK
6
CONTINUOUS
10
90.5964
20
-125.574
11
90.7868
21
-125.479
0
LINE
8
BLACK
6
CONTINUOUS
10
90.7868
20
-125.479
11
91.0725
21
-125.479
0
LINE
8
BLACK
6
CONTINUOUS
10
91.0725
20
-125.479
11
91.263
21
-125.574
0
LINE
8
BLACK
6
CONTINUOUS
10
91.263
20
-125.574
11
91.3583
21
-125.765
0
LINE
8
BLACK
6
CONTINUOUS
10
91.3583
20
-125.765
11
91.3583
21
-126.812
0
LINE
8
BLACK
6
CONTINUOUS
10
92.3106
20
-126.812
11
92.3106
21
-125.479
0
LINE
8
BLACK
6
CONTINUOUS
10
92.3106
20
-125.67
11
92.4059
21
-125.574
0
LINE
8
BLACK
6
CONTINUOUS
10
92.4059
20
-125.574
11
92.5964
21
-125.479
0
LINE
8
BLACK
6
CONTINUOUS
10
92.5964
20
-125.479
11
92.8821
21
-125.479
0
LINE
8
BLACK
6
CONTINUOUS
10
92.8821
20
-125.479
11
93.0725
21
-125.574
0
LINE
8
BLACK
6
CONTINUOUS
10
93.0725
20
-125.574
11
93.1678
21
-125.765
0
LINE
8
BLACK
6
CONTINUOUS
10
93.1678
20
-125.765
11
93.1678
21
-126.812
0
LINE
8
BLACK
6
CONTINUOUS
10
93.1678
20
-125.765
11
93.263
21
-125.574
0
LINE
8
BLACK
6
CONTINUOUS
10
93.263
20
-125.574
11
93.4535
21
-125.479
0
LINE
8
BLACK
6
CONTINUOUS
10
93.4535
20
-125.479
11
93.7392
21
-125.479
0
LINE
8
BLACK
6
CONTINUOUS
10
93.7392
20
-125.479
11
93.9297
21
-125.574
0
LINE
8
BLACK
6
CONTINUOUS
10
93.9297
20
-125.574
11
94.0249
21
-125.765
0
LINE
8
BLACK
6
CONTINUOUS
10
94.0249
20
-125.765
11
94.0249
21
-126.812
0
LINE
8
BLACK
6
CONTINUOUS
10
97.9297
20
-124.717
11
96.2154
21
-127.289
0
LINE
8
BLACK
6
CONTINUOUS
10
100.501
20
-124.812
11
100.692
21
-124.812
0
LINE
8
BLACK
6
CONTINUOUS
10
100.692
20
-124.812
11
100.882
21
-124.908
0
LINE
8
BLACK
6
CONTINUOUS
10
100.882
20
-124.908
11
100.977
21
-125.003
0
LINE
8
BLACK
6
CONTINUOUS
10
100.977
20
-125.003
11
101.073
21
-125.193
0
LINE
8
BLACK
6
CONTINUOUS
10
101.073
20
-125.193
11
101.168
21
-125.574
0
LINE
8
BLACK
6
CONTINUOUS
10
101.168
20
-125.574
11
101.168
21
-126.05
0
LINE
8
BLACK
6
CONTINUOUS
10
101.168
20
-126.05
11
101.073
21
-126.431
0
LINE
8
BLACK
6
CONTINUOUS
10
101.073
20
-126.431
11
100.977
21
-126.622
0
LINE
8
BLACK
6
CONTINUOUS
10
100.977
20
-126.622
11
100.882
21
-126.717
0
LINE
8
BLACK
6
CONTINUOUS
10
100.882
20
-126.717
11
100.692
21
-126.812
0
LINE
8
BLACK
6
CONTINUOUS
10
100.692
20
-126.812
11
100.501
21
-126.812
0
LINE
8
BLACK
6
CONTINUOUS
10
100.501
20
-126.812
11
100.311
21
-126.717
0
LINE
8
BLACK
6
CONTINUOUS
10
100.311
20
-126.717
11
100.215
21
-126.622
0
LINE
8
BLACK
6
CONTINUOUS
10
100.215
20
-126.622
11
100.12
21
-126.431
0
LINE
8
BLACK
6
CONTINUOUS
10
100.12
20
-126.431
11
100.025
21
-126.05
0
LINE
8
BLACK
6
CONTINUOUS
10
100.025
20
-126.05
11
100.025
21
-125.574
0
LINE
8
BLACK
6
CONTINUOUS
10
100.025
20
-125.574
11
100.12
21
-125.193
0
LINE
8
BLACK
6
CONTINUOUS
10
100.12
20
-125.193
11
100.215
21
-125.003
0
LINE
8
BLACK
6
CONTINUOUS
10
100.215
20
-125.003
11
100.311
21
-124.908
0
LINE
8
BLACK
6
CONTINUOUS
10
100.311
20
-124.908
11
100.501
21
-124.812
0
LINE
8
BLACK
6
CONTINUOUS
10
102.025
20
-126.622
11
102.12
21
-126.717
0
LINE
8
BLACK
6
CONTINUOUS
10
102.12
20
-126.717
11
102.025
21
-126.812
0
LINE
8
BLACK
6
CONTINUOUS
10
102.025
20
-126.812
11
101.93
21
-126.717
0
LINE
8
BLACK
6
CONTINUOUS
10
101.93
20
-126.717
11
102.025
21
-126.622
0
LINE
8
BLACK
6
CONTINUOUS
10
102.025
20
-126.622
11
102.025
21
-126.812
0
LINE
8
BLACK
6
CONTINUOUS
10
103.358
20
-124.812
11
103.549
21
-124.812
0
LINE
8
BLACK
6
CONTINUOUS
10
103.549
20
-124.812
11
103.739
21
-124.908
0
LINE
8
BLACK
6
CONTINUOUS
10
103.739
20
-124.908
11
103.834
21
-125.003
0
LINE
8
BLACK
6
CONTINUOUS
10
103.834
20
-125.003
11
103.93
21
-125.193
0
LINE
8
BLACK
6
CONTINUOUS
10
103.93
20
-125.193
11
104.025
21
-125.574
0
LINE
8
BLACK
6
CONTINUOUS
10
104.025
20
-125.574
11
104.025
21
-126.05
0
LINE
8
BLACK
6
CONTINUOUS
10
104.025
20
-126.05
11
103.93
21
-126.431
0
LINE
8
BLACK
6
CONTINUOUS
10
103.93
20
-126.431
11
103.834
21
-126.622
0
LINE
8
BLACK
6
CONTINUOUS
10
103.834
20
-126.622
11
103.739
21
-126.717
0
LINE
8
BLACK
6
CONTINUOUS
10
103.739
20
-126.717
11
103.549
21
-126.812
0
LINE
8
BLACK
6
CONTINUOUS
10
103.549
20
-126.812
11
103.358
21
-126.812
0
LINE
8
BLACK
6
CONTINUOUS
10
103.358
20
-126.812
11
103.168
21
-126.717
0
LINE
8
BLACK
6
CONTINUOUS
10
103.168
20
-126.717
11
103.073
21
-126.622
0
LINE
8
BLACK
6
CONTINUOUS
10
103.073
20
-126.622
11
102.977
21
-126.431
0
LINE
8
BLACK
6
CONTINUOUS
10
102.977
20
-126.431
11
102.882
21
-126.05
0
LINE
8
BLACK
6
CONTINUOUS
10
102.882
20
-126.05
11
102.882
21
-125.574
0
LINE
8
BLACK
6
CONTINUOUS
10
102.882
20
-125.574
11
102.977
21
-125.193
0
LINE
8
BLACK
6
CONTINUOUS
10
102.977
20
-125.193
11
103.073
21
-125.003
0
LINE
8
BLACK
6
CONTINUOUS
10
103.073
20
-125.003
11
103.168
21
-124.908
0
LINE
8
BLACK
6
CONTINUOUS
10
103.168
20
-124.908
11
103.358
21
-124.812
0
LINE
8
BLACK
6
CONTINUOUS
10
104.692
20
-124.812
11
105.93
21
-124.812
0
LINE
8
BLACK
6
CONTINUOUS
10
105.93
20
-124.812
11
105.263
21
-125.574
0
LINE
8
BLACK
6
CONTINUOUS
10
105.263
20
-125.574
11
105.549
21
-125.574
0
LINE
8
BLACK
6
CONTINUOUS
10
105.549
20
-125.574
11
105.739
21
-125.67
0
LINE
8
BLACK
6
CONTINUOUS
10
105.739
20
-125.67
11
105.834
21
-125.765
0
LINE
8
BLACK
6
CONTINUOUS
10
105.834
20
-125.765
11
105.93
21
-125.955
0
LINE
8
BLACK
6
CONTINUOUS
10
105.93
20
-125.955
11
105.93
21
-126.431
0
LINE
8
BLACK
6
CONTINUOUS
10
105.93
20
-126.431
11
105.834
21
-126.622
0
LINE
8
BLACK
6
CONTINUOUS
10
105.834
20
-126.622
11
105.739
21
-126.717
0
LINE
8
BLACK
6
CONTINUOUS
10
105.739
20
-126.717
11
105.549
21
-126.812
0
LINE
8
BLACK
6
CONTINUOUS
10
105.549
20
-126.812
11
104.977
21
-126.812
0
LINE
8
BLACK
6
CONTINUOUS
10
104.977
20
-126.812
11
104.787
21
-126.717
0
LINE
8
BLACK
6
CONTINUOUS
10
104.787
20
-126.717
11
104.692
21
-126.622
0
LINE
8
BLACK
6
CONTINUOUS
10
107.834
20
-126.812
11
106.692
21
-126.812
0
LINE
8
BLACK
6
CONTINUOUS
10
107.263
20
-126.812
11
107.263
21
-124.812
0
LINE
8
BLACK
6
CONTINUOUS
10
107.263
20
-124.812
11
107.073
21
-125.098
0
LINE
8
BLACK
6
CONTINUOUS
10
107.073
20
-125.098
11
106.882
21
-125.289
0
LINE
8
BLACK
6
CONTINUOUS
10
106.882
20
-125.289
11
106.692
21
-125.384
0
LINE
8
BLACK
6
CONTINUOUS
10
109.644
20
-124.812
11
108.692
21
-124.812
0
LINE
8
BLACK
6
CONTINUOUS
10
108.692
20
-124.812
11
108.596
21
-125.765
0
LINE
8
BLACK
6
CONTINUOUS
10
108.596
20
-125.765
11
108.692
21
-125.67
0
LINE
8
BLACK
6
CONTINUOUS
10
108.692
20
-125.67
11
108.882
21
-125.574
0
LINE
8
BLACK
6
CONTINUOUS
10
108.882
20
-125.574
11
109.358
21
-125.574
0
LINE
8
BLACK
6
CONTINUOUS
10
109.358
20
-125.574
11
109.549
21
-125.67
0
LINE
8
BLACK
6
CONTINUOUS
10
109.549
20
-125.67
11
109.644
21
-125.765
0
LINE
8
BLACK
6
CONTINUOUS
10
109.644
20
-125.765
11
109.739
21
-125.955
0
LINE
8
BLACK
6
CONTINUOUS
10
109.739
20
-125.955
11
109.739
21
-126.431
0
LINE
8
BLACK
6
CONTINUOUS
10
109.739
20
-126.431
11
109.644
21
-126.622
0
LINE
8
BLACK
6
CONTINUOUS
10
109.644
20
-126.622
11
109.549
21
-126.717
0
LINE
8
BLACK
6
CONTINUOUS
10
109.549
20
-126.717
11
109.358
21
-126.812
0
LINE
8
BLACK
6
CONTINUOUS
10
109.358
20
-126.812
11
108.882
21
-126.812
0
LINE
8
BLACK
6
CONTINUOUS
10
108.882
20
-126.812
11
108.692
21
-126.717
0
LINE
8
BLACK
6
CONTINUOUS
10
108.692
20
-126.717
11
108.596
21
-126.622
0
LINE
8
BLACK
6
CONTINUOUS
10
110.501
20
-124.812
11
110.501
21
-125.193
0
LINE
8
BLACK
6
CONTINUOUS
10
111.263
20
-124.812
11
111.263
21
-125.193
0
LINE
8
BLACK
6
CONTINUOUS
10
114.215
20
-127.574
11
114.12
21
-127.479
0
LINE
8
BLACK
6
CONTINUOUS
10
114.12
20
-127.479
11
113.93
21
-127.193
0
LINE
8
BLACK
6
CONTINUOUS
10
113.93
20
-127.193
11
113.834
21
-127.003
0
LINE
8
BLACK
6
CONTINUOUS
10
113.834
20
-127.003
11
113.739
21
-126.717
0
LINE
8
BLACK
6
CONTINUOUS
10
113.739
20
-126.717
11
113.644
21
-126.241
0
LINE
8
BLACK
6
CONTINUOUS
10
113.644
20
-126.241
11
113.644
21
-125.86
0
LINE
8
BLACK
6
CONTINUOUS
10
113.644
20
-125.86
11
113.739
21
-125.384
0
LINE
8
BLACK
6
CONTINUOUS
10
113.739
20
-125.384
11
113.834
21
-125.098
0
LINE
8
BLACK
6
CONTINUOUS
10
113.834
20
-125.098
11
113.93
21
-124.908
0
LINE
8
BLACK
6
CONTINUOUS
10
113.93
20
-124.908
11
114.12
21
-124.622
0
LINE
8
BLACK
6
CONTINUOUS
10
114.12
20
-124.622
11
114.215
21
-124.527
0
LINE
8
BLACK
6
CONTINUOUS
10
114.882
20
-125.003
11
114.977
21
-124.908
0
LINE
8
BLACK
6
CONTINUOUS
10
114.977
20
-124.908
11
115.168
21
-124.812
0
LINE
8
BLACK
6
CONTINUOUS
10
115.168
20
-124.812
11
115.644
21
-124.812
0
LINE
8
BLACK
6
CONTINUOUS
10
115.644
20
-124.812
11
115.834
21
-124.908
0
LINE
8
BLACK
6
CONTINUOUS
10
115.834
20
-124.908
11
115.93
21
-125.003
0
LINE
8
BLACK
6
CONTINUOUS
10
115.93
20
-125.003
11
116.025
21
-125.193
0
LINE
8
BLACK
6
CONTINUOUS
10
116.025
20
-125.193
11
116.025
21
-125.384
0
LINE
8
BLACK
6
CONTINUOUS
10
116.025
20
-125.384
11
115.93
21
-125.67
0
LINE
8
BLACK
6
CONTINUOUS
10
115.93
20
-125.67
11
114.787
21
-126.812
0
LINE
8
BLACK
6
CONTINUOUS
10
114.787
20
-126.812
11
116.025
21
-126.812
0
LINE
8
BLACK
6
CONTINUOUS
10
117.263
20
-124.812
11
117.453
21
-124.812
0
LINE
8
BLACK
6
CONTINUOUS
10
117.453
20
-124.812
11
117.644
21
-124.908
0
LINE
8
BLACK
6
CONTINUOUS
10
117.644
20
-124.908
11
117.739
21
-125.003
0
LINE
8
BLACK
6
CONTINUOUS
10
117.739
20
-125.003
11
117.834
21
-125.193
0
LINE
8
BLACK
6
CONTINUOUS
10
117.834
20
-125.193
11
117.93
21
-125.574
0
LINE
8
BLACK
6
CONTINUOUS
10
117.93
20
-125.574
11
117.93
21
-126.05
0
LINE
8
BLACK
6
CONTINUOUS
10
117.93
20
-126.05
11
117.834
21
-126.431
0
LINE
8
BLACK
6
CONTINUOUS
10
117.834
20
-126.431
11
117.739
21
-126.622
0
LINE
8
BLACK
6
CONTINUOUS
10
117.739
20
-126.622
11
117.644
21
-126.717
0
LINE
8
BLACK
6
CONTINUOUS
10
117.644
20
-126.717
11
117.453
21
-126.812
0
LINE
8
BLACK
6
CONTINUOUS
10
117.453
20
-126.812
11
117.263
21
-126.812
0
LINE
8
BLACK
6
CONTINUOUS
10
117.263
20
-126.812
11
117.073
21
-126.717
0
LINE
8
BLACK
6
CONTINUOUS
10
117.073
20
-126.717
11
116.977
21
-126.622
0
LINE
8
BLACK
6
CONTINUOUS
10
116.977
20
-126.622
11
116.882
21
-126.431
0
LINE
8
BLACK
6
CONTINUOUS
10
116.882
20
-126.431
11
116.787
21
-126.05
0
LINE
8
BLACK
6
CONTINUOUS
10
116.787
20
-126.05
11
116.787
21
-125.574
0
LINE
8
BLACK
6
CONTINUOUS
10
116.787
20
-125.574
11
116.882
21
-125.193
0
LINE
8
BLACK
6
CONTINUOUS
10
116.882
20
-125.193
11
116.977
21
-125.003
0
LINE
8
BLACK
6
CONTINUOUS
10
116.977
20
-125.003
11
117.073
21
-124.908
0
LINE
8
BLACK
6
CONTINUOUS
10
117.073
20
-124.908
11
117.263
21
-124.812
0
LINE
8
BLACK
6
CONTINUOUS
10
120.311
20
-126.812
11
120.311
21
-124.812
0
LINE
8
BLACK
6
CONTINUOUS
10
121.168
20
-126.812
11
121.168
21
-125.765
0
LINE
8
BLACK
6
CONTINUOUS
10
121.168
20
-125.765
11
121.073
21
-125.574
0
LINE
8
BLACK
6
CONTINUOUS
10
121.073
20
-125.574
11
120.882
21
-125.479
0
LINE
8
BLACK
6
CONTINUOUS
10
120.882
20
-125.479
11
120.596
21
-125.479
0
LINE
8
BLACK
6
CONTINUOUS
10
120.596
20
-125.479
11
120.406
21
-125.574
0
LINE
8
BLACK
6
CONTINUOUS
10
120.406
20
-125.574
11
120.311
21
-125.67
0
LINE
8
BLACK
6
CONTINUOUS
10
122.406
20
-126.812
11
122.215
21
-126.717
0
LINE
8
BLACK
6
CONTINUOUS
10
122.215
20
-126.717
11
122.12
21
-126.622
0
LINE
8
BLACK
6
CONTINUOUS
10
122.12
20
-126.622
11
122.025
21
-126.431
0
LINE
8
BLACK
6
CONTINUOUS
10
122.025
20
-126.431
11
122.025
21
-125.86
0
LINE
8
BLACK
6
CONTINUOUS
10
122.025
20
-125.86
11
122.12
21
-125.67
0
LINE
8
BLACK
6
CONTINUOUS
10
122.12
20
-125.67
11
122.215
21
-125.574
0
LINE
8
BLACK
6
CONTINUOUS
10
122.215
20
-125.574
11
122.406
21
-125.479
0
LINE
8
BLACK
6
CONTINUOUS
10
122.406
20
-125.479
11
122.692
21
-125.479
0
LINE
8
BLACK
6
CONTINUOUS
10
122.692
20
-125.479
11
122.882
21
-125.574
0
LINE
8
BLACK
6
CONTINUOUS
10
122.882
20
-125.574
11
122.977
21
-125.67
0
LINE
8
BLACK
6
CONTINUOUS
10
122.977
20
-125.67
11
123.073
21
-125.86
0
LINE
8
BLACK
6
CONTINUOUS
10
123.073
20
-125.86
11
123.073
21
-126.431
0
LINE
8
BLACK
6
CONTINUOUS
10
123.073
20
-126.431
11
122.977
21
-126.622
0
LINE
8
BLACK
6
CONTINUOUS
10
122.977
20
-126.622
11
122.882
21
-126.717
0
LINE
8
BLACK
6
CONTINUOUS
10
122.882
20
-126.717
11
122.692
21
-126.812
0
LINE
8
BLACK
6
CONTINUOUS
10
122.692
20
-126.812
11
122.406
21
-126.812
0
LINE
8
BLACK
6
CONTINUOUS
10
124.215
20
-126.812
11
124.025
21
-126.717
0
LINE
8
BLACK
6
CONTINUOUS
10
124.025
20
-126.717
11
123.93
21
-126.527
0
LINE
8
BLACK
6
CONTINUOUS
10
123.93
20
-126.527
11
123.93
21
-124.812
0
LINE
8
BLACK
6
CONTINUOUS
10
125.739
20
-126.717
11
125.549
21
-126.812
0
LINE
8
BLACK
6
CONTINUOUS
10
125.549
20
-126.812
11
125.168
21
-126.812
0
LINE
8
BLACK
6
CONTINUOUS
10
125.168
20
-126.812
11
124.977
21
-126.717
0
LINE
8
BLACK
6
CONTINUOUS
10
124.977
20
-126.717
11
124.882
21
-126.527
0
LINE
8
BLACK
6
CONTINUOUS
10
124.882
20
-126.527
11
124.882
21
-125.765
0
LINE
8
BLACK
6
CONTINUOUS
10
124.882
20
-125.765
11
124.977
21
-125.574
0
LINE
8
BLACK
6
CONTINUOUS
10
124.977
20
-125.574
11
125.168
21
-125.479
0
LINE
8
BLACK
6
CONTINUOUS
10
125.168
20
-125.479
11
125.549
21
-125.479
0
LINE
8
BLACK
6
CONTINUOUS
10
125.549
20
-125.479
11
125.739
21
-125.574
0
LINE
8
BLACK
6
CONTINUOUS
10
125.739
20
-125.574
11
125.834
21
-125.765
0
LINE
8
BLACK
6
CONTINUOUS
10
125.834
20
-125.765
11
125.834
21
-125.955
0
LINE
8
BLACK
6
CONTINUOUS
10
125.834
20
-125.955
11
124.882
21
-126.146
0
LINE
8
BLACK
6
CONTINUOUS
10
126.596
20
-126.717
11
126.787
21
-126.812
0
LINE
8
BLACK
6
CONTINUOUS
10
126.787
20
-126.812
11
127.168
21
-126.812
0
LINE
8
BLACK
6
CONTINUOUS
10
127.168
20
-126.812
11
127.358
21
-126.717
0
LINE
8
BLACK
6
CONTINUOUS
10
127.358
20
-126.717
11
127.453
21
-126.527
0
LINE
8
BLACK
6
CONTINUOUS
10
127.453
20
-126.527
11
127.453
21
-126.431
0
LINE
8
BLACK
6
CONTINUOUS
10
127.453
20
-126.431
11
127.358
21
-126.241
0
LINE
8
BLACK
6
CONTINUOUS
10
127.358
20
-126.241
11
127.168
21
-126.146
0
LINE
8
BLACK
6
CONTINUOUS
10
127.168
20
-126.146
11
126.882
21
-126.146
0
LINE
8
BLACK
6
CONTINUOUS
10
126.882
20
-126.146
11
126.692
21
-126.05
0
LINE
8
BLACK
6
CONTINUOUS
10
126.692
20
-126.05
11
126.596
21
-125.86
0
LINE
8
BLACK
6
CONTINUOUS
10
126.596
20
-125.86
11
126.596
21
-125.765
0
LINE
8
BLACK
6
CONTINUOUS
10
126.596
20
-125.765
11
126.692
21
-125.574
0
LINE
8
BLACK
6
CONTINUOUS
10
126.692
20
-125.574
11
126.882
21
-125.479
0
LINE
8
BLACK
6
CONTINUOUS
10
126.882
20
-125.479
11
127.168
21
-125.479
0
LINE
8
BLACK
6
CONTINUOUS
10
127.168
20
-125.479
11
127.358
21
-125.574
0
LINE
8
BLACK
6
CONTINUOUS
10
128.12
20
-127.574
11
128.215
21
-127.479
0
LINE
8
BLACK
6
CONTINUOUS
10
128.215
20
-127.479
11
128.406
21
-127.193
0
LINE
8
BLACK
6
CONTINUOUS
10
128.406
20
-127.193
11
128.501
21
-127.003
0
LINE
8
BLACK
6
CONTINUOUS
10
128.501
20
-127.003
11
128.596
21
-126.717
0
LINE
8
BLACK
6
CONTINUOUS
10
128.596
20
-126.717
11
128.692
21
-126.241
0
LINE
8
BLACK
6
CONTINUOUS
10
128.692
20
-126.241
11
128.692
21
-125.86
0
LINE
8
BLACK
6
CONTINUOUS
10
128.692
20
-125.86
11
128.596
21
-125.384
0
LINE
8
BLACK
6
CONTINUOUS
10
128.596
20
-125.384
11
128.501
21
-125.098
0
LINE
8
BLACK
6
CONTINUOUS
10
128.501
20
-125.098
11
128.406
21
-124.908
0
LINE
8
BLACK
6
CONTINUOUS
10
128.406
20
-124.908
11
128.215
21
-124.622
0
LINE
8
BLACK
6
CONTINUOUS
10
128.215
20
-124.622
11
128.12
21
-124.527
0
LINE
8
BLACK
6
CONTINUOUS
10
77.9964
20
-128.048
11
77.9964
21
-129.048
0
LINE
8
BLACK
6
CONTINUOUS
10
77.4964
20
-128.548
11
78.4964
21
-128.548
0
LINE
8
BLACK
6
CONTINUOUS
10
82.1202
20
-129.452
11
80.9773
21
-129.452
0
LINE
8
BLACK
6
CONTINUOUS
10
81.5487
20
-129.452
11
81.5487
21
-127.452
0
LINE
8
BLACK
6
CONTINUOUS
10
81.5487
20
-127.452
11
81.3583
21
-127.738
0
LINE
8
BLACK
6
CONTINUOUS
10
81.3583
20
-127.738
11
81.1678
21
-127.929
0
LINE
8
BLACK
6
CONTINUOUS
10
81.1678
20
-127.929
11
80.9773
21
-128.024
0
LINE
8
BLACK
6
CONTINUOUS
10
82.9773
20
-129.262
11
83.0725
21
-129.357
0
LINE
8
BLACK
6
CONTINUOUS
10
83.0725
20
-129.357
11
82.9773
21
-129.452
0
LINE
8
BLACK
6
CONTINUOUS
10
82.9773
20
-129.452
11
82.8821
21
-129.357
0
LINE
8
BLACK
6
CONTINUOUS
10
82.8821
20
-129.357
11
82.9773
21
-129.262
0
LINE
8
BLACK
6
CONTINUOUS
10
82.9773
20
-129.262
11
82.9773
21
-129.452
0
LINE
8
BLACK
6
CONTINUOUS
10
84.3106
20
-127.452
11
84.5011
21
-127.452
0
LINE
8
BLACK
6
CONTINUOUS
10
84.5011
20
-127.452
11
84.6916
21
-127.548
0
LINE
8
BLACK
6
CONTINUOUS
10
84.6916
20
-127.548
11
84.7868
21
-127.643
0
LINE
8
BLACK
6
CONTINUOUS
10
84.7868
20
-127.643
11
84.8821
21
-127.833
0
LINE
8
BLACK
6
CONTINUOUS
10
84.8821
20
-127.833
11
84.9773
21
-128.214
0
LINE
8
BLACK
6
CONTINUOUS
10
84.9773
20
-128.214
11
84.9773
21
-128.69
0
LINE
8
BLACK
6
CONTINUOUS
10
84.9773
20
-128.69
11
84.8821
21
-129.071
0
LINE
8
BLACK
6
CONTINUOUS
10
84.8821
20
-129.071
11
84.7868
21
-129.262
0
LINE
8
BLACK
6
CONTINUOUS
10
84.7868
20
-129.262
11
84.6916
21
-129.357
0
LINE
8
BLACK
6
CONTINUOUS
10
84.6916
20
-129.357
11
84.5011
21
-129.452
0
LINE
8
BLACK
6
CONTINUOUS
10
84.5011
20
-129.452
11
84.3106
21
-129.452
0
LINE
8
BLACK
6
CONTINUOUS
10
84.3106
20
-129.452
11
84.1202
21
-129.357
0
LINE
8
BLACK
6
CONTINUOUS
10
84.1202
20
-129.357
11
84.0249
21
-129.262
0
LINE
8
BLACK
6
CONTINUOUS
10
84.0249
20
-129.262
11
83.9297
21
-129.071
0
LINE
8
BLACK
6
CONTINUOUS
10
83.9297
20
-129.071
11
83.8345
21
-128.69
0
LINE
8
BLACK
6
CONTINUOUS
10
83.8345
20
-128.69
11
83.8345
21
-128.214
0
LINE
8
BLACK
6
CONTINUOUS
10
83.8345
20
-128.214
11
83.9297
21
-127.833
0
LINE
8
BLACK
6
CONTINUOUS
10
83.9297
20
-127.833
11
84.0249
21
-127.643
0
LINE
8
BLACK
6
CONTINUOUS
10
84.0249
20
-127.643
11
84.1202
21
-127.548
0
LINE
8
BLACK
6
CONTINUOUS
10
84.1202
20
-127.548
11
84.3106
21
-127.452
0
LINE
8
BLACK
6
CONTINUOUS
10
86.2154
20
-127.452
11
86.4059
21
-127.452
0
LINE
8
BLACK
6
CONTINUOUS
10
86.4059
20
-127.452
11
86.5964
21
-127.548
0
LINE
8
BLACK
6
CONTINUOUS
10
86.5964
20
-127.548
11
86.6916
21
-127.643
0
LINE
8
BLACK
6
CONTINUOUS
10
86.6916
20
-127.643
11
86.7868
21
-127.833
0
LINE
8
BLACK
6
CONTINUOUS
10
86.7868
20
-127.833
11
86.8821
21
-128.214
0
LINE
8
BLACK
6
CONTINUOUS
10
86.8821
20
-128.214
11
86.8821
21
-128.69
0
LINE
8
BLACK
6
CONTINUOUS
10
86.8821
20
-128.69
11
86.7868
21
-129.071
0
LINE
8
BLACK
6
CONTINUOUS
10
86.7868
20
-129.071
11
86.6916
21
-129.262
0
LINE
8
BLACK
6
CONTINUOUS
10
86.6916
20
-129.262
11
86.5964
21
-129.357
0
LINE
8
BLACK
6
CONTINUOUS
10
86.5964
20
-129.357
11
86.4059
21
-129.452
0
LINE
8
BLACK
6
CONTINUOUS
10
86.4059
20
-129.452
11
86.2154
21
-129.452
0
LINE
8
BLACK
6
CONTINUOUS
10
86.2154
20
-129.452
11
86.0249
21
-129.357
0
LINE
8
BLACK
6
CONTINUOUS
10
86.0249
20
-129.357
11
85.9297
21
-129.262
0
LINE
8
BLACK
6
CONTINUOUS
10
85.9297
20
-129.262
11
85.8345
21
-129.071
0
LINE
8
BLACK
6
CONTINUOUS
10
85.8345
20
-129.071
11
85.7392
21
-128.69
0
LINE
8
BLACK
6
CONTINUOUS
10
85.7392
20
-128.69
11
85.7392
21
-128.214
0
LINE
8
BLACK
6
CONTINUOUS
10
85.7392
20
-128.214
11
85.8345
21
-127.833
0
LINE
8
BLACK
6
CONTINUOUS
10
85.8345
20
-127.833
11
85.9297
21
-127.643
0
LINE
8
BLACK
6
CONTINUOUS
10
85.9297
20
-127.643
11
86.0249
21
-127.548
0
LINE
8
BLACK
6
CONTINUOUS
10
86.0249
20
-127.548
11
86.2154
21
-127.452
0
LINE
8
BLACK
6
CONTINUOUS
10
88.1202
20
-127.452
11
88.3106
21
-127.452
0
LINE
8
BLACK
6
CONTINUOUS
10
88.3106
20
-127.452
11
88.5011
21
-127.548
0
LINE
8
BLACK
6
CONTINUOUS
10
88.5011
20
-127.548
11
88.5964
21
-127.643
0
LINE
8
BLACK
6
CONTINUOUS
10
88.5964
20
-127.643
11
88.6916
21
-127.833
0
LINE
8
BLACK
6
CONTINUOUS
10
88.6916
20
-127.833
11
88.7868
21
-128.214
0
LINE
8
BLACK
6
CONTINUOUS
10
88.7868
20
-128.214
11
88.7868
21
-128.69
0
LINE
8
BLACK
6
CONTINUOUS
10
88.7868
20
-128.69
11
88.6916
21
-129.071
0
LINE
8
BLACK
6
CONTINUOUS
10
88.6916
20
-129.071
11
88.5964
21
-129.262
0
LINE
8
BLACK
6
CONTINUOUS
10
88.5964
20
-129.262
11
88.5011
21
-129.357
0
LINE
8
BLACK
6
CONTINUOUS
10
88.5011
20
-129.357
11
88.3106
21
-129.452
0
LINE
8
BLACK
6
CONTINUOUS
10
88.3106
20
-129.452
11
88.1202
21
-129.452
0
LINE
8
BLACK
6
CONTINUOUS
10
88.1202
20
-129.452
11
87.9297
21
-129.357
0
LINE
8
BLACK
6
CONTINUOUS
10
87.9297
20
-129.357
11
87.8345
21
-129.262
0
LINE
8
BLACK
6
CONTINUOUS
10
87.8345
20
-129.262
11
87.7392
21
-129.071
0
LINE
8
BLACK
6
CONTINUOUS
10
87.7392
20
-129.071
11
87.644
21
-128.69
0
LINE
8
BLACK
6
CONTINUOUS
10
87.644
20
-128.69
11
87.644
21
-128.214
0
LINE
8
BLACK
6
CONTINUOUS
10
87.644
20
-128.214
11
87.7392
21
-127.833
0
LINE
8
BLACK
6
CONTINUOUS
10
87.7392
20
-127.833
11
87.8345
21
-127.643
0
LINE
8
BLACK
6
CONTINUOUS
10
87.8345
20
-127.643
11
87.9297
21
-127.548
0
LINE
8
BLACK
6
CONTINUOUS
10
87.9297
20
-127.548
11
88.1202
21
-127.452
0
LINE
8
BLACK
6
CONTINUOUS
10
89.644
20
-129.452
11
89.644
21
-128.119
0
LINE
8
BLACK
6
CONTINUOUS
10
89.644
20
-128.31
11
89.7392
21
-128.214
0
LINE
8
BLACK
6
CONTINUOUS
10
89.7392
20
-128.214
11
89.9297
21
-128.119
0
LINE
8
BLACK
6
CONTINUOUS
10
89.9297
20
-128.119
11
90.2154
21
-128.119
0
LINE
8
BLACK
6
CONTINUOUS
10
90.2154
20
-128.119
11
90.4059
21
-128.214
0
LINE
8
BLACK
6
CONTINUOUS
10
90.4059
20
-128.214
11
90.5011
21
-128.405
0
LINE
8
BLACK
6
CONTINUOUS
10
90.5011
20
-128.405
11
90.5011
21
-129.452
0
LINE
8
BLACK
6
CONTINUOUS
10
90.5011
20
-128.405
11
90.5964
21
-128.214
0
LINE
8
BLACK
6
CONTINUOUS
10
90.5964
20
-128.214
11
90.7868
21
-128.119
0
LINE
8
BLACK
6
CONTINUOUS
10
90.7868
20
-128.119
11
91.0725
21
-128.119
0
LINE
8
BLACK
6
CONTINUOUS
10
91.0725
20
-128.119
11
91.263
21
-128.214
0
LINE
8
BLACK
6
CONTINUOUS
10
91.263
20
-128.214
11
91.3583
21
-128.405
0
LINE
8
BLACK
6
CONTINUOUS
10
91.3583
20
-128.405
11
91.3583
21
-129.452
0
LINE
8
BLACK
6
CONTINUOUS
10
92.3106
20
-129.452
11
92.3106
21
-128.119
0
LINE
8
BLACK
6
CONTINUOUS
10
92.3106
20
-128.31
11
92.4059
21
-128.214
0
LINE
8
BLACK
6
CONTINUOUS
10
92.4059
20
-128.214
11
92.5964
21
-128.119
0
LINE
8
BLACK
6
CONTINUOUS
10
92.5964
20
-128.119
11
92.8821
21
-128.119
0
LINE
8
BLACK
6
CONTINUOUS
10
92.8821
20
-128.119
11
93.0725
21
-128.214
0
LINE
8
BLACK
6
CONTINUOUS
10
93.0725
20
-128.214
11
93.1678
21
-128.405
0
LINE
8
BLACK
6
CONTINUOUS
10
93.1678
20
-128.405
11
93.1678
21
-129.452
0
LINE
8
BLACK
6
CONTINUOUS
10
93.1678
20
-128.405
11
93.263
21
-128.214
0
LINE
8
BLACK
6
CONTINUOUS
10
93.263
20
-128.214
11
93.4535
21
-128.119
0
LINE
8
BLACK
6
CONTINUOUS
10
93.4535
20
-128.119
11
93.7392
21
-128.119
0
LINE
8
BLACK
6
CONTINUOUS
10
93.7392
20
-128.119
11
93.9297
21
-128.214
0
LINE
8
BLACK
6
CONTINUOUS
10
93.9297
20
-128.214
11
94.0249
21
-128.405
0
LINE
8
BLACK
6
CONTINUOUS
10
94.0249
20
-128.405
11
94.0249
21
-129.452
0
LINE
8
BLACK
6
CONTINUOUS
10
97.9297
20
-127.357
11
96.2154
21
-129.929
0
LINE
8
BLACK
6
CONTINUOUS
10
100.501
20
-127.452
11
100.692
21
-127.452
0
LINE
8
BLACK
6
CONTINUOUS
10
100.692
20
-127.452
11
100.882
21
-127.548
0
LINE
8
BLACK
6
CONTINUOUS
10
100.882
20
-127.548
11
100.977
21
-127.643
0
LINE
8
BLACK
6
CONTINUOUS
10
100.977
20
-127.643
11
101.073
21
-127.833
0
LINE
8
BLACK
6
CONTINUOUS
10
101.073
20
-127.833
11
101.168
21
-128.214
0
LINE
8
BLACK
6
CONTINUOUS
10
101.168
20
-128.214
11
101.168
21
-128.69
0
LINE
8
BLACK
6
CONTINUOUS
10
101.168
20
-128.69
11
101.073
21
-129.071
0
LINE
8
BLACK
6
CONTINUOUS
10
101.073
20
-129.071
11
100.977
21
-129.262
0
LINE
8
BLACK
6
CONTINUOUS
10
100.977
20
-129.262
11
100.882
21
-129.357
0
LINE
8
BLACK
6
CONTINUOUS
10
100.882
20
-129.357
11
100.692
21
-129.452
0
LINE
8
BLACK
6
CONTINUOUS
10
100.692
20
-129.452
11
100.501
21
-129.452
0
LINE
8
BLACK
6
CONTINUOUS
10
100.501
20
-129.452
11
100.311
21
-129.357
0
LINE
8
BLACK
6
CONTINUOUS
10
100.311
20
-129.357
11
100.215
21
-129.262
0
LINE
8
BLACK
6
CONTINUOUS
10
100.215
20
-129.262
11
100.12
21
-129.071
0
LINE
8
BLACK
6
CONTINUOUS
10
100.12
20
-129.071
11
100.025
21
-128.69
0
LINE
8
BLACK
6
CONTINUOUS
10
100.025
20
-128.69
11
100.025
21
-128.214
0
LINE
8
BLACK
6
CONTINUOUS
10
100.025
20
-128.214
11
100.12
21
-127.833
0
LINE
8
BLACK
6
CONTINUOUS
10
100.12
20
-127.833
11
100.215
21
-127.643
0
LINE
8
BLACK
6
CONTINUOUS
10
100.215
20
-127.643
11
100.311
21
-127.548
0
LINE
8
BLACK
6
CONTINUOUS
10
100.311
20
-127.548
11
100.501
21
-127.452
0
LINE
8
BLACK
6
CONTINUOUS
10
102.025
20
-129.262
11
102.12
21
-129.357
0
LINE
8
BLACK
6
CONTINUOUS
10
102.12
20
-129.357
11
102.025
21
-129.452
0
LINE
8
BLACK
6
CONTINUOUS
10
102.025
20
-129.452
11
101.93
21
-129.357
0
LINE
8
BLACK
6
CONTINUOUS
10
101.93
20
-129.357
11
102.025
21
-129.262
0
LINE
8
BLACK
6
CONTINUOUS
10
102.025
20
-129.262
11
102.025
21
-129.452
0
LINE
8
BLACK
6
CONTINUOUS
10
103.358
20
-127.452
11
103.549
21
-127.452
0
LINE
8
BLACK
6
CONTINUOUS
10
103.549
20
-127.452
11
103.739
21
-127.548
0
LINE
8
BLACK
6
CONTINUOUS
10
103.739
20
-127.548
11
103.834
21
-127.643
0
LINE
8
BLACK
6
CONTINUOUS
10
103.834
20
-127.643
11
103.93
21
-127.833
0
LINE
8
BLACK
6
CONTINUOUS
10
103.93
20
-127.833
11
104.025
21
-128.214
0
LINE
8
BLACK
6
CONTINUOUS
10
104.025
20
-128.214
11
104.025
21
-128.69
0
LINE
8
BLACK
6
CONTINUOUS
10
104.025
20
-128.69
11
103.93
21
-129.071
0
LINE
8
BLACK
6
CONTINUOUS
10
103.93
20
-129.071
11
103.834
21
-129.262
0
LINE
8
BLACK
6
CONTINUOUS
10
103.834
20
-129.262
11
103.739
21
-129.357
0
LINE
8
BLACK
6
CONTINUOUS
10
103.739
20
-129.357
11
103.549
21
-129.452
0
LINE
8
BLACK
6
CONTINUOUS
10
103.549
20
-129.452
11
103.358
21
-129.452
0
LINE
8
BLACK
6
CONTINUOUS
10
103.358
20
-129.452
11
103.168
21
-129.357
0
LINE
8
BLACK
6
CONTINUOUS
10
103.168
20
-129.357
11
103.073
21
-129.262
0
LINE
8
BLACK
6
CONTINUOUS
10
103.073
20
-129.262
11
102.977
21
-129.071
0
LINE
8
BLACK
6
CONTINUOUS
10
102.977
20
-129.071
11
102.882
21
-128.69
0
LINE
8
BLACK
6
CONTINUOUS
10
102.882
20
-128.69
11
102.882
21
-128.214
0
LINE
8
BLACK
6
CONTINUOUS
10
102.882
20
-128.214
11
102.977
21
-127.833
0
LINE
8
BLACK
6
CONTINUOUS
10
102.977
20
-127.833
11
103.073
21
-127.643
0
LINE
8
BLACK
6
CONTINUOUS
10
103.073
20
-127.643
11
103.168
21
-127.548
0
LINE
8
BLACK
6
CONTINUOUS
10
103.168
20
-127.548
11
103.358
21
-127.452
0
LINE
8
BLACK
6
CONTINUOUS
10
104.692
20
-127.452
11
105.93
21
-127.452
0
LINE
8
BLACK
6
CONTINUOUS
10
105.93
20
-127.452
11
105.263
21
-128.214
0
LINE
8
BLACK
6
CONTINUOUS
10
105.263
20
-128.214
11
105.549
21
-128.214
0
LINE
8
BLACK
6
CONTINUOUS
10
105.549
20
-128.214
11
105.739
21
-128.31
0
LINE
8
BLACK
6
CONTINUOUS
10
105.739
20
-128.31
11
105.834
21
-128.405
0
LINE
8
BLACK
6
CONTINUOUS
10
105.834
20
-128.405
11
105.93
21
-128.595
0
LINE
8
BLACK
6
CONTINUOUS
10
105.93
20
-128.595
11
105.93
21
-129.071
0
LINE
8
BLACK
6
CONTINUOUS
10
105.93
20
-129.071
11
105.834
21
-129.262
0
LINE
8
BLACK
6
CONTINUOUS
10
105.834
20
-129.262
11
105.739
21
-129.357
0
LINE
8
BLACK
6
CONTINUOUS
10
105.739
20
-129.357
11
105.549
21
-129.452
0
LINE
8
BLACK
6
CONTINUOUS
10
105.549
20
-129.452
11
104.977
21
-129.452
0
LINE
8
BLACK
6
CONTINUOUS
10
104.977
20
-129.452
11
104.787
21
-129.357
0
LINE
8
BLACK
6
CONTINUOUS
10
104.787
20
-129.357
11
104.692
21
-129.262
0
LINE
8
BLACK
6
CONTINUOUS
10
106.882
20
-129.452
11
107.263
21
-129.452
0
LINE
8
BLACK
6
CONTINUOUS
10
107.263
20
-129.452
11
107.453
21
-129.357
0
LINE
8
BLACK
6
CONTINUOUS
10
107.453
20
-129.357
11
107.549
21
-129.262
0
LINE
8
BLACK
6
CONTINUOUS
10
107.549
20
-129.262
11
107.739
21
-128.976
0
LINE
8
BLACK
6
CONTINUOUS
10
107.739
20
-128.976
11
107.834
21
-128.595
0
LINE
8
BLACK
6
CONTINUOUS
10
107.834
20
-128.595
11
107.834
21
-127.833
0
LINE
8
BLACK
6
CONTINUOUS
10
107.834
20
-127.833
11
107.739
21
-127.643
0
LINE
8
BLACK
6
CONTINUOUS
10
107.739
20
-127.643
11
107.644
21
-127.548
0
LINE
8
BLACK
6
CONTINUOUS
10
107.644
20
-127.548
11
107.453
21
-127.452
0
LINE
8
BLACK
6
CONTINUOUS
10
107.453
20
-127.452
11
107.073
21
-127.452
0
LINE
8
BLACK
6
CONTINUOUS
10
107.073
20
-127.452
11
106.882
21
-127.548
0
LINE
8
BLACK
6
CONTINUOUS
10
106.882
20
-127.548
11
106.787
21
-127.643
0
LINE
8
BLACK
6
CONTINUOUS
10
106.787
20
-127.643
11
106.692
21
-127.833
0
LINE
8
BLACK
6
CONTINUOUS
10
106.692
20
-127.833
11
106.692
21
-128.31
0
LINE
8
BLACK
6
CONTINUOUS
10
106.692
20
-128.31
11
106.787
21
-128.5
0
LINE
8
BLACK
6
CONTINUOUS
10
106.787
20
-128.5
11
106.882
21
-128.595
0
LINE
8
BLACK
6
CONTINUOUS
10
106.882
20
-128.595
11
107.073
21
-128.69
0
LINE
8
BLACK
6
CONTINUOUS
10
107.073
20
-128.69
11
107.453
21
-128.69
0
LINE
8
BLACK
6
CONTINUOUS
10
107.453
20
-128.69
11
107.644
21
-128.595
0
LINE
8
BLACK
6
CONTINUOUS
10
107.644
20
-128.595
11
107.739
21
-128.5
0
LINE
8
BLACK
6
CONTINUOUS
10
107.739
20
-128.5
11
107.834
21
-128.31
0
LINE
8
BLACK
6
CONTINUOUS
10
109.549
20
-128.119
11
109.549
21
-129.452
0
LINE
8
BLACK
6
CONTINUOUS
10
109.073
20
-127.357
11
108.596
21
-128.786
0
LINE
8
BLACK
6
CONTINUOUS
10
108.596
20
-128.786
11
109.834
21
-128.786
0
LINE
8
BLACK
6
CONTINUOUS
10
110.501
20
-127.452
11
110.501
21
-127.833
0
LINE
8
BLACK
6
CONTINUOUS
10
111.263
20
-127.452
11
111.263
21
-127.833
0
LINE
8
BLACK
6
CONTINUOUS
10
114.215
20
-130.214
11
114.12
21
-130.119
0
LINE
8
BLACK
6
CONTINUOUS
10
114.12
20
-130.119
11
113.93
21
-129.833
0
LINE
8
BLACK
6
CONTINUOUS
10
113.93
20
-129.833
11
113.834
21
-129.643
0
LINE
8
BLACK
6
CONTINUOUS
10
113.834
20
-129.643
11
113.739
21
-129.357
0
LINE
8
BLACK
6
CONTINUOUS
10
113.739
20
-129.357
11
113.644
21
-128.881
0
LINE
8
BLACK
6
CONTINUOUS
10
113.644
20
-128.881
11
113.644
21
-128.5
0
LINE
8
BLACK
6
CONTINUOUS
10
113.644
20
-128.5
11
113.739
21
-128.024
0
LINE
8
BLACK
6
CONTINUOUS
10
113.739
20
-128.024
11
113.834
21
-127.738
0
LINE
8
BLACK
6
CONTINUOUS
10
113.834
20
-127.738
11
113.93
21
-127.548
0
LINE
8
BLACK
6
CONTINUOUS
10
113.93
20
-127.548
11
114.12
21
-127.262
0
LINE
8
BLACK
6
CONTINUOUS
10
114.12
20
-127.262
11
114.215
21
-127.167
0
LINE
8
BLACK
6
CONTINUOUS
10
115.834
20
-128.119
11
115.834
21
-129.452
0
LINE
8
BLACK
6
CONTINUOUS
10
115.358
20
-127.357
11
114.882
21
-128.786
0
LINE
8
BLACK
6
CONTINUOUS
10
114.882
20
-128.786
11
116.12
21
-128.786
0
LINE
8
BLACK
6
CONTINUOUS
10
117.263
20
-127.452
11
117.453
21
-127.452
0
LINE
8
BLACK
6
CONTINUOUS
10
117.453
20
-127.452
11
117.644
21
-127.548
0
LINE
8
BLACK
6
CONTINUOUS
10
117.644
20
-127.548
11
117.739
21
-127.643
0
LINE
8
BLACK
6
CONTINUOUS
10
117.739
20
-127.643
11
117.834
21
-127.833
0
LINE
8
BLACK
6
CONTINUOUS
10
117.834
20
-127.833
11
117.93
21
-128.214
0
LINE
8
BLACK
6
CONTINUOUS
10
117.93
20
-128.214
11
117.93
21
-128.69
0
LINE
8
BLACK
6
CONTINUOUS
10
117.93
20
-128.69
11
117.834
21
-129.071
0
LINE
8
BLACK
6
CONTINUOUS
10
117.834
20
-129.071
11
117.739
21
-129.262
0
LINE
8
BLACK
6
CONTINUOUS
10
117.739
20
-129.262
11
117.644
21
-129.357
0
LINE
8
BLACK
6
CONTINUOUS
10
117.644
20
-129.357
11
117.453
21
-129.452
0
LINE
8
BLACK
6
CONTINUOUS
10
117.453
20
-129.452
11
117.263
21
-129.452
0
LINE
8
BLACK
6
CONTINUOUS
10
117.263
20
-129.452
11
117.073
21
-129.357
0
LINE
8
BLACK
6
CONTINUOUS
10
117.073
20
-129.357
11
116.977
21
-129.262
0
LINE
8
BLACK
6
CONTINUOUS
10
116.977
20
-129.262
11
116.882
21
-129.071
0
LINE
8
BLACK
6
CONTINUOUS
10
116.882
20
-129.071
11
116.787
21
-128.69
0
LINE
8
BLACK
6
CONTINUOUS
10
116.787
20
-128.69
11
116.787
21
-128.214
0
LINE
8
BLACK
6
CONTINUOUS
10
116.787
20
-128.214
11
116.882
21
-127.833
0
LINE
8
BLACK
6
CONTINUOUS
10
116.882
20
-127.833
11
116.977
21
-127.643
0
LINE
8
BLACK
6
CONTINUOUS
10
116.977
20
-127.643
11
117.073
21
-127.548
0
LINE
8
BLACK
6
CONTINUOUS
10
117.073
20
-127.548
11
117.263
21
-127.452
0
LINE
8
BLACK
6
CONTINUOUS
10
120.311
20
-129.452
11
120.311
21
-127.452
0
LINE
8
BLACK
6
CONTINUOUS
10
121.168
20
-129.452
11
121.168
21
-128.405
0
LINE
8
BLACK
6
CONTINUOUS
10
121.168
20
-128.405
11
121.073
21
-128.214
0
LINE
8
BLACK
6
CONTINUOUS
10
121.073
20
-128.214
11
120.882
21
-128.119
0
LINE
8
BLACK
6
CONTINUOUS
10
120.882
20
-128.119
11
120.596
21
-128.119
0
LINE
8
BLACK
6
CONTINUOUS
10
120.596
20
-128.119
11
120.406
21
-128.214
0
LINE
8
BLACK
6
CONTINUOUS
10
120.406
20
-128.214
11
120.311
21
-128.31
0
LINE
8
BLACK
6
CONTINUOUS
10
122.406
20
-129.452
11
122.215
21
-129.357
0
LINE
8
BLACK
6
CONTINUOUS
10
122.215
20
-129.357
11
122.12
21
-129.262
0
LINE
8
BLACK
6
CONTINUOUS
10
122.12
20
-129.262
11
122.025
21
-129.071
0
LINE
8
BLACK
6
CONTINUOUS
10
122.025
20
-129.071
11
122.025
21
-128.5
0
LINE
8
BLACK
6
CONTINUOUS
10
122.025
20
-128.5
11
122.12
21
-128.31
0
LINE
8
BLACK
6
CONTINUOUS
10
122.12
20
-128.31
11
122.215
21
-128.214
0
LINE
8
BLACK
6
CONTINUOUS
10
122.215
20
-128.214
11
122.406
21
-128.119
0
LINE
8
BLACK
6
CONTINUOUS
10
122.406
20
-128.119
11
122.692
21
-128.119
0
LINE
8
BLACK
6
CONTINUOUS
10
122.692
20
-128.119
11
122.882
21
-128.214
0
LINE
8
BLACK
6
CONTINUOUS
10
122.882
20
-128.214
11
122.977
21
-128.31
0
LINE
8
BLACK
6
CONTINUOUS
10
122.977
20
-128.31
11
123.073
21
-128.5
0
LINE
8
BLACK
6
CONTINUOUS
10
123.073
20
-128.5
11
123.073
21
-129.071
0
LINE
8
BLACK
6
CONTINUOUS
10
123.073
20
-129.071
11
122.977
21
-129.262
0
LINE
8
BLACK
6
CONTINUOUS
10
122.977
20
-129.262
11
122.882
21
-129.357
0
LINE
8
BLACK
6
CONTINUOUS
10
122.882
20
-129.357
11
122.692
21
-129.452
0
LINE
8
BLACK
6
CONTINUOUS
10
122.692
20
-129.452
11
122.406
21
-129.452
0
LINE
8
BLACK
6
CONTINUOUS
10
124.215
20
-129.452
11
124.025
21
-129.357
0
LINE
8
BLACK
6
CONTINUOUS
10
124.025
20
-129.357
11
123.93
21
-129.167
0
LINE
8
BLACK
6
CONTINUOUS
10
123.93
20
-129.167
11
123.93
21
-127.452
0
LINE
8
BLACK
6
CONTINUOUS
10
125.739
20
-129.357
11
125.549
21
-129.452
0
LINE
8
BLACK
6
CONTINUOUS
10
125.549
20
-129.452
11
125.168
21
-129.452
0
LINE
8
BLACK
6
CONTINUOUS
10
125.168
20
-129.452
11
124.977
21
-129.357
0
LINE
8
BLACK
6
CONTINUOUS
10
124.977
20
-129.357
11
124.882
21
-129.167
0
LINE
8
BLACK
6
CONTINUOUS
10
124.882
20
-129.167
11
124.882
21
-128.405
0
LINE
8
BLACK
6
CONTINUOUS
10
124.882
20
-128.405
11
124.977
21
-128.214
0
LINE
8
BLACK
6
CONTINUOUS
10
124.977
20
-128.214
11
125.168
21
-128.119
0
LINE
8
BLACK
6
CONTINUOUS
10
125.168
20
-128.119
11
125.549
21
-128.119
0
LINE
8
BLACK
6
CONTINUOUS
10
125.549
20
-128.119
11
125.739
21
-128.214
0
LINE
8
BLACK
6
CONTINUOUS
10
125.739
20
-128.214
11
125.834
21
-128.405
0
LINE
8
BLACK
6
CONTINUOUS
10
125.834
20
-128.405
11
125.834
21
-128.595
0
LINE
8
BLACK
6
CONTINUOUS
10
125.834
20
-128.595
11
124.882
21
-128.786
0
LINE
8
BLACK
6
CONTINUOUS
10
126.596
20
-129.357
11
126.787
21
-129.452
0
LINE
8
BLACK
6
CONTINUOUS
10
126.787
20
-129.452
11
127.168
21
-129.452
0
LINE
8
BLACK
6
CONTINUOUS
10
127.168
20
-129.452
11
127.358
21
-129.357
0
LINE
8
BLACK
6
CONTINUOUS
10
127.358
20
-129.357
11
127.453
21
-129.167
0
LINE
8
BLACK
6
CONTINUOUS
10
127.453
20
-129.167
11
127.453
21
-129.071
0
LINE
8
BLACK
6
CONTINUOUS
10
127.453
20
-129.071
11
127.358
21
-128.881
0
LINE
8
BLACK
6
CONTINUOUS
10
127.358
20
-128.881
11
127.168
21
-128.786
0
LINE
8
BLACK
6
CONTINUOUS
10
127.168
20
-128.786
11
126.882
21
-128.786
0
LINE
8
BLACK
6
CONTINUOUS
10
126.882
20
-128.786
11
126.692
21
-128.69
0
LINE
8
BLACK
6
CONTINUOUS
10
126.692
20
-128.69
11
126.596
21
-128.5
0
LINE
8
BLACK
6
CONTINUOUS
10
126.596
20
-128.5
11
126.596
21
-128.405
0
LINE
8
BLACK
6
CONTINUOUS
10
126.596
20
-128.405
11
126.692
21
-128.214
0
LINE
8
BLACK
6
CONTINUOUS
10
126.692
20
-128.214
11
126.882
21
-128.119
0
LINE
8
BLACK
6
CONTINUOUS
10
126.882
20
-128.119
11
127.168
21
-128.119
0
LINE
8
BLACK
6
CONTINUOUS
10
127.168
20
-128.119
11
127.358
21
-128.214
0
LINE
8
BLACK
6
CONTINUOUS
10
128.12
20
-130.214
11
128.215
21
-130.119
0
LINE
8
BLACK
6
CONTINUOUS
10
128.215
20
-130.119
11
128.406
21
-129.833
0
LINE
8
BLACK
6
CONTINUOUS
10
128.406
20
-129.833
11
128.501
21
-129.643
0
LINE
8
BLACK
6
CONTINUOUS
10
128.501
20
-129.643
11
128.596
21
-129.357
0
LINE
8
BLACK
6
CONTINUOUS
10
128.596
20
-129.357
11
128.692
21
-128.881
0
LINE
8
BLACK
6
CONTINUOUS
10
128.692
20
-128.881
11
128.692
21
-128.5
0
LINE
8
BLACK
6
CONTINUOUS
10
128.692
20
-128.5
11
128.596
21
-128.024
0
LINE
8
BLACK
6
CONTINUOUS
10
128.596
20
-128.024
11
128.501
21
-127.738
0
LINE
8
BLACK
6
CONTINUOUS
10
128.501
20
-127.738
11
128.406
21
-127.548
0
LINE
8
BLACK
6
CONTINUOUS
10
128.406
20
-127.548
11
128.215
21
-127.262
0
LINE
8
BLACK
6
CONTINUOUS
10
128.215
20
-127.262
11
128.12
21
-127.167
0
LINE
8
BLACK
6
CONTINUOUS
10
78.3221
20
-131.608
11
78.3221
21
-130.767
0
LINE
8
BLACK
6
CONTINUOUS
10
78.3221
20
-130.767
11
77.4806
21
-130.767
0
LINE
8
BLACK
6
CONTINUOUS
10
77.4806
20
-130.767
11
77.4806
21
-131.608
0
LINE
8
BLACK
6
CONTINUOUS
10
77.4806
20
-131.608
11
78.3221
21
-131.608
0
LINE
8
BLACK
6
CONTINUOUS
10
82.1202
20
-132.092
11
80.9773
21
-132.092
0
LINE
8
BLACK
6
CONTINUOUS
10
81.5487
20
-132.092
11
81.5487
21
-130.092
0
LINE
8
BLACK
6
CONTINUOUS
10
81.5487
20
-130.092
11
81.3583
21
-130.378
0
LINE
8
BLACK
6
CONTINUOUS
10
81.3583
20
-130.378
11
81.1678
21
-130.569
0
LINE
8
BLACK
6
CONTINUOUS
10
81.1678
20
-130.569
11
80.9773
21
-130.664
0
LINE
8
BLACK
6
CONTINUOUS
10
82.9773
20
-131.902
11
83.0725
21
-131.997
0
LINE
8
BLACK
6
CONTINUOUS
10
83.0725
20
-131.997
11
82.9773
21
-132.092
0
LINE
8
BLACK
6
CONTINUOUS
10
82.9773
20
-132.092
11
82.8821
21
-131.997
0
LINE
8
BLACK
6
CONTINUOUS
10
82.8821
20
-131.997
11
82.9773
21
-131.902
0
LINE
8
BLACK
6
CONTINUOUS
10
82.9773
20
-131.902
11
82.9773
21
-132.092
0
LINE
8
BLACK
6
CONTINUOUS
10
84.9773
20
-132.092
11
83.8345
21
-132.092
0
LINE
8
BLACK
6
CONTINUOUS
10
84.4059
20
-132.092
11
84.4059
21
-130.092
0
LINE
8
BLACK
6
CONTINUOUS
10
84.4059
20
-130.092
11
84.2154
21
-130.378
0
LINE
8
BLACK
6
CONTINUOUS
10
84.2154
20
-130.378
11
84.0249
21
-130.569
0
LINE
8
BLACK
6
CONTINUOUS
10
84.0249
20
-130.569
11
83.8345
21
-130.664
0
LINE
8
BLACK
6
CONTINUOUS
10
85.9297
20
-132.092
11
86.3106
21
-132.092
0
LINE
8
BLACK
6
CONTINUOUS
10
86.3106
20
-132.092
11
86.5011
21
-131.997
0
LINE
8
BLACK
6
CONTINUOUS
10
86.5011
20
-131.997
11
86.5964
21
-131.902
0
LINE
8
BLACK
6
CONTINUOUS
10
86.5964
20
-131.902
11
86.7868
21
-131.616
0
LINE
8
BLACK
6
CONTINUOUS
10
86.7868
20
-131.616
11
86.8821
21
-131.235
0
LINE
8
BLACK
6
CONTINUOUS
10
86.8821
20
-131.235
11
86.8821
21
-130.473
0
LINE
8
BLACK
6
CONTINUOUS
10
86.8821
20
-130.473
11
86.7868
21
-130.283
0
LINE
8
BLACK
6
CONTINUOUS
10
86.7868
20
-130.283
11
86.6916
21
-130.188
0
LINE
8
BLACK
6
CONTINUOUS
10
86.6916
20
-130.188
11
86.5011
21
-130.092
0
LINE
8
BLACK
6
CONTINUOUS
10
86.5011
20
-130.092
11
86.1202
21
-130.092
0
LINE
8
BLACK
6
CONTINUOUS
10
86.1202
20
-130.092
11
85.9297
21
-130.188
0
LINE
8
BLACK
6
CONTINUOUS
10
85.9297
20
-130.188
11
85.8345
21
-130.283
0
LINE
8
BLACK
6
CONTINUOUS
10
85.8345
20
-130.283
11
85.7392
21
-130.473
0
LINE
8
BLACK
6
CONTINUOUS
10
85.7392
20
-130.473
11
85.7392
21
-130.95
0
LINE
8
BLACK
6
CONTINUOUS
10
85.7392
20
-130.95
11
85.8345
21
-131.14
0
LINE
8
BLACK
6
CONTINUOUS
10
85.8345
20
-131.14
11
85.9297
21
-131.235
0
LINE
8
BLACK
6
CONTINUOUS
10
85.9297
20
-131.235
11
86.1202
21
-131.33
0
LINE
8
BLACK
6
CONTINUOUS
10
86.1202
20
-131.33
11
86.5011
21
-131.33
0
LINE
8
BLACK
6
CONTINUOUS
10
86.5011
20
-131.33
11
86.6916
21
-131.235
0
LINE
8
BLACK
6
CONTINUOUS
10
86.6916
20
-131.235
11
86.7868
21
-131.14
0
LINE
8
BLACK
6
CONTINUOUS
10
86.7868
20
-131.14
11
86.8821
21
-130.95
0
LINE
8
BLACK
6
CONTINUOUS
10
88.1202
20
-130.092
11
88.3106
21
-130.092
0
LINE
8
BLACK
6
CONTINUOUS
10
88.3106
20
-130.092
11
88.5011
21
-130.188
0
LINE
8
BLACK
6
CONTINUOUS
10
88.5011
20
-130.188
11
88.5964
21
-130.283
0
LINE
8
BLACK
6
CONTINUOUS
10
88.5964
20
-130.283
11
88.6916
21
-130.473
0
LINE
8
BLACK
6
CONTINUOUS
10
88.6916
20
-130.473
11
88.7868
21
-130.854
0
LINE
8
BLACK
6
CONTINUOUS
10
88.7868
20
-130.854
11
88.7868
21
-131.33
0
LINE
8
BLACK
6
CONTINUOUS
10
88.7868
20
-131.33
11
88.6916
21
-131.711
0
LINE
8
BLACK
6
CONTINUOUS
10
88.6916
20
-131.711
11
88.5964
21
-131.902
0
LINE
8
BLACK
6
CONTINUOUS
10
88.5964
20
-131.902
11
88.5011
21
-131.997
0
LINE
8
BLACK
6
CONTINUOUS
10
88.5011
20
-131.997
11
88.3106
21
-132.092
0
LINE
8
BLACK
6
CONTINUOUS
10
88.3106
20
-132.092
11
88.1202
21
-132.092
0
LINE
8
BLACK
6
CONTINUOUS
10
88.1202
20
-132.092
11
87.9297
21
-131.997
0
LINE
8
BLACK
6
CONTINUOUS
10
87.9297
20
-131.997
11
87.8345
21
-131.902
0
LINE
8
BLACK
6
CONTINUOUS
10
87.8345
20
-131.902
11
87.7392
21
-131.711
0
LINE
8
BLACK
6
CONTINUOUS
10
87.7392
20
-131.711
11
87.644
21
-131.33
0
LINE
8
BLACK
6
CONTINUOUS
10
87.644
20
-131.33
11
87.644
21
-130.854
0
LINE
8
BLACK
6
CONTINUOUS
10
87.644
20
-130.854
11
87.7392
21
-130.473
0
LINE
8
BLACK
6
CONTINUOUS
10
87.7392
20
-130.473
11
87.8345
21
-130.283
0
LINE
8
BLACK
6
CONTINUOUS
10
87.8345
20
-130.283
11
87.9297
21
-130.188
0
LINE
8
BLACK
6
CONTINUOUS
10
87.9297
20
-130.188
11
88.1202
21
-130.092
0
LINE
8
BLACK
6
CONTINUOUS
10
89.644
20
-132.092
11
89.644
21
-130.759
0
LINE
8
BLACK
6
CONTINUOUS
10
89.644
20
-130.95
11
89.7392
21
-130.854
0
LINE
8
BLACK
6
CONTINUOUS
10
89.7392
20
-130.854
11
89.9297
21
-130.759
0
LINE
8
BLACK
6
CONTINUOUS
10
89.9297
20
-130.759
11
90.2154
21
-130.759
0
LINE
8
BLACK
6
CONTINUOUS
10
90.2154
20
-130.759
11
90.4059
21
-130.854
0
LINE
8
BLACK
6
CONTINUOUS
10
90.4059
20
-130.854
11
90.5011
21
-131.045
0
LINE
8
BLACK
6
CONTINUOUS
10
90.5011
20
-131.045
11
90.5011
21
-132.092
0
LINE
8
BLACK
6
CONTINUOUS
10
90.5011
20
-131.045
11
90.5964
21
-130.854
0
LINE
8
BLACK
6
CONTINUOUS
10
90.5964
20
-130.854
11
90.7868
21
-130.759
0
LINE
8
BLACK
6
CONTINUOUS
10
90.7868
20
-130.759
11
91.0725
21
-130.759
0
LINE
8
BLACK
6
CONTINUOUS
10
91.0725
20
-130.759
11
91.263
21
-130.854
0
LINE
8
BLACK
6
CONTINUOUS
10
91.263
20
-130.854
11
91.3583
21
-131.045
0
LINE
8
BLACK
6
CONTINUOUS
10
91.3583
20
-131.045
11
91.3583
21
-132.092
0
LINE
8
BLACK
6
CONTINUOUS
10
92.3106
20
-132.092
11
92.3106
21
-130.759
0
LINE
8
BLACK
6
CONTINUOUS
10
92.3106
20
-130.95
11
92.4059
21
-130.854
0
LINE
8
BLACK
6
CONTINUOUS
10
92.4059
20
-130.854
11
92.5964
21
-130.759
0
LINE
8
BLACK
6
CONTINUOUS
10
92.5964
20
-130.759
11
92.8821
21
-130.759
0
LINE
8
BLACK
6
CONTINUOUS
10
92.8821
20
-130.759
11
93.0725
21
-130.854
0
LINE
8
BLACK
6
CONTINUOUS
10
93.0725
20
-130.854
11
93.1678
21
-131.045
0
LINE
8
BLACK
6
CONTINUOUS
10
93.1678
20
-131.045
11
93.1678
21
-132.092
0
LINE
8
BLACK
6
CONTINUOUS
10
93.1678
20
-131.045
11
93.263
21
-130.854
0
LINE
8
BLACK
6
CONTINUOUS
10
93.263
20
-130.854
11
93.4535
21
-130.759
0
LINE
8
BLACK
6
CONTINUOUS
10
93.4535
20
-130.759
11
93.7392
21
-130.759
0
LINE
8
BLACK
6
CONTINUOUS
10
93.7392
20
-130.759
11
93.9297
21
-130.854
0
LINE
8
BLACK
6
CONTINUOUS
10
93.9297
20
-130.854
11
94.0249
21
-131.045
0
LINE
8
BLACK
6
CONTINUOUS
10
94.0249
20
-131.045
11
94.0249
21
-132.092
0
LINE
8
BLACK
6
CONTINUOUS
10
97.9297
20
-129.997
11
96.2154
21
-132.569
0
LINE
8
BLACK
6
CONTINUOUS
10
100.501
20
-130.092
11
100.692
21
-130.092
0
LINE
8
BLACK
6
CONTINUOUS
10
100.692
20
-130.092
11
100.882
21
-130.188
0
LINE
8
BLACK
6
CONTINUOUS
10
100.882
20
-130.188
11
100.977
21
-130.283
0
LINE
8
BLACK
6
CONTINUOUS
10
100.977
20
-130.283
11
101.073
21
-130.473
0
LINE
8
BLACK
6
CONTINUOUS
10
101.073
20
-130.473
11
101.168
21
-130.854
0
LINE
8
BLACK
6
CONTINUOUS
10
101.168
20
-130.854
11
101.168
21
-131.33
0
LINE
8
BLACK
6
CONTINUOUS
10
101.168
20
-131.33
11
101.073
21
-131.711
0
LINE
8
BLACK
6
CONTINUOUS
10
101.073
20
-131.711
11
100.977
21
-131.902
0
LINE
8
BLACK
6
CONTINUOUS
10
100.977
20
-131.902
11
100.882
21
-131.997
0
LINE
8
BLACK
6
CONTINUOUS
10
100.882
20
-131.997
11
100.692
21
-132.092
0
LINE
8
BLACK
6
CONTINUOUS
10
100.692
20
-132.092
11
100.501
21
-132.092
0
LINE
8
BLACK
6
CONTINUOUS
10
100.501
20
-132.092
11
100.311
21
-131.997
0
LINE
8
BLACK
6
CONTINUOUS
10
100.311
20
-131.997
11
100.215
21
-131.902
0
LINE
8
BLACK
6
CONTINUOUS
10
100.215
20
-131.902
11
100.12
21
-131.711
0
LINE
8
BLACK
6
CONTINUOUS
10
100.12
20
-131.711
11
100.025
21
-131.33
0
LINE
8
BLACK
6
CONTINUOUS
10
100.025
20
-131.33
11
100.025
21
-130.854
0
LINE
8
BLACK
6
CONTINUOUS
10
100.025
20
-130.854
11
100.12
21
-130.473
0
LINE
8
BLACK
6
CONTINUOUS
10
100.12
20
-130.473
11
100.215
21
-130.283
0
LINE
8
BLACK
6
CONTINUOUS
10
100.215
20
-130.283
11
100.311
21
-130.188
0
LINE
8
BLACK
6
CONTINUOUS
10
100.311
20
-130.188
11
100.501
21
-130.092
0
LINE
8
BLACK
6
CONTINUOUS
10
102.025
20
-131.902
11
102.12
21
-131.997
0
LINE
8
BLACK
6
CONTINUOUS
10
102.12
20
-131.997
11
102.025
21
-132.092
0
LINE
8
BLACK
6
CONTINUOUS
10
102.025
20
-132.092
11
101.93
21
-131.997
0
LINE
8
BLACK
6
CONTINUOUS
10
101.93
20
-131.997
11
102.025
21
-131.902
0
LINE
8
BLACK
6
CONTINUOUS
10
102.025
20
-131.902
11
102.025
21
-132.092
0
LINE
8
BLACK
6
CONTINUOUS
10
103.358
20
-130.092
11
103.549
21
-130.092
0
LINE
8
BLACK
6
CONTINUOUS
10
103.549
20
-130.092
11
103.739
21
-130.188
0
LINE
8
BLACK
6
CONTINUOUS
10
103.739
20
-130.188
11
103.834
21
-130.283
0
LINE
8
BLACK
6
CONTINUOUS
10
103.834
20
-130.283
11
103.93
21
-130.473
0
LINE
8
BLACK
6
CONTINUOUS
10
103.93
20
-130.473
11
104.025
21
-130.854
0
LINE
8
BLACK
6
CONTINUOUS
10
104.025
20
-130.854
11
104.025
21
-131.33
0
LINE
8
BLACK
6
CONTINUOUS
10
104.025
20
-131.33
11
103.93
21
-131.711
0
LINE
8
BLACK
6
CONTINUOUS
10
103.93
20
-131.711
11
103.834
21
-131.902
0
LINE
8
BLACK
6
CONTINUOUS
10
103.834
20
-131.902
11
103.739
21
-131.997
0
LINE
8
BLACK
6
CONTINUOUS
10
103.739
20
-131.997
11
103.549
21
-132.092
0
LINE
8
BLACK
6
CONTINUOUS
10
103.549
20
-132.092
11
103.358
21
-132.092
0
LINE
8
BLACK
6
CONTINUOUS
10
103.358
20
-132.092
11
103.168
21
-131.997
0
LINE
8
BLACK
6
CONTINUOUS
10
103.168
20
-131.997
11
103.073
21
-131.902
0
LINE
8
BLACK
6
CONTINUOUS
10
103.073
20
-131.902
11
102.977
21
-131.711
0
LINE
8
BLACK
6
CONTINUOUS
10
102.977
20
-131.711
11
102.882
21
-131.33
0
LINE
8
BLACK
6
CONTINUOUS
10
102.882
20
-131.33
11
102.882
21
-130.854
0
LINE
8
BLACK
6
CONTINUOUS
10
102.882
20
-130.854
11
102.977
21
-130.473
0
LINE
8
BLACK
6
CONTINUOUS
10
102.977
20
-130.473
11
103.073
21
-130.283
0
LINE
8
BLACK
6
CONTINUOUS
10
103.073
20
-130.283
11
103.168
21
-130.188
0
LINE
8
BLACK
6
CONTINUOUS
10
103.168
20
-130.188
11
103.358
21
-130.092
0
LINE
8
BLACK
6
CONTINUOUS
10
105.739
20
-130.759
11
105.739
21
-132.092
0
LINE
8
BLACK
6
CONTINUOUS
10
105.263
20
-129.997
11
104.787
21
-131.426
0
LINE
8
BLACK
6
CONTINUOUS
10
104.787
20
-131.426
11
106.025
21
-131.426
0
LINE
8
BLACK
6
CONTINUOUS
10
107.644
20
-130.092
11
107.263
21
-130.092
0
LINE
8
BLACK
6
CONTINUOUS
10
107.263
20
-130.092
11
107.073
21
-130.188
0
LINE
8
BLACK
6
CONTINUOUS
10
107.073
20
-130.188
11
106.977
21
-130.283
0
LINE
8
BLACK
6
CONTINUOUS
10
106.977
20
-130.283
11
106.787
21
-130.569
0
LINE
8
BLACK
6
CONTINUOUS
10
106.787
20
-130.569
11
106.692
21
-130.95
0
LINE
8
BLACK
6
CONTINUOUS
10
106.692
20
-130.95
11
106.692
21
-131.711
0
LINE
8
BLACK
6
CONTINUOUS
10
106.692
20
-131.711
11
106.787
21
-131.902
0
LINE
8
BLACK
6
CONTINUOUS
10
106.787
20
-131.902
11
106.882
21
-131.997
0
LINE
8
BLACK
6
CONTINUOUS
10
106.882
20
-131.997
11
107.073
21
-132.092
0
LINE
8
BLACK
6
CONTINUOUS
10
107.073
20
-132.092
11
107.453
21
-132.092
0
LINE
8
BLACK
6
CONTINUOUS
10
107.453
20
-132.092
11
107.644
21
-131.997
0
LINE
8
BLACK
6
CONTINUOUS
10
107.644
20
-131.997
11
107.739
21
-131.902
0
LINE
8
BLACK
6
CONTINUOUS
10
107.739
20
-131.902
11
107.834
21
-131.711
0
LINE
8
BLACK
6
CONTINUOUS
10
107.834
20
-131.711
11
107.834
21
-131.235
0
LINE
8
BLACK
6
CONTINUOUS
10
107.834
20
-131.235
11
107.739
21
-131.045
0
LINE
8
BLACK
6
CONTINUOUS
10
107.739
20
-131.045
11
107.644
21
-130.95
0
LINE
8
BLACK
6
CONTINUOUS
10
107.644
20
-130.95
11
107.453
21
-130.854
0
LINE
8
BLACK
6
CONTINUOUS
10
107.453
20
-130.854
11
107.073
21
-130.854
0
LINE
8
BLACK
6
CONTINUOUS
10
107.073
20
-130.854
11
106.882
21
-130.95
0
LINE
8
BLACK
6
CONTINUOUS
10
106.882
20
-130.95
11
106.787
21
-131.045
0
LINE
8
BLACK
6
CONTINUOUS
10
106.787
20
-131.045
11
106.692
21
-131.235
0
LINE
8
BLACK
6
CONTINUOUS
10
108.787
20
-132.092
11
109.168
21
-132.092
0
LINE
8
BLACK
6
CONTINUOUS
10
109.168
20
-132.092
11
109.358
21
-131.997
0
LINE
8
BLACK
6
CONTINUOUS
10
109.358
20
-131.997
11
109.453
21
-131.902
0
LINE
8
BLACK
6
CONTINUOUS
10
109.453
20
-131.902
11
109.644
21
-131.616
0
LINE
8
BLACK
6
CONTINUOUS
10
109.644
20
-131.616
11
109.739
21
-131.235
0
LINE
8
BLACK
6
CONTINUOUS
10
109.739
20
-131.235
11
109.739
21
-130.473
0
LINE
8
BLACK
6
CONTINUOUS
10
109.739
20
-130.473
11
109.644
21
-130.283
0
LINE
8
BLACK
6
CONTINUOUS
10
109.644
20
-130.283
11
109.549
21
-130.188
0
LINE
8
BLACK
6
CONTINUOUS
10
109.549
20
-130.188
11
109.358
21
-130.092
0
LINE
8
BLACK
6
CONTINUOUS
10
109.358
20
-130.092
11
108.977
21
-130.092
0
LINE
8
BLACK
6
CONTINUOUS
10
108.977
20
-130.092
11
108.787
21
-130.188
0
LINE
8
BLACK
6
CONTINUOUS
10
108.787
20
-130.188
11
108.692
21
-130.283
0
LINE
8
BLACK
6
CONTINUOUS
10
108.692
20
-130.283
11
108.596
21
-130.473
0
LINE
8
BLACK
6
CONTINUOUS
10
108.596
20
-130.473
11
108.596
21
-130.95
0
LINE
8
BLACK
6
CONTINUOUS
10
108.596
20
-130.95
11
108.692
21
-131.14
0
LINE
8
BLACK
6
CONTINUOUS
10
108.692
20
-131.14
11
108.787
21
-131.235
0
LINE
8
BLACK
6
CONTINUOUS
10
108.787
20
-131.235
11
108.977
21
-131.33
0
LINE
8
BLACK
6
CONTINUOUS
10
108.977
20
-131.33
11
109.358
21
-131.33
0
LINE
8
BLACK
6
CONTINUOUS
10
109.358
20
-131.33
11
109.549
21
-131.235
0
LINE
8
BLACK
6
CONTINUOUS
10
109.549
20
-131.235
11
109.644
21
-131.14
0
LINE
8
BLACK
6
CONTINUOUS
10
109.644
20
-131.14
11
109.739
21
-130.95
0
LINE
8
BLACK
6
CONTINUOUS
10
110.501
20
-130.092
11
110.501
21
-130.473
0
LINE
8
BLACK
6
CONTINUOUS
10
111.263
20
-130.092
11
111.263
21
-130.473
0
LINE
8
BLACK
6
CONTINUOUS
10
114.215
20
-132.854
11
114.12
21
-132.759
0
LINE
8
BLACK
6
CONTINUOUS
10
114.12
20
-132.759
11
113.93
21
-132.473
0
LINE
8
BLACK
6
CONTINUOUS
10
113.93
20
-132.473
11
113.834
21
-132.283
0
LINE
8
BLACK
6
CONTINUOUS
10
113.834
20
-132.283
11
113.739
21
-131.997
0
LINE
8
BLACK
6
CONTINUOUS
10
113.739
20
-131.997
11
113.644
21
-131.521
0
LINE
8
BLACK
6
CONTINUOUS
10
113.644
20
-131.521
11
113.644
21
-131.14
0
LINE
8
BLACK
6
CONTINUOUS
10
113.644
20
-131.14
11
113.739
21
-130.664
0
LINE
8
BLACK
6
CONTINUOUS
10
113.739
20
-130.664
11
113.834
21
-130.378
0
LINE
8
BLACK
6
CONTINUOUS
10
113.834
20
-130.378
11
113.93
21
-130.188
0
LINE
8
BLACK
6
CONTINUOUS
10
113.93
20
-130.188
11
114.12
21
-129.902
0
LINE
8
BLACK
6
CONTINUOUS
10
114.12
20
-129.902
11
114.215
21
-129.807
0
LINE
8
BLACK
6
CONTINUOUS
10
116.025
20
-132.092
11
114.882
21
-132.092
0
LINE
8
BLACK
6
CONTINUOUS
10
115.453
20
-132.092
11
115.453
21
-130.092
0
LINE
8
BLACK
6
CONTINUOUS
10
115.453
20
-130.092
11
115.263
21
-130.378
0
LINE
8
BLACK
6
CONTINUOUS
10
115.263
20
-130.378
11
115.073
21
-130.569
0
LINE
8
BLACK
6
CONTINUOUS
10
115.073
20
-130.569
11
114.882
21
-130.664
0
LINE
8
BLACK
6
CONTINUOUS
10
116.692
20
-130.092
11
117.93
21
-130.092
0
LINE
8
BLACK
6
CONTINUOUS
10
117.93
20
-130.092
11
117.263
21
-130.854
0
LINE
8
BLACK
6
CONTINUOUS
10
117.263
20
-130.854
11
117.549
21
-130.854
0
LINE
8
BLACK
6
CONTINUOUS
10
117.549
20
-130.854
11
117.739
21
-130.95
0
LINE
8
BLACK
6
CONTINUOUS
10
117.739
20
-130.95
11
117.834
21
-131.045
0
LINE
8
BLACK
6
CONTINUOUS
10
117.834
20
-131.045
11
117.93
21
-131.235
0
LINE
8
BLACK
6
CONTINUOUS
10
117.93
20
-131.235
11
117.93
21
-131.711
0
LINE
8
BLACK
6
CONTINUOUS
10
117.93
20
-131.711
11
117.834
21
-131.902
0
LINE
8
BLACK
6
CONTINUOUS
10
117.834
20
-131.902
11
117.739
21
-131.997
0
LINE
8
BLACK
6
CONTINUOUS
10
117.739
20
-131.997
11
117.549
21
-132.092
0
LINE
8
BLACK
6
CONTINUOUS
10
117.549
20
-132.092
11
116.977
21
-132.092
0
LINE
8
BLACK
6
CONTINUOUS
10
116.977
20
-132.092
11
116.787
21
-131.997
0
LINE
8
BLACK
6
CONTINUOUS
10
116.787
20
-131.997
11
116.692
21
-131.902
0
LINE
8
BLACK
6
CONTINUOUS
10
120.311
20
-132.092
11
120.311
21
-130.092
0
LINE
8
BLACK
6
CONTINUOUS
10
121.168
20
-132.092
11
121.168
21
-131.045
0
LINE
8
BLACK
6
CONTINUOUS
10
121.168
20
-131.045
11
121.073
21
-130.854
0
LINE
8
BLACK
6
CONTINUOUS
10
121.073
20
-130.854
11
120.882
21
-130.759
0
LINE
8
BLACK
6
CONTINUOUS
10
120.882
20
-130.759
11
120.596
21
-130.759
0
LINE
8
BLACK
6
CONTINUOUS
10
120.596
20
-130.759
11
120.406
21
-130.854
0
LINE
8
BLACK
6
CONTINUOUS
10
120.406
20
-130.854
11
120.311
21
-130.95
0
LINE
8
BLACK
6
CONTINUOUS
10
122.406
20
-132.092
11
122.215
21
-131.997
0
LINE
8
BLACK
6
CONTINUOUS
10
122.215
20
-131.997
11
122.12
21
-131.902
0
LINE
8
BLACK
6
CONTINUOUS
10
122.12
20
-131.902
11
122.025
21
-131.711
0
LINE
8
BLACK
6
CONTINUOUS
10
122.025
20
-131.711
11
122.025
21
-131.14
0
LINE
8
BLACK
6
CONTINUOUS
10
122.025
20
-131.14
11
122.12
21
-130.95
0
LINE
8
BLACK
6
CONTINUOUS
10
122.12
20
-130.95
11
122.215
21
-130.854
0
LINE
8
BLACK
6
CONTINUOUS
10
122.215
20
-130.854
11
122.406
21
-130.759
0
LINE
8
BLACK
6
CONTINUOUS
10
122.406
20
-130.759
11
122.692
21
-130.759
0
LINE
8
BLACK
6
CONTINUOUS
10
122.692
20
-130.759
11
122.882
21
-130.854
0
LINE
8
BLACK
6
CONTINUOUS
10
122.882
20
-130.854
11
122.977
21
-130.95
0
LINE
8
BLACK
6
CONTINUOUS
10
122.977
20
-130.95
11
123.073
21
-131.14
0
LINE
8
BLACK
6
CONTINUOUS
10
123.073
20
-131.14
11
123.073
21
-131.711
0
LINE
8
BLACK
6
CONTINUOUS
10
123.073
20
-131.711
11
122.977
21
-131.902
0
LINE
8
BLACK
6
CONTINUOUS
10
122.977
20
-131.902
11
122.882
21
-131.997
0
LINE
8
BLACK
6
CONTINUOUS
10
122.882
20
-131.997
11
122.692
21
-132.092
0
LINE
8
BLACK
6
CONTINUOUS
10
122.692
20
-132.092
11
122.406
21
-132.092
0
LINE
8
BLACK
6
CONTINUOUS
10
124.215
20
-132.092
11
124.025
21
-131.997
0
LINE
8
BLACK
6
CONTINUOUS
10
124.025
20
-131.997
11
123.93
21
-131.807
0
LINE
8
BLACK
6
CONTINUOUS
10
123.93
20
-131.807
11
123.93
21
-130.092
0
LINE
8
BLACK
6
CONTINUOUS
10
125.739
20
-131.997
11
125.549
21
-132.092
0
LINE
8
BLACK
6
CONTINUOUS
10
125.549
20
-132.092
11
125.168
21
-132.092
0
LINE
8
BLACK
6
CONTINUOUS
10
125.168
20
-132.092
11
124.977
21
-131.997
0
LINE
8
BLACK
6
CONTINUOUS
10
124.977
20
-131.997
11
124.882
21
-131.807
0
LINE
8
BLACK
6
CONTINUOUS
10
124.882
20
-131.807
11
124.882
21
-131.045
0
LINE
8
BLACK
6
CONTINUOUS
10
124.882
20
-131.045
11
124.977
21
-130.854
0
LINE
8
BLACK
6
CONTINUOUS
10
124.977
20
-130.854
11
125.168
21
-130.759
0
LINE
8
BLACK
6
CONTINUOUS
10
125.168
20
-130.759
11
125.549
21
-130.759
0
LINE
8
BLACK
6
CONTINUOUS
10
125.549
20
-130.759
11
125.739
21
-130.854
0
LINE
8
BLACK
6
CONTINUOUS
10
125.739
20
-130.854
11
125.834
21
-131.045
0
LINE
8
BLACK
6
CONTINUOUS
10
125.834
20
-131.045
11
125.834
21
-131.235
0
LINE
8
BLACK
6
CONTINUOUS
10
125.834
20
-131.235
11
124.882
21
-131.426
0
LINE
8
BLACK
6
CONTINUOUS
10
126.596
20
-131.997
11
126.787
21
-132.092
0
LINE
8
BLACK
6
CONTINUOUS
10
126.787
20
-132.092
11
127.168
21
-132.092
0
LINE
8
BLACK
6
CONTINUOUS
10
127.168
20
-132.092
11
127.358
21
-131.997
0
LINE
8
BLACK
6
CONTINUOUS
10
127.358
20
-131.997
11
127.453
21
-131.807
0
LINE
8
BLACK
6
CONTINUOUS
10
127.453
20
-131.807
11
127.453
21
-131.711
0
LINE
8
BLACK
6
CONTINUOUS
10
127.453
20
-131.711
11
127.358
21
-131.521
0
LINE
8
BLACK
6
CONTINUOUS
10
127.358
20
-131.521
11
127.168
21
-131.426
0
LINE
8
BLACK
6
CONTINUOUS
10
127.168
20
-131.426
11
126.882
21
-131.426
0
LINE
8
BLACK
6
CONTINUOUS
10
126.882
20
-131.426
11
126.692
21
-131.33
0
LINE
8
BLACK
6
CONTINUOUS
10
126.692
20
-131.33
11
126.596
21
-131.14
0
LINE
8
BLACK
6
CONTINUOUS
10
126.596
20
-131.14
11
126.596
21
-131.045
0
LINE
8
BLACK
6
CONTINUOUS
10
126.596
20
-131.045
11
126.692
21
-130.854
0
LINE
8
BLACK
6
CONTINUOUS
10
126.692
20
-130.854
11
126.882
21
-130.759
0
LINE
8
BLACK
6
CONTINUOUS
10
126.882
20
-130.759
11
127.168
21
-130.759
0
LINE
8
BLACK
6
CONTINUOUS
10
127.168
20
-130.759
11
127.358
21
-130.854
0
LINE
8
BLACK
6
CONTINUOUS
10
128.12
20
-132.854
11
128.215
21
-132.759
0
LINE
8
BLACK
6
CONTINUOUS
10
128.215
20
-132.759
11
128.406
21
-132.473
0
LINE
8
BLACK
6
CONTINUOUS
10
128.406
20
-132.473
11
128.501
21
-132.283
0
LINE
8
BLACK
6
CONTINUOUS
10
128.501
20
-132.283
11
128.596
21
-131.997
0
LINE
8
BLACK
6
CONTINUOUS
10
128.596
20
-131.997
11
128.692
21
-131.521
0
LINE
8
BLACK
6
CONTINUOUS
10
128.692
20
-131.521
11
128.692
21
-131.14
0
LINE
8
BLACK
6
CONTINUOUS
10
128.692
20
-131.14
11
128.596
21
-130.664
0
LINE
8
BLACK
6
CONTINUOUS
10
128.596
20
-130.664
11
128.501
21
-130.378
0
LINE
8
BLACK
6
CONTINUOUS
10
128.501
20
-130.378
11
128.406
21
-130.188
0
LINE
8
BLACK
6
CONTINUOUS
10
128.406
20
-130.188
11
128.215
21
-129.902
0
LINE
8
BLACK
6
CONTINUOUS
10
128.215
20
-129.902
11
128.12
21
-129.807
0
LINE
8
BLACK
6
CONTINUOUS
10
77.8964
20
-134.428
11
78.4964
21
-133.828
0
LINE
8
BLACK
6
CONTINUOUS
10
78.4964
20
-133.828
11
77.8964
21
-133.228
0
LINE
8
BLACK
6
CONTINUOUS
10
77.8964
20
-133.228
11
77.2964
21
-133.828
0
LINE
8
BLACK
6
CONTINUOUS
10
77.2964
20
-133.828
11
77.8964
21
-134.428
0
LINE
8
BLACK
6
CONTINUOUS
10
82.1202
20
-134.732
11
80.9773
21
-134.732
0
LINE
8
BLACK
6
CONTINUOUS
10
81.5487
20
-134.732
11
81.5487
21
-132.732
0
LINE
8
BLACK
6
CONTINUOUS
10
81.5487
20
-132.732
11
81.3583
21
-133.018
0
LINE
8
BLACK
6
CONTINUOUS
10
81.3583
20
-133.018
11
81.1678
21
-133.209
0
LINE
8
BLACK
6
CONTINUOUS
10
81.1678
20
-133.209
11
80.9773
21
-133.304
0
LINE
8
BLACK
6
CONTINUOUS
10
82.9773
20
-134.542
11
83.0725
21
-134.637
0
LINE
8
BLACK
6
CONTINUOUS
10
83.0725
20
-134.637
11
82.9773
21
-134.732
0
LINE
8
BLACK
6
CONTINUOUS
10
82.9773
20
-134.732
11
82.8821
21
-134.637
0
LINE
8
BLACK
6
CONTINUOUS
10
82.8821
20
-134.637
11
82.9773
21
-134.542
0
LINE
8
BLACK
6
CONTINUOUS
10
82.9773
20
-134.542
11
82.9773
21
-134.732
0
LINE
8
BLACK
6
CONTINUOUS
10
83.8345
20
-132.923
11
83.9297
21
-132.828
0
LINE
8
BLACK
6
CONTINUOUS
10
83.9297
20
-132.828
11
84.1202
21
-132.732
0
LINE
8
BLACK
6
CONTINUOUS
10
84.1202
20
-132.732
11
84.5964
21
-132.732
0
LINE
8
BLACK
6
CONTINUOUS
10
84.5964
20
-132.732
11
84.7868
21
-132.828
0
LINE
8
BLACK
6
CONTINUOUS
10
84.7868
20
-132.828
11
84.8821
21
-132.923
0
LINE
8
BLACK
6
CONTINUOUS
10
84.8821
20
-132.923
11
84.9773
21
-133.113
0
LINE
8
BLACK
6
CONTINUOUS
10
84.9773
20
-133.113
11
84.9773
21
-133.304
0
LINE
8
BLACK
6
CONTINUOUS
10
84.9773
20
-133.304
11
84.8821
21
-133.59
0
LINE
8
BLACK
6
CONTINUOUS
10
84.8821
20
-133.59
11
83.7392
21
-134.732
0
LINE
8
BLACK
6
CONTINUOUS
10
83.7392
20
-134.732
11
84.9773
21
-134.732
0
LINE
8
BLACK
6
CONTINUOUS
10
86.2154
20
-132.732
11
86.4059
21
-132.732
0
LINE
8
BLACK
6
CONTINUOUS
10
86.4059
20
-132.732
11
86.5964
21
-132.828
0
LINE
8
BLACK
6
CONTINUOUS
10
86.5964
20
-132.828
11
86.6916
21
-132.923
0
LINE
8
BLACK
6
CONTINUOUS
10
86.6916
20
-132.923
11
86.7868
21
-133.113
0
LINE
8
BLACK
6
CONTINUOUS
10
86.7868
20
-133.113
11
86.8821
21
-133.494
0
LINE
8
BLACK
6
CONTINUOUS
10
86.8821
20
-133.494
11
86.8821
21
-133.97
0
LINE
8
BLACK
6
CONTINUOUS
10
86.8821
20
-133.97
11
86.7868
21
-134.351
0
LINE
8
BLACK
6
CONTINUOUS
10
86.7868
20
-134.351
11
86.6916
21
-134.542
0
LINE
8
BLACK
6
CONTINUOUS
10
86.6916
20
-134.542
11
86.5964
21
-134.637
0
LINE
8
BLACK
6
CONTINUOUS
10
86.5964
20
-134.637
11
86.4059
21
-134.732
0
LINE
8
BLACK
6
CONTINUOUS
10
86.4059
20
-134.732
11
86.2154
21
-134.732
0
LINE
8
BLACK
6
CONTINUOUS
10
86.2154
20
-134.732
11
86.0249
21
-134.637
0
LINE
8
BLACK
6
CONTINUOUS
10
86.0249
20
-134.637
11
85.9297
21
-134.542
0
LINE
8
BLACK
6
CONTINUOUS
10
85.9297
20
-134.542
11
85.8345
21
-134.351
0
LINE
8
BLACK
6
CONTINUOUS
10
85.8345
20
-134.351
11
85.7392
21
-133.97
0
LINE
8
BLACK
6
CONTINUOUS
10
85.7392
20
-133.97
11
85.7392
21
-133.494
0
LINE
8
BLACK
6
CONTINUOUS
10
85.7392
20
-133.494
11
85.8345
21
-133.113
0
LINE
8
BLACK
6
CONTINUOUS
10
85.8345
20
-133.113
11
85.9297
21
-132.923
0
LINE
8
BLACK
6
CONTINUOUS
10
85.9297
20
-132.923
11
86.0249
21
-132.828
0
LINE
8
BLACK
6
CONTINUOUS
10
86.0249
20
-132.828
11
86.2154
21
-132.732
0
LINE
8
BLACK
6
CONTINUOUS
10
88.1202
20
-132.732
11
88.3106
21
-132.732
0
LINE
8
BLACK
6
CONTINUOUS
10
88.3106
20
-132.732
11
88.5011
21
-132.828
0
LINE
8
BLACK
6
CONTINUOUS
10
88.5011
20
-132.828
11
88.5964
21
-132.923
0
LINE
8
BLACK
6
CONTINUOUS
10
88.5964
20
-132.923
11
88.6916
21
-133.113
0
LINE
8
BLACK
6
CONTINUOUS
10
88.6916
20
-133.113
11
88.7868
21
-133.494
0
LINE
8
BLACK
6
CONTINUOUS
10
88.7868
20
-133.494
11
88.7868
21
-133.97
0
LINE
8
BLACK
6
CONTINUOUS
10
88.7868
20
-133.97
11
88.6916
21
-134.351
0
LINE
8
BLACK
6
CONTINUOUS
10
88.6916
20
-134.351
11
88.5964
21
-134.542
0
LINE
8
BLACK
6
CONTINUOUS
10
88.5964
20
-134.542
11
88.5011
21
-134.637
0
LINE
8
BLACK
6
CONTINUOUS
10
88.5011
20
-134.637
11
88.3106
21
-134.732
0
LINE
8
BLACK
6
CONTINUOUS
10
88.3106
20
-134.732
11
88.1202
21
-134.732
0
LINE
8
BLACK
6
CONTINUOUS
10
88.1202
20
-134.732
11
87.9297
21
-134.637
0
LINE
8
BLACK
6
CONTINUOUS
10
87.9297
20
-134.637
11
87.8345
21
-134.542
0
LINE
8
BLACK
6
CONTINUOUS
10
87.8345
20
-134.542
11
87.7392
21
-134.351
0
LINE
8
BLACK
6
CONTINUOUS
10
87.7392
20
-134.351
11
87.644
21
-133.97
0
LINE
8
BLACK
6
CONTINUOUS
10
87.644
20
-133.97
11
87.644
21
-133.494
0
LINE
8
BLACK
6
CONTINUOUS
10
87.644
20
-133.494
11
87.7392
21
-133.113
0
LINE
8
BLACK
6
CONTINUOUS
10
87.7392
20
-133.113
11
87.8345
21
-132.923
0
LINE
8
BLACK
6
CONTINUOUS
10
87.8345
20
-132.923
11
87.9297
21
-132.828
0
LINE
8
BLACK
6
CONTINUOUS
10
87.9297
20
-132.828
11
88.1202
21
-132.732
0
LINE
8
BLACK
6
CONTINUOUS
10
89.644
20
-134.732
11
89.644
21
-133.399
0
LINE
8
BLACK
6
CONTINUOUS
10
89.644
20
-133.59
11
89.7392
21
-133.494
0
LINE
8
BLACK
6
CONTINUOUS
10
89.7392
20
-133.494
11
89.9297
21
-133.399
0
LINE
8
BLACK
6
CONTINUOUS
10
89.9297
20
-133.399
11
90.2154
21
-133.399
0
LINE
8
BLACK
6
CONTINUOUS
10
90.2154
20
-133.399
11
90.4059
21
-133.494
0
LINE
8
BLACK
6
CONTINUOUS
10
90.4059
20
-133.494
11
90.5011
21
-133.685
0
LINE
8
BLACK
6
CONTINUOUS
10
90.5011
20
-133.685
11
90.5011
21
-134.732
0
LINE
8
BLACK
6
CONTINUOUS
10
90.5011
20
-133.685
11
90.5964
21
-133.494
0
LINE
8
BLACK
6
CONTINUOUS
10
90.5964
20
-133.494
11
90.7868
21
-133.399
0
LINE
8
BLACK
6
CONTINUOUS
10
90.7868
20
-133.399
11
91.0725
21
-133.399
0
LINE
8
BLACK
6
CONTINUOUS
10
91.0725
20
-133.399
11
91.263
21
-133.494
0
LINE
8
BLACK
6
CONTINUOUS
10
91.263
20
-133.494
11
91.3583
21
-133.685
0
LINE
8
BLACK
6
CONTINUOUS
10
91.3583
20
-133.685
11
91.3583
21
-134.732
0
LINE
8
BLACK
6
CONTINUOUS
10
92.3106
20
-134.732
11
92.3106
21
-133.399
0
LINE
8
BLACK
6
CONTINUOUS
10
92.3106
20
-133.59
11
92.4059
21
-133.494
0
LINE
8
BLACK
6
CONTINUOUS
10
92.4059
20
-133.494
11
92.5964
21
-133.399
0
LINE
8
BLACK
6
CONTINUOUS
10
92.5964
20
-133.399
11
92.8821
21
-133.399
0
LINE
8
BLACK
6
CONTINUOUS
10
92.8821
20
-133.399
11
93.0725
21
-133.494
0
LINE
8
BLACK
6
CONTINUOUS
10
93.0725
20
-133.494
11
93.1678
21
-133.685
0
LINE
8
BLACK
6
CONTINUOUS
10
93.1678
20
-133.685
11
93.1678
21
-134.732
0
LINE
8
BLACK
6
CONTINUOUS
10
93.1678
20
-133.685
11
93.263
21
-133.494
0
LINE
8
BLACK
6
CONTINUOUS
10
93.263
20
-133.494
11
93.4535
21
-133.399
0
LINE
8
BLACK
6
CONTINUOUS
10
93.4535
20
-133.399
11
93.7392
21
-133.399
0
LINE
8
BLACK
6
CONTINUOUS
10
93.7392
20
-133.399
11
93.9297
21
-133.494
0
LINE
8
BLACK
6
CONTINUOUS
10
93.9297
20
-133.494
11
94.0249
21
-133.685
0
LINE
8
BLACK
6
CONTINUOUS
10
94.0249
20
-133.685
11
94.0249
21
-134.732
0
LINE
8
BLACK
6
CONTINUOUS
10
97.9297
20
-132.637
11
96.2154
21
-135.209
0
LINE
8
BLACK
6
CONTINUOUS
10
100.501
20
-132.732
11
100.692
21
-132.732
0
LINE
8
BLACK
6
CONTINUOUS
10
100.692
20
-132.732
11
100.882
21
-132.828
0
LINE
8
BLACK
6
CONTINUOUS
10
100.882
20
-132.828
11
100.977
21
-132.923
0
LINE
8
BLACK
6
CONTINUOUS
10
100.977
20
-132.923
11
101.073
21
-133.113
0
LINE
8
BLACK
6
CONTINUOUS
10
101.073
20
-133.113
11
101.168
21
-133.494
0
LINE
8
BLACK
6
CONTINUOUS
10
101.168
20
-133.494
11
101.168
21
-133.97
0
LINE
8
BLACK
6
CONTINUOUS
10
101.168
20
-133.97
11
101.073
21
-134.351
0
LINE
8
BLACK
6
CONTINUOUS
10
101.073
20
-134.351
11
100.977
21
-134.542
0
LINE
8
BLACK
6
CONTINUOUS
10
100.977
20
-134.542
11
100.882
21
-134.637
0
LINE
8
BLACK
6
CONTINUOUS
10
100.882
20
-134.637
11
100.692
21
-134.732
0
LINE
8
BLACK
6
CONTINUOUS
10
100.692
20
-134.732
11
100.501
21
-134.732
0
LINE
8
BLACK
6
CONTINUOUS
10
100.501
20
-134.732
11
100.311
21
-134.637
0
LINE
8
BLACK
6
CONTINUOUS
10
100.311
20
-134.637
11
100.215
21
-134.542
0
LINE
8
BLACK
6
CONTINUOUS
10
100.215
20
-134.542
11
100.12
21
-134.351
0
LINE
8
BLACK
6
CONTINUOUS
10
100.12
20
-134.351
11
100.025
21
-133.97
0
LINE
8
BLACK
6
CONTINUOUS
10
100.025
20
-133.97
11
100.025
21
-133.494
0
LINE
8
BLACK
6
CONTINUOUS
10
100.025
20
-133.494
11
100.12
21
-133.113
0
LINE
8
BLACK
6
CONTINUOUS
10
100.12
20
-133.113
11
100.215
21
-132.923
0
LINE
8
BLACK
6
CONTINUOUS
10
100.215
20
-132.923
11
100.311
21
-132.828
0
LINE
8
BLACK
6
CONTINUOUS
10
100.311
20
-132.828
11
100.501
21
-132.732
0
LINE
8
BLACK
6
CONTINUOUS
10
102.025
20
-134.542
11
102.12
21
-134.637
0
LINE
8
BLACK
6
CONTINUOUS
10
102.12
20
-134.637
11
102.025
21
-134.732
0
LINE
8
BLACK
6
CONTINUOUS
10
102.025
20
-134.732
11
101.93
21
-134.637
0
LINE
8
BLACK
6
CONTINUOUS
10
101.93
20
-134.637
11
102.025
21
-134.542
0
LINE
8
BLACK
6
CONTINUOUS
10
102.025
20
-134.542
11
102.025
21
-134.732
0
LINE
8
BLACK
6
CONTINUOUS
10
103.358
20
-132.732
11
103.549
21
-132.732
0
LINE
8
BLACK
6
CONTINUOUS
10
103.549
20
-132.732
11
103.739
21
-132.828
0
LINE
8
BLACK
6
CONTINUOUS
10
103.739
20
-132.828
11
103.834
21
-132.923
0
LINE
8
BLACK
6
CONTINUOUS
10
103.834
20
-132.923
11
103.93
21
-133.113
0
LINE
8
BLACK
6
CONTINUOUS
10
103.93
20
-133.113
11
104.025
21
-133.494
0
LINE
8
BLACK
6
CONTINUOUS
10
104.025
20
-133.494
11
104.025
21
-133.97
0
LINE
8
BLACK
6
CONTINUOUS
10
104.025
20
-133.97
11
103.93
21
-134.351
0
LINE
8
BLACK
6
CONTINUOUS
10
103.93
20
-134.351
11
103.834
21
-134.542
0
LINE
8
BLACK
6
CONTINUOUS
10
103.834
20
-134.542
11
103.739
21
-134.637
0
LINE
8
BLACK
6
CONTINUOUS
10
103.739
20
-134.637
11
103.549
21
-134.732
0
LINE
8
BLACK
6
CONTINUOUS
10
103.549
20
-134.732
11
103.358
21
-134.732
0
LINE
8
BLACK
6
CONTINUOUS
10
103.358
20
-134.732
11
103.168
21
-134.637
0
LINE
8
BLACK
6
CONTINUOUS
10
103.168
20
-134.637
11
103.073
21
-134.542
0
LINE
8
BLACK
6
CONTINUOUS
10
103.073
20
-134.542
11
102.977
21
-134.351
0
LINE
8
BLACK
6
CONTINUOUS
10
102.977
20
-134.351
11
102.882
21
-133.97
0
LINE
8
BLACK
6
CONTINUOUS
10
102.882
20
-133.97
11
102.882
21
-133.494
0
LINE
8
BLACK
6
CONTINUOUS
10
102.882
20
-133.494
11
102.977
21
-133.113
0
LINE
8
BLACK
6
CONTINUOUS
10
102.977
20
-133.113
11
103.073
21
-132.923
0
LINE
8
BLACK
6
CONTINUOUS
10
103.073
20
-132.923
11
103.168
21
-132.828
0
LINE
8
BLACK
6
CONTINUOUS
10
103.168
20
-132.828
11
103.358
21
-132.732
0
LINE
8
BLACK
6
CONTINUOUS
10
105.739
20
-133.399
11
105.739
21
-134.732
0
LINE
8
BLACK
6
CONTINUOUS
10
105.263
20
-132.637
11
104.787
21
-134.066
0
LINE
8
BLACK
6
CONTINUOUS
10
104.787
20
-134.066
11
106.025
21
-134.066
0
LINE
8
BLACK
6
CONTINUOUS
10
106.596
20
-132.732
11
107.93
21
-132.732
0
LINE
8
BLACK
6
CONTINUOUS
10
107.93
20
-132.732
11
107.073
21
-134.732
0
LINE
8
BLACK
6
CONTINUOUS
10
108.596
20
-132.923
11
108.692
21
-132.828
0
LINE
8
BLACK
6
CONTINUOUS
10
108.692
20
-132.828
11
108.882
21
-132.732
0
LINE
8
BLACK
6
CONTINUOUS
10
108.882
20
-132.732
11
109.358
21
-132.732
0
LINE
8
BLACK
6
CONTINUOUS
10
109.358
20
-132.732
11
109.549
21
-132.828
0
LINE
8
BLACK
6
CONTINUOUS
10
109.549
20
-132.828
11
109.644
21
-132.923
0
LINE
8
BLACK
6
CONTINUOUS
10
109.644
20
-132.923
11
109.739
21
-133.113
0
LINE
8
BLACK
6
CONTINUOUS
10
109.739
20
-133.113
11
109.739
21
-133.304
0
LINE
8
BLACK
6
CONTINUOUS
10
109.739
20
-133.304
11
109.644
21
-133.59
0
LINE
8
BLACK
6
CONTINUOUS
10
109.644
20
-133.59
11
108.501
21
-134.732
0
LINE
8
BLACK
6
CONTINUOUS
10
108.501
20
-134.732
11
109.739
21
-134.732
0
LINE
8
BLACK
6
CONTINUOUS
10
110.501
20
-132.732
11
110.501
21
-133.113
0
LINE
8
BLACK
6
CONTINUOUS
10
111.263
20
-132.732
11
111.263
21
-133.113
0
LINE
8
BLACK
6
CONTINUOUS
10
114.215
20
-135.494
11
114.12
21
-135.399
0
LINE
8
BLACK
6
CONTINUOUS
10
114.12
20
-135.399
11
113.93
21
-135.113
0
LINE
8
BLACK
6
CONTINUOUS
10
113.93
20
-135.113
11
113.834
21
-134.923
0
LINE
8
BLACK
6
CONTINUOUS
10
113.834
20
-134.923
11
113.739
21
-134.637
0
LINE
8
BLACK
6
CONTINUOUS
10
113.739
20
-134.637
11
113.644
21
-134.161
0
LINE
8
BLACK
6
CONTINUOUS
10
113.644
20
-134.161
11
113.644
21
-133.78
0
LINE
8
BLACK
6
CONTINUOUS
10
113.644
20
-133.78
11
113.739
21
-133.304
0
LINE
8
BLACK
6
CONTINUOUS
10
113.739
20
-133.304
11
113.834
21
-133.018
0
LINE
8
BLACK
6
CONTINUOUS
10
113.834
20
-133.018
11
113.93
21
-132.828
0
LINE
8
BLACK
6
CONTINUOUS
10
113.93
20
-132.828
11
114.12
21
-132.542
0
LINE
8
BLACK
6
CONTINUOUS
10
114.12
20
-132.542
11
114.215
21
-132.447
0
LINE
8
BLACK
6
CONTINUOUS
10
115.834
20
-133.399
11
115.834
21
-134.732
0
LINE
8
BLACK
6
CONTINUOUS
10
115.358
20
-132.637
11
114.882
21
-134.066
0
LINE
8
BLACK
6
CONTINUOUS
10
114.882
20
-134.066
11
116.12
21
-134.066
0
LINE
8
BLACK
6
CONTINUOUS
10
118.406
20
-134.732
11
118.406
21
-132.732
0
LINE
8
BLACK
6
CONTINUOUS
10
119.263
20
-134.732
11
119.263
21
-133.685
0
LINE
8
BLACK
6
CONTINUOUS
10
119.263
20
-133.685
11
119.168
21
-133.494
0
LINE
8
BLACK
6
CONTINUOUS
10
119.168
20
-133.494
11
118.977
21
-133.399
0
LINE
8
BLACK
6
CONTINUOUS
10
118.977
20
-133.399
11
118.692
21
-133.399
0
LINE
8
BLACK
6
CONTINUOUS
10
118.692
20
-133.399
11
118.501
21
-133.494
0
LINE
8
BLACK
6
CONTINUOUS
10
118.501
20
-133.494
11
118.406
21
-133.59
0
LINE
8
BLACK
6
CONTINUOUS
10
120.501
20
-134.732
11
120.311
21
-134.637
0
LINE
8
BLACK
6
CONTINUOUS
10
120.311
20
-134.637
11
120.215
21
-134.542
0
LINE
8
BLACK
6
CONTINUOUS
10
120.215
20
-134.542
11
120.12
21
-134.351
0
LINE
8
BLACK
6
CONTINUOUS
10
120.12
20
-134.351
11
120.12
21
-133.78
0
LINE
8
BLACK
6
CONTINUOUS
10
120.12
20
-133.78
11
120.215
21
-133.59
0
LINE
8
BLACK
6
CONTINUOUS
10
120.215
20
-133.59
11
120.311
21
-133.494
0
LINE
8
BLACK
6
CONTINUOUS
10
120.311
20
-133.494
11
120.501
21
-133.399
0
LINE
8
BLACK
6
CONTINUOUS
10
120.501
20
-133.399
11
120.787
21
-133.399
0
LINE
8
BLACK
6
CONTINUOUS
10
120.787
20
-133.399
11
120.977
21
-133.494
0
LINE
8
BLACK
6
CONTINUOUS
10
120.977
20
-133.494
11
121.073
21
-133.59
0
LINE
8
BLACK
6
CONTINUOUS
10
121.073
20
-133.59
11
121.168
21
-133.78
0
LINE
8
BLACK
6
CONTINUOUS
10
121.168
20
-133.78
11
121.168
21
-134.351
0
LINE
8
BLACK
6
CONTINUOUS
10
121.168
20
-134.351
11
121.073
21
-134.542
0
LINE
8
BLACK
6
CONTINUOUS
10
121.073
20
-134.542
11
120.977
21
-134.637
0
LINE
8
BLACK
6
CONTINUOUS
10
120.977
20
-134.637
11
120.787
21
-134.732
0
LINE
8
BLACK
6
CONTINUOUS
10
120.787
20
-134.732
11
120.501
21
-134.732
0
LINE
8
BLACK
6
CONTINUOUS
10
122.311
20
-134.732
11
122.12
21
-134.637
0
LINE
8
BLACK
6
CONTINUOUS
10
122.12
20
-134.637
11
122.025
21
-134.447
0
LINE
8
BLACK
6
CONTINUOUS
10
122.025
20
-134.447
11
122.025
21
-132.732
0
LINE
8
BLACK
6
CONTINUOUS
10
123.834
20
-134.637
11
123.644
21
-134.732
0
LINE
8
BLACK
6
CONTINUOUS
10
123.644
20
-134.732
11
123.263
21
-134.732
0
LINE
8
BLACK
6
CONTINUOUS
10
123.263
20
-134.732
11
123.073
21
-134.637
0
LINE
8
BLACK
6
CONTINUOUS
10
123.073
20
-134.637
11
122.977
21
-134.447
0
LINE
8
BLACK
6
CONTINUOUS
10
122.977
20
-134.447
11
122.977
21
-133.685
0
LINE
8
BLACK
6
CONTINUOUS
10
122.977
20
-133.685
11
123.073
21
-133.494
0
LINE
8
BLACK
6
CONTINUOUS
10
123.073
20
-133.494
11
123.263
21
-133.399
0
LINE
8
BLACK
6
CONTINUOUS
10
123.263
20
-133.399
11
123.644
21
-133.399
0
LINE
8
BLACK
6
CONTINUOUS
10
123.644
20
-133.399
11
123.834
21
-133.494
0
LINE
8
BLACK
6
CONTINUOUS
10
123.834
20
-133.494
11
123.93
21
-133.685
0
LINE
8
BLACK
6
CONTINUOUS
10
123.93
20
-133.685
11
123.93
21
-133.875
0
LINE
8
BLACK
6
CONTINUOUS
10
123.93
20
-133.875
11
122.977
21
-134.066
0
LINE
8
BLACK
6
CONTINUOUS
10
124.692
20
-134.637
11
124.882
21
-134.732
0
LINE
8
BLACK
6
CONTINUOUS
10
124.882
20
-134.732
11
125.263
21
-134.732
0
LINE
8
BLACK
6
CONTINUOUS
10
125.263
20
-134.732
11
125.453
21
-134.637
0
LINE
8
BLACK
6
CONTINUOUS
10
125.453
20
-134.637
11
125.549
21
-134.447
0
LINE
8
BLACK
6
CONTINUOUS
10
125.549
20
-134.447
11
125.549
21
-134.351
0
LINE
8
BLACK
6
CONTINUOUS
10
125.549
20
-134.351
11
125.453
21
-134.161
0
LINE
8
BLACK
6
CONTINUOUS
10
125.453
20
-134.161
11
125.263
21
-134.066
0
LINE
8
BLACK
6
CONTINUOUS
10
125.263
20
-134.066
11
124.977
21
-134.066
0
LINE
8
BLACK
6
CONTINUOUS
10
124.977
20
-134.066
11
124.787
21
-133.97
0
LINE
8
BLACK
6
CONTINUOUS
10
124.787
20
-133.97
11
124.692
21
-133.78
0
LINE
8
BLACK
6
CONTINUOUS
10
124.692
20
-133.78
11
124.692
21
-133.685
0
LINE
8
BLACK
6
CONTINUOUS
10
124.692
20
-133.685
11
124.787
21
-133.494
0
LINE
8
BLACK
6
CONTINUOUS
10
124.787
20
-133.494
11
124.977
21
-133.399
0
LINE
8
BLACK
6
CONTINUOUS
10
124.977
20
-133.399
11
125.263
21
-133.399
0
LINE
8
BLACK
6
CONTINUOUS
10
125.263
20
-133.399
11
125.453
21
-133.494
0
LINE
8
BLACK
6
CONTINUOUS
10
126.215
20
-135.494
11
126.311
21
-135.399
0
LINE
8
BLACK
6
CONTINUOUS
10
126.311
20
-135.399
11
126.501
21
-135.113
0
LINE
8
BLACK
6
CONTINUOUS
10
126.501
20
-135.113
11
126.596
21
-134.923
0
LINE
8
BLACK
6
CONTINUOUS
10
126.596
20
-134.923
11
126.692
21
-134.637
0
LINE
8
BLACK
6
CONTINUOUS
10
126.692
20
-134.637
11
126.787
21
-134.161
0
LINE
8
BLACK
6
CONTINUOUS
10
126.787
20
-134.161
11
126.787
21
-133.78
0
LINE
8
BLACK
6
CONTINUOUS
10
126.787
20
-133.78
11
126.692
21
-133.304
0
LINE
8
BLACK
6
CONTINUOUS
10
126.692
20
-133.304
11
126.596
21
-133.018
0
LINE
8
BLACK
6
CONTINUOUS
10
126.596
20
-133.018
11
126.501
21
-132.828
0
LINE
8
BLACK
6
CONTINUOUS
10
126.501
20
-132.828
11
126.311
21
-132.542
0
LINE
8
BLACK
6
CONTINUOUS
10
126.311
20
-132.542
11
126.215
21
-132.447
  0
ENDSEC
  0
EOF
