G04 #@! TF.GenerationSoftware,KiCad,Pcbnew,(6.0.7-1)-1*
G04 #@! TF.CreationDate,2022-09-20T05:51:33+10:00*
G04 #@! TF.ProjectId,Pi GPS Serial,50692047-5053-4205-9365-7269616c2e6b,rev?*
G04 #@! TF.SameCoordinates,Original*
G04 #@! TF.FileFunction,Copper,L1,Top*
G04 #@! TF.FilePolarity,Positive*
%FSLAX46Y46*%
G04 Gerber Fmt 4.6, Leading zero omitted, Abs format (unit mm)*
G04 Created by KiCad (PCBNEW (6.0.7-1)-1) date 2022-09-20 05:51:33*
%MOMM*%
%LPD*%
G01*
G04 APERTURE LIST*
G04 Aperture macros list*
%AMRoundRect*
0 Rectangle with rounded corners*
0 $1 Rounding radius*
0 $2 $3 $4 $5 $6 $7 $8 $9 X,Y pos of 4 corners*
0 Add a 4 corners polygon primitive as box body*
4,1,4,$2,$3,$4,$5,$6,$7,$8,$9,$2,$3,0*
0 Add four circle primitives for the rounded corners*
1,1,$1+$1,$2,$3*
1,1,$1+$1,$4,$5*
1,1,$1+$1,$6,$7*
1,1,$1+$1,$8,$9*
0 Add four rect primitives between the rounded corners*
20,1,$1+$1,$2,$3,$4,$5,0*
20,1,$1+$1,$4,$5,$6,$7,0*
20,1,$1+$1,$6,$7,$8,$9,0*
20,1,$1+$1,$8,$9,$2,$3,0*%
G04 Aperture macros list end*
G04 #@! TA.AperFunction,Profile*
%ADD10C,0.100000*%
G04 #@! TD*
G04 #@! TA.AperFunction,WasherPad*
%ADD11C,3.000000*%
G04 #@! TD*
G04 #@! TA.AperFunction,ComponentPad*
%ADD12C,1.600000*%
G04 #@! TD*
G04 #@! TA.AperFunction,ComponentPad*
%ADD13R,1.600000X1.600000*%
G04 #@! TD*
G04 #@! TA.AperFunction,ComponentPad*
%ADD14O,1.600000X1.600000*%
G04 #@! TD*
G04 #@! TA.AperFunction,ComponentPad*
%ADD15RoundRect,0.250000X-0.620000X-0.850000X0.620000X-0.850000X0.620000X0.850000X-0.620000X0.850000X0*%
G04 #@! TD*
G04 #@! TA.AperFunction,ComponentPad*
%ADD16O,1.740000X2.200000*%
G04 #@! TD*
G04 #@! TA.AperFunction,ComponentPad*
%ADD17RoundRect,0.250000X-0.620000X-0.845000X0.620000X-0.845000X0.620000X0.845000X-0.620000X0.845000X0*%
G04 #@! TD*
G04 #@! TA.AperFunction,ComponentPad*
%ADD18O,1.740000X2.190000*%
G04 #@! TD*
G04 #@! TA.AperFunction,ComponentPad*
%ADD19R,1.700000X1.700000*%
G04 #@! TD*
G04 #@! TA.AperFunction,ComponentPad*
%ADD20O,1.700000X1.700000*%
G04 #@! TD*
G04 #@! TA.AperFunction,ViaPad*
%ADD21C,0.400000*%
G04 #@! TD*
G04 #@! TA.AperFunction,Conductor*
%ADD22C,0.150000*%
G04 #@! TD*
G04 #@! TA.AperFunction,Conductor*
%ADD23C,0.250000*%
G04 #@! TD*
G04 APERTURE END LIST*
D10*
X140546356Y-116817556D02*
G75*
G03*
X143546351Y-113822847I44J2999956D01*
G01*
X78546389Y-113817611D02*
G75*
G03*
X81546356Y-116817611I3000011J11D01*
G01*
X143546351Y-113822847D02*
X143546356Y-63817611D01*
X81546356Y-116817611D02*
X140546356Y-116817611D01*
X78546356Y-63817611D02*
X78546356Y-113817611D01*
X140546356Y-60817611D02*
X81546356Y-60817611D01*
X143546389Y-63817611D02*
G75*
G03*
X140546356Y-60817611I-2999989J11D01*
G01*
X81546356Y-60817556D02*
G75*
G03*
X78546356Y-63817611I44J-3000044D01*
G01*
D11*
X82040000Y-64310000D03*
X140040000Y-64330000D03*
X82040000Y-113320000D03*
X140030000Y-113310000D03*
D12*
X93472000Y-87020400D03*
X98472000Y-87020400D03*
D13*
X101671000Y-87014800D03*
D14*
X101671000Y-89554800D03*
X101671000Y-92094800D03*
X101671000Y-94634800D03*
X101671000Y-97174800D03*
X101671000Y-99714800D03*
X101671000Y-102254800D03*
X101671000Y-104794800D03*
X109291000Y-104794800D03*
X109291000Y-102254800D03*
X109291000Y-99714800D03*
X109291000Y-97174800D03*
X109291000Y-94634800D03*
X109291000Y-92094800D03*
X109291000Y-89554800D03*
X109291000Y-87014800D03*
D15*
X87579200Y-100076000D03*
D16*
X90119200Y-100076000D03*
D15*
X86969600Y-80060800D03*
D16*
X89509600Y-80060800D03*
D12*
X93370400Y-92710000D03*
X98370400Y-92710000D03*
D17*
X121666000Y-108732000D03*
D18*
X124206000Y-108732000D03*
X126746000Y-108732000D03*
X129286000Y-108732000D03*
D17*
X123444000Y-81300000D03*
D18*
X125984000Y-81300000D03*
X128524000Y-81300000D03*
D17*
X119253000Y-97048000D03*
D18*
X121793000Y-97048000D03*
X124333000Y-97048000D03*
X126873000Y-97048000D03*
X129413000Y-97048000D03*
X131953000Y-97048000D03*
D19*
X86920000Y-65590000D03*
D20*
X86920000Y-63050000D03*
X89460000Y-65590000D03*
X89460000Y-63050000D03*
X92000000Y-65590000D03*
X92000000Y-63050000D03*
X94540000Y-65590000D03*
X94540000Y-63050000D03*
X97080000Y-65590000D03*
X97080000Y-63050000D03*
X99620000Y-65590000D03*
X99620000Y-63050000D03*
X102160000Y-65590000D03*
X102160000Y-63050000D03*
X104700000Y-65590000D03*
X104700000Y-63050000D03*
X107240000Y-65590000D03*
X107240000Y-63050000D03*
X109780000Y-65590000D03*
X109780000Y-63050000D03*
X112320000Y-65590000D03*
X112320000Y-63050000D03*
X114860000Y-65590000D03*
X114860000Y-63050000D03*
X117400000Y-65590000D03*
X117400000Y-63050000D03*
X119940000Y-65590000D03*
X119940000Y-63050000D03*
X122480000Y-65590000D03*
X122480000Y-63050000D03*
X125020000Y-65590000D03*
X125020000Y-63050000D03*
X127560000Y-65590000D03*
X127560000Y-63050000D03*
X130100000Y-65590000D03*
X130100000Y-63050000D03*
X132640000Y-65590000D03*
X132640000Y-63050000D03*
X135180000Y-65590000D03*
X135180000Y-63050000D03*
D21*
X107761000Y-83003000D03*
D22*
X104405700Y-95904800D02*
X108215700Y-92094800D01*
X91750400Y-95904800D02*
X104405700Y-95904800D01*
X87579200Y-100076000D02*
X91750400Y-95904800D01*
X109291000Y-92094800D02*
X108215700Y-92094800D01*
X129674500Y-95416200D02*
X129413000Y-95677700D01*
X129674500Y-80594600D02*
X129674500Y-95416200D01*
X115795200Y-66715300D02*
X129674500Y-80594600D01*
X111840200Y-66715300D02*
X115795200Y-66715300D01*
X110905300Y-65780400D02*
X111840200Y-66715300D01*
X110905300Y-65590000D02*
X110905300Y-65780400D01*
X109780000Y-65590000D02*
X110905300Y-65590000D01*
X129413000Y-97048000D02*
X129413000Y-95677700D01*
X127378700Y-80798900D02*
X127378700Y-81300000D01*
X125977200Y-79397400D02*
X127378700Y-80798900D01*
X114271400Y-79397400D02*
X125977200Y-79397400D01*
X100745300Y-65871300D02*
X114271400Y-79397400D01*
X100745300Y-65590000D02*
X100745300Y-65871300D01*
X99620000Y-65590000D02*
X100745300Y-65590000D01*
X128524000Y-81300000D02*
X127378700Y-81300000D01*
X90585300Y-65827300D02*
X107761000Y-83003000D01*
X90585300Y-65590000D02*
X90585300Y-65827300D01*
X89460000Y-65590000D02*
X90585300Y-65590000D01*
X95295200Y-94634800D02*
X101671000Y-94634800D01*
X93370400Y-92710000D02*
X95295200Y-94634800D01*
X94571200Y-85921200D02*
X93472000Y-87020400D01*
X99502100Y-85921200D02*
X94571200Y-85921200D01*
X100595700Y-87014800D02*
X99502100Y-85921200D01*
X101671000Y-87014800D02*
X100595700Y-87014800D01*
D23*
X119253000Y-106319000D02*
X121666000Y-108732000D01*
X119253000Y-97048000D02*
X119253000Y-106319000D01*
X117729200Y-87014800D02*
X109291000Y-87014800D01*
X123444000Y-81300000D02*
X117729200Y-87014800D01*
X89460000Y-63050000D02*
X88113700Y-63050000D01*
X88113700Y-63050000D02*
X86920000Y-63050000D01*
X109291000Y-87014800D02*
X108165700Y-87014800D01*
X99734100Y-78583200D02*
X108165700Y-87014800D01*
X88113700Y-78583200D02*
X99734100Y-78583200D01*
X88113700Y-63050000D02*
X88113700Y-78583200D01*
X88113700Y-78916700D02*
X86969600Y-80060800D01*
X88113700Y-78583200D02*
X88113700Y-78916700D01*
X121793000Y-97048000D02*
X120597700Y-97048000D01*
X120597700Y-92423300D02*
X117729200Y-89554800D01*
X120597700Y-97048000D02*
X120597700Y-92423300D01*
X124788700Y-82495300D02*
X117729200Y-89554800D01*
X124788700Y-81300000D02*
X124788700Y-82495300D01*
X117729200Y-89554800D02*
X109291000Y-89554800D01*
X125984000Y-81300000D02*
X124788700Y-81300000D01*
X123010700Y-97070400D02*
X122988300Y-97048000D01*
X123010700Y-108732000D02*
X123010700Y-97070400D01*
X121793000Y-97048000D02*
X122988300Y-97048000D01*
X124206000Y-108732000D02*
X123010700Y-108732000D01*
X103966300Y-61831400D02*
X102747700Y-63050000D01*
X107753400Y-61831400D02*
X103966300Y-61831400D01*
X108604700Y-62682700D02*
X107753400Y-61831400D01*
X108604700Y-63050000D02*
X108604700Y-62682700D01*
X109780000Y-63050000D02*
X108604700Y-63050000D01*
X110955300Y-63417400D02*
X110955300Y-63050000D01*
X111763200Y-64225300D02*
X110955300Y-63417400D01*
X115227400Y-64225300D02*
X111763200Y-64225300D01*
X116224700Y-65222600D02*
X115227400Y-64225300D01*
X116224700Y-65590000D02*
X116224700Y-65222600D01*
X117400000Y-65590000D02*
X116224700Y-65590000D01*
X109780000Y-63050000D02*
X110955300Y-63050000D01*
X128735300Y-63417400D02*
X128735300Y-63050000D01*
X129543200Y-64225300D02*
X128735300Y-63417400D01*
X133007400Y-64225300D02*
X129543200Y-64225300D01*
X134004700Y-65222600D02*
X133007400Y-64225300D01*
X134004700Y-65590000D02*
X134004700Y-65222600D01*
X135180000Y-65590000D02*
X134004700Y-65590000D01*
X127560000Y-63050000D02*
X128735300Y-63050000D01*
X102160000Y-63050000D02*
X102453900Y-63050000D01*
X102453900Y-63050000D02*
X102747700Y-63050000D01*
X98255300Y-65222600D02*
X98255300Y-65590000D01*
X99063200Y-64414700D02*
X98255300Y-65222600D01*
X101089200Y-64414700D02*
X99063200Y-64414700D01*
X102453900Y-63050000D02*
X101089200Y-64414700D01*
X97080000Y-65590000D02*
X97667700Y-65590000D01*
X97667700Y-65590000D02*
X98255300Y-65590000D01*
X93175300Y-63417400D02*
X93175300Y-63050000D01*
X93983200Y-64225300D02*
X93175300Y-63417400D01*
X96303000Y-64225300D02*
X93983200Y-64225300D01*
X97667700Y-65590000D02*
X96303000Y-64225300D01*
X92000000Y-63050000D02*
X93175300Y-63050000D01*
X118575300Y-65222600D02*
X118575300Y-65590000D01*
X119383200Y-64414700D02*
X118575300Y-65222600D01*
X120307400Y-64414700D02*
X119383200Y-64414700D01*
X121304700Y-63417400D02*
X120307400Y-64414700D01*
X121304700Y-63050000D02*
X121304700Y-63417400D01*
X122480000Y-63050000D02*
X121304700Y-63050000D01*
X117400000Y-65590000D02*
X118575300Y-65590000D01*
M02*
