M48
; DRILL file {KiCad (5.1.5-0-10_14)} date Sunday, 24 October 2021 at 01:15:37 pm
; FORMAT={-:-/ absolute / metric / decimal}
; #@! TF.CreationDate,2021-10-24T13:15:37+10:00
; #@! TF.GenerationSoftware,Kicad,Pcbnew,(5.1.5-0-10_14)
; #@! TF.FileFunction,Plated,1,2,PTH
FMAT,2
METRIC
T1C0.800
T2C1.200
%
G90
G05
T1
X67.056Y-97.663
X67.056Y-105.283
X70.421Y-97.663
X70.421Y-105.283
X73.787Y-97.663
X73.787Y-105.283
X77.153Y-97.663
X77.153Y-105.283
X63.691Y-97.663
X63.691Y-105.283
T2
X81.153Y-98.806
X83.693Y-98.806
X86.233Y-98.806
X62.611Y-89.471
X65.151Y-89.471
X65.659Y-116.84
X68.199Y-116.84
X70.739Y-116.84
X73.279Y-116.84
X75.819Y-116.84
X78.359Y-116.84
X74.739Y-89.471
X77.279Y-89.471
X55.118Y-98.806
X57.658Y-98.806
X55.118Y-108.14
X57.658Y-108.14
T0
M30
