  0
SECTION
  2
HEADER
  9
$ANGBASE
  50
0.0
  9
$ANGDIR
  70
1
  9
$MEASUREMENT
  70
1
  0
ENDSEC
  0
SECTION
  2
TABLES
  0
TABLE
  2
LTYPE
  70
4
  0
LTYPE
  5
40F
  2
CONTINUOUS
  70
0
  3
Solid line
  72
65
  73
0
  40
0.0
  0
LTYPE
  5
410
  2
DASHDOT
 70
0
  3
Dash Dot ____ _ ____ _
 72
65
 73
4
 40
2.0
 49
1.25
 49
-0.25
 49
0.25
 49
-0.25
  0
LTYPE
  5
411
  2
DASHED
 70
0
  3
Dashed __ __ __ __ __
 72
65
 73
2
 40
0.75
 49
0.5
 49
-0.25
  0
LTYPE
  5
43B
  2
DOTTED
 70
0
  3
Dotted .  .  .  .
 72
65
 73
2
 40
0.2
 49
0.0
 49
-0.2
  0
ENDTAB
  0
TABLE
  2
STYLE
  70
4
  0
STYLE
  2
KICAD
  70
0
  40
0
  41
1
  42
1
  50
0
  71
0
  3
isocp.shx
  0
STYLE
  2
KICADB
  70
0
  40
0
  41
1
  42
1
  50
0
  71
0
  3
isocp.shx
  0
STYLE
  2
KICADI
  70
0
  40
0
  41
1
  42
1
  50
15
  71
0
  3
isocp.shx
  0
STYLE
  2
KICADBI
  70
0
  40
0
  41
1
  42
1
  50
15
  71
0
  3
isocp.shx
  0
ENDTAB
  0
TABLE
  2
LAYER
  70
1
  0
LAYER
  2
BLACK
  70
0
  62
7
  6
CONTINUOUS
  0
ENDTAB
  0
ENDSEC
  0
SECTION
  2
ENTITIES
0
LINE
8
BLACK
6
CONTINUOUS
10
113.03
20
-142.24
11
113.03
21
-44.45
0
LINE
8
BLACK
6
CONTINUOUS
10
210.82
20
-142.24
11
113.03
21
-142.24
0
LINE
8
BLACK
6
CONTINUOUS
10
210.82
20
-44.45
11
210.82
21
-142.24
0
LINE
8
BLACK
6
CONTINUOUS
10
113.03
20
-44.45
11
210.82
21
-44.45
0
LINE
8
BLACK
6
CONTINUOUS
10
115.494
20
-136.703
11
118.694
21
-139.903
0
LINE
8
BLACK
6
CONTINUOUS
10
118.694
20
-136.703
11
115.494
21
-139.903
0
LINE
8
BLACK
6
CONTINUOUS
10
160.494
20
-136.703
11
163.694
21
-139.903
0
LINE
8
BLACK
6
CONTINUOUS
10
163.694
20
-136.703
11
160.494
21
-139.903
0
LINE
8
BLACK
6
CONTINUOUS
10
160.494
20
-46.703
11
163.694
21
-49.903
0
LINE
8
BLACK
6
CONTINUOUS
10
163.694
20
-46.703
11
160.494
21
-49.903
0
LINE
8
BLACK
6
CONTINUOUS
10
115.494
20
-46.703
11
118.694
21
-49.903
0
LINE
8
BLACK
6
CONTINUOUS
10
118.694
20
-46.703
11
115.494
21
-49.903
0
LINE
8
BLACK
6
CONTINUOUS
10
205.494
20
-46.703
11
208.694
21
-49.903
0
LINE
8
BLACK
6
CONTINUOUS
10
208.694
20
-46.703
11
205.494
21
-49.903
0
LINE
8
BLACK
6
CONTINUOUS
10
205.494
20
-136.703
11
208.694
21
-139.903
0
LINE
8
BLACK
6
CONTINUOUS
10
208.694
20
-136.703
11
205.494
21
-139.903
0
LINE
8
BLACK
6
CONTINUOUS
10
115.869
20
-146.922
11
115.869
21
-143.922
0
LINE
8
BLACK
6
CONTINUOUS
10
115.869
20
-143.922
11
116.584
21
-143.922
0
LINE
8
BLACK
6
CONTINUOUS
10
116.584
20
-143.922
11
117.012
21
-144.065
0
LINE
8
BLACK
6
CONTINUOUS
10
117.012
20
-144.065
11
117.298
21
-144.351
0
LINE
8
BLACK
6
CONTINUOUS
10
117.298
20
-144.351
11
117.441
21
-144.636
0
LINE
8
BLACK
6
CONTINUOUS
10
117.441
20
-144.636
11
117.584
21
-145.208
0
LINE
8
BLACK
6
CONTINUOUS
10
117.584
20
-145.208
11
117.584
21
-145.636
0
LINE
8
BLACK
6
CONTINUOUS
10
117.584
20
-145.636
11
117.441
21
-146.208
0
LINE
8
BLACK
6
CONTINUOUS
10
117.441
20
-146.208
11
117.298
21
-146.494
0
LINE
8
BLACK
6
CONTINUOUS
10
117.298
20
-146.494
11
117.012
21
-146.779
0
LINE
8
BLACK
6
CONTINUOUS
10
117.012
20
-146.779
11
116.584
21
-146.922
0
LINE
8
BLACK
6
CONTINUOUS
10
116.584
20
-146.922
11
115.869
21
-146.922
0
LINE
8
BLACK
6
CONTINUOUS
10
118.869
20
-146.922
11
118.869
21
-144.922
0
LINE
8
BLACK
6
CONTINUOUS
10
118.869
20
-145.494
11
119.012
21
-145.208
0
LINE
8
BLACK
6
CONTINUOUS
10
119.012
20
-145.208
11
119.155
21
-145.065
0
LINE
8
BLACK
6
CONTINUOUS
10
119.155
20
-145.065
11
119.441
21
-144.922
0
LINE
8
BLACK
6
CONTINUOUS
10
119.441
20
-144.922
11
119.726
21
-144.922
0
LINE
8
BLACK
6
CONTINUOUS
10
120.726
20
-146.922
11
120.726
21
-144.922
0
LINE
8
BLACK
6
CONTINUOUS
10
120.726
20
-143.922
11
120.584
21
-144.065
0
LINE
8
BLACK
6
CONTINUOUS
10
120.584
20
-144.065
11
120.726
21
-144.208
0
LINE
8
BLACK
6
CONTINUOUS
10
120.726
20
-144.208
11
120.869
21
-144.065
0
LINE
8
BLACK
6
CONTINUOUS
10
120.869
20
-144.065
11
120.726
21
-143.922
0
LINE
8
BLACK
6
CONTINUOUS
10
120.726
20
-143.922
11
120.726
21
-144.208
0
LINE
8
BLACK
6
CONTINUOUS
10
122.584
20
-146.922
11
122.298
21
-146.779
0
LINE
8
BLACK
6
CONTINUOUS
10
122.298
20
-146.779
11
122.155
21
-146.494
0
LINE
8
BLACK
6
CONTINUOUS
10
122.155
20
-146.494
11
122.155
21
-143.922
0
LINE
8
BLACK
6
CONTINUOUS
10
124.155
20
-146.922
11
123.869
21
-146.779
0
LINE
8
BLACK
6
CONTINUOUS
10
123.869
20
-146.779
11
123.726
21
-146.494
0
LINE
8
BLACK
6
CONTINUOUS
10
123.726
20
-146.494
11
123.726
21
-143.922
0
LINE
8
BLACK
6
CONTINUOUS
10
127.584
20
-146.922
11
127.584
21
-143.922
0
LINE
8
BLACK
6
CONTINUOUS
10
127.584
20
-143.922
11
128.584
21
-146.065
0
LINE
8
BLACK
6
CONTINUOUS
10
128.584
20
-146.065
11
129.584
21
-143.922
0
LINE
8
BLACK
6
CONTINUOUS
10
129.584
20
-143.922
11
129.584
21
-146.922
0
LINE
8
BLACK
6
CONTINUOUS
10
132.298
20
-146.922
11
132.298
21
-145.351
0
LINE
8
BLACK
6
CONTINUOUS
10
132.298
20
-145.351
11
132.155
21
-145.065
0
LINE
8
BLACK
6
CONTINUOUS
10
132.155
20
-145.065
11
131.869
21
-144.922
0
LINE
8
BLACK
6
CONTINUOUS
10
131.869
20
-144.922
11
131.298
21
-144.922
0
LINE
8
BLACK
6
CONTINUOUS
10
131.298
20
-144.922
11
131.012
21
-145.065
0
LINE
8
BLACK
6
CONTINUOUS
10
132.298
20
-146.779
11
132.012
21
-146.922
0
LINE
8
BLACK
6
CONTINUOUS
10
132.012
20
-146.922
11
131.298
21
-146.922
0
LINE
8
BLACK
6
CONTINUOUS
10
131.298
20
-146.922
11
131.012
21
-146.779
0
LINE
8
BLACK
6
CONTINUOUS
10
131.012
20
-146.779
11
130.869
21
-146.494
0
LINE
8
BLACK
6
CONTINUOUS
10
130.869
20
-146.494
11
130.869
21
-146.208
0
LINE
8
BLACK
6
CONTINUOUS
10
130.869
20
-146.208
11
131.012
21
-145.922
0
LINE
8
BLACK
6
CONTINUOUS
10
131.012
20
-145.922
11
131.298
21
-145.779
0
LINE
8
BLACK
6
CONTINUOUS
10
131.298
20
-145.779
11
132.012
21
-145.779
0
LINE
8
BLACK
6
CONTINUOUS
10
132.012
20
-145.779
11
132.298
21
-145.636
0
LINE
8
BLACK
6
CONTINUOUS
10
133.726
20
-144.922
11
133.726
21
-147.922
0
LINE
8
BLACK
6
CONTINUOUS
10
133.726
20
-145.065
11
134.012
21
-144.922
0
LINE
8
BLACK
6
CONTINUOUS
10
134.012
20
-144.922
11
134.584
21
-144.922
0
LINE
8
BLACK
6
CONTINUOUS
10
134.584
20
-144.922
11
134.869
21
-145.065
0
LINE
8
BLACK
6
CONTINUOUS
10
134.869
20
-145.065
11
135.012
21
-145.208
0
LINE
8
BLACK
6
CONTINUOUS
10
135.012
20
-145.208
11
135.155
21
-145.494
0
LINE
8
BLACK
6
CONTINUOUS
10
135.155
20
-145.494
11
135.155
21
-146.351
0
LINE
8
BLACK
6
CONTINUOUS
10
135.155
20
-146.351
11
135.012
21
-146.636
0
LINE
8
BLACK
6
CONTINUOUS
10
135.012
20
-146.636
11
134.869
21
-146.779
0
LINE
8
BLACK
6
CONTINUOUS
10
134.869
20
-146.779
11
134.584
21
-146.922
0
LINE
8
BLACK
6
CONTINUOUS
10
134.584
20
-146.922
11
134.012
21
-146.922
0
LINE
8
BLACK
6
CONTINUOUS
10
134.012
20
-146.922
11
133.726
21
-146.779
0
LINE
8
BLACK
6
CONTINUOUS
10
136.441
20
-146.636
11
136.584
21
-146.779
0
LINE
8
BLACK
6
CONTINUOUS
10
136.584
20
-146.779
11
136.441
21
-146.922
0
LINE
8
BLACK
6
CONTINUOUS
10
136.441
20
-146.922
11
136.298
21
-146.779
0
LINE
8
BLACK
6
CONTINUOUS
10
136.298
20
-146.779
11
136.441
21
-146.636
0
LINE
8
BLACK
6
CONTINUOUS
10
136.441
20
-146.636
11
136.441
21
-146.922
0
LINE
8
BLACK
6
CONTINUOUS
10
136.441
20
-145.065
11
136.584
21
-145.208
0
LINE
8
BLACK
6
CONTINUOUS
10
136.584
20
-145.208
11
136.441
21
-145.351
0
LINE
8
BLACK
6
CONTINUOUS
10
136.441
20
-145.351
11
136.298
21
-145.208
0
LINE
8
BLACK
6
CONTINUOUS
10
136.298
20
-145.208
11
136.441
21
-145.065
0
LINE
8
BLACK
6
CONTINUOUS
10
136.441
20
-145.065
11
136.441
21
-145.351
0
LINE
8
BLACK
6
CONTINUOUS
10
109.805
20
-150.265
11
113.005
21
-153.465
0
LINE
8
BLACK
6
CONTINUOUS
10
113.005
20
-150.265
11
109.805
21
-153.465
0
LINE
8
BLACK
6
CONTINUOUS
10
115.584
20
-150.222
11
117.441
21
-150.222
0
LINE
8
BLACK
6
CONTINUOUS
10
117.441
20
-150.222
11
116.441
21
-151.365
0
LINE
8
BLACK
6
CONTINUOUS
10
116.441
20
-151.365
11
116.869
21
-151.365
0
LINE
8
BLACK
6
CONTINUOUS
10
116.869
20
-151.365
11
117.155
21
-151.508
0
LINE
8
BLACK
6
CONTINUOUS
10
117.155
20
-151.508
11
117.298
21
-151.651
0
LINE
8
BLACK
6
CONTINUOUS
10
117.298
20
-151.651
11
117.441
21
-151.936
0
LINE
8
BLACK
6
CONTINUOUS
10
117.441
20
-151.936
11
117.441
21
-152.651
0
LINE
8
BLACK
6
CONTINUOUS
10
117.441
20
-152.651
11
117.298
21
-152.936
0
LINE
8
BLACK
6
CONTINUOUS
10
117.298
20
-152.936
11
117.155
21
-153.079
0
LINE
8
BLACK
6
CONTINUOUS
10
117.155
20
-153.079
11
116.869
21
-153.222
0
LINE
8
BLACK
6
CONTINUOUS
10
116.869
20
-153.222
11
116.012
21
-153.222
0
LINE
8
BLACK
6
CONTINUOUS
10
116.012
20
-153.222
11
115.726
21
-153.079
0
LINE
8
BLACK
6
CONTINUOUS
10
115.726
20
-153.079
11
115.584
21
-152.936
0
LINE
8
BLACK
6
CONTINUOUS
10
118.726
20
-152.936
11
118.869
21
-153.079
0
LINE
8
BLACK
6
CONTINUOUS
10
118.869
20
-153.079
11
118.726
21
-153.222
0
LINE
8
BLACK
6
CONTINUOUS
10
118.726
20
-153.222
11
118.584
21
-153.079
0
LINE
8
BLACK
6
CONTINUOUS
10
118.584
20
-153.079
11
118.726
21
-152.936
0
LINE
8
BLACK
6
CONTINUOUS
10
118.726
20
-152.936
11
118.726
21
-153.222
0
LINE
8
BLACK
6
CONTINUOUS
10
120.012
20
-150.508
11
120.155
21
-150.365
0
LINE
8
BLACK
6
CONTINUOUS
10
120.155
20
-150.365
11
120.441
21
-150.222
0
LINE
8
BLACK
6
CONTINUOUS
10
120.441
20
-150.222
11
121.155
21
-150.222
0
LINE
8
BLACK
6
CONTINUOUS
10
121.155
20
-150.222
11
121.441
21
-150.365
0
LINE
8
BLACK
6
CONTINUOUS
10
121.441
20
-150.365
11
121.584
21
-150.508
0
LINE
8
BLACK
6
CONTINUOUS
10
121.584
20
-150.508
11
121.726
21
-150.794
0
LINE
8
BLACK
6
CONTINUOUS
10
121.726
20
-150.794
11
121.726
21
-151.079
0
LINE
8
BLACK
6
CONTINUOUS
10
121.726
20
-151.079
11
121.584
21
-151.508
0
LINE
8
BLACK
6
CONTINUOUS
10
121.584
20
-151.508
11
119.869
21
-153.222
0
LINE
8
BLACK
6
CONTINUOUS
10
119.869
20
-153.222
11
121.726
21
-153.222
0
LINE
8
BLACK
6
CONTINUOUS
10
123.584
20
-150.222
11
123.869
21
-150.222
0
LINE
8
BLACK
6
CONTINUOUS
10
123.869
20
-150.222
11
124.155
21
-150.365
0
LINE
8
BLACK
6
CONTINUOUS
10
124.155
20
-150.365
11
124.298
21
-150.508
0
LINE
8
BLACK
6
CONTINUOUS
10
124.298
20
-150.508
11
124.441
21
-150.794
0
LINE
8
BLACK
6
CONTINUOUS
10
124.441
20
-150.794
11
124.584
21
-151.365
0
LINE
8
BLACK
6
CONTINUOUS
10
124.584
20
-151.365
11
124.584
21
-152.079
0
LINE
8
BLACK
6
CONTINUOUS
10
124.584
20
-152.079
11
124.441
21
-152.651
0
LINE
8
BLACK
6
CONTINUOUS
10
124.441
20
-152.651
11
124.298
21
-152.936
0
LINE
8
BLACK
6
CONTINUOUS
10
124.298
20
-152.936
11
124.155
21
-153.079
0
LINE
8
BLACK
6
CONTINUOUS
10
124.155
20
-153.079
11
123.869
21
-153.222
0
LINE
8
BLACK
6
CONTINUOUS
10
123.869
20
-153.222
11
123.584
21
-153.222
0
LINE
8
BLACK
6
CONTINUOUS
10
123.584
20
-153.222
11
123.298
21
-153.079
0
LINE
8
BLACK
6
CONTINUOUS
10
123.298
20
-153.079
11
123.155
21
-152.936
0
LINE
8
BLACK
6
CONTINUOUS
10
123.155
20
-152.936
11
123.012
21
-152.651
0
LINE
8
BLACK
6
CONTINUOUS
10
123.012
20
-152.651
11
122.869
21
-152.079
0
LINE
8
BLACK
6
CONTINUOUS
10
122.869
20
-152.079
11
122.869
21
-151.365
0
LINE
8
BLACK
6
CONTINUOUS
10
122.869
20
-151.365
11
123.012
21
-150.794
0
LINE
8
BLACK
6
CONTINUOUS
10
123.012
20
-150.794
11
123.155
21
-150.508
0
LINE
8
BLACK
6
CONTINUOUS
10
123.155
20
-150.508
11
123.298
21
-150.365
0
LINE
8
BLACK
6
CONTINUOUS
10
123.298
20
-150.365
11
123.584
21
-150.222
0
LINE
8
BLACK
6
CONTINUOUS
10
125.869
20
-153.222
11
125.869
21
-151.222
0
LINE
8
BLACK
6
CONTINUOUS
10
125.869
20
-151.508
11
126.012
21
-151.365
0
LINE
8
BLACK
6
CONTINUOUS
10
126.012
20
-151.365
11
126.298
21
-151.222
0
LINE
8
BLACK
6
CONTINUOUS
10
126.298
20
-151.222
11
126.726
21
-151.222
0
LINE
8
BLACK
6
CONTINUOUS
10
126.726
20
-151.222
11
127.012
21
-151.365
0
LINE
8
BLACK
6
CONTINUOUS
10
127.012
20
-151.365
11
127.155
21
-151.651
0
LINE
8
BLACK
6
CONTINUOUS
10
127.155
20
-151.651
11
127.155
21
-153.222
0
LINE
8
BLACK
6
CONTINUOUS
10
127.155
20
-151.651
11
127.298
21
-151.365
0
LINE
8
BLACK
6
CONTINUOUS
10
127.298
20
-151.365
11
127.584
21
-151.222
0
LINE
8
BLACK
6
CONTINUOUS
10
127.584
20
-151.222
11
128.012
21
-151.222
0
LINE
8
BLACK
6
CONTINUOUS
10
128.012
20
-151.222
11
128.298
21
-151.365
0
LINE
8
BLACK
6
CONTINUOUS
10
128.298
20
-151.365
11
128.441
21
-151.651
0
LINE
8
BLACK
6
CONTINUOUS
10
128.441
20
-151.651
11
128.441
21
-153.222
0
LINE
8
BLACK
6
CONTINUOUS
10
129.869
20
-153.222
11
129.869
21
-151.222
0
LINE
8
BLACK
6
CONTINUOUS
10
129.869
20
-151.508
11
130.012
21
-151.365
0
LINE
8
BLACK
6
CONTINUOUS
10
130.012
20
-151.365
11
130.298
21
-151.222
0
LINE
8
BLACK
6
CONTINUOUS
10
130.298
20
-151.222
11
130.726
21
-151.222
0
LINE
8
BLACK
6
CONTINUOUS
10
130.726
20
-151.222
11
131.012
21
-151.365
0
LINE
8
BLACK
6
CONTINUOUS
10
131.012
20
-151.365
11
131.155
21
-151.651
0
LINE
8
BLACK
6
CONTINUOUS
10
131.155
20
-151.651
11
131.155
21
-153.222
0
LINE
8
BLACK
6
CONTINUOUS
10
131.155
20
-151.651
11
131.298
21
-151.365
0
LINE
8
BLACK
6
CONTINUOUS
10
131.298
20
-151.365
11
131.584
21
-151.222
0
LINE
8
BLACK
6
CONTINUOUS
10
131.584
20
-151.222
11
132.012
21
-151.222
0
LINE
8
BLACK
6
CONTINUOUS
10
132.012
20
-151.222
11
132.298
21
-151.365
0
LINE
8
BLACK
6
CONTINUOUS
10
132.298
20
-151.365
11
132.441
21
-151.651
0
LINE
8
BLACK
6
CONTINUOUS
10
132.441
20
-151.651
11
132.441
21
-153.222
0
LINE
8
BLACK
6
CONTINUOUS
10
138.298
20
-150.079
11
135.726
21
-153.936
0
LINE
8
BLACK
6
CONTINUOUS
10
142.155
20
-150.222
11
142.441
21
-150.222
0
LINE
8
BLACK
6
CONTINUOUS
10
142.441
20
-150.222
11
142.726
21
-150.365
0
LINE
8
BLACK
6
CONTINUOUS
10
142.726
20
-150.365
11
142.869
21
-150.508
0
LINE
8
BLACK
6
CONTINUOUS
10
142.869
20
-150.508
11
143.012
21
-150.794
0
LINE
8
BLACK
6
CONTINUOUS
10
143.012
20
-150.794
11
143.155
21
-151.365
0
LINE
8
BLACK
6
CONTINUOUS
10
143.155
20
-151.365
11
143.155
21
-152.079
0
LINE
8
BLACK
6
CONTINUOUS
10
143.155
20
-152.079
11
143.012
21
-152.651
0
LINE
8
BLACK
6
CONTINUOUS
10
143.012
20
-152.651
11
142.869
21
-152.936
0
LINE
8
BLACK
6
CONTINUOUS
10
142.869
20
-152.936
11
142.726
21
-153.079
0
LINE
8
BLACK
6
CONTINUOUS
10
142.726
20
-153.079
11
142.441
21
-153.222
0
LINE
8
BLACK
6
CONTINUOUS
10
142.441
20
-153.222
11
142.155
21
-153.222
0
LINE
8
BLACK
6
CONTINUOUS
10
142.155
20
-153.222
11
141.869
21
-153.079
0
LINE
8
BLACK
6
CONTINUOUS
10
141.869
20
-153.079
11
141.726
21
-152.936
0
LINE
8
BLACK
6
CONTINUOUS
10
141.726
20
-152.936
11
141.584
21
-152.651
0
LINE
8
BLACK
6
CONTINUOUS
10
141.584
20
-152.651
11
141.441
21
-152.079
0
LINE
8
BLACK
6
CONTINUOUS
10
141.441
20
-152.079
11
141.441
21
-151.365
0
LINE
8
BLACK
6
CONTINUOUS
10
141.441
20
-151.365
11
141.584
21
-150.794
0
LINE
8
BLACK
6
CONTINUOUS
10
141.584
20
-150.794
11
141.726
21
-150.508
0
LINE
8
BLACK
6
CONTINUOUS
10
141.726
20
-150.508
11
141.869
21
-150.365
0
LINE
8
BLACK
6
CONTINUOUS
10
141.869
20
-150.365
11
142.155
21
-150.222
0
LINE
8
BLACK
6
CONTINUOUS
10
144.441
20
-152.936
11
144.584
21
-153.079
0
LINE
8
BLACK
6
CONTINUOUS
10
144.584
20
-153.079
11
144.441
21
-153.222
0
LINE
8
BLACK
6
CONTINUOUS
10
144.441
20
-153.222
11
144.298
21
-153.079
0
LINE
8
BLACK
6
CONTINUOUS
10
144.298
20
-153.079
11
144.441
21
-152.936
0
LINE
8
BLACK
6
CONTINUOUS
10
144.441
20
-152.936
11
144.441
21
-153.222
0
LINE
8
BLACK
6
CONTINUOUS
10
147.441
20
-153.222
11
145.726
21
-153.222
0
LINE
8
BLACK
6
CONTINUOUS
10
146.584
20
-153.222
11
146.584
21
-150.222
0
LINE
8
BLACK
6
CONTINUOUS
10
146.584
20
-150.222
11
146.298
21
-150.651
0
LINE
8
BLACK
6
CONTINUOUS
10
146.298
20
-150.651
11
146.012
21
-150.936
0
LINE
8
BLACK
6
CONTINUOUS
10
146.012
20
-150.936
11
145.726
21
-151.079
0
LINE
8
BLACK
6
CONTINUOUS
10
148.584
20
-150.508
11
148.726
21
-150.365
0
LINE
8
BLACK
6
CONTINUOUS
10
148.726
20
-150.365
11
149.012
21
-150.222
0
LINE
8
BLACK
6
CONTINUOUS
10
149.012
20
-150.222
11
149.726
21
-150.222
0
LINE
8
BLACK
6
CONTINUOUS
10
149.726
20
-150.222
11
150.012
21
-150.365
0
LINE
8
BLACK
6
CONTINUOUS
10
150.012
20
-150.365
11
150.155
21
-150.508
0
LINE
8
BLACK
6
CONTINUOUS
10
150.155
20
-150.508
11
150.298
21
-150.794
0
LINE
8
BLACK
6
CONTINUOUS
10
150.298
20
-150.794
11
150.298
21
-151.079
0
LINE
8
BLACK
6
CONTINUOUS
10
150.298
20
-151.079
11
150.155
21
-151.508
0
LINE
8
BLACK
6
CONTINUOUS
10
150.155
20
-151.508
11
148.441
21
-153.222
0
LINE
8
BLACK
6
CONTINUOUS
10
148.441
20
-153.222
11
150.298
21
-153.222
0
LINE
8
BLACK
6
CONTINUOUS
10
152.869
20
-150.222
11
152.298
21
-150.222
0
LINE
8
BLACK
6
CONTINUOUS
10
152.298
20
-150.222
11
152.012
21
-150.365
0
LINE
8
BLACK
6
CONTINUOUS
10
152.012
20
-150.365
11
151.869
21
-150.508
0
LINE
8
BLACK
6
CONTINUOUS
10
151.869
20
-150.508
11
151.584
21
-150.936
0
LINE
8
BLACK
6
CONTINUOUS
10
151.584
20
-150.936
11
151.441
21
-151.508
0
LINE
8
BLACK
6
CONTINUOUS
10
151.441
20
-151.508
11
151.441
21
-152.651
0
LINE
8
BLACK
6
CONTINUOUS
10
151.441
20
-152.651
11
151.584
21
-152.936
0
LINE
8
BLACK
6
CONTINUOUS
10
151.584
20
-152.936
11
151.726
21
-153.079
0
LINE
8
BLACK
6
CONTINUOUS
10
151.726
20
-153.079
11
152.012
21
-153.222
0
LINE
8
BLACK
6
CONTINUOUS
10
152.012
20
-153.222
11
152.584
21
-153.222
0
LINE
8
BLACK
6
CONTINUOUS
10
152.584
20
-153.222
11
152.869
21
-153.079
0
LINE
8
BLACK
6
CONTINUOUS
10
152.869
20
-153.079
11
153.012
21
-152.936
0
LINE
8
BLACK
6
CONTINUOUS
10
153.012
20
-152.936
11
153.155
21
-152.651
0
LINE
8
BLACK
6
CONTINUOUS
10
153.155
20
-152.651
11
153.155
21
-151.936
0
LINE
8
BLACK
6
CONTINUOUS
10
153.155
20
-151.936
11
153.012
21
-151.651
0
LINE
8
BLACK
6
CONTINUOUS
10
153.012
20
-151.651
11
152.869
21
-151.508
0
LINE
8
BLACK
6
CONTINUOUS
10
152.869
20
-151.508
11
152.584
21
-151.365
0
LINE
8
BLACK
6
CONTINUOUS
10
152.584
20
-151.365
11
152.012
21
-151.365
0
LINE
8
BLACK
6
CONTINUOUS
10
152.012
20
-151.365
11
151.726
21
-151.508
0
LINE
8
BLACK
6
CONTINUOUS
10
151.726
20
-151.508
11
151.584
21
-151.651
0
LINE
8
BLACK
6
CONTINUOUS
10
151.584
20
-151.651
11
151.441
21
-151.936
0
LINE
8
BLACK
6
CONTINUOUS
10
154.298
20
-150.222
11
154.298
21
-150.794
0
LINE
8
BLACK
6
CONTINUOUS
10
155.441
20
-150.222
11
155.441
21
-150.794
0
LINE
8
BLACK
6
CONTINUOUS
10
159.869
20
-154.365
11
159.726
21
-154.222
0
LINE
8
BLACK
6
CONTINUOUS
10
159.726
20
-154.222
11
159.441
21
-153.794
0
LINE
8
BLACK
6
CONTINUOUS
10
159.441
20
-153.794
11
159.298
21
-153.508
0
LINE
8
BLACK
6
CONTINUOUS
10
159.298
20
-153.508
11
159.155
21
-153.079
0
LINE
8
BLACK
6
CONTINUOUS
10
159.155
20
-153.079
11
159.012
21
-152.365
0
LINE
8
BLACK
6
CONTINUOUS
10
159.012
20
-152.365
11
159.012
21
-151.794
0
LINE
8
BLACK
6
CONTINUOUS
10
159.012
20
-151.794
11
159.155
21
-151.079
0
LINE
8
BLACK
6
CONTINUOUS
10
159.155
20
-151.079
11
159.298
21
-150.651
0
LINE
8
BLACK
6
CONTINUOUS
10
159.298
20
-150.651
11
159.441
21
-150.365
0
LINE
8
BLACK
6
CONTINUOUS
10
159.441
20
-150.365
11
159.726
21
-149.936
0
LINE
8
BLACK
6
CONTINUOUS
10
159.726
20
-149.936
11
159.869
21
-149.794
0
LINE
8
BLACK
6
CONTINUOUS
10
162.298
20
-150.222
11
161.726
21
-150.222
0
LINE
8
BLACK
6
CONTINUOUS
10
161.726
20
-150.222
11
161.441
21
-150.365
0
LINE
8
BLACK
6
CONTINUOUS
10
161.441
20
-150.365
11
161.298
21
-150.508
0
LINE
8
BLACK
6
CONTINUOUS
10
161.298
20
-150.508
11
161.012
21
-150.936
0
LINE
8
BLACK
6
CONTINUOUS
10
161.012
20
-150.936
11
160.869
21
-151.508
0
LINE
8
BLACK
6
CONTINUOUS
10
160.869
20
-151.508
11
160.869
21
-152.651
0
LINE
8
BLACK
6
CONTINUOUS
10
160.869
20
-152.651
11
161.012
21
-152.936
0
LINE
8
BLACK
6
CONTINUOUS
10
161.012
20
-152.936
11
161.155
21
-153.079
0
LINE
8
BLACK
6
CONTINUOUS
10
161.155
20
-153.079
11
161.441
21
-153.222
0
LINE
8
BLACK
6
CONTINUOUS
10
161.441
20
-153.222
11
162.012
21
-153.222
0
LINE
8
BLACK
6
CONTINUOUS
10
162.012
20
-153.222
11
162.298
21
-153.079
0
LINE
8
BLACK
6
CONTINUOUS
10
162.298
20
-153.079
11
162.441
21
-152.936
0
LINE
8
BLACK
6
CONTINUOUS
10
162.441
20
-152.936
11
162.584
21
-152.651
0
LINE
8
BLACK
6
CONTINUOUS
10
162.584
20
-152.651
11
162.584
21
-151.936
0
LINE
8
BLACK
6
CONTINUOUS
10
162.584
20
-151.936
11
162.441
21
-151.651
0
LINE
8
BLACK
6
CONTINUOUS
10
162.441
20
-151.651
11
162.298
21
-151.508
0
LINE
8
BLACK
6
CONTINUOUS
10
162.298
20
-151.508
11
162.012
21
-151.365
0
LINE
8
BLACK
6
CONTINUOUS
10
162.012
20
-151.365
11
161.441
21
-151.365
0
LINE
8
BLACK
6
CONTINUOUS
10
161.441
20
-151.365
11
161.155
21
-151.508
0
LINE
8
BLACK
6
CONTINUOUS
10
161.155
20
-151.508
11
161.012
21
-151.651
0
LINE
8
BLACK
6
CONTINUOUS
10
161.012
20
-151.651
11
160.869
21
-151.936
0
LINE
8
BLACK
6
CONTINUOUS
10
166.155
20
-153.222
11
166.155
21
-150.222
0
LINE
8
BLACK
6
CONTINUOUS
10
167.441
20
-153.222
11
167.441
21
-151.651
0
LINE
8
BLACK
6
CONTINUOUS
10
167.441
20
-151.651
11
167.298
21
-151.365
0
LINE
8
BLACK
6
CONTINUOUS
10
167.298
20
-151.365
11
167.012
21
-151.222
0
LINE
8
BLACK
6
CONTINUOUS
10
167.012
20
-151.222
11
166.584
21
-151.222
0
LINE
8
BLACK
6
CONTINUOUS
10
166.584
20
-151.222
11
166.298
21
-151.365
0
LINE
8
BLACK
6
CONTINUOUS
10
166.298
20
-151.365
11
166.155
21
-151.508
0
LINE
8
BLACK
6
CONTINUOUS
10
169.298
20
-153.222
11
169.012
21
-153.079
0
LINE
8
BLACK
6
CONTINUOUS
10
169.012
20
-153.079
11
168.869
21
-152.936
0
LINE
8
BLACK
6
CONTINUOUS
10
168.869
20
-152.936
11
168.726
21
-152.651
0
LINE
8
BLACK
6
CONTINUOUS
10
168.726
20
-152.651
11
168.726
21
-151.794
0
LINE
8
BLACK
6
CONTINUOUS
10
168.726
20
-151.794
11
168.869
21
-151.508
0
LINE
8
BLACK
6
CONTINUOUS
10
168.869
20
-151.508
11
169.012
21
-151.365
0
LINE
8
BLACK
6
CONTINUOUS
10
169.012
20
-151.365
11
169.298
21
-151.222
0
LINE
8
BLACK
6
CONTINUOUS
10
169.298
20
-151.222
11
169.726
21
-151.222
0
LINE
8
BLACK
6
CONTINUOUS
10
169.726
20
-151.222
11
170.012
21
-151.365
0
LINE
8
BLACK
6
CONTINUOUS
10
170.012
20
-151.365
11
170.155
21
-151.508
0
LINE
8
BLACK
6
CONTINUOUS
10
170.155
20
-151.508
11
170.298
21
-151.794
0
LINE
8
BLACK
6
CONTINUOUS
10
170.298
20
-151.794
11
170.298
21
-152.651
0
LINE
8
BLACK
6
CONTINUOUS
10
170.298
20
-152.651
11
170.155
21
-152.936
0
LINE
8
BLACK
6
CONTINUOUS
10
170.155
20
-152.936
11
170.012
21
-153.079
0
LINE
8
BLACK
6
CONTINUOUS
10
170.012
20
-153.079
11
169.726
21
-153.222
0
LINE
8
BLACK
6
CONTINUOUS
10
169.726
20
-153.222
11
169.298
21
-153.222
0
LINE
8
BLACK
6
CONTINUOUS
10
172.012
20
-153.222
11
171.726
21
-153.079
0
LINE
8
BLACK
6
CONTINUOUS
10
171.726
20
-153.079
11
171.584
21
-152.794
0
LINE
8
BLACK
6
CONTINUOUS
10
171.584
20
-152.794
11
171.584
21
-150.222
0
LINE
8
BLACK
6
CONTINUOUS
10
174.298
20
-153.079
11
174.012
21
-153.222
0
LINE
8
BLACK
6
CONTINUOUS
10
174.012
20
-153.222
11
173.441
21
-153.222
0
LINE
8
BLACK
6
CONTINUOUS
10
173.441
20
-153.222
11
173.155
21
-153.079
0
LINE
8
BLACK
6
CONTINUOUS
10
173.155
20
-153.079
11
173.012
21
-152.794
0
LINE
8
BLACK
6
CONTINUOUS
10
173.012
20
-152.794
11
173.012
21
-151.651
0
LINE
8
BLACK
6
CONTINUOUS
10
173.012
20
-151.651
11
173.155
21
-151.365
0
LINE
8
BLACK
6
CONTINUOUS
10
173.155
20
-151.365
11
173.441
21
-151.222
0
LINE
8
BLACK
6
CONTINUOUS
10
173.441
20
-151.222
11
174.012
21
-151.222
0
LINE
8
BLACK
6
CONTINUOUS
10
174.012
20
-151.222
11
174.298
21
-151.365
0
LINE
8
BLACK
6
CONTINUOUS
10
174.298
20
-151.365
11
174.441
21
-151.651
0
LINE
8
BLACK
6
CONTINUOUS
10
174.441
20
-151.651
11
174.441
21
-151.936
0
LINE
8
BLACK
6
CONTINUOUS
10
174.441
20
-151.936
11
173.012
21
-152.222
0
LINE
8
BLACK
6
CONTINUOUS
10
175.584
20
-153.079
11
175.869
21
-153.222
0
LINE
8
BLACK
6
CONTINUOUS
10
175.869
20
-153.222
11
176.441
21
-153.222
0
LINE
8
BLACK
6
CONTINUOUS
10
176.441
20
-153.222
11
176.726
21
-153.079
0
LINE
8
BLACK
6
CONTINUOUS
10
176.726
20
-153.079
11
176.869
21
-152.794
0
LINE
8
BLACK
6
CONTINUOUS
10
176.869
20
-152.794
11
176.869
21
-152.651
0
LINE
8
BLACK
6
CONTINUOUS
10
176.869
20
-152.651
11
176.726
21
-152.365
0
LINE
8
BLACK
6
CONTINUOUS
10
176.726
20
-152.365
11
176.441
21
-152.222
0
LINE
8
BLACK
6
CONTINUOUS
10
176.441
20
-152.222
11
176.012
21
-152.222
0
LINE
8
BLACK
6
CONTINUOUS
10
176.012
20
-152.222
11
175.726
21
-152.079
0
LINE
8
BLACK
6
CONTINUOUS
10
175.726
20
-152.079
11
175.584
21
-151.794
0
LINE
8
BLACK
6
CONTINUOUS
10
175.584
20
-151.794
11
175.584
21
-151.651
0
LINE
8
BLACK
6
CONTINUOUS
10
175.584
20
-151.651
11
175.726
21
-151.365
0
LINE
8
BLACK
6
CONTINUOUS
10
175.726
20
-151.365
11
176.012
21
-151.222
0
LINE
8
BLACK
6
CONTINUOUS
10
176.012
20
-151.222
11
176.441
21
-151.222
0
LINE
8
BLACK
6
CONTINUOUS
10
176.441
20
-151.222
11
176.726
21
-151.365
0
LINE
8
BLACK
6
CONTINUOUS
10
177.869
20
-154.365
11
178.012
21
-154.222
0
LINE
8
BLACK
6
CONTINUOUS
10
178.012
20
-154.222
11
178.298
21
-153.794
0
LINE
8
BLACK
6
CONTINUOUS
10
178.298
20
-153.794
11
178.441
21
-153.508
0
LINE
8
BLACK
6
CONTINUOUS
10
178.441
20
-153.508
11
178.584
21
-153.079
0
LINE
8
BLACK
6
CONTINUOUS
10
178.584
20
-153.079
11
178.726
21
-152.365
0
LINE
8
BLACK
6
CONTINUOUS
10
178.726
20
-152.365
11
178.726
21
-151.794
0
LINE
8
BLACK
6
CONTINUOUS
10
178.726
20
-151.794
11
178.584
21
-151.079
0
LINE
8
BLACK
6
CONTINUOUS
10
178.584
20
-151.079
11
178.441
21
-150.651
0
LINE
8
BLACK
6
CONTINUOUS
10
178.441
20
-150.651
11
178.298
21
-150.365
0
LINE
8
BLACK
6
CONTINUOUS
10
178.298
20
-150.365
11
178.012
21
-149.936
0
LINE
8
BLACK
6
CONTINUOUS
10
178.012
20
-149.936
11
177.869
21
-149.794
0
LINE
8
BLACK
6
CONTINUOUS
10
183.298
20
-154.365
11
183.155
21
-154.222
0
LINE
8
BLACK
6
CONTINUOUS
10
183.155
20
-154.222
11
182.869
21
-153.794
0
LINE
8
BLACK
6
CONTINUOUS
10
182.869
20
-153.794
11
182.726
21
-153.508
0
LINE
8
BLACK
6
CONTINUOUS
10
182.726
20
-153.508
11
182.584
21
-153.079
0
LINE
8
BLACK
6
CONTINUOUS
10
182.584
20
-153.079
11
182.441
21
-152.365
0
LINE
8
BLACK
6
CONTINUOUS
10
182.441
20
-152.365
11
182.441
21
-151.794
0
LINE
8
BLACK
6
CONTINUOUS
10
182.441
20
-151.794
11
182.584
21
-151.079
0
LINE
8
BLACK
6
CONTINUOUS
10
182.584
20
-151.079
11
182.726
21
-150.651
0
LINE
8
BLACK
6
CONTINUOUS
10
182.726
20
-150.651
11
182.869
21
-150.365
0
LINE
8
BLACK
6
CONTINUOUS
10
182.869
20
-150.365
11
183.155
21
-149.936
0
LINE
8
BLACK
6
CONTINUOUS
10
183.155
20
-149.936
11
183.298
21
-149.794
0
LINE
8
BLACK
6
CONTINUOUS
10
184.441
20
-151.222
11
184.441
21
-153.222
0
LINE
8
BLACK
6
CONTINUOUS
10
184.441
20
-151.508
11
184.584
21
-151.365
0
LINE
8
BLACK
6
CONTINUOUS
10
184.584
20
-151.365
11
184.869
21
-151.222
0
LINE
8
BLACK
6
CONTINUOUS
10
184.869
20
-151.222
11
185.298
21
-151.222
0
LINE
8
BLACK
6
CONTINUOUS
10
185.298
20
-151.222
11
185.584
21
-151.365
0
LINE
8
BLACK
6
CONTINUOUS
10
185.584
20
-151.365
11
185.726
21
-151.651
0
LINE
8
BLACK
6
CONTINUOUS
10
185.726
20
-151.651
11
185.726
21
-153.222
0
LINE
8
BLACK
6
CONTINUOUS
10
187.584
20
-153.222
11
187.298
21
-153.079
0
LINE
8
BLACK
6
CONTINUOUS
10
187.298
20
-153.079
11
187.155
21
-152.936
0
LINE
8
BLACK
6
CONTINUOUS
10
187.155
20
-152.936
11
187.012
21
-152.651
0
LINE
8
BLACK
6
CONTINUOUS
10
187.012
20
-152.651
11
187.012
21
-151.794
0
LINE
8
BLACK
6
CONTINUOUS
10
187.012
20
-151.794
11
187.155
21
-151.508
0
LINE
8
BLACK
6
CONTINUOUS
10
187.155
20
-151.508
11
187.298
21
-151.365
0
LINE
8
BLACK
6
CONTINUOUS
10
187.298
20
-151.365
11
187.584
21
-151.222
0
LINE
8
BLACK
6
CONTINUOUS
10
187.584
20
-151.222
11
188.012
21
-151.222
0
LINE
8
BLACK
6
CONTINUOUS
10
188.012
20
-151.222
11
188.298
21
-151.365
0
LINE
8
BLACK
6
CONTINUOUS
10
188.298
20
-151.365
11
188.441
21
-151.508
0
LINE
8
BLACK
6
CONTINUOUS
10
188.441
20
-151.508
11
188.584
21
-151.794
0
LINE
8
BLACK
6
CONTINUOUS
10
188.584
20
-151.794
11
188.584
21
-152.651
0
LINE
8
BLACK
6
CONTINUOUS
10
188.584
20
-152.651
11
188.441
21
-152.936
0
LINE
8
BLACK
6
CONTINUOUS
10
188.441
20
-152.936
11
188.298
21
-153.079
0
LINE
8
BLACK
6
CONTINUOUS
10
188.298
20
-153.079
11
188.012
21
-153.222
0
LINE
8
BLACK
6
CONTINUOUS
10
188.012
20
-153.222
11
187.584
21
-153.222
0
LINE
8
BLACK
6
CONTINUOUS
10
189.441
20
-151.222
11
190.584
21
-151.222
0
LINE
8
BLACK
6
CONTINUOUS
10
189.869
20
-150.222
11
189.869
21
-152.794
0
LINE
8
BLACK
6
CONTINUOUS
10
189.869
20
-152.794
11
190.012
21
-153.079
0
LINE
8
BLACK
6
CONTINUOUS
10
190.012
20
-153.079
11
190.298
21
-153.222
0
LINE
8
BLACK
6
CONTINUOUS
10
190.298
20
-153.222
11
190.584
21
-153.222
0
LINE
8
BLACK
6
CONTINUOUS
10
193.869
20
-151.222
11
193.869
21
-154.222
0
LINE
8
BLACK
6
CONTINUOUS
10
193.869
20
-151.365
11
194.155
21
-151.222
0
LINE
8
BLACK
6
CONTINUOUS
10
194.155
20
-151.222
11
194.726
21
-151.222
0
LINE
8
BLACK
6
CONTINUOUS
10
194.726
20
-151.222
11
195.012
21
-151.365
0
LINE
8
BLACK
6
CONTINUOUS
10
195.012
20
-151.365
11
195.155
21
-151.508
0
LINE
8
BLACK
6
CONTINUOUS
10
195.155
20
-151.508
11
195.298
21
-151.794
0
LINE
8
BLACK
6
CONTINUOUS
10
195.298
20
-151.794
11
195.298
21
-152.651
0
LINE
8
BLACK
6
CONTINUOUS
10
195.298
20
-152.651
11
195.155
21
-152.936
0
LINE
8
BLACK
6
CONTINUOUS
10
195.155
20
-152.936
11
195.012
21
-153.079
0
LINE
8
BLACK
6
CONTINUOUS
10
195.012
20
-153.079
11
194.726
21
-153.222
0
LINE
8
BLACK
6
CONTINUOUS
10
194.726
20
-153.222
11
194.155
21
-153.222
0
LINE
8
BLACK
6
CONTINUOUS
10
194.155
20
-153.222
11
193.869
21
-153.079
0
LINE
8
BLACK
6
CONTINUOUS
10
197.012
20
-153.222
11
196.726
21
-153.079
0
LINE
8
BLACK
6
CONTINUOUS
10
196.726
20
-153.079
11
196.584
21
-152.794
0
LINE
8
BLACK
6
CONTINUOUS
10
196.584
20
-152.794
11
196.584
21
-150.222
0
LINE
8
BLACK
6
CONTINUOUS
10
199.441
20
-153.222
11
199.441
21
-151.651
0
LINE
8
BLACK
6
CONTINUOUS
10
199.441
20
-151.651
11
199.298
21
-151.365
0
LINE
8
BLACK
6
CONTINUOUS
10
199.298
20
-151.365
11
199.012
21
-151.222
0
LINE
8
BLACK
6
CONTINUOUS
10
199.012
20
-151.222
11
198.441
21
-151.222
0
LINE
8
BLACK
6
CONTINUOUS
10
198.441
20
-151.222
11
198.155
21
-151.365
0
LINE
8
BLACK
6
CONTINUOUS
10
199.441
20
-153.079
11
199.155
21
-153.222
0
LINE
8
BLACK
6
CONTINUOUS
10
199.155
20
-153.222
11
198.441
21
-153.222
0
LINE
8
BLACK
6
CONTINUOUS
10
198.441
20
-153.222
11
198.155
21
-153.079
0
LINE
8
BLACK
6
CONTINUOUS
10
198.155
20
-153.079
11
198.012
21
-152.794
0
LINE
8
BLACK
6
CONTINUOUS
10
198.012
20
-152.794
11
198.012
21
-152.508
0
LINE
8
BLACK
6
CONTINUOUS
10
198.012
20
-152.508
11
198.155
21
-152.222
0
LINE
8
BLACK
6
CONTINUOUS
10
198.155
20
-152.222
11
198.441
21
-152.079
0
LINE
8
BLACK
6
CONTINUOUS
10
198.441
20
-152.079
11
199.155
21
-152.079
0
LINE
8
BLACK
6
CONTINUOUS
10
199.155
20
-152.079
11
199.441
21
-151.936
0
LINE
8
BLACK
6
CONTINUOUS
10
200.441
20
-151.222
11
201.584
21
-151.222
0
LINE
8
BLACK
6
CONTINUOUS
10
200.869
20
-150.222
11
200.869
21
-152.794
0
LINE
8
BLACK
6
CONTINUOUS
10
200.869
20
-152.794
11
201.012
21
-153.079
0
LINE
8
BLACK
6
CONTINUOUS
10
201.012
20
-153.079
11
201.298
21
-153.222
0
LINE
8
BLACK
6
CONTINUOUS
10
201.298
20
-153.222
11
201.584
21
-153.222
0
LINE
8
BLACK
6
CONTINUOUS
10
203.726
20
-153.079
11
203.441
21
-153.222
0
LINE
8
BLACK
6
CONTINUOUS
10
203.441
20
-153.222
11
202.869
21
-153.222
0
LINE
8
BLACK
6
CONTINUOUS
10
202.869
20
-153.222
11
202.584
21
-153.079
0
LINE
8
BLACK
6
CONTINUOUS
10
202.584
20
-153.079
11
202.441
21
-152.794
0
LINE
8
BLACK
6
CONTINUOUS
10
202.441
20
-152.794
11
202.441
21
-151.651
0
LINE
8
BLACK
6
CONTINUOUS
10
202.441
20
-151.651
11
202.584
21
-151.365
0
LINE
8
BLACK
6
CONTINUOUS
10
202.584
20
-151.365
11
202.869
21
-151.222
0
LINE
8
BLACK
6
CONTINUOUS
10
202.869
20
-151.222
11
203.441
21
-151.222
0
LINE
8
BLACK
6
CONTINUOUS
10
203.441
20
-151.222
11
203.726
21
-151.365
0
LINE
8
BLACK
6
CONTINUOUS
10
203.726
20
-151.365
11
203.869
21
-151.651
0
LINE
8
BLACK
6
CONTINUOUS
10
203.869
20
-151.651
11
203.869
21
-151.936
0
LINE
8
BLACK
6
CONTINUOUS
10
203.869
20
-151.936
11
202.441
21
-152.222
0
LINE
8
BLACK
6
CONTINUOUS
10
206.441
20
-153.222
11
206.441
21
-150.222
0
LINE
8
BLACK
6
CONTINUOUS
10
206.441
20
-153.079
11
206.155
21
-153.222
0
LINE
8
BLACK
6
CONTINUOUS
10
206.155
20
-153.222
11
205.584
21
-153.222
0
LINE
8
BLACK
6
CONTINUOUS
10
205.584
20
-153.222
11
205.298
21
-153.079
0
LINE
8
BLACK
6
CONTINUOUS
10
205.298
20
-153.079
11
205.155
21
-152.936
0
LINE
8
BLACK
6
CONTINUOUS
10
205.155
20
-152.936
11
205.012
21
-152.651
0
LINE
8
BLACK
6
CONTINUOUS
10
205.012
20
-152.651
11
205.012
21
-151.794
0
LINE
8
BLACK
6
CONTINUOUS
10
205.012
20
-151.794
11
205.155
21
-151.508
0
LINE
8
BLACK
6
CONTINUOUS
10
205.155
20
-151.508
11
205.298
21
-151.365
0
LINE
8
BLACK
6
CONTINUOUS
10
205.298
20
-151.365
11
205.584
21
-151.222
0
LINE
8
BLACK
6
CONTINUOUS
10
205.584
20
-151.222
11
206.155
21
-151.222
0
LINE
8
BLACK
6
CONTINUOUS
10
206.155
20
-151.222
11
206.441
21
-151.365
0
LINE
8
BLACK
6
CONTINUOUS
10
207.584
20
-154.365
11
207.726
21
-154.222
0
LINE
8
BLACK
6
CONTINUOUS
10
207.726
20
-154.222
11
208.012
21
-153.794
0
LINE
8
BLACK
6
CONTINUOUS
10
208.012
20
-153.794
11
208.155
21
-153.508
0
LINE
8
BLACK
6
CONTINUOUS
10
208.155
20
-153.508
11
208.298
21
-153.079
0
LINE
8
BLACK
6
CONTINUOUS
10
208.298
20
-153.079
11
208.441
21
-152.365
0
LINE
8
BLACK
6
CONTINUOUS
10
208.441
20
-152.365
11
208.441
21
-151.794
0
LINE
8
BLACK
6
CONTINUOUS
10
208.441
20
-151.794
11
208.298
21
-151.079
0
LINE
8
BLACK
6
CONTINUOUS
10
208.298
20
-151.079
11
208.155
21
-150.651
0
LINE
8
BLACK
6
CONTINUOUS
10
208.155
20
-150.651
11
208.012
21
-150.365
0
LINE
8
BLACK
6
CONTINUOUS
10
208.012
20
-150.365
11
207.726
21
-149.936
0
LINE
8
BLACK
6
CONTINUOUS
10
207.726
20
-149.936
11
207.584
21
-149.794
  0
ENDSEC
  0
EOF
