%TF.GenerationSoftware,KiCad,Pcbnew,7.0.9*%
%TF.CreationDate,2023-12-04T06:36:33+10:00*%
%TF.ProjectId,CMSP NMSP,434d5350-204e-44d5-9350-2e6b69636164,rev?*%
%TF.SameCoordinates,Original*%
%TF.FileFunction,Legend,Bot*%
%TF.FilePolarity,Positive*%
%FSLAX46Y46*%
G04 Gerber Fmt 4.6, Leading zero omitted, Abs format (unit mm)*
G04 Created by KiCad (PCBNEW 7.0.9) date 2023-12-04 06:36:33*
%MOMM*%
%LPD*%
G01*
G04 APERTURE LIST*
%ADD10C,0.150000*%
G04 APERTURE END LIST*
D10*
X107311819Y-54692779D02*
X106311819Y-54692779D01*
X106311819Y-54692779D02*
X107311819Y-55264207D01*
X107311819Y-55264207D02*
X106311819Y-55264207D01*
X107311819Y-55740398D02*
X106311819Y-55740398D01*
X106311819Y-55740398D02*
X107026104Y-56073731D01*
X107026104Y-56073731D02*
X106311819Y-56407064D01*
X106311819Y-56407064D02*
X107311819Y-56407064D01*
X107264200Y-56835636D02*
X107311819Y-56978493D01*
X107311819Y-56978493D02*
X107311819Y-57216588D01*
X107311819Y-57216588D02*
X107264200Y-57311826D01*
X107264200Y-57311826D02*
X107216580Y-57359445D01*
X107216580Y-57359445D02*
X107121342Y-57407064D01*
X107121342Y-57407064D02*
X107026104Y-57407064D01*
X107026104Y-57407064D02*
X106930866Y-57359445D01*
X106930866Y-57359445D02*
X106883247Y-57311826D01*
X106883247Y-57311826D02*
X106835628Y-57216588D01*
X106835628Y-57216588D02*
X106788009Y-57026112D01*
X106788009Y-57026112D02*
X106740390Y-56930874D01*
X106740390Y-56930874D02*
X106692771Y-56883255D01*
X106692771Y-56883255D02*
X106597533Y-56835636D01*
X106597533Y-56835636D02*
X106502295Y-56835636D01*
X106502295Y-56835636D02*
X106407057Y-56883255D01*
X106407057Y-56883255D02*
X106359438Y-56930874D01*
X106359438Y-56930874D02*
X106311819Y-57026112D01*
X106311819Y-57026112D02*
X106311819Y-57264207D01*
X106311819Y-57264207D02*
X106359438Y-57407064D01*
X107311819Y-57835636D02*
X106311819Y-57835636D01*
X106311819Y-57835636D02*
X106311819Y-58216588D01*
X106311819Y-58216588D02*
X106359438Y-58311826D01*
X106359438Y-58311826D02*
X106407057Y-58359445D01*
X106407057Y-58359445D02*
X106502295Y-58407064D01*
X106502295Y-58407064D02*
X106645152Y-58407064D01*
X106645152Y-58407064D02*
X106740390Y-58359445D01*
X106740390Y-58359445D02*
X106788009Y-58311826D01*
X106788009Y-58311826D02*
X106835628Y-58216588D01*
X106835628Y-58216588D02*
X106835628Y-57835636D01*
X107216580Y-60168969D02*
X107264200Y-60121350D01*
X107264200Y-60121350D02*
X107311819Y-59978493D01*
X107311819Y-59978493D02*
X107311819Y-59883255D01*
X107311819Y-59883255D02*
X107264200Y-59740398D01*
X107264200Y-59740398D02*
X107168961Y-59645160D01*
X107168961Y-59645160D02*
X107073723Y-59597541D01*
X107073723Y-59597541D02*
X106883247Y-59549922D01*
X106883247Y-59549922D02*
X106740390Y-59549922D01*
X106740390Y-59549922D02*
X106549914Y-59597541D01*
X106549914Y-59597541D02*
X106454676Y-59645160D01*
X106454676Y-59645160D02*
X106359438Y-59740398D01*
X106359438Y-59740398D02*
X106311819Y-59883255D01*
X106311819Y-59883255D02*
X106311819Y-59978493D01*
X106311819Y-59978493D02*
X106359438Y-60121350D01*
X106359438Y-60121350D02*
X106407057Y-60168969D01*
X107311819Y-60597541D02*
X106311819Y-60597541D01*
X106311819Y-60597541D02*
X107026104Y-60930874D01*
X107026104Y-60930874D02*
X106311819Y-61264207D01*
X106311819Y-61264207D02*
X107311819Y-61264207D01*
X107264200Y-61692779D02*
X107311819Y-61835636D01*
X107311819Y-61835636D02*
X107311819Y-62073731D01*
X107311819Y-62073731D02*
X107264200Y-62168969D01*
X107264200Y-62168969D02*
X107216580Y-62216588D01*
X107216580Y-62216588D02*
X107121342Y-62264207D01*
X107121342Y-62264207D02*
X107026104Y-62264207D01*
X107026104Y-62264207D02*
X106930866Y-62216588D01*
X106930866Y-62216588D02*
X106883247Y-62168969D01*
X106883247Y-62168969D02*
X106835628Y-62073731D01*
X106835628Y-62073731D02*
X106788009Y-61883255D01*
X106788009Y-61883255D02*
X106740390Y-61788017D01*
X106740390Y-61788017D02*
X106692771Y-61740398D01*
X106692771Y-61740398D02*
X106597533Y-61692779D01*
X106597533Y-61692779D02*
X106502295Y-61692779D01*
X106502295Y-61692779D02*
X106407057Y-61740398D01*
X106407057Y-61740398D02*
X106359438Y-61788017D01*
X106359438Y-61788017D02*
X106311819Y-61883255D01*
X106311819Y-61883255D02*
X106311819Y-62121350D01*
X106311819Y-62121350D02*
X106359438Y-62264207D01*
X107311819Y-62692779D02*
X106311819Y-62692779D01*
X106311819Y-62692779D02*
X106311819Y-63073731D01*
X106311819Y-63073731D02*
X106359438Y-63168969D01*
X106359438Y-63168969D02*
X106407057Y-63216588D01*
X106407057Y-63216588D02*
X106502295Y-63264207D01*
X106502295Y-63264207D02*
X106645152Y-63264207D01*
X106645152Y-63264207D02*
X106740390Y-63216588D01*
X106740390Y-63216588D02*
X106788009Y-63168969D01*
X106788009Y-63168969D02*
X106835628Y-63073731D01*
X106835628Y-63073731D02*
X106835628Y-62692779D01*
X150593636Y-51623990D02*
X151546017Y-51623990D01*
X150403160Y-51052561D02*
X151069826Y-53052561D01*
X151069826Y-53052561D02*
X151736493Y-51052561D01*
X153450779Y-51052561D02*
X152307922Y-51052561D01*
X152879350Y-51052561D02*
X152879350Y-53052561D01*
X152879350Y-53052561D02*
X152688874Y-52766847D01*
X152688874Y-52766847D02*
X152498398Y-52576371D01*
X152498398Y-52576371D02*
X152307922Y-52481133D01*
X154688874Y-53052561D02*
X154879351Y-53052561D01*
X154879351Y-53052561D02*
X155069827Y-52957323D01*
X155069827Y-52957323D02*
X155165065Y-52862085D01*
X155165065Y-52862085D02*
X155260303Y-52671609D01*
X155260303Y-52671609D02*
X155355541Y-52290657D01*
X155355541Y-52290657D02*
X155355541Y-51814466D01*
X155355541Y-51814466D02*
X155260303Y-51433514D01*
X155260303Y-51433514D02*
X155165065Y-51243038D01*
X155165065Y-51243038D02*
X155069827Y-51147800D01*
X155069827Y-51147800D02*
X154879351Y-51052561D01*
X154879351Y-51052561D02*
X154688874Y-51052561D01*
X154688874Y-51052561D02*
X154498398Y-51147800D01*
X154498398Y-51147800D02*
X154403160Y-51243038D01*
X154403160Y-51243038D02*
X154307922Y-51433514D01*
X154307922Y-51433514D02*
X154212684Y-51814466D01*
X154212684Y-51814466D02*
X154212684Y-52290657D01*
X154212684Y-52290657D02*
X154307922Y-52671609D01*
X154307922Y-52671609D02*
X154403160Y-52862085D01*
X154403160Y-52862085D02*
X154498398Y-52957323D01*
X154498398Y-52957323D02*
X154688874Y-53052561D01*
X115376077Y-48399819D02*
X115042744Y-49399819D01*
X115042744Y-49399819D02*
X114709411Y-48399819D01*
X113090363Y-49399819D02*
X113661791Y-49399819D01*
X113376077Y-49399819D02*
X113376077Y-48399819D01*
X113376077Y-48399819D02*
X113471315Y-48542676D01*
X113471315Y-48542676D02*
X113566553Y-48637914D01*
X113566553Y-48637914D02*
X113661791Y-48685533D01*
X112661791Y-49304580D02*
X112614172Y-49352200D01*
X112614172Y-49352200D02*
X112661791Y-49399819D01*
X112661791Y-49399819D02*
X112709410Y-49352200D01*
X112709410Y-49352200D02*
X112661791Y-49304580D01*
X112661791Y-49304580D02*
X112661791Y-49399819D01*
X111995125Y-48399819D02*
X111899887Y-48399819D01*
X111899887Y-48399819D02*
X111804649Y-48447438D01*
X111804649Y-48447438D02*
X111757030Y-48495057D01*
X111757030Y-48495057D02*
X111709411Y-48590295D01*
X111709411Y-48590295D02*
X111661792Y-48780771D01*
X111661792Y-48780771D02*
X111661792Y-49018866D01*
X111661792Y-49018866D02*
X111709411Y-49209342D01*
X111709411Y-49209342D02*
X111757030Y-49304580D01*
X111757030Y-49304580D02*
X111804649Y-49352200D01*
X111804649Y-49352200D02*
X111899887Y-49399819D01*
X111899887Y-49399819D02*
X111995125Y-49399819D01*
X111995125Y-49399819D02*
X112090363Y-49352200D01*
X112090363Y-49352200D02*
X112137982Y-49304580D01*
X112137982Y-49304580D02*
X112185601Y-49209342D01*
X112185601Y-49209342D02*
X112233220Y-49018866D01*
X112233220Y-49018866D02*
X112233220Y-48780771D01*
X112233220Y-48780771D02*
X112185601Y-48590295D01*
X112185601Y-48590295D02*
X112137982Y-48495057D01*
X112137982Y-48495057D02*
X112090363Y-48447438D01*
X112090363Y-48447438D02*
X111995125Y-48399819D01*
M02*
