M48
; DRILL file {KiCad (5.1.5-0-10_14)} date Sunday, 24 October 2021 at 02:58:32 pm
; FORMAT={-:-/ absolute / metric / decimal}
; #@! TF.CreationDate,2021-10-24T14:58:32+10:00
; #@! TF.GenerationSoftware,Kicad,Pcbnew,(5.1.5-0-10_14)
; #@! TF.FileFunction,Plated,1,2,PTH
FMAT,2
METRIC
T1C0.700
T2C0.900
T3C1.000
T4C1.016
T5C1.200
%
G90
G05
T1
X132.588Y-74.803
X135.128Y-74.803
X154.305Y-74.93
X156.845Y-74.93
T2
X164.719Y-76.581
X167.259Y-76.581
X164.592Y-82.931
X167.132Y-82.931
T3
X158.115Y-84.328
X160.655Y-84.328
X150.241Y-84.455
X152.781Y-84.455
X127.254Y-70.866
X129.794Y-70.866
X132.334Y-70.866
X134.874Y-70.866
X137.414Y-70.866
X139.954Y-70.866
X142.494Y-70.866
X145.034Y-70.866
X154.178Y-119.126
X156.718Y-119.126
X159.258Y-119.126
X161.798Y-119.126
X164.338Y-119.126
X166.878Y-119.126
T4
X197.358Y-70.866
X197.358Y-73.406
X197.358Y-75.946
X197.358Y-78.486
X197.358Y-81.026
X197.358Y-83.566
X197.358Y-86.106
X197.358Y-88.646
X197.358Y-91.186
X197.358Y-93.726
X197.358Y-96.266
X197.358Y-98.806
X197.358Y-101.346
X197.358Y-103.886
X197.358Y-106.426
X197.358Y-108.966
X197.358Y-111.506
X197.358Y-114.046
X199.898Y-70.866
X199.898Y-73.406
X199.898Y-75.946
X199.898Y-78.486
X199.898Y-81.026
X199.898Y-83.566
X199.898Y-86.106
X199.898Y-88.646
X199.898Y-91.186
X199.898Y-93.726
X199.898Y-96.266
X199.898Y-98.806
X199.898Y-101.346
X199.898Y-103.886
X199.898Y-106.426
X199.898Y-108.966
X199.898Y-111.506
X199.898Y-114.046
X131.318Y-119.126
X133.858Y-119.126
X136.398Y-119.126
X138.938Y-119.126
X141.478Y-119.126
X144.018Y-119.126
X146.558Y-119.126
X149.098Y-119.126
X177.038Y-119.126
X179.578Y-119.126
X182.118Y-119.126
X184.658Y-119.126
X187.198Y-119.126
X189.738Y-119.126
X192.278Y-119.126
X194.818Y-119.126
X171.958Y-70.866
X174.498Y-70.866
X177.038Y-70.866
X179.578Y-70.866
X182.118Y-70.866
X184.658Y-70.866
X187.198Y-70.866
X189.738Y-70.866
X149.098Y-70.866
X151.638Y-70.866
X154.178Y-70.866
X156.718Y-70.866
X159.258Y-70.866
X161.798Y-70.866
X164.338Y-70.866
X166.878Y-70.866
T5
X207.772Y-71.374
X207.772Y-73.914
X207.772Y-76.454
X207.772Y-78.994
X207.772Y-81.534
X207.772Y-84.074
X207.772Y-86.614
X207.772Y-89.154
X209.55Y-95.25
X212.09Y-95.25
X214.63Y-95.25
X217.17Y-95.25
X185.166Y-87.376
X187.706Y-87.376
X190.246Y-87.376
X192.786Y-87.376
X172.339Y-78.676
X174.879Y-78.676
X177.419Y-78.676
X179.959Y-78.676
X182.499Y-78.676
X185.039Y-78.676
X180.213Y-101.473
X182.753Y-101.473
X185.293Y-101.473
X187.833Y-101.473
X190.373Y-101.473
X192.913Y-101.473
X127.381Y-89.662
X129.921Y-89.662
X132.461Y-89.662
X173.482Y-103.886
X176.022Y-103.886
X174.371Y-112.522
X176.911Y-112.522
X179.451Y-112.522
X181.991Y-112.522
X184.531Y-112.522
X187.071Y-112.522
X189.611Y-112.522
X192.151Y-112.522
X153.67Y-112.522
X156.21Y-112.522
X158.75Y-112.522
X161.29Y-112.522
X163.83Y-112.522
X166.37Y-112.522
X209.55Y-115.951
X212.09Y-115.951
X214.63Y-115.951
X217.17Y-115.951
X127.381Y-81.026
X129.921Y-81.026
X132.461Y-81.026
X135.001Y-81.026
X137.541Y-81.026
X140.081Y-81.026
X142.621Y-81.026
X145.161Y-81.026
X162.941Y-103.632
X165.481Y-103.632
X209.55Y-105.6
X212.09Y-105.6
X214.63Y-105.6
X217.17Y-105.6
X172.085Y-89.535
X174.625Y-89.535
X177.165Y-89.535
X179.705Y-89.535
T3
G00X134.335Y-105.807
M15
G01X134.335Y-107.807
M16
G05
G00X136.335Y-111.507
M15
G01X138.335Y-111.507
M16
G05
G00X140.335Y-105.807
M15
G01X140.335Y-107.807
M16
G05
T0
M30
