G04 #@! TF.GenerationSoftware,KiCad,Pcbnew,9.0.7*
G04 #@! TF.CreationDate,2026-08-09T06:20:03+10:00*
G04 #@! TF.ProjectId,Jet Ranger OLED Dual Stepper,4a657420-5261-46e6-9765-72204f4c4544,1.0*
G04 #@! TF.SameCoordinates,Original*
G04 #@! TF.FileFunction,Soldermask,Top*
G04 #@! TF.FilePolarity,Negative*
%FSLAX46Y46*%
G04 Gerber Fmt 4.6, Leading zero omitted, Abs format (unit mm)*
G04 Created by KiCad (PCBNEW 9.0.7) date 2026-08-09 06:20:03*
%MOMM*%
%LPD*%
G01*
G04 APERTURE LIST*
G04 Aperture macros list*
%AMRoundRect*
0 Rectangle with rounded corners*
0 $1 Rounding radius*
0 $2 $3 $4 $5 $6 $7 $8 $9 X,Y pos of 4 corners*
0 Add a 4 corners polygon primitive as box body*
4,1,4,$2,$3,$4,$5,$6,$7,$8,$9,$2,$3,0*
0 Add four circle primitives for the rounded corners*
1,1,$1+$1,$2,$3*
1,1,$1+$1,$4,$5*
1,1,$1+$1,$6,$7*
1,1,$1+$1,$8,$9*
0 Add four rect primitives between the rounded corners*
20,1,$1+$1,$2,$3,$4,$5,0*
20,1,$1+$1,$4,$5,$6,$7,0*
20,1,$1+$1,$6,$7,$8,$9,0*
20,1,$1+$1,$8,$9,$2,$3,0*%
G04 Aperture macros list end*
%ADD10C,2.000000*%
%ADD11RoundRect,0.250000X-0.620000X-0.845000X0.620000X-0.845000X0.620000X0.845000X-0.620000X0.845000X0*%
%ADD12O,1.740000X2.190000*%
%ADD13C,3.200000*%
%ADD14C,1.700000*%
%ADD15R,1.700000X1.700000*%
%ADD16O,1.700000X1.700000*%
%ADD17R,1.800000X1.800000*%
%ADD18C,1.800000*%
%ADD19C,1.600000*%
%ADD20R,3.500000X3.500000*%
%ADD21RoundRect,0.750000X0.750000X1.000000X-0.750000X1.000000X-0.750000X-1.000000X0.750000X-1.000000X0*%
%ADD22RoundRect,0.875000X0.875000X0.875000X-0.875000X0.875000X-0.875000X-0.875000X0.875000X-0.875000X0*%
%ADD23R,1.905000X2.000000*%
%ADD24O,1.905000X2.000000*%
%ADD25R,1.665000X1.665000*%
%ADD26C,1.665000*%
%ADD27O,1.727200X1.727200*%
%ADD28R,1.727200X1.727200*%
G04 APERTURE END LIST*
D10*
X111000000Y-109000000D03*
X111010000Y-103920000D03*
D11*
X90730000Y-109020000D03*
D12*
X93270000Y-109020000D03*
X95810000Y-109020000D03*
X98350000Y-109020000D03*
X100890000Y-109020000D03*
X103430000Y-109020000D03*
D13*
X126589800Y-38832100D03*
D14*
X57000000Y-122500000D03*
X59540000Y-122500000D03*
X62080000Y-122500000D03*
X64620000Y-122500000D03*
X67160000Y-122500000D03*
X69700000Y-122500000D03*
X72240000Y-122500000D03*
X74780000Y-122500000D03*
X77320000Y-122500000D03*
X79860000Y-122500000D03*
X82400000Y-122500000D03*
X84940000Y-122500000D03*
X84940000Y-104720000D03*
X82400000Y-104720000D03*
X79860000Y-104720000D03*
X77320000Y-104720000D03*
X74780000Y-104720000D03*
X72240000Y-104720000D03*
X69700000Y-104720000D03*
X67160000Y-104720000D03*
X64620000Y-104720000D03*
X62080000Y-104720000D03*
X59540000Y-104720000D03*
X57000000Y-104720000D03*
D15*
X63500000Y-41046400D03*
D16*
X60960000Y-41046400D03*
X58420000Y-41046400D03*
X55880000Y-41046400D03*
X53340000Y-41046400D03*
X50800000Y-41046400D03*
X48260000Y-41046400D03*
X45720000Y-41046400D03*
D15*
X117298000Y-50550000D03*
D16*
X117298000Y-48010000D03*
X117298000Y-45470000D03*
D15*
X86360000Y-41046400D03*
D16*
X83820000Y-41046400D03*
X81280000Y-41046400D03*
X78740000Y-41046400D03*
X76200000Y-41046400D03*
X73660000Y-41046400D03*
X71120000Y-41046400D03*
X68580000Y-41046400D03*
D17*
X127769000Y-87500000D03*
D18*
X125229000Y-87500000D03*
D11*
X53180000Y-87000000D03*
D12*
X55720000Y-87000000D03*
X58260000Y-87000000D03*
X60800000Y-87000000D03*
X63340000Y-87000000D03*
X65880000Y-87000000D03*
X68420000Y-87000000D03*
X70960000Y-87000000D03*
X73500000Y-87000000D03*
X76040000Y-87000000D03*
D19*
X117710700Y-82863900D03*
X120250700Y-82863900D03*
X117710700Y-79545900D03*
X120250700Y-79545900D03*
D13*
X32300000Y-38800000D03*
D15*
X39225000Y-41000000D03*
D16*
X41765000Y-41000000D03*
D20*
X118949000Y-118350000D03*
D21*
X124949000Y-118350000D03*
D22*
X121949000Y-113650000D03*
D11*
X53180000Y-77000000D03*
D12*
X55720000Y-77000000D03*
X58260000Y-77000000D03*
X60800000Y-77000000D03*
X63340000Y-77000000D03*
X65880000Y-77000000D03*
X68420000Y-77000000D03*
X70960000Y-77000000D03*
X73500000Y-77000000D03*
X76040000Y-77000000D03*
D13*
X125101000Y-130612200D03*
D11*
X53140000Y-66500000D03*
D12*
X55680000Y-66500000D03*
X58220000Y-66500000D03*
X60760000Y-66500000D03*
X63300000Y-66500000D03*
X65840000Y-66500000D03*
X68380000Y-66500000D03*
X70920000Y-66500000D03*
X73460000Y-66500000D03*
X76000000Y-66500000D03*
D17*
X113040000Y-85500000D03*
D18*
X110500000Y-85500000D03*
D17*
X127540000Y-81500000D03*
D18*
X125000000Y-81500000D03*
D10*
X110990000Y-120580000D03*
X111000000Y-115500000D03*
D15*
X33000000Y-98000000D03*
D14*
X33000000Y-95460000D03*
X33000000Y-92920000D03*
X33000000Y-90380000D03*
X33000000Y-87840000D03*
X33000000Y-85300000D03*
D19*
X117710700Y-86182000D03*
X120250700Y-86182000D03*
X125000000Y-91500000D03*
X127540000Y-91500000D03*
D11*
X53180000Y-56500000D03*
D12*
X55720000Y-56500000D03*
X58260000Y-56500000D03*
X60800000Y-56500000D03*
X63340000Y-56500000D03*
X65880000Y-56500000D03*
X68420000Y-56500000D03*
X70960000Y-56500000D03*
X73500000Y-56500000D03*
X76040000Y-56500000D03*
D15*
X68580000Y-98958400D03*
D16*
X66040000Y-98958400D03*
X63500000Y-98958400D03*
X60960000Y-98958400D03*
X58420000Y-98958400D03*
X55880000Y-98958400D03*
X53340000Y-98958400D03*
X50800000Y-98958400D03*
D11*
X34460000Y-120000000D03*
D12*
X37000000Y-120000000D03*
X39540000Y-120000000D03*
X42080000Y-120000000D03*
D11*
X81500000Y-87000000D03*
D12*
X84040000Y-87000000D03*
X86580000Y-87000000D03*
X89120000Y-87000000D03*
X91660000Y-87000000D03*
X94200000Y-87000000D03*
D19*
X96460000Y-54000000D03*
X99000000Y-54000000D03*
D11*
X34420000Y-109000000D03*
D12*
X36960000Y-109000000D03*
X39500000Y-109000000D03*
X42040000Y-109000000D03*
D23*
X83500000Y-55500000D03*
D24*
X86040000Y-55500000D03*
X88580000Y-55500000D03*
D13*
X33851800Y-130929500D03*
D25*
X121809000Y-55183300D03*
D26*
X119269000Y-55183300D03*
X116729000Y-55183300D03*
X114189000Y-55183300D03*
X111649000Y-55183300D03*
X109109000Y-55183300D03*
D25*
X121809000Y-75503300D03*
D26*
X119269000Y-75503300D03*
X116729000Y-75503300D03*
X114189000Y-75503300D03*
X111649000Y-75503300D03*
X109109000Y-75503300D03*
D17*
X113040000Y-90500000D03*
D18*
X110500000Y-90500000D03*
D19*
X117710700Y-89500000D03*
X120250700Y-89500000D03*
D15*
X109220000Y-41046400D03*
D16*
X106680000Y-41046400D03*
X104140000Y-41046400D03*
X101600000Y-41046400D03*
X99060000Y-41046400D03*
X96520000Y-41046400D03*
X93980000Y-41046400D03*
X91440000Y-41046400D03*
D15*
X118800000Y-125460000D03*
D16*
X118800000Y-128000000D03*
D11*
X94460000Y-128500000D03*
D12*
X97000000Y-128500000D03*
X99540000Y-128500000D03*
D11*
X81380000Y-77000000D03*
D12*
X83920000Y-77000000D03*
X86460000Y-77000000D03*
X89000000Y-77000000D03*
X91540000Y-77000000D03*
X94080000Y-77000000D03*
D19*
X111000000Y-51000000D03*
X113540000Y-51000000D03*
X96000000Y-60500000D03*
X98540000Y-60500000D03*
X104955000Y-49000000D03*
X107495000Y-49000000D03*
D11*
X90840000Y-119000000D03*
D12*
X93380000Y-119000000D03*
X95920000Y-119000000D03*
X98460000Y-119000000D03*
X101000000Y-119000000D03*
X103540000Y-119000000D03*
D15*
X44380000Y-127500000D03*
D14*
X46920000Y-127500000D03*
X49460000Y-127500000D03*
X52000000Y-127500000D03*
X54540000Y-127500000D03*
X57080000Y-127500000D03*
X59620000Y-127500000D03*
X62160000Y-127500000D03*
X64700000Y-127500000D03*
X67240000Y-127500000D03*
X69780000Y-127500000D03*
X72320000Y-127500000D03*
D17*
X113040000Y-80500000D03*
D18*
X110500000Y-80500000D03*
D20*
X120000000Y-106207500D03*
D21*
X126000000Y-106207500D03*
D22*
X123000000Y-101507500D03*
D15*
X95504000Y-98958400D03*
D16*
X98044000Y-98958400D03*
X100584000Y-98958400D03*
X103124000Y-98958400D03*
X105664000Y-98958400D03*
X108204000Y-98958400D03*
X110744000Y-98958400D03*
X113284000Y-98958400D03*
X115824000Y-98958400D03*
X118364000Y-98958400D03*
D11*
X81460000Y-66500000D03*
D12*
X84000000Y-66500000D03*
X86540000Y-66500000D03*
X89080000Y-66500000D03*
X91620000Y-66500000D03*
X94160000Y-66500000D03*
D15*
X40411400Y-98933000D03*
D16*
X42951400Y-98933000D03*
D15*
X44380000Y-132100000D03*
D14*
X46920000Y-132100000D03*
X49460000Y-132100000D03*
X52000000Y-132100000D03*
X54540000Y-132100000D03*
X57080000Y-132100000D03*
X59620000Y-132100000D03*
X62160000Y-132100000D03*
X64700000Y-132100000D03*
X67240000Y-132100000D03*
X69780000Y-132100000D03*
X72320000Y-132100000D03*
D15*
X73660000Y-98958400D03*
D16*
X76200000Y-98958400D03*
X78740000Y-98958400D03*
X81280000Y-98958400D03*
X83820000Y-98958400D03*
X86360000Y-98958400D03*
X88900000Y-98958400D03*
X91440000Y-98958400D03*
D27*
X109205000Y-46039300D03*
X101585000Y-46039300D03*
X99045000Y-46039300D03*
X43165000Y-94299300D03*
X40625000Y-94299300D03*
X86345000Y-46039300D03*
X83805000Y-46039300D03*
X81265000Y-46039300D03*
X78725000Y-46039300D03*
X76185000Y-46039300D03*
X73645000Y-46039300D03*
X71105000Y-46039300D03*
X68565000Y-46039300D03*
X63485000Y-46039300D03*
X60945000Y-46039300D03*
X58405000Y-46039300D03*
X55865000Y-46039300D03*
X53325000Y-46039300D03*
X50785000Y-46039300D03*
X48245000Y-46039300D03*
X45705000Y-46039300D03*
X113269000Y-94299300D03*
X73645000Y-94299300D03*
X76185000Y-94299300D03*
X78725000Y-94299300D03*
X81265000Y-94299300D03*
X83805000Y-94299300D03*
X86345000Y-94299300D03*
X88885000Y-94299300D03*
X91425000Y-94299300D03*
X95489000Y-94299300D03*
X98029000Y-94299300D03*
X100569000Y-94299300D03*
X103109000Y-94299300D03*
X105649000Y-94299300D03*
X108189000Y-94299300D03*
X68565000Y-94299300D03*
X66025000Y-94299300D03*
X63485000Y-94299300D03*
X60945000Y-94299300D03*
X58405000Y-94299300D03*
X55865000Y-94299300D03*
X53325000Y-94299300D03*
X50785000Y-94299300D03*
X43165000Y-91759300D03*
X40625000Y-91759300D03*
X43165000Y-89219300D03*
X40625000Y-89219300D03*
X43165000Y-86679300D03*
X40625000Y-86679300D03*
X43165000Y-84139300D03*
X40625000Y-84139300D03*
X43165000Y-81599300D03*
X40625000Y-81599300D03*
X43165000Y-79059300D03*
X40625000Y-79059300D03*
X43165000Y-76519300D03*
X40625000Y-76519300D03*
X43165000Y-73979300D03*
X40625000Y-73979300D03*
X43165000Y-71439300D03*
X40625000Y-71439300D03*
X43165000Y-68899300D03*
X40625000Y-68899300D03*
X43165000Y-66359300D03*
X40625000Y-66359300D03*
X43165000Y-63819300D03*
X40625000Y-63819300D03*
X43165000Y-61279300D03*
X40625000Y-61279300D03*
X43165000Y-58739300D03*
X40625000Y-58739300D03*
X43165000Y-56199300D03*
X40625000Y-56199300D03*
X43165000Y-53659300D03*
X40625000Y-53659300D03*
D28*
X110729000Y-94299300D03*
X96505000Y-46039300D03*
X93965000Y-46039300D03*
X43165000Y-51119300D03*
X40625000Y-51119300D03*
D27*
X106665000Y-46039300D03*
X104125000Y-46039300D03*
X118349000Y-94299300D03*
X115809000Y-94299300D03*
X91425000Y-46039300D03*
M02*
