G04 #@! TF.GenerationSoftware,KiCad,Pcbnew,9.0.4*
G04 #@! TF.CreationDate,2026-08-17T19:16:10+10:00*
G04 #@! TF.ProjectId,Jet Ranger OLED Dual Stepper,4a657420-5261-46e6-9765-72204f4c4544,1.0*
G04 #@! TF.SameCoordinates,Original*
G04 #@! TF.FileFunction,Copper,L1,Top*
G04 #@! TF.FilePolarity,Positive*
%FSLAX46Y46*%
G04 Gerber Fmt 4.6, Leading zero omitted, Abs format (unit mm)*
G04 Created by KiCad (PCBNEW 9.0.4) date 2026-08-17 19:16:10*
%MOMM*%
%LPD*%
G01*
G04 APERTURE LIST*
G04 Aperture macros list*
%AMRoundRect*
0 Rectangle with rounded corners*
0 $1 Rounding radius*
0 $2 $3 $4 $5 $6 $7 $8 $9 X,Y pos of 4 corners*
0 Add a 4 corners polygon primitive as box body*
4,1,4,$2,$3,$4,$5,$6,$7,$8,$9,$2,$3,0*
0 Add four circle primitives for the rounded corners*
1,1,$1+$1,$2,$3*
1,1,$1+$1,$4,$5*
1,1,$1+$1,$6,$7*
1,1,$1+$1,$8,$9*
0 Add four rect primitives between the rounded corners*
20,1,$1+$1,$2,$3,$4,$5,0*
20,1,$1+$1,$4,$5,$6,$7,0*
20,1,$1+$1,$6,$7,$8,$9,0*
20,1,$1+$1,$8,$9,$2,$3,0*%
G04 Aperture macros list end*
G04 #@! TA.AperFunction,ComponentPad*
%ADD10C,2.000000*%
G04 #@! TD*
G04 #@! TA.AperFunction,ComponentPad*
%ADD11RoundRect,0.250000X-0.620000X-0.845000X0.620000X-0.845000X0.620000X0.845000X-0.620000X0.845000X0*%
G04 #@! TD*
G04 #@! TA.AperFunction,ComponentPad*
%ADD12O,1.740000X2.190000*%
G04 #@! TD*
G04 #@! TA.AperFunction,ComponentPad*
%ADD13C,1.700000*%
G04 #@! TD*
G04 #@! TA.AperFunction,ComponentPad*
%ADD14R,1.700000X1.700000*%
G04 #@! TD*
G04 #@! TA.AperFunction,ComponentPad*
%ADD15O,1.700000X1.700000*%
G04 #@! TD*
G04 #@! TA.AperFunction,ComponentPad*
%ADD16R,1.800000X1.800000*%
G04 #@! TD*
G04 #@! TA.AperFunction,ComponentPad*
%ADD17C,1.800000*%
G04 #@! TD*
G04 #@! TA.AperFunction,ComponentPad*
%ADD18C,1.600000*%
G04 #@! TD*
G04 #@! TA.AperFunction,ComponentPad*
%ADD19R,3.500000X3.500000*%
G04 #@! TD*
G04 #@! TA.AperFunction,ComponentPad*
%ADD20RoundRect,0.750000X0.750000X1.000000X-0.750000X1.000000X-0.750000X-1.000000X0.750000X-1.000000X0*%
G04 #@! TD*
G04 #@! TA.AperFunction,ComponentPad*
%ADD21RoundRect,0.875000X0.875000X0.875000X-0.875000X0.875000X-0.875000X-0.875000X0.875000X-0.875000X0*%
G04 #@! TD*
G04 #@! TA.AperFunction,ComponentPad*
%ADD22R,1.905000X2.000000*%
G04 #@! TD*
G04 #@! TA.AperFunction,ComponentPad*
%ADD23O,1.905000X2.000000*%
G04 #@! TD*
G04 #@! TA.AperFunction,ComponentPad*
%ADD24RoundRect,0.250000X0.845000X-0.620000X0.845000X0.620000X-0.845000X0.620000X-0.845000X-0.620000X0*%
G04 #@! TD*
G04 #@! TA.AperFunction,ComponentPad*
%ADD25O,2.190000X1.740000*%
G04 #@! TD*
G04 #@! TA.AperFunction,ComponentPad*
%ADD26R,1.665000X1.665000*%
G04 #@! TD*
G04 #@! TA.AperFunction,ComponentPad*
%ADD27C,1.665000*%
G04 #@! TD*
G04 #@! TA.AperFunction,ComponentPad*
%ADD28O,1.727200X1.727200*%
G04 #@! TD*
G04 #@! TA.AperFunction,ComponentPad*
%ADD29R,1.727200X1.727200*%
G04 #@! TD*
G04 #@! TA.AperFunction,ViaPad*
%ADD30C,0.600000*%
G04 #@! TD*
G04 #@! TA.AperFunction,Conductor*
%ADD31C,0.250000*%
G04 #@! TD*
G04 APERTURE END LIST*
D10*
X111000000Y-109000000D03*
X111010000Y-103920000D03*
D11*
X90730000Y-109020000D03*
D12*
X93270000Y-109020000D03*
X95810000Y-109020000D03*
X98350000Y-109020000D03*
X100890000Y-109020000D03*
X103430000Y-109020000D03*
D13*
X57000000Y-122500000D03*
X59540000Y-122500000D03*
X62080000Y-122500000D03*
X64620000Y-122500000D03*
X67160000Y-122500000D03*
X69700000Y-122500000D03*
X72240000Y-122500000D03*
X74780000Y-122500000D03*
X77320000Y-122500000D03*
X79860000Y-122500000D03*
X82400000Y-122500000D03*
X84940000Y-122500000D03*
X84940000Y-104720000D03*
X82400000Y-104720000D03*
X79860000Y-104720000D03*
X77320000Y-104720000D03*
X74780000Y-104720000D03*
X72240000Y-104720000D03*
X69700000Y-104720000D03*
X67160000Y-104720000D03*
X64620000Y-104720000D03*
X62080000Y-104720000D03*
X59540000Y-104720000D03*
X57000000Y-104720000D03*
D14*
X63500000Y-41046400D03*
D15*
X60960000Y-41046400D03*
X58420000Y-41046400D03*
X55880000Y-41046400D03*
X53340000Y-41046400D03*
X50800000Y-41046400D03*
X48260000Y-41046400D03*
X45720000Y-41046400D03*
D14*
X117298000Y-50550000D03*
D15*
X117298000Y-48010000D03*
X117298000Y-45470000D03*
D14*
X86360000Y-41046400D03*
D15*
X83820000Y-41046400D03*
X81280000Y-41046400D03*
X78740000Y-41046400D03*
X76200000Y-41046400D03*
X73660000Y-41046400D03*
X71120000Y-41046400D03*
X68580000Y-41046400D03*
D16*
X124877200Y-87342000D03*
D17*
X122337200Y-87342000D03*
D11*
X53180000Y-87000000D03*
D12*
X55720000Y-87000000D03*
X58260000Y-87000000D03*
X60800000Y-87000000D03*
X63340000Y-87000000D03*
X65880000Y-87000000D03*
X68420000Y-87000000D03*
X70960000Y-87000000D03*
X73500000Y-87000000D03*
X76040000Y-87000000D03*
D18*
X114818900Y-82705900D03*
X117358900Y-82705900D03*
X114818900Y-79387900D03*
X117358900Y-79387900D03*
D14*
X39225000Y-41000000D03*
D15*
X41765000Y-41000000D03*
D19*
X118949000Y-118350000D03*
D20*
X124949000Y-118350000D03*
D21*
X121949000Y-113650000D03*
D11*
X53180000Y-77000000D03*
D12*
X55720000Y-77000000D03*
X58260000Y-77000000D03*
X60800000Y-77000000D03*
X63340000Y-77000000D03*
X65880000Y-77000000D03*
X68420000Y-77000000D03*
X70960000Y-77000000D03*
X73500000Y-77000000D03*
X76040000Y-77000000D03*
D11*
X53140000Y-66500000D03*
D12*
X55680000Y-66500000D03*
X58220000Y-66500000D03*
X60760000Y-66500000D03*
X63300000Y-66500000D03*
X65840000Y-66500000D03*
X68380000Y-66500000D03*
X70920000Y-66500000D03*
X73460000Y-66500000D03*
X76000000Y-66500000D03*
D16*
X110148200Y-85342000D03*
D17*
X107608200Y-85342000D03*
D16*
X124648200Y-81342000D03*
D17*
X122108200Y-81342000D03*
D10*
X110990000Y-120580000D03*
X111000000Y-115500000D03*
D14*
X33000000Y-98000000D03*
D13*
X33000000Y-95460000D03*
X33000000Y-92920000D03*
X33000000Y-90380000D03*
X33000000Y-87840000D03*
X33000000Y-85300000D03*
D18*
X114818900Y-86024000D03*
X117358900Y-86024000D03*
D11*
X54880000Y-129500000D03*
D12*
X57420000Y-129500000D03*
X59960000Y-129500000D03*
X62500000Y-129500000D03*
D18*
X122108200Y-91342000D03*
X124648200Y-91342000D03*
D11*
X53180000Y-56500000D03*
D12*
X55720000Y-56500000D03*
X58260000Y-56500000D03*
X60800000Y-56500000D03*
X63340000Y-56500000D03*
X65880000Y-56500000D03*
X68420000Y-56500000D03*
X70960000Y-56500000D03*
X73500000Y-56500000D03*
X76040000Y-56500000D03*
D14*
X68580000Y-98958400D03*
D15*
X66040000Y-98958400D03*
X63500000Y-98958400D03*
X60960000Y-98958400D03*
X58420000Y-98958400D03*
X55880000Y-98958400D03*
X53340000Y-98958400D03*
X50800000Y-98958400D03*
D11*
X42960000Y-117500000D03*
D12*
X45500000Y-117500000D03*
X48040000Y-117500000D03*
X50580000Y-117500000D03*
D11*
X81500000Y-87000000D03*
D12*
X84040000Y-87000000D03*
X86580000Y-87000000D03*
X89120000Y-87000000D03*
X91660000Y-87000000D03*
X94200000Y-87000000D03*
D18*
X96460000Y-54000000D03*
X99000000Y-54000000D03*
D11*
X42960000Y-108000000D03*
D12*
X45500000Y-108000000D03*
X48040000Y-108000000D03*
X50580000Y-108000000D03*
D22*
X83500000Y-55500000D03*
D23*
X86040000Y-55500000D03*
X88580000Y-55500000D03*
D24*
X35000000Y-120200000D03*
D25*
X35000000Y-117660000D03*
X35000000Y-115120000D03*
X35000000Y-112580000D03*
X35000000Y-110040000D03*
X35000000Y-107500000D03*
D26*
X121809000Y-55183300D03*
D27*
X119269000Y-55183300D03*
X116729000Y-55183300D03*
X114189000Y-55183300D03*
X111649000Y-55183300D03*
X109109000Y-55183300D03*
D26*
X121809000Y-75503300D03*
D27*
X119269000Y-75503300D03*
X116729000Y-75503300D03*
X114189000Y-75503300D03*
X111649000Y-75503300D03*
X109109000Y-75503300D03*
D16*
X110148200Y-90342000D03*
D17*
X107608200Y-90342000D03*
D18*
X114818900Y-89342000D03*
X117358900Y-89342000D03*
D14*
X109220000Y-41046400D03*
D15*
X106680000Y-41046400D03*
X104140000Y-41046400D03*
X101600000Y-41046400D03*
X99060000Y-41046400D03*
X96520000Y-41046400D03*
X93980000Y-41046400D03*
X91440000Y-41046400D03*
D14*
X118800000Y-125460000D03*
D15*
X118800000Y-128000000D03*
D11*
X103960000Y-128500000D03*
D12*
X106500000Y-128500000D03*
X109040000Y-128500000D03*
D11*
X81380000Y-77000000D03*
D12*
X83920000Y-77000000D03*
X86460000Y-77000000D03*
X89000000Y-77000000D03*
X91540000Y-77000000D03*
X94080000Y-77000000D03*
D18*
X111000000Y-51000000D03*
X113540000Y-51000000D03*
X96000000Y-60500000D03*
X98540000Y-60500000D03*
X104955000Y-49000000D03*
X107495000Y-49000000D03*
D11*
X90840000Y-119000000D03*
D12*
X93380000Y-119000000D03*
X95920000Y-119000000D03*
X98460000Y-119000000D03*
X101000000Y-119000000D03*
X103540000Y-119000000D03*
D11*
X41460000Y-129500000D03*
D12*
X44000000Y-129500000D03*
X46540000Y-129500000D03*
X49080000Y-129500000D03*
D14*
X68180000Y-127000000D03*
D13*
X70720000Y-127000000D03*
X73260000Y-127000000D03*
X75800000Y-127000000D03*
X78340000Y-127000000D03*
X80880000Y-127000000D03*
X83420000Y-127000000D03*
X85960000Y-127000000D03*
X88500000Y-127000000D03*
X91040000Y-127000000D03*
X93580000Y-127000000D03*
X96120000Y-127000000D03*
D16*
X110148200Y-80342000D03*
D17*
X107608200Y-80342000D03*
D19*
X120000000Y-106207500D03*
D20*
X126000000Y-106207500D03*
D21*
X123000000Y-101507500D03*
D14*
X95504000Y-98958400D03*
D15*
X98044000Y-98958400D03*
X100584000Y-98958400D03*
X103124000Y-98958400D03*
X105664000Y-98958400D03*
X108204000Y-98958400D03*
X110744000Y-98958400D03*
X113284000Y-98958400D03*
X115824000Y-98958400D03*
X118364000Y-98958400D03*
D11*
X81460000Y-66500000D03*
D12*
X84000000Y-66500000D03*
X86540000Y-66500000D03*
X89080000Y-66500000D03*
X91620000Y-66500000D03*
X94160000Y-66500000D03*
D14*
X40411400Y-98933000D03*
D15*
X42951400Y-98933000D03*
D14*
X68180000Y-131600000D03*
D13*
X70720000Y-131600000D03*
X73260000Y-131600000D03*
X75800000Y-131600000D03*
X78340000Y-131600000D03*
X80880000Y-131600000D03*
X83420000Y-131600000D03*
X85960000Y-131600000D03*
X88500000Y-131600000D03*
X91040000Y-131600000D03*
X93580000Y-131600000D03*
X96120000Y-131600000D03*
D14*
X73660000Y-98958400D03*
D15*
X76200000Y-98958400D03*
X78740000Y-98958400D03*
X81280000Y-98958400D03*
X83820000Y-98958400D03*
X86360000Y-98958400D03*
X88900000Y-98958400D03*
X91440000Y-98958400D03*
D28*
X109205000Y-46039300D03*
X101585000Y-46039300D03*
X99045000Y-46039300D03*
X43165000Y-94299300D03*
X40625000Y-94299300D03*
X86345000Y-46039300D03*
X83805000Y-46039300D03*
X81265000Y-46039300D03*
X78725000Y-46039300D03*
X76185000Y-46039300D03*
X73645000Y-46039300D03*
X71105000Y-46039300D03*
X68565000Y-46039300D03*
X63485000Y-46039300D03*
X60945000Y-46039300D03*
X58405000Y-46039300D03*
X55865000Y-46039300D03*
X53325000Y-46039300D03*
X50785000Y-46039300D03*
X48245000Y-46039300D03*
X45705000Y-46039300D03*
X113269000Y-94299300D03*
X73645000Y-94299300D03*
X76185000Y-94299300D03*
X78725000Y-94299300D03*
X81265000Y-94299300D03*
X83805000Y-94299300D03*
X86345000Y-94299300D03*
X88885000Y-94299300D03*
X91425000Y-94299300D03*
X95489000Y-94299300D03*
X98029000Y-94299300D03*
X100569000Y-94299300D03*
X103109000Y-94299300D03*
X105649000Y-94299300D03*
X108189000Y-94299300D03*
X68565000Y-94299300D03*
X66025000Y-94299300D03*
X63485000Y-94299300D03*
X60945000Y-94299300D03*
X58405000Y-94299300D03*
X55865000Y-94299300D03*
X53325000Y-94299300D03*
X50785000Y-94299300D03*
X43165000Y-91759300D03*
X40625000Y-91759300D03*
X43165000Y-89219300D03*
X40625000Y-89219300D03*
X43165000Y-86679300D03*
X40625000Y-86679300D03*
X43165000Y-84139300D03*
X40625000Y-84139300D03*
X43165000Y-81599300D03*
X40625000Y-81599300D03*
X43165000Y-79059300D03*
X40625000Y-79059300D03*
X43165000Y-76519300D03*
X40625000Y-76519300D03*
X43165000Y-73979300D03*
X40625000Y-73979300D03*
X43165000Y-71439300D03*
X40625000Y-71439300D03*
X43165000Y-68899300D03*
X40625000Y-68899300D03*
X43165000Y-66359300D03*
X40625000Y-66359300D03*
X43165000Y-63819300D03*
X40625000Y-63819300D03*
X43165000Y-61279300D03*
X40625000Y-61279300D03*
X43165000Y-58739300D03*
X40625000Y-58739300D03*
X43165000Y-56199300D03*
X40625000Y-56199300D03*
X43165000Y-53659300D03*
X40625000Y-53659300D03*
D29*
X110729000Y-94299300D03*
X96505000Y-46039300D03*
X93965000Y-46039300D03*
X43165000Y-51119300D03*
X40625000Y-51119300D03*
D28*
X106665000Y-46039300D03*
X104125000Y-46039300D03*
X118349000Y-94299300D03*
X115809000Y-94299300D03*
X91425000Y-46039300D03*
D30*
X64604900Y-78447100D03*
X48929600Y-63591100D03*
X99759300Y-92915600D03*
X68638100Y-80668500D03*
X76321300Y-69702600D03*
X57740300Y-72981000D03*
X58031300Y-60230200D03*
X78154700Y-56513900D03*
X65859900Y-119496700D03*
X78822300Y-85673800D03*
X69724900Y-81832700D03*
X65511500Y-60683900D03*
X52677500Y-64438300D03*
X79094800Y-56351000D03*
X64755000Y-93623200D03*
X67169600Y-118838000D03*
X57770100Y-121124100D03*
D31*
X108868900Y-84081300D02*
X107608200Y-85342000D01*
X115416200Y-84081300D02*
X108868900Y-84081300D01*
X117358900Y-86024000D02*
X115416200Y-84081300D01*
X116380100Y-122355000D02*
X120944000Y-122355000D01*
X45195100Y-130097600D02*
X46064900Y-130967400D01*
X110148200Y-80342000D02*
X111373300Y-80342000D01*
X121809000Y-74345700D02*
X116747700Y-69284400D01*
X43165000Y-49930600D02*
X41765000Y-48530600D01*
X42940100Y-41000000D02*
X44546600Y-39393500D01*
X42951400Y-100108100D02*
X44304900Y-101461600D01*
X46064900Y-130967400D02*
X55715200Y-130967400D01*
X43165000Y-51119300D02*
X43165000Y-49930600D01*
X45500000Y-117500000D02*
X44304900Y-117500000D01*
X122657500Y-80116900D02*
X123423100Y-80882500D01*
X44000000Y-129500000D02*
X45195100Y-129500000D01*
X121809000Y-75503300D02*
X121809000Y-74345700D01*
X119269000Y-55183300D02*
X120651400Y-55183300D01*
X124648200Y-81342000D02*
X123423100Y-81342000D01*
X111373300Y-80342000D02*
X111999600Y-80968300D01*
X42562600Y-120200000D02*
X44304900Y-118457700D01*
X57420000Y-129500000D02*
X56224900Y-129500000D01*
X35000000Y-120200000D02*
X42562600Y-120200000D01*
X96000000Y-60500000D02*
X97185800Y-59314200D01*
X116747700Y-69284400D02*
X116747700Y-59314200D01*
X42562600Y-120200000D02*
X44000000Y-121637400D01*
X93980000Y-41046400D02*
X92804900Y-41046400D01*
X41765000Y-41000000D02*
X42940100Y-41000000D01*
X121809000Y-55183300D02*
X120651400Y-55183300D01*
X116747700Y-59314200D02*
X116747700Y-57704600D01*
X55715200Y-130967400D02*
X56224900Y-130457700D01*
X93980000Y-41046400D02*
X96520000Y-41046400D01*
X120944000Y-122355000D02*
X124949000Y-118350000D01*
X119575200Y-80968300D02*
X120426600Y-80116900D01*
X44304900Y-101461600D02*
X44304900Y-108000000D01*
X42951400Y-98933000D02*
X42951400Y-100108100D01*
X41765000Y-48530600D02*
X41765000Y-41000000D01*
X97185800Y-59314200D02*
X116747700Y-59314200D01*
X109040000Y-128500000D02*
X110235100Y-128500000D01*
X91517200Y-39393500D02*
X92804900Y-40681200D01*
X44546600Y-39393500D02*
X91517200Y-39393500D01*
X116747700Y-57704600D02*
X119269000Y-55183300D01*
X44304900Y-118457700D02*
X44304900Y-117500000D01*
X120426600Y-80116900D02*
X122657500Y-80116900D01*
X123423100Y-80882500D02*
X123423100Y-81342000D01*
X92804900Y-40681200D02*
X92804900Y-41046400D01*
X45500000Y-108000000D02*
X44304900Y-108000000D01*
X56224900Y-130457700D02*
X56224900Y-129500000D01*
X93965000Y-46039300D02*
X96505000Y-46039300D01*
X44000000Y-121637400D02*
X44000000Y-129500000D01*
X45195100Y-129500000D02*
X45195100Y-130097600D01*
X111999600Y-80968300D02*
X119575200Y-80968300D01*
X110235100Y-128500000D02*
X116380100Y-122355000D01*
X117358900Y-89342000D02*
X116202000Y-88185100D01*
X109765100Y-88185100D02*
X107608200Y-90342000D01*
X116202000Y-88185100D02*
X109765100Y-88185100D01*
X108833300Y-79116900D02*
X107608200Y-80342000D01*
X116228600Y-80518200D02*
X113161200Y-80518200D01*
X113161200Y-80518200D02*
X111759900Y-79116900D01*
X111759900Y-79116900D02*
X108833300Y-79116900D01*
X117358900Y-79387900D02*
X116228600Y-80518200D01*
X120744300Y-82705900D02*
X122108200Y-81342000D01*
X117358900Y-82705900D02*
X120744300Y-82705900D01*
X118949000Y-118350000D02*
X113850000Y-118350000D01*
X113850000Y-118350000D02*
X111000000Y-115500000D01*
X43165000Y-94299300D02*
X44353700Y-94299300D01*
X105397900Y-129937900D02*
X103960000Y-128500000D01*
X70513400Y-95503500D02*
X80487300Y-85529600D01*
X101178100Y-86567200D02*
X114275700Y-86567200D01*
X117624900Y-125460000D02*
X113147000Y-129937900D01*
X67295000Y-94772000D02*
X68026500Y-95503500D01*
X113147000Y-129937900D02*
X105397900Y-129937900D01*
X80487300Y-85529600D02*
X100140500Y-85529600D01*
X100140500Y-85529600D02*
X101178100Y-86567200D01*
X44353700Y-94299300D02*
X45670400Y-92982600D01*
X118800000Y-125460000D02*
X117624900Y-125460000D01*
X114275700Y-86567200D02*
X114818900Y-86024000D01*
X66446300Y-92982600D02*
X67295000Y-93831300D01*
X45670400Y-92982600D02*
X66446300Y-92982600D01*
X40625000Y-94299300D02*
X43165000Y-94299300D01*
X67295000Y-93831300D02*
X67295000Y-94772000D01*
X68026500Y-95503500D02*
X70513400Y-95503500D01*
X43165000Y-53659300D02*
X46549700Y-53659300D01*
X110963900Y-58408400D02*
X114189000Y-55183300D01*
X51298800Y-58408400D02*
X110963900Y-58408400D01*
X46549700Y-53659300D02*
X51298800Y-58408400D01*
X41813700Y-63449800D02*
X42634800Y-62628700D01*
X64684900Y-76402500D02*
X64684900Y-77000000D01*
X59324600Y-71042200D02*
X64684900Y-76402500D01*
X42634800Y-62628700D02*
X44287900Y-62628700D01*
X52701400Y-71042200D02*
X59324600Y-71042200D01*
X44287900Y-62628700D02*
X52701400Y-71042200D01*
X41813700Y-63819300D02*
X41813700Y-63449800D01*
X65880000Y-77000000D02*
X64684900Y-77000000D01*
X40625000Y-63819300D02*
X41813700Y-63819300D01*
X52895900Y-84424800D02*
X57660000Y-84424800D01*
X41813700Y-76519300D02*
X41813700Y-76147800D01*
X41813700Y-76147800D02*
X42653000Y-75308500D01*
X43779600Y-75308500D02*
X52895900Y-84424800D01*
X57660000Y-84424800D02*
X59604900Y-86369700D01*
X59604900Y-86369700D02*
X59604900Y-87000000D01*
X40625000Y-76519300D02*
X41813700Y-76519300D01*
X42653000Y-75308500D02*
X43779600Y-75308500D01*
X60800000Y-87000000D02*
X59604900Y-87000000D01*
X100958900Y-69009300D02*
X108667600Y-76718000D01*
X110434300Y-76718000D02*
X111649000Y-75503300D01*
X40253500Y-54848000D02*
X39431900Y-55669600D01*
X67110000Y-67159000D02*
X68960300Y-69009300D01*
X108667600Y-76718000D02*
X110434300Y-76718000D01*
X40625000Y-53659300D02*
X40625000Y-54848000D01*
X40625000Y-54848000D02*
X40253500Y-54848000D01*
X48922200Y-62037700D02*
X63369200Y-62037700D01*
X44353800Y-57469300D02*
X48922200Y-62037700D01*
X40187900Y-57469300D02*
X44353800Y-57469300D01*
X68960300Y-69009300D02*
X100958900Y-69009300D01*
X63369200Y-62037700D02*
X67110000Y-65778500D01*
X39431900Y-56713300D02*
X40187900Y-57469300D01*
X67110000Y-65778500D02*
X67110000Y-67159000D01*
X39431900Y-55669600D02*
X39431900Y-56713300D01*
X54524900Y-86042300D02*
X54524900Y-87000000D01*
X52607800Y-85410000D02*
X53892600Y-85410000D01*
X47445800Y-80248000D02*
X52607800Y-85410000D01*
X41813700Y-79430900D02*
X42630800Y-80248000D01*
X42630800Y-80248000D02*
X47445800Y-80248000D01*
X41813700Y-79059300D02*
X41813700Y-79430900D01*
X55720000Y-87000000D02*
X54524900Y-87000000D01*
X53892600Y-85410000D02*
X54524900Y-86042300D01*
X40625000Y-79059300D02*
X41813700Y-79059300D01*
X58567700Y-75355000D02*
X59455100Y-76242400D01*
X45471900Y-66359300D02*
X54467600Y-75355000D01*
X54467600Y-75355000D02*
X58567700Y-75355000D01*
X59455100Y-77588000D02*
X60314200Y-78447100D01*
X60314200Y-78447100D02*
X64604900Y-78447100D01*
X59455100Y-76242400D02*
X59455100Y-77588000D01*
X43165000Y-66359300D02*
X45471900Y-66359300D01*
X109109000Y-75503300D02*
X93210800Y-59605100D01*
X93210800Y-59605100D02*
X47759500Y-59605100D01*
X47759500Y-59605100D02*
X44353700Y-56199300D01*
X43165000Y-56199300D02*
X44353700Y-56199300D01*
X64644900Y-66500000D02*
X64644900Y-65869700D01*
X64644900Y-65869700D02*
X62366300Y-63591100D01*
X65840000Y-66500000D02*
X64644900Y-66500000D01*
X62366300Y-63591100D02*
X48929600Y-63591100D01*
X63832600Y-80437400D02*
X69764900Y-86369700D01*
X42653000Y-70228500D02*
X44093600Y-70228500D01*
X69764900Y-86369700D02*
X69764900Y-87000000D01*
X54302500Y-80437400D02*
X63832600Y-80437400D01*
X41813700Y-71067800D02*
X42653000Y-70228500D01*
X44093600Y-70228500D02*
X54302500Y-80437400D01*
X70960000Y-87000000D02*
X69764900Y-87000000D01*
X40625000Y-71439300D02*
X41813700Y-71439300D01*
X41813700Y-71439300D02*
X41813700Y-71067800D01*
X41813700Y-56199300D02*
X41813700Y-55829800D01*
X41813700Y-55829800D02*
X42634800Y-55008700D01*
X42634800Y-55008700D02*
X47262500Y-55008700D01*
X47262500Y-55008700D02*
X51112300Y-58858500D01*
X51112300Y-58858500D02*
X113053800Y-58858500D01*
X40625000Y-56199300D02*
X41813700Y-56199300D01*
X113053800Y-58858500D02*
X116729000Y-55183300D01*
X82674400Y-82705900D02*
X71081000Y-94299300D01*
X114818900Y-82705900D02*
X82674400Y-82705900D01*
X71081000Y-94299300D02*
X68565000Y-94299300D01*
X67582300Y-97783300D02*
X101376600Y-97783300D01*
X67215100Y-98150500D02*
X67582300Y-97783300D01*
X104379000Y-94780900D02*
X104379000Y-93841200D01*
X120697000Y-92753200D02*
X122108200Y-91342000D01*
X104379000Y-93841200D02*
X105467000Y-92753200D01*
X66040000Y-98958400D02*
X67215100Y-98958400D01*
X105467000Y-92753200D02*
X120697000Y-92753200D01*
X101376600Y-97783300D02*
X104379000Y-94780900D01*
X67215100Y-98958400D02*
X67215100Y-98150500D01*
X91425000Y-94299300D02*
X90236300Y-94299300D01*
X90236300Y-93927700D02*
X89419200Y-93110600D01*
X90236300Y-94299300D02*
X90236300Y-93927700D01*
X89419200Y-93110600D02*
X87610600Y-93110600D01*
X87610600Y-93110600D02*
X81500000Y-87000000D01*
X87533700Y-94299300D02*
X87533700Y-94640300D01*
X99217800Y-94800100D02*
X99217800Y-93457100D01*
X87533700Y-94640300D02*
X88428900Y-95535500D01*
X98482400Y-95535500D02*
X99217800Y-94800100D01*
X88428900Y-95535500D02*
X98482400Y-95535500D01*
X86345000Y-94299300D02*
X87533700Y-94299300D01*
X99217800Y-93457100D02*
X99759300Y-92915600D01*
X91718600Y-91573800D02*
X87775100Y-87630300D01*
X96840300Y-93927800D02*
X94486300Y-91573800D01*
X86580000Y-87000000D02*
X87775100Y-87000000D01*
X94486300Y-91573800D02*
X91718600Y-91573800D01*
X96840300Y-94299300D02*
X96840300Y-93927800D01*
X87775100Y-87630300D02*
X87775100Y-87000000D01*
X98029000Y-94299300D02*
X96840300Y-94299300D01*
X102773700Y-46039300D02*
X102773700Y-46410900D01*
X100348200Y-124210300D02*
X58710300Y-124210300D01*
X122639800Y-107605300D02*
X116985900Y-113259200D01*
X119269000Y-75503300D02*
X116729000Y-75503300D01*
X116985900Y-113259200D02*
X111299300Y-113259200D01*
X126119800Y-80525000D02*
X126119800Y-102634800D01*
X101585000Y-46039300D02*
X102773700Y-46039300D01*
X122639800Y-106114800D02*
X122639800Y-107605300D01*
X119269000Y-75503300D02*
X120959400Y-77193700D01*
X58710300Y-124210300D02*
X57000000Y-122500000D01*
X103590800Y-47228000D02*
X107335100Y-47228000D01*
X111000000Y-50892900D02*
X111000000Y-51000000D01*
X126119800Y-102634800D02*
X122639800Y-106114800D01*
X120959400Y-77193700D02*
X122788500Y-77193700D01*
X111299300Y-113259200D02*
X100348200Y-124210300D01*
X122788500Y-77193700D02*
X126119800Y-80525000D01*
X107335100Y-47228000D02*
X111000000Y-50892900D01*
X102773700Y-46410900D02*
X103590800Y-47228000D01*
X91425000Y-44850600D02*
X91440000Y-44835600D01*
X91425000Y-46039300D02*
X91425000Y-44850600D01*
X91440000Y-44835600D02*
X91440000Y-41046400D01*
X67224900Y-86369700D02*
X67224900Y-87000000D01*
X68420000Y-87000000D02*
X67224900Y-87000000D01*
X43165000Y-71439300D02*
X44353700Y-71439300D01*
X53802000Y-80887600D02*
X61742800Y-80887600D01*
X61742800Y-80887600D02*
X67224900Y-86369700D01*
X44353700Y-71439300D02*
X53802000Y-80887600D01*
X110509700Y-53145900D02*
X112270000Y-51385600D01*
X46218300Y-52466400D02*
X51710200Y-57958300D01*
X117298000Y-45470000D02*
X117298000Y-46645100D01*
X38963500Y-53607300D02*
X40104400Y-52466400D01*
X38963500Y-57077800D02*
X38963500Y-53607300D01*
X51710200Y-57958300D02*
X98285600Y-57958300D01*
X40104400Y-52466400D02*
X46218300Y-52466400D01*
X98285600Y-57958300D02*
X103098000Y-53145900D01*
X116294900Y-46645100D02*
X117298000Y-46645100D01*
X112270000Y-50670000D02*
X116294900Y-46645100D01*
X40625000Y-58739300D02*
X38963500Y-57077800D01*
X103098000Y-53145900D02*
X110509700Y-53145900D01*
X112270000Y-51385600D02*
X112270000Y-50670000D01*
X42793400Y-87868000D02*
X41976300Y-88685100D01*
X33810200Y-96824900D02*
X33000000Y-96824900D01*
X41058200Y-90489300D02*
X40145800Y-90489300D01*
X43165000Y-87267900D02*
X44820800Y-88923700D01*
X43165000Y-87868000D02*
X42793400Y-87868000D01*
X73537500Y-88923700D02*
X74770000Y-87691200D01*
X69501300Y-80668500D02*
X68638100Y-80668500D01*
X33000000Y-98000000D02*
X33000000Y-96824900D01*
X74770000Y-85937200D02*
X69501300Y-80668500D01*
X44820800Y-88923700D02*
X73537500Y-88923700D01*
X40145800Y-90489300D02*
X33810200Y-96824900D01*
X43165000Y-87267900D02*
X43165000Y-87868000D01*
X43165000Y-86679300D02*
X43165000Y-87267900D01*
X74770000Y-87691200D02*
X74770000Y-85937200D01*
X41976300Y-89571200D02*
X41058200Y-90489300D01*
X41976300Y-88685100D02*
X41976300Y-89571200D01*
X76321300Y-69702600D02*
X72230000Y-73793900D01*
X58371900Y-79087100D02*
X56915100Y-77630300D01*
X72230000Y-77663400D02*
X70806300Y-79087100D01*
X70806300Y-79087100D02*
X58371900Y-79087100D01*
X55720000Y-77000000D02*
X56915100Y-77000000D01*
X86345000Y-44850600D02*
X86360000Y-44835600D01*
X86360000Y-44835600D02*
X86360000Y-41046400D01*
X56915100Y-77630300D02*
X56915100Y-77000000D01*
X72230000Y-73793900D02*
X72230000Y-77663400D01*
X86345000Y-46039300D02*
X86345000Y-44850600D01*
X60997200Y-70142000D02*
X67224900Y-76369700D01*
X53216400Y-70142000D02*
X60997200Y-70142000D01*
X43165000Y-61279300D02*
X44353700Y-61279300D01*
X44353700Y-61279300D02*
X53216400Y-70142000D01*
X68420000Y-77000000D02*
X67224900Y-77000000D01*
X67224900Y-76369700D02*
X67224900Y-77000000D01*
X64684900Y-55304900D02*
X64684900Y-56500000D01*
X65880000Y-56500000D02*
X64684900Y-56500000D01*
X57186000Y-45571000D02*
X57186000Y-47806000D01*
X58408900Y-44348100D02*
X57186000Y-45571000D01*
X63485000Y-46039300D02*
X61793800Y-44348100D01*
X61793800Y-44348100D02*
X58408900Y-44348100D01*
X57186000Y-47806000D02*
X64684900Y-55304900D01*
X41976300Y-81970900D02*
X41159200Y-82788000D01*
X43165000Y-81599300D02*
X41976300Y-81599300D01*
X44898200Y-65148800D02*
X40109400Y-65148800D01*
X57740300Y-72981000D02*
X52730400Y-72981000D01*
X34364800Y-86475200D02*
X33000000Y-86475200D01*
X41159200Y-82788000D02*
X38052000Y-82788000D01*
X31778600Y-73479600D02*
X31778600Y-85786900D01*
X33000000Y-86475200D02*
X33000000Y-87840000D01*
X40109400Y-65148800D02*
X31778600Y-73479600D01*
X31778600Y-85786900D02*
X32466900Y-86475200D01*
X32466900Y-86475200D02*
X33000000Y-86475200D01*
X52730400Y-72981000D02*
X44898200Y-65148800D01*
X38052000Y-82788000D02*
X34364800Y-86475200D01*
X41976300Y-81599300D02*
X41976300Y-81970900D01*
X89120000Y-87000000D02*
X90315100Y-87000000D01*
X96919400Y-88926900D02*
X91611700Y-88926900D01*
X90315100Y-87630300D02*
X90315100Y-87000000D01*
X91611700Y-88926900D02*
X90315100Y-87630300D01*
X101920300Y-94299300D02*
X101920300Y-93927800D01*
X101920300Y-93927800D02*
X96919400Y-88926900D01*
X103109000Y-94299300D02*
X101920300Y-94299300D01*
X36700700Y-81599300D02*
X33000000Y-85300000D01*
X40625000Y-81599300D02*
X36700700Y-81599300D01*
X79103400Y-64143400D02*
X81460000Y-66500000D01*
X62198400Y-60230200D02*
X66111600Y-64143400D01*
X58031300Y-60230200D02*
X62198400Y-60230200D01*
X66111600Y-64143400D02*
X79103400Y-64143400D01*
X45705000Y-46039300D02*
X45705000Y-44850600D01*
X45705000Y-44850600D02*
X45720000Y-44835600D01*
X45720000Y-44835600D02*
X45720000Y-41046400D01*
X63288200Y-43897900D02*
X53340000Y-43897900D01*
X53340000Y-43897900D02*
X53340000Y-41046400D01*
X73548700Y-54158400D02*
X63288200Y-43897900D01*
X78154700Y-56513900D02*
X75799200Y-54158400D01*
X53325000Y-44850600D02*
X53340000Y-44835600D01*
X75799200Y-54158400D02*
X73548700Y-54158400D01*
X53340000Y-44835600D02*
X53340000Y-43897900D01*
X53325000Y-46039300D02*
X53325000Y-44850600D01*
X94300300Y-94299300D02*
X93111600Y-93110600D01*
X84040000Y-87000000D02*
X85235100Y-87000000D01*
X93111600Y-93110600D02*
X90715400Y-93110600D01*
X95489000Y-94299300D02*
X94300300Y-94299300D01*
X85235100Y-87630300D02*
X85235100Y-87000000D01*
X90715400Y-93110600D02*
X85235100Y-87630300D01*
X63340000Y-87000000D02*
X62144900Y-87000000D01*
X53512500Y-83138100D02*
X44353700Y-73979300D01*
X43165000Y-73979300D02*
X44353700Y-73979300D01*
X62144900Y-87000000D02*
X62144900Y-86369700D01*
X62144900Y-86369700D02*
X58913300Y-83138100D01*
X58913300Y-83138100D02*
X53512500Y-83138100D01*
X104488900Y-99323600D02*
X104488900Y-98958400D01*
X98003500Y-101746500D02*
X102066000Y-101746500D01*
X102066000Y-101746500D02*
X104488900Y-99323600D01*
X90730000Y-109020000D02*
X98003500Y-101746500D01*
X105664000Y-98958400D02*
X104488900Y-98958400D01*
X65859900Y-119496700D02*
X65859900Y-119249100D01*
X65859900Y-119249100D02*
X67554900Y-117554100D01*
X67554900Y-117554100D02*
X91696700Y-117554100D01*
X92184900Y-118042300D02*
X92184900Y-119000000D01*
X91696700Y-117554100D02*
X92184900Y-118042300D01*
X93380000Y-119000000D02*
X92184900Y-119000000D01*
X60945000Y-47228000D02*
X68420000Y-54703000D01*
X68420000Y-54703000D02*
X68420000Y-56500000D01*
X60945000Y-46039300D02*
X60945000Y-47228000D01*
X43165000Y-76519300D02*
X44353700Y-76519300D01*
X52794200Y-84959800D02*
X44353700Y-76519300D01*
X58260000Y-87000000D02*
X57064900Y-87000000D01*
X55655000Y-84959800D02*
X52794200Y-84959800D01*
X57064900Y-87000000D02*
X57064900Y-86369700D01*
X57064900Y-86369700D02*
X55655000Y-84959800D01*
X83820000Y-44835600D02*
X83820000Y-41046400D01*
X83805000Y-46039300D02*
X83805000Y-44850600D01*
X83805000Y-44850600D02*
X83820000Y-44835600D01*
X41813700Y-66730900D02*
X42630800Y-67548000D01*
X40625000Y-66359300D02*
X41813700Y-66359300D01*
X54450500Y-77732900D02*
X56254900Y-79537300D01*
X41813700Y-66359300D02*
X41813700Y-66730900D01*
X42630800Y-67548000D02*
X46023800Y-67548000D01*
X72685800Y-79537300D02*
X78822300Y-85673800D01*
X54450500Y-75974700D02*
X54450500Y-77732900D01*
X46023800Y-67548000D02*
X54450500Y-75974700D01*
X56254900Y-79537300D02*
X72685800Y-79537300D01*
X40285900Y-85328000D02*
X33000000Y-92613900D01*
X33000000Y-92613900D02*
X33000000Y-92920000D01*
X41976300Y-84510900D02*
X41159200Y-85328000D01*
X43165000Y-84139300D02*
X41976300Y-84139300D01*
X41976300Y-84139300D02*
X41976300Y-84510900D01*
X41159200Y-85328000D02*
X40285900Y-85328000D01*
X44187700Y-72768500D02*
X42653000Y-72768500D01*
X52757000Y-81337800D02*
X44187700Y-72768500D01*
X59653000Y-81337800D02*
X52757000Y-81337800D01*
X41813700Y-73607800D02*
X41813700Y-73979300D01*
X65880000Y-87000000D02*
X64684900Y-87000000D01*
X40625000Y-73979300D02*
X41813700Y-73979300D01*
X42653000Y-72768500D02*
X41813700Y-73607800D01*
X64684900Y-87000000D02*
X64684900Y-86369700D01*
X64684900Y-86369700D02*
X59653000Y-81337800D01*
X47344500Y-85464400D02*
X50303200Y-88423100D01*
X40625000Y-87868000D02*
X40230700Y-87868000D01*
X42428500Y-85464400D02*
X47344500Y-85464400D01*
X72155300Y-87742000D02*
X72155300Y-84263100D01*
X40625000Y-86679300D02*
X40625000Y-87267900D01*
X50303200Y-88423100D02*
X71474200Y-88423100D01*
X40230700Y-87868000D02*
X33000000Y-95098700D01*
X40625000Y-87267900D02*
X40625000Y-87868000D01*
X72155300Y-84263100D02*
X69724900Y-81832700D01*
X40625000Y-87267900D02*
X42428500Y-85464400D01*
X71474200Y-88423100D02*
X72155300Y-87742000D01*
X33000000Y-95098700D02*
X33000000Y-95460000D01*
X68580000Y-44835600D02*
X68580000Y-41046400D01*
X68565000Y-44850600D02*
X68580000Y-44835600D01*
X68565000Y-46039300D02*
X68565000Y-44850600D01*
X59593700Y-45667800D02*
X60411900Y-44849600D01*
X70960000Y-56500000D02*
X69764900Y-56500000D01*
X62215000Y-47755000D02*
X69764900Y-55304900D01*
X60411900Y-44849600D02*
X61444000Y-44849600D01*
X59593700Y-46039300D02*
X59593700Y-45667800D01*
X61444000Y-44849600D02*
X62215000Y-45620600D01*
X69764900Y-55304900D02*
X69764900Y-56500000D01*
X58405000Y-46039300D02*
X59593700Y-46039300D01*
X62215000Y-45620600D02*
X62215000Y-47755000D01*
X69764900Y-76369700D02*
X69764900Y-77000000D01*
X41813700Y-60907800D02*
X42653000Y-60068500D01*
X62836500Y-69441300D02*
X69764900Y-76369700D01*
X43879000Y-60068500D02*
X53251800Y-69441300D01*
X53251800Y-69441300D02*
X62836500Y-69441300D01*
X42653000Y-60068500D02*
X43879000Y-60068500D01*
X40625000Y-61279300D02*
X41813700Y-61279300D01*
X70960000Y-77000000D02*
X69764900Y-77000000D01*
X41813700Y-61279300D02*
X41813700Y-60907800D01*
X82699100Y-60683900D02*
X87884900Y-65869700D01*
X48245000Y-44850600D02*
X48260000Y-44835600D01*
X89080000Y-66500000D02*
X87884900Y-66500000D01*
X87884900Y-65869700D02*
X87884900Y-66500000D01*
X65511500Y-60683900D02*
X82699100Y-60683900D01*
X48260000Y-44835600D02*
X48260000Y-41046400D01*
X48245000Y-46039300D02*
X48245000Y-44850600D01*
X107028900Y-98958400D02*
X107028900Y-99293400D01*
X94465100Y-108389700D02*
X94465100Y-109020000D01*
X108204000Y-98958400D02*
X107028900Y-98958400D01*
X107028900Y-99293400D02*
X101583400Y-104738900D01*
X93270000Y-109020000D02*
X94465100Y-109020000D01*
X101583400Y-104738900D02*
X98115900Y-104738900D01*
X98115900Y-104738900D02*
X94465100Y-108389700D01*
X83500000Y-55500000D02*
X85000000Y-54000000D01*
X85000000Y-54000000D02*
X96460000Y-54000000D01*
X113292300Y-51000000D02*
X113540000Y-51000000D01*
X109109000Y-55183300D02*
X113292300Y-51000000D01*
X43165000Y-91759300D02*
X41976300Y-91759300D01*
X89881900Y-110468900D02*
X94361100Y-110468900D01*
X45667900Y-95488100D02*
X52136800Y-101957000D01*
X41976300Y-92130900D02*
X41159200Y-92948000D01*
X41159200Y-92948000D02*
X40281000Y-92948000D01*
X40281000Y-92948000D02*
X39431000Y-93798000D01*
X39431000Y-93798000D02*
X39431000Y-94790700D01*
X94361100Y-110468900D02*
X95810000Y-109020000D01*
X88612500Y-106077400D02*
X88612500Y-109199500D01*
X39431000Y-94790700D02*
X40128400Y-95488100D01*
X52136800Y-101957000D02*
X84492100Y-101957000D01*
X84492100Y-101957000D02*
X88612500Y-106077400D01*
X40128400Y-95488100D02*
X45667900Y-95488100D01*
X41976300Y-91759300D02*
X41976300Y-92130900D01*
X88612500Y-109199500D02*
X89881900Y-110468900D01*
X52677500Y-64438300D02*
X60673500Y-64438300D01*
X62104900Y-65869700D02*
X62104900Y-66500000D01*
X60673500Y-64438300D02*
X62104900Y-65869700D01*
X63300000Y-66500000D02*
X62104900Y-66500000D01*
X113297500Y-106207500D02*
X111010000Y-103920000D01*
X120000000Y-106207500D02*
X113297500Y-106207500D01*
X41630300Y-97626700D02*
X38929600Y-94926000D01*
X87559400Y-108783100D02*
X87559400Y-105661100D01*
X49155600Y-102608700D02*
X44173600Y-97626700D01*
X95886100Y-110919100D02*
X89695400Y-110919100D01*
X38929600Y-94926000D02*
X38929600Y-93454700D01*
X87559400Y-105661100D02*
X84507000Y-102608700D01*
X84507000Y-102608700D02*
X49155600Y-102608700D01*
X44173600Y-97626700D02*
X41630300Y-97626700D01*
X98350000Y-109020000D02*
X97154900Y-109020000D01*
X97154900Y-109650300D02*
X95886100Y-110919100D01*
X89695400Y-110919100D02*
X87559400Y-108783100D01*
X97154900Y-109020000D02*
X97154900Y-109650300D01*
X38929600Y-93454700D02*
X40625000Y-91759300D01*
X54610000Y-40649200D02*
X53804500Y-39843700D01*
X62621700Y-42221600D02*
X55297900Y-42221600D01*
X51975100Y-40679200D02*
X51975100Y-41046400D01*
X54610000Y-41533700D02*
X54610000Y-40649200D01*
X79094800Y-56351000D02*
X75090800Y-52347000D01*
X52810600Y-39843700D02*
X51975100Y-40679200D01*
X50800000Y-41046400D02*
X51975100Y-41046400D01*
X53804500Y-39843700D02*
X52810600Y-39843700D01*
X75090800Y-52347000D02*
X72747100Y-52347000D01*
X55297900Y-42221600D02*
X54610000Y-41533700D01*
X72747100Y-52347000D02*
X62621700Y-42221600D01*
X33195600Y-90380000D02*
X33000000Y-90380000D01*
X39436300Y-84139300D02*
X33195600Y-90380000D01*
X40625000Y-84139300D02*
X39436300Y-84139300D01*
X77874100Y-57139000D02*
X86941000Y-57139000D01*
X77235100Y-56500000D02*
X77874100Y-57139000D01*
X86941000Y-57139000D02*
X88580000Y-55500000D01*
X76040000Y-56500000D02*
X77235100Y-56500000D01*
X100890000Y-109020000D02*
X102085100Y-109020000D01*
X90424900Y-67097500D02*
X89597200Y-67925200D01*
X114818900Y-79387900D02*
X114066500Y-78635500D01*
X75450000Y-67925200D02*
X74655100Y-67130300D01*
X91620000Y-66500000D02*
X90424900Y-66500000D01*
X102085100Y-108389700D02*
X102085100Y-109020000D01*
X91540000Y-77000000D02*
X92735100Y-77000000D01*
X111000000Y-109000000D02*
X109596100Y-107596100D01*
X114066500Y-78635500D02*
X93740300Y-78635500D01*
X102878700Y-107596100D02*
X102085100Y-108389700D01*
X109596100Y-107596100D02*
X102878700Y-107596100D01*
X74655100Y-67130300D02*
X74655100Y-66500000D01*
X92735100Y-77630300D02*
X92735100Y-77000000D01*
X93740300Y-78635500D02*
X92735100Y-77630300D01*
X73460000Y-66500000D02*
X74655100Y-66500000D01*
X90424900Y-66500000D02*
X90424900Y-67097500D01*
X89597200Y-67925200D02*
X75450000Y-67925200D01*
X62144900Y-77000000D02*
X62144900Y-76369700D01*
X62144900Y-76369700D02*
X57436900Y-71661700D01*
X63340000Y-77000000D02*
X62144900Y-77000000D01*
X43165000Y-63819300D02*
X44353700Y-63819300D01*
X57436900Y-71661700D02*
X52196100Y-71661700D01*
X52196100Y-71661700D02*
X44353700Y-63819300D01*
X77536300Y-94668700D02*
X77536300Y-94299300D01*
X76251400Y-95953600D02*
X77536300Y-94668700D01*
X65997300Y-95953600D02*
X76251400Y-95953600D01*
X64755000Y-93623200D02*
X64755000Y-94711300D01*
X64755000Y-94711300D02*
X65997300Y-95953600D01*
X78725000Y-94299300D02*
X77536300Y-94299300D01*
X114648900Y-98958400D02*
X114648900Y-99325700D01*
X107861200Y-100133500D02*
X99620000Y-108374700D01*
X99620000Y-108374700D02*
X99620000Y-109665600D01*
X113841100Y-100133500D02*
X107861200Y-100133500D01*
X72421400Y-111369300D02*
X62080000Y-121710700D01*
X62080000Y-121710700D02*
X62080000Y-122500000D01*
X115824000Y-98958400D02*
X114648900Y-98958400D01*
X97916300Y-111369300D02*
X72421400Y-111369300D01*
X99620000Y-109665600D02*
X97916300Y-111369300D01*
X114648900Y-99325700D02*
X113841100Y-100133500D01*
X63485000Y-94299300D02*
X63485000Y-95488000D01*
X63500000Y-95503000D02*
X63500000Y-98958400D01*
X63485000Y-95488000D02*
X63500000Y-95503000D01*
X112362300Y-107159100D02*
X109674500Y-104471300D01*
X111097800Y-101911400D02*
X114603100Y-101911400D01*
X114603100Y-101911400D02*
X117188900Y-99325600D01*
X64620000Y-122500000D02*
X64620000Y-119843000D01*
X112362300Y-109532700D02*
X112362300Y-107159100D01*
X117188900Y-99325600D02*
X117188900Y-98958400D01*
X109086000Y-112809000D02*
X112362300Y-109532700D01*
X109674500Y-104471300D02*
X109674500Y-103334700D01*
X118364000Y-98958400D02*
X117188900Y-98958400D01*
X64620000Y-119843000D02*
X71654000Y-112809000D01*
X109674500Y-103334700D02*
X111097800Y-101911400D01*
X71654000Y-112809000D02*
X109086000Y-112809000D01*
X67169600Y-118838000D02*
X68578000Y-118838000D01*
X68578000Y-118838000D02*
X72240000Y-122500000D01*
X59049800Y-123724400D02*
X58270000Y-122944600D01*
X58270000Y-121624000D02*
X57770100Y-121124100D01*
X83529100Y-123274300D02*
X83133500Y-123669900D01*
X84940000Y-122500000D02*
X84033900Y-123406100D01*
X83133500Y-123669900D02*
X83133500Y-123724400D01*
X58270000Y-122944600D02*
X58270000Y-121624000D01*
X83133500Y-123724400D02*
X59049800Y-123724400D01*
X84033900Y-123406100D02*
X83902100Y-123274300D01*
X83902100Y-123274300D02*
X83529100Y-123274300D01*
X50580000Y-117500000D02*
X49384900Y-117500000D01*
X63380000Y-105895100D02*
X51775100Y-117500000D01*
X49384900Y-116929600D02*
X49384900Y-117500000D01*
X74698700Y-103058900D02*
X73510000Y-104247600D01*
X73510000Y-105111800D02*
X72726700Y-105895100D01*
X72726700Y-105895100D02*
X63380000Y-105895100D01*
X42471100Y-110228400D02*
X42683700Y-110228400D01*
X42683700Y-110228400D02*
X49384900Y-116929600D01*
X35000000Y-107500000D02*
X39742700Y-107500000D01*
X73510000Y-104247600D02*
X73510000Y-105111800D01*
X50580000Y-117500000D02*
X51775100Y-117500000D01*
X83278900Y-103058900D02*
X74698700Y-103058900D01*
X84940000Y-104720000D02*
X83278900Y-103058900D01*
X39742700Y-107500000D02*
X42471100Y-110228400D01*
X46844900Y-116869700D02*
X46844900Y-117500000D01*
X35000000Y-110040000D02*
X40015200Y-110040000D01*
X49504000Y-118964000D02*
X56634400Y-118964000D01*
X76144800Y-104220400D02*
X76846800Y-103518400D01*
X48040000Y-117500000D02*
X49504000Y-118964000D01*
X48040000Y-117500000D02*
X46844900Y-117500000D01*
X81198400Y-103518400D02*
X82400000Y-104720000D01*
X56634400Y-118964000D02*
X69253100Y-106345300D01*
X40015200Y-110040000D02*
X46844900Y-116869700D01*
X76846800Y-103518400D02*
X81198400Y-103518400D01*
X76144800Y-105017200D02*
X76144800Y-104220400D01*
X74816700Y-106345300D02*
X76144800Y-105017200D01*
X69253100Y-106345300D02*
X74816700Y-106345300D01*
X77334300Y-107245700D02*
X70568100Y-107245700D01*
X79860000Y-104720000D02*
X77334300Y-107245700D01*
X70568100Y-107245700D02*
X49080000Y-128733800D01*
X49080000Y-128733800D02*
X49080000Y-129500000D01*
X77320000Y-104720000D02*
X75244500Y-106795500D01*
X69869200Y-106795500D02*
X47735100Y-128929600D01*
X46540000Y-129500000D02*
X47735100Y-129500000D01*
X47735100Y-128929600D02*
X47735100Y-129500000D01*
X75244500Y-106795500D02*
X69869200Y-106795500D01*
M02*
