G04 #@! TF.GenerationSoftware,KiCad,Pcbnew,9.0.5*
G04 #@! TF.CreationDate,2025-12-14T12:46:52+10:00*
G04 #@! TF.ProjectId,Jet Ranger Upper Controller,4a657420-5261-46e6-9765-722055707065,rev?*
G04 #@! TF.SameCoordinates,Original*
G04 #@! TF.FileFunction,Soldermask,Bot*
G04 #@! TF.FilePolarity,Negative*
%FSLAX46Y46*%
G04 Gerber Fmt 4.6, Leading zero omitted, Abs format (unit mm)*
G04 Created by KiCad (PCBNEW 9.0.5) date 2025-12-14 12:46:52*
%MOMM*%
%LPD*%
G01*
G04 APERTURE LIST*
G04 Aperture macros list*
%AMRoundRect*
0 Rectangle with rounded corners*
0 $1 Rounding radius*
0 $2 $3 $4 $5 $6 $7 $8 $9 X,Y pos of 4 corners*
0 Add a 4 corners polygon primitive as box body*
4,1,4,$2,$3,$4,$5,$6,$7,$8,$9,$2,$3,0*
0 Add four circle primitives for the rounded corners*
1,1,$1+$1,$2,$3*
1,1,$1+$1,$4,$5*
1,1,$1+$1,$6,$7*
1,1,$1+$1,$8,$9*
0 Add four rect primitives between the rounded corners*
20,1,$1+$1,$2,$3,$4,$5,0*
20,1,$1+$1,$4,$5,$6,$7,0*
20,1,$1+$1,$6,$7,$8,$9,0*
20,1,$1+$1,$8,$9,$2,$3,0*%
G04 Aperture macros list end*
%ADD10C,2.010000*%
%ADD11C,1.600000*%
%ADD12C,3.200000*%
%ADD13R,1.700000X1.700000*%
%ADD14O,1.700000X1.700000*%
%ADD15R,1.800000X1.800000*%
%ADD16C,1.800000*%
%ADD17RoundRect,0.250000X0.600000X-0.600000X0.600000X0.600000X-0.600000X0.600000X-0.600000X-0.600000X0*%
%ADD18C,1.700000*%
%ADD19R,3.500000X3.500000*%
%ADD20RoundRect,0.750000X0.750000X1.000000X-0.750000X1.000000X-0.750000X-1.000000X0.750000X-1.000000X0*%
%ADD21RoundRect,0.875000X0.875000X0.875000X-0.875000X0.875000X-0.875000X-0.875000X0.875000X-0.875000X0*%
%ADD22RoundRect,0.250000X-0.620000X-0.845000X0.620000X-0.845000X0.620000X0.845000X-0.620000X0.845000X0*%
%ADD23O,1.740000X2.190000*%
%ADD24R,1.905000X2.000000*%
%ADD25O,1.905000X2.000000*%
%ADD26R,1.665000X1.665000*%
%ADD27C,1.665000*%
%ADD28O,1.727200X1.727200*%
%ADD29R,1.727200X1.727200*%
G04 APERTURE END LIST*
D10*
X110750000Y-105050000D03*
X109550000Y-110150000D03*
D11*
X59040000Y-75594300D03*
X56500000Y-75594300D03*
D12*
X126589800Y-39032100D03*
D13*
X63500000Y-41046400D03*
D14*
X60960000Y-41046400D03*
X58420000Y-41046400D03*
X55880000Y-41046400D03*
X53340000Y-41046400D03*
X50800000Y-41046400D03*
X48260000Y-41046400D03*
X45720000Y-41046400D03*
D11*
X59040000Y-82192700D03*
X56500000Y-82192700D03*
X58956600Y-85491900D03*
X56416600Y-85491900D03*
D13*
X117298000Y-50550000D03*
D14*
X117298000Y-48010000D03*
X117298000Y-45470000D03*
D13*
X86360000Y-41046400D03*
D14*
X83820000Y-41046400D03*
X81280000Y-41046400D03*
X78740000Y-41046400D03*
X76200000Y-41046400D03*
X73660000Y-41046400D03*
X71120000Y-41046400D03*
X68580000Y-41046400D03*
D15*
X113540000Y-80500000D03*
D16*
X111000000Y-80500000D03*
D11*
X59040000Y-55799200D03*
X56500000Y-55799200D03*
X59040000Y-52500000D03*
X56500000Y-52500000D03*
D17*
X74560000Y-122000000D03*
D18*
X74560000Y-119460000D03*
X77100000Y-122000000D03*
X77100000Y-119460000D03*
X79640000Y-122000000D03*
X79640000Y-119460000D03*
X82180000Y-122000000D03*
X82180000Y-119460000D03*
X84720000Y-122000000D03*
X84720000Y-119460000D03*
X87260000Y-122000000D03*
X87260000Y-119460000D03*
X89800000Y-122000000D03*
X89800000Y-119460000D03*
X92340000Y-122000000D03*
X92340000Y-119460000D03*
X94880000Y-122000000D03*
X94880000Y-119460000D03*
X97420000Y-122000000D03*
X97420000Y-119460000D03*
X99960000Y-122000000D03*
X99960000Y-119460000D03*
X102500000Y-122000000D03*
X102500000Y-119460000D03*
D13*
X33560000Y-114410000D03*
D18*
X36100000Y-114410000D03*
X38640000Y-114410000D03*
X41180000Y-114410000D03*
X43720000Y-114410000D03*
X46260000Y-114410000D03*
X48800000Y-114410000D03*
X51340000Y-114410000D03*
X53880000Y-114410000D03*
X56420000Y-114410000D03*
X58960000Y-114410000D03*
X61500000Y-114410000D03*
D11*
X118250000Y-84250000D03*
X120790000Y-84250000D03*
X124750000Y-87500000D03*
X124750000Y-84960000D03*
D12*
X32300000Y-39000000D03*
D13*
X37000000Y-45000000D03*
D14*
X39540000Y-45000000D03*
D19*
X118949000Y-118350000D03*
D20*
X124949000Y-118350000D03*
D21*
X121949000Y-113650000D03*
D12*
X125101000Y-130612200D03*
D22*
X72220000Y-78150000D03*
D23*
X74760000Y-78150000D03*
X77300000Y-78150000D03*
X79840000Y-78150000D03*
X82380000Y-78150000D03*
X84920000Y-78150000D03*
X87460000Y-78150000D03*
X90000000Y-78150000D03*
D15*
X127040000Y-96750000D03*
D16*
X124500000Y-96750000D03*
D15*
X125770000Y-80500000D03*
D16*
X123230000Y-80500000D03*
D22*
X72260000Y-87500000D03*
D23*
X74800000Y-87500000D03*
X77340000Y-87500000D03*
X79880000Y-87500000D03*
X82420000Y-87500000D03*
X84960000Y-87500000D03*
X87500000Y-87500000D03*
X90040000Y-87500000D03*
D11*
X59040000Y-62397600D03*
X56500000Y-62397600D03*
D13*
X33560000Y-105230000D03*
D18*
X36100000Y-105230000D03*
X38640000Y-105230000D03*
X41180000Y-105230000D03*
X43720000Y-105230000D03*
X46260000Y-105230000D03*
X48800000Y-105230000D03*
X51340000Y-105230000D03*
X53880000Y-105230000D03*
X56420000Y-105230000D03*
X58960000Y-105230000D03*
X61500000Y-105230000D03*
D11*
X124710000Y-92750000D03*
X127250000Y-92750000D03*
X117000000Y-80000000D03*
X119540000Y-80000000D03*
D13*
X33560000Y-109820000D03*
D18*
X36100000Y-109820000D03*
X38640000Y-109820000D03*
X41180000Y-109820000D03*
X43720000Y-109820000D03*
X46260000Y-109820000D03*
X48800000Y-109820000D03*
X51340000Y-109820000D03*
X53880000Y-109820000D03*
X56420000Y-109820000D03*
X58960000Y-109820000D03*
X61500000Y-109820000D03*
D11*
X59040000Y-78893500D03*
X56500000Y-78893500D03*
D13*
X68580000Y-98958400D03*
D14*
X66040000Y-98958400D03*
X63500000Y-98958400D03*
X60960000Y-98958400D03*
X58420000Y-98958400D03*
X55880000Y-98958400D03*
X53340000Y-98958400D03*
X50800000Y-98958400D03*
D11*
X94960000Y-61500000D03*
X97500000Y-61500000D03*
X59040000Y-72295100D03*
X56500000Y-72295100D03*
D24*
X88920000Y-56500000D03*
D25*
X91460000Y-56500000D03*
X94000000Y-56500000D03*
D11*
X59040000Y-65696800D03*
X56500000Y-65696800D03*
D12*
X33851800Y-130929500D03*
D26*
X121809000Y-55183300D03*
D27*
X119269000Y-55183300D03*
X116729000Y-55183300D03*
X114189000Y-55183300D03*
X111649000Y-55183300D03*
X109109000Y-55183300D03*
D26*
X121809000Y-75503300D03*
D27*
X119269000Y-75503300D03*
X116729000Y-75503300D03*
X114189000Y-75503300D03*
X111649000Y-75503300D03*
X109109000Y-75503300D03*
D15*
X113040000Y-90500000D03*
D16*
X110500000Y-90500000D03*
D11*
X111455000Y-85750000D03*
X113995000Y-85750000D03*
D22*
X75725000Y-57020000D03*
D23*
X78265000Y-57020000D03*
D13*
X109220000Y-41046400D03*
D14*
X106680000Y-41046400D03*
X104140000Y-41046400D03*
X101600000Y-41046400D03*
X99060000Y-41046400D03*
X96520000Y-41046400D03*
X93980000Y-41046400D03*
X91440000Y-41046400D03*
D11*
X59040000Y-68996000D03*
X56500000Y-68996000D03*
D13*
X76000000Y-130500000D03*
D18*
X78540000Y-130500000D03*
X81080000Y-130500000D03*
X83620000Y-130500000D03*
X86160000Y-130500000D03*
X88700000Y-130500000D03*
X91240000Y-130500000D03*
X93780000Y-130500000D03*
X96320000Y-130500000D03*
X98860000Y-130500000D03*
X101400000Y-130500000D03*
X103940000Y-130500000D03*
D13*
X115450000Y-125560000D03*
D14*
X115450000Y-128100000D03*
D11*
X59040000Y-59098400D03*
X56500000Y-59098400D03*
X110960000Y-50900000D03*
X113500000Y-50900000D03*
X89037500Y-61212500D03*
X91577500Y-61212500D03*
X105350000Y-48750000D03*
X107890000Y-48750000D03*
D15*
X121540000Y-89750000D03*
D16*
X119000000Y-89750000D03*
D22*
X72153300Y-69041200D03*
D23*
X74693300Y-69041200D03*
X77233300Y-69041200D03*
X79773300Y-69041200D03*
X82313300Y-69041200D03*
X84853300Y-69041200D03*
X87393300Y-69041200D03*
X89933300Y-69041200D03*
D13*
X33560000Y-119000000D03*
D18*
X36100000Y-119000000D03*
X38640000Y-119000000D03*
X41180000Y-119000000D03*
X43720000Y-119000000D03*
X46260000Y-119000000D03*
X48800000Y-119000000D03*
X51340000Y-119000000D03*
X53880000Y-119000000D03*
X56420000Y-119000000D03*
X58960000Y-119000000D03*
X61500000Y-119000000D03*
D19*
X120000000Y-106207500D03*
D20*
X126000000Y-106207500D03*
D21*
X123000000Y-101507500D03*
D13*
X95504000Y-98958400D03*
D14*
X98044000Y-98958400D03*
X100584000Y-98958400D03*
X103124000Y-98958400D03*
X105664000Y-98958400D03*
X108204000Y-98958400D03*
X110744000Y-98958400D03*
X113284000Y-98958400D03*
X115824000Y-98958400D03*
X118364000Y-98958400D03*
D13*
X40411400Y-98933000D03*
D14*
X42951400Y-98933000D03*
D13*
X76000000Y-112000000D03*
D18*
X78540000Y-112000000D03*
X81080000Y-112000000D03*
X83620000Y-112000000D03*
X86160000Y-112000000D03*
X88700000Y-112000000D03*
X91240000Y-112000000D03*
X93780000Y-112000000D03*
X96320000Y-112000000D03*
X98860000Y-112000000D03*
X101400000Y-112000000D03*
X103940000Y-112000000D03*
D13*
X73660000Y-98958400D03*
D14*
X76200000Y-98958400D03*
X78740000Y-98958400D03*
X81280000Y-98958400D03*
X83820000Y-98958400D03*
X86360000Y-98958400D03*
X88900000Y-98958400D03*
X91440000Y-98958400D03*
D28*
X109205000Y-46039300D03*
X101585000Y-46039300D03*
X99045000Y-46039300D03*
X43165000Y-94299300D03*
X40625000Y-94299300D03*
X86345000Y-46039300D03*
X83805000Y-46039300D03*
X81265000Y-46039300D03*
X78725000Y-46039300D03*
X76185000Y-46039300D03*
X73645000Y-46039300D03*
X71105000Y-46039300D03*
X68565000Y-46039300D03*
X63485000Y-46039300D03*
X60945000Y-46039300D03*
X58405000Y-46039300D03*
X55865000Y-46039300D03*
X53325000Y-46039300D03*
X50785000Y-46039300D03*
X48245000Y-46039300D03*
X45705000Y-46039300D03*
X113269000Y-94299300D03*
X73645000Y-94299300D03*
X76185000Y-94299300D03*
X78725000Y-94299300D03*
X81265000Y-94299300D03*
X83805000Y-94299300D03*
X86345000Y-94299300D03*
X88885000Y-94299300D03*
X91425000Y-94299300D03*
X95489000Y-94299300D03*
X98029000Y-94299300D03*
X100569000Y-94299300D03*
X103109000Y-94299300D03*
X105649000Y-94299300D03*
X108189000Y-94299300D03*
X68565000Y-94299300D03*
X66025000Y-94299300D03*
X63485000Y-94299300D03*
X60945000Y-94299300D03*
X58405000Y-94299300D03*
X55865000Y-94299300D03*
X53325000Y-94299300D03*
X50785000Y-94299300D03*
X43165000Y-91759300D03*
X40625000Y-91759300D03*
X43165000Y-89219300D03*
X40625000Y-89219300D03*
X43165000Y-86679300D03*
X40625000Y-86679300D03*
X43165000Y-84139300D03*
X40625000Y-84139300D03*
X43165000Y-81599300D03*
X40625000Y-81599300D03*
X43165000Y-79059300D03*
X40625000Y-79059300D03*
X43165000Y-76519300D03*
X40625000Y-76519300D03*
X43165000Y-73979300D03*
X40625000Y-73979300D03*
X43165000Y-71439300D03*
X40625000Y-71439300D03*
X43165000Y-68899300D03*
X40625000Y-68899300D03*
X43165000Y-66359300D03*
X40625000Y-66359300D03*
X43165000Y-63819300D03*
X40625000Y-63819300D03*
X43165000Y-61279300D03*
X40625000Y-61279300D03*
X43165000Y-58739300D03*
X40625000Y-58739300D03*
X43165000Y-56199300D03*
X40625000Y-56199300D03*
X43165000Y-53659300D03*
X40625000Y-53659300D03*
D29*
X110729000Y-94299300D03*
X96505000Y-46039300D03*
X93965000Y-46039300D03*
X43165000Y-51119300D03*
X40625000Y-51119300D03*
D28*
X106665000Y-46039300D03*
X104125000Y-46039300D03*
X118349000Y-94299300D03*
X115809000Y-94299300D03*
X91425000Y-46039300D03*
M02*
