G04 #@! TF.GenerationSoftware,KiCad,Pcbnew,9.0.5*
G04 #@! TF.CreationDate,2025-12-14T12:46:51+10:00*
G04 #@! TF.ProjectId,Jet Ranger Upper Controller,4a657420-5261-46e6-9765-722055707065,rev?*
G04 #@! TF.SameCoordinates,Original*
G04 #@! TF.FileFunction,Copper,L1,Top*
G04 #@! TF.FilePolarity,Positive*
%FSLAX46Y46*%
G04 Gerber Fmt 4.6, Leading zero omitted, Abs format (unit mm)*
G04 Created by KiCad (PCBNEW 9.0.5) date 2025-12-14 12:46:51*
%MOMM*%
%LPD*%
G01*
G04 APERTURE LIST*
G04 Aperture macros list*
%AMRoundRect*
0 Rectangle with rounded corners*
0 $1 Rounding radius*
0 $2 $3 $4 $5 $6 $7 $8 $9 X,Y pos of 4 corners*
0 Add a 4 corners polygon primitive as box body*
4,1,4,$2,$3,$4,$5,$6,$7,$8,$9,$2,$3,0*
0 Add four circle primitives for the rounded corners*
1,1,$1+$1,$2,$3*
1,1,$1+$1,$4,$5*
1,1,$1+$1,$6,$7*
1,1,$1+$1,$8,$9*
0 Add four rect primitives between the rounded corners*
20,1,$1+$1,$2,$3,$4,$5,0*
20,1,$1+$1,$4,$5,$6,$7,0*
20,1,$1+$1,$6,$7,$8,$9,0*
20,1,$1+$1,$8,$9,$2,$3,0*%
G04 Aperture macros list end*
G04 #@! TA.AperFunction,ComponentPad*
%ADD10C,2.010000*%
G04 #@! TD*
G04 #@! TA.AperFunction,ComponentPad*
%ADD11C,1.600000*%
G04 #@! TD*
G04 #@! TA.AperFunction,ComponentPad*
%ADD12R,1.700000X1.700000*%
G04 #@! TD*
G04 #@! TA.AperFunction,ComponentPad*
%ADD13O,1.700000X1.700000*%
G04 #@! TD*
G04 #@! TA.AperFunction,ComponentPad*
%ADD14R,1.800000X1.800000*%
G04 #@! TD*
G04 #@! TA.AperFunction,ComponentPad*
%ADD15C,1.800000*%
G04 #@! TD*
G04 #@! TA.AperFunction,ComponentPad*
%ADD16RoundRect,0.250000X0.600000X-0.600000X0.600000X0.600000X-0.600000X0.600000X-0.600000X-0.600000X0*%
G04 #@! TD*
G04 #@! TA.AperFunction,ComponentPad*
%ADD17C,1.700000*%
G04 #@! TD*
G04 #@! TA.AperFunction,ComponentPad*
%ADD18R,3.500000X3.500000*%
G04 #@! TD*
G04 #@! TA.AperFunction,ComponentPad*
%ADD19RoundRect,0.750000X0.750000X1.000000X-0.750000X1.000000X-0.750000X-1.000000X0.750000X-1.000000X0*%
G04 #@! TD*
G04 #@! TA.AperFunction,ComponentPad*
%ADD20RoundRect,0.875000X0.875000X0.875000X-0.875000X0.875000X-0.875000X-0.875000X0.875000X-0.875000X0*%
G04 #@! TD*
G04 #@! TA.AperFunction,ComponentPad*
%ADD21RoundRect,0.250000X-0.620000X-0.845000X0.620000X-0.845000X0.620000X0.845000X-0.620000X0.845000X0*%
G04 #@! TD*
G04 #@! TA.AperFunction,ComponentPad*
%ADD22O,1.740000X2.190000*%
G04 #@! TD*
G04 #@! TA.AperFunction,ComponentPad*
%ADD23R,1.905000X2.000000*%
G04 #@! TD*
G04 #@! TA.AperFunction,ComponentPad*
%ADD24O,1.905000X2.000000*%
G04 #@! TD*
G04 #@! TA.AperFunction,ComponentPad*
%ADD25R,1.665000X1.665000*%
G04 #@! TD*
G04 #@! TA.AperFunction,ComponentPad*
%ADD26C,1.665000*%
G04 #@! TD*
G04 #@! TA.AperFunction,ComponentPad*
%ADD27O,1.727200X1.727200*%
G04 #@! TD*
G04 #@! TA.AperFunction,ComponentPad*
%ADD28R,1.727200X1.727200*%
G04 #@! TD*
G04 #@! TA.AperFunction,ViaPad*
%ADD29C,0.600000*%
G04 #@! TD*
G04 #@! TA.AperFunction,Conductor*
%ADD30C,0.250000*%
G04 #@! TD*
G04 #@! TA.AperFunction,Conductor*
%ADD31C,0.500000*%
G04 #@! TD*
G04 APERTURE END LIST*
D10*
X110750000Y-105050000D03*
X109550000Y-110150000D03*
D11*
X59040000Y-75594300D03*
X56500000Y-75594300D03*
D12*
X63500000Y-41046400D03*
D13*
X60960000Y-41046400D03*
X58420000Y-41046400D03*
X55880000Y-41046400D03*
X53340000Y-41046400D03*
X50800000Y-41046400D03*
X48260000Y-41046400D03*
X45720000Y-41046400D03*
D11*
X59040000Y-82192700D03*
X56500000Y-82192700D03*
X58956600Y-85491900D03*
X56416600Y-85491900D03*
D12*
X117298000Y-50550000D03*
D13*
X117298000Y-48010000D03*
X117298000Y-45470000D03*
D12*
X86360000Y-41046400D03*
D13*
X83820000Y-41046400D03*
X81280000Y-41046400D03*
X78740000Y-41046400D03*
X76200000Y-41046400D03*
X73660000Y-41046400D03*
X71120000Y-41046400D03*
X68580000Y-41046400D03*
D14*
X113540000Y-80500000D03*
D15*
X111000000Y-80500000D03*
D11*
X59040000Y-55799200D03*
X56500000Y-55799200D03*
X59040000Y-52500000D03*
X56500000Y-52500000D03*
D16*
X74560000Y-122000000D03*
D17*
X74560000Y-119460000D03*
X77100000Y-122000000D03*
X77100000Y-119460000D03*
X79640000Y-122000000D03*
X79640000Y-119460000D03*
X82180000Y-122000000D03*
X82180000Y-119460000D03*
X84720000Y-122000000D03*
X84720000Y-119460000D03*
X87260000Y-122000000D03*
X87260000Y-119460000D03*
X89800000Y-122000000D03*
X89800000Y-119460000D03*
X92340000Y-122000000D03*
X92340000Y-119460000D03*
X94880000Y-122000000D03*
X94880000Y-119460000D03*
X97420000Y-122000000D03*
X97420000Y-119460000D03*
X99960000Y-122000000D03*
X99960000Y-119460000D03*
X102500000Y-122000000D03*
X102500000Y-119460000D03*
D12*
X33560000Y-114410000D03*
D17*
X36100000Y-114410000D03*
X38640000Y-114410000D03*
X41180000Y-114410000D03*
X43720000Y-114410000D03*
X46260000Y-114410000D03*
X48800000Y-114410000D03*
X51340000Y-114410000D03*
X53880000Y-114410000D03*
X56420000Y-114410000D03*
X58960000Y-114410000D03*
X61500000Y-114410000D03*
D11*
X118250000Y-84250000D03*
X120790000Y-84250000D03*
X124750000Y-87500000D03*
X124750000Y-84960000D03*
D12*
X37000000Y-45000000D03*
D13*
X39540000Y-45000000D03*
D18*
X118949000Y-118350000D03*
D19*
X124949000Y-118350000D03*
D20*
X121949000Y-113650000D03*
D21*
X72220000Y-78150000D03*
D22*
X74760000Y-78150000D03*
X77300000Y-78150000D03*
X79840000Y-78150000D03*
X82380000Y-78150000D03*
X84920000Y-78150000D03*
X87460000Y-78150000D03*
X90000000Y-78150000D03*
D14*
X127040000Y-96750000D03*
D15*
X124500000Y-96750000D03*
D14*
X125770000Y-80500000D03*
D15*
X123230000Y-80500000D03*
D21*
X72260000Y-87500000D03*
D22*
X74800000Y-87500000D03*
X77340000Y-87500000D03*
X79880000Y-87500000D03*
X82420000Y-87500000D03*
X84960000Y-87500000D03*
X87500000Y-87500000D03*
X90040000Y-87500000D03*
D11*
X59040000Y-62397600D03*
X56500000Y-62397600D03*
D12*
X33560000Y-105230000D03*
D17*
X36100000Y-105230000D03*
X38640000Y-105230000D03*
X41180000Y-105230000D03*
X43720000Y-105230000D03*
X46260000Y-105230000D03*
X48800000Y-105230000D03*
X51340000Y-105230000D03*
X53880000Y-105230000D03*
X56420000Y-105230000D03*
X58960000Y-105230000D03*
X61500000Y-105230000D03*
D11*
X124710000Y-92750000D03*
X127250000Y-92750000D03*
X117000000Y-80000000D03*
X119540000Y-80000000D03*
D12*
X33560000Y-109820000D03*
D17*
X36100000Y-109820000D03*
X38640000Y-109820000D03*
X41180000Y-109820000D03*
X43720000Y-109820000D03*
X46260000Y-109820000D03*
X48800000Y-109820000D03*
X51340000Y-109820000D03*
X53880000Y-109820000D03*
X56420000Y-109820000D03*
X58960000Y-109820000D03*
X61500000Y-109820000D03*
D11*
X59040000Y-78893500D03*
X56500000Y-78893500D03*
D12*
X68580000Y-98958400D03*
D13*
X66040000Y-98958400D03*
X63500000Y-98958400D03*
X60960000Y-98958400D03*
X58420000Y-98958400D03*
X55880000Y-98958400D03*
X53340000Y-98958400D03*
X50800000Y-98958400D03*
D11*
X94960000Y-61500000D03*
X97500000Y-61500000D03*
X59040000Y-72295100D03*
X56500000Y-72295100D03*
D23*
X88920000Y-56500000D03*
D24*
X91460000Y-56500000D03*
X94000000Y-56500000D03*
D11*
X59040000Y-65696800D03*
X56500000Y-65696800D03*
D25*
X121809000Y-55183300D03*
D26*
X119269000Y-55183300D03*
X116729000Y-55183300D03*
X114189000Y-55183300D03*
X111649000Y-55183300D03*
X109109000Y-55183300D03*
D25*
X121809000Y-75503300D03*
D26*
X119269000Y-75503300D03*
X116729000Y-75503300D03*
X114189000Y-75503300D03*
X111649000Y-75503300D03*
X109109000Y-75503300D03*
D14*
X113040000Y-90500000D03*
D15*
X110500000Y-90500000D03*
D11*
X111455000Y-85750000D03*
X113995000Y-85750000D03*
D21*
X75725000Y-57020000D03*
D22*
X78265000Y-57020000D03*
D12*
X109220000Y-41046400D03*
D13*
X106680000Y-41046400D03*
X104140000Y-41046400D03*
X101600000Y-41046400D03*
X99060000Y-41046400D03*
X96520000Y-41046400D03*
X93980000Y-41046400D03*
X91440000Y-41046400D03*
D11*
X59040000Y-68996000D03*
X56500000Y-68996000D03*
D12*
X76000000Y-130500000D03*
D17*
X78540000Y-130500000D03*
X81080000Y-130500000D03*
X83620000Y-130500000D03*
X86160000Y-130500000D03*
X88700000Y-130500000D03*
X91240000Y-130500000D03*
X93780000Y-130500000D03*
X96320000Y-130500000D03*
X98860000Y-130500000D03*
X101400000Y-130500000D03*
X103940000Y-130500000D03*
D12*
X115450000Y-125560000D03*
D13*
X115450000Y-128100000D03*
D11*
X59040000Y-59098400D03*
X56500000Y-59098400D03*
X110960000Y-50900000D03*
X113500000Y-50900000D03*
X89037500Y-61212500D03*
X91577500Y-61212500D03*
X105350000Y-48750000D03*
X107890000Y-48750000D03*
D14*
X121540000Y-89750000D03*
D15*
X119000000Y-89750000D03*
D21*
X72153300Y-69041200D03*
D22*
X74693300Y-69041200D03*
X77233300Y-69041200D03*
X79773300Y-69041200D03*
X82313300Y-69041200D03*
X84853300Y-69041200D03*
X87393300Y-69041200D03*
X89933300Y-69041200D03*
D12*
X33560000Y-119000000D03*
D17*
X36100000Y-119000000D03*
X38640000Y-119000000D03*
X41180000Y-119000000D03*
X43720000Y-119000000D03*
X46260000Y-119000000D03*
X48800000Y-119000000D03*
X51340000Y-119000000D03*
X53880000Y-119000000D03*
X56420000Y-119000000D03*
X58960000Y-119000000D03*
X61500000Y-119000000D03*
D18*
X120000000Y-106207500D03*
D19*
X126000000Y-106207500D03*
D20*
X123000000Y-101507500D03*
D12*
X95504000Y-98958400D03*
D13*
X98044000Y-98958400D03*
X100584000Y-98958400D03*
X103124000Y-98958400D03*
X105664000Y-98958400D03*
X108204000Y-98958400D03*
X110744000Y-98958400D03*
X113284000Y-98958400D03*
X115824000Y-98958400D03*
X118364000Y-98958400D03*
D12*
X40411400Y-98933000D03*
D13*
X42951400Y-98933000D03*
D12*
X76000000Y-112000000D03*
D17*
X78540000Y-112000000D03*
X81080000Y-112000000D03*
X83620000Y-112000000D03*
X86160000Y-112000000D03*
X88700000Y-112000000D03*
X91240000Y-112000000D03*
X93780000Y-112000000D03*
X96320000Y-112000000D03*
X98860000Y-112000000D03*
X101400000Y-112000000D03*
X103940000Y-112000000D03*
D12*
X73660000Y-98958400D03*
D13*
X76200000Y-98958400D03*
X78740000Y-98958400D03*
X81280000Y-98958400D03*
X83820000Y-98958400D03*
X86360000Y-98958400D03*
X88900000Y-98958400D03*
X91440000Y-98958400D03*
D27*
X109205000Y-46039300D03*
X101585000Y-46039300D03*
X99045000Y-46039300D03*
X43165000Y-94299300D03*
X40625000Y-94299300D03*
X86345000Y-46039300D03*
X83805000Y-46039300D03*
X81265000Y-46039300D03*
X78725000Y-46039300D03*
X76185000Y-46039300D03*
X73645000Y-46039300D03*
X71105000Y-46039300D03*
X68565000Y-46039300D03*
X63485000Y-46039300D03*
X60945000Y-46039300D03*
X58405000Y-46039300D03*
X55865000Y-46039300D03*
X53325000Y-46039300D03*
X50785000Y-46039300D03*
X48245000Y-46039300D03*
X45705000Y-46039300D03*
X113269000Y-94299300D03*
X73645000Y-94299300D03*
X76185000Y-94299300D03*
X78725000Y-94299300D03*
X81265000Y-94299300D03*
X83805000Y-94299300D03*
X86345000Y-94299300D03*
X88885000Y-94299300D03*
X91425000Y-94299300D03*
X95489000Y-94299300D03*
X98029000Y-94299300D03*
X100569000Y-94299300D03*
X103109000Y-94299300D03*
X105649000Y-94299300D03*
X108189000Y-94299300D03*
X68565000Y-94299300D03*
X66025000Y-94299300D03*
X63485000Y-94299300D03*
X60945000Y-94299300D03*
X58405000Y-94299300D03*
X55865000Y-94299300D03*
X53325000Y-94299300D03*
X50785000Y-94299300D03*
X43165000Y-91759300D03*
X40625000Y-91759300D03*
X43165000Y-89219300D03*
X40625000Y-89219300D03*
X43165000Y-86679300D03*
X40625000Y-86679300D03*
X43165000Y-84139300D03*
X40625000Y-84139300D03*
X43165000Y-81599300D03*
X40625000Y-81599300D03*
X43165000Y-79059300D03*
X40625000Y-79059300D03*
X43165000Y-76519300D03*
X40625000Y-76519300D03*
X43165000Y-73979300D03*
X40625000Y-73979300D03*
X43165000Y-71439300D03*
X40625000Y-71439300D03*
X43165000Y-68899300D03*
X40625000Y-68899300D03*
X43165000Y-66359300D03*
X40625000Y-66359300D03*
X43165000Y-63819300D03*
X40625000Y-63819300D03*
X43165000Y-61279300D03*
X40625000Y-61279300D03*
X43165000Y-58739300D03*
X40625000Y-58739300D03*
X43165000Y-56199300D03*
X40625000Y-56199300D03*
X43165000Y-53659300D03*
X40625000Y-53659300D03*
D28*
X110729000Y-94299300D03*
X96505000Y-46039300D03*
X93965000Y-46039300D03*
X43165000Y-51119300D03*
X40625000Y-51119300D03*
D27*
X106665000Y-46039300D03*
X104125000Y-46039300D03*
X118349000Y-94299300D03*
X115809000Y-94299300D03*
X91425000Y-46039300D03*
D29*
X69710900Y-75761800D03*
X69738800Y-82162300D03*
X71862000Y-80033300D03*
X50025700Y-89532100D03*
X68899500Y-83029200D03*
X70568200Y-76546500D03*
D30*
X81878800Y-115338800D02*
X78540000Y-112000000D01*
X85678800Y-115338800D02*
X81878800Y-115338800D01*
X89800000Y-119460000D02*
X85678800Y-115338800D01*
X95195100Y-124295100D02*
X101400000Y-130500000D01*
X89555100Y-124295100D02*
X95195100Y-124295100D01*
X87260000Y-122000000D02*
X89555100Y-124295100D01*
X88624800Y-120824800D02*
X87260000Y-119460000D01*
X90289700Y-120824800D02*
X88624800Y-120824800D01*
X90975200Y-121510300D02*
X90289700Y-120824800D01*
X90975200Y-122299900D02*
X90975200Y-121510300D01*
X92249800Y-123574500D02*
X90975200Y-122299900D01*
X97014500Y-123574500D02*
X92249800Y-123574500D01*
X103940000Y-130500000D02*
X97014500Y-123574500D01*
X89042600Y-122000000D02*
X89800000Y-122000000D01*
X87772600Y-120730000D02*
X89042600Y-122000000D01*
X86850700Y-120730000D02*
X87772600Y-120730000D01*
X85990000Y-119869300D02*
X86850700Y-120730000D01*
X85990000Y-119058400D02*
X85990000Y-119869300D01*
X84837600Y-117906000D02*
X85990000Y-119058400D01*
X82713900Y-117906000D02*
X84837600Y-117906000D01*
X77175100Y-112367200D02*
X82713900Y-117906000D01*
X77175100Y-112000000D02*
X77175100Y-112367200D01*
X76000000Y-112000000D02*
X77175100Y-112000000D01*
X85990000Y-120730000D02*
X84720000Y-119460000D01*
X85990000Y-122393600D02*
X85990000Y-120730000D01*
X88927300Y-125330900D02*
X85990000Y-122393600D01*
X93690900Y-125330900D02*
X88927300Y-125330900D01*
X98860000Y-130500000D02*
X93690900Y-125330900D01*
X83450000Y-120730000D02*
X82180000Y-119460000D01*
X83450000Y-122393600D02*
X83450000Y-120730000D01*
X89931100Y-128874700D02*
X83450000Y-122393600D01*
X92154700Y-128874700D02*
X89931100Y-128874700D01*
X93780000Y-130500000D02*
X92154700Y-128874700D01*
X90680000Y-130500000D02*
X82180000Y-122000000D01*
X91240000Y-130500000D02*
X90680000Y-130500000D01*
X91032300Y-128312300D02*
X84720000Y-122000000D01*
X94132300Y-128312300D02*
X91032300Y-128312300D01*
X96320000Y-130500000D02*
X94132300Y-128312300D01*
X58960000Y-119000000D02*
X58960000Y-114410000D01*
X92667500Y-55167500D02*
X94000000Y-56500000D01*
X77577500Y-55167500D02*
X92667500Y-55167500D01*
X75725000Y-57020000D02*
X77577500Y-55167500D01*
X91440000Y-95503000D02*
X91440000Y-98958400D01*
X91425000Y-95488000D02*
X91440000Y-95503000D01*
X91425000Y-94299300D02*
X91425000Y-95488000D01*
X58420000Y-95503000D02*
X58420000Y-98958400D01*
X58405000Y-95488000D02*
X58420000Y-95503000D01*
X58405000Y-94299300D02*
X58405000Y-95488000D01*
X40625000Y-84139300D02*
X40625000Y-85328000D01*
X90000000Y-78150000D02*
X91195100Y-78150000D01*
X92193700Y-79148600D02*
X91195100Y-78150000D01*
X92193700Y-88597400D02*
X92193700Y-79148600D01*
X90080000Y-90711100D02*
X92193700Y-88597400D01*
X52481500Y-90711100D02*
X90080000Y-90711100D01*
X47236900Y-95955700D02*
X52481500Y-90711100D01*
X39899100Y-95955700D02*
X47236900Y-95955700D01*
X38984800Y-95041400D02*
X39899100Y-95955700D01*
X38984800Y-86596700D02*
X38984800Y-95041400D01*
X40253500Y-85328000D02*
X38984800Y-86596700D01*
X40625000Y-85328000D02*
X40253500Y-85328000D01*
X74760000Y-78150000D02*
X73564900Y-78150000D01*
X40625000Y-91759300D02*
X40625000Y-90570600D01*
X73564900Y-79270400D02*
X73564900Y-78150000D01*
X69016400Y-83818900D02*
X73564900Y-79270400D01*
X58434800Y-83818900D02*
X69016400Y-83818900D01*
X58050600Y-83434700D02*
X58434800Y-83818900D01*
X48336800Y-83434700D02*
X58050600Y-83434700D01*
X43741000Y-88030500D02*
X48336800Y-83434700D01*
X42650600Y-88030500D02*
X43741000Y-88030500D01*
X41895000Y-88786100D02*
X42650600Y-88030500D01*
X41895000Y-89670000D02*
X41895000Y-88786100D01*
X40994400Y-90570600D02*
X41895000Y-89670000D01*
X40625000Y-90570600D02*
X40994400Y-90570600D01*
X77300000Y-78150000D02*
X76104900Y-78150000D01*
X43165000Y-89219300D02*
X44353700Y-89219300D01*
X76104900Y-78747500D02*
X76104900Y-78150000D01*
X70575200Y-84277200D02*
X76104900Y-78747500D01*
X58256500Y-84277200D02*
X70575200Y-84277200D01*
X57893600Y-83914300D02*
X58256500Y-84277200D01*
X49658700Y-83914300D02*
X57893600Y-83914300D01*
X44353700Y-89219300D02*
X49658700Y-83914300D01*
X50800000Y-95503000D02*
X50800000Y-98958400D01*
X50785000Y-95488000D02*
X50800000Y-95503000D01*
X50785000Y-94299300D02*
X50785000Y-95488000D01*
D31*
X120000000Y-106208000D02*
X119999500Y-106208000D01*
X113492000Y-106208000D02*
X109550000Y-110150000D01*
X119999500Y-106208000D02*
X113492000Y-106208000D01*
D30*
X119999500Y-106208000D02*
X120000000Y-106207500D01*
X91743600Y-84973600D02*
X84920000Y-78150000D01*
X91743600Y-88410900D02*
X91743600Y-84973600D01*
X89920700Y-90233800D02*
X91743600Y-88410900D01*
X49088400Y-90233800D02*
X89920700Y-90233800D01*
X43816600Y-95505600D02*
X49088400Y-90233800D01*
X40085600Y-95505600D02*
X43816600Y-95505600D01*
X39434900Y-94854900D02*
X40085600Y-95505600D01*
X39434900Y-88686600D02*
X39434900Y-94854900D01*
X40253500Y-87868000D02*
X39434900Y-88686600D01*
X40625000Y-87868000D02*
X40253500Y-87868000D01*
X40625000Y-86679300D02*
X40625000Y-87868000D01*
X55052000Y-67548000D02*
X56500000Y-68996000D01*
X42630800Y-67548000D02*
X55052000Y-67548000D01*
X41813700Y-66730900D02*
X42630800Y-67548000D01*
X41813700Y-66359300D02*
X41813700Y-66730900D01*
X40625000Y-66359300D02*
X41813700Y-66359300D01*
X87460000Y-78150000D02*
X86264900Y-78150000D01*
X84507000Y-75761800D02*
X69710900Y-75761800D01*
X86264900Y-77519700D02*
X84507000Y-75761800D01*
X86264900Y-78150000D02*
X86264900Y-77519700D01*
X68119600Y-80543100D02*
X69738800Y-82162300D01*
X58149600Y-80543100D02*
X68119600Y-80543100D01*
X56500000Y-78893500D02*
X58149600Y-80543100D01*
X50993700Y-70088000D02*
X56500000Y-75594300D01*
X42630800Y-70088000D02*
X50993700Y-70088000D01*
X41813700Y-69270900D02*
X42630800Y-70088000D01*
X41813700Y-68899300D02*
X41813700Y-69270900D01*
X40625000Y-68899300D02*
X41813700Y-68899300D01*
X71783200Y-80033300D02*
X71862000Y-80033300D01*
X69279700Y-77529800D02*
X71783200Y-80033300D01*
X58435500Y-77529800D02*
X69279700Y-77529800D01*
X56500000Y-75594300D02*
X58435500Y-77529800D01*
X57374800Y-62397600D02*
X56500000Y-62397600D01*
X61163000Y-66185800D02*
X57374800Y-62397600D01*
X61163000Y-68105900D02*
X61163000Y-66185800D01*
X70242100Y-77185000D02*
X61163000Y-68105900D01*
X70859500Y-77185000D02*
X70242100Y-77185000D01*
X71331700Y-76712800D02*
X70859500Y-77185000D01*
X77809000Y-76712800D02*
X71331700Y-76712800D01*
X78570000Y-77473800D02*
X77809000Y-76712800D01*
X78570000Y-78824700D02*
X78570000Y-77473800D01*
X80614000Y-80868700D02*
X78570000Y-78824700D01*
X82811100Y-80868700D02*
X80614000Y-80868700D01*
X88844900Y-86902500D02*
X82811100Y-80868700D01*
X88844900Y-87500000D02*
X88844900Y-86902500D01*
X90040000Y-87500000D02*
X88844900Y-87500000D01*
X79773300Y-69041200D02*
X77233300Y-69041200D01*
X53340000Y-41046400D02*
X55880000Y-41046400D01*
X88920000Y-58555000D02*
X91577500Y-61212500D01*
X88920000Y-56500000D02*
X88920000Y-58555000D01*
X94672500Y-61212500D02*
X94960000Y-61500000D01*
X91577500Y-61212500D02*
X94672500Y-61212500D01*
X40625000Y-58739300D02*
X40625000Y-57550600D01*
X117298000Y-45470000D02*
X116122900Y-45470000D01*
X40253500Y-57550600D02*
X40625000Y-57550600D01*
X38979600Y-56276700D02*
X40253500Y-57550600D01*
X38979600Y-50564800D02*
X38979600Y-56276700D01*
X45143900Y-44400500D02*
X38979600Y-50564800D01*
X115053400Y-44400500D02*
X45143900Y-44400500D01*
X116122900Y-45470000D02*
X115053400Y-44400500D01*
X113284000Y-95503000D02*
X113284000Y-98958400D01*
X113269000Y-95488000D02*
X113284000Y-95503000D01*
X113269000Y-94299300D02*
X113269000Y-95488000D01*
X116729000Y-75503300D02*
X119269000Y-75503300D01*
X102773700Y-46408800D02*
X102773700Y-46039300D01*
X103714500Y-47349600D02*
X102773700Y-46408800D01*
X108089800Y-47349600D02*
X103714500Y-47349600D01*
X110960000Y-50219800D02*
X108089800Y-47349600D01*
X110960000Y-50900000D02*
X110960000Y-50219800D01*
X101585000Y-46039300D02*
X102773700Y-46039300D01*
X54319100Y-61279300D02*
X56500000Y-59098400D01*
X43165000Y-61279300D02*
X54319100Y-61279300D01*
X86360000Y-95503000D02*
X86360000Y-98958400D01*
X86345000Y-95488000D02*
X86360000Y-95503000D01*
X86345000Y-94299300D02*
X86345000Y-95488000D01*
X82380000Y-78150000D02*
X83575100Y-78150000D01*
X89945200Y-89532100D02*
X50025700Y-89532100D01*
X91269900Y-88207400D02*
X89945200Y-89532100D01*
X91269900Y-86781000D02*
X91269900Y-88207400D01*
X83575100Y-79086200D02*
X91269900Y-86781000D01*
X83575100Y-78150000D02*
X83575100Y-79086200D01*
X112725000Y-84275000D02*
X117000000Y-80000000D01*
X112725000Y-86073300D02*
X112725000Y-84275000D01*
X106689600Y-92108700D02*
X112725000Y-86073300D01*
X69032800Y-92108700D02*
X106689600Y-92108700D01*
X67213700Y-93927800D02*
X69032800Y-92108700D01*
X67213700Y-94299300D02*
X67213700Y-93927800D01*
X66025000Y-94299300D02*
X67213700Y-94299300D01*
X68565000Y-94299300D02*
X69753700Y-94299300D01*
X113270000Y-89230000D02*
X118250000Y-84250000D01*
X112008500Y-89230000D02*
X113270000Y-89230000D01*
X111814800Y-89423700D02*
X112008500Y-89230000D01*
X111814800Y-90934300D02*
X111814800Y-89423700D01*
X110135700Y-92613400D02*
X111814800Y-90934300D01*
X71439600Y-92613400D02*
X110135700Y-92613400D01*
X69753700Y-94299300D02*
X71439600Y-92613400D01*
X115064700Y-53519000D02*
X116729000Y-55183300D01*
X79729700Y-53519000D02*
X115064700Y-53519000D01*
X79589400Y-53659300D02*
X79729700Y-53519000D01*
X55164600Y-53659300D02*
X79589400Y-53659300D01*
X53964800Y-52459500D02*
X55164600Y-53659300D01*
X40091200Y-52459500D02*
X53964800Y-52459500D01*
X39435100Y-53115600D02*
X40091200Y-52459500D01*
X39435100Y-54192200D02*
X39435100Y-53115600D01*
X40253500Y-55010600D02*
X39435100Y-54192200D01*
X40625000Y-55010600D02*
X40253500Y-55010600D01*
X40625000Y-56199300D02*
X40625000Y-55010600D01*
X58424700Y-87500000D02*
X72260000Y-87500000D01*
X56416600Y-85491900D02*
X58424700Y-87500000D01*
X43165000Y-56199300D02*
X44353700Y-56199300D01*
X45603300Y-57448900D02*
X44353700Y-56199300D01*
X70819800Y-57448900D02*
X45603300Y-57448900D01*
X78665700Y-65294800D02*
X70819800Y-57448900D01*
X98900500Y-65294800D02*
X78665700Y-65294800D01*
X109109000Y-75503300D02*
X98900500Y-65294800D01*
X40625000Y-71439300D02*
X41813700Y-71439300D01*
X46935300Y-72628000D02*
X56500000Y-82192700D01*
X42630800Y-72628000D02*
X46935300Y-72628000D01*
X41813700Y-71810900D02*
X42630800Y-72628000D01*
X41813700Y-71439300D02*
X41813700Y-71810900D01*
X68606500Y-83322200D02*
X68899500Y-83029200D01*
X58574700Y-83322200D02*
X68606500Y-83322200D01*
X57445200Y-82192700D02*
X58574700Y-83322200D01*
X56500000Y-82192700D02*
X57445200Y-82192700D01*
X40625000Y-53659300D02*
X41813700Y-53659300D01*
X41813700Y-54030900D02*
X41813700Y-53659300D01*
X42630800Y-54848000D02*
X41813700Y-54030900D01*
X52086800Y-54848000D02*
X42630800Y-54848000D01*
X54237500Y-56998700D02*
X52086800Y-54848000D01*
X72968600Y-56998700D02*
X54237500Y-56998700D01*
X80364500Y-64394600D02*
X72968600Y-56998700D01*
X100540300Y-64394600D02*
X80364500Y-64394600D01*
X111649000Y-75503300D02*
X100540300Y-64394600D01*
X79322000Y-76211900D02*
X79840000Y-76729900D01*
X70902800Y-76211900D02*
X79322000Y-76211900D01*
X70568200Y-76546500D02*
X70902800Y-76211900D01*
X79840000Y-78150000D02*
X79840000Y-76729900D01*
X113001800Y-53996100D02*
X114189000Y-55183300D01*
X79889200Y-53996100D02*
X113001800Y-53996100D01*
X79775900Y-54109400D02*
X79889200Y-53996100D01*
X44803800Y-54109400D02*
X79775900Y-54109400D01*
X44353700Y-53659300D02*
X44803800Y-54109400D01*
X43165000Y-53659300D02*
X44353700Y-53659300D01*
X59040000Y-68996000D02*
X59040000Y-72295100D01*
X59040000Y-72295100D02*
X59040000Y-75594300D01*
X40625000Y-94299300D02*
X43165000Y-94299300D01*
X58306300Y-85491900D02*
X58956600Y-85491900D01*
X57178900Y-84364500D02*
X58306300Y-85491900D01*
X54288500Y-84364500D02*
X57178900Y-84364500D01*
X44353700Y-94299300D02*
X54288500Y-84364500D01*
X43165000Y-94299300D02*
X44353700Y-94299300D01*
X92584300Y-52500000D02*
X99045000Y-46039300D01*
X59040000Y-52500000D02*
X92584300Y-52500000D01*
X115450000Y-115800300D02*
X115450000Y-125560000D01*
X122964300Y-108286000D02*
X115450000Y-115800300D01*
X122964300Y-105304100D02*
X122964300Y-108286000D01*
X125757800Y-102510600D02*
X122964300Y-105304100D01*
X125757800Y-95027700D02*
X125757800Y-102510600D01*
X124710000Y-93979900D02*
X125757800Y-95027700D01*
X124710000Y-92750000D02*
X124710000Y-93979900D01*
X54622500Y-63819300D02*
X56500000Y-65696800D01*
X43165000Y-63819300D02*
X54622500Y-63819300D01*
X111463900Y-105050000D02*
X110750000Y-105050000D01*
X117094000Y-99419900D02*
X111463900Y-105050000D01*
X117094000Y-97265200D02*
X117094000Y-99419900D01*
X124750000Y-89609200D02*
X117094000Y-97265200D01*
X124750000Y-87500000D02*
X124750000Y-89609200D01*
X37000000Y-56841500D02*
X37000000Y-45000000D01*
X40111500Y-59953000D02*
X37000000Y-56841500D01*
X45691500Y-59953000D02*
X40111500Y-59953000D01*
X47693400Y-57951100D02*
X45691500Y-59953000D01*
X65779500Y-57951100D02*
X47693400Y-57951100D01*
X75449400Y-67621000D02*
X65779500Y-57951100D01*
X93326000Y-67621000D02*
X75449400Y-67621000D01*
X111455000Y-85750000D02*
X93326000Y-67621000D01*
X118949000Y-124233800D02*
X118949000Y-118350000D01*
X116257900Y-126924900D02*
X118949000Y-124233800D01*
X115450000Y-126924900D02*
X116257900Y-126924900D01*
X115450000Y-128100000D02*
X115450000Y-126924900D01*
X112663900Y-78836100D02*
X111000000Y-80500000D01*
X118376100Y-78836100D02*
X112663900Y-78836100D01*
X119540000Y-80000000D02*
X118376100Y-78836100D01*
X123790000Y-84960000D02*
X119000000Y-89750000D01*
X124750000Y-84960000D02*
X123790000Y-84960000D01*
X40625000Y-51119300D02*
X43165000Y-51119300D01*
X93980000Y-41046400D02*
X96520000Y-41046400D01*
X110744000Y-95503000D02*
X110744000Y-98958400D01*
X110729000Y-95488000D02*
X110744000Y-95503000D01*
X110729000Y-94299300D02*
X110729000Y-95488000D01*
X93965000Y-46039300D02*
X96505000Y-46039300D01*
X110423500Y-44850600D02*
X116122900Y-50550000D01*
X98494900Y-44850600D02*
X110423500Y-44850600D01*
X97693700Y-45651800D02*
X98494900Y-44850600D01*
X97693700Y-46039300D02*
X97693700Y-45651800D01*
X96505000Y-46039300D02*
X97693700Y-46039300D01*
X117298000Y-50550000D02*
X116122900Y-50550000D01*
X125770000Y-80500000D02*
X125770000Y-81725100D01*
X121540000Y-89750000D02*
X121540000Y-88524900D01*
X120314900Y-90209500D02*
X120314900Y-89750000D01*
X119549300Y-90975100D02*
X120314900Y-90209500D01*
X114740200Y-90975100D02*
X119549300Y-90975100D01*
X114265100Y-90500000D02*
X114740200Y-90975100D01*
X113040000Y-90500000D02*
X114265100Y-90500000D01*
X121540000Y-89750000D02*
X120314900Y-89750000D01*
X127040000Y-96750000D02*
X127040000Y-95524900D01*
X125980000Y-94464900D02*
X127040000Y-95524900D01*
X125980000Y-87077600D02*
X125980000Y-94464900D01*
X125132400Y-86230000D02*
X125980000Y-87077600D01*
X125901900Y-85460500D02*
X125132400Y-86230000D01*
X125901900Y-81857000D02*
X125901900Y-85460500D01*
X125770000Y-81725100D02*
X125901900Y-81857000D01*
X123834900Y-86230000D02*
X121540000Y-88524900D01*
X125132400Y-86230000D02*
X123834900Y-86230000D01*
X110500000Y-89245000D02*
X110500000Y-90500000D01*
X113995000Y-85750000D02*
X110500000Y-89245000D01*
M02*
