0
SECTION
2
HEADER
9
$INSUNITS
70
4
9
$ACADVER
1
AC1014
9
$HANDSEED
5
FFFF
0
ENDSEC
0
SECTION
2
TABLES
0
TABLE
2
VPORT
5
8
100
AcDbSymbolTable
0
ENDTAB
0
TABLE
2
LTYPE
5
5
100
AcDbSymbolTable
0
LTYPE
5
14
100
AcDbSymbolTableRecord
100
AcDbLinetypeTableRecord
2
BYBLOCK
70
0
0
LTYPE
5
15
100
AcDbSymbolTableRecord
100
AcDbLinetypeTableRecord
2
BYLAYER
70
0
0
ENDTAB
0
TABLE
2
LAYER
5
2
100
AcDbSymbolTable
70
2
0
LAYER
5
50
100
AcDbSymbolTableRecord
100
AcDbLayerTableRecord
2
0
70
0
6
CONTINUOUS
0
ENDTAB
0
TABLE
2
STYLE
5
3
100
AcDbSymbolTable
70
1
0
STYLE
5
11
100
AcDbSymbolTableRecord
100
AcDbTextStyleTableRecord
2
STANDARD
70
0
0
ENDTAB
0
TABLE
2
VIEW
5
6
100
AcDbSymbolTable
70
0
0
ENDTAB
0
TABLE
2
UCS
5
7
100
AcDbSymbolTable
70
0
0
ENDTAB
0
TABLE
2
APPID
5
9
100
AcDbSymbolTable
70
2
0
APPID
5
12
100
AcDbSymbolTableRecord
100
AcDbRegAppTableRecord
2
ACAD
70
0
0
ENDTAB
0
TABLE
2
DIMSTYLE
5
A
100
AcDbSymbolTable
70
1
0
ENDTAB
0
TABLE
2
BLOCK_RECORD
5
1
100
AcDbSymbolTable
70
1
0
BLOCK_RECORD
5
1F
100
AcDbSymbolTableRecord
100
AcDbBlockTableRecord
2
*MODEL_SPACE
0
BLOCK_RECORD
5
1B
100
AcDbSymbolTableRecord
100
AcDbBlockTableRecord
2
*PAPER_SPACE
0
ENDTAB
0
ENDSEC
0
SECTION
2
BLOCKS
0
BLOCK
5
20
100
AcDbEntity
100
AcDbBlockBegin
2
*MODEL_SPACE
0
ENDBLK
5
21
100
AcDbEntity
100
AcDbBlockEnd
0
BLOCK
5
1C
100
AcDbEntity
100
AcDbBlockBegin
2
*PAPER_SPACE
0
ENDBLK
5
1D
100
AcDbEntity
100
AcDbBlockEnd
0
ENDSEC
0
SECTION
2
ENTITIES
0
LWPOLYLINE
5
100
100
AcDbEntity
8
0
100
AcDbPolyline
90
4
70
1
43
0.0
10
-8.3451006847151898
20
13.15492701368629
10
56.655910315284792
20
13.154927013686358
10
14.664595315284847
20
107.27339201368633
10
-8.3451026847151955
20
107.2733950136863
0
CIRCLE
5
101
100
AcDbEntity
8
0
100
AcDbCircle
10
36.196019315284794
20
34.021296013686289
30
0
40
2.1526500000000044
210
1.0863791492285007e-48
220
-2.4651903288156624e-32
230
1
0
CIRCLE
5
102
100
AcDbEntity
8
0
100
AcDbCircle
10
15.114018315284818
20
47.102297013686325
30
0
40
6.3500010000000087
210
1.3684555315672045e-48
220
1.3627069921338696e-64
230
1
0
CIRCLE
5
103
100
AcDbEntity
8
0
100
AcDbCircle
10
13.791293315284818
20
85.102306013686331
30
0
40
2.1526499999999866
210
-1.3684555315672045e-48
220
-1.3627069921338691e-64
230
1
0
LWPOLYLINE
5
104
100
AcDbEntity
8
0
100
AcDbPolyline
90
2
70
1
43
0.0
10
0.022882355783895025
20
61.104432973187414
42
1.0680036535623936
10
-3.0148477252140577
20
64.142163054185403
42
1.068003653562535
0
CIRCLE
5
105
100
AcDbEntity
8
0
100
AcDbCircle
10
24.612892315284792
20
47.102297013686325
30
0
40
1.587499999999995
210
-1.3684555315672042e-48
220
-1.3627069921338687e-64
230
1
0
CIRCLE
5
106
100
AcDbEntity
8
0
100
AcDbCircle
10
42.638642315284805
20
22.949657013686288
30
0
40
2.1526500000000044
210
1.0863791492285007e-48
220
-2.4651903288156624e-32
230
1
0
LWPOLYLINE
5
107
100
AcDbEntity
8
0
100
AcDbPolyline
90
6
70
1
43
0.0
10
18.670018315284523
20
57.1592970136861
10
13.590018315284524
20
57.159297013686086
42
-0.99999999999999989
10
13.590018315284507
20
60.159297013686093
10
18.670018315284516
20
60.159297013686121
42
-0.38546386440268787
10
20.162652013347468
20
58.807771400052708
42
-17.200563803002229
10
20.107565830218363
20
58.230978041064603
42
-0.33172800240609718
0
LWPOLYLINE
5
108
100
AcDbEntity
8
0
100
AcDbPolyline
90
4
70
1
43
0.0
10
17.146018315284593
20
31.433297013686108
10
22.226018315284605
20
31.433297013686143
42
-0.99999999999999989
10
22.22601831528462
20
25.433297013686129
10
17.146018315284614
20
25.433297013686094
42
-0.99999999999999989
0
CIRCLE
5
109
100
AcDbEntity
8
0
100
AcDbCircle
10
8.3830183152845361
20
60.056297013686198
30
0
40
2.5
210
-0
220
0
230
1
0
LWPOLYLINE
5
110
100
AcDbEntity
8
0
100
AcDbPolyline
90
6
70
1
43
0.0
10
28.322018315284581
20
38.061297013686115
10
30.862018315284601
20
38.061297013686143
42
-0.99999999999999989
10
30.862018315284594
20
35.061297013686179
10
29.768719848367073
20
35.061297013686172
42
-8.852405286958577
10
28.653316782203166
20
35.061297013686172
10
28.322018315284598
20
35.061297013686143
42
-0.99999999999999989
0
LWPOLYLINE
5
111
100
AcDbEntity
8
0
100
AcDbPolyline
90
4
70
1
43
0.0
10
30.862018315284566
20
42.681297013686162
10
28.322018315284573
20
42.681297013686162
42
-0.99999999999999989
10
28.322018315284552
20
45.681297013686176
10
30.862018315284566
20
45.681297013686176
42
-0.99999999999999989
0
CIRCLE
5
112
100
AcDbEntity
8
0
100
AcDbCircle
10
-1.2689816847149777
20
36.180297013685909
30
0
40
2.5
210
-0
220
0
230
1
0
ENDSEC
0
SECTION
2
OBJECTS
0
DICTIONARY
5
C
100
AcDbDictionary
3
ACAD_GROUP
350
D
3
ACAD_MLINESTYLE
350
17
0
DICTIONARY
5
D
100
AcDbDictionary
0
DICTIONARY
5
1A
330
C
100
AcDbDictionary
0
DICTIONARY
5
17
100
AcDbDictionary
0
ENDSEC
0
EOF
