  0
SECTION
  2
HEADER
  9
$ACADVER
  1
AC1009
  9
$INSBASE
 10
0.0
 20
0.0
 30
0.0
  9
$EXTMIN
 10
0.0000002439999997
 20
0.0000002439999997
 30
-0.00000001
  9
$EXTMAX
 10
389.70720988358067
 20
538.20000026399805
 30
0.00000001
  9
$LIMMIN
 10
0.0
 20
0.0
  9
$LIMMAX
 10
8.5033333333333339
 20
11.00333333333333
  9
$ORTHOMODE
 70
     0
  9
$REGENMODE
 70
     1
  9
$FILLMODE
 70
     1
  9
$QTEXTMODE
 70
     0
  9
$MIRRTEXT
 70
     0
  9
$DRAGMODE
 70
     2
  9
$LTSCALE
 40
1.0
  9
$OSMODE
 70
     0
  9
$ATTMODE
 70
     1
  9
$TEXTSIZE
 40
9.9999999999999982
  9
$TRACEWID
 40
0.05
  9
$TEXTSTYLE
  7
STANDARD
  9
$CLAYER
  8
0
  9
$CELTYPE
  6
BYLAYER
  9
$CECOLOR
 62
     7
  9
$DIMSCALE
 40
1.0
  9
$DIMASZ
 40
0.18
  9
$DIMEXO
 40
0.0625
  9
$DIMDLI
 40
0.38
  9
$DIMRND
 40
0.0
  9
$DIMDLE
 40
0.0
  9
$DIMEXE
 40
0.18
  9
$DIMTP
 40
0.0
  9
$DIMTM
 40
0.0
  9
$DIMTXT
 40
0.1574803149606299
  9
$DIMCEN
 40
0.09
  9
$DIMTSZ
 40
0.0
  9
$DIMTOL
 70
     0
  9
$DIMLIM
 70
     0
  9
$DIMTIH
 70
     1
  9
$DIMTOH
 70
     1
  9
$DIMSE1
 70
     0
  9
$DIMSE2
 70
     0
  9
$DIMTAD
 70
     0
  9
$DIMZIN
 70
     0
  9
$DIMBLK
  1

  9
$DIMASO
 70
     1
  9
$DIMSHO
 70
     1
  9
$DIMPOST
  1

  9
$DIMAPOST
  1

  9
$DIMALT
 70
     0
  9
$DIMALTD
 70
     2
  9
$DIMALTF
 40
25.399999999999999
  9
$DIMLFAC
 40
1.0
  9
$DIMTOFL
 70
     0
  9
$DIMTVP
 40
0.0
  9
$DIMTIX
 70
     0
  9
$DIMSOXD
 70
     0
  9
$DIMSAH
 70
     0
  9
$DIMBLK1
  1

  9
$DIMBLK2
  1

  9
$DIMSTYLE
  2
STANDARD
  9
$DIMCLRD
 70
     0
  9
$DIMCLRE
 70
     0
  9
$DIMCLRT
 70
     0
  9
$DIMTFAC
 40
1.0
  9
$DIMGAP
 40
0.09
  9
$LUNITS
 70
     2
  9
$LUPREC
 70
     2
  9
$SKETCHINC
 40
0.1
  9
$FILLETRAD
 40
1.5
  9
$AUNITS
 70
     0
  9
$AUPREC
 70
     2
  9
$MENU
  1
.
  9
$ELEVATION
 40
0.0
  9
$PELEVATION
 40
0.0
  9
$THICKNESS
 40
0.0
  9
$LIMCHECK
 70
     0
  9
$BLIPMODE
 70
     0
  9
$CHAMFERA
 40
4.9999999999999991
  9
$CHAMFERB
 40
4.9999999999999991
  9
$SKPOLY
 70
     0
  9
$TDCREATE
 40
2460986.3593240278
  9
$TDUPDATE
 40
2460986.3593240278
  9
$TDINDWG
 40
0.0000002315
  9
$TDUSRTIMER
 40
0.0000002315
  9
$USRTIMER
 70
     1
  9
$ANGBASE
 50
0.0
  9
$ANGDIR
 70
     0
  9
$PDMODE
 70
     0
  9
$PDSIZE
 40
0.0
  9
$PLINEWID
 40
0.0
  9
$COORDS
 70
     0
  9
$SPLFRAME
 70
     0
  9
$SPLINETYPE
 70
     6
  9
$SPLINESEGS
 70
     8
  9
$ATTDIA
 70
     0
  9
$ATTREQ
 70
     1
  9
$HANDLING
 70
     1
  9
$HANDSEED
  5
11F
  9
$SURFTAB1
 70
     6
  9
$SURFTAB2
 70
     6
  9
$SURFTYPE
 70
     6
  9
$SURFU
 70
     6
  9
$SURFV
 70
     6
  9
$UCSNAME
  2

  9
$UCSORG
 10
0.0
 20
0.0
 30
0.0
  9
$UCSXDIR
 10
1.0
 20
0.0
 30
0.0
  9
$UCSYDIR
 10
0.0
 20
1.0
 30
0.0
  9
$PUCSNAME
  2

  9
$PUCSORG
 10
0.0
 20
0.0
 30
0.0
  9
$PUCSXDIR
 10
1.0
 20
0.0
 30
0.0
  9
$PUCSYDIR
 10
0.0
 20
1.0
 30
0.0
  9
$USERI1
 70
     0
  9
$USERI2
 70
     0
  9
$USERI3
 70
     0
  9
$USERI4
 70
     0
  9
$USERI5
 70
     0
  9
$USERR1
 40
0.0
  9
$USERR2
 40
0.0
  9
$USERR3
 40
0.0
  9
$USERR4
 40
0.0
  9
$USERR5
 40
0.0
  9
$WORLDVIEW
 70
     1
  9
$SHADEDGE
 70
     3
  9
$SHADEDIF
 70
    70
  9
$TILEMODE
 70
     1
  9
$MAXACTVP
 70
    64
  9
$PLIMCHECK
 70
     0
  9
$PEXTMIN
 10
1.0000000000000000E+020
 20
1.0000000000000000E+020
 30
1.0000000000000000E+020
  9
$PEXTMAX
 10
-1.0000000000000000E+020
 20
-1.0000000000000000E+020
 30
-1.0000000000000000E+020
  9
$PLIMMIN
 10
0.0
 20
0.0
  9
$PLIMMAX
 10
12.0
 20
9.0
  9
$UNITMODE
 70
     0
  9
$VISRETAIN
 70
     1
  9
$PLINEGEN
 70
     0
  9
$PSLTSCALE
 70
     1
  0
ENDSEC
  0
SECTION
  2
TABLES
  0
TABLE
  2
VPORT
 70
     1
  0
VPORT
  2
*ACTIVE
 70
     0
 10
0.0
 20
0.0
 11
1.0
 21
1.0
 12
194.85360494179031
 22
269.10000013199902
 13
0.0
 23
0.0
 14
1.0
 24
1.0
 15
0.0
 25
0.0
 16
0.0
 26
0.0
 36
1.0
 17
0.0
 27
0.0
 37
0.0
 40
538.20000026399805
 41
0.7240936634939083
 42
50.0
 43
0.0
 44
0.0
 50
0.0
 51
0.0
 71
     0
 72
   100
 73
     1
 74
     1
 75
     0
 76
     0
 77
     0
 78
     0
  0
ENDTAB
  0
TABLE
  2
LTYPE
 70
    40
  0
LTYPE
  2
CONTINUOUS
 70
     0
  3
Solid line
 72
    65
 73
     0
 40
0.0
  0
LTYPE
  2
HIDDEN
 70
     0
  3
_ _ _ _ _ _ _ _ _ _ _ _ _ _ 
 72
    65
 73
     2
 40
9.5249999999999986
 49
6.3499999999999988
 49
-3.1749999999999989
  0
LTYPE
  2
DASHED
 70
     0
  3
__ __ __ __ __ __ __ __ __ 
 72
    65
 73
     2
 40
19.050000000000001
 49
12.699999999999999
 49
-6.3499999999999988
  0
LTYPE
  2
CENTER
 70
     0
  3
____ _ ____ _ ____ _ ____ _ 
 72
    65
 73
     4
 40
50.799999999999997
 49
31.75
 49
-6.3499999999999988
 49
6.3499999999999988
 49
-6.3499999999999988
  0
LTYPE
  2
PHANTOM
 70
     0
  3
_____ _ _ _____ _ _ _____ _ _ 
 72
    65
 73
     6
 40
63.500000000000007
 49
31.75
 49
-6.3499999999999988
 49
6.3499999999999988
 49
-6.3499999999999988
 49
6.3499999999999988
 49
-6.3499999999999988
  0
LTYPE
  2
DOT
 70
     0
  3
...........................
 72
    65
 73
     2
 40
6.3499999999999988
 49
0.0
 49
-6.3499999999999988
  0
LTYPE
  2
DASHDOT
 70
     0
  3
__ . __ . __ . __ . __ . __ . 
 72
    65
 73
     4
 40
25.399999999999999
 49
12.699999999999999
 49
-6.3499999999999988
 49
0.0
 49
-6.3499999999999988
  0
LTYPE
  2
DIVIDE
 70
     0
  3
__ . . __ . . __ . . __ . . 
 72
    65
 73
     6
 40
31.75
 49
12.699999999999999
 49
-6.3499999999999988
 49
0.0
 49
-6.3499999999999988
 49
0.0
 49
-6.3499999999999988
  0
LTYPE
  2
BORDER
 70
     0
  3
__ __ . __ __ . __ __ . __ __ .
 72
    65
 73
     6
 40
44.449999999999989
 49
12.699999999999999
 49
-6.3499999999999988
 49
12.699999999999999
 49
-6.3499999999999988
 49
0.0
 49
-6.3499999999999988
  0
LTYPE
  2
BORDER2
 70
     0
  3
Border (.5x) __.__.__.__.__.__.
 72
    65
 73
     6
 40
0.875
 49
0.25
 49
-0.125
 49
0.25
 49
-0.125
 49
0.0
 49
-0.125
  0
LTYPE
  2
BORDERX2
 70
     0
  3
Border (2x) ____  ____  .  ____
 72
    65
 73
     6
 40
3.5
 49
1.0
 49
-0.5
 49
1.0
 49
-0.5
 49
0.0
 49
-0.5
  0
LTYPE
  2
CENTER2
 70
     0
  3
Center (.5x) ___ _ ___ _ ___ _ 
 72
    65
 73
     4
 40
1.125
 49
0.7500000000000001
 49
-0.125
 49
0.125
 49
-0.125
  0
LTYPE
  2
CENTERX2
 70
     0
  3
Center (2x) ________  __  _____
 72
    65
 73
     4
 40
4.0
 49
2.5
 49
-0.5
 49
0.5
 49
-0.5
  0
LTYPE
  2
DASHDOT2
 70
     0
  3
Dash dot (.5x) _._._._._._._._.
 72
    65
 73
     4
 40
0.5
 49
0.25
 49
-0.125
 49
0.0
 49
-0.125
  0
LTYPE
  2
DASHDOTX2
 70
     0
  3
Dash dot (2x) ____  .  ____  . 
 72
    65
 73
     4
 40
2.0
 49
1.0
 49
-0.5
 49
0.0
 49
-0.5
  0
LTYPE
  2
DASHED2
 70
     0
  3
Dashed (.5x) _ _ _ _ _ _ _ _ _ 
 72
    65
 73
     2
 40
0.375
 49
0.25
 49
-0.125
  0
LTYPE
  2
DASHEDX2
 70
     0
  3
Dashed (2x) ____  ____  ____  _
 72
    65
 73
     2
 40
1.5
 49
1.0
 49
-0.5
  0
LTYPE
  2
DIVIDE2
 70
     0
  3
Divide (.5x) __..__..__..__..__
 72
    65
 73
     6
 40
0.625
 49
0.25
 49
-0.125
 49
0.0
 49
-0.125
 49
0.0
 49
-0.125
  0
LTYPE
  2
DIVIDEX2
 70
     0
  3
Divide (2x) ________  .  .  ___
 72
    65
 73
     6
 40
2.5
 49
1.0
 49
-0.5
 49
0.0
 49
-0.5
 49
0.0
 49
-0.5
  0
LTYPE
  2
DOT2
 70
     0
  3
Dot (.5x) .....................
 72
    65
 73
     2
 40
0.125
 49
0.0
 49
-0.125
  0
LTYPE
  2
DOTX2
 70
     0
  3
Dot (2x) .  .  .  .  .  .  .  .
 72
    65
 73
     2
 40
0.5
 49
0.0
 49
-0.5
  0
LTYPE
  2
HIDDEN2
 70
     0
  3
Hidden (.5x) _ _ _ _ _ _ _ _ _ 
 72
    65
 73
     2
 40
0.1875
 49
0.125
 49
-0.0625
  0
LTYPE
  2
HIDDENX2
 70
     0
  3
Hidden (2x) ____ ____ ____ ____
 72
    65
 73
     2
 40
0.75
 49
0.5
 49
-0.25
  0
LTYPE
  2
PHANTOM2
 70
     0
  3
Phantom (.5x) ___ _ _ ___ _ _ _
 72
    65
 73
     6
 40
1.25
 49
0.6250000000000001
 49
-0.125
 49
0.125
 49
-0.125
 49
0.125
 49
-0.125
  0
LTYPE
  2
PHANTOMX2
 70
     0
  3
Phantom (2x) ____________    __
 72
    65
 73
     6
 40
5.0
 49
2.5
 49
-0.5
 49
0.5
 49
-0.5
 49
0.5
 49
-0.5
  0
LTYPE
  2
DOTS
 70
     0
  3
Dots - - - - - - - - - - - - - 
 72
    65
 73
     2
 40
0.1
 49
0.05
 49
-0.05
  0
LTYPE
  2
ACAD_ISO02W100
 70
     0
  3
__ __ __ __ __ __ __ __ __ __ _
 72
    65
 73
     2
 40
15.0
 49
12.0
 49
-3.0
  0
LTYPE
  2
ACAD_ISO03W100
 70
     0
  3
__    __    __    __    __    _
 72
    65
 73
     2
 40
30.0
 49
12.0
 49
-18.0
  0
LTYPE
  2
ACAD_ISO04W100
 70
     0
  3
____ . ____ . ____ . ____ . ___
 72
    65
 73
     4
 40
30.5
 49
24.0
 49
-3.0
 49
0.5
 49
-3.0
  0
LTYPE
  2
ACAD_ISO05W100
 70
     0
  3
____ .. ____ .. ____ .. ____ ..
 72
    65
 73
     6
 40
34.0
 49
24.0
 49
-3.0
 49
0.5
 49
-3.0
 49
0.5
 49
-3.0
  0
LTYPE
  2
ACAD_ISO06W100
 70
     0
  3
____ ... ____ ... ____ ... ____
 72
    65
 73
     6
 40
34.0
 49
24.0
 49
-3.0
 49
0.5
 49
-3.0
 49
0.5
 49
-3.0
  0
LTYPE
  2
ACAD_ISO07W100
 70
     0
  3
. . . . . . . . . . . . . . . .
 72
    65
 73
     2
 40
3.5
 49
0.5
 49
-3.0
  0
LTYPE
  2
ACAD_ISO08W100
 70
     0
  3
____ __ ____ __ ____ __ ____ __
 72
    65
 73
     4
 40
36.0
 49
24.0
 49
-3.0
 49
6.0
 49
-3.0
  0
LTYPE
  2
ACAD_ISO09W100
 70
     0
  3
____ __ __ ____ __ __ ____ __ _
 72
    65
 73
     6
 40
45.0
 49
24.0
 49
-3.0
 49
6.0
 49
-3.0
 49
6.0
 49
-3.0
  0
LTYPE
  2
ACAD_ISO10W100
 70
     0
  3
__ . __ . __ . __ . __ . __ . _
 72
    65
 73
     4
 40
18.5
 49
12.0
 49
-3.0
 49
0.5
 49
-3.0
  0
LTYPE
  2
ACAD_ISO11W100
 70
     0
  3
__ __ . __ __ . __ __ . __ __ .
 72
    65
 73
     6
 40
33.5
 49
12.0
 49
-3.0
 49
12.0
 49
-3.0
 49
0.5
 49
-3.0
  0
LTYPE
  2
ACAD_ISO12W100
 70
     0
  3
__ . . __ . . __ . . __ . . __ 
 72
    65
 73
     6
 40
22.0
 49
12.0
 49
-3.0
 49
0.5
 49
-3.0
 49
0.5
 49
-3.0
  0
LTYPE
  2
ACAD_ISO13W100
 70
     0
  3
__ __ . . __ __ . . __ __ . . _
 72
    65
 73
     6
 40
33.5
 49
12.0
 49
-3.0
 49
12.0
 49
-3.0
 49
0.5
 49
-3.0
  0
LTYPE
  2
ACAD_ISO14W100
 70
     0
  3
__ . . . __ . . . __ . . . __ .
 72
    65
 73
     6
 40
22.0
 49
12.0
 49
-3.0
 49
0.5
 49
-3.0
 49
0.5
 49
-3.0
  0
LTYPE
  2
ACAD_ISO15W100
 70
     0
  3
__ __ . . . __ __ . . . __ __ .
 72
    65
 73
     6
 40
33.5
 49
12.0
 49
-3.0
 49
12.0
 49
-3.0
 49
0.5
 49
-3.0
  0
ENDTAB
  0
TABLE
  2
LAYER
 70
     4
  0
LAYER
  2
0
 70
     0
 62
     7
  6
CONTINUOUS
  0
LAYER
  2
1
 70
     0
 62
     7
  6
CONTINUOUS
  0
LAYER
  2
LAYER_1
 70
     0
 62
     7
  6
CONTINUOUS
  0
LAYER
  2
R2V
 70
     0
 62
     7
  6
CONTINUOUS
  0
ENDTAB
  0
TABLE
  2
STYLE
 70
     4
  0
STYLE
  2
STANDARD
 70
     0
 40
0.0
 41
1.0
 50
0.0
 71
     0
 42
9.9999999999999982
  3
txt
  4

  0
STYLE
  2
ITALIC
 70
     0
 40
0.0
 41
1.0
 50
0.0
 71
     0
 42
9.9999999999999982
  3
ITALIC
  4

  0
STYLE
  2
SIMPLEX
 70
     0
 40
0.0
 41
1.0
 50
0.0
 71
     0
 42
9.9999999999999982
  3
SIMPLEX
  4

  0
STYLE
  2
COMPLEX
 70
     0
 40
0.0
 41
1.0
 50
0.0
 71
     0
 42
9.9999999999999982
  3
COMPLEX
  4

  0
ENDTAB
  0
TABLE
  2
VIEW
 70
     0
  0
ENDTAB
  0
TABLE
  2
UCS
 70
     0
  0
ENDTAB
  0
TABLE
  2
APPID
 70
     1
  0
APPID
  2
ACAD
 70
     0
  0
ENDTAB
  0
TABLE
  2
DIMSTYLE
 70
     1
  0
DIMSTYLE
  2
STANDARD
 70
     0
  3

  4

  5

  6

  7

 40
1.0
 41
0.18
 42
0.0625
 43
0.38
 44
0.18
 45
0.0
 46
0.0
 47
0.0
 48
0.0
140
0.18
141
0.09
142
0.0
143
25.399999999999999
144
1.0
145
0.0
146
1.0
147
0.09
 71
     0
 72
     0
 73
     1
 74
     1
 75
     0
 76
     0
 77
     0
 78
     0
170
     0
171
     2
172
     0
173
     0
174
     0
175
     0
176
     0
177
     0
178
     0
  0
ENDTAB
  0
ENDSEC
  0
SECTION
  2
BLOCKS
  0
BLOCK
  8
0
  2
$MODEL_SPACE
 70
     0
 10
0.0
 20
0.0
 30
0.0
  3
$MODEL_SPACE
  1

  0
ENDBLK
  5
23
  8
0
  0
BLOCK
 67
     1
  8
0
  2
$PAPER_SPACE
 70
     0
 10
0.0
 20
0.0
 30
0.0
  3
$PAPER_SPACE
  1

  0
ENDBLK
  5
1F
 67
     1
  8
0
  0
ENDSEC
  0
SECTION
  2
ENTITIES
  0
CIRCLE
  5
58
  8
1
  6
CONTINUOUS
 62
     7
 10
69.798944717042303
 20
213.52109617716479
 30
0.0
 40
1.5
  0
CIRCLE
  5
59
  8
1
  6
CONTINUOUS
 62
     7
 10
34.984119435803422
 20
84.219223337538423
 30
0.0
 40
1.5
  0
CIRCLE
  5
5A
  8
1
  6
CONTINUOUS
 62
     7
 10
11.786215461216569
 20
84.219223337538423
 30
0.0
 40
1.5
  0
CIRCLE
  5
5B
  8
1
  6
CONTINUOUS
 62
     7
 10
35.024433342769584
 20
453.60519392841161
 30
0.0
 40
1.5
  0
CIRCLE
  5
5C
  8
1
  6
CONTINUOUS
 62
     7
 10
11.826529368182751
 20
453.60519392841161
 30
0.0
 40
1.5
  0
LINE
  5
5D
  8
1
  6
CONTINUOUS
 62
     7
 10
257.32000025399992
 20
31.09134374189421
 30
0.0
 11
257.32000025399992
 21
23.10865676610188
 31
0.0
  0
LINE
  5
5E
  8
1
  6
CONTINUOUS
 62
     7
 10
257.32000025399992
 20
23.10865676610188
 30
0.0
 11
243.32000025400001
 21
23.108656766101891
 31
0.0
  0
LINE
  5
5F
  8
1
  6
CONTINUOUS
 62
     7
 10
243.32000025400001
 20
31.091343741894221
 30
0.0
 11
243.32000025400001
 21
23.108656766101891
 31
0.0
  0
LINE
  5
60
  8
1
  6
CONTINUOUS
 62
     7
 10
257.32000025399992
 20
31.09134374189421
 30
0.0
 11
243.32000025400001
 21
31.091343741894221
 31
0.0
  0
POLYLINE
  5
61
  8
0
 62
     7
 66
     1
 10
0.0
 20
0.0
 30
0.0
 70
     1
  0
VERTEX
  5
116
  8
0
 62
     7
 10
294.26863165574088
 20
80.379113057522247
 30
0.0
  0
VERTEX
  5
117
  8
0
 62
     7
 10
294.26863165574088
 20
67.123998556462055
 30
0.0
 42
0.4142135623725104
  0
VERTEX
  5
118
  8
0
 62
     7
 10
298.14107440521389
 20
63.251555806991199
 30
0.0
  0
VERTEX
  5
119
  8
0
 62
     7
 10
334.39618890626809
 20
63.251555806991192
 30
0.0
 42
0.4142135623725706
  0
VERTEX
  5
11A
  8
0
 62
     7
 10
338.26863165574252
 20
67.123998556458346
 30
0.0
  0
VERTEX
  5
11B
  8
0
 62
     7
 10
338.2686316557411
 20
80.379113057522218
 30
0.0
 42
0.4142135623733488
  0
VERTEX
  5
11C
  8
0
 62
     7
 10
334.39618890626627
 20
84.251555806994901
 30
0.0
  0
VERTEX
  5
11D
  8
0
 62
     7
 10
298.14107440521468
 20
84.251555806993025
 30
0.0
 42
0.4142135623734132
  0
SEQEND
  5
11E
  8
0
 62
     7
  0
CIRCLE
  5
62
  8
1
  6
CONTINUOUS
 62
     7
 10
28.818291065829978
 20
145.61662779275119
 30
0.0
 40
1.5
  0
CIRCLE
  5
63
  8
1
  6
CONTINUOUS
 62
     7
 10
28.818291065829978
 20
212.6166277927513
 30
0.0
 40
1.5
  0
CIRCLE
  5
64
  8
1
  6
CONTINUOUS
 62
     7
 10
28.818291065829978
 20
279.61662779275122
 30
0.0
 40
1.5
  0
CIRCLE
  5
65
  8
1
  6
CONTINUOUS
 62
     7
 10
28.818291065830021
 20
346.6166277927511
 30
0.0
 40
1.5
  0
CIRCLE
  5
66
  8
1
  6
CONTINUOUS
 62
     7
 10
28.818291065830021
 20
413.61662779275122
 30
0.0
 40
1.5
  0
CIRCLE
  5
67
  8
1
  6
CONTINUOUS
 62
     7
 10
28.818291065829928
 20
95.433758920467454
 30
0.0
 40
4.9043517225080917
  0
LINE
  5
68
  8
1
  6
CONTINUOUS
 62
     7
 10
33.418291065829969
 20
141.01662779275139
 30
0.0
 11
33.418291065829969
 21
116.7166277927514
 31
0.0
  0
LINE
  5
69
  8
1
  6
CONTINUOUS
 62
     7
 10
41.718291065829973
 20
141.01662779275139
 30
0.0
 11
41.718291065829973
 21
116.7166277927514
 31
0.0
  0
LINE
  5
6A
  8
1
  6
CONTINUOUS
 62
     7
 10
41.718291065829973
 20
116.7166277927514
 30
0.0
 11
33.418291065829969
 21
116.7166277927514
 31
0.0
  0
LINE
  5
6B
  8
1
  6
CONTINUOUS
 62
     7
 10
33.418291065829969
 20
141.01662779275139
 30
0.0
 11
41.718291065829973
 21
141.01662779275139
 31
0.0
  0
LINE
  5
6C
  8
1
  6
CONTINUOUS
 62
     7
 10
15.918291065829971
 20
141.01662779275139
 30
0.0
 11
15.918291065829971
 21
116.7166277927514
 31
0.0
  0
LINE
  5
6D
  8
1
  6
CONTINUOUS
 62
     7
 10
24.218291065829991
 20
141.01662779275139
 30
0.0
 11
24.218291065829991
 21
116.7166277927514
 31
0.0
  0
LINE
  5
6E
  8
1
  6
CONTINUOUS
 62
     7
 10
24.218291065829991
 20
116.7166277927514
 30
0.0
 11
15.918291065829971
 21
116.7166277927514
 31
0.0
  0
LINE
  5
6F
  8
1
  6
CONTINUOUS
 62
     7
 10
15.918291065829971
 20
141.01662779275139
 30
0.0
 11
24.218291065829991
 21
141.01662779275139
 31
0.0
  0
LINE
  5
70
  8
1
  6
CONTINUOUS
 62
     7
 10
15.918291065829971
 20
174.51662779275131
 30
0.0
 11
15.918291065829971
 21
150.2166277927513
 31
0.0
  0
LINE
  5
71
  8
1
  6
CONTINUOUS
 62
     7
 10
24.218291065829991
 20
174.51662779275131
 30
0.0
 11
24.218291065829991
 21
150.2166277927513
 31
0.0
  0
LINE
  5
72
  8
1
  6
CONTINUOUS
 62
     7
 10
24.218291065829991
 20
150.2166277927513
 30
0.0
 11
15.918291065829971
 21
150.2166277927513
 31
0.0
  0
LINE
  5
73
  8
1
  6
CONTINUOUS
 62
     7
 10
15.918291065829971
 20
174.51662779275131
 30
0.0
 11
24.218291065829991
 21
174.51662779275131
 31
0.0
  0
LINE
  5
74
  8
1
  6
CONTINUOUS
 62
     7
 10
33.418291065829969
 20
174.51662779275131
 30
0.0
 11
33.418291065829969
 21
150.2166277927513
 31
0.0
  0
LINE
  5
75
  8
1
  6
CONTINUOUS
 62
     7
 10
41.718291065829973
 20
174.51662779275131
 30
0.0
 11
41.718291065829973
 21
150.2166277927513
 31
0.0
  0
LINE
  5
76
  8
1
  6
CONTINUOUS
 62
     7
 10
41.718291065829973
 20
150.2166277927513
 30
0.0
 11
33.418291065829969
 21
150.2166277927513
 31
0.0
  0
LINE
  5
77
  8
1
  6
CONTINUOUS
 62
     7
 10
33.418291065829969
 20
174.51662779275131
 30
0.0
 11
41.718291065829973
 21
174.51662779275131
 31
0.0
  0
LINE
  5
78
  8
1
  6
CONTINUOUS
 62
     7
 10
33.418291065829969
 20
208.01662779275131
 30
0.0
 11
33.418291065829969
 21
183.7166277927513
 31
0.0
  0
LINE
  5
79
  8
1
  6
CONTINUOUS
 62
     7
 10
41.718291065829973
 20
208.01662779275131
 30
0.0
 11
41.718291065829973
 21
183.7166277927513
 31
0.0
  0
LINE
  5
7A
  8
1
  6
CONTINUOUS
 62
     7
 10
41.718291065829973
 20
183.7166277927513
 30
0.0
 11
33.418291065829969
 21
183.7166277927513
 31
0.0
  0
LINE
  5
7B
  8
1
  6
CONTINUOUS
 62
     7
 10
33.418291065829969
 20
208.01662779275131
 30
0.0
 11
41.718291065829973
 21
208.01662779275131
 31
0.0
  0
LINE
  5
7C
  8
1
  6
CONTINUOUS
 62
     7
 10
15.918291065829971
 20
208.01662779275131
 30
0.0
 11
15.918291065829971
 21
183.7166277927513
 31
0.0
  0
LINE
  5
7D
  8
1
  6
CONTINUOUS
 62
     7
 10
24.218291065829991
 20
208.01662779275131
 30
0.0
 11
24.218291065829991
 21
183.7166277927513
 31
0.0
  0
LINE
  5
7E
  8
1
  6
CONTINUOUS
 62
     7
 10
24.218291065829991
 20
183.7166277927513
 30
0.0
 11
15.918291065829971
 21
183.7166277927513
 31
0.0
  0
LINE
  5
7F
  8
1
  6
CONTINUOUS
 62
     7
 10
15.918291065829971
 20
208.01662779275131
 30
0.0
 11
24.218291065829991
 21
208.01662779275131
 31
0.0
  0
LINE
  5
80
  8
1
  6
CONTINUOUS
 62
     7
 10
15.918291065829971
 20
241.51662779275131
 30
0.0
 11
15.918291065829971
 21
217.21662779275121
 31
0.0
  0
LINE
  5
81
  8
1
  6
CONTINUOUS
 62
     7
 10
24.218291065829991
 20
241.51662779275131
 30
0.0
 11
24.218291065829991
 21
217.21662779275121
 31
0.0
  0
LINE
  5
82
  8
1
  6
CONTINUOUS
 62
     7
 10
24.218291065829991
 20
217.21662779275121
 30
0.0
 11
15.918291065829971
 21
217.21662779275121
 31
0.0
  0
LINE
  5
83
  8
1
  6
CONTINUOUS
 62
     7
 10
15.918291065829971
 20
241.51662779275131
 30
0.0
 11
24.218291065829991
 21
241.51662779275131
 31
0.0
  0
LINE
  5
84
  8
1
  6
CONTINUOUS
 62
     7
 10
33.418291065829969
 20
241.51662779275131
 30
0.0
 11
33.418291065829969
 21
217.21662779275121
 31
0.0
  0
LINE
  5
85
  8
1
  6
CONTINUOUS
 62
     7
 10
41.718291065829973
 20
241.51662779275131
 30
0.0
 11
41.718291065829973
 21
217.21662779275121
 31
0.0
  0
LINE
  5
86
  8
1
  6
CONTINUOUS
 62
     7
 10
41.718291065829973
 20
217.21662779275121
 30
0.0
 11
33.418291065829969
 21
217.21662779275121
 31
0.0
  0
LINE
  5
87
  8
1
  6
CONTINUOUS
 62
     7
 10
33.418291065829969
 20
241.51662779275131
 30
0.0
 11
41.718291065829973
 21
241.51662779275131
 31
0.0
  0
LINE
  5
88
  8
1
  6
CONTINUOUS
 62
     7
 10
33.418291065829969
 20
275.01662779275108
 30
0.0
 11
33.418291065829969
 21
250.7166277927511
 31
0.0
  0
LINE
  5
89
  8
1
  6
CONTINUOUS
 62
     7
 10
41.718291065829973
 20
275.01662779275108
 30
0.0
 11
41.718291065829973
 21
250.7166277927511
 31
0.0
  0
LINE
  5
8A
  8
1
  6
CONTINUOUS
 62
     7
 10
41.718291065829973
 20
250.7166277927511
 30
0.0
 11
33.418291065829969
 21
250.7166277927511
 31
0.0
  0
LINE
  5
8B
  8
1
  6
CONTINUOUS
 62
     7
 10
33.418291065829969
 20
275.01662779275108
 30
0.0
 11
41.718291065829973
 21
275.01662779275108
 31
0.0
  0
LINE
  5
8C
  8
1
  6
CONTINUOUS
 62
     7
 10
15.918291065829971
 20
275.01662779275108
 30
0.0
 11
15.918291065829971
 21
250.7166277927511
 31
0.0
  0
LINE
  5
8D
  8
1
  6
CONTINUOUS
 62
     7
 10
24.218291065829991
 20
275.01662779275108
 30
0.0
 11
24.218291065829991
 21
250.7166277927511
 31
0.0
  0
LINE
  5
8E
  8
1
  6
CONTINUOUS
 62
     7
 10
24.218291065829991
 20
250.7166277927511
 30
0.0
 11
15.918291065829971
 21
250.7166277927511
 31
0.0
  0
LINE
  5
8F
  8
1
  6
CONTINUOUS
 62
     7
 10
15.918291065829971
 20
275.01662779275108
 30
0.0
 11
24.218291065829991
 21
275.01662779275108
 31
0.0
  0
LINE
  5
90
  8
1
  6
CONTINUOUS
 62
     7
 10
33.418291065830012
 20
308.51662779275148
 30
0.0
 11
33.418291065829969
 21
284.21662779275118
 31
0.0
  0
LINE
  5
91
  8
1
  6
CONTINUOUS
 62
     7
 10
41.718291065830009
 20
308.51662779275148
 30
0.0
 11
41.718291065829973
 21
284.21662779275118
 31
0.0
  0
LINE
  5
92
  8
1
  6
CONTINUOUS
 62
     7
 10
41.718291065829973
 20
284.21662779275118
 30
0.0
 11
33.418291065829969
 21
284.21662779275118
 31
0.0
  0
LINE
  5
93
  8
1
  6
CONTINUOUS
 62
     7
 10
33.418291065830012
 20
308.51662779275148
 30
0.0
 11
41.718291065830009
 21
308.51662779275148
 31
0.0
  0
LINE
  5
94
  8
1
  6
CONTINUOUS
 62
     7
 10
15.918291065830021
 20
308.51662779275148
 30
0.0
 11
15.918291065829971
 21
284.21662779275118
 31
0.0
  0
LINE
  5
95
  8
1
  6
CONTINUOUS
 62
     7
 10
24.21829106583003
 20
308.51662779275148
 30
0.0
 11
24.218291065829991
 21
284.21662779275118
 31
0.0
  0
LINE
  5
96
  8
1
  6
CONTINUOUS
 62
     7
 10
24.218291065829991
 20
284.21662779275118
 30
0.0
 11
15.918291065829971
 21
284.21662779275118
 31
0.0
  0
LINE
  5
97
  8
1
  6
CONTINUOUS
 62
     7
 10
15.918291065830021
 20
308.51662779275148
 30
0.0
 11
24.21829106583003
 21
308.51662779275148
 31
0.0
  0
LINE
  5
98
  8
1
  6
CONTINUOUS
 62
     7
 10
15.918291065830021
 20
342.01662779275131
 30
0.0
 11
15.918291065830021
 21
317.71662779275118
 31
0.0
  0
LINE
  5
99
  8
1
  6
CONTINUOUS
 62
     7
 10
24.21829106583003
 20
342.01662779275131
 30
0.0
 11
24.21829106583003
 21
317.71662779275118
 31
0.0
  0
LINE
  5
9A
  8
1
  6
CONTINUOUS
 62
     7
 10
24.21829106583003
 20
317.71662779275118
 30
0.0
 11
15.918291065830021
 21
317.71662779275118
 31
0.0
  0
LINE
  5
9B
  8
1
  6
CONTINUOUS
 62
     7
 10
15.918291065830021
 20
342.01662779275131
 30
0.0
 11
24.21829106583003
 21
342.01662779275131
 31
0.0
  0
LINE
  5
9C
  8
1
  6
CONTINUOUS
 62
     7
 10
33.418291065830012
 20
342.01662779275131
 30
0.0
 11
33.418291065830012
 21
317.71662779275118
 31
0.0
  0
LINE
  5
9D
  8
1
  6
CONTINUOUS
 62
     7
 10
41.718291065830009
 20
342.01662779275131
 30
0.0
 11
41.718291065830009
 21
317.71662779275118
 31
0.0
  0
LINE
  5
9E
  8
1
  6
CONTINUOUS
 62
     7
 10
41.718291065830009
 20
317.71662779275118
 30
0.0
 11
33.418291065830012
 21
317.71662779275118
 31
0.0
  0
LINE
  5
9F
  8
1
  6
CONTINUOUS
 62
     7
 10
33.418291065830012
 20
342.01662779275131
 30
0.0
 11
41.718291065830009
 21
342.01662779275131
 31
0.0
  0
LINE
  5
A0
  8
1
  6
CONTINUOUS
 62
     7
 10
33.418291065830012
 20
375.51662779275119
 30
0.0
 11
33.418291065830012
 21
351.2166277927513
 31
0.0
  0
LINE
  5
A1
  8
1
  6
CONTINUOUS
 62
     7
 10
41.718291065830009
 20
375.51662779275119
 30
0.0
 11
41.718291065830009
 21
351.2166277927513
 31
0.0
  0
LINE
  5
A2
  8
1
  6
CONTINUOUS
 62
     7
 10
41.718291065830009
 20
351.2166277927513
 30
0.0
 11
33.418291065830012
 21
351.2166277927513
 31
0.0
  0
LINE
  5
A3
  8
1
  6
CONTINUOUS
 62
     7
 10
33.418291065830012
 20
375.51662779275119
 30
0.0
 11
41.718291065830009
 21
375.51662779275119
 31
0.0
  0
LINE
  5
A4
  8
1
  6
CONTINUOUS
 62
     7
 10
15.918291065830021
 20
375.51662779275119
 30
0.0
 11
15.918291065830021
 21
351.2166277927513
 31
0.0
  0
LINE
  5
A5
  8
1
  6
CONTINUOUS
 62
     7
 10
24.21829106583003
 20
375.51662779275119
 30
0.0
 11
24.21829106583003
 21
351.2166277927513
 31
0.0
  0
LINE
  5
A6
  8
1
  6
CONTINUOUS
 62
     7
 10
24.21829106583003
 20
351.2166277927513
 30
0.0
 11
15.918291065830021
 21
351.2166277927513
 31
0.0
  0
LINE
  5
A7
  8
1
  6
CONTINUOUS
 62
     7
 10
15.918291065830021
 20
375.51662779275119
 30
0.0
 11
24.21829106583003
 21
375.51662779275119
 31
0.0
  0
LINE
  5
A8
  8
1
  6
CONTINUOUS
 62
     7
 10
15.918291065830021
 20
409.01662779275119
 30
0.0
 11
15.918291065830021
 21
384.7166277927513
 31
0.0
  0
LINE
  5
A9
  8
1
  6
CONTINUOUS
 62
     7
 10
24.21829106583003
 20
409.01662779275119
 30
0.0
 11
24.21829106583003
 21
384.7166277927513
 31
0.0
  0
LINE
  5
AA
  8
1
  6
CONTINUOUS
 62
     7
 10
24.21829106583003
 20
384.7166277927513
 30
0.0
 11
15.918291065830021
 21
384.7166277927513
 31
0.0
  0
LINE
  5
AB
  8
1
  6
CONTINUOUS
 62
     7
 10
15.918291065830021
 20
409.01662779275119
 30
0.0
 11
24.21829106583003
 21
409.01662779275119
 31
0.0
  0
LINE
  5
AC
  8
1
  6
CONTINUOUS
 62
     7
 10
33.418291065830012
 20
409.01662779275119
 30
0.0
 11
33.418291065830012
 21
384.7166277927513
 31
0.0
  0
LINE
  5
AD
  8
1
  6
CONTINUOUS
 62
     7
 10
41.718291065830009
 20
409.01662779275119
 30
0.0
 11
41.718291065830009
 21
384.7166277927513
 31
0.0
  0
LINE
  5
AE
  8
1
  6
CONTINUOUS
 62
     7
 10
41.718291065830009
 20
384.7166277927513
 30
0.0
 11
33.418291065830012
 21
384.7166277927513
 31
0.0
  0
LINE
  5
AF
  8
1
  6
CONTINUOUS
 62
     7
 10
33.418291065830012
 20
409.01662779275119
 30
0.0
 11
41.718291065830009
 21
409.01662779275119
 31
0.0
  0
LINE
  5
B0
  8
1
  6
CONTINUOUS
 62
     7
 10
33.418291065830012
 20
442.51662779275119
 30
0.0
 11
33.418291065830012
 21
418.21662779275113
 31
0.0
  0
LINE
  5
B1
  8
1
  6
CONTINUOUS
 62
     7
 10
41.718291065830009
 20
442.51662779275119
 30
0.0
 11
41.718291065830009
 21
418.21662779275113
 31
0.0
  0
LINE
  5
B2
  8
1
  6
CONTINUOUS
 62
     7
 10
41.718291065830009
 20
418.21662779275113
 30
0.0
 11
33.418291065830012
 21
418.21662779275113
 31
0.0
  0
LINE
  5
B3
  8
1
  6
CONTINUOUS
 62
     7
 10
33.418291065830012
 20
442.51662779275119
 30
0.0
 11
41.718291065830009
 21
442.51662779275119
 31
0.0
  0
LINE
  5
B4
  8
1
  6
CONTINUOUS
 62
     7
 10
15.918291065830021
 20
442.51662779275119
 30
0.0
 11
15.918291065830021
 21
418.21662779275113
 31
0.0
  0
LINE
  5
B5
  8
1
  6
CONTINUOUS
 62
     7
 10
24.21829106583003
 20
442.51662779275119
 30
0.0
 11
24.21829106583003
 21
418.21662779275113
 31
0.0
  0
LINE
  5
B6
  8
1
  6
CONTINUOUS
 62
     7
 10
24.21829106583003
 20
418.21662779275113
 30
0.0
 11
15.918291065830021
 21
418.21662779275113
 31
0.0
  0
LINE
  5
B7
  8
1
  6
CONTINUOUS
 62
     7
 10
15.918291065830021
 20
442.51662779275119
 30
0.0
 11
24.21829106583003
 21
442.51662779275119
 31
0.0
  0
LINE
  5
B8
  8
1
  6
CONTINUOUS
 62
     7
 10
141.57531469050789
 20
98.879326401397748
 30
0.0
 11
152.34639399606669
 21
112.1805016086462
 31
0.0
  0
ARC
  5
B9
  8
1
  6
CONTINUOUS
 62
     7
 10
108.82504439630409
 20
73.898644486133108
 30
0.0
 40
38.999999999999972
 50
150.0
 51
270.0
  0
ARC
  5
BA
  8
1
  6
CONTINUOUS
 62
     7
 10
108.82504439630399
 20
73.898644486133108
 30
0.0
 40
38.999999999999972
 50
68.556464243475034
 51
150.0
  0
ARC
  5
BB
  8
1
  6
CONTINUOUS
 62
     7
 10
108.82504439630409
 20
73.898644486133108
 30
0.0
 40
38.999999999999972
 50
270.0
 51
33.355123603919068
  0
ARC
  5
BC
  8
1
  6
CONTINUOUS
 62
     7
 10
124.1795780462934
 20
112.9913330146977
 30
0.0
 40
3.0000000000001541
 50
248.55646424347719
 51
320.99999999999773
  0
ARC
  5
BD
  8
1
  6
CONTINUOUS
 62
     7
 10
143.90675257487899
 20
96.991365228248398
 30
0.0
 40
3.0000000000000449
 50
141.0000000000023
 51
213.35512360391959
  0
ARC
  5
BE
  8
1
  6
CONTINUOUS
 62
     7
 10
150.01495611169591
 20
114.0684627817957
 30
0.0
 40
2.999999999999976
 50
321.00000000000119
 51
51.000000000001741
  0
LINE
  5
BF
  8
1
  6
CONTINUOUS
 62
     7
 10
137.26976234380149
 20
124.3893171950125
 30
0.0
 11
126.5110159306644
 21
111.1033718415479
 31
0.0
  0
LINE
  5
C0
  8
1
  6
CONTINUOUS
 62
     7
 10
151.9029172848453
 20
116.3999006661667
 30
0.0
 11
141.48916140132181
 21
124.832793906234
 31
0.0
  0
ARC
  5
C1
  8
1
  6
CONTINUOUS
 62
     7
 10
139.60120022817239
 20
122.5013560218632
 30
0.0
 40
2.99999999999994
 50
51.000000000000647
 51
141.0000000000006
  0
LINE
  5
C2
  8
1
  6
CONTINUOUS
 62
     7
 10
315.53549214576452
 20
285.04911463277477
 30
0.0
 11
326.30657145132318
 21
298.35028984002338
 31
0.0
  0
ARC
  5
C3
  8
1
  6
CONTINUOUS
 62
     7
 10
282.78522185156061
 20
260.0684327175104
 30
0.0
 40
38.999999999999972
 50
150.0
 51
270.00000000000011
  0
ARC
  5
C4
  8
1
  6
CONTINUOUS
 62
     7
 10
282.78522185156061
 20
260.0684327175104
 30
0.0
 40
38.999999999999972
 50
68.556464243475034
 51
150.0
  0
ARC
  5
C5
  8
1
  6
CONTINUOUS
 62
     7
 10
282.78522185156061
 20
260.0684327175104
 30
0.0
 40
38.999999999999972
 50
270.0
 51
33.355123603919068
  0
ARC
  5
C6
  8
1
  6
CONTINUOUS
 62
     7
 10
298.13975550154993
 20
299.16112124607457
 30
0.0
 40
2.9999999999999938
 50
248.5564642434756
 51
321.00000000000108
  0
ARC
  5
C7
  8
1
  6
CONTINUOUS
 62
     7
 10
317.86693003013511
 20
283.16115345962538
 30
0.0
 40
2.9999999999997109
 50
140.9999999999971
 51
213.3551236039213
  0
ARC
  5
C8
  8
1
  6
CONTINUOUS
 62
     7
 10
323.97513356695242
 20
300.23825101317283
 30
0.0
 40
2.9999999999998779
 50
320.99999999999972
 51
51.000000000003887
  0
LINE
  5
C9
  8
1
  6
CONTINUOUS
 62
     7
 10
311.22993979905789
 20
310.55910542638958
 30
0.0
 11
300.4711933859208
 21
297.27316007292512
 31
0.0
  0
LINE
  5
CA
  8
1
  6
CONTINUOUS
 62
     7
 10
325.86309474010181
 20
302.56968889754381
 30
0.0
 11
315.44933885657832
 21
311.0025821376114
 31
0.0
  0
ARC
  5
CB
  8
1
  6
CONTINUOUS
 62
     7
 10
313.56137768342882
 20
308.67114425324002
 30
0.0
 40
3.0000000000001719
 50
51.000000000003389
 51
140.99999999999491
  0
CIRCLE
  5
CC
  8
1
  6
CONTINUOUS
 62
     7
 10
249.3861018840924
 20
480.86148999919578
 30
0.0
 40
14.0
  0
CIRCLE
  5
CD
  8
1
  6
CONTINUOUS
 62
     7
 10
248.79248088385319
 20
73.87109617716483
 30
0.0
 40
27.420000000000002
  0
CIRCLE
  5
CE
  8
1
  6
CONTINUOUS
 62
     7
 10
183.6882982517389
 20
73.871096177164844
 30
0.0
 40
27.420000000000002
  0
LINE
  5
CF
  8
1
  6
CONTINUOUS
 62
     7
 10
95.520000254000095
 20
502.500000253998
 30
0.0
 11
95.520000254000095
 21
452.10000025399802
 31
0.0
  0
LINE
  5
D0
  8
1
  6
CONTINUOUS
 62
     7
 10
111.520000254
 20
452.10000025399802
 30
0.0
 11
111.520000254
 21
502.500000253998
 31
0.0
  0
LINE
  5
D1
  8
1
  6
CONTINUOUS
 62
     7
 10
109.5200002540001
 20
504.50000025399783
 30
0.0
 11
97.520000254000095
 21
504.50000025399783
 31
0.0
  0
LINE
  5
D2
  8
1
  6
CONTINUOUS
 62
     7
 10
109.5200002540001
 20
450.10000025399808
 30
0.0
 11
97.520000254000095
 21
450.10000025399808
 31
0.0
  0
LINE
  5
D3
  8
1
  6
CONTINUOUS
 62
     7
 10
97.520000254000095
 20
504.50000025399783
 30
0.0
 11
95.520000254000095
 21
502.500000253998
 31
0.0
  0
LINE
  5
D4
  8
1
  6
CONTINUOUS
 62
     7
 10
109.5200002540001
 20
504.50000025399783
 30
0.0
 11
111.520000254
 21
502.500000253998
 31
0.0
  0
LINE
  5
D5
  8
1
  6
CONTINUOUS
 62
     7
 10
111.520000254
 20
452.10000025399802
 30
0.0
 11
109.5200002540001
 21
450.10000025399808
 31
0.0
  0
LINE
  5
D6
  8
1
  6
CONTINUOUS
 62
     7
 10
95.520000254000095
 20
452.10000025399802
 30
0.0
 11
97.520000254000095
 21
450.10000025399808
 31
0.0
  0
ARC
  5
D7
  8
1
  6
CONTINUOUS
 62
     7
 10
225.8204275349367
 20
118.3391465143757
 30
0.0
 40
2.9999999999997908
 50
218.9999999999973
 51
309.00000000000398
  0
ARC
  5
D8
  8
1
  6
CONTINUOUS
 62
     7
 10
236.23418341845971
 20
126.7720397544431
 30
0.0
 40
3.0000000000000382
 50
308.99999999999892
 51
39.000000000004739
  0
ARC
  5
D9
  8
1
  6
CONTINUOUS
 62
     7
 10
236.24332980746291
 20
207.14068325378651
 30
0.0
 40
3.0000000000000049
 50
320.999999999995
 51
51.000000000001329
  0
ARC
  5
DA
  8
1
  6
CONTINUOUS
 62
     7
 10
225.82957392393979
 20
215.57357649385361
 30
0.0
 40
3.000000000000024
 50
51.000000000001357
 51
140.99999999999949
  0
ARC
  5
DB
  8
1
  6
CONTINUOUS
 62
     7
 10
323.97889660491472
 20
207.14119880666979
 30
0.0
 40
3.000000000000111
 50
320.9999999999967
 51
50.999999999999261
  0
ARC
  5
DC
  8
1
  6
CONTINUOUS
 62
     7
 10
313.56514072139169
 20
215.57409204673709
 30
0.0
 40
2.9999999999999472
 50
51.000000000000483
 51
141.00000000000071
  0
ARC
  5
DD
  8
1
  6
CONTINUOUS
 62
     7
 10
317.87069306809832
 20
190.0641012531251
 30
0.0
 40
3.000000000000119
 50
140.9999999999967
 51
213.35512360391769
  0
ARC
  5
DE
  8
1
  6
CONTINUOUS
 62
     7
 10
298.14351853951439
 20
206.06406903957361
 30
0.0
 40
3.000000000000048
 50
248.5564642434729
 51
320.9999999999979
  0
ARC
  5
DF
  8
1
  6
CONTINUOUS
 62
     7
 10
210.38318577677089
 20
127.86845809188419
 30
0.0
 40
3.000000000000123
 50
39.000000000000931
 51
111.40724229765399
  0
ARC
  5
E0
  8
1
  6
CONTINUOUS
 62
     7
 10
230.12048714683749
 20
143.85592027058121
 30
0.0
 40
3.000000000000016
 50
146.60857246364239
 51
219.00000000000449
  0
ARC
  5
E1
  8
1
  6
CONTINUOUS
 62
     7
 10
230.1351262706462
 20
190.06358570024179
 30
0.0
 40
2.9999999999998819
 50
140.99999999999301
 51
213.3551236039207
  0
ARC
  5
E2
  8
1
  6
CONTINUOUS
 62
     7
 10
210.40795174206249
 20
206.06355348669041
 30
0.0
 40
3.0000000000001359
 50
248.5564642434733
 51
320.9999999999967
  0
ARC
  5
E3
  8
1
  6
CONTINUOUS
 62
     7
 10
282.78898488952331
 20
166.97138051101001
 30
0.0
 40
38.999999999999972
 50
270.00000000000011
 51
33.355123603918912
  0
ARC
  5
E4
  8
1
  6
CONTINUOUS
 62
     7
 10
282.78898488952331
 20
166.97138051101021
 30
0.0
 40
38.999999999999837
 50
68.556464243472249
 51
150.0000000000002
  0
ARC
  5
E5
  8
1
  6
CONTINUOUS
 62
     7
 10
282.78898488952331
 20
166.97138051101001
 30
0.0
 40
38.999999999999972
 50
150.0
 51
270.00000000000011
  0
ARC
  5
E6
  8
1
  6
CONTINUOUS
 62
     7
 10
195.05341809207141
 20
166.97086495812661
 30
0.0
 40
39.000000000000078
 50
326.60857246364219
 51
33.355123603919068
  0
ARC
  5
E7
  8
1
  6
CONTINUOUS
 62
     7
 10
195.05341809207161
 20
166.9708649581265
 30
0.0
 40
39.000000000000099
 50
68.55646424347276
 51
149.99999999999989
  0
ARC
  5
E8
  8
1
  6
CONTINUOUS
 62
     7
 10
195.0534180920715
 20
166.97086495812661
 30
0.0
 40
39.0
 50
150.0
 51
291.40724229765613
  0
LINE
  5
E9
  8
1
  6
CONTINUOUS
 62
     7
 10
223.4889896505658
 20
116.45118534122641
 30
0.0
 11
212.7146236611419
 21
129.75641926503391
 31
0.0
  0
LINE
  5
EA
  8
1
  6
CONTINUOUS
 62
     7
 10
238.1221445916093
 20
124.4406018700722
 30
0.0
 11
227.7083887080862
 21
116.007708630005
 31
0.0
  0
LINE
  5
EB
  8
1
  6
CONTINUOUS
 62
     7
 10
227.78904926246659
 20
141.9679590974315
 30
0.0
 11
238.56562130283061
 21
128.6600009275929
 31
0.0
  0
LINE
  5
EC
  8
1
  6
CONTINUOUS
 62
     7
 10
227.80368838627561
 20
191.95154687339141
 30
0.0
 11
238.5747676918337
 21
205.2527220806368
 31
0.0
  0
LINE
  5
ED
  8
1
  6
CONTINUOUS
 62
     7
 10
238.13129098061231
 20
209.47212113815741
 30
0.0
 11
227.7175350970893
 21
217.90501437822459
 31
0.0
  0
LINE
  5
EE
  8
1
  6
CONTINUOUS
 62
     7
 10
223.498136039569
 20
217.46153766700311
 30
0.0
 11
212.73938962643339
 21
204.1755923135407
 31
0.0
  0
LINE
  5
EF
  8
1
  6
CONTINUOUS
 62
     7
 10
315.53925518372739
 20
191.95206242627469
 30
0.0
 11
326.31033448928559
 21
205.2532376335202
 31
0.0
  0
LINE
  5
F0
  8
1
  6
CONTINUOUS
 62
     7
 10
325.86685777806429
 20
209.4726366910408
 30
0.0
 11
315.45310189454119
 21
217.90552993110799
 31
0.0
  0
LINE
  5
F1
  8
1
  6
CONTINUOUS
 62
     7
 10
311.23370283702093
 20
217.46205321988651
 30
0.0
 11
300.47495642388532
 21
204.17610786642399
 31
0.0
  0
CIRCLE
  5
F2
  8
1
  6
CONTINUOUS
 62
     7
 10
108.7679007443258
 20
166.97109617716649
 30
0.0
 40
39.0
  0
CIRCLE
  5
F3
  8
1
  6
CONTINUOUS
 62
     7
 10
108.7679007443257
 20
260.07109617716299
 30
0.0
 40
39.0
  0
CIRCLE
  5
F4
  8
1
  6
CONTINUOUS
 62
     7
 10
301.12564102063033
 20
409.42500025399818
 30
0.0
 40
27.420000000000002
  0
CIRCLE
  5
F5
  8
1
  6
CONTINUOUS
 62
     7
 10
301.12564102063033
 20
344.9250002539959
 30
0.0
 40
27.420000000000002
  0
CIRCLE
  5
F6
  8
1
  6
CONTINUOUS
 62
     7
 10
233.45899343583309
 20
409.42500025399818
 30
0.0
 40
27.420000000000002
  0
CIRCLE
  5
F7
  8
1
  6
CONTINUOUS
 62
     7
 10
233.45899343583301
 20
344.9250002539959
 30
0.0
 40
27.420000000000002
  0
CIRCLE
  5
F8
  8
1
  6
CONTINUOUS
 62
     7
 10
165.79234585103569
 20
344.9250002539959
 30
0.0
 40
27.420000000000002
  0
CIRCLE
  5
F9
  8
1
  6
CONTINUOUS
 62
     7
 10
165.79234585103569
 20
409.42500025399829
 30
0.0
 40
27.420000000000002
  0
CIRCLE
  5
FA
  8
1
  6
CONTINUOUS
 62
     7
 10
98.12569826623853
 20
344.9250002539959
 30
0.0
 40
27.420000000000002
  0
CIRCLE
  5
FB
  8
1
  6
CONTINUOUS
 62
     7
 10
98.12569826623853
 20
409.42500025399829
 30
0.0
 40
27.420000000000002
  0
ARC
  5
FC
  8
1
  6
CONTINUOUS
 62
     7
 10
339.7072098735805
 20
50.000000254
 30
0.0
 40
50.0
 50
270.0
 51
0.0
  0
ARC
  5
FD
  8
1
  6
CONTINUOUS
 62
     7
 10
339.70720987358061
 20
488.20000025399781
 30
0.0
 40
50.000000000000043
 50
0.0
 51
89.999999999999744
  0
LINE
  5
FE
  8
1
  6
CONTINUOUS
 62
     7
 10
389.70720987358072
 20
488.20000025399798
 30
0.0
 11
389.7072098735805
 21
50.000000253999978
 31
0.0
  0
ARC
  5
FF
  8
1
 62
     7
 10
50.00000025400022
 20
488.20000025399781
 30
0.0
 40
50.000000000000171
 50
90.000000000000171
 51
179.9999999999998
  0
ARC
  5
100
  8
1
 62
     7
 10
50.000000254
 20
50.000000254000049
 30
0.0
 40
50.0
 50
180.0
 51
270.0
  0
LINE
  5
101
  8
1
  6
CONTINUOUS
 62
     7
 10
50.000000254
 20
0.0000002540000661
 30
0.0
 11
339.7072098735805
 21
0.0000002539999985
 31
0.0
  0
LINE
  5
102
  8
1
  6
CONTINUOUS
 62
     7
 10
50.000000254000128
 20
538.20000025399804
 30
0.0
 11
339.70720987358061
 21
538.20000025399804
 31
0.0
  0
LINE
  5
103
  8
1
 62
     7
 10
0.0000002539999985
 20
50.000000254000071
 30
0.0
 11
0.0000002540000887
 21
488.20000025399798
 31
0.0
  0
CIRCLE
  5
104
  8
1
  6
CONTINUOUS
 62
     7
 10
195.05344281741461
 20
260.07109617716299
 30
0.0
 40
39.0
  0
CIRCLE
  5
105
  8
1
  6
CONTINUOUS
 62
     7
 10
143.82000025400009
 20
453.80000025399812
 30
0.0
 40
1.5
  0
ENDSEC
  0
EOF
