G04 #@! TF.GenerationSoftware,KiCad,Pcbnew,(5.1.5-0-10_14)*
G04 #@! TF.CreationDate,2021-03-15T06:00:47+10:00*
G04 #@! TF.ProjectId,OH - Left Console - 18 - Left Essential Circuit Breakers,4f48202d-204c-4656-9674-20436f6e736f,rev?*
G04 #@! TF.SameCoordinates,Original*
G04 #@! TF.FileFunction,Legend,Top*
G04 #@! TF.FilePolarity,Positive*
%FSLAX46Y46*%
G04 Gerber Fmt 4.6, Leading zero omitted, Abs format (unit mm)*
G04 Created by KiCad (PCBNEW (5.1.5-0-10_14)) date 2021-03-15 06:00:47*
%MOMM*%
%LPD*%
G04 APERTURE LIST*
%ADD10C,0.150000*%
%ADD11C,0.120000*%
G04 APERTURE END LIST*
D10*
X132151380Y-91820809D02*
X131675190Y-92154142D01*
X132151380Y-92392238D02*
X131151380Y-92392238D01*
X131151380Y-92011285D01*
X131199000Y-91916047D01*
X131246619Y-91868428D01*
X131341857Y-91820809D01*
X131484714Y-91820809D01*
X131579952Y-91868428D01*
X131627571Y-91916047D01*
X131675190Y-92011285D01*
X131675190Y-92392238D01*
X132151380Y-91249380D02*
X132103761Y-91344619D01*
X132056142Y-91392238D01*
X131960904Y-91439857D01*
X131675190Y-91439857D01*
X131579952Y-91392238D01*
X131532333Y-91344619D01*
X131484714Y-91249380D01*
X131484714Y-91106523D01*
X131532333Y-91011285D01*
X131579952Y-90963666D01*
X131675190Y-90916047D01*
X131960904Y-90916047D01*
X132056142Y-90963666D01*
X132103761Y-91011285D01*
X132151380Y-91106523D01*
X132151380Y-91249380D01*
X131484714Y-90582714D02*
X132151380Y-90392238D01*
X131675190Y-90201761D01*
X132151380Y-90011285D01*
X131484714Y-89820809D01*
X131246619Y-88725571D02*
X131199000Y-88677952D01*
X131151380Y-88582714D01*
X131151380Y-88344619D01*
X131199000Y-88249380D01*
X131246619Y-88201761D01*
X131341857Y-88154142D01*
X131437095Y-88154142D01*
X131579952Y-88201761D01*
X132151380Y-88773190D01*
X132151380Y-88154142D01*
X129611380Y-91820809D02*
X129135190Y-92154142D01*
X129611380Y-92392238D02*
X128611380Y-92392238D01*
X128611380Y-92011285D01*
X128659000Y-91916047D01*
X128706619Y-91868428D01*
X128801857Y-91820809D01*
X128944714Y-91820809D01*
X129039952Y-91868428D01*
X129087571Y-91916047D01*
X129135190Y-92011285D01*
X129135190Y-92392238D01*
X129611380Y-91249380D02*
X129563761Y-91344619D01*
X129516142Y-91392238D01*
X129420904Y-91439857D01*
X129135190Y-91439857D01*
X129039952Y-91392238D01*
X128992333Y-91344619D01*
X128944714Y-91249380D01*
X128944714Y-91106523D01*
X128992333Y-91011285D01*
X129039952Y-90963666D01*
X129135190Y-90916047D01*
X129420904Y-90916047D01*
X129516142Y-90963666D01*
X129563761Y-91011285D01*
X129611380Y-91106523D01*
X129611380Y-91249380D01*
X128944714Y-90582714D02*
X129611380Y-90392238D01*
X129135190Y-90201761D01*
X129611380Y-90011285D01*
X128944714Y-89820809D01*
X129611380Y-88154142D02*
X129611380Y-88725571D01*
X129611380Y-88439857D02*
X128611380Y-88439857D01*
X128754238Y-88535095D01*
X128849476Y-88630333D01*
X128897095Y-88725571D01*
X126976142Y-91820809D02*
X127023761Y-91868428D01*
X127071380Y-92011285D01*
X127071380Y-92106524D01*
X127023761Y-92249381D01*
X126928523Y-92344619D01*
X126833285Y-92392238D01*
X126642809Y-92439857D01*
X126499952Y-92439857D01*
X126309476Y-92392238D01*
X126214238Y-92344619D01*
X126119000Y-92249381D01*
X126071380Y-92106524D01*
X126071380Y-92011285D01*
X126119000Y-91868428D01*
X126166619Y-91820809D01*
X127071380Y-91249381D02*
X127023761Y-91344619D01*
X126976142Y-91392238D01*
X126880904Y-91439857D01*
X126595190Y-91439857D01*
X126499952Y-91392238D01*
X126452333Y-91344619D01*
X126404714Y-91249381D01*
X126404714Y-91106524D01*
X126452333Y-91011285D01*
X126499952Y-90963666D01*
X126595190Y-90916047D01*
X126880904Y-90916047D01*
X126976142Y-90963666D01*
X127023761Y-91011285D01*
X127071380Y-91106524D01*
X127071380Y-91249381D01*
X127071380Y-90344619D02*
X127023761Y-90439857D01*
X126928523Y-90487476D01*
X126071380Y-90487476D01*
X126071380Y-89297000D02*
X126071380Y-88677952D01*
X126452333Y-89011285D01*
X126452333Y-88868428D01*
X126499952Y-88773190D01*
X126547571Y-88725571D01*
X126642809Y-88677952D01*
X126880904Y-88677952D01*
X126976142Y-88725571D01*
X127023761Y-88773190D01*
X127071380Y-88868428D01*
X127071380Y-89154143D01*
X127023761Y-89249381D01*
X126976142Y-89297000D01*
X124563142Y-91820809D02*
X124610761Y-91868428D01*
X124658380Y-92011285D01*
X124658380Y-92106524D01*
X124610761Y-92249381D01*
X124515523Y-92344619D01*
X124420285Y-92392238D01*
X124229809Y-92439857D01*
X124086952Y-92439857D01*
X123896476Y-92392238D01*
X123801238Y-92344619D01*
X123706000Y-92249381D01*
X123658380Y-92106524D01*
X123658380Y-92011285D01*
X123706000Y-91868428D01*
X123753619Y-91820809D01*
X124658380Y-91249381D02*
X124610761Y-91344619D01*
X124563142Y-91392238D01*
X124467904Y-91439857D01*
X124182190Y-91439857D01*
X124086952Y-91392238D01*
X124039333Y-91344619D01*
X123991714Y-91249381D01*
X123991714Y-91106524D01*
X124039333Y-91011285D01*
X124086952Y-90963666D01*
X124182190Y-90916047D01*
X124467904Y-90916047D01*
X124563142Y-90963666D01*
X124610761Y-91011285D01*
X124658380Y-91106524D01*
X124658380Y-91249381D01*
X124658380Y-90344619D02*
X124610761Y-90439857D01*
X124515523Y-90487476D01*
X123658380Y-90487476D01*
X123753619Y-89249381D02*
X123706000Y-89201762D01*
X123658380Y-89106524D01*
X123658380Y-88868428D01*
X123706000Y-88773190D01*
X123753619Y-88725571D01*
X123848857Y-88677952D01*
X123944095Y-88677952D01*
X124086952Y-88725571D01*
X124658380Y-89297000D01*
X124658380Y-88677952D01*
X122150142Y-91820809D02*
X122197761Y-91868428D01*
X122245380Y-92011285D01*
X122245380Y-92106524D01*
X122197761Y-92249381D01*
X122102523Y-92344619D01*
X122007285Y-92392238D01*
X121816809Y-92439857D01*
X121673952Y-92439857D01*
X121483476Y-92392238D01*
X121388238Y-92344619D01*
X121293000Y-92249381D01*
X121245380Y-92106524D01*
X121245380Y-92011285D01*
X121293000Y-91868428D01*
X121340619Y-91820809D01*
X122245380Y-91249381D02*
X122197761Y-91344619D01*
X122150142Y-91392238D01*
X122054904Y-91439857D01*
X121769190Y-91439857D01*
X121673952Y-91392238D01*
X121626333Y-91344619D01*
X121578714Y-91249381D01*
X121578714Y-91106524D01*
X121626333Y-91011285D01*
X121673952Y-90963666D01*
X121769190Y-90916047D01*
X122054904Y-90916047D01*
X122150142Y-90963666D01*
X122197761Y-91011285D01*
X122245380Y-91106524D01*
X122245380Y-91249381D01*
X122245380Y-90344619D02*
X122197761Y-90439857D01*
X122102523Y-90487476D01*
X121245380Y-90487476D01*
X122245380Y-88677952D02*
X122245380Y-89249381D01*
X122245380Y-88963666D02*
X121245380Y-88963666D01*
X121388238Y-89058905D01*
X121483476Y-89154143D01*
X121531095Y-89249381D01*
D11*
X161836000Y-107425000D02*
X161836000Y-106825000D01*
X160236000Y-107425000D02*
X161836000Y-107425000D01*
X160236000Y-106825000D02*
X160236000Y-107425000D01*
X159296000Y-107425000D02*
X159296000Y-106825000D01*
X157696000Y-107425000D02*
X159296000Y-107425000D01*
X157696000Y-106825000D02*
X157696000Y-107425000D01*
X160786000Y-112845000D02*
X160786000Y-111845000D01*
X158746000Y-112845000D02*
X158746000Y-111845000D01*
X160786000Y-111315000D02*
X161036000Y-111845000D01*
X158746000Y-111315000D02*
X160786000Y-111315000D01*
X158496000Y-111845000D02*
X158746000Y-111315000D01*
X161036000Y-111845000D02*
X161036000Y-112845000D01*
X158496000Y-111845000D02*
X161036000Y-111845000D01*
X158496000Y-112845000D02*
X158496000Y-111845000D01*
X156826000Y-107855000D02*
X156826000Y-111855000D01*
X162416000Y-106825000D02*
X157116000Y-106825000D01*
X162416000Y-112845000D02*
X162416000Y-106825000D01*
X157116000Y-112845000D02*
X162416000Y-112845000D01*
X157116000Y-106825000D02*
X157116000Y-112845000D01*
X148247000Y-107425000D02*
X148247000Y-106825000D01*
X146647000Y-107425000D02*
X148247000Y-107425000D01*
X146647000Y-106825000D02*
X146647000Y-107425000D01*
X145707000Y-107425000D02*
X145707000Y-106825000D01*
X144107000Y-107425000D02*
X145707000Y-107425000D01*
X144107000Y-106825000D02*
X144107000Y-107425000D01*
X147197000Y-112845000D02*
X147197000Y-111845000D01*
X145157000Y-112845000D02*
X145157000Y-111845000D01*
X147197000Y-111315000D02*
X147447000Y-111845000D01*
X145157000Y-111315000D02*
X147197000Y-111315000D01*
X144907000Y-111845000D02*
X145157000Y-111315000D01*
X147447000Y-111845000D02*
X147447000Y-112845000D01*
X144907000Y-111845000D02*
X147447000Y-111845000D01*
X144907000Y-112845000D02*
X144907000Y-111845000D01*
X143237000Y-107855000D02*
X143237000Y-111855000D01*
X148827000Y-106825000D02*
X143527000Y-106825000D01*
X148827000Y-112845000D02*
X148827000Y-106825000D01*
X143527000Y-112845000D02*
X148827000Y-112845000D01*
X143527000Y-106825000D02*
X143527000Y-112845000D01*
X134658000Y-107425000D02*
X134658000Y-106825000D01*
X133058000Y-107425000D02*
X134658000Y-107425000D01*
X133058000Y-106825000D02*
X133058000Y-107425000D01*
X132118000Y-107425000D02*
X132118000Y-106825000D01*
X130518000Y-107425000D02*
X132118000Y-107425000D01*
X130518000Y-106825000D02*
X130518000Y-107425000D01*
X133608000Y-112845000D02*
X133608000Y-111845000D01*
X131568000Y-112845000D02*
X131568000Y-111845000D01*
X133608000Y-111315000D02*
X133858000Y-111845000D01*
X131568000Y-111315000D02*
X133608000Y-111315000D01*
X131318000Y-111845000D02*
X131568000Y-111315000D01*
X133858000Y-111845000D02*
X133858000Y-112845000D01*
X131318000Y-111845000D02*
X133858000Y-111845000D01*
X131318000Y-112845000D02*
X131318000Y-111845000D01*
X129648000Y-107855000D02*
X129648000Y-111855000D01*
X135238000Y-106825000D02*
X129938000Y-106825000D01*
X135238000Y-112845000D02*
X135238000Y-106825000D01*
X129938000Y-112845000D02*
X135238000Y-112845000D01*
X129938000Y-106825000D02*
X129938000Y-112845000D01*
X121069000Y-107425000D02*
X121069000Y-106825000D01*
X119469000Y-107425000D02*
X121069000Y-107425000D01*
X119469000Y-106825000D02*
X119469000Y-107425000D01*
X118529000Y-107425000D02*
X118529000Y-106825000D01*
X116929000Y-107425000D02*
X118529000Y-107425000D01*
X116929000Y-106825000D02*
X116929000Y-107425000D01*
X120019000Y-112845000D02*
X120019000Y-111845000D01*
X117979000Y-112845000D02*
X117979000Y-111845000D01*
X120019000Y-111315000D02*
X120269000Y-111845000D01*
X117979000Y-111315000D02*
X120019000Y-111315000D01*
X117729000Y-111845000D02*
X117979000Y-111315000D01*
X120269000Y-111845000D02*
X120269000Y-112845000D01*
X117729000Y-111845000D02*
X120269000Y-111845000D01*
X117729000Y-112845000D02*
X117729000Y-111845000D01*
X116059000Y-107855000D02*
X116059000Y-111855000D01*
X121649000Y-106825000D02*
X116349000Y-106825000D01*
X121649000Y-112845000D02*
X121649000Y-106825000D01*
X116349000Y-112845000D02*
X121649000Y-112845000D01*
X116349000Y-106825000D02*
X116349000Y-112845000D01*
X158534000Y-90407000D02*
X158534000Y-89807000D01*
X156934000Y-90407000D02*
X158534000Y-90407000D01*
X156934000Y-89807000D02*
X156934000Y-90407000D01*
X155994000Y-90407000D02*
X155994000Y-89807000D01*
X154394000Y-90407000D02*
X155994000Y-90407000D01*
X154394000Y-89807000D02*
X154394000Y-90407000D01*
X157484000Y-95827000D02*
X157484000Y-94827000D01*
X155444000Y-95827000D02*
X155444000Y-94827000D01*
X157484000Y-94297000D02*
X157734000Y-94827000D01*
X155444000Y-94297000D02*
X157484000Y-94297000D01*
X155194000Y-94827000D02*
X155444000Y-94297000D01*
X157734000Y-94827000D02*
X157734000Y-95827000D01*
X155194000Y-94827000D02*
X157734000Y-94827000D01*
X155194000Y-95827000D02*
X155194000Y-94827000D01*
X153524000Y-90837000D02*
X153524000Y-94837000D01*
X159114000Y-89807000D02*
X153814000Y-89807000D01*
X159114000Y-95827000D02*
X159114000Y-89807000D01*
X153814000Y-95827000D02*
X159114000Y-95827000D01*
X153814000Y-89807000D02*
X153814000Y-95827000D01*
X135039000Y-93963000D02*
X135039000Y-93363000D01*
X133439000Y-93963000D02*
X135039000Y-93963000D01*
X133439000Y-93363000D02*
X133439000Y-93963000D01*
X132499000Y-93963000D02*
X132499000Y-93363000D01*
X130899000Y-93963000D02*
X132499000Y-93963000D01*
X130899000Y-93363000D02*
X130899000Y-93963000D01*
X129959000Y-93963000D02*
X129959000Y-93363000D01*
X128359000Y-93963000D02*
X129959000Y-93963000D01*
X128359000Y-93363000D02*
X128359000Y-93963000D01*
X127419000Y-93963000D02*
X127419000Y-93363000D01*
X125819000Y-93963000D02*
X127419000Y-93963000D01*
X125819000Y-93363000D02*
X125819000Y-93963000D01*
X124879000Y-93963000D02*
X124879000Y-93363000D01*
X123279000Y-93963000D02*
X124879000Y-93963000D01*
X123279000Y-93363000D02*
X123279000Y-93963000D01*
X122339000Y-93963000D02*
X122339000Y-93363000D01*
X120739000Y-93963000D02*
X122339000Y-93963000D01*
X120739000Y-93363000D02*
X120739000Y-93963000D01*
X133989000Y-99383000D02*
X133989000Y-98383000D01*
X121789000Y-99383000D02*
X121789000Y-98383000D01*
X133989000Y-97853000D02*
X134239000Y-98383000D01*
X121789000Y-97853000D02*
X133989000Y-97853000D01*
X121539000Y-98383000D02*
X121789000Y-97853000D01*
X134239000Y-98383000D02*
X134239000Y-99383000D01*
X121539000Y-98383000D02*
X134239000Y-98383000D01*
X121539000Y-99383000D02*
X121539000Y-98383000D01*
X119869000Y-94393000D02*
X119869000Y-98393000D01*
X135619000Y-93363000D02*
X120159000Y-93363000D01*
X135619000Y-99383000D02*
X135619000Y-93363000D01*
X120159000Y-99383000D02*
X135619000Y-99383000D01*
X120159000Y-93363000D02*
X120159000Y-99383000D01*
X149420000Y-101750000D02*
X149420000Y-103990000D01*
X149660000Y-101750000D02*
X149660000Y-103990000D01*
X149540000Y-101750000D02*
X149540000Y-103990000D01*
X153710000Y-102870000D02*
X153060000Y-102870000D01*
X148170000Y-102870000D02*
X148820000Y-102870000D01*
X153060000Y-101750000D02*
X148820000Y-101750000D01*
X153060000Y-103990000D02*
X153060000Y-101750000D01*
X148820000Y-103990000D02*
X153060000Y-103990000D01*
X148820000Y-101750000D02*
X148820000Y-103990000D01*
X138307000Y-101750000D02*
X138307000Y-103990000D01*
X138547000Y-101750000D02*
X138547000Y-103990000D01*
X138427000Y-101750000D02*
X138427000Y-103990000D01*
X142597000Y-102870000D02*
X141947000Y-102870000D01*
X137057000Y-102870000D02*
X137707000Y-102870000D01*
X141947000Y-101750000D02*
X137707000Y-101750000D01*
X141947000Y-103990000D02*
X141947000Y-101750000D01*
X137707000Y-103990000D02*
X141947000Y-103990000D01*
X137707000Y-101750000D02*
X137707000Y-103990000D01*
X127194000Y-101750000D02*
X127194000Y-103990000D01*
X127434000Y-101750000D02*
X127434000Y-103990000D01*
X127314000Y-101750000D02*
X127314000Y-103990000D01*
X131484000Y-102870000D02*
X130834000Y-102870000D01*
X125944000Y-102870000D02*
X126594000Y-102870000D01*
X130834000Y-101750000D02*
X126594000Y-101750000D01*
X130834000Y-103990000D02*
X130834000Y-101750000D01*
X126594000Y-103990000D02*
X130834000Y-103990000D01*
X126594000Y-101750000D02*
X126594000Y-103990000D01*
X116082000Y-101750000D02*
X116082000Y-103990000D01*
X116322000Y-101750000D02*
X116322000Y-103990000D01*
X116202000Y-101750000D02*
X116202000Y-103990000D01*
X120372000Y-102870000D02*
X119722000Y-102870000D01*
X114832000Y-102870000D02*
X115482000Y-102870000D01*
X119722000Y-101750000D02*
X115482000Y-101750000D01*
X119722000Y-103990000D02*
X119722000Y-101750000D01*
X115482000Y-103990000D02*
X119722000Y-103990000D01*
X115482000Y-101750000D02*
X115482000Y-103990000D01*
X160532000Y-101750000D02*
X160532000Y-103990000D01*
X160772000Y-101750000D02*
X160772000Y-103990000D01*
X160652000Y-101750000D02*
X160652000Y-103990000D01*
X164822000Y-102870000D02*
X164172000Y-102870000D01*
X159282000Y-102870000D02*
X159932000Y-102870000D01*
X164172000Y-101750000D02*
X159932000Y-101750000D01*
X164172000Y-103990000D02*
X164172000Y-101750000D01*
X159932000Y-103990000D02*
X164172000Y-103990000D01*
X159932000Y-101750000D02*
X159932000Y-103990000D01*
D10*
X158432666Y-106139761D02*
X158575523Y-106187380D01*
X158813619Y-106187380D01*
X158908857Y-106139761D01*
X158956476Y-106092142D01*
X159004095Y-105996904D01*
X159004095Y-105901666D01*
X158956476Y-105806428D01*
X158908857Y-105758809D01*
X158813619Y-105711190D01*
X158623142Y-105663571D01*
X158527904Y-105615952D01*
X158480285Y-105568333D01*
X158432666Y-105473095D01*
X158432666Y-105377857D01*
X158480285Y-105282619D01*
X158527904Y-105235000D01*
X158623142Y-105187380D01*
X158861238Y-105187380D01*
X159004095Y-105235000D01*
X159337428Y-105187380D02*
X159575523Y-106187380D01*
X159766000Y-105473095D01*
X159956476Y-106187380D01*
X160194571Y-105187380D01*
X161051714Y-105187380D02*
X160575523Y-105187380D01*
X160527904Y-105663571D01*
X160575523Y-105615952D01*
X160670761Y-105568333D01*
X160908857Y-105568333D01*
X161004095Y-105615952D01*
X161051714Y-105663571D01*
X161099333Y-105758809D01*
X161099333Y-105996904D01*
X161051714Y-106092142D01*
X161004095Y-106139761D01*
X160908857Y-106187380D01*
X160670761Y-106187380D01*
X160575523Y-106139761D01*
X160527904Y-106092142D01*
X154480285Y-114292142D02*
X154432666Y-114339761D01*
X154289809Y-114387380D01*
X154194571Y-114387380D01*
X154051714Y-114339761D01*
X153956476Y-114244523D01*
X153908857Y-114149285D01*
X153861238Y-113958809D01*
X153861238Y-113815952D01*
X153908857Y-113625476D01*
X153956476Y-113530238D01*
X154051714Y-113435000D01*
X154194571Y-113387380D01*
X154289809Y-113387380D01*
X154432666Y-113435000D01*
X154480285Y-113482619D01*
X155242190Y-113863571D02*
X155385047Y-113911190D01*
X155432666Y-113958809D01*
X155480285Y-114054047D01*
X155480285Y-114196904D01*
X155432666Y-114292142D01*
X155385047Y-114339761D01*
X155289809Y-114387380D01*
X154908857Y-114387380D01*
X154908857Y-113387380D01*
X155242190Y-113387380D01*
X155337428Y-113435000D01*
X155385047Y-113482619D01*
X155432666Y-113577857D01*
X155432666Y-113673095D01*
X155385047Y-113768333D01*
X155337428Y-113815952D01*
X155242190Y-113863571D01*
X154908857Y-113863571D01*
X155670761Y-114482619D02*
X156432666Y-114482619D01*
X157146952Y-114387380D02*
X156670761Y-114387380D01*
X156670761Y-113387380D01*
X157432666Y-114101666D02*
X157908857Y-114101666D01*
X157337428Y-114387380D02*
X157670761Y-113387380D01*
X158004095Y-114387380D01*
X158337428Y-113387380D02*
X158337428Y-114196904D01*
X158385047Y-114292142D01*
X158432666Y-114339761D01*
X158527904Y-114387380D01*
X158718380Y-114387380D01*
X158813619Y-114339761D01*
X158861238Y-114292142D01*
X158908857Y-114196904D01*
X158908857Y-113387380D01*
X159385047Y-114387380D02*
X159385047Y-113387380D01*
X159956476Y-114387380D01*
X159956476Y-113387380D01*
X161004095Y-114292142D02*
X160956476Y-114339761D01*
X160813619Y-114387380D01*
X160718380Y-114387380D01*
X160575523Y-114339761D01*
X160480285Y-114244523D01*
X160432666Y-114149285D01*
X160385047Y-113958809D01*
X160385047Y-113815952D01*
X160432666Y-113625476D01*
X160480285Y-113530238D01*
X160575523Y-113435000D01*
X160718380Y-113387380D01*
X160813619Y-113387380D01*
X160956476Y-113435000D01*
X161004095Y-113482619D01*
X161432666Y-114387380D02*
X161432666Y-113387380D01*
X161432666Y-113863571D02*
X162004095Y-113863571D01*
X162004095Y-114387380D02*
X162004095Y-113387380D01*
X162242190Y-114482619D02*
X163004095Y-114482619D01*
X163575523Y-113863571D02*
X163718380Y-113911190D01*
X163766000Y-113958809D01*
X163813619Y-114054047D01*
X163813619Y-114196904D01*
X163766000Y-114292142D01*
X163718380Y-114339761D01*
X163623142Y-114387380D01*
X163242190Y-114387380D01*
X163242190Y-113387380D01*
X163575523Y-113387380D01*
X163670761Y-113435000D01*
X163718380Y-113482619D01*
X163766000Y-113577857D01*
X163766000Y-113673095D01*
X163718380Y-113768333D01*
X163670761Y-113815952D01*
X163575523Y-113863571D01*
X163242190Y-113863571D01*
X164194571Y-114101666D02*
X164670761Y-114101666D01*
X164099333Y-114387380D02*
X164432666Y-113387380D01*
X164766000Y-114387380D01*
X165670761Y-114387380D02*
X165337428Y-113911190D01*
X165099333Y-114387380D02*
X165099333Y-113387380D01*
X165480285Y-113387380D01*
X165575523Y-113435000D01*
X165623142Y-113482619D01*
X165670761Y-113577857D01*
X165670761Y-113720714D01*
X165623142Y-113815952D01*
X165575523Y-113863571D01*
X165480285Y-113911190D01*
X165099333Y-113911190D01*
X144843666Y-106139761D02*
X144986523Y-106187380D01*
X145224619Y-106187380D01*
X145319857Y-106139761D01*
X145367476Y-106092142D01*
X145415095Y-105996904D01*
X145415095Y-105901666D01*
X145367476Y-105806428D01*
X145319857Y-105758809D01*
X145224619Y-105711190D01*
X145034142Y-105663571D01*
X144938904Y-105615952D01*
X144891285Y-105568333D01*
X144843666Y-105473095D01*
X144843666Y-105377857D01*
X144891285Y-105282619D01*
X144938904Y-105235000D01*
X145034142Y-105187380D01*
X145272238Y-105187380D01*
X145415095Y-105235000D01*
X145748428Y-105187380D02*
X145986523Y-106187380D01*
X146177000Y-105473095D01*
X146367476Y-106187380D01*
X146605571Y-105187380D01*
X147415095Y-105520714D02*
X147415095Y-106187380D01*
X147177000Y-105139761D02*
X146938904Y-105854047D01*
X147557952Y-105854047D01*
X142248428Y-114292142D02*
X142200809Y-114339761D01*
X142057952Y-114387380D01*
X141962714Y-114387380D01*
X141819857Y-114339761D01*
X141724619Y-114244523D01*
X141677000Y-114149285D01*
X141629380Y-113958809D01*
X141629380Y-113815952D01*
X141677000Y-113625476D01*
X141724619Y-113530238D01*
X141819857Y-113435000D01*
X141962714Y-113387380D01*
X142057952Y-113387380D01*
X142200809Y-113435000D01*
X142248428Y-113482619D01*
X143010333Y-113863571D02*
X143153190Y-113911190D01*
X143200809Y-113958809D01*
X143248428Y-114054047D01*
X143248428Y-114196904D01*
X143200809Y-114292142D01*
X143153190Y-114339761D01*
X143057952Y-114387380D01*
X142677000Y-114387380D01*
X142677000Y-113387380D01*
X143010333Y-113387380D01*
X143105571Y-113435000D01*
X143153190Y-113482619D01*
X143200809Y-113577857D01*
X143200809Y-113673095D01*
X143153190Y-113768333D01*
X143105571Y-113815952D01*
X143010333Y-113863571D01*
X142677000Y-113863571D01*
X143438904Y-114482619D02*
X144200809Y-114482619D01*
X144391285Y-114339761D02*
X144534142Y-114387380D01*
X144772238Y-114387380D01*
X144867476Y-114339761D01*
X144915095Y-114292142D01*
X144962714Y-114196904D01*
X144962714Y-114101666D01*
X144915095Y-114006428D01*
X144867476Y-113958809D01*
X144772238Y-113911190D01*
X144581761Y-113863571D01*
X144486523Y-113815952D01*
X144438904Y-113768333D01*
X144391285Y-113673095D01*
X144391285Y-113577857D01*
X144438904Y-113482619D01*
X144486523Y-113435000D01*
X144581761Y-113387380D01*
X144819857Y-113387380D01*
X144962714Y-113435000D01*
X145391285Y-114387380D02*
X145391285Y-113387380D01*
X145772238Y-113387380D01*
X145867476Y-113435000D01*
X145915095Y-113482619D01*
X145962714Y-113577857D01*
X145962714Y-113720714D01*
X145915095Y-113815952D01*
X145867476Y-113863571D01*
X145772238Y-113911190D01*
X145391285Y-113911190D01*
X146391285Y-114387380D02*
X146391285Y-113387380D01*
X146629380Y-113387380D01*
X146772238Y-113435000D01*
X146867476Y-113530238D01*
X146915095Y-113625476D01*
X146962714Y-113815952D01*
X146962714Y-113958809D01*
X146915095Y-114149285D01*
X146867476Y-114244523D01*
X146772238Y-114339761D01*
X146629380Y-114387380D01*
X146391285Y-114387380D01*
X147153190Y-114482619D02*
X147915095Y-114482619D01*
X148486523Y-113863571D02*
X148629380Y-113911190D01*
X148677000Y-113958809D01*
X148724619Y-114054047D01*
X148724619Y-114196904D01*
X148677000Y-114292142D01*
X148629380Y-114339761D01*
X148534142Y-114387380D01*
X148153190Y-114387380D01*
X148153190Y-113387380D01*
X148486523Y-113387380D01*
X148581761Y-113435000D01*
X148629380Y-113482619D01*
X148677000Y-113577857D01*
X148677000Y-113673095D01*
X148629380Y-113768333D01*
X148581761Y-113815952D01*
X148486523Y-113863571D01*
X148153190Y-113863571D01*
X149724619Y-114387380D02*
X149391285Y-113911190D01*
X149153190Y-114387380D02*
X149153190Y-113387380D01*
X149534142Y-113387380D01*
X149629380Y-113435000D01*
X149677000Y-113482619D01*
X149724619Y-113577857D01*
X149724619Y-113720714D01*
X149677000Y-113815952D01*
X149629380Y-113863571D01*
X149534142Y-113911190D01*
X149153190Y-113911190D01*
X150153190Y-114387380D02*
X150153190Y-113387380D01*
X150724619Y-114387380D02*
X150296047Y-113815952D01*
X150724619Y-113387380D02*
X150153190Y-113958809D01*
X131254666Y-106139761D02*
X131397523Y-106187380D01*
X131635619Y-106187380D01*
X131730857Y-106139761D01*
X131778476Y-106092142D01*
X131826095Y-105996904D01*
X131826095Y-105901666D01*
X131778476Y-105806428D01*
X131730857Y-105758809D01*
X131635619Y-105711190D01*
X131445142Y-105663571D01*
X131349904Y-105615952D01*
X131302285Y-105568333D01*
X131254666Y-105473095D01*
X131254666Y-105377857D01*
X131302285Y-105282619D01*
X131349904Y-105235000D01*
X131445142Y-105187380D01*
X131683238Y-105187380D01*
X131826095Y-105235000D01*
X132159428Y-105187380D02*
X132397523Y-106187380D01*
X132588000Y-105473095D01*
X132778476Y-106187380D01*
X133016571Y-105187380D01*
X133302285Y-105187380D02*
X133921333Y-105187380D01*
X133588000Y-105568333D01*
X133730857Y-105568333D01*
X133826095Y-105615952D01*
X133873714Y-105663571D01*
X133921333Y-105758809D01*
X133921333Y-105996904D01*
X133873714Y-106092142D01*
X133826095Y-106139761D01*
X133730857Y-106187380D01*
X133445142Y-106187380D01*
X133349904Y-106139761D01*
X133302285Y-106092142D01*
X127778476Y-114292142D02*
X127730857Y-114339761D01*
X127588000Y-114387380D01*
X127492761Y-114387380D01*
X127349904Y-114339761D01*
X127254666Y-114244523D01*
X127207047Y-114149285D01*
X127159428Y-113958809D01*
X127159428Y-113815952D01*
X127207047Y-113625476D01*
X127254666Y-113530238D01*
X127349904Y-113435000D01*
X127492761Y-113387380D01*
X127588000Y-113387380D01*
X127730857Y-113435000D01*
X127778476Y-113482619D01*
X128540380Y-113863571D02*
X128683238Y-113911190D01*
X128730857Y-113958809D01*
X128778476Y-114054047D01*
X128778476Y-114196904D01*
X128730857Y-114292142D01*
X128683238Y-114339761D01*
X128588000Y-114387380D01*
X128207047Y-114387380D01*
X128207047Y-113387380D01*
X128540380Y-113387380D01*
X128635619Y-113435000D01*
X128683238Y-113482619D01*
X128730857Y-113577857D01*
X128730857Y-113673095D01*
X128683238Y-113768333D01*
X128635619Y-113815952D01*
X128540380Y-113863571D01*
X128207047Y-113863571D01*
X128968952Y-114482619D02*
X129730857Y-114482619D01*
X130302285Y-113863571D02*
X129968952Y-113863571D01*
X129968952Y-114387380D02*
X129968952Y-113387380D01*
X130445142Y-113387380D01*
X131397523Y-114292142D02*
X131349904Y-114339761D01*
X131207047Y-114387380D01*
X131111809Y-114387380D01*
X130968952Y-114339761D01*
X130873714Y-114244523D01*
X130826095Y-114149285D01*
X130778476Y-113958809D01*
X130778476Y-113815952D01*
X130826095Y-113625476D01*
X130873714Y-113530238D01*
X130968952Y-113435000D01*
X131111809Y-113387380D01*
X131207047Y-113387380D01*
X131349904Y-113435000D01*
X131397523Y-113482619D01*
X131778476Y-114339761D02*
X131921333Y-114387380D01*
X132159428Y-114387380D01*
X132254666Y-114339761D01*
X132302285Y-114292142D01*
X132349904Y-114196904D01*
X132349904Y-114101666D01*
X132302285Y-114006428D01*
X132254666Y-113958809D01*
X132159428Y-113911190D01*
X131968952Y-113863571D01*
X131873714Y-113815952D01*
X131826095Y-113768333D01*
X131778476Y-113673095D01*
X131778476Y-113577857D01*
X131826095Y-113482619D01*
X131873714Y-113435000D01*
X131968952Y-113387380D01*
X132207047Y-113387380D01*
X132349904Y-113435000D01*
X132540380Y-114482619D02*
X133302285Y-114482619D01*
X134111809Y-114292142D02*
X134064190Y-114339761D01*
X133921333Y-114387380D01*
X133826095Y-114387380D01*
X133683238Y-114339761D01*
X133588000Y-114244523D01*
X133540380Y-114149285D01*
X133492761Y-113958809D01*
X133492761Y-113815952D01*
X133540380Y-113625476D01*
X133588000Y-113530238D01*
X133683238Y-113435000D01*
X133826095Y-113387380D01*
X133921333Y-113387380D01*
X134064190Y-113435000D01*
X134111809Y-113482619D01*
X134540380Y-114387380D02*
X134540380Y-113387380D01*
X134540380Y-113863571D02*
X135111809Y-113863571D01*
X135111809Y-114387380D02*
X135111809Y-113387380D01*
X135540380Y-114101666D02*
X136016571Y-114101666D01*
X135445142Y-114387380D02*
X135778476Y-113387380D01*
X136111809Y-114387380D01*
X136445142Y-114387380D02*
X136445142Y-113387380D01*
X137016571Y-114387380D01*
X137016571Y-113387380D01*
X137445142Y-113482619D02*
X137492761Y-113435000D01*
X137588000Y-113387380D01*
X137826095Y-113387380D01*
X137921333Y-113435000D01*
X137968952Y-113482619D01*
X138016571Y-113577857D01*
X138016571Y-113673095D01*
X137968952Y-113815952D01*
X137397523Y-114387380D01*
X138016571Y-114387380D01*
X117665666Y-106139761D02*
X117808523Y-106187380D01*
X118046619Y-106187380D01*
X118141857Y-106139761D01*
X118189476Y-106092142D01*
X118237095Y-105996904D01*
X118237095Y-105901666D01*
X118189476Y-105806428D01*
X118141857Y-105758809D01*
X118046619Y-105711190D01*
X117856142Y-105663571D01*
X117760904Y-105615952D01*
X117713285Y-105568333D01*
X117665666Y-105473095D01*
X117665666Y-105377857D01*
X117713285Y-105282619D01*
X117760904Y-105235000D01*
X117856142Y-105187380D01*
X118094238Y-105187380D01*
X118237095Y-105235000D01*
X118570428Y-105187380D02*
X118808523Y-106187380D01*
X118999000Y-105473095D01*
X119189476Y-106187380D01*
X119427571Y-105187380D01*
X119760904Y-105282619D02*
X119808523Y-105235000D01*
X119903761Y-105187380D01*
X120141857Y-105187380D01*
X120237095Y-105235000D01*
X120284714Y-105282619D01*
X120332333Y-105377857D01*
X120332333Y-105473095D01*
X120284714Y-105615952D01*
X119713285Y-106187380D01*
X120332333Y-106187380D01*
X114189476Y-114292142D02*
X114141857Y-114339761D01*
X113999000Y-114387380D01*
X113903761Y-114387380D01*
X113760904Y-114339761D01*
X113665666Y-114244523D01*
X113618047Y-114149285D01*
X113570428Y-113958809D01*
X113570428Y-113815952D01*
X113618047Y-113625476D01*
X113665666Y-113530238D01*
X113760904Y-113435000D01*
X113903761Y-113387380D01*
X113999000Y-113387380D01*
X114141857Y-113435000D01*
X114189476Y-113482619D01*
X114951380Y-113863571D02*
X115094238Y-113911190D01*
X115141857Y-113958809D01*
X115189476Y-114054047D01*
X115189476Y-114196904D01*
X115141857Y-114292142D01*
X115094238Y-114339761D01*
X114999000Y-114387380D01*
X114618047Y-114387380D01*
X114618047Y-113387380D01*
X114951380Y-113387380D01*
X115046619Y-113435000D01*
X115094238Y-113482619D01*
X115141857Y-113577857D01*
X115141857Y-113673095D01*
X115094238Y-113768333D01*
X115046619Y-113815952D01*
X114951380Y-113863571D01*
X114618047Y-113863571D01*
X115379952Y-114482619D02*
X116141857Y-114482619D01*
X116713285Y-113863571D02*
X116379952Y-113863571D01*
X116379952Y-114387380D02*
X116379952Y-113387380D01*
X116856142Y-113387380D01*
X117808523Y-114292142D02*
X117760904Y-114339761D01*
X117618047Y-114387380D01*
X117522809Y-114387380D01*
X117379952Y-114339761D01*
X117284714Y-114244523D01*
X117237095Y-114149285D01*
X117189476Y-113958809D01*
X117189476Y-113815952D01*
X117237095Y-113625476D01*
X117284714Y-113530238D01*
X117379952Y-113435000D01*
X117522809Y-113387380D01*
X117618047Y-113387380D01*
X117760904Y-113435000D01*
X117808523Y-113482619D01*
X118189476Y-114339761D02*
X118332333Y-114387380D01*
X118570428Y-114387380D01*
X118665666Y-114339761D01*
X118713285Y-114292142D01*
X118760904Y-114196904D01*
X118760904Y-114101666D01*
X118713285Y-114006428D01*
X118665666Y-113958809D01*
X118570428Y-113911190D01*
X118379952Y-113863571D01*
X118284714Y-113815952D01*
X118237095Y-113768333D01*
X118189476Y-113673095D01*
X118189476Y-113577857D01*
X118237095Y-113482619D01*
X118284714Y-113435000D01*
X118379952Y-113387380D01*
X118618047Y-113387380D01*
X118760904Y-113435000D01*
X118951380Y-114482619D02*
X119713285Y-114482619D01*
X120522809Y-114292142D02*
X120475190Y-114339761D01*
X120332333Y-114387380D01*
X120237095Y-114387380D01*
X120094238Y-114339761D01*
X119999000Y-114244523D01*
X119951380Y-114149285D01*
X119903761Y-113958809D01*
X119903761Y-113815952D01*
X119951380Y-113625476D01*
X119999000Y-113530238D01*
X120094238Y-113435000D01*
X120237095Y-113387380D01*
X120332333Y-113387380D01*
X120475190Y-113435000D01*
X120522809Y-113482619D01*
X120951380Y-114387380D02*
X120951380Y-113387380D01*
X120951380Y-113863571D02*
X121522809Y-113863571D01*
X121522809Y-114387380D02*
X121522809Y-113387380D01*
X121951380Y-114101666D02*
X122427571Y-114101666D01*
X121856142Y-114387380D02*
X122189476Y-113387380D01*
X122522809Y-114387380D01*
X122856142Y-114387380D02*
X122856142Y-113387380D01*
X123427571Y-114387380D01*
X123427571Y-113387380D01*
X124427571Y-114387380D02*
X123856142Y-114387380D01*
X124141857Y-114387380D02*
X124141857Y-113387380D01*
X124046619Y-113530238D01*
X123951380Y-113625476D01*
X123856142Y-113673095D01*
X155130666Y-89121761D02*
X155273523Y-89169380D01*
X155511619Y-89169380D01*
X155606857Y-89121761D01*
X155654476Y-89074142D01*
X155702095Y-88978904D01*
X155702095Y-88883666D01*
X155654476Y-88788428D01*
X155606857Y-88740809D01*
X155511619Y-88693190D01*
X155321142Y-88645571D01*
X155225904Y-88597952D01*
X155178285Y-88550333D01*
X155130666Y-88455095D01*
X155130666Y-88359857D01*
X155178285Y-88264619D01*
X155225904Y-88217000D01*
X155321142Y-88169380D01*
X155559238Y-88169380D01*
X155702095Y-88217000D01*
X156035428Y-88169380D02*
X156273523Y-89169380D01*
X156464000Y-88455095D01*
X156654476Y-89169380D01*
X156892571Y-88169380D01*
X157797333Y-89169380D02*
X157225904Y-89169380D01*
X157511619Y-89169380D02*
X157511619Y-88169380D01*
X157416380Y-88312238D01*
X157321142Y-88407476D01*
X157225904Y-88455095D01*
X149440190Y-97274142D02*
X149392571Y-97321761D01*
X149249714Y-97369380D01*
X149154476Y-97369380D01*
X149011619Y-97321761D01*
X148916380Y-97226523D01*
X148868761Y-97131285D01*
X148821142Y-96940809D01*
X148821142Y-96797952D01*
X148868761Y-96607476D01*
X148916380Y-96512238D01*
X149011619Y-96417000D01*
X149154476Y-96369380D01*
X149249714Y-96369380D01*
X149392571Y-96417000D01*
X149440190Y-96464619D01*
X149868761Y-97369380D02*
X149868761Y-96369380D01*
X150202095Y-97083666D01*
X150535428Y-96369380D01*
X150535428Y-97369380D01*
X150964000Y-97321761D02*
X151106857Y-97369380D01*
X151344952Y-97369380D01*
X151440190Y-97321761D01*
X151487809Y-97274142D01*
X151535428Y-97178904D01*
X151535428Y-97083666D01*
X151487809Y-96988428D01*
X151440190Y-96940809D01*
X151344952Y-96893190D01*
X151154476Y-96845571D01*
X151059238Y-96797952D01*
X151011619Y-96750333D01*
X150964000Y-96655095D01*
X150964000Y-96559857D01*
X151011619Y-96464619D01*
X151059238Y-96417000D01*
X151154476Y-96369380D01*
X151392571Y-96369380D01*
X151535428Y-96417000D01*
X151964000Y-97369380D02*
X151964000Y-96369380D01*
X152202095Y-96369380D01*
X152344952Y-96417000D01*
X152440190Y-96512238D01*
X152487809Y-96607476D01*
X152535428Y-96797952D01*
X152535428Y-96940809D01*
X152487809Y-97131285D01*
X152440190Y-97226523D01*
X152344952Y-97321761D01*
X152202095Y-97369380D01*
X151964000Y-97369380D01*
X152725904Y-97464619D02*
X153487809Y-97464619D01*
X153725904Y-97369380D02*
X153725904Y-96369380D01*
X153964000Y-96369380D01*
X154106857Y-96417000D01*
X154202095Y-96512238D01*
X154249714Y-96607476D01*
X154297333Y-96797952D01*
X154297333Y-96940809D01*
X154249714Y-97131285D01*
X154202095Y-97226523D01*
X154106857Y-97321761D01*
X153964000Y-97369380D01*
X153725904Y-97369380D01*
X154725904Y-97369380D02*
X154725904Y-96369380D01*
X155154476Y-97321761D02*
X155297333Y-97369380D01*
X155535428Y-97369380D01*
X155630666Y-97321761D01*
X155678285Y-97274142D01*
X155725904Y-97178904D01*
X155725904Y-97083666D01*
X155678285Y-96988428D01*
X155630666Y-96940809D01*
X155535428Y-96893190D01*
X155344952Y-96845571D01*
X155249714Y-96797952D01*
X155202095Y-96750333D01*
X155154476Y-96655095D01*
X155154476Y-96559857D01*
X155202095Y-96464619D01*
X155249714Y-96417000D01*
X155344952Y-96369380D01*
X155583047Y-96369380D01*
X155725904Y-96417000D01*
X156154476Y-97369380D02*
X156154476Y-96369380D01*
X156535428Y-96369380D01*
X156630666Y-96417000D01*
X156678285Y-96464619D01*
X156725904Y-96559857D01*
X156725904Y-96702714D01*
X156678285Y-96797952D01*
X156630666Y-96845571D01*
X156535428Y-96893190D01*
X156154476Y-96893190D01*
X157154476Y-96845571D02*
X157487809Y-96845571D01*
X157630666Y-97369380D02*
X157154476Y-97369380D01*
X157154476Y-96369380D01*
X157630666Y-96369380D01*
X158059238Y-97369380D02*
X158059238Y-96369380D01*
X158630666Y-97369380D01*
X158630666Y-96369380D01*
X159059238Y-97321761D02*
X159202095Y-97369380D01*
X159440190Y-97369380D01*
X159535428Y-97321761D01*
X159583047Y-97274142D01*
X159630666Y-97178904D01*
X159630666Y-97083666D01*
X159583047Y-96988428D01*
X159535428Y-96940809D01*
X159440190Y-96893190D01*
X159249714Y-96845571D01*
X159154476Y-96797952D01*
X159106857Y-96750333D01*
X159059238Y-96655095D01*
X159059238Y-96559857D01*
X159106857Y-96464619D01*
X159154476Y-96417000D01*
X159249714Y-96369380D01*
X159487809Y-96369380D01*
X159630666Y-96417000D01*
X160059238Y-96845571D02*
X160392571Y-96845571D01*
X160535428Y-97369380D02*
X160059238Y-97369380D01*
X160059238Y-96369380D01*
X160535428Y-96369380D01*
X160725904Y-97464619D02*
X161487809Y-97464619D01*
X162059238Y-96845571D02*
X162202095Y-96893190D01*
X162249714Y-96940809D01*
X162297333Y-97036047D01*
X162297333Y-97178904D01*
X162249714Y-97274142D01*
X162202095Y-97321761D01*
X162106857Y-97369380D01*
X161725904Y-97369380D01*
X161725904Y-96369380D01*
X162059238Y-96369380D01*
X162154476Y-96417000D01*
X162202095Y-96464619D01*
X162249714Y-96559857D01*
X162249714Y-96655095D01*
X162202095Y-96750333D01*
X162154476Y-96797952D01*
X162059238Y-96845571D01*
X161725904Y-96845571D01*
X162583047Y-96369380D02*
X163154476Y-96369380D01*
X162868761Y-97369380D02*
X162868761Y-96369380D01*
X163487809Y-97369380D02*
X163487809Y-96369380D01*
X164059238Y-97369380D01*
X164059238Y-96369380D01*
X136953666Y-93559380D02*
X136953666Y-94273666D01*
X136906047Y-94416523D01*
X136810809Y-94511761D01*
X136667952Y-94559380D01*
X136572714Y-94559380D01*
X137953666Y-94559380D02*
X137382238Y-94559380D01*
X137667952Y-94559380D02*
X137667952Y-93559380D01*
X137572714Y-93702238D01*
X137477476Y-93797476D01*
X137382238Y-93845095D01*
X136470047Y-96416761D02*
X136612904Y-96464380D01*
X136851000Y-96464380D01*
X136946238Y-96416761D01*
X136993857Y-96369142D01*
X137041476Y-96273904D01*
X137041476Y-96178666D01*
X136993857Y-96083428D01*
X136946238Y-96035809D01*
X136851000Y-95988190D01*
X136660523Y-95940571D01*
X136565285Y-95892952D01*
X136517666Y-95845333D01*
X136470047Y-95750095D01*
X136470047Y-95654857D01*
X136517666Y-95559619D01*
X136565285Y-95512000D01*
X136660523Y-95464380D01*
X136898619Y-95464380D01*
X137041476Y-95512000D01*
X137374809Y-95797714D02*
X137565285Y-96464380D01*
X137755761Y-95988190D01*
X137946238Y-96464380D01*
X138136714Y-95797714D01*
X138517666Y-96464380D02*
X138517666Y-95797714D01*
X138517666Y-95464380D02*
X138470047Y-95512000D01*
X138517666Y-95559619D01*
X138565285Y-95512000D01*
X138517666Y-95464380D01*
X138517666Y-95559619D01*
X138851000Y-95797714D02*
X139231952Y-95797714D01*
X138993857Y-95464380D02*
X138993857Y-96321523D01*
X139041476Y-96416761D01*
X139136714Y-96464380D01*
X139231952Y-96464380D01*
X139993857Y-96416761D02*
X139898619Y-96464380D01*
X139708142Y-96464380D01*
X139612904Y-96416761D01*
X139565285Y-96369142D01*
X139517666Y-96273904D01*
X139517666Y-95988190D01*
X139565285Y-95892952D01*
X139612904Y-95845333D01*
X139708142Y-95797714D01*
X139898619Y-95797714D01*
X139993857Y-95845333D01*
X140422428Y-96464380D02*
X140422428Y-95464380D01*
X140851000Y-96464380D02*
X140851000Y-95940571D01*
X140803380Y-95845333D01*
X140708142Y-95797714D01*
X140565285Y-95797714D01*
X140470047Y-95845333D01*
X140422428Y-95892952D01*
X142089095Y-96464380D02*
X142089095Y-95464380D01*
X142565285Y-95797714D02*
X142565285Y-96464380D01*
X142565285Y-95892952D02*
X142612904Y-95845333D01*
X142708142Y-95797714D01*
X142851000Y-95797714D01*
X142946238Y-95845333D01*
X142993857Y-95940571D01*
X142993857Y-96464380D01*
X143470047Y-95797714D02*
X143470047Y-96797714D01*
X143470047Y-95845333D02*
X143565285Y-95797714D01*
X143755761Y-95797714D01*
X143851000Y-95845333D01*
X143898619Y-95892952D01*
X143946238Y-95988190D01*
X143946238Y-96273904D01*
X143898619Y-96369142D01*
X143851000Y-96416761D01*
X143755761Y-96464380D01*
X143565285Y-96464380D01*
X143470047Y-96416761D01*
X144803380Y-95797714D02*
X144803380Y-96464380D01*
X144374809Y-95797714D02*
X144374809Y-96321523D01*
X144422428Y-96416761D01*
X144517666Y-96464380D01*
X144660523Y-96464380D01*
X144755761Y-96416761D01*
X144803380Y-96369142D01*
X145136714Y-95797714D02*
X145517666Y-95797714D01*
X145279571Y-95464380D02*
X145279571Y-96321523D01*
X145327190Y-96416761D01*
X145422428Y-96464380D01*
X145517666Y-96464380D01*
X145803380Y-96416761D02*
X145898619Y-96464380D01*
X146089095Y-96464380D01*
X146184333Y-96416761D01*
X146231952Y-96321523D01*
X146231952Y-96273904D01*
X146184333Y-96178666D01*
X146089095Y-96131047D01*
X145946238Y-96131047D01*
X145851000Y-96083428D01*
X145803380Y-95988190D01*
X145803380Y-95940571D01*
X145851000Y-95845333D01*
X145946238Y-95797714D01*
X146089095Y-95797714D01*
X146184333Y-95845333D01*
X150201904Y-101202380D02*
X150201904Y-100202380D01*
X150440000Y-100202380D01*
X150582857Y-100250000D01*
X150678095Y-100345238D01*
X150725714Y-100440476D01*
X150773333Y-100630952D01*
X150773333Y-100773809D01*
X150725714Y-100964285D01*
X150678095Y-101059523D01*
X150582857Y-101154761D01*
X150440000Y-101202380D01*
X150201904Y-101202380D01*
X151678095Y-100202380D02*
X151201904Y-100202380D01*
X151154285Y-100678571D01*
X151201904Y-100630952D01*
X151297142Y-100583333D01*
X151535238Y-100583333D01*
X151630476Y-100630952D01*
X151678095Y-100678571D01*
X151725714Y-100773809D01*
X151725714Y-101011904D01*
X151678095Y-101107142D01*
X151630476Y-101154761D01*
X151535238Y-101202380D01*
X151297142Y-101202380D01*
X151201904Y-101154761D01*
X151154285Y-101107142D01*
X146868095Y-101522380D02*
X146868095Y-100522380D01*
X147439523Y-101522380D02*
X147010952Y-100950952D01*
X147439523Y-100522380D02*
X146868095Y-101093809D01*
X139088904Y-101202380D02*
X139088904Y-100202380D01*
X139327000Y-100202380D01*
X139469857Y-100250000D01*
X139565095Y-100345238D01*
X139612714Y-100440476D01*
X139660333Y-100630952D01*
X139660333Y-100773809D01*
X139612714Y-100964285D01*
X139565095Y-101059523D01*
X139469857Y-101154761D01*
X139327000Y-101202380D01*
X139088904Y-101202380D01*
X140517476Y-100535714D02*
X140517476Y-101202380D01*
X140279380Y-100154761D02*
X140041285Y-100869047D01*
X140660333Y-100869047D01*
X135755095Y-101522380D02*
X135755095Y-100522380D01*
X136326523Y-101522380D02*
X135897952Y-100950952D01*
X136326523Y-100522380D02*
X135755095Y-101093809D01*
X127975904Y-101202380D02*
X127975904Y-100202380D01*
X128214000Y-100202380D01*
X128356857Y-100250000D01*
X128452095Y-100345238D01*
X128499714Y-100440476D01*
X128547333Y-100630952D01*
X128547333Y-100773809D01*
X128499714Y-100964285D01*
X128452095Y-101059523D01*
X128356857Y-101154761D01*
X128214000Y-101202380D01*
X127975904Y-101202380D01*
X128880666Y-100202380D02*
X129499714Y-100202380D01*
X129166380Y-100583333D01*
X129309238Y-100583333D01*
X129404476Y-100630952D01*
X129452095Y-100678571D01*
X129499714Y-100773809D01*
X129499714Y-101011904D01*
X129452095Y-101107142D01*
X129404476Y-101154761D01*
X129309238Y-101202380D01*
X129023523Y-101202380D01*
X128928285Y-101154761D01*
X128880666Y-101107142D01*
X124642095Y-101522380D02*
X124642095Y-100522380D01*
X125213523Y-101522380D02*
X124784952Y-100950952D01*
X125213523Y-100522380D02*
X124642095Y-101093809D01*
X116863904Y-101202380D02*
X116863904Y-100202380D01*
X117102000Y-100202380D01*
X117244857Y-100250000D01*
X117340095Y-100345238D01*
X117387714Y-100440476D01*
X117435333Y-100630952D01*
X117435333Y-100773809D01*
X117387714Y-100964285D01*
X117340095Y-101059523D01*
X117244857Y-101154761D01*
X117102000Y-101202380D01*
X116863904Y-101202380D01*
X117816285Y-100297619D02*
X117863904Y-100250000D01*
X117959142Y-100202380D01*
X118197238Y-100202380D01*
X118292476Y-100250000D01*
X118340095Y-100297619D01*
X118387714Y-100392857D01*
X118387714Y-100488095D01*
X118340095Y-100630952D01*
X117768666Y-101202380D01*
X118387714Y-101202380D01*
X113530095Y-101522380D02*
X113530095Y-100522380D01*
X114101523Y-101522380D02*
X113672952Y-100950952D01*
X114101523Y-100522380D02*
X113530095Y-101093809D01*
X161313904Y-101202380D02*
X161313904Y-100202380D01*
X161552000Y-100202380D01*
X161694857Y-100250000D01*
X161790095Y-100345238D01*
X161837714Y-100440476D01*
X161885333Y-100630952D01*
X161885333Y-100773809D01*
X161837714Y-100964285D01*
X161790095Y-101059523D01*
X161694857Y-101154761D01*
X161552000Y-101202380D01*
X161313904Y-101202380D01*
X162837714Y-101202380D02*
X162266285Y-101202380D01*
X162552000Y-101202380D02*
X162552000Y-100202380D01*
X162456761Y-100345238D01*
X162361523Y-100440476D01*
X162266285Y-100488095D01*
X157980095Y-101522380D02*
X157980095Y-100522380D01*
X158551523Y-101522380D02*
X158122952Y-100950952D01*
X158551523Y-100522380D02*
X157980095Y-101093809D01*
M02*
