%TF.GenerationSoftware,KiCad,Pcbnew,9.0.5*%
%TF.CreationDate,2025-12-12T05:58:33+10:00*%
%TF.ProjectId,Jet Ranger Front Panel Servo,4a657420-5261-46e6-9765-722046726f6e,rev?*%
%TF.SameCoordinates,Original*%
%TF.FileFunction,Plated,1,2,PTH,Mixed*%
%TF.FilePolarity,Positive*%
%FSLAX46Y46*%
G04 Gerber Fmt 4.6, Leading zero omitted, Abs format (unit mm)*
G04 Created by KiCad (PCBNEW 9.0.5) date 2025-12-12 05:58:33*
%MOMM*%
%LPD*%
G01*
G04 APERTURE LIST*
%TA.AperFunction,ViaDrill*%
%ADD10C,0.400000*%
%TD*%
%TA.AperFunction,ComponentDrill*%
%ADD11C,0.800000*%
%TD*%
%TA.AperFunction,ComponentDrill*%
%ADD12C,0.900000*%
%TD*%
%TA.AperFunction,ComponentDrill*%
%ADD13C,1.000000*%
%TD*%
G04 aperture for slot hole*
%TA.AperFunction,ComponentDrill*%
%ADD14C,1.000000*%
%TD*%
%TA.AperFunction,ComponentDrill*%
%ADD15C,1.010000*%
%TD*%
%TA.AperFunction,ComponentDrill*%
%ADD16C,1.016000*%
%TD*%
%TA.AperFunction,ComponentDrill*%
%ADD17C,1.100000*%
%TD*%
%TA.AperFunction,ComponentDrill*%
%ADD18C,1.110000*%
%TD*%
%TA.AperFunction,ComponentDrill*%
%ADD19C,1.190000*%
%TD*%
G04 APERTURE END LIST*
D10*
X45205900Y-53536400D03*
X47207600Y-89632500D03*
X50840000Y-49190200D03*
X56113200Y-60676400D03*
X79064800Y-105420700D03*
X90743800Y-108694100D03*
D11*
%TO.C,R14*%
X47960000Y-82500000D03*
%TO.C,R16*%
X47960000Y-87000000D03*
%TO.C,R17*%
X48460000Y-50500000D03*
%TO.C,R15*%
X48460000Y-57000000D03*
%TO.C,R10*%
X48460000Y-75000000D03*
%TO.C,R12*%
X48460000Y-78000000D03*
%TO.C,R13*%
X48500000Y-60000000D03*
%TO.C,R11*%
X48500000Y-63000000D03*
%TO.C,R9*%
X48500000Y-66000000D03*
%TO.C,R7*%
X48500000Y-69000000D03*
%TO.C,R8*%
X48500000Y-72000000D03*
%TO.C,R14*%
X50500000Y-82500000D03*
%TO.C,R16*%
X50500000Y-87000000D03*
%TO.C,R17*%
X51000000Y-50500000D03*
%TO.C,R15*%
X51000000Y-57000000D03*
%TO.C,R10*%
X51000000Y-75000000D03*
%TO.C,R12*%
X51000000Y-78000000D03*
%TO.C,R13*%
X51040000Y-60000000D03*
%TO.C,R11*%
X51040000Y-63000000D03*
%TO.C,R9*%
X51040000Y-66000000D03*
%TO.C,R7*%
X51040000Y-69000000D03*
%TO.C,R8*%
X51040000Y-72000000D03*
%TO.C,U1*%
X58180000Y-49868300D03*
X58180000Y-57488300D03*
%TO.C,U2*%
X58180000Y-71500000D03*
X58180000Y-79120000D03*
%TO.C,U1*%
X60720000Y-49868300D03*
X60720000Y-57488300D03*
%TO.C,U2*%
X60720000Y-71500000D03*
X60720000Y-79120000D03*
%TO.C,U1*%
X63260000Y-49868300D03*
X63260000Y-57488300D03*
%TO.C,U2*%
X63260000Y-71500000D03*
X63260000Y-79120000D03*
%TO.C,U1*%
X65800000Y-49868300D03*
X65800000Y-57488300D03*
%TO.C,U2*%
X65800000Y-71500000D03*
X65800000Y-79120000D03*
%TO.C,U1*%
X68340000Y-49868300D03*
X68340000Y-57488300D03*
%TO.C,U2*%
X68340000Y-71500000D03*
X68340000Y-79120000D03*
%TO.C,U1*%
X70880000Y-49868300D03*
X70880000Y-57488300D03*
%TO.C,U2*%
X70880000Y-71500000D03*
X70880000Y-79120000D03*
%TO.C,U1*%
X73420000Y-49868300D03*
X73420000Y-57488300D03*
%TO.C,U2*%
X73420000Y-71500000D03*
X73420000Y-79120000D03*
%TO.C,U1*%
X75960000Y-49868300D03*
X75960000Y-57488300D03*
%TO.C,U2*%
X75960000Y-71500000D03*
X75960000Y-79120000D03*
%TO.C,U1*%
X78500000Y-49868300D03*
X78500000Y-57488300D03*
%TO.C,U2*%
X78500000Y-71500000D03*
X78500000Y-79120000D03*
%TO.C,R19*%
X89037500Y-61212500D03*
X91577500Y-61212500D03*
%TO.C,R18*%
X94960000Y-61500000D03*
X97500000Y-61500000D03*
%TO.C,R1*%
X105350000Y-48750000D03*
X107890000Y-48750000D03*
%TO.C,R20*%
X110960000Y-50900000D03*
%TO.C,R3*%
X111455000Y-85750000D03*
%TO.C,R20*%
X113500000Y-50900000D03*
%TO.C,R3*%
X113995000Y-85750000D03*
%TO.C,R6*%
X117000000Y-80000000D03*
%TO.C,R5*%
X118250000Y-84250000D03*
%TO.C,R6*%
X119540000Y-80000000D03*
%TO.C,R5*%
X120790000Y-84250000D03*
%TO.C,R2*%
X124710000Y-92750000D03*
%TO.C,R4*%
X124750000Y-84960000D03*
X124750000Y-87500000D03*
%TO.C,R2*%
X127250000Y-92750000D03*
D12*
%TO.C,D2*%
X110500000Y-90500000D03*
%TO.C,D5*%
X111000000Y-80500000D03*
%TO.C,D2*%
X113040000Y-90500000D03*
%TO.C,D5*%
X113540000Y-80500000D03*
%TO.C,D3*%
X119000000Y-89750000D03*
X121540000Y-89750000D03*
%TO.C,D4*%
X123230000Y-80500000D03*
%TO.C,D1*%
X124500000Y-96750000D03*
%TO.C,D4*%
X125770000Y-80500000D03*
%TO.C,D1*%
X127040000Y-96750000D03*
D13*
%TO.C,J29*%
X33500000Y-75800000D03*
X33500000Y-78340000D03*
X33500000Y-80880000D03*
X33500000Y-83420000D03*
X33500000Y-85960000D03*
X33500000Y-88500000D03*
%TO.C,J28*%
X35000000Y-108420000D03*
X35000000Y-110960000D03*
X35000000Y-113500000D03*
%TO.C,J36*%
X37000000Y-45000000D03*
X39540000Y-45000000D03*
%TO.C,J37*%
X40411400Y-98933000D03*
%TO.C,J26*%
X40791700Y-108420000D03*
X40791700Y-110960000D03*
X40791700Y-113500000D03*
%TO.C,J41*%
X41140000Y-121320000D03*
%TO.C,J40*%
X41140000Y-125910000D03*
%TO.C,J39*%
X41140000Y-130500000D03*
%TO.C,J37*%
X42951400Y-98933000D03*
%TO.C,J41*%
X43680000Y-121320000D03*
%TO.C,J40*%
X43680000Y-125910000D03*
%TO.C,J39*%
X43680000Y-130500000D03*
%TO.C,J13*%
X45720000Y-41046400D03*
%TO.C,J41*%
X46220000Y-121320000D03*
%TO.C,J40*%
X46220000Y-125910000D03*
%TO.C,J39*%
X46220000Y-130500000D03*
%TO.C,J32*%
X46583300Y-108420000D03*
X46583300Y-110960000D03*
X46583300Y-113500000D03*
%TO.C,J13*%
X48260000Y-41046400D03*
%TO.C,J41*%
X48760000Y-121320000D03*
%TO.C,J40*%
X48760000Y-125910000D03*
%TO.C,J39*%
X48760000Y-130500000D03*
%TO.C,J13*%
X50800000Y-41046400D03*
%TO.C,J11*%
X50800000Y-98958400D03*
%TO.C,J41*%
X51300000Y-121320000D03*
%TO.C,J40*%
X51300000Y-125910000D03*
%TO.C,J39*%
X51300000Y-130500000D03*
%TO.C,J33*%
X52375000Y-108420000D03*
X52375000Y-110960000D03*
X52375000Y-113500000D03*
%TO.C,J13*%
X53340000Y-41046400D03*
%TO.C,J11*%
X53340000Y-98958400D03*
%TO.C,J41*%
X53840000Y-121320000D03*
%TO.C,J40*%
X53840000Y-125910000D03*
%TO.C,J39*%
X53840000Y-130500000D03*
%TO.C,J13*%
X55880000Y-41046400D03*
%TO.C,J11*%
X55880000Y-98958400D03*
%TO.C,J41*%
X56380000Y-121320000D03*
%TO.C,J40*%
X56380000Y-125910000D03*
%TO.C,J39*%
X56380000Y-130500000D03*
%TO.C,J25*%
X58166700Y-108420000D03*
X58166700Y-110960000D03*
X58166700Y-113500000D03*
%TO.C,J13*%
X58420000Y-41046400D03*
%TO.C,J11*%
X58420000Y-98958400D03*
%TO.C,J41*%
X58920000Y-121320000D03*
%TO.C,J40*%
X58920000Y-125910000D03*
%TO.C,J39*%
X58920000Y-130500000D03*
%TO.C,J13*%
X60960000Y-41046400D03*
%TO.C,J11*%
X60960000Y-98958400D03*
%TO.C,J41*%
X61460000Y-121320000D03*
%TO.C,J40*%
X61460000Y-125910000D03*
%TO.C,J39*%
X61460000Y-130500000D03*
%TO.C,J5*%
X62260000Y-63736700D03*
X62260000Y-66276700D03*
%TO.C,J4*%
X62260000Y-85368300D03*
X62260000Y-87908300D03*
%TO.C,J13*%
X63500000Y-41046400D03*
%TO.C,J11*%
X63500000Y-98958400D03*
%TO.C,J22*%
X63958300Y-108420000D03*
X63958300Y-110960000D03*
X63958300Y-113500000D03*
%TO.C,J41*%
X64000000Y-121320000D03*
%TO.C,J40*%
X64000000Y-125910000D03*
%TO.C,J39*%
X64000000Y-130500000D03*
%TO.C,J5*%
X64800000Y-63736700D03*
X64800000Y-66276700D03*
%TO.C,J4*%
X64800000Y-85368300D03*
X64800000Y-87908300D03*
%TO.C,J11*%
X66040000Y-98958400D03*
%TO.C,J41*%
X66540000Y-121320000D03*
%TO.C,J40*%
X66540000Y-125910000D03*
%TO.C,J39*%
X66540000Y-130500000D03*
%TO.C,J5*%
X67340000Y-63736700D03*
X67340000Y-66276700D03*
%TO.C,J4*%
X67340000Y-85368300D03*
X67340000Y-87908300D03*
%TO.C,J12*%
X68580000Y-41046400D03*
%TO.C,J11*%
X68580000Y-98958400D03*
%TO.C,J41*%
X69080000Y-121320000D03*
%TO.C,J40*%
X69080000Y-125910000D03*
%TO.C,J39*%
X69080000Y-130500000D03*
%TO.C,J23*%
X69750000Y-108420000D03*
X69750000Y-110960000D03*
X69750000Y-113500000D03*
%TO.C,J5*%
X69880000Y-63736700D03*
X69880000Y-66276700D03*
%TO.C,J4*%
X69880000Y-85368300D03*
X69880000Y-87908300D03*
%TO.C,J12*%
X71120000Y-41046400D03*
%TO.C,J41*%
X71620000Y-121320000D03*
%TO.C,J40*%
X71620000Y-125910000D03*
%TO.C,J39*%
X71620000Y-130500000D03*
%TO.C,J5*%
X72420000Y-63736700D03*
X72420000Y-66276700D03*
%TO.C,J4*%
X72420000Y-85368300D03*
X72420000Y-87908300D03*
%TO.C,J12*%
X73660000Y-41046400D03*
%TO.C,J34*%
X73660000Y-98958400D03*
%TO.C,J41*%
X74160000Y-121320000D03*
%TO.C,J40*%
X74160000Y-125910000D03*
%TO.C,J39*%
X74160000Y-130500000D03*
%TO.C,J5*%
X74960000Y-63736700D03*
X74960000Y-66276700D03*
%TO.C,J4*%
X74960000Y-85368300D03*
X74960000Y-87908300D03*
%TO.C,J21*%
X75541700Y-108420000D03*
X75541700Y-110960000D03*
X75541700Y-113500000D03*
%TO.C,J12*%
X76200000Y-41046400D03*
%TO.C,J34*%
X76200000Y-98958400D03*
%TO.C,J41*%
X76700000Y-121320000D03*
%TO.C,J40*%
X76700000Y-125910000D03*
%TO.C,J39*%
X76700000Y-130500000D03*
%TO.C,J5*%
X77500000Y-63736700D03*
X77500000Y-66276700D03*
%TO.C,J4*%
X77500000Y-85368300D03*
X77500000Y-87908300D03*
%TO.C,J12*%
X78740000Y-41046400D03*
%TO.C,J34*%
X78740000Y-98958400D03*
%TO.C,J41*%
X79240000Y-121320000D03*
%TO.C,J40*%
X79240000Y-125910000D03*
%TO.C,J39*%
X79240000Y-130500000D03*
%TO.C,J5*%
X80040000Y-63736700D03*
X80040000Y-66276700D03*
%TO.C,J4*%
X80040000Y-85368300D03*
X80040000Y-87908300D03*
%TO.C,J12*%
X81280000Y-41046400D03*
%TO.C,J34*%
X81280000Y-98958400D03*
%TO.C,J30*%
X81333300Y-108420000D03*
X81333300Y-110960000D03*
X81333300Y-113500000D03*
%TO.C,J12*%
X83820000Y-41046400D03*
%TO.C,J34*%
X83820000Y-98958400D03*
%TO.C,J12*%
X86360000Y-41046400D03*
%TO.C,J34*%
X86360000Y-98958400D03*
%TO.C,J20*%
X87125000Y-108420000D03*
X87125000Y-110960000D03*
X87125000Y-113500000D03*
%TO.C,J34*%
X88900000Y-98958400D03*
%TO.C,J14*%
X91440000Y-41046400D03*
%TO.C,J34*%
X91440000Y-98958400D03*
%TO.C,J24*%
X92916700Y-108420000D03*
X92916700Y-110960000D03*
X92916700Y-113500000D03*
%TO.C,J14*%
X93980000Y-41046400D03*
%TO.C,J35*%
X95504000Y-98958400D03*
%TO.C,J14*%
X96520000Y-41046400D03*
%TO.C,J35*%
X98044000Y-98958400D03*
%TO.C,J31*%
X98708300Y-108420000D03*
X98708300Y-110960000D03*
X98708300Y-113500000D03*
%TO.C,J14*%
X99060000Y-41046400D03*
%TO.C,J35*%
X100584000Y-98958400D03*
%TO.C,J14*%
X101600000Y-41046400D03*
%TO.C,J35*%
X103124000Y-98958400D03*
%TO.C,J14*%
X104140000Y-41046400D03*
%TO.C,J27*%
X104500000Y-108420000D03*
X104500000Y-110960000D03*
X104500000Y-113500000D03*
%TO.C,J35*%
X105664000Y-98958400D03*
%TO.C,J14*%
X106680000Y-41046400D03*
%TO.C,J35*%
X108204000Y-98958400D03*
%TO.C,J14*%
X109220000Y-41046400D03*
%TO.C,J35*%
X110744000Y-98958400D03*
X113284000Y-98958400D03*
%TO.C,J38*%
X115450000Y-125560000D03*
X115450000Y-128100000D03*
%TO.C,J35*%
X115824000Y-98958400D03*
%TO.C,J1*%
X117298000Y-45470000D03*
X117298000Y-48010000D03*
X117298000Y-50550000D03*
%TO.C,J35*%
X118364000Y-98958400D03*
D14*
%TO.C,J2*%
X118949000Y-117350000D02*
X118949000Y-119350000D01*
%TO.C,J3*%
X120000000Y-105207500D02*
X120000000Y-107207500D01*
%TO.C,J2*%
X120949000Y-113650000D02*
X122949000Y-113650000D01*
%TO.C,J3*%
X122000000Y-101507500D02*
X124000000Y-101507500D01*
%TO.C,J2*%
X124949000Y-117350000D02*
X124949000Y-119350000D01*
%TO.C,J3*%
X126000000Y-105207500D02*
X126000000Y-107207500D01*
D15*
%TO.C,F1*%
X109500000Y-121000000D03*
%TO.C,F2*%
X109550000Y-110150000D03*
%TO.C,F1*%
X110700000Y-115900000D03*
%TO.C,F2*%
X110750000Y-105050000D03*
D16*
%TO.C,A1*%
X40625000Y-51119300D03*
X40625000Y-53659300D03*
X40625000Y-56199300D03*
X40625000Y-58739300D03*
X40625000Y-61279300D03*
X40625000Y-63819300D03*
X40625000Y-66359300D03*
X40625000Y-68899300D03*
X40625000Y-71439300D03*
X40625000Y-73979300D03*
X40625000Y-76519300D03*
X40625000Y-79059300D03*
X40625000Y-81599300D03*
X40625000Y-84139300D03*
X40625000Y-86679300D03*
X40625000Y-89219300D03*
X40625000Y-91759300D03*
X40625000Y-94299300D03*
X43165000Y-51119300D03*
X43165000Y-53659300D03*
X43165000Y-56199300D03*
X43165000Y-58739300D03*
X43165000Y-61279300D03*
X43165000Y-63819300D03*
X43165000Y-66359300D03*
X43165000Y-68899300D03*
X43165000Y-71439300D03*
X43165000Y-73979300D03*
X43165000Y-76519300D03*
X43165000Y-79059300D03*
X43165000Y-81599300D03*
X43165000Y-84139300D03*
X43165000Y-86679300D03*
X43165000Y-89219300D03*
X43165000Y-91759300D03*
X43165000Y-94299300D03*
X45705000Y-46039300D03*
X48245000Y-46039300D03*
X50785000Y-46039300D03*
X50785000Y-94299300D03*
X53325000Y-46039300D03*
X53325000Y-94299300D03*
X55865000Y-46039300D03*
X55865000Y-94299300D03*
X58405000Y-46039300D03*
X58405000Y-94299300D03*
X60945000Y-46039300D03*
X60945000Y-94299300D03*
X63485000Y-46039300D03*
X63485000Y-94299300D03*
X66025000Y-94299300D03*
X68565000Y-46039300D03*
X68565000Y-94299300D03*
X71105000Y-46039300D03*
X73645000Y-46039300D03*
X73645000Y-94299300D03*
X76185000Y-46039300D03*
X76185000Y-94299300D03*
X78725000Y-46039300D03*
X78725000Y-94299300D03*
X81265000Y-46039300D03*
X81265000Y-94299300D03*
X83805000Y-46039300D03*
X83805000Y-94299300D03*
X86345000Y-46039300D03*
X86345000Y-94299300D03*
X88885000Y-94299300D03*
X91425000Y-46039300D03*
X91425000Y-94299300D03*
X93965000Y-46039300D03*
X95489000Y-94299300D03*
X96505000Y-46039300D03*
X98029000Y-94299300D03*
X99045000Y-46039300D03*
X100569000Y-94299300D03*
X101585000Y-46039300D03*
X103109000Y-94299300D03*
X104125000Y-46039300D03*
X105649000Y-94299300D03*
X106665000Y-46039300D03*
X108189000Y-94299300D03*
X109205000Y-46039300D03*
X110729000Y-94299300D03*
X113269000Y-94299300D03*
X115809000Y-94299300D03*
X118349000Y-94299300D03*
D17*
%TO.C,Q1*%
X88920000Y-56500000D03*
X91460000Y-56500000D03*
X94000000Y-56500000D03*
D18*
%TO.C,U3*%
X109109000Y-55183300D03*
X109109000Y-75503300D03*
X111649000Y-55183300D03*
X111649000Y-75503300D03*
X114189000Y-55183300D03*
X114189000Y-75503300D03*
X116729000Y-55183300D03*
X116729000Y-75503300D03*
X119269000Y-55183300D03*
X119269000Y-75503300D03*
X121809000Y-55183300D03*
X121809000Y-75503300D03*
D19*
%TO.C,SW1*%
X33000000Y-53500000D03*
%TO.C,SW2*%
X33000000Y-63500000D03*
%TO.C,SW3*%
X33000000Y-73500000D03*
%TO.C,SW1*%
X35540000Y-53500000D03*
%TO.C,SW2*%
X35540000Y-63500000D03*
%TO.C,SW3*%
X35540000Y-73500000D03*
%TO.C,J17*%
X88460000Y-87500000D03*
%TO.C,J9*%
X88653200Y-69135100D03*
%TO.C,J18*%
X88753200Y-77985100D03*
%TO.C,J6*%
X89960000Y-120500000D03*
%TO.C,J15*%
X90060000Y-129350000D03*
%TO.C,J17*%
X91000000Y-87500000D03*
%TO.C,J9*%
X91193200Y-69135100D03*
%TO.C,J18*%
X91293200Y-77985100D03*
%TO.C,J6*%
X92500000Y-120500000D03*
%TO.C,J15*%
X92600000Y-129350000D03*
%TO.C,J8*%
X97460000Y-87500000D03*
%TO.C,J10*%
X97543200Y-69135100D03*
%TO.C,J19*%
X97643200Y-77985100D03*
%TO.C,J7*%
X98850000Y-120500000D03*
%TO.C,J16*%
X98950000Y-129350000D03*
%TO.C,J8*%
X100000000Y-87500000D03*
%TO.C,J10*%
X100083200Y-69135100D03*
%TO.C,J19*%
X100183200Y-77985100D03*
%TO.C,J7*%
X101390000Y-120500000D03*
%TO.C,J16*%
X101490000Y-129350000D03*
M02*
