G04 DipTrace 2.4.0.2*
%INTopSilk.gbr*%
%MOIN*%
%ADD10C,0.0098*%
%ADD39C,0.0077*%
%FSLAX44Y44*%
G04*
G70*
G90*
G75*
G01*
%LNTopSilk*%
%LPD*%
X6940Y29192D2*
D10*
Y27693D1*
X6938Y29195D2*
G03X6938Y27690I-998J-752D01*
G01*
X14815Y29192D2*
Y27693D1*
X14813Y29195D2*
G03X14813Y27690I-998J-752D01*
G01*
X6940Y24586D2*
Y23087D1*
X6938Y24589D2*
G03X6938Y23084I-998J-752D01*
G01*
X14815Y24586D2*
Y23087D1*
X14813Y24589D2*
G03X14813Y23084I-998J-752D01*
G01*
X6940Y19980D2*
Y18481D1*
X6938Y19983D2*
G03X6938Y18478I-998J-752D01*
G01*
X14815Y19980D2*
Y18481D1*
X14813Y19983D2*
G03X14813Y18478I-998J-752D01*
G01*
X6940Y15373D2*
Y13874D1*
X6938Y15376D2*
G03X6938Y13871I-998J-752D01*
G01*
X14815Y15373D2*
Y13874D1*
X14813Y15376D2*
G03X14813Y13871I-998J-752D01*
G01*
X6940Y10767D2*
Y9268D1*
X6938Y10770D2*
G03X6938Y9265I-998J-752D01*
G01*
X14815Y10767D2*
Y9268D1*
X14813Y10770D2*
G03X14813Y9265I-998J-752D01*
G01*
X6940Y6161D2*
Y4662D1*
X6938Y6164D2*
G03X6938Y4659I-998J-752D01*
G01*
X14815Y6161D2*
Y4662D1*
X14813Y6164D2*
G03X14813Y4659I-998J-752D01*
G01*
X9053Y29432D2*
X8453D1*
X9053Y27829D2*
Y29432D1*
Y27829D2*
X8453D1*
Y29432D1*
X11178D2*
X10578D1*
X11178Y27829D2*
Y29432D1*
Y27829D2*
X10578D1*
Y29432D1*
X9053Y24182D2*
X8453D1*
X9053Y22579D2*
Y24182D1*
Y22579D2*
X8453D1*
Y24182D1*
X11178D2*
X10578D1*
X11178Y22579D2*
Y24182D1*
Y22579D2*
X10578D1*
Y24182D1*
X9053Y20244D2*
X8453D1*
X9053Y18641D2*
Y20244D1*
Y18641D2*
X8453D1*
Y20244D1*
X11303D2*
X10703D1*
X11303Y18641D2*
Y20244D1*
Y18641D2*
X10703D1*
Y20244D1*
X7367Y16830D2*
Y17430D1*
X5764Y16830D2*
X7367D1*
X5764D2*
Y17430D1*
X7367D1*
X10115Y20244D2*
X9515D1*
X10115Y18641D2*
Y20244D1*
Y18641D2*
X9515D1*
Y20244D1*
X7429Y12268D2*
Y12868D1*
X5826Y12268D2*
X7429D1*
X5826D2*
Y12868D1*
X7429D1*
X13992Y7830D2*
Y8430D1*
X12389Y7830D2*
X13992D1*
X12389D2*
Y8430D1*
X13992D1*
X5826Y8180D2*
Y7580D1*
X7429Y8180D2*
X5826D1*
X7429D2*
Y7580D1*
X5826D1*
X8951Y5118D2*
Y4518D1*
X10554Y5118D2*
X8951D1*
X10554D2*
Y4518D1*
X8951D1*
X14421Y12393D2*
Y12993D1*
X12818Y12393D2*
X14421D1*
X12818D2*
Y12993D1*
X14421D1*
Y16830D2*
Y17430D1*
X12818Y16830D2*
X14421D1*
X12818D2*
Y17430D1*
X14421D1*
Y21455D2*
Y22055D1*
X12818Y21455D2*
X14421D1*
X12818D2*
Y22055D1*
X14421D1*
Y26018D2*
Y26618D1*
X12818Y26018D2*
X14421D1*
X12818D2*
Y26618D1*
X14421D1*
X5403Y30425D2*
D39*
Y29922D1*
X5571D1*
X5642Y29947D1*
X5691Y29994D1*
X5714Y30042D1*
X5738Y30114D1*
Y30234D1*
X5714Y30305D1*
X5691Y30353D1*
X5642Y30401D1*
X5571Y30425D1*
X5403D1*
X6179Y30424D2*
X5941D1*
X5917Y30209D1*
X5941Y30233D1*
X6012Y30257D1*
X6084D1*
X6156Y30233D1*
X6204Y30185D1*
X6227Y30114D1*
Y30066D1*
X6204Y29994D1*
X6156Y29946D1*
X6084Y29922D1*
X6012D1*
X5941Y29946D1*
X5917Y29970D1*
X5892Y30018D1*
X13290Y30425D2*
Y29922D1*
X13457D1*
X13529Y29947D1*
X13577Y29994D1*
X13601Y30042D1*
X13625Y30114D1*
Y30234D1*
X13601Y30305D1*
X13577Y30353D1*
X13529Y30401D1*
X13457Y30425D1*
X13290D1*
X14066Y30353D2*
X14042Y30400D1*
X13970Y30424D1*
X13923D1*
X13851Y30400D1*
X13803Y30329D1*
X13779Y30209D1*
Y30090D1*
X13803Y29994D1*
X13851Y29946D1*
X13923Y29922D1*
X13947D1*
X14018Y29946D1*
X14066Y29994D1*
X14090Y30066D1*
Y30090D1*
X14066Y30162D1*
X14018Y30209D1*
X13947Y30233D1*
X13923D1*
X13851Y30209D1*
X13803Y30162D1*
X13779Y30090D1*
X5403Y25818D2*
Y25316D1*
X5571D1*
X5642Y25340D1*
X5691Y25388D1*
X5714Y25436D1*
X5738Y25507D1*
Y25627D1*
X5714Y25699D1*
X5691Y25747D1*
X5642Y25795D1*
X5571Y25818D1*
X5403D1*
X5988Y25316D2*
X6227Y25818D1*
X5892D1*
X13278D2*
Y25316D1*
X13445D1*
X13517Y25340D1*
X13565Y25388D1*
X13589Y25436D1*
X13613Y25507D1*
Y25627D1*
X13589Y25699D1*
X13565Y25747D1*
X13517Y25795D1*
X13445Y25818D1*
X13278D1*
X13887D2*
X13815Y25794D1*
X13791Y25747D1*
Y25699D1*
X13815Y25651D1*
X13863Y25627D1*
X13959Y25603D1*
X14030Y25579D1*
X14078Y25531D1*
X14102Y25484D1*
Y25412D1*
X14078Y25364D1*
X14054Y25340D1*
X13982Y25316D1*
X13887D1*
X13815Y25340D1*
X13791Y25364D1*
X13767Y25412D1*
Y25484D1*
X13791Y25531D1*
X13839Y25579D1*
X13910Y25603D1*
X14006Y25627D1*
X14054Y25651D1*
X14078Y25699D1*
Y25747D1*
X14054Y25794D1*
X13982Y25818D1*
X13887D1*
X5266Y21212D2*
Y20710D1*
X5433D1*
X5505Y20734D1*
X5553Y20782D1*
X5577Y20830D1*
X5601Y20901D1*
Y21021D1*
X5577Y21093D1*
X5553Y21140D1*
X5505Y21188D1*
X5433Y21212D1*
X5266D1*
X5755Y21116D2*
X5803Y21140D1*
X5875Y21212D1*
Y20710D1*
X6078Y21212D2*
X6340D1*
X6197Y21020D1*
X6269D1*
X6317Y20997D1*
X6340Y20973D1*
X6365Y20901D1*
Y20853D1*
X6340Y20782D1*
X6293Y20734D1*
X6221Y20710D1*
X6149D1*
X6078Y20734D1*
X6054Y20758D1*
X6030Y20805D1*
X13129Y21212D2*
Y20710D1*
X13296D1*
X13368Y20734D1*
X13416Y20782D1*
X13440Y20830D1*
X13464Y20901D1*
Y21021D1*
X13440Y21093D1*
X13416Y21140D1*
X13368Y21188D1*
X13296Y21212D1*
X13129D1*
X13618Y21116D2*
X13666Y21140D1*
X13738Y21212D1*
Y20710D1*
X14132D2*
Y21212D1*
X13892Y20877D1*
X14251D1*
X5266Y16606D2*
Y16103D1*
X5433D1*
X5505Y16128D1*
X5553Y16175D1*
X5577Y16223D1*
X5601Y16295D1*
Y16415D1*
X5577Y16486D1*
X5553Y16534D1*
X5505Y16582D1*
X5433Y16606D1*
X5266D1*
X5755Y16510D2*
X5803Y16534D1*
X5875Y16605D1*
Y16103D1*
X6317Y16605D2*
X6078D1*
X6054Y16390D1*
X6078Y16414D1*
X6150Y16438D1*
X6221D1*
X6293Y16414D1*
X6341Y16367D1*
X6365Y16295D1*
Y16247D1*
X6341Y16175D1*
X6293Y16127D1*
X6221Y16103D1*
X6150D1*
X6078Y16127D1*
X6054Y16152D1*
X6030Y16199D1*
X13153Y16606D2*
Y16103D1*
X13320D1*
X13392Y16128D1*
X13440Y16175D1*
X13464Y16223D1*
X13488Y16295D1*
Y16415D1*
X13464Y16486D1*
X13440Y16534D1*
X13392Y16582D1*
X13320Y16606D1*
X13153D1*
X13642Y16510D2*
X13690Y16534D1*
X13762Y16605D1*
Y16103D1*
X14203Y16534D2*
X14179Y16582D1*
X14108Y16605D1*
X14060D1*
X13988Y16582D1*
X13940Y16510D1*
X13916Y16390D1*
Y16271D1*
X13940Y16175D1*
X13988Y16127D1*
X14060Y16103D1*
X14084D1*
X14155Y16127D1*
X14203Y16175D1*
X14227Y16247D1*
Y16271D1*
X14203Y16343D1*
X14155Y16390D1*
X14084Y16414D1*
X14060D1*
X13988Y16390D1*
X13940Y16343D1*
X13916Y16271D1*
X5266Y12000D2*
Y11497D1*
X5433D1*
X5505Y11521D1*
X5553Y11569D1*
X5577Y11617D1*
X5601Y11688D1*
Y11808D1*
X5577Y11880D1*
X5553Y11928D1*
X5505Y11976D1*
X5433Y12000D1*
X5266D1*
X5780Y11880D2*
Y11903D1*
X5803Y11951D1*
X5827Y11975D1*
X5875Y11999D1*
X5971D1*
X6018Y11975D1*
X6042Y11951D1*
X6067Y11903D1*
Y11856D1*
X6042Y11808D1*
X5995Y11736D1*
X5755Y11497D1*
X6090D1*
X6245Y11903D2*
X6293Y11928D1*
X6365Y11999D1*
Y11497D1*
X13033Y12000D2*
Y11497D1*
X13200D1*
X13272Y11521D1*
X13320Y11569D1*
X13344Y11617D1*
X13368Y11688D1*
Y11808D1*
X13344Y11880D1*
X13320Y11928D1*
X13272Y11976D1*
X13200Y12000D1*
X13033D1*
X13547Y11880D2*
Y11903D1*
X13570Y11951D1*
X13594Y11975D1*
X13642Y11999D1*
X13738D1*
X13785Y11975D1*
X13809Y11951D1*
X13834Y11903D1*
Y11856D1*
X13809Y11808D1*
X13762Y11736D1*
X13522Y11497D1*
X13857D1*
X14036Y11880D2*
Y11903D1*
X14060Y11951D1*
X14084Y11975D1*
X14132Y11999D1*
X14227D1*
X14275Y11975D1*
X14299Y11951D1*
X14323Y11903D1*
Y11856D1*
X14299Y11808D1*
X14251Y11736D1*
X14012Y11497D1*
X14347D1*
X5159Y7393D2*
Y6891D1*
X5326D1*
X5398Y6915D1*
X5446Y6963D1*
X5470Y7011D1*
X5493Y7082D1*
Y7202D1*
X5470Y7274D1*
X5446Y7321D1*
X5398Y7369D1*
X5326Y7393D1*
X5159D1*
X5672Y7273D2*
Y7297D1*
X5696Y7345D1*
X5720Y7369D1*
X5768Y7393D1*
X5863D1*
X5911Y7369D1*
X5935Y7345D1*
X5959Y7297D1*
Y7250D1*
X5935Y7201D1*
X5887Y7130D1*
X5648Y6891D1*
X5983D1*
X6185Y7393D2*
X6448D1*
X6305Y7201D1*
X6376D1*
X6424Y7178D1*
X6448Y7154D1*
X6472Y7082D1*
Y7035D1*
X6448Y6963D1*
X6400Y6915D1*
X6328Y6891D1*
X6257D1*
X6185Y6915D1*
X6161Y6939D1*
X6137Y6986D1*
X13021Y7393D2*
Y6891D1*
X13189D1*
X13260Y6915D1*
X13309Y6963D1*
X13332Y7011D1*
X13356Y7082D1*
Y7202D1*
X13332Y7274D1*
X13309Y7321D1*
X13260Y7369D1*
X13189Y7393D1*
X13021D1*
X13535Y7273D2*
Y7297D1*
X13559Y7345D1*
X13582Y7369D1*
X13630Y7393D1*
X13726D1*
X13774Y7369D1*
X13797Y7345D1*
X13822Y7297D1*
Y7250D1*
X13797Y7201D1*
X13750Y7130D1*
X13510Y6891D1*
X13845D1*
X14239D2*
Y7393D1*
X14000Y7058D1*
X14358D1*
X7960Y28218D2*
Y28433D1*
X7936Y28505D1*
X7912Y28529D1*
X7864Y28553D1*
X7816D1*
X7769Y28529D1*
X7744Y28505D1*
X7721Y28433D1*
Y28218D1*
X8223D1*
X7960Y28386D2*
X8223Y28553D1*
X7721Y28994D2*
Y28756D1*
X7936Y28732D1*
X7912Y28756D1*
X7888Y28827D1*
Y28899D1*
X7912Y28971D1*
X7960Y29019D1*
X8032Y29042D1*
X8079D1*
X8151Y29019D1*
X8199Y28971D1*
X8223Y28899D1*
Y28827D1*
X8199Y28756D1*
X8175Y28732D1*
X8127Y28708D1*
X10085Y28230D2*
Y28445D1*
X10061Y28517D1*
X10037Y28542D1*
X9989Y28565D1*
X9941D1*
X9894Y28542D1*
X9869Y28517D1*
X9846Y28445D1*
Y28230D1*
X10348D1*
X10085Y28398D2*
X10348Y28565D1*
X9917Y29007D2*
X9870Y28983D1*
X9846Y28911D1*
Y28863D1*
X9870Y28792D1*
X9942Y28743D1*
X10061Y28720D1*
X10181D1*
X10276Y28743D1*
X10324Y28792D1*
X10348Y28863D1*
Y28887D1*
X10324Y28958D1*
X10276Y29007D1*
X10204Y29030D1*
X10181D1*
X10109Y29007D1*
X10061Y28958D1*
X10037Y28887D1*
Y28863D1*
X10061Y28792D1*
X10109Y28743D1*
X10181Y28720D1*
X7960Y22968D2*
Y23183D1*
X7936Y23255D1*
X7912Y23279D1*
X7864Y23303D1*
X7816D1*
X7769Y23279D1*
X7744Y23255D1*
X7721Y23183D1*
Y22968D1*
X8223D1*
X7960Y23136D2*
X8223Y23303D1*
Y23553D2*
X7721Y23792D1*
Y23457D1*
X10085Y22968D2*
Y23183D1*
X10061Y23255D1*
X10037Y23279D1*
X9989Y23303D1*
X9941D1*
X9894Y23279D1*
X9869Y23255D1*
X9846Y23183D1*
Y22968D1*
X10348D1*
X10085Y23136D2*
X10348Y23303D1*
X9846Y23577D2*
X9870Y23506D1*
X9917Y23481D1*
X9966D1*
X10013Y23506D1*
X10037Y23553D1*
X10061Y23649D1*
X10085Y23721D1*
X10133Y23768D1*
X10181Y23792D1*
X10252D1*
X10300Y23768D1*
X10324Y23744D1*
X10348Y23673D1*
Y23577D1*
X10324Y23506D1*
X10300Y23481D1*
X10252Y23458D1*
X10181D1*
X10133Y23481D1*
X10085Y23529D1*
X10061Y23601D1*
X10037Y23696D1*
X10013Y23744D1*
X9966Y23768D1*
X9917D1*
X9870Y23744D1*
X9846Y23673D1*
Y23577D1*
X7960Y18894D2*
Y19109D1*
X7936Y19180D1*
X7912Y19205D1*
X7864Y19228D1*
X7816D1*
X7769Y19205D1*
X7744Y19180D1*
X7721Y19109D1*
Y18894D1*
X8223D1*
X7960Y19061D2*
X8223Y19228D1*
X7817Y19383D2*
X7792Y19431D1*
X7721Y19503D1*
X8223D1*
X7721Y19705D2*
Y19968D1*
X7912Y19825D1*
Y19896D1*
X7936Y19944D1*
X7960Y19968D1*
X8032Y19992D1*
X8079D1*
X8151Y19968D1*
X8199Y19920D1*
X8223Y19848D1*
Y19777D1*
X8199Y19705D1*
X8175Y19681D1*
X8127Y19657D1*
X10210Y18882D2*
Y19097D1*
X10186Y19168D1*
X10162Y19193D1*
X10114Y19216D1*
X10066D1*
X10019Y19193D1*
X9994Y19168D1*
X9971Y19097D1*
Y18882D1*
X10473D1*
X10210Y19049D2*
X10473Y19216D1*
X10067Y19371D2*
X10042Y19419D1*
X9971Y19491D1*
X10473D1*
Y19884D2*
X9971D1*
X10306Y19645D1*
Y20004D1*
X6016Y17923D2*
X6231D1*
X6303Y17948D1*
X6327Y17971D1*
X6351Y18019D1*
Y18067D1*
X6327Y18114D1*
X6303Y18139D1*
X6231Y18163D1*
X6016D1*
Y17660D1*
X6184Y17923D2*
X6351Y17660D1*
X6505Y18066D2*
X6553Y18091D1*
X6625Y18162D1*
Y17660D1*
X7067Y18162D2*
X6828D1*
X6804Y17947D1*
X6828Y17971D1*
X6900Y17995D1*
X6971D1*
X7043Y17971D1*
X7091Y17923D1*
X7115Y17851D1*
Y17804D1*
X7091Y17732D1*
X7043Y17684D1*
X6971Y17660D1*
X6900D1*
X6828Y17684D1*
X6804Y17708D1*
X6780Y17756D1*
X9022Y18906D2*
Y19121D1*
X8998Y19193D1*
X8974Y19217D1*
X8927Y19241D1*
X8879D1*
X8831Y19217D1*
X8807Y19193D1*
X8783Y19121D1*
Y18906D1*
X9286D1*
X9022Y19073D2*
X9286Y19241D1*
X8879Y19395D2*
X8855Y19443D1*
X8784Y19515D1*
X9286D1*
X8855Y19956D2*
X8807Y19932D1*
X8784Y19861D1*
Y19813D1*
X8807Y19741D1*
X8879Y19693D1*
X8999Y19669D1*
X9118D1*
X9214Y19693D1*
X9262Y19741D1*
X9286Y19813D1*
Y19837D1*
X9262Y19908D1*
X9214Y19956D1*
X9142Y19980D1*
X9118D1*
X9046Y19956D1*
X8999Y19908D1*
X8975Y19837D1*
Y19813D1*
X8999Y19741D1*
X9046Y19693D1*
X9118Y19669D1*
X6079Y13361D2*
X6294D1*
X6365Y13385D1*
X6390Y13409D1*
X6414Y13456D1*
Y13504D1*
X6390Y13552D1*
X6365Y13576D1*
X6294Y13600D1*
X6079D1*
Y13098D1*
X6246Y13361D2*
X6414Y13098D1*
X6592Y13480D2*
Y13504D1*
X6616Y13552D1*
X6640Y13576D1*
X6688Y13599D1*
X6783D1*
X6831Y13576D1*
X6855Y13552D1*
X6879Y13504D1*
Y13456D1*
X6855Y13408D1*
X6807Y13337D1*
X6568Y13098D1*
X6903D1*
X7057Y13504D2*
X7105Y13528D1*
X7177Y13599D1*
Y13098D1*
X12534Y8923D2*
X12749D1*
X12820Y8948D1*
X12845Y8971D1*
X12869Y9019D1*
Y9067D1*
X12845Y9114D1*
X12820Y9139D1*
X12749Y9163D1*
X12534D1*
Y8660D1*
X12701Y8923D2*
X12869Y8660D1*
X13047Y9043D2*
Y9066D1*
X13071Y9114D1*
X13095Y9138D1*
X13143Y9162D1*
X13238D1*
X13286Y9138D1*
X13310Y9114D1*
X13334Y9066D1*
Y9019D1*
X13310Y8971D1*
X13262Y8899D1*
X13023Y8660D1*
X13358D1*
X13537Y9043D2*
Y9066D1*
X13560Y9114D1*
X13584Y9138D1*
X13632Y9162D1*
X13728D1*
X13775Y9138D1*
X13799Y9114D1*
X13823Y9066D1*
Y9019D1*
X13799Y8971D1*
X13752Y8899D1*
X13512Y8660D1*
X13847D1*
X5971Y8673D2*
X6186D1*
X6258Y8698D1*
X6282Y8721D1*
X6306Y8769D1*
Y8817D1*
X6282Y8864D1*
X6258Y8889D1*
X6186Y8913D1*
X5971D1*
Y8410D1*
X6139Y8673D2*
X6306Y8410D1*
X6485Y8793D2*
Y8816D1*
X6508Y8864D1*
X6532Y8888D1*
X6580Y8912D1*
X6676D1*
X6723Y8888D1*
X6747Y8864D1*
X6772Y8816D1*
Y8769D1*
X6747Y8721D1*
X6700Y8649D1*
X6460Y8410D1*
X6795D1*
X6998Y8912D2*
X7260D1*
X7117Y8721D1*
X7189D1*
X7237Y8697D1*
X7260Y8673D1*
X7285Y8601D1*
Y8554D1*
X7260Y8482D1*
X7213Y8434D1*
X7141Y8410D1*
X7069D1*
X6998Y8434D1*
X6974Y8458D1*
X6950Y8506D1*
X9084Y5611D2*
X9299D1*
X9371Y5635D1*
X9395Y5659D1*
X9419Y5706D1*
Y5754D1*
X9395Y5802D1*
X9371Y5826D1*
X9299Y5850D1*
X9084D1*
Y5347D1*
X9252Y5611D2*
X9419Y5347D1*
X9598Y5730D2*
Y5754D1*
X9622Y5802D1*
X9645Y5826D1*
X9693Y5849D1*
X9789D1*
X9837Y5826D1*
X9860Y5802D1*
X9885Y5754D1*
Y5706D1*
X9860Y5658D1*
X9813Y5587D1*
X9573Y5347D1*
X9908D1*
X10302D2*
Y5849D1*
X10063Y5515D1*
X10421D1*
X12974Y13486D2*
X13189D1*
X13261Y13510D1*
X13286Y13534D1*
X13309Y13581D1*
Y13629D1*
X13286Y13677D1*
X13261Y13701D1*
X13189Y13725D1*
X12974D1*
Y13223D1*
X13142Y13486D2*
X13309Y13223D1*
X13488Y13605D2*
Y13629D1*
X13512Y13677D1*
X13536Y13701D1*
X13584Y13724D1*
X13679D1*
X13727Y13701D1*
X13751Y13677D1*
X13775Y13629D1*
Y13581D1*
X13751Y13533D1*
X13703Y13462D1*
X13464Y13223D1*
X13799D1*
X14264Y13557D2*
X14240Y13486D1*
X14192Y13438D1*
X14121Y13414D1*
X14097D1*
X14025Y13438D1*
X13977Y13486D1*
X13953Y13557D1*
Y13581D1*
X13977Y13653D1*
X14025Y13701D1*
X14097Y13724D1*
X14121D1*
X14192Y13701D1*
X14240Y13653D1*
X14264Y13557D1*
Y13438D1*
X14240Y13318D1*
X14192Y13246D1*
X14121Y13223D1*
X14073D1*
X14001Y13246D1*
X13977Y13294D1*
X12963Y17923D2*
X13178D1*
X13249Y17947D1*
X13274Y17971D1*
X13297Y18019D1*
Y18067D1*
X13274Y18114D1*
X13249Y18139D1*
X13178Y18162D1*
X12963D1*
Y17660D1*
X13130Y17923D2*
X13297Y17660D1*
X13500Y18162D2*
X13762D1*
X13619Y17971D1*
X13691D1*
X13739Y17947D1*
X13762Y17923D1*
X13787Y17851D1*
Y17804D1*
X13762Y17732D1*
X13715Y17684D1*
X13643Y17660D1*
X13571D1*
X13500Y17684D1*
X13476Y17708D1*
X13452Y17756D1*
X14085Y18162D2*
X14013Y18138D1*
X13965Y18066D1*
X13941Y17947D1*
Y17875D1*
X13965Y17756D1*
X14013Y17684D1*
X14085Y17660D1*
X14132D1*
X14204Y17684D1*
X14252Y17756D1*
X14276Y17875D1*
Y17947D1*
X14252Y18066D1*
X14204Y18138D1*
X14132Y18162D1*
X14085D1*
X14252Y18066D2*
X13965Y17756D1*
X13070Y22548D2*
X13285D1*
X13357Y22573D1*
X13381Y22596D1*
X13405Y22644D1*
Y22692D1*
X13381Y22739D1*
X13357Y22764D1*
X13285Y22788D1*
X13070D1*
Y22285D1*
X13238Y22548D2*
X13405Y22285D1*
X13607Y22787D2*
X13870D1*
X13727Y22596D1*
X13799D1*
X13846Y22572D1*
X13870Y22548D1*
X13894Y22476D1*
Y22429D1*
X13870Y22357D1*
X13822Y22309D1*
X13751Y22285D1*
X13679D1*
X13607Y22309D1*
X13584Y22333D1*
X13559Y22381D1*
X14049Y22691D2*
X14097Y22716D1*
X14169Y22787D1*
Y22285D1*
X12963Y27111D2*
X13178D1*
X13249Y27135D1*
X13274Y27159D1*
X13297Y27206D1*
Y27254D1*
X13274Y27302D1*
X13249Y27326D1*
X13178Y27350D1*
X12963D1*
Y26848D1*
X13130Y27111D2*
X13297Y26848D1*
X13500Y27349D2*
X13762D1*
X13619Y27158D1*
X13691D1*
X13739Y27134D1*
X13762Y27111D1*
X13787Y27039D1*
Y26991D1*
X13762Y26919D1*
X13715Y26871D1*
X13643Y26848D1*
X13571D1*
X13500Y26871D1*
X13476Y26896D1*
X13452Y26943D1*
X13966Y27230D2*
Y27254D1*
X13989Y27302D1*
X14013Y27326D1*
X14061Y27349D1*
X14157D1*
X14204Y27326D1*
X14228Y27302D1*
X14252Y27254D1*
Y27206D1*
X14228Y27158D1*
X14181Y27087D1*
X13941Y26848D1*
X14276D1*
X20891Y29192D2*
D10*
Y27693D1*
X20889Y29195D2*
G03X20889Y27690I-998J-752D01*
G01*
X28766Y29192D2*
Y27693D1*
X28764Y29195D2*
G03X28764Y27690I-998J-752D01*
G01*
X20891Y24586D2*
Y23087D1*
X20889Y24589D2*
G03X20889Y23084I-998J-752D01*
G01*
X28766Y24586D2*
Y23087D1*
X28764Y24589D2*
G03X28764Y23084I-998J-752D01*
G01*
X20891Y19980D2*
Y18481D1*
X20889Y19983D2*
G03X20889Y18478I-998J-752D01*
G01*
X28766Y19980D2*
Y18481D1*
X28764Y19983D2*
G03X28764Y18478I-998J-752D01*
G01*
X20891Y15373D2*
Y13874D1*
X20889Y15376D2*
G03X20889Y13871I-998J-752D01*
G01*
X28766Y15373D2*
Y13874D1*
X28764Y15376D2*
G03X28764Y13871I-998J-752D01*
G01*
X20891Y10767D2*
Y9268D1*
X20889Y10770D2*
G03X20889Y9265I-998J-752D01*
G01*
X28766Y10767D2*
Y9268D1*
X28764Y10770D2*
G03X28764Y9265I-998J-752D01*
G01*
X20891Y6161D2*
Y4662D1*
X20889Y6164D2*
G03X20889Y4659I-998J-752D01*
G01*
X28766Y6161D2*
Y4662D1*
X28764Y6164D2*
G03X28764Y4659I-998J-752D01*
G01*
X23004Y29432D2*
X22404D1*
X23004Y27829D2*
Y29432D1*
Y27829D2*
X22404D1*
Y29432D1*
X25129D2*
X24529D1*
X25129Y27829D2*
Y29432D1*
Y27829D2*
X24529D1*
Y29432D1*
X23004Y24182D2*
X22404D1*
X23004Y22579D2*
Y24182D1*
Y22579D2*
X22404D1*
Y24182D1*
X25129D2*
X24529D1*
X25129Y22579D2*
Y24182D1*
Y22579D2*
X24529D1*
Y24182D1*
X23004Y20244D2*
X22404D1*
X23004Y18641D2*
Y20244D1*
Y18641D2*
X22404D1*
Y20244D1*
X25254D2*
X24654D1*
X25254Y18641D2*
Y20244D1*
Y18641D2*
X24654D1*
Y20244D1*
X21318Y16830D2*
Y17430D1*
X19715Y16830D2*
X21318D1*
X19715D2*
Y17430D1*
X21318D1*
X24066Y20244D2*
X23466D1*
X24066Y18641D2*
Y20244D1*
Y18641D2*
X23466D1*
Y20244D1*
X21380Y12268D2*
Y12868D1*
X19777Y12268D2*
X21380D1*
X19777D2*
Y12868D1*
X21380D1*
X27943Y7830D2*
Y8430D1*
X26340Y7830D2*
X27943D1*
X26340D2*
Y8430D1*
X27943D1*
X19777Y8180D2*
Y7580D1*
X21380Y8180D2*
X19777D1*
X21380D2*
Y7580D1*
X19777D1*
X22902Y5118D2*
Y4518D1*
X24505Y5118D2*
X22902D1*
X24505D2*
Y4518D1*
X22902D1*
X28372Y12393D2*
Y12993D1*
X26769Y12393D2*
X28372D1*
X26769D2*
Y12993D1*
X28372D1*
Y16830D2*
Y17430D1*
X26769Y16830D2*
X28372D1*
X26769D2*
Y17430D1*
X28372D1*
Y21455D2*
Y22055D1*
X26769Y21455D2*
X28372D1*
X26769D2*
Y22055D1*
X28372D1*
Y26018D2*
Y26618D1*
X26769Y26018D2*
X28372D1*
X26769D2*
Y26618D1*
X28372D1*
X19354Y30425D2*
D39*
Y29922D1*
X19522D1*
X19594Y29947D1*
X19642Y29994D1*
X19665Y30042D1*
X19689Y30114D1*
Y30234D1*
X19665Y30305D1*
X19642Y30353D1*
X19594Y30401D1*
X19522Y30425D1*
X19354D1*
X20130Y30424D2*
X19892D1*
X19868Y30209D1*
X19892Y30233D1*
X19964Y30257D1*
X20035D1*
X20107Y30233D1*
X20155Y30185D1*
X20179Y30114D1*
Y30066D1*
X20155Y29994D1*
X20107Y29946D1*
X20035Y29922D1*
X19964D1*
X19892Y29946D1*
X19868Y29970D1*
X19844Y30018D1*
X27241Y30425D2*
Y29922D1*
X27408D1*
X27480Y29947D1*
X27528Y29994D1*
X27552Y30042D1*
X27576Y30114D1*
Y30234D1*
X27552Y30305D1*
X27528Y30353D1*
X27480Y30401D1*
X27408Y30425D1*
X27241D1*
X28017Y30353D2*
X27993Y30400D1*
X27921Y30424D1*
X27874D1*
X27802Y30400D1*
X27754Y30329D1*
X27730Y30209D1*
Y30090D1*
X27754Y29994D1*
X27802Y29946D1*
X27874Y29922D1*
X27898D1*
X27969Y29946D1*
X28017Y29994D1*
X28041Y30066D1*
Y30090D1*
X28017Y30162D1*
X27969Y30209D1*
X27898Y30233D1*
X27874D1*
X27802Y30209D1*
X27754Y30162D1*
X27730Y30090D1*
X19354Y25818D2*
Y25316D1*
X19522D1*
X19594Y25340D1*
X19642Y25388D1*
X19665Y25436D1*
X19689Y25507D1*
Y25627D1*
X19665Y25699D1*
X19642Y25747D1*
X19594Y25795D1*
X19522Y25818D1*
X19354D1*
X19939Y25316D2*
X20179Y25818D1*
X19844D1*
X27229D2*
Y25316D1*
X27397D1*
X27468Y25340D1*
X27516Y25388D1*
X27540Y25436D1*
X27564Y25507D1*
Y25627D1*
X27540Y25699D1*
X27516Y25747D1*
X27468Y25795D1*
X27397Y25818D1*
X27229D1*
X27838D2*
X27766Y25794D1*
X27742Y25747D1*
Y25699D1*
X27766Y25651D1*
X27814Y25627D1*
X27910Y25603D1*
X27981Y25579D1*
X28029Y25531D1*
X28053Y25484D1*
Y25412D1*
X28029Y25364D1*
X28005Y25340D1*
X27933Y25316D1*
X27838D1*
X27766Y25340D1*
X27742Y25364D1*
X27718Y25412D1*
Y25484D1*
X27742Y25531D1*
X27790Y25579D1*
X27862Y25603D1*
X27957Y25627D1*
X28005Y25651D1*
X28029Y25699D1*
Y25747D1*
X28005Y25794D1*
X27933Y25818D1*
X27838D1*
X19217Y21212D2*
Y20710D1*
X19385D1*
X19456Y20734D1*
X19505Y20782D1*
X19528Y20830D1*
X19552Y20901D1*
Y21021D1*
X19528Y21093D1*
X19505Y21140D1*
X19456Y21188D1*
X19385Y21212D1*
X19217D1*
X19706Y21116D2*
X19755Y21140D1*
X19826Y21212D1*
Y20710D1*
X20029Y21212D2*
X20291D1*
X20148Y21020D1*
X20220D1*
X20268Y20997D1*
X20291Y20973D1*
X20316Y20901D1*
Y20853D1*
X20291Y20782D1*
X20244Y20734D1*
X20172Y20710D1*
X20100D1*
X20029Y20734D1*
X20005Y20758D1*
X19981Y20805D1*
X27080Y21212D2*
Y20710D1*
X27247D1*
X27319Y20734D1*
X27367Y20782D1*
X27391Y20830D1*
X27415Y20901D1*
Y21021D1*
X27391Y21093D1*
X27367Y21140D1*
X27319Y21188D1*
X27247Y21212D1*
X27080D1*
X27569Y21116D2*
X27617Y21140D1*
X27689Y21212D1*
Y20710D1*
X28083D2*
Y21212D1*
X27843Y20877D1*
X28202D1*
X19217Y16606D2*
Y16103D1*
X19385D1*
X19456Y16128D1*
X19505Y16175D1*
X19528Y16223D1*
X19552Y16295D1*
Y16415D1*
X19528Y16486D1*
X19505Y16534D1*
X19456Y16582D1*
X19385Y16606D1*
X19217D1*
X19706Y16510D2*
X19755Y16534D1*
X19826Y16605D1*
Y16103D1*
X20268Y16605D2*
X20029D1*
X20005Y16390D1*
X20029Y16414D1*
X20101Y16438D1*
X20172D1*
X20244Y16414D1*
X20292Y16367D1*
X20316Y16295D1*
Y16247D1*
X20292Y16175D1*
X20244Y16127D1*
X20172Y16103D1*
X20101D1*
X20029Y16127D1*
X20005Y16152D1*
X19981Y16199D1*
X27104Y16606D2*
Y16103D1*
X27271D1*
X27343Y16128D1*
X27391Y16175D1*
X27415Y16223D1*
X27439Y16295D1*
Y16415D1*
X27415Y16486D1*
X27391Y16534D1*
X27343Y16582D1*
X27271Y16606D1*
X27104D1*
X27593Y16510D2*
X27641Y16534D1*
X27713Y16605D1*
Y16103D1*
X28154Y16534D2*
X28131Y16582D1*
X28059Y16605D1*
X28011D1*
X27939Y16582D1*
X27891Y16510D1*
X27867Y16390D1*
Y16271D1*
X27891Y16175D1*
X27939Y16127D1*
X28011Y16103D1*
X28035D1*
X28106Y16127D1*
X28154Y16175D1*
X28178Y16247D1*
Y16271D1*
X28154Y16343D1*
X28106Y16390D1*
X28035Y16414D1*
X28011D1*
X27939Y16390D1*
X27891Y16343D1*
X27867Y16271D1*
X19217Y12000D2*
Y11497D1*
X19385D1*
X19456Y11521D1*
X19505Y11569D1*
X19528Y11617D1*
X19552Y11688D1*
Y11808D1*
X19528Y11880D1*
X19505Y11928D1*
X19456Y11976D1*
X19385Y12000D1*
X19217D1*
X19731Y11880D2*
Y11903D1*
X19755Y11951D1*
X19778Y11975D1*
X19826Y11999D1*
X19922D1*
X19970Y11975D1*
X19993Y11951D1*
X20018Y11903D1*
Y11856D1*
X19993Y11808D1*
X19946Y11736D1*
X19706Y11497D1*
X20041D1*
X20196Y11903D2*
X20244Y11928D1*
X20316Y11999D1*
Y11497D1*
X26984Y12000D2*
Y11497D1*
X27152D1*
X27223Y11521D1*
X27272Y11569D1*
X27295Y11617D1*
X27319Y11688D1*
Y11808D1*
X27295Y11880D1*
X27272Y11928D1*
X27223Y11976D1*
X27152Y12000D1*
X26984D1*
X27498Y11880D2*
Y11903D1*
X27522Y11951D1*
X27545Y11975D1*
X27593Y11999D1*
X27689D1*
X27737Y11975D1*
X27760Y11951D1*
X27785Y11903D1*
Y11856D1*
X27760Y11808D1*
X27713Y11736D1*
X27473Y11497D1*
X27808D1*
X27987Y11880D2*
Y11903D1*
X28011Y11951D1*
X28035Y11975D1*
X28083Y11999D1*
X28178D1*
X28226Y11975D1*
X28250Y11951D1*
X28274Y11903D1*
Y11856D1*
X28250Y11808D1*
X28202Y11736D1*
X27963Y11497D1*
X28298D1*
X19110Y7393D2*
Y6891D1*
X19277D1*
X19349Y6915D1*
X19397Y6963D1*
X19421Y7011D1*
X19445Y7082D1*
Y7202D1*
X19421Y7274D1*
X19397Y7321D1*
X19349Y7369D1*
X19277Y7393D1*
X19110D1*
X19623Y7273D2*
Y7297D1*
X19647Y7345D1*
X19671Y7369D1*
X19719Y7393D1*
X19814D1*
X19862Y7369D1*
X19886Y7345D1*
X19910Y7297D1*
Y7250D1*
X19886Y7201D1*
X19838Y7130D1*
X19599Y6891D1*
X19934D1*
X20136Y7393D2*
X20399D1*
X20256Y7201D1*
X20328D1*
X20375Y7178D1*
X20399Y7154D1*
X20423Y7082D1*
Y7035D1*
X20399Y6963D1*
X20351Y6915D1*
X20279Y6891D1*
X20208D1*
X20136Y6915D1*
X20113Y6939D1*
X20088Y6986D1*
X26972Y7393D2*
Y6891D1*
X27140D1*
X27212Y6915D1*
X27260Y6963D1*
X27283Y7011D1*
X27307Y7082D1*
Y7202D1*
X27283Y7274D1*
X27260Y7321D1*
X27212Y7369D1*
X27140Y7393D1*
X26972D1*
X27486Y7273D2*
Y7297D1*
X27510Y7345D1*
X27533Y7369D1*
X27581Y7393D1*
X27677D1*
X27725Y7369D1*
X27748Y7345D1*
X27773Y7297D1*
Y7250D1*
X27748Y7201D1*
X27701Y7130D1*
X27462Y6891D1*
X27796D1*
X28190D2*
Y7393D1*
X27951Y7058D1*
X28310D1*
X21911Y28218D2*
Y28433D1*
X21887Y28505D1*
X21863Y28529D1*
X21815Y28553D1*
X21767D1*
X21720Y28529D1*
X21695Y28505D1*
X21672Y28433D1*
Y28218D1*
X22174D1*
X21911Y28386D2*
X22174Y28553D1*
X21672Y28994D2*
Y28756D1*
X21887Y28732D1*
X21864Y28756D1*
X21839Y28827D1*
Y28899D1*
X21864Y28971D1*
X21911Y29019D1*
X21983Y29042D1*
X22030D1*
X22102Y29019D1*
X22150Y28971D1*
X22174Y28899D1*
Y28827D1*
X22150Y28756D1*
X22126Y28732D1*
X22079Y28708D1*
X24036Y28230D2*
Y28445D1*
X24012Y28517D1*
X23988Y28542D1*
X23940Y28565D1*
X23892D1*
X23845Y28542D1*
X23820Y28517D1*
X23797Y28445D1*
Y28230D1*
X24299D1*
X24036Y28398D2*
X24299Y28565D1*
X23869Y29007D2*
X23821Y28983D1*
X23797Y28911D1*
Y28863D1*
X23821Y28792D1*
X23893Y28743D1*
X24012Y28720D1*
X24132D1*
X24227Y28743D1*
X24275Y28792D1*
X24299Y28863D1*
Y28887D1*
X24275Y28958D1*
X24227Y29007D1*
X24155Y29030D1*
X24132D1*
X24060Y29007D1*
X24012Y28958D1*
X23989Y28887D1*
Y28863D1*
X24012Y28792D1*
X24060Y28743D1*
X24132Y28720D1*
X21911Y22968D2*
Y23183D1*
X21887Y23255D1*
X21863Y23279D1*
X21815Y23303D1*
X21767D1*
X21720Y23279D1*
X21695Y23255D1*
X21672Y23183D1*
Y22968D1*
X22174D1*
X21911Y23136D2*
X22174Y23303D1*
Y23553D2*
X21672Y23792D1*
Y23457D1*
X24036Y22968D2*
Y23183D1*
X24012Y23255D1*
X23988Y23279D1*
X23940Y23303D1*
X23892D1*
X23845Y23279D1*
X23820Y23255D1*
X23797Y23183D1*
Y22968D1*
X24299D1*
X24036Y23136D2*
X24299Y23303D1*
X23797Y23577D2*
X23821Y23506D1*
X23869Y23481D1*
X23917D1*
X23964Y23506D1*
X23989Y23553D1*
X24012Y23649D1*
X24036Y23721D1*
X24084Y23768D1*
X24132Y23792D1*
X24204D1*
X24251Y23768D1*
X24275Y23744D1*
X24299Y23673D1*
Y23577D1*
X24275Y23506D1*
X24251Y23481D1*
X24204Y23458D1*
X24132D1*
X24084Y23481D1*
X24036Y23529D1*
X24012Y23601D1*
X23989Y23696D1*
X23964Y23744D1*
X23917Y23768D1*
X23869D1*
X23821Y23744D1*
X23797Y23673D1*
Y23577D1*
X21911Y18894D2*
Y19109D1*
X21887Y19180D1*
X21863Y19205D1*
X21815Y19228D1*
X21767D1*
X21720Y19205D1*
X21695Y19180D1*
X21672Y19109D1*
Y18894D1*
X22174D1*
X21911Y19061D2*
X22174Y19228D1*
X21768Y19383D2*
X21744Y19431D1*
X21672Y19503D1*
X22174D1*
X21672Y19705D2*
Y19968D1*
X21864Y19825D1*
Y19896D1*
X21887Y19944D1*
X21911Y19968D1*
X21983Y19992D1*
X22030D1*
X22102Y19968D1*
X22150Y19920D1*
X22174Y19848D1*
Y19777D1*
X22150Y19705D1*
X22126Y19681D1*
X22079Y19657D1*
X24161Y18882D2*
Y19097D1*
X24137Y19168D1*
X24113Y19193D1*
X24065Y19216D1*
X24017D1*
X23970Y19193D1*
X23946Y19168D1*
X23922Y19097D1*
Y18882D1*
X24424D1*
X24161Y19049D2*
X24424Y19216D1*
X24018Y19371D2*
X23994Y19419D1*
X23922Y19491D1*
X24424D1*
Y19884D2*
X23922D1*
X24257Y19645D1*
Y20004D1*
X19967Y17923D2*
X20182D1*
X20254Y17948D1*
X20278Y17971D1*
X20302Y18019D1*
Y18067D1*
X20278Y18114D1*
X20254Y18139D1*
X20182Y18163D1*
X19967D1*
Y17660D1*
X20135Y17923D2*
X20302Y17660D1*
X20457Y18066D2*
X20505Y18091D1*
X20576Y18162D1*
Y17660D1*
X21018Y18162D2*
X20779D1*
X20755Y17947D1*
X20779Y17971D1*
X20851Y17995D1*
X20922D1*
X20994Y17971D1*
X21042Y17923D1*
X21066Y17851D1*
Y17804D1*
X21042Y17732D1*
X20994Y17684D1*
X20922Y17660D1*
X20851D1*
X20779Y17684D1*
X20755Y17708D1*
X20731Y17756D1*
X22974Y18906D2*
Y19121D1*
X22949Y19193D1*
X22925Y19217D1*
X22878Y19241D1*
X22830D1*
X22782Y19217D1*
X22758Y19193D1*
X22734Y19121D1*
Y18906D1*
X23237D1*
X22974Y19073D2*
X23237Y19241D1*
X22830Y19395D2*
X22806Y19443D1*
X22735Y19515D1*
X23237D1*
X22806Y19956D2*
X22759Y19932D1*
X22735Y19861D1*
Y19813D1*
X22759Y19741D1*
X22830Y19693D1*
X22950Y19669D1*
X23069D1*
X23165Y19693D1*
X23213Y19741D1*
X23237Y19813D1*
Y19837D1*
X23213Y19908D1*
X23165Y19956D1*
X23093Y19980D1*
X23069D1*
X22997Y19956D1*
X22950Y19908D1*
X22926Y19837D1*
Y19813D1*
X22950Y19741D1*
X22997Y19693D1*
X23069Y19669D1*
X20030Y13361D2*
X20245D1*
X20317Y13385D1*
X20341Y13409D1*
X20365Y13456D1*
Y13504D1*
X20341Y13552D1*
X20317Y13576D1*
X20245Y13600D1*
X20030D1*
Y13098D1*
X20197Y13361D2*
X20365Y13098D1*
X20543Y13480D2*
Y13504D1*
X20567Y13552D1*
X20591Y13576D1*
X20639Y13599D1*
X20735D1*
X20782Y13576D1*
X20806Y13552D1*
X20830Y13504D1*
Y13456D1*
X20806Y13408D1*
X20758Y13337D1*
X20519Y13098D1*
X20854D1*
X21008Y13504D2*
X21056Y13528D1*
X21128Y13599D1*
Y13098D1*
X26485Y8923D2*
X26700D1*
X26772Y8948D1*
X26796Y8971D1*
X26820Y9019D1*
Y9067D1*
X26796Y9114D1*
X26772Y9139D1*
X26700Y9163D1*
X26485D1*
Y8660D1*
X26652Y8923D2*
X26820Y8660D1*
X26998Y9043D2*
Y9066D1*
X27022Y9114D1*
X27046Y9138D1*
X27094Y9162D1*
X27190D1*
X27237Y9138D1*
X27261Y9114D1*
X27285Y9066D1*
Y9019D1*
X27261Y8971D1*
X27213Y8899D1*
X26974Y8660D1*
X27309D1*
X27488Y9043D2*
Y9066D1*
X27511Y9114D1*
X27535Y9138D1*
X27583Y9162D1*
X27679D1*
X27726Y9138D1*
X27750Y9114D1*
X27774Y9066D1*
Y9019D1*
X27750Y8971D1*
X27703Y8899D1*
X27463Y8660D1*
X27798D1*
X19922Y8673D2*
X20137D1*
X20209Y8698D1*
X20233Y8721D1*
X20257Y8769D1*
Y8817D1*
X20233Y8864D1*
X20209Y8889D1*
X20137Y8913D1*
X19922D1*
Y8410D1*
X20090Y8673D2*
X20257Y8410D1*
X20436Y8793D2*
Y8816D1*
X20460Y8864D1*
X20483Y8888D1*
X20531Y8912D1*
X20627D1*
X20675Y8888D1*
X20698Y8864D1*
X20723Y8816D1*
Y8769D1*
X20698Y8721D1*
X20651Y8649D1*
X20412Y8410D1*
X20746D1*
X20949Y8912D2*
X21211D1*
X21068Y8721D1*
X21140D1*
X21188Y8697D1*
X21211Y8673D1*
X21236Y8601D1*
Y8554D1*
X21211Y8482D1*
X21164Y8434D1*
X21092Y8410D1*
X21020D1*
X20949Y8434D1*
X20925Y8458D1*
X20901Y8506D1*
X23035Y5611D2*
X23250D1*
X23322Y5635D1*
X23346Y5659D1*
X23370Y5706D1*
Y5754D1*
X23346Y5802D1*
X23322Y5826D1*
X23250Y5850D1*
X23035D1*
Y5347D1*
X23203Y5611D2*
X23370Y5347D1*
X23549Y5730D2*
Y5754D1*
X23573Y5802D1*
X23596Y5826D1*
X23644Y5849D1*
X23740D1*
X23788Y5826D1*
X23811Y5802D1*
X23836Y5754D1*
Y5706D1*
X23811Y5658D1*
X23764Y5587D1*
X23525Y5347D1*
X23859D1*
X24253D2*
Y5849D1*
X24014Y5515D1*
X24373D1*
X26926Y13486D2*
X27141D1*
X27212Y13510D1*
X27237Y13534D1*
X27260Y13581D1*
Y13629D1*
X27237Y13677D1*
X27212Y13701D1*
X27141Y13725D1*
X26926D1*
Y13223D1*
X27093Y13486D2*
X27260Y13223D1*
X27439Y13605D2*
Y13629D1*
X27463Y13677D1*
X27487Y13701D1*
X27535Y13724D1*
X27630D1*
X27678Y13701D1*
X27702Y13677D1*
X27726Y13629D1*
Y13581D1*
X27702Y13533D1*
X27654Y13462D1*
X27415Y13223D1*
X27750D1*
X28215Y13557D2*
X28191Y13486D1*
X28144Y13438D1*
X28072Y13414D1*
X28048D1*
X27976Y13438D1*
X27929Y13486D1*
X27904Y13557D1*
Y13581D1*
X27929Y13653D1*
X27976Y13701D1*
X28048Y13724D1*
X28072D1*
X28144Y13701D1*
X28191Y13653D1*
X28215Y13557D1*
Y13438D1*
X28191Y13318D1*
X28144Y13246D1*
X28072Y13223D1*
X28024D1*
X27952Y13246D1*
X27929Y13294D1*
X26914Y17923D2*
X27129D1*
X27201Y17947D1*
X27225Y17971D1*
X27249Y18019D1*
Y18067D1*
X27225Y18114D1*
X27201Y18139D1*
X27129Y18162D1*
X26914D1*
Y17660D1*
X27081Y17923D2*
X27249Y17660D1*
X27451Y18162D2*
X27714D1*
X27570Y17971D1*
X27642D1*
X27690Y17947D1*
X27714Y17923D1*
X27738Y17851D1*
Y17804D1*
X27714Y17732D1*
X27666Y17684D1*
X27594Y17660D1*
X27522D1*
X27451Y17684D1*
X27427Y17708D1*
X27403Y17756D1*
X28036Y18162D2*
X27964Y18138D1*
X27916Y18066D1*
X27892Y17947D1*
Y17875D1*
X27916Y17756D1*
X27964Y17684D1*
X28036Y17660D1*
X28084D1*
X28155Y17684D1*
X28203Y17756D1*
X28227Y17875D1*
Y17947D1*
X28203Y18066D1*
X28155Y18138D1*
X28084Y18162D1*
X28036D1*
X28203Y18066D2*
X27916Y17756D1*
X27021Y22548D2*
X27236D1*
X27308Y22573D1*
X27332Y22596D1*
X27356Y22644D1*
Y22692D1*
X27332Y22739D1*
X27308Y22764D1*
X27236Y22788D1*
X27021D1*
Y22285D1*
X27189Y22548D2*
X27356Y22285D1*
X27559Y22787D2*
X27821D1*
X27678Y22596D1*
X27750D1*
X27797Y22572D1*
X27821Y22548D1*
X27845Y22476D1*
Y22429D1*
X27821Y22357D1*
X27774Y22309D1*
X27702Y22285D1*
X27630D1*
X27559Y22309D1*
X27535Y22333D1*
X27510Y22381D1*
X28000Y22691D2*
X28048Y22716D1*
X28120Y22787D1*
Y22285D1*
X26914Y27111D2*
X27129D1*
X27201Y27135D1*
X27225Y27159D1*
X27249Y27206D1*
Y27254D1*
X27225Y27302D1*
X27201Y27326D1*
X27129Y27350D1*
X26914D1*
Y26848D1*
X27081Y27111D2*
X27249Y26848D1*
X27451Y27349D2*
X27714D1*
X27570Y27158D1*
X27642D1*
X27690Y27134D1*
X27714Y27111D1*
X27738Y27039D1*
Y26991D1*
X27714Y26919D1*
X27666Y26871D1*
X27594Y26848D1*
X27522D1*
X27451Y26871D1*
X27427Y26896D1*
X27403Y26943D1*
X27917Y27230D2*
Y27254D1*
X27940Y27302D1*
X27964Y27326D1*
X28012Y27349D1*
X28108D1*
X28155Y27326D1*
X28179Y27302D1*
X28203Y27254D1*
Y27206D1*
X28179Y27158D1*
X28132Y27087D1*
X27892Y26848D1*
X28227D1*
M02*
