  0
SECTION
  2
HEADER
  9
$ANGBASE
  50
0.0
  9
$ANGDIR
  70
1
  9
$MEASUREMENT
  70
1
  0
ENDSEC
  0
SECTION
  2
TABLES
  0
TABLE
  2
LTYPE
  70
4
  0
LTYPE
  5
40F
  2
CONTINUOUS
  70
0
  3
Solid line
  72
65
  73
0
  40
0.0
  0
LTYPE
  5
410
  2
DASHDOT
 70
0
  3
Dash Dot ____ _ ____ _
 72
65
 73
4
 40
2.0
 49
1.25
 49
-0.25
 49
0.25
 49
-0.25
  0
LTYPE
  5
411
  2
DASHED
 70
0
  3
Dashed __ __ __ __ __
 72
65
 73
2
 40
0.75
 49
0.5
 49
-0.25
  0
LTYPE
  5
43B
  2
DOTTED
 70
0
  3
Dotted .  .  .  .
 72
65
 73
2
 40
0.2
 49
0.0
 49
-0.2
  0
ENDTAB
  0
TABLE
  2
STYLE
  70
4
  0
STYLE
  2
KICAD
  70
0
  40
0
  41
1
  42
1
  50
0
  71
0
  3
isocp.shx
  0
STYLE
  2
KICADB
  70
0
  40
0
  41
1
  42
1
  50
0
  71
0
  3
isocp.shx
  0
STYLE
  2
KICADI
  70
0
  40
0
  41
1
  42
1
  50
15
  71
0
  3
isocp.shx
  0
STYLE
  2
KICADBI
  70
0
  40
0
  41
1
  42
1
  50
15
  71
0
  3
isocp.shx
  0
ENDTAB
  0
TABLE
  2
LAYER
  70
1
  0
LAYER
  2
BLACK
  70
0
  62
7
  6
CONTINUOUS
  0
ENDTAB
  0
ENDSEC
  0
SECTION
  2
ENTITIES
0
LINE
8
BLACK
6
CONTINUOUS
10
191.6
20
-97.12
11
191.76
21
-97.177
0
LINE
8
BLACK
6
CONTINUOUS
10
191.76
20
-97.177
11
191.903
21
-97.268
0
LINE
8
BLACK
6
CONTINUOUS
10
191.903
20
-97.268
11
192.023
21
-97.3886
0
LINE
8
BLACK
6
CONTINUOUS
10
192.023
20
-97.3886
11
192.113
21
-97.5326
0
LINE
8
BLACK
6
CONTINUOUS
10
192.113
20
-97.5326
11
192.169
21
-97.693
0
LINE
8
BLACK
6
CONTINUOUS
10
192.169
20
-97.693
11
192.188
21
-97.8619
0
LINE
8
BLACK
6
CONTINUOUS
10
192.188
20
-97.8619
11
192.187
21
-97.8831
0
LINE
8
BLACK
6
CONTINUOUS
10
192.187
20
-97.8831
11
192.164
21
-98.0514
0
LINE
8
BLACK
6
CONTINUOUS
10
192.164
20
-98.0514
11
192.103
21
-98.2102
0
LINE
8
BLACK
6
CONTINUOUS
10
192.103
20
-98.2102
11
192.009
21
-98.3517
0
LINE
8
BLACK
6
CONTINUOUS
10
192.009
20
-98.3517
11
191.886
21
-98.4688
0
LINE
8
BLACK
6
CONTINUOUS
10
191.886
20
-98.4688
11
191.74
21
-98.5558
0
LINE
8
BLACK
6
CONTINUOUS
10
191.74
20
-98.5558
11
191.579
21
-98.6083
0
LINE
8
BLACK
6
CONTINUOUS
10
191.579
20
-98.6083
11
191.41
21
-98.6237
0
LINE
8
BLACK
6
CONTINUOUS
10
191.41
20
-98.6237
11
191.241
21
-98.6012
0
LINE
8
BLACK
6
CONTINUOUS
10
191.241
20
-98.6012
11
191.082
21
-98.542
0
LINE
8
BLACK
6
CONTINUOUS
10
191.082
20
-98.542
11
190.94
21
-98.449
0
LINE
8
BLACK
6
CONTINUOUS
10
190.94
20
-98.449
11
190.822
21
-98.3268
0
LINE
8
BLACK
6
CONTINUOUS
10
190.822
20
-98.3268
11
190.734
21
-98.1815
0
LINE
8
BLACK
6
CONTINUOUS
10
190.734
20
-98.1815
11
190.68
21
-98.0203
0
LINE
8
BLACK
6
CONTINUOUS
10
190.68
20
-98.0203
11
190.664
21
-97.8512
0
LINE
8
BLACK
6
CONTINUOUS
10
190.664
20
-97.8512
11
190.685
21
-97.6827
0
LINE
8
BLACK
6
CONTINUOUS
10
190.685
20
-97.6827
11
190.743
21
-97.5231
0
LINE
8
BLACK
6
CONTINUOUS
10
190.743
20
-97.5231
11
190.835
21
-97.3803
0
LINE
8
BLACK
6
CONTINUOUS
10
190.835
20
-97.3803
11
190.956
21
-97.2614
0
LINE
8
BLACK
6
CONTINUOUS
10
190.956
20
-97.2614
11
191.101
21
-97.1724
0
LINE
8
BLACK
6
CONTINUOUS
10
191.101
20
-97.1724
11
191.262
21
-97.1176
0
LINE
8
BLACK
6
CONTINUOUS
10
191.262
20
-97.1176
11
191.431
21
-97.0999
0
LINE
8
BLACK
6
CONTINUOUS
10
191.431
20
-97.0999
11
191.6
21
-97.12
0
LINE
8
BLACK
6
CONTINUOUS
10
168.75
20
-97.12
11
168.91
21
-97.177
0
LINE
8
BLACK
6
CONTINUOUS
10
168.91
20
-97.177
11
169.053
21
-97.268
0
LINE
8
BLACK
6
CONTINUOUS
10
169.053
20
-97.268
11
169.173
21
-97.3886
0
LINE
8
BLACK
6
CONTINUOUS
10
169.173
20
-97.3886
11
169.263
21
-97.5326
0
LINE
8
BLACK
6
CONTINUOUS
10
169.263
20
-97.5326
11
169.319
21
-97.693
0
LINE
8
BLACK
6
CONTINUOUS
10
169.319
20
-97.693
11
169.338
21
-97.8619
0
LINE
8
BLACK
6
CONTINUOUS
10
169.338
20
-97.8619
11
169.337
21
-97.8831
0
LINE
8
BLACK
6
CONTINUOUS
10
169.337
20
-97.8831
11
169.314
21
-98.0514
0
LINE
8
BLACK
6
CONTINUOUS
10
169.314
20
-98.0514
11
169.253
21
-98.2102
0
LINE
8
BLACK
6
CONTINUOUS
10
169.253
20
-98.2102
11
169.159
21
-98.3517
0
LINE
8
BLACK
6
CONTINUOUS
10
169.159
20
-98.3517
11
169.036
21
-98.4688
0
LINE
8
BLACK
6
CONTINUOUS
10
169.036
20
-98.4688
11
168.89
21
-98.5558
0
LINE
8
BLACK
6
CONTINUOUS
10
168.89
20
-98.5558
11
168.729
21
-98.6083
0
LINE
8
BLACK
6
CONTINUOUS
10
168.729
20
-98.6083
11
168.56
21
-98.6237
0
LINE
8
BLACK
6
CONTINUOUS
10
168.56
20
-98.6237
11
168.391
21
-98.6012
0
LINE
8
BLACK
6
CONTINUOUS
10
168.391
20
-98.6012
11
168.232
21
-98.542
0
LINE
8
BLACK
6
CONTINUOUS
10
168.232
20
-98.542
11
168.09
21
-98.449
0
LINE
8
BLACK
6
CONTINUOUS
10
168.09
20
-98.449
11
167.972
21
-98.3268
0
LINE
8
BLACK
6
CONTINUOUS
10
167.972
20
-98.3268
11
167.884
21
-98.1815
0
LINE
8
BLACK
6
CONTINUOUS
10
167.884
20
-98.1815
11
167.83
21
-98.0203
0
LINE
8
BLACK
6
CONTINUOUS
10
167.83
20
-98.0203
11
167.814
21
-97.8512
0
LINE
8
BLACK
6
CONTINUOUS
10
167.814
20
-97.8512
11
167.835
21
-97.6827
0
LINE
8
BLACK
6
CONTINUOUS
10
167.835
20
-97.6827
11
167.893
21
-97.5231
0
LINE
8
BLACK
6
CONTINUOUS
10
167.893
20
-97.5231
11
167.985
21
-97.3803
0
LINE
8
BLACK
6
CONTINUOUS
10
167.985
20
-97.3803
11
168.106
21
-97.2614
0
LINE
8
BLACK
6
CONTINUOUS
10
168.106
20
-97.2614
11
168.251
21
-97.1724
0
LINE
8
BLACK
6
CONTINUOUS
10
168.251
20
-97.1724
11
168.412
21
-97.1176
0
LINE
8
BLACK
6
CONTINUOUS
10
168.412
20
-97.1176
11
168.581
21
-97.0999
0
LINE
8
BLACK
6
CONTINUOUS
10
168.581
20
-97.0999
11
168.75
21
-97.12
0
LINE
8
BLACK
6
CONTINUOUS
10
191.6
20
-89.42
11
191.76
21
-89.477
0
LINE
8
BLACK
6
CONTINUOUS
10
191.76
20
-89.477
11
191.903
21
-89.568
0
LINE
8
BLACK
6
CONTINUOUS
10
191.903
20
-89.568
11
192.023
21
-89.6886
0
LINE
8
BLACK
6
CONTINUOUS
10
192.023
20
-89.6886
11
192.113
21
-89.8326
0
LINE
8
BLACK
6
CONTINUOUS
10
192.113
20
-89.8326
11
192.169
21
-89.993
0
LINE
8
BLACK
6
CONTINUOUS
10
192.169
20
-89.993
11
192.188
21
-90.1619
0
LINE
8
BLACK
6
CONTINUOUS
10
192.188
20
-90.1619
11
192.187
21
-90.1831
0
LINE
8
BLACK
6
CONTINUOUS
10
192.187
20
-90.1831
11
192.164
21
-90.3514
0
LINE
8
BLACK
6
CONTINUOUS
10
192.164
20
-90.3514
11
192.103
21
-90.5102
0
LINE
8
BLACK
6
CONTINUOUS
10
192.103
20
-90.5102
11
192.009
21
-90.6517
0
LINE
8
BLACK
6
CONTINUOUS
10
192.009
20
-90.6517
11
191.886
21
-90.7688
0
LINE
8
BLACK
6
CONTINUOUS
10
191.886
20
-90.7688
11
191.74
21
-90.8558
0
LINE
8
BLACK
6
CONTINUOUS
10
191.74
20
-90.8558
11
191.579
21
-90.9083
0
LINE
8
BLACK
6
CONTINUOUS
10
191.579
20
-90.9083
11
191.41
21
-90.9237
0
LINE
8
BLACK
6
CONTINUOUS
10
191.41
20
-90.9237
11
191.241
21
-90.9012
0
LINE
8
BLACK
6
CONTINUOUS
10
191.241
20
-90.9012
11
191.082
21
-90.842
0
LINE
8
BLACK
6
CONTINUOUS
10
191.082
20
-90.842
11
190.94
21
-90.749
0
LINE
8
BLACK
6
CONTINUOUS
10
190.94
20
-90.749
11
190.822
21
-90.6268
0
LINE
8
BLACK
6
CONTINUOUS
10
190.822
20
-90.6268
11
190.734
21
-90.4815
0
LINE
8
BLACK
6
CONTINUOUS
10
190.734
20
-90.4815
11
190.68
21
-90.3203
0
LINE
8
BLACK
6
CONTINUOUS
10
190.68
20
-90.3203
11
190.664
21
-90.1512
0
LINE
8
BLACK
6
CONTINUOUS
10
190.664
20
-90.1512
11
190.685
21
-89.9827
0
LINE
8
BLACK
6
CONTINUOUS
10
190.685
20
-89.9827
11
190.743
21
-89.8231
0
LINE
8
BLACK
6
CONTINUOUS
10
190.743
20
-89.8231
11
190.835
21
-89.6803
0
LINE
8
BLACK
6
CONTINUOUS
10
190.835
20
-89.6803
11
190.956
21
-89.5614
0
LINE
8
BLACK
6
CONTINUOUS
10
190.956
20
-89.5614
11
191.101
21
-89.4724
0
LINE
8
BLACK
6
CONTINUOUS
10
191.101
20
-89.4724
11
191.262
21
-89.4176
0
LINE
8
BLACK
6
CONTINUOUS
10
191.262
20
-89.4176
11
191.431
21
-89.3999
0
LINE
8
BLACK
6
CONTINUOUS
10
191.431
20
-89.3999
11
191.6
21
-89.42
0
LINE
8
BLACK
6
CONTINUOUS
10
168.75
20
-89.42
11
168.91
21
-89.477
0
LINE
8
BLACK
6
CONTINUOUS
10
168.91
20
-89.477
11
169.053
21
-89.568
0
LINE
8
BLACK
6
CONTINUOUS
10
169.053
20
-89.568
11
169.173
21
-89.6886
0
LINE
8
BLACK
6
CONTINUOUS
10
169.173
20
-89.6886
11
169.263
21
-89.8326
0
LINE
8
BLACK
6
CONTINUOUS
10
169.263
20
-89.8326
11
169.319
21
-89.993
0
LINE
8
BLACK
6
CONTINUOUS
10
169.319
20
-89.993
11
169.338
21
-90.1619
0
LINE
8
BLACK
6
CONTINUOUS
10
169.338
20
-90.1619
11
169.337
21
-90.1831
0
LINE
8
BLACK
6
CONTINUOUS
10
169.337
20
-90.1831
11
169.314
21
-90.3514
0
LINE
8
BLACK
6
CONTINUOUS
10
169.314
20
-90.3514
11
169.253
21
-90.5102
0
LINE
8
BLACK
6
CONTINUOUS
10
169.253
20
-90.5102
11
169.159
21
-90.6517
0
LINE
8
BLACK
6
CONTINUOUS
10
169.159
20
-90.6517
11
169.036
21
-90.7688
0
LINE
8
BLACK
6
CONTINUOUS
10
169.036
20
-90.7688
11
168.89
21
-90.8558
0
LINE
8
BLACK
6
CONTINUOUS
10
168.89
20
-90.8558
11
168.729
21
-90.9083
0
LINE
8
BLACK
6
CONTINUOUS
10
168.729
20
-90.9083
11
168.56
21
-90.9237
0
LINE
8
BLACK
6
CONTINUOUS
10
168.56
20
-90.9237
11
168.391
21
-90.9012
0
LINE
8
BLACK
6
CONTINUOUS
10
168.391
20
-90.9012
11
168.232
21
-90.842
0
LINE
8
BLACK
6
CONTINUOUS
10
168.232
20
-90.842
11
168.09
21
-90.749
0
LINE
8
BLACK
6
CONTINUOUS
10
168.09
20
-90.749
11
167.972
21
-90.6268
0
LINE
8
BLACK
6
CONTINUOUS
10
167.972
20
-90.6268
11
167.884
21
-90.4815
0
LINE
8
BLACK
6
CONTINUOUS
10
167.884
20
-90.4815
11
167.83
21
-90.3203
0
LINE
8
BLACK
6
CONTINUOUS
10
167.83
20
-90.3203
11
167.814
21
-90.1512
0
LINE
8
BLACK
6
CONTINUOUS
10
167.814
20
-90.1512
11
167.835
21
-89.9827
0
LINE
8
BLACK
6
CONTINUOUS
10
167.835
20
-89.9827
11
167.893
21
-89.8231
0
LINE
8
BLACK
6
CONTINUOUS
10
167.893
20
-89.8231
11
167.985
21
-89.6803
0
LINE
8
BLACK
6
CONTINUOUS
10
167.985
20
-89.6803
11
168.106
21
-89.5614
0
LINE
8
BLACK
6
CONTINUOUS
10
168.106
20
-89.5614
11
168.251
21
-89.4724
0
LINE
8
BLACK
6
CONTINUOUS
10
168.251
20
-89.4724
11
168.412
21
-89.4176
0
LINE
8
BLACK
6
CONTINUOUS
10
168.412
20
-89.4176
11
168.581
21
-89.3999
0
LINE
8
BLACK
6
CONTINUOUS
10
168.581
20
-89.3999
11
168.75
21
-89.42
0
LINE
8
BLACK
6
CONTINUOUS
10
166.187
20
-84.8811
11
166.35
21
-84.9221
0
LINE
8
BLACK
6
CONTINUOUS
10
166.35
20
-84.9221
11
166.499
21
-85.0008
0
LINE
8
BLACK
6
CONTINUOUS
10
166.499
20
-85.0008
11
166.625
21
-85.1127
0
LINE
8
BLACK
6
CONTINUOUS
10
166.625
20
-85.1127
11
166.72
21
-85.2513
0
LINE
8
BLACK
6
CONTINUOUS
10
166.72
20
-85.2513
11
166.779
21
-85.4086
0
LINE
8
BLACK
6
CONTINUOUS
10
166.779
20
-85.4086
11
166.799
21
-85.5756
0
LINE
8
BLACK
6
CONTINUOUS
10
166.799
20
-85.5756
11
166.799
21
-85.5903
0
LINE
8
BLACK
6
CONTINUOUS
10
166.799
20
-85.5903
11
166.776
21
-85.7568
0
LINE
8
BLACK
6
CONTINUOUS
10
166.776
20
-85.7568
11
166.713
21
-85.9128
0
LINE
8
BLACK
6
CONTINUOUS
10
166.713
20
-85.9128
11
166.615
21
-86.0494
0
LINE
8
BLACK
6
CONTINUOUS
10
166.615
20
-86.0494
11
166.487
21
-86.1586
0
LINE
8
BLACK
6
CONTINUOUS
10
166.487
20
-86.1586
11
166.337
21
-86.2342
0
LINE
8
BLACK
6
CONTINUOUS
10
166.337
20
-86.2342
11
166.173
21
-86.2718
0
LINE
8
BLACK
6
CONTINUOUS
10
166.173
20
-86.2718
11
166.004
21
-86.2691
0
LINE
8
BLACK
6
CONTINUOUS
10
166.004
20
-86.2691
11
165.842
21
-86.2264
0
LINE
8
BLACK
6
CONTINUOUS
10
165.842
20
-86.2264
11
165.694
21
-86.1462
0
LINE
8
BLACK
6
CONTINUOUS
10
165.694
20
-86.1462
11
165.57
21
-86.033
0
LINE
8
BLACK
6
CONTINUOUS
10
165.57
20
-86.033
11
165.476
21
-85.8934
0
LINE
8
BLACK
6
CONTINUOUS
10
165.476
20
-85.8934
11
165.418
21
-85.7354
0
LINE
8
BLACK
6
CONTINUOUS
10
165.418
20
-85.7354
11
165.4
21
-85.5683
0
LINE
8
BLACK
6
CONTINUOUS
10
165.4
20
-85.5683
11
165.421
21
-85.4015
0
LINE
8
BLACK
6
CONTINUOUS
10
165.421
20
-85.4015
11
165.483
21
-85.2448
0
LINE
8
BLACK
6
CONTINUOUS
10
165.483
20
-85.2448
11
165.579
21
-85.1072
0
LINE
8
BLACK
6
CONTINUOUS
10
165.579
20
-85.1072
11
165.706
21
-84.9966
0
LINE
8
BLACK
6
CONTINUOUS
10
165.706
20
-84.9966
11
165.856
21
-84.9195
0
LINE
8
BLACK
6
CONTINUOUS
10
165.856
20
-84.9195
11
166.019
21
-84.8802
0
LINE
8
BLACK
6
CONTINUOUS
10
166.019
20
-84.8802
11
166.187
21
-84.8811
0
LINE
8
BLACK
6
CONTINUOUS
10
166.187
20
-82.9811
11
166.35
21
-83.0221
0
LINE
8
BLACK
6
CONTINUOUS
10
166.35
20
-83.0221
11
166.499
21
-83.1008
0
LINE
8
BLACK
6
CONTINUOUS
10
166.499
20
-83.1008
11
166.625
21
-83.2127
0
LINE
8
BLACK
6
CONTINUOUS
10
166.625
20
-83.2127
11
166.72
21
-83.3513
0
LINE
8
BLACK
6
CONTINUOUS
10
166.72
20
-83.3513
11
166.779
21
-83.5086
0
LINE
8
BLACK
6
CONTINUOUS
10
166.779
20
-83.5086
11
166.799
21
-83.6756
0
LINE
8
BLACK
6
CONTINUOUS
10
166.799
20
-83.6756
11
166.799
21
-83.6903
0
LINE
8
BLACK
6
CONTINUOUS
10
166.799
20
-83.6903
11
166.776
21
-83.8568
0
LINE
8
BLACK
6
CONTINUOUS
10
166.776
20
-83.8568
11
166.713
21
-84.0128
0
LINE
8
BLACK
6
CONTINUOUS
10
166.713
20
-84.0128
11
166.615
21
-84.1494
0
LINE
8
BLACK
6
CONTINUOUS
10
166.615
20
-84.1494
11
166.487
21
-84.2586
0
LINE
8
BLACK
6
CONTINUOUS
10
166.487
20
-84.2586
11
166.337
21
-84.3342
0
LINE
8
BLACK
6
CONTINUOUS
10
166.337
20
-84.3342
11
166.173
21
-84.3718
0
LINE
8
BLACK
6
CONTINUOUS
10
166.173
20
-84.3718
11
166.004
21
-84.3691
0
LINE
8
BLACK
6
CONTINUOUS
10
166.004
20
-84.3691
11
165.842
21
-84.3264
0
LINE
8
BLACK
6
CONTINUOUS
10
165.842
20
-84.3264
11
165.694
21
-84.2462
0
LINE
8
BLACK
6
CONTINUOUS
10
165.694
20
-84.2462
11
165.57
21
-84.133
0
LINE
8
BLACK
6
CONTINUOUS
10
165.57
20
-84.133
11
165.476
21
-83.9934
0
LINE
8
BLACK
6
CONTINUOUS
10
165.476
20
-83.9934
11
165.418
21
-83.8354
0
LINE
8
BLACK
6
CONTINUOUS
10
165.418
20
-83.8354
11
165.4
21
-83.6683
0
LINE
8
BLACK
6
CONTINUOUS
10
165.4
20
-83.6683
11
165.421
21
-83.5015
0
LINE
8
BLACK
6
CONTINUOUS
10
165.421
20
-83.5015
11
165.483
21
-83.3448
0
LINE
8
BLACK
6
CONTINUOUS
10
165.483
20
-83.3448
11
165.579
21
-83.2072
0
LINE
8
BLACK
6
CONTINUOUS
10
165.579
20
-83.2072
11
165.706
21
-83.0966
0
LINE
8
BLACK
6
CONTINUOUS
10
165.706
20
-83.0966
11
165.856
21
-83.0195
0
LINE
8
BLACK
6
CONTINUOUS
10
165.856
20
-83.0195
11
166.019
21
-82.9802
0
LINE
8
BLACK
6
CONTINUOUS
10
166.019
20
-82.9802
11
166.187
21
-82.9811
0
LINE
8
BLACK
6
CONTINUOUS
10
165.216
20
-79.3846
11
163.416
21
-79.3846
0
LINE
8
BLACK
6
CONTINUOUS
10
163.416
20
-79.3846
11
163.416
21
-77.5846
0
LINE
8
BLACK
6
CONTINUOUS
10
163.416
20
-77.5846
11
165.216
21
-77.5846
0
LINE
8
BLACK
6
CONTINUOUS
10
165.216
20
-77.5846
11
165.216
21
-79.3846
0
LINE
8
BLACK
6
CONTINUOUS
10
193.923
20
-79.3846
11
192.123
21
-79.3846
0
LINE
8
BLACK
6
CONTINUOUS
10
192.123
20
-79.3846
11
192.123
21
-77.5846
0
LINE
8
BLACK
6
CONTINUOUS
10
192.123
20
-77.5846
11
193.923
21
-77.5846
0
LINE
8
BLACK
6
CONTINUOUS
10
193.923
20
-77.5846
11
193.923
21
-79.3846
0
LINE
8
BLACK
6
CONTINUOUS
10
167.135
20
-77.6286
11
167.306
21
-77.7052
0
LINE
8
BLACK
6
CONTINUOUS
10
167.306
20
-77.7052
11
167.459
21
-77.8158
0
LINE
8
BLACK
6
CONTINUOUS
10
167.459
20
-77.8158
11
167.585
21
-77.9556
0
LINE
8
BLACK
6
CONTINUOUS
10
167.585
20
-77.9556
11
167.679
21
-78.1185
0
LINE
8
BLACK
6
CONTINUOUS
10
167.679
20
-78.1185
11
167.737
21
-78.2975
0
LINE
8
BLACK
6
CONTINUOUS
10
167.737
20
-78.2975
11
167.756
21
-78.4846
0
LINE
8
BLACK
6
CONTINUOUS
10
167.756
20
-78.4846
11
167.737
21
-78.6717
0
LINE
8
BLACK
6
CONTINUOUS
10
167.737
20
-78.6717
11
167.679
21
-78.8507
0
LINE
8
BLACK
6
CONTINUOUS
10
167.679
20
-78.8507
11
167.585
21
-79.0136
0
LINE
8
BLACK
6
CONTINUOUS
10
167.585
20
-79.0136
11
167.459
21
-79.1534
0
LINE
8
BLACK
6
CONTINUOUS
10
167.459
20
-79.1534
11
167.306
21
-79.264
0
LINE
8
BLACK
6
CONTINUOUS
10
167.306
20
-79.264
11
167.135
21
-79.3406
0
LINE
8
BLACK
6
CONTINUOUS
10
167.135
20
-79.3406
11
166.951
21
-79.3797
0
LINE
8
BLACK
6
CONTINUOUS
10
166.951
20
-79.3797
11
166.762
21
-79.3797
0
LINE
8
BLACK
6
CONTINUOUS
10
166.762
20
-79.3797
11
166.578
21
-79.3406
0
LINE
8
BLACK
6
CONTINUOUS
10
166.578
20
-79.3406
11
166.406
21
-79.264
0
LINE
8
BLACK
6
CONTINUOUS
10
166.406
20
-79.264
11
166.254
21
-79.1534
0
LINE
8
BLACK
6
CONTINUOUS
10
166.254
20
-79.1534
11
166.128
21
-79.0136
0
LINE
8
BLACK
6
CONTINUOUS
10
166.128
20
-79.0136
11
166.034
21
-78.8507
0
LINE
8
BLACK
6
CONTINUOUS
10
166.034
20
-78.8507
11
165.976
21
-78.6717
0
LINE
8
BLACK
6
CONTINUOUS
10
165.976
20
-78.6717
11
165.957
21
-78.4846
0
LINE
8
BLACK
6
CONTINUOUS
10
165.957
20
-78.4846
11
165.976
21
-78.2975
0
LINE
8
BLACK
6
CONTINUOUS
10
165.976
20
-78.2975
11
166.034
21
-78.1185
0
LINE
8
BLACK
6
CONTINUOUS
10
166.034
20
-78.1185
11
166.128
21
-77.9556
0
LINE
8
BLACK
6
CONTINUOUS
10
166.128
20
-77.9556
11
166.254
21
-77.8158
0
LINE
8
BLACK
6
CONTINUOUS
10
166.254
20
-77.8158
11
166.406
21
-77.7052
0
LINE
8
BLACK
6
CONTINUOUS
10
166.406
20
-77.7052
11
166.578
21
-77.6286
0
LINE
8
BLACK
6
CONTINUOUS
10
166.578
20
-77.6286
11
166.762
21
-77.5895
0
LINE
8
BLACK
6
CONTINUOUS
10
166.762
20
-77.5895
11
166.951
21
-77.5895
0
LINE
8
BLACK
6
CONTINUOUS
10
166.951
20
-77.5895
11
167.135
21
-77.6286
0
LINE
8
BLACK
6
CONTINUOUS
10
195.842
20
-77.6286
11
196.013
21
-77.7052
0
LINE
8
BLACK
6
CONTINUOUS
10
196.013
20
-77.7052
11
196.166
21
-77.8158
0
LINE
8
BLACK
6
CONTINUOUS
10
196.166
20
-77.8158
11
196.292
21
-77.9556
0
LINE
8
BLACK
6
CONTINUOUS
10
196.292
20
-77.9556
11
196.386
21
-78.1185
0
LINE
8
BLACK
6
CONTINUOUS
10
196.386
20
-78.1185
11
196.444
21
-78.2975
0
LINE
8
BLACK
6
CONTINUOUS
10
196.444
20
-78.2975
11
196.463
21
-78.4846
0
LINE
8
BLACK
6
CONTINUOUS
10
196.463
20
-78.4846
11
196.444
21
-78.6717
0
LINE
8
BLACK
6
CONTINUOUS
10
196.444
20
-78.6717
11
196.386
21
-78.8507
0
LINE
8
BLACK
6
CONTINUOUS
10
196.386
20
-78.8507
11
196.292
21
-79.0136
0
LINE
8
BLACK
6
CONTINUOUS
10
196.292
20
-79.0136
11
196.166
21
-79.1534
0
LINE
8
BLACK
6
CONTINUOUS
10
196.166
20
-79.1534
11
196.013
21
-79.264
0
LINE
8
BLACK
6
CONTINUOUS
10
196.013
20
-79.264
11
195.842
21
-79.3406
0
LINE
8
BLACK
6
CONTINUOUS
10
195.842
20
-79.3406
11
195.658
21
-79.3797
0
LINE
8
BLACK
6
CONTINUOUS
10
195.658
20
-79.3797
11
195.469
21
-79.3797
0
LINE
8
BLACK
6
CONTINUOUS
10
195.469
20
-79.3797
11
195.285
21
-79.3406
0
LINE
8
BLACK
6
CONTINUOUS
10
195.285
20
-79.3406
11
195.113
21
-79.264
0
LINE
8
BLACK
6
CONTINUOUS
10
195.113
20
-79.264
11
194.961
21
-79.1534
0
LINE
8
BLACK
6
CONTINUOUS
10
194.961
20
-79.1534
11
194.835
21
-79.0136
0
LINE
8
BLACK
6
CONTINUOUS
10
194.835
20
-79.0136
11
194.741
21
-78.8507
0
LINE
8
BLACK
6
CONTINUOUS
10
194.741
20
-78.8507
11
194.683
21
-78.6717
0
LINE
8
BLACK
6
CONTINUOUS
10
194.683
20
-78.6717
11
194.663
21
-78.4846
0
LINE
8
BLACK
6
CONTINUOUS
10
194.663
20
-78.4846
11
194.683
21
-78.2975
0
LINE
8
BLACK
6
CONTINUOUS
10
194.683
20
-78.2975
11
194.741
21
-78.1185
0
LINE
8
BLACK
6
CONTINUOUS
10
194.741
20
-78.1185
11
194.835
21
-77.9556
0
LINE
8
BLACK
6
CONTINUOUS
10
194.835
20
-77.9556
11
194.961
21
-77.8158
0
LINE
8
BLACK
6
CONTINUOUS
10
194.961
20
-77.8158
11
195.113
21
-77.7052
0
LINE
8
BLACK
6
CONTINUOUS
10
195.113
20
-77.7052
11
195.285
21
-77.6286
0
LINE
8
BLACK
6
CONTINUOUS
10
195.285
20
-77.6286
11
195.469
21
-77.5895
0
LINE
8
BLACK
6
CONTINUOUS
10
195.469
20
-77.5895
11
195.658
21
-77.5895
0
LINE
8
BLACK
6
CONTINUOUS
10
195.658
20
-77.5895
11
195.842
21
-77.6286
0
LINE
8
BLACK
6
CONTINUOUS
10
176.421
20
-52.2086
11
176.502
21
-52.2628
0
LINE
8
BLACK
6
CONTINUOUS
10
176.502
20
-52.2628
11
176.556
21
-52.3439
0
LINE
8
BLACK
6
CONTINUOUS
10
176.556
20
-52.3439
11
176.576
21
-52.4396
0
LINE
8
BLACK
6
CONTINUOUS
10
176.576
20
-52.4396
11
176.576
21
-54.1296
0
LINE
8
BLACK
6
CONTINUOUS
10
176.576
20
-54.1296
11
176.556
21
-54.2252
0
LINE
8
BLACK
6
CONTINUOUS
10
176.556
20
-54.2252
11
176.502
21
-54.3064
0
LINE
8
BLACK
6
CONTINUOUS
10
176.502
20
-54.3064
11
176.421
21
-54.3605
0
LINE
8
BLACK
6
CONTINUOUS
10
176.421
20
-54.3605
11
176.326
21
-54.3796
0
LINE
8
BLACK
6
CONTINUOUS
10
176.326
20
-54.3796
11
175.086
21
-54.3796
0
LINE
8
BLACK
6
CONTINUOUS
10
175.086
20
-54.3796
11
174.99
21
-54.3605
0
LINE
8
BLACK
6
CONTINUOUS
10
174.99
20
-54.3605
11
174.909
21
-54.3064
0
LINE
8
BLACK
6
CONTINUOUS
10
174.909
20
-54.3064
11
174.855
21
-54.2252
0
LINE
8
BLACK
6
CONTINUOUS
10
174.855
20
-54.2252
11
174.836
21
-54.1296
0
LINE
8
BLACK
6
CONTINUOUS
10
174.836
20
-54.1296
11
174.836
21
-52.4396
0
LINE
8
BLACK
6
CONTINUOUS
10
174.836
20
-52.4396
11
174.855
21
-52.3439
0
LINE
8
BLACK
6
CONTINUOUS
10
174.855
20
-52.3439
11
174.909
21
-52.2628
0
LINE
8
BLACK
6
CONTINUOUS
10
174.909
20
-52.2628
11
174.99
21
-52.2086
0
LINE
8
BLACK
6
CONTINUOUS
10
174.99
20
-52.2086
11
175.086
21
-52.1896
0
LINE
8
BLACK
6
CONTINUOUS
10
175.086
20
-52.1896
11
176.326
21
-52.1896
0
LINE
8
BLACK
6
CONTINUOUS
10
176.326
20
-52.1896
11
176.421
21
-52.2086
0
LINE
8
BLACK
6
CONTINUOUS
10
178.479
20
-52.2216
11
178.654
21
-52.2914
0
LINE
8
BLACK
6
CONTINUOUS
10
178.654
20
-52.2914
11
178.809
21
-52.397
0
LINE
8
BLACK
6
CONTINUOUS
10
178.809
20
-52.397
11
178.938
21
-52.5336
0
LINE
8
BLACK
6
CONTINUOUS
10
178.938
20
-52.5336
11
179.035
21
-52.6947
0
LINE
8
BLACK
6
CONTINUOUS
10
179.035
20
-52.6947
11
179.095
21
-52.8728
0
LINE
8
BLACK
6
CONTINUOUS
10
179.095
20
-52.8728
11
179.116
21
-53.0596
0
LINE
8
BLACK
6
CONTINUOUS
10
179.116
20
-53.0596
11
179.116
21
-53.5096
0
LINE
8
BLACK
6
CONTINUOUS
10
179.116
20
-53.5096
11
179.11
21
-53.6066
0
LINE
8
BLACK
6
CONTINUOUS
10
179.11
20
-53.6066
11
179.069
21
-53.7899
0
LINE
8
BLACK
6
CONTINUOUS
10
179.069
20
-53.7899
11
178.99
21
-53.9603
0
LINE
8
BLACK
6
CONTINUOUS
10
178.99
20
-53.9603
11
178.876
21
-54.1095
0
LINE
8
BLACK
6
CONTINUOUS
10
178.876
20
-54.1095
11
178.732
21
-54.2308
0
LINE
8
BLACK
6
CONTINUOUS
10
178.732
20
-54.2308
11
178.566
21
-54.3185
0
LINE
8
BLACK
6
CONTINUOUS
10
178.566
20
-54.3185
11
178.385
21
-54.3684
0
LINE
8
BLACK
6
CONTINUOUS
10
178.385
20
-54.3684
11
178.197
21
-54.3782
0
LINE
8
BLACK
6
CONTINUOUS
10
178.197
20
-54.3782
11
178.012
21
-54.3475
0
LINE
8
BLACK
6
CONTINUOUS
10
178.012
20
-54.3475
11
177.837
21
-54.2777
0
LINE
8
BLACK
6
CONTINUOUS
10
177.837
20
-54.2777
11
177.682
21
-54.1721
0
LINE
8
BLACK
6
CONTINUOUS
10
177.682
20
-54.1721
11
177.553
21
-54.0356
0
LINE
8
BLACK
6
CONTINUOUS
10
177.553
20
-54.0356
11
177.456
21
-53.8745
0
LINE
8
BLACK
6
CONTINUOUS
10
177.456
20
-53.8745
11
177.396
21
-53.6964
0
LINE
8
BLACK
6
CONTINUOUS
10
177.396
20
-53.6964
11
177.376
21
-53.5096
0
LINE
8
BLACK
6
CONTINUOUS
10
177.376
20
-53.5096
11
177.376
21
-53.0596
0
LINE
8
BLACK
6
CONTINUOUS
10
177.376
20
-53.0596
11
177.381
21
-52.9626
0
LINE
8
BLACK
6
CONTINUOUS
10
177.381
20
-52.9626
11
177.422
21
-52.7792
0
LINE
8
BLACK
6
CONTINUOUS
10
177.422
20
-52.7792
11
177.501
21
-52.6089
0
LINE
8
BLACK
6
CONTINUOUS
10
177.501
20
-52.6089
11
177.615
21
-52.4596
0
LINE
8
BLACK
6
CONTINUOUS
10
177.615
20
-52.4596
11
177.759
21
-52.3383
0
LINE
8
BLACK
6
CONTINUOUS
10
177.759
20
-52.3383
11
177.925
21
-52.2507
0
LINE
8
BLACK
6
CONTINUOUS
10
177.925
20
-52.2507
11
178.106
21
-52.2008
0
LINE
8
BLACK
6
CONTINUOUS
10
178.106
20
-52.2008
11
178.294
21
-52.1909
0
LINE
8
BLACK
6
CONTINUOUS
10
178.294
20
-52.1909
11
178.479
21
-52.2216
0
LINE
8
BLACK
6
CONTINUOUS
10
181.019
20
-52.2216
11
181.194
21
-52.2914
0
LINE
8
BLACK
6
CONTINUOUS
10
181.194
20
-52.2914
11
181.349
21
-52.397
0
LINE
8
BLACK
6
CONTINUOUS
10
181.349
20
-52.397
11
181.478
21
-52.5336
0
LINE
8
BLACK
6
CONTINUOUS
10
181.478
20
-52.5336
11
181.575
21
-52.6947
0
LINE
8
BLACK
6
CONTINUOUS
10
181.575
20
-52.6947
11
181.635
21
-52.8728
0
LINE
8
BLACK
6
CONTINUOUS
10
181.635
20
-52.8728
11
181.656
21
-53.0596
0
LINE
8
BLACK
6
CONTINUOUS
10
181.656
20
-53.0596
11
181.656
21
-53.5096
0
LINE
8
BLACK
6
CONTINUOUS
10
181.656
20
-53.5096
11
181.65
21
-53.6066
0
LINE
8
BLACK
6
CONTINUOUS
10
181.65
20
-53.6066
11
181.609
21
-53.7899
0
LINE
8
BLACK
6
CONTINUOUS
10
181.609
20
-53.7899
11
181.53
21
-53.9603
0
LINE
8
BLACK
6
CONTINUOUS
10
181.53
20
-53.9603
11
181.416
21
-54.1095
0
LINE
8
BLACK
6
CONTINUOUS
10
181.416
20
-54.1095
11
181.272
21
-54.2308
0
LINE
8
BLACK
6
CONTINUOUS
10
181.272
20
-54.2308
11
181.106
21
-54.3185
0
LINE
8
BLACK
6
CONTINUOUS
10
181.106
20
-54.3185
11
180.925
21
-54.3684
0
LINE
8
BLACK
6
CONTINUOUS
10
180.925
20
-54.3684
11
180.737
21
-54.3782
0
LINE
8
BLACK
6
CONTINUOUS
10
180.737
20
-54.3782
11
180.552
21
-54.3475
0
LINE
8
BLACK
6
CONTINUOUS
10
180.552
20
-54.3475
11
180.377
21
-54.2777
0
LINE
8
BLACK
6
CONTINUOUS
10
180.377
20
-54.2777
11
180.222
21
-54.1721
0
LINE
8
BLACK
6
CONTINUOUS
10
180.222
20
-54.1721
11
180.093
21
-54.0356
0
LINE
8
BLACK
6
CONTINUOUS
10
180.093
20
-54.0356
11
179.996
21
-53.8745
0
LINE
8
BLACK
6
CONTINUOUS
10
179.996
20
-53.8745
11
179.936
21
-53.6964
0
LINE
8
BLACK
6
CONTINUOUS
10
179.936
20
-53.6964
11
179.916
21
-53.5096
0
LINE
8
BLACK
6
CONTINUOUS
10
179.916
20
-53.5096
11
179.916
21
-53.0596
0
LINE
8
BLACK
6
CONTINUOUS
10
179.916
20
-53.0596
11
179.921
21
-52.9626
0
LINE
8
BLACK
6
CONTINUOUS
10
179.921
20
-52.9626
11
179.962
21
-52.7792
0
LINE
8
BLACK
6
CONTINUOUS
10
179.962
20
-52.7792
11
180.041
21
-52.6089
0
LINE
8
BLACK
6
CONTINUOUS
10
180.041
20
-52.6089
11
180.155
21
-52.4596
0
LINE
8
BLACK
6
CONTINUOUS
10
180.155
20
-52.4596
11
180.299
21
-52.3383
0
LINE
8
BLACK
6
CONTINUOUS
10
180.299
20
-52.3383
11
180.465
21
-52.2507
0
LINE
8
BLACK
6
CONTINUOUS
10
180.465
20
-52.2507
11
180.646
21
-52.2008
0
LINE
8
BLACK
6
CONTINUOUS
10
180.646
20
-52.2008
11
180.834
21
-52.1909
0
LINE
8
BLACK
6
CONTINUOUS
10
180.834
20
-52.1909
11
181.019
21
-52.2216
0
LINE
8
BLACK
6
CONTINUOUS
10
183.559
20
-52.2216
11
183.734
21
-52.2914
0
LINE
8
BLACK
6
CONTINUOUS
10
183.734
20
-52.2914
11
183.889
21
-52.397
0
LINE
8
BLACK
6
CONTINUOUS
10
183.889
20
-52.397
11
184.018
21
-52.5336
0
LINE
8
BLACK
6
CONTINUOUS
10
184.018
20
-52.5336
11
184.115
21
-52.6947
0
LINE
8
BLACK
6
CONTINUOUS
10
184.115
20
-52.6947
11
184.175
21
-52.8728
0
LINE
8
BLACK
6
CONTINUOUS
10
184.175
20
-52.8728
11
184.196
21
-53.0596
0
LINE
8
BLACK
6
CONTINUOUS
10
184.196
20
-53.0596
11
184.196
21
-53.5096
0
LINE
8
BLACK
6
CONTINUOUS
10
184.196
20
-53.5096
11
184.19
21
-53.6066
0
LINE
8
BLACK
6
CONTINUOUS
10
184.19
20
-53.6066
11
184.149
21
-53.7899
0
LINE
8
BLACK
6
CONTINUOUS
10
184.149
20
-53.7899
11
184.07
21
-53.9603
0
LINE
8
BLACK
6
CONTINUOUS
10
184.07
20
-53.9603
11
183.956
21
-54.1095
0
LINE
8
BLACK
6
CONTINUOUS
10
183.956
20
-54.1095
11
183.812
21
-54.2308
0
LINE
8
BLACK
6
CONTINUOUS
10
183.812
20
-54.2308
11
183.646
21
-54.3185
0
LINE
8
BLACK
6
CONTINUOUS
10
183.646
20
-54.3185
11
183.465
21
-54.3684
0
LINE
8
BLACK
6
CONTINUOUS
10
183.465
20
-54.3684
11
183.277
21
-54.3782
0
LINE
8
BLACK
6
CONTINUOUS
10
183.277
20
-54.3782
11
183.092
21
-54.3475
0
LINE
8
BLACK
6
CONTINUOUS
10
183.092
20
-54.3475
11
182.917
21
-54.2777
0
LINE
8
BLACK
6
CONTINUOUS
10
182.917
20
-54.2777
11
182.762
21
-54.1721
0
LINE
8
BLACK
6
CONTINUOUS
10
182.762
20
-54.1721
11
182.633
21
-54.0356
0
LINE
8
BLACK
6
CONTINUOUS
10
182.633
20
-54.0356
11
182.536
21
-53.8745
0
LINE
8
BLACK
6
CONTINUOUS
10
182.536
20
-53.8745
11
182.476
21
-53.6964
0
LINE
8
BLACK
6
CONTINUOUS
10
182.476
20
-53.6964
11
182.456
21
-53.5096
0
LINE
8
BLACK
6
CONTINUOUS
10
182.456
20
-53.5096
11
182.456
21
-53.0596
0
LINE
8
BLACK
6
CONTINUOUS
10
182.456
20
-53.0596
11
182.461
21
-52.9626
0
LINE
8
BLACK
6
CONTINUOUS
10
182.461
20
-52.9626
11
182.502
21
-52.7792
0
LINE
8
BLACK
6
CONTINUOUS
10
182.502
20
-52.7792
11
182.581
21
-52.6089
0
LINE
8
BLACK
6
CONTINUOUS
10
182.581
20
-52.6089
11
182.695
21
-52.4596
0
LINE
8
BLACK
6
CONTINUOUS
10
182.695
20
-52.4596
11
182.839
21
-52.3383
0
LINE
8
BLACK
6
CONTINUOUS
10
182.839
20
-52.3383
11
183.005
21
-52.2507
0
LINE
8
BLACK
6
CONTINUOUS
10
183.005
20
-52.2507
11
183.186
21
-52.2008
0
LINE
8
BLACK
6
CONTINUOUS
10
183.186
20
-52.2008
11
183.374
21
-52.1909
0
LINE
8
BLACK
6
CONTINUOUS
10
183.374
20
-52.1909
11
183.559
21
-52.2216
0
LINE
8
BLACK
6
CONTINUOUS
10
186.099
20
-52.2216
11
186.274
21
-52.2914
0
LINE
8
BLACK
6
CONTINUOUS
10
186.274
20
-52.2914
11
186.429
21
-52.397
0
LINE
8
BLACK
6
CONTINUOUS
10
186.429
20
-52.397
11
186.558
21
-52.5336
0
LINE
8
BLACK
6
CONTINUOUS
10
186.558
20
-52.5336
11
186.655
21
-52.6947
0
LINE
8
BLACK
6
CONTINUOUS
10
186.655
20
-52.6947
11
186.715
21
-52.8728
0
LINE
8
BLACK
6
CONTINUOUS
10
186.715
20
-52.8728
11
186.736
21
-53.0596
0
LINE
8
BLACK
6
CONTINUOUS
10
186.736
20
-53.0596
11
186.736
21
-53.5096
0
LINE
8
BLACK
6
CONTINUOUS
10
186.736
20
-53.5096
11
186.73
21
-53.6066
0
LINE
8
BLACK
6
CONTINUOUS
10
186.73
20
-53.6066
11
186.689
21
-53.7899
0
LINE
8
BLACK
6
CONTINUOUS
10
186.689
20
-53.7899
11
186.61
21
-53.9603
0
LINE
8
BLACK
6
CONTINUOUS
10
186.61
20
-53.9603
11
186.496
21
-54.1095
0
LINE
8
BLACK
6
CONTINUOUS
10
186.496
20
-54.1095
11
186.352
21
-54.2308
0
LINE
8
BLACK
6
CONTINUOUS
10
186.352
20
-54.2308
11
186.186
21
-54.3185
0
LINE
8
BLACK
6
CONTINUOUS
10
186.186
20
-54.3185
11
186.005
21
-54.3684
0
LINE
8
BLACK
6
CONTINUOUS
10
186.005
20
-54.3684
11
185.817
21
-54.3782
0
LINE
8
BLACK
6
CONTINUOUS
10
185.817
20
-54.3782
11
185.632
21
-54.3475
0
LINE
8
BLACK
6
CONTINUOUS
10
185.632
20
-54.3475
11
185.457
21
-54.2777
0
LINE
8
BLACK
6
CONTINUOUS
10
185.457
20
-54.2777
11
185.302
21
-54.1721
0
LINE
8
BLACK
6
CONTINUOUS
10
185.302
20
-54.1721
11
185.173
21
-54.0356
0
LINE
8
BLACK
6
CONTINUOUS
10
185.173
20
-54.0356
11
185.076
21
-53.8745
0
LINE
8
BLACK
6
CONTINUOUS
10
185.076
20
-53.8745
11
185.016
21
-53.6964
0
LINE
8
BLACK
6
CONTINUOUS
10
185.016
20
-53.6964
11
184.996
21
-53.5096
0
LINE
8
BLACK
6
CONTINUOUS
10
184.996
20
-53.5096
11
184.996
21
-53.0596
0
LINE
8
BLACK
6
CONTINUOUS
10
184.996
20
-53.0596
11
185.001
21
-52.9626
0
LINE
8
BLACK
6
CONTINUOUS
10
185.001
20
-52.9626
11
185.042
21
-52.7792
0
LINE
8
BLACK
6
CONTINUOUS
10
185.042
20
-52.7792
11
185.121
21
-52.6089
0
LINE
8
BLACK
6
CONTINUOUS
10
185.121
20
-52.6089
11
185.235
21
-52.4596
0
LINE
8
BLACK
6
CONTINUOUS
10
185.235
20
-52.4596
11
185.379
21
-52.3383
0
LINE
8
BLACK
6
CONTINUOUS
10
185.379
20
-52.3383
11
185.545
21
-52.2507
0
LINE
8
BLACK
6
CONTINUOUS
10
185.545
20
-52.2507
11
185.726
21
-52.2008
0
LINE
8
BLACK
6
CONTINUOUS
10
185.726
20
-52.2008
11
185.914
21
-52.1909
0
LINE
8
BLACK
6
CONTINUOUS
10
185.914
20
-52.1909
11
186.099
21
-52.2216
0
LINE
8
BLACK
6
CONTINUOUS
10
188.639
20
-52.2216
11
188.814
21
-52.2914
0
LINE
8
BLACK
6
CONTINUOUS
10
188.814
20
-52.2914
11
188.969
21
-52.397
0
LINE
8
BLACK
6
CONTINUOUS
10
188.969
20
-52.397
11
189.098
21
-52.5336
0
LINE
8
BLACK
6
CONTINUOUS
10
189.098
20
-52.5336
11
189.195
21
-52.6947
0
LINE
8
BLACK
6
CONTINUOUS
10
189.195
20
-52.6947
11
189.255
21
-52.8728
0
LINE
8
BLACK
6
CONTINUOUS
10
189.255
20
-52.8728
11
189.276
21
-53.0596
0
LINE
8
BLACK
6
CONTINUOUS
10
189.276
20
-53.0596
11
189.276
21
-53.5096
0
LINE
8
BLACK
6
CONTINUOUS
10
189.276
20
-53.5096
11
189.27
21
-53.6066
0
LINE
8
BLACK
6
CONTINUOUS
10
189.27
20
-53.6066
11
189.229
21
-53.7899
0
LINE
8
BLACK
6
CONTINUOUS
10
189.229
20
-53.7899
11
189.15
21
-53.9603
0
LINE
8
BLACK
6
CONTINUOUS
10
189.15
20
-53.9603
11
189.036
21
-54.1095
0
LINE
8
BLACK
6
CONTINUOUS
10
189.036
20
-54.1095
11
188.892
21
-54.2308
0
LINE
8
BLACK
6
CONTINUOUS
10
188.892
20
-54.2308
11
188.726
21
-54.3185
0
LINE
8
BLACK
6
CONTINUOUS
10
188.726
20
-54.3185
11
188.545
21
-54.3684
0
LINE
8
BLACK
6
CONTINUOUS
10
188.545
20
-54.3684
11
188.357
21
-54.3782
0
LINE
8
BLACK
6
CONTINUOUS
10
188.357
20
-54.3782
11
188.172
21
-54.3475
0
LINE
8
BLACK
6
CONTINUOUS
10
188.172
20
-54.3475
11
187.997
21
-54.2777
0
LINE
8
BLACK
6
CONTINUOUS
10
187.997
20
-54.2777
11
187.842
21
-54.1721
0
LINE
8
BLACK
6
CONTINUOUS
10
187.842
20
-54.1721
11
187.713
21
-54.0356
0
LINE
8
BLACK
6
CONTINUOUS
10
187.713
20
-54.0356
11
187.616
21
-53.8745
0
LINE
8
BLACK
6
CONTINUOUS
10
187.616
20
-53.8745
11
187.556
21
-53.6964
0
LINE
8
BLACK
6
CONTINUOUS
10
187.556
20
-53.6964
11
187.536
21
-53.5096
0
LINE
8
BLACK
6
CONTINUOUS
10
187.536
20
-53.5096
11
187.536
21
-53.0596
0
LINE
8
BLACK
6
CONTINUOUS
10
187.536
20
-53.0596
11
187.541
21
-52.9626
0
LINE
8
BLACK
6
CONTINUOUS
10
187.541
20
-52.9626
11
187.582
21
-52.7792
0
LINE
8
BLACK
6
CONTINUOUS
10
187.582
20
-52.7792
11
187.661
21
-52.6089
0
LINE
8
BLACK
6
CONTINUOUS
10
187.661
20
-52.6089
11
187.775
21
-52.4596
0
LINE
8
BLACK
6
CONTINUOUS
10
187.775
20
-52.4596
11
187.919
21
-52.3383
0
LINE
8
BLACK
6
CONTINUOUS
10
187.919
20
-52.3383
11
188.085
21
-52.2507
0
LINE
8
BLACK
6
CONTINUOUS
10
188.085
20
-52.2507
11
188.266
21
-52.2008
0
LINE
8
BLACK
6
CONTINUOUS
10
188.266
20
-52.2008
11
188.454
21
-52.1909
0
LINE
8
BLACK
6
CONTINUOUS
10
188.454
20
-52.1909
11
188.639
21
-52.2216
  0
ENDSEC
  0
EOF
