G04 #@! TF.GenerationSoftware,KiCad,Pcbnew,(5.1.5-0-10_14)*
G04 #@! TF.CreationDate,2020-06-22T11:24:24+10:00*
G04 #@! TF.ProjectId,PowerDistribution,506f7765-7244-4697-9374-726962757469,rev?*
G04 #@! TF.SameCoordinates,Original*
G04 #@! TF.FileFunction,Copper,L1,Top*
G04 #@! TF.FilePolarity,Positive*
%FSLAX46Y46*%
G04 Gerber Fmt 4.6, Leading zero omitted, Abs format (unit mm)*
G04 Created by KiCad (PCBNEW (5.1.5-0-10_14)) date 2020-06-22 11:24:24*
%MOMM*%
%LPD*%
G04 APERTURE LIST*
%ADD10O,1.600000X1.600000*%
%ADD11C,1.600000*%
%ADD12C,1.800000*%
%ADD13R,1.800000X1.800000*%
%ADD14O,1.740000X2.200000*%
%ADD15C,0.100000*%
%ADD16O,2.200000X1.740000*%
%ADD17C,3.000000*%
%ADD18R,3.000000X3.000000*%
%ADD19C,1.000000*%
G04 APERTURE END LIST*
D10*
X110744000Y-97028000D03*
D11*
X110744000Y-104648000D03*
D10*
X110998000Y-58166000D03*
D11*
X110998000Y-65786000D03*
D12*
X108966000Y-83566000D03*
D13*
X111506000Y-83566000D03*
D12*
X108966000Y-78740000D03*
D13*
X111506000Y-78740000D03*
D14*
X162634000Y-101200000D03*
G04 #@! TA.AperFunction,ComponentPad*
D15*
G36*
X160738505Y-100101204D02*
G01*
X160762773Y-100104804D01*
X160786572Y-100110765D01*
X160809671Y-100119030D01*
X160831850Y-100129520D01*
X160852893Y-100142132D01*
X160872599Y-100156747D01*
X160890777Y-100173223D01*
X160907253Y-100191401D01*
X160921868Y-100211107D01*
X160934480Y-100232150D01*
X160944970Y-100254329D01*
X160953235Y-100277428D01*
X160959196Y-100301227D01*
X160962796Y-100325495D01*
X160964000Y-100349999D01*
X160964000Y-102050001D01*
X160962796Y-102074505D01*
X160959196Y-102098773D01*
X160953235Y-102122572D01*
X160944970Y-102145671D01*
X160934480Y-102167850D01*
X160921868Y-102188893D01*
X160907253Y-102208599D01*
X160890777Y-102226777D01*
X160872599Y-102243253D01*
X160852893Y-102257868D01*
X160831850Y-102270480D01*
X160809671Y-102280970D01*
X160786572Y-102289235D01*
X160762773Y-102295196D01*
X160738505Y-102298796D01*
X160714001Y-102300000D01*
X159473999Y-102300000D01*
X159449495Y-102298796D01*
X159425227Y-102295196D01*
X159401428Y-102289235D01*
X159378329Y-102280970D01*
X159356150Y-102270480D01*
X159335107Y-102257868D01*
X159315401Y-102243253D01*
X159297223Y-102226777D01*
X159280747Y-102208599D01*
X159266132Y-102188893D01*
X159253520Y-102167850D01*
X159243030Y-102145671D01*
X159234765Y-102122572D01*
X159228804Y-102098773D01*
X159225204Y-102074505D01*
X159224000Y-102050001D01*
X159224000Y-100349999D01*
X159225204Y-100325495D01*
X159228804Y-100301227D01*
X159234765Y-100277428D01*
X159243030Y-100254329D01*
X159253520Y-100232150D01*
X159266132Y-100211107D01*
X159280747Y-100191401D01*
X159297223Y-100173223D01*
X159315401Y-100156747D01*
X159335107Y-100142132D01*
X159356150Y-100129520D01*
X159378329Y-100119030D01*
X159401428Y-100110765D01*
X159425227Y-100104804D01*
X159449495Y-100101204D01*
X159473999Y-100100000D01*
X160714001Y-100100000D01*
X160738505Y-100101204D01*
G37*
G04 #@! TD.AperFunction*
D16*
X141966000Y-87804000D03*
G04 #@! TA.AperFunction,ComponentPad*
D15*
G36*
X142840505Y-89475204D02*
G01*
X142864773Y-89478804D01*
X142888572Y-89484765D01*
X142911671Y-89493030D01*
X142933850Y-89503520D01*
X142954893Y-89516132D01*
X142974599Y-89530747D01*
X142992777Y-89547223D01*
X143009253Y-89565401D01*
X143023868Y-89585107D01*
X143036480Y-89606150D01*
X143046970Y-89628329D01*
X143055235Y-89651428D01*
X143061196Y-89675227D01*
X143064796Y-89699495D01*
X143066000Y-89723999D01*
X143066000Y-90964001D01*
X143064796Y-90988505D01*
X143061196Y-91012773D01*
X143055235Y-91036572D01*
X143046970Y-91059671D01*
X143036480Y-91081850D01*
X143023868Y-91102893D01*
X143009253Y-91122599D01*
X142992777Y-91140777D01*
X142974599Y-91157253D01*
X142954893Y-91171868D01*
X142933850Y-91184480D01*
X142911671Y-91194970D01*
X142888572Y-91203235D01*
X142864773Y-91209196D01*
X142840505Y-91212796D01*
X142816001Y-91214000D01*
X141115999Y-91214000D01*
X141091495Y-91212796D01*
X141067227Y-91209196D01*
X141043428Y-91203235D01*
X141020329Y-91194970D01*
X140998150Y-91184480D01*
X140977107Y-91171868D01*
X140957401Y-91157253D01*
X140939223Y-91140777D01*
X140922747Y-91122599D01*
X140908132Y-91102893D01*
X140895520Y-91081850D01*
X140885030Y-91059671D01*
X140876765Y-91036572D01*
X140870804Y-91012773D01*
X140867204Y-90988505D01*
X140866000Y-90964001D01*
X140866000Y-89723999D01*
X140867204Y-89699495D01*
X140870804Y-89675227D01*
X140876765Y-89651428D01*
X140885030Y-89628329D01*
X140895520Y-89606150D01*
X140908132Y-89585107D01*
X140922747Y-89565401D01*
X140939223Y-89547223D01*
X140957401Y-89530747D01*
X140977107Y-89516132D01*
X140998150Y-89503520D01*
X141020329Y-89493030D01*
X141043428Y-89484765D01*
X141067227Y-89478804D01*
X141091495Y-89475204D01*
X141115999Y-89474000D01*
X142816001Y-89474000D01*
X142840505Y-89475204D01*
G37*
G04 #@! TD.AperFunction*
D16*
X141966000Y-72310000D03*
G04 #@! TA.AperFunction,ComponentPad*
D15*
G36*
X142840505Y-73981204D02*
G01*
X142864773Y-73984804D01*
X142888572Y-73990765D01*
X142911671Y-73999030D01*
X142933850Y-74009520D01*
X142954893Y-74022132D01*
X142974599Y-74036747D01*
X142992777Y-74053223D01*
X143009253Y-74071401D01*
X143023868Y-74091107D01*
X143036480Y-74112150D01*
X143046970Y-74134329D01*
X143055235Y-74157428D01*
X143061196Y-74181227D01*
X143064796Y-74205495D01*
X143066000Y-74229999D01*
X143066000Y-75470001D01*
X143064796Y-75494505D01*
X143061196Y-75518773D01*
X143055235Y-75542572D01*
X143046970Y-75565671D01*
X143036480Y-75587850D01*
X143023868Y-75608893D01*
X143009253Y-75628599D01*
X142992777Y-75646777D01*
X142974599Y-75663253D01*
X142954893Y-75677868D01*
X142933850Y-75690480D01*
X142911671Y-75700970D01*
X142888572Y-75709235D01*
X142864773Y-75715196D01*
X142840505Y-75718796D01*
X142816001Y-75720000D01*
X141115999Y-75720000D01*
X141091495Y-75718796D01*
X141067227Y-75715196D01*
X141043428Y-75709235D01*
X141020329Y-75700970D01*
X140998150Y-75690480D01*
X140977107Y-75677868D01*
X140957401Y-75663253D01*
X140939223Y-75646777D01*
X140922747Y-75628599D01*
X140908132Y-75608893D01*
X140895520Y-75587850D01*
X140885030Y-75565671D01*
X140876765Y-75542572D01*
X140870804Y-75518773D01*
X140867204Y-75494505D01*
X140866000Y-75470001D01*
X140866000Y-74229999D01*
X140867204Y-74205495D01*
X140870804Y-74181227D01*
X140876765Y-74157428D01*
X140885030Y-74134329D01*
X140895520Y-74112150D01*
X140908132Y-74091107D01*
X140922747Y-74071401D01*
X140939223Y-74053223D01*
X140957401Y-74036747D01*
X140977107Y-74022132D01*
X140998150Y-74009520D01*
X141020329Y-73999030D01*
X141043428Y-73990765D01*
X141067227Y-73984804D01*
X141091495Y-73981204D01*
X141115999Y-73980000D01*
X142816001Y-73980000D01*
X142840505Y-73981204D01*
G37*
G04 #@! TD.AperFunction*
D14*
X155940000Y-101200000D03*
G04 #@! TA.AperFunction,ComponentPad*
D15*
G36*
X154044505Y-100101204D02*
G01*
X154068773Y-100104804D01*
X154092572Y-100110765D01*
X154115671Y-100119030D01*
X154137850Y-100129520D01*
X154158893Y-100142132D01*
X154178599Y-100156747D01*
X154196777Y-100173223D01*
X154213253Y-100191401D01*
X154227868Y-100211107D01*
X154240480Y-100232150D01*
X154250970Y-100254329D01*
X154259235Y-100277428D01*
X154265196Y-100301227D01*
X154268796Y-100325495D01*
X154270000Y-100349999D01*
X154270000Y-102050001D01*
X154268796Y-102074505D01*
X154265196Y-102098773D01*
X154259235Y-102122572D01*
X154250970Y-102145671D01*
X154240480Y-102167850D01*
X154227868Y-102188893D01*
X154213253Y-102208599D01*
X154196777Y-102226777D01*
X154178599Y-102243253D01*
X154158893Y-102257868D01*
X154137850Y-102270480D01*
X154115671Y-102280970D01*
X154092572Y-102289235D01*
X154068773Y-102295196D01*
X154044505Y-102298796D01*
X154020001Y-102300000D01*
X152779999Y-102300000D01*
X152755495Y-102298796D01*
X152731227Y-102295196D01*
X152707428Y-102289235D01*
X152684329Y-102280970D01*
X152662150Y-102270480D01*
X152641107Y-102257868D01*
X152621401Y-102243253D01*
X152603223Y-102226777D01*
X152586747Y-102208599D01*
X152572132Y-102188893D01*
X152559520Y-102167850D01*
X152549030Y-102145671D01*
X152540765Y-102122572D01*
X152534804Y-102098773D01*
X152531204Y-102074505D01*
X152530000Y-102050001D01*
X152530000Y-100349999D01*
X152531204Y-100325495D01*
X152534804Y-100301227D01*
X152540765Y-100277428D01*
X152549030Y-100254329D01*
X152559520Y-100232150D01*
X152572132Y-100211107D01*
X152586747Y-100191401D01*
X152603223Y-100173223D01*
X152621401Y-100156747D01*
X152641107Y-100142132D01*
X152662150Y-100129520D01*
X152684329Y-100119030D01*
X152707428Y-100110765D01*
X152731227Y-100104804D01*
X152755495Y-100101204D01*
X152779999Y-100100000D01*
X154020001Y-100100000D01*
X154044505Y-100101204D01*
G37*
G04 #@! TD.AperFunction*
D16*
X141966000Y-94614000D03*
G04 #@! TA.AperFunction,ComponentPad*
D15*
G36*
X142840505Y-96285204D02*
G01*
X142864773Y-96288804D01*
X142888572Y-96294765D01*
X142911671Y-96303030D01*
X142933850Y-96313520D01*
X142954893Y-96326132D01*
X142974599Y-96340747D01*
X142992777Y-96357223D01*
X143009253Y-96375401D01*
X143023868Y-96395107D01*
X143036480Y-96416150D01*
X143046970Y-96438329D01*
X143055235Y-96461428D01*
X143061196Y-96485227D01*
X143064796Y-96509495D01*
X143066000Y-96533999D01*
X143066000Y-97774001D01*
X143064796Y-97798505D01*
X143061196Y-97822773D01*
X143055235Y-97846572D01*
X143046970Y-97869671D01*
X143036480Y-97891850D01*
X143023868Y-97912893D01*
X143009253Y-97932599D01*
X142992777Y-97950777D01*
X142974599Y-97967253D01*
X142954893Y-97981868D01*
X142933850Y-97994480D01*
X142911671Y-98004970D01*
X142888572Y-98013235D01*
X142864773Y-98019196D01*
X142840505Y-98022796D01*
X142816001Y-98024000D01*
X141115999Y-98024000D01*
X141091495Y-98022796D01*
X141067227Y-98019196D01*
X141043428Y-98013235D01*
X141020329Y-98004970D01*
X140998150Y-97994480D01*
X140977107Y-97981868D01*
X140957401Y-97967253D01*
X140939223Y-97950777D01*
X140922747Y-97932599D01*
X140908132Y-97912893D01*
X140895520Y-97891850D01*
X140885030Y-97869671D01*
X140876765Y-97846572D01*
X140870804Y-97822773D01*
X140867204Y-97798505D01*
X140866000Y-97774001D01*
X140866000Y-96533999D01*
X140867204Y-96509495D01*
X140870804Y-96485227D01*
X140876765Y-96461428D01*
X140885030Y-96438329D01*
X140895520Y-96416150D01*
X140908132Y-96395107D01*
X140922747Y-96375401D01*
X140939223Y-96357223D01*
X140957401Y-96340747D01*
X140977107Y-96326132D01*
X140998150Y-96313520D01*
X141020329Y-96303030D01*
X141043428Y-96294765D01*
X141067227Y-96288804D01*
X141091495Y-96285204D01*
X141115999Y-96284000D01*
X142816001Y-96284000D01*
X142840505Y-96285204D01*
G37*
G04 #@! TD.AperFunction*
D16*
X141966000Y-65550000D03*
G04 #@! TA.AperFunction,ComponentPad*
D15*
G36*
X142840505Y-67221204D02*
G01*
X142864773Y-67224804D01*
X142888572Y-67230765D01*
X142911671Y-67239030D01*
X142933850Y-67249520D01*
X142954893Y-67262132D01*
X142974599Y-67276747D01*
X142992777Y-67293223D01*
X143009253Y-67311401D01*
X143023868Y-67331107D01*
X143036480Y-67352150D01*
X143046970Y-67374329D01*
X143055235Y-67397428D01*
X143061196Y-67421227D01*
X143064796Y-67445495D01*
X143066000Y-67469999D01*
X143066000Y-68710001D01*
X143064796Y-68734505D01*
X143061196Y-68758773D01*
X143055235Y-68782572D01*
X143046970Y-68805671D01*
X143036480Y-68827850D01*
X143023868Y-68848893D01*
X143009253Y-68868599D01*
X142992777Y-68886777D01*
X142974599Y-68903253D01*
X142954893Y-68917868D01*
X142933850Y-68930480D01*
X142911671Y-68940970D01*
X142888572Y-68949235D01*
X142864773Y-68955196D01*
X142840505Y-68958796D01*
X142816001Y-68960000D01*
X141115999Y-68960000D01*
X141091495Y-68958796D01*
X141067227Y-68955196D01*
X141043428Y-68949235D01*
X141020329Y-68940970D01*
X140998150Y-68930480D01*
X140977107Y-68917868D01*
X140957401Y-68903253D01*
X140939223Y-68886777D01*
X140922747Y-68868599D01*
X140908132Y-68848893D01*
X140895520Y-68827850D01*
X140885030Y-68805671D01*
X140876765Y-68782572D01*
X140870804Y-68758773D01*
X140867204Y-68734505D01*
X140866000Y-68710001D01*
X140866000Y-67469999D01*
X140867204Y-67445495D01*
X140870804Y-67421227D01*
X140876765Y-67397428D01*
X140885030Y-67374329D01*
X140895520Y-67352150D01*
X140908132Y-67331107D01*
X140922747Y-67311401D01*
X140939223Y-67293223D01*
X140957401Y-67276747D01*
X140977107Y-67262132D01*
X140998150Y-67249520D01*
X141020329Y-67239030D01*
X141043428Y-67230765D01*
X141067227Y-67224804D01*
X141091495Y-67221204D01*
X141115999Y-67220000D01*
X142816001Y-67220000D01*
X142840505Y-67221204D01*
G37*
G04 #@! TD.AperFunction*
D14*
X155940000Y-93056000D03*
G04 #@! TA.AperFunction,ComponentPad*
D15*
G36*
X154044505Y-91957204D02*
G01*
X154068773Y-91960804D01*
X154092572Y-91966765D01*
X154115671Y-91975030D01*
X154137850Y-91985520D01*
X154158893Y-91998132D01*
X154178599Y-92012747D01*
X154196777Y-92029223D01*
X154213253Y-92047401D01*
X154227868Y-92067107D01*
X154240480Y-92088150D01*
X154250970Y-92110329D01*
X154259235Y-92133428D01*
X154265196Y-92157227D01*
X154268796Y-92181495D01*
X154270000Y-92205999D01*
X154270000Y-93906001D01*
X154268796Y-93930505D01*
X154265196Y-93954773D01*
X154259235Y-93978572D01*
X154250970Y-94001671D01*
X154240480Y-94023850D01*
X154227868Y-94044893D01*
X154213253Y-94064599D01*
X154196777Y-94082777D01*
X154178599Y-94099253D01*
X154158893Y-94113868D01*
X154137850Y-94126480D01*
X154115671Y-94136970D01*
X154092572Y-94145235D01*
X154068773Y-94151196D01*
X154044505Y-94154796D01*
X154020001Y-94156000D01*
X152779999Y-94156000D01*
X152755495Y-94154796D01*
X152731227Y-94151196D01*
X152707428Y-94145235D01*
X152684329Y-94136970D01*
X152662150Y-94126480D01*
X152641107Y-94113868D01*
X152621401Y-94099253D01*
X152603223Y-94082777D01*
X152586747Y-94064599D01*
X152572132Y-94044893D01*
X152559520Y-94023850D01*
X152549030Y-94001671D01*
X152540765Y-93978572D01*
X152534804Y-93954773D01*
X152531204Y-93930505D01*
X152530000Y-93906001D01*
X152530000Y-92205999D01*
X152531204Y-92181495D01*
X152534804Y-92157227D01*
X152540765Y-92133428D01*
X152549030Y-92110329D01*
X152559520Y-92088150D01*
X152572132Y-92067107D01*
X152586747Y-92047401D01*
X152603223Y-92029223D01*
X152621401Y-92012747D01*
X152641107Y-91998132D01*
X152662150Y-91985520D01*
X152684329Y-91975030D01*
X152707428Y-91966765D01*
X152731227Y-91960804D01*
X152755495Y-91957204D01*
X152779999Y-91956000D01*
X154020001Y-91956000D01*
X154044505Y-91957204D01*
G37*
G04 #@! TD.AperFunction*
D16*
X141966000Y-101424000D03*
G04 #@! TA.AperFunction,ComponentPad*
D15*
G36*
X142840505Y-103095204D02*
G01*
X142864773Y-103098804D01*
X142888572Y-103104765D01*
X142911671Y-103113030D01*
X142933850Y-103123520D01*
X142954893Y-103136132D01*
X142974599Y-103150747D01*
X142992777Y-103167223D01*
X143009253Y-103185401D01*
X143023868Y-103205107D01*
X143036480Y-103226150D01*
X143046970Y-103248329D01*
X143055235Y-103271428D01*
X143061196Y-103295227D01*
X143064796Y-103319495D01*
X143066000Y-103343999D01*
X143066000Y-104584001D01*
X143064796Y-104608505D01*
X143061196Y-104632773D01*
X143055235Y-104656572D01*
X143046970Y-104679671D01*
X143036480Y-104701850D01*
X143023868Y-104722893D01*
X143009253Y-104742599D01*
X142992777Y-104760777D01*
X142974599Y-104777253D01*
X142954893Y-104791868D01*
X142933850Y-104804480D01*
X142911671Y-104814970D01*
X142888572Y-104823235D01*
X142864773Y-104829196D01*
X142840505Y-104832796D01*
X142816001Y-104834000D01*
X141115999Y-104834000D01*
X141091495Y-104832796D01*
X141067227Y-104829196D01*
X141043428Y-104823235D01*
X141020329Y-104814970D01*
X140998150Y-104804480D01*
X140977107Y-104791868D01*
X140957401Y-104777253D01*
X140939223Y-104760777D01*
X140922747Y-104742599D01*
X140908132Y-104722893D01*
X140895520Y-104701850D01*
X140885030Y-104679671D01*
X140876765Y-104656572D01*
X140870804Y-104632773D01*
X140867204Y-104608505D01*
X140866000Y-104584001D01*
X140866000Y-103343999D01*
X140867204Y-103319495D01*
X140870804Y-103295227D01*
X140876765Y-103271428D01*
X140885030Y-103248329D01*
X140895520Y-103226150D01*
X140908132Y-103205107D01*
X140922747Y-103185401D01*
X140939223Y-103167223D01*
X140957401Y-103150747D01*
X140977107Y-103136132D01*
X140998150Y-103123520D01*
X141020329Y-103113030D01*
X141043428Y-103104765D01*
X141067227Y-103098804D01*
X141091495Y-103095204D01*
X141115999Y-103094000D01*
X142816001Y-103094000D01*
X142840505Y-103095204D01*
G37*
G04 #@! TD.AperFunction*
D16*
X133419000Y-72310000D03*
G04 #@! TA.AperFunction,ComponentPad*
D15*
G36*
X134293505Y-73981204D02*
G01*
X134317773Y-73984804D01*
X134341572Y-73990765D01*
X134364671Y-73999030D01*
X134386850Y-74009520D01*
X134407893Y-74022132D01*
X134427599Y-74036747D01*
X134445777Y-74053223D01*
X134462253Y-74071401D01*
X134476868Y-74091107D01*
X134489480Y-74112150D01*
X134499970Y-74134329D01*
X134508235Y-74157428D01*
X134514196Y-74181227D01*
X134517796Y-74205495D01*
X134519000Y-74229999D01*
X134519000Y-75470001D01*
X134517796Y-75494505D01*
X134514196Y-75518773D01*
X134508235Y-75542572D01*
X134499970Y-75565671D01*
X134489480Y-75587850D01*
X134476868Y-75608893D01*
X134462253Y-75628599D01*
X134445777Y-75646777D01*
X134427599Y-75663253D01*
X134407893Y-75677868D01*
X134386850Y-75690480D01*
X134364671Y-75700970D01*
X134341572Y-75709235D01*
X134317773Y-75715196D01*
X134293505Y-75718796D01*
X134269001Y-75720000D01*
X132568999Y-75720000D01*
X132544495Y-75718796D01*
X132520227Y-75715196D01*
X132496428Y-75709235D01*
X132473329Y-75700970D01*
X132451150Y-75690480D01*
X132430107Y-75677868D01*
X132410401Y-75663253D01*
X132392223Y-75646777D01*
X132375747Y-75628599D01*
X132361132Y-75608893D01*
X132348520Y-75587850D01*
X132338030Y-75565671D01*
X132329765Y-75542572D01*
X132323804Y-75518773D01*
X132320204Y-75494505D01*
X132319000Y-75470001D01*
X132319000Y-74229999D01*
X132320204Y-74205495D01*
X132323804Y-74181227D01*
X132329765Y-74157428D01*
X132338030Y-74134329D01*
X132348520Y-74112150D01*
X132361132Y-74091107D01*
X132375747Y-74071401D01*
X132392223Y-74053223D01*
X132410401Y-74036747D01*
X132430107Y-74022132D01*
X132451150Y-74009520D01*
X132473329Y-73999030D01*
X132496428Y-73990765D01*
X132520227Y-73984804D01*
X132544495Y-73981204D01*
X132568999Y-73980000D01*
X134269001Y-73980000D01*
X134293505Y-73981204D01*
G37*
G04 #@! TD.AperFunction*
D14*
X162634000Y-93056000D03*
G04 #@! TA.AperFunction,ComponentPad*
D15*
G36*
X160738505Y-91957204D02*
G01*
X160762773Y-91960804D01*
X160786572Y-91966765D01*
X160809671Y-91975030D01*
X160831850Y-91985520D01*
X160852893Y-91998132D01*
X160872599Y-92012747D01*
X160890777Y-92029223D01*
X160907253Y-92047401D01*
X160921868Y-92067107D01*
X160934480Y-92088150D01*
X160944970Y-92110329D01*
X160953235Y-92133428D01*
X160959196Y-92157227D01*
X160962796Y-92181495D01*
X160964000Y-92205999D01*
X160964000Y-93906001D01*
X160962796Y-93930505D01*
X160959196Y-93954773D01*
X160953235Y-93978572D01*
X160944970Y-94001671D01*
X160934480Y-94023850D01*
X160921868Y-94044893D01*
X160907253Y-94064599D01*
X160890777Y-94082777D01*
X160872599Y-94099253D01*
X160852893Y-94113868D01*
X160831850Y-94126480D01*
X160809671Y-94136970D01*
X160786572Y-94145235D01*
X160762773Y-94151196D01*
X160738505Y-94154796D01*
X160714001Y-94156000D01*
X159473999Y-94156000D01*
X159449495Y-94154796D01*
X159425227Y-94151196D01*
X159401428Y-94145235D01*
X159378329Y-94136970D01*
X159356150Y-94126480D01*
X159335107Y-94113868D01*
X159315401Y-94099253D01*
X159297223Y-94082777D01*
X159280747Y-94064599D01*
X159266132Y-94044893D01*
X159253520Y-94023850D01*
X159243030Y-94001671D01*
X159234765Y-93978572D01*
X159228804Y-93954773D01*
X159225204Y-93930505D01*
X159224000Y-93906001D01*
X159224000Y-92205999D01*
X159225204Y-92181495D01*
X159228804Y-92157227D01*
X159234765Y-92133428D01*
X159243030Y-92110329D01*
X159253520Y-92088150D01*
X159266132Y-92067107D01*
X159280747Y-92047401D01*
X159297223Y-92029223D01*
X159315401Y-92012747D01*
X159335107Y-91998132D01*
X159356150Y-91985520D01*
X159378329Y-91975030D01*
X159401428Y-91966765D01*
X159425227Y-91960804D01*
X159449495Y-91957204D01*
X159473999Y-91956000D01*
X160714001Y-91956000D01*
X160738505Y-91957204D01*
G37*
G04 #@! TD.AperFunction*
D16*
X133419000Y-101424000D03*
G04 #@! TA.AperFunction,ComponentPad*
D15*
G36*
X134293505Y-103095204D02*
G01*
X134317773Y-103098804D01*
X134341572Y-103104765D01*
X134364671Y-103113030D01*
X134386850Y-103123520D01*
X134407893Y-103136132D01*
X134427599Y-103150747D01*
X134445777Y-103167223D01*
X134462253Y-103185401D01*
X134476868Y-103205107D01*
X134489480Y-103226150D01*
X134499970Y-103248329D01*
X134508235Y-103271428D01*
X134514196Y-103295227D01*
X134517796Y-103319495D01*
X134519000Y-103343999D01*
X134519000Y-104584001D01*
X134517796Y-104608505D01*
X134514196Y-104632773D01*
X134508235Y-104656572D01*
X134499970Y-104679671D01*
X134489480Y-104701850D01*
X134476868Y-104722893D01*
X134462253Y-104742599D01*
X134445777Y-104760777D01*
X134427599Y-104777253D01*
X134407893Y-104791868D01*
X134386850Y-104804480D01*
X134364671Y-104814970D01*
X134341572Y-104823235D01*
X134317773Y-104829196D01*
X134293505Y-104832796D01*
X134269001Y-104834000D01*
X132568999Y-104834000D01*
X132544495Y-104832796D01*
X132520227Y-104829196D01*
X132496428Y-104823235D01*
X132473329Y-104814970D01*
X132451150Y-104804480D01*
X132430107Y-104791868D01*
X132410401Y-104777253D01*
X132392223Y-104760777D01*
X132375747Y-104742599D01*
X132361132Y-104722893D01*
X132348520Y-104701850D01*
X132338030Y-104679671D01*
X132329765Y-104656572D01*
X132323804Y-104632773D01*
X132320204Y-104608505D01*
X132319000Y-104584001D01*
X132319000Y-103343999D01*
X132320204Y-103319495D01*
X132323804Y-103295227D01*
X132329765Y-103271428D01*
X132338030Y-103248329D01*
X132348520Y-103226150D01*
X132361132Y-103205107D01*
X132375747Y-103185401D01*
X132392223Y-103167223D01*
X132410401Y-103150747D01*
X132430107Y-103136132D01*
X132451150Y-103123520D01*
X132473329Y-103113030D01*
X132496428Y-103104765D01*
X132520227Y-103098804D01*
X132544495Y-103095204D01*
X132568999Y-103094000D01*
X134269001Y-103094000D01*
X134293505Y-103095204D01*
G37*
G04 #@! TD.AperFunction*
D16*
X141966000Y-58790000D03*
G04 #@! TA.AperFunction,ComponentPad*
D15*
G36*
X142840505Y-60461204D02*
G01*
X142864773Y-60464804D01*
X142888572Y-60470765D01*
X142911671Y-60479030D01*
X142933850Y-60489520D01*
X142954893Y-60502132D01*
X142974599Y-60516747D01*
X142992777Y-60533223D01*
X143009253Y-60551401D01*
X143023868Y-60571107D01*
X143036480Y-60592150D01*
X143046970Y-60614329D01*
X143055235Y-60637428D01*
X143061196Y-60661227D01*
X143064796Y-60685495D01*
X143066000Y-60709999D01*
X143066000Y-61950001D01*
X143064796Y-61974505D01*
X143061196Y-61998773D01*
X143055235Y-62022572D01*
X143046970Y-62045671D01*
X143036480Y-62067850D01*
X143023868Y-62088893D01*
X143009253Y-62108599D01*
X142992777Y-62126777D01*
X142974599Y-62143253D01*
X142954893Y-62157868D01*
X142933850Y-62170480D01*
X142911671Y-62180970D01*
X142888572Y-62189235D01*
X142864773Y-62195196D01*
X142840505Y-62198796D01*
X142816001Y-62200000D01*
X141115999Y-62200000D01*
X141091495Y-62198796D01*
X141067227Y-62195196D01*
X141043428Y-62189235D01*
X141020329Y-62180970D01*
X140998150Y-62170480D01*
X140977107Y-62157868D01*
X140957401Y-62143253D01*
X140939223Y-62126777D01*
X140922747Y-62108599D01*
X140908132Y-62088893D01*
X140895520Y-62067850D01*
X140885030Y-62045671D01*
X140876765Y-62022572D01*
X140870804Y-61998773D01*
X140867204Y-61974505D01*
X140866000Y-61950001D01*
X140866000Y-60709999D01*
X140867204Y-60685495D01*
X140870804Y-60661227D01*
X140876765Y-60637428D01*
X140885030Y-60614329D01*
X140895520Y-60592150D01*
X140908132Y-60571107D01*
X140922747Y-60551401D01*
X140939223Y-60533223D01*
X140957401Y-60516747D01*
X140977107Y-60502132D01*
X140998150Y-60489520D01*
X141020329Y-60479030D01*
X141043428Y-60470765D01*
X141067227Y-60464804D01*
X141091495Y-60461204D01*
X141115999Y-60460000D01*
X142816001Y-60460000D01*
X142840505Y-60461204D01*
G37*
G04 #@! TD.AperFunction*
D14*
X169328000Y-93056000D03*
G04 #@! TA.AperFunction,ComponentPad*
D15*
G36*
X167432505Y-91957204D02*
G01*
X167456773Y-91960804D01*
X167480572Y-91966765D01*
X167503671Y-91975030D01*
X167525850Y-91985520D01*
X167546893Y-91998132D01*
X167566599Y-92012747D01*
X167584777Y-92029223D01*
X167601253Y-92047401D01*
X167615868Y-92067107D01*
X167628480Y-92088150D01*
X167638970Y-92110329D01*
X167647235Y-92133428D01*
X167653196Y-92157227D01*
X167656796Y-92181495D01*
X167658000Y-92205999D01*
X167658000Y-93906001D01*
X167656796Y-93930505D01*
X167653196Y-93954773D01*
X167647235Y-93978572D01*
X167638970Y-94001671D01*
X167628480Y-94023850D01*
X167615868Y-94044893D01*
X167601253Y-94064599D01*
X167584777Y-94082777D01*
X167566599Y-94099253D01*
X167546893Y-94113868D01*
X167525850Y-94126480D01*
X167503671Y-94136970D01*
X167480572Y-94145235D01*
X167456773Y-94151196D01*
X167432505Y-94154796D01*
X167408001Y-94156000D01*
X166167999Y-94156000D01*
X166143495Y-94154796D01*
X166119227Y-94151196D01*
X166095428Y-94145235D01*
X166072329Y-94136970D01*
X166050150Y-94126480D01*
X166029107Y-94113868D01*
X166009401Y-94099253D01*
X165991223Y-94082777D01*
X165974747Y-94064599D01*
X165960132Y-94044893D01*
X165947520Y-94023850D01*
X165937030Y-94001671D01*
X165928765Y-93978572D01*
X165922804Y-93954773D01*
X165919204Y-93930505D01*
X165918000Y-93906001D01*
X165918000Y-92205999D01*
X165919204Y-92181495D01*
X165922804Y-92157227D01*
X165928765Y-92133428D01*
X165937030Y-92110329D01*
X165947520Y-92088150D01*
X165960132Y-92067107D01*
X165974747Y-92047401D01*
X165991223Y-92029223D01*
X166009401Y-92012747D01*
X166029107Y-91998132D01*
X166050150Y-91985520D01*
X166072329Y-91975030D01*
X166095428Y-91966765D01*
X166119227Y-91960804D01*
X166143495Y-91957204D01*
X166167999Y-91956000D01*
X167408001Y-91956000D01*
X167432505Y-91957204D01*
G37*
G04 #@! TD.AperFunction*
D16*
X133419000Y-87804000D03*
G04 #@! TA.AperFunction,ComponentPad*
D15*
G36*
X134293505Y-89475204D02*
G01*
X134317773Y-89478804D01*
X134341572Y-89484765D01*
X134364671Y-89493030D01*
X134386850Y-89503520D01*
X134407893Y-89516132D01*
X134427599Y-89530747D01*
X134445777Y-89547223D01*
X134462253Y-89565401D01*
X134476868Y-89585107D01*
X134489480Y-89606150D01*
X134499970Y-89628329D01*
X134508235Y-89651428D01*
X134514196Y-89675227D01*
X134517796Y-89699495D01*
X134519000Y-89723999D01*
X134519000Y-90964001D01*
X134517796Y-90988505D01*
X134514196Y-91012773D01*
X134508235Y-91036572D01*
X134499970Y-91059671D01*
X134489480Y-91081850D01*
X134476868Y-91102893D01*
X134462253Y-91122599D01*
X134445777Y-91140777D01*
X134427599Y-91157253D01*
X134407893Y-91171868D01*
X134386850Y-91184480D01*
X134364671Y-91194970D01*
X134341572Y-91203235D01*
X134317773Y-91209196D01*
X134293505Y-91212796D01*
X134269001Y-91214000D01*
X132568999Y-91214000D01*
X132544495Y-91212796D01*
X132520227Y-91209196D01*
X132496428Y-91203235D01*
X132473329Y-91194970D01*
X132451150Y-91184480D01*
X132430107Y-91171868D01*
X132410401Y-91157253D01*
X132392223Y-91140777D01*
X132375747Y-91122599D01*
X132361132Y-91102893D01*
X132348520Y-91081850D01*
X132338030Y-91059671D01*
X132329765Y-91036572D01*
X132323804Y-91012773D01*
X132320204Y-90988505D01*
X132319000Y-90964001D01*
X132319000Y-89723999D01*
X132320204Y-89699495D01*
X132323804Y-89675227D01*
X132329765Y-89651428D01*
X132338030Y-89628329D01*
X132348520Y-89606150D01*
X132361132Y-89585107D01*
X132375747Y-89565401D01*
X132392223Y-89547223D01*
X132410401Y-89530747D01*
X132430107Y-89516132D01*
X132451150Y-89503520D01*
X132473329Y-89493030D01*
X132496428Y-89484765D01*
X132520227Y-89478804D01*
X132544495Y-89475204D01*
X132568999Y-89474000D01*
X134269001Y-89474000D01*
X134293505Y-89475204D01*
G37*
G04 #@! TD.AperFunction*
D16*
X133419000Y-65550000D03*
G04 #@! TA.AperFunction,ComponentPad*
D15*
G36*
X134293505Y-67221204D02*
G01*
X134317773Y-67224804D01*
X134341572Y-67230765D01*
X134364671Y-67239030D01*
X134386850Y-67249520D01*
X134407893Y-67262132D01*
X134427599Y-67276747D01*
X134445777Y-67293223D01*
X134462253Y-67311401D01*
X134476868Y-67331107D01*
X134489480Y-67352150D01*
X134499970Y-67374329D01*
X134508235Y-67397428D01*
X134514196Y-67421227D01*
X134517796Y-67445495D01*
X134519000Y-67469999D01*
X134519000Y-68710001D01*
X134517796Y-68734505D01*
X134514196Y-68758773D01*
X134508235Y-68782572D01*
X134499970Y-68805671D01*
X134489480Y-68827850D01*
X134476868Y-68848893D01*
X134462253Y-68868599D01*
X134445777Y-68886777D01*
X134427599Y-68903253D01*
X134407893Y-68917868D01*
X134386850Y-68930480D01*
X134364671Y-68940970D01*
X134341572Y-68949235D01*
X134317773Y-68955196D01*
X134293505Y-68958796D01*
X134269001Y-68960000D01*
X132568999Y-68960000D01*
X132544495Y-68958796D01*
X132520227Y-68955196D01*
X132496428Y-68949235D01*
X132473329Y-68940970D01*
X132451150Y-68930480D01*
X132430107Y-68917868D01*
X132410401Y-68903253D01*
X132392223Y-68886777D01*
X132375747Y-68868599D01*
X132361132Y-68848893D01*
X132348520Y-68827850D01*
X132338030Y-68805671D01*
X132329765Y-68782572D01*
X132323804Y-68758773D01*
X132320204Y-68734505D01*
X132319000Y-68710001D01*
X132319000Y-67469999D01*
X132320204Y-67445495D01*
X132323804Y-67421227D01*
X132329765Y-67397428D01*
X132338030Y-67374329D01*
X132348520Y-67352150D01*
X132361132Y-67331107D01*
X132375747Y-67311401D01*
X132392223Y-67293223D01*
X132410401Y-67276747D01*
X132430107Y-67262132D01*
X132451150Y-67249520D01*
X132473329Y-67239030D01*
X132496428Y-67230765D01*
X132520227Y-67224804D01*
X132544495Y-67221204D01*
X132568999Y-67220000D01*
X134269001Y-67220000D01*
X134293505Y-67221204D01*
G37*
G04 #@! TD.AperFunction*
D14*
X169328000Y-84912000D03*
G04 #@! TA.AperFunction,ComponentPad*
D15*
G36*
X167432505Y-83813204D02*
G01*
X167456773Y-83816804D01*
X167480572Y-83822765D01*
X167503671Y-83831030D01*
X167525850Y-83841520D01*
X167546893Y-83854132D01*
X167566599Y-83868747D01*
X167584777Y-83885223D01*
X167601253Y-83903401D01*
X167615868Y-83923107D01*
X167628480Y-83944150D01*
X167638970Y-83966329D01*
X167647235Y-83989428D01*
X167653196Y-84013227D01*
X167656796Y-84037495D01*
X167658000Y-84061999D01*
X167658000Y-85762001D01*
X167656796Y-85786505D01*
X167653196Y-85810773D01*
X167647235Y-85834572D01*
X167638970Y-85857671D01*
X167628480Y-85879850D01*
X167615868Y-85900893D01*
X167601253Y-85920599D01*
X167584777Y-85938777D01*
X167566599Y-85955253D01*
X167546893Y-85969868D01*
X167525850Y-85982480D01*
X167503671Y-85992970D01*
X167480572Y-86001235D01*
X167456773Y-86007196D01*
X167432505Y-86010796D01*
X167408001Y-86012000D01*
X166167999Y-86012000D01*
X166143495Y-86010796D01*
X166119227Y-86007196D01*
X166095428Y-86001235D01*
X166072329Y-85992970D01*
X166050150Y-85982480D01*
X166029107Y-85969868D01*
X166009401Y-85955253D01*
X165991223Y-85938777D01*
X165974747Y-85920599D01*
X165960132Y-85900893D01*
X165947520Y-85879850D01*
X165937030Y-85857671D01*
X165928765Y-85834572D01*
X165922804Y-85810773D01*
X165919204Y-85786505D01*
X165918000Y-85762001D01*
X165918000Y-84061999D01*
X165919204Y-84037495D01*
X165922804Y-84013227D01*
X165928765Y-83989428D01*
X165937030Y-83966329D01*
X165947520Y-83944150D01*
X165960132Y-83923107D01*
X165974747Y-83903401D01*
X165991223Y-83885223D01*
X166009401Y-83868747D01*
X166029107Y-83854132D01*
X166050150Y-83841520D01*
X166072329Y-83831030D01*
X166095428Y-83822765D01*
X166119227Y-83816804D01*
X166143495Y-83813204D01*
X166167999Y-83812000D01*
X167408001Y-83812000D01*
X167432505Y-83813204D01*
G37*
G04 #@! TD.AperFunction*
D16*
X124873000Y-101424000D03*
G04 #@! TA.AperFunction,ComponentPad*
D15*
G36*
X125747505Y-103095204D02*
G01*
X125771773Y-103098804D01*
X125795572Y-103104765D01*
X125818671Y-103113030D01*
X125840850Y-103123520D01*
X125861893Y-103136132D01*
X125881599Y-103150747D01*
X125899777Y-103167223D01*
X125916253Y-103185401D01*
X125930868Y-103205107D01*
X125943480Y-103226150D01*
X125953970Y-103248329D01*
X125962235Y-103271428D01*
X125968196Y-103295227D01*
X125971796Y-103319495D01*
X125973000Y-103343999D01*
X125973000Y-104584001D01*
X125971796Y-104608505D01*
X125968196Y-104632773D01*
X125962235Y-104656572D01*
X125953970Y-104679671D01*
X125943480Y-104701850D01*
X125930868Y-104722893D01*
X125916253Y-104742599D01*
X125899777Y-104760777D01*
X125881599Y-104777253D01*
X125861893Y-104791868D01*
X125840850Y-104804480D01*
X125818671Y-104814970D01*
X125795572Y-104823235D01*
X125771773Y-104829196D01*
X125747505Y-104832796D01*
X125723001Y-104834000D01*
X124022999Y-104834000D01*
X123998495Y-104832796D01*
X123974227Y-104829196D01*
X123950428Y-104823235D01*
X123927329Y-104814970D01*
X123905150Y-104804480D01*
X123884107Y-104791868D01*
X123864401Y-104777253D01*
X123846223Y-104760777D01*
X123829747Y-104742599D01*
X123815132Y-104722893D01*
X123802520Y-104701850D01*
X123792030Y-104679671D01*
X123783765Y-104656572D01*
X123777804Y-104632773D01*
X123774204Y-104608505D01*
X123773000Y-104584001D01*
X123773000Y-103343999D01*
X123774204Y-103319495D01*
X123777804Y-103295227D01*
X123783765Y-103271428D01*
X123792030Y-103248329D01*
X123802520Y-103226150D01*
X123815132Y-103205107D01*
X123829747Y-103185401D01*
X123846223Y-103167223D01*
X123864401Y-103150747D01*
X123884107Y-103136132D01*
X123905150Y-103123520D01*
X123927329Y-103113030D01*
X123950428Y-103104765D01*
X123974227Y-103098804D01*
X123998495Y-103095204D01*
X124022999Y-103094000D01*
X125723001Y-103094000D01*
X125747505Y-103095204D01*
G37*
G04 #@! TD.AperFunction*
D16*
X133419000Y-58790000D03*
G04 #@! TA.AperFunction,ComponentPad*
D15*
G36*
X134293505Y-60461204D02*
G01*
X134317773Y-60464804D01*
X134341572Y-60470765D01*
X134364671Y-60479030D01*
X134386850Y-60489520D01*
X134407893Y-60502132D01*
X134427599Y-60516747D01*
X134445777Y-60533223D01*
X134462253Y-60551401D01*
X134476868Y-60571107D01*
X134489480Y-60592150D01*
X134499970Y-60614329D01*
X134508235Y-60637428D01*
X134514196Y-60661227D01*
X134517796Y-60685495D01*
X134519000Y-60709999D01*
X134519000Y-61950001D01*
X134517796Y-61974505D01*
X134514196Y-61998773D01*
X134508235Y-62022572D01*
X134499970Y-62045671D01*
X134489480Y-62067850D01*
X134476868Y-62088893D01*
X134462253Y-62108599D01*
X134445777Y-62126777D01*
X134427599Y-62143253D01*
X134407893Y-62157868D01*
X134386850Y-62170480D01*
X134364671Y-62180970D01*
X134341572Y-62189235D01*
X134317773Y-62195196D01*
X134293505Y-62198796D01*
X134269001Y-62200000D01*
X132568999Y-62200000D01*
X132544495Y-62198796D01*
X132520227Y-62195196D01*
X132496428Y-62189235D01*
X132473329Y-62180970D01*
X132451150Y-62170480D01*
X132430107Y-62157868D01*
X132410401Y-62143253D01*
X132392223Y-62126777D01*
X132375747Y-62108599D01*
X132361132Y-62088893D01*
X132348520Y-62067850D01*
X132338030Y-62045671D01*
X132329765Y-62022572D01*
X132323804Y-61998773D01*
X132320204Y-61974505D01*
X132319000Y-61950001D01*
X132319000Y-60709999D01*
X132320204Y-60685495D01*
X132323804Y-60661227D01*
X132329765Y-60637428D01*
X132338030Y-60614329D01*
X132348520Y-60592150D01*
X132361132Y-60571107D01*
X132375747Y-60551401D01*
X132392223Y-60533223D01*
X132410401Y-60516747D01*
X132430107Y-60502132D01*
X132451150Y-60489520D01*
X132473329Y-60479030D01*
X132496428Y-60470765D01*
X132520227Y-60464804D01*
X132544495Y-60461204D01*
X132568999Y-60460000D01*
X134269001Y-60460000D01*
X134293505Y-60461204D01*
G37*
G04 #@! TD.AperFunction*
D14*
X162634000Y-84912000D03*
G04 #@! TA.AperFunction,ComponentPad*
D15*
G36*
X160738505Y-83813204D02*
G01*
X160762773Y-83816804D01*
X160786572Y-83822765D01*
X160809671Y-83831030D01*
X160831850Y-83841520D01*
X160852893Y-83854132D01*
X160872599Y-83868747D01*
X160890777Y-83885223D01*
X160907253Y-83903401D01*
X160921868Y-83923107D01*
X160934480Y-83944150D01*
X160944970Y-83966329D01*
X160953235Y-83989428D01*
X160959196Y-84013227D01*
X160962796Y-84037495D01*
X160964000Y-84061999D01*
X160964000Y-85762001D01*
X160962796Y-85786505D01*
X160959196Y-85810773D01*
X160953235Y-85834572D01*
X160944970Y-85857671D01*
X160934480Y-85879850D01*
X160921868Y-85900893D01*
X160907253Y-85920599D01*
X160890777Y-85938777D01*
X160872599Y-85955253D01*
X160852893Y-85969868D01*
X160831850Y-85982480D01*
X160809671Y-85992970D01*
X160786572Y-86001235D01*
X160762773Y-86007196D01*
X160738505Y-86010796D01*
X160714001Y-86012000D01*
X159473999Y-86012000D01*
X159449495Y-86010796D01*
X159425227Y-86007196D01*
X159401428Y-86001235D01*
X159378329Y-85992970D01*
X159356150Y-85982480D01*
X159335107Y-85969868D01*
X159315401Y-85955253D01*
X159297223Y-85938777D01*
X159280747Y-85920599D01*
X159266132Y-85900893D01*
X159253520Y-85879850D01*
X159243030Y-85857671D01*
X159234765Y-85834572D01*
X159228804Y-85810773D01*
X159225204Y-85786505D01*
X159224000Y-85762001D01*
X159224000Y-84061999D01*
X159225204Y-84037495D01*
X159228804Y-84013227D01*
X159234765Y-83989428D01*
X159243030Y-83966329D01*
X159253520Y-83944150D01*
X159266132Y-83923107D01*
X159280747Y-83903401D01*
X159297223Y-83885223D01*
X159315401Y-83868747D01*
X159335107Y-83854132D01*
X159356150Y-83841520D01*
X159378329Y-83831030D01*
X159401428Y-83822765D01*
X159425227Y-83816804D01*
X159449495Y-83813204D01*
X159473999Y-83812000D01*
X160714001Y-83812000D01*
X160738505Y-83813204D01*
G37*
G04 #@! TD.AperFunction*
D16*
X133419000Y-94614000D03*
G04 #@! TA.AperFunction,ComponentPad*
D15*
G36*
X134293505Y-96285204D02*
G01*
X134317773Y-96288804D01*
X134341572Y-96294765D01*
X134364671Y-96303030D01*
X134386850Y-96313520D01*
X134407893Y-96326132D01*
X134427599Y-96340747D01*
X134445777Y-96357223D01*
X134462253Y-96375401D01*
X134476868Y-96395107D01*
X134489480Y-96416150D01*
X134499970Y-96438329D01*
X134508235Y-96461428D01*
X134514196Y-96485227D01*
X134517796Y-96509495D01*
X134519000Y-96533999D01*
X134519000Y-97774001D01*
X134517796Y-97798505D01*
X134514196Y-97822773D01*
X134508235Y-97846572D01*
X134499970Y-97869671D01*
X134489480Y-97891850D01*
X134476868Y-97912893D01*
X134462253Y-97932599D01*
X134445777Y-97950777D01*
X134427599Y-97967253D01*
X134407893Y-97981868D01*
X134386850Y-97994480D01*
X134364671Y-98004970D01*
X134341572Y-98013235D01*
X134317773Y-98019196D01*
X134293505Y-98022796D01*
X134269001Y-98024000D01*
X132568999Y-98024000D01*
X132544495Y-98022796D01*
X132520227Y-98019196D01*
X132496428Y-98013235D01*
X132473329Y-98004970D01*
X132451150Y-97994480D01*
X132430107Y-97981868D01*
X132410401Y-97967253D01*
X132392223Y-97950777D01*
X132375747Y-97932599D01*
X132361132Y-97912893D01*
X132348520Y-97891850D01*
X132338030Y-97869671D01*
X132329765Y-97846572D01*
X132323804Y-97822773D01*
X132320204Y-97798505D01*
X132319000Y-97774001D01*
X132319000Y-96533999D01*
X132320204Y-96509495D01*
X132323804Y-96485227D01*
X132329765Y-96461428D01*
X132338030Y-96438329D01*
X132348520Y-96416150D01*
X132361132Y-96395107D01*
X132375747Y-96375401D01*
X132392223Y-96357223D01*
X132410401Y-96340747D01*
X132430107Y-96326132D01*
X132451150Y-96313520D01*
X132473329Y-96303030D01*
X132496428Y-96294765D01*
X132520227Y-96288804D01*
X132544495Y-96285204D01*
X132568999Y-96284000D01*
X134269001Y-96284000D01*
X134293505Y-96285204D01*
G37*
G04 #@! TD.AperFunction*
D16*
X124873000Y-72310000D03*
G04 #@! TA.AperFunction,ComponentPad*
D15*
G36*
X125747505Y-73981204D02*
G01*
X125771773Y-73984804D01*
X125795572Y-73990765D01*
X125818671Y-73999030D01*
X125840850Y-74009520D01*
X125861893Y-74022132D01*
X125881599Y-74036747D01*
X125899777Y-74053223D01*
X125916253Y-74071401D01*
X125930868Y-74091107D01*
X125943480Y-74112150D01*
X125953970Y-74134329D01*
X125962235Y-74157428D01*
X125968196Y-74181227D01*
X125971796Y-74205495D01*
X125973000Y-74229999D01*
X125973000Y-75470001D01*
X125971796Y-75494505D01*
X125968196Y-75518773D01*
X125962235Y-75542572D01*
X125953970Y-75565671D01*
X125943480Y-75587850D01*
X125930868Y-75608893D01*
X125916253Y-75628599D01*
X125899777Y-75646777D01*
X125881599Y-75663253D01*
X125861893Y-75677868D01*
X125840850Y-75690480D01*
X125818671Y-75700970D01*
X125795572Y-75709235D01*
X125771773Y-75715196D01*
X125747505Y-75718796D01*
X125723001Y-75720000D01*
X124022999Y-75720000D01*
X123998495Y-75718796D01*
X123974227Y-75715196D01*
X123950428Y-75709235D01*
X123927329Y-75700970D01*
X123905150Y-75690480D01*
X123884107Y-75677868D01*
X123864401Y-75663253D01*
X123846223Y-75646777D01*
X123829747Y-75628599D01*
X123815132Y-75608893D01*
X123802520Y-75587850D01*
X123792030Y-75565671D01*
X123783765Y-75542572D01*
X123777804Y-75518773D01*
X123774204Y-75494505D01*
X123773000Y-75470001D01*
X123773000Y-74229999D01*
X123774204Y-74205495D01*
X123777804Y-74181227D01*
X123783765Y-74157428D01*
X123792030Y-74134329D01*
X123802520Y-74112150D01*
X123815132Y-74091107D01*
X123829747Y-74071401D01*
X123846223Y-74053223D01*
X123864401Y-74036747D01*
X123884107Y-74022132D01*
X123905150Y-74009520D01*
X123927329Y-73999030D01*
X123950428Y-73990765D01*
X123974227Y-73984804D01*
X123998495Y-73981204D01*
X124022999Y-73980000D01*
X125723001Y-73980000D01*
X125747505Y-73981204D01*
G37*
G04 #@! TD.AperFunction*
D14*
X169328000Y-76768000D03*
G04 #@! TA.AperFunction,ComponentPad*
D15*
G36*
X167432505Y-75669204D02*
G01*
X167456773Y-75672804D01*
X167480572Y-75678765D01*
X167503671Y-75687030D01*
X167525850Y-75697520D01*
X167546893Y-75710132D01*
X167566599Y-75724747D01*
X167584777Y-75741223D01*
X167601253Y-75759401D01*
X167615868Y-75779107D01*
X167628480Y-75800150D01*
X167638970Y-75822329D01*
X167647235Y-75845428D01*
X167653196Y-75869227D01*
X167656796Y-75893495D01*
X167658000Y-75917999D01*
X167658000Y-77618001D01*
X167656796Y-77642505D01*
X167653196Y-77666773D01*
X167647235Y-77690572D01*
X167638970Y-77713671D01*
X167628480Y-77735850D01*
X167615868Y-77756893D01*
X167601253Y-77776599D01*
X167584777Y-77794777D01*
X167566599Y-77811253D01*
X167546893Y-77825868D01*
X167525850Y-77838480D01*
X167503671Y-77848970D01*
X167480572Y-77857235D01*
X167456773Y-77863196D01*
X167432505Y-77866796D01*
X167408001Y-77868000D01*
X166167999Y-77868000D01*
X166143495Y-77866796D01*
X166119227Y-77863196D01*
X166095428Y-77857235D01*
X166072329Y-77848970D01*
X166050150Y-77838480D01*
X166029107Y-77825868D01*
X166009401Y-77811253D01*
X165991223Y-77794777D01*
X165974747Y-77776599D01*
X165960132Y-77756893D01*
X165947520Y-77735850D01*
X165937030Y-77713671D01*
X165928765Y-77690572D01*
X165922804Y-77666773D01*
X165919204Y-77642505D01*
X165918000Y-77618001D01*
X165918000Y-75917999D01*
X165919204Y-75893495D01*
X165922804Y-75869227D01*
X165928765Y-75845428D01*
X165937030Y-75822329D01*
X165947520Y-75800150D01*
X165960132Y-75779107D01*
X165974747Y-75759401D01*
X165991223Y-75741223D01*
X166009401Y-75724747D01*
X166029107Y-75710132D01*
X166050150Y-75697520D01*
X166072329Y-75687030D01*
X166095428Y-75678765D01*
X166119227Y-75672804D01*
X166143495Y-75669204D01*
X166167999Y-75668000D01*
X167408001Y-75668000D01*
X167432505Y-75669204D01*
G37*
G04 #@! TD.AperFunction*
D16*
X124873000Y-94614000D03*
G04 #@! TA.AperFunction,ComponentPad*
D15*
G36*
X125747505Y-96285204D02*
G01*
X125771773Y-96288804D01*
X125795572Y-96294765D01*
X125818671Y-96303030D01*
X125840850Y-96313520D01*
X125861893Y-96326132D01*
X125881599Y-96340747D01*
X125899777Y-96357223D01*
X125916253Y-96375401D01*
X125930868Y-96395107D01*
X125943480Y-96416150D01*
X125953970Y-96438329D01*
X125962235Y-96461428D01*
X125968196Y-96485227D01*
X125971796Y-96509495D01*
X125973000Y-96533999D01*
X125973000Y-97774001D01*
X125971796Y-97798505D01*
X125968196Y-97822773D01*
X125962235Y-97846572D01*
X125953970Y-97869671D01*
X125943480Y-97891850D01*
X125930868Y-97912893D01*
X125916253Y-97932599D01*
X125899777Y-97950777D01*
X125881599Y-97967253D01*
X125861893Y-97981868D01*
X125840850Y-97994480D01*
X125818671Y-98004970D01*
X125795572Y-98013235D01*
X125771773Y-98019196D01*
X125747505Y-98022796D01*
X125723001Y-98024000D01*
X124022999Y-98024000D01*
X123998495Y-98022796D01*
X123974227Y-98019196D01*
X123950428Y-98013235D01*
X123927329Y-98004970D01*
X123905150Y-97994480D01*
X123884107Y-97981868D01*
X123864401Y-97967253D01*
X123846223Y-97950777D01*
X123829747Y-97932599D01*
X123815132Y-97912893D01*
X123802520Y-97891850D01*
X123792030Y-97869671D01*
X123783765Y-97846572D01*
X123777804Y-97822773D01*
X123774204Y-97798505D01*
X123773000Y-97774001D01*
X123773000Y-96533999D01*
X123774204Y-96509495D01*
X123777804Y-96485227D01*
X123783765Y-96461428D01*
X123792030Y-96438329D01*
X123802520Y-96416150D01*
X123815132Y-96395107D01*
X123829747Y-96375401D01*
X123846223Y-96357223D01*
X123864401Y-96340747D01*
X123884107Y-96326132D01*
X123905150Y-96313520D01*
X123927329Y-96303030D01*
X123950428Y-96294765D01*
X123974227Y-96288804D01*
X123998495Y-96285204D01*
X124022999Y-96284000D01*
X125723001Y-96284000D01*
X125747505Y-96285204D01*
G37*
G04 #@! TD.AperFunction*
D16*
X124873000Y-65550000D03*
G04 #@! TA.AperFunction,ComponentPad*
D15*
G36*
X125747505Y-67221204D02*
G01*
X125771773Y-67224804D01*
X125795572Y-67230765D01*
X125818671Y-67239030D01*
X125840850Y-67249520D01*
X125861893Y-67262132D01*
X125881599Y-67276747D01*
X125899777Y-67293223D01*
X125916253Y-67311401D01*
X125930868Y-67331107D01*
X125943480Y-67352150D01*
X125953970Y-67374329D01*
X125962235Y-67397428D01*
X125968196Y-67421227D01*
X125971796Y-67445495D01*
X125973000Y-67469999D01*
X125973000Y-68710001D01*
X125971796Y-68734505D01*
X125968196Y-68758773D01*
X125962235Y-68782572D01*
X125953970Y-68805671D01*
X125943480Y-68827850D01*
X125930868Y-68848893D01*
X125916253Y-68868599D01*
X125899777Y-68886777D01*
X125881599Y-68903253D01*
X125861893Y-68917868D01*
X125840850Y-68930480D01*
X125818671Y-68940970D01*
X125795572Y-68949235D01*
X125771773Y-68955196D01*
X125747505Y-68958796D01*
X125723001Y-68960000D01*
X124022999Y-68960000D01*
X123998495Y-68958796D01*
X123974227Y-68955196D01*
X123950428Y-68949235D01*
X123927329Y-68940970D01*
X123905150Y-68930480D01*
X123884107Y-68917868D01*
X123864401Y-68903253D01*
X123846223Y-68886777D01*
X123829747Y-68868599D01*
X123815132Y-68848893D01*
X123802520Y-68827850D01*
X123792030Y-68805671D01*
X123783765Y-68782572D01*
X123777804Y-68758773D01*
X123774204Y-68734505D01*
X123773000Y-68710001D01*
X123773000Y-67469999D01*
X123774204Y-67445495D01*
X123777804Y-67421227D01*
X123783765Y-67397428D01*
X123792030Y-67374329D01*
X123802520Y-67352150D01*
X123815132Y-67331107D01*
X123829747Y-67311401D01*
X123846223Y-67293223D01*
X123864401Y-67276747D01*
X123884107Y-67262132D01*
X123905150Y-67249520D01*
X123927329Y-67239030D01*
X123950428Y-67230765D01*
X123974227Y-67224804D01*
X123998495Y-67221204D01*
X124022999Y-67220000D01*
X125723001Y-67220000D01*
X125747505Y-67221204D01*
G37*
G04 #@! TD.AperFunction*
D14*
X169328000Y-68624000D03*
G04 #@! TA.AperFunction,ComponentPad*
D15*
G36*
X167432505Y-67525204D02*
G01*
X167456773Y-67528804D01*
X167480572Y-67534765D01*
X167503671Y-67543030D01*
X167525850Y-67553520D01*
X167546893Y-67566132D01*
X167566599Y-67580747D01*
X167584777Y-67597223D01*
X167601253Y-67615401D01*
X167615868Y-67635107D01*
X167628480Y-67656150D01*
X167638970Y-67678329D01*
X167647235Y-67701428D01*
X167653196Y-67725227D01*
X167656796Y-67749495D01*
X167658000Y-67773999D01*
X167658000Y-69474001D01*
X167656796Y-69498505D01*
X167653196Y-69522773D01*
X167647235Y-69546572D01*
X167638970Y-69569671D01*
X167628480Y-69591850D01*
X167615868Y-69612893D01*
X167601253Y-69632599D01*
X167584777Y-69650777D01*
X167566599Y-69667253D01*
X167546893Y-69681868D01*
X167525850Y-69694480D01*
X167503671Y-69704970D01*
X167480572Y-69713235D01*
X167456773Y-69719196D01*
X167432505Y-69722796D01*
X167408001Y-69724000D01*
X166167999Y-69724000D01*
X166143495Y-69722796D01*
X166119227Y-69719196D01*
X166095428Y-69713235D01*
X166072329Y-69704970D01*
X166050150Y-69694480D01*
X166029107Y-69681868D01*
X166009401Y-69667253D01*
X165991223Y-69650777D01*
X165974747Y-69632599D01*
X165960132Y-69612893D01*
X165947520Y-69591850D01*
X165937030Y-69569671D01*
X165928765Y-69546572D01*
X165922804Y-69522773D01*
X165919204Y-69498505D01*
X165918000Y-69474001D01*
X165918000Y-67773999D01*
X165919204Y-67749495D01*
X165922804Y-67725227D01*
X165928765Y-67701428D01*
X165937030Y-67678329D01*
X165947520Y-67656150D01*
X165960132Y-67635107D01*
X165974747Y-67615401D01*
X165991223Y-67597223D01*
X166009401Y-67580747D01*
X166029107Y-67566132D01*
X166050150Y-67553520D01*
X166072329Y-67543030D01*
X166095428Y-67534765D01*
X166119227Y-67528804D01*
X166143495Y-67525204D01*
X166167999Y-67524000D01*
X167408001Y-67524000D01*
X167432505Y-67525204D01*
G37*
G04 #@! TD.AperFunction*
D16*
X124873000Y-87804000D03*
G04 #@! TA.AperFunction,ComponentPad*
D15*
G36*
X125747505Y-89475204D02*
G01*
X125771773Y-89478804D01*
X125795572Y-89484765D01*
X125818671Y-89493030D01*
X125840850Y-89503520D01*
X125861893Y-89516132D01*
X125881599Y-89530747D01*
X125899777Y-89547223D01*
X125916253Y-89565401D01*
X125930868Y-89585107D01*
X125943480Y-89606150D01*
X125953970Y-89628329D01*
X125962235Y-89651428D01*
X125968196Y-89675227D01*
X125971796Y-89699495D01*
X125973000Y-89723999D01*
X125973000Y-90964001D01*
X125971796Y-90988505D01*
X125968196Y-91012773D01*
X125962235Y-91036572D01*
X125953970Y-91059671D01*
X125943480Y-91081850D01*
X125930868Y-91102893D01*
X125916253Y-91122599D01*
X125899777Y-91140777D01*
X125881599Y-91157253D01*
X125861893Y-91171868D01*
X125840850Y-91184480D01*
X125818671Y-91194970D01*
X125795572Y-91203235D01*
X125771773Y-91209196D01*
X125747505Y-91212796D01*
X125723001Y-91214000D01*
X124022999Y-91214000D01*
X123998495Y-91212796D01*
X123974227Y-91209196D01*
X123950428Y-91203235D01*
X123927329Y-91194970D01*
X123905150Y-91184480D01*
X123884107Y-91171868D01*
X123864401Y-91157253D01*
X123846223Y-91140777D01*
X123829747Y-91122599D01*
X123815132Y-91102893D01*
X123802520Y-91081850D01*
X123792030Y-91059671D01*
X123783765Y-91036572D01*
X123777804Y-91012773D01*
X123774204Y-90988505D01*
X123773000Y-90964001D01*
X123773000Y-89723999D01*
X123774204Y-89699495D01*
X123777804Y-89675227D01*
X123783765Y-89651428D01*
X123792030Y-89628329D01*
X123802520Y-89606150D01*
X123815132Y-89585107D01*
X123829747Y-89565401D01*
X123846223Y-89547223D01*
X123864401Y-89530747D01*
X123884107Y-89516132D01*
X123905150Y-89503520D01*
X123927329Y-89493030D01*
X123950428Y-89484765D01*
X123974227Y-89478804D01*
X123998495Y-89475204D01*
X124022999Y-89474000D01*
X125723001Y-89474000D01*
X125747505Y-89475204D01*
G37*
G04 #@! TD.AperFunction*
D16*
X124873000Y-58790000D03*
G04 #@! TA.AperFunction,ComponentPad*
D15*
G36*
X125747505Y-60461204D02*
G01*
X125771773Y-60464804D01*
X125795572Y-60470765D01*
X125818671Y-60479030D01*
X125840850Y-60489520D01*
X125861893Y-60502132D01*
X125881599Y-60516747D01*
X125899777Y-60533223D01*
X125916253Y-60551401D01*
X125930868Y-60571107D01*
X125943480Y-60592150D01*
X125953970Y-60614329D01*
X125962235Y-60637428D01*
X125968196Y-60661227D01*
X125971796Y-60685495D01*
X125973000Y-60709999D01*
X125973000Y-61950001D01*
X125971796Y-61974505D01*
X125968196Y-61998773D01*
X125962235Y-62022572D01*
X125953970Y-62045671D01*
X125943480Y-62067850D01*
X125930868Y-62088893D01*
X125916253Y-62108599D01*
X125899777Y-62126777D01*
X125881599Y-62143253D01*
X125861893Y-62157868D01*
X125840850Y-62170480D01*
X125818671Y-62180970D01*
X125795572Y-62189235D01*
X125771773Y-62195196D01*
X125747505Y-62198796D01*
X125723001Y-62200000D01*
X124022999Y-62200000D01*
X123998495Y-62198796D01*
X123974227Y-62195196D01*
X123950428Y-62189235D01*
X123927329Y-62180970D01*
X123905150Y-62170480D01*
X123884107Y-62157868D01*
X123864401Y-62143253D01*
X123846223Y-62126777D01*
X123829747Y-62108599D01*
X123815132Y-62088893D01*
X123802520Y-62067850D01*
X123792030Y-62045671D01*
X123783765Y-62022572D01*
X123777804Y-61998773D01*
X123774204Y-61974505D01*
X123773000Y-61950001D01*
X123773000Y-60709999D01*
X123774204Y-60685495D01*
X123777804Y-60661227D01*
X123783765Y-60637428D01*
X123792030Y-60614329D01*
X123802520Y-60592150D01*
X123815132Y-60571107D01*
X123829747Y-60551401D01*
X123846223Y-60533223D01*
X123864401Y-60516747D01*
X123884107Y-60502132D01*
X123905150Y-60489520D01*
X123927329Y-60479030D01*
X123950428Y-60470765D01*
X123974227Y-60464804D01*
X123998495Y-60461204D01*
X124022999Y-60460000D01*
X125723001Y-60460000D01*
X125747505Y-60461204D01*
G37*
G04 #@! TD.AperFunction*
D14*
X155940000Y-84912000D03*
G04 #@! TA.AperFunction,ComponentPad*
D15*
G36*
X154044505Y-83813204D02*
G01*
X154068773Y-83816804D01*
X154092572Y-83822765D01*
X154115671Y-83831030D01*
X154137850Y-83841520D01*
X154158893Y-83854132D01*
X154178599Y-83868747D01*
X154196777Y-83885223D01*
X154213253Y-83903401D01*
X154227868Y-83923107D01*
X154240480Y-83944150D01*
X154250970Y-83966329D01*
X154259235Y-83989428D01*
X154265196Y-84013227D01*
X154268796Y-84037495D01*
X154270000Y-84061999D01*
X154270000Y-85762001D01*
X154268796Y-85786505D01*
X154265196Y-85810773D01*
X154259235Y-85834572D01*
X154250970Y-85857671D01*
X154240480Y-85879850D01*
X154227868Y-85900893D01*
X154213253Y-85920599D01*
X154196777Y-85938777D01*
X154178599Y-85955253D01*
X154158893Y-85969868D01*
X154137850Y-85982480D01*
X154115671Y-85992970D01*
X154092572Y-86001235D01*
X154068773Y-86007196D01*
X154044505Y-86010796D01*
X154020001Y-86012000D01*
X152779999Y-86012000D01*
X152755495Y-86010796D01*
X152731227Y-86007196D01*
X152707428Y-86001235D01*
X152684329Y-85992970D01*
X152662150Y-85982480D01*
X152641107Y-85969868D01*
X152621401Y-85955253D01*
X152603223Y-85938777D01*
X152586747Y-85920599D01*
X152572132Y-85900893D01*
X152559520Y-85879850D01*
X152549030Y-85857671D01*
X152540765Y-85834572D01*
X152534804Y-85810773D01*
X152531204Y-85786505D01*
X152530000Y-85762001D01*
X152530000Y-84061999D01*
X152531204Y-84037495D01*
X152534804Y-84013227D01*
X152540765Y-83989428D01*
X152549030Y-83966329D01*
X152559520Y-83944150D01*
X152572132Y-83923107D01*
X152586747Y-83903401D01*
X152603223Y-83885223D01*
X152621401Y-83868747D01*
X152641107Y-83854132D01*
X152662150Y-83841520D01*
X152684329Y-83831030D01*
X152707428Y-83822765D01*
X152731227Y-83816804D01*
X152755495Y-83813204D01*
X152779999Y-83812000D01*
X154020001Y-83812000D01*
X154044505Y-83813204D01*
G37*
G04 #@! TD.AperFunction*
D16*
X116326000Y-87804000D03*
G04 #@! TA.AperFunction,ComponentPad*
D15*
G36*
X117200505Y-89475204D02*
G01*
X117224773Y-89478804D01*
X117248572Y-89484765D01*
X117271671Y-89493030D01*
X117293850Y-89503520D01*
X117314893Y-89516132D01*
X117334599Y-89530747D01*
X117352777Y-89547223D01*
X117369253Y-89565401D01*
X117383868Y-89585107D01*
X117396480Y-89606150D01*
X117406970Y-89628329D01*
X117415235Y-89651428D01*
X117421196Y-89675227D01*
X117424796Y-89699495D01*
X117426000Y-89723999D01*
X117426000Y-90964001D01*
X117424796Y-90988505D01*
X117421196Y-91012773D01*
X117415235Y-91036572D01*
X117406970Y-91059671D01*
X117396480Y-91081850D01*
X117383868Y-91102893D01*
X117369253Y-91122599D01*
X117352777Y-91140777D01*
X117334599Y-91157253D01*
X117314893Y-91171868D01*
X117293850Y-91184480D01*
X117271671Y-91194970D01*
X117248572Y-91203235D01*
X117224773Y-91209196D01*
X117200505Y-91212796D01*
X117176001Y-91214000D01*
X115475999Y-91214000D01*
X115451495Y-91212796D01*
X115427227Y-91209196D01*
X115403428Y-91203235D01*
X115380329Y-91194970D01*
X115358150Y-91184480D01*
X115337107Y-91171868D01*
X115317401Y-91157253D01*
X115299223Y-91140777D01*
X115282747Y-91122599D01*
X115268132Y-91102893D01*
X115255520Y-91081850D01*
X115245030Y-91059671D01*
X115236765Y-91036572D01*
X115230804Y-91012773D01*
X115227204Y-90988505D01*
X115226000Y-90964001D01*
X115226000Y-89723999D01*
X115227204Y-89699495D01*
X115230804Y-89675227D01*
X115236765Y-89651428D01*
X115245030Y-89628329D01*
X115255520Y-89606150D01*
X115268132Y-89585107D01*
X115282747Y-89565401D01*
X115299223Y-89547223D01*
X115317401Y-89530747D01*
X115337107Y-89516132D01*
X115358150Y-89503520D01*
X115380329Y-89493030D01*
X115403428Y-89484765D01*
X115427227Y-89478804D01*
X115451495Y-89475204D01*
X115475999Y-89474000D01*
X117176001Y-89474000D01*
X117200505Y-89475204D01*
G37*
G04 #@! TD.AperFunction*
D16*
X116326000Y-72310000D03*
G04 #@! TA.AperFunction,ComponentPad*
D15*
G36*
X117200505Y-73981204D02*
G01*
X117224773Y-73984804D01*
X117248572Y-73990765D01*
X117271671Y-73999030D01*
X117293850Y-74009520D01*
X117314893Y-74022132D01*
X117334599Y-74036747D01*
X117352777Y-74053223D01*
X117369253Y-74071401D01*
X117383868Y-74091107D01*
X117396480Y-74112150D01*
X117406970Y-74134329D01*
X117415235Y-74157428D01*
X117421196Y-74181227D01*
X117424796Y-74205495D01*
X117426000Y-74229999D01*
X117426000Y-75470001D01*
X117424796Y-75494505D01*
X117421196Y-75518773D01*
X117415235Y-75542572D01*
X117406970Y-75565671D01*
X117396480Y-75587850D01*
X117383868Y-75608893D01*
X117369253Y-75628599D01*
X117352777Y-75646777D01*
X117334599Y-75663253D01*
X117314893Y-75677868D01*
X117293850Y-75690480D01*
X117271671Y-75700970D01*
X117248572Y-75709235D01*
X117224773Y-75715196D01*
X117200505Y-75718796D01*
X117176001Y-75720000D01*
X115475999Y-75720000D01*
X115451495Y-75718796D01*
X115427227Y-75715196D01*
X115403428Y-75709235D01*
X115380329Y-75700970D01*
X115358150Y-75690480D01*
X115337107Y-75677868D01*
X115317401Y-75663253D01*
X115299223Y-75646777D01*
X115282747Y-75628599D01*
X115268132Y-75608893D01*
X115255520Y-75587850D01*
X115245030Y-75565671D01*
X115236765Y-75542572D01*
X115230804Y-75518773D01*
X115227204Y-75494505D01*
X115226000Y-75470001D01*
X115226000Y-74229999D01*
X115227204Y-74205495D01*
X115230804Y-74181227D01*
X115236765Y-74157428D01*
X115245030Y-74134329D01*
X115255520Y-74112150D01*
X115268132Y-74091107D01*
X115282747Y-74071401D01*
X115299223Y-74053223D01*
X115317401Y-74036747D01*
X115337107Y-74022132D01*
X115358150Y-74009520D01*
X115380329Y-73999030D01*
X115403428Y-73990765D01*
X115427227Y-73984804D01*
X115451495Y-73981204D01*
X115475999Y-73980000D01*
X117176001Y-73980000D01*
X117200505Y-73981204D01*
G37*
G04 #@! TD.AperFunction*
D14*
X161020000Y-76768000D03*
X158480000Y-76768000D03*
X155940000Y-76768000D03*
G04 #@! TA.AperFunction,ComponentPad*
D15*
G36*
X154044505Y-75669204D02*
G01*
X154068773Y-75672804D01*
X154092572Y-75678765D01*
X154115671Y-75687030D01*
X154137850Y-75697520D01*
X154158893Y-75710132D01*
X154178599Y-75724747D01*
X154196777Y-75741223D01*
X154213253Y-75759401D01*
X154227868Y-75779107D01*
X154240480Y-75800150D01*
X154250970Y-75822329D01*
X154259235Y-75845428D01*
X154265196Y-75869227D01*
X154268796Y-75893495D01*
X154270000Y-75917999D01*
X154270000Y-77618001D01*
X154268796Y-77642505D01*
X154265196Y-77666773D01*
X154259235Y-77690572D01*
X154250970Y-77713671D01*
X154240480Y-77735850D01*
X154227868Y-77756893D01*
X154213253Y-77776599D01*
X154196777Y-77794777D01*
X154178599Y-77811253D01*
X154158893Y-77825868D01*
X154137850Y-77838480D01*
X154115671Y-77848970D01*
X154092572Y-77857235D01*
X154068773Y-77863196D01*
X154044505Y-77866796D01*
X154020001Y-77868000D01*
X152779999Y-77868000D01*
X152755495Y-77866796D01*
X152731227Y-77863196D01*
X152707428Y-77857235D01*
X152684329Y-77848970D01*
X152662150Y-77838480D01*
X152641107Y-77825868D01*
X152621401Y-77811253D01*
X152603223Y-77794777D01*
X152586747Y-77776599D01*
X152572132Y-77756893D01*
X152559520Y-77735850D01*
X152549030Y-77713671D01*
X152540765Y-77690572D01*
X152534804Y-77666773D01*
X152531204Y-77642505D01*
X152530000Y-77618001D01*
X152530000Y-75917999D01*
X152531204Y-75893495D01*
X152534804Y-75869227D01*
X152540765Y-75845428D01*
X152549030Y-75822329D01*
X152559520Y-75800150D01*
X152572132Y-75779107D01*
X152586747Y-75759401D01*
X152603223Y-75741223D01*
X152621401Y-75724747D01*
X152641107Y-75710132D01*
X152662150Y-75697520D01*
X152684329Y-75687030D01*
X152707428Y-75678765D01*
X152731227Y-75672804D01*
X152755495Y-75669204D01*
X152779999Y-75668000D01*
X154020001Y-75668000D01*
X154044505Y-75669204D01*
G37*
G04 #@! TD.AperFunction*
D16*
X116326000Y-101424000D03*
G04 #@! TA.AperFunction,ComponentPad*
D15*
G36*
X117200505Y-103095204D02*
G01*
X117224773Y-103098804D01*
X117248572Y-103104765D01*
X117271671Y-103113030D01*
X117293850Y-103123520D01*
X117314893Y-103136132D01*
X117334599Y-103150747D01*
X117352777Y-103167223D01*
X117369253Y-103185401D01*
X117383868Y-103205107D01*
X117396480Y-103226150D01*
X117406970Y-103248329D01*
X117415235Y-103271428D01*
X117421196Y-103295227D01*
X117424796Y-103319495D01*
X117426000Y-103343999D01*
X117426000Y-104584001D01*
X117424796Y-104608505D01*
X117421196Y-104632773D01*
X117415235Y-104656572D01*
X117406970Y-104679671D01*
X117396480Y-104701850D01*
X117383868Y-104722893D01*
X117369253Y-104742599D01*
X117352777Y-104760777D01*
X117334599Y-104777253D01*
X117314893Y-104791868D01*
X117293850Y-104804480D01*
X117271671Y-104814970D01*
X117248572Y-104823235D01*
X117224773Y-104829196D01*
X117200505Y-104832796D01*
X117176001Y-104834000D01*
X115475999Y-104834000D01*
X115451495Y-104832796D01*
X115427227Y-104829196D01*
X115403428Y-104823235D01*
X115380329Y-104814970D01*
X115358150Y-104804480D01*
X115337107Y-104791868D01*
X115317401Y-104777253D01*
X115299223Y-104760777D01*
X115282747Y-104742599D01*
X115268132Y-104722893D01*
X115255520Y-104701850D01*
X115245030Y-104679671D01*
X115236765Y-104656572D01*
X115230804Y-104632773D01*
X115227204Y-104608505D01*
X115226000Y-104584001D01*
X115226000Y-103343999D01*
X115227204Y-103319495D01*
X115230804Y-103295227D01*
X115236765Y-103271428D01*
X115245030Y-103248329D01*
X115255520Y-103226150D01*
X115268132Y-103205107D01*
X115282747Y-103185401D01*
X115299223Y-103167223D01*
X115317401Y-103150747D01*
X115337107Y-103136132D01*
X115358150Y-103123520D01*
X115380329Y-103113030D01*
X115403428Y-103104765D01*
X115427227Y-103098804D01*
X115451495Y-103095204D01*
X115475999Y-103094000D01*
X117176001Y-103094000D01*
X117200505Y-103095204D01*
G37*
G04 #@! TD.AperFunction*
D16*
X116326000Y-58790000D03*
G04 #@! TA.AperFunction,ComponentPad*
D15*
G36*
X117200505Y-60461204D02*
G01*
X117224773Y-60464804D01*
X117248572Y-60470765D01*
X117271671Y-60479030D01*
X117293850Y-60489520D01*
X117314893Y-60502132D01*
X117334599Y-60516747D01*
X117352777Y-60533223D01*
X117369253Y-60551401D01*
X117383868Y-60571107D01*
X117396480Y-60592150D01*
X117406970Y-60614329D01*
X117415235Y-60637428D01*
X117421196Y-60661227D01*
X117424796Y-60685495D01*
X117426000Y-60709999D01*
X117426000Y-61950001D01*
X117424796Y-61974505D01*
X117421196Y-61998773D01*
X117415235Y-62022572D01*
X117406970Y-62045671D01*
X117396480Y-62067850D01*
X117383868Y-62088893D01*
X117369253Y-62108599D01*
X117352777Y-62126777D01*
X117334599Y-62143253D01*
X117314893Y-62157868D01*
X117293850Y-62170480D01*
X117271671Y-62180970D01*
X117248572Y-62189235D01*
X117224773Y-62195196D01*
X117200505Y-62198796D01*
X117176001Y-62200000D01*
X115475999Y-62200000D01*
X115451495Y-62198796D01*
X115427227Y-62195196D01*
X115403428Y-62189235D01*
X115380329Y-62180970D01*
X115358150Y-62170480D01*
X115337107Y-62157868D01*
X115317401Y-62143253D01*
X115299223Y-62126777D01*
X115282747Y-62108599D01*
X115268132Y-62088893D01*
X115255520Y-62067850D01*
X115245030Y-62045671D01*
X115236765Y-62022572D01*
X115230804Y-61998773D01*
X115227204Y-61974505D01*
X115226000Y-61950001D01*
X115226000Y-60709999D01*
X115227204Y-60685495D01*
X115230804Y-60661227D01*
X115236765Y-60637428D01*
X115245030Y-60614329D01*
X115255520Y-60592150D01*
X115268132Y-60571107D01*
X115282747Y-60551401D01*
X115299223Y-60533223D01*
X115317401Y-60516747D01*
X115337107Y-60502132D01*
X115358150Y-60489520D01*
X115380329Y-60479030D01*
X115403428Y-60470765D01*
X115427227Y-60464804D01*
X115451495Y-60461204D01*
X115475999Y-60460000D01*
X117176001Y-60460000D01*
X117200505Y-60461204D01*
G37*
G04 #@! TD.AperFunction*
D14*
X161020000Y-60480000D03*
X158480000Y-60480000D03*
X155940000Y-60480000D03*
G04 #@! TA.AperFunction,ComponentPad*
D15*
G36*
X154044505Y-59381204D02*
G01*
X154068773Y-59384804D01*
X154092572Y-59390765D01*
X154115671Y-59399030D01*
X154137850Y-59409520D01*
X154158893Y-59422132D01*
X154178599Y-59436747D01*
X154196777Y-59453223D01*
X154213253Y-59471401D01*
X154227868Y-59491107D01*
X154240480Y-59512150D01*
X154250970Y-59534329D01*
X154259235Y-59557428D01*
X154265196Y-59581227D01*
X154268796Y-59605495D01*
X154270000Y-59629999D01*
X154270000Y-61330001D01*
X154268796Y-61354505D01*
X154265196Y-61378773D01*
X154259235Y-61402572D01*
X154250970Y-61425671D01*
X154240480Y-61447850D01*
X154227868Y-61468893D01*
X154213253Y-61488599D01*
X154196777Y-61506777D01*
X154178599Y-61523253D01*
X154158893Y-61537868D01*
X154137850Y-61550480D01*
X154115671Y-61560970D01*
X154092572Y-61569235D01*
X154068773Y-61575196D01*
X154044505Y-61578796D01*
X154020001Y-61580000D01*
X152779999Y-61580000D01*
X152755495Y-61578796D01*
X152731227Y-61575196D01*
X152707428Y-61569235D01*
X152684329Y-61560970D01*
X152662150Y-61550480D01*
X152641107Y-61537868D01*
X152621401Y-61523253D01*
X152603223Y-61506777D01*
X152586747Y-61488599D01*
X152572132Y-61468893D01*
X152559520Y-61447850D01*
X152549030Y-61425671D01*
X152540765Y-61402572D01*
X152534804Y-61378773D01*
X152531204Y-61354505D01*
X152530000Y-61330001D01*
X152530000Y-59629999D01*
X152531204Y-59605495D01*
X152534804Y-59581227D01*
X152540765Y-59557428D01*
X152549030Y-59534329D01*
X152559520Y-59512150D01*
X152572132Y-59491107D01*
X152586747Y-59471401D01*
X152603223Y-59453223D01*
X152621401Y-59436747D01*
X152641107Y-59422132D01*
X152662150Y-59409520D01*
X152684329Y-59399030D01*
X152707428Y-59390765D01*
X152731227Y-59384804D01*
X152755495Y-59381204D01*
X152779999Y-59380000D01*
X154020001Y-59380000D01*
X154044505Y-59381204D01*
G37*
G04 #@! TD.AperFunction*
D16*
X116326000Y-94614000D03*
G04 #@! TA.AperFunction,ComponentPad*
D15*
G36*
X117200505Y-96285204D02*
G01*
X117224773Y-96288804D01*
X117248572Y-96294765D01*
X117271671Y-96303030D01*
X117293850Y-96313520D01*
X117314893Y-96326132D01*
X117334599Y-96340747D01*
X117352777Y-96357223D01*
X117369253Y-96375401D01*
X117383868Y-96395107D01*
X117396480Y-96416150D01*
X117406970Y-96438329D01*
X117415235Y-96461428D01*
X117421196Y-96485227D01*
X117424796Y-96509495D01*
X117426000Y-96533999D01*
X117426000Y-97774001D01*
X117424796Y-97798505D01*
X117421196Y-97822773D01*
X117415235Y-97846572D01*
X117406970Y-97869671D01*
X117396480Y-97891850D01*
X117383868Y-97912893D01*
X117369253Y-97932599D01*
X117352777Y-97950777D01*
X117334599Y-97967253D01*
X117314893Y-97981868D01*
X117293850Y-97994480D01*
X117271671Y-98004970D01*
X117248572Y-98013235D01*
X117224773Y-98019196D01*
X117200505Y-98022796D01*
X117176001Y-98024000D01*
X115475999Y-98024000D01*
X115451495Y-98022796D01*
X115427227Y-98019196D01*
X115403428Y-98013235D01*
X115380329Y-98004970D01*
X115358150Y-97994480D01*
X115337107Y-97981868D01*
X115317401Y-97967253D01*
X115299223Y-97950777D01*
X115282747Y-97932599D01*
X115268132Y-97912893D01*
X115255520Y-97891850D01*
X115245030Y-97869671D01*
X115236765Y-97846572D01*
X115230804Y-97822773D01*
X115227204Y-97798505D01*
X115226000Y-97774001D01*
X115226000Y-96533999D01*
X115227204Y-96509495D01*
X115230804Y-96485227D01*
X115236765Y-96461428D01*
X115245030Y-96438329D01*
X115255520Y-96416150D01*
X115268132Y-96395107D01*
X115282747Y-96375401D01*
X115299223Y-96357223D01*
X115317401Y-96340747D01*
X115337107Y-96326132D01*
X115358150Y-96313520D01*
X115380329Y-96303030D01*
X115403428Y-96294765D01*
X115427227Y-96288804D01*
X115451495Y-96285204D01*
X115475999Y-96284000D01*
X117176001Y-96284000D01*
X117200505Y-96285204D01*
G37*
G04 #@! TD.AperFunction*
D16*
X116326000Y-65550000D03*
G04 #@! TA.AperFunction,ComponentPad*
D15*
G36*
X117200505Y-67221204D02*
G01*
X117224773Y-67224804D01*
X117248572Y-67230765D01*
X117271671Y-67239030D01*
X117293850Y-67249520D01*
X117314893Y-67262132D01*
X117334599Y-67276747D01*
X117352777Y-67293223D01*
X117369253Y-67311401D01*
X117383868Y-67331107D01*
X117396480Y-67352150D01*
X117406970Y-67374329D01*
X117415235Y-67397428D01*
X117421196Y-67421227D01*
X117424796Y-67445495D01*
X117426000Y-67469999D01*
X117426000Y-68710001D01*
X117424796Y-68734505D01*
X117421196Y-68758773D01*
X117415235Y-68782572D01*
X117406970Y-68805671D01*
X117396480Y-68827850D01*
X117383868Y-68848893D01*
X117369253Y-68868599D01*
X117352777Y-68886777D01*
X117334599Y-68903253D01*
X117314893Y-68917868D01*
X117293850Y-68930480D01*
X117271671Y-68940970D01*
X117248572Y-68949235D01*
X117224773Y-68955196D01*
X117200505Y-68958796D01*
X117176001Y-68960000D01*
X115475999Y-68960000D01*
X115451495Y-68958796D01*
X115427227Y-68955196D01*
X115403428Y-68949235D01*
X115380329Y-68940970D01*
X115358150Y-68930480D01*
X115337107Y-68917868D01*
X115317401Y-68903253D01*
X115299223Y-68886777D01*
X115282747Y-68868599D01*
X115268132Y-68848893D01*
X115255520Y-68827850D01*
X115245030Y-68805671D01*
X115236765Y-68782572D01*
X115230804Y-68758773D01*
X115227204Y-68734505D01*
X115226000Y-68710001D01*
X115226000Y-67469999D01*
X115227204Y-67445495D01*
X115230804Y-67421227D01*
X115236765Y-67397428D01*
X115245030Y-67374329D01*
X115255520Y-67352150D01*
X115268132Y-67331107D01*
X115282747Y-67311401D01*
X115299223Y-67293223D01*
X115317401Y-67276747D01*
X115337107Y-67262132D01*
X115358150Y-67249520D01*
X115380329Y-67239030D01*
X115403428Y-67230765D01*
X115427227Y-67224804D01*
X115451495Y-67221204D01*
X115475999Y-67220000D01*
X117176001Y-67220000D01*
X117200505Y-67221204D01*
G37*
G04 #@! TD.AperFunction*
D14*
X161020000Y-68624000D03*
X158480000Y-68624000D03*
X155940000Y-68624000D03*
G04 #@! TA.AperFunction,ComponentPad*
D15*
G36*
X154044505Y-67525204D02*
G01*
X154068773Y-67528804D01*
X154092572Y-67534765D01*
X154115671Y-67543030D01*
X154137850Y-67553520D01*
X154158893Y-67566132D01*
X154178599Y-67580747D01*
X154196777Y-67597223D01*
X154213253Y-67615401D01*
X154227868Y-67635107D01*
X154240480Y-67656150D01*
X154250970Y-67678329D01*
X154259235Y-67701428D01*
X154265196Y-67725227D01*
X154268796Y-67749495D01*
X154270000Y-67773999D01*
X154270000Y-69474001D01*
X154268796Y-69498505D01*
X154265196Y-69522773D01*
X154259235Y-69546572D01*
X154250970Y-69569671D01*
X154240480Y-69591850D01*
X154227868Y-69612893D01*
X154213253Y-69632599D01*
X154196777Y-69650777D01*
X154178599Y-69667253D01*
X154158893Y-69681868D01*
X154137850Y-69694480D01*
X154115671Y-69704970D01*
X154092572Y-69713235D01*
X154068773Y-69719196D01*
X154044505Y-69722796D01*
X154020001Y-69724000D01*
X152779999Y-69724000D01*
X152755495Y-69722796D01*
X152731227Y-69719196D01*
X152707428Y-69713235D01*
X152684329Y-69704970D01*
X152662150Y-69694480D01*
X152641107Y-69681868D01*
X152621401Y-69667253D01*
X152603223Y-69650777D01*
X152586747Y-69632599D01*
X152572132Y-69612893D01*
X152559520Y-69591850D01*
X152549030Y-69569671D01*
X152540765Y-69546572D01*
X152534804Y-69522773D01*
X152531204Y-69498505D01*
X152530000Y-69474001D01*
X152530000Y-67773999D01*
X152531204Y-67749495D01*
X152534804Y-67725227D01*
X152540765Y-67701428D01*
X152549030Y-67678329D01*
X152559520Y-67656150D01*
X152572132Y-67635107D01*
X152586747Y-67615401D01*
X152603223Y-67597223D01*
X152621401Y-67580747D01*
X152641107Y-67566132D01*
X152662150Y-67553520D01*
X152684329Y-67543030D01*
X152707428Y-67534765D01*
X152731227Y-67528804D01*
X152755495Y-67525204D01*
X152779999Y-67524000D01*
X154020001Y-67524000D01*
X154044505Y-67525204D01*
G37*
G04 #@! TD.AperFunction*
D17*
X109728000Y-90170000D03*
D18*
X104648000Y-90170000D03*
D17*
X104394000Y-72390000D03*
D18*
X109474000Y-72390000D03*
D19*
X118426000Y-69750500D02*
X124183500Y-69750500D01*
X124183500Y-69750500D02*
X124873000Y-70440000D01*
X116326000Y-70440000D02*
X117736500Y-70440000D01*
X117736500Y-70440000D02*
X118426000Y-69750500D01*
X118426000Y-69750500D02*
X118426000Y-65550000D01*
X124873000Y-72310000D02*
X124873000Y-70440000D01*
X116326000Y-72310000D02*
X116326000Y-70440000D01*
X118426000Y-65550000D02*
X122773000Y-65550000D01*
X124873000Y-65550000D02*
X122773000Y-65550000D01*
X116326000Y-65550000D02*
X118426000Y-65550000D01*
X124873000Y-65550000D02*
X133419000Y-65550000D01*
X124873000Y-58790000D02*
X133419000Y-58790000D01*
X116326000Y-58790000D02*
X124873000Y-58790000D01*
X131616300Y-69892700D02*
X126675700Y-69892700D01*
X133419000Y-68090000D02*
X131616300Y-69892700D01*
X131616300Y-69892700D02*
X131616300Y-73047300D01*
X131616300Y-73047300D02*
X133419000Y-74850000D01*
X126675700Y-69892700D02*
X124873000Y-68090000D01*
X126675700Y-69892700D02*
X126675700Y-73047300D01*
X126675700Y-73047300D02*
X124873000Y-74850000D01*
X133419000Y-74850000D02*
X141966000Y-74850000D01*
X138586000Y-64710000D02*
X141966000Y-61330000D01*
X136799000Y-64710000D02*
X138586000Y-64710000D01*
X138586000Y-64710000D02*
X141966000Y-68090000D01*
X133419000Y-61330000D02*
X136799000Y-64710000D01*
X136799000Y-64710000D02*
X133419000Y-68090000D01*
X124873000Y-61330000D02*
X133419000Y-61330000D01*
X112641500Y-72390000D02*
X115101500Y-74850000D01*
X115101500Y-74850000D02*
X116326000Y-74850000D01*
X112641500Y-72390000D02*
X112641500Y-71774500D01*
X112641500Y-71774500D02*
X116326000Y-68090000D01*
X111974000Y-72390000D02*
X112641500Y-72390000D01*
X116326000Y-61330000D02*
X124873000Y-61330000D01*
X109474000Y-72390000D02*
X111974000Y-72390000D01*
X116326000Y-101424000D02*
X118426000Y-101424000D01*
X124873000Y-100489000D02*
X119361000Y-100489000D01*
X119361000Y-100489000D02*
X118426000Y-101424000D01*
X124873000Y-100489000D02*
X124873000Y-99554000D01*
X124873000Y-101424000D02*
X124873000Y-100489000D01*
X126730500Y-94614000D02*
X133419000Y-94614000D01*
X124873000Y-94614000D02*
X126730500Y-94614000D01*
X126730500Y-94614000D02*
X126730500Y-98198900D01*
X126730500Y-98198900D02*
X125375400Y-99554000D01*
X125375400Y-99554000D02*
X124873000Y-99554000D01*
X124873000Y-87804000D02*
X133419000Y-87804000D01*
X116326000Y-87804000D02*
X124873000Y-87804000D01*
X124873000Y-90344000D02*
X133419000Y-90344000D01*
X123070100Y-97154000D02*
X123070100Y-92146900D01*
X123070100Y-92146900D02*
X124873000Y-90344000D01*
X133419000Y-103964000D02*
X138276400Y-103964000D01*
X138276400Y-103964000D02*
X140121200Y-102119200D01*
X124873000Y-103964000D02*
X133419000Y-103964000D01*
X140121200Y-102119200D02*
X141966000Y-103964000D01*
X140121200Y-97646100D02*
X140121200Y-102119200D01*
X140121200Y-97646100D02*
X141473900Y-97646100D01*
X141473900Y-97646100D02*
X141966000Y-97154000D01*
X137541500Y-96335300D02*
X138852300Y-97646100D01*
X138852300Y-97646100D02*
X140121200Y-97646100D01*
X137541500Y-94466500D02*
X137541500Y-96335300D01*
X133419000Y-90344000D02*
X137541500Y-94466500D01*
X141966000Y-90344000D02*
X141664000Y-90344000D01*
X141664000Y-90344000D02*
X137541500Y-94466500D01*
X137541500Y-96335300D02*
X136722800Y-97154000D01*
X136722800Y-97154000D02*
X133419000Y-97154000D01*
X124873000Y-103964000D02*
X116326000Y-103964000D01*
X116326000Y-103964000D02*
X115642000Y-104648000D01*
X115642000Y-104648000D02*
X110744000Y-104648000D01*
X123070100Y-97154000D02*
X124873000Y-97154000D01*
X116326000Y-97154000D02*
X123070100Y-97154000D01*
X114282800Y-92387200D02*
X114282800Y-95110800D01*
X114282800Y-95110800D02*
X116326000Y-97154000D01*
X114282800Y-92387200D02*
X116326000Y-90344000D01*
X107148000Y-90170000D02*
X107148000Y-90724400D01*
X107148000Y-90724400D02*
X108810800Y-92387200D01*
X108810800Y-92387200D02*
X114282800Y-92387200D01*
X104648000Y-90170000D02*
X107148000Y-90170000D01*
X162634000Y-101200000D02*
X162634000Y-103300000D01*
X155940000Y-101200000D02*
X157810000Y-101200000D01*
X157810000Y-101200000D02*
X157810000Y-101761500D01*
X157810000Y-101761500D02*
X159348500Y-103300000D01*
X159348500Y-103300000D02*
X162634000Y-103300000D01*
X110998000Y-58166000D02*
X110998000Y-59966000D01*
X108966000Y-78740000D02*
X107232700Y-77006700D01*
X107232700Y-77006700D02*
X107232700Y-63731300D01*
X107232700Y-63731300D02*
X110998000Y-59966000D01*
M02*
