  0
SECTION
  2
HEADER
  9
$ANGBASE
  50
0.0
  9
$ANGDIR
  70
1
  9
$MEASUREMENT
  70
1
  0
ENDSEC
  0
SECTION
  2
TABLES
  0
TABLE
  2
LTYPE
  70
4
  0
LTYPE
  5
40F
  2
CONTINUOUS
  70
0
  3
Solid line
  72
65
  73
0
  40
0.0
  0
LTYPE
  5
410
  2
DASHDOT
 70
0
  3
Dash Dot ____ _ ____ _
 72
65
 73
4
 40
2.0
 49
1.25
 49
-0.25
 49
0.25
 49
-0.25
  0
LTYPE
  5
411
  2
DASHED
 70
0
  3
Dashed __ __ __ __ __
 72
65
 73
2
 40
0.75
 49
0.5
 49
-0.25
  0
LTYPE
  5
43B
  2
DOTTED
 70
0
  3
Dotted .  .  .  .
 72
65
 73
2
 40
0.2
 49
0.0
 49
-0.2
  0
ENDTAB
  0
TABLE
  2
STYLE
  70
4
  0
STYLE
  2
KICAD
  70
0
  40
0
  41
1
  42
1
  50
0
  71
0
  3
isocp.shx
  0
STYLE
  2
KICADB
  70
0
  40
0
  41
1
  42
1
  50
0
  71
0
  3
isocp.shx
  0
STYLE
  2
KICADI
  70
0
  40
0
  41
1
  42
1
  50
15
  71
0
  3
isocp.shx
  0
STYLE
  2
KICADBI
  70
0
  40
0
  41
1
  42
1
  50
15
  71
0
  3
isocp.shx
  0
ENDTAB
  0
TABLE
  2
LAYER
  70
1
  0
LAYER
  2
BLACK
  70
0
  62
7
  6
CONTINUOUS
  0
ENDTAB
  0
ENDSEC
  0
SECTION
  2
ENTITIES
0
CIRCLE
8
BLACK
10
153.1099999999999852
20
-50.5799999999999983
40
1.5923879999999999
0
CIRCLE
8
BLACK
10
153.0900000000000034
20
-114.5799999999999983
40
1.628558
0
CIRCLE
8
BLACK
10
79.0300000000000011
20
-57.519999999999996
40
1.606393
0
CIRCLE
8
BLACK
10
78.9899999999999949
20
-114.5599999999999881
40
1.6006559999999999
0
LINE
8
BLACK
6
CONTINUOUS
10
74.75
20
-47.7399999999999949
11
156.75
21
-47.7399999999999949
0
LINE
8
BLACK
6
CONTINUOUS
10
156.75
20
-47.7399999999999949
11
156.75
21
-117.8399999999999892
0
LINE
8
BLACK
6
CONTINUOUS
10
156.75
20
-117.8399999999999892
11
74.75
21
-117.8399999999999892
0
LINE
8
BLACK
6
CONTINUOUS
10
74.75
20
-117.8399999999999892
11
74.75
21
-47.7399999999999949
0
LINE
8
BLACK
6
CONTINUOUS
10
77.2577679999999987
20
-121.0548379999999895
11
77.2577679999999987
21
-119.0548379999999895
0
LINE
8
BLACK
6
CONTINUOUS
10
77.2577679999999987
20
-119.0548379999999895
11
77.7339580000000012
21
-119.0548379999999895
0
LINE
8
BLACK
6
CONTINUOUS
10
77.7339580000000012
20
-119.0548379999999895
11
78.0196729999999974
21
-119.1500759999999985
0
LINE
8
BLACK
6
CONTINUOUS
10
78.0196729999999974
20
-119.1500759999999985
11
78.2101490000000013
21
-119.3405519999999882
0
LINE
8
BLACK
6
CONTINUOUS
10
78.2101490000000013
20
-119.3405519999999882
11
78.3053869999999961
21
-119.5310279999999921
0
LINE
8
BLACK
6
CONTINUOUS
10
78.3053869999999961
20
-119.5310279999999921
11
78.4006249999999909
21
-119.9119799999999998
0
LINE
8
BLACK
6
CONTINUOUS
10
78.4006249999999909
20
-119.9119799999999998
11
78.4006249999999909
21
-120.197694999999996
0
LINE
8
BLACK
6
CONTINUOUS
10
78.4006249999999909
20
-120.197694999999996
11
78.3053869999999961
21
-120.5786469999999895
0
LINE
8
BLACK
6
CONTINUOUS
10
78.3053869999999961
20
-120.5786469999999895
11
78.2101490000000013
21
-120.7691229999999933
0
LINE
8
BLACK
6
CONTINUOUS
10
78.2101490000000013
20
-120.7691229999999933
11
78.0196729999999974
21
-120.9595999999999947
0
LINE
8
BLACK
6
CONTINUOUS
10
78.0196729999999974
20
-120.9595999999999947
11
77.7339580000000012
21
-121.0548379999999895
0
LINE
8
BLACK
6
CONTINUOUS
10
77.7339580000000012
20
-121.0548379999999895
11
77.2577679999999987
21
-121.0548379999999895
0
LINE
8
BLACK
6
CONTINUOUS
10
79.2577679999999987
20
-121.0548379999999895
11
79.2577679999999987
21
-119.7215039999999959
0
LINE
8
BLACK
6
CONTINUOUS
10
79.2577679999999987
20
-120.1024570000000011
11
79.3530059999999935
21
-119.9119799999999998
0
LINE
8
BLACK
6
CONTINUOUS
10
79.3530059999999935
20
-119.9119799999999998
11
79.4482440000000025
21
-119.8167419999999908
0
LINE
8
BLACK
6
CONTINUOUS
10
79.4482440000000025
20
-119.8167419999999908
11
79.6387199999999922
21
-119.7215039999999959
0
LINE
8
BLACK
6
CONTINUOUS
10
79.6387199999999922
20
-119.7215039999999959
11
79.8291969999999935
21
-119.7215039999999959
0
LINE
8
BLACK
6
CONTINUOUS
10
80.4958629999999999
20
-121.0548379999999895
11
80.4958629999999999
21
-119.7215039999999959
0
LINE
8
BLACK
6
CONTINUOUS
10
80.4958629999999999
20
-119.0548379999999895
11
80.4006249999999909
21
-119.1500759999999985
0
LINE
8
BLACK
6
CONTINUOUS
10
80.4006249999999909
20
-119.1500759999999985
11
80.4958629999999999
21
-119.2453139999999934
0
LINE
8
BLACK
6
CONTINUOUS
10
80.4958629999999999
20
-119.2453139999999934
11
80.5911009999999948
21
-119.1500759999999985
0
LINE
8
BLACK
6
CONTINUOUS
10
80.5911009999999948
20
-119.1500759999999985
11
80.4958629999999999
21
-119.0548379999999895
0
LINE
8
BLACK
6
CONTINUOUS
10
80.4958629999999999
20
-119.0548379999999895
11
80.4958629999999999
21
-119.2453139999999934
0
LINE
8
BLACK
6
CONTINUOUS
10
81.7339580000000012
20
-121.0548379999999895
11
81.5434819999999974
21
-120.9595999999999947
0
LINE
8
BLACK
6
CONTINUOUS
10
81.5434819999999974
20
-120.9595999999999947
11
81.4482440000000025
21
-120.7691229999999933
0
LINE
8
BLACK
6
CONTINUOUS
10
81.4482440000000025
20
-120.7691229999999933
11
81.4482440000000025
21
-119.0548379999999895
0
LINE
8
BLACK
6
CONTINUOUS
10
82.7815769999999986
20
-121.0548379999999895
11
82.5911009999999948
21
-120.9595999999999947
0
LINE
8
BLACK
6
CONTINUOUS
10
82.5911009999999948
20
-120.9595999999999947
11
82.4958629999999999
21
-120.7691229999999933
0
LINE
8
BLACK
6
CONTINUOUS
10
82.4958629999999999
20
-120.7691229999999933
11
82.4958629999999999
21
-119.0548379999999895
0
LINE
8
BLACK
6
CONTINUOUS
10
85.0672919999999948
20
-121.0548379999999895
11
85.0672919999999948
21
-119.0548379999999895
0
LINE
8
BLACK
6
CONTINUOUS
10
85.0672919999999948
20
-119.0548379999999895
11
85.7339589999999987
21
-120.4834089999999946
0
LINE
8
BLACK
6
CONTINUOUS
10
85.7339589999999987
20
-120.4834089999999946
11
86.4006249999999909
21
-119.0548379999999895
0
LINE
8
BLACK
6
CONTINUOUS
10
86.4006249999999909
20
-119.0548379999999895
11
86.4006249999999909
21
-121.0548379999999895
0
LINE
8
BLACK
6
CONTINUOUS
10
88.2101490000000013
20
-121.0548379999999895
11
88.2101490000000013
21
-120.0072189999999921
0
LINE
8
BLACK
6
CONTINUOUS
10
88.2101490000000013
20
-120.0072189999999921
11
88.1149109999999922
21
-119.8167419999999908
0
LINE
8
BLACK
6
CONTINUOUS
10
88.1149109999999922
20
-119.8167419999999908
11
87.9244350000000026
21
-119.7215039999999959
0
LINE
8
BLACK
6
CONTINUOUS
10
87.9244350000000026
20
-119.7215039999999959
11
87.5434819999999974
21
-119.7215039999999959
0
LINE
8
BLACK
6
CONTINUOUS
10
87.5434819999999974
20
-119.7215039999999959
11
87.3530059999999935
21
-119.8167419999999908
0
LINE
8
BLACK
6
CONTINUOUS
10
88.2101490000000013
20
-120.9595999999999947
11
88.0196729999999974
21
-121.0548379999999895
0
LINE
8
BLACK
6
CONTINUOUS
10
88.0196729999999974
20
-121.0548379999999895
11
87.5434819999999974
21
-121.0548379999999895
0
LINE
8
BLACK
6
CONTINUOUS
10
87.5434819999999974
20
-121.0548379999999895
11
87.3530059999999935
21
-120.9595999999999947
0
LINE
8
BLACK
6
CONTINUOUS
10
87.3530059999999935
20
-120.9595999999999947
11
87.2577679999999987
21
-120.7691229999999933
0
LINE
8
BLACK
6
CONTINUOUS
10
87.2577679999999987
20
-120.7691229999999933
11
87.2577679999999987
21
-120.5786469999999895
0
LINE
8
BLACK
6
CONTINUOUS
10
87.2577679999999987
20
-120.5786469999999895
11
87.3530059999999935
21
-120.3881709999999998
0
LINE
8
BLACK
6
CONTINUOUS
10
87.3530059999999935
20
-120.3881709999999998
11
87.5434819999999974
21
-120.2929329999999908
0
LINE
8
BLACK
6
CONTINUOUS
10
87.5434819999999974
20
-120.2929329999999908
11
88.0196729999999974
21
-120.2929329999999908
0
LINE
8
BLACK
6
CONTINUOUS
10
88.0196729999999974
20
-120.2929329999999908
11
88.2101490000000013
21
-120.197694999999996
0
LINE
8
BLACK
6
CONTINUOUS
10
89.1625299999999896
20
-119.7215039999999959
11
89.1625299999999896
21
-121.7215039999999959
0
LINE
8
BLACK
6
CONTINUOUS
10
89.1625299999999896
20
-119.8167419999999908
11
89.3530059999999935
21
-119.7215039999999959
0
LINE
8
BLACK
6
CONTINUOUS
10
89.3530059999999935
20
-119.7215039999999959
11
89.7339589999999987
21
-119.7215039999999959
0
LINE
8
BLACK
6
CONTINUOUS
10
89.7339589999999987
20
-119.7215039999999959
11
89.9244350000000026
21
-119.8167419999999908
0
LINE
8
BLACK
6
CONTINUOUS
10
89.9244350000000026
20
-119.8167419999999908
11
90.0196729999999974
21
-119.9119799999999998
0
LINE
8
BLACK
6
CONTINUOUS
10
90.0196729999999974
20
-119.9119799999999998
11
90.1149109999999922
21
-120.1024570000000011
0
LINE
8
BLACK
6
CONTINUOUS
10
90.1149109999999922
20
-120.1024570000000011
11
90.1149109999999922
21
-120.6738849999999985
0
LINE
8
BLACK
6
CONTINUOUS
10
90.1149109999999922
20
-120.6738849999999985
11
90.0196729999999974
21
-120.8643609999999882
0
LINE
8
BLACK
6
CONTINUOUS
10
90.0196729999999974
20
-120.8643609999999882
11
89.9244350000000026
21
-120.9595999999999947
0
LINE
8
BLACK
6
CONTINUOUS
10
89.9244350000000026
20
-120.9595999999999947
11
89.7339589999999987
21
-121.0548379999999895
0
LINE
8
BLACK
6
CONTINUOUS
10
89.7339589999999987
20
-121.0548379999999895
11
89.3530059999999935
21
-121.0548379999999895
0
LINE
8
BLACK
6
CONTINUOUS
10
89.3530059999999935
20
-121.0548379999999895
11
89.1625299999999896
21
-120.9595999999999947
0
LINE
8
BLACK
6
CONTINUOUS
10
90.972054
20
-120.8643609999999882
11
91.0672919999999948
21
-120.9595999999999947
0
LINE
8
BLACK
6
CONTINUOUS
10
91.0672919999999948
20
-120.9595999999999947
11
90.972054
21
-121.0548379999999895
0
LINE
8
BLACK
6
CONTINUOUS
10
90.972054
20
-121.0548379999999895
11
90.8768159999999909
21
-120.9595999999999947
0
LINE
8
BLACK
6
CONTINUOUS
10
90.8768159999999909
20
-120.9595999999999947
11
90.972054
21
-120.8643609999999882
0
LINE
8
BLACK
6
CONTINUOUS
10
90.972054
20
-120.8643609999999882
11
90.972054
21
-121.0548379999999895
0
LINE
8
BLACK
6
CONTINUOUS
10
90.972054
20
-119.8167419999999908
11
91.0672919999999948
21
-119.9119799999999998
0
LINE
8
BLACK
6
CONTINUOUS
10
91.0672919999999948
20
-119.9119799999999998
11
90.972054
21
-120.0072189999999921
0
LINE
8
BLACK
6
CONTINUOUS
10
90.972054
20
-120.0072189999999921
11
90.8768159999999909
21
-119.9119799999999998
0
LINE
8
BLACK
6
CONTINUOUS
10
90.8768159999999909
20
-119.9119799999999998
11
90.972054
21
-119.8167419999999908
0
LINE
8
BLACK
6
CONTINUOUS
10
90.972054
20
-119.8167419999999908
11
90.972054
21
-120.0072189999999921
  0
ENDSEC
  0
EOF
