%TF.GenerationSoftware,KiCad,Pcbnew,7.0.9*%
%TF.CreationDate,2023-12-05T19:44:07+10:00*%
%TF.ProjectId,Forward Console General Output,466f7277-6172-4642-9043-6f6e736f6c65,rev?*%
%TF.SameCoordinates,Original*%
%TF.FileFunction,Legend,Bot*%
%TF.FilePolarity,Positive*%
%FSLAX46Y46*%
G04 Gerber Fmt 4.6, Leading zero omitted, Abs format (unit mm)*
G04 Created by KiCad (PCBNEW 7.0.9) date 2023-12-05 19:44:07*
%MOMM*%
%LPD*%
G01*
G04 APERTURE LIST*
%ADD10C,0.150000*%
G04 APERTURE END LIST*
D10*
X207981523Y-105464819D02*
X207314857Y-105464819D01*
X207314857Y-105464819D02*
X207981523Y-106464819D01*
X207981523Y-106464819D02*
X207314857Y-106464819D01*
X206933904Y-105941009D02*
X206600571Y-105941009D01*
X206457714Y-106464819D02*
X206933904Y-106464819D01*
X206933904Y-106464819D02*
X206933904Y-105464819D01*
X206933904Y-105464819D02*
X206457714Y-105464819D01*
X205457714Y-106464819D02*
X205791047Y-105988628D01*
X206029142Y-106464819D02*
X206029142Y-105464819D01*
X206029142Y-105464819D02*
X205648190Y-105464819D01*
X205648190Y-105464819D02*
X205552952Y-105512438D01*
X205552952Y-105512438D02*
X205505333Y-105560057D01*
X205505333Y-105560057D02*
X205457714Y-105655295D01*
X205457714Y-105655295D02*
X205457714Y-105798152D01*
X205457714Y-105798152D02*
X205505333Y-105893390D01*
X205505333Y-105893390D02*
X205552952Y-105941009D01*
X205552952Y-105941009D02*
X205648190Y-105988628D01*
X205648190Y-105988628D02*
X206029142Y-105988628D01*
X204838666Y-105464819D02*
X204648190Y-105464819D01*
X204648190Y-105464819D02*
X204552952Y-105512438D01*
X204552952Y-105512438D02*
X204457714Y-105607676D01*
X204457714Y-105607676D02*
X204410095Y-105798152D01*
X204410095Y-105798152D02*
X204410095Y-106131485D01*
X204410095Y-106131485D02*
X204457714Y-106321961D01*
X204457714Y-106321961D02*
X204552952Y-106417200D01*
X204552952Y-106417200D02*
X204648190Y-106464819D01*
X204648190Y-106464819D02*
X204838666Y-106464819D01*
X204838666Y-106464819D02*
X204933904Y-106417200D01*
X204933904Y-106417200D02*
X205029142Y-106321961D01*
X205029142Y-106321961D02*
X205076761Y-106131485D01*
X205076761Y-106131485D02*
X205076761Y-105798152D01*
X205076761Y-105798152D02*
X205029142Y-105607676D01*
X205029142Y-105607676D02*
X204933904Y-105512438D01*
X204933904Y-105512438D02*
X204838666Y-105464819D01*
X206933904Y-107122438D02*
X207029142Y-107074819D01*
X207029142Y-107074819D02*
X207171999Y-107074819D01*
X207171999Y-107074819D02*
X207314856Y-107122438D01*
X207314856Y-107122438D02*
X207410094Y-107217676D01*
X207410094Y-107217676D02*
X207457713Y-107312914D01*
X207457713Y-107312914D02*
X207505332Y-107503390D01*
X207505332Y-107503390D02*
X207505332Y-107646247D01*
X207505332Y-107646247D02*
X207457713Y-107836723D01*
X207457713Y-107836723D02*
X207410094Y-107931961D01*
X207410094Y-107931961D02*
X207314856Y-108027200D01*
X207314856Y-108027200D02*
X207171999Y-108074819D01*
X207171999Y-108074819D02*
X207076761Y-108074819D01*
X207076761Y-108074819D02*
X206933904Y-108027200D01*
X206933904Y-108027200D02*
X206886285Y-107979580D01*
X206886285Y-107979580D02*
X206886285Y-107646247D01*
X206886285Y-107646247D02*
X207076761Y-107646247D01*
X206457713Y-108074819D02*
X206457713Y-107074819D01*
X206457713Y-107074819D02*
X205886285Y-108074819D01*
X205886285Y-108074819D02*
X205886285Y-107074819D01*
X205410094Y-108074819D02*
X205410094Y-107074819D01*
X205410094Y-107074819D02*
X205171999Y-107074819D01*
X205171999Y-107074819D02*
X205029142Y-107122438D01*
X205029142Y-107122438D02*
X204933904Y-107217676D01*
X204933904Y-107217676D02*
X204886285Y-107312914D01*
X204886285Y-107312914D02*
X204838666Y-107503390D01*
X204838666Y-107503390D02*
X204838666Y-107646247D01*
X204838666Y-107646247D02*
X204886285Y-107836723D01*
X204886285Y-107836723D02*
X204933904Y-107931961D01*
X204933904Y-107931961D02*
X205029142Y-108027200D01*
X205029142Y-108027200D02*
X205171999Y-108074819D01*
X205171999Y-108074819D02*
X205410094Y-108074819D01*
X207457713Y-109303866D02*
X206695809Y-109303866D01*
X207076761Y-109684819D02*
X207076761Y-108922914D01*
X205743428Y-108684819D02*
X206219618Y-108684819D01*
X206219618Y-108684819D02*
X206267237Y-109161009D01*
X206267237Y-109161009D02*
X206219618Y-109113390D01*
X206219618Y-109113390D02*
X206124380Y-109065771D01*
X206124380Y-109065771D02*
X205886285Y-109065771D01*
X205886285Y-109065771D02*
X205791047Y-109113390D01*
X205791047Y-109113390D02*
X205743428Y-109161009D01*
X205743428Y-109161009D02*
X205695809Y-109256247D01*
X205695809Y-109256247D02*
X205695809Y-109494342D01*
X205695809Y-109494342D02*
X205743428Y-109589580D01*
X205743428Y-109589580D02*
X205791047Y-109637200D01*
X205791047Y-109637200D02*
X205886285Y-109684819D01*
X205886285Y-109684819D02*
X206124380Y-109684819D01*
X206124380Y-109684819D02*
X206219618Y-109637200D01*
X206219618Y-109637200D02*
X206267237Y-109589580D01*
X205410094Y-108684819D02*
X205076761Y-109684819D01*
X205076761Y-109684819D02*
X204743428Y-108684819D01*
X207886285Y-80175866D02*
X207124381Y-80175866D01*
X206124381Y-80556819D02*
X206695809Y-80556819D01*
X206410095Y-80556819D02*
X206410095Y-79556819D01*
X206410095Y-79556819D02*
X206505333Y-79699676D01*
X206505333Y-79699676D02*
X206600571Y-79794914D01*
X206600571Y-79794914D02*
X206695809Y-79842533D01*
X205743428Y-79652057D02*
X205695809Y-79604438D01*
X205695809Y-79604438D02*
X205600571Y-79556819D01*
X205600571Y-79556819D02*
X205362476Y-79556819D01*
X205362476Y-79556819D02*
X205267238Y-79604438D01*
X205267238Y-79604438D02*
X205219619Y-79652057D01*
X205219619Y-79652057D02*
X205172000Y-79747295D01*
X205172000Y-79747295D02*
X205172000Y-79842533D01*
X205172000Y-79842533D02*
X205219619Y-79985390D01*
X205219619Y-79985390D02*
X205791047Y-80556819D01*
X205791047Y-80556819D02*
X205172000Y-80556819D01*
X208648190Y-81643009D02*
X208505333Y-81690628D01*
X208505333Y-81690628D02*
X208457714Y-81738247D01*
X208457714Y-81738247D02*
X208410095Y-81833485D01*
X208410095Y-81833485D02*
X208410095Y-81976342D01*
X208410095Y-81976342D02*
X208457714Y-82071580D01*
X208457714Y-82071580D02*
X208505333Y-82119200D01*
X208505333Y-82119200D02*
X208600571Y-82166819D01*
X208600571Y-82166819D02*
X208981523Y-82166819D01*
X208981523Y-82166819D02*
X208981523Y-81166819D01*
X208981523Y-81166819D02*
X208648190Y-81166819D01*
X208648190Y-81166819D02*
X208552952Y-81214438D01*
X208552952Y-81214438D02*
X208505333Y-81262057D01*
X208505333Y-81262057D02*
X208457714Y-81357295D01*
X208457714Y-81357295D02*
X208457714Y-81452533D01*
X208457714Y-81452533D02*
X208505333Y-81547771D01*
X208505333Y-81547771D02*
X208552952Y-81595390D01*
X208552952Y-81595390D02*
X208648190Y-81643009D01*
X208648190Y-81643009D02*
X208981523Y-81643009D01*
X207981523Y-82166819D02*
X207981523Y-81166819D01*
X207410095Y-82166819D02*
X207838666Y-81595390D01*
X207410095Y-81166819D02*
X207981523Y-81738247D01*
X206505333Y-82166819D02*
X206981523Y-82166819D01*
X206981523Y-82166819D02*
X206981523Y-81166819D01*
X206171999Y-82166819D02*
X206171999Y-81166819D01*
X205172000Y-81214438D02*
X205267238Y-81166819D01*
X205267238Y-81166819D02*
X205410095Y-81166819D01*
X205410095Y-81166819D02*
X205552952Y-81214438D01*
X205552952Y-81214438D02*
X205648190Y-81309676D01*
X205648190Y-81309676D02*
X205695809Y-81404914D01*
X205695809Y-81404914D02*
X205743428Y-81595390D01*
X205743428Y-81595390D02*
X205743428Y-81738247D01*
X205743428Y-81738247D02*
X205695809Y-81928723D01*
X205695809Y-81928723D02*
X205648190Y-82023961D01*
X205648190Y-82023961D02*
X205552952Y-82119200D01*
X205552952Y-82119200D02*
X205410095Y-82166819D01*
X205410095Y-82166819D02*
X205314857Y-82166819D01*
X205314857Y-82166819D02*
X205172000Y-82119200D01*
X205172000Y-82119200D02*
X205124381Y-82071580D01*
X205124381Y-82071580D02*
X205124381Y-81738247D01*
X205124381Y-81738247D02*
X205314857Y-81738247D01*
X204695809Y-82166819D02*
X204695809Y-81166819D01*
X204695809Y-81643009D02*
X204124381Y-81643009D01*
X204124381Y-82166819D02*
X204124381Y-81166819D01*
X203791047Y-81166819D02*
X203219619Y-81166819D01*
X203505333Y-82166819D02*
X203505333Y-81166819D01*
X207505332Y-83395866D02*
X206743428Y-83395866D01*
X207124380Y-83776819D02*
X207124380Y-83014914D01*
X205743428Y-83776819D02*
X206314856Y-83776819D01*
X206029142Y-83776819D02*
X206029142Y-82776819D01*
X206029142Y-82776819D02*
X206124380Y-82919676D01*
X206124380Y-82919676D02*
X206219618Y-83014914D01*
X206219618Y-83014914D02*
X206314856Y-83062533D01*
X205362475Y-82872057D02*
X205314856Y-82824438D01*
X205314856Y-82824438D02*
X205219618Y-82776819D01*
X205219618Y-82776819D02*
X204981523Y-82776819D01*
X204981523Y-82776819D02*
X204886285Y-82824438D01*
X204886285Y-82824438D02*
X204838666Y-82872057D01*
X204838666Y-82872057D02*
X204791047Y-82967295D01*
X204791047Y-82967295D02*
X204791047Y-83062533D01*
X204791047Y-83062533D02*
X204838666Y-83205390D01*
X204838666Y-83205390D02*
X205410094Y-83776819D01*
X205410094Y-83776819D02*
X204791047Y-83776819D01*
X207886285Y-97447866D02*
X207124381Y-97447866D01*
X206124381Y-97828819D02*
X206695809Y-97828819D01*
X206410095Y-97828819D02*
X206410095Y-96828819D01*
X206410095Y-96828819D02*
X206505333Y-96971676D01*
X206505333Y-96971676D02*
X206600571Y-97066914D01*
X206600571Y-97066914D02*
X206695809Y-97114533D01*
X205743428Y-96924057D02*
X205695809Y-96876438D01*
X205695809Y-96876438D02*
X205600571Y-96828819D01*
X205600571Y-96828819D02*
X205362476Y-96828819D01*
X205362476Y-96828819D02*
X205267238Y-96876438D01*
X205267238Y-96876438D02*
X205219619Y-96924057D01*
X205219619Y-96924057D02*
X205172000Y-97019295D01*
X205172000Y-97019295D02*
X205172000Y-97114533D01*
X205172000Y-97114533D02*
X205219619Y-97257390D01*
X205219619Y-97257390D02*
X205791047Y-97828819D01*
X205791047Y-97828819D02*
X205172000Y-97828819D01*
X208648190Y-98915009D02*
X208505333Y-98962628D01*
X208505333Y-98962628D02*
X208457714Y-99010247D01*
X208457714Y-99010247D02*
X208410095Y-99105485D01*
X208410095Y-99105485D02*
X208410095Y-99248342D01*
X208410095Y-99248342D02*
X208457714Y-99343580D01*
X208457714Y-99343580D02*
X208505333Y-99391200D01*
X208505333Y-99391200D02*
X208600571Y-99438819D01*
X208600571Y-99438819D02*
X208981523Y-99438819D01*
X208981523Y-99438819D02*
X208981523Y-98438819D01*
X208981523Y-98438819D02*
X208648190Y-98438819D01*
X208648190Y-98438819D02*
X208552952Y-98486438D01*
X208552952Y-98486438D02*
X208505333Y-98534057D01*
X208505333Y-98534057D02*
X208457714Y-98629295D01*
X208457714Y-98629295D02*
X208457714Y-98724533D01*
X208457714Y-98724533D02*
X208505333Y-98819771D01*
X208505333Y-98819771D02*
X208552952Y-98867390D01*
X208552952Y-98867390D02*
X208648190Y-98915009D01*
X208648190Y-98915009D02*
X208981523Y-98915009D01*
X207981523Y-99438819D02*
X207981523Y-98438819D01*
X207410095Y-99438819D02*
X207838666Y-98867390D01*
X207410095Y-98438819D02*
X207981523Y-99010247D01*
X206505333Y-99438819D02*
X206981523Y-99438819D01*
X206981523Y-99438819D02*
X206981523Y-98438819D01*
X206171999Y-99438819D02*
X206171999Y-98438819D01*
X205172000Y-98486438D02*
X205267238Y-98438819D01*
X205267238Y-98438819D02*
X205410095Y-98438819D01*
X205410095Y-98438819D02*
X205552952Y-98486438D01*
X205552952Y-98486438D02*
X205648190Y-98581676D01*
X205648190Y-98581676D02*
X205695809Y-98676914D01*
X205695809Y-98676914D02*
X205743428Y-98867390D01*
X205743428Y-98867390D02*
X205743428Y-99010247D01*
X205743428Y-99010247D02*
X205695809Y-99200723D01*
X205695809Y-99200723D02*
X205648190Y-99295961D01*
X205648190Y-99295961D02*
X205552952Y-99391200D01*
X205552952Y-99391200D02*
X205410095Y-99438819D01*
X205410095Y-99438819D02*
X205314857Y-99438819D01*
X205314857Y-99438819D02*
X205172000Y-99391200D01*
X205172000Y-99391200D02*
X205124381Y-99343580D01*
X205124381Y-99343580D02*
X205124381Y-99010247D01*
X205124381Y-99010247D02*
X205314857Y-99010247D01*
X204695809Y-99438819D02*
X204695809Y-98438819D01*
X204695809Y-98915009D02*
X204124381Y-98915009D01*
X204124381Y-99438819D02*
X204124381Y-98438819D01*
X203791047Y-98438819D02*
X203219619Y-98438819D01*
X203505333Y-99438819D02*
X203505333Y-98438819D01*
X207505332Y-100667866D02*
X206743428Y-100667866D01*
X207124380Y-101048819D02*
X207124380Y-100286914D01*
X205743428Y-101048819D02*
X206314856Y-101048819D01*
X206029142Y-101048819D02*
X206029142Y-100048819D01*
X206029142Y-100048819D02*
X206124380Y-100191676D01*
X206124380Y-100191676D02*
X206219618Y-100286914D01*
X206219618Y-100286914D02*
X206314856Y-100334533D01*
X205362475Y-100144057D02*
X205314856Y-100096438D01*
X205314856Y-100096438D02*
X205219618Y-100048819D01*
X205219618Y-100048819D02*
X204981523Y-100048819D01*
X204981523Y-100048819D02*
X204886285Y-100096438D01*
X204886285Y-100096438D02*
X204838666Y-100144057D01*
X204838666Y-100144057D02*
X204791047Y-100239295D01*
X204791047Y-100239295D02*
X204791047Y-100334533D01*
X204791047Y-100334533D02*
X204838666Y-100477390D01*
X204838666Y-100477390D02*
X205410094Y-101048819D01*
X205410094Y-101048819D02*
X204791047Y-101048819D01*
X207886285Y-113703866D02*
X207124381Y-113703866D01*
X206124381Y-114084819D02*
X206695809Y-114084819D01*
X206410095Y-114084819D02*
X206410095Y-113084819D01*
X206410095Y-113084819D02*
X206505333Y-113227676D01*
X206505333Y-113227676D02*
X206600571Y-113322914D01*
X206600571Y-113322914D02*
X206695809Y-113370533D01*
X205743428Y-113180057D02*
X205695809Y-113132438D01*
X205695809Y-113132438D02*
X205600571Y-113084819D01*
X205600571Y-113084819D02*
X205362476Y-113084819D01*
X205362476Y-113084819D02*
X205267238Y-113132438D01*
X205267238Y-113132438D02*
X205219619Y-113180057D01*
X205219619Y-113180057D02*
X205172000Y-113275295D01*
X205172000Y-113275295D02*
X205172000Y-113370533D01*
X205172000Y-113370533D02*
X205219619Y-113513390D01*
X205219619Y-113513390D02*
X205791047Y-114084819D01*
X205791047Y-114084819D02*
X205172000Y-114084819D01*
X208648190Y-115171009D02*
X208505333Y-115218628D01*
X208505333Y-115218628D02*
X208457714Y-115266247D01*
X208457714Y-115266247D02*
X208410095Y-115361485D01*
X208410095Y-115361485D02*
X208410095Y-115504342D01*
X208410095Y-115504342D02*
X208457714Y-115599580D01*
X208457714Y-115599580D02*
X208505333Y-115647200D01*
X208505333Y-115647200D02*
X208600571Y-115694819D01*
X208600571Y-115694819D02*
X208981523Y-115694819D01*
X208981523Y-115694819D02*
X208981523Y-114694819D01*
X208981523Y-114694819D02*
X208648190Y-114694819D01*
X208648190Y-114694819D02*
X208552952Y-114742438D01*
X208552952Y-114742438D02*
X208505333Y-114790057D01*
X208505333Y-114790057D02*
X208457714Y-114885295D01*
X208457714Y-114885295D02*
X208457714Y-114980533D01*
X208457714Y-114980533D02*
X208505333Y-115075771D01*
X208505333Y-115075771D02*
X208552952Y-115123390D01*
X208552952Y-115123390D02*
X208648190Y-115171009D01*
X208648190Y-115171009D02*
X208981523Y-115171009D01*
X207981523Y-115694819D02*
X207981523Y-114694819D01*
X207410095Y-115694819D02*
X207838666Y-115123390D01*
X207410095Y-114694819D02*
X207981523Y-115266247D01*
X206505333Y-115694819D02*
X206981523Y-115694819D01*
X206981523Y-115694819D02*
X206981523Y-114694819D01*
X206171999Y-115694819D02*
X206171999Y-114694819D01*
X205172000Y-114742438D02*
X205267238Y-114694819D01*
X205267238Y-114694819D02*
X205410095Y-114694819D01*
X205410095Y-114694819D02*
X205552952Y-114742438D01*
X205552952Y-114742438D02*
X205648190Y-114837676D01*
X205648190Y-114837676D02*
X205695809Y-114932914D01*
X205695809Y-114932914D02*
X205743428Y-115123390D01*
X205743428Y-115123390D02*
X205743428Y-115266247D01*
X205743428Y-115266247D02*
X205695809Y-115456723D01*
X205695809Y-115456723D02*
X205648190Y-115551961D01*
X205648190Y-115551961D02*
X205552952Y-115647200D01*
X205552952Y-115647200D02*
X205410095Y-115694819D01*
X205410095Y-115694819D02*
X205314857Y-115694819D01*
X205314857Y-115694819D02*
X205172000Y-115647200D01*
X205172000Y-115647200D02*
X205124381Y-115599580D01*
X205124381Y-115599580D02*
X205124381Y-115266247D01*
X205124381Y-115266247D02*
X205314857Y-115266247D01*
X204695809Y-115694819D02*
X204695809Y-114694819D01*
X204695809Y-115171009D02*
X204124381Y-115171009D01*
X204124381Y-115694819D02*
X204124381Y-114694819D01*
X203791047Y-114694819D02*
X203219619Y-114694819D01*
X203505333Y-115694819D02*
X203505333Y-114694819D01*
X207505332Y-116923866D02*
X206743428Y-116923866D01*
X207124380Y-117304819D02*
X207124380Y-116542914D01*
X205743428Y-117304819D02*
X206314856Y-117304819D01*
X206029142Y-117304819D02*
X206029142Y-116304819D01*
X206029142Y-116304819D02*
X206124380Y-116447676D01*
X206124380Y-116447676D02*
X206219618Y-116542914D01*
X206219618Y-116542914D02*
X206314856Y-116590533D01*
X205362475Y-116400057D02*
X205314856Y-116352438D01*
X205314856Y-116352438D02*
X205219618Y-116304819D01*
X205219618Y-116304819D02*
X204981523Y-116304819D01*
X204981523Y-116304819D02*
X204886285Y-116352438D01*
X204886285Y-116352438D02*
X204838666Y-116400057D01*
X204838666Y-116400057D02*
X204791047Y-116495295D01*
X204791047Y-116495295D02*
X204791047Y-116590533D01*
X204791047Y-116590533D02*
X204838666Y-116733390D01*
X204838666Y-116733390D02*
X205410094Y-117304819D01*
X205410094Y-117304819D02*
X204791047Y-117304819D01*
X207981523Y-88700819D02*
X207314857Y-88700819D01*
X207314857Y-88700819D02*
X207981523Y-89700819D01*
X207981523Y-89700819D02*
X207314857Y-89700819D01*
X206933904Y-89177009D02*
X206600571Y-89177009D01*
X206457714Y-89700819D02*
X206933904Y-89700819D01*
X206933904Y-89700819D02*
X206933904Y-88700819D01*
X206933904Y-88700819D02*
X206457714Y-88700819D01*
X205457714Y-89700819D02*
X205791047Y-89224628D01*
X206029142Y-89700819D02*
X206029142Y-88700819D01*
X206029142Y-88700819D02*
X205648190Y-88700819D01*
X205648190Y-88700819D02*
X205552952Y-88748438D01*
X205552952Y-88748438D02*
X205505333Y-88796057D01*
X205505333Y-88796057D02*
X205457714Y-88891295D01*
X205457714Y-88891295D02*
X205457714Y-89034152D01*
X205457714Y-89034152D02*
X205505333Y-89129390D01*
X205505333Y-89129390D02*
X205552952Y-89177009D01*
X205552952Y-89177009D02*
X205648190Y-89224628D01*
X205648190Y-89224628D02*
X206029142Y-89224628D01*
X204838666Y-88700819D02*
X204648190Y-88700819D01*
X204648190Y-88700819D02*
X204552952Y-88748438D01*
X204552952Y-88748438D02*
X204457714Y-88843676D01*
X204457714Y-88843676D02*
X204410095Y-89034152D01*
X204410095Y-89034152D02*
X204410095Y-89367485D01*
X204410095Y-89367485D02*
X204457714Y-89557961D01*
X204457714Y-89557961D02*
X204552952Y-89653200D01*
X204552952Y-89653200D02*
X204648190Y-89700819D01*
X204648190Y-89700819D02*
X204838666Y-89700819D01*
X204838666Y-89700819D02*
X204933904Y-89653200D01*
X204933904Y-89653200D02*
X205029142Y-89557961D01*
X205029142Y-89557961D02*
X205076761Y-89367485D01*
X205076761Y-89367485D02*
X205076761Y-89034152D01*
X205076761Y-89034152D02*
X205029142Y-88843676D01*
X205029142Y-88843676D02*
X204933904Y-88748438D01*
X204933904Y-88748438D02*
X204838666Y-88700819D01*
X206933904Y-90358438D02*
X207029142Y-90310819D01*
X207029142Y-90310819D02*
X207171999Y-90310819D01*
X207171999Y-90310819D02*
X207314856Y-90358438D01*
X207314856Y-90358438D02*
X207410094Y-90453676D01*
X207410094Y-90453676D02*
X207457713Y-90548914D01*
X207457713Y-90548914D02*
X207505332Y-90739390D01*
X207505332Y-90739390D02*
X207505332Y-90882247D01*
X207505332Y-90882247D02*
X207457713Y-91072723D01*
X207457713Y-91072723D02*
X207410094Y-91167961D01*
X207410094Y-91167961D02*
X207314856Y-91263200D01*
X207314856Y-91263200D02*
X207171999Y-91310819D01*
X207171999Y-91310819D02*
X207076761Y-91310819D01*
X207076761Y-91310819D02*
X206933904Y-91263200D01*
X206933904Y-91263200D02*
X206886285Y-91215580D01*
X206886285Y-91215580D02*
X206886285Y-90882247D01*
X206886285Y-90882247D02*
X207076761Y-90882247D01*
X206457713Y-91310819D02*
X206457713Y-90310819D01*
X206457713Y-90310819D02*
X205886285Y-91310819D01*
X205886285Y-91310819D02*
X205886285Y-90310819D01*
X205410094Y-91310819D02*
X205410094Y-90310819D01*
X205410094Y-90310819D02*
X205171999Y-90310819D01*
X205171999Y-90310819D02*
X205029142Y-90358438D01*
X205029142Y-90358438D02*
X204933904Y-90453676D01*
X204933904Y-90453676D02*
X204886285Y-90548914D01*
X204886285Y-90548914D02*
X204838666Y-90739390D01*
X204838666Y-90739390D02*
X204838666Y-90882247D01*
X204838666Y-90882247D02*
X204886285Y-91072723D01*
X204886285Y-91072723D02*
X204933904Y-91167961D01*
X204933904Y-91167961D02*
X205029142Y-91263200D01*
X205029142Y-91263200D02*
X205171999Y-91310819D01*
X205171999Y-91310819D02*
X205410094Y-91310819D01*
X207457713Y-92539866D02*
X206695809Y-92539866D01*
X207076761Y-92920819D02*
X207076761Y-92158914D01*
X205743428Y-91920819D02*
X206219618Y-91920819D01*
X206219618Y-91920819D02*
X206267237Y-92397009D01*
X206267237Y-92397009D02*
X206219618Y-92349390D01*
X206219618Y-92349390D02*
X206124380Y-92301771D01*
X206124380Y-92301771D02*
X205886285Y-92301771D01*
X205886285Y-92301771D02*
X205791047Y-92349390D01*
X205791047Y-92349390D02*
X205743428Y-92397009D01*
X205743428Y-92397009D02*
X205695809Y-92492247D01*
X205695809Y-92492247D02*
X205695809Y-92730342D01*
X205695809Y-92730342D02*
X205743428Y-92825580D01*
X205743428Y-92825580D02*
X205791047Y-92873200D01*
X205791047Y-92873200D02*
X205886285Y-92920819D01*
X205886285Y-92920819D02*
X206124380Y-92920819D01*
X206124380Y-92920819D02*
X206219618Y-92873200D01*
X206219618Y-92873200D02*
X206267237Y-92825580D01*
X205410094Y-91920819D02*
X205076761Y-92920819D01*
X205076761Y-92920819D02*
X204743428Y-91920819D01*
X208489523Y-121720819D02*
X207822857Y-121720819D01*
X207822857Y-121720819D02*
X208489523Y-122720819D01*
X208489523Y-122720819D02*
X207822857Y-122720819D01*
X207441904Y-122197009D02*
X207108571Y-122197009D01*
X206965714Y-122720819D02*
X207441904Y-122720819D01*
X207441904Y-122720819D02*
X207441904Y-121720819D01*
X207441904Y-121720819D02*
X206965714Y-121720819D01*
X205965714Y-122720819D02*
X206299047Y-122244628D01*
X206537142Y-122720819D02*
X206537142Y-121720819D01*
X206537142Y-121720819D02*
X206156190Y-121720819D01*
X206156190Y-121720819D02*
X206060952Y-121768438D01*
X206060952Y-121768438D02*
X206013333Y-121816057D01*
X206013333Y-121816057D02*
X205965714Y-121911295D01*
X205965714Y-121911295D02*
X205965714Y-122054152D01*
X205965714Y-122054152D02*
X206013333Y-122149390D01*
X206013333Y-122149390D02*
X206060952Y-122197009D01*
X206060952Y-122197009D02*
X206156190Y-122244628D01*
X206156190Y-122244628D02*
X206537142Y-122244628D01*
X205346666Y-121720819D02*
X205156190Y-121720819D01*
X205156190Y-121720819D02*
X205060952Y-121768438D01*
X205060952Y-121768438D02*
X204965714Y-121863676D01*
X204965714Y-121863676D02*
X204918095Y-122054152D01*
X204918095Y-122054152D02*
X204918095Y-122387485D01*
X204918095Y-122387485D02*
X204965714Y-122577961D01*
X204965714Y-122577961D02*
X205060952Y-122673200D01*
X205060952Y-122673200D02*
X205156190Y-122720819D01*
X205156190Y-122720819D02*
X205346666Y-122720819D01*
X205346666Y-122720819D02*
X205441904Y-122673200D01*
X205441904Y-122673200D02*
X205537142Y-122577961D01*
X205537142Y-122577961D02*
X205584761Y-122387485D01*
X205584761Y-122387485D02*
X205584761Y-122054152D01*
X205584761Y-122054152D02*
X205537142Y-121863676D01*
X205537142Y-121863676D02*
X205441904Y-121768438D01*
X205441904Y-121768438D02*
X205346666Y-121720819D01*
X207441904Y-123378438D02*
X207537142Y-123330819D01*
X207537142Y-123330819D02*
X207679999Y-123330819D01*
X207679999Y-123330819D02*
X207822856Y-123378438D01*
X207822856Y-123378438D02*
X207918094Y-123473676D01*
X207918094Y-123473676D02*
X207965713Y-123568914D01*
X207965713Y-123568914D02*
X208013332Y-123759390D01*
X208013332Y-123759390D02*
X208013332Y-123902247D01*
X208013332Y-123902247D02*
X207965713Y-124092723D01*
X207965713Y-124092723D02*
X207918094Y-124187961D01*
X207918094Y-124187961D02*
X207822856Y-124283200D01*
X207822856Y-124283200D02*
X207679999Y-124330819D01*
X207679999Y-124330819D02*
X207584761Y-124330819D01*
X207584761Y-124330819D02*
X207441904Y-124283200D01*
X207441904Y-124283200D02*
X207394285Y-124235580D01*
X207394285Y-124235580D02*
X207394285Y-123902247D01*
X207394285Y-123902247D02*
X207584761Y-123902247D01*
X206965713Y-124330819D02*
X206965713Y-123330819D01*
X206965713Y-123330819D02*
X206394285Y-124330819D01*
X206394285Y-124330819D02*
X206394285Y-123330819D01*
X205918094Y-124330819D02*
X205918094Y-123330819D01*
X205918094Y-123330819D02*
X205679999Y-123330819D01*
X205679999Y-123330819D02*
X205537142Y-123378438D01*
X205537142Y-123378438D02*
X205441904Y-123473676D01*
X205441904Y-123473676D02*
X205394285Y-123568914D01*
X205394285Y-123568914D02*
X205346666Y-123759390D01*
X205346666Y-123759390D02*
X205346666Y-123902247D01*
X205346666Y-123902247D02*
X205394285Y-124092723D01*
X205394285Y-124092723D02*
X205441904Y-124187961D01*
X205441904Y-124187961D02*
X205537142Y-124283200D01*
X205537142Y-124283200D02*
X205679999Y-124330819D01*
X205679999Y-124330819D02*
X205918094Y-124330819D01*
X207965713Y-125559866D02*
X207203809Y-125559866D01*
X207584761Y-125940819D02*
X207584761Y-125178914D01*
X206251428Y-124940819D02*
X206727618Y-124940819D01*
X206727618Y-124940819D02*
X206775237Y-125417009D01*
X206775237Y-125417009D02*
X206727618Y-125369390D01*
X206727618Y-125369390D02*
X206632380Y-125321771D01*
X206632380Y-125321771D02*
X206394285Y-125321771D01*
X206394285Y-125321771D02*
X206299047Y-125369390D01*
X206299047Y-125369390D02*
X206251428Y-125417009D01*
X206251428Y-125417009D02*
X206203809Y-125512247D01*
X206203809Y-125512247D02*
X206203809Y-125750342D01*
X206203809Y-125750342D02*
X206251428Y-125845580D01*
X206251428Y-125845580D02*
X206299047Y-125893200D01*
X206299047Y-125893200D02*
X206394285Y-125940819D01*
X206394285Y-125940819D02*
X206632380Y-125940819D01*
X206632380Y-125940819D02*
X206727618Y-125893200D01*
X206727618Y-125893200D02*
X206775237Y-125845580D01*
X205918094Y-124940819D02*
X205584761Y-125940819D01*
X205584761Y-125940819D02*
X205251428Y-124940819D01*
X212230819Y-72012476D02*
X212945104Y-72012476D01*
X212945104Y-72012476D02*
X213087961Y-71964857D01*
X213087961Y-71964857D02*
X213183200Y-71869619D01*
X213183200Y-71869619D02*
X213230819Y-71726762D01*
X213230819Y-71726762D02*
X213230819Y-71631524D01*
X212230819Y-72393429D02*
X212230819Y-73012476D01*
X212230819Y-73012476D02*
X212611771Y-72679143D01*
X212611771Y-72679143D02*
X212611771Y-72822000D01*
X212611771Y-72822000D02*
X212659390Y-72917238D01*
X212659390Y-72917238D02*
X212707009Y-72964857D01*
X212707009Y-72964857D02*
X212802247Y-73012476D01*
X212802247Y-73012476D02*
X213040342Y-73012476D01*
X213040342Y-73012476D02*
X213135580Y-72964857D01*
X213135580Y-72964857D02*
X213183200Y-72917238D01*
X213183200Y-72917238D02*
X213230819Y-72822000D01*
X213230819Y-72822000D02*
X213230819Y-72536286D01*
X213230819Y-72536286D02*
X213183200Y-72441048D01*
X213183200Y-72441048D02*
X213135580Y-72393429D01*
X212230819Y-73917238D02*
X212230819Y-73441048D01*
X212230819Y-73441048D02*
X212707009Y-73393429D01*
X212707009Y-73393429D02*
X212659390Y-73441048D01*
X212659390Y-73441048D02*
X212611771Y-73536286D01*
X212611771Y-73536286D02*
X212611771Y-73774381D01*
X212611771Y-73774381D02*
X212659390Y-73869619D01*
X212659390Y-73869619D02*
X212707009Y-73917238D01*
X212707009Y-73917238D02*
X212802247Y-73964857D01*
X212802247Y-73964857D02*
X213040342Y-73964857D01*
X213040342Y-73964857D02*
X213135580Y-73917238D01*
X213135580Y-73917238D02*
X213183200Y-73869619D01*
X213183200Y-73869619D02*
X213230819Y-73774381D01*
X213230819Y-73774381D02*
X213230819Y-73536286D01*
X213230819Y-73536286D02*
X213183200Y-73441048D01*
X213183200Y-73441048D02*
X213135580Y-73393429D01*
X204102819Y-60582476D02*
X204817104Y-60582476D01*
X204817104Y-60582476D02*
X204959961Y-60534857D01*
X204959961Y-60534857D02*
X205055200Y-60439619D01*
X205055200Y-60439619D02*
X205102819Y-60296762D01*
X205102819Y-60296762D02*
X205102819Y-60201524D01*
X204102819Y-60963429D02*
X204102819Y-61582476D01*
X204102819Y-61582476D02*
X204483771Y-61249143D01*
X204483771Y-61249143D02*
X204483771Y-61392000D01*
X204483771Y-61392000D02*
X204531390Y-61487238D01*
X204531390Y-61487238D02*
X204579009Y-61534857D01*
X204579009Y-61534857D02*
X204674247Y-61582476D01*
X204674247Y-61582476D02*
X204912342Y-61582476D01*
X204912342Y-61582476D02*
X205007580Y-61534857D01*
X205007580Y-61534857D02*
X205055200Y-61487238D01*
X205055200Y-61487238D02*
X205102819Y-61392000D01*
X205102819Y-61392000D02*
X205102819Y-61106286D01*
X205102819Y-61106286D02*
X205055200Y-61011048D01*
X205055200Y-61011048D02*
X205007580Y-60963429D01*
X205102819Y-62058667D02*
X205102819Y-62249143D01*
X205102819Y-62249143D02*
X205055200Y-62344381D01*
X205055200Y-62344381D02*
X205007580Y-62392000D01*
X205007580Y-62392000D02*
X204864723Y-62487238D01*
X204864723Y-62487238D02*
X204674247Y-62534857D01*
X204674247Y-62534857D02*
X204293295Y-62534857D01*
X204293295Y-62534857D02*
X204198057Y-62487238D01*
X204198057Y-62487238D02*
X204150438Y-62439619D01*
X204150438Y-62439619D02*
X204102819Y-62344381D01*
X204102819Y-62344381D02*
X204102819Y-62153905D01*
X204102819Y-62153905D02*
X204150438Y-62058667D01*
X204150438Y-62058667D02*
X204198057Y-62011048D01*
X204198057Y-62011048D02*
X204293295Y-61963429D01*
X204293295Y-61963429D02*
X204531390Y-61963429D01*
X204531390Y-61963429D02*
X204626628Y-62011048D01*
X204626628Y-62011048D02*
X204674247Y-62058667D01*
X204674247Y-62058667D02*
X204721866Y-62153905D01*
X204721866Y-62153905D02*
X204721866Y-62344381D01*
X204721866Y-62344381D02*
X204674247Y-62439619D01*
X204674247Y-62439619D02*
X204626628Y-62487238D01*
X204626628Y-62487238D02*
X204531390Y-62534857D01*
X204102819Y-102746476D02*
X204817104Y-102746476D01*
X204817104Y-102746476D02*
X204959961Y-102698857D01*
X204959961Y-102698857D02*
X205055200Y-102603619D01*
X205055200Y-102603619D02*
X205102819Y-102460762D01*
X205102819Y-102460762D02*
X205102819Y-102365524D01*
X204198057Y-103175048D02*
X204150438Y-103222667D01*
X204150438Y-103222667D02*
X204102819Y-103317905D01*
X204102819Y-103317905D02*
X204102819Y-103556000D01*
X204102819Y-103556000D02*
X204150438Y-103651238D01*
X204150438Y-103651238D02*
X204198057Y-103698857D01*
X204198057Y-103698857D02*
X204293295Y-103746476D01*
X204293295Y-103746476D02*
X204388533Y-103746476D01*
X204388533Y-103746476D02*
X204531390Y-103698857D01*
X204531390Y-103698857D02*
X205102819Y-103127429D01*
X205102819Y-103127429D02*
X205102819Y-103746476D01*
X204531390Y-104317905D02*
X204483771Y-104222667D01*
X204483771Y-104222667D02*
X204436152Y-104175048D01*
X204436152Y-104175048D02*
X204340914Y-104127429D01*
X204340914Y-104127429D02*
X204293295Y-104127429D01*
X204293295Y-104127429D02*
X204198057Y-104175048D01*
X204198057Y-104175048D02*
X204150438Y-104222667D01*
X204150438Y-104222667D02*
X204102819Y-104317905D01*
X204102819Y-104317905D02*
X204102819Y-104508381D01*
X204102819Y-104508381D02*
X204150438Y-104603619D01*
X204150438Y-104603619D02*
X204198057Y-104651238D01*
X204198057Y-104651238D02*
X204293295Y-104698857D01*
X204293295Y-104698857D02*
X204340914Y-104698857D01*
X204340914Y-104698857D02*
X204436152Y-104651238D01*
X204436152Y-104651238D02*
X204483771Y-104603619D01*
X204483771Y-104603619D02*
X204531390Y-104508381D01*
X204531390Y-104508381D02*
X204531390Y-104317905D01*
X204531390Y-104317905D02*
X204579009Y-104222667D01*
X204579009Y-104222667D02*
X204626628Y-104175048D01*
X204626628Y-104175048D02*
X204721866Y-104127429D01*
X204721866Y-104127429D02*
X204912342Y-104127429D01*
X204912342Y-104127429D02*
X205007580Y-104175048D01*
X205007580Y-104175048D02*
X205055200Y-104222667D01*
X205055200Y-104222667D02*
X205102819Y-104317905D01*
X205102819Y-104317905D02*
X205102819Y-104508381D01*
X205102819Y-104508381D02*
X205055200Y-104603619D01*
X205055200Y-104603619D02*
X205007580Y-104651238D01*
X205007580Y-104651238D02*
X204912342Y-104698857D01*
X204912342Y-104698857D02*
X204721866Y-104698857D01*
X204721866Y-104698857D02*
X204626628Y-104651238D01*
X204626628Y-104651238D02*
X204579009Y-104603619D01*
X204579009Y-104603619D02*
X204531390Y-104508381D01*
X154004523Y-82289819D02*
X154004523Y-83004104D01*
X154004523Y-83004104D02*
X154052142Y-83146961D01*
X154052142Y-83146961D02*
X154147380Y-83242200D01*
X154147380Y-83242200D02*
X154290237Y-83289819D01*
X154290237Y-83289819D02*
X154385475Y-83289819D01*
X153004523Y-83289819D02*
X153575951Y-83289819D01*
X153290237Y-83289819D02*
X153290237Y-82289819D01*
X153290237Y-82289819D02*
X153385475Y-82432676D01*
X153385475Y-82432676D02*
X153480713Y-82527914D01*
X153480713Y-82527914D02*
X153575951Y-82575533D01*
X152147380Y-82623152D02*
X152147380Y-83289819D01*
X152385475Y-82242200D02*
X152623570Y-82956485D01*
X152623570Y-82956485D02*
X152004523Y-82956485D01*
X154290333Y-73272819D02*
X154290333Y-73987104D01*
X154290333Y-73987104D02*
X154337952Y-74129961D01*
X154337952Y-74129961D02*
X154433190Y-74225200D01*
X154433190Y-74225200D02*
X154576047Y-74272819D01*
X154576047Y-74272819D02*
X154671285Y-74272819D01*
X153766523Y-74272819D02*
X153576047Y-74272819D01*
X153576047Y-74272819D02*
X153480809Y-74225200D01*
X153480809Y-74225200D02*
X153433190Y-74177580D01*
X153433190Y-74177580D02*
X153337952Y-74034723D01*
X153337952Y-74034723D02*
X153290333Y-73844247D01*
X153290333Y-73844247D02*
X153290333Y-73463295D01*
X153290333Y-73463295D02*
X153337952Y-73368057D01*
X153337952Y-73368057D02*
X153385571Y-73320438D01*
X153385571Y-73320438D02*
X153480809Y-73272819D01*
X153480809Y-73272819D02*
X153671285Y-73272819D01*
X153671285Y-73272819D02*
X153766523Y-73320438D01*
X153766523Y-73320438D02*
X153814142Y-73368057D01*
X153814142Y-73368057D02*
X153861761Y-73463295D01*
X153861761Y-73463295D02*
X153861761Y-73701390D01*
X153861761Y-73701390D02*
X153814142Y-73796628D01*
X153814142Y-73796628D02*
X153766523Y-73844247D01*
X153766523Y-73844247D02*
X153671285Y-73891866D01*
X153671285Y-73891866D02*
X153480809Y-73891866D01*
X153480809Y-73891866D02*
X153385571Y-73844247D01*
X153385571Y-73844247D02*
X153337952Y-73796628D01*
X153337952Y-73796628D02*
X153290333Y-73701390D01*
X212230819Y-49415476D02*
X212945104Y-49415476D01*
X212945104Y-49415476D02*
X213087961Y-49367857D01*
X213087961Y-49367857D02*
X213183200Y-49272619D01*
X213183200Y-49272619D02*
X213230819Y-49129762D01*
X213230819Y-49129762D02*
X213230819Y-49034524D01*
X212564152Y-50320238D02*
X213230819Y-50320238D01*
X212183200Y-50082143D02*
X212897485Y-49844048D01*
X212897485Y-49844048D02*
X212897485Y-50463095D01*
X212230819Y-51034524D02*
X212230819Y-51129762D01*
X212230819Y-51129762D02*
X212278438Y-51225000D01*
X212278438Y-51225000D02*
X212326057Y-51272619D01*
X212326057Y-51272619D02*
X212421295Y-51320238D01*
X212421295Y-51320238D02*
X212611771Y-51367857D01*
X212611771Y-51367857D02*
X212849866Y-51367857D01*
X212849866Y-51367857D02*
X213040342Y-51320238D01*
X213040342Y-51320238D02*
X213135580Y-51272619D01*
X213135580Y-51272619D02*
X213183200Y-51225000D01*
X213183200Y-51225000D02*
X213230819Y-51129762D01*
X213230819Y-51129762D02*
X213230819Y-51034524D01*
X213230819Y-51034524D02*
X213183200Y-50939286D01*
X213183200Y-50939286D02*
X213135580Y-50891667D01*
X213135580Y-50891667D02*
X213040342Y-50844048D01*
X213040342Y-50844048D02*
X212849866Y-50796429D01*
X212849866Y-50796429D02*
X212611771Y-50796429D01*
X212611771Y-50796429D02*
X212421295Y-50844048D01*
X212421295Y-50844048D02*
X212326057Y-50891667D01*
X212326057Y-50891667D02*
X212278438Y-50939286D01*
X212278438Y-50939286D02*
X212230819Y-51034524D01*
X212230819Y-119002476D02*
X212945104Y-119002476D01*
X212945104Y-119002476D02*
X213087961Y-118954857D01*
X213087961Y-118954857D02*
X213183200Y-118859619D01*
X213183200Y-118859619D02*
X213230819Y-118716762D01*
X213230819Y-118716762D02*
X213230819Y-118621524D01*
X212326057Y-119431048D02*
X212278438Y-119478667D01*
X212278438Y-119478667D02*
X212230819Y-119573905D01*
X212230819Y-119573905D02*
X212230819Y-119812000D01*
X212230819Y-119812000D02*
X212278438Y-119907238D01*
X212278438Y-119907238D02*
X212326057Y-119954857D01*
X212326057Y-119954857D02*
X212421295Y-120002476D01*
X212421295Y-120002476D02*
X212516533Y-120002476D01*
X212516533Y-120002476D02*
X212659390Y-119954857D01*
X212659390Y-119954857D02*
X213230819Y-119383429D01*
X213230819Y-119383429D02*
X213230819Y-120002476D01*
X212230819Y-120335810D02*
X212230819Y-121002476D01*
X212230819Y-121002476D02*
X213230819Y-120573905D01*
X121746523Y-42812819D02*
X121746523Y-43527104D01*
X121746523Y-43527104D02*
X121794142Y-43669961D01*
X121794142Y-43669961D02*
X121889380Y-43765200D01*
X121889380Y-43765200D02*
X122032237Y-43812819D01*
X122032237Y-43812819D02*
X122127475Y-43812819D01*
X120746523Y-43812819D02*
X121317951Y-43812819D01*
X121032237Y-43812819D02*
X121032237Y-42812819D01*
X121032237Y-42812819D02*
X121127475Y-42955676D01*
X121127475Y-42955676D02*
X121222713Y-43050914D01*
X121222713Y-43050914D02*
X121317951Y-43098533D01*
X120270332Y-43812819D02*
X120079856Y-43812819D01*
X120079856Y-43812819D02*
X119984618Y-43765200D01*
X119984618Y-43765200D02*
X119936999Y-43717580D01*
X119936999Y-43717580D02*
X119841761Y-43574723D01*
X119841761Y-43574723D02*
X119794142Y-43384247D01*
X119794142Y-43384247D02*
X119794142Y-43003295D01*
X119794142Y-43003295D02*
X119841761Y-42908057D01*
X119841761Y-42908057D02*
X119889380Y-42860438D01*
X119889380Y-42860438D02*
X119984618Y-42812819D01*
X119984618Y-42812819D02*
X120175094Y-42812819D01*
X120175094Y-42812819D02*
X120270332Y-42860438D01*
X120270332Y-42860438D02*
X120317951Y-42908057D01*
X120317951Y-42908057D02*
X120365570Y-43003295D01*
X120365570Y-43003295D02*
X120365570Y-43241390D01*
X120365570Y-43241390D02*
X120317951Y-43336628D01*
X120317951Y-43336628D02*
X120270332Y-43384247D01*
X120270332Y-43384247D02*
X120175094Y-43431866D01*
X120175094Y-43431866D02*
X119984618Y-43431866D01*
X119984618Y-43431866D02*
X119889380Y-43384247D01*
X119889380Y-43384247D02*
X119841761Y-43336628D01*
X119841761Y-43336628D02*
X119794142Y-43241390D01*
X141079819Y-76338333D02*
X140603628Y-76005000D01*
X141079819Y-75766905D02*
X140079819Y-75766905D01*
X140079819Y-75766905D02*
X140079819Y-76147857D01*
X140079819Y-76147857D02*
X140127438Y-76243095D01*
X140127438Y-76243095D02*
X140175057Y-76290714D01*
X140175057Y-76290714D02*
X140270295Y-76338333D01*
X140270295Y-76338333D02*
X140413152Y-76338333D01*
X140413152Y-76338333D02*
X140508390Y-76290714D01*
X140508390Y-76290714D02*
X140556009Y-76243095D01*
X140556009Y-76243095D02*
X140603628Y-76147857D01*
X140603628Y-76147857D02*
X140603628Y-75766905D01*
X141079819Y-77290714D02*
X141079819Y-76719286D01*
X141079819Y-77005000D02*
X140079819Y-77005000D01*
X140079819Y-77005000D02*
X140222676Y-76909762D01*
X140222676Y-76909762D02*
X140317914Y-76814524D01*
X140317914Y-76814524D02*
X140365533Y-76719286D01*
X147545523Y-38494819D02*
X147545523Y-39209104D01*
X147545523Y-39209104D02*
X147593142Y-39351961D01*
X147593142Y-39351961D02*
X147688380Y-39447200D01*
X147688380Y-39447200D02*
X147831237Y-39494819D01*
X147831237Y-39494819D02*
X147926475Y-39494819D01*
X147164570Y-38494819D02*
X146545523Y-38494819D01*
X146545523Y-38494819D02*
X146878856Y-38875771D01*
X146878856Y-38875771D02*
X146735999Y-38875771D01*
X146735999Y-38875771D02*
X146640761Y-38923390D01*
X146640761Y-38923390D02*
X146593142Y-38971009D01*
X146593142Y-38971009D02*
X146545523Y-39066247D01*
X146545523Y-39066247D02*
X146545523Y-39304342D01*
X146545523Y-39304342D02*
X146593142Y-39399580D01*
X146593142Y-39399580D02*
X146640761Y-39447200D01*
X146640761Y-39447200D02*
X146735999Y-39494819D01*
X146735999Y-39494819D02*
X147021713Y-39494819D01*
X147021713Y-39494819D02*
X147116951Y-39447200D01*
X147116951Y-39447200D02*
X147164570Y-39399580D01*
X145688380Y-38828152D02*
X145688380Y-39494819D01*
X145926475Y-38447200D02*
X146164570Y-39161485D01*
X146164570Y-39161485D02*
X145545523Y-39161485D01*
X132827333Y-81801819D02*
X132827333Y-82516104D01*
X132827333Y-82516104D02*
X132874952Y-82658961D01*
X132874952Y-82658961D02*
X132970190Y-82754200D01*
X132970190Y-82754200D02*
X133113047Y-82801819D01*
X133113047Y-82801819D02*
X133208285Y-82801819D01*
X131922571Y-81801819D02*
X132113047Y-81801819D01*
X132113047Y-81801819D02*
X132208285Y-81849438D01*
X132208285Y-81849438D02*
X132255904Y-81897057D01*
X132255904Y-81897057D02*
X132351142Y-82039914D01*
X132351142Y-82039914D02*
X132398761Y-82230390D01*
X132398761Y-82230390D02*
X132398761Y-82611342D01*
X132398761Y-82611342D02*
X132351142Y-82706580D01*
X132351142Y-82706580D02*
X132303523Y-82754200D01*
X132303523Y-82754200D02*
X132208285Y-82801819D01*
X132208285Y-82801819D02*
X132017809Y-82801819D01*
X132017809Y-82801819D02*
X131922571Y-82754200D01*
X131922571Y-82754200D02*
X131874952Y-82706580D01*
X131874952Y-82706580D02*
X131827333Y-82611342D01*
X131827333Y-82611342D02*
X131827333Y-82373247D01*
X131827333Y-82373247D02*
X131874952Y-82278009D01*
X131874952Y-82278009D02*
X131922571Y-82230390D01*
X131922571Y-82230390D02*
X132017809Y-82182771D01*
X132017809Y-82182771D02*
X132208285Y-82182771D01*
X132208285Y-82182771D02*
X132303523Y-82230390D01*
X132303523Y-82230390D02*
X132351142Y-82278009D01*
X132351142Y-82278009D02*
X132398761Y-82373247D01*
X140211333Y-82309819D02*
X140211333Y-83024104D01*
X140211333Y-83024104D02*
X140258952Y-83166961D01*
X140258952Y-83166961D02*
X140354190Y-83262200D01*
X140354190Y-83262200D02*
X140497047Y-83309819D01*
X140497047Y-83309819D02*
X140592285Y-83309819D01*
X139830380Y-82309819D02*
X139211333Y-82309819D01*
X139211333Y-82309819D02*
X139544666Y-82690771D01*
X139544666Y-82690771D02*
X139401809Y-82690771D01*
X139401809Y-82690771D02*
X139306571Y-82738390D01*
X139306571Y-82738390D02*
X139258952Y-82786009D01*
X139258952Y-82786009D02*
X139211333Y-82881247D01*
X139211333Y-82881247D02*
X139211333Y-83119342D01*
X139211333Y-83119342D02*
X139258952Y-83214580D01*
X139258952Y-83214580D02*
X139306571Y-83262200D01*
X139306571Y-83262200D02*
X139401809Y-83309819D01*
X139401809Y-83309819D02*
X139687523Y-83309819D01*
X139687523Y-83309819D02*
X139782761Y-83262200D01*
X139782761Y-83262200D02*
X139830380Y-83214580D01*
X212230819Y-102746476D02*
X212945104Y-102746476D01*
X212945104Y-102746476D02*
X213087961Y-102698857D01*
X213087961Y-102698857D02*
X213183200Y-102603619D01*
X213183200Y-102603619D02*
X213230819Y-102460762D01*
X213230819Y-102460762D02*
X213230819Y-102365524D01*
X212326057Y-103175048D02*
X212278438Y-103222667D01*
X212278438Y-103222667D02*
X212230819Y-103317905D01*
X212230819Y-103317905D02*
X212230819Y-103556000D01*
X212230819Y-103556000D02*
X212278438Y-103651238D01*
X212278438Y-103651238D02*
X212326057Y-103698857D01*
X212326057Y-103698857D02*
X212421295Y-103746476D01*
X212421295Y-103746476D02*
X212516533Y-103746476D01*
X212516533Y-103746476D02*
X212659390Y-103698857D01*
X212659390Y-103698857D02*
X213230819Y-103127429D01*
X213230819Y-103127429D02*
X213230819Y-103746476D01*
X213230819Y-104222667D02*
X213230819Y-104413143D01*
X213230819Y-104413143D02*
X213183200Y-104508381D01*
X213183200Y-104508381D02*
X213135580Y-104556000D01*
X213135580Y-104556000D02*
X212992723Y-104651238D01*
X212992723Y-104651238D02*
X212802247Y-104698857D01*
X212802247Y-104698857D02*
X212421295Y-104698857D01*
X212421295Y-104698857D02*
X212326057Y-104651238D01*
X212326057Y-104651238D02*
X212278438Y-104603619D01*
X212278438Y-104603619D02*
X212230819Y-104508381D01*
X212230819Y-104508381D02*
X212230819Y-104317905D01*
X212230819Y-104317905D02*
X212278438Y-104222667D01*
X212278438Y-104222667D02*
X212326057Y-104175048D01*
X212326057Y-104175048D02*
X212421295Y-104127429D01*
X212421295Y-104127429D02*
X212659390Y-104127429D01*
X212659390Y-104127429D02*
X212754628Y-104175048D01*
X212754628Y-104175048D02*
X212802247Y-104222667D01*
X212802247Y-104222667D02*
X212849866Y-104317905D01*
X212849866Y-104317905D02*
X212849866Y-104508381D01*
X212849866Y-104508381D02*
X212802247Y-104603619D01*
X212802247Y-104603619D02*
X212754628Y-104651238D01*
X212754628Y-104651238D02*
X212659390Y-104698857D01*
X204102819Y-49415476D02*
X204817104Y-49415476D01*
X204817104Y-49415476D02*
X204959961Y-49367857D01*
X204959961Y-49367857D02*
X205055200Y-49272619D01*
X205055200Y-49272619D02*
X205102819Y-49129762D01*
X205102819Y-49129762D02*
X205102819Y-49034524D01*
X204102819Y-49796429D02*
X204102819Y-50415476D01*
X204102819Y-50415476D02*
X204483771Y-50082143D01*
X204483771Y-50082143D02*
X204483771Y-50225000D01*
X204483771Y-50225000D02*
X204531390Y-50320238D01*
X204531390Y-50320238D02*
X204579009Y-50367857D01*
X204579009Y-50367857D02*
X204674247Y-50415476D01*
X204674247Y-50415476D02*
X204912342Y-50415476D01*
X204912342Y-50415476D02*
X205007580Y-50367857D01*
X205007580Y-50367857D02*
X205055200Y-50320238D01*
X205055200Y-50320238D02*
X205102819Y-50225000D01*
X205102819Y-50225000D02*
X205102819Y-49939286D01*
X205102819Y-49939286D02*
X205055200Y-49844048D01*
X205055200Y-49844048D02*
X205007580Y-49796429D01*
X204102819Y-50748810D02*
X204102819Y-51415476D01*
X204102819Y-51415476D02*
X205102819Y-50986905D01*
X211680819Y-86236476D02*
X212395104Y-86236476D01*
X212395104Y-86236476D02*
X212537961Y-86188857D01*
X212537961Y-86188857D02*
X212633200Y-86093619D01*
X212633200Y-86093619D02*
X212680819Y-85950762D01*
X212680819Y-85950762D02*
X212680819Y-85855524D01*
X211680819Y-86617429D02*
X211680819Y-87236476D01*
X211680819Y-87236476D02*
X212061771Y-86903143D01*
X212061771Y-86903143D02*
X212061771Y-87046000D01*
X212061771Y-87046000D02*
X212109390Y-87141238D01*
X212109390Y-87141238D02*
X212157009Y-87188857D01*
X212157009Y-87188857D02*
X212252247Y-87236476D01*
X212252247Y-87236476D02*
X212490342Y-87236476D01*
X212490342Y-87236476D02*
X212585580Y-87188857D01*
X212585580Y-87188857D02*
X212633200Y-87141238D01*
X212633200Y-87141238D02*
X212680819Y-87046000D01*
X212680819Y-87046000D02*
X212680819Y-86760286D01*
X212680819Y-86760286D02*
X212633200Y-86665048D01*
X212633200Y-86665048D02*
X212585580Y-86617429D01*
X212680819Y-88188857D02*
X212680819Y-87617429D01*
X212680819Y-87903143D02*
X211680819Y-87903143D01*
X211680819Y-87903143D02*
X211823676Y-87807905D01*
X211823676Y-87807905D02*
X211918914Y-87712667D01*
X211918914Y-87712667D02*
X211966533Y-87617429D01*
X212230819Y-60582476D02*
X212945104Y-60582476D01*
X212945104Y-60582476D02*
X213087961Y-60534857D01*
X213087961Y-60534857D02*
X213183200Y-60439619D01*
X213183200Y-60439619D02*
X213230819Y-60296762D01*
X213230819Y-60296762D02*
X213230819Y-60201524D01*
X212230819Y-60963429D02*
X212230819Y-61582476D01*
X212230819Y-61582476D02*
X212611771Y-61249143D01*
X212611771Y-61249143D02*
X212611771Y-61392000D01*
X212611771Y-61392000D02*
X212659390Y-61487238D01*
X212659390Y-61487238D02*
X212707009Y-61534857D01*
X212707009Y-61534857D02*
X212802247Y-61582476D01*
X212802247Y-61582476D02*
X213040342Y-61582476D01*
X213040342Y-61582476D02*
X213135580Y-61534857D01*
X213135580Y-61534857D02*
X213183200Y-61487238D01*
X213183200Y-61487238D02*
X213230819Y-61392000D01*
X213230819Y-61392000D02*
X213230819Y-61106286D01*
X213230819Y-61106286D02*
X213183200Y-61011048D01*
X213183200Y-61011048D02*
X213135580Y-60963429D01*
X212659390Y-62153905D02*
X212611771Y-62058667D01*
X212611771Y-62058667D02*
X212564152Y-62011048D01*
X212564152Y-62011048D02*
X212468914Y-61963429D01*
X212468914Y-61963429D02*
X212421295Y-61963429D01*
X212421295Y-61963429D02*
X212326057Y-62011048D01*
X212326057Y-62011048D02*
X212278438Y-62058667D01*
X212278438Y-62058667D02*
X212230819Y-62153905D01*
X212230819Y-62153905D02*
X212230819Y-62344381D01*
X212230819Y-62344381D02*
X212278438Y-62439619D01*
X212278438Y-62439619D02*
X212326057Y-62487238D01*
X212326057Y-62487238D02*
X212421295Y-62534857D01*
X212421295Y-62534857D02*
X212468914Y-62534857D01*
X212468914Y-62534857D02*
X212564152Y-62487238D01*
X212564152Y-62487238D02*
X212611771Y-62439619D01*
X212611771Y-62439619D02*
X212659390Y-62344381D01*
X212659390Y-62344381D02*
X212659390Y-62153905D01*
X212659390Y-62153905D02*
X212707009Y-62058667D01*
X212707009Y-62058667D02*
X212754628Y-62011048D01*
X212754628Y-62011048D02*
X212849866Y-61963429D01*
X212849866Y-61963429D02*
X213040342Y-61963429D01*
X213040342Y-61963429D02*
X213135580Y-62011048D01*
X213135580Y-62011048D02*
X213183200Y-62058667D01*
X213183200Y-62058667D02*
X213230819Y-62153905D01*
X213230819Y-62153905D02*
X213230819Y-62344381D01*
X213230819Y-62344381D02*
X213183200Y-62439619D01*
X213183200Y-62439619D02*
X213135580Y-62487238D01*
X213135580Y-62487238D02*
X213040342Y-62534857D01*
X213040342Y-62534857D02*
X212849866Y-62534857D01*
X212849866Y-62534857D02*
X212754628Y-62487238D01*
X212754628Y-62487238D02*
X212707009Y-62439619D01*
X212707009Y-62439619D02*
X212659390Y-62344381D01*
X162277523Y-38494819D02*
X162277523Y-39209104D01*
X162277523Y-39209104D02*
X162325142Y-39351961D01*
X162325142Y-39351961D02*
X162420380Y-39447200D01*
X162420380Y-39447200D02*
X162563237Y-39494819D01*
X162563237Y-39494819D02*
X162658475Y-39494819D01*
X161848951Y-38590057D02*
X161801332Y-38542438D01*
X161801332Y-38542438D02*
X161706094Y-38494819D01*
X161706094Y-38494819D02*
X161467999Y-38494819D01*
X161467999Y-38494819D02*
X161372761Y-38542438D01*
X161372761Y-38542438D02*
X161325142Y-38590057D01*
X161325142Y-38590057D02*
X161277523Y-38685295D01*
X161277523Y-38685295D02*
X161277523Y-38780533D01*
X161277523Y-38780533D02*
X161325142Y-38923390D01*
X161325142Y-38923390D02*
X161896570Y-39494819D01*
X161896570Y-39494819D02*
X161277523Y-39494819D01*
X160944189Y-38494819D02*
X160325142Y-38494819D01*
X160325142Y-38494819D02*
X160658475Y-38875771D01*
X160658475Y-38875771D02*
X160515618Y-38875771D01*
X160515618Y-38875771D02*
X160420380Y-38923390D01*
X160420380Y-38923390D02*
X160372761Y-38971009D01*
X160372761Y-38971009D02*
X160325142Y-39066247D01*
X160325142Y-39066247D02*
X160325142Y-39304342D01*
X160325142Y-39304342D02*
X160372761Y-39399580D01*
X160372761Y-39399580D02*
X160420380Y-39447200D01*
X160420380Y-39447200D02*
X160515618Y-39494819D01*
X160515618Y-39494819D02*
X160801332Y-39494819D01*
X160801332Y-39494819D02*
X160896570Y-39447200D01*
X160896570Y-39447200D02*
X160944189Y-39399580D01*
X204102819Y-86236476D02*
X204817104Y-86236476D01*
X204817104Y-86236476D02*
X204959961Y-86188857D01*
X204959961Y-86188857D02*
X205055200Y-86093619D01*
X205055200Y-86093619D02*
X205102819Y-85950762D01*
X205102819Y-85950762D02*
X205102819Y-85855524D01*
X204102819Y-86617429D02*
X204102819Y-87236476D01*
X204102819Y-87236476D02*
X204483771Y-86903143D01*
X204483771Y-86903143D02*
X204483771Y-87046000D01*
X204483771Y-87046000D02*
X204531390Y-87141238D01*
X204531390Y-87141238D02*
X204579009Y-87188857D01*
X204579009Y-87188857D02*
X204674247Y-87236476D01*
X204674247Y-87236476D02*
X204912342Y-87236476D01*
X204912342Y-87236476D02*
X205007580Y-87188857D01*
X205007580Y-87188857D02*
X205055200Y-87141238D01*
X205055200Y-87141238D02*
X205102819Y-87046000D01*
X205102819Y-87046000D02*
X205102819Y-86760286D01*
X205102819Y-86760286D02*
X205055200Y-86665048D01*
X205055200Y-86665048D02*
X205007580Y-86617429D01*
X204102819Y-87855524D02*
X204102819Y-87950762D01*
X204102819Y-87950762D02*
X204150438Y-88046000D01*
X204150438Y-88046000D02*
X204198057Y-88093619D01*
X204198057Y-88093619D02*
X204293295Y-88141238D01*
X204293295Y-88141238D02*
X204483771Y-88188857D01*
X204483771Y-88188857D02*
X204721866Y-88188857D01*
X204721866Y-88188857D02*
X204912342Y-88141238D01*
X204912342Y-88141238D02*
X205007580Y-88093619D01*
X205007580Y-88093619D02*
X205055200Y-88046000D01*
X205055200Y-88046000D02*
X205102819Y-87950762D01*
X205102819Y-87950762D02*
X205102819Y-87855524D01*
X205102819Y-87855524D02*
X205055200Y-87760286D01*
X205055200Y-87760286D02*
X205007580Y-87712667D01*
X205007580Y-87712667D02*
X204912342Y-87665048D01*
X204912342Y-87665048D02*
X204721866Y-87617429D01*
X204721866Y-87617429D02*
X204483771Y-87617429D01*
X204483771Y-87617429D02*
X204293295Y-87665048D01*
X204293295Y-87665048D02*
X204198057Y-87712667D01*
X204198057Y-87712667D02*
X204150438Y-87760286D01*
X204150438Y-87760286D02*
X204102819Y-87855524D01*
X154101666Y-92739580D02*
X154149285Y-92787200D01*
X154149285Y-92787200D02*
X154292142Y-92834819D01*
X154292142Y-92834819D02*
X154387380Y-92834819D01*
X154387380Y-92834819D02*
X154530237Y-92787200D01*
X154530237Y-92787200D02*
X154625475Y-92691961D01*
X154625475Y-92691961D02*
X154673094Y-92596723D01*
X154673094Y-92596723D02*
X154720713Y-92406247D01*
X154720713Y-92406247D02*
X154720713Y-92263390D01*
X154720713Y-92263390D02*
X154673094Y-92072914D01*
X154673094Y-92072914D02*
X154625475Y-91977676D01*
X154625475Y-91977676D02*
X154530237Y-91882438D01*
X154530237Y-91882438D02*
X154387380Y-91834819D01*
X154387380Y-91834819D02*
X154292142Y-91834819D01*
X154292142Y-91834819D02*
X154149285Y-91882438D01*
X154149285Y-91882438D02*
X154101666Y-91930057D01*
X153720713Y-91930057D02*
X153673094Y-91882438D01*
X153673094Y-91882438D02*
X153577856Y-91834819D01*
X153577856Y-91834819D02*
X153339761Y-91834819D01*
X153339761Y-91834819D02*
X153244523Y-91882438D01*
X153244523Y-91882438D02*
X153196904Y-91930057D01*
X153196904Y-91930057D02*
X153149285Y-92025295D01*
X153149285Y-92025295D02*
X153149285Y-92120533D01*
X153149285Y-92120533D02*
X153196904Y-92263390D01*
X153196904Y-92263390D02*
X153768332Y-92834819D01*
X153768332Y-92834819D02*
X153149285Y-92834819D01*
M02*
