  0
SECTION
  2
HEADER
  9
$ANGBASE
  50
0.0
  9
$ANGDIR
  70
1
  9
$MEASUREMENT
  70
1
  0
ENDSEC
  0
SECTION
  2
TABLES
  0
TABLE
  2
LTYPE
  70
4
  0
LTYPE
  5
40F
  2
CONTINUOUS
  70
0
  3
Solid line
  72
65
  73
0
  40
0.0
  0
LTYPE
  5
410
  2
DASHDOT
 70
0
  3
Dash Dot ____ _ ____ _
 72
65
 73
4
 40
2.0
 49
1.25
 49
-0.25
 49
0.25
 49
-0.25
  0
LTYPE
  5
411
  2
DASHED
 70
0
  3
Dashed __ __ __ __ __
 72
65
 73
2
 40
0.75
 49
0.5
 49
-0.25
  0
LTYPE
  5
43B
  2
DOTTED
 70
0
  3
Dotted .  .  .  .
 72
65
 73
2
 40
0.2
 49
0.0
 49
-0.2
  0
ENDTAB
  0
TABLE
  2
STYLE
  70
4
  0
STYLE
  2
KICAD
  70
0
  40
0
  41
1
  42
1
  50
0
  71
0
  3
isocp.shx
  0
STYLE
  2
KICADB
  70
0
  40
0
  41
1
  42
1
  50
0
  71
0
  3
isocp.shx
  0
STYLE
  2
KICADI
  70
0
  40
0
  41
1
  42
1
  50
15
  71
0
  3
isocp.shx
  0
STYLE
  2
KICADBI
  70
0
  40
0
  41
1
  42
1
  50
15
  71
0
  3
isocp.shx
  0
ENDTAB
  0
TABLE
  2
LAYER
  70
1
  0
LAYER
  2
BLACK
  70
0
  62
7
  6
CONTINUOUS
  0
ENDTAB
  0
ENDSEC
  0
SECTION
  2
ENTITIES
0
LINE
8
BLACK
6
CONTINUOUS
10
125.0699999999999932
20
-59.2324999999999946
11
224.7649999999999864
21
-59.2324999999999946
0
LINE
8
BLACK
6
CONTINUOUS
10
224.7649999999999864
20
-59.2324999999999946
11
224.7649999999999864
21
-157.6574999999999989
0
LINE
8
BLACK
6
CONTINUOUS
10
224.7649999999999864
20
-157.6574999999999989
11
125.0699999999999932
21
-157.6574999999999989
0
LINE
8
BLACK
6
CONTINUOUS
10
125.0699999999999932
20
-157.6574999999999989
11
125.0699999999999932
21
-59.2324999999999946
0
LINE
8
BLACK
6
CONTINUOUS
10
143.8499999999999943
20
-61.9499999999999957
11
147.0499999999999829
21
-65.1499999999999915
0
LINE
8
BLACK
6
CONTINUOUS
10
147.0499999999999829
20
-61.9499999999999957
11
143.8499999999999943
21
-65.1499999999999915
0
LINE
8
BLACK
6
CONTINUOUS
10
147.25
20
-152.5
11
150.4499999999999886
21
-155.6999999999999886
0
LINE
8
BLACK
6
CONTINUOUS
10
150.4499999999999886
20
-152.5
11
147.25
21
-155.6999999999999886
0
LINE
8
BLACK
6
CONTINUOUS
10
203.2999999999999829
20
-61.8499999999999943
11
206.5
21
-65.0499999999999972
0
LINE
8
BLACK
6
CONTINUOUS
10
206.5
20
-61.8499999999999943
11
203.2999999999999829
21
-65.0499999999999972
0
LINE
8
BLACK
6
CONTINUOUS
10
204.1999999999999886
20
-152.9000000000000057
11
207.3999999999999773
21
-156.0999999999999943
0
LINE
8
BLACK
6
CONTINUOUS
10
207.3999999999999773
20
-152.9000000000000057
11
204.1999999999999886
21
-156.0999999999999943
0
LINE
8
BLACK
6
CONTINUOUS
10
127.6027679999999975
20
-160.8473379999999793
11
127.6027679999999975
21
-158.8473379999999793
0
LINE
8
BLACK
6
CONTINUOUS
10
127.6027679999999975
20
-158.8473379999999793
11
128.0789580000000001
21
-158.8473379999999793
0
LINE
8
BLACK
6
CONTINUOUS
10
128.0789580000000001
20
-158.8473379999999793
11
128.364672999999982
21
-158.9425760000000025
0
LINE
8
BLACK
6
CONTINUOUS
10
128.364672999999982
20
-158.9425760000000025
11
128.5551490000000001
21
-159.1330519999999922
0
LINE
8
BLACK
6
CONTINUOUS
10
128.5551490000000001
20
-159.1330519999999922
11
128.6503869999999949
21
-159.3235279999999818
0
LINE
8
BLACK
6
CONTINUOUS
10
128.6503869999999949
20
-159.3235279999999818
11
128.7456249999999898
21
-159.7044799999999896
0
LINE
8
BLACK
6
CONTINUOUS
10
128.7456249999999898
20
-159.7044799999999896
11
128.7456249999999898
21
-159.9901949999999999
0
LINE
8
BLACK
6
CONTINUOUS
10
128.7456249999999898
20
-159.9901949999999999
11
128.6503869999999949
21
-160.3711469999999792
0
LINE
8
BLACK
6
CONTINUOUS
10
128.6503869999999949
20
-160.3711469999999792
11
128.5551490000000001
21
-160.5616229999999973
0
LINE
8
BLACK
6
CONTINUOUS
10
128.5551490000000001
20
-160.5616229999999973
11
128.364672999999982
21
-160.7520999999999844
0
LINE
8
BLACK
6
CONTINUOUS
10
128.364672999999982
20
-160.7520999999999844
11
128.0789580000000001
21
-160.8473379999999793
0
LINE
8
BLACK
6
CONTINUOUS
10
128.0789580000000001
20
-160.8473379999999793
11
127.6027679999999975
21
-160.8473379999999793
0
LINE
8
BLACK
6
CONTINUOUS
10
129.6027679999999975
20
-160.8473379999999793
11
129.6027679999999975
21
-159.5140039999999999
0
LINE
8
BLACK
6
CONTINUOUS
10
129.6027679999999975
20
-159.8949570000000051
11
129.6980059999999924
21
-159.7044799999999896
0
LINE
8
BLACK
6
CONTINUOUS
10
129.6980059999999924
20
-159.7044799999999896
11
129.7932439999999872
21
-159.6092419999999947
0
LINE
8
BLACK
6
CONTINUOUS
10
129.7932439999999872
20
-159.6092419999999947
11
129.9837200000000053
21
-159.5140039999999999
0
LINE
8
BLACK
6
CONTINUOUS
10
129.9837200000000053
20
-159.5140039999999999
11
130.1741969999999924
21
-159.5140039999999999
0
LINE
8
BLACK
6
CONTINUOUS
10
130.8408629999999846
20
-160.8473379999999793
11
130.8408629999999846
21
-159.5140039999999999
0
LINE
8
BLACK
6
CONTINUOUS
10
130.8408629999999846
20
-158.8473379999999793
11
130.7456249999999898
21
-158.9425760000000025
0
LINE
8
BLACK
6
CONTINUOUS
10
130.7456249999999898
20
-158.9425760000000025
11
130.8408629999999846
21
-159.0378139999999973
0
LINE
8
BLACK
6
CONTINUOUS
10
130.8408629999999846
20
-159.0378139999999973
11
130.9361010000000078
21
-158.9425760000000025
0
LINE
8
BLACK
6
CONTINUOUS
10
130.9361010000000078
20
-158.9425760000000025
11
130.8408629999999846
21
-158.8473379999999793
0
LINE
8
BLACK
6
CONTINUOUS
10
130.8408629999999846
20
-158.8473379999999793
11
130.8408629999999846
21
-159.0378139999999973
0
LINE
8
BLACK
6
CONTINUOUS
10
132.0789580000000001
20
-160.8473379999999793
11
131.888481999999982
21
-160.7520999999999844
0
LINE
8
BLACK
6
CONTINUOUS
10
131.888481999999982
20
-160.7520999999999844
11
131.7932439999999872
21
-160.5616229999999973
0
LINE
8
BLACK
6
CONTINUOUS
10
131.7932439999999872
20
-160.5616229999999973
11
131.7932439999999872
21
-158.8473379999999793
0
LINE
8
BLACK
6
CONTINUOUS
10
133.1265769999999975
20
-160.8473379999999793
11
132.9361010000000078
21
-160.7520999999999844
0
LINE
8
BLACK
6
CONTINUOUS
10
132.9361010000000078
20
-160.7520999999999844
11
132.8408629999999846
21
-160.5616229999999973
0
LINE
8
BLACK
6
CONTINUOUS
10
132.8408629999999846
20
-160.5616229999999973
11
132.8408629999999846
21
-158.8473379999999793
0
LINE
8
BLACK
6
CONTINUOUS
10
135.4122920000000079
20
-160.8473379999999793
11
135.4122920000000079
21
-158.8473379999999793
0
LINE
8
BLACK
6
CONTINUOUS
10
135.4122920000000079
20
-158.8473379999999793
11
136.0789589999999976
21
-160.2759089999999844
0
LINE
8
BLACK
6
CONTINUOUS
10
136.0789589999999976
20
-160.2759089999999844
11
136.7456249999999898
21
-158.8473379999999793
0
LINE
8
BLACK
6
CONTINUOUS
10
136.7456249999999898
20
-158.8473379999999793
11
136.7456249999999898
21
-160.8473379999999793
0
LINE
8
BLACK
6
CONTINUOUS
10
138.5551490000000001
20
-160.8473379999999793
11
138.5551490000000001
21
-159.7997189999999819
0
LINE
8
BLACK
6
CONTINUOUS
10
138.5551490000000001
20
-159.7997189999999819
11
138.4599110000000053
21
-159.6092419999999947
0
LINE
8
BLACK
6
CONTINUOUS
10
138.4599110000000053
20
-159.6092419999999947
11
138.2694349999999872
21
-159.5140039999999999
0
LINE
8
BLACK
6
CONTINUOUS
10
138.2694349999999872
20
-159.5140039999999999
11
137.888481999999982
21
-159.5140039999999999
0
LINE
8
BLACK
6
CONTINUOUS
10
137.888481999999982
20
-159.5140039999999999
11
137.6980059999999924
21
-159.6092419999999947
0
LINE
8
BLACK
6
CONTINUOUS
10
138.5551490000000001
20
-160.7520999999999844
11
138.364672999999982
21
-160.8473379999999793
0
LINE
8
BLACK
6
CONTINUOUS
10
138.364672999999982
20
-160.8473379999999793
11
137.888481999999982
21
-160.8473379999999793
0
LINE
8
BLACK
6
CONTINUOUS
10
137.888481999999982
20
-160.8473379999999793
11
137.6980059999999924
21
-160.7520999999999844
0
LINE
8
BLACK
6
CONTINUOUS
10
137.6980059999999924
20
-160.7520999999999844
11
137.6027679999999975
21
-160.5616229999999973
0
LINE
8
BLACK
6
CONTINUOUS
10
137.6027679999999975
20
-160.5616229999999973
11
137.6027679999999975
21
-160.3711469999999792
0
LINE
8
BLACK
6
CONTINUOUS
10
137.6027679999999975
20
-160.3711469999999792
11
137.6980059999999924
21
-160.1806709999999896
0
LINE
8
BLACK
6
CONTINUOUS
10
137.6980059999999924
20
-160.1806709999999896
11
137.888481999999982
21
-160.0854329999999948
0
LINE
8
BLACK
6
CONTINUOUS
10
137.888481999999982
20
-160.0854329999999948
11
138.364672999999982
21
-160.0854329999999948
0
LINE
8
BLACK
6
CONTINUOUS
10
138.364672999999982
20
-160.0854329999999948
11
138.5551490000000001
21
-159.9901949999999999
0
LINE
8
BLACK
6
CONTINUOUS
10
139.5075300000000027
20
-159.5140039999999999
11
139.5075300000000027
21
-161.5140039999999999
0
LINE
8
BLACK
6
CONTINUOUS
10
139.5075300000000027
20
-159.6092419999999947
11
139.6980059999999924
21
-159.5140039999999999
0
LINE
8
BLACK
6
CONTINUOUS
10
139.6980059999999924
20
-159.5140039999999999
11
140.0789589999999976
21
-159.5140039999999999
0
LINE
8
BLACK
6
CONTINUOUS
10
140.0789589999999976
20
-159.5140039999999999
11
140.2694349999999872
21
-159.6092419999999947
0
LINE
8
BLACK
6
CONTINUOUS
10
140.2694349999999872
20
-159.6092419999999947
11
140.364672999999982
21
-159.7044799999999896
0
LINE
8
BLACK
6
CONTINUOUS
10
140.364672999999982
20
-159.7044799999999896
11
140.4599110000000053
21
-159.8949570000000051
0
LINE
8
BLACK
6
CONTINUOUS
10
140.4599110000000053
20
-159.8949570000000051
11
140.4599110000000053
21
-160.4663850000000025
0
LINE
8
BLACK
6
CONTINUOUS
10
140.4599110000000053
20
-160.4663850000000025
11
140.364672999999982
21
-160.6568609999999921
0
LINE
8
BLACK
6
CONTINUOUS
10
140.364672999999982
20
-160.6568609999999921
11
140.2694349999999872
21
-160.7520999999999844
0
LINE
8
BLACK
6
CONTINUOUS
10
140.2694349999999872
20
-160.7520999999999844
11
140.0789589999999976
21
-160.8473379999999793
0
LINE
8
BLACK
6
CONTINUOUS
10
140.0789589999999976
20
-160.8473379999999793
11
139.6980059999999924
21
-160.8473379999999793
0
LINE
8
BLACK
6
CONTINUOUS
10
139.6980059999999924
20
-160.8473379999999793
11
139.5075300000000027
21
-160.7520999999999844
0
LINE
8
BLACK
6
CONTINUOUS
10
141.3170539999999846
20
-160.6568609999999921
11
141.4122919999999795
21
-160.7520999999999844
0
LINE
8
BLACK
6
CONTINUOUS
10
141.4122919999999795
20
-160.7520999999999844
11
141.3170539999999846
21
-160.8473379999999793
0
LINE
8
BLACK
6
CONTINUOUS
10
141.3170539999999846
20
-160.8473379999999793
11
141.2218159999999898
21
-160.7520999999999844
0
LINE
8
BLACK
6
CONTINUOUS
10
141.2218159999999898
20
-160.7520999999999844
11
141.3170539999999846
21
-160.6568609999999921
0
LINE
8
BLACK
6
CONTINUOUS
10
141.3170539999999846
20
-160.6568609999999921
11
141.3170539999999846
21
-160.8473379999999793
0
LINE
8
BLACK
6
CONTINUOUS
10
141.3170539999999846
20
-159.6092419999999947
11
141.4122919999999795
21
-159.7044799999999896
0
LINE
8
BLACK
6
CONTINUOUS
10
141.4122919999999795
20
-159.7044799999999896
11
141.3170539999999846
21
-159.7997189999999819
0
LINE
8
BLACK
6
CONTINUOUS
10
141.3170539999999846
20
-159.7997189999999819
11
141.2218159999999898
21
-159.7044799999999896
0
LINE
8
BLACK
6
CONTINUOUS
10
141.2218159999999898
20
-159.7044799999999896
11
141.3170539999999846
21
-159.6092419999999947
0
LINE
8
BLACK
6
CONTINUOUS
10
141.3170539999999846
20
-159.6092419999999947
11
141.3170539999999846
21
-159.7997189999999819
0
LINE
8
BLACK
6
CONTINUOUS
10
122.9949999999999903
20
-163.1324999999999932
11
124.9949999999999903
21
-165.1324999999999932
0
LINE
8
BLACK
6
CONTINUOUS
10
124.9949999999999903
20
-163.1324999999999932
11
122.9949999999999903
21
-165.1324999999999932
0
LINE
8
BLACK
6
CONTINUOUS
10
127.4122919999999937
20
-163.0473379999999963
11
128.6503869999999949
21
-163.0473379999999963
0
LINE
8
BLACK
6
CONTINUOUS
10
128.6503869999999949
20
-163.0473379999999963
11
127.983719999999991
21
-163.8092419999999834
0
LINE
8
BLACK
6
CONTINUOUS
10
127.983719999999991
20
-163.8092419999999834
11
128.2694349999999872
21
-163.8092419999999834
0
LINE
8
BLACK
6
CONTINUOUS
10
128.2694349999999872
20
-163.8092419999999834
11
128.4599110000000053
21
-163.9044800000000066
0
LINE
8
BLACK
6
CONTINUOUS
10
128.4599110000000053
20
-163.9044800000000066
11
128.5551490000000001
21
-163.9997189999999989
0
LINE
8
BLACK
6
CONTINUOUS
10
128.5551490000000001
20
-163.9997189999999989
11
128.6503869999999949
21
-164.1901949999999886
0
LINE
8
BLACK
6
CONTINUOUS
10
128.6503869999999949
20
-164.1901949999999886
11
128.6503869999999949
21
-164.6663849999999911
0
LINE
8
BLACK
6
CONTINUOUS
10
128.6503869999999949
20
-164.6663849999999911
11
128.5551490000000001
21
-164.8568609999999808
0
LINE
8
BLACK
6
CONTINUOUS
10
128.5551490000000001
20
-164.8568609999999808
11
128.4599110000000053
21
-164.9521000000000015
0
LINE
8
BLACK
6
CONTINUOUS
10
128.4599110000000053
20
-164.9521000000000015
11
128.2694349999999872
21
-165.0473379999999963
0
LINE
8
BLACK
6
CONTINUOUS
10
128.2694349999999872
20
-165.0473379999999963
11
127.6980059999999924
21
-165.0473379999999963
0
LINE
8
BLACK
6
CONTINUOUS
10
127.6980059999999924
20
-165.0473379999999963
11
127.5075299999999885
21
-164.9521000000000015
0
LINE
8
BLACK
6
CONTINUOUS
10
127.5075299999999885
20
-164.9521000000000015
11
127.4122919999999937
21
-164.8568609999999808
0
LINE
8
BLACK
6
CONTINUOUS
10
129.5075300000000027
20
-164.8568609999999808
11
129.6027679999999975
21
-164.9521000000000015
0
LINE
8
BLACK
6
CONTINUOUS
10
129.6027679999999975
20
-164.9521000000000015
11
129.5075300000000027
21
-165.0473379999999963
0
LINE
8
BLACK
6
CONTINUOUS
10
129.5075300000000027
20
-165.0473379999999963
11
129.4122920000000079
21
-164.9521000000000015
0
LINE
8
BLACK
6
CONTINUOUS
10
129.4122920000000079
20
-164.9521000000000015
11
129.5075300000000027
21
-164.8568609999999808
0
LINE
8
BLACK
6
CONTINUOUS
10
129.5075300000000027
20
-164.8568609999999808
11
129.5075300000000027
21
-165.0473379999999963
0
LINE
8
BLACK
6
CONTINUOUS
10
130.364672999999982
20
-163.237813999999986
11
130.4599110000000053
21
-163.1425759999999912
0
LINE
8
BLACK
6
CONTINUOUS
10
130.4599110000000053
20
-163.1425759999999912
11
130.6503869999999949
21
-163.0473379999999963
0
LINE
8
BLACK
6
CONTINUOUS
10
130.6503869999999949
20
-163.0473379999999963
11
131.126577999999995
21
-163.0473379999999963
0
LINE
8
BLACK
6
CONTINUOUS
10
131.126577999999995
20
-163.0473379999999963
11
131.3170539999999846
21
-163.1425759999999912
0
LINE
8
BLACK
6
CONTINUOUS
10
131.3170539999999846
20
-163.1425759999999912
11
131.4122920000000079
21
-163.237813999999986
0
LINE
8
BLACK
6
CONTINUOUS
10
131.4122920000000079
20
-163.237813999999986
11
131.5075300000000027
21
-163.4282900000000041
0
LINE
8
BLACK
6
CONTINUOUS
10
131.5075300000000027
20
-163.4282900000000041
11
131.5075300000000027
21
-163.6187659999999937
0
LINE
8
BLACK
6
CONTINUOUS
10
131.5075300000000027
20
-163.6187659999999937
11
131.4122920000000079
21
-163.9044800000000066
0
LINE
8
BLACK
6
CONTINUOUS
10
131.4122920000000079
20
-163.9044800000000066
11
130.2694349999999872
21
-165.0473379999999963
0
LINE
8
BLACK
6
CONTINUOUS
10
130.2694349999999872
20
-165.0473379999999963
11
131.5075300000000027
21
-165.0473379999999963
0
LINE
8
BLACK
6
CONTINUOUS
10
132.7456249999999898
20
-163.0473379999999963
11
132.9361020000000053
21
-163.0473379999999963
0
LINE
8
BLACK
6
CONTINUOUS
10
132.9361020000000053
20
-163.0473379999999963
11
133.126577999999995
21
-163.1425759999999912
0
LINE
8
BLACK
6
CONTINUOUS
10
133.126577999999995
20
-163.1425759999999912
11
133.2218159999999898
21
-163.237813999999986
0
LINE
8
BLACK
6
CONTINUOUS
10
133.2218159999999898
20
-163.237813999999986
11
133.3170539999999846
21
-163.4282900000000041
0
LINE
8
BLACK
6
CONTINUOUS
10
133.3170539999999846
20
-163.4282900000000041
11
133.4122920000000079
21
-163.8092419999999834
0
LINE
8
BLACK
6
CONTINUOUS
10
133.4122920000000079
20
-163.8092419999999834
11
133.4122920000000079
21
-164.2854329999999834
0
LINE
8
BLACK
6
CONTINUOUS
10
133.4122920000000079
20
-164.2854329999999834
11
133.3170539999999846
21
-164.6663849999999911
0
LINE
8
BLACK
6
CONTINUOUS
10
133.3170539999999846
20
-164.6663849999999911
11
133.2218159999999898
21
-164.8568609999999808
0
LINE
8
BLACK
6
CONTINUOUS
10
133.2218159999999898
20
-164.8568609999999808
11
133.126577999999995
21
-164.9521000000000015
0
LINE
8
BLACK
6
CONTINUOUS
10
133.126577999999995
20
-164.9521000000000015
11
132.9361020000000053
21
-165.0473379999999963
0
LINE
8
BLACK
6
CONTINUOUS
10
132.9361020000000053
20
-165.0473379999999963
11
132.7456249999999898
21
-165.0473379999999963
0
LINE
8
BLACK
6
CONTINUOUS
10
132.7456249999999898
20
-165.0473379999999963
11
132.5551490000000001
21
-164.9521000000000015
0
LINE
8
BLACK
6
CONTINUOUS
10
132.5551490000000001
20
-164.9521000000000015
11
132.4599110000000053
21
-164.8568609999999808
0
LINE
8
BLACK
6
CONTINUOUS
10
132.4599110000000053
20
-164.8568609999999808
11
132.364672999999982
21
-164.6663849999999911
0
LINE
8
BLACK
6
CONTINUOUS
10
132.364672999999982
20
-164.6663849999999911
11
132.2694349999999872
21
-164.2854329999999834
0
LINE
8
BLACK
6
CONTINUOUS
10
132.2694349999999872
20
-164.2854329999999834
11
132.2694349999999872
21
-163.8092419999999834
0
LINE
8
BLACK
6
CONTINUOUS
10
132.2694349999999872
20
-163.8092419999999834
11
132.364672999999982
21
-163.4282900000000041
0
LINE
8
BLACK
6
CONTINUOUS
10
132.364672999999982
20
-163.4282900000000041
11
132.4599110000000053
21
-163.237813999999986
0
LINE
8
BLACK
6
CONTINUOUS
10
132.4599110000000053
20
-163.237813999999986
11
132.5551490000000001
21
-163.1425759999999912
0
LINE
8
BLACK
6
CONTINUOUS
10
132.5551490000000001
20
-163.1425759999999912
11
132.7456249999999898
21
-163.0473379999999963
0
LINE
8
BLACK
6
CONTINUOUS
10
134.6503869999999949
20
-163.0473379999999963
11
134.8408639999999821
21
-163.0473379999999963
0
LINE
8
BLACK
6
CONTINUOUS
10
134.8408639999999821
20
-163.0473379999999963
11
135.0313400000000001
21
-163.1425759999999912
0
LINE
8
BLACK
6
CONTINUOUS
10
135.0313400000000001
20
-163.1425759999999912
11
135.126577999999995
21
-163.237813999999986
0
LINE
8
BLACK
6
CONTINUOUS
10
135.126577999999995
20
-163.237813999999986
11
135.2218159999999898
21
-163.4282900000000041
0
LINE
8
BLACK
6
CONTINUOUS
10
135.2218159999999898
20
-163.4282900000000041
11
135.3170539999999846
21
-163.8092419999999834
0
LINE
8
BLACK
6
CONTINUOUS
10
135.3170539999999846
20
-163.8092419999999834
11
135.3170539999999846
21
-164.2854329999999834
0
LINE
8
BLACK
6
CONTINUOUS
10
135.3170539999999846
20
-164.2854329999999834
11
135.2218159999999898
21
-164.6663849999999911
0
LINE
8
BLACK
6
CONTINUOUS
10
135.2218159999999898
20
-164.6663849999999911
11
135.126577999999995
21
-164.8568609999999808
0
LINE
8
BLACK
6
CONTINUOUS
10
135.126577999999995
20
-164.8568609999999808
11
135.0313400000000001
21
-164.9521000000000015
0
LINE
8
BLACK
6
CONTINUOUS
10
135.0313400000000001
20
-164.9521000000000015
11
134.8408639999999821
21
-165.0473379999999963
0
LINE
8
BLACK
6
CONTINUOUS
10
134.8408639999999821
20
-165.0473379999999963
11
134.6503869999999949
21
-165.0473379999999963
0
LINE
8
BLACK
6
CONTINUOUS
10
134.6503869999999949
20
-165.0473379999999963
11
134.4599110000000053
21
-164.9521000000000015
0
LINE
8
BLACK
6
CONTINUOUS
10
134.4599110000000053
20
-164.9521000000000015
11
134.364672999999982
21
-164.8568609999999808
0
LINE
8
BLACK
6
CONTINUOUS
10
134.364672999999982
20
-164.8568609999999808
11
134.2694349999999872
21
-164.6663849999999911
0
LINE
8
BLACK
6
CONTINUOUS
10
134.2694349999999872
20
-164.6663849999999911
11
134.1741969999999924
21
-164.2854329999999834
0
LINE
8
BLACK
6
CONTINUOUS
10
134.1741969999999924
20
-164.2854329999999834
11
134.1741969999999924
21
-163.8092419999999834
0
LINE
8
BLACK
6
CONTINUOUS
10
134.1741969999999924
20
-163.8092419999999834
11
134.2694349999999872
21
-163.4282900000000041
0
LINE
8
BLACK
6
CONTINUOUS
10
134.2694349999999872
20
-163.4282900000000041
11
134.364672999999982
21
-163.237813999999986
0
LINE
8
BLACK
6
CONTINUOUS
10
134.364672999999982
20
-163.237813999999986
11
134.4599110000000053
21
-163.1425759999999912
0
LINE
8
BLACK
6
CONTINUOUS
10
134.4599110000000053
20
-163.1425759999999912
11
134.6503869999999949
21
-163.0473379999999963
0
LINE
8
BLACK
6
CONTINUOUS
10
136.1741969999999924
20
-165.0473379999999963
11
136.1741969999999924
21
-163.7140039999999885
0
LINE
8
BLACK
6
CONTINUOUS
10
136.1741969999999924
20
-163.9044800000000066
11
136.2694349999999872
21
-163.8092419999999834
0
LINE
8
BLACK
6
CONTINUOUS
10
136.2694349999999872
20
-163.8092419999999834
11
136.4599110000000053
21
-163.7140039999999885
0
LINE
8
BLACK
6
CONTINUOUS
10
136.4599110000000053
20
-163.7140039999999885
11
136.7456259999999872
21
-163.7140039999999885
0
LINE
8
BLACK
6
CONTINUOUS
10
136.7456259999999872
20
-163.7140039999999885
11
136.9361020000000053
21
-163.8092419999999834
0
LINE
8
BLACK
6
CONTINUOUS
10
136.9361020000000053
20
-163.8092419999999834
11
137.0313400000000001
21
-163.9997189999999989
0
LINE
8
BLACK
6
CONTINUOUS
10
137.0313400000000001
20
-163.9997189999999989
11
137.0313400000000001
21
-165.0473379999999963
0
LINE
8
BLACK
6
CONTINUOUS
10
137.0313400000000001
20
-163.9997189999999989
11
137.126577999999995
21
-163.8092419999999834
0
LINE
8
BLACK
6
CONTINUOUS
10
137.126577999999995
20
-163.8092419999999834
11
137.3170539999999846
21
-163.7140039999999885
0
LINE
8
BLACK
6
CONTINUOUS
10
137.3170539999999846
20
-163.7140039999999885
11
137.6027679999999975
21
-163.7140039999999885
0
LINE
8
BLACK
6
CONTINUOUS
10
137.6027679999999975
20
-163.7140039999999885
11
137.7932449999999847
21
-163.8092419999999834
0
LINE
8
BLACK
6
CONTINUOUS
10
137.7932449999999847
20
-163.8092419999999834
11
137.8884830000000079
21
-163.9997189999999989
0
LINE
8
BLACK
6
CONTINUOUS
10
137.8884830000000079
20
-163.9997189999999989
11
137.8884830000000079
21
-165.0473379999999963
0
LINE
8
BLACK
6
CONTINUOUS
10
138.8408639999999821
20
-165.0473379999999963
11
138.8408639999999821
21
-163.7140039999999885
0
LINE
8
BLACK
6
CONTINUOUS
10
138.8408639999999821
20
-163.9044800000000066
11
138.9361020000000053
21
-163.8092419999999834
0
LINE
8
BLACK
6
CONTINUOUS
10
138.9361020000000053
20
-163.8092419999999834
11
139.126577999999995
21
-163.7140039999999885
0
LINE
8
BLACK
6
CONTINUOUS
10
139.126577999999995
20
-163.7140039999999885
11
139.4122930000000053
21
-163.7140039999999885
0
LINE
8
BLACK
6
CONTINUOUS
10
139.4122930000000053
20
-163.7140039999999885
11
139.602768999999995
21
-163.8092419999999834
0
LINE
8
BLACK
6
CONTINUOUS
10
139.602768999999995
20
-163.8092419999999834
11
139.6980069999999898
21
-163.9997189999999989
0
LINE
8
BLACK
6
CONTINUOUS
10
139.6980069999999898
20
-163.9997189999999989
11
139.6980069999999898
21
-165.0473379999999963
0
LINE
8
BLACK
6
CONTINUOUS
10
139.6980069999999898
20
-163.9997189999999989
11
139.7932449999999847
21
-163.8092419999999834
0
LINE
8
BLACK
6
CONTINUOUS
10
139.7932449999999847
20
-163.8092419999999834
11
139.9837210000000027
21
-163.7140039999999885
0
LINE
8
BLACK
6
CONTINUOUS
10
139.9837210000000027
20
-163.7140039999999885
11
140.2694349999999872
21
-163.7140039999999885
0
LINE
8
BLACK
6
CONTINUOUS
10
140.2694349999999872
20
-163.7140039999999885
11
140.4599120000000028
21
-163.8092419999999834
0
LINE
8
BLACK
6
CONTINUOUS
10
140.4599120000000028
20
-163.8092419999999834
11
140.5551499999999976
21
-163.9997189999999989
0
LINE
8
BLACK
6
CONTINUOUS
10
140.5551499999999976
20
-163.9997189999999989
11
140.5551499999999976
21
-165.0473379999999963
0
LINE
8
BLACK
6
CONTINUOUS
10
144.4599120000000028
20
-162.9521000000000015
11
142.7456269999999847
21
-165.5235279999999989
0
LINE
8
BLACK
6
CONTINUOUS
10
147.0313409999999976
20
-163.0473379999999963
11
147.2218179999999847
21
-163.0473379999999963
0
LINE
8
BLACK
6
CONTINUOUS
10
147.2218179999999847
20
-163.0473379999999963
11
147.4122940000000028
21
-163.1425759999999912
0
LINE
8
BLACK
6
CONTINUOUS
10
147.4122940000000028
20
-163.1425759999999912
11
147.5075319999999977
21
-163.237813999999986
0
LINE
8
BLACK
6
CONTINUOUS
10
147.5075319999999977
20
-163.237813999999986
11
147.6027699999999925
21
-163.4282900000000041
0
LINE
8
BLACK
6
CONTINUOUS
10
147.6027699999999925
20
-163.4282900000000041
11
147.6980079999999873
21
-163.8092419999999834
0
LINE
8
BLACK
6
CONTINUOUS
10
147.6980079999999873
20
-163.8092419999999834
11
147.6980079999999873
21
-164.2854329999999834
0
LINE
8
BLACK
6
CONTINUOUS
10
147.6980079999999873
20
-164.2854329999999834
11
147.6027699999999925
21
-164.6663849999999911
0
LINE
8
BLACK
6
CONTINUOUS
10
147.6027699999999925
20
-164.6663849999999911
11
147.5075319999999977
21
-164.8568609999999808
0
LINE
8
BLACK
6
CONTINUOUS
10
147.5075319999999977
20
-164.8568609999999808
11
147.4122940000000028
21
-164.9521000000000015
0
LINE
8
BLACK
6
CONTINUOUS
10
147.4122940000000028
20
-164.9521000000000015
11
147.2218179999999847
21
-165.0473379999999963
0
LINE
8
BLACK
6
CONTINUOUS
10
147.2218179999999847
20
-165.0473379999999963
11
147.0313409999999976
21
-165.0473379999999963
0
LINE
8
BLACK
6
CONTINUOUS
10
147.0313409999999976
20
-165.0473379999999963
11
146.8408649999999795
21
-164.9521000000000015
0
LINE
8
BLACK
6
CONTINUOUS
10
146.8408649999999795
20
-164.9521000000000015
11
146.7456269999999847
21
-164.8568609999999808
0
LINE
8
BLACK
6
CONTINUOUS
10
146.7456269999999847
20
-164.8568609999999808
11
146.6503889999999899
21
-164.6663849999999911
0
LINE
8
BLACK
6
CONTINUOUS
10
146.6503889999999899
20
-164.6663849999999911
11
146.5551509999999951
21
-164.2854329999999834
0
LINE
8
BLACK
6
CONTINUOUS
10
146.5551509999999951
20
-164.2854329999999834
11
146.5551509999999951
21
-163.8092419999999834
0
LINE
8
BLACK
6
CONTINUOUS
10
146.5551509999999951
20
-163.8092419999999834
11
146.6503889999999899
21
-163.4282900000000041
0
LINE
8
BLACK
6
CONTINUOUS
10
146.6503889999999899
20
-163.4282900000000041
11
146.7456269999999847
21
-163.237813999999986
0
LINE
8
BLACK
6
CONTINUOUS
10
146.7456269999999847
20
-163.237813999999986
11
146.8408649999999795
21
-163.1425759999999912
0
LINE
8
BLACK
6
CONTINUOUS
10
146.8408649999999795
20
-163.1425759999999912
11
147.0313409999999976
21
-163.0473379999999963
0
LINE
8
BLACK
6
CONTINUOUS
10
148.5551509999999951
20
-164.8568609999999808
11
148.6503889999999899
21
-164.9521000000000015
0
LINE
8
BLACK
6
CONTINUOUS
10
148.6503889999999899
20
-164.9521000000000015
11
148.5551509999999951
21
-165.0473379999999963
0
LINE
8
BLACK
6
CONTINUOUS
10
148.5551509999999951
20
-165.0473379999999963
11
148.4599130000000002
21
-164.9521000000000015
0
LINE
8
BLACK
6
CONTINUOUS
10
148.4599130000000002
20
-164.9521000000000015
11
148.5551509999999951
21
-164.8568609999999808
0
LINE
8
BLACK
6
CONTINUOUS
10
148.5551509999999951
20
-164.8568609999999808
11
148.5551509999999951
21
-165.0473379999999963
0
LINE
8
BLACK
6
CONTINUOUS
10
150.5551509999999951
20
-165.0473379999999963
11
149.4122940000000028
21
-165.0473379999999963
0
LINE
8
BLACK
6
CONTINUOUS
10
149.9837220000000002
20
-165.0473379999999963
11
149.9837220000000002
21
-163.0473379999999963
0
LINE
8
BLACK
6
CONTINUOUS
10
149.9837220000000002
20
-163.0473379999999963
11
149.7932459999999821
21
-163.3330519999999808
0
LINE
8
BLACK
6
CONTINUOUS
10
149.7932459999999821
20
-163.3330519999999808
11
149.6027699999999925
21
-163.5235279999999989
0
LINE
8
BLACK
6
CONTINUOUS
10
149.6027699999999925
20
-163.5235279999999989
11
149.4122940000000028
21
-163.6187659999999937
0
LINE
8
BLACK
6
CONTINUOUS
10
151.3170559999999796
20
-163.237813999999986
11
151.4122940000000028
21
-163.1425759999999912
0
LINE
8
BLACK
6
CONTINUOUS
10
151.4122940000000028
20
-163.1425759999999912
11
151.6027699999999925
21
-163.0473379999999963
0
LINE
8
BLACK
6
CONTINUOUS
10
151.6027699999999925
20
-163.0473379999999963
11
152.0789609999999925
21
-163.0473379999999963
0
LINE
8
BLACK
6
CONTINUOUS
10
152.0789609999999925
20
-163.0473379999999963
11
152.2694369999999822
21
-163.1425759999999912
0
LINE
8
BLACK
6
CONTINUOUS
10
152.2694369999999822
20
-163.1425759999999912
11
152.3646750000000054
21
-163.237813999999986
0
LINE
8
BLACK
6
CONTINUOUS
10
152.3646750000000054
20
-163.237813999999986
11
152.4599130000000002
21
-163.4282900000000041
0
LINE
8
BLACK
6
CONTINUOUS
10
152.4599130000000002
20
-163.4282900000000041
11
152.4599130000000002
21
-163.6187659999999937
0
LINE
8
BLACK
6
CONTINUOUS
10
152.4599130000000002
20
-163.6187659999999937
11
152.3646750000000054
21
-163.9044800000000066
0
LINE
8
BLACK
6
CONTINUOUS
10
152.3646750000000054
20
-163.9044800000000066
11
151.2218179999999847
21
-165.0473379999999963
0
LINE
8
BLACK
6
CONTINUOUS
10
151.2218179999999847
20
-165.0473379999999963
11
152.4599130000000002
21
-165.0473379999999963
0
LINE
8
BLACK
6
CONTINUOUS
10
154.1741989999999873
20
-163.0473379999999963
11
153.7932459999999821
21
-163.0473379999999963
0
LINE
8
BLACK
6
CONTINUOUS
10
153.7932459999999821
20
-163.0473379999999963
11
153.6027699999999925
21
-163.1425759999999912
0
LINE
8
BLACK
6
CONTINUOUS
10
153.6027699999999925
20
-163.1425759999999912
11
153.5075319999999977
21
-163.237813999999986
0
LINE
8
BLACK
6
CONTINUOUS
10
153.5075319999999977
20
-163.237813999999986
11
153.3170559999999796
21
-163.5235279999999989
0
LINE
8
BLACK
6
CONTINUOUS
10
153.3170559999999796
20
-163.5235279999999989
11
153.2218179999999847
21
-163.9044800000000066
0
LINE
8
BLACK
6
CONTINUOUS
10
153.2218179999999847
20
-163.9044800000000066
11
153.2218179999999847
21
-164.6663849999999911
0
LINE
8
BLACK
6
CONTINUOUS
10
153.2218179999999847
20
-164.6663849999999911
11
153.3170559999999796
21
-164.8568609999999808
0
LINE
8
BLACK
6
CONTINUOUS
10
153.3170559999999796
20
-164.8568609999999808
11
153.4122940000000028
21
-164.9521000000000015
0
LINE
8
BLACK
6
CONTINUOUS
10
153.4122940000000028
20
-164.9521000000000015
11
153.6027699999999925
21
-165.0473379999999963
0
LINE
8
BLACK
6
CONTINUOUS
10
153.6027699999999925
20
-165.0473379999999963
11
153.9837229999999977
21
-165.0473379999999963
0
LINE
8
BLACK
6
CONTINUOUS
10
153.9837229999999977
20
-165.0473379999999963
11
154.1741989999999873
21
-164.9521000000000015
0
LINE
8
BLACK
6
CONTINUOUS
10
154.1741989999999873
20
-164.9521000000000015
11
154.2694369999999822
21
-164.8568609999999808
0
LINE
8
BLACK
6
CONTINUOUS
10
154.2694369999999822
20
-164.8568609999999808
11
154.3646750000000054
21
-164.6663849999999911
0
LINE
8
BLACK
6
CONTINUOUS
10
154.3646750000000054
20
-164.6663849999999911
11
154.3646750000000054
21
-164.1901949999999886
0
LINE
8
BLACK
6
CONTINUOUS
10
154.3646750000000054
20
-164.1901949999999886
11
154.2694369999999822
21
-163.9997189999999989
0
LINE
8
BLACK
6
CONTINUOUS
10
154.2694369999999822
20
-163.9997189999999989
11
154.1741989999999873
21
-163.9044800000000066
0
LINE
8
BLACK
6
CONTINUOUS
10
154.1741989999999873
20
-163.9044800000000066
11
153.9837229999999977
21
-163.8092419999999834
0
LINE
8
BLACK
6
CONTINUOUS
10
153.9837229999999977
20
-163.8092419999999834
11
153.6027699999999925
21
-163.8092419999999834
0
LINE
8
BLACK
6
CONTINUOUS
10
153.6027699999999925
20
-163.8092419999999834
11
153.4122940000000028
21
-163.9044800000000066
0
LINE
8
BLACK
6
CONTINUOUS
10
153.4122940000000028
20
-163.9044800000000066
11
153.3170559999999796
21
-163.9997189999999989
0
LINE
8
BLACK
6
CONTINUOUS
10
153.3170559999999796
20
-163.9997189999999989
11
153.2218179999999847
21
-164.1901949999999886
0
LINE
8
BLACK
6
CONTINUOUS
10
155.6027699999999925
20
-163.0473379999999963
11
155.7932469999999796
21
-163.0473379999999963
0
LINE
8
BLACK
6
CONTINUOUS
10
155.7932469999999796
20
-163.0473379999999963
11
155.9837229999999977
21
-163.1425759999999912
0
LINE
8
BLACK
6
CONTINUOUS
10
155.9837229999999977
20
-163.1425759999999912
11
156.0789609999999925
21
-163.237813999999986
0
LINE
8
BLACK
6
CONTINUOUS
10
156.0789609999999925
20
-163.237813999999986
11
156.1741989999999873
21
-163.4282900000000041
0
LINE
8
BLACK
6
CONTINUOUS
10
156.1741989999999873
20
-163.4282900000000041
11
156.2694369999999822
21
-163.8092419999999834
0
LINE
8
BLACK
6
CONTINUOUS
10
156.2694369999999822
20
-163.8092419999999834
11
156.2694369999999822
21
-164.2854329999999834
0
LINE
8
BLACK
6
CONTINUOUS
10
156.2694369999999822
20
-164.2854329999999834
11
156.1741989999999873
21
-164.6663849999999911
0
LINE
8
BLACK
6
CONTINUOUS
10
156.1741989999999873
20
-164.6663849999999911
11
156.0789609999999925
21
-164.8568609999999808
0
LINE
8
BLACK
6
CONTINUOUS
10
156.0789609999999925
20
-164.8568609999999808
11
155.9837229999999977
21
-164.9521000000000015
0
LINE
8
BLACK
6
CONTINUOUS
10
155.9837229999999977
20
-164.9521000000000015
11
155.7932469999999796
21
-165.0473379999999963
0
LINE
8
BLACK
6
CONTINUOUS
10
155.7932469999999796
20
-165.0473379999999963
11
155.6027699999999925
21
-165.0473379999999963
0
LINE
8
BLACK
6
CONTINUOUS
10
155.6027699999999925
20
-165.0473379999999963
11
155.4122940000000028
21
-164.9521000000000015
0
LINE
8
BLACK
6
CONTINUOUS
10
155.4122940000000028
20
-164.9521000000000015
11
155.3170559999999796
21
-164.8568609999999808
0
LINE
8
BLACK
6
CONTINUOUS
10
155.3170559999999796
20
-164.8568609999999808
11
155.2218179999999847
21
-164.6663849999999911
0
LINE
8
BLACK
6
CONTINUOUS
10
155.2218179999999847
20
-164.6663849999999911
11
155.1265799999999899
21
-164.2854329999999834
0
LINE
8
BLACK
6
CONTINUOUS
10
155.1265799999999899
20
-164.2854329999999834
11
155.1265799999999899
21
-163.8092419999999834
0
LINE
8
BLACK
6
CONTINUOUS
10
155.1265799999999899
20
-163.8092419999999834
11
155.2218179999999847
21
-163.4282900000000041
0
LINE
8
BLACK
6
CONTINUOUS
10
155.2218179999999847
20
-163.4282900000000041
11
155.3170559999999796
21
-163.237813999999986
0
LINE
8
BLACK
6
CONTINUOUS
10
155.3170559999999796
20
-163.237813999999986
11
155.4122940000000028
21
-163.1425759999999912
0
LINE
8
BLACK
6
CONTINUOUS
10
155.4122940000000028
20
-163.1425759999999912
11
155.6027699999999925
21
-163.0473379999999963
0
LINE
8
BLACK
6
CONTINUOUS
10
157.0313419999999951
20
-163.0473379999999963
11
157.0313419999999951
21
-163.4282900000000041
0
LINE
8
BLACK
6
CONTINUOUS
10
157.7932469999999796
20
-163.0473379999999963
11
157.7932469999999796
21
-163.4282900000000041
0
LINE
8
BLACK
6
CONTINUOUS
10
160.7456289999999797
20
-165.8092419999999834
11
160.6503899999999874
21
-165.7140039999999885
0
LINE
8
BLACK
6
CONTINUOUS
10
160.6503899999999874
20
-165.7140039999999885
11
160.4599139999999977
21
-165.4282900000000041
0
LINE
8
BLACK
6
CONTINUOUS
10
160.4599139999999977
20
-165.4282900000000041
11
160.3646760000000029
21
-165.237813999999986
0
LINE
8
BLACK
6
CONTINUOUS
10
160.3646760000000029
20
-165.237813999999986
11
160.2694379999999796
21
-164.9521000000000015
0
LINE
8
BLACK
6
CONTINUOUS
10
160.2694379999999796
20
-164.9521000000000015
11
160.1741999999999848
21
-164.4759090000000015
0
LINE
8
BLACK
6
CONTINUOUS
10
160.1741999999999848
20
-164.4759090000000015
11
160.1741999999999848
21
-164.0949569999999937
0
LINE
8
BLACK
6
CONTINUOUS
10
160.1741999999999848
20
-164.0949569999999937
11
160.2694379999999796
21
-163.6187659999999937
0
LINE
8
BLACK
6
CONTINUOUS
10
160.2694379999999796
20
-163.6187659999999937
11
160.3646760000000029
21
-163.3330519999999808
0
LINE
8
BLACK
6
CONTINUOUS
10
160.3646760000000029
20
-163.3330519999999808
11
160.4599139999999977
21
-163.1425759999999912
0
LINE
8
BLACK
6
CONTINUOUS
10
160.4599139999999977
20
-163.1425759999999912
11
160.6503899999999874
21
-162.8568609999999808
0
LINE
8
BLACK
6
CONTINUOUS
10
160.6503899999999874
20
-162.8568609999999808
11
160.7456289999999797
21
-162.761622999999986
0
LINE
8
BLACK
6
CONTINUOUS
10
162.3646760000000029
20
-163.7140039999999885
11
162.3646760000000029
21
-165.0473379999999963
0
LINE
8
BLACK
6
CONTINUOUS
10
161.8884850000000029
20
-162.9521000000000015
11
161.4122950000000003
21
-164.3806710000000066
0
LINE
8
BLACK
6
CONTINUOUS
10
161.4122950000000003
20
-164.3806710000000066
11
162.6503899999999874
21
-164.3806710000000066
0
LINE
8
BLACK
6
CONTINUOUS
10
164.9361049999999977
20
-165.0473379999999963
11
164.9361049999999977
21
-163.0473379999999963
0
LINE
8
BLACK
6
CONTINUOUS
10
165.7932480000000055
20
-165.0473379999999963
11
165.7932480000000055
21
-163.9997189999999989
0
LINE
8
BLACK
6
CONTINUOUS
10
165.7932480000000055
20
-163.9997189999999989
11
165.6980099999999823
21
-163.8092419999999834
0
LINE
8
BLACK
6
CONTINUOUS
10
165.6980099999999823
20
-163.8092419999999834
11
165.5075339999999926
21
-163.7140039999999885
0
LINE
8
BLACK
6
CONTINUOUS
10
165.5075339999999926
20
-163.7140039999999885
11
165.2218189999999822
21
-163.7140039999999885
0
LINE
8
BLACK
6
CONTINUOUS
10
165.2218189999999822
20
-163.7140039999999885
11
165.0313429999999926
21
-163.8092419999999834
0
LINE
8
BLACK
6
CONTINUOUS
10
165.0313429999999926
20
-163.8092419999999834
11
164.9361049999999977
21
-163.9044800000000066
0
LINE
8
BLACK
6
CONTINUOUS
10
167.0313429999999926
20
-165.0473379999999963
11
166.8408670000000029
21
-164.9521000000000015
0
LINE
8
BLACK
6
CONTINUOUS
10
166.8408670000000029
20
-164.9521000000000015
11
166.7456289999999797
21
-164.8568609999999808
0
LINE
8
BLACK
6
CONTINUOUS
10
166.7456289999999797
20
-164.8568609999999808
11
166.6503909999999848
21
-164.6663849999999911
0
LINE
8
BLACK
6
CONTINUOUS
10
166.6503909999999848
20
-164.6663849999999911
11
166.6503909999999848
21
-164.0949569999999937
0
LINE
8
BLACK
6
CONTINUOUS
10
166.6503909999999848
20
-164.0949569999999937
11
166.7456289999999797
21
-163.9044800000000066
0
LINE
8
BLACK
6
CONTINUOUS
10
166.7456289999999797
20
-163.9044800000000066
11
166.8408670000000029
21
-163.8092419999999834
0
LINE
8
BLACK
6
CONTINUOUS
10
166.8408670000000029
20
-163.8092419999999834
11
167.0313429999999926
21
-163.7140039999999885
0
LINE
8
BLACK
6
CONTINUOUS
10
167.0313429999999926
20
-163.7140039999999885
11
167.3170580000000029
21
-163.7140039999999885
0
LINE
8
BLACK
6
CONTINUOUS
10
167.3170580000000029
20
-163.7140039999999885
11
167.5075339999999926
21
-163.8092419999999834
0
LINE
8
BLACK
6
CONTINUOUS
10
167.5075339999999926
20
-163.8092419999999834
11
167.6027719999999874
21
-163.9044800000000066
0
LINE
8
BLACK
6
CONTINUOUS
10
167.6027719999999874
20
-163.9044800000000066
11
167.6980099999999823
21
-164.0949569999999937
0
LINE
8
BLACK
6
CONTINUOUS
10
167.6980099999999823
20
-164.0949569999999937
11
167.6980099999999823
21
-164.6663849999999911
0
LINE
8
BLACK
6
CONTINUOUS
10
167.6980099999999823
20
-164.6663849999999911
11
167.6027719999999874
21
-164.8568609999999808
0
LINE
8
BLACK
6
CONTINUOUS
10
167.6027719999999874
20
-164.8568609999999808
11
167.5075339999999926
21
-164.9521000000000015
0
LINE
8
BLACK
6
CONTINUOUS
10
167.5075339999999926
20
-164.9521000000000015
11
167.3170580000000029
21
-165.0473379999999963
0
LINE
8
BLACK
6
CONTINUOUS
10
167.3170580000000029
20
-165.0473379999999963
11
167.0313429999999926
21
-165.0473379999999963
0
LINE
8
BLACK
6
CONTINUOUS
10
168.8408670000000029
20
-165.0473379999999963
11
168.6503909999999848
21
-164.9521000000000015
0
LINE
8
BLACK
6
CONTINUOUS
10
168.6503909999999848
20
-164.9521000000000015
11
168.55515299999999
21
-164.761622999999986
0
LINE
8
BLACK
6
CONTINUOUS
10
168.55515299999999
20
-164.761622999999986
11
168.55515299999999
21
-163.0473379999999963
0
LINE
8
BLACK
6
CONTINUOUS
10
170.3646770000000004
20
-164.9521000000000015
11
170.1742009999999823
21
-165.0473379999999963
0
LINE
8
BLACK
6
CONTINUOUS
10
170.1742009999999823
20
-165.0473379999999963
11
169.7932480000000055
21
-165.0473379999999963
0
LINE
8
BLACK
6
CONTINUOUS
10
169.7932480000000055
20
-165.0473379999999963
11
169.6027719999999874
21
-164.9521000000000015
0
LINE
8
BLACK
6
CONTINUOUS
10
169.6027719999999874
20
-164.9521000000000015
11
169.5075339999999926
21
-164.761622999999986
0
LINE
8
BLACK
6
CONTINUOUS
10
169.5075339999999926
20
-164.761622999999986
11
169.5075339999999926
21
-163.9997189999999989
0
LINE
8
BLACK
6
CONTINUOUS
10
169.5075339999999926
20
-163.9997189999999989
11
169.6027719999999874
21
-163.8092419999999834
0
LINE
8
BLACK
6
CONTINUOUS
10
169.6027719999999874
20
-163.8092419999999834
11
169.7932480000000055
21
-163.7140039999999885
0
LINE
8
BLACK
6
CONTINUOUS
10
169.7932480000000055
20
-163.7140039999999885
11
170.1742009999999823
21
-163.7140039999999885
0
LINE
8
BLACK
6
CONTINUOUS
10
170.1742009999999823
20
-163.7140039999999885
11
170.3646770000000004
21
-163.8092419999999834
0
LINE
8
BLACK
6
CONTINUOUS
10
170.3646770000000004
20
-163.8092419999999834
11
170.4599149999999952
21
-163.9997189999999989
0
LINE
8
BLACK
6
CONTINUOUS
10
170.4599149999999952
20
-163.9997189999999989
11
170.4599149999999952
21
-164.1901949999999886
0
LINE
8
BLACK
6
CONTINUOUS
10
170.4599149999999952
20
-164.1901949999999886
11
169.5075339999999926
21
-164.3806710000000066
0
LINE
8
BLACK
6
CONTINUOUS
10
171.2218199999999797
20
-164.9521000000000015
11
171.4122959999999978
21
-165.0473379999999963
0
LINE
8
BLACK
6
CONTINUOUS
10
171.4122959999999978
20
-165.0473379999999963
11
171.7932480000000055
21
-165.0473379999999963
0
LINE
8
BLACK
6
CONTINUOUS
10
171.7932480000000055
20
-165.0473379999999963
11
171.9837249999999926
21
-164.9521000000000015
0
LINE
8
BLACK
6
CONTINUOUS
10
171.9837249999999926
20
-164.9521000000000015
11
172.0789629999999875
21
-164.761622999999986
0
LINE
8
BLACK
6
CONTINUOUS
10
172.0789629999999875
20
-164.761622999999986
11
172.0789629999999875
21
-164.6663849999999911
0
LINE
8
BLACK
6
CONTINUOUS
10
172.0789629999999875
20
-164.6663849999999911
11
171.9837249999999926
21
-164.4759090000000015
0
LINE
8
BLACK
6
CONTINUOUS
10
171.9837249999999926
20
-164.4759090000000015
11
171.7932480000000055
21
-164.3806710000000066
0
LINE
8
BLACK
6
CONTINUOUS
10
171.7932480000000055
20
-164.3806710000000066
11
171.5075339999999926
21
-164.3806710000000066
0
LINE
8
BLACK
6
CONTINUOUS
10
171.5075339999999926
20
-164.3806710000000066
11
171.3170580000000029
21
-164.2854329999999834
0
LINE
8
BLACK
6
CONTINUOUS
10
171.3170580000000029
20
-164.2854329999999834
11
171.2218199999999797
21
-164.0949569999999937
0
LINE
8
BLACK
6
CONTINUOUS
10
171.2218199999999797
20
-164.0949569999999937
11
171.2218199999999797
21
-163.9997189999999989
0
LINE
8
BLACK
6
CONTINUOUS
10
171.2218199999999797
20
-163.9997189999999989
11
171.3170580000000029
21
-163.8092419999999834
0
LINE
8
BLACK
6
CONTINUOUS
10
171.3170580000000029
20
-163.8092419999999834
11
171.5075339999999926
21
-163.7140039999999885
0
LINE
8
BLACK
6
CONTINUOUS
10
171.5075339999999926
20
-163.7140039999999885
11
171.7932480000000055
21
-163.7140039999999885
0
LINE
8
BLACK
6
CONTINUOUS
10
171.7932480000000055
20
-163.7140039999999885
11
171.9837249999999926
21
-163.8092419999999834
0
LINE
8
BLACK
6
CONTINUOUS
10
172.7456300000000056
20
-165.8092419999999834
11
172.8408680000000004
21
-165.7140039999999885
0
LINE
8
BLACK
6
CONTINUOUS
10
172.8408680000000004
20
-165.7140039999999885
11
173.03134399999999
21
-165.4282900000000041
0
LINE
8
BLACK
6
CONTINUOUS
10
173.03134399999999
20
-165.4282900000000041
11
173.1265819999999849
21
-165.237813999999986
0
LINE
8
BLACK
6
CONTINUOUS
10
173.1265819999999849
20
-165.237813999999986
11
173.2218199999999797
21
-164.9521000000000015
0
LINE
8
BLACK
6
CONTINUOUS
10
173.2218199999999797
20
-164.9521000000000015
11
173.3170580000000029
21
-164.4759090000000015
0
LINE
8
BLACK
6
CONTINUOUS
10
173.3170580000000029
20
-164.4759090000000015
11
173.3170580000000029
21
-164.0949569999999937
0
LINE
8
BLACK
6
CONTINUOUS
10
173.3170580000000029
20
-164.0949569999999937
11
173.2218199999999797
21
-163.6187659999999937
0
LINE
8
BLACK
6
CONTINUOUS
10
173.2218199999999797
20
-163.6187659999999937
11
173.1265819999999849
21
-163.3330519999999808
0
LINE
8
BLACK
6
CONTINUOUS
10
173.1265819999999849
20
-163.3330519999999808
11
173.03134399999999
21
-163.1425759999999912
0
LINE
8
BLACK
6
CONTINUOUS
10
173.03134399999999
20
-163.1425759999999912
11
172.8408680000000004
21
-162.8568609999999808
0
LINE
8
BLACK
6
CONTINUOUS
10
172.8408680000000004
20
-162.8568609999999808
11
172.7456300000000056
21
-162.761622999999986
0
LINE
8
BLACK
6
CONTINUOUS
10
176.3646779999999978
20
-165.8092419999999834
11
176.2694390000000055
21
-165.7140039999999885
0
LINE
8
BLACK
6
CONTINUOUS
10
176.2694390000000055
20
-165.7140039999999885
11
176.0789629999999875
21
-165.4282900000000041
0
LINE
8
BLACK
6
CONTINUOUS
10
176.0789629999999875
20
-165.4282900000000041
11
175.9837249999999926
21
-165.237813999999986
0
LINE
8
BLACK
6
CONTINUOUS
10
175.9837249999999926
20
-165.237813999999986
11
175.8884869999999978
21
-164.9521000000000015
0
LINE
8
BLACK
6
CONTINUOUS
10
175.8884869999999978
20
-164.9521000000000015
11
175.793249000000003
21
-164.4759090000000015
0
LINE
8
BLACK
6
CONTINUOUS
10
175.793249000000003
20
-164.4759090000000015
11
175.793249000000003
21
-164.0949569999999937
0
LINE
8
BLACK
6
CONTINUOUS
10
175.793249000000003
20
-164.0949569999999937
11
175.8884869999999978
21
-163.6187659999999937
0
LINE
8
BLACK
6
CONTINUOUS
10
175.8884869999999978
20
-163.6187659999999937
11
175.9837249999999926
21
-163.3330519999999808
0
LINE
8
BLACK
6
CONTINUOUS
10
175.9837249999999926
20
-163.3330519999999808
11
176.0789629999999875
21
-163.1425759999999912
0
LINE
8
BLACK
6
CONTINUOUS
10
176.0789629999999875
20
-163.1425759999999912
11
176.2694390000000055
21
-162.8568609999999808
0
LINE
8
BLACK
6
CONTINUOUS
10
176.2694390000000055
20
-162.8568609999999808
11
176.3646779999999978
21
-162.761622999999986
0
LINE
8
BLACK
6
CONTINUOUS
10
177.1265819999999849
20
-163.7140039999999885
11
177.1265819999999849
21
-165.0473379999999963
0
LINE
8
BLACK
6
CONTINUOUS
10
177.1265819999999849
20
-163.9044800000000066
11
177.2218199999999797
21
-163.8092419999999834
0
LINE
8
BLACK
6
CONTINUOUS
10
177.2218199999999797
20
-163.8092419999999834
11
177.4122959999999978
21
-163.7140039999999885
0
LINE
8
BLACK
6
CONTINUOUS
10
177.4122959999999978
20
-163.7140039999999885
11
177.6980109999999797
21
-163.7140039999999885
0
LINE
8
BLACK
6
CONTINUOUS
10
177.6980109999999797
20
-163.7140039999999885
11
177.8884869999999978
21
-163.8092419999999834
0
LINE
8
BLACK
6
CONTINUOUS
10
177.8884869999999978
20
-163.8092419999999834
11
177.9837249999999926
21
-163.9997189999999989
0
LINE
8
BLACK
6
CONTINUOUS
10
177.9837249999999926
20
-163.9997189999999989
11
177.9837249999999926
21
-165.0473379999999963
0
LINE
8
BLACK
6
CONTINUOUS
10
179.2218199999999797
20
-165.0473379999999963
11
179.03134399999999
21
-164.9521000000000015
0
LINE
8
BLACK
6
CONTINUOUS
10
179.03134399999999
20
-164.9521000000000015
11
178.9361059999999952
21
-164.8568609999999808
0
LINE
8
BLACK
6
CONTINUOUS
10
178.9361059999999952
20
-164.8568609999999808
11
178.8408680000000004
21
-164.6663849999999911
0
LINE
8
BLACK
6
CONTINUOUS
10
178.8408680000000004
20
-164.6663849999999911
11
178.8408680000000004
21
-164.0949569999999937
0
LINE
8
BLACK
6
CONTINUOUS
10
178.8408680000000004
20
-164.0949569999999937
11
178.9361059999999952
21
-163.9044800000000066
0
LINE
8
BLACK
6
CONTINUOUS
10
178.9361059999999952
20
-163.9044800000000066
11
179.03134399999999
21
-163.8092419999999834
0
LINE
8
BLACK
6
CONTINUOUS
10
179.03134399999999
20
-163.8092419999999834
11
179.2218199999999797
21
-163.7140039999999885
0
LINE
8
BLACK
6
CONTINUOUS
10
179.2218199999999797
20
-163.7140039999999885
11
179.5075349999999901
21
-163.7140039999999885
0
LINE
8
BLACK
6
CONTINUOUS
10
179.5075349999999901
20
-163.7140039999999885
11
179.6980109999999797
21
-163.8092419999999834
0
LINE
8
BLACK
6
CONTINUOUS
10
179.6980109999999797
20
-163.8092419999999834
11
179.793249000000003
21
-163.9044800000000066
0
LINE
8
BLACK
6
CONTINUOUS
10
179.793249000000003
20
-163.9044800000000066
11
179.8884869999999978
21
-164.0949569999999937
0
LINE
8
BLACK
6
CONTINUOUS
10
179.8884869999999978
20
-164.0949569999999937
11
179.8884869999999978
21
-164.6663849999999911
0
LINE
8
BLACK
6
CONTINUOUS
10
179.8884869999999978
20
-164.6663849999999911
11
179.793249000000003
21
-164.8568609999999808
0
LINE
8
BLACK
6
CONTINUOUS
10
179.793249000000003
20
-164.8568609999999808
11
179.6980109999999797
21
-164.9521000000000015
0
LINE
8
BLACK
6
CONTINUOUS
10
179.6980109999999797
20
-164.9521000000000015
11
179.5075349999999901
21
-165.0473379999999963
0
LINE
8
BLACK
6
CONTINUOUS
10
179.5075349999999901
20
-165.0473379999999963
11
179.2218199999999797
21
-165.0473379999999963
0
LINE
8
BLACK
6
CONTINUOUS
10
180.4599159999999927
20
-163.7140039999999885
11
181.2218199999999797
21
-163.7140039999999885
0
LINE
8
BLACK
6
CONTINUOUS
10
180.7456300000000056
20
-163.0473379999999963
11
180.7456300000000056
21
-164.761622999999986
0
LINE
8
BLACK
6
CONTINUOUS
10
180.7456300000000056
20
-164.761622999999986
11
180.8408680000000004
21
-164.9521000000000015
0
LINE
8
BLACK
6
CONTINUOUS
10
180.8408680000000004
20
-164.9521000000000015
11
181.03134399999999
21
-165.0473379999999963
0
LINE
8
BLACK
6
CONTINUOUS
10
181.03134399999999
20
-165.0473379999999963
11
181.2218199999999797
21
-165.0473379999999963
0
LINE
8
BLACK
6
CONTINUOUS
10
183.4122969999999953
20
-163.7140039999999885
11
183.4122969999999953
21
-165.7140039999999885
0
LINE
8
BLACK
6
CONTINUOUS
10
183.4122969999999953
20
-163.8092419999999834
11
183.6027729999999849
21
-163.7140039999999885
0
LINE
8
BLACK
6
CONTINUOUS
10
183.6027729999999849
20
-163.7140039999999885
11
183.9837259999999901
21
-163.7140039999999885
0
LINE
8
BLACK
6
CONTINUOUS
10
183.9837259999999901
20
-163.7140039999999885
11
184.1742019999999798
21
-163.8092419999999834
0
LINE
8
BLACK
6
CONTINUOUS
10
184.1742019999999798
20
-163.8092419999999834
11
184.269440000000003
21
-163.9044800000000066
0
LINE
8
BLACK
6
CONTINUOUS
10
184.269440000000003
20
-163.9044800000000066
11
184.3646779999999978
21
-164.0949569999999937
0
LINE
8
BLACK
6
CONTINUOUS
10
184.3646779999999978
20
-164.0949569999999937
11
184.3646779999999978
21
-164.6663849999999911
0
LINE
8
BLACK
6
CONTINUOUS
10
184.3646779999999978
20
-164.6663849999999911
11
184.269440000000003
21
-164.8568609999999808
0
LINE
8
BLACK
6
CONTINUOUS
10
184.269440000000003
20
-164.8568609999999808
11
184.1742019999999798
21
-164.9521000000000015
0
LINE
8
BLACK
6
CONTINUOUS
10
184.1742019999999798
20
-164.9521000000000015
11
183.9837259999999901
21
-165.0473379999999963
0
LINE
8
BLACK
6
CONTINUOUS
10
183.9837259999999901
20
-165.0473379999999963
11
183.6027729999999849
21
-165.0473379999999963
0
LINE
8
BLACK
6
CONTINUOUS
10
183.6027729999999849
20
-165.0473379999999963
11
183.4122969999999953
21
-164.9521000000000015
0
LINE
8
BLACK
6
CONTINUOUS
10
185.5075349999999901
20
-165.0473379999999963
11
185.3170590000000004
21
-164.9521000000000015
0
LINE
8
BLACK
6
CONTINUOUS
10
185.3170590000000004
20
-164.9521000000000015
11
185.2218210000000056
21
-164.761622999999986
0
LINE
8
BLACK
6
CONTINUOUS
10
185.2218210000000056
20
-164.761622999999986
11
185.2218210000000056
21
-163.0473379999999963
0
LINE
8
BLACK
6
CONTINUOUS
10
187.1265829999999823
20
-165.0473379999999963
11
187.1265829999999823
21
-163.9997189999999989
0
LINE
8
BLACK
6
CONTINUOUS
10
187.1265829999999823
20
-163.9997189999999989
11
187.0313449999999875
21
-163.8092419999999834
0
LINE
8
BLACK
6
CONTINUOUS
10
187.0313449999999875
20
-163.8092419999999834
11
186.8408689999999979
21
-163.7140039999999885
0
LINE
8
BLACK
6
CONTINUOUS
10
186.8408689999999979
20
-163.7140039999999885
11
186.4599159999999927
21
-163.7140039999999885
0
LINE
8
BLACK
6
CONTINUOUS
10
186.4599159999999927
20
-163.7140039999999885
11
186.269440000000003
21
-163.8092419999999834
0
LINE
8
BLACK
6
CONTINUOUS
10
187.1265829999999823
20
-164.9521000000000015
11
186.9361069999999927
21
-165.0473379999999963
0
LINE
8
BLACK
6
CONTINUOUS
10
186.9361069999999927
20
-165.0473379999999963
11
186.4599159999999927
21
-165.0473379999999963
0
LINE
8
BLACK
6
CONTINUOUS
10
186.4599159999999927
20
-165.0473379999999963
11
186.269440000000003
21
-164.9521000000000015
0
LINE
8
BLACK
6
CONTINUOUS
10
186.269440000000003
20
-164.9521000000000015
11
186.1742019999999798
21
-164.761622999999986
0
LINE
8
BLACK
6
CONTINUOUS
10
186.1742019999999798
20
-164.761622999999986
11
186.1742019999999798
21
-164.5711469999999963
0
LINE
8
BLACK
6
CONTINUOUS
10
186.1742019999999798
20
-164.5711469999999963
11
186.269440000000003
21
-164.3806710000000066
0
LINE
8
BLACK
6
CONTINUOUS
10
186.269440000000003
20
-164.3806710000000066
11
186.4599159999999927
21
-164.2854329999999834
0
LINE
8
BLACK
6
CONTINUOUS
10
186.4599159999999927
20
-164.2854329999999834
11
186.9361069999999927
21
-164.2854329999999834
0
LINE
8
BLACK
6
CONTINUOUS
10
186.9361069999999927
20
-164.2854329999999834
11
187.1265829999999823
21
-164.1901949999999886
0
LINE
8
BLACK
6
CONTINUOUS
10
187.7932500000000005
20
-163.7140039999999885
11
188.5551539999999875
21
-163.7140039999999885
0
LINE
8
BLACK
6
CONTINUOUS
10
188.0789639999999849
20
-163.0473379999999963
11
188.0789639999999849
21
-164.761622999999986
0
LINE
8
BLACK
6
CONTINUOUS
10
188.0789639999999849
20
-164.761622999999986
11
188.1742019999999798
21
-164.9521000000000015
0
LINE
8
BLACK
6
CONTINUOUS
10
188.1742019999999798
20
-164.9521000000000015
11
188.3646779999999978
21
-165.0473379999999963
0
LINE
8
BLACK
6
CONTINUOUS
10
188.3646779999999978
20
-165.0473379999999963
11
188.5551539999999875
21
-165.0473379999999963
0
LINE
8
BLACK
6
CONTINUOUS
10
189.9837259999999901
20
-164.9521000000000015
11
189.7932500000000005
21
-165.0473379999999963
0
LINE
8
BLACK
6
CONTINUOUS
10
189.7932500000000005
20
-165.0473379999999963
11
189.4122969999999953
21
-165.0473379999999963
0
LINE
8
BLACK
6
CONTINUOUS
10
189.4122969999999953
20
-165.0473379999999963
11
189.2218210000000056
21
-164.9521000000000015
0
LINE
8
BLACK
6
CONTINUOUS
10
189.2218210000000056
20
-164.9521000000000015
11
189.1265829999999823
21
-164.761622999999986
0
LINE
8
BLACK
6
CONTINUOUS
10
189.1265829999999823
20
-164.761622999999986
11
189.1265829999999823
21
-163.9997189999999989
0
LINE
8
BLACK
6
CONTINUOUS
10
189.1265829999999823
20
-163.9997189999999989
11
189.2218210000000056
21
-163.8092419999999834
0
LINE
8
BLACK
6
CONTINUOUS
10
189.2218210000000056
20
-163.8092419999999834
11
189.4122969999999953
21
-163.7140039999999885
0
LINE
8
BLACK
6
CONTINUOUS
10
189.4122969999999953
20
-163.7140039999999885
11
189.7932500000000005
21
-163.7140039999999885
0
LINE
8
BLACK
6
CONTINUOUS
10
189.7932500000000005
20
-163.7140039999999885
11
189.9837259999999901
21
-163.8092419999999834
0
LINE
8
BLACK
6
CONTINUOUS
10
189.9837259999999901
20
-163.8092419999999834
11
190.0789639999999849
21
-163.9997189999999989
0
LINE
8
BLACK
6
CONTINUOUS
10
190.0789639999999849
20
-163.9997189999999989
11
190.0789639999999849
21
-164.1901949999999886
0
LINE
8
BLACK
6
CONTINUOUS
10
190.0789639999999849
20
-164.1901949999999886
11
189.1265829999999823
21
-164.3806710000000066
0
LINE
8
BLACK
6
CONTINUOUS
10
191.7932500000000005
20
-165.0473379999999963
11
191.7932500000000005
21
-163.0473379999999963
0
LINE
8
BLACK
6
CONTINUOUS
10
191.7932500000000005
20
-164.9521000000000015
11
191.6027739999999824
21
-165.0473379999999963
0
LINE
8
BLACK
6
CONTINUOUS
10
191.6027739999999824
20
-165.0473379999999963
11
191.2218209999999772
21
-165.0473379999999963
0
LINE
8
BLACK
6
CONTINUOUS
10
191.2218209999999772
20
-165.0473379999999963
11
191.0313449999999875
21
-164.9521000000000015
0
LINE
8
BLACK
6
CONTINUOUS
10
191.0313449999999875
20
-164.9521000000000015
11
190.9361069999999927
21
-164.8568609999999808
0
LINE
8
BLACK
6
CONTINUOUS
10
190.9361069999999927
20
-164.8568609999999808
11
190.8408689999999979
21
-164.6663849999999911
0
LINE
8
BLACK
6
CONTINUOUS
10
190.8408689999999979
20
-164.6663849999999911
11
190.8408689999999979
21
-164.0949569999999937
0
LINE
8
BLACK
6
CONTINUOUS
10
190.8408689999999979
20
-164.0949569999999937
11
190.9361069999999927
21
-163.9044800000000066
0
LINE
8
BLACK
6
CONTINUOUS
10
190.9361069999999927
20
-163.9044800000000066
11
191.0313449999999875
21
-163.8092419999999834
0
LINE
8
BLACK
6
CONTINUOUS
10
191.0313449999999875
20
-163.8092419999999834
11
191.2218209999999772
21
-163.7140039999999885
0
LINE
8
BLACK
6
CONTINUOUS
10
191.2218209999999772
20
-163.7140039999999885
11
191.6027739999999824
21
-163.7140039999999885
0
LINE
8
BLACK
6
CONTINUOUS
10
191.6027739999999824
20
-163.7140039999999885
11
191.7932500000000005
21
-163.8092419999999834
0
LINE
8
BLACK
6
CONTINUOUS
10
192.555154999999985
20
-165.8092419999999834
11
192.6503929999999798
21
-165.7140039999999885
0
LINE
8
BLACK
6
CONTINUOUS
10
192.6503929999999798
20
-165.7140039999999885
11
192.8408689999999979
21
-165.4282900000000041
0
LINE
8
BLACK
6
CONTINUOUS
10
192.8408689999999979
20
-165.4282900000000041
11
192.9361069999999927
21
-165.237813999999986
0
LINE
8
BLACK
6
CONTINUOUS
10
192.9361069999999927
20
-165.237813999999986
11
193.0313449999999875
21
-164.9521000000000015
0
LINE
8
BLACK
6
CONTINUOUS
10
193.0313449999999875
20
-164.9521000000000015
11
193.1265829999999823
21
-164.4759090000000015
0
LINE
8
BLACK
6
CONTINUOUS
10
193.1265829999999823
20
-164.4759090000000015
11
193.1265829999999823
21
-164.0949569999999937
0
LINE
8
BLACK
6
CONTINUOUS
10
193.1265829999999823
20
-164.0949569999999937
11
193.0313449999999875
21
-163.6187659999999937
0
LINE
8
BLACK
6
CONTINUOUS
10
193.0313449999999875
20
-163.6187659999999937
11
192.9361069999999927
21
-163.3330519999999808
0
LINE
8
BLACK
6
CONTINUOUS
10
192.9361069999999927
20
-163.3330519999999808
11
192.8408689999999979
21
-163.1425759999999912
0
LINE
8
BLACK
6
CONTINUOUS
10
192.8408689999999979
20
-163.1425759999999912
11
192.6503929999999798
21
-162.8568609999999808
0
LINE
8
BLACK
6
CONTINUOUS
10
192.6503929999999798
20
-162.8568609999999808
11
192.555154999999985
21
-162.761622999999986
  0
ENDSEC
  0
EOF
