%TF.GenerationSoftware,KiCad,Pcbnew,7.0.9*%
%TF.CreationDate,2023-11-27T11:41:06+10:00*%
%TF.ProjectId,Front Console Output,46726f6e-7420-4436-9f6e-736f6c65204f,rev?*%
%TF.SameCoordinates,Original*%
%TF.FileFunction,Drillmap*%
%TF.FilePolarity,Positive*%
%FSLAX45Y45*%
G04 Gerber Fmt 4.5, Leading zero omitted, Abs format (unit mm)*
G04 Created by KiCad (PCBNEW 7.0.9) date 2023-11-27 11:41:06*
%MOMM*%
%LPD*%
G01*
G04 APERTURE LIST*
%ADD10C,0.150000*%
%ADD11C,0.200000*%
G04 APERTURE END LIST*
D10*
X12539000Y-5448000D02*
X22519000Y-5448000D01*
X22519000Y-15394000D01*
X12539000Y-15394000D01*
X12539000Y-5448000D01*
D11*
X12792277Y-15712984D02*
X12792277Y-15512984D01*
X12792277Y-15512984D02*
X12839896Y-15512984D01*
X12839896Y-15512984D02*
X12868467Y-15522508D01*
X12868467Y-15522508D02*
X12887515Y-15541555D01*
X12887515Y-15541555D02*
X12897039Y-15560603D01*
X12897039Y-15560603D02*
X12906562Y-15598698D01*
X12906562Y-15598698D02*
X12906562Y-15627269D01*
X12906562Y-15627269D02*
X12897039Y-15665365D01*
X12897039Y-15665365D02*
X12887515Y-15684412D01*
X12887515Y-15684412D02*
X12868467Y-15703460D01*
X12868467Y-15703460D02*
X12839896Y-15712984D01*
X12839896Y-15712984D02*
X12792277Y-15712984D01*
X12992277Y-15712984D02*
X12992277Y-15579650D01*
X12992277Y-15617746D02*
X13001801Y-15598698D01*
X13001801Y-15598698D02*
X13011324Y-15589174D01*
X13011324Y-15589174D02*
X13030372Y-15579650D01*
X13030372Y-15579650D02*
X13049420Y-15579650D01*
X13116086Y-15712984D02*
X13116086Y-15579650D01*
X13116086Y-15512984D02*
X13106562Y-15522508D01*
X13106562Y-15522508D02*
X13116086Y-15532031D01*
X13116086Y-15532031D02*
X13125610Y-15522508D01*
X13125610Y-15522508D02*
X13116086Y-15512984D01*
X13116086Y-15512984D02*
X13116086Y-15532031D01*
X13239896Y-15712984D02*
X13220848Y-15703460D01*
X13220848Y-15703460D02*
X13211324Y-15684412D01*
X13211324Y-15684412D02*
X13211324Y-15512984D01*
X13344658Y-15712984D02*
X13325610Y-15703460D01*
X13325610Y-15703460D02*
X13316086Y-15684412D01*
X13316086Y-15684412D02*
X13316086Y-15512984D01*
X13573229Y-15712984D02*
X13573229Y-15512984D01*
X13573229Y-15512984D02*
X13639896Y-15655841D01*
X13639896Y-15655841D02*
X13706562Y-15512984D01*
X13706562Y-15512984D02*
X13706562Y-15712984D01*
X13887515Y-15712984D02*
X13887515Y-15608222D01*
X13887515Y-15608222D02*
X13877991Y-15589174D01*
X13877991Y-15589174D02*
X13858943Y-15579650D01*
X13858943Y-15579650D02*
X13820848Y-15579650D01*
X13820848Y-15579650D02*
X13801801Y-15589174D01*
X13887515Y-15703460D02*
X13868467Y-15712984D01*
X13868467Y-15712984D02*
X13820848Y-15712984D01*
X13820848Y-15712984D02*
X13801801Y-15703460D01*
X13801801Y-15703460D02*
X13792277Y-15684412D01*
X13792277Y-15684412D02*
X13792277Y-15665365D01*
X13792277Y-15665365D02*
X13801801Y-15646317D01*
X13801801Y-15646317D02*
X13820848Y-15636793D01*
X13820848Y-15636793D02*
X13868467Y-15636793D01*
X13868467Y-15636793D02*
X13887515Y-15627269D01*
X13982753Y-15579650D02*
X13982753Y-15779650D01*
X13982753Y-15589174D02*
X14001801Y-15579650D01*
X14001801Y-15579650D02*
X14039896Y-15579650D01*
X14039896Y-15579650D02*
X14058943Y-15589174D01*
X14058943Y-15589174D02*
X14068467Y-15598698D01*
X14068467Y-15598698D02*
X14077991Y-15617746D01*
X14077991Y-15617746D02*
X14077991Y-15674888D01*
X14077991Y-15674888D02*
X14068467Y-15693936D01*
X14068467Y-15693936D02*
X14058943Y-15703460D01*
X14058943Y-15703460D02*
X14039896Y-15712984D01*
X14039896Y-15712984D02*
X14001801Y-15712984D01*
X14001801Y-15712984D02*
X13982753Y-15703460D01*
X14163705Y-15693936D02*
X14173229Y-15703460D01*
X14173229Y-15703460D02*
X14163705Y-15712984D01*
X14163705Y-15712984D02*
X14154182Y-15703460D01*
X14154182Y-15703460D02*
X14163705Y-15693936D01*
X14163705Y-15693936D02*
X14163705Y-15712984D01*
X14163705Y-15589174D02*
X14173229Y-15598698D01*
X14173229Y-15598698D02*
X14163705Y-15608222D01*
X14163705Y-15608222D02*
X14154182Y-15598698D01*
X14154182Y-15598698D02*
X14163705Y-15589174D01*
X14163705Y-15589174D02*
X14163705Y-15608222D01*
M02*
