  0
SECTION
  2
HEADER
  9
$ANGBASE
  50
0.0
  9
$ANGDIR
  70
1
  9
$MEASUREMENT
  70
1
  0
ENDSEC
  0
SECTION
  2
TABLES
  0
TABLE
  2
LTYPE
  70
4
  0
LTYPE
  5
40F
  2
CONTINUOUS
  70
0
  3
Solid line
  72
65
  73
0
  40
0.0
  0
LTYPE
  5
410
  2
DASHDOT
 70
0
  3
Dash Dot ____ _ ____ _
 72
65
 73
4
 40
2.0
 49
1.25
 49
-0.25
 49
0.25
 49
-0.25
  0
LTYPE
  5
411
  2
DASHED
 70
0
  3
Dashed __ __ __ __ __
 72
65
 73
2
 40
0.75
 49
0.5
 49
-0.25
  0
LTYPE
  5
43B
  2
DOTTED
 70
0
  3
Dotted .  .  .  .
 72
65
 73
2
 40
0.2
 49
0.0
 49
-0.2
  0
ENDTAB
  0
TABLE
  2
STYLE
  70
4
  0
STYLE
  2
KICAD
  70
0
  40
0
  41
1
  42
1
  50
0
  71
0
  3
isocp.shx
  0
STYLE
  2
KICADB
  70
0
  40
0
  41
1
  42
1
  50
0
  71
0
  3
isocp.shx
  0
STYLE
  2
KICADI
  70
0
  40
0
  41
1
  42
1
  50
15
  71
0
  3
isocp.shx
  0
STYLE
  2
KICADBI
  70
0
  40
0
  41
1
  42
1
  50
15
  71
0
  3
isocp.shx
  0
ENDTAB
  0
TABLE
  2
LAYER
  70
1
  0
LAYER
  2
BLACK
  70
0
  62
7
  6
CONTINUOUS
  0
ENDTAB
  0
ENDSEC
  0
SECTION
  2
ENTITIES
0
LINE
8
BLACK
6
CONTINUOUS
10
125.832
20
-126.594
11
125.882
21
-126.594
0
LINE
8
BLACK
6
CONTINUOUS
10
125.832
20
-57.658
11
108.915
21
-39.1668
0
LINE
8
BLACK
6
CONTINUOUS
10
63.9064
20
-110.541
11
80.1624
21
-126.797
0
CIRCLE
8
BLACK
10
79.1972
20
-99.441
40
6.35
0
ARC
8
BLACK
10
108.407
20
-98.806
40
15.24
50
-257.487
51
77.5133
0
LINE
8
BLACK
6
CONTINUOUS
10
125.882
20
-126.594
11
125.832
21
-57.658
0
CIRCLE
8
BLACK
10
119.52
20
-60.071
40
2.15265
0
CIRCLE
8
BLACK
10
122.568
20
-74.2891
40
2.15265
0
CIRCLE
8
BLACK
10
85.5472
20
-114.681
40
2.15265
0
CIRCLE
8
BLACK
10
121.107
20
-121.031
40
2.15265
0
CIRCLE
8
BLACK
10
71.5772
20
-62.2935
40
3.57124
0
ARC
8
BLACK
10
108.407
20
-76.581
40
3.302
50
-0
51
180
0
LINE
8
BLACK
6
CONTINUOUS
10
105.105
20
-76.581
11
105.105
21
-83.928
0
LINE
8
BLACK
6
CONTINUOUS
10
80.1624
20
-126.797
11
125.832
21
-126.594
0
CIRCLE
8
BLACK
10
70.6907
20
-74.2891
40
2.15265
0
LINE
8
BLACK
6
CONTINUOUS
10
63.9572
20
-56.4896
11
63.9064
21
-110.541
0
CIRCLE
8
BLACK
10
94.2467
20
-74.2891
40
2.15265
0
LINE
8
BLACK
6
CONTINUOUS
10
108.915
20
-39.1668
11
80.7212
21
-39.1668
0
CIRCLE
8
BLACK
10
79.1972
20
-108.433
40
1.651
0
LINE
8
BLACK
6
CONTINUOUS
10
111.702
20
-83.9265
11
111.709
21
-76.581
0
LINE
8
BLACK
6
CONTINUOUS
10
80.7212
20
-39.1668
11
63.9572
21
-56.4896
0
LINE
8
BLACK
6
CONTINUOUS
10
66.4576
20
-129.927
11
66.4576
21
-127.927
0
LINE
8
BLACK
6
CONTINUOUS
10
66.4576
20
-127.927
11
66.9338
21
-127.927
0
LINE
8
BLACK
6
CONTINUOUS
10
66.9338
20
-127.927
11
67.2195
21
-128.022
0
LINE
8
BLACK
6
CONTINUOUS
10
67.2195
20
-128.022
11
67.41
21
-128.212
0
LINE
8
BLACK
6
CONTINUOUS
10
67.41
20
-128.212
11
67.5052
21
-128.403
0
LINE
8
BLACK
6
CONTINUOUS
10
67.5052
20
-128.403
11
67.6004
21
-128.784
0
LINE
8
BLACK
6
CONTINUOUS
10
67.6004
20
-128.784
11
67.6004
21
-129.069
0
LINE
8
BLACK
6
CONTINUOUS
10
67.6004
20
-129.069
11
67.5052
21
-129.45
0
LINE
8
BLACK
6
CONTINUOUS
10
67.5052
20
-129.45
11
67.41
21
-129.641
0
LINE
8
BLACK
6
CONTINUOUS
10
67.41
20
-129.641
11
67.2195
21
-129.831
0
LINE
8
BLACK
6
CONTINUOUS
10
67.2195
20
-129.831
11
66.9338
21
-129.927
0
LINE
8
BLACK
6
CONTINUOUS
10
66.9338
20
-129.927
11
66.4576
21
-129.927
0
LINE
8
BLACK
6
CONTINUOUS
10
68.4576
20
-129.927
11
68.4576
21
-128.593
0
LINE
8
BLACK
6
CONTINUOUS
10
68.4576
20
-128.974
11
68.5528
21
-128.784
0
LINE
8
BLACK
6
CONTINUOUS
10
68.5528
20
-128.784
11
68.6481
21
-128.688
0
LINE
8
BLACK
6
CONTINUOUS
10
68.6481
20
-128.688
11
68.8385
21
-128.593
0
LINE
8
BLACK
6
CONTINUOUS
10
68.8385
20
-128.593
11
69.029
21
-128.593
0
LINE
8
BLACK
6
CONTINUOUS
10
69.6957
20
-129.927
11
69.6957
21
-128.593
0
LINE
8
BLACK
6
CONTINUOUS
10
69.6957
20
-127.927
11
69.6004
21
-128.022
0
LINE
8
BLACK
6
CONTINUOUS
10
69.6004
20
-128.022
11
69.6957
21
-128.117
0
LINE
8
BLACK
6
CONTINUOUS
10
69.6957
20
-128.117
11
69.7909
21
-128.022
0
LINE
8
BLACK
6
CONTINUOUS
10
69.7909
20
-128.022
11
69.6957
21
-127.927
0
LINE
8
BLACK
6
CONTINUOUS
10
69.6957
20
-127.927
11
69.6957
21
-128.117
0
LINE
8
BLACK
6
CONTINUOUS
10
70.9338
20
-129.927
11
70.7433
21
-129.831
0
LINE
8
BLACK
6
CONTINUOUS
10
70.7433
20
-129.831
11
70.6481
21
-129.641
0
LINE
8
BLACK
6
CONTINUOUS
10
70.6481
20
-129.641
11
70.6481
21
-127.927
0
LINE
8
BLACK
6
CONTINUOUS
10
71.9814
20
-129.927
11
71.7909
21
-129.831
0
LINE
8
BLACK
6
CONTINUOUS
10
71.7909
20
-129.831
11
71.6957
21
-129.641
0
LINE
8
BLACK
6
CONTINUOUS
10
71.6957
20
-129.641
11
71.6957
21
-127.927
0
LINE
8
BLACK
6
CONTINUOUS
10
74.2671
20
-129.927
11
74.2671
21
-127.927
0
LINE
8
BLACK
6
CONTINUOUS
10
74.2671
20
-127.927
11
74.9338
21
-129.355
0
LINE
8
BLACK
6
CONTINUOUS
10
74.9338
20
-129.355
11
75.6004
21
-127.927
0
LINE
8
BLACK
6
CONTINUOUS
10
75.6004
20
-127.927
11
75.6004
21
-129.927
0
LINE
8
BLACK
6
CONTINUOUS
10
77.41
20
-129.927
11
77.41
21
-128.879
0
LINE
8
BLACK
6
CONTINUOUS
10
77.41
20
-128.879
11
77.3147
21
-128.688
0
LINE
8
BLACK
6
CONTINUOUS
10
77.3147
20
-128.688
11
77.1243
21
-128.593
0
LINE
8
BLACK
6
CONTINUOUS
10
77.1243
20
-128.593
11
76.7433
21
-128.593
0
LINE
8
BLACK
6
CONTINUOUS
10
76.7433
20
-128.593
11
76.5528
21
-128.688
0
LINE
8
BLACK
6
CONTINUOUS
10
77.41
20
-129.831
11
77.2195
21
-129.927
0
LINE
8
BLACK
6
CONTINUOUS
10
77.2195
20
-129.927
11
76.7433
21
-129.927
0
LINE
8
BLACK
6
CONTINUOUS
10
76.7433
20
-129.927
11
76.5528
21
-129.831
0
LINE
8
BLACK
6
CONTINUOUS
10
76.5528
20
-129.831
11
76.4576
21
-129.641
0
LINE
8
BLACK
6
CONTINUOUS
10
76.4576
20
-129.641
11
76.4576
21
-129.45
0
LINE
8
BLACK
6
CONTINUOUS
10
76.4576
20
-129.45
11
76.5528
21
-129.26
0
LINE
8
BLACK
6
CONTINUOUS
10
76.5528
20
-129.26
11
76.7433
21
-129.165
0
LINE
8
BLACK
6
CONTINUOUS
10
76.7433
20
-129.165
11
77.2195
21
-129.165
0
LINE
8
BLACK
6
CONTINUOUS
10
77.2195
20
-129.165
11
77.41
21
-129.069
0
LINE
8
BLACK
6
CONTINUOUS
10
78.3624
20
-128.593
11
78.3624
21
-130.593
0
LINE
8
BLACK
6
CONTINUOUS
10
78.3624
20
-128.688
11
78.5528
21
-128.593
0
LINE
8
BLACK
6
CONTINUOUS
10
78.5528
20
-128.593
11
78.9338
21
-128.593
0
LINE
8
BLACK
6
CONTINUOUS
10
78.9338
20
-128.593
11
79.1243
21
-128.688
0
LINE
8
BLACK
6
CONTINUOUS
10
79.1243
20
-128.688
11
79.2195
21
-128.784
0
LINE
8
BLACK
6
CONTINUOUS
10
79.2195
20
-128.784
11
79.3147
21
-128.974
0
LINE
8
BLACK
6
CONTINUOUS
10
79.3147
20
-128.974
11
79.3147
21
-129.546
0
LINE
8
BLACK
6
CONTINUOUS
10
79.3147
20
-129.546
11
79.2195
21
-129.736
0
LINE
8
BLACK
6
CONTINUOUS
10
79.2195
20
-129.736
11
79.1243
21
-129.831
0
LINE
8
BLACK
6
CONTINUOUS
10
79.1243
20
-129.831
11
78.9338
21
-129.927
0
LINE
8
BLACK
6
CONTINUOUS
10
78.9338
20
-129.927
11
78.5528
21
-129.927
0
LINE
8
BLACK
6
CONTINUOUS
10
78.5528
20
-129.927
11
78.3624
21
-129.831
0
LINE
8
BLACK
6
CONTINUOUS
10
80.1719
20
-129.736
11
80.2671
21
-129.831
0
LINE
8
BLACK
6
CONTINUOUS
10
80.2671
20
-129.831
11
80.1719
21
-129.927
0
LINE
8
BLACK
6
CONTINUOUS
10
80.1719
20
-129.927
11
80.0766
21
-129.831
0
LINE
8
BLACK
6
CONTINUOUS
10
80.0766
20
-129.831
11
80.1719
21
-129.736
0
LINE
8
BLACK
6
CONTINUOUS
10
80.1719
20
-129.736
11
80.1719
21
-129.927
0
LINE
8
BLACK
6
CONTINUOUS
10
80.1719
20
-128.688
11
80.2671
21
-128.784
0
LINE
8
BLACK
6
CONTINUOUS
10
80.2671
20
-128.784
11
80.1719
21
-128.879
0
LINE
8
BLACK
6
CONTINUOUS
10
80.1719
20
-128.879
11
80.0766
21
-128.784
0
LINE
8
BLACK
6
CONTINUOUS
10
80.0766
20
-128.784
11
80.1719
21
-128.688
0
LINE
8
BLACK
6
CONTINUOUS
10
80.1719
20
-128.688
11
80.1719
21
-128.879
  0
ENDSEC
  0
EOF
