  0
SECTION
  2
HEADER
  9
$ANGBASE
  50
0.0
  9
$ANGDIR
  70
1
  9
$MEASUREMENT
  70
1
  0
ENDSEC
  0
SECTION
  2
TABLES
  0
TABLE
  2
LTYPE
  70
4
  0
LTYPE
  5
40F
  2
CONTINUOUS
  70
0
  3
Solid line
  72
65
  73
0
  40
0.0
  0
LTYPE
  5
410
  2
DASHDOT
 70
0
  3
Dash Dot ____ _ ____ _
 72
65
 73
4
 40
2.0
 49
1.25
 49
-0.25
 49
0.25
 49
-0.25
  0
LTYPE
  5
411
  2
DASHED
 70
0
  3
Dashed __ __ __ __ __
 72
65
 73
2
 40
0.75
 49
0.5
 49
-0.25
  0
LTYPE
  5
43B
  2
DOTTED
 70
0
  3
Dotted .  .  .  .
 72
65
 73
2
 40
0.2
 49
0.0
 49
-0.2
  0
ENDTAB
  0
TABLE
  2
STYLE
  70
4
  0
STYLE
  2
KICAD
  70
0
  40
0
  41
1
  42
1
  50
0
  71
0
  3
isocp.shx
  0
STYLE
  2
KICADB
  70
0
  40
0
  41
1
  42
1
  50
0
  71
0
  3
isocp.shx
  0
STYLE
  2
KICADI
  70
0
  40
0
  41
1
  42
1
  50
15
  71
0
  3
isocp.shx
  0
STYLE
  2
KICADBI
  70
0
  40
0
  41
1
  42
1
  50
15
  71
0
  3
isocp.shx
  0
ENDTAB
  0
TABLE
  2
LAYER
  70
1
  0
LAYER
  2
BLACK
  70
0
  62
7
  6
CONTINUOUS
  0
ENDTAB
  0
ENDSEC
  0
SECTION
  2
ENTITIES
0
LINE
8
BLACK
6
CONTINUOUS
10
105.789999999999992
20
-44.1319999999999979
11
157.0979999999999848
21
-44.1319999999999979
0
LINE
8
BLACK
6
CONTINUOUS
10
157.0979999999999848
20
-44.1319999999999979
11
157.0979999999999848
21
-115.2519999999999953
0
LINE
8
BLACK
6
CONTINUOUS
10
157.0979999999999848
20
-115.2519999999999953
11
105.789999999999992
21
-115.2519999999999953
0
LINE
8
BLACK
6
CONTINUOUS
10
105.789999999999992
20
-115.2519999999999953
11
105.789999999999992
21
-44.1319999999999979
0
CIRCLE
8
BLACK
10
153.5420000000000016
20
-47.4339999999999975
40
1.703884
0
CIRCLE
8
BLACK
10
109.3459999999999894
20
-47.4339999999999975
40
1.703884
0
CIRCLE
8
BLACK
10
109.3459999999999894
20
-111.9499999999999886
40
1.703884
0
CIRCLE
8
BLACK
10
153.5420000000000016
20
-111.9499999999999886
40
1.7960509999999998
0
LINE
8
BLACK
6
CONTINUOUS
10
136.1517999999999802
20
-87.0006999999999948
11
136.5517999999999859
21
-87.4007000000000005
0
LINE
8
BLACK
6
CONTINUOUS
10
136.5517999999999859
20
-87.0006999999999948
11
136.1517999999999802
21
-87.4007000000000005
0
CIRCLE
8
BLACK
10
151.6380000000000052
20
-70.8288999999999902
40
0.45
0
CIRCLE
8
BLACK
10
151.6380000000000052
20
-74.8804999999999978
40
0.45
0
CIRCLE
8
BLACK
10
151.6380000000000052
20
-78.9321999999999946
40
0.45
0
CIRCLE
8
BLACK
10
151.6380000000000052
20
-82.9838000000000022
40
0.45
0
CIRCLE
8
BLACK
10
151.6380000000000052
20
-87.035499999999999
40
0.45
0
CIRCLE
8
BLACK
10
151.6380000000000052
20
-91.0870999999999924
40
0.45
0
CIRCLE
8
BLACK
10
151.6380000000000052
20
-95.1387
40
0.45
0
CIRCLE
8
BLACK
10
151.6380000000000052
20
-99.1903999999999968
40
0.45
0
CIRCLE
8
BLACK
10
151.6380000000000052
20
-103.2419999999999902
40
0.45
0
CIRCLE
8
BLACK
10
151.8919999999999959
20
-58.6739999999999995
40
0.45
0
CIRCLE
8
BLACK
10
151.8919999999999959
20
-62.7256
40
0.45
0
CIRCLE
8
BLACK
10
151.8919999999999959
20
-66.7772999999999968
40
0.45
0
CIRCLE
8
BLACK
10
154.1779999999999973
20
-70.8288999999999902
40
0.45
0
CIRCLE
8
BLACK
10
154.1779999999999973
20
-74.8804999999999978
40
0.45
0
CIRCLE
8
BLACK
10
154.1779999999999973
20
-78.9321999999999946
40
0.45
0
CIRCLE
8
BLACK
10
154.1779999999999973
20
-82.9838000000000022
40
0.45
0
CIRCLE
8
BLACK
10
154.1779999999999973
20
-87.035499999999999
40
0.45
0
CIRCLE
8
BLACK
10
154.1779999999999973
20
-91.0870999999999924
40
0.45
0
CIRCLE
8
BLACK
10
154.1779999999999973
20
-95.1387
40
0.45
0
CIRCLE
8
BLACK
10
154.1779999999999973
20
-99.1903999999999968
40
0.45
0
CIRCLE
8
BLACK
10
154.1779999999999973
20
-103.2419999999999902
40
0.45
0
CIRCLE
8
BLACK
10
154.4319999999999879
20
-58.6739999999999995
40
0.45
0
CIRCLE
8
BLACK
10
154.4319999999999879
20
-62.7256
40
0.45
0
CIRCLE
8
BLACK
10
154.4319999999999879
20
-66.7772999999999968
40
0.45
0
LINE
8
BLACK
6
CONTINUOUS
10
108.4579999999999984
20
-75.3509999999999991
11
108.4579999999999984
21
-76.5409999999999968
0
LINE
8
BLACK
6
CONTINUOUS
10
107.8629999999999995
20
-75.945999999999998
11
109.0529999999999973
21
-75.945999999999998
0
LINE
8
BLACK
6
CONTINUOUS
10
108.4579999999999984
20
-83.7329999999999899
11
108.4579999999999984
21
-84.9230000000000018
0
LINE
8
BLACK
6
CONTINUOUS
10
107.8629999999999995
20
-84.328000000000003
11
109.0529999999999973
21
-84.328000000000003
0
LINE
8
BLACK
6
CONTINUOUS
10
108.4579999999999984
20
-92.3689999999999998
11
108.4579999999999984
21
-93.5589999999999975
0
LINE
8
BLACK
6
CONTINUOUS
10
107.8629999999999995
20
-92.9639999999999986
11
109.0529999999999973
21
-92.9639999999999986
0
LINE
8
BLACK
6
CONTINUOUS
10
108.4579999999999984
20
-100.7710000000000008
11
108.4579999999999984
21
-101.9609999999999985
0
LINE
8
BLACK
6
CONTINUOUS
10
107.8629999999999995
20
-101.3659999999999997
11
109.0529999999999973
21
-101.3659999999999997
0
LINE
8
BLACK
6
CONTINUOUS
10
110.3900000000000006
20
-63.5150000000000006
11
110.3900000000000006
21
-64.7049999999999983
0
LINE
8
BLACK
6
CONTINUOUS
10
109.7950000000000017
20
-64.1099999999999994
11
110.9849999999999994
21
-64.1099999999999994
0
LINE
8
BLACK
6
CONTINUOUS
10
110.4499999999999886
20
-54.5749999999999957
11
110.4499999999999886
21
-55.7650000000000006
0
LINE
8
BLACK
6
CONTINUOUS
10
109.8549999999999898
20
-55.1699999999999946
11
111.0450000000000017
21
-55.1699999999999946
0
LINE
8
BLACK
6
CONTINUOUS
10
110.9979999999999905
20
-75.3509999999999991
11
110.9979999999999905
21
-76.5409999999999968
0
LINE
8
BLACK
6
CONTINUOUS
10
110.4029999999999916
20
-75.945999999999998
11
111.5929999999999893
21
-75.945999999999998
0
LINE
8
BLACK
6
CONTINUOUS
10
110.9979999999999905
20
-83.7329999999999899
11
110.9979999999999905
21
-84.9230000000000018
0
LINE
8
BLACK
6
CONTINUOUS
10
110.4029999999999916
20
-84.328000000000003
11
111.5929999999999893
21
-84.328000000000003
0
LINE
8
BLACK
6
CONTINUOUS
10
110.9979999999999905
20
-92.3689999999999998
11
110.9979999999999905
21
-93.5589999999999975
0
LINE
8
BLACK
6
CONTINUOUS
10
110.4029999999999916
20
-92.9639999999999986
11
111.5929999999999893
21
-92.9639999999999986
0
LINE
8
BLACK
6
CONTINUOUS
10
110.9979999999999905
20
-100.7710000000000008
11
110.9979999999999905
21
-101.9609999999999985
0
LINE
8
BLACK
6
CONTINUOUS
10
110.4029999999999916
20
-101.3659999999999997
11
111.5929999999999893
21
-101.3659999999999997
0
LINE
8
BLACK
6
CONTINUOUS
10
112.9299999999999926
20
-63.5150000000000006
11
112.9299999999999926
21
-64.7049999999999983
0
LINE
8
BLACK
6
CONTINUOUS
10
112.3349999999999937
20
-64.1099999999999994
11
113.5249999999999915
21
-64.1099999999999994
0
LINE
8
BLACK
6
CONTINUOUS
10
112.9899999999999949
20
-54.5749999999999957
11
112.9899999999999949
21
-55.7650000000000006
0
LINE
8
BLACK
6
CONTINUOUS
10
112.394999999999996
20
-55.1699999999999946
11
113.5849999999999937
21
-55.1699999999999946
0
LINE
8
BLACK
6
CONTINUOUS
10
116.3319999999999936
20
-75.3310000000000031
11
116.3319999999999936
21
-76.5210000000000008
0
LINE
8
BLACK
6
CONTINUOUS
10
115.7369999999999948
20
-75.9260000000000019
11
116.9269999999999925
21
-75.9260000000000019
0
LINE
8
BLACK
6
CONTINUOUS
10
116.3319999999999936
20
-83.7530000000000001
11
116.3319999999999936
21
-84.9429999999999978
0
LINE
8
BLACK
6
CONTINUOUS
10
115.7369999999999948
20
-84.347999999999999
11
116.9269999999999925
21
-84.347999999999999
0
LINE
8
BLACK
6
CONTINUOUS
10
116.3319999999999936
20
-92.3689999999999998
11
116.3319999999999936
21
-93.5589999999999975
0
LINE
8
BLACK
6
CONTINUOUS
10
115.7369999999999948
20
-92.9639999999999986
11
116.9269999999999925
21
-92.9639999999999986
0
LINE
8
BLACK
6
CONTINUOUS
10
116.3319999999999936
20
-100.7710000000000008
11
116.3319999999999936
21
-101.9609999999999985
0
LINE
8
BLACK
6
CONTINUOUS
10
115.7369999999999948
20
-101.3659999999999997
11
116.9269999999999925
21
-101.3659999999999997
0
LINE
8
BLACK
6
CONTINUOUS
10
117.347999999999999
20
-47.8990000000000009
11
117.347999999999999
21
-49.0889999999999986
0
LINE
8
BLACK
6
CONTINUOUS
10
116.7530000000000001
20
-48.4939999999999998
11
117.9429999999999978
21
-48.4939999999999998
0
LINE
8
BLACK
6
CONTINUOUS
10
117.6019999999999897
20
-64.6829999999999927
11
117.6019999999999897
21
-65.8729999999999905
0
LINE
8
BLACK
6
CONTINUOUS
10
117.0069999999999908
20
-65.2779999999999916
11
118.1969999999999885
21
-65.2779999999999916
0
LINE
8
BLACK
6
CONTINUOUS
10
118.8719999999999999
20
-75.3310000000000031
11
118.8719999999999999
21
-76.5210000000000008
0
LINE
8
BLACK
6
CONTINUOUS
10
118.277000000000001
20
-75.9260000000000019
11
119.4669999999999987
21
-75.9260000000000019
0
LINE
8
BLACK
6
CONTINUOUS
10
118.8719999999999999
20
-83.7530000000000001
11
118.8719999999999999
21
-84.9429999999999978
0
LINE
8
BLACK
6
CONTINUOUS
10
118.277000000000001
20
-84.347999999999999
11
119.4669999999999987
21
-84.347999999999999
0
LINE
8
BLACK
6
CONTINUOUS
10
118.8719999999999999
20
-92.3689999999999998
11
118.8719999999999999
21
-93.5589999999999975
0
LINE
8
BLACK
6
CONTINUOUS
10
118.277000000000001
20
-92.9639999999999986
11
119.4669999999999987
21
-92.9639999999999986
0
LINE
8
BLACK
6
CONTINUOUS
10
118.8719999999999999
20
-100.7710000000000008
11
118.8719999999999999
21
-101.9609999999999985
0
LINE
8
BLACK
6
CONTINUOUS
10
118.277000000000001
20
-101.3659999999999997
11
119.4669999999999987
21
-101.3659999999999997
0
LINE
8
BLACK
6
CONTINUOUS
10
119.1259999999999906
20
-109.3870000000000005
11
119.1259999999999906
21
-110.5769999999999982
0
LINE
8
BLACK
6
CONTINUOUS
10
118.5309999999999917
20
-109.9819999999999993
11
119.7209999999999894
21
-109.9819999999999993
0
LINE
8
BLACK
6
CONTINUOUS
10
119.887999999999991
20
-47.8990000000000009
11
119.887999999999991
21
-49.0889999999999986
0
LINE
8
BLACK
6
CONTINUOUS
10
119.2929999999999922
20
-48.4939999999999998
11
120.4829999999999899
21
-48.4939999999999998
0
LINE
8
BLACK
6
CONTINUOUS
10
120.1419999999999959
20
-64.6829999999999927
11
120.1419999999999959
21
-65.8729999999999905
0
LINE
8
BLACK
6
CONTINUOUS
10
119.546999999999997
20
-65.2779999999999916
11
120.7369999999999948
21
-65.2779999999999916
0
LINE
8
BLACK
6
CONTINUOUS
10
121.6659999999999968
20
-109.3870000000000005
11
121.6659999999999968
21
-110.5769999999999982
0
LINE
8
BLACK
6
CONTINUOUS
10
121.070999999999998
20
-109.9819999999999993
11
122.2609999999999957
21
-109.9819999999999993
0
LINE
8
BLACK
6
CONTINUOUS
10
122.6819999999999879
20
-64.6829999999999927
11
122.6819999999999879
21
-65.8729999999999905
0
LINE
8
BLACK
6
CONTINUOUS
10
122.0869999999999891
20
-65.2779999999999916
11
123.277000000000001
21
-65.2779999999999916
0
LINE
8
BLACK
6
CONTINUOUS
10
124.4599999999999937
20
-47.8990000000000009
11
124.4599999999999937
21
-49.0889999999999986
0
LINE
8
BLACK
6
CONTINUOUS
10
123.8649999999999949
20
-48.4939999999999998
11
125.0549999999999926
21
-48.4939999999999998
0
LINE
8
BLACK
6
CONTINUOUS
10
124.4599999999999937
20
-56.320999999999998
11
124.4599999999999937
21
-57.5109999999999957
0
LINE
8
BLACK
6
CONTINUOUS
10
123.8649999999999949
20
-56.9159999999999968
11
125.0549999999999926
21
-56.9159999999999968
0
LINE
8
BLACK
6
CONTINUOUS
10
124.7139999999999986
20
-75.3509999999999991
11
124.7139999999999986
21
-76.5409999999999968
0
LINE
8
BLACK
6
CONTINUOUS
10
124.1189999999999998
20
-75.945999999999998
11
125.3089999999999975
21
-75.945999999999998
0
LINE
8
BLACK
6
CONTINUOUS
10
124.7139999999999986
20
-92.3689999999999998
11
124.7139999999999986
21
-93.5589999999999975
0
LINE
8
BLACK
6
CONTINUOUS
10
124.1189999999999998
20
-92.9639999999999986
11
125.3089999999999975
21
-92.9639999999999986
0
LINE
8
BLACK
6
CONTINUOUS
10
124.7139999999999986
20
-100.7710000000000008
11
124.7139999999999986
21
-101.9609999999999985
0
LINE
8
BLACK
6
CONTINUOUS
10
124.1189999999999998
20
-101.3659999999999997
11
125.3089999999999975
21
-101.3659999999999997
0
LINE
8
BLACK
6
CONTINUOUS
10
125.2219999999999942
20
-64.6829999999999927
11
125.2219999999999942
21
-65.8729999999999905
0
LINE
8
BLACK
6
CONTINUOUS
10
124.6269999999999953
20
-65.2779999999999916
11
125.8169999999999931
21
-65.2779999999999916
0
LINE
8
BLACK
6
CONTINUOUS
10
127.
20
-47.8990000000000009
11
127.
21
-49.0889999999999986
0
LINE
8
BLACK
6
CONTINUOUS
10
126.4050000000000011
20
-48.4939999999999998
11
127.5949999999999989
21
-48.4939999999999998
0
LINE
8
BLACK
6
CONTINUOUS
10
127.
20
-56.320999999999998
11
127.
21
-57.5109999999999957
0
LINE
8
BLACK
6
CONTINUOUS
10
126.4050000000000011
20
-56.9159999999999968
11
127.5949999999999989
21
-56.9159999999999968
0
LINE
8
BLACK
6
CONTINUOUS
10
127.2539999999999907
20
-75.3509999999999991
11
127.2539999999999907
21
-76.5409999999999968
0
LINE
8
BLACK
6
CONTINUOUS
10
126.6589999999999918
20
-75.945999999999998
11
127.8489999999999895
21
-75.945999999999998
0
LINE
8
BLACK
6
CONTINUOUS
10
127.2539999999999907
20
-92.3689999999999998
11
127.2539999999999907
21
-93.5589999999999975
0
LINE
8
BLACK
6
CONTINUOUS
10
126.6589999999999918
20
-92.9639999999999986
11
127.8489999999999895
21
-92.9639999999999986
0
LINE
8
BLACK
6
CONTINUOUS
10
127.2539999999999907
20
-100.7710000000000008
11
127.2539999999999907
21
-101.9609999999999985
0
LINE
8
BLACK
6
CONTINUOUS
10
126.6589999999999918
20
-101.3659999999999997
11
127.8489999999999895
21
-101.3659999999999997
0
LINE
8
BLACK
6
CONTINUOUS
10
127.2539999999999907
20
-109.3669999999999902
11
127.2539999999999907
21
-110.5569999999999879
0
LINE
8
BLACK
6
CONTINUOUS
10
126.6589999999999918
20
-109.9619999999999891
11
127.8489999999999895
21
-109.9619999999999891
0
LINE
8
BLACK
6
CONTINUOUS
10
127.7620000000000005
20
-64.6829999999999927
11
127.7620000000000005
21
-65.8729999999999905
0
LINE
8
BLACK
6
CONTINUOUS
10
127.1669999999999874
20
-65.2779999999999916
11
128.3569999999999993
21
-65.2779999999999916
0
LINE
8
BLACK
6
CONTINUOUS
10
129.7939999999999827
20
-109.3669999999999902
11
129.7939999999999827
21
-110.5569999999999879
0
LINE
8
BLACK
6
CONTINUOUS
10
129.1989999999999839
20
-109.9619999999999891
11
130.3889999999999816
21
-109.9619999999999891
0
LINE
8
BLACK
6
CONTINUOUS
10
130.3019999999999925
20
-64.6829999999999927
11
130.3019999999999925
21
-65.8729999999999905
0
LINE
8
BLACK
6
CONTINUOUS
10
129.7069999999999936
20
-65.2779999999999916
11
130.8969999999999914
21
-65.2779999999999916
0
LINE
8
BLACK
6
CONTINUOUS
10
131.8259999999999934
20
-47.8990000000000009
11
131.8259999999999934
21
-49.0889999999999986
0
LINE
8
BLACK
6
CONTINUOUS
10
131.2309999999999945
20
-48.4939999999999998
11
132.4209999999999923
21
-48.4939999999999998
0
LINE
8
BLACK
6
CONTINUOUS
10
131.8259999999999934
20
-56.320999999999998
11
131.8259999999999934
21
-57.5109999999999957
0
LINE
8
BLACK
6
CONTINUOUS
10
131.2309999999999945
20
-56.9159999999999968
11
132.4209999999999923
21
-56.9159999999999968
0
LINE
8
BLACK
6
CONTINUOUS
10
132.3340000000000032
20
-109.3669999999999902
11
132.3340000000000032
21
-110.5569999999999879
0
LINE
8
BLACK
6
CONTINUOUS
10
131.7390000000000043
20
-109.9619999999999891
11
132.929000000000002
21
-109.9619999999999891
0
LINE
8
BLACK
6
CONTINUOUS
10
133.0960000000000036
20
-75.3509999999999991
11
133.0960000000000036
21
-76.5409999999999968
0
LINE
8
BLACK
6
CONTINUOUS
10
132.5010000000000048
20
-75.945999999999998
11
133.6910000000000025
21
-75.945999999999998
0
LINE
8
BLACK
6
CONTINUOUS
10
133.0960000000000036
20
-83.7530000000000001
11
133.0960000000000036
21
-84.9429999999999978
0
LINE
8
BLACK
6
CONTINUOUS
10
132.5010000000000048
20
-84.347999999999999
11
133.6910000000000025
21
-84.347999999999999
0
LINE
8
BLACK
6
CONTINUOUS
10
133.0960000000000036
20
-92.3689999999999998
11
133.0960000000000036
21
-93.5589999999999975
0
LINE
8
BLACK
6
CONTINUOUS
10
132.5010000000000048
20
-92.9639999999999986
11
133.6910000000000025
21
-92.9639999999999986
0
LINE
8
BLACK
6
CONTINUOUS
10
133.0960000000000036
20
-100.7509999999999906
11
133.0960000000000036
21
-101.9409999999999883
0
LINE
8
BLACK
6
CONTINUOUS
10
132.5010000000000048
20
-101.3459999999999894
11
133.6910000000000025
21
-101.3459999999999894
0
LINE
8
BLACK
6
CONTINUOUS
10
134.1119999999999948
20
-64.6829999999999927
11
134.1119999999999948
21
-65.8729999999999905
0
LINE
8
BLACK
6
CONTINUOUS
10
133.5169999999999959
20
-65.2779999999999916
11
134.7069999999999936
21
-65.2779999999999916
0
LINE
8
BLACK
6
CONTINUOUS
10
134.3659999999999854
20
-47.8990000000000009
11
134.3659999999999854
21
-49.0889999999999986
0
LINE
8
BLACK
6
CONTINUOUS
10
133.7709999999999866
20
-48.4939999999999998
11
134.9609999999999843
21
-48.4939999999999998
0
LINE
8
BLACK
6
CONTINUOUS
10
134.3659999999999854
20
-56.320999999999998
11
134.3659999999999854
21
-57.5109999999999957
0
LINE
8
BLACK
6
CONTINUOUS
10
133.7709999999999866
20
-56.9159999999999968
11
134.9609999999999843
21
-56.9159999999999968
0
LINE
8
BLACK
6
CONTINUOUS
10
135.6359999999999957
20
-75.3509999999999991
11
135.6359999999999957
21
-76.5409999999999968
0
LINE
8
BLACK
6
CONTINUOUS
10
135.0409999999999968
20
-75.945999999999998
11
136.2309999999999945
21
-75.945999999999998
0
LINE
8
BLACK
6
CONTINUOUS
10
135.6359999999999957
20
-83.7530000000000001
11
135.6359999999999957
21
-84.9429999999999978
0
LINE
8
BLACK
6
CONTINUOUS
10
135.0409999999999968
20
-84.347999999999999
11
136.2309999999999945
21
-84.347999999999999
0
LINE
8
BLACK
6
CONTINUOUS
10
135.6359999999999957
20
-92.3689999999999998
11
135.6359999999999957
21
-93.5589999999999975
0
LINE
8
BLACK
6
CONTINUOUS
10
135.0409999999999968
20
-92.9639999999999986
11
136.2309999999999945
21
-92.9639999999999986
0
LINE
8
BLACK
6
CONTINUOUS
10
135.6359999999999957
20
-100.7509999999999906
11
135.6359999999999957
21
-101.9409999999999883
0
LINE
8
BLACK
6
CONTINUOUS
10
135.0409999999999968
20
-101.3459999999999894
11
136.2309999999999945
21
-101.3459999999999894
0
LINE
8
BLACK
6
CONTINUOUS
10
136.6519999999999868
20
-64.6829999999999927
11
136.6519999999999868
21
-65.8729999999999905
0
LINE
8
BLACK
6
CONTINUOUS
10
136.0569999999999879
20
-65.2779999999999916
11
137.2469999999999857
21
-65.2779999999999916
0
LINE
8
BLACK
6
CONTINUOUS
10
138.1759999999999877
20
-109.3870000000000005
11
138.1759999999999877
21
-110.5769999999999982
0
LINE
8
BLACK
6
CONTINUOUS
10
137.5809999999999889
20
-109.9819999999999993
11
138.7709999999999866
21
-109.9819999999999993
0
LINE
8
BLACK
6
CONTINUOUS
10
139.1920000000000073
20
-64.6829999999999927
11
139.1920000000000073
21
-65.8729999999999905
0
LINE
8
BLACK
6
CONTINUOUS
10
138.59699999999998
20
-65.2779999999999916
11
139.7870000000000061
21
-65.2779999999999916
0
LINE
8
BLACK
6
CONTINUOUS
10
140.7159999999999798
20
-109.3870000000000005
11
140.7159999999999798
21
-110.5769999999999982
0
LINE
8
BLACK
6
CONTINUOUS
10
140.1209999999999809
20
-109.9819999999999993
11
141.311000000000007
21
-109.9819999999999993
0
LINE
8
BLACK
6
CONTINUOUS
10
141.7319999999999993
20
-47.9189999999999969
11
141.7319999999999993
21
-49.1089999999999947
0
LINE
8
BLACK
6
CONTINUOUS
10
141.1370000000000005
20
-48.5139999999999958
11
142.3269999999999982
21
-48.5139999999999958
0
LINE
8
BLACK
6
CONTINUOUS
10
141.7319999999999993
20
-56.320999999999998
11
141.7319999999999993
21
-57.5109999999999957
0
LINE
8
BLACK
6
CONTINUOUS
10
141.1370000000000005
20
-56.9159999999999968
11
142.3269999999999982
21
-56.9159999999999968
0
LINE
8
BLACK
6
CONTINUOUS
10
141.7319999999999993
20
-64.6829999999999927
11
141.7319999999999993
21
-65.8729999999999905
0
LINE
8
BLACK
6
CONTINUOUS
10
141.1370000000000005
20
-65.2779999999999916
11
142.3269999999999982
21
-65.2779999999999916
0
LINE
8
BLACK
6
CONTINUOUS
10
142.7479999999999905
20
-74.0810000000000031
11
142.7479999999999905
21
-75.2710000000000008
0
LINE
8
BLACK
6
CONTINUOUS
10
142.1529999999999916
20
-74.6760000000000019
11
143.3429999999999893
21
-74.6760000000000019
0
LINE
8
BLACK
6
CONTINUOUS
10
142.7479999999999905
20
-76.6209999999999951
11
142.7479999999999905
21
-77.8109999999999928
0
LINE
8
BLACK
6
CONTINUOUS
10
142.1529999999999916
20
-77.215999999999994
11
143.3429999999999893
21
-77.215999999999994
0
LINE
8
BLACK
6
CONTINUOUS
10
142.7479999999999905
20
-79.1610000000000014
11
142.7479999999999905
21
-80.3509999999999991
0
LINE
8
BLACK
6
CONTINUOUS
10
142.1529999999999916
20
-79.7560000000000002
11
143.3429999999999893
21
-79.7560000000000002
0
LINE
8
BLACK
6
CONTINUOUS
10
142.7479999999999905
20
-81.7009999999999934
11
142.7479999999999905
21
-82.8909999999999911
0
LINE
8
BLACK
6
CONTINUOUS
10
142.1529999999999916
20
-82.2959999999999923
11
143.3429999999999893
21
-82.2959999999999923
0
LINE
8
BLACK
6
CONTINUOUS
10
142.7479999999999905
20
-84.2409999999999997
11
142.7479999999999905
21
-85.4309999999999974
0
LINE
8
BLACK
6
CONTINUOUS
10
142.1529999999999916
20
-84.8359999999999985
11
143.3429999999999893
21
-84.8359999999999985
0
LINE
8
BLACK
6
CONTINUOUS
10
142.7479999999999905
20
-86.7809999999999917
11
142.7479999999999905
21
-87.9709999999999894
0
LINE
8
BLACK
6
CONTINUOUS
10
142.1529999999999916
20
-87.3759999999999906
11
143.3429999999999893
21
-87.3759999999999906
0
LINE
8
BLACK
6
CONTINUOUS
10
142.7479999999999905
20
-89.320999999999998
11
142.7479999999999905
21
-90.5109999999999957
0
LINE
8
BLACK
6
CONTINUOUS
10
142.1529999999999916
20
-89.9159999999999968
11
143.3429999999999893
21
-89.9159999999999968
0
LINE
8
BLACK
6
CONTINUOUS
10
142.7479999999999905
20
-91.86099999999999
11
142.7479999999999905
21
-93.0510000000000019
0
LINE
8
BLACK
6
CONTINUOUS
10
142.1529999999999916
20
-92.4559999999999889
11
143.3429999999999893
21
-92.4559999999999889
0
LINE
8
BLACK
6
CONTINUOUS
10
144.2719999999999914
20
-47.9189999999999969
11
144.2719999999999914
21
-49.1089999999999947
0
LINE
8
BLACK
6
CONTINUOUS
10
143.6769999999999925
20
-48.5139999999999958
11
144.8669999999999902
21
-48.5139999999999958
0
LINE
8
BLACK
6
CONTINUOUS
10
144.2719999999999914
20
-56.320999999999998
11
144.2719999999999914
21
-57.5109999999999957
0
LINE
8
BLACK
6
CONTINUOUS
10
143.6769999999999925
20
-56.9159999999999968
11
144.8669999999999902
21
-56.9159999999999968
0
LINE
8
BLACK
6
CONTINUOUS
10
144.2719999999999914
20
-64.6829999999999927
11
144.2719999999999914
21
-65.8729999999999905
0
LINE
8
BLACK
6
CONTINUOUS
10
143.6769999999999925
20
-65.2779999999999916
11
144.8669999999999902
21
-65.2779999999999916
0
LINE
8
BLACK
6
CONTINUOUS
10
146.8119999999999834
20
-64.6829999999999927
11
146.8119999999999834
21
-65.8729999999999905
0
LINE
8
BLACK
6
CONTINUOUS
10
146.2169999999999845
20
-65.2779999999999916
11
147.4069999999999823
21
-65.2779999999999916
0
LINE
8
BLACK
6
CONTINUOUS
10
108.3477680000000021
20
-118.4168379999999985
11
108.3477680000000021
21
-116.4168379999999985
0
LINE
8
BLACK
6
CONTINUOUS
10
108.3477680000000021
20
-116.4168379999999985
11
108.8239579999999904
21
-116.4168379999999985
0
LINE
8
BLACK
6
CONTINUOUS
10
108.8239579999999904
20
-116.4168379999999985
11
109.1096730000000008
21
-116.5120759999999933
0
LINE
8
BLACK
6
CONTINUOUS
10
109.1096730000000008
20
-116.5120759999999933
11
109.3001489999999905
21
-116.7025519999999972
0
LINE
8
BLACK
6
CONTINUOUS
10
109.3001489999999905
20
-116.7025519999999972
11
109.3953869999999995
21
-116.893028000000001
0
LINE
8
BLACK
6
CONTINUOUS
10
109.3953869999999995
20
-116.893028000000001
11
109.4906249999999943
21
-117.2739799999999946
0
LINE
8
BLACK
6
CONTINUOUS
10
109.4906249999999943
20
-117.2739799999999946
11
109.4906249999999943
21
-117.5596949999999907
0
LINE
8
BLACK
6
CONTINUOUS
10
109.4906249999999943
20
-117.5596949999999907
11
109.3953869999999995
21
-117.9406469999999985
0
LINE
8
BLACK
6
CONTINUOUS
10
109.3953869999999995
20
-117.9406469999999985
11
109.3001489999999905
21
-118.1311229999999881
0
LINE
8
BLACK
6
CONTINUOUS
10
109.3001489999999905
20
-118.1311229999999881
11
109.1096730000000008
21
-118.3215999999999894
0
LINE
8
BLACK
6
CONTINUOUS
10
109.1096730000000008
20
-118.3215999999999894
11
108.8239579999999904
21
-118.4168379999999985
0
LINE
8
BLACK
6
CONTINUOUS
10
108.8239579999999904
20
-118.4168379999999985
11
108.3477680000000021
21
-118.4168379999999985
0
LINE
8
BLACK
6
CONTINUOUS
10
110.3477680000000021
20
-118.4168379999999985
11
110.3477680000000021
21
-117.0835039999999907
0
LINE
8
BLACK
6
CONTINUOUS
10
110.3477680000000021
20
-117.4644569999999959
11
110.4430059999999969
21
-117.2739799999999946
0
LINE
8
BLACK
6
CONTINUOUS
10
110.4430059999999969
20
-117.2739799999999946
11
110.5382439999999917
21
-117.1787419999999997
0
LINE
8
BLACK
6
CONTINUOUS
10
110.5382439999999917
20
-117.1787419999999997
11
110.7287199999999956
21
-117.0835039999999907
0
LINE
8
BLACK
6
CONTINUOUS
10
110.7287199999999956
20
-117.0835039999999907
11
110.9191969999999969
21
-117.0835039999999907
0
LINE
8
BLACK
6
CONTINUOUS
10
111.5858629999999891
20
-118.4168379999999985
11
111.5858629999999891
21
-117.0835039999999907
0
LINE
8
BLACK
6
CONTINUOUS
10
111.5858629999999891
20
-116.4168379999999985
11
111.4906249999999943
21
-116.5120759999999933
0
LINE
8
BLACK
6
CONTINUOUS
10
111.4906249999999943
20
-116.5120759999999933
11
111.5858629999999891
21
-116.6073139999999881
0
LINE
8
BLACK
6
CONTINUOUS
10
111.5858629999999891
20
-116.6073139999999881
11
111.6811009999999982
21
-116.5120759999999933
0
LINE
8
BLACK
6
CONTINUOUS
10
111.6811009999999982
20
-116.5120759999999933
11
111.5858629999999891
21
-116.4168379999999985
0
LINE
8
BLACK
6
CONTINUOUS
10
111.5858629999999891
20
-116.4168379999999985
11
111.5858629999999891
21
-116.6073139999999881
0
LINE
8
BLACK
6
CONTINUOUS
10
112.8239579999999904
20
-118.4168379999999985
11
112.6334820000000008
21
-118.3215999999999894
0
LINE
8
BLACK
6
CONTINUOUS
10
112.6334820000000008
20
-118.3215999999999894
11
112.5382439999999917
21
-118.1311229999999881
0
LINE
8
BLACK
6
CONTINUOUS
10
112.5382439999999917
20
-118.1311229999999881
11
112.5382439999999917
21
-116.4168379999999985
0
LINE
8
BLACK
6
CONTINUOUS
10
113.8715769999999878
20
-118.4168379999999985
11
113.6811009999999982
21
-118.3215999999999894
0
LINE
8
BLACK
6
CONTINUOUS
10
113.6811009999999982
20
-118.3215999999999894
11
113.5858629999999891
21
-118.1311229999999881
0
LINE
8
BLACK
6
CONTINUOUS
10
113.5858629999999891
20
-118.1311229999999881
11
113.5858629999999891
21
-116.4168379999999985
0
LINE
8
BLACK
6
CONTINUOUS
10
116.1572919999999982
20
-118.4168379999999985
11
116.1572919999999982
21
-116.4168379999999985
0
LINE
8
BLACK
6
CONTINUOUS
10
116.1572919999999982
20
-116.4168379999999985
11
116.8239589999999879
21
-117.8454089999999894
0
LINE
8
BLACK
6
CONTINUOUS
10
116.8239589999999879
20
-117.8454089999999894
11
117.4906249999999943
21
-116.4168379999999985
0
LINE
8
BLACK
6
CONTINUOUS
10
117.4906249999999943
20
-116.4168379999999985
11
117.4906249999999943
21
-118.4168379999999985
0
LINE
8
BLACK
6
CONTINUOUS
10
119.3001489999999905
20
-118.4168379999999985
11
119.3001489999999905
21
-117.3692190000000011
0
LINE
8
BLACK
6
CONTINUOUS
10
119.3001489999999905
20
-117.3692190000000011
11
119.2049109999999956
21
-117.1787419999999997
0
LINE
8
BLACK
6
CONTINUOUS
10
119.2049109999999956
20
-117.1787419999999997
11
119.0144349999999918
21
-117.0835039999999907
0
LINE
8
BLACK
6
CONTINUOUS
10
119.0144349999999918
20
-117.0835039999999907
11
118.6334820000000008
21
-117.0835039999999907
0
LINE
8
BLACK
6
CONTINUOUS
10
118.6334820000000008
20
-117.0835039999999907
11
118.4430059999999969
21
-117.1787419999999997
0
LINE
8
BLACK
6
CONTINUOUS
10
119.3001489999999905
20
-118.3215999999999894
11
119.1096730000000008
21
-118.4168379999999985
0
LINE
8
BLACK
6
CONTINUOUS
10
119.1096730000000008
20
-118.4168379999999985
11
118.6334820000000008
21
-118.4168379999999985
0
LINE
8
BLACK
6
CONTINUOUS
10
118.6334820000000008
20
-118.4168379999999985
11
118.4430059999999969
21
-118.3215999999999894
0
LINE
8
BLACK
6
CONTINUOUS
10
118.4430059999999969
20
-118.3215999999999894
11
118.3477679999999879
21
-118.1311229999999881
0
LINE
8
BLACK
6
CONTINUOUS
10
118.3477679999999879
20
-118.1311229999999881
11
118.3477679999999879
21
-117.9406469999999985
0
LINE
8
BLACK
6
CONTINUOUS
10
118.3477679999999879
20
-117.9406469999999985
11
118.4430059999999969
21
-117.7501709999999946
0
LINE
8
BLACK
6
CONTINUOUS
10
118.4430059999999969
20
-117.7501709999999946
11
118.6334820000000008
21
-117.6549329999999998
0
LINE
8
BLACK
6
CONTINUOUS
10
118.6334820000000008
20
-117.6549329999999998
11
119.1096730000000008
21
-117.6549329999999998
0
LINE
8
BLACK
6
CONTINUOUS
10
119.1096730000000008
20
-117.6549329999999998
11
119.3001489999999905
21
-117.5596949999999907
0
LINE
8
BLACK
6
CONTINUOUS
10
120.252529999999993
20
-117.0835039999999907
11
120.252529999999993
21
-119.0835039999999907
0
LINE
8
BLACK
6
CONTINUOUS
10
120.252529999999993
20
-117.1787419999999997
11
120.4430059999999969
21
-117.0835039999999907
0
LINE
8
BLACK
6
CONTINUOUS
10
120.4430059999999969
20
-117.0835039999999907
11
120.8239589999999879
21
-117.0835039999999907
0
LINE
8
BLACK
6
CONTINUOUS
10
120.8239589999999879
20
-117.0835039999999907
11
121.0144349999999918
21
-117.1787419999999997
0
LINE
8
BLACK
6
CONTINUOUS
10
121.0144349999999918
20
-117.1787419999999997
11
121.1096730000000008
21
-117.2739799999999946
0
LINE
8
BLACK
6
CONTINUOUS
10
121.1096730000000008
20
-117.2739799999999946
11
121.2049109999999956
21
-117.4644569999999959
0
LINE
8
BLACK
6
CONTINUOUS
10
121.2049109999999956
20
-117.4644569999999959
11
121.2049109999999956
21
-118.0358849999999933
0
LINE
8
BLACK
6
CONTINUOUS
10
121.2049109999999956
20
-118.0358849999999933
11
121.1096730000000008
21
-118.2263609999999971
0
LINE
8
BLACK
6
CONTINUOUS
10
121.1096730000000008
20
-118.2263609999999971
11
121.0144349999999918
21
-118.3215999999999894
0
LINE
8
BLACK
6
CONTINUOUS
10
121.0144349999999918
20
-118.3215999999999894
11
120.8239589999999879
21
-118.4168379999999985
0
LINE
8
BLACK
6
CONTINUOUS
10
120.8239589999999879
20
-118.4168379999999985
11
120.4430059999999969
21
-118.4168379999999985
0
LINE
8
BLACK
6
CONTINUOUS
10
120.4430059999999969
20
-118.4168379999999985
11
120.252529999999993
21
-118.3215999999999894
0
LINE
8
BLACK
6
CONTINUOUS
10
122.0620539999999892
20
-118.2263609999999971
11
122.1572919999999982
21
-118.3215999999999894
0
LINE
8
BLACK
6
CONTINUOUS
10
122.1572919999999982
20
-118.3215999999999894
11
122.0620539999999892
21
-118.4168379999999985
0
LINE
8
BLACK
6
CONTINUOUS
10
122.0620539999999892
20
-118.4168379999999985
11
121.9668159999999943
21
-118.3215999999999894
0
LINE
8
BLACK
6
CONTINUOUS
10
121.9668159999999943
20
-118.3215999999999894
11
122.0620539999999892
21
-118.2263609999999971
0
LINE
8
BLACK
6
CONTINUOUS
10
122.0620539999999892
20
-118.2263609999999971
11
122.0620539999999892
21
-118.4168379999999985
0
LINE
8
BLACK
6
CONTINUOUS
10
122.0620539999999892
20
-117.1787419999999997
11
122.1572919999999982
21
-117.2739799999999946
0
LINE
8
BLACK
6
CONTINUOUS
10
122.1572919999999982
20
-117.2739799999999946
11
122.0620539999999892
21
-117.3692190000000011
0
LINE
8
BLACK
6
CONTINUOUS
10
122.0620539999999892
20
-117.3692190000000011
11
121.9668159999999943
21
-117.2739799999999946
0
LINE
8
BLACK
6
CONTINUOUS
10
121.9668159999999943
20
-117.2739799999999946
11
122.0620539999999892
21
-117.1787419999999997
0
LINE
8
BLACK
6
CONTINUOUS
10
122.0620539999999892
20
-117.1787419999999997
11
122.0620539999999892
21
-117.3692190000000011
0
LINE
8
BLACK
6
CONTINUOUS
10
105.3399999999999892
20
-121.5019999999999953
11
105.7399999999999949
21
-121.902000000000001
0
LINE
8
BLACK
6
CONTINUOUS
10
105.7399999999999949
20
-121.5019999999999953
11
105.3399999999999892
21
-121.902000000000001
0
LINE
8
BLACK
6
CONTINUOUS
10
108.7287199999999956
20
-120.6168380000000013
11
108.9191969999999969
21
-120.6168380000000013
0
LINE
8
BLACK
6
CONTINUOUS
10
108.9191969999999969
20
-120.6168380000000013
11
109.1096730000000008
21
-120.7120759999999962
0
LINE
8
BLACK
6
CONTINUOUS
10
109.1096730000000008
20
-120.7120759999999962
11
109.2049109999999956
21
-120.807313999999991
0
LINE
8
BLACK
6
CONTINUOUS
10
109.2049109999999956
20
-120.807313999999991
11
109.3001489999999905
21
-120.9977899999999948
0
LINE
8
BLACK
6
CONTINUOUS
10
109.3001489999999905
20
-120.9977899999999948
11
109.3953869999999995
21
-121.3787419999999884
0
LINE
8
BLACK
6
CONTINUOUS
10
109.3953869999999995
20
-121.3787419999999884
11
109.3953869999999995
21
-121.8549329999999884
0
LINE
8
BLACK
6
CONTINUOUS
10
109.3953869999999995
20
-121.8549329999999884
11
109.3001489999999905
21
-122.2358849999999961
0
LINE
8
BLACK
6
CONTINUOUS
10
109.3001489999999905
20
-122.2358849999999961
11
109.2049109999999956
21
-122.426361
0
LINE
8
BLACK
6
CONTINUOUS
10
109.2049109999999956
20
-122.426361
11
109.1096730000000008
21
-122.5215999999999923
0
LINE
8
BLACK
6
CONTINUOUS
10
109.1096730000000008
20
-122.5215999999999923
11
108.9191969999999969
21
-122.6168380000000013
0
LINE
8
BLACK
6
CONTINUOUS
10
108.9191969999999969
20
-122.6168380000000013
11
108.7287199999999956
21
-122.6168380000000013
0
LINE
8
BLACK
6
CONTINUOUS
10
108.7287199999999956
20
-122.6168380000000013
11
108.5382439999999917
21
-122.5215999999999923
0
LINE
8
BLACK
6
CONTINUOUS
10
108.5382439999999917
20
-122.5215999999999923
11
108.4430059999999969
21
-122.426361
0
LINE
8
BLACK
6
CONTINUOUS
10
108.4430059999999969
20
-122.426361
11
108.3477680000000021
21
-122.2358849999999961
0
LINE
8
BLACK
6
CONTINUOUS
10
108.3477680000000021
20
-122.2358849999999961
11
108.252529999999993
21
-121.8549329999999884
0
LINE
8
BLACK
6
CONTINUOUS
10
108.252529999999993
20
-121.8549329999999884
11
108.252529999999993
21
-121.3787419999999884
0
LINE
8
BLACK
6
CONTINUOUS
10
108.252529999999993
20
-121.3787419999999884
11
108.3477680000000021
21
-120.9977899999999948
0
LINE
8
BLACK
6
CONTINUOUS
10
108.3477680000000021
20
-120.9977899999999948
11
108.4430059999999969
21
-120.807313999999991
0
LINE
8
BLACK
6
CONTINUOUS
10
108.4430059999999969
20
-120.807313999999991
11
108.5382439999999917
21
-120.7120759999999962
0
LINE
8
BLACK
6
CONTINUOUS
10
108.5382439999999917
20
-120.7120759999999962
11
108.7287199999999956
21
-120.6168380000000013
0
LINE
8
BLACK
6
CONTINUOUS
10
110.252529999999993
20
-122.426361
11
110.3477680000000021
21
-122.5215999999999923
0
LINE
8
BLACK
6
CONTINUOUS
10
110.3477680000000021
20
-122.5215999999999923
11
110.252529999999993
21
-122.6168380000000013
0
LINE
8
BLACK
6
CONTINUOUS
10
110.252529999999993
20
-122.6168380000000013
11
110.1572919999999982
21
-122.5215999999999923
0
LINE
8
BLACK
6
CONTINUOUS
10
110.1572919999999982
20
-122.5215999999999923
11
110.252529999999993
21
-122.426361
0
LINE
8
BLACK
6
CONTINUOUS
10
110.252529999999993
20
-122.426361
11
110.252529999999993
21
-122.6168380000000013
0
LINE
8
BLACK
6
CONTINUOUS
10
112.0620539999999892
20
-121.2835039999999935
11
112.0620539999999892
21
-122.6168380000000013
0
LINE
8
BLACK
6
CONTINUOUS
10
111.5858629999999891
20
-120.5215999999999923
11
111.1096730000000008
21
-121.9501709999999974
0
LINE
8
BLACK
6
CONTINUOUS
10
111.1096730000000008
20
-121.9501709999999974
11
112.3477679999999879
21
-121.9501709999999974
0
LINE
8
BLACK
6
CONTINUOUS
10
113.4906249999999943
20
-120.6168380000000013
11
113.6811019999999957
21
-120.6168380000000013
0
LINE
8
BLACK
6
CONTINUOUS
10
113.6811019999999957
20
-120.6168380000000013
11
113.8715779999999995
21
-120.7120759999999962
0
LINE
8
BLACK
6
CONTINUOUS
10
113.8715779999999995
20
-120.7120759999999962
11
113.9668159999999943
21
-120.807313999999991
0
LINE
8
BLACK
6
CONTINUOUS
10
113.9668159999999943
20
-120.807313999999991
11
114.0620539999999892
21
-120.9977899999999948
0
LINE
8
BLACK
6
CONTINUOUS
10
114.0620539999999892
20
-120.9977899999999948
11
114.1572919999999982
21
-121.3787419999999884
0
LINE
8
BLACK
6
CONTINUOUS
10
114.1572919999999982
20
-121.3787419999999884
11
114.1572919999999982
21
-121.8549329999999884
0
LINE
8
BLACK
6
CONTINUOUS
10
114.1572919999999982
20
-121.8549329999999884
11
114.0620539999999892
21
-122.2358849999999961
0
LINE
8
BLACK
6
CONTINUOUS
10
114.0620539999999892
20
-122.2358849999999961
11
113.9668159999999943
21
-122.426361
0
LINE
8
BLACK
6
CONTINUOUS
10
113.9668159999999943
20
-122.426361
11
113.8715779999999995
21
-122.5215999999999923
0
LINE
8
BLACK
6
CONTINUOUS
10
113.8715779999999995
20
-122.5215999999999923
11
113.6811019999999957
21
-122.6168380000000013
0
LINE
8
BLACK
6
CONTINUOUS
10
113.6811019999999957
20
-122.6168380000000013
11
113.4906249999999943
21
-122.6168380000000013
0
LINE
8
BLACK
6
CONTINUOUS
10
113.4906249999999943
20
-122.6168380000000013
11
113.3001489999999905
21
-122.5215999999999923
0
LINE
8
BLACK
6
CONTINUOUS
10
113.3001489999999905
20
-122.5215999999999923
11
113.2049109999999956
21
-122.426361
0
LINE
8
BLACK
6
CONTINUOUS
10
113.2049109999999956
20
-122.426361
11
113.1096730000000008
21
-122.2358849999999961
0
LINE
8
BLACK
6
CONTINUOUS
10
113.1096730000000008
20
-122.2358849999999961
11
113.0144349999999918
21
-121.8549329999999884
0
LINE
8
BLACK
6
CONTINUOUS
10
113.0144349999999918
20
-121.8549329999999884
11
113.0144349999999918
21
-121.3787419999999884
0
LINE
8
BLACK
6
CONTINUOUS
10
113.0144349999999918
20
-121.3787419999999884
11
113.1096730000000008
21
-120.9977899999999948
0
LINE
8
BLACK
6
CONTINUOUS
10
113.1096730000000008
20
-120.9977899999999948
11
113.2049109999999956
21
-120.807313999999991
0
LINE
8
BLACK
6
CONTINUOUS
10
113.2049109999999956
20
-120.807313999999991
11
113.3001489999999905
21
-120.7120759999999962
0
LINE
8
BLACK
6
CONTINUOUS
10
113.3001489999999905
20
-120.7120759999999962
11
113.4906249999999943
21
-120.6168380000000013
0
LINE
8
BLACK
6
CONTINUOUS
10
115.3953869999999995
20
-120.6168380000000013
11
115.5858640000000008
21
-120.6168380000000013
0
LINE
8
BLACK
6
CONTINUOUS
10
115.5858640000000008
20
-120.6168380000000013
11
115.7763399999999905
21
-120.7120759999999962
0
LINE
8
BLACK
6
CONTINUOUS
10
115.7763399999999905
20
-120.7120759999999962
11
115.8715779999999995
21
-120.807313999999991
0
LINE
8
BLACK
6
CONTINUOUS
10
115.8715779999999995
20
-120.807313999999991
11
115.9668159999999943
21
-120.9977899999999948
0
LINE
8
BLACK
6
CONTINUOUS
10
115.9668159999999943
20
-120.9977899999999948
11
116.0620539999999892
21
-121.3787419999999884
0
LINE
8
BLACK
6
CONTINUOUS
10
116.0620539999999892
20
-121.3787419999999884
11
116.0620539999999892
21
-121.8549329999999884
0
LINE
8
BLACK
6
CONTINUOUS
10
116.0620539999999892
20
-121.8549329999999884
11
115.9668159999999943
21
-122.2358849999999961
0
LINE
8
BLACK
6
CONTINUOUS
10
115.9668159999999943
20
-122.2358849999999961
11
115.8715779999999995
21
-122.426361
0
LINE
8
BLACK
6
CONTINUOUS
10
115.8715779999999995
20
-122.426361
11
115.7763399999999905
21
-122.5215999999999923
0
LINE
8
BLACK
6
CONTINUOUS
10
115.7763399999999905
20
-122.5215999999999923
11
115.5858640000000008
21
-122.6168380000000013
0
LINE
8
BLACK
6
CONTINUOUS
10
115.5858640000000008
20
-122.6168380000000013
11
115.3953869999999995
21
-122.6168380000000013
0
LINE
8
BLACK
6
CONTINUOUS
10
115.3953869999999995
20
-122.6168380000000013
11
115.2049109999999956
21
-122.5215999999999923
0
LINE
8
BLACK
6
CONTINUOUS
10
115.2049109999999956
20
-122.5215999999999923
11
115.1096730000000008
21
-122.426361
0
LINE
8
BLACK
6
CONTINUOUS
10
115.1096730000000008
20
-122.426361
11
115.0144349999999918
21
-122.2358849999999961
0
LINE
8
BLACK
6
CONTINUOUS
10
115.0144349999999918
20
-122.2358849999999961
11
114.9191969999999969
21
-121.8549329999999884
0
LINE
8
BLACK
6
CONTINUOUS
10
114.9191969999999969
20
-121.8549329999999884
11
114.9191969999999969
21
-121.3787419999999884
0
LINE
8
BLACK
6
CONTINUOUS
10
114.9191969999999969
20
-121.3787419999999884
11
115.0144349999999918
21
-120.9977899999999948
0
LINE
8
BLACK
6
CONTINUOUS
10
115.0144349999999918
20
-120.9977899999999948
11
115.1096730000000008
21
-120.807313999999991
0
LINE
8
BLACK
6
CONTINUOUS
10
115.1096730000000008
20
-120.807313999999991
11
115.2049109999999956
21
-120.7120759999999962
0
LINE
8
BLACK
6
CONTINUOUS
10
115.2049109999999956
20
-120.7120759999999962
11
115.3953869999999995
21
-120.6168380000000013
0
LINE
8
BLACK
6
CONTINUOUS
10
116.9191969999999969
20
-122.6168380000000013
11
116.9191969999999969
21
-121.2835039999999935
0
LINE
8
BLACK
6
CONTINUOUS
10
116.9191969999999969
20
-121.4739799999999974
11
117.0144349999999918
21
-121.3787419999999884
0
LINE
8
BLACK
6
CONTINUOUS
10
117.0144349999999918
20
-121.3787419999999884
11
117.2049109999999956
21
-121.2835039999999935
0
LINE
8
BLACK
6
CONTINUOUS
10
117.2049109999999956
20
-121.2835039999999935
11
117.4906259999999918
21
-121.2835039999999935
0
LINE
8
BLACK
6
CONTINUOUS
10
117.4906259999999918
20
-121.2835039999999935
11
117.6811019999999957
21
-121.3787419999999884
0
LINE
8
BLACK
6
CONTINUOUS
10
117.6811019999999957
20
-121.3787419999999884
11
117.7763399999999905
21
-121.5692189999999897
0
LINE
8
BLACK
6
CONTINUOUS
10
117.7763399999999905
20
-121.5692189999999897
11
117.7763399999999905
21
-122.6168380000000013
0
LINE
8
BLACK
6
CONTINUOUS
10
117.7763399999999905
20
-121.5692189999999897
11
117.8715779999999995
21
-121.3787419999999884
0
LINE
8
BLACK
6
CONTINUOUS
10
117.8715779999999995
20
-121.3787419999999884
11
118.0620539999999892
21
-121.2835039999999935
0
LINE
8
BLACK
6
CONTINUOUS
10
118.0620539999999892
20
-121.2835039999999935
11
118.3477679999999879
21
-121.2835039999999935
0
LINE
8
BLACK
6
CONTINUOUS
10
118.3477679999999879
20
-121.2835039999999935
11
118.5382449999999892
21
-121.3787419999999884
0
LINE
8
BLACK
6
CONTINUOUS
10
118.5382449999999892
20
-121.3787419999999884
11
118.6334829999999982
21
-121.5692189999999897
0
LINE
8
BLACK
6
CONTINUOUS
10
118.6334829999999982
20
-121.5692189999999897
11
118.6334829999999982
21
-122.6168380000000013
0
LINE
8
BLACK
6
CONTINUOUS
10
119.5858640000000008
20
-122.6168380000000013
11
119.5858640000000008
21
-121.2835039999999935
0
LINE
8
BLACK
6
CONTINUOUS
10
119.5858640000000008
20
-121.4739799999999974
11
119.6811019999999957
21
-121.3787419999999884
0
LINE
8
BLACK
6
CONTINUOUS
10
119.6811019999999957
20
-121.3787419999999884
11
119.8715779999999995
21
-121.2835039999999935
0
LINE
8
BLACK
6
CONTINUOUS
10
119.8715779999999995
20
-121.2835039999999935
11
120.1572929999999957
21
-121.2835039999999935
0
LINE
8
BLACK
6
CONTINUOUS
10
120.1572929999999957
20
-121.2835039999999935
11
120.3477689999999996
21
-121.3787419999999884
0
LINE
8
BLACK
6
CONTINUOUS
10
120.3477689999999996
20
-121.3787419999999884
11
120.4430069999999944
21
-121.5692189999999897
0
LINE
8
BLACK
6
CONTINUOUS
10
120.4430069999999944
20
-121.5692189999999897
11
120.4430069999999944
21
-122.6168380000000013
0
LINE
8
BLACK
6
CONTINUOUS
10
120.4430069999999944
20
-121.5692189999999897
11
120.5382449999999892
21
-121.3787419999999884
0
LINE
8
BLACK
6
CONTINUOUS
10
120.5382449999999892
20
-121.3787419999999884
11
120.7287209999999931
21
-121.2835039999999935
0
LINE
8
BLACK
6
CONTINUOUS
10
120.7287209999999931
20
-121.2835039999999935
11
121.0144349999999918
21
-121.2835039999999935
0
LINE
8
BLACK
6
CONTINUOUS
10
121.0144349999999918
20
-121.2835039999999935
11
121.2049119999999931
21
-121.3787419999999884
0
LINE
8
BLACK
6
CONTINUOUS
10
121.2049119999999931
20
-121.3787419999999884
11
121.3001499999999879
21
-121.5692189999999897
0
LINE
8
BLACK
6
CONTINUOUS
10
121.3001499999999879
20
-121.5692189999999897
11
121.3001499999999879
21
-122.6168380000000013
0
LINE
8
BLACK
6
CONTINUOUS
10
125.2049119999999931
20
-120.5215999999999923
11
123.4906269999999893
21
-123.0930279999999897
0
LINE
8
BLACK
6
CONTINUOUS
10
127.776340999999988
20
-120.6168380000000013
11
127.9668179999999893
21
-120.6168380000000013
0
LINE
8
BLACK
6
CONTINUOUS
10
127.9668179999999893
20
-120.6168380000000013
11
128.1572940000000074
21
-120.7120759999999962
0
LINE
8
BLACK
6
CONTINUOUS
10
128.1572940000000074
20
-120.7120759999999962
11
128.2525320000000022
21
-120.807313999999991
0
LINE
8
BLACK
6
CONTINUOUS
10
128.2525320000000022
20
-120.807313999999991
11
128.347769999999997
21
-120.9977899999999948
0
LINE
8
BLACK
6
CONTINUOUS
10
128.347769999999997
20
-120.9977899999999948
11
128.4430079999999919
21
-121.3787419999999884
0
LINE
8
BLACK
6
CONTINUOUS
10
128.4430079999999919
20
-121.3787419999999884
11
128.4430079999999919
21
-121.8549329999999884
0
LINE
8
BLACK
6
CONTINUOUS
10
128.4430079999999919
20
-121.8549329999999884
11
128.347769999999997
21
-122.2358849999999961
0
LINE
8
BLACK
6
CONTINUOUS
10
128.347769999999997
20
-122.2358849999999961
11
128.2525320000000022
21
-122.426361
0
LINE
8
BLACK
6
CONTINUOUS
10
128.2525320000000022
20
-122.426361
11
128.1572940000000074
21
-122.5215999999999923
0
LINE
8
BLACK
6
CONTINUOUS
10
128.1572940000000074
20
-122.5215999999999923
11
127.9668179999999893
21
-122.6168380000000013
0
LINE
8
BLACK
6
CONTINUOUS
10
127.9668179999999893
20
-122.6168380000000013
11
127.776340999999988
21
-122.6168380000000013
0
LINE
8
BLACK
6
CONTINUOUS
10
127.776340999999988
20
-122.6168380000000013
11
127.5858649999999983
21
-122.5215999999999923
0
LINE
8
BLACK
6
CONTINUOUS
10
127.5858649999999983
20
-122.5215999999999923
11
127.4906269999999893
21
-122.426361
0
LINE
8
BLACK
6
CONTINUOUS
10
127.4906269999999893
20
-122.426361
11
127.3953889999999944
21
-122.2358849999999961
0
LINE
8
BLACK
6
CONTINUOUS
10
127.3953889999999944
20
-122.2358849999999961
11
127.3001509999999996
21
-121.8549329999999884
0
LINE
8
BLACK
6
CONTINUOUS
10
127.3001509999999996
20
-121.8549329999999884
11
127.3001509999999996
21
-121.3787419999999884
0
LINE
8
BLACK
6
CONTINUOUS
10
127.3001509999999996
20
-121.3787419999999884
11
127.3953889999999944
21
-120.9977899999999948
0
LINE
8
BLACK
6
CONTINUOUS
10
127.3953889999999944
20
-120.9977899999999948
11
127.4906269999999893
21
-120.807313999999991
0
LINE
8
BLACK
6
CONTINUOUS
10
127.4906269999999893
20
-120.807313999999991
11
127.5858649999999983
21
-120.7120759999999962
0
LINE
8
BLACK
6
CONTINUOUS
10
127.5858649999999983
20
-120.7120759999999962
11
127.776340999999988
21
-120.6168380000000013
0
LINE
8
BLACK
6
CONTINUOUS
10
129.3001509999999996
20
-122.426361
11
129.3953889999999944
21
-122.5215999999999923
0
LINE
8
BLACK
6
CONTINUOUS
10
129.3953889999999944
20
-122.5215999999999923
11
129.3001509999999996
21
-122.6168380000000013
0
LINE
8
BLACK
6
CONTINUOUS
10
129.3001509999999996
20
-122.6168380000000013
11
129.2049130000000048
21
-122.5215999999999923
0
LINE
8
BLACK
6
CONTINUOUS
10
129.2049130000000048
20
-122.5215999999999923
11
129.3001509999999996
21
-122.426361
0
LINE
8
BLACK
6
CONTINUOUS
10
129.3001509999999996
20
-122.426361
11
129.3001509999999996
21
-122.6168380000000013
0
LINE
8
BLACK
6
CONTINUOUS
10
130.6334839999999815
20
-120.6168380000000013
11
130.8239609999999971
21
-120.6168380000000013
0
LINE
8
BLACK
6
CONTINUOUS
10
130.8239609999999971
20
-120.6168380000000013
11
131.0144369999999867
21
-120.7120759999999962
0
LINE
8
BLACK
6
CONTINUOUS
10
131.0144369999999867
20
-120.7120759999999962
11
131.1096749999999815
21
-120.807313999999991
0
LINE
8
BLACK
6
CONTINUOUS
10
131.1096749999999815
20
-120.807313999999991
11
131.2049130000000048
21
-120.9977899999999948
0
LINE
8
BLACK
6
CONTINUOUS
10
131.2049130000000048
20
-120.9977899999999948
11
131.3001509999999996
21
-121.3787419999999884
0
LINE
8
BLACK
6
CONTINUOUS
10
131.3001509999999996
20
-121.3787419999999884
11
131.3001509999999996
21
-121.8549329999999884
0
LINE
8
BLACK
6
CONTINUOUS
10
131.3001509999999996
20
-121.8549329999999884
11
131.2049130000000048
21
-122.2358849999999961
0
LINE
8
BLACK
6
CONTINUOUS
10
131.2049130000000048
20
-122.2358849999999961
11
131.1096749999999815
21
-122.426361
0
LINE
8
BLACK
6
CONTINUOUS
10
131.1096749999999815
20
-122.426361
11
131.0144369999999867
21
-122.5215999999999923
0
LINE
8
BLACK
6
CONTINUOUS
10
131.0144369999999867
20
-122.5215999999999923
11
130.8239609999999971
21
-122.6168380000000013
0
LINE
8
BLACK
6
CONTINUOUS
10
130.8239609999999971
20
-122.6168380000000013
11
130.6334839999999815
21
-122.6168380000000013
0
LINE
8
BLACK
6
CONTINUOUS
10
130.6334839999999815
20
-122.6168380000000013
11
130.4430079999999919
21
-122.5215999999999923
0
LINE
8
BLACK
6
CONTINUOUS
10
130.4430079999999919
20
-122.5215999999999923
11
130.347769999999997
21
-122.426361
0
LINE
8
BLACK
6
CONTINUOUS
10
130.347769999999997
20
-122.426361
11
130.2525320000000022
21
-122.2358849999999961
0
LINE
8
BLACK
6
CONTINUOUS
10
130.2525320000000022
20
-122.2358849999999961
11
130.1572940000000074
21
-121.8549329999999884
0
LINE
8
BLACK
6
CONTINUOUS
10
130.1572940000000074
20
-121.8549329999999884
11
130.1572940000000074
21
-121.3787419999999884
0
LINE
8
BLACK
6
CONTINUOUS
10
130.1572940000000074
20
-121.3787419999999884
11
130.2525320000000022
21
-120.9977899999999948
0
LINE
8
BLACK
6
CONTINUOUS
10
130.2525320000000022
20
-120.9977899999999948
11
130.347769999999997
21
-120.807313999999991
0
LINE
8
BLACK
6
CONTINUOUS
10
130.347769999999997
20
-120.807313999999991
11
130.4430079999999919
21
-120.7120759999999962
0
LINE
8
BLACK
6
CONTINUOUS
10
130.4430079999999919
20
-120.7120759999999962
11
130.6334839999999815
21
-120.6168380000000013
0
LINE
8
BLACK
6
CONTINUOUS
10
133.2049130000000048
20
-122.6168380000000013
11
132.0620559999999841
21
-122.6168380000000013
0
LINE
8
BLACK
6
CONTINUOUS
10
132.6334839999999815
20
-122.6168380000000013
11
132.6334839999999815
21
-120.6168380000000013
0
LINE
8
BLACK
6
CONTINUOUS
10
132.6334839999999815
20
-120.6168380000000013
11
132.4430079999999919
21
-120.902552
0
LINE
8
BLACK
6
CONTINUOUS
10
132.4430079999999919
20
-120.902552
11
132.2525320000000022
21
-121.0930279999999897
0
LINE
8
BLACK
6
CONTINUOUS
10
132.2525320000000022
20
-121.0930279999999897
11
132.0620559999999841
21
-121.1882659999999987
0
LINE
8
BLACK
6
CONTINUOUS
10
135.0144369999999867
20
-120.6168380000000013
11
134.0620559999999841
21
-120.6168380000000013
0
LINE
8
BLACK
6
CONTINUOUS
10
134.0620559999999841
20
-120.6168380000000013
11
133.9668179999999893
21
-121.5692189999999897
0
LINE
8
BLACK
6
CONTINUOUS
10
133.9668179999999893
20
-121.5692189999999897
11
134.0620559999999841
21
-121.4739799999999974
0
LINE
8
BLACK
6
CONTINUOUS
10
134.0620559999999841
20
-121.4739799999999974
11
134.2525320000000022
21
-121.3787419999999884
0
LINE
8
BLACK
6
CONTINUOUS
10
134.2525320000000022
20
-121.3787419999999884
11
134.7287230000000022
21
-121.3787419999999884
0
LINE
8
BLACK
6
CONTINUOUS
10
134.7287230000000022
20
-121.3787419999999884
11
134.9191989999999919
21
-121.4739799999999974
0
LINE
8
BLACK
6
CONTINUOUS
10
134.9191989999999919
20
-121.4739799999999974
11
135.0144369999999867
21
-121.5692189999999897
0
LINE
8
BLACK
6
CONTINUOUS
10
135.0144369999999867
20
-121.5692189999999897
11
135.1096749999999815
21
-121.7596949999999936
0
LINE
8
BLACK
6
CONTINUOUS
10
135.1096749999999815
20
-121.7596949999999936
11
135.1096749999999815
21
-122.2358849999999961
0
LINE
8
BLACK
6
CONTINUOUS
10
135.1096749999999815
20
-122.2358849999999961
11
135.0144369999999867
21
-122.426361
0
LINE
8
BLACK
6
CONTINUOUS
10
135.0144369999999867
20
-122.426361
11
134.9191989999999919
21
-122.5215999999999923
0
LINE
8
BLACK
6
CONTINUOUS
10
134.9191989999999919
20
-122.5215999999999923
11
134.7287230000000022
21
-122.6168380000000013
0
LINE
8
BLACK
6
CONTINUOUS
10
134.7287230000000022
20
-122.6168380000000013
11
134.2525320000000022
21
-122.6168380000000013
0
LINE
8
BLACK
6
CONTINUOUS
10
134.2525320000000022
20
-122.6168380000000013
11
134.0620559999999841
21
-122.5215999999999923
0
LINE
8
BLACK
6
CONTINUOUS
10
134.0620559999999841
20
-122.5215999999999923
11
133.9668179999999893
21
-122.426361
0
LINE
8
BLACK
6
CONTINUOUS
10
135.7763419999999996
20
-120.6168380000000013
11
137.1096749999999815
21
-120.6168380000000013
0
LINE
8
BLACK
6
CONTINUOUS
10
137.1096749999999815
20
-120.6168380000000013
11
136.2525320000000022
21
-122.6168380000000013
0
LINE
8
BLACK
6
CONTINUOUS
10
137.7763419999999996
20
-120.6168380000000013
11
137.7763419999999996
21
-120.9977899999999948
0
LINE
8
BLACK
6
CONTINUOUS
10
138.5382469999999842
20
-120.6168380000000013
11
138.5382469999999842
21
-120.9977899999999948
0
LINE
8
BLACK
6
CONTINUOUS
10
141.4906289999999842
20
-123.3787419999999884
11
141.3953899999999919
21
-123.2835039999999935
0
LINE
8
BLACK
6
CONTINUOUS
10
141.3953899999999919
20
-123.2835039999999935
11
141.2049140000000023
21
-122.9977899999999948
0
LINE
8
BLACK
6
CONTINUOUS
10
141.2049140000000023
20
-122.9977899999999948
11
141.1096760000000074
21
-122.807313999999991
0
LINE
8
BLACK
6
CONTINUOUS
10
141.1096760000000074
20
-122.807313999999991
11
141.0144379999999842
21
-122.5215999999999923
0
LINE
8
BLACK
6
CONTINUOUS
10
141.0144379999999842
20
-122.5215999999999923
11
140.9191999999999894
21
-122.0454089999999923
0
LINE
8
BLACK
6
CONTINUOUS
10
140.9191999999999894
20
-122.0454089999999923
11
140.9191999999999894
21
-121.6644569999999987
0
LINE
8
BLACK
6
CONTINUOUS
10
140.9191999999999894
20
-121.6644569999999987
11
141.0144379999999842
21
-121.1882659999999987
0
LINE
8
BLACK
6
CONTINUOUS
10
141.0144379999999842
20
-121.1882659999999987
11
141.1096760000000074
21
-120.902552
0
LINE
8
BLACK
6
CONTINUOUS
10
141.1096760000000074
20
-120.902552
11
141.2049140000000023
21
-120.7120759999999962
0
LINE
8
BLACK
6
CONTINUOUS
10
141.2049140000000023
20
-120.7120759999999962
11
141.3953899999999919
21
-120.426361
0
LINE
8
BLACK
6
CONTINUOUS
10
141.3953899999999919
20
-120.426361
11
141.4906289999999842
21
-120.331122999999991
0
LINE
8
BLACK
6
CONTINUOUS
10
143.3001519999999971
20
-122.6168380000000013
11
142.1572950000000048
21
-122.6168380000000013
0
LINE
8
BLACK
6
CONTINUOUS
10
142.7287230000000022
20
-122.6168380000000013
11
142.7287230000000022
21
-120.6168380000000013
0
LINE
8
BLACK
6
CONTINUOUS
10
142.7287230000000022
20
-120.6168380000000013
11
142.5382469999999842
21
-120.902552
0
LINE
8
BLACK
6
CONTINUOUS
10
142.5382469999999842
20
-120.902552
11
142.3477709999999945
21
-121.0930279999999897
0
LINE
8
BLACK
6
CONTINUOUS
10
142.3477709999999945
20
-121.0930279999999897
11
142.1572950000000048
21
-121.1882659999999987
0
LINE
8
BLACK
6
CONTINUOUS
10
145.6811050000000023
20
-122.6168380000000013
11
145.6811050000000023
21
-120.6168380000000013
0
LINE
8
BLACK
6
CONTINUOUS
10
146.5382479999999816
20
-122.6168380000000013
11
146.5382479999999816
21
-121.5692189999999897
0
LINE
8
BLACK
6
CONTINUOUS
10
146.5382479999999816
20
-121.5692189999999897
11
146.4430099999999868
21
-121.3787419999999884
0
LINE
8
BLACK
6
CONTINUOUS
10
146.4430099999999868
20
-121.3787419999999884
11
146.2525339999999971
21
-121.2835039999999935
0
LINE
8
BLACK
6
CONTINUOUS
10
146.2525339999999971
20
-121.2835039999999935
11
145.9668189999999868
21
-121.2835039999999935
0
LINE
8
BLACK
6
CONTINUOUS
10
145.9668189999999868
20
-121.2835039999999935
11
145.7763429999999971
21
-121.3787419999999884
0
LINE
8
BLACK
6
CONTINUOUS
10
145.7763429999999971
20
-121.3787419999999884
11
145.6811050000000023
21
-121.4739799999999974
0
LINE
8
BLACK
6
CONTINUOUS
10
147.7763429999999971
20
-122.6168380000000013
11
147.5858670000000075
21
-122.5215999999999923
0
LINE
8
BLACK
6
CONTINUOUS
10
147.5858670000000075
20
-122.5215999999999923
11
147.4906289999999842
21
-122.426361
0
LINE
8
BLACK
6
CONTINUOUS
10
147.4906289999999842
20
-122.426361
11
147.3953909999999894
21
-122.2358849999999961
0
LINE
8
BLACK
6
CONTINUOUS
10
147.3953909999999894
20
-122.2358849999999961
11
147.3953909999999894
21
-121.6644569999999987
0
LINE
8
BLACK
6
CONTINUOUS
10
147.3953909999999894
20
-121.6644569999999987
11
147.4906289999999842
21
-121.4739799999999974
0
LINE
8
BLACK
6
CONTINUOUS
10
147.4906289999999842
20
-121.4739799999999974
11
147.5858670000000075
21
-121.3787419999999884
0
LINE
8
BLACK
6
CONTINUOUS
10
147.5858670000000075
20
-121.3787419999999884
11
147.7763429999999971
21
-121.2835039999999935
0
LINE
8
BLACK
6
CONTINUOUS
10
147.7763429999999971
20
-121.2835039999999935
11
148.0620580000000075
21
-121.2835039999999935
0
LINE
8
BLACK
6
CONTINUOUS
10
148.0620580000000075
20
-121.2835039999999935
11
148.2525339999999971
21
-121.3787419999999884
0
LINE
8
BLACK
6
CONTINUOUS
10
148.2525339999999971
20
-121.3787419999999884
11
148.347771999999992
21
-121.4739799999999974
0
LINE
8
BLACK
6
CONTINUOUS
10
148.347771999999992
20
-121.4739799999999974
11
148.4430099999999868
21
-121.6644569999999987
0
LINE
8
BLACK
6
CONTINUOUS
10
148.4430099999999868
20
-121.6644569999999987
11
148.4430099999999868
21
-122.2358849999999961
0
LINE
8
BLACK
6
CONTINUOUS
10
148.4430099999999868
20
-122.2358849999999961
11
148.347771999999992
21
-122.426361
0
LINE
8
BLACK
6
CONTINUOUS
10
148.347771999999992
20
-122.426361
11
148.2525339999999971
21
-122.5215999999999923
0
LINE
8
BLACK
6
CONTINUOUS
10
148.2525339999999971
20
-122.5215999999999923
11
148.0620580000000075
21
-122.6168380000000013
0
LINE
8
BLACK
6
CONTINUOUS
10
148.0620580000000075
20
-122.6168380000000013
11
147.7763429999999971
21
-122.6168380000000013
0
LINE
8
BLACK
6
CONTINUOUS
10
149.585866999999979
20
-122.6168380000000013
11
149.3953909999999894
21
-122.5215999999999923
0
LINE
8
BLACK
6
CONTINUOUS
10
149.3953909999999894
20
-122.5215999999999923
11
149.3001529999999946
21
-122.331122999999991
0
LINE
8
BLACK
6
CONTINUOUS
10
149.3001529999999946
20
-122.331122999999991
11
149.3001529999999946
21
-120.6168380000000013
0
LINE
8
BLACK
6
CONTINUOUS
10
151.1096770000000049
20
-122.5215999999999923
11
150.9192009999999868
21
-122.6168380000000013
0
LINE
8
BLACK
6
CONTINUOUS
10
150.9192009999999868
20
-122.6168380000000013
11
150.5382479999999816
21
-122.6168380000000013
0
LINE
8
BLACK
6
CONTINUOUS
10
150.5382479999999816
20
-122.6168380000000013
11
150.347771999999992
21
-122.5215999999999923
0
LINE
8
BLACK
6
CONTINUOUS
10
150.347771999999992
20
-122.5215999999999923
11
150.2525339999999971
21
-122.331122999999991
0
LINE
8
BLACK
6
CONTINUOUS
10
150.2525339999999971
20
-122.331122999999991
11
150.2525339999999971
21
-121.5692189999999897
0
LINE
8
BLACK
6
CONTINUOUS
10
150.2525339999999971
20
-121.5692189999999897
11
150.347771999999992
21
-121.3787419999999884
0
LINE
8
BLACK
6
CONTINUOUS
10
150.347771999999992
20
-121.3787419999999884
11
150.5382479999999816
21
-121.2835039999999935
0
LINE
8
BLACK
6
CONTINUOUS
10
150.5382479999999816
20
-121.2835039999999935
11
150.9192009999999868
21
-121.2835039999999935
0
LINE
8
BLACK
6
CONTINUOUS
10
150.9192009999999868
20
-121.2835039999999935
11
151.1096770000000049
21
-121.3787419999999884
0
LINE
8
BLACK
6
CONTINUOUS
10
151.1096770000000049
20
-121.3787419999999884
11
151.2049149999999997
21
-121.5692189999999897
0
LINE
8
BLACK
6
CONTINUOUS
10
151.2049149999999997
20
-121.5692189999999897
11
151.2049149999999997
21
-121.7596949999999936
0
LINE
8
BLACK
6
CONTINUOUS
10
151.2049149999999997
20
-121.7596949999999936
11
150.2525339999999971
21
-121.9501709999999974
0
LINE
8
BLACK
6
CONTINUOUS
10
151.8715819999999894
20
-123.3787419999999884
11
151.9668199999999842
21
-123.2835039999999935
0
LINE
8
BLACK
6
CONTINUOUS
10
151.9668199999999842
20
-123.2835039999999935
11
152.1572960000000023
21
-122.9977899999999948
0
LINE
8
BLACK
6
CONTINUOUS
10
152.1572960000000023
20
-122.9977899999999948
11
152.2525339999999971
21
-122.807313999999991
0
LINE
8
BLACK
6
CONTINUOUS
10
152.2525339999999971
20
-122.807313999999991
11
152.347771999999992
21
-122.5215999999999923
0
LINE
8
BLACK
6
CONTINUOUS
10
152.347771999999992
20
-122.5215999999999923
11
152.4430099999999868
21
-122.0454089999999923
0
LINE
8
BLACK
6
CONTINUOUS
10
152.4430099999999868
20
-122.0454089999999923
11
152.4430099999999868
21
-121.6644569999999987
0
LINE
8
BLACK
6
CONTINUOUS
10
152.4430099999999868
20
-121.6644569999999987
11
152.347771999999992
21
-121.1882659999999987
0
LINE
8
BLACK
6
CONTINUOUS
10
152.347771999999992
20
-121.1882659999999987
11
152.2525339999999971
21
-120.902552
0
LINE
8
BLACK
6
CONTINUOUS
10
152.2525339999999971
20
-120.902552
11
152.1572960000000023
21
-120.7120759999999962
0
LINE
8
BLACK
6
CONTINUOUS
10
152.1572960000000023
20
-120.7120759999999962
11
151.9668199999999842
21
-120.426361
0
LINE
8
BLACK
6
CONTINUOUS
10
151.9668199999999842
20
-120.426361
11
151.8715819999999894
21
-120.331122999999991
0
CIRCLE
8
BLACK
10
105.289999999999992
20
-124.3419999999999987
40
0.45
0
LINE
8
BLACK
6
CONTINUOUS
10
108.7287199999999956
20
-123.2568379999999877
11
108.9191969999999969
21
-123.2568379999999877
0
LINE
8
BLACK
6
CONTINUOUS
10
108.9191969999999969
20
-123.2568379999999877
11
109.1096730000000008
21
-123.3520759999999967
0
LINE
8
BLACK
6
CONTINUOUS
10
109.1096730000000008
20
-123.3520759999999967
11
109.2049109999999956
21
-123.4473139999999916
0
LINE
8
BLACK
6
CONTINUOUS
10
109.2049109999999956
20
-123.4473139999999916
11
109.3001489999999905
21
-123.6377899999999954
0
LINE
8
BLACK
6
CONTINUOUS
10
109.3001489999999905
20
-123.6377899999999954
11
109.3953869999999995
21
-124.0187419999999889
0
LINE
8
BLACK
6
CONTINUOUS
10
109.3953869999999995
20
-124.0187419999999889
11
109.3953869999999995
21
-124.494932999999989
0
LINE
8
BLACK
6
CONTINUOUS
10
109.3953869999999995
20
-124.494932999999989
11
109.3001489999999905
21
-124.8758849999999967
0
LINE
8
BLACK
6
CONTINUOUS
10
109.3001489999999905
20
-124.8758849999999967
11
109.2049109999999956
21
-125.0663610000000006
0
LINE
8
BLACK
6
CONTINUOUS
10
109.2049109999999956
20
-125.0663610000000006
11
109.1096730000000008
21
-125.1615999999999929
0
LINE
8
BLACK
6
CONTINUOUS
10
109.1096730000000008
20
-125.1615999999999929
11
108.9191969999999969
21
-125.2568379999999877
0
LINE
8
BLACK
6
CONTINUOUS
10
108.9191969999999969
20
-125.2568379999999877
11
108.7287199999999956
21
-125.2568379999999877
0
LINE
8
BLACK
6
CONTINUOUS
10
108.7287199999999956
20
-125.2568379999999877
11
108.5382439999999917
21
-125.1615999999999929
0
LINE
8
BLACK
6
CONTINUOUS
10
108.5382439999999917
20
-125.1615999999999929
11
108.4430059999999969
21
-125.0663610000000006
0
LINE
8
BLACK
6
CONTINUOUS
10
108.4430059999999969
20
-125.0663610000000006
11
108.3477680000000021
21
-124.8758849999999967
0
LINE
8
BLACK
6
CONTINUOUS
10
108.3477680000000021
20
-124.8758849999999967
11
108.252529999999993
21
-124.494932999999989
0
LINE
8
BLACK
6
CONTINUOUS
10
108.252529999999993
20
-124.494932999999989
11
108.252529999999993
21
-124.0187419999999889
0
LINE
8
BLACK
6
CONTINUOUS
10
108.252529999999993
20
-124.0187419999999889
11
108.3477680000000021
21
-123.6377899999999954
0
LINE
8
BLACK
6
CONTINUOUS
10
108.3477680000000021
20
-123.6377899999999954
11
108.4430059999999969
21
-123.4473139999999916
0
LINE
8
BLACK
6
CONTINUOUS
10
108.4430059999999969
20
-123.4473139999999916
11
108.5382439999999917
21
-123.3520759999999967
0
LINE
8
BLACK
6
CONTINUOUS
10
108.5382439999999917
20
-123.3520759999999967
11
108.7287199999999956
21
-123.2568379999999877
0
LINE
8
BLACK
6
CONTINUOUS
10
110.252529999999993
20
-125.0663610000000006
11
110.3477680000000021
21
-125.1615999999999929
0
LINE
8
BLACK
6
CONTINUOUS
10
110.3477680000000021
20
-125.1615999999999929
11
110.252529999999993
21
-125.2568379999999877
0
LINE
8
BLACK
6
CONTINUOUS
10
110.252529999999993
20
-125.2568379999999877
11
110.1572919999999982
21
-125.1615999999999929
0
LINE
8
BLACK
6
CONTINUOUS
10
110.1572919999999982
20
-125.1615999999999929
11
110.252529999999993
21
-125.0663610000000006
0
LINE
8
BLACK
6
CONTINUOUS
10
110.252529999999993
20
-125.0663610000000006
11
110.252529999999993
21
-125.2568379999999877
0
LINE
8
BLACK
6
CONTINUOUS
10
111.3001489999999905
20
-125.2568379999999877
11
111.6811009999999982
21
-125.2568379999999877
0
LINE
8
BLACK
6
CONTINUOUS
10
111.6811009999999982
20
-125.2568379999999877
11
111.8715779999999995
21
-125.1615999999999929
0
LINE
8
BLACK
6
CONTINUOUS
10
111.8715779999999995
20
-125.1615999999999929
11
111.9668159999999943
21
-125.0663610000000006
0
LINE
8
BLACK
6
CONTINUOUS
10
111.9668159999999943
20
-125.0663610000000006
11
112.1572919999999982
21
-124.7806469999999877
0
LINE
8
BLACK
6
CONTINUOUS
10
112.1572919999999982
20
-124.7806469999999877
11
112.252529999999993
21
-124.3996949999999941
0
LINE
8
BLACK
6
CONTINUOUS
10
112.252529999999993
20
-124.3996949999999941
11
112.252529999999993
21
-123.6377899999999954
0
LINE
8
BLACK
6
CONTINUOUS
10
112.252529999999993
20
-123.6377899999999954
11
112.1572919999999982
21
-123.4473139999999916
0
LINE
8
BLACK
6
CONTINUOUS
10
112.1572919999999982
20
-123.4473139999999916
11
112.0620539999999892
21
-123.3520759999999967
0
LINE
8
BLACK
6
CONTINUOUS
10
112.0620539999999892
20
-123.3520759999999967
11
111.8715779999999995
21
-123.2568379999999877
0
LINE
8
BLACK
6
CONTINUOUS
10
111.8715779999999995
20
-123.2568379999999877
11
111.4906249999999943
21
-123.2568379999999877
0
LINE
8
BLACK
6
CONTINUOUS
10
111.4906249999999943
20
-123.2568379999999877
11
111.3001489999999905
21
-123.3520759999999967
0
LINE
8
BLACK
6
CONTINUOUS
10
111.3001489999999905
20
-123.3520759999999967
11
111.2049109999999956
21
-123.4473139999999916
0
LINE
8
BLACK
6
CONTINUOUS
10
111.2049109999999956
20
-123.4473139999999916
11
111.1096730000000008
21
-123.6377899999999954
0
LINE
8
BLACK
6
CONTINUOUS
10
111.1096730000000008
20
-123.6377899999999954
11
111.1096730000000008
21
-124.113979999999998
0
LINE
8
BLACK
6
CONTINUOUS
10
111.1096730000000008
20
-124.113979999999998
11
111.2049109999999956
21
-124.3044569999999993
0
LINE
8
BLACK
6
CONTINUOUS
10
111.2049109999999956
20
-124.3044569999999993
11
111.3001489999999905
21
-124.3996949999999941
0
LINE
8
BLACK
6
CONTINUOUS
10
111.3001489999999905
20
-124.3996949999999941
11
111.4906249999999943
21
-124.494932999999989
0
LINE
8
BLACK
6
CONTINUOUS
10
111.4906249999999943
20
-124.494932999999989
11
111.8715779999999995
21
-124.494932999999989
0
LINE
8
BLACK
6
CONTINUOUS
10
111.8715779999999995
20
-124.494932999999989
11
112.0620539999999892
21
-124.3996949999999941
0
LINE
8
BLACK
6
CONTINUOUS
10
112.0620539999999892
20
-124.3996949999999941
11
112.1572919999999982
21
-124.3044569999999993
0
LINE
8
BLACK
6
CONTINUOUS
10
112.1572919999999982
20
-124.3044569999999993
11
112.252529999999993
21
-124.113979999999998
0
LINE
8
BLACK
6
CONTINUOUS
10
113.4906249999999943
20
-123.2568379999999877
11
113.6811019999999957
21
-123.2568379999999877
0
LINE
8
BLACK
6
CONTINUOUS
10
113.6811019999999957
20
-123.2568379999999877
11
113.8715779999999995
21
-123.3520759999999967
0
LINE
8
BLACK
6
CONTINUOUS
10
113.8715779999999995
20
-123.3520759999999967
11
113.9668159999999943
21
-123.4473139999999916
0
LINE
8
BLACK
6
CONTINUOUS
10
113.9668159999999943
20
-123.4473139999999916
11
114.0620539999999892
21
-123.6377899999999954
0
LINE
8
BLACK
6
CONTINUOUS
10
114.0620539999999892
20
-123.6377899999999954
11
114.1572919999999982
21
-124.0187419999999889
0
LINE
8
BLACK
6
CONTINUOUS
10
114.1572919999999982
20
-124.0187419999999889
11
114.1572919999999982
21
-124.494932999999989
0
LINE
8
BLACK
6
CONTINUOUS
10
114.1572919999999982
20
-124.494932999999989
11
114.0620539999999892
21
-124.8758849999999967
0
LINE
8
BLACK
6
CONTINUOUS
10
114.0620539999999892
20
-124.8758849999999967
11
113.9668159999999943
21
-125.0663610000000006
0
LINE
8
BLACK
6
CONTINUOUS
10
113.9668159999999943
20
-125.0663610000000006
11
113.8715779999999995
21
-125.1615999999999929
0
LINE
8
BLACK
6
CONTINUOUS
10
113.8715779999999995
20
-125.1615999999999929
11
113.6811019999999957
21
-125.2568379999999877
0
LINE
8
BLACK
6
CONTINUOUS
10
113.6811019999999957
20
-125.2568379999999877
11
113.4906249999999943
21
-125.2568379999999877
0
LINE
8
BLACK
6
CONTINUOUS
10
113.4906249999999943
20
-125.2568379999999877
11
113.3001489999999905
21
-125.1615999999999929
0
LINE
8
BLACK
6
CONTINUOUS
10
113.3001489999999905
20
-125.1615999999999929
11
113.2049109999999956
21
-125.0663610000000006
0
LINE
8
BLACK
6
CONTINUOUS
10
113.2049109999999956
20
-125.0663610000000006
11
113.1096730000000008
21
-124.8758849999999967
0
LINE
8
BLACK
6
CONTINUOUS
10
113.1096730000000008
20
-124.8758849999999967
11
113.0144349999999918
21
-124.494932999999989
0
LINE
8
BLACK
6
CONTINUOUS
10
113.0144349999999918
20
-124.494932999999989
11
113.0144349999999918
21
-124.0187419999999889
0
LINE
8
BLACK
6
CONTINUOUS
10
113.0144349999999918
20
-124.0187419999999889
11
113.1096730000000008
21
-123.6377899999999954
0
LINE
8
BLACK
6
CONTINUOUS
10
113.1096730000000008
20
-123.6377899999999954
11
113.2049109999999956
21
-123.4473139999999916
0
LINE
8
BLACK
6
CONTINUOUS
10
113.2049109999999956
20
-123.4473139999999916
11
113.3001489999999905
21
-123.3520759999999967
0
LINE
8
BLACK
6
CONTINUOUS
10
113.3001489999999905
20
-123.3520759999999967
11
113.4906249999999943
21
-123.2568379999999877
0
LINE
8
BLACK
6
CONTINUOUS
10
115.3953869999999995
20
-123.2568379999999877
11
115.5858640000000008
21
-123.2568379999999877
0
LINE
8
BLACK
6
CONTINUOUS
10
115.5858640000000008
20
-123.2568379999999877
11
115.7763399999999905
21
-123.3520759999999967
0
LINE
8
BLACK
6
CONTINUOUS
10
115.7763399999999905
20
-123.3520759999999967
11
115.8715779999999995
21
-123.4473139999999916
0
LINE
8
BLACK
6
CONTINUOUS
10
115.8715779999999995
20
-123.4473139999999916
11
115.9668159999999943
21
-123.6377899999999954
0
LINE
8
BLACK
6
CONTINUOUS
10
115.9668159999999943
20
-123.6377899999999954
11
116.0620539999999892
21
-124.0187419999999889
0
LINE
8
BLACK
6
CONTINUOUS
10
116.0620539999999892
20
-124.0187419999999889
11
116.0620539999999892
21
-124.494932999999989
0
LINE
8
BLACK
6
CONTINUOUS
10
116.0620539999999892
20
-124.494932999999989
11
115.9668159999999943
21
-124.8758849999999967
0
LINE
8
BLACK
6
CONTINUOUS
10
115.9668159999999943
20
-124.8758849999999967
11
115.8715779999999995
21
-125.0663610000000006
0
LINE
8
BLACK
6
CONTINUOUS
10
115.8715779999999995
20
-125.0663610000000006
11
115.7763399999999905
21
-125.1615999999999929
0
LINE
8
BLACK
6
CONTINUOUS
10
115.7763399999999905
20
-125.1615999999999929
11
115.5858640000000008
21
-125.2568379999999877
0
LINE
8
BLACK
6
CONTINUOUS
10
115.5858640000000008
20
-125.2568379999999877
11
115.3953869999999995
21
-125.2568379999999877
0
LINE
8
BLACK
6
CONTINUOUS
10
115.3953869999999995
20
-125.2568379999999877
11
115.2049109999999956
21
-125.1615999999999929
0
LINE
8
BLACK
6
CONTINUOUS
10
115.2049109999999956
20
-125.1615999999999929
11
115.1096730000000008
21
-125.0663610000000006
0
LINE
8
BLACK
6
CONTINUOUS
10
115.1096730000000008
20
-125.0663610000000006
11
115.0144349999999918
21
-124.8758849999999967
0
LINE
8
BLACK
6
CONTINUOUS
10
115.0144349999999918
20
-124.8758849999999967
11
114.9191969999999969
21
-124.494932999999989
0
LINE
8
BLACK
6
CONTINUOUS
10
114.9191969999999969
20
-124.494932999999989
11
114.9191969999999969
21
-124.0187419999999889
0
LINE
8
BLACK
6
CONTINUOUS
10
114.9191969999999969
20
-124.0187419999999889
11
115.0144349999999918
21
-123.6377899999999954
0
LINE
8
BLACK
6
CONTINUOUS
10
115.0144349999999918
20
-123.6377899999999954
11
115.1096730000000008
21
-123.4473139999999916
0
LINE
8
BLACK
6
CONTINUOUS
10
115.1096730000000008
20
-123.4473139999999916
11
115.2049109999999956
21
-123.3520759999999967
0
LINE
8
BLACK
6
CONTINUOUS
10
115.2049109999999956
20
-123.3520759999999967
11
115.3953869999999995
21
-123.2568379999999877
0
LINE
8
BLACK
6
CONTINUOUS
10
116.9191969999999969
20
-125.2568379999999877
11
116.9191969999999969
21
-123.9235039999999941
0
LINE
8
BLACK
6
CONTINUOUS
10
116.9191969999999969
20
-124.113979999999998
11
117.0144349999999918
21
-124.0187419999999889
0
LINE
8
BLACK
6
CONTINUOUS
10
117.0144349999999918
20
-124.0187419999999889
11
117.2049109999999956
21
-123.9235039999999941
0
LINE
8
BLACK
6
CONTINUOUS
10
117.2049109999999956
20
-123.9235039999999941
11
117.4906259999999918
21
-123.9235039999999941
0
LINE
8
BLACK
6
CONTINUOUS
10
117.4906259999999918
20
-123.9235039999999941
11
117.6811019999999957
21
-124.0187419999999889
0
LINE
8
BLACK
6
CONTINUOUS
10
117.6811019999999957
20
-124.0187419999999889
11
117.7763399999999905
21
-124.2092189999999903
0
LINE
8
BLACK
6
CONTINUOUS
10
117.7763399999999905
20
-124.2092189999999903
11
117.7763399999999905
21
-125.2568379999999877
0
LINE
8
BLACK
6
CONTINUOUS
10
117.7763399999999905
20
-124.2092189999999903
11
117.8715779999999995
21
-124.0187419999999889
0
LINE
8
BLACK
6
CONTINUOUS
10
117.8715779999999995
20
-124.0187419999999889
11
118.0620539999999892
21
-123.9235039999999941
0
LINE
8
BLACK
6
CONTINUOUS
10
118.0620539999999892
20
-123.9235039999999941
11
118.3477679999999879
21
-123.9235039999999941
0
LINE
8
BLACK
6
CONTINUOUS
10
118.3477679999999879
20
-123.9235039999999941
11
118.5382449999999892
21
-124.0187419999999889
0
LINE
8
BLACK
6
CONTINUOUS
10
118.5382449999999892
20
-124.0187419999999889
11
118.6334829999999982
21
-124.2092189999999903
0
LINE
8
BLACK
6
CONTINUOUS
10
118.6334829999999982
20
-124.2092189999999903
11
118.6334829999999982
21
-125.2568379999999877
0
LINE
8
BLACK
6
CONTINUOUS
10
119.5858640000000008
20
-125.2568379999999877
11
119.5858640000000008
21
-123.9235039999999941
0
LINE
8
BLACK
6
CONTINUOUS
10
119.5858640000000008
20
-124.113979999999998
11
119.6811019999999957
21
-124.0187419999999889
0
LINE
8
BLACK
6
CONTINUOUS
10
119.6811019999999957
20
-124.0187419999999889
11
119.8715779999999995
21
-123.9235039999999941
0
LINE
8
BLACK
6
CONTINUOUS
10
119.8715779999999995
20
-123.9235039999999941
11
120.1572929999999957
21
-123.9235039999999941
0
LINE
8
BLACK
6
CONTINUOUS
10
120.1572929999999957
20
-123.9235039999999941
11
120.3477689999999996
21
-124.0187419999999889
0
LINE
8
BLACK
6
CONTINUOUS
10
120.3477689999999996
20
-124.0187419999999889
11
120.4430069999999944
21
-124.2092189999999903
0
LINE
8
BLACK
6
CONTINUOUS
10
120.4430069999999944
20
-124.2092189999999903
11
120.4430069999999944
21
-125.2568379999999877
0
LINE
8
BLACK
6
CONTINUOUS
10
120.4430069999999944
20
-124.2092189999999903
11
120.5382449999999892
21
-124.0187419999999889
0
LINE
8
BLACK
6
CONTINUOUS
10
120.5382449999999892
20
-124.0187419999999889
11
120.7287209999999931
21
-123.9235039999999941
0
LINE
8
BLACK
6
CONTINUOUS
10
120.7287209999999931
20
-123.9235039999999941
11
121.0144349999999918
21
-123.9235039999999941
0
LINE
8
BLACK
6
CONTINUOUS
10
121.0144349999999918
20
-123.9235039999999941
11
121.2049119999999931
21
-124.0187419999999889
0
LINE
8
BLACK
6
CONTINUOUS
10
121.2049119999999931
20
-124.0187419999999889
11
121.3001499999999879
21
-124.2092189999999903
0
LINE
8
BLACK
6
CONTINUOUS
10
121.3001499999999879
20
-124.2092189999999903
11
121.3001499999999879
21
-125.2568379999999877
0
LINE
8
BLACK
6
CONTINUOUS
10
125.2049119999999931
20
-123.1615999999999929
11
123.4906269999999893
21
-125.7330279999999902
0
LINE
8
BLACK
6
CONTINUOUS
10
127.776340999999988
20
-123.2568379999999877
11
127.9668179999999893
21
-123.2568379999999877
0
LINE
8
BLACK
6
CONTINUOUS
10
127.9668179999999893
20
-123.2568379999999877
11
128.1572940000000074
21
-123.3520759999999967
0
LINE
8
BLACK
6
CONTINUOUS
10
128.1572940000000074
20
-123.3520759999999967
11
128.2525320000000022
21
-123.4473139999999916
0
LINE
8
BLACK
6
CONTINUOUS
10
128.2525320000000022
20
-123.4473139999999916
11
128.347769999999997
21
-123.6377899999999954
0
LINE
8
BLACK
6
CONTINUOUS
10
128.347769999999997
20
-123.6377899999999954
11
128.4430079999999919
21
-124.0187419999999889
0
LINE
8
BLACK
6
CONTINUOUS
10
128.4430079999999919
20
-124.0187419999999889
11
128.4430079999999919
21
-124.494932999999989
0
LINE
8
BLACK
6
CONTINUOUS
10
128.4430079999999919
20
-124.494932999999989
11
128.347769999999997
21
-124.8758849999999967
0
LINE
8
BLACK
6
CONTINUOUS
10
128.347769999999997
20
-124.8758849999999967
11
128.2525320000000022
21
-125.0663610000000006
0
LINE
8
BLACK
6
CONTINUOUS
10
128.2525320000000022
20
-125.0663610000000006
11
128.1572940000000074
21
-125.1615999999999929
0
LINE
8
BLACK
6
CONTINUOUS
10
128.1572940000000074
20
-125.1615999999999929
11
127.9668179999999893
21
-125.2568379999999877
0
LINE
8
BLACK
6
CONTINUOUS
10
127.9668179999999893
20
-125.2568379999999877
11
127.776340999999988
21
-125.2568379999999877
0
LINE
8
BLACK
6
CONTINUOUS
10
127.776340999999988
20
-125.2568379999999877
11
127.5858649999999983
21
-125.1615999999999929
0
LINE
8
BLACK
6
CONTINUOUS
10
127.5858649999999983
20
-125.1615999999999929
11
127.4906269999999893
21
-125.0663610000000006
0
LINE
8
BLACK
6
CONTINUOUS
10
127.4906269999999893
20
-125.0663610000000006
11
127.3953889999999944
21
-124.8758849999999967
0
LINE
8
BLACK
6
CONTINUOUS
10
127.3953889999999944
20
-124.8758849999999967
11
127.3001509999999996
21
-124.494932999999989
0
LINE
8
BLACK
6
CONTINUOUS
10
127.3001509999999996
20
-124.494932999999989
11
127.3001509999999996
21
-124.0187419999999889
0
LINE
8
BLACK
6
CONTINUOUS
10
127.3001509999999996
20
-124.0187419999999889
11
127.3953889999999944
21
-123.6377899999999954
0
LINE
8
BLACK
6
CONTINUOUS
10
127.3953889999999944
20
-123.6377899999999954
11
127.4906269999999893
21
-123.4473139999999916
0
LINE
8
BLACK
6
CONTINUOUS
10
127.4906269999999893
20
-123.4473139999999916
11
127.5858649999999983
21
-123.3520759999999967
0
LINE
8
BLACK
6
CONTINUOUS
10
127.5858649999999983
20
-123.3520759999999967
11
127.776340999999988
21
-123.2568379999999877
0
LINE
8
BLACK
6
CONTINUOUS
10
129.3001509999999996
20
-125.0663610000000006
11
129.3953889999999944
21
-125.1615999999999929
0
LINE
8
BLACK
6
CONTINUOUS
10
129.3953889999999944
20
-125.1615999999999929
11
129.3001509999999996
21
-125.2568379999999877
0
LINE
8
BLACK
6
CONTINUOUS
10
129.3001509999999996
20
-125.2568379999999877
11
129.2049130000000048
21
-125.1615999999999929
0
LINE
8
BLACK
6
CONTINUOUS
10
129.2049130000000048
20
-125.1615999999999929
11
129.3001509999999996
21
-125.0663610000000006
0
LINE
8
BLACK
6
CONTINUOUS
10
129.3001509999999996
20
-125.0663610000000006
11
129.3001509999999996
21
-125.2568379999999877
0
LINE
8
BLACK
6
CONTINUOUS
10
130.6334839999999815
20
-123.2568379999999877
11
130.8239609999999971
21
-123.2568379999999877
0
LINE
8
BLACK
6
CONTINUOUS
10
130.8239609999999971
20
-123.2568379999999877
11
131.0144369999999867
21
-123.3520759999999967
0
LINE
8
BLACK
6
CONTINUOUS
10
131.0144369999999867
20
-123.3520759999999967
11
131.1096749999999815
21
-123.4473139999999916
0
LINE
8
BLACK
6
CONTINUOUS
10
131.1096749999999815
20
-123.4473139999999916
11
131.2049130000000048
21
-123.6377899999999954
0
LINE
8
BLACK
6
CONTINUOUS
10
131.2049130000000048
20
-123.6377899999999954
11
131.3001509999999996
21
-124.0187419999999889
0
LINE
8
BLACK
6
CONTINUOUS
10
131.3001509999999996
20
-124.0187419999999889
11
131.3001509999999996
21
-124.494932999999989
0
LINE
8
BLACK
6
CONTINUOUS
10
131.3001509999999996
20
-124.494932999999989
11
131.2049130000000048
21
-124.8758849999999967
0
LINE
8
BLACK
6
CONTINUOUS
10
131.2049130000000048
20
-124.8758849999999967
11
131.1096749999999815
21
-125.0663610000000006
0
LINE
8
BLACK
6
CONTINUOUS
10
131.1096749999999815
20
-125.0663610000000006
11
131.0144369999999867
21
-125.1615999999999929
0
LINE
8
BLACK
6
CONTINUOUS
10
131.0144369999999867
20
-125.1615999999999929
11
130.8239609999999971
21
-125.2568379999999877
0
LINE
8
BLACK
6
CONTINUOUS
10
130.8239609999999971
20
-125.2568379999999877
11
130.6334839999999815
21
-125.2568379999999877
0
LINE
8
BLACK
6
CONTINUOUS
10
130.6334839999999815
20
-125.2568379999999877
11
130.4430079999999919
21
-125.1615999999999929
0
LINE
8
BLACK
6
CONTINUOUS
10
130.4430079999999919
20
-125.1615999999999929
11
130.347769999999997
21
-125.0663610000000006
0
LINE
8
BLACK
6
CONTINUOUS
10
130.347769999999997
20
-125.0663610000000006
11
130.2525320000000022
21
-124.8758849999999967
0
LINE
8
BLACK
6
CONTINUOUS
10
130.2525320000000022
20
-124.8758849999999967
11
130.1572940000000074
21
-124.494932999999989
0
LINE
8
BLACK
6
CONTINUOUS
10
130.1572940000000074
20
-124.494932999999989
11
130.1572940000000074
21
-124.0187419999999889
0
LINE
8
BLACK
6
CONTINUOUS
10
130.1572940000000074
20
-124.0187419999999889
11
130.2525320000000022
21
-123.6377899999999954
0
LINE
8
BLACK
6
CONTINUOUS
10
130.2525320000000022
20
-123.6377899999999954
11
130.347769999999997
21
-123.4473139999999916
0
LINE
8
BLACK
6
CONTINUOUS
10
130.347769999999997
20
-123.4473139999999916
11
130.4430079999999919
21
-123.3520759999999967
0
LINE
8
BLACK
6
CONTINUOUS
10
130.4430079999999919
20
-123.3520759999999967
11
130.6334839999999815
21
-123.2568379999999877
0
LINE
8
BLACK
6
CONTINUOUS
10
131.9668179999999893
20
-123.2568379999999877
11
133.2049130000000048
21
-123.2568379999999877
0
LINE
8
BLACK
6
CONTINUOUS
10
133.2049130000000048
20
-123.2568379999999877
11
132.5382459999999867
21
-124.0187419999999889
0
LINE
8
BLACK
6
CONTINUOUS
10
132.5382459999999867
20
-124.0187419999999889
11
132.8239609999999971
21
-124.0187419999999889
0
LINE
8
BLACK
6
CONTINUOUS
10
132.8239609999999971
20
-124.0187419999999889
11
133.0144369999999867
21
-124.113979999999998
0
LINE
8
BLACK
6
CONTINUOUS
10
133.0144369999999867
20
-124.113979999999998
11
133.1096749999999815
21
-124.2092189999999903
0
LINE
8
BLACK
6
CONTINUOUS
10
133.1096749999999815
20
-124.2092189999999903
11
133.2049130000000048
21
-124.3996949999999941
0
LINE
8
BLACK
6
CONTINUOUS
10
133.2049130000000048
20
-124.3996949999999941
11
133.2049130000000048
21
-124.8758849999999967
0
LINE
8
BLACK
6
CONTINUOUS
10
133.2049130000000048
20
-124.8758849999999967
11
133.1096749999999815
21
-125.0663610000000006
0
LINE
8
BLACK
6
CONTINUOUS
10
133.1096749999999815
20
-125.0663610000000006
11
133.0144369999999867
21
-125.1615999999999929
0
LINE
8
BLACK
6
CONTINUOUS
10
133.0144369999999867
20
-125.1615999999999929
11
132.8239609999999971
21
-125.2568379999999877
0
LINE
8
BLACK
6
CONTINUOUS
10
132.8239609999999971
20
-125.2568379999999877
11
132.2525320000000022
21
-125.2568379999999877
0
LINE
8
BLACK
6
CONTINUOUS
10
132.2525320000000022
20
-125.2568379999999877
11
132.0620559999999841
21
-125.1615999999999929
0
LINE
8
BLACK
6
CONTINUOUS
10
132.0620559999999841
20
-125.1615999999999929
11
131.9668179999999893
21
-125.0663610000000006
0
LINE
8
BLACK
6
CONTINUOUS
10
135.0144369999999867
20
-123.2568379999999877
11
134.0620559999999841
21
-123.2568379999999877
0
LINE
8
BLACK
6
CONTINUOUS
10
134.0620559999999841
20
-123.2568379999999877
11
133.9668179999999893
21
-124.2092189999999903
0
LINE
8
BLACK
6
CONTINUOUS
10
133.9668179999999893
20
-124.2092189999999903
11
134.0620559999999841
21
-124.113979999999998
0
LINE
8
BLACK
6
CONTINUOUS
10
134.0620559999999841
20
-124.113979999999998
11
134.2525320000000022
21
-124.0187419999999889
0
LINE
8
BLACK
6
CONTINUOUS
10
134.2525320000000022
20
-124.0187419999999889
11
134.7287230000000022
21
-124.0187419999999889
0
LINE
8
BLACK
6
CONTINUOUS
10
134.7287230000000022
20
-124.0187419999999889
11
134.9191989999999919
21
-124.113979999999998
0
LINE
8
BLACK
6
CONTINUOUS
10
134.9191989999999919
20
-124.113979999999998
11
135.0144369999999867
21
-124.2092189999999903
0
LINE
8
BLACK
6
CONTINUOUS
10
135.0144369999999867
20
-124.2092189999999903
11
135.1096749999999815
21
-124.3996949999999941
0
LINE
8
BLACK
6
CONTINUOUS
10
135.1096749999999815
20
-124.3996949999999941
11
135.1096749999999815
21
-124.8758849999999967
0
LINE
8
BLACK
6
CONTINUOUS
10
135.1096749999999815
20
-124.8758849999999967
11
135.0144369999999867
21
-125.0663610000000006
0
LINE
8
BLACK
6
CONTINUOUS
10
135.0144369999999867
20
-125.0663610000000006
11
134.9191989999999919
21
-125.1615999999999929
0
LINE
8
BLACK
6
CONTINUOUS
10
134.9191989999999919
20
-125.1615999999999929
11
134.7287230000000022
21
-125.2568379999999877
0
LINE
8
BLACK
6
CONTINUOUS
10
134.7287230000000022
20
-125.2568379999999877
11
134.2525320000000022
21
-125.2568379999999877
0
LINE
8
BLACK
6
CONTINUOUS
10
134.2525320000000022
20
-125.2568379999999877
11
134.0620559999999841
21
-125.1615999999999929
0
LINE
8
BLACK
6
CONTINUOUS
10
134.0620559999999841
20
-125.1615999999999929
11
133.9668179999999893
21
-125.0663610000000006
0
LINE
8
BLACK
6
CONTINUOUS
10
136.8239609999999971
20
-123.9235039999999941
11
136.8239609999999971
21
-125.2568379999999877
0
LINE
8
BLACK
6
CONTINUOUS
10
136.347769999999997
20
-123.1615999999999929
11
135.8715799999999945
21
-124.590170999999998
0
LINE
8
BLACK
6
CONTINUOUS
10
135.8715799999999945
20
-124.590170999999998
11
137.1096749999999815
21
-124.590170999999998
0
LINE
8
BLACK
6
CONTINUOUS
10
137.7763419999999996
20
-123.2568379999999877
11
137.7763419999999996
21
-123.6377899999999954
0
LINE
8
BLACK
6
CONTINUOUS
10
138.5382469999999842
20
-123.2568379999999877
11
138.5382469999999842
21
-123.6377899999999954
0
LINE
8
BLACK
6
CONTINUOUS
10
141.4906289999999842
20
-126.0187419999999889
11
141.3953899999999919
21
-125.9235039999999941
0
LINE
8
BLACK
6
CONTINUOUS
10
141.3953899999999919
20
-125.9235039999999941
11
141.2049140000000023
21
-125.6377899999999954
0
LINE
8
BLACK
6
CONTINUOUS
10
141.2049140000000023
20
-125.6377899999999954
11
141.1096760000000074
21
-125.4473139999999916
0
LINE
8
BLACK
6
CONTINUOUS
10
141.1096760000000074
20
-125.4473139999999916
11
141.0144379999999842
21
-125.1615999999999929
0
LINE
8
BLACK
6
CONTINUOUS
10
141.0144379999999842
20
-125.1615999999999929
11
140.9191999999999894
21
-124.6854089999999928
0
LINE
8
BLACK
6
CONTINUOUS
10
140.9191999999999894
20
-124.6854089999999928
11
140.9191999999999894
21
-124.3044569999999993
0
LINE
8
BLACK
6
CONTINUOUS
10
140.9191999999999894
20
-124.3044569999999993
11
141.0144379999999842
21
-123.8282659999999993
0
LINE
8
BLACK
6
CONTINUOUS
10
141.0144379999999842
20
-123.8282659999999993
11
141.1096760000000074
21
-123.5425520000000006
0
LINE
8
BLACK
6
CONTINUOUS
10
141.1096760000000074
20
-123.5425520000000006
11
141.2049140000000023
21
-123.3520759999999967
0
LINE
8
BLACK
6
CONTINUOUS
10
141.2049140000000023
20
-123.3520759999999967
11
141.3953899999999919
21
-123.0663610000000006
0
LINE
8
BLACK
6
CONTINUOUS
10
141.3953899999999919
20
-123.0663610000000006
11
141.4906289999999842
21
-122.9711229999999915
0
LINE
8
BLACK
6
CONTINUOUS
10
142.1572950000000048
20
-123.4473139999999916
11
142.2525329999999997
21
-123.3520759999999967
0
LINE
8
BLACK
6
CONTINUOUS
10
142.2525329999999997
20
-123.3520759999999967
11
142.4430089999999893
21
-123.2568379999999877
0
LINE
8
BLACK
6
CONTINUOUS
10
142.4430089999999893
20
-123.2568379999999877
11
142.9191999999999894
21
-123.2568379999999877
0
LINE
8
BLACK
6
CONTINUOUS
10
142.9191999999999894
20
-123.2568379999999877
11
143.1096760000000074
21
-123.3520759999999967
0
LINE
8
BLACK
6
CONTINUOUS
10
143.1096760000000074
20
-123.3520759999999967
11
143.2049140000000023
21
-123.4473139999999916
0
LINE
8
BLACK
6
CONTINUOUS
10
143.2049140000000023
20
-123.4473139999999916
11
143.3001519999999971
21
-123.6377899999999954
0
LINE
8
BLACK
6
CONTINUOUS
10
143.3001519999999971
20
-123.6377899999999954
11
143.3001519999999971
21
-123.8282659999999993
0
LINE
8
BLACK
6
CONTINUOUS
10
143.3001519999999971
20
-123.8282659999999993
11
143.2049140000000023
21
-124.113979999999998
0
LINE
8
BLACK
6
CONTINUOUS
10
143.2049140000000023
20
-124.113979999999998
11
142.0620569999999816
21
-125.2568379999999877
0
LINE
8
BLACK
6
CONTINUOUS
10
142.0620569999999816
20
-125.2568379999999877
11
143.3001519999999971
21
-125.2568379999999877
0
LINE
8
BLACK
6
CONTINUOUS
10
145.0144379999999842
20
-123.9235039999999941
11
145.0144379999999842
21
-125.2568379999999877
0
LINE
8
BLACK
6
CONTINUOUS
10
144.5382469999999842
20
-123.1615999999999929
11
144.0620569999999816
21
-124.590170999999998
0
LINE
8
BLACK
6
CONTINUOUS
10
144.0620569999999816
20
-124.590170999999998
11
145.3001519999999971
21
-124.590170999999998
0
LINE
8
BLACK
6
CONTINUOUS
10
147.5858670000000075
20
-125.2568379999999877
11
147.5858670000000075
21
-123.2568379999999877
0
LINE
8
BLACK
6
CONTINUOUS
10
148.4430099999999868
20
-125.2568379999999877
11
148.4430099999999868
21
-124.2092189999999903
0
LINE
8
BLACK
6
CONTINUOUS
10
148.4430099999999868
20
-124.2092189999999903
11
148.347771999999992
21
-124.0187419999999889
0
LINE
8
BLACK
6
CONTINUOUS
10
148.347771999999992
20
-124.0187419999999889
11
148.1572960000000023
21
-123.9235039999999941
0
LINE
8
BLACK
6
CONTINUOUS
10
148.1572960000000023
20
-123.9235039999999941
11
147.8715809999999919
21
-123.9235039999999941
0
LINE
8
BLACK
6
CONTINUOUS
10
147.8715809999999919
20
-123.9235039999999941
11
147.6811050000000023
21
-124.0187419999999889
0
LINE
8
BLACK
6
CONTINUOUS
10
147.6811050000000023
20
-124.0187419999999889
11
147.5858670000000075
21
-124.113979999999998
0
LINE
8
BLACK
6
CONTINUOUS
10
149.6811050000000023
20
-125.2568379999999877
11
149.4906289999999842
21
-125.1615999999999929
0
LINE
8
BLACK
6
CONTINUOUS
10
149.4906289999999842
20
-125.1615999999999929
11
149.3953909999999894
21
-125.0663610000000006
0
LINE
8
BLACK
6
CONTINUOUS
10
149.3953909999999894
20
-125.0663610000000006
11
149.3001529999999946
21
-124.8758849999999967
0
LINE
8
BLACK
6
CONTINUOUS
10
149.3001529999999946
20
-124.8758849999999967
11
149.3001529999999946
21
-124.3044569999999993
0
LINE
8
BLACK
6
CONTINUOUS
10
149.3001529999999946
20
-124.3044569999999993
11
149.3953909999999894
21
-124.113979999999998
0
LINE
8
BLACK
6
CONTINUOUS
10
149.3953909999999894
20
-124.113979999999998
11
149.4906289999999842
21
-124.0187419999999889
0
LINE
8
BLACK
6
CONTINUOUS
10
149.4906289999999842
20
-124.0187419999999889
11
149.6811050000000023
21
-123.9235039999999941
0
LINE
8
BLACK
6
CONTINUOUS
10
149.6811050000000023
20
-123.9235039999999941
11
149.9668199999999842
21
-123.9235039999999941
0
LINE
8
BLACK
6
CONTINUOUS
10
149.9668199999999842
20
-123.9235039999999941
11
150.1572960000000023
21
-124.0187419999999889
0
LINE
8
BLACK
6
CONTINUOUS
10
150.1572960000000023
20
-124.0187419999999889
11
150.2525339999999971
21
-124.113979999999998
0
LINE
8
BLACK
6
CONTINUOUS
10
150.2525339999999971
20
-124.113979999999998
11
150.347771999999992
21
-124.3044569999999993
0
LINE
8
BLACK
6
CONTINUOUS
10
150.347771999999992
20
-124.3044569999999993
11
150.347771999999992
21
-124.8758849999999967
0
LINE
8
BLACK
6
CONTINUOUS
10
150.347771999999992
20
-124.8758849999999967
11
150.2525339999999971
21
-125.0663610000000006
0
LINE
8
BLACK
6
CONTINUOUS
10
150.2525339999999971
20
-125.0663610000000006
11
150.1572960000000023
21
-125.1615999999999929
0
LINE
8
BLACK
6
CONTINUOUS
10
150.1572960000000023
20
-125.1615999999999929
11
149.9668199999999842
21
-125.2568379999999877
0
LINE
8
BLACK
6
CONTINUOUS
10
149.9668199999999842
20
-125.2568379999999877
11
149.6811050000000023
21
-125.2568379999999877
0
LINE
8
BLACK
6
CONTINUOUS
10
151.4906289999999842
20
-125.2568379999999877
11
151.3001529999999946
21
-125.1615999999999929
0
LINE
8
BLACK
6
CONTINUOUS
10
151.3001529999999946
20
-125.1615999999999929
11
151.2049149999999997
21
-124.9711229999999915
0
LINE
8
BLACK
6
CONTINUOUS
10
151.2049149999999997
20
-124.9711229999999915
11
151.2049149999999997
21
-123.2568379999999877
0
LINE
8
BLACK
6
CONTINUOUS
10
153.0144389999999817
20
-125.1615999999999929
11
152.823962999999992
21
-125.2568379999999877
0
LINE
8
BLACK
6
CONTINUOUS
10
152.823962999999992
20
-125.2568379999999877
11
152.4430099999999868
21
-125.2568379999999877
0
LINE
8
BLACK
6
CONTINUOUS
10
152.4430099999999868
20
-125.2568379999999877
11
152.2525339999999971
21
-125.1615999999999929
0
LINE
8
BLACK
6
CONTINUOUS
10
152.2525339999999971
20
-125.1615999999999929
11
152.1572960000000023
21
-124.9711229999999915
0
LINE
8
BLACK
6
CONTINUOUS
10
152.1572960000000023
20
-124.9711229999999915
11
152.1572960000000023
21
-124.2092189999999903
0
LINE
8
BLACK
6
CONTINUOUS
10
152.1572960000000023
20
-124.2092189999999903
11
152.2525339999999971
21
-124.0187419999999889
0
LINE
8
BLACK
6
CONTINUOUS
10
152.2525339999999971
20
-124.0187419999999889
11
152.4430099999999868
21
-123.9235039999999941
0
LINE
8
BLACK
6
CONTINUOUS
10
152.4430099999999868
20
-123.9235039999999941
11
152.823962999999992
21
-123.9235039999999941
0
LINE
8
BLACK
6
CONTINUOUS
10
152.823962999999992
20
-123.9235039999999941
11
153.0144389999999817
21
-124.0187419999999889
0
LINE
8
BLACK
6
CONTINUOUS
10
153.0144389999999817
20
-124.0187419999999889
11
153.1096770000000049
21
-124.2092189999999903
0
LINE
8
BLACK
6
CONTINUOUS
10
153.1096770000000049
20
-124.2092189999999903
11
153.1096770000000049
21
-124.3996949999999941
0
LINE
8
BLACK
6
CONTINUOUS
10
153.1096770000000049
20
-124.3996949999999941
11
152.1572960000000023
21
-124.590170999999998
0
LINE
8
BLACK
6
CONTINUOUS
10
153.8715819999999894
20
-125.1615999999999929
11
154.0620579999999791
21
-125.2568379999999877
0
LINE
8
BLACK
6
CONTINUOUS
10
154.0620579999999791
20
-125.2568379999999877
11
154.4430099999999868
21
-125.2568379999999877
0
LINE
8
BLACK
6
CONTINUOUS
10
154.4430099999999868
20
-125.2568379999999877
11
154.6334870000000024
21
-125.1615999999999929
0
LINE
8
BLACK
6
CONTINUOUS
10
154.6334870000000024
20
-125.1615999999999929
11
154.7287249999999972
21
-124.9711229999999915
0
LINE
8
BLACK
6
CONTINUOUS
10
154.7287249999999972
20
-124.9711229999999915
11
154.7287249999999972
21
-124.8758849999999967
0
LINE
8
BLACK
6
CONTINUOUS
10
154.7287249999999972
20
-124.8758849999999967
11
154.6334870000000024
21
-124.6854089999999928
0
LINE
8
BLACK
6
CONTINUOUS
10
154.6334870000000024
20
-124.6854089999999928
11
154.4430099999999868
21
-124.590170999999998
0
LINE
8
BLACK
6
CONTINUOUS
10
154.4430099999999868
20
-124.590170999999998
11
154.1572960000000023
21
-124.590170999999998
0
LINE
8
BLACK
6
CONTINUOUS
10
154.1572960000000023
20
-124.590170999999998
11
153.9668199999999842
21
-124.494932999999989
0
LINE
8
BLACK
6
CONTINUOUS
10
153.9668199999999842
20
-124.494932999999989
11
153.8715819999999894
21
-124.3044569999999993
0
LINE
8
BLACK
6
CONTINUOUS
10
153.8715819999999894
20
-124.3044569999999993
11
153.8715819999999894
21
-124.2092189999999903
0
LINE
8
BLACK
6
CONTINUOUS
10
153.8715819999999894
20
-124.2092189999999903
11
153.9668199999999842
21
-124.0187419999999889
0
LINE
8
BLACK
6
CONTINUOUS
10
153.9668199999999842
20
-124.0187419999999889
11
154.1572960000000023
21
-123.9235039999999941
0
LINE
8
BLACK
6
CONTINUOUS
10
154.1572960000000023
20
-123.9235039999999941
11
154.4430099999999868
21
-123.9235039999999941
0
LINE
8
BLACK
6
CONTINUOUS
10
154.4430099999999868
20
-123.9235039999999941
11
154.6334870000000024
21
-124.0187419999999889
0
LINE
8
BLACK
6
CONTINUOUS
10
155.3953919999999869
20
-126.0187419999999889
11
155.4906299999999817
21
-125.9235039999999941
0
LINE
8
BLACK
6
CONTINUOUS
10
155.4906299999999817
20
-125.9235039999999941
11
155.6811059999999998
21
-125.6377899999999954
0
LINE
8
BLACK
6
CONTINUOUS
10
155.6811059999999998
20
-125.6377899999999954
11
155.7763439999999946
21
-125.4473139999999916
0
LINE
8
BLACK
6
CONTINUOUS
10
155.7763439999999946
20
-125.4473139999999916
11
155.8715819999999894
21
-125.1615999999999929
0
LINE
8
BLACK
6
CONTINUOUS
10
155.8715819999999894
20
-125.1615999999999929
11
155.9668199999999842
21
-124.6854089999999928
0
LINE
8
BLACK
6
CONTINUOUS
10
155.9668199999999842
20
-124.6854089999999928
11
155.9668199999999842
21
-124.3044569999999993
0
LINE
8
BLACK
6
CONTINUOUS
10
155.9668199999999842
20
-124.3044569999999993
11
155.8715819999999894
21
-123.8282659999999993
0
LINE
8
BLACK
6
CONTINUOUS
10
155.8715819999999894
20
-123.8282659999999993
11
155.7763439999999946
21
-123.5425520000000006
0
LINE
8
BLACK
6
CONTINUOUS
10
155.7763439999999946
20
-123.5425520000000006
11
155.6811059999999998
21
-123.3520759999999967
0
LINE
8
BLACK
6
CONTINUOUS
10
155.6811059999999998
20
-123.3520759999999967
11
155.4906299999999817
21
-123.0663610000000006
0
LINE
8
BLACK
6
CONTINUOUS
10
155.4906299999999817
20
-123.0663610000000006
11
155.3953919999999869
21
-122.9711229999999915
0
LINE
8
BLACK
6
CONTINUOUS
10
105.144999999999996
20
-126.3870000000000005
11
105.144999999999996
21
-127.5769999999999982
0
LINE
8
BLACK
6
CONTINUOUS
10
104.5499999999999972
20
-126.9819999999999993
11
105.7399999999999949
21
-126.9819999999999993
0
LINE
8
BLACK
6
CONTINUOUS
10
109.3953869999999995
20
-127.8968379999999883
11
108.252529999999993
21
-127.8968379999999883
0
LINE
8
BLACK
6
CONTINUOUS
10
108.8239579999999904
20
-127.8968379999999883
11
108.8239579999999904
21
-125.8968379999999883
0
LINE
8
BLACK
6
CONTINUOUS
10
108.8239579999999904
20
-125.8968379999999883
11
108.6334820000000008
21
-126.1825520000000012
0
LINE
8
BLACK
6
CONTINUOUS
10
108.6334820000000008
20
-126.1825520000000012
11
108.4430059999999969
21
-126.3730279999999908
0
LINE
8
BLACK
6
CONTINUOUS
10
108.4430059999999969
20
-126.3730279999999908
11
108.252529999999993
21
-126.4682659999999998
0
LINE
8
BLACK
6
CONTINUOUS
10
110.252529999999993
20
-127.7063610000000011
11
110.3477680000000021
21
-127.8015999999999934
0
LINE
8
BLACK
6
CONTINUOUS
10
110.3477680000000021
20
-127.8015999999999934
11
110.252529999999993
21
-127.8968379999999883
0
LINE
8
BLACK
6
CONTINUOUS
10
110.252529999999993
20
-127.8968379999999883
11
110.1572919999999982
21
-127.8015999999999934
0
LINE
8
BLACK
6
CONTINUOUS
10
110.1572919999999982
20
-127.8015999999999934
11
110.252529999999993
21
-127.7063610000000011
0
LINE
8
BLACK
6
CONTINUOUS
10
110.252529999999993
20
-127.7063610000000011
11
110.252529999999993
21
-127.8968379999999883
0
LINE
8
BLACK
6
CONTINUOUS
10
112.252529999999993
20
-127.8968379999999883
11
111.1096730000000008
21
-127.8968379999999883
0
LINE
8
BLACK
6
CONTINUOUS
10
111.6811009999999982
20
-127.8968379999999883
11
111.6811009999999982
21
-125.8968379999999883
0
LINE
8
BLACK
6
CONTINUOUS
10
111.6811009999999982
20
-125.8968379999999883
11
111.4906249999999943
21
-126.1825520000000012
0
LINE
8
BLACK
6
CONTINUOUS
10
111.4906249999999943
20
-126.1825520000000012
11
111.3001489999999905
21
-126.3730279999999908
0
LINE
8
BLACK
6
CONTINUOUS
10
111.3001489999999905
20
-126.3730279999999908
11
111.1096730000000008
21
-126.4682659999999998
0
LINE
8
BLACK
6
CONTINUOUS
10
113.2049109999999956
20
-127.8968379999999883
11
113.5858629999999891
21
-127.8968379999999883
0
LINE
8
BLACK
6
CONTINUOUS
10
113.5858629999999891
20
-127.8968379999999883
11
113.7763399999999905
21
-127.8015999999999934
0
LINE
8
BLACK
6
CONTINUOUS
10
113.7763399999999905
20
-127.8015999999999934
11
113.8715779999999995
21
-127.7063610000000011
0
LINE
8
BLACK
6
CONTINUOUS
10
113.8715779999999995
20
-127.7063610000000011
11
114.0620539999999892
21
-127.4206469999999882
0
LINE
8
BLACK
6
CONTINUOUS
10
114.0620539999999892
20
-127.4206469999999882
11
114.1572919999999982
21
-127.0396949999999947
0
LINE
8
BLACK
6
CONTINUOUS
10
114.1572919999999982
20
-127.0396949999999947
11
114.1572919999999982
21
-126.277789999999996
0
LINE
8
BLACK
6
CONTINUOUS
10
114.1572919999999982
20
-126.277789999999996
11
114.0620539999999892
21
-126.0873139999999921
0
LINE
8
BLACK
6
CONTINUOUS
10
114.0620539999999892
20
-126.0873139999999921
11
113.9668159999999943
21
-125.9920759999999973
0
LINE
8
BLACK
6
CONTINUOUS
10
113.9668159999999943
20
-125.9920759999999973
11
113.7763399999999905
21
-125.8968379999999883
0
LINE
8
BLACK
6
CONTINUOUS
10
113.7763399999999905
20
-125.8968379999999883
11
113.3953869999999995
21
-125.8968379999999883
0
LINE
8
BLACK
6
CONTINUOUS
10
113.3953869999999995
20
-125.8968379999999883
11
113.2049109999999956
21
-125.9920759999999973
0
LINE
8
BLACK
6
CONTINUOUS
10
113.2049109999999956
20
-125.9920759999999973
11
113.1096730000000008
21
-126.0873139999999921
0
LINE
8
BLACK
6
CONTINUOUS
10
113.1096730000000008
20
-126.0873139999999921
11
113.0144349999999918
21
-126.277789999999996
0
LINE
8
BLACK
6
CONTINUOUS
10
113.0144349999999918
20
-126.277789999999996
11
113.0144349999999918
21
-126.7539799999999985
0
LINE
8
BLACK
6
CONTINUOUS
10
113.0144349999999918
20
-126.7539799999999985
11
113.1096730000000008
21
-126.9444569999999999
0
LINE
8
BLACK
6
CONTINUOUS
10
113.1096730000000008
20
-126.9444569999999999
11
113.2049109999999956
21
-127.0396949999999947
0
LINE
8
BLACK
6
CONTINUOUS
10
113.2049109999999956
20
-127.0396949999999947
11
113.3953869999999995
21
-127.1349329999999895
0
LINE
8
BLACK
6
CONTINUOUS
10
113.3953869999999995
20
-127.1349329999999895
11
113.7763399999999905
21
-127.1349329999999895
0
LINE
8
BLACK
6
CONTINUOUS
10
113.7763399999999905
20
-127.1349329999999895
11
113.9668159999999943
21
-127.0396949999999947
0
LINE
8
BLACK
6
CONTINUOUS
10
113.9668159999999943
20
-127.0396949999999947
11
114.0620539999999892
21
-126.9444569999999999
0
LINE
8
BLACK
6
CONTINUOUS
10
114.0620539999999892
20
-126.9444569999999999
11
114.1572919999999982
21
-126.7539799999999985
0
LINE
8
BLACK
6
CONTINUOUS
10
115.3953869999999995
20
-125.8968379999999883
11
115.5858640000000008
21
-125.8968379999999883
0
LINE
8
BLACK
6
CONTINUOUS
10
115.5858640000000008
20
-125.8968379999999883
11
115.7763399999999905
21
-125.9920759999999973
0
LINE
8
BLACK
6
CONTINUOUS
10
115.7763399999999905
20
-125.9920759999999973
11
115.8715779999999995
21
-126.0873139999999921
0
LINE
8
BLACK
6
CONTINUOUS
10
115.8715779999999995
20
-126.0873139999999921
11
115.9668159999999943
21
-126.277789999999996
0
LINE
8
BLACK
6
CONTINUOUS
10
115.9668159999999943
20
-126.277789999999996
11
116.0620539999999892
21
-126.6587419999999895
0
LINE
8
BLACK
6
CONTINUOUS
10
116.0620539999999892
20
-126.6587419999999895
11
116.0620539999999892
21
-127.1349329999999895
0
LINE
8
BLACK
6
CONTINUOUS
10
116.0620539999999892
20
-127.1349329999999895
11
115.9668159999999943
21
-127.5158849999999973
0
LINE
8
BLACK
6
CONTINUOUS
10
115.9668159999999943
20
-127.5158849999999973
11
115.8715779999999995
21
-127.7063610000000011
0
LINE
8
BLACK
6
CONTINUOUS
10
115.8715779999999995
20
-127.7063610000000011
11
115.7763399999999905
21
-127.8015999999999934
0
LINE
8
BLACK
6
CONTINUOUS
10
115.7763399999999905
20
-127.8015999999999934
11
115.5858640000000008
21
-127.8968379999999883
0
LINE
8
BLACK
6
CONTINUOUS
10
115.5858640000000008
20
-127.8968379999999883
11
115.3953869999999995
21
-127.8968379999999883
0
LINE
8
BLACK
6
CONTINUOUS
10
115.3953869999999995
20
-127.8968379999999883
11
115.2049109999999956
21
-127.8015999999999934
0
LINE
8
BLACK
6
CONTINUOUS
10
115.2049109999999956
20
-127.8015999999999934
11
115.1096730000000008
21
-127.7063610000000011
0
LINE
8
BLACK
6
CONTINUOUS
10
115.1096730000000008
20
-127.7063610000000011
11
115.0144349999999918
21
-127.5158849999999973
0
LINE
8
BLACK
6
CONTINUOUS
10
115.0144349999999918
20
-127.5158849999999973
11
114.9191969999999969
21
-127.1349329999999895
0
LINE
8
BLACK
6
CONTINUOUS
10
114.9191969999999969
20
-127.1349329999999895
11
114.9191969999999969
21
-126.6587419999999895
0
LINE
8
BLACK
6
CONTINUOUS
10
114.9191969999999969
20
-126.6587419999999895
11
115.0144349999999918
21
-126.277789999999996
0
LINE
8
BLACK
6
CONTINUOUS
10
115.0144349999999918
20
-126.277789999999996
11
115.1096730000000008
21
-126.0873139999999921
0
LINE
8
BLACK
6
CONTINUOUS
10
115.1096730000000008
20
-126.0873139999999921
11
115.2049109999999956
21
-125.9920759999999973
0
LINE
8
BLACK
6
CONTINUOUS
10
115.2049109999999956
20
-125.9920759999999973
11
115.3953869999999995
21
-125.8968379999999883
0
LINE
8
BLACK
6
CONTINUOUS
10
116.9191969999999969
20
-127.8968379999999883
11
116.9191969999999969
21
-126.5635039999999947
0
LINE
8
BLACK
6
CONTINUOUS
10
116.9191969999999969
20
-126.7539799999999985
11
117.0144349999999918
21
-126.6587419999999895
0
LINE
8
BLACK
6
CONTINUOUS
10
117.0144349999999918
20
-126.6587419999999895
11
117.2049109999999956
21
-126.5635039999999947
0
LINE
8
BLACK
6
CONTINUOUS
10
117.2049109999999956
20
-126.5635039999999947
11
117.4906259999999918
21
-126.5635039999999947
0
LINE
8
BLACK
6
CONTINUOUS
10
117.4906259999999918
20
-126.5635039999999947
11
117.6811019999999957
21
-126.6587419999999895
0
LINE
8
BLACK
6
CONTINUOUS
10
117.6811019999999957
20
-126.6587419999999895
11
117.7763399999999905
21
-126.8492189999999908
0
LINE
8
BLACK
6
CONTINUOUS
10
117.7763399999999905
20
-126.8492189999999908
11
117.7763399999999905
21
-127.8968379999999883
0
LINE
8
BLACK
6
CONTINUOUS
10
117.7763399999999905
20
-126.8492189999999908
11
117.8715779999999995
21
-126.6587419999999895
0
LINE
8
BLACK
6
CONTINUOUS
10
117.8715779999999995
20
-126.6587419999999895
11
118.0620539999999892
21
-126.5635039999999947
0
LINE
8
BLACK
6
CONTINUOUS
10
118.0620539999999892
20
-126.5635039999999947
11
118.3477679999999879
21
-126.5635039999999947
0
LINE
8
BLACK
6
CONTINUOUS
10
118.3477679999999879
20
-126.5635039999999947
11
118.5382449999999892
21
-126.6587419999999895
0
LINE
8
BLACK
6
CONTINUOUS
10
118.5382449999999892
20
-126.6587419999999895
11
118.6334829999999982
21
-126.8492189999999908
0
LINE
8
BLACK
6
CONTINUOUS
10
118.6334829999999982
20
-126.8492189999999908
11
118.6334829999999982
21
-127.8968379999999883
0
LINE
8
BLACK
6
CONTINUOUS
10
119.5858640000000008
20
-127.8968379999999883
11
119.5858640000000008
21
-126.5635039999999947
0
LINE
8
BLACK
6
CONTINUOUS
10
119.5858640000000008
20
-126.7539799999999985
11
119.6811019999999957
21
-126.6587419999999895
0
LINE
8
BLACK
6
CONTINUOUS
10
119.6811019999999957
20
-126.6587419999999895
11
119.8715779999999995
21
-126.5635039999999947
0
LINE
8
BLACK
6
CONTINUOUS
10
119.8715779999999995
20
-126.5635039999999947
11
120.1572929999999957
21
-126.5635039999999947
0
LINE
8
BLACK
6
CONTINUOUS
10
120.1572929999999957
20
-126.5635039999999947
11
120.3477689999999996
21
-126.6587419999999895
0
LINE
8
BLACK
6
CONTINUOUS
10
120.3477689999999996
20
-126.6587419999999895
11
120.4430069999999944
21
-126.8492189999999908
0
LINE
8
BLACK
6
CONTINUOUS
10
120.4430069999999944
20
-126.8492189999999908
11
120.4430069999999944
21
-127.8968379999999883
0
LINE
8
BLACK
6
CONTINUOUS
10
120.4430069999999944
20
-126.8492189999999908
11
120.5382449999999892
21
-126.6587419999999895
0
LINE
8
BLACK
6
CONTINUOUS
10
120.5382449999999892
20
-126.6587419999999895
11
120.7287209999999931
21
-126.5635039999999947
0
LINE
8
BLACK
6
CONTINUOUS
10
120.7287209999999931
20
-126.5635039999999947
11
121.0144349999999918
21
-126.5635039999999947
0
LINE
8
BLACK
6
CONTINUOUS
10
121.0144349999999918
20
-126.5635039999999947
11
121.2049119999999931
21
-126.6587419999999895
0
LINE
8
BLACK
6
CONTINUOUS
10
121.2049119999999931
20
-126.6587419999999895
11
121.3001499999999879
21
-126.8492189999999908
0
LINE
8
BLACK
6
CONTINUOUS
10
121.3001499999999879
20
-126.8492189999999908
11
121.3001499999999879
21
-127.8968379999999883
0
LINE
8
BLACK
6
CONTINUOUS
10
125.2049119999999931
20
-125.8015999999999934
11
123.4906269999999893
21
-128.373028000000005
0
LINE
8
BLACK
6
CONTINUOUS
10
127.776340999999988
20
-125.8968379999999883
11
127.9668179999999893
21
-125.8968379999999883
0
LINE
8
BLACK
6
CONTINUOUS
10
127.9668179999999893
20
-125.8968379999999883
11
128.1572940000000074
21
-125.9920759999999973
0
LINE
8
BLACK
6
CONTINUOUS
10
128.1572940000000074
20
-125.9920759999999973
11
128.2525320000000022
21
-126.0873139999999921
0
LINE
8
BLACK
6
CONTINUOUS
10
128.2525320000000022
20
-126.0873139999999921
11
128.347769999999997
21
-126.277789999999996
0
LINE
8
BLACK
6
CONTINUOUS
10
128.347769999999997
20
-126.277789999999996
11
128.4430079999999919
21
-126.6587419999999895
0
LINE
8
BLACK
6
CONTINUOUS
10
128.4430079999999919
20
-126.6587419999999895
11
128.4430079999999919
21
-127.1349329999999895
0
LINE
8
BLACK
6
CONTINUOUS
10
128.4430079999999919
20
-127.1349329999999895
11
128.347769999999997
21
-127.5158849999999973
0
LINE
8
BLACK
6
CONTINUOUS
10
128.347769999999997
20
-127.5158849999999973
11
128.2525320000000022
21
-127.7063610000000011
0
LINE
8
BLACK
6
CONTINUOUS
10
128.2525320000000022
20
-127.7063610000000011
11
128.1572940000000074
21
-127.8015999999999934
0
LINE
8
BLACK
6
CONTINUOUS
10
128.1572940000000074
20
-127.8015999999999934
11
127.9668179999999893
21
-127.8968379999999883
0
LINE
8
BLACK
6
CONTINUOUS
10
127.9668179999999893
20
-127.8968379999999883
11
127.776340999999988
21
-127.8968379999999883
0
LINE
8
BLACK
6
CONTINUOUS
10
127.776340999999988
20
-127.8968379999999883
11
127.5858649999999983
21
-127.8015999999999934
0
LINE
8
BLACK
6
CONTINUOUS
10
127.5858649999999983
20
-127.8015999999999934
11
127.4906269999999893
21
-127.7063610000000011
0
LINE
8
BLACK
6
CONTINUOUS
10
127.4906269999999893
20
-127.7063610000000011
11
127.3953889999999944
21
-127.5158849999999973
0
LINE
8
BLACK
6
CONTINUOUS
10
127.3953889999999944
20
-127.5158849999999973
11
127.3001509999999996
21
-127.1349329999999895
0
LINE
8
BLACK
6
CONTINUOUS
10
127.3001509999999996
20
-127.1349329999999895
11
127.3001509999999996
21
-126.6587419999999895
0
LINE
8
BLACK
6
CONTINUOUS
10
127.3001509999999996
20
-126.6587419999999895
11
127.3953889999999944
21
-126.277789999999996
0
LINE
8
BLACK
6
CONTINUOUS
10
127.3953889999999944
20
-126.277789999999996
11
127.4906269999999893
21
-126.0873139999999921
0
LINE
8
BLACK
6
CONTINUOUS
10
127.4906269999999893
20
-126.0873139999999921
11
127.5858649999999983
21
-125.9920759999999973
0
LINE
8
BLACK
6
CONTINUOUS
10
127.5858649999999983
20
-125.9920759999999973
11
127.776340999999988
21
-125.8968379999999883
0
LINE
8
BLACK
6
CONTINUOUS
10
129.3001509999999996
20
-127.7063610000000011
11
129.3953889999999944
21
-127.8015999999999934
0
LINE
8
BLACK
6
CONTINUOUS
10
129.3953889999999944
20
-127.8015999999999934
11
129.3001509999999996
21
-127.8968379999999883
0
LINE
8
BLACK
6
CONTINUOUS
10
129.3001509999999996
20
-127.8968379999999883
11
129.2049130000000048
21
-127.8015999999999934
0
LINE
8
BLACK
6
CONTINUOUS
10
129.2049130000000048
20
-127.8015999999999934
11
129.3001509999999996
21
-127.7063610000000011
0
LINE
8
BLACK
6
CONTINUOUS
10
129.3001509999999996
20
-127.7063610000000011
11
129.3001509999999996
21
-127.8968379999999883
0
LINE
8
BLACK
6
CONTINUOUS
10
130.6334839999999815
20
-125.8968379999999883
11
130.8239609999999971
21
-125.8968379999999883
0
LINE
8
BLACK
6
CONTINUOUS
10
130.8239609999999971
20
-125.8968379999999883
11
131.0144369999999867
21
-125.9920759999999973
0
LINE
8
BLACK
6
CONTINUOUS
10
131.0144369999999867
20
-125.9920759999999973
11
131.1096749999999815
21
-126.0873139999999921
0
LINE
8
BLACK
6
CONTINUOUS
10
131.1096749999999815
20
-126.0873139999999921
11
131.2049130000000048
21
-126.277789999999996
0
LINE
8
BLACK
6
CONTINUOUS
10
131.2049130000000048
20
-126.277789999999996
11
131.3001509999999996
21
-126.6587419999999895
0
LINE
8
BLACK
6
CONTINUOUS
10
131.3001509999999996
20
-126.6587419999999895
11
131.3001509999999996
21
-127.1349329999999895
0
LINE
8
BLACK
6
CONTINUOUS
10
131.3001509999999996
20
-127.1349329999999895
11
131.2049130000000048
21
-127.5158849999999973
0
LINE
8
BLACK
6
CONTINUOUS
10
131.2049130000000048
20
-127.5158849999999973
11
131.1096749999999815
21
-127.7063610000000011
0
LINE
8
BLACK
6
CONTINUOUS
10
131.1096749999999815
20
-127.7063610000000011
11
131.0144369999999867
21
-127.8015999999999934
0
LINE
8
BLACK
6
CONTINUOUS
10
131.0144369999999867
20
-127.8015999999999934
11
130.8239609999999971
21
-127.8968379999999883
0
LINE
8
BLACK
6
CONTINUOUS
10
130.8239609999999971
20
-127.8968379999999883
11
130.6334839999999815
21
-127.8968379999999883
0
LINE
8
BLACK
6
CONTINUOUS
10
130.6334839999999815
20
-127.8968379999999883
11
130.4430079999999919
21
-127.8015999999999934
0
LINE
8
BLACK
6
CONTINUOUS
10
130.4430079999999919
20
-127.8015999999999934
11
130.347769999999997
21
-127.7063610000000011
0
LINE
8
BLACK
6
CONTINUOUS
10
130.347769999999997
20
-127.7063610000000011
11
130.2525320000000022
21
-127.5158849999999973
0
LINE
8
BLACK
6
CONTINUOUS
10
130.2525320000000022
20
-127.5158849999999973
11
130.1572940000000074
21
-127.1349329999999895
0
LINE
8
BLACK
6
CONTINUOUS
10
130.1572940000000074
20
-127.1349329999999895
11
130.1572940000000074
21
-126.6587419999999895
0
LINE
8
BLACK
6
CONTINUOUS
10
130.1572940000000074
20
-126.6587419999999895
11
130.2525320000000022
21
-126.277789999999996
0
LINE
8
BLACK
6
CONTINUOUS
10
130.2525320000000022
20
-126.277789999999996
11
130.347769999999997
21
-126.0873139999999921
0
LINE
8
BLACK
6
CONTINUOUS
10
130.347769999999997
20
-126.0873139999999921
11
130.4430079999999919
21
-125.9920759999999973
0
LINE
8
BLACK
6
CONTINUOUS
10
130.4430079999999919
20
-125.9920759999999973
11
130.6334839999999815
21
-125.8968379999999883
0
LINE
8
BLACK
6
CONTINUOUS
10
133.0144369999999867
20
-126.5635039999999947
11
133.0144369999999867
21
-127.8968379999999883
0
LINE
8
BLACK
6
CONTINUOUS
10
132.5382459999999867
20
-125.8015999999999934
11
132.0620559999999841
21
-127.2301709999999986
0
LINE
8
BLACK
6
CONTINUOUS
10
132.0620559999999841
20
-127.2301709999999986
11
133.3001509999999996
21
-127.2301709999999986
0
LINE
8
BLACK
6
CONTINUOUS
10
134.9191989999999919
20
-125.8968379999999883
11
134.5382459999999867
21
-125.8968379999999883
0
LINE
8
BLACK
6
CONTINUOUS
10
134.5382459999999867
20
-125.8968379999999883
11
134.347769999999997
21
-125.9920759999999973
0
LINE
8
BLACK
6
CONTINUOUS
10
134.347769999999997
20
-125.9920759999999973
11
134.2525320000000022
21
-126.0873139999999921
0
LINE
8
BLACK
6
CONTINUOUS
10
134.2525320000000022
20
-126.0873139999999921
11
134.0620559999999841
21
-126.3730279999999908
0
LINE
8
BLACK
6
CONTINUOUS
10
134.0620559999999841
20
-126.3730279999999908
11
133.9668179999999893
21
-126.7539799999999985
0
LINE
8
BLACK
6
CONTINUOUS
10
133.9668179999999893
20
-126.7539799999999985
11
133.9668179999999893
21
-127.5158849999999973
0
LINE
8
BLACK
6
CONTINUOUS
10
133.9668179999999893
20
-127.5158849999999973
11
134.0620559999999841
21
-127.7063610000000011
0
LINE
8
BLACK
6
CONTINUOUS
10
134.0620559999999841
20
-127.7063610000000011
11
134.1572940000000074
21
-127.8015999999999934
0
LINE
8
BLACK
6
CONTINUOUS
10
134.1572940000000074
20
-127.8015999999999934
11
134.347769999999997
21
-127.8968379999999883
0
LINE
8
BLACK
6
CONTINUOUS
10
134.347769999999997
20
-127.8968379999999883
11
134.7287230000000022
21
-127.8968379999999883
0
LINE
8
BLACK
6
CONTINUOUS
10
134.7287230000000022
20
-127.8968379999999883
11
134.9191989999999919
21
-127.8015999999999934
0
LINE
8
BLACK
6
CONTINUOUS
10
134.9191989999999919
20
-127.8015999999999934
11
135.0144369999999867
21
-127.7063610000000011
0
LINE
8
BLACK
6
CONTINUOUS
10
135.0144369999999867
20
-127.7063610000000011
11
135.1096749999999815
21
-127.5158849999999973
0
LINE
8
BLACK
6
CONTINUOUS
10
135.1096749999999815
20
-127.5158849999999973
11
135.1096749999999815
21
-127.0396949999999947
0
LINE
8
BLACK
6
CONTINUOUS
10
135.1096749999999815
20
-127.0396949999999947
11
135.0144369999999867
21
-126.8492189999999908
0
LINE
8
BLACK
6
CONTINUOUS
10
135.0144369999999867
20
-126.8492189999999908
11
134.9191989999999919
21
-126.7539799999999985
0
LINE
8
BLACK
6
CONTINUOUS
10
134.9191989999999919
20
-126.7539799999999985
11
134.7287230000000022
21
-126.6587419999999895
0
LINE
8
BLACK
6
CONTINUOUS
10
134.7287230000000022
20
-126.6587419999999895
11
134.347769999999997
21
-126.6587419999999895
0
LINE
8
BLACK
6
CONTINUOUS
10
134.347769999999997
20
-126.6587419999999895
11
134.1572940000000074
21
-126.7539799999999985
0
LINE
8
BLACK
6
CONTINUOUS
10
134.1572940000000074
20
-126.7539799999999985
11
134.0620559999999841
21
-126.8492189999999908
0
LINE
8
BLACK
6
CONTINUOUS
10
134.0620559999999841
20
-126.8492189999999908
11
133.9668179999999893
21
-127.0396949999999947
0
LINE
8
BLACK
6
CONTINUOUS
10
136.0620559999999841
20
-127.8968379999999883
11
136.4430079999999919
21
-127.8968379999999883
0
LINE
8
BLACK
6
CONTINUOUS
10
136.4430079999999919
20
-127.8968379999999883
11
136.6334850000000074
21
-127.8015999999999934
0
LINE
8
BLACK
6
CONTINUOUS
10
136.6334850000000074
20
-127.8015999999999934
11
136.7287230000000022
21
-127.7063610000000011
0
LINE
8
BLACK
6
CONTINUOUS
10
136.7287230000000022
20
-127.7063610000000011
11
136.9191989999999919
21
-127.4206469999999882
0
LINE
8
BLACK
6
CONTINUOUS
10
136.9191989999999919
20
-127.4206469999999882
11
137.0144369999999867
21
-127.0396949999999947
0
LINE
8
BLACK
6
CONTINUOUS
10
137.0144369999999867
20
-127.0396949999999947
11
137.0144369999999867
21
-126.277789999999996
0
LINE
8
BLACK
6
CONTINUOUS
10
137.0144369999999867
20
-126.277789999999996
11
136.9191989999999919
21
-126.0873139999999921
0
LINE
8
BLACK
6
CONTINUOUS
10
136.9191989999999919
20
-126.0873139999999921
11
136.8239609999999971
21
-125.9920759999999973
0
LINE
8
BLACK
6
CONTINUOUS
10
136.8239609999999971
20
-125.9920759999999973
11
136.6334850000000074
21
-125.8968379999999883
0
LINE
8
BLACK
6
CONTINUOUS
10
136.6334850000000074
20
-125.8968379999999883
11
136.2525320000000022
21
-125.8968379999999883
0
LINE
8
BLACK
6
CONTINUOUS
10
136.2525320000000022
20
-125.8968379999999883
11
136.0620559999999841
21
-125.9920759999999973
0
LINE
8
BLACK
6
CONTINUOUS
10
136.0620559999999841
20
-125.9920759999999973
11
135.9668179999999893
21
-126.0873139999999921
0
LINE
8
BLACK
6
CONTINUOUS
10
135.9668179999999893
20
-126.0873139999999921
11
135.8715799999999945
21
-126.277789999999996
0
LINE
8
BLACK
6
CONTINUOUS
10
135.8715799999999945
20
-126.277789999999996
11
135.8715799999999945
21
-126.7539799999999985
0
LINE
8
BLACK
6
CONTINUOUS
10
135.8715799999999945
20
-126.7539799999999985
11
135.9668179999999893
21
-126.9444569999999999
0
LINE
8
BLACK
6
CONTINUOUS
10
135.9668179999999893
20
-126.9444569999999999
11
136.0620559999999841
21
-127.0396949999999947
0
LINE
8
BLACK
6
CONTINUOUS
10
136.0620559999999841
20
-127.0396949999999947
11
136.2525320000000022
21
-127.1349329999999895
0
LINE
8
BLACK
6
CONTINUOUS
10
136.2525320000000022
20
-127.1349329999999895
11
136.6334850000000074
21
-127.1349329999999895
0
LINE
8
BLACK
6
CONTINUOUS
10
136.6334850000000074
20
-127.1349329999999895
11
136.8239609999999971
21
-127.0396949999999947
0
LINE
8
BLACK
6
CONTINUOUS
10
136.8239609999999971
20
-127.0396949999999947
11
136.9191989999999919
21
-126.9444569999999999
0
LINE
8
BLACK
6
CONTINUOUS
10
136.9191989999999919
20
-126.9444569999999999
11
137.0144369999999867
21
-126.7539799999999985
0
LINE
8
BLACK
6
CONTINUOUS
10
137.7763419999999996
20
-125.8968379999999883
11
137.7763419999999996
21
-126.277789999999996
0
LINE
8
BLACK
6
CONTINUOUS
10
138.5382469999999842
20
-125.8968379999999883
11
138.5382469999999842
21
-126.277789999999996
0
LINE
8
BLACK
6
CONTINUOUS
10
141.4906289999999842
20
-128.6587419999999895
11
141.3953899999999919
21
-128.5635039999999947
0
LINE
8
BLACK
6
CONTINUOUS
10
141.3953899999999919
20
-128.5635039999999947
11
141.2049140000000023
21
-128.2777899999999818
0
LINE
8
BLACK
6
CONTINUOUS
10
141.2049140000000023
20
-128.2777899999999818
11
141.1096760000000074
21
-128.0873139999999921
0
LINE
8
BLACK
6
CONTINUOUS
10
141.1096760000000074
20
-128.0873139999999921
11
141.0144379999999842
21
-127.8015999999999934
0
LINE
8
BLACK
6
CONTINUOUS
10
141.0144379999999842
20
-127.8015999999999934
11
140.9191999999999894
21
-127.3254089999999934
0
LINE
8
BLACK
6
CONTINUOUS
10
140.9191999999999894
20
-127.3254089999999934
11
140.9191999999999894
21
-126.9444569999999999
0
LINE
8
BLACK
6
CONTINUOUS
10
140.9191999999999894
20
-126.9444569999999999
11
141.0144379999999842
21
-126.4682659999999998
0
LINE
8
BLACK
6
CONTINUOUS
10
141.0144379999999842
20
-126.4682659999999998
11
141.1096760000000074
21
-126.1825520000000012
0
LINE
8
BLACK
6
CONTINUOUS
10
141.1096760000000074
20
-126.1825520000000012
11
141.2049140000000023
21
-125.9920759999999973
0
LINE
8
BLACK
6
CONTINUOUS
10
141.2049140000000023
20
-125.9920759999999973
11
141.3953899999999919
21
-125.7063610000000011
0
LINE
8
BLACK
6
CONTINUOUS
10
141.3953899999999919
20
-125.7063610000000011
11
141.4906289999999842
21
-125.6111229999999921
0
LINE
8
BLACK
6
CONTINUOUS
10
142.0620569999999816
20
-125.8968379999999883
11
143.3953899999999919
21
-125.8968379999999883
0
LINE
8
BLACK
6
CONTINUOUS
10
143.3953899999999919
20
-125.8968379999999883
11
142.5382469999999842
21
-127.8968379999999883
0
LINE
8
BLACK
6
CONTINUOUS
10
145.1096760000000074
20
-125.8968379999999883
11
144.1572950000000048
21
-125.8968379999999883
0
LINE
8
BLACK
6
CONTINUOUS
10
144.1572950000000048
20
-125.8968379999999883
11
144.0620569999999816
21
-126.8492189999999908
0
LINE
8
BLACK
6
CONTINUOUS
10
144.0620569999999816
20
-126.8492189999999908
11
144.1572950000000048
21
-126.7539799999999985
0
LINE
8
BLACK
6
CONTINUOUS
10
144.1572950000000048
20
-126.7539799999999985
11
144.3477709999999945
21
-126.6587419999999895
0
LINE
8
BLACK
6
CONTINUOUS
10
144.3477709999999945
20
-126.6587419999999895
11
144.8239619999999945
21
-126.6587419999999895
0
LINE
8
BLACK
6
CONTINUOUS
10
144.8239619999999945
20
-126.6587419999999895
11
145.0144379999999842
21
-126.7539799999999985
0
LINE
8
BLACK
6
CONTINUOUS
10
145.0144379999999842
20
-126.7539799999999985
11
145.1096760000000074
21
-126.8492189999999908
0
LINE
8
BLACK
6
CONTINUOUS
10
145.1096760000000074
20
-126.8492189999999908
11
145.2049140000000023
21
-127.0396949999999947
0
LINE
8
BLACK
6
CONTINUOUS
10
145.2049140000000023
20
-127.0396949999999947
11
145.2049140000000023
21
-127.5158849999999973
0
LINE
8
BLACK
6
CONTINUOUS
10
145.2049140000000023
20
-127.5158849999999973
11
145.1096760000000074
21
-127.7063610000000011
0
LINE
8
BLACK
6
CONTINUOUS
10
145.1096760000000074
20
-127.7063610000000011
11
145.0144379999999842
21
-127.8015999999999934
0
LINE
8
BLACK
6
CONTINUOUS
10
145.0144379999999842
20
-127.8015999999999934
11
144.8239619999999945
21
-127.8968379999999883
0
LINE
8
BLACK
6
CONTINUOUS
10
144.8239619999999945
20
-127.8968379999999883
11
144.3477709999999945
21
-127.8968379999999883
0
LINE
8
BLACK
6
CONTINUOUS
10
144.3477709999999945
20
-127.8968379999999883
11
144.1572950000000048
21
-127.8015999999999934
0
LINE
8
BLACK
6
CONTINUOUS
10
144.1572950000000048
20
-127.8015999999999934
11
144.0620569999999816
21
-127.7063610000000011
0
LINE
8
BLACK
6
CONTINUOUS
10
147.5858670000000075
20
-127.8968379999999883
11
147.5858670000000075
21
-125.8968379999999883
0
LINE
8
BLACK
6
CONTINUOUS
10
148.4430099999999868
20
-127.8968379999999883
11
148.4430099999999868
21
-126.8492189999999908
0
LINE
8
BLACK
6
CONTINUOUS
10
148.4430099999999868
20
-126.8492189999999908
11
148.347771999999992
21
-126.6587419999999895
0
LINE
8
BLACK
6
CONTINUOUS
10
148.347771999999992
20
-126.6587419999999895
11
148.1572960000000023
21
-126.5635039999999947
0
LINE
8
BLACK
6
CONTINUOUS
10
148.1572960000000023
20
-126.5635039999999947
11
147.8715809999999919
21
-126.5635039999999947
0
LINE
8
BLACK
6
CONTINUOUS
10
147.8715809999999919
20
-126.5635039999999947
11
147.6811050000000023
21
-126.6587419999999895
0
LINE
8
BLACK
6
CONTINUOUS
10
147.6811050000000023
20
-126.6587419999999895
11
147.5858670000000075
21
-126.7539799999999985
0
LINE
8
BLACK
6
CONTINUOUS
10
149.6811050000000023
20
-127.8968379999999883
11
149.4906289999999842
21
-127.8015999999999934
0
LINE
8
BLACK
6
CONTINUOUS
10
149.4906289999999842
20
-127.8015999999999934
11
149.3953909999999894
21
-127.7063610000000011
0
LINE
8
BLACK
6
CONTINUOUS
10
149.3953909999999894
20
-127.7063610000000011
11
149.3001529999999946
21
-127.5158849999999973
0
LINE
8
BLACK
6
CONTINUOUS
10
149.3001529999999946
20
-127.5158849999999973
11
149.3001529999999946
21
-126.9444569999999999
0
LINE
8
BLACK
6
CONTINUOUS
10
149.3001529999999946
20
-126.9444569999999999
11
149.3953909999999894
21
-126.7539799999999985
0
LINE
8
BLACK
6
CONTINUOUS
10
149.3953909999999894
20
-126.7539799999999985
11
149.4906289999999842
21
-126.6587419999999895
0
LINE
8
BLACK
6
CONTINUOUS
10
149.4906289999999842
20
-126.6587419999999895
11
149.6811050000000023
21
-126.5635039999999947
0
LINE
8
BLACK
6
CONTINUOUS
10
149.6811050000000023
20
-126.5635039999999947
11
149.9668199999999842
21
-126.5635039999999947
0
LINE
8
BLACK
6
CONTINUOUS
10
149.9668199999999842
20
-126.5635039999999947
11
150.1572960000000023
21
-126.6587419999999895
0
LINE
8
BLACK
6
CONTINUOUS
10
150.1572960000000023
20
-126.6587419999999895
11
150.2525339999999971
21
-126.7539799999999985
0
LINE
8
BLACK
6
CONTINUOUS
10
150.2525339999999971
20
-126.7539799999999985
11
150.347771999999992
21
-126.9444569999999999
0
LINE
8
BLACK
6
CONTINUOUS
10
150.347771999999992
20
-126.9444569999999999
11
150.347771999999992
21
-127.5158849999999973
0
LINE
8
BLACK
6
CONTINUOUS
10
150.347771999999992
20
-127.5158849999999973
11
150.2525339999999971
21
-127.7063610000000011
0
LINE
8
BLACK
6
CONTINUOUS
10
150.2525339999999971
20
-127.7063610000000011
11
150.1572960000000023
21
-127.8015999999999934
0
LINE
8
BLACK
6
CONTINUOUS
10
150.1572960000000023
20
-127.8015999999999934
11
149.9668199999999842
21
-127.8968379999999883
0
LINE
8
BLACK
6
CONTINUOUS
10
149.9668199999999842
20
-127.8968379999999883
11
149.6811050000000023
21
-127.8968379999999883
0
LINE
8
BLACK
6
CONTINUOUS
10
151.4906289999999842
20
-127.8968379999999883
11
151.3001529999999946
21
-127.8015999999999934
0
LINE
8
BLACK
6
CONTINUOUS
10
151.3001529999999946
20
-127.8015999999999934
11
151.2049149999999997
21
-127.6111229999999921
0
LINE
8
BLACK
6
CONTINUOUS
10
151.2049149999999997
20
-127.6111229999999921
11
151.2049149999999997
21
-125.8968379999999883
0
LINE
8
BLACK
6
CONTINUOUS
10
153.0144389999999817
20
-127.8015999999999934
11
152.823962999999992
21
-127.8968379999999883
0
LINE
8
BLACK
6
CONTINUOUS
10
152.823962999999992
20
-127.8968379999999883
11
152.4430099999999868
21
-127.8968379999999883
0
LINE
8
BLACK
6
CONTINUOUS
10
152.4430099999999868
20
-127.8968379999999883
11
152.2525339999999971
21
-127.8015999999999934
0
LINE
8
BLACK
6
CONTINUOUS
10
152.2525339999999971
20
-127.8015999999999934
11
152.1572960000000023
21
-127.6111229999999921
0
LINE
8
BLACK
6
CONTINUOUS
10
152.1572960000000023
20
-127.6111229999999921
11
152.1572960000000023
21
-126.8492189999999908
0
LINE
8
BLACK
6
CONTINUOUS
10
152.1572960000000023
20
-126.8492189999999908
11
152.2525339999999971
21
-126.6587419999999895
0
LINE
8
BLACK
6
CONTINUOUS
10
152.2525339999999971
20
-126.6587419999999895
11
152.4430099999999868
21
-126.5635039999999947
0
LINE
8
BLACK
6
CONTINUOUS
10
152.4430099999999868
20
-126.5635039999999947
11
152.823962999999992
21
-126.5635039999999947
0
LINE
8
BLACK
6
CONTINUOUS
10
152.823962999999992
20
-126.5635039999999947
11
153.0144389999999817
21
-126.6587419999999895
0
LINE
8
BLACK
6
CONTINUOUS
10
153.0144389999999817
20
-126.6587419999999895
11
153.1096770000000049
21
-126.8492189999999908
0
LINE
8
BLACK
6
CONTINUOUS
10
153.1096770000000049
20
-126.8492189999999908
11
153.1096770000000049
21
-127.0396949999999947
0
LINE
8
BLACK
6
CONTINUOUS
10
153.1096770000000049
20
-127.0396949999999947
11
152.1572960000000023
21
-127.2301709999999986
0
LINE
8
BLACK
6
CONTINUOUS
10
153.8715819999999894
20
-127.8015999999999934
11
154.0620579999999791
21
-127.8968379999999883
0
LINE
8
BLACK
6
CONTINUOUS
10
154.0620579999999791
20
-127.8968379999999883
11
154.4430099999999868
21
-127.8968379999999883
0
LINE
8
BLACK
6
CONTINUOUS
10
154.4430099999999868
20
-127.8968379999999883
11
154.6334870000000024
21
-127.8015999999999934
0
LINE
8
BLACK
6
CONTINUOUS
10
154.6334870000000024
20
-127.8015999999999934
11
154.7287249999999972
21
-127.6111229999999921
0
LINE
8
BLACK
6
CONTINUOUS
10
154.7287249999999972
20
-127.6111229999999921
11
154.7287249999999972
21
-127.5158849999999973
0
LINE
8
BLACK
6
CONTINUOUS
10
154.7287249999999972
20
-127.5158849999999973
11
154.6334870000000024
21
-127.3254089999999934
0
LINE
8
BLACK
6
CONTINUOUS
10
154.6334870000000024
20
-127.3254089999999934
11
154.4430099999999868
21
-127.2301709999999986
0
LINE
8
BLACK
6
CONTINUOUS
10
154.4430099999999868
20
-127.2301709999999986
11
154.1572960000000023
21
-127.2301709999999986
0
LINE
8
BLACK
6
CONTINUOUS
10
154.1572960000000023
20
-127.2301709999999986
11
153.9668199999999842
21
-127.1349329999999895
0
LINE
8
BLACK
6
CONTINUOUS
10
153.9668199999999842
20
-127.1349329999999895
11
153.8715819999999894
21
-126.9444569999999999
0
LINE
8
BLACK
6
CONTINUOUS
10
153.8715819999999894
20
-126.9444569999999999
11
153.8715819999999894
21
-126.8492189999999908
0
LINE
8
BLACK
6
CONTINUOUS
10
153.8715819999999894
20
-126.8492189999999908
11
153.9668199999999842
21
-126.6587419999999895
0
LINE
8
BLACK
6
CONTINUOUS
10
153.9668199999999842
20
-126.6587419999999895
11
154.1572960000000023
21
-126.5635039999999947
0
LINE
8
BLACK
6
CONTINUOUS
10
154.1572960000000023
20
-126.5635039999999947
11
154.4430099999999868
21
-126.5635039999999947
0
LINE
8
BLACK
6
CONTINUOUS
10
154.4430099999999868
20
-126.5635039999999947
11
154.6334870000000024
21
-126.6587419999999895
0
LINE
8
BLACK
6
CONTINUOUS
10
155.3953919999999869
20
-128.6587419999999895
11
155.4906299999999817
21
-128.5635039999999947
0
LINE
8
BLACK
6
CONTINUOUS
10
155.4906299999999817
20
-128.5635039999999947
11
155.6811059999999998
21
-128.2777899999999818
0
LINE
8
BLACK
6
CONTINUOUS
10
155.6811059999999998
20
-128.2777899999999818
11
155.7763439999999946
21
-128.0873139999999921
0
LINE
8
BLACK
6
CONTINUOUS
10
155.7763439999999946
20
-128.0873139999999921
11
155.8715819999999894
21
-127.8015999999999934
0
LINE
8
BLACK
6
CONTINUOUS
10
155.8715819999999894
20
-127.8015999999999934
11
155.9668199999999842
21
-127.3254089999999934
0
LINE
8
BLACK
6
CONTINUOUS
10
155.9668199999999842
20
-127.3254089999999934
11
155.9668199999999842
21
-126.9444569999999999
0
LINE
8
BLACK
6
CONTINUOUS
10
155.9668199999999842
20
-126.9444569999999999
11
155.8715819999999894
21
-126.4682659999999998
0
LINE
8
BLACK
6
CONTINUOUS
10
155.8715819999999894
20
-126.4682659999999998
11
155.7763439999999946
21
-126.1825520000000012
0
LINE
8
BLACK
6
CONTINUOUS
10
155.7763439999999946
20
-126.1825520000000012
11
155.6811059999999998
21
-125.9920759999999973
0
LINE
8
BLACK
6
CONTINUOUS
10
155.6811059999999998
20
-125.9920759999999973
11
155.4906299999999817
21
-125.7063610000000011
0
LINE
8
BLACK
6
CONTINUOUS
10
155.4906299999999817
20
-125.7063610000000011
11
155.3953919999999869
21
-125.6111229999999921
  0
ENDSEC
  0
EOF
