  0
SECTION
  2
HEADER
  9
$ANGBASE
  50
0.0
  9
$ANGDIR
  70
1
  9
$MEASUREMENT
  70
1
  0
ENDSEC
  0
SECTION
  2
TABLES
  0
TABLE
  2
LTYPE
  70
4
  0
LTYPE
  5
40F
  2
CONTINUOUS
  70
0
  3
Solid line
  72
65
  73
0
  40
0.0
  0
LTYPE
  5
410
  2
DASHDOT
 70
0
  3
Dash Dot ____ _ ____ _
 72
65
 73
4
 40
2.0
 49
1.25
 49
-0.25
 49
0.25
 49
-0.25
  0
LTYPE
  5
411
  2
DASHED
 70
0
  3
Dashed __ __ __ __ __
 72
65
 73
2
 40
0.75
 49
0.5
 49
-0.25
  0
LTYPE
  5
43B
  2
DOTTED
 70
0
  3
Dotted .  .  .  .
 72
65
 73
2
 40
0.2
 49
0.0
 49
-0.2
  0
ENDTAB
  0
TABLE
  2
STYLE
  70
4
  0
STYLE
  2
KICAD
  70
0
  40
0
  41
1
  42
1
  50
0
  71
0
  3
isocp.shx
  0
STYLE
  2
KICADB
  70
0
  40
0
  41
1
  42
1
  50
0
  71
0
  3
isocp.shx
  0
STYLE
  2
KICADI
  70
0
  40
0
  41
1
  42
1
  50
15
  71
0
  3
isocp.shx
  0
STYLE
  2
KICADBI
  70
0
  40
0
  41
1
  42
1
  50
15
  71
0
  3
isocp.shx
  0
ENDTAB
  0
TABLE
  2
LAYER
  70
1
  0
LAYER
  2
BLACK
  70
0
  62
7
  6
CONTINUOUS
  0
ENDTAB
  0
ENDSEC
  0
SECTION
  2
ENTITIES
0
LINE
8
BLACK
6
CONTINUOUS
10
96.012
20
-71.374
11
96.012
21
-91.567
0
LINE
8
BLACK
6
CONTINUOUS
10
142.113
20
-91.567
11
96.012
21
-91.567
0
LINE
8
BLACK
6
CONTINUOUS
10
142.113
20
-71.374
11
142.113
21
-91.567
0
LINE
8
BLACK
6
CONTINUOUS
10
96.012
20
-71.374
11
142.113
21
-71.374
0
LINE
8
BLACK
6
CONTINUOUS
10
136.9
20
-85.518
11
141.2
21
-89.818
0
LINE
8
BLACK
6
CONTINUOUS
10
141.2
20
-85.518
11
136.9
21
-89.818
0
LINE
8
BLACK
6
CONTINUOUS
10
96.9
20
-73.018
11
101.2
21
-77.318
0
LINE
8
BLACK
6
CONTINUOUS
10
101.2
20
-73.018
11
96.9
21
-77.318
0
LINE
8
BLACK
6
CONTINUOUS
10
96.9
20
-87.018
11
101.2
21
-91.318
0
LINE
8
BLACK
6
CONTINUOUS
10
101.2
20
-87.018
11
96.9
21
-91.318
0
LINE
8
BLACK
6
CONTINUOUS
10
136.9
20
-73.018
11
141.2
21
-77.318
0
LINE
8
BLACK
6
CONTINUOUS
10
141.2
20
-73.018
11
136.9
21
-77.318
0
LINE
8
BLACK
6
CONTINUOUS
10
98.8163
20
-96.2841
11
98.8163
21
-93.2841
0
LINE
8
BLACK
6
CONTINUOUS
10
98.8163
20
-93.2841
11
99.5306
21
-93.2841
0
LINE
8
BLACK
6
CONTINUOUS
10
99.5306
20
-93.2841
11
99.9591
21
-93.427
0
LINE
8
BLACK
6
CONTINUOUS
10
99.9591
20
-93.427
11
100.245
21
-93.7127
0
LINE
8
BLACK
6
CONTINUOUS
10
100.245
20
-93.7127
11
100.388
21
-93.9984
0
LINE
8
BLACK
6
CONTINUOUS
10
100.388
20
-93.9984
11
100.531
21
-94.5699
0
LINE
8
BLACK
6
CONTINUOUS
10
100.531
20
-94.5699
11
100.531
21
-94.9984
0
LINE
8
BLACK
6
CONTINUOUS
10
100.531
20
-94.9984
11
100.388
21
-95.5699
0
LINE
8
BLACK
6
CONTINUOUS
10
100.388
20
-95.5699
11
100.245
21
-95.8556
0
LINE
8
BLACK
6
CONTINUOUS
10
100.245
20
-95.8556
11
99.9591
21
-96.1413
0
LINE
8
BLACK
6
CONTINUOUS
10
99.9591
20
-96.1413
11
99.5306
21
-96.2841
0
LINE
8
BLACK
6
CONTINUOUS
10
99.5306
20
-96.2841
11
98.8163
21
-96.2841
0
LINE
8
BLACK
6
CONTINUOUS
10
101.816
20
-96.2841
11
101.816
21
-94.2841
0
LINE
8
BLACK
6
CONTINUOUS
10
101.816
20
-94.8556
11
101.959
21
-94.5699
0
LINE
8
BLACK
6
CONTINUOUS
10
101.959
20
-94.5699
11
102.102
21
-94.427
0
LINE
8
BLACK
6
CONTINUOUS
10
102.102
20
-94.427
11
102.388
21
-94.2841
0
LINE
8
BLACK
6
CONTINUOUS
10
102.388
20
-94.2841
11
102.673
21
-94.2841
0
LINE
8
BLACK
6
CONTINUOUS
10
103.673
20
-96.2841
11
103.673
21
-94.2841
0
LINE
8
BLACK
6
CONTINUOUS
10
103.673
20
-93.2841
11
103.531
21
-93.427
0
LINE
8
BLACK
6
CONTINUOUS
10
103.531
20
-93.427
11
103.673
21
-93.5699
0
LINE
8
BLACK
6
CONTINUOUS
10
103.673
20
-93.5699
11
103.816
21
-93.427
0
LINE
8
BLACK
6
CONTINUOUS
10
103.816
20
-93.427
11
103.673
21
-93.2841
0
LINE
8
BLACK
6
CONTINUOUS
10
103.673
20
-93.2841
11
103.673
21
-93.5699
0
LINE
8
BLACK
6
CONTINUOUS
10
105.531
20
-96.2841
11
105.245
21
-96.1413
0
LINE
8
BLACK
6
CONTINUOUS
10
105.245
20
-96.1413
11
105.102
21
-95.8556
0
LINE
8
BLACK
6
CONTINUOUS
10
105.102
20
-95.8556
11
105.102
21
-93.2841
0
LINE
8
BLACK
6
CONTINUOUS
10
107.102
20
-96.2841
11
106.816
21
-96.1413
0
LINE
8
BLACK
6
CONTINUOUS
10
106.816
20
-96.1413
11
106.673
21
-95.8556
0
LINE
8
BLACK
6
CONTINUOUS
10
106.673
20
-95.8556
11
106.673
21
-93.2841
0
LINE
8
BLACK
6
CONTINUOUS
10
110.531
20
-96.2841
11
110.531
21
-93.2841
0
LINE
8
BLACK
6
CONTINUOUS
10
110.531
20
-93.2841
11
111.531
21
-95.427
0
LINE
8
BLACK
6
CONTINUOUS
10
111.531
20
-95.427
11
112.531
21
-93.2841
0
LINE
8
BLACK
6
CONTINUOUS
10
112.531
20
-93.2841
11
112.531
21
-96.2841
0
LINE
8
BLACK
6
CONTINUOUS
10
115.245
20
-96.2841
11
115.245
21
-94.7127
0
LINE
8
BLACK
6
CONTINUOUS
10
115.245
20
-94.7127
11
115.102
21
-94.427
0
LINE
8
BLACK
6
CONTINUOUS
10
115.102
20
-94.427
11
114.816
21
-94.2841
0
LINE
8
BLACK
6
CONTINUOUS
10
114.816
20
-94.2841
11
114.245
21
-94.2841
0
LINE
8
BLACK
6
CONTINUOUS
10
114.245
20
-94.2841
11
113.959
21
-94.427
0
LINE
8
BLACK
6
CONTINUOUS
10
115.245
20
-96.1413
11
114.959
21
-96.2841
0
LINE
8
BLACK
6
CONTINUOUS
10
114.959
20
-96.2841
11
114.245
21
-96.2841
0
LINE
8
BLACK
6
CONTINUOUS
10
114.245
20
-96.2841
11
113.959
21
-96.1413
0
LINE
8
BLACK
6
CONTINUOUS
10
113.959
20
-96.1413
11
113.816
21
-95.8556
0
LINE
8
BLACK
6
CONTINUOUS
10
113.816
20
-95.8556
11
113.816
21
-95.5699
0
LINE
8
BLACK
6
CONTINUOUS
10
113.816
20
-95.5699
11
113.959
21
-95.2841
0
LINE
8
BLACK
6
CONTINUOUS
10
113.959
20
-95.2841
11
114.245
21
-95.1413
0
LINE
8
BLACK
6
CONTINUOUS
10
114.245
20
-95.1413
11
114.959
21
-95.1413
0
LINE
8
BLACK
6
CONTINUOUS
10
114.959
20
-95.1413
11
115.245
21
-94.9984
0
LINE
8
BLACK
6
CONTINUOUS
10
116.673
20
-94.2841
11
116.673
21
-97.2841
0
LINE
8
BLACK
6
CONTINUOUS
10
116.673
20
-94.427
11
116.959
21
-94.2841
0
LINE
8
BLACK
6
CONTINUOUS
10
116.959
20
-94.2841
11
117.531
21
-94.2841
0
LINE
8
BLACK
6
CONTINUOUS
10
117.531
20
-94.2841
11
117.816
21
-94.427
0
LINE
8
BLACK
6
CONTINUOUS
10
117.816
20
-94.427
11
117.959
21
-94.5699
0
LINE
8
BLACK
6
CONTINUOUS
10
117.959
20
-94.5699
11
118.102
21
-94.8556
0
LINE
8
BLACK
6
CONTINUOUS
10
118.102
20
-94.8556
11
118.102
21
-95.7127
0
LINE
8
BLACK
6
CONTINUOUS
10
118.102
20
-95.7127
11
117.959
21
-95.9984
0
LINE
8
BLACK
6
CONTINUOUS
10
117.959
20
-95.9984
11
117.816
21
-96.1413
0
LINE
8
BLACK
6
CONTINUOUS
10
117.816
20
-96.1413
11
117.531
21
-96.2841
0
LINE
8
BLACK
6
CONTINUOUS
10
117.531
20
-96.2841
11
116.959
21
-96.2841
0
LINE
8
BLACK
6
CONTINUOUS
10
116.959
20
-96.2841
11
116.673
21
-96.1413
0
LINE
8
BLACK
6
CONTINUOUS
10
119.388
20
-95.9984
11
119.531
21
-96.1413
0
LINE
8
BLACK
6
CONTINUOUS
10
119.531
20
-96.1413
11
119.388
21
-96.2841
0
LINE
8
BLACK
6
CONTINUOUS
10
119.388
20
-96.2841
11
119.245
21
-96.1413
0
LINE
8
BLACK
6
CONTINUOUS
10
119.245
20
-96.1413
11
119.388
21
-95.9984
0
LINE
8
BLACK
6
CONTINUOUS
10
119.388
20
-95.9984
11
119.388
21
-96.2841
0
LINE
8
BLACK
6
CONTINUOUS
10
119.388
20
-94.427
11
119.531
21
-94.5699
0
LINE
8
BLACK
6
CONTINUOUS
10
119.531
20
-94.5699
11
119.388
21
-94.7127
0
LINE
8
BLACK
6
CONTINUOUS
10
119.388
20
-94.7127
11
119.245
21
-94.5699
0
LINE
8
BLACK
6
CONTINUOUS
10
119.245
20
-94.5699
11
119.388
21
-94.427
0
LINE
8
BLACK
6
CONTINUOUS
10
119.388
20
-94.427
11
119.388
21
-94.7127
0
LINE
8
BLACK
6
CONTINUOUS
10
91.652
20
-99.077
11
95.952
21
-103.377
0
LINE
8
BLACK
6
CONTINUOUS
10
95.952
20
-99.077
11
91.652
21
-103.377
0
LINE
8
BLACK
6
CONTINUOUS
10
100.102
20
-100.584
11
100.102
21
-102.584
0
LINE
8
BLACK
6
CONTINUOUS
10
99.3877
20
-99.4413
11
98.6734
21
-101.584
0
LINE
8
BLACK
6
CONTINUOUS
10
98.6734
20
-101.584
11
100.531
21
-101.584
0
LINE
8
BLACK
6
CONTINUOUS
10
101.673
20
-102.298
11
101.816
21
-102.441
0
LINE
8
BLACK
6
CONTINUOUS
10
101.816
20
-102.441
11
101.673
21
-102.584
0
LINE
8
BLACK
6
CONTINUOUS
10
101.673
20
-102.584
11
101.531
21
-102.441
0
LINE
8
BLACK
6
CONTINUOUS
10
101.531
20
-102.441
11
101.673
21
-102.298
0
LINE
8
BLACK
6
CONTINUOUS
10
101.673
20
-102.298
11
101.673
21
-102.584
0
LINE
8
BLACK
6
CONTINUOUS
10
102.816
20
-99.5841
11
104.673
21
-99.5841
0
LINE
8
BLACK
6
CONTINUOUS
10
104.673
20
-99.5841
11
103.673
21
-100.727
0
LINE
8
BLACK
6
CONTINUOUS
10
103.673
20
-100.727
11
104.102
21
-100.727
0
LINE
8
BLACK
6
CONTINUOUS
10
104.102
20
-100.727
11
104.388
21
-100.87
0
LINE
8
BLACK
6
CONTINUOUS
10
104.388
20
-100.87
11
104.531
21
-101.013
0
LINE
8
BLACK
6
CONTINUOUS
10
104.531
20
-101.013
11
104.673
21
-101.298
0
LINE
8
BLACK
6
CONTINUOUS
10
104.673
20
-101.298
11
104.673
21
-102.013
0
LINE
8
BLACK
6
CONTINUOUS
10
104.673
20
-102.013
11
104.531
21
-102.298
0
LINE
8
BLACK
6
CONTINUOUS
10
104.531
20
-102.298
11
104.388
21
-102.441
0
LINE
8
BLACK
6
CONTINUOUS
10
104.388
20
-102.441
11
104.102
21
-102.584
0
LINE
8
BLACK
6
CONTINUOUS
10
104.102
20
-102.584
11
103.245
21
-102.584
0
LINE
8
BLACK
6
CONTINUOUS
10
103.245
20
-102.584
11
102.959
21
-102.441
0
LINE
8
BLACK
6
CONTINUOUS
10
102.959
20
-102.441
11
102.816
21
-102.298
0
LINE
8
BLACK
6
CONTINUOUS
10
106.531
20
-99.5841
11
106.816
21
-99.5841
0
LINE
8
BLACK
6
CONTINUOUS
10
106.816
20
-99.5841
11
107.102
21
-99.727
0
LINE
8
BLACK
6
CONTINUOUS
10
107.102
20
-99.727
11
107.245
21
-99.8699
0
LINE
8
BLACK
6
CONTINUOUS
10
107.245
20
-99.8699
11
107.388
21
-100.156
0
LINE
8
BLACK
6
CONTINUOUS
10
107.388
20
-100.156
11
107.531
21
-100.727
0
LINE
8
BLACK
6
CONTINUOUS
10
107.531
20
-100.727
11
107.531
21
-101.441
0
LINE
8
BLACK
6
CONTINUOUS
10
107.531
20
-101.441
11
107.388
21
-102.013
0
LINE
8
BLACK
6
CONTINUOUS
10
107.388
20
-102.013
11
107.245
21
-102.298
0
LINE
8
BLACK
6
CONTINUOUS
10
107.245
20
-102.298
11
107.102
21
-102.441
0
LINE
8
BLACK
6
CONTINUOUS
10
107.102
20
-102.441
11
106.816
21
-102.584
0
LINE
8
BLACK
6
CONTINUOUS
10
106.816
20
-102.584
11
106.531
21
-102.584
0
LINE
8
BLACK
6
CONTINUOUS
10
106.531
20
-102.584
11
106.245
21
-102.441
0
LINE
8
BLACK
6
CONTINUOUS
10
106.245
20
-102.441
11
106.102
21
-102.298
0
LINE
8
BLACK
6
CONTINUOUS
10
106.102
20
-102.298
11
105.959
21
-102.013
0
LINE
8
BLACK
6
CONTINUOUS
10
105.959
20
-102.013
11
105.816
21
-101.441
0
LINE
8
BLACK
6
CONTINUOUS
10
105.816
20
-101.441
11
105.816
21
-100.727
0
LINE
8
BLACK
6
CONTINUOUS
10
105.816
20
-100.727
11
105.959
21
-100.156
0
LINE
8
BLACK
6
CONTINUOUS
10
105.959
20
-100.156
11
106.102
21
-99.8699
0
LINE
8
BLACK
6
CONTINUOUS
10
106.102
20
-99.8699
11
106.245
21
-99.727
0
LINE
8
BLACK
6
CONTINUOUS
10
106.245
20
-99.727
11
106.531
21
-99.5841
0
LINE
8
BLACK
6
CONTINUOUS
10
108.816
20
-102.584
11
108.816
21
-100.584
0
LINE
8
BLACK
6
CONTINUOUS
10
108.816
20
-100.87
11
108.959
21
-100.727
0
LINE
8
BLACK
6
CONTINUOUS
10
108.959
20
-100.727
11
109.245
21
-100.584
0
LINE
8
BLACK
6
CONTINUOUS
10
109.245
20
-100.584
11
109.673
21
-100.584
0
LINE
8
BLACK
6
CONTINUOUS
10
109.673
20
-100.584
11
109.959
21
-100.727
0
LINE
8
BLACK
6
CONTINUOUS
10
109.959
20
-100.727
11
110.102
21
-101.013
0
LINE
8
BLACK
6
CONTINUOUS
10
110.102
20
-101.013
11
110.102
21
-102.584
0
LINE
8
BLACK
6
CONTINUOUS
10
110.102
20
-101.013
11
110.245
21
-100.727
0
LINE
8
BLACK
6
CONTINUOUS
10
110.245
20
-100.727
11
110.531
21
-100.584
0
LINE
8
BLACK
6
CONTINUOUS
10
110.531
20
-100.584
11
110.959
21
-100.584
0
LINE
8
BLACK
6
CONTINUOUS
10
110.959
20
-100.584
11
111.245
21
-100.727
0
LINE
8
BLACK
6
CONTINUOUS
10
111.245
20
-100.727
11
111.388
21
-101.013
0
LINE
8
BLACK
6
CONTINUOUS
10
111.388
20
-101.013
11
111.388
21
-102.584
0
LINE
8
BLACK
6
CONTINUOUS
10
112.816
20
-102.584
11
112.816
21
-100.584
0
LINE
8
BLACK
6
CONTINUOUS
10
112.816
20
-100.87
11
112.959
21
-100.727
0
LINE
8
BLACK
6
CONTINUOUS
10
112.959
20
-100.727
11
113.245
21
-100.584
0
LINE
8
BLACK
6
CONTINUOUS
10
113.245
20
-100.584
11
113.673
21
-100.584
0
LINE
8
BLACK
6
CONTINUOUS
10
113.673
20
-100.584
11
113.959
21
-100.727
0
LINE
8
BLACK
6
CONTINUOUS
10
113.959
20
-100.727
11
114.102
21
-101.013
0
LINE
8
BLACK
6
CONTINUOUS
10
114.102
20
-101.013
11
114.102
21
-102.584
0
LINE
8
BLACK
6
CONTINUOUS
10
114.102
20
-101.013
11
114.245
21
-100.727
0
LINE
8
BLACK
6
CONTINUOUS
10
114.245
20
-100.727
11
114.531
21
-100.584
0
LINE
8
BLACK
6
CONTINUOUS
10
114.531
20
-100.584
11
114.959
21
-100.584
0
LINE
8
BLACK
6
CONTINUOUS
10
114.959
20
-100.584
11
115.245
21
-100.727
0
LINE
8
BLACK
6
CONTINUOUS
10
115.245
20
-100.727
11
115.388
21
-101.013
0
LINE
8
BLACK
6
CONTINUOUS
10
115.388
20
-101.013
11
115.388
21
-102.584
0
LINE
8
BLACK
6
CONTINUOUS
10
121.245
20
-99.4413
11
118.673
21
-103.298
0
LINE
8
BLACK
6
CONTINUOUS
10
125.102
20
-99.5841
11
125.388
21
-99.5841
0
LINE
8
BLACK
6
CONTINUOUS
10
125.388
20
-99.5841
11
125.673
21
-99.727
0
LINE
8
BLACK
6
CONTINUOUS
10
125.673
20
-99.727
11
125.816
21
-99.8699
0
LINE
8
BLACK
6
CONTINUOUS
10
125.816
20
-99.8699
11
125.959
21
-100.156
0
LINE
8
BLACK
6
CONTINUOUS
10
125.959
20
-100.156
11
126.102
21
-100.727
0
LINE
8
BLACK
6
CONTINUOUS
10
126.102
20
-100.727
11
126.102
21
-101.441
0
LINE
8
BLACK
6
CONTINUOUS
10
126.102
20
-101.441
11
125.959
21
-102.013
0
LINE
8
BLACK
6
CONTINUOUS
10
125.959
20
-102.013
11
125.816
21
-102.298
0
LINE
8
BLACK
6
CONTINUOUS
10
125.816
20
-102.298
11
125.673
21
-102.441
0
LINE
8
BLACK
6
CONTINUOUS
10
125.673
20
-102.441
11
125.388
21
-102.584
0
LINE
8
BLACK
6
CONTINUOUS
10
125.388
20
-102.584
11
125.102
21
-102.584
0
LINE
8
BLACK
6
CONTINUOUS
10
125.102
20
-102.584
11
124.816
21
-102.441
0
LINE
8
BLACK
6
CONTINUOUS
10
124.816
20
-102.441
11
124.673
21
-102.298
0
LINE
8
BLACK
6
CONTINUOUS
10
124.673
20
-102.298
11
124.531
21
-102.013
0
LINE
8
BLACK
6
CONTINUOUS
10
124.531
20
-102.013
11
124.388
21
-101.441
0
LINE
8
BLACK
6
CONTINUOUS
10
124.388
20
-101.441
11
124.388
21
-100.727
0
LINE
8
BLACK
6
CONTINUOUS
10
124.388
20
-100.727
11
124.531
21
-100.156
0
LINE
8
BLACK
6
CONTINUOUS
10
124.531
20
-100.156
11
124.673
21
-99.8699
0
LINE
8
BLACK
6
CONTINUOUS
10
124.673
20
-99.8699
11
124.816
21
-99.727
0
LINE
8
BLACK
6
CONTINUOUS
10
124.816
20
-99.727
11
125.102
21
-99.5841
0
LINE
8
BLACK
6
CONTINUOUS
10
127.388
20
-102.298
11
127.531
21
-102.441
0
LINE
8
BLACK
6
CONTINUOUS
10
127.531
20
-102.441
11
127.388
21
-102.584
0
LINE
8
BLACK
6
CONTINUOUS
10
127.388
20
-102.584
11
127.245
21
-102.441
0
LINE
8
BLACK
6
CONTINUOUS
10
127.245
20
-102.441
11
127.388
21
-102.298
0
LINE
8
BLACK
6
CONTINUOUS
10
127.388
20
-102.298
11
127.388
21
-102.584
0
LINE
8
BLACK
6
CONTINUOUS
10
130.388
20
-102.584
11
128.673
21
-102.584
0
LINE
8
BLACK
6
CONTINUOUS
10
129.531
20
-102.584
11
129.531
21
-99.5841
0
LINE
8
BLACK
6
CONTINUOUS
10
129.531
20
-99.5841
11
129.245
21
-100.013
0
LINE
8
BLACK
6
CONTINUOUS
10
129.245
20
-100.013
11
128.959
21
-100.298
0
LINE
8
BLACK
6
CONTINUOUS
10
128.959
20
-100.298
11
128.673
21
-100.441
0
LINE
8
BLACK
6
CONTINUOUS
10
132.959
20
-99.5841
11
132.388
21
-99.5841
0
LINE
8
BLACK
6
CONTINUOUS
10
132.388
20
-99.5841
11
132.102
21
-99.727
0
LINE
8
BLACK
6
CONTINUOUS
10
132.102
20
-99.727
11
131.959
21
-99.8699
0
LINE
8
BLACK
6
CONTINUOUS
10
131.959
20
-99.8699
11
131.673
21
-100.298
0
LINE
8
BLACK
6
CONTINUOUS
10
131.673
20
-100.298
11
131.531
21
-100.87
0
LINE
8
BLACK
6
CONTINUOUS
10
131.531
20
-100.87
11
131.531
21
-102.013
0
LINE
8
BLACK
6
CONTINUOUS
10
131.531
20
-102.013
11
131.673
21
-102.298
0
LINE
8
BLACK
6
CONTINUOUS
10
131.673
20
-102.298
11
131.816
21
-102.441
0
LINE
8
BLACK
6
CONTINUOUS
10
131.816
20
-102.441
11
132.102
21
-102.584
0
LINE
8
BLACK
6
CONTINUOUS
10
132.102
20
-102.584
11
132.673
21
-102.584
0
LINE
8
BLACK
6
CONTINUOUS
10
132.673
20
-102.584
11
132.959
21
-102.441
0
LINE
8
BLACK
6
CONTINUOUS
10
132.959
20
-102.441
11
133.102
21
-102.298
0
LINE
8
BLACK
6
CONTINUOUS
10
133.102
20
-102.298
11
133.245
21
-102.013
0
LINE
8
BLACK
6
CONTINUOUS
10
133.245
20
-102.013
11
133.245
21
-101.298
0
LINE
8
BLACK
6
CONTINUOUS
10
133.245
20
-101.298
11
133.102
21
-101.013
0
LINE
8
BLACK
6
CONTINUOUS
10
133.102
20
-101.013
11
132.959
21
-100.87
0
LINE
8
BLACK
6
CONTINUOUS
10
132.959
20
-100.87
11
132.673
21
-100.727
0
LINE
8
BLACK
6
CONTINUOUS
10
132.673
20
-100.727
11
132.102
21
-100.727
0
LINE
8
BLACK
6
CONTINUOUS
10
132.102
20
-100.727
11
131.816
21
-100.87
0
LINE
8
BLACK
6
CONTINUOUS
10
131.816
20
-100.87
11
131.673
21
-101.013
0
LINE
8
BLACK
6
CONTINUOUS
10
131.673
20
-101.013
11
131.531
21
-101.298
0
LINE
8
BLACK
6
CONTINUOUS
10
134.673
20
-102.584
11
135.245
21
-102.584
0
LINE
8
BLACK
6
CONTINUOUS
10
135.245
20
-102.584
11
135.531
21
-102.441
0
LINE
8
BLACK
6
CONTINUOUS
10
135.531
20
-102.441
11
135.673
21
-102.298
0
LINE
8
BLACK
6
CONTINUOUS
10
135.673
20
-102.298
11
135.959
21
-101.87
0
LINE
8
BLACK
6
CONTINUOUS
10
135.959
20
-101.87
11
136.102
21
-101.298
0
LINE
8
BLACK
6
CONTINUOUS
10
136.102
20
-101.298
11
136.102
21
-100.156
0
LINE
8
BLACK
6
CONTINUOUS
10
136.102
20
-100.156
11
135.959
21
-99.8699
0
LINE
8
BLACK
6
CONTINUOUS
10
135.959
20
-99.8699
11
135.816
21
-99.727
0
LINE
8
BLACK
6
CONTINUOUS
10
135.816
20
-99.727
11
135.531
21
-99.5841
0
LINE
8
BLACK
6
CONTINUOUS
10
135.531
20
-99.5841
11
134.959
21
-99.5841
0
LINE
8
BLACK
6
CONTINUOUS
10
134.959
20
-99.5841
11
134.673
21
-99.727
0
LINE
8
BLACK
6
CONTINUOUS
10
134.673
20
-99.727
11
134.531
21
-99.8699
0
LINE
8
BLACK
6
CONTINUOUS
10
134.531
20
-99.8699
11
134.388
21
-100.156
0
LINE
8
BLACK
6
CONTINUOUS
10
134.388
20
-100.156
11
134.388
21
-100.87
0
LINE
8
BLACK
6
CONTINUOUS
10
134.388
20
-100.87
11
134.531
21
-101.156
0
LINE
8
BLACK
6
CONTINUOUS
10
134.531
20
-101.156
11
134.673
21
-101.298
0
LINE
8
BLACK
6
CONTINUOUS
10
134.673
20
-101.298
11
134.959
21
-101.441
0
LINE
8
BLACK
6
CONTINUOUS
10
134.959
20
-101.441
11
135.531
21
-101.441
0
LINE
8
BLACK
6
CONTINUOUS
10
135.531
20
-101.441
11
135.816
21
-101.298
0
LINE
8
BLACK
6
CONTINUOUS
10
135.816
20
-101.298
11
135.959
21
-101.156
0
LINE
8
BLACK
6
CONTINUOUS
10
135.959
20
-101.156
11
136.102
21
-100.87
0
LINE
8
BLACK
6
CONTINUOUS
10
137.245
20
-99.5841
11
137.245
21
-100.156
0
LINE
8
BLACK
6
CONTINUOUS
10
138.388
20
-99.5841
11
138.388
21
-100.156
0
LINE
8
BLACK
6
CONTINUOUS
10
142.816
20
-103.727
11
142.673
21
-103.584
0
LINE
8
BLACK
6
CONTINUOUS
10
142.673
20
-103.584
11
142.388
21
-103.156
0
LINE
8
BLACK
6
CONTINUOUS
10
142.388
20
-103.156
11
142.245
21
-102.87
0
LINE
8
BLACK
6
CONTINUOUS
10
142.245
20
-102.87
11
142.102
21
-102.441
0
LINE
8
BLACK
6
CONTINUOUS
10
142.102
20
-102.441
11
141.959
21
-101.727
0
LINE
8
BLACK
6
CONTINUOUS
10
141.959
20
-101.727
11
141.959
21
-101.156
0
LINE
8
BLACK
6
CONTINUOUS
10
141.959
20
-101.156
11
142.102
21
-100.441
0
LINE
8
BLACK
6
CONTINUOUS
10
142.102
20
-100.441
11
142.245
21
-100.013
0
LINE
8
BLACK
6
CONTINUOUS
10
142.245
20
-100.013
11
142.388
21
-99.727
0
LINE
8
BLACK
6
CONTINUOUS
10
142.388
20
-99.727
11
142.673
21
-99.2984
0
LINE
8
BLACK
6
CONTINUOUS
10
142.673
20
-99.2984
11
142.816
21
-99.1556
0
LINE
8
BLACK
6
CONTINUOUS
10
145.245
20
-100.584
11
145.245
21
-102.584
0
LINE
8
BLACK
6
CONTINUOUS
10
144.531
20
-99.4413
11
143.816
21
-101.584
0
LINE
8
BLACK
6
CONTINUOUS
10
143.816
20
-101.584
11
145.673
21
-101.584
0
LINE
8
BLACK
6
CONTINUOUS
10
149.102
20
-102.584
11
149.102
21
-99.5841
0
LINE
8
BLACK
6
CONTINUOUS
10
150.388
20
-102.584
11
150.388
21
-101.013
0
LINE
8
BLACK
6
CONTINUOUS
10
150.388
20
-101.013
11
150.245
21
-100.727
0
LINE
8
BLACK
6
CONTINUOUS
10
150.245
20
-100.727
11
149.959
21
-100.584
0
LINE
8
BLACK
6
CONTINUOUS
10
149.959
20
-100.584
11
149.531
21
-100.584
0
LINE
8
BLACK
6
CONTINUOUS
10
149.531
20
-100.584
11
149.245
21
-100.727
0
LINE
8
BLACK
6
CONTINUOUS
10
149.245
20
-100.727
11
149.102
21
-100.87
0
LINE
8
BLACK
6
CONTINUOUS
10
152.245
20
-102.584
11
151.959
21
-102.441
0
LINE
8
BLACK
6
CONTINUOUS
10
151.959
20
-102.441
11
151.816
21
-102.298
0
LINE
8
BLACK
6
CONTINUOUS
10
151.816
20
-102.298
11
151.673
21
-102.013
0
LINE
8
BLACK
6
CONTINUOUS
10
151.673
20
-102.013
11
151.673
21
-101.156
0
LINE
8
BLACK
6
CONTINUOUS
10
151.673
20
-101.156
11
151.816
21
-100.87
0
LINE
8
BLACK
6
CONTINUOUS
10
151.816
20
-100.87
11
151.959
21
-100.727
0
LINE
8
BLACK
6
CONTINUOUS
10
151.959
20
-100.727
11
152.245
21
-100.584
0
LINE
8
BLACK
6
CONTINUOUS
10
152.245
20
-100.584
11
152.673
21
-100.584
0
LINE
8
BLACK
6
CONTINUOUS
10
152.673
20
-100.584
11
152.959
21
-100.727
0
LINE
8
BLACK
6
CONTINUOUS
10
152.959
20
-100.727
11
153.102
21
-100.87
0
LINE
8
BLACK
6
CONTINUOUS
10
153.102
20
-100.87
11
153.245
21
-101.156
0
LINE
8
BLACK
6
CONTINUOUS
10
153.245
20
-101.156
11
153.245
21
-102.013
0
LINE
8
BLACK
6
CONTINUOUS
10
153.245
20
-102.013
11
153.102
21
-102.298
0
LINE
8
BLACK
6
CONTINUOUS
10
153.102
20
-102.298
11
152.959
21
-102.441
0
LINE
8
BLACK
6
CONTINUOUS
10
152.959
20
-102.441
11
152.673
21
-102.584
0
LINE
8
BLACK
6
CONTINUOUS
10
152.673
20
-102.584
11
152.245
21
-102.584
0
LINE
8
BLACK
6
CONTINUOUS
10
154.959
20
-102.584
11
154.673
21
-102.441
0
LINE
8
BLACK
6
CONTINUOUS
10
154.673
20
-102.441
11
154.531
21
-102.156
0
LINE
8
BLACK
6
CONTINUOUS
10
154.531
20
-102.156
11
154.531
21
-99.5841
0
LINE
8
BLACK
6
CONTINUOUS
10
157.245
20
-102.441
11
156.959
21
-102.584
0
LINE
8
BLACK
6
CONTINUOUS
10
156.959
20
-102.584
11
156.388
21
-102.584
0
LINE
8
BLACK
6
CONTINUOUS
10
156.388
20
-102.584
11
156.102
21
-102.441
0
LINE
8
BLACK
6
CONTINUOUS
10
156.102
20
-102.441
11
155.959
21
-102.156
0
LINE
8
BLACK
6
CONTINUOUS
10
155.959
20
-102.156
11
155.959
21
-101.013
0
LINE
8
BLACK
6
CONTINUOUS
10
155.959
20
-101.013
11
156.102
21
-100.727
0
LINE
8
BLACK
6
CONTINUOUS
10
156.102
20
-100.727
11
156.388
21
-100.584
0
LINE
8
BLACK
6
CONTINUOUS
10
156.388
20
-100.584
11
156.959
21
-100.584
0
LINE
8
BLACK
6
CONTINUOUS
10
156.959
20
-100.584
11
157.245
21
-100.727
0
LINE
8
BLACK
6
CONTINUOUS
10
157.245
20
-100.727
11
157.388
21
-101.013
0
LINE
8
BLACK
6
CONTINUOUS
10
157.388
20
-101.013
11
157.388
21
-101.298
0
LINE
8
BLACK
6
CONTINUOUS
10
157.388
20
-101.298
11
155.959
21
-101.584
0
LINE
8
BLACK
6
CONTINUOUS
10
158.531
20
-102.441
11
158.816
21
-102.584
0
LINE
8
BLACK
6
CONTINUOUS
10
158.816
20
-102.584
11
159.388
21
-102.584
0
LINE
8
BLACK
6
CONTINUOUS
10
159.388
20
-102.584
11
159.673
21
-102.441
0
LINE
8
BLACK
6
CONTINUOUS
10
159.673
20
-102.441
11
159.816
21
-102.156
0
LINE
8
BLACK
6
CONTINUOUS
10
159.816
20
-102.156
11
159.816
21
-102.013
0
LINE
8
BLACK
6
CONTINUOUS
10
159.816
20
-102.013
11
159.673
21
-101.727
0
LINE
8
BLACK
6
CONTINUOUS
10
159.673
20
-101.727
11
159.388
21
-101.584
0
LINE
8
BLACK
6
CONTINUOUS
10
159.388
20
-101.584
11
158.959
21
-101.584
0
LINE
8
BLACK
6
CONTINUOUS
10
158.959
20
-101.584
11
158.673
21
-101.441
0
LINE
8
BLACK
6
CONTINUOUS
10
158.673
20
-101.441
11
158.531
21
-101.156
0
LINE
8
BLACK
6
CONTINUOUS
10
158.531
20
-101.156
11
158.531
21
-101.013
0
LINE
8
BLACK
6
CONTINUOUS
10
158.531
20
-101.013
11
158.673
21
-100.727
0
LINE
8
BLACK
6
CONTINUOUS
10
158.673
20
-100.727
11
158.959
21
-100.584
0
LINE
8
BLACK
6
CONTINUOUS
10
158.959
20
-100.584
11
159.388
21
-100.584
0
LINE
8
BLACK
6
CONTINUOUS
10
159.388
20
-100.584
11
159.673
21
-100.727
0
LINE
8
BLACK
6
CONTINUOUS
10
160.816
20
-103.727
11
160.959
21
-103.584
0
LINE
8
BLACK
6
CONTINUOUS
10
160.959
20
-103.584
11
161.245
21
-103.156
0
LINE
8
BLACK
6
CONTINUOUS
10
161.245
20
-103.156
11
161.388
21
-102.87
0
LINE
8
BLACK
6
CONTINUOUS
10
161.388
20
-102.87
11
161.531
21
-102.441
0
LINE
8
BLACK
6
CONTINUOUS
10
161.531
20
-102.441
11
161.673
21
-101.727
0
LINE
8
BLACK
6
CONTINUOUS
10
161.673
20
-101.727
11
161.673
21
-101.156
0
LINE
8
BLACK
6
CONTINUOUS
10
161.673
20
-101.156
11
161.531
21
-100.441
0
LINE
8
BLACK
6
CONTINUOUS
10
161.531
20
-100.441
11
161.388
21
-100.013
0
LINE
8
BLACK
6
CONTINUOUS
10
161.388
20
-100.013
11
161.245
21
-99.727
0
LINE
8
BLACK
6
CONTINUOUS
10
161.245
20
-99.727
11
160.959
21
-99.2984
0
LINE
8
BLACK
6
CONTINUOUS
10
160.959
20
-99.2984
11
160.816
21
-99.1556
0
LINE
8
BLACK
6
CONTINUOUS
10
166.245
20
-103.727
11
166.102
21
-103.584
0
LINE
8
BLACK
6
CONTINUOUS
10
166.102
20
-103.584
11
165.816
21
-103.156
0
LINE
8
BLACK
6
CONTINUOUS
10
165.816
20
-103.156
11
165.673
21
-102.87
0
LINE
8
BLACK
6
CONTINUOUS
10
165.673
20
-102.87
11
165.531
21
-102.441
0
LINE
8
BLACK
6
CONTINUOUS
10
165.531
20
-102.441
11
165.388
21
-101.727
0
LINE
8
BLACK
6
CONTINUOUS
10
165.388
20
-101.727
11
165.388
21
-101.156
0
LINE
8
BLACK
6
CONTINUOUS
10
165.388
20
-101.156
11
165.531
21
-100.441
0
LINE
8
BLACK
6
CONTINUOUS
10
165.531
20
-100.441
11
165.673
21
-100.013
0
LINE
8
BLACK
6
CONTINUOUS
10
165.673
20
-100.013
11
165.816
21
-99.727
0
LINE
8
BLACK
6
CONTINUOUS
10
165.816
20
-99.727
11
166.102
21
-99.2984
0
LINE
8
BLACK
6
CONTINUOUS
10
166.102
20
-99.2984
11
166.245
21
-99.1556
0
LINE
8
BLACK
6
CONTINUOUS
10
167.388
20
-100.584
11
167.388
21
-102.584
0
LINE
8
BLACK
6
CONTINUOUS
10
167.388
20
-100.87
11
167.531
21
-100.727
0
LINE
8
BLACK
6
CONTINUOUS
10
167.531
20
-100.727
11
167.816
21
-100.584
0
LINE
8
BLACK
6
CONTINUOUS
10
167.816
20
-100.584
11
168.245
21
-100.584
0
LINE
8
BLACK
6
CONTINUOUS
10
168.245
20
-100.584
11
168.531
21
-100.727
0
LINE
8
BLACK
6
CONTINUOUS
10
168.531
20
-100.727
11
168.673
21
-101.013
0
LINE
8
BLACK
6
CONTINUOUS
10
168.673
20
-101.013
11
168.673
21
-102.584
0
LINE
8
BLACK
6
CONTINUOUS
10
170.531
20
-102.584
11
170.245
21
-102.441
0
LINE
8
BLACK
6
CONTINUOUS
10
170.245
20
-102.441
11
170.102
21
-102.298
0
LINE
8
BLACK
6
CONTINUOUS
10
170.102
20
-102.298
11
169.959
21
-102.013
0
LINE
8
BLACK
6
CONTINUOUS
10
169.959
20
-102.013
11
169.959
21
-101.156
0
LINE
8
BLACK
6
CONTINUOUS
10
169.959
20
-101.156
11
170.102
21
-100.87
0
LINE
8
BLACK
6
CONTINUOUS
10
170.102
20
-100.87
11
170.245
21
-100.727
0
LINE
8
BLACK
6
CONTINUOUS
10
170.245
20
-100.727
11
170.531
21
-100.584
0
LINE
8
BLACK
6
CONTINUOUS
10
170.531
20
-100.584
11
170.959
21
-100.584
0
LINE
8
BLACK
6
CONTINUOUS
10
170.959
20
-100.584
11
171.245
21
-100.727
0
LINE
8
BLACK
6
CONTINUOUS
10
171.245
20
-100.727
11
171.388
21
-100.87
0
LINE
8
BLACK
6
CONTINUOUS
10
171.388
20
-100.87
11
171.531
21
-101.156
0
LINE
8
BLACK
6
CONTINUOUS
10
171.531
20
-101.156
11
171.531
21
-102.013
0
LINE
8
BLACK
6
CONTINUOUS
10
171.531
20
-102.013
11
171.388
21
-102.298
0
LINE
8
BLACK
6
CONTINUOUS
10
171.388
20
-102.298
11
171.245
21
-102.441
0
LINE
8
BLACK
6
CONTINUOUS
10
171.245
20
-102.441
11
170.959
21
-102.584
0
LINE
8
BLACK
6
CONTINUOUS
10
170.959
20
-102.584
11
170.531
21
-102.584
0
LINE
8
BLACK
6
CONTINUOUS
10
172.388
20
-100.584
11
173.531
21
-100.584
0
LINE
8
BLACK
6
CONTINUOUS
10
172.816
20
-99.5841
11
172.816
21
-102.156
0
LINE
8
BLACK
6
CONTINUOUS
10
172.816
20
-102.156
11
172.959
21
-102.441
0
LINE
8
BLACK
6
CONTINUOUS
10
172.959
20
-102.441
11
173.245
21
-102.584
0
LINE
8
BLACK
6
CONTINUOUS
10
173.245
20
-102.584
11
173.531
21
-102.584
0
LINE
8
BLACK
6
CONTINUOUS
10
176.816
20
-100.584
11
176.816
21
-103.584
0
LINE
8
BLACK
6
CONTINUOUS
10
176.816
20
-100.727
11
177.102
21
-100.584
0
LINE
8
BLACK
6
CONTINUOUS
10
177.102
20
-100.584
11
177.673
21
-100.584
0
LINE
8
BLACK
6
CONTINUOUS
10
177.673
20
-100.584
11
177.959
21
-100.727
0
LINE
8
BLACK
6
CONTINUOUS
10
177.959
20
-100.727
11
178.102
21
-100.87
0
LINE
8
BLACK
6
CONTINUOUS
10
178.102
20
-100.87
11
178.245
21
-101.156
0
LINE
8
BLACK
6
CONTINUOUS
10
178.245
20
-101.156
11
178.245
21
-102.013
0
LINE
8
BLACK
6
CONTINUOUS
10
178.245
20
-102.013
11
178.102
21
-102.298
0
LINE
8
BLACK
6
CONTINUOUS
10
178.102
20
-102.298
11
177.959
21
-102.441
0
LINE
8
BLACK
6
CONTINUOUS
10
177.959
20
-102.441
11
177.673
21
-102.584
0
LINE
8
BLACK
6
CONTINUOUS
10
177.673
20
-102.584
11
177.102
21
-102.584
0
LINE
8
BLACK
6
CONTINUOUS
10
177.102
20
-102.584
11
176.816
21
-102.441
0
LINE
8
BLACK
6
CONTINUOUS
10
179.959
20
-102.584
11
179.673
21
-102.441
0
LINE
8
BLACK
6
CONTINUOUS
10
179.673
20
-102.441
11
179.531
21
-102.156
0
LINE
8
BLACK
6
CONTINUOUS
10
179.531
20
-102.156
11
179.531
21
-99.5841
0
LINE
8
BLACK
6
CONTINUOUS
10
182.388
20
-102.584
11
182.388
21
-101.013
0
LINE
8
BLACK
6
CONTINUOUS
10
182.388
20
-101.013
11
182.245
21
-100.727
0
LINE
8
BLACK
6
CONTINUOUS
10
182.245
20
-100.727
11
181.959
21
-100.584
0
LINE
8
BLACK
6
CONTINUOUS
10
181.959
20
-100.584
11
181.388
21
-100.584
0
LINE
8
BLACK
6
CONTINUOUS
10
181.388
20
-100.584
11
181.102
21
-100.727
0
LINE
8
BLACK
6
CONTINUOUS
10
182.388
20
-102.441
11
182.102
21
-102.584
0
LINE
8
BLACK
6
CONTINUOUS
10
182.102
20
-102.584
11
181.388
21
-102.584
0
LINE
8
BLACK
6
CONTINUOUS
10
181.388
20
-102.584
11
181.102
21
-102.441
0
LINE
8
BLACK
6
CONTINUOUS
10
181.102
20
-102.441
11
180.959
21
-102.156
0
LINE
8
BLACK
6
CONTINUOUS
10
180.959
20
-102.156
11
180.959
21
-101.87
0
LINE
8
BLACK
6
CONTINUOUS
10
180.959
20
-101.87
11
181.102
21
-101.584
0
LINE
8
BLACK
6
CONTINUOUS
10
181.102
20
-101.584
11
181.388
21
-101.441
0
LINE
8
BLACK
6
CONTINUOUS
10
181.388
20
-101.441
11
182.102
21
-101.441
0
LINE
8
BLACK
6
CONTINUOUS
10
182.102
20
-101.441
11
182.388
21
-101.298
0
LINE
8
BLACK
6
CONTINUOUS
10
183.388
20
-100.584
11
184.531
21
-100.584
0
LINE
8
BLACK
6
CONTINUOUS
10
183.816
20
-99.5841
11
183.816
21
-102.156
0
LINE
8
BLACK
6
CONTINUOUS
10
183.816
20
-102.156
11
183.959
21
-102.441
0
LINE
8
BLACK
6
CONTINUOUS
10
183.959
20
-102.441
11
184.245
21
-102.584
0
LINE
8
BLACK
6
CONTINUOUS
10
184.245
20
-102.584
11
184.531
21
-102.584
0
LINE
8
BLACK
6
CONTINUOUS
10
186.673
20
-102.441
11
186.388
21
-102.584
0
LINE
8
BLACK
6
CONTINUOUS
10
186.388
20
-102.584
11
185.816
21
-102.584
0
LINE
8
BLACK
6
CONTINUOUS
10
185.816
20
-102.584
11
185.531
21
-102.441
0
LINE
8
BLACK
6
CONTINUOUS
10
185.531
20
-102.441
11
185.388
21
-102.156
0
LINE
8
BLACK
6
CONTINUOUS
10
185.388
20
-102.156
11
185.388
21
-101.013
0
LINE
8
BLACK
6
CONTINUOUS
10
185.388
20
-101.013
11
185.531
21
-100.727
0
LINE
8
BLACK
6
CONTINUOUS
10
185.531
20
-100.727
11
185.816
21
-100.584
0
LINE
8
BLACK
6
CONTINUOUS
10
185.816
20
-100.584
11
186.388
21
-100.584
0
LINE
8
BLACK
6
CONTINUOUS
10
186.388
20
-100.584
11
186.673
21
-100.727
0
LINE
8
BLACK
6
CONTINUOUS
10
186.673
20
-100.727
11
186.816
21
-101.013
0
LINE
8
BLACK
6
CONTINUOUS
10
186.816
20
-101.013
11
186.816
21
-101.298
0
LINE
8
BLACK
6
CONTINUOUS
10
186.816
20
-101.298
11
185.388
21
-101.584
0
LINE
8
BLACK
6
CONTINUOUS
10
189.388
20
-102.584
11
189.388
21
-99.5841
0
LINE
8
BLACK
6
CONTINUOUS
10
189.388
20
-102.441
11
189.102
21
-102.584
0
LINE
8
BLACK
6
CONTINUOUS
10
189.102
20
-102.584
11
188.531
21
-102.584
0
LINE
8
BLACK
6
CONTINUOUS
10
188.531
20
-102.584
11
188.245
21
-102.441
0
LINE
8
BLACK
6
CONTINUOUS
10
188.245
20
-102.441
11
188.102
21
-102.298
0
LINE
8
BLACK
6
CONTINUOUS
10
188.102
20
-102.298
11
187.959
21
-102.013
0
LINE
8
BLACK
6
CONTINUOUS
10
187.959
20
-102.013
11
187.959
21
-101.156
0
LINE
8
BLACK
6
CONTINUOUS
10
187.959
20
-101.156
11
188.102
21
-100.87
0
LINE
8
BLACK
6
CONTINUOUS
10
188.102
20
-100.87
11
188.245
21
-100.727
0
LINE
8
BLACK
6
CONTINUOUS
10
188.245
20
-100.727
11
188.531
21
-100.584
0
LINE
8
BLACK
6
CONTINUOUS
10
188.531
20
-100.584
11
189.102
21
-100.584
0
LINE
8
BLACK
6
CONTINUOUS
10
189.102
20
-100.584
11
189.388
21
-100.727
0
LINE
8
BLACK
6
CONTINUOUS
10
190.531
20
-103.727
11
190.673
21
-103.584
0
LINE
8
BLACK
6
CONTINUOUS
10
190.673
20
-103.584
11
190.959
21
-103.156
0
LINE
8
BLACK
6
CONTINUOUS
10
190.959
20
-103.156
11
191.102
21
-102.87
0
LINE
8
BLACK
6
CONTINUOUS
10
191.102
20
-102.87
11
191.245
21
-102.441
0
LINE
8
BLACK
6
CONTINUOUS
10
191.245
20
-102.441
11
191.388
21
-101.727
0
LINE
8
BLACK
6
CONTINUOUS
10
191.388
20
-101.727
11
191.388
21
-101.156
0
LINE
8
BLACK
6
CONTINUOUS
10
191.388
20
-101.156
11
191.245
21
-100.441
0
LINE
8
BLACK
6
CONTINUOUS
10
191.245
20
-100.441
11
191.102
21
-100.013
0
LINE
8
BLACK
6
CONTINUOUS
10
191.102
20
-100.013
11
190.959
21
-99.727
0
LINE
8
BLACK
6
CONTINUOUS
10
190.959
20
-99.727
11
190.673
21
-99.2984
0
LINE
8
BLACK
6
CONTINUOUS
10
190.673
20
-99.2984
11
190.531
21
-99.1556
  0
ENDSEC
  0
EOF
