G04 #@! TF.GenerationSoftware,KiCad,Pcbnew,(5.1.5-0-10_14)*
G04 #@! TF.CreationDate,2021-04-18T15:07:52+10:00*
G04 #@! TF.ProjectId,OH - Right Console - Forward Aux,4f48202d-2052-4696-9768-7420436f6e73,rev?*
G04 #@! TF.SameCoordinates,Original*
G04 #@! TF.FileFunction,Soldermask,Bot*
G04 #@! TF.FilePolarity,Negative*
%FSLAX46Y46*%
G04 Gerber Fmt 4.6, Leading zero omitted, Abs format (unit mm)*
G04 Created by KiCad (PCBNEW (5.1.5-0-10_14)) date 2021-04-18 15:07:52*
%MOMM*%
%LPD*%
G04 APERTURE LIST*
%ADD10C,0.100000*%
G04 APERTURE END LIST*
D10*
G36*
X158122007Y-105560582D02*
G01*
X158522563Y-105726498D01*
X158522565Y-105726499D01*
X158883056Y-105967371D01*
X159189629Y-106273944D01*
X159414836Y-106610991D01*
X159430502Y-106634437D01*
X159596418Y-107034993D01*
X159681000Y-107460219D01*
X159681000Y-107893781D01*
X159596418Y-108319007D01*
X159487339Y-108582346D01*
X159430501Y-108719565D01*
X159189629Y-109080056D01*
X158883056Y-109386629D01*
X158522565Y-109627501D01*
X158522564Y-109627502D01*
X158522563Y-109627502D01*
X158122007Y-109793418D01*
X157696781Y-109878000D01*
X157263219Y-109878000D01*
X156837993Y-109793418D01*
X156437437Y-109627502D01*
X156437436Y-109627502D01*
X156437435Y-109627501D01*
X156076944Y-109386629D01*
X155770371Y-109080056D01*
X155529499Y-108719565D01*
X155472661Y-108582346D01*
X155363582Y-108319007D01*
X155279000Y-107893781D01*
X155279000Y-107460219D01*
X155363582Y-107034993D01*
X155529498Y-106634437D01*
X155545164Y-106610991D01*
X155770371Y-106273944D01*
X156076944Y-105967371D01*
X156437435Y-105726499D01*
X156437437Y-105726498D01*
X156837993Y-105560582D01*
X157263219Y-105476000D01*
X157696781Y-105476000D01*
X158122007Y-105560582D01*
G37*
G36*
X111005007Y-105560582D02*
G01*
X111405563Y-105726498D01*
X111405565Y-105726499D01*
X111766056Y-105967371D01*
X112072629Y-106273944D01*
X112297836Y-106610991D01*
X112313502Y-106634437D01*
X112479418Y-107034993D01*
X112564000Y-107460219D01*
X112564000Y-107893781D01*
X112479418Y-108319007D01*
X112370339Y-108582346D01*
X112313501Y-108719565D01*
X112072629Y-109080056D01*
X111766056Y-109386629D01*
X111405565Y-109627501D01*
X111405564Y-109627502D01*
X111405563Y-109627502D01*
X111005007Y-109793418D01*
X110579781Y-109878000D01*
X110146219Y-109878000D01*
X109720993Y-109793418D01*
X109320437Y-109627502D01*
X109320436Y-109627502D01*
X109320435Y-109627501D01*
X108959944Y-109386629D01*
X108653371Y-109080056D01*
X108412499Y-108719565D01*
X108355661Y-108582346D01*
X108246582Y-108319007D01*
X108162000Y-107893781D01*
X108162000Y-107460219D01*
X108246582Y-107034993D01*
X108412498Y-106634437D01*
X108428164Y-106610991D01*
X108653371Y-106273944D01*
X108959944Y-105967371D01*
X109320435Y-105726499D01*
X109320437Y-105726498D01*
X109720993Y-105560582D01*
X110146219Y-105476000D01*
X110579781Y-105476000D01*
X111005007Y-105560582D01*
G37*
G36*
X119433547Y-106558326D02*
G01*
X119607156Y-106610990D01*
X119607158Y-106610991D01*
X119767155Y-106696511D01*
X119907397Y-106811603D01*
X119971856Y-106890148D01*
X120022489Y-106951844D01*
X120108010Y-107111843D01*
X120160674Y-107285452D01*
X120161958Y-107298489D01*
X120173917Y-107419908D01*
X120174000Y-107420756D01*
X120174000Y-107971243D01*
X120160674Y-108106548D01*
X120108010Y-108280157D01*
X120022489Y-108440156D01*
X119986729Y-108483729D01*
X119907397Y-108580397D01*
X119810729Y-108659729D01*
X119767156Y-108695489D01*
X119607157Y-108781010D01*
X119433548Y-108833674D01*
X119253000Y-108851456D01*
X119072453Y-108833674D01*
X118898844Y-108781010D01*
X118738845Y-108695489D01*
X118695272Y-108659729D01*
X118598604Y-108580397D01*
X118483513Y-108440157D01*
X118483512Y-108440155D01*
X118397990Y-108280157D01*
X118345326Y-108106548D01*
X118332000Y-107971244D01*
X118332000Y-107420757D01*
X118345326Y-107285453D01*
X118397990Y-107111844D01*
X118483511Y-106951845D01*
X118487934Y-106946456D01*
X118598603Y-106811603D01*
X118695271Y-106732271D01*
X118738844Y-106696511D01*
X118898843Y-106610990D01*
X119072452Y-106558326D01*
X119253000Y-106540544D01*
X119433547Y-106558326D01*
G37*
G36*
X117492561Y-106548966D02*
G01*
X117525383Y-106558923D01*
X117555632Y-106575092D01*
X117582148Y-106596852D01*
X117603908Y-106623368D01*
X117620077Y-106653617D01*
X117630034Y-106686439D01*
X117634000Y-106726713D01*
X117634000Y-108665287D01*
X117630034Y-108705561D01*
X117620077Y-108738383D01*
X117603908Y-108768632D01*
X117582148Y-108795148D01*
X117555632Y-108816908D01*
X117525383Y-108833077D01*
X117492561Y-108843034D01*
X117452287Y-108847000D01*
X115973713Y-108847000D01*
X115933439Y-108843034D01*
X115900617Y-108833077D01*
X115870368Y-108816908D01*
X115843852Y-108795148D01*
X115822092Y-108768632D01*
X115805923Y-108738383D01*
X115795966Y-108705561D01*
X115792000Y-108665287D01*
X115792000Y-106726713D01*
X115795966Y-106686439D01*
X115805923Y-106653617D01*
X115822092Y-106623368D01*
X115843852Y-106596852D01*
X115870368Y-106575092D01*
X115900617Y-106558923D01*
X115933439Y-106548966D01*
X115973713Y-106545000D01*
X117452287Y-106545000D01*
X117492561Y-106548966D01*
G37*
G36*
X170614547Y-105161326D02*
G01*
X170788156Y-105213990D01*
X170788158Y-105213991D01*
X170948155Y-105299511D01*
X171088397Y-105414603D01*
X171138783Y-105476000D01*
X171203489Y-105554844D01*
X171289010Y-105714843D01*
X171341674Y-105888452D01*
X171355000Y-106023756D01*
X171355000Y-106574243D01*
X171341674Y-106709548D01*
X171289010Y-106883157D01*
X171203489Y-107043156D01*
X171167729Y-107086729D01*
X171088397Y-107183397D01*
X170991729Y-107262729D01*
X170948156Y-107298489D01*
X170788157Y-107384010D01*
X170614548Y-107436674D01*
X170434000Y-107454456D01*
X170253453Y-107436674D01*
X170079844Y-107384010D01*
X169919845Y-107298489D01*
X169876272Y-107262729D01*
X169779604Y-107183397D01*
X169664513Y-107043157D01*
X169664512Y-107043155D01*
X169578990Y-106883157D01*
X169526326Y-106709548D01*
X169514513Y-106589602D01*
X169513000Y-106574245D01*
X169513000Y-106023756D01*
X169526326Y-105888455D01*
X169526326Y-105888453D01*
X169578990Y-105714844D01*
X169664511Y-105554845D01*
X169664512Y-105554844D01*
X169779603Y-105414603D01*
X169905388Y-105311375D01*
X169919844Y-105299511D01*
X170079843Y-105213990D01*
X170253452Y-105161326D01*
X170434000Y-105143544D01*
X170614547Y-105161326D01*
G37*
G36*
X168673561Y-105151966D02*
G01*
X168706383Y-105161923D01*
X168736632Y-105178092D01*
X168763148Y-105199852D01*
X168784908Y-105226368D01*
X168801077Y-105256617D01*
X168811034Y-105289439D01*
X168815000Y-105329713D01*
X168815000Y-107268287D01*
X168811034Y-107308561D01*
X168801077Y-107341383D01*
X168784908Y-107371632D01*
X168763148Y-107398148D01*
X168736632Y-107419908D01*
X168706383Y-107436077D01*
X168673561Y-107446034D01*
X168633287Y-107450000D01*
X167154713Y-107450000D01*
X167114439Y-107446034D01*
X167081617Y-107436077D01*
X167051368Y-107419908D01*
X167024852Y-107398148D01*
X167003092Y-107371632D01*
X166986923Y-107341383D01*
X166976966Y-107308561D01*
X166973000Y-107268287D01*
X166973000Y-105329713D01*
X166976966Y-105289439D01*
X166986923Y-105256617D01*
X167003092Y-105226368D01*
X167024852Y-105199852D01*
X167051368Y-105178092D01*
X167081617Y-105161923D01*
X167114439Y-105151966D01*
X167154713Y-105148000D01*
X168633287Y-105148000D01*
X168673561Y-105151966D01*
G37*
G36*
X133149547Y-104653326D02*
G01*
X133323156Y-104705990D01*
X133323158Y-104705991D01*
X133483155Y-104791511D01*
X133623397Y-104906603D01*
X133702729Y-105003271D01*
X133738489Y-105046844D01*
X133824010Y-105206843D01*
X133876674Y-105380452D01*
X133890000Y-105515756D01*
X133890000Y-106066243D01*
X133876674Y-106201548D01*
X133824010Y-106375157D01*
X133738489Y-106535156D01*
X133706411Y-106574243D01*
X133623397Y-106675397D01*
X133526729Y-106754729D01*
X133483156Y-106790489D01*
X133323157Y-106876010D01*
X133149548Y-106928674D01*
X132969000Y-106946456D01*
X132788453Y-106928674D01*
X132614844Y-106876010D01*
X132454845Y-106790489D01*
X132411272Y-106754729D01*
X132314604Y-106675397D01*
X132199513Y-106535157D01*
X132199512Y-106535155D01*
X132113990Y-106375157D01*
X132061326Y-106201548D01*
X132048000Y-106066244D01*
X132048000Y-105515757D01*
X132061326Y-105380453D01*
X132113990Y-105206844D01*
X132199511Y-105046845D01*
X132199512Y-105046844D01*
X132314603Y-104906603D01*
X132440388Y-104803375D01*
X132454844Y-104791511D01*
X132614843Y-104705990D01*
X132788452Y-104653326D01*
X132969000Y-104635544D01*
X133149547Y-104653326D01*
G37*
G36*
X143309547Y-104653326D02*
G01*
X143483156Y-104705990D01*
X143483158Y-104705991D01*
X143643155Y-104791511D01*
X143783397Y-104906603D01*
X143862729Y-105003271D01*
X143898489Y-105046844D01*
X143984010Y-105206843D01*
X144036674Y-105380452D01*
X144050000Y-105515756D01*
X144050000Y-106066243D01*
X144036674Y-106201548D01*
X143984010Y-106375157D01*
X143898489Y-106535156D01*
X143866411Y-106574243D01*
X143783397Y-106675397D01*
X143686729Y-106754729D01*
X143643156Y-106790489D01*
X143483157Y-106876010D01*
X143309548Y-106928674D01*
X143129000Y-106946456D01*
X142948453Y-106928674D01*
X142774844Y-106876010D01*
X142614845Y-106790489D01*
X142571272Y-106754729D01*
X142474604Y-106675397D01*
X142359513Y-106535157D01*
X142359512Y-106535155D01*
X142273990Y-106375157D01*
X142221326Y-106201548D01*
X142208000Y-106066244D01*
X142208000Y-105515757D01*
X142221326Y-105380453D01*
X142273990Y-105206844D01*
X142359511Y-105046845D01*
X142359512Y-105046844D01*
X142474603Y-104906603D01*
X142600388Y-104803375D01*
X142614844Y-104791511D01*
X142774843Y-104705990D01*
X142948452Y-104653326D01*
X143129000Y-104635544D01*
X143309547Y-104653326D01*
G37*
G36*
X140769547Y-104653326D02*
G01*
X140943156Y-104705990D01*
X140943158Y-104705991D01*
X141103155Y-104791511D01*
X141243397Y-104906603D01*
X141322729Y-105003271D01*
X141358489Y-105046844D01*
X141444010Y-105206843D01*
X141496674Y-105380452D01*
X141510000Y-105515756D01*
X141510000Y-106066243D01*
X141496674Y-106201548D01*
X141444010Y-106375157D01*
X141358489Y-106535156D01*
X141326411Y-106574243D01*
X141243397Y-106675397D01*
X141146729Y-106754729D01*
X141103156Y-106790489D01*
X140943157Y-106876010D01*
X140769548Y-106928674D01*
X140589000Y-106946456D01*
X140408453Y-106928674D01*
X140234844Y-106876010D01*
X140074845Y-106790489D01*
X140031272Y-106754729D01*
X139934604Y-106675397D01*
X139819513Y-106535157D01*
X139819512Y-106535155D01*
X139733990Y-106375157D01*
X139681326Y-106201548D01*
X139668000Y-106066244D01*
X139668000Y-105515757D01*
X139681326Y-105380453D01*
X139733990Y-105206844D01*
X139819511Y-105046845D01*
X139819512Y-105046844D01*
X139934603Y-104906603D01*
X140060388Y-104803375D01*
X140074844Y-104791511D01*
X140234843Y-104705990D01*
X140408452Y-104653326D01*
X140589000Y-104635544D01*
X140769547Y-104653326D01*
G37*
G36*
X138229547Y-104653326D02*
G01*
X138403156Y-104705990D01*
X138403158Y-104705991D01*
X138563155Y-104791511D01*
X138703397Y-104906603D01*
X138782729Y-105003271D01*
X138818489Y-105046844D01*
X138904010Y-105206843D01*
X138956674Y-105380452D01*
X138970000Y-105515756D01*
X138970000Y-106066243D01*
X138956674Y-106201548D01*
X138904010Y-106375157D01*
X138818489Y-106535156D01*
X138786411Y-106574243D01*
X138703397Y-106675397D01*
X138606729Y-106754729D01*
X138563156Y-106790489D01*
X138403157Y-106876010D01*
X138229548Y-106928674D01*
X138049000Y-106946456D01*
X137868453Y-106928674D01*
X137694844Y-106876010D01*
X137534845Y-106790489D01*
X137491272Y-106754729D01*
X137394604Y-106675397D01*
X137279513Y-106535157D01*
X137279512Y-106535155D01*
X137193990Y-106375157D01*
X137141326Y-106201548D01*
X137128000Y-106066244D01*
X137128000Y-105515757D01*
X137141326Y-105380453D01*
X137193990Y-105206844D01*
X137279511Y-105046845D01*
X137279512Y-105046844D01*
X137394603Y-104906603D01*
X137520388Y-104803375D01*
X137534844Y-104791511D01*
X137694843Y-104705990D01*
X137868452Y-104653326D01*
X138049000Y-104635544D01*
X138229547Y-104653326D01*
G37*
G36*
X135689547Y-104653326D02*
G01*
X135863156Y-104705990D01*
X135863158Y-104705991D01*
X136023155Y-104791511D01*
X136163397Y-104906603D01*
X136242729Y-105003271D01*
X136278489Y-105046844D01*
X136364010Y-105206843D01*
X136416674Y-105380452D01*
X136430000Y-105515756D01*
X136430000Y-106066243D01*
X136416674Y-106201548D01*
X136364010Y-106375157D01*
X136278489Y-106535156D01*
X136246411Y-106574243D01*
X136163397Y-106675397D01*
X136066729Y-106754729D01*
X136023156Y-106790489D01*
X135863157Y-106876010D01*
X135689548Y-106928674D01*
X135509000Y-106946456D01*
X135328453Y-106928674D01*
X135154844Y-106876010D01*
X134994845Y-106790489D01*
X134951272Y-106754729D01*
X134854604Y-106675397D01*
X134739513Y-106535157D01*
X134739512Y-106535155D01*
X134653990Y-106375157D01*
X134601326Y-106201548D01*
X134588000Y-106066244D01*
X134588000Y-105515757D01*
X134601326Y-105380453D01*
X134653990Y-105206844D01*
X134739511Y-105046845D01*
X134739512Y-105046844D01*
X134854603Y-104906603D01*
X134980388Y-104803375D01*
X134994844Y-104791511D01*
X135154843Y-104705990D01*
X135328452Y-104653326D01*
X135509000Y-104635544D01*
X135689547Y-104653326D01*
G37*
G36*
X131208561Y-104643966D02*
G01*
X131241383Y-104653923D01*
X131271632Y-104670092D01*
X131298148Y-104691852D01*
X131319908Y-104718368D01*
X131336077Y-104748617D01*
X131346034Y-104781439D01*
X131350000Y-104821713D01*
X131350000Y-106760287D01*
X131346034Y-106800561D01*
X131336077Y-106833383D01*
X131319908Y-106863632D01*
X131298148Y-106890148D01*
X131271632Y-106911908D01*
X131241383Y-106928077D01*
X131208561Y-106938034D01*
X131168287Y-106942000D01*
X129689713Y-106942000D01*
X129649439Y-106938034D01*
X129616617Y-106928077D01*
X129586368Y-106911908D01*
X129559852Y-106890148D01*
X129538092Y-106863632D01*
X129521923Y-106833383D01*
X129511966Y-106800561D01*
X129508000Y-106760287D01*
X129508000Y-104821713D01*
X129511966Y-104781439D01*
X129521923Y-104748617D01*
X129538092Y-104718368D01*
X129559852Y-104691852D01*
X129586368Y-104670092D01*
X129616617Y-104653923D01*
X129649439Y-104643966D01*
X129689713Y-104640000D01*
X131168287Y-104640000D01*
X131208561Y-104643966D01*
G37*
G36*
X119560547Y-98303326D02*
G01*
X119734156Y-98355990D01*
X119734158Y-98355991D01*
X119894155Y-98441511D01*
X120034397Y-98556603D01*
X120113729Y-98653271D01*
X120149489Y-98696844D01*
X120235010Y-98856843D01*
X120287674Y-99030452D01*
X120301000Y-99165756D01*
X120301000Y-99716243D01*
X120287674Y-99851548D01*
X120235010Y-100025157D01*
X120149489Y-100185156D01*
X120113729Y-100228729D01*
X120034397Y-100325397D01*
X119937729Y-100404729D01*
X119894156Y-100440489D01*
X119734157Y-100526010D01*
X119560548Y-100578674D01*
X119380000Y-100596456D01*
X119199453Y-100578674D01*
X119025844Y-100526010D01*
X118865845Y-100440489D01*
X118822272Y-100404729D01*
X118725604Y-100325397D01*
X118610513Y-100185157D01*
X118610512Y-100185155D01*
X118524990Y-100025157D01*
X118472326Y-99851548D01*
X118459000Y-99716244D01*
X118459000Y-99165757D01*
X118472326Y-99030453D01*
X118524990Y-98856844D01*
X118610511Y-98696845D01*
X118631601Y-98671147D01*
X118725603Y-98556603D01*
X118851388Y-98453375D01*
X118865844Y-98441511D01*
X119025843Y-98355990D01*
X119199452Y-98303326D01*
X119380000Y-98285544D01*
X119560547Y-98303326D01*
G37*
G36*
X117619561Y-98293966D02*
G01*
X117652383Y-98303923D01*
X117682632Y-98320092D01*
X117709148Y-98341852D01*
X117730908Y-98368368D01*
X117747077Y-98398617D01*
X117757034Y-98431439D01*
X117761000Y-98471713D01*
X117761000Y-100410287D01*
X117757034Y-100450561D01*
X117747077Y-100483383D01*
X117730908Y-100513632D01*
X117709148Y-100540148D01*
X117682632Y-100561908D01*
X117652383Y-100578077D01*
X117619561Y-100588034D01*
X117579287Y-100592000D01*
X116100713Y-100592000D01*
X116060439Y-100588034D01*
X116027617Y-100578077D01*
X115997368Y-100561908D01*
X115970852Y-100540148D01*
X115949092Y-100513632D01*
X115932923Y-100483383D01*
X115922966Y-100450561D01*
X115919000Y-100410287D01*
X115919000Y-98471713D01*
X115922966Y-98431439D01*
X115932923Y-98398617D01*
X115949092Y-98368368D01*
X115970852Y-98341852D01*
X115997368Y-98320092D01*
X116027617Y-98303923D01*
X116060439Y-98293966D01*
X116100713Y-98290000D01*
X117579287Y-98290000D01*
X117619561Y-98293966D01*
G37*
G36*
X133471228Y-97098703D02*
G01*
X133626100Y-97162853D01*
X133765481Y-97255985D01*
X133884015Y-97374519D01*
X133977147Y-97513900D01*
X134041297Y-97668772D01*
X134074000Y-97833184D01*
X134074000Y-98000816D01*
X134041297Y-98165228D01*
X133977147Y-98320100D01*
X133884015Y-98459481D01*
X133765481Y-98578015D01*
X133626100Y-98671147D01*
X133471228Y-98735297D01*
X133306816Y-98768000D01*
X133139184Y-98768000D01*
X132974772Y-98735297D01*
X132819900Y-98671147D01*
X132680519Y-98578015D01*
X132561985Y-98459481D01*
X132468853Y-98320100D01*
X132404703Y-98165228D01*
X132372000Y-98000816D01*
X132372000Y-97833184D01*
X132404703Y-97668772D01*
X132468853Y-97513900D01*
X132561985Y-97374519D01*
X132680519Y-97255985D01*
X132819900Y-97162853D01*
X132974772Y-97098703D01*
X133139184Y-97066000D01*
X133306816Y-97066000D01*
X133471228Y-97098703D01*
G37*
G36*
X126454000Y-98768000D02*
G01*
X124752000Y-98768000D01*
X124752000Y-97066000D01*
X126454000Y-97066000D01*
X126454000Y-98768000D01*
G37*
G36*
X150040547Y-96271326D02*
G01*
X150214156Y-96323990D01*
X150214158Y-96323991D01*
X150374155Y-96409511D01*
X150514397Y-96524603D01*
X150593729Y-96621271D01*
X150629489Y-96664844D01*
X150715010Y-96824843D01*
X150767674Y-96998452D01*
X150781000Y-97133756D01*
X150781000Y-97684243D01*
X150767674Y-97819548D01*
X150715010Y-97993157D01*
X150629489Y-98153156D01*
X150593729Y-98196729D01*
X150514397Y-98293397D01*
X150424083Y-98367515D01*
X150374156Y-98408489D01*
X150214157Y-98494010D01*
X150040548Y-98546674D01*
X149860000Y-98564456D01*
X149679453Y-98546674D01*
X149505844Y-98494010D01*
X149345845Y-98408489D01*
X149295918Y-98367515D01*
X149205604Y-98293397D01*
X149090513Y-98153157D01*
X149090512Y-98153155D01*
X149004990Y-97993157D01*
X148952326Y-97819548D01*
X148939000Y-97684244D01*
X148939000Y-97133757D01*
X148952326Y-96998453D01*
X149004990Y-96824844D01*
X149090511Y-96664845D01*
X149090512Y-96664844D01*
X149205603Y-96524603D01*
X149331388Y-96421375D01*
X149345844Y-96409511D01*
X149505843Y-96323990D01*
X149679452Y-96271326D01*
X149860000Y-96253544D01*
X150040547Y-96271326D01*
G37*
G36*
X148099561Y-96261966D02*
G01*
X148132383Y-96271923D01*
X148162632Y-96288092D01*
X148189148Y-96309852D01*
X148210908Y-96336368D01*
X148227077Y-96366617D01*
X148237034Y-96399439D01*
X148241000Y-96439713D01*
X148241000Y-98378287D01*
X148237034Y-98418561D01*
X148227077Y-98451383D01*
X148210908Y-98481632D01*
X148189148Y-98508148D01*
X148162632Y-98529908D01*
X148132383Y-98546077D01*
X148099561Y-98556034D01*
X148059287Y-98560000D01*
X146580713Y-98560000D01*
X146540439Y-98556034D01*
X146507617Y-98546077D01*
X146477368Y-98529908D01*
X146450852Y-98508148D01*
X146429092Y-98481632D01*
X146412923Y-98451383D01*
X146402966Y-98418561D01*
X146399000Y-98378287D01*
X146399000Y-96439713D01*
X146402966Y-96399439D01*
X146412923Y-96366617D01*
X146429092Y-96336368D01*
X146450852Y-96309852D01*
X146477368Y-96288092D01*
X146507617Y-96271923D01*
X146540439Y-96261966D01*
X146580713Y-96258000D01*
X148059287Y-96258000D01*
X148099561Y-96261966D01*
G37*
G36*
X111813547Y-93096326D02*
G01*
X111987156Y-93148990D01*
X111987158Y-93148991D01*
X112147155Y-93234511D01*
X112287397Y-93349603D01*
X112366729Y-93446271D01*
X112402489Y-93489844D01*
X112488010Y-93649843D01*
X112540674Y-93823452D01*
X112554000Y-93958756D01*
X112554000Y-94509243D01*
X112540674Y-94644548D01*
X112488010Y-94818157D01*
X112402489Y-94978156D01*
X112366729Y-95021729D01*
X112287397Y-95118397D01*
X112190729Y-95197729D01*
X112147156Y-95233489D01*
X111987157Y-95319010D01*
X111813548Y-95371674D01*
X111633000Y-95389456D01*
X111452453Y-95371674D01*
X111278844Y-95319010D01*
X111118845Y-95233489D01*
X111075272Y-95197729D01*
X110978604Y-95118397D01*
X110863513Y-94978157D01*
X110863512Y-94978155D01*
X110777990Y-94818157D01*
X110725326Y-94644548D01*
X110712000Y-94509244D01*
X110712000Y-93958757D01*
X110725326Y-93823453D01*
X110777990Y-93649844D01*
X110863511Y-93489845D01*
X110863512Y-93489844D01*
X110978603Y-93349603D01*
X111104388Y-93246375D01*
X111118844Y-93234511D01*
X111278843Y-93148990D01*
X111452452Y-93096326D01*
X111633000Y-93078544D01*
X111813547Y-93096326D01*
G37*
G36*
X109872561Y-93086966D02*
G01*
X109905383Y-93096923D01*
X109935632Y-93113092D01*
X109962148Y-93134852D01*
X109983908Y-93161368D01*
X110000077Y-93191617D01*
X110010034Y-93224439D01*
X110014000Y-93264713D01*
X110014000Y-95203287D01*
X110010034Y-95243561D01*
X110000077Y-95276383D01*
X109983908Y-95306632D01*
X109962148Y-95333148D01*
X109935632Y-95354908D01*
X109905383Y-95371077D01*
X109872561Y-95381034D01*
X109832287Y-95385000D01*
X108353713Y-95385000D01*
X108313439Y-95381034D01*
X108280617Y-95371077D01*
X108250368Y-95354908D01*
X108223852Y-95333148D01*
X108202092Y-95306632D01*
X108185923Y-95276383D01*
X108175966Y-95243561D01*
X108172000Y-95203287D01*
X108172000Y-93264713D01*
X108175966Y-93224439D01*
X108185923Y-93191617D01*
X108202092Y-93161368D01*
X108223852Y-93134852D01*
X108250368Y-93113092D01*
X108280617Y-93096923D01*
X108313439Y-93086966D01*
X108353713Y-93083000D01*
X109832287Y-93083000D01*
X109872561Y-93086966D01*
G37*
G36*
X170741547Y-92588326D02*
G01*
X170915156Y-92640990D01*
X170915158Y-92640991D01*
X171075155Y-92726511D01*
X171215397Y-92841603D01*
X171277508Y-92917287D01*
X171330489Y-92981844D01*
X171416010Y-93141843D01*
X171468674Y-93315452D01*
X171482000Y-93450756D01*
X171482000Y-94001243D01*
X171468674Y-94136548D01*
X171416010Y-94310157D01*
X171330489Y-94470156D01*
X171298411Y-94509243D01*
X171215397Y-94610397D01*
X171141189Y-94671297D01*
X171075156Y-94725489D01*
X170915157Y-94811010D01*
X170741548Y-94863674D01*
X170561000Y-94881456D01*
X170380453Y-94863674D01*
X170206844Y-94811010D01*
X170046845Y-94725489D01*
X169980812Y-94671297D01*
X169906604Y-94610397D01*
X169791513Y-94470157D01*
X169791512Y-94470155D01*
X169705990Y-94310157D01*
X169653326Y-94136548D01*
X169640000Y-94001244D01*
X169640000Y-93450757D01*
X169653326Y-93315453D01*
X169705990Y-93141844D01*
X169728891Y-93099000D01*
X169791511Y-92981845D01*
X169906603Y-92841603D01*
X170032388Y-92738375D01*
X170046844Y-92726511D01*
X170206843Y-92640990D01*
X170380452Y-92588326D01*
X170561000Y-92570544D01*
X170741547Y-92588326D01*
G37*
G36*
X168201547Y-92588326D02*
G01*
X168375156Y-92640990D01*
X168375158Y-92640991D01*
X168535155Y-92726511D01*
X168675397Y-92841603D01*
X168737508Y-92917287D01*
X168790489Y-92981844D01*
X168876010Y-93141843D01*
X168928674Y-93315452D01*
X168942000Y-93450756D01*
X168942000Y-94001243D01*
X168928674Y-94136548D01*
X168876010Y-94310157D01*
X168790489Y-94470156D01*
X168758411Y-94509243D01*
X168675397Y-94610397D01*
X168601189Y-94671297D01*
X168535156Y-94725489D01*
X168375157Y-94811010D01*
X168201548Y-94863674D01*
X168021000Y-94881456D01*
X167840453Y-94863674D01*
X167666844Y-94811010D01*
X167506845Y-94725489D01*
X167440812Y-94671297D01*
X167366604Y-94610397D01*
X167251513Y-94470157D01*
X167251512Y-94470155D01*
X167165990Y-94310157D01*
X167113326Y-94136548D01*
X167100000Y-94001244D01*
X167100000Y-93450757D01*
X167113326Y-93315453D01*
X167165990Y-93141844D01*
X167188891Y-93099000D01*
X167251511Y-92981845D01*
X167366603Y-92841603D01*
X167492388Y-92738375D01*
X167506844Y-92726511D01*
X167666843Y-92640990D01*
X167840452Y-92588326D01*
X168021000Y-92570544D01*
X168201547Y-92588326D01*
G37*
G36*
X160708547Y-92588326D02*
G01*
X160882156Y-92640990D01*
X160882158Y-92640991D01*
X161042155Y-92726511D01*
X161182397Y-92841603D01*
X161244508Y-92917287D01*
X161297489Y-92981844D01*
X161383010Y-93141843D01*
X161435674Y-93315452D01*
X161449000Y-93450756D01*
X161449000Y-94001243D01*
X161435674Y-94136548D01*
X161383010Y-94310157D01*
X161297489Y-94470156D01*
X161265411Y-94509243D01*
X161182397Y-94610397D01*
X161108189Y-94671297D01*
X161042156Y-94725489D01*
X160882157Y-94811010D01*
X160708548Y-94863674D01*
X160528000Y-94881456D01*
X160347453Y-94863674D01*
X160173844Y-94811010D01*
X160013845Y-94725489D01*
X159947812Y-94671297D01*
X159873604Y-94610397D01*
X159758513Y-94470157D01*
X159758512Y-94470155D01*
X159672990Y-94310157D01*
X159620326Y-94136548D01*
X159607000Y-94001244D01*
X159607000Y-93450757D01*
X159620326Y-93315453D01*
X159672990Y-93141844D01*
X159695891Y-93099000D01*
X159758511Y-92981845D01*
X159873603Y-92841603D01*
X159999388Y-92738375D01*
X160013844Y-92726511D01*
X160173843Y-92640990D01*
X160347452Y-92588326D01*
X160528000Y-92570544D01*
X160708547Y-92588326D01*
G37*
G36*
X158168547Y-92588326D02*
G01*
X158342156Y-92640990D01*
X158342158Y-92640991D01*
X158502155Y-92726511D01*
X158642397Y-92841603D01*
X158704508Y-92917287D01*
X158757489Y-92981844D01*
X158843010Y-93141843D01*
X158895674Y-93315452D01*
X158909000Y-93450756D01*
X158909000Y-94001243D01*
X158895674Y-94136548D01*
X158843010Y-94310157D01*
X158757489Y-94470156D01*
X158725411Y-94509243D01*
X158642397Y-94610397D01*
X158568189Y-94671297D01*
X158502156Y-94725489D01*
X158342157Y-94811010D01*
X158168548Y-94863674D01*
X157988000Y-94881456D01*
X157807453Y-94863674D01*
X157633844Y-94811010D01*
X157473845Y-94725489D01*
X157407812Y-94671297D01*
X157333604Y-94610397D01*
X157218513Y-94470157D01*
X157218512Y-94470155D01*
X157132990Y-94310157D01*
X157080326Y-94136548D01*
X157067000Y-94001244D01*
X157067000Y-93450757D01*
X157080326Y-93315453D01*
X157132990Y-93141844D01*
X157155891Y-93099000D01*
X157218511Y-92981845D01*
X157333603Y-92841603D01*
X157459388Y-92738375D01*
X157473844Y-92726511D01*
X157633843Y-92640990D01*
X157807452Y-92588326D01*
X157988000Y-92570544D01*
X158168547Y-92588326D01*
G37*
G36*
X156227561Y-92578966D02*
G01*
X156260383Y-92588923D01*
X156290632Y-92605092D01*
X156317148Y-92626852D01*
X156338908Y-92653368D01*
X156355077Y-92683617D01*
X156365034Y-92716439D01*
X156369000Y-92756713D01*
X156369000Y-94695287D01*
X156365034Y-94735561D01*
X156355077Y-94768383D01*
X156338908Y-94798632D01*
X156317148Y-94825148D01*
X156290632Y-94846908D01*
X156260383Y-94863077D01*
X156227561Y-94873034D01*
X156187287Y-94877000D01*
X154708713Y-94877000D01*
X154668439Y-94873034D01*
X154635617Y-94863077D01*
X154605368Y-94846908D01*
X154578852Y-94825148D01*
X154557092Y-94798632D01*
X154540923Y-94768383D01*
X154530966Y-94735561D01*
X154527000Y-94695287D01*
X154527000Y-92756713D01*
X154530966Y-92716439D01*
X154540923Y-92683617D01*
X154557092Y-92653368D01*
X154578852Y-92626852D01*
X154605368Y-92605092D01*
X154635617Y-92588923D01*
X154668439Y-92578966D01*
X154708713Y-92575000D01*
X156187287Y-92575000D01*
X156227561Y-92578966D01*
G37*
G36*
X166260561Y-92578966D02*
G01*
X166293383Y-92588923D01*
X166323632Y-92605092D01*
X166350148Y-92626852D01*
X166371908Y-92653368D01*
X166388077Y-92683617D01*
X166398034Y-92716439D01*
X166402000Y-92756713D01*
X166402000Y-94695287D01*
X166398034Y-94735561D01*
X166388077Y-94768383D01*
X166371908Y-94798632D01*
X166350148Y-94825148D01*
X166323632Y-94846908D01*
X166293383Y-94863077D01*
X166260561Y-94873034D01*
X166220287Y-94877000D01*
X164741713Y-94877000D01*
X164701439Y-94873034D01*
X164668617Y-94863077D01*
X164638368Y-94846908D01*
X164611852Y-94825148D01*
X164590092Y-94798632D01*
X164573923Y-94768383D01*
X164563966Y-94735561D01*
X164560000Y-94695287D01*
X164560000Y-92756713D01*
X164563966Y-92716439D01*
X164573923Y-92683617D01*
X164590092Y-92653368D01*
X164611852Y-92626852D01*
X164638368Y-92605092D01*
X164668617Y-92588923D01*
X164701439Y-92578966D01*
X164741713Y-92575000D01*
X166220287Y-92575000D01*
X166260561Y-92578966D01*
G37*
G36*
X126454000Y-94704000D02*
G01*
X124752000Y-94704000D01*
X124752000Y-93002000D01*
X126454000Y-93002000D01*
X126454000Y-94704000D01*
G37*
G36*
X133471228Y-93034703D02*
G01*
X133626100Y-93098853D01*
X133765481Y-93191985D01*
X133884015Y-93310519D01*
X133977147Y-93449900D01*
X134041297Y-93604772D01*
X134074000Y-93769184D01*
X134074000Y-93936816D01*
X134041297Y-94101228D01*
X133977147Y-94256100D01*
X133884015Y-94395481D01*
X133765481Y-94514015D01*
X133626100Y-94607147D01*
X133471228Y-94671297D01*
X133306816Y-94704000D01*
X133139184Y-94704000D01*
X132974772Y-94671297D01*
X132819900Y-94607147D01*
X132680519Y-94514015D01*
X132561985Y-94395481D01*
X132468853Y-94256100D01*
X132404703Y-94101228D01*
X132372000Y-93936816D01*
X132372000Y-93769184D01*
X132404703Y-93604772D01*
X132468853Y-93449900D01*
X132561985Y-93310519D01*
X132680519Y-93191985D01*
X132819900Y-93098853D01*
X132974772Y-93034703D01*
X133139184Y-93002000D01*
X133306816Y-93002000D01*
X133471228Y-93034703D01*
G37*
G36*
X142039547Y-90810326D02*
G01*
X142213156Y-90862990D01*
X142213158Y-90862991D01*
X142373155Y-90948511D01*
X142513397Y-91063603D01*
X142592729Y-91160271D01*
X142628489Y-91203844D01*
X142714010Y-91363843D01*
X142766674Y-91537452D01*
X142780000Y-91672756D01*
X142780000Y-92223243D01*
X142766674Y-92358548D01*
X142714010Y-92532157D01*
X142628489Y-92692156D01*
X142608560Y-92716439D01*
X142513397Y-92832397D01*
X142416729Y-92911729D01*
X142373156Y-92947489D01*
X142213157Y-93033010D01*
X142039548Y-93085674D01*
X141859000Y-93103456D01*
X141678453Y-93085674D01*
X141504844Y-93033010D01*
X141344845Y-92947489D01*
X141301272Y-92911729D01*
X141204604Y-92832397D01*
X141089513Y-92692157D01*
X141089512Y-92692155D01*
X141003990Y-92532157D01*
X140951326Y-92358548D01*
X140938000Y-92223244D01*
X140938000Y-91672757D01*
X140951326Y-91537453D01*
X141003990Y-91363844D01*
X141089511Y-91203845D01*
X141089512Y-91203844D01*
X141204603Y-91063603D01*
X141330388Y-90960375D01*
X141344844Y-90948511D01*
X141504843Y-90862990D01*
X141678452Y-90810326D01*
X141859000Y-90792544D01*
X142039547Y-90810326D01*
G37*
G36*
X140098561Y-90800966D02*
G01*
X140131383Y-90810923D01*
X140161632Y-90827092D01*
X140188148Y-90848852D01*
X140209908Y-90875368D01*
X140226077Y-90905617D01*
X140236034Y-90938439D01*
X140240000Y-90978713D01*
X140240000Y-92917287D01*
X140236034Y-92957561D01*
X140226077Y-92990383D01*
X140209908Y-93020632D01*
X140188148Y-93047148D01*
X140161632Y-93068908D01*
X140131383Y-93085077D01*
X140098561Y-93095034D01*
X140058287Y-93099000D01*
X138579713Y-93099000D01*
X138539439Y-93095034D01*
X138506617Y-93085077D01*
X138476368Y-93068908D01*
X138449852Y-93047148D01*
X138428092Y-93020632D01*
X138411923Y-92990383D01*
X138401966Y-92957561D01*
X138398000Y-92917287D01*
X138398000Y-90978713D01*
X138401966Y-90938439D01*
X138411923Y-90905617D01*
X138428092Y-90875368D01*
X138449852Y-90848852D01*
X138476368Y-90827092D01*
X138506617Y-90810923D01*
X138539439Y-90800966D01*
X138579713Y-90797000D01*
X140058287Y-90797000D01*
X140098561Y-90800966D01*
G37*
G36*
X119687547Y-89921326D02*
G01*
X119861156Y-89973990D01*
X119861158Y-89973991D01*
X120021155Y-90059511D01*
X120161397Y-90174603D01*
X120223508Y-90250287D01*
X120276489Y-90314844D01*
X120362010Y-90474843D01*
X120414674Y-90648452D01*
X120428000Y-90783756D01*
X120428000Y-91334243D01*
X120414674Y-91469548D01*
X120362010Y-91643157D01*
X120276489Y-91803156D01*
X120240729Y-91846729D01*
X120161397Y-91943397D01*
X120064729Y-92022729D01*
X120021156Y-92058489D01*
X119861157Y-92144010D01*
X119687548Y-92196674D01*
X119507000Y-92214456D01*
X119326453Y-92196674D01*
X119152844Y-92144010D01*
X118992845Y-92058489D01*
X118949272Y-92022729D01*
X118852604Y-91943397D01*
X118737513Y-91803157D01*
X118737512Y-91803155D01*
X118651990Y-91643157D01*
X118599326Y-91469548D01*
X118586000Y-91334244D01*
X118586000Y-90783757D01*
X118599326Y-90648453D01*
X118651990Y-90474844D01*
X118674891Y-90432000D01*
X118737511Y-90314845D01*
X118852603Y-90174603D01*
X118978388Y-90071375D01*
X118992844Y-90059511D01*
X119152843Y-89973990D01*
X119326452Y-89921326D01*
X119507000Y-89903544D01*
X119687547Y-89921326D01*
G37*
G36*
X117746561Y-89911966D02*
G01*
X117779383Y-89921923D01*
X117809632Y-89938092D01*
X117836148Y-89959852D01*
X117857908Y-89986368D01*
X117874077Y-90016617D01*
X117884034Y-90049439D01*
X117888000Y-90089713D01*
X117888000Y-92028287D01*
X117884034Y-92068561D01*
X117874077Y-92101383D01*
X117857908Y-92131632D01*
X117836148Y-92158148D01*
X117809632Y-92179908D01*
X117779383Y-92196077D01*
X117746561Y-92206034D01*
X117706287Y-92210000D01*
X116227713Y-92210000D01*
X116187439Y-92206034D01*
X116154617Y-92196077D01*
X116124368Y-92179908D01*
X116097852Y-92158148D01*
X116076092Y-92131632D01*
X116059923Y-92101383D01*
X116049966Y-92068561D01*
X116046000Y-92028287D01*
X116046000Y-90089713D01*
X116049966Y-90049439D01*
X116059923Y-90016617D01*
X116076092Y-89986368D01*
X116097852Y-89959852D01*
X116124368Y-89938092D01*
X116154617Y-89921923D01*
X116187439Y-89911966D01*
X116227713Y-89908000D01*
X117706287Y-89908000D01*
X117746561Y-89911966D01*
G37*
G36*
X126454000Y-90640000D02*
G01*
X124752000Y-90640000D01*
X124752000Y-88938000D01*
X126454000Y-88938000D01*
X126454000Y-90640000D01*
G37*
G36*
X133471228Y-88970703D02*
G01*
X133626100Y-89034853D01*
X133765481Y-89127985D01*
X133884015Y-89246519D01*
X133977147Y-89385900D01*
X134041297Y-89540772D01*
X134074000Y-89705184D01*
X134074000Y-89872816D01*
X134041297Y-90037228D01*
X133977147Y-90192100D01*
X133884015Y-90331481D01*
X133765481Y-90450015D01*
X133626100Y-90543147D01*
X133471228Y-90607297D01*
X133306816Y-90640000D01*
X133139184Y-90640000D01*
X132974772Y-90607297D01*
X132819900Y-90543147D01*
X132680519Y-90450015D01*
X132561985Y-90331481D01*
X132468853Y-90192100D01*
X132404703Y-90037228D01*
X132372000Y-89872816D01*
X132372000Y-89705184D01*
X132404703Y-89540772D01*
X132468853Y-89385900D01*
X132561985Y-89246519D01*
X132680519Y-89127985D01*
X132819900Y-89034853D01*
X132974772Y-88970703D01*
X133139184Y-88938000D01*
X133306816Y-88938000D01*
X133471228Y-88970703D01*
G37*
G36*
X150040547Y-88143326D02*
G01*
X150214156Y-88195990D01*
X150214158Y-88195991D01*
X150374155Y-88281511D01*
X150514397Y-88396603D01*
X150593729Y-88493271D01*
X150629489Y-88536844D01*
X150715010Y-88696843D01*
X150767674Y-88870452D01*
X150781000Y-89005756D01*
X150781000Y-89556243D01*
X150767674Y-89691548D01*
X150715010Y-89865157D01*
X150629489Y-90025156D01*
X150609560Y-90049439D01*
X150514397Y-90165397D01*
X150417729Y-90244729D01*
X150374156Y-90280489D01*
X150214157Y-90366010D01*
X150040548Y-90418674D01*
X149860000Y-90436456D01*
X149679453Y-90418674D01*
X149505844Y-90366010D01*
X149345845Y-90280489D01*
X149302272Y-90244729D01*
X149205604Y-90165397D01*
X149090513Y-90025157D01*
X149090512Y-90025155D01*
X149004990Y-89865157D01*
X148952326Y-89691548D01*
X148939000Y-89556244D01*
X148939000Y-89005757D01*
X148952326Y-88870453D01*
X149004990Y-88696844D01*
X149090511Y-88536845D01*
X149090512Y-88536844D01*
X149205603Y-88396603D01*
X149331388Y-88293375D01*
X149345844Y-88281511D01*
X149505843Y-88195990D01*
X149679452Y-88143326D01*
X149860000Y-88125544D01*
X150040547Y-88143326D01*
G37*
G36*
X148099561Y-88133966D02*
G01*
X148132383Y-88143923D01*
X148162632Y-88160092D01*
X148189148Y-88181852D01*
X148210908Y-88208368D01*
X148227077Y-88238617D01*
X148237034Y-88271439D01*
X148241000Y-88311713D01*
X148241000Y-90250287D01*
X148237034Y-90290561D01*
X148227077Y-90323383D01*
X148210908Y-90353632D01*
X148189148Y-90380148D01*
X148162632Y-90401908D01*
X148132383Y-90418077D01*
X148099561Y-90428034D01*
X148059287Y-90432000D01*
X146580713Y-90432000D01*
X146540439Y-90428034D01*
X146507617Y-90418077D01*
X146477368Y-90401908D01*
X146450852Y-90380148D01*
X146429092Y-90353632D01*
X146412923Y-90323383D01*
X146402966Y-90290561D01*
X146399000Y-90250287D01*
X146399000Y-88311713D01*
X146402966Y-88271439D01*
X146412923Y-88238617D01*
X146429092Y-88208368D01*
X146450852Y-88181852D01*
X146477368Y-88160092D01*
X146507617Y-88143923D01*
X146540439Y-88133966D01*
X146580713Y-88130000D01*
X148059287Y-88130000D01*
X148099561Y-88133966D01*
G37*
G36*
X126454000Y-86576000D02*
G01*
X124752000Y-86576000D01*
X124752000Y-84874000D01*
X126454000Y-84874000D01*
X126454000Y-86576000D01*
G37*
G36*
X133471228Y-84906703D02*
G01*
X133626100Y-84970853D01*
X133765481Y-85063985D01*
X133884015Y-85182519D01*
X133977147Y-85321900D01*
X134041297Y-85476772D01*
X134074000Y-85641184D01*
X134074000Y-85808816D01*
X134041297Y-85973228D01*
X133977147Y-86128100D01*
X133884015Y-86267481D01*
X133765481Y-86386015D01*
X133626100Y-86479147D01*
X133471228Y-86543297D01*
X133306816Y-86576000D01*
X133139184Y-86576000D01*
X132974772Y-86543297D01*
X132819900Y-86479147D01*
X132680519Y-86386015D01*
X132561985Y-86267481D01*
X132468853Y-86128100D01*
X132404703Y-85973228D01*
X132372000Y-85808816D01*
X132372000Y-85641184D01*
X132404703Y-85476772D01*
X132468853Y-85321900D01*
X132561985Y-85182519D01*
X132680519Y-85063985D01*
X132819900Y-84970853D01*
X132974772Y-84906703D01*
X133139184Y-84874000D01*
X133306816Y-84874000D01*
X133471228Y-84906703D01*
G37*
G36*
X168201547Y-82809326D02*
G01*
X168375156Y-82861990D01*
X168375158Y-82861991D01*
X168535155Y-82947511D01*
X168675397Y-83062603D01*
X168754729Y-83159271D01*
X168790489Y-83202844D01*
X168876010Y-83362843D01*
X168928674Y-83536452D01*
X168942000Y-83671756D01*
X168942000Y-84222243D01*
X168928674Y-84357548D01*
X168876010Y-84531157D01*
X168790489Y-84691156D01*
X168754729Y-84734729D01*
X168675397Y-84831397D01*
X168599741Y-84893485D01*
X168535156Y-84946489D01*
X168375157Y-85032010D01*
X168201548Y-85084674D01*
X168021000Y-85102456D01*
X167840453Y-85084674D01*
X167666844Y-85032010D01*
X167506845Y-84946489D01*
X167442260Y-84893485D01*
X167366604Y-84831397D01*
X167251513Y-84691157D01*
X167251512Y-84691155D01*
X167165990Y-84531157D01*
X167113326Y-84357548D01*
X167100818Y-84230546D01*
X167100000Y-84222245D01*
X167100000Y-83671756D01*
X167112508Y-83544756D01*
X167113326Y-83536453D01*
X167165990Y-83362844D01*
X167251511Y-83202845D01*
X167251512Y-83202844D01*
X167366603Y-83062603D01*
X167492388Y-82959375D01*
X167506844Y-82947511D01*
X167666843Y-82861990D01*
X167840452Y-82809326D01*
X168021000Y-82791544D01*
X168201547Y-82809326D01*
G37*
G36*
X170741547Y-82809326D02*
G01*
X170915156Y-82861990D01*
X170915158Y-82861991D01*
X171075155Y-82947511D01*
X171215397Y-83062603D01*
X171294729Y-83159271D01*
X171330489Y-83202844D01*
X171416010Y-83362843D01*
X171468674Y-83536452D01*
X171482000Y-83671756D01*
X171482000Y-84222243D01*
X171468674Y-84357548D01*
X171416010Y-84531157D01*
X171330489Y-84691156D01*
X171294729Y-84734729D01*
X171215397Y-84831397D01*
X171139741Y-84893485D01*
X171075156Y-84946489D01*
X170915157Y-85032010D01*
X170741548Y-85084674D01*
X170561000Y-85102456D01*
X170380453Y-85084674D01*
X170206844Y-85032010D01*
X170046845Y-84946489D01*
X169982260Y-84893485D01*
X169906604Y-84831397D01*
X169791513Y-84691157D01*
X169791512Y-84691155D01*
X169705990Y-84531157D01*
X169653326Y-84357548D01*
X169640818Y-84230546D01*
X169640000Y-84222245D01*
X169640000Y-83671756D01*
X169652508Y-83544756D01*
X169653326Y-83536453D01*
X169705990Y-83362844D01*
X169791511Y-83202845D01*
X169791512Y-83202844D01*
X169906603Y-83062603D01*
X170032388Y-82959375D01*
X170046844Y-82947511D01*
X170206843Y-82861990D01*
X170380452Y-82809326D01*
X170561000Y-82791544D01*
X170741547Y-82809326D01*
G37*
G36*
X119814547Y-82809326D02*
G01*
X119988156Y-82861990D01*
X119988158Y-82861991D01*
X120148155Y-82947511D01*
X120288397Y-83062603D01*
X120367729Y-83159271D01*
X120403489Y-83202844D01*
X120489010Y-83362843D01*
X120541674Y-83536452D01*
X120555000Y-83671756D01*
X120555000Y-84222243D01*
X120541674Y-84357548D01*
X120489010Y-84531157D01*
X120403489Y-84691156D01*
X120367729Y-84734729D01*
X120288397Y-84831397D01*
X120212741Y-84893485D01*
X120148156Y-84946489D01*
X119988157Y-85032010D01*
X119814548Y-85084674D01*
X119634000Y-85102456D01*
X119453453Y-85084674D01*
X119279844Y-85032010D01*
X119119845Y-84946489D01*
X119055260Y-84893485D01*
X118979604Y-84831397D01*
X118864513Y-84691157D01*
X118864512Y-84691155D01*
X118778990Y-84531157D01*
X118726326Y-84357548D01*
X118713818Y-84230546D01*
X118713000Y-84222245D01*
X118713000Y-83671756D01*
X118725508Y-83544756D01*
X118726326Y-83536453D01*
X118778990Y-83362844D01*
X118864511Y-83202845D01*
X118864512Y-83202844D01*
X118979603Y-83062603D01*
X119105388Y-82959375D01*
X119119844Y-82947511D01*
X119279843Y-82861990D01*
X119453452Y-82809326D01*
X119634000Y-82791544D01*
X119814547Y-82809326D01*
G37*
G36*
X166260561Y-82799966D02*
G01*
X166293383Y-82809923D01*
X166323632Y-82826092D01*
X166350148Y-82847852D01*
X166371908Y-82874368D01*
X166388077Y-82904617D01*
X166398034Y-82937439D01*
X166402000Y-82977713D01*
X166402000Y-84916287D01*
X166398034Y-84956561D01*
X166388077Y-84989383D01*
X166371908Y-85019632D01*
X166350148Y-85046148D01*
X166323632Y-85067908D01*
X166293383Y-85084077D01*
X166260561Y-85094034D01*
X166220287Y-85098000D01*
X164741713Y-85098000D01*
X164701439Y-85094034D01*
X164668617Y-85084077D01*
X164638368Y-85067908D01*
X164611852Y-85046148D01*
X164590092Y-85019632D01*
X164573923Y-84989383D01*
X164563966Y-84956561D01*
X164560000Y-84916287D01*
X164560000Y-82977713D01*
X164563966Y-82937439D01*
X164573923Y-82904617D01*
X164590092Y-82874368D01*
X164611852Y-82847852D01*
X164638368Y-82826092D01*
X164668617Y-82809923D01*
X164701439Y-82799966D01*
X164741713Y-82796000D01*
X166220287Y-82796000D01*
X166260561Y-82799966D01*
G37*
G36*
X117873561Y-82799966D02*
G01*
X117906383Y-82809923D01*
X117936632Y-82826092D01*
X117963148Y-82847852D01*
X117984908Y-82874368D01*
X118001077Y-82904617D01*
X118011034Y-82937439D01*
X118015000Y-82977713D01*
X118015000Y-84916287D01*
X118011034Y-84956561D01*
X118001077Y-84989383D01*
X117984908Y-85019632D01*
X117963148Y-85046148D01*
X117936632Y-85067908D01*
X117906383Y-85084077D01*
X117873561Y-85094034D01*
X117833287Y-85098000D01*
X116354713Y-85098000D01*
X116314439Y-85094034D01*
X116281617Y-85084077D01*
X116251368Y-85067908D01*
X116224852Y-85046148D01*
X116203092Y-85019632D01*
X116186923Y-84989383D01*
X116176966Y-84956561D01*
X116173000Y-84916287D01*
X116173000Y-82977713D01*
X116176966Y-82937439D01*
X116186923Y-82904617D01*
X116203092Y-82874368D01*
X116224852Y-82847852D01*
X116251368Y-82826092D01*
X116281617Y-82809923D01*
X116314439Y-82799966D01*
X116354713Y-82796000D01*
X117833287Y-82796000D01*
X117873561Y-82799966D01*
G37*
G36*
X159946547Y-82682326D02*
G01*
X160120156Y-82734990D01*
X160120158Y-82734991D01*
X160280155Y-82820511D01*
X160420397Y-82935603D01*
X160480650Y-83009023D01*
X160535489Y-83075844D01*
X160621010Y-83235843D01*
X160673674Y-83409452D01*
X160673674Y-83409454D01*
X160686183Y-83536455D01*
X160687000Y-83544756D01*
X160687000Y-84095243D01*
X160673674Y-84230548D01*
X160621010Y-84404157D01*
X160535489Y-84564156D01*
X160499729Y-84607729D01*
X160420397Y-84704397D01*
X160323729Y-84783729D01*
X160280156Y-84819489D01*
X160120157Y-84905010D01*
X159946548Y-84957674D01*
X159766000Y-84975456D01*
X159585453Y-84957674D01*
X159411844Y-84905010D01*
X159251845Y-84819489D01*
X159208272Y-84783729D01*
X159111604Y-84704397D01*
X158996513Y-84564157D01*
X158996512Y-84564155D01*
X158910990Y-84404157D01*
X158858326Y-84230548D01*
X158845000Y-84095244D01*
X158845000Y-83544757D01*
X158858326Y-83409453D01*
X158910990Y-83235844D01*
X158996511Y-83075845D01*
X158996512Y-83075844D01*
X159111603Y-82935603D01*
X159218529Y-82847852D01*
X159251844Y-82820511D01*
X159411843Y-82734990D01*
X159585452Y-82682326D01*
X159766000Y-82664544D01*
X159946547Y-82682326D01*
G37*
G36*
X157406547Y-82682326D02*
G01*
X157580156Y-82734990D01*
X157580158Y-82734991D01*
X157740155Y-82820511D01*
X157880397Y-82935603D01*
X157940650Y-83009023D01*
X157995489Y-83075844D01*
X158081010Y-83235843D01*
X158133674Y-83409452D01*
X158133674Y-83409454D01*
X158146183Y-83536455D01*
X158147000Y-83544756D01*
X158147000Y-84095243D01*
X158133674Y-84230548D01*
X158081010Y-84404157D01*
X157995489Y-84564156D01*
X157959729Y-84607729D01*
X157880397Y-84704397D01*
X157783729Y-84783729D01*
X157740156Y-84819489D01*
X157580157Y-84905010D01*
X157406548Y-84957674D01*
X157226000Y-84975456D01*
X157045453Y-84957674D01*
X156871844Y-84905010D01*
X156711845Y-84819489D01*
X156668272Y-84783729D01*
X156571604Y-84704397D01*
X156456513Y-84564157D01*
X156456512Y-84564155D01*
X156370990Y-84404157D01*
X156318326Y-84230548D01*
X156305000Y-84095244D01*
X156305000Y-83544757D01*
X156318326Y-83409453D01*
X156370990Y-83235844D01*
X156456511Y-83075845D01*
X156456512Y-83075844D01*
X156571603Y-82935603D01*
X156678529Y-82847852D01*
X156711844Y-82820511D01*
X156871843Y-82734990D01*
X157045452Y-82682326D01*
X157226000Y-82664544D01*
X157406547Y-82682326D01*
G37*
G36*
X155465561Y-82672966D02*
G01*
X155498383Y-82682923D01*
X155528632Y-82699092D01*
X155555148Y-82720852D01*
X155576908Y-82747368D01*
X155593077Y-82777617D01*
X155603034Y-82810439D01*
X155607000Y-82850713D01*
X155607000Y-84789287D01*
X155603034Y-84829561D01*
X155593077Y-84862383D01*
X155576908Y-84892632D01*
X155555148Y-84919148D01*
X155528632Y-84940908D01*
X155498383Y-84957077D01*
X155465561Y-84967034D01*
X155425287Y-84971000D01*
X153946713Y-84971000D01*
X153906439Y-84967034D01*
X153873617Y-84957077D01*
X153843368Y-84940908D01*
X153816852Y-84919148D01*
X153795092Y-84892632D01*
X153778923Y-84862383D01*
X153768966Y-84829561D01*
X153765000Y-84789287D01*
X153765000Y-82850713D01*
X153768966Y-82810439D01*
X153778923Y-82777617D01*
X153795092Y-82747368D01*
X153816852Y-82720852D01*
X153843368Y-82699092D01*
X153873617Y-82682923D01*
X153906439Y-82672966D01*
X153946713Y-82669000D01*
X155425287Y-82669000D01*
X155465561Y-82672966D01*
G37*
G36*
X179005007Y-80560582D02*
G01*
X179405563Y-80726498D01*
X179405565Y-80726499D01*
X179766056Y-80967371D01*
X180072629Y-81273944D01*
X180313501Y-81634435D01*
X180313502Y-81634437D01*
X180479418Y-82034993D01*
X180564000Y-82460219D01*
X180564000Y-82893781D01*
X180479418Y-83319007D01*
X180385909Y-83544757D01*
X180313501Y-83719565D01*
X180072629Y-84080056D01*
X179766056Y-84386629D01*
X179405565Y-84627501D01*
X179405564Y-84627502D01*
X179405563Y-84627502D01*
X179005007Y-84793418D01*
X178579781Y-84878000D01*
X178146219Y-84878000D01*
X177720993Y-84793418D01*
X177320437Y-84627502D01*
X177320436Y-84627502D01*
X177320435Y-84627501D01*
X176959944Y-84386629D01*
X176653371Y-84080056D01*
X176412499Y-83719565D01*
X176340091Y-83544757D01*
X176246582Y-83319007D01*
X176162000Y-82893781D01*
X176162000Y-82460219D01*
X176246582Y-82034993D01*
X176412498Y-81634437D01*
X176412499Y-81634435D01*
X176653371Y-81273944D01*
X176959944Y-80967371D01*
X177320435Y-80726499D01*
X177320437Y-80726498D01*
X177720993Y-80560582D01*
X178146219Y-80476000D01*
X178579781Y-80476000D01*
X179005007Y-80560582D01*
G37*
G36*
X111005007Y-80560582D02*
G01*
X111405563Y-80726498D01*
X111405565Y-80726499D01*
X111766056Y-80967371D01*
X112072629Y-81273944D01*
X112313501Y-81634435D01*
X112313502Y-81634437D01*
X112479418Y-82034993D01*
X112564000Y-82460219D01*
X112564000Y-82893781D01*
X112479418Y-83319007D01*
X112385909Y-83544757D01*
X112313501Y-83719565D01*
X112072629Y-84080056D01*
X111766056Y-84386629D01*
X111405565Y-84627501D01*
X111405564Y-84627502D01*
X111405563Y-84627502D01*
X111005007Y-84793418D01*
X110579781Y-84878000D01*
X110146219Y-84878000D01*
X109720993Y-84793418D01*
X109320437Y-84627502D01*
X109320436Y-84627502D01*
X109320435Y-84627501D01*
X108959944Y-84386629D01*
X108653371Y-84080056D01*
X108412499Y-83719565D01*
X108340091Y-83544757D01*
X108246582Y-83319007D01*
X108162000Y-82893781D01*
X108162000Y-82460219D01*
X108246582Y-82034993D01*
X108412498Y-81634437D01*
X108412499Y-81634435D01*
X108653371Y-81273944D01*
X108959944Y-80967371D01*
X109320435Y-80726499D01*
X109320437Y-80726498D01*
X109720993Y-80560582D01*
X110146219Y-80476000D01*
X110579781Y-80476000D01*
X111005007Y-80560582D01*
G37*
G36*
X126454000Y-82512000D02*
G01*
X124752000Y-82512000D01*
X124752000Y-80810000D01*
X126454000Y-80810000D01*
X126454000Y-82512000D01*
G37*
G36*
X133471228Y-80842703D02*
G01*
X133626100Y-80906853D01*
X133765481Y-80999985D01*
X133884015Y-81118519D01*
X133977147Y-81257900D01*
X134041297Y-81412772D01*
X134074000Y-81577184D01*
X134074000Y-81744816D01*
X134041297Y-81909228D01*
X133977147Y-82064100D01*
X133884015Y-82203481D01*
X133765481Y-82322015D01*
X133626100Y-82415147D01*
X133471228Y-82479297D01*
X133306816Y-82512000D01*
X133139184Y-82512000D01*
X132974772Y-82479297D01*
X132819900Y-82415147D01*
X132680519Y-82322015D01*
X132561985Y-82203481D01*
X132468853Y-82064100D01*
X132404703Y-81909228D01*
X132372000Y-81744816D01*
X132372000Y-81577184D01*
X132404703Y-81412772D01*
X132468853Y-81257900D01*
X132561985Y-81118519D01*
X132680519Y-80999985D01*
X132819900Y-80906853D01*
X132974772Y-80842703D01*
X133139184Y-80810000D01*
X133306816Y-80810000D01*
X133471228Y-80842703D01*
G37*
M02*
