M48
; DRILL file {KiCad (6.0.7-1)-1} date Sunday, 21 May 2023 at 10:58:43 am
; FORMAT={-:-/ absolute / metric / decimal}
; #@! TF.CreationDate,2023-05-21T10:58:43+10:00
; #@! TF.GenerationSoftware,Kicad,Pcbnew,(6.0.7-1)-1
; #@! TF.FileFunction,Plated,1,2,PTH
FMAT,2
METRIC
; #@! TA.AperFunction,Plated,PTH,ViaDrill
T1C0.400
; #@! TA.AperFunction,Plated,PTH,ComponentDrill
T2C0.700
; #@! TA.AperFunction,Plated,PTH,ComponentDrill
T3C0.800
; #@! TA.AperFunction,Plated,PTH,ComponentDrill
T4C0.900
; #@! TA.AperFunction,Plated,PTH,ComponentDrill
T5C1.000
; #@! TA.AperFunction,Plated,PTH,ComponentDrill
T6C1.016
; #@! TA.AperFunction,Plated,PTH,ComponentDrill
T7C1.110
; #@! TA.AperFunction,Plated,PTH,ComponentDrill
T8C1.200
%
G90
G05
T1
X133.722Y-81.281
X152.067Y-100.065
X166.266Y-86.911
X176.417Y-94.012
T2
X110.49Y-115.62
X110.49Y-118.16
X138.43Y-99.06
X138.43Y-101.6
X140.97Y-99.06
X140.97Y-101.6
X143.51Y-99.06
X143.51Y-101.6
X146.05Y-99.06
X146.05Y-101.6
X148.59Y-99.06
X148.59Y-101.6
X151.13Y-99.06
X151.13Y-101.6
X153.67Y-99.06
X153.67Y-101.6
X156.21Y-99.06
X156.21Y-101.6
X158.165Y-74.295
X158.75Y-99.06
X158.75Y-101.6
X160.705Y-74.295
X161.29Y-99.06
X161.29Y-101.6
X163.83Y-99.06
X163.83Y-101.6
X163.957Y-74.346
X166.497Y-74.346
T3
X152.4Y-111.165
X152.4Y-116.165
X155.575Y-111.165
X155.575Y-116.165
X158.75Y-111.165
X158.75Y-116.165
X161.925Y-111.165
X161.925Y-116.165
X165.1Y-111.165
X165.1Y-116.165
X168.275Y-111.165
X168.275Y-116.165
X171.45Y-111.165
X171.45Y-116.165
X174.625Y-111.165
X174.625Y-116.165
X177.8Y-111.165
X177.8Y-116.165
X180.975Y-111.165
X180.975Y-116.165
X184.15Y-111.165
X184.15Y-116.165
X187.325Y-111.165
X187.325Y-116.165
X190.5Y-111.165
X190.5Y-116.165
X193.675Y-111.165
X193.675Y-116.165
T4
X156.21Y-78.105
X158.75Y-78.105
X161.285Y-78.105
X163.825Y-78.105
T5
X118.11Y-116.84
X120.65Y-116.84
X147.32Y-75.56
X147.32Y-78.1
X152.4Y-75.565
X152.4Y-78.105
X154.178Y-119.126
X156.718Y-119.126
X159.258Y-119.126
X161.798Y-119.126
X164.338Y-119.126
X166.878Y-119.126
T6
X127.254Y-70.866
X129.794Y-70.866
X131.318Y-119.126
X132.334Y-70.866
X133.858Y-119.126
X134.874Y-70.866
X136.398Y-119.126
X137.414Y-70.866
X138.938Y-119.126
X139.954Y-70.866
X141.478Y-119.126
X142.494Y-70.866
X144.018Y-119.126
X145.034Y-70.866
X146.558Y-119.126
X147.32Y-88.9
X147.32Y-91.44
X149.098Y-70.866
X149.098Y-119.126
X149.86Y-88.9
X149.86Y-91.44
X151.638Y-70.866
X152.4Y-88.9
X152.4Y-91.44
X154.178Y-70.866
X154.94Y-88.9
X154.94Y-91.44
X156.718Y-70.866
X157.48Y-88.9
X157.48Y-91.44
X159.258Y-70.866
X160.02Y-88.9
X160.02Y-91.44
X161.798Y-70.866
X162.56Y-88.9
X162.56Y-91.44
X164.338Y-70.866
X165.1Y-88.9
X165.1Y-91.44
X166.878Y-70.866
X167.64Y-88.9
X167.64Y-91.44
X170.18Y-88.9
X170.18Y-91.44
X171.958Y-70.866
X172.72Y-88.9
X172.72Y-91.44
X174.498Y-70.866
X175.26Y-88.9
X175.26Y-91.44
X177.038Y-70.866
X177.038Y-119.126
X177.8Y-88.9
X177.8Y-91.44
X179.578Y-70.866
X179.578Y-119.126
X180.34Y-88.9
X180.34Y-91.44
X182.118Y-70.866
X182.118Y-119.126
X182.88Y-88.9
X182.88Y-91.44
X184.658Y-70.866
X184.658Y-119.126
X185.42Y-88.9
X185.42Y-91.44
X187.198Y-70.866
X187.198Y-119.126
X187.96Y-88.9
X187.96Y-91.44
X189.738Y-70.866
X189.738Y-119.126
X192.278Y-119.126
X194.818Y-119.126
X197.358Y-70.866
X197.358Y-73.406
X197.358Y-75.946
X197.358Y-78.486
X197.358Y-81.026
X197.358Y-83.566
X197.358Y-86.106
X197.358Y-88.646
X197.358Y-91.186
X197.358Y-93.726
X197.358Y-96.266
X197.358Y-98.806
X197.358Y-101.346
X197.358Y-103.886
X197.358Y-106.426
X197.358Y-108.966
X197.358Y-111.506
X197.358Y-114.046
X199.898Y-70.866
X199.898Y-73.406
X199.898Y-75.946
X199.898Y-78.486
X199.898Y-81.026
X199.898Y-83.566
X199.898Y-86.106
X199.898Y-88.646
X199.898Y-91.186
X199.898Y-93.726
X199.898Y-96.266
X199.898Y-98.806
X199.898Y-101.346
X199.898Y-103.886
X199.898Y-106.426
X199.898Y-108.966
X199.898Y-111.506
X199.898Y-114.046
T7
X107.665Y-90.17
X107.665Y-110.49
X110.205Y-90.17
X110.205Y-110.49
X112.745Y-90.17
X112.745Y-110.49
X115.285Y-90.17
X115.285Y-110.49
X117.825Y-90.17
X117.825Y-110.49
X120.365Y-90.17
X120.365Y-110.49
T8
X105.41Y-73.68
X105.41Y-83.205
X107.95Y-73.68
X107.95Y-83.205
X110.49Y-73.68
X110.49Y-83.205
X113.03Y-73.68
X113.03Y-83.205
X115.57Y-73.68
X115.57Y-83.205
X118.11Y-73.68
X118.11Y-83.205
X129.54Y-76.855
X130.81Y-107.315
X132.06Y-88.9
X132.06Y-91.44
X132.06Y-93.98
X132.06Y-96.52
X132.06Y-99.06
X132.06Y-101.6
X132.08Y-76.855
X132.187Y-82.423
X132.187Y-84.963
X133.35Y-107.315
X134.62Y-76.855
X135.89Y-107.315
X137.16Y-76.855
X138.43Y-107.315
X139.7Y-76.855
X140.97Y-107.315
X142.24Y-76.855
X143.51Y-107.315
X146.05Y-107.315
X148.59Y-107.315
X168.758Y-80.683
X168.91Y-101.6
X171.298Y-80.683
X171.45Y-101.6
X173.838Y-80.683
X173.99Y-101.6
X176.378Y-80.683
X176.53Y-101.6
X178.918Y-80.683
X179.07Y-101.6
X181.458Y-80.683
X181.61Y-101.6
X183.998Y-80.683
X184.15Y-101.6
X186.538Y-80.683
X186.69Y-101.6
X189.078Y-80.683
X189.23Y-101.6
X191.618Y-80.683
X191.77Y-101.6
T0
M30
