  0
SECTION
  2
HEADER
  9
$ANGBASE
  50
0.0
  9
$ANGDIR
  70
1
  9
$MEASUREMENT
  70
0
  0
ENDSEC
  0
SECTION
  2
TABLES
  0
TABLE
  2
LTYPE
  70
4
  0
LTYPE
  5
40F
  2
CONTINUOUS
  70
0
  3
Solid line
  72
65
  73
0
  40
0.0
  0
LTYPE
  5
410
  2
DASHDOT
 70
0
  3
Dash Dot ____ _ ____ _
 72
65
 73
4
 40
2.0
 49
1.25
 49
-0.25
 49
0.25
 49
-0.25
  0
LTYPE
  5
411
  2
DASHED
 70
0
  3
Dashed __ __ __ __ __
 72
65
 73
2
 40
0.75
 49
0.5
 49
-0.25
  0
LTYPE
  5
43B
  2
DOTTED
 70
0
  3
Dotted .  .  .  .
 72
65
 73
2
 40
0.2
 49
0.0
 49
-0.2
  0
ENDTAB
  0
TABLE
  2
STYLE
  70
4
  0
STYLE
  2
KICAD
  70
0
  40
0
  41
1
  42
1
  50
0
  71
0
  3
isocp.shx
  0
STYLE
  2
KICADB
  70
0
  40
0
  41
1
  42
1
  50
0
  71
0
  3
isocp.shx
  0
STYLE
  2
KICADI
  70
0
  40
0
  41
1
  42
1
  50
15
  71
0
  3
isocp.shx
  0
STYLE
  2
KICADBI
  70
0
  40
0
  41
1
  42
1
  50
15
  71
0
  3
isocp.shx
  0
ENDTAB
  0
TABLE
  2
LAYER
  70
1
  0
LAYER
  2
BLACK
  70
0
  62
7
  6
CONTINUOUS
  0
ENDTAB
  0
ENDSEC
  0
SECTION
  2
ENTITIES
0
LINE
8
BLACK
6
CONTINUOUS
10
5.55936
20
-0.881772
11
5.84913
21
-0.881772
0
LINE
8
BLACK
6
CONTINUOUS
10
5.84913
20
-0.881772
11
5.84916
21
-0.881766
0
LINE
8
BLACK
6
CONTINUOUS
10
5.84916
20
-0.881766
11
5.84952
21
-0.881772
0
LINE
8
BLACK
6
CONTINUOUS
10
5.84952
20
-0.881772
11
5.84968
21
-0.881772
0
LINE
8
BLACK
6
CONTINUOUS
10
5.84968
20
-0.881772
11
5.84971
21
-0.881775
0
LINE
8
BLACK
6
CONTINUOUS
10
5.84971
20
-0.881775
11
5.84994
21
-0.881778
0
LINE
8
BLACK
6
CONTINUOUS
10
5.84994
20
-0.881778
11
5.8501
21
-0.881813
0
LINE
8
BLACK
6
CONTINUOUS
10
5.8501
20
-0.881813
11
5.85026
21
-0.881829
0
LINE
8
BLACK
6
CONTINUOUS
10
5.85026
20
-0.881829
11
5.85048
21
-0.881894
0
LINE
8
BLACK
6
CONTINUOUS
10
5.85048
20
-0.881894
11
5.85069
21
-0.881941
0
LINE
8
BLACK
6
CONTINUOUS
10
5.85069
20
-0.881941
11
5.85084
21
-0.882006
0
LINE
8
BLACK
6
CONTINUOUS
10
5.85084
20
-0.882006
11
5.851
21
-0.882054
0
LINE
8
BLACK
6
CONTINUOUS
10
5.851
20
-0.882054
11
5.8512
21
-0.88216
0
LINE
8
BLACK
6
CONTINUOUS
10
5.8512
20
-0.88216
11
5.85141
21
-0.882249
0
LINE
8
BLACK
6
CONTINUOUS
10
5.85141
20
-0.882249
11
5.85154
21
-0.882342
0
LINE
8
BLACK
6
CONTINUOUS
10
5.85154
20
-0.882342
11
5.85169
21
-0.882419
0
LINE
8
BLACK
6
CONTINUOUS
10
5.85169
20
-0.882419
11
5.85186
21
-0.882562
0
LINE
8
BLACK
6
CONTINUOUS
10
5.85186
20
-0.882562
11
5.85188
21
-0.882579
0
LINE
8
BLACK
6
CONTINUOUS
10
5.85188
20
-0.882579
11
5.85201
21
-0.882685
0
LINE
8
BLACK
6
CONTINUOUS
10
5.85201
20
-0.882685
11
5.85229
21
-0.882911
0
LINE
8
BLACK
6
CONTINUOUS
10
5.85229
20
-0.882911
11
5.8523
21
-0.882935
0
LINE
8
BLACK
6
CONTINUOUS
10
5.8523
20
-0.882935
11
6.78252
21
-1.67056
0
LINE
8
BLACK
6
CONTINUOUS
10
6.78252
20
-1.67056
11
6.7828
21
-1.67079
0
LINE
8
BLACK
6
CONTINUOUS
10
6.7828
20
-1.67079
11
6.78294
21
-1.67096
0
LINE
8
BLACK
6
CONTINUOUS
10
6.78294
20
-1.67096
11
6.7831
21
-1.67112
0
LINE
8
BLACK
6
CONTINUOUS
10
6.7831
20
-1.67112
11
6.78319
21
-1.67126
0
LINE
8
BLACK
6
CONTINUOUS
10
6.78319
20
-1.67126
11
6.78329
21
-1.67139
0
LINE
8
BLACK
6
CONTINUOUS
10
6.78329
20
-1.67139
11
6.7834
21
-1.67159
0
LINE
8
BLACK
6
CONTINUOUS
10
6.7834
20
-1.67159
11
6.78352
21
-1.67177
0
LINE
8
BLACK
6
CONTINUOUS
10
6.78352
20
-1.67177
11
6.78358
21
-1.67193
0
LINE
8
BLACK
6
CONTINUOUS
10
6.78358
20
-1.67193
11
6.78365
21
-1.67207
0
LINE
8
BLACK
6
CONTINUOUS
10
6.78365
20
-1.67207
11
6.78372
21
-1.67229
0
LINE
8
BLACK
6
CONTINUOUS
10
6.78372
20
-1.67229
11
6.7838
21
-1.67249
0
LINE
8
BLACK
6
CONTINUOUS
10
6.7838
20
-1.67249
11
6.78383
21
-1.67266
0
LINE
8
BLACK
6
CONTINUOUS
10
6.78383
20
-1.67266
11
6.78388
21
-1.67281
0
LINE
8
BLACK
6
CONTINUOUS
10
6.78388
20
-1.67281
11
6.7839
21
-1.67304
0
LINE
8
BLACK
6
CONTINUOUS
10
6.7839
20
-1.67304
11
6.78394
21
-1.67326
0
LINE
8
BLACK
6
CONTINUOUS
10
6.78394
20
-1.67326
11
6.78394
21
-1.67361
0
LINE
8
BLACK
6
CONTINUOUS
10
6.78394
20
-1.67361
11
6.78394
21
-2.03856
0
LINE
8
BLACK
6
CONTINUOUS
10
6.78394
20
-2.03856
11
7.01481
21
-2.03856
0
LINE
8
BLACK
6
CONTINUOUS
10
7.01481
20
-2.03856
11
7.015
21
-2.03854
0
LINE
8
BLACK
6
CONTINUOUS
10
7.015
20
-2.03854
11
7.01519
21
-2.03856
0
LINE
8
BLACK
6
CONTINUOUS
10
7.01519
20
-2.03856
11
7.01577
21
-2.03862
0
LINE
8
BLACK
6
CONTINUOUS
10
7.01577
20
-2.03862
11
7.01651
21
-2.03885
0
LINE
8
BLACK
6
CONTINUOUS
10
7.01651
20
-2.03885
11
7.0172
21
-2.03921
0
LINE
8
BLACK
6
CONTINUOUS
10
7.0172
20
-2.03921
11
7.0178
21
-2.0397
0
LINE
8
BLACK
6
CONTINUOUS
10
7.0178
20
-2.0397
11
7.01829
21
-2.0403
0
LINE
8
BLACK
6
CONTINUOUS
10
7.01829
20
-2.0403
11
7.01865
21
-2.04099
0
LINE
8
BLACK
6
CONTINUOUS
10
7.01865
20
-2.04099
11
7.01888
21
-2.04173
0
LINE
8
BLACK
6
CONTINUOUS
10
7.01888
20
-2.04173
11
7.01896
21
-2.0425
0
LINE
8
BLACK
6
CONTINUOUS
10
7.01896
20
-2.0425
11
7.01894
21
-2.04269
0
LINE
8
BLACK
6
CONTINUOUS
10
7.01894
20
-2.04269
11
7.01894
21
-7.60481
0
LINE
8
BLACK
6
CONTINUOUS
10
7.01894
20
-7.60481
11
7.01896
21
-7.605
0
LINE
8
BLACK
6
CONTINUOUS
10
7.01896
20
-7.605
11
7.01888
21
-7.60577
0
LINE
8
BLACK
6
CONTINUOUS
10
7.01888
20
-7.60577
11
7.01865
21
-7.60651
0
LINE
8
BLACK
6
CONTINUOUS
10
7.01865
20
-7.60651
11
7.01829
21
-7.6072
0
LINE
8
BLACK
6
CONTINUOUS
10
7.01829
20
-7.6072
11
7.0178
21
-7.6078
0
LINE
8
BLACK
6
CONTINUOUS
10
7.0178
20
-7.6078
11
7.0172
21
-7.60829
0
LINE
8
BLACK
6
CONTINUOUS
10
7.0172
20
-7.60829
11
7.01651
21
-7.60865
0
LINE
8
BLACK
6
CONTINUOUS
10
7.01651
20
-7.60865
11
7.01577
21
-7.60888
0
LINE
8
BLACK
6
CONTINUOUS
10
7.01577
20
-7.60888
11
7.01519
21
-7.60894
0
LINE
8
BLACK
6
CONTINUOUS
10
7.01519
20
-7.60894
11
7.015
21
-7.60896
0
LINE
8
BLACK
6
CONTINUOUS
10
7.015
20
-7.60896
11
7.01481
21
-7.60894
0
LINE
8
BLACK
6
CONTINUOUS
10
7.01481
20
-7.60894
11
6.60019
21
-7.60894
0
LINE
8
BLACK
6
CONTINUOUS
10
6.60019
20
-7.60894
11
6.6
21
-7.60896
0
LINE
8
BLACK
6
CONTINUOUS
10
6.6
20
-7.60896
11
6.59923
21
-7.60888
0
LINE
8
BLACK
6
CONTINUOUS
10
6.59923
20
-7.60888
11
6.59849
21
-7.60865
0
LINE
8
BLACK
6
CONTINUOUS
10
6.59849
20
-7.60865
11
6.5978
21
-7.60829
0
LINE
8
BLACK
6
CONTINUOUS
10
6.5978
20
-7.60829
11
6.5972
21
-7.6078
0
LINE
8
BLACK
6
CONTINUOUS
10
6.5972
20
-7.6078
11
6.59671
21
-7.6072
0
LINE
8
BLACK
6
CONTINUOUS
10
6.59671
20
-7.6072
11
6.59635
21
-7.60651
0
LINE
8
BLACK
6
CONTINUOUS
10
6.59635
20
-7.60651
11
6.59612
21
-7.60577
0
LINE
8
BLACK
6
CONTINUOUS
10
6.59612
20
-7.60577
11
6.59604
21
-7.605
0
LINE
8
BLACK
6
CONTINUOUS
10
6.59604
20
-7.605
11
6.59606
21
-7.60481
0
LINE
8
BLACK
6
CONTINUOUS
10
6.59606
20
-7.60481
11
6.59606
21
-7.41144
0
LINE
8
BLACK
6
CONTINUOUS
10
6.59606
20
-7.41144
11
6.29394
21
-7.41144
0
LINE
8
BLACK
6
CONTINUOUS
10
6.29394
20
-7.41144
11
6.29394
21
-7.60481
0
LINE
8
BLACK
6
CONTINUOUS
10
6.29394
20
-7.60481
11
6.29396
21
-7.605
0
LINE
8
BLACK
6
CONTINUOUS
10
6.29396
20
-7.605
11
6.29388
21
-7.60577
0
LINE
8
BLACK
6
CONTINUOUS
10
6.29388
20
-7.60577
11
6.29365
21
-7.60651
0
LINE
8
BLACK
6
CONTINUOUS
10
6.29365
20
-7.60651
11
6.29329
21
-7.6072
0
LINE
8
BLACK
6
CONTINUOUS
10
6.29329
20
-7.6072
11
6.2928
21
-7.6078
0
LINE
8
BLACK
6
CONTINUOUS
10
6.2928
20
-7.6078
11
6.2922
21
-7.60829
0
LINE
8
BLACK
6
CONTINUOUS
10
6.2922
20
-7.60829
11
6.29151
21
-7.60865
0
LINE
8
BLACK
6
CONTINUOUS
10
6.29151
20
-7.60865
11
6.29077
21
-7.60888
0
LINE
8
BLACK
6
CONTINUOUS
10
6.29077
20
-7.60888
11
6.29019
21
-7.60894
0
LINE
8
BLACK
6
CONTINUOUS
10
6.29019
20
-7.60894
11
6.29
21
-7.60896
0
LINE
8
BLACK
6
CONTINUOUS
10
6.29
20
-7.60896
11
6.28981
21
-7.60894
0
LINE
8
BLACK
6
CONTINUOUS
10
6.28981
20
-7.60894
11
1.33019
21
-7.60894
0
LINE
8
BLACK
6
CONTINUOUS
10
1.33019
20
-7.60894
11
1.33
21
-7.60896
0
LINE
8
BLACK
6
CONTINUOUS
10
1.33
20
-7.60896
11
1.32923
21
-7.60888
0
LINE
8
BLACK
6
CONTINUOUS
10
1.32923
20
-7.60888
11
1.32849
21
-7.60865
0
LINE
8
BLACK
6
CONTINUOUS
10
1.32849
20
-7.60865
11
1.3278
21
-7.60829
0
LINE
8
BLACK
6
CONTINUOUS
10
1.3278
20
-7.60829
11
1.3272
21
-7.6078
0
LINE
8
BLACK
6
CONTINUOUS
10
1.3272
20
-7.6078
11
1.32671
21
-7.6072
0
LINE
8
BLACK
6
CONTINUOUS
10
1.32671
20
-7.6072
11
1.32635
21
-7.60651
0
LINE
8
BLACK
6
CONTINUOUS
10
1.32635
20
-7.60651
11
1.32612
21
-7.60577
0
LINE
8
BLACK
6
CONTINUOUS
10
1.32612
20
-7.60577
11
1.32604
21
-7.605
0
LINE
8
BLACK
6
CONTINUOUS
10
1.32604
20
-7.605
11
1.32606
21
-7.60481
0
LINE
8
BLACK
6
CONTINUOUS
10
1.32606
20
-7.60481
11
1.32606
21
-7.41144
0
LINE
8
BLACK
6
CONTINUOUS
10
1.32606
20
-7.41144
11
1.02394
21
-7.41144
0
LINE
8
BLACK
6
CONTINUOUS
10
1.02394
20
-7.41144
11
1.02394
21
-7.60481
0
LINE
8
BLACK
6
CONTINUOUS
10
1.02394
20
-7.60481
11
1.02396
21
-7.605
0
LINE
8
BLACK
6
CONTINUOUS
10
1.02396
20
-7.605
11
1.02388
21
-7.60577
0
LINE
8
BLACK
6
CONTINUOUS
10
1.02388
20
-7.60577
11
1.02365
21
-7.60651
0
LINE
8
BLACK
6
CONTINUOUS
10
1.02365
20
-7.60651
11
1.02329
21
-7.6072
0
LINE
8
BLACK
6
CONTINUOUS
10
1.02329
20
-7.6072
11
1.0228
21
-7.6078
0
LINE
8
BLACK
6
CONTINUOUS
10
1.0228
20
-7.6078
11
1.0222
21
-7.60829
0
LINE
8
BLACK
6
CONTINUOUS
10
1.0222
20
-7.60829
11
1.02151
21
-7.60865
0
LINE
8
BLACK
6
CONTINUOUS
10
1.02151
20
-7.60865
11
1.02077
21
-7.60888
0
LINE
8
BLACK
6
CONTINUOUS
10
1.02077
20
-7.60888
11
1.02019
21
-7.60894
0
LINE
8
BLACK
6
CONTINUOUS
10
1.02019
20
-7.60894
11
1.02
21
-7.60896
0
LINE
8
BLACK
6
CONTINUOUS
10
1.02
20
-7.60896
11
1.01981
21
-7.60894
0
LINE
8
BLACK
6
CONTINUOUS
10
1.01981
20
-7.60894
11
0.605193
21
-7.60894
0
LINE
8
BLACK
6
CONTINUOUS
10
0.605193
20
-7.60894
11
0.605
21
-7.60896
0
LINE
8
BLACK
6
CONTINUOUS
10
0.605
20
-7.60896
11
0.604228
21
-7.60888
0
LINE
8
BLACK
6
CONTINUOUS
10
0.604228
20
-7.60888
11
0.603486
21
-7.60865
0
LINE
8
BLACK
6
CONTINUOUS
10
0.603486
20
-7.60865
11
0.602802
21
-7.60829
0
LINE
8
BLACK
6
CONTINUOUS
10
0.602802
20
-7.60829
11
0.602203
21
-7.6078
0
LINE
8
BLACK
6
CONTINUOUS
10
0.602203
20
-7.6078
11
0.601711
21
-7.6072
0
LINE
8
BLACK
6
CONTINUOUS
10
0.601711
20
-7.6072
11
0.601345
21
-7.60651
0
LINE
8
BLACK
6
CONTINUOUS
10
0.601345
20
-7.60651
11
0.60112
21
-7.60577
0
LINE
8
BLACK
6
CONTINUOUS
10
0.60112
20
-7.60577
11
0.601044
21
-7.605
0
LINE
8
BLACK
6
CONTINUOUS
10
0.601044
20
-7.605
11
0.601063
21
-7.60481
0
LINE
8
BLACK
6
CONTINUOUS
10
0.601063
20
-7.60481
11
0.601063
21
-2.04269
0
LINE
8
BLACK
6
CONTINUOUS
10
0.601063
20
-2.04269
11
0.601044
21
-2.0425
0
LINE
8
BLACK
6
CONTINUOUS
10
0.601044
20
-2.0425
11
0.60112
21
-2.04173
0
LINE
8
BLACK
6
CONTINUOUS
10
0.60112
20
-2.04173
11
0.601345
21
-2.04099
0
LINE
8
BLACK
6
CONTINUOUS
10
0.601345
20
-2.04099
11
0.601711
21
-2.0403
0
LINE
8
BLACK
6
CONTINUOUS
10
0.601711
20
-2.0403
11
0.602203
21
-2.0397
0
LINE
8
BLACK
6
CONTINUOUS
10
0.602203
20
-2.0397
11
0.602802
21
-2.03921
0
LINE
8
BLACK
6
CONTINUOUS
10
0.602802
20
-2.03921
11
0.603486
21
-2.03885
0
LINE
8
BLACK
6
CONTINUOUS
10
0.603486
20
-2.03885
11
0.604228
21
-2.03862
0
LINE
8
BLACK
6
CONTINUOUS
10
0.604228
20
-2.03862
11
0.604807
21
-2.03856
0
LINE
8
BLACK
6
CONTINUOUS
10
0.604807
20
-2.03856
11
0.605
21
-2.03854
0
LINE
8
BLACK
6
CONTINUOUS
10
0.605
20
-2.03854
11
0.605193
21
-2.03856
0
LINE
8
BLACK
6
CONTINUOUS
10
0.605193
20
-2.03856
11
0.836063
21
-2.03856
0
LINE
8
BLACK
6
CONTINUOUS
10
0.836063
20
-2.03856
11
0.836063
21
-1.67362
0
LINE
8
BLACK
6
CONTINUOUS
10
0.836063
20
-1.67362
11
0.836057
21
-1.67327
0
LINE
8
BLACK
6
CONTINUOUS
10
0.836057
20
-1.67327
11
0.836098
21
-1.67304
0
LINE
8
BLACK
6
CONTINUOUS
10
0.836098
20
-1.67304
11
0.83612
21
-1.67281
0
LINE
8
BLACK
6
CONTINUOUS
10
0.83612
20
-1.67281
11
0.836166
21
-1.67266
0
LINE
8
BLACK
6
CONTINUOUS
10
0.836166
20
-1.67266
11
0.836195
21
-1.6725
0
LINE
8
BLACK
6
CONTINUOUS
10
0.836195
20
-1.6725
11
0.836279
21
-1.67229
0
LINE
8
BLACK
6
CONTINUOUS
10
0.836279
20
-1.67229
11
0.836345
21
-1.67207
0
LINE
8
BLACK
6
CONTINUOUS
10
0.836345
20
-1.67207
11
0.83642
21
-1.67193
0
LINE
8
BLACK
6
CONTINUOUS
10
0.83642
20
-1.67193
11
0.836479
21
-1.67178
0
LINE
8
BLACK
6
CONTINUOUS
10
0.836479
20
-1.67178
11
0.836603
21
-1.67159
0
LINE
8
BLACK
6
CONTINUOUS
10
0.836603
20
-1.67159
11
0.836711
21
-1.67139
0
LINE
8
BLACK
6
CONTINUOUS
10
0.836711
20
-1.67139
11
0.836812
21
-1.67126
0
LINE
8
BLACK
6
CONTINUOUS
10
0.836812
20
-1.67126
11
0.836899
21
-1.67113
0
LINE
8
BLACK
6
CONTINUOUS
10
0.836899
20
-1.67113
11
0.837057
21
-1.67096
0
LINE
8
BLACK
6
CONTINUOUS
10
0.837057
20
-1.67096
11
0.837203
21
-1.67079
0
LINE
8
BLACK
6
CONTINUOUS
10
0.837203
20
-1.67079
11
0.837475
21
-1.67056
0
LINE
8
BLACK
6
CONTINUOUS
10
0.837475
20
-1.67056
11
1.7632
21
-0.883332
0
LINE
8
BLACK
6
CONTINUOUS
10
1.7632
20
-0.883332
11
1.76323
21
-0.883305
0
LINE
8
BLACK
6
CONTINUOUS
10
1.76323
20
-0.883305
11
1.7635
21
-0.883083
0
LINE
8
BLACK
6
CONTINUOUS
10
1.7635
20
-0.883083
11
1.76362
21
-0.882978
0
LINE
8
BLACK
6
CONTINUOUS
10
1.76362
20
-0.882978
11
1.76365
21
-0.882958
0
LINE
8
BLACK
6
CONTINUOUS
10
1.76365
20
-0.882958
11
1.76383
21
-0.882813
0
LINE
8
BLACK
6
CONTINUOUS
10
1.76383
20
-0.882813
11
1.76397
21
-0.882738
0
LINE
8
BLACK
6
CONTINUOUS
10
1.76397
20
-0.882738
11
1.7641
21
-0.882647
0
LINE
8
BLACK
6
CONTINUOUS
10
1.7641
20
-0.882647
11
1.76431
21
-0.882555
0
LINE
8
BLACK
6
CONTINUOUS
10
1.76431
20
-0.882555
11
1.76451
21
-0.882447
0
LINE
8
BLACK
6
CONTINUOUS
10
1.76451
20
-0.882447
11
1.76466
21
-0.882401
0
LINE
8
BLACK
6
CONTINUOUS
10
1.76466
20
-0.882401
11
1.76481
21
-0.882337
0
LINE
8
BLACK
6
CONTINUOUS
10
1.76481
20
-0.882337
11
1.76503
21
-0.882289
0
LINE
8
BLACK
6
CONTINUOUS
10
1.76503
20
-0.882289
11
1.76525
21
-0.882222
0
LINE
8
BLACK
6
CONTINUOUS
10
1.76525
20
-0.882222
11
1.76541
21
-0.882207
0
LINE
8
BLACK
6
CONTINUOUS
10
1.76541
20
-0.882207
11
1.76557
21
-0.882173
0
LINE
8
BLACK
6
CONTINUOUS
10
1.76557
20
-0.882173
11
1.7658
21
-0.882169
0
LINE
8
BLACK
6
CONTINUOUS
10
1.7658
20
-0.882169
11
1.76583
21
-0.882165
0
LINE
8
BLACK
6
CONTINUOUS
10
1.76583
20
-0.882165
11
1.76599
21
-0.882165
0
LINE
8
BLACK
6
CONTINUOUS
10
1.76599
20
-0.882165
11
1.76634
21
-0.882159
0
LINE
8
BLACK
6
CONTINUOUS
10
1.76634
20
-0.882159
11
1.76638
21
-0.882165
0
LINE
8
BLACK
6
CONTINUOUS
10
1.76638
20
-0.882165
11
2.06127
21
-0.882165
0
LINE
8
BLACK
6
CONTINUOUS
10
2.06127
20
-0.882165
11
2.06162
21
-0.88216
0
LINE
8
BLACK
6
CONTINUOUS
10
2.06162
20
-0.88216
11
2.06185
21
-0.8822
0
LINE
8
BLACK
6
CONTINUOUS
10
2.06185
20
-0.8822
11
2.06207
21
-0.882222
0
LINE
8
BLACK
6
CONTINUOUS
10
2.06207
20
-0.882222
11
2.06223
21
-0.88227
0
LINE
8
BLACK
6
CONTINUOUS
10
2.06223
20
-0.88227
11
2.06239
21
-0.882299
0
LINE
8
BLACK
6
CONTINUOUS
10
2.06239
20
-0.882299
11
2.0626
21
-0.882382
0
LINE
8
BLACK
6
CONTINUOUS
10
2.0626
20
-0.882382
11
2.06281
21
-0.882447
0
LINE
8
BLACK
6
CONTINUOUS
10
2.06281
20
-0.882447
11
2.06296
21
-0.882524
0
LINE
8
BLACK
6
CONTINUOUS
10
2.06296
20
-0.882524
11
2.06311
21
-0.882584
0
LINE
8
BLACK
6
CONTINUOUS
10
2.06311
20
-0.882584
11
2.0633
21
-0.882706
0
LINE
8
BLACK
6
CONTINUOUS
10
2.0633
20
-0.882706
11
2.0635
21
-0.882813
0
LINE
8
BLACK
6
CONTINUOUS
10
2.0635
20
-0.882813
11
2.06362
21
-0.882916
0
LINE
8
BLACK
6
CONTINUOUS
10
2.06362
20
-0.882916
11
2.06376
21
-0.883004
0
LINE
8
BLACK
6
CONTINUOUS
10
2.06376
20
-0.883004
11
2.06392
21
-0.883162
0
LINE
8
BLACK
6
CONTINUOUS
10
2.06392
20
-0.883162
11
2.0641
21
-0.883305
0
LINE
8
BLACK
6
CONTINUOUS
10
2.0641
20
-0.883305
11
2.06432
21
-0.883579
0
LINE
8
BLACK
6
CONTINUOUS
10
2.06432
20
-0.883579
11
2.21234
21
-1.05815
0
LINE
8
BLACK
6
CONTINUOUS
10
2.21234
20
-1.05815
11
3.22922
21
-1.05815
0
LINE
8
BLACK
6
CONTINUOUS
10
3.22922
20
-1.05815
11
3.22941
21
-1.05813
0
LINE
8
BLACK
6
CONTINUOUS
10
3.22941
20
-1.05813
11
3.2296
21
-1.05815
0
LINE
8
BLACK
6
CONTINUOUS
10
3.2296
20
-1.05815
11
3.23018
21
-1.05821
0
LINE
8
BLACK
6
CONTINUOUS
10
3.23018
20
-1.05821
11
3.23092
21
-1.05843
0
LINE
8
BLACK
6
CONTINUOUS
10
3.23092
20
-1.05843
11
3.23161
21
-1.0588
0
LINE
8
BLACK
6
CONTINUOUS
10
3.23161
20
-1.0588
11
3.23221
21
-1.05929
0
LINE
8
BLACK
6
CONTINUOUS
10
3.23221
20
-1.05929
11
3.2327
21
-1.05989
0
LINE
8
BLACK
6
CONTINUOUS
10
3.2327
20
-1.05989
11
3.23306
21
-1.06057
0
LINE
8
BLACK
6
CONTINUOUS
10
3.23306
20
-1.06057
11
3.23329
21
-1.06131
0
LINE
8
BLACK
6
CONTINUOUS
10
3.23329
20
-1.06131
11
3.23337
21
-1.06209
0
LINE
8
BLACK
6
CONTINUOUS
10
3.23337
20
-1.06209
11
3.23335
21
-1.06228
0
LINE
8
BLACK
6
CONTINUOUS
10
3.23335
20
-1.06228
11
3.23335
21
-1.30343
0
LINE
8
BLACK
6
CONTINUOUS
10
3.23335
20
-1.30343
11
4.39516
21
-1.30382
0
LINE
8
BLACK
6
CONTINUOUS
10
4.39516
20
-1.30382
11
4.39516
21
-1.05834
0
LINE
8
BLACK
6
CONTINUOUS
10
4.39516
20
-1.05834
11
4.39514
21
-1.05815
0
LINE
8
BLACK
6
CONTINUOUS
10
4.39514
20
-1.05815
11
4.39521
21
-1.05738
0
LINE
8
BLACK
6
CONTINUOUS
10
4.39521
20
-1.05738
11
4.39544
21
-1.05664
0
LINE
8
BLACK
6
CONTINUOUS
10
4.39544
20
-1.05664
11
4.39581
21
-1.05595
0
LINE
8
BLACK
6
CONTINUOUS
10
4.39581
20
-1.05595
11
4.3963
21
-1.05535
0
LINE
8
BLACK
6
CONTINUOUS
10
4.3963
20
-1.05535
11
4.3969
21
-1.05486
0
LINE
8
BLACK
6
CONTINUOUS
10
4.3969
20
-1.05486
11
4.39758
21
-1.05449
0
LINE
8
BLACK
6
CONTINUOUS
10
4.39758
20
-1.05449
11
4.39832
21
-1.05427
0
LINE
8
BLACK
6
CONTINUOUS
10
4.39832
20
-1.05427
11
4.3989
21
-1.05421
0
LINE
8
BLACK
6
CONTINUOUS
10
4.3989
20
-1.05421
11
4.39909
21
-1.05419
0
LINE
8
BLACK
6
CONTINUOUS
10
4.39909
20
-1.05419
11
4.39929
21
-1.05421
0
LINE
8
BLACK
6
CONTINUOUS
10
4.39929
20
-1.05421
11
5.41105
21
-1.05421
0
LINE
8
BLACK
6
CONTINUOUS
10
5.41105
20
-1.05421
11
5.55631
21
-0.883184
0
LINE
8
BLACK
6
CONTINUOUS
10
5.55631
20
-0.883184
11
5.55653
21
-0.882911
0
LINE
8
BLACK
6
CONTINUOUS
10
5.55653
20
-0.882911
11
5.55671
21
-0.882767
0
LINE
8
BLACK
6
CONTINUOUS
10
5.55671
20
-0.882767
11
5.55687
21
-0.882609
0
LINE
8
BLACK
6
CONTINUOUS
10
5.55687
20
-0.882609
11
5.55701
21
-0.882522
0
LINE
8
BLACK
6
CONTINUOUS
10
5.55701
20
-0.882522
11
5.55713
21
-0.882419
0
LINE
8
BLACK
6
CONTINUOUS
10
5.55713
20
-0.882419
11
5.55733
21
-0.882312
0
LINE
8
BLACK
6
CONTINUOUS
10
5.55733
20
-0.882312
11
5.55752
21
-0.882189
0
LINE
8
BLACK
6
CONTINUOUS
10
5.55752
20
-0.882189
11
5.55767
21
-0.88213
0
LINE
8
BLACK
6
CONTINUOUS
10
5.55767
20
-0.88213
11
5.55782
21
-0.882054
0
LINE
8
BLACK
6
CONTINUOUS
10
5.55782
20
-0.882054
11
5.55803
21
-0.881988
0
LINE
8
BLACK
6
CONTINUOUS
10
5.55803
20
-0.881988
11
5.55825
21
-0.881904
0
LINE
8
BLACK
6
CONTINUOUS
10
5.55825
20
-0.881904
11
5.5584
21
-0.881875
0
LINE
8
BLACK
6
CONTINUOUS
10
5.5584
20
-0.881875
11
5.55856
21
-0.881829
0
LINE
8
BLACK
6
CONTINUOUS
10
5.55856
20
-0.881829
11
5.55879
21
-0.881806
0
LINE
8
BLACK
6
CONTINUOUS
10
5.55879
20
-0.881806
11
5.55901
21
-0.881766
0
LINE
8
BLACK
6
CONTINUOUS
10
5.55901
20
-0.881766
11
5.55936
21
-0.881772
0
LINE
8
BLACK
6
CONTINUOUS
10
5.56115
20
-0.889646
11
5.4159
21
-1.06067
0
LINE
8
BLACK
6
CONTINUOUS
10
5.4159
20
-1.06067
11
5.41567
21
-1.06095
0
LINE
8
BLACK
6
CONTINUOUS
10
5.41567
20
-1.06095
11
5.4155
21
-1.06109
0
LINE
8
BLACK
6
CONTINUOUS
10
5.4155
20
-1.06109
11
5.41533
21
-1.06125
0
LINE
8
BLACK
6
CONTINUOUS
10
5.41533
20
-1.06125
11
5.4152
21
-1.06134
0
LINE
8
BLACK
6
CONTINUOUS
10
5.4152
20
-1.06134
11
5.41507
21
-1.06144
0
LINE
8
BLACK
6
CONTINUOUS
10
5.41507
20
-1.06144
11
5.41487
21
-1.06155
0
LINE
8
BLACK
6
CONTINUOUS
10
5.41487
20
-1.06155
11
5.41468
21
-1.06167
0
LINE
8
BLACK
6
CONTINUOUS
10
5.41468
20
-1.06167
11
5.41453
21
-1.06173
0
LINE
8
BLACK
6
CONTINUOUS
10
5.41453
20
-1.06173
11
5.41439
21
-1.0618
0
LINE
8
BLACK
6
CONTINUOUS
10
5.41439
20
-1.0618
11
5.41417
21
-1.06187
0
LINE
8
BLACK
6
CONTINUOUS
10
5.41417
20
-1.06187
11
5.41396
21
-1.06195
0
LINE
8
BLACK
6
CONTINUOUS
10
5.41396
20
-1.06195
11
5.4138
21
-1.06198
0
LINE
8
BLACK
6
CONTINUOUS
10
5.4138
20
-1.06198
11
5.41365
21
-1.06203
0
LINE
8
BLACK
6
CONTINUOUS
10
5.41365
20
-1.06203
11
5.41342
21
-1.06205
0
LINE
8
BLACK
6
CONTINUOUS
10
5.41342
20
-1.06205
11
5.4132
21
-1.06209
0
LINE
8
BLACK
6
CONTINUOUS
10
5.4132
20
-1.06209
11
5.41284
21
-1.06209
0
LINE
8
BLACK
6
CONTINUOUS
10
5.41284
20
-1.06209
11
4.40303
21
-1.06209
0
LINE
8
BLACK
6
CONTINUOUS
10
4.40303
20
-1.06209
11
4.40303
21
-1.30756
0
LINE
8
BLACK
6
CONTINUOUS
10
4.40303
20
-1.30756
11
4.40305
21
-1.30776
0
LINE
8
BLACK
6
CONTINUOUS
10
4.40305
20
-1.30776
11
4.40301
21
-1.30812
0
LINE
8
BLACK
6
CONTINUOUS
10
4.40301
20
-1.30812
11
4.40297
21
-1.30853
0
LINE
8
BLACK
6
CONTINUOUS
10
4.40297
20
-1.30853
11
4.40297
21
-1.30853
0
LINE
8
BLACK
6
CONTINUOUS
10
4.40297
20
-1.30853
11
4.40297
21
-1.30853
0
LINE
8
BLACK
6
CONTINUOUS
10
4.40297
20
-1.30853
11
4.40287
21
-1.30887
0
LINE
8
BLACK
6
CONTINUOUS
10
4.40287
20
-1.30887
11
4.40275
21
-1.30927
0
LINE
8
BLACK
6
CONTINUOUS
10
4.40275
20
-1.30927
11
4.40275
21
-1.30927
0
LINE
8
BLACK
6
CONTINUOUS
10
4.40275
20
-1.30927
11
4.40275
21
-1.30927
0
LINE
8
BLACK
6
CONTINUOUS
10
4.40275
20
-1.30927
11
4.40259
21
-1.30956
0
LINE
8
BLACK
6
CONTINUOUS
10
4.40259
20
-1.30956
11
4.40238
21
-1.30995
0
LINE
8
BLACK
6
CONTINUOUS
10
4.40238
20
-1.30995
11
4.40238
21
-1.30995
0
LINE
8
BLACK
6
CONTINUOUS
10
4.40238
20
-1.30995
11
4.40238
21
-1.30995
0
LINE
8
BLACK
6
CONTINUOUS
10
4.40238
20
-1.30995
11
4.40217
21
-1.31022
0
LINE
8
BLACK
6
CONTINUOUS
10
4.40217
20
-1.31022
11
4.40189
21
-1.31055
0
LINE
8
BLACK
6
CONTINUOUS
10
4.40189
20
-1.31055
11
4.40189
21
-1.31055
0
LINE
8
BLACK
6
CONTINUOUS
10
4.40189
20
-1.31055
11
4.40189
21
-1.31055
0
LINE
8
BLACK
6
CONTINUOUS
10
4.40189
20
-1.31055
11
4.40163
21
-1.31077
0
LINE
8
BLACK
6
CONTINUOUS
10
4.40163
20
-1.31077
11
4.40129
21
-1.31105
0
LINE
8
BLACK
6
CONTINUOUS
10
4.40129
20
-1.31105
11
4.40129
21
-1.31105
0
LINE
8
BLACK
6
CONTINUOUS
10
4.40129
20
-1.31105
11
4.40129
21
-1.31105
0
LINE
8
BLACK
6
CONTINUOUS
10
4.40129
20
-1.31105
11
4.40097
21
-1.31122
0
LINE
8
BLACK
6
CONTINUOUS
10
4.40097
20
-1.31122
11
4.40061
21
-1.31141
0
LINE
8
BLACK
6
CONTINUOUS
10
4.40061
20
-1.31141
11
4.40061
21
-1.31141
0
LINE
8
BLACK
6
CONTINUOUS
10
4.40061
20
-1.31141
11
4.40061
21
-1.31141
0
LINE
8
BLACK
6
CONTINUOUS
10
4.40061
20
-1.31141
11
4.40028
21
-1.31151
0
LINE
8
BLACK
6
CONTINUOUS
10
4.40028
20
-1.31151
11
4.39987
21
-1.31164
0
LINE
8
BLACK
6
CONTINUOUS
10
4.39987
20
-1.31164
11
4.39987
21
-1.31164
0
LINE
8
BLACK
6
CONTINUOUS
10
4.39987
20
-1.31164
11
4.39986
21
-1.31164
0
LINE
8
BLACK
6
CONTINUOUS
10
4.39986
20
-1.31164
11
4.39955
21
-1.31167
0
LINE
8
BLACK
6
CONTINUOUS
10
4.39955
20
-1.31167
11
4.39909
21
-1.31171
0
LINE
8
BLACK
6
CONTINUOUS
10
4.39909
20
-1.31171
11
4.3989
21
-1.31169
0
LINE
8
BLACK
6
CONTINUOUS
10
4.3989
20
-1.31169
11
3.2296
21
-1.3113
0
LINE
8
BLACK
6
CONTINUOUS
10
3.2296
20
-1.3113
11
3.22941
21
-1.31132
0
LINE
8
BLACK
6
CONTINUOUS
10
3.22941
20
-1.31132
11
3.22922
21
-1.3113
0
LINE
8
BLACK
6
CONTINUOUS
10
3.22922
20
-1.3113
11
3.22922
21
-1.3113
0
LINE
8
BLACK
6
CONTINUOUS
10
3.22922
20
-1.3113
11
3.22907
21
-1.31129
0
LINE
8
BLACK
6
CONTINUOUS
10
3.22907
20
-1.31129
11
3.22864
21
-1.31124
0
LINE
8
BLACK
6
CONTINUOUS
10
3.22864
20
-1.31124
11
3.22864
21
-1.31124
0
LINE
8
BLACK
6
CONTINUOUS
10
3.22864
20
-1.31124
11
3.22864
21
-1.31124
0
LINE
8
BLACK
6
CONTINUOUS
10
3.22864
20
-1.31124
11
3.2283
21
-1.31114
0
LINE
8
BLACK
6
CONTINUOUS
10
3.2283
20
-1.31114
11
3.2279
21
-1.31102
0
LINE
8
BLACK
6
CONTINUOUS
10
3.2279
20
-1.31102
11
3.22789
21
-1.31102
0
LINE
8
BLACK
6
CONTINUOUS
10
3.22789
20
-1.31102
11
3.22789
21
-1.31102
0
LINE
8
BLACK
6
CONTINUOUS
10
3.22789
20
-1.31102
11
3.22757
21
-1.31084
0
LINE
8
BLACK
6
CONTINUOUS
10
3.22757
20
-1.31084
11
3.22721
21
-1.31065
0
LINE
8
BLACK
6
CONTINUOUS
10
3.22721
20
-1.31065
11
3.22721
21
-1.31065
0
LINE
8
BLACK
6
CONTINUOUS
10
3.22721
20
-1.31065
11
3.22721
21
-1.31065
0
LINE
8
BLACK
6
CONTINUOUS
10
3.22721
20
-1.31065
11
3.22695
21
-1.31044
0
LINE
8
BLACK
6
CONTINUOUS
10
3.22695
20
-1.31044
11
3.22661
21
-1.31016
0
LINE
8
BLACK
6
CONTINUOUS
10
3.22661
20
-1.31016
11
3.22661
21
-1.31016
0
LINE
8
BLACK
6
CONTINUOUS
10
3.22661
20
-1.31016
11
3.22661
21
-1.31016
0
LINE
8
BLACK
6
CONTINUOUS
10
3.22661
20
-1.31016
11
3.22642
21
-1.30992
0
LINE
8
BLACK
6
CONTINUOUS
10
3.22642
20
-1.30992
11
3.22612
21
-1.30956
0
LINE
8
BLACK
6
CONTINUOUS
10
3.22612
20
-1.30956
11
3.22612
21
-1.30956
0
LINE
8
BLACK
6
CONTINUOUS
10
3.22612
20
-1.30956
11
3.22612
21
-1.30956
0
LINE
8
BLACK
6
CONTINUOUS
10
3.22612
20
-1.30956
11
3.22597
21
-1.30927
0
LINE
8
BLACK
6
CONTINUOUS
10
3.22597
20
-1.30927
11
3.22575
21
-1.30888
0
LINE
8
BLACK
6
CONTINUOUS
10
3.22575
20
-1.30888
11
3.22575
21
-1.30888
0
LINE
8
BLACK
6
CONTINUOUS
10
3.22575
20
-1.30888
11
3.22575
21
-1.30887
0
LINE
8
BLACK
6
CONTINUOUS
10
3.22575
20
-1.30887
11
3.22565
21
-1.30853
0
LINE
8
BLACK
6
CONTINUOUS
10
3.22565
20
-1.30853
11
3.22553
21
-1.30813
0
LINE
8
BLACK
6
CONTINUOUS
10
3.22553
20
-1.30813
11
3.22553
21
-1.30813
0
LINE
8
BLACK
6
CONTINUOUS
10
3.22553
20
-1.30813
11
3.22553
21
-1.30813
0
LINE
8
BLACK
6
CONTINUOUS
10
3.22553
20
-1.30813
11
3.2255
21
-1.30782
0
LINE
8
BLACK
6
CONTINUOUS
10
3.2255
20
-1.30782
11
3.22547
21
-1.30756
0
LINE
8
BLACK
6
CONTINUOUS
10
3.22547
20
-1.30756
11
3.22547
21
-1.30755
0
LINE
8
BLACK
6
CONTINUOUS
10
3.22547
20
-1.30755
11
3.22545
21
-1.30736
0
LINE
8
BLACK
6
CONTINUOUS
10
3.22545
20
-1.30736
11
3.22547
21
-1.30717
0
LINE
8
BLACK
6
CONTINUOUS
10
3.22547
20
-1.30717
11
3.22547
21
-1.06602
0
LINE
8
BLACK
6
CONTINUOUS
10
3.22547
20
-1.06602
11
2.21054
21
-1.06602
0
LINE
8
BLACK
6
CONTINUOUS
10
2.21054
20
-1.06602
11
2.21019
21
-1.06603
0
LINE
8
BLACK
6
CONTINUOUS
10
2.21019
20
-1.06603
11
2.20996
21
-1.06599
0
LINE
8
BLACK
6
CONTINUOUS
10
2.20996
20
-1.06599
11
2.20974
21
-1.06597
0
LINE
8
BLACK
6
CONTINUOUS
10
2.20974
20
-1.06597
11
2.20958
21
-1.06592
0
LINE
8
BLACK
6
CONTINUOUS
10
2.20958
20
-1.06592
11
2.20942
21
-1.06589
0
LINE
8
BLACK
6
CONTINUOUS
10
2.20942
20
-1.06589
11
2.20921
21
-1.06581
0
LINE
8
BLACK
6
CONTINUOUS
10
2.20921
20
-1.06581
11
2.209
21
-1.06574
0
LINE
8
BLACK
6
CONTINUOUS
10
2.209
20
-1.06574
11
2.20885
21
-1.06566
0
LINE
8
BLACK
6
CONTINUOUS
10
2.20885
20
-1.06566
11
2.2087
21
-1.0656
0
LINE
8
BLACK
6
CONTINUOUS
10
2.2087
20
-1.0656
11
2.20851
21
-1.06548
0
LINE
8
BLACK
6
CONTINUOUS
10
2.20851
20
-1.06548
11
2.20831
21
-1.06538
0
LINE
8
BLACK
6
CONTINUOUS
10
2.20831
20
-1.06538
11
2.20819
21
-1.06527
0
LINE
8
BLACK
6
CONTINUOUS
10
2.20819
20
-1.06527
11
2.20805
21
-1.06518
0
LINE
8
BLACK
6
CONTINUOUS
10
2.20805
20
-1.06518
11
2.20789
21
-1.06503
0
LINE
8
BLACK
6
CONTINUOUS
10
2.20789
20
-1.06503
11
2.20771
21
-1.06488
0
LINE
8
BLACK
6
CONTINUOUS
10
2.20771
20
-1.06488
11
2.20749
21
-1.06461
0
LINE
8
BLACK
6
CONTINUOUS
10
2.20749
20
-1.06461
11
2.05948
21
-0.890039
0
LINE
8
BLACK
6
CONTINUOUS
10
2.05948
20
-0.890039
11
1.76747
21
-0.890039
0
LINE
8
BLACK
6
CONTINUOUS
10
1.76747
20
-0.890039
11
0.843937
21
-1.6754
0
LINE
8
BLACK
6
CONTINUOUS
10
0.843937
20
-1.6754
11
0.843937
21
-2.04231
0
LINE
8
BLACK
6
CONTINUOUS
10
0.843937
20
-2.04231
11
0.843956
21
-2.0425
0
LINE
8
BLACK
6
CONTINUOUS
10
0.843956
20
-2.0425
11
0.84388
21
-2.04327
0
LINE
8
BLACK
6
CONTINUOUS
10
0.84388
20
-2.04327
11
0.843655
21
-2.04401
0
LINE
8
BLACK
6
CONTINUOUS
10
0.843655
20
-2.04401
11
0.843289
21
-2.0447
0
LINE
8
BLACK
6
CONTINUOUS
10
0.843289
20
-2.0447
11
0.842797
21
-2.0453
0
LINE
8
BLACK
6
CONTINUOUS
10
0.842797
20
-2.0453
11
0.842198
21
-2.04579
0
LINE
8
BLACK
6
CONTINUOUS
10
0.842198
20
-2.04579
11
0.841514
21
-2.04615
0
LINE
8
BLACK
6
CONTINUOUS
10
0.841514
20
-2.04615
11
0.840772
21
-2.04638
0
LINE
8
BLACK
6
CONTINUOUS
10
0.840772
20
-2.04638
11
0.840193
21
-2.04644
0
LINE
8
BLACK
6
CONTINUOUS
10
0.840193
20
-2.04644
11
0.84
21
-2.04646
0
LINE
8
BLACK
6
CONTINUOUS
10
0.84
20
-2.04646
11
0.839807
21
-2.04644
0
LINE
8
BLACK
6
CONTINUOUS
10
0.839807
20
-2.04644
11
0.608937
21
-2.04644
0
LINE
8
BLACK
6
CONTINUOUS
10
0.608937
20
-2.04644
11
0.608937
21
-7.60106
0
LINE
8
BLACK
6
CONTINUOUS
10
0.608937
20
-7.60106
11
1.01606
21
-7.60106
0
LINE
8
BLACK
6
CONTINUOUS
10
1.01606
20
-7.60106
11
1.01606
21
-7.40769
0
LINE
8
BLACK
6
CONTINUOUS
10
1.01606
20
-7.40769
11
1.01604
21
-7.4075
0
LINE
8
BLACK
6
CONTINUOUS
10
1.01604
20
-7.4075
11
1.01612
21
-7.40673
0
LINE
8
BLACK
6
CONTINUOUS
10
1.01612
20
-7.40673
11
1.01635
21
-7.40599
0
LINE
8
BLACK
6
CONTINUOUS
10
1.01635
20
-7.40599
11
1.01671
21
-7.4053
0
LINE
8
BLACK
6
CONTINUOUS
10
1.01671
20
-7.4053
11
1.0172
21
-7.4047
0
LINE
8
BLACK
6
CONTINUOUS
10
1.0172
20
-7.4047
11
1.0178
21
-7.40421
0
LINE
8
BLACK
6
CONTINUOUS
10
1.0178
20
-7.40421
11
1.01849
21
-7.40385
0
LINE
8
BLACK
6
CONTINUOUS
10
1.01849
20
-7.40385
11
1.01923
21
-7.40362
0
LINE
8
BLACK
6
CONTINUOUS
10
1.01923
20
-7.40362
11
1.01981
21
-7.40356
0
LINE
8
BLACK
6
CONTINUOUS
10
1.01981
20
-7.40356
11
1.02
21
-7.40354
0
LINE
8
BLACK
6
CONTINUOUS
10
1.02
20
-7.40354
11
1.02019
21
-7.40356
0
LINE
8
BLACK
6
CONTINUOUS
10
1.02019
20
-7.40356
11
1.32981
21
-7.40356
0
LINE
8
BLACK
6
CONTINUOUS
10
1.32981
20
-7.40356
11
1.33
21
-7.40354
0
LINE
8
BLACK
6
CONTINUOUS
10
1.33
20
-7.40354
11
1.33019
21
-7.40356
0
LINE
8
BLACK
6
CONTINUOUS
10
1.33019
20
-7.40356
11
1.33077
21
-7.40362
0
LINE
8
BLACK
6
CONTINUOUS
10
1.33077
20
-7.40362
11
1.33151
21
-7.40385
0
LINE
8
BLACK
6
CONTINUOUS
10
1.33151
20
-7.40385
11
1.3322
21
-7.40421
0
LINE
8
BLACK
6
CONTINUOUS
10
1.3322
20
-7.40421
11
1.3328
21
-7.4047
0
LINE
8
BLACK
6
CONTINUOUS
10
1.3328
20
-7.4047
11
1.33329
21
-7.4053
0
LINE
8
BLACK
6
CONTINUOUS
10
1.33329
20
-7.4053
11
1.33365
21
-7.40599
0
LINE
8
BLACK
6
CONTINUOUS
10
1.33365
20
-7.40599
11
1.33388
21
-7.40673
0
LINE
8
BLACK
6
CONTINUOUS
10
1.33388
20
-7.40673
11
1.33396
21
-7.4075
0
LINE
8
BLACK
6
CONTINUOUS
10
1.33396
20
-7.4075
11
1.33394
21
-7.40769
0
LINE
8
BLACK
6
CONTINUOUS
10
1.33394
20
-7.40769
11
1.33394
21
-7.60106
0
LINE
8
BLACK
6
CONTINUOUS
10
1.33394
20
-7.60106
11
6.28606
21
-7.60106
0
LINE
8
BLACK
6
CONTINUOUS
10
6.28606
20
-7.60106
11
6.28606
21
-7.40769
0
LINE
8
BLACK
6
CONTINUOUS
10
6.28606
20
-7.40769
11
6.28604
21
-7.4075
0
LINE
8
BLACK
6
CONTINUOUS
10
6.28604
20
-7.4075
11
6.28612
21
-7.40673
0
LINE
8
BLACK
6
CONTINUOUS
10
6.28612
20
-7.40673
11
6.28635
21
-7.40599
0
LINE
8
BLACK
6
CONTINUOUS
10
6.28635
20
-7.40599
11
6.28671
21
-7.4053
0
LINE
8
BLACK
6
CONTINUOUS
10
6.28671
20
-7.4053
11
6.2872
21
-7.4047
0
LINE
8
BLACK
6
CONTINUOUS
10
6.2872
20
-7.4047
11
6.2878
21
-7.40421
0
LINE
8
BLACK
6
CONTINUOUS
10
6.2878
20
-7.40421
11
6.28849
21
-7.40385
0
LINE
8
BLACK
6
CONTINUOUS
10
6.28849
20
-7.40385
11
6.28923
21
-7.40362
0
LINE
8
BLACK
6
CONTINUOUS
10
6.28923
20
-7.40362
11
6.28981
21
-7.40356
0
LINE
8
BLACK
6
CONTINUOUS
10
6.28981
20
-7.40356
11
6.29
21
-7.40354
0
LINE
8
BLACK
6
CONTINUOUS
10
6.29
20
-7.40354
11
6.29019
21
-7.40356
0
LINE
8
BLACK
6
CONTINUOUS
10
6.29019
20
-7.40356
11
6.59981
21
-7.40356
0
LINE
8
BLACK
6
CONTINUOUS
10
6.59981
20
-7.40356
11
6.6
21
-7.40354
0
LINE
8
BLACK
6
CONTINUOUS
10
6.6
20
-7.40354
11
6.60019
21
-7.40356
0
LINE
8
BLACK
6
CONTINUOUS
10
6.60019
20
-7.40356
11
6.60077
21
-7.40362
0
LINE
8
BLACK
6
CONTINUOUS
10
6.60077
20
-7.40362
11
6.60151
21
-7.40385
0
LINE
8
BLACK
6
CONTINUOUS
10
6.60151
20
-7.40385
11
6.6022
21
-7.40421
0
LINE
8
BLACK
6
CONTINUOUS
10
6.6022
20
-7.40421
11
6.6028
21
-7.4047
0
LINE
8
BLACK
6
CONTINUOUS
10
6.6028
20
-7.4047
11
6.60329
21
-7.4053
0
LINE
8
BLACK
6
CONTINUOUS
10
6.60329
20
-7.4053
11
6.60365
21
-7.40599
0
LINE
8
BLACK
6
CONTINUOUS
10
6.60365
20
-7.40599
11
6.60388
21
-7.40673
0
LINE
8
BLACK
6
CONTINUOUS
10
6.60388
20
-7.40673
11
6.60396
21
-7.4075
0
LINE
8
BLACK
6
CONTINUOUS
10
6.60396
20
-7.4075
11
6.60394
21
-7.40769
0
LINE
8
BLACK
6
CONTINUOUS
10
6.60394
20
-7.40769
11
6.60394
21
-7.60106
0
LINE
8
BLACK
6
CONTINUOUS
10
6.60394
20
-7.60106
11
7.01106
21
-7.60106
0
LINE
8
BLACK
6
CONTINUOUS
10
7.01106
20
-7.60106
11
7.01106
21
-2.04644
0
LINE
8
BLACK
6
CONTINUOUS
10
7.01106
20
-2.04644
11
6.78019
21
-2.04644
0
LINE
8
BLACK
6
CONTINUOUS
10
6.78019
20
-2.04644
11
6.78
21
-2.04646
0
LINE
8
BLACK
6
CONTINUOUS
10
6.78
20
-2.04646
11
6.77981
21
-2.04644
0
LINE
8
BLACK
6
CONTINUOUS
10
6.77981
20
-2.04644
11
6.77923
21
-2.04638
0
LINE
8
BLACK
6
CONTINUOUS
10
6.77923
20
-2.04638
11
6.77849
21
-2.04615
0
LINE
8
BLACK
6
CONTINUOUS
10
6.77849
20
-2.04615
11
6.7778
21
-2.04579
0
LINE
8
BLACK
6
CONTINUOUS
10
6.7778
20
-2.04579
11
6.7772
21
-2.0453
0
LINE
8
BLACK
6
CONTINUOUS
10
6.7772
20
-2.0453
11
6.77671
21
-2.0447
0
LINE
8
BLACK
6
CONTINUOUS
10
6.77671
20
-2.0447
11
6.77635
21
-2.04401
0
LINE
8
BLACK
6
CONTINUOUS
10
6.77635
20
-2.04401
11
6.77612
21
-2.04327
0
LINE
8
BLACK
6
CONTINUOUS
10
6.77612
20
-2.04327
11
6.77604
21
-2.0425
0
LINE
8
BLACK
6
CONTINUOUS
10
6.77604
20
-2.0425
11
6.77606
21
-2.04231
0
LINE
8
BLACK
6
CONTINUOUS
10
6.77606
20
-2.04231
11
6.77606
21
-1.67541
0
LINE
8
BLACK
6
CONTINUOUS
10
6.77606
20
-1.67541
11
5.84805
21
-0.889646
0
LINE
8
BLACK
6
CONTINUOUS
10
5.84805
20
-0.889646
11
5.56115
21
-0.889646
0
LINE
8
BLACK
6
CONTINUOUS
10
6.45519
20
-1.93856
11
6.45577
21
-1.93862
0
LINE
8
BLACK
6
CONTINUOUS
10
6.45577
20
-1.93862
11
6.45651
21
-1.93885
0
LINE
8
BLACK
6
CONTINUOUS
10
6.45651
20
-1.93885
11
6.4572
21
-1.93921
0
LINE
8
BLACK
6
CONTINUOUS
10
6.4572
20
-1.93921
11
6.4578
21
-1.9397
0
LINE
8
BLACK
6
CONTINUOUS
10
6.4578
20
-1.9397
11
6.45829
21
-1.9403
0
LINE
8
BLACK
6
CONTINUOUS
10
6.45829
20
-1.9403
11
6.45865
21
-1.94099
0
LINE
8
BLACK
6
CONTINUOUS
10
6.45865
20
-1.94099
11
6.45888
21
-1.94173
0
LINE
8
BLACK
6
CONTINUOUS
10
6.45888
20
-1.94173
11
6.45896
21
-1.9425
0
LINE
8
BLACK
6
CONTINUOUS
10
6.45896
20
-1.9425
11
6.45894
21
-1.94269
0
LINE
8
BLACK
6
CONTINUOUS
10
6.45894
20
-1.94269
11
6.45894
21
-7.26981
0
LINE
8
BLACK
6
CONTINUOUS
10
6.45894
20
-7.26981
11
6.45896
21
-7.27
0
LINE
8
BLACK
6
CONTINUOUS
10
6.45896
20
-7.27
11
6.45888
21
-7.27077
0
LINE
8
BLACK
6
CONTINUOUS
10
6.45888
20
-7.27077
11
6.45865
21
-7.27151
0
LINE
8
BLACK
6
CONTINUOUS
10
6.45865
20
-7.27151
11
6.45829
21
-7.2722
0
LINE
8
BLACK
6
CONTINUOUS
10
6.45829
20
-7.2722
11
6.4578
21
-7.2728
0
LINE
8
BLACK
6
CONTINUOUS
10
6.4578
20
-7.2728
11
6.4572
21
-7.27329
0
LINE
8
BLACK
6
CONTINUOUS
10
6.4572
20
-7.27329
11
6.45651
21
-7.27365
0
LINE
8
BLACK
6
CONTINUOUS
10
6.45651
20
-7.27365
11
6.45577
21
-7.27388
0
LINE
8
BLACK
6
CONTINUOUS
10
6.45577
20
-7.27388
11
6.45519
21
-7.27394
0
LINE
8
BLACK
6
CONTINUOUS
10
6.45519
20
-7.27394
11
6.455
21
-7.27396
0
LINE
8
BLACK
6
CONTINUOUS
10
6.455
20
-7.27396
11
6.45481
21
-7.27394
0
LINE
8
BLACK
6
CONTINUOUS
10
6.45481
20
-7.27394
11
1.16519
21
-7.27394
0
LINE
8
BLACK
6
CONTINUOUS
10
1.16519
20
-7.27394
11
1.165
21
-7.27396
0
LINE
8
BLACK
6
CONTINUOUS
10
1.165
20
-7.27396
11
1.16423
21
-7.27388
0
LINE
8
BLACK
6
CONTINUOUS
10
1.16423
20
-7.27388
11
1.16349
21
-7.27365
0
LINE
8
BLACK
6
CONTINUOUS
10
1.16349
20
-7.27365
11
1.1628
21
-7.27329
0
LINE
8
BLACK
6
CONTINUOUS
10
1.1628
20
-7.27329
11
1.1622
21
-7.2728
0
LINE
8
BLACK
6
CONTINUOUS
10
1.1622
20
-7.2728
11
1.16171
21
-7.2722
0
LINE
8
BLACK
6
CONTINUOUS
10
1.16171
20
-7.2722
11
1.16135
21
-7.27151
0
LINE
8
BLACK
6
CONTINUOUS
10
1.16135
20
-7.27151
11
1.16112
21
-7.27077
0
LINE
8
BLACK
6
CONTINUOUS
10
1.16112
20
-7.27077
11
1.16104
21
-7.27
0
LINE
8
BLACK
6
CONTINUOUS
10
1.16104
20
-7.27
11
1.16106
21
-7.26981
0
LINE
8
BLACK
6
CONTINUOUS
10
1.16106
20
-7.26981
11
1.16106
21
-1.94269
0
LINE
8
BLACK
6
CONTINUOUS
10
1.16106
20
-1.94269
11
1.16104
21
-1.9425
0
LINE
8
BLACK
6
CONTINUOUS
10
1.16104
20
-1.9425
11
1.16112
21
-1.94173
0
LINE
8
BLACK
6
CONTINUOUS
10
1.16112
20
-1.94173
11
1.16135
21
-1.94099
0
LINE
8
BLACK
6
CONTINUOUS
10
1.16135
20
-1.94099
11
1.16171
21
-1.9403
0
LINE
8
BLACK
6
CONTINUOUS
10
1.16171
20
-1.9403
11
1.1622
21
-1.9397
0
LINE
8
BLACK
6
CONTINUOUS
10
1.1622
20
-1.9397
11
1.1628
21
-1.93921
0
LINE
8
BLACK
6
CONTINUOUS
10
1.1628
20
-1.93921
11
1.16349
21
-1.93885
0
LINE
8
BLACK
6
CONTINUOUS
10
1.16349
20
-1.93885
11
1.16423
21
-1.93862
0
LINE
8
BLACK
6
CONTINUOUS
10
1.16423
20
-1.93862
11
1.16481
21
-1.93856
0
LINE
8
BLACK
6
CONTINUOUS
10
1.16481
20
-1.93856
11
1.165
21
-1.93854
0
LINE
8
BLACK
6
CONTINUOUS
10
1.165
20
-1.93854
11
1.16519
21
-1.93856
0
LINE
8
BLACK
6
CONTINUOUS
10
1.16519
20
-1.93856
11
6.45481
21
-1.93856
0
LINE
8
BLACK
6
CONTINUOUS
10
6.45481
20
-1.93856
11
6.455
21
-1.93854
0
LINE
8
BLACK
6
CONTINUOUS
10
6.455
20
-1.93854
11
6.45519
21
-1.93856
0
LINE
8
BLACK
6
CONTINUOUS
10
1.16894
20
-1.94644
11
1.16894
21
-7.26606
0
LINE
8
BLACK
6
CONTINUOUS
10
1.16894
20
-7.26606
11
6.45106
21
-7.26606
0
LINE
8
BLACK
6
CONTINUOUS
10
6.45106
20
-7.26606
11
6.45106
21
-1.94644
0
LINE
8
BLACK
6
CONTINUOUS
10
6.45106
20
-1.94644
11
1.16894
21
-1.94644
  0
ENDSEC
  0
EOF
