  0
SECTION
  2
HEADER
  9
$ANGBASE
  50
0.0
  9
$ANGDIR
  70
1
  9
$MEASUREMENT
  70
1
  0
ENDSEC
  0
SECTION
  2
TABLES
  0
TABLE
  2
LTYPE
  70
4
  0
LTYPE
  5
40F
  2
CONTINUOUS
  70
0
  3
Solid line
  72
65
  73
0
  40
0.0
  0
LTYPE
  5
410
  2
DASHDOT
 70
0
  3
Dash Dot ____ _ ____ _
 72
65
 73
4
 40
2.0
 49
1.25
 49
-0.25
 49
0.25
 49
-0.25
  0
LTYPE
  5
411
  2
DASHED
 70
0
  3
Dashed __ __ __ __ __
 72
65
 73
2
 40
0.75
 49
0.5
 49
-0.25
  0
LTYPE
  5
43B
  2
DOTTED
 70
0
  3
Dotted .  .  .  .
 72
65
 73
2
 40
0.2
 49
0.0
 49
-0.2
  0
ENDTAB
  0
TABLE
  2
STYLE
  70
4
  0
STYLE
  2
KICAD
  70
0
  40
0
  41
1
  42
1
  50
0
  71
0
  3
isocp.shx
  0
STYLE
  2
KICADB
  70
0
  40
0
  41
1
  42
1
  50
0
  71
0
  3
isocp.shx
  0
STYLE
  2
KICADI
  70
0
  40
0
  41
1
  42
1
  50
15
  71
0
  3
isocp.shx
  0
STYLE
  2
KICADBI
  70
0
  40
0
  41
1
  42
1
  50
15
  71
0
  3
isocp.shx
  0
ENDTAB
  0
TABLE
  2
LAYER
  70
1
  0
LAYER
  2
BLACK
  70
0
  62
7
  6
CONTINUOUS
  0
ENDTAB
  0
ENDSEC
  0
SECTION
  2
ENTITIES
0
LINE
8
BLACK
6
CONTINUOUS
10
207.5300000000000011
20
-24.0399999999999991
11
207.5300000000000011
21
-139.7399999999999807
0
LINE
8
BLACK
6
CONTINUOUS
10
86.7800000000000011
20
-89.7199999999999989
11
101.1700000000000017
21
-89.7299999999999898
0
LINE
8
BLACK
6
CONTINUOUS
10
86.769999999999996
20
-24.0399999999999991
11
86.7800000000000011
21
-89.7199999999999989
0
LINE
8
BLACK
6
CONTINUOUS
10
207.5300000000000011
20
-24.0399999999999991
11
86.769999999999996
21
-24.0399999999999991
0
LINE
8
BLACK
6
CONTINUOUS
10
86.769999999999996
20
-139.7399999999999807
11
207.5300000000000011
21
-139.7399999999999807
0
LINE
8
BLACK
6
CONTINUOUS
10
86.7399999999999949
20
-106.9899999999999949
11
86.769999999999996
21
-139.7399999999999807
0
LINE
8
BLACK
6
CONTINUOUS
10
101.1700000000000017
20
-106.9799999999999898
11
86.7399999999999949
21
-106.9899999999999949
0
LINE
8
BLACK
6
CONTINUOUS
10
101.1700000000000017
20
-89.7299999999999898
11
101.1700000000000017
21
-106.9799999999999898
0
CIRCLE
8
BLACK
10
137.4699999999999989
20
-117.25
40
6.0165189999999997
0
LINE
8
BLACK
6
CONTINUOUS
10
92.3999999999999915
20
-31.5999999999999979
11
110.3900000000000006
21
-31.5999999999999979
0
LINE
8
BLACK
6
CONTINUOUS
10
110.3900000000000006
20
-31.5999999999999979
11
110.3900000000000006
21
-48.8799999999999955
0
LINE
8
BLACK
6
CONTINUOUS
10
110.3900000000000006
20
-48.8799999999999955
11
92.3999999999999915
21
-48.8799999999999955
0
LINE
8
BLACK
6
CONTINUOUS
10
92.3999999999999915
20
-48.8799999999999955
11
92.3999999999999915
21
-31.5999999999999979
0
LINE
8
BLACK
6
CONTINUOUS
10
122.9099999999999966
20
-31.6199999999999974
11
140.9000000000000057
21
-31.6199999999999974
0
LINE
8
BLACK
6
CONTINUOUS
10
140.9000000000000057
20
-31.6199999999999974
11
140.9000000000000057
21
-48.8999999999999986
0
LINE
8
BLACK
6
CONTINUOUS
10
140.9000000000000057
20
-48.8999999999999986
11
122.9099999999999966
21
-48.8999999999999986
0
LINE
8
BLACK
6
CONTINUOUS
10
122.9099999999999966
20
-48.8999999999999986
11
122.9099999999999966
21
-31.6199999999999974
0
LINE
8
BLACK
6
CONTINUOUS
10
153.4199999999999875
20
-31.6099999999999994
11
171.4099999999999966
21
-31.6099999999999994
0
LINE
8
BLACK
6
CONTINUOUS
10
171.4099999999999966
20
-31.6099999999999994
11
171.4099999999999966
21
-48.8900000000000006
0
LINE
8
BLACK
6
CONTINUOUS
10
171.4099999999999966
20
-48.8900000000000006
11
153.4199999999999875
21
-48.8900000000000006
0
LINE
8
BLACK
6
CONTINUOUS
10
153.4199999999999875
20
-48.8900000000000006
11
153.4199999999999875
21
-31.6099999999999994
0
LINE
8
BLACK
6
CONTINUOUS
10
183.9599999999999795
20
-31.6699999999999982
11
201.9499999999999886
21
-31.6699999999999982
0
LINE
8
BLACK
6
CONTINUOUS
10
201.9499999999999886
20
-31.6699999999999982
11
201.9499999999999886
21
-48.9499999999999957
0
LINE
8
BLACK
6
CONTINUOUS
10
201.9499999999999886
20
-48.9499999999999957
11
183.9599999999999795
21
-48.9499999999999957
0
LINE
8
BLACK
6
CONTINUOUS
10
183.9599999999999795
20
-48.9499999999999957
11
183.9599999999999795
21
-31.6699999999999982
0
LINE
8
BLACK
6
CONTINUOUS
10
183.9599999999999795
20
-64.3699999999999903
11
201.9499999999999886
21
-64.3699999999999903
0
LINE
8
BLACK
6
CONTINUOUS
10
201.9499999999999886
20
-64.3699999999999903
11
201.9499999999999886
21
-81.6499999999999915
0
LINE
8
BLACK
6
CONTINUOUS
10
201.9499999999999886
20
-81.6499999999999915
11
183.9599999999999795
21
-81.6499999999999915
0
LINE
8
BLACK
6
CONTINUOUS
10
183.9599999999999795
20
-81.6499999999999915
11
183.9599999999999795
21
-64.3699999999999903
0
LINE
8
BLACK
6
CONTINUOUS
10
153.3599999999999852
20
-64.3100000000000023
11
171.3499999999999943
21
-64.3100000000000023
0
LINE
8
BLACK
6
CONTINUOUS
10
171.3499999999999943
20
-64.3100000000000023
11
171.3499999999999943
21
-81.5900000000000034
0
LINE
8
BLACK
6
CONTINUOUS
10
171.3499999999999943
20
-81.5900000000000034
11
153.3599999999999852
21
-81.5900000000000034
0
LINE
8
BLACK
6
CONTINUOUS
10
153.3599999999999852
20
-81.5900000000000034
11
153.3599999999999852
21
-64.3100000000000023
0
LINE
8
BLACK
6
CONTINUOUS
10
122.9299999999999926
20
-64.4099999999999966
11
140.9199999999999875
21
-64.4099999999999966
0
LINE
8
BLACK
6
CONTINUOUS
10
140.9199999999999875
20
-64.4099999999999966
11
140.9199999999999875
21
-81.6899999999999977
0
LINE
8
BLACK
6
CONTINUOUS
10
140.9199999999999875
20
-81.6899999999999977
11
122.9299999999999926
21
-81.6899999999999977
0
LINE
8
BLACK
6
CONTINUOUS
10
122.9299999999999926
20
-81.6899999999999977
11
122.9299999999999926
21
-64.4099999999999966
0
LINE
8
BLACK
6
CONTINUOUS
10
92.4599999999999937
20
-64.4299999999999926
11
110.4499999999999886
21
-64.4299999999999926
0
LINE
8
BLACK
6
CONTINUOUS
10
110.4499999999999886
20
-64.4299999999999926
11
110.4499999999999886
21
-81.7099999999999937
0
LINE
8
BLACK
6
CONTINUOUS
10
110.4499999999999886
20
-81.7099999999999937
11
92.4599999999999937
21
-81.7099999999999937
0
LINE
8
BLACK
6
CONTINUOUS
10
92.4599999999999937
20
-81.7099999999999937
11
92.4599999999999937
21
-64.4299999999999926
0
LINE
8
BLACK
6
CONTINUOUS
10
108.1799999999999926
20
-109.3699999999999903
11
126.1699999999999875
21
-109.3699999999999903
0
LINE
8
BLACK
6
CONTINUOUS
10
126.1699999999999875
20
-109.3699999999999903
11
126.1699999999999875
21
-126.6499999999999915
0
LINE
8
BLACK
6
CONTINUOUS
10
126.1699999999999875
20
-126.6499999999999915
11
108.1799999999999926
21
-126.6499999999999915
0
LINE
8
BLACK
6
CONTINUOUS
10
108.1799999999999926
20
-126.6499999999999915
11
108.1799999999999926
21
-109.3699999999999903
0
CIRCLE
8
BLACK
10
168.4000000000000057
20
-120.2800000000000011
40
4.7884029999999997
0
CIRCLE
8
BLACK
10
95.4442669999999964
20
-135.960000000000008
40
1.755733
0
CIRCLE
8
BLACK
10
197.4142669999999953
20
-135.9799999999999898
40
1.755733
0
CIRCLE
8
BLACK
10
197.4142669999999953
20
-26.75
40
1.755733
0
CIRCLE
8
BLACK
10
95.4242670000000004
20
-26.7399999999999984
40
1.755733
0
LINE
8
BLACK
6
CONTINUOUS
10
89.2977679999999907
20
-142.9048379999999838
11
89.2977679999999907
21
-140.9048379999999838
0
LINE
8
BLACK
6
CONTINUOUS
10
89.2977679999999907
20
-140.9048379999999838
11
89.7739579999999933
21
-140.9048379999999838
0
LINE
8
BLACK
6
CONTINUOUS
10
89.7739579999999933
20
-140.9048379999999838
11
90.0596729999999894
21
-141.0000760000000071
0
LINE
8
BLACK
6
CONTINUOUS
10
90.0596729999999894
20
-141.0000760000000071
11
90.2501489999999933
21
-141.1905519999999967
0
LINE
8
BLACK
6
CONTINUOUS
10
90.2501489999999933
20
-141.1905519999999967
11
90.3453870000000023
21
-141.3810279999999864
0
LINE
8
BLACK
6
CONTINUOUS
10
90.3453870000000023
20
-141.3810279999999864
11
90.4406249999999972
21
-141.7619799999999941
0
LINE
8
BLACK
6
CONTINUOUS
10
90.4406249999999972
20
-141.7619799999999941
11
90.4406249999999972
21
-142.0476950000000045
0
LINE
8
BLACK
6
CONTINUOUS
10
90.4406249999999972
20
-142.0476950000000045
11
90.3453870000000023
21
-142.4286469999999838
0
LINE
8
BLACK
6
CONTINUOUS
10
90.3453870000000023
20
-142.4286469999999838
11
90.2501489999999933
21
-142.6191230000000019
0
LINE
8
BLACK
6
CONTINUOUS
10
90.2501489999999933
20
-142.6191230000000019
11
90.0596729999999894
21
-142.809599999999989
0
LINE
8
BLACK
6
CONTINUOUS
10
90.0596729999999894
20
-142.809599999999989
11
89.7739579999999933
21
-142.9048379999999838
0
LINE
8
BLACK
6
CONTINUOUS
10
89.7739579999999933
20
-142.9048379999999838
11
89.2977679999999907
21
-142.9048379999999838
0
LINE
8
BLACK
6
CONTINUOUS
10
91.2977679999999907
20
-142.9048379999999838
11
91.2977679999999907
21
-141.5715040000000045
0
LINE
8
BLACK
6
CONTINUOUS
10
91.2977679999999907
20
-141.9524569999999812
11
91.3930059999999997
21
-141.7619799999999941
0
LINE
8
BLACK
6
CONTINUOUS
10
91.3930059999999997
20
-141.7619799999999941
11
91.4882439999999946
21
-141.6667419999999993
0
LINE
8
BLACK
6
CONTINUOUS
10
91.4882439999999946
20
-141.6667419999999993
11
91.6787199999999984
21
-141.5715040000000045
0
LINE
8
BLACK
6
CONTINUOUS
10
91.6787199999999984
20
-141.5715040000000045
11
91.8691969999999998
21
-141.5715040000000045
0
LINE
8
BLACK
6
CONTINUOUS
10
92.535862999999992
20
-142.9048379999999838
11
92.535862999999992
21
-141.5715040000000045
0
LINE
8
BLACK
6
CONTINUOUS
10
92.535862999999992
20
-140.9048379999999838
11
92.4406249999999972
21
-141.0000760000000071
0
LINE
8
BLACK
6
CONTINUOUS
10
92.4406249999999972
20
-141.0000760000000071
11
92.535862999999992
21
-141.0953140000000019
0
LINE
8
BLACK
6
CONTINUOUS
10
92.535862999999992
20
-141.0953140000000019
11
92.631101000000001
21
-141.0000760000000071
0
LINE
8
BLACK
6
CONTINUOUS
10
92.631101000000001
20
-141.0000760000000071
11
92.535862999999992
21
-140.9048379999999838
0
LINE
8
BLACK
6
CONTINUOUS
10
92.535862999999992
20
-140.9048379999999838
11
92.535862999999992
21
-141.0953140000000019
0
LINE
8
BLACK
6
CONTINUOUS
10
93.7739579999999933
20
-142.9048379999999838
11
93.5834819999999894
21
-142.809599999999989
0
LINE
8
BLACK
6
CONTINUOUS
10
93.5834819999999894
20
-142.809599999999989
11
93.4882439999999946
21
-142.6191230000000019
0
LINE
8
BLACK
6
CONTINUOUS
10
93.4882439999999946
20
-142.6191230000000019
11
93.4882439999999946
21
-140.9048379999999838
0
LINE
8
BLACK
6
CONTINUOUS
10
94.8215769999999907
20
-142.9048379999999838
11
94.631101000000001
21
-142.809599999999989
0
LINE
8
BLACK
6
CONTINUOUS
10
94.631101000000001
20
-142.809599999999989
11
94.535862999999992
21
-142.6191230000000019
0
LINE
8
BLACK
6
CONTINUOUS
10
94.535862999999992
20
-142.6191230000000019
11
94.535862999999992
21
-140.9048379999999838
0
LINE
8
BLACK
6
CONTINUOUS
10
97.1072920000000011
20
-142.9048379999999838
11
97.1072920000000011
21
-140.9048379999999838
0
LINE
8
BLACK
6
CONTINUOUS
10
97.1072920000000011
20
-140.9048379999999838
11
97.7739589999999907
21
-142.333408999999989
0
LINE
8
BLACK
6
CONTINUOUS
10
97.7739589999999907
20
-142.333408999999989
11
98.4406249999999972
21
-140.9048379999999838
0
LINE
8
BLACK
6
CONTINUOUS
10
98.4406249999999972
20
-140.9048379999999838
11
98.4406249999999972
21
-142.9048379999999838
0
LINE
8
BLACK
6
CONTINUOUS
10
100.2501489999999933
20
-142.9048379999999838
11
100.2501489999999933
21
-141.8572189999999864
0
LINE
8
BLACK
6
CONTINUOUS
10
100.2501489999999933
20
-141.8572189999999864
11
100.1549109999999985
21
-141.6667419999999993
0
LINE
8
BLACK
6
CONTINUOUS
10
100.1549109999999985
20
-141.6667419999999993
11
99.9644349999999946
21
-141.5715040000000045
0
LINE
8
BLACK
6
CONTINUOUS
10
99.9644349999999946
20
-141.5715040000000045
11
99.5834819999999894
21
-141.5715040000000045
0
LINE
8
BLACK
6
CONTINUOUS
10
99.5834819999999894
20
-141.5715040000000045
11
99.3930059999999997
21
-141.6667419999999993
0
LINE
8
BLACK
6
CONTINUOUS
10
100.2501489999999933
20
-142.809599999999989
11
100.0596729999999894
21
-142.9048379999999838
0
LINE
8
BLACK
6
CONTINUOUS
10
100.0596729999999894
20
-142.9048379999999838
11
99.5834819999999894
21
-142.9048379999999838
0
LINE
8
BLACK
6
CONTINUOUS
10
99.5834819999999894
20
-142.9048379999999838
11
99.3930059999999997
21
-142.809599999999989
0
LINE
8
BLACK
6
CONTINUOUS
10
99.3930059999999997
20
-142.809599999999989
11
99.2977679999999907
21
-142.6191230000000019
0
LINE
8
BLACK
6
CONTINUOUS
10
99.2977679999999907
20
-142.6191230000000019
11
99.2977679999999907
21
-142.4286469999999838
0
LINE
8
BLACK
6
CONTINUOUS
10
99.2977679999999907
20
-142.4286469999999838
11
99.3930059999999997
21
-142.2381709999999941
0
LINE
8
BLACK
6
CONTINUOUS
10
99.3930059999999997
20
-142.2381709999999941
11
99.5834819999999894
21
-142.1429329999999993
0
LINE
8
BLACK
6
CONTINUOUS
10
99.5834819999999894
20
-142.1429329999999993
11
100.0596729999999894
21
-142.1429329999999993
0
LINE
8
BLACK
6
CONTINUOUS
10
100.0596729999999894
20
-142.1429329999999993
11
100.2501489999999933
21
-142.0476950000000045
0
LINE
8
BLACK
6
CONTINUOUS
10
101.2025299999999959
20
-141.5715040000000045
11
101.2025299999999959
21
-143.5715040000000045
0
LINE
8
BLACK
6
CONTINUOUS
10
101.2025299999999959
20
-141.6667419999999993
11
101.3930059999999997
21
-141.5715040000000045
0
LINE
8
BLACK
6
CONTINUOUS
10
101.3930059999999997
20
-141.5715040000000045
11
101.7739589999999907
21
-141.5715040000000045
0
LINE
8
BLACK
6
CONTINUOUS
10
101.7739589999999907
20
-141.5715040000000045
11
101.9644349999999946
21
-141.6667419999999993
0
LINE
8
BLACK
6
CONTINUOUS
10
101.9644349999999946
20
-141.6667419999999993
11
102.0596729999999894
21
-141.7619799999999941
0
LINE
8
BLACK
6
CONTINUOUS
10
102.0596729999999894
20
-141.7619799999999941
11
102.1549109999999985
21
-141.9524569999999812
0
LINE
8
BLACK
6
CONTINUOUS
10
102.1549109999999985
20
-141.9524569999999812
11
102.1549109999999985
21
-142.523885000000007
0
LINE
8
BLACK
6
CONTINUOUS
10
102.1549109999999985
20
-142.523885000000007
11
102.0596729999999894
21
-142.7143609999999967
0
LINE
8
BLACK
6
CONTINUOUS
10
102.0596729999999894
20
-142.7143609999999967
11
101.9644349999999946
21
-142.809599999999989
0
LINE
8
BLACK
6
CONTINUOUS
10
101.9644349999999946
20
-142.809599999999989
11
101.7739589999999907
21
-142.9048379999999838
0
LINE
8
BLACK
6
CONTINUOUS
10
101.7739589999999907
20
-142.9048379999999838
11
101.3930059999999997
21
-142.9048379999999838
0
LINE
8
BLACK
6
CONTINUOUS
10
101.3930059999999997
20
-142.9048379999999838
11
101.2025299999999959
21
-142.809599999999989
0
LINE
8
BLACK
6
CONTINUOUS
10
103.012053999999992
20
-142.7143609999999967
11
103.1072920000000011
21
-142.809599999999989
0
LINE
8
BLACK
6
CONTINUOUS
10
103.1072920000000011
20
-142.809599999999989
11
103.012053999999992
21
-142.9048379999999838
0
LINE
8
BLACK
6
CONTINUOUS
10
103.012053999999992
20
-142.9048379999999838
11
102.9168159999999972
21
-142.809599999999989
0
LINE
8
BLACK
6
CONTINUOUS
10
102.9168159999999972
20
-142.809599999999989
11
103.012053999999992
21
-142.7143609999999967
0
LINE
8
BLACK
6
CONTINUOUS
10
103.012053999999992
20
-142.7143609999999967
11
103.012053999999992
21
-142.9048379999999838
0
LINE
8
BLACK
6
CONTINUOUS
10
103.012053999999992
20
-141.6667419999999993
11
103.1072920000000011
21
-141.7619799999999941
0
LINE
8
BLACK
6
CONTINUOUS
10
103.1072920000000011
20
-141.7619799999999941
11
103.012053999999992
21
-141.8572189999999864
0
LINE
8
BLACK
6
CONTINUOUS
10
103.012053999999992
20
-141.8572189999999864
11
102.9168159999999972
21
-141.7619799999999941
0
LINE
8
BLACK
6
CONTINUOUS
10
102.9168159999999972
20
-141.7619799999999941
11
103.012053999999992
21
-141.6667419999999993
0
LINE
8
BLACK
6
CONTINUOUS
10
103.012053999999992
20
-141.6667419999999993
11
103.012053999999992
21
-141.8572189999999864
  0
ENDSEC
  0
EOF
