  0
SECTION
  2
HEADER
  9
$ANGBASE
  50
0.0
  9
$ANGDIR
  70
1
  9
$MEASUREMENT
  70
0
  0
ENDSEC
  0
SECTION
  2
TABLES
  0
TABLE
  2
LTYPE
  70
4
  0
LTYPE
  5
40F
  2
CONTINUOUS
  70
0
  3
Solid line
  72
65
  73
0
  40
0.0
  0
LTYPE
  5
410
  2
DASHDOT
 70
0
  3
Dash Dot ____ _ ____ _
 72
65
 73
4
 40
2.0
 49
1.25
 49
-0.25
 49
0.25
 49
-0.25
  0
LTYPE
  5
411
  2
DASHED
 70
0
  3
Dashed __ __ __ __ __
 72
65
 73
2
 40
0.75
 49
0.5
 49
-0.25
  0
LTYPE
  5
43B
  2
DOTTED
 70
0
  3
Dotted .  .  .  .
 72
65
 73
2
 40
0.2
 49
0.0
 49
-0.2
  0
ENDTAB
  0
TABLE
  2
STYLE
  70
4
  0
STYLE
  2
KICAD
  70
0
  40
0
  41
1
  42
1
  50
0
  71
0
  3
isocp.shx
  0
STYLE
  2
KICADB
  70
0
  40
0
  41
1
  42
1
  50
0
  71
0
  3
isocp.shx
  0
STYLE
  2
KICADI
  70
0
  40
0
  41
1
  42
1
  50
15
  71
0
  3
isocp.shx
  0
STYLE
  2
KICADBI
  70
0
  40
0
  41
1
  42
1
  50
15
  71
0
  3
isocp.shx
  0
ENDTAB
  0
TABLE
  2
LAYER
  70
1
  0
LAYER
  2
BLACK
  70
0
  62
7
  6
CONTINUOUS
  0
ENDTAB
  0
ENDSEC
  0
SECTION
  2
ENTITIES
0
LINE
8
BLACK
6
CONTINUOUS
10
6.77
20
-4.21
11
6.76
21
-2.18
0
LINE
8
BLACK
6
CONTINUOUS
10
3.98
20
-4.21
11
6.77
21
-4.21
0
LINE
8
BLACK
6
CONTINUOUS
10
3.98
20
-2.18
11
3.98
21
-4.21
0
LINE
8
BLACK
6
CONTINUOUS
10
6.76
20
-2.18
11
3.98
21
-2.18
0
LINE
8
BLACK
6
CONTINUOUS
10
4.05433
20
-2.24606
11
4.18031
21
-2.37205
0
LINE
8
BLACK
6
CONTINUOUS
10
4.18031
20
-2.24606
11
4.05433
21
-2.37205
0
LINE
8
BLACK
6
CONTINUOUS
10
4.05433
20
-4.02047
11
4.18031
21
-4.14646
0
LINE
8
BLACK
6
CONTINUOUS
10
4.18031
20
-4.02047
11
4.05433
21
-4.14646
0
LINE
8
BLACK
6
CONTINUOUS
10
6.56772
20
-2.24606
11
6.6937
21
-2.37205
0
LINE
8
BLACK
6
CONTINUOUS
10
6.6937
20
-2.24606
11
6.56772
21
-2.37205
0
LINE
8
BLACK
6
CONTINUOUS
10
6.56772
20
-4.02047
11
6.6937
21
-4.14646
0
LINE
8
BLACK
6
CONTINUOUS
10
6.6937
20
-4.02047
11
6.56772
21
-4.14646
0
LINE
8
BLACK
6
CONTINUOUS
10
4.09178
20
-4.39434
11
4.09178
21
-4.27623
0
LINE
8
BLACK
6
CONTINUOUS
10
4.09178
20
-4.27623
11
4.1199
21
-4.27623
0
LINE
8
BLACK
6
CONTINUOUS
10
4.1199
20
-4.27623
11
4.13678
21
-4.28185
0
LINE
8
BLACK
6
CONTINUOUS
10
4.13678
20
-4.28185
11
4.14803
21
-4.2931
0
LINE
8
BLACK
6
CONTINUOUS
10
4.14803
20
-4.2931
11
4.15365
21
-4.30435
0
LINE
8
BLACK
6
CONTINUOUS
10
4.15365
20
-4.30435
11
4.15927
21
-4.32684
0
LINE
8
BLACK
6
CONTINUOUS
10
4.15927
20
-4.32684
11
4.15927
21
-4.34372
0
LINE
8
BLACK
6
CONTINUOUS
10
4.15927
20
-4.34372
11
4.15365
21
-4.36621
0
LINE
8
BLACK
6
CONTINUOUS
10
4.15365
20
-4.36621
11
4.14803
21
-4.37746
0
LINE
8
BLACK
6
CONTINUOUS
10
4.14803
20
-4.37746
11
4.13678
21
-4.38871
0
LINE
8
BLACK
6
CONTINUOUS
10
4.13678
20
-4.38871
11
4.1199
21
-4.39434
0
LINE
8
BLACK
6
CONTINUOUS
10
4.1199
20
-4.39434
11
4.09178
21
-4.39434
0
LINE
8
BLACK
6
CONTINUOUS
10
4.20989
20
-4.39434
11
4.20989
21
-4.3156
0
LINE
8
BLACK
6
CONTINUOUS
10
4.20989
20
-4.33809
11
4.21552
21
-4.32684
0
LINE
8
BLACK
6
CONTINUOUS
10
4.21552
20
-4.32684
11
4.22114
21
-4.32122
0
LINE
8
BLACK
6
CONTINUOUS
10
4.22114
20
-4.32122
11
4.23239
21
-4.3156
0
LINE
8
BLACK
6
CONTINUOUS
10
4.23239
20
-4.3156
11
4.24364
21
-4.3156
0
LINE
8
BLACK
6
CONTINUOUS
10
4.28301
20
-4.39434
11
4.28301
21
-4.3156
0
LINE
8
BLACK
6
CONTINUOUS
10
4.28301
20
-4.27623
11
4.27738
21
-4.28185
0
LINE
8
BLACK
6
CONTINUOUS
10
4.27738
20
-4.28185
11
4.28301
21
-4.28747
0
LINE
8
BLACK
6
CONTINUOUS
10
4.28301
20
-4.28747
11
4.28863
21
-4.28185
0
LINE
8
BLACK
6
CONTINUOUS
10
4.28863
20
-4.28185
11
4.28301
21
-4.27623
0
LINE
8
BLACK
6
CONTINUOUS
10
4.28301
20
-4.27623
11
4.28301
21
-4.28747
0
LINE
8
BLACK
6
CONTINUOUS
10
4.35612
20
-4.39434
11
4.34488
21
-4.38871
0
LINE
8
BLACK
6
CONTINUOUS
10
4.34488
20
-4.38871
11
4.33925
21
-4.37746
0
LINE
8
BLACK
6
CONTINUOUS
10
4.33925
20
-4.37746
11
4.33925
21
-4.27623
0
LINE
8
BLACK
6
CONTINUOUS
10
4.41799
20
-4.39434
11
4.40674
21
-4.38871
0
LINE
8
BLACK
6
CONTINUOUS
10
4.40674
20
-4.38871
11
4.40112
21
-4.37746
0
LINE
8
BLACK
6
CONTINUOUS
10
4.40112
20
-4.37746
11
4.40112
21
-4.27623
0
LINE
8
BLACK
6
CONTINUOUS
10
4.55298
20
-4.39434
11
4.55298
21
-4.27623
0
LINE
8
BLACK
6
CONTINUOUS
10
4.55298
20
-4.27623
11
4.59235
21
-4.36059
0
LINE
8
BLACK
6
CONTINUOUS
10
4.59235
20
-4.36059
11
4.63172
21
-4.27623
0
LINE
8
BLACK
6
CONTINUOUS
10
4.63172
20
-4.27623
11
4.63172
21
-4.39434
0
LINE
8
BLACK
6
CONTINUOUS
10
4.73858
20
-4.39434
11
4.73858
21
-4.33247
0
LINE
8
BLACK
6
CONTINUOUS
10
4.73858
20
-4.33247
11
4.73295
21
-4.32122
0
LINE
8
BLACK
6
CONTINUOUS
10
4.73295
20
-4.32122
11
4.7217
21
-4.3156
0
LINE
8
BLACK
6
CONTINUOUS
10
4.7217
20
-4.3156
11
4.69921
21
-4.3156
0
LINE
8
BLACK
6
CONTINUOUS
10
4.69921
20
-4.3156
11
4.68796
21
-4.32122
0
LINE
8
BLACK
6
CONTINUOUS
10
4.73858
20
-4.38871
11
4.72733
21
-4.39434
0
LINE
8
BLACK
6
CONTINUOUS
10
4.72733
20
-4.39434
11
4.69921
21
-4.39434
0
LINE
8
BLACK
6
CONTINUOUS
10
4.69921
20
-4.39434
11
4.68796
21
-4.38871
0
LINE
8
BLACK
6
CONTINUOUS
10
4.68796
20
-4.38871
11
4.68233
21
-4.37746
0
LINE
8
BLACK
6
CONTINUOUS
10
4.68233
20
-4.37746
11
4.68233
21
-4.36621
0
LINE
8
BLACK
6
CONTINUOUS
10
4.68233
20
-4.36621
11
4.68796
21
-4.35497
0
LINE
8
BLACK
6
CONTINUOUS
10
4.68796
20
-4.35497
11
4.69921
21
-4.34934
0
LINE
8
BLACK
6
CONTINUOUS
10
4.69921
20
-4.34934
11
4.72733
21
-4.34934
0
LINE
8
BLACK
6
CONTINUOUS
10
4.72733
20
-4.34934
11
4.73858
21
-4.34372
0
LINE
8
BLACK
6
CONTINUOUS
10
4.79482
20
-4.3156
11
4.79482
21
-4.43371
0
LINE
8
BLACK
6
CONTINUOUS
10
4.79482
20
-4.32122
11
4.80607
21
-4.3156
0
LINE
8
BLACK
6
CONTINUOUS
10
4.80607
20
-4.3156
11
4.82857
21
-4.3156
0
LINE
8
BLACK
6
CONTINUOUS
10
4.82857
20
-4.3156
11
4.83981
21
-4.32122
0
LINE
8
BLACK
6
CONTINUOUS
10
4.83981
20
-4.32122
11
4.84544
21
-4.32684
0
LINE
8
BLACK
6
CONTINUOUS
10
4.84544
20
-4.32684
11
4.85106
21
-4.33809
0
LINE
8
BLACK
6
CONTINUOUS
10
4.85106
20
-4.33809
11
4.85106
21
-4.37184
0
LINE
8
BLACK
6
CONTINUOUS
10
4.85106
20
-4.37184
11
4.84544
21
-4.38309
0
LINE
8
BLACK
6
CONTINUOUS
10
4.84544
20
-4.38309
11
4.83981
21
-4.38871
0
LINE
8
BLACK
6
CONTINUOUS
10
4.83981
20
-4.38871
11
4.82857
21
-4.39434
0
LINE
8
BLACK
6
CONTINUOUS
10
4.82857
20
-4.39434
11
4.80607
21
-4.39434
0
LINE
8
BLACK
6
CONTINUOUS
10
4.80607
20
-4.39434
11
4.79482
21
-4.38871
0
LINE
8
BLACK
6
CONTINUOUS
10
4.90168
20
-4.38309
11
4.90731
21
-4.38871
0
LINE
8
BLACK
6
CONTINUOUS
10
4.90731
20
-4.38871
11
4.90168
21
-4.39434
0
LINE
8
BLACK
6
CONTINUOUS
10
4.90168
20
-4.39434
11
4.89606
21
-4.38871
0
LINE
8
BLACK
6
CONTINUOUS
10
4.89606
20
-4.38871
11
4.90168
21
-4.38309
0
LINE
8
BLACK
6
CONTINUOUS
10
4.90168
20
-4.38309
11
4.90168
21
-4.39434
0
LINE
8
BLACK
6
CONTINUOUS
10
4.90168
20
-4.32122
11
4.90731
21
-4.32684
0
LINE
8
BLACK
6
CONTINUOUS
10
4.90731
20
-4.32684
11
4.90168
21
-4.33247
0
LINE
8
BLACK
6
CONTINUOUS
10
4.90168
20
-4.33247
11
4.89606
21
-4.32684
0
LINE
8
BLACK
6
CONTINUOUS
10
4.89606
20
-4.32684
11
4.90168
21
-4.32122
0
LINE
8
BLACK
6
CONTINUOUS
10
4.90168
20
-4.32122
11
4.90168
21
-4.33247
0
LINE
8
BLACK
6
CONTINUOUS
10
3.85303
20
-4.52594
11
3.97902
21
-4.65193
0
LINE
8
BLACK
6
CONTINUOUS
10
3.97902
20
-4.52594
11
3.85303
21
-4.65193
0
LINE
8
BLACK
6
CONTINUOUS
10
4.08053
20
-4.52426
11
4.15365
21
-4.52426
0
LINE
8
BLACK
6
CONTINUOUS
10
4.15365
20
-4.52426
11
4.11428
21
-4.56925
0
LINE
8
BLACK
6
CONTINUOUS
10
4.11428
20
-4.56925
11
4.13115
21
-4.56925
0
LINE
8
BLACK
6
CONTINUOUS
10
4.13115
20
-4.56925
11
4.1424
21
-4.57488
0
LINE
8
BLACK
6
CONTINUOUS
10
4.1424
20
-4.57488
11
4.14803
21
-4.5805
0
LINE
8
BLACK
6
CONTINUOUS
10
4.14803
20
-4.5805
11
4.15365
21
-4.59175
0
LINE
8
BLACK
6
CONTINUOUS
10
4.15365
20
-4.59175
11
4.15365
21
-4.61987
0
LINE
8
BLACK
6
CONTINUOUS
10
4.15365
20
-4.61987
11
4.14803
21
-4.63112
0
LINE
8
BLACK
6
CONTINUOUS
10
4.14803
20
-4.63112
11
4.1424
21
-4.63674
0
LINE
8
BLACK
6
CONTINUOUS
10
4.1424
20
-4.63674
11
4.13115
21
-4.64237
0
LINE
8
BLACK
6
CONTINUOUS
10
4.13115
20
-4.64237
11
4.09741
21
-4.64237
0
LINE
8
BLACK
6
CONTINUOUS
10
4.09741
20
-4.64237
11
4.08616
21
-4.63674
0
LINE
8
BLACK
6
CONTINUOUS
10
4.08616
20
-4.63674
11
4.08053
21
-4.63112
0
LINE
8
BLACK
6
CONTINUOUS
10
4.20427
20
-4.63112
11
4.20989
21
-4.63674
0
LINE
8
BLACK
6
CONTINUOUS
10
4.20989
20
-4.63674
11
4.20427
21
-4.64237
0
LINE
8
BLACK
6
CONTINUOUS
10
4.20427
20
-4.64237
11
4.19864
21
-4.63674
0
LINE
8
BLACK
6
CONTINUOUS
10
4.19864
20
-4.63674
11
4.20427
21
-4.63112
0
LINE
8
BLACK
6
CONTINUOUS
10
4.20427
20
-4.63112
11
4.20427
21
-4.64237
0
LINE
8
BLACK
6
CONTINUOUS
10
4.25489
20
-4.53551
11
4.26051
21
-4.52988
0
LINE
8
BLACK
6
CONTINUOUS
10
4.26051
20
-4.52988
11
4.27176
21
-4.52426
0
LINE
8
BLACK
6
CONTINUOUS
10
4.27176
20
-4.52426
11
4.29988
21
-4.52426
0
LINE
8
BLACK
6
CONTINUOUS
10
4.29988
20
-4.52426
11
4.31113
21
-4.52988
0
LINE
8
BLACK
6
CONTINUOUS
10
4.31113
20
-4.52988
11
4.31675
21
-4.53551
0
LINE
8
BLACK
6
CONTINUOUS
10
4.31675
20
-4.53551
11
4.32238
21
-4.54675
0
LINE
8
BLACK
6
CONTINUOUS
10
4.32238
20
-4.54675
11
4.32238
21
-4.558
0
LINE
8
BLACK
6
CONTINUOUS
10
4.32238
20
-4.558
11
4.31675
21
-4.57488
0
LINE
8
BLACK
6
CONTINUOUS
10
4.31675
20
-4.57488
11
4.24926
21
-4.64237
0
LINE
8
BLACK
6
CONTINUOUS
10
4.24926
20
-4.64237
11
4.32238
21
-4.64237
0
LINE
8
BLACK
6
CONTINUOUS
10
4.39549
20
-4.52426
11
4.40674
21
-4.52426
0
LINE
8
BLACK
6
CONTINUOUS
10
4.40674
20
-4.52426
11
4.41799
21
-4.52988
0
LINE
8
BLACK
6
CONTINUOUS
10
4.41799
20
-4.52988
11
4.42362
21
-4.53551
0
LINE
8
BLACK
6
CONTINUOUS
10
4.42362
20
-4.53551
11
4.42924
21
-4.54675
0
LINE
8
BLACK
6
CONTINUOUS
10
4.42924
20
-4.54675
11
4.43486
21
-4.56925
0
LINE
8
BLACK
6
CONTINUOUS
10
4.43486
20
-4.56925
11
4.43486
21
-4.59737
0
LINE
8
BLACK
6
CONTINUOUS
10
4.43486
20
-4.59737
11
4.42924
21
-4.61987
0
LINE
8
BLACK
6
CONTINUOUS
10
4.42924
20
-4.61987
11
4.42362
21
-4.63112
0
LINE
8
BLACK
6
CONTINUOUS
10
4.42362
20
-4.63112
11
4.41799
21
-4.63674
0
LINE
8
BLACK
6
CONTINUOUS
10
4.41799
20
-4.63674
11
4.40674
21
-4.64237
0
LINE
8
BLACK
6
CONTINUOUS
10
4.40674
20
-4.64237
11
4.39549
21
-4.64237
0
LINE
8
BLACK
6
CONTINUOUS
10
4.39549
20
-4.64237
11
4.38425
21
-4.63674
0
LINE
8
BLACK
6
CONTINUOUS
10
4.38425
20
-4.63674
11
4.37862
21
-4.63112
0
LINE
8
BLACK
6
CONTINUOUS
10
4.37862
20
-4.63112
11
4.373
21
-4.61987
0
LINE
8
BLACK
6
CONTINUOUS
10
4.373
20
-4.61987
11
4.36737
21
-4.59737
0
LINE
8
BLACK
6
CONTINUOUS
10
4.36737
20
-4.59737
11
4.36737
21
-4.56925
0
LINE
8
BLACK
6
CONTINUOUS
10
4.36737
20
-4.56925
11
4.373
21
-4.54675
0
LINE
8
BLACK
6
CONTINUOUS
10
4.373
20
-4.54675
11
4.37862
21
-4.53551
0
LINE
8
BLACK
6
CONTINUOUS
10
4.37862
20
-4.53551
11
4.38425
21
-4.52988
0
LINE
8
BLACK
6
CONTINUOUS
10
4.38425
20
-4.52988
11
4.39549
21
-4.52426
0
LINE
8
BLACK
6
CONTINUOUS
10
4.48548
20
-4.64237
11
4.48548
21
-4.56363
0
LINE
8
BLACK
6
CONTINUOUS
10
4.48548
20
-4.57488
11
4.49111
21
-4.56925
0
LINE
8
BLACK
6
CONTINUOUS
10
4.49111
20
-4.56925
11
4.50236
21
-4.56363
0
LINE
8
BLACK
6
CONTINUOUS
10
4.50236
20
-4.56363
11
4.51923
21
-4.56363
0
LINE
8
BLACK
6
CONTINUOUS
10
4.51923
20
-4.56363
11
4.53048
21
-4.56925
0
LINE
8
BLACK
6
CONTINUOUS
10
4.53048
20
-4.56925
11
4.5361
21
-4.5805
0
LINE
8
BLACK
6
CONTINUOUS
10
4.5361
20
-4.5805
11
4.5361
21
-4.64237
0
LINE
8
BLACK
6
CONTINUOUS
10
4.5361
20
-4.5805
11
4.54173
21
-4.56925
0
LINE
8
BLACK
6
CONTINUOUS
10
4.54173
20
-4.56925
11
4.55298
21
-4.56363
0
LINE
8
BLACK
6
CONTINUOUS
10
4.55298
20
-4.56363
11
4.56985
21
-4.56363
0
LINE
8
BLACK
6
CONTINUOUS
10
4.56985
20
-4.56363
11
4.5811
21
-4.56925
0
LINE
8
BLACK
6
CONTINUOUS
10
4.5811
20
-4.56925
11
4.58672
21
-4.5805
0
LINE
8
BLACK
6
CONTINUOUS
10
4.58672
20
-4.5805
11
4.58672
21
-4.64237
0
LINE
8
BLACK
6
CONTINUOUS
10
4.64296
20
-4.64237
11
4.64296
21
-4.56363
0
LINE
8
BLACK
6
CONTINUOUS
10
4.64296
20
-4.57488
11
4.64859
21
-4.56925
0
LINE
8
BLACK
6
CONTINUOUS
10
4.64859
20
-4.56925
11
4.65984
21
-4.56363
0
LINE
8
BLACK
6
CONTINUOUS
10
4.65984
20
-4.56363
11
4.67671
21
-4.56363
0
LINE
8
BLACK
6
CONTINUOUS
10
4.67671
20
-4.56363
11
4.68796
21
-4.56925
0
LINE
8
BLACK
6
CONTINUOUS
10
4.68796
20
-4.56925
11
4.69358
21
-4.5805
0
LINE
8
BLACK
6
CONTINUOUS
10
4.69358
20
-4.5805
11
4.69358
21
-4.64237
0
LINE
8
BLACK
6
CONTINUOUS
10
4.69358
20
-4.5805
11
4.69921
21
-4.56925
0
LINE
8
BLACK
6
CONTINUOUS
10
4.69921
20
-4.56925
11
4.71046
21
-4.56363
0
LINE
8
BLACK
6
CONTINUOUS
10
4.71046
20
-4.56363
11
4.72733
21
-4.56363
0
LINE
8
BLACK
6
CONTINUOUS
10
4.72733
20
-4.56363
11
4.73858
21
-4.56925
0
LINE
8
BLACK
6
CONTINUOUS
10
4.73858
20
-4.56925
11
4.7442
21
-4.5805
0
LINE
8
BLACK
6
CONTINUOUS
10
4.7442
20
-4.5805
11
4.7442
21
-4.64237
0
LINE
8
BLACK
6
CONTINUOUS
10
4.9748
20
-4.51863
11
4.87356
21
-4.67049
0
LINE
8
BLACK
6
CONTINUOUS
10
5.12665
20
-4.52426
11
5.1379
21
-4.52426
0
LINE
8
BLACK
6
CONTINUOUS
10
5.1379
20
-4.52426
11
5.14915
21
-4.52988
0
LINE
8
BLACK
6
CONTINUOUS
10
5.14915
20
-4.52988
11
5.15477
21
-4.53551
0
LINE
8
BLACK
6
CONTINUOUS
10
5.15477
20
-4.53551
11
5.1604
21
-4.54675
0
LINE
8
BLACK
6
CONTINUOUS
10
5.1604
20
-4.54675
11
5.16602
21
-4.56925
0
LINE
8
BLACK
6
CONTINUOUS
10
5.16602
20
-4.56925
11
5.16602
21
-4.59737
0
LINE
8
BLACK
6
CONTINUOUS
10
5.16602
20
-4.59737
11
5.1604
21
-4.61987
0
LINE
8
BLACK
6
CONTINUOUS
10
5.1604
20
-4.61987
11
5.15477
21
-4.63112
0
LINE
8
BLACK
6
CONTINUOUS
10
5.15477
20
-4.63112
11
5.14915
21
-4.63674
0
LINE
8
BLACK
6
CONTINUOUS
10
5.14915
20
-4.63674
11
5.1379
21
-4.64237
0
LINE
8
BLACK
6
CONTINUOUS
10
5.1379
20
-4.64237
11
5.12665
21
-4.64237
0
LINE
8
BLACK
6
CONTINUOUS
10
5.12665
20
-4.64237
11
5.1154
21
-4.63674
0
LINE
8
BLACK
6
CONTINUOUS
10
5.1154
20
-4.63674
11
5.10978
21
-4.63112
0
LINE
8
BLACK
6
CONTINUOUS
10
5.10978
20
-4.63112
11
5.10416
21
-4.61987
0
LINE
8
BLACK
6
CONTINUOUS
10
5.10416
20
-4.61987
11
5.09853
21
-4.59737
0
LINE
8
BLACK
6
CONTINUOUS
10
5.09853
20
-4.59737
11
5.09853
21
-4.56925
0
LINE
8
BLACK
6
CONTINUOUS
10
5.09853
20
-4.56925
11
5.10416
21
-4.54675
0
LINE
8
BLACK
6
CONTINUOUS
10
5.10416
20
-4.54675
11
5.10978
21
-4.53551
0
LINE
8
BLACK
6
CONTINUOUS
10
5.10978
20
-4.53551
11
5.1154
21
-4.52988
0
LINE
8
BLACK
6
CONTINUOUS
10
5.1154
20
-4.52988
11
5.12665
21
-4.52426
0
LINE
8
BLACK
6
CONTINUOUS
10
5.21664
20
-4.63112
11
5.22227
21
-4.63674
0
LINE
8
BLACK
6
CONTINUOUS
10
5.22227
20
-4.63674
11
5.21664
21
-4.64237
0
LINE
8
BLACK
6
CONTINUOUS
10
5.21664
20
-4.64237
11
5.21102
21
-4.63674
0
LINE
8
BLACK
6
CONTINUOUS
10
5.21102
20
-4.63674
11
5.21664
21
-4.63112
0
LINE
8
BLACK
6
CONTINUOUS
10
5.21664
20
-4.63112
11
5.21664
21
-4.64237
0
LINE
8
BLACK
6
CONTINUOUS
10
5.33475
20
-4.64237
11
5.26726
21
-4.64237
0
LINE
8
BLACK
6
CONTINUOUS
10
5.30101
20
-4.64237
11
5.30101
21
-4.52426
0
LINE
8
BLACK
6
CONTINUOUS
10
5.30101
20
-4.52426
11
5.28976
21
-4.54113
0
LINE
8
BLACK
6
CONTINUOUS
10
5.28976
20
-4.54113
11
5.27851
21
-4.55238
0
LINE
8
BLACK
6
CONTINUOUS
10
5.27851
20
-4.55238
11
5.26726
21
-4.558
0
LINE
8
BLACK
6
CONTINUOUS
10
5.37975
20
-4.53551
11
5.38537
21
-4.52988
0
LINE
8
BLACK
6
CONTINUOUS
10
5.38537
20
-4.52988
11
5.39662
21
-4.52426
0
LINE
8
BLACK
6
CONTINUOUS
10
5.39662
20
-4.52426
11
5.42474
21
-4.52426
0
LINE
8
BLACK
6
CONTINUOUS
10
5.42474
20
-4.52426
11
5.43599
21
-4.52988
0
LINE
8
BLACK
6
CONTINUOUS
10
5.43599
20
-4.52988
11
5.44161
21
-4.53551
0
LINE
8
BLACK
6
CONTINUOUS
10
5.44161
20
-4.53551
11
5.44724
21
-4.54675
0
LINE
8
BLACK
6
CONTINUOUS
10
5.44724
20
-4.54675
11
5.44724
21
-4.558
0
LINE
8
BLACK
6
CONTINUOUS
10
5.44724
20
-4.558
11
5.44161
21
-4.57488
0
LINE
8
BLACK
6
CONTINUOUS
10
5.44161
20
-4.57488
11
5.37412
21
-4.64237
0
LINE
8
BLACK
6
CONTINUOUS
10
5.37412
20
-4.64237
11
5.44724
21
-4.64237
0
LINE
8
BLACK
6
CONTINUOUS
10
5.54848
20
-4.52426
11
5.52598
21
-4.52426
0
LINE
8
BLACK
6
CONTINUOUS
10
5.52598
20
-4.52426
11
5.51473
21
-4.52988
0
LINE
8
BLACK
6
CONTINUOUS
10
5.51473
20
-4.52988
11
5.50911
21
-4.53551
0
LINE
8
BLACK
6
CONTINUOUS
10
5.50911
20
-4.53551
11
5.49786
21
-4.55238
0
LINE
8
BLACK
6
CONTINUOUS
10
5.49786
20
-4.55238
11
5.49223
21
-4.57488
0
LINE
8
BLACK
6
CONTINUOUS
10
5.49223
20
-4.57488
11
5.49223
21
-4.61987
0
LINE
8
BLACK
6
CONTINUOUS
10
5.49223
20
-4.61987
11
5.49786
21
-4.63112
0
LINE
8
BLACK
6
CONTINUOUS
10
5.49786
20
-4.63112
11
5.50348
21
-4.63674
0
LINE
8
BLACK
6
CONTINUOUS
10
5.50348
20
-4.63674
11
5.51473
21
-4.64237
0
LINE
8
BLACK
6
CONTINUOUS
10
5.51473
20
-4.64237
11
5.53723
21
-4.64237
0
LINE
8
BLACK
6
CONTINUOUS
10
5.53723
20
-4.64237
11
5.54848
21
-4.63674
0
LINE
8
BLACK
6
CONTINUOUS
10
5.54848
20
-4.63674
11
5.5541
21
-4.63112
0
LINE
8
BLACK
6
CONTINUOUS
10
5.5541
20
-4.63112
11
5.55972
21
-4.61987
0
LINE
8
BLACK
6
CONTINUOUS
10
5.55972
20
-4.61987
11
5.55972
21
-4.59175
0
LINE
8
BLACK
6
CONTINUOUS
10
5.55972
20
-4.59175
11
5.5541
21
-4.5805
0
LINE
8
BLACK
6
CONTINUOUS
10
5.5541
20
-4.5805
11
5.54848
21
-4.57488
0
LINE
8
BLACK
6
CONTINUOUS
10
5.54848
20
-4.57488
11
5.53723
21
-4.56925
0
LINE
8
BLACK
6
CONTINUOUS
10
5.53723
20
-4.56925
11
5.51473
21
-4.56925
0
LINE
8
BLACK
6
CONTINUOUS
10
5.51473
20
-4.56925
11
5.50348
21
-4.57488
0
LINE
8
BLACK
6
CONTINUOUS
10
5.50348
20
-4.57488
11
5.49786
21
-4.5805
0
LINE
8
BLACK
6
CONTINUOUS
10
5.49786
20
-4.5805
11
5.49223
21
-4.59175
0
LINE
8
BLACK
6
CONTINUOUS
10
5.60472
20
-4.52426
11
5.60472
21
-4.54675
0
LINE
8
BLACK
6
CONTINUOUS
10
5.64971
20
-4.52426
11
5.64971
21
-4.54675
0
LINE
8
BLACK
6
CONTINUOUS
10
5.82407
20
-4.68736
11
5.81844
21
-4.68174
0
LINE
8
BLACK
6
CONTINUOUS
10
5.81844
20
-4.68174
11
5.80719
21
-4.66487
0
LINE
8
BLACK
6
CONTINUOUS
10
5.80719
20
-4.66487
11
5.80157
21
-4.65362
0
LINE
8
BLACK
6
CONTINUOUS
10
5.80157
20
-4.65362
11
5.79594
21
-4.63674
0
LINE
8
BLACK
6
CONTINUOUS
10
5.79594
20
-4.63674
11
5.79032
21
-4.60862
0
LINE
8
BLACK
6
CONTINUOUS
10
5.79032
20
-4.60862
11
5.79032
21
-4.58612
0
LINE
8
BLACK
6
CONTINUOUS
10
5.79032
20
-4.58612
11
5.79594
21
-4.558
0
LINE
8
BLACK
6
CONTINUOUS
10
5.79594
20
-4.558
11
5.80157
21
-4.54113
0
LINE
8
BLACK
6
CONTINUOUS
10
5.80157
20
-4.54113
11
5.80719
21
-4.52988
0
LINE
8
BLACK
6
CONTINUOUS
10
5.80719
20
-4.52988
11
5.81844
21
-4.51301
0
LINE
8
BLACK
6
CONTINUOUS
10
5.81844
20
-4.51301
11
5.82407
21
-4.50738
0
LINE
8
BLACK
6
CONTINUOUS
10
5.91968
20
-4.56363
11
5.91968
21
-4.64237
0
LINE
8
BLACK
6
CONTINUOUS
10
5.89156
20
-4.51863
11
5.86344
21
-4.603
0
LINE
8
BLACK
6
CONTINUOUS
10
5.86344
20
-4.603
11
5.93655
21
-4.603
0
LINE
8
BLACK
6
CONTINUOUS
10
6.07154
20
-4.64237
11
6.07154
21
-4.52426
0
LINE
8
BLACK
6
CONTINUOUS
10
6.12215
20
-4.64237
11
6.12215
21
-4.5805
0
LINE
8
BLACK
6
CONTINUOUS
10
6.12215
20
-4.5805
11
6.11653
21
-4.56925
0
LINE
8
BLACK
6
CONTINUOUS
10
6.11653
20
-4.56925
11
6.10528
21
-4.56363
0
LINE
8
BLACK
6
CONTINUOUS
10
6.10528
20
-4.56363
11
6.08841
21
-4.56363
0
LINE
8
BLACK
6
CONTINUOUS
10
6.08841
20
-4.56363
11
6.07716
21
-4.56925
0
LINE
8
BLACK
6
CONTINUOUS
10
6.07716
20
-4.56925
11
6.07154
21
-4.57488
0
LINE
8
BLACK
6
CONTINUOUS
10
6.19527
20
-4.64237
11
6.18402
21
-4.63674
0
LINE
8
BLACK
6
CONTINUOUS
10
6.18402
20
-4.63674
11
6.1784
21
-4.63112
0
LINE
8
BLACK
6
CONTINUOUS
10
6.1784
20
-4.63112
11
6.17277
21
-4.61987
0
LINE
8
BLACK
6
CONTINUOUS
10
6.17277
20
-4.61987
11
6.17277
21
-4.58612
0
LINE
8
BLACK
6
CONTINUOUS
10
6.17277
20
-4.58612
11
6.1784
21
-4.57488
0
LINE
8
BLACK
6
CONTINUOUS
10
6.1784
20
-4.57488
11
6.18402
21
-4.56925
0
LINE
8
BLACK
6
CONTINUOUS
10
6.18402
20
-4.56925
11
6.19527
21
-4.56363
0
LINE
8
BLACK
6
CONTINUOUS
10
6.19527
20
-4.56363
11
6.21214
21
-4.56363
0
LINE
8
BLACK
6
CONTINUOUS
10
6.21214
20
-4.56363
11
6.22339
21
-4.56925
0
LINE
8
BLACK
6
CONTINUOUS
10
6.22339
20
-4.56925
11
6.22902
21
-4.57488
0
LINE
8
BLACK
6
CONTINUOUS
10
6.22902
20
-4.57488
11
6.23464
21
-4.58612
0
LINE
8
BLACK
6
CONTINUOUS
10
6.23464
20
-4.58612
11
6.23464
21
-4.61987
0
LINE
8
BLACK
6
CONTINUOUS
10
6.23464
20
-4.61987
11
6.22902
21
-4.63112
0
LINE
8
BLACK
6
CONTINUOUS
10
6.22902
20
-4.63112
11
6.22339
21
-4.63674
0
LINE
8
BLACK
6
CONTINUOUS
10
6.22339
20
-4.63674
11
6.21214
21
-4.64237
0
LINE
8
BLACK
6
CONTINUOUS
10
6.21214
20
-4.64237
11
6.19527
21
-4.64237
0
LINE
8
BLACK
6
CONTINUOUS
10
6.30213
20
-4.64237
11
6.29088
21
-4.63674
0
LINE
8
BLACK
6
CONTINUOUS
10
6.29088
20
-4.63674
11
6.28526
21
-4.62549
0
LINE
8
BLACK
6
CONTINUOUS
10
6.28526
20
-4.62549
11
6.28526
21
-4.52426
0
LINE
8
BLACK
6
CONTINUOUS
10
6.39212
20
-4.63674
11
6.38087
21
-4.64237
0
LINE
8
BLACK
6
CONTINUOUS
10
6.38087
20
-4.64237
11
6.35837
21
-4.64237
0
LINE
8
BLACK
6
CONTINUOUS
10
6.35837
20
-4.64237
11
6.34713
21
-4.63674
0
LINE
8
BLACK
6
CONTINUOUS
10
6.34713
20
-4.63674
11
6.3415
21
-4.62549
0
LINE
8
BLACK
6
CONTINUOUS
10
6.3415
20
-4.62549
11
6.3415
21
-4.5805
0
LINE
8
BLACK
6
CONTINUOUS
10
6.3415
20
-4.5805
11
6.34713
21
-4.56925
0
LINE
8
BLACK
6
CONTINUOUS
10
6.34713
20
-4.56925
11
6.35837
21
-4.56363
0
LINE
8
BLACK
6
CONTINUOUS
10
6.35837
20
-4.56363
11
6.38087
21
-4.56363
0
LINE
8
BLACK
6
CONTINUOUS
10
6.38087
20
-4.56363
11
6.39212
21
-4.56925
0
LINE
8
BLACK
6
CONTINUOUS
10
6.39212
20
-4.56925
11
6.39774
21
-4.5805
0
LINE
8
BLACK
6
CONTINUOUS
10
6.39774
20
-4.5805
11
6.39774
21
-4.59175
0
LINE
8
BLACK
6
CONTINUOUS
10
6.39774
20
-4.59175
11
6.3415
21
-4.603
0
LINE
8
BLACK
6
CONTINUOUS
10
6.44274
20
-4.63674
11
6.45399
21
-4.64237
0
LINE
8
BLACK
6
CONTINUOUS
10
6.45399
20
-4.64237
11
6.47648
21
-4.64237
0
LINE
8
BLACK
6
CONTINUOUS
10
6.47648
20
-4.64237
11
6.48773
21
-4.63674
0
LINE
8
BLACK
6
CONTINUOUS
10
6.48773
20
-4.63674
11
6.49336
21
-4.62549
0
LINE
8
BLACK
6
CONTINUOUS
10
6.49336
20
-4.62549
11
6.49336
21
-4.61987
0
LINE
8
BLACK
6
CONTINUOUS
10
6.49336
20
-4.61987
11
6.48773
21
-4.60862
0
LINE
8
BLACK
6
CONTINUOUS
10
6.48773
20
-4.60862
11
6.47648
21
-4.603
0
LINE
8
BLACK
6
CONTINUOUS
10
6.47648
20
-4.603
11
6.45961
21
-4.603
0
LINE
8
BLACK
6
CONTINUOUS
10
6.45961
20
-4.603
11
6.44836
21
-4.59737
0
LINE
8
BLACK
6
CONTINUOUS
10
6.44836
20
-4.59737
11
6.44274
21
-4.58612
0
LINE
8
BLACK
6
CONTINUOUS
10
6.44274
20
-4.58612
11
6.44274
21
-4.5805
0
LINE
8
BLACK
6
CONTINUOUS
10
6.44274
20
-4.5805
11
6.44836
21
-4.56925
0
LINE
8
BLACK
6
CONTINUOUS
10
6.44836
20
-4.56925
11
6.45961
21
-4.56363
0
LINE
8
BLACK
6
CONTINUOUS
10
6.45961
20
-4.56363
11
6.47648
21
-4.56363
0
LINE
8
BLACK
6
CONTINUOUS
10
6.47648
20
-4.56363
11
6.48773
21
-4.56925
0
LINE
8
BLACK
6
CONTINUOUS
10
6.53273
20
-4.68736
11
6.53835
21
-4.68174
0
LINE
8
BLACK
6
CONTINUOUS
10
6.53835
20
-4.68174
11
6.5496
21
-4.66487
0
LINE
8
BLACK
6
CONTINUOUS
10
6.5496
20
-4.66487
11
6.55522
21
-4.65362
0
LINE
8
BLACK
6
CONTINUOUS
10
6.55522
20
-4.65362
11
6.56085
21
-4.63674
0
LINE
8
BLACK
6
CONTINUOUS
10
6.56085
20
-4.63674
11
6.56647
21
-4.60862
0
LINE
8
BLACK
6
CONTINUOUS
10
6.56647
20
-4.60862
11
6.56647
21
-4.58612
0
LINE
8
BLACK
6
CONTINUOUS
10
6.56647
20
-4.58612
11
6.56085
21
-4.558
0
LINE
8
BLACK
6
CONTINUOUS
10
6.56085
20
-4.558
11
6.55522
21
-4.54113
0
LINE
8
BLACK
6
CONTINUOUS
10
6.55522
20
-4.54113
11
6.5496
21
-4.52988
0
LINE
8
BLACK
6
CONTINUOUS
10
6.5496
20
-4.52988
11
6.53835
21
-4.51301
0
LINE
8
BLACK
6
CONTINUOUS
10
6.53835
20
-4.51301
11
6.53273
21
-4.50738
0
LINE
8
BLACK
6
CONTINUOUS
10
6.74645
20
-4.68736
11
6.74083
21
-4.68174
0
LINE
8
BLACK
6
CONTINUOUS
10
6.74083
20
-4.68174
11
6.72958
21
-4.66487
0
LINE
8
BLACK
6
CONTINUOUS
10
6.72958
20
-4.66487
11
6.72395
21
-4.65362
0
LINE
8
BLACK
6
CONTINUOUS
10
6.72395
20
-4.65362
11
6.71833
21
-4.63674
0
LINE
8
BLACK
6
CONTINUOUS
10
6.71833
20
-4.63674
11
6.71271
21
-4.60862
0
LINE
8
BLACK
6
CONTINUOUS
10
6.71271
20
-4.60862
11
6.71271
21
-4.58612
0
LINE
8
BLACK
6
CONTINUOUS
10
6.71271
20
-4.58612
11
6.71833
21
-4.558
0
LINE
8
BLACK
6
CONTINUOUS
10
6.71833
20
-4.558
11
6.72395
21
-4.54113
0
LINE
8
BLACK
6
CONTINUOUS
10
6.72395
20
-4.54113
11
6.72958
21
-4.52988
0
LINE
8
BLACK
6
CONTINUOUS
10
6.72958
20
-4.52988
11
6.74083
21
-4.51301
0
LINE
8
BLACK
6
CONTINUOUS
10
6.74083
20
-4.51301
11
6.74645
21
-4.50738
0
LINE
8
BLACK
6
CONTINUOUS
10
6.79145
20
-4.56363
11
6.79145
21
-4.64237
0
LINE
8
BLACK
6
CONTINUOUS
10
6.79145
20
-4.57488
11
6.79707
21
-4.56925
0
LINE
8
BLACK
6
CONTINUOUS
10
6.79707
20
-4.56925
11
6.80832
21
-4.56363
0
LINE
8
BLACK
6
CONTINUOUS
10
6.80832
20
-4.56363
11
6.82519
21
-4.56363
0
LINE
8
BLACK
6
CONTINUOUS
10
6.82519
20
-4.56363
11
6.83644
21
-4.56925
0
LINE
8
BLACK
6
CONTINUOUS
10
6.83644
20
-4.56925
11
6.84206
21
-4.5805
0
LINE
8
BLACK
6
CONTINUOUS
10
6.84206
20
-4.5805
11
6.84206
21
-4.64237
0
LINE
8
BLACK
6
CONTINUOUS
10
6.91518
20
-4.64237
11
6.90393
21
-4.63674
0
LINE
8
BLACK
6
CONTINUOUS
10
6.90393
20
-4.63674
11
6.89831
21
-4.63112
0
LINE
8
BLACK
6
CONTINUOUS
10
6.89831
20
-4.63112
11
6.89268
21
-4.61987
0
LINE
8
BLACK
6
CONTINUOUS
10
6.89268
20
-4.61987
11
6.89268
21
-4.58612
0
LINE
8
BLACK
6
CONTINUOUS
10
6.89268
20
-4.58612
11
6.89831
21
-4.57488
0
LINE
8
BLACK
6
CONTINUOUS
10
6.89831
20
-4.57488
11
6.90393
21
-4.56925
0
LINE
8
BLACK
6
CONTINUOUS
10
6.90393
20
-4.56925
11
6.91518
21
-4.56363
0
LINE
8
BLACK
6
CONTINUOUS
10
6.91518
20
-4.56363
11
6.93205
21
-4.56363
0
LINE
8
BLACK
6
CONTINUOUS
10
6.93205
20
-4.56363
11
6.9433
21
-4.56925
0
LINE
8
BLACK
6
CONTINUOUS
10
6.9433
20
-4.56925
11
6.94893
21
-4.57488
0
LINE
8
BLACK
6
CONTINUOUS
10
6.94893
20
-4.57488
11
6.95455
21
-4.58612
0
LINE
8
BLACK
6
CONTINUOUS
10
6.95455
20
-4.58612
11
6.95455
21
-4.61987
0
LINE
8
BLACK
6
CONTINUOUS
10
6.95455
20
-4.61987
11
6.94893
21
-4.63112
0
LINE
8
BLACK
6
CONTINUOUS
10
6.94893
20
-4.63112
11
6.9433
21
-4.63674
0
LINE
8
BLACK
6
CONTINUOUS
10
6.9433
20
-4.63674
11
6.93205
21
-4.64237
0
LINE
8
BLACK
6
CONTINUOUS
10
6.93205
20
-4.64237
11
6.91518
21
-4.64237
0
LINE
8
BLACK
6
CONTINUOUS
10
6.9883
20
-4.56363
11
7.03329
21
-4.56363
0
LINE
8
BLACK
6
CONTINUOUS
10
7.00517
20
-4.52426
11
7.00517
21
-4.62549
0
LINE
8
BLACK
6
CONTINUOUS
10
7.00517
20
-4.62549
11
7.01079
21
-4.63674
0
LINE
8
BLACK
6
CONTINUOUS
10
7.01079
20
-4.63674
11
7.02204
21
-4.64237
0
LINE
8
BLACK
6
CONTINUOUS
10
7.02204
20
-4.64237
11
7.03329
21
-4.64237
0
LINE
8
BLACK
6
CONTINUOUS
10
7.16265
20
-4.56363
11
7.16265
21
-4.68174
0
LINE
8
BLACK
6
CONTINUOUS
10
7.16265
20
-4.56925
11
7.1739
21
-4.56363
0
LINE
8
BLACK
6
CONTINUOUS
10
7.1739
20
-4.56363
11
7.19639
21
-4.56363
0
LINE
8
BLACK
6
CONTINUOUS
10
7.19639
20
-4.56363
11
7.20764
21
-4.56925
0
LINE
8
BLACK
6
CONTINUOUS
10
7.20764
20
-4.56925
11
7.21327
21
-4.57488
0
LINE
8
BLACK
6
CONTINUOUS
10
7.21327
20
-4.57488
11
7.21889
21
-4.58612
0
LINE
8
BLACK
6
CONTINUOUS
10
7.21889
20
-4.58612
11
7.21889
21
-4.61987
0
LINE
8
BLACK
6
CONTINUOUS
10
7.21889
20
-4.61987
11
7.21327
21
-4.63112
0
LINE
8
BLACK
6
CONTINUOUS
10
7.21327
20
-4.63112
11
7.20764
21
-4.63674
0
LINE
8
BLACK
6
CONTINUOUS
10
7.20764
20
-4.63674
11
7.19639
21
-4.64237
0
LINE
8
BLACK
6
CONTINUOUS
10
7.19639
20
-4.64237
11
7.1739
21
-4.64237
0
LINE
8
BLACK
6
CONTINUOUS
10
7.1739
20
-4.64237
11
7.16265
21
-4.63674
0
LINE
8
BLACK
6
CONTINUOUS
10
7.28638
20
-4.64237
11
7.27513
21
-4.63674
0
LINE
8
BLACK
6
CONTINUOUS
10
7.27513
20
-4.63674
11
7.26951
21
-4.62549
0
LINE
8
BLACK
6
CONTINUOUS
10
7.26951
20
-4.62549
11
7.26951
21
-4.52426
0
LINE
8
BLACK
6
CONTINUOUS
10
7.382
20
-4.64237
11
7.382
21
-4.5805
0
LINE
8
BLACK
6
CONTINUOUS
10
7.382
20
-4.5805
11
7.37637
21
-4.56925
0
LINE
8
BLACK
6
CONTINUOUS
10
7.37637
20
-4.56925
11
7.36512
21
-4.56363
0
LINE
8
BLACK
6
CONTINUOUS
10
7.36512
20
-4.56363
11
7.34263
21
-4.56363
0
LINE
8
BLACK
6
CONTINUOUS
10
7.34263
20
-4.56363
11
7.33138
21
-4.56925
0
LINE
8
BLACK
6
CONTINUOUS
10
7.382
20
-4.63674
11
7.37075
21
-4.64237
0
LINE
8
BLACK
6
CONTINUOUS
10
7.37075
20
-4.64237
11
7.34263
21
-4.64237
0
LINE
8
BLACK
6
CONTINUOUS
10
7.34263
20
-4.64237
11
7.33138
21
-4.63674
0
LINE
8
BLACK
6
CONTINUOUS
10
7.33138
20
-4.63674
11
7.32575
21
-4.62549
0
LINE
8
BLACK
6
CONTINUOUS
10
7.32575
20
-4.62549
11
7.32575
21
-4.61425
0
LINE
8
BLACK
6
CONTINUOUS
10
7.32575
20
-4.61425
11
7.33138
21
-4.603
0
LINE
8
BLACK
6
CONTINUOUS
10
7.33138
20
-4.603
11
7.34263
21
-4.59737
0
LINE
8
BLACK
6
CONTINUOUS
10
7.34263
20
-4.59737
11
7.37075
21
-4.59737
0
LINE
8
BLACK
6
CONTINUOUS
10
7.37075
20
-4.59737
11
7.382
21
-4.59175
0
LINE
8
BLACK
6
CONTINUOUS
10
7.42137
20
-4.56363
11
7.46636
21
-4.56363
0
LINE
8
BLACK
6
CONTINUOUS
10
7.43824
20
-4.52426
11
7.43824
21
-4.62549
0
LINE
8
BLACK
6
CONTINUOUS
10
7.43824
20
-4.62549
11
7.44386
21
-4.63674
0
LINE
8
BLACK
6
CONTINUOUS
10
7.44386
20
-4.63674
11
7.45511
21
-4.64237
0
LINE
8
BLACK
6
CONTINUOUS
10
7.45511
20
-4.64237
11
7.46636
21
-4.64237
0
LINE
8
BLACK
6
CONTINUOUS
10
7.55073
20
-4.63674
11
7.53948
21
-4.64237
0
LINE
8
BLACK
6
CONTINUOUS
10
7.53948
20
-4.64237
11
7.51698
21
-4.64237
0
LINE
8
BLACK
6
CONTINUOUS
10
7.51698
20
-4.64237
11
7.50573
21
-4.63674
0
LINE
8
BLACK
6
CONTINUOUS
10
7.50573
20
-4.63674
11
7.50011
21
-4.62549
0
LINE
8
BLACK
6
CONTINUOUS
10
7.50011
20
-4.62549
11
7.50011
21
-4.5805
0
LINE
8
BLACK
6
CONTINUOUS
10
7.50011
20
-4.5805
11
7.50573
21
-4.56925
0
LINE
8
BLACK
6
CONTINUOUS
10
7.50573
20
-4.56925
11
7.51698
21
-4.56363
0
LINE
8
BLACK
6
CONTINUOUS
10
7.51698
20
-4.56363
11
7.53948
21
-4.56363
0
LINE
8
BLACK
6
CONTINUOUS
10
7.53948
20
-4.56363
11
7.55073
21
-4.56925
0
LINE
8
BLACK
6
CONTINUOUS
10
7.55073
20
-4.56925
11
7.55635
21
-4.5805
0
LINE
8
BLACK
6
CONTINUOUS
10
7.55635
20
-4.5805
11
7.55635
21
-4.59175
0
LINE
8
BLACK
6
CONTINUOUS
10
7.55635
20
-4.59175
11
7.50011
21
-4.603
0
LINE
8
BLACK
6
CONTINUOUS
10
7.65759
20
-4.64237
11
7.65759
21
-4.52426
0
LINE
8
BLACK
6
CONTINUOUS
10
7.65759
20
-4.63674
11
7.64634
21
-4.64237
0
LINE
8
BLACK
6
CONTINUOUS
10
7.64634
20
-4.64237
11
7.62384
21
-4.64237
0
LINE
8
BLACK
6
CONTINUOUS
10
7.62384
20
-4.64237
11
7.61259
21
-4.63674
0
LINE
8
BLACK
6
CONTINUOUS
10
7.61259
20
-4.63674
11
7.60697
21
-4.63112
0
LINE
8
BLACK
6
CONTINUOUS
10
7.60697
20
-4.63112
11
7.60134
21
-4.61987
0
LINE
8
BLACK
6
CONTINUOUS
10
7.60134
20
-4.61987
11
7.60134
21
-4.58612
0
LINE
8
BLACK
6
CONTINUOUS
10
7.60134
20
-4.58612
11
7.60697
21
-4.57488
0
LINE
8
BLACK
6
CONTINUOUS
10
7.60697
20
-4.57488
11
7.61259
21
-4.56925
0
LINE
8
BLACK
6
CONTINUOUS
10
7.61259
20
-4.56925
11
7.62384
21
-4.56363
0
LINE
8
BLACK
6
CONTINUOUS
10
7.62384
20
-4.56363
11
7.64634
21
-4.56363
0
LINE
8
BLACK
6
CONTINUOUS
10
7.64634
20
-4.56363
11
7.65759
21
-4.56925
0
LINE
8
BLACK
6
CONTINUOUS
10
7.70258
20
-4.68736
11
7.70821
21
-4.68174
0
LINE
8
BLACK
6
CONTINUOUS
10
7.70821
20
-4.68174
11
7.71945
21
-4.66487
0
LINE
8
BLACK
6
CONTINUOUS
10
7.71945
20
-4.66487
11
7.72508
21
-4.65362
0
LINE
8
BLACK
6
CONTINUOUS
10
7.72508
20
-4.65362
11
7.7307
21
-4.63674
0
LINE
8
BLACK
6
CONTINUOUS
10
7.7307
20
-4.63674
11
7.73633
21
-4.60862
0
LINE
8
BLACK
6
CONTINUOUS
10
7.73633
20
-4.60862
11
7.73633
21
-4.58612
0
LINE
8
BLACK
6
CONTINUOUS
10
7.73633
20
-4.58612
11
7.7307
21
-4.558
0
LINE
8
BLACK
6
CONTINUOUS
10
7.7307
20
-4.558
11
7.72508
21
-4.54113
0
LINE
8
BLACK
6
CONTINUOUS
10
7.72508
20
-4.54113
11
7.71945
21
-4.52988
0
LINE
8
BLACK
6
CONTINUOUS
10
7.71945
20
-4.52988
11
7.70821
21
-4.51301
0
LINE
8
BLACK
6
CONTINUOUS
10
7.70821
20
-4.51301
11
7.70258
21
-4.50738
  0
ENDSEC
  0
EOF
