M48
INCH
T01C0.0191
T02C0.028
T03C0.0354
T04C0.0374
T05C0.0394
T06C0.04
%
T01
X+013065Y+018940
X+013460Y+020470
X+014998Y+018940
X+017498Y+019940
X+016990Y+015045
X+016595Y+013930
X+016990Y+012930
X+018825Y+014855
X+019710Y+010460
X+024680Y+012930
X+024690Y+007520
X+024295Y+006731
X+024690Y+005940
X+023570Y+005940
X+027440Y+006990
X+013325Y+013930
T02
X+008940Y+008440
X+008940Y+007440
X+021440Y+012440
X+021440Y+013440
X+021440Y+017440
X+021440Y+018440
X+025440Y+018940
X+025440Y+017940
X+028440Y+019940
X+028440Y+020940
X+028440Y+010440
X+028440Y+009440
X+025440Y+008940
X+025440Y+007940
T03
X+005940Y+005440
X+005940Y+006440
X+005940Y+007440
X+005940Y+008440
X+006440Y+010940
X+008440Y+010940
X+008440Y+012940
X+008440Y+013940
X+008440Y+014940
X+008440Y+015940
X+008440Y+016940
X+008440Y+017940
X+008440Y+018940
X+005440Y+018940
X+005440Y+017940
X+005440Y+016940
X+005440Y+015940
X+005440Y+014940
X+005440Y+013940
X+005440Y+012940
X+012440Y+013440
X+012440Y+014440
X+012440Y+015440
X+012440Y+016440
X+012440Y+017440
X+012440Y+018440
X+012440Y+019440
X+015440Y+019440
X+015440Y+018440
X+015440Y+017440
X+015440Y+016440
X+015440Y+015440
X+015440Y+014440
X+015440Y+013440
X+017940Y+013440
X+017940Y+012440
X+017940Y+011440
X+017940Y+010440
X+014940Y+010940
X+012940Y+010940
X+017940Y+016440
X+017940Y+017440
X+017940Y+018440
X+017940Y+019440
X+025440Y+015440
X+026440Y+015440
X+027440Y+015440
X+028440Y+015440
X+028440Y+012940
X+027440Y+012940
X+026440Y+012940
X+025440Y+012940
X+025440Y+005440
X+026440Y+005440
X+027440Y+005440
X+028440Y+005440
X+028440Y+023440
X+027440Y+023440
X+026440Y+023440
X+025440Y+023440
T04
X+022940Y+023940
X+021940Y+023940
X+020940Y+023940
X+019940Y+023940
X+018940Y+023940
X+017940Y+023940
X+016940Y+023940
X+015940Y+023940
X+015940Y+022940
X+016940Y+022940
X+017940Y+022940
X+018940Y+022940
X+019940Y+022940
X+020940Y+022940
X+021940Y+022940
X+022940Y+022940
X+014340Y+022940
X+013340Y+022940
X+013340Y+023940
X+014340Y+023940
X+012340Y+023940
X+011340Y+023940
X+010340Y+023940
X+009340Y+023940
X+008340Y+023940
X+007340Y+023940
X+006340Y+023940
X+005340Y+023940
X+005340Y+022940
X+006340Y+022940
X+007340Y+022940
X+008340Y+022940
X+009340Y+022940
X+010340Y+022940
X+011340Y+022940
X+012340Y+022940
X+011940Y+005940
X+011940Y+004940
X+010940Y+004940
X+009940Y+004940
X+009940Y+005940
X+010940Y+005940
X+008940Y+005940
X+008940Y+004940
X+012940Y+004940
X+013940Y+004940
X+014940Y+004940
X+014940Y+005940
X+013940Y+005940
X+012940Y+005940
X+015940Y+005940
X+015940Y+004940
T05
X+010440Y+010440
X+010440Y+011440
X+020940Y+009940
X+021940Y+009940
X+024940Y+010440
X+025940Y+010440
X+027940Y+007940
X+028940Y+007940
X+028940Y+018440
X+027940Y+018440
X+025940Y+020940
X+024940Y+020940
X+021940Y+015940
X+020940Y+015940
T06
X+017940Y+004940
X+018940Y+004940
X+018940Y+005940
X+017940Y+005940
X+019940Y+005940
X+019940Y+004940
X+020940Y+004940
X+020940Y+005940
X+021940Y+005940
X+022940Y+005940
X+022940Y+004940
X+021940Y+004940
T00
M30
