M48
; DRILL file {KiCad (5.1.5-0-10_14)} date Thursday, 19 May 2022 at 03:07:43 pm
; FORMAT={-:-/ absolute / metric / decimal}
; #@! TF.CreationDate,2022-05-19T15:07:43+10:00
; #@! TF.GenerationSoftware,Kicad,Pcbnew,(5.1.5-0-10_14)
; #@! TF.FileFunction,Plated,1,4,PTH
FMAT,2
METRIC
T1C0.800
T2C1.000
T3C1.200
%
G90
G05
T1
X101.671Y-87.015
X101.671Y-89.555
X101.671Y-92.095
X101.671Y-94.635
X101.671Y-97.175
X101.671Y-99.715
X101.671Y-102.255
X101.671Y-104.795
X109.291Y-87.015
X109.291Y-89.555
X109.291Y-92.095
X109.291Y-94.635
X109.291Y-97.175
X109.291Y-99.715
X109.291Y-102.255
X109.291Y-104.795
X93.472Y-87.02
X98.472Y-87.02
X93.37Y-92.71
X98.37Y-92.71
T2
X86.92Y-63.05
X86.92Y-65.59
X89.46Y-63.05
X89.46Y-65.59
X92.0Y-63.05
X92.0Y-65.59
X94.54Y-63.05
X94.54Y-65.59
X97.08Y-63.05
X97.08Y-65.59
X99.62Y-63.05
X99.62Y-65.59
X102.16Y-63.05
X102.16Y-65.59
X104.7Y-63.05
X104.7Y-65.59
X107.24Y-63.05
X107.24Y-65.59
X109.78Y-63.05
X109.78Y-65.59
X112.32Y-63.05
X112.32Y-65.59
X114.86Y-63.05
X114.86Y-65.59
X117.4Y-63.05
X117.4Y-65.59
X119.94Y-63.05
X119.94Y-65.59
X122.48Y-63.05
X122.48Y-65.59
X125.02Y-63.05
X125.02Y-65.59
X127.56Y-63.05
X127.56Y-65.59
X130.1Y-63.05
X130.1Y-65.59
X132.64Y-63.05
X132.64Y-65.59
X135.18Y-63.05
X135.18Y-65.59
T3
X87.579Y-100.076
X90.119Y-100.076
X86.97Y-80.061
X89.51Y-80.061
T0
M30
