G04 DipTrace 2.4.0.2*
%INBottom.gbr*%
%MOIN*%
%ADD14C,0.024*%
%ADD15C,0.013*%
%ADD17C,0.063*%
%ADD18R,0.063X0.063*%
%ADD19C,0.05*%
%ADD20R,0.05X0.05*%
%ADD21C,0.063*%
%ADD22R,0.0591X0.0591*%
%ADD23C,0.0591*%
%ADD24C,0.04*%
%FSLAX44Y44*%
G04*
G70*
G90*
G75*
G01*
%LNBottom*%
%LPD*%
X18940Y5940D2*
D14*
Y4940D1*
Y5940D2*
D15*
Y6989D1*
X18680Y7249D1*
X16632D1*
X13940Y9940D1*
X26440Y16440D2*
Y9940D1*
X13940Y16940D2*
Y18940D1*
Y14440D2*
Y16940D1*
Y9940D2*
X13403D1*
X12938Y9476D1*
X10255D1*
X9995Y9735D1*
Y14180D1*
X10255Y14440D1*
X13940D1*
X21940Y4940D2*
D14*
Y5940D1*
X23940Y4940D2*
Y5940D1*
X24940Y4940D2*
Y5940D1*
X25940Y4940D2*
Y5940D1*
X26940Y4940D2*
Y5940D1*
X27940Y4940D2*
Y5940D1*
X5578Y20940D2*
D15*
Y18998D1*
X5759Y18816D1*
Y17621D1*
X28440Y17802D2*
X29210Y17033D1*
Y12072D1*
X28440Y11302D1*
X5759Y10121D2*
Y9442D1*
X5578Y9261D1*
Y6940D1*
X5759Y13621D2*
Y10121D1*
Y17621D2*
Y13621D1*
X28940Y4940D2*
D14*
Y5940D1*
X21440Y13440D2*
D15*
X24440D1*
X16756Y13531D2*
X17246Y14021D1*
Y17531D1*
X16756D1*
X24440Y13440D2*
X23170Y12170D1*
Y7933D1*
X23430Y7673D1*
X28680D1*
X28940Y7413D1*
Y5940D1*
Y22940D2*
D14*
Y23940D1*
X27940Y22940D2*
Y23940D1*
X26940Y22940D2*
Y23940D1*
X17286Y21005D2*
D15*
Y19061D1*
X16756Y18531D1*
X25940Y22940D2*
D14*
Y23940D1*
X16756Y14531D2*
D15*
X16006Y15281D1*
Y19450D1*
X13450D1*
X11440Y17440D1*
X25940Y22940D2*
D3*
X16006Y19450D2*
X16266Y19710D1*
Y21400D1*
X25940Y22940D2*
X25844D1*
Y21924D1*
X25320Y21400D1*
X14340Y22940D2*
D14*
Y23940D1*
X15340Y22940D2*
Y23940D1*
X20340Y22940D2*
Y23940D1*
X24440Y16440D2*
D15*
X23950Y16930D1*
Y19281D1*
X24085Y19416D1*
X20340D2*
Y22940D1*
X24085Y19416D2*
D3*
X17340Y22940D2*
D14*
Y23940D1*
X16340Y22940D2*
Y23940D1*
X19340Y22940D2*
Y23940D1*
X18340Y22940D2*
Y23940D1*
X24940Y22940D2*
Y23940D1*
Y22940D2*
D15*
X24925D1*
Y21267D1*
X23680Y20022D1*
Y14190D1*
X23421Y13930D1*
X20766D1*
X20506Y13670D1*
Y12791D1*
X20246Y12531D1*
X19756D1*
X23940Y22940D2*
D14*
Y23940D1*
Y22940D2*
D15*
Y22155D1*
X21440Y19655D1*
Y18440D1*
X20246Y17246D1*
Y13281D1*
X19987Y13021D1*
X11700D1*
X11440Y12761D1*
Y10440D1*
X22940Y22940D2*
D14*
Y23940D1*
Y22940D2*
D15*
Y21655D1*
X20822Y19537D1*
Y19281D1*
X20562Y19021D1*
X19526D1*
X19266Y18761D1*
Y14021D1*
X9600Y11815D2*
Y8780D1*
X11440Y6940D1*
X21940Y22940D2*
D14*
Y23940D1*
X26239Y21795D2*
D15*
X26180Y21737D1*
Y20645D1*
X26440Y20385D1*
Y19940D1*
X26180Y20645D2*
X25920Y20385D1*
X25190D1*
X24930Y20125D1*
Y12930D1*
X24440Y12440D1*
X19940Y4940D2*
D14*
Y5940D1*
X21440Y12440D2*
D15*
X20571Y11571D1*
X20037D1*
X17716D1*
X16756Y12531D1*
X19940Y5940D2*
Y7460D1*
X20037Y7557D1*
Y11571D1*
X15940Y4940D2*
D14*
Y5940D1*
X14940Y4940D2*
Y5940D1*
X12340Y22940D2*
Y23940D1*
X11340Y22940D2*
Y23940D1*
X13340Y22940D2*
Y23940D1*
X17940Y4940D2*
Y5940D1*
X20940D2*
Y4940D1*
X16940Y5940D2*
Y4940D1*
X14940Y14440D2*
D15*
X13781Y13281D1*
X11100D1*
X10440Y13940D1*
X8766Y16021D2*
Y6690D1*
X8506Y6430D1*
X6875D1*
X6365Y6940D1*
X20766Y16021D2*
Y15440D1*
X21440D1*
X14940Y12440D2*
Y12506D1*
X13384Y10950D1*
X13128D1*
X12173Y9995D1*
X10885D1*
X10440Y10440D1*
X23940D2*
X25950Y8430D1*
X27420D1*
X27930Y8940D1*
X27670Y9200D1*
Y14670D1*
X28440Y15440D1*
X7940Y6940D2*
Y9001D1*
X8121Y9182D1*
Y10121D1*
Y17621D2*
Y18560D1*
X7940Y18741D1*
Y20940D1*
X8121Y13621D2*
Y17621D1*
Y10121D2*
Y13621D1*
X28440Y8940D2*
X27930D1*
X7153Y6940D2*
Y7942D1*
X7334Y8123D1*
Y10121D1*
X28440Y9728D2*
X27930Y10237D1*
Y13498D1*
X28950Y14517D1*
Y15913D1*
X28635Y16228D1*
X28440D1*
X7334Y17621D2*
Y19236D1*
X7153Y19417D1*
Y20940D1*
X7334Y13621D2*
Y17621D1*
Y10121D2*
Y13621D1*
X28440Y16228D2*
D3*
X26440Y17440D2*
X25440Y18440D1*
Y19940D1*
X26440Y8940D2*
X25495Y9885D1*
Y12995D1*
X25940Y13440D1*
D24*
X17286Y21005D3*
X25320Y21400D3*
X16266D3*
X20340Y19416D3*
X24085D3*
X19266Y14021D3*
X9600Y11815D3*
X26239Y21795D3*
X8766Y16021D3*
X20766D3*
G36*
X23640Y5240D2*
X23658Y5343D1*
X23710Y5433D1*
X23790Y5500D1*
X23888Y5536D1*
X23992D1*
X24090Y5500D1*
X24170Y5433D1*
X24222Y5343D1*
X24240Y5240D1*
Y4640D1*
X24222Y4538D1*
X24170Y4448D1*
X24090Y4380D1*
X23993Y4345D1*
X23888D1*
X23790Y4380D1*
X23711Y4447D1*
X23658Y4537D1*
X23640Y4640D1*
Y5240D1*
G37*
G36*
X24640D2*
X24658Y5343D1*
X24710Y5433D1*
X24790Y5500D1*
X24888Y5536D1*
X24992D1*
X25090Y5500D1*
X25170Y5433D1*
X25222Y5343D1*
X25240Y5240D1*
Y4640D1*
X25222Y4538D1*
X25170Y4448D1*
X25090Y4380D1*
X24993Y4345D1*
X24888D1*
X24790Y4380D1*
X24711Y4447D1*
X24658Y4537D1*
X24640Y4640D1*
Y5240D1*
G37*
G36*
X25640D2*
X25658Y5343D1*
X25710Y5433D1*
X25790Y5500D1*
X25888Y5536D1*
X25992D1*
X26090Y5500D1*
X26170Y5433D1*
X26222Y5343D1*
X26240Y5240D1*
Y4640D1*
X26222Y4538D1*
X26170Y4448D1*
X26090Y4380D1*
X25993Y4345D1*
X25888D1*
X25790Y4380D1*
X25711Y4447D1*
X25658Y4537D1*
X25640Y4640D1*
Y5240D1*
G37*
G36*
X26640D2*
X26658Y5343D1*
X26710Y5433D1*
X26790Y5500D1*
X26888Y5536D1*
X26992D1*
X27090Y5500D1*
X27170Y5433D1*
X27222Y5343D1*
X27240Y5240D1*
Y4640D1*
X27222Y4538D1*
X27170Y4448D1*
X27090Y4380D1*
X26993Y4345D1*
X26888D1*
X26790Y4380D1*
X26711Y4447D1*
X26658Y4537D1*
X26640Y4640D1*
Y5240D1*
G37*
G36*
X27640D2*
X27658Y5343D1*
X27710Y5433D1*
X27790Y5500D1*
X27888Y5536D1*
X27992D1*
X28090Y5500D1*
X28170Y5433D1*
X28222Y5343D1*
X28240Y5240D1*
Y4640D1*
X28222Y4538D1*
X28170Y4448D1*
X28090Y4380D1*
X27993Y4345D1*
X27888D1*
X27790Y4380D1*
X27711Y4447D1*
X27658Y4537D1*
X27640Y4640D1*
Y5240D1*
G37*
G36*
X28640D2*
X28658Y5343D1*
X28710Y5433D1*
X28790Y5500D1*
X28888Y5536D1*
X28992D1*
X29090Y5500D1*
X29170Y5433D1*
X29222Y5343D1*
X29240Y5240D1*
Y4640D1*
X29222Y4538D1*
X29170Y4448D1*
X29090Y4380D1*
X28993Y4345D1*
X28888D1*
X28790Y4380D1*
X28711Y4447D1*
X28658Y4537D1*
X28640Y4640D1*
Y5240D1*
G37*
G36*
X29227Y23653D2*
X29210Y23555D1*
X29160Y23469D1*
X29084Y23405D1*
X28990Y23371D1*
X28891Y23370D1*
X28797Y23404D1*
X28720Y23468D1*
X28671Y23555D1*
X28653Y23653D1*
Y24227D1*
X28670Y24325D1*
X28720Y24411D1*
X28796Y24476D1*
X28890Y24510D1*
X28990D1*
X29083Y24476D1*
X29160Y24412D1*
X29210Y24326D1*
X29227Y24227D1*
Y23653D1*
G37*
G36*
X28227D2*
X28210Y23555D1*
X28160Y23469D1*
X28084Y23405D1*
X27990Y23371D1*
X27891Y23370D1*
X27797Y23404D1*
X27720Y23468D1*
X27671Y23555D1*
X27653Y23653D1*
Y24227D1*
X27670Y24325D1*
X27720Y24411D1*
X27796Y24476D1*
X27890Y24510D1*
X27990D1*
X28083Y24476D1*
X28160Y24412D1*
X28210Y24326D1*
X28227Y24227D1*
Y23653D1*
G37*
G36*
X27227D2*
X27210Y23555D1*
X27160Y23469D1*
X27084Y23405D1*
X26990Y23371D1*
X26891Y23370D1*
X26797Y23404D1*
X26720Y23468D1*
X26671Y23555D1*
X26653Y23653D1*
Y24227D1*
X26670Y24325D1*
X26720Y24411D1*
X26796Y24476D1*
X26890Y24510D1*
X26990D1*
X27083Y24476D1*
X27160Y24412D1*
X27210Y24326D1*
X27227Y24227D1*
Y23653D1*
G37*
G36*
X26227D2*
X26210Y23555D1*
X26160Y23469D1*
X26084Y23405D1*
X25990Y23371D1*
X25891Y23370D1*
X25797Y23404D1*
X25720Y23468D1*
X25671Y23555D1*
X25653Y23653D1*
Y24227D1*
X25670Y24325D1*
X25720Y24411D1*
X25796Y24476D1*
X25890Y24510D1*
X25990D1*
X26083Y24476D1*
X26160Y24412D1*
X26210Y24326D1*
X26227Y24227D1*
Y23653D1*
G37*
G36*
X25227D2*
X25210Y23555D1*
X25160Y23469D1*
X25084Y23405D1*
X24990Y23371D1*
X24891Y23370D1*
X24797Y23404D1*
X24720Y23468D1*
X24671Y23555D1*
X24653Y23653D1*
Y24227D1*
X24670Y24325D1*
X24720Y24411D1*
X24796Y24476D1*
X24890Y24510D1*
X24990D1*
X25083Y24476D1*
X25160Y24412D1*
X25210Y24326D1*
X25227Y24227D1*
Y23653D1*
G37*
G36*
X24227D2*
X24210Y23555D1*
X24160Y23469D1*
X24084Y23405D1*
X23990Y23371D1*
X23891Y23370D1*
X23797Y23404D1*
X23720Y23468D1*
X23671Y23555D1*
X23653Y23653D1*
Y24227D1*
X23670Y24325D1*
X23720Y24411D1*
X23796Y24476D1*
X23890Y24510D1*
X23990D1*
X24083Y24476D1*
X24160Y24412D1*
X24210Y24326D1*
X24227Y24227D1*
Y23653D1*
G37*
G36*
X23227D2*
X23210Y23555D1*
X23160Y23469D1*
X23084Y23405D1*
X22990Y23371D1*
X22891Y23370D1*
X22797Y23404D1*
X22720Y23468D1*
X22671Y23555D1*
X22653Y23653D1*
Y24227D1*
X22670Y24325D1*
X22720Y24411D1*
X22796Y24476D1*
X22890Y24510D1*
X22990D1*
X23083Y24476D1*
X23160Y24412D1*
X23210Y24326D1*
X23227Y24227D1*
Y23653D1*
G37*
G36*
X22227D2*
X22210Y23555D1*
X22160Y23469D1*
X22084Y23405D1*
X21990Y23371D1*
X21891Y23370D1*
X21797Y23404D1*
X21720Y23468D1*
X21671Y23555D1*
X21653Y23653D1*
Y24227D1*
X21670Y24325D1*
X21720Y24411D1*
X21796Y24476D1*
X21890Y24510D1*
X21990D1*
X22083Y24476D1*
X22160Y24412D1*
X22210Y24326D1*
X22227Y24227D1*
Y23653D1*
G37*
G36*
X14653Y5227D2*
X14670Y5325D1*
X14720Y5411D1*
X14796Y5476D1*
X14890Y5510D1*
X14990D1*
X15083Y5476D1*
X15160Y5412D1*
X15210Y5326D1*
X15227Y5227D1*
Y4653D1*
X15210Y4555D1*
X15160Y4469D1*
X15084Y4405D1*
X14990Y4371D1*
X14891Y4370D1*
X14797Y4404D1*
X14720Y4468D1*
X14671Y4555D1*
X14653Y4653D1*
Y5227D1*
G37*
G36*
X15653D2*
X15670Y5325D1*
X15720Y5411D1*
X15796Y5476D1*
X15890Y5510D1*
X15990D1*
X16083Y5476D1*
X16160Y5412D1*
X16210Y5326D1*
X16227Y5227D1*
Y4653D1*
X16210Y4555D1*
X16160Y4469D1*
X16084Y4405D1*
X15990Y4371D1*
X15891Y4370D1*
X15797Y4404D1*
X15720Y4468D1*
X15671Y4555D1*
X15653Y4653D1*
Y5227D1*
G37*
G36*
X16653D2*
X16670Y5325D1*
X16720Y5411D1*
X16796Y5476D1*
X16890Y5510D1*
X16990D1*
X17083Y5476D1*
X17160Y5412D1*
X17210Y5326D1*
X17227Y5227D1*
Y4653D1*
X17210Y4555D1*
X17160Y4469D1*
X17084Y4405D1*
X16990Y4371D1*
X16891Y4370D1*
X16797Y4404D1*
X16720Y4468D1*
X16671Y4555D1*
X16653Y4653D1*
Y5227D1*
G37*
G36*
X17653D2*
X17670Y5325D1*
X17720Y5411D1*
X17796Y5476D1*
X17890Y5510D1*
X17990D1*
X18083Y5476D1*
X18160Y5412D1*
X18210Y5326D1*
X18227Y5227D1*
Y4653D1*
X18210Y4555D1*
X18160Y4469D1*
X18084Y4405D1*
X17990Y4371D1*
X17891Y4370D1*
X17797Y4404D1*
X17720Y4468D1*
X17671Y4555D1*
X17653Y4653D1*
Y5227D1*
G37*
G36*
X18653D2*
X18670Y5325D1*
X18720Y5411D1*
X18796Y5476D1*
X18890Y5510D1*
X18990D1*
X19083Y5476D1*
X19160Y5412D1*
X19210Y5326D1*
X19227Y5227D1*
Y4653D1*
X19210Y4555D1*
X19160Y4469D1*
X19084Y4405D1*
X18990Y4371D1*
X18891Y4370D1*
X18797Y4404D1*
X18720Y4468D1*
X18671Y4555D1*
X18653Y4653D1*
Y5227D1*
G37*
G36*
X19653D2*
X19670Y5325D1*
X19720Y5411D1*
X19796Y5476D1*
X19890Y5510D1*
X19990D1*
X20083Y5476D1*
X20160Y5412D1*
X20210Y5326D1*
X20227Y5227D1*
Y4653D1*
X20210Y4555D1*
X20160Y4469D1*
X20084Y4405D1*
X19990Y4371D1*
X19891Y4370D1*
X19797Y4404D1*
X19720Y4468D1*
X19671Y4555D1*
X19653Y4653D1*
Y5227D1*
G37*
G36*
X20653D2*
X20670Y5325D1*
X20720Y5411D1*
X20796Y5476D1*
X20890Y5510D1*
X20990D1*
X21083Y5476D1*
X21160Y5412D1*
X21210Y5326D1*
X21227Y5227D1*
Y4653D1*
X21210Y4555D1*
X21160Y4469D1*
X21084Y4405D1*
X20990Y4371D1*
X20891Y4370D1*
X20797Y4404D1*
X20720Y4468D1*
X20671Y4555D1*
X20653Y4653D1*
Y5227D1*
G37*
G36*
X21653D2*
X21670Y5325D1*
X21720Y5411D1*
X21796Y5476D1*
X21890Y5510D1*
X21990D1*
X22083Y5476D1*
X22160Y5412D1*
X22210Y5326D1*
X22227Y5227D1*
Y4653D1*
X22210Y4555D1*
X22160Y4469D1*
X22084Y4405D1*
X21990Y4371D1*
X21891Y4370D1*
X21797Y4404D1*
X21720Y4468D1*
X21671Y4555D1*
X21653Y4653D1*
Y5227D1*
G37*
G36*
X20627Y23653D2*
X20610Y23555D1*
X20560Y23469D1*
X20484Y23405D1*
X20390Y23371D1*
X20291Y23370D1*
X20197Y23404D1*
X20120Y23468D1*
X20071Y23555D1*
X20053Y23653D1*
Y24227D1*
X20070Y24325D1*
X20120Y24411D1*
X20196Y24476D1*
X20290Y24510D1*
X20390D1*
X20483Y24476D1*
X20560Y24412D1*
X20610Y24326D1*
X20627Y24227D1*
Y23653D1*
G37*
G36*
X19627D2*
X19610Y23555D1*
X19560Y23469D1*
X19484Y23405D1*
X19390Y23371D1*
X19291Y23370D1*
X19197Y23404D1*
X19120Y23468D1*
X19071Y23555D1*
X19053Y23653D1*
Y24227D1*
X19070Y24325D1*
X19120Y24411D1*
X19196Y24476D1*
X19290Y24510D1*
X19390D1*
X19483Y24476D1*
X19560Y24412D1*
X19610Y24326D1*
X19627Y24227D1*
Y23653D1*
G37*
G36*
X18627D2*
X18610Y23555D1*
X18560Y23469D1*
X18484Y23405D1*
X18390Y23371D1*
X18291Y23370D1*
X18197Y23404D1*
X18120Y23468D1*
X18071Y23555D1*
X18053Y23653D1*
Y24227D1*
X18070Y24325D1*
X18120Y24411D1*
X18196Y24476D1*
X18290Y24510D1*
X18390D1*
X18483Y24476D1*
X18560Y24412D1*
X18610Y24326D1*
X18627Y24227D1*
Y23653D1*
G37*
G36*
X17627D2*
X17610Y23555D1*
X17560Y23469D1*
X17484Y23405D1*
X17390Y23371D1*
X17291Y23370D1*
X17197Y23404D1*
X17120Y23468D1*
X17071Y23555D1*
X17053Y23653D1*
Y24227D1*
X17070Y24325D1*
X17120Y24411D1*
X17196Y24476D1*
X17290Y24510D1*
X17390D1*
X17483Y24476D1*
X17560Y24412D1*
X17610Y24326D1*
X17627Y24227D1*
Y23653D1*
G37*
G36*
X16627D2*
X16610Y23555D1*
X16560Y23469D1*
X16484Y23405D1*
X16390Y23371D1*
X16291Y23370D1*
X16197Y23404D1*
X16120Y23468D1*
X16071Y23555D1*
X16053Y23653D1*
Y24227D1*
X16070Y24325D1*
X16120Y24411D1*
X16196Y24476D1*
X16290Y24510D1*
X16390D1*
X16483Y24476D1*
X16560Y24412D1*
X16610Y24326D1*
X16627Y24227D1*
Y23653D1*
G37*
G36*
X15627D2*
X15610Y23555D1*
X15560Y23469D1*
X15484Y23405D1*
X15390Y23371D1*
X15291Y23370D1*
X15197Y23404D1*
X15120Y23468D1*
X15071Y23555D1*
X15053Y23653D1*
Y24227D1*
X15070Y24325D1*
X15120Y24411D1*
X15196Y24476D1*
X15290Y24510D1*
X15390D1*
X15483Y24476D1*
X15560Y24412D1*
X15610Y24326D1*
X15627Y24227D1*
Y23653D1*
G37*
G36*
X14627D2*
X14610Y23555D1*
X14560Y23469D1*
X14484Y23405D1*
X14390Y23371D1*
X14291Y23370D1*
X14197Y23404D1*
X14120Y23468D1*
X14071Y23555D1*
X14053Y23653D1*
Y24227D1*
X14070Y24325D1*
X14120Y24411D1*
X14196Y24476D1*
X14290Y24510D1*
X14390D1*
X14483Y24476D1*
X14560Y24412D1*
X14610Y24326D1*
X14627Y24227D1*
Y23653D1*
G37*
G36*
X13627D2*
X13610Y23555D1*
X13560Y23469D1*
X13484Y23405D1*
X13390Y23371D1*
X13291Y23370D1*
X13197Y23404D1*
X13120Y23468D1*
X13071Y23555D1*
X13053Y23653D1*
Y24227D1*
X13070Y24325D1*
X13120Y24411D1*
X13196Y24476D1*
X13290Y24510D1*
X13390D1*
X13483Y24476D1*
X13560Y24412D1*
X13610Y24326D1*
X13627Y24227D1*
Y23653D1*
G37*
G36*
X12627D2*
X12610Y23555D1*
X12560Y23469D1*
X12484Y23405D1*
X12390Y23371D1*
X12291Y23370D1*
X12197Y23404D1*
X12120Y23468D1*
X12071Y23555D1*
X12053Y23653D1*
Y24227D1*
X12070Y24325D1*
X12120Y24411D1*
X12196Y24476D1*
X12290Y24510D1*
X12390D1*
X12483Y24476D1*
X12560Y24412D1*
X12610Y24326D1*
X12627Y24227D1*
Y23653D1*
G37*
G36*
X11627D2*
X11610Y23555D1*
X11560Y23469D1*
X11484Y23405D1*
X11390Y23371D1*
X11291Y23370D1*
X11197Y23404D1*
X11120Y23468D1*
X11071Y23555D1*
X11053Y23653D1*
Y24227D1*
X11070Y24325D1*
X11120Y24411D1*
X11196Y24476D1*
X11290Y24510D1*
X11390D1*
X11483Y24476D1*
X11560Y24412D1*
X11610Y24326D1*
X11627Y24227D1*
Y23653D1*
G37*
G36*
X20627Y22653D2*
X20610Y22555D1*
X20560Y22469D1*
X20484Y22405D1*
X20390Y22371D1*
X20291Y22370D1*
X20197Y22404D1*
X20120Y22468D1*
X20071Y22555D1*
X20053Y22653D1*
Y23227D1*
X20070Y23325D1*
X20120Y23411D1*
X20196Y23476D1*
X20290Y23510D1*
X20390D1*
X20483Y23476D1*
X20560Y23412D1*
X20610Y23326D1*
X20627Y23227D1*
Y22653D1*
G37*
G36*
X19627D2*
X19610Y22555D1*
X19560Y22469D1*
X19484Y22405D1*
X19390Y22371D1*
X19291Y22370D1*
X19197Y22404D1*
X19120Y22468D1*
X19071Y22555D1*
X19053Y22653D1*
Y23227D1*
X19070Y23325D1*
X19120Y23411D1*
X19196Y23476D1*
X19290Y23510D1*
X19390D1*
X19483Y23476D1*
X19560Y23412D1*
X19610Y23326D1*
X19627Y23227D1*
Y22653D1*
G37*
G36*
X18627D2*
X18610Y22555D1*
X18560Y22469D1*
X18484Y22405D1*
X18390Y22371D1*
X18291Y22370D1*
X18197Y22404D1*
X18120Y22468D1*
X18071Y22555D1*
X18053Y22653D1*
Y23227D1*
X18070Y23325D1*
X18120Y23411D1*
X18196Y23476D1*
X18290Y23510D1*
X18390D1*
X18483Y23476D1*
X18560Y23412D1*
X18610Y23326D1*
X18627Y23227D1*
Y22653D1*
G37*
G36*
X17627D2*
X17610Y22555D1*
X17560Y22469D1*
X17484Y22405D1*
X17390Y22371D1*
X17291Y22370D1*
X17197Y22404D1*
X17120Y22468D1*
X17071Y22555D1*
X17053Y22653D1*
Y23227D1*
X17070Y23325D1*
X17120Y23411D1*
X17196Y23476D1*
X17290Y23510D1*
X17390D1*
X17483Y23476D1*
X17560Y23412D1*
X17610Y23326D1*
X17627Y23227D1*
Y22653D1*
G37*
G36*
X16627D2*
X16610Y22555D1*
X16560Y22469D1*
X16484Y22405D1*
X16390Y22371D1*
X16291Y22370D1*
X16197Y22404D1*
X16120Y22468D1*
X16071Y22555D1*
X16053Y22653D1*
Y23227D1*
X16070Y23325D1*
X16120Y23411D1*
X16196Y23476D1*
X16290Y23510D1*
X16390D1*
X16483Y23476D1*
X16560Y23412D1*
X16610Y23326D1*
X16627Y23227D1*
Y22653D1*
G37*
G36*
X15627D2*
X15610Y22555D1*
X15560Y22469D1*
X15484Y22405D1*
X15390Y22371D1*
X15291Y22370D1*
X15197Y22404D1*
X15120Y22468D1*
X15071Y22555D1*
X15053Y22653D1*
Y23227D1*
X15070Y23325D1*
X15120Y23411D1*
X15196Y23476D1*
X15290Y23510D1*
X15390D1*
X15483Y23476D1*
X15560Y23412D1*
X15610Y23326D1*
X15627Y23227D1*
Y22653D1*
G37*
G36*
X14627D2*
X14610Y22555D1*
X14560Y22469D1*
X14484Y22405D1*
X14390Y22371D1*
X14291Y22370D1*
X14197Y22404D1*
X14120Y22468D1*
X14071Y22555D1*
X14053Y22653D1*
Y23227D1*
X14070Y23325D1*
X14120Y23411D1*
X14196Y23476D1*
X14290Y23510D1*
X14390D1*
X14483Y23476D1*
X14560Y23412D1*
X14610Y23326D1*
X14627Y23227D1*
Y22653D1*
G37*
G36*
X13627D2*
X13610Y22555D1*
X13560Y22469D1*
X13484Y22405D1*
X13390Y22371D1*
X13291Y22370D1*
X13197Y22404D1*
X13120Y22468D1*
X13071Y22555D1*
X13053Y22653D1*
Y23227D1*
X13070Y23325D1*
X13120Y23411D1*
X13196Y23476D1*
X13290Y23510D1*
X13390D1*
X13483Y23476D1*
X13560Y23412D1*
X13610Y23326D1*
X13627Y23227D1*
Y22653D1*
G37*
G36*
X12627D2*
X12610Y22555D1*
X12560Y22469D1*
X12484Y22405D1*
X12390Y22371D1*
X12291Y22370D1*
X12197Y22404D1*
X12120Y22468D1*
X12071Y22555D1*
X12053Y22653D1*
Y23227D1*
X12070Y23325D1*
X12120Y23411D1*
X12196Y23476D1*
X12290Y23510D1*
X12390D1*
X12483Y23476D1*
X12560Y23412D1*
X12610Y23326D1*
X12627Y23227D1*
Y22653D1*
G37*
G36*
X11627D2*
X11610Y22555D1*
X11560Y22469D1*
X11484Y22405D1*
X11390Y22371D1*
X11291Y22370D1*
X11197Y22404D1*
X11120Y22468D1*
X11071Y22555D1*
X11053Y22653D1*
Y23227D1*
X11070Y23325D1*
X11120Y23411D1*
X11196Y23476D1*
X11290Y23510D1*
X11390D1*
X11483Y23476D1*
X11560Y23412D1*
X11610Y23326D1*
X11627Y23227D1*
Y22653D1*
G37*
G36*
X29227D2*
X29210Y22555D1*
X29160Y22469D1*
X29084Y22405D1*
X28990Y22371D1*
X28891Y22370D1*
X28797Y22404D1*
X28720Y22468D1*
X28671Y22555D1*
X28653Y22653D1*
Y23227D1*
X28670Y23325D1*
X28720Y23411D1*
X28796Y23476D1*
X28890Y23510D1*
X28990D1*
X29083Y23476D1*
X29160Y23412D1*
X29210Y23326D1*
X29227Y23227D1*
Y22653D1*
G37*
G36*
X28227D2*
X28210Y22555D1*
X28160Y22469D1*
X28084Y22405D1*
X27990Y22371D1*
X27891Y22370D1*
X27797Y22404D1*
X27720Y22468D1*
X27671Y22555D1*
X27653Y22653D1*
Y23227D1*
X27670Y23325D1*
X27720Y23411D1*
X27796Y23476D1*
X27890Y23510D1*
X27990D1*
X28083Y23476D1*
X28160Y23412D1*
X28210Y23326D1*
X28227Y23227D1*
Y22653D1*
G37*
G36*
X27227D2*
X27210Y22555D1*
X27160Y22469D1*
X27084Y22405D1*
X26990Y22371D1*
X26891Y22370D1*
X26797Y22404D1*
X26720Y22468D1*
X26671Y22555D1*
X26653Y22653D1*
Y23227D1*
X26670Y23325D1*
X26720Y23411D1*
X26796Y23476D1*
X26890Y23510D1*
X26990D1*
X27083Y23476D1*
X27160Y23412D1*
X27210Y23326D1*
X27227Y23227D1*
Y22653D1*
G37*
G36*
X26227D2*
X26210Y22555D1*
X26160Y22469D1*
X26084Y22405D1*
X25990Y22371D1*
X25891Y22370D1*
X25797Y22404D1*
X25720Y22468D1*
X25671Y22555D1*
X25653Y22653D1*
Y23227D1*
X25670Y23325D1*
X25720Y23411D1*
X25796Y23476D1*
X25890Y23510D1*
X25990D1*
X26083Y23476D1*
X26160Y23412D1*
X26210Y23326D1*
X26227Y23227D1*
Y22653D1*
G37*
G36*
X25227D2*
X25210Y22555D1*
X25160Y22469D1*
X25084Y22405D1*
X24990Y22371D1*
X24891Y22370D1*
X24797Y22404D1*
X24720Y22468D1*
X24671Y22555D1*
X24653Y22653D1*
Y23227D1*
X24670Y23325D1*
X24720Y23411D1*
X24796Y23476D1*
X24890Y23510D1*
X24990D1*
X25083Y23476D1*
X25160Y23412D1*
X25210Y23326D1*
X25227Y23227D1*
Y22653D1*
G37*
G36*
X24227D2*
X24210Y22555D1*
X24160Y22469D1*
X24084Y22405D1*
X23990Y22371D1*
X23891Y22370D1*
X23797Y22404D1*
X23720Y22468D1*
X23671Y22555D1*
X23653Y22653D1*
Y23227D1*
X23670Y23325D1*
X23720Y23411D1*
X23796Y23476D1*
X23890Y23510D1*
X23990D1*
X24083Y23476D1*
X24160Y23412D1*
X24210Y23326D1*
X24227Y23227D1*
Y22653D1*
G37*
G36*
X23227D2*
X23210Y22555D1*
X23160Y22469D1*
X23084Y22405D1*
X22990Y22371D1*
X22891Y22370D1*
X22797Y22404D1*
X22720Y22468D1*
X22671Y22555D1*
X22653Y22653D1*
Y23227D1*
X22670Y23325D1*
X22720Y23411D1*
X22796Y23476D1*
X22890Y23510D1*
X22990D1*
X23083Y23476D1*
X23160Y23412D1*
X23210Y23326D1*
X23227Y23227D1*
Y22653D1*
G37*
G36*
X22227D2*
X22210Y22555D1*
X22160Y22469D1*
X22084Y22405D1*
X21990Y22371D1*
X21891Y22370D1*
X21797Y22404D1*
X21720Y22468D1*
X21671Y22555D1*
X21653Y22653D1*
Y23227D1*
X21670Y23325D1*
X21720Y23411D1*
X21796Y23476D1*
X21890Y23510D1*
X21990D1*
X22083Y23476D1*
X22160Y23412D1*
X22210Y23326D1*
X22227Y23227D1*
Y22653D1*
G37*
G36*
X23640Y6240D2*
X23658Y6343D1*
X23710Y6433D1*
X23790Y6500D1*
X23888Y6536D1*
X23992D1*
X24090Y6500D1*
X24170Y6433D1*
X24222Y6343D1*
X24240Y6240D1*
Y5640D1*
X24222Y5538D1*
X24170Y5448D1*
X24090Y5380D1*
X23993Y5345D1*
X23888D1*
X23790Y5380D1*
X23711Y5447D1*
X23658Y5537D1*
X23640Y5640D1*
Y6240D1*
G37*
G36*
X24640D2*
X24658Y6343D1*
X24710Y6433D1*
X24790Y6500D1*
X24888Y6536D1*
X24992D1*
X25090Y6500D1*
X25170Y6433D1*
X25222Y6343D1*
X25240Y6240D1*
Y5640D1*
X25222Y5538D1*
X25170Y5448D1*
X25090Y5380D1*
X24993Y5345D1*
X24888D1*
X24790Y5380D1*
X24711Y5447D1*
X24658Y5537D1*
X24640Y5640D1*
Y6240D1*
G37*
G36*
X25640D2*
X25658Y6343D1*
X25710Y6433D1*
X25790Y6500D1*
X25888Y6536D1*
X25992D1*
X26090Y6500D1*
X26170Y6433D1*
X26222Y6343D1*
X26240Y6240D1*
Y5640D1*
X26222Y5538D1*
X26170Y5448D1*
X26090Y5380D1*
X25993Y5345D1*
X25888D1*
X25790Y5380D1*
X25711Y5447D1*
X25658Y5537D1*
X25640Y5640D1*
Y6240D1*
G37*
G36*
X26640D2*
X26658Y6343D1*
X26710Y6433D1*
X26790Y6500D1*
X26888Y6536D1*
X26992D1*
X27090Y6500D1*
X27170Y6433D1*
X27222Y6343D1*
X27240Y6240D1*
Y5640D1*
X27222Y5538D1*
X27170Y5448D1*
X27090Y5380D1*
X26993Y5345D1*
X26888D1*
X26790Y5380D1*
X26711Y5447D1*
X26658Y5537D1*
X26640Y5640D1*
Y6240D1*
G37*
G36*
X27640D2*
X27658Y6343D1*
X27710Y6433D1*
X27790Y6500D1*
X27888Y6536D1*
X27992D1*
X28090Y6500D1*
X28170Y6433D1*
X28222Y6343D1*
X28240Y6240D1*
Y5640D1*
X28222Y5538D1*
X28170Y5448D1*
X28090Y5380D1*
X27993Y5345D1*
X27888D1*
X27790Y5380D1*
X27711Y5447D1*
X27658Y5537D1*
X27640Y5640D1*
Y6240D1*
G37*
G36*
X28640D2*
X28658Y6343D1*
X28710Y6433D1*
X28790Y6500D1*
X28888Y6536D1*
X28992D1*
X29090Y6500D1*
X29170Y6433D1*
X29222Y6343D1*
X29240Y6240D1*
Y5640D1*
X29222Y5538D1*
X29170Y5448D1*
X29090Y5380D1*
X28993Y5345D1*
X28888D1*
X28790Y5380D1*
X28711Y5447D1*
X28658Y5537D1*
X28640Y5640D1*
Y6240D1*
G37*
G36*
X14653Y6227D2*
X14670Y6325D1*
X14720Y6411D1*
X14796Y6476D1*
X14890Y6510D1*
X14990D1*
X15083Y6476D1*
X15160Y6412D1*
X15210Y6326D1*
X15227Y6227D1*
Y5653D1*
X15210Y5555D1*
X15160Y5469D1*
X15084Y5405D1*
X14990Y5371D1*
X14891Y5370D1*
X14797Y5404D1*
X14720Y5468D1*
X14671Y5555D1*
X14653Y5653D1*
Y6227D1*
G37*
G36*
X15653D2*
X15670Y6325D1*
X15720Y6411D1*
X15796Y6476D1*
X15890Y6510D1*
X15990D1*
X16083Y6476D1*
X16160Y6412D1*
X16210Y6326D1*
X16227Y6227D1*
Y5653D1*
X16210Y5555D1*
X16160Y5469D1*
X16084Y5405D1*
X15990Y5371D1*
X15891Y5370D1*
X15797Y5404D1*
X15720Y5468D1*
X15671Y5555D1*
X15653Y5653D1*
Y6227D1*
G37*
G36*
X16653D2*
X16670Y6325D1*
X16720Y6411D1*
X16796Y6476D1*
X16890Y6510D1*
X16990D1*
X17083Y6476D1*
X17160Y6412D1*
X17210Y6326D1*
X17227Y6227D1*
Y5653D1*
X17210Y5555D1*
X17160Y5469D1*
X17084Y5405D1*
X16990Y5371D1*
X16891Y5370D1*
X16797Y5404D1*
X16720Y5468D1*
X16671Y5555D1*
X16653Y5653D1*
Y6227D1*
G37*
G36*
X17653D2*
X17670Y6325D1*
X17720Y6411D1*
X17796Y6476D1*
X17890Y6510D1*
X17990D1*
X18083Y6476D1*
X18160Y6412D1*
X18210Y6326D1*
X18227Y6227D1*
Y5653D1*
X18210Y5555D1*
X18160Y5469D1*
X18084Y5405D1*
X17990Y5371D1*
X17891Y5370D1*
X17797Y5404D1*
X17720Y5468D1*
X17671Y5555D1*
X17653Y5653D1*
Y6227D1*
G37*
G36*
X18653D2*
X18670Y6325D1*
X18720Y6411D1*
X18796Y6476D1*
X18890Y6510D1*
X18990D1*
X19083Y6476D1*
X19160Y6412D1*
X19210Y6326D1*
X19227Y6227D1*
Y5653D1*
X19210Y5555D1*
X19160Y5469D1*
X19084Y5405D1*
X18990Y5371D1*
X18891Y5370D1*
X18797Y5404D1*
X18720Y5468D1*
X18671Y5555D1*
X18653Y5653D1*
Y6227D1*
G37*
G36*
X19653D2*
X19670Y6325D1*
X19720Y6411D1*
X19796Y6476D1*
X19890Y6510D1*
X19990D1*
X20083Y6476D1*
X20160Y6412D1*
X20210Y6326D1*
X20227Y6227D1*
Y5653D1*
X20210Y5555D1*
X20160Y5469D1*
X20084Y5405D1*
X19990Y5371D1*
X19891Y5370D1*
X19797Y5404D1*
X19720Y5468D1*
X19671Y5555D1*
X19653Y5653D1*
Y6227D1*
G37*
G36*
X20653D2*
X20670Y6325D1*
X20720Y6411D1*
X20796Y6476D1*
X20890Y6510D1*
X20990D1*
X21083Y6476D1*
X21160Y6412D1*
X21210Y6326D1*
X21227Y6227D1*
Y5653D1*
X21210Y5555D1*
X21160Y5469D1*
X21084Y5405D1*
X20990Y5371D1*
X20891Y5370D1*
X20797Y5404D1*
X20720Y5468D1*
X20671Y5555D1*
X20653Y5653D1*
Y6227D1*
G37*
G36*
X21653D2*
X21670Y6325D1*
X21720Y6411D1*
X21796Y6476D1*
X21890Y6510D1*
X21990D1*
X22083Y6476D1*
X22160Y6412D1*
X22210Y6326D1*
X22227Y6227D1*
Y5653D1*
X22210Y5555D1*
X22160Y5469D1*
X22084Y5405D1*
X21990Y5371D1*
X21891Y5370D1*
X21797Y5404D1*
X21720Y5468D1*
X21671Y5555D1*
X21653Y5653D1*
Y6227D1*
G37*
D17*
X17440Y10440D3*
D18*
X19440D3*
D17*
X21940D3*
D18*
X23940D3*
D19*
X10440Y20940D3*
D20*
X11440D3*
D19*
X10440Y17440D3*
D20*
X11440D3*
D19*
X10440Y13940D3*
D20*
X11440D3*
D19*
X10440Y10440D3*
D20*
X11440D3*
D19*
X10440Y6940D3*
D20*
X11440D3*
D19*
X25440Y19940D3*
D20*
X26440D3*
D19*
X25940Y13440D3*
D20*
X26940D3*
D18*
X7940Y20940D3*
D21*
X7153D3*
X6365D3*
X5578D3*
D18*
X8121Y17621D3*
D21*
X7334D3*
X6546D3*
X5759D3*
D18*
X8121Y13621D3*
D21*
X7334D3*
X6546D3*
X5759D3*
D18*
X8121Y10121D3*
D21*
X7334D3*
X6546D3*
X5759D3*
D18*
X7940Y6940D3*
D21*
X7153D3*
X6365D3*
X5578D3*
D18*
X28440Y15440D3*
D21*
Y16228D3*
Y17015D3*
Y17802D3*
D18*
Y8940D3*
D21*
Y9728D3*
Y10515D3*
Y11302D3*
D17*
X13940Y18940D3*
D18*
X14940D3*
D17*
X13940Y16940D3*
D18*
X14940D3*
D17*
X13940Y14440D3*
D18*
X14940D3*
D17*
X13940Y12440D3*
D18*
X14940D3*
D17*
X13940Y9940D3*
D18*
X14940D3*
D17*
X26440Y16440D3*
D18*
Y17440D3*
D17*
Y9940D3*
D18*
Y8940D3*
D22*
X16756Y18531D3*
D23*
Y17531D3*
Y16531D3*
Y15531D3*
Y14531D3*
Y13531D3*
Y12531D3*
X19756D3*
Y13531D3*
Y14531D3*
Y15531D3*
Y16531D3*
Y17531D3*
Y18531D3*
D22*
X21440Y18440D3*
D23*
Y17440D3*
Y16440D3*
Y15440D3*
Y14440D3*
Y13440D3*
Y12440D3*
X24440D3*
Y13440D3*
Y14440D3*
Y15440D3*
Y16440D3*
Y17440D3*
Y18440D3*
X48877Y5940D2*
D14*
Y4940D1*
Y5940D2*
D15*
Y6989D1*
X48617Y7249D1*
X46569D1*
X43877Y9940D1*
X56377Y16440D2*
Y9940D1*
X43877Y16940D2*
Y18940D1*
Y14440D2*
Y16940D1*
Y9940D2*
X43340D1*
X42875Y9476D1*
X40192D1*
X39932Y9735D1*
Y14180D1*
X40192Y14440D1*
X43877D1*
X51877Y4940D2*
D14*
Y5940D1*
X53877Y4940D2*
Y5940D1*
X54877Y4940D2*
Y5940D1*
X55877Y4940D2*
Y5940D1*
X56877Y4940D2*
Y5940D1*
X57877Y4940D2*
Y5940D1*
X35515Y20940D2*
D15*
Y18998D1*
X35696Y18816D1*
Y17621D1*
X58377Y17802D2*
X59147Y17033D1*
Y12072D1*
X58377Y11302D1*
X35696Y10121D2*
Y9442D1*
X35515Y9261D1*
Y6940D1*
X35696Y13621D2*
Y10121D1*
Y17621D2*
Y13621D1*
X58877Y4940D2*
D14*
Y5940D1*
X51377Y13440D2*
D15*
X54377D1*
X46693Y13531D2*
X47183Y14021D1*
Y17531D1*
X46693D1*
X54377Y13440D2*
X53107Y12170D1*
Y7933D1*
X53367Y7673D1*
X58617D1*
X58877Y7413D1*
Y5940D1*
Y22940D2*
D14*
Y23940D1*
X57877Y22940D2*
Y23940D1*
X56877Y22940D2*
Y23940D1*
X47223Y21005D2*
D15*
Y19061D1*
X46693Y18531D1*
X55877Y22940D2*
D14*
Y23940D1*
X46693Y14531D2*
D15*
X45943Y15281D1*
Y19450D1*
X43387D1*
X41377Y17440D1*
X55877Y22940D2*
D3*
X45943Y19450D2*
X46203Y19710D1*
Y21400D1*
X55877Y22940D2*
X55781D1*
Y21924D1*
X55257Y21400D1*
X44277Y22940D2*
D14*
Y23940D1*
X45277Y22940D2*
Y23940D1*
X50277Y22940D2*
Y23940D1*
X54377Y16440D2*
D15*
X53887Y16930D1*
Y19281D1*
X54022Y19416D1*
X50277D2*
Y22940D1*
X54022Y19416D2*
D3*
X47277Y22940D2*
D14*
Y23940D1*
X46277Y22940D2*
Y23940D1*
X49277Y22940D2*
Y23940D1*
X48277Y22940D2*
Y23940D1*
X54877Y22940D2*
Y23940D1*
Y22940D2*
D15*
X54862D1*
Y21267D1*
X53617Y20022D1*
Y14190D1*
X53358Y13930D1*
X50703D1*
X50443Y13670D1*
Y12791D1*
X50183Y12531D1*
X49693D1*
X53877Y22940D2*
D14*
Y23940D1*
Y22940D2*
D15*
Y22155D1*
X51377Y19655D1*
Y18440D1*
X50183Y17246D1*
Y13281D1*
X49924Y13021D1*
X41637D1*
X41377Y12761D1*
Y10440D1*
X52877Y22940D2*
D14*
Y23940D1*
Y22940D2*
D15*
Y21655D1*
X50759Y19537D1*
Y19281D1*
X50499Y19021D1*
X49463D1*
X49203Y18761D1*
Y14021D1*
X39537Y11815D2*
Y8780D1*
X41377Y6940D1*
X51877Y22940D2*
D14*
Y23940D1*
X56176Y21795D2*
D15*
X56117Y21737D1*
Y20645D1*
X56377Y20385D1*
Y19940D1*
X56117Y20645D2*
X55857Y20385D1*
X55127D1*
X54867Y20125D1*
Y12930D1*
X54377Y12440D1*
X49877Y4940D2*
D14*
Y5940D1*
X51377Y12440D2*
D15*
X50508Y11571D1*
X49974D1*
X47653D1*
X46693Y12531D1*
X49877Y5940D2*
Y7460D1*
X49974Y7557D1*
Y11571D1*
X45877Y4940D2*
D14*
Y5940D1*
X44877Y4940D2*
Y5940D1*
X42277Y22940D2*
Y23940D1*
X41277Y22940D2*
Y23940D1*
X43277Y22940D2*
Y23940D1*
X47877Y4940D2*
Y5940D1*
X50877D2*
Y4940D1*
X46877Y5940D2*
Y4940D1*
X44877Y14440D2*
D15*
X43718Y13281D1*
X41037D1*
X40377Y13940D1*
X38703Y16021D2*
Y6690D1*
X38443Y6430D1*
X36812D1*
X36302Y6940D1*
X50703Y16021D2*
Y15440D1*
X51377D1*
X44877Y12440D2*
Y12506D1*
X43321Y10950D1*
X43065D1*
X42110Y9995D1*
X40822D1*
X40377Y10440D1*
X53877D2*
X55887Y8430D1*
X57357D1*
X57867Y8940D1*
X57607Y9200D1*
Y14670D1*
X58377Y15440D1*
X37877Y6940D2*
Y9001D1*
X38058Y9182D1*
Y10121D1*
Y17621D2*
Y18560D1*
X37877Y18741D1*
Y20940D1*
X38058Y13621D2*
Y17621D1*
Y10121D2*
Y13621D1*
X58377Y8940D2*
X57867D1*
X37090Y6940D2*
Y7942D1*
X37271Y8123D1*
Y10121D1*
X58377Y9728D2*
X57867Y10237D1*
Y13498D1*
X58887Y14517D1*
Y15913D1*
X58572Y16228D1*
X58377D1*
X37271Y17621D2*
Y19236D1*
X37090Y19417D1*
Y20940D1*
X37271Y13621D2*
Y17621D1*
Y10121D2*
Y13621D1*
X58377Y16228D2*
D3*
X56377Y17440D2*
X55377Y18440D1*
Y19940D1*
X56377Y8940D2*
X55432Y9885D1*
Y12995D1*
X55877Y13440D1*
D24*
X47223Y21005D3*
X55257Y21400D3*
X46203D3*
X50277Y19416D3*
X54022D3*
X49203Y14021D3*
X39537Y11815D3*
X56176Y21795D3*
X38703Y16021D3*
X50703D3*
G36*
X53577Y5240D2*
X53595Y5343D1*
X53647Y5433D1*
X53727Y5500D1*
X53825Y5536D1*
X53929D1*
X54027Y5500D1*
X54107Y5433D1*
X54159Y5343D1*
X54177Y5240D1*
Y4640D1*
X54159Y4538D1*
X54107Y4448D1*
X54027Y4380D1*
X53930Y4345D1*
X53825D1*
X53727Y4380D1*
X53648Y4447D1*
X53595Y4537D1*
X53577Y4640D1*
Y5240D1*
G37*
G36*
X54577D2*
X54595Y5343D1*
X54647Y5433D1*
X54727Y5500D1*
X54825Y5536D1*
X54929D1*
X55027Y5500D1*
X55107Y5433D1*
X55159Y5343D1*
X55177Y5240D1*
Y4640D1*
X55159Y4538D1*
X55107Y4448D1*
X55027Y4380D1*
X54930Y4345D1*
X54825D1*
X54727Y4380D1*
X54648Y4447D1*
X54595Y4537D1*
X54577Y4640D1*
Y5240D1*
G37*
G36*
X55577D2*
X55595Y5343D1*
X55647Y5433D1*
X55727Y5500D1*
X55825Y5536D1*
X55929D1*
X56027Y5500D1*
X56107Y5433D1*
X56159Y5343D1*
X56177Y5240D1*
Y4640D1*
X56159Y4538D1*
X56107Y4448D1*
X56027Y4380D1*
X55930Y4345D1*
X55825D1*
X55727Y4380D1*
X55648Y4447D1*
X55595Y4537D1*
X55577Y4640D1*
Y5240D1*
G37*
G36*
X56577D2*
X56595Y5343D1*
X56647Y5433D1*
X56727Y5500D1*
X56825Y5536D1*
X56929D1*
X57027Y5500D1*
X57107Y5433D1*
X57159Y5343D1*
X57177Y5240D1*
Y4640D1*
X57159Y4538D1*
X57107Y4448D1*
X57027Y4380D1*
X56930Y4345D1*
X56825D1*
X56727Y4380D1*
X56648Y4447D1*
X56595Y4537D1*
X56577Y4640D1*
Y5240D1*
G37*
G36*
X57577D2*
X57595Y5343D1*
X57647Y5433D1*
X57727Y5500D1*
X57825Y5536D1*
X57929D1*
X58027Y5500D1*
X58107Y5433D1*
X58159Y5343D1*
X58177Y5240D1*
Y4640D1*
X58159Y4538D1*
X58107Y4448D1*
X58027Y4380D1*
X57930Y4345D1*
X57825D1*
X57727Y4380D1*
X57648Y4447D1*
X57595Y4537D1*
X57577Y4640D1*
Y5240D1*
G37*
G36*
X58577D2*
X58595Y5343D1*
X58647Y5433D1*
X58727Y5500D1*
X58825Y5536D1*
X58929D1*
X59027Y5500D1*
X59107Y5433D1*
X59159Y5343D1*
X59177Y5240D1*
Y4640D1*
X59159Y4538D1*
X59107Y4448D1*
X59027Y4380D1*
X58930Y4345D1*
X58825D1*
X58727Y4380D1*
X58648Y4447D1*
X58595Y4537D1*
X58577Y4640D1*
Y5240D1*
G37*
G36*
X59164Y23653D2*
X59147Y23555D1*
X59097Y23469D1*
X59021Y23405D1*
X58927Y23371D1*
X58828Y23370D1*
X58734Y23404D1*
X58657Y23468D1*
X58608Y23555D1*
X58590Y23653D1*
Y24227D1*
X58607Y24325D1*
X58657Y24411D1*
X58733Y24476D1*
X58827Y24510D1*
X58927D1*
X59020Y24476D1*
X59097Y24412D1*
X59147Y24326D1*
X59164Y24227D1*
Y23653D1*
G37*
G36*
X58164D2*
X58147Y23555D1*
X58097Y23469D1*
X58021Y23405D1*
X57927Y23371D1*
X57828Y23370D1*
X57734Y23404D1*
X57657Y23468D1*
X57608Y23555D1*
X57590Y23653D1*
Y24227D1*
X57607Y24325D1*
X57657Y24411D1*
X57733Y24476D1*
X57827Y24510D1*
X57927D1*
X58020Y24476D1*
X58097Y24412D1*
X58147Y24326D1*
X58164Y24227D1*
Y23653D1*
G37*
G36*
X57164D2*
X57147Y23555D1*
X57097Y23469D1*
X57021Y23405D1*
X56927Y23371D1*
X56828Y23370D1*
X56734Y23404D1*
X56657Y23468D1*
X56608Y23555D1*
X56590Y23653D1*
Y24227D1*
X56607Y24325D1*
X56657Y24411D1*
X56733Y24476D1*
X56827Y24510D1*
X56927D1*
X57020Y24476D1*
X57097Y24412D1*
X57147Y24326D1*
X57164Y24227D1*
Y23653D1*
G37*
G36*
X56164D2*
X56147Y23555D1*
X56097Y23469D1*
X56021Y23405D1*
X55927Y23371D1*
X55828Y23370D1*
X55734Y23404D1*
X55657Y23468D1*
X55608Y23555D1*
X55590Y23653D1*
Y24227D1*
X55607Y24325D1*
X55657Y24411D1*
X55733Y24476D1*
X55827Y24510D1*
X55927D1*
X56020Y24476D1*
X56097Y24412D1*
X56147Y24326D1*
X56164Y24227D1*
Y23653D1*
G37*
G36*
X55164D2*
X55147Y23555D1*
X55097Y23469D1*
X55021Y23405D1*
X54927Y23371D1*
X54828Y23370D1*
X54734Y23404D1*
X54657Y23468D1*
X54608Y23555D1*
X54590Y23653D1*
Y24227D1*
X54607Y24325D1*
X54657Y24411D1*
X54733Y24476D1*
X54827Y24510D1*
X54927D1*
X55020Y24476D1*
X55097Y24412D1*
X55147Y24326D1*
X55164Y24227D1*
Y23653D1*
G37*
G36*
X54164D2*
X54147Y23555D1*
X54097Y23469D1*
X54021Y23405D1*
X53927Y23371D1*
X53828Y23370D1*
X53734Y23404D1*
X53657Y23468D1*
X53608Y23555D1*
X53590Y23653D1*
Y24227D1*
X53607Y24325D1*
X53657Y24411D1*
X53733Y24476D1*
X53827Y24510D1*
X53927D1*
X54020Y24476D1*
X54097Y24412D1*
X54147Y24326D1*
X54164Y24227D1*
Y23653D1*
G37*
G36*
X53164D2*
X53147Y23555D1*
X53097Y23469D1*
X53021Y23405D1*
X52927Y23371D1*
X52828Y23370D1*
X52734Y23404D1*
X52657Y23468D1*
X52608Y23555D1*
X52590Y23653D1*
Y24227D1*
X52607Y24325D1*
X52657Y24411D1*
X52733Y24476D1*
X52827Y24510D1*
X52927D1*
X53020Y24476D1*
X53097Y24412D1*
X53147Y24326D1*
X53164Y24227D1*
Y23653D1*
G37*
G36*
X52164D2*
X52147Y23555D1*
X52097Y23469D1*
X52021Y23405D1*
X51927Y23371D1*
X51828Y23370D1*
X51734Y23404D1*
X51657Y23468D1*
X51608Y23555D1*
X51590Y23653D1*
Y24227D1*
X51607Y24325D1*
X51657Y24411D1*
X51733Y24476D1*
X51827Y24510D1*
X51927D1*
X52020Y24476D1*
X52097Y24412D1*
X52147Y24326D1*
X52164Y24227D1*
Y23653D1*
G37*
G36*
X44590Y5227D2*
X44607Y5325D1*
X44657Y5411D1*
X44733Y5476D1*
X44827Y5510D1*
X44927D1*
X45020Y5476D1*
X45097Y5412D1*
X45147Y5326D1*
X45164Y5227D1*
Y4653D1*
X45147Y4555D1*
X45097Y4469D1*
X45021Y4405D1*
X44927Y4371D1*
X44828Y4370D1*
X44734Y4404D1*
X44657Y4468D1*
X44608Y4555D1*
X44590Y4653D1*
Y5227D1*
G37*
G36*
X45590D2*
X45607Y5325D1*
X45657Y5411D1*
X45733Y5476D1*
X45827Y5510D1*
X45927D1*
X46020Y5476D1*
X46097Y5412D1*
X46147Y5326D1*
X46164Y5227D1*
Y4653D1*
X46147Y4555D1*
X46097Y4469D1*
X46021Y4405D1*
X45927Y4371D1*
X45828Y4370D1*
X45734Y4404D1*
X45657Y4468D1*
X45608Y4555D1*
X45590Y4653D1*
Y5227D1*
G37*
G36*
X46590D2*
X46607Y5325D1*
X46657Y5411D1*
X46733Y5476D1*
X46827Y5510D1*
X46927D1*
X47020Y5476D1*
X47097Y5412D1*
X47147Y5326D1*
X47164Y5227D1*
Y4653D1*
X47147Y4555D1*
X47097Y4469D1*
X47021Y4405D1*
X46927Y4371D1*
X46828Y4370D1*
X46734Y4404D1*
X46657Y4468D1*
X46608Y4555D1*
X46590Y4653D1*
Y5227D1*
G37*
G36*
X47590D2*
X47607Y5325D1*
X47657Y5411D1*
X47733Y5476D1*
X47827Y5510D1*
X47927D1*
X48020Y5476D1*
X48097Y5412D1*
X48147Y5326D1*
X48164Y5227D1*
Y4653D1*
X48147Y4555D1*
X48097Y4469D1*
X48021Y4405D1*
X47927Y4371D1*
X47828Y4370D1*
X47734Y4404D1*
X47657Y4468D1*
X47608Y4555D1*
X47590Y4653D1*
Y5227D1*
G37*
G36*
X48590D2*
X48607Y5325D1*
X48657Y5411D1*
X48733Y5476D1*
X48827Y5510D1*
X48927D1*
X49020Y5476D1*
X49097Y5412D1*
X49147Y5326D1*
X49164Y5227D1*
Y4653D1*
X49147Y4555D1*
X49097Y4469D1*
X49021Y4405D1*
X48927Y4371D1*
X48828Y4370D1*
X48734Y4404D1*
X48657Y4468D1*
X48608Y4555D1*
X48590Y4653D1*
Y5227D1*
G37*
G36*
X49590D2*
X49607Y5325D1*
X49657Y5411D1*
X49733Y5476D1*
X49827Y5510D1*
X49927D1*
X50020Y5476D1*
X50097Y5412D1*
X50147Y5326D1*
X50164Y5227D1*
Y4653D1*
X50147Y4555D1*
X50097Y4469D1*
X50021Y4405D1*
X49927Y4371D1*
X49828Y4370D1*
X49734Y4404D1*
X49657Y4468D1*
X49608Y4555D1*
X49590Y4653D1*
Y5227D1*
G37*
G36*
X50590D2*
X50607Y5325D1*
X50657Y5411D1*
X50733Y5476D1*
X50827Y5510D1*
X50927D1*
X51020Y5476D1*
X51097Y5412D1*
X51147Y5326D1*
X51164Y5227D1*
Y4653D1*
X51147Y4555D1*
X51097Y4469D1*
X51021Y4405D1*
X50927Y4371D1*
X50828Y4370D1*
X50734Y4404D1*
X50657Y4468D1*
X50608Y4555D1*
X50590Y4653D1*
Y5227D1*
G37*
G36*
X51590D2*
X51607Y5325D1*
X51657Y5411D1*
X51733Y5476D1*
X51827Y5510D1*
X51927D1*
X52020Y5476D1*
X52097Y5412D1*
X52147Y5326D1*
X52164Y5227D1*
Y4653D1*
X52147Y4555D1*
X52097Y4469D1*
X52021Y4405D1*
X51927Y4371D1*
X51828Y4370D1*
X51734Y4404D1*
X51657Y4468D1*
X51608Y4555D1*
X51590Y4653D1*
Y5227D1*
G37*
G36*
X50564Y23653D2*
X50547Y23555D1*
X50497Y23469D1*
X50421Y23405D1*
X50327Y23371D1*
X50228Y23370D1*
X50134Y23404D1*
X50057Y23468D1*
X50008Y23555D1*
X49990Y23653D1*
Y24227D1*
X50007Y24325D1*
X50057Y24411D1*
X50133Y24476D1*
X50227Y24510D1*
X50327D1*
X50420Y24476D1*
X50497Y24412D1*
X50547Y24326D1*
X50564Y24227D1*
Y23653D1*
G37*
G36*
X49564D2*
X49547Y23555D1*
X49497Y23469D1*
X49421Y23405D1*
X49327Y23371D1*
X49228Y23370D1*
X49134Y23404D1*
X49057Y23468D1*
X49008Y23555D1*
X48990Y23653D1*
Y24227D1*
X49007Y24325D1*
X49057Y24411D1*
X49133Y24476D1*
X49227Y24510D1*
X49327D1*
X49420Y24476D1*
X49497Y24412D1*
X49547Y24326D1*
X49564Y24227D1*
Y23653D1*
G37*
G36*
X48564D2*
X48547Y23555D1*
X48497Y23469D1*
X48421Y23405D1*
X48327Y23371D1*
X48228Y23370D1*
X48134Y23404D1*
X48057Y23468D1*
X48008Y23555D1*
X47990Y23653D1*
Y24227D1*
X48007Y24325D1*
X48057Y24411D1*
X48133Y24476D1*
X48227Y24510D1*
X48327D1*
X48420Y24476D1*
X48497Y24412D1*
X48547Y24326D1*
X48564Y24227D1*
Y23653D1*
G37*
G36*
X47564D2*
X47547Y23555D1*
X47497Y23469D1*
X47421Y23405D1*
X47327Y23371D1*
X47228Y23370D1*
X47134Y23404D1*
X47057Y23468D1*
X47008Y23555D1*
X46990Y23653D1*
Y24227D1*
X47007Y24325D1*
X47057Y24411D1*
X47133Y24476D1*
X47227Y24510D1*
X47327D1*
X47420Y24476D1*
X47497Y24412D1*
X47547Y24326D1*
X47564Y24227D1*
Y23653D1*
G37*
G36*
X46564D2*
X46547Y23555D1*
X46497Y23469D1*
X46421Y23405D1*
X46327Y23371D1*
X46228Y23370D1*
X46134Y23404D1*
X46057Y23468D1*
X46008Y23555D1*
X45990Y23653D1*
Y24227D1*
X46007Y24325D1*
X46057Y24411D1*
X46133Y24476D1*
X46227Y24510D1*
X46327D1*
X46420Y24476D1*
X46497Y24412D1*
X46547Y24326D1*
X46564Y24227D1*
Y23653D1*
G37*
G36*
X45564D2*
X45547Y23555D1*
X45497Y23469D1*
X45421Y23405D1*
X45327Y23371D1*
X45228Y23370D1*
X45134Y23404D1*
X45057Y23468D1*
X45008Y23555D1*
X44990Y23653D1*
Y24227D1*
X45007Y24325D1*
X45057Y24411D1*
X45133Y24476D1*
X45227Y24510D1*
X45327D1*
X45420Y24476D1*
X45497Y24412D1*
X45547Y24326D1*
X45564Y24227D1*
Y23653D1*
G37*
G36*
X44564D2*
X44547Y23555D1*
X44497Y23469D1*
X44421Y23405D1*
X44327Y23371D1*
X44228Y23370D1*
X44134Y23404D1*
X44057Y23468D1*
X44008Y23555D1*
X43990Y23653D1*
Y24227D1*
X44007Y24325D1*
X44057Y24411D1*
X44133Y24476D1*
X44227Y24510D1*
X44327D1*
X44420Y24476D1*
X44497Y24412D1*
X44547Y24326D1*
X44564Y24227D1*
Y23653D1*
G37*
G36*
X43564D2*
X43547Y23555D1*
X43497Y23469D1*
X43421Y23405D1*
X43327Y23371D1*
X43228Y23370D1*
X43134Y23404D1*
X43057Y23468D1*
X43008Y23555D1*
X42990Y23653D1*
Y24227D1*
X43007Y24325D1*
X43057Y24411D1*
X43133Y24476D1*
X43227Y24510D1*
X43327D1*
X43420Y24476D1*
X43497Y24412D1*
X43547Y24326D1*
X43564Y24227D1*
Y23653D1*
G37*
G36*
X42564D2*
X42547Y23555D1*
X42497Y23469D1*
X42421Y23405D1*
X42327Y23371D1*
X42228Y23370D1*
X42134Y23404D1*
X42057Y23468D1*
X42008Y23555D1*
X41990Y23653D1*
Y24227D1*
X42007Y24325D1*
X42057Y24411D1*
X42133Y24476D1*
X42227Y24510D1*
X42327D1*
X42420Y24476D1*
X42497Y24412D1*
X42547Y24326D1*
X42564Y24227D1*
Y23653D1*
G37*
G36*
X41564D2*
X41547Y23555D1*
X41497Y23469D1*
X41421Y23405D1*
X41327Y23371D1*
X41228Y23370D1*
X41134Y23404D1*
X41057Y23468D1*
X41008Y23555D1*
X40990Y23653D1*
Y24227D1*
X41007Y24325D1*
X41057Y24411D1*
X41133Y24476D1*
X41227Y24510D1*
X41327D1*
X41420Y24476D1*
X41497Y24412D1*
X41547Y24326D1*
X41564Y24227D1*
Y23653D1*
G37*
G36*
X50564Y22653D2*
X50547Y22555D1*
X50497Y22469D1*
X50421Y22405D1*
X50327Y22371D1*
X50228Y22370D1*
X50134Y22404D1*
X50057Y22468D1*
X50008Y22555D1*
X49990Y22653D1*
Y23227D1*
X50007Y23325D1*
X50057Y23411D1*
X50133Y23476D1*
X50227Y23510D1*
X50327D1*
X50420Y23476D1*
X50497Y23412D1*
X50547Y23326D1*
X50564Y23227D1*
Y22653D1*
G37*
G36*
X49564D2*
X49547Y22555D1*
X49497Y22469D1*
X49421Y22405D1*
X49327Y22371D1*
X49228Y22370D1*
X49134Y22404D1*
X49057Y22468D1*
X49008Y22555D1*
X48990Y22653D1*
Y23227D1*
X49007Y23325D1*
X49057Y23411D1*
X49133Y23476D1*
X49227Y23510D1*
X49327D1*
X49420Y23476D1*
X49497Y23412D1*
X49547Y23326D1*
X49564Y23227D1*
Y22653D1*
G37*
G36*
X48564D2*
X48547Y22555D1*
X48497Y22469D1*
X48421Y22405D1*
X48327Y22371D1*
X48228Y22370D1*
X48134Y22404D1*
X48057Y22468D1*
X48008Y22555D1*
X47990Y22653D1*
Y23227D1*
X48007Y23325D1*
X48057Y23411D1*
X48133Y23476D1*
X48227Y23510D1*
X48327D1*
X48420Y23476D1*
X48497Y23412D1*
X48547Y23326D1*
X48564Y23227D1*
Y22653D1*
G37*
G36*
X47564D2*
X47547Y22555D1*
X47497Y22469D1*
X47421Y22405D1*
X47327Y22371D1*
X47228Y22370D1*
X47134Y22404D1*
X47057Y22468D1*
X47008Y22555D1*
X46990Y22653D1*
Y23227D1*
X47007Y23325D1*
X47057Y23411D1*
X47133Y23476D1*
X47227Y23510D1*
X47327D1*
X47420Y23476D1*
X47497Y23412D1*
X47547Y23326D1*
X47564Y23227D1*
Y22653D1*
G37*
G36*
X46564D2*
X46547Y22555D1*
X46497Y22469D1*
X46421Y22405D1*
X46327Y22371D1*
X46228Y22370D1*
X46134Y22404D1*
X46057Y22468D1*
X46008Y22555D1*
X45990Y22653D1*
Y23227D1*
X46007Y23325D1*
X46057Y23411D1*
X46133Y23476D1*
X46227Y23510D1*
X46327D1*
X46420Y23476D1*
X46497Y23412D1*
X46547Y23326D1*
X46564Y23227D1*
Y22653D1*
G37*
G36*
X45564D2*
X45547Y22555D1*
X45497Y22469D1*
X45421Y22405D1*
X45327Y22371D1*
X45228Y22370D1*
X45134Y22404D1*
X45057Y22468D1*
X45008Y22555D1*
X44990Y22653D1*
Y23227D1*
X45007Y23325D1*
X45057Y23411D1*
X45133Y23476D1*
X45227Y23510D1*
X45327D1*
X45420Y23476D1*
X45497Y23412D1*
X45547Y23326D1*
X45564Y23227D1*
Y22653D1*
G37*
G36*
X44564D2*
X44547Y22555D1*
X44497Y22469D1*
X44421Y22405D1*
X44327Y22371D1*
X44228Y22370D1*
X44134Y22404D1*
X44057Y22468D1*
X44008Y22555D1*
X43990Y22653D1*
Y23227D1*
X44007Y23325D1*
X44057Y23411D1*
X44133Y23476D1*
X44227Y23510D1*
X44327D1*
X44420Y23476D1*
X44497Y23412D1*
X44547Y23326D1*
X44564Y23227D1*
Y22653D1*
G37*
G36*
X43564D2*
X43547Y22555D1*
X43497Y22469D1*
X43421Y22405D1*
X43327Y22371D1*
X43228Y22370D1*
X43134Y22404D1*
X43057Y22468D1*
X43008Y22555D1*
X42990Y22653D1*
Y23227D1*
X43007Y23325D1*
X43057Y23411D1*
X43133Y23476D1*
X43227Y23510D1*
X43327D1*
X43420Y23476D1*
X43497Y23412D1*
X43547Y23326D1*
X43564Y23227D1*
Y22653D1*
G37*
G36*
X42564D2*
X42547Y22555D1*
X42497Y22469D1*
X42421Y22405D1*
X42327Y22371D1*
X42228Y22370D1*
X42134Y22404D1*
X42057Y22468D1*
X42008Y22555D1*
X41990Y22653D1*
Y23227D1*
X42007Y23325D1*
X42057Y23411D1*
X42133Y23476D1*
X42227Y23510D1*
X42327D1*
X42420Y23476D1*
X42497Y23412D1*
X42547Y23326D1*
X42564Y23227D1*
Y22653D1*
G37*
G36*
X41564D2*
X41547Y22555D1*
X41497Y22469D1*
X41421Y22405D1*
X41327Y22371D1*
X41228Y22370D1*
X41134Y22404D1*
X41057Y22468D1*
X41008Y22555D1*
X40990Y22653D1*
Y23227D1*
X41007Y23325D1*
X41057Y23411D1*
X41133Y23476D1*
X41227Y23510D1*
X41327D1*
X41420Y23476D1*
X41497Y23412D1*
X41547Y23326D1*
X41564Y23227D1*
Y22653D1*
G37*
G36*
X59164D2*
X59147Y22555D1*
X59097Y22469D1*
X59021Y22405D1*
X58927Y22371D1*
X58828Y22370D1*
X58734Y22404D1*
X58657Y22468D1*
X58608Y22555D1*
X58590Y22653D1*
Y23227D1*
X58607Y23325D1*
X58657Y23411D1*
X58733Y23476D1*
X58827Y23510D1*
X58927D1*
X59020Y23476D1*
X59097Y23412D1*
X59147Y23326D1*
X59164Y23227D1*
Y22653D1*
G37*
G36*
X58164D2*
X58147Y22555D1*
X58097Y22469D1*
X58021Y22405D1*
X57927Y22371D1*
X57828Y22370D1*
X57734Y22404D1*
X57657Y22468D1*
X57608Y22555D1*
X57590Y22653D1*
Y23227D1*
X57607Y23325D1*
X57657Y23411D1*
X57733Y23476D1*
X57827Y23510D1*
X57927D1*
X58020Y23476D1*
X58097Y23412D1*
X58147Y23326D1*
X58164Y23227D1*
Y22653D1*
G37*
G36*
X57164D2*
X57147Y22555D1*
X57097Y22469D1*
X57021Y22405D1*
X56927Y22371D1*
X56828Y22370D1*
X56734Y22404D1*
X56657Y22468D1*
X56608Y22555D1*
X56590Y22653D1*
Y23227D1*
X56607Y23325D1*
X56657Y23411D1*
X56733Y23476D1*
X56827Y23510D1*
X56927D1*
X57020Y23476D1*
X57097Y23412D1*
X57147Y23326D1*
X57164Y23227D1*
Y22653D1*
G37*
G36*
X56164D2*
X56147Y22555D1*
X56097Y22469D1*
X56021Y22405D1*
X55927Y22371D1*
X55828Y22370D1*
X55734Y22404D1*
X55657Y22468D1*
X55608Y22555D1*
X55590Y22653D1*
Y23227D1*
X55607Y23325D1*
X55657Y23411D1*
X55733Y23476D1*
X55827Y23510D1*
X55927D1*
X56020Y23476D1*
X56097Y23412D1*
X56147Y23326D1*
X56164Y23227D1*
Y22653D1*
G37*
G36*
X55164D2*
X55147Y22555D1*
X55097Y22469D1*
X55021Y22405D1*
X54927Y22371D1*
X54828Y22370D1*
X54734Y22404D1*
X54657Y22468D1*
X54608Y22555D1*
X54590Y22653D1*
Y23227D1*
X54607Y23325D1*
X54657Y23411D1*
X54733Y23476D1*
X54827Y23510D1*
X54927D1*
X55020Y23476D1*
X55097Y23412D1*
X55147Y23326D1*
X55164Y23227D1*
Y22653D1*
G37*
G36*
X54164D2*
X54147Y22555D1*
X54097Y22469D1*
X54021Y22405D1*
X53927Y22371D1*
X53828Y22370D1*
X53734Y22404D1*
X53657Y22468D1*
X53608Y22555D1*
X53590Y22653D1*
Y23227D1*
X53607Y23325D1*
X53657Y23411D1*
X53733Y23476D1*
X53827Y23510D1*
X53927D1*
X54020Y23476D1*
X54097Y23412D1*
X54147Y23326D1*
X54164Y23227D1*
Y22653D1*
G37*
G36*
X53164D2*
X53147Y22555D1*
X53097Y22469D1*
X53021Y22405D1*
X52927Y22371D1*
X52828Y22370D1*
X52734Y22404D1*
X52657Y22468D1*
X52608Y22555D1*
X52590Y22653D1*
Y23227D1*
X52607Y23325D1*
X52657Y23411D1*
X52733Y23476D1*
X52827Y23510D1*
X52927D1*
X53020Y23476D1*
X53097Y23412D1*
X53147Y23326D1*
X53164Y23227D1*
Y22653D1*
G37*
G36*
X52164D2*
X52147Y22555D1*
X52097Y22469D1*
X52021Y22405D1*
X51927Y22371D1*
X51828Y22370D1*
X51734Y22404D1*
X51657Y22468D1*
X51608Y22555D1*
X51590Y22653D1*
Y23227D1*
X51607Y23325D1*
X51657Y23411D1*
X51733Y23476D1*
X51827Y23510D1*
X51927D1*
X52020Y23476D1*
X52097Y23412D1*
X52147Y23326D1*
X52164Y23227D1*
Y22653D1*
G37*
G36*
X53577Y6240D2*
X53595Y6343D1*
X53647Y6433D1*
X53727Y6500D1*
X53825Y6536D1*
X53929D1*
X54027Y6500D1*
X54107Y6433D1*
X54159Y6343D1*
X54177Y6240D1*
Y5640D1*
X54159Y5538D1*
X54107Y5448D1*
X54027Y5380D1*
X53930Y5345D1*
X53825D1*
X53727Y5380D1*
X53648Y5447D1*
X53595Y5537D1*
X53577Y5640D1*
Y6240D1*
G37*
G36*
X54577D2*
X54595Y6343D1*
X54647Y6433D1*
X54727Y6500D1*
X54825Y6536D1*
X54929D1*
X55027Y6500D1*
X55107Y6433D1*
X55159Y6343D1*
X55177Y6240D1*
Y5640D1*
X55159Y5538D1*
X55107Y5448D1*
X55027Y5380D1*
X54930Y5345D1*
X54825D1*
X54727Y5380D1*
X54648Y5447D1*
X54595Y5537D1*
X54577Y5640D1*
Y6240D1*
G37*
G36*
X55577D2*
X55595Y6343D1*
X55647Y6433D1*
X55727Y6500D1*
X55825Y6536D1*
X55929D1*
X56027Y6500D1*
X56107Y6433D1*
X56159Y6343D1*
X56177Y6240D1*
Y5640D1*
X56159Y5538D1*
X56107Y5448D1*
X56027Y5380D1*
X55930Y5345D1*
X55825D1*
X55727Y5380D1*
X55648Y5447D1*
X55595Y5537D1*
X55577Y5640D1*
Y6240D1*
G37*
G36*
X56577D2*
X56595Y6343D1*
X56647Y6433D1*
X56727Y6500D1*
X56825Y6536D1*
X56929D1*
X57027Y6500D1*
X57107Y6433D1*
X57159Y6343D1*
X57177Y6240D1*
Y5640D1*
X57159Y5538D1*
X57107Y5448D1*
X57027Y5380D1*
X56930Y5345D1*
X56825D1*
X56727Y5380D1*
X56648Y5447D1*
X56595Y5537D1*
X56577Y5640D1*
Y6240D1*
G37*
G36*
X57577D2*
X57595Y6343D1*
X57647Y6433D1*
X57727Y6500D1*
X57825Y6536D1*
X57929D1*
X58027Y6500D1*
X58107Y6433D1*
X58159Y6343D1*
X58177Y6240D1*
Y5640D1*
X58159Y5538D1*
X58107Y5448D1*
X58027Y5380D1*
X57930Y5345D1*
X57825D1*
X57727Y5380D1*
X57648Y5447D1*
X57595Y5537D1*
X57577Y5640D1*
Y6240D1*
G37*
G36*
X58577D2*
X58595Y6343D1*
X58647Y6433D1*
X58727Y6500D1*
X58825Y6536D1*
X58929D1*
X59027Y6500D1*
X59107Y6433D1*
X59159Y6343D1*
X59177Y6240D1*
Y5640D1*
X59159Y5538D1*
X59107Y5448D1*
X59027Y5380D1*
X58930Y5345D1*
X58825D1*
X58727Y5380D1*
X58648Y5447D1*
X58595Y5537D1*
X58577Y5640D1*
Y6240D1*
G37*
G36*
X44590Y6227D2*
X44607Y6325D1*
X44657Y6411D1*
X44733Y6476D1*
X44827Y6510D1*
X44927D1*
X45020Y6476D1*
X45097Y6412D1*
X45147Y6326D1*
X45164Y6227D1*
Y5653D1*
X45147Y5555D1*
X45097Y5469D1*
X45021Y5405D1*
X44927Y5371D1*
X44828Y5370D1*
X44734Y5404D1*
X44657Y5468D1*
X44608Y5555D1*
X44590Y5653D1*
Y6227D1*
G37*
G36*
X45590D2*
X45607Y6325D1*
X45657Y6411D1*
X45733Y6476D1*
X45827Y6510D1*
X45927D1*
X46020Y6476D1*
X46097Y6412D1*
X46147Y6326D1*
X46164Y6227D1*
Y5653D1*
X46147Y5555D1*
X46097Y5469D1*
X46021Y5405D1*
X45927Y5371D1*
X45828Y5370D1*
X45734Y5404D1*
X45657Y5468D1*
X45608Y5555D1*
X45590Y5653D1*
Y6227D1*
G37*
G36*
X46590D2*
X46607Y6325D1*
X46657Y6411D1*
X46733Y6476D1*
X46827Y6510D1*
X46927D1*
X47020Y6476D1*
X47097Y6412D1*
X47147Y6326D1*
X47164Y6227D1*
Y5653D1*
X47147Y5555D1*
X47097Y5469D1*
X47021Y5405D1*
X46927Y5371D1*
X46828Y5370D1*
X46734Y5404D1*
X46657Y5468D1*
X46608Y5555D1*
X46590Y5653D1*
Y6227D1*
G37*
G36*
X47590D2*
X47607Y6325D1*
X47657Y6411D1*
X47733Y6476D1*
X47827Y6510D1*
X47927D1*
X48020Y6476D1*
X48097Y6412D1*
X48147Y6326D1*
X48164Y6227D1*
Y5653D1*
X48147Y5555D1*
X48097Y5469D1*
X48021Y5405D1*
X47927Y5371D1*
X47828Y5370D1*
X47734Y5404D1*
X47657Y5468D1*
X47608Y5555D1*
X47590Y5653D1*
Y6227D1*
G37*
G36*
X48590D2*
X48607Y6325D1*
X48657Y6411D1*
X48733Y6476D1*
X48827Y6510D1*
X48927D1*
X49020Y6476D1*
X49097Y6412D1*
X49147Y6326D1*
X49164Y6227D1*
Y5653D1*
X49147Y5555D1*
X49097Y5469D1*
X49021Y5405D1*
X48927Y5371D1*
X48828Y5370D1*
X48734Y5404D1*
X48657Y5468D1*
X48608Y5555D1*
X48590Y5653D1*
Y6227D1*
G37*
G36*
X49590D2*
X49607Y6325D1*
X49657Y6411D1*
X49733Y6476D1*
X49827Y6510D1*
X49927D1*
X50020Y6476D1*
X50097Y6412D1*
X50147Y6326D1*
X50164Y6227D1*
Y5653D1*
X50147Y5555D1*
X50097Y5469D1*
X50021Y5405D1*
X49927Y5371D1*
X49828Y5370D1*
X49734Y5404D1*
X49657Y5468D1*
X49608Y5555D1*
X49590Y5653D1*
Y6227D1*
G37*
G36*
X50590D2*
X50607Y6325D1*
X50657Y6411D1*
X50733Y6476D1*
X50827Y6510D1*
X50927D1*
X51020Y6476D1*
X51097Y6412D1*
X51147Y6326D1*
X51164Y6227D1*
Y5653D1*
X51147Y5555D1*
X51097Y5469D1*
X51021Y5405D1*
X50927Y5371D1*
X50828Y5370D1*
X50734Y5404D1*
X50657Y5468D1*
X50608Y5555D1*
X50590Y5653D1*
Y6227D1*
G37*
G36*
X51590D2*
X51607Y6325D1*
X51657Y6411D1*
X51733Y6476D1*
X51827Y6510D1*
X51927D1*
X52020Y6476D1*
X52097Y6412D1*
X52147Y6326D1*
X52164Y6227D1*
Y5653D1*
X52147Y5555D1*
X52097Y5469D1*
X52021Y5405D1*
X51927Y5371D1*
X51828Y5370D1*
X51734Y5404D1*
X51657Y5468D1*
X51608Y5555D1*
X51590Y5653D1*
Y6227D1*
G37*
D17*
X47377Y10440D3*
D18*
X49377D3*
D17*
X51877D3*
D18*
X53877D3*
D19*
X40377Y20940D3*
D20*
X41377D3*
D19*
X40377Y17440D3*
D20*
X41377D3*
D19*
X40377Y13940D3*
D20*
X41377D3*
D19*
X40377Y10440D3*
D20*
X41377D3*
D19*
X40377Y6940D3*
D20*
X41377D3*
D19*
X55377Y19940D3*
D20*
X56377D3*
D19*
X55877Y13440D3*
D20*
X56877D3*
D18*
X37877Y20940D3*
D21*
X37090D3*
X36302D3*
X35515D3*
D18*
X38058Y17621D3*
D21*
X37271D3*
X36483D3*
X35696D3*
D18*
X38058Y13621D3*
D21*
X37271D3*
X36483D3*
X35696D3*
D18*
X38058Y10121D3*
D21*
X37271D3*
X36483D3*
X35696D3*
D18*
X37877Y6940D3*
D21*
X37090D3*
X36302D3*
X35515D3*
D18*
X58377Y15440D3*
D21*
Y16228D3*
Y17015D3*
Y17802D3*
D18*
Y8940D3*
D21*
Y9728D3*
Y10515D3*
Y11302D3*
D17*
X43877Y18940D3*
D18*
X44877D3*
D17*
X43877Y16940D3*
D18*
X44877D3*
D17*
X43877Y14440D3*
D18*
X44877D3*
D17*
X43877Y12440D3*
D18*
X44877D3*
D17*
X43877Y9940D3*
D18*
X44877D3*
D17*
X56377Y16440D3*
D18*
Y17440D3*
D17*
Y9940D3*
D18*
Y8940D3*
D22*
X46693Y18531D3*
D23*
Y17531D3*
Y16531D3*
Y15531D3*
Y14531D3*
Y13531D3*
Y12531D3*
X49693D3*
Y13531D3*
Y14531D3*
Y15531D3*
Y16531D3*
Y17531D3*
Y18531D3*
D22*
X51377Y18440D3*
D23*
Y17440D3*
Y16440D3*
Y15440D3*
Y14440D3*
Y13440D3*
Y12440D3*
X54377D3*
Y13440D3*
Y14440D3*
Y15440D3*
Y16440D3*
Y17440D3*
Y18440D3*
X18940Y30877D2*
D14*
Y29877D1*
Y30877D2*
D15*
Y31926D1*
X18680Y32186D1*
X16632D1*
X13940Y34877D1*
X26440Y41377D2*
Y34877D1*
X13940Y41877D2*
Y43877D1*
Y39377D2*
Y41877D1*
Y34877D2*
X13403D1*
X12938Y34413D1*
X10255D1*
X9995Y34672D1*
Y39117D1*
X10255Y39377D1*
X13940D1*
X21940Y29877D2*
D14*
Y30877D1*
X23940Y29877D2*
Y30877D1*
X24940Y29877D2*
Y30877D1*
X25940Y29877D2*
Y30877D1*
X26940Y29877D2*
Y30877D1*
X27940Y29877D2*
Y30877D1*
X5578Y45877D2*
D15*
Y43935D1*
X5759Y43754D1*
Y42558D1*
X28440Y42739D2*
X29210Y41970D1*
Y37009D1*
X28440Y36239D1*
X5759Y35058D2*
Y34379D1*
X5578Y34198D1*
Y31877D1*
X5759Y38558D2*
Y35058D1*
Y42558D2*
Y38558D1*
X28940Y29877D2*
D14*
Y30877D1*
X21440Y38377D2*
D15*
X24440D1*
X16756Y38468D2*
X17246Y38958D1*
Y42468D1*
X16756D1*
X24440Y38377D2*
X23170Y37107D1*
Y32870D1*
X23430Y32610D1*
X28680D1*
X28940Y32350D1*
Y30877D1*
Y47877D2*
D14*
Y48877D1*
X27940Y47877D2*
Y48877D1*
X26940Y47877D2*
Y48877D1*
X17286Y45942D2*
D15*
Y43998D1*
X16756Y43468D1*
X25940Y47877D2*
D14*
Y48877D1*
X16756Y39468D2*
D15*
X16006Y40218D1*
Y44387D1*
X13450D1*
X11440Y42377D1*
X25940Y47877D2*
D3*
X16006Y44387D2*
X16266Y44647D1*
Y46337D1*
X25940Y47877D2*
X25844D1*
Y46861D1*
X25320Y46337D1*
X14340Y47877D2*
D14*
Y48877D1*
X15340Y47877D2*
Y48877D1*
X20340Y47877D2*
Y48877D1*
X24440Y41377D2*
D15*
X23950Y41867D1*
Y44218D1*
X24085Y44353D1*
X20340D2*
Y47877D1*
X24085Y44353D2*
D3*
X17340Y47877D2*
D14*
Y48877D1*
X16340Y47877D2*
Y48877D1*
X19340Y47877D2*
Y48877D1*
X18340Y47877D2*
Y48877D1*
X24940Y47877D2*
Y48877D1*
Y47877D2*
D15*
X24925D1*
Y46204D1*
X23680Y44959D1*
Y39127D1*
X23421Y38867D1*
X20766D1*
X20506Y38607D1*
Y37728D1*
X20246Y37468D1*
X19756D1*
X23940Y47877D2*
D14*
Y48877D1*
Y47877D2*
D15*
Y47092D1*
X21440Y44592D1*
Y43377D1*
X20246Y42183D1*
Y38218D1*
X19987Y37958D1*
X11700D1*
X11440Y37698D1*
Y35377D1*
X22940Y47877D2*
D14*
Y48877D1*
Y47877D2*
D15*
Y46592D1*
X20822Y44474D1*
Y44218D1*
X20562Y43958D1*
X19526D1*
X19266Y43698D1*
Y38958D1*
X9600Y36752D2*
Y33717D1*
X11440Y31877D1*
X21940Y47877D2*
D14*
Y48877D1*
X26239Y46732D2*
D15*
X26180Y46674D1*
Y45582D1*
X26440Y45322D1*
Y44877D1*
X26180Y45582D2*
X25920Y45322D1*
X25190D1*
X24930Y45062D1*
Y37867D1*
X24440Y37377D1*
X19940Y29877D2*
D14*
Y30877D1*
X21440Y37377D2*
D15*
X20571Y36508D1*
X20037D1*
X17716D1*
X16756Y37468D1*
X19940Y30877D2*
Y32397D1*
X20037Y32494D1*
Y36508D1*
X15940Y29877D2*
D14*
Y30877D1*
X14940Y29877D2*
Y30877D1*
X12340Y47877D2*
Y48877D1*
X11340Y47877D2*
Y48877D1*
X13340Y47877D2*
Y48877D1*
X17940Y29877D2*
Y30877D1*
X20940D2*
Y29877D1*
X16940Y30877D2*
Y29877D1*
X14940Y39377D2*
D15*
X13781Y38218D1*
X11100D1*
X10440Y38877D1*
X8766Y40958D2*
Y31627D1*
X8506Y31367D1*
X6875D1*
X6365Y31877D1*
X20766Y40958D2*
Y40377D1*
X21440D1*
X14940Y37377D2*
Y37443D1*
X13384Y35887D1*
X13128D1*
X12173Y34932D1*
X10885D1*
X10440Y35377D1*
X23940D2*
X25950Y33367D1*
X27420D1*
X27930Y33877D1*
X27670Y34137D1*
Y39607D1*
X28440Y40377D1*
X7940Y31877D2*
Y33938D1*
X8121Y34119D1*
Y35058D1*
Y42558D2*
Y43497D1*
X7940Y43678D1*
Y45877D1*
X8121Y38558D2*
Y42558D1*
Y35058D2*
Y38558D1*
X28440Y33877D2*
X27930D1*
X7153Y31877D2*
Y32879D1*
X7334Y33060D1*
Y35058D1*
X28440Y34665D2*
X27930Y35174D1*
Y38435D1*
X28950Y39454D1*
Y40850D1*
X28635Y41165D1*
X28440D1*
X7334Y42558D2*
Y44173D1*
X7153Y44354D1*
Y45877D1*
X7334Y38558D2*
Y42558D1*
Y35058D2*
Y38558D1*
X28440Y41165D2*
D3*
X26440Y42377D2*
X25440Y43377D1*
Y44877D1*
X26440Y33877D2*
X25495Y34822D1*
Y37932D1*
X25940Y38377D1*
D24*
X17286Y45942D3*
X25320Y46337D3*
X16266D3*
X20340Y44353D3*
X24085D3*
X19266Y38958D3*
X9600Y36752D3*
X26239Y46732D3*
X8766Y40958D3*
X20766D3*
G36*
X23640Y30177D2*
X23658Y30280D1*
X23710Y30370D1*
X23790Y30437D1*
X23888Y30473D1*
X23992D1*
X24090Y30437D1*
X24170Y30370D1*
X24222Y30280D1*
X24240Y30177D1*
Y29577D1*
X24222Y29475D1*
X24170Y29385D1*
X24090Y29317D1*
X23993Y29282D1*
X23888D1*
X23790Y29317D1*
X23711Y29384D1*
X23658Y29474D1*
X23640Y29577D1*
Y30177D1*
G37*
G36*
X24640D2*
X24658Y30280D1*
X24710Y30370D1*
X24790Y30437D1*
X24888Y30473D1*
X24992D1*
X25090Y30437D1*
X25170Y30370D1*
X25222Y30280D1*
X25240Y30177D1*
Y29577D1*
X25222Y29475D1*
X25170Y29385D1*
X25090Y29317D1*
X24993Y29282D1*
X24888D1*
X24790Y29317D1*
X24711Y29384D1*
X24658Y29474D1*
X24640Y29577D1*
Y30177D1*
G37*
G36*
X25640D2*
X25658Y30280D1*
X25710Y30370D1*
X25790Y30437D1*
X25888Y30473D1*
X25992D1*
X26090Y30437D1*
X26170Y30370D1*
X26222Y30280D1*
X26240Y30177D1*
Y29577D1*
X26222Y29475D1*
X26170Y29385D1*
X26090Y29317D1*
X25993Y29282D1*
X25888D1*
X25790Y29317D1*
X25711Y29384D1*
X25658Y29474D1*
X25640Y29577D1*
Y30177D1*
G37*
G36*
X26640D2*
X26658Y30280D1*
X26710Y30370D1*
X26790Y30437D1*
X26888Y30473D1*
X26992D1*
X27090Y30437D1*
X27170Y30370D1*
X27222Y30280D1*
X27240Y30177D1*
Y29577D1*
X27222Y29475D1*
X27170Y29385D1*
X27090Y29317D1*
X26993Y29282D1*
X26888D1*
X26790Y29317D1*
X26711Y29384D1*
X26658Y29474D1*
X26640Y29577D1*
Y30177D1*
G37*
G36*
X27640D2*
X27658Y30280D1*
X27710Y30370D1*
X27790Y30437D1*
X27888Y30473D1*
X27992D1*
X28090Y30437D1*
X28170Y30370D1*
X28222Y30280D1*
X28240Y30177D1*
Y29577D1*
X28222Y29475D1*
X28170Y29385D1*
X28090Y29317D1*
X27993Y29282D1*
X27888D1*
X27790Y29317D1*
X27711Y29384D1*
X27658Y29474D1*
X27640Y29577D1*
Y30177D1*
G37*
G36*
X28640D2*
X28658Y30280D1*
X28710Y30370D1*
X28790Y30437D1*
X28888Y30473D1*
X28992D1*
X29090Y30437D1*
X29170Y30370D1*
X29222Y30280D1*
X29240Y30177D1*
Y29577D1*
X29222Y29475D1*
X29170Y29385D1*
X29090Y29317D1*
X28993Y29282D1*
X28888D1*
X28790Y29317D1*
X28711Y29384D1*
X28658Y29474D1*
X28640Y29577D1*
Y30177D1*
G37*
G36*
X29227Y48590D2*
X29210Y48492D1*
X29160Y48406D1*
X29084Y48342D1*
X28990Y48308D1*
X28891Y48307D1*
X28797Y48341D1*
X28720Y48405D1*
X28671Y48492D1*
X28653Y48590D1*
Y49164D1*
X28670Y49262D1*
X28720Y49348D1*
X28796Y49413D1*
X28890Y49447D1*
X28990D1*
X29083Y49413D1*
X29160Y49349D1*
X29210Y49263D1*
X29227Y49164D1*
Y48590D1*
G37*
G36*
X28227D2*
X28210Y48492D1*
X28160Y48406D1*
X28084Y48342D1*
X27990Y48308D1*
X27891Y48307D1*
X27797Y48341D1*
X27720Y48405D1*
X27671Y48492D1*
X27653Y48590D1*
Y49164D1*
X27670Y49262D1*
X27720Y49348D1*
X27796Y49413D1*
X27890Y49447D1*
X27990D1*
X28083Y49413D1*
X28160Y49349D1*
X28210Y49263D1*
X28227Y49164D1*
Y48590D1*
G37*
G36*
X27227D2*
X27210Y48492D1*
X27160Y48406D1*
X27084Y48342D1*
X26990Y48308D1*
X26891Y48307D1*
X26797Y48341D1*
X26720Y48405D1*
X26671Y48492D1*
X26653Y48590D1*
Y49164D1*
X26670Y49262D1*
X26720Y49348D1*
X26796Y49413D1*
X26890Y49447D1*
X26990D1*
X27083Y49413D1*
X27160Y49349D1*
X27210Y49263D1*
X27227Y49164D1*
Y48590D1*
G37*
G36*
X26227D2*
X26210Y48492D1*
X26160Y48406D1*
X26084Y48342D1*
X25990Y48308D1*
X25891Y48307D1*
X25797Y48341D1*
X25720Y48405D1*
X25671Y48492D1*
X25653Y48590D1*
Y49164D1*
X25670Y49262D1*
X25720Y49348D1*
X25796Y49413D1*
X25890Y49447D1*
X25990D1*
X26083Y49413D1*
X26160Y49349D1*
X26210Y49263D1*
X26227Y49164D1*
Y48590D1*
G37*
G36*
X25227D2*
X25210Y48492D1*
X25160Y48406D1*
X25084Y48342D1*
X24990Y48308D1*
X24891Y48307D1*
X24797Y48341D1*
X24720Y48405D1*
X24671Y48492D1*
X24653Y48590D1*
Y49164D1*
X24670Y49262D1*
X24720Y49348D1*
X24796Y49413D1*
X24890Y49447D1*
X24990D1*
X25083Y49413D1*
X25160Y49349D1*
X25210Y49263D1*
X25227Y49164D1*
Y48590D1*
G37*
G36*
X24227D2*
X24210Y48492D1*
X24160Y48406D1*
X24084Y48342D1*
X23990Y48308D1*
X23891Y48307D1*
X23797Y48341D1*
X23720Y48405D1*
X23671Y48492D1*
X23653Y48590D1*
Y49164D1*
X23670Y49262D1*
X23720Y49348D1*
X23796Y49413D1*
X23890Y49447D1*
X23990D1*
X24083Y49413D1*
X24160Y49349D1*
X24210Y49263D1*
X24227Y49164D1*
Y48590D1*
G37*
G36*
X23227D2*
X23210Y48492D1*
X23160Y48406D1*
X23084Y48342D1*
X22990Y48308D1*
X22891Y48307D1*
X22797Y48341D1*
X22720Y48405D1*
X22671Y48492D1*
X22653Y48590D1*
Y49164D1*
X22670Y49262D1*
X22720Y49348D1*
X22796Y49413D1*
X22890Y49447D1*
X22990D1*
X23083Y49413D1*
X23160Y49349D1*
X23210Y49263D1*
X23227Y49164D1*
Y48590D1*
G37*
G36*
X22227D2*
X22210Y48492D1*
X22160Y48406D1*
X22084Y48342D1*
X21990Y48308D1*
X21891Y48307D1*
X21797Y48341D1*
X21720Y48405D1*
X21671Y48492D1*
X21653Y48590D1*
Y49164D1*
X21670Y49262D1*
X21720Y49348D1*
X21796Y49413D1*
X21890Y49447D1*
X21990D1*
X22083Y49413D1*
X22160Y49349D1*
X22210Y49263D1*
X22227Y49164D1*
Y48590D1*
G37*
G36*
X14653Y30164D2*
X14670Y30262D1*
X14720Y30348D1*
X14796Y30413D1*
X14890Y30447D1*
X14990D1*
X15083Y30413D1*
X15160Y30349D1*
X15210Y30263D1*
X15227Y30164D1*
Y29590D1*
X15210Y29492D1*
X15160Y29406D1*
X15084Y29342D1*
X14990Y29308D1*
X14891Y29307D1*
X14797Y29341D1*
X14720Y29405D1*
X14671Y29492D1*
X14653Y29590D1*
Y30164D1*
G37*
G36*
X15653D2*
X15670Y30262D1*
X15720Y30348D1*
X15796Y30413D1*
X15890Y30447D1*
X15990D1*
X16083Y30413D1*
X16160Y30349D1*
X16210Y30263D1*
X16227Y30164D1*
Y29590D1*
X16210Y29492D1*
X16160Y29406D1*
X16084Y29342D1*
X15990Y29308D1*
X15891Y29307D1*
X15797Y29341D1*
X15720Y29405D1*
X15671Y29492D1*
X15653Y29590D1*
Y30164D1*
G37*
G36*
X16653D2*
X16670Y30262D1*
X16720Y30348D1*
X16796Y30413D1*
X16890Y30447D1*
X16990D1*
X17083Y30413D1*
X17160Y30349D1*
X17210Y30263D1*
X17227Y30164D1*
Y29590D1*
X17210Y29492D1*
X17160Y29406D1*
X17084Y29342D1*
X16990Y29308D1*
X16891Y29307D1*
X16797Y29341D1*
X16720Y29405D1*
X16671Y29492D1*
X16653Y29590D1*
Y30164D1*
G37*
G36*
X17653D2*
X17670Y30262D1*
X17720Y30348D1*
X17796Y30413D1*
X17890Y30447D1*
X17990D1*
X18083Y30413D1*
X18160Y30349D1*
X18210Y30263D1*
X18227Y30164D1*
Y29590D1*
X18210Y29492D1*
X18160Y29406D1*
X18084Y29342D1*
X17990Y29308D1*
X17891Y29307D1*
X17797Y29341D1*
X17720Y29405D1*
X17671Y29492D1*
X17653Y29590D1*
Y30164D1*
G37*
G36*
X18653D2*
X18670Y30262D1*
X18720Y30348D1*
X18796Y30413D1*
X18890Y30447D1*
X18990D1*
X19083Y30413D1*
X19160Y30349D1*
X19210Y30263D1*
X19227Y30164D1*
Y29590D1*
X19210Y29492D1*
X19160Y29406D1*
X19084Y29342D1*
X18990Y29308D1*
X18891Y29307D1*
X18797Y29341D1*
X18720Y29405D1*
X18671Y29492D1*
X18653Y29590D1*
Y30164D1*
G37*
G36*
X19653D2*
X19670Y30262D1*
X19720Y30348D1*
X19796Y30413D1*
X19890Y30447D1*
X19990D1*
X20083Y30413D1*
X20160Y30349D1*
X20210Y30263D1*
X20227Y30164D1*
Y29590D1*
X20210Y29492D1*
X20160Y29406D1*
X20084Y29342D1*
X19990Y29308D1*
X19891Y29307D1*
X19797Y29341D1*
X19720Y29405D1*
X19671Y29492D1*
X19653Y29590D1*
Y30164D1*
G37*
G36*
X20653D2*
X20670Y30262D1*
X20720Y30348D1*
X20796Y30413D1*
X20890Y30447D1*
X20990D1*
X21083Y30413D1*
X21160Y30349D1*
X21210Y30263D1*
X21227Y30164D1*
Y29590D1*
X21210Y29492D1*
X21160Y29406D1*
X21084Y29342D1*
X20990Y29308D1*
X20891Y29307D1*
X20797Y29341D1*
X20720Y29405D1*
X20671Y29492D1*
X20653Y29590D1*
Y30164D1*
G37*
G36*
X21653D2*
X21670Y30262D1*
X21720Y30348D1*
X21796Y30413D1*
X21890Y30447D1*
X21990D1*
X22083Y30413D1*
X22160Y30349D1*
X22210Y30263D1*
X22227Y30164D1*
Y29590D1*
X22210Y29492D1*
X22160Y29406D1*
X22084Y29342D1*
X21990Y29308D1*
X21891Y29307D1*
X21797Y29341D1*
X21720Y29405D1*
X21671Y29492D1*
X21653Y29590D1*
Y30164D1*
G37*
G36*
X20627Y48590D2*
X20610Y48492D1*
X20560Y48406D1*
X20484Y48342D1*
X20390Y48308D1*
X20291Y48307D1*
X20197Y48341D1*
X20120Y48405D1*
X20071Y48492D1*
X20053Y48590D1*
Y49164D1*
X20070Y49262D1*
X20120Y49348D1*
X20196Y49413D1*
X20290Y49447D1*
X20390D1*
X20483Y49413D1*
X20560Y49349D1*
X20610Y49263D1*
X20627Y49164D1*
Y48590D1*
G37*
G36*
X19627D2*
X19610Y48492D1*
X19560Y48406D1*
X19484Y48342D1*
X19390Y48308D1*
X19291Y48307D1*
X19197Y48341D1*
X19120Y48405D1*
X19071Y48492D1*
X19053Y48590D1*
Y49164D1*
X19070Y49262D1*
X19120Y49348D1*
X19196Y49413D1*
X19290Y49447D1*
X19390D1*
X19483Y49413D1*
X19560Y49349D1*
X19610Y49263D1*
X19627Y49164D1*
Y48590D1*
G37*
G36*
X18627D2*
X18610Y48492D1*
X18560Y48406D1*
X18484Y48342D1*
X18390Y48308D1*
X18291Y48307D1*
X18197Y48341D1*
X18120Y48405D1*
X18071Y48492D1*
X18053Y48590D1*
Y49164D1*
X18070Y49262D1*
X18120Y49348D1*
X18196Y49413D1*
X18290Y49447D1*
X18390D1*
X18483Y49413D1*
X18560Y49349D1*
X18610Y49263D1*
X18627Y49164D1*
Y48590D1*
G37*
G36*
X17627D2*
X17610Y48492D1*
X17560Y48406D1*
X17484Y48342D1*
X17390Y48308D1*
X17291Y48307D1*
X17197Y48341D1*
X17120Y48405D1*
X17071Y48492D1*
X17053Y48590D1*
Y49164D1*
X17070Y49262D1*
X17120Y49348D1*
X17196Y49413D1*
X17290Y49447D1*
X17390D1*
X17483Y49413D1*
X17560Y49349D1*
X17610Y49263D1*
X17627Y49164D1*
Y48590D1*
G37*
G36*
X16627D2*
X16610Y48492D1*
X16560Y48406D1*
X16484Y48342D1*
X16390Y48308D1*
X16291Y48307D1*
X16197Y48341D1*
X16120Y48405D1*
X16071Y48492D1*
X16053Y48590D1*
Y49164D1*
X16070Y49262D1*
X16120Y49348D1*
X16196Y49413D1*
X16290Y49447D1*
X16390D1*
X16483Y49413D1*
X16560Y49349D1*
X16610Y49263D1*
X16627Y49164D1*
Y48590D1*
G37*
G36*
X15627D2*
X15610Y48492D1*
X15560Y48406D1*
X15484Y48342D1*
X15390Y48308D1*
X15291Y48307D1*
X15197Y48341D1*
X15120Y48405D1*
X15071Y48492D1*
X15053Y48590D1*
Y49164D1*
X15070Y49262D1*
X15120Y49348D1*
X15196Y49413D1*
X15290Y49447D1*
X15390D1*
X15483Y49413D1*
X15560Y49349D1*
X15610Y49263D1*
X15627Y49164D1*
Y48590D1*
G37*
G36*
X14627D2*
X14610Y48492D1*
X14560Y48406D1*
X14484Y48342D1*
X14390Y48308D1*
X14291Y48307D1*
X14197Y48341D1*
X14120Y48405D1*
X14071Y48492D1*
X14053Y48590D1*
Y49164D1*
X14070Y49262D1*
X14120Y49348D1*
X14196Y49413D1*
X14290Y49447D1*
X14390D1*
X14483Y49413D1*
X14560Y49349D1*
X14610Y49263D1*
X14627Y49164D1*
Y48590D1*
G37*
G36*
X13627D2*
X13610Y48492D1*
X13560Y48406D1*
X13484Y48342D1*
X13390Y48308D1*
X13291Y48307D1*
X13197Y48341D1*
X13120Y48405D1*
X13071Y48492D1*
X13053Y48590D1*
Y49164D1*
X13070Y49262D1*
X13120Y49348D1*
X13196Y49413D1*
X13290Y49447D1*
X13390D1*
X13483Y49413D1*
X13560Y49349D1*
X13610Y49263D1*
X13627Y49164D1*
Y48590D1*
G37*
G36*
X12627D2*
X12610Y48492D1*
X12560Y48406D1*
X12484Y48342D1*
X12390Y48308D1*
X12291Y48307D1*
X12197Y48341D1*
X12120Y48405D1*
X12071Y48492D1*
X12053Y48590D1*
Y49164D1*
X12070Y49262D1*
X12120Y49348D1*
X12196Y49413D1*
X12290Y49447D1*
X12390D1*
X12483Y49413D1*
X12560Y49349D1*
X12610Y49263D1*
X12627Y49164D1*
Y48590D1*
G37*
G36*
X11627D2*
X11610Y48492D1*
X11560Y48406D1*
X11484Y48342D1*
X11390Y48308D1*
X11291Y48307D1*
X11197Y48341D1*
X11120Y48405D1*
X11071Y48492D1*
X11053Y48590D1*
Y49164D1*
X11070Y49262D1*
X11120Y49348D1*
X11196Y49413D1*
X11290Y49447D1*
X11390D1*
X11483Y49413D1*
X11560Y49349D1*
X11610Y49263D1*
X11627Y49164D1*
Y48590D1*
G37*
G36*
X20627Y47590D2*
X20610Y47492D1*
X20560Y47406D1*
X20484Y47342D1*
X20390Y47308D1*
X20291Y47307D1*
X20197Y47341D1*
X20120Y47405D1*
X20071Y47492D1*
X20053Y47590D1*
Y48164D1*
X20070Y48262D1*
X20120Y48348D1*
X20196Y48413D1*
X20290Y48447D1*
X20390D1*
X20483Y48413D1*
X20560Y48349D1*
X20610Y48263D1*
X20627Y48164D1*
Y47590D1*
G37*
G36*
X19627D2*
X19610Y47492D1*
X19560Y47406D1*
X19484Y47342D1*
X19390Y47308D1*
X19291Y47307D1*
X19197Y47341D1*
X19120Y47405D1*
X19071Y47492D1*
X19053Y47590D1*
Y48164D1*
X19070Y48262D1*
X19120Y48348D1*
X19196Y48413D1*
X19290Y48447D1*
X19390D1*
X19483Y48413D1*
X19560Y48349D1*
X19610Y48263D1*
X19627Y48164D1*
Y47590D1*
G37*
G36*
X18627D2*
X18610Y47492D1*
X18560Y47406D1*
X18484Y47342D1*
X18390Y47308D1*
X18291Y47307D1*
X18197Y47341D1*
X18120Y47405D1*
X18071Y47492D1*
X18053Y47590D1*
Y48164D1*
X18070Y48262D1*
X18120Y48348D1*
X18196Y48413D1*
X18290Y48447D1*
X18390D1*
X18483Y48413D1*
X18560Y48349D1*
X18610Y48263D1*
X18627Y48164D1*
Y47590D1*
G37*
G36*
X17627D2*
X17610Y47492D1*
X17560Y47406D1*
X17484Y47342D1*
X17390Y47308D1*
X17291Y47307D1*
X17197Y47341D1*
X17120Y47405D1*
X17071Y47492D1*
X17053Y47590D1*
Y48164D1*
X17070Y48262D1*
X17120Y48348D1*
X17196Y48413D1*
X17290Y48447D1*
X17390D1*
X17483Y48413D1*
X17560Y48349D1*
X17610Y48263D1*
X17627Y48164D1*
Y47590D1*
G37*
G36*
X16627D2*
X16610Y47492D1*
X16560Y47406D1*
X16484Y47342D1*
X16390Y47308D1*
X16291Y47307D1*
X16197Y47341D1*
X16120Y47405D1*
X16071Y47492D1*
X16053Y47590D1*
Y48164D1*
X16070Y48262D1*
X16120Y48348D1*
X16196Y48413D1*
X16290Y48447D1*
X16390D1*
X16483Y48413D1*
X16560Y48349D1*
X16610Y48263D1*
X16627Y48164D1*
Y47590D1*
G37*
G36*
X15627D2*
X15610Y47492D1*
X15560Y47406D1*
X15484Y47342D1*
X15390Y47308D1*
X15291Y47307D1*
X15197Y47341D1*
X15120Y47405D1*
X15071Y47492D1*
X15053Y47590D1*
Y48164D1*
X15070Y48262D1*
X15120Y48348D1*
X15196Y48413D1*
X15290Y48447D1*
X15390D1*
X15483Y48413D1*
X15560Y48349D1*
X15610Y48263D1*
X15627Y48164D1*
Y47590D1*
G37*
G36*
X14627D2*
X14610Y47492D1*
X14560Y47406D1*
X14484Y47342D1*
X14390Y47308D1*
X14291Y47307D1*
X14197Y47341D1*
X14120Y47405D1*
X14071Y47492D1*
X14053Y47590D1*
Y48164D1*
X14070Y48262D1*
X14120Y48348D1*
X14196Y48413D1*
X14290Y48447D1*
X14390D1*
X14483Y48413D1*
X14560Y48349D1*
X14610Y48263D1*
X14627Y48164D1*
Y47590D1*
G37*
G36*
X13627D2*
X13610Y47492D1*
X13560Y47406D1*
X13484Y47342D1*
X13390Y47308D1*
X13291Y47307D1*
X13197Y47341D1*
X13120Y47405D1*
X13071Y47492D1*
X13053Y47590D1*
Y48164D1*
X13070Y48262D1*
X13120Y48348D1*
X13196Y48413D1*
X13290Y48447D1*
X13390D1*
X13483Y48413D1*
X13560Y48349D1*
X13610Y48263D1*
X13627Y48164D1*
Y47590D1*
G37*
G36*
X12627D2*
X12610Y47492D1*
X12560Y47406D1*
X12484Y47342D1*
X12390Y47308D1*
X12291Y47307D1*
X12197Y47341D1*
X12120Y47405D1*
X12071Y47492D1*
X12053Y47590D1*
Y48164D1*
X12070Y48262D1*
X12120Y48348D1*
X12196Y48413D1*
X12290Y48447D1*
X12390D1*
X12483Y48413D1*
X12560Y48349D1*
X12610Y48263D1*
X12627Y48164D1*
Y47590D1*
G37*
G36*
X11627D2*
X11610Y47492D1*
X11560Y47406D1*
X11484Y47342D1*
X11390Y47308D1*
X11291Y47307D1*
X11197Y47341D1*
X11120Y47405D1*
X11071Y47492D1*
X11053Y47590D1*
Y48164D1*
X11070Y48262D1*
X11120Y48348D1*
X11196Y48413D1*
X11290Y48447D1*
X11390D1*
X11483Y48413D1*
X11560Y48349D1*
X11610Y48263D1*
X11627Y48164D1*
Y47590D1*
G37*
G36*
X29227D2*
X29210Y47492D1*
X29160Y47406D1*
X29084Y47342D1*
X28990Y47308D1*
X28891Y47307D1*
X28797Y47341D1*
X28720Y47405D1*
X28671Y47492D1*
X28653Y47590D1*
Y48164D1*
X28670Y48262D1*
X28720Y48348D1*
X28796Y48413D1*
X28890Y48447D1*
X28990D1*
X29083Y48413D1*
X29160Y48349D1*
X29210Y48263D1*
X29227Y48164D1*
Y47590D1*
G37*
G36*
X28227D2*
X28210Y47492D1*
X28160Y47406D1*
X28084Y47342D1*
X27990Y47308D1*
X27891Y47307D1*
X27797Y47341D1*
X27720Y47405D1*
X27671Y47492D1*
X27653Y47590D1*
Y48164D1*
X27670Y48262D1*
X27720Y48348D1*
X27796Y48413D1*
X27890Y48447D1*
X27990D1*
X28083Y48413D1*
X28160Y48349D1*
X28210Y48263D1*
X28227Y48164D1*
Y47590D1*
G37*
G36*
X27227D2*
X27210Y47492D1*
X27160Y47406D1*
X27084Y47342D1*
X26990Y47308D1*
X26891Y47307D1*
X26797Y47341D1*
X26720Y47405D1*
X26671Y47492D1*
X26653Y47590D1*
Y48164D1*
X26670Y48262D1*
X26720Y48348D1*
X26796Y48413D1*
X26890Y48447D1*
X26990D1*
X27083Y48413D1*
X27160Y48349D1*
X27210Y48263D1*
X27227Y48164D1*
Y47590D1*
G37*
G36*
X26227D2*
X26210Y47492D1*
X26160Y47406D1*
X26084Y47342D1*
X25990Y47308D1*
X25891Y47307D1*
X25797Y47341D1*
X25720Y47405D1*
X25671Y47492D1*
X25653Y47590D1*
Y48164D1*
X25670Y48262D1*
X25720Y48348D1*
X25796Y48413D1*
X25890Y48447D1*
X25990D1*
X26083Y48413D1*
X26160Y48349D1*
X26210Y48263D1*
X26227Y48164D1*
Y47590D1*
G37*
G36*
X25227D2*
X25210Y47492D1*
X25160Y47406D1*
X25084Y47342D1*
X24990Y47308D1*
X24891Y47307D1*
X24797Y47341D1*
X24720Y47405D1*
X24671Y47492D1*
X24653Y47590D1*
Y48164D1*
X24670Y48262D1*
X24720Y48348D1*
X24796Y48413D1*
X24890Y48447D1*
X24990D1*
X25083Y48413D1*
X25160Y48349D1*
X25210Y48263D1*
X25227Y48164D1*
Y47590D1*
G37*
G36*
X24227D2*
X24210Y47492D1*
X24160Y47406D1*
X24084Y47342D1*
X23990Y47308D1*
X23891Y47307D1*
X23797Y47341D1*
X23720Y47405D1*
X23671Y47492D1*
X23653Y47590D1*
Y48164D1*
X23670Y48262D1*
X23720Y48348D1*
X23796Y48413D1*
X23890Y48447D1*
X23990D1*
X24083Y48413D1*
X24160Y48349D1*
X24210Y48263D1*
X24227Y48164D1*
Y47590D1*
G37*
G36*
X23227D2*
X23210Y47492D1*
X23160Y47406D1*
X23084Y47342D1*
X22990Y47308D1*
X22891Y47307D1*
X22797Y47341D1*
X22720Y47405D1*
X22671Y47492D1*
X22653Y47590D1*
Y48164D1*
X22670Y48262D1*
X22720Y48348D1*
X22796Y48413D1*
X22890Y48447D1*
X22990D1*
X23083Y48413D1*
X23160Y48349D1*
X23210Y48263D1*
X23227Y48164D1*
Y47590D1*
G37*
G36*
X22227D2*
X22210Y47492D1*
X22160Y47406D1*
X22084Y47342D1*
X21990Y47308D1*
X21891Y47307D1*
X21797Y47341D1*
X21720Y47405D1*
X21671Y47492D1*
X21653Y47590D1*
Y48164D1*
X21670Y48262D1*
X21720Y48348D1*
X21796Y48413D1*
X21890Y48447D1*
X21990D1*
X22083Y48413D1*
X22160Y48349D1*
X22210Y48263D1*
X22227Y48164D1*
Y47590D1*
G37*
G36*
X23640Y31177D2*
X23658Y31280D1*
X23710Y31370D1*
X23790Y31437D1*
X23888Y31473D1*
X23992D1*
X24090Y31437D1*
X24170Y31370D1*
X24222Y31280D1*
X24240Y31177D1*
Y30577D1*
X24222Y30475D1*
X24170Y30385D1*
X24090Y30317D1*
X23993Y30282D1*
X23888D1*
X23790Y30317D1*
X23711Y30384D1*
X23658Y30474D1*
X23640Y30577D1*
Y31177D1*
G37*
G36*
X24640D2*
X24658Y31280D1*
X24710Y31370D1*
X24790Y31437D1*
X24888Y31473D1*
X24992D1*
X25090Y31437D1*
X25170Y31370D1*
X25222Y31280D1*
X25240Y31177D1*
Y30577D1*
X25222Y30475D1*
X25170Y30385D1*
X25090Y30317D1*
X24993Y30282D1*
X24888D1*
X24790Y30317D1*
X24711Y30384D1*
X24658Y30474D1*
X24640Y30577D1*
Y31177D1*
G37*
G36*
X25640D2*
X25658Y31280D1*
X25710Y31370D1*
X25790Y31437D1*
X25888Y31473D1*
X25992D1*
X26090Y31437D1*
X26170Y31370D1*
X26222Y31280D1*
X26240Y31177D1*
Y30577D1*
X26222Y30475D1*
X26170Y30385D1*
X26090Y30317D1*
X25993Y30282D1*
X25888D1*
X25790Y30317D1*
X25711Y30384D1*
X25658Y30474D1*
X25640Y30577D1*
Y31177D1*
G37*
G36*
X26640D2*
X26658Y31280D1*
X26710Y31370D1*
X26790Y31437D1*
X26888Y31473D1*
X26992D1*
X27090Y31437D1*
X27170Y31370D1*
X27222Y31280D1*
X27240Y31177D1*
Y30577D1*
X27222Y30475D1*
X27170Y30385D1*
X27090Y30317D1*
X26993Y30282D1*
X26888D1*
X26790Y30317D1*
X26711Y30384D1*
X26658Y30474D1*
X26640Y30577D1*
Y31177D1*
G37*
G36*
X27640D2*
X27658Y31280D1*
X27710Y31370D1*
X27790Y31437D1*
X27888Y31473D1*
X27992D1*
X28090Y31437D1*
X28170Y31370D1*
X28222Y31280D1*
X28240Y31177D1*
Y30577D1*
X28222Y30475D1*
X28170Y30385D1*
X28090Y30317D1*
X27993Y30282D1*
X27888D1*
X27790Y30317D1*
X27711Y30384D1*
X27658Y30474D1*
X27640Y30577D1*
Y31177D1*
G37*
G36*
X28640D2*
X28658Y31280D1*
X28710Y31370D1*
X28790Y31437D1*
X28888Y31473D1*
X28992D1*
X29090Y31437D1*
X29170Y31370D1*
X29222Y31280D1*
X29240Y31177D1*
Y30577D1*
X29222Y30475D1*
X29170Y30385D1*
X29090Y30317D1*
X28993Y30282D1*
X28888D1*
X28790Y30317D1*
X28711Y30384D1*
X28658Y30474D1*
X28640Y30577D1*
Y31177D1*
G37*
G36*
X14653Y31164D2*
X14670Y31262D1*
X14720Y31348D1*
X14796Y31413D1*
X14890Y31447D1*
X14990D1*
X15083Y31413D1*
X15160Y31349D1*
X15210Y31263D1*
X15227Y31164D1*
Y30590D1*
X15210Y30492D1*
X15160Y30406D1*
X15084Y30342D1*
X14990Y30308D1*
X14891Y30307D1*
X14797Y30341D1*
X14720Y30405D1*
X14671Y30492D1*
X14653Y30590D1*
Y31164D1*
G37*
G36*
X15653D2*
X15670Y31262D1*
X15720Y31348D1*
X15796Y31413D1*
X15890Y31447D1*
X15990D1*
X16083Y31413D1*
X16160Y31349D1*
X16210Y31263D1*
X16227Y31164D1*
Y30590D1*
X16210Y30492D1*
X16160Y30406D1*
X16084Y30342D1*
X15990Y30308D1*
X15891Y30307D1*
X15797Y30341D1*
X15720Y30405D1*
X15671Y30492D1*
X15653Y30590D1*
Y31164D1*
G37*
G36*
X16653D2*
X16670Y31262D1*
X16720Y31348D1*
X16796Y31413D1*
X16890Y31447D1*
X16990D1*
X17083Y31413D1*
X17160Y31349D1*
X17210Y31263D1*
X17227Y31164D1*
Y30590D1*
X17210Y30492D1*
X17160Y30406D1*
X17084Y30342D1*
X16990Y30308D1*
X16891Y30307D1*
X16797Y30341D1*
X16720Y30405D1*
X16671Y30492D1*
X16653Y30590D1*
Y31164D1*
G37*
G36*
X17653D2*
X17670Y31262D1*
X17720Y31348D1*
X17796Y31413D1*
X17890Y31447D1*
X17990D1*
X18083Y31413D1*
X18160Y31349D1*
X18210Y31263D1*
X18227Y31164D1*
Y30590D1*
X18210Y30492D1*
X18160Y30406D1*
X18084Y30342D1*
X17990Y30308D1*
X17891Y30307D1*
X17797Y30341D1*
X17720Y30405D1*
X17671Y30492D1*
X17653Y30590D1*
Y31164D1*
G37*
G36*
X18653D2*
X18670Y31262D1*
X18720Y31348D1*
X18796Y31413D1*
X18890Y31447D1*
X18990D1*
X19083Y31413D1*
X19160Y31349D1*
X19210Y31263D1*
X19227Y31164D1*
Y30590D1*
X19210Y30492D1*
X19160Y30406D1*
X19084Y30342D1*
X18990Y30308D1*
X18891Y30307D1*
X18797Y30341D1*
X18720Y30405D1*
X18671Y30492D1*
X18653Y30590D1*
Y31164D1*
G37*
G36*
X19653D2*
X19670Y31262D1*
X19720Y31348D1*
X19796Y31413D1*
X19890Y31447D1*
X19990D1*
X20083Y31413D1*
X20160Y31349D1*
X20210Y31263D1*
X20227Y31164D1*
Y30590D1*
X20210Y30492D1*
X20160Y30406D1*
X20084Y30342D1*
X19990Y30308D1*
X19891Y30307D1*
X19797Y30341D1*
X19720Y30405D1*
X19671Y30492D1*
X19653Y30590D1*
Y31164D1*
G37*
G36*
X20653D2*
X20670Y31262D1*
X20720Y31348D1*
X20796Y31413D1*
X20890Y31447D1*
X20990D1*
X21083Y31413D1*
X21160Y31349D1*
X21210Y31263D1*
X21227Y31164D1*
Y30590D1*
X21210Y30492D1*
X21160Y30406D1*
X21084Y30342D1*
X20990Y30308D1*
X20891Y30307D1*
X20797Y30341D1*
X20720Y30405D1*
X20671Y30492D1*
X20653Y30590D1*
Y31164D1*
G37*
G36*
X21653D2*
X21670Y31262D1*
X21720Y31348D1*
X21796Y31413D1*
X21890Y31447D1*
X21990D1*
X22083Y31413D1*
X22160Y31349D1*
X22210Y31263D1*
X22227Y31164D1*
Y30590D1*
X22210Y30492D1*
X22160Y30406D1*
X22084Y30342D1*
X21990Y30308D1*
X21891Y30307D1*
X21797Y30341D1*
X21720Y30405D1*
X21671Y30492D1*
X21653Y30590D1*
Y31164D1*
G37*
D17*
X17440Y35377D3*
D18*
X19440D3*
D17*
X21940D3*
D18*
X23940D3*
D19*
X10440Y45877D3*
D20*
X11440D3*
D19*
X10440Y42377D3*
D20*
X11440D3*
D19*
X10440Y38877D3*
D20*
X11440D3*
D19*
X10440Y35377D3*
D20*
X11440D3*
D19*
X10440Y31877D3*
D20*
X11440D3*
D19*
X25440Y44877D3*
D20*
X26440D3*
D19*
X25940Y38377D3*
D20*
X26940D3*
D18*
X7940Y45877D3*
D21*
X7153D3*
X6365D3*
X5578D3*
D18*
X8121Y42558D3*
D21*
X7334D3*
X6546D3*
X5759D3*
D18*
X8121Y38558D3*
D21*
X7334D3*
X6546D3*
X5759D3*
D18*
X8121Y35058D3*
D21*
X7334D3*
X6546D3*
X5759D3*
D18*
X7940Y31877D3*
D21*
X7153D3*
X6365D3*
X5578D3*
D18*
X28440Y40377D3*
D21*
Y41165D3*
Y41952D3*
Y42739D3*
D18*
Y33877D3*
D21*
Y34665D3*
Y35452D3*
Y36239D3*
D17*
X13940Y43877D3*
D18*
X14940D3*
D17*
X13940Y41877D3*
D18*
X14940D3*
D17*
X13940Y39377D3*
D18*
X14940D3*
D17*
X13940Y37377D3*
D18*
X14940D3*
D17*
X13940Y34877D3*
D18*
X14940D3*
D17*
X26440Y41377D3*
D18*
Y42377D3*
D17*
Y34877D3*
D18*
Y33877D3*
D22*
X16756Y43468D3*
D23*
Y42468D3*
Y41468D3*
Y40468D3*
Y39468D3*
Y38468D3*
Y37468D3*
X19756D3*
Y38468D3*
Y39468D3*
Y40468D3*
Y41468D3*
Y42468D3*
Y43468D3*
D22*
X21440Y43377D3*
D23*
Y42377D3*
Y41377D3*
Y40377D3*
Y39377D3*
Y38377D3*
Y37377D3*
X24440D3*
Y38377D3*
Y39377D3*
Y40377D3*
Y41377D3*
Y42377D3*
Y43377D3*
X48877Y30877D2*
D14*
Y29877D1*
Y30877D2*
D15*
Y31926D1*
X48617Y32186D1*
X46569D1*
X43877Y34877D1*
X56377Y41377D2*
Y34877D1*
X43877Y41877D2*
Y43877D1*
Y39377D2*
Y41877D1*
Y34877D2*
X43340D1*
X42875Y34413D1*
X40192D1*
X39932Y34672D1*
Y39117D1*
X40192Y39377D1*
X43877D1*
X51877Y29877D2*
D14*
Y30877D1*
X53877Y29877D2*
Y30877D1*
X54877Y29877D2*
Y30877D1*
X55877Y29877D2*
Y30877D1*
X56877Y29877D2*
Y30877D1*
X57877Y29877D2*
Y30877D1*
X35515Y45877D2*
D15*
Y43935D1*
X35696Y43754D1*
Y42558D1*
X58377Y42739D2*
X59147Y41970D1*
Y37009D1*
X58377Y36239D1*
X35696Y35058D2*
Y34379D1*
X35515Y34198D1*
Y31877D1*
X35696Y38558D2*
Y35058D1*
Y42558D2*
Y38558D1*
X58877Y29877D2*
D14*
Y30877D1*
X51377Y38377D2*
D15*
X54377D1*
X46693Y38468D2*
X47183Y38958D1*
Y42468D1*
X46693D1*
X54377Y38377D2*
X53107Y37107D1*
Y32870D1*
X53367Y32610D1*
X58617D1*
X58877Y32350D1*
Y30877D1*
Y47877D2*
D14*
Y48877D1*
X57877Y47877D2*
Y48877D1*
X56877Y47877D2*
Y48877D1*
X47223Y45942D2*
D15*
Y43998D1*
X46693Y43468D1*
X55877Y47877D2*
D14*
Y48877D1*
X46693Y39468D2*
D15*
X45943Y40218D1*
Y44387D1*
X43387D1*
X41377Y42377D1*
X55877Y47877D2*
D3*
X45943Y44387D2*
X46203Y44647D1*
Y46337D1*
X55877Y47877D2*
X55781D1*
Y46861D1*
X55257Y46337D1*
X44277Y47877D2*
D14*
Y48877D1*
X45277Y47877D2*
Y48877D1*
X50277Y47877D2*
Y48877D1*
X54377Y41377D2*
D15*
X53887Y41867D1*
Y44218D1*
X54022Y44353D1*
X50277D2*
Y47877D1*
X54022Y44353D2*
D3*
X47277Y47877D2*
D14*
Y48877D1*
X46277Y47877D2*
Y48877D1*
X49277Y47877D2*
Y48877D1*
X48277Y47877D2*
Y48877D1*
X54877Y47877D2*
Y48877D1*
Y47877D2*
D15*
X54862D1*
Y46204D1*
X53617Y44959D1*
Y39127D1*
X53358Y38867D1*
X50703D1*
X50443Y38607D1*
Y37728D1*
X50183Y37468D1*
X49693D1*
X53877Y47877D2*
D14*
Y48877D1*
Y47877D2*
D15*
Y47092D1*
X51377Y44592D1*
Y43377D1*
X50183Y42183D1*
Y38218D1*
X49924Y37958D1*
X41637D1*
X41377Y37698D1*
Y35377D1*
X52877Y47877D2*
D14*
Y48877D1*
Y47877D2*
D15*
Y46592D1*
X50759Y44474D1*
Y44218D1*
X50499Y43958D1*
X49463D1*
X49203Y43698D1*
Y38958D1*
X39537Y36752D2*
Y33717D1*
X41377Y31877D1*
X51877Y47877D2*
D14*
Y48877D1*
X56176Y46732D2*
D15*
X56117Y46674D1*
Y45582D1*
X56377Y45322D1*
Y44877D1*
X56117Y45582D2*
X55857Y45322D1*
X55127D1*
X54867Y45062D1*
Y37867D1*
X54377Y37377D1*
X49877Y29877D2*
D14*
Y30877D1*
X51377Y37377D2*
D15*
X50508Y36508D1*
X49974D1*
X47653D1*
X46693Y37468D1*
X49877Y30877D2*
Y32397D1*
X49974Y32494D1*
Y36508D1*
X45877Y29877D2*
D14*
Y30877D1*
X44877Y29877D2*
Y30877D1*
X42277Y47877D2*
Y48877D1*
X41277Y47877D2*
Y48877D1*
X43277Y47877D2*
Y48877D1*
X47877Y29877D2*
Y30877D1*
X50877D2*
Y29877D1*
X46877Y30877D2*
Y29877D1*
X44877Y39377D2*
D15*
X43718Y38218D1*
X41037D1*
X40377Y38877D1*
X38703Y40958D2*
Y31627D1*
X38443Y31367D1*
X36812D1*
X36302Y31877D1*
X50703Y40958D2*
Y40377D1*
X51377D1*
X44877Y37377D2*
Y37443D1*
X43321Y35887D1*
X43065D1*
X42110Y34932D1*
X40822D1*
X40377Y35377D1*
X53877D2*
X55887Y33367D1*
X57357D1*
X57867Y33877D1*
X57607Y34137D1*
Y39607D1*
X58377Y40377D1*
X37877Y31877D2*
Y33938D1*
X38058Y34119D1*
Y35058D1*
Y42558D2*
Y43497D1*
X37877Y43678D1*
Y45877D1*
X38058Y38558D2*
Y42558D1*
Y35058D2*
Y38558D1*
X58377Y33877D2*
X57867D1*
X37090Y31877D2*
Y32879D1*
X37271Y33060D1*
Y35058D1*
X58377Y34665D2*
X57867Y35174D1*
Y38435D1*
X58887Y39454D1*
Y40850D1*
X58572Y41165D1*
X58377D1*
X37271Y42558D2*
Y44173D1*
X37090Y44354D1*
Y45877D1*
X37271Y38558D2*
Y42558D1*
Y35058D2*
Y38558D1*
X58377Y41165D2*
D3*
X56377Y42377D2*
X55377Y43377D1*
Y44877D1*
X56377Y33877D2*
X55432Y34822D1*
Y37932D1*
X55877Y38377D1*
D24*
X47223Y45942D3*
X55257Y46337D3*
X46203D3*
X50277Y44353D3*
X54022D3*
X49203Y38958D3*
X39537Y36752D3*
X56176Y46732D3*
X38703Y40958D3*
X50703D3*
G36*
X53577Y30177D2*
X53595Y30280D1*
X53647Y30370D1*
X53727Y30437D1*
X53825Y30473D1*
X53929D1*
X54027Y30437D1*
X54107Y30370D1*
X54159Y30280D1*
X54177Y30177D1*
Y29577D1*
X54159Y29475D1*
X54107Y29385D1*
X54027Y29317D1*
X53930Y29282D1*
X53825D1*
X53727Y29317D1*
X53648Y29384D1*
X53595Y29474D1*
X53577Y29577D1*
Y30177D1*
G37*
G36*
X54577D2*
X54595Y30280D1*
X54647Y30370D1*
X54727Y30437D1*
X54825Y30473D1*
X54929D1*
X55027Y30437D1*
X55107Y30370D1*
X55159Y30280D1*
X55177Y30177D1*
Y29577D1*
X55159Y29475D1*
X55107Y29385D1*
X55027Y29317D1*
X54930Y29282D1*
X54825D1*
X54727Y29317D1*
X54648Y29384D1*
X54595Y29474D1*
X54577Y29577D1*
Y30177D1*
G37*
G36*
X55577D2*
X55595Y30280D1*
X55647Y30370D1*
X55727Y30437D1*
X55825Y30473D1*
X55929D1*
X56027Y30437D1*
X56107Y30370D1*
X56159Y30280D1*
X56177Y30177D1*
Y29577D1*
X56159Y29475D1*
X56107Y29385D1*
X56027Y29317D1*
X55930Y29282D1*
X55825D1*
X55727Y29317D1*
X55648Y29384D1*
X55595Y29474D1*
X55577Y29577D1*
Y30177D1*
G37*
G36*
X56577D2*
X56595Y30280D1*
X56647Y30370D1*
X56727Y30437D1*
X56825Y30473D1*
X56929D1*
X57027Y30437D1*
X57107Y30370D1*
X57159Y30280D1*
X57177Y30177D1*
Y29577D1*
X57159Y29475D1*
X57107Y29385D1*
X57027Y29317D1*
X56930Y29282D1*
X56825D1*
X56727Y29317D1*
X56648Y29384D1*
X56595Y29474D1*
X56577Y29577D1*
Y30177D1*
G37*
G36*
X57577D2*
X57595Y30280D1*
X57647Y30370D1*
X57727Y30437D1*
X57825Y30473D1*
X57929D1*
X58027Y30437D1*
X58107Y30370D1*
X58159Y30280D1*
X58177Y30177D1*
Y29577D1*
X58159Y29475D1*
X58107Y29385D1*
X58027Y29317D1*
X57930Y29282D1*
X57825D1*
X57727Y29317D1*
X57648Y29384D1*
X57595Y29474D1*
X57577Y29577D1*
Y30177D1*
G37*
G36*
X58577D2*
X58595Y30280D1*
X58647Y30370D1*
X58727Y30437D1*
X58825Y30473D1*
X58929D1*
X59027Y30437D1*
X59107Y30370D1*
X59159Y30280D1*
X59177Y30177D1*
Y29577D1*
X59159Y29475D1*
X59107Y29385D1*
X59027Y29317D1*
X58930Y29282D1*
X58825D1*
X58727Y29317D1*
X58648Y29384D1*
X58595Y29474D1*
X58577Y29577D1*
Y30177D1*
G37*
G36*
X59164Y48590D2*
X59147Y48492D1*
X59097Y48406D1*
X59021Y48342D1*
X58927Y48308D1*
X58828Y48307D1*
X58734Y48341D1*
X58657Y48405D1*
X58608Y48492D1*
X58590Y48590D1*
Y49164D1*
X58607Y49262D1*
X58657Y49348D1*
X58733Y49413D1*
X58827Y49447D1*
X58927D1*
X59020Y49413D1*
X59097Y49349D1*
X59147Y49263D1*
X59164Y49164D1*
Y48590D1*
G37*
G36*
X58164D2*
X58147Y48492D1*
X58097Y48406D1*
X58021Y48342D1*
X57927Y48308D1*
X57828Y48307D1*
X57734Y48341D1*
X57657Y48405D1*
X57608Y48492D1*
X57590Y48590D1*
Y49164D1*
X57607Y49262D1*
X57657Y49348D1*
X57733Y49413D1*
X57827Y49447D1*
X57927D1*
X58020Y49413D1*
X58097Y49349D1*
X58147Y49263D1*
X58164Y49164D1*
Y48590D1*
G37*
G36*
X57164D2*
X57147Y48492D1*
X57097Y48406D1*
X57021Y48342D1*
X56927Y48308D1*
X56828Y48307D1*
X56734Y48341D1*
X56657Y48405D1*
X56608Y48492D1*
X56590Y48590D1*
Y49164D1*
X56607Y49262D1*
X56657Y49348D1*
X56733Y49413D1*
X56827Y49447D1*
X56927D1*
X57020Y49413D1*
X57097Y49349D1*
X57147Y49263D1*
X57164Y49164D1*
Y48590D1*
G37*
G36*
X56164D2*
X56147Y48492D1*
X56097Y48406D1*
X56021Y48342D1*
X55927Y48308D1*
X55828Y48307D1*
X55734Y48341D1*
X55657Y48405D1*
X55608Y48492D1*
X55590Y48590D1*
Y49164D1*
X55607Y49262D1*
X55657Y49348D1*
X55733Y49413D1*
X55827Y49447D1*
X55927D1*
X56020Y49413D1*
X56097Y49349D1*
X56147Y49263D1*
X56164Y49164D1*
Y48590D1*
G37*
G36*
X55164D2*
X55147Y48492D1*
X55097Y48406D1*
X55021Y48342D1*
X54927Y48308D1*
X54828Y48307D1*
X54734Y48341D1*
X54657Y48405D1*
X54608Y48492D1*
X54590Y48590D1*
Y49164D1*
X54607Y49262D1*
X54657Y49348D1*
X54733Y49413D1*
X54827Y49447D1*
X54927D1*
X55020Y49413D1*
X55097Y49349D1*
X55147Y49263D1*
X55164Y49164D1*
Y48590D1*
G37*
G36*
X54164D2*
X54147Y48492D1*
X54097Y48406D1*
X54021Y48342D1*
X53927Y48308D1*
X53828Y48307D1*
X53734Y48341D1*
X53657Y48405D1*
X53608Y48492D1*
X53590Y48590D1*
Y49164D1*
X53607Y49262D1*
X53657Y49348D1*
X53733Y49413D1*
X53827Y49447D1*
X53927D1*
X54020Y49413D1*
X54097Y49349D1*
X54147Y49263D1*
X54164Y49164D1*
Y48590D1*
G37*
G36*
X53164D2*
X53147Y48492D1*
X53097Y48406D1*
X53021Y48342D1*
X52927Y48308D1*
X52828Y48307D1*
X52734Y48341D1*
X52657Y48405D1*
X52608Y48492D1*
X52590Y48590D1*
Y49164D1*
X52607Y49262D1*
X52657Y49348D1*
X52733Y49413D1*
X52827Y49447D1*
X52927D1*
X53020Y49413D1*
X53097Y49349D1*
X53147Y49263D1*
X53164Y49164D1*
Y48590D1*
G37*
G36*
X52164D2*
X52147Y48492D1*
X52097Y48406D1*
X52021Y48342D1*
X51927Y48308D1*
X51828Y48307D1*
X51734Y48341D1*
X51657Y48405D1*
X51608Y48492D1*
X51590Y48590D1*
Y49164D1*
X51607Y49262D1*
X51657Y49348D1*
X51733Y49413D1*
X51827Y49447D1*
X51927D1*
X52020Y49413D1*
X52097Y49349D1*
X52147Y49263D1*
X52164Y49164D1*
Y48590D1*
G37*
G36*
X44590Y30164D2*
X44607Y30262D1*
X44657Y30348D1*
X44733Y30413D1*
X44827Y30447D1*
X44927D1*
X45020Y30413D1*
X45097Y30349D1*
X45147Y30263D1*
X45164Y30164D1*
Y29590D1*
X45147Y29492D1*
X45097Y29406D1*
X45021Y29342D1*
X44927Y29308D1*
X44828Y29307D1*
X44734Y29341D1*
X44657Y29405D1*
X44608Y29492D1*
X44590Y29590D1*
Y30164D1*
G37*
G36*
X45590D2*
X45607Y30262D1*
X45657Y30348D1*
X45733Y30413D1*
X45827Y30447D1*
X45927D1*
X46020Y30413D1*
X46097Y30349D1*
X46147Y30263D1*
X46164Y30164D1*
Y29590D1*
X46147Y29492D1*
X46097Y29406D1*
X46021Y29342D1*
X45927Y29308D1*
X45828Y29307D1*
X45734Y29341D1*
X45657Y29405D1*
X45608Y29492D1*
X45590Y29590D1*
Y30164D1*
G37*
G36*
X46590D2*
X46607Y30262D1*
X46657Y30348D1*
X46733Y30413D1*
X46827Y30447D1*
X46927D1*
X47020Y30413D1*
X47097Y30349D1*
X47147Y30263D1*
X47164Y30164D1*
Y29590D1*
X47147Y29492D1*
X47097Y29406D1*
X47021Y29342D1*
X46927Y29308D1*
X46828Y29307D1*
X46734Y29341D1*
X46657Y29405D1*
X46608Y29492D1*
X46590Y29590D1*
Y30164D1*
G37*
G36*
X47590D2*
X47607Y30262D1*
X47657Y30348D1*
X47733Y30413D1*
X47827Y30447D1*
X47927D1*
X48020Y30413D1*
X48097Y30349D1*
X48147Y30263D1*
X48164Y30164D1*
Y29590D1*
X48147Y29492D1*
X48097Y29406D1*
X48021Y29342D1*
X47927Y29308D1*
X47828Y29307D1*
X47734Y29341D1*
X47657Y29405D1*
X47608Y29492D1*
X47590Y29590D1*
Y30164D1*
G37*
G36*
X48590D2*
X48607Y30262D1*
X48657Y30348D1*
X48733Y30413D1*
X48827Y30447D1*
X48927D1*
X49020Y30413D1*
X49097Y30349D1*
X49147Y30263D1*
X49164Y30164D1*
Y29590D1*
X49147Y29492D1*
X49097Y29406D1*
X49021Y29342D1*
X48927Y29308D1*
X48828Y29307D1*
X48734Y29341D1*
X48657Y29405D1*
X48608Y29492D1*
X48590Y29590D1*
Y30164D1*
G37*
G36*
X49590D2*
X49607Y30262D1*
X49657Y30348D1*
X49733Y30413D1*
X49827Y30447D1*
X49927D1*
X50020Y30413D1*
X50097Y30349D1*
X50147Y30263D1*
X50164Y30164D1*
Y29590D1*
X50147Y29492D1*
X50097Y29406D1*
X50021Y29342D1*
X49927Y29308D1*
X49828Y29307D1*
X49734Y29341D1*
X49657Y29405D1*
X49608Y29492D1*
X49590Y29590D1*
Y30164D1*
G37*
G36*
X50590D2*
X50607Y30262D1*
X50657Y30348D1*
X50733Y30413D1*
X50827Y30447D1*
X50927D1*
X51020Y30413D1*
X51097Y30349D1*
X51147Y30263D1*
X51164Y30164D1*
Y29590D1*
X51147Y29492D1*
X51097Y29406D1*
X51021Y29342D1*
X50927Y29308D1*
X50828Y29307D1*
X50734Y29341D1*
X50657Y29405D1*
X50608Y29492D1*
X50590Y29590D1*
Y30164D1*
G37*
G36*
X51590D2*
X51607Y30262D1*
X51657Y30348D1*
X51733Y30413D1*
X51827Y30447D1*
X51927D1*
X52020Y30413D1*
X52097Y30349D1*
X52147Y30263D1*
X52164Y30164D1*
Y29590D1*
X52147Y29492D1*
X52097Y29406D1*
X52021Y29342D1*
X51927Y29308D1*
X51828Y29307D1*
X51734Y29341D1*
X51657Y29405D1*
X51608Y29492D1*
X51590Y29590D1*
Y30164D1*
G37*
G36*
X50564Y48590D2*
X50547Y48492D1*
X50497Y48406D1*
X50421Y48342D1*
X50327Y48308D1*
X50228Y48307D1*
X50134Y48341D1*
X50057Y48405D1*
X50008Y48492D1*
X49990Y48590D1*
Y49164D1*
X50007Y49262D1*
X50057Y49348D1*
X50133Y49413D1*
X50227Y49447D1*
X50327D1*
X50420Y49413D1*
X50497Y49349D1*
X50547Y49263D1*
X50564Y49164D1*
Y48590D1*
G37*
G36*
X49564D2*
X49547Y48492D1*
X49497Y48406D1*
X49421Y48342D1*
X49327Y48308D1*
X49228Y48307D1*
X49134Y48341D1*
X49057Y48405D1*
X49008Y48492D1*
X48990Y48590D1*
Y49164D1*
X49007Y49262D1*
X49057Y49348D1*
X49133Y49413D1*
X49227Y49447D1*
X49327D1*
X49420Y49413D1*
X49497Y49349D1*
X49547Y49263D1*
X49564Y49164D1*
Y48590D1*
G37*
G36*
X48564D2*
X48547Y48492D1*
X48497Y48406D1*
X48421Y48342D1*
X48327Y48308D1*
X48228Y48307D1*
X48134Y48341D1*
X48057Y48405D1*
X48008Y48492D1*
X47990Y48590D1*
Y49164D1*
X48007Y49262D1*
X48057Y49348D1*
X48133Y49413D1*
X48227Y49447D1*
X48327D1*
X48420Y49413D1*
X48497Y49349D1*
X48547Y49263D1*
X48564Y49164D1*
Y48590D1*
G37*
G36*
X47564D2*
X47547Y48492D1*
X47497Y48406D1*
X47421Y48342D1*
X47327Y48308D1*
X47228Y48307D1*
X47134Y48341D1*
X47057Y48405D1*
X47008Y48492D1*
X46990Y48590D1*
Y49164D1*
X47007Y49262D1*
X47057Y49348D1*
X47133Y49413D1*
X47227Y49447D1*
X47327D1*
X47420Y49413D1*
X47497Y49349D1*
X47547Y49263D1*
X47564Y49164D1*
Y48590D1*
G37*
G36*
X46564D2*
X46547Y48492D1*
X46497Y48406D1*
X46421Y48342D1*
X46327Y48308D1*
X46228Y48307D1*
X46134Y48341D1*
X46057Y48405D1*
X46008Y48492D1*
X45990Y48590D1*
Y49164D1*
X46007Y49262D1*
X46057Y49348D1*
X46133Y49413D1*
X46227Y49447D1*
X46327D1*
X46420Y49413D1*
X46497Y49349D1*
X46547Y49263D1*
X46564Y49164D1*
Y48590D1*
G37*
G36*
X45564D2*
X45547Y48492D1*
X45497Y48406D1*
X45421Y48342D1*
X45327Y48308D1*
X45228Y48307D1*
X45134Y48341D1*
X45057Y48405D1*
X45008Y48492D1*
X44990Y48590D1*
Y49164D1*
X45007Y49262D1*
X45057Y49348D1*
X45133Y49413D1*
X45227Y49447D1*
X45327D1*
X45420Y49413D1*
X45497Y49349D1*
X45547Y49263D1*
X45564Y49164D1*
Y48590D1*
G37*
G36*
X44564D2*
X44547Y48492D1*
X44497Y48406D1*
X44421Y48342D1*
X44327Y48308D1*
X44228Y48307D1*
X44134Y48341D1*
X44057Y48405D1*
X44008Y48492D1*
X43990Y48590D1*
Y49164D1*
X44007Y49262D1*
X44057Y49348D1*
X44133Y49413D1*
X44227Y49447D1*
X44327D1*
X44420Y49413D1*
X44497Y49349D1*
X44547Y49263D1*
X44564Y49164D1*
Y48590D1*
G37*
G36*
X43564D2*
X43547Y48492D1*
X43497Y48406D1*
X43421Y48342D1*
X43327Y48308D1*
X43228Y48307D1*
X43134Y48341D1*
X43057Y48405D1*
X43008Y48492D1*
X42990Y48590D1*
Y49164D1*
X43007Y49262D1*
X43057Y49348D1*
X43133Y49413D1*
X43227Y49447D1*
X43327D1*
X43420Y49413D1*
X43497Y49349D1*
X43547Y49263D1*
X43564Y49164D1*
Y48590D1*
G37*
G36*
X42564D2*
X42547Y48492D1*
X42497Y48406D1*
X42421Y48342D1*
X42327Y48308D1*
X42228Y48307D1*
X42134Y48341D1*
X42057Y48405D1*
X42008Y48492D1*
X41990Y48590D1*
Y49164D1*
X42007Y49262D1*
X42057Y49348D1*
X42133Y49413D1*
X42227Y49447D1*
X42327D1*
X42420Y49413D1*
X42497Y49349D1*
X42547Y49263D1*
X42564Y49164D1*
Y48590D1*
G37*
G36*
X41564D2*
X41547Y48492D1*
X41497Y48406D1*
X41421Y48342D1*
X41327Y48308D1*
X41228Y48307D1*
X41134Y48341D1*
X41057Y48405D1*
X41008Y48492D1*
X40990Y48590D1*
Y49164D1*
X41007Y49262D1*
X41057Y49348D1*
X41133Y49413D1*
X41227Y49447D1*
X41327D1*
X41420Y49413D1*
X41497Y49349D1*
X41547Y49263D1*
X41564Y49164D1*
Y48590D1*
G37*
G36*
X50564Y47590D2*
X50547Y47492D1*
X50497Y47406D1*
X50421Y47342D1*
X50327Y47308D1*
X50228Y47307D1*
X50134Y47341D1*
X50057Y47405D1*
X50008Y47492D1*
X49990Y47590D1*
Y48164D1*
X50007Y48262D1*
X50057Y48348D1*
X50133Y48413D1*
X50227Y48447D1*
X50327D1*
X50420Y48413D1*
X50497Y48349D1*
X50547Y48263D1*
X50564Y48164D1*
Y47590D1*
G37*
G36*
X49564D2*
X49547Y47492D1*
X49497Y47406D1*
X49421Y47342D1*
X49327Y47308D1*
X49228Y47307D1*
X49134Y47341D1*
X49057Y47405D1*
X49008Y47492D1*
X48990Y47590D1*
Y48164D1*
X49007Y48262D1*
X49057Y48348D1*
X49133Y48413D1*
X49227Y48447D1*
X49327D1*
X49420Y48413D1*
X49497Y48349D1*
X49547Y48263D1*
X49564Y48164D1*
Y47590D1*
G37*
G36*
X48564D2*
X48547Y47492D1*
X48497Y47406D1*
X48421Y47342D1*
X48327Y47308D1*
X48228Y47307D1*
X48134Y47341D1*
X48057Y47405D1*
X48008Y47492D1*
X47990Y47590D1*
Y48164D1*
X48007Y48262D1*
X48057Y48348D1*
X48133Y48413D1*
X48227Y48447D1*
X48327D1*
X48420Y48413D1*
X48497Y48349D1*
X48547Y48263D1*
X48564Y48164D1*
Y47590D1*
G37*
G36*
X47564D2*
X47547Y47492D1*
X47497Y47406D1*
X47421Y47342D1*
X47327Y47308D1*
X47228Y47307D1*
X47134Y47341D1*
X47057Y47405D1*
X47008Y47492D1*
X46990Y47590D1*
Y48164D1*
X47007Y48262D1*
X47057Y48348D1*
X47133Y48413D1*
X47227Y48447D1*
X47327D1*
X47420Y48413D1*
X47497Y48349D1*
X47547Y48263D1*
X47564Y48164D1*
Y47590D1*
G37*
G36*
X46564D2*
X46547Y47492D1*
X46497Y47406D1*
X46421Y47342D1*
X46327Y47308D1*
X46228Y47307D1*
X46134Y47341D1*
X46057Y47405D1*
X46008Y47492D1*
X45990Y47590D1*
Y48164D1*
X46007Y48262D1*
X46057Y48348D1*
X46133Y48413D1*
X46227Y48447D1*
X46327D1*
X46420Y48413D1*
X46497Y48349D1*
X46547Y48263D1*
X46564Y48164D1*
Y47590D1*
G37*
G36*
X45564D2*
X45547Y47492D1*
X45497Y47406D1*
X45421Y47342D1*
X45327Y47308D1*
X45228Y47307D1*
X45134Y47341D1*
X45057Y47405D1*
X45008Y47492D1*
X44990Y47590D1*
Y48164D1*
X45007Y48262D1*
X45057Y48348D1*
X45133Y48413D1*
X45227Y48447D1*
X45327D1*
X45420Y48413D1*
X45497Y48349D1*
X45547Y48263D1*
X45564Y48164D1*
Y47590D1*
G37*
G36*
X44564D2*
X44547Y47492D1*
X44497Y47406D1*
X44421Y47342D1*
X44327Y47308D1*
X44228Y47307D1*
X44134Y47341D1*
X44057Y47405D1*
X44008Y47492D1*
X43990Y47590D1*
Y48164D1*
X44007Y48262D1*
X44057Y48348D1*
X44133Y48413D1*
X44227Y48447D1*
X44327D1*
X44420Y48413D1*
X44497Y48349D1*
X44547Y48263D1*
X44564Y48164D1*
Y47590D1*
G37*
G36*
X43564D2*
X43547Y47492D1*
X43497Y47406D1*
X43421Y47342D1*
X43327Y47308D1*
X43228Y47307D1*
X43134Y47341D1*
X43057Y47405D1*
X43008Y47492D1*
X42990Y47590D1*
Y48164D1*
X43007Y48262D1*
X43057Y48348D1*
X43133Y48413D1*
X43227Y48447D1*
X43327D1*
X43420Y48413D1*
X43497Y48349D1*
X43547Y48263D1*
X43564Y48164D1*
Y47590D1*
G37*
G36*
X42564D2*
X42547Y47492D1*
X42497Y47406D1*
X42421Y47342D1*
X42327Y47308D1*
X42228Y47307D1*
X42134Y47341D1*
X42057Y47405D1*
X42008Y47492D1*
X41990Y47590D1*
Y48164D1*
X42007Y48262D1*
X42057Y48348D1*
X42133Y48413D1*
X42227Y48447D1*
X42327D1*
X42420Y48413D1*
X42497Y48349D1*
X42547Y48263D1*
X42564Y48164D1*
Y47590D1*
G37*
G36*
X41564D2*
X41547Y47492D1*
X41497Y47406D1*
X41421Y47342D1*
X41327Y47308D1*
X41228Y47307D1*
X41134Y47341D1*
X41057Y47405D1*
X41008Y47492D1*
X40990Y47590D1*
Y48164D1*
X41007Y48262D1*
X41057Y48348D1*
X41133Y48413D1*
X41227Y48447D1*
X41327D1*
X41420Y48413D1*
X41497Y48349D1*
X41547Y48263D1*
X41564Y48164D1*
Y47590D1*
G37*
G36*
X59164D2*
X59147Y47492D1*
X59097Y47406D1*
X59021Y47342D1*
X58927Y47308D1*
X58828Y47307D1*
X58734Y47341D1*
X58657Y47405D1*
X58608Y47492D1*
X58590Y47590D1*
Y48164D1*
X58607Y48262D1*
X58657Y48348D1*
X58733Y48413D1*
X58827Y48447D1*
X58927D1*
X59020Y48413D1*
X59097Y48349D1*
X59147Y48263D1*
X59164Y48164D1*
Y47590D1*
G37*
G36*
X58164D2*
X58147Y47492D1*
X58097Y47406D1*
X58021Y47342D1*
X57927Y47308D1*
X57828Y47307D1*
X57734Y47341D1*
X57657Y47405D1*
X57608Y47492D1*
X57590Y47590D1*
Y48164D1*
X57607Y48262D1*
X57657Y48348D1*
X57733Y48413D1*
X57827Y48447D1*
X57927D1*
X58020Y48413D1*
X58097Y48349D1*
X58147Y48263D1*
X58164Y48164D1*
Y47590D1*
G37*
G36*
X57164D2*
X57147Y47492D1*
X57097Y47406D1*
X57021Y47342D1*
X56927Y47308D1*
X56828Y47307D1*
X56734Y47341D1*
X56657Y47405D1*
X56608Y47492D1*
X56590Y47590D1*
Y48164D1*
X56607Y48262D1*
X56657Y48348D1*
X56733Y48413D1*
X56827Y48447D1*
X56927D1*
X57020Y48413D1*
X57097Y48349D1*
X57147Y48263D1*
X57164Y48164D1*
Y47590D1*
G37*
G36*
X56164D2*
X56147Y47492D1*
X56097Y47406D1*
X56021Y47342D1*
X55927Y47308D1*
X55828Y47307D1*
X55734Y47341D1*
X55657Y47405D1*
X55608Y47492D1*
X55590Y47590D1*
Y48164D1*
X55607Y48262D1*
X55657Y48348D1*
X55733Y48413D1*
X55827Y48447D1*
X55927D1*
X56020Y48413D1*
X56097Y48349D1*
X56147Y48263D1*
X56164Y48164D1*
Y47590D1*
G37*
G36*
X55164D2*
X55147Y47492D1*
X55097Y47406D1*
X55021Y47342D1*
X54927Y47308D1*
X54828Y47307D1*
X54734Y47341D1*
X54657Y47405D1*
X54608Y47492D1*
X54590Y47590D1*
Y48164D1*
X54607Y48262D1*
X54657Y48348D1*
X54733Y48413D1*
X54827Y48447D1*
X54927D1*
X55020Y48413D1*
X55097Y48349D1*
X55147Y48263D1*
X55164Y48164D1*
Y47590D1*
G37*
G36*
X54164D2*
X54147Y47492D1*
X54097Y47406D1*
X54021Y47342D1*
X53927Y47308D1*
X53828Y47307D1*
X53734Y47341D1*
X53657Y47405D1*
X53608Y47492D1*
X53590Y47590D1*
Y48164D1*
X53607Y48262D1*
X53657Y48348D1*
X53733Y48413D1*
X53827Y48447D1*
X53927D1*
X54020Y48413D1*
X54097Y48349D1*
X54147Y48263D1*
X54164Y48164D1*
Y47590D1*
G37*
G36*
X53164D2*
X53147Y47492D1*
X53097Y47406D1*
X53021Y47342D1*
X52927Y47308D1*
X52828Y47307D1*
X52734Y47341D1*
X52657Y47405D1*
X52608Y47492D1*
X52590Y47590D1*
Y48164D1*
X52607Y48262D1*
X52657Y48348D1*
X52733Y48413D1*
X52827Y48447D1*
X52927D1*
X53020Y48413D1*
X53097Y48349D1*
X53147Y48263D1*
X53164Y48164D1*
Y47590D1*
G37*
G36*
X52164D2*
X52147Y47492D1*
X52097Y47406D1*
X52021Y47342D1*
X51927Y47308D1*
X51828Y47307D1*
X51734Y47341D1*
X51657Y47405D1*
X51608Y47492D1*
X51590Y47590D1*
Y48164D1*
X51607Y48262D1*
X51657Y48348D1*
X51733Y48413D1*
X51827Y48447D1*
X51927D1*
X52020Y48413D1*
X52097Y48349D1*
X52147Y48263D1*
X52164Y48164D1*
Y47590D1*
G37*
G36*
X53577Y31177D2*
X53595Y31280D1*
X53647Y31370D1*
X53727Y31437D1*
X53825Y31473D1*
X53929D1*
X54027Y31437D1*
X54107Y31370D1*
X54159Y31280D1*
X54177Y31177D1*
Y30577D1*
X54159Y30475D1*
X54107Y30385D1*
X54027Y30317D1*
X53930Y30282D1*
X53825D1*
X53727Y30317D1*
X53648Y30384D1*
X53595Y30474D1*
X53577Y30577D1*
Y31177D1*
G37*
G36*
X54577D2*
X54595Y31280D1*
X54647Y31370D1*
X54727Y31437D1*
X54825Y31473D1*
X54929D1*
X55027Y31437D1*
X55107Y31370D1*
X55159Y31280D1*
X55177Y31177D1*
Y30577D1*
X55159Y30475D1*
X55107Y30385D1*
X55027Y30317D1*
X54930Y30282D1*
X54825D1*
X54727Y30317D1*
X54648Y30384D1*
X54595Y30474D1*
X54577Y30577D1*
Y31177D1*
G37*
G36*
X55577D2*
X55595Y31280D1*
X55647Y31370D1*
X55727Y31437D1*
X55825Y31473D1*
X55929D1*
X56027Y31437D1*
X56107Y31370D1*
X56159Y31280D1*
X56177Y31177D1*
Y30577D1*
X56159Y30475D1*
X56107Y30385D1*
X56027Y30317D1*
X55930Y30282D1*
X55825D1*
X55727Y30317D1*
X55648Y30384D1*
X55595Y30474D1*
X55577Y30577D1*
Y31177D1*
G37*
G36*
X56577D2*
X56595Y31280D1*
X56647Y31370D1*
X56727Y31437D1*
X56825Y31473D1*
X56929D1*
X57027Y31437D1*
X57107Y31370D1*
X57159Y31280D1*
X57177Y31177D1*
Y30577D1*
X57159Y30475D1*
X57107Y30385D1*
X57027Y30317D1*
X56930Y30282D1*
X56825D1*
X56727Y30317D1*
X56648Y30384D1*
X56595Y30474D1*
X56577Y30577D1*
Y31177D1*
G37*
G36*
X57577D2*
X57595Y31280D1*
X57647Y31370D1*
X57727Y31437D1*
X57825Y31473D1*
X57929D1*
X58027Y31437D1*
X58107Y31370D1*
X58159Y31280D1*
X58177Y31177D1*
Y30577D1*
X58159Y30475D1*
X58107Y30385D1*
X58027Y30317D1*
X57930Y30282D1*
X57825D1*
X57727Y30317D1*
X57648Y30384D1*
X57595Y30474D1*
X57577Y30577D1*
Y31177D1*
G37*
G36*
X58577D2*
X58595Y31280D1*
X58647Y31370D1*
X58727Y31437D1*
X58825Y31473D1*
X58929D1*
X59027Y31437D1*
X59107Y31370D1*
X59159Y31280D1*
X59177Y31177D1*
Y30577D1*
X59159Y30475D1*
X59107Y30385D1*
X59027Y30317D1*
X58930Y30282D1*
X58825D1*
X58727Y30317D1*
X58648Y30384D1*
X58595Y30474D1*
X58577Y30577D1*
Y31177D1*
G37*
G36*
X44590Y31164D2*
X44607Y31262D1*
X44657Y31348D1*
X44733Y31413D1*
X44827Y31447D1*
X44927D1*
X45020Y31413D1*
X45097Y31349D1*
X45147Y31263D1*
X45164Y31164D1*
Y30590D1*
X45147Y30492D1*
X45097Y30406D1*
X45021Y30342D1*
X44927Y30308D1*
X44828Y30307D1*
X44734Y30341D1*
X44657Y30405D1*
X44608Y30492D1*
X44590Y30590D1*
Y31164D1*
G37*
G36*
X45590D2*
X45607Y31262D1*
X45657Y31348D1*
X45733Y31413D1*
X45827Y31447D1*
X45927D1*
X46020Y31413D1*
X46097Y31349D1*
X46147Y31263D1*
X46164Y31164D1*
Y30590D1*
X46147Y30492D1*
X46097Y30406D1*
X46021Y30342D1*
X45927Y30308D1*
X45828Y30307D1*
X45734Y30341D1*
X45657Y30405D1*
X45608Y30492D1*
X45590Y30590D1*
Y31164D1*
G37*
G36*
X46590D2*
X46607Y31262D1*
X46657Y31348D1*
X46733Y31413D1*
X46827Y31447D1*
X46927D1*
X47020Y31413D1*
X47097Y31349D1*
X47147Y31263D1*
X47164Y31164D1*
Y30590D1*
X47147Y30492D1*
X47097Y30406D1*
X47021Y30342D1*
X46927Y30308D1*
X46828Y30307D1*
X46734Y30341D1*
X46657Y30405D1*
X46608Y30492D1*
X46590Y30590D1*
Y31164D1*
G37*
G36*
X47590D2*
X47607Y31262D1*
X47657Y31348D1*
X47733Y31413D1*
X47827Y31447D1*
X47927D1*
X48020Y31413D1*
X48097Y31349D1*
X48147Y31263D1*
X48164Y31164D1*
Y30590D1*
X48147Y30492D1*
X48097Y30406D1*
X48021Y30342D1*
X47927Y30308D1*
X47828Y30307D1*
X47734Y30341D1*
X47657Y30405D1*
X47608Y30492D1*
X47590Y30590D1*
Y31164D1*
G37*
G36*
X48590D2*
X48607Y31262D1*
X48657Y31348D1*
X48733Y31413D1*
X48827Y31447D1*
X48927D1*
X49020Y31413D1*
X49097Y31349D1*
X49147Y31263D1*
X49164Y31164D1*
Y30590D1*
X49147Y30492D1*
X49097Y30406D1*
X49021Y30342D1*
X48927Y30308D1*
X48828Y30307D1*
X48734Y30341D1*
X48657Y30405D1*
X48608Y30492D1*
X48590Y30590D1*
Y31164D1*
G37*
G36*
X49590D2*
X49607Y31262D1*
X49657Y31348D1*
X49733Y31413D1*
X49827Y31447D1*
X49927D1*
X50020Y31413D1*
X50097Y31349D1*
X50147Y31263D1*
X50164Y31164D1*
Y30590D1*
X50147Y30492D1*
X50097Y30406D1*
X50021Y30342D1*
X49927Y30308D1*
X49828Y30307D1*
X49734Y30341D1*
X49657Y30405D1*
X49608Y30492D1*
X49590Y30590D1*
Y31164D1*
G37*
G36*
X50590D2*
X50607Y31262D1*
X50657Y31348D1*
X50733Y31413D1*
X50827Y31447D1*
X50927D1*
X51020Y31413D1*
X51097Y31349D1*
X51147Y31263D1*
X51164Y31164D1*
Y30590D1*
X51147Y30492D1*
X51097Y30406D1*
X51021Y30342D1*
X50927Y30308D1*
X50828Y30307D1*
X50734Y30341D1*
X50657Y30405D1*
X50608Y30492D1*
X50590Y30590D1*
Y31164D1*
G37*
G36*
X51590D2*
X51607Y31262D1*
X51657Y31348D1*
X51733Y31413D1*
X51827Y31447D1*
X51927D1*
X52020Y31413D1*
X52097Y31349D1*
X52147Y31263D1*
X52164Y31164D1*
Y30590D1*
X52147Y30492D1*
X52097Y30406D1*
X52021Y30342D1*
X51927Y30308D1*
X51828Y30307D1*
X51734Y30341D1*
X51657Y30405D1*
X51608Y30492D1*
X51590Y30590D1*
Y31164D1*
G37*
D17*
X47377Y35377D3*
D18*
X49377D3*
D17*
X51877D3*
D18*
X53877D3*
D19*
X40377Y45877D3*
D20*
X41377D3*
D19*
X40377Y42377D3*
D20*
X41377D3*
D19*
X40377Y38877D3*
D20*
X41377D3*
D19*
X40377Y35377D3*
D20*
X41377D3*
D19*
X40377Y31877D3*
D20*
X41377D3*
D19*
X55377Y44877D3*
D20*
X56377D3*
D19*
X55877Y38377D3*
D20*
X56877D3*
D18*
X37877Y45877D3*
D21*
X37090D3*
X36302D3*
X35515D3*
D18*
X38058Y42558D3*
D21*
X37271D3*
X36483D3*
X35696D3*
D18*
X38058Y38558D3*
D21*
X37271D3*
X36483D3*
X35696D3*
D18*
X38058Y35058D3*
D21*
X37271D3*
X36483D3*
X35696D3*
D18*
X37877Y31877D3*
D21*
X37090D3*
X36302D3*
X35515D3*
D18*
X58377Y40377D3*
D21*
Y41165D3*
Y41952D3*
Y42739D3*
D18*
Y33877D3*
D21*
Y34665D3*
Y35452D3*
Y36239D3*
D17*
X43877Y43877D3*
D18*
X44877D3*
D17*
X43877Y41877D3*
D18*
X44877D3*
D17*
X43877Y39377D3*
D18*
X44877D3*
D17*
X43877Y37377D3*
D18*
X44877D3*
D17*
X43877Y34877D3*
D18*
X44877D3*
D17*
X56377Y41377D3*
D18*
Y42377D3*
D17*
Y34877D3*
D18*
Y33877D3*
D22*
X46693Y43468D3*
D23*
Y42468D3*
Y41468D3*
Y40468D3*
Y39468D3*
Y38468D3*
Y37468D3*
X49693D3*
Y38468D3*
Y39468D3*
Y40468D3*
Y41468D3*
Y42468D3*
Y43468D3*
D22*
X51377Y43377D3*
D23*
Y42377D3*
Y41377D3*
Y40377D3*
Y39377D3*
Y38377D3*
Y37377D3*
X54377D3*
Y38377D3*
Y39377D3*
Y40377D3*
Y41377D3*
Y42377D3*
Y43377D3*
M02*
