%TF.GenerationSoftware,KiCad,Pcbnew,7.0.9*%
%TF.CreationDate,2023-11-26T05:55:09+10:00*%
%TF.ProjectId,AUDIO-KEYPAD,41554449-4f2d-44b4-9559-5041442e6b69,rev?*%
%TF.SameCoordinates,Original*%
%TF.FileFunction,Legend,Bot*%
%TF.FilePolarity,Positive*%
%FSLAX46Y46*%
G04 Gerber Fmt 4.6, Leading zero omitted, Abs format (unit mm)*
G04 Created by KiCad (PCBNEW 7.0.9) date 2023-11-26 05:55:09*
%MOMM*%
%LPD*%
G01*
G04 APERTURE LIST*
%ADD10C,0.150000*%
G04 APERTURE END LIST*
D10*
X105339160Y-108005895D02*
X105815350Y-108005895D01*
X105243922Y-107720180D02*
X105577255Y-108720180D01*
X105577255Y-108720180D02*
X105910588Y-107720180D01*
X106243922Y-108720180D02*
X106243922Y-107910657D01*
X106243922Y-107910657D02*
X106291541Y-107815419D01*
X106291541Y-107815419D02*
X106339160Y-107767800D01*
X106339160Y-107767800D02*
X106434398Y-107720180D01*
X106434398Y-107720180D02*
X106624874Y-107720180D01*
X106624874Y-107720180D02*
X106720112Y-107767800D01*
X106720112Y-107767800D02*
X106767731Y-107815419D01*
X106767731Y-107815419D02*
X106815350Y-107910657D01*
X106815350Y-107910657D02*
X106815350Y-108720180D01*
X107291541Y-107720180D02*
X107291541Y-108720180D01*
X107291541Y-108720180D02*
X107529636Y-108720180D01*
X107529636Y-108720180D02*
X107672493Y-108672561D01*
X107672493Y-108672561D02*
X107767731Y-108577323D01*
X107767731Y-108577323D02*
X107815350Y-108482085D01*
X107815350Y-108482085D02*
X107862969Y-108291609D01*
X107862969Y-108291609D02*
X107862969Y-108148752D01*
X107862969Y-108148752D02*
X107815350Y-107958276D01*
X107815350Y-107958276D02*
X107767731Y-107863038D01*
X107767731Y-107863038D02*
X107672493Y-107767800D01*
X107672493Y-107767800D02*
X107529636Y-107720180D01*
X107529636Y-107720180D02*
X107291541Y-107720180D01*
X108291541Y-107720180D02*
X108291541Y-108720180D01*
X108958207Y-108720180D02*
X109148683Y-108720180D01*
X109148683Y-108720180D02*
X109243921Y-108672561D01*
X109243921Y-108672561D02*
X109339159Y-108577323D01*
X109339159Y-108577323D02*
X109386778Y-108386847D01*
X109386778Y-108386847D02*
X109386778Y-108053514D01*
X109386778Y-108053514D02*
X109339159Y-107863038D01*
X109339159Y-107863038D02*
X109243921Y-107767800D01*
X109243921Y-107767800D02*
X109148683Y-107720180D01*
X109148683Y-107720180D02*
X108958207Y-107720180D01*
X108958207Y-107720180D02*
X108862969Y-107767800D01*
X108862969Y-107767800D02*
X108767731Y-107863038D01*
X108767731Y-107863038D02*
X108720112Y-108053514D01*
X108720112Y-108053514D02*
X108720112Y-108386847D01*
X108720112Y-108386847D02*
X108767731Y-108577323D01*
X108767731Y-108577323D02*
X108862969Y-108672561D01*
X108862969Y-108672561D02*
X108958207Y-108720180D01*
X110577255Y-107720180D02*
X110577255Y-108720180D01*
X111148683Y-107720180D02*
X110720112Y-108291609D01*
X111148683Y-108720180D02*
X110577255Y-108148752D01*
X111577255Y-108243990D02*
X111910588Y-108243990D01*
X112053445Y-107720180D02*
X111577255Y-107720180D01*
X111577255Y-107720180D02*
X111577255Y-108720180D01*
X111577255Y-108720180D02*
X112053445Y-108720180D01*
X112672493Y-108196371D02*
X112672493Y-107720180D01*
X112339160Y-108720180D02*
X112672493Y-108196371D01*
X112672493Y-108196371D02*
X113005826Y-108720180D01*
X113339160Y-107720180D02*
X113339160Y-108720180D01*
X113339160Y-108720180D02*
X113720112Y-108720180D01*
X113720112Y-108720180D02*
X113815350Y-108672561D01*
X113815350Y-108672561D02*
X113862969Y-108624942D01*
X113862969Y-108624942D02*
X113910588Y-108529704D01*
X113910588Y-108529704D02*
X113910588Y-108386847D01*
X113910588Y-108386847D02*
X113862969Y-108291609D01*
X113862969Y-108291609D02*
X113815350Y-108243990D01*
X113815350Y-108243990D02*
X113720112Y-108196371D01*
X113720112Y-108196371D02*
X113339160Y-108196371D01*
X114291541Y-108005895D02*
X114767731Y-108005895D01*
X114196303Y-107720180D02*
X114529636Y-108720180D01*
X114529636Y-108720180D02*
X114862969Y-107720180D01*
X115196303Y-107720180D02*
X115196303Y-108720180D01*
X115196303Y-108720180D02*
X115434398Y-108720180D01*
X115434398Y-108720180D02*
X115577255Y-108672561D01*
X115577255Y-108672561D02*
X115672493Y-108577323D01*
X115672493Y-108577323D02*
X115720112Y-108482085D01*
X115720112Y-108482085D02*
X115767731Y-108291609D01*
X115767731Y-108291609D02*
X115767731Y-108148752D01*
X115767731Y-108148752D02*
X115720112Y-107958276D01*
X115720112Y-107958276D02*
X115672493Y-107863038D01*
X115672493Y-107863038D02*
X115577255Y-107767800D01*
X115577255Y-107767800D02*
X115434398Y-107720180D01*
X115434398Y-107720180D02*
X115196303Y-107720180D01*
X119869636Y-107423990D02*
X120822017Y-107423990D01*
X119679160Y-106852561D02*
X120345826Y-108852561D01*
X120345826Y-108852561D02*
X121012493Y-106852561D01*
X122726779Y-106852561D02*
X121583922Y-106852561D01*
X122155350Y-106852561D02*
X122155350Y-108852561D01*
X122155350Y-108852561D02*
X121964874Y-108566847D01*
X121964874Y-108566847D02*
X121774398Y-108376371D01*
X121774398Y-108376371D02*
X121583922Y-108281133D01*
X123964874Y-108852561D02*
X124155351Y-108852561D01*
X124155351Y-108852561D02*
X124345827Y-108757323D01*
X124345827Y-108757323D02*
X124441065Y-108662085D01*
X124441065Y-108662085D02*
X124536303Y-108471609D01*
X124536303Y-108471609D02*
X124631541Y-108090657D01*
X124631541Y-108090657D02*
X124631541Y-107614466D01*
X124631541Y-107614466D02*
X124536303Y-107233514D01*
X124536303Y-107233514D02*
X124441065Y-107043038D01*
X124441065Y-107043038D02*
X124345827Y-106947800D01*
X124345827Y-106947800D02*
X124155351Y-106852561D01*
X124155351Y-106852561D02*
X123964874Y-106852561D01*
X123964874Y-106852561D02*
X123774398Y-106947800D01*
X123774398Y-106947800D02*
X123679160Y-107043038D01*
X123679160Y-107043038D02*
X123583922Y-107233514D01*
X123583922Y-107233514D02*
X123488684Y-107614466D01*
X123488684Y-107614466D02*
X123488684Y-108090657D01*
X123488684Y-108090657D02*
X123583922Y-108471609D01*
X123583922Y-108471609D02*
X123679160Y-108662085D01*
X123679160Y-108662085D02*
X123774398Y-108757323D01*
X123774398Y-108757323D02*
X123964874Y-108852561D01*
M02*
