  0
SECTION
  2
HEADER
  9
$ANGBASE
  50
0.0
  9
$ANGDIR
  70
1
  9
$MEASUREMENT
  70
1
  0
ENDSEC
  0
SECTION
  2
TABLES
  0
TABLE
  2
LTYPE
  70
4
  0
LTYPE
  5
40F
  2
CONTINUOUS
  70
0
  3
Solid line
  72
65
  73
0
  40
0.0
  0
LTYPE
  5
410
  2
DASHDOT
 70
0
  3
Dash Dot ____ _ ____ _
 72
65
 73
4
 40
2.0
 49
1.25
 49
-0.25
 49
0.25
 49
-0.25
  0
LTYPE
  5
411
  2
DASHED
 70
0
  3
Dashed __ __ __ __ __
 72
65
 73
2
 40
0.75
 49
0.5
 49
-0.25
  0
LTYPE
  5
43B
  2
DOTTED
 70
0
  3
Dotted .  .  .  .
 72
65
 73
2
 40
0.2
 49
0.0
 49
-0.2
  0
ENDTAB
  0
TABLE
  2
STYLE
  70
4
  0
STYLE
  2
KICAD
  70
0
  40
0
  41
1
  42
1
  50
0
  71
0
  3
isocp.shx
  0
STYLE
  2
KICADB
  70
0
  40
0
  41
1
  42
1
  50
0
  71
0
  3
isocp.shx
  0
STYLE
  2
KICADI
  70
0
  40
0
  41
1
  42
1
  50
15
  71
0
  3
isocp.shx
  0
STYLE
  2
KICADBI
  70
0
  40
0
  41
1
  42
1
  50
15
  71
0
  3
isocp.shx
  0
ENDTAB
  0
TABLE
  2
LAYER
  70
1
  0
LAYER
  2
BLACK
  70
0
  62
7
  6
CONTINUOUS
  0
ENDTAB
  0
ENDSEC
  0
SECTION
  2
ENTITIES
0
LINE
8
BLACK
6
CONTINUOUS
10
97.75
20
-59.0999999999999943
11
130.960000000000008
21
-59.0999999999999943
0
LINE
8
BLACK
6
CONTINUOUS
10
130.960000000000008
20
-59.0999999999999943
11
130.960000000000008
21
-110.5999999999999943
0
LINE
8
BLACK
6
CONTINUOUS
10
130.960000000000008
20
-110.5999999999999943
11
97.75
21
-110.5999999999999943
0
LINE
8
BLACK
6
CONTINUOUS
10
97.75
20
-110.5999999999999943
11
97.75
21
-59.0999999999999943
0
CIRCLE
8
BLACK
10
127.6899999999999977
20
-62.3900000000000006
40
1.703884
0
CIRCLE
8
BLACK
10
100.9499999999999886
20
-62.5399999999999991
40
1.703884
0
CIRCLE
8
BLACK
10
100.9299999999999926
20
-107.5499999999999972
40
1.703884
0
CIRCLE
8
BLACK
10
127.9099999999999966
20
-107.6599999999999966
40
1.7960509999999998
0
LINE
8
BLACK
6
CONTINUOUS
10
101.6099999999999994
20
-98.7199999999999989
11
102.5099999999999909
21
-99.6199999999999903
0
LINE
8
BLACK
6
CONTINUOUS
10
102.5099999999999909
20
-98.7199999999999989
11
101.6099999999999994
21
-99.6199999999999903
0
LINE
8
BLACK
6
CONTINUOUS
10
101.6099999999999994
20
-101.2599999999999909
11
102.5099999999999909
21
-102.1599999999999966
0
LINE
8
BLACK
6
CONTINUOUS
10
102.5099999999999909
20
-101.2599999999999909
11
101.6099999999999994
21
-102.1599999999999966
0
LINE
8
BLACK
6
CONTINUOUS
10
105.7349999999999994
20
-100.3799999999999955
11
106.6349999999999909
21
-101.2800000000000011
0
LINE
8
BLACK
6
CONTINUOUS
10
106.6349999999999909
20
-100.3799999999999955
11
105.7349999999999994
21
-101.2800000000000011
0
LINE
8
BLACK
6
CONTINUOUS
10
105.7349999999999994
20
-102.9200000000000017
11
106.6349999999999909
21
-103.8199999999999932
0
LINE
8
BLACK
6
CONTINUOUS
10
106.6349999999999909
20
-102.9200000000000017
11
105.7349999999999994
21
-103.8199999999999932
0
LINE
8
BLACK
6
CONTINUOUS
10
109.8099999999999881
20
-100.3499999999999943
11
110.7099999999999937
21
-101.25
0
LINE
8
BLACK
6
CONTINUOUS
10
110.7099999999999937
20
-100.3499999999999943
11
109.8099999999999881
21
-101.25
0
LINE
8
BLACK
6
CONTINUOUS
10
109.8099999999999881
20
-102.8900000000000006
11
110.7099999999999937
21
-103.789999999999992
0
LINE
8
BLACK
6
CONTINUOUS
10
110.7099999999999937
20
-102.8900000000000006
11
109.8099999999999881
21
-103.789999999999992
0
LINE
8
BLACK
6
CONTINUOUS
10
113.8849999999999909
20
-100.3549999999999898
11
114.7849999999999966
21
-101.2549999999999955
0
LINE
8
BLACK
6
CONTINUOUS
10
114.7849999999999966
20
-100.3549999999999898
11
113.8849999999999909
21
-101.2549999999999955
0
LINE
8
BLACK
6
CONTINUOUS
10
113.8849999999999909
20
-102.894999999999996
11
114.7849999999999966
21
-103.7950000000000017
0
LINE
8
BLACK
6
CONTINUOUS
10
114.7849999999999966
20
-102.894999999999996
11
113.8849999999999909
21
-103.7950000000000017
0
LINE
8
BLACK
6
CONTINUOUS
10
117.9599999999999937
20
-100.2999999999999972
11
118.8599999999999994
21
-101.1999999999999886
0
LINE
8
BLACK
6
CONTINUOUS
10
118.8599999999999994
20
-100.2999999999999972
11
117.9599999999999937
21
-101.1999999999999886
0
LINE
8
BLACK
6
CONTINUOUS
10
117.9599999999999937
20
-102.8399999999999892
11
118.8599999999999994
21
-103.7399999999999949
0
LINE
8
BLACK
6
CONTINUOUS
10
118.8599999999999994
20
-102.8399999999999892
11
117.9599999999999937
21
-103.7399999999999949
0
LINE
8
BLACK
6
CONTINUOUS
10
122.0349999999999966
20
-100.2999999999999972
11
122.9349999999999881
21
-101.1999999999999886
0
LINE
8
BLACK
6
CONTINUOUS
10
122.9349999999999881
20
-100.2999999999999972
11
122.0349999999999966
21
-101.1999999999999886
0
LINE
8
BLACK
6
CONTINUOUS
10
122.0349999999999966
20
-102.8399999999999892
11
122.9349999999999881
21
-103.7399999999999949
0
LINE
8
BLACK
6
CONTINUOUS
10
122.9349999999999881
20
-102.8399999999999892
11
122.0349999999999966
21
-103.7399999999999949
0
LINE
8
BLACK
6
CONTINUOUS
10
126.2199999999999989
20
-98.5300000000000011
11
127.1199999999999903
21
-99.4299999999999926
0
LINE
8
BLACK
6
CONTINUOUS
10
127.1199999999999903
20
-98.5300000000000011
11
126.2199999999999989
21
-99.4299999999999926
0
LINE
8
BLACK
6
CONTINUOUS
10
126.2199999999999989
20
-101.0699999999999932
11
127.1199999999999903
21
-101.9699999999999989
0
LINE
8
BLACK
6
CONTINUOUS
10
127.1199999999999903
20
-101.0699999999999932
11
126.2199999999999989
21
-101.9699999999999989
0
CIRCLE
8
BLACK
10
101.5899999999999892
20
-86.1700000000000017
40
0.595
0
CIRCLE
8
BLACK
10
101.6599999999999966
20
-77.4500000000000028
40
0.595
0
CIRCLE
8
BLACK
10
104.1299999999999955
20
-86.1700000000000017
40
0.595
0
CIRCLE
8
BLACK
10
104.1999999999999886
20
-77.4500000000000028
40
0.595
0
CIRCLE
8
BLACK
10
105.4899999999999949
20
-67.1099999999999994
40
0.595
0
CIRCLE
8
BLACK
10
108.0300000000000011
20
-67.1099999999999994
40
0.595
0
CIRCLE
8
BLACK
10
109.0699999999999932
20
-93.5999999999999943
40
0.595
0
CIRCLE
8
BLACK
10
110.5699999999999932
20
-67.1099999999999994
40
0.595
0
CIRCLE
8
BLACK
10
111.6099999999999994
20
-93.5999999999999943
40
0.595
0
CIRCLE
8
BLACK
10
111.9799999999999898
20
-75.7399999999999949
40
0.595
0
CIRCLE
8
BLACK
10
112.0499999999999972
20
-85.3900000000000006
40
0.595
0
CIRCLE
8
BLACK
10
113.1099999999999994
20
-67.1099999999999994
40
0.595
0
CIRCLE
8
BLACK
10
114.1499999999999915
20
-93.5999999999999943
40
0.595
0
CIRCLE
8
BLACK
10
114.519999999999996
20
-75.7399999999999949
40
0.595
0
CIRCLE
8
BLACK
10
114.5899999999999892
20
-85.3900000000000006
40
0.595
0
CIRCLE
8
BLACK
10
115.6499999999999915
20
-67.1099999999999994
40
0.595
0
CIRCLE
8
BLACK
10
116.6899999999999977
20
-93.5999999999999943
40
0.595
0
CIRCLE
8
BLACK
10
118.1899999999999977
20
-67.1099999999999994
40
0.595
0
CIRCLE
8
BLACK
10
119.2299999999999898
20
-93.5999999999999943
40
0.595
0
CIRCLE
8
BLACK
10
120.7299999999999898
20
-67.1099999999999994
40
0.595
0
CIRCLE
8
BLACK
10
121.769999999999996
20
-93.5999999999999943
40
0.595
0
CIRCLE
8
BLACK
10
123.269999999999996
20
-67.1099999999999994
40
0.595
0
CIRCLE
8
BLACK
10
123.4199999999999875
20
-75.9399999999999977
40
0.595
0
CIRCLE
8
BLACK
10
123.6199999999999903
20
-85.4500000000000028
40
0.595
0
CIRCLE
8
BLACK
10
124.3099999999999881
20
-93.5999999999999943
40
0.595
0
CIRCLE
8
BLACK
10
125.9599999999999937
20
-75.9399999999999977
40
0.595
0
CIRCLE
8
BLACK
10
126.1599999999999966
20
-85.4500000000000028
40
0.595
0
CIRCLE
8
BLACK
10
126.8499999999999943
20
-93.5999999999999943
40
0.595
0
LINE
8
BLACK
6
CONTINUOUS
10
100.3077679999999958
20
-113.7648379999999975
11
100.3077679999999958
21
-111.7648379999999975
0
LINE
8
BLACK
6
CONTINUOUS
10
100.3077679999999958
20
-111.7648379999999975
11
100.7839579999999984
21
-111.7648379999999975
0
LINE
8
BLACK
6
CONTINUOUS
10
100.7839579999999984
20
-111.7648379999999975
11
101.0696729999999945
21
-111.8600759999999923
0
LINE
8
BLACK
6
CONTINUOUS
10
101.0696729999999945
20
-111.8600759999999923
11
101.2601489999999984
21
-112.0505519999999962
0
LINE
8
BLACK
6
CONTINUOUS
10
101.2601489999999984
20
-112.0505519999999962
11
101.3553869999999932
21
-112.241028
0
LINE
8
BLACK
6
CONTINUOUS
10
101.3553869999999932
20
-112.241028
11
101.4506250000000023
21
-112.6219799999999935
0
LINE
8
BLACK
6
CONTINUOUS
10
101.4506250000000023
20
-112.6219799999999935
11
101.4506250000000023
21
-112.9076949999999897
0
LINE
8
BLACK
6
CONTINUOUS
10
101.4506250000000023
20
-112.9076949999999897
11
101.3553869999999932
21
-113.2886469999999974
0
LINE
8
BLACK
6
CONTINUOUS
10
101.3553869999999932
20
-113.2886469999999974
11
101.2601489999999984
21
-113.4791230000000013
0
LINE
8
BLACK
6
CONTINUOUS
10
101.2601489999999984
20
-113.4791230000000013
11
101.0696729999999945
21
-113.6695999999999884
0
LINE
8
BLACK
6
CONTINUOUS
10
101.0696729999999945
20
-113.6695999999999884
11
100.7839579999999984
21
-113.7648379999999975
0
LINE
8
BLACK
6
CONTINUOUS
10
100.7839579999999984
20
-113.7648379999999975
11
100.3077679999999958
21
-113.7648379999999975
0
LINE
8
BLACK
6
CONTINUOUS
10
102.3077679999999958
20
-113.7648379999999975
11
102.3077679999999958
21
-112.4315039999999897
0
LINE
8
BLACK
6
CONTINUOUS
10
102.3077679999999958
20
-112.8124569999999949
11
102.4030059999999906
21
-112.6219799999999935
0
LINE
8
BLACK
6
CONTINUOUS
10
102.4030059999999906
20
-112.6219799999999935
11
102.4982439999999997
21
-112.5267419999999987
0
LINE
8
BLACK
6
CONTINUOUS
10
102.4982439999999997
20
-112.5267419999999987
11
102.6887199999999893
21
-112.4315039999999897
0
LINE
8
BLACK
6
CONTINUOUS
10
102.6887199999999893
20
-112.4315039999999897
11
102.8791969999999907
21
-112.4315039999999897
0
LINE
8
BLACK
6
CONTINUOUS
10
103.5458629999999971
20
-113.7648379999999975
11
103.5458629999999971
21
-112.4315039999999897
0
LINE
8
BLACK
6
CONTINUOUS
10
103.5458629999999971
20
-111.7648379999999975
11
103.4506250000000023
21
-111.8600759999999923
0
LINE
8
BLACK
6
CONTINUOUS
10
103.4506250000000023
20
-111.8600759999999923
11
103.5458629999999971
21
-111.9553140000000013
0
LINE
8
BLACK
6
CONTINUOUS
10
103.5458629999999971
20
-111.9553140000000013
11
103.6411009999999919
21
-111.8600759999999923
0
LINE
8
BLACK
6
CONTINUOUS
10
103.6411009999999919
20
-111.8600759999999923
11
103.5458629999999971
21
-111.7648379999999975
0
LINE
8
BLACK
6
CONTINUOUS
10
103.5458629999999971
20
-111.7648379999999975
11
103.5458629999999971
21
-111.9553140000000013
0
LINE
8
BLACK
6
CONTINUOUS
10
104.7839579999999984
20
-113.7648379999999975
11
104.5934819999999945
21
-113.6695999999999884
0
LINE
8
BLACK
6
CONTINUOUS
10
104.5934819999999945
20
-113.6695999999999884
11
104.4982439999999997
21
-113.4791230000000013
0
LINE
8
BLACK
6
CONTINUOUS
10
104.4982439999999997
20
-113.4791230000000013
11
104.4982439999999997
21
-111.7648379999999975
0
LINE
8
BLACK
6
CONTINUOUS
10
105.8315769999999958
20
-113.7648379999999975
11
105.6411009999999919
21
-113.6695999999999884
0
LINE
8
BLACK
6
CONTINUOUS
10
105.6411009999999919
20
-113.6695999999999884
11
105.5458629999999971
21
-113.4791230000000013
0
LINE
8
BLACK
6
CONTINUOUS
10
105.5458629999999971
20
-113.4791230000000013
11
105.5458629999999971
21
-111.7648379999999975
0
LINE
8
BLACK
6
CONTINUOUS
10
108.117291999999992
20
-113.7648379999999975
11
108.117291999999992
21
-111.7648379999999975
0
LINE
8
BLACK
6
CONTINUOUS
10
108.117291999999992
20
-111.7648379999999975
11
108.7839589999999959
21
-113.1934089999999884
0
LINE
8
BLACK
6
CONTINUOUS
10
108.7839589999999959
20
-113.1934089999999884
11
109.4506249999999881
21
-111.7648379999999975
0
LINE
8
BLACK
6
CONTINUOUS
10
109.4506249999999881
20
-111.7648379999999975
11
109.4506249999999881
21
-113.7648379999999975
0
LINE
8
BLACK
6
CONTINUOUS
10
111.2601489999999984
20
-113.7648379999999975
11
111.2601489999999984
21
-112.7172190000000001
0
LINE
8
BLACK
6
CONTINUOUS
10
111.2601489999999984
20
-112.7172190000000001
11
111.1649109999999894
21
-112.5267419999999987
0
LINE
8
BLACK
6
CONTINUOUS
10
111.1649109999999894
20
-112.5267419999999987
11
110.9744349999999997
21
-112.4315039999999897
0
LINE
8
BLACK
6
CONTINUOUS
10
110.9744349999999997
20
-112.4315039999999897
11
110.5934819999999945
21
-112.4315039999999897
0
LINE
8
BLACK
6
CONTINUOUS
10
110.5934819999999945
20
-112.4315039999999897
11
110.4030059999999906
21
-112.5267419999999987
0
LINE
8
BLACK
6
CONTINUOUS
10
111.2601489999999984
20
-113.6695999999999884
11
111.0696729999999945
21
-113.7648379999999975
0
LINE
8
BLACK
6
CONTINUOUS
10
111.0696729999999945
20
-113.7648379999999975
11
110.5934819999999945
21
-113.7648379999999975
0
LINE
8
BLACK
6
CONTINUOUS
10
110.5934819999999945
20
-113.7648379999999975
11
110.4030059999999906
21
-113.6695999999999884
0
LINE
8
BLACK
6
CONTINUOUS
10
110.4030059999999906
20
-113.6695999999999884
11
110.3077679999999958
21
-113.4791230000000013
0
LINE
8
BLACK
6
CONTINUOUS
10
110.3077679999999958
20
-113.4791230000000013
11
110.3077679999999958
21
-113.2886469999999974
0
LINE
8
BLACK
6
CONTINUOUS
10
110.3077679999999958
20
-113.2886469999999974
11
110.4030059999999906
21
-113.0981709999999936
0
LINE
8
BLACK
6
CONTINUOUS
10
110.4030059999999906
20
-113.0981709999999936
11
110.5934819999999945
21
-113.0029329999999987
0
LINE
8
BLACK
6
CONTINUOUS
10
110.5934819999999945
20
-113.0029329999999987
11
111.0696729999999945
21
-113.0029329999999987
0
LINE
8
BLACK
6
CONTINUOUS
10
111.0696729999999945
20
-113.0029329999999987
11
111.2601489999999984
21
-112.9076949999999897
0
LINE
8
BLACK
6
CONTINUOUS
10
112.212530000000001
20
-112.4315039999999897
11
112.212530000000001
21
-114.4315039999999897
0
LINE
8
BLACK
6
CONTINUOUS
10
112.212530000000001
20
-112.5267419999999987
11
112.4030059999999906
21
-112.4315039999999897
0
LINE
8
BLACK
6
CONTINUOUS
10
112.4030059999999906
20
-112.4315039999999897
11
112.7839589999999959
21
-112.4315039999999897
0
LINE
8
BLACK
6
CONTINUOUS
10
112.7839589999999959
20
-112.4315039999999897
11
112.9744349999999997
21
-112.5267419999999987
0
LINE
8
BLACK
6
CONTINUOUS
10
112.9744349999999997
20
-112.5267419999999987
11
113.0696729999999945
21
-112.6219799999999935
0
LINE
8
BLACK
6
CONTINUOUS
10
113.0696729999999945
20
-112.6219799999999935
11
113.1649109999999894
21
-112.8124569999999949
0
LINE
8
BLACK
6
CONTINUOUS
10
113.1649109999999894
20
-112.8124569999999949
11
113.1649109999999894
21
-113.3838849999999923
0
LINE
8
BLACK
6
CONTINUOUS
10
113.1649109999999894
20
-113.3838849999999923
11
113.0696729999999945
21
-113.5743609999999961
0
LINE
8
BLACK
6
CONTINUOUS
10
113.0696729999999945
20
-113.5743609999999961
11
112.9744349999999997
21
-113.6695999999999884
0
LINE
8
BLACK
6
CONTINUOUS
10
112.9744349999999997
20
-113.6695999999999884
11
112.7839589999999959
21
-113.7648379999999975
0
LINE
8
BLACK
6
CONTINUOUS
10
112.7839589999999959
20
-113.7648379999999975
11
112.4030059999999906
21
-113.7648379999999975
0
LINE
8
BLACK
6
CONTINUOUS
10
112.4030059999999906
20
-113.7648379999999975
11
112.212530000000001
21
-113.6695999999999884
0
LINE
8
BLACK
6
CONTINUOUS
10
114.0220539999999971
20
-113.5743609999999961
11
114.117291999999992
21
-113.6695999999999884
0
LINE
8
BLACK
6
CONTINUOUS
10
114.117291999999992
20
-113.6695999999999884
11
114.0220539999999971
21
-113.7648379999999975
0
LINE
8
BLACK
6
CONTINUOUS
10
114.0220539999999971
20
-113.7648379999999975
11
113.9268159999999881
21
-113.6695999999999884
0
LINE
8
BLACK
6
CONTINUOUS
10
113.9268159999999881
20
-113.6695999999999884
11
114.0220539999999971
21
-113.5743609999999961
0
LINE
8
BLACK
6
CONTINUOUS
10
114.0220539999999971
20
-113.5743609999999961
11
114.0220539999999971
21
-113.7648379999999975
0
LINE
8
BLACK
6
CONTINUOUS
10
114.0220539999999971
20
-112.5267419999999987
11
114.117291999999992
21
-112.6219799999999935
0
LINE
8
BLACK
6
CONTINUOUS
10
114.117291999999992
20
-112.6219799999999935
11
114.0220539999999971
21
-112.7172190000000001
0
LINE
8
BLACK
6
CONTINUOUS
10
114.0220539999999971
20
-112.7172190000000001
11
113.9268159999999881
21
-112.6219799999999935
0
LINE
8
BLACK
6
CONTINUOUS
10
113.9268159999999881
20
-112.6219799999999935
11
114.0220539999999971
21
-112.5267419999999987
0
LINE
8
BLACK
6
CONTINUOUS
10
114.0220539999999971
20
-112.5267419999999987
11
114.0220539999999971
21
-112.7172190000000001
0
LINE
8
BLACK
6
CONTINUOUS
10
96.7999999999999972
20
-116.5999999999999943
11
97.6999999999999886
21
-117.5
0
LINE
8
BLACK
6
CONTINUOUS
10
97.6999999999999886
20
-116.5999999999999943
11
96.7999999999999972
21
-117.5
0
LINE
8
BLACK
6
CONTINUOUS
10
100.6887199999999893
20
-115.9648380000000003
11
100.8791969999999907
21
-115.9648380000000003
0
LINE
8
BLACK
6
CONTINUOUS
10
100.8791969999999907
20
-115.9648380000000003
11
101.0696729999999945
21
-116.0600759999999951
0
LINE
8
BLACK
6
CONTINUOUS
10
101.0696729999999945
20
-116.0600759999999951
11
101.1649109999999894
21
-116.15531399999999
0
LINE
8
BLACK
6
CONTINUOUS
10
101.1649109999999894
20
-116.15531399999999
11
101.2601489999999984
21
-116.3457899999999938
0
LINE
8
BLACK
6
CONTINUOUS
10
101.2601489999999984
20
-116.3457899999999938
11
101.3553869999999932
21
-116.7267420000000016
0
LINE
8
BLACK
6
CONTINUOUS
10
101.3553869999999932
20
-116.7267420000000016
11
101.3553869999999932
21
-117.2029330000000016
0
LINE
8
BLACK
6
CONTINUOUS
10
101.3553869999999932
20
-117.2029330000000016
11
101.2601489999999984
21
-117.5838849999999951
0
LINE
8
BLACK
6
CONTINUOUS
10
101.2601489999999984
20
-117.5838849999999951
11
101.1649109999999894
21
-117.774360999999999
0
LINE
8
BLACK
6
CONTINUOUS
10
101.1649109999999894
20
-117.774360999999999
11
101.0696729999999945
21
-117.8695999999999913
0
LINE
8
BLACK
6
CONTINUOUS
10
101.0696729999999945
20
-117.8695999999999913
11
100.8791969999999907
21
-117.9648380000000003
0
LINE
8
BLACK
6
CONTINUOUS
10
100.8791969999999907
20
-117.9648380000000003
11
100.6887199999999893
21
-117.9648380000000003
0
LINE
8
BLACK
6
CONTINUOUS
10
100.6887199999999893
20
-117.9648380000000003
11
100.4982439999999997
21
-117.8695999999999913
0
LINE
8
BLACK
6
CONTINUOUS
10
100.4982439999999997
20
-117.8695999999999913
11
100.4030059999999906
21
-117.774360999999999
0
LINE
8
BLACK
6
CONTINUOUS
10
100.4030059999999906
20
-117.774360999999999
11
100.3077679999999958
21
-117.5838849999999951
0
LINE
8
BLACK
6
CONTINUOUS
10
100.3077679999999958
20
-117.5838849999999951
11
100.212530000000001
21
-117.2029330000000016
0
LINE
8
BLACK
6
CONTINUOUS
10
100.212530000000001
20
-117.2029330000000016
11
100.212530000000001
21
-116.7267420000000016
0
LINE
8
BLACK
6
CONTINUOUS
10
100.212530000000001
20
-116.7267420000000016
11
100.3077679999999958
21
-116.3457899999999938
0
LINE
8
BLACK
6
CONTINUOUS
10
100.3077679999999958
20
-116.3457899999999938
11
100.4030059999999906
21
-116.15531399999999
0
LINE
8
BLACK
6
CONTINUOUS
10
100.4030059999999906
20
-116.15531399999999
11
100.4982439999999997
21
-116.0600759999999951
0
LINE
8
BLACK
6
CONTINUOUS
10
100.4982439999999997
20
-116.0600759999999951
11
100.6887199999999893
21
-115.9648380000000003
0
LINE
8
BLACK
6
CONTINUOUS
10
102.212530000000001
20
-117.774360999999999
11
102.3077679999999958
21
-117.8695999999999913
0
LINE
8
BLACK
6
CONTINUOUS
10
102.3077679999999958
20
-117.8695999999999913
11
102.212530000000001
21
-117.9648380000000003
0
LINE
8
BLACK
6
CONTINUOUS
10
102.212530000000001
20
-117.9648380000000003
11
102.117291999999992
21
-117.8695999999999913
0
LINE
8
BLACK
6
CONTINUOUS
10
102.117291999999992
20
-117.8695999999999913
11
102.212530000000001
21
-117.774360999999999
0
LINE
8
BLACK
6
CONTINUOUS
10
102.212530000000001
20
-117.774360999999999
11
102.212530000000001
21
-117.9648380000000003
0
LINE
8
BLACK
6
CONTINUOUS
10
103.2601489999999984
20
-117.9648380000000003
11
103.6411009999999919
21
-117.9648380000000003
0
LINE
8
BLACK
6
CONTINUOUS
10
103.6411009999999919
20
-117.9648380000000003
11
103.8315779999999933
21
-117.8695999999999913
0
LINE
8
BLACK
6
CONTINUOUS
10
103.8315779999999933
20
-117.8695999999999913
11
103.9268160000000023
21
-117.774360999999999
0
LINE
8
BLACK
6
CONTINUOUS
10
103.9268160000000023
20
-117.774360999999999
11
104.117291999999992
21
-117.4886470000000003
0
LINE
8
BLACK
6
CONTINUOUS
10
104.117291999999992
20
-117.4886470000000003
11
104.212530000000001
21
-117.1076949999999925
0
LINE
8
BLACK
6
CONTINUOUS
10
104.212530000000001
20
-117.1076949999999925
11
104.212530000000001
21
-116.3457899999999938
0
LINE
8
BLACK
6
CONTINUOUS
10
104.212530000000001
20
-116.3457899999999938
11
104.117291999999992
21
-116.15531399999999
0
LINE
8
BLACK
6
CONTINUOUS
10
104.117291999999992
20
-116.15531399999999
11
104.0220539999999971
21
-116.0600759999999951
0
LINE
8
BLACK
6
CONTINUOUS
10
104.0220539999999971
20
-116.0600759999999951
11
103.8315779999999933
21
-115.9648380000000003
0
LINE
8
BLACK
6
CONTINUOUS
10
103.8315779999999933
20
-115.9648380000000003
11
103.4506250000000023
21
-115.9648380000000003
0
LINE
8
BLACK
6
CONTINUOUS
10
103.4506250000000023
20
-115.9648380000000003
11
103.2601489999999984
21
-116.0600759999999951
0
LINE
8
BLACK
6
CONTINUOUS
10
103.2601489999999984
20
-116.0600759999999951
11
103.1649109999999894
21
-116.15531399999999
0
LINE
8
BLACK
6
CONTINUOUS
10
103.1649109999999894
20
-116.15531399999999
11
103.0696729999999945
21
-116.3457899999999938
0
LINE
8
BLACK
6
CONTINUOUS
10
103.0696729999999945
20
-116.3457899999999938
11
103.0696729999999945
21
-116.8219799999999964
0
LINE
8
BLACK
6
CONTINUOUS
10
103.0696729999999945
20
-116.8219799999999964
11
103.1649109999999894
21
-117.0124569999999977
0
LINE
8
BLACK
6
CONTINUOUS
10
103.1649109999999894
20
-117.0124569999999977
11
103.2601489999999984
21
-117.1076949999999925
0
LINE
8
BLACK
6
CONTINUOUS
10
103.2601489999999984
20
-117.1076949999999925
11
103.4506250000000023
21
-117.2029330000000016
0
LINE
8
BLACK
6
CONTINUOUS
10
103.4506250000000023
20
-117.2029330000000016
11
103.8315779999999933
21
-117.2029330000000016
0
LINE
8
BLACK
6
CONTINUOUS
10
103.8315779999999933
20
-117.2029330000000016
11
104.0220539999999971
21
-117.1076949999999925
0
LINE
8
BLACK
6
CONTINUOUS
10
104.0220539999999971
20
-117.1076949999999925
11
104.117291999999992
21
-117.0124569999999977
0
LINE
8
BLACK
6
CONTINUOUS
10
104.117291999999992
20
-117.0124569999999977
11
104.212530000000001
21
-116.8219799999999964
0
LINE
8
BLACK
6
CONTINUOUS
10
105.4506250000000023
20
-115.9648380000000003
11
105.6411019999999894
21
-115.9648380000000003
0
LINE
8
BLACK
6
CONTINUOUS
10
105.6411019999999894
20
-115.9648380000000003
11
105.8315779999999933
21
-116.0600759999999951
0
LINE
8
BLACK
6
CONTINUOUS
10
105.8315779999999933
20
-116.0600759999999951
11
105.9268160000000023
21
-116.15531399999999
0
LINE
8
BLACK
6
CONTINUOUS
10
105.9268160000000023
20
-116.15531399999999
11
106.0220539999999971
21
-116.3457899999999938
0
LINE
8
BLACK
6
CONTINUOUS
10
106.0220539999999971
20
-116.3457899999999938
11
106.117291999999992
21
-116.7267420000000016
0
LINE
8
BLACK
6
CONTINUOUS
10
106.117291999999992
20
-116.7267420000000016
11
106.117291999999992
21
-117.2029330000000016
0
LINE
8
BLACK
6
CONTINUOUS
10
106.117291999999992
20
-117.2029330000000016
11
106.0220539999999971
21
-117.5838849999999951
0
LINE
8
BLACK
6
CONTINUOUS
10
106.0220539999999971
20
-117.5838849999999951
11
105.9268160000000023
21
-117.774360999999999
0
LINE
8
BLACK
6
CONTINUOUS
10
105.9268160000000023
20
-117.774360999999999
11
105.8315779999999933
21
-117.8695999999999913
0
LINE
8
BLACK
6
CONTINUOUS
10
105.8315779999999933
20
-117.8695999999999913
11
105.6411019999999894
21
-117.9648380000000003
0
LINE
8
BLACK
6
CONTINUOUS
10
105.6411019999999894
20
-117.9648380000000003
11
105.4506250000000023
21
-117.9648380000000003
0
LINE
8
BLACK
6
CONTINUOUS
10
105.4506250000000023
20
-117.9648380000000003
11
105.2601489999999984
21
-117.8695999999999913
0
LINE
8
BLACK
6
CONTINUOUS
10
105.2601489999999984
20
-117.8695999999999913
11
105.1649109999999894
21
-117.774360999999999
0
LINE
8
BLACK
6
CONTINUOUS
10
105.1649109999999894
20
-117.774360999999999
11
105.0696729999999945
21
-117.5838849999999951
0
LINE
8
BLACK
6
CONTINUOUS
10
105.0696729999999945
20
-117.5838849999999951
11
104.9744349999999997
21
-117.2029330000000016
0
LINE
8
BLACK
6
CONTINUOUS
10
104.9744349999999997
20
-117.2029330000000016
11
104.9744349999999997
21
-116.7267420000000016
0
LINE
8
BLACK
6
CONTINUOUS
10
104.9744349999999997
20
-116.7267420000000016
11
105.0696729999999945
21
-116.3457899999999938
0
LINE
8
BLACK
6
CONTINUOUS
10
105.0696729999999945
20
-116.3457899999999938
11
105.1649109999999894
21
-116.15531399999999
0
LINE
8
BLACK
6
CONTINUOUS
10
105.1649109999999894
20
-116.15531399999999
11
105.2601489999999984
21
-116.0600759999999951
0
LINE
8
BLACK
6
CONTINUOUS
10
105.2601489999999984
20
-116.0600759999999951
11
105.4506250000000023
21
-115.9648380000000003
0
LINE
8
BLACK
6
CONTINUOUS
10
107.3553869999999932
20
-115.9648380000000003
11
107.5458639999999946
21
-115.9648380000000003
0
LINE
8
BLACK
6
CONTINUOUS
10
107.5458639999999946
20
-115.9648380000000003
11
107.7363399999999984
21
-116.0600759999999951
0
LINE
8
BLACK
6
CONTINUOUS
10
107.7363399999999984
20
-116.0600759999999951
11
107.8315779999999933
21
-116.15531399999999
0
LINE
8
BLACK
6
CONTINUOUS
10
107.8315779999999933
20
-116.15531399999999
11
107.9268159999999881
21
-116.3457899999999938
0
LINE
8
BLACK
6
CONTINUOUS
10
107.9268159999999881
20
-116.3457899999999938
11
108.0220539999999971
21
-116.7267420000000016
0
LINE
8
BLACK
6
CONTINUOUS
10
108.0220539999999971
20
-116.7267420000000016
11
108.0220539999999971
21
-117.2029330000000016
0
LINE
8
BLACK
6
CONTINUOUS
10
108.0220539999999971
20
-117.2029330000000016
11
107.9268159999999881
21
-117.5838849999999951
0
LINE
8
BLACK
6
CONTINUOUS
10
107.9268159999999881
20
-117.5838849999999951
11
107.8315779999999933
21
-117.774360999999999
0
LINE
8
BLACK
6
CONTINUOUS
10
107.8315779999999933
20
-117.774360999999999
11
107.7363399999999984
21
-117.8695999999999913
0
LINE
8
BLACK
6
CONTINUOUS
10
107.7363399999999984
20
-117.8695999999999913
11
107.5458639999999946
21
-117.9648380000000003
0
LINE
8
BLACK
6
CONTINUOUS
10
107.5458639999999946
20
-117.9648380000000003
11
107.3553869999999932
21
-117.9648380000000003
0
LINE
8
BLACK
6
CONTINUOUS
10
107.3553869999999932
20
-117.9648380000000003
11
107.1649109999999894
21
-117.8695999999999913
0
LINE
8
BLACK
6
CONTINUOUS
10
107.1649109999999894
20
-117.8695999999999913
11
107.0696729999999945
21
-117.774360999999999
0
LINE
8
BLACK
6
CONTINUOUS
10
107.0696729999999945
20
-117.774360999999999
11
106.9744349999999997
21
-117.5838849999999951
0
LINE
8
BLACK
6
CONTINUOUS
10
106.9744349999999997
20
-117.5838849999999951
11
106.8791969999999907
21
-117.2029330000000016
0
LINE
8
BLACK
6
CONTINUOUS
10
106.8791969999999907
20
-117.2029330000000016
11
106.8791969999999907
21
-116.7267420000000016
0
LINE
8
BLACK
6
CONTINUOUS
10
106.8791969999999907
20
-116.7267420000000016
11
106.9744349999999997
21
-116.3457899999999938
0
LINE
8
BLACK
6
CONTINUOUS
10
106.9744349999999997
20
-116.3457899999999938
11
107.0696729999999945
21
-116.15531399999999
0
LINE
8
BLACK
6
CONTINUOUS
10
107.0696729999999945
20
-116.15531399999999
11
107.1649109999999894
21
-116.0600759999999951
0
LINE
8
BLACK
6
CONTINUOUS
10
107.1649109999999894
20
-116.0600759999999951
11
107.3553869999999932
21
-115.9648380000000003
0
LINE
8
BLACK
6
CONTINUOUS
10
108.8791969999999907
20
-117.9648380000000003
11
108.8791969999999907
21
-116.6315039999999925
0
LINE
8
BLACK
6
CONTINUOUS
10
108.8791969999999907
20
-116.8219799999999964
11
108.9744349999999997
21
-116.7267420000000016
0
LINE
8
BLACK
6
CONTINUOUS
10
108.9744349999999997
20
-116.7267420000000016
11
109.1649109999999894
21
-116.6315039999999925
0
LINE
8
BLACK
6
CONTINUOUS
10
109.1649109999999894
20
-116.6315039999999925
11
109.4506259999999997
21
-116.6315039999999925
0
LINE
8
BLACK
6
CONTINUOUS
10
109.4506259999999997
20
-116.6315039999999925
11
109.6411019999999894
21
-116.7267420000000016
0
LINE
8
BLACK
6
CONTINUOUS
10
109.6411019999999894
20
-116.7267420000000016
11
109.7363399999999984
21
-116.9172189999999887
0
LINE
8
BLACK
6
CONTINUOUS
10
109.7363399999999984
20
-116.9172189999999887
11
109.7363399999999984
21
-117.9648380000000003
0
LINE
8
BLACK
6
CONTINUOUS
10
109.7363399999999984
20
-116.9172189999999887
11
109.8315779999999933
21
-116.7267420000000016
0
LINE
8
BLACK
6
CONTINUOUS
10
109.8315779999999933
20
-116.7267420000000016
11
110.0220539999999971
21
-116.6315039999999925
0
LINE
8
BLACK
6
CONTINUOUS
10
110.0220539999999971
20
-116.6315039999999925
11
110.3077679999999958
21
-116.6315039999999925
0
LINE
8
BLACK
6
CONTINUOUS
10
110.3077679999999958
20
-116.6315039999999925
11
110.4982449999999972
21
-116.7267420000000016
0
LINE
8
BLACK
6
CONTINUOUS
10
110.4982449999999972
20
-116.7267420000000016
11
110.593482999999992
21
-116.9172189999999887
0
LINE
8
BLACK
6
CONTINUOUS
10
110.593482999999992
20
-116.9172189999999887
11
110.593482999999992
21
-117.9648380000000003
0
LINE
8
BLACK
6
CONTINUOUS
10
111.5458639999999946
20
-117.9648380000000003
11
111.5458639999999946
21
-116.6315039999999925
0
LINE
8
BLACK
6
CONTINUOUS
10
111.5458639999999946
20
-116.8219799999999964
11
111.6411019999999894
21
-116.7267420000000016
0
LINE
8
BLACK
6
CONTINUOUS
10
111.6411019999999894
20
-116.7267420000000016
11
111.8315779999999933
21
-116.6315039999999925
0
LINE
8
BLACK
6
CONTINUOUS
10
111.8315779999999933
20
-116.6315039999999925
11
112.1172929999999894
21
-116.6315039999999925
0
LINE
8
BLACK
6
CONTINUOUS
10
112.1172929999999894
20
-116.6315039999999925
11
112.3077689999999933
21
-116.7267420000000016
0
LINE
8
BLACK
6
CONTINUOUS
10
112.3077689999999933
20
-116.7267420000000016
11
112.4030069999999881
21
-116.9172189999999887
0
LINE
8
BLACK
6
CONTINUOUS
10
112.4030069999999881
20
-116.9172189999999887
11
112.4030069999999881
21
-117.9648380000000003
0
LINE
8
BLACK
6
CONTINUOUS
10
112.4030069999999881
20
-116.9172189999999887
11
112.4982449999999972
21
-116.7267420000000016
0
LINE
8
BLACK
6
CONTINUOUS
10
112.4982449999999972
20
-116.7267420000000016
11
112.688721000000001
21
-116.6315039999999925
0
LINE
8
BLACK
6
CONTINUOUS
10
112.688721000000001
20
-116.6315039999999925
11
112.9744349999999997
21
-116.6315039999999925
0
LINE
8
BLACK
6
CONTINUOUS
10
112.9744349999999997
20
-116.6315039999999925
11
113.1649120000000011
21
-116.7267420000000016
0
LINE
8
BLACK
6
CONTINUOUS
10
113.1649120000000011
20
-116.7267420000000016
11
113.2601499999999959
21
-116.9172189999999887
0
LINE
8
BLACK
6
CONTINUOUS
10
113.2601499999999959
20
-116.9172189999999887
11
113.2601499999999959
21
-117.9648380000000003
0
LINE
8
BLACK
6
CONTINUOUS
10
117.1649120000000011
20
-115.8695999999999913
11
115.4506269999999972
21
-118.4410279999999887
0
LINE
8
BLACK
6
CONTINUOUS
10
119.7363409999999959
20
-115.9648380000000003
11
119.9268179999999973
21
-115.9648380000000003
0
LINE
8
BLACK
6
CONTINUOUS
10
119.9268179999999973
20
-115.9648380000000003
11
120.1172940000000011
21
-116.0600759999999951
0
LINE
8
BLACK
6
CONTINUOUS
10
120.1172940000000011
20
-116.0600759999999951
11
120.2125319999999959
21
-116.15531399999999
0
LINE
8
BLACK
6
CONTINUOUS
10
120.2125319999999959
20
-116.15531399999999
11
120.3077699999999908
21
-116.3457899999999938
0
LINE
8
BLACK
6
CONTINUOUS
10
120.3077699999999908
20
-116.3457899999999938
11
120.4030079999999998
21
-116.7267420000000016
0
LINE
8
BLACK
6
CONTINUOUS
10
120.4030079999999998
20
-116.7267420000000016
11
120.4030079999999998
21
-117.2029330000000016
0
LINE
8
BLACK
6
CONTINUOUS
10
120.4030079999999998
20
-117.2029330000000016
11
120.3077699999999908
21
-117.5838849999999951
0
LINE
8
BLACK
6
CONTINUOUS
10
120.3077699999999908
20
-117.5838849999999951
11
120.2125319999999959
21
-117.774360999999999
0
LINE
8
BLACK
6
CONTINUOUS
10
120.2125319999999959
20
-117.774360999999999
11
120.1172940000000011
21
-117.8695999999999913
0
LINE
8
BLACK
6
CONTINUOUS
10
120.1172940000000011
20
-117.8695999999999913
11
119.9268179999999973
21
-117.9648380000000003
0
LINE
8
BLACK
6
CONTINUOUS
10
119.9268179999999973
20
-117.9648380000000003
11
119.7363409999999959
21
-117.9648380000000003
0
LINE
8
BLACK
6
CONTINUOUS
10
119.7363409999999959
20
-117.9648380000000003
11
119.5458649999999921
21
-117.8695999999999913
0
LINE
8
BLACK
6
CONTINUOUS
10
119.5458649999999921
20
-117.8695999999999913
11
119.4506269999999972
21
-117.774360999999999
0
LINE
8
BLACK
6
CONTINUOUS
10
119.4506269999999972
20
-117.774360999999999
11
119.3553889999999882
21
-117.5838849999999951
0
LINE
8
BLACK
6
CONTINUOUS
10
119.3553889999999882
20
-117.5838849999999951
11
119.2601509999999934
21
-117.2029330000000016
0
LINE
8
BLACK
6
CONTINUOUS
10
119.2601509999999934
20
-117.2029330000000016
11
119.2601509999999934
21
-116.7267420000000016
0
LINE
8
BLACK
6
CONTINUOUS
10
119.2601509999999934
20
-116.7267420000000016
11
119.3553889999999882
21
-116.3457899999999938
0
LINE
8
BLACK
6
CONTINUOUS
10
119.3553889999999882
20
-116.3457899999999938
11
119.4506269999999972
21
-116.15531399999999
0
LINE
8
BLACK
6
CONTINUOUS
10
119.4506269999999972
20
-116.15531399999999
11
119.5458649999999921
21
-116.0600759999999951
0
LINE
8
BLACK
6
CONTINUOUS
10
119.5458649999999921
20
-116.0600759999999951
11
119.7363409999999959
21
-115.9648380000000003
0
LINE
8
BLACK
6
CONTINUOUS
10
121.2601509999999934
20
-117.774360999999999
11
121.3553889999999882
21
-117.8695999999999913
0
LINE
8
BLACK
6
CONTINUOUS
10
121.3553889999999882
20
-117.8695999999999913
11
121.2601509999999934
21
-117.9648380000000003
0
LINE
8
BLACK
6
CONTINUOUS
10
121.2601509999999934
20
-117.9648380000000003
11
121.1649129999999985
21
-117.8695999999999913
0
LINE
8
BLACK
6
CONTINUOUS
10
121.1649129999999985
20
-117.8695999999999913
11
121.2601509999999934
21
-117.774360999999999
0
LINE
8
BLACK
6
CONTINUOUS
10
121.2601509999999934
20
-117.774360999999999
11
121.2601509999999934
21
-117.9648380000000003
0
LINE
8
BLACK
6
CONTINUOUS
10
122.5934839999999895
20
-115.9648380000000003
11
122.7839609999999908
21
-115.9648380000000003
0
LINE
8
BLACK
6
CONTINUOUS
10
122.7839609999999908
20
-115.9648380000000003
11
122.9744369999999947
21
-116.0600759999999951
0
LINE
8
BLACK
6
CONTINUOUS
10
122.9744369999999947
20
-116.0600759999999951
11
123.0696749999999895
21
-116.15531399999999
0
LINE
8
BLACK
6
CONTINUOUS
10
123.0696749999999895
20
-116.15531399999999
11
123.1649129999999985
21
-116.3457899999999938
0
LINE
8
BLACK
6
CONTINUOUS
10
123.1649129999999985
20
-116.3457899999999938
11
123.2601509999999934
21
-116.7267420000000016
0
LINE
8
BLACK
6
CONTINUOUS
10
123.2601509999999934
20
-116.7267420000000016
11
123.2601509999999934
21
-117.2029330000000016
0
LINE
8
BLACK
6
CONTINUOUS
10
123.2601509999999934
20
-117.2029330000000016
11
123.1649129999999985
21
-117.5838849999999951
0
LINE
8
BLACK
6
CONTINUOUS
10
123.1649129999999985
20
-117.5838849999999951
11
123.0696749999999895
21
-117.774360999999999
0
LINE
8
BLACK
6
CONTINUOUS
10
123.0696749999999895
20
-117.774360999999999
11
122.9744369999999947
21
-117.8695999999999913
0
LINE
8
BLACK
6
CONTINUOUS
10
122.9744369999999947
20
-117.8695999999999913
11
122.7839609999999908
21
-117.9648380000000003
0
LINE
8
BLACK
6
CONTINUOUS
10
122.7839609999999908
20
-117.9648380000000003
11
122.5934839999999895
21
-117.9648380000000003
0
LINE
8
BLACK
6
CONTINUOUS
10
122.5934839999999895
20
-117.9648380000000003
11
122.4030079999999998
21
-117.8695999999999913
0
LINE
8
BLACK
6
CONTINUOUS
10
122.4030079999999998
20
-117.8695999999999913
11
122.3077699999999908
21
-117.774360999999999
0
LINE
8
BLACK
6
CONTINUOUS
10
122.3077699999999908
20
-117.774360999999999
11
122.2125319999999959
21
-117.5838849999999951
0
LINE
8
BLACK
6
CONTINUOUS
10
122.2125319999999959
20
-117.5838849999999951
11
122.1172940000000011
21
-117.2029330000000016
0
LINE
8
BLACK
6
CONTINUOUS
10
122.1172940000000011
20
-117.2029330000000016
11
122.1172940000000011
21
-116.7267420000000016
0
LINE
8
BLACK
6
CONTINUOUS
10
122.1172940000000011
20
-116.7267420000000016
11
122.2125319999999959
21
-116.3457899999999938
0
LINE
8
BLACK
6
CONTINUOUS
10
122.2125319999999959
20
-116.3457899999999938
11
122.3077699999999908
21
-116.15531399999999
0
LINE
8
BLACK
6
CONTINUOUS
10
122.3077699999999908
20
-116.15531399999999
11
122.4030079999999998
21
-116.0600759999999951
0
LINE
8
BLACK
6
CONTINUOUS
10
122.4030079999999998
20
-116.0600759999999951
11
122.5934839999999895
21
-115.9648380000000003
0
LINE
8
BLACK
6
CONTINUOUS
10
123.9268179999999973
20
-115.9648380000000003
11
125.1649129999999985
21
-115.9648380000000003
0
LINE
8
BLACK
6
CONTINUOUS
10
125.1649129999999985
20
-115.9648380000000003
11
124.4982459999999946
21
-116.7267420000000016
0
LINE
8
BLACK
6
CONTINUOUS
10
124.4982459999999946
20
-116.7267420000000016
11
124.7839609999999908
21
-116.7267420000000016
0
LINE
8
BLACK
6
CONTINUOUS
10
124.7839609999999908
20
-116.7267420000000016
11
124.9744369999999947
21
-116.8219799999999964
0
LINE
8
BLACK
6
CONTINUOUS
10
124.9744369999999947
20
-116.8219799999999964
11
125.0696749999999895
21
-116.9172189999999887
0
LINE
8
BLACK
6
CONTINUOUS
10
125.0696749999999895
20
-116.9172189999999887
11
125.1649129999999985
21
-117.1076949999999925
0
LINE
8
BLACK
6
CONTINUOUS
10
125.1649129999999985
20
-117.1076949999999925
11
125.1649129999999985
21
-117.5838849999999951
0
LINE
8
BLACK
6
CONTINUOUS
10
125.1649129999999985
20
-117.5838849999999951
11
125.0696749999999895
21
-117.774360999999999
0
LINE
8
BLACK
6
CONTINUOUS
10
125.0696749999999895
20
-117.774360999999999
11
124.9744369999999947
21
-117.8695999999999913
0
LINE
8
BLACK
6
CONTINUOUS
10
124.9744369999999947
20
-117.8695999999999913
11
124.7839609999999908
21
-117.9648380000000003
0
LINE
8
BLACK
6
CONTINUOUS
10
124.7839609999999908
20
-117.9648380000000003
11
124.2125319999999959
21
-117.9648380000000003
0
LINE
8
BLACK
6
CONTINUOUS
10
124.2125319999999959
20
-117.9648380000000003
11
124.0220559999999921
21
-117.8695999999999913
0
LINE
8
BLACK
6
CONTINUOUS
10
124.0220559999999921
20
-117.8695999999999913
11
123.9268179999999973
21
-117.774360999999999
0
LINE
8
BLACK
6
CONTINUOUS
10
126.9744369999999947
20
-115.9648380000000003
11
126.0220559999999921
21
-115.9648380000000003
0
LINE
8
BLACK
6
CONTINUOUS
10
126.0220559999999921
20
-115.9648380000000003
11
125.9268179999999973
21
-116.9172189999999887
0
LINE
8
BLACK
6
CONTINUOUS
10
125.9268179999999973
20
-116.9172189999999887
11
126.0220559999999921
21
-116.8219799999999964
0
LINE
8
BLACK
6
CONTINUOUS
10
126.0220559999999921
20
-116.8219799999999964
11
126.2125319999999959
21
-116.7267420000000016
0
LINE
8
BLACK
6
CONTINUOUS
10
126.2125319999999959
20
-116.7267420000000016
11
126.688722999999996
21
-116.7267420000000016
0
LINE
8
BLACK
6
CONTINUOUS
10
126.688722999999996
20
-116.7267420000000016
11
126.8791989999999998
21
-116.8219799999999964
0
LINE
8
BLACK
6
CONTINUOUS
10
126.8791989999999998
20
-116.8219799999999964
11
126.9744369999999947
21
-116.9172189999999887
0
LINE
8
BLACK
6
CONTINUOUS
10
126.9744369999999947
20
-116.9172189999999887
11
127.0696749999999895
21
-117.1076949999999925
0
LINE
8
BLACK
6
CONTINUOUS
10
127.0696749999999895
20
-117.1076949999999925
11
127.0696749999999895
21
-117.5838849999999951
0
LINE
8
BLACK
6
CONTINUOUS
10
127.0696749999999895
20
-117.5838849999999951
11
126.9744369999999947
21
-117.774360999999999
0
LINE
8
BLACK
6
CONTINUOUS
10
126.9744369999999947
20
-117.774360999999999
11
126.8791989999999998
21
-117.8695999999999913
0
LINE
8
BLACK
6
CONTINUOUS
10
126.8791989999999998
20
-117.8695999999999913
11
126.688722999999996
21
-117.9648380000000003
0
LINE
8
BLACK
6
CONTINUOUS
10
126.688722999999996
20
-117.9648380000000003
11
126.2125319999999959
21
-117.9648380000000003
0
LINE
8
BLACK
6
CONTINUOUS
10
126.2125319999999959
20
-117.9648380000000003
11
126.0220559999999921
21
-117.8695999999999913
0
LINE
8
BLACK
6
CONTINUOUS
10
126.0220559999999921
20
-117.8695999999999913
11
125.9268179999999973
21
-117.774360999999999
0
LINE
8
BLACK
6
CONTINUOUS
10
128.783961000000005
20
-116.6315039999999925
11
128.783961000000005
21
-117.9648380000000003
0
LINE
8
BLACK
6
CONTINUOUS
10
128.307770000000005
20
-115.8695999999999913
11
127.8315799999999882
21
-117.2981709999999964
0
LINE
8
BLACK
6
CONTINUOUS
10
127.8315799999999882
20
-117.2981709999999964
11
129.0696749999999895
21
-117.2981709999999964
0
LINE
8
BLACK
6
CONTINUOUS
10
129.7363420000000076
20
-115.9648380000000003
11
129.7363420000000076
21
-116.3457899999999938
0
LINE
8
BLACK
6
CONTINUOUS
10
130.4982469999999921
20
-115.9648380000000003
11
130.4982469999999921
21
-116.3457899999999938
0
LINE
8
BLACK
6
CONTINUOUS
10
133.4506289999999922
20
-118.7267420000000016
11
133.3553899999999999
21
-118.6315039999999925
0
LINE
8
BLACK
6
CONTINUOUS
10
133.3553899999999999
20
-118.6315039999999925
11
133.1649139999999818
21
-118.3457899999999938
0
LINE
8
BLACK
6
CONTINUOUS
10
133.1649139999999818
20
-118.3457899999999938
11
133.069675999999987
21
-118.15531399999999
0
LINE
8
BLACK
6
CONTINUOUS
10
133.069675999999987
20
-118.15531399999999
11
132.9744379999999921
21
-117.8695999999999913
0
LINE
8
BLACK
6
CONTINUOUS
10
132.9744379999999921
20
-117.8695999999999913
11
132.8791999999999973
21
-117.3934089999999912
0
LINE
8
BLACK
6
CONTINUOUS
10
132.8791999999999973
20
-117.3934089999999912
11
132.8791999999999973
21
-117.0124569999999977
0
LINE
8
BLACK
6
CONTINUOUS
10
132.8791999999999973
20
-117.0124569999999977
11
132.9744379999999921
21
-116.5362659999999977
0
LINE
8
BLACK
6
CONTINUOUS
10
132.9744379999999921
20
-116.5362659999999977
11
133.069675999999987
21
-116.250551999999999
0
LINE
8
BLACK
6
CONTINUOUS
10
133.069675999999987
20
-116.250551999999999
11
133.1649139999999818
21
-116.0600759999999951
0
LINE
8
BLACK
6
CONTINUOUS
10
133.1649139999999818
20
-116.0600759999999951
11
133.3553899999999999
21
-115.774360999999999
0
LINE
8
BLACK
6
CONTINUOUS
10
133.3553899999999999
20
-115.774360999999999
11
133.4506289999999922
21
-115.6791229999999899
0
LINE
8
BLACK
6
CONTINUOUS
10
135.260152000000005
20
-117.9648380000000003
11
134.1172949999999844
21
-117.9648380000000003
0
LINE
8
BLACK
6
CONTINUOUS
10
134.6887229999999818
20
-117.9648380000000003
11
134.6887229999999818
21
-115.9648380000000003
0
LINE
8
BLACK
6
CONTINUOUS
10
134.6887229999999818
20
-115.9648380000000003
11
134.4982469999999921
21
-116.250551999999999
0
LINE
8
BLACK
6
CONTINUOUS
10
134.4982469999999921
20
-116.250551999999999
11
134.3077710000000025
21
-116.4410279999999887
0
LINE
8
BLACK
6
CONTINUOUS
10
134.3077710000000025
20
-116.4410279999999887
11
134.1172949999999844
21
-116.5362659999999977
0
LINE
8
BLACK
6
CONTINUOUS
10
136.9744379999999921
20
-116.6315039999999925
11
136.9744379999999921
21
-117.9648380000000003
0
LINE
8
BLACK
6
CONTINUOUS
10
136.4982469999999921
20
-115.8695999999999913
11
136.0220569999999896
21
-117.2981709999999964
0
LINE
8
BLACK
6
CONTINUOUS
10
136.0220569999999896
20
-117.2981709999999964
11
137.260152000000005
21
-117.2981709999999964
0
LINE
8
BLACK
6
CONTINUOUS
10
139.545866999999987
20
-117.9648380000000003
11
139.545866999999987
21
-115.9648380000000003
0
LINE
8
BLACK
6
CONTINUOUS
10
140.4030099999999948
20
-117.9648380000000003
11
140.4030099999999948
21
-116.9172189999999887
0
LINE
8
BLACK
6
CONTINUOUS
10
140.4030099999999948
20
-116.9172189999999887
11
140.3077719999999999
21
-116.7267420000000016
0
LINE
8
BLACK
6
CONTINUOUS
10
140.3077719999999999
20
-116.7267420000000016
11
140.1172959999999819
21
-116.6315039999999925
0
LINE
8
BLACK
6
CONTINUOUS
10
140.1172959999999819
20
-116.6315039999999925
11
139.8315809999999999
21
-116.6315039999999925
0
LINE
8
BLACK
6
CONTINUOUS
10
139.8315809999999999
20
-116.6315039999999925
11
139.6411049999999818
21
-116.7267420000000016
0
LINE
8
BLACK
6
CONTINUOUS
10
139.6411049999999818
20
-116.7267420000000016
11
139.545866999999987
21
-116.8219799999999964
0
LINE
8
BLACK
6
CONTINUOUS
10
141.6411049999999818
20
-117.9648380000000003
11
141.4506289999999922
21
-117.8695999999999913
0
LINE
8
BLACK
6
CONTINUOUS
10
141.4506289999999922
20
-117.8695999999999913
11
141.3553909999999973
21
-117.774360999999999
0
LINE
8
BLACK
6
CONTINUOUS
10
141.3553909999999973
20
-117.774360999999999
11
141.2601530000000025
21
-117.5838849999999951
0
LINE
8
BLACK
6
CONTINUOUS
10
141.2601530000000025
20
-117.5838849999999951
11
141.2601530000000025
21
-117.0124569999999977
0
LINE
8
BLACK
6
CONTINUOUS
10
141.2601530000000025
20
-117.0124569999999977
11
141.3553909999999973
21
-116.8219799999999964
0
LINE
8
BLACK
6
CONTINUOUS
10
141.3553909999999973
20
-116.8219799999999964
11
141.4506289999999922
21
-116.7267420000000016
0
LINE
8
BLACK
6
CONTINUOUS
10
141.4506289999999922
20
-116.7267420000000016
11
141.6411049999999818
21
-116.6315039999999925
0
LINE
8
BLACK
6
CONTINUOUS
10
141.6411049999999818
20
-116.6315039999999925
11
141.9268199999999922
21
-116.6315039999999925
0
LINE
8
BLACK
6
CONTINUOUS
10
141.9268199999999922
20
-116.6315039999999925
11
142.1172959999999819
21
-116.7267420000000016
0
LINE
8
BLACK
6
CONTINUOUS
10
142.1172959999999819
20
-116.7267420000000016
11
142.2125340000000051
21
-116.8219799999999964
0
LINE
8
BLACK
6
CONTINUOUS
10
142.2125340000000051
20
-116.8219799999999964
11
142.3077719999999999
21
-117.0124569999999977
0
LINE
8
BLACK
6
CONTINUOUS
10
142.3077719999999999
20
-117.0124569999999977
11
142.3077719999999999
21
-117.5838849999999951
0
LINE
8
BLACK
6
CONTINUOUS
10
142.3077719999999999
20
-117.5838849999999951
11
142.2125340000000051
21
-117.774360999999999
0
LINE
8
BLACK
6
CONTINUOUS
10
142.2125340000000051
20
-117.774360999999999
11
142.1172959999999819
21
-117.8695999999999913
0
LINE
8
BLACK
6
CONTINUOUS
10
142.1172959999999819
20
-117.8695999999999913
11
141.9268199999999922
21
-117.9648380000000003
0
LINE
8
BLACK
6
CONTINUOUS
10
141.9268199999999922
20
-117.9648380000000003
11
141.6411049999999818
21
-117.9648380000000003
0
LINE
8
BLACK
6
CONTINUOUS
10
143.4506289999999922
20
-117.9648380000000003
11
143.2601530000000025
21
-117.8695999999999913
0
LINE
8
BLACK
6
CONTINUOUS
10
143.2601530000000025
20
-117.8695999999999913
11
143.1649150000000077
21
-117.6791229999999899
0
LINE
8
BLACK
6
CONTINUOUS
10
143.1649150000000077
20
-117.6791229999999899
11
143.1649150000000077
21
-115.9648380000000003
0
LINE
8
BLACK
6
CONTINUOUS
10
144.9744389999999896
20
-117.8695999999999913
11
144.783963
21
-117.9648380000000003
0
LINE
8
BLACK
6
CONTINUOUS
10
144.783963
20
-117.9648380000000003
11
144.4030099999999948
21
-117.9648380000000003
0
LINE
8
BLACK
6
CONTINUOUS
10
144.4030099999999948
20
-117.9648380000000003
11
144.2125340000000051
21
-117.8695999999999913
0
LINE
8
BLACK
6
CONTINUOUS
10
144.2125340000000051
20
-117.8695999999999913
11
144.1172959999999819
21
-117.6791229999999899
0
LINE
8
BLACK
6
CONTINUOUS
10
144.1172959999999819
20
-117.6791229999999899
11
144.1172959999999819
21
-116.9172189999999887
0
LINE
8
BLACK
6
CONTINUOUS
10
144.1172959999999819
20
-116.9172189999999887
11
144.2125340000000051
21
-116.7267420000000016
0
LINE
8
BLACK
6
CONTINUOUS
10
144.2125340000000051
20
-116.7267420000000016
11
144.4030099999999948
21
-116.6315039999999925
0
LINE
8
BLACK
6
CONTINUOUS
10
144.4030099999999948
20
-116.6315039999999925
11
144.783963
21
-116.6315039999999925
0
LINE
8
BLACK
6
CONTINUOUS
10
144.783963
20
-116.6315039999999925
11
144.9744389999999896
21
-116.7267420000000016
0
LINE
8
BLACK
6
CONTINUOUS
10
144.9744389999999896
20
-116.7267420000000016
11
145.0696769999999844
21
-116.9172189999999887
0
LINE
8
BLACK
6
CONTINUOUS
10
145.0696769999999844
20
-116.9172189999999887
11
145.0696769999999844
21
-117.1076949999999925
0
LINE
8
BLACK
6
CONTINUOUS
10
145.0696769999999844
20
-117.1076949999999925
11
144.1172959999999819
21
-117.2981709999999964
0
LINE
8
BLACK
6
CONTINUOUS
10
145.8315819999999974
20
-117.8695999999999913
11
146.022057999999987
21
-117.9648380000000003
0
LINE
8
BLACK
6
CONTINUOUS
10
146.022057999999987
20
-117.9648380000000003
11
146.4030099999999948
21
-117.9648380000000003
0
LINE
8
BLACK
6
CONTINUOUS
10
146.4030099999999948
20
-117.9648380000000003
11
146.5934869999999819
21
-117.8695999999999913
0
LINE
8
BLACK
6
CONTINUOUS
10
146.5934869999999819
20
-117.8695999999999913
11
146.6887250000000051
21
-117.6791229999999899
0
LINE
8
BLACK
6
CONTINUOUS
10
146.6887250000000051
20
-117.6791229999999899
11
146.6887250000000051
21
-117.5838849999999951
0
LINE
8
BLACK
6
CONTINUOUS
10
146.6887250000000051
20
-117.5838849999999951
11
146.5934869999999819
21
-117.3934089999999912
0
LINE
8
BLACK
6
CONTINUOUS
10
146.5934869999999819
20
-117.3934089999999912
11
146.4030099999999948
21
-117.2981709999999964
0
LINE
8
BLACK
6
CONTINUOUS
10
146.4030099999999948
20
-117.2981709999999964
11
146.1172959999999819
21
-117.2981709999999964
0
LINE
8
BLACK
6
CONTINUOUS
10
146.1172959999999819
20
-117.2981709999999964
11
145.9268199999999922
21
-117.2029330000000016
0
LINE
8
BLACK
6
CONTINUOUS
10
145.9268199999999922
20
-117.2029330000000016
11
145.8315819999999974
21
-117.0124569999999977
0
LINE
8
BLACK
6
CONTINUOUS
10
145.8315819999999974
20
-117.0124569999999977
11
145.8315819999999974
21
-116.9172189999999887
0
LINE
8
BLACK
6
CONTINUOUS
10
145.8315819999999974
20
-116.9172189999999887
11
145.9268199999999922
21
-116.7267420000000016
0
LINE
8
BLACK
6
CONTINUOUS
10
145.9268199999999922
20
-116.7267420000000016
11
146.1172959999999819
21
-116.6315039999999925
0
LINE
8
BLACK
6
CONTINUOUS
10
146.1172959999999819
20
-116.6315039999999925
11
146.4030099999999948
21
-116.6315039999999925
0
LINE
8
BLACK
6
CONTINUOUS
10
146.4030099999999948
20
-116.6315039999999925
11
146.5934869999999819
21
-116.7267420000000016
0
LINE
8
BLACK
6
CONTINUOUS
10
147.3553919999999948
20
-118.7267420000000016
11
147.4506299999999896
21
-118.6315039999999925
0
LINE
8
BLACK
6
CONTINUOUS
10
147.4506299999999896
20
-118.6315039999999925
11
147.6411059999999793
21
-118.3457899999999938
0
LINE
8
BLACK
6
CONTINUOUS
10
147.6411059999999793
20
-118.3457899999999938
11
147.7363440000000026
21
-118.15531399999999
0
LINE
8
BLACK
6
CONTINUOUS
10
147.7363440000000026
20
-118.15531399999999
11
147.8315819999999974
21
-117.8695999999999913
0
LINE
8
BLACK
6
CONTINUOUS
10
147.8315819999999974
20
-117.8695999999999913
11
147.9268199999999922
21
-117.3934089999999912
0
LINE
8
BLACK
6
CONTINUOUS
10
147.9268199999999922
20
-117.3934089999999912
11
147.9268199999999922
21
-117.0124569999999977
0
LINE
8
BLACK
6
CONTINUOUS
10
147.9268199999999922
20
-117.0124569999999977
11
147.8315819999999974
21
-116.5362659999999977
0
LINE
8
BLACK
6
CONTINUOUS
10
147.8315819999999974
20
-116.5362659999999977
11
147.7363440000000026
21
-116.250551999999999
0
LINE
8
BLACK
6
CONTINUOUS
10
147.7363440000000026
20
-116.250551999999999
11
147.6411059999999793
21
-116.0600759999999951
0
LINE
8
BLACK
6
CONTINUOUS
10
147.6411059999999793
20
-116.0600759999999951
11
147.4506299999999896
21
-115.774360999999999
0
LINE
8
BLACK
6
CONTINUOUS
10
147.4506299999999896
20
-115.774360999999999
11
147.3553919999999948
21
-115.6791229999999899
0
CIRCLE
8
BLACK
10
97.1049999999999898
20
-119.6899999999999977
40
0.595
0
LINE
8
BLACK
6
CONTINUOUS
10
101.3553869999999932
20
-120.6048380000000009
11
100.212530000000001
21
-120.6048380000000009
0
LINE
8
BLACK
6
CONTINUOUS
10
100.7839579999999984
20
-120.6048380000000009
11
100.7839579999999984
21
-118.6048380000000009
0
LINE
8
BLACK
6
CONTINUOUS
10
100.7839579999999984
20
-118.6048380000000009
11
100.5934819999999945
21
-118.8905519999999996
0
LINE
8
BLACK
6
CONTINUOUS
10
100.5934819999999945
20
-118.8905519999999996
11
100.4030059999999906
21
-119.0810279999999892
0
LINE
8
BLACK
6
CONTINUOUS
10
100.4030059999999906
20
-119.0810279999999892
11
100.212530000000001
21
-119.1762659999999983
0
LINE
8
BLACK
6
CONTINUOUS
10
102.212530000000001
20
-120.4143609999999995
11
102.3077679999999958
21
-120.5095999999999918
0
LINE
8
BLACK
6
CONTINUOUS
10
102.3077679999999958
20
-120.5095999999999918
11
102.212530000000001
21
-120.6048380000000009
0
LINE
8
BLACK
6
CONTINUOUS
10
102.212530000000001
20
-120.6048380000000009
11
102.117291999999992
21
-120.5095999999999918
0
LINE
8
BLACK
6
CONTINUOUS
10
102.117291999999992
20
-120.5095999999999918
11
102.212530000000001
21
-120.4143609999999995
0
LINE
8
BLACK
6
CONTINUOUS
10
102.212530000000001
20
-120.4143609999999995
11
102.212530000000001
21
-120.6048380000000009
0
LINE
8
BLACK
6
CONTINUOUS
10
104.212530000000001
20
-120.6048380000000009
11
103.0696729999999945
21
-120.6048380000000009
0
LINE
8
BLACK
6
CONTINUOUS
10
103.6411009999999919
20
-120.6048380000000009
11
103.6411009999999919
21
-118.6048380000000009
0
LINE
8
BLACK
6
CONTINUOUS
10
103.6411009999999919
20
-118.6048380000000009
11
103.4506250000000023
21
-118.8905519999999996
0
LINE
8
BLACK
6
CONTINUOUS
10
103.4506250000000023
20
-118.8905519999999996
11
103.2601489999999984
21
-119.0810279999999892
0
LINE
8
BLACK
6
CONTINUOUS
10
103.2601489999999984
20
-119.0810279999999892
11
103.0696729999999945
21
-119.1762659999999983
0
LINE
8
BLACK
6
CONTINUOUS
10
105.1649109999999894
20
-120.6048380000000009
11
105.5458629999999971
21
-120.6048380000000009
0
LINE
8
BLACK
6
CONTINUOUS
10
105.5458629999999971
20
-120.6048380000000009
11
105.7363399999999984
21
-120.5095999999999918
0
LINE
8
BLACK
6
CONTINUOUS
10
105.7363399999999984
20
-120.5095999999999918
11
105.8315779999999933
21
-120.4143609999999995
0
LINE
8
BLACK
6
CONTINUOUS
10
105.8315779999999933
20
-120.4143609999999995
11
106.0220539999999971
21
-120.1286470000000008
0
LINE
8
BLACK
6
CONTINUOUS
10
106.0220539999999971
20
-120.1286470000000008
11
106.117291999999992
21
-119.7476949999999931
0
LINE
8
BLACK
6
CONTINUOUS
10
106.117291999999992
20
-119.7476949999999931
11
106.117291999999992
21
-118.9857899999999944
0
LINE
8
BLACK
6
CONTINUOUS
10
106.117291999999992
20
-118.9857899999999944
11
106.0220539999999971
21
-118.7953139999999905
0
LINE
8
BLACK
6
CONTINUOUS
10
106.0220539999999971
20
-118.7953139999999905
11
105.9268160000000023
21
-118.7000759999999957
0
LINE
8
BLACK
6
CONTINUOUS
10
105.9268160000000023
20
-118.7000759999999957
11
105.7363399999999984
21
-118.6048380000000009
0
LINE
8
BLACK
6
CONTINUOUS
10
105.7363399999999984
20
-118.6048380000000009
11
105.3553869999999932
21
-118.6048380000000009
0
LINE
8
BLACK
6
CONTINUOUS
10
105.3553869999999932
20
-118.6048380000000009
11
105.1649109999999894
21
-118.7000759999999957
0
LINE
8
BLACK
6
CONTINUOUS
10
105.1649109999999894
20
-118.7000759999999957
11
105.0696729999999945
21
-118.7953139999999905
0
LINE
8
BLACK
6
CONTINUOUS
10
105.0696729999999945
20
-118.7953139999999905
11
104.9744349999999997
21
-118.9857899999999944
0
LINE
8
BLACK
6
CONTINUOUS
10
104.9744349999999997
20
-118.9857899999999944
11
104.9744349999999997
21
-119.4619799999999969
0
LINE
8
BLACK
6
CONTINUOUS
10
104.9744349999999997
20
-119.4619799999999969
11
105.0696729999999945
21
-119.6524569999999983
0
LINE
8
BLACK
6
CONTINUOUS
10
105.0696729999999945
20
-119.6524569999999983
11
105.1649109999999894
21
-119.7476949999999931
0
LINE
8
BLACK
6
CONTINUOUS
10
105.1649109999999894
20
-119.7476949999999931
11
105.3553869999999932
21
-119.8429329999999879
0
LINE
8
BLACK
6
CONTINUOUS
10
105.3553869999999932
20
-119.8429329999999879
11
105.7363399999999984
21
-119.8429329999999879
0
LINE
8
BLACK
6
CONTINUOUS
10
105.7363399999999984
20
-119.8429329999999879
11
105.9268160000000023
21
-119.7476949999999931
0
LINE
8
BLACK
6
CONTINUOUS
10
105.9268160000000023
20
-119.7476949999999931
11
106.0220539999999971
21
-119.6524569999999983
0
LINE
8
BLACK
6
CONTINUOUS
10
106.0220539999999971
20
-119.6524569999999983
11
106.117291999999992
21
-119.4619799999999969
0
LINE
8
BLACK
6
CONTINUOUS
10
107.3553869999999932
20
-118.6048380000000009
11
107.5458639999999946
21
-118.6048380000000009
0
LINE
8
BLACK
6
CONTINUOUS
10
107.5458639999999946
20
-118.6048380000000009
11
107.7363399999999984
21
-118.7000759999999957
0
LINE
8
BLACK
6
CONTINUOUS
10
107.7363399999999984
20
-118.7000759999999957
11
107.8315779999999933
21
-118.7953139999999905
0
LINE
8
BLACK
6
CONTINUOUS
10
107.8315779999999933
20
-118.7953139999999905
11
107.9268159999999881
21
-118.9857899999999944
0
LINE
8
BLACK
6
CONTINUOUS
10
107.9268159999999881
20
-118.9857899999999944
11
108.0220539999999971
21
-119.3667419999999879
0
LINE
8
BLACK
6
CONTINUOUS
10
108.0220539999999971
20
-119.3667419999999879
11
108.0220539999999971
21
-119.8429329999999879
0
LINE
8
BLACK
6
CONTINUOUS
10
108.0220539999999971
20
-119.8429329999999879
11
107.9268159999999881
21
-120.2238849999999957
0
LINE
8
BLACK
6
CONTINUOUS
10
107.9268159999999881
20
-120.2238849999999957
11
107.8315779999999933
21
-120.4143609999999995
0
LINE
8
BLACK
6
CONTINUOUS
10
107.8315779999999933
20
-120.4143609999999995
11
107.7363399999999984
21
-120.5095999999999918
0
LINE
8
BLACK
6
CONTINUOUS
10
107.7363399999999984
20
-120.5095999999999918
11
107.5458639999999946
21
-120.6048380000000009
0
LINE
8
BLACK
6
CONTINUOUS
10
107.5458639999999946
20
-120.6048380000000009
11
107.3553869999999932
21
-120.6048380000000009
0
LINE
8
BLACK
6
CONTINUOUS
10
107.3553869999999932
20
-120.6048380000000009
11
107.1649109999999894
21
-120.5095999999999918
0
LINE
8
BLACK
6
CONTINUOUS
10
107.1649109999999894
20
-120.5095999999999918
11
107.0696729999999945
21
-120.4143609999999995
0
LINE
8
BLACK
6
CONTINUOUS
10
107.0696729999999945
20
-120.4143609999999995
11
106.9744349999999997
21
-120.2238849999999957
0
LINE
8
BLACK
6
CONTINUOUS
10
106.9744349999999997
20
-120.2238849999999957
11
106.8791969999999907
21
-119.8429329999999879
0
LINE
8
BLACK
6
CONTINUOUS
10
106.8791969999999907
20
-119.8429329999999879
11
106.8791969999999907
21
-119.3667419999999879
0
LINE
8
BLACK
6
CONTINUOUS
10
106.8791969999999907
20
-119.3667419999999879
11
106.9744349999999997
21
-118.9857899999999944
0
LINE
8
BLACK
6
CONTINUOUS
10
106.9744349999999997
20
-118.9857899999999944
11
107.0696729999999945
21
-118.7953139999999905
0
LINE
8
BLACK
6
CONTINUOUS
10
107.0696729999999945
20
-118.7953139999999905
11
107.1649109999999894
21
-118.7000759999999957
0
LINE
8
BLACK
6
CONTINUOUS
10
107.1649109999999894
20
-118.7000759999999957
11
107.3553869999999932
21
-118.6048380000000009
0
LINE
8
BLACK
6
CONTINUOUS
10
108.8791969999999907
20
-120.6048380000000009
11
108.8791969999999907
21
-119.2715039999999931
0
LINE
8
BLACK
6
CONTINUOUS
10
108.8791969999999907
20
-119.4619799999999969
11
108.9744349999999997
21
-119.3667419999999879
0
LINE
8
BLACK
6
CONTINUOUS
10
108.9744349999999997
20
-119.3667419999999879
11
109.1649109999999894
21
-119.2715039999999931
0
LINE
8
BLACK
6
CONTINUOUS
10
109.1649109999999894
20
-119.2715039999999931
11
109.4506259999999997
21
-119.2715039999999931
0
LINE
8
BLACK
6
CONTINUOUS
10
109.4506259999999997
20
-119.2715039999999931
11
109.6411019999999894
21
-119.3667419999999879
0
LINE
8
BLACK
6
CONTINUOUS
10
109.6411019999999894
20
-119.3667419999999879
11
109.7363399999999984
21
-119.5572189999999893
0
LINE
8
BLACK
6
CONTINUOUS
10
109.7363399999999984
20
-119.5572189999999893
11
109.7363399999999984
21
-120.6048380000000009
0
LINE
8
BLACK
6
CONTINUOUS
10
109.7363399999999984
20
-119.5572189999999893
11
109.8315779999999933
21
-119.3667419999999879
0
LINE
8
BLACK
6
CONTINUOUS
10
109.8315779999999933
20
-119.3667419999999879
11
110.0220539999999971
21
-119.2715039999999931
0
LINE
8
BLACK
6
CONTINUOUS
10
110.0220539999999971
20
-119.2715039999999931
11
110.3077679999999958
21
-119.2715039999999931
0
LINE
8
BLACK
6
CONTINUOUS
10
110.3077679999999958
20
-119.2715039999999931
11
110.4982449999999972
21
-119.3667419999999879
0
LINE
8
BLACK
6
CONTINUOUS
10
110.4982449999999972
20
-119.3667419999999879
11
110.593482999999992
21
-119.5572189999999893
0
LINE
8
BLACK
6
CONTINUOUS
10
110.593482999999992
20
-119.5572189999999893
11
110.593482999999992
21
-120.6048380000000009
0
LINE
8
BLACK
6
CONTINUOUS
10
111.5458639999999946
20
-120.6048380000000009
11
111.5458639999999946
21
-119.2715039999999931
0
LINE
8
BLACK
6
CONTINUOUS
10
111.5458639999999946
20
-119.4619799999999969
11
111.6411019999999894
21
-119.3667419999999879
0
LINE
8
BLACK
6
CONTINUOUS
10
111.6411019999999894
20
-119.3667419999999879
11
111.8315779999999933
21
-119.2715039999999931
0
LINE
8
BLACK
6
CONTINUOUS
10
111.8315779999999933
20
-119.2715039999999931
11
112.1172929999999894
21
-119.2715039999999931
0
LINE
8
BLACK
6
CONTINUOUS
10
112.1172929999999894
20
-119.2715039999999931
11
112.3077689999999933
21
-119.3667419999999879
0
LINE
8
BLACK
6
CONTINUOUS
10
112.3077689999999933
20
-119.3667419999999879
11
112.4030069999999881
21
-119.5572189999999893
0
LINE
8
BLACK
6
CONTINUOUS
10
112.4030069999999881
20
-119.5572189999999893
11
112.4030069999999881
21
-120.6048380000000009
0
LINE
8
BLACK
6
CONTINUOUS
10
112.4030069999999881
20
-119.5572189999999893
11
112.4982449999999972
21
-119.3667419999999879
0
LINE
8
BLACK
6
CONTINUOUS
10
112.4982449999999972
20
-119.3667419999999879
11
112.688721000000001
21
-119.2715039999999931
0
LINE
8
BLACK
6
CONTINUOUS
10
112.688721000000001
20
-119.2715039999999931
11
112.9744349999999997
21
-119.2715039999999931
0
LINE
8
BLACK
6
CONTINUOUS
10
112.9744349999999997
20
-119.2715039999999931
11
113.1649120000000011
21
-119.3667419999999879
0
LINE
8
BLACK
6
CONTINUOUS
10
113.1649120000000011
20
-119.3667419999999879
11
113.2601499999999959
21
-119.5572189999999893
0
LINE
8
BLACK
6
CONTINUOUS
10
113.2601499999999959
20
-119.5572189999999893
11
113.2601499999999959
21
-120.6048380000000009
0
LINE
8
BLACK
6
CONTINUOUS
10
117.1649120000000011
20
-118.5095999999999918
11
115.4506269999999972
21
-121.0810279999999892
0
LINE
8
BLACK
6
CONTINUOUS
10
119.7363409999999959
20
-118.6048380000000009
11
119.9268179999999973
21
-118.6048380000000009
0
LINE
8
BLACK
6
CONTINUOUS
10
119.9268179999999973
20
-118.6048380000000009
11
120.1172940000000011
21
-118.7000759999999957
0
LINE
8
BLACK
6
CONTINUOUS
10
120.1172940000000011
20
-118.7000759999999957
11
120.2125319999999959
21
-118.7953139999999905
0
LINE
8
BLACK
6
CONTINUOUS
10
120.2125319999999959
20
-118.7953139999999905
11
120.3077699999999908
21
-118.9857899999999944
0
LINE
8
BLACK
6
CONTINUOUS
10
120.3077699999999908
20
-118.9857899999999944
11
120.4030079999999998
21
-119.3667419999999879
0
LINE
8
BLACK
6
CONTINUOUS
10
120.4030079999999998
20
-119.3667419999999879
11
120.4030079999999998
21
-119.8429329999999879
0
LINE
8
BLACK
6
CONTINUOUS
10
120.4030079999999998
20
-119.8429329999999879
11
120.3077699999999908
21
-120.2238849999999957
0
LINE
8
BLACK
6
CONTINUOUS
10
120.3077699999999908
20
-120.2238849999999957
11
120.2125319999999959
21
-120.4143609999999995
0
LINE
8
BLACK
6
CONTINUOUS
10
120.2125319999999959
20
-120.4143609999999995
11
120.1172940000000011
21
-120.5095999999999918
0
LINE
8
BLACK
6
CONTINUOUS
10
120.1172940000000011
20
-120.5095999999999918
11
119.9268179999999973
21
-120.6048380000000009
0
LINE
8
BLACK
6
CONTINUOUS
10
119.9268179999999973
20
-120.6048380000000009
11
119.7363409999999959
21
-120.6048380000000009
0
LINE
8
BLACK
6
CONTINUOUS
10
119.7363409999999959
20
-120.6048380000000009
11
119.5458649999999921
21
-120.5095999999999918
0
LINE
8
BLACK
6
CONTINUOUS
10
119.5458649999999921
20
-120.5095999999999918
11
119.4506269999999972
21
-120.4143609999999995
0
LINE
8
BLACK
6
CONTINUOUS
10
119.4506269999999972
20
-120.4143609999999995
11
119.3553889999999882
21
-120.2238849999999957
0
LINE
8
BLACK
6
CONTINUOUS
10
119.3553889999999882
20
-120.2238849999999957
11
119.2601509999999934
21
-119.8429329999999879
0
LINE
8
BLACK
6
CONTINUOUS
10
119.2601509999999934
20
-119.8429329999999879
11
119.2601509999999934
21
-119.3667419999999879
0
LINE
8
BLACK
6
CONTINUOUS
10
119.2601509999999934
20
-119.3667419999999879
11
119.3553889999999882
21
-118.9857899999999944
0
LINE
8
BLACK
6
CONTINUOUS
10
119.3553889999999882
20
-118.9857899999999944
11
119.4506269999999972
21
-118.7953139999999905
0
LINE
8
BLACK
6
CONTINUOUS
10
119.4506269999999972
20
-118.7953139999999905
11
119.5458649999999921
21
-118.7000759999999957
0
LINE
8
BLACK
6
CONTINUOUS
10
119.5458649999999921
20
-118.7000759999999957
11
119.7363409999999959
21
-118.6048380000000009
0
LINE
8
BLACK
6
CONTINUOUS
10
121.2601509999999934
20
-120.4143609999999995
11
121.3553889999999882
21
-120.5095999999999918
0
LINE
8
BLACK
6
CONTINUOUS
10
121.3553889999999882
20
-120.5095999999999918
11
121.2601509999999934
21
-120.6048380000000009
0
LINE
8
BLACK
6
CONTINUOUS
10
121.2601509999999934
20
-120.6048380000000009
11
121.1649129999999985
21
-120.5095999999999918
0
LINE
8
BLACK
6
CONTINUOUS
10
121.1649129999999985
20
-120.5095999999999918
11
121.2601509999999934
21
-120.4143609999999995
0
LINE
8
BLACK
6
CONTINUOUS
10
121.2601509999999934
20
-120.4143609999999995
11
121.2601509999999934
21
-120.6048380000000009
0
LINE
8
BLACK
6
CONTINUOUS
10
122.5934839999999895
20
-118.6048380000000009
11
122.7839609999999908
21
-118.6048380000000009
0
LINE
8
BLACK
6
CONTINUOUS
10
122.7839609999999908
20
-118.6048380000000009
11
122.9744369999999947
21
-118.7000759999999957
0
LINE
8
BLACK
6
CONTINUOUS
10
122.9744369999999947
20
-118.7000759999999957
11
123.0696749999999895
21
-118.7953139999999905
0
LINE
8
BLACK
6
CONTINUOUS
10
123.0696749999999895
20
-118.7953139999999905
11
123.1649129999999985
21
-118.9857899999999944
0
LINE
8
BLACK
6
CONTINUOUS
10
123.1649129999999985
20
-118.9857899999999944
11
123.2601509999999934
21
-119.3667419999999879
0
LINE
8
BLACK
6
CONTINUOUS
10
123.2601509999999934
20
-119.3667419999999879
11
123.2601509999999934
21
-119.8429329999999879
0
LINE
8
BLACK
6
CONTINUOUS
10
123.2601509999999934
20
-119.8429329999999879
11
123.1649129999999985
21
-120.2238849999999957
0
LINE
8
BLACK
6
CONTINUOUS
10
123.1649129999999985
20
-120.2238849999999957
11
123.0696749999999895
21
-120.4143609999999995
0
LINE
8
BLACK
6
CONTINUOUS
10
123.0696749999999895
20
-120.4143609999999995
11
122.9744369999999947
21
-120.5095999999999918
0
LINE
8
BLACK
6
CONTINUOUS
10
122.9744369999999947
20
-120.5095999999999918
11
122.7839609999999908
21
-120.6048380000000009
0
LINE
8
BLACK
6
CONTINUOUS
10
122.7839609999999908
20
-120.6048380000000009
11
122.5934839999999895
21
-120.6048380000000009
0
LINE
8
BLACK
6
CONTINUOUS
10
122.5934839999999895
20
-120.6048380000000009
11
122.4030079999999998
21
-120.5095999999999918
0
LINE
8
BLACK
6
CONTINUOUS
10
122.4030079999999998
20
-120.5095999999999918
11
122.3077699999999908
21
-120.4143609999999995
0
LINE
8
BLACK
6
CONTINUOUS
10
122.3077699999999908
20
-120.4143609999999995
11
122.2125319999999959
21
-120.2238849999999957
0
LINE
8
BLACK
6
CONTINUOUS
10
122.2125319999999959
20
-120.2238849999999957
11
122.1172940000000011
21
-119.8429329999999879
0
LINE
8
BLACK
6
CONTINUOUS
10
122.1172940000000011
20
-119.8429329999999879
11
122.1172940000000011
21
-119.3667419999999879
0
LINE
8
BLACK
6
CONTINUOUS
10
122.1172940000000011
20
-119.3667419999999879
11
122.2125319999999959
21
-118.9857899999999944
0
LINE
8
BLACK
6
CONTINUOUS
10
122.2125319999999959
20
-118.9857899999999944
11
122.3077699999999908
21
-118.7953139999999905
0
LINE
8
BLACK
6
CONTINUOUS
10
122.3077699999999908
20
-118.7953139999999905
11
122.4030079999999998
21
-118.7000759999999957
0
LINE
8
BLACK
6
CONTINUOUS
10
122.4030079999999998
20
-118.7000759999999957
11
122.5934839999999895
21
-118.6048380000000009
0
LINE
8
BLACK
6
CONTINUOUS
10
124.9744369999999947
20
-119.2715039999999931
11
124.9744369999999947
21
-120.6048380000000009
0
LINE
8
BLACK
6
CONTINUOUS
10
124.4982459999999946
20
-118.5095999999999918
11
124.0220559999999921
21
-119.938170999999997
0
LINE
8
BLACK
6
CONTINUOUS
10
124.0220559999999921
20
-119.938170999999997
11
125.2601509999999934
21
-119.938170999999997
0
LINE
8
BLACK
6
CONTINUOUS
10
126.8791989999999998
20
-118.6048380000000009
11
126.4982459999999946
21
-118.6048380000000009
0
LINE
8
BLACK
6
CONTINUOUS
10
126.4982459999999946
20
-118.6048380000000009
11
126.3077699999999908
21
-118.7000759999999957
0
LINE
8
BLACK
6
CONTINUOUS
10
126.3077699999999908
20
-118.7000759999999957
11
126.2125319999999959
21
-118.7953139999999905
0
LINE
8
BLACK
6
CONTINUOUS
10
126.2125319999999959
20
-118.7953139999999905
11
126.0220559999999921
21
-119.0810279999999892
0
LINE
8
BLACK
6
CONTINUOUS
10
126.0220559999999921
20
-119.0810279999999892
11
125.9268179999999973
21
-119.4619799999999969
0
LINE
8
BLACK
6
CONTINUOUS
10
125.9268179999999973
20
-119.4619799999999969
11
125.9268179999999973
21
-120.2238849999999957
0
LINE
8
BLACK
6
CONTINUOUS
10
125.9268179999999973
20
-120.2238849999999957
11
126.0220559999999921
21
-120.4143609999999995
0
LINE
8
BLACK
6
CONTINUOUS
10
126.0220559999999921
20
-120.4143609999999995
11
126.1172940000000011
21
-120.5095999999999918
0
LINE
8
BLACK
6
CONTINUOUS
10
126.1172940000000011
20
-120.5095999999999918
11
126.3077699999999908
21
-120.6048380000000009
0
LINE
8
BLACK
6
CONTINUOUS
10
126.3077699999999908
20
-120.6048380000000009
11
126.688722999999996
21
-120.6048380000000009
0
LINE
8
BLACK
6
CONTINUOUS
10
126.688722999999996
20
-120.6048380000000009
11
126.8791989999999998
21
-120.5095999999999918
0
LINE
8
BLACK
6
CONTINUOUS
10
126.8791989999999998
20
-120.5095999999999918
11
126.9744369999999947
21
-120.4143609999999995
0
LINE
8
BLACK
6
CONTINUOUS
10
126.9744369999999947
20
-120.4143609999999995
11
127.0696749999999895
21
-120.2238849999999957
0
LINE
8
BLACK
6
CONTINUOUS
10
127.0696749999999895
20
-120.2238849999999957
11
127.0696749999999895
21
-119.7476949999999931
0
LINE
8
BLACK
6
CONTINUOUS
10
127.0696749999999895
20
-119.7476949999999931
11
126.9744369999999947
21
-119.5572189999999893
0
LINE
8
BLACK
6
CONTINUOUS
10
126.9744369999999947
20
-119.5572189999999893
11
126.8791989999999998
21
-119.4619799999999969
0
LINE
8
BLACK
6
CONTINUOUS
10
126.8791989999999998
20
-119.4619799999999969
11
126.688722999999996
21
-119.3667419999999879
0
LINE
8
BLACK
6
CONTINUOUS
10
126.688722999999996
20
-119.3667419999999879
11
126.3077699999999908
21
-119.3667419999999879
0
LINE
8
BLACK
6
CONTINUOUS
10
126.3077699999999908
20
-119.3667419999999879
11
126.1172940000000011
21
-119.4619799999999969
0
LINE
8
BLACK
6
CONTINUOUS
10
126.1172940000000011
20
-119.4619799999999969
11
126.0220559999999921
21
-119.5572189999999893
0
LINE
8
BLACK
6
CONTINUOUS
10
126.0220559999999921
20
-119.5572189999999893
11
125.9268179999999973
21
-119.7476949999999931
0
LINE
8
BLACK
6
CONTINUOUS
10
128.0220559999999921
20
-120.6048380000000009
11
128.4030079999999998
21
-120.6048380000000009
0
LINE
8
BLACK
6
CONTINUOUS
10
128.4030079999999998
20
-120.6048380000000009
11
128.5934849999999869
21
-120.5095999999999918
0
LINE
8
BLACK
6
CONTINUOUS
10
128.5934849999999869
20
-120.5095999999999918
11
128.6887229999999818
21
-120.4143609999999995
0
LINE
8
BLACK
6
CONTINUOUS
10
128.6887229999999818
20
-120.4143609999999995
11
128.8791989999999998
21
-120.1286470000000008
0
LINE
8
BLACK
6
CONTINUOUS
10
128.8791989999999998
20
-120.1286470000000008
11
128.9744369999999947
21
-119.7476949999999931
0
LINE
8
BLACK
6
CONTINUOUS
10
128.9744369999999947
20
-119.7476949999999931
11
128.9744369999999947
21
-118.9857899999999944
0
LINE
8
BLACK
6
CONTINUOUS
10
128.9744369999999947
20
-118.9857899999999944
11
128.8791989999999998
21
-118.7953139999999905
0
LINE
8
BLACK
6
CONTINUOUS
10
128.8791989999999998
20
-118.7953139999999905
11
128.783961000000005
21
-118.7000759999999957
0
LINE
8
BLACK
6
CONTINUOUS
10
128.783961000000005
20
-118.7000759999999957
11
128.5934849999999869
21
-118.6048380000000009
0
LINE
8
BLACK
6
CONTINUOUS
10
128.5934849999999869
20
-118.6048380000000009
11
128.2125319999999817
21
-118.6048380000000009
0
LINE
8
BLACK
6
CONTINUOUS
10
128.2125319999999817
20
-118.6048380000000009
11
128.0220559999999921
21
-118.7000759999999957
0
LINE
8
BLACK
6
CONTINUOUS
10
128.0220559999999921
20
-118.7000759999999957
11
127.9268179999999973
21
-118.7953139999999905
0
LINE
8
BLACK
6
CONTINUOUS
10
127.9268179999999973
20
-118.7953139999999905
11
127.8315799999999882
21
-118.9857899999999944
0
LINE
8
BLACK
6
CONTINUOUS
10
127.8315799999999882
20
-118.9857899999999944
11
127.8315799999999882
21
-119.4619799999999969
0
LINE
8
BLACK
6
CONTINUOUS
10
127.8315799999999882
20
-119.4619799999999969
11
127.9268179999999973
21
-119.6524569999999983
0
LINE
8
BLACK
6
CONTINUOUS
10
127.9268179999999973
20
-119.6524569999999983
11
128.0220559999999921
21
-119.7476949999999931
0
LINE
8
BLACK
6
CONTINUOUS
10
128.0220559999999921
20
-119.7476949999999931
11
128.2125319999999817
21
-119.8429329999999879
0
LINE
8
BLACK
6
CONTINUOUS
10
128.2125319999999817
20
-119.8429329999999879
11
128.5934849999999869
21
-119.8429329999999879
0
LINE
8
BLACK
6
CONTINUOUS
10
128.5934849999999869
20
-119.8429329999999879
11
128.783961000000005
21
-119.7476949999999931
0
LINE
8
BLACK
6
CONTINUOUS
10
128.783961000000005
20
-119.7476949999999931
11
128.8791989999999998
21
-119.6524569999999983
0
LINE
8
BLACK
6
CONTINUOUS
10
128.8791989999999998
20
-119.6524569999999983
11
128.9744369999999947
21
-119.4619799999999969
0
LINE
8
BLACK
6
CONTINUOUS
10
129.7363420000000076
20
-118.6048380000000009
11
129.7363420000000076
21
-118.9857899999999944
0
LINE
8
BLACK
6
CONTINUOUS
10
130.4982469999999921
20
-118.6048380000000009
11
130.4982469999999921
21
-118.9857899999999944
0
LINE
8
BLACK
6
CONTINUOUS
10
133.4506289999999922
20
-121.3667419999999879
11
133.3553899999999999
21
-121.2715039999999931
0
LINE
8
BLACK
6
CONTINUOUS
10
133.3553899999999999
20
-121.2715039999999931
11
133.1649139999999818
21
-120.9857899999999944
0
LINE
8
BLACK
6
CONTINUOUS
10
133.1649139999999818
20
-120.9857899999999944
11
133.069675999999987
21
-120.7953139999999905
0
LINE
8
BLACK
6
CONTINUOUS
10
133.069675999999987
20
-120.7953139999999905
11
132.9744379999999921
21
-120.5095999999999918
0
LINE
8
BLACK
6
CONTINUOUS
10
132.9744379999999921
20
-120.5095999999999918
11
132.8791999999999973
21
-120.0334089999999918
0
LINE
8
BLACK
6
CONTINUOUS
10
132.8791999999999973
20
-120.0334089999999918
11
132.8791999999999973
21
-119.6524569999999983
0
LINE
8
BLACK
6
CONTINUOUS
10
132.8791999999999973
20
-119.6524569999999983
11
132.9744379999999921
21
-119.1762659999999983
0
LINE
8
BLACK
6
CONTINUOUS
10
132.9744379999999921
20
-119.1762659999999983
11
133.069675999999987
21
-118.8905519999999996
0
LINE
8
BLACK
6
CONTINUOUS
10
133.069675999999987
20
-118.8905519999999996
11
133.1649139999999818
21
-118.7000759999999957
0
LINE
8
BLACK
6
CONTINUOUS
10
133.1649139999999818
20
-118.7000759999999957
11
133.3553899999999999
21
-118.4143609999999995
0
LINE
8
BLACK
6
CONTINUOUS
10
133.3553899999999999
20
-118.4143609999999995
11
133.4506289999999922
21
-118.3191229999999905
0
LINE
8
BLACK
6
CONTINUOUS
10
134.1172949999999844
20
-118.7953139999999905
11
134.2125330000000076
21
-118.7000759999999957
0
LINE
8
BLACK
6
CONTINUOUS
10
134.2125330000000076
20
-118.7000759999999957
11
134.4030089999999973
21
-118.6048380000000009
0
LINE
8
BLACK
6
CONTINUOUS
10
134.4030089999999973
20
-118.6048380000000009
11
134.8791999999999973
21
-118.6048380000000009
0
LINE
8
BLACK
6
CONTINUOUS
10
134.8791999999999973
20
-118.6048380000000009
11
135.069675999999987
21
-118.7000759999999957
0
LINE
8
BLACK
6
CONTINUOUS
10
135.069675999999987
20
-118.7000759999999957
11
135.1649139999999818
21
-118.7953139999999905
0
LINE
8
BLACK
6
CONTINUOUS
10
135.1649139999999818
20
-118.7953139999999905
11
135.260152000000005
21
-118.9857899999999944
0
LINE
8
BLACK
6
CONTINUOUS
10
135.260152000000005
20
-118.9857899999999944
11
135.260152000000005
21
-119.1762659999999983
0
LINE
8
BLACK
6
CONTINUOUS
10
135.260152000000005
20
-119.1762659999999983
11
135.1649139999999818
21
-119.4619799999999969
0
LINE
8
BLACK
6
CONTINUOUS
10
135.1649139999999818
20
-119.4619799999999969
11
134.0220569999999896
21
-120.6048380000000009
0
LINE
8
BLACK
6
CONTINUOUS
10
134.0220569999999896
20
-120.6048380000000009
11
135.260152000000005
21
-120.6048380000000009
0
LINE
8
BLACK
6
CONTINUOUS
10
136.4030089999999973
20
-119.4619799999999969
11
136.2125330000000076
21
-119.3667419999999879
0
LINE
8
BLACK
6
CONTINUOUS
10
136.2125330000000076
20
-119.3667419999999879
11
136.1172949999999844
21
-119.2715039999999931
0
LINE
8
BLACK
6
CONTINUOUS
10
136.1172949999999844
20
-119.2715039999999931
11
136.0220569999999896
21
-119.0810279999999892
0
LINE
8
BLACK
6
CONTINUOUS
10
136.0220569999999896
20
-119.0810279999999892
11
136.0220569999999896
21
-118.9857899999999944
0
LINE
8
BLACK
6
CONTINUOUS
10
136.0220569999999896
20
-118.9857899999999944
11
136.1172949999999844
21
-118.7953139999999905
0
LINE
8
BLACK
6
CONTINUOUS
10
136.1172949999999844
20
-118.7953139999999905
11
136.2125330000000076
21
-118.7000759999999957
0
LINE
8
BLACK
6
CONTINUOUS
10
136.2125330000000076
20
-118.7000759999999957
11
136.4030089999999973
21
-118.6048380000000009
0
LINE
8
BLACK
6
CONTINUOUS
10
136.4030089999999973
20
-118.6048380000000009
11
136.7839620000000025
21
-118.6048380000000009
0
LINE
8
BLACK
6
CONTINUOUS
10
136.7839620000000025
20
-118.6048380000000009
11
136.9744379999999921
21
-118.7000759999999957
0
LINE
8
BLACK
6
CONTINUOUS
10
136.9744379999999921
20
-118.7000759999999957
11
137.069675999999987
21
-118.7953139999999905
0
LINE
8
BLACK
6
CONTINUOUS
10
137.069675999999987
20
-118.7953139999999905
11
137.1649139999999818
21
-118.9857899999999944
0
LINE
8
BLACK
6
CONTINUOUS
10
137.1649139999999818
20
-118.9857899999999944
11
137.1649139999999818
21
-119.0810279999999892
0
LINE
8
BLACK
6
CONTINUOUS
10
137.1649139999999818
20
-119.0810279999999892
11
137.069675999999987
21
-119.2715039999999931
0
LINE
8
BLACK
6
CONTINUOUS
10
137.069675999999987
20
-119.2715039999999931
11
136.9744379999999921
21
-119.3667419999999879
0
LINE
8
BLACK
6
CONTINUOUS
10
136.9744379999999921
20
-119.3667419999999879
11
136.7839620000000025
21
-119.4619799999999969
0
LINE
8
BLACK
6
CONTINUOUS
10
136.7839620000000025
20
-119.4619799999999969
11
136.4030089999999973
21
-119.4619799999999969
0
LINE
8
BLACK
6
CONTINUOUS
10
136.4030089999999973
20
-119.4619799999999969
11
136.2125330000000076
21
-119.5572189999999893
0
LINE
8
BLACK
6
CONTINUOUS
10
136.2125330000000076
20
-119.5572189999999893
11
136.1172949999999844
21
-119.6524569999999983
0
LINE
8
BLACK
6
CONTINUOUS
10
136.1172949999999844
20
-119.6524569999999983
11
136.0220569999999896
21
-119.8429329999999879
0
LINE
8
BLACK
6
CONTINUOUS
10
136.0220569999999896
20
-119.8429329999999879
11
136.0220569999999896
21
-120.2238849999999957
0
LINE
8
BLACK
6
CONTINUOUS
10
136.0220569999999896
20
-120.2238849999999957
11
136.1172949999999844
21
-120.4143609999999995
0
LINE
8
BLACK
6
CONTINUOUS
10
136.1172949999999844
20
-120.4143609999999995
11
136.2125330000000076
21
-120.5095999999999918
0
LINE
8
BLACK
6
CONTINUOUS
10
136.2125330000000076
20
-120.5095999999999918
11
136.4030089999999973
21
-120.6048380000000009
0
LINE
8
BLACK
6
CONTINUOUS
10
136.4030089999999973
20
-120.6048380000000009
11
136.7839620000000025
21
-120.6048380000000009
0
LINE
8
BLACK
6
CONTINUOUS
10
136.7839620000000025
20
-120.6048380000000009
11
136.9744379999999921
21
-120.5095999999999918
0
LINE
8
BLACK
6
CONTINUOUS
10
136.9744379999999921
20
-120.5095999999999918
11
137.069675999999987
21
-120.4143609999999995
0
LINE
8
BLACK
6
CONTINUOUS
10
137.069675999999987
20
-120.4143609999999995
11
137.1649139999999818
21
-120.2238849999999957
0
LINE
8
BLACK
6
CONTINUOUS
10
137.1649139999999818
20
-120.2238849999999957
11
137.1649139999999818
21
-119.8429329999999879
0
LINE
8
BLACK
6
CONTINUOUS
10
137.1649139999999818
20
-119.8429329999999879
11
137.069675999999987
21
-119.6524569999999983
0
LINE
8
BLACK
6
CONTINUOUS
10
137.069675999999987
20
-119.6524569999999983
11
136.9744379999999921
21
-119.5572189999999893
0
LINE
8
BLACK
6
CONTINUOUS
10
136.9744379999999921
20
-119.5572189999999893
11
136.7839620000000025
21
-119.4619799999999969
0
LINE
8
BLACK
6
CONTINUOUS
10
139.545866999999987
20
-120.6048380000000009
11
139.545866999999987
21
-118.6048380000000009
0
LINE
8
BLACK
6
CONTINUOUS
10
140.4030099999999948
20
-120.6048380000000009
11
140.4030099999999948
21
-119.5572189999999893
0
LINE
8
BLACK
6
CONTINUOUS
10
140.4030099999999948
20
-119.5572189999999893
11
140.3077719999999999
21
-119.3667419999999879
0
LINE
8
BLACK
6
CONTINUOUS
10
140.3077719999999999
20
-119.3667419999999879
11
140.1172959999999819
21
-119.2715039999999931
0
LINE
8
BLACK
6
CONTINUOUS
10
140.1172959999999819
20
-119.2715039999999931
11
139.8315809999999999
21
-119.2715039999999931
0
LINE
8
BLACK
6
CONTINUOUS
10
139.8315809999999999
20
-119.2715039999999931
11
139.6411049999999818
21
-119.3667419999999879
0
LINE
8
BLACK
6
CONTINUOUS
10
139.6411049999999818
20
-119.3667419999999879
11
139.545866999999987
21
-119.4619799999999969
0
LINE
8
BLACK
6
CONTINUOUS
10
141.6411049999999818
20
-120.6048380000000009
11
141.4506289999999922
21
-120.5095999999999918
0
LINE
8
BLACK
6
CONTINUOUS
10
141.4506289999999922
20
-120.5095999999999918
11
141.3553909999999973
21
-120.4143609999999995
0
LINE
8
BLACK
6
CONTINUOUS
10
141.3553909999999973
20
-120.4143609999999995
11
141.2601530000000025
21
-120.2238849999999957
0
LINE
8
BLACK
6
CONTINUOUS
10
141.2601530000000025
20
-120.2238849999999957
11
141.2601530000000025
21
-119.6524569999999983
0
LINE
8
BLACK
6
CONTINUOUS
10
141.2601530000000025
20
-119.6524569999999983
11
141.3553909999999973
21
-119.4619799999999969
0
LINE
8
BLACK
6
CONTINUOUS
10
141.3553909999999973
20
-119.4619799999999969
11
141.4506289999999922
21
-119.3667419999999879
0
LINE
8
BLACK
6
CONTINUOUS
10
141.4506289999999922
20
-119.3667419999999879
11
141.6411049999999818
21
-119.2715039999999931
0
LINE
8
BLACK
6
CONTINUOUS
10
141.6411049999999818
20
-119.2715039999999931
11
141.9268199999999922
21
-119.2715039999999931
0
LINE
8
BLACK
6
CONTINUOUS
10
141.9268199999999922
20
-119.2715039999999931
11
142.1172959999999819
21
-119.3667419999999879
0
LINE
8
BLACK
6
CONTINUOUS
10
142.1172959999999819
20
-119.3667419999999879
11
142.2125340000000051
21
-119.4619799999999969
0
LINE
8
BLACK
6
CONTINUOUS
10
142.2125340000000051
20
-119.4619799999999969
11
142.3077719999999999
21
-119.6524569999999983
0
LINE
8
BLACK
6
CONTINUOUS
10
142.3077719999999999
20
-119.6524569999999983
11
142.3077719999999999
21
-120.2238849999999957
0
LINE
8
BLACK
6
CONTINUOUS
10
142.3077719999999999
20
-120.2238849999999957
11
142.2125340000000051
21
-120.4143609999999995
0
LINE
8
BLACK
6
CONTINUOUS
10
142.2125340000000051
20
-120.4143609999999995
11
142.1172959999999819
21
-120.5095999999999918
0
LINE
8
BLACK
6
CONTINUOUS
10
142.1172959999999819
20
-120.5095999999999918
11
141.9268199999999922
21
-120.6048380000000009
0
LINE
8
BLACK
6
CONTINUOUS
10
141.9268199999999922
20
-120.6048380000000009
11
141.6411049999999818
21
-120.6048380000000009
0
LINE
8
BLACK
6
CONTINUOUS
10
143.4506289999999922
20
-120.6048380000000009
11
143.2601530000000025
21
-120.5095999999999918
0
LINE
8
BLACK
6
CONTINUOUS
10
143.2601530000000025
20
-120.5095999999999918
11
143.1649150000000077
21
-120.3191229999999905
0
LINE
8
BLACK
6
CONTINUOUS
10
143.1649150000000077
20
-120.3191229999999905
11
143.1649150000000077
21
-118.6048380000000009
0
LINE
8
BLACK
6
CONTINUOUS
10
144.9744389999999896
20
-120.5095999999999918
11
144.783963
21
-120.6048380000000009
0
LINE
8
BLACK
6
CONTINUOUS
10
144.783963
20
-120.6048380000000009
11
144.4030099999999948
21
-120.6048380000000009
0
LINE
8
BLACK
6
CONTINUOUS
10
144.4030099999999948
20
-120.6048380000000009
11
144.2125340000000051
21
-120.5095999999999918
0
LINE
8
BLACK
6
CONTINUOUS
10
144.2125340000000051
20
-120.5095999999999918
11
144.1172959999999819
21
-120.3191229999999905
0
LINE
8
BLACK
6
CONTINUOUS
10
144.1172959999999819
20
-120.3191229999999905
11
144.1172959999999819
21
-119.5572189999999893
0
LINE
8
BLACK
6
CONTINUOUS
10
144.1172959999999819
20
-119.5572189999999893
11
144.2125340000000051
21
-119.3667419999999879
0
LINE
8
BLACK
6
CONTINUOUS
10
144.2125340000000051
20
-119.3667419999999879
11
144.4030099999999948
21
-119.2715039999999931
0
LINE
8
BLACK
6
CONTINUOUS
10
144.4030099999999948
20
-119.2715039999999931
11
144.783963
21
-119.2715039999999931
0
LINE
8
BLACK
6
CONTINUOUS
10
144.783963
20
-119.2715039999999931
11
144.9744389999999896
21
-119.3667419999999879
0
LINE
8
BLACK
6
CONTINUOUS
10
144.9744389999999896
20
-119.3667419999999879
11
145.0696769999999844
21
-119.5572189999999893
0
LINE
8
BLACK
6
CONTINUOUS
10
145.0696769999999844
20
-119.5572189999999893
11
145.0696769999999844
21
-119.7476949999999931
0
LINE
8
BLACK
6
CONTINUOUS
10
145.0696769999999844
20
-119.7476949999999931
11
144.1172959999999819
21
-119.938170999999997
0
LINE
8
BLACK
6
CONTINUOUS
10
145.8315819999999974
20
-120.5095999999999918
11
146.022057999999987
21
-120.6048380000000009
0
LINE
8
BLACK
6
CONTINUOUS
10
146.022057999999987
20
-120.6048380000000009
11
146.4030099999999948
21
-120.6048380000000009
0
LINE
8
BLACK
6
CONTINUOUS
10
146.4030099999999948
20
-120.6048380000000009
11
146.5934869999999819
21
-120.5095999999999918
0
LINE
8
BLACK
6
CONTINUOUS
10
146.5934869999999819
20
-120.5095999999999918
11
146.6887250000000051
21
-120.3191229999999905
0
LINE
8
BLACK
6
CONTINUOUS
10
146.6887250000000051
20
-120.3191229999999905
11
146.6887250000000051
21
-120.2238849999999957
0
LINE
8
BLACK
6
CONTINUOUS
10
146.6887250000000051
20
-120.2238849999999957
11
146.5934869999999819
21
-120.0334089999999918
0
LINE
8
BLACK
6
CONTINUOUS
10
146.5934869999999819
20
-120.0334089999999918
11
146.4030099999999948
21
-119.938170999999997
0
LINE
8
BLACK
6
CONTINUOUS
10
146.4030099999999948
20
-119.938170999999997
11
146.1172959999999819
21
-119.938170999999997
0
LINE
8
BLACK
6
CONTINUOUS
10
146.1172959999999819
20
-119.938170999999997
11
145.9268199999999922
21
-119.8429329999999879
0
LINE
8
BLACK
6
CONTINUOUS
10
145.9268199999999922
20
-119.8429329999999879
11
145.8315819999999974
21
-119.6524569999999983
0
LINE
8
BLACK
6
CONTINUOUS
10
145.8315819999999974
20
-119.6524569999999983
11
145.8315819999999974
21
-119.5572189999999893
0
LINE
8
BLACK
6
CONTINUOUS
10
145.8315819999999974
20
-119.5572189999999893
11
145.9268199999999922
21
-119.3667419999999879
0
LINE
8
BLACK
6
CONTINUOUS
10
145.9268199999999922
20
-119.3667419999999879
11
146.1172959999999819
21
-119.2715039999999931
0
LINE
8
BLACK
6
CONTINUOUS
10
146.1172959999999819
20
-119.2715039999999931
11
146.4030099999999948
21
-119.2715039999999931
0
LINE
8
BLACK
6
CONTINUOUS
10
146.4030099999999948
20
-119.2715039999999931
11
146.5934869999999819
21
-119.3667419999999879
0
LINE
8
BLACK
6
CONTINUOUS
10
147.3553919999999948
20
-121.3667419999999879
11
147.4506299999999896
21
-121.2715039999999931
0
LINE
8
BLACK
6
CONTINUOUS
10
147.4506299999999896
20
-121.2715039999999931
11
147.6411059999999793
21
-120.9857899999999944
0
LINE
8
BLACK
6
CONTINUOUS
10
147.6411059999999793
20
-120.9857899999999944
11
147.7363440000000026
21
-120.7953139999999905
0
LINE
8
BLACK
6
CONTINUOUS
10
147.7363440000000026
20
-120.7953139999999905
11
147.8315819999999974
21
-120.5095999999999918
0
LINE
8
BLACK
6
CONTINUOUS
10
147.8315819999999974
20
-120.5095999999999918
11
147.9268199999999922
21
-120.0334089999999918
0
LINE
8
BLACK
6
CONTINUOUS
10
147.9268199999999922
20
-120.0334089999999918
11
147.9268199999999922
21
-119.6524569999999983
0
LINE
8
BLACK
6
CONTINUOUS
10
147.9268199999999922
20
-119.6524569999999983
11
147.8315819999999974
21
-119.1762659999999983
0
LINE
8
BLACK
6
CONTINUOUS
10
147.8315819999999974
20
-119.1762659999999983
11
147.7363440000000026
21
-118.8905519999999996
0
LINE
8
BLACK
6
CONTINUOUS
10
147.7363440000000026
20
-118.8905519999999996
11
147.6411059999999793
21
-118.7000759999999957
0
LINE
8
BLACK
6
CONTINUOUS
10
147.6411059999999793
20
-118.7000759999999957
11
147.4506299999999896
21
-118.4143609999999995
0
LINE
8
BLACK
6
CONTINUOUS
10
147.4506299999999896
20
-118.4143609999999995
11
147.3553919999999948
21
-118.3191229999999905
  0
ENDSEC
  0
EOF
