G04 #@! TF.GenerationSoftware,KiCad,Pcbnew,(5.1.5-0-10_14)*
G04 #@! TF.CreationDate,2021-11-28T08:49:08+10:00*
G04 #@! TF.ProjectId,OH - UIP - Input Distribution,4f48202d-2055-4495-9020-2d20496e7075,rev?*
G04 #@! TF.SameCoordinates,Original*
G04 #@! TF.FileFunction,Copper,L1,Top*
G04 #@! TF.FilePolarity,Positive*
%FSLAX46Y46*%
G04 Gerber Fmt 4.6, Leading zero omitted, Abs format (unit mm)*
G04 Created by KiCad (PCBNEW (5.1.5-0-10_14)) date 2021-11-28 08:49:08*
%MOMM*%
%LPD*%
G04 APERTURE LIST*
%ADD10O,2.200000X1.740000*%
%ADD11C,0.100000*%
%ADD12O,1.740000X2.200000*%
%ADD13O,1.600000X1.600000*%
%ADD14R,1.600000X1.600000*%
%ADD15O,1.727200X1.727200*%
%ADD16R,1.727200X1.727200*%
%ADD17O,1.700000X1.700000*%
%ADD18R,1.700000X1.700000*%
%ADD19C,0.800000*%
%ADD20C,0.250000*%
G04 APERTURE END LIST*
D10*
X134810000Y-113009000D03*
X134810000Y-110469000D03*
G04 #@! TA.AperFunction,ComponentPad*
D11*
G36*
X135684505Y-107060204D02*
G01*
X135708773Y-107063804D01*
X135732572Y-107069765D01*
X135755671Y-107078030D01*
X135777850Y-107088520D01*
X135798893Y-107101132D01*
X135818599Y-107115747D01*
X135836777Y-107132223D01*
X135853253Y-107150401D01*
X135867868Y-107170107D01*
X135880480Y-107191150D01*
X135890970Y-107213329D01*
X135899235Y-107236428D01*
X135905196Y-107260227D01*
X135908796Y-107284495D01*
X135910000Y-107308999D01*
X135910000Y-108549001D01*
X135908796Y-108573505D01*
X135905196Y-108597773D01*
X135899235Y-108621572D01*
X135890970Y-108644671D01*
X135880480Y-108666850D01*
X135867868Y-108687893D01*
X135853253Y-108707599D01*
X135836777Y-108725777D01*
X135818599Y-108742253D01*
X135798893Y-108756868D01*
X135777850Y-108769480D01*
X135755671Y-108779970D01*
X135732572Y-108788235D01*
X135708773Y-108794196D01*
X135684505Y-108797796D01*
X135660001Y-108799000D01*
X133959999Y-108799000D01*
X133935495Y-108797796D01*
X133911227Y-108794196D01*
X133887428Y-108788235D01*
X133864329Y-108779970D01*
X133842150Y-108769480D01*
X133821107Y-108756868D01*
X133801401Y-108742253D01*
X133783223Y-108725777D01*
X133766747Y-108707599D01*
X133752132Y-108687893D01*
X133739520Y-108666850D01*
X133729030Y-108644671D01*
X133720765Y-108621572D01*
X133714804Y-108597773D01*
X133711204Y-108573505D01*
X133710000Y-108549001D01*
X133710000Y-107308999D01*
X133711204Y-107284495D01*
X133714804Y-107260227D01*
X133720765Y-107236428D01*
X133729030Y-107213329D01*
X133739520Y-107191150D01*
X133752132Y-107170107D01*
X133766747Y-107150401D01*
X133783223Y-107132223D01*
X133801401Y-107115747D01*
X133821107Y-107101132D01*
X133842150Y-107088520D01*
X133864329Y-107078030D01*
X133887428Y-107069765D01*
X133911227Y-107063804D01*
X133935495Y-107060204D01*
X133959999Y-107059000D01*
X135660001Y-107059000D01*
X135684505Y-107060204D01*
G37*
G04 #@! TD.AperFunction*
D10*
X134810000Y-103695500D03*
X134810000Y-101155500D03*
G04 #@! TA.AperFunction,ComponentPad*
D11*
G36*
X135684505Y-97746704D02*
G01*
X135708773Y-97750304D01*
X135732572Y-97756265D01*
X135755671Y-97764530D01*
X135777850Y-97775020D01*
X135798893Y-97787632D01*
X135818599Y-97802247D01*
X135836777Y-97818723D01*
X135853253Y-97836901D01*
X135867868Y-97856607D01*
X135880480Y-97877650D01*
X135890970Y-97899829D01*
X135899235Y-97922928D01*
X135905196Y-97946727D01*
X135908796Y-97970995D01*
X135910000Y-97995499D01*
X135910000Y-99235501D01*
X135908796Y-99260005D01*
X135905196Y-99284273D01*
X135899235Y-99308072D01*
X135890970Y-99331171D01*
X135880480Y-99353350D01*
X135867868Y-99374393D01*
X135853253Y-99394099D01*
X135836777Y-99412277D01*
X135818599Y-99428753D01*
X135798893Y-99443368D01*
X135777850Y-99455980D01*
X135755671Y-99466470D01*
X135732572Y-99474735D01*
X135708773Y-99480696D01*
X135684505Y-99484296D01*
X135660001Y-99485500D01*
X133959999Y-99485500D01*
X133935495Y-99484296D01*
X133911227Y-99480696D01*
X133887428Y-99474735D01*
X133864329Y-99466470D01*
X133842150Y-99455980D01*
X133821107Y-99443368D01*
X133801401Y-99428753D01*
X133783223Y-99412277D01*
X133766747Y-99394099D01*
X133752132Y-99374393D01*
X133739520Y-99353350D01*
X133729030Y-99331171D01*
X133720765Y-99308072D01*
X133714804Y-99284273D01*
X133711204Y-99260005D01*
X133710000Y-99235501D01*
X133710000Y-97995499D01*
X133711204Y-97970995D01*
X133714804Y-97946727D01*
X133720765Y-97922928D01*
X133729030Y-97899829D01*
X133739520Y-97877650D01*
X133752132Y-97856607D01*
X133766747Y-97836901D01*
X133783223Y-97818723D01*
X133801401Y-97802247D01*
X133821107Y-97787632D01*
X133842150Y-97775020D01*
X133864329Y-97764530D01*
X133887428Y-97756265D01*
X133911227Y-97750304D01*
X133935495Y-97746704D01*
X133959999Y-97745500D01*
X135660001Y-97745500D01*
X135684505Y-97746704D01*
G37*
G04 #@! TD.AperFunction*
D10*
X146939000Y-129476000D03*
X146939000Y-126936000D03*
X146939000Y-124396000D03*
X146939000Y-121856000D03*
X146939000Y-119316000D03*
G04 #@! TA.AperFunction,ComponentPad*
D11*
G36*
X147813505Y-115907204D02*
G01*
X147837773Y-115910804D01*
X147861572Y-115916765D01*
X147884671Y-115925030D01*
X147906850Y-115935520D01*
X147927893Y-115948132D01*
X147947599Y-115962747D01*
X147965777Y-115979223D01*
X147982253Y-115997401D01*
X147996868Y-116017107D01*
X148009480Y-116038150D01*
X148019970Y-116060329D01*
X148028235Y-116083428D01*
X148034196Y-116107227D01*
X148037796Y-116131495D01*
X148039000Y-116155999D01*
X148039000Y-117396001D01*
X148037796Y-117420505D01*
X148034196Y-117444773D01*
X148028235Y-117468572D01*
X148019970Y-117491671D01*
X148009480Y-117513850D01*
X147996868Y-117534893D01*
X147982253Y-117554599D01*
X147965777Y-117572777D01*
X147947599Y-117589253D01*
X147927893Y-117603868D01*
X147906850Y-117616480D01*
X147884671Y-117626970D01*
X147861572Y-117635235D01*
X147837773Y-117641196D01*
X147813505Y-117644796D01*
X147789001Y-117646000D01*
X146088999Y-117646000D01*
X146064495Y-117644796D01*
X146040227Y-117641196D01*
X146016428Y-117635235D01*
X145993329Y-117626970D01*
X145971150Y-117616480D01*
X145950107Y-117603868D01*
X145930401Y-117589253D01*
X145912223Y-117572777D01*
X145895747Y-117554599D01*
X145881132Y-117534893D01*
X145868520Y-117513850D01*
X145858030Y-117491671D01*
X145849765Y-117468572D01*
X145843804Y-117444773D01*
X145840204Y-117420505D01*
X145839000Y-117396001D01*
X145839000Y-116155999D01*
X145840204Y-116131495D01*
X145843804Y-116107227D01*
X145849765Y-116083428D01*
X145858030Y-116060329D01*
X145868520Y-116038150D01*
X145881132Y-116017107D01*
X145895747Y-115997401D01*
X145912223Y-115979223D01*
X145930401Y-115962747D01*
X145950107Y-115948132D01*
X145971150Y-115935520D01*
X145993329Y-115925030D01*
X146016428Y-115916765D01*
X146040227Y-115910804D01*
X146064495Y-115907204D01*
X146088999Y-115906000D01*
X147789001Y-115906000D01*
X147813505Y-115907204D01*
G37*
G04 #@! TD.AperFunction*
D12*
X219774000Y-131508000D03*
X217234000Y-131508000D03*
G04 #@! TA.AperFunction,ComponentPad*
D11*
G36*
X215338505Y-130409204D02*
G01*
X215362773Y-130412804D01*
X215386572Y-130418765D01*
X215409671Y-130427030D01*
X215431850Y-130437520D01*
X215452893Y-130450132D01*
X215472599Y-130464747D01*
X215490777Y-130481223D01*
X215507253Y-130499401D01*
X215521868Y-130519107D01*
X215534480Y-130540150D01*
X215544970Y-130562329D01*
X215553235Y-130585428D01*
X215559196Y-130609227D01*
X215562796Y-130633495D01*
X215564000Y-130657999D01*
X215564000Y-132358001D01*
X215562796Y-132382505D01*
X215559196Y-132406773D01*
X215553235Y-132430572D01*
X215544970Y-132453671D01*
X215534480Y-132475850D01*
X215521868Y-132496893D01*
X215507253Y-132516599D01*
X215490777Y-132534777D01*
X215472599Y-132551253D01*
X215452893Y-132565868D01*
X215431850Y-132578480D01*
X215409671Y-132588970D01*
X215386572Y-132597235D01*
X215362773Y-132603196D01*
X215338505Y-132606796D01*
X215314001Y-132608000D01*
X214073999Y-132608000D01*
X214049495Y-132606796D01*
X214025227Y-132603196D01*
X214001428Y-132597235D01*
X213978329Y-132588970D01*
X213956150Y-132578480D01*
X213935107Y-132565868D01*
X213915401Y-132551253D01*
X213897223Y-132534777D01*
X213880747Y-132516599D01*
X213866132Y-132496893D01*
X213853520Y-132475850D01*
X213843030Y-132453671D01*
X213834765Y-132430572D01*
X213828804Y-132406773D01*
X213825204Y-132382505D01*
X213824000Y-132358001D01*
X213824000Y-130657999D01*
X213825204Y-130633495D01*
X213828804Y-130609227D01*
X213834765Y-130585428D01*
X213843030Y-130562329D01*
X213853520Y-130540150D01*
X213866132Y-130519107D01*
X213880747Y-130499401D01*
X213897223Y-130481223D01*
X213915401Y-130464747D01*
X213935107Y-130450132D01*
X213956150Y-130437520D01*
X213978329Y-130427030D01*
X214001428Y-130418765D01*
X214025227Y-130412804D01*
X214049495Y-130409204D01*
X214073999Y-130408000D01*
X215314001Y-130408000D01*
X215338505Y-130409204D01*
G37*
G04 #@! TD.AperFunction*
D10*
X189611000Y-62293500D03*
X189611000Y-59753500D03*
G04 #@! TA.AperFunction,ComponentPad*
D11*
G36*
X190485505Y-56344704D02*
G01*
X190509773Y-56348304D01*
X190533572Y-56354265D01*
X190556671Y-56362530D01*
X190578850Y-56373020D01*
X190599893Y-56385632D01*
X190619599Y-56400247D01*
X190637777Y-56416723D01*
X190654253Y-56434901D01*
X190668868Y-56454607D01*
X190681480Y-56475650D01*
X190691970Y-56497829D01*
X190700235Y-56520928D01*
X190706196Y-56544727D01*
X190709796Y-56568995D01*
X190711000Y-56593499D01*
X190711000Y-57833501D01*
X190709796Y-57858005D01*
X190706196Y-57882273D01*
X190700235Y-57906072D01*
X190691970Y-57929171D01*
X190681480Y-57951350D01*
X190668868Y-57972393D01*
X190654253Y-57992099D01*
X190637777Y-58010277D01*
X190619599Y-58026753D01*
X190599893Y-58041368D01*
X190578850Y-58053980D01*
X190556671Y-58064470D01*
X190533572Y-58072735D01*
X190509773Y-58078696D01*
X190485505Y-58082296D01*
X190461001Y-58083500D01*
X188760999Y-58083500D01*
X188736495Y-58082296D01*
X188712227Y-58078696D01*
X188688428Y-58072735D01*
X188665329Y-58064470D01*
X188643150Y-58053980D01*
X188622107Y-58041368D01*
X188602401Y-58026753D01*
X188584223Y-58010277D01*
X188567747Y-57992099D01*
X188553132Y-57972393D01*
X188540520Y-57951350D01*
X188530030Y-57929171D01*
X188521765Y-57906072D01*
X188515804Y-57882273D01*
X188512204Y-57858005D01*
X188511000Y-57833501D01*
X188511000Y-56593499D01*
X188512204Y-56568995D01*
X188515804Y-56544727D01*
X188521765Y-56520928D01*
X188530030Y-56497829D01*
X188540520Y-56475650D01*
X188553132Y-56454607D01*
X188567747Y-56434901D01*
X188584223Y-56416723D01*
X188602401Y-56400247D01*
X188622107Y-56385632D01*
X188643150Y-56373020D01*
X188665329Y-56362530D01*
X188688428Y-56354265D01*
X188712227Y-56348304D01*
X188736495Y-56344704D01*
X188760999Y-56343500D01*
X190461001Y-56343500D01*
X190485505Y-56344704D01*
G37*
G04 #@! TD.AperFunction*
D12*
X209677000Y-132842000D03*
X207137000Y-132842000D03*
X204597000Y-132842000D03*
X202057000Y-132842000D03*
X199517000Y-132842000D03*
X196977000Y-132842000D03*
X194437000Y-132842000D03*
X191897000Y-132842000D03*
X189357000Y-132842000D03*
G04 #@! TA.AperFunction,ComponentPad*
D11*
G36*
X187461505Y-131743204D02*
G01*
X187485773Y-131746804D01*
X187509572Y-131752765D01*
X187532671Y-131761030D01*
X187554850Y-131771520D01*
X187575893Y-131784132D01*
X187595599Y-131798747D01*
X187613777Y-131815223D01*
X187630253Y-131833401D01*
X187644868Y-131853107D01*
X187657480Y-131874150D01*
X187667970Y-131896329D01*
X187676235Y-131919428D01*
X187682196Y-131943227D01*
X187685796Y-131967495D01*
X187687000Y-131991999D01*
X187687000Y-133692001D01*
X187685796Y-133716505D01*
X187682196Y-133740773D01*
X187676235Y-133764572D01*
X187667970Y-133787671D01*
X187657480Y-133809850D01*
X187644868Y-133830893D01*
X187630253Y-133850599D01*
X187613777Y-133868777D01*
X187595599Y-133885253D01*
X187575893Y-133899868D01*
X187554850Y-133912480D01*
X187532671Y-133922970D01*
X187509572Y-133931235D01*
X187485773Y-133937196D01*
X187461505Y-133940796D01*
X187437001Y-133942000D01*
X186196999Y-133942000D01*
X186172495Y-133940796D01*
X186148227Y-133937196D01*
X186124428Y-133931235D01*
X186101329Y-133922970D01*
X186079150Y-133912480D01*
X186058107Y-133899868D01*
X186038401Y-133885253D01*
X186020223Y-133868777D01*
X186003747Y-133850599D01*
X185989132Y-133830893D01*
X185976520Y-133809850D01*
X185966030Y-133787671D01*
X185957765Y-133764572D01*
X185951804Y-133740773D01*
X185948204Y-133716505D01*
X185947000Y-133692001D01*
X185947000Y-131991999D01*
X185948204Y-131967495D01*
X185951804Y-131943227D01*
X185957765Y-131919428D01*
X185966030Y-131896329D01*
X185976520Y-131874150D01*
X185989132Y-131853107D01*
X186003747Y-131833401D01*
X186020223Y-131815223D01*
X186038401Y-131798747D01*
X186058107Y-131784132D01*
X186079150Y-131771520D01*
X186101329Y-131761030D01*
X186124428Y-131752765D01*
X186148227Y-131746804D01*
X186172495Y-131743204D01*
X186196999Y-131742000D01*
X187437001Y-131742000D01*
X187461505Y-131743204D01*
G37*
G04 #@! TD.AperFunction*
D12*
X184722000Y-116586000D03*
X182182000Y-116586000D03*
X179642000Y-116586000D03*
G04 #@! TA.AperFunction,ComponentPad*
D11*
G36*
X177746505Y-115487204D02*
G01*
X177770773Y-115490804D01*
X177794572Y-115496765D01*
X177817671Y-115505030D01*
X177839850Y-115515520D01*
X177860893Y-115528132D01*
X177880599Y-115542747D01*
X177898777Y-115559223D01*
X177915253Y-115577401D01*
X177929868Y-115597107D01*
X177942480Y-115618150D01*
X177952970Y-115640329D01*
X177961235Y-115663428D01*
X177967196Y-115687227D01*
X177970796Y-115711495D01*
X177972000Y-115735999D01*
X177972000Y-117436001D01*
X177970796Y-117460505D01*
X177967196Y-117484773D01*
X177961235Y-117508572D01*
X177952970Y-117531671D01*
X177942480Y-117553850D01*
X177929868Y-117574893D01*
X177915253Y-117594599D01*
X177898777Y-117612777D01*
X177880599Y-117629253D01*
X177860893Y-117643868D01*
X177839850Y-117656480D01*
X177817671Y-117666970D01*
X177794572Y-117675235D01*
X177770773Y-117681196D01*
X177746505Y-117684796D01*
X177722001Y-117686000D01*
X176481999Y-117686000D01*
X176457495Y-117684796D01*
X176433227Y-117681196D01*
X176409428Y-117675235D01*
X176386329Y-117666970D01*
X176364150Y-117656480D01*
X176343107Y-117643868D01*
X176323401Y-117629253D01*
X176305223Y-117612777D01*
X176288747Y-117594599D01*
X176274132Y-117574893D01*
X176261520Y-117553850D01*
X176251030Y-117531671D01*
X176242765Y-117508572D01*
X176236804Y-117484773D01*
X176233204Y-117460505D01*
X176232000Y-117436001D01*
X176232000Y-115735999D01*
X176233204Y-115711495D01*
X176236804Y-115687227D01*
X176242765Y-115663428D01*
X176251030Y-115640329D01*
X176261520Y-115618150D01*
X176274132Y-115597107D01*
X176288747Y-115577401D01*
X176305223Y-115559223D01*
X176323401Y-115542747D01*
X176343107Y-115528132D01*
X176364150Y-115515520D01*
X176386329Y-115505030D01*
X176409428Y-115496765D01*
X176433227Y-115490804D01*
X176457495Y-115487204D01*
X176481999Y-115486000D01*
X177722001Y-115486000D01*
X177746505Y-115487204D01*
G37*
G04 #@! TD.AperFunction*
D10*
X189484000Y-52260500D03*
X189484000Y-49720500D03*
G04 #@! TA.AperFunction,ComponentPad*
D11*
G36*
X190358505Y-46311704D02*
G01*
X190382773Y-46315304D01*
X190406572Y-46321265D01*
X190429671Y-46329530D01*
X190451850Y-46340020D01*
X190472893Y-46352632D01*
X190492599Y-46367247D01*
X190510777Y-46383723D01*
X190527253Y-46401901D01*
X190541868Y-46421607D01*
X190554480Y-46442650D01*
X190564970Y-46464829D01*
X190573235Y-46487928D01*
X190579196Y-46511727D01*
X190582796Y-46535995D01*
X190584000Y-46560499D01*
X190584000Y-47800501D01*
X190582796Y-47825005D01*
X190579196Y-47849273D01*
X190573235Y-47873072D01*
X190564970Y-47896171D01*
X190554480Y-47918350D01*
X190541868Y-47939393D01*
X190527253Y-47959099D01*
X190510777Y-47977277D01*
X190492599Y-47993753D01*
X190472893Y-48008368D01*
X190451850Y-48020980D01*
X190429671Y-48031470D01*
X190406572Y-48039735D01*
X190382773Y-48045696D01*
X190358505Y-48049296D01*
X190334001Y-48050500D01*
X188633999Y-48050500D01*
X188609495Y-48049296D01*
X188585227Y-48045696D01*
X188561428Y-48039735D01*
X188538329Y-48031470D01*
X188516150Y-48020980D01*
X188495107Y-48008368D01*
X188475401Y-47993753D01*
X188457223Y-47977277D01*
X188440747Y-47959099D01*
X188426132Y-47939393D01*
X188413520Y-47918350D01*
X188403030Y-47896171D01*
X188394765Y-47873072D01*
X188388804Y-47849273D01*
X188385204Y-47825005D01*
X188384000Y-47800501D01*
X188384000Y-46560499D01*
X188385204Y-46535995D01*
X188388804Y-46511727D01*
X188394765Y-46487928D01*
X188403030Y-46464829D01*
X188413520Y-46442650D01*
X188426132Y-46421607D01*
X188440747Y-46401901D01*
X188457223Y-46383723D01*
X188475401Y-46367247D01*
X188495107Y-46352632D01*
X188516150Y-46340020D01*
X188538329Y-46329530D01*
X188561428Y-46321265D01*
X188585227Y-46315304D01*
X188609495Y-46311704D01*
X188633999Y-46310500D01*
X190334001Y-46310500D01*
X190358505Y-46311704D01*
G37*
G04 #@! TD.AperFunction*
D12*
X198120000Y-116586000D03*
X195580000Y-116586000D03*
X193040000Y-116586000D03*
G04 #@! TA.AperFunction,ComponentPad*
D11*
G36*
X191144505Y-115487204D02*
G01*
X191168773Y-115490804D01*
X191192572Y-115496765D01*
X191215671Y-115505030D01*
X191237850Y-115515520D01*
X191258893Y-115528132D01*
X191278599Y-115542747D01*
X191296777Y-115559223D01*
X191313253Y-115577401D01*
X191327868Y-115597107D01*
X191340480Y-115618150D01*
X191350970Y-115640329D01*
X191359235Y-115663428D01*
X191365196Y-115687227D01*
X191368796Y-115711495D01*
X191370000Y-115735999D01*
X191370000Y-117436001D01*
X191368796Y-117460505D01*
X191365196Y-117484773D01*
X191359235Y-117508572D01*
X191350970Y-117531671D01*
X191340480Y-117553850D01*
X191327868Y-117574893D01*
X191313253Y-117594599D01*
X191296777Y-117612777D01*
X191278599Y-117629253D01*
X191258893Y-117643868D01*
X191237850Y-117656480D01*
X191215671Y-117666970D01*
X191192572Y-117675235D01*
X191168773Y-117681196D01*
X191144505Y-117684796D01*
X191120001Y-117686000D01*
X189879999Y-117686000D01*
X189855495Y-117684796D01*
X189831227Y-117681196D01*
X189807428Y-117675235D01*
X189784329Y-117666970D01*
X189762150Y-117656480D01*
X189741107Y-117643868D01*
X189721401Y-117629253D01*
X189703223Y-117612777D01*
X189686747Y-117594599D01*
X189672132Y-117574893D01*
X189659520Y-117553850D01*
X189649030Y-117531671D01*
X189640765Y-117508572D01*
X189634804Y-117484773D01*
X189631204Y-117460505D01*
X189630000Y-117436001D01*
X189630000Y-115735999D01*
X189631204Y-115711495D01*
X189634804Y-115687227D01*
X189640765Y-115663428D01*
X189649030Y-115640329D01*
X189659520Y-115618150D01*
X189672132Y-115597107D01*
X189686747Y-115577401D01*
X189703223Y-115559223D01*
X189721401Y-115542747D01*
X189741107Y-115528132D01*
X189762150Y-115515520D01*
X189784329Y-115505030D01*
X189807428Y-115496765D01*
X189831227Y-115490804D01*
X189855495Y-115487204D01*
X189879999Y-115486000D01*
X191120001Y-115486000D01*
X191144505Y-115487204D01*
G37*
G04 #@! TD.AperFunction*
D13*
X193484000Y-42291000D03*
D14*
X185864000Y-42291000D03*
D13*
X193612000Y-38735000D03*
D14*
X185992000Y-38735000D03*
D10*
X189420000Y-81915000D03*
X189420000Y-79375000D03*
X189420000Y-76835000D03*
X189420000Y-74295000D03*
X189420000Y-71755000D03*
G04 #@! TA.AperFunction,ComponentPad*
D11*
G36*
X190294505Y-68346204D02*
G01*
X190318773Y-68349804D01*
X190342572Y-68355765D01*
X190365671Y-68364030D01*
X190387850Y-68374520D01*
X190408893Y-68387132D01*
X190428599Y-68401747D01*
X190446777Y-68418223D01*
X190463253Y-68436401D01*
X190477868Y-68456107D01*
X190490480Y-68477150D01*
X190500970Y-68499329D01*
X190509235Y-68522428D01*
X190515196Y-68546227D01*
X190518796Y-68570495D01*
X190520000Y-68594999D01*
X190520000Y-69835001D01*
X190518796Y-69859505D01*
X190515196Y-69883773D01*
X190509235Y-69907572D01*
X190500970Y-69930671D01*
X190490480Y-69952850D01*
X190477868Y-69973893D01*
X190463253Y-69993599D01*
X190446777Y-70011777D01*
X190428599Y-70028253D01*
X190408893Y-70042868D01*
X190387850Y-70055480D01*
X190365671Y-70065970D01*
X190342572Y-70074235D01*
X190318773Y-70080196D01*
X190294505Y-70083796D01*
X190270001Y-70085000D01*
X188569999Y-70085000D01*
X188545495Y-70083796D01*
X188521227Y-70080196D01*
X188497428Y-70074235D01*
X188474329Y-70065970D01*
X188452150Y-70055480D01*
X188431107Y-70042868D01*
X188411401Y-70028253D01*
X188393223Y-70011777D01*
X188376747Y-69993599D01*
X188362132Y-69973893D01*
X188349520Y-69952850D01*
X188339030Y-69930671D01*
X188330765Y-69907572D01*
X188324804Y-69883773D01*
X188321204Y-69859505D01*
X188320000Y-69835001D01*
X188320000Y-68594999D01*
X188321204Y-68570495D01*
X188324804Y-68546227D01*
X188330765Y-68522428D01*
X188339030Y-68499329D01*
X188349520Y-68477150D01*
X188362132Y-68456107D01*
X188376747Y-68436401D01*
X188393223Y-68418223D01*
X188411401Y-68401747D01*
X188431107Y-68387132D01*
X188452150Y-68374520D01*
X188474329Y-68364030D01*
X188497428Y-68355765D01*
X188521227Y-68349804D01*
X188545495Y-68346204D01*
X188569999Y-68345000D01*
X190270001Y-68345000D01*
X190294505Y-68346204D01*
G37*
G04 #@! TD.AperFunction*
D10*
X212026000Y-51752500D03*
X212026000Y-49212500D03*
X212026000Y-46672500D03*
X212026000Y-44132500D03*
X212026000Y-41592500D03*
G04 #@! TA.AperFunction,ComponentPad*
D11*
G36*
X212900505Y-38183704D02*
G01*
X212924773Y-38187304D01*
X212948572Y-38193265D01*
X212971671Y-38201530D01*
X212993850Y-38212020D01*
X213014893Y-38224632D01*
X213034599Y-38239247D01*
X213052777Y-38255723D01*
X213069253Y-38273901D01*
X213083868Y-38293607D01*
X213096480Y-38314650D01*
X213106970Y-38336829D01*
X213115235Y-38359928D01*
X213121196Y-38383727D01*
X213124796Y-38407995D01*
X213126000Y-38432499D01*
X213126000Y-39672501D01*
X213124796Y-39697005D01*
X213121196Y-39721273D01*
X213115235Y-39745072D01*
X213106970Y-39768171D01*
X213096480Y-39790350D01*
X213083868Y-39811393D01*
X213069253Y-39831099D01*
X213052777Y-39849277D01*
X213034599Y-39865753D01*
X213014893Y-39880368D01*
X212993850Y-39892980D01*
X212971671Y-39903470D01*
X212948572Y-39911735D01*
X212924773Y-39917696D01*
X212900505Y-39921296D01*
X212876001Y-39922500D01*
X211175999Y-39922500D01*
X211151495Y-39921296D01*
X211127227Y-39917696D01*
X211103428Y-39911735D01*
X211080329Y-39903470D01*
X211058150Y-39892980D01*
X211037107Y-39880368D01*
X211017401Y-39865753D01*
X210999223Y-39849277D01*
X210982747Y-39831099D01*
X210968132Y-39811393D01*
X210955520Y-39790350D01*
X210945030Y-39768171D01*
X210936765Y-39745072D01*
X210930804Y-39721273D01*
X210927204Y-39697005D01*
X210926000Y-39672501D01*
X210926000Y-38432499D01*
X210927204Y-38407995D01*
X210930804Y-38383727D01*
X210936765Y-38359928D01*
X210945030Y-38336829D01*
X210955520Y-38314650D01*
X210968132Y-38293607D01*
X210982747Y-38273901D01*
X210999223Y-38255723D01*
X211017401Y-38239247D01*
X211037107Y-38224632D01*
X211058150Y-38212020D01*
X211080329Y-38201530D01*
X211103428Y-38193265D01*
X211127227Y-38187304D01*
X211151495Y-38183704D01*
X211175999Y-38182500D01*
X212876001Y-38182500D01*
X212900505Y-38183704D01*
G37*
G04 #@! TD.AperFunction*
D10*
X212090000Y-68262500D03*
X212090000Y-65722500D03*
X212090000Y-63182500D03*
X212090000Y-60642500D03*
X212090000Y-58102500D03*
G04 #@! TA.AperFunction,ComponentPad*
D11*
G36*
X212964505Y-54693704D02*
G01*
X212988773Y-54697304D01*
X213012572Y-54703265D01*
X213035671Y-54711530D01*
X213057850Y-54722020D01*
X213078893Y-54734632D01*
X213098599Y-54749247D01*
X213116777Y-54765723D01*
X213133253Y-54783901D01*
X213147868Y-54803607D01*
X213160480Y-54824650D01*
X213170970Y-54846829D01*
X213179235Y-54869928D01*
X213185196Y-54893727D01*
X213188796Y-54917995D01*
X213190000Y-54942499D01*
X213190000Y-56182501D01*
X213188796Y-56207005D01*
X213185196Y-56231273D01*
X213179235Y-56255072D01*
X213170970Y-56278171D01*
X213160480Y-56300350D01*
X213147868Y-56321393D01*
X213133253Y-56341099D01*
X213116777Y-56359277D01*
X213098599Y-56375753D01*
X213078893Y-56390368D01*
X213057850Y-56402980D01*
X213035671Y-56413470D01*
X213012572Y-56421735D01*
X212988773Y-56427696D01*
X212964505Y-56431296D01*
X212940001Y-56432500D01*
X211239999Y-56432500D01*
X211215495Y-56431296D01*
X211191227Y-56427696D01*
X211167428Y-56421735D01*
X211144329Y-56413470D01*
X211122150Y-56402980D01*
X211101107Y-56390368D01*
X211081401Y-56375753D01*
X211063223Y-56359277D01*
X211046747Y-56341099D01*
X211032132Y-56321393D01*
X211019520Y-56300350D01*
X211009030Y-56278171D01*
X211000765Y-56255072D01*
X210994804Y-56231273D01*
X210991204Y-56207005D01*
X210990000Y-56182501D01*
X210990000Y-54942499D01*
X210991204Y-54917995D01*
X210994804Y-54893727D01*
X211000765Y-54869928D01*
X211009030Y-54846829D01*
X211019520Y-54824650D01*
X211032132Y-54803607D01*
X211046747Y-54783901D01*
X211063223Y-54765723D01*
X211081401Y-54749247D01*
X211101107Y-54734632D01*
X211122150Y-54722020D01*
X211144329Y-54711530D01*
X211167428Y-54703265D01*
X211191227Y-54697304D01*
X211215495Y-54693704D01*
X211239999Y-54692500D01*
X212940001Y-54692500D01*
X212964505Y-54693704D01*
G37*
G04 #@! TD.AperFunction*
D10*
X215836000Y-95250000D03*
X215836000Y-92710000D03*
X215836000Y-90170000D03*
X215836000Y-87630000D03*
X215836000Y-85090000D03*
X215836000Y-82550000D03*
X215836000Y-80010000D03*
X215836000Y-77470000D03*
X215836000Y-74930000D03*
G04 #@! TA.AperFunction,ComponentPad*
D11*
G36*
X216710505Y-71521204D02*
G01*
X216734773Y-71524804D01*
X216758572Y-71530765D01*
X216781671Y-71539030D01*
X216803850Y-71549520D01*
X216824893Y-71562132D01*
X216844599Y-71576747D01*
X216862777Y-71593223D01*
X216879253Y-71611401D01*
X216893868Y-71631107D01*
X216906480Y-71652150D01*
X216916970Y-71674329D01*
X216925235Y-71697428D01*
X216931196Y-71721227D01*
X216934796Y-71745495D01*
X216936000Y-71769999D01*
X216936000Y-73010001D01*
X216934796Y-73034505D01*
X216931196Y-73058773D01*
X216925235Y-73082572D01*
X216916970Y-73105671D01*
X216906480Y-73127850D01*
X216893868Y-73148893D01*
X216879253Y-73168599D01*
X216862777Y-73186777D01*
X216844599Y-73203253D01*
X216824893Y-73217868D01*
X216803850Y-73230480D01*
X216781671Y-73240970D01*
X216758572Y-73249235D01*
X216734773Y-73255196D01*
X216710505Y-73258796D01*
X216686001Y-73260000D01*
X214985999Y-73260000D01*
X214961495Y-73258796D01*
X214937227Y-73255196D01*
X214913428Y-73249235D01*
X214890329Y-73240970D01*
X214868150Y-73230480D01*
X214847107Y-73217868D01*
X214827401Y-73203253D01*
X214809223Y-73186777D01*
X214792747Y-73168599D01*
X214778132Y-73148893D01*
X214765520Y-73127850D01*
X214755030Y-73105671D01*
X214746765Y-73082572D01*
X214740804Y-73058773D01*
X214737204Y-73034505D01*
X214736000Y-73010001D01*
X214736000Y-71769999D01*
X214737204Y-71745495D01*
X214740804Y-71721227D01*
X214746765Y-71697428D01*
X214755030Y-71674329D01*
X214765520Y-71652150D01*
X214778132Y-71631107D01*
X214792747Y-71611401D01*
X214809223Y-71593223D01*
X214827401Y-71576747D01*
X214847107Y-71562132D01*
X214868150Y-71549520D01*
X214890329Y-71539030D01*
X214913428Y-71530765D01*
X214937227Y-71524804D01*
X214961495Y-71521204D01*
X214985999Y-71520000D01*
X216686001Y-71520000D01*
X216710505Y-71521204D01*
G37*
G04 #@! TD.AperFunction*
D13*
X193358000Y-85344000D03*
D14*
X185738000Y-85344000D03*
D13*
X193548000Y-88455500D03*
D14*
X185928000Y-88455500D03*
D12*
X226250000Y-111760000D03*
X223710000Y-111760000D03*
X221170000Y-111760000D03*
G04 #@! TA.AperFunction,ComponentPad*
D11*
G36*
X219274505Y-110661204D02*
G01*
X219298773Y-110664804D01*
X219322572Y-110670765D01*
X219345671Y-110679030D01*
X219367850Y-110689520D01*
X219388893Y-110702132D01*
X219408599Y-110716747D01*
X219426777Y-110733223D01*
X219443253Y-110751401D01*
X219457868Y-110771107D01*
X219470480Y-110792150D01*
X219480970Y-110814329D01*
X219489235Y-110837428D01*
X219495196Y-110861227D01*
X219498796Y-110885495D01*
X219500000Y-110909999D01*
X219500000Y-112610001D01*
X219498796Y-112634505D01*
X219495196Y-112658773D01*
X219489235Y-112682572D01*
X219480970Y-112705671D01*
X219470480Y-112727850D01*
X219457868Y-112748893D01*
X219443253Y-112768599D01*
X219426777Y-112786777D01*
X219408599Y-112803253D01*
X219388893Y-112817868D01*
X219367850Y-112830480D01*
X219345671Y-112840970D01*
X219322572Y-112849235D01*
X219298773Y-112855196D01*
X219274505Y-112858796D01*
X219250001Y-112860000D01*
X218009999Y-112860000D01*
X217985495Y-112858796D01*
X217961227Y-112855196D01*
X217937428Y-112849235D01*
X217914329Y-112840970D01*
X217892150Y-112830480D01*
X217871107Y-112817868D01*
X217851401Y-112803253D01*
X217833223Y-112786777D01*
X217816747Y-112768599D01*
X217802132Y-112748893D01*
X217789520Y-112727850D01*
X217779030Y-112705671D01*
X217770765Y-112682572D01*
X217764804Y-112658773D01*
X217761204Y-112634505D01*
X217760000Y-112610001D01*
X217760000Y-110909999D01*
X217761204Y-110885495D01*
X217764804Y-110861227D01*
X217770765Y-110837428D01*
X217779030Y-110814329D01*
X217789520Y-110792150D01*
X217802132Y-110771107D01*
X217816747Y-110751401D01*
X217833223Y-110733223D01*
X217851401Y-110716747D01*
X217871107Y-110702132D01*
X217892150Y-110689520D01*
X217914329Y-110679030D01*
X217937428Y-110670765D01*
X217961227Y-110664804D01*
X217985495Y-110661204D01*
X218009999Y-110660000D01*
X219250001Y-110660000D01*
X219274505Y-110661204D01*
G37*
G04 #@! TD.AperFunction*
D12*
X187896000Y-100520000D03*
X185356000Y-100520000D03*
X182816000Y-100520000D03*
X180276000Y-100520000D03*
X177736000Y-100520000D03*
G04 #@! TA.AperFunction,ComponentPad*
D11*
G36*
X175840505Y-99421204D02*
G01*
X175864773Y-99424804D01*
X175888572Y-99430765D01*
X175911671Y-99439030D01*
X175933850Y-99449520D01*
X175954893Y-99462132D01*
X175974599Y-99476747D01*
X175992777Y-99493223D01*
X176009253Y-99511401D01*
X176023868Y-99531107D01*
X176036480Y-99552150D01*
X176046970Y-99574329D01*
X176055235Y-99597428D01*
X176061196Y-99621227D01*
X176064796Y-99645495D01*
X176066000Y-99669999D01*
X176066000Y-101370001D01*
X176064796Y-101394505D01*
X176061196Y-101418773D01*
X176055235Y-101442572D01*
X176046970Y-101465671D01*
X176036480Y-101487850D01*
X176023868Y-101508893D01*
X176009253Y-101528599D01*
X175992777Y-101546777D01*
X175974599Y-101563253D01*
X175954893Y-101577868D01*
X175933850Y-101590480D01*
X175911671Y-101600970D01*
X175888572Y-101609235D01*
X175864773Y-101615196D01*
X175840505Y-101618796D01*
X175816001Y-101620000D01*
X174575999Y-101620000D01*
X174551495Y-101618796D01*
X174527227Y-101615196D01*
X174503428Y-101609235D01*
X174480329Y-101600970D01*
X174458150Y-101590480D01*
X174437107Y-101577868D01*
X174417401Y-101563253D01*
X174399223Y-101546777D01*
X174382747Y-101528599D01*
X174368132Y-101508893D01*
X174355520Y-101487850D01*
X174345030Y-101465671D01*
X174336765Y-101442572D01*
X174330804Y-101418773D01*
X174327204Y-101394505D01*
X174326000Y-101370001D01*
X174326000Y-99669999D01*
X174327204Y-99645495D01*
X174330804Y-99621227D01*
X174336765Y-99597428D01*
X174345030Y-99574329D01*
X174355520Y-99552150D01*
X174368132Y-99531107D01*
X174382747Y-99511401D01*
X174399223Y-99493223D01*
X174417401Y-99476747D01*
X174437107Y-99462132D01*
X174458150Y-99449520D01*
X174480329Y-99439030D01*
X174503428Y-99430765D01*
X174527227Y-99424804D01*
X174551495Y-99421204D01*
X174575999Y-99420000D01*
X175816001Y-99420000D01*
X175840505Y-99421204D01*
G37*
G04 #@! TD.AperFunction*
D12*
X224282000Y-122809000D03*
X221742000Y-122809000D03*
G04 #@! TA.AperFunction,ComponentPad*
D11*
G36*
X219846505Y-121710204D02*
G01*
X219870773Y-121713804D01*
X219894572Y-121719765D01*
X219917671Y-121728030D01*
X219939850Y-121738520D01*
X219960893Y-121751132D01*
X219980599Y-121765747D01*
X219998777Y-121782223D01*
X220015253Y-121800401D01*
X220029868Y-121820107D01*
X220042480Y-121841150D01*
X220052970Y-121863329D01*
X220061235Y-121886428D01*
X220067196Y-121910227D01*
X220070796Y-121934495D01*
X220072000Y-121958999D01*
X220072000Y-123659001D01*
X220070796Y-123683505D01*
X220067196Y-123707773D01*
X220061235Y-123731572D01*
X220052970Y-123754671D01*
X220042480Y-123776850D01*
X220029868Y-123797893D01*
X220015253Y-123817599D01*
X219998777Y-123835777D01*
X219980599Y-123852253D01*
X219960893Y-123866868D01*
X219939850Y-123879480D01*
X219917671Y-123889970D01*
X219894572Y-123898235D01*
X219870773Y-123904196D01*
X219846505Y-123907796D01*
X219822001Y-123909000D01*
X218581999Y-123909000D01*
X218557495Y-123907796D01*
X218533227Y-123904196D01*
X218509428Y-123898235D01*
X218486329Y-123889970D01*
X218464150Y-123879480D01*
X218443107Y-123866868D01*
X218423401Y-123852253D01*
X218405223Y-123835777D01*
X218388747Y-123817599D01*
X218374132Y-123797893D01*
X218361520Y-123776850D01*
X218351030Y-123754671D01*
X218342765Y-123731572D01*
X218336804Y-123707773D01*
X218333204Y-123683505D01*
X218332000Y-123659001D01*
X218332000Y-121958999D01*
X218333204Y-121934495D01*
X218336804Y-121910227D01*
X218342765Y-121886428D01*
X218351030Y-121863329D01*
X218361520Y-121841150D01*
X218374132Y-121820107D01*
X218388747Y-121800401D01*
X218405223Y-121782223D01*
X218423401Y-121765747D01*
X218443107Y-121751132D01*
X218464150Y-121738520D01*
X218486329Y-121728030D01*
X218509428Y-121719765D01*
X218533227Y-121713804D01*
X218557495Y-121710204D01*
X218581999Y-121709000D01*
X219822001Y-121709000D01*
X219846505Y-121710204D01*
G37*
G04 #@! TD.AperFunction*
D12*
X182308000Y-124396000D03*
X179768000Y-124396000D03*
G04 #@! TA.AperFunction,ComponentPad*
D11*
G36*
X177872505Y-123297204D02*
G01*
X177896773Y-123300804D01*
X177920572Y-123306765D01*
X177943671Y-123315030D01*
X177965850Y-123325520D01*
X177986893Y-123338132D01*
X178006599Y-123352747D01*
X178024777Y-123369223D01*
X178041253Y-123387401D01*
X178055868Y-123407107D01*
X178068480Y-123428150D01*
X178078970Y-123450329D01*
X178087235Y-123473428D01*
X178093196Y-123497227D01*
X178096796Y-123521495D01*
X178098000Y-123545999D01*
X178098000Y-125246001D01*
X178096796Y-125270505D01*
X178093196Y-125294773D01*
X178087235Y-125318572D01*
X178078970Y-125341671D01*
X178068480Y-125363850D01*
X178055868Y-125384893D01*
X178041253Y-125404599D01*
X178024777Y-125422777D01*
X178006599Y-125439253D01*
X177986893Y-125453868D01*
X177965850Y-125466480D01*
X177943671Y-125476970D01*
X177920572Y-125485235D01*
X177896773Y-125491196D01*
X177872505Y-125494796D01*
X177848001Y-125496000D01*
X176607999Y-125496000D01*
X176583495Y-125494796D01*
X176559227Y-125491196D01*
X176535428Y-125485235D01*
X176512329Y-125476970D01*
X176490150Y-125466480D01*
X176469107Y-125453868D01*
X176449401Y-125439253D01*
X176431223Y-125422777D01*
X176414747Y-125404599D01*
X176400132Y-125384893D01*
X176387520Y-125363850D01*
X176377030Y-125341671D01*
X176368765Y-125318572D01*
X176362804Y-125294773D01*
X176359204Y-125270505D01*
X176358000Y-125246001D01*
X176358000Y-123545999D01*
X176359204Y-123521495D01*
X176362804Y-123497227D01*
X176368765Y-123473428D01*
X176377030Y-123450329D01*
X176387520Y-123428150D01*
X176400132Y-123407107D01*
X176414747Y-123387401D01*
X176431223Y-123369223D01*
X176449401Y-123352747D01*
X176469107Y-123338132D01*
X176490150Y-123325520D01*
X176512329Y-123315030D01*
X176535428Y-123306765D01*
X176559227Y-123300804D01*
X176583495Y-123297204D01*
X176607999Y-123296000D01*
X177848001Y-123296000D01*
X177872505Y-123297204D01*
G37*
G04 #@! TD.AperFunction*
D12*
X209804000Y-116522000D03*
X207264000Y-116522000D03*
G04 #@! TA.AperFunction,ComponentPad*
D11*
G36*
X205368505Y-115423204D02*
G01*
X205392773Y-115426804D01*
X205416572Y-115432765D01*
X205439671Y-115441030D01*
X205461850Y-115451520D01*
X205482893Y-115464132D01*
X205502599Y-115478747D01*
X205520777Y-115495223D01*
X205537253Y-115513401D01*
X205551868Y-115533107D01*
X205564480Y-115554150D01*
X205574970Y-115576329D01*
X205583235Y-115599428D01*
X205589196Y-115623227D01*
X205592796Y-115647495D01*
X205594000Y-115671999D01*
X205594000Y-117372001D01*
X205592796Y-117396505D01*
X205589196Y-117420773D01*
X205583235Y-117444572D01*
X205574970Y-117467671D01*
X205564480Y-117489850D01*
X205551868Y-117510893D01*
X205537253Y-117530599D01*
X205520777Y-117548777D01*
X205502599Y-117565253D01*
X205482893Y-117579868D01*
X205461850Y-117592480D01*
X205439671Y-117602970D01*
X205416572Y-117611235D01*
X205392773Y-117617196D01*
X205368505Y-117620796D01*
X205344001Y-117622000D01*
X204103999Y-117622000D01*
X204079495Y-117620796D01*
X204055227Y-117617196D01*
X204031428Y-117611235D01*
X204008329Y-117602970D01*
X203986150Y-117592480D01*
X203965107Y-117579868D01*
X203945401Y-117565253D01*
X203927223Y-117548777D01*
X203910747Y-117530599D01*
X203896132Y-117510893D01*
X203883520Y-117489850D01*
X203873030Y-117467671D01*
X203864765Y-117444572D01*
X203858804Y-117420773D01*
X203855204Y-117396505D01*
X203854000Y-117372001D01*
X203854000Y-115671999D01*
X203855204Y-115647495D01*
X203858804Y-115623227D01*
X203864765Y-115599428D01*
X203873030Y-115576329D01*
X203883520Y-115554150D01*
X203896132Y-115533107D01*
X203910747Y-115513401D01*
X203927223Y-115495223D01*
X203945401Y-115478747D01*
X203965107Y-115464132D01*
X203986150Y-115451520D01*
X204008329Y-115441030D01*
X204031428Y-115432765D01*
X204055227Y-115426804D01*
X204079495Y-115423204D01*
X204103999Y-115422000D01*
X205344001Y-115422000D01*
X205368505Y-115423204D01*
G37*
G04 #@! TD.AperFunction*
D10*
X134810000Y-119782000D03*
G04 #@! TA.AperFunction,ComponentPad*
D11*
G36*
X135684505Y-116373204D02*
G01*
X135708773Y-116376804D01*
X135732572Y-116382765D01*
X135755671Y-116391030D01*
X135777850Y-116401520D01*
X135798893Y-116414132D01*
X135818599Y-116428747D01*
X135836777Y-116445223D01*
X135853253Y-116463401D01*
X135867868Y-116483107D01*
X135880480Y-116504150D01*
X135890970Y-116526329D01*
X135899235Y-116549428D01*
X135905196Y-116573227D01*
X135908796Y-116597495D01*
X135910000Y-116621999D01*
X135910000Y-117862001D01*
X135908796Y-117886505D01*
X135905196Y-117910773D01*
X135899235Y-117934572D01*
X135890970Y-117957671D01*
X135880480Y-117979850D01*
X135867868Y-118000893D01*
X135853253Y-118020599D01*
X135836777Y-118038777D01*
X135818599Y-118055253D01*
X135798893Y-118069868D01*
X135777850Y-118082480D01*
X135755671Y-118092970D01*
X135732572Y-118101235D01*
X135708773Y-118107196D01*
X135684505Y-118110796D01*
X135660001Y-118112000D01*
X133959999Y-118112000D01*
X133935495Y-118110796D01*
X133911227Y-118107196D01*
X133887428Y-118101235D01*
X133864329Y-118092970D01*
X133842150Y-118082480D01*
X133821107Y-118069868D01*
X133801401Y-118055253D01*
X133783223Y-118038777D01*
X133766747Y-118020599D01*
X133752132Y-118000893D01*
X133739520Y-117979850D01*
X133729030Y-117957671D01*
X133720765Y-117934572D01*
X133714804Y-117910773D01*
X133711204Y-117886505D01*
X133710000Y-117862001D01*
X133710000Y-116621999D01*
X133711204Y-116597495D01*
X133714804Y-116573227D01*
X133720765Y-116549428D01*
X133729030Y-116526329D01*
X133739520Y-116504150D01*
X133752132Y-116483107D01*
X133766747Y-116463401D01*
X133783223Y-116445223D01*
X133801401Y-116428747D01*
X133821107Y-116414132D01*
X133842150Y-116401520D01*
X133864329Y-116391030D01*
X133887428Y-116382765D01*
X133911227Y-116376804D01*
X133935495Y-116373204D01*
X133959999Y-116372000D01*
X135660001Y-116372000D01*
X135684505Y-116373204D01*
G37*
G04 #@! TD.AperFunction*
D10*
X134810000Y-126555000D03*
G04 #@! TA.AperFunction,ComponentPad*
D11*
G36*
X135684505Y-123146204D02*
G01*
X135708773Y-123149804D01*
X135732572Y-123155765D01*
X135755671Y-123164030D01*
X135777850Y-123174520D01*
X135798893Y-123187132D01*
X135818599Y-123201747D01*
X135836777Y-123218223D01*
X135853253Y-123236401D01*
X135867868Y-123256107D01*
X135880480Y-123277150D01*
X135890970Y-123299329D01*
X135899235Y-123322428D01*
X135905196Y-123346227D01*
X135908796Y-123370495D01*
X135910000Y-123394999D01*
X135910000Y-124635001D01*
X135908796Y-124659505D01*
X135905196Y-124683773D01*
X135899235Y-124707572D01*
X135890970Y-124730671D01*
X135880480Y-124752850D01*
X135867868Y-124773893D01*
X135853253Y-124793599D01*
X135836777Y-124811777D01*
X135818599Y-124828253D01*
X135798893Y-124842868D01*
X135777850Y-124855480D01*
X135755671Y-124865970D01*
X135732572Y-124874235D01*
X135708773Y-124880196D01*
X135684505Y-124883796D01*
X135660001Y-124885000D01*
X133959999Y-124885000D01*
X133935495Y-124883796D01*
X133911227Y-124880196D01*
X133887428Y-124874235D01*
X133864329Y-124865970D01*
X133842150Y-124855480D01*
X133821107Y-124842868D01*
X133801401Y-124828253D01*
X133783223Y-124811777D01*
X133766747Y-124793599D01*
X133752132Y-124773893D01*
X133739520Y-124752850D01*
X133729030Y-124730671D01*
X133720765Y-124707572D01*
X133714804Y-124683773D01*
X133711204Y-124659505D01*
X133710000Y-124635001D01*
X133710000Y-123394999D01*
X133711204Y-123370495D01*
X133714804Y-123346227D01*
X133720765Y-123322428D01*
X133729030Y-123299329D01*
X133739520Y-123277150D01*
X133752132Y-123256107D01*
X133766747Y-123236401D01*
X133783223Y-123218223D01*
X133801401Y-123201747D01*
X133821107Y-123187132D01*
X133842150Y-123174520D01*
X133864329Y-123164030D01*
X133887428Y-123155765D01*
X133911227Y-123149804D01*
X133935495Y-123146204D01*
X133959999Y-123145000D01*
X135660001Y-123145000D01*
X135684505Y-123146204D01*
G37*
G04 #@! TD.AperFunction*
D10*
X167259000Y-119634000D03*
G04 #@! TA.AperFunction,ComponentPad*
D11*
G36*
X168133505Y-116225204D02*
G01*
X168157773Y-116228804D01*
X168181572Y-116234765D01*
X168204671Y-116243030D01*
X168226850Y-116253520D01*
X168247893Y-116266132D01*
X168267599Y-116280747D01*
X168285777Y-116297223D01*
X168302253Y-116315401D01*
X168316868Y-116335107D01*
X168329480Y-116356150D01*
X168339970Y-116378329D01*
X168348235Y-116401428D01*
X168354196Y-116425227D01*
X168357796Y-116449495D01*
X168359000Y-116473999D01*
X168359000Y-117714001D01*
X168357796Y-117738505D01*
X168354196Y-117762773D01*
X168348235Y-117786572D01*
X168339970Y-117809671D01*
X168329480Y-117831850D01*
X168316868Y-117852893D01*
X168302253Y-117872599D01*
X168285777Y-117890777D01*
X168267599Y-117907253D01*
X168247893Y-117921868D01*
X168226850Y-117934480D01*
X168204671Y-117944970D01*
X168181572Y-117953235D01*
X168157773Y-117959196D01*
X168133505Y-117962796D01*
X168109001Y-117964000D01*
X166408999Y-117964000D01*
X166384495Y-117962796D01*
X166360227Y-117959196D01*
X166336428Y-117953235D01*
X166313329Y-117944970D01*
X166291150Y-117934480D01*
X166270107Y-117921868D01*
X166250401Y-117907253D01*
X166232223Y-117890777D01*
X166215747Y-117872599D01*
X166201132Y-117852893D01*
X166188520Y-117831850D01*
X166178030Y-117809671D01*
X166169765Y-117786572D01*
X166163804Y-117762773D01*
X166160204Y-117738505D01*
X166159000Y-117714001D01*
X166159000Y-116473999D01*
X166160204Y-116449495D01*
X166163804Y-116425227D01*
X166169765Y-116401428D01*
X166178030Y-116378329D01*
X166188520Y-116356150D01*
X166201132Y-116335107D01*
X166215747Y-116315401D01*
X166232223Y-116297223D01*
X166250401Y-116280747D01*
X166270107Y-116266132D01*
X166291150Y-116253520D01*
X166313329Y-116243030D01*
X166336428Y-116234765D01*
X166360227Y-116228804D01*
X166384495Y-116225204D01*
X166408999Y-116224000D01*
X168109001Y-116224000D01*
X168133505Y-116225204D01*
G37*
G04 #@! TD.AperFunction*
D10*
X167196000Y-131191000D03*
G04 #@! TA.AperFunction,ComponentPad*
D11*
G36*
X168070505Y-127782204D02*
G01*
X168094773Y-127785804D01*
X168118572Y-127791765D01*
X168141671Y-127800030D01*
X168163850Y-127810520D01*
X168184893Y-127823132D01*
X168204599Y-127837747D01*
X168222777Y-127854223D01*
X168239253Y-127872401D01*
X168253868Y-127892107D01*
X168266480Y-127913150D01*
X168276970Y-127935329D01*
X168285235Y-127958428D01*
X168291196Y-127982227D01*
X168294796Y-128006495D01*
X168296000Y-128030999D01*
X168296000Y-129271001D01*
X168294796Y-129295505D01*
X168291196Y-129319773D01*
X168285235Y-129343572D01*
X168276970Y-129366671D01*
X168266480Y-129388850D01*
X168253868Y-129409893D01*
X168239253Y-129429599D01*
X168222777Y-129447777D01*
X168204599Y-129464253D01*
X168184893Y-129478868D01*
X168163850Y-129491480D01*
X168141671Y-129501970D01*
X168118572Y-129510235D01*
X168094773Y-129516196D01*
X168070505Y-129519796D01*
X168046001Y-129521000D01*
X166345999Y-129521000D01*
X166321495Y-129519796D01*
X166297227Y-129516196D01*
X166273428Y-129510235D01*
X166250329Y-129501970D01*
X166228150Y-129491480D01*
X166207107Y-129478868D01*
X166187401Y-129464253D01*
X166169223Y-129447777D01*
X166152747Y-129429599D01*
X166138132Y-129409893D01*
X166125520Y-129388850D01*
X166115030Y-129366671D01*
X166106765Y-129343572D01*
X166100804Y-129319773D01*
X166097204Y-129295505D01*
X166096000Y-129271001D01*
X166096000Y-128030999D01*
X166097204Y-128006495D01*
X166100804Y-127982227D01*
X166106765Y-127958428D01*
X166115030Y-127935329D01*
X166125520Y-127913150D01*
X166138132Y-127892107D01*
X166152747Y-127872401D01*
X166169223Y-127854223D01*
X166187401Y-127837747D01*
X166207107Y-127823132D01*
X166228150Y-127810520D01*
X166250329Y-127800030D01*
X166273428Y-127791765D01*
X166297227Y-127785804D01*
X166321495Y-127782204D01*
X166345999Y-127781000D01*
X168046001Y-127781000D01*
X168070505Y-127782204D01*
G37*
G04 #@! TD.AperFunction*
D10*
X166560000Y-107505500D03*
X166560000Y-104965500D03*
X166560000Y-102425500D03*
G04 #@! TA.AperFunction,ComponentPad*
D11*
G36*
X167434505Y-99016704D02*
G01*
X167458773Y-99020304D01*
X167482572Y-99026265D01*
X167505671Y-99034530D01*
X167527850Y-99045020D01*
X167548893Y-99057632D01*
X167568599Y-99072247D01*
X167586777Y-99088723D01*
X167603253Y-99106901D01*
X167617868Y-99126607D01*
X167630480Y-99147650D01*
X167640970Y-99169829D01*
X167649235Y-99192928D01*
X167655196Y-99216727D01*
X167658796Y-99240995D01*
X167660000Y-99265499D01*
X167660000Y-100505501D01*
X167658796Y-100530005D01*
X167655196Y-100554273D01*
X167649235Y-100578072D01*
X167640970Y-100601171D01*
X167630480Y-100623350D01*
X167617868Y-100644393D01*
X167603253Y-100664099D01*
X167586777Y-100682277D01*
X167568599Y-100698753D01*
X167548893Y-100713368D01*
X167527850Y-100725980D01*
X167505671Y-100736470D01*
X167482572Y-100744735D01*
X167458773Y-100750696D01*
X167434505Y-100754296D01*
X167410001Y-100755500D01*
X165709999Y-100755500D01*
X165685495Y-100754296D01*
X165661227Y-100750696D01*
X165637428Y-100744735D01*
X165614329Y-100736470D01*
X165592150Y-100725980D01*
X165571107Y-100713368D01*
X165551401Y-100698753D01*
X165533223Y-100682277D01*
X165516747Y-100664099D01*
X165502132Y-100644393D01*
X165489520Y-100623350D01*
X165479030Y-100601171D01*
X165470765Y-100578072D01*
X165464804Y-100554273D01*
X165461204Y-100530005D01*
X165460000Y-100505501D01*
X165460000Y-99265499D01*
X165461204Y-99240995D01*
X165464804Y-99216727D01*
X165470765Y-99192928D01*
X165479030Y-99169829D01*
X165489520Y-99147650D01*
X165502132Y-99126607D01*
X165516747Y-99106901D01*
X165533223Y-99088723D01*
X165551401Y-99072247D01*
X165571107Y-99057632D01*
X165592150Y-99045020D01*
X165614329Y-99034530D01*
X165637428Y-99026265D01*
X165661227Y-99020304D01*
X165685495Y-99016704D01*
X165709999Y-99015500D01*
X167410001Y-99015500D01*
X167434505Y-99016704D01*
G37*
G04 #@! TD.AperFunction*
D10*
X166560000Y-76263500D03*
X166560000Y-73723500D03*
X166560000Y-71183500D03*
X166560000Y-68643500D03*
X166560000Y-66103500D03*
X166560000Y-63563500D03*
X166560000Y-61023500D03*
G04 #@! TA.AperFunction,ComponentPad*
D11*
G36*
X167434505Y-57614704D02*
G01*
X167458773Y-57618304D01*
X167482572Y-57624265D01*
X167505671Y-57632530D01*
X167527850Y-57643020D01*
X167548893Y-57655632D01*
X167568599Y-57670247D01*
X167586777Y-57686723D01*
X167603253Y-57704901D01*
X167617868Y-57724607D01*
X167630480Y-57745650D01*
X167640970Y-57767829D01*
X167649235Y-57790928D01*
X167655196Y-57814727D01*
X167658796Y-57838995D01*
X167660000Y-57863499D01*
X167660000Y-59103501D01*
X167658796Y-59128005D01*
X167655196Y-59152273D01*
X167649235Y-59176072D01*
X167640970Y-59199171D01*
X167630480Y-59221350D01*
X167617868Y-59242393D01*
X167603253Y-59262099D01*
X167586777Y-59280277D01*
X167568599Y-59296753D01*
X167548893Y-59311368D01*
X167527850Y-59323980D01*
X167505671Y-59334470D01*
X167482572Y-59342735D01*
X167458773Y-59348696D01*
X167434505Y-59352296D01*
X167410001Y-59353500D01*
X165709999Y-59353500D01*
X165685495Y-59352296D01*
X165661227Y-59348696D01*
X165637428Y-59342735D01*
X165614329Y-59334470D01*
X165592150Y-59323980D01*
X165571107Y-59311368D01*
X165551401Y-59296753D01*
X165533223Y-59280277D01*
X165516747Y-59262099D01*
X165502132Y-59242393D01*
X165489520Y-59221350D01*
X165479030Y-59199171D01*
X165470765Y-59176072D01*
X165464804Y-59152273D01*
X165461204Y-59128005D01*
X165460000Y-59103501D01*
X165460000Y-57863499D01*
X165461204Y-57838995D01*
X165464804Y-57814727D01*
X165470765Y-57790928D01*
X165479030Y-57767829D01*
X165489520Y-57745650D01*
X165502132Y-57724607D01*
X165516747Y-57704901D01*
X165533223Y-57686723D01*
X165551401Y-57670247D01*
X165571107Y-57655632D01*
X165592150Y-57643020D01*
X165614329Y-57632530D01*
X165637428Y-57624265D01*
X165661227Y-57618304D01*
X165685495Y-57614704D01*
X165709999Y-57613500D01*
X167410001Y-57613500D01*
X167434505Y-57614704D01*
G37*
G04 #@! TD.AperFunction*
D10*
X154686000Y-96012000D03*
X154686000Y-93472000D03*
X154686000Y-90932000D03*
X154686000Y-88392000D03*
X154686000Y-85852000D03*
G04 #@! TA.AperFunction,ComponentPad*
D11*
G36*
X155560505Y-82443204D02*
G01*
X155584773Y-82446804D01*
X155608572Y-82452765D01*
X155631671Y-82461030D01*
X155653850Y-82471520D01*
X155674893Y-82484132D01*
X155694599Y-82498747D01*
X155712777Y-82515223D01*
X155729253Y-82533401D01*
X155743868Y-82553107D01*
X155756480Y-82574150D01*
X155766970Y-82596329D01*
X155775235Y-82619428D01*
X155781196Y-82643227D01*
X155784796Y-82667495D01*
X155786000Y-82691999D01*
X155786000Y-83932001D01*
X155784796Y-83956505D01*
X155781196Y-83980773D01*
X155775235Y-84004572D01*
X155766970Y-84027671D01*
X155756480Y-84049850D01*
X155743868Y-84070893D01*
X155729253Y-84090599D01*
X155712777Y-84108777D01*
X155694599Y-84125253D01*
X155674893Y-84139868D01*
X155653850Y-84152480D01*
X155631671Y-84162970D01*
X155608572Y-84171235D01*
X155584773Y-84177196D01*
X155560505Y-84180796D01*
X155536001Y-84182000D01*
X153835999Y-84182000D01*
X153811495Y-84180796D01*
X153787227Y-84177196D01*
X153763428Y-84171235D01*
X153740329Y-84162970D01*
X153718150Y-84152480D01*
X153697107Y-84139868D01*
X153677401Y-84125253D01*
X153659223Y-84108777D01*
X153642747Y-84090599D01*
X153628132Y-84070893D01*
X153615520Y-84049850D01*
X153605030Y-84027671D01*
X153596765Y-84004572D01*
X153590804Y-83980773D01*
X153587204Y-83956505D01*
X153586000Y-83932001D01*
X153586000Y-82691999D01*
X153587204Y-82667495D01*
X153590804Y-82643227D01*
X153596765Y-82619428D01*
X153605030Y-82596329D01*
X153615520Y-82574150D01*
X153628132Y-82553107D01*
X153642747Y-82533401D01*
X153659223Y-82515223D01*
X153677401Y-82498747D01*
X153697107Y-82484132D01*
X153718150Y-82471520D01*
X153740329Y-82461030D01*
X153763428Y-82452765D01*
X153787227Y-82446804D01*
X153811495Y-82443204D01*
X153835999Y-82442000D01*
X155536001Y-82442000D01*
X155560505Y-82443204D01*
G37*
G04 #@! TD.AperFunction*
D10*
X166560000Y-96012000D03*
X166560000Y-93472000D03*
X166560000Y-90932000D03*
X166560000Y-88392000D03*
X166560000Y-85852000D03*
G04 #@! TA.AperFunction,ComponentPad*
D11*
G36*
X167434505Y-82443204D02*
G01*
X167458773Y-82446804D01*
X167482572Y-82452765D01*
X167505671Y-82461030D01*
X167527850Y-82471520D01*
X167548893Y-82484132D01*
X167568599Y-82498747D01*
X167586777Y-82515223D01*
X167603253Y-82533401D01*
X167617868Y-82553107D01*
X167630480Y-82574150D01*
X167640970Y-82596329D01*
X167649235Y-82619428D01*
X167655196Y-82643227D01*
X167658796Y-82667495D01*
X167660000Y-82691999D01*
X167660000Y-83932001D01*
X167658796Y-83956505D01*
X167655196Y-83980773D01*
X167649235Y-84004572D01*
X167640970Y-84027671D01*
X167630480Y-84049850D01*
X167617868Y-84070893D01*
X167603253Y-84090599D01*
X167586777Y-84108777D01*
X167568599Y-84125253D01*
X167548893Y-84139868D01*
X167527850Y-84152480D01*
X167505671Y-84162970D01*
X167482572Y-84171235D01*
X167458773Y-84177196D01*
X167434505Y-84180796D01*
X167410001Y-84182000D01*
X165709999Y-84182000D01*
X165685495Y-84180796D01*
X165661227Y-84177196D01*
X165637428Y-84171235D01*
X165614329Y-84162970D01*
X165592150Y-84152480D01*
X165571107Y-84139868D01*
X165551401Y-84125253D01*
X165533223Y-84108777D01*
X165516747Y-84090599D01*
X165502132Y-84070893D01*
X165489520Y-84049850D01*
X165479030Y-84027671D01*
X165470765Y-84004572D01*
X165464804Y-83980773D01*
X165461204Y-83956505D01*
X165460000Y-83932001D01*
X165460000Y-82691999D01*
X165461204Y-82667495D01*
X165464804Y-82643227D01*
X165470765Y-82619428D01*
X165479030Y-82596329D01*
X165489520Y-82574150D01*
X165502132Y-82553107D01*
X165516747Y-82533401D01*
X165533223Y-82515223D01*
X165551401Y-82498747D01*
X165571107Y-82484132D01*
X165592150Y-82471520D01*
X165614329Y-82461030D01*
X165637428Y-82452765D01*
X165661227Y-82446804D01*
X165685495Y-82443204D01*
X165709999Y-82442000D01*
X167410001Y-82442000D01*
X167434505Y-82443204D01*
G37*
G04 #@! TD.AperFunction*
D10*
X205422000Y-74803000D03*
G04 #@! TA.AperFunction,ComponentPad*
D11*
G36*
X206296505Y-71394204D02*
G01*
X206320773Y-71397804D01*
X206344572Y-71403765D01*
X206367671Y-71412030D01*
X206389850Y-71422520D01*
X206410893Y-71435132D01*
X206430599Y-71449747D01*
X206448777Y-71466223D01*
X206465253Y-71484401D01*
X206479868Y-71504107D01*
X206492480Y-71525150D01*
X206502970Y-71547329D01*
X206511235Y-71570428D01*
X206517196Y-71594227D01*
X206520796Y-71618495D01*
X206522000Y-71642999D01*
X206522000Y-72883001D01*
X206520796Y-72907505D01*
X206517196Y-72931773D01*
X206511235Y-72955572D01*
X206502970Y-72978671D01*
X206492480Y-73000850D01*
X206479868Y-73021893D01*
X206465253Y-73041599D01*
X206448777Y-73059777D01*
X206430599Y-73076253D01*
X206410893Y-73090868D01*
X206389850Y-73103480D01*
X206367671Y-73113970D01*
X206344572Y-73122235D01*
X206320773Y-73128196D01*
X206296505Y-73131796D01*
X206272001Y-73133000D01*
X204571999Y-73133000D01*
X204547495Y-73131796D01*
X204523227Y-73128196D01*
X204499428Y-73122235D01*
X204476329Y-73113970D01*
X204454150Y-73103480D01*
X204433107Y-73090868D01*
X204413401Y-73076253D01*
X204395223Y-73059777D01*
X204378747Y-73041599D01*
X204364132Y-73021893D01*
X204351520Y-73000850D01*
X204341030Y-72978671D01*
X204332765Y-72955572D01*
X204326804Y-72931773D01*
X204323204Y-72907505D01*
X204322000Y-72883001D01*
X204322000Y-71642999D01*
X204323204Y-71618495D01*
X204326804Y-71594227D01*
X204332765Y-71570428D01*
X204341030Y-71547329D01*
X204351520Y-71525150D01*
X204364132Y-71504107D01*
X204378747Y-71484401D01*
X204395223Y-71466223D01*
X204413401Y-71449747D01*
X204433107Y-71435132D01*
X204454150Y-71422520D01*
X204476329Y-71412030D01*
X204499428Y-71403765D01*
X204523227Y-71397804D01*
X204547495Y-71394204D01*
X204571999Y-71393000D01*
X206272001Y-71393000D01*
X206296505Y-71394204D01*
G37*
G04 #@! TD.AperFunction*
D10*
X177610000Y-88201500D03*
X177610000Y-85661500D03*
X177610000Y-83121500D03*
X177610000Y-80581500D03*
X177610000Y-78041500D03*
X177610000Y-75501500D03*
X177610000Y-72961500D03*
G04 #@! TA.AperFunction,ComponentPad*
D11*
G36*
X178484505Y-69552704D02*
G01*
X178508773Y-69556304D01*
X178532572Y-69562265D01*
X178555671Y-69570530D01*
X178577850Y-69581020D01*
X178598893Y-69593632D01*
X178618599Y-69608247D01*
X178636777Y-69624723D01*
X178653253Y-69642901D01*
X178667868Y-69662607D01*
X178680480Y-69683650D01*
X178690970Y-69705829D01*
X178699235Y-69728928D01*
X178705196Y-69752727D01*
X178708796Y-69776995D01*
X178710000Y-69801499D01*
X178710000Y-71041501D01*
X178708796Y-71066005D01*
X178705196Y-71090273D01*
X178699235Y-71114072D01*
X178690970Y-71137171D01*
X178680480Y-71159350D01*
X178667868Y-71180393D01*
X178653253Y-71200099D01*
X178636777Y-71218277D01*
X178618599Y-71234753D01*
X178598893Y-71249368D01*
X178577850Y-71261980D01*
X178555671Y-71272470D01*
X178532572Y-71280735D01*
X178508773Y-71286696D01*
X178484505Y-71290296D01*
X178460001Y-71291500D01*
X176759999Y-71291500D01*
X176735495Y-71290296D01*
X176711227Y-71286696D01*
X176687428Y-71280735D01*
X176664329Y-71272470D01*
X176642150Y-71261980D01*
X176621107Y-71249368D01*
X176601401Y-71234753D01*
X176583223Y-71218277D01*
X176566747Y-71200099D01*
X176552132Y-71180393D01*
X176539520Y-71159350D01*
X176529030Y-71137171D01*
X176520765Y-71114072D01*
X176514804Y-71090273D01*
X176511204Y-71066005D01*
X176510000Y-71041501D01*
X176510000Y-69801499D01*
X176511204Y-69776995D01*
X176514804Y-69752727D01*
X176520765Y-69728928D01*
X176529030Y-69705829D01*
X176539520Y-69683650D01*
X176552132Y-69662607D01*
X176566747Y-69642901D01*
X176583223Y-69624723D01*
X176601401Y-69608247D01*
X176621107Y-69593632D01*
X176642150Y-69581020D01*
X176664329Y-69570530D01*
X176687428Y-69562265D01*
X176711227Y-69556304D01*
X176735495Y-69552704D01*
X176759999Y-69551500D01*
X178460001Y-69551500D01*
X178484505Y-69552704D01*
G37*
G04 #@! TD.AperFunction*
D10*
X154686000Y-76263500D03*
X154686000Y-73723500D03*
X154686000Y-71183500D03*
X154686000Y-68643500D03*
X154686000Y-66103500D03*
X154686000Y-63563500D03*
X154686000Y-61023500D03*
G04 #@! TA.AperFunction,ComponentPad*
D11*
G36*
X155560505Y-57614704D02*
G01*
X155584773Y-57618304D01*
X155608572Y-57624265D01*
X155631671Y-57632530D01*
X155653850Y-57643020D01*
X155674893Y-57655632D01*
X155694599Y-57670247D01*
X155712777Y-57686723D01*
X155729253Y-57704901D01*
X155743868Y-57724607D01*
X155756480Y-57745650D01*
X155766970Y-57767829D01*
X155775235Y-57790928D01*
X155781196Y-57814727D01*
X155784796Y-57838995D01*
X155786000Y-57863499D01*
X155786000Y-59103501D01*
X155784796Y-59128005D01*
X155781196Y-59152273D01*
X155775235Y-59176072D01*
X155766970Y-59199171D01*
X155756480Y-59221350D01*
X155743868Y-59242393D01*
X155729253Y-59262099D01*
X155712777Y-59280277D01*
X155694599Y-59296753D01*
X155674893Y-59311368D01*
X155653850Y-59323980D01*
X155631671Y-59334470D01*
X155608572Y-59342735D01*
X155584773Y-59348696D01*
X155560505Y-59352296D01*
X155536001Y-59353500D01*
X153835999Y-59353500D01*
X153811495Y-59352296D01*
X153787227Y-59348696D01*
X153763428Y-59342735D01*
X153740329Y-59334470D01*
X153718150Y-59323980D01*
X153697107Y-59311368D01*
X153677401Y-59296753D01*
X153659223Y-59280277D01*
X153642747Y-59262099D01*
X153628132Y-59242393D01*
X153615520Y-59221350D01*
X153605030Y-59199171D01*
X153596765Y-59176072D01*
X153590804Y-59152273D01*
X153587204Y-59128005D01*
X153586000Y-59103501D01*
X153586000Y-57863499D01*
X153587204Y-57838995D01*
X153590804Y-57814727D01*
X153596765Y-57790928D01*
X153605030Y-57767829D01*
X153615520Y-57745650D01*
X153628132Y-57724607D01*
X153642747Y-57704901D01*
X153659223Y-57686723D01*
X153677401Y-57670247D01*
X153697107Y-57655632D01*
X153718150Y-57643020D01*
X153740329Y-57632530D01*
X153763428Y-57624265D01*
X153787227Y-57618304D01*
X153811495Y-57614704D01*
X153835999Y-57613500D01*
X155536001Y-57613500D01*
X155560505Y-57614704D01*
G37*
G04 #@! TD.AperFunction*
D10*
X177610000Y-63754000D03*
X177610000Y-61214000D03*
X177610000Y-58674000D03*
X177610000Y-56134000D03*
X177610000Y-53594000D03*
X177610000Y-51054000D03*
X177610000Y-48514000D03*
G04 #@! TA.AperFunction,ComponentPad*
D11*
G36*
X178484505Y-45105204D02*
G01*
X178508773Y-45108804D01*
X178532572Y-45114765D01*
X178555671Y-45123030D01*
X178577850Y-45133520D01*
X178598893Y-45146132D01*
X178618599Y-45160747D01*
X178636777Y-45177223D01*
X178653253Y-45195401D01*
X178667868Y-45215107D01*
X178680480Y-45236150D01*
X178690970Y-45258329D01*
X178699235Y-45281428D01*
X178705196Y-45305227D01*
X178708796Y-45329495D01*
X178710000Y-45353999D01*
X178710000Y-46594001D01*
X178708796Y-46618505D01*
X178705196Y-46642773D01*
X178699235Y-46666572D01*
X178690970Y-46689671D01*
X178680480Y-46711850D01*
X178667868Y-46732893D01*
X178653253Y-46752599D01*
X178636777Y-46770777D01*
X178618599Y-46787253D01*
X178598893Y-46801868D01*
X178577850Y-46814480D01*
X178555671Y-46824970D01*
X178532572Y-46833235D01*
X178508773Y-46839196D01*
X178484505Y-46842796D01*
X178460001Y-46844000D01*
X176759999Y-46844000D01*
X176735495Y-46842796D01*
X176711227Y-46839196D01*
X176687428Y-46833235D01*
X176664329Y-46824970D01*
X176642150Y-46814480D01*
X176621107Y-46801868D01*
X176601401Y-46787253D01*
X176583223Y-46770777D01*
X176566747Y-46752599D01*
X176552132Y-46732893D01*
X176539520Y-46711850D01*
X176529030Y-46689671D01*
X176520765Y-46666572D01*
X176514804Y-46642773D01*
X176511204Y-46618505D01*
X176510000Y-46594001D01*
X176510000Y-45353999D01*
X176511204Y-45329495D01*
X176514804Y-45305227D01*
X176520765Y-45281428D01*
X176529030Y-45258329D01*
X176539520Y-45236150D01*
X176552132Y-45215107D01*
X176566747Y-45195401D01*
X176583223Y-45177223D01*
X176601401Y-45160747D01*
X176621107Y-45146132D01*
X176642150Y-45133520D01*
X176664329Y-45123030D01*
X176687428Y-45114765D01*
X176711227Y-45108804D01*
X176735495Y-45105204D01*
X176759999Y-45104000D01*
X178460001Y-45104000D01*
X178484505Y-45105204D01*
G37*
G04 #@! TD.AperFunction*
D10*
X201104000Y-86550500D03*
X201104000Y-84010500D03*
X201104000Y-81470500D03*
G04 #@! TA.AperFunction,ComponentPad*
D11*
G36*
X201978505Y-78061704D02*
G01*
X202002773Y-78065304D01*
X202026572Y-78071265D01*
X202049671Y-78079530D01*
X202071850Y-78090020D01*
X202092893Y-78102632D01*
X202112599Y-78117247D01*
X202130777Y-78133723D01*
X202147253Y-78151901D01*
X202161868Y-78171607D01*
X202174480Y-78192650D01*
X202184970Y-78214829D01*
X202193235Y-78237928D01*
X202199196Y-78261727D01*
X202202796Y-78285995D01*
X202204000Y-78310499D01*
X202204000Y-79550501D01*
X202202796Y-79575005D01*
X202199196Y-79599273D01*
X202193235Y-79623072D01*
X202184970Y-79646171D01*
X202174480Y-79668350D01*
X202161868Y-79689393D01*
X202147253Y-79709099D01*
X202130777Y-79727277D01*
X202112599Y-79743753D01*
X202092893Y-79758368D01*
X202071850Y-79770980D01*
X202049671Y-79781470D01*
X202026572Y-79789735D01*
X202002773Y-79795696D01*
X201978505Y-79799296D01*
X201954001Y-79800500D01*
X200253999Y-79800500D01*
X200229495Y-79799296D01*
X200205227Y-79795696D01*
X200181428Y-79789735D01*
X200158329Y-79781470D01*
X200136150Y-79770980D01*
X200115107Y-79758368D01*
X200095401Y-79743753D01*
X200077223Y-79727277D01*
X200060747Y-79709099D01*
X200046132Y-79689393D01*
X200033520Y-79668350D01*
X200023030Y-79646171D01*
X200014765Y-79623072D01*
X200008804Y-79599273D01*
X200005204Y-79575005D01*
X200004000Y-79550501D01*
X200004000Y-78310499D01*
X200005204Y-78285995D01*
X200008804Y-78261727D01*
X200014765Y-78237928D01*
X200023030Y-78214829D01*
X200033520Y-78192650D01*
X200046132Y-78171607D01*
X200060747Y-78151901D01*
X200077223Y-78133723D01*
X200095401Y-78117247D01*
X200115107Y-78102632D01*
X200136150Y-78090020D01*
X200158329Y-78079530D01*
X200181428Y-78071265D01*
X200205227Y-78065304D01*
X200229495Y-78061704D01*
X200253999Y-78060500D01*
X201954001Y-78060500D01*
X201978505Y-78061704D01*
G37*
G04 #@! TD.AperFunction*
D10*
X200978000Y-51752500D03*
X200978000Y-49212500D03*
X200978000Y-46672500D03*
X200978000Y-44132500D03*
X200978000Y-41592500D03*
G04 #@! TA.AperFunction,ComponentPad*
D11*
G36*
X201852505Y-38183704D02*
G01*
X201876773Y-38187304D01*
X201900572Y-38193265D01*
X201923671Y-38201530D01*
X201945850Y-38212020D01*
X201966893Y-38224632D01*
X201986599Y-38239247D01*
X202004777Y-38255723D01*
X202021253Y-38273901D01*
X202035868Y-38293607D01*
X202048480Y-38314650D01*
X202058970Y-38336829D01*
X202067235Y-38359928D01*
X202073196Y-38383727D01*
X202076796Y-38407995D01*
X202078000Y-38432499D01*
X202078000Y-39672501D01*
X202076796Y-39697005D01*
X202073196Y-39721273D01*
X202067235Y-39745072D01*
X202058970Y-39768171D01*
X202048480Y-39790350D01*
X202035868Y-39811393D01*
X202021253Y-39831099D01*
X202004777Y-39849277D01*
X201986599Y-39865753D01*
X201966893Y-39880368D01*
X201945850Y-39892980D01*
X201923671Y-39903470D01*
X201900572Y-39911735D01*
X201876773Y-39917696D01*
X201852505Y-39921296D01*
X201828001Y-39922500D01*
X200127999Y-39922500D01*
X200103495Y-39921296D01*
X200079227Y-39917696D01*
X200055428Y-39911735D01*
X200032329Y-39903470D01*
X200010150Y-39892980D01*
X199989107Y-39880368D01*
X199969401Y-39865753D01*
X199951223Y-39849277D01*
X199934747Y-39831099D01*
X199920132Y-39811393D01*
X199907520Y-39790350D01*
X199897030Y-39768171D01*
X199888765Y-39745072D01*
X199882804Y-39721273D01*
X199879204Y-39697005D01*
X199878000Y-39672501D01*
X199878000Y-38432499D01*
X199879204Y-38407995D01*
X199882804Y-38383727D01*
X199888765Y-38359928D01*
X199897030Y-38336829D01*
X199907520Y-38314650D01*
X199920132Y-38293607D01*
X199934747Y-38273901D01*
X199951223Y-38255723D01*
X199969401Y-38239247D01*
X199989107Y-38224632D01*
X200010150Y-38212020D01*
X200032329Y-38201530D01*
X200055428Y-38193265D01*
X200079227Y-38187304D01*
X200103495Y-38183704D01*
X200127999Y-38182500D01*
X201828001Y-38182500D01*
X201852505Y-38183704D01*
G37*
G04 #@! TD.AperFunction*
D10*
X201040000Y-63690500D03*
X201040000Y-61150500D03*
X201040000Y-58610500D03*
G04 #@! TA.AperFunction,ComponentPad*
D11*
G36*
X201914505Y-55201704D02*
G01*
X201938773Y-55205304D01*
X201962572Y-55211265D01*
X201985671Y-55219530D01*
X202007850Y-55230020D01*
X202028893Y-55242632D01*
X202048599Y-55257247D01*
X202066777Y-55273723D01*
X202083253Y-55291901D01*
X202097868Y-55311607D01*
X202110480Y-55332650D01*
X202120970Y-55354829D01*
X202129235Y-55377928D01*
X202135196Y-55401727D01*
X202138796Y-55425995D01*
X202140000Y-55450499D01*
X202140000Y-56690501D01*
X202138796Y-56715005D01*
X202135196Y-56739273D01*
X202129235Y-56763072D01*
X202120970Y-56786171D01*
X202110480Y-56808350D01*
X202097868Y-56829393D01*
X202083253Y-56849099D01*
X202066777Y-56867277D01*
X202048599Y-56883753D01*
X202028893Y-56898368D01*
X202007850Y-56910980D01*
X201985671Y-56921470D01*
X201962572Y-56929735D01*
X201938773Y-56935696D01*
X201914505Y-56939296D01*
X201890001Y-56940500D01*
X200189999Y-56940500D01*
X200165495Y-56939296D01*
X200141227Y-56935696D01*
X200117428Y-56929735D01*
X200094329Y-56921470D01*
X200072150Y-56910980D01*
X200051107Y-56898368D01*
X200031401Y-56883753D01*
X200013223Y-56867277D01*
X199996747Y-56849099D01*
X199982132Y-56829393D01*
X199969520Y-56808350D01*
X199959030Y-56786171D01*
X199950765Y-56763072D01*
X199944804Y-56739273D01*
X199941204Y-56715005D01*
X199940000Y-56690501D01*
X199940000Y-55450499D01*
X199941204Y-55425995D01*
X199944804Y-55401727D01*
X199950765Y-55377928D01*
X199959030Y-55354829D01*
X199969520Y-55332650D01*
X199982132Y-55311607D01*
X199996747Y-55291901D01*
X200013223Y-55273723D01*
X200031401Y-55257247D01*
X200051107Y-55242632D01*
X200072150Y-55230020D01*
X200094329Y-55219530D01*
X200117428Y-55211265D01*
X200141227Y-55205304D01*
X200165495Y-55201704D01*
X200189999Y-55200500D01*
X201890001Y-55200500D01*
X201914505Y-55201704D01*
G37*
G04 #@! TD.AperFunction*
D10*
X154813000Y-52641500D03*
X154813000Y-50101500D03*
X154813000Y-47561500D03*
X154813000Y-45021500D03*
X154813000Y-42481500D03*
G04 #@! TA.AperFunction,ComponentPad*
D11*
G36*
X155687505Y-39072704D02*
G01*
X155711773Y-39076304D01*
X155735572Y-39082265D01*
X155758671Y-39090530D01*
X155780850Y-39101020D01*
X155801893Y-39113632D01*
X155821599Y-39128247D01*
X155839777Y-39144723D01*
X155856253Y-39162901D01*
X155870868Y-39182607D01*
X155883480Y-39203650D01*
X155893970Y-39225829D01*
X155902235Y-39248928D01*
X155908196Y-39272727D01*
X155911796Y-39296995D01*
X155913000Y-39321499D01*
X155913000Y-40561501D01*
X155911796Y-40586005D01*
X155908196Y-40610273D01*
X155902235Y-40634072D01*
X155893970Y-40657171D01*
X155883480Y-40679350D01*
X155870868Y-40700393D01*
X155856253Y-40720099D01*
X155839777Y-40738277D01*
X155821599Y-40754753D01*
X155801893Y-40769368D01*
X155780850Y-40781980D01*
X155758671Y-40792470D01*
X155735572Y-40800735D01*
X155711773Y-40806696D01*
X155687505Y-40810296D01*
X155663001Y-40811500D01*
X153962999Y-40811500D01*
X153938495Y-40810296D01*
X153914227Y-40806696D01*
X153890428Y-40800735D01*
X153867329Y-40792470D01*
X153845150Y-40781980D01*
X153824107Y-40769368D01*
X153804401Y-40754753D01*
X153786223Y-40738277D01*
X153769747Y-40720099D01*
X153755132Y-40700393D01*
X153742520Y-40679350D01*
X153732030Y-40657171D01*
X153723765Y-40634072D01*
X153717804Y-40610273D01*
X153714204Y-40586005D01*
X153713000Y-40561501D01*
X153713000Y-39321499D01*
X153714204Y-39296995D01*
X153717804Y-39272727D01*
X153723765Y-39248928D01*
X153732030Y-39225829D01*
X153742520Y-39203650D01*
X153755132Y-39182607D01*
X153769747Y-39162901D01*
X153786223Y-39144723D01*
X153804401Y-39128247D01*
X153824107Y-39113632D01*
X153845150Y-39101020D01*
X153867329Y-39090530D01*
X153890428Y-39082265D01*
X153914227Y-39076304D01*
X153938495Y-39072704D01*
X153962999Y-39071500D01*
X155663001Y-39071500D01*
X155687505Y-39072704D01*
G37*
G04 #@! TD.AperFunction*
D10*
X157036000Y-129540000D03*
X157036000Y-127000000D03*
X157036000Y-124460000D03*
X157036000Y-121920000D03*
X157036000Y-119380000D03*
G04 #@! TA.AperFunction,ComponentPad*
D11*
G36*
X157910505Y-115971204D02*
G01*
X157934773Y-115974804D01*
X157958572Y-115980765D01*
X157981671Y-115989030D01*
X158003850Y-115999520D01*
X158024893Y-116012132D01*
X158044599Y-116026747D01*
X158062777Y-116043223D01*
X158079253Y-116061401D01*
X158093868Y-116081107D01*
X158106480Y-116102150D01*
X158116970Y-116124329D01*
X158125235Y-116147428D01*
X158131196Y-116171227D01*
X158134796Y-116195495D01*
X158136000Y-116219999D01*
X158136000Y-117460001D01*
X158134796Y-117484505D01*
X158131196Y-117508773D01*
X158125235Y-117532572D01*
X158116970Y-117555671D01*
X158106480Y-117577850D01*
X158093868Y-117598893D01*
X158079253Y-117618599D01*
X158062777Y-117636777D01*
X158044599Y-117653253D01*
X158024893Y-117667868D01*
X158003850Y-117680480D01*
X157981671Y-117690970D01*
X157958572Y-117699235D01*
X157934773Y-117705196D01*
X157910505Y-117708796D01*
X157886001Y-117710000D01*
X156185999Y-117710000D01*
X156161495Y-117708796D01*
X156137227Y-117705196D01*
X156113428Y-117699235D01*
X156090329Y-117690970D01*
X156068150Y-117680480D01*
X156047107Y-117667868D01*
X156027401Y-117653253D01*
X156009223Y-117636777D01*
X155992747Y-117618599D01*
X155978132Y-117598893D01*
X155965520Y-117577850D01*
X155955030Y-117555671D01*
X155946765Y-117532572D01*
X155940804Y-117508773D01*
X155937204Y-117484505D01*
X155936000Y-117460001D01*
X155936000Y-116219999D01*
X155937204Y-116195495D01*
X155940804Y-116171227D01*
X155946765Y-116147428D01*
X155955030Y-116124329D01*
X155965520Y-116102150D01*
X155978132Y-116081107D01*
X155992747Y-116061401D01*
X156009223Y-116043223D01*
X156027401Y-116026747D01*
X156047107Y-116012132D01*
X156068150Y-115999520D01*
X156090329Y-115989030D01*
X156113428Y-115980765D01*
X156137227Y-115974804D01*
X156161495Y-115971204D01*
X156185999Y-115970000D01*
X157886001Y-115970000D01*
X157910505Y-115971204D01*
G37*
G04 #@! TD.AperFunction*
D10*
X166560000Y-52641500D03*
X166560000Y-50101500D03*
X166560000Y-47561500D03*
X166560000Y-45021500D03*
X166560000Y-42481500D03*
G04 #@! TA.AperFunction,ComponentPad*
D11*
G36*
X167434505Y-39072704D02*
G01*
X167458773Y-39076304D01*
X167482572Y-39082265D01*
X167505671Y-39090530D01*
X167527850Y-39101020D01*
X167548893Y-39113632D01*
X167568599Y-39128247D01*
X167586777Y-39144723D01*
X167603253Y-39162901D01*
X167617868Y-39182607D01*
X167630480Y-39203650D01*
X167640970Y-39225829D01*
X167649235Y-39248928D01*
X167655196Y-39272727D01*
X167658796Y-39296995D01*
X167660000Y-39321499D01*
X167660000Y-40561501D01*
X167658796Y-40586005D01*
X167655196Y-40610273D01*
X167649235Y-40634072D01*
X167640970Y-40657171D01*
X167630480Y-40679350D01*
X167617868Y-40700393D01*
X167603253Y-40720099D01*
X167586777Y-40738277D01*
X167568599Y-40754753D01*
X167548893Y-40769368D01*
X167527850Y-40781980D01*
X167505671Y-40792470D01*
X167482572Y-40800735D01*
X167458773Y-40806696D01*
X167434505Y-40810296D01*
X167410001Y-40811500D01*
X165709999Y-40811500D01*
X165685495Y-40810296D01*
X165661227Y-40806696D01*
X165637428Y-40800735D01*
X165614329Y-40792470D01*
X165592150Y-40781980D01*
X165571107Y-40769368D01*
X165551401Y-40754753D01*
X165533223Y-40738277D01*
X165516747Y-40720099D01*
X165502132Y-40700393D01*
X165489520Y-40679350D01*
X165479030Y-40657171D01*
X165470765Y-40634072D01*
X165464804Y-40610273D01*
X165461204Y-40586005D01*
X165460000Y-40561501D01*
X165460000Y-39321499D01*
X165461204Y-39296995D01*
X165464804Y-39272727D01*
X165470765Y-39248928D01*
X165479030Y-39225829D01*
X165489520Y-39203650D01*
X165502132Y-39182607D01*
X165516747Y-39162901D01*
X165533223Y-39144723D01*
X165551401Y-39128247D01*
X165571107Y-39113632D01*
X165592150Y-39101020D01*
X165614329Y-39090530D01*
X165637428Y-39082265D01*
X165661227Y-39076304D01*
X165685495Y-39072704D01*
X165709999Y-39071500D01*
X167410001Y-39071500D01*
X167434505Y-39072704D01*
G37*
G04 #@! TD.AperFunction*
D10*
X154686000Y-112840000D03*
X154686000Y-110300000D03*
X154686000Y-107760000D03*
X154686000Y-105220000D03*
X154686000Y-102680000D03*
G04 #@! TA.AperFunction,ComponentPad*
D11*
G36*
X155560505Y-99271204D02*
G01*
X155584773Y-99274804D01*
X155608572Y-99280765D01*
X155631671Y-99289030D01*
X155653850Y-99299520D01*
X155674893Y-99312132D01*
X155694599Y-99326747D01*
X155712777Y-99343223D01*
X155729253Y-99361401D01*
X155743868Y-99381107D01*
X155756480Y-99402150D01*
X155766970Y-99424329D01*
X155775235Y-99447428D01*
X155781196Y-99471227D01*
X155784796Y-99495495D01*
X155786000Y-99519999D01*
X155786000Y-100760001D01*
X155784796Y-100784505D01*
X155781196Y-100808773D01*
X155775235Y-100832572D01*
X155766970Y-100855671D01*
X155756480Y-100877850D01*
X155743868Y-100898893D01*
X155729253Y-100918599D01*
X155712777Y-100936777D01*
X155694599Y-100953253D01*
X155674893Y-100967868D01*
X155653850Y-100980480D01*
X155631671Y-100990970D01*
X155608572Y-100999235D01*
X155584773Y-101005196D01*
X155560505Y-101008796D01*
X155536001Y-101010000D01*
X153835999Y-101010000D01*
X153811495Y-101008796D01*
X153787227Y-101005196D01*
X153763428Y-100999235D01*
X153740329Y-100990970D01*
X153718150Y-100980480D01*
X153697107Y-100967868D01*
X153677401Y-100953253D01*
X153659223Y-100936777D01*
X153642747Y-100918599D01*
X153628132Y-100898893D01*
X153615520Y-100877850D01*
X153605030Y-100855671D01*
X153596765Y-100832572D01*
X153590804Y-100808773D01*
X153587204Y-100784505D01*
X153586000Y-100760001D01*
X153586000Y-99519999D01*
X153587204Y-99495495D01*
X153590804Y-99471227D01*
X153596765Y-99447428D01*
X153605030Y-99424329D01*
X153615520Y-99402150D01*
X153628132Y-99381107D01*
X153642747Y-99361401D01*
X153659223Y-99343223D01*
X153677401Y-99326747D01*
X153697107Y-99312132D01*
X153718150Y-99299520D01*
X153740329Y-99289030D01*
X153763428Y-99280765D01*
X153787227Y-99274804D01*
X153811495Y-99271204D01*
X153835999Y-99270000D01*
X155536001Y-99270000D01*
X155560505Y-99271204D01*
G37*
G04 #@! TD.AperFunction*
D15*
X138494000Y-90741500D03*
X135954000Y-90741500D03*
X138494000Y-88201500D03*
X135954000Y-88201500D03*
X138494000Y-85661500D03*
X135954000Y-85661500D03*
X138494000Y-83121500D03*
X135954000Y-83121500D03*
X138494000Y-80581500D03*
X135954000Y-80581500D03*
X138494000Y-78041500D03*
X135954000Y-78041500D03*
X138494000Y-75501500D03*
X135954000Y-75501500D03*
X138494000Y-72961500D03*
X135954000Y-72961500D03*
X138494000Y-70421500D03*
X135954000Y-70421500D03*
X138494000Y-67881500D03*
X135954000Y-67881500D03*
X138494000Y-65341500D03*
X135954000Y-65341500D03*
X138494000Y-62801500D03*
X135954000Y-62801500D03*
X138494000Y-60261500D03*
X135954000Y-60261500D03*
X138494000Y-57721500D03*
X135954000Y-57721500D03*
X138494000Y-55181500D03*
X135954000Y-55181500D03*
X138494000Y-52641500D03*
X135954000Y-52641500D03*
X138494000Y-50101500D03*
D16*
X135954000Y-50101500D03*
D12*
X211392000Y-103632000D03*
X208852000Y-103632000D03*
X206312000Y-103632000D03*
X203772000Y-103632000D03*
X201232000Y-103632000D03*
X198692000Y-103632000D03*
X196152000Y-103632000D03*
G04 #@! TA.AperFunction,ComponentPad*
D11*
G36*
X194256505Y-102533204D02*
G01*
X194280773Y-102536804D01*
X194304572Y-102542765D01*
X194327671Y-102551030D01*
X194349850Y-102561520D01*
X194370893Y-102574132D01*
X194390599Y-102588747D01*
X194408777Y-102605223D01*
X194425253Y-102623401D01*
X194439868Y-102643107D01*
X194452480Y-102664150D01*
X194462970Y-102686329D01*
X194471235Y-102709428D01*
X194477196Y-102733227D01*
X194480796Y-102757495D01*
X194482000Y-102781999D01*
X194482000Y-104482001D01*
X194480796Y-104506505D01*
X194477196Y-104530773D01*
X194471235Y-104554572D01*
X194462970Y-104577671D01*
X194452480Y-104599850D01*
X194439868Y-104620893D01*
X194425253Y-104640599D01*
X194408777Y-104658777D01*
X194390599Y-104675253D01*
X194370893Y-104689868D01*
X194349850Y-104702480D01*
X194327671Y-104712970D01*
X194304572Y-104721235D01*
X194280773Y-104727196D01*
X194256505Y-104730796D01*
X194232001Y-104732000D01*
X192991999Y-104732000D01*
X192967495Y-104730796D01*
X192943227Y-104727196D01*
X192919428Y-104721235D01*
X192896329Y-104712970D01*
X192874150Y-104702480D01*
X192853107Y-104689868D01*
X192833401Y-104675253D01*
X192815223Y-104658777D01*
X192798747Y-104640599D01*
X192784132Y-104620893D01*
X192771520Y-104599850D01*
X192761030Y-104577671D01*
X192752765Y-104554572D01*
X192746804Y-104530773D01*
X192743204Y-104506505D01*
X192742000Y-104482001D01*
X192742000Y-102781999D01*
X192743204Y-102757495D01*
X192746804Y-102733227D01*
X192752765Y-102709428D01*
X192761030Y-102686329D01*
X192771520Y-102664150D01*
X192784132Y-102643107D01*
X192798747Y-102623401D01*
X192815223Y-102605223D01*
X192833401Y-102588747D01*
X192853107Y-102574132D01*
X192874150Y-102561520D01*
X192896329Y-102551030D01*
X192919428Y-102542765D01*
X192943227Y-102536804D01*
X192967495Y-102533204D01*
X192991999Y-102532000D01*
X194232001Y-102532000D01*
X194256505Y-102533204D01*
G37*
G04 #@! TD.AperFunction*
D17*
X147828000Y-78135000D03*
X147828000Y-75595000D03*
X147828000Y-73055000D03*
X147828000Y-70515000D03*
X147828000Y-67975000D03*
X147828000Y-65435000D03*
X147828000Y-62895000D03*
X147828000Y-60355000D03*
X147828000Y-57815000D03*
X147828000Y-55275000D03*
X147828000Y-52735000D03*
X147828000Y-50195000D03*
X147828000Y-47655000D03*
X147828000Y-45115000D03*
X147828000Y-42575000D03*
D18*
X147828000Y-40035000D03*
D17*
X147828000Y-110236000D03*
X147828000Y-107696000D03*
X147828000Y-105156000D03*
X147828000Y-102616000D03*
X147828000Y-100076000D03*
X147828000Y-97536000D03*
X147828000Y-94996000D03*
X147828000Y-92456000D03*
X147828000Y-89916000D03*
X147828000Y-87376000D03*
D18*
X147828000Y-84836000D03*
D19*
X166818100Y-78763800D03*
X182854100Y-49197300D03*
X149980500Y-60037100D03*
D20*
X221170000Y-111760000D02*
X219974700Y-111760000D01*
X217526000Y-116522000D02*
X223813000Y-122809000D01*
X209804000Y-116522000D02*
X217526000Y-116522000D01*
X219974700Y-111760000D02*
X219974700Y-114073300D01*
X219974700Y-114073300D02*
X217526000Y-116522000D01*
X224282000Y-122809000D02*
X223813000Y-122809000D01*
X219774000Y-131508000D02*
X220969300Y-131508000D01*
X223813000Y-122809000D02*
X223813000Y-128664300D01*
X223813000Y-128664300D02*
X220969300Y-131508000D01*
X178595300Y-115092700D02*
X175196000Y-111693400D01*
X175196000Y-111693400D02*
X175196000Y-100520000D01*
X190500000Y-116586000D02*
X189006700Y-115092700D01*
X189006700Y-115092700D02*
X178595300Y-115092700D01*
X178595300Y-115092700D02*
X177102000Y-116586000D01*
X190500000Y-116586000D02*
X191933100Y-115152900D01*
X191933100Y-115152900D02*
X193612000Y-115152900D01*
X177102000Y-116586000D02*
X177228000Y-116712000D01*
X177228000Y-116712000D02*
X177228000Y-124396000D01*
X204724000Y-116522000D02*
X209486000Y-111760000D01*
X209486000Y-111760000D02*
X218630000Y-111760000D01*
X193612000Y-115152900D02*
X203354900Y-115152900D01*
X203354900Y-115152900D02*
X204724000Y-116522000D01*
X193612000Y-103632000D02*
X193612000Y-115152900D01*
X138494000Y-83121500D02*
X149338700Y-83121500D01*
X149338700Y-83121500D02*
X153413900Y-87196700D01*
X153413900Y-87196700D02*
X154686000Y-87196700D01*
X154686000Y-88392000D02*
X154686000Y-87196700D01*
X134810000Y-103695500D02*
X134810000Y-104890800D01*
X147828000Y-110236000D02*
X140155200Y-110236000D01*
X140155200Y-110236000D02*
X134810000Y-104890800D01*
X146939000Y-126936000D02*
X146939000Y-128131300D01*
X167196000Y-131191000D02*
X151194000Y-131191000D01*
X151194000Y-131191000D02*
X148134300Y-128131300D01*
X148134300Y-128131300D02*
X146939000Y-128131300D01*
X146939000Y-124396000D02*
X146939000Y-125591300D01*
X146939000Y-125591300D02*
X148134300Y-125591300D01*
X148134300Y-125591300D02*
X148347700Y-125804700D01*
X148347700Y-125804700D02*
X157036000Y-125804700D01*
X145041000Y-122498000D02*
X146939000Y-124396000D01*
X157036000Y-127000000D02*
X157036000Y-125804700D01*
X137142900Y-83121500D02*
X137142900Y-82750000D01*
X137142900Y-82750000D02*
X137976100Y-81916800D01*
X137976100Y-81916800D02*
X150674000Y-81916800D01*
X150674000Y-81916800D02*
X153413900Y-84656700D01*
X153413900Y-84656700D02*
X154686000Y-84656700D01*
X154686000Y-85852000D02*
X154686000Y-84656700D01*
X135954000Y-83121500D02*
X137142900Y-83121500D01*
X147240400Y-107696000D02*
X149040600Y-109496200D01*
X149040600Y-109496200D02*
X149040600Y-110747300D01*
X149040600Y-110747300D02*
X145041000Y-114746900D01*
X145041000Y-114746900D02*
X145041000Y-122498000D01*
X145041000Y-122498000D02*
X136327000Y-122498000D01*
X136327000Y-122498000D02*
X134810000Y-124015000D01*
X147240400Y-107696000D02*
X146652700Y-107696000D01*
X147828000Y-107696000D02*
X147240400Y-107696000D01*
X134810000Y-101155500D02*
X134810000Y-102350800D01*
X146652700Y-107696000D02*
X141307500Y-102350800D01*
X141307500Y-102350800D02*
X134810000Y-102350800D01*
X167196000Y-128651000D02*
X165545000Y-127000000D01*
X165545000Y-127000000D02*
X157036000Y-127000000D01*
X189484000Y-52260500D02*
X187746700Y-52260500D01*
X187746700Y-52260500D02*
X177967700Y-42481500D01*
X177967700Y-42481500D02*
X167985300Y-42481500D01*
X135954000Y-52641500D02*
X137142900Y-52641500D01*
X147828000Y-42575000D02*
X146652700Y-42575000D01*
X146652700Y-42575000D02*
X146652700Y-43676800D01*
X146652700Y-43676800D02*
X138876900Y-51452600D01*
X138876900Y-51452600D02*
X137960200Y-51452600D01*
X137960200Y-51452600D02*
X137142900Y-52269900D01*
X137142900Y-52269900D02*
X137142900Y-52641500D01*
X153387700Y-42481500D02*
X153294200Y-42575000D01*
X153294200Y-42575000D02*
X147828000Y-42575000D01*
X166560000Y-42481500D02*
X167985300Y-42481500D01*
X166560000Y-42481500D02*
X154813000Y-42481500D01*
X154813000Y-42481500D02*
X153387700Y-42481500D01*
X189484000Y-47180500D02*
X183303600Y-47180500D01*
X183303600Y-47180500D02*
X176064600Y-39941500D01*
X176064600Y-39941500D02*
X166560000Y-39941500D01*
X154813000Y-39941500D02*
X166560000Y-39941500D01*
X147828000Y-40035000D02*
X154719500Y-40035000D01*
X154719500Y-40035000D02*
X154813000Y-39941500D01*
X139682900Y-80581500D02*
X151955500Y-80581500D01*
X151955500Y-80581500D02*
X154686000Y-83312000D01*
X146939000Y-121856000D02*
X146939000Y-123051300D01*
X157036000Y-124460000D02*
X157036000Y-123264700D01*
X146939000Y-123051300D02*
X148134300Y-123051300D01*
X148134300Y-123051300D02*
X148347700Y-123264700D01*
X148347700Y-123264700D02*
X157036000Y-123264700D01*
X138494000Y-80581500D02*
X139682900Y-80581500D01*
X147828000Y-105156000D02*
X146652700Y-105156000D01*
X146652700Y-105156000D02*
X140112200Y-98615500D01*
X140112200Y-98615500D02*
X134810000Y-98615500D01*
X168004800Y-87894500D02*
X167157600Y-87047300D01*
X167157600Y-87047300D02*
X166560000Y-87047300D01*
X166560000Y-101230200D02*
X167531200Y-101230200D01*
X167531200Y-101230200D02*
X168004800Y-100756600D01*
X168004800Y-100756600D02*
X168004800Y-87894500D01*
X201040000Y-63690500D02*
X192020900Y-63690500D01*
X192020900Y-63690500D02*
X186839700Y-68871700D01*
X186839700Y-68871700D02*
X176862100Y-68871700D01*
X176862100Y-68871700D02*
X176182700Y-69551100D01*
X176182700Y-69551100D02*
X176182700Y-78563500D01*
X176182700Y-78563500D02*
X176930700Y-79311500D01*
X176930700Y-79311500D02*
X178287300Y-79311500D01*
X178287300Y-79311500D02*
X179106900Y-80131100D01*
X179106900Y-80131100D02*
X179106900Y-86141600D01*
X179106900Y-86141600D02*
X178317000Y-86931500D01*
X178317000Y-86931500D02*
X168967800Y-86931500D01*
X168967800Y-86931500D02*
X168004800Y-87894500D01*
X166560000Y-85852000D02*
X166560000Y-87047300D01*
X166560000Y-102425500D02*
X166560000Y-101230200D01*
X149801000Y-103882100D02*
X155475400Y-103882100D01*
X155475400Y-103882100D02*
X156932000Y-102425500D01*
X156932000Y-102425500D02*
X166560000Y-102425500D01*
X166560000Y-85852000D02*
X166560000Y-84656700D01*
X166560000Y-84656700D02*
X167531200Y-84656700D01*
X167531200Y-84656700D02*
X168003600Y-84184300D01*
X168003600Y-84184300D02*
X168003600Y-82443000D01*
X168003600Y-82443000D02*
X167676200Y-82115600D01*
X167676200Y-82115600D02*
X161972200Y-82115600D01*
X161972200Y-82115600D02*
X159169600Y-79313000D01*
X159169600Y-79313000D02*
X146547600Y-79313000D01*
X146547600Y-79313000D02*
X144087100Y-76852500D01*
X144087100Y-76852500D02*
X137979700Y-76852500D01*
X137979700Y-76852500D02*
X137142900Y-77689300D01*
X137142900Y-77689300D02*
X137142900Y-78575300D01*
X137142900Y-78575300D02*
X136325600Y-79392600D01*
X136325600Y-79392600D02*
X135954000Y-79392600D01*
X135954000Y-80581500D02*
X135954000Y-79392600D01*
X149801000Y-103882100D02*
X149801000Y-110901700D01*
X149801000Y-110901700D02*
X145502100Y-115200600D01*
X145502100Y-115200600D02*
X145502100Y-117655000D01*
X145502100Y-117655000D02*
X145967800Y-118120700D01*
X145967800Y-118120700D02*
X146939000Y-118120700D01*
X149003300Y-102616000D02*
X149801000Y-103413700D01*
X149801000Y-103413700D02*
X149801000Y-103882100D01*
X146939000Y-119316000D02*
X146939000Y-118120700D01*
X147828000Y-102616000D02*
X149003300Y-102616000D01*
X157036000Y-121920000D02*
X157036000Y-120724700D01*
X146939000Y-119316000D02*
X146939000Y-120511300D01*
X157036000Y-120724700D02*
X155840700Y-120724700D01*
X155840700Y-120724700D02*
X155627300Y-120511300D01*
X155627300Y-120511300D02*
X146939000Y-120511300D01*
X138494000Y-78041500D02*
X139682900Y-78041500D01*
X165101200Y-84770800D02*
X166560000Y-83312000D01*
X165101200Y-98890000D02*
X165101200Y-84770800D01*
X139682900Y-78041500D02*
X141404800Y-79763400D01*
X141404800Y-79763400D02*
X156054500Y-79763400D01*
X156054500Y-79763400D02*
X161061900Y-84770800D01*
X161061900Y-84770800D02*
X165101200Y-84770800D01*
X165101200Y-98890000D02*
X165564500Y-98890000D01*
X165564500Y-98890000D02*
X166560000Y-99885500D01*
X149003300Y-100076000D02*
X150189300Y-98890000D01*
X150189300Y-98890000D02*
X165101200Y-98890000D01*
X147828000Y-100076000D02*
X149003300Y-100076000D01*
X146939000Y-116776000D02*
X149543000Y-119380000D01*
X149543000Y-119380000D02*
X157036000Y-119380000D01*
X201040000Y-61150500D02*
X193074000Y-61150500D01*
X193074000Y-61150500D02*
X185962100Y-68262400D01*
X185962100Y-68262400D02*
X176834500Y-68262400D01*
X176834500Y-68262400D02*
X166818100Y-78278800D01*
X166818100Y-78278800D02*
X166818100Y-78763800D01*
X201040000Y-58610500D02*
X199614700Y-58610500D01*
X154686000Y-61023500D02*
X154686000Y-59828200D01*
X154686000Y-59828200D02*
X167285300Y-59828200D01*
X167285300Y-59828200D02*
X167343200Y-59886100D01*
X167343200Y-59886100D02*
X185482100Y-59886100D01*
X185482100Y-59886100D02*
X186826800Y-58541400D01*
X186826800Y-58541400D02*
X199545600Y-58541400D01*
X199545600Y-58541400D02*
X199614700Y-58610500D01*
X193548000Y-88455500D02*
X192422700Y-88455500D01*
X154686000Y-110300000D02*
X154686000Y-109104700D01*
X154686000Y-109104700D02*
X155881300Y-109104700D01*
X155881300Y-109104700D02*
X158750500Y-106235500D01*
X158750500Y-106235500D02*
X167218100Y-106235500D01*
X167218100Y-106235500D02*
X173200100Y-100253500D01*
X173200100Y-100253500D02*
X173200100Y-100181000D01*
X173200100Y-100181000D02*
X183800300Y-89580800D01*
X183800300Y-89580800D02*
X191297400Y-89580800D01*
X191297400Y-89580800D02*
X192422700Y-88455500D01*
X147828000Y-92456000D02*
X146652700Y-92456000D01*
X146652700Y-92456000D02*
X141128200Y-86931500D01*
X141128200Y-86931500D02*
X135527000Y-86931500D01*
X135527000Y-86931500D02*
X134280900Y-85685400D01*
X134280900Y-85685400D02*
X134280900Y-72876700D01*
X134280900Y-72876700D02*
X135433400Y-71724200D01*
X135433400Y-71724200D02*
X136403500Y-71724200D01*
X136403500Y-71724200D02*
X137172700Y-72493400D01*
X137172700Y-72493400D02*
X137172700Y-74282800D01*
X137172700Y-74282800D02*
X135954000Y-75501500D01*
X180708000Y-86550500D02*
X180708000Y-90260700D01*
X180708000Y-90260700D02*
X167273200Y-103695500D01*
X167273200Y-103695500D02*
X160175800Y-103695500D01*
X160175800Y-103695500D02*
X156111300Y-107760000D01*
X179035300Y-78041500D02*
X180708000Y-79714200D01*
X180708000Y-79714200D02*
X180708000Y-86550500D01*
X180708000Y-86550500D02*
X201104000Y-86550500D01*
X177610000Y-78041500D02*
X179035300Y-78041500D01*
X154686000Y-107760000D02*
X156111300Y-107760000D01*
X212026000Y-50557200D02*
X211359200Y-50557200D01*
X211359200Y-50557200D02*
X206502000Y-45700000D01*
X206502000Y-45700000D02*
X206502000Y-45171600D01*
X206502000Y-45171600D02*
X201727500Y-40397100D01*
X201727500Y-40397100D02*
X200245100Y-40397100D01*
X200245100Y-40397100D02*
X191747700Y-48894500D01*
X191747700Y-48894500D02*
X191747700Y-51928100D01*
X191747700Y-51928100D02*
X190219900Y-53455900D01*
X190219900Y-53455900D02*
X188138600Y-53455900D01*
X188138600Y-53455900D02*
X179010000Y-44327300D01*
X179010000Y-44327300D02*
X174366900Y-44327300D01*
X174366900Y-44327300D02*
X172328000Y-46366200D01*
X172328000Y-46366200D02*
X166560000Y-46366200D01*
X147828000Y-47655000D02*
X146652700Y-47655000D01*
X146652700Y-47655000D02*
X140396200Y-53911500D01*
X140396200Y-53911500D02*
X137224000Y-53911500D01*
X137224000Y-53911500D02*
X135954000Y-55181500D01*
X153387700Y-47561500D02*
X153294200Y-47655000D01*
X153294200Y-47655000D02*
X147828000Y-47655000D01*
X212026000Y-51752500D02*
X212026000Y-50557200D01*
X166560000Y-47561500D02*
X166560000Y-46366200D01*
X154813000Y-47561500D02*
X166560000Y-47561500D01*
X154813000Y-47561500D02*
X153387700Y-47561500D01*
X147828000Y-45115000D02*
X146652700Y-45115000D01*
X138494000Y-52641500D02*
X139682900Y-52641500D01*
X146652700Y-45115000D02*
X146652700Y-45671700D01*
X146652700Y-45671700D02*
X139682900Y-52641500D01*
X153387700Y-45021500D02*
X153294200Y-45115000D01*
X153294200Y-45115000D02*
X147828000Y-45115000D01*
X166560000Y-45021500D02*
X154813000Y-45021500D01*
X154813000Y-45021500D02*
X153387700Y-45021500D01*
X135954000Y-57721500D02*
X137142900Y-57721500D01*
X147828000Y-52735000D02*
X146652700Y-52735000D01*
X146652700Y-52735000D02*
X142855100Y-56532600D01*
X142855100Y-56532600D02*
X137960200Y-56532600D01*
X137960200Y-56532600D02*
X137142900Y-57349900D01*
X137142900Y-57349900D02*
X137142900Y-57721500D01*
X134810000Y-109273700D02*
X133838800Y-109273700D01*
X133838800Y-109273700D02*
X133355800Y-108790700D01*
X133355800Y-108790700D02*
X133355800Y-61137100D01*
X133355800Y-61137100D02*
X135582500Y-58910400D01*
X135582500Y-58910400D02*
X135954000Y-58910400D01*
X134810000Y-110469000D02*
X134810000Y-109273700D01*
X135954000Y-57721500D02*
X135954000Y-58910400D01*
X147828000Y-50195000D02*
X146652700Y-50195000D01*
X146652700Y-50195000D02*
X141666200Y-55181500D01*
X141666200Y-55181500D02*
X138494000Y-55181500D01*
X153387700Y-50101500D02*
X153294200Y-50195000D01*
X153294200Y-50195000D02*
X147828000Y-50195000D01*
X154813000Y-50101500D02*
X153387700Y-50101500D01*
X154813000Y-50101500D02*
X166560000Y-50101500D01*
X166560000Y-50101500D02*
X169454500Y-50101500D01*
X169454500Y-50101500D02*
X174778400Y-44777600D01*
X174778400Y-44777600D02*
X178751300Y-44777600D01*
X178751300Y-44777600D02*
X182854100Y-48880400D01*
X182854100Y-48880400D02*
X182854100Y-49197300D01*
X138494000Y-55181500D02*
X137305100Y-55181500D01*
X137305100Y-55181500D02*
X137305100Y-55553100D01*
X137305100Y-55553100D02*
X136487800Y-56370400D01*
X136487800Y-56370400D02*
X135562800Y-56370400D01*
X135562800Y-56370400D02*
X132855900Y-59077300D01*
X132855900Y-59077300D02*
X132855900Y-115287900D01*
X132855900Y-115287900D02*
X134810000Y-117242000D01*
X177610000Y-75501500D02*
X177610000Y-76696800D01*
X177610000Y-76696800D02*
X178805300Y-76696800D01*
X178805300Y-76696800D02*
X186119000Y-84010500D01*
X186119000Y-84010500D02*
X201104000Y-84010500D01*
X135954000Y-72961500D02*
X135954000Y-74150400D01*
X147828000Y-87376000D02*
X146652700Y-87376000D01*
X146652700Y-87376000D02*
X143668200Y-84391500D01*
X143668200Y-84391500D02*
X135541700Y-84391500D01*
X135541700Y-84391500D02*
X134765100Y-83614900D01*
X134765100Y-83614900D02*
X134765100Y-74967700D01*
X134765100Y-74967700D02*
X135582400Y-74150400D01*
X135582400Y-74150400D02*
X135954000Y-74150400D01*
X201104000Y-81470500D02*
X201104000Y-80275200D01*
X177610000Y-72961500D02*
X177610000Y-74156800D01*
X177610000Y-74156800D02*
X178805300Y-74156800D01*
X178805300Y-74156800D02*
X182687600Y-78039100D01*
X182687600Y-78039100D02*
X197672600Y-78039100D01*
X197672600Y-78039100D02*
X199908700Y-80275200D01*
X199908700Y-80275200D02*
X201104000Y-80275200D01*
X177610000Y-70421500D02*
X182687600Y-75499100D01*
X182687600Y-75499100D02*
X197672600Y-75499100D01*
X197672600Y-75499100D02*
X201104000Y-78930500D01*
X135954000Y-62801500D02*
X137142900Y-62801500D01*
X147828000Y-62895000D02*
X146652700Y-62895000D01*
X146652700Y-62895000D02*
X145557300Y-63990400D01*
X145557300Y-63990400D02*
X137960200Y-63990400D01*
X137960200Y-63990400D02*
X137142900Y-63173100D01*
X137142900Y-63173100D02*
X137142900Y-62801500D01*
X149980500Y-60037100D02*
X152769900Y-57247700D01*
X152769900Y-57247700D02*
X176496300Y-57247700D01*
X176496300Y-57247700D02*
X177610000Y-56134000D01*
X200978000Y-49212500D02*
X200978000Y-50407800D01*
X177610000Y-56134000D02*
X179035300Y-56134000D01*
X179035300Y-56134000D02*
X179878600Y-55290700D01*
X179878600Y-55290700D02*
X194899800Y-55290700D01*
X194899800Y-55290700D02*
X199782700Y-50407800D01*
X199782700Y-50407800D02*
X200978000Y-50407800D01*
X147828000Y-60355000D02*
X149003300Y-60355000D01*
X149003300Y-60355000D02*
X150941800Y-62293500D01*
X150941800Y-62293500D02*
X160210000Y-62293500D01*
X160210000Y-62293500D02*
X165364700Y-67448200D01*
X165364700Y-67448200D02*
X166560000Y-67448200D01*
X139682900Y-60261500D02*
X139776400Y-60355000D01*
X139776400Y-60355000D02*
X147828000Y-60355000D01*
X166560000Y-68643500D02*
X166560000Y-67448200D01*
X179035300Y-53594000D02*
X180281500Y-54840200D01*
X180281500Y-54840200D02*
X191544000Y-54840200D01*
X191544000Y-54840200D02*
X198516400Y-47867800D01*
X198516400Y-47867800D02*
X200978000Y-47867800D01*
X177610000Y-53594000D02*
X179035300Y-53594000D01*
X200978000Y-46672500D02*
X200978000Y-47867800D01*
X138494000Y-60261500D02*
X139682900Y-60261500D01*
X147828000Y-57815000D02*
X149003300Y-57815000D01*
X149003300Y-57815000D02*
X150021000Y-56797300D01*
X150021000Y-56797300D02*
X170362700Y-56797300D01*
X170362700Y-56797300D02*
X174910700Y-52249300D01*
X174910700Y-52249300D02*
X177610000Y-52249300D01*
X147240400Y-57815000D02*
X147828000Y-57815000D01*
X177610000Y-52249300D02*
X184388000Y-52249300D01*
X184388000Y-52249300D02*
X186528600Y-54389900D01*
X186528600Y-54389900D02*
X190720600Y-54389900D01*
X190720600Y-54389900D02*
X199782700Y-45327800D01*
X199782700Y-45327800D02*
X200978000Y-45327800D01*
X200978000Y-44132500D02*
X200978000Y-45327800D01*
X177610000Y-51054000D02*
X177610000Y-52249300D01*
X147240400Y-57815000D02*
X146652700Y-57815000D01*
X135954000Y-60261500D02*
X137142900Y-60261500D01*
X146652700Y-57815000D02*
X145395100Y-59072600D01*
X145395100Y-59072600D02*
X137960200Y-59072600D01*
X137960200Y-59072600D02*
X137142900Y-59889900D01*
X137142900Y-59889900D02*
X137142900Y-60261500D01*
X177610000Y-49334700D02*
X181965800Y-49334700D01*
X181965800Y-49334700D02*
X182553700Y-49922600D01*
X182553700Y-49922600D02*
X182736700Y-49922600D01*
X182736700Y-49922600D02*
X186753700Y-53939600D01*
X186753700Y-53939600D02*
X190413400Y-53939600D01*
X190413400Y-53939600D02*
X199072100Y-45280900D01*
X199072100Y-45280900D02*
X199072100Y-44096100D01*
X199072100Y-44096100D02*
X200380400Y-42787800D01*
X200380400Y-42787800D02*
X200978000Y-42787800D01*
X177610000Y-49709300D02*
X175140900Y-49709300D01*
X175140900Y-49709300D02*
X169575200Y-55275000D01*
X169575200Y-55275000D02*
X147828000Y-55275000D01*
X200978000Y-41592500D02*
X200978000Y-42787800D01*
X177610000Y-49334700D02*
X177610000Y-49709300D01*
X177610000Y-48514000D02*
X177610000Y-49334700D01*
X147828000Y-55275000D02*
X146652700Y-55275000D01*
X146652700Y-55275000D02*
X144206200Y-57721500D01*
X144206200Y-57721500D02*
X138494000Y-57721500D01*
X154686000Y-69838800D02*
X155453800Y-69838800D01*
X155453800Y-69838800D02*
X165966700Y-80351700D01*
X165966700Y-80351700D02*
X175954900Y-80351700D01*
X175954900Y-80351700D02*
X176184700Y-80581500D01*
X177610000Y-80581500D02*
X176184700Y-80581500D01*
X147828000Y-73055000D02*
X146652700Y-73055000D01*
X135954000Y-67881500D02*
X137142900Y-67881500D01*
X137142900Y-67881500D02*
X137142900Y-68253100D01*
X137142900Y-68253100D02*
X137960200Y-69070400D01*
X137960200Y-69070400D02*
X142668100Y-69070400D01*
X142668100Y-69070400D02*
X146652700Y-73055000D01*
X147828000Y-73055000D02*
X149003300Y-73055000D01*
X154686000Y-68643500D02*
X154686000Y-69838800D01*
X149003300Y-73055000D02*
X152219500Y-69838800D01*
X152219500Y-69838800D02*
X154686000Y-69838800D01*
X151767900Y-67596300D02*
X151767900Y-67596400D01*
X151767900Y-67596400D02*
X151767900Y-67750400D01*
X151767900Y-67750400D02*
X149003300Y-70515000D01*
X138494000Y-65341500D02*
X145834300Y-65341500D01*
X145834300Y-65341500D02*
X147197800Y-66705000D01*
X147197800Y-66705000D02*
X150876500Y-66705000D01*
X150876500Y-66705000D02*
X151767900Y-67596300D01*
X151767900Y-67596300D02*
X153260700Y-66103500D01*
X154686000Y-66103500D02*
X153260700Y-66103500D01*
X147828000Y-70515000D02*
X149003300Y-70515000D01*
X154686000Y-63563500D02*
X158587400Y-63563500D01*
X158587400Y-63563500D02*
X164937400Y-69913500D01*
X164937400Y-69913500D02*
X167210600Y-69913500D01*
X167210600Y-69913500D02*
X167347900Y-70050800D01*
X135954000Y-65341500D02*
X137142900Y-65341500D01*
X147828000Y-67975000D02*
X146652700Y-67975000D01*
X146652700Y-67975000D02*
X145208100Y-66530400D01*
X145208100Y-66530400D02*
X137960200Y-66530400D01*
X137960200Y-66530400D02*
X137142900Y-65713100D01*
X137142900Y-65713100D02*
X137142900Y-65341500D01*
X167347900Y-70050800D02*
X168005600Y-70708500D01*
X168005600Y-70708500D02*
X168005600Y-74220200D01*
X168005600Y-74220200D02*
X167157600Y-75068200D01*
X167157600Y-75068200D02*
X166560000Y-75068200D01*
X167347900Y-70050800D02*
X176184700Y-61214000D01*
X177610000Y-61214000D02*
X176184700Y-61214000D01*
X166560000Y-76263500D02*
X166560000Y-75068200D01*
X166560000Y-73723500D02*
X166560000Y-72528200D01*
X147828000Y-65435000D02*
X149003300Y-65435000D01*
X149003300Y-65435000D02*
X149553200Y-64885100D01*
X149553200Y-64885100D02*
X157721600Y-64885100D01*
X157721600Y-64885100D02*
X165364700Y-72528200D01*
X165364700Y-72528200D02*
X166560000Y-72528200D01*
X177610000Y-57478700D02*
X184936300Y-57478700D01*
X184936300Y-57478700D02*
X186673900Y-55741100D01*
X186673900Y-55741100D02*
X198184700Y-55741100D01*
X198184700Y-55741100D02*
X200978000Y-52947800D01*
X177610000Y-58674000D02*
X177610000Y-57478700D01*
X200978000Y-51752500D02*
X200978000Y-52947800D01*
X147828000Y-78135000D02*
X149003300Y-78135000D01*
X154686000Y-74306900D02*
X154800400Y-74306900D01*
X154800400Y-74306900D02*
X161866400Y-81372900D01*
X161866400Y-81372900D02*
X173321400Y-81372900D01*
X173321400Y-81372900D02*
X176414700Y-84466200D01*
X176414700Y-84466200D02*
X177610000Y-84466200D01*
X149003300Y-78135000D02*
X152831400Y-74306900D01*
X152831400Y-74306900D02*
X154686000Y-74306900D01*
X154686000Y-74306900D02*
X154686000Y-74192500D01*
X147304800Y-78135000D02*
X147828000Y-78135000D01*
X177610000Y-85661500D02*
X177610000Y-84466200D01*
X154686000Y-73723500D02*
X154686000Y-74192500D01*
X147304800Y-78135000D02*
X146652700Y-78135000D01*
X135954000Y-70421500D02*
X137142900Y-70421500D01*
X137142900Y-70421500D02*
X137142900Y-70793100D01*
X137142900Y-70793100D02*
X137960200Y-71610400D01*
X137960200Y-71610400D02*
X140128100Y-71610400D01*
X140128100Y-71610400D02*
X146652700Y-78135000D01*
X177610000Y-81926200D02*
X176414700Y-81926200D01*
X176414700Y-81926200D02*
X175380400Y-80891900D01*
X175380400Y-80891900D02*
X163925400Y-80891900D01*
X163925400Y-80891900D02*
X154686000Y-71652500D01*
X177610000Y-83121500D02*
X177610000Y-81926200D01*
X154686000Y-71652500D02*
X154686000Y-72378800D01*
X154686000Y-71183500D02*
X154686000Y-71652500D01*
X147828000Y-75595000D02*
X149003300Y-75595000D01*
X149003300Y-75595000D02*
X152219500Y-72378800D01*
X152219500Y-72378800D02*
X154686000Y-72378800D01*
X179768000Y-124396000D02*
X180963300Y-124396000D01*
X191897000Y-132842000D02*
X190701700Y-132842000D01*
X190701700Y-132842000D02*
X190701700Y-132244400D01*
X190701700Y-132244400D02*
X185065000Y-126607700D01*
X185065000Y-126607700D02*
X182577300Y-126607700D01*
X182577300Y-126607700D02*
X180963300Y-124993700D01*
X180963300Y-124993700D02*
X180963300Y-124396000D01*
X221742000Y-122809000D02*
X220546700Y-122809000D01*
X196977000Y-132842000D02*
X198172300Y-132842000D01*
X198172300Y-132842000D02*
X198172300Y-133439700D01*
X198172300Y-133439700D02*
X199066200Y-134333600D01*
X199066200Y-134333600D02*
X207619200Y-134333600D01*
X207619200Y-134333600D02*
X208407000Y-133545800D01*
X208407000Y-133545800D02*
X208407000Y-132173800D01*
X208407000Y-132173800D02*
X215878000Y-124702800D01*
X215878000Y-124702800D02*
X219624100Y-124702800D01*
X219624100Y-124702800D02*
X220546700Y-123780200D01*
X220546700Y-123780200D02*
X220546700Y-122809000D01*
X206312000Y-103632000D02*
X205116700Y-103632000D01*
X187896000Y-100520000D02*
X202602300Y-100520000D01*
X202602300Y-100520000D02*
X205116700Y-103034400D01*
X205116700Y-103034400D02*
X205116700Y-103632000D01*
X185356000Y-100520000D02*
X186551300Y-100520000D01*
X203772000Y-103632000D02*
X202576700Y-103632000D01*
X202576700Y-103632000D02*
X202576700Y-103034400D01*
X202576700Y-103034400D02*
X201290600Y-101748300D01*
X201290600Y-101748300D02*
X188791300Y-101748300D01*
X188791300Y-101748300D02*
X188548600Y-101991000D01*
X188548600Y-101991000D02*
X187424700Y-101991000D01*
X187424700Y-101991000D02*
X186551300Y-101117600D01*
X186551300Y-101117600D02*
X186551300Y-100520000D01*
X181471300Y-100520000D02*
X181471300Y-101117700D01*
X181471300Y-101117700D02*
X182795000Y-102441400D01*
X182795000Y-102441400D02*
X188773500Y-102441400D01*
X188773500Y-102441400D02*
X189016200Y-102198700D01*
X189016200Y-102198700D02*
X196661000Y-102198700D01*
X196661000Y-102198700D02*
X197496700Y-103034400D01*
X197496700Y-103034400D02*
X197496700Y-103632000D01*
X180276000Y-100520000D02*
X181471300Y-100520000D01*
X198692000Y-103632000D02*
X197496700Y-103632000D01*
X226250000Y-111760000D02*
X225054700Y-111760000D01*
X211392000Y-103632000D02*
X217524300Y-103632000D01*
X217524300Y-103632000D02*
X225054700Y-111162400D01*
X225054700Y-111162400D02*
X225054700Y-111760000D01*
X210047300Y-103632000D02*
X210047300Y-104229600D01*
X210047300Y-104229600D02*
X213543400Y-107725700D01*
X213543400Y-107725700D02*
X219078000Y-107725700D01*
X219078000Y-107725700D02*
X222514700Y-111162400D01*
X222514700Y-111162400D02*
X222514700Y-111760000D01*
X223710000Y-111760000D02*
X222514700Y-111760000D01*
X208852000Y-103632000D02*
X210047300Y-103632000D01*
X189484000Y-49720500D02*
X189484000Y-48525200D01*
X185992000Y-38735000D02*
X185992000Y-39860300D01*
X185992000Y-39860300D02*
X190945100Y-44813400D01*
X190945100Y-44813400D02*
X190945100Y-48035300D01*
X190945100Y-48035300D02*
X190455200Y-48525200D01*
X190455200Y-48525200D02*
X189484000Y-48525200D01*
X215836000Y-92710000D02*
X215836000Y-91514700D01*
X215836000Y-91514700D02*
X215238400Y-91514700D01*
X215238400Y-91514700D02*
X202702600Y-78978900D01*
X202702600Y-78978900D02*
X202702600Y-78194700D01*
X202702600Y-78194700D02*
X198802900Y-74295000D01*
X198802900Y-74295000D02*
X189420000Y-74295000D01*
X215836000Y-90170000D02*
X215836000Y-88974700D01*
X215836000Y-88974700D02*
X214640700Y-88974700D01*
X214640700Y-88974700D02*
X194881000Y-69215000D01*
X194881000Y-69215000D02*
X189420000Y-69215000D01*
X215836000Y-85090000D02*
X215836000Y-83894700D01*
X215836000Y-83894700D02*
X216433600Y-83894700D01*
X216433600Y-83894700D02*
X217303400Y-83024900D01*
X217303400Y-83024900D02*
X217303400Y-44329900D01*
X217303400Y-44329900D02*
X212026000Y-39052500D01*
X215836000Y-82550000D02*
X215836000Y-81354700D01*
X215836000Y-81354700D02*
X215238300Y-81354700D01*
X215238300Y-81354700D02*
X212090000Y-78206400D01*
X212090000Y-78206400D02*
X212090000Y-68262500D01*
X212090000Y-63182500D02*
X212090000Y-64377800D01*
X215836000Y-80010000D02*
X215836000Y-78814700D01*
X215836000Y-78814700D02*
X215238300Y-78814700D01*
X215238300Y-78814700D02*
X213612500Y-77188900D01*
X213612500Y-77188900D02*
X213612500Y-65302700D01*
X213612500Y-65302700D02*
X212687600Y-64377800D01*
X212687600Y-64377800D02*
X212090000Y-64377800D01*
X215836000Y-76274700D02*
X215238400Y-76274700D01*
X215238400Y-76274700D02*
X214287900Y-75324200D01*
X214287900Y-75324200D02*
X214287900Y-63438100D01*
X214287900Y-63438100D02*
X212687600Y-61837800D01*
X212687600Y-61837800D02*
X212090000Y-61837800D01*
X212090000Y-60642500D02*
X212090000Y-61837800D01*
X215836000Y-77470000D02*
X215836000Y-76274700D01*
X189420000Y-70559700D02*
X188448800Y-70559700D01*
X188448800Y-70559700D02*
X187986000Y-70096900D01*
X187986000Y-70096900D02*
X187986000Y-68362300D01*
X187986000Y-68362300D02*
X190625800Y-65722500D01*
X190625800Y-65722500D02*
X212090000Y-65722500D01*
X189420000Y-71755000D02*
X189420000Y-70559700D01*
X212026000Y-41592500D02*
X212026000Y-42787800D01*
X212090000Y-58102500D02*
X212090000Y-56907200D01*
X212090000Y-56907200D02*
X213061200Y-56907200D01*
X213061200Y-56907200D02*
X213520900Y-56447500D01*
X213520900Y-56447500D02*
X213520900Y-43685100D01*
X213520900Y-43685100D02*
X212623600Y-42787800D01*
X212623600Y-42787800D02*
X212026000Y-42787800D01*
X207137000Y-132842000D02*
X205941700Y-132842000D01*
X184722000Y-116586000D02*
X185917300Y-116586000D01*
X185917300Y-116586000D02*
X195602900Y-126271600D01*
X195602900Y-126271600D02*
X199968900Y-126271600D01*
X199968900Y-126271600D02*
X205941700Y-132244400D01*
X205941700Y-132244400D02*
X205941700Y-132842000D01*
X204597000Y-132842000D02*
X203401700Y-132842000D01*
X182182000Y-116586000D02*
X183377300Y-116586000D01*
X183377300Y-116586000D02*
X183377300Y-117183700D01*
X183377300Y-117183700D02*
X193330900Y-127137300D01*
X193330900Y-127137300D02*
X198294600Y-127137300D01*
X198294600Y-127137300D02*
X203401700Y-132244400D01*
X203401700Y-132244400D02*
X203401700Y-132842000D01*
X217234000Y-131508000D02*
X216038700Y-131508000D01*
X209677000Y-132842000D02*
X210872300Y-132842000D01*
X210872300Y-132842000D02*
X211031300Y-133001000D01*
X211031300Y-133001000D02*
X215516900Y-133001000D01*
X215516900Y-133001000D02*
X216038700Y-132479200D01*
X216038700Y-132479200D02*
X216038700Y-131508000D01*
M02*
