  0
SECTION
  2
HEADER
  9
$ANGBASE
  50
0.0
  9
$ANGDIR
  70
1
  9
$MEASUREMENT
  70
1
  0
ENDSEC
  0
SECTION
  2
TABLES
  0
TABLE
  2
LTYPE
  70
4
  0
LTYPE
  5
40F
  2
CONTINUOUS
  70
0
  3
Solid line
  72
65
  73
0
  40
0.0
  0
LTYPE
  5
410
  2
DASHDOT
 70
0
  3
Dash Dot ____ _ ____ _
 72
65
 73
4
 40
2.0
 49
1.25
 49
-0.25
 49
0.25
 49
-0.25
  0
LTYPE
  5
411
  2
DASHED
 70
0
  3
Dashed __ __ __ __ __
 72
65
 73
2
 40
0.75
 49
0.5
 49
-0.25
  0
LTYPE
  5
43B
  2
DOTTED
 70
0
  3
Dotted .  .  .  .
 72
65
 73
2
 40
0.2
 49
0.0
 49
-0.2
  0
ENDTAB
  0
TABLE
  2
STYLE
  70
4
  0
STYLE
  2
KICAD
  70
0
  40
0
  41
1
  42
1
  50
0
  71
0
  3
isocp.shx
  0
STYLE
  2
KICADB
  70
0
  40
0
  41
1
  42
1
  50
0
  71
0
  3
isocp.shx
  0
STYLE
  2
KICADI
  70
0
  40
0
  41
1
  42
1
  50
15
  71
0
  3
isocp.shx
  0
STYLE
  2
KICADBI
  70
0
  40
0
  41
1
  42
1
  50
15
  71
0
  3
isocp.shx
  0
ENDTAB
  0
TABLE
  2
LAYER
  70
1
  0
LAYER
  2
BLACK
  70
0
  62
7
  6
CONTINUOUS
  0
ENDTAB
  0
ENDSEC
  0
SECTION
  2
ENTITIES
0
LINE
8
BLACK
6
CONTINUOUS
10
0.
20
0.
11
94.7199999999999989
21
0.
0
CIRCLE
8
BLACK
10
3.2332000000000001
20
-90.5763999999999925
40
2.0499999999999998
0
CIRCLE
8
BLACK
10
91.2188000000000017
20
-3.4036
40
2.0499999999999998
0
CIRCLE
8
BLACK
10
91.7955999999999932
20
-90.4928000000000026
40
2.0499999999999998
0
LINE
8
BLACK
6
CONTINUOUS
10
94.7199999999999989
20
0.
11
94.7299999999999898
21
-94.8599999999999994
0
CIRCLE
8
BLACK
10
28.397199999999998
20
-71.7804000000000002
40
2.0499999999999998
0
LINE
8
BLACK
6
CONTINUOUS
10
0.
20
0.
11
0.07
21
-94.8499999999999943
0
LINE
8
BLACK
6
CONTINUOUS
10
0.07
20
-94.8499999999999943
11
94.7299999999999898
21
-94.8599999999999994
0
CIRCLE
8
BLACK
10
3.6067999999999998
20
-3.302
40
2.0499999999999998
0
LINE
8
BLACK
6
CONTINUOUS
10
2.5827679999999997
20
-97.9998379999999969
11
2.5827679999999997
21
-95.9998379999999969
0
LINE
8
BLACK
6
CONTINUOUS
10
2.5827679999999997
20
-95.9998379999999969
11
3.0589580000000001
21
-95.9998379999999969
0
LINE
8
BLACK
6
CONTINUOUS
10
3.0589580000000001
20
-95.9998379999999969
11
3.3446729999999998
21
-96.0950759999999917
0
LINE
8
BLACK
6
CONTINUOUS
10
3.3446729999999998
20
-96.0950759999999917
11
3.5351489999999997
21
-96.2855519999999956
0
LINE
8
BLACK
6
CONTINUOUS
10
3.5351489999999997
20
-96.2855519999999956
11
3.6303869999999998
21
-96.4760279999999995
0
LINE
8
BLACK
6
CONTINUOUS
10
3.6303869999999998
20
-96.4760279999999995
11
3.725625
21
-96.856979999999993
0
LINE
8
BLACK
6
CONTINUOUS
10
3.725625
20
-96.856979999999993
11
3.725625
21
-97.1426949999999891
0
LINE
8
BLACK
6
CONTINUOUS
10
3.725625
20
-97.1426949999999891
11
3.6303869999999998
21
-97.5236469999999969
0
LINE
8
BLACK
6
CONTINUOUS
10
3.6303869999999998
20
-97.5236469999999969
11
3.5351489999999997
21
-97.7141230000000007
0
LINE
8
BLACK
6
CONTINUOUS
10
3.5351489999999997
20
-97.7141230000000007
11
3.3446729999999998
21
-97.9046000000000021
0
LINE
8
BLACK
6
CONTINUOUS
10
3.3446729999999998
20
-97.9046000000000021
11
3.0589580000000001
21
-97.9998379999999969
0
LINE
8
BLACK
6
CONTINUOUS
10
3.0589580000000001
20
-97.9998379999999969
11
2.5827679999999997
21
-97.9998379999999969
0
LINE
8
BLACK
6
CONTINUOUS
10
4.5827679999999997
20
-97.9998379999999969
11
4.5827679999999997
21
-96.6665039999999891
0
LINE
8
BLACK
6
CONTINUOUS
10
4.5827679999999997
20
-97.0474569999999943
11
4.6780059999999999
21
-96.856979999999993
0
LINE
8
BLACK
6
CONTINUOUS
10
4.6780059999999999
20
-96.856979999999993
11
4.773244
21
-96.7617419999999981
0
LINE
8
BLACK
6
CONTINUOUS
10
4.773244
20
-96.7617419999999981
11
4.9637199999999995
21
-96.6665039999999891
0
LINE
8
BLACK
6
CONTINUOUS
10
4.9637199999999995
20
-96.6665039999999891
11
5.1541969999999999
21
-96.6665039999999891
0
LINE
8
BLACK
6
CONTINUOUS
10
5.8208630000000001
20
-97.9998379999999969
11
5.8208630000000001
21
-96.6665039999999891
0
LINE
8
BLACK
6
CONTINUOUS
10
5.8208630000000001
20
-95.9998379999999969
11
5.725625
21
-96.0950759999999917
0
LINE
8
BLACK
6
CONTINUOUS
10
5.725625
20
-96.0950759999999917
11
5.8208630000000001
21
-96.1903140000000008
0
LINE
8
BLACK
6
CONTINUOUS
10
5.8208630000000001
20
-96.1903140000000008
11
5.9161009999999994
21
-96.0950759999999917
0
LINE
8
BLACK
6
CONTINUOUS
10
5.9161009999999994
20
-96.0950759999999917
11
5.8208630000000001
21
-95.9998379999999969
0
LINE
8
BLACK
6
CONTINUOUS
10
5.8208630000000001
20
-95.9998379999999969
11
5.8208630000000001
21
-96.1903140000000008
0
LINE
8
BLACK
6
CONTINUOUS
10
7.0589579999999996
20
-97.9998379999999969
11
6.8684819999999993
21
-97.9046000000000021
0
LINE
8
BLACK
6
CONTINUOUS
10
6.8684819999999993
20
-97.9046000000000021
11
6.773244
21
-97.7141230000000007
0
LINE
8
BLACK
6
CONTINUOUS
10
6.773244
20
-97.7141230000000007
11
6.773244
21
-95.9998379999999969
0
LINE
8
BLACK
6
CONTINUOUS
10
8.1065769999999997
20
-97.9998379999999969
11
7.9161009999999994
21
-97.9046000000000021
0
LINE
8
BLACK
6
CONTINUOUS
10
7.9161009999999994
20
-97.9046000000000021
11
7.8208629999999992
21
-97.7141230000000007
0
LINE
8
BLACK
6
CONTINUOUS
10
7.8208629999999992
20
-97.7141230000000007
11
7.8208629999999992
21
-95.9998379999999969
0
LINE
8
BLACK
6
CONTINUOUS
10
10.3922919999999994
20
-97.9998379999999969
11
10.3922919999999994
21
-95.9998379999999969
0
LINE
8
BLACK
6
CONTINUOUS
10
10.3922919999999994
20
-95.9998379999999969
11
11.0589589999999998
21
-97.428409000000002
0
LINE
8
BLACK
6
CONTINUOUS
10
11.0589589999999998
20
-97.428409000000002
11
11.7256249999999991
21
-95.9998379999999969
0
LINE
8
BLACK
6
CONTINUOUS
10
11.7256249999999991
20
-95.9998379999999969
11
11.7256249999999991
21
-97.9998379999999969
0
LINE
8
BLACK
6
CONTINUOUS
10
13.5351489999999988
20
-97.9998379999999969
11
13.5351489999999988
21
-96.9522189999999995
0
LINE
8
BLACK
6
CONTINUOUS
10
13.5351489999999988
20
-96.9522189999999995
11
13.4399109999999986
21
-96.7617419999999981
0
LINE
8
BLACK
6
CONTINUOUS
10
13.4399109999999986
20
-96.7617419999999981
11
13.2494350000000001
21
-96.6665039999999891
0
LINE
8
BLACK
6
CONTINUOUS
10
13.2494350000000001
20
-96.6665039999999891
11
12.8684820000000002
21
-96.6665039999999891
0
LINE
8
BLACK
6
CONTINUOUS
10
12.8684820000000002
20
-96.6665039999999891
11
12.6780059999999999
21
-96.7617419999999981
0
LINE
8
BLACK
6
CONTINUOUS
10
13.5351489999999988
20
-97.9046000000000021
11
13.3446730000000002
21
-97.9998379999999969
0
LINE
8
BLACK
6
CONTINUOUS
10
13.3446730000000002
20
-97.9998379999999969
11
12.8684820000000002
21
-97.9998379999999969
0
LINE
8
BLACK
6
CONTINUOUS
10
12.8684820000000002
20
-97.9998379999999969
11
12.6780059999999999
21
-97.9046000000000021
0
LINE
8
BLACK
6
CONTINUOUS
10
12.6780059999999999
20
-97.9046000000000021
11
12.5827679999999997
21
-97.7141230000000007
0
LINE
8
BLACK
6
CONTINUOUS
10
12.5827679999999997
20
-97.7141230000000007
11
12.5827679999999997
21
-97.5236469999999969
0
LINE
8
BLACK
6
CONTINUOUS
10
12.5827679999999997
20
-97.5236469999999969
11
12.6780059999999999
21
-97.333170999999993
0
LINE
8
BLACK
6
CONTINUOUS
10
12.6780059999999999
20
-97.333170999999993
11
12.8684820000000002
21
-97.2379329999999982
0
LINE
8
BLACK
6
CONTINUOUS
10
12.8684820000000002
20
-97.2379329999999982
11
13.3446730000000002
21
-97.2379329999999982
0
LINE
8
BLACK
6
CONTINUOUS
10
13.3446730000000002
20
-97.2379329999999982
11
13.5351489999999988
21
-97.1426949999999891
0
LINE
8
BLACK
6
CONTINUOUS
10
14.4875299999999996
20
-96.6665039999999891
11
14.4875299999999996
21
-98.6665039999999891
0
LINE
8
BLACK
6
CONTINUOUS
10
14.4875299999999996
20
-96.7617419999999981
11
14.6780059999999999
21
-96.6665039999999891
0
LINE
8
BLACK
6
CONTINUOUS
10
14.6780059999999999
20
-96.6665039999999891
11
15.0589589999999998
21
-96.6665039999999891
0
LINE
8
BLACK
6
CONTINUOUS
10
15.0589589999999998
20
-96.6665039999999891
11
15.2494350000000001
21
-96.7617419999999981
0
LINE
8
BLACK
6
CONTINUOUS
10
15.2494350000000001
20
-96.7617419999999981
11
15.3446729999999985
21
-96.856979999999993
0
LINE
8
BLACK
6
CONTINUOUS
10
15.3446729999999985
20
-96.856979999999993
11
15.4399109999999986
21
-97.0474569999999943
0
LINE
8
BLACK
6
CONTINUOUS
10
15.4399109999999986
20
-97.0474569999999943
11
15.4399109999999986
21
-97.6188849999999917
0
LINE
8
BLACK
6
CONTINUOUS
10
15.4399109999999986
20
-97.6188849999999917
11
15.3446729999999985
21
-97.8093609999999956
0
LINE
8
BLACK
6
CONTINUOUS
10
15.3446729999999985
20
-97.8093609999999956
11
15.2494350000000001
21
-97.9046000000000021
0
LINE
8
BLACK
6
CONTINUOUS
10
15.2494350000000001
20
-97.9046000000000021
11
15.0589589999999998
21
-97.9998379999999969
0
LINE
8
BLACK
6
CONTINUOUS
10
15.0589589999999998
20
-97.9998379999999969
11
14.6780059999999999
21
-97.9998379999999969
0
LINE
8
BLACK
6
CONTINUOUS
10
14.6780059999999999
20
-97.9998379999999969
11
14.4875299999999996
21
-97.9046000000000021
0
LINE
8
BLACK
6
CONTINUOUS
10
16.2970539999999993
20
-97.8093609999999956
11
16.3922919999999976
21
-97.9046000000000021
0
LINE
8
BLACK
6
CONTINUOUS
10
16.3922919999999976
20
-97.9046000000000021
11
16.2970539999999993
21
-97.9998379999999969
0
LINE
8
BLACK
6
CONTINUOUS
10
16.2970539999999993
20
-97.9998379999999969
11
16.2018160000000009
21
-97.9046000000000021
0
LINE
8
BLACK
6
CONTINUOUS
10
16.2018160000000009
20
-97.9046000000000021
11
16.2970539999999993
21
-97.8093609999999956
0
LINE
8
BLACK
6
CONTINUOUS
10
16.2970539999999993
20
-97.8093609999999956
11
16.2970539999999993
21
-97.9998379999999969
0
LINE
8
BLACK
6
CONTINUOUS
10
16.2970539999999993
20
-96.7617419999999981
11
16.3922919999999976
21
-96.856979999999993
0
LINE
8
BLACK
6
CONTINUOUS
10
16.3922919999999976
20
-96.856979999999993
11
16.2970539999999993
21
-96.9522189999999995
0
LINE
8
BLACK
6
CONTINUOUS
10
16.2970539999999993
20
-96.9522189999999995
11
16.2018160000000009
21
-96.856979999999993
0
LINE
8
BLACK
6
CONTINUOUS
10
16.2018160000000009
20
-96.856979999999993
11
16.2970539999999993
21
-96.7617419999999981
0
LINE
8
BLACK
6
CONTINUOUS
10
16.2970539999999993
20
-96.7617419999999981
11
16.2970539999999993
21
-96.9522189999999995
  0
ENDSEC
  0
EOF
