  0
SECTION
  2
HEADER
  9
$ANGBASE
  50
0.0
  9
$ANGDIR
  70
1
  9
$MEASUREMENT
  70
1
  0
ENDSEC
  0
SECTION
  2
TABLES
  0
TABLE
  2
LTYPE
  70
4
  0
LTYPE
  5
40F
  2
CONTINUOUS
  70
0
  3
Solid line
  72
65
  73
0
  40
0.0
  0
LTYPE
  5
410
  2
DASHDOT
 70
0
  3
Dash Dot ____ _ ____ _
 72
65
 73
4
 40
2.0
 49
1.25
 49
-0.25
 49
0.25
 49
-0.25
  0
LTYPE
  5
411
  2
DASHED
 70
0
  3
Dashed __ __ __ __ __
 72
65
 73
2
 40
0.75
 49
0.5
 49
-0.25
  0
LTYPE
  5
43B
  2
DOTTED
 70
0
  3
Dotted .  .  .  .
 72
65
 73
2
 40
0.2
 49
0.0
 49
-0.2
  0
ENDTAB
  0
TABLE
  2
STYLE
  70
4
  0
STYLE
  2
KICAD
  70
0
  40
0
  41
1
  42
1
  50
0
  71
0
  3
isocp.shx
  0
STYLE
  2
KICADB
  70
0
  40
0
  41
1
  42
1
  50
0
  71
0
  3
isocp.shx
  0
STYLE
  2
KICADI
  70
0
  40
0
  41
1
  42
1
  50
15
  71
0
  3
isocp.shx
  0
STYLE
  2
KICADBI
  70
0
  40
0
  41
1
  42
1
  50
15
  71
0
  3
isocp.shx
  0
ENDTAB
  0
TABLE
  2
LAYER
  70
1
  0
LAYER
  2
BLACK
  70
0
  62
7
  6
CONTINUOUS
  0
ENDTAB
  0
ENDSEC
  0
SECTION
  2
ENTITIES
0
CIRCLE
8
BLACK
10
28.3972
20
-71.7804
40
2.05
0
LINE
8
BLACK
6
CONTINUOUS
10
0
20
0
11
94.72
21
0
0
LINE
8
BLACK
6
CONTINUOUS
10
0.07
20
-94.85
11
94.73
21
-94.86
0
LINE
8
BLACK
6
CONTINUOUS
10
94.72
20
0
11
94.73
21
-94.86
0
LINE
8
BLACK
6
CONTINUOUS
10
0
20
0
11
0.07
21
-94.85
0
LINE
8
BLACK
6
CONTINUOUS
10
2.55119
20
-97.9898
11
2.55119
21
-95.9898
0
LINE
8
BLACK
6
CONTINUOUS
10
2.55119
20
-95.9898
11
3.02738
21
-95.9898
0
LINE
8
BLACK
6
CONTINUOUS
10
3.02738
20
-95.9898
11
3.31309
21
-96.085
0
LINE
8
BLACK
6
CONTINUOUS
10
3.31309
20
-96.085
11
3.50357
21
-96.2755
0
LINE
8
BLACK
6
CONTINUOUS
10
3.50357
20
-96.2755
11
3.59881
21
-96.466
0
LINE
8
BLACK
6
CONTINUOUS
10
3.59881
20
-96.466
11
3.69405
21
-96.8469
0
LINE
8
BLACK
6
CONTINUOUS
10
3.69405
20
-96.8469
11
3.69405
21
-97.1326
0
LINE
8
BLACK
6
CONTINUOUS
10
3.69405
20
-97.1326
11
3.59881
21
-97.5136
0
LINE
8
BLACK
6
CONTINUOUS
10
3.59881
20
-97.5136
11
3.50357
21
-97.704
0
LINE
8
BLACK
6
CONTINUOUS
10
3.50357
20
-97.704
11
3.31309
21
-97.8945
0
LINE
8
BLACK
6
CONTINUOUS
10
3.31309
20
-97.8945
11
3.02738
21
-97.9898
0
LINE
8
BLACK
6
CONTINUOUS
10
3.02738
20
-97.9898
11
2.55119
21
-97.9898
0
LINE
8
BLACK
6
CONTINUOUS
10
4.55119
20
-97.9898
11
4.55119
21
-96.6564
0
LINE
8
BLACK
6
CONTINUOUS
10
4.55119
20
-97.0374
11
4.64643
21
-96.8469
0
LINE
8
BLACK
6
CONTINUOUS
10
4.64643
20
-96.8469
11
4.74167
21
-96.7517
0
LINE
8
BLACK
6
CONTINUOUS
10
4.74167
20
-96.7517
11
4.93214
21
-96.6564
0
LINE
8
BLACK
6
CONTINUOUS
10
4.93214
20
-96.6564
11
5.12262
21
-96.6564
0
LINE
8
BLACK
6
CONTINUOUS
10
5.78928
20
-97.9898
11
5.78928
21
-96.6564
0
LINE
8
BLACK
6
CONTINUOUS
10
5.78928
20
-95.9898
11
5.69405
21
-96.085
0
LINE
8
BLACK
6
CONTINUOUS
10
5.69405
20
-96.085
11
5.78928
21
-96.1802
0
LINE
8
BLACK
6
CONTINUOUS
10
5.78928
20
-96.1802
11
5.88452
21
-96.085
0
LINE
8
BLACK
6
CONTINUOUS
10
5.88452
20
-96.085
11
5.78928
21
-95.9898
0
LINE
8
BLACK
6
CONTINUOUS
10
5.78928
20
-95.9898
11
5.78928
21
-96.1802
0
LINE
8
BLACK
6
CONTINUOUS
10
7.02738
20
-97.9898
11
6.8369
21
-97.8945
0
LINE
8
BLACK
6
CONTINUOUS
10
6.8369
20
-97.8945
11
6.74167
21
-97.704
0
LINE
8
BLACK
6
CONTINUOUS
10
6.74167
20
-97.704
11
6.74167
21
-95.9898
0
LINE
8
BLACK
6
CONTINUOUS
10
8.075
20
-97.9898
11
7.88452
21
-97.8945
0
LINE
8
BLACK
6
CONTINUOUS
10
7.88452
20
-97.8945
11
7.78928
21
-97.704
0
LINE
8
BLACK
6
CONTINUOUS
10
7.78928
20
-97.704
11
7.78928
21
-95.9898
0
LINE
8
BLACK
6
CONTINUOUS
10
10.3607
20
-97.9898
11
10.3607
21
-95.9898
0
LINE
8
BLACK
6
CONTINUOUS
10
10.3607
20
-95.9898
11
11.0274
21
-97.4183
0
LINE
8
BLACK
6
CONTINUOUS
10
11.0274
20
-97.4183
11
11.694
21
-95.9898
0
LINE
8
BLACK
6
CONTINUOUS
10
11.694
20
-95.9898
11
11.694
21
-97.9898
0
LINE
8
BLACK
6
CONTINUOUS
10
13.5036
20
-97.9898
11
13.5036
21
-96.9421
0
LINE
8
BLACK
6
CONTINUOUS
10
13.5036
20
-96.9421
11
13.4083
21
-96.7517
0
LINE
8
BLACK
6
CONTINUOUS
10
13.4083
20
-96.7517
11
13.2179
21
-96.6564
0
LINE
8
BLACK
6
CONTINUOUS
10
13.2179
20
-96.6564
11
12.8369
21
-96.6564
0
LINE
8
BLACK
6
CONTINUOUS
10
12.8369
20
-96.6564
11
12.6464
21
-96.7517
0
LINE
8
BLACK
6
CONTINUOUS
10
13.5036
20
-97.8945
11
13.3131
21
-97.9898
0
LINE
8
BLACK
6
CONTINUOUS
10
13.3131
20
-97.9898
11
12.8369
21
-97.9898
0
LINE
8
BLACK
6
CONTINUOUS
10
12.8369
20
-97.9898
11
12.6464
21
-97.8945
0
LINE
8
BLACK
6
CONTINUOUS
10
12.6464
20
-97.8945
11
12.5512
21
-97.704
0
LINE
8
BLACK
6
CONTINUOUS
10
12.5512
20
-97.704
11
12.5512
21
-97.5136
0
LINE
8
BLACK
6
CONTINUOUS
10
12.5512
20
-97.5136
11
12.6464
21
-97.3231
0
LINE
8
BLACK
6
CONTINUOUS
10
12.6464
20
-97.3231
11
12.8369
21
-97.2279
0
LINE
8
BLACK
6
CONTINUOUS
10
12.8369
20
-97.2279
11
13.3131
21
-97.2279
0
LINE
8
BLACK
6
CONTINUOUS
10
13.3131
20
-97.2279
11
13.5036
21
-97.1326
0
LINE
8
BLACK
6
CONTINUOUS
10
14.456
20
-96.6564
11
14.456
21
-98.6564
0
LINE
8
BLACK
6
CONTINUOUS
10
14.456
20
-96.7517
11
14.6464
21
-96.6564
0
LINE
8
BLACK
6
CONTINUOUS
10
14.6464
20
-96.6564
11
15.0274
21
-96.6564
0
LINE
8
BLACK
6
CONTINUOUS
10
15.0274
20
-96.6564
11
15.2179
21
-96.7517
0
LINE
8
BLACK
6
CONTINUOUS
10
15.2179
20
-96.7517
11
15.3131
21
-96.8469
0
LINE
8
BLACK
6
CONTINUOUS
10
15.3131
20
-96.8469
11
15.4083
21
-97.0374
0
LINE
8
BLACK
6
CONTINUOUS
10
15.4083
20
-97.0374
11
15.4083
21
-97.6088
0
LINE
8
BLACK
6
CONTINUOUS
10
15.4083
20
-97.6088
11
15.3131
21
-97.7993
0
LINE
8
BLACK
6
CONTINUOUS
10
15.3131
20
-97.7993
11
15.2179
21
-97.8945
0
LINE
8
BLACK
6
CONTINUOUS
10
15.2179
20
-97.8945
11
15.0274
21
-97.9898
0
LINE
8
BLACK
6
CONTINUOUS
10
15.0274
20
-97.9898
11
14.6464
21
-97.9898
0
LINE
8
BLACK
6
CONTINUOUS
10
14.6464
20
-97.9898
11
14.456
21
-97.8945
0
LINE
8
BLACK
6
CONTINUOUS
10
16.2655
20
-97.7993
11
16.3607
21
-97.8945
0
LINE
8
BLACK
6
CONTINUOUS
10
16.3607
20
-97.8945
11
16.2655
21
-97.9898
0
LINE
8
BLACK
6
CONTINUOUS
10
16.2655
20
-97.9898
11
16.1702
21
-97.8945
0
LINE
8
BLACK
6
CONTINUOUS
10
16.1702
20
-97.8945
11
16.2655
21
-97.7993
0
LINE
8
BLACK
6
CONTINUOUS
10
16.2655
20
-97.7993
11
16.2655
21
-97.9898
0
LINE
8
BLACK
6
CONTINUOUS
10
16.2655
20
-96.7517
11
16.3607
21
-96.8469
0
LINE
8
BLACK
6
CONTINUOUS
10
16.3607
20
-96.8469
11
16.2655
21
-96.9421
0
LINE
8
BLACK
6
CONTINUOUS
10
16.2655
20
-96.9421
11
16.1702
21
-96.8469
0
LINE
8
BLACK
6
CONTINUOUS
10
16.1702
20
-96.8469
11
16.2655
21
-96.7517
0
LINE
8
BLACK
6
CONTINUOUS
10
16.2655
20
-96.7517
11
16.2655
21
-96.9421
  0
ENDSEC
  0
EOF
