%TF.GenerationSoftware,KiCad,Pcbnew,8.0.3*%
%TF.CreationDate,2024-12-02T19:38:21+10:00*%
%TF.ProjectId,a10 Power Distro PCB v1,61313020-506f-4776-9572-204469737472,rev?*%
%TF.SameCoordinates,Original*%
%TF.FileFunction,Legend,Bot*%
%TF.FilePolarity,Positive*%
%FSLAX46Y46*%
G04 Gerber Fmt 4.6, Leading zero omitted, Abs format (unit mm)*
G04 Created by KiCad (PCBNEW 8.0.3) date 2024-12-02 19:38:21*
%MOMM*%
%LPD*%
G01*
G04 APERTURE LIST*
%ADD10C,0.150000*%
G04 APERTURE END LIST*
D10*
X72283333Y-75629104D02*
X71807143Y-75629104D01*
X72378571Y-75914819D02*
X72045238Y-74914819D01*
X72045238Y-74914819D02*
X71711905Y-75914819D01*
X70854762Y-75914819D02*
X71426190Y-75914819D01*
X71140476Y-75914819D02*
X71140476Y-74914819D01*
X71140476Y-74914819D02*
X71235714Y-75057676D01*
X71235714Y-75057676D02*
X71330952Y-75152914D01*
X71330952Y-75152914D02*
X71426190Y-75200533D01*
X70235714Y-74914819D02*
X70140476Y-74914819D01*
X70140476Y-74914819D02*
X70045238Y-74962438D01*
X70045238Y-74962438D02*
X69997619Y-75010057D01*
X69997619Y-75010057D02*
X69950000Y-75105295D01*
X69950000Y-75105295D02*
X69902381Y-75295771D01*
X69902381Y-75295771D02*
X69902381Y-75533866D01*
X69902381Y-75533866D02*
X69950000Y-75724342D01*
X69950000Y-75724342D02*
X69997619Y-75819580D01*
X69997619Y-75819580D02*
X70045238Y-75867200D01*
X70045238Y-75867200D02*
X70140476Y-75914819D01*
X70140476Y-75914819D02*
X70235714Y-75914819D01*
X70235714Y-75914819D02*
X70330952Y-75867200D01*
X70330952Y-75867200D02*
X70378571Y-75819580D01*
X70378571Y-75819580D02*
X70426190Y-75724342D01*
X70426190Y-75724342D02*
X70473809Y-75533866D01*
X70473809Y-75533866D02*
X70473809Y-75295771D01*
X70473809Y-75295771D02*
X70426190Y-75105295D01*
X70426190Y-75105295D02*
X70378571Y-75010057D01*
X70378571Y-75010057D02*
X70330952Y-74962438D01*
X70330952Y-74962438D02*
X70235714Y-74914819D01*
X68711904Y-75914819D02*
X68711904Y-74914819D01*
X68711904Y-74914819D02*
X68330952Y-74914819D01*
X68330952Y-74914819D02*
X68235714Y-74962438D01*
X68235714Y-74962438D02*
X68188095Y-75010057D01*
X68188095Y-75010057D02*
X68140476Y-75105295D01*
X68140476Y-75105295D02*
X68140476Y-75248152D01*
X68140476Y-75248152D02*
X68188095Y-75343390D01*
X68188095Y-75343390D02*
X68235714Y-75391009D01*
X68235714Y-75391009D02*
X68330952Y-75438628D01*
X68330952Y-75438628D02*
X68711904Y-75438628D01*
X67521428Y-74914819D02*
X67330952Y-74914819D01*
X67330952Y-74914819D02*
X67235714Y-74962438D01*
X67235714Y-74962438D02*
X67140476Y-75057676D01*
X67140476Y-75057676D02*
X67092857Y-75248152D01*
X67092857Y-75248152D02*
X67092857Y-75581485D01*
X67092857Y-75581485D02*
X67140476Y-75771961D01*
X67140476Y-75771961D02*
X67235714Y-75867200D01*
X67235714Y-75867200D02*
X67330952Y-75914819D01*
X67330952Y-75914819D02*
X67521428Y-75914819D01*
X67521428Y-75914819D02*
X67616666Y-75867200D01*
X67616666Y-75867200D02*
X67711904Y-75771961D01*
X67711904Y-75771961D02*
X67759523Y-75581485D01*
X67759523Y-75581485D02*
X67759523Y-75248152D01*
X67759523Y-75248152D02*
X67711904Y-75057676D01*
X67711904Y-75057676D02*
X67616666Y-74962438D01*
X67616666Y-74962438D02*
X67521428Y-74914819D01*
X66759523Y-74914819D02*
X66521428Y-75914819D01*
X66521428Y-75914819D02*
X66330952Y-75200533D01*
X66330952Y-75200533D02*
X66140476Y-75914819D01*
X66140476Y-75914819D02*
X65902381Y-74914819D01*
X65521428Y-75391009D02*
X65188095Y-75391009D01*
X65045238Y-75914819D02*
X65521428Y-75914819D01*
X65521428Y-75914819D02*
X65521428Y-74914819D01*
X65521428Y-74914819D02*
X65045238Y-74914819D01*
X64045238Y-75914819D02*
X64378571Y-75438628D01*
X64616666Y-75914819D02*
X64616666Y-74914819D01*
X64616666Y-74914819D02*
X64235714Y-74914819D01*
X64235714Y-74914819D02*
X64140476Y-74962438D01*
X64140476Y-74962438D02*
X64092857Y-75010057D01*
X64092857Y-75010057D02*
X64045238Y-75105295D01*
X64045238Y-75105295D02*
X64045238Y-75248152D01*
X64045238Y-75248152D02*
X64092857Y-75343390D01*
X64092857Y-75343390D02*
X64140476Y-75391009D01*
X64140476Y-75391009D02*
X64235714Y-75438628D01*
X64235714Y-75438628D02*
X64616666Y-75438628D01*
X62902380Y-75867200D02*
X62759523Y-75914819D01*
X62759523Y-75914819D02*
X62521428Y-75914819D01*
X62521428Y-75914819D02*
X62426190Y-75867200D01*
X62426190Y-75867200D02*
X62378571Y-75819580D01*
X62378571Y-75819580D02*
X62330952Y-75724342D01*
X62330952Y-75724342D02*
X62330952Y-75629104D01*
X62330952Y-75629104D02*
X62378571Y-75533866D01*
X62378571Y-75533866D02*
X62426190Y-75486247D01*
X62426190Y-75486247D02*
X62521428Y-75438628D01*
X62521428Y-75438628D02*
X62711904Y-75391009D01*
X62711904Y-75391009D02*
X62807142Y-75343390D01*
X62807142Y-75343390D02*
X62854761Y-75295771D01*
X62854761Y-75295771D02*
X62902380Y-75200533D01*
X62902380Y-75200533D02*
X62902380Y-75105295D01*
X62902380Y-75105295D02*
X62854761Y-75010057D01*
X62854761Y-75010057D02*
X62807142Y-74962438D01*
X62807142Y-74962438D02*
X62711904Y-74914819D01*
X62711904Y-74914819D02*
X62473809Y-74914819D01*
X62473809Y-74914819D02*
X62330952Y-74962438D01*
X61902380Y-74914819D02*
X61902380Y-75724342D01*
X61902380Y-75724342D02*
X61854761Y-75819580D01*
X61854761Y-75819580D02*
X61807142Y-75867200D01*
X61807142Y-75867200D02*
X61711904Y-75914819D01*
X61711904Y-75914819D02*
X61521428Y-75914819D01*
X61521428Y-75914819D02*
X61426190Y-75867200D01*
X61426190Y-75867200D02*
X61378571Y-75819580D01*
X61378571Y-75819580D02*
X61330952Y-75724342D01*
X61330952Y-75724342D02*
X61330952Y-74914819D01*
X60854761Y-75914819D02*
X60854761Y-74914819D01*
X60854761Y-74914819D02*
X60473809Y-74914819D01*
X60473809Y-74914819D02*
X60378571Y-74962438D01*
X60378571Y-74962438D02*
X60330952Y-75010057D01*
X60330952Y-75010057D02*
X60283333Y-75105295D01*
X60283333Y-75105295D02*
X60283333Y-75248152D01*
X60283333Y-75248152D02*
X60330952Y-75343390D01*
X60330952Y-75343390D02*
X60378571Y-75391009D01*
X60378571Y-75391009D02*
X60473809Y-75438628D01*
X60473809Y-75438628D02*
X60854761Y-75438628D01*
X59854761Y-75914819D02*
X59854761Y-74914819D01*
X59854761Y-74914819D02*
X59473809Y-74914819D01*
X59473809Y-74914819D02*
X59378571Y-74962438D01*
X59378571Y-74962438D02*
X59330952Y-75010057D01*
X59330952Y-75010057D02*
X59283333Y-75105295D01*
X59283333Y-75105295D02*
X59283333Y-75248152D01*
X59283333Y-75248152D02*
X59330952Y-75343390D01*
X59330952Y-75343390D02*
X59378571Y-75391009D01*
X59378571Y-75391009D02*
X59473809Y-75438628D01*
X59473809Y-75438628D02*
X59854761Y-75438628D01*
X58378571Y-75914819D02*
X58854761Y-75914819D01*
X58854761Y-75914819D02*
X58854761Y-74914819D01*
X57854761Y-75438628D02*
X57854761Y-75914819D01*
X58188094Y-74914819D02*
X57854761Y-75438628D01*
X57854761Y-75438628D02*
X57521428Y-74914819D01*
X69989046Y-77794819D02*
X69655713Y-78794819D01*
X69655713Y-78794819D02*
X69322380Y-77794819D01*
X68989046Y-78271009D02*
X68655713Y-78271009D01*
X68512856Y-78794819D02*
X68989046Y-78794819D01*
X68989046Y-78794819D02*
X68989046Y-77794819D01*
X68989046Y-77794819D02*
X68512856Y-77794819D01*
X67512856Y-78794819D02*
X67846189Y-78318628D01*
X68084284Y-78794819D02*
X68084284Y-77794819D01*
X68084284Y-77794819D02*
X67703332Y-77794819D01*
X67703332Y-77794819D02*
X67608094Y-77842438D01*
X67608094Y-77842438D02*
X67560475Y-77890057D01*
X67560475Y-77890057D02*
X67512856Y-77985295D01*
X67512856Y-77985295D02*
X67512856Y-78128152D01*
X67512856Y-78128152D02*
X67560475Y-78223390D01*
X67560475Y-78223390D02*
X67608094Y-78271009D01*
X67608094Y-78271009D02*
X67703332Y-78318628D01*
X67703332Y-78318628D02*
X68084284Y-78318628D01*
X67131903Y-78747200D02*
X66989046Y-78794819D01*
X66989046Y-78794819D02*
X66750951Y-78794819D01*
X66750951Y-78794819D02*
X66655713Y-78747200D01*
X66655713Y-78747200D02*
X66608094Y-78699580D01*
X66608094Y-78699580D02*
X66560475Y-78604342D01*
X66560475Y-78604342D02*
X66560475Y-78509104D01*
X66560475Y-78509104D02*
X66608094Y-78413866D01*
X66608094Y-78413866D02*
X66655713Y-78366247D01*
X66655713Y-78366247D02*
X66750951Y-78318628D01*
X66750951Y-78318628D02*
X66941427Y-78271009D01*
X66941427Y-78271009D02*
X67036665Y-78223390D01*
X67036665Y-78223390D02*
X67084284Y-78175771D01*
X67084284Y-78175771D02*
X67131903Y-78080533D01*
X67131903Y-78080533D02*
X67131903Y-77985295D01*
X67131903Y-77985295D02*
X67084284Y-77890057D01*
X67084284Y-77890057D02*
X67036665Y-77842438D01*
X67036665Y-77842438D02*
X66941427Y-77794819D01*
X66941427Y-77794819D02*
X66703332Y-77794819D01*
X66703332Y-77794819D02*
X66560475Y-77842438D01*
X66131903Y-78794819D02*
X66131903Y-77794819D01*
X65465237Y-77794819D02*
X65274761Y-77794819D01*
X65274761Y-77794819D02*
X65179523Y-77842438D01*
X65179523Y-77842438D02*
X65084285Y-77937676D01*
X65084285Y-77937676D02*
X65036666Y-78128152D01*
X65036666Y-78128152D02*
X65036666Y-78461485D01*
X65036666Y-78461485D02*
X65084285Y-78651961D01*
X65084285Y-78651961D02*
X65179523Y-78747200D01*
X65179523Y-78747200D02*
X65274761Y-78794819D01*
X65274761Y-78794819D02*
X65465237Y-78794819D01*
X65465237Y-78794819D02*
X65560475Y-78747200D01*
X65560475Y-78747200D02*
X65655713Y-78651961D01*
X65655713Y-78651961D02*
X65703332Y-78461485D01*
X65703332Y-78461485D02*
X65703332Y-78128152D01*
X65703332Y-78128152D02*
X65655713Y-77937676D01*
X65655713Y-77937676D02*
X65560475Y-77842438D01*
X65560475Y-77842438D02*
X65465237Y-77794819D01*
X64608094Y-78794819D02*
X64608094Y-77794819D01*
X64608094Y-77794819D02*
X64036666Y-78794819D01*
X64036666Y-78794819D02*
X64036666Y-77794819D01*
X62274761Y-78794819D02*
X62846189Y-78794819D01*
X62560475Y-78794819D02*
X62560475Y-77794819D01*
X62560475Y-77794819D02*
X62655713Y-77937676D01*
X62655713Y-77937676D02*
X62750951Y-78032914D01*
X62750951Y-78032914D02*
X62846189Y-78080533D01*
X61846189Y-78699580D02*
X61798570Y-78747200D01*
X61798570Y-78747200D02*
X61846189Y-78794819D01*
X61846189Y-78794819D02*
X61893808Y-78747200D01*
X61893808Y-78747200D02*
X61846189Y-78699580D01*
X61846189Y-78699580D02*
X61846189Y-78794819D01*
X60846190Y-78794819D02*
X61417618Y-78794819D01*
X61131904Y-78794819D02*
X61131904Y-77794819D01*
X61131904Y-77794819D02*
X61227142Y-77937676D01*
X61227142Y-77937676D02*
X61322380Y-78032914D01*
X61322380Y-78032914D02*
X61417618Y-78080533D01*
M02*
