%TF.GenerationSoftware,KiCad,Pcbnew,7.0.9*%
%TF.CreationDate,2023-12-03T08:59:46+10:00*%
%TF.ProjectId,FUEL,4655454c-2e6b-4696-9361-645f70636258,rev?*%
%TF.SameCoordinates,Original*%
%TF.FileFunction,Copper,L1,Top*%
%TF.FilePolarity,Positive*%
%FSLAX46Y46*%
G04 Gerber Fmt 4.6, Leading zero omitted, Abs format (unit mm)*
G04 Created by KiCad (PCBNEW 7.0.9) date 2023-12-03 08:59:46*
%MOMM*%
%LPD*%
G01*
G04 APERTURE LIST*
G04 Aperture macros list*
%AMRoundRect*
0 Rectangle with rounded corners*
0 $1 Rounding radius*
0 $2 $3 $4 $5 $6 $7 $8 $9 X,Y pos of 4 corners*
0 Add a 4 corners polygon primitive as box body*
4,1,4,$2,$3,$4,$5,$6,$7,$8,$9,$2,$3,0*
0 Add four circle primitives for the rounded corners*
1,1,$1+$1,$2,$3*
1,1,$1+$1,$4,$5*
1,1,$1+$1,$6,$7*
1,1,$1+$1,$8,$9*
0 Add four rect primitives between the rounded corners*
20,1,$1+$1,$2,$3,$4,$5,0*
20,1,$1+$1,$4,$5,$6,$7,0*
20,1,$1+$1,$6,$7,$8,$9,0*
20,1,$1+$1,$8,$9,$2,$3,0*%
G04 Aperture macros list end*
%TA.AperFunction,ComponentPad*%
%ADD10RoundRect,0.250000X-0.620000X-0.845000X0.620000X-0.845000X0.620000X0.845000X-0.620000X0.845000X0*%
%TD*%
%TA.AperFunction,ComponentPad*%
%ADD11O,1.740000X2.190000*%
%TD*%
%TA.AperFunction,ComponentPad*%
%ADD12O,1.800000X1.800000*%
%TD*%
%TA.AperFunction,ComponentPad*%
%ADD13R,1.800000X1.800000*%
%TD*%
%TA.AperFunction,ViaPad*%
%ADD14C,0.800000*%
%TD*%
%TA.AperFunction,Conductor*%
%ADD15C,0.250000*%
%TD*%
G04 APERTURE END LIST*
D10*
%TO.P,SW15,1,A*%
%TO.N,Net-(D12-K)*%
X151090000Y-65690000D03*
D11*
%TO.P,SW15,2,B*%
%TO.N,/ROW5*%
X153630000Y-65690000D03*
%TD*%
D10*
%TO.P,SW10,1,1*%
%TO.N,Net-(D10-K)*%
X133070000Y-73530000D03*
D11*
%TO.P,SW10,2,2*%
%TO.N,/ROW6*%
X135610000Y-73530000D03*
%TD*%
D12*
%TO.P,D4,2,A*%
%TO.N,/COL0*%
X148740000Y-112420000D03*
D13*
%TO.P,D4,1,K*%
%TO.N,Net-(D4-K)*%
X146200000Y-112420000D03*
%TD*%
D11*
%TO.P,SW11,2,2*%
%TO.N,/ROW6*%
X122940000Y-73530000D03*
D10*
%TO.P,SW11,1,1*%
%TO.N,Net-(D11-K)*%
X120400000Y-73530000D03*
%TD*%
%TO.P,SW6,1,A*%
%TO.N,Net-(D6-K)*%
X123370000Y-94840000D03*
D11*
%TO.P,SW6,2,B*%
%TO.N,/ROW5*%
X125910000Y-94840000D03*
%TD*%
D10*
%TO.P,SW9,1,A*%
%TO.N,Net-(D9-K)*%
X123060000Y-54510000D03*
D11*
%TO.P,SW9,2,B*%
%TO.N,/ROW6*%
X125600000Y-54510000D03*
%TD*%
D13*
%TO.P,D14,1,K*%
%TO.N,Net-(D14-K)*%
X150660000Y-74483800D03*
D12*
%TO.P,D14,2,A*%
%TO.N,/COL6*%
X153200000Y-74483800D03*
%TD*%
D10*
%TO.P,J4,1,Pin_1*%
%TO.N,/ANALOG_5V*%
X133910000Y-54510000D03*
D11*
%TO.P,J4,2,Pin_2*%
%TO.N,/RCVR_BRIGHT*%
X136450000Y-54510000D03*
%TO.P,J4,3,Pin_3*%
%TO.N,/ANALOG_GND*%
X138990000Y-54510000D03*
%TD*%
D12*
%TO.P,D10,2,A*%
%TO.N,/COL2*%
X146390000Y-61670000D03*
D13*
%TO.P,D10,1,K*%
%TO.N,Net-(D10-K)*%
X143850000Y-61670000D03*
%TD*%
%TO.P,D7,1,K*%
%TO.N,Net-(D7-K)*%
X133270000Y-112520000D03*
D12*
%TO.P,D7,2,A*%
%TO.N,/COL3*%
X135810000Y-112520000D03*
%TD*%
D10*
%TO.P,J2,1,Pin_1*%
%TO.N,Net-(J1-Pin_1)*%
X110390000Y-64110000D03*
D11*
%TO.P,J2,2,Pin_2*%
%TO.N,Net-(J1-Pin_2)*%
X112930000Y-64110000D03*
%TD*%
D10*
%TO.P,SW13,1,1*%
%TO.N,Net-(D13-K)*%
X133070000Y-65090000D03*
D11*
%TO.P,SW13,2,2*%
%TO.N,/ROW6*%
X135610000Y-65090000D03*
%TD*%
D12*
%TO.P,D11,2,A*%
%TO.N,/COL3*%
X153200000Y-81626900D03*
D13*
%TO.P,D11,1,K*%
%TO.N,Net-(D11-K)*%
X150660000Y-81626900D03*
%TD*%
%TO.P,D13,1,K*%
%TO.N,Net-(D13-K)*%
X150660000Y-78055300D03*
D12*
%TO.P,D13,2,A*%
%TO.N,/COL4*%
X153200000Y-78055300D03*
%TD*%
%TO.P,D12,2,A*%
%TO.N,/COL7*%
X146390000Y-65160000D03*
D13*
%TO.P,D12,1,K*%
%TO.N,Net-(D12-K)*%
X143850000Y-65160000D03*
%TD*%
D10*
%TO.P,J3,1,Pin_1*%
%TO.N,/COL0*%
X109200000Y-84490000D03*
D11*
%TO.P,J3,2,Pin_2*%
%TO.N,/COL1*%
X111740000Y-84490000D03*
%TO.P,J3,3,Pin_3*%
%TO.N,/COL2*%
X114280000Y-84490000D03*
%TO.P,J3,4,Pin_4*%
%TO.N,/COL3*%
X116820000Y-84490000D03*
%TO.P,J3,5,Pin_5*%
%TO.N,/COL4*%
X119360000Y-84490000D03*
%TO.P,J3,6,Pin_6*%
%TO.N,/COL5*%
X121900000Y-84490000D03*
%TO.P,J3,7,Pin_7*%
%TO.N,/COL6*%
X124440000Y-84490000D03*
%TO.P,J3,8,Pin_8*%
%TO.N,/COL7*%
X126980000Y-84490000D03*
%TO.P,J3,9,Pin_9*%
%TO.N,/ROW5*%
X129520000Y-84490000D03*
%TO.P,J3,10,Pin_10*%
%TO.N,/ROW6*%
X132060000Y-84490000D03*
%TD*%
D12*
%TO.P,D9,2,A*%
%TO.N,/COL1*%
X146390000Y-68600000D03*
D13*
%TO.P,D9,1,K*%
%TO.N,Net-(D9-K)*%
X143850000Y-68600000D03*
%TD*%
D10*
%TO.P,SW8,1,A*%
%TO.N,Net-(D8-K)*%
X148870000Y-94840000D03*
D11*
%TO.P,SW8,2,B*%
%TO.N,/ROW5*%
X151410000Y-94840000D03*
%TD*%
D12*
%TO.P,D3,2,A*%
%TO.N,/COL1*%
X153200000Y-88770000D03*
D13*
%TO.P,D3,1,K*%
%TO.N,Net-(D3-K)*%
X150660000Y-88770000D03*
%TD*%
D12*
%TO.P,D6,2,A*%
%TO.N,/COL5*%
X143115000Y-81630000D03*
D13*
%TO.P,D6,1,K*%
%TO.N,Net-(D6-K)*%
X140575000Y-81630000D03*
%TD*%
D10*
%TO.P,SW1,1,A*%
%TO.N,Net-(D1-K)*%
X110670000Y-104650000D03*
D11*
%TO.P,SW1,2,B*%
%TO.N,/ROW5*%
X113210000Y-104650000D03*
%TD*%
D13*
%TO.P,D5,1,K*%
%TO.N,Net-(D5-K)*%
X140540000Y-84910000D03*
D12*
%TO.P,D5,2,A*%
%TO.N,/COL0*%
X143080000Y-84910000D03*
%TD*%
D10*
%TO.P,RV1,1,1*%
%TO.N,/ANALOG_5V*%
X146260000Y-54510000D03*
D11*
%TO.P,RV1,2,2*%
%TO.N,/RCVR_BRIGHT*%
X148800000Y-54510000D03*
%TO.P,RV1,3,3*%
%TO.N,/ANALOG_GND*%
X151340000Y-54510000D03*
%TD*%
D13*
%TO.P,D1,1,K*%
%TO.N,Net-(D1-K)*%
X115250000Y-112420000D03*
D12*
%TO.P,D1,2,A*%
%TO.N,/COL6*%
X117790000Y-112420000D03*
%TD*%
D10*
%TO.P,SW2,1,A*%
%TO.N,Net-(D2-K)*%
X123406700Y-104650000D03*
D11*
%TO.P,SW2,2,B*%
%TO.N,/ROW5*%
X125946700Y-104650000D03*
%TD*%
D10*
%TO.P,SW3,1,A*%
%TO.N,Net-(D3-K)*%
X136143300Y-104650000D03*
D11*
%TO.P,SW3,2,B*%
%TO.N,/ROW5*%
X138683300Y-104650000D03*
%TD*%
D10*
%TO.P,J1,1,Pin_1*%
%TO.N,Net-(J1-Pin_1)*%
X110450000Y-55170000D03*
D11*
%TO.P,J1,2,Pin_2*%
%TO.N,Net-(J1-Pin_2)*%
X112990000Y-55170000D03*
%TD*%
D10*
%TO.P,SW14,1,1*%
%TO.N,Net-(D14-K)*%
X120400000Y-65090000D03*
D11*
%TO.P,SW14,2,2*%
%TO.N,/ROW6*%
X122940000Y-65090000D03*
%TD*%
D10*
%TO.P,SW4,1,A*%
%TO.N,Net-(D4-K)*%
X148880000Y-104650000D03*
D11*
%TO.P,SW4,2,B*%
%TO.N,/ROW5*%
X151420000Y-104650000D03*
%TD*%
D10*
%TO.P,SW7,1,A*%
%TO.N,Net-(D7-K)*%
X136120000Y-94840000D03*
D11*
%TO.P,SW7,2,B*%
%TO.N,/ROW5*%
X138660000Y-94840000D03*
%TD*%
D12*
%TO.P,D2,2,A*%
%TO.N,/COL4*%
X126820000Y-112520000D03*
D13*
%TO.P,D2,1,K*%
%TO.N,Net-(D2-K)*%
X124280000Y-112520000D03*
%TD*%
%TO.P,D8,1,K*%
%TO.N,Net-(D8-K)*%
X150660000Y-85198400D03*
D12*
%TO.P,D8,2,A*%
%TO.N,/COL2*%
X153200000Y-85198400D03*
%TD*%
D10*
%TO.P,SW5,1,A*%
%TO.N,Net-(D5-K)*%
X110620000Y-94840000D03*
D11*
%TO.P,SW5,2,B*%
%TO.N,/ROW6*%
X113160000Y-94840000D03*
%TD*%
D14*
%TO.N,/COL6*%
X131296800Y-80258300D03*
%TD*%
D15*
%TO.N,/RCVR_BRIGHT*%
X137645300Y-55107700D02*
X137645300Y-54510000D01*
X138507700Y-55970100D02*
X137645300Y-55107700D01*
X147115800Y-55970100D02*
X138507700Y-55970100D01*
X147604700Y-55481200D02*
X147115800Y-55970100D01*
X147604700Y-54510000D02*
X147604700Y-55481200D01*
X148800000Y-54510000D02*
X147604700Y-54510000D01*
X136450000Y-54510000D02*
X137645300Y-54510000D01*
%TO.N,/ROW6*%
X135610000Y-65090000D02*
X135610000Y-73530000D01*
X135610000Y-73530000D02*
X134414700Y-73530000D01*
X124404700Y-64820600D02*
X124404700Y-54510000D01*
X124135300Y-65090000D02*
X124404700Y-64820600D01*
X125600000Y-54510000D02*
X124404700Y-54510000D01*
X122940000Y-65090000D02*
X124135300Y-65090000D01*
X122940000Y-73530000D02*
X124135300Y-73530000D01*
X132060000Y-77967000D02*
X132060000Y-84490000D01*
X134414700Y-75612300D02*
X132060000Y-77967000D01*
X134414700Y-73530000D02*
X134414700Y-75612300D01*
X128572300Y-77967000D02*
X124135300Y-73530000D01*
X132060000Y-77967000D02*
X128572300Y-77967000D01*
X122940000Y-65090000D02*
X122940000Y-73530000D01*
X115550000Y-93645300D02*
X114355300Y-94840000D01*
X115550000Y-80920000D02*
X115550000Y-93645300D01*
X121744700Y-74725300D02*
X115550000Y-80920000D01*
X121744700Y-73530000D02*
X121744700Y-74725300D01*
X122940000Y-73530000D02*
X121744700Y-73530000D01*
X113160000Y-94840000D02*
X114355300Y-94840000D01*
%TO.N,/ROW5*%
X151420000Y-104650000D02*
X151420000Y-103229700D01*
X125910000Y-88100000D02*
X125910000Y-94840000D01*
X129520000Y-84490000D02*
X125910000Y-88100000D01*
X153630000Y-65690000D02*
X153630000Y-67110300D01*
X151410000Y-103219700D02*
X151410000Y-94840000D01*
X151420000Y-103229700D02*
X151410000Y-103219700D01*
X151410000Y-94840000D02*
X152605300Y-94840000D01*
X138660000Y-103206400D02*
X138660000Y-94840000D01*
X138683300Y-103229700D02*
X138660000Y-103206400D01*
X138683300Y-104650000D02*
X138683300Y-103229700D01*
X154915700Y-68396000D02*
X153630000Y-67110300D01*
X154915700Y-92529600D02*
X154915700Y-68396000D01*
X152605300Y-94840000D02*
X154915700Y-92529600D01*
%TO.N,/COL7*%
X145164700Y-67610600D02*
X146390000Y-66385300D01*
X145164700Y-73347900D02*
X145164700Y-67610600D01*
X132590400Y-85922200D02*
X145164700Y-73347900D01*
X131565500Y-85922200D02*
X132590400Y-85922200D01*
X130790000Y-85146700D02*
X131565500Y-85922200D01*
X130790000Y-83792000D02*
X130790000Y-85146700D01*
X129997600Y-82999600D02*
X130790000Y-83792000D01*
X129068000Y-82999600D02*
X129997600Y-82999600D01*
X128175300Y-83892300D02*
X129068000Y-82999600D01*
X128175300Y-84490000D02*
X128175300Y-83892300D01*
X126980000Y-84490000D02*
X128175300Y-84490000D01*
X146390000Y-65160000D02*
X146390000Y-66385300D01*
%TO.N,/COL2*%
X147615300Y-64120600D02*
X146390000Y-62895300D01*
X147615300Y-80883800D02*
X147615300Y-64120600D01*
X150704600Y-83973100D02*
X147615300Y-80883800D01*
X151745000Y-83973100D02*
X150704600Y-83973100D01*
X151974700Y-84202800D02*
X151745000Y-83973100D01*
X151974700Y-85198400D02*
X151974700Y-84202800D01*
X153200000Y-85198400D02*
X151974700Y-85198400D01*
X146390000Y-61670000D02*
X146390000Y-62895300D01*
%TO.N,Net-(D8-K)*%
X152326600Y-86865000D02*
X150660000Y-85198400D01*
X153039000Y-86865000D02*
X152326600Y-86865000D01*
X154465400Y-88291400D02*
X153039000Y-86865000D01*
X154465400Y-89244600D02*
X154465400Y-88291400D01*
X148870000Y-94840000D02*
X154465400Y-89244600D01*
%TO.N,Net-(D7-K)*%
X133270000Y-97690000D02*
X136120000Y-94840000D01*
X133270000Y-112520000D02*
X133270000Y-97690000D01*
%TO.N,/COL0*%
X143080000Y-105534700D02*
X148740000Y-111194700D01*
X143080000Y-84910000D02*
X143080000Y-105534700D01*
X148740000Y-112420000D02*
X148740000Y-111194700D01*
%TO.N,/COL1*%
X146390000Y-83197500D02*
X146390000Y-68600000D01*
X150737200Y-87544700D02*
X146390000Y-83197500D01*
X151745000Y-87544700D02*
X150737200Y-87544700D01*
X151974700Y-87774400D02*
X151745000Y-87544700D01*
X151974700Y-88770000D02*
X151974700Y-87774400D01*
X153200000Y-88770000D02*
X151974700Y-88770000D01*
%TO.N,Net-(J1-Pin_2)*%
X112930000Y-56650300D02*
X112930000Y-64110000D01*
X112990000Y-56590300D02*
X112930000Y-56650300D01*
X112990000Y-55170000D02*
X112990000Y-56590300D01*
%TO.N,Net-(J1-Pin_1)*%
X110390000Y-55230000D02*
X110390000Y-64110000D01*
X110450000Y-55170000D02*
X110390000Y-55230000D01*
%TO.N,/COL4*%
X124730400Y-109205100D02*
X126820000Y-111294700D01*
X124730400Y-103582200D02*
X124730400Y-109205100D01*
X119360000Y-98211800D02*
X124730400Y-103582200D01*
X119360000Y-84490000D02*
X119360000Y-98211800D01*
X126820000Y-112520000D02*
X126820000Y-111294700D01*
%TO.N,Net-(D10-K)*%
X134414600Y-72185400D02*
X133070000Y-73530000D01*
X134414600Y-64356400D02*
X134414600Y-72185400D01*
X137101000Y-61670000D02*
X134414600Y-64356400D01*
X143850000Y-61670000D02*
X137101000Y-61670000D01*
%TO.N,/COL6*%
X129269400Y-80258300D02*
X131296800Y-80258300D01*
X125037700Y-84490000D02*
X129269400Y-80258300D01*
X124440000Y-84490000D02*
X124738900Y-84490000D01*
X124738900Y-84490000D02*
X125037700Y-84490000D01*
X118152900Y-110831800D02*
X117790000Y-111194700D01*
X118152900Y-83759800D02*
X118152900Y-110831800D01*
X118869500Y-83043200D02*
X118152900Y-83759800D01*
X123292100Y-83043200D02*
X118869500Y-83043200D01*
X124738900Y-84490000D02*
X123292100Y-83043200D01*
X117790000Y-112420000D02*
X117790000Y-111194700D01*
%TO.N,Net-(D6-K)*%
X124822100Y-96292100D02*
X123370000Y-94840000D01*
X126445500Y-96292100D02*
X124822100Y-96292100D01*
X139882300Y-82855300D02*
X126445500Y-96292100D01*
X140575000Y-82855300D02*
X139882300Y-82855300D01*
X140575000Y-81630000D02*
X140575000Y-82855300D01*
%TO.N,Net-(D1-K)*%
X110670000Y-106614700D02*
X110670000Y-104650000D01*
X115250000Y-111194700D02*
X110670000Y-106614700D01*
X115250000Y-112420000D02*
X115250000Y-111194700D01*
%TO.N,Net-(D2-K)*%
X123406700Y-110421400D02*
X123406700Y-104650000D01*
X124280000Y-111294700D02*
X123406700Y-110421400D01*
X124280000Y-112520000D02*
X124280000Y-111294700D01*
%TD*%
M02*
