  0
SECTION
  2
HEADER
  9
$ANGBASE
  50
0.0
  9
$ANGDIR
  70
1
  9
$MEASUREMENT
  70
1
  0
ENDSEC
  0
SECTION
  2
TABLES
  0
TABLE
  2
LTYPE
  70
4
  0
LTYPE
  5
40F
  2
CONTINUOUS
  70
0
  3
Solid line
  72
65
  73
0
  40
0.0
  0
LTYPE
  5
410
  2
DASHDOT
 70
0
  3
Dash Dot ____ _ ____ _
 72
65
 73
4
 40
2.0
 49
1.25
 49
-0.25
 49
0.25
 49
-0.25
  0
LTYPE
  5
411
  2
DASHED
 70
0
  3
Dashed __ __ __ __ __
 72
65
 73
2
 40
0.75
 49
0.5
 49
-0.25
  0
LTYPE
  5
43B
  2
DOTTED
 70
0
  3
Dotted .  .  .  .
 72
65
 73
2
 40
0.2
 49
0.0
 49
-0.2
  0
ENDTAB
  0
TABLE
  2
STYLE
  70
4
  0
STYLE
  2
KICAD
  70
0
  40
0
  41
1
  42
1
  50
0
  71
0
  3
isocp.shx
  0
STYLE
  2
KICADB
  70
0
  40
0
  41
1
  42
1
  50
0
  71
0
  3
isocp.shx
  0
STYLE
  2
KICADI
  70
0
  40
0
  41
1
  42
1
  50
15
  71
0
  3
isocp.shx
  0
STYLE
  2
KICADBI
  70
0
  40
0
  41
1
  42
1
  50
15
  71
0
  3
isocp.shx
  0
ENDTAB
  0
TABLE
  2
LAYER
  70
1
  0
LAYER
  2
BLACK
  70
0
  62
7
  6
CONTINUOUS
  0
ENDTAB
  0
ENDSEC
  0
SECTION
  2
ENTITIES
0
ARC
8
BLACK
10
140.546
20
-113.818
40
2.99996
50
-90.0008
51
-0.100212
0
ARC
8
BLACK
10
81.5464
20
-113.818
40
3.00001
50
-180
51
-90.0008
0
LINE
8
BLACK
6
CONTINUOUS
10
143.546
20
-113.823
11
143.546
21
-63.8176
0
LINE
8
BLACK
6
CONTINUOUS
10
81.5464
20
-116.818
11
140.546
21
-116.818
0
LINE
8
BLACK
6
CONTINUOUS
10
78.5464
20
-63.8176
11
78.5464
21
-113.818
0
LINE
8
BLACK
6
CONTINUOUS
10
140.546
20
-60.8176
11
81.5464
21
-60.8176
0
ARC
8
BLACK
10
140.546
20
-63.8176
40
2.99999
50
-0.000210088
51
90.0008
0
ARC
8
BLACK
10
81.5464
20
-63.8176
40
3.00004
50
-269.999
51
-180
0
LINE
8
BLACK
6
CONTINUOUS
10
80.665
20
-62.935
11
83.415
21
-65.685
0
LINE
8
BLACK
6
CONTINUOUS
10
83.415
20
-62.935
11
80.665
21
-65.685
0
LINE
8
BLACK
6
CONTINUOUS
10
80.665
20
-111.945
11
83.415
21
-114.695
0
LINE
8
BLACK
6
CONTINUOUS
10
83.415
20
-111.945
11
80.665
21
-114.695
0
LINE
8
BLACK
6
CONTINUOUS
10
138.655
20
-111.935
11
141.405
21
-114.685
0
LINE
8
BLACK
6
CONTINUOUS
10
141.405
20
-111.935
11
138.655
21
-114.685
0
LINE
8
BLACK
6
CONTINUOUS
10
138.665
20
-62.955
11
141.415
21
-65.705
0
LINE
8
BLACK
6
CONTINUOUS
10
141.415
20
-62.955
11
138.665
21
-65.705
0
LINE
8
BLACK
6
CONTINUOUS
10
81.0725
20
-119.972
11
81.0725
21
-117.972
0
LINE
8
BLACK
6
CONTINUOUS
10
81.0725
20
-117.972
11
81.5487
21
-117.972
0
LINE
8
BLACK
6
CONTINUOUS
10
81.5487
20
-117.972
11
81.8345
21
-118.068
0
LINE
8
BLACK
6
CONTINUOUS
10
81.8345
20
-118.068
11
82.0249
21
-118.258
0
LINE
8
BLACK
6
CONTINUOUS
10
82.0249
20
-118.258
11
82.1202
21
-118.449
0
LINE
8
BLACK
6
CONTINUOUS
10
82.1202
20
-118.449
11
82.2154
21
-118.83
0
LINE
8
BLACK
6
CONTINUOUS
10
82.2154
20
-118.83
11
82.2154
21
-119.115
0
LINE
8
BLACK
6
CONTINUOUS
10
82.2154
20
-119.115
11
82.1202
21
-119.496
0
LINE
8
BLACK
6
CONTINUOUS
10
82.1202
20
-119.496
11
82.0249
21
-119.687
0
LINE
8
BLACK
6
CONTINUOUS
10
82.0249
20
-119.687
11
81.8345
21
-119.877
0
LINE
8
BLACK
6
CONTINUOUS
10
81.8345
20
-119.877
11
81.5487
21
-119.972
0
LINE
8
BLACK
6
CONTINUOUS
10
81.5487
20
-119.972
11
81.0725
21
-119.972
0
LINE
8
BLACK
6
CONTINUOUS
10
83.0725
20
-119.972
11
83.0725
21
-118.639
0
LINE
8
BLACK
6
CONTINUOUS
10
83.0725
20
-119.02
11
83.1678
21
-118.83
0
LINE
8
BLACK
6
CONTINUOUS
10
83.1678
20
-118.83
11
83.263
21
-118.734
0
LINE
8
BLACK
6
CONTINUOUS
10
83.263
20
-118.734
11
83.4535
21
-118.639
0
LINE
8
BLACK
6
CONTINUOUS
10
83.4535
20
-118.639
11
83.644
21
-118.639
0
LINE
8
BLACK
6
CONTINUOUS
10
84.3106
20
-119.972
11
84.3106
21
-118.639
0
LINE
8
BLACK
6
CONTINUOUS
10
84.3106
20
-117.972
11
84.2154
21
-118.068
0
LINE
8
BLACK
6
CONTINUOUS
10
84.2154
20
-118.068
11
84.3106
21
-118.163
0
LINE
8
BLACK
6
CONTINUOUS
10
84.3106
20
-118.163
11
84.4059
21
-118.068
0
LINE
8
BLACK
6
CONTINUOUS
10
84.4059
20
-118.068
11
84.3106
21
-117.972
0
LINE
8
BLACK
6
CONTINUOUS
10
84.3106
20
-117.972
11
84.3106
21
-118.163
0
LINE
8
BLACK
6
CONTINUOUS
10
85.5487
20
-119.972
11
85.3583
21
-119.877
0
LINE
8
BLACK
6
CONTINUOUS
10
85.3583
20
-119.877
11
85.263
21
-119.687
0
LINE
8
BLACK
6
CONTINUOUS
10
85.263
20
-119.687
11
85.263
21
-117.972
0
LINE
8
BLACK
6
CONTINUOUS
10
86.5964
20
-119.972
11
86.4059
21
-119.877
0
LINE
8
BLACK
6
CONTINUOUS
10
86.4059
20
-119.877
11
86.3106
21
-119.687
0
LINE
8
BLACK
6
CONTINUOUS
10
86.3106
20
-119.687
11
86.3106
21
-117.972
0
LINE
8
BLACK
6
CONTINUOUS
10
88.8821
20
-119.972
11
88.8821
21
-117.972
0
LINE
8
BLACK
6
CONTINUOUS
10
88.8821
20
-117.972
11
89.5487
21
-119.401
0
LINE
8
BLACK
6
CONTINUOUS
10
89.5487
20
-119.401
11
90.2154
21
-117.972
0
LINE
8
BLACK
6
CONTINUOUS
10
90.2154
20
-117.972
11
90.2154
21
-119.972
0
LINE
8
BLACK
6
CONTINUOUS
10
92.0249
20
-119.972
11
92.0249
21
-118.925
0
LINE
8
BLACK
6
CONTINUOUS
10
92.0249
20
-118.925
11
91.9297
21
-118.734
0
LINE
8
BLACK
6
CONTINUOUS
10
91.9297
20
-118.734
11
91.7392
21
-118.639
0
LINE
8
BLACK
6
CONTINUOUS
10
91.7392
20
-118.639
11
91.3583
21
-118.639
0
LINE
8
BLACK
6
CONTINUOUS
10
91.3583
20
-118.639
11
91.1678
21
-118.734
0
LINE
8
BLACK
6
CONTINUOUS
10
92.0249
20
-119.877
11
91.8345
21
-119.972
0
LINE
8
BLACK
6
CONTINUOUS
10
91.8345
20
-119.972
11
91.3583
21
-119.972
0
LINE
8
BLACK
6
CONTINUOUS
10
91.3583
20
-119.972
11
91.1678
21
-119.877
0
LINE
8
BLACK
6
CONTINUOUS
10
91.1678
20
-119.877
11
91.0725
21
-119.687
0
LINE
8
BLACK
6
CONTINUOUS
10
91.0725
20
-119.687
11
91.0725
21
-119.496
0
LINE
8
BLACK
6
CONTINUOUS
10
91.0725
20
-119.496
11
91.1678
21
-119.306
0
LINE
8
BLACK
6
CONTINUOUS
10
91.1678
20
-119.306
11
91.3583
21
-119.21
0
LINE
8
BLACK
6
CONTINUOUS
10
91.3583
20
-119.21
11
91.8345
21
-119.21
0
LINE
8
BLACK
6
CONTINUOUS
10
91.8345
20
-119.21
11
92.0249
21
-119.115
0
LINE
8
BLACK
6
CONTINUOUS
10
92.9773
20
-118.639
11
92.9773
21
-120.639
0
LINE
8
BLACK
6
CONTINUOUS
10
92.9773
20
-118.734
11
93.1678
21
-118.639
0
LINE
8
BLACK
6
CONTINUOUS
10
93.1678
20
-118.639
11
93.5487
21
-118.639
0
LINE
8
BLACK
6
CONTINUOUS
10
93.5487
20
-118.639
11
93.7392
21
-118.734
0
LINE
8
BLACK
6
CONTINUOUS
10
93.7392
20
-118.734
11
93.8345
21
-118.83
0
LINE
8
BLACK
6
CONTINUOUS
10
93.8345
20
-118.83
11
93.9297
21
-119.02
0
LINE
8
BLACK
6
CONTINUOUS
10
93.9297
20
-119.02
11
93.9297
21
-119.591
0
LINE
8
BLACK
6
CONTINUOUS
10
93.9297
20
-119.591
11
93.8345
21
-119.782
0
LINE
8
BLACK
6
CONTINUOUS
10
93.8345
20
-119.782
11
93.7392
21
-119.877
0
LINE
8
BLACK
6
CONTINUOUS
10
93.7392
20
-119.877
11
93.5487
21
-119.972
0
LINE
8
BLACK
6
CONTINUOUS
10
93.5487
20
-119.972
11
93.1678
21
-119.972
0
LINE
8
BLACK
6
CONTINUOUS
10
93.1678
20
-119.972
11
92.9773
21
-119.877
0
LINE
8
BLACK
6
CONTINUOUS
10
94.7868
20
-119.782
11
94.8821
21
-119.877
0
LINE
8
BLACK
6
CONTINUOUS
10
94.8821
20
-119.877
11
94.7868
21
-119.972
0
LINE
8
BLACK
6
CONTINUOUS
10
94.7868
20
-119.972
11
94.6916
21
-119.877
0
LINE
8
BLACK
6
CONTINUOUS
10
94.6916
20
-119.877
11
94.7868
21
-119.782
0
LINE
8
BLACK
6
CONTINUOUS
10
94.7868
20
-119.782
11
94.7868
21
-119.972
0
LINE
8
BLACK
6
CONTINUOUS
10
94.7868
20
-118.734
11
94.8821
21
-118.83
0
LINE
8
BLACK
6
CONTINUOUS
10
94.8821
20
-118.83
11
94.7868
21
-118.925
0
LINE
8
BLACK
6
CONTINUOUS
10
94.7868
20
-118.925
11
94.6916
21
-118.83
0
LINE
8
BLACK
6
CONTINUOUS
10
94.6916
20
-118.83
11
94.7868
21
-118.734
0
LINE
8
BLACK
6
CONTINUOUS
10
94.7868
20
-118.734
11
94.7868
21
-118.925
0
LINE
8
BLACK
6
CONTINUOUS
10
76.4964
20
-122.268
11
78.4964
21
-124.268
0
LINE
8
BLACK
6
CONTINUOUS
10
78.4964
20
-122.268
11
76.4964
21
-124.268
0
LINE
8
BLACK
6
CONTINUOUS
10
80.9773
20
-122.363
11
81.0725
21
-122.268
0
LINE
8
BLACK
6
CONTINUOUS
10
81.0725
20
-122.268
11
81.263
21
-122.172
0
LINE
8
BLACK
6
CONTINUOUS
10
81.263
20
-122.172
11
81.7392
21
-122.172
0
LINE
8
BLACK
6
CONTINUOUS
10
81.7392
20
-122.172
11
81.9297
21
-122.268
0
LINE
8
BLACK
6
CONTINUOUS
10
81.9297
20
-122.268
11
82.0249
21
-122.363
0
LINE
8
BLACK
6
CONTINUOUS
10
82.0249
20
-122.363
11
82.1202
21
-122.553
0
LINE
8
BLACK
6
CONTINUOUS
10
82.1202
20
-122.553
11
82.1202
21
-122.744
0
LINE
8
BLACK
6
CONTINUOUS
10
82.1202
20
-122.744
11
82.0249
21
-123.03
0
LINE
8
BLACK
6
CONTINUOUS
10
82.0249
20
-123.03
11
80.8821
21
-124.172
0
LINE
8
BLACK
6
CONTINUOUS
10
80.8821
20
-124.172
11
82.1202
21
-124.172
0
LINE
8
BLACK
6
CONTINUOUS
10
82.9773
20
-123.982
11
83.0725
21
-124.077
0
LINE
8
BLACK
6
CONTINUOUS
10
83.0725
20
-124.077
11
82.9773
21
-124.172
0
LINE
8
BLACK
6
CONTINUOUS
10
82.9773
20
-124.172
11
82.8821
21
-124.077
0
LINE
8
BLACK
6
CONTINUOUS
10
82.8821
20
-124.077
11
82.9773
21
-123.982
0
LINE
8
BLACK
6
CONTINUOUS
10
82.9773
20
-123.982
11
82.9773
21
-124.172
0
LINE
8
BLACK
6
CONTINUOUS
10
83.7392
20
-122.172
11
85.0725
21
-122.172
0
LINE
8
BLACK
6
CONTINUOUS
10
85.0725
20
-122.172
11
84.2154
21
-124.172
0
LINE
8
BLACK
6
CONTINUOUS
10
86.7868
20
-122.172
11
85.8345
21
-122.172
0
LINE
8
BLACK
6
CONTINUOUS
10
85.8345
20
-122.172
11
85.7392
21
-123.125
0
LINE
8
BLACK
6
CONTINUOUS
10
85.7392
20
-123.125
11
85.8345
21
-123.03
0
LINE
8
BLACK
6
CONTINUOUS
10
85.8345
20
-123.03
11
86.0249
21
-122.934
0
LINE
8
BLACK
6
CONTINUOUS
10
86.0249
20
-122.934
11
86.5011
21
-122.934
0
LINE
8
BLACK
6
CONTINUOUS
10
86.5011
20
-122.934
11
86.6916
21
-123.03
0
LINE
8
BLACK
6
CONTINUOUS
10
86.6916
20
-123.03
11
86.7868
21
-123.125
0
LINE
8
BLACK
6
CONTINUOUS
10
86.7868
20
-123.125
11
86.8821
21
-123.315
0
LINE
8
BLACK
6
CONTINUOUS
10
86.8821
20
-123.315
11
86.8821
21
-123.791
0
LINE
8
BLACK
6
CONTINUOUS
10
86.8821
20
-123.791
11
86.7868
21
-123.982
0
LINE
8
BLACK
6
CONTINUOUS
10
86.7868
20
-123.982
11
86.6916
21
-124.077
0
LINE
8
BLACK
6
CONTINUOUS
10
86.6916
20
-124.077
11
86.5011
21
-124.172
0
LINE
8
BLACK
6
CONTINUOUS
10
86.5011
20
-124.172
11
86.0249
21
-124.172
0
LINE
8
BLACK
6
CONTINUOUS
10
86.0249
20
-124.172
11
85.8345
21
-124.077
0
LINE
8
BLACK
6
CONTINUOUS
10
85.8345
20
-124.077
11
85.7392
21
-123.982
0
LINE
8
BLACK
6
CONTINUOUS
10
88.1202
20
-122.172
11
88.3106
21
-122.172
0
LINE
8
BLACK
6
CONTINUOUS
10
88.3106
20
-122.172
11
88.5011
21
-122.268
0
LINE
8
BLACK
6
CONTINUOUS
10
88.5011
20
-122.268
11
88.5964
21
-122.363
0
LINE
8
BLACK
6
CONTINUOUS
10
88.5964
20
-122.363
11
88.6916
21
-122.553
0
LINE
8
BLACK
6
CONTINUOUS
10
88.6916
20
-122.553
11
88.7868
21
-122.934
0
LINE
8
BLACK
6
CONTINUOUS
10
88.7868
20
-122.934
11
88.7868
21
-123.41
0
LINE
8
BLACK
6
CONTINUOUS
10
88.7868
20
-123.41
11
88.6916
21
-123.791
0
LINE
8
BLACK
6
CONTINUOUS
10
88.6916
20
-123.791
11
88.5964
21
-123.982
0
LINE
8
BLACK
6
CONTINUOUS
10
88.5964
20
-123.982
11
88.5011
21
-124.077
0
LINE
8
BLACK
6
CONTINUOUS
10
88.5011
20
-124.077
11
88.3106
21
-124.172
0
LINE
8
BLACK
6
CONTINUOUS
10
88.3106
20
-124.172
11
88.1202
21
-124.172
0
LINE
8
BLACK
6
CONTINUOUS
10
88.1202
20
-124.172
11
87.9297
21
-124.077
0
LINE
8
BLACK
6
CONTINUOUS
10
87.9297
20
-124.077
11
87.8345
21
-123.982
0
LINE
8
BLACK
6
CONTINUOUS
10
87.8345
20
-123.982
11
87.7392
21
-123.791
0
LINE
8
BLACK
6
CONTINUOUS
10
87.7392
20
-123.791
11
87.644
21
-123.41
0
LINE
8
BLACK
6
CONTINUOUS
10
87.644
20
-123.41
11
87.644
21
-122.934
0
LINE
8
BLACK
6
CONTINUOUS
10
87.644
20
-122.934
11
87.7392
21
-122.553
0
LINE
8
BLACK
6
CONTINUOUS
10
87.7392
20
-122.553
11
87.8345
21
-122.363
0
LINE
8
BLACK
6
CONTINUOUS
10
87.8345
20
-122.363
11
87.9297
21
-122.268
0
LINE
8
BLACK
6
CONTINUOUS
10
87.9297
20
-122.268
11
88.1202
21
-122.172
0
LINE
8
BLACK
6
CONTINUOUS
10
89.644
20
-124.172
11
89.644
21
-122.839
0
LINE
8
BLACK
6
CONTINUOUS
10
89.644
20
-123.03
11
89.7392
21
-122.934
0
LINE
8
BLACK
6
CONTINUOUS
10
89.7392
20
-122.934
11
89.9297
21
-122.839
0
LINE
8
BLACK
6
CONTINUOUS
10
89.9297
20
-122.839
11
90.2154
21
-122.839
0
LINE
8
BLACK
6
CONTINUOUS
10
90.2154
20
-122.839
11
90.4059
21
-122.934
0
LINE
8
BLACK
6
CONTINUOUS
10
90.4059
20
-122.934
11
90.5011
21
-123.125
0
LINE
8
BLACK
6
CONTINUOUS
10
90.5011
20
-123.125
11
90.5011
21
-124.172
0
LINE
8
BLACK
6
CONTINUOUS
10
90.5011
20
-123.125
11
90.5964
21
-122.934
0
LINE
8
BLACK
6
CONTINUOUS
10
90.5964
20
-122.934
11
90.7868
21
-122.839
0
LINE
8
BLACK
6
CONTINUOUS
10
90.7868
20
-122.839
11
91.0725
21
-122.839
0
LINE
8
BLACK
6
CONTINUOUS
10
91.0725
20
-122.839
11
91.263
21
-122.934
0
LINE
8
BLACK
6
CONTINUOUS
10
91.263
20
-122.934
11
91.3583
21
-123.125
0
LINE
8
BLACK
6
CONTINUOUS
10
91.3583
20
-123.125
11
91.3583
21
-124.172
0
LINE
8
BLACK
6
CONTINUOUS
10
92.3106
20
-124.172
11
92.3106
21
-122.839
0
LINE
8
BLACK
6
CONTINUOUS
10
92.3106
20
-123.03
11
92.4059
21
-122.934
0
LINE
8
BLACK
6
CONTINUOUS
10
92.4059
20
-122.934
11
92.5964
21
-122.839
0
LINE
8
BLACK
6
CONTINUOUS
10
92.5964
20
-122.839
11
92.8821
21
-122.839
0
LINE
8
BLACK
6
CONTINUOUS
10
92.8821
20
-122.839
11
93.0725
21
-122.934
0
LINE
8
BLACK
6
CONTINUOUS
10
93.0725
20
-122.934
11
93.1678
21
-123.125
0
LINE
8
BLACK
6
CONTINUOUS
10
93.1678
20
-123.125
11
93.1678
21
-124.172
0
LINE
8
BLACK
6
CONTINUOUS
10
93.1678
20
-123.125
11
93.263
21
-122.934
0
LINE
8
BLACK
6
CONTINUOUS
10
93.263
20
-122.934
11
93.4535
21
-122.839
0
LINE
8
BLACK
6
CONTINUOUS
10
93.4535
20
-122.839
11
93.7392
21
-122.839
0
LINE
8
BLACK
6
CONTINUOUS
10
93.7392
20
-122.839
11
93.9297
21
-122.934
0
LINE
8
BLACK
6
CONTINUOUS
10
93.9297
20
-122.934
11
94.0249
21
-123.125
0
LINE
8
BLACK
6
CONTINUOUS
10
94.0249
20
-123.125
11
94.0249
21
-124.172
0
LINE
8
BLACK
6
CONTINUOUS
10
97.9297
20
-122.077
11
96.2154
21
-124.649
0
LINE
8
BLACK
6
CONTINUOUS
10
100.501
20
-122.172
11
100.692
21
-122.172
0
LINE
8
BLACK
6
CONTINUOUS
10
100.692
20
-122.172
11
100.882
21
-122.268
0
LINE
8
BLACK
6
CONTINUOUS
10
100.882
20
-122.268
11
100.977
21
-122.363
0
LINE
8
BLACK
6
CONTINUOUS
10
100.977
20
-122.363
11
101.073
21
-122.553
0
LINE
8
BLACK
6
CONTINUOUS
10
101.073
20
-122.553
11
101.168
21
-122.934
0
LINE
8
BLACK
6
CONTINUOUS
10
101.168
20
-122.934
11
101.168
21
-123.41
0
LINE
8
BLACK
6
CONTINUOUS
10
101.168
20
-123.41
11
101.073
21
-123.791
0
LINE
8
BLACK
6
CONTINUOUS
10
101.073
20
-123.791
11
100.977
21
-123.982
0
LINE
8
BLACK
6
CONTINUOUS
10
100.977
20
-123.982
11
100.882
21
-124.077
0
LINE
8
BLACK
6
CONTINUOUS
10
100.882
20
-124.077
11
100.692
21
-124.172
0
LINE
8
BLACK
6
CONTINUOUS
10
100.692
20
-124.172
11
100.501
21
-124.172
0
LINE
8
BLACK
6
CONTINUOUS
10
100.501
20
-124.172
11
100.311
21
-124.077
0
LINE
8
BLACK
6
CONTINUOUS
10
100.311
20
-124.077
11
100.215
21
-123.982
0
LINE
8
BLACK
6
CONTINUOUS
10
100.215
20
-123.982
11
100.12
21
-123.791
0
LINE
8
BLACK
6
CONTINUOUS
10
100.12
20
-123.791
11
100.025
21
-123.41
0
LINE
8
BLACK
6
CONTINUOUS
10
100.025
20
-123.41
11
100.025
21
-122.934
0
LINE
8
BLACK
6
CONTINUOUS
10
100.025
20
-122.934
11
100.12
21
-122.553
0
LINE
8
BLACK
6
CONTINUOUS
10
100.12
20
-122.553
11
100.215
21
-122.363
0
LINE
8
BLACK
6
CONTINUOUS
10
100.215
20
-122.363
11
100.311
21
-122.268
0
LINE
8
BLACK
6
CONTINUOUS
10
100.311
20
-122.268
11
100.501
21
-122.172
0
LINE
8
BLACK
6
CONTINUOUS
10
102.025
20
-123.982
11
102.12
21
-124.077
0
LINE
8
BLACK
6
CONTINUOUS
10
102.12
20
-124.077
11
102.025
21
-124.172
0
LINE
8
BLACK
6
CONTINUOUS
10
102.025
20
-124.172
11
101.93
21
-124.077
0
LINE
8
BLACK
6
CONTINUOUS
10
101.93
20
-124.077
11
102.025
21
-123.982
0
LINE
8
BLACK
6
CONTINUOUS
10
102.025
20
-123.982
11
102.025
21
-124.172
0
LINE
8
BLACK
6
CONTINUOUS
10
104.025
20
-124.172
11
102.882
21
-124.172
0
LINE
8
BLACK
6
CONTINUOUS
10
103.453
20
-124.172
11
103.453
21
-122.172
0
LINE
8
BLACK
6
CONTINUOUS
10
103.453
20
-122.172
11
103.263
21
-122.458
0
LINE
8
BLACK
6
CONTINUOUS
10
103.263
20
-122.458
11
103.073
21
-122.649
0
LINE
8
BLACK
6
CONTINUOUS
10
103.073
20
-122.649
11
102.882
21
-122.744
0
LINE
8
BLACK
6
CONTINUOUS
10
105.263
20
-122.172
11
105.453
21
-122.172
0
LINE
8
BLACK
6
CONTINUOUS
10
105.453
20
-122.172
11
105.644
21
-122.268
0
LINE
8
BLACK
6
CONTINUOUS
10
105.644
20
-122.268
11
105.739
21
-122.363
0
LINE
8
BLACK
6
CONTINUOUS
10
105.739
20
-122.363
11
105.834
21
-122.553
0
LINE
8
BLACK
6
CONTINUOUS
10
105.834
20
-122.553
11
105.93
21
-122.934
0
LINE
8
BLACK
6
CONTINUOUS
10
105.93
20
-122.934
11
105.93
21
-123.41
0
LINE
8
BLACK
6
CONTINUOUS
10
105.93
20
-123.41
11
105.834
21
-123.791
0
LINE
8
BLACK
6
CONTINUOUS
10
105.834
20
-123.791
11
105.739
21
-123.982
0
LINE
8
BLACK
6
CONTINUOUS
10
105.739
20
-123.982
11
105.644
21
-124.077
0
LINE
8
BLACK
6
CONTINUOUS
10
105.644
20
-124.077
11
105.453
21
-124.172
0
LINE
8
BLACK
6
CONTINUOUS
10
105.453
20
-124.172
11
105.263
21
-124.172
0
LINE
8
BLACK
6
CONTINUOUS
10
105.263
20
-124.172
11
105.073
21
-124.077
0
LINE
8
BLACK
6
CONTINUOUS
10
105.073
20
-124.077
11
104.977
21
-123.982
0
LINE
8
BLACK
6
CONTINUOUS
10
104.977
20
-123.982
11
104.882
21
-123.791
0
LINE
8
BLACK
6
CONTINUOUS
10
104.882
20
-123.791
11
104.787
21
-123.41
0
LINE
8
BLACK
6
CONTINUOUS
10
104.787
20
-123.41
11
104.787
21
-122.934
0
LINE
8
BLACK
6
CONTINUOUS
10
104.787
20
-122.934
11
104.882
21
-122.553
0
LINE
8
BLACK
6
CONTINUOUS
10
104.882
20
-122.553
11
104.977
21
-122.363
0
LINE
8
BLACK
6
CONTINUOUS
10
104.977
20
-122.363
11
105.073
21
-122.268
0
LINE
8
BLACK
6
CONTINUOUS
10
105.073
20
-122.268
11
105.263
21
-122.172
0
LINE
8
BLACK
6
CONTINUOUS
10
107.073
20
-123.03
11
106.882
21
-122.934
0
LINE
8
BLACK
6
CONTINUOUS
10
106.882
20
-122.934
11
106.787
21
-122.839
0
LINE
8
BLACK
6
CONTINUOUS
10
106.787
20
-122.839
11
106.692
21
-122.649
0
LINE
8
BLACK
6
CONTINUOUS
10
106.692
20
-122.649
11
106.692
21
-122.553
0
LINE
8
BLACK
6
CONTINUOUS
10
106.692
20
-122.553
11
106.787
21
-122.363
0
LINE
8
BLACK
6
CONTINUOUS
10
106.787
20
-122.363
11
106.882
21
-122.268
0
LINE
8
BLACK
6
CONTINUOUS
10
106.882
20
-122.268
11
107.073
21
-122.172
0
LINE
8
BLACK
6
CONTINUOUS
10
107.073
20
-122.172
11
107.453
21
-122.172
0
LINE
8
BLACK
6
CONTINUOUS
10
107.453
20
-122.172
11
107.644
21
-122.268
0
LINE
8
BLACK
6
CONTINUOUS
10
107.644
20
-122.268
11
107.739
21
-122.363
0
LINE
8
BLACK
6
CONTINUOUS
10
107.739
20
-122.363
11
107.834
21
-122.553
0
LINE
8
BLACK
6
CONTINUOUS
10
107.834
20
-122.553
11
107.834
21
-122.649
0
LINE
8
BLACK
6
CONTINUOUS
10
107.834
20
-122.649
11
107.739
21
-122.839
0
LINE
8
BLACK
6
CONTINUOUS
10
107.739
20
-122.839
11
107.644
21
-122.934
0
LINE
8
BLACK
6
CONTINUOUS
10
107.644
20
-122.934
11
107.453
21
-123.03
0
LINE
8
BLACK
6
CONTINUOUS
10
107.453
20
-123.03
11
107.073
21
-123.03
0
LINE
8
BLACK
6
CONTINUOUS
10
107.073
20
-123.03
11
106.882
21
-123.125
0
LINE
8
BLACK
6
CONTINUOUS
10
106.882
20
-123.125
11
106.787
21
-123.22
0
LINE
8
BLACK
6
CONTINUOUS
10
106.787
20
-123.22
11
106.692
21
-123.41
0
LINE
8
BLACK
6
CONTINUOUS
10
106.692
20
-123.41
11
106.692
21
-123.791
0
LINE
8
BLACK
6
CONTINUOUS
10
106.692
20
-123.791
11
106.787
21
-123.982
0
LINE
8
BLACK
6
CONTINUOUS
10
106.787
20
-123.982
11
106.882
21
-124.077
0
LINE
8
BLACK
6
CONTINUOUS
10
106.882
20
-124.077
11
107.073
21
-124.172
0
LINE
8
BLACK
6
CONTINUOUS
10
107.073
20
-124.172
11
107.453
21
-124.172
0
LINE
8
BLACK
6
CONTINUOUS
10
107.453
20
-124.172
11
107.644
21
-124.077
0
LINE
8
BLACK
6
CONTINUOUS
10
107.644
20
-124.077
11
107.739
21
-123.982
0
LINE
8
BLACK
6
CONTINUOUS
10
107.739
20
-123.982
11
107.834
21
-123.791
0
LINE
8
BLACK
6
CONTINUOUS
10
107.834
20
-123.791
11
107.834
21
-123.41
0
LINE
8
BLACK
6
CONTINUOUS
10
107.834
20
-123.41
11
107.739
21
-123.22
0
LINE
8
BLACK
6
CONTINUOUS
10
107.739
20
-123.22
11
107.644
21
-123.125
0
LINE
8
BLACK
6
CONTINUOUS
10
107.644
20
-123.125
11
107.453
21
-123.03
0
LINE
8
BLACK
6
CONTINUOUS
10
108.501
20
-122.172
11
109.739
21
-122.172
0
LINE
8
BLACK
6
CONTINUOUS
10
109.739
20
-122.172
11
109.073
21
-122.934
0
LINE
8
BLACK
6
CONTINUOUS
10
109.073
20
-122.934
11
109.358
21
-122.934
0
LINE
8
BLACK
6
CONTINUOUS
10
109.358
20
-122.934
11
109.549
21
-123.03
0
LINE
8
BLACK
6
CONTINUOUS
10
109.549
20
-123.03
11
109.644
21
-123.125
0
LINE
8
BLACK
6
CONTINUOUS
10
109.644
20
-123.125
11
109.739
21
-123.315
0
LINE
8
BLACK
6
CONTINUOUS
10
109.739
20
-123.315
11
109.739
21
-123.791
0
LINE
8
BLACK
6
CONTINUOUS
10
109.739
20
-123.791
11
109.644
21
-123.982
0
LINE
8
BLACK
6
CONTINUOUS
10
109.644
20
-123.982
11
109.549
21
-124.077
0
LINE
8
BLACK
6
CONTINUOUS
10
109.549
20
-124.077
11
109.358
21
-124.172
0
LINE
8
BLACK
6
CONTINUOUS
10
109.358
20
-124.172
11
108.787
21
-124.172
0
LINE
8
BLACK
6
CONTINUOUS
10
108.787
20
-124.172
11
108.596
21
-124.077
0
LINE
8
BLACK
6
CONTINUOUS
10
108.596
20
-124.077
11
108.501
21
-123.982
0
LINE
8
BLACK
6
CONTINUOUS
10
110.501
20
-122.172
11
110.501
21
-122.553
0
LINE
8
BLACK
6
CONTINUOUS
10
111.263
20
-122.172
11
111.263
21
-122.553
0
LINE
8
BLACK
6
CONTINUOUS
10
114.215
20
-124.934
11
114.12
21
-124.839
0
LINE
8
BLACK
6
CONTINUOUS
10
114.12
20
-124.839
11
113.93
21
-124.553
0
LINE
8
BLACK
6
CONTINUOUS
10
113.93
20
-124.553
11
113.834
21
-124.363
0
LINE
8
BLACK
6
CONTINUOUS
10
113.834
20
-124.363
11
113.739
21
-124.077
0
LINE
8
BLACK
6
CONTINUOUS
10
113.739
20
-124.077
11
113.644
21
-123.601
0
LINE
8
BLACK
6
CONTINUOUS
10
113.644
20
-123.601
11
113.644
21
-123.22
0
LINE
8
BLACK
6
CONTINUOUS
10
113.644
20
-123.22
11
113.739
21
-122.744
0
LINE
8
BLACK
6
CONTINUOUS
10
113.739
20
-122.744
11
113.834
21
-122.458
0
LINE
8
BLACK
6
CONTINUOUS
10
113.834
20
-122.458
11
113.93
21
-122.268
0
LINE
8
BLACK
6
CONTINUOUS
10
113.93
20
-122.268
11
114.12
21
-121.982
0
LINE
8
BLACK
6
CONTINUOUS
10
114.12
20
-121.982
11
114.215
21
-121.887
0
LINE
8
BLACK
6
CONTINUOUS
10
115.834
20
-122.839
11
115.834
21
-124.172
0
LINE
8
BLACK
6
CONTINUOUS
10
115.358
20
-122.077
11
114.882
21
-123.506
0
LINE
8
BLACK
6
CONTINUOUS
10
114.882
20
-123.506
11
116.12
21
-123.506
0
LINE
8
BLACK
6
CONTINUOUS
10
118.406
20
-124.172
11
118.406
21
-122.172
0
LINE
8
BLACK
6
CONTINUOUS
10
119.263
20
-124.172
11
119.263
21
-123.125
0
LINE
8
BLACK
6
CONTINUOUS
10
119.263
20
-123.125
11
119.168
21
-122.934
0
LINE
8
BLACK
6
CONTINUOUS
10
119.168
20
-122.934
11
118.977
21
-122.839
0
LINE
8
BLACK
6
CONTINUOUS
10
118.977
20
-122.839
11
118.692
21
-122.839
0
LINE
8
BLACK
6
CONTINUOUS
10
118.692
20
-122.839
11
118.501
21
-122.934
0
LINE
8
BLACK
6
CONTINUOUS
10
118.501
20
-122.934
11
118.406
21
-123.03
0
LINE
8
BLACK
6
CONTINUOUS
10
120.501
20
-124.172
11
120.311
21
-124.077
0
LINE
8
BLACK
6
CONTINUOUS
10
120.311
20
-124.077
11
120.215
21
-123.982
0
LINE
8
BLACK
6
CONTINUOUS
10
120.215
20
-123.982
11
120.12
21
-123.791
0
LINE
8
BLACK
6
CONTINUOUS
10
120.12
20
-123.791
11
120.12
21
-123.22
0
LINE
8
BLACK
6
CONTINUOUS
10
120.12
20
-123.22
11
120.215
21
-123.03
0
LINE
8
BLACK
6
CONTINUOUS
10
120.215
20
-123.03
11
120.311
21
-122.934
0
LINE
8
BLACK
6
CONTINUOUS
10
120.311
20
-122.934
11
120.501
21
-122.839
0
LINE
8
BLACK
6
CONTINUOUS
10
120.501
20
-122.839
11
120.787
21
-122.839
0
LINE
8
BLACK
6
CONTINUOUS
10
120.787
20
-122.839
11
120.977
21
-122.934
0
LINE
8
BLACK
6
CONTINUOUS
10
120.977
20
-122.934
11
121.073
21
-123.03
0
LINE
8
BLACK
6
CONTINUOUS
10
121.073
20
-123.03
11
121.168
21
-123.22
0
LINE
8
BLACK
6
CONTINUOUS
10
121.168
20
-123.22
11
121.168
21
-123.791
0
LINE
8
BLACK
6
CONTINUOUS
10
121.168
20
-123.791
11
121.073
21
-123.982
0
LINE
8
BLACK
6
CONTINUOUS
10
121.073
20
-123.982
11
120.977
21
-124.077
0
LINE
8
BLACK
6
CONTINUOUS
10
120.977
20
-124.077
11
120.787
21
-124.172
0
LINE
8
BLACK
6
CONTINUOUS
10
120.787
20
-124.172
11
120.501
21
-124.172
0
LINE
8
BLACK
6
CONTINUOUS
10
122.311
20
-124.172
11
122.12
21
-124.077
0
LINE
8
BLACK
6
CONTINUOUS
10
122.12
20
-124.077
11
122.025
21
-123.887
0
LINE
8
BLACK
6
CONTINUOUS
10
122.025
20
-123.887
11
122.025
21
-122.172
0
LINE
8
BLACK
6
CONTINUOUS
10
123.834
20
-124.077
11
123.644
21
-124.172
0
LINE
8
BLACK
6
CONTINUOUS
10
123.644
20
-124.172
11
123.263
21
-124.172
0
LINE
8
BLACK
6
CONTINUOUS
10
123.263
20
-124.172
11
123.073
21
-124.077
0
LINE
8
BLACK
6
CONTINUOUS
10
123.073
20
-124.077
11
122.977
21
-123.887
0
LINE
8
BLACK
6
CONTINUOUS
10
122.977
20
-123.887
11
122.977
21
-123.125
0
LINE
8
BLACK
6
CONTINUOUS
10
122.977
20
-123.125
11
123.073
21
-122.934
0
LINE
8
BLACK
6
CONTINUOUS
10
123.073
20
-122.934
11
123.263
21
-122.839
0
LINE
8
BLACK
6
CONTINUOUS
10
123.263
20
-122.839
11
123.644
21
-122.839
0
LINE
8
BLACK
6
CONTINUOUS
10
123.644
20
-122.839
11
123.834
21
-122.934
0
LINE
8
BLACK
6
CONTINUOUS
10
123.834
20
-122.934
11
123.93
21
-123.125
0
LINE
8
BLACK
6
CONTINUOUS
10
123.93
20
-123.125
11
123.93
21
-123.315
0
LINE
8
BLACK
6
CONTINUOUS
10
123.93
20
-123.315
11
122.977
21
-123.506
0
LINE
8
BLACK
6
CONTINUOUS
10
124.692
20
-124.077
11
124.882
21
-124.172
0
LINE
8
BLACK
6
CONTINUOUS
10
124.882
20
-124.172
11
125.263
21
-124.172
0
LINE
8
BLACK
6
CONTINUOUS
10
125.263
20
-124.172
11
125.453
21
-124.077
0
LINE
8
BLACK
6
CONTINUOUS
10
125.453
20
-124.077
11
125.549
21
-123.887
0
LINE
8
BLACK
6
CONTINUOUS
10
125.549
20
-123.887
11
125.549
21
-123.791
0
LINE
8
BLACK
6
CONTINUOUS
10
125.549
20
-123.791
11
125.453
21
-123.601
0
LINE
8
BLACK
6
CONTINUOUS
10
125.453
20
-123.601
11
125.263
21
-123.506
0
LINE
8
BLACK
6
CONTINUOUS
10
125.263
20
-123.506
11
124.977
21
-123.506
0
LINE
8
BLACK
6
CONTINUOUS
10
124.977
20
-123.506
11
124.787
21
-123.41
0
LINE
8
BLACK
6
CONTINUOUS
10
124.787
20
-123.41
11
124.692
21
-123.22
0
LINE
8
BLACK
6
CONTINUOUS
10
124.692
20
-123.22
11
124.692
21
-123.125
0
LINE
8
BLACK
6
CONTINUOUS
10
124.692
20
-123.125
11
124.787
21
-122.934
0
LINE
8
BLACK
6
CONTINUOUS
10
124.787
20
-122.934
11
124.977
21
-122.839
0
LINE
8
BLACK
6
CONTINUOUS
10
124.977
20
-122.839
11
125.263
21
-122.839
0
LINE
8
BLACK
6
CONTINUOUS
10
125.263
20
-122.839
11
125.453
21
-122.934
0
LINE
8
BLACK
6
CONTINUOUS
10
126.215
20
-124.934
11
126.311
21
-124.839
0
LINE
8
BLACK
6
CONTINUOUS
10
126.311
20
-124.839
11
126.501
21
-124.553
0
LINE
8
BLACK
6
CONTINUOUS
10
126.501
20
-124.553
11
126.596
21
-124.363
0
LINE
8
BLACK
6
CONTINUOUS
10
126.596
20
-124.363
11
126.692
21
-124.077
0
LINE
8
BLACK
6
CONTINUOUS
10
126.692
20
-124.077
11
126.787
21
-123.601
0
LINE
8
BLACK
6
CONTINUOUS
10
126.787
20
-123.601
11
126.787
21
-123.22
0
LINE
8
BLACK
6
CONTINUOUS
10
126.787
20
-123.22
11
126.692
21
-122.744
0
LINE
8
BLACK
6
CONTINUOUS
10
126.692
20
-122.744
11
126.596
21
-122.458
0
LINE
8
BLACK
6
CONTINUOUS
10
126.596
20
-122.458
11
126.501
21
-122.268
0
LINE
8
BLACK
6
CONTINUOUS
10
126.501
20
-122.268
11
126.311
21
-121.982
0
LINE
8
BLACK
6
CONTINUOUS
10
126.311
20
-121.982
11
126.215
21
-121.887
0
LINE
8
BLACK
6
CONTINUOUS
10
129.834
20
-124.934
11
129.739
21
-124.839
0
LINE
8
BLACK
6
CONTINUOUS
10
129.739
20
-124.839
11
129.549
21
-124.553
0
LINE
8
BLACK
6
CONTINUOUS
10
129.549
20
-124.553
11
129.453
21
-124.363
0
LINE
8
BLACK
6
CONTINUOUS
10
129.453
20
-124.363
11
129.358
21
-124.077
0
LINE
8
BLACK
6
CONTINUOUS
10
129.358
20
-124.077
11
129.263
21
-123.601
0
LINE
8
BLACK
6
CONTINUOUS
10
129.263
20
-123.601
11
129.263
21
-123.22
0
LINE
8
BLACK
6
CONTINUOUS
10
129.263
20
-123.22
11
129.358
21
-122.744
0
LINE
8
BLACK
6
CONTINUOUS
10
129.358
20
-122.744
11
129.453
21
-122.458
0
LINE
8
BLACK
6
CONTINUOUS
10
129.453
20
-122.458
11
129.549
21
-122.268
0
LINE
8
BLACK
6
CONTINUOUS
10
129.549
20
-122.268
11
129.739
21
-121.982
0
LINE
8
BLACK
6
CONTINUOUS
10
129.739
20
-121.982
11
129.834
21
-121.887
0
LINE
8
BLACK
6
CONTINUOUS
10
130.596
20
-122.839
11
130.596
21
-124.172
0
LINE
8
BLACK
6
CONTINUOUS
10
130.596
20
-123.03
11
130.692
21
-122.934
0
LINE
8
BLACK
6
CONTINUOUS
10
130.692
20
-122.934
11
130.882
21
-122.839
0
LINE
8
BLACK
6
CONTINUOUS
10
130.882
20
-122.839
11
131.168
21
-122.839
0
LINE
8
BLACK
6
CONTINUOUS
10
131.168
20
-122.839
11
131.358
21
-122.934
0
LINE
8
BLACK
6
CONTINUOUS
10
131.358
20
-122.934
11
131.453
21
-123.125
0
LINE
8
BLACK
6
CONTINUOUS
10
131.453
20
-123.125
11
131.453
21
-124.172
0
LINE
8
BLACK
6
CONTINUOUS
10
132.692
20
-124.172
11
132.501
21
-124.077
0
LINE
8
BLACK
6
CONTINUOUS
10
132.501
20
-124.077
11
132.406
21
-123.982
0
LINE
8
BLACK
6
CONTINUOUS
10
132.406
20
-123.982
11
132.311
21
-123.791
0
LINE
8
BLACK
6
CONTINUOUS
10
132.311
20
-123.791
11
132.311
21
-123.22
0
LINE
8
BLACK
6
CONTINUOUS
10
132.311
20
-123.22
11
132.406
21
-123.03
0
LINE
8
BLACK
6
CONTINUOUS
10
132.406
20
-123.03
11
132.501
21
-122.934
0
LINE
8
BLACK
6
CONTINUOUS
10
132.501
20
-122.934
11
132.692
21
-122.839
0
LINE
8
BLACK
6
CONTINUOUS
10
132.692
20
-122.839
11
132.977
21
-122.839
0
LINE
8
BLACK
6
CONTINUOUS
10
132.977
20
-122.839
11
133.168
21
-122.934
0
LINE
8
BLACK
6
CONTINUOUS
10
133.168
20
-122.934
11
133.263
21
-123.03
0
LINE
8
BLACK
6
CONTINUOUS
10
133.263
20
-123.03
11
133.358
21
-123.22
0
LINE
8
BLACK
6
CONTINUOUS
10
133.358
20
-123.22
11
133.358
21
-123.791
0
LINE
8
BLACK
6
CONTINUOUS
10
133.358
20
-123.791
11
133.263
21
-123.982
0
LINE
8
BLACK
6
CONTINUOUS
10
133.263
20
-123.982
11
133.168
21
-124.077
0
LINE
8
BLACK
6
CONTINUOUS
10
133.168
20
-124.077
11
132.977
21
-124.172
0
LINE
8
BLACK
6
CONTINUOUS
10
132.977
20
-124.172
11
132.692
21
-124.172
0
LINE
8
BLACK
6
CONTINUOUS
10
133.93
20
-122.839
11
134.692
21
-122.839
0
LINE
8
BLACK
6
CONTINUOUS
10
134.215
20
-122.172
11
134.215
21
-123.887
0
LINE
8
BLACK
6
CONTINUOUS
10
134.215
20
-123.887
11
134.311
21
-124.077
0
LINE
8
BLACK
6
CONTINUOUS
10
134.311
20
-124.077
11
134.501
21
-124.172
0
LINE
8
BLACK
6
CONTINUOUS
10
134.501
20
-124.172
11
134.692
21
-124.172
0
LINE
8
BLACK
6
CONTINUOUS
10
136.882
20
-122.839
11
136.882
21
-124.839
0
LINE
8
BLACK
6
CONTINUOUS
10
136.882
20
-122.934
11
137.073
21
-122.839
0
LINE
8
BLACK
6
CONTINUOUS
10
137.073
20
-122.839
11
137.453
21
-122.839
0
LINE
8
BLACK
6
CONTINUOUS
10
137.453
20
-122.839
11
137.644
21
-122.934
0
LINE
8
BLACK
6
CONTINUOUS
10
137.644
20
-122.934
11
137.739
21
-123.03
0
LINE
8
BLACK
6
CONTINUOUS
10
137.739
20
-123.03
11
137.834
21
-123.22
0
LINE
8
BLACK
6
CONTINUOUS
10
137.834
20
-123.22
11
137.834
21
-123.791
0
LINE
8
BLACK
6
CONTINUOUS
10
137.834
20
-123.791
11
137.739
21
-123.982
0
LINE
8
BLACK
6
CONTINUOUS
10
137.739
20
-123.982
11
137.644
21
-124.077
0
LINE
8
BLACK
6
CONTINUOUS
10
137.644
20
-124.077
11
137.453
21
-124.172
0
LINE
8
BLACK
6
CONTINUOUS
10
137.453
20
-124.172
11
137.073
21
-124.172
0
LINE
8
BLACK
6
CONTINUOUS
10
137.073
20
-124.172
11
136.882
21
-124.077
0
LINE
8
BLACK
6
CONTINUOUS
10
138.977
20
-124.172
11
138.787
21
-124.077
0
LINE
8
BLACK
6
CONTINUOUS
10
138.787
20
-124.077
11
138.692
21
-123.887
0
LINE
8
BLACK
6
CONTINUOUS
10
138.692
20
-123.887
11
138.692
21
-122.172
0
LINE
8
BLACK
6
CONTINUOUS
10
140.596
20
-124.172
11
140.596
21
-123.125
0
LINE
8
BLACK
6
CONTINUOUS
10
140.596
20
-123.125
11
140.501
21
-122.934
0
LINE
8
BLACK
6
CONTINUOUS
10
140.501
20
-122.934
11
140.311
21
-122.839
0
LINE
8
BLACK
6
CONTINUOUS
10
140.311
20
-122.839
11
139.93
21
-122.839
0
LINE
8
BLACK
6
CONTINUOUS
10
139.93
20
-122.839
11
139.739
21
-122.934
0
LINE
8
BLACK
6
CONTINUOUS
10
140.596
20
-124.077
11
140.406
21
-124.172
0
LINE
8
BLACK
6
CONTINUOUS
10
140.406
20
-124.172
11
139.93
21
-124.172
0
LINE
8
BLACK
6
CONTINUOUS
10
139.93
20
-124.172
11
139.739
21
-124.077
0
LINE
8
BLACK
6
CONTINUOUS
10
139.739
20
-124.077
11
139.644
21
-123.887
0
LINE
8
BLACK
6
CONTINUOUS
10
139.644
20
-123.887
11
139.644
21
-123.696
0
LINE
8
BLACK
6
CONTINUOUS
10
139.644
20
-123.696
11
139.739
21
-123.506
0
LINE
8
BLACK
6
CONTINUOUS
10
139.739
20
-123.506
11
139.93
21
-123.41
0
LINE
8
BLACK
6
CONTINUOUS
10
139.93
20
-123.41
11
140.406
21
-123.41
0
LINE
8
BLACK
6
CONTINUOUS
10
140.406
20
-123.41
11
140.596
21
-123.315
0
LINE
8
BLACK
6
CONTINUOUS
10
141.263
20
-122.839
11
142.025
21
-122.839
0
LINE
8
BLACK
6
CONTINUOUS
10
141.549
20
-122.172
11
141.549
21
-123.887
0
LINE
8
BLACK
6
CONTINUOUS
10
141.549
20
-123.887
11
141.644
21
-124.077
0
LINE
8
BLACK
6
CONTINUOUS
10
141.644
20
-124.077
11
141.834
21
-124.172
0
LINE
8
BLACK
6
CONTINUOUS
10
141.834
20
-124.172
11
142.025
21
-124.172
0
LINE
8
BLACK
6
CONTINUOUS
10
143.453
20
-124.077
11
143.263
21
-124.172
0
LINE
8
BLACK
6
CONTINUOUS
10
143.263
20
-124.172
11
142.882
21
-124.172
0
LINE
8
BLACK
6
CONTINUOUS
10
142.882
20
-124.172
11
142.692
21
-124.077
0
LINE
8
BLACK
6
CONTINUOUS
10
142.692
20
-124.077
11
142.596
21
-123.887
0
LINE
8
BLACK
6
CONTINUOUS
10
142.596
20
-123.887
11
142.596
21
-123.125
0
LINE
8
BLACK
6
CONTINUOUS
10
142.596
20
-123.125
11
142.692
21
-122.934
0
LINE
8
BLACK
6
CONTINUOUS
10
142.692
20
-122.934
11
142.882
21
-122.839
0
LINE
8
BLACK
6
CONTINUOUS
10
142.882
20
-122.839
11
143.263
21
-122.839
0
LINE
8
BLACK
6
CONTINUOUS
10
143.263
20
-122.839
11
143.453
21
-122.934
0
LINE
8
BLACK
6
CONTINUOUS
10
143.453
20
-122.934
11
143.549
21
-123.125
0
LINE
8
BLACK
6
CONTINUOUS
10
143.549
20
-123.125
11
143.549
21
-123.315
0
LINE
8
BLACK
6
CONTINUOUS
10
143.549
20
-123.315
11
142.596
21
-123.506
0
LINE
8
BLACK
6
CONTINUOUS
10
145.263
20
-124.172
11
145.263
21
-122.172
0
LINE
8
BLACK
6
CONTINUOUS
10
145.263
20
-124.077
11
145.073
21
-124.172
0
LINE
8
BLACK
6
CONTINUOUS
10
145.073
20
-124.172
11
144.692
21
-124.172
0
LINE
8
BLACK
6
CONTINUOUS
10
144.692
20
-124.172
11
144.501
21
-124.077
0
LINE
8
BLACK
6
CONTINUOUS
10
144.501
20
-124.077
11
144.406
21
-123.982
0
LINE
8
BLACK
6
CONTINUOUS
10
144.406
20
-123.982
11
144.311
21
-123.791
0
LINE
8
BLACK
6
CONTINUOUS
10
144.311
20
-123.791
11
144.311
21
-123.22
0
LINE
8
BLACK
6
CONTINUOUS
10
144.311
20
-123.22
11
144.406
21
-123.03
0
LINE
8
BLACK
6
CONTINUOUS
10
144.406
20
-123.03
11
144.501
21
-122.934
0
LINE
8
BLACK
6
CONTINUOUS
10
144.501
20
-122.934
11
144.692
21
-122.839
0
LINE
8
BLACK
6
CONTINUOUS
10
144.692
20
-122.839
11
145.073
21
-122.839
0
LINE
8
BLACK
6
CONTINUOUS
10
145.073
20
-122.839
11
145.263
21
-122.934
0
LINE
8
BLACK
6
CONTINUOUS
10
146.025
20
-124.934
11
146.12
21
-124.839
0
LINE
8
BLACK
6
CONTINUOUS
10
146.12
20
-124.839
11
146.311
21
-124.553
0
LINE
8
BLACK
6
CONTINUOUS
10
146.311
20
-124.553
11
146.406
21
-124.363
0
LINE
8
BLACK
6
CONTINUOUS
10
146.406
20
-124.363
11
146.501
21
-124.077
0
LINE
8
BLACK
6
CONTINUOUS
10
146.501
20
-124.077
11
146.596
21
-123.601
0
LINE
8
BLACK
6
CONTINUOUS
10
146.596
20
-123.601
11
146.596
21
-123.22
0
LINE
8
BLACK
6
CONTINUOUS
10
146.596
20
-123.22
11
146.501
21
-122.744
0
LINE
8
BLACK
6
CONTINUOUS
10
146.501
20
-122.744
11
146.406
21
-122.458
0
LINE
8
BLACK
6
CONTINUOUS
10
146.406
20
-122.458
11
146.311
21
-122.268
0
LINE
8
BLACK
6
CONTINUOUS
10
146.311
20
-122.268
11
146.12
21
-121.982
0
LINE
8
BLACK
6
CONTINUOUS
10
146.12
20
-121.982
11
146.025
21
-121.887
  0
ENDSEC
  0
EOF
