%TF.GenerationSoftware,KiCad,Pcbnew,9.0.4*%
%TF.CreationDate,2026-08-08T20:29:30+10:00*%
%TF.ProjectId,Simkits Large Dual Gauge,53696d6b-6974-4732-904c-617267652044,rev?*%
%TF.SameCoordinates,Original*%
%TF.FileFunction,Profile,NP*%
%FSLAX46Y46*%
G04 Gerber Fmt 4.6, Leading zero omitted, Abs format (unit mm)*
G04 Created by KiCad (PCBNEW 9.0.4) date 2026-08-08 20:29:30*
%MOMM*%
%LPD*%
G01*
G04 APERTURE LIST*
%TA.AperFunction,Profile*%
%ADD10C,0.050000*%
%TD*%
%TA.AperFunction,Profile*%
%ADD11C,0.120000*%
%TD*%
G04 APERTURE END LIST*
D10*
X153585515Y-61274574D02*
X140305515Y-74554574D01*
X219685515Y-138294574D02*
X219685515Y-74814574D01*
X140305515Y-74554574D02*
X140305515Y-126984574D01*
X140305515Y-126984574D02*
X153985515Y-140664574D01*
D11*
X200098559Y-137144574D02*
G75*
G02*
X196398559Y-137144574I-1850000J0D01*
G01*
X196398559Y-137144574D02*
G75*
G02*
X200098559Y-137144574I1850000J0D01*
G01*
X156245515Y-64974574D02*
G75*
G02*
X152545515Y-64974574I-1850000J0D01*
G01*
X152545515Y-64974574D02*
G75*
G02*
X156245515Y-64974574I1850000J0D01*
G01*
D10*
X206145515Y-61274574D02*
X153585515Y-61274574D01*
D11*
X146155515Y-74604574D02*
G75*
G02*
X142455515Y-74604574I-1850000J0D01*
G01*
X142455515Y-74604574D02*
G75*
G02*
X146155515Y-74604574I1850000J0D01*
G01*
X145805515Y-127274574D02*
G75*
G02*
X142105515Y-127274574I-1850000J0D01*
G01*
X142105515Y-127274574D02*
G75*
G02*
X145805515Y-127274574I1850000J0D01*
G01*
D10*
X219685515Y-74814574D02*
X206145515Y-61274574D01*
D11*
X155985515Y-137194574D02*
G75*
G02*
X152285515Y-137194574I-1850000J0D01*
G01*
X152285515Y-137194574D02*
G75*
G02*
X155985515Y-137194574I1850000J0D01*
G01*
D10*
X153985515Y-140664574D02*
X205835515Y-140664574D01*
D11*
X217725515Y-74804574D02*
G75*
G02*
X214025515Y-74804574I-1850000J0D01*
G01*
X214025515Y-74804574D02*
G75*
G02*
X217725515Y-74804574I1850000J0D01*
G01*
X207745515Y-64934574D02*
G75*
G02*
X204045515Y-64934574I-1850000J0D01*
G01*
X204045515Y-64934574D02*
G75*
G02*
X207745515Y-64934574I1850000J0D01*
G01*
D10*
X205835515Y-140664574D02*
X217315515Y-140664574D01*
X217315515Y-140664574D02*
X219685515Y-138294574D01*
D11*
X218157037Y-118266096D02*
G75*
G02*
X214457037Y-118266096I-1850000J0D01*
G01*
X214457037Y-118266096D02*
G75*
G02*
X218157037Y-118266096I1850000J0D01*
G01*
M02*
