  0
SECTION
  2
HEADER
  9
$ANGBASE
  50
0.0
  9
$ANGDIR
  70
1
  9
$MEASUREMENT
  70
0
  0
ENDSEC
  0
SECTION
  2
TABLES
  0
TABLE
  2
LTYPE
  70
4
  0
LTYPE
  5
40F
  2
CONTINUOUS
  70
0
  3
Solid line
  72
65
  73
0
  40
0.0
  0
LTYPE
  5
410
  2
DASHDOT
 70
0
  3
Dash Dot ____ _ ____ _
 72
65
 73
4
 40
2.0
 49
1.25
 49
-0.25
 49
0.25
 49
-0.25
  0
LTYPE
  5
411
  2
DASHED
 70
0
  3
Dashed __ __ __ __ __
 72
65
 73
2
 40
0.75
 49
0.5
 49
-0.25
  0
LTYPE
  5
43B
  2
DOTTED
 70
0
  3
Dotted .  .  .  .
 72
65
 73
2
 40
0.2
 49
0.0
 49
-0.2
  0
ENDTAB
  0
TABLE
  2
STYLE
  70
4
  0
STYLE
  2
KICAD
  70
0
  40
0
  41
1
  42
1
  50
0
  71
0
  3
isocp.shx
  0
STYLE
  2
KICADB
  70
0
  40
0
  41
1
  42
1
  50
0
  71
0
  3
isocp.shx
  0
STYLE
  2
KICADI
  70
0
  40
0
  41
1
  42
1
  50
15
  71
0
  3
isocp.shx
  0
STYLE
  2
KICADBI
  70
0
  40
0
  41
1
  42
1
  50
15
  71
0
  3
isocp.shx
  0
ENDTAB
  0
TABLE
  2
LAYER
  70
1
  0
LAYER
  2
BLACK
  70
0
  62
7
  6
CONTINUOUS
  0
ENDTAB
  0
ENDSEC
  0
SECTION
  2
ENTITIES
0
CIRCLE
8
BLACK
10
2.586
20
-0.906
40
0.0807087
0
CIRCLE
8
BLACK
10
1.118
20
-2.826
40
0.0807087
0
LINE
8
BLACK
6
CONTINUOUS
10
0
20
0
11
3.74016
21
0
0
LINE
8
BLACK
6
CONTINUOUS
10
0
20
-3.74016
11
3.74016
21
-3.74016
0
LINE
8
BLACK
6
CONTINUOUS
10
3.74016
20
0
11
3.74016
21
-3.74016
0
LINE
8
BLACK
6
CONTINUOUS
10
0
20
0
11
0
21
-3.74016
0
LINE
8
BLACK
6
CONTINUOUS
10
0.877205
20
-1.25961
11
0.908701
21
-1.2911
0
LINE
8
BLACK
6
CONTINUOUS
10
0.908701
20
-1.25961
11
0.877205
21
-1.2911
0
LINE
8
BLACK
6
CONTINUOUS
10
1.1772
20
-1.25961
11
1.2087
21
-1.2911
0
LINE
8
BLACK
6
CONTINUOUS
10
1.2087
20
-1.25961
11
1.1772
21
-1.2911
0
CIRCLE
8
BLACK
10
0.982717
20
-1.11787
40
0.0177165
0
CIRCLE
8
BLACK
10
1.08272
20
-1.11787
40
0.0177165
0
LINE
8
BLACK
6
CONTINUOUS
10
0.31589
20
-1.42267
11
0.31589
21
-1.46204
0
LINE
8
BLACK
6
CONTINUOUS
10
0.296205
20
-1.44235
11
0.335575
21
-1.44235
0
LINE
8
BLACK
6
CONTINUOUS
10
0.296205
20
-1.40298
11
0.296205
21
-1.48172
0
LINE
8
BLACK
6
CONTINUOUS
10
0.335575
20
-1.40298
11
0.335575
21
-1.48172
0
ARC
8
BLACK
10
0.31589
20
-1.48172
40
0.019685
50
180
51
360
0
ARC
8
BLACK
10
0.31589
20
-1.40298
40
0.019685
50
0
51
180
0
LINE
8
BLACK
6
CONTINUOUS
10
0.31589
20
-1.9162
11
0.31589
21
-1.95557
0
LINE
8
BLACK
6
CONTINUOUS
10
0.296205
20
-1.93589
11
0.335575
21
-1.93589
0
LINE
8
BLACK
6
CONTINUOUS
10
0.296205
20
-1.89652
11
0.296205
21
-1.97526
0
LINE
8
BLACK
6
CONTINUOUS
10
0.335575
20
-1.89652
11
0.335575
21
-1.97526
0
ARC
8
BLACK
10
0.31589
20
-1.97526
40
0.019685
50
180
51
360
0
ARC
8
BLACK
10
0.31589
20
-1.89652
40
0.019685
50
0
51
180
0
LINE
8
BLACK
6
CONTINUOUS
10
0.31589
20
-2.40974
11
0.31589
21
-2.44911
0
LINE
8
BLACK
6
CONTINUOUS
10
0.296205
20
-2.42943
11
0.335575
21
-2.42943
0
LINE
8
BLACK
6
CONTINUOUS
10
0.296205
20
-2.39006
11
0.296205
21
-2.4688
0
LINE
8
BLACK
6
CONTINUOUS
10
0.335575
20
-2.39006
11
0.335575
21
-2.4688
0
ARC
8
BLACK
10
0.31589
20
-2.4688
40
0.019685
50
180
51
360
0
ARC
8
BLACK
10
0.31589
20
-2.39006
40
0.019685
50
0
51
180
0
LINE
8
BLACK
6
CONTINUOUS
10
0.31589
20
-2.90328
11
0.31589
21
-2.94265
0
LINE
8
BLACK
6
CONTINUOUS
10
0.296205
20
-2.92296
11
0.335575
21
-2.92296
0
LINE
8
BLACK
6
CONTINUOUS
10
0.296205
20
-2.88359
11
0.296205
21
-2.96233
0
LINE
8
BLACK
6
CONTINUOUS
10
0.335575
20
-2.88359
11
0.335575
21
-2.96233
0
ARC
8
BLACK
10
0.31589
20
-2.96233
40
0.019685
50
180
51
360
0
ARC
8
BLACK
10
0.31589
20
-2.88359
40
0.019685
50
0
51
180
0
LINE
8
BLACK
6
CONTINUOUS
10
0.434
20
-1.60771
11
0.434
21
-1.64708
0
LINE
8
BLACK
6
CONTINUOUS
10
0.414315
20
-1.62739
11
0.453685
21
-1.62739
0
LINE
8
BLACK
6
CONTINUOUS
10
0.39463
20
-1.64708
11
0.47337
21
-1.64708
0
LINE
8
BLACK
6
CONTINUOUS
10
0.39463
20
-1.60771
11
0.47337
21
-1.60771
0
ARC
8
BLACK
10
0.47337
20
-1.62739
40
0.019685
50
270
51
450
0
ARC
8
BLACK
10
0.39463
20
-1.62739
40
0.019685
50
90
51
270
0
LINE
8
BLACK
6
CONTINUOUS
10
0.434
20
-2.10124
11
0.434
21
-2.14061
0
LINE
8
BLACK
6
CONTINUOUS
10
0.414315
20
-2.12093
11
0.453685
21
-2.12093
0
LINE
8
BLACK
6
CONTINUOUS
10
0.39463
20
-2.14061
11
0.47337
21
-2.14061
0
LINE
8
BLACK
6
CONTINUOUS
10
0.39463
20
-2.10124
11
0.47337
21
-2.10124
0
ARC
8
BLACK
10
0.47337
20
-2.12093
40
0.019685
50
270
51
450
0
ARC
8
BLACK
10
0.39463
20
-2.12093
40
0.019685
50
90
51
270
0
LINE
8
BLACK
6
CONTINUOUS
10
0.434
20
-2.59478
11
0.434
21
-2.63415
0
LINE
8
BLACK
6
CONTINUOUS
10
0.414315
20
-2.61446
11
0.453685
21
-2.61446
0
LINE
8
BLACK
6
CONTINUOUS
10
0.39463
20
-2.63415
11
0.47337
21
-2.63415
0
LINE
8
BLACK
6
CONTINUOUS
10
0.39463
20
-2.59478
11
0.47337
21
-2.59478
0
ARC
8
BLACK
10
0.47337
20
-2.61446
40
0.019685
50
270
51
450
0
ARC
8
BLACK
10
0.39463
20
-2.61446
40
0.019685
50
90
51
270
0
LINE
8
BLACK
6
CONTINUOUS
10
0.434
20
-3.08831
11
0.434
21
-3.12769
0
LINE
8
BLACK
6
CONTINUOUS
10
0.414315
20
-3.108
11
0.453685
21
-3.108
0
LINE
8
BLACK
6
CONTINUOUS
10
0.39463
20
-3.12769
11
0.47337
21
-3.12769
0
LINE
8
BLACK
6
CONTINUOUS
10
0.39463
20
-3.08831
11
0.47337
21
-3.08831
0
ARC
8
BLACK
10
0.47337
20
-3.108
40
0.019685
50
270
51
450
0
ARC
8
BLACK
10
0.39463
20
-3.108
40
0.019685
50
90
51
270
0
LINE
8
BLACK
6
CONTINUOUS
10
0.55211
20
-1.42267
11
0.55211
21
-1.46204
0
LINE
8
BLACK
6
CONTINUOUS
10
0.532425
20
-1.44235
11
0.571795
21
-1.44235
0
LINE
8
BLACK
6
CONTINUOUS
10
0.532425
20
-1.40298
11
0.532425
21
-1.48172
0
LINE
8
BLACK
6
CONTINUOUS
10
0.571795
20
-1.40298
11
0.571795
21
-1.48172
0
ARC
8
BLACK
10
0.55211
20
-1.48172
40
0.019685
50
180
51
360
0
ARC
8
BLACK
10
0.55211
20
-1.40298
40
0.019685
50
0
51
180
0
LINE
8
BLACK
6
CONTINUOUS
10
0.55211
20
-1.9162
11
0.55211
21
-1.95557
0
LINE
8
BLACK
6
CONTINUOUS
10
0.532425
20
-1.93589
11
0.571795
21
-1.93589
0
LINE
8
BLACK
6
CONTINUOUS
10
0.532425
20
-1.89652
11
0.532425
21
-1.97526
0
LINE
8
BLACK
6
CONTINUOUS
10
0.571795
20
-1.89652
11
0.571795
21
-1.97526
0
ARC
8
BLACK
10
0.55211
20
-1.97526
40
0.019685
50
180
51
360
0
ARC
8
BLACK
10
0.55211
20
-1.89652
40
0.019685
50
0
51
180
0
LINE
8
BLACK
6
CONTINUOUS
10
0.55211
20
-2.40974
11
0.55211
21
-2.44911
0
LINE
8
BLACK
6
CONTINUOUS
10
0.532425
20
-2.42943
11
0.571795
21
-2.42943
0
LINE
8
BLACK
6
CONTINUOUS
10
0.532425
20
-2.39006
11
0.532425
21
-2.4688
0
LINE
8
BLACK
6
CONTINUOUS
10
0.571795
20
-2.39006
11
0.571795
21
-2.4688
0
ARC
8
BLACK
10
0.55211
20
-2.4688
40
0.019685
50
180
51
360
0
ARC
8
BLACK
10
0.55211
20
-2.39006
40
0.019685
50
0
51
180
0
LINE
8
BLACK
6
CONTINUOUS
10
0.55211
20
-2.90328
11
0.55211
21
-2.94265
0
LINE
8
BLACK
6
CONTINUOUS
10
0.532425
20
-2.92296
11
0.571795
21
-2.92296
0
LINE
8
BLACK
6
CONTINUOUS
10
0.532425
20
-2.88359
11
0.532425
21
-2.96233
0
LINE
8
BLACK
6
CONTINUOUS
10
0.571795
20
-2.88359
11
0.571795
21
-2.96233
0
ARC
8
BLACK
10
0.55211
20
-2.96233
40
0.019685
50
180
51
360
0
ARC
8
BLACK
10
0.55211
20
-2.88359
40
0.019685
50
0
51
180
0
LINE
8
BLACK
6
CONTINUOUS
10
3.188
20
-1.55625
11
3.188
21
-1.59562
0
LINE
8
BLACK
6
CONTINUOUS
10
3.16831
20
-1.57594
11
3.20769
21
-1.57594
0
LINE
8
BLACK
6
CONTINUOUS
10
3.20769
20
-1.61531
11
3.20769
21
-1.53657
0
LINE
8
BLACK
6
CONTINUOUS
10
3.16831
20
-1.61531
11
3.16831
21
-1.53657
0
ARC
8
BLACK
10
3.188
20
-1.53657
40
0.019685
50
360
51
540
0
ARC
8
BLACK
10
3.188
20
-1.61531
40
0.019685
50
180
51
360
0
LINE
8
BLACK
6
CONTINUOUS
10
3.188
20
-2.06526
11
3.188
21
-2.10463
0
LINE
8
BLACK
6
CONTINUOUS
10
3.16831
20
-2.08494
11
3.20769
21
-2.08494
0
LINE
8
BLACK
6
CONTINUOUS
10
3.20769
20
-2.12431
11
3.20769
21
-2.04557
0
LINE
8
BLACK
6
CONTINUOUS
10
3.16831
20
-2.12431
11
3.16831
21
-2.04557
0
ARC
8
BLACK
10
3.188
20
-2.04557
40
0.019685
50
360
51
540
0
ARC
8
BLACK
10
3.188
20
-2.12431
40
0.019685
50
180
51
360
0
LINE
8
BLACK
6
CONTINUOUS
10
3.188
20
-2.57427
11
3.188
21
-2.61364
0
LINE
8
BLACK
6
CONTINUOUS
10
3.16831
20
-2.59395
11
3.20769
21
-2.59395
0
LINE
8
BLACK
6
CONTINUOUS
10
3.20769
20
-2.63332
11
3.20769
21
-2.55458
0
LINE
8
BLACK
6
CONTINUOUS
10
3.16831
20
-2.63332
11
3.16831
21
-2.55458
0
ARC
8
BLACK
10
3.188
20
-2.55458
40
0.019685
50
360
51
540
0
ARC
8
BLACK
10
3.188
20
-2.63332
40
0.019685
50
180
51
360
0
LINE
8
BLACK
6
CONTINUOUS
10
3.188
20
-3.08328
11
3.188
21
-3.12265
0
LINE
8
BLACK
6
CONTINUOUS
10
3.16831
20
-3.10296
11
3.20769
21
-3.10296
0
LINE
8
BLACK
6
CONTINUOUS
10
3.20769
20
-3.14233
11
3.20769
21
-3.06359
0
LINE
8
BLACK
6
CONTINUOUS
10
3.16831
20
-3.14233
11
3.16831
21
-3.06359
0
ARC
8
BLACK
10
3.188
20
-3.06359
40
0.019685
50
360
51
540
0
ARC
8
BLACK
10
3.188
20
-3.14233
40
0.019685
50
180
51
360
0
LINE
8
BLACK
6
CONTINUOUS
10
3.18898
20
-1.04724
11
3.18898
21
-1.08661
0
LINE
8
BLACK
6
CONTINUOUS
10
3.16929
20
-1.06693
11
3.20866
21
-1.06693
0
LINE
8
BLACK
6
CONTINUOUS
10
3.20866
20
-1.1063
11
3.20866
21
-1.02756
0
LINE
8
BLACK
6
CONTINUOUS
10
3.16929
20
-1.1063
11
3.16929
21
-1.02756
0
ARC
8
BLACK
10
3.18898
20
-1.02756
40
0.019685
50
360
51
540
0
ARC
8
BLACK
10
3.18898
20
-1.1063
40
0.019685
50
180
51
360
0
LINE
8
BLACK
6
CONTINUOUS
10
3.30611
20
-1.37121
11
3.30611
21
-1.41058
0
LINE
8
BLACK
6
CONTINUOUS
10
3.28643
20
-1.3909
11
3.3258
21
-1.3909
0
LINE
8
BLACK
6
CONTINUOUS
10
3.34548
20
-1.37121
11
3.26674
21
-1.37121
0
LINE
8
BLACK
6
CONTINUOUS
10
3.34548
20
-1.41058
11
3.26674
21
-1.41058
0
ARC
8
BLACK
10
3.26674
20
-1.3909
40
0.019685
50
450
51
630
0
ARC
8
BLACK
10
3.34548
20
-1.3909
40
0.019685
50
270
51
450
0
LINE
8
BLACK
6
CONTINUOUS
10
3.30611
20
-1.88022
11
3.30611
21
-1.91959
0
LINE
8
BLACK
6
CONTINUOUS
10
3.28643
20
-1.89991
11
3.3258
21
-1.89991
0
LINE
8
BLACK
6
CONTINUOUS
10
3.34548
20
-1.88022
11
3.26674
21
-1.88022
0
LINE
8
BLACK
6
CONTINUOUS
10
3.34548
20
-1.91959
11
3.26674
21
-1.91959
0
ARC
8
BLACK
10
3.26674
20
-1.89991
40
0.019685
50
450
51
630
0
ARC
8
BLACK
10
3.34548
20
-1.89991
40
0.019685
50
270
51
450
0
LINE
8
BLACK
6
CONTINUOUS
10
3.30611
20
-2.38923
11
3.30611
21
-2.4286
0
LINE
8
BLACK
6
CONTINUOUS
10
3.28643
20
-2.40891
11
3.3258
21
-2.40891
0
LINE
8
BLACK
6
CONTINUOUS
10
3.34548
20
-2.38923
11
3.26674
21
-2.38923
0
LINE
8
BLACK
6
CONTINUOUS
10
3.34548
20
-2.4286
11
3.26674
21
-2.4286
0
ARC
8
BLACK
10
3.26674
20
-2.40891
40
0.019685
50
450
51
630
0
ARC
8
BLACK
10
3.34548
20
-2.40891
40
0.019685
50
270
51
450
0
LINE
8
BLACK
6
CONTINUOUS
10
3.30611
20
-2.89824
11
3.30611
21
-2.93761
0
LINE
8
BLACK
6
CONTINUOUS
10
3.28643
20
-2.91792
11
3.3258
21
-2.91792
0
LINE
8
BLACK
6
CONTINUOUS
10
3.34548
20
-2.89824
11
3.26674
21
-2.89824
0
LINE
8
BLACK
6
CONTINUOUS
10
3.34548
20
-2.93761
11
3.26674
21
-2.93761
0
ARC
8
BLACK
10
3.26674
20
-2.91792
40
0.019685
50
450
51
630
0
ARC
8
BLACK
10
3.34548
20
-2.91792
40
0.019685
50
270
51
450
0
LINE
8
BLACK
6
CONTINUOUS
10
3.30709
20
-0.862205
11
3.30709
21
-0.901575
0
LINE
8
BLACK
6
CONTINUOUS
10
3.2874
20
-0.88189
11
3.32677
21
-0.88189
0
LINE
8
BLACK
6
CONTINUOUS
10
3.34646
20
-0.862205
11
3.26772
21
-0.862205
0
LINE
8
BLACK
6
CONTINUOUS
10
3.34646
20
-0.901575
11
3.26772
21
-0.901575
0
ARC
8
BLACK
10
3.26772
20
-0.88189
40
0.019685
50
450
51
630
0
ARC
8
BLACK
10
3.34646
20
-0.88189
40
0.019685
50
270
51
450
0
LINE
8
BLACK
6
CONTINUOUS
10
3.42422
20
-1.55625
11
3.42422
21
-1.59562
0
LINE
8
BLACK
6
CONTINUOUS
10
3.40454
20
-1.57594
11
3.44391
21
-1.57594
0
LINE
8
BLACK
6
CONTINUOUS
10
3.44391
20
-1.61531
11
3.44391
21
-1.53657
0
LINE
8
BLACK
6
CONTINUOUS
10
3.40454
20
-1.61531
11
3.40454
21
-1.53657
0
ARC
8
BLACK
10
3.42422
20
-1.53657
40
0.019685
50
360
51
540
0
ARC
8
BLACK
10
3.42422
20
-1.61531
40
0.019685
50
180
51
360
0
LINE
8
BLACK
6
CONTINUOUS
10
3.42422
20
-2.06526
11
3.42422
21
-2.10463
0
LINE
8
BLACK
6
CONTINUOUS
10
3.40454
20
-2.08494
11
3.44391
21
-2.08494
0
LINE
8
BLACK
6
CONTINUOUS
10
3.44391
20
-2.12431
11
3.44391
21
-2.04557
0
LINE
8
BLACK
6
CONTINUOUS
10
3.40454
20
-2.12431
11
3.40454
21
-2.04557
0
ARC
8
BLACK
10
3.42422
20
-2.04557
40
0.019685
50
360
51
540
0
ARC
8
BLACK
10
3.42422
20
-2.12431
40
0.019685
50
180
51
360
0
LINE
8
BLACK
6
CONTINUOUS
10
3.42422
20
-2.57427
11
3.42422
21
-2.61364
0
LINE
8
BLACK
6
CONTINUOUS
10
3.40454
20
-2.59395
11
3.44391
21
-2.59395
0
LINE
8
BLACK
6
CONTINUOUS
10
3.44391
20
-2.63332
11
3.44391
21
-2.55458
0
LINE
8
BLACK
6
CONTINUOUS
10
3.40454
20
-2.63332
11
3.40454
21
-2.55458
0
ARC
8
BLACK
10
3.42422
20
-2.55458
40
0.019685
50
360
51
540
0
ARC
8
BLACK
10
3.42422
20
-2.63332
40
0.019685
50
180
51
360
0
LINE
8
BLACK
6
CONTINUOUS
10
3.42422
20
-3.08328
11
3.42422
21
-3.12265
0
LINE
8
BLACK
6
CONTINUOUS
10
3.40454
20
-3.10296
11
3.44391
21
-3.10296
0
LINE
8
BLACK
6
CONTINUOUS
10
3.44391
20
-3.14233
11
3.44391
21
-3.06359
0
LINE
8
BLACK
6
CONTINUOUS
10
3.40454
20
-3.14233
11
3.40454
21
-3.06359
0
ARC
8
BLACK
10
3.42422
20
-3.06359
40
0.019685
50
360
51
540
0
ARC
8
BLACK
10
3.42422
20
-3.14233
40
0.019685
50
180
51
360
0
LINE
8
BLACK
6
CONTINUOUS
10
3.4252
20
-1.04724
11
3.4252
21
-1.08661
0
LINE
8
BLACK
6
CONTINUOUS
10
3.40551
20
-1.06693
11
3.44488
21
-1.06693
0
LINE
8
BLACK
6
CONTINUOUS
10
3.44488
20
-1.1063
11
3.44488
21
-1.02756
0
LINE
8
BLACK
6
CONTINUOUS
10
3.40551
20
-1.1063
11
3.40551
21
-1.02756
0
ARC
8
BLACK
10
3.4252
20
-1.02756
40
0.019685
50
360
51
540
0
ARC
8
BLACK
10
3.4252
20
-1.1063
40
0.019685
50
180
51
360
0
LINE
8
BLACK
6
CONTINUOUS
10
0.434564
20
-3.54856
11
0.434564
21
-3.51544
0
LINE
8
BLACK
6
CONTINUOUS
10
0.434564
20
-3.51544
11
0.401436
21
-3.51544
0
LINE
8
BLACK
6
CONTINUOUS
10
0.401436
20
-3.51544
11
0.401436
21
-3.54856
0
LINE
8
BLACK
6
CONTINUOUS
10
0.401436
20
-3.54856
11
0.434564
21
-3.54856
0
LINE
8
BLACK
6
CONTINUOUS
10
0.434564
20
-3.64856
11
0.434564
21
-3.61544
0
LINE
8
BLACK
6
CONTINUOUS
10
0.434564
20
-3.61544
11
0.401436
21
-3.61544
0
LINE
8
BLACK
6
CONTINUOUS
10
0.401436
20
-3.61544
11
0.401436
21
-3.64856
0
LINE
8
BLACK
6
CONTINUOUS
10
0.401436
20
-3.64856
11
0.434564
21
-3.64856
0
LINE
8
BLACK
6
CONTINUOUS
10
0.436564
20
-3.29256
11
0.436564
21
-3.25944
0
LINE
8
BLACK
6
CONTINUOUS
10
0.436564
20
-3.25944
11
0.403436
21
-3.25944
0
LINE
8
BLACK
6
CONTINUOUS
10
0.403436
20
-3.25944
11
0.403436
21
-3.29256
0
LINE
8
BLACK
6
CONTINUOUS
10
0.403436
20
-3.29256
11
0.436564
21
-3.29256
0
LINE
8
BLACK
6
CONTINUOUS
10
0.436564
20
-3.39256
11
0.436564
21
-3.35944
0
LINE
8
BLACK
6
CONTINUOUS
10
0.436564
20
-3.35944
11
0.403436
21
-3.35944
0
LINE
8
BLACK
6
CONTINUOUS
10
0.403436
20
-3.35944
11
0.403436
21
-3.39256
0
LINE
8
BLACK
6
CONTINUOUS
10
0.403436
20
-3.39256
11
0.436564
21
-3.39256
0
LINE
8
BLACK
6
CONTINUOUS
10
0.748564
20
-3.54856
11
0.748564
21
-3.51544
0
LINE
8
BLACK
6
CONTINUOUS
10
0.748564
20
-3.51544
11
0.715436
21
-3.51544
0
LINE
8
BLACK
6
CONTINUOUS
10
0.715436
20
-3.51544
11
0.715436
21
-3.54856
0
LINE
8
BLACK
6
CONTINUOUS
10
0.715436
20
-3.54856
11
0.748564
21
-3.54856
0
LINE
8
BLACK
6
CONTINUOUS
10
0.748564
20
-3.64856
11
0.748564
21
-3.61544
0
LINE
8
BLACK
6
CONTINUOUS
10
0.748564
20
-3.61544
11
0.715436
21
-3.61544
0
LINE
8
BLACK
6
CONTINUOUS
10
0.715436
20
-3.61544
11
0.715436
21
-3.64856
0
LINE
8
BLACK
6
CONTINUOUS
10
0.715436
20
-3.64856
11
0.748564
21
-3.64856
0
LINE
8
BLACK
6
CONTINUOUS
10
0.750564
20
-3.29256
11
0.750564
21
-3.25944
0
LINE
8
BLACK
6
CONTINUOUS
10
0.750564
20
-3.25944
11
0.717436
21
-3.25944
0
LINE
8
BLACK
6
CONTINUOUS
10
0.717436
20
-3.25944
11
0.717436
21
-3.29256
0
LINE
8
BLACK
6
CONTINUOUS
10
0.717436
20
-3.29256
11
0.750564
21
-3.29256
0
LINE
8
BLACK
6
CONTINUOUS
10
0.750564
20
-3.39256
11
0.750564
21
-3.35944
0
LINE
8
BLACK
6
CONTINUOUS
10
0.750564
20
-3.35944
11
0.717436
21
-3.35944
0
LINE
8
BLACK
6
CONTINUOUS
10
0.717436
20
-3.35944
11
0.717436
21
-3.39256
0
LINE
8
BLACK
6
CONTINUOUS
10
0.717436
20
-3.39256
11
0.750564
21
-3.39256
0
LINE
8
BLACK
6
CONTINUOUS
10
1.08507
20
-3.29294
11
1.08507
21
-3.25981
0
LINE
8
BLACK
6
CONTINUOUS
10
1.08507
20
-3.25981
11
1.05194
21
-3.25981
0
LINE
8
BLACK
6
CONTINUOUS
10
1.05194
20
-3.25981
11
1.05194
21
-3.29294
0
LINE
8
BLACK
6
CONTINUOUS
10
1.05194
20
-3.29294
11
1.08507
21
-3.29294
0
LINE
8
BLACK
6
CONTINUOUS
10
1.08507
20
-3.39294
11
1.08507
21
-3.35981
0
LINE
8
BLACK
6
CONTINUOUS
10
1.08507
20
-3.35981
11
1.05194
21
-3.35981
0
LINE
8
BLACK
6
CONTINUOUS
10
1.05194
20
-3.35981
11
1.05194
21
-3.39294
0
LINE
8
BLACK
6
CONTINUOUS
10
1.05194
20
-3.39294
11
1.08507
21
-3.39294
0
LINE
8
BLACK
6
CONTINUOUS
10
1.08507
20
-3.54294
11
1.08507
21
-3.50981
0
LINE
8
BLACK
6
CONTINUOUS
10
1.08507
20
-3.50981
11
1.05194
21
-3.50981
0
LINE
8
BLACK
6
CONTINUOUS
10
1.05194
20
-3.50981
11
1.05194
21
-3.54294
0
LINE
8
BLACK
6
CONTINUOUS
10
1.05194
20
-3.54294
11
1.08507
21
-3.54294
0
LINE
8
BLACK
6
CONTINUOUS
10
1.08507
20
-3.64294
11
1.08507
21
-3.60981
0
LINE
8
BLACK
6
CONTINUOUS
10
1.08507
20
-3.60981
11
1.05194
21
-3.60981
0
LINE
8
BLACK
6
CONTINUOUS
10
1.05194
20
-3.60981
11
1.05194
21
-3.64294
0
LINE
8
BLACK
6
CONTINUOUS
10
1.05194
20
-3.64294
11
1.08507
21
-3.64294
0
LINE
8
BLACK
6
CONTINUOUS
10
2.05436
20
-3.56056
11
2.05436
21
-3.52744
0
LINE
8
BLACK
6
CONTINUOUS
10
2.05436
20
-3.52744
11
2.02123
21
-3.52744
0
LINE
8
BLACK
6
CONTINUOUS
10
2.02123
20
-3.52744
11
2.02123
21
-3.56056
0
LINE
8
BLACK
6
CONTINUOUS
10
2.02123
20
-3.56056
11
2.05436
21
-3.56056
0
LINE
8
BLACK
6
CONTINUOUS
10
2.15436
20
-3.56056
11
2.15436
21
-3.52744
0
LINE
8
BLACK
6
CONTINUOUS
10
2.15436
20
-3.52744
11
2.12123
21
-3.52744
0
LINE
8
BLACK
6
CONTINUOUS
10
2.12123
20
-3.52744
11
2.12123
21
-3.56056
0
LINE
8
BLACK
6
CONTINUOUS
10
2.12123
20
-3.56056
11
2.15436
21
-3.56056
0
LINE
8
BLACK
6
CONTINUOUS
10
2.20856
20
-3.00856
11
2.20856
21
-2.97544
0
LINE
8
BLACK
6
CONTINUOUS
10
2.20856
20
-2.97544
11
2.17544
21
-2.97544
0
LINE
8
BLACK
6
CONTINUOUS
10
2.17544
20
-2.97544
11
2.17544
21
-3.00856
0
LINE
8
BLACK
6
CONTINUOUS
10
2.17544
20
-3.00856
11
2.20856
21
-3.00856
0
LINE
8
BLACK
6
CONTINUOUS
10
2.30856
20
-3.00856
11
2.30856
21
-2.97544
0
LINE
8
BLACK
6
CONTINUOUS
10
2.30856
20
-2.97544
11
2.27544
21
-2.97544
0
LINE
8
BLACK
6
CONTINUOUS
10
2.27544
20
-2.97544
11
2.27544
21
-3.00856
0
LINE
8
BLACK
6
CONTINUOUS
10
2.27544
20
-3.00856
11
2.30856
21
-3.00856
0
LINE
8
BLACK
6
CONTINUOUS
10
2.3116
20
-3.56056
11
2.3116
21
-3.52744
0
LINE
8
BLACK
6
CONTINUOUS
10
2.3116
20
-3.52744
11
2.27847
21
-3.52744
0
LINE
8
BLACK
6
CONTINUOUS
10
2.27847
20
-3.52744
11
2.27847
21
-3.56056
0
LINE
8
BLACK
6
CONTINUOUS
10
2.27847
20
-3.56056
11
2.3116
21
-3.56056
0
LINE
8
BLACK
6
CONTINUOUS
10
2.4116
20
-3.56056
11
2.4116
21
-3.52744
0
LINE
8
BLACK
6
CONTINUOUS
10
2.4116
20
-3.52744
11
2.37847
21
-3.52744
0
LINE
8
BLACK
6
CONTINUOUS
10
2.37847
20
-3.52744
11
2.37847
21
-3.56056
0
LINE
8
BLACK
6
CONTINUOUS
10
2.37847
20
-3.56056
11
2.4116
21
-3.56056
0
LINE
8
BLACK
6
CONTINUOUS
10
2.56884
20
-3.56056
11
2.56884
21
-3.52744
0
LINE
8
BLACK
6
CONTINUOUS
10
2.56884
20
-3.52744
11
2.53571
21
-3.52744
0
LINE
8
BLACK
6
CONTINUOUS
10
2.53571
20
-3.52744
11
2.53571
21
-3.56056
0
LINE
8
BLACK
6
CONTINUOUS
10
2.53571
20
-3.56056
11
2.56884
21
-3.56056
0
LINE
8
BLACK
6
CONTINUOUS
10
2.66884
20
-3.56056
11
2.66884
21
-3.52744
0
LINE
8
BLACK
6
CONTINUOUS
10
2.66884
20
-3.52744
11
2.63571
21
-3.52744
0
LINE
8
BLACK
6
CONTINUOUS
10
2.63571
20
-3.52744
11
2.63571
21
-3.56056
0
LINE
8
BLACK
6
CONTINUOUS
10
2.63571
20
-3.56056
11
2.66884
21
-3.56056
0
LINE
8
BLACK
6
CONTINUOUS
10
2.82608
20
-3.55856
11
2.82608
21
-3.52544
0
LINE
8
BLACK
6
CONTINUOUS
10
2.82608
20
-3.52544
11
2.79296
21
-3.52544
0
LINE
8
BLACK
6
CONTINUOUS
10
2.79296
20
-3.52544
11
2.79296
21
-3.55856
0
LINE
8
BLACK
6
CONTINUOUS
10
2.79296
20
-3.55856
11
2.82608
21
-3.55856
0
LINE
8
BLACK
6
CONTINUOUS
10
2.92608
20
-3.55856
11
2.92608
21
-3.52544
0
LINE
8
BLACK
6
CONTINUOUS
10
2.92608
20
-3.52544
11
2.89296
21
-3.52544
0
LINE
8
BLACK
6
CONTINUOUS
10
2.89296
20
-3.52544
11
2.89296
21
-3.55856
0
LINE
8
BLACK
6
CONTINUOUS
10
2.89296
20
-3.55856
11
2.92608
21
-3.55856
0
LINE
8
BLACK
6
CONTINUOUS
10
3.08332
20
-3.55856
11
3.08332
21
-3.52544
0
LINE
8
BLACK
6
CONTINUOUS
10
3.08332
20
-3.52544
11
3.0502
21
-3.52544
0
LINE
8
BLACK
6
CONTINUOUS
10
3.0502
20
-3.52544
11
3.0502
21
-3.55856
0
LINE
8
BLACK
6
CONTINUOUS
10
3.0502
20
-3.55856
11
3.08332
21
-3.55856
0
LINE
8
BLACK
6
CONTINUOUS
10
3.18332
20
-3.55856
11
3.18332
21
-3.52544
0
LINE
8
BLACK
6
CONTINUOUS
10
3.18332
20
-3.52544
11
3.1502
21
-3.52544
0
LINE
8
BLACK
6
CONTINUOUS
10
3.1502
20
-3.52544
11
3.1502
21
-3.55856
0
LINE
8
BLACK
6
CONTINUOUS
10
3.1502
20
-3.55856
11
3.18332
21
-3.55856
0
LINE
8
BLACK
6
CONTINUOUS
10
3.34056
20
-3.55856
11
3.34056
21
-3.52544
0
LINE
8
BLACK
6
CONTINUOUS
10
3.34056
20
-3.52544
11
3.30744
21
-3.52544
0
LINE
8
BLACK
6
CONTINUOUS
10
3.30744
20
-3.52544
11
3.30744
21
-3.55856
0
LINE
8
BLACK
6
CONTINUOUS
10
3.30744
20
-3.55856
11
3.34056
21
-3.55856
0
LINE
8
BLACK
6
CONTINUOUS
10
3.44056
20
-3.55856
11
3.44056
21
-3.52544
0
LINE
8
BLACK
6
CONTINUOUS
10
3.44056
20
-3.52544
11
3.40744
21
-3.52544
0
LINE
8
BLACK
6
CONTINUOUS
10
3.40744
20
-3.52544
11
3.40744
21
-3.55856
0
LINE
8
BLACK
6
CONTINUOUS
10
3.40744
20
-3.55856
11
3.44056
21
-3.55856
0
LINE
8
BLACK
6
CONTINUOUS
10
1.3685
20
-0.165
11
1.39213
21
-0.141378
0
LINE
8
BLACK
6
CONTINUOUS
10
1.39213
20
-0.141378
11
1.3685
21
-0.117756
0
LINE
8
BLACK
6
CONTINUOUS
10
1.3685
20
-0.117756
11
1.34488
21
-0.141378
0
LINE
8
BLACK
6
CONTINUOUS
10
1.34488
20
-0.141378
11
1.3685
21
-0.165
0
LINE
8
BLACK
6
CONTINUOUS
10
1.4685
20
-0.165
11
1.49213
21
-0.141378
0
LINE
8
BLACK
6
CONTINUOUS
10
1.49213
20
-0.141378
11
1.4685
21
-0.117756
0
LINE
8
BLACK
6
CONTINUOUS
10
1.4685
20
-0.117756
11
1.44488
21
-0.141378
0
LINE
8
BLACK
6
CONTINUOUS
10
1.44488
20
-0.141378
11
1.4685
21
-0.165
0
LINE
8
BLACK
6
CONTINUOUS
10
1.5685
20
-0.165
11
1.59213
21
-0.141378
0
LINE
8
BLACK
6
CONTINUOUS
10
1.59213
20
-0.141378
11
1.5685
21
-0.117756
0
LINE
8
BLACK
6
CONTINUOUS
10
1.5685
20
-0.117756
11
1.54488
21
-0.141378
0
LINE
8
BLACK
6
CONTINUOUS
10
1.54488
20
-0.141378
11
1.5685
21
-0.165
0
LINE
8
BLACK
6
CONTINUOUS
10
1.6685
20
-0.165
11
1.69213
21
-0.141378
0
LINE
8
BLACK
6
CONTINUOUS
10
1.69213
20
-0.141378
11
1.6685
21
-0.117756
0
LINE
8
BLACK
6
CONTINUOUS
10
1.6685
20
-0.117756
11
1.64488
21
-0.141378
0
LINE
8
BLACK
6
CONTINUOUS
10
1.64488
20
-0.141378
11
1.6685
21
-0.165
0
LINE
8
BLACK
6
CONTINUOUS
10
1.7685
20
-0.165
11
1.79213
21
-0.141378
0
LINE
8
BLACK
6
CONTINUOUS
10
1.79213
20
-0.141378
11
1.7685
21
-0.117756
0
LINE
8
BLACK
6
CONTINUOUS
10
1.7685
20
-0.117756
11
1.74488
21
-0.141378
0
LINE
8
BLACK
6
CONTINUOUS
10
1.74488
20
-0.141378
11
1.7685
21
-0.165
0
LINE
8
BLACK
6
CONTINUOUS
10
1.8685
20
-0.165
11
1.89213
21
-0.141378
0
LINE
8
BLACK
6
CONTINUOUS
10
1.89213
20
-0.141378
11
1.8685
21
-0.117756
0
LINE
8
BLACK
6
CONTINUOUS
10
1.8685
20
-0.117756
11
1.84488
21
-0.141378
0
LINE
8
BLACK
6
CONTINUOUS
10
1.84488
20
-0.141378
11
1.8685
21
-0.165
0
LINE
8
BLACK
6
CONTINUOUS
10
1.9685
20
-0.165
11
1.99213
21
-0.141378
0
LINE
8
BLACK
6
CONTINUOUS
10
1.99213
20
-0.141378
11
1.9685
21
-0.117756
0
LINE
8
BLACK
6
CONTINUOUS
10
1.9685
20
-0.117756
11
1.94488
21
-0.141378
0
LINE
8
BLACK
6
CONTINUOUS
10
1.94488
20
-0.141378
11
1.9685
21
-0.165
0
LINE
8
BLACK
6
CONTINUOUS
10
2.0685
20
-0.165
11
2.09213
21
-0.141378
0
LINE
8
BLACK
6
CONTINUOUS
10
2.09213
20
-0.141378
11
2.0685
21
-0.117756
0
LINE
8
BLACK
6
CONTINUOUS
10
2.0685
20
-0.117756
11
2.04488
21
-0.141378
0
LINE
8
BLACK
6
CONTINUOUS
10
2.04488
20
-0.141378
11
2.0685
21
-0.165
0
LINE
8
BLACK
6
CONTINUOUS
10
0.237283
20
-0.422835
11
0.292402
21
-0.477953
0
LINE
8
BLACK
6
CONTINUOUS
10
0.292402
20
-0.422835
11
0.237283
21
-0.477953
0
CIRCLE
8
BLACK
10
0.264843
20
-0.450394
40
0.0275591
0
LINE
8
BLACK
6
CONTINUOUS
10
0.237283
20
-0.63937
11
0.292402
21
-0.694488
0
LINE
8
BLACK
6
CONTINUOUS
10
0.292402
20
-0.63937
11
0.237283
21
-0.694488
0
CIRCLE
8
BLACK
10
0.264843
20
-0.666929
40
0.0275591
0
LINE
8
BLACK
6
CONTINUOUS
10
0.402638
20
-0.422835
11
0.457756
21
-0.477953
0
LINE
8
BLACK
6
CONTINUOUS
10
0.457756
20
-0.422835
11
0.402638
21
-0.477953
0
CIRCLE
8
BLACK
10
0.430197
20
-0.450394
40
0.0275591
0
LINE
8
BLACK
6
CONTINUOUS
10
0.402638
20
-0.63937
11
0.457756
21
-0.694488
0
LINE
8
BLACK
6
CONTINUOUS
10
0.457756
20
-0.63937
11
0.402638
21
-0.694488
0
CIRCLE
8
BLACK
10
0.430197
20
-0.666929
40
0.0275591
0
LINE
8
BLACK
6
CONTINUOUS
10
0.872441
20
-0.532835
11
0.927559
21
-0.587953
0
LINE
8
BLACK
6
CONTINUOUS
10
0.927559
20
-0.532835
11
0.872441
21
-0.587953
0
CIRCLE
8
BLACK
10
0.9
20
-0.560394
40
0.0275591
0
LINE
8
BLACK
6
CONTINUOUS
10
0.872441
20
-0.74937
11
0.927559
21
-0.804488
0
LINE
8
BLACK
6
CONTINUOUS
10
0.927559
20
-0.74937
11
0.872441
21
-0.804488
0
CIRCLE
8
BLACK
10
0.9
20
-0.776929
40
0.0275591
0
LINE
8
BLACK
6
CONTINUOUS
10
1.0378
20
-0.532835
11
1.09291
21
-0.587953
0
LINE
8
BLACK
6
CONTINUOUS
10
1.09291
20
-0.532835
11
1.0378
21
-0.587953
0
CIRCLE
8
BLACK
10
1.06535
20
-0.560394
40
0.0275591
0
LINE
8
BLACK
6
CONTINUOUS
10
1.0378
20
-0.74937
11
1.09291
21
-0.804488
0
LINE
8
BLACK
6
CONTINUOUS
10
1.09291
20
-0.74937
11
1.0378
21
-0.804488
0
CIRCLE
8
BLACK
10
1.06535
20
-0.776929
40
0.0275591
0
LINE
8
BLACK
6
CONTINUOUS
10
1.3126
20
-0.532835
11
1.36772
21
-0.587953
0
LINE
8
BLACK
6
CONTINUOUS
10
1.36772
20
-0.532835
11
1.3126
21
-0.587953
0
CIRCLE
8
BLACK
10
1.34016
20
-0.560394
40
0.0275591
0
LINE
8
BLACK
6
CONTINUOUS
10
1.3126
20
-0.74937
11
1.36772
21
-0.804488
0
LINE
8
BLACK
6
CONTINUOUS
10
1.36772
20
-0.74937
11
1.3126
21
-0.804488
0
CIRCLE
8
BLACK
10
1.34016
20
-0.776929
40
0.0275591
0
LINE
8
BLACK
6
CONTINUOUS
10
1.47795
20
-0.532835
11
1.53307
21
-0.587953
0
LINE
8
BLACK
6
CONTINUOUS
10
1.53307
20
-0.532835
11
1.47795
21
-0.587953
0
CIRCLE
8
BLACK
10
1.50551
20
-0.560394
40
0.0275591
0
LINE
8
BLACK
6
CONTINUOUS
10
1.47795
20
-0.74937
11
1.53307
21
-0.804488
0
LINE
8
BLACK
6
CONTINUOUS
10
1.53307
20
-0.74937
11
1.47795
21
-0.804488
0
CIRCLE
8
BLACK
10
1.50551
20
-0.776929
40
0.0275591
0
LINE
8
BLACK
6
CONTINUOUS
10
1.59594
20
-1.07992
11
1.65106
21
-1.13504
0
LINE
8
BLACK
6
CONTINUOUS
10
1.65106
20
-1.07992
11
1.59594
21
-1.13504
0
CIRCLE
8
BLACK
10
1.6235
20
-1.10748
40
0.0275591
0
LINE
8
BLACK
6
CONTINUOUS
10
1.59594
20
-1.24528
11
1.65106
21
-1.30039
0
LINE
8
BLACK
6
CONTINUOUS
10
1.65106
20
-1.24528
11
1.59594
21
-1.30039
0
CIRCLE
8
BLACK
10
1.6235
20
-1.27283
40
0.0275591
0
LINE
8
BLACK
6
CONTINUOUS
10
1.59594
20
-1.41063
11
1.65106
21
-1.46575
0
LINE
8
BLACK
6
CONTINUOUS
10
1.65106
20
-1.41063
11
1.59594
21
-1.46575
0
CIRCLE
8
BLACK
10
1.6235
20
-1.43819
40
0.0275591
0
LINE
8
BLACK
6
CONTINUOUS
10
1.59594
20
-1.57598
11
1.65106
21
-1.6311
0
LINE
8
BLACK
6
CONTINUOUS
10
1.65106
20
-1.57598
11
1.59594
21
-1.6311
0
CIRCLE
8
BLACK
10
1.6235
20
-1.60354
40
0.0275591
0
LINE
8
BLACK
6
CONTINUOUS
10
1.59594
20
-1.74134
11
1.65106
21
-1.79646
0
LINE
8
BLACK
6
CONTINUOUS
10
1.65106
20
-1.74134
11
1.59594
21
-1.79646
0
CIRCLE
8
BLACK
10
1.6235
20
-1.7689
40
0.0275591
0
LINE
8
BLACK
6
CONTINUOUS
10
1.59594
20
-1.90669
11
1.65106
21
-1.96181
0
LINE
8
BLACK
6
CONTINUOUS
10
1.65106
20
-1.90669
11
1.59594
21
-1.96181
0
CIRCLE
8
BLACK
10
1.6235
20
-1.93425
40
0.0275591
0
LINE
8
BLACK
6
CONTINUOUS
10
1.59594
20
-2.07205
11
1.65106
21
-2.12717
0
LINE
8
BLACK
6
CONTINUOUS
10
1.65106
20
-2.07205
11
1.59594
21
-2.12717
0
CIRCLE
8
BLACK
10
1.6235
20
-2.09961
40
0.0275591
0
LINE
8
BLACK
6
CONTINUOUS
10
1.59594
20
-2.2374
11
1.65106
21
-2.29252
0
LINE
8
BLACK
6
CONTINUOUS
10
1.65106
20
-2.2374
11
1.59594
21
-2.29252
0
CIRCLE
8
BLACK
10
1.6235
20
-2.26496
40
0.0275591
0
LINE
8
BLACK
6
CONTINUOUS
10
1.59594
20
-2.40276
11
1.65106
21
-2.45787
0
LINE
8
BLACK
6
CONTINUOUS
10
1.65106
20
-2.40276
11
1.59594
21
-2.45787
0
CIRCLE
8
BLACK
10
1.6235
20
-2.43031
40
0.0275591
0
LINE
8
BLACK
6
CONTINUOUS
10
1.59594
20
-2.56811
11
1.65106
21
-2.62323
0
LINE
8
BLACK
6
CONTINUOUS
10
1.65106
20
-2.56811
11
1.59594
21
-2.62323
0
CIRCLE
8
BLACK
10
1.6235
20
-2.59567
40
0.0275591
0
LINE
8
BLACK
6
CONTINUOUS
10
1.59594
20
-2.73346
11
1.65106
21
-2.78858
0
LINE
8
BLACK
6
CONTINUOUS
10
1.65106
20
-2.73346
11
1.59594
21
-2.78858
0
CIRCLE
8
BLACK
10
1.6235
20
-2.76102
40
0.0275591
0
LINE
8
BLACK
6
CONTINUOUS
10
1.59594
20
-2.89882
11
1.65106
21
-2.95394
0
LINE
8
BLACK
6
CONTINUOUS
10
1.65106
20
-2.89882
11
1.59594
21
-2.95394
0
CIRCLE
8
BLACK
10
1.6235
20
-2.92638
40
0.0275591
0
LINE
8
BLACK
6
CONTINUOUS
10
1.75276
20
-0.532835
11
1.80787
21
-0.587953
0
LINE
8
BLACK
6
CONTINUOUS
10
1.80787
20
-0.532835
11
1.75276
21
-0.587953
0
CIRCLE
8
BLACK
10
1.78031
20
-0.560394
40
0.0275591
0
LINE
8
BLACK
6
CONTINUOUS
10
1.75276
20
-0.74937
11
1.80787
21
-0.804488
0
LINE
8
BLACK
6
CONTINUOUS
10
1.80787
20
-0.74937
11
1.75276
21
-0.804488
0
CIRCLE
8
BLACK
10
1.78031
20
-0.776929
40
0.0275591
0
LINE
8
BLACK
6
CONTINUOUS
10
1.81248
20
-1.07992
11
1.8676
21
-1.13504
0
LINE
8
BLACK
6
CONTINUOUS
10
1.8676
20
-1.07992
11
1.81248
21
-1.13504
0
CIRCLE
8
BLACK
10
1.84004
20
-1.10748
40
0.0275591
0
LINE
8
BLACK
6
CONTINUOUS
10
1.81248
20
-1.24528
11
1.8676
21
-1.30039
0
LINE
8
BLACK
6
CONTINUOUS
10
1.8676
20
-1.24528
11
1.81248
21
-1.30039
0
CIRCLE
8
BLACK
10
1.84004
20
-1.27283
40
0.0275591
0
LINE
8
BLACK
6
CONTINUOUS
10
1.81248
20
-1.41063
11
1.8676
21
-1.46575
0
LINE
8
BLACK
6
CONTINUOUS
10
1.8676
20
-1.41063
11
1.81248
21
-1.46575
0
CIRCLE
8
BLACK
10
1.84004
20
-1.43819
40
0.0275591
0
LINE
8
BLACK
6
CONTINUOUS
10
1.81248
20
-1.57598
11
1.8676
21
-1.6311
0
LINE
8
BLACK
6
CONTINUOUS
10
1.8676
20
-1.57598
11
1.81248
21
-1.6311
0
CIRCLE
8
BLACK
10
1.84004
20
-1.60354
40
0.0275591
0
LINE
8
BLACK
6
CONTINUOUS
10
1.81248
20
-1.74134
11
1.8676
21
-1.79646
0
LINE
8
BLACK
6
CONTINUOUS
10
1.8676
20
-1.74134
11
1.81248
21
-1.79646
0
CIRCLE
8
BLACK
10
1.84004
20
-1.7689
40
0.0275591
0
LINE
8
BLACK
6
CONTINUOUS
10
1.81248
20
-1.90669
11
1.8676
21
-1.96181
0
LINE
8
BLACK
6
CONTINUOUS
10
1.8676
20
-1.90669
11
1.81248
21
-1.96181
0
CIRCLE
8
BLACK
10
1.84004
20
-1.93425
40
0.0275591
0
LINE
8
BLACK
6
CONTINUOUS
10
1.81248
20
-2.07205
11
1.8676
21
-2.12717
0
LINE
8
BLACK
6
CONTINUOUS
10
1.8676
20
-2.07205
11
1.81248
21
-2.12717
0
CIRCLE
8
BLACK
10
1.84004
20
-2.09961
40
0.0275591
0
LINE
8
BLACK
6
CONTINUOUS
10
1.81248
20
-2.2374
11
1.8676
21
-2.29252
0
LINE
8
BLACK
6
CONTINUOUS
10
1.8676
20
-2.2374
11
1.81248
21
-2.29252
0
CIRCLE
8
BLACK
10
1.84004
20
-2.26496
40
0.0275591
0
LINE
8
BLACK
6
CONTINUOUS
10
1.81248
20
-2.40276
11
1.8676
21
-2.45787
0
LINE
8
BLACK
6
CONTINUOUS
10
1.8676
20
-2.40276
11
1.81248
21
-2.45787
0
CIRCLE
8
BLACK
10
1.84004
20
-2.43031
40
0.0275591
0
LINE
8
BLACK
6
CONTINUOUS
10
1.81248
20
-2.56811
11
1.8676
21
-2.62323
0
LINE
8
BLACK
6
CONTINUOUS
10
1.8676
20
-2.56811
11
1.81248
21
-2.62323
0
CIRCLE
8
BLACK
10
1.84004
20
-2.59567
40
0.0275591
0
LINE
8
BLACK
6
CONTINUOUS
10
1.81248
20
-2.73346
11
1.8676
21
-2.78858
0
LINE
8
BLACK
6
CONTINUOUS
10
1.8676
20
-2.73346
11
1.81248
21
-2.78858
0
CIRCLE
8
BLACK
10
1.84004
20
-2.76102
40
0.0275591
0
LINE
8
BLACK
6
CONTINUOUS
10
1.81248
20
-2.89882
11
1.8676
21
-2.95394
0
LINE
8
BLACK
6
CONTINUOUS
10
1.8676
20
-2.89882
11
1.81248
21
-2.95394
0
CIRCLE
8
BLACK
10
1.84004
20
-2.92638
40
0.0275591
0
LINE
8
BLACK
6
CONTINUOUS
10
1.91811
20
-0.532835
11
1.97323
21
-0.587953
0
LINE
8
BLACK
6
CONTINUOUS
10
1.97323
20
-0.532835
11
1.91811
21
-0.587953
0
CIRCLE
8
BLACK
10
1.94567
20
-0.560394
40
0.0275591
0
LINE
8
BLACK
6
CONTINUOUS
10
1.91811
20
-0.74937
11
1.97323
21
-0.804488
0
LINE
8
BLACK
6
CONTINUOUS
10
1.97323
20
-0.74937
11
1.91811
21
-0.804488
0
CIRCLE
8
BLACK
10
1.94567
20
-0.776929
40
0.0275591
0
LINE
8
BLACK
6
CONTINUOUS
10
2.31059
20
-0.392283
11
2.36571
21
-0.447402
0
LINE
8
BLACK
6
CONTINUOUS
10
2.36571
20
-0.392283
11
2.31059
21
-0.447402
0
CIRCLE
8
BLACK
10
2.33815
20
-0.419843
40
0.0275591
0
LINE
8
BLACK
6
CONTINUOUS
10
2.31059
20
-0.608819
11
2.36571
21
-0.663937
0
LINE
8
BLACK
6
CONTINUOUS
10
2.36571
20
-0.608819
11
2.31059
21
-0.663937
0
CIRCLE
8
BLACK
10
2.33815
20
-0.636378
40
0.0275591
0
LINE
8
BLACK
6
CONTINUOUS
10
2.47594
20
-0.392283
11
2.53106
21
-0.447402
0
LINE
8
BLACK
6
CONTINUOUS
10
2.53106
20
-0.392283
11
2.47594
21
-0.447402
0
CIRCLE
8
BLACK
10
2.5035
20
-0.419843
40
0.0275591
0
LINE
8
BLACK
6
CONTINUOUS
10
2.47594
20
-0.608819
11
2.53106
21
-0.663937
0
LINE
8
BLACK
6
CONTINUOUS
10
2.53106
20
-0.608819
11
2.47594
21
-0.663937
0
CIRCLE
8
BLACK
10
2.5035
20
-0.636378
40
0.0275591
0
LINE
8
BLACK
6
CONTINUOUS
10
2.79559
20
-0.397283
11
2.85071
21
-0.452402
0
LINE
8
BLACK
6
CONTINUOUS
10
2.85071
20
-0.397283
11
2.79559
21
-0.452402
0
CIRCLE
8
BLACK
10
2.82315
20
-0.424843
40
0.0275591
0
LINE
8
BLACK
6
CONTINUOUS
10
2.79559
20
-0.613819
11
2.85071
21
-0.668937
0
LINE
8
BLACK
6
CONTINUOUS
10
2.85071
20
-0.613819
11
2.79559
21
-0.668937
0
CIRCLE
8
BLACK
10
2.82315
20
-0.641378
40
0.0275591
0
LINE
8
BLACK
6
CONTINUOUS
10
2.96094
20
-0.397283
11
3.01606
21
-0.452402
0
LINE
8
BLACK
6
CONTINUOUS
10
3.01606
20
-0.397283
11
2.96094
21
-0.452402
0
CIRCLE
8
BLACK
10
2.9885
20
-0.424843
40
0.0275591
0
LINE
8
BLACK
6
CONTINUOUS
10
2.96094
20
-0.613819
11
3.01606
21
-0.668937
0
LINE
8
BLACK
6
CONTINUOUS
10
3.01606
20
-0.613819
11
2.96094
21
-0.668937
0
CIRCLE
8
BLACK
10
2.9885
20
-0.641378
40
0.0275591
0
LINE
8
BLACK
6
CONTINUOUS
10
3.29094
20
-0.363819
11
3.34606
21
-0.418937
0
LINE
8
BLACK
6
CONTINUOUS
10
3.34606
20
-0.363819
11
3.29094
21
-0.418937
0
CIRCLE
8
BLACK
10
3.3185
20
-0.391378
40
0.0275591
0
LINE
8
BLACK
6
CONTINUOUS
10
3.29094
20
-0.580354
11
3.34606
21
-0.635472
0
LINE
8
BLACK
6
CONTINUOUS
10
3.34606
20
-0.580354
11
3.29094
21
-0.635472
0
CIRCLE
8
BLACK
10
3.3185
20
-0.607913
40
0.0275591
0
LINE
8
BLACK
6
CONTINUOUS
10
3.4563
20
-0.363819
11
3.51142
21
-0.418937
0
LINE
8
BLACK
6
CONTINUOUS
10
3.51142
20
-0.363819
11
3.4563
21
-0.418937
0
CIRCLE
8
BLACK
10
3.48386
20
-0.391378
40
0.0275591
0
LINE
8
BLACK
6
CONTINUOUS
10
3.4563
20
-0.580354
11
3.51142
21
-0.635472
0
LINE
8
BLACK
6
CONTINUOUS
10
3.51142
20
-0.580354
11
3.4563
21
-0.635472
0
CIRCLE
8
BLACK
10
3.48386
20
-0.607913
40
0.0275591
0
LINE
8
BLACK
6
CONTINUOUS
10
0.111783
20
-3.92449
11
0.111783
21
-3.80638
0
LINE
8
BLACK
6
CONTINUOUS
10
0.111783
20
-3.80638
11
0.139904
21
-3.80638
0
LINE
8
BLACK
6
CONTINUOUS
10
0.139904
20
-3.80638
11
0.156777
21
-3.81201
0
LINE
8
BLACK
6
CONTINUOUS
10
0.156777
20
-3.81201
11
0.168026
21
-3.82326
0
LINE
8
BLACK
6
CONTINUOUS
10
0.168026
20
-3.82326
11
0.17365
21
-3.83451
0
LINE
8
BLACK
6
CONTINUOUS
10
0.17365
20
-3.83451
11
0.179274
21
-3.857
0
LINE
8
BLACK
6
CONTINUOUS
10
0.179274
20
-3.857
11
0.179274
21
-3.87388
0
LINE
8
BLACK
6
CONTINUOUS
10
0.179274
20
-3.87388
11
0.17365
21
-3.89637
0
LINE
8
BLACK
6
CONTINUOUS
10
0.17365
20
-3.89637
11
0.168026
21
-3.90762
0
LINE
8
BLACK
6
CONTINUOUS
10
0.168026
20
-3.90762
11
0.156777
21
-3.91887
0
LINE
8
BLACK
6
CONTINUOUS
10
0.156777
20
-3.91887
11
0.139904
21
-3.92449
0
LINE
8
BLACK
6
CONTINUOUS
10
0.139904
20
-3.92449
11
0.111783
21
-3.92449
0
LINE
8
BLACK
6
CONTINUOUS
10
0.229893
20
-3.92449
11
0.229893
21
-3.84575
0
LINE
8
BLACK
6
CONTINUOUS
10
0.229893
20
-3.86825
11
0.235517
21
-3.857
0
LINE
8
BLACK
6
CONTINUOUS
10
0.235517
20
-3.857
11
0.241142
21
-3.85138
0
LINE
8
BLACK
6
CONTINUOUS
10
0.241142
20
-3.85138
11
0.25239
21
-3.84575
0
LINE
8
BLACK
6
CONTINUOUS
10
0.25239
20
-3.84575
11
0.263639
21
-3.84575
0
LINE
8
BLACK
6
CONTINUOUS
10
0.303009
20
-3.92449
11
0.303009
21
-3.84575
0
LINE
8
BLACK
6
CONTINUOUS
10
0.303009
20
-3.80638
11
0.297385
21
-3.81201
0
LINE
8
BLACK
6
CONTINUOUS
10
0.297385
20
-3.81201
11
0.303009
21
-3.81763
0
LINE
8
BLACK
6
CONTINUOUS
10
0.303009
20
-3.81763
11
0.308633
21
-3.81201
0
LINE
8
BLACK
6
CONTINUOUS
10
0.308633
20
-3.81201
11
0.303009
21
-3.80638
0
LINE
8
BLACK
6
CONTINUOUS
10
0.303009
20
-3.80638
11
0.303009
21
-3.81763
0
LINE
8
BLACK
6
CONTINUOUS
10
0.376125
20
-3.92449
11
0.364876
21
-3.91887
0
LINE
8
BLACK
6
CONTINUOUS
10
0.364876
20
-3.91887
11
0.359252
21
-3.90762
0
LINE
8
BLACK
6
CONTINUOUS
10
0.359252
20
-3.90762
11
0.359252
21
-3.80638
0
LINE
8
BLACK
6
CONTINUOUS
10
0.437992
20
-3.92449
11
0.426743
21
-3.91887
0
LINE
8
BLACK
6
CONTINUOUS
10
0.426743
20
-3.91887
11
0.421119
21
-3.90762
0
LINE
8
BLACK
6
CONTINUOUS
10
0.421119
20
-3.90762
11
0.421119
21
-3.80638
0
LINE
8
BLACK
6
CONTINUOUS
10
0.572975
20
-3.92449
11
0.572975
21
-3.80638
0
LINE
8
BLACK
6
CONTINUOUS
10
0.572975
20
-3.80638
11
0.612345
21
-3.89075
0
LINE
8
BLACK
6
CONTINUOUS
10
0.612345
20
-3.89075
11
0.651715
21
-3.80638
0
LINE
8
BLACK
6
CONTINUOUS
10
0.651715
20
-3.80638
11
0.651715
21
-3.92449
0
LINE
8
BLACK
6
CONTINUOUS
10
0.758577
20
-3.92449
11
0.758577
21
-3.86263
0
LINE
8
BLACK
6
CONTINUOUS
10
0.758577
20
-3.86263
11
0.752953
21
-3.85138
0
LINE
8
BLACK
6
CONTINUOUS
10
0.752953
20
-3.85138
11
0.741704
21
-3.84575
0
LINE
8
BLACK
6
CONTINUOUS
10
0.741704
20
-3.84575
11
0.719207
21
-3.84575
0
LINE
8
BLACK
6
CONTINUOUS
10
0.719207
20
-3.84575
11
0.707958
21
-3.85138
0
LINE
8
BLACK
6
CONTINUOUS
10
0.758577
20
-3.91887
11
0.747328
21
-3.92449
0
LINE
8
BLACK
6
CONTINUOUS
10
0.747328
20
-3.92449
11
0.719207
21
-3.92449
0
LINE
8
BLACK
6
CONTINUOUS
10
0.719207
20
-3.92449
11
0.707958
21
-3.91887
0
LINE
8
BLACK
6
CONTINUOUS
10
0.707958
20
-3.91887
11
0.702334
21
-3.90762
0
LINE
8
BLACK
6
CONTINUOUS
10
0.702334
20
-3.90762
11
0.702334
21
-3.89637
0
LINE
8
BLACK
6
CONTINUOUS
10
0.702334
20
-3.89637
11
0.707958
21
-3.88512
0
LINE
8
BLACK
6
CONTINUOUS
10
0.707958
20
-3.88512
11
0.719207
21
-3.8795
0
LINE
8
BLACK
6
CONTINUOUS
10
0.719207
20
-3.8795
11
0.747328
21
-3.8795
0
LINE
8
BLACK
6
CONTINUOUS
10
0.747328
20
-3.8795
11
0.758577
21
-3.87388
0
LINE
8
BLACK
6
CONTINUOUS
10
0.81482
20
-3.84575
11
0.81482
21
-3.96386
0
LINE
8
BLACK
6
CONTINUOUS
10
0.81482
20
-3.85138
11
0.826069
21
-3.84575
0
LINE
8
BLACK
6
CONTINUOUS
10
0.826069
20
-3.84575
11
0.848566
21
-3.84575
0
LINE
8
BLACK
6
CONTINUOUS
10
0.848566
20
-3.84575
11
0.859814
21
-3.85138
0
LINE
8
BLACK
6
CONTINUOUS
10
0.859814
20
-3.85138
11
0.865439
21
-3.857
0
LINE
8
BLACK
6
CONTINUOUS
10
0.865439
20
-3.857
11
0.871063
21
-3.86825
0
LINE
8
BLACK
6
CONTINUOUS
10
0.871063
20
-3.86825
11
0.871063
21
-3.902
0
LINE
8
BLACK
6
CONTINUOUS
10
0.871063
20
-3.902
11
0.865439
21
-3.91325
0
LINE
8
BLACK
6
CONTINUOUS
10
0.865439
20
-3.91325
11
0.859814
21
-3.91887
0
LINE
8
BLACK
6
CONTINUOUS
10
0.859814
20
-3.91887
11
0.848566
21
-3.92449
0
LINE
8
BLACK
6
CONTINUOUS
10
0.848566
20
-3.92449
11
0.826069
21
-3.92449
0
LINE
8
BLACK
6
CONTINUOUS
10
0.826069
20
-3.92449
11
0.81482
21
-3.91887
0
LINE
8
BLACK
6
CONTINUOUS
10
0.921682
20
-3.91325
11
0.927306
21
-3.91887
0
LINE
8
BLACK
6
CONTINUOUS
10
0.927306
20
-3.91887
11
0.921682
21
-3.92449
0
LINE
8
BLACK
6
CONTINUOUS
10
0.921682
20
-3.92449
11
0.916057
21
-3.91887
0
LINE
8
BLACK
6
CONTINUOUS
10
0.916057
20
-3.91887
11
0.921682
21
-3.91325
0
LINE
8
BLACK
6
CONTINUOUS
10
0.921682
20
-3.91325
11
0.921682
21
-3.92449
0
LINE
8
BLACK
6
CONTINUOUS
10
0.921682
20
-3.85138
11
0.927306
21
-3.857
0
LINE
8
BLACK
6
CONTINUOUS
10
0.927306
20
-3.857
11
0.921682
21
-3.86263
0
LINE
8
BLACK
6
CONTINUOUS
10
0.921682
20
-3.86263
11
0.916057
21
-3.857
0
LINE
8
BLACK
6
CONTINUOUS
10
0.916057
20
-3.857
11
0.921682
21
-3.85138
0
LINE
8
BLACK
6
CONTINUOUS
10
0.921682
20
-3.85138
11
0.921682
21
-3.86263
0
LINE
8
BLACK
6
CONTINUOUS
10
-0.0324804
20
-4.10335
11
-0.000984291
21
-4.13484
0
LINE
8
BLACK
6
CONTINUOUS
10
-0.000984291
20
-4.10335
11
-0.0324804
21
-4.13484
0
LINE
8
BLACK
6
CONTINUOUS
10
0.13428
20
-4.05442
11
0.145529
21
-4.05442
0
LINE
8
BLACK
6
CONTINUOUS
10
0.145529
20
-4.05442
11
0.156777
21
-4.06004
0
LINE
8
BLACK
6
CONTINUOUS
10
0.156777
20
-4.06004
11
0.162402
21
-4.06566
0
LINE
8
BLACK
6
CONTINUOUS
10
0.162402
20
-4.06566
11
0.168026
21
-4.07691
0
LINE
8
BLACK
6
CONTINUOUS
10
0.168026
20
-4.07691
11
0.17365
21
-4.09941
0
LINE
8
BLACK
6
CONTINUOUS
10
0.17365
20
-4.09941
11
0.17365
21
-4.12753
0
LINE
8
BLACK
6
CONTINUOUS
10
0.17365
20
-4.12753
11
0.168026
21
-4.15003
0
LINE
8
BLACK
6
CONTINUOUS
10
0.168026
20
-4.15003
11
0.162402
21
-4.16128
0
LINE
8
BLACK
6
CONTINUOUS
10
0.162402
20
-4.16128
11
0.156777
21
-4.1669
0
LINE
8
BLACK
6
CONTINUOUS
10
0.156777
20
-4.1669
11
0.145529
21
-4.17253
0
LINE
8
BLACK
6
CONTINUOUS
10
0.145529
20
-4.17253
11
0.13428
21
-4.17253
0
LINE
8
BLACK
6
CONTINUOUS
10
0.13428
20
-4.17253
11
0.123031
21
-4.1669
0
LINE
8
BLACK
6
CONTINUOUS
10
0.123031
20
-4.1669
11
0.117407
21
-4.16128
0
LINE
8
BLACK
6
CONTINUOUS
10
0.117407
20
-4.16128
11
0.111783
21
-4.15003
0
LINE
8
BLACK
6
CONTINUOUS
10
0.111783
20
-4.15003
11
0.106159
21
-4.12753
0
LINE
8
BLACK
6
CONTINUOUS
10
0.106159
20
-4.12753
11
0.106159
21
-4.09941
0
LINE
8
BLACK
6
CONTINUOUS
10
0.106159
20
-4.09941
11
0.111783
21
-4.07691
0
LINE
8
BLACK
6
CONTINUOUS
10
0.111783
20
-4.07691
11
0.117407
21
-4.06566
0
LINE
8
BLACK
6
CONTINUOUS
10
0.117407
20
-4.06566
11
0.123031
21
-4.06004
0
LINE
8
BLACK
6
CONTINUOUS
10
0.123031
20
-4.06004
11
0.13428
21
-4.05442
0
LINE
8
BLACK
6
CONTINUOUS
10
0.224269
20
-4.16128
11
0.229893
21
-4.1669
0
LINE
8
BLACK
6
CONTINUOUS
10
0.229893
20
-4.1669
11
0.224269
21
-4.17253
0
LINE
8
BLACK
6
CONTINUOUS
10
0.224269
20
-4.17253
11
0.218644
21
-4.1669
0
LINE
8
BLACK
6
CONTINUOUS
10
0.218644
20
-4.1669
11
0.224269
21
-4.16128
0
LINE
8
BLACK
6
CONTINUOUS
10
0.224269
20
-4.16128
11
0.224269
21
-4.17253
0
LINE
8
BLACK
6
CONTINUOUS
10
0.297385
20
-4.10503
11
0.286136
21
-4.09941
0
LINE
8
BLACK
6
CONTINUOUS
10
0.286136
20
-4.09941
11
0.280512
21
-4.09379
0
LINE
8
BLACK
6
CONTINUOUS
10
0.280512
20
-4.09379
11
0.274887
21
-4.08254
0
LINE
8
BLACK
6
CONTINUOUS
10
0.274887
20
-4.08254
11
0.274887
21
-4.07691
0
LINE
8
BLACK
6
CONTINUOUS
10
0.274887
20
-4.07691
11
0.280512
21
-4.06566
0
LINE
8
BLACK
6
CONTINUOUS
10
0.280512
20
-4.06566
11
0.286136
21
-4.06004
0
LINE
8
BLACK
6
CONTINUOUS
10
0.286136
20
-4.06004
11
0.297385
21
-4.05442
0
LINE
8
BLACK
6
CONTINUOUS
10
0.297385
20
-4.05442
11
0.319882
21
-4.05442
0
LINE
8
BLACK
6
CONTINUOUS
10
0.319882
20
-4.05442
11
0.33113
21
-4.06004
0
LINE
8
BLACK
6
CONTINUOUS
10
0.33113
20
-4.06004
11
0.336755
21
-4.06566
0
LINE
8
BLACK
6
CONTINUOUS
10
0.336755
20
-4.06566
11
0.342379
21
-4.07691
0
LINE
8
BLACK
6
CONTINUOUS
10
0.342379
20
-4.07691
11
0.342379
21
-4.08254
0
LINE
8
BLACK
6
CONTINUOUS
10
0.342379
20
-4.08254
11
0.336755
21
-4.09379
0
LINE
8
BLACK
6
CONTINUOUS
10
0.336755
20
-4.09379
11
0.33113
21
-4.09941
0
LINE
8
BLACK
6
CONTINUOUS
10
0.33113
20
-4.09941
11
0.319882
21
-4.10503
0
LINE
8
BLACK
6
CONTINUOUS
10
0.319882
20
-4.10503
11
0.297385
21
-4.10503
0
LINE
8
BLACK
6
CONTINUOUS
10
0.297385
20
-4.10503
11
0.286136
21
-4.11066
0
LINE
8
BLACK
6
CONTINUOUS
10
0.286136
20
-4.11066
11
0.280512
21
-4.11628
0
LINE
8
BLACK
6
CONTINUOUS
10
0.280512
20
-4.11628
11
0.274887
21
-4.12753
0
LINE
8
BLACK
6
CONTINUOUS
10
0.274887
20
-4.12753
11
0.274887
21
-4.15003
0
LINE
8
BLACK
6
CONTINUOUS
10
0.274887
20
-4.15003
11
0.280512
21
-4.16128
0
LINE
8
BLACK
6
CONTINUOUS
10
0.280512
20
-4.16128
11
0.286136
21
-4.1669
0
LINE
8
BLACK
6
CONTINUOUS
10
0.286136
20
-4.1669
11
0.297385
21
-4.17253
0
LINE
8
BLACK
6
CONTINUOUS
10
0.297385
20
-4.17253
11
0.319882
21
-4.17253
0
LINE
8
BLACK
6
CONTINUOUS
10
0.319882
20
-4.17253
11
0.33113
21
-4.1669
0
LINE
8
BLACK
6
CONTINUOUS
10
0.33113
20
-4.1669
11
0.336755
21
-4.16128
0
LINE
8
BLACK
6
CONTINUOUS
10
0.336755
20
-4.16128
11
0.342379
21
-4.15003
0
LINE
8
BLACK
6
CONTINUOUS
10
0.342379
20
-4.15003
11
0.342379
21
-4.12753
0
LINE
8
BLACK
6
CONTINUOUS
10
0.342379
20
-4.12753
11
0.336755
21
-4.11628
0
LINE
8
BLACK
6
CONTINUOUS
10
0.336755
20
-4.11628
11
0.33113
21
-4.11066
0
LINE
8
BLACK
6
CONTINUOUS
10
0.33113
20
-4.11066
11
0.319882
21
-4.10503
0
LINE
8
BLACK
6
CONTINUOUS
10
0.415495
20
-4.05442
11
0.426743
21
-4.05442
0
LINE
8
BLACK
6
CONTINUOUS
10
0.426743
20
-4.05442
11
0.437992
21
-4.06004
0
LINE
8
BLACK
6
CONTINUOUS
10
0.437992
20
-4.06004
11
0.443616
21
-4.06566
0
LINE
8
BLACK
6
CONTINUOUS
10
0.443616
20
-4.06566
11
0.449241
21
-4.07691
0
LINE
8
BLACK
6
CONTINUOUS
10
0.449241
20
-4.07691
11
0.454865
21
-4.09941
0
LINE
8
BLACK
6
CONTINUOUS
10
0.454865
20
-4.09941
11
0.454865
21
-4.12753
0
LINE
8
BLACK
6
CONTINUOUS
10
0.454865
20
-4.12753
11
0.449241
21
-4.15003
0
LINE
8
BLACK
6
CONTINUOUS
10
0.449241
20
-4.15003
11
0.443616
21
-4.16128
0
LINE
8
BLACK
6
CONTINUOUS
10
0.443616
20
-4.16128
11
0.437992
21
-4.1669
0
LINE
8
BLACK
6
CONTINUOUS
10
0.437992
20
-4.1669
11
0.426743
21
-4.17253
0
LINE
8
BLACK
6
CONTINUOUS
10
0.426743
20
-4.17253
11
0.415495
21
-4.17253
0
LINE
8
BLACK
6
CONTINUOUS
10
0.415495
20
-4.17253
11
0.404246
21
-4.1669
0
LINE
8
BLACK
6
CONTINUOUS
10
0.404246
20
-4.1669
11
0.398622
21
-4.16128
0
LINE
8
BLACK
6
CONTINUOUS
10
0.398622
20
-4.16128
11
0.392998
21
-4.15003
0
LINE
8
BLACK
6
CONTINUOUS
10
0.392998
20
-4.15003
11
0.387373
21
-4.12753
0
LINE
8
BLACK
6
CONTINUOUS
10
0.387373
20
-4.12753
11
0.387373
21
-4.09941
0
LINE
8
BLACK
6
CONTINUOUS
10
0.387373
20
-4.09941
11
0.392998
21
-4.07691
0
LINE
8
BLACK
6
CONTINUOUS
10
0.392998
20
-4.07691
11
0.398622
21
-4.06566
0
LINE
8
BLACK
6
CONTINUOUS
10
0.398622
20
-4.06566
11
0.404246
21
-4.06004
0
LINE
8
BLACK
6
CONTINUOUS
10
0.404246
20
-4.06004
11
0.415495
21
-4.05442
0
LINE
8
BLACK
6
CONTINUOUS
10
0.505484
20
-4.17253
11
0.505484
21
-4.09379
0
LINE
8
BLACK
6
CONTINUOUS
10
0.505484
20
-4.10503
11
0.511108
21
-4.09941
0
LINE
8
BLACK
6
CONTINUOUS
10
0.511108
20
-4.09941
11
0.522357
21
-4.09379
0
LINE
8
BLACK
6
CONTINUOUS
10
0.522357
20
-4.09379
11
0.539229
21
-4.09379
0
LINE
8
BLACK
6
CONTINUOUS
10
0.539229
20
-4.09379
11
0.550478
21
-4.09941
0
LINE
8
BLACK
6
CONTINUOUS
10
0.550478
20
-4.09941
11
0.556102
21
-4.11066
0
LINE
8
BLACK
6
CONTINUOUS
10
0.556102
20
-4.11066
11
0.556102
21
-4.17253
0
LINE
8
BLACK
6
CONTINUOUS
10
0.556102
20
-4.11066
11
0.561727
21
-4.09941
0
LINE
8
BLACK
6
CONTINUOUS
10
0.561727
20
-4.09941
11
0.572975
21
-4.09379
0
LINE
8
BLACK
6
CONTINUOUS
10
0.572975
20
-4.09379
11
0.589848
21
-4.09379
0
LINE
8
BLACK
6
CONTINUOUS
10
0.589848
20
-4.09379
11
0.601097
21
-4.09941
0
LINE
8
BLACK
6
CONTINUOUS
10
0.601097
20
-4.09941
11
0.606721
21
-4.11066
0
LINE
8
BLACK
6
CONTINUOUS
10
0.606721
20
-4.11066
11
0.606721
21
-4.17253
0
LINE
8
BLACK
6
CONTINUOUS
10
0.662964
20
-4.17253
11
0.662964
21
-4.09379
0
LINE
8
BLACK
6
CONTINUOUS
10
0.662964
20
-4.10503
11
0.668588
21
-4.09941
0
LINE
8
BLACK
6
CONTINUOUS
10
0.668588
20
-4.09941
11
0.679837
21
-4.09379
0
LINE
8
BLACK
6
CONTINUOUS
10
0.679837
20
-4.09379
11
0.69671
21
-4.09379
0
LINE
8
BLACK
6
CONTINUOUS
10
0.69671
20
-4.09379
11
0.707958
21
-4.09941
0
LINE
8
BLACK
6
CONTINUOUS
10
0.707958
20
-4.09941
11
0.713583
21
-4.11066
0
LINE
8
BLACK
6
CONTINUOUS
10
0.713583
20
-4.11066
11
0.713583
21
-4.17253
0
LINE
8
BLACK
6
CONTINUOUS
10
0.713583
20
-4.11066
11
0.719207
21
-4.09941
0
LINE
8
BLACK
6
CONTINUOUS
10
0.719207
20
-4.09941
11
0.730456
21
-4.09379
0
LINE
8
BLACK
6
CONTINUOUS
10
0.730456
20
-4.09379
11
0.747328
21
-4.09379
0
LINE
8
BLACK
6
CONTINUOUS
10
0.747328
20
-4.09379
11
0.758577
21
-4.09941
0
LINE
8
BLACK
6
CONTINUOUS
10
0.758577
20
-4.09941
11
0.764201
21
-4.11066
0
LINE
8
BLACK
6
CONTINUOUS
10
0.764201
20
-4.11066
11
0.764201
21
-4.17253
0
LINE
8
BLACK
6
CONTINUOUS
10
0.994797
20
-4.04879
11
0.89356
21
-4.20065
0
LINE
8
BLACK
6
CONTINUOUS
10
1.14665
20
-4.05442
11
1.1579
21
-4.05442
0
LINE
8
BLACK
6
CONTINUOUS
10
1.1579
20
-4.05442
11
1.16915
21
-4.06004
0
LINE
8
BLACK
6
CONTINUOUS
10
1.16915
20
-4.06004
11
1.17477
21
-4.06566
0
LINE
8
BLACK
6
CONTINUOUS
10
1.17477
20
-4.06566
11
1.1804
21
-4.07691
0
LINE
8
BLACK
6
CONTINUOUS
10
1.1804
20
-4.07691
11
1.18602
21
-4.09941
0
LINE
8
BLACK
6
CONTINUOUS
10
1.18602
20
-4.09941
11
1.18602
21
-4.12753
0
LINE
8
BLACK
6
CONTINUOUS
10
1.18602
20
-4.12753
11
1.1804
21
-4.15003
0
LINE
8
BLACK
6
CONTINUOUS
10
1.1804
20
-4.15003
11
1.17477
21
-4.16128
0
LINE
8
BLACK
6
CONTINUOUS
10
1.17477
20
-4.16128
11
1.16915
21
-4.1669
0
LINE
8
BLACK
6
CONTINUOUS
10
1.16915
20
-4.1669
11
1.1579
21
-4.17253
0
LINE
8
BLACK
6
CONTINUOUS
10
1.1579
20
-4.17253
11
1.14665
21
-4.17253
0
LINE
8
BLACK
6
CONTINUOUS
10
1.14665
20
-4.17253
11
1.1354
21
-4.1669
0
LINE
8
BLACK
6
CONTINUOUS
10
1.1354
20
-4.1669
11
1.12978
21
-4.16128
0
LINE
8
BLACK
6
CONTINUOUS
10
1.12978
20
-4.16128
11
1.12416
21
-4.15003
0
LINE
8
BLACK
6
CONTINUOUS
10
1.12416
20
-4.15003
11
1.11853
21
-4.12753
0
LINE
8
BLACK
6
CONTINUOUS
10
1.11853
20
-4.12753
11
1.11853
21
-4.09941
0
LINE
8
BLACK
6
CONTINUOUS
10
1.11853
20
-4.09941
11
1.12416
21
-4.07691
0
LINE
8
BLACK
6
CONTINUOUS
10
1.12416
20
-4.07691
11
1.12978
21
-4.06566
0
LINE
8
BLACK
6
CONTINUOUS
10
1.12978
20
-4.06566
11
1.1354
21
-4.06004
0
LINE
8
BLACK
6
CONTINUOUS
10
1.1354
20
-4.06004
11
1.14665
21
-4.05442
0
LINE
8
BLACK
6
CONTINUOUS
10
1.23664
20
-4.16128
11
1.24227
21
-4.1669
0
LINE
8
BLACK
6
CONTINUOUS
10
1.24227
20
-4.1669
11
1.23664
21
-4.17253
0
LINE
8
BLACK
6
CONTINUOUS
10
1.23664
20
-4.17253
11
1.23102
21
-4.1669
0
LINE
8
BLACK
6
CONTINUOUS
10
1.23102
20
-4.1669
11
1.23664
21
-4.16128
0
LINE
8
BLACK
6
CONTINUOUS
10
1.23664
20
-4.16128
11
1.23664
21
-4.17253
0
LINE
8
BLACK
6
CONTINUOUS
10
1.31538
20
-4.05442
11
1.32663
21
-4.05442
0
LINE
8
BLACK
6
CONTINUOUS
10
1.32663
20
-4.05442
11
1.33788
21
-4.06004
0
LINE
8
BLACK
6
CONTINUOUS
10
1.33788
20
-4.06004
11
1.3435
21
-4.06566
0
LINE
8
BLACK
6
CONTINUOUS
10
1.3435
20
-4.06566
11
1.34913
21
-4.07691
0
LINE
8
BLACK
6
CONTINUOUS
10
1.34913
20
-4.07691
11
1.35475
21
-4.09941
0
LINE
8
BLACK
6
CONTINUOUS
10
1.35475
20
-4.09941
11
1.35475
21
-4.12753
0
LINE
8
BLACK
6
CONTINUOUS
10
1.35475
20
-4.12753
11
1.34913
21
-4.15003
0
LINE
8
BLACK
6
CONTINUOUS
10
1.34913
20
-4.15003
11
1.3435
21
-4.16128
0
LINE
8
BLACK
6
CONTINUOUS
10
1.3435
20
-4.16128
11
1.33788
21
-4.1669
0
LINE
8
BLACK
6
CONTINUOUS
10
1.33788
20
-4.1669
11
1.32663
21
-4.17253
0
LINE
8
BLACK
6
CONTINUOUS
10
1.32663
20
-4.17253
11
1.31538
21
-4.17253
0
LINE
8
BLACK
6
CONTINUOUS
10
1.31538
20
-4.17253
11
1.30413
21
-4.1669
0
LINE
8
BLACK
6
CONTINUOUS
10
1.30413
20
-4.1669
11
1.29851
21
-4.16128
0
LINE
8
BLACK
6
CONTINUOUS
10
1.29851
20
-4.16128
11
1.29289
21
-4.15003
0
LINE
8
BLACK
6
CONTINUOUS
10
1.29289
20
-4.15003
11
1.28726
21
-4.12753
0
LINE
8
BLACK
6
CONTINUOUS
10
1.28726
20
-4.12753
11
1.28726
21
-4.09941
0
LINE
8
BLACK
6
CONTINUOUS
10
1.28726
20
-4.09941
11
1.29289
21
-4.07691
0
LINE
8
BLACK
6
CONTINUOUS
10
1.29289
20
-4.07691
11
1.29851
21
-4.06566
0
LINE
8
BLACK
6
CONTINUOUS
10
1.29851
20
-4.06566
11
1.30413
21
-4.06004
0
LINE
8
BLACK
6
CONTINUOUS
10
1.30413
20
-4.06004
11
1.31538
21
-4.05442
0
LINE
8
BLACK
6
CONTINUOUS
10
1.39412
20
-4.05442
11
1.46724
21
-4.05442
0
LINE
8
BLACK
6
CONTINUOUS
10
1.46724
20
-4.05442
11
1.42787
21
-4.09941
0
LINE
8
BLACK
6
CONTINUOUS
10
1.42787
20
-4.09941
11
1.44474
21
-4.09941
0
LINE
8
BLACK
6
CONTINUOUS
10
1.44474
20
-4.09941
11
1.45599
21
-4.10503
0
LINE
8
BLACK
6
CONTINUOUS
10
1.45599
20
-4.10503
11
1.46161
21
-4.11066
0
LINE
8
BLACK
6
CONTINUOUS
10
1.46161
20
-4.11066
11
1.46724
21
-4.12191
0
LINE
8
BLACK
6
CONTINUOUS
10
1.46724
20
-4.12191
11
1.46724
21
-4.15003
0
LINE
8
BLACK
6
CONTINUOUS
10
1.46724
20
-4.15003
11
1.46161
21
-4.16128
0
LINE
8
BLACK
6
CONTINUOUS
10
1.46161
20
-4.16128
11
1.45599
21
-4.1669
0
LINE
8
BLACK
6
CONTINUOUS
10
1.45599
20
-4.1669
11
1.44474
21
-4.17253
0
LINE
8
BLACK
6
CONTINUOUS
10
1.44474
20
-4.17253
11
1.411
21
-4.17253
0
LINE
8
BLACK
6
CONTINUOUS
10
1.411
20
-4.17253
11
1.39975
21
-4.1669
0
LINE
8
BLACK
6
CONTINUOUS
10
1.39975
20
-4.1669
11
1.39412
21
-4.16128
0
LINE
8
BLACK
6
CONTINUOUS
10
1.57972
20
-4.17253
11
1.51223
21
-4.17253
0
LINE
8
BLACK
6
CONTINUOUS
10
1.54598
20
-4.17253
11
1.54598
21
-4.05442
0
LINE
8
BLACK
6
CONTINUOUS
10
1.54598
20
-4.05442
11
1.53473
21
-4.07129
0
LINE
8
BLACK
6
CONTINUOUS
10
1.53473
20
-4.07129
11
1.52348
21
-4.08254
0
LINE
8
BLACK
6
CONTINUOUS
10
1.52348
20
-4.08254
11
1.51223
21
-4.08816
0
LINE
8
BLACK
6
CONTINUOUS
10
1.62472
20
-4.05442
11
1.62472
21
-4.07691
0
LINE
8
BLACK
6
CONTINUOUS
10
1.66971
20
-4.05442
11
1.66971
21
-4.07691
0
LINE
8
BLACK
6
CONTINUOUS
10
1.84407
20
-4.21752
11
1.83844
21
-4.2119
0
LINE
8
BLACK
6
CONTINUOUS
10
1.83844
20
-4.2119
11
1.82719
21
-4.19502
0
LINE
8
BLACK
6
CONTINUOUS
10
1.82719
20
-4.19502
11
1.82157
21
-4.18377
0
LINE
8
BLACK
6
CONTINUOUS
10
1.82157
20
-4.18377
11
1.81594
21
-4.1669
0
LINE
8
BLACK
6
CONTINUOUS
10
1.81594
20
-4.1669
11
1.81032
21
-4.13878
0
LINE
8
BLACK
6
CONTINUOUS
10
1.81032
20
-4.13878
11
1.81032
21
-4.11628
0
LINE
8
BLACK
6
CONTINUOUS
10
1.81032
20
-4.11628
11
1.81594
21
-4.08816
0
LINE
8
BLACK
6
CONTINUOUS
10
1.81594
20
-4.08816
11
1.82157
21
-4.07129
0
LINE
8
BLACK
6
CONTINUOUS
10
1.82157
20
-4.07129
11
1.82719
21
-4.06004
0
LINE
8
BLACK
6
CONTINUOUS
10
1.82719
20
-4.06004
11
1.83844
21
-4.04317
0
LINE
8
BLACK
6
CONTINUOUS
10
1.83844
20
-4.04317
11
1.84407
21
-4.03754
0
LINE
8
BLACK
6
CONTINUOUS
10
1.88344
20
-4.06566
11
1.88906
21
-4.06004
0
LINE
8
BLACK
6
CONTINUOUS
10
1.88906
20
-4.06004
11
1.90031
21
-4.05442
0
LINE
8
BLACK
6
CONTINUOUS
10
1.90031
20
-4.05442
11
1.92843
21
-4.05442
0
LINE
8
BLACK
6
CONTINUOUS
10
1.92843
20
-4.05442
11
1.93968
21
-4.06004
0
LINE
8
BLACK
6
CONTINUOUS
10
1.93968
20
-4.06004
11
1.9453
21
-4.06566
0
LINE
8
BLACK
6
CONTINUOUS
10
1.9453
20
-4.06566
11
1.95093
21
-4.07691
0
LINE
8
BLACK
6
CONTINUOUS
10
1.95093
20
-4.07691
11
1.95093
21
-4.08816
0
LINE
8
BLACK
6
CONTINUOUS
10
1.95093
20
-4.08816
11
1.9453
21
-4.10503
0
LINE
8
BLACK
6
CONTINUOUS
10
1.9453
20
-4.10503
11
1.87781
21
-4.17253
0
LINE
8
BLACK
6
CONTINUOUS
10
1.87781
20
-4.17253
11
1.95093
21
-4.17253
0
LINE
8
BLACK
6
CONTINUOUS
10
2.09154
20
-4.17253
11
2.09154
21
-4.05442
0
LINE
8
BLACK
6
CONTINUOUS
10
2.14215
20
-4.17253
11
2.14215
21
-4.11066
0
LINE
8
BLACK
6
CONTINUOUS
10
2.14215
20
-4.11066
11
2.13653
21
-4.09941
0
LINE
8
BLACK
6
CONTINUOUS
10
2.13653
20
-4.09941
11
2.12528
21
-4.09379
0
LINE
8
BLACK
6
CONTINUOUS
10
2.12528
20
-4.09379
11
2.10841
21
-4.09379
0
LINE
8
BLACK
6
CONTINUOUS
10
2.10841
20
-4.09379
11
2.09716
21
-4.09941
0
LINE
8
BLACK
6
CONTINUOUS
10
2.09716
20
-4.09941
11
2.09154
21
-4.10503
0
LINE
8
BLACK
6
CONTINUOUS
10
2.21527
20
-4.17253
11
2.20402
21
-4.1669
0
LINE
8
BLACK
6
CONTINUOUS
10
2.20402
20
-4.1669
11
2.1984
21
-4.16128
0
LINE
8
BLACK
6
CONTINUOUS
10
2.1984
20
-4.16128
11
2.19277
21
-4.15003
0
LINE
8
BLACK
6
CONTINUOUS
10
2.19277
20
-4.15003
11
2.19277
21
-4.11628
0
LINE
8
BLACK
6
CONTINUOUS
10
2.19277
20
-4.11628
11
2.1984
21
-4.10503
0
LINE
8
BLACK
6
CONTINUOUS
10
2.1984
20
-4.10503
11
2.20402
21
-4.09941
0
LINE
8
BLACK
6
CONTINUOUS
10
2.20402
20
-4.09941
11
2.21527
21
-4.09379
0
LINE
8
BLACK
6
CONTINUOUS
10
2.21527
20
-4.09379
11
2.23214
21
-4.09379
0
LINE
8
BLACK
6
CONTINUOUS
10
2.23214
20
-4.09379
11
2.24339
21
-4.09941
0
LINE
8
BLACK
6
CONTINUOUS
10
2.24339
20
-4.09941
11
2.24902
21
-4.10503
0
LINE
8
BLACK
6
CONTINUOUS
10
2.24902
20
-4.10503
11
2.25464
21
-4.11628
0
LINE
8
BLACK
6
CONTINUOUS
10
2.25464
20
-4.11628
11
2.25464
21
-4.15003
0
LINE
8
BLACK
6
CONTINUOUS
10
2.25464
20
-4.15003
11
2.24902
21
-4.16128
0
LINE
8
BLACK
6
CONTINUOUS
10
2.24902
20
-4.16128
11
2.24339
21
-4.1669
0
LINE
8
BLACK
6
CONTINUOUS
10
2.24339
20
-4.1669
11
2.23214
21
-4.17253
0
LINE
8
BLACK
6
CONTINUOUS
10
2.23214
20
-4.17253
11
2.21527
21
-4.17253
0
LINE
8
BLACK
6
CONTINUOUS
10
2.32213
20
-4.17253
11
2.31088
21
-4.1669
0
LINE
8
BLACK
6
CONTINUOUS
10
2.31088
20
-4.1669
11
2.30526
21
-4.15565
0
LINE
8
BLACK
6
CONTINUOUS
10
2.30526
20
-4.15565
11
2.30526
21
-4.05442
0
LINE
8
BLACK
6
CONTINUOUS
10
2.41212
20
-4.1669
11
2.40087
21
-4.17253
0
LINE
8
BLACK
6
CONTINUOUS
10
2.40087
20
-4.17253
11
2.37837
21
-4.17253
0
LINE
8
BLACK
6
CONTINUOUS
10
2.37837
20
-4.17253
11
2.36713
21
-4.1669
0
LINE
8
BLACK
6
CONTINUOUS
10
2.36713
20
-4.1669
11
2.3615
21
-4.15565
0
LINE
8
BLACK
6
CONTINUOUS
10
2.3615
20
-4.15565
11
2.3615
21
-4.11066
0
LINE
8
BLACK
6
CONTINUOUS
10
2.3615
20
-4.11066
11
2.36713
21
-4.09941
0
LINE
8
BLACK
6
CONTINUOUS
10
2.36713
20
-4.09941
11
2.37837
21
-4.09379
0
LINE
8
BLACK
6
CONTINUOUS
10
2.37837
20
-4.09379
11
2.40087
21
-4.09379
0
LINE
8
BLACK
6
CONTINUOUS
10
2.40087
20
-4.09379
11
2.41212
21
-4.09941
0
LINE
8
BLACK
6
CONTINUOUS
10
2.41212
20
-4.09941
11
2.41774
21
-4.11066
0
LINE
8
BLACK
6
CONTINUOUS
10
2.41774
20
-4.11066
11
2.41774
21
-4.12191
0
LINE
8
BLACK
6
CONTINUOUS
10
2.41774
20
-4.12191
11
2.3615
21
-4.13316
0
LINE
8
BLACK
6
CONTINUOUS
10
2.46274
20
-4.1669
11
2.47399
21
-4.17253
0
LINE
8
BLACK
6
CONTINUOUS
10
2.47399
20
-4.17253
11
2.49648
21
-4.17253
0
LINE
8
BLACK
6
CONTINUOUS
10
2.49648
20
-4.17253
11
2.50773
21
-4.1669
0
LINE
8
BLACK
6
CONTINUOUS
10
2.50773
20
-4.1669
11
2.51336
21
-4.15565
0
LINE
8
BLACK
6
CONTINUOUS
10
2.51336
20
-4.15565
11
2.51336
21
-4.15003
0
LINE
8
BLACK
6
CONTINUOUS
10
2.51336
20
-4.15003
11
2.50773
21
-4.13878
0
LINE
8
BLACK
6
CONTINUOUS
10
2.50773
20
-4.13878
11
2.49648
21
-4.13316
0
LINE
8
BLACK
6
CONTINUOUS
10
2.49648
20
-4.13316
11
2.47961
21
-4.13316
0
LINE
8
BLACK
6
CONTINUOUS
10
2.47961
20
-4.13316
11
2.46836
21
-4.12753
0
LINE
8
BLACK
6
CONTINUOUS
10
2.46836
20
-4.12753
11
2.46274
21
-4.11628
0
LINE
8
BLACK
6
CONTINUOUS
10
2.46274
20
-4.11628
11
2.46274
21
-4.11066
0
LINE
8
BLACK
6
CONTINUOUS
10
2.46274
20
-4.11066
11
2.46836
21
-4.09941
0
LINE
8
BLACK
6
CONTINUOUS
10
2.46836
20
-4.09941
11
2.47961
21
-4.09379
0
LINE
8
BLACK
6
CONTINUOUS
10
2.47961
20
-4.09379
11
2.49648
21
-4.09379
0
LINE
8
BLACK
6
CONTINUOUS
10
2.49648
20
-4.09379
11
2.50773
21
-4.09941
0
LINE
8
BLACK
6
CONTINUOUS
10
2.55273
20
-4.21752
11
2.55835
21
-4.2119
0
LINE
8
BLACK
6
CONTINUOUS
10
2.55835
20
-4.2119
11
2.5696
21
-4.19502
0
LINE
8
BLACK
6
CONTINUOUS
10
2.5696
20
-4.19502
11
2.57522
21
-4.18377
0
LINE
8
BLACK
6
CONTINUOUS
10
2.57522
20
-4.18377
11
2.58085
21
-4.1669
0
LINE
8
BLACK
6
CONTINUOUS
10
2.58085
20
-4.1669
11
2.58647
21
-4.13878
0
LINE
8
BLACK
6
CONTINUOUS
10
2.58647
20
-4.13878
11
2.58647
21
-4.11628
0
LINE
8
BLACK
6
CONTINUOUS
10
2.58647
20
-4.11628
11
2.58085
21
-4.08816
0
LINE
8
BLACK
6
CONTINUOUS
10
2.58085
20
-4.08816
11
2.57522
21
-4.07129
0
LINE
8
BLACK
6
CONTINUOUS
10
2.57522
20
-4.07129
11
2.5696
21
-4.06004
0
LINE
8
BLACK
6
CONTINUOUS
10
2.5696
20
-4.06004
11
2.55835
21
-4.04317
0
LINE
8
BLACK
6
CONTINUOUS
10
2.55835
20
-4.04317
11
2.55273
21
-4.03754
0
CIRCLE
8
BLACK
10
-0.0187008
20
-4.275
40
0.0177165
0
LINE
8
BLACK
6
CONTINUOUS
10
0.13428
20
-4.21032
11
0.145529
21
-4.21032
0
LINE
8
BLACK
6
CONTINUOUS
10
0.145529
20
-4.21032
11
0.156777
21
-4.21594
0
LINE
8
BLACK
6
CONTINUOUS
10
0.156777
20
-4.21594
11
0.162402
21
-4.22157
0
LINE
8
BLACK
6
CONTINUOUS
10
0.162402
20
-4.22157
11
0.168026
21
-4.23282
0
LINE
8
BLACK
6
CONTINUOUS
10
0.168026
20
-4.23282
11
0.17365
21
-4.25531
0
LINE
8
BLACK
6
CONTINUOUS
10
0.17365
20
-4.25531
11
0.17365
21
-4.28344
0
LINE
8
BLACK
6
CONTINUOUS
10
0.17365
20
-4.28344
11
0.168026
21
-4.30593
0
LINE
8
BLACK
6
CONTINUOUS
10
0.168026
20
-4.30593
11
0.162402
21
-4.31718
0
LINE
8
BLACK
6
CONTINUOUS
10
0.162402
20
-4.31718
11
0.156777
21
-4.32281
0
LINE
8
BLACK
6
CONTINUOUS
10
0.156777
20
-4.32281
11
0.145529
21
-4.32843
0
LINE
8
BLACK
6
CONTINUOUS
10
0.145529
20
-4.32843
11
0.13428
21
-4.32843
0
LINE
8
BLACK
6
CONTINUOUS
10
0.13428
20
-4.32843
11
0.123031
21
-4.32281
0
LINE
8
BLACK
6
CONTINUOUS
10
0.123031
20
-4.32281
11
0.117407
21
-4.31718
0
LINE
8
BLACK
6
CONTINUOUS
10
0.117407
20
-4.31718
11
0.111783
21
-4.30593
0
LINE
8
BLACK
6
CONTINUOUS
10
0.111783
20
-4.30593
11
0.106159
21
-4.28344
0
LINE
8
BLACK
6
CONTINUOUS
10
0.106159
20
-4.28344
11
0.106159
21
-4.25531
0
LINE
8
BLACK
6
CONTINUOUS
10
0.106159
20
-4.25531
11
0.111783
21
-4.23282
0
LINE
8
BLACK
6
CONTINUOUS
10
0.111783
20
-4.23282
11
0.117407
21
-4.22157
0
LINE
8
BLACK
6
CONTINUOUS
10
0.117407
20
-4.22157
11
0.123031
21
-4.21594
0
LINE
8
BLACK
6
CONTINUOUS
10
0.123031
20
-4.21594
11
0.13428
21
-4.21032
0
LINE
8
BLACK
6
CONTINUOUS
10
0.224269
20
-4.31718
11
0.229893
21
-4.32281
0
LINE
8
BLACK
6
CONTINUOUS
10
0.229893
20
-4.32281
11
0.224269
21
-4.32843
0
LINE
8
BLACK
6
CONTINUOUS
10
0.224269
20
-4.32843
11
0.218644
21
-4.32281
0
LINE
8
BLACK
6
CONTINUOUS
10
0.218644
20
-4.32281
11
0.224269
21
-4.31718
0
LINE
8
BLACK
6
CONTINUOUS
10
0.224269
20
-4.31718
11
0.224269
21
-4.32843
0
LINE
8
BLACK
6
CONTINUOUS
10
0.286136
20
-4.32843
11
0.308633
21
-4.32843
0
LINE
8
BLACK
6
CONTINUOUS
10
0.308633
20
-4.32843
11
0.319882
21
-4.32281
0
LINE
8
BLACK
6
CONTINUOUS
10
0.319882
20
-4.32281
11
0.325506
21
-4.31718
0
LINE
8
BLACK
6
CONTINUOUS
10
0.325506
20
-4.31718
11
0.336755
21
-4.30031
0
LINE
8
BLACK
6
CONTINUOUS
10
0.336755
20
-4.30031
11
0.342379
21
-4.27781
0
LINE
8
BLACK
6
CONTINUOUS
10
0.342379
20
-4.27781
11
0.342379
21
-4.23282
0
LINE
8
BLACK
6
CONTINUOUS
10
0.342379
20
-4.23282
11
0.336755
21
-4.22157
0
LINE
8
BLACK
6
CONTINUOUS
10
0.336755
20
-4.22157
11
0.33113
21
-4.21594
0
LINE
8
BLACK
6
CONTINUOUS
10
0.33113
20
-4.21594
11
0.319882
21
-4.21032
0
LINE
8
BLACK
6
CONTINUOUS
10
0.319882
20
-4.21032
11
0.297385
21
-4.21032
0
LINE
8
BLACK
6
CONTINUOUS
10
0.297385
20
-4.21032
11
0.286136
21
-4.21594
0
LINE
8
BLACK
6
CONTINUOUS
10
0.286136
20
-4.21594
11
0.280512
21
-4.22157
0
LINE
8
BLACK
6
CONTINUOUS
10
0.280512
20
-4.22157
11
0.274887
21
-4.23282
0
LINE
8
BLACK
6
CONTINUOUS
10
0.274887
20
-4.23282
11
0.274887
21
-4.26094
0
LINE
8
BLACK
6
CONTINUOUS
10
0.274887
20
-4.26094
11
0.280512
21
-4.27219
0
LINE
8
BLACK
6
CONTINUOUS
10
0.280512
20
-4.27219
11
0.286136
21
-4.27781
0
LINE
8
BLACK
6
CONTINUOUS
10
0.286136
20
-4.27781
11
0.297385
21
-4.28344
0
LINE
8
BLACK
6
CONTINUOUS
10
0.297385
20
-4.28344
11
0.319882
21
-4.28344
0
LINE
8
BLACK
6
CONTINUOUS
10
0.319882
20
-4.28344
11
0.33113
21
-4.27781
0
LINE
8
BLACK
6
CONTINUOUS
10
0.33113
20
-4.27781
11
0.336755
21
-4.27219
0
LINE
8
BLACK
6
CONTINUOUS
10
0.336755
20
-4.27219
11
0.342379
21
-4.26094
0
LINE
8
BLACK
6
CONTINUOUS
10
0.415495
20
-4.21032
11
0.426743
21
-4.21032
0
LINE
8
BLACK
6
CONTINUOUS
10
0.426743
20
-4.21032
11
0.437992
21
-4.21594
0
LINE
8
BLACK
6
CONTINUOUS
10
0.437992
20
-4.21594
11
0.443616
21
-4.22157
0
LINE
8
BLACK
6
CONTINUOUS
10
0.443616
20
-4.22157
11
0.449241
21
-4.23282
0
LINE
8
BLACK
6
CONTINUOUS
10
0.449241
20
-4.23282
11
0.454865
21
-4.25531
0
LINE
8
BLACK
6
CONTINUOUS
10
0.454865
20
-4.25531
11
0.454865
21
-4.28344
0
LINE
8
BLACK
6
CONTINUOUS
10
0.454865
20
-4.28344
11
0.449241
21
-4.30593
0
LINE
8
BLACK
6
CONTINUOUS
10
0.449241
20
-4.30593
11
0.443616
21
-4.31718
0
LINE
8
BLACK
6
CONTINUOUS
10
0.443616
20
-4.31718
11
0.437992
21
-4.32281
0
LINE
8
BLACK
6
CONTINUOUS
10
0.437992
20
-4.32281
11
0.426743
21
-4.32843
0
LINE
8
BLACK
6
CONTINUOUS
10
0.426743
20
-4.32843
11
0.415495
21
-4.32843
0
LINE
8
BLACK
6
CONTINUOUS
10
0.415495
20
-4.32843
11
0.404246
21
-4.32281
0
LINE
8
BLACK
6
CONTINUOUS
10
0.404246
20
-4.32281
11
0.398622
21
-4.31718
0
LINE
8
BLACK
6
CONTINUOUS
10
0.398622
20
-4.31718
11
0.392998
21
-4.30593
0
LINE
8
BLACK
6
CONTINUOUS
10
0.392998
20
-4.30593
11
0.387373
21
-4.28344
0
LINE
8
BLACK
6
CONTINUOUS
10
0.387373
20
-4.28344
11
0.387373
21
-4.25531
0
LINE
8
BLACK
6
CONTINUOUS
10
0.387373
20
-4.25531
11
0.392998
21
-4.23282
0
LINE
8
BLACK
6
CONTINUOUS
10
0.392998
20
-4.23282
11
0.398622
21
-4.22157
0
LINE
8
BLACK
6
CONTINUOUS
10
0.398622
20
-4.22157
11
0.404246
21
-4.21594
0
LINE
8
BLACK
6
CONTINUOUS
10
0.404246
20
-4.21594
11
0.415495
21
-4.21032
0
LINE
8
BLACK
6
CONTINUOUS
10
0.505484
20
-4.32843
11
0.505484
21
-4.24969
0
LINE
8
BLACK
6
CONTINUOUS
10
0.505484
20
-4.26094
11
0.511108
21
-4.25531
0
LINE
8
BLACK
6
CONTINUOUS
10
0.511108
20
-4.25531
11
0.522357
21
-4.24969
0
LINE
8
BLACK
6
CONTINUOUS
10
0.522357
20
-4.24969
11
0.539229
21
-4.24969
0
LINE
8
BLACK
6
CONTINUOUS
10
0.539229
20
-4.24969
11
0.550478
21
-4.25531
0
LINE
8
BLACK
6
CONTINUOUS
10
0.550478
20
-4.25531
11
0.556102
21
-4.26656
0
LINE
8
BLACK
6
CONTINUOUS
10
0.556102
20
-4.26656
11
0.556102
21
-4.32843
0
LINE
8
BLACK
6
CONTINUOUS
10
0.556102
20
-4.26656
11
0.561727
21
-4.25531
0
LINE
8
BLACK
6
CONTINUOUS
10
0.561727
20
-4.25531
11
0.572975
21
-4.24969
0
LINE
8
BLACK
6
CONTINUOUS
10
0.572975
20
-4.24969
11
0.589848
21
-4.24969
0
LINE
8
BLACK
6
CONTINUOUS
10
0.589848
20
-4.24969
11
0.601097
21
-4.25531
0
LINE
8
BLACK
6
CONTINUOUS
10
0.601097
20
-4.25531
11
0.606721
21
-4.26656
0
LINE
8
BLACK
6
CONTINUOUS
10
0.606721
20
-4.26656
11
0.606721
21
-4.32843
0
LINE
8
BLACK
6
CONTINUOUS
10
0.662964
20
-4.32843
11
0.662964
21
-4.24969
0
LINE
8
BLACK
6
CONTINUOUS
10
0.662964
20
-4.26094
11
0.668588
21
-4.25531
0
LINE
8
BLACK
6
CONTINUOUS
10
0.668588
20
-4.25531
11
0.679837
21
-4.24969
0
LINE
8
BLACK
6
CONTINUOUS
10
0.679837
20
-4.24969
11
0.69671
21
-4.24969
0
LINE
8
BLACK
6
CONTINUOUS
10
0.69671
20
-4.24969
11
0.707958
21
-4.25531
0
LINE
8
BLACK
6
CONTINUOUS
10
0.707958
20
-4.25531
11
0.713583
21
-4.26656
0
LINE
8
BLACK
6
CONTINUOUS
10
0.713583
20
-4.26656
11
0.713583
21
-4.32843
0
LINE
8
BLACK
6
CONTINUOUS
10
0.713583
20
-4.26656
11
0.719207
21
-4.25531
0
LINE
8
BLACK
6
CONTINUOUS
10
0.719207
20
-4.25531
11
0.730456
21
-4.24969
0
LINE
8
BLACK
6
CONTINUOUS
10
0.730456
20
-4.24969
11
0.747328
21
-4.24969
0
LINE
8
BLACK
6
CONTINUOUS
10
0.747328
20
-4.24969
11
0.758577
21
-4.25531
0
LINE
8
BLACK
6
CONTINUOUS
10
0.758577
20
-4.25531
11
0.764201
21
-4.26656
0
LINE
8
BLACK
6
CONTINUOUS
10
0.764201
20
-4.26656
11
0.764201
21
-4.32843
0
LINE
8
BLACK
6
CONTINUOUS
10
0.994797
20
-4.2047
11
0.89356
21
-4.35655
0
LINE
8
BLACK
6
CONTINUOUS
10
1.14665
20
-4.21032
11
1.1579
21
-4.21032
0
LINE
8
BLACK
6
CONTINUOUS
10
1.1579
20
-4.21032
11
1.16915
21
-4.21594
0
LINE
8
BLACK
6
CONTINUOUS
10
1.16915
20
-4.21594
11
1.17477
21
-4.22157
0
LINE
8
BLACK
6
CONTINUOUS
10
1.17477
20
-4.22157
11
1.1804
21
-4.23282
0
LINE
8
BLACK
6
CONTINUOUS
10
1.1804
20
-4.23282
11
1.18602
21
-4.25531
0
LINE
8
BLACK
6
CONTINUOUS
10
1.18602
20
-4.25531
11
1.18602
21
-4.28344
0
LINE
8
BLACK
6
CONTINUOUS
10
1.18602
20
-4.28344
11
1.1804
21
-4.30593
0
LINE
8
BLACK
6
CONTINUOUS
10
1.1804
20
-4.30593
11
1.17477
21
-4.31718
0
LINE
8
BLACK
6
CONTINUOUS
10
1.17477
20
-4.31718
11
1.16915
21
-4.32281
0
LINE
8
BLACK
6
CONTINUOUS
10
1.16915
20
-4.32281
11
1.1579
21
-4.32843
0
LINE
8
BLACK
6
CONTINUOUS
10
1.1579
20
-4.32843
11
1.14665
21
-4.32843
0
LINE
8
BLACK
6
CONTINUOUS
10
1.14665
20
-4.32843
11
1.1354
21
-4.32281
0
LINE
8
BLACK
6
CONTINUOUS
10
1.1354
20
-4.32281
11
1.12978
21
-4.31718
0
LINE
8
BLACK
6
CONTINUOUS
10
1.12978
20
-4.31718
11
1.12416
21
-4.30593
0
LINE
8
BLACK
6
CONTINUOUS
10
1.12416
20
-4.30593
11
1.11853
21
-4.28344
0
LINE
8
BLACK
6
CONTINUOUS
10
1.11853
20
-4.28344
11
1.11853
21
-4.25531
0
LINE
8
BLACK
6
CONTINUOUS
10
1.11853
20
-4.25531
11
1.12416
21
-4.23282
0
LINE
8
BLACK
6
CONTINUOUS
10
1.12416
20
-4.23282
11
1.12978
21
-4.22157
0
LINE
8
BLACK
6
CONTINUOUS
10
1.12978
20
-4.22157
11
1.1354
21
-4.21594
0
LINE
8
BLACK
6
CONTINUOUS
10
1.1354
20
-4.21594
11
1.14665
21
-4.21032
0
LINE
8
BLACK
6
CONTINUOUS
10
1.23664
20
-4.31718
11
1.24227
21
-4.32281
0
LINE
8
BLACK
6
CONTINUOUS
10
1.24227
20
-4.32281
11
1.23664
21
-4.32843
0
LINE
8
BLACK
6
CONTINUOUS
10
1.23664
20
-4.32843
11
1.23102
21
-4.32281
0
LINE
8
BLACK
6
CONTINUOUS
10
1.23102
20
-4.32281
11
1.23664
21
-4.31718
0
LINE
8
BLACK
6
CONTINUOUS
10
1.23664
20
-4.31718
11
1.23664
21
-4.32843
0
LINE
8
BLACK
6
CONTINUOUS
10
1.31538
20
-4.21032
11
1.32663
21
-4.21032
0
LINE
8
BLACK
6
CONTINUOUS
10
1.32663
20
-4.21032
11
1.33788
21
-4.21594
0
LINE
8
BLACK
6
CONTINUOUS
10
1.33788
20
-4.21594
11
1.3435
21
-4.22157
0
LINE
8
BLACK
6
CONTINUOUS
10
1.3435
20
-4.22157
11
1.34913
21
-4.23282
0
LINE
8
BLACK
6
CONTINUOUS
10
1.34913
20
-4.23282
11
1.35475
21
-4.25531
0
LINE
8
BLACK
6
CONTINUOUS
10
1.35475
20
-4.25531
11
1.35475
21
-4.28344
0
LINE
8
BLACK
6
CONTINUOUS
10
1.35475
20
-4.28344
11
1.34913
21
-4.30593
0
LINE
8
BLACK
6
CONTINUOUS
10
1.34913
20
-4.30593
11
1.3435
21
-4.31718
0
LINE
8
BLACK
6
CONTINUOUS
10
1.3435
20
-4.31718
11
1.33788
21
-4.32281
0
LINE
8
BLACK
6
CONTINUOUS
10
1.33788
20
-4.32281
11
1.32663
21
-4.32843
0
LINE
8
BLACK
6
CONTINUOUS
10
1.32663
20
-4.32843
11
1.31538
21
-4.32843
0
LINE
8
BLACK
6
CONTINUOUS
10
1.31538
20
-4.32843
11
1.30413
21
-4.32281
0
LINE
8
BLACK
6
CONTINUOUS
10
1.30413
20
-4.32281
11
1.29851
21
-4.31718
0
LINE
8
BLACK
6
CONTINUOUS
10
1.29851
20
-4.31718
11
1.29289
21
-4.30593
0
LINE
8
BLACK
6
CONTINUOUS
10
1.29289
20
-4.30593
11
1.28726
21
-4.28344
0
LINE
8
BLACK
6
CONTINUOUS
10
1.28726
20
-4.28344
11
1.28726
21
-4.25531
0
LINE
8
BLACK
6
CONTINUOUS
10
1.28726
20
-4.25531
11
1.29289
21
-4.23282
0
LINE
8
BLACK
6
CONTINUOUS
10
1.29289
20
-4.23282
11
1.29851
21
-4.22157
0
LINE
8
BLACK
6
CONTINUOUS
10
1.29851
20
-4.22157
11
1.30413
21
-4.21594
0
LINE
8
BLACK
6
CONTINUOUS
10
1.30413
20
-4.21594
11
1.31538
21
-4.21032
0
LINE
8
BLACK
6
CONTINUOUS
10
1.39412
20
-4.21032
11
1.46724
21
-4.21032
0
LINE
8
BLACK
6
CONTINUOUS
10
1.46724
20
-4.21032
11
1.42787
21
-4.25531
0
LINE
8
BLACK
6
CONTINUOUS
10
1.42787
20
-4.25531
11
1.44474
21
-4.25531
0
LINE
8
BLACK
6
CONTINUOUS
10
1.44474
20
-4.25531
11
1.45599
21
-4.26094
0
LINE
8
BLACK
6
CONTINUOUS
10
1.45599
20
-4.26094
11
1.46161
21
-4.26656
0
LINE
8
BLACK
6
CONTINUOUS
10
1.46161
20
-4.26656
11
1.46724
21
-4.27781
0
LINE
8
BLACK
6
CONTINUOUS
10
1.46724
20
-4.27781
11
1.46724
21
-4.30593
0
LINE
8
BLACK
6
CONTINUOUS
10
1.46724
20
-4.30593
11
1.46161
21
-4.31718
0
LINE
8
BLACK
6
CONTINUOUS
10
1.46161
20
-4.31718
11
1.45599
21
-4.32281
0
LINE
8
BLACK
6
CONTINUOUS
10
1.45599
20
-4.32281
11
1.44474
21
-4.32843
0
LINE
8
BLACK
6
CONTINUOUS
10
1.44474
20
-4.32843
11
1.411
21
-4.32843
0
LINE
8
BLACK
6
CONTINUOUS
10
1.411
20
-4.32843
11
1.39975
21
-4.32281
0
LINE
8
BLACK
6
CONTINUOUS
10
1.39975
20
-4.32281
11
1.39412
21
-4.31718
0
LINE
8
BLACK
6
CONTINUOUS
10
1.5741
20
-4.21032
11
1.51786
21
-4.21032
0
LINE
8
BLACK
6
CONTINUOUS
10
1.51786
20
-4.21032
11
1.51223
21
-4.26656
0
LINE
8
BLACK
6
CONTINUOUS
10
1.51223
20
-4.26656
11
1.51786
21
-4.26094
0
LINE
8
BLACK
6
CONTINUOUS
10
1.51786
20
-4.26094
11
1.52911
21
-4.25531
0
LINE
8
BLACK
6
CONTINUOUS
10
1.52911
20
-4.25531
11
1.55723
21
-4.25531
0
LINE
8
BLACK
6
CONTINUOUS
10
1.55723
20
-4.25531
11
1.56848
21
-4.26094
0
LINE
8
BLACK
6
CONTINUOUS
10
1.56848
20
-4.26094
11
1.5741
21
-4.26656
0
LINE
8
BLACK
6
CONTINUOUS
10
1.5741
20
-4.26656
11
1.57972
21
-4.27781
0
LINE
8
BLACK
6
CONTINUOUS
10
1.57972
20
-4.27781
11
1.57972
21
-4.30593
0
LINE
8
BLACK
6
CONTINUOUS
10
1.57972
20
-4.30593
11
1.5741
21
-4.31718
0
LINE
8
BLACK
6
CONTINUOUS
10
1.5741
20
-4.31718
11
1.56848
21
-4.32281
0
LINE
8
BLACK
6
CONTINUOUS
10
1.56848
20
-4.32281
11
1.55723
21
-4.32843
0
LINE
8
BLACK
6
CONTINUOUS
10
1.55723
20
-4.32843
11
1.52911
21
-4.32843
0
LINE
8
BLACK
6
CONTINUOUS
10
1.52911
20
-4.32843
11
1.51786
21
-4.32281
0
LINE
8
BLACK
6
CONTINUOUS
10
1.51786
20
-4.32281
11
1.51223
21
-4.31718
0
LINE
8
BLACK
6
CONTINUOUS
10
1.62472
20
-4.21032
11
1.62472
21
-4.23282
0
LINE
8
BLACK
6
CONTINUOUS
10
1.66971
20
-4.21032
11
1.66971
21
-4.23282
0
LINE
8
BLACK
6
CONTINUOUS
10
1.84407
20
-4.37343
11
1.83844
21
-4.3678
0
LINE
8
BLACK
6
CONTINUOUS
10
1.83844
20
-4.3678
11
1.82719
21
-4.35093
0
LINE
8
BLACK
6
CONTINUOUS
10
1.82719
20
-4.35093
11
1.82157
21
-4.33968
0
LINE
8
BLACK
6
CONTINUOUS
10
1.82157
20
-4.33968
11
1.81594
21
-4.32281
0
LINE
8
BLACK
6
CONTINUOUS
10
1.81594
20
-4.32281
11
1.81032
21
-4.29469
0
LINE
8
BLACK
6
CONTINUOUS
10
1.81032
20
-4.29469
11
1.81032
21
-4.27219
0
LINE
8
BLACK
6
CONTINUOUS
10
1.81032
20
-4.27219
11
1.81594
21
-4.24407
0
LINE
8
BLACK
6
CONTINUOUS
10
1.81594
20
-4.24407
11
1.82157
21
-4.22719
0
LINE
8
BLACK
6
CONTINUOUS
10
1.82157
20
-4.22719
11
1.82719
21
-4.21594
0
LINE
8
BLACK
6
CONTINUOUS
10
1.82719
20
-4.21594
11
1.83844
21
-4.19907
0
LINE
8
BLACK
6
CONTINUOUS
10
1.83844
20
-4.19907
11
1.84407
21
-4.19345
0
LINE
8
BLACK
6
CONTINUOUS
10
1.88344
20
-4.22157
11
1.88906
21
-4.21594
0
LINE
8
BLACK
6
CONTINUOUS
10
1.88906
20
-4.21594
11
1.90031
21
-4.21032
0
LINE
8
BLACK
6
CONTINUOUS
10
1.90031
20
-4.21032
11
1.92843
21
-4.21032
0
LINE
8
BLACK
6
CONTINUOUS
10
1.92843
20
-4.21032
11
1.93968
21
-4.21594
0
LINE
8
BLACK
6
CONTINUOUS
10
1.93968
20
-4.21594
11
1.9453
21
-4.22157
0
LINE
8
BLACK
6
CONTINUOUS
10
1.9453
20
-4.22157
11
1.95093
21
-4.23282
0
LINE
8
BLACK
6
CONTINUOUS
10
1.95093
20
-4.23282
11
1.95093
21
-4.24407
0
LINE
8
BLACK
6
CONTINUOUS
10
1.95093
20
-4.24407
11
1.9453
21
-4.26094
0
LINE
8
BLACK
6
CONTINUOUS
10
1.9453
20
-4.26094
11
1.87781
21
-4.32843
0
LINE
8
BLACK
6
CONTINUOUS
10
1.87781
20
-4.32843
11
1.95093
21
-4.32843
0
LINE
8
BLACK
6
CONTINUOUS
10
2.09154
20
-4.32843
11
2.09154
21
-4.21032
0
LINE
8
BLACK
6
CONTINUOUS
10
2.14215
20
-4.32843
11
2.14215
21
-4.26656
0
LINE
8
BLACK
6
CONTINUOUS
10
2.14215
20
-4.26656
11
2.13653
21
-4.25531
0
LINE
8
BLACK
6
CONTINUOUS
10
2.13653
20
-4.25531
11
2.12528
21
-4.24969
0
LINE
8
BLACK
6
CONTINUOUS
10
2.12528
20
-4.24969
11
2.10841
21
-4.24969
0
LINE
8
BLACK
6
CONTINUOUS
10
2.10841
20
-4.24969
11
2.09716
21
-4.25531
0
LINE
8
BLACK
6
CONTINUOUS
10
2.09716
20
-4.25531
11
2.09154
21
-4.26094
0
LINE
8
BLACK
6
CONTINUOUS
10
2.21527
20
-4.32843
11
2.20402
21
-4.32281
0
LINE
8
BLACK
6
CONTINUOUS
10
2.20402
20
-4.32281
11
2.1984
21
-4.31718
0
LINE
8
BLACK
6
CONTINUOUS
10
2.1984
20
-4.31718
11
2.19277
21
-4.30593
0
LINE
8
BLACK
6
CONTINUOUS
10
2.19277
20
-4.30593
11
2.19277
21
-4.27219
0
LINE
8
BLACK
6
CONTINUOUS
10
2.19277
20
-4.27219
11
2.1984
21
-4.26094
0
LINE
8
BLACK
6
CONTINUOUS
10
2.1984
20
-4.26094
11
2.20402
21
-4.25531
0
LINE
8
BLACK
6
CONTINUOUS
10
2.20402
20
-4.25531
11
2.21527
21
-4.24969
0
LINE
8
BLACK
6
CONTINUOUS
10
2.21527
20
-4.24969
11
2.23214
21
-4.24969
0
LINE
8
BLACK
6
CONTINUOUS
10
2.23214
20
-4.24969
11
2.24339
21
-4.25531
0
LINE
8
BLACK
6
CONTINUOUS
10
2.24339
20
-4.25531
11
2.24902
21
-4.26094
0
LINE
8
BLACK
6
CONTINUOUS
10
2.24902
20
-4.26094
11
2.25464
21
-4.27219
0
LINE
8
BLACK
6
CONTINUOUS
10
2.25464
20
-4.27219
11
2.25464
21
-4.30593
0
LINE
8
BLACK
6
CONTINUOUS
10
2.25464
20
-4.30593
11
2.24902
21
-4.31718
0
LINE
8
BLACK
6
CONTINUOUS
10
2.24902
20
-4.31718
11
2.24339
21
-4.32281
0
LINE
8
BLACK
6
CONTINUOUS
10
2.24339
20
-4.32281
11
2.23214
21
-4.32843
0
LINE
8
BLACK
6
CONTINUOUS
10
2.23214
20
-4.32843
11
2.21527
21
-4.32843
0
LINE
8
BLACK
6
CONTINUOUS
10
2.32213
20
-4.32843
11
2.31088
21
-4.32281
0
LINE
8
BLACK
6
CONTINUOUS
10
2.31088
20
-4.32281
11
2.30526
21
-4.31156
0
LINE
8
BLACK
6
CONTINUOUS
10
2.30526
20
-4.31156
11
2.30526
21
-4.21032
0
LINE
8
BLACK
6
CONTINUOUS
10
2.41212
20
-4.32281
11
2.40087
21
-4.32843
0
LINE
8
BLACK
6
CONTINUOUS
10
2.40087
20
-4.32843
11
2.37837
21
-4.32843
0
LINE
8
BLACK
6
CONTINUOUS
10
2.37837
20
-4.32843
11
2.36713
21
-4.32281
0
LINE
8
BLACK
6
CONTINUOUS
10
2.36713
20
-4.32281
11
2.3615
21
-4.31156
0
LINE
8
BLACK
6
CONTINUOUS
10
2.3615
20
-4.31156
11
2.3615
21
-4.26656
0
LINE
8
BLACK
6
CONTINUOUS
10
2.3615
20
-4.26656
11
2.36713
21
-4.25531
0
LINE
8
BLACK
6
CONTINUOUS
10
2.36713
20
-4.25531
11
2.37837
21
-4.24969
0
LINE
8
BLACK
6
CONTINUOUS
10
2.37837
20
-4.24969
11
2.40087
21
-4.24969
0
LINE
8
BLACK
6
CONTINUOUS
10
2.40087
20
-4.24969
11
2.41212
21
-4.25531
0
LINE
8
BLACK
6
CONTINUOUS
10
2.41212
20
-4.25531
11
2.41774
21
-4.26656
0
LINE
8
BLACK
6
CONTINUOUS
10
2.41774
20
-4.26656
11
2.41774
21
-4.27781
0
LINE
8
BLACK
6
CONTINUOUS
10
2.41774
20
-4.27781
11
2.3615
21
-4.28906
0
LINE
8
BLACK
6
CONTINUOUS
10
2.46274
20
-4.32281
11
2.47399
21
-4.32843
0
LINE
8
BLACK
6
CONTINUOUS
10
2.47399
20
-4.32843
11
2.49648
21
-4.32843
0
LINE
8
BLACK
6
CONTINUOUS
10
2.49648
20
-4.32843
11
2.50773
21
-4.32281
0
LINE
8
BLACK
6
CONTINUOUS
10
2.50773
20
-4.32281
11
2.51336
21
-4.31156
0
LINE
8
BLACK
6
CONTINUOUS
10
2.51336
20
-4.31156
11
2.51336
21
-4.30593
0
LINE
8
BLACK
6
CONTINUOUS
10
2.51336
20
-4.30593
11
2.50773
21
-4.29469
0
LINE
8
BLACK
6
CONTINUOUS
10
2.50773
20
-4.29469
11
2.49648
21
-4.28906
0
LINE
8
BLACK
6
CONTINUOUS
10
2.49648
20
-4.28906
11
2.47961
21
-4.28906
0
LINE
8
BLACK
6
CONTINUOUS
10
2.47961
20
-4.28906
11
2.46836
21
-4.28344
0
LINE
8
BLACK
6
CONTINUOUS
10
2.46836
20
-4.28344
11
2.46274
21
-4.27219
0
LINE
8
BLACK
6
CONTINUOUS
10
2.46274
20
-4.27219
11
2.46274
21
-4.26656
0
LINE
8
BLACK
6
CONTINUOUS
10
2.46274
20
-4.26656
11
2.46836
21
-4.25531
0
LINE
8
BLACK
6
CONTINUOUS
10
2.46836
20
-4.25531
11
2.47961
21
-4.24969
0
LINE
8
BLACK
6
CONTINUOUS
10
2.47961
20
-4.24969
11
2.49648
21
-4.24969
0
LINE
8
BLACK
6
CONTINUOUS
10
2.49648
20
-4.24969
11
2.50773
21
-4.25531
0
LINE
8
BLACK
6
CONTINUOUS
10
2.55273
20
-4.37343
11
2.55835
21
-4.3678
0
LINE
8
BLACK
6
CONTINUOUS
10
2.55835
20
-4.3678
11
2.5696
21
-4.35093
0
LINE
8
BLACK
6
CONTINUOUS
10
2.5696
20
-4.35093
11
2.57522
21
-4.33968
0
LINE
8
BLACK
6
CONTINUOUS
10
2.57522
20
-4.33968
11
2.58085
21
-4.32281
0
LINE
8
BLACK
6
CONTINUOUS
10
2.58085
20
-4.32281
11
2.58647
21
-4.29469
0
LINE
8
BLACK
6
CONTINUOUS
10
2.58647
20
-4.29469
11
2.58647
21
-4.27219
0
LINE
8
BLACK
6
CONTINUOUS
10
2.58647
20
-4.27219
11
2.58085
21
-4.24407
0
LINE
8
BLACK
6
CONTINUOUS
10
2.58085
20
-4.24407
11
2.57522
21
-4.22719
0
LINE
8
BLACK
6
CONTINUOUS
10
2.57522
20
-4.22719
11
2.5696
21
-4.21594
0
LINE
8
BLACK
6
CONTINUOUS
10
2.5696
20
-4.21594
11
2.55835
21
-4.19907
0
LINE
8
BLACK
6
CONTINUOUS
10
2.55835
20
-4.19907
11
2.55273
21
-4.19345
0
LINE
8
BLACK
6
CONTINUOUS
10
-0.0206693
20
-4.41122
11
-0.0206693
21
-4.45059
0
LINE
8
BLACK
6
CONTINUOUS
10
-0.0403544
20
-4.43091
11
-0.000984291
21
-4.43091
0
LINE
8
BLACK
6
CONTINUOUS
10
0.17365
20
-4.48434
11
0.106159
21
-4.48434
0
LINE
8
BLACK
6
CONTINUOUS
10
0.139904
20
-4.48434
11
0.139904
21
-4.36623
0
LINE
8
BLACK
6
CONTINUOUS
10
0.139904
20
-4.36623
11
0.128656
21
-4.3831
0
LINE
8
BLACK
6
CONTINUOUS
10
0.128656
20
-4.3831
11
0.117407
21
-4.39435
0
LINE
8
BLACK
6
CONTINUOUS
10
0.117407
20
-4.39435
11
0.106159
21
-4.39997
0
LINE
8
BLACK
6
CONTINUOUS
10
0.224269
20
-4.47309
11
0.229893
21
-4.47871
0
LINE
8
BLACK
6
CONTINUOUS
10
0.229893
20
-4.47871
11
0.224269
21
-4.48434
0
LINE
8
BLACK
6
CONTINUOUS
10
0.224269
20
-4.48434
11
0.218644
21
-4.47871
0
LINE
8
BLACK
6
CONTINUOUS
10
0.218644
20
-4.47871
11
0.224269
21
-4.47309
0
LINE
8
BLACK
6
CONTINUOUS
10
0.224269
20
-4.47309
11
0.224269
21
-4.48434
0
LINE
8
BLACK
6
CONTINUOUS
10
0.303009
20
-4.36623
11
0.314258
21
-4.36623
0
LINE
8
BLACK
6
CONTINUOUS
10
0.314258
20
-4.36623
11
0.325506
21
-4.37185
0
LINE
8
BLACK
6
CONTINUOUS
10
0.325506
20
-4.37185
11
0.33113
21
-4.37747
0
LINE
8
BLACK
6
CONTINUOUS
10
0.33113
20
-4.37747
11
0.336755
21
-4.38872
0
LINE
8
BLACK
6
CONTINUOUS
10
0.336755
20
-4.38872
11
0.342379
21
-4.41122
0
LINE
8
BLACK
6
CONTINUOUS
10
0.342379
20
-4.41122
11
0.342379
21
-4.43934
0
LINE
8
BLACK
6
CONTINUOUS
10
0.342379
20
-4.43934
11
0.336755
21
-4.46184
0
LINE
8
BLACK
6
CONTINUOUS
10
0.336755
20
-4.46184
11
0.33113
21
-4.47309
0
LINE
8
BLACK
6
CONTINUOUS
10
0.33113
20
-4.47309
11
0.325506
21
-4.47871
0
LINE
8
BLACK
6
CONTINUOUS
10
0.325506
20
-4.47871
11
0.314258
21
-4.48434
0
LINE
8
BLACK
6
CONTINUOUS
10
0.314258
20
-4.48434
11
0.303009
21
-4.48434
0
LINE
8
BLACK
6
CONTINUOUS
10
0.303009
20
-4.48434
11
0.29176
21
-4.47871
0
LINE
8
BLACK
6
CONTINUOUS
10
0.29176
20
-4.47871
11
0.286136
21
-4.47309
0
LINE
8
BLACK
6
CONTINUOUS
10
0.286136
20
-4.47309
11
0.280512
21
-4.46184
0
LINE
8
BLACK
6
CONTINUOUS
10
0.280512
20
-4.46184
11
0.274887
21
-4.43934
0
LINE
8
BLACK
6
CONTINUOUS
10
0.274887
20
-4.43934
11
0.274887
21
-4.41122
0
LINE
8
BLACK
6
CONTINUOUS
10
0.274887
20
-4.41122
11
0.280512
21
-4.38872
0
LINE
8
BLACK
6
CONTINUOUS
10
0.280512
20
-4.38872
11
0.286136
21
-4.37747
0
LINE
8
BLACK
6
CONTINUOUS
10
0.286136
20
-4.37747
11
0.29176
21
-4.37185
0
LINE
8
BLACK
6
CONTINUOUS
10
0.29176
20
-4.37185
11
0.303009
21
-4.36623
0
LINE
8
BLACK
6
CONTINUOUS
10
0.415495
20
-4.36623
11
0.426743
21
-4.36623
0
LINE
8
BLACK
6
CONTINUOUS
10
0.426743
20
-4.36623
11
0.437992
21
-4.37185
0
LINE
8
BLACK
6
CONTINUOUS
10
0.437992
20
-4.37185
11
0.443616
21
-4.37747
0
LINE
8
BLACK
6
CONTINUOUS
10
0.443616
20
-4.37747
11
0.449241
21
-4.38872
0
LINE
8
BLACK
6
CONTINUOUS
10
0.449241
20
-4.38872
11
0.454865
21
-4.41122
0
LINE
8
BLACK
6
CONTINUOUS
10
0.454865
20
-4.41122
11
0.454865
21
-4.43934
0
LINE
8
BLACK
6
CONTINUOUS
10
0.454865
20
-4.43934
11
0.449241
21
-4.46184
0
LINE
8
BLACK
6
CONTINUOUS
10
0.449241
20
-4.46184
11
0.443616
21
-4.47309
0
LINE
8
BLACK
6
CONTINUOUS
10
0.443616
20
-4.47309
11
0.437992
21
-4.47871
0
LINE
8
BLACK
6
CONTINUOUS
10
0.437992
20
-4.47871
11
0.426743
21
-4.48434
0
LINE
8
BLACK
6
CONTINUOUS
10
0.426743
20
-4.48434
11
0.415495
21
-4.48434
0
LINE
8
BLACK
6
CONTINUOUS
10
0.415495
20
-4.48434
11
0.404246
21
-4.47871
0
LINE
8
BLACK
6
CONTINUOUS
10
0.404246
20
-4.47871
11
0.398622
21
-4.47309
0
LINE
8
BLACK
6
CONTINUOUS
10
0.398622
20
-4.47309
11
0.392998
21
-4.46184
0
LINE
8
BLACK
6
CONTINUOUS
10
0.392998
20
-4.46184
11
0.387373
21
-4.43934
0
LINE
8
BLACK
6
CONTINUOUS
10
0.387373
20
-4.43934
11
0.387373
21
-4.41122
0
LINE
8
BLACK
6
CONTINUOUS
10
0.387373
20
-4.41122
11
0.392998
21
-4.38872
0
LINE
8
BLACK
6
CONTINUOUS
10
0.392998
20
-4.38872
11
0.398622
21
-4.37747
0
LINE
8
BLACK
6
CONTINUOUS
10
0.398622
20
-4.37747
11
0.404246
21
-4.37185
0
LINE
8
BLACK
6
CONTINUOUS
10
0.404246
20
-4.37185
11
0.415495
21
-4.36623
0
LINE
8
BLACK
6
CONTINUOUS
10
0.505484
20
-4.48434
11
0.505484
21
-4.4056
0
LINE
8
BLACK
6
CONTINUOUS
10
0.505484
20
-4.41684
11
0.511108
21
-4.41122
0
LINE
8
BLACK
6
CONTINUOUS
10
0.511108
20
-4.41122
11
0.522357
21
-4.4056
0
LINE
8
BLACK
6
CONTINUOUS
10
0.522357
20
-4.4056
11
0.539229
21
-4.4056
0
LINE
8
BLACK
6
CONTINUOUS
10
0.539229
20
-4.4056
11
0.550478
21
-4.41122
0
LINE
8
BLACK
6
CONTINUOUS
10
0.550478
20
-4.41122
11
0.556102
21
-4.42247
0
LINE
8
BLACK
6
CONTINUOUS
10
0.556102
20
-4.42247
11
0.556102
21
-4.48434
0
LINE
8
BLACK
6
CONTINUOUS
10
0.556102
20
-4.42247
11
0.561727
21
-4.41122
0
LINE
8
BLACK
6
CONTINUOUS
10
0.561727
20
-4.41122
11
0.572975
21
-4.4056
0
LINE
8
BLACK
6
CONTINUOUS
10
0.572975
20
-4.4056
11
0.589848
21
-4.4056
0
LINE
8
BLACK
6
CONTINUOUS
10
0.589848
20
-4.4056
11
0.601097
21
-4.41122
0
LINE
8
BLACK
6
CONTINUOUS
10
0.601097
20
-4.41122
11
0.606721
21
-4.42247
0
LINE
8
BLACK
6
CONTINUOUS
10
0.606721
20
-4.42247
11
0.606721
21
-4.48434
0
LINE
8
BLACK
6
CONTINUOUS
10
0.662964
20
-4.48434
11
0.662964
21
-4.4056
0
LINE
8
BLACK
6
CONTINUOUS
10
0.662964
20
-4.41684
11
0.668588
21
-4.41122
0
LINE
8
BLACK
6
CONTINUOUS
10
0.668588
20
-4.41122
11
0.679837
21
-4.4056
0
LINE
8
BLACK
6
CONTINUOUS
10
0.679837
20
-4.4056
11
0.69671
21
-4.4056
0
LINE
8
BLACK
6
CONTINUOUS
10
0.69671
20
-4.4056
11
0.707958
21
-4.41122
0
LINE
8
BLACK
6
CONTINUOUS
10
0.707958
20
-4.41122
11
0.713583
21
-4.42247
0
LINE
8
BLACK
6
CONTINUOUS
10
0.713583
20
-4.42247
11
0.713583
21
-4.48434
0
LINE
8
BLACK
6
CONTINUOUS
10
0.713583
20
-4.42247
11
0.719207
21
-4.41122
0
LINE
8
BLACK
6
CONTINUOUS
10
0.719207
20
-4.41122
11
0.730456
21
-4.4056
0
LINE
8
BLACK
6
CONTINUOUS
10
0.730456
20
-4.4056
11
0.747328
21
-4.4056
0
LINE
8
BLACK
6
CONTINUOUS
10
0.747328
20
-4.4056
11
0.758577
21
-4.41122
0
LINE
8
BLACK
6
CONTINUOUS
10
0.758577
20
-4.41122
11
0.764201
21
-4.42247
0
LINE
8
BLACK
6
CONTINUOUS
10
0.764201
20
-4.42247
11
0.764201
21
-4.48434
0
LINE
8
BLACK
6
CONTINUOUS
10
0.994797
20
-4.3606
11
0.89356
21
-4.51246
0
LINE
8
BLACK
6
CONTINUOUS
10
1.14665
20
-4.36623
11
1.1579
21
-4.36623
0
LINE
8
BLACK
6
CONTINUOUS
10
1.1579
20
-4.36623
11
1.16915
21
-4.37185
0
LINE
8
BLACK
6
CONTINUOUS
10
1.16915
20
-4.37185
11
1.17477
21
-4.37747
0
LINE
8
BLACK
6
CONTINUOUS
10
1.17477
20
-4.37747
11
1.1804
21
-4.38872
0
LINE
8
BLACK
6
CONTINUOUS
10
1.1804
20
-4.38872
11
1.18602
21
-4.41122
0
LINE
8
BLACK
6
CONTINUOUS
10
1.18602
20
-4.41122
11
1.18602
21
-4.43934
0
LINE
8
BLACK
6
CONTINUOUS
10
1.18602
20
-4.43934
11
1.1804
21
-4.46184
0
LINE
8
BLACK
6
CONTINUOUS
10
1.1804
20
-4.46184
11
1.17477
21
-4.47309
0
LINE
8
BLACK
6
CONTINUOUS
10
1.17477
20
-4.47309
11
1.16915
21
-4.47871
0
LINE
8
BLACK
6
CONTINUOUS
10
1.16915
20
-4.47871
11
1.1579
21
-4.48434
0
LINE
8
BLACK
6
CONTINUOUS
10
1.1579
20
-4.48434
11
1.14665
21
-4.48434
0
LINE
8
BLACK
6
CONTINUOUS
10
1.14665
20
-4.48434
11
1.1354
21
-4.47871
0
LINE
8
BLACK
6
CONTINUOUS
10
1.1354
20
-4.47871
11
1.12978
21
-4.47309
0
LINE
8
BLACK
6
CONTINUOUS
10
1.12978
20
-4.47309
11
1.12416
21
-4.46184
0
LINE
8
BLACK
6
CONTINUOUS
10
1.12416
20
-4.46184
11
1.11853
21
-4.43934
0
LINE
8
BLACK
6
CONTINUOUS
10
1.11853
20
-4.43934
11
1.11853
21
-4.41122
0
LINE
8
BLACK
6
CONTINUOUS
10
1.11853
20
-4.41122
11
1.12416
21
-4.38872
0
LINE
8
BLACK
6
CONTINUOUS
10
1.12416
20
-4.38872
11
1.12978
21
-4.37747
0
LINE
8
BLACK
6
CONTINUOUS
10
1.12978
20
-4.37747
11
1.1354
21
-4.37185
0
LINE
8
BLACK
6
CONTINUOUS
10
1.1354
20
-4.37185
11
1.14665
21
-4.36623
0
LINE
8
BLACK
6
CONTINUOUS
10
1.23664
20
-4.47309
11
1.24227
21
-4.47871
0
LINE
8
BLACK
6
CONTINUOUS
10
1.24227
20
-4.47871
11
1.23664
21
-4.48434
0
LINE
8
BLACK
6
CONTINUOUS
10
1.23664
20
-4.48434
11
1.23102
21
-4.47871
0
LINE
8
BLACK
6
CONTINUOUS
10
1.23102
20
-4.47871
11
1.23664
21
-4.47309
0
LINE
8
BLACK
6
CONTINUOUS
10
1.23664
20
-4.47309
11
1.23664
21
-4.48434
0
LINE
8
BLACK
6
CONTINUOUS
10
1.31538
20
-4.36623
11
1.32663
21
-4.36623
0
LINE
8
BLACK
6
CONTINUOUS
10
1.32663
20
-4.36623
11
1.33788
21
-4.37185
0
LINE
8
BLACK
6
CONTINUOUS
10
1.33788
20
-4.37185
11
1.3435
21
-4.37747
0
LINE
8
BLACK
6
CONTINUOUS
10
1.3435
20
-4.37747
11
1.34913
21
-4.38872
0
LINE
8
BLACK
6
CONTINUOUS
10
1.34913
20
-4.38872
11
1.35475
21
-4.41122
0
LINE
8
BLACK
6
CONTINUOUS
10
1.35475
20
-4.41122
11
1.35475
21
-4.43934
0
LINE
8
BLACK
6
CONTINUOUS
10
1.35475
20
-4.43934
11
1.34913
21
-4.46184
0
LINE
8
BLACK
6
CONTINUOUS
10
1.34913
20
-4.46184
11
1.3435
21
-4.47309
0
LINE
8
BLACK
6
CONTINUOUS
10
1.3435
20
-4.47309
11
1.33788
21
-4.47871
0
LINE
8
BLACK
6
CONTINUOUS
10
1.33788
20
-4.47871
11
1.32663
21
-4.48434
0
LINE
8
BLACK
6
CONTINUOUS
10
1.32663
20
-4.48434
11
1.31538
21
-4.48434
0
LINE
8
BLACK
6
CONTINUOUS
10
1.31538
20
-4.48434
11
1.30413
21
-4.47871
0
LINE
8
BLACK
6
CONTINUOUS
10
1.30413
20
-4.47871
11
1.29851
21
-4.47309
0
LINE
8
BLACK
6
CONTINUOUS
10
1.29851
20
-4.47309
11
1.29289
21
-4.46184
0
LINE
8
BLACK
6
CONTINUOUS
10
1.29289
20
-4.46184
11
1.28726
21
-4.43934
0
LINE
8
BLACK
6
CONTINUOUS
10
1.28726
20
-4.43934
11
1.28726
21
-4.41122
0
LINE
8
BLACK
6
CONTINUOUS
10
1.28726
20
-4.41122
11
1.29289
21
-4.38872
0
LINE
8
BLACK
6
CONTINUOUS
10
1.29289
20
-4.38872
11
1.29851
21
-4.37747
0
LINE
8
BLACK
6
CONTINUOUS
10
1.29851
20
-4.37747
11
1.30413
21
-4.37185
0
LINE
8
BLACK
6
CONTINUOUS
10
1.30413
20
-4.37185
11
1.31538
21
-4.36623
0
LINE
8
BLACK
6
CONTINUOUS
10
1.39412
20
-4.36623
11
1.46724
21
-4.36623
0
LINE
8
BLACK
6
CONTINUOUS
10
1.46724
20
-4.36623
11
1.42787
21
-4.41122
0
LINE
8
BLACK
6
CONTINUOUS
10
1.42787
20
-4.41122
11
1.44474
21
-4.41122
0
LINE
8
BLACK
6
CONTINUOUS
10
1.44474
20
-4.41122
11
1.45599
21
-4.41684
0
LINE
8
BLACK
6
CONTINUOUS
10
1.45599
20
-4.41684
11
1.46161
21
-4.42247
0
LINE
8
BLACK
6
CONTINUOUS
10
1.46161
20
-4.42247
11
1.46724
21
-4.43372
0
LINE
8
BLACK
6
CONTINUOUS
10
1.46724
20
-4.43372
11
1.46724
21
-4.46184
0
LINE
8
BLACK
6
CONTINUOUS
10
1.46724
20
-4.46184
11
1.46161
21
-4.47309
0
LINE
8
BLACK
6
CONTINUOUS
10
1.46161
20
-4.47309
11
1.45599
21
-4.47871
0
LINE
8
BLACK
6
CONTINUOUS
10
1.45599
20
-4.47871
11
1.44474
21
-4.48434
0
LINE
8
BLACK
6
CONTINUOUS
10
1.44474
20
-4.48434
11
1.411
21
-4.48434
0
LINE
8
BLACK
6
CONTINUOUS
10
1.411
20
-4.48434
11
1.39975
21
-4.47871
0
LINE
8
BLACK
6
CONTINUOUS
10
1.39975
20
-4.47871
11
1.39412
21
-4.47309
0
LINE
8
BLACK
6
CONTINUOUS
10
1.52348
20
-4.48434
11
1.54598
21
-4.48434
0
LINE
8
BLACK
6
CONTINUOUS
10
1.54598
20
-4.48434
11
1.55723
21
-4.47871
0
LINE
8
BLACK
6
CONTINUOUS
10
1.55723
20
-4.47871
11
1.56285
21
-4.47309
0
LINE
8
BLACK
6
CONTINUOUS
10
1.56285
20
-4.47309
11
1.5741
21
-4.45621
0
LINE
8
BLACK
6
CONTINUOUS
10
1.5741
20
-4.45621
11
1.57972
21
-4.43372
0
LINE
8
BLACK
6
CONTINUOUS
10
1.57972
20
-4.43372
11
1.57972
21
-4.38872
0
LINE
8
BLACK
6
CONTINUOUS
10
1.57972
20
-4.38872
11
1.5741
21
-4.37747
0
LINE
8
BLACK
6
CONTINUOUS
10
1.5741
20
-4.37747
11
1.56848
21
-4.37185
0
LINE
8
BLACK
6
CONTINUOUS
10
1.56848
20
-4.37185
11
1.55723
21
-4.36623
0
LINE
8
BLACK
6
CONTINUOUS
10
1.55723
20
-4.36623
11
1.53473
21
-4.36623
0
LINE
8
BLACK
6
CONTINUOUS
10
1.53473
20
-4.36623
11
1.52348
21
-4.37185
0
LINE
8
BLACK
6
CONTINUOUS
10
1.52348
20
-4.37185
11
1.51786
21
-4.37747
0
LINE
8
BLACK
6
CONTINUOUS
10
1.51786
20
-4.37747
11
1.51223
21
-4.38872
0
LINE
8
BLACK
6
CONTINUOUS
10
1.51223
20
-4.38872
11
1.51223
21
-4.41684
0
LINE
8
BLACK
6
CONTINUOUS
10
1.51223
20
-4.41684
11
1.51786
21
-4.42809
0
LINE
8
BLACK
6
CONTINUOUS
10
1.51786
20
-4.42809
11
1.52348
21
-4.43372
0
LINE
8
BLACK
6
CONTINUOUS
10
1.52348
20
-4.43372
11
1.53473
21
-4.43934
0
LINE
8
BLACK
6
CONTINUOUS
10
1.53473
20
-4.43934
11
1.55723
21
-4.43934
0
LINE
8
BLACK
6
CONTINUOUS
10
1.55723
20
-4.43934
11
1.56848
21
-4.43372
0
LINE
8
BLACK
6
CONTINUOUS
10
1.56848
20
-4.43372
11
1.5741
21
-4.42809
0
LINE
8
BLACK
6
CONTINUOUS
10
1.5741
20
-4.42809
11
1.57972
21
-4.41684
0
LINE
8
BLACK
6
CONTINUOUS
10
1.62472
20
-4.36623
11
1.62472
21
-4.38872
0
LINE
8
BLACK
6
CONTINUOUS
10
1.66971
20
-4.36623
11
1.66971
21
-4.38872
0
LINE
8
BLACK
6
CONTINUOUS
10
1.84407
20
-4.52933
11
1.83844
21
-4.52371
0
LINE
8
BLACK
6
CONTINUOUS
10
1.83844
20
-4.52371
11
1.82719
21
-4.50683
0
LINE
8
BLACK
6
CONTINUOUS
10
1.82719
20
-4.50683
11
1.82157
21
-4.49558
0
LINE
8
BLACK
6
CONTINUOUS
10
1.82157
20
-4.49558
11
1.81594
21
-4.47871
0
LINE
8
BLACK
6
CONTINUOUS
10
1.81594
20
-4.47871
11
1.81032
21
-4.45059
0
LINE
8
BLACK
6
CONTINUOUS
10
1.81032
20
-4.45059
11
1.81032
21
-4.42809
0
LINE
8
BLACK
6
CONTINUOUS
10
1.81032
20
-4.42809
11
1.81594
21
-4.39997
0
LINE
8
BLACK
6
CONTINUOUS
10
1.81594
20
-4.39997
11
1.82157
21
-4.3831
0
LINE
8
BLACK
6
CONTINUOUS
10
1.82157
20
-4.3831
11
1.82719
21
-4.37185
0
LINE
8
BLACK
6
CONTINUOUS
10
1.82719
20
-4.37185
11
1.83844
21
-4.35498
0
LINE
8
BLACK
6
CONTINUOUS
10
1.83844
20
-4.35498
11
1.84407
21
-4.34935
0
LINE
8
BLACK
6
CONTINUOUS
10
1.91156
20
-4.36623
11
1.92281
21
-4.36623
0
LINE
8
BLACK
6
CONTINUOUS
10
1.92281
20
-4.36623
11
1.93406
21
-4.37185
0
LINE
8
BLACK
6
CONTINUOUS
10
1.93406
20
-4.37185
11
1.93968
21
-4.37747
0
LINE
8
BLACK
6
CONTINUOUS
10
1.93968
20
-4.37747
11
1.9453
21
-4.38872
0
LINE
8
BLACK
6
CONTINUOUS
10
1.9453
20
-4.38872
11
1.95093
21
-4.41122
0
LINE
8
BLACK
6
CONTINUOUS
10
1.95093
20
-4.41122
11
1.95093
21
-4.43934
0
LINE
8
BLACK
6
CONTINUOUS
10
1.95093
20
-4.43934
11
1.9453
21
-4.46184
0
LINE
8
BLACK
6
CONTINUOUS
10
1.9453
20
-4.46184
11
1.93968
21
-4.47309
0
LINE
8
BLACK
6
CONTINUOUS
10
1.93968
20
-4.47309
11
1.93406
21
-4.47871
0
LINE
8
BLACK
6
CONTINUOUS
10
1.93406
20
-4.47871
11
1.92281
21
-4.48434
0
LINE
8
BLACK
6
CONTINUOUS
10
1.92281
20
-4.48434
11
1.91156
21
-4.48434
0
LINE
8
BLACK
6
CONTINUOUS
10
1.91156
20
-4.48434
11
1.90031
21
-4.47871
0
LINE
8
BLACK
6
CONTINUOUS
10
1.90031
20
-4.47871
11
1.89468
21
-4.47309
0
LINE
8
BLACK
6
CONTINUOUS
10
1.89468
20
-4.47309
11
1.88906
21
-4.46184
0
LINE
8
BLACK
6
CONTINUOUS
10
1.88906
20
-4.46184
11
1.88344
21
-4.43934
0
LINE
8
BLACK
6
CONTINUOUS
10
1.88344
20
-4.43934
11
1.88344
21
-4.41122
0
LINE
8
BLACK
6
CONTINUOUS
10
1.88344
20
-4.41122
11
1.88906
21
-4.38872
0
LINE
8
BLACK
6
CONTINUOUS
10
1.88906
20
-4.38872
11
1.89468
21
-4.37747
0
LINE
8
BLACK
6
CONTINUOUS
10
1.89468
20
-4.37747
11
1.90031
21
-4.37185
0
LINE
8
BLACK
6
CONTINUOUS
10
1.90031
20
-4.37185
11
1.91156
21
-4.36623
0
LINE
8
BLACK
6
CONTINUOUS
10
2.09154
20
-4.48434
11
2.09154
21
-4.36623
0
LINE
8
BLACK
6
CONTINUOUS
10
2.14215
20
-4.48434
11
2.14215
21
-4.42247
0
LINE
8
BLACK
6
CONTINUOUS
10
2.14215
20
-4.42247
11
2.13653
21
-4.41122
0
LINE
8
BLACK
6
CONTINUOUS
10
2.13653
20
-4.41122
11
2.12528
21
-4.4056
0
LINE
8
BLACK
6
CONTINUOUS
10
2.12528
20
-4.4056
11
2.10841
21
-4.4056
0
LINE
8
BLACK
6
CONTINUOUS
10
2.10841
20
-4.4056
11
2.09716
21
-4.41122
0
LINE
8
BLACK
6
CONTINUOUS
10
2.09716
20
-4.41122
11
2.09154
21
-4.41684
0
LINE
8
BLACK
6
CONTINUOUS
10
2.21527
20
-4.48434
11
2.20402
21
-4.47871
0
LINE
8
BLACK
6
CONTINUOUS
10
2.20402
20
-4.47871
11
2.1984
21
-4.47309
0
LINE
8
BLACK
6
CONTINUOUS
10
2.1984
20
-4.47309
11
2.19277
21
-4.46184
0
LINE
8
BLACK
6
CONTINUOUS
10
2.19277
20
-4.46184
11
2.19277
21
-4.42809
0
LINE
8
BLACK
6
CONTINUOUS
10
2.19277
20
-4.42809
11
2.1984
21
-4.41684
0
LINE
8
BLACK
6
CONTINUOUS
10
2.1984
20
-4.41684
11
2.20402
21
-4.41122
0
LINE
8
BLACK
6
CONTINUOUS
10
2.20402
20
-4.41122
11
2.21527
21
-4.4056
0
LINE
8
BLACK
6
CONTINUOUS
10
2.21527
20
-4.4056
11
2.23214
21
-4.4056
0
LINE
8
BLACK
6
CONTINUOUS
10
2.23214
20
-4.4056
11
2.24339
21
-4.41122
0
LINE
8
BLACK
6
CONTINUOUS
10
2.24339
20
-4.41122
11
2.24902
21
-4.41684
0
LINE
8
BLACK
6
CONTINUOUS
10
2.24902
20
-4.41684
11
2.25464
21
-4.42809
0
LINE
8
BLACK
6
CONTINUOUS
10
2.25464
20
-4.42809
11
2.25464
21
-4.46184
0
LINE
8
BLACK
6
CONTINUOUS
10
2.25464
20
-4.46184
11
2.24902
21
-4.47309
0
LINE
8
BLACK
6
CONTINUOUS
10
2.24902
20
-4.47309
11
2.24339
21
-4.47871
0
LINE
8
BLACK
6
CONTINUOUS
10
2.24339
20
-4.47871
11
2.23214
21
-4.48434
0
LINE
8
BLACK
6
CONTINUOUS
10
2.23214
20
-4.48434
11
2.21527
21
-4.48434
0
LINE
8
BLACK
6
CONTINUOUS
10
2.32213
20
-4.48434
11
2.31088
21
-4.47871
0
LINE
8
BLACK
6
CONTINUOUS
10
2.31088
20
-4.47871
11
2.30526
21
-4.46746
0
LINE
8
BLACK
6
CONTINUOUS
10
2.30526
20
-4.46746
11
2.30526
21
-4.36623
0
LINE
8
BLACK
6
CONTINUOUS
10
2.41212
20
-4.47871
11
2.40087
21
-4.48434
0
LINE
8
BLACK
6
CONTINUOUS
10
2.40087
20
-4.48434
11
2.37837
21
-4.48434
0
LINE
8
BLACK
6
CONTINUOUS
10
2.37837
20
-4.48434
11
2.36713
21
-4.47871
0
LINE
8
BLACK
6
CONTINUOUS
10
2.36713
20
-4.47871
11
2.3615
21
-4.46746
0
LINE
8
BLACK
6
CONTINUOUS
10
2.3615
20
-4.46746
11
2.3615
21
-4.42247
0
LINE
8
BLACK
6
CONTINUOUS
10
2.3615
20
-4.42247
11
2.36713
21
-4.41122
0
LINE
8
BLACK
6
CONTINUOUS
10
2.36713
20
-4.41122
11
2.37837
21
-4.4056
0
LINE
8
BLACK
6
CONTINUOUS
10
2.37837
20
-4.4056
11
2.40087
21
-4.4056
0
LINE
8
BLACK
6
CONTINUOUS
10
2.40087
20
-4.4056
11
2.41212
21
-4.41122
0
LINE
8
BLACK
6
CONTINUOUS
10
2.41212
20
-4.41122
11
2.41774
21
-4.42247
0
LINE
8
BLACK
6
CONTINUOUS
10
2.41774
20
-4.42247
11
2.41774
21
-4.43372
0
LINE
8
BLACK
6
CONTINUOUS
10
2.41774
20
-4.43372
11
2.3615
21
-4.44497
0
LINE
8
BLACK
6
CONTINUOUS
10
2.46274
20
-4.47871
11
2.47399
21
-4.48434
0
LINE
8
BLACK
6
CONTINUOUS
10
2.47399
20
-4.48434
11
2.49648
21
-4.48434
0
LINE
8
BLACK
6
CONTINUOUS
10
2.49648
20
-4.48434
11
2.50773
21
-4.47871
0
LINE
8
BLACK
6
CONTINUOUS
10
2.50773
20
-4.47871
11
2.51336
21
-4.46746
0
LINE
8
BLACK
6
CONTINUOUS
10
2.51336
20
-4.46746
11
2.51336
21
-4.46184
0
LINE
8
BLACK
6
CONTINUOUS
10
2.51336
20
-4.46184
11
2.50773
21
-4.45059
0
LINE
8
BLACK
6
CONTINUOUS
10
2.50773
20
-4.45059
11
2.49648
21
-4.44497
0
LINE
8
BLACK
6
CONTINUOUS
10
2.49648
20
-4.44497
11
2.47961
21
-4.44497
0
LINE
8
BLACK
6
CONTINUOUS
10
2.47961
20
-4.44497
11
2.46836
21
-4.43934
0
LINE
8
BLACK
6
CONTINUOUS
10
2.46836
20
-4.43934
11
2.46274
21
-4.42809
0
LINE
8
BLACK
6
CONTINUOUS
10
2.46274
20
-4.42809
11
2.46274
21
-4.42247
0
LINE
8
BLACK
6
CONTINUOUS
10
2.46274
20
-4.42247
11
2.46836
21
-4.41122
0
LINE
8
BLACK
6
CONTINUOUS
10
2.46836
20
-4.41122
11
2.47961
21
-4.4056
0
LINE
8
BLACK
6
CONTINUOUS
10
2.47961
20
-4.4056
11
2.49648
21
-4.4056
0
LINE
8
BLACK
6
CONTINUOUS
10
2.49648
20
-4.4056
11
2.50773
21
-4.41122
0
LINE
8
BLACK
6
CONTINUOUS
10
2.65397
20
-4.43934
11
2.74395
21
-4.43934
0
LINE
8
BLACK
6
CONTINUOUS
10
2.69896
20
-4.48434
11
2.69896
21
-4.39435
0
LINE
8
BLACK
6
CONTINUOUS
10
2.88456
20
-4.37747
11
2.89019
21
-4.37185
0
LINE
8
BLACK
6
CONTINUOUS
10
2.89019
20
-4.37185
11
2.90143
21
-4.36623
0
LINE
8
BLACK
6
CONTINUOUS
10
2.90143
20
-4.36623
11
2.92956
21
-4.36623
0
LINE
8
BLACK
6
CONTINUOUS
10
2.92956
20
-4.36623
11
2.9408
21
-4.37185
0
LINE
8
BLACK
6
CONTINUOUS
10
2.9408
20
-4.37185
11
2.94643
21
-4.37747
0
LINE
8
BLACK
6
CONTINUOUS
10
2.94643
20
-4.37747
11
2.95205
21
-4.38872
0
LINE
8
BLACK
6
CONTINUOUS
10
2.95205
20
-4.38872
11
2.95205
21
-4.39997
0
LINE
8
BLACK
6
CONTINUOUS
10
2.95205
20
-4.39997
11
2.94643
21
-4.41684
0
LINE
8
BLACK
6
CONTINUOUS
10
2.94643
20
-4.41684
11
2.87894
21
-4.48434
0
LINE
8
BLACK
6
CONTINUOUS
10
2.87894
20
-4.48434
11
2.95205
21
-4.48434
0
LINE
8
BLACK
6
CONTINUOUS
10
2.99142
20
-4.36623
11
3.07016
21
-4.36623
0
LINE
8
BLACK
6
CONTINUOUS
10
3.07016
20
-4.36623
11
3.01954
21
-4.48434
0
LINE
8
BLACK
6
CONTINUOUS
10
3.19952
20
-4.47871
11
3.21077
21
-4.48434
0
LINE
8
BLACK
6
CONTINUOUS
10
3.21077
20
-4.48434
11
3.23327
21
-4.48434
0
LINE
8
BLACK
6
CONTINUOUS
10
3.23327
20
-4.48434
11
3.24452
21
-4.47871
0
LINE
8
BLACK
6
CONTINUOUS
10
3.24452
20
-4.47871
11
3.25014
21
-4.46746
0
LINE
8
BLACK
6
CONTINUOUS
10
3.25014
20
-4.46746
11
3.25014
21
-4.46184
0
LINE
8
BLACK
6
CONTINUOUS
10
3.25014
20
-4.46184
11
3.24452
21
-4.45059
0
LINE
8
BLACK
6
CONTINUOUS
10
3.24452
20
-4.45059
11
3.23327
21
-4.44497
0
LINE
8
BLACK
6
CONTINUOUS
10
3.23327
20
-4.44497
11
3.21639
21
-4.44497
0
LINE
8
BLACK
6
CONTINUOUS
10
3.21639
20
-4.44497
11
3.20515
21
-4.43934
0
LINE
8
BLACK
6
CONTINUOUS
10
3.20515
20
-4.43934
11
3.19952
21
-4.42809
0
LINE
8
BLACK
6
CONTINUOUS
10
3.19952
20
-4.42809
11
3.19952
21
-4.42247
0
LINE
8
BLACK
6
CONTINUOUS
10
3.19952
20
-4.42247
11
3.20515
21
-4.41122
0
LINE
8
BLACK
6
CONTINUOUS
10
3.20515
20
-4.41122
11
3.21639
21
-4.4056
0
LINE
8
BLACK
6
CONTINUOUS
10
3.21639
20
-4.4056
11
3.23327
21
-4.4056
0
LINE
8
BLACK
6
CONTINUOUS
10
3.23327
20
-4.4056
11
3.24452
21
-4.41122
0
LINE
8
BLACK
6
CONTINUOUS
10
3.31763
20
-4.48434
11
3.30638
21
-4.47871
0
LINE
8
BLACK
6
CONTINUOUS
10
3.30638
20
-4.47871
11
3.30076
21
-4.46746
0
LINE
8
BLACK
6
CONTINUOUS
10
3.30076
20
-4.46746
11
3.30076
21
-4.36623
0
LINE
8
BLACK
6
CONTINUOUS
10
3.3795
20
-4.48434
11
3.36825
21
-4.47871
0
LINE
8
BLACK
6
CONTINUOUS
10
3.36825
20
-4.47871
11
3.36263
21
-4.47309
0
LINE
8
BLACK
6
CONTINUOUS
10
3.36263
20
-4.47309
11
3.357
21
-4.46184
0
LINE
8
BLACK
6
CONTINUOUS
10
3.357
20
-4.46184
11
3.357
21
-4.42809
0
LINE
8
BLACK
6
CONTINUOUS
10
3.357
20
-4.42809
11
3.36263
21
-4.41684
0
LINE
8
BLACK
6
CONTINUOUS
10
3.36263
20
-4.41684
11
3.36825
21
-4.41122
0
LINE
8
BLACK
6
CONTINUOUS
10
3.36825
20
-4.41122
11
3.3795
21
-4.4056
0
LINE
8
BLACK
6
CONTINUOUS
10
3.3795
20
-4.4056
11
3.39637
21
-4.4056
0
LINE
8
BLACK
6
CONTINUOUS
10
3.39637
20
-4.4056
11
3.40762
21
-4.41122
0
LINE
8
BLACK
6
CONTINUOUS
10
3.40762
20
-4.41122
11
3.41325
21
-4.41684
0
LINE
8
BLACK
6
CONTINUOUS
10
3.41325
20
-4.41684
11
3.41887
21
-4.42809
0
LINE
8
BLACK
6
CONTINUOUS
10
3.41887
20
-4.42809
11
3.41887
21
-4.46184
0
LINE
8
BLACK
6
CONTINUOUS
10
3.41887
20
-4.46184
11
3.41325
21
-4.47309
0
LINE
8
BLACK
6
CONTINUOUS
10
3.41325
20
-4.47309
11
3.40762
21
-4.47871
0
LINE
8
BLACK
6
CONTINUOUS
10
3.40762
20
-4.47871
11
3.39637
21
-4.48434
0
LINE
8
BLACK
6
CONTINUOUS
10
3.39637
20
-4.48434
11
3.3795
21
-4.48434
0
LINE
8
BLACK
6
CONTINUOUS
10
3.45262
20
-4.4056
11
3.49761
21
-4.4056
0
LINE
8
BLACK
6
CONTINUOUS
10
3.46949
20
-4.36623
11
3.46949
21
-4.46746
0
LINE
8
BLACK
6
CONTINUOUS
10
3.46949
20
-4.46746
11
3.47511
21
-4.47871
0
LINE
8
BLACK
6
CONTINUOUS
10
3.47511
20
-4.47871
11
3.48636
21
-4.48434
0
LINE
8
BLACK
6
CONTINUOUS
10
3.48636
20
-4.48434
11
3.49761
21
-4.48434
0
LINE
8
BLACK
6
CONTINUOUS
10
3.53136
20
-4.47871
11
3.5426
21
-4.48434
0
LINE
8
BLACK
6
CONTINUOUS
10
3.5426
20
-4.48434
11
3.5651
21
-4.48434
0
LINE
8
BLACK
6
CONTINUOUS
10
3.5651
20
-4.48434
11
3.57635
21
-4.47871
0
LINE
8
BLACK
6
CONTINUOUS
10
3.57635
20
-4.47871
11
3.58197
21
-4.46746
0
LINE
8
BLACK
6
CONTINUOUS
10
3.58197
20
-4.46746
11
3.58197
21
-4.46184
0
LINE
8
BLACK
6
CONTINUOUS
10
3.58197
20
-4.46184
11
3.57635
21
-4.45059
0
LINE
8
BLACK
6
CONTINUOUS
10
3.57635
20
-4.45059
11
3.5651
21
-4.44497
0
LINE
8
BLACK
6
CONTINUOUS
10
3.5651
20
-4.44497
11
3.54823
21
-4.44497
0
LINE
8
BLACK
6
CONTINUOUS
10
3.54823
20
-4.44497
11
3.53698
21
-4.43934
0
LINE
8
BLACK
6
CONTINUOUS
10
3.53698
20
-4.43934
11
3.53136
21
-4.42809
0
LINE
8
BLACK
6
CONTINUOUS
10
3.53136
20
-4.42809
11
3.53136
21
-4.42247
0
LINE
8
BLACK
6
CONTINUOUS
10
3.53136
20
-4.42247
11
3.53698
21
-4.41122
0
LINE
8
BLACK
6
CONTINUOUS
10
3.53698
20
-4.41122
11
3.54823
21
-4.4056
0
LINE
8
BLACK
6
CONTINUOUS
10
3.54823
20
-4.4056
11
3.5651
21
-4.4056
0
LINE
8
BLACK
6
CONTINUOUS
10
3.5651
20
-4.4056
11
3.57635
21
-4.41122
0
LINE
8
BLACK
6
CONTINUOUS
10
3.62134
20
-4.52933
11
3.62697
21
-4.52371
0
LINE
8
BLACK
6
CONTINUOUS
10
3.62697
20
-4.52371
11
3.63822
21
-4.50683
0
LINE
8
BLACK
6
CONTINUOUS
10
3.63822
20
-4.50683
11
3.64384
21
-4.49558
0
LINE
8
BLACK
6
CONTINUOUS
10
3.64384
20
-4.49558
11
3.64947
21
-4.47871
0
LINE
8
BLACK
6
CONTINUOUS
10
3.64947
20
-4.47871
11
3.65509
21
-4.45059
0
LINE
8
BLACK
6
CONTINUOUS
10
3.65509
20
-4.45059
11
3.65509
21
-4.42809
0
LINE
8
BLACK
6
CONTINUOUS
10
3.65509
20
-4.42809
11
3.64947
21
-4.39997
0
LINE
8
BLACK
6
CONTINUOUS
10
3.64947
20
-4.39997
11
3.64384
21
-4.3831
0
LINE
8
BLACK
6
CONTINUOUS
10
3.64384
20
-4.3831
11
3.63822
21
-4.37185
0
LINE
8
BLACK
6
CONTINUOUS
10
3.63822
20
-4.37185
11
3.62697
21
-4.35498
0
LINE
8
BLACK
6
CONTINUOUS
10
3.62697
20
-4.35498
11
3.62134
21
-4.34935
0
LINE
8
BLACK
6
CONTINUOUS
10
-0.0078452
20
-4.60338
11
-0.0078452
21
-4.57025
0
LINE
8
BLACK
6
CONTINUOUS
10
-0.0078452
20
-4.57025
11
-0.0409738
21
-4.57025
0
LINE
8
BLACK
6
CONTINUOUS
10
-0.0409738
20
-4.57025
11
-0.0409738
21
-4.60338
0
LINE
8
BLACK
6
CONTINUOUS
10
-0.0409738
20
-4.60338
11
-0.0078452
21
-4.60338
0
LINE
8
BLACK
6
CONTINUOUS
10
0.17365
20
-4.64024
11
0.106159
21
-4.64024
0
LINE
8
BLACK
6
CONTINUOUS
10
0.139904
20
-4.64024
11
0.139904
21
-4.52213
0
LINE
8
BLACK
6
CONTINUOUS
10
0.139904
20
-4.52213
11
0.128656
21
-4.539
0
LINE
8
BLACK
6
CONTINUOUS
10
0.128656
20
-4.539
11
0.117407
21
-4.55025
0
LINE
8
BLACK
6
CONTINUOUS
10
0.117407
20
-4.55025
11
0.106159
21
-4.55588
0
LINE
8
BLACK
6
CONTINUOUS
10
0.224269
20
-4.62899
11
0.229893
21
-4.63462
0
LINE
8
BLACK
6
CONTINUOUS
10
0.229893
20
-4.63462
11
0.224269
21
-4.64024
0
LINE
8
BLACK
6
CONTINUOUS
10
0.224269
20
-4.64024
11
0.218644
21
-4.63462
0
LINE
8
BLACK
6
CONTINUOUS
10
0.218644
20
-4.63462
11
0.224269
21
-4.62899
0
LINE
8
BLACK
6
CONTINUOUS
10
0.224269
20
-4.62899
11
0.224269
21
-4.64024
0
LINE
8
BLACK
6
CONTINUOUS
10
0.342379
20
-4.64024
11
0.274887
21
-4.64024
0
LINE
8
BLACK
6
CONTINUOUS
10
0.308633
20
-4.64024
11
0.308633
21
-4.52213
0
LINE
8
BLACK
6
CONTINUOUS
10
0.308633
20
-4.52213
11
0.297385
21
-4.539
0
LINE
8
BLACK
6
CONTINUOUS
10
0.297385
20
-4.539
11
0.286136
21
-4.55025
0
LINE
8
BLACK
6
CONTINUOUS
10
0.286136
20
-4.55025
11
0.274887
21
-4.55588
0
LINE
8
BLACK
6
CONTINUOUS
10
0.398622
20
-4.64024
11
0.421119
21
-4.64024
0
LINE
8
BLACK
6
CONTINUOUS
10
0.421119
20
-4.64024
11
0.432368
21
-4.63462
0
LINE
8
BLACK
6
CONTINUOUS
10
0.432368
20
-4.63462
11
0.437992
21
-4.62899
0
LINE
8
BLACK
6
CONTINUOUS
10
0.437992
20
-4.62899
11
0.449241
21
-4.61212
0
LINE
8
BLACK
6
CONTINUOUS
10
0.449241
20
-4.61212
11
0.454865
21
-4.58962
0
LINE
8
BLACK
6
CONTINUOUS
10
0.454865
20
-4.58962
11
0.454865
21
-4.54463
0
LINE
8
BLACK
6
CONTINUOUS
10
0.454865
20
-4.54463
11
0.449241
21
-4.53338
0
LINE
8
BLACK
6
CONTINUOUS
10
0.449241
20
-4.53338
11
0.443616
21
-4.52776
0
LINE
8
BLACK
6
CONTINUOUS
10
0.443616
20
-4.52776
11
0.432368
21
-4.52213
0
LINE
8
BLACK
6
CONTINUOUS
10
0.432368
20
-4.52213
11
0.409871
21
-4.52213
0
LINE
8
BLACK
6
CONTINUOUS
10
0.409871
20
-4.52213
11
0.398622
21
-4.52776
0
LINE
8
BLACK
6
CONTINUOUS
10
0.398622
20
-4.52776
11
0.392998
21
-4.53338
0
LINE
8
BLACK
6
CONTINUOUS
10
0.392998
20
-4.53338
11
0.387373
21
-4.54463
0
LINE
8
BLACK
6
CONTINUOUS
10
0.387373
20
-4.54463
11
0.387373
21
-4.57275
0
LINE
8
BLACK
6
CONTINUOUS
10
0.387373
20
-4.57275
11
0.392998
21
-4.584
0
LINE
8
BLACK
6
CONTINUOUS
10
0.392998
20
-4.584
11
0.398622
21
-4.58962
0
LINE
8
BLACK
6
CONTINUOUS
10
0.398622
20
-4.58962
11
0.409871
21
-4.59525
0
LINE
8
BLACK
6
CONTINUOUS
10
0.409871
20
-4.59525
11
0.432368
21
-4.59525
0
LINE
8
BLACK
6
CONTINUOUS
10
0.432368
20
-4.59525
11
0.443616
21
-4.58962
0
LINE
8
BLACK
6
CONTINUOUS
10
0.443616
20
-4.58962
11
0.449241
21
-4.584
0
LINE
8
BLACK
6
CONTINUOUS
10
0.449241
20
-4.584
11
0.454865
21
-4.57275
0
LINE
8
BLACK
6
CONTINUOUS
10
0.505484
20
-4.64024
11
0.505484
21
-4.5615
0
LINE
8
BLACK
6
CONTINUOUS
10
0.505484
20
-4.57275
11
0.511108
21
-4.56713
0
LINE
8
BLACK
6
CONTINUOUS
10
0.511108
20
-4.56713
11
0.522357
21
-4.5615
0
LINE
8
BLACK
6
CONTINUOUS
10
0.522357
20
-4.5615
11
0.539229
21
-4.5615
0
LINE
8
BLACK
6
CONTINUOUS
10
0.539229
20
-4.5615
11
0.550478
21
-4.56713
0
LINE
8
BLACK
6
CONTINUOUS
10
0.550478
20
-4.56713
11
0.556102
21
-4.57837
0
LINE
8
BLACK
6
CONTINUOUS
10
0.556102
20
-4.57837
11
0.556102
21
-4.64024
0
LINE
8
BLACK
6
CONTINUOUS
10
0.556102
20
-4.57837
11
0.561727
21
-4.56713
0
LINE
8
BLACK
6
CONTINUOUS
10
0.561727
20
-4.56713
11
0.572975
21
-4.5615
0
LINE
8
BLACK
6
CONTINUOUS
10
0.572975
20
-4.5615
11
0.589848
21
-4.5615
0
LINE
8
BLACK
6
CONTINUOUS
10
0.589848
20
-4.5615
11
0.601097
21
-4.56713
0
LINE
8
BLACK
6
CONTINUOUS
10
0.601097
20
-4.56713
11
0.606721
21
-4.57837
0
LINE
8
BLACK
6
CONTINUOUS
10
0.606721
20
-4.57837
11
0.606721
21
-4.64024
0
LINE
8
BLACK
6
CONTINUOUS
10
0.662964
20
-4.64024
11
0.662964
21
-4.5615
0
LINE
8
BLACK
6
CONTINUOUS
10
0.662964
20
-4.57275
11
0.668588
21
-4.56713
0
LINE
8
BLACK
6
CONTINUOUS
10
0.668588
20
-4.56713
11
0.679837
21
-4.5615
0
LINE
8
BLACK
6
CONTINUOUS
10
0.679837
20
-4.5615
11
0.69671
21
-4.5615
0
LINE
8
BLACK
6
CONTINUOUS
10
0.69671
20
-4.5615
11
0.707958
21
-4.56713
0
LINE
8
BLACK
6
CONTINUOUS
10
0.707958
20
-4.56713
11
0.713583
21
-4.57837
0
LINE
8
BLACK
6
CONTINUOUS
10
0.713583
20
-4.57837
11
0.713583
21
-4.64024
0
LINE
8
BLACK
6
CONTINUOUS
10
0.713583
20
-4.57837
11
0.719207
21
-4.56713
0
LINE
8
BLACK
6
CONTINUOUS
10
0.719207
20
-4.56713
11
0.730456
21
-4.5615
0
LINE
8
BLACK
6
CONTINUOUS
10
0.730456
20
-4.5615
11
0.747328
21
-4.5615
0
LINE
8
BLACK
6
CONTINUOUS
10
0.747328
20
-4.5615
11
0.758577
21
-4.56713
0
LINE
8
BLACK
6
CONTINUOUS
10
0.758577
20
-4.56713
11
0.764201
21
-4.57837
0
LINE
8
BLACK
6
CONTINUOUS
10
0.764201
20
-4.57837
11
0.764201
21
-4.64024
0
LINE
8
BLACK
6
CONTINUOUS
10
0.994797
20
-4.51651
11
0.89356
21
-4.66836
0
LINE
8
BLACK
6
CONTINUOUS
10
1.14665
20
-4.52213
11
1.1579
21
-4.52213
0
LINE
8
BLACK
6
CONTINUOUS
10
1.1579
20
-4.52213
11
1.16915
21
-4.52776
0
LINE
8
BLACK
6
CONTINUOUS
10
1.16915
20
-4.52776
11
1.17477
21
-4.53338
0
LINE
8
BLACK
6
CONTINUOUS
10
1.17477
20
-4.53338
11
1.1804
21
-4.54463
0
LINE
8
BLACK
6
CONTINUOUS
10
1.1804
20
-4.54463
11
1.18602
21
-4.56713
0
LINE
8
BLACK
6
CONTINUOUS
10
1.18602
20
-4.56713
11
1.18602
21
-4.59525
0
LINE
8
BLACK
6
CONTINUOUS
10
1.18602
20
-4.59525
11
1.1804
21
-4.61774
0
LINE
8
BLACK
6
CONTINUOUS
10
1.1804
20
-4.61774
11
1.17477
21
-4.62899
0
LINE
8
BLACK
6
CONTINUOUS
10
1.17477
20
-4.62899
11
1.16915
21
-4.63462
0
LINE
8
BLACK
6
CONTINUOUS
10
1.16915
20
-4.63462
11
1.1579
21
-4.64024
0
LINE
8
BLACK
6
CONTINUOUS
10
1.1579
20
-4.64024
11
1.14665
21
-4.64024
0
LINE
8
BLACK
6
CONTINUOUS
10
1.14665
20
-4.64024
11
1.1354
21
-4.63462
0
LINE
8
BLACK
6
CONTINUOUS
10
1.1354
20
-4.63462
11
1.12978
21
-4.62899
0
LINE
8
BLACK
6
CONTINUOUS
10
1.12978
20
-4.62899
11
1.12416
21
-4.61774
0
LINE
8
BLACK
6
CONTINUOUS
10
1.12416
20
-4.61774
11
1.11853
21
-4.59525
0
LINE
8
BLACK
6
CONTINUOUS
10
1.11853
20
-4.59525
11
1.11853
21
-4.56713
0
LINE
8
BLACK
6
CONTINUOUS
10
1.11853
20
-4.56713
11
1.12416
21
-4.54463
0
LINE
8
BLACK
6
CONTINUOUS
10
1.12416
20
-4.54463
11
1.12978
21
-4.53338
0
LINE
8
BLACK
6
CONTINUOUS
10
1.12978
20
-4.53338
11
1.1354
21
-4.52776
0
LINE
8
BLACK
6
CONTINUOUS
10
1.1354
20
-4.52776
11
1.14665
21
-4.52213
0
LINE
8
BLACK
6
CONTINUOUS
10
1.23664
20
-4.62899
11
1.24227
21
-4.63462
0
LINE
8
BLACK
6
CONTINUOUS
10
1.24227
20
-4.63462
11
1.23664
21
-4.64024
0
LINE
8
BLACK
6
CONTINUOUS
10
1.23664
20
-4.64024
11
1.23102
21
-4.63462
0
LINE
8
BLACK
6
CONTINUOUS
10
1.23102
20
-4.63462
11
1.23664
21
-4.62899
0
LINE
8
BLACK
6
CONTINUOUS
10
1.23664
20
-4.62899
11
1.23664
21
-4.64024
0
LINE
8
BLACK
6
CONTINUOUS
10
1.31538
20
-4.52213
11
1.32663
21
-4.52213
0
LINE
8
BLACK
6
CONTINUOUS
10
1.32663
20
-4.52213
11
1.33788
21
-4.52776
0
LINE
8
BLACK
6
CONTINUOUS
10
1.33788
20
-4.52776
11
1.3435
21
-4.53338
0
LINE
8
BLACK
6
CONTINUOUS
10
1.3435
20
-4.53338
11
1.34913
21
-4.54463
0
LINE
8
BLACK
6
CONTINUOUS
10
1.34913
20
-4.54463
11
1.35475
21
-4.56713
0
LINE
8
BLACK
6
CONTINUOUS
10
1.35475
20
-4.56713
11
1.35475
21
-4.59525
0
LINE
8
BLACK
6
CONTINUOUS
10
1.35475
20
-4.59525
11
1.34913
21
-4.61774
0
LINE
8
BLACK
6
CONTINUOUS
10
1.34913
20
-4.61774
11
1.3435
21
-4.62899
0
LINE
8
BLACK
6
CONTINUOUS
10
1.3435
20
-4.62899
11
1.33788
21
-4.63462
0
LINE
8
BLACK
6
CONTINUOUS
10
1.33788
20
-4.63462
11
1.32663
21
-4.64024
0
LINE
8
BLACK
6
CONTINUOUS
10
1.32663
20
-4.64024
11
1.31538
21
-4.64024
0
LINE
8
BLACK
6
CONTINUOUS
10
1.31538
20
-4.64024
11
1.30413
21
-4.63462
0
LINE
8
BLACK
6
CONTINUOUS
10
1.30413
20
-4.63462
11
1.29851
21
-4.62899
0
LINE
8
BLACK
6
CONTINUOUS
10
1.29851
20
-4.62899
11
1.29289
21
-4.61774
0
LINE
8
BLACK
6
CONTINUOUS
10
1.29289
20
-4.61774
11
1.28726
21
-4.59525
0
LINE
8
BLACK
6
CONTINUOUS
10
1.28726
20
-4.59525
11
1.28726
21
-4.56713
0
LINE
8
BLACK
6
CONTINUOUS
10
1.28726
20
-4.56713
11
1.29289
21
-4.54463
0
LINE
8
BLACK
6
CONTINUOUS
10
1.29289
20
-4.54463
11
1.29851
21
-4.53338
0
LINE
8
BLACK
6
CONTINUOUS
10
1.29851
20
-4.53338
11
1.30413
21
-4.52776
0
LINE
8
BLACK
6
CONTINUOUS
10
1.30413
20
-4.52776
11
1.31538
21
-4.52213
0
LINE
8
BLACK
6
CONTINUOUS
10
1.45599
20
-4.5615
11
1.45599
21
-4.64024
0
LINE
8
BLACK
6
CONTINUOUS
10
1.42787
20
-4.51651
11
1.39975
21
-4.60087
0
LINE
8
BLACK
6
CONTINUOUS
10
1.39975
20
-4.60087
11
1.47286
21
-4.60087
0
LINE
8
BLACK
6
CONTINUOUS
10
1.50661
20
-4.52213
11
1.58535
21
-4.52213
0
LINE
8
BLACK
6
CONTINUOUS
10
1.58535
20
-4.52213
11
1.53473
21
-4.64024
0
LINE
8
BLACK
6
CONTINUOUS
10
1.62472
20
-4.52213
11
1.62472
21
-4.54463
0
LINE
8
BLACK
6
CONTINUOUS
10
1.66971
20
-4.52213
11
1.66971
21
-4.54463
0
LINE
8
BLACK
6
CONTINUOUS
10
1.84407
20
-4.68524
11
1.83844
21
-4.67961
0
LINE
8
BLACK
6
CONTINUOUS
10
1.83844
20
-4.67961
11
1.82719
21
-4.66274
0
LINE
8
BLACK
6
CONTINUOUS
10
1.82719
20
-4.66274
11
1.82157
21
-4.65149
0
LINE
8
BLACK
6
CONTINUOUS
10
1.82157
20
-4.65149
11
1.81594
21
-4.63462
0
LINE
8
BLACK
6
CONTINUOUS
10
1.81594
20
-4.63462
11
1.81032
21
-4.6065
0
LINE
8
BLACK
6
CONTINUOUS
10
1.81032
20
-4.6065
11
1.81032
21
-4.584
0
LINE
8
BLACK
6
CONTINUOUS
10
1.81032
20
-4.584
11
1.81594
21
-4.55588
0
LINE
8
BLACK
6
CONTINUOUS
10
1.81594
20
-4.55588
11
1.82157
21
-4.539
0
LINE
8
BLACK
6
CONTINUOUS
10
1.82157
20
-4.539
11
1.82719
21
-4.52776
0
LINE
8
BLACK
6
CONTINUOUS
10
1.82719
20
-4.52776
11
1.83844
21
-4.51088
0
LINE
8
BLACK
6
CONTINUOUS
10
1.83844
20
-4.51088
11
1.84407
21
-4.50526
0
LINE
8
BLACK
6
CONTINUOUS
10
1.88344
20
-4.53338
11
1.88906
21
-4.52776
0
LINE
8
BLACK
6
CONTINUOUS
10
1.88906
20
-4.52776
11
1.90031
21
-4.52213
0
LINE
8
BLACK
6
CONTINUOUS
10
1.90031
20
-4.52213
11
1.92843
21
-4.52213
0
LINE
8
BLACK
6
CONTINUOUS
10
1.92843
20
-4.52213
11
1.93968
21
-4.52776
0
LINE
8
BLACK
6
CONTINUOUS
10
1.93968
20
-4.52776
11
1.9453
21
-4.53338
0
LINE
8
BLACK
6
CONTINUOUS
10
1.9453
20
-4.53338
11
1.95093
21
-4.54463
0
LINE
8
BLACK
6
CONTINUOUS
10
1.95093
20
-4.54463
11
1.95093
21
-4.55588
0
LINE
8
BLACK
6
CONTINUOUS
10
1.95093
20
-4.55588
11
1.9453
21
-4.57275
0
LINE
8
BLACK
6
CONTINUOUS
10
1.9453
20
-4.57275
11
1.87781
21
-4.64024
0
LINE
8
BLACK
6
CONTINUOUS
10
1.87781
20
-4.64024
11
1.95093
21
-4.64024
0
LINE
8
BLACK
6
CONTINUOUS
10
2.05217
20
-4.52213
11
2.02967
21
-4.52213
0
LINE
8
BLACK
6
CONTINUOUS
10
2.02967
20
-4.52213
11
2.01842
21
-4.52776
0
LINE
8
BLACK
6
CONTINUOUS
10
2.01842
20
-4.52776
11
2.0128
21
-4.53338
0
LINE
8
BLACK
6
CONTINUOUS
10
2.0128
20
-4.53338
11
2.00155
21
-4.55025
0
LINE
8
BLACK
6
CONTINUOUS
10
2.00155
20
-4.55025
11
1.99592
21
-4.57275
0
LINE
8
BLACK
6
CONTINUOUS
10
1.99592
20
-4.57275
11
1.99592
21
-4.61774
0
LINE
8
BLACK
6
CONTINUOUS
10
1.99592
20
-4.61774
11
2.00155
21
-4.62899
0
LINE
8
BLACK
6
CONTINUOUS
10
2.00155
20
-4.62899
11
2.00717
21
-4.63462
0
LINE
8
BLACK
6
CONTINUOUS
10
2.00717
20
-4.63462
11
2.01842
21
-4.64024
0
LINE
8
BLACK
6
CONTINUOUS
10
2.01842
20
-4.64024
11
2.04092
21
-4.64024
0
LINE
8
BLACK
6
CONTINUOUS
10
2.04092
20
-4.64024
11
2.05217
21
-4.63462
0
LINE
8
BLACK
6
CONTINUOUS
10
2.05217
20
-4.63462
11
2.05779
21
-4.62899
0
LINE
8
BLACK
6
CONTINUOUS
10
2.05779
20
-4.62899
11
2.06341
21
-4.61774
0
LINE
8
BLACK
6
CONTINUOUS
10
2.06341
20
-4.61774
11
2.06341
21
-4.58962
0
LINE
8
BLACK
6
CONTINUOUS
10
2.06341
20
-4.58962
11
2.05779
21
-4.57837
0
LINE
8
BLACK
6
CONTINUOUS
10
2.05779
20
-4.57837
11
2.05217
21
-4.57275
0
LINE
8
BLACK
6
CONTINUOUS
10
2.05217
20
-4.57275
11
2.04092
21
-4.56713
0
LINE
8
BLACK
6
CONTINUOUS
10
2.04092
20
-4.56713
11
2.01842
21
-4.56713
0
LINE
8
BLACK
6
CONTINUOUS
10
2.01842
20
-4.56713
11
2.00717
21
-4.57275
0
LINE
8
BLACK
6
CONTINUOUS
10
2.00717
20
-4.57275
11
2.00155
21
-4.57837
0
LINE
8
BLACK
6
CONTINUOUS
10
2.00155
20
-4.57837
11
1.99592
21
-4.58962
0
LINE
8
BLACK
6
CONTINUOUS
10
2.20402
20
-4.64024
11
2.20402
21
-4.52213
0
LINE
8
BLACK
6
CONTINUOUS
10
2.25464
20
-4.64024
11
2.25464
21
-4.57837
0
LINE
8
BLACK
6
CONTINUOUS
10
2.25464
20
-4.57837
11
2.24902
21
-4.56713
0
LINE
8
BLACK
6
CONTINUOUS
10
2.24902
20
-4.56713
11
2.23777
21
-4.5615
0
LINE
8
BLACK
6
CONTINUOUS
10
2.23777
20
-4.5615
11
2.22089
21
-4.5615
0
LINE
8
BLACK
6
CONTINUOUS
10
2.22089
20
-4.5615
11
2.20965
21
-4.56713
0
LINE
8
BLACK
6
CONTINUOUS
10
2.20965
20
-4.56713
11
2.20402
21
-4.57275
0
LINE
8
BLACK
6
CONTINUOUS
10
2.32776
20
-4.64024
11
2.31651
21
-4.63462
0
LINE
8
BLACK
6
CONTINUOUS
10
2.31651
20
-4.63462
11
2.31088
21
-4.62899
0
LINE
8
BLACK
6
CONTINUOUS
10
2.31088
20
-4.62899
11
2.30526
21
-4.61774
0
LINE
8
BLACK
6
CONTINUOUS
10
2.30526
20
-4.61774
11
2.30526
21
-4.584
0
LINE
8
BLACK
6
CONTINUOUS
10
2.30526
20
-4.584
11
2.31088
21
-4.57275
0
LINE
8
BLACK
6
CONTINUOUS
10
2.31088
20
-4.57275
11
2.31651
21
-4.56713
0
LINE
8
BLACK
6
CONTINUOUS
10
2.31651
20
-4.56713
11
2.32776
21
-4.5615
0
LINE
8
BLACK
6
CONTINUOUS
10
2.32776
20
-4.5615
11
2.34463
21
-4.5615
0
LINE
8
BLACK
6
CONTINUOUS
10
2.34463
20
-4.5615
11
2.35588
21
-4.56713
0
LINE
8
BLACK
6
CONTINUOUS
10
2.35588
20
-4.56713
11
2.3615
21
-4.57275
0
LINE
8
BLACK
6
CONTINUOUS
10
2.3615
20
-4.57275
11
2.36713
21
-4.584
0
LINE
8
BLACK
6
CONTINUOUS
10
2.36713
20
-4.584
11
2.36713
21
-4.61774
0
LINE
8
BLACK
6
CONTINUOUS
10
2.36713
20
-4.61774
11
2.3615
21
-4.62899
0
LINE
8
BLACK
6
CONTINUOUS
10
2.3615
20
-4.62899
11
2.35588
21
-4.63462
0
LINE
8
BLACK
6
CONTINUOUS
10
2.35588
20
-4.63462
11
2.34463
21
-4.64024
0
LINE
8
BLACK
6
CONTINUOUS
10
2.34463
20
-4.64024
11
2.32776
21
-4.64024
0
LINE
8
BLACK
6
CONTINUOUS
10
2.43462
20
-4.64024
11
2.42337
21
-4.63462
0
LINE
8
BLACK
6
CONTINUOUS
10
2.42337
20
-4.63462
11
2.41774
21
-4.62337
0
LINE
8
BLACK
6
CONTINUOUS
10
2.41774
20
-4.62337
11
2.41774
21
-4.52213
0
LINE
8
BLACK
6
CONTINUOUS
10
2.52461
20
-4.63462
11
2.51336
21
-4.64024
0
LINE
8
BLACK
6
CONTINUOUS
10
2.51336
20
-4.64024
11
2.49086
21
-4.64024
0
LINE
8
BLACK
6
CONTINUOUS
10
2.49086
20
-4.64024
11
2.47961
21
-4.63462
0
LINE
8
BLACK
6
CONTINUOUS
10
2.47961
20
-4.63462
11
2.47399
21
-4.62337
0
LINE
8
BLACK
6
CONTINUOUS
10
2.47399
20
-4.62337
11
2.47399
21
-4.57837
0
LINE
8
BLACK
6
CONTINUOUS
10
2.47399
20
-4.57837
11
2.47961
21
-4.56713
0
LINE
8
BLACK
6
CONTINUOUS
10
2.47961
20
-4.56713
11
2.49086
21
-4.5615
0
LINE
8
BLACK
6
CONTINUOUS
10
2.49086
20
-4.5615
11
2.51336
21
-4.5615
0
LINE
8
BLACK
6
CONTINUOUS
10
2.51336
20
-4.5615
11
2.52461
21
-4.56713
0
LINE
8
BLACK
6
CONTINUOUS
10
2.52461
20
-4.56713
11
2.53023
21
-4.57837
0
LINE
8
BLACK
6
CONTINUOUS
10
2.53023
20
-4.57837
11
2.53023
21
-4.58962
0
LINE
8
BLACK
6
CONTINUOUS
10
2.53023
20
-4.58962
11
2.47399
21
-4.60087
0
LINE
8
BLACK
6
CONTINUOUS
10
2.57522
20
-4.63462
11
2.58647
21
-4.64024
0
LINE
8
BLACK
6
CONTINUOUS
10
2.58647
20
-4.64024
11
2.60897
21
-4.64024
0
LINE
8
BLACK
6
CONTINUOUS
10
2.60897
20
-4.64024
11
2.62022
21
-4.63462
0
LINE
8
BLACK
6
CONTINUOUS
10
2.62022
20
-4.63462
11
2.62584
21
-4.62337
0
LINE
8
BLACK
6
CONTINUOUS
10
2.62584
20
-4.62337
11
2.62584
21
-4.61774
0
LINE
8
BLACK
6
CONTINUOUS
10
2.62584
20
-4.61774
11
2.62022
21
-4.6065
0
LINE
8
BLACK
6
CONTINUOUS
10
2.62022
20
-4.6065
11
2.60897
21
-4.60087
0
LINE
8
BLACK
6
CONTINUOUS
10
2.60897
20
-4.60087
11
2.5921
21
-4.60087
0
LINE
8
BLACK
6
CONTINUOUS
10
2.5921
20
-4.60087
11
2.58085
21
-4.59525
0
LINE
8
BLACK
6
CONTINUOUS
10
2.58085
20
-4.59525
11
2.57522
21
-4.584
0
LINE
8
BLACK
6
CONTINUOUS
10
2.57522
20
-4.584
11
2.57522
21
-4.57837
0
LINE
8
BLACK
6
CONTINUOUS
10
2.57522
20
-4.57837
11
2.58085
21
-4.56713
0
LINE
8
BLACK
6
CONTINUOUS
10
2.58085
20
-4.56713
11
2.5921
21
-4.5615
0
LINE
8
BLACK
6
CONTINUOUS
10
2.5921
20
-4.5615
11
2.60897
21
-4.5615
0
LINE
8
BLACK
6
CONTINUOUS
10
2.60897
20
-4.5615
11
2.62022
21
-4.56713
0
LINE
8
BLACK
6
CONTINUOUS
10
2.66521
20
-4.68524
11
2.67084
21
-4.67961
0
LINE
8
BLACK
6
CONTINUOUS
10
2.67084
20
-4.67961
11
2.68209
21
-4.66274
0
LINE
8
BLACK
6
CONTINUOUS
10
2.68209
20
-4.66274
11
2.68771
21
-4.65149
0
LINE
8
BLACK
6
CONTINUOUS
10
2.68771
20
-4.65149
11
2.69334
21
-4.63462
0
LINE
8
BLACK
6
CONTINUOUS
10
2.69334
20
-4.63462
11
2.69896
21
-4.6065
0
LINE
8
BLACK
6
CONTINUOUS
10
2.69896
20
-4.6065
11
2.69896
21
-4.584
0
LINE
8
BLACK
6
CONTINUOUS
10
2.69896
20
-4.584
11
2.69334
21
-4.55588
0
LINE
8
BLACK
6
CONTINUOUS
10
2.69334
20
-4.55588
11
2.68771
21
-4.539
0
LINE
8
BLACK
6
CONTINUOUS
10
2.68771
20
-4.539
11
2.68209
21
-4.52776
0
LINE
8
BLACK
6
CONTINUOUS
10
2.68209
20
-4.52776
11
2.67084
21
-4.51088
0
LINE
8
BLACK
6
CONTINUOUS
10
2.67084
20
-4.51088
11
2.66521
21
-4.50526
0
LINE
8
BLACK
6
CONTINUOUS
10
-0.0246063
20
-4.76634
11
-0.000984291
21
-4.74272
0
LINE
8
BLACK
6
CONTINUOUS
10
-0.000984291
20
-4.74272
11
-0.0246063
21
-4.71909
0
LINE
8
BLACK
6
CONTINUOUS
10
-0.0246063
20
-4.71909
11
-0.0482284
21
-4.74272
0
LINE
8
BLACK
6
CONTINUOUS
10
-0.0482284
20
-4.74272
11
-0.0246063
21
-4.76634
0
LINE
8
BLACK
6
CONTINUOUS
10
0.17365
20
-4.79615
11
0.106159
21
-4.79615
0
LINE
8
BLACK
6
CONTINUOUS
10
0.139904
20
-4.79615
11
0.139904
21
-4.67804
0
LINE
8
BLACK
6
CONTINUOUS
10
0.139904
20
-4.67804
11
0.128656
21
-4.69491
0
LINE
8
BLACK
6
CONTINUOUS
10
0.128656
20
-4.69491
11
0.117407
21
-4.70616
0
LINE
8
BLACK
6
CONTINUOUS
10
0.117407
20
-4.70616
11
0.106159
21
-4.71178
0
LINE
8
BLACK
6
CONTINUOUS
10
0.224269
20
-4.7849
11
0.229893
21
-4.79052
0
LINE
8
BLACK
6
CONTINUOUS
10
0.229893
20
-4.79052
11
0.224269
21
-4.79615
0
LINE
8
BLACK
6
CONTINUOUS
10
0.224269
20
-4.79615
11
0.218644
21
-4.79052
0
LINE
8
BLACK
6
CONTINUOUS
10
0.218644
20
-4.79052
11
0.224269
21
-4.7849
0
LINE
8
BLACK
6
CONTINUOUS
10
0.224269
20
-4.7849
11
0.224269
21
-4.79615
0
LINE
8
BLACK
6
CONTINUOUS
10
0.274887
20
-4.68929
11
0.280512
21
-4.68366
0
LINE
8
BLACK
6
CONTINUOUS
10
0.280512
20
-4.68366
11
0.29176
21
-4.67804
0
LINE
8
BLACK
6
CONTINUOUS
10
0.29176
20
-4.67804
11
0.319882
21
-4.67804
0
LINE
8
BLACK
6
CONTINUOUS
10
0.319882
20
-4.67804
11
0.33113
21
-4.68366
0
LINE
8
BLACK
6
CONTINUOUS
10
0.33113
20
-4.68366
11
0.336755
21
-4.68929
0
LINE
8
BLACK
6
CONTINUOUS
10
0.336755
20
-4.68929
11
0.342379
21
-4.70053
0
LINE
8
BLACK
6
CONTINUOUS
10
0.342379
20
-4.70053
11
0.342379
21
-4.71178
0
LINE
8
BLACK
6
CONTINUOUS
10
0.342379
20
-4.71178
11
0.336755
21
-4.72866
0
LINE
8
BLACK
6
CONTINUOUS
10
0.336755
20
-4.72866
11
0.269263
21
-4.79615
0
LINE
8
BLACK
6
CONTINUOUS
10
0.269263
20
-4.79615
11
0.342379
21
-4.79615
0
LINE
8
BLACK
6
CONTINUOUS
10
0.415495
20
-4.67804
11
0.426743
21
-4.67804
0
LINE
8
BLACK
6
CONTINUOUS
10
0.426743
20
-4.67804
11
0.437992
21
-4.68366
0
LINE
8
BLACK
6
CONTINUOUS
10
0.437992
20
-4.68366
11
0.443616
21
-4.68929
0
LINE
8
BLACK
6
CONTINUOUS
10
0.443616
20
-4.68929
11
0.449241
21
-4.70053
0
LINE
8
BLACK
6
CONTINUOUS
10
0.449241
20
-4.70053
11
0.454865
21
-4.72303
0
LINE
8
BLACK
6
CONTINUOUS
10
0.454865
20
-4.72303
11
0.454865
21
-4.75115
0
LINE
8
BLACK
6
CONTINUOUS
10
0.454865
20
-4.75115
11
0.449241
21
-4.77365
0
LINE
8
BLACK
6
CONTINUOUS
10
0.449241
20
-4.77365
11
0.443616
21
-4.7849
0
LINE
8
BLACK
6
CONTINUOUS
10
0.443616
20
-4.7849
11
0.437992
21
-4.79052
0
LINE
8
BLACK
6
CONTINUOUS
10
0.437992
20
-4.79052
11
0.426743
21
-4.79615
0
LINE
8
BLACK
6
CONTINUOUS
10
0.426743
20
-4.79615
11
0.415495
21
-4.79615
0
LINE
8
BLACK
6
CONTINUOUS
10
0.415495
20
-4.79615
11
0.404246
21
-4.79052
0
LINE
8
BLACK
6
CONTINUOUS
10
0.404246
20
-4.79052
11
0.398622
21
-4.7849
0
LINE
8
BLACK
6
CONTINUOUS
10
0.398622
20
-4.7849
11
0.392998
21
-4.77365
0
LINE
8
BLACK
6
CONTINUOUS
10
0.392998
20
-4.77365
11
0.387373
21
-4.75115
0
LINE
8
BLACK
6
CONTINUOUS
10
0.387373
20
-4.75115
11
0.387373
21
-4.72303
0
LINE
8
BLACK
6
CONTINUOUS
10
0.387373
20
-4.72303
11
0.392998
21
-4.70053
0
LINE
8
BLACK
6
CONTINUOUS
10
0.392998
20
-4.70053
11
0.398622
21
-4.68929
0
LINE
8
BLACK
6
CONTINUOUS
10
0.398622
20
-4.68929
11
0.404246
21
-4.68366
0
LINE
8
BLACK
6
CONTINUOUS
10
0.404246
20
-4.68366
11
0.415495
21
-4.67804
0
LINE
8
BLACK
6
CONTINUOUS
10
0.505484
20
-4.79615
11
0.505484
21
-4.71741
0
LINE
8
BLACK
6
CONTINUOUS
10
0.505484
20
-4.72866
11
0.511108
21
-4.72303
0
LINE
8
BLACK
6
CONTINUOUS
10
0.511108
20
-4.72303
11
0.522357
21
-4.71741
0
LINE
8
BLACK
6
CONTINUOUS
10
0.522357
20
-4.71741
11
0.539229
21
-4.71741
0
LINE
8
BLACK
6
CONTINUOUS
10
0.539229
20
-4.71741
11
0.550478
21
-4.72303
0
LINE
8
BLACK
6
CONTINUOUS
10
0.550478
20
-4.72303
11
0.556102
21
-4.73428
0
LINE
8
BLACK
6
CONTINUOUS
10
0.556102
20
-4.73428
11
0.556102
21
-4.79615
0
LINE
8
BLACK
6
CONTINUOUS
10
0.556102
20
-4.73428
11
0.561727
21
-4.72303
0
LINE
8
BLACK
6
CONTINUOUS
10
0.561727
20
-4.72303
11
0.572975
21
-4.71741
0
LINE
8
BLACK
6
CONTINUOUS
10
0.572975
20
-4.71741
11
0.589848
21
-4.71741
0
LINE
8
BLACK
6
CONTINUOUS
10
0.589848
20
-4.71741
11
0.601097
21
-4.72303
0
LINE
8
BLACK
6
CONTINUOUS
10
0.601097
20
-4.72303
11
0.606721
21
-4.73428
0
LINE
8
BLACK
6
CONTINUOUS
10
0.606721
20
-4.73428
11
0.606721
21
-4.79615
0
LINE
8
BLACK
6
CONTINUOUS
10
0.662964
20
-4.79615
11
0.662964
21
-4.71741
0
LINE
8
BLACK
6
CONTINUOUS
10
0.662964
20
-4.72866
11
0.668588
21
-4.72303
0
LINE
8
BLACK
6
CONTINUOUS
10
0.668588
20
-4.72303
11
0.679837
21
-4.71741
0
LINE
8
BLACK
6
CONTINUOUS
10
0.679837
20
-4.71741
11
0.69671
21
-4.71741
0
LINE
8
BLACK
6
CONTINUOUS
10
0.69671
20
-4.71741
11
0.707958
21
-4.72303
0
LINE
8
BLACK
6
CONTINUOUS
10
0.707958
20
-4.72303
11
0.713583
21
-4.73428
0
LINE
8
BLACK
6
CONTINUOUS
10
0.713583
20
-4.73428
11
0.713583
21
-4.79615
0
LINE
8
BLACK
6
CONTINUOUS
10
0.713583
20
-4.73428
11
0.719207
21
-4.72303
0
LINE
8
BLACK
6
CONTINUOUS
10
0.719207
20
-4.72303
11
0.730456
21
-4.71741
0
LINE
8
BLACK
6
CONTINUOUS
10
0.730456
20
-4.71741
11
0.747328
21
-4.71741
0
LINE
8
BLACK
6
CONTINUOUS
10
0.747328
20
-4.71741
11
0.758577
21
-4.72303
0
LINE
8
BLACK
6
CONTINUOUS
10
0.758577
20
-4.72303
11
0.764201
21
-4.73428
0
LINE
8
BLACK
6
CONTINUOUS
10
0.764201
20
-4.73428
11
0.764201
21
-4.79615
0
LINE
8
BLACK
6
CONTINUOUS
10
0.994797
20
-4.67241
11
0.89356
21
-4.82427
0
LINE
8
BLACK
6
CONTINUOUS
10
1.14665
20
-4.67804
11
1.1579
21
-4.67804
0
LINE
8
BLACK
6
CONTINUOUS
10
1.1579
20
-4.67804
11
1.16915
21
-4.68366
0
LINE
8
BLACK
6
CONTINUOUS
10
1.16915
20
-4.68366
11
1.17477
21
-4.68929
0
LINE
8
BLACK
6
CONTINUOUS
10
1.17477
20
-4.68929
11
1.1804
21
-4.70053
0
LINE
8
BLACK
6
CONTINUOUS
10
1.1804
20
-4.70053
11
1.18602
21
-4.72303
0
LINE
8
BLACK
6
CONTINUOUS
10
1.18602
20
-4.72303
11
1.18602
21
-4.75115
0
LINE
8
BLACK
6
CONTINUOUS
10
1.18602
20
-4.75115
11
1.1804
21
-4.77365
0
LINE
8
BLACK
6
CONTINUOUS
10
1.1804
20
-4.77365
11
1.17477
21
-4.7849
0
LINE
8
BLACK
6
CONTINUOUS
10
1.17477
20
-4.7849
11
1.16915
21
-4.79052
0
LINE
8
BLACK
6
CONTINUOUS
10
1.16915
20
-4.79052
11
1.1579
21
-4.79615
0
LINE
8
BLACK
6
CONTINUOUS
10
1.1579
20
-4.79615
11
1.14665
21
-4.79615
0
LINE
8
BLACK
6
CONTINUOUS
10
1.14665
20
-4.79615
11
1.1354
21
-4.79052
0
LINE
8
BLACK
6
CONTINUOUS
10
1.1354
20
-4.79052
11
1.12978
21
-4.7849
0
LINE
8
BLACK
6
CONTINUOUS
10
1.12978
20
-4.7849
11
1.12416
21
-4.77365
0
LINE
8
BLACK
6
CONTINUOUS
10
1.12416
20
-4.77365
11
1.11853
21
-4.75115
0
LINE
8
BLACK
6
CONTINUOUS
10
1.11853
20
-4.75115
11
1.11853
21
-4.72303
0
LINE
8
BLACK
6
CONTINUOUS
10
1.11853
20
-4.72303
11
1.12416
21
-4.70053
0
LINE
8
BLACK
6
CONTINUOUS
10
1.12416
20
-4.70053
11
1.12978
21
-4.68929
0
LINE
8
BLACK
6
CONTINUOUS
10
1.12978
20
-4.68929
11
1.1354
21
-4.68366
0
LINE
8
BLACK
6
CONTINUOUS
10
1.1354
20
-4.68366
11
1.14665
21
-4.67804
0
LINE
8
BLACK
6
CONTINUOUS
10
1.23664
20
-4.7849
11
1.24227
21
-4.79052
0
LINE
8
BLACK
6
CONTINUOUS
10
1.24227
20
-4.79052
11
1.23664
21
-4.79615
0
LINE
8
BLACK
6
CONTINUOUS
10
1.23664
20
-4.79615
11
1.23102
21
-4.79052
0
LINE
8
BLACK
6
CONTINUOUS
10
1.23102
20
-4.79052
11
1.23664
21
-4.7849
0
LINE
8
BLACK
6
CONTINUOUS
10
1.23664
20
-4.7849
11
1.23664
21
-4.79615
0
LINE
8
BLACK
6
CONTINUOUS
10
1.31538
20
-4.67804
11
1.32663
21
-4.67804
0
LINE
8
BLACK
6
CONTINUOUS
10
1.32663
20
-4.67804
11
1.33788
21
-4.68366
0
LINE
8
BLACK
6
CONTINUOUS
10
1.33788
20
-4.68366
11
1.3435
21
-4.68929
0
LINE
8
BLACK
6
CONTINUOUS
10
1.3435
20
-4.68929
11
1.34913
21
-4.70053
0
LINE
8
BLACK
6
CONTINUOUS
10
1.34913
20
-4.70053
11
1.35475
21
-4.72303
0
LINE
8
BLACK
6
CONTINUOUS
10
1.35475
20
-4.72303
11
1.35475
21
-4.75115
0
LINE
8
BLACK
6
CONTINUOUS
10
1.35475
20
-4.75115
11
1.34913
21
-4.77365
0
LINE
8
BLACK
6
CONTINUOUS
10
1.34913
20
-4.77365
11
1.3435
21
-4.7849
0
LINE
8
BLACK
6
CONTINUOUS
10
1.3435
20
-4.7849
11
1.33788
21
-4.79052
0
LINE
8
BLACK
6
CONTINUOUS
10
1.33788
20
-4.79052
11
1.32663
21
-4.79615
0
LINE
8
BLACK
6
CONTINUOUS
10
1.32663
20
-4.79615
11
1.31538
21
-4.79615
0
LINE
8
BLACK
6
CONTINUOUS
10
1.31538
20
-4.79615
11
1.30413
21
-4.79052
0
LINE
8
BLACK
6
CONTINUOUS
10
1.30413
20
-4.79052
11
1.29851
21
-4.7849
0
LINE
8
BLACK
6
CONTINUOUS
10
1.29851
20
-4.7849
11
1.29289
21
-4.77365
0
LINE
8
BLACK
6
CONTINUOUS
10
1.29289
20
-4.77365
11
1.28726
21
-4.75115
0
LINE
8
BLACK
6
CONTINUOUS
10
1.28726
20
-4.75115
11
1.28726
21
-4.72303
0
LINE
8
BLACK
6
CONTINUOUS
10
1.28726
20
-4.72303
11
1.29289
21
-4.70053
0
LINE
8
BLACK
6
CONTINUOUS
10
1.29289
20
-4.70053
11
1.29851
21
-4.68929
0
LINE
8
BLACK
6
CONTINUOUS
10
1.29851
20
-4.68929
11
1.30413
21
-4.68366
0
LINE
8
BLACK
6
CONTINUOUS
10
1.30413
20
-4.68366
11
1.31538
21
-4.67804
0
LINE
8
BLACK
6
CONTINUOUS
10
1.45599
20
-4.71741
11
1.45599
21
-4.79615
0
LINE
8
BLACK
6
CONTINUOUS
10
1.42787
20
-4.67241
11
1.39975
21
-4.75678
0
LINE
8
BLACK
6
CONTINUOUS
10
1.39975
20
-4.75678
11
1.47286
21
-4.75678
0
LINE
8
BLACK
6
CONTINUOUS
10
1.50661
20
-4.67804
11
1.58535
21
-4.67804
0
LINE
8
BLACK
6
CONTINUOUS
10
1.58535
20
-4.67804
11
1.53473
21
-4.79615
0
LINE
8
BLACK
6
CONTINUOUS
10
1.62472
20
-4.67804
11
1.62472
21
-4.70053
0
LINE
8
BLACK
6
CONTINUOUS
10
1.66971
20
-4.67804
11
1.66971
21
-4.70053
0
LINE
8
BLACK
6
CONTINUOUS
10
1.84407
20
-4.84114
11
1.83844
21
-4.83552
0
LINE
8
BLACK
6
CONTINUOUS
10
1.83844
20
-4.83552
11
1.82719
21
-4.81864
0
LINE
8
BLACK
6
CONTINUOUS
10
1.82719
20
-4.81864
11
1.82157
21
-4.8074
0
LINE
8
BLACK
6
CONTINUOUS
10
1.82157
20
-4.8074
11
1.81594
21
-4.79052
0
LINE
8
BLACK
6
CONTINUOUS
10
1.81594
20
-4.79052
11
1.81032
21
-4.7624
0
LINE
8
BLACK
6
CONTINUOUS
10
1.81032
20
-4.7624
11
1.81032
21
-4.7399
0
LINE
8
BLACK
6
CONTINUOUS
10
1.81032
20
-4.7399
11
1.81594
21
-4.71178
0
LINE
8
BLACK
6
CONTINUOUS
10
1.81594
20
-4.71178
11
1.82157
21
-4.69491
0
LINE
8
BLACK
6
CONTINUOUS
10
1.82157
20
-4.69491
11
1.82719
21
-4.68366
0
LINE
8
BLACK
6
CONTINUOUS
10
1.82719
20
-4.68366
11
1.83844
21
-4.66679
0
LINE
8
BLACK
6
CONTINUOUS
10
1.83844
20
-4.66679
11
1.84407
21
-4.66116
0
LINE
8
BLACK
6
CONTINUOUS
10
1.90593
20
-4.72866
11
1.89468
21
-4.72303
0
LINE
8
BLACK
6
CONTINUOUS
10
1.89468
20
-4.72303
11
1.88906
21
-4.71741
0
LINE
8
BLACK
6
CONTINUOUS
10
1.88906
20
-4.71741
11
1.88344
21
-4.70616
0
LINE
8
BLACK
6
CONTINUOUS
10
1.88344
20
-4.70616
11
1.88344
21
-4.70053
0
LINE
8
BLACK
6
CONTINUOUS
10
1.88344
20
-4.70053
11
1.88906
21
-4.68929
0
LINE
8
BLACK
6
CONTINUOUS
10
1.88906
20
-4.68929
11
1.89468
21
-4.68366
0
LINE
8
BLACK
6
CONTINUOUS
10
1.89468
20
-4.68366
11
1.90593
21
-4.67804
0
LINE
8
BLACK
6
CONTINUOUS
10
1.90593
20
-4.67804
11
1.92843
21
-4.67804
0
LINE
8
BLACK
6
CONTINUOUS
10
1.92843
20
-4.67804
11
1.93968
21
-4.68366
0
LINE
8
BLACK
6
CONTINUOUS
10
1.93968
20
-4.68366
11
1.9453
21
-4.68929
0
LINE
8
BLACK
6
CONTINUOUS
10
1.9453
20
-4.68929
11
1.95093
21
-4.70053
0
LINE
8
BLACK
6
CONTINUOUS
10
1.95093
20
-4.70053
11
1.95093
21
-4.70616
0
LINE
8
BLACK
6
CONTINUOUS
10
1.95093
20
-4.70616
11
1.9453
21
-4.71741
0
LINE
8
BLACK
6
CONTINUOUS
10
1.9453
20
-4.71741
11
1.93968
21
-4.72303
0
LINE
8
BLACK
6
CONTINUOUS
10
1.93968
20
-4.72303
11
1.92843
21
-4.72866
0
LINE
8
BLACK
6
CONTINUOUS
10
1.92843
20
-4.72866
11
1.90593
21
-4.72866
0
LINE
8
BLACK
6
CONTINUOUS
10
1.90593
20
-4.72866
11
1.89468
21
-4.73428
0
LINE
8
BLACK
6
CONTINUOUS
10
1.89468
20
-4.73428
11
1.88906
21
-4.7399
0
LINE
8
BLACK
6
CONTINUOUS
10
1.88906
20
-4.7399
11
1.88344
21
-4.75115
0
LINE
8
BLACK
6
CONTINUOUS
10
1.88344
20
-4.75115
11
1.88344
21
-4.77365
0
LINE
8
BLACK
6
CONTINUOUS
10
1.88344
20
-4.77365
11
1.88906
21
-4.7849
0
LINE
8
BLACK
6
CONTINUOUS
10
1.88906
20
-4.7849
11
1.89468
21
-4.79052
0
LINE
8
BLACK
6
CONTINUOUS
10
1.89468
20
-4.79052
11
1.90593
21
-4.79615
0
LINE
8
BLACK
6
CONTINUOUS
10
1.90593
20
-4.79615
11
1.92843
21
-4.79615
0
LINE
8
BLACK
6
CONTINUOUS
10
1.92843
20
-4.79615
11
1.93968
21
-4.79052
0
LINE
8
BLACK
6
CONTINUOUS
10
1.93968
20
-4.79052
11
1.9453
21
-4.7849
0
LINE
8
BLACK
6
CONTINUOUS
10
1.9453
20
-4.7849
11
1.95093
21
-4.77365
0
LINE
8
BLACK
6
CONTINUOUS
10
1.95093
20
-4.77365
11
1.95093
21
-4.75115
0
LINE
8
BLACK
6
CONTINUOUS
10
1.95093
20
-4.75115
11
1.9453
21
-4.7399
0
LINE
8
BLACK
6
CONTINUOUS
10
1.9453
20
-4.7399
11
1.93968
21
-4.73428
0
LINE
8
BLACK
6
CONTINUOUS
10
1.93968
20
-4.73428
11
1.92843
21
-4.72866
0
LINE
8
BLACK
6
CONTINUOUS
10
2.09154
20
-4.79615
11
2.09154
21
-4.67804
0
LINE
8
BLACK
6
CONTINUOUS
10
2.14215
20
-4.79615
11
2.14215
21
-4.73428
0
LINE
8
BLACK
6
CONTINUOUS
10
2.14215
20
-4.73428
11
2.13653
21
-4.72303
0
LINE
8
BLACK
6
CONTINUOUS
10
2.13653
20
-4.72303
11
2.12528
21
-4.71741
0
LINE
8
BLACK
6
CONTINUOUS
10
2.12528
20
-4.71741
11
2.10841
21
-4.71741
0
LINE
8
BLACK
6
CONTINUOUS
10
2.10841
20
-4.71741
11
2.09716
21
-4.72303
0
LINE
8
BLACK
6
CONTINUOUS
10
2.09716
20
-4.72303
11
2.09154
21
-4.72866
0
LINE
8
BLACK
6
CONTINUOUS
10
2.21527
20
-4.79615
11
2.20402
21
-4.79052
0
LINE
8
BLACK
6
CONTINUOUS
10
2.20402
20
-4.79052
11
2.1984
21
-4.7849
0
LINE
8
BLACK
6
CONTINUOUS
10
2.1984
20
-4.7849
11
2.19277
21
-4.77365
0
LINE
8
BLACK
6
CONTINUOUS
10
2.19277
20
-4.77365
11
2.19277
21
-4.7399
0
LINE
8
BLACK
6
CONTINUOUS
10
2.19277
20
-4.7399
11
2.1984
21
-4.72866
0
LINE
8
BLACK
6
CONTINUOUS
10
2.1984
20
-4.72866
11
2.20402
21
-4.72303
0
LINE
8
BLACK
6
CONTINUOUS
10
2.20402
20
-4.72303
11
2.21527
21
-4.71741
0
LINE
8
BLACK
6
CONTINUOUS
10
2.21527
20
-4.71741
11
2.23214
21
-4.71741
0
LINE
8
BLACK
6
CONTINUOUS
10
2.23214
20
-4.71741
11
2.24339
21
-4.72303
0
LINE
8
BLACK
6
CONTINUOUS
10
2.24339
20
-4.72303
11
2.24902
21
-4.72866
0
LINE
8
BLACK
6
CONTINUOUS
10
2.24902
20
-4.72866
11
2.25464
21
-4.7399
0
LINE
8
BLACK
6
CONTINUOUS
10
2.25464
20
-4.7399
11
2.25464
21
-4.77365
0
LINE
8
BLACK
6
CONTINUOUS
10
2.25464
20
-4.77365
11
2.24902
21
-4.7849
0
LINE
8
BLACK
6
CONTINUOUS
10
2.24902
20
-4.7849
11
2.24339
21
-4.79052
0
LINE
8
BLACK
6
CONTINUOUS
10
2.24339
20
-4.79052
11
2.23214
21
-4.79615
0
LINE
8
BLACK
6
CONTINUOUS
10
2.23214
20
-4.79615
11
2.21527
21
-4.79615
0
LINE
8
BLACK
6
CONTINUOUS
10
2.32213
20
-4.79615
11
2.31088
21
-4.79052
0
LINE
8
BLACK
6
CONTINUOUS
10
2.31088
20
-4.79052
11
2.30526
21
-4.77927
0
LINE
8
BLACK
6
CONTINUOUS
10
2.30526
20
-4.77927
11
2.30526
21
-4.67804
0
LINE
8
BLACK
6
CONTINUOUS
10
2.41212
20
-4.79052
11
2.40087
21
-4.79615
0
LINE
8
BLACK
6
CONTINUOUS
10
2.40087
20
-4.79615
11
2.37837
21
-4.79615
0
LINE
8
BLACK
6
CONTINUOUS
10
2.37837
20
-4.79615
11
2.36713
21
-4.79052
0
LINE
8
BLACK
6
CONTINUOUS
10
2.36713
20
-4.79052
11
2.3615
21
-4.77927
0
LINE
8
BLACK
6
CONTINUOUS
10
2.3615
20
-4.77927
11
2.3615
21
-4.73428
0
LINE
8
BLACK
6
CONTINUOUS
10
2.3615
20
-4.73428
11
2.36713
21
-4.72303
0
LINE
8
BLACK
6
CONTINUOUS
10
2.36713
20
-4.72303
11
2.37837
21
-4.71741
0
LINE
8
BLACK
6
CONTINUOUS
10
2.37837
20
-4.71741
11
2.40087
21
-4.71741
0
LINE
8
BLACK
6
CONTINUOUS
10
2.40087
20
-4.71741
11
2.41212
21
-4.72303
0
LINE
8
BLACK
6
CONTINUOUS
10
2.41212
20
-4.72303
11
2.41774
21
-4.73428
0
LINE
8
BLACK
6
CONTINUOUS
10
2.41774
20
-4.73428
11
2.41774
21
-4.74553
0
LINE
8
BLACK
6
CONTINUOUS
10
2.41774
20
-4.74553
11
2.3615
21
-4.75678
0
LINE
8
BLACK
6
CONTINUOUS
10
2.46274
20
-4.79052
11
2.47399
21
-4.79615
0
LINE
8
BLACK
6
CONTINUOUS
10
2.47399
20
-4.79615
11
2.49648
21
-4.79615
0
LINE
8
BLACK
6
CONTINUOUS
10
2.49648
20
-4.79615
11
2.50773
21
-4.79052
0
LINE
8
BLACK
6
CONTINUOUS
10
2.50773
20
-4.79052
11
2.51336
21
-4.77927
0
LINE
8
BLACK
6
CONTINUOUS
10
2.51336
20
-4.77927
11
2.51336
21
-4.77365
0
LINE
8
BLACK
6
CONTINUOUS
10
2.51336
20
-4.77365
11
2.50773
21
-4.7624
0
LINE
8
BLACK
6
CONTINUOUS
10
2.50773
20
-4.7624
11
2.49648
21
-4.75678
0
LINE
8
BLACK
6
CONTINUOUS
10
2.49648
20
-4.75678
11
2.47961
21
-4.75678
0
LINE
8
BLACK
6
CONTINUOUS
10
2.47961
20
-4.75678
11
2.46836
21
-4.75115
0
LINE
8
BLACK
6
CONTINUOUS
10
2.46836
20
-4.75115
11
2.46274
21
-4.7399
0
LINE
8
BLACK
6
CONTINUOUS
10
2.46274
20
-4.7399
11
2.46274
21
-4.73428
0
LINE
8
BLACK
6
CONTINUOUS
10
2.46274
20
-4.73428
11
2.46836
21
-4.72303
0
LINE
8
BLACK
6
CONTINUOUS
10
2.46836
20
-4.72303
11
2.47961
21
-4.71741
0
LINE
8
BLACK
6
CONTINUOUS
10
2.47961
20
-4.71741
11
2.49648
21
-4.71741
0
LINE
8
BLACK
6
CONTINUOUS
10
2.49648
20
-4.71741
11
2.50773
21
-4.72303
0
LINE
8
BLACK
6
CONTINUOUS
10
2.55273
20
-4.84114
11
2.55835
21
-4.83552
0
LINE
8
BLACK
6
CONTINUOUS
10
2.55835
20
-4.83552
11
2.5696
21
-4.81864
0
LINE
8
BLACK
6
CONTINUOUS
10
2.5696
20
-4.81864
11
2.57522
21
-4.8074
0
LINE
8
BLACK
6
CONTINUOUS
10
2.57522
20
-4.8074
11
2.58085
21
-4.79052
0
LINE
8
BLACK
6
CONTINUOUS
10
2.58085
20
-4.79052
11
2.58647
21
-4.7624
0
LINE
8
BLACK
6
CONTINUOUS
10
2.58647
20
-4.7624
11
2.58647
21
-4.7399
0
LINE
8
BLACK
6
CONTINUOUS
10
2.58647
20
-4.7399
11
2.58085
21
-4.71178
0
LINE
8
BLACK
6
CONTINUOUS
10
2.58085
20
-4.71178
11
2.57522
21
-4.69491
0
LINE
8
BLACK
6
CONTINUOUS
10
2.57522
20
-4.69491
11
2.5696
21
-4.68366
0
LINE
8
BLACK
6
CONTINUOUS
10
2.5696
20
-4.68366
11
2.55835
21
-4.66679
0
LINE
8
BLACK
6
CONTINUOUS
10
2.55835
20
-4.66679
11
2.55273
21
-4.66116
0
LINE
8
BLACK
6
CONTINUOUS
10
-0.0561024
20
-4.87106
11
-0.000984291
21
-4.92618
0
LINE
8
BLACK
6
CONTINUOUS
10
-0.000984291
20
-4.87106
11
-0.0561024
21
-4.92618
0
CIRCLE
8
BLACK
10
-0.0285433
20
-4.89862
40
0.0275591
0
LINE
8
BLACK
6
CONTINUOUS
10
0.17365
20
-4.95205
11
0.106159
21
-4.95205
0
LINE
8
BLACK
6
CONTINUOUS
10
0.139904
20
-4.95205
11
0.139904
21
-4.83394
0
LINE
8
BLACK
6
CONTINUOUS
10
0.139904
20
-4.83394
11
0.128656
21
-4.85082
0
LINE
8
BLACK
6
CONTINUOUS
10
0.128656
20
-4.85082
11
0.117407
21
-4.86206
0
LINE
8
BLACK
6
CONTINUOUS
10
0.117407
20
-4.86206
11
0.106159
21
-4.86769
0
LINE
8
BLACK
6
CONTINUOUS
10
0.224269
20
-4.9408
11
0.229893
21
-4.94643
0
LINE
8
BLACK
6
CONTINUOUS
10
0.229893
20
-4.94643
11
0.224269
21
-4.95205
0
LINE
8
BLACK
6
CONTINUOUS
10
0.224269
20
-4.95205
11
0.218644
21
-4.94643
0
LINE
8
BLACK
6
CONTINUOUS
10
0.218644
20
-4.94643
11
0.224269
21
-4.9408
0
LINE
8
BLACK
6
CONTINUOUS
10
0.224269
20
-4.9408
11
0.224269
21
-4.95205
0
LINE
8
BLACK
6
CONTINUOUS
10
0.33113
20
-4.87331
11
0.33113
21
-4.95205
0
LINE
8
BLACK
6
CONTINUOUS
10
0.303009
20
-4.82832
11
0.274887
21
-4.91268
0
LINE
8
BLACK
6
CONTINUOUS
10
0.274887
20
-4.91268
11
0.348003
21
-4.91268
0
LINE
8
BLACK
6
CONTINUOUS
10
0.415495
20
-4.83394
11
0.426743
21
-4.83394
0
LINE
8
BLACK
6
CONTINUOUS
10
0.426743
20
-4.83394
11
0.437992
21
-4.83957
0
LINE
8
BLACK
6
CONTINUOUS
10
0.437992
20
-4.83957
11
0.443616
21
-4.84519
0
LINE
8
BLACK
6
CONTINUOUS
10
0.443616
20
-4.84519
11
0.449241
21
-4.85644
0
LINE
8
BLACK
6
CONTINUOUS
10
0.449241
20
-4.85644
11
0.454865
21
-4.87894
0
LINE
8
BLACK
6
CONTINUOUS
10
0.454865
20
-4.87894
11
0.454865
21
-4.90706
0
LINE
8
BLACK
6
CONTINUOUS
10
0.454865
20
-4.90706
11
0.449241
21
-4.92956
0
LINE
8
BLACK
6
CONTINUOUS
10
0.449241
20
-4.92956
11
0.443616
21
-4.9408
0
LINE
8
BLACK
6
CONTINUOUS
10
0.443616
20
-4.9408
11
0.437992
21
-4.94643
0
LINE
8
BLACK
6
CONTINUOUS
10
0.437992
20
-4.94643
11
0.426743
21
-4.95205
0
LINE
8
BLACK
6
CONTINUOUS
10
0.426743
20
-4.95205
11
0.415495
21
-4.95205
0
LINE
8
BLACK
6
CONTINUOUS
10
0.415495
20
-4.95205
11
0.404246
21
-4.94643
0
LINE
8
BLACK
6
CONTINUOUS
10
0.404246
20
-4.94643
11
0.398622
21
-4.9408
0
LINE
8
BLACK
6
CONTINUOUS
10
0.398622
20
-4.9408
11
0.392998
21
-4.92956
0
LINE
8
BLACK
6
CONTINUOUS
10
0.392998
20
-4.92956
11
0.387373
21
-4.90706
0
LINE
8
BLACK
6
CONTINUOUS
10
0.387373
20
-4.90706
11
0.387373
21
-4.87894
0
LINE
8
BLACK
6
CONTINUOUS
10
0.387373
20
-4.87894
11
0.392998
21
-4.85644
0
LINE
8
BLACK
6
CONTINUOUS
10
0.392998
20
-4.85644
11
0.398622
21
-4.84519
0
LINE
8
BLACK
6
CONTINUOUS
10
0.398622
20
-4.84519
11
0.404246
21
-4.83957
0
LINE
8
BLACK
6
CONTINUOUS
10
0.404246
20
-4.83957
11
0.415495
21
-4.83394
0
LINE
8
BLACK
6
CONTINUOUS
10
0.505484
20
-4.95205
11
0.505484
21
-4.87331
0
LINE
8
BLACK
6
CONTINUOUS
10
0.505484
20
-4.88456
11
0.511108
21
-4.87894
0
LINE
8
BLACK
6
CONTINUOUS
10
0.511108
20
-4.87894
11
0.522357
21
-4.87331
0
LINE
8
BLACK
6
CONTINUOUS
10
0.522357
20
-4.87331
11
0.539229
21
-4.87331
0
LINE
8
BLACK
6
CONTINUOUS
10
0.539229
20
-4.87331
11
0.550478
21
-4.87894
0
LINE
8
BLACK
6
CONTINUOUS
10
0.550478
20
-4.87894
11
0.556102
21
-4.89019
0
LINE
8
BLACK
6
CONTINUOUS
10
0.556102
20
-4.89019
11
0.556102
21
-4.95205
0
LINE
8
BLACK
6
CONTINUOUS
10
0.556102
20
-4.89019
11
0.561727
21
-4.87894
0
LINE
8
BLACK
6
CONTINUOUS
10
0.561727
20
-4.87894
11
0.572975
21
-4.87331
0
LINE
8
BLACK
6
CONTINUOUS
10
0.572975
20
-4.87331
11
0.589848
21
-4.87331
0
LINE
8
BLACK
6
CONTINUOUS
10
0.589848
20
-4.87331
11
0.601097
21
-4.87894
0
LINE
8
BLACK
6
CONTINUOUS
10
0.601097
20
-4.87894
11
0.606721
21
-4.89019
0
LINE
8
BLACK
6
CONTINUOUS
10
0.606721
20
-4.89019
11
0.606721
21
-4.95205
0
LINE
8
BLACK
6
CONTINUOUS
10
0.662964
20
-4.95205
11
0.662964
21
-4.87331
0
LINE
8
BLACK
6
CONTINUOUS
10
0.662964
20
-4.88456
11
0.668588
21
-4.87894
0
LINE
8
BLACK
6
CONTINUOUS
10
0.668588
20
-4.87894
11
0.679837
21
-4.87331
0
LINE
8
BLACK
6
CONTINUOUS
10
0.679837
20
-4.87331
11
0.69671
21
-4.87331
0
LINE
8
BLACK
6
CONTINUOUS
10
0.69671
20
-4.87331
11
0.707958
21
-4.87894
0
LINE
8
BLACK
6
CONTINUOUS
10
0.707958
20
-4.87894
11
0.713583
21
-4.89019
0
LINE
8
BLACK
6
CONTINUOUS
10
0.713583
20
-4.89019
11
0.713583
21
-4.95205
0
LINE
8
BLACK
6
CONTINUOUS
10
0.713583
20
-4.89019
11
0.719207
21
-4.87894
0
LINE
8
BLACK
6
CONTINUOUS
10
0.719207
20
-4.87894
11
0.730456
21
-4.87331
0
LINE
8
BLACK
6
CONTINUOUS
10
0.730456
20
-4.87331
11
0.747328
21
-4.87331
0
LINE
8
BLACK
6
CONTINUOUS
10
0.747328
20
-4.87331
11
0.758577
21
-4.87894
0
LINE
8
BLACK
6
CONTINUOUS
10
0.758577
20
-4.87894
11
0.764201
21
-4.89019
0
LINE
8
BLACK
6
CONTINUOUS
10
0.764201
20
-4.89019
11
0.764201
21
-4.95205
0
LINE
8
BLACK
6
CONTINUOUS
10
0.994797
20
-4.82832
11
0.89356
21
-4.98017
0
LINE
8
BLACK
6
CONTINUOUS
10
1.14665
20
-4.83394
11
1.1579
21
-4.83394
0
LINE
8
BLACK
6
CONTINUOUS
10
1.1579
20
-4.83394
11
1.16915
21
-4.83957
0
LINE
8
BLACK
6
CONTINUOUS
10
1.16915
20
-4.83957
11
1.17477
21
-4.84519
0
LINE
8
BLACK
6
CONTINUOUS
10
1.17477
20
-4.84519
11
1.1804
21
-4.85644
0
LINE
8
BLACK
6
CONTINUOUS
10
1.1804
20
-4.85644
11
1.18602
21
-4.87894
0
LINE
8
BLACK
6
CONTINUOUS
10
1.18602
20
-4.87894
11
1.18602
21
-4.90706
0
LINE
8
BLACK
6
CONTINUOUS
10
1.18602
20
-4.90706
11
1.1804
21
-4.92956
0
LINE
8
BLACK
6
CONTINUOUS
10
1.1804
20
-4.92956
11
1.17477
21
-4.9408
0
LINE
8
BLACK
6
CONTINUOUS
10
1.17477
20
-4.9408
11
1.16915
21
-4.94643
0
LINE
8
BLACK
6
CONTINUOUS
10
1.16915
20
-4.94643
11
1.1579
21
-4.95205
0
LINE
8
BLACK
6
CONTINUOUS
10
1.1579
20
-4.95205
11
1.14665
21
-4.95205
0
LINE
8
BLACK
6
CONTINUOUS
10
1.14665
20
-4.95205
11
1.1354
21
-4.94643
0
LINE
8
BLACK
6
CONTINUOUS
10
1.1354
20
-4.94643
11
1.12978
21
-4.9408
0
LINE
8
BLACK
6
CONTINUOUS
10
1.12978
20
-4.9408
11
1.12416
21
-4.92956
0
LINE
8
BLACK
6
CONTINUOUS
10
1.12416
20
-4.92956
11
1.11853
21
-4.90706
0
LINE
8
BLACK
6
CONTINUOUS
10
1.11853
20
-4.90706
11
1.11853
21
-4.87894
0
LINE
8
BLACK
6
CONTINUOUS
10
1.11853
20
-4.87894
11
1.12416
21
-4.85644
0
LINE
8
BLACK
6
CONTINUOUS
10
1.12416
20
-4.85644
11
1.12978
21
-4.84519
0
LINE
8
BLACK
6
CONTINUOUS
10
1.12978
20
-4.84519
11
1.1354
21
-4.83957
0
LINE
8
BLACK
6
CONTINUOUS
10
1.1354
20
-4.83957
11
1.14665
21
-4.83394
0
LINE
8
BLACK
6
CONTINUOUS
10
1.23664
20
-4.9408
11
1.24227
21
-4.94643
0
LINE
8
BLACK
6
CONTINUOUS
10
1.24227
20
-4.94643
11
1.23664
21
-4.95205
0
LINE
8
BLACK
6
CONTINUOUS
10
1.23664
20
-4.95205
11
1.23102
21
-4.94643
0
LINE
8
BLACK
6
CONTINUOUS
10
1.23102
20
-4.94643
11
1.23664
21
-4.9408
0
LINE
8
BLACK
6
CONTINUOUS
10
1.23664
20
-4.9408
11
1.23664
21
-4.95205
0
LINE
8
BLACK
6
CONTINUOUS
10
1.31538
20
-4.83394
11
1.32663
21
-4.83394
0
LINE
8
BLACK
6
CONTINUOUS
10
1.32663
20
-4.83394
11
1.33788
21
-4.83957
0
LINE
8
BLACK
6
CONTINUOUS
10
1.33788
20
-4.83957
11
1.3435
21
-4.84519
0
LINE
8
BLACK
6
CONTINUOUS
10
1.3435
20
-4.84519
11
1.34913
21
-4.85644
0
LINE
8
BLACK
6
CONTINUOUS
10
1.34913
20
-4.85644
11
1.35475
21
-4.87894
0
LINE
8
BLACK
6
CONTINUOUS
10
1.35475
20
-4.87894
11
1.35475
21
-4.90706
0
LINE
8
BLACK
6
CONTINUOUS
10
1.35475
20
-4.90706
11
1.34913
21
-4.92956
0
LINE
8
BLACK
6
CONTINUOUS
10
1.34913
20
-4.92956
11
1.3435
21
-4.9408
0
LINE
8
BLACK
6
CONTINUOUS
10
1.3435
20
-4.9408
11
1.33788
21
-4.94643
0
LINE
8
BLACK
6
CONTINUOUS
10
1.33788
20
-4.94643
11
1.32663
21
-4.95205
0
LINE
8
BLACK
6
CONTINUOUS
10
1.32663
20
-4.95205
11
1.31538
21
-4.95205
0
LINE
8
BLACK
6
CONTINUOUS
10
1.31538
20
-4.95205
11
1.30413
21
-4.94643
0
LINE
8
BLACK
6
CONTINUOUS
10
1.30413
20
-4.94643
11
1.29851
21
-4.9408
0
LINE
8
BLACK
6
CONTINUOUS
10
1.29851
20
-4.9408
11
1.29289
21
-4.92956
0
LINE
8
BLACK
6
CONTINUOUS
10
1.29289
20
-4.92956
11
1.28726
21
-4.90706
0
LINE
8
BLACK
6
CONTINUOUS
10
1.28726
20
-4.90706
11
1.28726
21
-4.87894
0
LINE
8
BLACK
6
CONTINUOUS
10
1.28726
20
-4.87894
11
1.29289
21
-4.85644
0
LINE
8
BLACK
6
CONTINUOUS
10
1.29289
20
-4.85644
11
1.29851
21
-4.84519
0
LINE
8
BLACK
6
CONTINUOUS
10
1.29851
20
-4.84519
11
1.30413
21
-4.83957
0
LINE
8
BLACK
6
CONTINUOUS
10
1.30413
20
-4.83957
11
1.31538
21
-4.83394
0
LINE
8
BLACK
6
CONTINUOUS
10
1.46161
20
-4.83394
11
1.40537
21
-4.83394
0
LINE
8
BLACK
6
CONTINUOUS
10
1.40537
20
-4.83394
11
1.39975
21
-4.89019
0
LINE
8
BLACK
6
CONTINUOUS
10
1.39975
20
-4.89019
11
1.40537
21
-4.88456
0
LINE
8
BLACK
6
CONTINUOUS
10
1.40537
20
-4.88456
11
1.41662
21
-4.87894
0
LINE
8
BLACK
6
CONTINUOUS
10
1.41662
20
-4.87894
11
1.44474
21
-4.87894
0
LINE
8
BLACK
6
CONTINUOUS
10
1.44474
20
-4.87894
11
1.45599
21
-4.88456
0
LINE
8
BLACK
6
CONTINUOUS
10
1.45599
20
-4.88456
11
1.46161
21
-4.89019
0
LINE
8
BLACK
6
CONTINUOUS
10
1.46161
20
-4.89019
11
1.46724
21
-4.90143
0
LINE
8
BLACK
6
CONTINUOUS
10
1.46724
20
-4.90143
11
1.46724
21
-4.92956
0
LINE
8
BLACK
6
CONTINUOUS
10
1.46724
20
-4.92956
11
1.46161
21
-4.9408
0
LINE
8
BLACK
6
CONTINUOUS
10
1.46161
20
-4.9408
11
1.45599
21
-4.94643
0
LINE
8
BLACK
6
CONTINUOUS
10
1.45599
20
-4.94643
11
1.44474
21
-4.95205
0
LINE
8
BLACK
6
CONTINUOUS
10
1.44474
20
-4.95205
11
1.41662
21
-4.95205
0
LINE
8
BLACK
6
CONTINUOUS
10
1.41662
20
-4.95205
11
1.40537
21
-4.94643
0
LINE
8
BLACK
6
CONTINUOUS
10
1.40537
20
-4.94643
11
1.39975
21
-4.9408
0
LINE
8
BLACK
6
CONTINUOUS
10
1.5741
20
-4.83394
11
1.51786
21
-4.83394
0
LINE
8
BLACK
6
CONTINUOUS
10
1.51786
20
-4.83394
11
1.51223
21
-4.89019
0
LINE
8
BLACK
6
CONTINUOUS
10
1.51223
20
-4.89019
11
1.51786
21
-4.88456
0
LINE
8
BLACK
6
CONTINUOUS
10
1.51786
20
-4.88456
11
1.52911
21
-4.87894
0
LINE
8
BLACK
6
CONTINUOUS
10
1.52911
20
-4.87894
11
1.55723
21
-4.87894
0
LINE
8
BLACK
6
CONTINUOUS
10
1.55723
20
-4.87894
11
1.56848
21
-4.88456
0
LINE
8
BLACK
6
CONTINUOUS
10
1.56848
20
-4.88456
11
1.5741
21
-4.89019
0
LINE
8
BLACK
6
CONTINUOUS
10
1.5741
20
-4.89019
11
1.57972
21
-4.90143
0
LINE
8
BLACK
6
CONTINUOUS
10
1.57972
20
-4.90143
11
1.57972
21
-4.92956
0
LINE
8
BLACK
6
CONTINUOUS
10
1.57972
20
-4.92956
11
1.5741
21
-4.9408
0
LINE
8
BLACK
6
CONTINUOUS
10
1.5741
20
-4.9408
11
1.56848
21
-4.94643
0
LINE
8
BLACK
6
CONTINUOUS
10
1.56848
20
-4.94643
11
1.55723
21
-4.95205
0
LINE
8
BLACK
6
CONTINUOUS
10
1.55723
20
-4.95205
11
1.52911
21
-4.95205
0
LINE
8
BLACK
6
CONTINUOUS
10
1.52911
20
-4.95205
11
1.51786
21
-4.94643
0
LINE
8
BLACK
6
CONTINUOUS
10
1.51786
20
-4.94643
11
1.51223
21
-4.9408
0
LINE
8
BLACK
6
CONTINUOUS
10
1.62472
20
-4.83394
11
1.62472
21
-4.85644
0
LINE
8
BLACK
6
CONTINUOUS
10
1.66971
20
-4.83394
11
1.66971
21
-4.85644
0
LINE
8
BLACK
6
CONTINUOUS
10
1.84407
20
-4.99705
11
1.83844
21
-4.99142
0
LINE
8
BLACK
6
CONTINUOUS
10
1.83844
20
-4.99142
11
1.82719
21
-4.97455
0
LINE
8
BLACK
6
CONTINUOUS
10
1.82719
20
-4.97455
11
1.82157
21
-4.9633
0
LINE
8
BLACK
6
CONTINUOUS
10
1.82157
20
-4.9633
11
1.81594
21
-4.94643
0
LINE
8
BLACK
6
CONTINUOUS
10
1.81594
20
-4.94643
11
1.81032
21
-4.91831
0
LINE
8
BLACK
6
CONTINUOUS
10
1.81032
20
-4.91831
11
1.81032
21
-4.89581
0
LINE
8
BLACK
6
CONTINUOUS
10
1.81032
20
-4.89581
11
1.81594
21
-4.86769
0
LINE
8
BLACK
6
CONTINUOUS
10
1.81594
20
-4.86769
11
1.82157
21
-4.85082
0
LINE
8
BLACK
6
CONTINUOUS
10
1.82157
20
-4.85082
11
1.82719
21
-4.83957
0
LINE
8
BLACK
6
CONTINUOUS
10
1.82719
20
-4.83957
11
1.83844
21
-4.82269
0
LINE
8
BLACK
6
CONTINUOUS
10
1.83844
20
-4.82269
11
1.84407
21
-4.81707
0
LINE
8
BLACK
6
CONTINUOUS
10
1.9453
20
-4.83394
11
1.88906
21
-4.83394
0
LINE
8
BLACK
6
CONTINUOUS
10
1.88906
20
-4.83394
11
1.88344
21
-4.89019
0
LINE
8
BLACK
6
CONTINUOUS
10
1.88344
20
-4.89019
11
1.88906
21
-4.88456
0
LINE
8
BLACK
6
CONTINUOUS
10
1.88906
20
-4.88456
11
1.90031
21
-4.87894
0
LINE
8
BLACK
6
CONTINUOUS
10
1.90031
20
-4.87894
11
1.92843
21
-4.87894
0
LINE
8
BLACK
6
CONTINUOUS
10
1.92843
20
-4.87894
11
1.93968
21
-4.88456
0
LINE
8
BLACK
6
CONTINUOUS
10
1.93968
20
-4.88456
11
1.9453
21
-4.89019
0
LINE
8
BLACK
6
CONTINUOUS
10
1.9453
20
-4.89019
11
1.95093
21
-4.90143
0
LINE
8
BLACK
6
CONTINUOUS
10
1.95093
20
-4.90143
11
1.95093
21
-4.92956
0
LINE
8
BLACK
6
CONTINUOUS
10
1.95093
20
-4.92956
11
1.9453
21
-4.9408
0
LINE
8
BLACK
6
CONTINUOUS
10
1.9453
20
-4.9408
11
1.93968
21
-4.94643
0
LINE
8
BLACK
6
CONTINUOUS
10
1.93968
20
-4.94643
11
1.92843
21
-4.95205
0
LINE
8
BLACK
6
CONTINUOUS
10
1.92843
20
-4.95205
11
1.90031
21
-4.95205
0
LINE
8
BLACK
6
CONTINUOUS
10
1.90031
20
-4.95205
11
1.88906
21
-4.94643
0
LINE
8
BLACK
6
CONTINUOUS
10
1.88906
20
-4.94643
11
1.88344
21
-4.9408
0
LINE
8
BLACK
6
CONTINUOUS
10
1.99592
20
-4.84519
11
2.00155
21
-4.83957
0
LINE
8
BLACK
6
CONTINUOUS
10
2.00155
20
-4.83957
11
2.0128
21
-4.83394
0
LINE
8
BLACK
6
CONTINUOUS
10
2.0128
20
-4.83394
11
2.04092
21
-4.83394
0
LINE
8
BLACK
6
CONTINUOUS
10
2.04092
20
-4.83394
11
2.05217
21
-4.83957
0
LINE
8
BLACK
6
CONTINUOUS
10
2.05217
20
-4.83957
11
2.05779
21
-4.84519
0
LINE
8
BLACK
6
CONTINUOUS
10
2.05779
20
-4.84519
11
2.06341
21
-4.85644
0
LINE
8
BLACK
6
CONTINUOUS
10
2.06341
20
-4.85644
11
2.06341
21
-4.86769
0
LINE
8
BLACK
6
CONTINUOUS
10
2.06341
20
-4.86769
11
2.05779
21
-4.88456
0
LINE
8
BLACK
6
CONTINUOUS
10
2.05779
20
-4.88456
11
1.9903
21
-4.95205
0
LINE
8
BLACK
6
CONTINUOUS
10
1.9903
20
-4.95205
11
2.06341
21
-4.95205
0
LINE
8
BLACK
6
CONTINUOUS
10
2.20402
20
-4.95205
11
2.20402
21
-4.83394
0
LINE
8
BLACK
6
CONTINUOUS
10
2.25464
20
-4.95205
11
2.25464
21
-4.89019
0
LINE
8
BLACK
6
CONTINUOUS
10
2.25464
20
-4.89019
11
2.24902
21
-4.87894
0
LINE
8
BLACK
6
CONTINUOUS
10
2.24902
20
-4.87894
11
2.23777
21
-4.87331
0
LINE
8
BLACK
6
CONTINUOUS
10
2.23777
20
-4.87331
11
2.22089
21
-4.87331
0
LINE
8
BLACK
6
CONTINUOUS
10
2.22089
20
-4.87331
11
2.20965
21
-4.87894
0
LINE
8
BLACK
6
CONTINUOUS
10
2.20965
20
-4.87894
11
2.20402
21
-4.88456
0
LINE
8
BLACK
6
CONTINUOUS
10
2.32776
20
-4.95205
11
2.31651
21
-4.94643
0
LINE
8
BLACK
6
CONTINUOUS
10
2.31651
20
-4.94643
11
2.31088
21
-4.9408
0
LINE
8
BLACK
6
CONTINUOUS
10
2.31088
20
-4.9408
11
2.30526
21
-4.92956
0
LINE
8
BLACK
6
CONTINUOUS
10
2.30526
20
-4.92956
11
2.30526
21
-4.89581
0
LINE
8
BLACK
6
CONTINUOUS
10
2.30526
20
-4.89581
11
2.31088
21
-4.88456
0
LINE
8
BLACK
6
CONTINUOUS
10
2.31088
20
-4.88456
11
2.31651
21
-4.87894
0
LINE
8
BLACK
6
CONTINUOUS
10
2.31651
20
-4.87894
11
2.32776
21
-4.87331
0
LINE
8
BLACK
6
CONTINUOUS
10
2.32776
20
-4.87331
11
2.34463
21
-4.87331
0
LINE
8
BLACK
6
CONTINUOUS
10
2.34463
20
-4.87331
11
2.35588
21
-4.87894
0
LINE
8
BLACK
6
CONTINUOUS
10
2.35588
20
-4.87894
11
2.3615
21
-4.88456
0
LINE
8
BLACK
6
CONTINUOUS
10
2.3615
20
-4.88456
11
2.36713
21
-4.89581
0
LINE
8
BLACK
6
CONTINUOUS
10
2.36713
20
-4.89581
11
2.36713
21
-4.92956
0
LINE
8
BLACK
6
CONTINUOUS
10
2.36713
20
-4.92956
11
2.3615
21
-4.9408
0
LINE
8
BLACK
6
CONTINUOUS
10
2.3615
20
-4.9408
11
2.35588
21
-4.94643
0
LINE
8
BLACK
6
CONTINUOUS
10
2.35588
20
-4.94643
11
2.34463
21
-4.95205
0
LINE
8
BLACK
6
CONTINUOUS
10
2.34463
20
-4.95205
11
2.32776
21
-4.95205
0
LINE
8
BLACK
6
CONTINUOUS
10
2.43462
20
-4.95205
11
2.42337
21
-4.94643
0
LINE
8
BLACK
6
CONTINUOUS
10
2.42337
20
-4.94643
11
2.41774
21
-4.93518
0
LINE
8
BLACK
6
CONTINUOUS
10
2.41774
20
-4.93518
11
2.41774
21
-4.83394
0
LINE
8
BLACK
6
CONTINUOUS
10
2.52461
20
-4.94643
11
2.51336
21
-4.95205
0
LINE
8
BLACK
6
CONTINUOUS
10
2.51336
20
-4.95205
11
2.49086
21
-4.95205
0
LINE
8
BLACK
6
CONTINUOUS
10
2.49086
20
-4.95205
11
2.47961
21
-4.94643
0
LINE
8
BLACK
6
CONTINUOUS
10
2.47961
20
-4.94643
11
2.47399
21
-4.93518
0
LINE
8
BLACK
6
CONTINUOUS
10
2.47399
20
-4.93518
11
2.47399
21
-4.89019
0
LINE
8
BLACK
6
CONTINUOUS
10
2.47399
20
-4.89019
11
2.47961
21
-4.87894
0
LINE
8
BLACK
6
CONTINUOUS
10
2.47961
20
-4.87894
11
2.49086
21
-4.87331
0
LINE
8
BLACK
6
CONTINUOUS
10
2.49086
20
-4.87331
11
2.51336
21
-4.87331
0
LINE
8
BLACK
6
CONTINUOUS
10
2.51336
20
-4.87331
11
2.52461
21
-4.87894
0
LINE
8
BLACK
6
CONTINUOUS
10
2.52461
20
-4.87894
11
2.53023
21
-4.89019
0
LINE
8
BLACK
6
CONTINUOUS
10
2.53023
20
-4.89019
11
2.53023
21
-4.90143
0
LINE
8
BLACK
6
CONTINUOUS
10
2.53023
20
-4.90143
11
2.47399
21
-4.91268
0
LINE
8
BLACK
6
CONTINUOUS
10
2.57522
20
-4.94643
11
2.58647
21
-4.95205
0
LINE
8
BLACK
6
CONTINUOUS
10
2.58647
20
-4.95205
11
2.60897
21
-4.95205
0
LINE
8
BLACK
6
CONTINUOUS
10
2.60897
20
-4.95205
11
2.62022
21
-4.94643
0
LINE
8
BLACK
6
CONTINUOUS
10
2.62022
20
-4.94643
11
2.62584
21
-4.93518
0
LINE
8
BLACK
6
CONTINUOUS
10
2.62584
20
-4.93518
11
2.62584
21
-4.92956
0
LINE
8
BLACK
6
CONTINUOUS
10
2.62584
20
-4.92956
11
2.62022
21
-4.91831
0
LINE
8
BLACK
6
CONTINUOUS
10
2.62022
20
-4.91831
11
2.60897
21
-4.91268
0
LINE
8
BLACK
6
CONTINUOUS
10
2.60897
20
-4.91268
11
2.5921
21
-4.91268
0
LINE
8
BLACK
6
CONTINUOUS
10
2.5921
20
-4.91268
11
2.58085
21
-4.90706
0
LINE
8
BLACK
6
CONTINUOUS
10
2.58085
20
-4.90706
11
2.57522
21
-4.89581
0
LINE
8
BLACK
6
CONTINUOUS
10
2.57522
20
-4.89581
11
2.57522
21
-4.89019
0
LINE
8
BLACK
6
CONTINUOUS
10
2.57522
20
-4.89019
11
2.58085
21
-4.87894
0
LINE
8
BLACK
6
CONTINUOUS
10
2.58085
20
-4.87894
11
2.5921
21
-4.87331
0
LINE
8
BLACK
6
CONTINUOUS
10
2.5921
20
-4.87331
11
2.60897
21
-4.87331
0
LINE
8
BLACK
6
CONTINUOUS
10
2.60897
20
-4.87331
11
2.62022
21
-4.87894
0
LINE
8
BLACK
6
CONTINUOUS
10
2.66521
20
-4.99705
11
2.67084
21
-4.99142
0
LINE
8
BLACK
6
CONTINUOUS
10
2.67084
20
-4.99142
11
2.68209
21
-4.97455
0
LINE
8
BLACK
6
CONTINUOUS
10
2.68209
20
-4.97455
11
2.68771
21
-4.9633
0
LINE
8
BLACK
6
CONTINUOUS
10
2.68771
20
-4.9633
11
2.69334
21
-4.94643
0
LINE
8
BLACK
6
CONTINUOUS
10
2.69334
20
-4.94643
11
2.69896
21
-4.91831
0
LINE
8
BLACK
6
CONTINUOUS
10
2.69896
20
-4.91831
11
2.69896
21
-4.89581
0
LINE
8
BLACK
6
CONTINUOUS
10
2.69896
20
-4.89581
11
2.69334
21
-4.86769
0
LINE
8
BLACK
6
CONTINUOUS
10
2.69334
20
-4.86769
11
2.68771
21
-4.85082
0
LINE
8
BLACK
6
CONTINUOUS
10
2.68771
20
-4.85082
11
2.68209
21
-4.83957
0
LINE
8
BLACK
6
CONTINUOUS
10
2.68209
20
-4.83957
11
2.67084
21
-4.82269
0
LINE
8
BLACK
6
CONTINUOUS
10
2.67084
20
-4.82269
11
2.66521
21
-4.81707
  0
ENDSEC
  0
EOF
