%TF.GenerationSoftware,KiCad,Pcbnew,(5.1.5-0-10_14)*%
%TF.CreationDate,2021-10-24T14:27:30+10:00*%
%TF.ProjectId,Power Distro PCB V2,506f7765-7220-4446-9973-74726f205043,rev?*%
%TF.SameCoordinates,Original*%
%TF.FileFunction,Soldermask,Top*%
%TF.FilePolarity,Negative*%
%FSLAX46Y46*%
G04 Gerber Fmt 4.6, Leading zero omitted, Abs format (unit mm)*
G04 Created by KiCad (PCBNEW (5.1.5-0-10_14)) date 2021-10-24 14:27:30*
%MOMM*%
%LPD*%
G04 APERTURE LIST*
%ADD10O,2.800000X3.400000*%
%ADD11C,0.100000*%
%ADD12O,1.840000X2.300000*%
%ADD13O,1.700000X1.700000*%
%ADD14C,1.700000*%
%ADD15C,1.900000*%
%ADD16R,1.900000X1.900000*%
%ADD17R,3.600000X3.600000*%
%ADD18O,1.840000X2.290000*%
%ADD19O,2.290000X1.840000*%
%ADD20O,1.800000X1.800000*%
%ADD21R,1.800000X1.800000*%
%ADD22C,1.200000*%
%ADD23O,2.130000X1.830000*%
%ADD24R,2.130000X1.830000*%
%ADD25O,3.400000X2.800000*%
G04 APERTURE END LIST*
D10*
%TO.C,J35*%
X88490000Y-15441000D03*
X84290000Y-15441000D03*
X88490000Y-9941000D03*
D11*
G36*
X85456152Y-8242248D02*
G01*
X85481319Y-8245982D01*
X85505999Y-8252164D01*
X85529955Y-8260735D01*
X85552954Y-8271613D01*
X85574777Y-8284693D01*
X85595213Y-8299849D01*
X85614065Y-8316935D01*
X85631151Y-8335787D01*
X85646307Y-8356223D01*
X85659387Y-8378046D01*
X85670265Y-8401045D01*
X85678836Y-8425001D01*
X85685018Y-8449681D01*
X85688752Y-8474848D01*
X85690000Y-8500260D01*
X85690000Y-11381740D01*
X85688752Y-11407152D01*
X85685018Y-11432319D01*
X85678836Y-11456999D01*
X85670265Y-11480955D01*
X85659387Y-11503954D01*
X85646307Y-11525777D01*
X85631151Y-11546213D01*
X85614065Y-11565065D01*
X85595213Y-11582151D01*
X85574777Y-11597307D01*
X85552954Y-11610387D01*
X85529955Y-11621265D01*
X85505999Y-11629836D01*
X85481319Y-11636018D01*
X85456152Y-11639752D01*
X85430740Y-11641000D01*
X83149260Y-11641000D01*
X83123848Y-11639752D01*
X83098681Y-11636018D01*
X83074001Y-11629836D01*
X83050045Y-11621265D01*
X83027046Y-11610387D01*
X83005223Y-11597307D01*
X82984787Y-11582151D01*
X82965935Y-11565065D01*
X82948849Y-11546213D01*
X82933693Y-11525777D01*
X82920613Y-11503954D01*
X82909735Y-11480955D01*
X82901164Y-11456999D01*
X82894982Y-11432319D01*
X82891248Y-11407152D01*
X82890000Y-11381740D01*
X82890000Y-8500260D01*
X82891248Y-8474848D01*
X82894982Y-8449681D01*
X82901164Y-8425001D01*
X82909735Y-8401045D01*
X82920613Y-8378046D01*
X82933693Y-8356223D01*
X82948849Y-8335787D01*
X82965935Y-8316935D01*
X82984787Y-8299849D01*
X83005223Y-8284693D01*
X83027046Y-8271613D01*
X83050045Y-8260735D01*
X83074001Y-8252164D01*
X83098681Y-8245982D01*
X83123848Y-8242248D01*
X83149260Y-8241000D01*
X85430740Y-8241000D01*
X85456152Y-8242248D01*
G37*
%TD*%
D12*
%TO.C,J7*%
X52540000Y-3591000D03*
X50000000Y-3591000D03*
X47460000Y-3591000D03*
X44920000Y-3591000D03*
X42380000Y-3591000D03*
X39840000Y-3591000D03*
X37300000Y-3591000D03*
D11*
G36*
X35441545Y-2442273D02*
G01*
X35467208Y-2446080D01*
X35492375Y-2452384D01*
X35516802Y-2461124D01*
X35540255Y-2472216D01*
X35562507Y-2485554D01*
X35583346Y-2501009D01*
X35602569Y-2518431D01*
X35619991Y-2537654D01*
X35635446Y-2558493D01*
X35648784Y-2580745D01*
X35659876Y-2604198D01*
X35668616Y-2628625D01*
X35674920Y-2653792D01*
X35678727Y-2679455D01*
X35680000Y-2705367D01*
X35680000Y-4476633D01*
X35678727Y-4502545D01*
X35674920Y-4528208D01*
X35668616Y-4553375D01*
X35659876Y-4577802D01*
X35648784Y-4601255D01*
X35635446Y-4623507D01*
X35619991Y-4644346D01*
X35602569Y-4663569D01*
X35583346Y-4680991D01*
X35562507Y-4696446D01*
X35540255Y-4709784D01*
X35516802Y-4720876D01*
X35492375Y-4729616D01*
X35467208Y-4735920D01*
X35441545Y-4739727D01*
X35415633Y-4741000D01*
X34104367Y-4741000D01*
X34078455Y-4739727D01*
X34052792Y-4735920D01*
X34027625Y-4729616D01*
X34003198Y-4720876D01*
X33979745Y-4709784D01*
X33957493Y-4696446D01*
X33936654Y-4680991D01*
X33917431Y-4663569D01*
X33900009Y-4644346D01*
X33884554Y-4623507D01*
X33871216Y-4601255D01*
X33860124Y-4577802D01*
X33851384Y-4553375D01*
X33845080Y-4528208D01*
X33841273Y-4502545D01*
X33840000Y-4476633D01*
X33840000Y-2705367D01*
X33841273Y-2679455D01*
X33845080Y-2653792D01*
X33851384Y-2628625D01*
X33860124Y-2604198D01*
X33871216Y-2580745D01*
X33884554Y-2558493D01*
X33900009Y-2537654D01*
X33917431Y-2518431D01*
X33936654Y-2501009D01*
X33957493Y-2485554D01*
X33979745Y-2472216D01*
X34003198Y-2461124D01*
X34027625Y-2452384D01*
X34052792Y-2446080D01*
X34078455Y-2442273D01*
X34104367Y-2441000D01*
X35415633Y-2441000D01*
X35441545Y-2442273D01*
G37*
%TD*%
D10*
%TO.C,J2*%
X22860000Y-14234000D03*
X27060000Y-14234000D03*
X22860000Y-19734000D03*
D11*
G36*
X28226152Y-18035248D02*
G01*
X28251319Y-18038982D01*
X28275999Y-18045164D01*
X28299955Y-18053735D01*
X28322954Y-18064613D01*
X28344777Y-18077693D01*
X28365213Y-18092849D01*
X28384065Y-18109935D01*
X28401151Y-18128787D01*
X28416307Y-18149223D01*
X28429387Y-18171046D01*
X28440265Y-18194045D01*
X28448836Y-18218001D01*
X28455018Y-18242681D01*
X28458752Y-18267848D01*
X28460000Y-18293260D01*
X28460000Y-21174740D01*
X28458752Y-21200152D01*
X28455018Y-21225319D01*
X28448836Y-21249999D01*
X28440265Y-21273955D01*
X28429387Y-21296954D01*
X28416307Y-21318777D01*
X28401151Y-21339213D01*
X28384065Y-21358065D01*
X28365213Y-21375151D01*
X28344777Y-21390307D01*
X28322954Y-21403387D01*
X28299955Y-21414265D01*
X28275999Y-21422836D01*
X28251319Y-21429018D01*
X28226152Y-21432752D01*
X28200740Y-21434000D01*
X25919260Y-21434000D01*
X25893848Y-21432752D01*
X25868681Y-21429018D01*
X25844001Y-21422836D01*
X25820045Y-21414265D01*
X25797046Y-21403387D01*
X25775223Y-21390307D01*
X25754787Y-21375151D01*
X25735935Y-21358065D01*
X25718849Y-21339213D01*
X25703693Y-21318777D01*
X25690613Y-21296954D01*
X25679735Y-21273955D01*
X25671164Y-21249999D01*
X25664982Y-21225319D01*
X25661248Y-21200152D01*
X25660000Y-21174740D01*
X25660000Y-18293260D01*
X25661248Y-18267848D01*
X25664982Y-18242681D01*
X25671164Y-18218001D01*
X25679735Y-18194045D01*
X25690613Y-18171046D01*
X25703693Y-18149223D01*
X25718849Y-18128787D01*
X25735935Y-18109935D01*
X25754787Y-18092849D01*
X25775223Y-18077693D01*
X25797046Y-18064613D01*
X25820045Y-18053735D01*
X25844001Y-18045164D01*
X25868681Y-18038982D01*
X25893848Y-18035248D01*
X25919260Y-18034000D01*
X28200740Y-18034000D01*
X28226152Y-18035248D01*
G37*
%TD*%
%TO.C,J1*%
G36*
X12093152Y-15241248D02*
G01*
X12118319Y-15244982D01*
X12142999Y-15251164D01*
X12166955Y-15259735D01*
X12189954Y-15270613D01*
X12211777Y-15283693D01*
X12232213Y-15298849D01*
X12251065Y-15315935D01*
X12268151Y-15334787D01*
X12283307Y-15355223D01*
X12296387Y-15377046D01*
X12307265Y-15400045D01*
X12315836Y-15424001D01*
X12322018Y-15448681D01*
X12325752Y-15473848D01*
X12327000Y-15499260D01*
X12327000Y-18380740D01*
X12325752Y-18406152D01*
X12322018Y-18431319D01*
X12315836Y-18455999D01*
X12307265Y-18479955D01*
X12296387Y-18502954D01*
X12283307Y-18524777D01*
X12268151Y-18545213D01*
X12251065Y-18564065D01*
X12232213Y-18581151D01*
X12211777Y-18596307D01*
X12189954Y-18609387D01*
X12166955Y-18620265D01*
X12142999Y-18628836D01*
X12118319Y-18635018D01*
X12093152Y-18638752D01*
X12067740Y-18640000D01*
X9786260Y-18640000D01*
X9760848Y-18638752D01*
X9735681Y-18635018D01*
X9711001Y-18628836D01*
X9687045Y-18620265D01*
X9664046Y-18609387D01*
X9642223Y-18596307D01*
X9621787Y-18581151D01*
X9602935Y-18564065D01*
X9585849Y-18545213D01*
X9570693Y-18524777D01*
X9557613Y-18502954D01*
X9546735Y-18479955D01*
X9538164Y-18455999D01*
X9531982Y-18431319D01*
X9528248Y-18406152D01*
X9527000Y-18380740D01*
X9527000Y-15499260D01*
X9528248Y-15473848D01*
X9531982Y-15448681D01*
X9538164Y-15424001D01*
X9546735Y-15400045D01*
X9557613Y-15377046D01*
X9570693Y-15355223D01*
X9585849Y-15334787D01*
X9602935Y-15315935D01*
X9621787Y-15298849D01*
X9642223Y-15283693D01*
X9664046Y-15270613D01*
X9687045Y-15259735D01*
X9711001Y-15251164D01*
X9735681Y-15244982D01*
X9760848Y-15241248D01*
X9786260Y-15240000D01*
X12067740Y-15240000D01*
X12093152Y-15241248D01*
G37*
D10*
X6727000Y-16940000D03*
X10927000Y-11440000D03*
X6727000Y-11440000D03*
%TD*%
D11*
%TO.C,J6*%
G36*
X77074152Y-14592248D02*
G01*
X77099319Y-14595982D01*
X77123999Y-14602164D01*
X77147955Y-14610735D01*
X77170954Y-14621613D01*
X77192777Y-14634693D01*
X77213213Y-14649849D01*
X77232065Y-14666935D01*
X77249151Y-14685787D01*
X77264307Y-14706223D01*
X77277387Y-14728046D01*
X77288265Y-14751045D01*
X77296836Y-14775001D01*
X77303018Y-14799681D01*
X77306752Y-14824848D01*
X77308000Y-14850260D01*
X77308000Y-17731740D01*
X77306752Y-17757152D01*
X77303018Y-17782319D01*
X77296836Y-17806999D01*
X77288265Y-17830955D01*
X77277387Y-17853954D01*
X77264307Y-17875777D01*
X77249151Y-17896213D01*
X77232065Y-17915065D01*
X77213213Y-17932151D01*
X77192777Y-17947307D01*
X77170954Y-17960387D01*
X77147955Y-17971265D01*
X77123999Y-17979836D01*
X77099319Y-17986018D01*
X77074152Y-17989752D01*
X77048740Y-17991000D01*
X74767260Y-17991000D01*
X74741848Y-17989752D01*
X74716681Y-17986018D01*
X74692001Y-17979836D01*
X74668045Y-17971265D01*
X74645046Y-17960387D01*
X74623223Y-17947307D01*
X74602787Y-17932151D01*
X74583935Y-17915065D01*
X74566849Y-17896213D01*
X74551693Y-17875777D01*
X74538613Y-17853954D01*
X74527735Y-17830955D01*
X74519164Y-17806999D01*
X74512982Y-17782319D01*
X74509248Y-17757152D01*
X74508000Y-17731740D01*
X74508000Y-14850260D01*
X74509248Y-14824848D01*
X74512982Y-14799681D01*
X74519164Y-14775001D01*
X74527735Y-14751045D01*
X74538613Y-14728046D01*
X74551693Y-14706223D01*
X74566849Y-14685787D01*
X74583935Y-14666935D01*
X74602787Y-14649849D01*
X74623223Y-14634693D01*
X74645046Y-14621613D01*
X74668045Y-14610735D01*
X74692001Y-14602164D01*
X74716681Y-14595982D01*
X74741848Y-14592248D01*
X74767260Y-14591000D01*
X77048740Y-14591000D01*
X77074152Y-14592248D01*
G37*
D10*
X71708000Y-16291000D03*
X75908000Y-10791000D03*
X71708000Y-10791000D03*
%TD*%
D11*
%TO.C,J5*%
G36*
X64755152Y-14465248D02*
G01*
X64780319Y-14468982D01*
X64804999Y-14475164D01*
X64828955Y-14483735D01*
X64851954Y-14494613D01*
X64873777Y-14507693D01*
X64894213Y-14522849D01*
X64913065Y-14539935D01*
X64930151Y-14558787D01*
X64945307Y-14579223D01*
X64958387Y-14601046D01*
X64969265Y-14624045D01*
X64977836Y-14648001D01*
X64984018Y-14672681D01*
X64987752Y-14697848D01*
X64989000Y-14723260D01*
X64989000Y-17604740D01*
X64987752Y-17630152D01*
X64984018Y-17655319D01*
X64977836Y-17679999D01*
X64969265Y-17703955D01*
X64958387Y-17726954D01*
X64945307Y-17748777D01*
X64930151Y-17769213D01*
X64913065Y-17788065D01*
X64894213Y-17805151D01*
X64873777Y-17820307D01*
X64851954Y-17833387D01*
X64828955Y-17844265D01*
X64804999Y-17852836D01*
X64780319Y-17859018D01*
X64755152Y-17862752D01*
X64729740Y-17864000D01*
X62448260Y-17864000D01*
X62422848Y-17862752D01*
X62397681Y-17859018D01*
X62373001Y-17852836D01*
X62349045Y-17844265D01*
X62326046Y-17833387D01*
X62304223Y-17820307D01*
X62283787Y-17805151D01*
X62264935Y-17788065D01*
X62247849Y-17769213D01*
X62232693Y-17748777D01*
X62219613Y-17726954D01*
X62208735Y-17703955D01*
X62200164Y-17679999D01*
X62193982Y-17655319D01*
X62190248Y-17630152D01*
X62189000Y-17604740D01*
X62189000Y-14723260D01*
X62190248Y-14697848D01*
X62193982Y-14672681D01*
X62200164Y-14648001D01*
X62208735Y-14624045D01*
X62219613Y-14601046D01*
X62232693Y-14579223D01*
X62247849Y-14558787D01*
X62264935Y-14539935D01*
X62283787Y-14522849D01*
X62304223Y-14507693D01*
X62326046Y-14494613D01*
X62349045Y-14483735D01*
X62373001Y-14475164D01*
X62397681Y-14468982D01*
X62422848Y-14465248D01*
X62448260Y-14464000D01*
X64729740Y-14464000D01*
X64755152Y-14465248D01*
G37*
D10*
X59389000Y-16164000D03*
X63589000Y-10664000D03*
X59389000Y-10664000D03*
%TD*%
D11*
%TO.C,J4*%
G36*
X50586152Y-18035248D02*
G01*
X50611319Y-18038982D01*
X50635999Y-18045164D01*
X50659955Y-18053735D01*
X50682954Y-18064613D01*
X50704777Y-18077693D01*
X50725213Y-18092849D01*
X50744065Y-18109935D01*
X50761151Y-18128787D01*
X50776307Y-18149223D01*
X50789387Y-18171046D01*
X50800265Y-18194045D01*
X50808836Y-18218001D01*
X50815018Y-18242681D01*
X50818752Y-18267848D01*
X50820000Y-18293260D01*
X50820000Y-21174740D01*
X50818752Y-21200152D01*
X50815018Y-21225319D01*
X50808836Y-21249999D01*
X50800265Y-21273955D01*
X50789387Y-21296954D01*
X50776307Y-21318777D01*
X50761151Y-21339213D01*
X50744065Y-21358065D01*
X50725213Y-21375151D01*
X50704777Y-21390307D01*
X50682954Y-21403387D01*
X50659955Y-21414265D01*
X50635999Y-21422836D01*
X50611319Y-21429018D01*
X50586152Y-21432752D01*
X50560740Y-21434000D01*
X48279260Y-21434000D01*
X48253848Y-21432752D01*
X48228681Y-21429018D01*
X48204001Y-21422836D01*
X48180045Y-21414265D01*
X48157046Y-21403387D01*
X48135223Y-21390307D01*
X48114787Y-21375151D01*
X48095935Y-21358065D01*
X48078849Y-21339213D01*
X48063693Y-21318777D01*
X48050613Y-21296954D01*
X48039735Y-21273955D01*
X48031164Y-21249999D01*
X48024982Y-21225319D01*
X48021248Y-21200152D01*
X48020000Y-21174740D01*
X48020000Y-18293260D01*
X48021248Y-18267848D01*
X48024982Y-18242681D01*
X48031164Y-18218001D01*
X48039735Y-18194045D01*
X48050613Y-18171046D01*
X48063693Y-18149223D01*
X48078849Y-18128787D01*
X48095935Y-18109935D01*
X48114787Y-18092849D01*
X48135223Y-18077693D01*
X48157046Y-18064613D01*
X48180045Y-18053735D01*
X48204001Y-18045164D01*
X48228681Y-18038982D01*
X48253848Y-18035248D01*
X48279260Y-18034000D01*
X50560740Y-18034000D01*
X50586152Y-18035248D01*
G37*
D10*
X45220000Y-19734000D03*
X49420000Y-14234000D03*
X45220000Y-14234000D03*
%TD*%
D11*
%TO.C,J3*%
G36*
X39406152Y-18035248D02*
G01*
X39431319Y-18038982D01*
X39455999Y-18045164D01*
X39479955Y-18053735D01*
X39502954Y-18064613D01*
X39524777Y-18077693D01*
X39545213Y-18092849D01*
X39564065Y-18109935D01*
X39581151Y-18128787D01*
X39596307Y-18149223D01*
X39609387Y-18171046D01*
X39620265Y-18194045D01*
X39628836Y-18218001D01*
X39635018Y-18242681D01*
X39638752Y-18267848D01*
X39640000Y-18293260D01*
X39640000Y-21174740D01*
X39638752Y-21200152D01*
X39635018Y-21225319D01*
X39628836Y-21249999D01*
X39620265Y-21273955D01*
X39609387Y-21296954D01*
X39596307Y-21318777D01*
X39581151Y-21339213D01*
X39564065Y-21358065D01*
X39545213Y-21375151D01*
X39524777Y-21390307D01*
X39502954Y-21403387D01*
X39479955Y-21414265D01*
X39455999Y-21422836D01*
X39431319Y-21429018D01*
X39406152Y-21432752D01*
X39380740Y-21434000D01*
X37099260Y-21434000D01*
X37073848Y-21432752D01*
X37048681Y-21429018D01*
X37024001Y-21422836D01*
X37000045Y-21414265D01*
X36977046Y-21403387D01*
X36955223Y-21390307D01*
X36934787Y-21375151D01*
X36915935Y-21358065D01*
X36898849Y-21339213D01*
X36883693Y-21318777D01*
X36870613Y-21296954D01*
X36859735Y-21273955D01*
X36851164Y-21249999D01*
X36844982Y-21225319D01*
X36841248Y-21200152D01*
X36840000Y-21174740D01*
X36840000Y-18293260D01*
X36841248Y-18267848D01*
X36844982Y-18242681D01*
X36851164Y-18218001D01*
X36859735Y-18194045D01*
X36870613Y-18171046D01*
X36883693Y-18149223D01*
X36898849Y-18128787D01*
X36915935Y-18109935D01*
X36934787Y-18092849D01*
X36955223Y-18077693D01*
X36977046Y-18064613D01*
X37000045Y-18053735D01*
X37024001Y-18045164D01*
X37048681Y-18038982D01*
X37073848Y-18035248D01*
X37099260Y-18034000D01*
X39380740Y-18034000D01*
X39406152Y-18035248D01*
G37*
D10*
X34040000Y-19734000D03*
X38240000Y-14234000D03*
X34040000Y-14234000D03*
%TD*%
D13*
%TO.C,R1*%
X30301000Y-32394000D03*
D14*
X22681000Y-32394000D03*
%TD*%
D15*
%TO.C,D1*%
X27501000Y-28394000D03*
D16*
X24961000Y-28394000D03*
%TD*%
D11*
%TO.C,J23*%
G36*
X12011815Y-52075934D02*
G01*
X12099181Y-52088893D01*
X12184856Y-52110354D01*
X12268015Y-52140108D01*
X12347857Y-52177871D01*
X12423613Y-52223277D01*
X12494554Y-52275891D01*
X12559996Y-52335204D01*
X12619309Y-52400646D01*
X12671923Y-52471587D01*
X12717329Y-52547343D01*
X12755092Y-52627185D01*
X12784846Y-52710344D01*
X12806307Y-52796019D01*
X12819266Y-52883385D01*
X12823600Y-52971600D01*
X12823600Y-54771600D01*
X12819266Y-54859815D01*
X12806307Y-54947181D01*
X12784846Y-55032856D01*
X12755092Y-55116015D01*
X12717329Y-55195857D01*
X12671923Y-55271613D01*
X12619309Y-55342554D01*
X12559996Y-55407996D01*
X12494554Y-55467309D01*
X12423613Y-55519923D01*
X12347857Y-55565329D01*
X12268015Y-55603092D01*
X12184856Y-55632846D01*
X12099181Y-55654307D01*
X12011815Y-55667266D01*
X11923600Y-55671600D01*
X10123600Y-55671600D01*
X10035385Y-55667266D01*
X9948019Y-55654307D01*
X9862344Y-55632846D01*
X9779185Y-55603092D01*
X9699343Y-55565329D01*
X9623587Y-55519923D01*
X9552646Y-55467309D01*
X9487204Y-55407996D01*
X9427891Y-55342554D01*
X9375277Y-55271613D01*
X9329871Y-55195857D01*
X9292108Y-55116015D01*
X9262354Y-55032856D01*
X9240893Y-54947181D01*
X9227934Y-54859815D01*
X9223600Y-54771600D01*
X9223600Y-52971600D01*
X9227934Y-52883385D01*
X9240893Y-52796019D01*
X9262354Y-52710344D01*
X9292108Y-52627185D01*
X9329871Y-52547343D01*
X9375277Y-52471587D01*
X9427891Y-52400646D01*
X9487204Y-52335204D01*
X9552646Y-52275891D01*
X9623587Y-52223277D01*
X9699343Y-52177871D01*
X9779185Y-52140108D01*
X9862344Y-52110354D01*
X9948019Y-52088893D01*
X10035385Y-52075934D01*
X10123600Y-52071600D01*
X11923600Y-52071600D01*
X12011815Y-52075934D01*
G37*
G36*
X8874563Y-47375332D02*
G01*
X8949795Y-47386491D01*
X9023571Y-47404971D01*
X9095180Y-47430593D01*
X9163932Y-47463111D01*
X9229167Y-47502211D01*
X9290255Y-47547517D01*
X9346608Y-47598592D01*
X9397683Y-47654945D01*
X9442989Y-47716033D01*
X9482089Y-47781268D01*
X9514607Y-47850020D01*
X9540229Y-47921629D01*
X9558709Y-47995405D01*
X9569868Y-48070637D01*
X9573600Y-48146600D01*
X9573600Y-50196600D01*
X9569868Y-50272563D01*
X9558709Y-50347795D01*
X9540229Y-50421571D01*
X9514607Y-50493180D01*
X9482089Y-50561932D01*
X9442989Y-50627167D01*
X9397683Y-50688255D01*
X9346608Y-50744608D01*
X9290255Y-50795683D01*
X9229167Y-50840989D01*
X9163932Y-50880089D01*
X9095180Y-50912607D01*
X9023571Y-50938229D01*
X8949795Y-50956709D01*
X8874563Y-50967868D01*
X8798600Y-50971600D01*
X7248600Y-50971600D01*
X7172637Y-50967868D01*
X7097405Y-50956709D01*
X7023629Y-50938229D01*
X6952020Y-50912607D01*
X6883268Y-50880089D01*
X6818033Y-50840989D01*
X6756945Y-50795683D01*
X6700592Y-50744608D01*
X6649517Y-50688255D01*
X6604211Y-50627167D01*
X6565111Y-50561932D01*
X6532593Y-50493180D01*
X6506971Y-50421571D01*
X6488491Y-50347795D01*
X6477332Y-50272563D01*
X6473600Y-50196600D01*
X6473600Y-48146600D01*
X6477332Y-48070637D01*
X6488491Y-47995405D01*
X6506971Y-47921629D01*
X6532593Y-47850020D01*
X6565111Y-47781268D01*
X6604211Y-47716033D01*
X6649517Y-47654945D01*
X6700592Y-47598592D01*
X6756945Y-47547517D01*
X6818033Y-47502211D01*
X6883268Y-47463111D01*
X6952020Y-47430593D01*
X7023629Y-47404971D01*
X7097405Y-47386491D01*
X7172637Y-47375332D01*
X7248600Y-47371600D01*
X8798600Y-47371600D01*
X8874563Y-47375332D01*
G37*
D17*
X14023600Y-49171600D03*
%TD*%
D11*
%TO.C,J25*%
G36*
X12011815Y-77147534D02*
G01*
X12099181Y-77160493D01*
X12184856Y-77181954D01*
X12268015Y-77211708D01*
X12347857Y-77249471D01*
X12423613Y-77294877D01*
X12494554Y-77347491D01*
X12559996Y-77406804D01*
X12619309Y-77472246D01*
X12671923Y-77543187D01*
X12717329Y-77618943D01*
X12755092Y-77698785D01*
X12784846Y-77781944D01*
X12806307Y-77867619D01*
X12819266Y-77954985D01*
X12823600Y-78043200D01*
X12823600Y-79843200D01*
X12819266Y-79931415D01*
X12806307Y-80018781D01*
X12784846Y-80104456D01*
X12755092Y-80187615D01*
X12717329Y-80267457D01*
X12671923Y-80343213D01*
X12619309Y-80414154D01*
X12559996Y-80479596D01*
X12494554Y-80538909D01*
X12423613Y-80591523D01*
X12347857Y-80636929D01*
X12268015Y-80674692D01*
X12184856Y-80704446D01*
X12099181Y-80725907D01*
X12011815Y-80738866D01*
X11923600Y-80743200D01*
X10123600Y-80743200D01*
X10035385Y-80738866D01*
X9948019Y-80725907D01*
X9862344Y-80704446D01*
X9779185Y-80674692D01*
X9699343Y-80636929D01*
X9623587Y-80591523D01*
X9552646Y-80538909D01*
X9487204Y-80479596D01*
X9427891Y-80414154D01*
X9375277Y-80343213D01*
X9329871Y-80267457D01*
X9292108Y-80187615D01*
X9262354Y-80104456D01*
X9240893Y-80018781D01*
X9227934Y-79931415D01*
X9223600Y-79843200D01*
X9223600Y-78043200D01*
X9227934Y-77954985D01*
X9240893Y-77867619D01*
X9262354Y-77781944D01*
X9292108Y-77698785D01*
X9329871Y-77618943D01*
X9375277Y-77543187D01*
X9427891Y-77472246D01*
X9487204Y-77406804D01*
X9552646Y-77347491D01*
X9623587Y-77294877D01*
X9699343Y-77249471D01*
X9779185Y-77211708D01*
X9862344Y-77181954D01*
X9948019Y-77160493D01*
X10035385Y-77147534D01*
X10123600Y-77143200D01*
X11923600Y-77143200D01*
X12011815Y-77147534D01*
G37*
G36*
X8874563Y-72446932D02*
G01*
X8949795Y-72458091D01*
X9023571Y-72476571D01*
X9095180Y-72502193D01*
X9163932Y-72534711D01*
X9229167Y-72573811D01*
X9290255Y-72619117D01*
X9346608Y-72670192D01*
X9397683Y-72726545D01*
X9442989Y-72787633D01*
X9482089Y-72852868D01*
X9514607Y-72921620D01*
X9540229Y-72993229D01*
X9558709Y-73067005D01*
X9569868Y-73142237D01*
X9573600Y-73218200D01*
X9573600Y-75268200D01*
X9569868Y-75344163D01*
X9558709Y-75419395D01*
X9540229Y-75493171D01*
X9514607Y-75564780D01*
X9482089Y-75633532D01*
X9442989Y-75698767D01*
X9397683Y-75759855D01*
X9346608Y-75816208D01*
X9290255Y-75867283D01*
X9229167Y-75912589D01*
X9163932Y-75951689D01*
X9095180Y-75984207D01*
X9023571Y-76009829D01*
X8949795Y-76028309D01*
X8874563Y-76039468D01*
X8798600Y-76043200D01*
X7248600Y-76043200D01*
X7172637Y-76039468D01*
X7097405Y-76028309D01*
X7023629Y-76009829D01*
X6952020Y-75984207D01*
X6883268Y-75951689D01*
X6818033Y-75912589D01*
X6756945Y-75867283D01*
X6700592Y-75816208D01*
X6649517Y-75759855D01*
X6604211Y-75698767D01*
X6565111Y-75633532D01*
X6532593Y-75564780D01*
X6506971Y-75493171D01*
X6488491Y-75419395D01*
X6477332Y-75344163D01*
X6473600Y-75268200D01*
X6473600Y-73218200D01*
X6477332Y-73142237D01*
X6488491Y-73067005D01*
X6506971Y-72993229D01*
X6532593Y-72921620D01*
X6565111Y-72852868D01*
X6604211Y-72787633D01*
X6649517Y-72726545D01*
X6700592Y-72670192D01*
X6756945Y-72619117D01*
X6818033Y-72573811D01*
X6883268Y-72534711D01*
X6952020Y-72502193D01*
X7023629Y-72476571D01*
X7097405Y-72458091D01*
X7172637Y-72446932D01*
X7248600Y-72443200D01*
X8798600Y-72443200D01*
X8874563Y-72446932D01*
G37*
D17*
X14023600Y-74243200D03*
%TD*%
D11*
%TO.C,J24*%
G36*
X12011815Y-64611734D02*
G01*
X12099181Y-64624693D01*
X12184856Y-64646154D01*
X12268015Y-64675908D01*
X12347857Y-64713671D01*
X12423613Y-64759077D01*
X12494554Y-64811691D01*
X12559996Y-64871004D01*
X12619309Y-64936446D01*
X12671923Y-65007387D01*
X12717329Y-65083143D01*
X12755092Y-65162985D01*
X12784846Y-65246144D01*
X12806307Y-65331819D01*
X12819266Y-65419185D01*
X12823600Y-65507400D01*
X12823600Y-67307400D01*
X12819266Y-67395615D01*
X12806307Y-67482981D01*
X12784846Y-67568656D01*
X12755092Y-67651815D01*
X12717329Y-67731657D01*
X12671923Y-67807413D01*
X12619309Y-67878354D01*
X12559996Y-67943796D01*
X12494554Y-68003109D01*
X12423613Y-68055723D01*
X12347857Y-68101129D01*
X12268015Y-68138892D01*
X12184856Y-68168646D01*
X12099181Y-68190107D01*
X12011815Y-68203066D01*
X11923600Y-68207400D01*
X10123600Y-68207400D01*
X10035385Y-68203066D01*
X9948019Y-68190107D01*
X9862344Y-68168646D01*
X9779185Y-68138892D01*
X9699343Y-68101129D01*
X9623587Y-68055723D01*
X9552646Y-68003109D01*
X9487204Y-67943796D01*
X9427891Y-67878354D01*
X9375277Y-67807413D01*
X9329871Y-67731657D01*
X9292108Y-67651815D01*
X9262354Y-67568656D01*
X9240893Y-67482981D01*
X9227934Y-67395615D01*
X9223600Y-67307400D01*
X9223600Y-65507400D01*
X9227934Y-65419185D01*
X9240893Y-65331819D01*
X9262354Y-65246144D01*
X9292108Y-65162985D01*
X9329871Y-65083143D01*
X9375277Y-65007387D01*
X9427891Y-64936446D01*
X9487204Y-64871004D01*
X9552646Y-64811691D01*
X9623587Y-64759077D01*
X9699343Y-64713671D01*
X9779185Y-64675908D01*
X9862344Y-64646154D01*
X9948019Y-64624693D01*
X10035385Y-64611734D01*
X10123600Y-64607400D01*
X11923600Y-64607400D01*
X12011815Y-64611734D01*
G37*
G36*
X8874563Y-59911132D02*
G01*
X8949795Y-59922291D01*
X9023571Y-59940771D01*
X9095180Y-59966393D01*
X9163932Y-59998911D01*
X9229167Y-60038011D01*
X9290255Y-60083317D01*
X9346608Y-60134392D01*
X9397683Y-60190745D01*
X9442989Y-60251833D01*
X9482089Y-60317068D01*
X9514607Y-60385820D01*
X9540229Y-60457429D01*
X9558709Y-60531205D01*
X9569868Y-60606437D01*
X9573600Y-60682400D01*
X9573600Y-62732400D01*
X9569868Y-62808363D01*
X9558709Y-62883595D01*
X9540229Y-62957371D01*
X9514607Y-63028980D01*
X9482089Y-63097732D01*
X9442989Y-63162967D01*
X9397683Y-63224055D01*
X9346608Y-63280408D01*
X9290255Y-63331483D01*
X9229167Y-63376789D01*
X9163932Y-63415889D01*
X9095180Y-63448407D01*
X9023571Y-63474029D01*
X8949795Y-63492509D01*
X8874563Y-63503668D01*
X8798600Y-63507400D01*
X7248600Y-63507400D01*
X7172637Y-63503668D01*
X7097405Y-63492509D01*
X7023629Y-63474029D01*
X6952020Y-63448407D01*
X6883268Y-63415889D01*
X6818033Y-63376789D01*
X6756945Y-63331483D01*
X6700592Y-63280408D01*
X6649517Y-63224055D01*
X6604211Y-63162967D01*
X6565111Y-63097732D01*
X6532593Y-63028980D01*
X6506971Y-62957371D01*
X6488491Y-62883595D01*
X6477332Y-62808363D01*
X6473600Y-62732400D01*
X6473600Y-60682400D01*
X6477332Y-60606437D01*
X6488491Y-60531205D01*
X6506971Y-60457429D01*
X6532593Y-60385820D01*
X6565111Y-60317068D01*
X6604211Y-60251833D01*
X6649517Y-60190745D01*
X6700592Y-60134392D01*
X6756945Y-60083317D01*
X6818033Y-60038011D01*
X6883268Y-59998911D01*
X6952020Y-59966393D01*
X7023629Y-59940771D01*
X7097405Y-59922291D01*
X7172637Y-59911132D01*
X7248600Y-59907400D01*
X8798600Y-59907400D01*
X8874563Y-59911132D01*
G37*
D17*
X14023600Y-61707400D03*
%TD*%
D11*
%TO.C,J22*%
G36*
X12011815Y-39540134D02*
G01*
X12099181Y-39553093D01*
X12184856Y-39574554D01*
X12268015Y-39604308D01*
X12347857Y-39642071D01*
X12423613Y-39687477D01*
X12494554Y-39740091D01*
X12559996Y-39799404D01*
X12619309Y-39864846D01*
X12671923Y-39935787D01*
X12717329Y-40011543D01*
X12755092Y-40091385D01*
X12784846Y-40174544D01*
X12806307Y-40260219D01*
X12819266Y-40347585D01*
X12823600Y-40435800D01*
X12823600Y-42235800D01*
X12819266Y-42324015D01*
X12806307Y-42411381D01*
X12784846Y-42497056D01*
X12755092Y-42580215D01*
X12717329Y-42660057D01*
X12671923Y-42735813D01*
X12619309Y-42806754D01*
X12559996Y-42872196D01*
X12494554Y-42931509D01*
X12423613Y-42984123D01*
X12347857Y-43029529D01*
X12268015Y-43067292D01*
X12184856Y-43097046D01*
X12099181Y-43118507D01*
X12011815Y-43131466D01*
X11923600Y-43135800D01*
X10123600Y-43135800D01*
X10035385Y-43131466D01*
X9948019Y-43118507D01*
X9862344Y-43097046D01*
X9779185Y-43067292D01*
X9699343Y-43029529D01*
X9623587Y-42984123D01*
X9552646Y-42931509D01*
X9487204Y-42872196D01*
X9427891Y-42806754D01*
X9375277Y-42735813D01*
X9329871Y-42660057D01*
X9292108Y-42580215D01*
X9262354Y-42497056D01*
X9240893Y-42411381D01*
X9227934Y-42324015D01*
X9223600Y-42235800D01*
X9223600Y-40435800D01*
X9227934Y-40347585D01*
X9240893Y-40260219D01*
X9262354Y-40174544D01*
X9292108Y-40091385D01*
X9329871Y-40011543D01*
X9375277Y-39935787D01*
X9427891Y-39864846D01*
X9487204Y-39799404D01*
X9552646Y-39740091D01*
X9623587Y-39687477D01*
X9699343Y-39642071D01*
X9779185Y-39604308D01*
X9862344Y-39574554D01*
X9948019Y-39553093D01*
X10035385Y-39540134D01*
X10123600Y-39535800D01*
X11923600Y-39535800D01*
X12011815Y-39540134D01*
G37*
G36*
X8874563Y-34839532D02*
G01*
X8949795Y-34850691D01*
X9023571Y-34869171D01*
X9095180Y-34894793D01*
X9163932Y-34927311D01*
X9229167Y-34966411D01*
X9290255Y-35011717D01*
X9346608Y-35062792D01*
X9397683Y-35119145D01*
X9442989Y-35180233D01*
X9482089Y-35245468D01*
X9514607Y-35314220D01*
X9540229Y-35385829D01*
X9558709Y-35459605D01*
X9569868Y-35534837D01*
X9573600Y-35610800D01*
X9573600Y-37660800D01*
X9569868Y-37736763D01*
X9558709Y-37811995D01*
X9540229Y-37885771D01*
X9514607Y-37957380D01*
X9482089Y-38026132D01*
X9442989Y-38091367D01*
X9397683Y-38152455D01*
X9346608Y-38208808D01*
X9290255Y-38259883D01*
X9229167Y-38305189D01*
X9163932Y-38344289D01*
X9095180Y-38376807D01*
X9023571Y-38402429D01*
X8949795Y-38420909D01*
X8874563Y-38432068D01*
X8798600Y-38435800D01*
X7248600Y-38435800D01*
X7172637Y-38432068D01*
X7097405Y-38420909D01*
X7023629Y-38402429D01*
X6952020Y-38376807D01*
X6883268Y-38344289D01*
X6818033Y-38305189D01*
X6756945Y-38259883D01*
X6700592Y-38208808D01*
X6649517Y-38152455D01*
X6604211Y-38091367D01*
X6565111Y-38026132D01*
X6532593Y-37957380D01*
X6506971Y-37885771D01*
X6488491Y-37811995D01*
X6477332Y-37736763D01*
X6473600Y-37660800D01*
X6473600Y-35610800D01*
X6477332Y-35534837D01*
X6488491Y-35459605D01*
X6506971Y-35385829D01*
X6532593Y-35314220D01*
X6565111Y-35245468D01*
X6604211Y-35180233D01*
X6649517Y-35119145D01*
X6700592Y-35062792D01*
X6756945Y-35011717D01*
X6818033Y-34966411D01*
X6883268Y-34927311D01*
X6952020Y-34894793D01*
X7023629Y-34869171D01*
X7097405Y-34850691D01*
X7172637Y-34839532D01*
X7248600Y-34835800D01*
X8798600Y-34835800D01*
X8874563Y-34839532D01*
G37*
D17*
X14023600Y-36635800D03*
%TD*%
D11*
%TO.C,J20*%
G36*
X84963415Y-72319534D02*
G01*
X85050781Y-72332493D01*
X85136456Y-72353954D01*
X85219615Y-72383708D01*
X85299457Y-72421471D01*
X85375213Y-72466877D01*
X85446154Y-72519491D01*
X85511596Y-72578804D01*
X85570909Y-72644246D01*
X85623523Y-72715187D01*
X85668929Y-72790943D01*
X85706692Y-72870785D01*
X85736446Y-72953944D01*
X85757907Y-73039619D01*
X85770866Y-73126985D01*
X85775200Y-73215200D01*
X85775200Y-75015200D01*
X85770866Y-75103415D01*
X85757907Y-75190781D01*
X85736446Y-75276456D01*
X85706692Y-75359615D01*
X85668929Y-75439457D01*
X85623523Y-75515213D01*
X85570909Y-75586154D01*
X85511596Y-75651596D01*
X85446154Y-75710909D01*
X85375213Y-75763523D01*
X85299457Y-75808929D01*
X85219615Y-75846692D01*
X85136456Y-75876446D01*
X85050781Y-75897907D01*
X84963415Y-75910866D01*
X84875200Y-75915200D01*
X83075200Y-75915200D01*
X82986985Y-75910866D01*
X82899619Y-75897907D01*
X82813944Y-75876446D01*
X82730785Y-75846692D01*
X82650943Y-75808929D01*
X82575187Y-75763523D01*
X82504246Y-75710909D01*
X82438804Y-75651596D01*
X82379491Y-75586154D01*
X82326877Y-75515213D01*
X82281471Y-75439457D01*
X82243708Y-75359615D01*
X82213954Y-75276456D01*
X82192493Y-75190781D01*
X82179534Y-75103415D01*
X82175200Y-75015200D01*
X82175200Y-73215200D01*
X82179534Y-73126985D01*
X82192493Y-73039619D01*
X82213954Y-72953944D01*
X82243708Y-72870785D01*
X82281471Y-72790943D01*
X82326877Y-72715187D01*
X82379491Y-72644246D01*
X82438804Y-72578804D01*
X82504246Y-72519491D01*
X82575187Y-72466877D01*
X82650943Y-72421471D01*
X82730785Y-72383708D01*
X82813944Y-72353954D01*
X82899619Y-72332493D01*
X82986985Y-72319534D01*
X83075200Y-72315200D01*
X84875200Y-72315200D01*
X84963415Y-72319534D01*
G37*
G36*
X87826163Y-77018932D02*
G01*
X87901395Y-77030091D01*
X87975171Y-77048571D01*
X88046780Y-77074193D01*
X88115532Y-77106711D01*
X88180767Y-77145811D01*
X88241855Y-77191117D01*
X88298208Y-77242192D01*
X88349283Y-77298545D01*
X88394589Y-77359633D01*
X88433689Y-77424868D01*
X88466207Y-77493620D01*
X88491829Y-77565229D01*
X88510309Y-77639005D01*
X88521468Y-77714237D01*
X88525200Y-77790200D01*
X88525200Y-79840200D01*
X88521468Y-79916163D01*
X88510309Y-79991395D01*
X88491829Y-80065171D01*
X88466207Y-80136780D01*
X88433689Y-80205532D01*
X88394589Y-80270767D01*
X88349283Y-80331855D01*
X88298208Y-80388208D01*
X88241855Y-80439283D01*
X88180767Y-80484589D01*
X88115532Y-80523689D01*
X88046780Y-80556207D01*
X87975171Y-80581829D01*
X87901395Y-80600309D01*
X87826163Y-80611468D01*
X87750200Y-80615200D01*
X86200200Y-80615200D01*
X86124237Y-80611468D01*
X86049005Y-80600309D01*
X85975229Y-80581829D01*
X85903620Y-80556207D01*
X85834868Y-80523689D01*
X85769633Y-80484589D01*
X85708545Y-80439283D01*
X85652192Y-80388208D01*
X85601117Y-80331855D01*
X85555811Y-80270767D01*
X85516711Y-80205532D01*
X85484193Y-80136780D01*
X85458571Y-80065171D01*
X85440091Y-79991395D01*
X85428932Y-79916163D01*
X85425200Y-79840200D01*
X85425200Y-77790200D01*
X85428932Y-77714237D01*
X85440091Y-77639005D01*
X85458571Y-77565229D01*
X85484193Y-77493620D01*
X85516711Y-77424868D01*
X85555811Y-77359633D01*
X85601117Y-77298545D01*
X85652192Y-77242192D01*
X85708545Y-77191117D01*
X85769633Y-77145811D01*
X85834868Y-77106711D01*
X85903620Y-77074193D01*
X85975229Y-77048571D01*
X86049005Y-77030091D01*
X86124237Y-77018932D01*
X86200200Y-77015200D01*
X87750200Y-77015200D01*
X87826163Y-77018932D01*
G37*
D17*
X80975200Y-78815200D03*
%TD*%
D11*
%TO.C,J19*%
G36*
X84963415Y-59390734D02*
G01*
X85050781Y-59403693D01*
X85136456Y-59425154D01*
X85219615Y-59454908D01*
X85299457Y-59492671D01*
X85375213Y-59538077D01*
X85446154Y-59590691D01*
X85511596Y-59650004D01*
X85570909Y-59715446D01*
X85623523Y-59786387D01*
X85668929Y-59862143D01*
X85706692Y-59941985D01*
X85736446Y-60025144D01*
X85757907Y-60110819D01*
X85770866Y-60198185D01*
X85775200Y-60286400D01*
X85775200Y-62086400D01*
X85770866Y-62174615D01*
X85757907Y-62261981D01*
X85736446Y-62347656D01*
X85706692Y-62430815D01*
X85668929Y-62510657D01*
X85623523Y-62586413D01*
X85570909Y-62657354D01*
X85511596Y-62722796D01*
X85446154Y-62782109D01*
X85375213Y-62834723D01*
X85299457Y-62880129D01*
X85219615Y-62917892D01*
X85136456Y-62947646D01*
X85050781Y-62969107D01*
X84963415Y-62982066D01*
X84875200Y-62986400D01*
X83075200Y-62986400D01*
X82986985Y-62982066D01*
X82899619Y-62969107D01*
X82813944Y-62947646D01*
X82730785Y-62917892D01*
X82650943Y-62880129D01*
X82575187Y-62834723D01*
X82504246Y-62782109D01*
X82438804Y-62722796D01*
X82379491Y-62657354D01*
X82326877Y-62586413D01*
X82281471Y-62510657D01*
X82243708Y-62430815D01*
X82213954Y-62347656D01*
X82192493Y-62261981D01*
X82179534Y-62174615D01*
X82175200Y-62086400D01*
X82175200Y-60286400D01*
X82179534Y-60198185D01*
X82192493Y-60110819D01*
X82213954Y-60025144D01*
X82243708Y-59941985D01*
X82281471Y-59862143D01*
X82326877Y-59786387D01*
X82379491Y-59715446D01*
X82438804Y-59650004D01*
X82504246Y-59590691D01*
X82575187Y-59538077D01*
X82650943Y-59492671D01*
X82730785Y-59454908D01*
X82813944Y-59425154D01*
X82899619Y-59403693D01*
X82986985Y-59390734D01*
X83075200Y-59386400D01*
X84875200Y-59386400D01*
X84963415Y-59390734D01*
G37*
G36*
X87826163Y-64090132D02*
G01*
X87901395Y-64101291D01*
X87975171Y-64119771D01*
X88046780Y-64145393D01*
X88115532Y-64177911D01*
X88180767Y-64217011D01*
X88241855Y-64262317D01*
X88298208Y-64313392D01*
X88349283Y-64369745D01*
X88394589Y-64430833D01*
X88433689Y-64496068D01*
X88466207Y-64564820D01*
X88491829Y-64636429D01*
X88510309Y-64710205D01*
X88521468Y-64785437D01*
X88525200Y-64861400D01*
X88525200Y-66911400D01*
X88521468Y-66987363D01*
X88510309Y-67062595D01*
X88491829Y-67136371D01*
X88466207Y-67207980D01*
X88433689Y-67276732D01*
X88394589Y-67341967D01*
X88349283Y-67403055D01*
X88298208Y-67459408D01*
X88241855Y-67510483D01*
X88180767Y-67555789D01*
X88115532Y-67594889D01*
X88046780Y-67627407D01*
X87975171Y-67653029D01*
X87901395Y-67671509D01*
X87826163Y-67682668D01*
X87750200Y-67686400D01*
X86200200Y-67686400D01*
X86124237Y-67682668D01*
X86049005Y-67671509D01*
X85975229Y-67653029D01*
X85903620Y-67627407D01*
X85834868Y-67594889D01*
X85769633Y-67555789D01*
X85708545Y-67510483D01*
X85652192Y-67459408D01*
X85601117Y-67403055D01*
X85555811Y-67341967D01*
X85516711Y-67276732D01*
X85484193Y-67207980D01*
X85458571Y-67136371D01*
X85440091Y-67062595D01*
X85428932Y-66987363D01*
X85425200Y-66911400D01*
X85425200Y-64861400D01*
X85428932Y-64785437D01*
X85440091Y-64710205D01*
X85458571Y-64636429D01*
X85484193Y-64564820D01*
X85516711Y-64496068D01*
X85555811Y-64430833D01*
X85601117Y-64369745D01*
X85652192Y-64313392D01*
X85708545Y-64262317D01*
X85769633Y-64217011D01*
X85834868Y-64177911D01*
X85903620Y-64145393D01*
X85975229Y-64119771D01*
X86049005Y-64101291D01*
X86124237Y-64090132D01*
X86200200Y-64086400D01*
X87750200Y-64086400D01*
X87826163Y-64090132D01*
G37*
D17*
X80975200Y-65886400D03*
%TD*%
D11*
%TO.C,J18*%
G36*
X84963415Y-46461934D02*
G01*
X85050781Y-46474893D01*
X85136456Y-46496354D01*
X85219615Y-46526108D01*
X85299457Y-46563871D01*
X85375213Y-46609277D01*
X85446154Y-46661891D01*
X85511596Y-46721204D01*
X85570909Y-46786646D01*
X85623523Y-46857587D01*
X85668929Y-46933343D01*
X85706692Y-47013185D01*
X85736446Y-47096344D01*
X85757907Y-47182019D01*
X85770866Y-47269385D01*
X85775200Y-47357600D01*
X85775200Y-49157600D01*
X85770866Y-49245815D01*
X85757907Y-49333181D01*
X85736446Y-49418856D01*
X85706692Y-49502015D01*
X85668929Y-49581857D01*
X85623523Y-49657613D01*
X85570909Y-49728554D01*
X85511596Y-49793996D01*
X85446154Y-49853309D01*
X85375213Y-49905923D01*
X85299457Y-49951329D01*
X85219615Y-49989092D01*
X85136456Y-50018846D01*
X85050781Y-50040307D01*
X84963415Y-50053266D01*
X84875200Y-50057600D01*
X83075200Y-50057600D01*
X82986985Y-50053266D01*
X82899619Y-50040307D01*
X82813944Y-50018846D01*
X82730785Y-49989092D01*
X82650943Y-49951329D01*
X82575187Y-49905923D01*
X82504246Y-49853309D01*
X82438804Y-49793996D01*
X82379491Y-49728554D01*
X82326877Y-49657613D01*
X82281471Y-49581857D01*
X82243708Y-49502015D01*
X82213954Y-49418856D01*
X82192493Y-49333181D01*
X82179534Y-49245815D01*
X82175200Y-49157600D01*
X82175200Y-47357600D01*
X82179534Y-47269385D01*
X82192493Y-47182019D01*
X82213954Y-47096344D01*
X82243708Y-47013185D01*
X82281471Y-46933343D01*
X82326877Y-46857587D01*
X82379491Y-46786646D01*
X82438804Y-46721204D01*
X82504246Y-46661891D01*
X82575187Y-46609277D01*
X82650943Y-46563871D01*
X82730785Y-46526108D01*
X82813944Y-46496354D01*
X82899619Y-46474893D01*
X82986985Y-46461934D01*
X83075200Y-46457600D01*
X84875200Y-46457600D01*
X84963415Y-46461934D01*
G37*
G36*
X87826163Y-51161332D02*
G01*
X87901395Y-51172491D01*
X87975171Y-51190971D01*
X88046780Y-51216593D01*
X88115532Y-51249111D01*
X88180767Y-51288211D01*
X88241855Y-51333517D01*
X88298208Y-51384592D01*
X88349283Y-51440945D01*
X88394589Y-51502033D01*
X88433689Y-51567268D01*
X88466207Y-51636020D01*
X88491829Y-51707629D01*
X88510309Y-51781405D01*
X88521468Y-51856637D01*
X88525200Y-51932600D01*
X88525200Y-53982600D01*
X88521468Y-54058563D01*
X88510309Y-54133795D01*
X88491829Y-54207571D01*
X88466207Y-54279180D01*
X88433689Y-54347932D01*
X88394589Y-54413167D01*
X88349283Y-54474255D01*
X88298208Y-54530608D01*
X88241855Y-54581683D01*
X88180767Y-54626989D01*
X88115532Y-54666089D01*
X88046780Y-54698607D01*
X87975171Y-54724229D01*
X87901395Y-54742709D01*
X87826163Y-54753868D01*
X87750200Y-54757600D01*
X86200200Y-54757600D01*
X86124237Y-54753868D01*
X86049005Y-54742709D01*
X85975229Y-54724229D01*
X85903620Y-54698607D01*
X85834868Y-54666089D01*
X85769633Y-54626989D01*
X85708545Y-54581683D01*
X85652192Y-54530608D01*
X85601117Y-54474255D01*
X85555811Y-54413167D01*
X85516711Y-54347932D01*
X85484193Y-54279180D01*
X85458571Y-54207571D01*
X85440091Y-54133795D01*
X85428932Y-54058563D01*
X85425200Y-53982600D01*
X85425200Y-51932600D01*
X85428932Y-51856637D01*
X85440091Y-51781405D01*
X85458571Y-51707629D01*
X85484193Y-51636020D01*
X85516711Y-51567268D01*
X85555811Y-51502033D01*
X85601117Y-51440945D01*
X85652192Y-51384592D01*
X85708545Y-51333517D01*
X85769633Y-51288211D01*
X85834868Y-51249111D01*
X85903620Y-51216593D01*
X85975229Y-51190971D01*
X86049005Y-51172491D01*
X86124237Y-51161332D01*
X86200200Y-51157600D01*
X87750200Y-51157600D01*
X87826163Y-51161332D01*
G37*
D17*
X80975200Y-52957600D03*
%TD*%
D11*
%TO.C,J17*%
G36*
X84963415Y-33533134D02*
G01*
X85050781Y-33546093D01*
X85136456Y-33567554D01*
X85219615Y-33597308D01*
X85299457Y-33635071D01*
X85375213Y-33680477D01*
X85446154Y-33733091D01*
X85511596Y-33792404D01*
X85570909Y-33857846D01*
X85623523Y-33928787D01*
X85668929Y-34004543D01*
X85706692Y-34084385D01*
X85736446Y-34167544D01*
X85757907Y-34253219D01*
X85770866Y-34340585D01*
X85775200Y-34428800D01*
X85775200Y-36228800D01*
X85770866Y-36317015D01*
X85757907Y-36404381D01*
X85736446Y-36490056D01*
X85706692Y-36573215D01*
X85668929Y-36653057D01*
X85623523Y-36728813D01*
X85570909Y-36799754D01*
X85511596Y-36865196D01*
X85446154Y-36924509D01*
X85375213Y-36977123D01*
X85299457Y-37022529D01*
X85219615Y-37060292D01*
X85136456Y-37090046D01*
X85050781Y-37111507D01*
X84963415Y-37124466D01*
X84875200Y-37128800D01*
X83075200Y-37128800D01*
X82986985Y-37124466D01*
X82899619Y-37111507D01*
X82813944Y-37090046D01*
X82730785Y-37060292D01*
X82650943Y-37022529D01*
X82575187Y-36977123D01*
X82504246Y-36924509D01*
X82438804Y-36865196D01*
X82379491Y-36799754D01*
X82326877Y-36728813D01*
X82281471Y-36653057D01*
X82243708Y-36573215D01*
X82213954Y-36490056D01*
X82192493Y-36404381D01*
X82179534Y-36317015D01*
X82175200Y-36228800D01*
X82175200Y-34428800D01*
X82179534Y-34340585D01*
X82192493Y-34253219D01*
X82213954Y-34167544D01*
X82243708Y-34084385D01*
X82281471Y-34004543D01*
X82326877Y-33928787D01*
X82379491Y-33857846D01*
X82438804Y-33792404D01*
X82504246Y-33733091D01*
X82575187Y-33680477D01*
X82650943Y-33635071D01*
X82730785Y-33597308D01*
X82813944Y-33567554D01*
X82899619Y-33546093D01*
X82986985Y-33533134D01*
X83075200Y-33528800D01*
X84875200Y-33528800D01*
X84963415Y-33533134D01*
G37*
G36*
X87826163Y-38232532D02*
G01*
X87901395Y-38243691D01*
X87975171Y-38262171D01*
X88046780Y-38287793D01*
X88115532Y-38320311D01*
X88180767Y-38359411D01*
X88241855Y-38404717D01*
X88298208Y-38455792D01*
X88349283Y-38512145D01*
X88394589Y-38573233D01*
X88433689Y-38638468D01*
X88466207Y-38707220D01*
X88491829Y-38778829D01*
X88510309Y-38852605D01*
X88521468Y-38927837D01*
X88525200Y-39003800D01*
X88525200Y-41053800D01*
X88521468Y-41129763D01*
X88510309Y-41204995D01*
X88491829Y-41278771D01*
X88466207Y-41350380D01*
X88433689Y-41419132D01*
X88394589Y-41484367D01*
X88349283Y-41545455D01*
X88298208Y-41601808D01*
X88241855Y-41652883D01*
X88180767Y-41698189D01*
X88115532Y-41737289D01*
X88046780Y-41769807D01*
X87975171Y-41795429D01*
X87901395Y-41813909D01*
X87826163Y-41825068D01*
X87750200Y-41828800D01*
X86200200Y-41828800D01*
X86124237Y-41825068D01*
X86049005Y-41813909D01*
X85975229Y-41795429D01*
X85903620Y-41769807D01*
X85834868Y-41737289D01*
X85769633Y-41698189D01*
X85708545Y-41652883D01*
X85652192Y-41601808D01*
X85601117Y-41545455D01*
X85555811Y-41484367D01*
X85516711Y-41419132D01*
X85484193Y-41350380D01*
X85458571Y-41278771D01*
X85440091Y-41204995D01*
X85428932Y-41129763D01*
X85425200Y-41053800D01*
X85425200Y-39003800D01*
X85428932Y-38927837D01*
X85440091Y-38852605D01*
X85458571Y-38778829D01*
X85484193Y-38707220D01*
X85516711Y-38638468D01*
X85555811Y-38573233D01*
X85601117Y-38512145D01*
X85652192Y-38455792D01*
X85708545Y-38404717D01*
X85769633Y-38359411D01*
X85834868Y-38320311D01*
X85903620Y-38287793D01*
X85975229Y-38262171D01*
X86049005Y-38243691D01*
X86124237Y-38232532D01*
X86200200Y-38228800D01*
X87750200Y-38228800D01*
X87826163Y-38232532D01*
G37*
D17*
X80975200Y-40028800D03*
%TD*%
D11*
%TO.C,J16*%
G36*
X84988215Y-20604334D02*
G01*
X85075581Y-20617293D01*
X85161256Y-20638754D01*
X85244415Y-20668508D01*
X85324257Y-20706271D01*
X85400013Y-20751677D01*
X85470954Y-20804291D01*
X85536396Y-20863604D01*
X85595709Y-20929046D01*
X85648323Y-20999987D01*
X85693729Y-21075743D01*
X85731492Y-21155585D01*
X85761246Y-21238744D01*
X85782707Y-21324419D01*
X85795666Y-21411785D01*
X85800000Y-21500000D01*
X85800000Y-23300000D01*
X85795666Y-23388215D01*
X85782707Y-23475581D01*
X85761246Y-23561256D01*
X85731492Y-23644415D01*
X85693729Y-23724257D01*
X85648323Y-23800013D01*
X85595709Y-23870954D01*
X85536396Y-23936396D01*
X85470954Y-23995709D01*
X85400013Y-24048323D01*
X85324257Y-24093729D01*
X85244415Y-24131492D01*
X85161256Y-24161246D01*
X85075581Y-24182707D01*
X84988215Y-24195666D01*
X84900000Y-24200000D01*
X83100000Y-24200000D01*
X83011785Y-24195666D01*
X82924419Y-24182707D01*
X82838744Y-24161246D01*
X82755585Y-24131492D01*
X82675743Y-24093729D01*
X82599987Y-24048323D01*
X82529046Y-23995709D01*
X82463604Y-23936396D01*
X82404291Y-23870954D01*
X82351677Y-23800013D01*
X82306271Y-23724257D01*
X82268508Y-23644415D01*
X82238754Y-23561256D01*
X82217293Y-23475581D01*
X82204334Y-23388215D01*
X82200000Y-23300000D01*
X82200000Y-21500000D01*
X82204334Y-21411785D01*
X82217293Y-21324419D01*
X82238754Y-21238744D01*
X82268508Y-21155585D01*
X82306271Y-21075743D01*
X82351677Y-20999987D01*
X82404291Y-20929046D01*
X82463604Y-20863604D01*
X82529046Y-20804291D01*
X82599987Y-20751677D01*
X82675743Y-20706271D01*
X82755585Y-20668508D01*
X82838744Y-20638754D01*
X82924419Y-20617293D01*
X83011785Y-20604334D01*
X83100000Y-20600000D01*
X84900000Y-20600000D01*
X84988215Y-20604334D01*
G37*
G36*
X87850963Y-25303732D02*
G01*
X87926195Y-25314891D01*
X87999971Y-25333371D01*
X88071580Y-25358993D01*
X88140332Y-25391511D01*
X88205567Y-25430611D01*
X88266655Y-25475917D01*
X88323008Y-25526992D01*
X88374083Y-25583345D01*
X88419389Y-25644433D01*
X88458489Y-25709668D01*
X88491007Y-25778420D01*
X88516629Y-25850029D01*
X88535109Y-25923805D01*
X88546268Y-25999037D01*
X88550000Y-26075000D01*
X88550000Y-28125000D01*
X88546268Y-28200963D01*
X88535109Y-28276195D01*
X88516629Y-28349971D01*
X88491007Y-28421580D01*
X88458489Y-28490332D01*
X88419389Y-28555567D01*
X88374083Y-28616655D01*
X88323008Y-28673008D01*
X88266655Y-28724083D01*
X88205567Y-28769389D01*
X88140332Y-28808489D01*
X88071580Y-28841007D01*
X87999971Y-28866629D01*
X87926195Y-28885109D01*
X87850963Y-28896268D01*
X87775000Y-28900000D01*
X86225000Y-28900000D01*
X86149037Y-28896268D01*
X86073805Y-28885109D01*
X86000029Y-28866629D01*
X85928420Y-28841007D01*
X85859668Y-28808489D01*
X85794433Y-28769389D01*
X85733345Y-28724083D01*
X85676992Y-28673008D01*
X85625917Y-28616655D01*
X85580611Y-28555567D01*
X85541511Y-28490332D01*
X85508993Y-28421580D01*
X85483371Y-28349971D01*
X85464891Y-28276195D01*
X85453732Y-28200963D01*
X85450000Y-28125000D01*
X85450000Y-26075000D01*
X85453732Y-25999037D01*
X85464891Y-25923805D01*
X85483371Y-25850029D01*
X85508993Y-25778420D01*
X85541511Y-25709668D01*
X85580611Y-25644433D01*
X85625917Y-25583345D01*
X85676992Y-25526992D01*
X85733345Y-25475917D01*
X85794433Y-25430611D01*
X85859668Y-25391511D01*
X85928420Y-25358993D01*
X86000029Y-25333371D01*
X86073805Y-25314891D01*
X86149037Y-25303732D01*
X86225000Y-25300000D01*
X87775000Y-25300000D01*
X87850963Y-25303732D01*
G37*
D17*
X81000000Y-27100000D03*
%TD*%
D18*
%TO.C,J32*%
X55676800Y-75996800D03*
D11*
G36*
X58898345Y-74853073D02*
G01*
X58924008Y-74856880D01*
X58949175Y-74863184D01*
X58973602Y-74871924D01*
X58997055Y-74883016D01*
X59019307Y-74896354D01*
X59040146Y-74911809D01*
X59059369Y-74929231D01*
X59076791Y-74948454D01*
X59092246Y-74969293D01*
X59105584Y-74991545D01*
X59116676Y-75014998D01*
X59125416Y-75039425D01*
X59131720Y-75064592D01*
X59135527Y-75090255D01*
X59136800Y-75116167D01*
X59136800Y-76877433D01*
X59135527Y-76903345D01*
X59131720Y-76929008D01*
X59125416Y-76954175D01*
X59116676Y-76978602D01*
X59105584Y-77002055D01*
X59092246Y-77024307D01*
X59076791Y-77045146D01*
X59059369Y-77064369D01*
X59040146Y-77081791D01*
X59019307Y-77097246D01*
X58997055Y-77110584D01*
X58973602Y-77121676D01*
X58949175Y-77130416D01*
X58924008Y-77136720D01*
X58898345Y-77140527D01*
X58872433Y-77141800D01*
X57561167Y-77141800D01*
X57535255Y-77140527D01*
X57509592Y-77136720D01*
X57484425Y-77130416D01*
X57459998Y-77121676D01*
X57436545Y-77110584D01*
X57414293Y-77097246D01*
X57393454Y-77081791D01*
X57374231Y-77064369D01*
X57356809Y-77045146D01*
X57341354Y-77024307D01*
X57328016Y-77002055D01*
X57316924Y-76978602D01*
X57308184Y-76954175D01*
X57301880Y-76929008D01*
X57298073Y-76903345D01*
X57296800Y-76877433D01*
X57296800Y-75116167D01*
X57298073Y-75090255D01*
X57301880Y-75064592D01*
X57308184Y-75039425D01*
X57316924Y-75014998D01*
X57328016Y-74991545D01*
X57341354Y-74969293D01*
X57356809Y-74948454D01*
X57374231Y-74929231D01*
X57393454Y-74911809D01*
X57414293Y-74896354D01*
X57436545Y-74883016D01*
X57459998Y-74871924D01*
X57484425Y-74863184D01*
X57509592Y-74856880D01*
X57535255Y-74853073D01*
X57561167Y-74851800D01*
X58872433Y-74851800D01*
X58898345Y-74853073D01*
G37*
%TD*%
D19*
%TO.C,J31*%
X10617200Y-89712800D03*
D11*
G36*
X11523745Y-91334073D02*
G01*
X11549408Y-91337880D01*
X11574575Y-91344184D01*
X11599002Y-91352924D01*
X11622455Y-91364016D01*
X11644707Y-91377354D01*
X11665546Y-91392809D01*
X11684769Y-91410231D01*
X11702191Y-91429454D01*
X11717646Y-91450293D01*
X11730984Y-91472545D01*
X11742076Y-91495998D01*
X11750816Y-91520425D01*
X11757120Y-91545592D01*
X11760927Y-91571255D01*
X11762200Y-91597167D01*
X11762200Y-92908433D01*
X11760927Y-92934345D01*
X11757120Y-92960008D01*
X11750816Y-92985175D01*
X11742076Y-93009602D01*
X11730984Y-93033055D01*
X11717646Y-93055307D01*
X11702191Y-93076146D01*
X11684769Y-93095369D01*
X11665546Y-93112791D01*
X11644707Y-93128246D01*
X11622455Y-93141584D01*
X11599002Y-93152676D01*
X11574575Y-93161416D01*
X11549408Y-93167720D01*
X11523745Y-93171527D01*
X11497833Y-93172800D01*
X9736567Y-93172800D01*
X9710655Y-93171527D01*
X9684992Y-93167720D01*
X9659825Y-93161416D01*
X9635398Y-93152676D01*
X9611945Y-93141584D01*
X9589693Y-93128246D01*
X9568854Y-93112791D01*
X9549631Y-93095369D01*
X9532209Y-93076146D01*
X9516754Y-93055307D01*
X9503416Y-93033055D01*
X9492324Y-93009602D01*
X9483584Y-92985175D01*
X9477280Y-92960008D01*
X9473473Y-92934345D01*
X9472200Y-92908433D01*
X9472200Y-91597167D01*
X9473473Y-91571255D01*
X9477280Y-91545592D01*
X9483584Y-91520425D01*
X9492324Y-91495998D01*
X9503416Y-91472545D01*
X9516754Y-91450293D01*
X9532209Y-91429454D01*
X9549631Y-91410231D01*
X9568854Y-91392809D01*
X9589693Y-91377354D01*
X9611945Y-91364016D01*
X9635398Y-91352924D01*
X9659825Y-91344184D01*
X9684992Y-91337880D01*
X9710655Y-91334073D01*
X9736567Y-91332800D01*
X11497833Y-91332800D01*
X11523745Y-91334073D01*
G37*
%TD*%
D19*
%TO.C,J30*%
X10668000Y-83210400D03*
D11*
G36*
X11574545Y-84831673D02*
G01*
X11600208Y-84835480D01*
X11625375Y-84841784D01*
X11649802Y-84850524D01*
X11673255Y-84861616D01*
X11695507Y-84874954D01*
X11716346Y-84890409D01*
X11735569Y-84907831D01*
X11752991Y-84927054D01*
X11768446Y-84947893D01*
X11781784Y-84970145D01*
X11792876Y-84993598D01*
X11801616Y-85018025D01*
X11807920Y-85043192D01*
X11811727Y-85068855D01*
X11813000Y-85094767D01*
X11813000Y-86406033D01*
X11811727Y-86431945D01*
X11807920Y-86457608D01*
X11801616Y-86482775D01*
X11792876Y-86507202D01*
X11781784Y-86530655D01*
X11768446Y-86552907D01*
X11752991Y-86573746D01*
X11735569Y-86592969D01*
X11716346Y-86610391D01*
X11695507Y-86625846D01*
X11673255Y-86639184D01*
X11649802Y-86650276D01*
X11625375Y-86659016D01*
X11600208Y-86665320D01*
X11574545Y-86669127D01*
X11548633Y-86670400D01*
X9787367Y-86670400D01*
X9761455Y-86669127D01*
X9735792Y-86665320D01*
X9710625Y-86659016D01*
X9686198Y-86650276D01*
X9662745Y-86639184D01*
X9640493Y-86625846D01*
X9619654Y-86610391D01*
X9600431Y-86592969D01*
X9583009Y-86573746D01*
X9567554Y-86552907D01*
X9554216Y-86530655D01*
X9543124Y-86507202D01*
X9534384Y-86482775D01*
X9528080Y-86457608D01*
X9524273Y-86431945D01*
X9523000Y-86406033D01*
X9523000Y-85094767D01*
X9524273Y-85068855D01*
X9528080Y-85043192D01*
X9534384Y-85018025D01*
X9543124Y-84993598D01*
X9554216Y-84970145D01*
X9567554Y-84947893D01*
X9583009Y-84927054D01*
X9600431Y-84907831D01*
X9619654Y-84890409D01*
X9640493Y-84874954D01*
X9662745Y-84861616D01*
X9686198Y-84850524D01*
X9710625Y-84841784D01*
X9735792Y-84835480D01*
X9761455Y-84831673D01*
X9787367Y-84830400D01*
X11548633Y-84830400D01*
X11574545Y-84831673D01*
G37*
%TD*%
D19*
%TO.C,J29*%
X18592800Y-89712800D03*
D11*
G36*
X19499345Y-91334073D02*
G01*
X19525008Y-91337880D01*
X19550175Y-91344184D01*
X19574602Y-91352924D01*
X19598055Y-91364016D01*
X19620307Y-91377354D01*
X19641146Y-91392809D01*
X19660369Y-91410231D01*
X19677791Y-91429454D01*
X19693246Y-91450293D01*
X19706584Y-91472545D01*
X19717676Y-91495998D01*
X19726416Y-91520425D01*
X19732720Y-91545592D01*
X19736527Y-91571255D01*
X19737800Y-91597167D01*
X19737800Y-92908433D01*
X19736527Y-92934345D01*
X19732720Y-92960008D01*
X19726416Y-92985175D01*
X19717676Y-93009602D01*
X19706584Y-93033055D01*
X19693246Y-93055307D01*
X19677791Y-93076146D01*
X19660369Y-93095369D01*
X19641146Y-93112791D01*
X19620307Y-93128246D01*
X19598055Y-93141584D01*
X19574602Y-93152676D01*
X19550175Y-93161416D01*
X19525008Y-93167720D01*
X19499345Y-93171527D01*
X19473433Y-93172800D01*
X17712167Y-93172800D01*
X17686255Y-93171527D01*
X17660592Y-93167720D01*
X17635425Y-93161416D01*
X17610998Y-93152676D01*
X17587545Y-93141584D01*
X17565293Y-93128246D01*
X17544454Y-93112791D01*
X17525231Y-93095369D01*
X17507809Y-93076146D01*
X17492354Y-93055307D01*
X17479016Y-93033055D01*
X17467924Y-93009602D01*
X17459184Y-92985175D01*
X17452880Y-92960008D01*
X17449073Y-92934345D01*
X17447800Y-92908433D01*
X17447800Y-91597167D01*
X17449073Y-91571255D01*
X17452880Y-91545592D01*
X17459184Y-91520425D01*
X17467924Y-91495998D01*
X17479016Y-91472545D01*
X17492354Y-91450293D01*
X17507809Y-91429454D01*
X17525231Y-91410231D01*
X17544454Y-91392809D01*
X17565293Y-91377354D01*
X17587545Y-91364016D01*
X17610998Y-91352924D01*
X17635425Y-91344184D01*
X17660592Y-91337880D01*
X17686255Y-91334073D01*
X17712167Y-91332800D01*
X19473433Y-91332800D01*
X19499345Y-91334073D01*
G37*
%TD*%
D19*
%TO.C,J28*%
X18643600Y-83210400D03*
D11*
G36*
X19550145Y-84831673D02*
G01*
X19575808Y-84835480D01*
X19600975Y-84841784D01*
X19625402Y-84850524D01*
X19648855Y-84861616D01*
X19671107Y-84874954D01*
X19691946Y-84890409D01*
X19711169Y-84907831D01*
X19728591Y-84927054D01*
X19744046Y-84947893D01*
X19757384Y-84970145D01*
X19768476Y-84993598D01*
X19777216Y-85018025D01*
X19783520Y-85043192D01*
X19787327Y-85068855D01*
X19788600Y-85094767D01*
X19788600Y-86406033D01*
X19787327Y-86431945D01*
X19783520Y-86457608D01*
X19777216Y-86482775D01*
X19768476Y-86507202D01*
X19757384Y-86530655D01*
X19744046Y-86552907D01*
X19728591Y-86573746D01*
X19711169Y-86592969D01*
X19691946Y-86610391D01*
X19671107Y-86625846D01*
X19648855Y-86639184D01*
X19625402Y-86650276D01*
X19600975Y-86659016D01*
X19575808Y-86665320D01*
X19550145Y-86669127D01*
X19524233Y-86670400D01*
X17762967Y-86670400D01*
X17737055Y-86669127D01*
X17711392Y-86665320D01*
X17686225Y-86659016D01*
X17661798Y-86650276D01*
X17638345Y-86639184D01*
X17616093Y-86625846D01*
X17595254Y-86610391D01*
X17576031Y-86592969D01*
X17558609Y-86573746D01*
X17543154Y-86552907D01*
X17529816Y-86530655D01*
X17518724Y-86507202D01*
X17509984Y-86482775D01*
X17503680Y-86457608D01*
X17499873Y-86431945D01*
X17498600Y-86406033D01*
X17498600Y-85094767D01*
X17499873Y-85068855D01*
X17503680Y-85043192D01*
X17509984Y-85018025D01*
X17518724Y-84993598D01*
X17529816Y-84970145D01*
X17543154Y-84947893D01*
X17558609Y-84927054D01*
X17576031Y-84907831D01*
X17595254Y-84890409D01*
X17616093Y-84874954D01*
X17638345Y-84861616D01*
X17661798Y-84850524D01*
X17686225Y-84841784D01*
X17711392Y-84835480D01*
X17737055Y-84831673D01*
X17762967Y-84830400D01*
X19524233Y-84830400D01*
X19550145Y-84831673D01*
G37*
%TD*%
D18*
%TO.C,J15*%
X84429600Y-89966800D03*
D11*
G36*
X87651145Y-88823073D02*
G01*
X87676808Y-88826880D01*
X87701975Y-88833184D01*
X87726402Y-88841924D01*
X87749855Y-88853016D01*
X87772107Y-88866354D01*
X87792946Y-88881809D01*
X87812169Y-88899231D01*
X87829591Y-88918454D01*
X87845046Y-88939293D01*
X87858384Y-88961545D01*
X87869476Y-88984998D01*
X87878216Y-89009425D01*
X87884520Y-89034592D01*
X87888327Y-89060255D01*
X87889600Y-89086167D01*
X87889600Y-90847433D01*
X87888327Y-90873345D01*
X87884520Y-90899008D01*
X87878216Y-90924175D01*
X87869476Y-90948602D01*
X87858384Y-90972055D01*
X87845046Y-90994307D01*
X87829591Y-91015146D01*
X87812169Y-91034369D01*
X87792946Y-91051791D01*
X87772107Y-91067246D01*
X87749855Y-91080584D01*
X87726402Y-91091676D01*
X87701975Y-91100416D01*
X87676808Y-91106720D01*
X87651145Y-91110527D01*
X87625233Y-91111800D01*
X86313967Y-91111800D01*
X86288055Y-91110527D01*
X86262392Y-91106720D01*
X86237225Y-91100416D01*
X86212798Y-91091676D01*
X86189345Y-91080584D01*
X86167093Y-91067246D01*
X86146254Y-91051791D01*
X86127031Y-91034369D01*
X86109609Y-91015146D01*
X86094154Y-90994307D01*
X86080816Y-90972055D01*
X86069724Y-90948602D01*
X86060984Y-90924175D01*
X86054680Y-90899008D01*
X86050873Y-90873345D01*
X86049600Y-90847433D01*
X86049600Y-89086167D01*
X86050873Y-89060255D01*
X86054680Y-89034592D01*
X86060984Y-89009425D01*
X86069724Y-88984998D01*
X86080816Y-88961545D01*
X86094154Y-88939293D01*
X86109609Y-88918454D01*
X86127031Y-88899231D01*
X86146254Y-88881809D01*
X86167093Y-88866354D01*
X86189345Y-88853016D01*
X86212798Y-88841924D01*
X86237225Y-88833184D01*
X86262392Y-88826880D01*
X86288055Y-88823073D01*
X86313967Y-88821800D01*
X87625233Y-88821800D01*
X87651145Y-88823073D01*
G37*
%TD*%
D18*
%TO.C,J14*%
X78181200Y-89966800D03*
D11*
G36*
X81402745Y-88823073D02*
G01*
X81428408Y-88826880D01*
X81453575Y-88833184D01*
X81478002Y-88841924D01*
X81501455Y-88853016D01*
X81523707Y-88866354D01*
X81544546Y-88881809D01*
X81563769Y-88899231D01*
X81581191Y-88918454D01*
X81596646Y-88939293D01*
X81609984Y-88961545D01*
X81621076Y-88984998D01*
X81629816Y-89009425D01*
X81636120Y-89034592D01*
X81639927Y-89060255D01*
X81641200Y-89086167D01*
X81641200Y-90847433D01*
X81639927Y-90873345D01*
X81636120Y-90899008D01*
X81629816Y-90924175D01*
X81621076Y-90948602D01*
X81609984Y-90972055D01*
X81596646Y-90994307D01*
X81581191Y-91015146D01*
X81563769Y-91034369D01*
X81544546Y-91051791D01*
X81523707Y-91067246D01*
X81501455Y-91080584D01*
X81478002Y-91091676D01*
X81453575Y-91100416D01*
X81428408Y-91106720D01*
X81402745Y-91110527D01*
X81376833Y-91111800D01*
X80065567Y-91111800D01*
X80039655Y-91110527D01*
X80013992Y-91106720D01*
X79988825Y-91100416D01*
X79964398Y-91091676D01*
X79940945Y-91080584D01*
X79918693Y-91067246D01*
X79897854Y-91051791D01*
X79878631Y-91034369D01*
X79861209Y-91015146D01*
X79845754Y-90994307D01*
X79832416Y-90972055D01*
X79821324Y-90948602D01*
X79812584Y-90924175D01*
X79806280Y-90899008D01*
X79802473Y-90873345D01*
X79801200Y-90847433D01*
X79801200Y-89086167D01*
X79802473Y-89060255D01*
X79806280Y-89034592D01*
X79812584Y-89009425D01*
X79821324Y-88984998D01*
X79832416Y-88961545D01*
X79845754Y-88939293D01*
X79861209Y-88918454D01*
X79878631Y-88899231D01*
X79897854Y-88881809D01*
X79918693Y-88866354D01*
X79940945Y-88853016D01*
X79964398Y-88841924D01*
X79988825Y-88833184D01*
X80013992Y-88826880D01*
X80039655Y-88823073D01*
X80065567Y-88821800D01*
X81376833Y-88821800D01*
X81402745Y-88823073D01*
G37*
%TD*%
D18*
%TO.C,J13*%
X71983600Y-89966800D03*
D11*
G36*
X75205145Y-88823073D02*
G01*
X75230808Y-88826880D01*
X75255975Y-88833184D01*
X75280402Y-88841924D01*
X75303855Y-88853016D01*
X75326107Y-88866354D01*
X75346946Y-88881809D01*
X75366169Y-88899231D01*
X75383591Y-88918454D01*
X75399046Y-88939293D01*
X75412384Y-88961545D01*
X75423476Y-88984998D01*
X75432216Y-89009425D01*
X75438520Y-89034592D01*
X75442327Y-89060255D01*
X75443600Y-89086167D01*
X75443600Y-90847433D01*
X75442327Y-90873345D01*
X75438520Y-90899008D01*
X75432216Y-90924175D01*
X75423476Y-90948602D01*
X75412384Y-90972055D01*
X75399046Y-90994307D01*
X75383591Y-91015146D01*
X75366169Y-91034369D01*
X75346946Y-91051791D01*
X75326107Y-91067246D01*
X75303855Y-91080584D01*
X75280402Y-91091676D01*
X75255975Y-91100416D01*
X75230808Y-91106720D01*
X75205145Y-91110527D01*
X75179233Y-91111800D01*
X73867967Y-91111800D01*
X73842055Y-91110527D01*
X73816392Y-91106720D01*
X73791225Y-91100416D01*
X73766798Y-91091676D01*
X73743345Y-91080584D01*
X73721093Y-91067246D01*
X73700254Y-91051791D01*
X73681031Y-91034369D01*
X73663609Y-91015146D01*
X73648154Y-90994307D01*
X73634816Y-90972055D01*
X73623724Y-90948602D01*
X73614984Y-90924175D01*
X73608680Y-90899008D01*
X73604873Y-90873345D01*
X73603600Y-90847433D01*
X73603600Y-89086167D01*
X73604873Y-89060255D01*
X73608680Y-89034592D01*
X73614984Y-89009425D01*
X73623724Y-88984998D01*
X73634816Y-88961545D01*
X73648154Y-88939293D01*
X73663609Y-88918454D01*
X73681031Y-88899231D01*
X73700254Y-88881809D01*
X73721093Y-88866354D01*
X73743345Y-88853016D01*
X73766798Y-88841924D01*
X73791225Y-88833184D01*
X73816392Y-88826880D01*
X73842055Y-88823073D01*
X73867967Y-88821800D01*
X75179233Y-88821800D01*
X75205145Y-88823073D01*
G37*
%TD*%
D18*
%TO.C,J12*%
X65786000Y-90017600D03*
D11*
G36*
X69007545Y-88873873D02*
G01*
X69033208Y-88877680D01*
X69058375Y-88883984D01*
X69082802Y-88892724D01*
X69106255Y-88903816D01*
X69128507Y-88917154D01*
X69149346Y-88932609D01*
X69168569Y-88950031D01*
X69185991Y-88969254D01*
X69201446Y-88990093D01*
X69214784Y-89012345D01*
X69225876Y-89035798D01*
X69234616Y-89060225D01*
X69240920Y-89085392D01*
X69244727Y-89111055D01*
X69246000Y-89136967D01*
X69246000Y-90898233D01*
X69244727Y-90924145D01*
X69240920Y-90949808D01*
X69234616Y-90974975D01*
X69225876Y-90999402D01*
X69214784Y-91022855D01*
X69201446Y-91045107D01*
X69185991Y-91065946D01*
X69168569Y-91085169D01*
X69149346Y-91102591D01*
X69128507Y-91118046D01*
X69106255Y-91131384D01*
X69082802Y-91142476D01*
X69058375Y-91151216D01*
X69033208Y-91157520D01*
X69007545Y-91161327D01*
X68981633Y-91162600D01*
X67670367Y-91162600D01*
X67644455Y-91161327D01*
X67618792Y-91157520D01*
X67593625Y-91151216D01*
X67569198Y-91142476D01*
X67545745Y-91131384D01*
X67523493Y-91118046D01*
X67502654Y-91102591D01*
X67483431Y-91085169D01*
X67466009Y-91065946D01*
X67450554Y-91045107D01*
X67437216Y-91022855D01*
X67426124Y-90999402D01*
X67417384Y-90974975D01*
X67411080Y-90949808D01*
X67407273Y-90924145D01*
X67406000Y-90898233D01*
X67406000Y-89136967D01*
X67407273Y-89111055D01*
X67411080Y-89085392D01*
X67417384Y-89060225D01*
X67426124Y-89035798D01*
X67437216Y-89012345D01*
X67450554Y-88990093D01*
X67466009Y-88969254D01*
X67483431Y-88950031D01*
X67502654Y-88932609D01*
X67523493Y-88917154D01*
X67545745Y-88903816D01*
X67569198Y-88892724D01*
X67593625Y-88883984D01*
X67618792Y-88877680D01*
X67644455Y-88873873D01*
X67670367Y-88872600D01*
X68981633Y-88872600D01*
X69007545Y-88873873D01*
G37*
%TD*%
D20*
%TO.C,J26*%
X47802800Y-83667600D03*
X47802800Y-86207600D03*
X45262800Y-83667600D03*
X45262800Y-86207600D03*
X42722800Y-83667600D03*
X42722800Y-86207600D03*
X40182800Y-83667600D03*
D21*
X40182800Y-86207600D03*
%TD*%
D22*
%TO.C,J10*%
X50722800Y-86868000D03*
D23*
X52882800Y-84328000D03*
X52882800Y-86868000D03*
X52882800Y-89408000D03*
D24*
X52882800Y-91948000D03*
%TD*%
D22*
%TO.C,J11*%
X57987200Y-86868000D03*
D23*
X60147200Y-84328000D03*
X60147200Y-86868000D03*
X60147200Y-89408000D03*
D24*
X60147200Y-91948000D03*
%TD*%
D22*
%TO.C,J9*%
X31198700Y-86868000D03*
D23*
X33358700Y-84328000D03*
X33358700Y-86868000D03*
X33358700Y-89408000D03*
D24*
X33358700Y-91948000D03*
%TD*%
D22*
%TO.C,J8*%
X23646400Y-86868000D03*
D23*
X25806400Y-84328000D03*
X25806400Y-86868000D03*
X25806400Y-89408000D03*
D24*
X25806400Y-91948000D03*
%TD*%
D25*
%TO.C,J27*%
X46737000Y-28130000D03*
X46737000Y-32330000D03*
X46737000Y-36530000D03*
X46737000Y-40730000D03*
X46737000Y-44930000D03*
X46737000Y-49130000D03*
X46737000Y-53330000D03*
X46737000Y-57530000D03*
X46737000Y-61730000D03*
X46737000Y-65930000D03*
X46737000Y-70130000D03*
X46737000Y-74330000D03*
X41237000Y-28130000D03*
X41237000Y-32330000D03*
X41237000Y-36530000D03*
X41237000Y-40730000D03*
X41237000Y-44930000D03*
X41237000Y-49130000D03*
X41237000Y-53330000D03*
X41237000Y-57530000D03*
X41237000Y-61730000D03*
X41237000Y-65930000D03*
X41237000Y-70130000D03*
D11*
G36*
X42703152Y-72931248D02*
G01*
X42728319Y-72934982D01*
X42752999Y-72941164D01*
X42776955Y-72949735D01*
X42799954Y-72960613D01*
X42821777Y-72973693D01*
X42842213Y-72988849D01*
X42861065Y-73005935D01*
X42878151Y-73024787D01*
X42893307Y-73045223D01*
X42906387Y-73067046D01*
X42917265Y-73090045D01*
X42925836Y-73114001D01*
X42932018Y-73138681D01*
X42935752Y-73163848D01*
X42937000Y-73189260D01*
X42937000Y-75470740D01*
X42935752Y-75496152D01*
X42932018Y-75521319D01*
X42925836Y-75545999D01*
X42917265Y-75569955D01*
X42906387Y-75592954D01*
X42893307Y-75614777D01*
X42878151Y-75635213D01*
X42861065Y-75654065D01*
X42842213Y-75671151D01*
X42821777Y-75686307D01*
X42799954Y-75699387D01*
X42776955Y-75710265D01*
X42752999Y-75718836D01*
X42728319Y-75725018D01*
X42703152Y-75728752D01*
X42677740Y-75730000D01*
X39796260Y-75730000D01*
X39770848Y-75728752D01*
X39745681Y-75725018D01*
X39721001Y-75718836D01*
X39697045Y-75710265D01*
X39674046Y-75699387D01*
X39652223Y-75686307D01*
X39631787Y-75671151D01*
X39612935Y-75654065D01*
X39595849Y-75635213D01*
X39580693Y-75614777D01*
X39567613Y-75592954D01*
X39556735Y-75569955D01*
X39548164Y-75545999D01*
X39541982Y-75521319D01*
X39538248Y-75496152D01*
X39537000Y-75470740D01*
X39537000Y-73189260D01*
X39538248Y-73163848D01*
X39541982Y-73138681D01*
X39548164Y-73114001D01*
X39556735Y-73090045D01*
X39567613Y-73067046D01*
X39580693Y-73045223D01*
X39595849Y-73024787D01*
X39612935Y-73005935D01*
X39631787Y-72988849D01*
X39652223Y-72973693D01*
X39674046Y-72960613D01*
X39697045Y-72949735D01*
X39721001Y-72941164D01*
X39745681Y-72934982D01*
X39770848Y-72931248D01*
X39796260Y-72930000D01*
X42677740Y-72930000D01*
X42703152Y-72931248D01*
G37*
%TD*%
M02*
