  0
SECTION
  2
HEADER
  9
$ANGBASE
  50
0.0
  9
$ANGDIR
  70
1
  9
$MEASUREMENT
  70
1
  0
ENDSEC
  0
SECTION
  2
TABLES
  0
TABLE
  2
LTYPE
  70
4
  0
LTYPE
  5
40F
  2
CONTINUOUS
  70
0
  3
Solid line
  72
65
  73
0
  40
0.0
  0
LTYPE
  5
410
  2
DASHDOT
 70
0
  3
Dash Dot ____ _ ____ _
 72
65
 73
4
 40
2.0
 49
1.25
 49
-0.25
 49
0.25
 49
-0.25
  0
LTYPE
  5
411
  2
DASHED
 70
0
  3
Dashed __ __ __ __ __
 72
65
 73
2
 40
0.75
 49
0.5
 49
-0.25
  0
LTYPE
  5
43B
  2
DOTTED
 70
0
  3
Dotted .  .  .  .
 72
65
 73
2
 40
0.2
 49
0.0
 49
-0.2
  0
ENDTAB
  0
TABLE
  2
STYLE
  70
4
  0
STYLE
  2
KICAD
  70
0
  40
0
  41
1
  42
1
  50
0
  71
0
  3
isocp.shx
  0
STYLE
  2
KICADB
  70
0
  40
0
  41
1
  42
1
  50
0
  71
0
  3
isocp.shx
  0
STYLE
  2
KICADI
  70
0
  40
0
  41
1
  42
1
  50
15
  71
0
  3
isocp.shx
  0
STYLE
  2
KICADBI
  70
0
  40
0
  41
1
  42
1
  50
15
  71
0
  3
isocp.shx
  0
ENDTAB
  0
TABLE
  2
LAYER
  70
1
  0
LAYER
  2
BLACK
  70
0
  62
7
  6
CONTINUOUS
  0
ENDTAB
  0
ENDSEC
  0
SECTION
  2
ENTITIES
0
CIRCLE
8
BLACK
10
65.6844
20
-23.0124
40
2.05
0
CIRCLE
8
BLACK
10
28.3972
20
-71.7804
40
2.05
0
LINE
8
BLACK
6
CONTINUOUS
10
0
20
0
11
95
21
0
0
LINE
8
BLACK
6
CONTINUOUS
10
0
20
-95
11
95
21
-95
0
LINE
8
BLACK
6
CONTINUOUS
10
95
20
0
11
95
21
-95
0
LINE
8
BLACK
6
CONTINUOUS
10
0
20
0
11
0
21
-95
0
LINE
8
BLACK
6
CONTINUOUS
10
50.1728
20
-86.318
11
51.2728
21
-87.418
0
LINE
8
BLACK
6
CONTINUOUS
10
51.2728
20
-86.318
11
50.1728
21
-87.418
0
LINE
8
BLACK
6
CONTINUOUS
10
57.4372
20
-86.318
11
58.5372
21
-87.418
0
LINE
8
BLACK
6
CONTINUOUS
10
58.5372
20
-86.318
11
57.4372
21
-87.418
0
LINE
8
BLACK
6
CONTINUOUS
10
30.6487
20
-86.318
11
31.7487
21
-87.418
0
LINE
8
BLACK
6
CONTINUOUS
10
31.7487
20
-86.318
11
30.6487
21
-87.418
0
LINE
8
BLACK
6
CONTINUOUS
10
23.0964
20
-86.318
11
24.1964
21
-87.418
0
LINE
8
BLACK
6
CONTINUOUS
10
24.1964
20
-86.318
11
23.0964
21
-87.418
0
LINE
8
BLACK
6
CONTINUOUS
10
2.83928
20
-99.6821
11
2.83928
21
-96.6821
0
LINE
8
BLACK
6
CONTINUOUS
10
2.83928
20
-96.6821
11
3.55357
21
-96.6821
0
LINE
8
BLACK
6
CONTINUOUS
10
3.55357
20
-96.6821
11
3.98214
21
-96.825
0
LINE
8
BLACK
6
CONTINUOUS
10
3.98214
20
-96.825
11
4.26786
21
-97.1107
0
LINE
8
BLACK
6
CONTINUOUS
10
4.26786
20
-97.1107
11
4.41071
21
-97.3964
0
LINE
8
BLACK
6
CONTINUOUS
10
4.41071
20
-97.3964
11
4.55357
21
-97.9679
0
LINE
8
BLACK
6
CONTINUOUS
10
4.55357
20
-97.9679
11
4.55357
21
-98.3964
0
LINE
8
BLACK
6
CONTINUOUS
10
4.55357
20
-98.3964
11
4.41071
21
-98.9679
0
LINE
8
BLACK
6
CONTINUOUS
10
4.41071
20
-98.9679
11
4.26786
21
-99.2536
0
LINE
8
BLACK
6
CONTINUOUS
10
4.26786
20
-99.2536
11
3.98214
21
-99.5393
0
LINE
8
BLACK
6
CONTINUOUS
10
3.98214
20
-99.5393
11
3.55357
21
-99.6821
0
LINE
8
BLACK
6
CONTINUOUS
10
3.55357
20
-99.6821
11
2.83928
21
-99.6821
0
LINE
8
BLACK
6
CONTINUOUS
10
5.83928
20
-99.6821
11
5.83928
21
-97.6821
0
LINE
8
BLACK
6
CONTINUOUS
10
5.83928
20
-98.2536
11
5.98214
21
-97.9679
0
LINE
8
BLACK
6
CONTINUOUS
10
5.98214
20
-97.9679
11
6.125
21
-97.825
0
LINE
8
BLACK
6
CONTINUOUS
10
6.125
20
-97.825
11
6.41071
21
-97.6821
0
LINE
8
BLACK
6
CONTINUOUS
10
6.41071
20
-97.6821
11
6.69643
21
-97.6821
0
LINE
8
BLACK
6
CONTINUOUS
10
7.69643
20
-99.6821
11
7.69643
21
-97.6821
0
LINE
8
BLACK
6
CONTINUOUS
10
7.69643
20
-96.6821
11
7.55357
21
-96.825
0
LINE
8
BLACK
6
CONTINUOUS
10
7.55357
20
-96.825
11
7.69643
21
-96.9679
0
LINE
8
BLACK
6
CONTINUOUS
10
7.69643
20
-96.9679
11
7.83928
21
-96.825
0
LINE
8
BLACK
6
CONTINUOUS
10
7.83928
20
-96.825
11
7.69643
21
-96.6821
0
LINE
8
BLACK
6
CONTINUOUS
10
7.69643
20
-96.6821
11
7.69643
21
-96.9679
0
LINE
8
BLACK
6
CONTINUOUS
10
9.55357
20
-99.6821
11
9.26786
21
-99.5393
0
LINE
8
BLACK
6
CONTINUOUS
10
9.26786
20
-99.5393
11
9.125
21
-99.2536
0
LINE
8
BLACK
6
CONTINUOUS
10
9.125
20
-99.2536
11
9.125
21
-96.6821
0
LINE
8
BLACK
6
CONTINUOUS
10
11.125
20
-99.6821
11
10.8393
21
-99.5393
0
LINE
8
BLACK
6
CONTINUOUS
10
10.8393
20
-99.5393
11
10.6964
21
-99.2536
0
LINE
8
BLACK
6
CONTINUOUS
10
10.6964
20
-99.2536
11
10.6964
21
-96.6821
0
LINE
8
BLACK
6
CONTINUOUS
10
14.5536
20
-99.6821
11
14.5536
21
-96.6821
0
LINE
8
BLACK
6
CONTINUOUS
10
14.5536
20
-96.6821
11
15.5536
21
-98.825
0
LINE
8
BLACK
6
CONTINUOUS
10
15.5536
20
-98.825
11
16.5536
21
-96.6821
0
LINE
8
BLACK
6
CONTINUOUS
10
16.5536
20
-96.6821
11
16.5536
21
-99.6821
0
LINE
8
BLACK
6
CONTINUOUS
10
19.2679
20
-99.6821
11
19.2679
21
-98.1107
0
LINE
8
BLACK
6
CONTINUOUS
10
19.2679
20
-98.1107
11
19.125
21
-97.825
0
LINE
8
BLACK
6
CONTINUOUS
10
19.125
20
-97.825
11
18.8393
21
-97.6821
0
LINE
8
BLACK
6
CONTINUOUS
10
18.8393
20
-97.6821
11
18.2679
21
-97.6821
0
LINE
8
BLACK
6
CONTINUOUS
10
18.2679
20
-97.6821
11
17.9821
21
-97.825
0
LINE
8
BLACK
6
CONTINUOUS
10
19.2679
20
-99.5393
11
18.9821
21
-99.6821
0
LINE
8
BLACK
6
CONTINUOUS
10
18.9821
20
-99.6821
11
18.2679
21
-99.6821
0
LINE
8
BLACK
6
CONTINUOUS
10
18.2679
20
-99.6821
11
17.9821
21
-99.5393
0
LINE
8
BLACK
6
CONTINUOUS
10
17.9821
20
-99.5393
11
17.8393
21
-99.2536
0
LINE
8
BLACK
6
CONTINUOUS
10
17.8393
20
-99.2536
11
17.8393
21
-98.9679
0
LINE
8
BLACK
6
CONTINUOUS
10
17.8393
20
-98.9679
11
17.9821
21
-98.6821
0
LINE
8
BLACK
6
CONTINUOUS
10
17.9821
20
-98.6821
11
18.2679
21
-98.5393
0
LINE
8
BLACK
6
CONTINUOUS
10
18.2679
20
-98.5393
11
18.9821
21
-98.5393
0
LINE
8
BLACK
6
CONTINUOUS
10
18.9821
20
-98.5393
11
19.2679
21
-98.3964
0
LINE
8
BLACK
6
CONTINUOUS
10
20.6964
20
-97.6821
11
20.6964
21
-100.682
0
LINE
8
BLACK
6
CONTINUOUS
10
20.6964
20
-97.825
11
20.9821
21
-97.6821
0
LINE
8
BLACK
6
CONTINUOUS
10
20.9821
20
-97.6821
11
21.5536
21
-97.6821
0
LINE
8
BLACK
6
CONTINUOUS
10
21.5536
20
-97.6821
11
21.8393
21
-97.825
0
LINE
8
BLACK
6
CONTINUOUS
10
21.8393
20
-97.825
11
21.9821
21
-97.9679
0
LINE
8
BLACK
6
CONTINUOUS
10
21.9821
20
-97.9679
11
22.125
21
-98.2536
0
LINE
8
BLACK
6
CONTINUOUS
10
22.125
20
-98.2536
11
22.125
21
-99.1107
0
LINE
8
BLACK
6
CONTINUOUS
10
22.125
20
-99.1107
11
21.9821
21
-99.3964
0
LINE
8
BLACK
6
CONTINUOUS
10
21.9821
20
-99.3964
11
21.8393
21
-99.5393
0
LINE
8
BLACK
6
CONTINUOUS
10
21.8393
20
-99.5393
11
21.5536
21
-99.6821
0
LINE
8
BLACK
6
CONTINUOUS
10
21.5536
20
-99.6821
11
20.9821
21
-99.6821
0
LINE
8
BLACK
6
CONTINUOUS
10
20.9821
20
-99.6821
11
20.6964
21
-99.5393
0
LINE
8
BLACK
6
CONTINUOUS
10
23.4107
20
-99.3964
11
23.5536
21
-99.5393
0
LINE
8
BLACK
6
CONTINUOUS
10
23.5536
20
-99.5393
11
23.4107
21
-99.6821
0
LINE
8
BLACK
6
CONTINUOUS
10
23.4107
20
-99.6821
11
23.2679
21
-99.5393
0
LINE
8
BLACK
6
CONTINUOUS
10
23.2679
20
-99.5393
11
23.4107
21
-99.3964
0
LINE
8
BLACK
6
CONTINUOUS
10
23.4107
20
-99.3964
11
23.4107
21
-99.6821
0
LINE
8
BLACK
6
CONTINUOUS
10
23.4107
20
-97.825
11
23.5536
21
-97.9679
0
LINE
8
BLACK
6
CONTINUOUS
10
23.5536
20
-97.9679
11
23.4107
21
-98.1107
0
LINE
8
BLACK
6
CONTINUOUS
10
23.4107
20
-98.1107
11
23.2679
21
-97.9679
0
LINE
8
BLACK
6
CONTINUOUS
10
23.2679
20
-97.9679
11
23.4107
21
-97.825
0
LINE
8
BLACK
6
CONTINUOUS
10
23.4107
20
-97.825
11
23.4107
21
-98.1107
0
LINE
8
BLACK
6
CONTINUOUS
10
-1.125
20
-104.075
11
-0.025001
21
-105.175
0
LINE
8
BLACK
6
CONTINUOUS
10
-0.025001
20
-104.075
11
-1.125
21
-105.175
0
LINE
8
BLACK
6
CONTINUOUS
10
4.41071
20
-105.982
11
2.69643
21
-105.982
0
LINE
8
BLACK
6
CONTINUOUS
10
3.55357
20
-105.982
11
3.55357
21
-102.982
0
LINE
8
BLACK
6
CONTINUOUS
10
3.55357
20
-102.982
11
3.26786
21
-103.411
0
LINE
8
BLACK
6
CONTINUOUS
10
3.26786
20
-103.411
11
2.98214
21
-103.696
0
LINE
8
BLACK
6
CONTINUOUS
10
2.98214
20
-103.696
11
2.69643
21
-103.839
0
LINE
8
BLACK
6
CONTINUOUS
10
5.69643
20
-105.696
11
5.83928
21
-105.839
0
LINE
8
BLACK
6
CONTINUOUS
10
5.83928
20
-105.839
11
5.69643
21
-105.982
0
LINE
8
BLACK
6
CONTINUOUS
10
5.69643
20
-105.982
11
5.55357
21
-105.839
0
LINE
8
BLACK
6
CONTINUOUS
10
5.55357
20
-105.839
11
5.69643
21
-105.696
0
LINE
8
BLACK
6
CONTINUOUS
10
5.69643
20
-105.696
11
5.69643
21
-105.982
0
LINE
8
BLACK
6
CONTINUOUS
10
8.69643
20
-105.982
11
6.98214
21
-105.982
0
LINE
8
BLACK
6
CONTINUOUS
10
7.83928
20
-105.982
11
7.83928
21
-102.982
0
LINE
8
BLACK
6
CONTINUOUS
10
7.83928
20
-102.982
11
7.55357
21
-103.411
0
LINE
8
BLACK
6
CONTINUOUS
10
7.55357
20
-103.411
11
7.26786
21
-103.696
0
LINE
8
BLACK
6
CONTINUOUS
10
7.26786
20
-103.696
11
6.98214
21
-103.839
0
LINE
8
BLACK
6
CONTINUOUS
10
10.5536
20
-102.982
11
10.8393
21
-102.982
0
LINE
8
BLACK
6
CONTINUOUS
10
10.8393
20
-102.982
11
11.125
21
-103.125
0
LINE
8
BLACK
6
CONTINUOUS
10
11.125
20
-103.125
11
11.2679
21
-103.268
0
LINE
8
BLACK
6
CONTINUOUS
10
11.2679
20
-103.268
11
11.4107
21
-103.554
0
LINE
8
BLACK
6
CONTINUOUS
10
11.4107
20
-103.554
11
11.5536
21
-104.125
0
LINE
8
BLACK
6
CONTINUOUS
10
11.5536
20
-104.125
11
11.5536
21
-104.839
0
LINE
8
BLACK
6
CONTINUOUS
10
11.5536
20
-104.839
11
11.4107
21
-105.411
0
LINE
8
BLACK
6
CONTINUOUS
10
11.4107
20
-105.411
11
11.2679
21
-105.696
0
LINE
8
BLACK
6
CONTINUOUS
10
11.2679
20
-105.696
11
11.125
21
-105.839
0
LINE
8
BLACK
6
CONTINUOUS
10
11.125
20
-105.839
11
10.8393
21
-105.982
0
LINE
8
BLACK
6
CONTINUOUS
10
10.8393
20
-105.982
11
10.5536
21
-105.982
0
LINE
8
BLACK
6
CONTINUOUS
10
10.5536
20
-105.982
11
10.2679
21
-105.839
0
LINE
8
BLACK
6
CONTINUOUS
10
10.2679
20
-105.839
11
10.125
21
-105.696
0
LINE
8
BLACK
6
CONTINUOUS
10
10.125
20
-105.696
11
9.98214
21
-105.411
0
LINE
8
BLACK
6
CONTINUOUS
10
9.98214
20
-105.411
11
9.83928
21
-104.839
0
LINE
8
BLACK
6
CONTINUOUS
10
9.83928
20
-104.839
11
9.83928
21
-104.125
0
LINE
8
BLACK
6
CONTINUOUS
10
9.83928
20
-104.125
11
9.98214
21
-103.554
0
LINE
8
BLACK
6
CONTINUOUS
10
9.98214
20
-103.554
11
10.125
21
-103.268
0
LINE
8
BLACK
6
CONTINUOUS
10
10.125
20
-103.268
11
10.2679
21
-103.125
0
LINE
8
BLACK
6
CONTINUOUS
10
10.2679
20
-103.125
11
10.5536
21
-102.982
0
LINE
8
BLACK
6
CONTINUOUS
10
12.8393
20
-105.982
11
12.8393
21
-103.982
0
LINE
8
BLACK
6
CONTINUOUS
10
12.8393
20
-104.268
11
12.9821
21
-104.125
0
LINE
8
BLACK
6
CONTINUOUS
10
12.9821
20
-104.125
11
13.2679
21
-103.982
0
LINE
8
BLACK
6
CONTINUOUS
10
13.2679
20
-103.982
11
13.6964
21
-103.982
0
LINE
8
BLACK
6
CONTINUOUS
10
13.6964
20
-103.982
11
13.9821
21
-104.125
0
LINE
8
BLACK
6
CONTINUOUS
10
13.9821
20
-104.125
11
14.125
21
-104.411
0
LINE
8
BLACK
6
CONTINUOUS
10
14.125
20
-104.411
11
14.125
21
-105.982
0
LINE
8
BLACK
6
CONTINUOUS
10
14.125
20
-104.411
11
14.2679
21
-104.125
0
LINE
8
BLACK
6
CONTINUOUS
10
14.2679
20
-104.125
11
14.5536
21
-103.982
0
LINE
8
BLACK
6
CONTINUOUS
10
14.5536
20
-103.982
11
14.9821
21
-103.982
0
LINE
8
BLACK
6
CONTINUOUS
10
14.9821
20
-103.982
11
15.2679
21
-104.125
0
LINE
8
BLACK
6
CONTINUOUS
10
15.2679
20
-104.125
11
15.4107
21
-104.411
0
LINE
8
BLACK
6
CONTINUOUS
10
15.4107
20
-104.411
11
15.4107
21
-105.982
0
LINE
8
BLACK
6
CONTINUOUS
10
16.8393
20
-105.982
11
16.8393
21
-103.982
0
LINE
8
BLACK
6
CONTINUOUS
10
16.8393
20
-104.268
11
16.9821
21
-104.125
0
LINE
8
BLACK
6
CONTINUOUS
10
16.9821
20
-104.125
11
17.2679
21
-103.982
0
LINE
8
BLACK
6
CONTINUOUS
10
17.2679
20
-103.982
11
17.6964
21
-103.982
0
LINE
8
BLACK
6
CONTINUOUS
10
17.6964
20
-103.982
11
17.9821
21
-104.125
0
LINE
8
BLACK
6
CONTINUOUS
10
17.9821
20
-104.125
11
18.125
21
-104.411
0
LINE
8
BLACK
6
CONTINUOUS
10
18.125
20
-104.411
11
18.125
21
-105.982
0
LINE
8
BLACK
6
CONTINUOUS
10
18.125
20
-104.411
11
18.2679
21
-104.125
0
LINE
8
BLACK
6
CONTINUOUS
10
18.2679
20
-104.125
11
18.5536
21
-103.982
0
LINE
8
BLACK
6
CONTINUOUS
10
18.5536
20
-103.982
11
18.9821
21
-103.982
0
LINE
8
BLACK
6
CONTINUOUS
10
18.9821
20
-103.982
11
19.2679
21
-104.125
0
LINE
8
BLACK
6
CONTINUOUS
10
19.2679
20
-104.125
11
19.4107
21
-104.411
0
LINE
8
BLACK
6
CONTINUOUS
10
19.4107
20
-104.411
11
19.4107
21
-105.982
0
LINE
8
BLACK
6
CONTINUOUS
10
25.2679
20
-102.839
11
22.6964
21
-106.696
0
LINE
8
BLACK
6
CONTINUOUS
10
29.125
20
-102.982
11
29.4107
21
-102.982
0
LINE
8
BLACK
6
CONTINUOUS
10
29.4107
20
-102.982
11
29.6964
21
-103.125
0
LINE
8
BLACK
6
CONTINUOUS
10
29.6964
20
-103.125
11
29.8393
21
-103.268
0
LINE
8
BLACK
6
CONTINUOUS
10
29.8393
20
-103.268
11
29.9821
21
-103.554
0
LINE
8
BLACK
6
CONTINUOUS
10
29.9821
20
-103.554
11
30.125
21
-104.125
0
LINE
8
BLACK
6
CONTINUOUS
10
30.125
20
-104.125
11
30.125
21
-104.839
0
LINE
8
BLACK
6
CONTINUOUS
10
30.125
20
-104.839
11
29.9821
21
-105.411
0
LINE
8
BLACK
6
CONTINUOUS
10
29.9821
20
-105.411
11
29.8393
21
-105.696
0
LINE
8
BLACK
6
CONTINUOUS
10
29.8393
20
-105.696
11
29.6964
21
-105.839
0
LINE
8
BLACK
6
CONTINUOUS
10
29.6964
20
-105.839
11
29.4107
21
-105.982
0
LINE
8
BLACK
6
CONTINUOUS
10
29.4107
20
-105.982
11
29.125
21
-105.982
0
LINE
8
BLACK
6
CONTINUOUS
10
29.125
20
-105.982
11
28.8393
21
-105.839
0
LINE
8
BLACK
6
CONTINUOUS
10
28.8393
20
-105.839
11
28.6964
21
-105.696
0
LINE
8
BLACK
6
CONTINUOUS
10
28.6964
20
-105.696
11
28.5536
21
-105.411
0
LINE
8
BLACK
6
CONTINUOUS
10
28.5536
20
-105.411
11
28.4107
21
-104.839
0
LINE
8
BLACK
6
CONTINUOUS
10
28.4107
20
-104.839
11
28.4107
21
-104.125
0
LINE
8
BLACK
6
CONTINUOUS
10
28.4107
20
-104.125
11
28.5536
21
-103.554
0
LINE
8
BLACK
6
CONTINUOUS
10
28.5536
20
-103.554
11
28.6964
21
-103.268
0
LINE
8
BLACK
6
CONTINUOUS
10
28.6964
20
-103.268
11
28.8393
21
-103.125
0
LINE
8
BLACK
6
CONTINUOUS
10
28.8393
20
-103.125
11
29.125
21
-102.982
0
LINE
8
BLACK
6
CONTINUOUS
10
31.4107
20
-105.696
11
31.5536
21
-105.839
0
LINE
8
BLACK
6
CONTINUOUS
10
31.5536
20
-105.839
11
31.4107
21
-105.982
0
LINE
8
BLACK
6
CONTINUOUS
10
31.4107
20
-105.982
11
31.2679
21
-105.839
0
LINE
8
BLACK
6
CONTINUOUS
10
31.2679
20
-105.839
11
31.4107
21
-105.696
0
LINE
8
BLACK
6
CONTINUOUS
10
31.4107
20
-105.696
11
31.4107
21
-105.982
0
LINE
8
BLACK
6
CONTINUOUS
10
33.4107
20
-102.982
11
33.6964
21
-102.982
0
LINE
8
BLACK
6
CONTINUOUS
10
33.6964
20
-102.982
11
33.9821
21
-103.125
0
LINE
8
BLACK
6
CONTINUOUS
10
33.9821
20
-103.125
11
34.125
21
-103.268
0
LINE
8
BLACK
6
CONTINUOUS
10
34.125
20
-103.268
11
34.2679
21
-103.554
0
LINE
8
BLACK
6
CONTINUOUS
10
34.2679
20
-103.554
11
34.4107
21
-104.125
0
LINE
8
BLACK
6
CONTINUOUS
10
34.4107
20
-104.125
11
34.4107
21
-104.839
0
LINE
8
BLACK
6
CONTINUOUS
10
34.4107
20
-104.839
11
34.2679
21
-105.411
0
LINE
8
BLACK
6
CONTINUOUS
10
34.2679
20
-105.411
11
34.125
21
-105.696
0
LINE
8
BLACK
6
CONTINUOUS
10
34.125
20
-105.696
11
33.9821
21
-105.839
0
LINE
8
BLACK
6
CONTINUOUS
10
33.9821
20
-105.839
11
33.6964
21
-105.982
0
LINE
8
BLACK
6
CONTINUOUS
10
33.6964
20
-105.982
11
33.4107
21
-105.982
0
LINE
8
BLACK
6
CONTINUOUS
10
33.4107
20
-105.982
11
33.125
21
-105.839
0
LINE
8
BLACK
6
CONTINUOUS
10
33.125
20
-105.839
11
32.9821
21
-105.696
0
LINE
8
BLACK
6
CONTINUOUS
10
32.9821
20
-105.696
11
32.8393
21
-105.411
0
LINE
8
BLACK
6
CONTINUOUS
10
32.8393
20
-105.411
11
32.6964
21
-104.839
0
LINE
8
BLACK
6
CONTINUOUS
10
32.6964
20
-104.839
11
32.6964
21
-104.125
0
LINE
8
BLACK
6
CONTINUOUS
10
32.6964
20
-104.125
11
32.8393
21
-103.554
0
LINE
8
BLACK
6
CONTINUOUS
10
32.8393
20
-103.554
11
32.9821
21
-103.268
0
LINE
8
BLACK
6
CONTINUOUS
10
32.9821
20
-103.268
11
33.125
21
-103.125
0
LINE
8
BLACK
6
CONTINUOUS
10
33.125
20
-103.125
11
33.4107
21
-102.982
0
LINE
8
BLACK
6
CONTINUOUS
10
36.9821
20
-103.982
11
36.9821
21
-105.982
0
LINE
8
BLACK
6
CONTINUOUS
10
36.2679
20
-102.839
11
35.5536
21
-104.982
0
LINE
8
BLACK
6
CONTINUOUS
10
35.5536
20
-104.982
11
37.4107
21
-104.982
0
LINE
8
BLACK
6
CONTINUOUS
10
38.2679
20
-102.982
11
40.125
21
-102.982
0
LINE
8
BLACK
6
CONTINUOUS
10
40.125
20
-102.982
11
39.125
21
-104.125
0
LINE
8
BLACK
6
CONTINUOUS
10
39.125
20
-104.125
11
39.5536
21
-104.125
0
LINE
8
BLACK
6
CONTINUOUS
10
39.5536
20
-104.125
11
39.8393
21
-104.268
0
LINE
8
BLACK
6
CONTINUOUS
10
39.8393
20
-104.268
11
39.9821
21
-104.411
0
LINE
8
BLACK
6
CONTINUOUS
10
39.9821
20
-104.411
11
40.125
21
-104.696
0
LINE
8
BLACK
6
CONTINUOUS
10
40.125
20
-104.696
11
40.125
21
-105.411
0
LINE
8
BLACK
6
CONTINUOUS
10
40.125
20
-105.411
11
39.9821
21
-105.696
0
LINE
8
BLACK
6
CONTINUOUS
10
39.9821
20
-105.696
11
39.8393
21
-105.839
0
LINE
8
BLACK
6
CONTINUOUS
10
39.8393
20
-105.839
11
39.5536
21
-105.982
0
LINE
8
BLACK
6
CONTINUOUS
10
39.5536
20
-105.982
11
38.6964
21
-105.982
0
LINE
8
BLACK
6
CONTINUOUS
10
38.6964
20
-105.982
11
38.4107
21
-105.839
0
LINE
8
BLACK
6
CONTINUOUS
10
38.4107
20
-105.839
11
38.2679
21
-105.696
0
LINE
8
BLACK
6
CONTINUOUS
10
41.2679
20
-102.982
11
41.2679
21
-103.554
0
LINE
8
BLACK
6
CONTINUOUS
10
42.4107
20
-102.982
11
42.4107
21
-103.554
0
LINE
8
BLACK
6
CONTINUOUS
10
46.8393
20
-107.125
11
46.6964
21
-106.982
0
LINE
8
BLACK
6
CONTINUOUS
10
46.6964
20
-106.982
11
46.4107
21
-106.554
0
LINE
8
BLACK
6
CONTINUOUS
10
46.4107
20
-106.554
11
46.2679
21
-106.268
0
LINE
8
BLACK
6
CONTINUOUS
10
46.2679
20
-106.268
11
46.125
21
-105.839
0
LINE
8
BLACK
6
CONTINUOUS
10
46.125
20
-105.839
11
45.9821
21
-105.125
0
LINE
8
BLACK
6
CONTINUOUS
10
45.9821
20
-105.125
11
45.9821
21
-104.554
0
LINE
8
BLACK
6
CONTINUOUS
10
45.9821
20
-104.554
11
46.125
21
-103.839
0
LINE
8
BLACK
6
CONTINUOUS
10
46.125
20
-103.839
11
46.2679
21
-103.411
0
LINE
8
BLACK
6
CONTINUOUS
10
46.2679
20
-103.411
11
46.4107
21
-103.125
0
LINE
8
BLACK
6
CONTINUOUS
10
46.4107
20
-103.125
11
46.6964
21
-102.696
0
LINE
8
BLACK
6
CONTINUOUS
10
46.6964
20
-102.696
11
46.8393
21
-102.554
0
LINE
8
BLACK
6
CONTINUOUS
10
49.2679
20
-103.982
11
49.2679
21
-105.982
0
LINE
8
BLACK
6
CONTINUOUS
10
48.5536
20
-102.839
11
47.8393
21
-104.982
0
LINE
8
BLACK
6
CONTINUOUS
10
47.8393
20
-104.982
11
49.6964
21
-104.982
0
LINE
8
BLACK
6
CONTINUOUS
10
53.125
20
-105.982
11
53.125
21
-102.982
0
LINE
8
BLACK
6
CONTINUOUS
10
54.4107
20
-105.982
11
54.4107
21
-104.411
0
LINE
8
BLACK
6
CONTINUOUS
10
54.4107
20
-104.411
11
54.2679
21
-104.125
0
LINE
8
BLACK
6
CONTINUOUS
10
54.2679
20
-104.125
11
53.9821
21
-103.982
0
LINE
8
BLACK
6
CONTINUOUS
10
53.9821
20
-103.982
11
53.5536
21
-103.982
0
LINE
8
BLACK
6
CONTINUOUS
10
53.5536
20
-103.982
11
53.2679
21
-104.125
0
LINE
8
BLACK
6
CONTINUOUS
10
53.2679
20
-104.125
11
53.125
21
-104.268
0
LINE
8
BLACK
6
CONTINUOUS
10
56.2679
20
-105.982
11
55.9821
21
-105.839
0
LINE
8
BLACK
6
CONTINUOUS
10
55.9821
20
-105.839
11
55.8393
21
-105.696
0
LINE
8
BLACK
6
CONTINUOUS
10
55.8393
20
-105.696
11
55.6964
21
-105.411
0
LINE
8
BLACK
6
CONTINUOUS
10
55.6964
20
-105.411
11
55.6964
21
-104.554
0
LINE
8
BLACK
6
CONTINUOUS
10
55.6964
20
-104.554
11
55.8393
21
-104.268
0
LINE
8
BLACK
6
CONTINUOUS
10
55.8393
20
-104.268
11
55.9821
21
-104.125
0
LINE
8
BLACK
6
CONTINUOUS
10
55.9821
20
-104.125
11
56.2679
21
-103.982
0
LINE
8
BLACK
6
CONTINUOUS
10
56.2679
20
-103.982
11
56.6964
21
-103.982
0
LINE
8
BLACK
6
CONTINUOUS
10
56.6964
20
-103.982
11
56.9821
21
-104.125
0
LINE
8
BLACK
6
CONTINUOUS
10
56.9821
20
-104.125
11
57.125
21
-104.268
0
LINE
8
BLACK
6
CONTINUOUS
10
57.125
20
-104.268
11
57.2679
21
-104.554
0
LINE
8
BLACK
6
CONTINUOUS
10
57.2679
20
-104.554
11
57.2679
21
-105.411
0
LINE
8
BLACK
6
CONTINUOUS
10
57.2679
20
-105.411
11
57.125
21
-105.696
0
LINE
8
BLACK
6
CONTINUOUS
10
57.125
20
-105.696
11
56.9821
21
-105.839
0
LINE
8
BLACK
6
CONTINUOUS
10
56.9821
20
-105.839
11
56.6964
21
-105.982
0
LINE
8
BLACK
6
CONTINUOUS
10
56.6964
20
-105.982
11
56.2679
21
-105.982
0
LINE
8
BLACK
6
CONTINUOUS
10
58.9821
20
-105.982
11
58.6964
21
-105.839
0
LINE
8
BLACK
6
CONTINUOUS
10
58.6964
20
-105.839
11
58.5536
21
-105.554
0
LINE
8
BLACK
6
CONTINUOUS
10
58.5536
20
-105.554
11
58.5536
21
-102.982
0
LINE
8
BLACK
6
CONTINUOUS
10
61.2679
20
-105.839
11
60.9821
21
-105.982
0
LINE
8
BLACK
6
CONTINUOUS
10
60.9821
20
-105.982
11
60.4107
21
-105.982
0
LINE
8
BLACK
6
CONTINUOUS
10
60.4107
20
-105.982
11
60.125
21
-105.839
0
LINE
8
BLACK
6
CONTINUOUS
10
60.125
20
-105.839
11
59.9821
21
-105.554
0
LINE
8
BLACK
6
CONTINUOUS
10
59.9821
20
-105.554
11
59.9821
21
-104.411
0
LINE
8
BLACK
6
CONTINUOUS
10
59.9821
20
-104.411
11
60.125
21
-104.125
0
LINE
8
BLACK
6
CONTINUOUS
10
60.125
20
-104.125
11
60.4107
21
-103.982
0
LINE
8
BLACK
6
CONTINUOUS
10
60.4107
20
-103.982
11
60.9821
21
-103.982
0
LINE
8
BLACK
6
CONTINUOUS
10
60.9821
20
-103.982
11
61.2679
21
-104.125
0
LINE
8
BLACK
6
CONTINUOUS
10
61.2679
20
-104.125
11
61.4107
21
-104.411
0
LINE
8
BLACK
6
CONTINUOUS
10
61.4107
20
-104.411
11
61.4107
21
-104.696
0
LINE
8
BLACK
6
CONTINUOUS
10
61.4107
20
-104.696
11
59.9821
21
-104.982
0
LINE
8
BLACK
6
CONTINUOUS
10
62.5536
20
-105.839
11
62.8393
21
-105.982
0
LINE
8
BLACK
6
CONTINUOUS
10
62.8393
20
-105.982
11
63.4107
21
-105.982
0
LINE
8
BLACK
6
CONTINUOUS
10
63.4107
20
-105.982
11
63.6964
21
-105.839
0
LINE
8
BLACK
6
CONTINUOUS
10
63.6964
20
-105.839
11
63.8393
21
-105.554
0
LINE
8
BLACK
6
CONTINUOUS
10
63.8393
20
-105.554
11
63.8393
21
-105.411
0
LINE
8
BLACK
6
CONTINUOUS
10
63.8393
20
-105.411
11
63.6964
21
-105.125
0
LINE
8
BLACK
6
CONTINUOUS
10
63.6964
20
-105.125
11
63.4107
21
-104.982
0
LINE
8
BLACK
6
CONTINUOUS
10
63.4107
20
-104.982
11
62.9821
21
-104.982
0
LINE
8
BLACK
6
CONTINUOUS
10
62.9821
20
-104.982
11
62.6964
21
-104.839
0
LINE
8
BLACK
6
CONTINUOUS
10
62.6964
20
-104.839
11
62.5536
21
-104.554
0
LINE
8
BLACK
6
CONTINUOUS
10
62.5536
20
-104.554
11
62.5536
21
-104.411
0
LINE
8
BLACK
6
CONTINUOUS
10
62.5536
20
-104.411
11
62.6964
21
-104.125
0
LINE
8
BLACK
6
CONTINUOUS
10
62.6964
20
-104.125
11
62.9821
21
-103.982
0
LINE
8
BLACK
6
CONTINUOUS
10
62.9821
20
-103.982
11
63.4107
21
-103.982
0
LINE
8
BLACK
6
CONTINUOUS
10
63.4107
20
-103.982
11
63.6964
21
-104.125
0
LINE
8
BLACK
6
CONTINUOUS
10
64.8393
20
-107.125
11
64.9821
21
-106.982
0
LINE
8
BLACK
6
CONTINUOUS
10
64.9821
20
-106.982
11
65.2679
21
-106.554
0
LINE
8
BLACK
6
CONTINUOUS
10
65.2679
20
-106.554
11
65.4107
21
-106.268
0
LINE
8
BLACK
6
CONTINUOUS
10
65.4107
20
-106.268
11
65.5536
21
-105.839
0
LINE
8
BLACK
6
CONTINUOUS
10
65.5536
20
-105.839
11
65.6964
21
-105.125
0
LINE
8
BLACK
6
CONTINUOUS
10
65.6964
20
-105.125
11
65.6964
21
-104.554
0
LINE
8
BLACK
6
CONTINUOUS
10
65.6964
20
-104.554
11
65.5536
21
-103.839
0
LINE
8
BLACK
6
CONTINUOUS
10
65.5536
20
-103.839
11
65.4107
21
-103.411
0
LINE
8
BLACK
6
CONTINUOUS
10
65.4107
20
-103.411
11
65.2679
21
-103.125
0
LINE
8
BLACK
6
CONTINUOUS
10
65.2679
20
-103.125
11
64.9821
21
-102.696
0
LINE
8
BLACK
6
CONTINUOUS
10
64.9821
20
-102.696
11
64.8393
21
-102.554
0
LINE
8
BLACK
6
CONTINUOUS
10
70.2679
20
-107.125
11
70.125
21
-106.982
0
LINE
8
BLACK
6
CONTINUOUS
10
70.125
20
-106.982
11
69.8393
21
-106.554
0
LINE
8
BLACK
6
CONTINUOUS
10
69.8393
20
-106.554
11
69.6964
21
-106.268
0
LINE
8
BLACK
6
CONTINUOUS
10
69.6964
20
-106.268
11
69.5536
21
-105.839
0
LINE
8
BLACK
6
CONTINUOUS
10
69.5536
20
-105.839
11
69.4107
21
-105.125
0
LINE
8
BLACK
6
CONTINUOUS
10
69.4107
20
-105.125
11
69.4107
21
-104.554
0
LINE
8
BLACK
6
CONTINUOUS
10
69.4107
20
-104.554
11
69.5536
21
-103.839
0
LINE
8
BLACK
6
CONTINUOUS
10
69.5536
20
-103.839
11
69.6964
21
-103.411
0
LINE
8
BLACK
6
CONTINUOUS
10
69.6964
20
-103.411
11
69.8393
21
-103.125
0
LINE
8
BLACK
6
CONTINUOUS
10
69.8393
20
-103.125
11
70.125
21
-102.696
0
LINE
8
BLACK
6
CONTINUOUS
10
70.125
20
-102.696
11
70.2679
21
-102.554
0
LINE
8
BLACK
6
CONTINUOUS
10
71.4107
20
-103.982
11
71.4107
21
-105.982
0
LINE
8
BLACK
6
CONTINUOUS
10
71.4107
20
-104.268
11
71.5536
21
-104.125
0
LINE
8
BLACK
6
CONTINUOUS
10
71.5536
20
-104.125
11
71.8393
21
-103.982
0
LINE
8
BLACK
6
CONTINUOUS
10
71.8393
20
-103.982
11
72.2679
21
-103.982
0
LINE
8
BLACK
6
CONTINUOUS
10
72.2679
20
-103.982
11
72.5536
21
-104.125
0
LINE
8
BLACK
6
CONTINUOUS
10
72.5536
20
-104.125
11
72.6964
21
-104.411
0
LINE
8
BLACK
6
CONTINUOUS
10
72.6964
20
-104.411
11
72.6964
21
-105.982
0
LINE
8
BLACK
6
CONTINUOUS
10
74.5536
20
-105.982
11
74.2679
21
-105.839
0
LINE
8
BLACK
6
CONTINUOUS
10
74.2679
20
-105.839
11
74.125
21
-105.696
0
LINE
8
BLACK
6
CONTINUOUS
10
74.125
20
-105.696
11
73.9821
21
-105.411
0
LINE
8
BLACK
6
CONTINUOUS
10
73.9821
20
-105.411
11
73.9821
21
-104.554
0
LINE
8
BLACK
6
CONTINUOUS
10
73.9821
20
-104.554
11
74.125
21
-104.268
0
LINE
8
BLACK
6
CONTINUOUS
10
74.125
20
-104.268
11
74.2679
21
-104.125
0
LINE
8
BLACK
6
CONTINUOUS
10
74.2679
20
-104.125
11
74.5536
21
-103.982
0
LINE
8
BLACK
6
CONTINUOUS
10
74.5536
20
-103.982
11
74.9821
21
-103.982
0
LINE
8
BLACK
6
CONTINUOUS
10
74.9821
20
-103.982
11
75.2679
21
-104.125
0
LINE
8
BLACK
6
CONTINUOUS
10
75.2679
20
-104.125
11
75.4107
21
-104.268
0
LINE
8
BLACK
6
CONTINUOUS
10
75.4107
20
-104.268
11
75.5536
21
-104.554
0
LINE
8
BLACK
6
CONTINUOUS
10
75.5536
20
-104.554
11
75.5536
21
-105.411
0
LINE
8
BLACK
6
CONTINUOUS
10
75.5536
20
-105.411
11
75.4107
21
-105.696
0
LINE
8
BLACK
6
CONTINUOUS
10
75.4107
20
-105.696
11
75.2679
21
-105.839
0
LINE
8
BLACK
6
CONTINUOUS
10
75.2679
20
-105.839
11
74.9821
21
-105.982
0
LINE
8
BLACK
6
CONTINUOUS
10
74.9821
20
-105.982
11
74.5536
21
-105.982
0
LINE
8
BLACK
6
CONTINUOUS
10
76.4107
20
-103.982
11
77.5536
21
-103.982
0
LINE
8
BLACK
6
CONTINUOUS
10
76.8393
20
-102.982
11
76.8393
21
-105.554
0
LINE
8
BLACK
6
CONTINUOUS
10
76.8393
20
-105.554
11
76.9821
21
-105.839
0
LINE
8
BLACK
6
CONTINUOUS
10
76.9821
20
-105.839
11
77.2679
21
-105.982
0
LINE
8
BLACK
6
CONTINUOUS
10
77.2679
20
-105.982
11
77.5536
21
-105.982
0
LINE
8
BLACK
6
CONTINUOUS
10
80.8393
20
-103.982
11
80.8393
21
-106.982
0
LINE
8
BLACK
6
CONTINUOUS
10
80.8393
20
-104.125
11
81.125
21
-103.982
0
LINE
8
BLACK
6
CONTINUOUS
10
81.125
20
-103.982
11
81.6964
21
-103.982
0
LINE
8
BLACK
6
CONTINUOUS
10
81.6964
20
-103.982
11
81.9821
21
-104.125
0
LINE
8
BLACK
6
CONTINUOUS
10
81.9821
20
-104.125
11
82.125
21
-104.268
0
LINE
8
BLACK
6
CONTINUOUS
10
82.125
20
-104.268
11
82.2679
21
-104.554
0
LINE
8
BLACK
6
CONTINUOUS
10
82.2679
20
-104.554
11
82.2679
21
-105.411
0
LINE
8
BLACK
6
CONTINUOUS
10
82.2679
20
-105.411
11
82.125
21
-105.696
0
LINE
8
BLACK
6
CONTINUOUS
10
82.125
20
-105.696
11
81.9821
21
-105.839
0
LINE
8
BLACK
6
CONTINUOUS
10
81.9821
20
-105.839
11
81.6964
21
-105.982
0
LINE
8
BLACK
6
CONTINUOUS
10
81.6964
20
-105.982
11
81.125
21
-105.982
0
LINE
8
BLACK
6
CONTINUOUS
10
81.125
20
-105.982
11
80.8393
21
-105.839
0
LINE
8
BLACK
6
CONTINUOUS
10
83.9821
20
-105.982
11
83.6964
21
-105.839
0
LINE
8
BLACK
6
CONTINUOUS
10
83.6964
20
-105.839
11
83.5536
21
-105.554
0
LINE
8
BLACK
6
CONTINUOUS
10
83.5536
20
-105.554
11
83.5536
21
-102.982
0
LINE
8
BLACK
6
CONTINUOUS
10
86.4107
20
-105.982
11
86.4107
21
-104.411
0
LINE
8
BLACK
6
CONTINUOUS
10
86.4107
20
-104.411
11
86.2679
21
-104.125
0
LINE
8
BLACK
6
CONTINUOUS
10
86.2679
20
-104.125
11
85.9821
21
-103.982
0
LINE
8
BLACK
6
CONTINUOUS
10
85.9821
20
-103.982
11
85.4107
21
-103.982
0
LINE
8
BLACK
6
CONTINUOUS
10
85.4107
20
-103.982
11
85.125
21
-104.125
0
LINE
8
BLACK
6
CONTINUOUS
10
86.4107
20
-105.839
11
86.125
21
-105.982
0
LINE
8
BLACK
6
CONTINUOUS
10
86.125
20
-105.982
11
85.4107
21
-105.982
0
LINE
8
BLACK
6
CONTINUOUS
10
85.4107
20
-105.982
11
85.125
21
-105.839
0
LINE
8
BLACK
6
CONTINUOUS
10
85.125
20
-105.839
11
84.9821
21
-105.554
0
LINE
8
BLACK
6
CONTINUOUS
10
84.9821
20
-105.554
11
84.9821
21
-105.268
0
LINE
8
BLACK
6
CONTINUOUS
10
84.9821
20
-105.268
11
85.125
21
-104.982
0
LINE
8
BLACK
6
CONTINUOUS
10
85.125
20
-104.982
11
85.4107
21
-104.839
0
LINE
8
BLACK
6
CONTINUOUS
10
85.4107
20
-104.839
11
86.125
21
-104.839
0
LINE
8
BLACK
6
CONTINUOUS
10
86.125
20
-104.839
11
86.4107
21
-104.696
0
LINE
8
BLACK
6
CONTINUOUS
10
87.4107
20
-103.982
11
88.5536
21
-103.982
0
LINE
8
BLACK
6
CONTINUOUS
10
87.8393
20
-102.982
11
87.8393
21
-105.554
0
LINE
8
BLACK
6
CONTINUOUS
10
87.8393
20
-105.554
11
87.9821
21
-105.839
0
LINE
8
BLACK
6
CONTINUOUS
10
87.9821
20
-105.839
11
88.2679
21
-105.982
0
LINE
8
BLACK
6
CONTINUOUS
10
88.2679
20
-105.982
11
88.5536
21
-105.982
0
LINE
8
BLACK
6
CONTINUOUS
10
90.6964
20
-105.839
11
90.4107
21
-105.982
0
LINE
8
BLACK
6
CONTINUOUS
10
90.4107
20
-105.982
11
89.8393
21
-105.982
0
LINE
8
BLACK
6
CONTINUOUS
10
89.8393
20
-105.982
11
89.5536
21
-105.839
0
LINE
8
BLACK
6
CONTINUOUS
10
89.5536
20
-105.839
11
89.4107
21
-105.554
0
LINE
8
BLACK
6
CONTINUOUS
10
89.4107
20
-105.554
11
89.4107
21
-104.411
0
LINE
8
BLACK
6
CONTINUOUS
10
89.4107
20
-104.411
11
89.5536
21
-104.125
0
LINE
8
BLACK
6
CONTINUOUS
10
89.5536
20
-104.125
11
89.8393
21
-103.982
0
LINE
8
BLACK
6
CONTINUOUS
10
89.8393
20
-103.982
11
90.4107
21
-103.982
0
LINE
8
BLACK
6
CONTINUOUS
10
90.4107
20
-103.982
11
90.6964
21
-104.125
0
LINE
8
BLACK
6
CONTINUOUS
10
90.6964
20
-104.125
11
90.8393
21
-104.411
0
LINE
8
BLACK
6
CONTINUOUS
10
90.8393
20
-104.411
11
90.8393
21
-104.696
0
LINE
8
BLACK
6
CONTINUOUS
10
90.8393
20
-104.696
11
89.4107
21
-104.982
0
LINE
8
BLACK
6
CONTINUOUS
10
93.4107
20
-105.982
11
93.4107
21
-102.982
0
LINE
8
BLACK
6
CONTINUOUS
10
93.4107
20
-105.839
11
93.125
21
-105.982
0
LINE
8
BLACK
6
CONTINUOUS
10
93.125
20
-105.982
11
92.5536
21
-105.982
0
LINE
8
BLACK
6
CONTINUOUS
10
92.5536
20
-105.982
11
92.2679
21
-105.839
0
LINE
8
BLACK
6
CONTINUOUS
10
92.2679
20
-105.839
11
92.125
21
-105.696
0
LINE
8
BLACK
6
CONTINUOUS
10
92.125
20
-105.696
11
91.9821
21
-105.411
0
LINE
8
BLACK
6
CONTINUOUS
10
91.9821
20
-105.411
11
91.9821
21
-104.554
0
LINE
8
BLACK
6
CONTINUOUS
10
91.9821
20
-104.554
11
92.125
21
-104.268
0
LINE
8
BLACK
6
CONTINUOUS
10
92.125
20
-104.268
11
92.2679
21
-104.125
0
LINE
8
BLACK
6
CONTINUOUS
10
92.2679
20
-104.125
11
92.5536
21
-103.982
0
LINE
8
BLACK
6
CONTINUOUS
10
92.5536
20
-103.982
11
93.125
21
-103.982
0
LINE
8
BLACK
6
CONTINUOUS
10
93.125
20
-103.982
11
93.4107
21
-104.125
0
LINE
8
BLACK
6
CONTINUOUS
10
94.5536
20
-107.125
11
94.6964
21
-106.982
0
LINE
8
BLACK
6
CONTINUOUS
10
94.6964
20
-106.982
11
94.9821
21
-106.554
0
LINE
8
BLACK
6
CONTINUOUS
10
94.9821
20
-106.554
11
95.125
21
-106.268
0
LINE
8
BLACK
6
CONTINUOUS
10
95.125
20
-106.268
11
95.2679
21
-105.839
0
LINE
8
BLACK
6
CONTINUOUS
10
95.2679
20
-105.839
11
95.4107
21
-105.125
0
LINE
8
BLACK
6
CONTINUOUS
10
95.4107
20
-105.125
11
95.4107
21
-104.554
0
LINE
8
BLACK
6
CONTINUOUS
10
95.4107
20
-104.554
11
95.2679
21
-103.839
0
LINE
8
BLACK
6
CONTINUOUS
10
95.2679
20
-103.839
11
95.125
21
-103.411
0
LINE
8
BLACK
6
CONTINUOUS
10
95.125
20
-103.411
11
94.9821
21
-103.125
0
LINE
8
BLACK
6
CONTINUOUS
10
94.9821
20
-103.125
11
94.6964
21
-102.696
0
LINE
8
BLACK
6
CONTINUOUS
10
94.6964
20
-102.696
11
94.5536
21
-102.554
  0
ENDSEC
  0
EOF
