%TF.GenerationSoftware,KiCad,Pcbnew,8.0.2-1*%
%TF.CreationDate,2024-08-19T19:44:12+10:00*%
%TF.ProjectId,Forward Console Combined Input and Output,466f7277-6172-4642-9043-6f6e736f6c65,rev?*%
%TF.SameCoordinates,Original*%
%TF.FileFunction,Copper,L2,Bot*%
%TF.FilePolarity,Positive*%
%FSLAX46Y46*%
G04 Gerber Fmt 4.6, Leading zero omitted, Abs format (unit mm)*
G04 Created by KiCad (PCBNEW 8.0.2-1) date 2024-08-19 19:44:12*
%MOMM*%
%LPD*%
G01*
G04 APERTURE LIST*
G04 Aperture macros list*
%AMRoundRect*
0 Rectangle with rounded corners*
0 $1 Rounding radius*
0 $2 $3 $4 $5 $6 $7 $8 $9 X,Y pos of 4 corners*
0 Add a 4 corners polygon primitive as box body*
4,1,4,$2,$3,$4,$5,$6,$7,$8,$9,$2,$3,0*
0 Add four circle primitives for the rounded corners*
1,1,$1+$1,$2,$3*
1,1,$1+$1,$4,$5*
1,1,$1+$1,$6,$7*
1,1,$1+$1,$8,$9*
0 Add four rect primitives between the rounded corners*
20,1,$1+$1,$2,$3,$4,$5,0*
20,1,$1+$1,$4,$5,$6,$7,0*
20,1,$1+$1,$6,$7,$8,$9,0*
20,1,$1+$1,$8,$9,$2,$3,0*%
G04 Aperture macros list end*
%TA.AperFunction,ComponentPad*%
%ADD10R,2.000000X2.000000*%
%TD*%
%TA.AperFunction,ComponentPad*%
%ADD11O,2.000000X2.000000*%
%TD*%
%TA.AperFunction,ComponentPad*%
%ADD12RoundRect,0.250000X-0.620000X-0.845000X0.620000X-0.845000X0.620000X0.845000X-0.620000X0.845000X0*%
%TD*%
%TA.AperFunction,ComponentPad*%
%ADD13O,1.740000X2.190000*%
%TD*%
%TA.AperFunction,ComponentPad*%
%ADD14R,1.700000X1.700000*%
%TD*%
%TA.AperFunction,ComponentPad*%
%ADD15O,1.700000X1.700000*%
%TD*%
%TA.AperFunction,ComponentPad*%
%ADD16C,1.400000*%
%TD*%
%TA.AperFunction,ComponentPad*%
%ADD17O,1.400000X1.400000*%
%TD*%
%TA.AperFunction,ComponentPad*%
%ADD18R,2.400000X1.600000*%
%TD*%
%TA.AperFunction,ComponentPad*%
%ADD19O,2.400000X1.600000*%
%TD*%
%TA.AperFunction,ComponentPad*%
%ADD20R,3.500000X3.500000*%
%TD*%
%TA.AperFunction,ComponentPad*%
%ADD21RoundRect,0.750000X-0.750000X-1.000000X0.750000X-1.000000X0.750000X1.000000X-0.750000X1.000000X0*%
%TD*%
%TA.AperFunction,ComponentPad*%
%ADD22RoundRect,0.875000X-0.875000X-0.875000X0.875000X-0.875000X0.875000X0.875000X-0.875000X0.875000X0*%
%TD*%
%TA.AperFunction,ComponentPad*%
%ADD23RoundRect,0.250000X0.845000X-0.620000X0.845000X0.620000X-0.845000X0.620000X-0.845000X-0.620000X0*%
%TD*%
%TA.AperFunction,ComponentPad*%
%ADD24O,2.190000X1.740000*%
%TD*%
%TA.AperFunction,ComponentPad*%
%ADD25C,1.524000*%
%TD*%
%TA.AperFunction,ComponentPad*%
%ADD26R,1.800000X1.800000*%
%TD*%
%TA.AperFunction,ComponentPad*%
%ADD27C,1.800000*%
%TD*%
%TA.AperFunction,ComponentPad*%
%ADD28R,1.665000X1.665000*%
%TD*%
%TA.AperFunction,ComponentPad*%
%ADD29C,1.665000*%
%TD*%
%TA.AperFunction,ComponentPad*%
%ADD30C,1.600000*%
%TD*%
%TA.AperFunction,ViaPad*%
%ADD31C,0.600000*%
%TD*%
%TA.AperFunction,Conductor*%
%ADD32C,0.250000*%
%TD*%
%TA.AperFunction,Conductor*%
%ADD33C,0.400000*%
%TD*%
G04 APERTURE END LIST*
D10*
%TO.P,D28,1,K*%
%TO.N,Net-(D28-K)*%
X168810000Y-58400000D03*
D11*
%TO.P,D28,2,A*%
%TO.N,D41*%
X173890000Y-58400000D03*
%TD*%
D10*
%TO.P,D25,1,K*%
%TO.N,Net-(D25-K)*%
X173300000Y-67590000D03*
D11*
%TO.P,D25,2,A*%
%TO.N,D41*%
X173300000Y-62510000D03*
%TD*%
D12*
%TO.P,J55,1,Pin_1*%
%TO.N,GND*%
X160600000Y-73000000D03*
D13*
%TO.P,J55,2,Pin_2*%
%TO.N,D3*%
X163140000Y-73000000D03*
%TO.P,J55,3,Pin_3*%
%TO.N,D2*%
X165680000Y-73000000D03*
%TO.P,J55,4,Pin_4*%
%TO.N,Net-(D25-K)*%
X168220000Y-73000000D03*
%TO.P,J55,5,Pin_5*%
%TO.N,D34*%
X170760000Y-73000000D03*
%TO.P,J55,6,Pin_6*%
%TO.N,unconnected-(J55-Pin_6-Pad6)*%
X173300000Y-73000000D03*
%TD*%
D14*
%TO.P,J45,1,Pin_1*%
%TO.N,GND*%
X193980000Y-92380000D03*
D15*
%TO.P,J45,2,Pin_2*%
X196520000Y-92380000D03*
%TO.P,J45,3,Pin_3*%
%TO.N,SCLK*%
X193980000Y-89840000D03*
%TO.P,J45,4,Pin_4*%
%TO.N,ES1_RST*%
X196520000Y-89840000D03*
%TO.P,J45,5,Pin_5*%
%TO.N,MISO*%
X193980000Y-87300000D03*
%TO.P,J45,6,Pin_6*%
%TO.N,MOSI*%
X196520000Y-87300000D03*
%TO.P,J45,7,Pin_7*%
%TO.N,D48*%
X193980000Y-84760000D03*
%TO.P,J45,8,Pin_8*%
%TO.N,D49*%
X196520000Y-84760000D03*
%TO.P,J45,9,Pin_9*%
%TO.N,D46*%
X193980000Y-82220000D03*
%TO.P,J45,10,Pin_10*%
%TO.N,D47*%
X196520000Y-82220000D03*
%TO.P,J45,11,Pin_11*%
%TO.N,D44*%
X193980000Y-79680000D03*
%TO.P,J45,12,Pin_12*%
%TO.N,D45*%
X196520000Y-79680000D03*
%TO.P,J45,13,Pin_13*%
%TO.N,D42*%
X193980000Y-77140000D03*
%TO.P,J45,14,Pin_14*%
%TO.N,D43*%
X196520000Y-77140000D03*
%TO.P,J45,15,Pin_15*%
%TO.N,D40*%
X193980000Y-74600000D03*
%TO.P,J45,16,Pin_16*%
%TO.N,D41*%
X196520000Y-74600000D03*
%TO.P,J45,17,Pin_17*%
%TO.N,D38*%
X193980000Y-72060000D03*
%TO.P,J45,18,Pin_18*%
%TO.N,D39*%
X196520000Y-72060000D03*
%TO.P,J45,19,Pin_19*%
%TO.N,D36*%
X193980000Y-69520000D03*
%TO.P,J45,20,Pin_20*%
%TO.N,D37*%
X196520000Y-69520000D03*
%TO.P,J45,21,Pin_21*%
%TO.N,D34*%
X193980000Y-66980000D03*
%TO.P,J45,22,Pin_22*%
%TO.N,D35*%
X196520000Y-66980000D03*
%TO.P,J45,23,Pin_23*%
%TO.N,D32*%
X193980000Y-64440000D03*
%TO.P,J45,24,Pin_24*%
%TO.N,D33*%
X196520000Y-64440000D03*
%TO.P,J45,25,Pin_25*%
%TO.N,D30*%
X193980000Y-61900000D03*
%TO.P,J45,26,Pin_26*%
%TO.N,D31*%
X196520000Y-61900000D03*
%TO.P,J45,27,Pin_27*%
%TO.N,D28*%
X193980000Y-59360000D03*
%TO.P,J45,28,Pin_28*%
%TO.N,D29*%
X196520000Y-59360000D03*
%TO.P,J45,29,Pin_29*%
%TO.N,D26*%
X193980000Y-56820000D03*
%TO.P,J45,30,Pin_30*%
%TO.N,D27*%
X196520000Y-56820000D03*
%TO.P,J45,31,Pin_31*%
%TO.N,D24*%
X193980000Y-54280000D03*
%TO.P,J45,32,Pin_32*%
%TO.N,D25*%
X196520000Y-54280000D03*
%TO.P,J45,33,Pin_33*%
%TO.N,D22*%
X193980000Y-51740000D03*
%TO.P,J45,34,Pin_34*%
%TO.N,D23*%
X196520000Y-51740000D03*
%TO.P,J45,35,Pin_35*%
%TO.N,+5V*%
X193980000Y-49200000D03*
%TO.P,J45,36,Pin_36*%
X196520000Y-49200000D03*
%TD*%
D14*
%TO.P,J42,1,Pin_1*%
%TO.N,unconnected-(J42-Pin_1-Pad1)*%
X127940000Y-97460000D03*
D15*
%TO.P,J42,2,Pin_2*%
%TO.N,/IOREF*%
X130480000Y-97460000D03*
%TO.P,J42,3,Pin_3*%
%TO.N,/~{RESET}*%
X133020000Y-97460000D03*
%TO.P,J42,4,Pin_4*%
%TO.N,+3V3*%
X135560000Y-97460000D03*
%TO.P,J42,5,Pin_5*%
%TO.N,+5V*%
X138100000Y-97460000D03*
%TO.P,J42,6,Pin_6*%
%TO.N,GND*%
X140640000Y-97460000D03*
%TO.P,J42,7,Pin_7*%
X143180000Y-97460000D03*
%TO.P,J42,8,Pin_8*%
%TO.N,VCC*%
X145720000Y-97460000D03*
%TD*%
D14*
%TO.P,J43,1,Pin_1*%
%TO.N,A0 D54*%
X150800000Y-97460000D03*
D15*
%TO.P,J43,2,Pin_2*%
%TO.N,A1 D55*%
X153340000Y-97460000D03*
%TO.P,J43,3,Pin_3*%
%TO.N,A2 D56*%
X155880000Y-97460000D03*
%TO.P,J43,4,Pin_4*%
%TO.N,A3 D57*%
X158420000Y-97460000D03*
%TO.P,J43,5,Pin_5*%
%TO.N,A4 D58*%
X160960000Y-97460000D03*
%TO.P,J43,6,Pin_6*%
%TO.N,A5 D59*%
X163500000Y-97460000D03*
%TO.P,J43,7,Pin_7*%
%TO.N,A6 D60*%
X166040000Y-97460000D03*
%TO.P,J43,8,Pin_8*%
%TO.N,A7 D61*%
X168580000Y-97460000D03*
%TD*%
D14*
%TO.P,J44,1,Pin_1*%
%TO.N,A8 D62*%
X173660000Y-97460000D03*
D15*
%TO.P,J44,2,Pin_2*%
%TO.N,A9 D63*%
X176200000Y-97460000D03*
%TO.P,J44,3,Pin_3*%
%TO.N,A10 D64*%
X178740000Y-97460000D03*
%TO.P,J44,4,Pin_4*%
%TO.N,A11 D65*%
X181280000Y-97460000D03*
%TO.P,J44,5,Pin_5*%
%TO.N,A12 D66*%
X183820000Y-97460000D03*
%TO.P,J44,6,Pin_6*%
%TO.N,A13 D67*%
X186360000Y-97460000D03*
%TO.P,J44,7,Pin_7*%
%TO.N,A14 D68*%
X188900000Y-97460000D03*
%TO.P,J44,8,Pin_8*%
%TO.N,A15 D69*%
X191440000Y-97460000D03*
%TD*%
D14*
%TO.P,J46,1,Pin_1*%
%TO.N,D21 SCL*%
X118796000Y-49200000D03*
D15*
%TO.P,J46,2,Pin_2*%
%TO.N,D20 SDA*%
X121336000Y-49200000D03*
%TO.P,J46,3,Pin_3*%
%TO.N,/AREF*%
X123876000Y-49200000D03*
%TO.P,J46,4,Pin_4*%
%TO.N,GND*%
X126416000Y-49200000D03*
%TO.P,J46,5,Pin_5*%
%TO.N,/\u002A13*%
X128956000Y-49200000D03*
%TO.P,J46,6,Pin_6*%
%TO.N,/\u002A12*%
X131496000Y-49200000D03*
%TO.P,J46,7,Pin_7*%
%TO.N,D11*%
X134036000Y-49200000D03*
%TO.P,J46,8,Pin_8*%
%TO.N,SS*%
X136576000Y-49200000D03*
%TO.P,J46,9,Pin_9*%
%TO.N,D9*%
X139116000Y-49200000D03*
%TO.P,J46,10,Pin_10*%
%TO.N,D8*%
X141656000Y-49200000D03*
%TD*%
D14*
%TO.P,J47,1,Pin_1*%
%TO.N,D7*%
X145720000Y-49200000D03*
D15*
%TO.P,J47,2,Pin_2*%
%TO.N,D6*%
X148260000Y-49200000D03*
%TO.P,J47,3,Pin_3*%
%TO.N,D5*%
X150800000Y-49200000D03*
%TO.P,J47,4,Pin_4*%
%TO.N,D4*%
X153340000Y-49200000D03*
%TO.P,J47,5,Pin_5*%
%TO.N,D3*%
X155880000Y-49200000D03*
%TO.P,J47,6,Pin_6*%
%TO.N,D2*%
X158420000Y-49200000D03*
%TO.P,J47,7,Pin_7*%
%TO.N,D1*%
X160960000Y-49200000D03*
%TO.P,J47,8,Pin_8*%
%TO.N,D0*%
X163500000Y-49200000D03*
%TD*%
D14*
%TO.P,J48,1,Pin_1*%
%TO.N,D14*%
X168580000Y-49200000D03*
D15*
%TO.P,J48,2,Pin_2*%
%TO.N,D15*%
X171120000Y-49200000D03*
%TO.P,J48,3,Pin_3*%
%TO.N,D16*%
X173660000Y-49200000D03*
%TO.P,J48,4,Pin_4*%
%TO.N,D17*%
X176200000Y-49200000D03*
%TO.P,J48,5,Pin_5*%
%TO.N,D18*%
X178740000Y-49200000D03*
%TO.P,J48,6,Pin_6*%
%TO.N,D19*%
X181280000Y-49200000D03*
%TO.P,J48,7,Pin_7*%
%TO.N,D20 SDA*%
X183820000Y-49200000D03*
%TO.P,J48,8,Pin_8*%
%TO.N,D21 SCL*%
X186360000Y-49200000D03*
%TD*%
D12*
%TO.P,J13,1,Pin_1*%
%TO.N,D42*%
X172260000Y-82700000D03*
D13*
%TO.P,J13,2,Pin_2*%
%TO.N,D43*%
X174800000Y-82700000D03*
%TO.P,J13,3,Pin_3*%
%TO.N,D28*%
X177340000Y-82700000D03*
%TO.P,J13,4,Pin_4*%
%TO.N,D29*%
X179880000Y-82700000D03*
%TO.P,J13,5,Pin_5*%
%TO.N,D30*%
X182420000Y-82700000D03*
%TO.P,J13,6,Pin_6*%
%TO.N,D31*%
X184960000Y-82700000D03*
%TO.P,J13,7,Pin_7*%
%TO.N,D32*%
X187500000Y-82700000D03*
%TO.P,J13,8,Pin_8*%
%TO.N,D33*%
X190040000Y-82700000D03*
%TD*%
D12*
%TO.P,J57,1,Pin_1*%
%TO.N,+5V*%
X157860000Y-41000000D03*
D13*
%TO.P,J57,2,Pin_2*%
%TO.N,unconnected-(J57-Pin_2-Pad2)*%
X160400000Y-41000000D03*
%TO.P,J57,3,Pin_3*%
%TO.N,Net-(J57-Pin_3)*%
X162940000Y-41000000D03*
%TO.P,J57,4,Pin_4*%
%TO.N,Net-(J57-Pin_4)*%
X165480000Y-41000000D03*
%TD*%
D16*
%TO.P,R4,1*%
%TO.N,/\u002A12*%
X119100000Y-45644000D03*
D17*
%TO.P,R4,2*%
%TO.N,Net-(D2-A)*%
X121640000Y-45644000D03*
%TD*%
D16*
%TO.P,R16,1*%
%TO.N,+5V*%
X207900000Y-101590000D03*
D17*
%TO.P,R16,2*%
%TO.N,D38*%
X210440000Y-101590000D03*
%TD*%
D18*
%TO.P,U2,1,I1*%
%TO.N,A4 D58*%
X173180000Y-106310000D03*
D19*
%TO.P,U2,2,I2*%
%TO.N,A5 D59*%
X173180000Y-108850000D03*
%TO.P,U2,3,I3*%
%TO.N,A6 D60*%
X173180000Y-111390000D03*
%TO.P,U2,4,I4*%
%TO.N,A7 D61*%
X173180000Y-113930000D03*
%TO.P,U2,5,I5*%
%TO.N,A8 D62*%
X173180000Y-116470000D03*
%TO.P,U2,6,I6*%
%TO.N,A9 D63*%
X173180000Y-119010000D03*
%TO.P,U2,7,I7*%
%TO.N,A10 D64*%
X173180000Y-121550000D03*
%TO.P,U2,8,GND*%
%TO.N,GND*%
X173180000Y-124090000D03*
%TO.P,U2,9,COM*%
%TO.N,+12V*%
X180800000Y-124090000D03*
%TO.P,U2,10,O7*%
%TO.N,/COIL AND LAMP DRIVERS/TISL*%
X180800000Y-121550000D03*
%TO.P,U2,11,O6*%
%TO.N,/COIL AND LAMP DRIVERS/EGI*%
X180800000Y-119010000D03*
%TO.P,U2,12,O5*%
%TO.N,/COIL AND LAMP DRIVERS/HARS*%
X180800000Y-116470000D03*
%TO.P,U2,13,O4*%
%TO.N,/COIL AND LAMP DRIVERS/MISSLE LAUNCH*%
X180800000Y-113930000D03*
%TO.P,U2,14,O3*%
%TO.N,/COIL AND LAMP DRIVERS/SEP*%
X180800000Y-111390000D03*
%TO.P,U2,15,O2*%
%TO.N,/COIL AND LAMP DRIVERS/PRI*%
X180800000Y-108850000D03*
%TO.P,U2,16,O1*%
%TO.N,/COIL AND LAMP DRIVERS/CAUTION_LAMP-*%
X180800000Y-106310000D03*
%TD*%
D12*
%TO.P,J3,1,Pin_1*%
%TO.N,+24V*%
X187580000Y-115720000D03*
D13*
%TO.P,J3,2,Pin_2*%
%TO.N,/COIL AND LAMP DRIVERS/B_GEAR HANDLE*%
X190120000Y-115720000D03*
%TD*%
D16*
%TO.P,R32,1*%
%TO.N,Net-(J58-Pin_4)*%
X137850000Y-46200000D03*
D17*
%TO.P,R32,2*%
%TO.N,D9*%
X140390000Y-46200000D03*
%TD*%
D16*
%TO.P,R19,1*%
%TO.N,+5V*%
X207900000Y-109403600D03*
D17*
%TO.P,R19,2*%
%TO.N,D41*%
X210440000Y-109403600D03*
%TD*%
D16*
%TO.P,R5,1*%
%TO.N,+3V3*%
X120325000Y-132385000D03*
D17*
%TO.P,R5,2*%
%TO.N,Net-(U1-INT)*%
X122865000Y-132385000D03*
%TD*%
D12*
%TO.P,J51,1,Pin_1*%
%TO.N,+12V*%
X160830000Y-130500000D03*
D13*
%TO.P,J51,2,Pin_2*%
%TO.N,/COIL AND LAMP DRIVERS/PRI*%
X163370000Y-130500000D03*
%TO.P,J51,3,Pin_3*%
%TO.N,/COIL AND LAMP DRIVERS/SEP*%
X165910000Y-130500000D03*
%TO.P,J51,4,Pin_4*%
%TO.N,/COIL AND LAMP DRIVERS/MISSLE LAUNCH*%
X168450000Y-130500000D03*
%TO.P,J51,5,Pin_5*%
%TO.N,/COIL AND LAMP DRIVERS/HARS*%
X170990000Y-130500000D03*
%TO.P,J51,6,Pin_6*%
%TO.N,/COIL AND LAMP DRIVERS/EGI*%
X173530000Y-130500000D03*
%TD*%
D14*
%TO.P,J33,1,Pin_1*%
%TO.N,A8 D62*%
X173660000Y-101905000D03*
D15*
%TO.P,J33,2,Pin_2*%
%TO.N,A9 D63*%
X176200000Y-101905000D03*
%TO.P,J33,3,Pin_3*%
%TO.N,A10 D64*%
X178740000Y-101905000D03*
%TO.P,J33,4,Pin_4*%
%TO.N,A11 D65*%
X181280000Y-101905000D03*
%TO.P,J33,5,Pin_5*%
%TO.N,A12 D66*%
X183820000Y-101905000D03*
%TO.P,J33,6,Pin_6*%
%TO.N,A13 D67*%
X186360000Y-101905000D03*
%TO.P,J33,7,Pin_7*%
%TO.N,A14 D68*%
X188900000Y-101905000D03*
%TO.P,J33,8,Pin_8*%
%TO.N,A15 D69*%
X191440000Y-101905000D03*
%TD*%
D10*
%TO.P,D24,1,K*%
%TO.N,Net-(D24-K)*%
X206660000Y-68600000D03*
D11*
%TO.P,D24,2,A*%
%TO.N,D40*%
X211740000Y-68600000D03*
%TD*%
D12*
%TO.P,J56,1,Pin_1*%
%TO.N,+5V*%
X160010000Y-81300000D03*
D13*
%TO.P,J56,2,Pin_2*%
%TO.N,Net-(J56-Pin_2)*%
X162550000Y-81300000D03*
%TO.P,J56,3,Pin_3*%
%TO.N,Net-(J56-Pin_3)*%
X165090000Y-81300000D03*
%TO.P,J56,4,Pin_4*%
%TO.N,Net-(J56-Pin_4)*%
X167630000Y-81300000D03*
%TD*%
D14*
%TO.P,J2,1,Pin_1*%
%TO.N,D38*%
X204450000Y-102000000D03*
D15*
%TO.P,J2,2,Pin_2*%
%TO.N,D39*%
X204450000Y-104540000D03*
%TO.P,J2,3,Pin_3*%
%TO.N,D40*%
X204450000Y-107080000D03*
%TO.P,J2,4,Pin_4*%
%TO.N,D41*%
X204450000Y-109620000D03*
%TO.P,J2,5,Pin_5*%
%TO.N,D42*%
X204450000Y-112160000D03*
%TO.P,J2,6,Pin_6*%
%TO.N,D43*%
X204450000Y-114700000D03*
%TO.P,J2,7,Pin_7*%
%TO.N,D44*%
X204450000Y-117240000D03*
%TO.P,J2,8,Pin_8*%
%TO.N,D45*%
X204450000Y-119780000D03*
%TO.P,J2,9,Pin_9*%
%TO.N,D46*%
X204450000Y-122320000D03*
%TO.P,J2,10,Pin_10*%
%TO.N,D47*%
X204450000Y-124860000D03*
%TO.P,J2,11,Pin_11*%
%TO.N,D48*%
X204450000Y-127400000D03*
%TO.P,J2,12,Pin_12*%
%TO.N,D49*%
X204450000Y-129940000D03*
%TD*%
D10*
%TO.P,D8,1,K*%
%TO.N,Net-(D8-K)*%
X206410000Y-81100000D03*
D11*
%TO.P,D8,2,A*%
%TO.N,D40*%
X211490000Y-81100000D03*
%TD*%
D10*
%TO.P,D22,1,K*%
%TO.N,Net-(D22-K)*%
X196550000Y-108100000D03*
D11*
%TO.P,D22,2,A*%
%TO.N,D40*%
X196550000Y-113180000D03*
%TD*%
D12*
%TO.P,J53,1,Pin_1*%
%TO.N,+12V*%
X191880000Y-122970000D03*
D13*
%TO.P,J53,2,Pin_2*%
%TO.N,/COIL AND LAMP DRIVERS/COIL_ANTI_SKID*%
X194420000Y-122970000D03*
%TD*%
D12*
%TO.P,J5,1,Pin_1*%
%TO.N,D38*%
X177160000Y-74550000D03*
D13*
%TO.P,J5,2,Pin_2*%
%TO.N,D39*%
X179700000Y-74550000D03*
%TO.P,J5,3,Pin_3*%
%TO.N,D40*%
X182240000Y-74550000D03*
%TO.P,J5,4,Pin_4*%
%TO.N,D41*%
X184780000Y-74550000D03*
%TO.P,J5,5,Pin_5*%
%TO.N,D42*%
X187320000Y-74550000D03*
%TO.P,J5,6,Pin_6*%
%TO.N,D43*%
X189860000Y-74550000D03*
%TD*%
D20*
%TO.P,J54,1,Pin_1*%
%TO.N,+12V*%
X125700000Y-75700000D03*
D21*
%TO.P,J54,2,Pin_2*%
%TO.N,GND*%
X119700000Y-75700000D03*
D22*
%TO.P,J54,3*%
%TO.N,N/C*%
X122700000Y-80400000D03*
%TD*%
D14*
%TO.P,J41,1,Pin_1*%
%TO.N,unconnected-(J41-Pin_1-Pad1)*%
X127940000Y-101270000D03*
D15*
%TO.P,J41,2,Pin_2*%
%TO.N,/IOREF*%
X130480000Y-101270000D03*
%TO.P,J41,3,Pin_3*%
%TO.N,/~{RESET}*%
X133020000Y-101270000D03*
%TO.P,J41,4,Pin_4*%
%TO.N,+3V3*%
X135560000Y-101270000D03*
%TO.P,J41,5,Pin_5*%
%TO.N,+5V*%
X138100000Y-101270000D03*
%TO.P,J41,6,Pin_6*%
%TO.N,GND*%
X140640000Y-101270000D03*
%TO.P,J41,7,Pin_7*%
X143180000Y-101270000D03*
%TO.P,J41,8,Pin_8*%
%TO.N,VCC*%
X145720000Y-101270000D03*
%TD*%
D12*
%TO.P,J63,1,Pin_1*%
%TO.N,+24V*%
X152840000Y-59720000D03*
D13*
%TO.P,J63,2,Pin_2*%
%TO.N,/COIL AND LAMP DRIVERS/B_LEFT_FIRE*%
X155380000Y-59720000D03*
%TD*%
D12*
%TO.P,J23,1,Pin_1*%
%TO.N,Net-(D22-K)*%
X187580000Y-107970000D03*
D13*
%TO.P,J23,2,Pin_2*%
%TO.N,D33*%
X190120000Y-107970000D03*
%TD*%
D16*
%TO.P,R1,1*%
%TO.N,Net-(J56-Pin_2)*%
X160150000Y-67620000D03*
D17*
%TO.P,R1,2*%
%TO.N,D6*%
X160150000Y-65080000D03*
%TD*%
D12*
%TO.P,J58,1,Pin_1*%
%TO.N,+5V*%
X144690000Y-40970000D03*
D13*
%TO.P,J58,2,Pin_2*%
%TO.N,unconnected-(J58-Pin_2-Pad2)*%
X147230000Y-40970000D03*
%TO.P,J58,3,Pin_3*%
%TO.N,Net-(J58-Pin_3)*%
X149770000Y-40970000D03*
%TO.P,J58,4,Pin_4*%
%TO.N,Net-(J58-Pin_4)*%
X152310000Y-40970000D03*
%TD*%
D14*
%TO.P,J10,1,Pin_1*%
%TO.N,Net-(J10-Pin_1)*%
X204000000Y-42760000D03*
D15*
%TO.P,J10,2,Pin_2*%
%TO.N,Net-(J10-Pin_2)*%
X206540000Y-42760000D03*
%TO.P,J10,3,Pin_3*%
%TO.N,Net-(J10-Pin_3)*%
X209080000Y-42760000D03*
%TO.P,J10,4,Pin_4*%
%TO.N,Net-(J10-Pin_4)*%
X211620000Y-42760000D03*
%TD*%
D16*
%TO.P,R18,1*%
%TO.N,+5V*%
X207900000Y-106799100D03*
D17*
%TO.P,R18,2*%
%TO.N,D40*%
X210440000Y-106799100D03*
%TD*%
D16*
%TO.P,R30,1*%
%TO.N,Net-(J57-Pin_4)*%
X183460000Y-46100000D03*
D17*
%TO.P,R30,2*%
%TO.N,D7*%
X186000000Y-46100000D03*
%TD*%
D12*
%TO.P,J28,1,Pin_1*%
%TO.N,Net-(D24-K)*%
X207930000Y-73720000D03*
D13*
%TO.P,J28,2,Pin_2*%
%TO.N,D35*%
X210470000Y-73720000D03*
%TD*%
D16*
%TO.P,R20,1*%
%TO.N,+5V*%
X207900000Y-112008200D03*
D17*
%TO.P,R20,2*%
%TO.N,D42*%
X210440000Y-112008200D03*
%TD*%
D12*
%TO.P,J36,1,Pin_1*%
%TO.N,GND*%
X177260000Y-58450000D03*
D13*
%TO.P,J36,2,Pin_2*%
%TO.N,D19*%
X179800000Y-58450000D03*
%TO.P,J36,3,Pin_3*%
%TO.N,D20 SDA*%
X182340000Y-58450000D03*
%TO.P,J36,4,Pin_4*%
%TO.N,Net-(D28-K)*%
X184880000Y-58450000D03*
%TO.P,J36,5,Pin_5*%
%TO.N,D35*%
X187420000Y-58450000D03*
%TO.P,J36,6,Pin_6*%
%TO.N,unconnected-(J36-Pin_6-Pad6)*%
X189960000Y-58450000D03*
%TD*%
D12*
%TO.P,J17,1,Pin_1*%
%TO.N,Net-(D7-K)*%
X160120000Y-90670000D03*
D13*
%TO.P,J17,2,Pin_2*%
%TO.N,D32*%
X162660000Y-90670000D03*
%TO.P,J17,3,Pin_3*%
%TO.N,Net-(D7-K)*%
X165200000Y-90670000D03*
%TO.P,J17,4,Pin_4*%
%TO.N,D33*%
X167740000Y-90670000D03*
%TD*%
D16*
%TO.P,R21,1*%
%TO.N,+5V*%
X207900000Y-114612700D03*
D17*
%TO.P,R21,2*%
%TO.N,D43*%
X210440000Y-114612700D03*
%TD*%
D12*
%TO.P,J62,1,Pin_1*%
%TO.N,+24V*%
X152780000Y-77970000D03*
D13*
%TO.P,J62,2,Pin_2*%
%TO.N,/COIL AND LAMP DRIVERS/B_RIGHT_FIRE*%
X155320000Y-77970000D03*
%TD*%
D12*
%TO.P,J18,1,Pin_1*%
%TO.N,Net-(D8-K)*%
X207880000Y-86570000D03*
D13*
%TO.P,J18,2,Pin_2*%
%TO.N,D32*%
X210420000Y-86570000D03*
%TD*%
D16*
%TO.P,R27,1*%
%TO.N,+5V*%
X207900000Y-130240000D03*
D17*
%TO.P,R27,2*%
%TO.N,D49*%
X210440000Y-130240000D03*
%TD*%
D14*
%TO.P,J26,1,Pin_1*%
%TO.N,D14*%
X168580000Y-53010000D03*
D15*
%TO.P,J26,2,Pin_2*%
%TO.N,D15*%
X171120000Y-53010000D03*
%TO.P,J26,3,Pin_3*%
%TO.N,D16*%
X173660000Y-53010000D03*
%TO.P,J26,4,Pin_4*%
%TO.N,D17*%
X176200000Y-53010000D03*
%TO.P,J26,5,Pin_5*%
%TO.N,D18*%
X178740000Y-53010000D03*
%TO.P,J26,6,Pin_6*%
%TO.N,D19*%
X181280000Y-53010000D03*
%TO.P,J26,7,Pin_7*%
%TO.N,D20 SDA*%
X183820000Y-53010000D03*
%TO.P,J26,8,Pin_8*%
%TO.N,D21 SCL*%
X186360000Y-53010000D03*
%TD*%
D16*
%TO.P,R17,1*%
%TO.N,+5V*%
X207900000Y-104194500D03*
D17*
%TO.P,R17,2*%
%TO.N,D39*%
X210440000Y-104194500D03*
%TD*%
D23*
%TO.P,J12,1,Pin_1*%
%TO.N,D38*%
X209700000Y-64340000D03*
D24*
%TO.P,J12,2,Pin_2*%
%TO.N,D39*%
X209700000Y-61800000D03*
%TO.P,J12,3,Pin_3*%
%TO.N,D32*%
X209700000Y-59260000D03*
%TO.P,J12,4,Pin_4*%
%TO.N,D33*%
X209700000Y-56720000D03*
%TO.P,J12,5,Pin_5*%
%TO.N,D34*%
X209700000Y-54180000D03*
%TO.P,J12,6,Pin_6*%
%TO.N,D35*%
X209700000Y-51640000D03*
%TO.P,J12,7,Pin_7*%
%TO.N,D36*%
X209700000Y-49100000D03*
%TO.P,J12,8,Pin_8*%
%TO.N,D37*%
X209700000Y-46560000D03*
%TD*%
D16*
%TO.P,R26,1*%
%TO.N,+5V*%
X207900000Y-127635400D03*
D17*
%TO.P,R26,2*%
%TO.N,D48*%
X210440000Y-127635400D03*
%TD*%
D12*
%TO.P,J21,1,Pin_1*%
%TO.N,D14*%
X170170000Y-41050000D03*
D13*
%TO.P,J21,2,Pin_2*%
%TO.N,D15*%
X172710000Y-41050000D03*
%TO.P,J21,3,Pin_3*%
%TO.N,D16*%
X175250000Y-41050000D03*
%TO.P,J21,4,Pin_4*%
%TO.N,D17*%
X177790000Y-41050000D03*
%TO.P,J21,5,Pin_5*%
%TO.N,+5V*%
X180330000Y-41050000D03*
%TO.P,J21,6,Pin_6*%
%TO.N,D18*%
X182870000Y-41050000D03*
%TO.P,J21,7,Pin_7*%
%TO.N,GND*%
X185410000Y-41050000D03*
%TO.P,J21,8,Pin_8*%
%TO.N,unconnected-(J21-Pin_8-Pad8)*%
X187950000Y-41050000D03*
%TD*%
D16*
%TO.P,R23,1*%
%TO.N,+5V*%
X207900000Y-119821800D03*
D17*
%TO.P,R23,2*%
%TO.N,D45*%
X210440000Y-119821800D03*
%TD*%
D18*
%TO.P,U5,1,I1*%
%TO.N,A0 D54*%
X141330000Y-106310000D03*
D19*
%TO.P,U5,2,I2*%
%TO.N,A1 D55*%
X141330000Y-108850000D03*
%TO.P,U5,3,I3*%
%TO.N,A2 D56*%
X141330000Y-111390000D03*
%TO.P,U5,4,I4*%
%TO.N,A3 D57*%
X141330000Y-113930000D03*
%TO.P,U5,5,I5*%
%TO.N,unconnected-(U5-I5-Pad5)*%
X141330000Y-116470000D03*
%TO.P,U5,6,I6*%
%TO.N,GND*%
X141330000Y-119010000D03*
%TO.P,U5,7,I7*%
X141330000Y-121550000D03*
%TO.P,U5,8,GND*%
X141330000Y-124090000D03*
%TO.P,U5,9,COM*%
%TO.N,+24V*%
X148950000Y-124090000D03*
%TO.P,U5,10,O7*%
%TO.N,unconnected-(U5-O7-Pad10)*%
X148950000Y-121550000D03*
%TO.P,U5,11,O6*%
%TO.N,unconnected-(U5-O6-Pad11)*%
X148950000Y-119010000D03*
%TO.P,U5,12,O5*%
%TO.N,unconnected-(U5-O5-Pad12)*%
X148950000Y-116470000D03*
%TO.P,U5,13,O4*%
%TO.N,/COIL AND LAMP DRIVERS/B_GEAR HANDLE*%
X148950000Y-113930000D03*
%TO.P,U5,14,O3*%
%TO.N,/COIL AND LAMP DRIVERS/B_RIGHT_FIRE*%
X148950000Y-111390000D03*
%TO.P,U5,15,O2*%
%TO.N,/COIL AND LAMP DRIVERS/B_APU_FIRE*%
X148950000Y-108850000D03*
%TO.P,U5,16,O1*%
%TO.N,/COIL AND LAMP DRIVERS/B_LEFT_FIRE*%
X148950000Y-106310000D03*
%TD*%
D12*
%TO.P,J61,1,Pin_1*%
%TO.N,+24V*%
X152930000Y-68670000D03*
D13*
%TO.P,J61,2,Pin_2*%
%TO.N,/COIL AND LAMP DRIVERS/B_APU_FIRE*%
X155470000Y-68670000D03*
%TD*%
D20*
%TO.P,J22,1,Pin_1*%
%TO.N,+12V*%
X125660000Y-88882500D03*
D21*
%TO.P,J22,2,Pin_2*%
%TO.N,GND*%
X119660000Y-88882500D03*
D22*
%TO.P,J22,3*%
%TO.N,N/C*%
X122660000Y-93582500D03*
%TD*%
D14*
%TO.P,J1,1,Pin_1*%
%TO.N,D22*%
X201050000Y-49100000D03*
D15*
%TO.P,J1,2,Pin_2*%
%TO.N,D23*%
X201050000Y-51640000D03*
%TO.P,J1,3,Pin_3*%
%TO.N,D24*%
X201050000Y-54180000D03*
%TO.P,J1,4,Pin_4*%
%TO.N,D25*%
X201050000Y-56720000D03*
%TO.P,J1,5,Pin_5*%
%TO.N,D26*%
X201050000Y-59260000D03*
%TO.P,J1,6,Pin_6*%
%TO.N,D27*%
X201050000Y-61800000D03*
%TO.P,J1,7,Pin_7*%
%TO.N,D28*%
X201050000Y-64340000D03*
%TO.P,J1,8,Pin_8*%
%TO.N,D29*%
X201050000Y-66880000D03*
%TO.P,J1,9,Pin_9*%
%TO.N,D30*%
X201050000Y-69420000D03*
%TO.P,J1,10,Pin_10*%
%TO.N,D31*%
X201050000Y-71960000D03*
%TO.P,J1,11,Pin_11*%
%TO.N,D32*%
X201050000Y-74500000D03*
%TO.P,J1,12,Pin_12*%
%TO.N,D33*%
X201050000Y-77040000D03*
%TO.P,J1,13,Pin_13*%
%TO.N,D34*%
X201050000Y-79580000D03*
%TO.P,J1,14,Pin_14*%
%TO.N,D35*%
X201050000Y-82120000D03*
%TO.P,J1,15,Pin_15*%
%TO.N,D36*%
X201050000Y-84660000D03*
%TO.P,J1,16,Pin_16*%
%TO.N,D37*%
X201050000Y-87200000D03*
%TD*%
D14*
%TO.P,J25,1,Pin_1*%
%TO.N,D7*%
X145720000Y-53010000D03*
D15*
%TO.P,J25,2,Pin_2*%
%TO.N,D6*%
X148260000Y-53010000D03*
%TO.P,J25,3,Pin_3*%
%TO.N,D5*%
X150800000Y-53010000D03*
%TO.P,J25,4,Pin_4*%
%TO.N,D4*%
X153340000Y-53010000D03*
%TO.P,J25,5,Pin_5*%
%TO.N,D3*%
X155880000Y-53010000D03*
%TO.P,J25,6,Pin_6*%
%TO.N,D2*%
X158420000Y-53010000D03*
%TO.P,J25,7,Pin_7*%
%TO.N,D1*%
X160960000Y-53010000D03*
%TO.P,J25,8,Pin_8*%
%TO.N,D0*%
X163500000Y-53010000D03*
%TD*%
D14*
%TO.P,J32,1,Pin_1*%
%TO.N,A0 D54*%
X150800000Y-101905000D03*
D15*
%TO.P,J32,2,Pin_2*%
%TO.N,A1 D55*%
X153340000Y-101905000D03*
%TO.P,J32,3,Pin_3*%
%TO.N,A2 D56*%
X155880000Y-101905000D03*
%TO.P,J32,4,Pin_4*%
%TO.N,A3 D57*%
X158420000Y-101905000D03*
%TO.P,J32,5,Pin_5*%
%TO.N,A4 D58*%
X160960000Y-101905000D03*
%TO.P,J32,6,Pin_6*%
%TO.N,A5 D59*%
X163500000Y-101905000D03*
%TO.P,J32,7,Pin_7*%
%TO.N,A6 D60*%
X166040000Y-101905000D03*
%TO.P,J32,8,Pin_8*%
%TO.N,A7 D61*%
X168580000Y-101905000D03*
%TD*%
D16*
%TO.P,R24,1*%
%TO.N,+5V*%
X207900000Y-122426400D03*
D17*
%TO.P,R24,2*%
%TO.N,D46*%
X210440000Y-122426400D03*
%TD*%
D12*
%TO.P,J7,1,Pin_1*%
%TO.N,D22*%
X177260000Y-66500000D03*
D13*
%TO.P,J7,2,Pin_2*%
%TO.N,D23*%
X179800000Y-66500000D03*
%TO.P,J7,3,Pin_3*%
%TO.N,D24*%
X182340000Y-66500000D03*
%TO.P,J7,4,Pin_4*%
%TO.N,D25*%
X184880000Y-66500000D03*
%TO.P,J7,5,Pin_5*%
%TO.N,D26*%
X187420000Y-66500000D03*
%TO.P,J7,6,Pin_6*%
%TO.N,D27*%
X189960000Y-66500000D03*
%TD*%
D16*
%TO.P,R29,1*%
%TO.N,Net-(J57-Pin_3)*%
X170030000Y-46000000D03*
D17*
%TO.P,R29,2*%
%TO.N,D8*%
X172570000Y-46000000D03*
%TD*%
D16*
%TO.P,R25,1*%
%TO.N,+5V*%
X207900000Y-125030900D03*
D17*
%TO.P,R25,2*%
%TO.N,D47*%
X210440000Y-125030900D03*
%TD*%
D25*
%TO.P,U7,1,VIN*%
%TO.N,+12V*%
X137044000Y-59730000D03*
%TO.P,U7,2,GND*%
%TO.N,GND*%
X144664000Y-59730000D03*
%TO.P,U7,3,GND*%
X144844000Y-90230000D03*
%TO.P,U7,4,24V_OUT*%
%TO.N,+24V*%
X137044000Y-90230000D03*
%TD*%
D18*
%TO.P,U3,1,I1*%
%TO.N,A11 D65*%
X157255000Y-106310000D03*
D19*
%TO.P,U3,2,I2*%
%TO.N,A12 D66*%
X157255000Y-108850000D03*
%TO.P,U3,3,I3*%
%TO.N,A13 D67*%
X157255000Y-111390000D03*
%TO.P,U3,4,I4*%
%TO.N,A14 D68*%
X157255000Y-113930000D03*
%TO.P,U3,5,I5*%
%TO.N,A15 D69*%
X157255000Y-116470000D03*
%TO.P,U3,6,I6*%
%TO.N,GND*%
X157255000Y-119010000D03*
%TO.P,U3,7,I7*%
X157255000Y-121550000D03*
%TO.P,U3,8,GND*%
X157255000Y-124090000D03*
%TO.P,U3,9,COM*%
%TO.N,+12V*%
X164875000Y-124090000D03*
%TO.P,U3,10,O7*%
%TO.N,unconnected-(U3-O7-Pad10)*%
X164875000Y-121550000D03*
%TO.P,U3,11,O6*%
%TO.N,unconnected-(U3-O6-Pad11)*%
X164875000Y-119010000D03*
%TO.P,U3,12,O5*%
%TO.N,/COIL AND LAMP DRIVERS/COIL_ANTI_SKID*%
X164875000Y-116470000D03*
%TO.P,U3,13,O4*%
%TO.N,/COIL AND LAMP DRIVERS/ILS*%
X164875000Y-113930000D03*
%TO.P,U3,14,O3*%
%TO.N,/COIL AND LAMP DRIVERS/TCN*%
X164875000Y-111390000D03*
%TO.P,U3,15,O2*%
%TO.N,/COIL AND LAMP DRIVERS/ANCHR*%
X164875000Y-108850000D03*
%TO.P,U3,16,O1*%
%TO.N,/COIL AND LAMP DRIVERS/STR PT*%
X164875000Y-106310000D03*
%TD*%
D20*
%TO.P,J20,1,Pin_1*%
%TO.N,+12V*%
X125700000Y-63065000D03*
D21*
%TO.P,J20,2,Pin_2*%
%TO.N,GND*%
X119700000Y-63065000D03*
D22*
%TO.P,J20,3*%
%TO.N,N/C*%
X122700000Y-67765000D03*
%TD*%
D26*
%TO.P,D1,1,K*%
%TO.N,GND*%
X122601000Y-40564000D03*
D27*
%TO.P,D1,2,A*%
%TO.N,Net-(D1-A)*%
X125141000Y-40564000D03*
%TD*%
D16*
%TO.P,R31,1*%
%TO.N,Net-(J58-Pin_3)*%
X130250000Y-46100000D03*
D17*
%TO.P,R31,2*%
%TO.N,D11*%
X132790000Y-46100000D03*
%TD*%
D10*
%TO.P,D7,1,K*%
%TO.N,Net-(D7-K)*%
X151450000Y-87900000D03*
D11*
%TO.P,D7,2,A*%
%TO.N,D41*%
X156530000Y-87900000D03*
%TD*%
D14*
%TO.P,J15,1,Pin_1*%
%TO.N,Net-(J10-Pin_1)*%
X204000000Y-38950000D03*
D15*
%TO.P,J15,2,Pin_2*%
%TO.N,Net-(J10-Pin_2)*%
X206540000Y-38950000D03*
%TO.P,J15,3,Pin_3*%
%TO.N,Net-(J10-Pin_3)*%
X209080000Y-38950000D03*
%TO.P,J15,4,Pin_4*%
%TO.N,Net-(J10-Pin_4)*%
X211620000Y-38950000D03*
%TD*%
D16*
%TO.P,R3,1*%
%TO.N,/\u002A13*%
X127940000Y-42800000D03*
D17*
%TO.P,R3,2*%
%TO.N,Net-(D1-A)*%
X127940000Y-40260000D03*
%TD*%
D16*
%TO.P,R2,1*%
%TO.N,Net-(J56-Pin_3)*%
X160100000Y-62520000D03*
D17*
%TO.P,R2,2*%
%TO.N,D5*%
X160100000Y-59980000D03*
%TD*%
D10*
%TO.P,D23,1,K*%
%TO.N,Net-(D23-K)*%
X201700000Y-92470000D03*
D11*
%TO.P,D23,2,A*%
%TO.N,D40*%
X201700000Y-97550000D03*
%TD*%
D16*
%TO.P,R28,1*%
%TO.N,Net-(J56-Pin_4)*%
X159680000Y-56950000D03*
D17*
%TO.P,R28,2*%
%TO.N,D4*%
X162220000Y-56950000D03*
%TD*%
D28*
%TO.P,U1,A1,GND_1*%
%TO.N,GND*%
X117495000Y-126035000D03*
D29*
%TO.P,U1,A2,GND_2*%
X120035000Y-126035000D03*
%TO.P,U1,A3,MOSI*%
%TO.N,MOSI*%
X122575000Y-126035000D03*
%TO.P,U1,A4,SCLK*%
%TO.N,SCLK*%
X125115000Y-126035000D03*
%TO.P,U1,A5,CS*%
%TO.N,SS*%
X127655000Y-126035000D03*
%TO.P,U1,A6,INT*%
%TO.N,Net-(U1-INT)*%
X130195000Y-126035000D03*
D28*
%TO.P,U1,B1,GND_3*%
%TO.N,GND*%
X117495000Y-105715000D03*
D29*
%TO.P,U1,B2,3V3_1*%
%TO.N,+3V3*%
X120035000Y-105715000D03*
%TO.P,U1,B3,3V3_2*%
X122575000Y-105715000D03*
%TO.P,U1,B4,NC*%
%TO.N,unconnected-(U1-NC-PadB4)*%
X125115000Y-105715000D03*
%TO.P,U1,B5,RST*%
%TO.N,ES1_RST*%
X127655000Y-105715000D03*
%TO.P,U1,B6,MISO*%
%TO.N,MISO*%
X130195000Y-105715000D03*
%TD*%
D14*
%TO.P,J24,1,Pin_1*%
%TO.N,D21 SCL*%
X118796000Y-52985000D03*
D15*
%TO.P,J24,2,Pin_2*%
%TO.N,D20 SDA*%
X121336000Y-52985000D03*
%TO.P,J24,3,Pin_3*%
%TO.N,/AREF*%
X123876000Y-52985000D03*
%TO.P,J24,4,Pin_4*%
%TO.N,GND*%
X126416000Y-52985000D03*
%TO.P,J24,5,Pin_5*%
%TO.N,/\u002A13*%
X128956000Y-52985000D03*
%TO.P,J24,6,Pin_6*%
%TO.N,/\u002A12*%
X131496000Y-52985000D03*
%TO.P,J24,7,Pin_7*%
%TO.N,D11*%
X134036000Y-52985000D03*
%TO.P,J24,8,Pin_8*%
%TO.N,SS*%
X136576000Y-52985000D03*
%TO.P,J24,9,Pin_9*%
%TO.N,D9*%
X139116000Y-52985000D03*
%TO.P,J24,10,Pin_10*%
%TO.N,D8*%
X141656000Y-52985000D03*
%TD*%
D12*
%TO.P,J4,1,Pin_1*%
%TO.N,D38*%
X172260000Y-90800000D03*
D13*
%TO.P,J4,2,Pin_2*%
%TO.N,D39*%
X174800000Y-90800000D03*
%TO.P,J4,3,Pin_3*%
%TO.N,D40*%
X177340000Y-90800000D03*
%TO.P,J4,4,Pin_4*%
%TO.N,D41*%
X179880000Y-90800000D03*
%TO.P,J4,5,Pin_5*%
%TO.N,D28*%
X182420000Y-90800000D03*
%TO.P,J4,6,Pin_6*%
%TO.N,D29*%
X184960000Y-90800000D03*
%TO.P,J4,7,Pin_7*%
%TO.N,D30*%
X187500000Y-90800000D03*
%TO.P,J4,8,Pin_8*%
%TO.N,D31*%
X190040000Y-90800000D03*
%TD*%
D12*
%TO.P,J49,1,Pin_1*%
%TO.N,+12V*%
X179760000Y-130350000D03*
D13*
%TO.P,J49,2,Pin_2*%
%TO.N,/COIL AND LAMP DRIVERS/CAUTION_LAMP-*%
X182300000Y-130350000D03*
%TD*%
D16*
%TO.P,R22,1*%
%TO.N,+5V*%
X207900000Y-117217300D03*
D17*
%TO.P,R22,2*%
%TO.N,D44*%
X210440000Y-117217300D03*
%TD*%
D26*
%TO.P,D2,1,K*%
%TO.N,GND*%
X117013000Y-40564000D03*
D27*
%TO.P,D2,2,A*%
%TO.N,Net-(D2-A)*%
X119553000Y-40564000D03*
%TD*%
D12*
%TO.P,J52,1,Pin_1*%
%TO.N,+12V*%
X142530000Y-130350000D03*
D13*
%TO.P,J52,2,Pin_2*%
%TO.N,/COIL AND LAMP DRIVERS/TISL*%
X145070000Y-130350000D03*
%TO.P,J52,3,Pin_3*%
%TO.N,/COIL AND LAMP DRIVERS/STR PT*%
X147610000Y-130350000D03*
%TO.P,J52,4,Pin_4*%
%TO.N,/COIL AND LAMP DRIVERS/ANCHR*%
X150150000Y-130350000D03*
%TO.P,J52,5,Pin_5*%
%TO.N,/COIL AND LAMP DRIVERS/TCN*%
X152690000Y-130350000D03*
%TO.P,J52,6,Pin_6*%
%TO.N,/COIL AND LAMP DRIVERS/ILS*%
X155230000Y-130350000D03*
%TD*%
D30*
%TO.P,C2,1*%
%TO.N,+12V*%
X151435000Y-92380000D03*
%TO.P,C2,2*%
%TO.N,GND*%
X156435000Y-92380000D03*
%TD*%
D12*
%TO.P,J27,1,Pin_1*%
%TO.N,Net-(D23-K)*%
X207730000Y-95270000D03*
D13*
%TO.P,J27,2,Pin_2*%
%TO.N,D34*%
X210270000Y-95270000D03*
%TD*%
D31*
%TO.N,D41*%
X187630000Y-100486000D03*
%TO.N,D32*%
X205853200Y-74500000D03*
%TO.N,D44*%
X192441700Y-117240000D03*
%TO.N,D34*%
X214439100Y-82656000D03*
%TO.N,D40*%
X184995200Y-99792000D03*
X192258900Y-71462700D03*
%TO.N,D37*%
X198534700Y-79753300D03*
X205211500Y-77107100D03*
%TO.N,D42*%
X188026800Y-77695600D03*
X195270200Y-81552800D03*
X198975300Y-87317800D03*
%TO.N,D46*%
X193076900Y-119268400D03*
%TO.N,D33*%
X202381500Y-63148000D03*
%TO.N,D29*%
X186839900Y-80232900D03*
X189963800Y-70251700D03*
%TO.N,D43*%
X184609700Y-107352900D03*
%TO.N,D36*%
X203144300Y-60545100D03*
%TO.N,D30*%
X198984400Y-64432400D03*
%TO.N,A15 D69*%
X162954100Y-113394800D03*
X167487700Y-103226000D03*
%TO.N,D2*%
X170325100Y-54185100D03*
%TO.N,/COIL AND LAMP DRIVERS/PRI*%
X175452600Y-112092500D03*
%TO.N,+5V*%
X138100000Y-91721900D03*
%TO.N,MOSI*%
X122575000Y-119877700D03*
%TO.N,ES1_RST*%
X127655000Y-103037700D03*
%TO.N,SCLK*%
X125120700Y-123790200D03*
%TD*%
D32*
%TO.N,Net-(D25-K)*%
X172885900Y-68915100D02*
X173300000Y-68915100D01*
X169415100Y-72385900D02*
X172885900Y-68915100D01*
X169415100Y-73000000D02*
X169415100Y-72385900D01*
X168220000Y-73000000D02*
X169415100Y-73000000D01*
X173300000Y-67590000D02*
X173300000Y-68915100D01*
%TO.N,Net-(J56-Pin_2)*%
X161870500Y-79200400D02*
X162550000Y-79879900D01*
X161870500Y-69340500D02*
X161870500Y-79200400D01*
X160150000Y-67620000D02*
X161870500Y-69340500D01*
X162550000Y-81300000D02*
X162550000Y-79879900D01*
%TO.N,Net-(J56-Pin_4)*%
X167630000Y-81300000D02*
X166434900Y-81300000D01*
X166434900Y-81930300D02*
X166434900Y-81300000D01*
X165176400Y-83188800D02*
X166434900Y-81930300D01*
X158963100Y-83188800D02*
X165176400Y-83188800D01*
X157732400Y-81958100D02*
X158963100Y-83188800D01*
X157732400Y-58897600D02*
X157732400Y-81958100D01*
X159680000Y-56950000D02*
X157732400Y-58897600D01*
%TO.N,Net-(J56-Pin_3)*%
X164410000Y-79199900D02*
X165090000Y-79879900D01*
X164410000Y-70413800D02*
X164410000Y-79199900D01*
X160346200Y-66350000D02*
X164410000Y-70413800D01*
X159918300Y-66350000D02*
X160346200Y-66350000D01*
X159115100Y-65546800D02*
X159918300Y-66350000D01*
X159115100Y-63504900D02*
X159115100Y-65546800D01*
X160100000Y-62520000D02*
X159115100Y-63504900D01*
X165090000Y-81300000D02*
X165090000Y-79879900D01*
%TO.N,Net-(J58-Pin_4)*%
X151114900Y-41600300D02*
X151114900Y-40970000D01*
X147591700Y-45123500D02*
X151114900Y-41600300D01*
X138926500Y-45123500D02*
X147591700Y-45123500D01*
X137850000Y-46200000D02*
X138926500Y-45123500D01*
X152310000Y-40970000D02*
X151114900Y-40970000D01*
%TO.N,Net-(D24-K)*%
X206660000Y-72450000D02*
X206660000Y-68600000D01*
X207930000Y-73720000D02*
X206660000Y-72450000D01*
%TO.N,Net-(D8-K)*%
X207880000Y-83895100D02*
X206410000Y-82425100D01*
X207880000Y-86570000D02*
X207880000Y-83895100D01*
X206410000Y-81100000D02*
X206410000Y-82425100D01*
%TO.N,D41*%
X184780000Y-74550000D02*
X183584900Y-74550000D01*
X179880000Y-90800000D02*
X178684900Y-90800000D01*
X187630000Y-97002500D02*
X187630000Y-100486000D01*
X182946900Y-92319400D02*
X187630000Y-97002500D01*
X181399400Y-92319400D02*
X182946900Y-92319400D01*
X179880000Y-90800000D02*
X181399400Y-92319400D01*
X182788000Y-75993100D02*
X181045000Y-75993100D01*
X183584900Y-75196200D02*
X182788000Y-75993100D01*
X183584900Y-74550000D02*
X183584900Y-75196200D01*
X178684900Y-89604900D02*
X178684900Y-90800000D01*
X176124800Y-87044800D02*
X178684900Y-89604900D01*
X176124800Y-80913300D02*
X176124800Y-87044800D01*
X181045000Y-75993100D02*
X176124800Y-80913300D01*
X175215400Y-65750500D02*
X173300000Y-63835100D01*
X175215400Y-68146500D02*
X175215400Y-65750500D01*
X180970000Y-73901100D02*
X175215400Y-68146500D01*
X180970000Y-75918100D02*
X180970000Y-73901100D01*
X181045000Y-75993100D02*
X180970000Y-75918100D01*
X173300000Y-62510000D02*
X173300000Y-63172500D01*
X173300000Y-63172500D02*
X173300000Y-63835100D01*
X173890000Y-62582500D02*
X173890000Y-58400000D01*
X173300000Y-63172500D02*
X173890000Y-62582500D01*
%TO.N,D26*%
X187420000Y-64197400D02*
X187420000Y-66500000D01*
X193622300Y-57995100D02*
X187420000Y-64197400D01*
X193980000Y-57995100D02*
X193622300Y-57995100D01*
X193980000Y-56820000D02*
X193980000Y-57995100D01*
%TO.N,D32*%
X209224900Y-77871700D02*
X205853200Y-74500000D01*
X209224900Y-86570000D02*
X209224900Y-77871700D01*
X210420000Y-86570000D02*
X209224900Y-86570000D01*
%TO.N,D24*%
X183535100Y-65869700D02*
X183535100Y-66500000D01*
X185585000Y-63819800D02*
X183535100Y-65869700D01*
X186528300Y-63819800D02*
X185585000Y-63819800D01*
X192804900Y-57543200D02*
X186528300Y-63819800D01*
X192804900Y-56262900D02*
X192804900Y-57543200D01*
X193612700Y-55455100D02*
X192804900Y-56262900D01*
X193980000Y-55455100D02*
X193612700Y-55455100D01*
X193980000Y-54280000D02*
X193980000Y-55455100D01*
X182340000Y-66500000D02*
X183535100Y-66500000D01*
%TO.N,D35*%
X209274900Y-72524900D02*
X209274900Y-73720000D01*
X208270400Y-71520400D02*
X209274900Y-72524900D01*
X208270400Y-53667100D02*
X208270400Y-71520400D01*
X209102400Y-52835100D02*
X208270400Y-53667100D01*
X209700000Y-52835100D02*
X209102400Y-52835100D01*
X209700000Y-51640000D02*
X209700000Y-52835100D01*
X210470000Y-73720000D02*
X209274900Y-73720000D01*
X201050000Y-82120000D02*
X201050000Y-80944900D01*
X200682700Y-80944900D02*
X201050000Y-80944900D01*
X199609900Y-79872100D02*
X200682700Y-80944900D01*
X199609900Y-79307800D02*
X199609900Y-79872100D01*
X199424800Y-79122700D02*
X199609900Y-79307800D01*
X199424800Y-71436800D02*
X199424800Y-79122700D01*
X198524600Y-70536600D02*
X199424800Y-71436800D01*
X198524600Y-68984600D02*
X198524600Y-70536600D01*
X196520000Y-66980000D02*
X198524600Y-68984600D01*
%TO.N,D44*%
X193980000Y-79680000D02*
X193980000Y-80855100D01*
X192626800Y-117054900D02*
X192441700Y-117240000D01*
X192626800Y-96894200D02*
X192626800Y-117054900D01*
X191825200Y-96092600D02*
X192626800Y-96894200D01*
X191825200Y-82644600D02*
X191825200Y-96092600D01*
X193614700Y-80855100D02*
X191825200Y-82644600D01*
X193980000Y-80855100D02*
X193614700Y-80855100D01*
%TO.N,D39*%
X178504900Y-75745100D02*
X178504900Y-74550000D01*
X173604900Y-80645100D02*
X178504900Y-75745100D01*
X173604900Y-90800000D02*
X173604900Y-80645100D01*
X174800000Y-90800000D02*
X173604900Y-90800000D01*
X179700000Y-74550000D02*
X178504900Y-74550000D01*
X209700000Y-61800000D02*
X209700000Y-62995100D01*
X210440000Y-104194500D02*
X210440000Y-103169400D01*
X210671000Y-62995100D02*
X209700000Y-62995100D01*
X213523100Y-65847200D02*
X210671000Y-62995100D01*
X213523100Y-100086300D02*
X213523100Y-65847200D01*
X210440000Y-103169400D02*
X213523100Y-100086300D01*
%TO.N,D34*%
X201050000Y-79580000D02*
X201050000Y-78404900D01*
X193980000Y-66980000D02*
X195155100Y-66980000D01*
X214439100Y-59516700D02*
X214439100Y-82656000D01*
X210297500Y-55375100D02*
X214439100Y-59516700D01*
X209700000Y-55375100D02*
X210297500Y-55375100D01*
X209700000Y-54180000D02*
X209700000Y-55375100D01*
X200711700Y-78404900D02*
X201050000Y-78404900D01*
X199874900Y-77568100D02*
X200711700Y-78404900D01*
X199874900Y-71250300D02*
X199874900Y-77568100D01*
X198974700Y-70350100D02*
X199874900Y-71250300D01*
X198974700Y-67749600D02*
X198974700Y-70350100D01*
X197014500Y-65789400D02*
X198974700Y-67749600D01*
X195980400Y-65789400D02*
X197014500Y-65789400D01*
X195155100Y-66614700D02*
X195980400Y-65789400D01*
X195155100Y-66980000D02*
X195155100Y-66614700D01*
%TO.N,D40*%
X204450000Y-107080000D02*
X204450000Y-105904900D01*
X211740000Y-79524900D02*
X211740000Y-68600000D01*
X211490000Y-79774900D02*
X211740000Y-79524900D01*
X211490000Y-81100000D02*
X211490000Y-80437400D01*
X211490000Y-80437400D02*
X211490000Y-79774900D01*
X210440000Y-106799100D02*
X210440000Y-105774000D01*
X209408100Y-104742100D02*
X210440000Y-105774000D01*
X209408100Y-99439600D02*
X209408100Y-104742100D01*
X211678400Y-97169300D02*
X209408100Y-99439600D01*
X211678400Y-80625800D02*
X211678400Y-97169300D01*
X211490000Y-80437400D02*
X211678400Y-80625800D01*
X192258900Y-72071000D02*
X192258900Y-71462700D01*
X193612800Y-73424900D02*
X192258900Y-72071000D01*
X193980000Y-73424900D02*
X193612800Y-73424900D01*
X193980000Y-74600000D02*
X193980000Y-73424900D01*
X201700000Y-103520200D02*
X201700000Y-97550000D01*
X204084700Y-105904900D02*
X201700000Y-103520200D01*
X204450000Y-105904900D02*
X204084700Y-105904900D01*
X194345200Y-75775100D02*
X193980000Y-75775100D01*
X195250000Y-76679900D02*
X194345200Y-75775100D01*
X195250000Y-77554100D02*
X195250000Y-76679900D01*
X196072500Y-78376600D02*
X195250000Y-77554100D01*
X196974900Y-78376600D02*
X196072500Y-78376600D01*
X197820600Y-79222300D02*
X196974900Y-78376600D01*
X197820600Y-80344100D02*
X197820600Y-79222300D01*
X198749700Y-81273200D02*
X197820600Y-80344100D01*
X198749700Y-86208200D02*
X198749700Y-81273200D01*
X199600400Y-87058900D02*
X198749700Y-86208200D01*
X199600400Y-87589100D02*
X199600400Y-87058900D01*
X200374900Y-88363600D02*
X199600400Y-87589100D01*
X200374900Y-94899800D02*
X200374900Y-88363600D01*
X201700000Y-96224900D02*
X200374900Y-94899800D01*
X201700000Y-97550000D02*
X201700000Y-96224900D01*
X193980000Y-74600000D02*
X193980000Y-75775100D01*
X184995200Y-96930700D02*
X184995200Y-99792000D01*
X183844700Y-95780200D02*
X184995200Y-96930700D01*
X182320200Y-95780200D02*
X183844700Y-95780200D01*
X177340000Y-90800000D02*
X182320200Y-95780200D01*
%TO.N,D49*%
X204450000Y-129940000D02*
X204450000Y-128764900D01*
X196520000Y-84760000D02*
X196520000Y-85935100D01*
X204817200Y-128764900D02*
X204450000Y-128764900D01*
X205689200Y-127892900D02*
X204817200Y-128764900D01*
X205689200Y-121842100D02*
X205689200Y-127892900D01*
X204897100Y-121050000D02*
X205689200Y-121842100D01*
X203984500Y-121050000D02*
X204897100Y-121050000D01*
X198861500Y-115927000D02*
X203984500Y-121050000D01*
X198861500Y-96163100D02*
X198861500Y-115927000D01*
X197700000Y-95001600D02*
X198861500Y-96163100D01*
X197700000Y-86749900D02*
X197700000Y-95001600D01*
X196885200Y-85935100D02*
X197700000Y-86749900D01*
X196520000Y-85935100D02*
X196885200Y-85935100D01*
%TO.N,D37*%
X196520000Y-69520000D02*
X196520000Y-70695100D01*
X201050000Y-87200000D02*
X201050000Y-86035500D01*
X209069700Y-47755100D02*
X209700000Y-47755100D01*
X205211500Y-51613300D02*
X209069700Y-47755100D01*
X205211500Y-77107100D02*
X205211500Y-51613300D01*
X209700000Y-46560000D02*
X209700000Y-47755100D01*
X196885200Y-70695100D02*
X196520000Y-70695100D01*
X198524600Y-72334500D02*
X196885200Y-70695100D01*
X198524600Y-79743200D02*
X198524600Y-72334500D01*
X198534700Y-79753300D02*
X198524600Y-79743200D01*
X198534700Y-80421500D02*
X198534700Y-79753300D01*
X199199800Y-81086600D02*
X198534700Y-80421500D01*
X199199800Y-84542000D02*
X199199800Y-81086600D01*
X200693300Y-86035500D02*
X199199800Y-84542000D01*
X201050000Y-86035500D02*
X200693300Y-86035500D01*
%TO.N,D42*%
X187320000Y-74550000D02*
X187320000Y-75970100D01*
X204084700Y-110984900D02*
X204450000Y-110984900D01*
X199924700Y-106824900D02*
X204084700Y-110984900D01*
X199924700Y-89139800D02*
X199924700Y-106824900D01*
X198975300Y-88190400D02*
X199924700Y-89139800D01*
X198975300Y-87317800D02*
X198975300Y-88190400D01*
X195270200Y-79238100D02*
X195270200Y-81552800D01*
X194347200Y-78315100D02*
X195270200Y-79238100D01*
X193980000Y-78315100D02*
X194347200Y-78315100D01*
X193980000Y-77140000D02*
X193980000Y-78315100D01*
X204450000Y-112160000D02*
X204450000Y-110984900D01*
X188026700Y-77695600D02*
X188026800Y-77695600D01*
X188026700Y-76676800D02*
X188026700Y-77695600D01*
X187320000Y-75970100D02*
X188026700Y-76676800D01*
%TO.N,D38*%
X213073000Y-97931900D02*
X210440000Y-100564900D01*
X213073000Y-67713000D02*
X213073000Y-97931900D01*
X209700000Y-64340000D02*
X213073000Y-67713000D01*
X210440000Y-101590000D02*
X210440000Y-100564900D01*
X171059600Y-89599600D02*
X172260000Y-90800000D01*
X171059600Y-80650400D02*
X171059600Y-89599600D01*
X177160000Y-74550000D02*
X171059600Y-80650400D01*
%TO.N,D27*%
X197695100Y-57651100D02*
X197695100Y-56820000D01*
X200668900Y-60624900D02*
X197695100Y-57651100D01*
X201050000Y-60624900D02*
X200668900Y-60624900D01*
X201050000Y-61800000D02*
X201050000Y-60624900D01*
X196520000Y-56820000D02*
X197695100Y-56820000D01*
%TO.N,D46*%
X193980000Y-82220000D02*
X193980000Y-83395100D01*
X193076900Y-96389600D02*
X193076900Y-119268400D01*
X192284300Y-95597000D02*
X193076900Y-96389600D01*
X192284300Y-84723600D02*
X192284300Y-95597000D01*
X193612800Y-83395100D02*
X192284300Y-84723600D01*
X193980000Y-83395100D02*
X193612800Y-83395100D01*
%TO.N,D45*%
X204450000Y-119780000D02*
X204450000Y-118604900D01*
X196520000Y-79680000D02*
X196520000Y-80855100D01*
X204082800Y-118604900D02*
X204450000Y-118604900D01*
X199474600Y-113996700D02*
X204082800Y-118604900D01*
X199474600Y-94263100D02*
X199474600Y-113996700D01*
X198299500Y-93088000D02*
X199474600Y-94263100D01*
X198299500Y-82269400D02*
X198299500Y-93088000D01*
X196885200Y-80855100D02*
X198299500Y-82269400D01*
X196520000Y-80855100D02*
X196885200Y-80855100D01*
%TO.N,D33*%
X190040000Y-82700000D02*
X191235100Y-82700000D01*
X196520000Y-64440000D02*
X195344900Y-64440000D01*
X190120000Y-94669500D02*
X190120000Y-107970000D01*
X191235100Y-93554400D02*
X190120000Y-94669500D01*
X191235100Y-82700000D02*
X191235100Y-93554400D01*
X195344900Y-64805200D02*
X195344900Y-64440000D01*
X194345300Y-65804800D02*
X195344900Y-64805200D01*
X193427200Y-65804800D02*
X194345300Y-65804800D01*
X191516400Y-67715600D02*
X193427200Y-65804800D01*
X191516400Y-76396600D02*
X191516400Y-67715600D01*
X191235100Y-76677900D02*
X191516400Y-76396600D01*
X191235100Y-82700000D02*
X191235100Y-76677900D01*
X201050000Y-77040000D02*
X201050000Y-75864900D01*
X202381500Y-74900600D02*
X202381500Y-63148000D01*
X201417200Y-75864900D02*
X202381500Y-74900600D01*
X201050000Y-75864900D02*
X201417200Y-75864900D01*
%TO.N,D29*%
X196885200Y-60535100D02*
X196520000Y-60535100D01*
X199874800Y-63524700D02*
X196885200Y-60535100D01*
X199874800Y-64834800D02*
X199874800Y-63524700D01*
X200744900Y-65704900D02*
X199874800Y-64834800D01*
X201050000Y-65704900D02*
X200744900Y-65704900D01*
X201050000Y-66880000D02*
X201050000Y-65704900D01*
X181075100Y-83895100D02*
X181075100Y-82700000D01*
X183764900Y-86584900D02*
X181075100Y-83895100D01*
X183764900Y-90800000D02*
X183764900Y-86584900D01*
X184960000Y-90800000D02*
X183764900Y-90800000D01*
X179880000Y-82700000D02*
X181075100Y-82700000D01*
X196520000Y-59360000D02*
X196520000Y-60535100D01*
X191066300Y-71354200D02*
X189963800Y-70251700D01*
X191066300Y-76152300D02*
X191066300Y-71354200D01*
X189181600Y-78037000D02*
X191066300Y-76152300D01*
X189181600Y-78172700D02*
X189181600Y-78037000D01*
X187121400Y-80232900D02*
X189181600Y-78172700D01*
X186839900Y-80232900D02*
X187121400Y-80232900D01*
%TO.N,D28*%
X178535100Y-83895100D02*
X178535100Y-82700000D01*
X181224900Y-86584900D02*
X178535100Y-83895100D01*
X181224900Y-90800000D02*
X181224900Y-86584900D01*
X182420000Y-90800000D02*
X181224900Y-90800000D01*
X177340000Y-82700000D02*
X178535100Y-82700000D01*
X200684700Y-63164900D02*
X201050000Y-63164900D01*
X198625800Y-61106000D02*
X200684700Y-63164900D01*
X198625800Y-59733800D02*
X198625800Y-61106000D01*
X197048300Y-58156300D02*
X198625800Y-59733800D01*
X195991600Y-58156300D02*
X197048300Y-58156300D01*
X195155100Y-58992800D02*
X195991600Y-58156300D01*
X195155100Y-59360000D02*
X195155100Y-58992800D01*
X201050000Y-64340000D02*
X201050000Y-63164900D01*
X193980000Y-59360000D02*
X194414500Y-59360000D01*
X194414500Y-59360000D02*
X195155100Y-59360000D01*
X178535100Y-82115600D02*
X178535100Y-82700000D01*
X180288000Y-80362700D02*
X178535100Y-82115600D01*
X180900700Y-80362700D02*
X180288000Y-80362700D01*
X186050000Y-75213400D02*
X180900700Y-80362700D01*
X186050000Y-69788100D02*
X186050000Y-75213400D01*
X188693500Y-67144600D02*
X186050000Y-69788100D01*
X188693500Y-65081000D02*
X188693500Y-67144600D01*
X194414500Y-59360000D02*
X188693500Y-65081000D01*
%TO.N,D43*%
X180010000Y-102753200D02*
X184609700Y-107352900D01*
X180010000Y-97061500D02*
X180010000Y-102753200D01*
X176070000Y-93121500D02*
X180010000Y-97061500D01*
X176070000Y-89775200D02*
X176070000Y-93121500D01*
X174800000Y-88505200D02*
X176070000Y-89775200D01*
X174800000Y-82700000D02*
X174800000Y-88505200D01*
%TO.N,D31*%
X186155100Y-83895100D02*
X186155100Y-82700000D01*
X188844900Y-86584900D02*
X186155100Y-83895100D01*
X188844900Y-90800000D02*
X188844900Y-86584900D01*
X190040000Y-90800000D02*
X188844900Y-90800000D01*
X184960000Y-82700000D02*
X186155100Y-82700000D01*
X196520000Y-61900000D02*
X196520000Y-63075100D01*
X201050000Y-71960000D02*
X201050000Y-70784900D01*
X200734600Y-70784900D02*
X201050000Y-70784900D01*
X199424800Y-69475100D02*
X200734600Y-70784900D01*
X199424800Y-66251300D02*
X199424800Y-69475100D01*
X198359300Y-65185800D02*
X199424800Y-66251300D01*
X198359300Y-64549200D02*
X198359300Y-65185800D01*
X196885200Y-63075100D02*
X198359300Y-64549200D01*
X196520000Y-63075100D02*
X196885200Y-63075100D01*
%TO.N,D36*%
X193980000Y-69520000D02*
X195155100Y-69520000D01*
X203144300Y-81757800D02*
X203144300Y-60545100D01*
X201417200Y-83484900D02*
X203144300Y-81757800D01*
X201050000Y-83484900D02*
X201417200Y-83484900D01*
X200693300Y-83495500D02*
X201050000Y-83495500D01*
X199649900Y-82452100D02*
X200693300Y-83495500D01*
X199649900Y-80872600D02*
X199649900Y-82452100D01*
X199159800Y-80382500D02*
X199649900Y-80872600D01*
X199159800Y-79494300D02*
X199159800Y-80382500D01*
X198974700Y-79309200D02*
X199159800Y-79494300D01*
X198974700Y-71623300D02*
X198974700Y-79309200D01*
X198074500Y-70723100D02*
X198974700Y-71623300D01*
X198074500Y-69357400D02*
X198074500Y-70723100D01*
X197046500Y-68329400D02*
X198074500Y-69357400D01*
X195980400Y-68329400D02*
X197046500Y-68329400D01*
X195155100Y-69154700D02*
X195980400Y-68329400D01*
X195155100Y-69520000D02*
X195155100Y-69154700D01*
X201050000Y-83495500D02*
X201050000Y-83484900D01*
X201050000Y-84660000D02*
X201050000Y-83495500D01*
%TO.N,D48*%
X204450000Y-127400000D02*
X204450000Y-126224900D01*
X193980000Y-84760000D02*
X193980000Y-85935100D01*
X193614700Y-85935100D02*
X193980000Y-85935100D01*
X192785800Y-86764000D02*
X193614700Y-85935100D01*
X192785800Y-95461800D02*
X192785800Y-86764000D01*
X193527000Y-96203000D02*
X192785800Y-95461800D01*
X193527000Y-115669100D02*
X193527000Y-96203000D01*
X204082800Y-126224900D02*
X193527000Y-115669100D01*
X204450000Y-126224900D02*
X204082800Y-126224900D01*
%TO.N,D30*%
X183615100Y-83895100D02*
X183615100Y-82700000D01*
X186304900Y-86584900D02*
X183615100Y-83895100D01*
X186304900Y-90800000D02*
X186304900Y-86584900D01*
X187500000Y-90800000D02*
X186304900Y-90800000D01*
X198984400Y-64856100D02*
X198984400Y-64432400D01*
X199874900Y-65746600D02*
X198984400Y-64856100D01*
X199874900Y-67437100D02*
X199874900Y-65746600D01*
X200682700Y-68244900D02*
X199874900Y-67437100D01*
X201050000Y-68244900D02*
X200682700Y-68244900D01*
X201050000Y-69420000D02*
X201050000Y-68244900D01*
X182420000Y-82700000D02*
X182891600Y-82700000D01*
X182891600Y-82700000D02*
X183615100Y-82700000D01*
X193980000Y-61900000D02*
X193980000Y-63075100D01*
X186099300Y-79492300D02*
X182891600Y-82700000D01*
X187114400Y-79492300D02*
X186099300Y-79492300D01*
X188653900Y-77952800D02*
X187114400Y-79492300D01*
X188653900Y-69766100D02*
X188653900Y-77952800D01*
X192615200Y-65804800D02*
X188653900Y-69766100D01*
X192615200Y-64074600D02*
X192615200Y-65804800D01*
X193614700Y-63075100D02*
X192615200Y-64074600D01*
X193980000Y-63075100D02*
X193614700Y-63075100D01*
%TO.N,D47*%
X204084700Y-123684900D02*
X204450000Y-123684900D01*
X195220100Y-114820300D02*
X204084700Y-123684900D01*
X195220100Y-84327800D02*
X195220100Y-114820300D01*
X196152800Y-83395100D02*
X195220100Y-84327800D01*
X196520000Y-83395100D02*
X196152800Y-83395100D01*
X196520000Y-82220000D02*
X196520000Y-83395100D01*
X204450000Y-124860000D02*
X204450000Y-123684900D01*
%TO.N,A12 D66*%
X183820000Y-101905000D02*
X183820000Y-97460000D01*
%TO.N,A9 D63*%
X173180000Y-119010000D02*
X174705100Y-119010000D01*
X176200000Y-117515100D02*
X176200000Y-103080100D01*
X174705100Y-119010000D02*
X176200000Y-117515100D01*
X176200000Y-102225000D02*
X176200000Y-103080100D01*
X176200000Y-102225000D02*
X176200000Y-101905000D01*
X176200000Y-101905000D02*
X176200000Y-97460000D01*
%TO.N,A8 D62*%
X173660000Y-101905000D02*
X173660000Y-97460000D01*
X174705100Y-104125200D02*
X173660000Y-103080100D01*
X174705100Y-116470000D02*
X174705100Y-104125200D01*
X173180000Y-116470000D02*
X174705100Y-116470000D01*
X173660000Y-101905000D02*
X173660000Y-103080100D01*
%TO.N,A11 D65*%
X181280000Y-101905000D02*
X181280000Y-97460000D01*
%TO.N,A13 D67*%
X186360000Y-101905000D02*
X186360000Y-97460000D01*
%TO.N,A15 D69*%
X191440000Y-101905000D02*
X191440000Y-97460000D01*
X167487700Y-110810000D02*
X167487700Y-103226000D01*
X165637700Y-112660000D02*
X167487700Y-110810000D01*
X163688900Y-112660000D02*
X165637700Y-112660000D01*
X162954100Y-113394800D02*
X163688900Y-112660000D01*
%TO.N,A10 D64*%
X178740000Y-101905000D02*
X178740000Y-97460000D01*
X176650200Y-105169900D02*
X178740000Y-103080100D01*
X176650200Y-118079800D02*
X176650200Y-105169900D01*
X173180000Y-121550000D02*
X176650200Y-118079800D01*
X178740000Y-101905000D02*
X178740000Y-103080100D01*
%TO.N,A14 D68*%
X188900000Y-101905000D02*
X188900000Y-97460000D01*
%TO.N,A5 D59*%
X163500000Y-97460000D02*
X164675100Y-97460000D01*
X173180000Y-108850000D02*
X171654900Y-108850000D01*
X163500000Y-101905000D02*
X163500000Y-100729900D01*
X168547100Y-99554800D02*
X164675100Y-99554800D01*
X171654900Y-102662600D02*
X168547100Y-99554800D01*
X171654900Y-108850000D02*
X171654900Y-102662600D01*
X164675100Y-97460000D02*
X164675100Y-99554800D01*
X164675100Y-99554800D02*
X163500000Y-100729900D01*
%TO.N,A1 D55*%
X153340000Y-101905000D02*
X153340000Y-97460000D01*
%TO.N,A2 D56*%
X155880000Y-101905000D02*
X155880000Y-97460000D01*
%TO.N,A4 D58*%
X162135100Y-97094700D02*
X162135100Y-97460000D01*
X162947400Y-96282400D02*
X162135100Y-97094700D01*
X166541500Y-96282400D02*
X162947400Y-96282400D01*
X167310000Y-97050900D02*
X166541500Y-96282400D01*
X167310000Y-97885500D02*
X167310000Y-97050900D01*
X168517500Y-99093000D02*
X167310000Y-97885500D01*
X168722000Y-99093000D02*
X168517500Y-99093000D01*
X172454200Y-102825200D02*
X168722000Y-99093000D01*
X172454200Y-105584200D02*
X172454200Y-102825200D01*
X173180000Y-106310000D02*
X172454200Y-105584200D01*
X160960000Y-97460000D02*
X162135100Y-97460000D01*
X160960000Y-101905000D02*
X160960000Y-97460000D01*
%TO.N,A6 D60*%
X167215100Y-101539700D02*
X167215100Y-101905000D01*
X168036000Y-100718800D02*
X167215100Y-101539700D01*
X169074400Y-100718800D02*
X168036000Y-100718800D01*
X170639200Y-102283600D02*
X169074400Y-100718800D01*
X170639200Y-110374300D02*
X170639200Y-102283600D01*
X171654900Y-111390000D02*
X170639200Y-110374300D01*
X173180000Y-111390000D02*
X171654900Y-111390000D01*
X166040000Y-101905000D02*
X167215100Y-101905000D01*
%TO.N,A3 D57*%
X158420000Y-101905000D02*
X158420000Y-97460000D01*
%TO.N,A7 D61*%
X173180000Y-113930000D02*
X171654900Y-113930000D01*
X168580000Y-101905000D02*
X168580000Y-103080100D01*
X168580000Y-110855100D02*
X171654900Y-113930000D01*
X168580000Y-103080100D02*
X168580000Y-110855100D01*
%TO.N,D4*%
X153340000Y-53010000D02*
X153340000Y-49200000D01*
%TO.N,D7*%
X145720000Y-53010000D02*
X145720000Y-49200000D01*
%TO.N,D5*%
X150800000Y-53010000D02*
X150800000Y-49200000D01*
%TO.N,D1*%
X160960000Y-53010000D02*
X160960000Y-49200000D01*
%TO.N,D2*%
X158420000Y-49200000D02*
X158420000Y-53010000D01*
X170943700Y-54803700D02*
X170325100Y-54185100D01*
X170943700Y-67736300D02*
X170943700Y-54803700D01*
X166875100Y-71804900D02*
X170943700Y-67736300D01*
X166875100Y-73000000D02*
X166875100Y-71804900D01*
X165680000Y-73000000D02*
X166875100Y-73000000D01*
%TO.N,D3*%
X163140000Y-73000000D02*
X163140000Y-74420100D01*
X155880000Y-53010000D02*
X155880000Y-49200000D01*
X163820000Y-75100100D02*
X163140000Y-74420100D01*
X163820000Y-81950400D02*
X163820000Y-75100100D01*
X163031700Y-82738700D02*
X163820000Y-81950400D01*
X159149600Y-82738700D02*
X163031700Y-82738700D01*
X158182500Y-81771600D02*
X159149600Y-82738700D01*
X158182500Y-59797000D02*
X158182500Y-81771600D01*
X159893500Y-58086000D02*
X158182500Y-59797000D01*
X160052700Y-58086000D02*
X159893500Y-58086000D01*
X160709400Y-57429300D02*
X160052700Y-58086000D01*
X160709400Y-56475300D02*
X160709400Y-57429300D01*
X158419200Y-54185100D02*
X160709400Y-56475300D01*
X157862900Y-54185100D02*
X158419200Y-54185100D01*
X157055100Y-53377300D02*
X157862900Y-54185100D01*
X157055100Y-53010000D02*
X157055100Y-53377300D01*
X155880000Y-53010000D02*
X157055100Y-53010000D01*
%TO.N,/COIL AND LAMP DRIVERS/STR PT*%
X164875000Y-106310000D02*
X163349900Y-106310000D01*
X147610000Y-130350000D02*
X148805100Y-130350000D01*
X148805100Y-129154900D02*
X148805100Y-130350000D01*
X150487600Y-127472400D02*
X148805100Y-129154900D01*
X150487600Y-121231200D02*
X150487600Y-127472400D01*
X156518800Y-115200000D02*
X150487600Y-121231200D01*
X158025100Y-115200000D02*
X156518800Y-115200000D01*
X163349900Y-109875200D02*
X158025100Y-115200000D01*
X163349900Y-106310000D02*
X163349900Y-109875200D01*
%TO.N,/COIL AND LAMP DRIVERS/ANCHR*%
X151345100Y-122913700D02*
X151345100Y-130350000D01*
X156518800Y-117740000D02*
X151345100Y-122913700D01*
X158025100Y-117740000D02*
X156518800Y-117740000D01*
X159153000Y-116612100D02*
X158025100Y-117740000D01*
X159153000Y-114708700D02*
X159153000Y-116612100D01*
X164875000Y-108986700D02*
X159153000Y-114708700D01*
X164875000Y-108850000D02*
X164875000Y-108986700D01*
X150150000Y-130350000D02*
X151345100Y-130350000D01*
%TO.N,/COIL AND LAMP DRIVERS/TCN*%
X152690000Y-124106900D02*
X152690000Y-130350000D01*
X156516900Y-120280000D02*
X152690000Y-124106900D01*
X158019700Y-120280000D02*
X156516900Y-120280000D01*
X159657100Y-118642600D02*
X158019700Y-120280000D01*
X159657100Y-115082800D02*
X159657100Y-118642600D01*
X163349900Y-111390000D02*
X159657100Y-115082800D01*
X164875000Y-111390000D02*
X163349900Y-111390000D01*
%TO.N,/COIL AND LAMP DRIVERS/ILS*%
X163349900Y-123425200D02*
X156425100Y-130350000D01*
X163349900Y-113930000D02*
X163349900Y-123425200D01*
X155230000Y-130350000D02*
X156425100Y-130350000D01*
X164875000Y-113930000D02*
X163349900Y-113930000D01*
%TO.N,D6*%
X148260000Y-53010000D02*
X148260000Y-49200000D01*
%TO.N,/COIL AND LAMP DRIVERS/PRI*%
X164565100Y-129304900D02*
X164565100Y-130500000D01*
X167664800Y-126205200D02*
X164565100Y-129304900D01*
X167664800Y-122510800D02*
X167664800Y-126205200D01*
X172435600Y-117740000D02*
X167664800Y-122510800D01*
X174096500Y-117740000D02*
X172435600Y-117740000D01*
X175452600Y-116383900D02*
X174096500Y-117740000D01*
X175452600Y-112092500D02*
X175452600Y-116383900D01*
X163370000Y-130500000D02*
X164565100Y-130500000D01*
%TO.N,/COIL AND LAMP DRIVERS/SEP*%
X177670700Y-112994200D02*
X179274900Y-111390000D01*
X177670700Y-119112300D02*
X177670700Y-112994200D01*
X174036900Y-122746100D02*
X177670700Y-119112300D01*
X172243800Y-122746100D02*
X174036900Y-122746100D01*
X165910000Y-129079900D02*
X172243800Y-122746100D01*
X165910000Y-130500000D02*
X165910000Y-129079900D01*
X180800000Y-111390000D02*
X179274900Y-111390000D01*
%TO.N,/COIL AND LAMP DRIVERS/MISSLE LAUNCH*%
X180800000Y-113930000D02*
X179274900Y-113930000D01*
X168450000Y-130500000D02*
X169645100Y-130500000D01*
X169645100Y-129692600D02*
X169645100Y-130500000D01*
X178374700Y-120963000D02*
X169645100Y-129692600D01*
X178374700Y-114830200D02*
X178374700Y-120963000D01*
X179274900Y-113930000D02*
X178374700Y-114830200D01*
%TO.N,/COIL AND LAMP DRIVERS/HARS*%
X170990000Y-130500000D02*
X172185100Y-130500000D01*
X180800000Y-116470000D02*
X179274900Y-116470000D01*
X172185100Y-129304900D02*
X172185100Y-130500000D01*
X178824800Y-122665200D02*
X172185100Y-129304900D01*
X178824800Y-116920100D02*
X178824800Y-122665200D01*
X179274900Y-116470000D02*
X178824800Y-116920100D01*
%TO.N,/COIL AND LAMP DRIVERS/EGI*%
X179274900Y-125950200D02*
X174725100Y-130500000D01*
X179274900Y-119010000D02*
X179274900Y-125950200D01*
X173530000Y-130500000D02*
X174725100Y-130500000D01*
X180800000Y-119010000D02*
X179274900Y-119010000D01*
%TO.N,/COIL AND LAMP DRIVERS/B_LEFT_FIRE*%
X150475100Y-105843900D02*
X150475100Y-106310000D01*
X149599500Y-104968300D02*
X150475100Y-105843900D01*
X149599500Y-95883200D02*
X149599500Y-104968300D01*
X152797800Y-92684900D02*
X149599500Y-95883200D01*
X152797800Y-84801500D02*
X152797800Y-92684900D01*
X151563200Y-83566900D02*
X152797800Y-84801500D01*
X151563200Y-58704000D02*
X151563200Y-83566900D01*
X152004400Y-58262800D02*
X151563200Y-58704000D01*
X153698700Y-58262800D02*
X152004400Y-58262800D01*
X154184900Y-58749000D02*
X153698700Y-58262800D01*
X154184900Y-59720000D02*
X154184900Y-58749000D01*
X155380000Y-59720000D02*
X154184900Y-59720000D01*
X148950000Y-106310000D02*
X150475100Y-106310000D01*
%TO.N,/COIL AND LAMP DRIVERS/B_RIGHT_FIRE*%
X154698800Y-107166300D02*
X150475100Y-111390000D01*
X154698800Y-80011300D02*
X154698800Y-107166300D01*
X155320000Y-79390100D02*
X154698800Y-80011300D01*
X155320000Y-77970000D02*
X155320000Y-79390100D01*
X148950000Y-111390000D02*
X150475100Y-111390000D01*
%TO.N,+24V*%
X152930000Y-59810000D02*
X152840000Y-59720000D01*
X152930000Y-68670000D02*
X152930000Y-59810000D01*
X152780000Y-68820000D02*
X152930000Y-68670000D01*
X152780000Y-77970000D02*
X152780000Y-68820000D01*
X148950000Y-126139900D02*
X148950000Y-124090000D01*
X146340000Y-128749900D02*
X148950000Y-126139900D01*
X146340000Y-131049500D02*
X146340000Y-128749900D01*
X145597100Y-131792400D02*
X146340000Y-131049500D01*
X141596800Y-131792400D02*
X145597100Y-131792400D01*
X136883500Y-127079100D02*
X141596800Y-131792400D01*
X136883500Y-90390500D02*
X136883500Y-127079100D01*
X137044000Y-90230000D02*
X136883500Y-90390500D01*
%TO.N,/COIL AND LAMP DRIVERS/B_APU_FIRE*%
X155470000Y-68670000D02*
X154274900Y-68670000D01*
X148950000Y-108850000D02*
X150475100Y-108850000D01*
X154274900Y-69865100D02*
X154274900Y-68670000D01*
X154064800Y-70075200D02*
X154274900Y-69865100D01*
X154064800Y-92241800D02*
X154064800Y-70075200D01*
X152162300Y-94144300D02*
X154064800Y-92241800D01*
X152162300Y-107162800D02*
X152162300Y-94144300D01*
X150475100Y-108850000D02*
X152162300Y-107162800D01*
%TO.N,D8*%
X141656000Y-52985000D02*
X141656000Y-49200000D01*
%TO.N,D9*%
X139116000Y-52985000D02*
X139116000Y-49200000D01*
X139915800Y-47225100D02*
X139116000Y-48024900D01*
X140390000Y-47225100D02*
X139915800Y-47225100D01*
X139116000Y-49200000D02*
X139116000Y-48024900D01*
X140390000Y-46200000D02*
X140390000Y-47225100D01*
%TO.N,D11*%
X133689800Y-48024900D02*
X134036000Y-48024900D01*
X132790000Y-47125100D02*
X133689800Y-48024900D01*
X132790000Y-46100000D02*
X132790000Y-47125100D01*
X134036000Y-49200000D02*
X134036000Y-48024900D01*
X134036000Y-52985000D02*
X134036000Y-49200000D01*
%TO.N,D19*%
X181280000Y-49200000D02*
X181280000Y-53010000D01*
X180995100Y-54470000D02*
X180995100Y-58450000D01*
X181280000Y-54185100D02*
X180995100Y-54470000D01*
X179800000Y-58450000D02*
X180995100Y-58450000D01*
X181280000Y-53010000D02*
X181280000Y-54185100D01*
%TO.N,D16*%
X175250000Y-46434900D02*
X173660000Y-48024900D01*
X175250000Y-41050000D02*
X175250000Y-46434900D01*
X173660000Y-49200000D02*
X173660000Y-48024900D01*
X173660000Y-53010000D02*
X173660000Y-49200000D01*
%TO.N,D18*%
X178740000Y-45180000D02*
X178740000Y-49200000D01*
X181674900Y-42245100D02*
X178740000Y-45180000D01*
X181674900Y-41050000D02*
X181674900Y-42245100D01*
X182870000Y-41050000D02*
X181674900Y-41050000D01*
X178740000Y-53010000D02*
X178740000Y-49200000D01*
%TO.N,D15*%
X171514900Y-47630000D02*
X171120000Y-48024900D01*
X171514900Y-41050000D02*
X171514900Y-47630000D01*
X172710000Y-41050000D02*
X171514900Y-41050000D01*
X171120000Y-49200000D02*
X171120000Y-48024900D01*
X171120000Y-53010000D02*
X171120000Y-49200000D01*
%TO.N,D17*%
X177790000Y-46434900D02*
X176200000Y-48024900D01*
X177790000Y-41050000D02*
X177790000Y-46434900D01*
X176200000Y-49200000D02*
X176200000Y-48024900D01*
X176200000Y-53010000D02*
X176200000Y-49200000D01*
%TO.N,D14*%
X168580000Y-42640000D02*
X168580000Y-49200000D01*
X170170000Y-41050000D02*
X168580000Y-42640000D01*
X168580000Y-53010000D02*
X168580000Y-49200000D01*
%TO.N,Net-(J10-Pin_4)*%
X211620000Y-38950000D02*
X211620000Y-42760000D01*
%TO.N,Net-(J10-Pin_3)*%
X209080000Y-38950000D02*
X209080000Y-42760000D01*
%TO.N,Net-(J10-Pin_2)*%
X206540000Y-38950000D02*
X206540000Y-42760000D01*
%TO.N,/COIL AND LAMP DRIVERS/CAUTION_LAMP-*%
X182325100Y-128904800D02*
X182325100Y-106310000D01*
X182300000Y-128929900D02*
X182325100Y-128904800D01*
X182300000Y-130350000D02*
X182300000Y-128929900D01*
X180800000Y-106310000D02*
X182325100Y-106310000D01*
%TO.N,D20 SDA*%
X121336000Y-52985000D02*
X121336000Y-49200000D01*
X183820000Y-49200000D02*
X183820000Y-53010000D01*
X183535100Y-54470000D02*
X183535100Y-58450000D01*
X183820000Y-54185100D02*
X183535100Y-54470000D01*
X182340000Y-58450000D02*
X183535100Y-58450000D01*
X183820000Y-53010000D02*
X183820000Y-54185100D01*
%TO.N,D21 SCL*%
X118796000Y-52985000D02*
X118796000Y-49200000D01*
X186360000Y-53010000D02*
X186360000Y-49200000D01*
%TO.N,Net-(J10-Pin_1)*%
X204000000Y-38950000D02*
X204000000Y-42760000D01*
%TO.N,SS*%
X136576000Y-52985000D02*
X136576000Y-49200000D01*
X131689900Y-59046200D02*
X136576000Y-54160100D01*
X131689900Y-122000100D02*
X131689900Y-59046200D01*
X127655000Y-126035000D02*
X131689900Y-122000100D01*
X136576000Y-52985000D02*
X136576000Y-54160100D01*
%TO.N,/~{RESET}*%
X133020000Y-101270000D02*
X133020000Y-97460000D01*
%TO.N,VCC*%
X145720000Y-101270000D02*
X145720000Y-97460000D01*
%TO.N,Net-(D2-A)*%
X119553000Y-42531900D02*
X121640000Y-44618900D01*
X119553000Y-40564000D02*
X119553000Y-42531900D01*
X121640000Y-45644000D02*
X121640000Y-44618900D01*
D33*
%TO.N,+12V*%
X125700000Y-63065000D02*
X125700000Y-75700000D01*
X125700000Y-86692400D02*
X125700000Y-75700000D01*
X125660000Y-86732400D02*
X125700000Y-86692400D01*
X125660000Y-88882500D02*
X125660000Y-86732400D01*
X164875000Y-126455000D02*
X160830000Y-130500000D01*
X164875000Y-124090000D02*
X164875000Y-126455000D01*
X146970200Y-96844800D02*
X151435000Y-92380000D01*
X146970200Y-125909800D02*
X146970200Y-96844800D01*
X142530000Y-130350000D02*
X146970200Y-125909800D01*
D32*
%TO.N,+3V3*%
X135560000Y-101270000D02*
X135560000Y-97460000D01*
X121243700Y-131466300D02*
X120325000Y-132385000D01*
X121243700Y-106923700D02*
X121243700Y-131466300D01*
X120035000Y-105715000D02*
X121243700Y-106923700D01*
%TO.N,D0*%
X163500000Y-53010000D02*
X163500000Y-49200000D01*
%TO.N,/\u002A12*%
X131496000Y-52985000D02*
X131496000Y-49200000D01*
%TO.N,/\u002A13*%
X127940000Y-47008900D02*
X128956000Y-48024900D01*
X127940000Y-42800000D02*
X127940000Y-47008900D01*
X128956000Y-49200000D02*
X128956000Y-48024900D01*
X128956000Y-52985000D02*
X128956000Y-49200000D01*
%TO.N,/AREF*%
X123876000Y-52985000D02*
X123876000Y-49200000D01*
%TO.N,/IOREF*%
X130480000Y-101270000D02*
X130480000Y-97460000D01*
%TO.N,+5V*%
X207900000Y-122426400D02*
X207900000Y-125030900D01*
X207900000Y-119821800D02*
X207900000Y-122426400D01*
X207900000Y-125030900D02*
X207900000Y-127635400D01*
X207900000Y-127635400D02*
X207900000Y-130240000D01*
X207900000Y-119821800D02*
X207900000Y-117217300D01*
X207900000Y-117217300D02*
X207900000Y-114612700D01*
X207900000Y-112008200D02*
X207900000Y-109403600D01*
X207900000Y-109403600D02*
X207900000Y-106799100D01*
X207900000Y-106799100D02*
X207900000Y-104194500D01*
X138100000Y-101270000D02*
X138100000Y-97460000D01*
X138100000Y-97460000D02*
X138100000Y-91721900D01*
X207900000Y-104194500D02*
X207900000Y-101590000D01*
X196520000Y-49200000D02*
X196520000Y-50375100D01*
X196885200Y-50375100D02*
X196520000Y-50375100D01*
X197884800Y-51374700D02*
X196885200Y-50375100D01*
X197884800Y-55302600D02*
X197884800Y-51374700D01*
X200572200Y-57990000D02*
X197884800Y-55302600D01*
X201481000Y-57990000D02*
X200572200Y-57990000D01*
X204063300Y-60572300D02*
X201481000Y-57990000D01*
X204063300Y-97753300D02*
X204063300Y-60572300D01*
X207900000Y-101590000D02*
X204063300Y-97753300D01*
X159595200Y-42735200D02*
X157860000Y-41000000D01*
X159595200Y-54244300D02*
X159595200Y-42735200D01*
X161159500Y-55808600D02*
X159595200Y-54244300D01*
X161159500Y-57615800D02*
X161159500Y-55808600D01*
X160079900Y-58695400D02*
X161159500Y-57615800D01*
X159920700Y-58695400D02*
X160079900Y-58695400D01*
X158632600Y-59983500D02*
X159920700Y-58695400D01*
X158632600Y-79922600D02*
X158632600Y-59983500D01*
X160010000Y-81300000D02*
X158632600Y-79922600D01*
%TO.N,MOSI*%
X122575000Y-126035000D02*
X122575000Y-119877700D01*
%TO.N,ES1_RST*%
X127655000Y-105715000D02*
X127655000Y-103037700D01*
%TO.N,SCLK*%
X125120700Y-126029300D02*
X125120700Y-123790200D01*
X125115000Y-126035000D02*
X125120700Y-126029300D01*
D33*
%TO.N,GND*%
X117495000Y-105715000D02*
X117495000Y-104482400D01*
X126416000Y-45679100D02*
X126416000Y-49200000D01*
X122601000Y-41864100D02*
X126416000Y-45679100D01*
X122601000Y-40564000D02*
X122601000Y-41864100D01*
X119660000Y-102317400D02*
X119660000Y-88882500D01*
X117495000Y-104482400D02*
X119660000Y-102317400D01*
X158855100Y-124090000D02*
X158855100Y-121550000D01*
X157255000Y-124090000D02*
X158855100Y-124090000D01*
X157255000Y-121550000D02*
X158855100Y-121550000D01*
X142930100Y-124090000D02*
X142930100Y-121550000D01*
X141330000Y-124090000D02*
X142930100Y-124090000D01*
X141330000Y-121550000D02*
X142130100Y-121550000D01*
X142130100Y-121550000D02*
X142930100Y-121550000D01*
X141330000Y-119010000D02*
X142780100Y-119010000D01*
X143180000Y-118610100D02*
X143180000Y-102520100D01*
X142780100Y-119010000D02*
X143180000Y-118610100D01*
X143180000Y-101270000D02*
X143180000Y-102520100D01*
X142780100Y-120900000D02*
X142780100Y-119010000D01*
X142130100Y-121550000D02*
X142780100Y-120900000D01*
X180010000Y-55700000D02*
X177260000Y-58450000D01*
X180010000Y-46450000D02*
X180010000Y-55700000D01*
X185410000Y-41050000D02*
X180010000Y-46450000D01*
X126416000Y-52985000D02*
X126416000Y-49200000D01*
X140640000Y-101270000D02*
X140640000Y-97460000D01*
X117495000Y-126035000D02*
X117495000Y-105715000D01*
X119700000Y-88842500D02*
X119700000Y-75700000D01*
X119660000Y-88882500D02*
X119700000Y-88842500D01*
X119700000Y-75700000D02*
X119700000Y-63065000D01*
X119700000Y-60951100D02*
X126416000Y-54235100D01*
X119700000Y-63065000D02*
X119700000Y-60951100D01*
X126416000Y-52985000D02*
X126416000Y-54235100D01*
X144844000Y-94545900D02*
X143180000Y-96209900D01*
X144844000Y-90230000D02*
X144844000Y-94545900D01*
X143180000Y-97460000D02*
X143180000Y-96209900D01*
%TD*%
M02*
