M48
; DRILL file {KiCad (6.0.7-1)-1} date Sunday, 18 September 2022 at 08:14:07 am
; FORMAT={-:-/ absolute / metric / decimal}
; #@! TF.CreationDate,2022-09-18T08:14:07+10:00
; #@! TF.GenerationSoftware,Kicad,Pcbnew,(6.0.7-1)-1
; #@! TF.FileFunction,Plated,1,2,PTH
FMAT,2
METRIC
; #@! TA.AperFunction,Plated,PTH,ViaDrill
T1C0.400
; #@! TA.AperFunction,Plated,PTH,ComponentDrill
T2C0.700
; #@! TA.AperFunction,Plated,PTH,ComponentDrill
T3C0.800
; #@! TA.AperFunction,Plated,PTH,ComponentDrill
T4C0.900
; #@! TA.AperFunction,Plated,PTH,ComponentDrill
T5C1.000
; #@! TA.AperFunction,Plated,PTH,ComponentDrill
T6C1.016
; #@! TA.AperFunction,Plated,PTH,ComponentDrill
T7C1.190
; #@! TA.AperFunction,Plated,PTH,ComponentDrill
T8C1.400
%
G90
G05
T1
X205.982Y-88.166
X207.07Y-90.121
X208.954Y-89.906
X211.439Y-89.857
X212.534Y-91.716
X213.443Y-91.71
X215.552Y-69.632
X220.442Y-83.2
T2
X146.05Y-74.93
X148.59Y-74.93
X154.305Y-74.93
X156.845Y-74.93
T3
X159.766Y-99.822
X164.766Y-99.822
T4
X164.592Y-82.931
X164.719Y-76.581
X167.132Y-82.931
X167.259Y-76.581
T5
X150.241Y-84.455
X152.781Y-84.455
X154.178Y-106.68
X154.178Y-109.22
X154.178Y-111.76
X154.178Y-119.126
X156.718Y-119.126
X158.115Y-84.328
X159.258Y-119.126
X160.655Y-84.328
X161.798Y-119.126
X164.338Y-119.126
X166.878Y-119.126
X216.163Y-74.168
X216.163Y-76.708
X216.163Y-79.248
X216.163Y-81.788
X216.163Y-84.328
X216.163Y-86.868
X216.163Y-89.408
X218.703Y-74.168
X218.703Y-76.708
X218.703Y-79.248
X218.703Y-81.788
X218.703Y-84.328
X218.703Y-86.868
X218.703Y-89.408
T6
X127.254Y-70.866
X129.794Y-70.866
X131.318Y-119.126
X132.334Y-70.866
X133.858Y-119.126
X134.874Y-70.866
X136.398Y-119.126
X137.414Y-70.866
X138.938Y-119.126
X139.954Y-70.866
X141.478Y-119.126
X142.494Y-70.866
X144.018Y-119.126
X145.034Y-70.866
X146.558Y-119.126
X149.098Y-70.866
X149.098Y-119.126
X151.638Y-70.866
X154.178Y-70.866
X156.718Y-70.866
X159.258Y-70.866
X161.798Y-70.866
X164.338Y-70.866
X166.878Y-70.866
X171.958Y-70.866
X174.498Y-70.866
X177.038Y-70.866
X177.038Y-119.126
X179.578Y-70.866
X179.578Y-119.126
X182.118Y-70.866
X182.118Y-119.126
X184.658Y-70.866
X184.658Y-119.126
X187.198Y-70.866
X187.198Y-119.126
X189.738Y-70.866
X189.738Y-119.126
X192.278Y-119.126
X194.818Y-119.126
X197.358Y-70.866
X197.358Y-73.406
X197.358Y-75.946
X197.358Y-78.486
X197.358Y-81.026
X197.358Y-83.566
X197.358Y-86.106
X197.358Y-88.646
X197.358Y-91.186
X197.358Y-93.726
X197.358Y-96.266
X197.358Y-98.806
X197.358Y-101.346
X197.358Y-103.886
X197.358Y-106.426
X197.358Y-108.966
X197.358Y-111.506
X197.358Y-114.046
X199.898Y-70.866
X199.898Y-73.406
X199.898Y-75.946
X199.898Y-78.486
X199.898Y-81.026
X199.898Y-83.566
X199.898Y-86.106
X199.898Y-88.646
X199.898Y-91.186
X199.898Y-93.726
X199.898Y-96.266
X199.898Y-98.806
X199.898Y-101.346
X199.898Y-103.886
X199.898Y-106.426
X199.898Y-108.966
X199.898Y-111.506
X199.898Y-114.046
T7
X162.286Y-90.678
X162.286Y-93.218
X162.286Y-95.758
X164.084Y-106.68
X164.084Y-109.22
X164.084Y-111.76
X176.53Y-78.74
X176.53Y-96.52
X178.308Y-106.68
X178.308Y-109.22
X178.308Y-111.76
X179.07Y-78.74
X179.07Y-96.52
X185.166Y-78.74
X185.166Y-87.376
X185.166Y-96.52
X185.166Y-105.41
X187.706Y-78.74
X187.706Y-87.376
X187.706Y-96.52
X187.706Y-105.41
X190.246Y-78.74
X190.246Y-87.376
X190.246Y-96.52
X190.246Y-105.41
X192.786Y-78.74
X192.786Y-87.376
X192.786Y-96.52
X192.786Y-105.41
X205.72Y-73.152
X205.72Y-75.692
X205.72Y-78.232
X205.72Y-80.772
X205.72Y-83.312
X205.72Y-85.852
T8
X212.09Y-101.21
X212.09Y-105.41
X212.09Y-113.03
X212.09Y-117.23
X217.59Y-101.21
X217.59Y-105.41
X217.59Y-113.03
X217.59Y-117.23
T5
G00X134.335Y-85.36
M15
G01X134.335Y-87.36
M16
G05
G00X134.335Y-105.807
M15
G01X134.335Y-107.807
M16
G05
G00X136.335Y-91.06
M15
G01X138.335Y-91.06
M16
G05
G00X136.335Y-111.507
M15
G01X138.335Y-111.507
M16
G05
G00X140.335Y-85.36
M15
G01X140.335Y-87.36
M16
G05
G00X140.335Y-105.807
M15
G01X140.335Y-107.807
M16
G05
T0
M30
