G04 #@! TF.GenerationSoftware,KiCad,Pcbnew,(5.1.5-0-10_14)*
G04 #@! TF.CreationDate,2020-06-21T14:17:04+10:00*
G04 #@! TF.ProjectId,Arduino_NW_Template,41726475-696e-46f5-9f4e-575f54656d70,rev?*
G04 #@! TF.SameCoordinates,Original*
G04 #@! TF.FileFunction,Copper,L2,Bot*
G04 #@! TF.FilePolarity,Positive*
%FSLAX46Y46*%
G04 Gerber Fmt 4.6, Leading zero omitted, Abs format (unit mm)*
G04 Created by KiCad (PCBNEW (5.1.5-0-10_14)) date 2020-06-21 14:17:04*
%MOMM*%
%LPD*%
G04 APERTURE LIST*
%ADD10O,1.740000X2.200000*%
%ADD11C,0.100000*%
%ADD12C,1.400000*%
%ADD13O,1.400000X1.400000*%
%ADD14R,1.700000X1.700000*%
%ADD15O,1.700000X1.700000*%
%ADD16C,1.524000*%
%ADD17C,1.800000*%
%ADD18R,1.800000X1.800000*%
%ADD19C,1.600000*%
%ADD20R,1.600000X1.600000*%
%ADD21R,1.524000X1.524000*%
%ADD22C,0.400000*%
%ADD23C,0.250000*%
G04 APERTURE END LIST*
D10*
X126604000Y-82042000D03*
X124064000Y-82042000D03*
X121524000Y-82042000D03*
G04 #@! TA.AperFunction,ComponentPad*
D11*
G36*
X119628505Y-80943204D02*
G01*
X119652773Y-80946804D01*
X119676572Y-80952765D01*
X119699671Y-80961030D01*
X119721850Y-80971520D01*
X119742893Y-80984132D01*
X119762599Y-80998747D01*
X119780777Y-81015223D01*
X119797253Y-81033401D01*
X119811868Y-81053107D01*
X119824480Y-81074150D01*
X119834970Y-81096329D01*
X119843235Y-81119428D01*
X119849196Y-81143227D01*
X119852796Y-81167495D01*
X119854000Y-81191999D01*
X119854000Y-82892001D01*
X119852796Y-82916505D01*
X119849196Y-82940773D01*
X119843235Y-82964572D01*
X119834970Y-82987671D01*
X119824480Y-83009850D01*
X119811868Y-83030893D01*
X119797253Y-83050599D01*
X119780777Y-83068777D01*
X119762599Y-83085253D01*
X119742893Y-83099868D01*
X119721850Y-83112480D01*
X119699671Y-83122970D01*
X119676572Y-83131235D01*
X119652773Y-83137196D01*
X119628505Y-83140796D01*
X119604001Y-83142000D01*
X118363999Y-83142000D01*
X118339495Y-83140796D01*
X118315227Y-83137196D01*
X118291428Y-83131235D01*
X118268329Y-83122970D01*
X118246150Y-83112480D01*
X118225107Y-83099868D01*
X118205401Y-83085253D01*
X118187223Y-83068777D01*
X118170747Y-83050599D01*
X118156132Y-83030893D01*
X118143520Y-83009850D01*
X118133030Y-82987671D01*
X118124765Y-82964572D01*
X118118804Y-82940773D01*
X118115204Y-82916505D01*
X118114000Y-82892001D01*
X118114000Y-81191999D01*
X118115204Y-81167495D01*
X118118804Y-81143227D01*
X118124765Y-81119428D01*
X118133030Y-81096329D01*
X118143520Y-81074150D01*
X118156132Y-81053107D01*
X118170747Y-81033401D01*
X118187223Y-81015223D01*
X118205401Y-80998747D01*
X118225107Y-80984132D01*
X118246150Y-80971520D01*
X118268329Y-80961030D01*
X118291428Y-80952765D01*
X118315227Y-80946804D01*
X118339495Y-80943204D01*
X118363999Y-80942000D01*
X119604001Y-80942000D01*
X119628505Y-80943204D01*
G37*
G04 #@! TD.AperFunction*
D12*
X123810000Y-70866000D03*
D13*
X126350000Y-70866000D03*
D12*
X118730000Y-70866000D03*
D13*
X121270000Y-70866000D03*
D14*
X149210000Y-96266000D03*
D15*
X151750000Y-96266000D03*
X154290000Y-96266000D03*
X156830000Y-96266000D03*
X159370000Y-96266000D03*
X161910000Y-96266000D03*
D14*
X149210000Y-86106000D03*
D15*
X151750000Y-86106000D03*
X154290000Y-86106000D03*
X156830000Y-86106000D03*
X159370000Y-86106000D03*
X161910000Y-86106000D03*
X161910000Y-103886000D03*
X159370000Y-103886000D03*
X156830000Y-103886000D03*
D14*
X154290000Y-103886000D03*
D16*
X132700000Y-89916000D03*
X130160000Y-89916000D03*
D14*
X114920000Y-89916000D03*
D15*
X117460000Y-89916000D03*
X120000000Y-89916000D03*
X122540000Y-89916000D03*
X125080000Y-89916000D03*
X127620000Y-89916000D03*
X154290000Y-108966000D03*
X151750000Y-108966000D03*
X149210000Y-108966000D03*
D14*
X146670000Y-108966000D03*
D15*
X108570000Y-91186000D03*
X108570000Y-88646000D03*
X108570000Y-86106000D03*
X108570000Y-83566000D03*
X108570000Y-81026000D03*
X108570000Y-78486000D03*
X108570000Y-75946000D03*
D14*
X108570000Y-73406000D03*
D15*
X104760000Y-91186000D03*
X104760000Y-88646000D03*
X104760000Y-86106000D03*
X104760000Y-83566000D03*
X104760000Y-81026000D03*
X104760000Y-78486000D03*
X104760000Y-75946000D03*
D14*
X104760000Y-73406000D03*
D15*
X100950000Y-91186000D03*
X100950000Y-88646000D03*
X100950000Y-86106000D03*
X100950000Y-83566000D03*
X100950000Y-81026000D03*
X100950000Y-78486000D03*
X100950000Y-75946000D03*
D14*
X100950000Y-73406000D03*
D15*
X138034000Y-70612000D03*
D14*
X135494000Y-70612000D03*
D15*
X131684000Y-70612000D03*
D14*
X129144000Y-70612000D03*
D15*
X144384000Y-70612000D03*
D14*
X141844000Y-70612000D03*
D17*
X114920000Y-81026000D03*
D18*
X112380000Y-81026000D03*
D17*
X114920000Y-73406000D03*
D18*
X112380000Y-73406000D03*
D19*
X143020000Y-97188900D03*
X138020000Y-97188900D03*
X143020000Y-108246000D03*
X138020000Y-108246000D03*
X143020000Y-104560000D03*
X138020000Y-104560000D03*
X143020000Y-93503100D03*
X138020000Y-93503100D03*
X143020000Y-89817400D03*
X138020000Y-89817400D03*
X143020000Y-86131700D03*
X138020000Y-86131700D03*
X143020000Y-100875000D03*
X138020000Y-100875000D03*
X143020000Y-82446000D03*
X138020000Y-82446000D03*
X130610000Y-102856000D03*
X125610000Y-102856000D03*
X130610000Y-99406000D03*
X125610000Y-99406000D03*
X130610000Y-95956000D03*
X125610000Y-95956000D03*
X122460000Y-102856000D03*
X117460000Y-102856000D03*
X122460000Y-99406000D03*
X117460000Y-99406000D03*
X122460000Y-95956000D03*
X117460000Y-95956000D03*
D14*
X149210000Y-78486000D03*
D15*
X151750000Y-78486000D03*
X154290000Y-78486000D03*
X156830000Y-78486000D03*
X159370000Y-78486000D03*
X161910000Y-78486000D03*
D12*
X103490000Y-112776000D03*
D13*
X106030000Y-112776000D03*
D20*
X103490000Y-103886000D03*
D19*
X105990000Y-103886000D03*
D16*
X102177000Y-65782000D03*
X104717000Y-65782000D03*
X107257000Y-65782000D03*
X109797000Y-65782000D03*
X112337000Y-65782000D03*
X114877000Y-65782000D03*
X117417000Y-65782000D03*
X119957000Y-65782000D03*
X123767000Y-65782000D03*
X126307000Y-65782000D03*
X128847000Y-65782000D03*
X131387000Y-65782000D03*
X133927000Y-65782000D03*
X136467000Y-65782000D03*
X139007000Y-65782000D03*
X141547000Y-65782000D03*
X141547000Y-114042000D03*
X139007000Y-114042000D03*
X136467000Y-114042000D03*
X133927000Y-114042000D03*
X131387000Y-114042000D03*
X128847000Y-114042000D03*
X123767000Y-114042000D03*
X121227000Y-114042000D03*
X118687000Y-114042000D03*
X116147000Y-114042000D03*
X113607000Y-114042000D03*
D21*
X111067000Y-114042000D03*
D22*
X143306200Y-77196700D02*
X143306200Y-82159800D01*
X143306200Y-82159800D02*
X143020000Y-82446000D01*
X143094300Y-70612000D02*
X143094300Y-71783700D01*
X143094300Y-71783700D02*
X143306200Y-71995600D01*
X143306200Y-71995600D02*
X143306200Y-77196700D01*
X143306200Y-77196700D02*
X150277700Y-77196700D01*
X150277700Y-77196700D02*
X150499700Y-77418700D01*
X150499700Y-77418700D02*
X150499700Y-78486000D01*
X151750000Y-78486000D02*
X150499700Y-78486000D01*
X117460000Y-87406300D02*
X117460000Y-89916000D01*
X112380000Y-82326300D02*
X117460000Y-87406300D01*
X117460000Y-87406300D02*
X121324000Y-83542300D01*
X121324000Y-83542300D02*
X121524000Y-83542300D01*
X121524000Y-82042000D02*
X121524000Y-83542300D01*
X112380000Y-81026000D02*
X112380000Y-82326300D01*
X112380000Y-73406000D02*
X112380000Y-81026000D01*
X117460000Y-89916000D02*
X117460000Y-91166300D01*
X122460000Y-95956000D02*
X117670300Y-91166300D01*
X117670300Y-91166300D02*
X117460000Y-91166300D01*
X122460000Y-99406000D02*
X122460000Y-95956000D01*
X151750000Y-78486000D02*
X151750000Y-86106000D01*
X141844000Y-70612000D02*
X143094300Y-70612000D01*
X141660800Y-70612000D02*
X141844000Y-70612000D01*
X141660800Y-70612000D02*
X140593700Y-70612000D01*
X135494000Y-70612000D02*
X136744300Y-70612000D01*
X140593700Y-70612000D02*
X139343400Y-69361700D01*
X139343400Y-69361700D02*
X137447500Y-69361700D01*
X137447500Y-69361700D02*
X136744300Y-70064900D01*
X136744300Y-70064900D02*
X136744300Y-70612000D01*
X143020000Y-97188900D02*
X143020000Y-93503100D01*
X143020000Y-100875000D02*
X143020000Y-97188900D01*
X143020000Y-104560000D02*
X143020000Y-100875000D01*
X143020000Y-104560000D02*
X143020000Y-108246000D01*
X143020000Y-89817400D02*
X143020000Y-93503100D01*
X143020000Y-86131700D02*
X143020000Y-89817400D01*
X143020000Y-82446000D02*
X143020000Y-86131700D01*
X130610000Y-95956000D02*
X130610000Y-99406000D01*
D23*
X103490000Y-103886000D02*
X103490000Y-112776000D01*
D22*
X149210000Y-86106000D02*
X149210000Y-96266000D01*
X149210000Y-78486000D02*
X149210000Y-86106000D01*
X114920000Y-89916000D02*
X114920000Y-91166300D01*
X116147000Y-114042000D02*
X116147000Y-92393300D01*
X116147000Y-92393300D02*
X114920000Y-91166300D01*
D23*
X128847000Y-114042000D02*
X124035100Y-109230100D01*
X124035100Y-109230100D02*
X124035100Y-102808700D01*
X124035100Y-102808700D02*
X117460000Y-96233600D01*
X117460000Y-96233600D02*
X117460000Y-95956000D01*
X131387000Y-114042000D02*
X130284600Y-115144400D01*
X130284600Y-115144400D02*
X128340500Y-115144400D01*
X128340500Y-115144400D02*
X119784600Y-106588500D01*
X119784600Y-106588500D02*
X119784600Y-101730600D01*
X119784600Y-101730600D02*
X117460000Y-99406000D01*
X133927000Y-114042000D02*
X132368600Y-115600400D01*
X132368600Y-115600400D02*
X128159600Y-115600400D01*
X128159600Y-115600400D02*
X117460000Y-104900800D01*
X117460000Y-104900800D02*
X117460000Y-102856000D01*
X136467000Y-114042000D02*
X127934600Y-105509600D01*
X127934600Y-105509600D02*
X127934600Y-98280600D01*
X127934600Y-98280600D02*
X125610000Y-95956000D01*
X139007000Y-114042000D02*
X137917400Y-115131600D01*
X137917400Y-115131600D02*
X135954200Y-115131600D01*
X135954200Y-115131600D02*
X135197000Y-114374400D01*
X135197000Y-114374400D02*
X135197000Y-113408900D01*
X135197000Y-113408900D02*
X127269100Y-105481000D01*
X127269100Y-105481000D02*
X127269100Y-101065100D01*
X127269100Y-101065100D02*
X125610000Y-99406000D01*
X125610000Y-102856000D02*
X124445300Y-101691300D01*
X124445300Y-101691300D02*
X124445300Y-95507900D01*
X124445300Y-95507900D02*
X127997600Y-91955600D01*
X127997600Y-91955600D02*
X130660400Y-91955600D01*
X130660400Y-91955600D02*
X132700000Y-89916000D01*
X146670000Y-108966000D02*
X145494700Y-108966000D01*
X138020000Y-82446000D02*
X141118600Y-85544600D01*
X141118600Y-85544600D02*
X141118600Y-107984200D01*
X141118600Y-107984200D02*
X142512900Y-109378500D01*
X142512900Y-109378500D02*
X145082200Y-109378500D01*
X145082200Y-109378500D02*
X145494700Y-108966000D01*
X156830000Y-86106000D02*
X156830000Y-87281300D01*
X149210000Y-108966000D02*
X149210000Y-107790700D01*
X149210000Y-107790700D02*
X150385300Y-106615400D01*
X150385300Y-106615400D02*
X150385300Y-93726000D01*
X150385300Y-93726000D02*
X156830000Y-87281300D01*
X154290000Y-103886000D02*
X154290000Y-96266000D01*
X159370000Y-86106000D02*
X159370000Y-87281300D01*
X151750000Y-108966000D02*
X151750000Y-107790700D01*
X151750000Y-107790700D02*
X152925300Y-106615400D01*
X152925300Y-106615400D02*
X152925300Y-93726000D01*
X152925300Y-93726000D02*
X159370000Y-87281300D01*
X156830000Y-103886000D02*
X156830000Y-96266000D01*
X161910000Y-86106000D02*
X161910000Y-87281300D01*
X154290000Y-108966000D02*
X154290000Y-107790700D01*
X154290000Y-107790700D02*
X155465300Y-106615400D01*
X155465300Y-106615400D02*
X155465300Y-93726000D01*
X155465300Y-93726000D02*
X161910000Y-87281300D01*
X138020000Y-108246000D02*
X139926400Y-110152400D01*
X139926400Y-110152400D02*
X154768000Y-110152400D01*
X154768000Y-110152400D02*
X159370000Y-105550400D01*
X159370000Y-105550400D02*
X159370000Y-103886000D01*
X159370000Y-103886000D02*
X159370000Y-96266000D01*
X114920000Y-81026000D02*
X116862900Y-79083100D01*
X116862900Y-79083100D02*
X116862900Y-72271800D01*
X116862900Y-72271800D02*
X118268700Y-70866000D01*
X118268700Y-70866000D02*
X118730000Y-70866000D01*
X131684000Y-70612000D02*
X131684000Y-69436700D01*
X133927000Y-65782000D02*
X133927000Y-67193700D01*
X133927000Y-67193700D02*
X131684000Y-69436700D01*
X126350000Y-70866000D02*
X126350000Y-69840700D01*
X128847000Y-65782000D02*
X128847000Y-67343700D01*
X128847000Y-67343700D02*
X126350000Y-69840700D01*
X156830000Y-78486000D02*
X155654700Y-78486000D01*
X123767000Y-65782000D02*
X124901300Y-64647700D01*
X124901300Y-64647700D02*
X136900700Y-64647700D01*
X136900700Y-64647700D02*
X137737000Y-65484000D01*
X137737000Y-65484000D02*
X137737000Y-66090200D01*
X137737000Y-66090200D02*
X140308200Y-68661400D01*
X140308200Y-68661400D02*
X146197400Y-68661400D01*
X146197400Y-68661400D02*
X155654700Y-78118700D01*
X155654700Y-78118700D02*
X155654700Y-78486000D01*
X124064000Y-82042000D02*
X122868700Y-82042000D01*
X112337000Y-65782000D02*
X113605400Y-67050400D01*
X113605400Y-67050400D02*
X113605400Y-81453900D01*
X113605400Y-81453900D02*
X114406000Y-82254500D01*
X114406000Y-82254500D02*
X115431200Y-82254500D01*
X115431200Y-82254500D02*
X117075800Y-80609900D01*
X117075800Y-80609900D02*
X122034200Y-80609900D01*
X122034200Y-80609900D02*
X122868700Y-81444400D01*
X122868700Y-81444400D02*
X122868700Y-82042000D01*
X121270000Y-70866000D02*
X121270000Y-69840700D01*
X126307000Y-65782000D02*
X122248300Y-69840700D01*
X122248300Y-69840700D02*
X121270000Y-69840700D01*
M02*
