  0
SECTION
  2
HEADER
  9
$ANGBASE
  50
0.0
  9
$ANGDIR
  70
1
  9
$MEASUREMENT
  70
1
  0
ENDSEC
  0
SECTION
  2
TABLES
  0
TABLE
  2
LTYPE
  70
4
  0
LTYPE
  5
40F
  2
CONTINUOUS
  70
0
  3
Solid line
  72
65
  73
0
  40
0.0
  0
LTYPE
  5
410
  2
DASHDOT
 70
0
  3
Dash Dot ____ _ ____ _
 72
65
 73
4
 40
2.0
 49
1.25
 49
-0.25
 49
0.25
 49
-0.25
  0
LTYPE
  5
411
  2
DASHED
 70
0
  3
Dashed __ __ __ __ __
 72
65
 73
2
 40
0.75
 49
0.5
 49
-0.25
  0
LTYPE
  5
43B
  2
DOTTED
 70
0
  3
Dotted .  .  .  .
 72
65
 73
2
 40
0.2
 49
0.0
 49
-0.2
  0
ENDTAB
  0
TABLE
  2
STYLE
  70
4
  0
STYLE
  2
KICAD
  70
0
  40
0
  41
1
  42
1
  50
0
  71
0
  3
isocp.shx
  0
STYLE
  2
KICADB
  70
0
  40
0
  41
1
  42
1
  50
0
  71
0
  3
isocp.shx
  0
STYLE
  2
KICADI
  70
0
  40
0
  41
1
  42
1
  50
15
  71
0
  3
isocp.shx
  0
STYLE
  2
KICADBI
  70
0
  40
0
  41
1
  42
1
  50
15
  71
0
  3
isocp.shx
  0
ENDTAB
  0
TABLE
  2
LAYER
  70
1
  0
LAYER
  2
BLACK
  70
0
  62
7
  6
CONTINUOUS
  0
ENDTAB
  0
ENDSEC
  0
SECTION
  2
ENTITIES
0
CIRCLE
8
BLACK
10
86.8654
20
-106.909
40
1.35255
0
LINE
8
BLACK
6
CONTINUOUS
10
120.651
20
-64.7891
11
111.919
21
-64.7891
0
LINE
8
BLACK
6
CONTINUOUS
10
93.0852
20
-146.437
11
111.817
21
-146.437
0
LINE
8
BLACK
6
CONTINUOUS
10
84.354
20
-135.693
11
93.0852
21
-135.693
0
LINE
8
BLACK
6
CONTINUOUS
10
120.651
20
-135.769
11
120.651
21
-64.7891
0
CIRCLE
8
BLACK
10
87.2623
20
-58.9661
40
1.35255
0
LINE
8
BLACK
6
CONTINUOUS
10
111.664
20
-135.769
11
120.651
21
-135.769
0
LINE
8
BLACK
6
CONTINUOUS
10
93.0852
20
-55.5054
11
84.354
21
-55.5054
0
LINE
8
BLACK
6
CONTINUOUS
10
93.0852
20
-135.693
11
93.0852
21
-146.437
0
LINE
8
BLACK
6
CONTINUOUS
10
111.919
20
-47.3265
11
93.0852
21
-47.3265
0
LINE
8
BLACK
6
CONTINUOUS
10
111.919
20
-64.7891
11
111.919
21
-47.3265
0
LINE
8
BLACK
6
CONTINUOUS
10
84.354
20
-55.5054
11
84.354
21
-135.693
0
LINE
8
BLACK
6
CONTINUOUS
10
93.0852
20
-47.3265
11
93.0852
21
-55.5054
0
LINE
8
BLACK
6
CONTINUOUS
10
111.817
20
-146.437
11
111.664
21
-135.769
0
LINE
8
BLACK
6
CONTINUOUS
10
87.0498
20
-94.8028
11
87.7498
21
-95.5028
0
LINE
8
BLACK
6
CONTINUOUS
10
87.7498
20
-94.8028
11
87.0498
21
-95.5028
0
LINE
8
BLACK
6
CONTINUOUS
10
87.0498
20
-102.423
11
87.7498
21
-103.123
0
LINE
8
BLACK
6
CONTINUOUS
10
87.7498
20
-102.423
11
87.0498
21
-103.123
0
LINE
8
BLACK
6
CONTINUOUS
10
95.7572
20
-50.0372
11
96.4572
21
-50.7372
0
LINE
8
BLACK
6
CONTINUOUS
10
96.4572
20
-50.0372
11
95.7572
21
-50.7372
0
LINE
8
BLACK
6
CONTINUOUS
10
95.7572
20
-57.6572
11
96.4572
21
-58.3572
0
LINE
8
BLACK
6
CONTINUOUS
10
96.4572
20
-57.6572
11
95.7572
21
-58.3572
0
CIRCLE
8
BLACK
10
93.7398
20
-88.8228
40
0.381
0
CIRCLE
8
BLACK
10
111.2
20
-88.8228
40
0.381
0
CIRCLE
8
BLACK
10
111.24
20
-94.6138
40
0.381
0
CIRCLE
8
BLACK
10
102.47
20
-53.9028
40
0.381
0
CIRCLE
8
BLACK
10
102.51
20
-59.6938
40
0.381
0
CIRCLE
8
BLACK
10
111.2
20
-71.3628
40
0.381
0
CIRCLE
8
BLACK
10
111.24
20
-77.1538
40
0.381
0
CIRCLE
8
BLACK
10
93.7398
20
-71.3628
40
0.381
0
CIRCLE
8
BLACK
10
93.7798
20
-77.1538
40
0.381
0
CIRCLE
8
BLACK
10
93.7798
20
-94.6138
40
0.381
0
LINE
8
BLACK
6
CONTINUOUS
10
118.08
20
-92.6528
11
118.08
21
-93.4528
0
LINE
8
BLACK
6
CONTINUOUS
10
117.68
20
-93.0528
11
118.48
21
-93.0528
0
LINE
8
BLACK
6
CONTINUOUS
10
118.08
20
-100.273
11
118.08
21
-101.073
0
LINE
8
BLACK
6
CONTINUOUS
10
117.68
20
-100.673
11
118.48
21
-100.673
0
LINE
8
BLACK
6
CONTINUOUS
10
87.3998
20
-83.4028
11
87.3998
21
-84.2028
0
LINE
8
BLACK
6
CONTINUOUS
10
86.9998
20
-83.8028
11
87.7998
21
-83.8028
0
LINE
8
BLACK
6
CONTINUOUS
10
87.3998
20
-91.0228
11
87.3998
21
-91.8228
0
LINE
8
BLACK
6
CONTINUOUS
10
86.9998
20
-91.4228
11
87.7998
21
-91.4228
0
LINE
8
BLACK
6
CONTINUOUS
10
87.7198
20
-70.6128
11
87.7198
21
-71.4128
0
LINE
8
BLACK
6
CONTINUOUS
10
87.3198
20
-71.0128
11
88.1198
21
-71.0128
0
LINE
8
BLACK
6
CONTINUOUS
10
87.7198
20
-78.2328
11
87.7198
21
-79.0328
0
LINE
8
BLACK
6
CONTINUOUS
10
87.3198
20
-78.6328
11
88.1198
21
-78.6328
0
LINE
8
BLACK
6
CONTINUOUS
10
117.98
20
-69.8428
11
117.98
21
-70.6428
0
LINE
8
BLACK
6
CONTINUOUS
10
117.58
20
-70.2428
11
118.38
21
-70.2428
0
LINE
8
BLACK
6
CONTINUOUS
10
117.98
20
-77.4628
11
117.98
21
-78.2628
0
LINE
8
BLACK
6
CONTINUOUS
10
117.58
20
-77.8628
11
118.38
21
-77.8628
0
LINE
8
BLACK
6
CONTINUOUS
10
109.26
20
-49.3528
11
109.26
21
-50.1528
0
LINE
8
BLACK
6
CONTINUOUS
10
108.86
20
-49.7528
11
109.66
21
-49.7528
0
LINE
8
BLACK
6
CONTINUOUS
10
109.26
20
-56.9728
11
109.26
21
-57.7728
0
LINE
8
BLACK
6
CONTINUOUS
10
108.86
20
-57.3728
11
109.66
21
-57.3728
0
LINE
8
BLACK
6
CONTINUOUS
10
110.338
20
-98.061
11
110.338
21
-97.4246
0
LINE
8
BLACK
6
CONTINUOUS
10
110.338
20
-97.4246
11
109.702
21
-97.4246
0
LINE
8
BLACK
6
CONTINUOUS
10
109.702
20
-97.4246
11
109.702
21
-98.061
0
LINE
8
BLACK
6
CONTINUOUS
10
109.702
20
-98.061
11
110.338
21
-98.061
0
LINE
8
BLACK
6
CONTINUOUS
10
112.878
20
-98.061
11
112.878
21
-97.4246
0
LINE
8
BLACK
6
CONTINUOUS
10
112.878
20
-97.4246
11
112.242
21
-97.4246
0
LINE
8
BLACK
6
CONTINUOUS
10
112.242
20
-97.4246
11
112.242
21
-98.061
0
LINE
8
BLACK
6
CONTINUOUS
10
112.242
20
-98.061
11
112.878
21
-98.061
0
LINE
8
BLACK
6
CONTINUOUS
10
97.124
20
-108.361
11
97.124
21
-107.725
0
LINE
8
BLACK
6
CONTINUOUS
10
97.124
20
-107.725
11
96.4876
21
-107.725
0
LINE
8
BLACK
6
CONTINUOUS
10
96.4876
20
-107.725
11
96.4876
21
-108.361
0
LINE
8
BLACK
6
CONTINUOUS
10
96.4876
20
-108.361
11
97.124
21
-108.361
0
LINE
8
BLACK
6
CONTINUOUS
10
99.664
20
-108.361
11
99.664
21
-107.725
0
LINE
8
BLACK
6
CONTINUOUS
10
99.664
20
-107.725
11
99.0276
21
-107.725
0
LINE
8
BLACK
6
CONTINUOUS
10
99.0276
20
-107.725
11
99.0276
21
-108.361
0
LINE
8
BLACK
6
CONTINUOUS
10
99.0276
20
-108.361
11
99.664
21
-108.361
0
LINE
8
BLACK
6
CONTINUOUS
10
88.488
20
-129.951
11
88.488
21
-129.315
0
LINE
8
BLACK
6
CONTINUOUS
10
88.488
20
-129.315
11
87.8516
21
-129.315
0
LINE
8
BLACK
6
CONTINUOUS
10
87.8516
20
-129.315
11
87.8516
21
-129.951
0
LINE
8
BLACK
6
CONTINUOUS
10
87.8516
20
-129.951
11
88.488
21
-129.951
0
LINE
8
BLACK
6
CONTINUOUS
10
91.028
20
-129.951
11
91.028
21
-129.315
0
LINE
8
BLACK
6
CONTINUOUS
10
91.028
20
-129.315
11
90.3916
21
-129.315
0
LINE
8
BLACK
6
CONTINUOUS
10
90.3916
20
-129.315
11
90.3916
21
-129.951
0
LINE
8
BLACK
6
CONTINUOUS
10
90.3916
20
-129.951
11
91.028
21
-129.951
0
LINE
8
BLACK
6
CONTINUOUS
10
96.616
20
-129.951
11
96.616
21
-129.315
0
LINE
8
BLACK
6
CONTINUOUS
10
96.616
20
-129.315
11
95.9796
21
-129.315
0
LINE
8
BLACK
6
CONTINUOUS
10
95.9796
20
-129.315
11
95.9796
21
-129.951
0
LINE
8
BLACK
6
CONTINUOUS
10
95.9796
20
-129.951
11
96.616
21
-129.951
0
LINE
8
BLACK
6
CONTINUOUS
10
99.156
20
-129.951
11
99.156
21
-129.315
0
LINE
8
BLACK
6
CONTINUOUS
10
99.156
20
-129.315
11
98.5196
21
-129.315
0
LINE
8
BLACK
6
CONTINUOUS
10
98.5196
20
-129.315
11
98.5196
21
-129.951
0
LINE
8
BLACK
6
CONTINUOUS
10
98.5196
20
-129.951
11
99.156
21
-129.951
0
LINE
8
BLACK
6
CONTINUOUS
10
110.368
20
-80.591
11
110.368
21
-79.9546
0
LINE
8
BLACK
6
CONTINUOUS
10
110.368
20
-79.9546
11
109.732
21
-79.9546
0
LINE
8
BLACK
6
CONTINUOUS
10
109.732
20
-79.9546
11
109.732
21
-80.591
0
LINE
8
BLACK
6
CONTINUOUS
10
109.732
20
-80.591
11
110.368
21
-80.591
0
LINE
8
BLACK
6
CONTINUOUS
10
112.908
20
-80.591
11
112.908
21
-79.9546
0
LINE
8
BLACK
6
CONTINUOUS
10
112.908
20
-79.9546
11
112.272
21
-79.9546
0
LINE
8
BLACK
6
CONTINUOUS
10
112.272
20
-79.9546
11
112.272
21
-80.591
0
LINE
8
BLACK
6
CONTINUOUS
10
112.272
20
-80.591
11
112.908
21
-80.591
0
LINE
8
BLACK
6
CONTINUOUS
10
105.404
20
-119.161
11
105.404
21
-118.525
0
LINE
8
BLACK
6
CONTINUOUS
10
105.404
20
-118.525
11
104.768
21
-118.525
0
LINE
8
BLACK
6
CONTINUOUS
10
104.768
20
-118.525
11
104.768
21
-119.161
0
LINE
8
BLACK
6
CONTINUOUS
10
104.768
20
-119.161
11
105.404
21
-119.161
0
LINE
8
BLACK
6
CONTINUOUS
10
107.944
20
-119.161
11
107.944
21
-118.525
0
LINE
8
BLACK
6
CONTINUOUS
10
107.944
20
-118.525
11
107.308
21
-118.525
0
LINE
8
BLACK
6
CONTINUOUS
10
107.308
20
-118.525
11
107.308
21
-119.161
0
LINE
8
BLACK
6
CONTINUOUS
10
107.308
20
-119.161
11
107.944
21
-119.161
0
LINE
8
BLACK
6
CONTINUOUS
10
105.252
20
-140.685
11
105.252
21
-140.049
0
LINE
8
BLACK
6
CONTINUOUS
10
105.252
20
-140.049
11
104.616
21
-140.049
0
LINE
8
BLACK
6
CONTINUOUS
10
104.616
20
-140.049
11
104.616
21
-140.685
0
LINE
8
BLACK
6
CONTINUOUS
10
104.616
20
-140.685
11
105.252
21
-140.685
0
LINE
8
BLACK
6
CONTINUOUS
10
107.792
20
-140.685
11
107.792
21
-140.049
0
LINE
8
BLACK
6
CONTINUOUS
10
107.792
20
-140.049
11
107.156
21
-140.049
0
LINE
8
BLACK
6
CONTINUOUS
10
107.156
20
-140.049
11
107.156
21
-140.685
0
LINE
8
BLACK
6
CONTINUOUS
10
107.156
20
-140.685
11
107.792
21
-140.685
0
LINE
8
BLACK
6
CONTINUOUS
10
92.668
20
-98.031
11
92.668
21
-97.3946
0
LINE
8
BLACK
6
CONTINUOUS
10
92.668
20
-97.3946
11
92.0316
21
-97.3946
0
LINE
8
BLACK
6
CONTINUOUS
10
92.0316
20
-97.3946
11
92.0316
21
-98.031
0
LINE
8
BLACK
6
CONTINUOUS
10
92.0316
20
-98.031
11
92.668
21
-98.031
0
LINE
8
BLACK
6
CONTINUOUS
10
95.208
20
-98.031
11
95.208
21
-97.3946
0
LINE
8
BLACK
6
CONTINUOUS
10
95.208
20
-97.3946
11
94.5716
21
-97.3946
0
LINE
8
BLACK
6
CONTINUOUS
10
94.5716
20
-97.3946
11
94.5716
21
-98.031
0
LINE
8
BLACK
6
CONTINUOUS
10
94.5716
20
-98.031
11
95.208
21
-98.031
0
LINE
8
BLACK
6
CONTINUOUS
10
105.76
20
-129.951
11
105.76
21
-129.315
0
LINE
8
BLACK
6
CONTINUOUS
10
105.76
20
-129.315
11
105.124
21
-129.315
0
LINE
8
BLACK
6
CONTINUOUS
10
105.124
20
-129.315
11
105.124
21
-129.951
0
LINE
8
BLACK
6
CONTINUOUS
10
105.124
20
-129.951
11
105.76
21
-129.951
0
LINE
8
BLACK
6
CONTINUOUS
10
108.3
20
-129.951
11
108.3
21
-129.315
0
LINE
8
BLACK
6
CONTINUOUS
10
108.3
20
-129.315
11
107.664
21
-129.315
0
LINE
8
BLACK
6
CONTINUOUS
10
107.664
20
-129.315
11
107.664
21
-129.951
0
LINE
8
BLACK
6
CONTINUOUS
10
107.664
20
-129.951
11
108.3
21
-129.951
0
LINE
8
BLACK
6
CONTINUOUS
10
101.588
20
-63.141
11
101.588
21
-62.5046
0
LINE
8
BLACK
6
CONTINUOUS
10
101.588
20
-62.5046
11
100.952
21
-62.5046
0
LINE
8
BLACK
6
CONTINUOUS
10
100.952
20
-62.5046
11
100.952
21
-63.141
0
LINE
8
BLACK
6
CONTINUOUS
10
100.952
20
-63.141
11
101.588
21
-63.141
0
LINE
8
BLACK
6
CONTINUOUS
10
104.128
20
-63.141
11
104.128
21
-62.5046
0
LINE
8
BLACK
6
CONTINUOUS
10
104.128
20
-62.5046
11
103.492
21
-62.5046
0
LINE
8
BLACK
6
CONTINUOUS
10
103.492
20
-62.5046
11
103.492
21
-63.141
0
LINE
8
BLACK
6
CONTINUOUS
10
103.492
20
-63.141
11
104.128
21
-63.141
0
LINE
8
BLACK
6
CONTINUOUS
10
114.142
20
-119.161
11
114.142
21
-118.525
0
LINE
8
BLACK
6
CONTINUOUS
10
114.142
20
-118.525
11
113.506
21
-118.525
0
LINE
8
BLACK
6
CONTINUOUS
10
113.506
20
-118.525
11
113.506
21
-119.161
0
LINE
8
BLACK
6
CONTINUOUS
10
113.506
20
-119.161
11
114.142
21
-119.161
0
LINE
8
BLACK
6
CONTINUOUS
10
116.682
20
-119.161
11
116.682
21
-118.525
0
LINE
8
BLACK
6
CONTINUOUS
10
116.682
20
-118.525
11
116.046
21
-118.525
0
LINE
8
BLACK
6
CONTINUOUS
10
116.046
20
-118.525
11
116.046
21
-119.161
0
LINE
8
BLACK
6
CONTINUOUS
10
116.046
20
-119.161
11
116.682
21
-119.161
0
LINE
8
BLACK
6
CONTINUOUS
10
97.124
20
-140.685
11
97.124
21
-140.049
0
LINE
8
BLACK
6
CONTINUOUS
10
97.124
20
-140.049
11
96.4876
21
-140.049
0
LINE
8
BLACK
6
CONTINUOUS
10
96.4876
20
-140.049
11
96.4876
21
-140.685
0
LINE
8
BLACK
6
CONTINUOUS
10
96.4876
20
-140.685
11
97.124
21
-140.685
0
LINE
8
BLACK
6
CONTINUOUS
10
99.664
20
-140.685
11
99.664
21
-140.049
0
LINE
8
BLACK
6
CONTINUOUS
10
99.664
20
-140.049
11
99.0276
21
-140.049
0
LINE
8
BLACK
6
CONTINUOUS
10
99.0276
20
-140.049
11
99.0276
21
-140.685
0
LINE
8
BLACK
6
CONTINUOUS
10
99.0276
20
-140.685
11
99.664
21
-140.685
0
LINE
8
BLACK
6
CONTINUOUS
10
114.142
20
-129.951
11
114.142
21
-129.315
0
LINE
8
BLACK
6
CONTINUOUS
10
114.142
20
-129.315
11
113.506
21
-129.315
0
LINE
8
BLACK
6
CONTINUOUS
10
113.506
20
-129.315
11
113.506
21
-129.951
0
LINE
8
BLACK
6
CONTINUOUS
10
113.506
20
-129.951
11
114.142
21
-129.951
0
LINE
8
BLACK
6
CONTINUOUS
10
116.682
20
-129.951
11
116.682
21
-129.315
0
LINE
8
BLACK
6
CONTINUOUS
10
116.682
20
-129.315
11
116.046
21
-129.315
0
LINE
8
BLACK
6
CONTINUOUS
10
116.046
20
-129.315
11
116.046
21
-129.951
0
LINE
8
BLACK
6
CONTINUOUS
10
116.046
20
-129.951
11
116.682
21
-129.951
0
LINE
8
BLACK
6
CONTINUOUS
10
105.506
20
-108.361
11
105.506
21
-107.725
0
LINE
8
BLACK
6
CONTINUOUS
10
105.506
20
-107.725
11
104.87
21
-107.725
0
LINE
8
BLACK
6
CONTINUOUS
10
104.87
20
-107.725
11
104.87
21
-108.361
0
LINE
8
BLACK
6
CONTINUOUS
10
104.87
20
-108.361
11
105.506
21
-108.361
0
LINE
8
BLACK
6
CONTINUOUS
10
108.046
20
-108.361
11
108.046
21
-107.725
0
LINE
8
BLACK
6
CONTINUOUS
10
108.046
20
-107.725
11
107.41
21
-107.725
0
LINE
8
BLACK
6
CONTINUOUS
10
107.41
20
-107.725
11
107.41
21
-108.361
0
LINE
8
BLACK
6
CONTINUOUS
10
107.41
20
-108.361
11
108.046
21
-108.361
0
LINE
8
BLACK
6
CONTINUOUS
10
88.488
20
-119.161
11
88.488
21
-118.525
0
LINE
8
BLACK
6
CONTINUOUS
10
88.488
20
-118.525
11
87.8516
21
-118.525
0
LINE
8
BLACK
6
CONTINUOUS
10
87.8516
20
-118.525
11
87.8516
21
-119.161
0
LINE
8
BLACK
6
CONTINUOUS
10
87.8516
20
-119.161
11
88.488
21
-119.161
0
LINE
8
BLACK
6
CONTINUOUS
10
91.028
20
-119.161
11
91.028
21
-118.525
0
LINE
8
BLACK
6
CONTINUOUS
10
91.028
20
-118.525
11
90.3916
21
-118.525
0
LINE
8
BLACK
6
CONTINUOUS
10
90.3916
20
-118.525
11
90.3916
21
-119.161
0
LINE
8
BLACK
6
CONTINUOUS
10
90.3916
20
-119.161
11
91.028
21
-119.161
0
LINE
8
BLACK
6
CONTINUOUS
10
92.778
20
-80.631
11
92.778
21
-79.9946
0
LINE
8
BLACK
6
CONTINUOUS
10
92.778
20
-79.9946
11
92.1416
21
-79.9946
0
LINE
8
BLACK
6
CONTINUOUS
10
92.1416
20
-79.9946
11
92.1416
21
-80.631
0
LINE
8
BLACK
6
CONTINUOUS
10
92.1416
20
-80.631
11
92.778
21
-80.631
0
LINE
8
BLACK
6
CONTINUOUS
10
95.318
20
-80.631
11
95.318
21
-79.9946
0
LINE
8
BLACK
6
CONTINUOUS
10
95.318
20
-79.9946
11
94.6816
21
-79.9946
0
LINE
8
BLACK
6
CONTINUOUS
10
94.6816
20
-79.9946
11
94.6816
21
-80.631
0
LINE
8
BLACK
6
CONTINUOUS
10
94.6816
20
-80.631
11
95.318
21
-80.631
0
LINE
8
BLACK
6
CONTINUOUS
10
96.616
20
-119.161
11
96.616
21
-118.525
0
LINE
8
BLACK
6
CONTINUOUS
10
96.616
20
-118.525
11
95.9796
21
-118.525
0
LINE
8
BLACK
6
CONTINUOUS
10
95.9796
20
-118.525
11
95.9796
21
-119.161
0
LINE
8
BLACK
6
CONTINUOUS
10
95.9796
20
-119.161
11
96.616
21
-119.161
0
LINE
8
BLACK
6
CONTINUOUS
10
99.156
20
-119.161
11
99.156
21
-118.525
0
LINE
8
BLACK
6
CONTINUOUS
10
99.156
20
-118.525
11
98.5196
21
-118.525
0
LINE
8
BLACK
6
CONTINUOUS
10
98.5196
20
-118.525
11
98.5196
21
-119.161
0
LINE
8
BLACK
6
CONTINUOUS
10
98.5196
20
-119.161
11
99.156
21
-119.161
0
LINE
8
BLACK
6
CONTINUOUS
10
90.6048
20
-90.0338
11
91.1048
21
-89.5338
0
LINE
8
BLACK
6
CONTINUOUS
10
91.1048
20
-89.5338
11
90.6048
21
-89.0338
0
LINE
8
BLACK
6
CONTINUOUS
10
90.6048
20
-89.0338
11
90.1048
21
-89.5338
0
LINE
8
BLACK
6
CONTINUOUS
10
90.1048
20
-89.5338
11
90.6048
21
-90.0338
0
LINE
8
BLACK
6
CONTINUOUS
10
90.6048
20
-94.4788
11
91.1048
21
-93.9788
0
LINE
8
BLACK
6
CONTINUOUS
10
91.1048
20
-93.9788
11
90.6048
21
-93.4788
0
LINE
8
BLACK
6
CONTINUOUS
10
90.6048
20
-93.4788
11
90.1048
21
-93.9788
0
LINE
8
BLACK
6
CONTINUOUS
10
90.1048
20
-93.9788
11
90.6048
21
-94.4788
0
LINE
8
BLACK
6
CONTINUOUS
10
96.9548
20
-90.0338
11
97.4548
21
-89.5338
0
LINE
8
BLACK
6
CONTINUOUS
10
97.4548
20
-89.5338
11
96.9548
21
-89.0338
0
LINE
8
BLACK
6
CONTINUOUS
10
96.9548
20
-89.0338
11
96.4548
21
-89.5338
0
LINE
8
BLACK
6
CONTINUOUS
10
96.4548
20
-89.5338
11
96.9548
21
-90.0338
0
LINE
8
BLACK
6
CONTINUOUS
10
96.9548
20
-94.4788
11
97.4548
21
-93.9788
0
LINE
8
BLACK
6
CONTINUOUS
10
97.4548
20
-93.9788
11
96.9548
21
-93.4788
0
LINE
8
BLACK
6
CONTINUOUS
10
96.9548
20
-93.4788
11
96.4548
21
-93.9788
0
LINE
8
BLACK
6
CONTINUOUS
10
96.4548
20
-93.9788
11
96.9548
21
-94.4788
0
LINE
8
BLACK
6
CONTINUOUS
10
108.065
20
-90.0338
11
108.565
21
-89.5338
0
LINE
8
BLACK
6
CONTINUOUS
10
108.565
20
-89.5338
11
108.065
21
-89.0338
0
LINE
8
BLACK
6
CONTINUOUS
10
108.065
20
-89.0338
11
107.565
21
-89.5338
0
LINE
8
BLACK
6
CONTINUOUS
10
107.565
20
-89.5338
11
108.065
21
-90.0338
0
LINE
8
BLACK
6
CONTINUOUS
10
108.065
20
-94.4788
11
108.565
21
-93.9788
0
LINE
8
BLACK
6
CONTINUOUS
10
108.565
20
-93.9788
11
108.065
21
-93.4788
0
LINE
8
BLACK
6
CONTINUOUS
10
108.065
20
-93.4788
11
107.565
21
-93.9788
0
LINE
8
BLACK
6
CONTINUOUS
10
107.565
20
-93.9788
11
108.065
21
-94.4788
0
LINE
8
BLACK
6
CONTINUOUS
10
114.415
20
-90.0338
11
114.915
21
-89.5338
0
LINE
8
BLACK
6
CONTINUOUS
10
114.915
20
-89.5338
11
114.415
21
-89.0338
0
LINE
8
BLACK
6
CONTINUOUS
10
114.415
20
-89.0338
11
113.915
21
-89.5338
0
LINE
8
BLACK
6
CONTINUOUS
10
113.915
20
-89.5338
11
114.415
21
-90.0338
0
LINE
8
BLACK
6
CONTINUOUS
10
114.415
20
-94.4788
11
114.915
21
-93.9788
0
LINE
8
BLACK
6
CONTINUOUS
10
114.915
20
-93.9788
11
114.415
21
-93.4788
0
LINE
8
BLACK
6
CONTINUOUS
10
114.415
20
-93.4788
11
113.915
21
-93.9788
0
LINE
8
BLACK
6
CONTINUOUS
10
113.915
20
-93.9788
11
114.415
21
-94.4788
0
LINE
8
BLACK
6
CONTINUOUS
10
99.335
20
-55.1138
11
99.835
21
-54.6138
0
LINE
8
BLACK
6
CONTINUOUS
10
99.835
20
-54.6138
11
99.335
21
-54.1138
0
LINE
8
BLACK
6
CONTINUOUS
10
99.335
20
-54.1138
11
98.835
21
-54.6138
0
LINE
8
BLACK
6
CONTINUOUS
10
98.835
20
-54.6138
11
99.335
21
-55.1138
0
LINE
8
BLACK
6
CONTINUOUS
10
99.335
20
-59.5588
11
99.835
21
-59.0588
0
LINE
8
BLACK
6
CONTINUOUS
10
99.835
20
-59.0588
11
99.335
21
-58.5588
0
LINE
8
BLACK
6
CONTINUOUS
10
99.335
20
-58.5588
11
98.835
21
-59.0588
0
LINE
8
BLACK
6
CONTINUOUS
10
98.835
20
-59.0588
11
99.335
21
-59.5588
0
LINE
8
BLACK
6
CONTINUOUS
10
105.685
20
-55.1138
11
106.185
21
-54.6138
0
LINE
8
BLACK
6
CONTINUOUS
10
106.185
20
-54.6138
11
105.685
21
-54.1138
0
LINE
8
BLACK
6
CONTINUOUS
10
105.685
20
-54.1138
11
105.185
21
-54.6138
0
LINE
8
BLACK
6
CONTINUOUS
10
105.185
20
-54.6138
11
105.685
21
-55.1138
0
LINE
8
BLACK
6
CONTINUOUS
10
105.685
20
-59.5588
11
106.185
21
-59.0588
0
LINE
8
BLACK
6
CONTINUOUS
10
106.185
20
-59.0588
11
105.685
21
-58.5588
0
LINE
8
BLACK
6
CONTINUOUS
10
105.685
20
-58.5588
11
105.185
21
-59.0588
0
LINE
8
BLACK
6
CONTINUOUS
10
105.185
20
-59.0588
11
105.685
21
-59.5588
0
LINE
8
BLACK
6
CONTINUOUS
10
108.065
20
-72.5738
11
108.565
21
-72.0738
0
LINE
8
BLACK
6
CONTINUOUS
10
108.565
20
-72.0738
11
108.065
21
-71.5738
0
LINE
8
BLACK
6
CONTINUOUS
10
108.065
20
-71.5738
11
107.565
21
-72.0738
0
LINE
8
BLACK
6
CONTINUOUS
10
107.565
20
-72.0738
11
108.065
21
-72.5738
0
LINE
8
BLACK
6
CONTINUOUS
10
108.065
20
-77.0188
11
108.565
21
-76.5188
0
LINE
8
BLACK
6
CONTINUOUS
10
108.565
20
-76.5188
11
108.065
21
-76.0188
0
LINE
8
BLACK
6
CONTINUOUS
10
108.065
20
-76.0188
11
107.565
21
-76.5188
0
LINE
8
BLACK
6
CONTINUOUS
10
107.565
20
-76.5188
11
108.065
21
-77.0188
0
LINE
8
BLACK
6
CONTINUOUS
10
114.415
20
-72.5738
11
114.915
21
-72.0738
0
LINE
8
BLACK
6
CONTINUOUS
10
114.915
20
-72.0738
11
114.415
21
-71.5738
0
LINE
8
BLACK
6
CONTINUOUS
10
114.415
20
-71.5738
11
113.915
21
-72.0738
0
LINE
8
BLACK
6
CONTINUOUS
10
113.915
20
-72.0738
11
114.415
21
-72.5738
0
LINE
8
BLACK
6
CONTINUOUS
10
114.415
20
-77.0188
11
114.915
21
-76.5188
0
LINE
8
BLACK
6
CONTINUOUS
10
114.915
20
-76.5188
11
114.415
21
-76.0188
0
LINE
8
BLACK
6
CONTINUOUS
10
114.415
20
-76.0188
11
113.915
21
-76.5188
0
LINE
8
BLACK
6
CONTINUOUS
10
113.915
20
-76.5188
11
114.415
21
-77.0188
0
LINE
8
BLACK
6
CONTINUOUS
10
90.6048
20
-72.5738
11
91.1048
21
-72.0738
0
LINE
8
BLACK
6
CONTINUOUS
10
91.1048
20
-72.0738
11
90.6048
21
-71.5738
0
LINE
8
BLACK
6
CONTINUOUS
10
90.6048
20
-71.5738
11
90.1048
21
-72.0738
0
LINE
8
BLACK
6
CONTINUOUS
10
90.1048
20
-72.0738
11
90.6048
21
-72.5738
0
LINE
8
BLACK
6
CONTINUOUS
10
90.6048
20
-77.0188
11
91.1048
21
-76.5188
0
LINE
8
BLACK
6
CONTINUOUS
10
91.1048
20
-76.5188
11
90.6048
21
-76.0188
0
LINE
8
BLACK
6
CONTINUOUS
10
90.6048
20
-76.0188
11
90.1048
21
-76.5188
0
LINE
8
BLACK
6
CONTINUOUS
10
90.1048
20
-76.5188
11
90.6048
21
-77.0188
0
LINE
8
BLACK
6
CONTINUOUS
10
96.9548
20
-72.5738
11
97.4548
21
-72.0738
0
LINE
8
BLACK
6
CONTINUOUS
10
97.4548
20
-72.0738
11
96.9548
21
-71.5738
0
LINE
8
BLACK
6
CONTINUOUS
10
96.9548
20
-71.5738
11
96.4548
21
-72.0738
0
LINE
8
BLACK
6
CONTINUOUS
10
96.4548
20
-72.0738
11
96.9548
21
-72.5738
0
LINE
8
BLACK
6
CONTINUOUS
10
96.9548
20
-77.0188
11
97.4548
21
-76.5188
0
LINE
8
BLACK
6
CONTINUOUS
10
97.4548
20
-76.5188
11
96.9548
21
-76.0188
0
LINE
8
BLACK
6
CONTINUOUS
10
96.9548
20
-76.0188
11
96.4548
21
-76.5188
0
LINE
8
BLACK
6
CONTINUOUS
10
96.4548
20
-76.5188
11
96.9548
21
-77.0188
0
LINE
8
BLACK
6
CONTINUOUS
10
102.37
20
-90.033
11
103.57
21
-91.233
0
LINE
8
BLACK
6
CONTINUOUS
10
103.57
20
-90.033
11
102.37
21
-91.233
0
CIRCLE
8
BLACK
10
102.97
20
-90.633
40
0.6
0
LINE
8
BLACK
6
CONTINUOUS
10
102.37
20
-92.573
11
103.57
21
-93.773
0
LINE
8
BLACK
6
CONTINUOUS
10
103.57
20
-92.573
11
102.37
21
-93.773
0
CIRCLE
8
BLACK
10
102.97
20
-93.173
40
0.6
0
LINE
8
BLACK
6
CONTINUOUS
10
102.37
20
-95.113
11
103.57
21
-96.313
0
LINE
8
BLACK
6
CONTINUOUS
10
103.57
20
-95.113
11
102.37
21
-96.313
0
CIRCLE
8
BLACK
10
102.97
20
-95.713
40
0.6
0
LINE
8
BLACK
6
CONTINUOUS
10
102.37
20
-97.653
11
103.57
21
-98.853
0
LINE
8
BLACK
6
CONTINUOUS
10
103.57
20
-97.653
11
102.37
21
-98.853
0
CIRCLE
8
BLACK
10
102.97
20
-98.253
40
0.6
0
LINE
8
BLACK
6
CONTINUOUS
10
102.37
20
-100.193
11
103.57
21
-101.393
0
LINE
8
BLACK
6
CONTINUOUS
10
103.57
20
-100.193
11
102.37
21
-101.393
0
CIRCLE
8
BLACK
10
102.97
20
-100.793
40
0.6
0
LINE
8
BLACK
6
CONTINUOUS
10
102.37
20
-102.733
11
103.57
21
-103.933
0
LINE
8
BLACK
6
CONTINUOUS
10
103.57
20
-102.733
11
102.37
21
-103.933
0
CIRCLE
8
BLACK
10
102.97
20
-103.333
40
0.6
0
LINE
8
BLACK
6
CONTINUOUS
10
90.6178
20
-110.557
11
91.8178
21
-111.757
0
LINE
8
BLACK
6
CONTINUOUS
10
91.8178
20
-110.557
11
90.6178
21
-111.757
0
CIRCLE
8
BLACK
10
91.2178
20
-111.157
40
0.6
0
LINE
8
BLACK
6
CONTINUOUS
10
90.6178
20
-113.097
11
91.8178
21
-114.297
0
LINE
8
BLACK
6
CONTINUOUS
10
91.8178
20
-113.097
11
90.6178
21
-114.297
0
CIRCLE
8
BLACK
10
91.2178
20
-113.697
40
0.6
0
LINE
8
BLACK
6
CONTINUOUS
10
102.619
20
-68.9008
11
103.819
21
-70.1008
0
LINE
8
BLACK
6
CONTINUOUS
10
103.819
20
-68.9008
11
102.619
21
-70.1008
0
CIRCLE
8
BLACK
10
103.219
20
-69.5008
40
0.6
0
LINE
8
BLACK
6
CONTINUOUS
10
102.619
20
-71.4408
11
103.819
21
-72.6408
0
LINE
8
BLACK
6
CONTINUOUS
10
103.819
20
-71.4408
11
102.619
21
-72.6408
0
CIRCLE
8
BLACK
10
103.219
20
-72.0408
40
0.6
0
LINE
8
BLACK
6
CONTINUOUS
10
102.619
20
-73.9808
11
103.819
21
-75.1808
0
LINE
8
BLACK
6
CONTINUOUS
10
103.819
20
-73.9808
11
102.619
21
-75.1808
0
CIRCLE
8
BLACK
10
103.219
20
-74.5808
40
0.6
0
LINE
8
BLACK
6
CONTINUOUS
10
102.619
20
-76.5208
11
103.819
21
-77.7208
0
LINE
8
BLACK
6
CONTINUOUS
10
103.819
20
-76.5208
11
102.619
21
-77.7208
0
CIRCLE
8
BLACK
10
103.219
20
-77.1208
40
0.6
0
LINE
8
BLACK
6
CONTINUOUS
10
102.619
20
-79.0608
11
103.819
21
-80.2608
0
LINE
8
BLACK
6
CONTINUOUS
10
103.819
20
-79.0608
11
102.619
21
-80.2608
0
CIRCLE
8
BLACK
10
103.219
20
-79.6608
40
0.6
0
LINE
8
BLACK
6
CONTINUOUS
10
102.619
20
-81.6008
11
103.819
21
-82.8008
0
LINE
8
BLACK
6
CONTINUOUS
10
103.819
20
-81.6008
11
102.619
21
-82.8008
0
CIRCLE
8
BLACK
10
103.219
20
-82.2008
40
0.6
0
LINE
8
BLACK
6
CONTINUOUS
10
94.4912
20
-62.0428
11
95.6912
21
-63.2428
0
LINE
8
BLACK
6
CONTINUOUS
10
95.6912
20
-62.0428
11
94.4912
21
-63.2428
0
CIRCLE
8
BLACK
10
95.0912
20
-62.6428
40
0.6
0
LINE
8
BLACK
6
CONTINUOUS
10
94.4912
20
-64.5828
11
95.6912
21
-65.7828
0
LINE
8
BLACK
6
CONTINUOUS
10
95.6912
20
-64.5828
11
94.4912
21
-65.7828
0
CIRCLE
8
BLACK
10
95.0912
20
-65.1828
40
0.6
0
LINE
8
BLACK
6
CONTINUOUS
10
94.4912
20
-67.1228
11
95.6912
21
-68.3228
0
LINE
8
BLACK
6
CONTINUOUS
10
95.6912
20
-67.1228
11
94.4912
21
-68.3228
0
CIRCLE
8
BLACK
10
95.0912
20
-67.7228
40
0.6
0
LINE
8
BLACK
6
CONTINUOUS
10
87.1183
20
-151.194
11
87.1183
21
-148.194
0
LINE
8
BLACK
6
CONTINUOUS
10
87.1183
20
-148.194
11
87.8325
21
-148.194
0
LINE
8
BLACK
6
CONTINUOUS
10
87.8325
20
-148.194
11
88.2611
21
-148.337
0
LINE
8
BLACK
6
CONTINUOUS
10
88.2611
20
-148.337
11
88.5468
21
-148.623
0
LINE
8
BLACK
6
CONTINUOUS
10
88.5468
20
-148.623
11
88.6897
21
-148.909
0
LINE
8
BLACK
6
CONTINUOUS
10
88.6897
20
-148.909
11
88.8325
21
-149.48
0
LINE
8
BLACK
6
CONTINUOUS
10
88.8325
20
-149.48
11
88.8325
21
-149.909
0
LINE
8
BLACK
6
CONTINUOUS
10
88.8325
20
-149.909
11
88.6897
21
-150.48
0
LINE
8
BLACK
6
CONTINUOUS
10
88.6897
20
-150.48
11
88.5468
21
-150.766
0
LINE
8
BLACK
6
CONTINUOUS
10
88.5468
20
-150.766
11
88.2611
21
-151.052
0
LINE
8
BLACK
6
CONTINUOUS
10
88.2611
20
-151.052
11
87.8325
21
-151.194
0
LINE
8
BLACK
6
CONTINUOUS
10
87.8325
20
-151.194
11
87.1183
21
-151.194
0
LINE
8
BLACK
6
CONTINUOUS
10
90.1183
20
-151.194
11
90.1183
21
-149.194
0
LINE
8
BLACK
6
CONTINUOUS
10
90.1183
20
-149.766
11
90.2611
21
-149.48
0
LINE
8
BLACK
6
CONTINUOUS
10
90.2611
20
-149.48
11
90.404
21
-149.337
0
LINE
8
BLACK
6
CONTINUOUS
10
90.404
20
-149.337
11
90.6897
21
-149.194
0
LINE
8
BLACK
6
CONTINUOUS
10
90.6897
20
-149.194
11
90.9754
21
-149.194
0
LINE
8
BLACK
6
CONTINUOUS
10
91.9754
20
-151.194
11
91.9754
21
-149.194
0
LINE
8
BLACK
6
CONTINUOUS
10
91.9754
20
-148.194
11
91.8325
21
-148.337
0
LINE
8
BLACK
6
CONTINUOUS
10
91.8325
20
-148.337
11
91.9754
21
-148.48
0
LINE
8
BLACK
6
CONTINUOUS
10
91.9754
20
-148.48
11
92.1183
21
-148.337
0
LINE
8
BLACK
6
CONTINUOUS
10
92.1183
20
-148.337
11
91.9754
21
-148.194
0
LINE
8
BLACK
6
CONTINUOUS
10
91.9754
20
-148.194
11
91.9754
21
-148.48
0
LINE
8
BLACK
6
CONTINUOUS
10
93.8325
20
-151.194
11
93.5468
21
-151.052
0
LINE
8
BLACK
6
CONTINUOUS
10
93.5468
20
-151.052
11
93.404
21
-150.766
0
LINE
8
BLACK
6
CONTINUOUS
10
93.404
20
-150.766
11
93.404
21
-148.194
0
LINE
8
BLACK
6
CONTINUOUS
10
95.404
20
-151.194
11
95.1183
21
-151.052
0
LINE
8
BLACK
6
CONTINUOUS
10
95.1183
20
-151.052
11
94.9754
21
-150.766
0
LINE
8
BLACK
6
CONTINUOUS
10
94.9754
20
-150.766
11
94.9754
21
-148.194
0
LINE
8
BLACK
6
CONTINUOUS
10
98.8325
20
-151.194
11
98.8325
21
-148.194
0
LINE
8
BLACK
6
CONTINUOUS
10
98.8325
20
-148.194
11
99.8325
21
-150.337
0
LINE
8
BLACK
6
CONTINUOUS
10
99.8325
20
-150.337
11
100.833
21
-148.194
0
LINE
8
BLACK
6
CONTINUOUS
10
100.833
20
-148.194
11
100.833
21
-151.194
0
LINE
8
BLACK
6
CONTINUOUS
10
103.547
20
-151.194
11
103.547
21
-149.623
0
LINE
8
BLACK
6
CONTINUOUS
10
103.547
20
-149.623
11
103.404
21
-149.337
0
LINE
8
BLACK
6
CONTINUOUS
10
103.404
20
-149.337
11
103.118
21
-149.194
0
LINE
8
BLACK
6
CONTINUOUS
10
103.118
20
-149.194
11
102.547
21
-149.194
0
LINE
8
BLACK
6
CONTINUOUS
10
102.547
20
-149.194
11
102.261
21
-149.337
0
LINE
8
BLACK
6
CONTINUOUS
10
103.547
20
-151.052
11
103.261
21
-151.194
0
LINE
8
BLACK
6
CONTINUOUS
10
103.261
20
-151.194
11
102.547
21
-151.194
0
LINE
8
BLACK
6
CONTINUOUS
10
102.547
20
-151.194
11
102.261
21
-151.052
0
LINE
8
BLACK
6
CONTINUOUS
10
102.261
20
-151.052
11
102.118
21
-150.766
0
LINE
8
BLACK
6
CONTINUOUS
10
102.118
20
-150.766
11
102.118
21
-150.48
0
LINE
8
BLACK
6
CONTINUOUS
10
102.118
20
-150.48
11
102.261
21
-150.194
0
LINE
8
BLACK
6
CONTINUOUS
10
102.261
20
-150.194
11
102.547
21
-150.052
0
LINE
8
BLACK
6
CONTINUOUS
10
102.547
20
-150.052
11
103.261
21
-150.052
0
LINE
8
BLACK
6
CONTINUOUS
10
103.261
20
-150.052
11
103.547
21
-149.909
0
LINE
8
BLACK
6
CONTINUOUS
10
104.975
20
-149.194
11
104.975
21
-152.194
0
LINE
8
BLACK
6
CONTINUOUS
10
104.975
20
-149.337
11
105.261
21
-149.194
0
LINE
8
BLACK
6
CONTINUOUS
10
105.261
20
-149.194
11
105.833
21
-149.194
0
LINE
8
BLACK
6
CONTINUOUS
10
105.833
20
-149.194
11
106.118
21
-149.337
0
LINE
8
BLACK
6
CONTINUOUS
10
106.118
20
-149.337
11
106.261
21
-149.48
0
LINE
8
BLACK
6
CONTINUOUS
10
106.261
20
-149.48
11
106.404
21
-149.766
0
LINE
8
BLACK
6
CONTINUOUS
10
106.404
20
-149.766
11
106.404
21
-150.623
0
LINE
8
BLACK
6
CONTINUOUS
10
106.404
20
-150.623
11
106.261
21
-150.909
0
LINE
8
BLACK
6
CONTINUOUS
10
106.261
20
-150.909
11
106.118
21
-151.052
0
LINE
8
BLACK
6
CONTINUOUS
10
106.118
20
-151.052
11
105.833
21
-151.194
0
LINE
8
BLACK
6
CONTINUOUS
10
105.833
20
-151.194
11
105.261
21
-151.194
0
LINE
8
BLACK
6
CONTINUOUS
10
105.261
20
-151.194
11
104.975
21
-151.052
0
LINE
8
BLACK
6
CONTINUOUS
10
107.69
20
-150.909
11
107.833
21
-151.052
0
LINE
8
BLACK
6
CONTINUOUS
10
107.833
20
-151.052
11
107.69
21
-151.194
0
LINE
8
BLACK
6
CONTINUOUS
10
107.69
20
-151.194
11
107.547
21
-151.052
0
LINE
8
BLACK
6
CONTINUOUS
10
107.547
20
-151.052
11
107.69
21
-150.909
0
LINE
8
BLACK
6
CONTINUOUS
10
107.69
20
-150.909
11
107.69
21
-151.194
0
LINE
8
BLACK
6
CONTINUOUS
10
107.69
20
-149.337
11
107.833
21
-149.48
0
LINE
8
BLACK
6
CONTINUOUS
10
107.833
20
-149.48
11
107.69
21
-149.623
0
LINE
8
BLACK
6
CONTINUOUS
10
107.69
20
-149.623
11
107.547
21
-149.48
0
LINE
8
BLACK
6
CONTINUOUS
10
107.547
20
-149.48
11
107.69
21
-149.337
0
LINE
8
BLACK
6
CONTINUOUS
10
107.69
20
-149.337
11
107.69
21
-149.623
0
LINE
8
BLACK
6
CONTINUOUS
10
83.554
20
-155.787
11
84.254
21
-156.487
0
LINE
8
BLACK
6
CONTINUOUS
10
84.254
20
-155.787
11
83.554
21
-156.487
0
LINE
8
BLACK
6
CONTINUOUS
10
87.6897
20
-154.494
11
87.9754
21
-154.494
0
LINE
8
BLACK
6
CONTINUOUS
10
87.9754
20
-154.494
11
88.2611
21
-154.637
0
LINE
8
BLACK
6
CONTINUOUS
10
88.2611
20
-154.637
11
88.404
21
-154.78
0
LINE
8
BLACK
6
CONTINUOUS
10
88.404
20
-154.78
11
88.5468
21
-155.066
0
LINE
8
BLACK
6
CONTINUOUS
10
88.5468
20
-155.066
11
88.6897
21
-155.637
0
LINE
8
BLACK
6
CONTINUOUS
10
88.6897
20
-155.637
11
88.6897
21
-156.352
0
LINE
8
BLACK
6
CONTINUOUS
10
88.6897
20
-156.352
11
88.5468
21
-156.923
0
LINE
8
BLACK
6
CONTINUOUS
10
88.5468
20
-156.923
11
88.404
21
-157.209
0
LINE
8
BLACK
6
CONTINUOUS
10
88.404
20
-157.209
11
88.2611
21
-157.352
0
LINE
8
BLACK
6
CONTINUOUS
10
88.2611
20
-157.352
11
87.9754
21
-157.494
0
LINE
8
BLACK
6
CONTINUOUS
10
87.9754
20
-157.494
11
87.6897
21
-157.494
0
LINE
8
BLACK
6
CONTINUOUS
10
87.6897
20
-157.494
11
87.404
21
-157.352
0
LINE
8
BLACK
6
CONTINUOUS
10
87.404
20
-157.352
11
87.2611
21
-157.209
0
LINE
8
BLACK
6
CONTINUOUS
10
87.2611
20
-157.209
11
87.1183
21
-156.923
0
LINE
8
BLACK
6
CONTINUOUS
10
87.1183
20
-156.923
11
86.9754
21
-156.352
0
LINE
8
BLACK
6
CONTINUOUS
10
86.9754
20
-156.352
11
86.9754
21
-155.637
0
LINE
8
BLACK
6
CONTINUOUS
10
86.9754
20
-155.637
11
87.1183
21
-155.066
0
LINE
8
BLACK
6
CONTINUOUS
10
87.1183
20
-155.066
11
87.2611
21
-154.78
0
LINE
8
BLACK
6
CONTINUOUS
10
87.2611
20
-154.78
11
87.404
21
-154.637
0
LINE
8
BLACK
6
CONTINUOUS
10
87.404
20
-154.637
11
87.6897
21
-154.494
0
LINE
8
BLACK
6
CONTINUOUS
10
89.9754
20
-157.209
11
90.1183
21
-157.352
0
LINE
8
BLACK
6
CONTINUOUS
10
90.1183
20
-157.352
11
89.9754
21
-157.494
0
LINE
8
BLACK
6
CONTINUOUS
10
89.9754
20
-157.494
11
89.8325
21
-157.352
0
LINE
8
BLACK
6
CONTINUOUS
10
89.8325
20
-157.352
11
89.9754
21
-157.209
0
LINE
8
BLACK
6
CONTINUOUS
10
89.9754
20
-157.209
11
89.9754
21
-157.494
0
LINE
8
BLACK
6
CONTINUOUS
10
91.1183
20
-154.494
11
93.1183
21
-154.494
0
LINE
8
BLACK
6
CONTINUOUS
10
93.1183
20
-154.494
11
91.8325
21
-157.494
0
LINE
8
BLACK
6
CONTINUOUS
10
94.8325
20
-154.494
11
95.1183
21
-154.494
0
LINE
8
BLACK
6
CONTINUOUS
10
95.1183
20
-154.494
11
95.404
21
-154.637
0
LINE
8
BLACK
6
CONTINUOUS
10
95.404
20
-154.637
11
95.5468
21
-154.78
0
LINE
8
BLACK
6
CONTINUOUS
10
95.5468
20
-154.78
11
95.6897
21
-155.066
0
LINE
8
BLACK
6
CONTINUOUS
10
95.6897
20
-155.066
11
95.8325
21
-155.637
0
LINE
8
BLACK
6
CONTINUOUS
10
95.8325
20
-155.637
11
95.8325
21
-156.352
0
LINE
8
BLACK
6
CONTINUOUS
10
95.8325
20
-156.352
11
95.6897
21
-156.923
0
LINE
8
BLACK
6
CONTINUOUS
10
95.6897
20
-156.923
11
95.5468
21
-157.209
0
LINE
8
BLACK
6
CONTINUOUS
10
95.5468
20
-157.209
11
95.404
21
-157.352
0
LINE
8
BLACK
6
CONTINUOUS
10
95.404
20
-157.352
11
95.1183
21
-157.494
0
LINE
8
BLACK
6
CONTINUOUS
10
95.1183
20
-157.494
11
94.8325
21
-157.494
0
LINE
8
BLACK
6
CONTINUOUS
10
94.8325
20
-157.494
11
94.5468
21
-157.352
0
LINE
8
BLACK
6
CONTINUOUS
10
94.5468
20
-157.352
11
94.404
21
-157.209
0
LINE
8
BLACK
6
CONTINUOUS
10
94.404
20
-157.209
11
94.2611
21
-156.923
0
LINE
8
BLACK
6
CONTINUOUS
10
94.2611
20
-156.923
11
94.1183
21
-156.352
0
LINE
8
BLACK
6
CONTINUOUS
10
94.1183
20
-156.352
11
94.1183
21
-155.637
0
LINE
8
BLACK
6
CONTINUOUS
10
94.1183
20
-155.637
11
94.2611
21
-155.066
0
LINE
8
BLACK
6
CONTINUOUS
10
94.2611
20
-155.066
11
94.404
21
-154.78
0
LINE
8
BLACK
6
CONTINUOUS
10
94.404
20
-154.78
11
94.5468
21
-154.637
0
LINE
8
BLACK
6
CONTINUOUS
10
94.5468
20
-154.637
11
94.8325
21
-154.494
0
LINE
8
BLACK
6
CONTINUOUS
10
97.1183
20
-157.494
11
97.1183
21
-155.494
0
LINE
8
BLACK
6
CONTINUOUS
10
97.1183
20
-155.78
11
97.2611
21
-155.637
0
LINE
8
BLACK
6
CONTINUOUS
10
97.2611
20
-155.637
11
97.5468
21
-155.494
0
LINE
8
BLACK
6
CONTINUOUS
10
97.5468
20
-155.494
11
97.9754
21
-155.494
0
LINE
8
BLACK
6
CONTINUOUS
10
97.9754
20
-155.494
11
98.2611
21
-155.637
0
LINE
8
BLACK
6
CONTINUOUS
10
98.2611
20
-155.637
11
98.404
21
-155.923
0
LINE
8
BLACK
6
CONTINUOUS
10
98.404
20
-155.923
11
98.404
21
-157.494
0
LINE
8
BLACK
6
CONTINUOUS
10
98.404
20
-155.923
11
98.5468
21
-155.637
0
LINE
8
BLACK
6
CONTINUOUS
10
98.5468
20
-155.637
11
98.8325
21
-155.494
0
LINE
8
BLACK
6
CONTINUOUS
10
98.8325
20
-155.494
11
99.2611
21
-155.494
0
LINE
8
BLACK
6
CONTINUOUS
10
99.2611
20
-155.494
11
99.5468
21
-155.637
0
LINE
8
BLACK
6
CONTINUOUS
10
99.5468
20
-155.637
11
99.6897
21
-155.923
0
LINE
8
BLACK
6
CONTINUOUS
10
99.6897
20
-155.923
11
99.6897
21
-157.494
0
LINE
8
BLACK
6
CONTINUOUS
10
101.118
20
-157.494
11
101.118
21
-155.494
0
LINE
8
BLACK
6
CONTINUOUS
10
101.118
20
-155.78
11
101.261
21
-155.637
0
LINE
8
BLACK
6
CONTINUOUS
10
101.261
20
-155.637
11
101.547
21
-155.494
0
LINE
8
BLACK
6
CONTINUOUS
10
101.547
20
-155.494
11
101.975
21
-155.494
0
LINE
8
BLACK
6
CONTINUOUS
10
101.975
20
-155.494
11
102.261
21
-155.637
0
LINE
8
BLACK
6
CONTINUOUS
10
102.261
20
-155.637
11
102.404
21
-155.923
0
LINE
8
BLACK
6
CONTINUOUS
10
102.404
20
-155.923
11
102.404
21
-157.494
0
LINE
8
BLACK
6
CONTINUOUS
10
102.404
20
-155.923
11
102.547
21
-155.637
0
LINE
8
BLACK
6
CONTINUOUS
10
102.547
20
-155.637
11
102.833
21
-155.494
0
LINE
8
BLACK
6
CONTINUOUS
10
102.833
20
-155.494
11
103.261
21
-155.494
0
LINE
8
BLACK
6
CONTINUOUS
10
103.261
20
-155.494
11
103.547
21
-155.637
0
LINE
8
BLACK
6
CONTINUOUS
10
103.547
20
-155.637
11
103.69
21
-155.923
0
LINE
8
BLACK
6
CONTINUOUS
10
103.69
20
-155.923
11
103.69
21
-157.494
0
LINE
8
BLACK
6
CONTINUOUS
10
109.547
20
-154.352
11
106.975
21
-158.209
0
LINE
8
BLACK
6
CONTINUOUS
10
113.404
20
-154.494
11
113.69
21
-154.494
0
LINE
8
BLACK
6
CONTINUOUS
10
113.69
20
-154.494
11
113.975
21
-154.637
0
LINE
8
BLACK
6
CONTINUOUS
10
113.975
20
-154.637
11
114.118
21
-154.78
0
LINE
8
BLACK
6
CONTINUOUS
10
114.118
20
-154.78
11
114.261
21
-155.066
0
LINE
8
BLACK
6
CONTINUOUS
10
114.261
20
-155.066
11
114.404
21
-155.637
0
LINE
8
BLACK
6
CONTINUOUS
10
114.404
20
-155.637
11
114.404
21
-156.352
0
LINE
8
BLACK
6
CONTINUOUS
10
114.404
20
-156.352
11
114.261
21
-156.923
0
LINE
8
BLACK
6
CONTINUOUS
10
114.261
20
-156.923
11
114.118
21
-157.209
0
LINE
8
BLACK
6
CONTINUOUS
10
114.118
20
-157.209
11
113.975
21
-157.352
0
LINE
8
BLACK
6
CONTINUOUS
10
113.975
20
-157.352
11
113.69
21
-157.494
0
LINE
8
BLACK
6
CONTINUOUS
10
113.69
20
-157.494
11
113.404
21
-157.494
0
LINE
8
BLACK
6
CONTINUOUS
10
113.404
20
-157.494
11
113.118
21
-157.352
0
LINE
8
BLACK
6
CONTINUOUS
10
113.118
20
-157.352
11
112.975
21
-157.209
0
LINE
8
BLACK
6
CONTINUOUS
10
112.975
20
-157.209
11
112.833
21
-156.923
0
LINE
8
BLACK
6
CONTINUOUS
10
112.833
20
-156.923
11
112.69
21
-156.352
0
LINE
8
BLACK
6
CONTINUOUS
10
112.69
20
-156.352
11
112.69
21
-155.637
0
LINE
8
BLACK
6
CONTINUOUS
10
112.69
20
-155.637
11
112.833
21
-155.066
0
LINE
8
BLACK
6
CONTINUOUS
10
112.833
20
-155.066
11
112.975
21
-154.78
0
LINE
8
BLACK
6
CONTINUOUS
10
112.975
20
-154.78
11
113.118
21
-154.637
0
LINE
8
BLACK
6
CONTINUOUS
10
113.118
20
-154.637
11
113.404
21
-154.494
0
LINE
8
BLACK
6
CONTINUOUS
10
115.69
20
-157.209
11
115.833
21
-157.352
0
LINE
8
BLACK
6
CONTINUOUS
10
115.833
20
-157.352
11
115.69
21
-157.494
0
LINE
8
BLACK
6
CONTINUOUS
10
115.69
20
-157.494
11
115.547
21
-157.352
0
LINE
8
BLACK
6
CONTINUOUS
10
115.547
20
-157.352
11
115.69
21
-157.209
0
LINE
8
BLACK
6
CONTINUOUS
10
115.69
20
-157.209
11
115.69
21
-157.494
0
LINE
8
BLACK
6
CONTINUOUS
10
117.69
20
-154.494
11
117.975
21
-154.494
0
LINE
8
BLACK
6
CONTINUOUS
10
117.975
20
-154.494
11
118.261
21
-154.637
0
LINE
8
BLACK
6
CONTINUOUS
10
118.261
20
-154.637
11
118.404
21
-154.78
0
LINE
8
BLACK
6
CONTINUOUS
10
118.404
20
-154.78
11
118.547
21
-155.066
0
LINE
8
BLACK
6
CONTINUOUS
10
118.547
20
-155.066
11
118.69
21
-155.637
0
LINE
8
BLACK
6
CONTINUOUS
10
118.69
20
-155.637
11
118.69
21
-156.352
0
LINE
8
BLACK
6
CONTINUOUS
10
118.69
20
-156.352
11
118.547
21
-156.923
0
LINE
8
BLACK
6
CONTINUOUS
10
118.547
20
-156.923
11
118.404
21
-157.209
0
LINE
8
BLACK
6
CONTINUOUS
10
118.404
20
-157.209
11
118.261
21
-157.352
0
LINE
8
BLACK
6
CONTINUOUS
10
118.261
20
-157.352
11
117.975
21
-157.494
0
LINE
8
BLACK
6
CONTINUOUS
10
117.975
20
-157.494
11
117.69
21
-157.494
0
LINE
8
BLACK
6
CONTINUOUS
10
117.69
20
-157.494
11
117.404
21
-157.352
0
LINE
8
BLACK
6
CONTINUOUS
10
117.404
20
-157.352
11
117.261
21
-157.209
0
LINE
8
BLACK
6
CONTINUOUS
10
117.261
20
-157.209
11
117.118
21
-156.923
0
LINE
8
BLACK
6
CONTINUOUS
10
117.118
20
-156.923
11
116.975
21
-156.352
0
LINE
8
BLACK
6
CONTINUOUS
10
116.975
20
-156.352
11
116.975
21
-155.637
0
LINE
8
BLACK
6
CONTINUOUS
10
116.975
20
-155.637
11
117.118
21
-155.066
0
LINE
8
BLACK
6
CONTINUOUS
10
117.118
20
-155.066
11
117.261
21
-154.78
0
LINE
8
BLACK
6
CONTINUOUS
10
117.261
20
-154.78
11
117.404
21
-154.637
0
LINE
8
BLACK
6
CONTINUOUS
10
117.404
20
-154.637
11
117.69
21
-154.494
0
LINE
8
BLACK
6
CONTINUOUS
10
119.833
20
-154.78
11
119.975
21
-154.637
0
LINE
8
BLACK
6
CONTINUOUS
10
119.975
20
-154.637
11
120.261
21
-154.494
0
LINE
8
BLACK
6
CONTINUOUS
10
120.261
20
-154.494
11
120.975
21
-154.494
0
LINE
8
BLACK
6
CONTINUOUS
10
120.975
20
-154.494
11
121.261
21
-154.637
0
LINE
8
BLACK
6
CONTINUOUS
10
121.261
20
-154.637
11
121.404
21
-154.78
0
LINE
8
BLACK
6
CONTINUOUS
10
121.404
20
-154.78
11
121.547
21
-155.066
0
LINE
8
BLACK
6
CONTINUOUS
10
121.547
20
-155.066
11
121.547
21
-155.352
0
LINE
8
BLACK
6
CONTINUOUS
10
121.547
20
-155.352
11
121.404
21
-155.78
0
LINE
8
BLACK
6
CONTINUOUS
10
121.404
20
-155.78
11
119.69
21
-157.494
0
LINE
8
BLACK
6
CONTINUOUS
10
119.69
20
-157.494
11
121.547
21
-157.494
0
LINE
8
BLACK
6
CONTINUOUS
10
123.261
20
-155.78
11
122.975
21
-155.637
0
LINE
8
BLACK
6
CONTINUOUS
10
122.975
20
-155.637
11
122.833
21
-155.494
0
LINE
8
BLACK
6
CONTINUOUS
10
122.833
20
-155.494
11
122.69
21
-155.209
0
LINE
8
BLACK
6
CONTINUOUS
10
122.69
20
-155.209
11
122.69
21
-155.066
0
LINE
8
BLACK
6
CONTINUOUS
10
122.69
20
-155.066
11
122.833
21
-154.78
0
LINE
8
BLACK
6
CONTINUOUS
10
122.833
20
-154.78
11
122.975
21
-154.637
0
LINE
8
BLACK
6
CONTINUOUS
10
122.975
20
-154.637
11
123.261
21
-154.494
0
LINE
8
BLACK
6
CONTINUOUS
10
123.261
20
-154.494
11
123.833
21
-154.494
0
LINE
8
BLACK
6
CONTINUOUS
10
123.833
20
-154.494
11
124.118
21
-154.637
0
LINE
8
BLACK
6
CONTINUOUS
10
124.118
20
-154.637
11
124.261
21
-154.78
0
LINE
8
BLACK
6
CONTINUOUS
10
124.261
20
-154.78
11
124.404
21
-155.066
0
LINE
8
BLACK
6
CONTINUOUS
10
124.404
20
-155.066
11
124.404
21
-155.209
0
LINE
8
BLACK
6
CONTINUOUS
10
124.404
20
-155.209
11
124.261
21
-155.494
0
LINE
8
BLACK
6
CONTINUOUS
10
124.261
20
-155.494
11
124.118
21
-155.637
0
LINE
8
BLACK
6
CONTINUOUS
10
124.118
20
-155.637
11
123.833
21
-155.78
0
LINE
8
BLACK
6
CONTINUOUS
10
123.833
20
-155.78
11
123.261
21
-155.78
0
LINE
8
BLACK
6
CONTINUOUS
10
123.261
20
-155.78
11
122.975
21
-155.923
0
LINE
8
BLACK
6
CONTINUOUS
10
122.975
20
-155.923
11
122.833
21
-156.066
0
LINE
8
BLACK
6
CONTINUOUS
10
122.833
20
-156.066
11
122.69
21
-156.352
0
LINE
8
BLACK
6
CONTINUOUS
10
122.69
20
-156.352
11
122.69
21
-156.923
0
LINE
8
BLACK
6
CONTINUOUS
10
122.69
20
-156.923
11
122.833
21
-157.209
0
LINE
8
BLACK
6
CONTINUOUS
10
122.833
20
-157.209
11
122.975
21
-157.352
0
LINE
8
BLACK
6
CONTINUOUS
10
122.975
20
-157.352
11
123.261
21
-157.494
0
LINE
8
BLACK
6
CONTINUOUS
10
123.261
20
-157.494
11
123.833
21
-157.494
0
LINE
8
BLACK
6
CONTINUOUS
10
123.833
20
-157.494
11
124.118
21
-157.352
0
LINE
8
BLACK
6
CONTINUOUS
10
124.118
20
-157.352
11
124.261
21
-157.209
0
LINE
8
BLACK
6
CONTINUOUS
10
124.261
20
-157.209
11
124.404
21
-156.923
0
LINE
8
BLACK
6
CONTINUOUS
10
124.404
20
-156.923
11
124.404
21
-156.352
0
LINE
8
BLACK
6
CONTINUOUS
10
124.404
20
-156.352
11
124.261
21
-156.066
0
LINE
8
BLACK
6
CONTINUOUS
10
124.261
20
-156.066
11
124.118
21
-155.923
0
LINE
8
BLACK
6
CONTINUOUS
10
124.118
20
-155.923
11
123.833
21
-155.78
0
LINE
8
BLACK
6
CONTINUOUS
10
125.547
20
-154.494
11
125.547
21
-155.066
0
LINE
8
BLACK
6
CONTINUOUS
10
126.69
20
-154.494
11
126.69
21
-155.066
0
LINE
8
BLACK
6
CONTINUOUS
10
131.118
20
-158.637
11
130.975
21
-158.494
0
LINE
8
BLACK
6
CONTINUOUS
10
130.975
20
-158.494
11
130.69
21
-158.066
0
LINE
8
BLACK
6
CONTINUOUS
10
130.69
20
-158.066
11
130.547
21
-157.78
0
LINE
8
BLACK
6
CONTINUOUS
10
130.547
20
-157.78
11
130.404
21
-157.352
0
LINE
8
BLACK
6
CONTINUOUS
10
130.404
20
-157.352
11
130.261
21
-156.637
0
LINE
8
BLACK
6
CONTINUOUS
10
130.261
20
-156.637
11
130.261
21
-156.066
0
LINE
8
BLACK
6
CONTINUOUS
10
130.261
20
-156.066
11
130.404
21
-155.352
0
LINE
8
BLACK
6
CONTINUOUS
10
130.404
20
-155.352
11
130.547
21
-154.923
0
LINE
8
BLACK
6
CONTINUOUS
10
130.547
20
-154.923
11
130.69
21
-154.637
0
LINE
8
BLACK
6
CONTINUOUS
10
130.69
20
-154.637
11
130.975
21
-154.209
0
LINE
8
BLACK
6
CONTINUOUS
10
130.975
20
-154.209
11
131.118
21
-154.066
0
LINE
8
BLACK
6
CONTINUOUS
10
133.547
20
-155.494
11
133.547
21
-157.494
0
LINE
8
BLACK
6
CONTINUOUS
10
132.833
20
-154.352
11
132.118
21
-156.494
0
LINE
8
BLACK
6
CONTINUOUS
10
132.118
20
-156.494
11
133.975
21
-156.494
0
LINE
8
BLACK
6
CONTINUOUS
10
137.404
20
-157.494
11
137.404
21
-154.494
0
LINE
8
BLACK
6
CONTINUOUS
10
138.69
20
-157.494
11
138.69
21
-155.923
0
LINE
8
BLACK
6
CONTINUOUS
10
138.69
20
-155.923
11
138.547
21
-155.637
0
LINE
8
BLACK
6
CONTINUOUS
10
138.547
20
-155.637
11
138.261
21
-155.494
0
LINE
8
BLACK
6
CONTINUOUS
10
138.261
20
-155.494
11
137.833
21
-155.494
0
LINE
8
BLACK
6
CONTINUOUS
10
137.833
20
-155.494
11
137.547
21
-155.637
0
LINE
8
BLACK
6
CONTINUOUS
10
137.547
20
-155.637
11
137.404
21
-155.78
0
LINE
8
BLACK
6
CONTINUOUS
10
140.547
20
-157.494
11
140.261
21
-157.352
0
LINE
8
BLACK
6
CONTINUOUS
10
140.261
20
-157.352
11
140.118
21
-157.209
0
LINE
8
BLACK
6
CONTINUOUS
10
140.118
20
-157.209
11
139.975
21
-156.923
0
LINE
8
BLACK
6
CONTINUOUS
10
139.975
20
-156.923
11
139.975
21
-156.066
0
LINE
8
BLACK
6
CONTINUOUS
10
139.975
20
-156.066
11
140.118
21
-155.78
0
LINE
8
BLACK
6
CONTINUOUS
10
140.118
20
-155.78
11
140.261
21
-155.637
0
LINE
8
BLACK
6
CONTINUOUS
10
140.261
20
-155.637
11
140.547
21
-155.494
0
LINE
8
BLACK
6
CONTINUOUS
10
140.547
20
-155.494
11
140.975
21
-155.494
0
LINE
8
BLACK
6
CONTINUOUS
10
140.975
20
-155.494
11
141.261
21
-155.637
0
LINE
8
BLACK
6
CONTINUOUS
10
141.261
20
-155.637
11
141.404
21
-155.78
0
LINE
8
BLACK
6
CONTINUOUS
10
141.404
20
-155.78
11
141.547
21
-156.066
0
LINE
8
BLACK
6
CONTINUOUS
10
141.547
20
-156.066
11
141.547
21
-156.923
0
LINE
8
BLACK
6
CONTINUOUS
10
141.547
20
-156.923
11
141.404
21
-157.209
0
LINE
8
BLACK
6
CONTINUOUS
10
141.404
20
-157.209
11
141.261
21
-157.352
0
LINE
8
BLACK
6
CONTINUOUS
10
141.261
20
-157.352
11
140.975
21
-157.494
0
LINE
8
BLACK
6
CONTINUOUS
10
140.975
20
-157.494
11
140.547
21
-157.494
0
LINE
8
BLACK
6
CONTINUOUS
10
143.261
20
-157.494
11
142.975
21
-157.352
0
LINE
8
BLACK
6
CONTINUOUS
10
142.975
20
-157.352
11
142.833
21
-157.066
0
LINE
8
BLACK
6
CONTINUOUS
10
142.833
20
-157.066
11
142.833
21
-154.494
0
LINE
8
BLACK
6
CONTINUOUS
10
145.547
20
-157.352
11
145.261
21
-157.494
0
LINE
8
BLACK
6
CONTINUOUS
10
145.261
20
-157.494
11
144.69
21
-157.494
0
LINE
8
BLACK
6
CONTINUOUS
10
144.69
20
-157.494
11
144.404
21
-157.352
0
LINE
8
BLACK
6
CONTINUOUS
10
144.404
20
-157.352
11
144.261
21
-157.066
0
LINE
8
BLACK
6
CONTINUOUS
10
144.261
20
-157.066
11
144.261
21
-155.923
0
LINE
8
BLACK
6
CONTINUOUS
10
144.261
20
-155.923
11
144.404
21
-155.637
0
LINE
8
BLACK
6
CONTINUOUS
10
144.404
20
-155.637
11
144.69
21
-155.494
0
LINE
8
BLACK
6
CONTINUOUS
10
144.69
20
-155.494
11
145.261
21
-155.494
0
LINE
8
BLACK
6
CONTINUOUS
10
145.261
20
-155.494
11
145.547
21
-155.637
0
LINE
8
BLACK
6
CONTINUOUS
10
145.547
20
-155.637
11
145.69
21
-155.923
0
LINE
8
BLACK
6
CONTINUOUS
10
145.69
20
-155.923
11
145.69
21
-156.209
0
LINE
8
BLACK
6
CONTINUOUS
10
145.69
20
-156.209
11
144.261
21
-156.494
0
LINE
8
BLACK
6
CONTINUOUS
10
146.833
20
-157.352
11
147.118
21
-157.494
0
LINE
8
BLACK
6
CONTINUOUS
10
147.118
20
-157.494
11
147.69
21
-157.494
0
LINE
8
BLACK
6
CONTINUOUS
10
147.69
20
-157.494
11
147.975
21
-157.352
0
LINE
8
BLACK
6
CONTINUOUS
10
147.975
20
-157.352
11
148.118
21
-157.066
0
LINE
8
BLACK
6
CONTINUOUS
10
148.118
20
-157.066
11
148.118
21
-156.923
0
LINE
8
BLACK
6
CONTINUOUS
10
148.118
20
-156.923
11
147.975
21
-156.637
0
LINE
8
BLACK
6
CONTINUOUS
10
147.975
20
-156.637
11
147.69
21
-156.494
0
LINE
8
BLACK
6
CONTINUOUS
10
147.69
20
-156.494
11
147.261
21
-156.494
0
LINE
8
BLACK
6
CONTINUOUS
10
147.261
20
-156.494
11
146.975
21
-156.352
0
LINE
8
BLACK
6
CONTINUOUS
10
146.975
20
-156.352
11
146.833
21
-156.066
0
LINE
8
BLACK
6
CONTINUOUS
10
146.833
20
-156.066
11
146.833
21
-155.923
0
LINE
8
BLACK
6
CONTINUOUS
10
146.833
20
-155.923
11
146.975
21
-155.637
0
LINE
8
BLACK
6
CONTINUOUS
10
146.975
20
-155.637
11
147.261
21
-155.494
0
LINE
8
BLACK
6
CONTINUOUS
10
147.261
20
-155.494
11
147.69
21
-155.494
0
LINE
8
BLACK
6
CONTINUOUS
10
147.69
20
-155.494
11
147.975
21
-155.637
0
LINE
8
BLACK
6
CONTINUOUS
10
149.118
20
-158.637
11
149.261
21
-158.494
0
LINE
8
BLACK
6
CONTINUOUS
10
149.261
20
-158.494
11
149.547
21
-158.066
0
LINE
8
BLACK
6
CONTINUOUS
10
149.547
20
-158.066
11
149.69
21
-157.78
0
LINE
8
BLACK
6
CONTINUOUS
10
149.69
20
-157.78
11
149.833
21
-157.352
0
LINE
8
BLACK
6
CONTINUOUS
10
149.833
20
-157.352
11
149.975
21
-156.637
0
LINE
8
BLACK
6
CONTINUOUS
10
149.975
20
-156.637
11
149.975
21
-156.066
0
LINE
8
BLACK
6
CONTINUOUS
10
149.975
20
-156.066
11
149.833
21
-155.352
0
LINE
8
BLACK
6
CONTINUOUS
10
149.833
20
-155.352
11
149.69
21
-154.923
0
LINE
8
BLACK
6
CONTINUOUS
10
149.69
20
-154.923
11
149.547
21
-154.637
0
LINE
8
BLACK
6
CONTINUOUS
10
149.547
20
-154.637
11
149.261
21
-154.209
0
LINE
8
BLACK
6
CONTINUOUS
10
149.261
20
-154.209
11
149.118
21
-154.066
0
CIRCLE
8
BLACK
10
83.873
20
-160.097
40
0.381
0
LINE
8
BLACK
6
CONTINUOUS
10
87.6897
20
-158.454
11
87.9754
21
-158.454
0
LINE
8
BLACK
6
CONTINUOUS
10
87.9754
20
-158.454
11
88.2611
21
-158.597
0
LINE
8
BLACK
6
CONTINUOUS
10
88.2611
20
-158.597
11
88.404
21
-158.74
0
LINE
8
BLACK
6
CONTINUOUS
10
88.404
20
-158.74
11
88.5468
21
-159.026
0
LINE
8
BLACK
6
CONTINUOUS
10
88.5468
20
-159.026
11
88.6897
21
-159.597
0
LINE
8
BLACK
6
CONTINUOUS
10
88.6897
20
-159.597
11
88.6897
21
-160.312
0
LINE
8
BLACK
6
CONTINUOUS
10
88.6897
20
-160.312
11
88.5468
21
-160.883
0
LINE
8
BLACK
6
CONTINUOUS
10
88.5468
20
-160.883
11
88.404
21
-161.169
0
LINE
8
BLACK
6
CONTINUOUS
10
88.404
20
-161.169
11
88.2611
21
-161.312
0
LINE
8
BLACK
6
CONTINUOUS
10
88.2611
20
-161.312
11
87.9754
21
-161.454
0
LINE
8
BLACK
6
CONTINUOUS
10
87.9754
20
-161.454
11
87.6897
21
-161.454
0
LINE
8
BLACK
6
CONTINUOUS
10
87.6897
20
-161.454
11
87.404
21
-161.312
0
LINE
8
BLACK
6
CONTINUOUS
10
87.404
20
-161.312
11
87.2611
21
-161.169
0
LINE
8
BLACK
6
CONTINUOUS
10
87.2611
20
-161.169
11
87.1183
21
-160.883
0
LINE
8
BLACK
6
CONTINUOUS
10
87.1183
20
-160.883
11
86.9754
21
-160.312
0
LINE
8
BLACK
6
CONTINUOUS
10
86.9754
20
-160.312
11
86.9754
21
-159.597
0
LINE
8
BLACK
6
CONTINUOUS
10
86.9754
20
-159.597
11
87.1183
21
-159.026
0
LINE
8
BLACK
6
CONTINUOUS
10
87.1183
20
-159.026
11
87.2611
21
-158.74
0
LINE
8
BLACK
6
CONTINUOUS
10
87.2611
20
-158.74
11
87.404
21
-158.597
0
LINE
8
BLACK
6
CONTINUOUS
10
87.404
20
-158.597
11
87.6897
21
-158.454
0
LINE
8
BLACK
6
CONTINUOUS
10
89.9754
20
-161.169
11
90.1183
21
-161.312
0
LINE
8
BLACK
6
CONTINUOUS
10
90.1183
20
-161.312
11
89.9754
21
-161.454
0
LINE
8
BLACK
6
CONTINUOUS
10
89.9754
20
-161.454
11
89.8325
21
-161.312
0
LINE
8
BLACK
6
CONTINUOUS
10
89.8325
20
-161.312
11
89.9754
21
-161.169
0
LINE
8
BLACK
6
CONTINUOUS
10
89.9754
20
-161.169
11
89.9754
21
-161.454
0
LINE
8
BLACK
6
CONTINUOUS
10
91.1183
20
-158.454
11
93.1183
21
-158.454
0
LINE
8
BLACK
6
CONTINUOUS
10
93.1183
20
-158.454
11
91.8325
21
-161.454
0
LINE
8
BLACK
6
CONTINUOUS
10
95.5468
20
-158.454
11
94.9754
21
-158.454
0
LINE
8
BLACK
6
CONTINUOUS
10
94.9754
20
-158.454
11
94.6897
21
-158.597
0
LINE
8
BLACK
6
CONTINUOUS
10
94.6897
20
-158.597
11
94.5468
21
-158.74
0
LINE
8
BLACK
6
CONTINUOUS
10
94.5468
20
-158.74
11
94.2611
21
-159.169
0
LINE
8
BLACK
6
CONTINUOUS
10
94.2611
20
-159.169
11
94.1183
21
-159.74
0
LINE
8
BLACK
6
CONTINUOUS
10
94.1183
20
-159.74
11
94.1183
21
-160.883
0
LINE
8
BLACK
6
CONTINUOUS
10
94.1183
20
-160.883
11
94.2611
21
-161.169
0
LINE
8
BLACK
6
CONTINUOUS
10
94.2611
20
-161.169
11
94.404
21
-161.312
0
LINE
8
BLACK
6
CONTINUOUS
10
94.404
20
-161.312
11
94.6897
21
-161.454
0
LINE
8
BLACK
6
CONTINUOUS
10
94.6897
20
-161.454
11
95.2611
21
-161.454
0
LINE
8
BLACK
6
CONTINUOUS
10
95.2611
20
-161.454
11
95.5468
21
-161.312
0
LINE
8
BLACK
6
CONTINUOUS
10
95.5468
20
-161.312
11
95.6897
21
-161.169
0
LINE
8
BLACK
6
CONTINUOUS
10
95.6897
20
-161.169
11
95.8325
21
-160.883
0
LINE
8
BLACK
6
CONTINUOUS
10
95.8325
20
-160.883
11
95.8325
21
-160.169
0
LINE
8
BLACK
6
CONTINUOUS
10
95.8325
20
-160.169
11
95.6897
21
-159.883
0
LINE
8
BLACK
6
CONTINUOUS
10
95.6897
20
-159.883
11
95.5468
21
-159.74
0
LINE
8
BLACK
6
CONTINUOUS
10
95.5468
20
-159.74
11
95.2611
21
-159.597
0
LINE
8
BLACK
6
CONTINUOUS
10
95.2611
20
-159.597
11
94.6897
21
-159.597
0
LINE
8
BLACK
6
CONTINUOUS
10
94.6897
20
-159.597
11
94.404
21
-159.74
0
LINE
8
BLACK
6
CONTINUOUS
10
94.404
20
-159.74
11
94.2611
21
-159.883
0
LINE
8
BLACK
6
CONTINUOUS
10
94.2611
20
-159.883
11
94.1183
21
-160.169
0
LINE
8
BLACK
6
CONTINUOUS
10
97.1183
20
-161.454
11
97.1183
21
-159.454
0
LINE
8
BLACK
6
CONTINUOUS
10
97.1183
20
-159.74
11
97.2611
21
-159.597
0
LINE
8
BLACK
6
CONTINUOUS
10
97.2611
20
-159.597
11
97.5468
21
-159.454
0
LINE
8
BLACK
6
CONTINUOUS
10
97.5468
20
-159.454
11
97.9754
21
-159.454
0
LINE
8
BLACK
6
CONTINUOUS
10
97.9754
20
-159.454
11
98.2611
21
-159.597
0
LINE
8
BLACK
6
CONTINUOUS
10
98.2611
20
-159.597
11
98.404
21
-159.883
0
LINE
8
BLACK
6
CONTINUOUS
10
98.404
20
-159.883
11
98.404
21
-161.454
0
LINE
8
BLACK
6
CONTINUOUS
10
98.404
20
-159.883
11
98.5468
21
-159.597
0
LINE
8
BLACK
6
CONTINUOUS
10
98.5468
20
-159.597
11
98.8325
21
-159.454
0
LINE
8
BLACK
6
CONTINUOUS
10
98.8325
20
-159.454
11
99.2611
21
-159.454
0
LINE
8
BLACK
6
CONTINUOUS
10
99.2611
20
-159.454
11
99.5468
21
-159.597
0
LINE
8
BLACK
6
CONTINUOUS
10
99.5468
20
-159.597
11
99.6897
21
-159.883
0
LINE
8
BLACK
6
CONTINUOUS
10
99.6897
20
-159.883
11
99.6897
21
-161.454
0
LINE
8
BLACK
6
CONTINUOUS
10
101.118
20
-161.454
11
101.118
21
-159.454
0
LINE
8
BLACK
6
CONTINUOUS
10
101.118
20
-159.74
11
101.261
21
-159.597
0
LINE
8
BLACK
6
CONTINUOUS
10
101.261
20
-159.597
11
101.547
21
-159.454
0
LINE
8
BLACK
6
CONTINUOUS
10
101.547
20
-159.454
11
101.975
21
-159.454
0
LINE
8
BLACK
6
CONTINUOUS
10
101.975
20
-159.454
11
102.261
21
-159.597
0
LINE
8
BLACK
6
CONTINUOUS
10
102.261
20
-159.597
11
102.404
21
-159.883
0
LINE
8
BLACK
6
CONTINUOUS
10
102.404
20
-159.883
11
102.404
21
-161.454
0
LINE
8
BLACK
6
CONTINUOUS
10
102.404
20
-159.883
11
102.547
21
-159.597
0
LINE
8
BLACK
6
CONTINUOUS
10
102.547
20
-159.597
11
102.833
21
-159.454
0
LINE
8
BLACK
6
CONTINUOUS
10
102.833
20
-159.454
11
103.261
21
-159.454
0
LINE
8
BLACK
6
CONTINUOUS
10
103.261
20
-159.454
11
103.547
21
-159.597
0
LINE
8
BLACK
6
CONTINUOUS
10
103.547
20
-159.597
11
103.69
21
-159.883
0
LINE
8
BLACK
6
CONTINUOUS
10
103.69
20
-159.883
11
103.69
21
-161.454
0
LINE
8
BLACK
6
CONTINUOUS
10
109.547
20
-158.312
11
106.975
21
-162.169
0
LINE
8
BLACK
6
CONTINUOUS
10
113.404
20
-158.454
11
113.69
21
-158.454
0
LINE
8
BLACK
6
CONTINUOUS
10
113.69
20
-158.454
11
113.975
21
-158.597
0
LINE
8
BLACK
6
CONTINUOUS
10
113.975
20
-158.597
11
114.118
21
-158.74
0
LINE
8
BLACK
6
CONTINUOUS
10
114.118
20
-158.74
11
114.261
21
-159.026
0
LINE
8
BLACK
6
CONTINUOUS
10
114.261
20
-159.026
11
114.404
21
-159.597
0
LINE
8
BLACK
6
CONTINUOUS
10
114.404
20
-159.597
11
114.404
21
-160.312
0
LINE
8
BLACK
6
CONTINUOUS
10
114.404
20
-160.312
11
114.261
21
-160.883
0
LINE
8
BLACK
6
CONTINUOUS
10
114.261
20
-160.883
11
114.118
21
-161.169
0
LINE
8
BLACK
6
CONTINUOUS
10
114.118
20
-161.169
11
113.975
21
-161.312
0
LINE
8
BLACK
6
CONTINUOUS
10
113.975
20
-161.312
11
113.69
21
-161.454
0
LINE
8
BLACK
6
CONTINUOUS
10
113.69
20
-161.454
11
113.404
21
-161.454
0
LINE
8
BLACK
6
CONTINUOUS
10
113.404
20
-161.454
11
113.118
21
-161.312
0
LINE
8
BLACK
6
CONTINUOUS
10
113.118
20
-161.312
11
112.975
21
-161.169
0
LINE
8
BLACK
6
CONTINUOUS
10
112.975
20
-161.169
11
112.833
21
-160.883
0
LINE
8
BLACK
6
CONTINUOUS
10
112.833
20
-160.883
11
112.69
21
-160.312
0
LINE
8
BLACK
6
CONTINUOUS
10
112.69
20
-160.312
11
112.69
21
-159.597
0
LINE
8
BLACK
6
CONTINUOUS
10
112.69
20
-159.597
11
112.833
21
-159.026
0
LINE
8
BLACK
6
CONTINUOUS
10
112.833
20
-159.026
11
112.975
21
-158.74
0
LINE
8
BLACK
6
CONTINUOUS
10
112.975
20
-158.74
11
113.118
21
-158.597
0
LINE
8
BLACK
6
CONTINUOUS
10
113.118
20
-158.597
11
113.404
21
-158.454
0
LINE
8
BLACK
6
CONTINUOUS
10
115.69
20
-161.169
11
115.833
21
-161.312
0
LINE
8
BLACK
6
CONTINUOUS
10
115.833
20
-161.312
11
115.69
21
-161.454
0
LINE
8
BLACK
6
CONTINUOUS
10
115.69
20
-161.454
11
115.547
21
-161.312
0
LINE
8
BLACK
6
CONTINUOUS
10
115.547
20
-161.312
11
115.69
21
-161.169
0
LINE
8
BLACK
6
CONTINUOUS
10
115.69
20
-161.169
11
115.69
21
-161.454
0
LINE
8
BLACK
6
CONTINUOUS
10
117.69
20
-158.454
11
117.975
21
-158.454
0
LINE
8
BLACK
6
CONTINUOUS
10
117.975
20
-158.454
11
118.261
21
-158.597
0
LINE
8
BLACK
6
CONTINUOUS
10
118.261
20
-158.597
11
118.404
21
-158.74
0
LINE
8
BLACK
6
CONTINUOUS
10
118.404
20
-158.74
11
118.547
21
-159.026
0
LINE
8
BLACK
6
CONTINUOUS
10
118.547
20
-159.026
11
118.69
21
-159.597
0
LINE
8
BLACK
6
CONTINUOUS
10
118.69
20
-159.597
11
118.69
21
-160.312
0
LINE
8
BLACK
6
CONTINUOUS
10
118.69
20
-160.312
11
118.547
21
-160.883
0
LINE
8
BLACK
6
CONTINUOUS
10
118.547
20
-160.883
11
118.404
21
-161.169
0
LINE
8
BLACK
6
CONTINUOUS
10
118.404
20
-161.169
11
118.261
21
-161.312
0
LINE
8
BLACK
6
CONTINUOUS
10
118.261
20
-161.312
11
117.975
21
-161.454
0
LINE
8
BLACK
6
CONTINUOUS
10
117.975
20
-161.454
11
117.69
21
-161.454
0
LINE
8
BLACK
6
CONTINUOUS
10
117.69
20
-161.454
11
117.404
21
-161.312
0
LINE
8
BLACK
6
CONTINUOUS
10
117.404
20
-161.312
11
117.261
21
-161.169
0
LINE
8
BLACK
6
CONTINUOUS
10
117.261
20
-161.169
11
117.118
21
-160.883
0
LINE
8
BLACK
6
CONTINUOUS
10
117.118
20
-160.883
11
116.975
21
-160.312
0
LINE
8
BLACK
6
CONTINUOUS
10
116.975
20
-160.312
11
116.975
21
-159.597
0
LINE
8
BLACK
6
CONTINUOUS
10
116.975
20
-159.597
11
117.118
21
-159.026
0
LINE
8
BLACK
6
CONTINUOUS
10
117.118
20
-159.026
11
117.261
21
-158.74
0
LINE
8
BLACK
6
CONTINUOUS
10
117.261
20
-158.74
11
117.404
21
-158.597
0
LINE
8
BLACK
6
CONTINUOUS
10
117.404
20
-158.597
11
117.69
21
-158.454
0
LINE
8
BLACK
6
CONTINUOUS
10
119.69
20
-158.454
11
121.547
21
-158.454
0
LINE
8
BLACK
6
CONTINUOUS
10
121.547
20
-158.454
11
120.547
21
-159.597
0
LINE
8
BLACK
6
CONTINUOUS
10
120.547
20
-159.597
11
120.975
21
-159.597
0
LINE
8
BLACK
6
CONTINUOUS
10
120.975
20
-159.597
11
121.261
21
-159.74
0
LINE
8
BLACK
6
CONTINUOUS
10
121.261
20
-159.74
11
121.404
21
-159.883
0
LINE
8
BLACK
6
CONTINUOUS
10
121.404
20
-159.883
11
121.547
21
-160.169
0
LINE
8
BLACK
6
CONTINUOUS
10
121.547
20
-160.169
11
121.547
21
-160.883
0
LINE
8
BLACK
6
CONTINUOUS
10
121.547
20
-160.883
11
121.404
21
-161.169
0
LINE
8
BLACK
6
CONTINUOUS
10
121.404
20
-161.169
11
121.261
21
-161.312
0
LINE
8
BLACK
6
CONTINUOUS
10
121.261
20
-161.312
11
120.975
21
-161.454
0
LINE
8
BLACK
6
CONTINUOUS
10
120.975
20
-161.454
11
120.118
21
-161.454
0
LINE
8
BLACK
6
CONTINUOUS
10
120.118
20
-161.454
11
119.833
21
-161.312
0
LINE
8
BLACK
6
CONTINUOUS
10
119.833
20
-161.312
11
119.69
21
-161.169
0
LINE
8
BLACK
6
CONTINUOUS
10
123.404
20
-158.454
11
123.69
21
-158.454
0
LINE
8
BLACK
6
CONTINUOUS
10
123.69
20
-158.454
11
123.975
21
-158.597
0
LINE
8
BLACK
6
CONTINUOUS
10
123.975
20
-158.597
11
124.118
21
-158.74
0
LINE
8
BLACK
6
CONTINUOUS
10
124.118
20
-158.74
11
124.261
21
-159.026
0
LINE
8
BLACK
6
CONTINUOUS
10
124.261
20
-159.026
11
124.404
21
-159.597
0
LINE
8
BLACK
6
CONTINUOUS
10
124.404
20
-159.597
11
124.404
21
-160.312
0
LINE
8
BLACK
6
CONTINUOUS
10
124.404
20
-160.312
11
124.261
21
-160.883
0
LINE
8
BLACK
6
CONTINUOUS
10
124.261
20
-160.883
11
124.118
21
-161.169
0
LINE
8
BLACK
6
CONTINUOUS
10
124.118
20
-161.169
11
123.975
21
-161.312
0
LINE
8
BLACK
6
CONTINUOUS
10
123.975
20
-161.312
11
123.69
21
-161.454
0
LINE
8
BLACK
6
CONTINUOUS
10
123.69
20
-161.454
11
123.404
21
-161.454
0
LINE
8
BLACK
6
CONTINUOUS
10
123.404
20
-161.454
11
123.118
21
-161.312
0
LINE
8
BLACK
6
CONTINUOUS
10
123.118
20
-161.312
11
122.975
21
-161.169
0
LINE
8
BLACK
6
CONTINUOUS
10
122.975
20
-161.169
11
122.833
21
-160.883
0
LINE
8
BLACK
6
CONTINUOUS
10
122.833
20
-160.883
11
122.69
21
-160.312
0
LINE
8
BLACK
6
CONTINUOUS
10
122.69
20
-160.312
11
122.69
21
-159.597
0
LINE
8
BLACK
6
CONTINUOUS
10
122.69
20
-159.597
11
122.833
21
-159.026
0
LINE
8
BLACK
6
CONTINUOUS
10
122.833
20
-159.026
11
122.975
21
-158.74
0
LINE
8
BLACK
6
CONTINUOUS
10
122.975
20
-158.74
11
123.118
21
-158.597
0
LINE
8
BLACK
6
CONTINUOUS
10
123.118
20
-158.597
11
123.404
21
-158.454
0
LINE
8
BLACK
6
CONTINUOUS
10
125.547
20
-158.454
11
125.547
21
-159.026
0
LINE
8
BLACK
6
CONTINUOUS
10
126.69
20
-158.454
11
126.69
21
-159.026
0
LINE
8
BLACK
6
CONTINUOUS
10
131.118
20
-162.597
11
130.975
21
-162.454
0
LINE
8
BLACK
6
CONTINUOUS
10
130.975
20
-162.454
11
130.69
21
-162.026
0
LINE
8
BLACK
6
CONTINUOUS
10
130.69
20
-162.026
11
130.547
21
-161.74
0
LINE
8
BLACK
6
CONTINUOUS
10
130.547
20
-161.74
11
130.404
21
-161.312
0
LINE
8
BLACK
6
CONTINUOUS
10
130.404
20
-161.312
11
130.261
21
-160.597
0
LINE
8
BLACK
6
CONTINUOUS
10
130.261
20
-160.597
11
130.261
21
-160.026
0
LINE
8
BLACK
6
CONTINUOUS
10
130.261
20
-160.026
11
130.404
21
-159.312
0
LINE
8
BLACK
6
CONTINUOUS
10
130.404
20
-159.312
11
130.547
21
-158.883
0
LINE
8
BLACK
6
CONTINUOUS
10
130.547
20
-158.883
11
130.69
21
-158.597
0
LINE
8
BLACK
6
CONTINUOUS
10
130.69
20
-158.597
11
130.975
21
-158.169
0
LINE
8
BLACK
6
CONTINUOUS
10
130.975
20
-158.169
11
131.118
21
-158.026
0
LINE
8
BLACK
6
CONTINUOUS
10
133.833
20
-161.454
11
132.118
21
-161.454
0
LINE
8
BLACK
6
CONTINUOUS
10
132.975
20
-161.454
11
132.975
21
-158.454
0
LINE
8
BLACK
6
CONTINUOUS
10
132.975
20
-158.454
11
132.69
21
-158.883
0
LINE
8
BLACK
6
CONTINUOUS
10
132.69
20
-158.883
11
132.404
21
-159.169
0
LINE
8
BLACK
6
CONTINUOUS
10
132.404
20
-159.169
11
132.118
21
-159.312
0
LINE
8
BLACK
6
CONTINUOUS
10
135.69
20
-158.454
11
135.975
21
-158.454
0
LINE
8
BLACK
6
CONTINUOUS
10
135.975
20
-158.454
11
136.261
21
-158.597
0
LINE
8
BLACK
6
CONTINUOUS
10
136.261
20
-158.597
11
136.404
21
-158.74
0
LINE
8
BLACK
6
CONTINUOUS
10
136.404
20
-158.74
11
136.547
21
-159.026
0
LINE
8
BLACK
6
CONTINUOUS
10
136.547
20
-159.026
11
136.69
21
-159.597
0
LINE
8
BLACK
6
CONTINUOUS
10
136.69
20
-159.597
11
136.69
21
-160.312
0
LINE
8
BLACK
6
CONTINUOUS
10
136.69
20
-160.312
11
136.547
21
-160.883
0
LINE
8
BLACK
6
CONTINUOUS
10
136.547
20
-160.883
11
136.404
21
-161.169
0
LINE
8
BLACK
6
CONTINUOUS
10
136.404
20
-161.169
11
136.261
21
-161.312
0
LINE
8
BLACK
6
CONTINUOUS
10
136.261
20
-161.312
11
135.975
21
-161.454
0
LINE
8
BLACK
6
CONTINUOUS
10
135.975
20
-161.454
11
135.69
21
-161.454
0
LINE
8
BLACK
6
CONTINUOUS
10
135.69
20
-161.454
11
135.404
21
-161.312
0
LINE
8
BLACK
6
CONTINUOUS
10
135.404
20
-161.312
11
135.261
21
-161.169
0
LINE
8
BLACK
6
CONTINUOUS
10
135.261
20
-161.169
11
135.118
21
-160.883
0
LINE
8
BLACK
6
CONTINUOUS
10
135.118
20
-160.883
11
134.975
21
-160.312
0
LINE
8
BLACK
6
CONTINUOUS
10
134.975
20
-160.312
11
134.975
21
-159.597
0
LINE
8
BLACK
6
CONTINUOUS
10
134.975
20
-159.597
11
135.118
21
-159.026
0
LINE
8
BLACK
6
CONTINUOUS
10
135.118
20
-159.026
11
135.261
21
-158.74
0
LINE
8
BLACK
6
CONTINUOUS
10
135.261
20
-158.74
11
135.404
21
-158.597
0
LINE
8
BLACK
6
CONTINUOUS
10
135.404
20
-158.597
11
135.69
21
-158.454
0
LINE
8
BLACK
6
CONTINUOUS
10
140.261
20
-161.454
11
140.261
21
-158.454
0
LINE
8
BLACK
6
CONTINUOUS
10
141.547
20
-161.454
11
141.547
21
-159.883
0
LINE
8
BLACK
6
CONTINUOUS
10
141.547
20
-159.883
11
141.404
21
-159.597
0
LINE
8
BLACK
6
CONTINUOUS
10
141.404
20
-159.597
11
141.118
21
-159.454
0
LINE
8
BLACK
6
CONTINUOUS
10
141.118
20
-159.454
11
140.69
21
-159.454
0
LINE
8
BLACK
6
CONTINUOUS
10
140.69
20
-159.454
11
140.404
21
-159.597
0
LINE
8
BLACK
6
CONTINUOUS
10
140.404
20
-159.597
11
140.261
21
-159.74
0
LINE
8
BLACK
6
CONTINUOUS
10
143.404
20
-161.454
11
143.118
21
-161.312
0
LINE
8
BLACK
6
CONTINUOUS
10
143.118
20
-161.312
11
142.975
21
-161.169
0
LINE
8
BLACK
6
CONTINUOUS
10
142.975
20
-161.169
11
142.833
21
-160.883
0
LINE
8
BLACK
6
CONTINUOUS
10
142.833
20
-160.883
11
142.833
21
-160.026
0
LINE
8
BLACK
6
CONTINUOUS
10
142.833
20
-160.026
11
142.975
21
-159.74
0
LINE
8
BLACK
6
CONTINUOUS
10
142.975
20
-159.74
11
143.118
21
-159.597
0
LINE
8
BLACK
6
CONTINUOUS
10
143.118
20
-159.597
11
143.404
21
-159.454
0
LINE
8
BLACK
6
CONTINUOUS
10
143.404
20
-159.454
11
143.833
21
-159.454
0
LINE
8
BLACK
6
CONTINUOUS
10
143.833
20
-159.454
11
144.118
21
-159.597
0
LINE
8
BLACK
6
CONTINUOUS
10
144.118
20
-159.597
11
144.261
21
-159.74
0
LINE
8
BLACK
6
CONTINUOUS
10
144.261
20
-159.74
11
144.404
21
-160.026
0
LINE
8
BLACK
6
CONTINUOUS
10
144.404
20
-160.026
11
144.404
21
-160.883
0
LINE
8
BLACK
6
CONTINUOUS
10
144.404
20
-160.883
11
144.261
21
-161.169
0
LINE
8
BLACK
6
CONTINUOUS
10
144.261
20
-161.169
11
144.118
21
-161.312
0
LINE
8
BLACK
6
CONTINUOUS
10
144.118
20
-161.312
11
143.833
21
-161.454
0
LINE
8
BLACK
6
CONTINUOUS
10
143.833
20
-161.454
11
143.404
21
-161.454
0
LINE
8
BLACK
6
CONTINUOUS
10
146.118
20
-161.454
11
145.833
21
-161.312
0
LINE
8
BLACK
6
CONTINUOUS
10
145.833
20
-161.312
11
145.69
21
-161.026
0
LINE
8
BLACK
6
CONTINUOUS
10
145.69
20
-161.026
11
145.69
21
-158.454
0
LINE
8
BLACK
6
CONTINUOUS
10
148.404
20
-161.312
11
148.118
21
-161.454
0
LINE
8
BLACK
6
CONTINUOUS
10
148.118
20
-161.454
11
147.547
21
-161.454
0
LINE
8
BLACK
6
CONTINUOUS
10
147.547
20
-161.454
11
147.261
21
-161.312
0
LINE
8
BLACK
6
CONTINUOUS
10
147.261
20
-161.312
11
147.118
21
-161.026
0
LINE
8
BLACK
6
CONTINUOUS
10
147.118
20
-161.026
11
147.118
21
-159.883
0
LINE
8
BLACK
6
CONTINUOUS
10
147.118
20
-159.883
11
147.261
21
-159.597
0
LINE
8
BLACK
6
CONTINUOUS
10
147.261
20
-159.597
11
147.547
21
-159.454
0
LINE
8
BLACK
6
CONTINUOUS
10
147.547
20
-159.454
11
148.118
21
-159.454
0
LINE
8
BLACK
6
CONTINUOUS
10
148.118
20
-159.454
11
148.404
21
-159.597
0
LINE
8
BLACK
6
CONTINUOUS
10
148.404
20
-159.597
11
148.547
21
-159.883
0
LINE
8
BLACK
6
CONTINUOUS
10
148.547
20
-159.883
11
148.547
21
-160.169
0
LINE
8
BLACK
6
CONTINUOUS
10
148.547
20
-160.169
11
147.118
21
-160.454
0
LINE
8
BLACK
6
CONTINUOUS
10
149.69
20
-161.312
11
149.975
21
-161.454
0
LINE
8
BLACK
6
CONTINUOUS
10
149.975
20
-161.454
11
150.547
21
-161.454
0
LINE
8
BLACK
6
CONTINUOUS
10
150.547
20
-161.454
11
150.833
21
-161.312
0
LINE
8
BLACK
6
CONTINUOUS
10
150.833
20
-161.312
11
150.975
21
-161.026
0
LINE
8
BLACK
6
CONTINUOUS
10
150.975
20
-161.026
11
150.975
21
-160.883
0
LINE
8
BLACK
6
CONTINUOUS
10
150.975
20
-160.883
11
150.833
21
-160.597
0
LINE
8
BLACK
6
CONTINUOUS
10
150.833
20
-160.597
11
150.547
21
-160.454
0
LINE
8
BLACK
6
CONTINUOUS
10
150.547
20
-160.454
11
150.118
21
-160.454
0
LINE
8
BLACK
6
CONTINUOUS
10
150.118
20
-160.454
11
149.833
21
-160.312
0
LINE
8
BLACK
6
CONTINUOUS
10
149.833
20
-160.312
11
149.69
21
-160.026
0
LINE
8
BLACK
6
CONTINUOUS
10
149.69
20
-160.026
11
149.69
21
-159.883
0
LINE
8
BLACK
6
CONTINUOUS
10
149.69
20
-159.883
11
149.833
21
-159.597
0
LINE
8
BLACK
6
CONTINUOUS
10
149.833
20
-159.597
11
150.118
21
-159.454
0
LINE
8
BLACK
6
CONTINUOUS
10
150.118
20
-159.454
11
150.547
21
-159.454
0
LINE
8
BLACK
6
CONTINUOUS
10
150.547
20
-159.454
11
150.833
21
-159.597
0
LINE
8
BLACK
6
CONTINUOUS
10
151.975
20
-162.597
11
152.118
21
-162.454
0
LINE
8
BLACK
6
CONTINUOUS
10
152.118
20
-162.454
11
152.404
21
-162.026
0
LINE
8
BLACK
6
CONTINUOUS
10
152.404
20
-162.026
11
152.547
21
-161.74
0
LINE
8
BLACK
6
CONTINUOUS
10
152.547
20
-161.74
11
152.69
21
-161.312
0
LINE
8
BLACK
6
CONTINUOUS
10
152.69
20
-161.312
11
152.833
21
-160.597
0
LINE
8
BLACK
6
CONTINUOUS
10
152.833
20
-160.597
11
152.833
21
-160.026
0
LINE
8
BLACK
6
CONTINUOUS
10
152.833
20
-160.026
11
152.69
21
-159.312
0
LINE
8
BLACK
6
CONTINUOUS
10
152.69
20
-159.312
11
152.547
21
-158.883
0
LINE
8
BLACK
6
CONTINUOUS
10
152.547
20
-158.883
11
152.404
21
-158.597
0
LINE
8
BLACK
6
CONTINUOUS
10
152.404
20
-158.597
11
152.118
21
-158.169
0
LINE
8
BLACK
6
CONTINUOUS
10
152.118
20
-158.169
11
151.975
21
-158.026
0
LINE
8
BLACK
6
CONTINUOUS
10
83.854
20
-163.657
11
83.854
21
-164.457
0
LINE
8
BLACK
6
CONTINUOUS
10
83.454
20
-164.057
11
84.254
21
-164.057
0
LINE
8
BLACK
6
CONTINUOUS
10
87.6897
20
-162.414
11
87.9754
21
-162.414
0
LINE
8
BLACK
6
CONTINUOUS
10
87.9754
20
-162.414
11
88.2611
21
-162.557
0
LINE
8
BLACK
6
CONTINUOUS
10
88.2611
20
-162.557
11
88.404
21
-162.7
0
LINE
8
BLACK
6
CONTINUOUS
10
88.404
20
-162.7
11
88.5468
21
-162.986
0
LINE
8
BLACK
6
CONTINUOUS
10
88.5468
20
-162.986
11
88.6897
21
-163.557
0
LINE
8
BLACK
6
CONTINUOUS
10
88.6897
20
-163.557
11
88.6897
21
-164.272
0
LINE
8
BLACK
6
CONTINUOUS
10
88.6897
20
-164.272
11
88.5468
21
-164.843
0
LINE
8
BLACK
6
CONTINUOUS
10
88.5468
20
-164.843
11
88.404
21
-165.129
0
LINE
8
BLACK
6
CONTINUOUS
10
88.404
20
-165.129
11
88.2611
21
-165.272
0
LINE
8
BLACK
6
CONTINUOUS
10
88.2611
20
-165.272
11
87.9754
21
-165.414
0
LINE
8
BLACK
6
CONTINUOUS
10
87.9754
20
-165.414
11
87.6897
21
-165.414
0
LINE
8
BLACK
6
CONTINUOUS
10
87.6897
20
-165.414
11
87.404
21
-165.272
0
LINE
8
BLACK
6
CONTINUOUS
10
87.404
20
-165.272
11
87.2611
21
-165.129
0
LINE
8
BLACK
6
CONTINUOUS
10
87.2611
20
-165.129
11
87.1183
21
-164.843
0
LINE
8
BLACK
6
CONTINUOUS
10
87.1183
20
-164.843
11
86.9754
21
-164.272
0
LINE
8
BLACK
6
CONTINUOUS
10
86.9754
20
-164.272
11
86.9754
21
-163.557
0
LINE
8
BLACK
6
CONTINUOUS
10
86.9754
20
-163.557
11
87.1183
21
-162.986
0
LINE
8
BLACK
6
CONTINUOUS
10
87.1183
20
-162.986
11
87.2611
21
-162.7
0
LINE
8
BLACK
6
CONTINUOUS
10
87.2611
20
-162.7
11
87.404
21
-162.557
0
LINE
8
BLACK
6
CONTINUOUS
10
87.404
20
-162.557
11
87.6897
21
-162.414
0
LINE
8
BLACK
6
CONTINUOUS
10
89.9754
20
-165.129
11
90.1183
21
-165.272
0
LINE
8
BLACK
6
CONTINUOUS
10
90.1183
20
-165.272
11
89.9754
21
-165.414
0
LINE
8
BLACK
6
CONTINUOUS
10
89.9754
20
-165.414
11
89.8325
21
-165.272
0
LINE
8
BLACK
6
CONTINUOUS
10
89.8325
20
-165.272
11
89.9754
21
-165.129
0
LINE
8
BLACK
6
CONTINUOUS
10
89.9754
20
-165.129
11
89.9754
21
-165.414
0
LINE
8
BLACK
6
CONTINUOUS
10
91.8325
20
-163.7
11
91.5468
21
-163.557
0
LINE
8
BLACK
6
CONTINUOUS
10
91.5468
20
-163.557
11
91.404
21
-163.414
0
LINE
8
BLACK
6
CONTINUOUS
10
91.404
20
-163.414
11
91.2611
21
-163.129
0
LINE
8
BLACK
6
CONTINUOUS
10
91.2611
20
-163.129
11
91.2611
21
-162.986
0
LINE
8
BLACK
6
CONTINUOUS
10
91.2611
20
-162.986
11
91.404
21
-162.7
0
LINE
8
BLACK
6
CONTINUOUS
10
91.404
20
-162.7
11
91.5468
21
-162.557
0
LINE
8
BLACK
6
CONTINUOUS
10
91.5468
20
-162.557
11
91.8325
21
-162.414
0
LINE
8
BLACK
6
CONTINUOUS
10
91.8325
20
-162.414
11
92.404
21
-162.414
0
LINE
8
BLACK
6
CONTINUOUS
10
92.404
20
-162.414
11
92.6897
21
-162.557
0
LINE
8
BLACK
6
CONTINUOUS
10
92.6897
20
-162.557
11
92.8325
21
-162.7
0
LINE
8
BLACK
6
CONTINUOUS
10
92.8325
20
-162.7
11
92.9754
21
-162.986
0
LINE
8
BLACK
6
CONTINUOUS
10
92.9754
20
-162.986
11
92.9754
21
-163.129
0
LINE
8
BLACK
6
CONTINUOUS
10
92.9754
20
-163.129
11
92.8325
21
-163.414
0
LINE
8
BLACK
6
CONTINUOUS
10
92.8325
20
-163.414
11
92.6897
21
-163.557
0
LINE
8
BLACK
6
CONTINUOUS
10
92.6897
20
-163.557
11
92.404
21
-163.7
0
LINE
8
BLACK
6
CONTINUOUS
10
92.404
20
-163.7
11
91.8325
21
-163.7
0
LINE
8
BLACK
6
CONTINUOUS
10
91.8325
20
-163.7
11
91.5468
21
-163.843
0
LINE
8
BLACK
6
CONTINUOUS
10
91.5468
20
-163.843
11
91.404
21
-163.986
0
LINE
8
BLACK
6
CONTINUOUS
10
91.404
20
-163.986
11
91.2611
21
-164.272
0
LINE
8
BLACK
6
CONTINUOUS
10
91.2611
20
-164.272
11
91.2611
21
-164.843
0
LINE
8
BLACK
6
CONTINUOUS
10
91.2611
20
-164.843
11
91.404
21
-165.129
0
LINE
8
BLACK
6
CONTINUOUS
10
91.404
20
-165.129
11
91.5468
21
-165.272
0
LINE
8
BLACK
6
CONTINUOUS
10
91.5468
20
-165.272
11
91.8325
21
-165.414
0
LINE
8
BLACK
6
CONTINUOUS
10
91.8325
20
-165.414
11
92.404
21
-165.414
0
LINE
8
BLACK
6
CONTINUOUS
10
92.404
20
-165.414
11
92.6897
21
-165.272
0
LINE
8
BLACK
6
CONTINUOUS
10
92.6897
20
-165.272
11
92.8325
21
-165.129
0
LINE
8
BLACK
6
CONTINUOUS
10
92.8325
20
-165.129
11
92.9754
21
-164.843
0
LINE
8
BLACK
6
CONTINUOUS
10
92.9754
20
-164.843
11
92.9754
21
-164.272
0
LINE
8
BLACK
6
CONTINUOUS
10
92.9754
20
-164.272
11
92.8325
21
-163.986
0
LINE
8
BLACK
6
CONTINUOUS
10
92.8325
20
-163.986
11
92.6897
21
-163.843
0
LINE
8
BLACK
6
CONTINUOUS
10
92.6897
20
-163.843
11
92.404
21
-163.7
0
LINE
8
BLACK
6
CONTINUOUS
10
94.8325
20
-162.414
11
95.1183
21
-162.414
0
LINE
8
BLACK
6
CONTINUOUS
10
95.1183
20
-162.414
11
95.404
21
-162.557
0
LINE
8
BLACK
6
CONTINUOUS
10
95.404
20
-162.557
11
95.5468
21
-162.7
0
LINE
8
BLACK
6
CONTINUOUS
10
95.5468
20
-162.7
11
95.6897
21
-162.986
0
LINE
8
BLACK
6
CONTINUOUS
10
95.6897
20
-162.986
11
95.8325
21
-163.557
0
LINE
8
BLACK
6
CONTINUOUS
10
95.8325
20
-163.557
11
95.8325
21
-164.272
0
LINE
8
BLACK
6
CONTINUOUS
10
95.8325
20
-164.272
11
95.6897
21
-164.843
0
LINE
8
BLACK
6
CONTINUOUS
10
95.6897
20
-164.843
11
95.5468
21
-165.129
0
LINE
8
BLACK
6
CONTINUOUS
10
95.5468
20
-165.129
11
95.404
21
-165.272
0
LINE
8
BLACK
6
CONTINUOUS
10
95.404
20
-165.272
11
95.1183
21
-165.414
0
LINE
8
BLACK
6
CONTINUOUS
10
95.1183
20
-165.414
11
94.8325
21
-165.414
0
LINE
8
BLACK
6
CONTINUOUS
10
94.8325
20
-165.414
11
94.5468
21
-165.272
0
LINE
8
BLACK
6
CONTINUOUS
10
94.5468
20
-165.272
11
94.404
21
-165.129
0
LINE
8
BLACK
6
CONTINUOUS
10
94.404
20
-165.129
11
94.2611
21
-164.843
0
LINE
8
BLACK
6
CONTINUOUS
10
94.2611
20
-164.843
11
94.1183
21
-164.272
0
LINE
8
BLACK
6
CONTINUOUS
10
94.1183
20
-164.272
11
94.1183
21
-163.557
0
LINE
8
BLACK
6
CONTINUOUS
10
94.1183
20
-163.557
11
94.2611
21
-162.986
0
LINE
8
BLACK
6
CONTINUOUS
10
94.2611
20
-162.986
11
94.404
21
-162.7
0
LINE
8
BLACK
6
CONTINUOUS
10
94.404
20
-162.7
11
94.5468
21
-162.557
0
LINE
8
BLACK
6
CONTINUOUS
10
94.5468
20
-162.557
11
94.8325
21
-162.414
0
LINE
8
BLACK
6
CONTINUOUS
10
97.1183
20
-165.414
11
97.1183
21
-163.414
0
LINE
8
BLACK
6
CONTINUOUS
10
97.1183
20
-163.7
11
97.2611
21
-163.557
0
LINE
8
BLACK
6
CONTINUOUS
10
97.2611
20
-163.557
11
97.5468
21
-163.414
0
LINE
8
BLACK
6
CONTINUOUS
10
97.5468
20
-163.414
11
97.9754
21
-163.414
0
LINE
8
BLACK
6
CONTINUOUS
10
97.9754
20
-163.414
11
98.2611
21
-163.557
0
LINE
8
BLACK
6
CONTINUOUS
10
98.2611
20
-163.557
11
98.404
21
-163.843
0
LINE
8
BLACK
6
CONTINUOUS
10
98.404
20
-163.843
11
98.404
21
-165.414
0
LINE
8
BLACK
6
CONTINUOUS
10
98.404
20
-163.843
11
98.5468
21
-163.557
0
LINE
8
BLACK
6
CONTINUOUS
10
98.5468
20
-163.557
11
98.8325
21
-163.414
0
LINE
8
BLACK
6
CONTINUOUS
10
98.8325
20
-163.414
11
99.2611
21
-163.414
0
LINE
8
BLACK
6
CONTINUOUS
10
99.2611
20
-163.414
11
99.5468
21
-163.557
0
LINE
8
BLACK
6
CONTINUOUS
10
99.5468
20
-163.557
11
99.6897
21
-163.843
0
LINE
8
BLACK
6
CONTINUOUS
10
99.6897
20
-163.843
11
99.6897
21
-165.414
0
LINE
8
BLACK
6
CONTINUOUS
10
101.118
20
-165.414
11
101.118
21
-163.414
0
LINE
8
BLACK
6
CONTINUOUS
10
101.118
20
-163.7
11
101.261
21
-163.557
0
LINE
8
BLACK
6
CONTINUOUS
10
101.261
20
-163.557
11
101.547
21
-163.414
0
LINE
8
BLACK
6
CONTINUOUS
10
101.547
20
-163.414
11
101.975
21
-163.414
0
LINE
8
BLACK
6
CONTINUOUS
10
101.975
20
-163.414
11
102.261
21
-163.557
0
LINE
8
BLACK
6
CONTINUOUS
10
102.261
20
-163.557
11
102.404
21
-163.843
0
LINE
8
BLACK
6
CONTINUOUS
10
102.404
20
-163.843
11
102.404
21
-165.414
0
LINE
8
BLACK
6
CONTINUOUS
10
102.404
20
-163.843
11
102.547
21
-163.557
0
LINE
8
BLACK
6
CONTINUOUS
10
102.547
20
-163.557
11
102.833
21
-163.414
0
LINE
8
BLACK
6
CONTINUOUS
10
102.833
20
-163.414
11
103.261
21
-163.414
0
LINE
8
BLACK
6
CONTINUOUS
10
103.261
20
-163.414
11
103.547
21
-163.557
0
LINE
8
BLACK
6
CONTINUOUS
10
103.547
20
-163.557
11
103.69
21
-163.843
0
LINE
8
BLACK
6
CONTINUOUS
10
103.69
20
-163.843
11
103.69
21
-165.414
0
LINE
8
BLACK
6
CONTINUOUS
10
109.547
20
-162.272
11
106.975
21
-166.129
0
LINE
8
BLACK
6
CONTINUOUS
10
113.404
20
-162.414
11
113.69
21
-162.414
0
LINE
8
BLACK
6
CONTINUOUS
10
113.69
20
-162.414
11
113.975
21
-162.557
0
LINE
8
BLACK
6
CONTINUOUS
10
113.975
20
-162.557
11
114.118
21
-162.7
0
LINE
8
BLACK
6
CONTINUOUS
10
114.118
20
-162.7
11
114.261
21
-162.986
0
LINE
8
BLACK
6
CONTINUOUS
10
114.261
20
-162.986
11
114.404
21
-163.557
0
LINE
8
BLACK
6
CONTINUOUS
10
114.404
20
-163.557
11
114.404
21
-164.272
0
LINE
8
BLACK
6
CONTINUOUS
10
114.404
20
-164.272
11
114.261
21
-164.843
0
LINE
8
BLACK
6
CONTINUOUS
10
114.261
20
-164.843
11
114.118
21
-165.129
0
LINE
8
BLACK
6
CONTINUOUS
10
114.118
20
-165.129
11
113.975
21
-165.272
0
LINE
8
BLACK
6
CONTINUOUS
10
113.975
20
-165.272
11
113.69
21
-165.414
0
LINE
8
BLACK
6
CONTINUOUS
10
113.69
20
-165.414
11
113.404
21
-165.414
0
LINE
8
BLACK
6
CONTINUOUS
10
113.404
20
-165.414
11
113.118
21
-165.272
0
LINE
8
BLACK
6
CONTINUOUS
10
113.118
20
-165.272
11
112.975
21
-165.129
0
LINE
8
BLACK
6
CONTINUOUS
10
112.975
20
-165.129
11
112.833
21
-164.843
0
LINE
8
BLACK
6
CONTINUOUS
10
112.833
20
-164.843
11
112.69
21
-164.272
0
LINE
8
BLACK
6
CONTINUOUS
10
112.69
20
-164.272
11
112.69
21
-163.557
0
LINE
8
BLACK
6
CONTINUOUS
10
112.69
20
-163.557
11
112.833
21
-162.986
0
LINE
8
BLACK
6
CONTINUOUS
10
112.833
20
-162.986
11
112.975
21
-162.7
0
LINE
8
BLACK
6
CONTINUOUS
10
112.975
20
-162.7
11
113.118
21
-162.557
0
LINE
8
BLACK
6
CONTINUOUS
10
113.118
20
-162.557
11
113.404
21
-162.414
0
LINE
8
BLACK
6
CONTINUOUS
10
115.69
20
-165.129
11
115.833
21
-165.272
0
LINE
8
BLACK
6
CONTINUOUS
10
115.833
20
-165.272
11
115.69
21
-165.414
0
LINE
8
BLACK
6
CONTINUOUS
10
115.69
20
-165.414
11
115.547
21
-165.272
0
LINE
8
BLACK
6
CONTINUOUS
10
115.547
20
-165.272
11
115.69
21
-165.129
0
LINE
8
BLACK
6
CONTINUOUS
10
115.69
20
-165.129
11
115.69
21
-165.414
0
LINE
8
BLACK
6
CONTINUOUS
10
117.69
20
-162.414
11
117.975
21
-162.414
0
LINE
8
BLACK
6
CONTINUOUS
10
117.975
20
-162.414
11
118.261
21
-162.557
0
LINE
8
BLACK
6
CONTINUOUS
10
118.261
20
-162.557
11
118.404
21
-162.7
0
LINE
8
BLACK
6
CONTINUOUS
10
118.404
20
-162.7
11
118.547
21
-162.986
0
LINE
8
BLACK
6
CONTINUOUS
10
118.547
20
-162.986
11
118.69
21
-163.557
0
LINE
8
BLACK
6
CONTINUOUS
10
118.69
20
-163.557
11
118.69
21
-164.272
0
LINE
8
BLACK
6
CONTINUOUS
10
118.69
20
-164.272
11
118.547
21
-164.843
0
LINE
8
BLACK
6
CONTINUOUS
10
118.547
20
-164.843
11
118.404
21
-165.129
0
LINE
8
BLACK
6
CONTINUOUS
10
118.404
20
-165.129
11
118.261
21
-165.272
0
LINE
8
BLACK
6
CONTINUOUS
10
118.261
20
-165.272
11
117.975
21
-165.414
0
LINE
8
BLACK
6
CONTINUOUS
10
117.975
20
-165.414
11
117.69
21
-165.414
0
LINE
8
BLACK
6
CONTINUOUS
10
117.69
20
-165.414
11
117.404
21
-165.272
0
LINE
8
BLACK
6
CONTINUOUS
10
117.404
20
-165.272
11
117.261
21
-165.129
0
LINE
8
BLACK
6
CONTINUOUS
10
117.261
20
-165.129
11
117.118
21
-164.843
0
LINE
8
BLACK
6
CONTINUOUS
10
117.118
20
-164.843
11
116.975
21
-164.272
0
LINE
8
BLACK
6
CONTINUOUS
10
116.975
20
-164.272
11
116.975
21
-163.557
0
LINE
8
BLACK
6
CONTINUOUS
10
116.975
20
-163.557
11
117.118
21
-162.986
0
LINE
8
BLACK
6
CONTINUOUS
10
117.118
20
-162.986
11
117.261
21
-162.7
0
LINE
8
BLACK
6
CONTINUOUS
10
117.261
20
-162.7
11
117.404
21
-162.557
0
LINE
8
BLACK
6
CONTINUOUS
10
117.404
20
-162.557
11
117.69
21
-162.414
0
LINE
8
BLACK
6
CONTINUOUS
10
119.69
20
-162.414
11
121.547
21
-162.414
0
LINE
8
BLACK
6
CONTINUOUS
10
121.547
20
-162.414
11
120.547
21
-163.557
0
LINE
8
BLACK
6
CONTINUOUS
10
120.547
20
-163.557
11
120.975
21
-163.557
0
LINE
8
BLACK
6
CONTINUOUS
10
120.975
20
-163.557
11
121.261
21
-163.7
0
LINE
8
BLACK
6
CONTINUOUS
10
121.261
20
-163.7
11
121.404
21
-163.843
0
LINE
8
BLACK
6
CONTINUOUS
10
121.404
20
-163.843
11
121.547
21
-164.129
0
LINE
8
BLACK
6
CONTINUOUS
10
121.547
20
-164.129
11
121.547
21
-164.843
0
LINE
8
BLACK
6
CONTINUOUS
10
121.547
20
-164.843
11
121.404
21
-165.129
0
LINE
8
BLACK
6
CONTINUOUS
10
121.404
20
-165.129
11
121.261
21
-165.272
0
LINE
8
BLACK
6
CONTINUOUS
10
121.261
20
-165.272
11
120.975
21
-165.414
0
LINE
8
BLACK
6
CONTINUOUS
10
120.975
20
-165.414
11
120.118
21
-165.414
0
LINE
8
BLACK
6
CONTINUOUS
10
120.118
20
-165.414
11
119.833
21
-165.272
0
LINE
8
BLACK
6
CONTINUOUS
10
119.833
20
-165.272
11
119.69
21
-165.129
0
LINE
8
BLACK
6
CONTINUOUS
10
124.404
20
-165.414
11
122.69
21
-165.414
0
LINE
8
BLACK
6
CONTINUOUS
10
123.547
20
-165.414
11
123.547
21
-162.414
0
LINE
8
BLACK
6
CONTINUOUS
10
123.547
20
-162.414
11
123.261
21
-162.843
0
LINE
8
BLACK
6
CONTINUOUS
10
123.261
20
-162.843
11
122.975
21
-163.129
0
LINE
8
BLACK
6
CONTINUOUS
10
122.975
20
-163.129
11
122.69
21
-163.272
0
LINE
8
BLACK
6
CONTINUOUS
10
125.547
20
-162.414
11
125.547
21
-162.986
0
LINE
8
BLACK
6
CONTINUOUS
10
126.69
20
-162.414
11
126.69
21
-162.986
0
LINE
8
BLACK
6
CONTINUOUS
10
131.118
20
-166.557
11
130.975
21
-166.414
0
LINE
8
BLACK
6
CONTINUOUS
10
130.975
20
-166.414
11
130.69
21
-165.986
0
LINE
8
BLACK
6
CONTINUOUS
10
130.69
20
-165.986
11
130.547
21
-165.7
0
LINE
8
BLACK
6
CONTINUOUS
10
130.547
20
-165.7
11
130.404
21
-165.272
0
LINE
8
BLACK
6
CONTINUOUS
10
130.404
20
-165.272
11
130.261
21
-164.557
0
LINE
8
BLACK
6
CONTINUOUS
10
130.261
20
-164.557
11
130.261
21
-163.986
0
LINE
8
BLACK
6
CONTINUOUS
10
130.261
20
-163.986
11
130.404
21
-163.272
0
LINE
8
BLACK
6
CONTINUOUS
10
130.404
20
-163.272
11
130.547
21
-162.843
0
LINE
8
BLACK
6
CONTINUOUS
10
130.547
20
-162.843
11
130.69
21
-162.557
0
LINE
8
BLACK
6
CONTINUOUS
10
130.69
20
-162.557
11
130.975
21
-162.129
0
LINE
8
BLACK
6
CONTINUOUS
10
130.975
20
-162.129
11
131.118
21
-161.986
0
LINE
8
BLACK
6
CONTINUOUS
10
133.833
20
-165.414
11
132.118
21
-165.414
0
LINE
8
BLACK
6
CONTINUOUS
10
132.975
20
-165.414
11
132.975
21
-162.414
0
LINE
8
BLACK
6
CONTINUOUS
10
132.975
20
-162.414
11
132.69
21
-162.843
0
LINE
8
BLACK
6
CONTINUOUS
10
132.69
20
-162.843
11
132.404
21
-163.129
0
LINE
8
BLACK
6
CONTINUOUS
10
132.404
20
-163.129
11
132.118
21
-163.272
0
LINE
8
BLACK
6
CONTINUOUS
10
135.69
20
-162.414
11
135.975
21
-162.414
0
LINE
8
BLACK
6
CONTINUOUS
10
135.975
20
-162.414
11
136.261
21
-162.557
0
LINE
8
BLACK
6
CONTINUOUS
10
136.261
20
-162.557
11
136.404
21
-162.7
0
LINE
8
BLACK
6
CONTINUOUS
10
136.404
20
-162.7
11
136.547
21
-162.986
0
LINE
8
BLACK
6
CONTINUOUS
10
136.547
20
-162.986
11
136.69
21
-163.557
0
LINE
8
BLACK
6
CONTINUOUS
10
136.69
20
-163.557
11
136.69
21
-164.272
0
LINE
8
BLACK
6
CONTINUOUS
10
136.69
20
-164.272
11
136.547
21
-164.843
0
LINE
8
BLACK
6
CONTINUOUS
10
136.547
20
-164.843
11
136.404
21
-165.129
0
LINE
8
BLACK
6
CONTINUOUS
10
136.404
20
-165.129
11
136.261
21
-165.272
0
LINE
8
BLACK
6
CONTINUOUS
10
136.261
20
-165.272
11
135.975
21
-165.414
0
LINE
8
BLACK
6
CONTINUOUS
10
135.975
20
-165.414
11
135.69
21
-165.414
0
LINE
8
BLACK
6
CONTINUOUS
10
135.69
20
-165.414
11
135.404
21
-165.272
0
LINE
8
BLACK
6
CONTINUOUS
10
135.404
20
-165.272
11
135.261
21
-165.129
0
LINE
8
BLACK
6
CONTINUOUS
10
135.261
20
-165.129
11
135.118
21
-164.843
0
LINE
8
BLACK
6
CONTINUOUS
10
135.118
20
-164.843
11
134.975
21
-164.272
0
LINE
8
BLACK
6
CONTINUOUS
10
134.975
20
-164.272
11
134.975
21
-163.557
0
LINE
8
BLACK
6
CONTINUOUS
10
134.975
20
-163.557
11
135.118
21
-162.986
0
LINE
8
BLACK
6
CONTINUOUS
10
135.118
20
-162.986
11
135.261
21
-162.7
0
LINE
8
BLACK
6
CONTINUOUS
10
135.261
20
-162.7
11
135.404
21
-162.557
0
LINE
8
BLACK
6
CONTINUOUS
10
135.404
20
-162.557
11
135.69
21
-162.414
0
LINE
8
BLACK
6
CONTINUOUS
10
140.261
20
-165.414
11
140.261
21
-162.414
0
LINE
8
BLACK
6
CONTINUOUS
10
141.547
20
-165.414
11
141.547
21
-163.843
0
LINE
8
BLACK
6
CONTINUOUS
10
141.547
20
-163.843
11
141.404
21
-163.557
0
LINE
8
BLACK
6
CONTINUOUS
10
141.404
20
-163.557
11
141.118
21
-163.414
0
LINE
8
BLACK
6
CONTINUOUS
10
141.118
20
-163.414
11
140.69
21
-163.414
0
LINE
8
BLACK
6
CONTINUOUS
10
140.69
20
-163.414
11
140.404
21
-163.557
0
LINE
8
BLACK
6
CONTINUOUS
10
140.404
20
-163.557
11
140.261
21
-163.7
0
LINE
8
BLACK
6
CONTINUOUS
10
143.404
20
-165.414
11
143.118
21
-165.272
0
LINE
8
BLACK
6
CONTINUOUS
10
143.118
20
-165.272
11
142.975
21
-165.129
0
LINE
8
BLACK
6
CONTINUOUS
10
142.975
20
-165.129
11
142.833
21
-164.843
0
LINE
8
BLACK
6
CONTINUOUS
10
142.833
20
-164.843
11
142.833
21
-163.986
0
LINE
8
BLACK
6
CONTINUOUS
10
142.833
20
-163.986
11
142.975
21
-163.7
0
LINE
8
BLACK
6
CONTINUOUS
10
142.975
20
-163.7
11
143.118
21
-163.557
0
LINE
8
BLACK
6
CONTINUOUS
10
143.118
20
-163.557
11
143.404
21
-163.414
0
LINE
8
BLACK
6
CONTINUOUS
10
143.404
20
-163.414
11
143.833
21
-163.414
0
LINE
8
BLACK
6
CONTINUOUS
10
143.833
20
-163.414
11
144.118
21
-163.557
0
LINE
8
BLACK
6
CONTINUOUS
10
144.118
20
-163.557
11
144.261
21
-163.7
0
LINE
8
BLACK
6
CONTINUOUS
10
144.261
20
-163.7
11
144.404
21
-163.986
0
LINE
8
BLACK
6
CONTINUOUS
10
144.404
20
-163.986
11
144.404
21
-164.843
0
LINE
8
BLACK
6
CONTINUOUS
10
144.404
20
-164.843
11
144.261
21
-165.129
0
LINE
8
BLACK
6
CONTINUOUS
10
144.261
20
-165.129
11
144.118
21
-165.272
0
LINE
8
BLACK
6
CONTINUOUS
10
144.118
20
-165.272
11
143.833
21
-165.414
0
LINE
8
BLACK
6
CONTINUOUS
10
143.833
20
-165.414
11
143.404
21
-165.414
0
LINE
8
BLACK
6
CONTINUOUS
10
146.118
20
-165.414
11
145.833
21
-165.272
0
LINE
8
BLACK
6
CONTINUOUS
10
145.833
20
-165.272
11
145.69
21
-164.986
0
LINE
8
BLACK
6
CONTINUOUS
10
145.69
20
-164.986
11
145.69
21
-162.414
0
LINE
8
BLACK
6
CONTINUOUS
10
148.404
20
-165.272
11
148.118
21
-165.414
0
LINE
8
BLACK
6
CONTINUOUS
10
148.118
20
-165.414
11
147.547
21
-165.414
0
LINE
8
BLACK
6
CONTINUOUS
10
147.547
20
-165.414
11
147.261
21
-165.272
0
LINE
8
BLACK
6
CONTINUOUS
10
147.261
20
-165.272
11
147.118
21
-164.986
0
LINE
8
BLACK
6
CONTINUOUS
10
147.118
20
-164.986
11
147.118
21
-163.843
0
LINE
8
BLACK
6
CONTINUOUS
10
147.118
20
-163.843
11
147.261
21
-163.557
0
LINE
8
BLACK
6
CONTINUOUS
10
147.261
20
-163.557
11
147.547
21
-163.414
0
LINE
8
BLACK
6
CONTINUOUS
10
147.547
20
-163.414
11
148.118
21
-163.414
0
LINE
8
BLACK
6
CONTINUOUS
10
148.118
20
-163.414
11
148.404
21
-163.557
0
LINE
8
BLACK
6
CONTINUOUS
10
148.404
20
-163.557
11
148.547
21
-163.843
0
LINE
8
BLACK
6
CONTINUOUS
10
148.547
20
-163.843
11
148.547
21
-164.129
0
LINE
8
BLACK
6
CONTINUOUS
10
148.547
20
-164.129
11
147.118
21
-164.414
0
LINE
8
BLACK
6
CONTINUOUS
10
149.69
20
-165.272
11
149.975
21
-165.414
0
LINE
8
BLACK
6
CONTINUOUS
10
149.975
20
-165.414
11
150.547
21
-165.414
0
LINE
8
BLACK
6
CONTINUOUS
10
150.547
20
-165.414
11
150.833
21
-165.272
0
LINE
8
BLACK
6
CONTINUOUS
10
150.833
20
-165.272
11
150.975
21
-164.986
0
LINE
8
BLACK
6
CONTINUOUS
10
150.975
20
-164.986
11
150.975
21
-164.843
0
LINE
8
BLACK
6
CONTINUOUS
10
150.975
20
-164.843
11
150.833
21
-164.557
0
LINE
8
BLACK
6
CONTINUOUS
10
150.833
20
-164.557
11
150.547
21
-164.414
0
LINE
8
BLACK
6
CONTINUOUS
10
150.547
20
-164.414
11
150.118
21
-164.414
0
LINE
8
BLACK
6
CONTINUOUS
10
150.118
20
-164.414
11
149.833
21
-164.272
0
LINE
8
BLACK
6
CONTINUOUS
10
149.833
20
-164.272
11
149.69
21
-163.986
0
LINE
8
BLACK
6
CONTINUOUS
10
149.69
20
-163.986
11
149.69
21
-163.843
0
LINE
8
BLACK
6
CONTINUOUS
10
149.69
20
-163.843
11
149.833
21
-163.557
0
LINE
8
BLACK
6
CONTINUOUS
10
149.833
20
-163.557
11
150.118
21
-163.414
0
LINE
8
BLACK
6
CONTINUOUS
10
150.118
20
-163.414
11
150.547
21
-163.414
0
LINE
8
BLACK
6
CONTINUOUS
10
150.547
20
-163.414
11
150.833
21
-163.557
0
LINE
8
BLACK
6
CONTINUOUS
10
151.975
20
-166.557
11
152.118
21
-166.414
0
LINE
8
BLACK
6
CONTINUOUS
10
152.118
20
-166.414
11
152.404
21
-165.986
0
LINE
8
BLACK
6
CONTINUOUS
10
152.404
20
-165.986
11
152.547
21
-165.7
0
LINE
8
BLACK
6
CONTINUOUS
10
152.547
20
-165.7
11
152.69
21
-165.272
0
LINE
8
BLACK
6
CONTINUOUS
10
152.69
20
-165.272
11
152.833
21
-164.557
0
LINE
8
BLACK
6
CONTINUOUS
10
152.833
20
-164.557
11
152.833
21
-163.986
0
LINE
8
BLACK
6
CONTINUOUS
10
152.833
20
-163.986
11
152.69
21
-163.272
0
LINE
8
BLACK
6
CONTINUOUS
10
152.69
20
-163.272
11
152.547
21
-162.843
0
LINE
8
BLACK
6
CONTINUOUS
10
152.547
20
-162.843
11
152.404
21
-162.557
0
LINE
8
BLACK
6
CONTINUOUS
10
152.404
20
-162.557
11
152.118
21
-162.129
0
LINE
8
BLACK
6
CONTINUOUS
10
152.118
20
-162.129
11
151.975
21
-161.986
0
LINE
8
BLACK
6
CONTINUOUS
10
84.1222
20
-168.336
11
84.1222
21
-167.699
0
LINE
8
BLACK
6
CONTINUOUS
10
84.1222
20
-167.699
11
83.4858
21
-167.699
0
LINE
8
BLACK
6
CONTINUOUS
10
83.4858
20
-167.699
11
83.4858
21
-168.336
0
LINE
8
BLACK
6
CONTINUOUS
10
83.4858
20
-168.336
11
84.1222
21
-168.336
0
LINE
8
BLACK
6
CONTINUOUS
10
87.6897
20
-166.374
11
87.9754
21
-166.374
0
LINE
8
BLACK
6
CONTINUOUS
10
87.9754
20
-166.374
11
88.2611
21
-166.517
0
LINE
8
BLACK
6
CONTINUOUS
10
88.2611
20
-166.517
11
88.404
21
-166.66
0
LINE
8
BLACK
6
CONTINUOUS
10
88.404
20
-166.66
11
88.5468
21
-166.946
0
LINE
8
BLACK
6
CONTINUOUS
10
88.5468
20
-166.946
11
88.6897
21
-167.517
0
LINE
8
BLACK
6
CONTINUOUS
10
88.6897
20
-167.517
11
88.6897
21
-168.232
0
LINE
8
BLACK
6
CONTINUOUS
10
88.6897
20
-168.232
11
88.5468
21
-168.803
0
LINE
8
BLACK
6
CONTINUOUS
10
88.5468
20
-168.803
11
88.404
21
-169.089
0
LINE
8
BLACK
6
CONTINUOUS
10
88.404
20
-169.089
11
88.2611
21
-169.232
0
LINE
8
BLACK
6
CONTINUOUS
10
88.2611
20
-169.232
11
87.9754
21
-169.374
0
LINE
8
BLACK
6
CONTINUOUS
10
87.9754
20
-169.374
11
87.6897
21
-169.374
0
LINE
8
BLACK
6
CONTINUOUS
10
87.6897
20
-169.374
11
87.404
21
-169.232
0
LINE
8
BLACK
6
CONTINUOUS
10
87.404
20
-169.232
11
87.2611
21
-169.089
0
LINE
8
BLACK
6
CONTINUOUS
10
87.2611
20
-169.089
11
87.1183
21
-168.803
0
LINE
8
BLACK
6
CONTINUOUS
10
87.1183
20
-168.803
11
86.9754
21
-168.232
0
LINE
8
BLACK
6
CONTINUOUS
10
86.9754
20
-168.232
11
86.9754
21
-167.517
0
LINE
8
BLACK
6
CONTINUOUS
10
86.9754
20
-167.517
11
87.1183
21
-166.946
0
LINE
8
BLACK
6
CONTINUOUS
10
87.1183
20
-166.946
11
87.2611
21
-166.66
0
LINE
8
BLACK
6
CONTINUOUS
10
87.2611
20
-166.66
11
87.404
21
-166.517
0
LINE
8
BLACK
6
CONTINUOUS
10
87.404
20
-166.517
11
87.6897
21
-166.374
0
LINE
8
BLACK
6
CONTINUOUS
10
89.9754
20
-169.089
11
90.1183
21
-169.232
0
LINE
8
BLACK
6
CONTINUOUS
10
90.1183
20
-169.232
11
89.9754
21
-169.374
0
LINE
8
BLACK
6
CONTINUOUS
10
89.9754
20
-169.374
11
89.8325
21
-169.232
0
LINE
8
BLACK
6
CONTINUOUS
10
89.8325
20
-169.232
11
89.9754
21
-169.089
0
LINE
8
BLACK
6
CONTINUOUS
10
89.9754
20
-169.089
11
89.9754
21
-169.374
0
LINE
8
BLACK
6
CONTINUOUS
10
91.5468
20
-169.374
11
92.1183
21
-169.374
0
LINE
8
BLACK
6
CONTINUOUS
10
92.1183
20
-169.374
11
92.404
21
-169.232
0
LINE
8
BLACK
6
CONTINUOUS
10
92.404
20
-169.232
11
92.5468
21
-169.089
0
LINE
8
BLACK
6
CONTINUOUS
10
92.5468
20
-169.089
11
92.8325
21
-168.66
0
LINE
8
BLACK
6
CONTINUOUS
10
92.8325
20
-168.66
11
92.9754
21
-168.089
0
LINE
8
BLACK
6
CONTINUOUS
10
92.9754
20
-168.089
11
92.9754
21
-166.946
0
LINE
8
BLACK
6
CONTINUOUS
10
92.9754
20
-166.946
11
92.8325
21
-166.66
0
LINE
8
BLACK
6
CONTINUOUS
10
92.8325
20
-166.66
11
92.6897
21
-166.517
0
LINE
8
BLACK
6
CONTINUOUS
10
92.6897
20
-166.517
11
92.404
21
-166.374
0
LINE
8
BLACK
6
CONTINUOUS
10
92.404
20
-166.374
11
91.8325
21
-166.374
0
LINE
8
BLACK
6
CONTINUOUS
10
91.8325
20
-166.374
11
91.5468
21
-166.517
0
LINE
8
BLACK
6
CONTINUOUS
10
91.5468
20
-166.517
11
91.404
21
-166.66
0
LINE
8
BLACK
6
CONTINUOUS
10
91.404
20
-166.66
11
91.2611
21
-166.946
0
LINE
8
BLACK
6
CONTINUOUS
10
91.2611
20
-166.946
11
91.2611
21
-167.66
0
LINE
8
BLACK
6
CONTINUOUS
10
91.2611
20
-167.66
11
91.404
21
-167.946
0
LINE
8
BLACK
6
CONTINUOUS
10
91.404
20
-167.946
11
91.5468
21
-168.089
0
LINE
8
BLACK
6
CONTINUOUS
10
91.5468
20
-168.089
11
91.8325
21
-168.232
0
LINE
8
BLACK
6
CONTINUOUS
10
91.8325
20
-168.232
11
92.404
21
-168.232
0
LINE
8
BLACK
6
CONTINUOUS
10
92.404
20
-168.232
11
92.6897
21
-168.089
0
LINE
8
BLACK
6
CONTINUOUS
10
92.6897
20
-168.089
11
92.8325
21
-167.946
0
LINE
8
BLACK
6
CONTINUOUS
10
92.8325
20
-167.946
11
92.9754
21
-167.66
0
LINE
8
BLACK
6
CONTINUOUS
10
94.8325
20
-166.374
11
95.1183
21
-166.374
0
LINE
8
BLACK
6
CONTINUOUS
10
95.1183
20
-166.374
11
95.404
21
-166.517
0
LINE
8
BLACK
6
CONTINUOUS
10
95.404
20
-166.517
11
95.5468
21
-166.66
0
LINE
8
BLACK
6
CONTINUOUS
10
95.5468
20
-166.66
11
95.6897
21
-166.946
0
LINE
8
BLACK
6
CONTINUOUS
10
95.6897
20
-166.946
11
95.8325
21
-167.517
0
LINE
8
BLACK
6
CONTINUOUS
10
95.8325
20
-167.517
11
95.8325
21
-168.232
0
LINE
8
BLACK
6
CONTINUOUS
10
95.8325
20
-168.232
11
95.6897
21
-168.803
0
LINE
8
BLACK
6
CONTINUOUS
10
95.6897
20
-168.803
11
95.5468
21
-169.089
0
LINE
8
BLACK
6
CONTINUOUS
10
95.5468
20
-169.089
11
95.404
21
-169.232
0
LINE
8
BLACK
6
CONTINUOUS
10
95.404
20
-169.232
11
95.1183
21
-169.374
0
LINE
8
BLACK
6
CONTINUOUS
10
95.1183
20
-169.374
11
94.8325
21
-169.374
0
LINE
8
BLACK
6
CONTINUOUS
10
94.8325
20
-169.374
11
94.5468
21
-169.232
0
LINE
8
BLACK
6
CONTINUOUS
10
94.5468
20
-169.232
11
94.404
21
-169.089
0
LINE
8
BLACK
6
CONTINUOUS
10
94.404
20
-169.089
11
94.2611
21
-168.803
0
LINE
8
BLACK
6
CONTINUOUS
10
94.2611
20
-168.803
11
94.1183
21
-168.232
0
LINE
8
BLACK
6
CONTINUOUS
10
94.1183
20
-168.232
11
94.1183
21
-167.517
0
LINE
8
BLACK
6
CONTINUOUS
10
94.1183
20
-167.517
11
94.2611
21
-166.946
0
LINE
8
BLACK
6
CONTINUOUS
10
94.2611
20
-166.946
11
94.404
21
-166.66
0
LINE
8
BLACK
6
CONTINUOUS
10
94.404
20
-166.66
11
94.5468
21
-166.517
0
LINE
8
BLACK
6
CONTINUOUS
10
94.5468
20
-166.517
11
94.8325
21
-166.374
0
LINE
8
BLACK
6
CONTINUOUS
10
97.1183
20
-169.374
11
97.1183
21
-167.374
0
LINE
8
BLACK
6
CONTINUOUS
10
97.1183
20
-167.66
11
97.2611
21
-167.517
0
LINE
8
BLACK
6
CONTINUOUS
10
97.2611
20
-167.517
11
97.5468
21
-167.374
0
LINE
8
BLACK
6
CONTINUOUS
10
97.5468
20
-167.374
11
97.9754
21
-167.374
0
LINE
8
BLACK
6
CONTINUOUS
10
97.9754
20
-167.374
11
98.2611
21
-167.517
0
LINE
8
BLACK
6
CONTINUOUS
10
98.2611
20
-167.517
11
98.404
21
-167.803
0
LINE
8
BLACK
6
CONTINUOUS
10
98.404
20
-167.803
11
98.404
21
-169.374
0
LINE
8
BLACK
6
CONTINUOUS
10
98.404
20
-167.803
11
98.5468
21
-167.517
0
LINE
8
BLACK
6
CONTINUOUS
10
98.5468
20
-167.517
11
98.8325
21
-167.374
0
LINE
8
BLACK
6
CONTINUOUS
10
98.8325
20
-167.374
11
99.2611
21
-167.374
0
LINE
8
BLACK
6
CONTINUOUS
10
99.2611
20
-167.374
11
99.5468
21
-167.517
0
LINE
8
BLACK
6
CONTINUOUS
10
99.5468
20
-167.517
11
99.6897
21
-167.803
0
LINE
8
BLACK
6
CONTINUOUS
10
99.6897
20
-167.803
11
99.6897
21
-169.374
0
LINE
8
BLACK
6
CONTINUOUS
10
101.118
20
-169.374
11
101.118
21
-167.374
0
LINE
8
BLACK
6
CONTINUOUS
10
101.118
20
-167.66
11
101.261
21
-167.517
0
LINE
8
BLACK
6
CONTINUOUS
10
101.261
20
-167.517
11
101.547
21
-167.374
0
LINE
8
BLACK
6
CONTINUOUS
10
101.547
20
-167.374
11
101.975
21
-167.374
0
LINE
8
BLACK
6
CONTINUOUS
10
101.975
20
-167.374
11
102.261
21
-167.517
0
LINE
8
BLACK
6
CONTINUOUS
10
102.261
20
-167.517
11
102.404
21
-167.803
0
LINE
8
BLACK
6
CONTINUOUS
10
102.404
20
-167.803
11
102.404
21
-169.374
0
LINE
8
BLACK
6
CONTINUOUS
10
102.404
20
-167.803
11
102.547
21
-167.517
0
LINE
8
BLACK
6
CONTINUOUS
10
102.547
20
-167.517
11
102.833
21
-167.374
0
LINE
8
BLACK
6
CONTINUOUS
10
102.833
20
-167.374
11
103.261
21
-167.374
0
LINE
8
BLACK
6
CONTINUOUS
10
103.261
20
-167.374
11
103.547
21
-167.517
0
LINE
8
BLACK
6
CONTINUOUS
10
103.547
20
-167.517
11
103.69
21
-167.803
0
LINE
8
BLACK
6
CONTINUOUS
10
103.69
20
-167.803
11
103.69
21
-169.374
0
LINE
8
BLACK
6
CONTINUOUS
10
109.547
20
-166.232
11
106.975
21
-170.089
0
LINE
8
BLACK
6
CONTINUOUS
10
113.404
20
-166.374
11
113.69
21
-166.374
0
LINE
8
BLACK
6
CONTINUOUS
10
113.69
20
-166.374
11
113.975
21
-166.517
0
LINE
8
BLACK
6
CONTINUOUS
10
113.975
20
-166.517
11
114.118
21
-166.66
0
LINE
8
BLACK
6
CONTINUOUS
10
114.118
20
-166.66
11
114.261
21
-166.946
0
LINE
8
BLACK
6
CONTINUOUS
10
114.261
20
-166.946
11
114.404
21
-167.517
0
LINE
8
BLACK
6
CONTINUOUS
10
114.404
20
-167.517
11
114.404
21
-168.232
0
LINE
8
BLACK
6
CONTINUOUS
10
114.404
20
-168.232
11
114.261
21
-168.803
0
LINE
8
BLACK
6
CONTINUOUS
10
114.261
20
-168.803
11
114.118
21
-169.089
0
LINE
8
BLACK
6
CONTINUOUS
10
114.118
20
-169.089
11
113.975
21
-169.232
0
LINE
8
BLACK
6
CONTINUOUS
10
113.975
20
-169.232
11
113.69
21
-169.374
0
LINE
8
BLACK
6
CONTINUOUS
10
113.69
20
-169.374
11
113.404
21
-169.374
0
LINE
8
BLACK
6
CONTINUOUS
10
113.404
20
-169.374
11
113.118
21
-169.232
0
LINE
8
BLACK
6
CONTINUOUS
10
113.118
20
-169.232
11
112.975
21
-169.089
0
LINE
8
BLACK
6
CONTINUOUS
10
112.975
20
-169.089
11
112.833
21
-168.803
0
LINE
8
BLACK
6
CONTINUOUS
10
112.833
20
-168.803
11
112.69
21
-168.232
0
LINE
8
BLACK
6
CONTINUOUS
10
112.69
20
-168.232
11
112.69
21
-167.517
0
LINE
8
BLACK
6
CONTINUOUS
10
112.69
20
-167.517
11
112.833
21
-166.946
0
LINE
8
BLACK
6
CONTINUOUS
10
112.833
20
-166.946
11
112.975
21
-166.66
0
LINE
8
BLACK
6
CONTINUOUS
10
112.975
20
-166.66
11
113.118
21
-166.517
0
LINE
8
BLACK
6
CONTINUOUS
10
113.118
20
-166.517
11
113.404
21
-166.374
0
LINE
8
BLACK
6
CONTINUOUS
10
115.69
20
-169.089
11
115.833
21
-169.232
0
LINE
8
BLACK
6
CONTINUOUS
10
115.833
20
-169.232
11
115.69
21
-169.374
0
LINE
8
BLACK
6
CONTINUOUS
10
115.69
20
-169.374
11
115.547
21
-169.232
0
LINE
8
BLACK
6
CONTINUOUS
10
115.547
20
-169.232
11
115.69
21
-169.089
0
LINE
8
BLACK
6
CONTINUOUS
10
115.69
20
-169.089
11
115.69
21
-169.374
0
LINE
8
BLACK
6
CONTINUOUS
10
117.69
20
-166.374
11
117.975
21
-166.374
0
LINE
8
BLACK
6
CONTINUOUS
10
117.975
20
-166.374
11
118.261
21
-166.517
0
LINE
8
BLACK
6
CONTINUOUS
10
118.261
20
-166.517
11
118.404
21
-166.66
0
LINE
8
BLACK
6
CONTINUOUS
10
118.404
20
-166.66
11
118.547
21
-166.946
0
LINE
8
BLACK
6
CONTINUOUS
10
118.547
20
-166.946
11
118.69
21
-167.517
0
LINE
8
BLACK
6
CONTINUOUS
10
118.69
20
-167.517
11
118.69
21
-168.232
0
LINE
8
BLACK
6
CONTINUOUS
10
118.69
20
-168.232
11
118.547
21
-168.803
0
LINE
8
BLACK
6
CONTINUOUS
10
118.547
20
-168.803
11
118.404
21
-169.089
0
LINE
8
BLACK
6
CONTINUOUS
10
118.404
20
-169.089
11
118.261
21
-169.232
0
LINE
8
BLACK
6
CONTINUOUS
10
118.261
20
-169.232
11
117.975
21
-169.374
0
LINE
8
BLACK
6
CONTINUOUS
10
117.975
20
-169.374
11
117.69
21
-169.374
0
LINE
8
BLACK
6
CONTINUOUS
10
117.69
20
-169.374
11
117.404
21
-169.232
0
LINE
8
BLACK
6
CONTINUOUS
10
117.404
20
-169.232
11
117.261
21
-169.089
0
LINE
8
BLACK
6
CONTINUOUS
10
117.261
20
-169.089
11
117.118
21
-168.803
0
LINE
8
BLACK
6
CONTINUOUS
10
117.118
20
-168.803
11
116.975
21
-168.232
0
LINE
8
BLACK
6
CONTINUOUS
10
116.975
20
-168.232
11
116.975
21
-167.517
0
LINE
8
BLACK
6
CONTINUOUS
10
116.975
20
-167.517
11
117.118
21
-166.946
0
LINE
8
BLACK
6
CONTINUOUS
10
117.118
20
-166.946
11
117.261
21
-166.66
0
LINE
8
BLACK
6
CONTINUOUS
10
117.261
20
-166.66
11
117.404
21
-166.517
0
LINE
8
BLACK
6
CONTINUOUS
10
117.404
20
-166.517
11
117.69
21
-166.374
0
LINE
8
BLACK
6
CONTINUOUS
10
119.69
20
-166.374
11
121.547
21
-166.374
0
LINE
8
BLACK
6
CONTINUOUS
10
121.547
20
-166.374
11
120.547
21
-167.517
0
LINE
8
BLACK
6
CONTINUOUS
10
120.547
20
-167.517
11
120.975
21
-167.517
0
LINE
8
BLACK
6
CONTINUOUS
10
120.975
20
-167.517
11
121.261
21
-167.66
0
LINE
8
BLACK
6
CONTINUOUS
10
121.261
20
-167.66
11
121.404
21
-167.803
0
LINE
8
BLACK
6
CONTINUOUS
10
121.404
20
-167.803
11
121.547
21
-168.089
0
LINE
8
BLACK
6
CONTINUOUS
10
121.547
20
-168.089
11
121.547
21
-168.803
0
LINE
8
BLACK
6
CONTINUOUS
10
121.547
20
-168.803
11
121.404
21
-169.089
0
LINE
8
BLACK
6
CONTINUOUS
10
121.404
20
-169.089
11
121.261
21
-169.232
0
LINE
8
BLACK
6
CONTINUOUS
10
121.261
20
-169.232
11
120.975
21
-169.374
0
LINE
8
BLACK
6
CONTINUOUS
10
120.975
20
-169.374
11
120.118
21
-169.374
0
LINE
8
BLACK
6
CONTINUOUS
10
120.118
20
-169.374
11
119.833
21
-169.232
0
LINE
8
BLACK
6
CONTINUOUS
10
119.833
20
-169.232
11
119.69
21
-169.089
0
LINE
8
BLACK
6
CONTINUOUS
10
124.261
20
-166.374
11
122.833
21
-166.374
0
LINE
8
BLACK
6
CONTINUOUS
10
122.833
20
-166.374
11
122.69
21
-167.803
0
LINE
8
BLACK
6
CONTINUOUS
10
122.69
20
-167.803
11
122.833
21
-167.66
0
LINE
8
BLACK
6
CONTINUOUS
10
122.833
20
-167.66
11
123.118
21
-167.517
0
LINE
8
BLACK
6
CONTINUOUS
10
123.118
20
-167.517
11
123.833
21
-167.517
0
LINE
8
BLACK
6
CONTINUOUS
10
123.833
20
-167.517
11
124.118
21
-167.66
0
LINE
8
BLACK
6
CONTINUOUS
10
124.118
20
-167.66
11
124.261
21
-167.803
0
LINE
8
BLACK
6
CONTINUOUS
10
124.261
20
-167.803
11
124.404
21
-168.089
0
LINE
8
BLACK
6
CONTINUOUS
10
124.404
20
-168.089
11
124.404
21
-168.803
0
LINE
8
BLACK
6
CONTINUOUS
10
124.404
20
-168.803
11
124.261
21
-169.089
0
LINE
8
BLACK
6
CONTINUOUS
10
124.261
20
-169.089
11
124.118
21
-169.232
0
LINE
8
BLACK
6
CONTINUOUS
10
124.118
20
-169.232
11
123.833
21
-169.374
0
LINE
8
BLACK
6
CONTINUOUS
10
123.833
20
-169.374
11
123.118
21
-169.374
0
LINE
8
BLACK
6
CONTINUOUS
10
123.118
20
-169.374
11
122.833
21
-169.232
0
LINE
8
BLACK
6
CONTINUOUS
10
122.833
20
-169.232
11
122.69
21
-169.089
0
LINE
8
BLACK
6
CONTINUOUS
10
125.547
20
-166.374
11
125.547
21
-166.946
0
LINE
8
BLACK
6
CONTINUOUS
10
126.69
20
-166.374
11
126.69
21
-166.946
0
LINE
8
BLACK
6
CONTINUOUS
10
131.118
20
-170.517
11
130.975
21
-170.374
0
LINE
8
BLACK
6
CONTINUOUS
10
130.975
20
-170.374
11
130.69
21
-169.946
0
LINE
8
BLACK
6
CONTINUOUS
10
130.69
20
-169.946
11
130.547
21
-169.66
0
LINE
8
BLACK
6
CONTINUOUS
10
130.547
20
-169.66
11
130.404
21
-169.232
0
LINE
8
BLACK
6
CONTINUOUS
10
130.404
20
-169.232
11
130.261
21
-168.517
0
LINE
8
BLACK
6
CONTINUOUS
10
130.261
20
-168.517
11
130.261
21
-167.946
0
LINE
8
BLACK
6
CONTINUOUS
10
130.261
20
-167.946
11
130.404
21
-167.232
0
LINE
8
BLACK
6
CONTINUOUS
10
130.404
20
-167.232
11
130.547
21
-166.803
0
LINE
8
BLACK
6
CONTINUOUS
10
130.547
20
-166.803
11
130.69
21
-166.517
0
LINE
8
BLACK
6
CONTINUOUS
10
130.69
20
-166.517
11
130.975
21
-166.089
0
LINE
8
BLACK
6
CONTINUOUS
10
130.975
20
-166.089
11
131.118
21
-165.946
0
LINE
8
BLACK
6
CONTINUOUS
10
131.975
20
-166.374
11
133.833
21
-166.374
0
LINE
8
BLACK
6
CONTINUOUS
10
133.833
20
-166.374
11
132.833
21
-167.517
0
LINE
8
BLACK
6
CONTINUOUS
10
132.833
20
-167.517
11
133.261
21
-167.517
0
LINE
8
BLACK
6
CONTINUOUS
10
133.261
20
-167.517
11
133.547
21
-167.66
0
LINE
8
BLACK
6
CONTINUOUS
10
133.547
20
-167.66
11
133.69
21
-167.803
0
LINE
8
BLACK
6
CONTINUOUS
10
133.69
20
-167.803
11
133.833
21
-168.089
0
LINE
8
BLACK
6
CONTINUOUS
10
133.833
20
-168.089
11
133.833
21
-168.803
0
LINE
8
BLACK
6
CONTINUOUS
10
133.833
20
-168.803
11
133.69
21
-169.089
0
LINE
8
BLACK
6
CONTINUOUS
10
133.69
20
-169.089
11
133.547
21
-169.232
0
LINE
8
BLACK
6
CONTINUOUS
10
133.547
20
-169.232
11
133.261
21
-169.374
0
LINE
8
BLACK
6
CONTINUOUS
10
133.261
20
-169.374
11
132.404
21
-169.374
0
LINE
8
BLACK
6
CONTINUOUS
10
132.404
20
-169.374
11
132.118
21
-169.232
0
LINE
8
BLACK
6
CONTINUOUS
10
132.118
20
-169.232
11
131.975
21
-169.089
0
LINE
8
BLACK
6
CONTINUOUS
10
136.404
20
-167.374
11
136.404
21
-169.374
0
LINE
8
BLACK
6
CONTINUOUS
10
135.69
20
-166.232
11
134.975
21
-168.374
0
LINE
8
BLACK
6
CONTINUOUS
10
134.975
20
-168.374
11
136.833
21
-168.374
0
LINE
8
BLACK
6
CONTINUOUS
10
140.261
20
-169.374
11
140.261
21
-166.374
0
LINE
8
BLACK
6
CONTINUOUS
10
141.547
20
-169.374
11
141.547
21
-167.803
0
LINE
8
BLACK
6
CONTINUOUS
10
141.547
20
-167.803
11
141.404
21
-167.517
0
LINE
8
BLACK
6
CONTINUOUS
10
141.404
20
-167.517
11
141.118
21
-167.374
0
LINE
8
BLACK
6
CONTINUOUS
10
141.118
20
-167.374
11
140.69
21
-167.374
0
LINE
8
BLACK
6
CONTINUOUS
10
140.69
20
-167.374
11
140.404
21
-167.517
0
LINE
8
BLACK
6
CONTINUOUS
10
140.404
20
-167.517
11
140.261
21
-167.66
0
LINE
8
BLACK
6
CONTINUOUS
10
143.404
20
-169.374
11
143.118
21
-169.232
0
LINE
8
BLACK
6
CONTINUOUS
10
143.118
20
-169.232
11
142.975
21
-169.089
0
LINE
8
BLACK
6
CONTINUOUS
10
142.975
20
-169.089
11
142.833
21
-168.803
0
LINE
8
BLACK
6
CONTINUOUS
10
142.833
20
-168.803
11
142.833
21
-167.946
0
LINE
8
BLACK
6
CONTINUOUS
10
142.833
20
-167.946
11
142.975
21
-167.66
0
LINE
8
BLACK
6
CONTINUOUS
10
142.975
20
-167.66
11
143.118
21
-167.517
0
LINE
8
BLACK
6
CONTINUOUS
10
143.118
20
-167.517
11
143.404
21
-167.374
0
LINE
8
BLACK
6
CONTINUOUS
10
143.404
20
-167.374
11
143.833
21
-167.374
0
LINE
8
BLACK
6
CONTINUOUS
10
143.833
20
-167.374
11
144.118
21
-167.517
0
LINE
8
BLACK
6
CONTINUOUS
10
144.118
20
-167.517
11
144.261
21
-167.66
0
LINE
8
BLACK
6
CONTINUOUS
10
144.261
20
-167.66
11
144.404
21
-167.946
0
LINE
8
BLACK
6
CONTINUOUS
10
144.404
20
-167.946
11
144.404
21
-168.803
0
LINE
8
BLACK
6
CONTINUOUS
10
144.404
20
-168.803
11
144.261
21
-169.089
0
LINE
8
BLACK
6
CONTINUOUS
10
144.261
20
-169.089
11
144.118
21
-169.232
0
LINE
8
BLACK
6
CONTINUOUS
10
144.118
20
-169.232
11
143.833
21
-169.374
0
LINE
8
BLACK
6
CONTINUOUS
10
143.833
20
-169.374
11
143.404
21
-169.374
0
LINE
8
BLACK
6
CONTINUOUS
10
146.118
20
-169.374
11
145.833
21
-169.232
0
LINE
8
BLACK
6
CONTINUOUS
10
145.833
20
-169.232
11
145.69
21
-168.946
0
LINE
8
BLACK
6
CONTINUOUS
10
145.69
20
-168.946
11
145.69
21
-166.374
0
LINE
8
BLACK
6
CONTINUOUS
10
148.404
20
-169.232
11
148.118
21
-169.374
0
LINE
8
BLACK
6
CONTINUOUS
10
148.118
20
-169.374
11
147.547
21
-169.374
0
LINE
8
BLACK
6
CONTINUOUS
10
147.547
20
-169.374
11
147.261
21
-169.232
0
LINE
8
BLACK
6
CONTINUOUS
10
147.261
20
-169.232
11
147.118
21
-168.946
0
LINE
8
BLACK
6
CONTINUOUS
10
147.118
20
-168.946
11
147.118
21
-167.803
0
LINE
8
BLACK
6
CONTINUOUS
10
147.118
20
-167.803
11
147.261
21
-167.517
0
LINE
8
BLACK
6
CONTINUOUS
10
147.261
20
-167.517
11
147.547
21
-167.374
0
LINE
8
BLACK
6
CONTINUOUS
10
147.547
20
-167.374
11
148.118
21
-167.374
0
LINE
8
BLACK
6
CONTINUOUS
10
148.118
20
-167.374
11
148.404
21
-167.517
0
LINE
8
BLACK
6
CONTINUOUS
10
148.404
20
-167.517
11
148.547
21
-167.803
0
LINE
8
BLACK
6
CONTINUOUS
10
148.547
20
-167.803
11
148.547
21
-168.089
0
LINE
8
BLACK
6
CONTINUOUS
10
148.547
20
-168.089
11
147.118
21
-168.374
0
LINE
8
BLACK
6
CONTINUOUS
10
149.69
20
-169.232
11
149.975
21
-169.374
0
LINE
8
BLACK
6
CONTINUOUS
10
149.975
20
-169.374
11
150.547
21
-169.374
0
LINE
8
BLACK
6
CONTINUOUS
10
150.547
20
-169.374
11
150.833
21
-169.232
0
LINE
8
BLACK
6
CONTINUOUS
10
150.833
20
-169.232
11
150.975
21
-168.946
0
LINE
8
BLACK
6
CONTINUOUS
10
150.975
20
-168.946
11
150.975
21
-168.803
0
LINE
8
BLACK
6
CONTINUOUS
10
150.975
20
-168.803
11
150.833
21
-168.517
0
LINE
8
BLACK
6
CONTINUOUS
10
150.833
20
-168.517
11
150.547
21
-168.374
0
LINE
8
BLACK
6
CONTINUOUS
10
150.547
20
-168.374
11
150.118
21
-168.374
0
LINE
8
BLACK
6
CONTINUOUS
10
150.118
20
-168.374
11
149.833
21
-168.232
0
LINE
8
BLACK
6
CONTINUOUS
10
149.833
20
-168.232
11
149.69
21
-167.946
0
LINE
8
BLACK
6
CONTINUOUS
10
149.69
20
-167.946
11
149.69
21
-167.803
0
LINE
8
BLACK
6
CONTINUOUS
10
149.69
20
-167.803
11
149.833
21
-167.517
0
LINE
8
BLACK
6
CONTINUOUS
10
149.833
20
-167.517
11
150.118
21
-167.374
0
LINE
8
BLACK
6
CONTINUOUS
10
150.118
20
-167.374
11
150.547
21
-167.374
0
LINE
8
BLACK
6
CONTINUOUS
10
150.547
20
-167.374
11
150.833
21
-167.517
0
LINE
8
BLACK
6
CONTINUOUS
10
151.975
20
-170.517
11
152.118
21
-170.374
0
LINE
8
BLACK
6
CONTINUOUS
10
152.118
20
-170.374
11
152.404
21
-169.946
0
LINE
8
BLACK
6
CONTINUOUS
10
152.404
20
-169.946
11
152.547
21
-169.66
0
LINE
8
BLACK
6
CONTINUOUS
10
152.547
20
-169.66
11
152.69
21
-169.232
0
LINE
8
BLACK
6
CONTINUOUS
10
152.69
20
-169.232
11
152.833
21
-168.517
0
LINE
8
BLACK
6
CONTINUOUS
10
152.833
20
-168.517
11
152.833
21
-167.946
0
LINE
8
BLACK
6
CONTINUOUS
10
152.833
20
-167.946
11
152.69
21
-167.232
0
LINE
8
BLACK
6
CONTINUOUS
10
152.69
20
-167.232
11
152.547
21
-166.803
0
LINE
8
BLACK
6
CONTINUOUS
10
152.547
20
-166.803
11
152.404
21
-166.517
0
LINE
8
BLACK
6
CONTINUOUS
10
152.404
20
-166.517
11
152.118
21
-166.089
0
LINE
8
BLACK
6
CONTINUOUS
10
152.118
20
-166.089
11
151.975
21
-165.946
0
LINE
8
BLACK
6
CONTINUOUS
10
83.754
20
-172.477
11
84.254
21
-171.977
0
LINE
8
BLACK
6
CONTINUOUS
10
84.254
20
-171.977
11
83.754
21
-171.477
0
LINE
8
BLACK
6
CONTINUOUS
10
83.754
20
-171.477
11
83.254
21
-171.977
0
LINE
8
BLACK
6
CONTINUOUS
10
83.254
20
-171.977
11
83.754
21
-172.477
0
LINE
8
BLACK
6
CONTINUOUS
10
88.6897
20
-173.334
11
86.9754
21
-173.334
0
LINE
8
BLACK
6
CONTINUOUS
10
87.8325
20
-173.334
11
87.8325
21
-170.334
0
LINE
8
BLACK
6
CONTINUOUS
10
87.8325
20
-170.334
11
87.5468
21
-170.763
0
LINE
8
BLACK
6
CONTINUOUS
10
87.5468
20
-170.763
11
87.2611
21
-171.049
0
LINE
8
BLACK
6
CONTINUOUS
10
87.2611
20
-171.049
11
86.9754
21
-171.192
0
LINE
8
BLACK
6
CONTINUOUS
10
89.9754
20
-173.049
11
90.1183
21
-173.192
0
LINE
8
BLACK
6
CONTINUOUS
10
90.1183
20
-173.192
11
89.9754
21
-173.334
0
LINE
8
BLACK
6
CONTINUOUS
10
89.9754
20
-173.334
11
89.8325
21
-173.192
0
LINE
8
BLACK
6
CONTINUOUS
10
89.8325
20
-173.192
11
89.9754
21
-173.049
0
LINE
8
BLACK
6
CONTINUOUS
10
89.9754
20
-173.049
11
89.9754
21
-173.334
0
LINE
8
BLACK
6
CONTINUOUS
10
91.9754
20
-170.334
11
92.2611
21
-170.334
0
LINE
8
BLACK
6
CONTINUOUS
10
92.2611
20
-170.334
11
92.5468
21
-170.477
0
LINE
8
BLACK
6
CONTINUOUS
10
92.5468
20
-170.477
11
92.6897
21
-170.62
0
LINE
8
BLACK
6
CONTINUOUS
10
92.6897
20
-170.62
11
92.8325
21
-170.906
0
LINE
8
BLACK
6
CONTINUOUS
10
92.8325
20
-170.906
11
92.9754
21
-171.477
0
LINE
8
BLACK
6
CONTINUOUS
10
92.9754
20
-171.477
11
92.9754
21
-172.192
0
LINE
8
BLACK
6
CONTINUOUS
10
92.9754
20
-172.192
11
92.8325
21
-172.763
0
LINE
8
BLACK
6
CONTINUOUS
10
92.8325
20
-172.763
11
92.6897
21
-173.049
0
LINE
8
BLACK
6
CONTINUOUS
10
92.6897
20
-173.049
11
92.5468
21
-173.192
0
LINE
8
BLACK
6
CONTINUOUS
10
92.5468
20
-173.192
11
92.2611
21
-173.334
0
LINE
8
BLACK
6
CONTINUOUS
10
92.2611
20
-173.334
11
91.9754
21
-173.334
0
LINE
8
BLACK
6
CONTINUOUS
10
91.9754
20
-173.334
11
91.6897
21
-173.192
0
LINE
8
BLACK
6
CONTINUOUS
10
91.6897
20
-173.192
11
91.5468
21
-173.049
0
LINE
8
BLACK
6
CONTINUOUS
10
91.5468
20
-173.049
11
91.404
21
-172.763
0
LINE
8
BLACK
6
CONTINUOUS
10
91.404
20
-172.763
11
91.2611
21
-172.192
0
LINE
8
BLACK
6
CONTINUOUS
10
91.2611
20
-172.192
11
91.2611
21
-171.477
0
LINE
8
BLACK
6
CONTINUOUS
10
91.2611
20
-171.477
11
91.404
21
-170.906
0
LINE
8
BLACK
6
CONTINUOUS
10
91.404
20
-170.906
11
91.5468
21
-170.62
0
LINE
8
BLACK
6
CONTINUOUS
10
91.5468
20
-170.62
11
91.6897
21
-170.477
0
LINE
8
BLACK
6
CONTINUOUS
10
91.6897
20
-170.477
11
91.9754
21
-170.334
0
LINE
8
BLACK
6
CONTINUOUS
10
94.8325
20
-170.334
11
95.1183
21
-170.334
0
LINE
8
BLACK
6
CONTINUOUS
10
95.1183
20
-170.334
11
95.404
21
-170.477
0
LINE
8
BLACK
6
CONTINUOUS
10
95.404
20
-170.477
11
95.5468
21
-170.62
0
LINE
8
BLACK
6
CONTINUOUS
10
95.5468
20
-170.62
11
95.6897
21
-170.906
0
LINE
8
BLACK
6
CONTINUOUS
10
95.6897
20
-170.906
11
95.8325
21
-171.477
0
LINE
8
BLACK
6
CONTINUOUS
10
95.8325
20
-171.477
11
95.8325
21
-172.192
0
LINE
8
BLACK
6
CONTINUOUS
10
95.8325
20
-172.192
11
95.6897
21
-172.763
0
LINE
8
BLACK
6
CONTINUOUS
10
95.6897
20
-172.763
11
95.5468
21
-173.049
0
LINE
8
BLACK
6
CONTINUOUS
10
95.5468
20
-173.049
11
95.404
21
-173.192
0
LINE
8
BLACK
6
CONTINUOUS
10
95.404
20
-173.192
11
95.1183
21
-173.334
0
LINE
8
BLACK
6
CONTINUOUS
10
95.1183
20
-173.334
11
94.8325
21
-173.334
0
LINE
8
BLACK
6
CONTINUOUS
10
94.8325
20
-173.334
11
94.5468
21
-173.192
0
LINE
8
BLACK
6
CONTINUOUS
10
94.5468
20
-173.192
11
94.404
21
-173.049
0
LINE
8
BLACK
6
CONTINUOUS
10
94.404
20
-173.049
11
94.2611
21
-172.763
0
LINE
8
BLACK
6
CONTINUOUS
10
94.2611
20
-172.763
11
94.1183
21
-172.192
0
LINE
8
BLACK
6
CONTINUOUS
10
94.1183
20
-172.192
11
94.1183
21
-171.477
0
LINE
8
BLACK
6
CONTINUOUS
10
94.1183
20
-171.477
11
94.2611
21
-170.906
0
LINE
8
BLACK
6
CONTINUOUS
10
94.2611
20
-170.906
11
94.404
21
-170.62
0
LINE
8
BLACK
6
CONTINUOUS
10
94.404
20
-170.62
11
94.5468
21
-170.477
0
LINE
8
BLACK
6
CONTINUOUS
10
94.5468
20
-170.477
11
94.8325
21
-170.334
0
LINE
8
BLACK
6
CONTINUOUS
10
97.1183
20
-173.334
11
97.1183
21
-171.334
0
LINE
8
BLACK
6
CONTINUOUS
10
97.1183
20
-171.62
11
97.2611
21
-171.477
0
LINE
8
BLACK
6
CONTINUOUS
10
97.2611
20
-171.477
11
97.5468
21
-171.334
0
LINE
8
BLACK
6
CONTINUOUS
10
97.5468
20
-171.334
11
97.9754
21
-171.334
0
LINE
8
BLACK
6
CONTINUOUS
10
97.9754
20
-171.334
11
98.2611
21
-171.477
0
LINE
8
BLACK
6
CONTINUOUS
10
98.2611
20
-171.477
11
98.404
21
-171.763
0
LINE
8
BLACK
6
CONTINUOUS
10
98.404
20
-171.763
11
98.404
21
-173.334
0
LINE
8
BLACK
6
CONTINUOUS
10
98.404
20
-171.763
11
98.5468
21
-171.477
0
LINE
8
BLACK
6
CONTINUOUS
10
98.5468
20
-171.477
11
98.8325
21
-171.334
0
LINE
8
BLACK
6
CONTINUOUS
10
98.8325
20
-171.334
11
99.2611
21
-171.334
0
LINE
8
BLACK
6
CONTINUOUS
10
99.2611
20
-171.334
11
99.5468
21
-171.477
0
LINE
8
BLACK
6
CONTINUOUS
10
99.5468
20
-171.477
11
99.6897
21
-171.763
0
LINE
8
BLACK
6
CONTINUOUS
10
99.6897
20
-171.763
11
99.6897
21
-173.334
0
LINE
8
BLACK
6
CONTINUOUS
10
101.118
20
-173.334
11
101.118
21
-171.334
0
LINE
8
BLACK
6
CONTINUOUS
10
101.118
20
-171.62
11
101.261
21
-171.477
0
LINE
8
BLACK
6
CONTINUOUS
10
101.261
20
-171.477
11
101.547
21
-171.334
0
LINE
8
BLACK
6
CONTINUOUS
10
101.547
20
-171.334
11
101.975
21
-171.334
0
LINE
8
BLACK
6
CONTINUOUS
10
101.975
20
-171.334
11
102.261
21
-171.477
0
LINE
8
BLACK
6
CONTINUOUS
10
102.261
20
-171.477
11
102.404
21
-171.763
0
LINE
8
BLACK
6
CONTINUOUS
10
102.404
20
-171.763
11
102.404
21
-173.334
0
LINE
8
BLACK
6
CONTINUOUS
10
102.404
20
-171.763
11
102.547
21
-171.477
0
LINE
8
BLACK
6
CONTINUOUS
10
102.547
20
-171.477
11
102.833
21
-171.334
0
LINE
8
BLACK
6
CONTINUOUS
10
102.833
20
-171.334
11
103.261
21
-171.334
0
LINE
8
BLACK
6
CONTINUOUS
10
103.261
20
-171.334
11
103.547
21
-171.477
0
LINE
8
BLACK
6
CONTINUOUS
10
103.547
20
-171.477
11
103.69
21
-171.763
0
LINE
8
BLACK
6
CONTINUOUS
10
103.69
20
-171.763
11
103.69
21
-173.334
0
LINE
8
BLACK
6
CONTINUOUS
10
109.547
20
-170.192
11
106.975
21
-174.049
0
LINE
8
BLACK
6
CONTINUOUS
10
113.404
20
-170.334
11
113.69
21
-170.334
0
LINE
8
BLACK
6
CONTINUOUS
10
113.69
20
-170.334
11
113.975
21
-170.477
0
LINE
8
BLACK
6
CONTINUOUS
10
113.975
20
-170.477
11
114.118
21
-170.62
0
LINE
8
BLACK
6
CONTINUOUS
10
114.118
20
-170.62
11
114.261
21
-170.906
0
LINE
8
BLACK
6
CONTINUOUS
10
114.261
20
-170.906
11
114.404
21
-171.477
0
LINE
8
BLACK
6
CONTINUOUS
10
114.404
20
-171.477
11
114.404
21
-172.192
0
LINE
8
BLACK
6
CONTINUOUS
10
114.404
20
-172.192
11
114.261
21
-172.763
0
LINE
8
BLACK
6
CONTINUOUS
10
114.261
20
-172.763
11
114.118
21
-173.049
0
LINE
8
BLACK
6
CONTINUOUS
10
114.118
20
-173.049
11
113.975
21
-173.192
0
LINE
8
BLACK
6
CONTINUOUS
10
113.975
20
-173.192
11
113.69
21
-173.334
0
LINE
8
BLACK
6
CONTINUOUS
10
113.69
20
-173.334
11
113.404
21
-173.334
0
LINE
8
BLACK
6
CONTINUOUS
10
113.404
20
-173.334
11
113.118
21
-173.192
0
LINE
8
BLACK
6
CONTINUOUS
10
113.118
20
-173.192
11
112.975
21
-173.049
0
LINE
8
BLACK
6
CONTINUOUS
10
112.975
20
-173.049
11
112.833
21
-172.763
0
LINE
8
BLACK
6
CONTINUOUS
10
112.833
20
-172.763
11
112.69
21
-172.192
0
LINE
8
BLACK
6
CONTINUOUS
10
112.69
20
-172.192
11
112.69
21
-171.477
0
LINE
8
BLACK
6
CONTINUOUS
10
112.69
20
-171.477
11
112.833
21
-170.906
0
LINE
8
BLACK
6
CONTINUOUS
10
112.833
20
-170.906
11
112.975
21
-170.62
0
LINE
8
BLACK
6
CONTINUOUS
10
112.975
20
-170.62
11
113.118
21
-170.477
0
LINE
8
BLACK
6
CONTINUOUS
10
113.118
20
-170.477
11
113.404
21
-170.334
0
LINE
8
BLACK
6
CONTINUOUS
10
115.69
20
-173.049
11
115.833
21
-173.192
0
LINE
8
BLACK
6
CONTINUOUS
10
115.833
20
-173.192
11
115.69
21
-173.334
0
LINE
8
BLACK
6
CONTINUOUS
10
115.69
20
-173.334
11
115.547
21
-173.192
0
LINE
8
BLACK
6
CONTINUOUS
10
115.547
20
-173.192
11
115.69
21
-173.049
0
LINE
8
BLACK
6
CONTINUOUS
10
115.69
20
-173.049
11
115.69
21
-173.334
0
LINE
8
BLACK
6
CONTINUOUS
10
117.69
20
-170.334
11
117.975
21
-170.334
0
LINE
8
BLACK
6
CONTINUOUS
10
117.975
20
-170.334
11
118.261
21
-170.477
0
LINE
8
BLACK
6
CONTINUOUS
10
118.261
20
-170.477
11
118.404
21
-170.62
0
LINE
8
BLACK
6
CONTINUOUS
10
118.404
20
-170.62
11
118.547
21
-170.906
0
LINE
8
BLACK
6
CONTINUOUS
10
118.547
20
-170.906
11
118.69
21
-171.477
0
LINE
8
BLACK
6
CONTINUOUS
10
118.69
20
-171.477
11
118.69
21
-172.192
0
LINE
8
BLACK
6
CONTINUOUS
10
118.69
20
-172.192
11
118.547
21
-172.763
0
LINE
8
BLACK
6
CONTINUOUS
10
118.547
20
-172.763
11
118.404
21
-173.049
0
LINE
8
BLACK
6
CONTINUOUS
10
118.404
20
-173.049
11
118.261
21
-173.192
0
LINE
8
BLACK
6
CONTINUOUS
10
118.261
20
-173.192
11
117.975
21
-173.334
0
LINE
8
BLACK
6
CONTINUOUS
10
117.975
20
-173.334
11
117.69
21
-173.334
0
LINE
8
BLACK
6
CONTINUOUS
10
117.69
20
-173.334
11
117.404
21
-173.192
0
LINE
8
BLACK
6
CONTINUOUS
10
117.404
20
-173.192
11
117.261
21
-173.049
0
LINE
8
BLACK
6
CONTINUOUS
10
117.261
20
-173.049
11
117.118
21
-172.763
0
LINE
8
BLACK
6
CONTINUOUS
10
117.118
20
-172.763
11
116.975
21
-172.192
0
LINE
8
BLACK
6
CONTINUOUS
10
116.975
20
-172.192
11
116.975
21
-171.477
0
LINE
8
BLACK
6
CONTINUOUS
10
116.975
20
-171.477
11
117.118
21
-170.906
0
LINE
8
BLACK
6
CONTINUOUS
10
117.118
20
-170.906
11
117.261
21
-170.62
0
LINE
8
BLACK
6
CONTINUOUS
10
117.261
20
-170.62
11
117.404
21
-170.477
0
LINE
8
BLACK
6
CONTINUOUS
10
117.404
20
-170.477
11
117.69
21
-170.334
0
LINE
8
BLACK
6
CONTINUOUS
10
119.69
20
-170.334
11
121.547
21
-170.334
0
LINE
8
BLACK
6
CONTINUOUS
10
121.547
20
-170.334
11
120.547
21
-171.477
0
LINE
8
BLACK
6
CONTINUOUS
10
120.547
20
-171.477
11
120.975
21
-171.477
0
LINE
8
BLACK
6
CONTINUOUS
10
120.975
20
-171.477
11
121.261
21
-171.62
0
LINE
8
BLACK
6
CONTINUOUS
10
121.261
20
-171.62
11
121.404
21
-171.763
0
LINE
8
BLACK
6
CONTINUOUS
10
121.404
20
-171.763
11
121.547
21
-172.049
0
LINE
8
BLACK
6
CONTINUOUS
10
121.547
20
-172.049
11
121.547
21
-172.763
0
LINE
8
BLACK
6
CONTINUOUS
10
121.547
20
-172.763
11
121.404
21
-173.049
0
LINE
8
BLACK
6
CONTINUOUS
10
121.404
20
-173.049
11
121.261
21
-173.192
0
LINE
8
BLACK
6
CONTINUOUS
10
121.261
20
-173.192
11
120.975
21
-173.334
0
LINE
8
BLACK
6
CONTINUOUS
10
120.975
20
-173.334
11
120.118
21
-173.334
0
LINE
8
BLACK
6
CONTINUOUS
10
120.118
20
-173.334
11
119.833
21
-173.192
0
LINE
8
BLACK
6
CONTINUOUS
10
119.833
20
-173.192
11
119.69
21
-173.049
0
LINE
8
BLACK
6
CONTINUOUS
10
122.975
20
-173.334
11
123.547
21
-173.334
0
LINE
8
BLACK
6
CONTINUOUS
10
123.547
20
-173.334
11
123.833
21
-173.192
0
LINE
8
BLACK
6
CONTINUOUS
10
123.833
20
-173.192
11
123.975
21
-173.049
0
LINE
8
BLACK
6
CONTINUOUS
10
123.975
20
-173.049
11
124.261
21
-172.62
0
LINE
8
BLACK
6
CONTINUOUS
10
124.261
20
-172.62
11
124.404
21
-172.049
0
LINE
8
BLACK
6
CONTINUOUS
10
124.404
20
-172.049
11
124.404
21
-170.906
0
LINE
8
BLACK
6
CONTINUOUS
10
124.404
20
-170.906
11
124.261
21
-170.62
0
LINE
8
BLACK
6
CONTINUOUS
10
124.261
20
-170.62
11
124.118
21
-170.477
0
LINE
8
BLACK
6
CONTINUOUS
10
124.118
20
-170.477
11
123.833
21
-170.334
0
LINE
8
BLACK
6
CONTINUOUS
10
123.833
20
-170.334
11
123.261
21
-170.334
0
LINE
8
BLACK
6
CONTINUOUS
10
123.261
20
-170.334
11
122.975
21
-170.477
0
LINE
8
BLACK
6
CONTINUOUS
10
122.975
20
-170.477
11
122.833
21
-170.62
0
LINE
8
BLACK
6
CONTINUOUS
10
122.833
20
-170.62
11
122.69
21
-170.906
0
LINE
8
BLACK
6
CONTINUOUS
10
122.69
20
-170.906
11
122.69
21
-171.62
0
LINE
8
BLACK
6
CONTINUOUS
10
122.69
20
-171.62
11
122.833
21
-171.906
0
LINE
8
BLACK
6
CONTINUOUS
10
122.833
20
-171.906
11
122.975
21
-172.049
0
LINE
8
BLACK
6
CONTINUOUS
10
122.975
20
-172.049
11
123.261
21
-172.192
0
LINE
8
BLACK
6
CONTINUOUS
10
123.261
20
-172.192
11
123.833
21
-172.192
0
LINE
8
BLACK
6
CONTINUOUS
10
123.833
20
-172.192
11
124.118
21
-172.049
0
LINE
8
BLACK
6
CONTINUOUS
10
124.118
20
-172.049
11
124.261
21
-171.906
0
LINE
8
BLACK
6
CONTINUOUS
10
124.261
20
-171.906
11
124.404
21
-171.62
0
LINE
8
BLACK
6
CONTINUOUS
10
125.547
20
-170.334
11
125.547
21
-170.906
0
LINE
8
BLACK
6
CONTINUOUS
10
126.69
20
-170.334
11
126.69
21
-170.906
0
LINE
8
BLACK
6
CONTINUOUS
10
131.118
20
-174.477
11
130.975
21
-174.334
0
LINE
8
BLACK
6
CONTINUOUS
10
130.975
20
-174.334
11
130.69
21
-173.906
0
LINE
8
BLACK
6
CONTINUOUS
10
130.69
20
-173.906
11
130.547
21
-173.62
0
LINE
8
BLACK
6
CONTINUOUS
10
130.547
20
-173.62
11
130.404
21
-173.192
0
LINE
8
BLACK
6
CONTINUOUS
10
130.404
20
-173.192
11
130.261
21
-172.477
0
LINE
8
BLACK
6
CONTINUOUS
10
130.261
20
-172.477
11
130.261
21
-171.906
0
LINE
8
BLACK
6
CONTINUOUS
10
130.261
20
-171.906
11
130.404
21
-171.192
0
LINE
8
BLACK
6
CONTINUOUS
10
130.404
20
-171.192
11
130.547
21
-170.763
0
LINE
8
BLACK
6
CONTINUOUS
10
130.547
20
-170.763
11
130.69
21
-170.477
0
LINE
8
BLACK
6
CONTINUOUS
10
130.69
20
-170.477
11
130.975
21
-170.049
0
LINE
8
BLACK
6
CONTINUOUS
10
130.975
20
-170.049
11
131.118
21
-169.906
0
LINE
8
BLACK
6
CONTINUOUS
10
132.118
20
-170.62
11
132.261
21
-170.477
0
LINE
8
BLACK
6
CONTINUOUS
10
132.261
20
-170.477
11
132.547
21
-170.334
0
LINE
8
BLACK
6
CONTINUOUS
10
132.547
20
-170.334
11
133.261
21
-170.334
0
LINE
8
BLACK
6
CONTINUOUS
10
133.261
20
-170.334
11
133.547
21
-170.477
0
LINE
8
BLACK
6
CONTINUOUS
10
133.547
20
-170.477
11
133.69
21
-170.62
0
LINE
8
BLACK
6
CONTINUOUS
10
133.69
20
-170.62
11
133.833
21
-170.906
0
LINE
8
BLACK
6
CONTINUOUS
10
133.833
20
-170.906
11
133.833
21
-171.192
0
LINE
8
BLACK
6
CONTINUOUS
10
133.833
20
-171.192
11
133.69
21
-171.62
0
LINE
8
BLACK
6
CONTINUOUS
10
133.69
20
-171.62
11
131.975
21
-173.334
0
LINE
8
BLACK
6
CONTINUOUS
10
131.975
20
-173.334
11
133.833
21
-173.334
0
LINE
8
BLACK
6
CONTINUOUS
10
135.69
20
-170.334
11
135.975
21
-170.334
0
LINE
8
BLACK
6
CONTINUOUS
10
135.975
20
-170.334
11
136.261
21
-170.477
0
LINE
8
BLACK
6
CONTINUOUS
10
136.261
20
-170.477
11
136.404
21
-170.62
0
LINE
8
BLACK
6
CONTINUOUS
10
136.404
20
-170.62
11
136.547
21
-170.906
0
LINE
8
BLACK
6
CONTINUOUS
10
136.547
20
-170.906
11
136.69
21
-171.477
0
LINE
8
BLACK
6
CONTINUOUS
10
136.69
20
-171.477
11
136.69
21
-172.192
0
LINE
8
BLACK
6
CONTINUOUS
10
136.69
20
-172.192
11
136.547
21
-172.763
0
LINE
8
BLACK
6
CONTINUOUS
10
136.547
20
-172.763
11
136.404
21
-173.049
0
LINE
8
BLACK
6
CONTINUOUS
10
136.404
20
-173.049
11
136.261
21
-173.192
0
LINE
8
BLACK
6
CONTINUOUS
10
136.261
20
-173.192
11
135.975
21
-173.334
0
LINE
8
BLACK
6
CONTINUOUS
10
135.975
20
-173.334
11
135.69
21
-173.334
0
LINE
8
BLACK
6
CONTINUOUS
10
135.69
20
-173.334
11
135.404
21
-173.192
0
LINE
8
BLACK
6
CONTINUOUS
10
135.404
20
-173.192
11
135.261
21
-173.049
0
LINE
8
BLACK
6
CONTINUOUS
10
135.261
20
-173.049
11
135.118
21
-172.763
0
LINE
8
BLACK
6
CONTINUOUS
10
135.118
20
-172.763
11
134.975
21
-172.192
0
LINE
8
BLACK
6
CONTINUOUS
10
134.975
20
-172.192
11
134.975
21
-171.477
0
LINE
8
BLACK
6
CONTINUOUS
10
134.975
20
-171.477
11
135.118
21
-170.906
0
LINE
8
BLACK
6
CONTINUOUS
10
135.118
20
-170.906
11
135.261
21
-170.62
0
LINE
8
BLACK
6
CONTINUOUS
10
135.261
20
-170.62
11
135.404
21
-170.477
0
LINE
8
BLACK
6
CONTINUOUS
10
135.404
20
-170.477
11
135.69
21
-170.334
0
LINE
8
BLACK
6
CONTINUOUS
10
140.261
20
-173.334
11
140.261
21
-170.334
0
LINE
8
BLACK
6
CONTINUOUS
10
141.547
20
-173.334
11
141.547
21
-171.763
0
LINE
8
BLACK
6
CONTINUOUS
10
141.547
20
-171.763
11
141.404
21
-171.477
0
LINE
8
BLACK
6
CONTINUOUS
10
141.404
20
-171.477
11
141.118
21
-171.334
0
LINE
8
BLACK
6
CONTINUOUS
10
141.118
20
-171.334
11
140.69
21
-171.334
0
LINE
8
BLACK
6
CONTINUOUS
10
140.69
20
-171.334
11
140.404
21
-171.477
0
LINE
8
BLACK
6
CONTINUOUS
10
140.404
20
-171.477
11
140.261
21
-171.62
0
LINE
8
BLACK
6
CONTINUOUS
10
143.404
20
-173.334
11
143.118
21
-173.192
0
LINE
8
BLACK
6
CONTINUOUS
10
143.118
20
-173.192
11
142.975
21
-173.049
0
LINE
8
BLACK
6
CONTINUOUS
10
142.975
20
-173.049
11
142.833
21
-172.763
0
LINE
8
BLACK
6
CONTINUOUS
10
142.833
20
-172.763
11
142.833
21
-171.906
0
LINE
8
BLACK
6
CONTINUOUS
10
142.833
20
-171.906
11
142.975
21
-171.62
0
LINE
8
BLACK
6
CONTINUOUS
10
142.975
20
-171.62
11
143.118
21
-171.477
0
LINE
8
BLACK
6
CONTINUOUS
10
143.118
20
-171.477
11
143.404
21
-171.334
0
LINE
8
BLACK
6
CONTINUOUS
10
143.404
20
-171.334
11
143.833
21
-171.334
0
LINE
8
BLACK
6
CONTINUOUS
10
143.833
20
-171.334
11
144.118
21
-171.477
0
LINE
8
BLACK
6
CONTINUOUS
10
144.118
20
-171.477
11
144.261
21
-171.62
0
LINE
8
BLACK
6
CONTINUOUS
10
144.261
20
-171.62
11
144.404
21
-171.906
0
LINE
8
BLACK
6
CONTINUOUS
10
144.404
20
-171.906
11
144.404
21
-172.763
0
LINE
8
BLACK
6
CONTINUOUS
10
144.404
20
-172.763
11
144.261
21
-173.049
0
LINE
8
BLACK
6
CONTINUOUS
10
144.261
20
-173.049
11
144.118
21
-173.192
0
LINE
8
BLACK
6
CONTINUOUS
10
144.118
20
-173.192
11
143.833
21
-173.334
0
LINE
8
BLACK
6
CONTINUOUS
10
143.833
20
-173.334
11
143.404
21
-173.334
0
LINE
8
BLACK
6
CONTINUOUS
10
146.118
20
-173.334
11
145.833
21
-173.192
0
LINE
8
BLACK
6
CONTINUOUS
10
145.833
20
-173.192
11
145.69
21
-172.906
0
LINE
8
BLACK
6
CONTINUOUS
10
145.69
20
-172.906
11
145.69
21
-170.334
0
LINE
8
BLACK
6
CONTINUOUS
10
148.404
20
-173.192
11
148.118
21
-173.334
0
LINE
8
BLACK
6
CONTINUOUS
10
148.118
20
-173.334
11
147.547
21
-173.334
0
LINE
8
BLACK
6
CONTINUOUS
10
147.547
20
-173.334
11
147.261
21
-173.192
0
LINE
8
BLACK
6
CONTINUOUS
10
147.261
20
-173.192
11
147.118
21
-172.906
0
LINE
8
BLACK
6
CONTINUOUS
10
147.118
20
-172.906
11
147.118
21
-171.763
0
LINE
8
BLACK
6
CONTINUOUS
10
147.118
20
-171.763
11
147.261
21
-171.477
0
LINE
8
BLACK
6
CONTINUOUS
10
147.261
20
-171.477
11
147.547
21
-171.334
0
LINE
8
BLACK
6
CONTINUOUS
10
147.547
20
-171.334
11
148.118
21
-171.334
0
LINE
8
BLACK
6
CONTINUOUS
10
148.118
20
-171.334
11
148.404
21
-171.477
0
LINE
8
BLACK
6
CONTINUOUS
10
148.404
20
-171.477
11
148.547
21
-171.763
0
LINE
8
BLACK
6
CONTINUOUS
10
148.547
20
-171.763
11
148.547
21
-172.049
0
LINE
8
BLACK
6
CONTINUOUS
10
148.547
20
-172.049
11
147.118
21
-172.334
0
LINE
8
BLACK
6
CONTINUOUS
10
149.69
20
-173.192
11
149.975
21
-173.334
0
LINE
8
BLACK
6
CONTINUOUS
10
149.975
20
-173.334
11
150.547
21
-173.334
0
LINE
8
BLACK
6
CONTINUOUS
10
150.547
20
-173.334
11
150.833
21
-173.192
0
LINE
8
BLACK
6
CONTINUOUS
10
150.833
20
-173.192
11
150.975
21
-172.906
0
LINE
8
BLACK
6
CONTINUOUS
10
150.975
20
-172.906
11
150.975
21
-172.763
0
LINE
8
BLACK
6
CONTINUOUS
10
150.975
20
-172.763
11
150.833
21
-172.477
0
LINE
8
BLACK
6
CONTINUOUS
10
150.833
20
-172.477
11
150.547
21
-172.334
0
LINE
8
BLACK
6
CONTINUOUS
10
150.547
20
-172.334
11
150.118
21
-172.334
0
LINE
8
BLACK
6
CONTINUOUS
10
150.118
20
-172.334
11
149.833
21
-172.192
0
LINE
8
BLACK
6
CONTINUOUS
10
149.833
20
-172.192
11
149.69
21
-171.906
0
LINE
8
BLACK
6
CONTINUOUS
10
149.69
20
-171.906
11
149.69
21
-171.763
0
LINE
8
BLACK
6
CONTINUOUS
10
149.69
20
-171.763
11
149.833
21
-171.477
0
LINE
8
BLACK
6
CONTINUOUS
10
149.833
20
-171.477
11
150.118
21
-171.334
0
LINE
8
BLACK
6
CONTINUOUS
10
150.118
20
-171.334
11
150.547
21
-171.334
0
LINE
8
BLACK
6
CONTINUOUS
10
150.547
20
-171.334
11
150.833
21
-171.477
0
LINE
8
BLACK
6
CONTINUOUS
10
151.975
20
-174.477
11
152.118
21
-174.334
0
LINE
8
BLACK
6
CONTINUOUS
10
152.118
20
-174.334
11
152.404
21
-173.906
0
LINE
8
BLACK
6
CONTINUOUS
10
152.404
20
-173.906
11
152.547
21
-173.62
0
LINE
8
BLACK
6
CONTINUOUS
10
152.547
20
-173.62
11
152.69
21
-173.192
0
LINE
8
BLACK
6
CONTINUOUS
10
152.69
20
-173.192
11
152.833
21
-172.477
0
LINE
8
BLACK
6
CONTINUOUS
10
152.833
20
-172.477
11
152.833
21
-171.906
0
LINE
8
BLACK
6
CONTINUOUS
10
152.833
20
-171.906
11
152.69
21
-171.192
0
LINE
8
BLACK
6
CONTINUOUS
10
152.69
20
-171.192
11
152.547
21
-170.763
0
LINE
8
BLACK
6
CONTINUOUS
10
152.547
20
-170.763
11
152.404
21
-170.477
0
LINE
8
BLACK
6
CONTINUOUS
10
152.404
20
-170.477
11
152.118
21
-170.049
0
LINE
8
BLACK
6
CONTINUOUS
10
152.118
20
-170.049
11
151.975
21
-169.906
0
LINE
8
BLACK
6
CONTINUOUS
10
83.054
20
-175.337
11
84.254
21
-176.537
0
LINE
8
BLACK
6
CONTINUOUS
10
84.254
20
-175.337
11
83.054
21
-176.537
0
CIRCLE
8
BLACK
10
83.654
20
-175.937
40
0.6
0
LINE
8
BLACK
6
CONTINUOUS
10
88.6897
20
-177.294
11
86.9754
21
-177.294
0
LINE
8
BLACK
6
CONTINUOUS
10
87.8325
20
-177.294
11
87.8325
21
-174.294
0
LINE
8
BLACK
6
CONTINUOUS
10
87.8325
20
-174.294
11
87.5468
21
-174.723
0
LINE
8
BLACK
6
CONTINUOUS
10
87.5468
20
-174.723
11
87.2611
21
-175.009
0
LINE
8
BLACK
6
CONTINUOUS
10
87.2611
20
-175.009
11
86.9754
21
-175.152
0
LINE
8
BLACK
6
CONTINUOUS
10
89.9754
20
-177.009
11
90.1183
21
-177.152
0
LINE
8
BLACK
6
CONTINUOUS
10
90.1183
20
-177.152
11
89.9754
21
-177.294
0
LINE
8
BLACK
6
CONTINUOUS
10
89.9754
20
-177.294
11
89.8325
21
-177.152
0
LINE
8
BLACK
6
CONTINUOUS
10
89.8325
20
-177.152
11
89.9754
21
-177.009
0
LINE
8
BLACK
6
CONTINUOUS
10
89.9754
20
-177.009
11
89.9754
21
-177.294
0
LINE
8
BLACK
6
CONTINUOUS
10
91.2611
20
-174.58
11
91.404
21
-174.437
0
LINE
8
BLACK
6
CONTINUOUS
10
91.404
20
-174.437
11
91.6897
21
-174.294
0
LINE
8
BLACK
6
CONTINUOUS
10
91.6897
20
-174.294
11
92.404
21
-174.294
0
LINE
8
BLACK
6
CONTINUOUS
10
92.404
20
-174.294
11
92.6897
21
-174.437
0
LINE
8
BLACK
6
CONTINUOUS
10
92.6897
20
-174.437
11
92.8325
21
-174.58
0
LINE
8
BLACK
6
CONTINUOUS
10
92.8325
20
-174.58
11
92.9754
21
-174.866
0
LINE
8
BLACK
6
CONTINUOUS
10
92.9754
20
-174.866
11
92.9754
21
-175.152
0
LINE
8
BLACK
6
CONTINUOUS
10
92.9754
20
-175.152
11
92.8325
21
-175.58
0
LINE
8
BLACK
6
CONTINUOUS
10
92.8325
20
-175.58
11
91.1183
21
-177.294
0
LINE
8
BLACK
6
CONTINUOUS
10
91.1183
20
-177.294
11
92.9754
21
-177.294
0
LINE
8
BLACK
6
CONTINUOUS
10
94.8325
20
-174.294
11
95.1183
21
-174.294
0
LINE
8
BLACK
6
CONTINUOUS
10
95.1183
20
-174.294
11
95.404
21
-174.437
0
LINE
8
BLACK
6
CONTINUOUS
10
95.404
20
-174.437
11
95.5468
21
-174.58
0
LINE
8
BLACK
6
CONTINUOUS
10
95.5468
20
-174.58
11
95.6897
21
-174.866
0
LINE
8
BLACK
6
CONTINUOUS
10
95.6897
20
-174.866
11
95.8325
21
-175.437
0
LINE
8
BLACK
6
CONTINUOUS
10
95.8325
20
-175.437
11
95.8325
21
-176.152
0
LINE
8
BLACK
6
CONTINUOUS
10
95.8325
20
-176.152
11
95.6897
21
-176.723
0
LINE
8
BLACK
6
CONTINUOUS
10
95.6897
20
-176.723
11
95.5468
21
-177.009
0
LINE
8
BLACK
6
CONTINUOUS
10
95.5468
20
-177.009
11
95.404
21
-177.152
0
LINE
8
BLACK
6
CONTINUOUS
10
95.404
20
-177.152
11
95.1183
21
-177.294
0
LINE
8
BLACK
6
CONTINUOUS
10
95.1183
20
-177.294
11
94.8325
21
-177.294
0
LINE
8
BLACK
6
CONTINUOUS
10
94.8325
20
-177.294
11
94.5468
21
-177.152
0
LINE
8
BLACK
6
CONTINUOUS
10
94.5468
20
-177.152
11
94.404
21
-177.009
0
LINE
8
BLACK
6
CONTINUOUS
10
94.404
20
-177.009
11
94.2611
21
-176.723
0
LINE
8
BLACK
6
CONTINUOUS
10
94.2611
20
-176.723
11
94.1183
21
-176.152
0
LINE
8
BLACK
6
CONTINUOUS
10
94.1183
20
-176.152
11
94.1183
21
-175.437
0
LINE
8
BLACK
6
CONTINUOUS
10
94.1183
20
-175.437
11
94.2611
21
-174.866
0
LINE
8
BLACK
6
CONTINUOUS
10
94.2611
20
-174.866
11
94.404
21
-174.58
0
LINE
8
BLACK
6
CONTINUOUS
10
94.404
20
-174.58
11
94.5468
21
-174.437
0
LINE
8
BLACK
6
CONTINUOUS
10
94.5468
20
-174.437
11
94.8325
21
-174.294
0
LINE
8
BLACK
6
CONTINUOUS
10
97.1183
20
-177.294
11
97.1183
21
-175.294
0
LINE
8
BLACK
6
CONTINUOUS
10
97.1183
20
-175.58
11
97.2611
21
-175.437
0
LINE
8
BLACK
6
CONTINUOUS
10
97.2611
20
-175.437
11
97.5468
21
-175.294
0
LINE
8
BLACK
6
CONTINUOUS
10
97.5468
20
-175.294
11
97.9754
21
-175.294
0
LINE
8
BLACK
6
CONTINUOUS
10
97.9754
20
-175.294
11
98.2611
21
-175.437
0
LINE
8
BLACK
6
CONTINUOUS
10
98.2611
20
-175.437
11
98.404
21
-175.723
0
LINE
8
BLACK
6
CONTINUOUS
10
98.404
20
-175.723
11
98.404
21
-177.294
0
LINE
8
BLACK
6
CONTINUOUS
10
98.404
20
-175.723
11
98.5468
21
-175.437
0
LINE
8
BLACK
6
CONTINUOUS
10
98.5468
20
-175.437
11
98.8325
21
-175.294
0
LINE
8
BLACK
6
CONTINUOUS
10
98.8325
20
-175.294
11
99.2611
21
-175.294
0
LINE
8
BLACK
6
CONTINUOUS
10
99.2611
20
-175.294
11
99.5468
21
-175.437
0
LINE
8
BLACK
6
CONTINUOUS
10
99.5468
20
-175.437
11
99.6897
21
-175.723
0
LINE
8
BLACK
6
CONTINUOUS
10
99.6897
20
-175.723
11
99.6897
21
-177.294
0
LINE
8
BLACK
6
CONTINUOUS
10
101.118
20
-177.294
11
101.118
21
-175.294
0
LINE
8
BLACK
6
CONTINUOUS
10
101.118
20
-175.58
11
101.261
21
-175.437
0
LINE
8
BLACK
6
CONTINUOUS
10
101.261
20
-175.437
11
101.547
21
-175.294
0
LINE
8
BLACK
6
CONTINUOUS
10
101.547
20
-175.294
11
101.975
21
-175.294
0
LINE
8
BLACK
6
CONTINUOUS
10
101.975
20
-175.294
11
102.261
21
-175.437
0
LINE
8
BLACK
6
CONTINUOUS
10
102.261
20
-175.437
11
102.404
21
-175.723
0
LINE
8
BLACK
6
CONTINUOUS
10
102.404
20
-175.723
11
102.404
21
-177.294
0
LINE
8
BLACK
6
CONTINUOUS
10
102.404
20
-175.723
11
102.547
21
-175.437
0
LINE
8
BLACK
6
CONTINUOUS
10
102.547
20
-175.437
11
102.833
21
-175.294
0
LINE
8
BLACK
6
CONTINUOUS
10
102.833
20
-175.294
11
103.261
21
-175.294
0
LINE
8
BLACK
6
CONTINUOUS
10
103.261
20
-175.294
11
103.547
21
-175.437
0
LINE
8
BLACK
6
CONTINUOUS
10
103.547
20
-175.437
11
103.69
21
-175.723
0
LINE
8
BLACK
6
CONTINUOUS
10
103.69
20
-175.723
11
103.69
21
-177.294
0
LINE
8
BLACK
6
CONTINUOUS
10
109.547
20
-174.152
11
106.975
21
-178.009
0
LINE
8
BLACK
6
CONTINUOUS
10
113.404
20
-174.294
11
113.69
21
-174.294
0
LINE
8
BLACK
6
CONTINUOUS
10
113.69
20
-174.294
11
113.975
21
-174.437
0
LINE
8
BLACK
6
CONTINUOUS
10
113.975
20
-174.437
11
114.118
21
-174.58
0
LINE
8
BLACK
6
CONTINUOUS
10
114.118
20
-174.58
11
114.261
21
-174.866
0
LINE
8
BLACK
6
CONTINUOUS
10
114.261
20
-174.866
11
114.404
21
-175.437
0
LINE
8
BLACK
6
CONTINUOUS
10
114.404
20
-175.437
11
114.404
21
-176.152
0
LINE
8
BLACK
6
CONTINUOUS
10
114.404
20
-176.152
11
114.261
21
-176.723
0
LINE
8
BLACK
6
CONTINUOUS
10
114.261
20
-176.723
11
114.118
21
-177.009
0
LINE
8
BLACK
6
CONTINUOUS
10
114.118
20
-177.009
11
113.975
21
-177.152
0
LINE
8
BLACK
6
CONTINUOUS
10
113.975
20
-177.152
11
113.69
21
-177.294
0
LINE
8
BLACK
6
CONTINUOUS
10
113.69
20
-177.294
11
113.404
21
-177.294
0
LINE
8
BLACK
6
CONTINUOUS
10
113.404
20
-177.294
11
113.118
21
-177.152
0
LINE
8
BLACK
6
CONTINUOUS
10
113.118
20
-177.152
11
112.975
21
-177.009
0
LINE
8
BLACK
6
CONTINUOUS
10
112.975
20
-177.009
11
112.833
21
-176.723
0
LINE
8
BLACK
6
CONTINUOUS
10
112.833
20
-176.723
11
112.69
21
-176.152
0
LINE
8
BLACK
6
CONTINUOUS
10
112.69
20
-176.152
11
112.69
21
-175.437
0
LINE
8
BLACK
6
CONTINUOUS
10
112.69
20
-175.437
11
112.833
21
-174.866
0
LINE
8
BLACK
6
CONTINUOUS
10
112.833
20
-174.866
11
112.975
21
-174.58
0
LINE
8
BLACK
6
CONTINUOUS
10
112.975
20
-174.58
11
113.118
21
-174.437
0
LINE
8
BLACK
6
CONTINUOUS
10
113.118
20
-174.437
11
113.404
21
-174.294
0
LINE
8
BLACK
6
CONTINUOUS
10
115.69
20
-177.009
11
115.833
21
-177.152
0
LINE
8
BLACK
6
CONTINUOUS
10
115.833
20
-177.152
11
115.69
21
-177.294
0
LINE
8
BLACK
6
CONTINUOUS
10
115.69
20
-177.294
11
115.547
21
-177.152
0
LINE
8
BLACK
6
CONTINUOUS
10
115.547
20
-177.152
11
115.69
21
-177.009
0
LINE
8
BLACK
6
CONTINUOUS
10
115.69
20
-177.009
11
115.69
21
-177.294
0
LINE
8
BLACK
6
CONTINUOUS
10
117.69
20
-174.294
11
117.975
21
-174.294
0
LINE
8
BLACK
6
CONTINUOUS
10
117.975
20
-174.294
11
118.261
21
-174.437
0
LINE
8
BLACK
6
CONTINUOUS
10
118.261
20
-174.437
11
118.404
21
-174.58
0
LINE
8
BLACK
6
CONTINUOUS
10
118.404
20
-174.58
11
118.547
21
-174.866
0
LINE
8
BLACK
6
CONTINUOUS
10
118.547
20
-174.866
11
118.69
21
-175.437
0
LINE
8
BLACK
6
CONTINUOUS
10
118.69
20
-175.437
11
118.69
21
-176.152
0
LINE
8
BLACK
6
CONTINUOUS
10
118.69
20
-176.152
11
118.547
21
-176.723
0
LINE
8
BLACK
6
CONTINUOUS
10
118.547
20
-176.723
11
118.404
21
-177.009
0
LINE
8
BLACK
6
CONTINUOUS
10
118.404
20
-177.009
11
118.261
21
-177.152
0
LINE
8
BLACK
6
CONTINUOUS
10
118.261
20
-177.152
11
117.975
21
-177.294
0
LINE
8
BLACK
6
CONTINUOUS
10
117.975
20
-177.294
11
117.69
21
-177.294
0
LINE
8
BLACK
6
CONTINUOUS
10
117.69
20
-177.294
11
117.404
21
-177.152
0
LINE
8
BLACK
6
CONTINUOUS
10
117.404
20
-177.152
11
117.261
21
-177.009
0
LINE
8
BLACK
6
CONTINUOUS
10
117.261
20
-177.009
11
117.118
21
-176.723
0
LINE
8
BLACK
6
CONTINUOUS
10
117.118
20
-176.723
11
116.975
21
-176.152
0
LINE
8
BLACK
6
CONTINUOUS
10
116.975
20
-176.152
11
116.975
21
-175.437
0
LINE
8
BLACK
6
CONTINUOUS
10
116.975
20
-175.437
11
117.118
21
-174.866
0
LINE
8
BLACK
6
CONTINUOUS
10
117.118
20
-174.866
11
117.261
21
-174.58
0
LINE
8
BLACK
6
CONTINUOUS
10
117.261
20
-174.58
11
117.404
21
-174.437
0
LINE
8
BLACK
6
CONTINUOUS
10
117.404
20
-174.437
11
117.69
21
-174.294
0
LINE
8
BLACK
6
CONTINUOUS
10
121.261
20
-175.294
11
121.261
21
-177.294
0
LINE
8
BLACK
6
CONTINUOUS
10
120.547
20
-174.152
11
119.833
21
-176.294
0
LINE
8
BLACK
6
CONTINUOUS
10
119.833
20
-176.294
11
121.69
21
-176.294
0
LINE
8
BLACK
6
CONTINUOUS
10
122.547
20
-174.294
11
124.547
21
-174.294
0
LINE
8
BLACK
6
CONTINUOUS
10
124.547
20
-174.294
11
123.261
21
-177.294
0
LINE
8
BLACK
6
CONTINUOUS
10
125.547
20
-174.294
11
125.547
21
-174.866
0
LINE
8
BLACK
6
CONTINUOUS
10
126.69
20
-174.294
11
126.69
21
-174.866
0
LINE
8
BLACK
6
CONTINUOUS
10
131.118
20
-178.437
11
130.975
21
-178.294
0
LINE
8
BLACK
6
CONTINUOUS
10
130.975
20
-178.294
11
130.69
21
-177.866
0
LINE
8
BLACK
6
CONTINUOUS
10
130.69
20
-177.866
11
130.547
21
-177.58
0
LINE
8
BLACK
6
CONTINUOUS
10
130.547
20
-177.58
11
130.404
21
-177.152
0
LINE
8
BLACK
6
CONTINUOUS
10
130.404
20
-177.152
11
130.261
21
-176.437
0
LINE
8
BLACK
6
CONTINUOUS
10
130.261
20
-176.437
11
130.261
21
-175.866
0
LINE
8
BLACK
6
CONTINUOUS
10
130.261
20
-175.866
11
130.404
21
-175.152
0
LINE
8
BLACK
6
CONTINUOUS
10
130.404
20
-175.152
11
130.547
21
-174.723
0
LINE
8
BLACK
6
CONTINUOUS
10
130.547
20
-174.723
11
130.69
21
-174.437
0
LINE
8
BLACK
6
CONTINUOUS
10
130.69
20
-174.437
11
130.975
21
-174.009
0
LINE
8
BLACK
6
CONTINUOUS
10
130.975
20
-174.009
11
131.118
21
-173.866
0
LINE
8
BLACK
6
CONTINUOUS
10
133.833
20
-177.294
11
132.118
21
-177.294
0
LINE
8
BLACK
6
CONTINUOUS
10
132.975
20
-177.294
11
132.975
21
-174.294
0
LINE
8
BLACK
6
CONTINUOUS
10
132.975
20
-174.294
11
132.69
21
-174.723
0
LINE
8
BLACK
6
CONTINUOUS
10
132.69
20
-174.723
11
132.404
21
-175.009
0
LINE
8
BLACK
6
CONTINUOUS
10
132.404
20
-175.009
11
132.118
21
-175.152
0
LINE
8
BLACK
6
CONTINUOUS
10
134.833
20
-174.294
11
136.833
21
-174.294
0
LINE
8
BLACK
6
CONTINUOUS
10
136.833
20
-174.294
11
135.547
21
-177.294
0
LINE
8
BLACK
6
CONTINUOUS
10
140.261
20
-177.294
11
140.261
21
-174.294
0
LINE
8
BLACK
6
CONTINUOUS
10
141.547
20
-177.294
11
141.547
21
-175.723
0
LINE
8
BLACK
6
CONTINUOUS
10
141.547
20
-175.723
11
141.404
21
-175.437
0
LINE
8
BLACK
6
CONTINUOUS
10
141.404
20
-175.437
11
141.118
21
-175.294
0
LINE
8
BLACK
6
CONTINUOUS
10
141.118
20
-175.294
11
140.69
21
-175.294
0
LINE
8
BLACK
6
CONTINUOUS
10
140.69
20
-175.294
11
140.404
21
-175.437
0
LINE
8
BLACK
6
CONTINUOUS
10
140.404
20
-175.437
11
140.261
21
-175.58
0
LINE
8
BLACK
6
CONTINUOUS
10
143.404
20
-177.294
11
143.118
21
-177.152
0
LINE
8
BLACK
6
CONTINUOUS
10
143.118
20
-177.152
11
142.975
21
-177.009
0
LINE
8
BLACK
6
CONTINUOUS
10
142.975
20
-177.009
11
142.833
21
-176.723
0
LINE
8
BLACK
6
CONTINUOUS
10
142.833
20
-176.723
11
142.833
21
-175.866
0
LINE
8
BLACK
6
CONTINUOUS
10
142.833
20
-175.866
11
142.975
21
-175.58
0
LINE
8
BLACK
6
CONTINUOUS
10
142.975
20
-175.58
11
143.118
21
-175.437
0
LINE
8
BLACK
6
CONTINUOUS
10
143.118
20
-175.437
11
143.404
21
-175.294
0
LINE
8
BLACK
6
CONTINUOUS
10
143.404
20
-175.294
11
143.833
21
-175.294
0
LINE
8
BLACK
6
CONTINUOUS
10
143.833
20
-175.294
11
144.118
21
-175.437
0
LINE
8
BLACK
6
CONTINUOUS
10
144.118
20
-175.437
11
144.261
21
-175.58
0
LINE
8
BLACK
6
CONTINUOUS
10
144.261
20
-175.58
11
144.404
21
-175.866
0
LINE
8
BLACK
6
CONTINUOUS
10
144.404
20
-175.866
11
144.404
21
-176.723
0
LINE
8
BLACK
6
CONTINUOUS
10
144.404
20
-176.723
11
144.261
21
-177.009
0
LINE
8
BLACK
6
CONTINUOUS
10
144.261
20
-177.009
11
144.118
21
-177.152
0
LINE
8
BLACK
6
CONTINUOUS
10
144.118
20
-177.152
11
143.833
21
-177.294
0
LINE
8
BLACK
6
CONTINUOUS
10
143.833
20
-177.294
11
143.404
21
-177.294
0
LINE
8
BLACK
6
CONTINUOUS
10
146.118
20
-177.294
11
145.833
21
-177.152
0
LINE
8
BLACK
6
CONTINUOUS
10
145.833
20
-177.152
11
145.69
21
-176.866
0
LINE
8
BLACK
6
CONTINUOUS
10
145.69
20
-176.866
11
145.69
21
-174.294
0
LINE
8
BLACK
6
CONTINUOUS
10
148.404
20
-177.152
11
148.118
21
-177.294
0
LINE
8
BLACK
6
CONTINUOUS
10
148.118
20
-177.294
11
147.547
21
-177.294
0
LINE
8
BLACK
6
CONTINUOUS
10
147.547
20
-177.294
11
147.261
21
-177.152
0
LINE
8
BLACK
6
CONTINUOUS
10
147.261
20
-177.152
11
147.118
21
-176.866
0
LINE
8
BLACK
6
CONTINUOUS
10
147.118
20
-176.866
11
147.118
21
-175.723
0
LINE
8
BLACK
6
CONTINUOUS
10
147.118
20
-175.723
11
147.261
21
-175.437
0
LINE
8
BLACK
6
CONTINUOUS
10
147.261
20
-175.437
11
147.547
21
-175.294
0
LINE
8
BLACK
6
CONTINUOUS
10
147.547
20
-175.294
11
148.118
21
-175.294
0
LINE
8
BLACK
6
CONTINUOUS
10
148.118
20
-175.294
11
148.404
21
-175.437
0
LINE
8
BLACK
6
CONTINUOUS
10
148.404
20
-175.437
11
148.547
21
-175.723
0
LINE
8
BLACK
6
CONTINUOUS
10
148.547
20
-175.723
11
148.547
21
-176.009
0
LINE
8
BLACK
6
CONTINUOUS
10
148.547
20
-176.009
11
147.118
21
-176.294
0
LINE
8
BLACK
6
CONTINUOUS
10
149.69
20
-177.152
11
149.975
21
-177.294
0
LINE
8
BLACK
6
CONTINUOUS
10
149.975
20
-177.294
11
150.547
21
-177.294
0
LINE
8
BLACK
6
CONTINUOUS
10
150.547
20
-177.294
11
150.833
21
-177.152
0
LINE
8
BLACK
6
CONTINUOUS
10
150.833
20
-177.152
11
150.975
21
-176.866
0
LINE
8
BLACK
6
CONTINUOUS
10
150.975
20
-176.866
11
150.975
21
-176.723
0
LINE
8
BLACK
6
CONTINUOUS
10
150.975
20
-176.723
11
150.833
21
-176.437
0
LINE
8
BLACK
6
CONTINUOUS
10
150.833
20
-176.437
11
150.547
21
-176.294
0
LINE
8
BLACK
6
CONTINUOUS
10
150.547
20
-176.294
11
150.118
21
-176.294
0
LINE
8
BLACK
6
CONTINUOUS
10
150.118
20
-176.294
11
149.833
21
-176.152
0
LINE
8
BLACK
6
CONTINUOUS
10
149.833
20
-176.152
11
149.69
21
-175.866
0
LINE
8
BLACK
6
CONTINUOUS
10
149.69
20
-175.866
11
149.69
21
-175.723
0
LINE
8
BLACK
6
CONTINUOUS
10
149.69
20
-175.723
11
149.833
21
-175.437
0
LINE
8
BLACK
6
CONTINUOUS
10
149.833
20
-175.437
11
150.118
21
-175.294
0
LINE
8
BLACK
6
CONTINUOUS
10
150.118
20
-175.294
11
150.547
21
-175.294
0
LINE
8
BLACK
6
CONTINUOUS
10
150.547
20
-175.294
11
150.833
21
-175.437
0
LINE
8
BLACK
6
CONTINUOUS
10
151.975
20
-178.437
11
152.118
21
-178.294
0
LINE
8
BLACK
6
CONTINUOUS
10
152.118
20
-178.294
11
152.404
21
-177.866
0
LINE
8
BLACK
6
CONTINUOUS
10
152.404
20
-177.866
11
152.547
21
-177.58
0
LINE
8
BLACK
6
CONTINUOUS
10
152.547
20
-177.58
11
152.69
21
-177.152
0
LINE
8
BLACK
6
CONTINUOUS
10
152.69
20
-177.152
11
152.833
21
-176.437
0
LINE
8
BLACK
6
CONTINUOUS
10
152.833
20
-176.437
11
152.833
21
-175.866
0
LINE
8
BLACK
6
CONTINUOUS
10
152.833
20
-175.866
11
152.69
21
-175.152
0
LINE
8
BLACK
6
CONTINUOUS
10
152.69
20
-175.152
11
152.547
21
-174.723
0
LINE
8
BLACK
6
CONTINUOUS
10
152.547
20
-174.723
11
152.404
21
-174.437
0
LINE
8
BLACK
6
CONTINUOUS
10
152.404
20
-174.437
11
152.118
21
-174.009
0
LINE
8
BLACK
6
CONTINUOUS
10
152.118
20
-174.009
11
151.975
21
-173.866
  0
ENDSEC
  0
EOF
