G04 #@! TF.GenerationSoftware,KiCad,Pcbnew,(5.1.5-0-10_14)*
G04 #@! TF.CreationDate,2020-03-08T07:23:16+10:00*
G04 #@! TF.ProjectId,Arduino_NW_Template,41726475-696e-46f5-9f4e-575f54656d70,rev?*
G04 #@! TF.SameCoordinates,Original*
G04 #@! TF.FileFunction,Copper,L2,Bot*
G04 #@! TF.FilePolarity,Positive*
%FSLAX46Y46*%
G04 Gerber Fmt 4.6, Leading zero omitted, Abs format (unit mm)*
G04 Created by KiCad (PCBNEW (5.1.5-0-10_14)) date 2020-03-08 07:23:16*
%MOMM*%
%LPD*%
G04 APERTURE LIST*
%ADD10C,1.400000*%
%ADD11O,1.400000X1.400000*%
%ADD12R,1.700000X1.700000*%
%ADD13O,1.700000X1.700000*%
%ADD14C,1.524000*%
%ADD15C,1.800000*%
%ADD16R,1.800000X1.800000*%
%ADD17C,1.600000*%
%ADD18R,1.600000X1.600000*%
%ADD19R,1.524000X1.524000*%
%ADD20C,0.250000*%
G04 APERTURE END LIST*
D10*
X123810000Y-70866000D03*
D11*
X126350000Y-70866000D03*
D10*
X118730000Y-70866000D03*
D11*
X121270000Y-70866000D03*
D12*
X149210000Y-96266000D03*
D13*
X151750000Y-96266000D03*
X154290000Y-96266000D03*
X156830000Y-96266000D03*
X159370000Y-96266000D03*
X161910000Y-96266000D03*
D12*
X149210000Y-86106000D03*
D13*
X151750000Y-86106000D03*
X154290000Y-86106000D03*
X156830000Y-86106000D03*
X159370000Y-86106000D03*
X161910000Y-86106000D03*
X161910000Y-103886000D03*
X159370000Y-103886000D03*
X156830000Y-103886000D03*
D12*
X154290000Y-103886000D03*
D14*
X132700000Y-89916000D03*
X130160000Y-89916000D03*
D12*
X114920000Y-89916000D03*
D13*
X117460000Y-89916000D03*
X120000000Y-89916000D03*
X122540000Y-89916000D03*
X125080000Y-89916000D03*
X127620000Y-89916000D03*
X154290000Y-108966000D03*
X151750000Y-108966000D03*
X149210000Y-108966000D03*
D12*
X146670000Y-108966000D03*
D13*
X108570000Y-91186000D03*
X108570000Y-88646000D03*
X108570000Y-86106000D03*
X108570000Y-83566000D03*
X108570000Y-81026000D03*
X108570000Y-78486000D03*
X108570000Y-75946000D03*
D12*
X108570000Y-73406000D03*
D13*
X104760000Y-91186000D03*
X104760000Y-88646000D03*
X104760000Y-86106000D03*
X104760000Y-83566000D03*
X104760000Y-81026000D03*
X104760000Y-78486000D03*
X104760000Y-75946000D03*
D12*
X104760000Y-73406000D03*
D13*
X100950000Y-91186000D03*
X100950000Y-88646000D03*
X100950000Y-86106000D03*
X100950000Y-83566000D03*
X100950000Y-81026000D03*
X100950000Y-78486000D03*
X100950000Y-75946000D03*
D12*
X100950000Y-73406000D03*
X121270000Y-83566000D03*
D13*
X123810000Y-83566000D03*
X126350000Y-83566000D03*
X128890000Y-83566000D03*
X131430000Y-83566000D03*
X133970000Y-83566000D03*
X139050000Y-70866000D03*
D12*
X136510000Y-70866000D03*
D13*
X132700000Y-70866000D03*
D12*
X130160000Y-70866000D03*
D13*
X145400000Y-70866000D03*
D12*
X142860000Y-70866000D03*
D15*
X114920000Y-81026000D03*
D16*
X112380000Y-81026000D03*
D15*
X114920000Y-73406000D03*
D16*
X112380000Y-73406000D03*
D17*
X143020000Y-97188900D03*
X138020000Y-97188900D03*
X143020000Y-108246000D03*
X138020000Y-108246000D03*
X143020000Y-104560000D03*
X138020000Y-104560000D03*
X143020000Y-93503100D03*
X138020000Y-93503100D03*
X143020000Y-89817400D03*
X138020000Y-89817400D03*
X143020000Y-86131700D03*
X138020000Y-86131700D03*
X143020000Y-100875000D03*
X138020000Y-100875000D03*
X143020000Y-82446000D03*
X138020000Y-82446000D03*
X130610000Y-102856000D03*
X125610000Y-102856000D03*
X130610000Y-99406000D03*
X125610000Y-99406000D03*
X130610000Y-95956000D03*
X125610000Y-95956000D03*
X122460000Y-102856000D03*
X117460000Y-102856000D03*
X122460000Y-99406000D03*
X117460000Y-99406000D03*
X122460000Y-95956000D03*
X117460000Y-95956000D03*
D12*
X149210000Y-78486000D03*
D13*
X151750000Y-78486000D03*
X154290000Y-78486000D03*
X156830000Y-78486000D03*
X159370000Y-78486000D03*
X161910000Y-78486000D03*
D10*
X103490000Y-112776000D03*
D11*
X106030000Y-112776000D03*
D18*
X103490000Y-103886000D03*
D17*
X105990000Y-103886000D03*
D14*
X102177000Y-65782000D03*
X104717000Y-65782000D03*
X107257000Y-65782000D03*
X109797000Y-65782000D03*
X112337000Y-65782000D03*
X114877000Y-65782000D03*
X117417000Y-65782000D03*
X119957000Y-65782000D03*
X123767000Y-65782000D03*
X126307000Y-65782000D03*
X128847000Y-65782000D03*
X131387000Y-65782000D03*
X133927000Y-65782000D03*
X136467000Y-65782000D03*
X139007000Y-65782000D03*
X141547000Y-65782000D03*
X141547000Y-114042000D03*
X139007000Y-114042000D03*
X136467000Y-114042000D03*
X133927000Y-114042000D03*
X131387000Y-114042000D03*
X128847000Y-114042000D03*
X123767000Y-114042000D03*
X121227000Y-114042000D03*
X118687000Y-114042000D03*
X116147000Y-114042000D03*
X113607000Y-114042000D03*
D19*
X111067000Y-114042000D03*
D20*
X117460000Y-89916000D02*
X117460000Y-88740700D01*
X117460000Y-88740700D02*
X112380000Y-83660700D01*
X112380000Y-83660700D02*
X112380000Y-81026000D01*
X142860000Y-70866000D02*
X141684700Y-70866000D01*
X136510000Y-70866000D02*
X137685300Y-70866000D01*
X137685300Y-70866000D02*
X137685300Y-70498700D01*
X137685300Y-70498700D02*
X138493300Y-69690700D01*
X138493300Y-69690700D02*
X140509400Y-69690700D01*
X140509400Y-69690700D02*
X141684700Y-70866000D01*
X151750000Y-78486000D02*
X151750000Y-86106000D01*
X112380000Y-73406000D02*
X112380000Y-81026000D01*
X143020000Y-97188900D02*
X143020000Y-93503100D01*
X143020000Y-100875000D02*
X143020000Y-97188900D01*
X143020000Y-104560000D02*
X143020000Y-100875000D01*
X143020000Y-104560000D02*
X143020000Y-108246000D01*
X143020000Y-89817400D02*
X143020000Y-93503100D01*
X143020000Y-86131700D02*
X143020000Y-89817400D01*
X143020000Y-82446000D02*
X143020000Y-86131700D01*
X130610000Y-95956000D02*
X130610000Y-99406000D01*
X122460000Y-95956000D02*
X122460000Y-99406000D01*
X103490000Y-103886000D02*
X103490000Y-112776000D01*
X126350000Y-70866000D02*
X126350000Y-69840700D01*
X128847000Y-65782000D02*
X128847000Y-67343700D01*
X128847000Y-67343700D02*
X126350000Y-69840700D01*
X149210000Y-86106000D02*
X149210000Y-96266000D01*
X149210000Y-78486000D02*
X149210000Y-86106000D01*
X114920000Y-91091300D02*
X114920000Y-112815000D01*
X114920000Y-112815000D02*
X116147000Y-114042000D01*
X114920000Y-89916000D02*
X114920000Y-91091300D01*
X117460000Y-95956000D02*
X120000000Y-93416000D01*
X120000000Y-93416000D02*
X120000000Y-89916000D01*
X128847000Y-114042000D02*
X124035100Y-109230100D01*
X124035100Y-109230100D02*
X124035100Y-102831100D01*
X124035100Y-102831100D02*
X117460000Y-96256000D01*
X117460000Y-96256000D02*
X117460000Y-95956000D01*
X131387000Y-114042000D02*
X130284600Y-115144400D01*
X130284600Y-115144400D02*
X128340500Y-115144400D01*
X128340500Y-115144400D02*
X119784600Y-106588500D01*
X119784600Y-106588500D02*
X119784600Y-101730600D01*
X119784600Y-101730600D02*
X117460000Y-99406000D01*
X122540000Y-89916000D02*
X121364700Y-89916000D01*
X117460000Y-99406000D02*
X116315800Y-98261800D01*
X116315800Y-98261800D02*
X116315800Y-95112200D01*
X116315800Y-95112200D02*
X118730000Y-92698000D01*
X118730000Y-92698000D02*
X118730000Y-89507000D01*
X118730000Y-89507000D02*
X119496300Y-88740700D01*
X119496300Y-88740700D02*
X120556800Y-88740700D01*
X120556800Y-88740700D02*
X121364700Y-89548600D01*
X121364700Y-89548600D02*
X121364700Y-89916000D01*
X133927000Y-114042000D02*
X132368600Y-115600400D01*
X132368600Y-115600400D02*
X128159600Y-115600400D01*
X128159600Y-115600400D02*
X117460000Y-104900800D01*
X117460000Y-104900800D02*
X117460000Y-102856000D01*
X136467000Y-114042000D02*
X127934600Y-105509600D01*
X127934600Y-105509600D02*
X127934600Y-98280600D01*
X127934600Y-98280600D02*
X125610000Y-95956000D01*
X139007000Y-114042000D02*
X137917400Y-115131600D01*
X137917400Y-115131600D02*
X135954200Y-115131600D01*
X135954200Y-115131600D02*
X135197000Y-114374400D01*
X135197000Y-114374400D02*
X135197000Y-113408900D01*
X135197000Y-113408900D02*
X127269100Y-105481000D01*
X127269100Y-105481000D02*
X127269100Y-101065100D01*
X127269100Y-101065100D02*
X125610000Y-99406000D01*
X125610000Y-102856000D02*
X124445300Y-101691300D01*
X124445300Y-101691300D02*
X124445300Y-95507900D01*
X124445300Y-95507900D02*
X127997600Y-91955600D01*
X127997600Y-91955600D02*
X130660400Y-91955600D01*
X130660400Y-91955600D02*
X132700000Y-89916000D01*
X146670000Y-108966000D02*
X146670000Y-107790700D01*
X154290000Y-86106000D02*
X154290000Y-87281300D01*
X154290000Y-87281300D02*
X150385300Y-91186000D01*
X150385300Y-91186000D02*
X150385300Y-104075400D01*
X150385300Y-104075400D02*
X146670000Y-107790700D01*
X156830000Y-86106000D02*
X156830000Y-87281300D01*
X149210000Y-108966000D02*
X149210000Y-107790700D01*
X149210000Y-107790700D02*
X152925300Y-104075400D01*
X152925300Y-104075400D02*
X152925300Y-91186000D01*
X152925300Y-91186000D02*
X156830000Y-87281300D01*
X154290000Y-103886000D02*
X154290000Y-96266000D01*
X151750000Y-108966000D02*
X150574700Y-108966000D01*
X138020000Y-89817400D02*
X140942800Y-92740200D01*
X140942800Y-92740200D02*
X140942800Y-107806300D01*
X140942800Y-107806300D02*
X143288900Y-110152400D01*
X143288900Y-110152400D02*
X149695800Y-110152400D01*
X149695800Y-110152400D02*
X150574700Y-109273500D01*
X150574700Y-109273500D02*
X150574700Y-108966000D01*
X156830000Y-103886000D02*
X156830000Y-96266000D01*
X161910000Y-86106000D02*
X161910000Y-87281300D01*
X154290000Y-108966000D02*
X154290000Y-107790700D01*
X154290000Y-107790700D02*
X155465300Y-106615400D01*
X155465300Y-106615400D02*
X155465300Y-93726000D01*
X155465300Y-93726000D02*
X161910000Y-87281300D01*
X138020000Y-108246000D02*
X140376700Y-110602700D01*
X140376700Y-110602700D02*
X154317700Y-110602700D01*
X154317700Y-110602700D02*
X159370000Y-105550400D01*
X159370000Y-105550400D02*
X159370000Y-103886000D01*
X159370000Y-103886000D02*
X159370000Y-96266000D01*
X145400000Y-70866000D02*
X144224700Y-70866000D01*
X136467000Y-65782000D02*
X139354100Y-68669100D01*
X139354100Y-68669100D02*
X142835800Y-68669100D01*
X142835800Y-68669100D02*
X144224700Y-70058000D01*
X144224700Y-70058000D02*
X144224700Y-70866000D01*
X132700000Y-70866000D02*
X132700000Y-69690700D01*
X133927000Y-65782000D02*
X133927000Y-68463700D01*
X133927000Y-68463700D02*
X132700000Y-69690700D01*
X154290000Y-77310700D02*
X143848600Y-66869300D01*
X143848600Y-66869300D02*
X141068900Y-66869300D01*
X141068900Y-66869300D02*
X140094300Y-65894700D01*
X140094300Y-65894700D02*
X140094300Y-65331500D01*
X140094300Y-65331500D02*
X139407700Y-64644900D01*
X139407700Y-64644900D02*
X118554100Y-64644900D01*
X118554100Y-64644900D02*
X117417000Y-65782000D01*
X154290000Y-78486000D02*
X154290000Y-77310700D01*
X125174700Y-83566000D02*
X125174700Y-83198600D01*
X125174700Y-83198600D02*
X124366800Y-82390700D01*
X124366800Y-82390700D02*
X119576700Y-82390700D01*
X119576700Y-82390700D02*
X116782300Y-79596300D01*
X116782300Y-79596300D02*
X116782300Y-67687300D01*
X116782300Y-67687300D02*
X114877000Y-65782000D01*
X126350000Y-83566000D02*
X125174700Y-83566000D01*
X128890000Y-83566000D02*
X127714700Y-83566000D01*
X112337000Y-65782000D02*
X116163100Y-69608100D01*
X116163100Y-69608100D02*
X116163100Y-79614000D01*
X116163100Y-79614000D02*
X119722200Y-83173100D01*
X119722200Y-83173100D02*
X119722200Y-84195200D01*
X119722200Y-84195200D02*
X120268300Y-84741300D01*
X120268300Y-84741300D02*
X126840700Y-84741300D01*
X126840700Y-84741300D02*
X127714700Y-83867300D01*
X127714700Y-83867300D02*
X127714700Y-83566000D01*
X109797000Y-65782000D02*
X113605300Y-69590300D01*
X113605300Y-69590300D02*
X113605300Y-77693100D01*
X113605300Y-77693100D02*
X119112800Y-83200600D01*
X119112800Y-83200600D02*
X119112800Y-84222700D01*
X119112800Y-84222700D02*
X120081700Y-85191600D01*
X120081700Y-85191600D02*
X128996500Y-85191600D01*
X128996500Y-85191600D02*
X130254700Y-83933400D01*
X130254700Y-83933400D02*
X130254700Y-83566000D01*
X131430000Y-83566000D02*
X130254700Y-83566000D01*
X121270000Y-70866000D02*
X121270000Y-69840700D01*
X126307000Y-65782000D02*
X122248300Y-69840700D01*
X122248300Y-69840700D02*
X121270000Y-69840700D01*
M02*
