  0
SECTION
  2
HEADER
  9
$ANGBASE
  50
0.0
  9
$ANGDIR
  70
1
  9
$MEASUREMENT
  70
1
  0
ENDSEC
  0
SECTION
  2
TABLES
  0
TABLE
  2
LTYPE
  70
4
  0
LTYPE
  5
40F
  2
CONTINUOUS
  70
0
  3
Solid line
  72
65
  73
0
  40
0.0
  0
LTYPE
  5
410
  2
DASHDOT
 70
0
  3
Dash Dot ____ _ ____ _
 72
65
 73
4
 40
2.0
 49
1.25
 49
-0.25
 49
0.25
 49
-0.25
  0
LTYPE
  5
411
  2
DASHED
 70
0
  3
Dashed __ __ __ __ __
 72
65
 73
2
 40
0.75
 49
0.5
 49
-0.25
  0
LTYPE
  5
43B
  2
DOTTED
 70
0
  3
Dotted .  .  .  .
 72
65
 73
2
 40
0.2
 49
0.0
 49
-0.2
  0
ENDTAB
  0
TABLE
  2
STYLE
  70
4
  0
STYLE
  2
KICAD
  70
0
  40
0
  41
1
  42
1
  50
0
  71
0
  3
isocp.shx
  0
STYLE
  2
KICADB
  70
0
  40
0
  41
1
  42
1
  50
0
  71
0
  3
isocp.shx
  0
STYLE
  2
KICADI
  70
0
  40
0
  41
1
  42
1
  50
15
  71
0
  3
isocp.shx
  0
STYLE
  2
KICADBI
  70
0
  40
0
  41
1
  42
1
  50
15
  71
0
  3
isocp.shx
  0
ENDTAB
  0
TABLE
  2
LAYER
  70
1
  0
LAYER
  2
BLACK
  70
0
  62
7
  6
CONTINUOUS
  0
ENDTAB
  0
ENDSEC
  0
SECTION
  2
ENTITIES
0
LINE
8
BLACK
6
CONTINUOUS
10
148.6999999999999886
20
-107.3399999999999892
11
148.6999999999999886
21
-91.0999999999999943
0
LINE
8
BLACK
6
CONTINUOUS
10
148.6999999999999886
20
-91.0999999999999943
11
133.039999999999992
21
-91.0999999999999943
0
LINE
8
BLACK
6
CONTINUOUS
10
133.039999999999992
20
-107.3499999999999943
11
148.6999999999999886
21
-107.3399999999999892
0
LINE
8
BLACK
6
CONTINUOUS
10
133.039999999999992
20
-107.3499999999999943
11
133.039999999999992
21
-91.0999999999999943
0
LINE
8
BLACK
6
CONTINUOUS
10
135.6227680000000078
20
-110.4898379999999918
11
135.6227680000000078
21
-108.4898379999999918
0
LINE
8
BLACK
6
CONTINUOUS
10
135.6227680000000078
20
-108.4898379999999918
11
136.0989579999999819
21
-108.4898379999999918
0
LINE
8
BLACK
6
CONTINUOUS
10
136.0989579999999819
20
-108.4898379999999918
11
136.3846729999999923
21
-108.5850760000000008
0
LINE
8
BLACK
6
CONTINUOUS
10
136.3846729999999923
20
-108.5850760000000008
11
136.5751489999999819
21
-108.7755519999999905
0
LINE
8
BLACK
6
CONTINUOUS
10
136.5751489999999819
20
-108.7755519999999905
11
136.6703870000000052
21
-108.9660279999999943
0
LINE
8
BLACK
6
CONTINUOUS
10
136.6703870000000052
20
-108.9660279999999943
11
136.765625
21
-109.3469800000000021
0
LINE
8
BLACK
6
CONTINUOUS
10
136.765625
20
-109.3469800000000021
11
136.765625
21
-109.6326949999999982
0
LINE
8
BLACK
6
CONTINUOUS
10
136.765625
20
-109.6326949999999982
11
136.6703870000000052
21
-110.0136469999999917
0
LINE
8
BLACK
6
CONTINUOUS
10
136.6703870000000052
20
-110.0136469999999917
11
136.5751489999999819
21
-110.2041229999999956
0
LINE
8
BLACK
6
CONTINUOUS
10
136.5751489999999819
20
-110.2041229999999956
11
136.3846729999999923
21
-110.394599999999997
0
LINE
8
BLACK
6
CONTINUOUS
10
136.3846729999999923
20
-110.394599999999997
11
136.0989579999999819
21
-110.4898379999999918
0
LINE
8
BLACK
6
CONTINUOUS
10
136.0989579999999819
20
-110.4898379999999918
11
135.6227680000000078
21
-110.4898379999999918
0
LINE
8
BLACK
6
CONTINUOUS
10
137.6227680000000078
20
-110.4898379999999918
11
137.6227680000000078
21
-109.1565039999999982
0
LINE
8
BLACK
6
CONTINUOUS
10
137.6227680000000078
20
-109.5374569999999892
11
137.7180060000000026
21
-109.3469800000000021
0
LINE
8
BLACK
6
CONTINUOUS
10
137.7180060000000026
20
-109.3469800000000021
11
137.8132439999999974
21
-109.251741999999993
0
LINE
8
BLACK
6
CONTINUOUS
10
137.8132439999999974
20
-109.251741999999993
11
138.0037199999999871
21
-109.1565039999999982
0
LINE
8
BLACK
6
CONTINUOUS
10
138.0037199999999871
20
-109.1565039999999982
11
138.1941970000000026
21
-109.1565039999999982
0
LINE
8
BLACK
6
CONTINUOUS
10
138.8608629999999948
20
-110.4898379999999918
11
138.8608629999999948
21
-109.1565039999999982
0
LINE
8
BLACK
6
CONTINUOUS
10
138.8608629999999948
20
-108.4898379999999918
11
138.765625
21
-108.5850760000000008
0
LINE
8
BLACK
6
CONTINUOUS
10
138.765625
20
-108.5850760000000008
11
138.8608629999999948
21
-108.6803139999999956
0
LINE
8
BLACK
6
CONTINUOUS
10
138.8608629999999948
20
-108.6803139999999956
11
138.9561009999999897
21
-108.5850760000000008
0
LINE
8
BLACK
6
CONTINUOUS
10
138.9561009999999897
20
-108.5850760000000008
11
138.8608629999999948
21
-108.4898379999999918
0
LINE
8
BLACK
6
CONTINUOUS
10
138.8608629999999948
20
-108.4898379999999918
11
138.8608629999999948
21
-108.6803139999999956
0
LINE
8
BLACK
6
CONTINUOUS
10
140.0989579999999819
20
-110.4898379999999918
11
139.9084819999999922
21
-110.394599999999997
0
LINE
8
BLACK
6
CONTINUOUS
10
139.9084819999999922
20
-110.394599999999997
11
139.8132439999999974
21
-110.2041229999999956
0
LINE
8
BLACK
6
CONTINUOUS
10
139.8132439999999974
20
-110.2041229999999956
11
139.8132439999999974
21
-108.4898379999999918
0
LINE
8
BLACK
6
CONTINUOUS
10
141.1465770000000077
20
-110.4898379999999918
11
140.9561009999999897
21
-110.394599999999997
0
LINE
8
BLACK
6
CONTINUOUS
10
140.9561009999999897
20
-110.394599999999997
11
140.8608629999999948
21
-110.2041229999999956
0
LINE
8
BLACK
6
CONTINUOUS
10
140.8608629999999948
20
-110.2041229999999956
11
140.8608629999999948
21
-108.4898379999999918
0
LINE
8
BLACK
6
CONTINUOUS
10
143.4322919999999897
20
-110.4898379999999918
11
143.4322919999999897
21
-108.4898379999999918
0
LINE
8
BLACK
6
CONTINUOUS
10
143.4322919999999897
20
-108.4898379999999918
11
144.0989589999999794
21
-109.9184089999999969
0
LINE
8
BLACK
6
CONTINUOUS
10
144.0989589999999794
20
-109.9184089999999969
11
144.765625
21
-108.4898379999999918
0
LINE
8
BLACK
6
CONTINUOUS
10
144.765625
20
-108.4898379999999918
11
144.765625
21
-110.4898379999999918
0
LINE
8
BLACK
6
CONTINUOUS
10
146.5751489999999819
20
-110.4898379999999918
11
146.5751489999999819
21
-109.4422189999999944
0
LINE
8
BLACK
6
CONTINUOUS
10
146.5751489999999819
20
-109.4422189999999944
11
146.4799109999999871
21
-109.251741999999993
0
LINE
8
BLACK
6
CONTINUOUS
10
146.4799109999999871
20
-109.251741999999993
11
146.2894349999999974
21
-109.1565039999999982
0
LINE
8
BLACK
6
CONTINUOUS
10
146.2894349999999974
20
-109.1565039999999982
11
145.9084819999999922
21
-109.1565039999999982
0
LINE
8
BLACK
6
CONTINUOUS
10
145.9084819999999922
20
-109.1565039999999982
11
145.7180060000000026
21
-109.251741999999993
0
LINE
8
BLACK
6
CONTINUOUS
10
146.5751489999999819
20
-110.394599999999997
11
146.3846729999999923
21
-110.4898379999999918
0
LINE
8
BLACK
6
CONTINUOUS
10
146.3846729999999923
20
-110.4898379999999918
11
145.9084819999999922
21
-110.4898379999999918
0
LINE
8
BLACK
6
CONTINUOUS
10
145.9084819999999922
20
-110.4898379999999918
11
145.7180060000000026
21
-110.394599999999997
0
LINE
8
BLACK
6
CONTINUOUS
10
145.7180060000000026
20
-110.394599999999997
11
145.6227679999999793
21
-110.2041229999999956
0
LINE
8
BLACK
6
CONTINUOUS
10
145.6227679999999793
20
-110.2041229999999956
11
145.6227679999999793
21
-110.0136469999999917
0
LINE
8
BLACK
6
CONTINUOUS
10
145.6227679999999793
20
-110.0136469999999917
11
145.7180060000000026
21
-109.8231710000000021
0
LINE
8
BLACK
6
CONTINUOUS
10
145.7180060000000026
20
-109.8231710000000021
11
145.9084819999999922
21
-109.7279329999999931
0
LINE
8
BLACK
6
CONTINUOUS
10
145.9084819999999922
20
-109.7279329999999931
11
146.3846729999999923
21
-109.7279329999999931
0
LINE
8
BLACK
6
CONTINUOUS
10
146.3846729999999923
20
-109.7279329999999931
11
146.5751489999999819
21
-109.6326949999999982
0
LINE
8
BLACK
6
CONTINUOUS
10
147.5275299999999845
20
-109.1565039999999982
11
147.5275299999999845
21
-111.1565039999999982
0
LINE
8
BLACK
6
CONTINUOUS
10
147.5275299999999845
20
-109.251741999999993
11
147.7180060000000026
21
-109.1565039999999982
0
LINE
8
BLACK
6
CONTINUOUS
10
147.7180060000000026
20
-109.1565039999999982
11
148.0989589999999794
21
-109.1565039999999982
0
LINE
8
BLACK
6
CONTINUOUS
10
148.0989589999999794
20
-109.1565039999999982
11
148.2894349999999974
21
-109.251741999999993
0
LINE
8
BLACK
6
CONTINUOUS
10
148.2894349999999974
20
-109.251741999999993
11
148.3846729999999923
21
-109.3469800000000021
0
LINE
8
BLACK
6
CONTINUOUS
10
148.3846729999999923
20
-109.3469800000000021
11
148.4799109999999871
21
-109.5374569999999892
0
LINE
8
BLACK
6
CONTINUOUS
10
148.4799109999999871
20
-109.5374569999999892
11
148.4799109999999871
21
-110.1088850000000008
0
LINE
8
BLACK
6
CONTINUOUS
10
148.4799109999999871
20
-110.1088850000000008
11
148.3846729999999923
21
-110.2993609999999904
0
LINE
8
BLACK
6
CONTINUOUS
10
148.3846729999999923
20
-110.2993609999999904
11
148.2894349999999974
21
-110.394599999999997
0
LINE
8
BLACK
6
CONTINUOUS
10
148.2894349999999974
20
-110.394599999999997
11
148.0989589999999794
21
-110.4898379999999918
0
LINE
8
BLACK
6
CONTINUOUS
10
148.0989589999999794
20
-110.4898379999999918
11
147.7180060000000026
21
-110.4898379999999918
0
LINE
8
BLACK
6
CONTINUOUS
10
147.7180060000000026
20
-110.4898379999999918
11
147.5275299999999845
21
-110.394599999999997
0
LINE
8
BLACK
6
CONTINUOUS
10
149.3370539999999949
20
-110.2993609999999904
11
149.4322919999999897
21
-110.394599999999997
0
LINE
8
BLACK
6
CONTINUOUS
10
149.4322919999999897
20
-110.394599999999997
11
149.3370539999999949
21
-110.4898379999999918
0
LINE
8
BLACK
6
CONTINUOUS
10
149.3370539999999949
20
-110.4898379999999918
11
149.241816
21
-110.394599999999997
0
LINE
8
BLACK
6
CONTINUOUS
10
149.241816
20
-110.394599999999997
11
149.3370539999999949
21
-110.2993609999999904
0
LINE
8
BLACK
6
CONTINUOUS
10
149.3370539999999949
20
-110.2993609999999904
11
149.3370539999999949
21
-110.4898379999999918
0
LINE
8
BLACK
6
CONTINUOUS
10
149.3370539999999949
20
-109.251741999999993
11
149.4322919999999897
21
-109.3469800000000021
0
LINE
8
BLACK
6
CONTINUOUS
10
149.4322919999999897
20
-109.3469800000000021
11
149.3370539999999949
21
-109.4422189999999944
0
LINE
8
BLACK
6
CONTINUOUS
10
149.3370539999999949
20
-109.4422189999999944
11
149.241816
21
-109.3469800000000021
0
LINE
8
BLACK
6
CONTINUOUS
10
149.241816
20
-109.3469800000000021
11
149.3370539999999949
21
-109.251741999999993
0
LINE
8
BLACK
6
CONTINUOUS
10
149.3370539999999949
20
-109.251741999999993
11
149.3370539999999949
21
-109.4422189999999944
  0
ENDSEC
  0
EOF
