G04 #@! TF.GenerationSoftware,KiCad,Pcbnew,7.0.9*
G04 #@! TF.CreationDate,2024-01-20T08:56:29+10:00*
G04 #@! TF.ProjectId,INSTRUMENTS_CONTROLLER,494e5354-5255-44d4-954e-54535f434f4e,rev?*
G04 #@! TF.SameCoordinates,Original*
G04 #@! TF.FileFunction,Copper,L1,Top*
G04 #@! TF.FilePolarity,Positive*
%FSLAX46Y46*%
G04 Gerber Fmt 4.6, Leading zero omitted, Abs format (unit mm)*
G04 Created by KiCad (PCBNEW 7.0.9) date 2024-01-20 08:56:29*
%MOMM*%
%LPD*%
G01*
G04 APERTURE LIST*
G04 Aperture macros list*
%AMRoundRect*
0 Rectangle with rounded corners*
0 $1 Rounding radius*
0 $2 $3 $4 $5 $6 $7 $8 $9 X,Y pos of 4 corners*
0 Add a 4 corners polygon primitive as box body*
4,1,4,$2,$3,$4,$5,$6,$7,$8,$9,$2,$3,0*
0 Add four circle primitives for the rounded corners*
1,1,$1+$1,$2,$3*
1,1,$1+$1,$4,$5*
1,1,$1+$1,$6,$7*
1,1,$1+$1,$8,$9*
0 Add four rect primitives between the rounded corners*
20,1,$1+$1,$2,$3,$4,$5,0*
20,1,$1+$1,$4,$5,$6,$7,0*
20,1,$1+$1,$6,$7,$8,$9,0*
20,1,$1+$1,$8,$9,$2,$3,0*%
G04 Aperture macros list end*
G04 #@! TA.AperFunction,ComponentPad*
%ADD10C,1.727200*%
G04 #@! TD*
G04 #@! TA.AperFunction,ComponentPad*
%ADD11O,1.727200X1.727200*%
G04 #@! TD*
G04 #@! TA.AperFunction,ComponentPad*
%ADD12O,1.727200X2.032000*%
G04 #@! TD*
G04 #@! TA.AperFunction,ComponentPad*
%ADD13R,1.800000X1.800000*%
G04 #@! TD*
G04 #@! TA.AperFunction,ComponentPad*
%ADD14C,1.800000*%
G04 #@! TD*
G04 #@! TA.AperFunction,ComponentPad*
%ADD15C,1.400000*%
G04 #@! TD*
G04 #@! TA.AperFunction,ComponentPad*
%ADD16O,1.400000X1.400000*%
G04 #@! TD*
G04 #@! TA.AperFunction,ComponentPad*
%ADD17R,1.905000X2.000000*%
G04 #@! TD*
G04 #@! TA.AperFunction,ComponentPad*
%ADD18O,1.905000X2.000000*%
G04 #@! TD*
G04 #@! TA.AperFunction,ComponentPad*
%ADD19RoundRect,0.250000X0.600000X-0.600000X0.600000X0.600000X-0.600000X0.600000X-0.600000X-0.600000X0*%
G04 #@! TD*
G04 #@! TA.AperFunction,ComponentPad*
%ADD20C,1.700000*%
G04 #@! TD*
G04 #@! TA.AperFunction,ComponentPad*
%ADD21RoundRect,0.250000X-0.620000X-0.845000X0.620000X-0.845000X0.620000X0.845000X-0.620000X0.845000X0*%
G04 #@! TD*
G04 #@! TA.AperFunction,ComponentPad*
%ADD22O,1.740000X2.190000*%
G04 #@! TD*
G04 #@! TA.AperFunction,ComponentPad*
%ADD23C,1.600000*%
G04 #@! TD*
G04 #@! TA.AperFunction,ComponentPad*
%ADD24R,3.500000X3.500000*%
G04 #@! TD*
G04 #@! TA.AperFunction,ComponentPad*
%ADD25RoundRect,0.750000X-0.750000X-1.000000X0.750000X-1.000000X0.750000X1.000000X-0.750000X1.000000X0*%
G04 #@! TD*
G04 #@! TA.AperFunction,ComponentPad*
%ADD26RoundRect,0.875000X-0.875000X-0.875000X0.875000X-0.875000X0.875000X0.875000X-0.875000X0.875000X0*%
G04 #@! TD*
G04 #@! TA.AperFunction,ComponentPad*
%ADD27R,1.500000X1.600000*%
G04 #@! TD*
G04 #@! TA.AperFunction,ComponentPad*
%ADD28C,3.000000*%
G04 #@! TD*
G04 #@! TA.AperFunction,ComponentPad*
%ADD29R,1.665000X1.665000*%
G04 #@! TD*
G04 #@! TA.AperFunction,ComponentPad*
%ADD30C,1.665000*%
G04 #@! TD*
G04 #@! TA.AperFunction,ViaPad*
%ADD31C,0.600000*%
G04 #@! TD*
G04 #@! TA.AperFunction,Conductor*
%ADD32C,0.250000*%
G04 #@! TD*
G04 APERTURE END LIST*
D10*
X197358000Y-114046000D03*
D11*
X199898000Y-114046000D03*
X197358000Y-111506000D03*
X199898000Y-111506000D03*
X197358000Y-108966000D03*
X199898000Y-108966000D03*
X197358000Y-106426000D03*
X199898000Y-106426000D03*
X197358000Y-103886000D03*
X199898000Y-103886000D03*
X197358000Y-101346000D03*
X199898000Y-101346000D03*
X197358000Y-98806000D03*
X199898000Y-98806000D03*
X197358000Y-96266000D03*
X199898000Y-96266000D03*
X197358000Y-93726000D03*
X199898000Y-93726000D03*
X197358000Y-91186000D03*
X199898000Y-91186000D03*
X197358000Y-88646000D03*
X199898000Y-88646000D03*
X197358000Y-86106000D03*
X199898000Y-86106000D03*
X197358000Y-83566000D03*
X199898000Y-83566000D03*
X197358000Y-81026000D03*
X199898000Y-81026000D03*
X197358000Y-78486000D03*
X199898000Y-78486000D03*
X197358000Y-75946000D03*
X199898000Y-75946000D03*
X197358000Y-73406000D03*
X199898000Y-73406000D03*
X197358000Y-70866000D03*
X199898000Y-70866000D03*
D12*
X131318000Y-119126000D03*
X133858000Y-119126000D03*
X136398000Y-119126000D03*
X138938000Y-119126000D03*
X141478000Y-119126000D03*
X144018000Y-119126000D03*
X146558000Y-119126000D03*
X149098000Y-119126000D03*
X177038000Y-119126000D03*
X179578000Y-119126000D03*
X182118000Y-119126000D03*
X184658000Y-119126000D03*
X187198000Y-119126000D03*
X189738000Y-119126000D03*
X192278000Y-119126000D03*
X194818000Y-119126000D03*
X127254000Y-70866000D03*
X129794000Y-70866000D03*
X132334000Y-70866000D03*
X134874000Y-70866000D03*
X137414000Y-70866000D03*
X139954000Y-70866000D03*
X142494000Y-70866000D03*
X145034000Y-70866000D03*
X149098000Y-70866000D03*
X151638000Y-70866000D03*
X154178000Y-70866000D03*
X156718000Y-70866000D03*
X159258000Y-70866000D03*
X161798000Y-70866000D03*
X164338000Y-70866000D03*
X166878000Y-70866000D03*
X171958000Y-70866000D03*
X174498000Y-70866000D03*
X177038000Y-70866000D03*
X179578000Y-70866000D03*
X182118000Y-70866000D03*
X184658000Y-70866000D03*
X187198000Y-70866000D03*
X189738000Y-70866000D03*
D13*
X146330000Y-101525000D03*
D14*
X146330000Y-98985000D03*
D13*
X146280000Y-113425000D03*
D14*
X146280000Y-110885000D03*
D15*
X145060000Y-94550000D03*
D16*
X147600000Y-94550000D03*
D13*
X144850000Y-84975000D03*
D14*
X144850000Y-82435000D03*
D17*
X154600000Y-106500000D03*
D18*
X157140000Y-106500000D03*
X159680000Y-106500000D03*
D19*
X208230000Y-87950000D03*
D20*
X208230000Y-85410000D03*
X210770000Y-87950000D03*
X210770000Y-85410000D03*
X213310000Y-87950000D03*
X213310000Y-85410000D03*
X215850000Y-87950000D03*
X215850000Y-85410000D03*
X218390000Y-87950000D03*
X218390000Y-85410000D03*
D15*
X179950000Y-104620000D03*
D16*
X179950000Y-102080000D03*
D15*
X154530000Y-97850000D03*
D16*
X157070000Y-97850000D03*
D21*
X223360000Y-107750000D03*
D22*
X225900000Y-107750000D03*
X228440000Y-107750000D03*
X230980000Y-107750000D03*
D23*
X187400000Y-104700000D03*
X187400000Y-99700000D03*
D15*
X145160000Y-107000000D03*
D16*
X147700000Y-107000000D03*
D15*
X159590000Y-111485000D03*
D16*
X159590000Y-114025000D03*
D21*
X228850000Y-74270000D03*
D22*
X231390000Y-74270000D03*
X233930000Y-74270000D03*
X236470000Y-74270000D03*
X239010000Y-74270000D03*
X241550000Y-74270000D03*
D24*
X135650000Y-97800000D03*
D25*
X129650000Y-97800000D03*
D26*
X132650000Y-102500000D03*
D27*
X136750000Y-79000000D03*
D23*
X136750000Y-81500000D03*
X136750000Y-83500000D03*
X136750000Y-86000000D03*
D28*
X134040000Y-75930000D03*
X134040000Y-89070000D03*
D23*
X191650000Y-104700000D03*
X191650000Y-99700000D03*
D21*
X224530000Y-116820000D03*
D22*
X227070000Y-116820000D03*
D12*
X154178000Y-119126000D03*
X156718000Y-119126000D03*
X159258000Y-119126000D03*
X161798000Y-119126000D03*
X164338000Y-119126000D03*
X166878000Y-119126000D03*
X169418000Y-119126000D03*
X171958000Y-119126000D03*
D15*
X154530000Y-87250000D03*
D16*
X157070000Y-87250000D03*
D21*
X244080000Y-99520000D03*
D22*
X246620000Y-99520000D03*
X249160000Y-99520000D03*
X251700000Y-99520000D03*
D21*
X246410000Y-107650000D03*
D22*
X248950000Y-107650000D03*
X251490000Y-107650000D03*
D24*
X135750000Y-110242500D03*
D25*
X129750000Y-110242500D03*
D26*
X132750000Y-114942500D03*
D15*
X154480000Y-92550000D03*
D16*
X157020000Y-92550000D03*
D21*
X233480000Y-116870000D03*
D22*
X236020000Y-116870000D03*
D23*
X183250000Y-104600000D03*
X183250000Y-99600000D03*
D19*
X173030000Y-112652500D03*
D20*
X173030000Y-110112500D03*
X175570000Y-112652500D03*
X175570000Y-110112500D03*
X178110000Y-112652500D03*
X178110000Y-110112500D03*
X180650000Y-112652500D03*
X180650000Y-110112500D03*
X183190000Y-112652500D03*
X183190000Y-110112500D03*
X185730000Y-112652500D03*
X185730000Y-110112500D03*
X188270000Y-112652500D03*
X188270000Y-110112500D03*
D21*
X205680000Y-107750000D03*
D22*
X208220000Y-107750000D03*
X210760000Y-107750000D03*
X213300000Y-107750000D03*
X215840000Y-107750000D03*
X218380000Y-107750000D03*
D21*
X236160000Y-107700000D03*
D22*
X238700000Y-107700000D03*
X241240000Y-107700000D03*
D13*
X144750000Y-79575000D03*
D14*
X144750000Y-77035000D03*
D21*
X220750000Y-99620000D03*
D22*
X223290000Y-99620000D03*
X225830000Y-99620000D03*
D29*
X174340000Y-95885000D03*
D30*
X176880000Y-95885000D03*
X179420000Y-95885000D03*
X181960000Y-95885000D03*
X184500000Y-95885000D03*
X187040000Y-95885000D03*
D29*
X174340000Y-75565000D03*
D30*
X176880000Y-75565000D03*
X179420000Y-75565000D03*
X181960000Y-75565000D03*
X184500000Y-75565000D03*
X187040000Y-75565000D03*
D21*
X231150000Y-99500000D03*
D22*
X233690000Y-99500000D03*
X236230000Y-99500000D03*
X238770000Y-99500000D03*
D15*
X155940000Y-111435000D03*
D16*
X155940000Y-113975000D03*
D21*
X228730000Y-82950000D03*
D22*
X231270000Y-82950000D03*
X233810000Y-82950000D03*
X236350000Y-82950000D03*
X238890000Y-82950000D03*
X241430000Y-82950000D03*
D21*
X210550000Y-99570000D03*
D22*
X213090000Y-99570000D03*
X215630000Y-99570000D03*
D21*
X228820000Y-90920000D03*
D22*
X231360000Y-90920000D03*
X233900000Y-90920000D03*
X236440000Y-90920000D03*
X238980000Y-90920000D03*
X241520000Y-90920000D03*
X244060000Y-90920000D03*
X246600000Y-90920000D03*
X249140000Y-90920000D03*
X251680000Y-90920000D03*
D15*
X172400000Y-104620000D03*
D16*
X172400000Y-102080000D03*
D21*
X206880000Y-116920000D03*
D22*
X209420000Y-116920000D03*
D19*
X207470000Y-75302500D03*
D20*
X207470000Y-72762500D03*
X210010000Y-75302500D03*
X210010000Y-72762500D03*
X212550000Y-75302500D03*
X212550000Y-72762500D03*
X215090000Y-75302500D03*
X215090000Y-72762500D03*
X217630000Y-75302500D03*
X217630000Y-72762500D03*
D21*
X215860000Y-116850000D03*
D22*
X218400000Y-116850000D03*
D15*
X176250000Y-104520000D03*
D16*
X176250000Y-101980000D03*
D31*
X197679100Y-120252300D03*
X207771800Y-101006000D03*
X198086300Y-100007200D03*
X192041300Y-113413900D03*
X166938400Y-87595600D03*
X168337600Y-89650300D03*
X164640800Y-88525200D03*
X188459100Y-103551000D03*
X231952900Y-96528700D03*
X168636300Y-113828800D03*
X189917300Y-112977200D03*
X164965500Y-90527200D03*
D32*
X170606900Y-119646100D02*
X170606900Y-119126000D01*
X171434300Y-120473500D02*
X170606900Y-119646100D01*
X197457900Y-120473500D02*
X171434300Y-120473500D01*
X197679100Y-120252300D02*
X197457900Y-120473500D01*
X169418000Y-119126000D02*
X170606900Y-119126000D01*
X206773000Y-100007200D02*
X198086300Y-100007200D01*
X207771800Y-101006000D02*
X206773000Y-100007200D01*
X225900000Y-107750000D02*
X227095300Y-107750000D01*
X182118000Y-70866000D02*
X183306900Y-70866000D01*
X183306900Y-71386100D02*
X183306900Y-70866000D01*
X185155500Y-73234700D02*
X183306900Y-71386100D01*
X188493300Y-73234700D02*
X185155500Y-73234700D01*
X195014600Y-79756000D02*
X188493300Y-73234700D01*
X221446600Y-79756000D02*
X195014600Y-79756000D01*
X227483700Y-85793100D02*
X221446600Y-79756000D01*
X235820800Y-85793100D02*
X227483700Y-85793100D01*
X240250000Y-90222300D02*
X235820800Y-85793100D01*
X240250000Y-94883500D02*
X240250000Y-90222300D01*
X241069600Y-95703100D02*
X240250000Y-94883500D01*
X241069600Y-98815500D02*
X241069600Y-95703100D01*
X248146500Y-105892400D02*
X241069600Y-98815500D01*
X249124900Y-105892400D02*
X248146500Y-105892400D01*
X250164800Y-106932300D02*
X249124900Y-105892400D01*
X250164800Y-108419500D02*
X250164800Y-106932300D01*
X248931000Y-109653300D02*
X250164800Y-108419500D01*
X228400900Y-109653300D02*
X248931000Y-109653300D01*
X227095300Y-108347700D02*
X228400900Y-109653300D01*
X227095300Y-107750000D02*
X227095300Y-108347700D01*
X248950000Y-107650000D02*
X247754700Y-107650000D01*
X134874000Y-70866000D02*
X136062900Y-70866000D01*
X136062900Y-71386100D02*
X136062900Y-70866000D01*
X140023200Y-75346400D02*
X136062900Y-71386100D01*
X153097200Y-75346400D02*
X140023200Y-75346400D01*
X170186800Y-92436000D02*
X153097200Y-75346400D01*
X234298300Y-92436000D02*
X170186800Y-92436000D01*
X240552800Y-98690500D02*
X234298300Y-92436000D01*
X240552800Y-99327300D02*
X240552800Y-98690500D01*
X247754700Y-106529200D02*
X240552800Y-99327300D01*
X247754700Y-107650000D02*
X247754700Y-106529200D01*
X133522900Y-71386100D02*
X133522900Y-70866000D01*
X137946400Y-75809600D02*
X133522900Y-71386100D01*
X152923500Y-75809600D02*
X137946400Y-75809600D01*
X171841000Y-94727100D02*
X152923500Y-75809600D01*
X196169000Y-94727100D02*
X171841000Y-94727100D01*
X196437900Y-94996000D02*
X196169000Y-94727100D01*
X236221400Y-94996000D02*
X196437900Y-94996000D01*
X239968400Y-98743000D02*
X236221400Y-94996000D01*
X239968400Y-107626900D02*
X239968400Y-98743000D01*
X239895300Y-107700000D02*
X239968400Y-107626900D01*
X238700000Y-107700000D02*
X239895300Y-107700000D01*
X132334000Y-70866000D02*
X133522900Y-70866000D01*
X192029500Y-105079500D02*
X191650000Y-104700000D01*
X217606400Y-105079500D02*
X192029500Y-105079500D01*
X222094700Y-100591200D02*
X217606400Y-105079500D01*
X222094700Y-99620000D02*
X222094700Y-100591200D01*
X223290000Y-99620000D02*
X222094700Y-99620000D01*
X213090000Y-99570000D02*
X211894700Y-99570000D01*
X187400000Y-103725800D02*
X187400000Y-104700000D01*
X188472200Y-102653600D02*
X187400000Y-103725800D01*
X209782300Y-102653600D02*
X188472200Y-102653600D01*
X211894700Y-100541200D02*
X209782300Y-102653600D01*
X211894700Y-99570000D02*
X211894700Y-100541200D01*
X192760200Y-112695000D02*
X192041300Y-113413900D01*
X220755300Y-112695000D02*
X192760200Y-112695000D01*
X224564300Y-108886000D02*
X220755300Y-112695000D01*
X224564300Y-107168800D02*
X224564300Y-108886000D01*
X230550900Y-101182200D02*
X224564300Y-107168800D01*
X231783700Y-101182200D02*
X230550900Y-101182200D01*
X232494700Y-100471200D02*
X231783700Y-101182200D01*
X232494700Y-99500000D02*
X232494700Y-100471200D01*
X233690000Y-99500000D02*
X232494700Y-99500000D01*
X249160000Y-99520000D02*
X250355300Y-99520000D01*
X179578000Y-119126000D02*
X180766900Y-119126000D01*
X250355300Y-103451200D02*
X250355300Y-99520000D01*
X253188800Y-106284700D02*
X250355300Y-103451200D01*
X253188800Y-108521900D02*
X253188800Y-106284700D01*
X242902600Y-118808100D02*
X253188800Y-108521900D01*
X196976000Y-118808100D02*
X242902600Y-118808100D01*
X195921800Y-117753900D02*
X196976000Y-118808100D01*
X181618900Y-117753900D02*
X195921800Y-117753900D01*
X180766900Y-118605900D02*
X181618900Y-117753900D01*
X180766900Y-119126000D02*
X180766900Y-118605900D01*
X178226900Y-118605900D02*
X178226900Y-119126000D01*
X179529300Y-117303500D02*
X178226900Y-118605900D01*
X198129000Y-117303500D02*
X179529300Y-117303500D01*
X199178000Y-118352500D02*
X198129000Y-117303500D01*
X211645900Y-118352500D02*
X199178000Y-118352500D01*
X215789300Y-114209100D02*
X211645900Y-118352500D01*
X246864700Y-114209100D02*
X215789300Y-114209100D01*
X252738500Y-108335300D02*
X246864700Y-114209100D01*
X252738500Y-106940000D02*
X252738500Y-108335300D01*
X246738800Y-100940300D02*
X252738500Y-106940000D01*
X246620000Y-100940300D02*
X246738800Y-100940300D01*
X246620000Y-99520000D02*
X246620000Y-100940300D01*
X177038000Y-119126000D02*
X178226900Y-119126000D01*
X150286900Y-71386100D02*
X150286900Y-70866000D01*
X151494800Y-72594000D02*
X150286900Y-71386100D01*
X163480100Y-72594000D02*
X151494800Y-72594000D01*
X173182100Y-82296000D02*
X163480100Y-72594000D01*
X219161700Y-82296000D02*
X173182100Y-82296000D01*
X226364300Y-89498600D02*
X219161700Y-82296000D01*
X236960900Y-89498600D02*
X226364300Y-89498600D01*
X237784700Y-90322400D02*
X236960900Y-89498600D01*
X237784700Y-90920000D02*
X237784700Y-90322400D01*
X238980000Y-90920000D02*
X237784700Y-90920000D01*
X149098000Y-70866000D02*
X150286900Y-70866000D01*
X185075000Y-97850000D02*
X158095300Y-97850000D01*
X187040000Y-95885000D02*
X185075000Y-97850000D01*
X157070000Y-97850000D02*
X158095300Y-97850000D01*
X145034000Y-70866000D02*
X146222900Y-70866000D01*
X148902100Y-73545200D02*
X146222900Y-70866000D01*
X152888000Y-73545200D02*
X148902100Y-73545200D01*
X166938400Y-87595600D02*
X152888000Y-73545200D01*
X142494000Y-70866000D02*
X143682900Y-70866000D01*
X143682900Y-71386100D02*
X143682900Y-70866000D01*
X147192800Y-74896000D02*
X143682900Y-71386100D01*
X153293300Y-74896000D02*
X147192800Y-74896000D01*
X168047600Y-89650300D02*
X153293300Y-74896000D01*
X168337600Y-89650300D02*
X168047600Y-89650300D01*
X199898000Y-114046000D02*
X197358000Y-114046000D01*
X199898000Y-70866000D02*
X197358000Y-70866000D01*
X159566300Y-93599700D02*
X164640800Y-88525200D01*
X155529700Y-93599700D02*
X159566300Y-93599700D01*
X154480000Y-92550000D02*
X155529700Y-93599700D01*
X198709100Y-108594400D02*
X198709100Y-108966000D01*
X197891800Y-107777100D02*
X198709100Y-108594400D01*
X192685200Y-107777100D02*
X197891800Y-107777100D01*
X188459100Y-103551000D02*
X192685200Y-107777100D01*
X199898000Y-108966000D02*
X198709100Y-108966000D01*
X230875500Y-96528700D02*
X231952900Y-96528700D01*
X225515000Y-101889200D02*
X230875500Y-96528700D01*
X222298500Y-101889200D02*
X225515000Y-101889200D01*
X217035300Y-107152400D02*
X222298500Y-101889200D01*
X217035300Y-107750000D02*
X217035300Y-107152400D01*
X215840000Y-107750000D02*
X217035300Y-107750000D01*
X199898000Y-86106000D02*
X201086900Y-86106000D01*
X204111100Y-89130200D02*
X201086900Y-86106000D01*
X214669800Y-89130200D02*
X204111100Y-89130200D01*
X215850000Y-87950000D02*
X214669800Y-89130200D01*
X199898000Y-83566000D02*
X201086900Y-83566000D01*
X204221600Y-86700700D02*
X201086900Y-83566000D01*
X209520700Y-86700700D02*
X204221600Y-86700700D01*
X210770000Y-87950000D02*
X209520700Y-86700700D01*
X198546900Y-83937600D02*
X198546900Y-83566000D01*
X199364200Y-84754900D02*
X198546900Y-83937600D01*
X201407600Y-84754900D02*
X199364200Y-84754900D01*
X204602700Y-87950000D02*
X201407600Y-84754900D01*
X208230000Y-87950000D02*
X204602700Y-87950000D01*
X197358000Y-83566000D02*
X198546900Y-83566000D01*
X221006300Y-118261000D02*
X219595300Y-116850000D01*
X225404900Y-118261000D02*
X221006300Y-118261000D01*
X225874700Y-117791200D02*
X225404900Y-118261000D01*
X225874700Y-116820000D02*
X225874700Y-117791200D01*
X227070000Y-116820000D02*
X225874700Y-116820000D01*
X218400000Y-116850000D02*
X219595300Y-116850000D01*
X209420000Y-116920000D02*
X208224700Y-116920000D01*
X229763500Y-118318200D02*
X228265300Y-116820000D01*
X234347700Y-118318200D02*
X229763500Y-118318200D01*
X234824700Y-117841200D02*
X234347700Y-118318200D01*
X234824700Y-116870000D02*
X234824700Y-117841200D01*
X236020000Y-116870000D02*
X234824700Y-116870000D01*
X227070000Y-116820000D02*
X228265300Y-116820000D01*
X187093700Y-113828800D02*
X168636300Y-113828800D01*
X188270000Y-112652500D02*
X187093700Y-113828800D01*
X188570600Y-112351900D02*
X188270000Y-112652500D01*
X190176400Y-112351900D02*
X188570600Y-112351900D01*
X191416000Y-113591500D02*
X190176400Y-112351900D01*
X191416000Y-113673000D02*
X191416000Y-113591500D01*
X192985000Y-115242000D02*
X191416000Y-113673000D01*
X207517900Y-115242000D02*
X192985000Y-115242000D01*
X208224700Y-115948800D02*
X207517900Y-115242000D01*
X208224700Y-116920000D02*
X208224700Y-115948800D01*
X201625800Y-76484900D02*
X201086900Y-75946000D01*
X210597700Y-76484900D02*
X201625800Y-76484900D01*
X211280000Y-75802600D02*
X210597700Y-76484900D01*
X211280000Y-74871500D02*
X211280000Y-75802600D01*
X212024400Y-74127100D02*
X211280000Y-74871500D01*
X213914600Y-74127100D02*
X212024400Y-74127100D01*
X215090000Y-75302500D02*
X213914600Y-74127100D01*
X199898000Y-75946000D02*
X201086900Y-75946000D01*
X198546900Y-76317600D02*
X198546900Y-75946000D01*
X199364200Y-77134900D02*
X198546900Y-76317600D01*
X210717600Y-77134900D02*
X199364200Y-77134900D01*
X212550000Y-75302500D02*
X210717600Y-77134900D01*
X197358000Y-75946000D02*
X198546900Y-75946000D01*
X201661300Y-73980400D02*
X201086900Y-73406000D01*
X208687900Y-73980400D02*
X201661300Y-73980400D01*
X210010000Y-75302500D02*
X208687900Y-73980400D01*
X199898000Y-73406000D02*
X201086900Y-73406000D01*
X196988500Y-77297100D02*
X197358000Y-77297100D01*
X196158000Y-76466600D02*
X196988500Y-77297100D01*
X196158000Y-72861000D02*
X196158000Y-76466600D01*
X196804700Y-72214300D02*
X196158000Y-72861000D01*
X206921800Y-72214300D02*
X196804700Y-72214300D01*
X207470000Y-72762500D02*
X206921800Y-72214300D01*
X197358000Y-78486000D02*
X197358000Y-77297100D01*
X198546900Y-73777600D02*
X198546900Y-73406000D01*
X199364200Y-74594900D02*
X198546900Y-73777600D01*
X206762400Y-74594900D02*
X199364200Y-74594900D01*
X207470000Y-75302500D02*
X206762400Y-74594900D01*
X197358000Y-73406000D02*
X198546900Y-73406000D01*
X217296900Y-115413100D02*
X215860000Y-116850000D01*
X223123100Y-115413100D02*
X217296900Y-115413100D01*
X224530000Y-116820000D02*
X223123100Y-115413100D01*
X148687400Y-103472600D02*
X145160000Y-107000000D01*
X183716100Y-103472600D02*
X148687400Y-103472600D01*
X188270000Y-108026500D02*
X183716100Y-103472600D01*
X188270000Y-110112500D02*
X188270000Y-108026500D01*
X221633100Y-79305600D02*
X217630000Y-75302500D01*
X234647900Y-79305600D02*
X221633100Y-79305600D01*
X237694700Y-82352400D02*
X234647900Y-79305600D01*
X237694700Y-82950000D02*
X237694700Y-82352400D01*
X238890000Y-82950000D02*
X237694700Y-82950000D01*
X193788000Y-116847900D02*
X189917300Y-112977200D01*
X206807900Y-116847900D02*
X193788000Y-116847900D01*
X206880000Y-116920000D02*
X206807900Y-116847900D01*
X244933700Y-109126300D02*
X246410000Y-107650000D01*
X237586300Y-109126300D02*
X244933700Y-109126300D01*
X236160000Y-107700000D02*
X237586300Y-109126300D01*
X241520000Y-96960000D02*
X244080000Y-99520000D01*
X241520000Y-90920000D02*
X241520000Y-96960000D01*
X223360000Y-107290000D02*
X231150000Y-99500000D01*
X223360000Y-107750000D02*
X223360000Y-107290000D01*
X187000000Y-111382500D02*
X185730000Y-112652500D01*
X192439900Y-111382500D02*
X187000000Y-111382500D01*
X193667400Y-110155000D02*
X192439900Y-111382500D01*
X220955000Y-110155000D02*
X193667400Y-110155000D01*
X223360000Y-107750000D02*
X220955000Y-110155000D01*
X145879700Y-82435000D02*
X144850000Y-82435000D01*
X155994700Y-92550000D02*
X145879700Y-82435000D01*
X157020000Y-92550000D02*
X155994700Y-92550000D01*
X145829700Y-77035000D02*
X144750000Y-77035000D01*
X156044700Y-87250000D02*
X145829700Y-77035000D01*
X157070000Y-87250000D02*
X156044700Y-87250000D01*
X178110000Y-109740000D02*
X178110000Y-110112500D01*
X183250000Y-104600000D02*
X178110000Y-109740000D01*
X160446900Y-118605900D02*
X160446900Y-119126000D01*
X167723700Y-111329100D02*
X160446900Y-118605900D01*
X176893400Y-111329100D02*
X167723700Y-111329100D01*
X178110000Y-110112500D02*
X176893400Y-111329100D01*
X159258000Y-119126000D02*
X160446900Y-119126000D01*
X179420000Y-75565000D02*
X176880000Y-75565000D01*
X138938000Y-111743300D02*
X138938000Y-119126000D01*
X152831300Y-97850000D02*
X138938000Y-111743300D01*
X154530000Y-97850000D02*
X152831300Y-97850000D01*
X156708300Y-95671700D02*
X154530000Y-97850000D01*
X159821000Y-95671700D02*
X156708300Y-95671700D01*
X164965500Y-90527200D02*
X159821000Y-95671700D01*
X176880000Y-95885000D02*
X174340000Y-95885000D01*
X185730000Y-110112500D02*
X183190000Y-110112500D01*
X146558000Y-119126000D02*
X144018000Y-119126000D01*
X144850000Y-84975000D02*
X143624700Y-84975000D01*
X143624700Y-81925600D02*
X143624700Y-84975000D01*
X144750000Y-80800300D02*
X143624700Y-81925600D01*
X144750000Y-79575000D02*
X144750000Y-80800300D01*
X148453200Y-112477100D02*
X147505300Y-113425000D01*
X158597900Y-112477100D02*
X148453200Y-112477100D01*
X159590000Y-111485000D02*
X158597900Y-112477100D01*
X237574700Y-102350600D02*
X232175300Y-107750000D01*
X237574700Y-99500000D02*
X237574700Y-102350600D01*
X238770000Y-99500000D02*
X237574700Y-99500000D01*
X230980000Y-107750000D02*
X232175300Y-107750000D01*
X146280000Y-113425000D02*
X146892700Y-113425000D01*
X146892700Y-113425000D02*
X147505300Y-113425000D01*
X146558000Y-113759700D02*
X146558000Y-119126000D01*
X146892700Y-113425000D02*
X146558000Y-113759700D01*
X142599700Y-86000000D02*
X143624700Y-84975000D01*
X136750000Y-86000000D02*
X142599700Y-86000000D01*
X178070000Y-106500000D02*
X159680000Y-106500000D01*
X179950000Y-104620000D02*
X178070000Y-106500000D01*
X191650000Y-99700000D02*
X187400000Y-99700000D01*
X183350000Y-99700000D02*
X183250000Y-99600000D01*
X187400000Y-99700000D02*
X183350000Y-99700000D01*
X193738700Y-97611300D02*
X191650000Y-99700000D01*
X213073600Y-97611300D02*
X193738700Y-97611300D01*
X214434700Y-98972400D02*
X213073600Y-97611300D01*
X214434700Y-99570000D02*
X214434700Y-98972400D01*
X215630000Y-99570000D02*
X214434700Y-99570000D01*
M02*
