G04 #@! TF.GenerationSoftware,KiCad,Pcbnew,7.0.9*
G04 #@! TF.CreationDate,2024-01-17T05:20:41+10:00*
G04 #@! TF.ProjectId,CONTROLLER_Radar Altimeter-V02,434f4e54-524f-44c4-9c45-525f52616461,1*
G04 #@! TF.SameCoordinates,Original*
G04 #@! TF.FileFunction,Legend,Bot*
G04 #@! TF.FilePolarity,Positive*
%FSLAX46Y46*%
G04 Gerber Fmt 4.6, Leading zero omitted, Abs format (unit mm)*
G04 Created by KiCad (PCBNEW 7.0.9) date 2024-01-17 05:20:41*
%MOMM*%
%LPD*%
G01*
G04 APERTURE LIST*
%ADD10C,0.250000*%
%ADD11C,0.150000*%
%ADD12C,0.120000*%
G04 APERTURE END LIST*
D10*
X71531429Y-84102238D02*
X72198096Y-83149857D01*
X72674286Y-84102238D02*
X72674286Y-82102238D01*
X72674286Y-82102238D02*
X71912381Y-82102238D01*
X71912381Y-82102238D02*
X71721905Y-82197476D01*
X71721905Y-82197476D02*
X71626667Y-82292714D01*
X71626667Y-82292714D02*
X71531429Y-82483190D01*
X71531429Y-82483190D02*
X71531429Y-82768904D01*
X71531429Y-82768904D02*
X71626667Y-82959380D01*
X71626667Y-82959380D02*
X71721905Y-83054619D01*
X71721905Y-83054619D02*
X71912381Y-83149857D01*
X71912381Y-83149857D02*
X72674286Y-83149857D01*
X70769524Y-83530809D02*
X69817143Y-83530809D01*
X70960000Y-84102238D02*
X70293334Y-82102238D01*
X70293334Y-82102238D02*
X69626667Y-84102238D01*
X68007619Y-84102238D02*
X68960000Y-84102238D01*
X68960000Y-84102238D02*
X68960000Y-82102238D01*
X67626666Y-82102238D02*
X66483809Y-82102238D01*
X67055238Y-84102238D02*
X67055238Y-82102238D01*
X72960000Y-87131761D02*
X73055238Y-87227000D01*
X73055238Y-87227000D02*
X73340952Y-87322238D01*
X73340952Y-87322238D02*
X73531428Y-87322238D01*
X73531428Y-87322238D02*
X73817143Y-87227000D01*
X73817143Y-87227000D02*
X74007619Y-87036523D01*
X74007619Y-87036523D02*
X74102857Y-86846047D01*
X74102857Y-86846047D02*
X74198095Y-86465095D01*
X74198095Y-86465095D02*
X74198095Y-86179380D01*
X74198095Y-86179380D02*
X74102857Y-85798428D01*
X74102857Y-85798428D02*
X74007619Y-85607952D01*
X74007619Y-85607952D02*
X73817143Y-85417476D01*
X73817143Y-85417476D02*
X73531428Y-85322238D01*
X73531428Y-85322238D02*
X73340952Y-85322238D01*
X73340952Y-85322238D02*
X73055238Y-85417476D01*
X73055238Y-85417476D02*
X72960000Y-85512714D01*
X72102857Y-87322238D02*
X72102857Y-85322238D01*
X72102857Y-85322238D02*
X70960000Y-87322238D01*
X70960000Y-87322238D02*
X70960000Y-85322238D01*
X70293333Y-85322238D02*
X69150476Y-85322238D01*
X69721905Y-87322238D02*
X69721905Y-85322238D01*
X67340952Y-87322238D02*
X68007619Y-86369857D01*
X68483809Y-87322238D02*
X68483809Y-85322238D01*
X68483809Y-85322238D02*
X67721904Y-85322238D01*
X67721904Y-85322238D02*
X67531428Y-85417476D01*
X67531428Y-85417476D02*
X67436190Y-85512714D01*
X67436190Y-85512714D02*
X67340952Y-85703190D01*
X67340952Y-85703190D02*
X67340952Y-85988904D01*
X67340952Y-85988904D02*
X67436190Y-86179380D01*
X67436190Y-86179380D02*
X67531428Y-86274619D01*
X67531428Y-86274619D02*
X67721904Y-86369857D01*
X67721904Y-86369857D02*
X68483809Y-86369857D01*
X65531428Y-87322238D02*
X66483809Y-87322238D01*
X66483809Y-87322238D02*
X66483809Y-85322238D01*
X63721904Y-87322238D02*
X64388571Y-86369857D01*
X64864761Y-87322238D02*
X64864761Y-85322238D01*
X64864761Y-85322238D02*
X64102856Y-85322238D01*
X64102856Y-85322238D02*
X63912380Y-85417476D01*
X63912380Y-85417476D02*
X63817142Y-85512714D01*
X63817142Y-85512714D02*
X63721904Y-85703190D01*
X63721904Y-85703190D02*
X63721904Y-85988904D01*
X63721904Y-85988904D02*
X63817142Y-86179380D01*
X63817142Y-86179380D02*
X63912380Y-86274619D01*
X63912380Y-86274619D02*
X64102856Y-86369857D01*
X64102856Y-86369857D02*
X64864761Y-86369857D01*
X71674285Y-89494619D02*
X71388571Y-89589857D01*
X71388571Y-89589857D02*
X71293333Y-89685095D01*
X71293333Y-89685095D02*
X71198095Y-89875571D01*
X71198095Y-89875571D02*
X71198095Y-90161285D01*
X71198095Y-90161285D02*
X71293333Y-90351761D01*
X71293333Y-90351761D02*
X71388571Y-90447000D01*
X71388571Y-90447000D02*
X71579047Y-90542238D01*
X71579047Y-90542238D02*
X72340952Y-90542238D01*
X72340952Y-90542238D02*
X72340952Y-88542238D01*
X72340952Y-88542238D02*
X71674285Y-88542238D01*
X71674285Y-88542238D02*
X71483809Y-88637476D01*
X71483809Y-88637476D02*
X71388571Y-88732714D01*
X71388571Y-88732714D02*
X71293333Y-88923190D01*
X71293333Y-88923190D02*
X71293333Y-89113666D01*
X71293333Y-89113666D02*
X71388571Y-89304142D01*
X71388571Y-89304142D02*
X71483809Y-89399380D01*
X71483809Y-89399380D02*
X71674285Y-89494619D01*
X71674285Y-89494619D02*
X72340952Y-89494619D01*
X70436190Y-89970809D02*
X69483809Y-89970809D01*
X70626666Y-90542238D02*
X69960000Y-88542238D01*
X69960000Y-88542238D02*
X69293333Y-90542238D01*
X67483809Y-90351761D02*
X67579047Y-90447000D01*
X67579047Y-90447000D02*
X67864761Y-90542238D01*
X67864761Y-90542238D02*
X68055237Y-90542238D01*
X68055237Y-90542238D02*
X68340952Y-90447000D01*
X68340952Y-90447000D02*
X68531428Y-90256523D01*
X68531428Y-90256523D02*
X68626666Y-90066047D01*
X68626666Y-90066047D02*
X68721904Y-89685095D01*
X68721904Y-89685095D02*
X68721904Y-89399380D01*
X68721904Y-89399380D02*
X68626666Y-89018428D01*
X68626666Y-89018428D02*
X68531428Y-88827952D01*
X68531428Y-88827952D02*
X68340952Y-88637476D01*
X68340952Y-88637476D02*
X68055237Y-88542238D01*
X68055237Y-88542238D02*
X67864761Y-88542238D01*
X67864761Y-88542238D02*
X67579047Y-88637476D01*
X67579047Y-88637476D02*
X67483809Y-88732714D01*
X66626666Y-90542238D02*
X66626666Y-88542238D01*
X65483809Y-90542238D02*
X66340952Y-89399380D01*
X65483809Y-88542238D02*
X66626666Y-89685095D01*
D11*
X62586191Y-81954819D02*
X62919524Y-81478628D01*
X63157619Y-81954819D02*
X63157619Y-80954819D01*
X63157619Y-80954819D02*
X62776667Y-80954819D01*
X62776667Y-80954819D02*
X62681429Y-81002438D01*
X62681429Y-81002438D02*
X62633810Y-81050057D01*
X62633810Y-81050057D02*
X62586191Y-81145295D01*
X62586191Y-81145295D02*
X62586191Y-81288152D01*
X62586191Y-81288152D02*
X62633810Y-81383390D01*
X62633810Y-81383390D02*
X62681429Y-81431009D01*
X62681429Y-81431009D02*
X62776667Y-81478628D01*
X62776667Y-81478628D02*
X63157619Y-81478628D01*
X62205238Y-81669104D02*
X61729048Y-81669104D01*
X62300476Y-81954819D02*
X61967143Y-80954819D01*
X61967143Y-80954819D02*
X61633810Y-81954819D01*
X61300476Y-81954819D02*
X61300476Y-80954819D01*
X61300476Y-80954819D02*
X61062381Y-80954819D01*
X61062381Y-80954819D02*
X60919524Y-81002438D01*
X60919524Y-81002438D02*
X60824286Y-81097676D01*
X60824286Y-81097676D02*
X60776667Y-81192914D01*
X60776667Y-81192914D02*
X60729048Y-81383390D01*
X60729048Y-81383390D02*
X60729048Y-81526247D01*
X60729048Y-81526247D02*
X60776667Y-81716723D01*
X60776667Y-81716723D02*
X60824286Y-81811961D01*
X60824286Y-81811961D02*
X60919524Y-81907200D01*
X60919524Y-81907200D02*
X61062381Y-81954819D01*
X61062381Y-81954819D02*
X61300476Y-81954819D01*
X59586190Y-81669104D02*
X59110000Y-81669104D01*
X59681428Y-81954819D02*
X59348095Y-80954819D01*
X59348095Y-80954819D02*
X59014762Y-81954819D01*
X58205238Y-81954819D02*
X58681428Y-81954819D01*
X58681428Y-81954819D02*
X58681428Y-80954819D01*
X58014761Y-80954819D02*
X57443333Y-80954819D01*
X57729047Y-81954819D02*
X57729047Y-80954819D01*
X55776666Y-81859580D02*
X55824285Y-81907200D01*
X55824285Y-81907200D02*
X55967142Y-81954819D01*
X55967142Y-81954819D02*
X56062380Y-81954819D01*
X56062380Y-81954819D02*
X56205237Y-81907200D01*
X56205237Y-81907200D02*
X56300475Y-81811961D01*
X56300475Y-81811961D02*
X56348094Y-81716723D01*
X56348094Y-81716723D02*
X56395713Y-81526247D01*
X56395713Y-81526247D02*
X56395713Y-81383390D01*
X56395713Y-81383390D02*
X56348094Y-81192914D01*
X56348094Y-81192914D02*
X56300475Y-81097676D01*
X56300475Y-81097676D02*
X56205237Y-81002438D01*
X56205237Y-81002438D02*
X56062380Y-80954819D01*
X56062380Y-80954819D02*
X55967142Y-80954819D01*
X55967142Y-80954819D02*
X55824285Y-81002438D01*
X55824285Y-81002438D02*
X55776666Y-81050057D01*
X55157618Y-80954819D02*
X54967142Y-80954819D01*
X54967142Y-80954819D02*
X54871904Y-81002438D01*
X54871904Y-81002438D02*
X54776666Y-81097676D01*
X54776666Y-81097676D02*
X54729047Y-81288152D01*
X54729047Y-81288152D02*
X54729047Y-81621485D01*
X54729047Y-81621485D02*
X54776666Y-81811961D01*
X54776666Y-81811961D02*
X54871904Y-81907200D01*
X54871904Y-81907200D02*
X54967142Y-81954819D01*
X54967142Y-81954819D02*
X55157618Y-81954819D01*
X55157618Y-81954819D02*
X55252856Y-81907200D01*
X55252856Y-81907200D02*
X55348094Y-81811961D01*
X55348094Y-81811961D02*
X55395713Y-81621485D01*
X55395713Y-81621485D02*
X55395713Y-81288152D01*
X55395713Y-81288152D02*
X55348094Y-81097676D01*
X55348094Y-81097676D02*
X55252856Y-81002438D01*
X55252856Y-81002438D02*
X55157618Y-80954819D01*
X54300475Y-81954819D02*
X54300475Y-80954819D01*
X54300475Y-80954819D02*
X53729047Y-81954819D01*
X53729047Y-81954819D02*
X53729047Y-80954819D01*
X53395713Y-80954819D02*
X52824285Y-80954819D01*
X53109999Y-81954819D02*
X53109999Y-80954819D01*
X51919523Y-81954819D02*
X52252856Y-81478628D01*
X52490951Y-81954819D02*
X52490951Y-80954819D01*
X52490951Y-80954819D02*
X52109999Y-80954819D01*
X52109999Y-80954819D02*
X52014761Y-81002438D01*
X52014761Y-81002438D02*
X51967142Y-81050057D01*
X51967142Y-81050057D02*
X51919523Y-81145295D01*
X51919523Y-81145295D02*
X51919523Y-81288152D01*
X51919523Y-81288152D02*
X51967142Y-81383390D01*
X51967142Y-81383390D02*
X52014761Y-81431009D01*
X52014761Y-81431009D02*
X52109999Y-81478628D01*
X52109999Y-81478628D02*
X52490951Y-81478628D01*
X51300475Y-80954819D02*
X51109999Y-80954819D01*
X51109999Y-80954819D02*
X51014761Y-81002438D01*
X51014761Y-81002438D02*
X50919523Y-81097676D01*
X50919523Y-81097676D02*
X50871904Y-81288152D01*
X50871904Y-81288152D02*
X50871904Y-81621485D01*
X50871904Y-81621485D02*
X50919523Y-81811961D01*
X50919523Y-81811961D02*
X51014761Y-81907200D01*
X51014761Y-81907200D02*
X51109999Y-81954819D01*
X51109999Y-81954819D02*
X51300475Y-81954819D01*
X51300475Y-81954819D02*
X51395713Y-81907200D01*
X51395713Y-81907200D02*
X51490951Y-81811961D01*
X51490951Y-81811961D02*
X51538570Y-81621485D01*
X51538570Y-81621485D02*
X51538570Y-81288152D01*
X51538570Y-81288152D02*
X51490951Y-81097676D01*
X51490951Y-81097676D02*
X51395713Y-81002438D01*
X51395713Y-81002438D02*
X51300475Y-80954819D01*
X49967142Y-81954819D02*
X50443332Y-81954819D01*
X50443332Y-81954819D02*
X50443332Y-80954819D01*
X49157618Y-81954819D02*
X49633808Y-81954819D01*
X49633808Y-81954819D02*
X49633808Y-80954819D01*
X48824284Y-81431009D02*
X48490951Y-81431009D01*
X48348094Y-81954819D02*
X48824284Y-81954819D01*
X48824284Y-81954819D02*
X48824284Y-80954819D01*
X48824284Y-80954819D02*
X48348094Y-80954819D01*
X47348094Y-81954819D02*
X47681427Y-81478628D01*
X47919522Y-81954819D02*
X47919522Y-80954819D01*
X47919522Y-80954819D02*
X47538570Y-80954819D01*
X47538570Y-80954819D02*
X47443332Y-81002438D01*
X47443332Y-81002438D02*
X47395713Y-81050057D01*
X47395713Y-81050057D02*
X47348094Y-81145295D01*
X47348094Y-81145295D02*
X47348094Y-81288152D01*
X47348094Y-81288152D02*
X47395713Y-81383390D01*
X47395713Y-81383390D02*
X47443332Y-81431009D01*
X47443332Y-81431009D02*
X47538570Y-81478628D01*
X47538570Y-81478628D02*
X47919522Y-81478628D01*
X45967141Y-80954819D02*
X45776665Y-80954819D01*
X45776665Y-80954819D02*
X45681427Y-81002438D01*
X45681427Y-81002438D02*
X45586189Y-81097676D01*
X45586189Y-81097676D02*
X45538570Y-81288152D01*
X45538570Y-81288152D02*
X45538570Y-81621485D01*
X45538570Y-81621485D02*
X45586189Y-81811961D01*
X45586189Y-81811961D02*
X45681427Y-81907200D01*
X45681427Y-81907200D02*
X45776665Y-81954819D01*
X45776665Y-81954819D02*
X45967141Y-81954819D01*
X45967141Y-81954819D02*
X46062379Y-81907200D01*
X46062379Y-81907200D02*
X46157617Y-81811961D01*
X46157617Y-81811961D02*
X46205236Y-81621485D01*
X46205236Y-81621485D02*
X46205236Y-81288152D01*
X46205236Y-81288152D02*
X46157617Y-81097676D01*
X46157617Y-81097676D02*
X46062379Y-81002438D01*
X46062379Y-81002438D02*
X45967141Y-80954819D01*
X45205236Y-80954819D02*
X44538570Y-80954819D01*
X44538570Y-80954819D02*
X45205236Y-81954819D01*
X45205236Y-81954819D02*
X44538570Y-81954819D01*
X43395712Y-81954819D02*
X43395712Y-80954819D01*
X43395712Y-81431009D02*
X42824284Y-81431009D01*
X42824284Y-81954819D02*
X42824284Y-80954819D01*
X42157617Y-80954819D02*
X41967141Y-80954819D01*
X41967141Y-80954819D02*
X41871903Y-81002438D01*
X41871903Y-81002438D02*
X41776665Y-81097676D01*
X41776665Y-81097676D02*
X41729046Y-81288152D01*
X41729046Y-81288152D02*
X41729046Y-81621485D01*
X41729046Y-81621485D02*
X41776665Y-81811961D01*
X41776665Y-81811961D02*
X41871903Y-81907200D01*
X41871903Y-81907200D02*
X41967141Y-81954819D01*
X41967141Y-81954819D02*
X42157617Y-81954819D01*
X42157617Y-81954819D02*
X42252855Y-81907200D01*
X42252855Y-81907200D02*
X42348093Y-81811961D01*
X42348093Y-81811961D02*
X42395712Y-81621485D01*
X42395712Y-81621485D02*
X42395712Y-81288152D01*
X42395712Y-81288152D02*
X42348093Y-81097676D01*
X42348093Y-81097676D02*
X42252855Y-81002438D01*
X42252855Y-81002438D02*
X42157617Y-80954819D01*
X40729046Y-81954819D02*
X41062379Y-81478628D01*
X41300474Y-81954819D02*
X41300474Y-80954819D01*
X41300474Y-80954819D02*
X40919522Y-80954819D01*
X40919522Y-80954819D02*
X40824284Y-81002438D01*
X40824284Y-81002438D02*
X40776665Y-81050057D01*
X40776665Y-81050057D02*
X40729046Y-81145295D01*
X40729046Y-81145295D02*
X40729046Y-81288152D01*
X40729046Y-81288152D02*
X40776665Y-81383390D01*
X40776665Y-81383390D02*
X40824284Y-81431009D01*
X40824284Y-81431009D02*
X40919522Y-81478628D01*
X40919522Y-81478628D02*
X41300474Y-81478628D01*
X40300474Y-81954819D02*
X40300474Y-80954819D01*
X40300474Y-80954819D02*
X39729046Y-81954819D01*
X39729046Y-81954819D02*
X39729046Y-80954819D01*
X39252855Y-81431009D02*
X38919522Y-81431009D01*
X38776665Y-81954819D02*
X39252855Y-81954819D01*
X39252855Y-81954819D02*
X39252855Y-80954819D01*
X39252855Y-80954819D02*
X38776665Y-80954819D01*
X38490950Y-80954819D02*
X37919522Y-80954819D01*
X38205236Y-81954819D02*
X38205236Y-80954819D01*
X53705237Y-83564819D02*
X53705237Y-82564819D01*
X53705237Y-82564819D02*
X53324285Y-82564819D01*
X53324285Y-82564819D02*
X53229047Y-82612438D01*
X53229047Y-82612438D02*
X53181428Y-82660057D01*
X53181428Y-82660057D02*
X53133809Y-82755295D01*
X53133809Y-82755295D02*
X53133809Y-82898152D01*
X53133809Y-82898152D02*
X53181428Y-82993390D01*
X53181428Y-82993390D02*
X53229047Y-83041009D01*
X53229047Y-83041009D02*
X53324285Y-83088628D01*
X53324285Y-83088628D02*
X53705237Y-83088628D01*
X52848094Y-82564819D02*
X52276666Y-82564819D01*
X52562380Y-83564819D02*
X52562380Y-82564819D01*
X50371903Y-83564819D02*
X50419523Y-83564819D01*
X50419523Y-83564819D02*
X50514761Y-83517200D01*
X50514761Y-83517200D02*
X50657618Y-83374342D01*
X50657618Y-83374342D02*
X50895713Y-83088628D01*
X50895713Y-83088628D02*
X50990951Y-82945771D01*
X50990951Y-82945771D02*
X51038570Y-82802914D01*
X51038570Y-82802914D02*
X51038570Y-82707676D01*
X51038570Y-82707676D02*
X50990951Y-82612438D01*
X50990951Y-82612438D02*
X50895713Y-82564819D01*
X50895713Y-82564819D02*
X50848094Y-82564819D01*
X50848094Y-82564819D02*
X50752856Y-82612438D01*
X50752856Y-82612438D02*
X50705237Y-82707676D01*
X50705237Y-82707676D02*
X50705237Y-82755295D01*
X50705237Y-82755295D02*
X50752856Y-82850533D01*
X50752856Y-82850533D02*
X50800475Y-82898152D01*
X50800475Y-82898152D02*
X51086189Y-83088628D01*
X51086189Y-83088628D02*
X51133808Y-83136247D01*
X51133808Y-83136247D02*
X51181427Y-83231485D01*
X51181427Y-83231485D02*
X51181427Y-83374342D01*
X51181427Y-83374342D02*
X51133808Y-83469580D01*
X51133808Y-83469580D02*
X51086189Y-83517200D01*
X51086189Y-83517200D02*
X50990951Y-83564819D01*
X50990951Y-83564819D02*
X50848094Y-83564819D01*
X50848094Y-83564819D02*
X50752856Y-83517200D01*
X50752856Y-83517200D02*
X50705237Y-83469580D01*
X50705237Y-83469580D02*
X50562380Y-83279104D01*
X50562380Y-83279104D02*
X50514761Y-83136247D01*
X50514761Y-83136247D02*
X50514761Y-83041009D01*
X48848094Y-83041009D02*
X48705237Y-83088628D01*
X48705237Y-83088628D02*
X48657618Y-83136247D01*
X48657618Y-83136247D02*
X48609999Y-83231485D01*
X48609999Y-83231485D02*
X48609999Y-83374342D01*
X48609999Y-83374342D02*
X48657618Y-83469580D01*
X48657618Y-83469580D02*
X48705237Y-83517200D01*
X48705237Y-83517200D02*
X48800475Y-83564819D01*
X48800475Y-83564819D02*
X49181427Y-83564819D01*
X49181427Y-83564819D02*
X49181427Y-82564819D01*
X49181427Y-82564819D02*
X48848094Y-82564819D01*
X48848094Y-82564819D02*
X48752856Y-82612438D01*
X48752856Y-82612438D02*
X48705237Y-82660057D01*
X48705237Y-82660057D02*
X48657618Y-82755295D01*
X48657618Y-82755295D02*
X48657618Y-82850533D01*
X48657618Y-82850533D02*
X48705237Y-82945771D01*
X48705237Y-82945771D02*
X48752856Y-82993390D01*
X48752856Y-82993390D02*
X48848094Y-83041009D01*
X48848094Y-83041009D02*
X49181427Y-83041009D01*
X48181427Y-83564819D02*
X48181427Y-82564819D01*
X48181427Y-82564819D02*
X47848094Y-83279104D01*
X47848094Y-83279104D02*
X47514761Y-82564819D01*
X47514761Y-82564819D02*
X47514761Y-83564819D01*
X52133808Y-84174819D02*
X51800475Y-85174819D01*
X51800475Y-85174819D02*
X51467142Y-84174819D01*
X51181427Y-84270057D02*
X51133808Y-84222438D01*
X51133808Y-84222438D02*
X51038570Y-84174819D01*
X51038570Y-84174819D02*
X50800475Y-84174819D01*
X50800475Y-84174819D02*
X50705237Y-84222438D01*
X50705237Y-84222438D02*
X50657618Y-84270057D01*
X50657618Y-84270057D02*
X50609999Y-84365295D01*
X50609999Y-84365295D02*
X50609999Y-84460533D01*
X50609999Y-84460533D02*
X50657618Y-84603390D01*
X50657618Y-84603390D02*
X51229046Y-85174819D01*
X51229046Y-85174819D02*
X50609999Y-85174819D01*
X50181427Y-85079580D02*
X50133808Y-85127200D01*
X50133808Y-85127200D02*
X50181427Y-85174819D01*
X50181427Y-85174819D02*
X50229046Y-85127200D01*
X50229046Y-85127200D02*
X50181427Y-85079580D01*
X50181427Y-85079580D02*
X50181427Y-85174819D01*
X49514761Y-84174819D02*
X49419523Y-84174819D01*
X49419523Y-84174819D02*
X49324285Y-84222438D01*
X49324285Y-84222438D02*
X49276666Y-84270057D01*
X49276666Y-84270057D02*
X49229047Y-84365295D01*
X49229047Y-84365295D02*
X49181428Y-84555771D01*
X49181428Y-84555771D02*
X49181428Y-84793866D01*
X49181428Y-84793866D02*
X49229047Y-84984342D01*
X49229047Y-84984342D02*
X49276666Y-85079580D01*
X49276666Y-85079580D02*
X49324285Y-85127200D01*
X49324285Y-85127200D02*
X49419523Y-85174819D01*
X49419523Y-85174819D02*
X49514761Y-85174819D01*
X49514761Y-85174819D02*
X49609999Y-85127200D01*
X49609999Y-85127200D02*
X49657618Y-85079580D01*
X49657618Y-85079580D02*
X49705237Y-84984342D01*
X49705237Y-84984342D02*
X49752856Y-84793866D01*
X49752856Y-84793866D02*
X49752856Y-84555771D01*
X49752856Y-84555771D02*
X49705237Y-84365295D01*
X49705237Y-84365295D02*
X49657618Y-84270057D01*
X49657618Y-84270057D02*
X49609999Y-84222438D01*
X49609999Y-84222438D02*
X49514761Y-84174819D01*
X38344819Y-66044166D02*
X39059104Y-66044166D01*
X39059104Y-66044166D02*
X39201961Y-65996547D01*
X39201961Y-65996547D02*
X39297200Y-65901309D01*
X39297200Y-65901309D02*
X39344819Y-65758452D01*
X39344819Y-65758452D02*
X39344819Y-65663214D01*
X39344819Y-67044166D02*
X39344819Y-66472738D01*
X39344819Y-66758452D02*
X38344819Y-66758452D01*
X38344819Y-66758452D02*
X38487676Y-66663214D01*
X38487676Y-66663214D02*
X38582914Y-66567976D01*
X38582914Y-66567976D02*
X38630533Y-66472738D01*
D12*
X65440000Y-61817500D02*
X39780000Y-61817500D01*
X54660000Y-63127500D02*
X54660000Y-63127500D01*
X64140000Y-63127500D02*
X54660000Y-63127500D01*
X41080000Y-69627500D02*
X64140000Y-69627500D01*
X41080000Y-63127500D02*
X41080000Y-69627500D01*
X44990000Y-61427500D02*
X44490000Y-60427500D01*
X50560000Y-61817500D02*
X50560000Y-63127500D01*
X50560000Y-63127500D02*
X41080000Y-63127500D01*
X45490000Y-60427500D02*
X44990000Y-61427500D01*
X54660000Y-63127500D02*
X54660000Y-61817500D01*
X39780000Y-61817500D02*
X39780000Y-70937500D01*
X64140000Y-69627500D02*
X64140000Y-63127500D01*
X65440000Y-70937500D02*
X65440000Y-61817500D01*
X39780000Y-70937500D02*
X65440000Y-70937500D01*
X44490000Y-60427500D02*
X45490000Y-60427500D01*
M02*
