  0
SECTION
  2
HEADER
  9
$ANGBASE
  50
0.0
  9
$ANGDIR
  70
1
  9
$MEASUREMENT
  70
1
  0
ENDSEC
  0
SECTION
  2
TABLES
  0
TABLE
  2
LTYPE
  70
4
  0
LTYPE
  5
40F
  2
CONTINUOUS
  70
0
  3
Solid line
  72
65
  73
0
  40
0.0
  0
LTYPE
  5
410
  2
DASHDOT
 70
0
  3
Dash Dot ____ _ ____ _
 72
65
 73
4
 40
2.0
 49
1.25
 49
-0.25
 49
0.25
 49
-0.25
  0
LTYPE
  5
411
  2
DASHED
 70
0
  3
Dashed __ __ __ __ __
 72
65
 73
2
 40
0.75
 49
0.5
 49
-0.25
  0
LTYPE
  5
43B
  2
DOTTED
 70
0
  3
Dotted .  .  .  .
 72
65
 73
2
 40
0.2
 49
0.0
 49
-0.2
  0
ENDTAB
  0
TABLE
  2
STYLE
  70
4
  0
STYLE
  2
KICAD
  70
0
  40
0
  41
1
  42
1
  50
0
  71
0
  3
isocp.shx
  0
STYLE
  2
KICADB
  70
0
  40
0
  41
1
  42
1
  50
0
  71
0
  3
isocp.shx
  0
STYLE
  2
KICADI
  70
0
  40
0
  41
1
  42
1
  50
15
  71
0
  3
isocp.shx
  0
STYLE
  2
KICADBI
  70
0
  40
0
  41
1
  42
1
  50
15
  71
0
  3
isocp.shx
  0
ENDTAB
  0
TABLE
  2
LAYER
  70
1
  0
LAYER
  2
BLACK
  70
0
  62
7
  6
CONTINUOUS
  0
ENDTAB
  0
ENDSEC
  0
SECTION
  2
ENTITIES
0
LINE
8
BLACK
6
CONTINUOUS
10
85.
20
-28.0999999999999979
11
99.0999999999999943
21
-28.0999999999999979
0
LINE
8
BLACK
6
CONTINUOUS
10
99.0999999999999943
20
-28.0999999999999979
11
99.0999999999999943
21
-35.3999999999999986
0
LINE
8
BLACK
6
CONTINUOUS
10
99.0999999999999943
20
-35.3999999999999986
11
85.
21
-35.3999999999999986
0
LINE
8
BLACK
6
CONTINUOUS
10
85.
20
-35.3999999999999986
11
85.
21
-28.0999999999999979
0
LINE
8
BLACK
6
CONTINUOUS
10
19.3999999999999986
20
83.5999999999999943
11
145.4000000000000057
21
83.5999999999999943
0
LINE
8
BLACK
6
CONTINUOUS
10
145.4000000000000057
20
83.5999999999999943
11
145.4000000000000057
21
-54.7680000000000007
0
LINE
8
BLACK
6
CONTINUOUS
10
145.4000000000000057
20
-54.7680000000000007
11
19.3999999999999986
21
-54.7680000000000007
0
LINE
8
BLACK
6
CONTINUOUS
10
19.3999999999999986
20
-54.7680000000000007
11
19.3999999999999986
21
83.5999999999999943
0
CIRCLE
8
BLACK
10
113.1749999999999972
20
79.0499999999999972
40
1.5499999999999998
0
CIRCLE
8
BLACK
10
24.25
20
23.9499999999999993
40
1.5499999999999998
0
LINE
8
BLACK
6
CONTINUOUS
10
107.1499999999999915
20
47.6999999999999957
11
113.4499999999999886
21
47.6999999999999957
0
LINE
8
BLACK
6
CONTINUOUS
10
113.4499999999999886
20
47.6999999999999957
11
113.4499999999999886
21
31.
0
LINE
8
BLACK
6
CONTINUOUS
10
113.4499999999999886
20
31.
11
107.1499999999999915
21
31.
0
LINE
8
BLACK
6
CONTINUOUS
10
107.1499999999999915
20
31.
11
107.1499999999999915
21
47.6999999999999957
0
LINE
8
BLACK
6
CONTINUOUS
10
38.9499999999999957
20
66.8499999999999943
11
65.25
21
66.8499999999999943
0
LINE
8
BLACK
6
CONTINUOUS
10
65.25
20
66.8499999999999943
11
65.25
21
52.8499999999999943
0
LINE
8
BLACK
6
CONTINUOUS
10
65.25
20
52.8499999999999943
11
38.9499999999999957
21
52.8499999999999943
0
LINE
8
BLACK
6
CONTINUOUS
10
38.9499999999999957
20
52.8499999999999943
11
38.9499999999999957
21
66.8499999999999943
0
CIRCLE
8
BLACK
10
82.3999999999999915
20
79.0499999999999972
40
1.5499999999999998
0
CIRCLE
8
BLACK
10
140.75
20
-17.1999999999999993
40
1.5499999999999998
0
CIRCLE
8
BLACK
10
82.3999999999999915
20
-50.75
40
1.5499999999999998
0
LINE
8
BLACK
6
CONTINUOUS
10
73.7000000000000028
20
32.3999999999999986
11
90.3999999999999915
21
32.3999999999999986
0
LINE
8
BLACK
6
CONTINUOUS
10
90.3999999999999915
20
32.3999999999999986
11
90.3999999999999915
21
26.0999999999999979
0
LINE
8
BLACK
6
CONTINUOUS
10
90.3999999999999915
20
26.0999999999999979
11
73.7000000000000028
21
26.0999999999999979
0
LINE
8
BLACK
6
CONTINUOUS
10
73.7000000000000028
20
26.0999999999999979
11
73.7000000000000028
21
32.3999999999999986
0
CIRCLE
8
BLACK
10
51.625
20
79.0499999999999972
40
1.5499999999999998
0
CIRCLE
8
BLACK
10
51.625
20
-50.75
40
1.5499999999999998
0
CIRCLE
8
BLACK
10
113.1749999999999972
20
-50.75
40
1.5499999999999998
0
LINE
8
BLACK
6
CONTINUOUS
10
21.957767999999998
20
-57.9328379999999967
11
21.957767999999998
21
-55.9328379999999967
0
LINE
8
BLACK
6
CONTINUOUS
10
21.957767999999998
20
-55.9328379999999967
11
22.4339580000000005
21
-55.9328379999999967
0
LINE
8
BLACK
6
CONTINUOUS
10
22.4339580000000005
20
-55.9328379999999967
11
22.7196730000000002
21
-56.0280759999999987
0
LINE
8
BLACK
6
CONTINUOUS
10
22.7196730000000002
20
-56.0280759999999987
11
22.9101490000000005
21
-56.2185519999999954
0
LINE
8
BLACK
6
CONTINUOUS
10
22.9101490000000005
20
-56.2185519999999954
11
23.0053869999999989
21
-56.4090279999999993
0
LINE
8
BLACK
6
CONTINUOUS
10
23.0053869999999989
20
-56.4090279999999993
11
23.1006249999999973
21
-56.7899799999999999
0
LINE
8
BLACK
6
CONTINUOUS
10
23.1006249999999973
20
-56.7899799999999999
11
23.1006249999999973
21
-57.0756949999999961
0
LINE
8
BLACK
6
CONTINUOUS
10
23.1006249999999973
20
-57.0756949999999961
11
23.0053869999999989
21
-57.4566469999999967
0
LINE
8
BLACK
6
CONTINUOUS
10
23.0053869999999989
20
-57.4566469999999967
11
22.9101490000000005
21
-57.6471230000000006
0
LINE
8
BLACK
6
CONTINUOUS
10
22.9101490000000005
20
-57.6471230000000006
11
22.7196730000000002
21
-57.8375999999999948
0
LINE
8
BLACK
6
CONTINUOUS
10
22.7196730000000002
20
-57.8375999999999948
11
22.4339580000000005
21
-57.9328379999999967
0
LINE
8
BLACK
6
CONTINUOUS
10
22.4339580000000005
20
-57.9328379999999967
11
21.957767999999998
21
-57.9328379999999967
0
LINE
8
BLACK
6
CONTINUOUS
10
23.957767999999998
20
-57.9328379999999967
11
23.957767999999998
21
-56.599503999999996
0
LINE
8
BLACK
6
CONTINUOUS
10
23.957767999999998
20
-56.9804569999999941
11
24.0530059999999999
21
-56.7899799999999999
0
LINE
8
BLACK
6
CONTINUOUS
10
24.0530059999999999
20
-56.7899799999999999
11
24.1482439999999983
21
-56.694741999999998
0
LINE
8
BLACK
6
CONTINUOUS
10
24.1482439999999983
20
-56.694741999999998
11
24.3387199999999986
21
-56.599503999999996
0
LINE
8
BLACK
6
CONTINUOUS
10
24.3387199999999986
20
-56.599503999999996
11
24.5291969999999999
21
-56.599503999999996
0
LINE
8
BLACK
6
CONTINUOUS
10
25.1958629999999992
20
-57.9328379999999967
11
25.1958629999999992
21
-56.599503999999996
0
LINE
8
BLACK
6
CONTINUOUS
10
25.1958629999999992
20
-55.9328379999999967
11
25.1006249999999973
21
-56.0280759999999987
0
LINE
8
BLACK
6
CONTINUOUS
10
25.1006249999999973
20
-56.0280759999999987
11
25.1958629999999992
21
-56.1233140000000006
0
LINE
8
BLACK
6
CONTINUOUS
10
25.1958629999999992
20
-56.1233140000000006
11
25.2911009999999976
21
-56.0280759999999987
0
LINE
8
BLACK
6
CONTINUOUS
10
25.2911009999999976
20
-56.0280759999999987
11
25.1958629999999992
21
-55.9328379999999967
0
LINE
8
BLACK
6
CONTINUOUS
10
25.1958629999999992
20
-55.9328379999999967
11
25.1958629999999992
21
-56.1233140000000006
0
LINE
8
BLACK
6
CONTINUOUS
10
26.4339580000000005
20
-57.9328379999999967
11
26.2434820000000002
21
-57.8375999999999948
0
LINE
8
BLACK
6
CONTINUOUS
10
26.2434820000000002
20
-57.8375999999999948
11
26.1482439999999983
21
-57.6471230000000006
0
LINE
8
BLACK
6
CONTINUOUS
10
26.1482439999999983
20
-57.6471230000000006
11
26.1482439999999983
21
-55.9328379999999967
0
LINE
8
BLACK
6
CONTINUOUS
10
27.4815769999999979
20
-57.9328379999999967
11
27.2911009999999976
21
-57.8375999999999948
0
LINE
8
BLACK
6
CONTINUOUS
10
27.2911009999999976
20
-57.8375999999999948
11
27.1958629999999992
21
-57.6471230000000006
0
LINE
8
BLACK
6
CONTINUOUS
10
27.1958629999999992
20
-57.6471230000000006
11
27.1958629999999992
21
-55.9328379999999967
0
LINE
8
BLACK
6
CONTINUOUS
10
29.7672919999999976
20
-57.9328379999999967
11
29.7672919999999976
21
-55.9328379999999967
0
LINE
8
BLACK
6
CONTINUOUS
10
29.7672919999999976
20
-55.9328379999999967
11
30.433958999999998
21
-57.3614089999999948
0
LINE
8
BLACK
6
CONTINUOUS
10
30.433958999999998
20
-57.3614089999999948
11
31.1006249999999973
21
-55.9328379999999967
0
LINE
8
BLACK
6
CONTINUOUS
10
31.1006249999999973
20
-55.9328379999999967
11
31.1006249999999973
21
-57.9328379999999967
0
LINE
8
BLACK
6
CONTINUOUS
10
32.910148999999997
20
-57.9328379999999967
11
32.910148999999997
21
-56.8852189999999993
0
LINE
8
BLACK
6
CONTINUOUS
10
32.910148999999997
20
-56.8852189999999993
11
32.8149109999999951
21
-56.694741999999998
0
LINE
8
BLACK
6
CONTINUOUS
10
32.8149109999999951
20
-56.694741999999998
11
32.6244349999999983
21
-56.599503999999996
0
LINE
8
BLACK
6
CONTINUOUS
10
32.6244349999999983
20
-56.599503999999996
11
32.2434820000000002
21
-56.599503999999996
0
LINE
8
BLACK
6
CONTINUOUS
10
32.2434820000000002
20
-56.599503999999996
11
32.0530059999999963
21
-56.694741999999998
0
LINE
8
BLACK
6
CONTINUOUS
10
32.910148999999997
20
-57.8375999999999948
11
32.7196730000000002
21
-57.9328379999999967
0
LINE
8
BLACK
6
CONTINUOUS
10
32.7196730000000002
20
-57.9328379999999967
11
32.2434820000000002
21
-57.9328379999999967
0
LINE
8
BLACK
6
CONTINUOUS
10
32.2434820000000002
20
-57.9328379999999967
11
32.0530059999999963
21
-57.8375999999999948
0
LINE
8
BLACK
6
CONTINUOUS
10
32.0530059999999963
20
-57.8375999999999948
11
31.957767999999998
21
-57.6471230000000006
0
LINE
8
BLACK
6
CONTINUOUS
10
31.957767999999998
20
-57.6471230000000006
11
31.957767999999998
21
-57.4566469999999967
0
LINE
8
BLACK
6
CONTINUOUS
10
31.957767999999998
20
-57.4566469999999967
11
32.0530059999999963
21
-57.2661709999999999
0
LINE
8
BLACK
6
CONTINUOUS
10
32.0530059999999963
20
-57.2661709999999999
11
32.2434820000000002
21
-57.170932999999998
0
LINE
8
BLACK
6
CONTINUOUS
10
32.2434820000000002
20
-57.170932999999998
11
32.7196730000000002
21
-57.170932999999998
0
LINE
8
BLACK
6
CONTINUOUS
10
32.7196730000000002
20
-57.170932999999998
11
32.910148999999997
21
-57.0756949999999961
0
LINE
8
BLACK
6
CONTINUOUS
10
33.8625299999999996
20
-56.599503999999996
11
33.8625299999999996
21
-58.599503999999996
0
LINE
8
BLACK
6
CONTINUOUS
10
33.8625299999999996
20
-56.694741999999998
11
34.0530059999999963
21
-56.599503999999996
0
LINE
8
BLACK
6
CONTINUOUS
10
34.0530059999999963
20
-56.599503999999996
11
34.4339590000000015
21
-56.599503999999996
0
LINE
8
BLACK
6
CONTINUOUS
10
34.4339590000000015
20
-56.599503999999996
11
34.6244349999999983
21
-56.694741999999998
0
LINE
8
BLACK
6
CONTINUOUS
10
34.6244349999999983
20
-56.694741999999998
11
34.7196730000000002
21
-56.7899799999999999
0
LINE
8
BLACK
6
CONTINUOUS
10
34.7196730000000002
20
-56.7899799999999999
11
34.8149109999999951
21
-56.9804569999999941
0
LINE
8
BLACK
6
CONTINUOUS
10
34.8149109999999951
20
-56.9804569999999941
11
34.8149109999999951
21
-57.5518849999999986
0
LINE
8
BLACK
6
CONTINUOUS
10
34.8149109999999951
20
-57.5518849999999986
11
34.7196730000000002
21
-57.7423609999999954
0
LINE
8
BLACK
6
CONTINUOUS
10
34.7196730000000002
20
-57.7423609999999954
11
34.6244349999999983
21
-57.8375999999999948
0
LINE
8
BLACK
6
CONTINUOUS
10
34.6244349999999983
20
-57.8375999999999948
11
34.4339590000000015
21
-57.9328379999999967
0
LINE
8
BLACK
6
CONTINUOUS
10
34.4339590000000015
20
-57.9328379999999967
11
34.0530059999999963
21
-57.9328379999999967
0
LINE
8
BLACK
6
CONTINUOUS
10
34.0530059999999963
20
-57.9328379999999967
11
33.8625299999999996
21
-57.8375999999999948
0
LINE
8
BLACK
6
CONTINUOUS
10
35.6720539999999957
20
-57.7423609999999954
11
35.7672919999999976
21
-57.8375999999999948
0
LINE
8
BLACK
6
CONTINUOUS
10
35.7672919999999976
20
-57.8375999999999948
11
35.6720539999999957
21
-57.9328379999999967
0
LINE
8
BLACK
6
CONTINUOUS
10
35.6720539999999957
20
-57.9328379999999967
11
35.5768160000000009
21
-57.8375999999999948
0
LINE
8
BLACK
6
CONTINUOUS
10
35.5768160000000009
20
-57.8375999999999948
11
35.6720539999999957
21
-57.7423609999999954
0
LINE
8
BLACK
6
CONTINUOUS
10
35.6720539999999957
20
-57.7423609999999954
11
35.6720539999999957
21
-57.9328379999999967
0
LINE
8
BLACK
6
CONTINUOUS
10
35.6720539999999957
20
-56.694741999999998
11
35.7672919999999976
21
-56.7899799999999999
0
LINE
8
BLACK
6
CONTINUOUS
10
35.7672919999999976
20
-56.7899799999999999
11
35.6720539999999957
21
-56.8852189999999993
0
LINE
8
BLACK
6
CONTINUOUS
10
35.6720539999999957
20
-56.8852189999999993
11
35.5768160000000009
21
-56.7899799999999999
0
LINE
8
BLACK
6
CONTINUOUS
10
35.5768160000000009
20
-56.7899799999999999
11
35.6720539999999957
21
-56.694741999999998
0
LINE
8
BLACK
6
CONTINUOUS
10
35.6720539999999957
20
-56.694741999999998
11
35.6720539999999957
21
-56.8852189999999993
  0
ENDSEC
  0
EOF
