  0
SECTION
  2
HEADER
  9
$ANGBASE
  50
0.0
  9
$ANGDIR
  70
1
  9
$MEASUREMENT
  70
1
  0
ENDSEC
  0
SECTION
  2
TABLES
  0
TABLE
  2
LTYPE
  70
4
  0
LTYPE
  5
40F
  2
CONTINUOUS
  70
0
  3
Solid line
  72
65
  73
0
  40
0.0
  0
LTYPE
  5
410
  2
DASHDOT
 70
0
  3
Dash Dot ____ _ ____ _
 72
65
 73
4
 40
2.0
 49
1.25
 49
-0.25
 49
0.25
 49
-0.25
  0
LTYPE
  5
411
  2
DASHED
 70
0
  3
Dashed __ __ __ __ __
 72
65
 73
2
 40
0.75
 49
0.5
 49
-0.25
  0
LTYPE
  5
43B
  2
DOTTED
 70
0
  3
Dotted .  .  .  .
 72
65
 73
2
 40
0.2
 49
0.0
 49
-0.2
  0
ENDTAB
  0
TABLE
  2
STYLE
  70
4
  0
STYLE
  2
KICAD
  70
0
  40
0
  41
1
  42
1
  50
0
  71
0
  3
isocp.shx
  0
STYLE
  2
KICADB
  70
0
  40
0
  41
1
  42
1
  50
0
  71
0
  3
isocp.shx
  0
STYLE
  2
KICADI
  70
0
  40
0
  41
1
  42
1
  50
15
  71
0
  3
isocp.shx
  0
STYLE
  2
KICADBI
  70
0
  40
0
  41
1
  42
1
  50
15
  71
0
  3
isocp.shx
  0
ENDTAB
  0
TABLE
  2
LAYER
  70
1
  0
LAYER
  2
BLACK
  70
0
  62
7
  6
CONTINUOUS
  0
ENDTAB
  0
ENDSEC
  0
SECTION
  2
ENTITIES
0
LINE
8
BLACK
6
CONTINUOUS
10
133.096
20
-88.9
11
133.096
21
-138.684
0
LINE
8
BLACK
6
CONTINUOUS
10
181.864
20
-138.684
11
133.096
21
-138.684
0
LINE
8
BLACK
6
CONTINUOUS
10
181.864
20
-88.9
11
181.864
21
-138.684
0
LINE
8
BLACK
6
CONTINUOUS
10
133.096
20
-88.9
11
181.864
21
-88.9
0
LINE
8
BLACK
6
CONTINUOUS
10
175.941
20
-91.618
11
179.141
21
-94.818
0
LINE
8
BLACK
6
CONTINUOUS
10
179.141
20
-91.618
11
175.941
21
-94.818
0
LINE
8
BLACK
6
CONTINUOUS
10
135.941
20
-91.618
11
139.141
21
-94.818
0
LINE
8
BLACK
6
CONTINUOUS
10
139.141
20
-91.618
11
135.941
21
-94.818
0
LINE
8
BLACK
6
CONTINUOUS
10
135.941
20
-131.618
11
139.141
21
-134.818
0
LINE
8
BLACK
6
CONTINUOUS
10
139.141
20
-131.618
11
135.941
21
-134.818
0
LINE
8
BLACK
6
CONTINUOUS
10
175.941
20
-131.618
11
179.141
21
-134.818
0
LINE
8
BLACK
6
CONTINUOUS
10
179.141
20
-131.618
11
175.941
21
-134.818
0
LINE
8
BLACK
6
CONTINUOUS
10
135.935
20
-143.366
11
135.935
21
-140.366
0
LINE
8
BLACK
6
CONTINUOUS
10
135.935
20
-140.366
11
136.65
21
-140.366
0
LINE
8
BLACK
6
CONTINUOUS
10
136.65
20
-140.366
11
137.078
21
-140.509
0
LINE
8
BLACK
6
CONTINUOUS
10
137.078
20
-140.509
11
137.364
21
-140.795
0
LINE
8
BLACK
6
CONTINUOUS
10
137.364
20
-140.795
11
137.507
21
-141.08
0
LINE
8
BLACK
6
CONTINUOUS
10
137.507
20
-141.08
11
137.65
21
-141.652
0
LINE
8
BLACK
6
CONTINUOUS
10
137.65
20
-141.652
11
137.65
21
-142.08
0
LINE
8
BLACK
6
CONTINUOUS
10
137.65
20
-142.08
11
137.507
21
-142.652
0
LINE
8
BLACK
6
CONTINUOUS
10
137.507
20
-142.652
11
137.364
21
-142.938
0
LINE
8
BLACK
6
CONTINUOUS
10
137.364
20
-142.938
11
137.078
21
-143.223
0
LINE
8
BLACK
6
CONTINUOUS
10
137.078
20
-143.223
11
136.65
21
-143.366
0
LINE
8
BLACK
6
CONTINUOUS
10
136.65
20
-143.366
11
135.935
21
-143.366
0
LINE
8
BLACK
6
CONTINUOUS
10
138.935
20
-143.366
11
138.935
21
-141.366
0
LINE
8
BLACK
6
CONTINUOUS
10
138.935
20
-141.938
11
139.078
21
-141.652
0
LINE
8
BLACK
6
CONTINUOUS
10
139.078
20
-141.652
11
139.221
21
-141.509
0
LINE
8
BLACK
6
CONTINUOUS
10
139.221
20
-141.509
11
139.507
21
-141.366
0
LINE
8
BLACK
6
CONTINUOUS
10
139.507
20
-141.366
11
139.792
21
-141.366
0
LINE
8
BLACK
6
CONTINUOUS
10
140.792
20
-143.366
11
140.792
21
-141.366
0
LINE
8
BLACK
6
CONTINUOUS
10
140.792
20
-140.366
11
140.65
21
-140.509
0
LINE
8
BLACK
6
CONTINUOUS
10
140.65
20
-140.509
11
140.792
21
-140.652
0
LINE
8
BLACK
6
CONTINUOUS
10
140.792
20
-140.652
11
140.935
21
-140.509
0
LINE
8
BLACK
6
CONTINUOUS
10
140.935
20
-140.509
11
140.792
21
-140.366
0
LINE
8
BLACK
6
CONTINUOUS
10
140.792
20
-140.366
11
140.792
21
-140.652
0
LINE
8
BLACK
6
CONTINUOUS
10
142.65
20
-143.366
11
142.364
21
-143.223
0
LINE
8
BLACK
6
CONTINUOUS
10
142.364
20
-143.223
11
142.221
21
-142.938
0
LINE
8
BLACK
6
CONTINUOUS
10
142.221
20
-142.938
11
142.221
21
-140.366
0
LINE
8
BLACK
6
CONTINUOUS
10
144.221
20
-143.366
11
143.935
21
-143.223
0
LINE
8
BLACK
6
CONTINUOUS
10
143.935
20
-143.223
11
143.792
21
-142.938
0
LINE
8
BLACK
6
CONTINUOUS
10
143.792
20
-142.938
11
143.792
21
-140.366
0
LINE
8
BLACK
6
CONTINUOUS
10
147.65
20
-143.366
11
147.65
21
-140.366
0
LINE
8
BLACK
6
CONTINUOUS
10
147.65
20
-140.366
11
148.65
21
-142.509
0
LINE
8
BLACK
6
CONTINUOUS
10
148.65
20
-142.509
11
149.65
21
-140.366
0
LINE
8
BLACK
6
CONTINUOUS
10
149.65
20
-140.366
11
149.65
21
-143.366
0
LINE
8
BLACK
6
CONTINUOUS
10
152.364
20
-143.366
11
152.364
21
-141.795
0
LINE
8
BLACK
6
CONTINUOUS
10
152.364
20
-141.795
11
152.221
21
-141.509
0
LINE
8
BLACK
6
CONTINUOUS
10
152.221
20
-141.509
11
151.935
21
-141.366
0
LINE
8
BLACK
6
CONTINUOUS
10
151.935
20
-141.366
11
151.364
21
-141.366
0
LINE
8
BLACK
6
CONTINUOUS
10
151.364
20
-141.366
11
151.078
21
-141.509
0
LINE
8
BLACK
6
CONTINUOUS
10
152.364
20
-143.223
11
152.078
21
-143.366
0
LINE
8
BLACK
6
CONTINUOUS
10
152.078
20
-143.366
11
151.364
21
-143.366
0
LINE
8
BLACK
6
CONTINUOUS
10
151.364
20
-143.366
11
151.078
21
-143.223
0
LINE
8
BLACK
6
CONTINUOUS
10
151.078
20
-143.223
11
150.935
21
-142.938
0
LINE
8
BLACK
6
CONTINUOUS
10
150.935
20
-142.938
11
150.935
21
-142.652
0
LINE
8
BLACK
6
CONTINUOUS
10
150.935
20
-142.652
11
151.078
21
-142.366
0
LINE
8
BLACK
6
CONTINUOUS
10
151.078
20
-142.366
11
151.364
21
-142.223
0
LINE
8
BLACK
6
CONTINUOUS
10
151.364
20
-142.223
11
152.078
21
-142.223
0
LINE
8
BLACK
6
CONTINUOUS
10
152.078
20
-142.223
11
152.364
21
-142.08
0
LINE
8
BLACK
6
CONTINUOUS
10
153.792
20
-141.366
11
153.792
21
-144.366
0
LINE
8
BLACK
6
CONTINUOUS
10
153.792
20
-141.509
11
154.078
21
-141.366
0
LINE
8
BLACK
6
CONTINUOUS
10
154.078
20
-141.366
11
154.65
21
-141.366
0
LINE
8
BLACK
6
CONTINUOUS
10
154.65
20
-141.366
11
154.935
21
-141.509
0
LINE
8
BLACK
6
CONTINUOUS
10
154.935
20
-141.509
11
155.078
21
-141.652
0
LINE
8
BLACK
6
CONTINUOUS
10
155.078
20
-141.652
11
155.221
21
-141.938
0
LINE
8
BLACK
6
CONTINUOUS
10
155.221
20
-141.938
11
155.221
21
-142.795
0
LINE
8
BLACK
6
CONTINUOUS
10
155.221
20
-142.795
11
155.078
21
-143.08
0
LINE
8
BLACK
6
CONTINUOUS
10
155.078
20
-143.08
11
154.935
21
-143.223
0
LINE
8
BLACK
6
CONTINUOUS
10
154.935
20
-143.223
11
154.65
21
-143.366
0
LINE
8
BLACK
6
CONTINUOUS
10
154.65
20
-143.366
11
154.078
21
-143.366
0
LINE
8
BLACK
6
CONTINUOUS
10
154.078
20
-143.366
11
153.792
21
-143.223
0
LINE
8
BLACK
6
CONTINUOUS
10
156.507
20
-143.08
11
156.65
21
-143.223
0
LINE
8
BLACK
6
CONTINUOUS
10
156.65
20
-143.223
11
156.507
21
-143.366
0
LINE
8
BLACK
6
CONTINUOUS
10
156.507
20
-143.366
11
156.364
21
-143.223
0
LINE
8
BLACK
6
CONTINUOUS
10
156.364
20
-143.223
11
156.507
21
-143.08
0
LINE
8
BLACK
6
CONTINUOUS
10
156.507
20
-143.08
11
156.507
21
-143.366
0
LINE
8
BLACK
6
CONTINUOUS
10
156.507
20
-141.509
11
156.65
21
-141.652
0
LINE
8
BLACK
6
CONTINUOUS
10
156.65
20
-141.652
11
156.507
21
-141.795
0
LINE
8
BLACK
6
CONTINUOUS
10
156.507
20
-141.795
11
156.364
21
-141.652
0
LINE
8
BLACK
6
CONTINUOUS
10
156.364
20
-141.652
11
156.507
21
-141.509
0
LINE
8
BLACK
6
CONTINUOUS
10
156.507
20
-141.509
11
156.507
21
-141.795
0
LINE
8
BLACK
6
CONTINUOUS
10
129.871
20
-146.709
11
133.071
21
-149.909
0
LINE
8
BLACK
6
CONTINUOUS
10
133.071
20
-146.709
11
129.871
21
-149.909
0
LINE
8
BLACK
6
CONTINUOUS
10
135.65
20
-146.666
11
137.507
21
-146.666
0
LINE
8
BLACK
6
CONTINUOUS
10
137.507
20
-146.666
11
136.507
21
-147.809
0
LINE
8
BLACK
6
CONTINUOUS
10
136.507
20
-147.809
11
136.935
21
-147.809
0
LINE
8
BLACK
6
CONTINUOUS
10
136.935
20
-147.809
11
137.221
21
-147.952
0
LINE
8
BLACK
6
CONTINUOUS
10
137.221
20
-147.952
11
137.364
21
-148.095
0
LINE
8
BLACK
6
CONTINUOUS
10
137.364
20
-148.095
11
137.507
21
-148.38
0
LINE
8
BLACK
6
CONTINUOUS
10
137.507
20
-148.38
11
137.507
21
-149.095
0
LINE
8
BLACK
6
CONTINUOUS
10
137.507
20
-149.095
11
137.364
21
-149.38
0
LINE
8
BLACK
6
CONTINUOUS
10
137.364
20
-149.38
11
137.221
21
-149.523
0
LINE
8
BLACK
6
CONTINUOUS
10
137.221
20
-149.523
11
136.935
21
-149.666
0
LINE
8
BLACK
6
CONTINUOUS
10
136.935
20
-149.666
11
136.078
21
-149.666
0
LINE
8
BLACK
6
CONTINUOUS
10
136.078
20
-149.666
11
135.792
21
-149.523
0
LINE
8
BLACK
6
CONTINUOUS
10
135.792
20
-149.523
11
135.65
21
-149.38
0
LINE
8
BLACK
6
CONTINUOUS
10
138.792
20
-149.38
11
138.935
21
-149.523
0
LINE
8
BLACK
6
CONTINUOUS
10
138.935
20
-149.523
11
138.792
21
-149.666
0
LINE
8
BLACK
6
CONTINUOUS
10
138.792
20
-149.666
11
138.65
21
-149.523
0
LINE
8
BLACK
6
CONTINUOUS
10
138.65
20
-149.523
11
138.792
21
-149.38
0
LINE
8
BLACK
6
CONTINUOUS
10
138.792
20
-149.38
11
138.792
21
-149.666
0
LINE
8
BLACK
6
CONTINUOUS
10
140.078
20
-146.952
11
140.221
21
-146.809
0
LINE
8
BLACK
6
CONTINUOUS
10
140.221
20
-146.809
11
140.507
21
-146.666
0
LINE
8
BLACK
6
CONTINUOUS
10
140.507
20
-146.666
11
141.221
21
-146.666
0
LINE
8
BLACK
6
CONTINUOUS
10
141.221
20
-146.666
11
141.507
21
-146.809
0
LINE
8
BLACK
6
CONTINUOUS
10
141.507
20
-146.809
11
141.65
21
-146.952
0
LINE
8
BLACK
6
CONTINUOUS
10
141.65
20
-146.952
11
141.792
21
-147.238
0
LINE
8
BLACK
6
CONTINUOUS
10
141.792
20
-147.238
11
141.792
21
-147.523
0
LINE
8
BLACK
6
CONTINUOUS
10
141.792
20
-147.523
11
141.65
21
-147.952
0
LINE
8
BLACK
6
CONTINUOUS
10
141.65
20
-147.952
11
139.935
21
-149.666
0
LINE
8
BLACK
6
CONTINUOUS
10
139.935
20
-149.666
11
141.792
21
-149.666
0
LINE
8
BLACK
6
CONTINUOUS
10
143.65
20
-146.666
11
143.935
21
-146.666
0
LINE
8
BLACK
6
CONTINUOUS
10
143.935
20
-146.666
11
144.221
21
-146.809
0
LINE
8
BLACK
6
CONTINUOUS
10
144.221
20
-146.809
11
144.364
21
-146.952
0
LINE
8
BLACK
6
CONTINUOUS
10
144.364
20
-146.952
11
144.507
21
-147.238
0
LINE
8
BLACK
6
CONTINUOUS
10
144.507
20
-147.238
11
144.65
21
-147.809
0
LINE
8
BLACK
6
CONTINUOUS
10
144.65
20
-147.809
11
144.65
21
-148.523
0
LINE
8
BLACK
6
CONTINUOUS
10
144.65
20
-148.523
11
144.507
21
-149.095
0
LINE
8
BLACK
6
CONTINUOUS
10
144.507
20
-149.095
11
144.364
21
-149.38
0
LINE
8
BLACK
6
CONTINUOUS
10
144.364
20
-149.38
11
144.221
21
-149.523
0
LINE
8
BLACK
6
CONTINUOUS
10
144.221
20
-149.523
11
143.935
21
-149.666
0
LINE
8
BLACK
6
CONTINUOUS
10
143.935
20
-149.666
11
143.65
21
-149.666
0
LINE
8
BLACK
6
CONTINUOUS
10
143.65
20
-149.666
11
143.364
21
-149.523
0
LINE
8
BLACK
6
CONTINUOUS
10
143.364
20
-149.523
11
143.221
21
-149.38
0
LINE
8
BLACK
6
CONTINUOUS
10
143.221
20
-149.38
11
143.078
21
-149.095
0
LINE
8
BLACK
6
CONTINUOUS
10
143.078
20
-149.095
11
142.935
21
-148.523
0
LINE
8
BLACK
6
CONTINUOUS
10
142.935
20
-148.523
11
142.935
21
-147.809
0
LINE
8
BLACK
6
CONTINUOUS
10
142.935
20
-147.809
11
143.078
21
-147.238
0
LINE
8
BLACK
6
CONTINUOUS
10
143.078
20
-147.238
11
143.221
21
-146.952
0
LINE
8
BLACK
6
CONTINUOUS
10
143.221
20
-146.952
11
143.364
21
-146.809
0
LINE
8
BLACK
6
CONTINUOUS
10
143.364
20
-146.809
11
143.65
21
-146.666
0
LINE
8
BLACK
6
CONTINUOUS
10
145.935
20
-149.666
11
145.935
21
-147.666
0
LINE
8
BLACK
6
CONTINUOUS
10
145.935
20
-147.952
11
146.078
21
-147.809
0
LINE
8
BLACK
6
CONTINUOUS
10
146.078
20
-147.809
11
146.364
21
-147.666
0
LINE
8
BLACK
6
CONTINUOUS
10
146.364
20
-147.666
11
146.792
21
-147.666
0
LINE
8
BLACK
6
CONTINUOUS
10
146.792
20
-147.666
11
147.078
21
-147.809
0
LINE
8
BLACK
6
CONTINUOUS
10
147.078
20
-147.809
11
147.221
21
-148.095
0
LINE
8
BLACK
6
CONTINUOUS
10
147.221
20
-148.095
11
147.221
21
-149.666
0
LINE
8
BLACK
6
CONTINUOUS
10
147.221
20
-148.095
11
147.364
21
-147.809
0
LINE
8
BLACK
6
CONTINUOUS
10
147.364
20
-147.809
11
147.65
21
-147.666
0
LINE
8
BLACK
6
CONTINUOUS
10
147.65
20
-147.666
11
148.078
21
-147.666
0
LINE
8
BLACK
6
CONTINUOUS
10
148.078
20
-147.666
11
148.364
21
-147.809
0
LINE
8
BLACK
6
CONTINUOUS
10
148.364
20
-147.809
11
148.507
21
-148.095
0
LINE
8
BLACK
6
CONTINUOUS
10
148.507
20
-148.095
11
148.507
21
-149.666
0
LINE
8
BLACK
6
CONTINUOUS
10
149.935
20
-149.666
11
149.935
21
-147.666
0
LINE
8
BLACK
6
CONTINUOUS
10
149.935
20
-147.952
11
150.078
21
-147.809
0
LINE
8
BLACK
6
CONTINUOUS
10
150.078
20
-147.809
11
150.364
21
-147.666
0
LINE
8
BLACK
6
CONTINUOUS
10
150.364
20
-147.666
11
150.792
21
-147.666
0
LINE
8
BLACK
6
CONTINUOUS
10
150.792
20
-147.666
11
151.078
21
-147.809
0
LINE
8
BLACK
6
CONTINUOUS
10
151.078
20
-147.809
11
151.221
21
-148.095
0
LINE
8
BLACK
6
CONTINUOUS
10
151.221
20
-148.095
11
151.221
21
-149.666
0
LINE
8
BLACK
6
CONTINUOUS
10
151.221
20
-148.095
11
151.364
21
-147.809
0
LINE
8
BLACK
6
CONTINUOUS
10
151.364
20
-147.809
11
151.65
21
-147.666
0
LINE
8
BLACK
6
CONTINUOUS
10
151.65
20
-147.666
11
152.078
21
-147.666
0
LINE
8
BLACK
6
CONTINUOUS
10
152.078
20
-147.666
11
152.364
21
-147.809
0
LINE
8
BLACK
6
CONTINUOUS
10
152.364
20
-147.809
11
152.507
21
-148.095
0
LINE
8
BLACK
6
CONTINUOUS
10
152.507
20
-148.095
11
152.507
21
-149.666
0
LINE
8
BLACK
6
CONTINUOUS
10
158.364
20
-146.523
11
155.792
21
-150.38
0
LINE
8
BLACK
6
CONTINUOUS
10
162.221
20
-146.666
11
162.507
21
-146.666
0
LINE
8
BLACK
6
CONTINUOUS
10
162.507
20
-146.666
11
162.792
21
-146.809
0
LINE
8
BLACK
6
CONTINUOUS
10
162.792
20
-146.809
11
162.935
21
-146.952
0
LINE
8
BLACK
6
CONTINUOUS
10
162.935
20
-146.952
11
163.078
21
-147.238
0
LINE
8
BLACK
6
CONTINUOUS
10
163.078
20
-147.238
11
163.221
21
-147.809
0
LINE
8
BLACK
6
CONTINUOUS
10
163.221
20
-147.809
11
163.221
21
-148.523
0
LINE
8
BLACK
6
CONTINUOUS
10
163.221
20
-148.523
11
163.078
21
-149.095
0
LINE
8
BLACK
6
CONTINUOUS
10
163.078
20
-149.095
11
162.935
21
-149.38
0
LINE
8
BLACK
6
CONTINUOUS
10
162.935
20
-149.38
11
162.792
21
-149.523
0
LINE
8
BLACK
6
CONTINUOUS
10
162.792
20
-149.523
11
162.507
21
-149.666
0
LINE
8
BLACK
6
CONTINUOUS
10
162.507
20
-149.666
11
162.221
21
-149.666
0
LINE
8
BLACK
6
CONTINUOUS
10
162.221
20
-149.666
11
161.935
21
-149.523
0
LINE
8
BLACK
6
CONTINUOUS
10
161.935
20
-149.523
11
161.792
21
-149.38
0
LINE
8
BLACK
6
CONTINUOUS
10
161.792
20
-149.38
11
161.65
21
-149.095
0
LINE
8
BLACK
6
CONTINUOUS
10
161.65
20
-149.095
11
161.507
21
-148.523
0
LINE
8
BLACK
6
CONTINUOUS
10
161.507
20
-148.523
11
161.507
21
-147.809
0
LINE
8
BLACK
6
CONTINUOUS
10
161.507
20
-147.809
11
161.65
21
-147.238
0
LINE
8
BLACK
6
CONTINUOUS
10
161.65
20
-147.238
11
161.792
21
-146.952
0
LINE
8
BLACK
6
CONTINUOUS
10
161.792
20
-146.952
11
161.935
21
-146.809
0
LINE
8
BLACK
6
CONTINUOUS
10
161.935
20
-146.809
11
162.221
21
-146.666
0
LINE
8
BLACK
6
CONTINUOUS
10
164.507
20
-149.38
11
164.65
21
-149.523
0
LINE
8
BLACK
6
CONTINUOUS
10
164.65
20
-149.523
11
164.507
21
-149.666
0
LINE
8
BLACK
6
CONTINUOUS
10
164.507
20
-149.666
11
164.364
21
-149.523
0
LINE
8
BLACK
6
CONTINUOUS
10
164.364
20
-149.523
11
164.507
21
-149.38
0
LINE
8
BLACK
6
CONTINUOUS
10
164.507
20
-149.38
11
164.507
21
-149.666
0
LINE
8
BLACK
6
CONTINUOUS
10
167.507
20
-149.666
11
165.792
21
-149.666
0
LINE
8
BLACK
6
CONTINUOUS
10
166.65
20
-149.666
11
166.65
21
-146.666
0
LINE
8
BLACK
6
CONTINUOUS
10
166.65
20
-146.666
11
166.364
21
-147.095
0
LINE
8
BLACK
6
CONTINUOUS
10
166.364
20
-147.095
11
166.078
21
-147.38
0
LINE
8
BLACK
6
CONTINUOUS
10
166.078
20
-147.38
11
165.792
21
-147.523
0
LINE
8
BLACK
6
CONTINUOUS
10
168.65
20
-146.952
11
168.792
21
-146.809
0
LINE
8
BLACK
6
CONTINUOUS
10
168.792
20
-146.809
11
169.078
21
-146.666
0
LINE
8
BLACK
6
CONTINUOUS
10
169.078
20
-146.666
11
169.792
21
-146.666
0
LINE
8
BLACK
6
CONTINUOUS
10
169.792
20
-146.666
11
170.078
21
-146.809
0
LINE
8
BLACK
6
CONTINUOUS
10
170.078
20
-146.809
11
170.221
21
-146.952
0
LINE
8
BLACK
6
CONTINUOUS
10
170.221
20
-146.952
11
170.364
21
-147.238
0
LINE
8
BLACK
6
CONTINUOUS
10
170.364
20
-147.238
11
170.364
21
-147.523
0
LINE
8
BLACK
6
CONTINUOUS
10
170.364
20
-147.523
11
170.221
21
-147.952
0
LINE
8
BLACK
6
CONTINUOUS
10
170.221
20
-147.952
11
168.507
21
-149.666
0
LINE
8
BLACK
6
CONTINUOUS
10
168.507
20
-149.666
11
170.364
21
-149.666
0
LINE
8
BLACK
6
CONTINUOUS
10
172.935
20
-146.666
11
172.364
21
-146.666
0
LINE
8
BLACK
6
CONTINUOUS
10
172.364
20
-146.666
11
172.078
21
-146.809
0
LINE
8
BLACK
6
CONTINUOUS
10
172.078
20
-146.809
11
171.935
21
-146.952
0
LINE
8
BLACK
6
CONTINUOUS
10
171.935
20
-146.952
11
171.65
21
-147.38
0
LINE
8
BLACK
6
CONTINUOUS
10
171.65
20
-147.38
11
171.507
21
-147.952
0
LINE
8
BLACK
6
CONTINUOUS
10
171.507
20
-147.952
11
171.507
21
-149.095
0
LINE
8
BLACK
6
CONTINUOUS
10
171.507
20
-149.095
11
171.65
21
-149.38
0
LINE
8
BLACK
6
CONTINUOUS
10
171.65
20
-149.38
11
171.792
21
-149.523
0
LINE
8
BLACK
6
CONTINUOUS
10
171.792
20
-149.523
11
172.078
21
-149.666
0
LINE
8
BLACK
6
CONTINUOUS
10
172.078
20
-149.666
11
172.65
21
-149.666
0
LINE
8
BLACK
6
CONTINUOUS
10
172.65
20
-149.666
11
172.935
21
-149.523
0
LINE
8
BLACK
6
CONTINUOUS
10
172.935
20
-149.523
11
173.078
21
-149.38
0
LINE
8
BLACK
6
CONTINUOUS
10
173.078
20
-149.38
11
173.221
21
-149.095
0
LINE
8
BLACK
6
CONTINUOUS
10
173.221
20
-149.095
11
173.221
21
-148.38
0
LINE
8
BLACK
6
CONTINUOUS
10
173.221
20
-148.38
11
173.078
21
-148.095
0
LINE
8
BLACK
6
CONTINUOUS
10
173.078
20
-148.095
11
172.935
21
-147.952
0
LINE
8
BLACK
6
CONTINUOUS
10
172.935
20
-147.952
11
172.65
21
-147.809
0
LINE
8
BLACK
6
CONTINUOUS
10
172.65
20
-147.809
11
172.078
21
-147.809
0
LINE
8
BLACK
6
CONTINUOUS
10
172.078
20
-147.809
11
171.792
21
-147.952
0
LINE
8
BLACK
6
CONTINUOUS
10
171.792
20
-147.952
11
171.65
21
-148.095
0
LINE
8
BLACK
6
CONTINUOUS
10
171.65
20
-148.095
11
171.507
21
-148.38
0
LINE
8
BLACK
6
CONTINUOUS
10
174.364
20
-146.666
11
174.364
21
-147.238
0
LINE
8
BLACK
6
CONTINUOUS
10
175.507
20
-146.666
11
175.507
21
-147.238
0
LINE
8
BLACK
6
CONTINUOUS
10
179.935
20
-150.809
11
179.792
21
-150.666
0
LINE
8
BLACK
6
CONTINUOUS
10
179.792
20
-150.666
11
179.507
21
-150.238
0
LINE
8
BLACK
6
CONTINUOUS
10
179.507
20
-150.238
11
179.364
21
-149.952
0
LINE
8
BLACK
6
CONTINUOUS
10
179.364
20
-149.952
11
179.221
21
-149.523
0
LINE
8
BLACK
6
CONTINUOUS
10
179.221
20
-149.523
11
179.078
21
-148.809
0
LINE
8
BLACK
6
CONTINUOUS
10
179.078
20
-148.809
11
179.078
21
-148.238
0
LINE
8
BLACK
6
CONTINUOUS
10
179.078
20
-148.238
11
179.221
21
-147.523
0
LINE
8
BLACK
6
CONTINUOUS
10
179.221
20
-147.523
11
179.364
21
-147.095
0
LINE
8
BLACK
6
CONTINUOUS
10
179.364
20
-147.095
11
179.507
21
-146.809
0
LINE
8
BLACK
6
CONTINUOUS
10
179.507
20
-146.809
11
179.792
21
-146.38
0
LINE
8
BLACK
6
CONTINUOUS
10
179.792
20
-146.38
11
179.935
21
-146.238
0
LINE
8
BLACK
6
CONTINUOUS
10
182.364
20
-147.666
11
182.364
21
-149.666
0
LINE
8
BLACK
6
CONTINUOUS
10
181.65
20
-146.523
11
180.935
21
-148.666
0
LINE
8
BLACK
6
CONTINUOUS
10
180.935
20
-148.666
11
182.792
21
-148.666
0
LINE
8
BLACK
6
CONTINUOUS
10
186.221
20
-149.666
11
186.221
21
-146.666
0
LINE
8
BLACK
6
CONTINUOUS
10
187.507
20
-149.666
11
187.507
21
-148.095
0
LINE
8
BLACK
6
CONTINUOUS
10
187.507
20
-148.095
11
187.364
21
-147.809
0
LINE
8
BLACK
6
CONTINUOUS
10
187.364
20
-147.809
11
187.078
21
-147.666
0
LINE
8
BLACK
6
CONTINUOUS
10
187.078
20
-147.666
11
186.65
21
-147.666
0
LINE
8
BLACK
6
CONTINUOUS
10
186.65
20
-147.666
11
186.364
21
-147.809
0
LINE
8
BLACK
6
CONTINUOUS
10
186.364
20
-147.809
11
186.221
21
-147.952
0
LINE
8
BLACK
6
CONTINUOUS
10
189.364
20
-149.666
11
189.078
21
-149.523
0
LINE
8
BLACK
6
CONTINUOUS
10
189.078
20
-149.523
11
188.935
21
-149.38
0
LINE
8
BLACK
6
CONTINUOUS
10
188.935
20
-149.38
11
188.792
21
-149.095
0
LINE
8
BLACK
6
CONTINUOUS
10
188.792
20
-149.095
11
188.792
21
-148.238
0
LINE
8
BLACK
6
CONTINUOUS
10
188.792
20
-148.238
11
188.935
21
-147.952
0
LINE
8
BLACK
6
CONTINUOUS
10
188.935
20
-147.952
11
189.078
21
-147.809
0
LINE
8
BLACK
6
CONTINUOUS
10
189.078
20
-147.809
11
189.364
21
-147.666
0
LINE
8
BLACK
6
CONTINUOUS
10
189.364
20
-147.666
11
189.792
21
-147.666
0
LINE
8
BLACK
6
CONTINUOUS
10
189.792
20
-147.666
11
190.078
21
-147.809
0
LINE
8
BLACK
6
CONTINUOUS
10
190.078
20
-147.809
11
190.221
21
-147.952
0
LINE
8
BLACK
6
CONTINUOUS
10
190.221
20
-147.952
11
190.364
21
-148.238
0
LINE
8
BLACK
6
CONTINUOUS
10
190.364
20
-148.238
11
190.364
21
-149.095
0
LINE
8
BLACK
6
CONTINUOUS
10
190.364
20
-149.095
11
190.221
21
-149.38
0
LINE
8
BLACK
6
CONTINUOUS
10
190.221
20
-149.38
11
190.078
21
-149.523
0
LINE
8
BLACK
6
CONTINUOUS
10
190.078
20
-149.523
11
189.792
21
-149.666
0
LINE
8
BLACK
6
CONTINUOUS
10
189.792
20
-149.666
11
189.364
21
-149.666
0
LINE
8
BLACK
6
CONTINUOUS
10
192.078
20
-149.666
11
191.792
21
-149.523
0
LINE
8
BLACK
6
CONTINUOUS
10
191.792
20
-149.523
11
191.65
21
-149.238
0
LINE
8
BLACK
6
CONTINUOUS
10
191.65
20
-149.238
11
191.65
21
-146.666
0
LINE
8
BLACK
6
CONTINUOUS
10
194.364
20
-149.523
11
194.078
21
-149.666
0
LINE
8
BLACK
6
CONTINUOUS
10
194.078
20
-149.666
11
193.507
21
-149.666
0
LINE
8
BLACK
6
CONTINUOUS
10
193.507
20
-149.666
11
193.221
21
-149.523
0
LINE
8
BLACK
6
CONTINUOUS
10
193.221
20
-149.523
11
193.078
21
-149.238
0
LINE
8
BLACK
6
CONTINUOUS
10
193.078
20
-149.238
11
193.078
21
-148.095
0
LINE
8
BLACK
6
CONTINUOUS
10
193.078
20
-148.095
11
193.221
21
-147.809
0
LINE
8
BLACK
6
CONTINUOUS
10
193.221
20
-147.809
11
193.507
21
-147.666
0
LINE
8
BLACK
6
CONTINUOUS
10
193.507
20
-147.666
11
194.078
21
-147.666
0
LINE
8
BLACK
6
CONTINUOUS
10
194.078
20
-147.666
11
194.364
21
-147.809
0
LINE
8
BLACK
6
CONTINUOUS
10
194.364
20
-147.809
11
194.507
21
-148.095
0
LINE
8
BLACK
6
CONTINUOUS
10
194.507
20
-148.095
11
194.507
21
-148.38
0
LINE
8
BLACK
6
CONTINUOUS
10
194.507
20
-148.38
11
193.078
21
-148.666
0
LINE
8
BLACK
6
CONTINUOUS
10
195.65
20
-149.523
11
195.935
21
-149.666
0
LINE
8
BLACK
6
CONTINUOUS
10
195.935
20
-149.666
11
196.507
21
-149.666
0
LINE
8
BLACK
6
CONTINUOUS
10
196.507
20
-149.666
11
196.792
21
-149.523
0
LINE
8
BLACK
6
CONTINUOUS
10
196.792
20
-149.523
11
196.935
21
-149.238
0
LINE
8
BLACK
6
CONTINUOUS
10
196.935
20
-149.238
11
196.935
21
-149.095
0
LINE
8
BLACK
6
CONTINUOUS
10
196.935
20
-149.095
11
196.792
21
-148.809
0
LINE
8
BLACK
6
CONTINUOUS
10
196.792
20
-148.809
11
196.507
21
-148.666
0
LINE
8
BLACK
6
CONTINUOUS
10
196.507
20
-148.666
11
196.078
21
-148.666
0
LINE
8
BLACK
6
CONTINUOUS
10
196.078
20
-148.666
11
195.792
21
-148.523
0
LINE
8
BLACK
6
CONTINUOUS
10
195.792
20
-148.523
11
195.65
21
-148.238
0
LINE
8
BLACK
6
CONTINUOUS
10
195.65
20
-148.238
11
195.65
21
-148.095
0
LINE
8
BLACK
6
CONTINUOUS
10
195.65
20
-148.095
11
195.792
21
-147.809
0
LINE
8
BLACK
6
CONTINUOUS
10
195.792
20
-147.809
11
196.078
21
-147.666
0
LINE
8
BLACK
6
CONTINUOUS
10
196.078
20
-147.666
11
196.507
21
-147.666
0
LINE
8
BLACK
6
CONTINUOUS
10
196.507
20
-147.666
11
196.792
21
-147.809
0
LINE
8
BLACK
6
CONTINUOUS
10
197.935
20
-150.809
11
198.078
21
-150.666
0
LINE
8
BLACK
6
CONTINUOUS
10
198.078
20
-150.666
11
198.364
21
-150.238
0
LINE
8
BLACK
6
CONTINUOUS
10
198.364
20
-150.238
11
198.507
21
-149.952
0
LINE
8
BLACK
6
CONTINUOUS
10
198.507
20
-149.952
11
198.65
21
-149.523
0
LINE
8
BLACK
6
CONTINUOUS
10
198.65
20
-149.523
11
198.792
21
-148.809
0
LINE
8
BLACK
6
CONTINUOUS
10
198.792
20
-148.809
11
198.792
21
-148.238
0
LINE
8
BLACK
6
CONTINUOUS
10
198.792
20
-148.238
11
198.65
21
-147.523
0
LINE
8
BLACK
6
CONTINUOUS
10
198.65
20
-147.523
11
198.507
21
-147.095
0
LINE
8
BLACK
6
CONTINUOUS
10
198.507
20
-147.095
11
198.364
21
-146.809
0
LINE
8
BLACK
6
CONTINUOUS
10
198.364
20
-146.809
11
198.078
21
-146.38
0
LINE
8
BLACK
6
CONTINUOUS
10
198.078
20
-146.38
11
197.935
21
-146.238
0
LINE
8
BLACK
6
CONTINUOUS
10
203.364
20
-150.809
11
203.221
21
-150.666
0
LINE
8
BLACK
6
CONTINUOUS
10
203.221
20
-150.666
11
202.935
21
-150.238
0
LINE
8
BLACK
6
CONTINUOUS
10
202.935
20
-150.238
11
202.792
21
-149.952
0
LINE
8
BLACK
6
CONTINUOUS
10
202.792
20
-149.952
11
202.65
21
-149.523
0
LINE
8
BLACK
6
CONTINUOUS
10
202.65
20
-149.523
11
202.507
21
-148.809
0
LINE
8
BLACK
6
CONTINUOUS
10
202.507
20
-148.809
11
202.507
21
-148.238
0
LINE
8
BLACK
6
CONTINUOUS
10
202.507
20
-148.238
11
202.65
21
-147.523
0
LINE
8
BLACK
6
CONTINUOUS
10
202.65
20
-147.523
11
202.792
21
-147.095
0
LINE
8
BLACK
6
CONTINUOUS
10
202.792
20
-147.095
11
202.935
21
-146.809
0
LINE
8
BLACK
6
CONTINUOUS
10
202.935
20
-146.809
11
203.221
21
-146.38
0
LINE
8
BLACK
6
CONTINUOUS
10
203.221
20
-146.38
11
203.364
21
-146.238
0
LINE
8
BLACK
6
CONTINUOUS
10
204.507
20
-147.666
11
204.507
21
-149.666
0
LINE
8
BLACK
6
CONTINUOUS
10
204.507
20
-147.952
11
204.65
21
-147.809
0
LINE
8
BLACK
6
CONTINUOUS
10
204.65
20
-147.809
11
204.935
21
-147.666
0
LINE
8
BLACK
6
CONTINUOUS
10
204.935
20
-147.666
11
205.364
21
-147.666
0
LINE
8
BLACK
6
CONTINUOUS
10
205.364
20
-147.666
11
205.65
21
-147.809
0
LINE
8
BLACK
6
CONTINUOUS
10
205.65
20
-147.809
11
205.792
21
-148.095
0
LINE
8
BLACK
6
CONTINUOUS
10
205.792
20
-148.095
11
205.792
21
-149.666
0
LINE
8
BLACK
6
CONTINUOUS
10
207.65
20
-149.666
11
207.364
21
-149.523
0
LINE
8
BLACK
6
CONTINUOUS
10
207.364
20
-149.523
11
207.221
21
-149.38
0
LINE
8
BLACK
6
CONTINUOUS
10
207.221
20
-149.38
11
207.078
21
-149.095
0
LINE
8
BLACK
6
CONTINUOUS
10
207.078
20
-149.095
11
207.078
21
-148.238
0
LINE
8
BLACK
6
CONTINUOUS
10
207.078
20
-148.238
11
207.221
21
-147.952
0
LINE
8
BLACK
6
CONTINUOUS
10
207.221
20
-147.952
11
207.364
21
-147.809
0
LINE
8
BLACK
6
CONTINUOUS
10
207.364
20
-147.809
11
207.65
21
-147.666
0
LINE
8
BLACK
6
CONTINUOUS
10
207.65
20
-147.666
11
208.078
21
-147.666
0
LINE
8
BLACK
6
CONTINUOUS
10
208.078
20
-147.666
11
208.364
21
-147.809
0
LINE
8
BLACK
6
CONTINUOUS
10
208.364
20
-147.809
11
208.507
21
-147.952
0
LINE
8
BLACK
6
CONTINUOUS
10
208.507
20
-147.952
11
208.65
21
-148.238
0
LINE
8
BLACK
6
CONTINUOUS
10
208.65
20
-148.238
11
208.65
21
-149.095
0
LINE
8
BLACK
6
CONTINUOUS
10
208.65
20
-149.095
11
208.507
21
-149.38
0
LINE
8
BLACK
6
CONTINUOUS
10
208.507
20
-149.38
11
208.364
21
-149.523
0
LINE
8
BLACK
6
CONTINUOUS
10
208.364
20
-149.523
11
208.078
21
-149.666
0
LINE
8
BLACK
6
CONTINUOUS
10
208.078
20
-149.666
11
207.65
21
-149.666
0
LINE
8
BLACK
6
CONTINUOUS
10
209.507
20
-147.666
11
210.65
21
-147.666
0
LINE
8
BLACK
6
CONTINUOUS
10
209.935
20
-146.666
11
209.935
21
-149.238
0
LINE
8
BLACK
6
CONTINUOUS
10
209.935
20
-149.238
11
210.078
21
-149.523
0
LINE
8
BLACK
6
CONTINUOUS
10
210.078
20
-149.523
11
210.364
21
-149.666
0
LINE
8
BLACK
6
CONTINUOUS
10
210.364
20
-149.666
11
210.65
21
-149.666
0
LINE
8
BLACK
6
CONTINUOUS
10
213.935
20
-147.666
11
213.935
21
-150.666
0
LINE
8
BLACK
6
CONTINUOUS
10
213.935
20
-147.809
11
214.221
21
-147.666
0
LINE
8
BLACK
6
CONTINUOUS
10
214.221
20
-147.666
11
214.792
21
-147.666
0
LINE
8
BLACK
6
CONTINUOUS
10
214.792
20
-147.666
11
215.078
21
-147.809
0
LINE
8
BLACK
6
CONTINUOUS
10
215.078
20
-147.809
11
215.221
21
-147.952
0
LINE
8
BLACK
6
CONTINUOUS
10
215.221
20
-147.952
11
215.364
21
-148.238
0
LINE
8
BLACK
6
CONTINUOUS
10
215.364
20
-148.238
11
215.364
21
-149.095
0
LINE
8
BLACK
6
CONTINUOUS
10
215.364
20
-149.095
11
215.221
21
-149.38
0
LINE
8
BLACK
6
CONTINUOUS
10
215.221
20
-149.38
11
215.078
21
-149.523
0
LINE
8
BLACK
6
CONTINUOUS
10
215.078
20
-149.523
11
214.792
21
-149.666
0
LINE
8
BLACK
6
CONTINUOUS
10
214.792
20
-149.666
11
214.221
21
-149.666
0
LINE
8
BLACK
6
CONTINUOUS
10
214.221
20
-149.666
11
213.935
21
-149.523
0
LINE
8
BLACK
6
CONTINUOUS
10
217.078
20
-149.666
11
216.792
21
-149.523
0
LINE
8
BLACK
6
CONTINUOUS
10
216.792
20
-149.523
11
216.65
21
-149.238
0
LINE
8
BLACK
6
CONTINUOUS
10
216.65
20
-149.238
11
216.65
21
-146.666
0
LINE
8
BLACK
6
CONTINUOUS
10
219.507
20
-149.666
11
219.507
21
-148.095
0
LINE
8
BLACK
6
CONTINUOUS
10
219.507
20
-148.095
11
219.364
21
-147.809
0
LINE
8
BLACK
6
CONTINUOUS
10
219.364
20
-147.809
11
219.078
21
-147.666
0
LINE
8
BLACK
6
CONTINUOUS
10
219.078
20
-147.666
11
218.507
21
-147.666
0
LINE
8
BLACK
6
CONTINUOUS
10
218.507
20
-147.666
11
218.221
21
-147.809
0
LINE
8
BLACK
6
CONTINUOUS
10
219.507
20
-149.523
11
219.221
21
-149.666
0
LINE
8
BLACK
6
CONTINUOUS
10
219.221
20
-149.666
11
218.507
21
-149.666
0
LINE
8
BLACK
6
CONTINUOUS
10
218.507
20
-149.666
11
218.221
21
-149.523
0
LINE
8
BLACK
6
CONTINUOUS
10
218.221
20
-149.523
11
218.078
21
-149.238
0
LINE
8
BLACK
6
CONTINUOUS
10
218.078
20
-149.238
11
218.078
21
-148.952
0
LINE
8
BLACK
6
CONTINUOUS
10
218.078
20
-148.952
11
218.221
21
-148.666
0
LINE
8
BLACK
6
CONTINUOUS
10
218.221
20
-148.666
11
218.507
21
-148.523
0
LINE
8
BLACK
6
CONTINUOUS
10
218.507
20
-148.523
11
219.221
21
-148.523
0
LINE
8
BLACK
6
CONTINUOUS
10
219.221
20
-148.523
11
219.507
21
-148.38
0
LINE
8
BLACK
6
CONTINUOUS
10
220.507
20
-147.666
11
221.65
21
-147.666
0
LINE
8
BLACK
6
CONTINUOUS
10
220.935
20
-146.666
11
220.935
21
-149.238
0
LINE
8
BLACK
6
CONTINUOUS
10
220.935
20
-149.238
11
221.078
21
-149.523
0
LINE
8
BLACK
6
CONTINUOUS
10
221.078
20
-149.523
11
221.364
21
-149.666
0
LINE
8
BLACK
6
CONTINUOUS
10
221.364
20
-149.666
11
221.65
21
-149.666
0
LINE
8
BLACK
6
CONTINUOUS
10
223.792
20
-149.523
11
223.507
21
-149.666
0
LINE
8
BLACK
6
CONTINUOUS
10
223.507
20
-149.666
11
222.935
21
-149.666
0
LINE
8
BLACK
6
CONTINUOUS
10
222.935
20
-149.666
11
222.65
21
-149.523
0
LINE
8
BLACK
6
CONTINUOUS
10
222.65
20
-149.523
11
222.507
21
-149.238
0
LINE
8
BLACK
6
CONTINUOUS
10
222.507
20
-149.238
11
222.507
21
-148.095
0
LINE
8
BLACK
6
CONTINUOUS
10
222.507
20
-148.095
11
222.65
21
-147.809
0
LINE
8
BLACK
6
CONTINUOUS
10
222.65
20
-147.809
11
222.935
21
-147.666
0
LINE
8
BLACK
6
CONTINUOUS
10
222.935
20
-147.666
11
223.507
21
-147.666
0
LINE
8
BLACK
6
CONTINUOUS
10
223.507
20
-147.666
11
223.792
21
-147.809
0
LINE
8
BLACK
6
CONTINUOUS
10
223.792
20
-147.809
11
223.935
21
-148.095
0
LINE
8
BLACK
6
CONTINUOUS
10
223.935
20
-148.095
11
223.935
21
-148.38
0
LINE
8
BLACK
6
CONTINUOUS
10
223.935
20
-148.38
11
222.507
21
-148.666
0
LINE
8
BLACK
6
CONTINUOUS
10
226.507
20
-149.666
11
226.507
21
-146.666
0
LINE
8
BLACK
6
CONTINUOUS
10
226.507
20
-149.523
11
226.221
21
-149.666
0
LINE
8
BLACK
6
CONTINUOUS
10
226.221
20
-149.666
11
225.65
21
-149.666
0
LINE
8
BLACK
6
CONTINUOUS
10
225.65
20
-149.666
11
225.364
21
-149.523
0
LINE
8
BLACK
6
CONTINUOUS
10
225.364
20
-149.523
11
225.221
21
-149.38
0
LINE
8
BLACK
6
CONTINUOUS
10
225.221
20
-149.38
11
225.078
21
-149.095
0
LINE
8
BLACK
6
CONTINUOUS
10
225.078
20
-149.095
11
225.078
21
-148.238
0
LINE
8
BLACK
6
CONTINUOUS
10
225.078
20
-148.238
11
225.221
21
-147.952
0
LINE
8
BLACK
6
CONTINUOUS
10
225.221
20
-147.952
11
225.364
21
-147.809
0
LINE
8
BLACK
6
CONTINUOUS
10
225.364
20
-147.809
11
225.65
21
-147.666
0
LINE
8
BLACK
6
CONTINUOUS
10
225.65
20
-147.666
11
226.221
21
-147.666
0
LINE
8
BLACK
6
CONTINUOUS
10
226.221
20
-147.666
11
226.507
21
-147.809
0
LINE
8
BLACK
6
CONTINUOUS
10
227.65
20
-150.809
11
227.792
21
-150.666
0
LINE
8
BLACK
6
CONTINUOUS
10
227.792
20
-150.666
11
228.078
21
-150.238
0
LINE
8
BLACK
6
CONTINUOUS
10
228.078
20
-150.238
11
228.221
21
-149.952
0
LINE
8
BLACK
6
CONTINUOUS
10
228.221
20
-149.952
11
228.364
21
-149.523
0
LINE
8
BLACK
6
CONTINUOUS
10
228.364
20
-149.523
11
228.507
21
-148.809
0
LINE
8
BLACK
6
CONTINUOUS
10
228.507
20
-148.809
11
228.507
21
-148.238
0
LINE
8
BLACK
6
CONTINUOUS
10
228.507
20
-148.238
11
228.364
21
-147.523
0
LINE
8
BLACK
6
CONTINUOUS
10
228.364
20
-147.523
11
228.221
21
-147.095
0
LINE
8
BLACK
6
CONTINUOUS
10
228.221
20
-147.095
11
228.078
21
-146.809
0
LINE
8
BLACK
6
CONTINUOUS
10
228.078
20
-146.809
11
227.792
21
-146.38
0
LINE
8
BLACK
6
CONTINUOUS
10
227.792
20
-146.38
11
227.65
21
-146.238
  0
ENDSEC
  0
EOF
