0
SECTION
2
HEADER
9
$INSUNITS
70
4
9
$ACADVER
1
AC1014
9
$HANDSEED
5
FFFF
0
ENDSEC
0
SECTION
2
TABLES
0
TABLE
2
VPORT
5
8
100
AcDbSymbolTable
0
ENDTAB
0
TABLE
2
LTYPE
5
5
100
AcDbSymbolTable
0
LTYPE
5
14
100
AcDbSymbolTableRecord
100
AcDbLinetypeTableRecord
2
BYBLOCK
70
0
0
LTYPE
5
15
100
AcDbSymbolTableRecord
100
AcDbLinetypeTableRecord
2
BYLAYER
70
0
0
ENDTAB
0
TABLE
2
LAYER
5
2
100
AcDbSymbolTable
70
2
0
LAYER
5
50
100
AcDbSymbolTableRecord
100
AcDbLayerTableRecord
2
0
70
0
6
CONTINUOUS
0
ENDTAB
0
TABLE
2
STYLE
5
3
100
AcDbSymbolTable
70
1
0
STYLE
5
11
100
AcDbSymbolTableRecord
100
AcDbTextStyleTableRecord
2
STANDARD
70
0
0
ENDTAB
0
TABLE
2
VIEW
5
6
100
AcDbSymbolTable
70
0
0
ENDTAB
0
TABLE
2
UCS
5
7
100
AcDbSymbolTable
70
0
0
ENDTAB
0
TABLE
2
APPID
5
9
100
AcDbSymbolTable
70
2
0
APPID
5
12
100
AcDbSymbolTableRecord
100
AcDbRegAppTableRecord
2
ACAD
70
0
0
ENDTAB
0
TABLE
2
DIMSTYLE
5
A
100
AcDbSymbolTable
70
1
0
ENDTAB
0
TABLE
2
BLOCK_RECORD
5
1
100
AcDbSymbolTable
70
1
0
BLOCK_RECORD
5
1F
100
AcDbSymbolTableRecord
100
AcDbBlockTableRecord
2
*MODEL_SPACE
0
BLOCK_RECORD
5
1B
100
AcDbSymbolTableRecord
100
AcDbBlockTableRecord
2
*PAPER_SPACE
0
ENDTAB
0
ENDSEC
0
SECTION
2
BLOCKS
0
BLOCK
5
20
100
AcDbEntity
100
AcDbBlockBegin
2
*MODEL_SPACE
0
ENDBLK
5
21
100
AcDbEntity
100
AcDbBlockEnd
0
BLOCK
5
1C
100
AcDbEntity
100
AcDbBlockBegin
2
*PAPER_SPACE
0
ENDBLK
5
1D
100
AcDbEntity
100
AcDbBlockEnd
0
ENDSEC
0
SECTION
2
ENTITIES
0
ARC
5
100
100
AcDbEntity
8
0
100
AcDbCircle
10
-550.79606238448366
20
-720.58299391108449
30
1.7763568394002505e-12
40
1.5258331754656063
210
0
220
-0
230
1
100
AcDbArc
50
89.757615828358766
51
180
0
LINE
5
101
100
AcDbEntity
8
0
100
AcDbLine
10
-550.78960751624868
20
-719.0571743889825
30
1.7763568394002505e-12
11
-540.63609519599777
21
-719.05717438898239
31
1.9184653865522705e-12
0
ELLIPSE
5
102
100
AcDbEntity
8
0
100
AcDbEllipse
10
-540.63609519599777
20
-720.55717440475632
30
1.7763568394002505e-12
11
0.00031920251081304652
21
1.4999999818106782
31
0.0
40
0.99999999942720041
41
4.7126017820578188
42
6.2833981088529427
0
LINE
5
103
100
AcDbEntity
8
0
100
AcDbLine
10
-539.13609518108285
20
-720.55717440475632
30
1.7763568394002505e-12
11
-539.12964032774892
21
-723.09716626787031
31
1.9184653865522705e-12
0
ELLIPSE
5
104
100
AcDbEntity
8
0
100
AcDbEllipse
10
-540.62964032776256
20
-723.09716626787053
30
1.7763568394002505e-12
11
0.00031920250764206487
21
1.4999999669095172
31
0.0
40
0.99999999942720064
41
3.1418054552632064
42
4.7126017820578756
0
LINE
5
105
100
AcDbEntity
8
0
100
AcDbLine
10
-540.62964032776244
20
-724.59716626874342
30
1.7763568394002505e-12
11
-540.63609519599777
21
-724.59718267249809
31
1.9895196601282805e-12
0
LINE
5
106
100
AcDbEntity
8
0
100
AcDbLine
10
-540.63609519599777
20
-724.59718267249809
30
1.9895196601282805e-12
11
-540.63609519599777
21
-724.62298578991465
31
1.9184653865522705e-12
0
LINE
5
107
100
AcDbEntity
8
0
100
AcDbLine
10
-540.63609519599777
20
-724.62298578991465
30
1.9184653865522705e-12
11
-550.78960751624868
21
-724.62298578991476
31
1.9184653865522705e-12
0
ARC
5
108
100
AcDbEntity
8
0
100
AcDbCircle
10
-550.78960751624868
20
-723.12298577419847
30
1.7763568394002505e-12
40
1.5000000157162336
210
0
220
0
230
1
100
AcDbArc
50
175.60669157906048
51
270
0
LINE
5
109
100
AcDbEntity
8
0
100
AcDbLine
10
-552.28520009009219
20
-723.00808190040493
30
1.7763568394002505e-12
11
-552.32189555994944
21
-720.58299391108449
31
1.7763568394002505e-12
0
LWPOLYLINE
5
110
100
AcDbEntity
8
0
100
AcDbPolyline
90
4
70
1
43
0.0
10
-536.8593374339066
20
-768.62512692600478
10
-543.1540409344733
20
-768.64972846448723
42
-1.0019560477921088
10
-543.15931708818425
20
-765.94973877361463
10
-536.85933743390638
20
-765.94233036852063
42
-0.99999999999999989
0
LINE
5
111
100
AcDbEntity
8
0
100
AcDbLine
10
-549.65871277165729
20
-740.39622141869143
30
1.9895196601282805e-12
11
-549.65871277165718
21
-742.79286278695872
31
1.9895196601282805e-12
0
ELLIPSE
5
112
100
AcDbEntity
8
0
100
AcDbEllipse
10
-551.24725790343848
20
-742.93621328180529
30
1.7763568394002505e-12
11
0.00033941866648289922
21
1.5949999649243907
31
0.0
40
0.99999999935896744
41
1.5710091284680259
42
4.8025981364462362
0
LINE
5
113
100
AcDbEntity
8
0
100
AcDbLine
10
-552.84225790345477
20
-742.93621328180529
30
1.7763568394002505e-12
11
-552.84225790345488
21
-740.53957191353788
31
1.9895196601282805e-12
0
ELLIPSE
5
114
100
AcDbEntity
8
0
100
AcDbEllipse
10
-551.25371277167358
20
-740.39622141869131
30
1.7763568394002505e-12
11
0.00033941866648291017
21
1.5949999649243907
31
0.0
40
0.99999999935896711
41
4.7126017820577619
42
7.9441907900359574
0
LINE
5
115
100
AcDbEntity
8
0
100
AcDbLine
10
-528.46737346661723
20
-739.31825785825822
30
1.9895196601282805e-12
11
-528.47433953959762
21
-734.23827413203003
31
1.9184653865522705e-12
0
SPLINE
5
116
100
AcDbEntity
8
0
100
AcDbSpline
70
0
71
3
72
24
73
20
74
0
42
0.000000001
43
0.0000000001
44
0.0000000001
40
0
40
0
40
0
40
0
40
0.063934091639465479
40
0.063934091639465479
40
0.12581594715108849
40
0.12581594715108849
40
0.19716875682898694
40
0.19716875682898694
40
0.30793450366907826
40
0.30793450366907826
40
0.41855461716697151
40
0.41855461716697151
40
0.51969607172372756
40
0.51969607172372756
40
0.62364966967197288
40
0.62364966967197288
40
0.68255306511098823
40
0.68255306511098823
40
0.74139814741394927
40
0.74139814741394927
40
0.74139814741394927
40
0.74139814741394927
10
-528.47433953959774
20
-734.23827413202935
30
1.9184653865522705e-12
10
-528.4718587931302
20
-734.02517493226833
30
1.9184653865522705e-12
10
-528.4278704247979
20
-733.81210675405271
30
1.9895196601282805e-12
10
-528.26711345008857
20
-733.42473877050497
30
1.9895196601282805e-12
10
-528.15273015117077
20
-733.24942320617038
30
2.0605739337042905e-12
10
-527.83783184948811
20
-732.93621096352138
30
2.0605739337042905e-12
10
-527.66172316967709
20
-732.84232952852699
30
1.9184653865522705e-12
10
-527.34432785587944
20
-732.70467924665627
30
1.9895196601282805e-12
10
-527.13470088401209
20
-732.65845761185187
30
1.9895196601282805e-12
10
-526.71431687540667
20
-732.64512701592412
30
1.9895196601282805e-12
10
-526.50316119796207
20
-732.67790141869227
30
1.9895196601282805e-12
10
-526.12714437925069
20
-732.82085456189577
30
1.9895196601282805e-12
10
-525.96491851137296
20
-732.92160508144423
30
2.0605739337042905e-12
10
-525.66543983993108
20
-733.20026041753408
30
2.0605739337042905e-12
10
-525.54110776183529
20
-733.37115029556003
30
2.0605739337042905e-12
10
-525.40069198132392
20
-733.66410448559031
30
2.0605739337042905e-12
10
-525.36095153936174
20
-733.77543380899283
30
1.9895196601282805e-12
10
-525.306468604874
20
-734.00390320481233
30
1.9895196601282805e-12
10
-525.29173546356196
20
-734.1208973443388
30
1.9184653865522705e-12
10
-525.29084863198068
20
-734.2382741320298
30
1.9184653865522705e-12
0
LINE
5
117
100
AcDbEntity
8
0
100
AcDbLine
10
-525.29084863198068
20
-734.23827413202969
30
1.9895196601282805e-12
11
-525.29084863198068
21
-739.52514961156555
31
1.9895196601282805e-12
0
ELLIPSE
5
118
100
AcDbEntity
8
0
100
AcDbEllipse
10
-526.87237346660083
20
-739.31825785825822
30
1.7763568394002505e-12
11
0.00033941866648291017
21
1.5949999649243907
31
0.0
40
0.99999999935896711
41
1.5710091284679124
42
4.5825225578546176
0
LINE
5
119
100
AcDbEntity
8
0
100
AcDbLine
10
-548.81183497172731
20
-703.23189023846112
30
1.8474111129762605e-12
11
-552.89344842050184
21
-703.23189023846226
31
1.8474111129762605e-12
0
ARC
5
120
100
AcDbEntity
8
0
100
AcDbCircle
10
-553.06243061504756
20
-701.91535977764545
30
1.7763568394002505e-12
40
1.3273309445390311
210
0
220
0
230
1
100
AcDbArc
50
270.01298464779148
51
277.3141616063761
0
SPLINE
5
121
100
AcDbEntity
8
0
100
AcDbSpline
70
0
71
3
72
24
73
20
74
0
42
0.000000001
43
0.0000000001
44
0.0000000001
40
0
40
0
40
0
40
0
40
0.050890710731215143
40
0.050890710731215143
40
0.10865127448604942
40
0.10865127448604942
40
0.16571610115950067
40
0.16571610115950067
40
0.21760687047550759
40
0.21760687047550759
40
0.27087363079930171
40
0.27087363079930171
40
0.32642428460856054
40
0.32642428460856054
40
0.3775829123483716
40
0.3775829123483716
40
0.40942451530564189
40
0.40942451530564189
40
0.44132348957216666
40
0.44132348957216666
40
0.44132348957216666
40
0.44132348957216666
10
-553.06212980886573
20
-703.24269068809951
30
1.8474111129762605e-12
10
-553.23176550746223
20
-703.24265458933837
30
1.8474111129762605e-12
10
-553.3999576828237
20
-703.20963757804384
30
1.9184653865522705e-12
10
-553.73828545064839
20
-703.08052693898173
30
1.9184653865522705e-12
10
-553.90509500788232
20
-702.97672426813733
30
1.9184653865522705e-12
10
-554.18687965216452
20
-702.71771682150052
30
1.9184653865522705e-12
10
-554.30267596815452
20
-702.56294304956907
30
1.8474111129762605e-12
10
-554.45492332721597
20
-702.23325470292389
30
1.8474111129762605e-12
10
-554.4961779456869
20
-702.06587882418353
30
1.8474111129762605e-12
10
-554.5134968201121
20
-701.69550334288988
30
1.7763568394002505e-12
10
-554.48568924932965
20
-701.50614771591631
30
1.7763568394002505e-12
10
-554.36289897414531
20
-701.14256907204094
30
1.8474111129762605e-12
10
-554.26484480233376
20
-700.96862540020095
30
1.7763568394002505e-12
10
-554.01643404705078
20
-700.68605065814268
30
1.7763568394002505e-12
10
-553.87531545264801
20
-700.578513881086
30
1.6342482922482304e-12
10
-553.6124188885758
20
-700.45042560003753
30
1.7053025658242404e-12
10
-553.50578395455295
20
-700.41349379067071
30
1.7053025658242404e-12
10
-553.28671034859121
20
-700.36402346507316
30
1.7053025658242404e-12
10
-553.17422018112256
20
-700.35151919399095
30
1.8474111129762605e-12
10
-553.06182124643863
20
-700.35130118337293
30
1.8474111129762605e-12
0
LINE
5
122
100
AcDbEntity
8
0
100
AcDbLine
10
-553.06182124643863
20
-700.35130118337293
30
1.8474111129762605e-12
11
-548.81183497172731
21
-700.33189020708733
31
1.8474111129762605e-12
0
ELLIPSE
5
123
100
AcDbEntity
8
0
100
AcDbEllipse
10
-548.81183497172731
20
-701.78189022277434
30
1.7763568394002505e-12
11
0.00030856242721259274
21
1.4499999828555405
31
0.0
40
0.99999999946670415
41
3.1418054552630927
42
6.2833981088529995
0
ELLIPSE
5
124
100
AcDbEntity
8
0
100
AcDbEllipse
10
-553.08118585114426
20
-694.17271511590184
30
1.7763568394002505e-12
11
0.00030856242721259274
21
1.4499999828555405
31
0.0
40
0.99999999946670415
41
0.00021280167329985113
42
3.1418054552631496
0
LINE
5
125
100
AcDbEntity
8
0
100
AcDbLine
10
-553.08118585114414
20
-692.72271510021471
30
1.7763568394002505e-12
11
-548.83119957643305
21
-692.72052511156051
31
1.8474111129762605e-12
0
SPLINE
5
126
100
AcDbEntity
8
0
100
AcDbSpline
70
0
71
3
72
24
73
20
74
0
42
0.000000001
43
0.0000000001
44
0.0000000001
40
0
40
0
40
0
40
0
40
0.058771048991671147
40
0.058771048991671147
40
0.11277744165614792
40
0.11277744165614792
40
0.16706033990805544
40
0.16706033990805544
40
0.22698586496439582
40
0.22698586496439582
40
0.28231468847222335
40
0.28231468847222335
40
0.33551247237201648
40
0.33551247237201648
40
0.39572010443085509
40
0.39572010443085509
40
0.42777750503036988
40
0.42777750503036988
40
0.45988381660080074
40
0.45988381660080074
40
0.45988381660080074
40
0.45988381660080074
10
-548.83119957643328
20
-692.72052511156051
30
1.8474111129762605e-12
10
-548.63529644829805
20
-692.72014513498721
30
1.8474111129762605e-12
10
-548.43904866602998
20
-692.7570870833888
30
1.8474111129762605e-12
10
-548.09193352824559
20
-692.90122179897776
30
1.8474111129762605e-12
10
-547.94466863037815
20
-692.99999786192006
30
2.0605739337042905e-12
10
-547.69020461302034
20
-693.25674600823288
30
1.9895196601282805e-12
10
-547.58806795183432
20
-693.41000100566418
30
1.9895196601282805e-12
10
-547.43478992293728
20
-693.75914933910724
30
2.0605739337042905e-12
10
-547.38974219019212
20
-693.95852701803949
30
2.1316282072803006e-12
10
-547.38256785624253
20
-694.34319033503709
30
2.0605739337042905e-12
10
-547.41309988545959
20
-694.51784947627311
30
2.0605739337042905e-12
10
-547.54330683002058
20
-694.84666450115901
30
2.0605739337042905e-12
10
-547.63811920060721
20
-694.99439265987598
30
1.9895196601282805e-12
10
-547.88767382148035
20
-695.26697369880026
30
2.0605739337042905e-12
10
-548.04871706019765
20
-695.38630222204961
30
2.1316282072803006e-12
10
-548.31998878638331
20
-695.51597689563766
30
2.1316282072803006e-12
10
-548.41889392447558
20
-695.55125096937991
30
1.9895196601282805e-12
10
-548.62238960646107
20
-695.59928567503016
30
1.9895196601282805e-12
10
-548.72656840955574
20
-695.61191209355104
30
1.8474111129762605e-12
10
-548.83119957643316
20
-695.61191464535557
30
1.8474111129762605e-12
0
LINE
5
127
100
AcDbEntity
8
0
100
AcDbLine
10
-548.83119957643316
20
-695.61191464535545
30
1.8474111129762605e-12
11
-553.08118585114426
21
-695.62271513158873
31
1.7763568394002505e-12
0
ELLIPSE
5
128
100
AcDbEntity
8
0
100
AcDbEllipse
10
-527.44880358543719
20
-704.52160948311121
30
2.4868995751603507e-12
11
0.00033941866965388006
21
1.5949999798255512
31
0.0
40
0.99999999935896733
41
4.7126017820578756
42
7.854194435647555
0
LINE
5
129
100
AcDbEntity
8
0
100
AcDbLine
10
-525.85380357051974
20
-704.52160948311121
30
2.4868995751603507e-12
11
-525.84791414611141
21
-704.52160948311121
31
1.8474111129762605e-12
0
LINE
5
130
100
AcDbEntity
8
0
100
AcDbLine
10
-525.84791414611141
20
-704.52160948311121
30
1.8474111129762605e-12
11
-525.84791414611141
21
-707.06160134622507
31
1.8474111129762605e-12
0
SPLINE
5
131
100
AcDbEntity
8
0
100
AcDbSpline
70
0
71
3
72
24
73
20
74
0
42
0.000000001
43
0.0000000001
44
0.0000000001
40
0
40
0
40
0
40
0
40
0.057677739240227455
40
0.057677739240227455
40
0.11704063822936769
40
0.11704063822936769
40
0.17786166732586217
40
0.17786166732586217
40
0.24425665769994875
40
0.24425665769994875
40
0.29553854894989401
40
0.29553854894989401
40
0.33477545386278396
40
0.33477545386278396
40
0.37345685845412563
40
0.37345685845412563
40
0.3951418856003599
40
0.3951418856003599
40
0.41682483371018059
40
0.41682483371018059
40
0.41682483371018059
40
0.41682483371018059
10
-525.84791414611141
20
-707.06160134622496
30
1.8474111129762605e-12
10
-525.84646158801991
20
-707.25385498975675
30
1.8474111129762605e-12
10
-525.8816000356419
20
-707.44162285259904
30
1.9184653865522705e-12
10
-526.03273069832699
20
-707.82194482128705
30
1.9184653865522705e-12
10
-526.14702402154626
20
-708.00000542451562
30
2.0605739337042905e-12
10
-526.43439235439268
20
-708.3067135828685
30
2.0605739337042905e-12
10
-526.60924220733341
20
-708.43446683845843
30
1.7763568394002505e-12
10
-527.01492675019972
20
-708.61692624630336
30
1.8474111129762605e-12
10
-527.21659142497606
20
-708.64853492953091
30
1.7763568394002505e-12
10
-527.49885667172111
20
-708.66036150582249
30
1.7053025658242404e-12
10
-527.71568910804729
20
-708.65517236778476
30
2.4158453015843406e-12
10
-528.17334483431057
20
-708.4858383345379
30
2.3447910280083306e-12
10
-528.35776437942968
20
-708.37366407100444
30
2.3447910280083306e-12
10
-528.66979413483466
20
-708.09240592437061
30
2.3447910280083306e-12
10
-528.798349282098
20
-707.92399012708881
30
2.2737367544323206e-12
10
-528.93765542644462
20
-707.62987318424973
30
2.2737367544323206e-12
10
-528.97421158968302
20
-707.51991453834012
30
2.3447910280083306e-12
10
-529.02184600666055
20
-707.293260179051
30
2.3447910280083306e-12
10
-529.03275302019915
20
-707.1773933386653
30
1.9184653865522705e-12
10
-529.03140505372858
20
-707.06160134622451
30
1.9184653865522705e-12
0
LINE
5
132
100
AcDbEntity
8
0
100
AcDbLine
10
-529.03140505372858
20
-707.06160134622439
30
1.9184653865522705e-12
11
-529.04380360035475
21
-704.52160948311121
31
2.4868995751603507e-12
0
LWPOLYLINE
5
133
100
AcDbEntity
8
0
100
AcDbPolyline
90
8
70
1
43
0.0
10
-500.06089148845388
20
-791.61587738748153
10
-500.03037931644263
20
-637.62838041042994
10
-530.19287872473478
20
-637.62240590023703
10
-530.19728099540316
20
-659.84740546424189
42
-0.41421356237308632
10
-534.96072424569002
20
-664.60896202709955
10
-548.61322397786455
20
-664.6062577751178
10
-559.92539801824353
20
-675.91395133038577
10
-565.14906610846765
20
-795.01407175715485
0
SPLINE
5
134
100
AcDbEntity
8
0
100
AcDbSpline
70
0
71
3
72
24
73
20
74
0
42
0.000000001
43
0.0000000001
44
0.0000000001
40
0.19111011286245935
40
0.19111011286245935
40
0.19111011286245935
40
0.19111011286245935
40
0.21045176050609746
40
0.21045176050609746
40
0.26421230211622121
40
0.26421230211622121
40
0.32424511081132512
40
0.32424511081132512
40
0.37881779088469941
40
0.37881779088469941
40
0.42891996233870089
40
0.42891996233870089
40
0.48595152756863308
40
0.48595152756863308
40
0.54172969653653769
40
0.54172969653653769
40
0.59248964684458438
40
0.59248964684458438
40
0.63779600274298476
40
0.63779600274298476
40
0.63779600274298476
40
0.63779600274298476
10
-543.17868169289011
20
-761.02976318229582
30
2.0605739337042905e-12
10
-543.23840826721812
20
-761.02976450896335
30
2.0605739337042905e-12
10
-543.29766223285083
20
-761.0253936827047
30
1.9895196601282805e-12
10
-543.52075582098155
20
-760.9931320822817
30
1.9895196601282805e-12
10
-543.6794551912858
20
-760.93751752233652
30
1.9895196601282805e-12
10
-543.98549304124447
20
-760.76650420992576
30
1.9895196601282805e-12
10
-544.12978510164817
20
-760.64464177932325
30
1.8474111129762605e-12
10
-544.3489752095262
20
-760.36834366153482
30
1.8474111129762605e-12
10
-544.42891572915369
20
-760.21933293506765
30
1.9895196601282805e-12
10
-544.51936192945016
20
-759.89943300287769
30
1.9895196601282805e-12
10
-544.53248705400779
20
-759.73915639545976
30
1.9184653865522705e-12
10
-544.50249151577646
20
-759.40059261571503
30
1.9184653865522705e-12
10
-544.4513682475075
20
-759.22315073236962
30
1.8474111129762605e-12
10
-544.28999759210899
20
-758.90407119676661
30
1.8474111129762605e-12
10
-544.18094901545555
20
-758.76148495034056
30
2.1316282072803006e-12
10
-543.92466873770331
20
-758.54215939122628
30
2.0605739337042905e-12
10
-543.7855361419621
20
-758.46320563839799
30
1.9895196601282805e-12
10
-543.48136069244094
20
-758.36170619583663
30
1.9895196601282805e-12
10
-543.32988070472493
20
-758.33812523483869
30
2.0605739337042905e-12
10
-543.17868169289011
20
-758.33836490613362
30
1.9895196601282805e-12
0
LINE
5
135
100
AcDbEntity
8
0
100
AcDbLine
10
-543.17868169289
20
-758.33836490613385
30
1.9895196601282805e-12
11
-537.09463500325376
21
-758.33836490613385
31
1.9895196601282805e-12
0
SPLINE
5
136
100
AcDbEntity
8
0
100
AcDbSpline
70
0
71
3
72
26
73
22
74
0
42
0.000000001
43
0.0000000001
44
0.0000000001
40
0.024620683632657295
40
0.024620683632657295
40
0.024620683632657295
40
0.024620683632657295
40
0.051667333447880319
40
0.051667333447880319
40
0.10505592177662737
40
0.10505592177662737
40
0.1565801018710615
40
0.1565801018710615
40
0.21079388891655426
40
0.21079388891655426
40
0.26990188904773449
40
0.26990188904773449
40
0.31542634616601711
40
0.31542634616601711
40
0.35301668555704202
40
0.35301668555704202
40
0.39458658098873206
40
0.39458658098873206
40
0.43337346129021725
40
0.43337346129021725
40
0.43427584317610424
40
0.43427584317610424
40
0.43427584317610424
40
0.43427584317610424
10
-537.09463500325376
20
-758.33836490613385
30
1.9895196601282805e-12
10
-537.00462276849157
20
-758.32475128621081
30
1.9895196601282805e-12
10
-536.91282494896632
20
-758.31977470750201
30
2.0605739337042905e-12
10
-536.63977235659956
20
-758.33115886467851
30
2.0605739337042905e-12
10
-536.45781335139384
20
-758.37304522870738
30
1.9895196601282805e-12
10
-536.12879166876166
20
-758.52682887236722
30
1.9895196601282805e-12
10
-535.9990389341134
20
-758.62712339381596
30
1.9184653865522705e-12
10
-535.78173414465573
20
-758.866427931609
30
1.8474111129762605e-12
10
-535.69328863941541
20
-759.01151229413358
30
1.9184653865522705e-12
10
-535.56531456541154
20
-759.3406113008233
30
1.9895196601282805e-12
10
-535.53074236289615
20
-759.52740961856125
30
1.9184653865522705e-12
10
-535.53800705059086
20
-759.85953382459854
30
1.9184653865522705e-12
10
-535.56376264367464
20
-760.02828830235626
30
1.9895196601282805e-12
10
-535.70700125062626
20
-760.35131933855996
30
1.9184653865522705e-12
10
-535.80023401293874
20
-760.4854397882284
30
1.9895196601282805e-12
10
-536.04200267073975
20
-760.72871199067527
30
1.9895196601282805e-12
10
-536.19521848720922
20
-760.83358129843896
30
1.9895196601282805e-12
10
-536.52143024414545
20
-760.97313552745732
30
1.9895196601282805e-12
10
-536.69231035156542
20
-761.01200176836653
30
1.9184653865522705e-12
10
-536.87091124380026
20
-761.01373479972824
30
1.9184653865522705e-12
10
-536.87495755755185
20
-761.01375388592578
30
2.1316282072803006e-12
10
-536.87898931947836
20
-761.01375302796487
30
2.1316282072803006e-12
0
LINE
5
137
100
AcDbEntity
8
0
100
AcDbLine
10
-536.87898931947825
20
-761.01375302796487
30
2.1316282072803006e-12
11
-543.17868169289011
21
-761.02976318229582
31
2.0605739337042905e-12
0
ELLIPSE
5
138
100
AcDbEntity
8
0
100
AcDbEllipse
10
-551.39329663443527
20
-763.48109861400212
30
1.9895196601282805e-12
11
-0.019758995986983635
21
-2.999936680113604
31
0.0
40
0.99999941652196245
41
0
42
6.2831853071795862
0
ELLIPSE
5
139
100
AcDbEntity
8
0
100
AcDbEllipse
10
-537.3824092579323
20
-708.48383889759634
30
1.9184653865522705e-12
11
-0.019758995986983635
21
-2.999936680113604
31
0.0
40
0.99999941652196245
41
0
42
6.2831853071795862
0
ELLIPSE
5
140
100
AcDbEntity
8
0
100
AcDbEllipse
10
-523.37627285617532
20
-677.48659271385475
30
1.7763568394002505e-12
11
-0.019758995986918843
21
-2.9999366801136755
31
0.0
40
0.99999941652196245
41
0
42
6.2831853071795862
0
ELLIPSE
5
141
100
AcDbEntity
8
0
100
AcDbEllipse
10
-537.38727309752767
20
-733.05400025712561
30
1.9184653865522705e-12
11
-0.019758995986918843
21
-2.9999366801136755
31
0.0
40
0.99999941652196245
41
0
42
6.2831853071795862
0
ELLIPSE
5
142
100
AcDbEntity
8
0
100
AcDbEllipse
10
-523.39329718234569
20
-763.48664120590365
30
2.0605739337042905e-12
11
-0.019758995986983635
21
-2.999936680113604
31
0.0
40
0.99999941652196245
41
0
42
6.2831853071795862
0
ELLIPSE
5
143
100
AcDbEntity
8
0
100
AcDbEllipse
10
-551.38240898397737
20
-708.48106760164569
30
1.8474111129762605e-12
11
-0.019758995986918843
21
-2.9999366801136755
31
0.0
40
0.99999941652196245
41
0
42
6.2831853071795862
0
ELLIPSE
5
144
100
AcDbEntity
8
0
100
AcDbEllipse
10
-537.37627258221994
20
-677.48382141790432
30
1.7763568394002505e-12
11
-0.019758995986918843
21
-2.9999366801136755
31
0.0
40
0.99999941652196245
41
0
42
6.2831853071795862
0
ELLIPSE
5
145
100
AcDbEntity
8
0
100
AcDbEllipse
10
-551.38727337252465
20
-733.05400204667922
30
1.9895196601282805e-12
11
-0.019758995986918843
21
-2.9999366801136755
31
0.0
40
0.99999941652196245
41
0
42
6.2831853071795862
0
ELLIPSE
5
146
100
AcDbEntity
8
0
100
AcDbEllipse
10
-523.3863686775087
20
-728.48662147076755
30
1.9184653865522705e-12
11
-0.019758995986918843
21
-2.9999366801136755
31
0.0
40
0.99999941652196245
41
0
42
6.2831853071795862
0
CIRCLE
5
147
100
AcDbEntity
8
0
100
AcDbCircle
10
550.85773528760649
20
-775.7308153680749
30
-2.142632676429804e-12
40
2.1526499999999791
210
4.3394416113195038e-19
220
1.3877787807814457e-17
230
-1
0
CIRCLE
5
148
100
AcDbEntity
8
0
100
AcDbCircle
10
514.32177819018034
20
-657.3105499931188
30
-1.8565332647297831e-12
40
2.1526499999999893
210
2.6329213774865299e-22
220
1.3877787807814457e-17
230
-1
0
CIRCLE
5
149
100
AcDbEntity
8
0
100
AcDbCircle
10
530.21929234874449
20
-770.97240328426574
30
-2.0712734647253213e-12
40
2.5
210
2.6329213774865299e-22
220
1.3877787807814457e-17
230
-1
0
CIRCLE
5
150
100
AcDbEntity
8
0
100
AcDbCircle
10
543.7254220924699
20
-673.17972610649554
30
-1.785935031267855e-12
40
2.4999999999999933
210
4.3394416113195038e-19
220
1.3877787807814457e-17
230
-1
0
CIRCLE
5
151
100
AcDbEntity
8
0
100
AcDbCircle
10
543.10570427310381
20
-750.3323503721308
30
-2.070751495289771e-12
40
1.786000999999996
210
-4.3341757685645312e-19
220
1.3877787807814454e-17
230
-1
0
CIRCLE
5
152
100
AcDbEntity
8
0
100
AcDbCircle
10
543.09375525271855
20
-690.00735155554651
30
-1.9278057757835828e-12
40
1.786000999999996
210
-4.3341757685645312e-19
220
1.3877787807814454e-17
230
-1
0
CIRCLE
5
153
100
AcDbEntity
8
0
100
AcDbCircle
10
533.58070445995895
20
-750.33423705956011
30
-2.2078891110073406e-12
40
6.3499999999999979
210
2.6329213774865299e-22
220
6.9388939039072284e-18
230
-1
0
CIRCLE
5
154
100
AcDbEntity
8
0
100
AcDbCircle
10
533.56875543957358
20
-690.0092382429757
30
-1.8521991543576029e-12
40
6.3499999999999908
210
2.6329213774865299e-22
220
6.9388939039072284e-18
230
-1
0
ENDSEC
0
SECTION
2
OBJECTS
0
DICTIONARY
5
C
100
AcDbDictionary
3
ACAD_GROUP
350
D
3
ACAD_MLINESTYLE
350
17
0
DICTIONARY
5
D
100
AcDbDictionary
0
DICTIONARY
5
1A
330
C
100
AcDbDictionary
0
DICTIONARY
5
17
100
AcDbDictionary
0
ENDSEC
0
EOF
