  0
SECTION
  2
HEADER
  9
$ANGBASE
  50
0.0
  9
$ANGDIR
  70
1
  9
$MEASUREMENT
  70
0
  0
ENDSEC
  0
SECTION
  2
TABLES
  0
TABLE
  2
LTYPE
  70
4
  0
LTYPE
  5
40F
  2
CONTINUOUS
  70
0
  3
Solid line
  72
65
  73
0
  40
0.0
  0
LTYPE
  5
410
  2
DASHDOT
 70
0
  3
Dash Dot ____ _ ____ _
 72
65
 73
4
 40
2.0
 49
1.25
 49
-0.25
 49
0.25
 49
-0.25
  0
LTYPE
  5
411
  2
DASHED
 70
0
  3
Dashed __ __ __ __ __
 72
65
 73
2
 40
0.75
 49
0.5
 49
-0.25
  0
LTYPE
  5
43B
  2
DOTTED
 70
0
  3
Dotted .  .  .  .
 72
65
 73
2
 40
0.2
 49
0.0
 49
-0.2
  0
ENDTAB
  0
TABLE
  2
STYLE
  70
4
  0
STYLE
  2
KICAD
  70
0
  40
0
  41
1
  42
1
  50
0
  71
0
  3
isocp.shx
  0
STYLE
  2
KICADB
  70
0
  40
0
  41
1
  42
1
  50
0
  71
0
  3
isocp.shx
  0
STYLE
  2
KICADI
  70
0
  40
0
  41
1
  42
1
  50
15
  71
0
  3
isocp.shx
  0
STYLE
  2
KICADBI
  70
0
  40
0
  41
1
  42
1
  50
15
  71
0
  3
isocp.shx
  0
ENDTAB
  0
TABLE
  2
LAYER
  70
1
  0
LAYER
  2
BLACK
  70
0
  62
7
  6
CONTINUOUS
  0
ENDTAB
  0
ENDSEC
  0
SECTION
  2
ENTITIES
0
LINE
8
BLACK
6
CONTINUOUS
10
6.67
20
-4.626
11
6.672
21
-2.976
0
LINE
8
BLACK
6
CONTINUOUS
10
6.82
20
-4.626
11
6.67
21
-4.626
0
LINE
8
BLACK
6
CONTINUOUS
10
6.822
20
-2.976
11
6.82
21
-4.626
0
LINE
8
BLACK
6
CONTINUOUS
10
6.672
20
-2.976
11
6.822
21
-2.976
0
LINE
8
BLACK
6
CONTINUOUS
10
5.885
20
-3.055
11
5.89
21
-3.055
0
LINE
8
BLACK
6
CONTINUOUS
10
5.885
20
-3.21
11
5.885
21
-3.055
0
LINE
8
BLACK
6
CONTINUOUS
10
6.38
20
-3.21
11
5.885
21
-3.21
0
LINE
8
BLACK
6
CONTINUOUS
10
6.38
20
-3.055
11
6.38
21
-3.21
0
LINE
8
BLACK
6
CONTINUOUS
10
5.89
20
-3.055
11
6.38
21
-3.055
0
LINE
8
BLACK
6
CONTINUOUS
10
8.765
20
-4.79
11
8.77
21
-2.69
0
LINE
8
BLACK
6
CONTINUOUS
10
4.915
20
-4.79
11
8.765
21
-4.79
0
LINE
8
BLACK
6
CONTINUOUS
10
4.915
20
-2.69
11
8.77
21
-2.69
0
LINE
8
BLACK
6
CONTINUOUS
10
4.915
20
-2.69
11
4.915
21
-4.79
0
LINE
8
BLACK
6
CONTINUOUS
10
5.02481
20
-4.9763
11
5.02481
21
-4.85819
0
LINE
8
BLACK
6
CONTINUOUS
10
5.02481
20
-4.85819
11
5.05294
21
-4.85819
0
LINE
8
BLACK
6
CONTINUOUS
10
5.05294
20
-4.85819
11
5.06981
21
-4.86382
0
LINE
8
BLACK
6
CONTINUOUS
10
5.06981
20
-4.86382
11
5.08106
21
-4.87507
0
LINE
8
BLACK
6
CONTINUOUS
10
5.08106
20
-4.87507
11
5.08668
21
-4.88632
0
LINE
8
BLACK
6
CONTINUOUS
10
5.08668
20
-4.88632
11
5.09231
21
-4.90881
0
LINE
8
BLACK
6
CONTINUOUS
10
5.09231
20
-4.90881
11
5.09231
21
-4.92569
0
LINE
8
BLACK
6
CONTINUOUS
10
5.09231
20
-4.92569
11
5.08668
21
-4.94818
0
LINE
8
BLACK
6
CONTINUOUS
10
5.08668
20
-4.94818
11
5.08106
21
-4.95943
0
LINE
8
BLACK
6
CONTINUOUS
10
5.08106
20
-4.95943
11
5.06981
21
-4.97068
0
LINE
8
BLACK
6
CONTINUOUS
10
5.06981
20
-4.97068
11
5.05294
21
-4.9763
0
LINE
8
BLACK
6
CONTINUOUS
10
5.05294
20
-4.9763
11
5.02481
21
-4.9763
0
LINE
8
BLACK
6
CONTINUOUS
10
5.14292
20
-4.9763
11
5.14292
21
-4.89756
0
LINE
8
BLACK
6
CONTINUOUS
10
5.14292
20
-4.92006
11
5.14855
21
-4.90881
0
LINE
8
BLACK
6
CONTINUOUS
10
5.14855
20
-4.90881
11
5.15417
21
-4.90319
0
LINE
8
BLACK
6
CONTINUOUS
10
5.15417
20
-4.90319
11
5.16542
21
-4.89756
0
LINE
8
BLACK
6
CONTINUOUS
10
5.16542
20
-4.89756
11
5.17667
21
-4.89756
0
LINE
8
BLACK
6
CONTINUOUS
10
5.21604
20
-4.9763
11
5.21604
21
-4.89756
0
LINE
8
BLACK
6
CONTINUOUS
10
5.21604
20
-4.85819
11
5.21042
21
-4.86382
0
LINE
8
BLACK
6
CONTINUOUS
10
5.21042
20
-4.86382
11
5.21604
21
-4.86944
0
LINE
8
BLACK
6
CONTINUOUS
10
5.21604
20
-4.86944
11
5.22166
21
-4.86382
0
LINE
8
BLACK
6
CONTINUOUS
10
5.22166
20
-4.86382
11
5.21604
21
-4.85819
0
LINE
8
BLACK
6
CONTINUOUS
10
5.21604
20
-4.85819
11
5.21604
21
-4.86944
0
LINE
8
BLACK
6
CONTINUOUS
10
5.28916
20
-4.9763
11
5.27791
21
-4.97068
0
LINE
8
BLACK
6
CONTINUOUS
10
5.27791
20
-4.97068
11
5.27228
21
-4.95943
0
LINE
8
BLACK
6
CONTINUOUS
10
5.27228
20
-4.95943
11
5.27228
21
-4.85819
0
LINE
8
BLACK
6
CONTINUOUS
10
5.35102
20
-4.9763
11
5.33977
21
-4.97068
0
LINE
8
BLACK
6
CONTINUOUS
10
5.33977
20
-4.97068
11
5.33415
21
-4.95943
0
LINE
8
BLACK
6
CONTINUOUS
10
5.33415
20
-4.95943
11
5.33415
21
-4.85819
0
LINE
8
BLACK
6
CONTINUOUS
10
5.48601
20
-4.9763
11
5.48601
21
-4.85819
0
LINE
8
BLACK
6
CONTINUOUS
10
5.48601
20
-4.85819
11
5.52538
21
-4.94256
0
LINE
8
BLACK
6
CONTINUOUS
10
5.52538
20
-4.94256
11
5.56475
21
-4.85819
0
LINE
8
BLACK
6
CONTINUOUS
10
5.56475
20
-4.85819
11
5.56475
21
-4.9763
0
LINE
8
BLACK
6
CONTINUOUS
10
5.67161
20
-4.9763
11
5.67161
21
-4.91444
0
LINE
8
BLACK
6
CONTINUOUS
10
5.67161
20
-4.91444
11
5.66598
21
-4.90319
0
LINE
8
BLACK
6
CONTINUOUS
10
5.66598
20
-4.90319
11
5.65474
21
-4.89756
0
LINE
8
BLACK
6
CONTINUOUS
10
5.65474
20
-4.89756
11
5.63224
21
-4.89756
0
LINE
8
BLACK
6
CONTINUOUS
10
5.63224
20
-4.89756
11
5.62099
21
-4.90319
0
LINE
8
BLACK
6
CONTINUOUS
10
5.67161
20
-4.97068
11
5.66036
21
-4.9763
0
LINE
8
BLACK
6
CONTINUOUS
10
5.66036
20
-4.9763
11
5.63224
21
-4.9763
0
LINE
8
BLACK
6
CONTINUOUS
10
5.63224
20
-4.9763
11
5.62099
21
-4.97068
0
LINE
8
BLACK
6
CONTINUOUS
10
5.62099
20
-4.97068
11
5.61537
21
-4.95943
0
LINE
8
BLACK
6
CONTINUOUS
10
5.61537
20
-4.95943
11
5.61537
21
-4.94818
0
LINE
8
BLACK
6
CONTINUOUS
10
5.61537
20
-4.94818
11
5.62099
21
-4.93693
0
LINE
8
BLACK
6
CONTINUOUS
10
5.62099
20
-4.93693
11
5.63224
21
-4.93131
0
LINE
8
BLACK
6
CONTINUOUS
10
5.63224
20
-4.93131
11
5.66036
21
-4.93131
0
LINE
8
BLACK
6
CONTINUOUS
10
5.66036
20
-4.93131
11
5.67161
21
-4.92569
0
LINE
8
BLACK
6
CONTINUOUS
10
5.72785
20
-4.89756
11
5.72785
21
-5.01567
0
LINE
8
BLACK
6
CONTINUOUS
10
5.72785
20
-4.90319
11
5.7391
21
-4.89756
0
LINE
8
BLACK
6
CONTINUOUS
10
5.7391
20
-4.89756
11
5.7616
21
-4.89756
0
LINE
8
BLACK
6
CONTINUOUS
10
5.7616
20
-4.89756
11
5.77285
21
-4.90319
0
LINE
8
BLACK
6
CONTINUOUS
10
5.77285
20
-4.90319
11
5.77847
21
-4.90881
0
LINE
8
BLACK
6
CONTINUOUS
10
5.77847
20
-4.90881
11
5.78409
21
-4.92006
0
LINE
8
BLACK
6
CONTINUOUS
10
5.78409
20
-4.92006
11
5.78409
21
-4.95381
0
LINE
8
BLACK
6
CONTINUOUS
10
5.78409
20
-4.95381
11
5.77847
21
-4.96506
0
LINE
8
BLACK
6
CONTINUOUS
10
5.77847
20
-4.96506
11
5.77285
21
-4.97068
0
LINE
8
BLACK
6
CONTINUOUS
10
5.77285
20
-4.97068
11
5.7616
21
-4.9763
0
LINE
8
BLACK
6
CONTINUOUS
10
5.7616
20
-4.9763
11
5.7391
21
-4.9763
0
LINE
8
BLACK
6
CONTINUOUS
10
5.7391
20
-4.9763
11
5.72785
21
-4.97068
0
LINE
8
BLACK
6
CONTINUOUS
10
5.83471
20
-4.96506
11
5.84034
21
-4.97068
0
LINE
8
BLACK
6
CONTINUOUS
10
5.84034
20
-4.97068
11
5.83471
21
-4.9763
0
LINE
8
BLACK
6
CONTINUOUS
10
5.83471
20
-4.9763
11
5.82909
21
-4.97068
0
LINE
8
BLACK
6
CONTINUOUS
10
5.82909
20
-4.97068
11
5.83471
21
-4.96506
0
LINE
8
BLACK
6
CONTINUOUS
10
5.83471
20
-4.96506
11
5.83471
21
-4.9763
0
LINE
8
BLACK
6
CONTINUOUS
10
5.83471
20
-4.90319
11
5.84034
21
-4.90881
0
LINE
8
BLACK
6
CONTINUOUS
10
5.84034
20
-4.90881
11
5.83471
21
-4.91444
0
LINE
8
BLACK
6
CONTINUOUS
10
5.83471
20
-4.91444
11
5.82909
21
-4.90881
0
LINE
8
BLACK
6
CONTINUOUS
10
5.82909
20
-4.90881
11
5.83471
21
-4.90319
0
LINE
8
BLACK
6
CONTINUOUS
10
5.83471
20
-4.90319
11
5.83471
21
-4.91444
  0
ENDSEC
  0
EOF
