M48
; DRILL file {KiCad (5.1.2-1)-1} date Tuesday, 09 July 2019 at 09:48:09 pm
; FORMAT={-:-/ absolute / inch / decimal}
; #@! TF.CreationDate,2019-07-09T21:48:09+10:00
; #@! TF.GenerationSoftware,Kicad,Pcbnew,(5.1.2-1)-1
; #@! TF.FileFunction,Plated,1,2,PTH
FMAT,2
INCH
T1C0.0315
T2C0.0394
%
G90
G05
T1
X2.8Y-3.8
X2.9Y-3.8
X2.8Y-2.75
X2.9Y-2.75
X2.8Y-3.5
X2.9Y-3.5
X2.8Y-3.65
X2.9Y-3.65
X2.8Y-3.05
X2.9Y-3.05
X2.8Y-2.6
X2.9Y-2.6
X2.8Y-2.9
X2.9Y-2.9
X2.8Y-3.2
X2.9Y-3.2
X2.8Y-3.95
X2.9Y-3.95
X2.8Y-4.1
X2.9Y-4.1
X2.8Y-3.35
X2.9Y-3.35
T2
X2.2835Y-2.45
X2.2835Y-2.55
X2.2835Y-2.65
X2.2835Y-2.75
X2.2835Y-2.85
X2.2835Y-2.95
X2.2835Y-3.05
X2.2835Y-3.15
X2.2835Y-3.25
X2.2835Y-3.35
X2.2835Y-3.45
X2.2835Y-3.55
X2.2835Y-3.65
X2.2835Y-3.75
X2.2835Y-3.85
X2.2835Y-3.95
X2.2835Y-4.05
X2.3835Y-2.45
X2.3835Y-2.55
X2.3835Y-2.65
X2.3835Y-2.75
X2.3835Y-2.85
X2.3835Y-2.95
X2.3835Y-3.05
X2.3835Y-3.15
X2.3835Y-3.25
X2.3835Y-3.35
X2.3835Y-3.45
X2.3835Y-3.55
X2.3835Y-3.65
X2.3835Y-3.75
X2.3835Y-3.85
X2.3835Y-3.95
X2.3835Y-4.05
X1.7Y-2.4
X1.7Y-2.5
X1.7Y-2.6
X1.7Y-2.7
X1.7Y-2.8
X1.7Y-2.9
X1.7Y-3.0
X1.7Y-3.1
X1.7Y-3.2
X1.7Y-3.3
X1.7Y-3.4
X1.7Y-3.5
X1.7Y-3.6
X1.7Y-3.7
X1.7Y-3.8
X1.7Y-3.9
X1.7Y-4.0
X1.7Y-4.1
X1.8Y-2.4
X1.8Y-2.5
X1.8Y-2.6
X1.8Y-2.7
X1.8Y-2.8
X1.8Y-2.9
X1.8Y-3.0
X1.8Y-3.1
X1.8Y-3.2
X1.8Y-3.3
X1.8Y-3.4
X1.8Y-3.5
X1.8Y-3.6
X1.8Y-3.7
X1.8Y-3.8
X1.8Y-3.9
X1.8Y-4.0
X1.8Y-4.1
T0
M30
