  0
SECTION
  2
HEADER
  9
$ANGBASE
  50
0.0
  9
$ANGDIR
  70
1
  9
$MEASUREMENT
  70
1
  0
ENDSEC
  0
SECTION
  2
TABLES
  0
TABLE
  2
LTYPE
  70
4
  0
LTYPE
  5
40F
  2
CONTINUOUS
  70
0
  3
Solid line
  72
65
  73
0
  40
0.0
  0
LTYPE
  5
410
  2
DASHDOT
 70
0
  3
Dash Dot ____ _ ____ _
 72
65
 73
4
 40
2.0
 49
1.25
 49
-0.25
 49
0.25
 49
-0.25
  0
LTYPE
  5
411
  2
DASHED
 70
0
  3
Dashed __ __ __ __ __
 72
65
 73
2
 40
0.75
 49
0.5
 49
-0.25
  0
LTYPE
  5
43B
  2
DOTTED
 70
0
  3
Dotted .  .  .  .
 72
65
 73
2
 40
0.2
 49
0.0
 49
-0.2
  0
ENDTAB
  0
TABLE
  2
STYLE
  70
4
  0
STYLE
  2
KICAD
  70
0
  40
0
  41
1
  42
1
  50
0
  71
0
  3
isocp.shx
  0
STYLE
  2
KICADB
  70
0
  40
0
  41
1
  42
1
  50
0
  71
0
  3
isocp.shx
  0
STYLE
  2
KICADI
  70
0
  40
0
  41
1
  42
1
  50
15
  71
0
  3
isocp.shx
  0
STYLE
  2
KICADBI
  70
0
  40
0
  41
1
  42
1
  50
15
  71
0
  3
isocp.shx
  0
ENDTAB
  0
TABLE
  2
LAYER
  70
1
  0
LAYER
  2
BLACK
  70
0
  62
7
  6
CONTINUOUS
  0
ENDTAB
  0
ENDSEC
  0
SECTION
  2
ENTITIES
0
LINE
8
BLACK
6
CONTINUOUS
10
181.102
20
-53.213
11
181.102
21
-44.069
0
LINE
8
BLACK
6
CONTINUOUS
10
168.275
20
-53.213
11
181.102
21
-53.213
0
LINE
8
BLACK
6
CONTINUOUS
10
168.275
20
-84.836
11
168.275
21
-53.213
0
LINE
8
BLACK
6
CONTINUOUS
10
138.176
20
-84.836
11
168.275
21
-84.836
0
LINE
8
BLACK
6
CONTINUOUS
10
138.176
20
-44.069
11
138.176
21
-84.836
0
LINE
8
BLACK
6
CONTINUOUS
10
181.102
20
-44.069
11
138.176
21
-44.069
0
LINE
8
BLACK
6
CONTINUOUS
10
145.142
20
-72.498
11
145.942
21
-73.298
0
LINE
8
BLACK
6
CONTINUOUS
10
145.942
20
-72.498
11
145.142
21
-73.298
0
LINE
8
BLACK
6
CONTINUOUS
10
152.762
20
-72.498
11
153.562
21
-73.298
0
LINE
8
BLACK
6
CONTINUOUS
10
153.562
20
-72.498
11
152.762
21
-73.298
0
LINE
8
BLACK
6
CONTINUOUS
10
140.57
20
-66.91
11
141.37
21
-67.71
0
LINE
8
BLACK
6
CONTINUOUS
10
141.37
20
-66.91
11
140.57
21
-67.71
0
LINE
8
BLACK
6
CONTINUOUS
10
140.57
20
-74.53
11
141.37
21
-75.33
0
LINE
8
BLACK
6
CONTINUOUS
10
141.37
20
-74.53
11
140.57
21
-75.33
0
CIRCLE
8
BLACK
10
154.813
20
-59.055
40
0.55
0
CIRCLE
8
BLACK
10
164.973
20
-59.055
40
0.55
0
CIRCLE
8
BLACK
10
149.352
20
-48.006
40
0.55
0
CIRCLE
8
BLACK
10
149.352
20
-58.166
40
0.55
0
LINE
8
BLACK
6
CONTINUOUS
10
154.178
20
-65.313
11
154.178
21
-66.513
0
LINE
8
BLACK
6
CONTINUOUS
10
153.578
20
-65.913
11
154.778
21
-65.913
0
LINE
8
BLACK
6
CONTINUOUS
10
156.718
20
-65.313
11
156.718
21
-66.513
0
LINE
8
BLACK
6
CONTINUOUS
10
156.118
20
-65.913
11
157.318
21
-65.913
0
LINE
8
BLACK
6
CONTINUOUS
10
141.097
20
-55.915
11
141.097
21
-57.115
0
LINE
8
BLACK
6
CONTINUOUS
10
140.497
20
-56.515
11
141.697
21
-56.515
0
LINE
8
BLACK
6
CONTINUOUS
10
143.637
20
-55.915
11
143.637
21
-57.115
0
LINE
8
BLACK
6
CONTINUOUS
10
143.037
20
-56.515
11
144.237
21
-56.515
0
LINE
8
BLACK
6
CONTINUOUS
10
166.751
20
-47.66
11
166.751
21
-48.86
0
LINE
8
BLACK
6
CONTINUOUS
10
166.151
20
-48.26
11
167.351
21
-48.26
0
LINE
8
BLACK
6
CONTINUOUS
10
169.291
20
-47.66
11
169.291
21
-48.86
0
LINE
8
BLACK
6
CONTINUOUS
10
168.691
20
-48.26
11
169.891
21
-48.26
0
LINE
8
BLACK
6
CONTINUOUS
10
154.559
20
-50.2
11
154.559
21
-51.4
0
LINE
8
BLACK
6
CONTINUOUS
10
153.959
20
-50.8
11
155.159
21
-50.8
0
LINE
8
BLACK
6
CONTINUOUS
10
157.099
20
-50.2
11
157.099
21
-51.4
0
LINE
8
BLACK
6
CONTINUOUS
10
156.499
20
-50.8
11
157.699
21
-50.8
0
LINE
8
BLACK
6
CONTINUOUS
10
159.639
20
-50.2
11
159.639
21
-51.4
0
LINE
8
BLACK
6
CONTINUOUS
10
159.039
20
-50.8
11
160.239
21
-50.8
0
LINE
8
BLACK
6
CONTINUOUS
10
162.179
20
-50.2
11
162.179
21
-51.4
0
LINE
8
BLACK
6
CONTINUOUS
10
161.579
20
-50.8
11
162.779
21
-50.8
0
LINE
8
BLACK
6
CONTINUOUS
10
160.782
20
-65.186
11
160.782
21
-66.386
0
LINE
8
BLACK
6
CONTINUOUS
10
160.182
20
-65.786
11
161.382
21
-65.786
0
LINE
8
BLACK
6
CONTINUOUS
10
163.322
20
-65.186
11
163.322
21
-66.386
0
LINE
8
BLACK
6
CONTINUOUS
10
162.722
20
-65.786
11
163.922
21
-65.786
0
LINE
8
BLACK
6
CONTINUOUS
10
165.862
20
-65.186
11
165.862
21
-66.386
0
LINE
8
BLACK
6
CONTINUOUS
10
165.262
20
-65.786
11
166.462
21
-65.786
0
LINE
8
BLACK
6
CONTINUOUS
10
157.734
20
-79.156
11
157.734
21
-80.356
0
LINE
8
BLACK
6
CONTINUOUS
10
157.134
20
-79.756
11
158.334
21
-79.756
0
LINE
8
BLACK
6
CONTINUOUS
10
160.274
20
-79.156
11
160.274
21
-80.356
0
LINE
8
BLACK
6
CONTINUOUS
10
159.674
20
-79.756
11
160.874
21
-79.756
0
LINE
8
BLACK
6
CONTINUOUS
10
162.814
20
-79.156
11
162.814
21
-80.356
0
LINE
8
BLACK
6
CONTINUOUS
10
162.214
20
-79.756
11
163.414
21
-79.756
0
LINE
8
BLACK
6
CONTINUOUS
10
165.354
20
-79.156
11
165.354
21
-80.356
0
LINE
8
BLACK
6
CONTINUOUS
10
164.754
20
-79.756
11
165.954
21
-79.756
0
LINE
8
BLACK
6
CONTINUOUS
10
149.225
20
-78.775
11
149.225
21
-79.975
0
LINE
8
BLACK
6
CONTINUOUS
10
148.625
20
-79.375
11
149.825
21
-79.375
0
LINE
8
BLACK
6
CONTINUOUS
10
151.765
20
-78.775
11
151.765
21
-79.975
0
LINE
8
BLACK
6
CONTINUOUS
10
151.165
20
-79.375
11
152.365
21
-79.375
0
LINE
8
BLACK
6
CONTINUOUS
10
146.431
20
-65.186
11
146.431
21
-66.386
0
LINE
8
BLACK
6
CONTINUOUS
10
145.831
20
-65.786
11
147.031
21
-65.786
0
LINE
8
BLACK
6
CONTINUOUS
10
148.971
20
-65.186
11
148.971
21
-66.386
0
LINE
8
BLACK
6
CONTINUOUS
10
148.371
20
-65.786
11
149.571
21
-65.786
0
LINE
8
BLACK
6
CONTINUOUS
10
140.98
20
-89.5531
11
140.98
21
-86.5531
0
LINE
8
BLACK
6
CONTINUOUS
10
140.98
20
-86.5531
11
141.695
21
-86.5531
0
LINE
8
BLACK
6
CONTINUOUS
10
141.695
20
-86.5531
11
142.123
21
-86.696
0
LINE
8
BLACK
6
CONTINUOUS
10
142.123
20
-86.696
11
142.409
21
-86.9817
0
LINE
8
BLACK
6
CONTINUOUS
10
142.409
20
-86.9817
11
142.552
21
-87.2674
0
LINE
8
BLACK
6
CONTINUOUS
10
142.552
20
-87.2674
11
142.695
21
-87.8389
0
LINE
8
BLACK
6
CONTINUOUS
10
142.695
20
-87.8389
11
142.695
21
-88.2674
0
LINE
8
BLACK
6
CONTINUOUS
10
142.695
20
-88.2674
11
142.552
21
-88.8389
0
LINE
8
BLACK
6
CONTINUOUS
10
142.552
20
-88.8389
11
142.409
21
-89.1246
0
LINE
8
BLACK
6
CONTINUOUS
10
142.409
20
-89.1246
11
142.123
21
-89.4103
0
LINE
8
BLACK
6
CONTINUOUS
10
142.123
20
-89.4103
11
141.695
21
-89.5531
0
LINE
8
BLACK
6
CONTINUOUS
10
141.695
20
-89.5531
11
140.98
21
-89.5531
0
LINE
8
BLACK
6
CONTINUOUS
10
143.98
20
-89.5531
11
143.98
21
-87.5531
0
LINE
8
BLACK
6
CONTINUOUS
10
143.98
20
-88.1246
11
144.123
21
-87.8389
0
LINE
8
BLACK
6
CONTINUOUS
10
144.123
20
-87.8389
11
144.266
21
-87.696
0
LINE
8
BLACK
6
CONTINUOUS
10
144.266
20
-87.696
11
144.552
21
-87.5531
0
LINE
8
BLACK
6
CONTINUOUS
10
144.552
20
-87.5531
11
144.837
21
-87.5531
0
LINE
8
BLACK
6
CONTINUOUS
10
145.837
20
-89.5531
11
145.837
21
-87.5531
0
LINE
8
BLACK
6
CONTINUOUS
10
145.837
20
-86.5531
11
145.695
21
-86.696
0
LINE
8
BLACK
6
CONTINUOUS
10
145.695
20
-86.696
11
145.837
21
-86.8389
0
LINE
8
BLACK
6
CONTINUOUS
10
145.837
20
-86.8389
11
145.98
21
-86.696
0
LINE
8
BLACK
6
CONTINUOUS
10
145.98
20
-86.696
11
145.837
21
-86.5531
0
LINE
8
BLACK
6
CONTINUOUS
10
145.837
20
-86.5531
11
145.837
21
-86.8389
0
LINE
8
BLACK
6
CONTINUOUS
10
147.695
20
-89.5531
11
147.409
21
-89.4103
0
LINE
8
BLACK
6
CONTINUOUS
10
147.409
20
-89.4103
11
147.266
21
-89.1246
0
LINE
8
BLACK
6
CONTINUOUS
10
147.266
20
-89.1246
11
147.266
21
-86.5531
0
LINE
8
BLACK
6
CONTINUOUS
10
149.266
20
-89.5531
11
148.98
21
-89.4103
0
LINE
8
BLACK
6
CONTINUOUS
10
148.98
20
-89.4103
11
148.837
21
-89.1246
0
LINE
8
BLACK
6
CONTINUOUS
10
148.837
20
-89.1246
11
148.837
21
-86.5531
0
LINE
8
BLACK
6
CONTINUOUS
10
152.695
20
-89.5531
11
152.695
21
-86.5531
0
LINE
8
BLACK
6
CONTINUOUS
10
152.695
20
-86.5531
11
153.695
21
-88.696
0
LINE
8
BLACK
6
CONTINUOUS
10
153.695
20
-88.696
11
154.695
21
-86.5531
0
LINE
8
BLACK
6
CONTINUOUS
10
154.695
20
-86.5531
11
154.695
21
-89.5531
0
LINE
8
BLACK
6
CONTINUOUS
10
157.409
20
-89.5531
11
157.409
21
-87.9817
0
LINE
8
BLACK
6
CONTINUOUS
10
157.409
20
-87.9817
11
157.266
21
-87.696
0
LINE
8
BLACK
6
CONTINUOUS
10
157.266
20
-87.696
11
156.98
21
-87.5531
0
LINE
8
BLACK
6
CONTINUOUS
10
156.98
20
-87.5531
11
156.409
21
-87.5531
0
LINE
8
BLACK
6
CONTINUOUS
10
156.409
20
-87.5531
11
156.123
21
-87.696
0
LINE
8
BLACK
6
CONTINUOUS
10
157.409
20
-89.4103
11
157.123
21
-89.5531
0
LINE
8
BLACK
6
CONTINUOUS
10
157.123
20
-89.5531
11
156.409
21
-89.5531
0
LINE
8
BLACK
6
CONTINUOUS
10
156.409
20
-89.5531
11
156.123
21
-89.4103
0
LINE
8
BLACK
6
CONTINUOUS
10
156.123
20
-89.4103
11
155.98
21
-89.1246
0
LINE
8
BLACK
6
CONTINUOUS
10
155.98
20
-89.1246
11
155.98
21
-88.8389
0
LINE
8
BLACK
6
CONTINUOUS
10
155.98
20
-88.8389
11
156.123
21
-88.5531
0
LINE
8
BLACK
6
CONTINUOUS
10
156.123
20
-88.5531
11
156.409
21
-88.4103
0
LINE
8
BLACK
6
CONTINUOUS
10
156.409
20
-88.4103
11
157.123
21
-88.4103
0
LINE
8
BLACK
6
CONTINUOUS
10
157.123
20
-88.4103
11
157.409
21
-88.2674
0
LINE
8
BLACK
6
CONTINUOUS
10
158.837
20
-87.5531
11
158.837
21
-90.5531
0
LINE
8
BLACK
6
CONTINUOUS
10
158.837
20
-87.696
11
159.123
21
-87.5531
0
LINE
8
BLACK
6
CONTINUOUS
10
159.123
20
-87.5531
11
159.695
21
-87.5531
0
LINE
8
BLACK
6
CONTINUOUS
10
159.695
20
-87.5531
11
159.98
21
-87.696
0
LINE
8
BLACK
6
CONTINUOUS
10
159.98
20
-87.696
11
160.123
21
-87.8389
0
LINE
8
BLACK
6
CONTINUOUS
10
160.123
20
-87.8389
11
160.266
21
-88.1246
0
LINE
8
BLACK
6
CONTINUOUS
10
160.266
20
-88.1246
11
160.266
21
-88.9817
0
LINE
8
BLACK
6
CONTINUOUS
10
160.266
20
-88.9817
11
160.123
21
-89.2674
0
LINE
8
BLACK
6
CONTINUOUS
10
160.123
20
-89.2674
11
159.98
21
-89.4103
0
LINE
8
BLACK
6
CONTINUOUS
10
159.98
20
-89.4103
11
159.695
21
-89.5531
0
LINE
8
BLACK
6
CONTINUOUS
10
159.695
20
-89.5531
11
159.123
21
-89.5531
0
LINE
8
BLACK
6
CONTINUOUS
10
159.123
20
-89.5531
11
158.837
21
-89.4103
0
LINE
8
BLACK
6
CONTINUOUS
10
161.552
20
-89.2674
11
161.695
21
-89.4103
0
LINE
8
BLACK
6
CONTINUOUS
10
161.695
20
-89.4103
11
161.552
21
-89.5531
0
LINE
8
BLACK
6
CONTINUOUS
10
161.552
20
-89.5531
11
161.409
21
-89.4103
0
LINE
8
BLACK
6
CONTINUOUS
10
161.409
20
-89.4103
11
161.552
21
-89.2674
0
LINE
8
BLACK
6
CONTINUOUS
10
161.552
20
-89.2674
11
161.552
21
-89.5531
0
LINE
8
BLACK
6
CONTINUOUS
10
161.552
20
-87.696
11
161.695
21
-87.8389
0
LINE
8
BLACK
6
CONTINUOUS
10
161.695
20
-87.8389
11
161.552
21
-87.9817
0
LINE
8
BLACK
6
CONTINUOUS
10
161.552
20
-87.9817
11
161.409
21
-87.8389
0
LINE
8
BLACK
6
CONTINUOUS
10
161.409
20
-87.8389
11
161.552
21
-87.696
0
LINE
8
BLACK
6
CONTINUOUS
10
161.552
20
-87.696
11
161.552
21
-87.9817
0
LINE
8
BLACK
6
CONTINUOUS
10
137.316
20
-94.096
11
138.116
21
-94.896
0
LINE
8
BLACK
6
CONTINUOUS
10
138.116
20
-94.096
11
137.316
21
-94.896
0
LINE
8
BLACK
6
CONTINUOUS
10
141.552
20
-92.8531
11
141.837
21
-92.8531
0
LINE
8
BLACK
6
CONTINUOUS
10
141.837
20
-92.8531
11
142.123
21
-92.996
0
LINE
8
BLACK
6
CONTINUOUS
10
142.123
20
-92.996
11
142.266
21
-93.1389
0
LINE
8
BLACK
6
CONTINUOUS
10
142.266
20
-93.1389
11
142.409
21
-93.4246
0
LINE
8
BLACK
6
CONTINUOUS
10
142.409
20
-93.4246
11
142.552
21
-93.996
0
LINE
8
BLACK
6
CONTINUOUS
10
142.552
20
-93.996
11
142.552
21
-94.7103
0
LINE
8
BLACK
6
CONTINUOUS
10
142.552
20
-94.7103
11
142.409
21
-95.2817
0
LINE
8
BLACK
6
CONTINUOUS
10
142.409
20
-95.2817
11
142.266
21
-95.5674
0
LINE
8
BLACK
6
CONTINUOUS
10
142.266
20
-95.5674
11
142.123
21
-95.7103
0
LINE
8
BLACK
6
CONTINUOUS
10
142.123
20
-95.7103
11
141.837
21
-95.8531
0
LINE
8
BLACK
6
CONTINUOUS
10
141.837
20
-95.8531
11
141.552
21
-95.8531
0
LINE
8
BLACK
6
CONTINUOUS
10
141.552
20
-95.8531
11
141.266
21
-95.7103
0
LINE
8
BLACK
6
CONTINUOUS
10
141.266
20
-95.7103
11
141.123
21
-95.5674
0
LINE
8
BLACK
6
CONTINUOUS
10
141.123
20
-95.5674
11
140.98
21
-95.2817
0
LINE
8
BLACK
6
CONTINUOUS
10
140.98
20
-95.2817
11
140.837
21
-94.7103
0
LINE
8
BLACK
6
CONTINUOUS
10
140.837
20
-94.7103
11
140.837
21
-93.996
0
LINE
8
BLACK
6
CONTINUOUS
10
140.837
20
-93.996
11
140.98
21
-93.4246
0
LINE
8
BLACK
6
CONTINUOUS
10
140.98
20
-93.4246
11
141.123
21
-93.1389
0
LINE
8
BLACK
6
CONTINUOUS
10
141.123
20
-93.1389
11
141.266
21
-92.996
0
LINE
8
BLACK
6
CONTINUOUS
10
141.266
20
-92.996
11
141.552
21
-92.8531
0
LINE
8
BLACK
6
CONTINUOUS
10
143.837
20
-95.5674
11
143.98
21
-95.7103
0
LINE
8
BLACK
6
CONTINUOUS
10
143.98
20
-95.7103
11
143.837
21
-95.8531
0
LINE
8
BLACK
6
CONTINUOUS
10
143.837
20
-95.8531
11
143.695
21
-95.7103
0
LINE
8
BLACK
6
CONTINUOUS
10
143.695
20
-95.7103
11
143.837
21
-95.5674
0
LINE
8
BLACK
6
CONTINUOUS
10
143.837
20
-95.5674
11
143.837
21
-95.8531
0
LINE
8
BLACK
6
CONTINUOUS
10
145.695
20
-94.1389
11
145.409
21
-93.996
0
LINE
8
BLACK
6
CONTINUOUS
10
145.409
20
-93.996
11
145.266
21
-93.8531
0
LINE
8
BLACK
6
CONTINUOUS
10
145.266
20
-93.8531
11
145.123
21
-93.5674
0
LINE
8
BLACK
6
CONTINUOUS
10
145.123
20
-93.5674
11
145.123
21
-93.4246
0
LINE
8
BLACK
6
CONTINUOUS
10
145.123
20
-93.4246
11
145.266
21
-93.1389
0
LINE
8
BLACK
6
CONTINUOUS
10
145.266
20
-93.1389
11
145.409
21
-92.996
0
LINE
8
BLACK
6
CONTINUOUS
10
145.409
20
-92.996
11
145.695
21
-92.8531
0
LINE
8
BLACK
6
CONTINUOUS
10
145.695
20
-92.8531
11
146.266
21
-92.8531
0
LINE
8
BLACK
6
CONTINUOUS
10
146.266
20
-92.8531
11
146.552
21
-92.996
0
LINE
8
BLACK
6
CONTINUOUS
10
146.552
20
-92.996
11
146.695
21
-93.1389
0
LINE
8
BLACK
6
CONTINUOUS
10
146.695
20
-93.1389
11
146.837
21
-93.4246
0
LINE
8
BLACK
6
CONTINUOUS
10
146.837
20
-93.4246
11
146.837
21
-93.5674
0
LINE
8
BLACK
6
CONTINUOUS
10
146.837
20
-93.5674
11
146.695
21
-93.8531
0
LINE
8
BLACK
6
CONTINUOUS
10
146.695
20
-93.8531
11
146.552
21
-93.996
0
LINE
8
BLACK
6
CONTINUOUS
10
146.552
20
-93.996
11
146.266
21
-94.1389
0
LINE
8
BLACK
6
CONTINUOUS
10
146.266
20
-94.1389
11
145.695
21
-94.1389
0
LINE
8
BLACK
6
CONTINUOUS
10
145.695
20
-94.1389
11
145.409
21
-94.2817
0
LINE
8
BLACK
6
CONTINUOUS
10
145.409
20
-94.2817
11
145.266
21
-94.4246
0
LINE
8
BLACK
6
CONTINUOUS
10
145.266
20
-94.4246
11
145.123
21
-94.7103
0
LINE
8
BLACK
6
CONTINUOUS
10
145.123
20
-94.7103
11
145.123
21
-95.2817
0
LINE
8
BLACK
6
CONTINUOUS
10
145.123
20
-95.2817
11
145.266
21
-95.5674
0
LINE
8
BLACK
6
CONTINUOUS
10
145.266
20
-95.5674
11
145.409
21
-95.7103
0
LINE
8
BLACK
6
CONTINUOUS
10
145.409
20
-95.7103
11
145.695
21
-95.8531
0
LINE
8
BLACK
6
CONTINUOUS
10
145.695
20
-95.8531
11
146.266
21
-95.8531
0
LINE
8
BLACK
6
CONTINUOUS
10
146.266
20
-95.8531
11
146.552
21
-95.7103
0
LINE
8
BLACK
6
CONTINUOUS
10
146.552
20
-95.7103
11
146.695
21
-95.5674
0
LINE
8
BLACK
6
CONTINUOUS
10
146.695
20
-95.5674
11
146.837
21
-95.2817
0
LINE
8
BLACK
6
CONTINUOUS
10
146.837
20
-95.2817
11
146.837
21
-94.7103
0
LINE
8
BLACK
6
CONTINUOUS
10
146.837
20
-94.7103
11
146.695
21
-94.4246
0
LINE
8
BLACK
6
CONTINUOUS
10
146.695
20
-94.4246
11
146.552
21
-94.2817
0
LINE
8
BLACK
6
CONTINUOUS
10
146.552
20
-94.2817
11
146.266
21
-94.1389
0
LINE
8
BLACK
6
CONTINUOUS
10
148.695
20
-92.8531
11
148.98
21
-92.8531
0
LINE
8
BLACK
6
CONTINUOUS
10
148.98
20
-92.8531
11
149.266
21
-92.996
0
LINE
8
BLACK
6
CONTINUOUS
10
149.266
20
-92.996
11
149.409
21
-93.1389
0
LINE
8
BLACK
6
CONTINUOUS
10
149.409
20
-93.1389
11
149.552
21
-93.4246
0
LINE
8
BLACK
6
CONTINUOUS
10
149.552
20
-93.4246
11
149.695
21
-93.996
0
LINE
8
BLACK
6
CONTINUOUS
10
149.695
20
-93.996
11
149.695
21
-94.7103
0
LINE
8
BLACK
6
CONTINUOUS
10
149.695
20
-94.7103
11
149.552
21
-95.2817
0
LINE
8
BLACK
6
CONTINUOUS
10
149.552
20
-95.2817
11
149.409
21
-95.5674
0
LINE
8
BLACK
6
CONTINUOUS
10
149.409
20
-95.5674
11
149.266
21
-95.7103
0
LINE
8
BLACK
6
CONTINUOUS
10
149.266
20
-95.7103
11
148.98
21
-95.8531
0
LINE
8
BLACK
6
CONTINUOUS
10
148.98
20
-95.8531
11
148.695
21
-95.8531
0
LINE
8
BLACK
6
CONTINUOUS
10
148.695
20
-95.8531
11
148.409
21
-95.7103
0
LINE
8
BLACK
6
CONTINUOUS
10
148.409
20
-95.7103
11
148.266
21
-95.5674
0
LINE
8
BLACK
6
CONTINUOUS
10
148.266
20
-95.5674
11
148.123
21
-95.2817
0
LINE
8
BLACK
6
CONTINUOUS
10
148.123
20
-95.2817
11
147.98
21
-94.7103
0
LINE
8
BLACK
6
CONTINUOUS
10
147.98
20
-94.7103
11
147.98
21
-93.996
0
LINE
8
BLACK
6
CONTINUOUS
10
147.98
20
-93.996
11
148.123
21
-93.4246
0
LINE
8
BLACK
6
CONTINUOUS
10
148.123
20
-93.4246
11
148.266
21
-93.1389
0
LINE
8
BLACK
6
CONTINUOUS
10
148.266
20
-93.1389
11
148.409
21
-92.996
0
LINE
8
BLACK
6
CONTINUOUS
10
148.409
20
-92.996
11
148.695
21
-92.8531
0
LINE
8
BLACK
6
CONTINUOUS
10
150.98
20
-95.8531
11
150.98
21
-93.8531
0
LINE
8
BLACK
6
CONTINUOUS
10
150.98
20
-94.1389
11
151.123
21
-93.996
0
LINE
8
BLACK
6
CONTINUOUS
10
151.123
20
-93.996
11
151.409
21
-93.8531
0
LINE
8
BLACK
6
CONTINUOUS
10
151.409
20
-93.8531
11
151.837
21
-93.8531
0
LINE
8
BLACK
6
CONTINUOUS
10
151.837
20
-93.8531
11
152.123
21
-93.996
0
LINE
8
BLACK
6
CONTINUOUS
10
152.123
20
-93.996
11
152.266
21
-94.2817
0
LINE
8
BLACK
6
CONTINUOUS
10
152.266
20
-94.2817
11
152.266
21
-95.8531
0
LINE
8
BLACK
6
CONTINUOUS
10
152.266
20
-94.2817
11
152.409
21
-93.996
0
LINE
8
BLACK
6
CONTINUOUS
10
152.409
20
-93.996
11
152.695
21
-93.8531
0
LINE
8
BLACK
6
CONTINUOUS
10
152.695
20
-93.8531
11
153.123
21
-93.8531
0
LINE
8
BLACK
6
CONTINUOUS
10
153.123
20
-93.8531
11
153.409
21
-93.996
0
LINE
8
BLACK
6
CONTINUOUS
10
153.409
20
-93.996
11
153.552
21
-94.2817
0
LINE
8
BLACK
6
CONTINUOUS
10
153.552
20
-94.2817
11
153.552
21
-95.8531
0
LINE
8
BLACK
6
CONTINUOUS
10
154.98
20
-95.8531
11
154.98
21
-93.8531
0
LINE
8
BLACK
6
CONTINUOUS
10
154.98
20
-94.1389
11
155.123
21
-93.996
0
LINE
8
BLACK
6
CONTINUOUS
10
155.123
20
-93.996
11
155.409
21
-93.8531
0
LINE
8
BLACK
6
CONTINUOUS
10
155.409
20
-93.8531
11
155.837
21
-93.8531
0
LINE
8
BLACK
6
CONTINUOUS
10
155.837
20
-93.8531
11
156.123
21
-93.996
0
LINE
8
BLACK
6
CONTINUOUS
10
156.123
20
-93.996
11
156.266
21
-94.2817
0
LINE
8
BLACK
6
CONTINUOUS
10
156.266
20
-94.2817
11
156.266
21
-95.8531
0
LINE
8
BLACK
6
CONTINUOUS
10
156.266
20
-94.2817
11
156.409
21
-93.996
0
LINE
8
BLACK
6
CONTINUOUS
10
156.409
20
-93.996
11
156.695
21
-93.8531
0
LINE
8
BLACK
6
CONTINUOUS
10
156.695
20
-93.8531
11
157.123
21
-93.8531
0
LINE
8
BLACK
6
CONTINUOUS
10
157.123
20
-93.8531
11
157.409
21
-93.996
0
LINE
8
BLACK
6
CONTINUOUS
10
157.409
20
-93.996
11
157.552
21
-94.2817
0
LINE
8
BLACK
6
CONTINUOUS
10
157.552
20
-94.2817
11
157.552
21
-95.8531
0
LINE
8
BLACK
6
CONTINUOUS
10
163.409
20
-92.7103
11
160.837
21
-96.5674
0
LINE
8
BLACK
6
CONTINUOUS
10
167.266
20
-92.8531
11
167.552
21
-92.8531
0
LINE
8
BLACK
6
CONTINUOUS
10
167.552
20
-92.8531
11
167.837
21
-92.996
0
LINE
8
BLACK
6
CONTINUOUS
10
167.837
20
-92.996
11
167.98
21
-93.1389
0
LINE
8
BLACK
6
CONTINUOUS
10
167.98
20
-93.1389
11
168.123
21
-93.4246
0
LINE
8
BLACK
6
CONTINUOUS
10
168.123
20
-93.4246
11
168.266
21
-93.996
0
LINE
8
BLACK
6
CONTINUOUS
10
168.266
20
-93.996
11
168.266
21
-94.7103
0
LINE
8
BLACK
6
CONTINUOUS
10
168.266
20
-94.7103
11
168.123
21
-95.2817
0
LINE
8
BLACK
6
CONTINUOUS
10
168.123
20
-95.2817
11
167.98
21
-95.5674
0
LINE
8
BLACK
6
CONTINUOUS
10
167.98
20
-95.5674
11
167.837
21
-95.7103
0
LINE
8
BLACK
6
CONTINUOUS
10
167.837
20
-95.7103
11
167.552
21
-95.8531
0
LINE
8
BLACK
6
CONTINUOUS
10
167.552
20
-95.8531
11
167.266
21
-95.8531
0
LINE
8
BLACK
6
CONTINUOUS
10
167.266
20
-95.8531
11
166.98
21
-95.7103
0
LINE
8
BLACK
6
CONTINUOUS
10
166.98
20
-95.7103
11
166.837
21
-95.5674
0
LINE
8
BLACK
6
CONTINUOUS
10
166.837
20
-95.5674
11
166.695
21
-95.2817
0
LINE
8
BLACK
6
CONTINUOUS
10
166.695
20
-95.2817
11
166.552
21
-94.7103
0
LINE
8
BLACK
6
CONTINUOUS
10
166.552
20
-94.7103
11
166.552
21
-93.996
0
LINE
8
BLACK
6
CONTINUOUS
10
166.552
20
-93.996
11
166.695
21
-93.4246
0
LINE
8
BLACK
6
CONTINUOUS
10
166.695
20
-93.4246
11
166.837
21
-93.1389
0
LINE
8
BLACK
6
CONTINUOUS
10
166.837
20
-93.1389
11
166.98
21
-92.996
0
LINE
8
BLACK
6
CONTINUOUS
10
166.98
20
-92.996
11
167.266
21
-92.8531
0
LINE
8
BLACK
6
CONTINUOUS
10
169.552
20
-95.5674
11
169.695
21
-95.7103
0
LINE
8
BLACK
6
CONTINUOUS
10
169.695
20
-95.7103
11
169.552
21
-95.8531
0
LINE
8
BLACK
6
CONTINUOUS
10
169.552
20
-95.8531
11
169.409
21
-95.7103
0
LINE
8
BLACK
6
CONTINUOUS
10
169.409
20
-95.7103
11
169.552
21
-95.5674
0
LINE
8
BLACK
6
CONTINUOUS
10
169.552
20
-95.5674
11
169.552
21
-95.8531
0
LINE
8
BLACK
6
CONTINUOUS
10
171.552
20
-92.8531
11
171.837
21
-92.8531
0
LINE
8
BLACK
6
CONTINUOUS
10
171.837
20
-92.8531
11
172.123
21
-92.996
0
LINE
8
BLACK
6
CONTINUOUS
10
172.123
20
-92.996
11
172.266
21
-93.1389
0
LINE
8
BLACK
6
CONTINUOUS
10
172.266
20
-93.1389
11
172.409
21
-93.4246
0
LINE
8
BLACK
6
CONTINUOUS
10
172.409
20
-93.4246
11
172.552
21
-93.996
0
LINE
8
BLACK
6
CONTINUOUS
10
172.552
20
-93.996
11
172.552
21
-94.7103
0
LINE
8
BLACK
6
CONTINUOUS
10
172.552
20
-94.7103
11
172.409
21
-95.2817
0
LINE
8
BLACK
6
CONTINUOUS
10
172.409
20
-95.2817
11
172.266
21
-95.5674
0
LINE
8
BLACK
6
CONTINUOUS
10
172.266
20
-95.5674
11
172.123
21
-95.7103
0
LINE
8
BLACK
6
CONTINUOUS
10
172.123
20
-95.7103
11
171.837
21
-95.8531
0
LINE
8
BLACK
6
CONTINUOUS
10
171.837
20
-95.8531
11
171.552
21
-95.8531
0
LINE
8
BLACK
6
CONTINUOUS
10
171.552
20
-95.8531
11
171.266
21
-95.7103
0
LINE
8
BLACK
6
CONTINUOUS
10
171.266
20
-95.7103
11
171.123
21
-95.5674
0
LINE
8
BLACK
6
CONTINUOUS
10
171.123
20
-95.5674
11
170.98
21
-95.2817
0
LINE
8
BLACK
6
CONTINUOUS
10
170.98
20
-95.2817
11
170.837
21
-94.7103
0
LINE
8
BLACK
6
CONTINUOUS
10
170.837
20
-94.7103
11
170.837
21
-93.996
0
LINE
8
BLACK
6
CONTINUOUS
10
170.837
20
-93.996
11
170.98
21
-93.4246
0
LINE
8
BLACK
6
CONTINUOUS
10
170.98
20
-93.4246
11
171.123
21
-93.1389
0
LINE
8
BLACK
6
CONTINUOUS
10
171.123
20
-93.1389
11
171.266
21
-92.996
0
LINE
8
BLACK
6
CONTINUOUS
10
171.266
20
-92.996
11
171.552
21
-92.8531
0
LINE
8
BLACK
6
CONTINUOUS
10
173.552
20
-92.8531
11
175.409
21
-92.8531
0
LINE
8
BLACK
6
CONTINUOUS
10
175.409
20
-92.8531
11
174.409
21
-93.996
0
LINE
8
BLACK
6
CONTINUOUS
10
174.409
20
-93.996
11
174.837
21
-93.996
0
LINE
8
BLACK
6
CONTINUOUS
10
174.837
20
-93.996
11
175.123
21
-94.1389
0
LINE
8
BLACK
6
CONTINUOUS
10
175.123
20
-94.1389
11
175.266
21
-94.2817
0
LINE
8
BLACK
6
CONTINUOUS
10
175.266
20
-94.2817
11
175.409
21
-94.5674
0
LINE
8
BLACK
6
CONTINUOUS
10
175.409
20
-94.5674
11
175.409
21
-95.2817
0
LINE
8
BLACK
6
CONTINUOUS
10
175.409
20
-95.2817
11
175.266
21
-95.5674
0
LINE
8
BLACK
6
CONTINUOUS
10
175.266
20
-95.5674
11
175.123
21
-95.7103
0
LINE
8
BLACK
6
CONTINUOUS
10
175.123
20
-95.7103
11
174.837
21
-95.8531
0
LINE
8
BLACK
6
CONTINUOUS
10
174.837
20
-95.8531
11
173.98
21
-95.8531
0
LINE
8
BLACK
6
CONTINUOUS
10
173.98
20
-95.8531
11
173.695
21
-95.7103
0
LINE
8
BLACK
6
CONTINUOUS
10
173.695
20
-95.7103
11
173.552
21
-95.5674
0
LINE
8
BLACK
6
CONTINUOUS
10
178.266
20
-95.8531
11
176.552
21
-95.8531
0
LINE
8
BLACK
6
CONTINUOUS
10
177.409
20
-95.8531
11
177.409
21
-92.8531
0
LINE
8
BLACK
6
CONTINUOUS
10
177.409
20
-92.8531
11
177.123
21
-93.2817
0
LINE
8
BLACK
6
CONTINUOUS
10
177.123
20
-93.2817
11
176.837
21
-93.5674
0
LINE
8
BLACK
6
CONTINUOUS
10
176.837
20
-93.5674
11
176.552
21
-93.7103
0
LINE
8
BLACK
6
CONTINUOUS
10
179.409
20
-92.8531
11
179.409
21
-93.4246
0
LINE
8
BLACK
6
CONTINUOUS
10
180.552
20
-92.8531
11
180.552
21
-93.4246
0
LINE
8
BLACK
6
CONTINUOUS
10
184.98
20
-96.996
11
184.837
21
-96.8531
0
LINE
8
BLACK
6
CONTINUOUS
10
184.837
20
-96.8531
11
184.552
21
-96.4246
0
LINE
8
BLACK
6
CONTINUOUS
10
184.552
20
-96.4246
11
184.409
21
-96.1389
0
LINE
8
BLACK
6
CONTINUOUS
10
184.409
20
-96.1389
11
184.266
21
-95.7103
0
LINE
8
BLACK
6
CONTINUOUS
10
184.266
20
-95.7103
11
184.123
21
-94.996
0
LINE
8
BLACK
6
CONTINUOUS
10
184.123
20
-94.996
11
184.123
21
-94.4246
0
LINE
8
BLACK
6
CONTINUOUS
10
184.123
20
-94.4246
11
184.266
21
-93.7103
0
LINE
8
BLACK
6
CONTINUOUS
10
184.266
20
-93.7103
11
184.409
21
-93.2817
0
LINE
8
BLACK
6
CONTINUOUS
10
184.409
20
-93.2817
11
184.552
21
-92.996
0
LINE
8
BLACK
6
CONTINUOUS
10
184.552
20
-92.996
11
184.837
21
-92.5674
0
LINE
8
BLACK
6
CONTINUOUS
10
184.837
20
-92.5674
11
184.98
21
-92.4246
0
LINE
8
BLACK
6
CONTINUOUS
10
187.409
20
-93.8531
11
187.409
21
-95.8531
0
LINE
8
BLACK
6
CONTINUOUS
10
186.695
20
-92.7103
11
185.98
21
-94.8531
0
LINE
8
BLACK
6
CONTINUOUS
10
185.98
20
-94.8531
11
187.837
21
-94.8531
0
LINE
8
BLACK
6
CONTINUOUS
10
191.266
20
-95.8531
11
191.266
21
-92.8531
0
LINE
8
BLACK
6
CONTINUOUS
10
192.552
20
-95.8531
11
192.552
21
-94.2817
0
LINE
8
BLACK
6
CONTINUOUS
10
192.552
20
-94.2817
11
192.409
21
-93.996
0
LINE
8
BLACK
6
CONTINUOUS
10
192.409
20
-93.996
11
192.123
21
-93.8531
0
LINE
8
BLACK
6
CONTINUOUS
10
192.123
20
-93.8531
11
191.695
21
-93.8531
0
LINE
8
BLACK
6
CONTINUOUS
10
191.695
20
-93.8531
11
191.409
21
-93.996
0
LINE
8
BLACK
6
CONTINUOUS
10
191.409
20
-93.996
11
191.266
21
-94.1389
0
LINE
8
BLACK
6
CONTINUOUS
10
194.409
20
-95.8531
11
194.123
21
-95.7103
0
LINE
8
BLACK
6
CONTINUOUS
10
194.123
20
-95.7103
11
193.98
21
-95.5674
0
LINE
8
BLACK
6
CONTINUOUS
10
193.98
20
-95.5674
11
193.837
21
-95.2817
0
LINE
8
BLACK
6
CONTINUOUS
10
193.837
20
-95.2817
11
193.837
21
-94.4246
0
LINE
8
BLACK
6
CONTINUOUS
10
193.837
20
-94.4246
11
193.98
21
-94.1389
0
LINE
8
BLACK
6
CONTINUOUS
10
193.98
20
-94.1389
11
194.123
21
-93.996
0
LINE
8
BLACK
6
CONTINUOUS
10
194.123
20
-93.996
11
194.409
21
-93.8531
0
LINE
8
BLACK
6
CONTINUOUS
10
194.409
20
-93.8531
11
194.837
21
-93.8531
0
LINE
8
BLACK
6
CONTINUOUS
10
194.837
20
-93.8531
11
195.123
21
-93.996
0
LINE
8
BLACK
6
CONTINUOUS
10
195.123
20
-93.996
11
195.266
21
-94.1389
0
LINE
8
BLACK
6
CONTINUOUS
10
195.266
20
-94.1389
11
195.409
21
-94.4246
0
LINE
8
BLACK
6
CONTINUOUS
10
195.409
20
-94.4246
11
195.409
21
-95.2817
0
LINE
8
BLACK
6
CONTINUOUS
10
195.409
20
-95.2817
11
195.266
21
-95.5674
0
LINE
8
BLACK
6
CONTINUOUS
10
195.266
20
-95.5674
11
195.123
21
-95.7103
0
LINE
8
BLACK
6
CONTINUOUS
10
195.123
20
-95.7103
11
194.837
21
-95.8531
0
LINE
8
BLACK
6
CONTINUOUS
10
194.837
20
-95.8531
11
194.409
21
-95.8531
0
LINE
8
BLACK
6
CONTINUOUS
10
197.123
20
-95.8531
11
196.837
21
-95.7103
0
LINE
8
BLACK
6
CONTINUOUS
10
196.837
20
-95.7103
11
196.695
21
-95.4246
0
LINE
8
BLACK
6
CONTINUOUS
10
196.695
20
-95.4246
11
196.695
21
-92.8531
0
LINE
8
BLACK
6
CONTINUOUS
10
199.409
20
-95.7103
11
199.123
21
-95.8531
0
LINE
8
BLACK
6
CONTINUOUS
10
199.123
20
-95.8531
11
198.552
21
-95.8531
0
LINE
8
BLACK
6
CONTINUOUS
10
198.552
20
-95.8531
11
198.266
21
-95.7103
0
LINE
8
BLACK
6
CONTINUOUS
10
198.266
20
-95.7103
11
198.123
21
-95.4246
0
LINE
8
BLACK
6
CONTINUOUS
10
198.123
20
-95.4246
11
198.123
21
-94.2817
0
LINE
8
BLACK
6
CONTINUOUS
10
198.123
20
-94.2817
11
198.266
21
-93.996
0
LINE
8
BLACK
6
CONTINUOUS
10
198.266
20
-93.996
11
198.552
21
-93.8531
0
LINE
8
BLACK
6
CONTINUOUS
10
198.552
20
-93.8531
11
199.123
21
-93.8531
0
LINE
8
BLACK
6
CONTINUOUS
10
199.123
20
-93.8531
11
199.409
21
-93.996
0
LINE
8
BLACK
6
CONTINUOUS
10
199.409
20
-93.996
11
199.552
21
-94.2817
0
LINE
8
BLACK
6
CONTINUOUS
10
199.552
20
-94.2817
11
199.552
21
-94.5674
0
LINE
8
BLACK
6
CONTINUOUS
10
199.552
20
-94.5674
11
198.123
21
-94.8531
0
LINE
8
BLACK
6
CONTINUOUS
10
200.695
20
-95.7103
11
200.98
21
-95.8531
0
LINE
8
BLACK
6
CONTINUOUS
10
200.98
20
-95.8531
11
201.552
21
-95.8531
0
LINE
8
BLACK
6
CONTINUOUS
10
201.552
20
-95.8531
11
201.837
21
-95.7103
0
LINE
8
BLACK
6
CONTINUOUS
10
201.837
20
-95.7103
11
201.98
21
-95.4246
0
LINE
8
BLACK
6
CONTINUOUS
10
201.98
20
-95.4246
11
201.98
21
-95.2817
0
LINE
8
BLACK
6
CONTINUOUS
10
201.98
20
-95.2817
11
201.837
21
-94.996
0
LINE
8
BLACK
6
CONTINUOUS
10
201.837
20
-94.996
11
201.552
21
-94.8531
0
LINE
8
BLACK
6
CONTINUOUS
10
201.552
20
-94.8531
11
201.123
21
-94.8531
0
LINE
8
BLACK
6
CONTINUOUS
10
201.123
20
-94.8531
11
200.837
21
-94.7103
0
LINE
8
BLACK
6
CONTINUOUS
10
200.837
20
-94.7103
11
200.695
21
-94.4246
0
LINE
8
BLACK
6
CONTINUOUS
10
200.695
20
-94.4246
11
200.695
21
-94.2817
0
LINE
8
BLACK
6
CONTINUOUS
10
200.695
20
-94.2817
11
200.837
21
-93.996
0
LINE
8
BLACK
6
CONTINUOUS
10
200.837
20
-93.996
11
201.123
21
-93.8531
0
LINE
8
BLACK
6
CONTINUOUS
10
201.123
20
-93.8531
11
201.552
21
-93.8531
0
LINE
8
BLACK
6
CONTINUOUS
10
201.552
20
-93.8531
11
201.837
21
-93.996
0
LINE
8
BLACK
6
CONTINUOUS
10
202.98
20
-96.996
11
203.123
21
-96.8531
0
LINE
8
BLACK
6
CONTINUOUS
10
203.123
20
-96.8531
11
203.409
21
-96.4246
0
LINE
8
BLACK
6
CONTINUOUS
10
203.409
20
-96.4246
11
203.552
21
-96.1389
0
LINE
8
BLACK
6
CONTINUOUS
10
203.552
20
-96.1389
11
203.695
21
-95.7103
0
LINE
8
BLACK
6
CONTINUOUS
10
203.695
20
-95.7103
11
203.837
21
-94.996
0
LINE
8
BLACK
6
CONTINUOUS
10
203.837
20
-94.996
11
203.837
21
-94.4246
0
LINE
8
BLACK
6
CONTINUOUS
10
203.837
20
-94.4246
11
203.695
21
-93.7103
0
LINE
8
BLACK
6
CONTINUOUS
10
203.695
20
-93.7103
11
203.552
21
-93.2817
0
LINE
8
BLACK
6
CONTINUOUS
10
203.552
20
-93.2817
11
203.409
21
-92.996
0
LINE
8
BLACK
6
CONTINUOUS
10
203.409
20
-92.996
11
203.123
21
-92.5674
0
LINE
8
BLACK
6
CONTINUOUS
10
203.123
20
-92.5674
11
202.98
21
-92.4246
0
CIRCLE
8
BLACK
10
137.566
20
-98.456
40
0.55
0
LINE
8
BLACK
6
CONTINUOUS
10
142.552
20
-99.8131
11
140.837
21
-99.8131
0
LINE
8
BLACK
6
CONTINUOUS
10
141.695
20
-99.8131
11
141.695
21
-96.8131
0
LINE
8
BLACK
6
CONTINUOUS
10
141.695
20
-96.8131
11
141.409
21
-97.2417
0
LINE
8
BLACK
6
CONTINUOUS
10
141.409
20
-97.2417
11
141.123
21
-97.5274
0
LINE
8
BLACK
6
CONTINUOUS
10
141.123
20
-97.5274
11
140.837
21
-97.6703
0
LINE
8
BLACK
6
CONTINUOUS
10
143.837
20
-99.5274
11
143.98
21
-99.6703
0
LINE
8
BLACK
6
CONTINUOUS
10
143.98
20
-99.6703
11
143.837
21
-99.8131
0
LINE
8
BLACK
6
CONTINUOUS
10
143.837
20
-99.8131
11
143.695
21
-99.6703
0
LINE
8
BLACK
6
CONTINUOUS
10
143.695
20
-99.6703
11
143.837
21
-99.5274
0
LINE
8
BLACK
6
CONTINUOUS
10
143.837
20
-99.5274
11
143.837
21
-99.8131
0
LINE
8
BLACK
6
CONTINUOUS
10
146.837
20
-99.8131
11
145.123
21
-99.8131
0
LINE
8
BLACK
6
CONTINUOUS
10
145.98
20
-99.8131
11
145.98
21
-96.8131
0
LINE
8
BLACK
6
CONTINUOUS
10
145.98
20
-96.8131
11
145.695
21
-97.2417
0
LINE
8
BLACK
6
CONTINUOUS
10
145.695
20
-97.2417
11
145.409
21
-97.5274
0
LINE
8
BLACK
6
CONTINUOUS
10
145.409
20
-97.5274
11
145.123
21
-97.6703
0
LINE
8
BLACK
6
CONTINUOUS
10
148.695
20
-96.8131
11
148.98
21
-96.8131
0
LINE
8
BLACK
6
CONTINUOUS
10
148.98
20
-96.8131
11
149.266
21
-96.956
0
LINE
8
BLACK
6
CONTINUOUS
10
149.266
20
-96.956
11
149.409
21
-97.0989
0
LINE
8
BLACK
6
CONTINUOUS
10
149.409
20
-97.0989
11
149.552
21
-97.3846
0
LINE
8
BLACK
6
CONTINUOUS
10
149.552
20
-97.3846
11
149.695
21
-97.956
0
LINE
8
BLACK
6
CONTINUOUS
10
149.695
20
-97.956
11
149.695
21
-98.6703
0
LINE
8
BLACK
6
CONTINUOUS
10
149.695
20
-98.6703
11
149.552
21
-99.2417
0
LINE
8
BLACK
6
CONTINUOUS
10
149.552
20
-99.2417
11
149.409
21
-99.5274
0
LINE
8
BLACK
6
CONTINUOUS
10
149.409
20
-99.5274
11
149.266
21
-99.6703
0
LINE
8
BLACK
6
CONTINUOUS
10
149.266
20
-99.6703
11
148.98
21
-99.8131
0
LINE
8
BLACK
6
CONTINUOUS
10
148.98
20
-99.8131
11
148.695
21
-99.8131
0
LINE
8
BLACK
6
CONTINUOUS
10
148.695
20
-99.8131
11
148.409
21
-99.6703
0
LINE
8
BLACK
6
CONTINUOUS
10
148.409
20
-99.6703
11
148.266
21
-99.5274
0
LINE
8
BLACK
6
CONTINUOUS
10
148.266
20
-99.5274
11
148.123
21
-99.2417
0
LINE
8
BLACK
6
CONTINUOUS
10
148.123
20
-99.2417
11
147.98
21
-98.6703
0
LINE
8
BLACK
6
CONTINUOUS
10
147.98
20
-98.6703
11
147.98
21
-97.956
0
LINE
8
BLACK
6
CONTINUOUS
10
147.98
20
-97.956
11
148.123
21
-97.3846
0
LINE
8
BLACK
6
CONTINUOUS
10
148.123
20
-97.3846
11
148.266
21
-97.0989
0
LINE
8
BLACK
6
CONTINUOUS
10
148.266
20
-97.0989
11
148.409
21
-96.956
0
LINE
8
BLACK
6
CONTINUOUS
10
148.409
20
-96.956
11
148.695
21
-96.8131
0
LINE
8
BLACK
6
CONTINUOUS
10
150.98
20
-99.8131
11
150.98
21
-97.8131
0
LINE
8
BLACK
6
CONTINUOUS
10
150.98
20
-98.0989
11
151.123
21
-97.956
0
LINE
8
BLACK
6
CONTINUOUS
10
151.123
20
-97.956
11
151.409
21
-97.8131
0
LINE
8
BLACK
6
CONTINUOUS
10
151.409
20
-97.8131
11
151.837
21
-97.8131
0
LINE
8
BLACK
6
CONTINUOUS
10
151.837
20
-97.8131
11
152.123
21
-97.956
0
LINE
8
BLACK
6
CONTINUOUS
10
152.123
20
-97.956
11
152.266
21
-98.2417
0
LINE
8
BLACK
6
CONTINUOUS
10
152.266
20
-98.2417
11
152.266
21
-99.8131
0
LINE
8
BLACK
6
CONTINUOUS
10
152.266
20
-98.2417
11
152.409
21
-97.956
0
LINE
8
BLACK
6
CONTINUOUS
10
152.409
20
-97.956
11
152.695
21
-97.8131
0
LINE
8
BLACK
6
CONTINUOUS
10
152.695
20
-97.8131
11
153.123
21
-97.8131
0
LINE
8
BLACK
6
CONTINUOUS
10
153.123
20
-97.8131
11
153.409
21
-97.956
0
LINE
8
BLACK
6
CONTINUOUS
10
153.409
20
-97.956
11
153.552
21
-98.2417
0
LINE
8
BLACK
6
CONTINUOUS
10
153.552
20
-98.2417
11
153.552
21
-99.8131
0
LINE
8
BLACK
6
CONTINUOUS
10
154.98
20
-99.8131
11
154.98
21
-97.8131
0
LINE
8
BLACK
6
CONTINUOUS
10
154.98
20
-98.0989
11
155.123
21
-97.956
0
LINE
8
BLACK
6
CONTINUOUS
10
155.123
20
-97.956
11
155.409
21
-97.8131
0
LINE
8
BLACK
6
CONTINUOUS
10
155.409
20
-97.8131
11
155.837
21
-97.8131
0
LINE
8
BLACK
6
CONTINUOUS
10
155.837
20
-97.8131
11
156.123
21
-97.956
0
LINE
8
BLACK
6
CONTINUOUS
10
156.123
20
-97.956
11
156.266
21
-98.2417
0
LINE
8
BLACK
6
CONTINUOUS
10
156.266
20
-98.2417
11
156.266
21
-99.8131
0
LINE
8
BLACK
6
CONTINUOUS
10
156.266
20
-98.2417
11
156.409
21
-97.956
0
LINE
8
BLACK
6
CONTINUOUS
10
156.409
20
-97.956
11
156.695
21
-97.8131
0
LINE
8
BLACK
6
CONTINUOUS
10
156.695
20
-97.8131
11
157.123
21
-97.8131
0
LINE
8
BLACK
6
CONTINUOUS
10
157.123
20
-97.8131
11
157.409
21
-97.956
0
LINE
8
BLACK
6
CONTINUOUS
10
157.409
20
-97.956
11
157.552
21
-98.2417
0
LINE
8
BLACK
6
CONTINUOUS
10
157.552
20
-98.2417
11
157.552
21
-99.8131
0
LINE
8
BLACK
6
CONTINUOUS
10
163.409
20
-96.6703
11
160.837
21
-100.527
0
LINE
8
BLACK
6
CONTINUOUS
10
167.266
20
-96.8131
11
167.552
21
-96.8131
0
LINE
8
BLACK
6
CONTINUOUS
10
167.552
20
-96.8131
11
167.837
21
-96.956
0
LINE
8
BLACK
6
CONTINUOUS
10
167.837
20
-96.956
11
167.98
21
-97.0989
0
LINE
8
BLACK
6
CONTINUOUS
10
167.98
20
-97.0989
11
168.123
21
-97.3846
0
LINE
8
BLACK
6
CONTINUOUS
10
168.123
20
-97.3846
11
168.266
21
-97.956
0
LINE
8
BLACK
6
CONTINUOUS
10
168.266
20
-97.956
11
168.266
21
-98.6703
0
LINE
8
BLACK
6
CONTINUOUS
10
168.266
20
-98.6703
11
168.123
21
-99.2417
0
LINE
8
BLACK
6
CONTINUOUS
10
168.123
20
-99.2417
11
167.98
21
-99.5274
0
LINE
8
BLACK
6
CONTINUOUS
10
167.98
20
-99.5274
11
167.837
21
-99.6703
0
LINE
8
BLACK
6
CONTINUOUS
10
167.837
20
-99.6703
11
167.552
21
-99.8131
0
LINE
8
BLACK
6
CONTINUOUS
10
167.552
20
-99.8131
11
167.266
21
-99.8131
0
LINE
8
BLACK
6
CONTINUOUS
10
167.266
20
-99.8131
11
166.98
21
-99.6703
0
LINE
8
BLACK
6
CONTINUOUS
10
166.98
20
-99.6703
11
166.837
21
-99.5274
0
LINE
8
BLACK
6
CONTINUOUS
10
166.837
20
-99.5274
11
166.695
21
-99.2417
0
LINE
8
BLACK
6
CONTINUOUS
10
166.695
20
-99.2417
11
166.552
21
-98.6703
0
LINE
8
BLACK
6
CONTINUOUS
10
166.552
20
-98.6703
11
166.552
21
-97.956
0
LINE
8
BLACK
6
CONTINUOUS
10
166.552
20
-97.956
11
166.695
21
-97.3846
0
LINE
8
BLACK
6
CONTINUOUS
10
166.695
20
-97.3846
11
166.837
21
-97.0989
0
LINE
8
BLACK
6
CONTINUOUS
10
166.837
20
-97.0989
11
166.98
21
-96.956
0
LINE
8
BLACK
6
CONTINUOUS
10
166.98
20
-96.956
11
167.266
21
-96.8131
0
LINE
8
BLACK
6
CONTINUOUS
10
169.552
20
-99.5274
11
169.695
21
-99.6703
0
LINE
8
BLACK
6
CONTINUOUS
10
169.695
20
-99.6703
11
169.552
21
-99.8131
0
LINE
8
BLACK
6
CONTINUOUS
10
169.552
20
-99.8131
11
169.409
21
-99.6703
0
LINE
8
BLACK
6
CONTINUOUS
10
169.409
20
-99.6703
11
169.552
21
-99.5274
0
LINE
8
BLACK
6
CONTINUOUS
10
169.552
20
-99.5274
11
169.552
21
-99.8131
0
LINE
8
BLACK
6
CONTINUOUS
10
171.552
20
-96.8131
11
171.837
21
-96.8131
0
LINE
8
BLACK
6
CONTINUOUS
10
171.837
20
-96.8131
11
172.123
21
-96.956
0
LINE
8
BLACK
6
CONTINUOUS
10
172.123
20
-96.956
11
172.266
21
-97.0989
0
LINE
8
BLACK
6
CONTINUOUS
10
172.266
20
-97.0989
11
172.409
21
-97.3846
0
LINE
8
BLACK
6
CONTINUOUS
10
172.409
20
-97.3846
11
172.552
21
-97.956
0
LINE
8
BLACK
6
CONTINUOUS
10
172.552
20
-97.956
11
172.552
21
-98.6703
0
LINE
8
BLACK
6
CONTINUOUS
10
172.552
20
-98.6703
11
172.409
21
-99.2417
0
LINE
8
BLACK
6
CONTINUOUS
10
172.409
20
-99.2417
11
172.266
21
-99.5274
0
LINE
8
BLACK
6
CONTINUOUS
10
172.266
20
-99.5274
11
172.123
21
-99.6703
0
LINE
8
BLACK
6
CONTINUOUS
10
172.123
20
-99.6703
11
171.837
21
-99.8131
0
LINE
8
BLACK
6
CONTINUOUS
10
171.837
20
-99.8131
11
171.552
21
-99.8131
0
LINE
8
BLACK
6
CONTINUOUS
10
171.552
20
-99.8131
11
171.266
21
-99.6703
0
LINE
8
BLACK
6
CONTINUOUS
10
171.266
20
-99.6703
11
171.123
21
-99.5274
0
LINE
8
BLACK
6
CONTINUOUS
10
171.123
20
-99.5274
11
170.98
21
-99.2417
0
LINE
8
BLACK
6
CONTINUOUS
10
170.98
20
-99.2417
11
170.837
21
-98.6703
0
LINE
8
BLACK
6
CONTINUOUS
10
170.837
20
-98.6703
11
170.837
21
-97.956
0
LINE
8
BLACK
6
CONTINUOUS
10
170.837
20
-97.956
11
170.98
21
-97.3846
0
LINE
8
BLACK
6
CONTINUOUS
10
170.98
20
-97.3846
11
171.123
21
-97.0989
0
LINE
8
BLACK
6
CONTINUOUS
10
171.123
20
-97.0989
11
171.266
21
-96.956
0
LINE
8
BLACK
6
CONTINUOUS
10
171.266
20
-96.956
11
171.552
21
-96.8131
0
LINE
8
BLACK
6
CONTINUOUS
10
175.123
20
-97.8131
11
175.123
21
-99.8131
0
LINE
8
BLACK
6
CONTINUOUS
10
174.409
20
-96.6703
11
173.695
21
-98.8131
0
LINE
8
BLACK
6
CONTINUOUS
10
173.695
20
-98.8131
11
175.552
21
-98.8131
0
LINE
8
BLACK
6
CONTINUOUS
10
176.409
20
-96.8131
11
178.266
21
-96.8131
0
LINE
8
BLACK
6
CONTINUOUS
10
178.266
20
-96.8131
11
177.266
21
-97.956
0
LINE
8
BLACK
6
CONTINUOUS
10
177.266
20
-97.956
11
177.695
21
-97.956
0
LINE
8
BLACK
6
CONTINUOUS
10
177.695
20
-97.956
11
177.98
21
-98.0989
0
LINE
8
BLACK
6
CONTINUOUS
10
177.98
20
-98.0989
11
178.123
21
-98.2417
0
LINE
8
BLACK
6
CONTINUOUS
10
178.123
20
-98.2417
11
178.266
21
-98.5274
0
LINE
8
BLACK
6
CONTINUOUS
10
178.266
20
-98.5274
11
178.266
21
-99.2417
0
LINE
8
BLACK
6
CONTINUOUS
10
178.266
20
-99.2417
11
178.123
21
-99.5274
0
LINE
8
BLACK
6
CONTINUOUS
10
178.123
20
-99.5274
11
177.98
21
-99.6703
0
LINE
8
BLACK
6
CONTINUOUS
10
177.98
20
-99.6703
11
177.695
21
-99.8131
0
LINE
8
BLACK
6
CONTINUOUS
10
177.695
20
-99.8131
11
176.837
21
-99.8131
0
LINE
8
BLACK
6
CONTINUOUS
10
176.837
20
-99.8131
11
176.552
21
-99.6703
0
LINE
8
BLACK
6
CONTINUOUS
10
176.552
20
-99.6703
11
176.409
21
-99.5274
0
LINE
8
BLACK
6
CONTINUOUS
10
179.409
20
-96.8131
11
179.409
21
-97.3846
0
LINE
8
BLACK
6
CONTINUOUS
10
180.552
20
-96.8131
11
180.552
21
-97.3846
0
LINE
8
BLACK
6
CONTINUOUS
10
184.98
20
-100.956
11
184.837
21
-100.813
0
LINE
8
BLACK
6
CONTINUOUS
10
184.837
20
-100.813
11
184.552
21
-100.385
0
LINE
8
BLACK
6
CONTINUOUS
10
184.552
20
-100.385
11
184.409
21
-100.099
0
LINE
8
BLACK
6
CONTINUOUS
10
184.409
20
-100.099
11
184.266
21
-99.6703
0
LINE
8
BLACK
6
CONTINUOUS
10
184.266
20
-99.6703
11
184.123
21
-98.956
0
LINE
8
BLACK
6
CONTINUOUS
10
184.123
20
-98.956
11
184.123
21
-98.3846
0
LINE
8
BLACK
6
CONTINUOUS
10
184.123
20
-98.3846
11
184.266
21
-97.6703
0
LINE
8
BLACK
6
CONTINUOUS
10
184.266
20
-97.6703
11
184.409
21
-97.2417
0
LINE
8
BLACK
6
CONTINUOUS
10
184.409
20
-97.2417
11
184.552
21
-96.956
0
LINE
8
BLACK
6
CONTINUOUS
10
184.552
20
-96.956
11
184.837
21
-96.5274
0
LINE
8
BLACK
6
CONTINUOUS
10
184.837
20
-96.5274
11
184.98
21
-96.3846
0
LINE
8
BLACK
6
CONTINUOUS
10
187.409
20
-97.8131
11
187.409
21
-99.8131
0
LINE
8
BLACK
6
CONTINUOUS
10
186.695
20
-96.6703
11
185.98
21
-98.8131
0
LINE
8
BLACK
6
CONTINUOUS
10
185.98
20
-98.8131
11
187.837
21
-98.8131
0
LINE
8
BLACK
6
CONTINUOUS
10
191.266
20
-99.8131
11
191.266
21
-96.8131
0
LINE
8
BLACK
6
CONTINUOUS
10
192.552
20
-99.8131
11
192.552
21
-98.2417
0
LINE
8
BLACK
6
CONTINUOUS
10
192.552
20
-98.2417
11
192.409
21
-97.956
0
LINE
8
BLACK
6
CONTINUOUS
10
192.409
20
-97.956
11
192.123
21
-97.8131
0
LINE
8
BLACK
6
CONTINUOUS
10
192.123
20
-97.8131
11
191.695
21
-97.8131
0
LINE
8
BLACK
6
CONTINUOUS
10
191.695
20
-97.8131
11
191.409
21
-97.956
0
LINE
8
BLACK
6
CONTINUOUS
10
191.409
20
-97.956
11
191.266
21
-98.0989
0
LINE
8
BLACK
6
CONTINUOUS
10
194.409
20
-99.8131
11
194.123
21
-99.6703
0
LINE
8
BLACK
6
CONTINUOUS
10
194.123
20
-99.6703
11
193.98
21
-99.5274
0
LINE
8
BLACK
6
CONTINUOUS
10
193.98
20
-99.5274
11
193.837
21
-99.2417
0
LINE
8
BLACK
6
CONTINUOUS
10
193.837
20
-99.2417
11
193.837
21
-98.3846
0
LINE
8
BLACK
6
CONTINUOUS
10
193.837
20
-98.3846
11
193.98
21
-98.0989
0
LINE
8
BLACK
6
CONTINUOUS
10
193.98
20
-98.0989
11
194.123
21
-97.956
0
LINE
8
BLACK
6
CONTINUOUS
10
194.123
20
-97.956
11
194.409
21
-97.8131
0
LINE
8
BLACK
6
CONTINUOUS
10
194.409
20
-97.8131
11
194.837
21
-97.8131
0
LINE
8
BLACK
6
CONTINUOUS
10
194.837
20
-97.8131
11
195.123
21
-97.956
0
LINE
8
BLACK
6
CONTINUOUS
10
195.123
20
-97.956
11
195.266
21
-98.0989
0
LINE
8
BLACK
6
CONTINUOUS
10
195.266
20
-98.0989
11
195.409
21
-98.3846
0
LINE
8
BLACK
6
CONTINUOUS
10
195.409
20
-98.3846
11
195.409
21
-99.2417
0
LINE
8
BLACK
6
CONTINUOUS
10
195.409
20
-99.2417
11
195.266
21
-99.5274
0
LINE
8
BLACK
6
CONTINUOUS
10
195.266
20
-99.5274
11
195.123
21
-99.6703
0
LINE
8
BLACK
6
CONTINUOUS
10
195.123
20
-99.6703
11
194.837
21
-99.8131
0
LINE
8
BLACK
6
CONTINUOUS
10
194.837
20
-99.8131
11
194.409
21
-99.8131
0
LINE
8
BLACK
6
CONTINUOUS
10
197.123
20
-99.8131
11
196.837
21
-99.6703
0
LINE
8
BLACK
6
CONTINUOUS
10
196.837
20
-99.6703
11
196.695
21
-99.3846
0
LINE
8
BLACK
6
CONTINUOUS
10
196.695
20
-99.3846
11
196.695
21
-96.8131
0
LINE
8
BLACK
6
CONTINUOUS
10
199.409
20
-99.6703
11
199.123
21
-99.8131
0
LINE
8
BLACK
6
CONTINUOUS
10
199.123
20
-99.8131
11
198.552
21
-99.8131
0
LINE
8
BLACK
6
CONTINUOUS
10
198.552
20
-99.8131
11
198.266
21
-99.6703
0
LINE
8
BLACK
6
CONTINUOUS
10
198.266
20
-99.6703
11
198.123
21
-99.3846
0
LINE
8
BLACK
6
CONTINUOUS
10
198.123
20
-99.3846
11
198.123
21
-98.2417
0
LINE
8
BLACK
6
CONTINUOUS
10
198.123
20
-98.2417
11
198.266
21
-97.956
0
LINE
8
BLACK
6
CONTINUOUS
10
198.266
20
-97.956
11
198.552
21
-97.8131
0
LINE
8
BLACK
6
CONTINUOUS
10
198.552
20
-97.8131
11
199.123
21
-97.8131
0
LINE
8
BLACK
6
CONTINUOUS
10
199.123
20
-97.8131
11
199.409
21
-97.956
0
LINE
8
BLACK
6
CONTINUOUS
10
199.409
20
-97.956
11
199.552
21
-98.2417
0
LINE
8
BLACK
6
CONTINUOUS
10
199.552
20
-98.2417
11
199.552
21
-98.5274
0
LINE
8
BLACK
6
CONTINUOUS
10
199.552
20
-98.5274
11
198.123
21
-98.8131
0
LINE
8
BLACK
6
CONTINUOUS
10
200.695
20
-99.6703
11
200.98
21
-99.8131
0
LINE
8
BLACK
6
CONTINUOUS
10
200.98
20
-99.8131
11
201.552
21
-99.8131
0
LINE
8
BLACK
6
CONTINUOUS
10
201.552
20
-99.8131
11
201.837
21
-99.6703
0
LINE
8
BLACK
6
CONTINUOUS
10
201.837
20
-99.6703
11
201.98
21
-99.3846
0
LINE
8
BLACK
6
CONTINUOUS
10
201.98
20
-99.3846
11
201.98
21
-99.2417
0
LINE
8
BLACK
6
CONTINUOUS
10
201.98
20
-99.2417
11
201.837
21
-98.956
0
LINE
8
BLACK
6
CONTINUOUS
10
201.837
20
-98.956
11
201.552
21
-98.8131
0
LINE
8
BLACK
6
CONTINUOUS
10
201.552
20
-98.8131
11
201.123
21
-98.8131
0
LINE
8
BLACK
6
CONTINUOUS
10
201.123
20
-98.8131
11
200.837
21
-98.6703
0
LINE
8
BLACK
6
CONTINUOUS
10
200.837
20
-98.6703
11
200.695
21
-98.3846
0
LINE
8
BLACK
6
CONTINUOUS
10
200.695
20
-98.3846
11
200.695
21
-98.2417
0
LINE
8
BLACK
6
CONTINUOUS
10
200.695
20
-98.2417
11
200.837
21
-97.956
0
LINE
8
BLACK
6
CONTINUOUS
10
200.837
20
-97.956
11
201.123
21
-97.8131
0
LINE
8
BLACK
6
CONTINUOUS
10
201.123
20
-97.8131
11
201.552
21
-97.8131
0
LINE
8
BLACK
6
CONTINUOUS
10
201.552
20
-97.8131
11
201.837
21
-97.956
0
LINE
8
BLACK
6
CONTINUOUS
10
202.98
20
-100.956
11
203.123
21
-100.813
0
LINE
8
BLACK
6
CONTINUOUS
10
203.123
20
-100.813
11
203.409
21
-100.385
0
LINE
8
BLACK
6
CONTINUOUS
10
203.409
20
-100.385
11
203.552
21
-100.099
0
LINE
8
BLACK
6
CONTINUOUS
10
203.552
20
-100.099
11
203.695
21
-99.6703
0
LINE
8
BLACK
6
CONTINUOUS
10
203.695
20
-99.6703
11
203.837
21
-98.956
0
LINE
8
BLACK
6
CONTINUOUS
10
203.837
20
-98.956
11
203.837
21
-98.3846
0
LINE
8
BLACK
6
CONTINUOUS
10
203.837
20
-98.3846
11
203.695
21
-97.6703
0
LINE
8
BLACK
6
CONTINUOUS
10
203.695
20
-97.6703
11
203.552
21
-97.2417
0
LINE
8
BLACK
6
CONTINUOUS
10
203.552
20
-97.2417
11
203.409
21
-96.956
0
LINE
8
BLACK
6
CONTINUOUS
10
203.409
20
-96.956
11
203.123
21
-96.5274
0
LINE
8
BLACK
6
CONTINUOUS
10
203.123
20
-96.5274
11
202.98
21
-96.3846
0
LINE
8
BLACK
6
CONTINUOUS
10
137.516
20
-101.816
11
137.516
21
-103.016
0
LINE
8
BLACK
6
CONTINUOUS
10
136.916
20
-102.416
11
138.116
21
-102.416
0
LINE
8
BLACK
6
CONTINUOUS
10
142.552
20
-103.773
11
140.837
21
-103.773
0
LINE
8
BLACK
6
CONTINUOUS
10
141.695
20
-103.773
11
141.695
21
-100.773
0
LINE
8
BLACK
6
CONTINUOUS
10
141.695
20
-100.773
11
141.409
21
-101.202
0
LINE
8
BLACK
6
CONTINUOUS
10
141.409
20
-101.202
11
141.123
21
-101.487
0
LINE
8
BLACK
6
CONTINUOUS
10
141.123
20
-101.487
11
140.837
21
-101.63
0
LINE
8
BLACK
6
CONTINUOUS
10
143.837
20
-103.487
11
143.98
21
-103.63
0
LINE
8
BLACK
6
CONTINUOUS
10
143.98
20
-103.63
11
143.837
21
-103.773
0
LINE
8
BLACK
6
CONTINUOUS
10
143.837
20
-103.773
11
143.695
21
-103.63
0
LINE
8
BLACK
6
CONTINUOUS
10
143.695
20
-103.63
11
143.837
21
-103.487
0
LINE
8
BLACK
6
CONTINUOUS
10
143.837
20
-103.487
11
143.837
21
-103.773
0
LINE
8
BLACK
6
CONTINUOUS
10
145.123
20
-101.059
11
145.266
21
-100.916
0
LINE
8
BLACK
6
CONTINUOUS
10
145.266
20
-100.916
11
145.552
21
-100.773
0
LINE
8
BLACK
6
CONTINUOUS
10
145.552
20
-100.773
11
146.266
21
-100.773
0
LINE
8
BLACK
6
CONTINUOUS
10
146.266
20
-100.773
11
146.552
21
-100.916
0
LINE
8
BLACK
6
CONTINUOUS
10
146.552
20
-100.916
11
146.695
21
-101.059
0
LINE
8
BLACK
6
CONTINUOUS
10
146.695
20
-101.059
11
146.837
21
-101.345
0
LINE
8
BLACK
6
CONTINUOUS
10
146.837
20
-101.345
11
146.837
21
-101.63
0
LINE
8
BLACK
6
CONTINUOUS
10
146.837
20
-101.63
11
146.695
21
-102.059
0
LINE
8
BLACK
6
CONTINUOUS
10
146.695
20
-102.059
11
144.98
21
-103.773
0
LINE
8
BLACK
6
CONTINUOUS
10
144.98
20
-103.773
11
146.837
21
-103.773
0
LINE
8
BLACK
6
CONTINUOUS
10
148.695
20
-100.773
11
148.98
21
-100.773
0
LINE
8
BLACK
6
CONTINUOUS
10
148.98
20
-100.773
11
149.266
21
-100.916
0
LINE
8
BLACK
6
CONTINUOUS
10
149.266
20
-100.916
11
149.409
21
-101.059
0
LINE
8
BLACK
6
CONTINUOUS
10
149.409
20
-101.059
11
149.552
21
-101.345
0
LINE
8
BLACK
6
CONTINUOUS
10
149.552
20
-101.345
11
149.695
21
-101.916
0
LINE
8
BLACK
6
CONTINUOUS
10
149.695
20
-101.916
11
149.695
21
-102.63
0
LINE
8
BLACK
6
CONTINUOUS
10
149.695
20
-102.63
11
149.552
21
-103.202
0
LINE
8
BLACK
6
CONTINUOUS
10
149.552
20
-103.202
11
149.409
21
-103.487
0
LINE
8
BLACK
6
CONTINUOUS
10
149.409
20
-103.487
11
149.266
21
-103.63
0
LINE
8
BLACK
6
CONTINUOUS
10
149.266
20
-103.63
11
148.98
21
-103.773
0
LINE
8
BLACK
6
CONTINUOUS
10
148.98
20
-103.773
11
148.695
21
-103.773
0
LINE
8
BLACK
6
CONTINUOUS
10
148.695
20
-103.773
11
148.409
21
-103.63
0
LINE
8
BLACK
6
CONTINUOUS
10
148.409
20
-103.63
11
148.266
21
-103.487
0
LINE
8
BLACK
6
CONTINUOUS
10
148.266
20
-103.487
11
148.123
21
-103.202
0
LINE
8
BLACK
6
CONTINUOUS
10
148.123
20
-103.202
11
147.98
21
-102.63
0
LINE
8
BLACK
6
CONTINUOUS
10
147.98
20
-102.63
11
147.98
21
-101.916
0
LINE
8
BLACK
6
CONTINUOUS
10
147.98
20
-101.916
11
148.123
21
-101.345
0
LINE
8
BLACK
6
CONTINUOUS
10
148.123
20
-101.345
11
148.266
21
-101.059
0
LINE
8
BLACK
6
CONTINUOUS
10
148.266
20
-101.059
11
148.409
21
-100.916
0
LINE
8
BLACK
6
CONTINUOUS
10
148.409
20
-100.916
11
148.695
21
-100.773
0
LINE
8
BLACK
6
CONTINUOUS
10
150.98
20
-103.773
11
150.98
21
-101.773
0
LINE
8
BLACK
6
CONTINUOUS
10
150.98
20
-102.059
11
151.123
21
-101.916
0
LINE
8
BLACK
6
CONTINUOUS
10
151.123
20
-101.916
11
151.409
21
-101.773
0
LINE
8
BLACK
6
CONTINUOUS
10
151.409
20
-101.773
11
151.837
21
-101.773
0
LINE
8
BLACK
6
CONTINUOUS
10
151.837
20
-101.773
11
152.123
21
-101.916
0
LINE
8
BLACK
6
CONTINUOUS
10
152.123
20
-101.916
11
152.266
21
-102.202
0
LINE
8
BLACK
6
CONTINUOUS
10
152.266
20
-102.202
11
152.266
21
-103.773
0
LINE
8
BLACK
6
CONTINUOUS
10
152.266
20
-102.202
11
152.409
21
-101.916
0
LINE
8
BLACK
6
CONTINUOUS
10
152.409
20
-101.916
11
152.695
21
-101.773
0
LINE
8
BLACK
6
CONTINUOUS
10
152.695
20
-101.773
11
153.123
21
-101.773
0
LINE
8
BLACK
6
CONTINUOUS
10
153.123
20
-101.773
11
153.409
21
-101.916
0
LINE
8
BLACK
6
CONTINUOUS
10
153.409
20
-101.916
11
153.552
21
-102.202
0
LINE
8
BLACK
6
CONTINUOUS
10
153.552
20
-102.202
11
153.552
21
-103.773
0
LINE
8
BLACK
6
CONTINUOUS
10
154.98
20
-103.773
11
154.98
21
-101.773
0
LINE
8
BLACK
6
CONTINUOUS
10
154.98
20
-102.059
11
155.123
21
-101.916
0
LINE
8
BLACK
6
CONTINUOUS
10
155.123
20
-101.916
11
155.409
21
-101.773
0
LINE
8
BLACK
6
CONTINUOUS
10
155.409
20
-101.773
11
155.837
21
-101.773
0
LINE
8
BLACK
6
CONTINUOUS
10
155.837
20
-101.773
11
156.123
21
-101.916
0
LINE
8
BLACK
6
CONTINUOUS
10
156.123
20
-101.916
11
156.266
21
-102.202
0
LINE
8
BLACK
6
CONTINUOUS
10
156.266
20
-102.202
11
156.266
21
-103.773
0
LINE
8
BLACK
6
CONTINUOUS
10
156.266
20
-102.202
11
156.409
21
-101.916
0
LINE
8
BLACK
6
CONTINUOUS
10
156.409
20
-101.916
11
156.695
21
-101.773
0
LINE
8
BLACK
6
CONTINUOUS
10
156.695
20
-101.773
11
157.123
21
-101.773
0
LINE
8
BLACK
6
CONTINUOUS
10
157.123
20
-101.773
11
157.409
21
-101.916
0
LINE
8
BLACK
6
CONTINUOUS
10
157.409
20
-101.916
11
157.552
21
-102.202
0
LINE
8
BLACK
6
CONTINUOUS
10
157.552
20
-102.202
11
157.552
21
-103.773
0
LINE
8
BLACK
6
CONTINUOUS
10
163.409
20
-100.63
11
160.837
21
-104.487
0
LINE
8
BLACK
6
CONTINUOUS
10
167.266
20
-100.773
11
167.552
21
-100.773
0
LINE
8
BLACK
6
CONTINUOUS
10
167.552
20
-100.773
11
167.837
21
-100.916
0
LINE
8
BLACK
6
CONTINUOUS
10
167.837
20
-100.916
11
167.98
21
-101.059
0
LINE
8
BLACK
6
CONTINUOUS
10
167.98
20
-101.059
11
168.123
21
-101.345
0
LINE
8
BLACK
6
CONTINUOUS
10
168.123
20
-101.345
11
168.266
21
-101.916
0
LINE
8
BLACK
6
CONTINUOUS
10
168.266
20
-101.916
11
168.266
21
-102.63
0
LINE
8
BLACK
6
CONTINUOUS
10
168.266
20
-102.63
11
168.123
21
-103.202
0
LINE
8
BLACK
6
CONTINUOUS
10
168.123
20
-103.202
11
167.98
21
-103.487
0
LINE
8
BLACK
6
CONTINUOUS
10
167.98
20
-103.487
11
167.837
21
-103.63
0
LINE
8
BLACK
6
CONTINUOUS
10
167.837
20
-103.63
11
167.552
21
-103.773
0
LINE
8
BLACK
6
CONTINUOUS
10
167.552
20
-103.773
11
167.266
21
-103.773
0
LINE
8
BLACK
6
CONTINUOUS
10
167.266
20
-103.773
11
166.98
21
-103.63
0
LINE
8
BLACK
6
CONTINUOUS
10
166.98
20
-103.63
11
166.837
21
-103.487
0
LINE
8
BLACK
6
CONTINUOUS
10
166.837
20
-103.487
11
166.695
21
-103.202
0
LINE
8
BLACK
6
CONTINUOUS
10
166.695
20
-103.202
11
166.552
21
-102.63
0
LINE
8
BLACK
6
CONTINUOUS
10
166.552
20
-102.63
11
166.552
21
-101.916
0
LINE
8
BLACK
6
CONTINUOUS
10
166.552
20
-101.916
11
166.695
21
-101.345
0
LINE
8
BLACK
6
CONTINUOUS
10
166.695
20
-101.345
11
166.837
21
-101.059
0
LINE
8
BLACK
6
CONTINUOUS
10
166.837
20
-101.059
11
166.98
21
-100.916
0
LINE
8
BLACK
6
CONTINUOUS
10
166.98
20
-100.916
11
167.266
21
-100.773
0
LINE
8
BLACK
6
CONTINUOUS
10
169.552
20
-103.487
11
169.695
21
-103.63
0
LINE
8
BLACK
6
CONTINUOUS
10
169.695
20
-103.63
11
169.552
21
-103.773
0
LINE
8
BLACK
6
CONTINUOUS
10
169.552
20
-103.773
11
169.409
21
-103.63
0
LINE
8
BLACK
6
CONTINUOUS
10
169.409
20
-103.63
11
169.552
21
-103.487
0
LINE
8
BLACK
6
CONTINUOUS
10
169.552
20
-103.487
11
169.552
21
-103.773
0
LINE
8
BLACK
6
CONTINUOUS
10
171.552
20
-100.773
11
171.837
21
-100.773
0
LINE
8
BLACK
6
CONTINUOUS
10
171.837
20
-100.773
11
172.123
21
-100.916
0
LINE
8
BLACK
6
CONTINUOUS
10
172.123
20
-100.916
11
172.266
21
-101.059
0
LINE
8
BLACK
6
CONTINUOUS
10
172.266
20
-101.059
11
172.409
21
-101.345
0
LINE
8
BLACK
6
CONTINUOUS
10
172.409
20
-101.345
11
172.552
21
-101.916
0
LINE
8
BLACK
6
CONTINUOUS
10
172.552
20
-101.916
11
172.552
21
-102.63
0
LINE
8
BLACK
6
CONTINUOUS
10
172.552
20
-102.63
11
172.409
21
-103.202
0
LINE
8
BLACK
6
CONTINUOUS
10
172.409
20
-103.202
11
172.266
21
-103.487
0
LINE
8
BLACK
6
CONTINUOUS
10
172.266
20
-103.487
11
172.123
21
-103.63
0
LINE
8
BLACK
6
CONTINUOUS
10
172.123
20
-103.63
11
171.837
21
-103.773
0
LINE
8
BLACK
6
CONTINUOUS
10
171.837
20
-103.773
11
171.552
21
-103.773
0
LINE
8
BLACK
6
CONTINUOUS
10
171.552
20
-103.773
11
171.266
21
-103.63
0
LINE
8
BLACK
6
CONTINUOUS
10
171.266
20
-103.63
11
171.123
21
-103.487
0
LINE
8
BLACK
6
CONTINUOUS
10
171.123
20
-103.487
11
170.98
21
-103.202
0
LINE
8
BLACK
6
CONTINUOUS
10
170.98
20
-103.202
11
170.837
21
-102.63
0
LINE
8
BLACK
6
CONTINUOUS
10
170.837
20
-102.63
11
170.837
21
-101.916
0
LINE
8
BLACK
6
CONTINUOUS
10
170.837
20
-101.916
11
170.98
21
-101.345
0
LINE
8
BLACK
6
CONTINUOUS
10
170.98
20
-101.345
11
171.123
21
-101.059
0
LINE
8
BLACK
6
CONTINUOUS
10
171.123
20
-101.059
11
171.266
21
-100.916
0
LINE
8
BLACK
6
CONTINUOUS
10
171.266
20
-100.916
11
171.552
21
-100.773
0
LINE
8
BLACK
6
CONTINUOUS
10
175.123
20
-101.773
11
175.123
21
-103.773
0
LINE
8
BLACK
6
CONTINUOUS
10
174.409
20
-100.63
11
173.695
21
-102.773
0
LINE
8
BLACK
6
CONTINUOUS
10
173.695
20
-102.773
11
175.552
21
-102.773
0
LINE
8
BLACK
6
CONTINUOUS
10
176.409
20
-100.773
11
178.409
21
-100.773
0
LINE
8
BLACK
6
CONTINUOUS
10
178.409
20
-100.773
11
177.123
21
-103.773
0
LINE
8
BLACK
6
CONTINUOUS
10
179.409
20
-100.773
11
179.409
21
-101.345
0
LINE
8
BLACK
6
CONTINUOUS
10
180.552
20
-100.773
11
180.552
21
-101.345
0
LINE
8
BLACK
6
CONTINUOUS
10
184.98
20
-104.916
11
184.837
21
-104.773
0
LINE
8
BLACK
6
CONTINUOUS
10
184.837
20
-104.773
11
184.552
21
-104.345
0
LINE
8
BLACK
6
CONTINUOUS
10
184.552
20
-104.345
11
184.409
21
-104.059
0
LINE
8
BLACK
6
CONTINUOUS
10
184.409
20
-104.059
11
184.266
21
-103.63
0
LINE
8
BLACK
6
CONTINUOUS
10
184.266
20
-103.63
11
184.123
21
-102.916
0
LINE
8
BLACK
6
CONTINUOUS
10
184.123
20
-102.916
11
184.123
21
-102.345
0
LINE
8
BLACK
6
CONTINUOUS
10
184.123
20
-102.345
11
184.266
21
-101.63
0
LINE
8
BLACK
6
CONTINUOUS
10
184.266
20
-101.63
11
184.409
21
-101.202
0
LINE
8
BLACK
6
CONTINUOUS
10
184.409
20
-101.202
11
184.552
21
-100.916
0
LINE
8
BLACK
6
CONTINUOUS
10
184.552
20
-100.916
11
184.837
21
-100.487
0
LINE
8
BLACK
6
CONTINUOUS
10
184.837
20
-100.487
11
184.98
21
-100.345
0
LINE
8
BLACK
6
CONTINUOUS
10
185.98
20
-101.059
11
186.123
21
-100.916
0
LINE
8
BLACK
6
CONTINUOUS
10
186.123
20
-100.916
11
186.409
21
-100.773
0
LINE
8
BLACK
6
CONTINUOUS
10
186.409
20
-100.773
11
187.123
21
-100.773
0
LINE
8
BLACK
6
CONTINUOUS
10
187.123
20
-100.773
11
187.409
21
-100.916
0
LINE
8
BLACK
6
CONTINUOUS
10
187.409
20
-100.916
11
187.552
21
-101.059
0
LINE
8
BLACK
6
CONTINUOUS
10
187.552
20
-101.059
11
187.695
21
-101.345
0
LINE
8
BLACK
6
CONTINUOUS
10
187.695
20
-101.345
11
187.695
21
-101.63
0
LINE
8
BLACK
6
CONTINUOUS
10
187.695
20
-101.63
11
187.552
21
-102.059
0
LINE
8
BLACK
6
CONTINUOUS
10
187.552
20
-102.059
11
185.837
21
-103.773
0
LINE
8
BLACK
6
CONTINUOUS
10
185.837
20
-103.773
11
187.695
21
-103.773
0
LINE
8
BLACK
6
CONTINUOUS
10
190.552
20
-103.773
11
188.837
21
-103.773
0
LINE
8
BLACK
6
CONTINUOUS
10
189.695
20
-103.773
11
189.695
21
-100.773
0
LINE
8
BLACK
6
CONTINUOUS
10
189.695
20
-100.773
11
189.409
21
-101.202
0
LINE
8
BLACK
6
CONTINUOUS
10
189.409
20
-101.202
11
189.123
21
-101.487
0
LINE
8
BLACK
6
CONTINUOUS
10
189.123
20
-101.487
11
188.837
21
-101.63
0
LINE
8
BLACK
6
CONTINUOUS
10
194.123
20
-103.773
11
194.123
21
-100.773
0
LINE
8
BLACK
6
CONTINUOUS
10
195.409
20
-103.773
11
195.409
21
-102.202
0
LINE
8
BLACK
6
CONTINUOUS
10
195.409
20
-102.202
11
195.266
21
-101.916
0
LINE
8
BLACK
6
CONTINUOUS
10
195.266
20
-101.916
11
194.98
21
-101.773
0
LINE
8
BLACK
6
CONTINUOUS
10
194.98
20
-101.773
11
194.552
21
-101.773
0
LINE
8
BLACK
6
CONTINUOUS
10
194.552
20
-101.773
11
194.266
21
-101.916
0
LINE
8
BLACK
6
CONTINUOUS
10
194.266
20
-101.916
11
194.123
21
-102.059
0
LINE
8
BLACK
6
CONTINUOUS
10
197.266
20
-103.773
11
196.98
21
-103.63
0
LINE
8
BLACK
6
CONTINUOUS
10
196.98
20
-103.63
11
196.837
21
-103.487
0
LINE
8
BLACK
6
CONTINUOUS
10
196.837
20
-103.487
11
196.695
21
-103.202
0
LINE
8
BLACK
6
CONTINUOUS
10
196.695
20
-103.202
11
196.695
21
-102.345
0
LINE
8
BLACK
6
CONTINUOUS
10
196.695
20
-102.345
11
196.837
21
-102.059
0
LINE
8
BLACK
6
CONTINUOUS
10
196.837
20
-102.059
11
196.98
21
-101.916
0
LINE
8
BLACK
6
CONTINUOUS
10
196.98
20
-101.916
11
197.266
21
-101.773
0
LINE
8
BLACK
6
CONTINUOUS
10
197.266
20
-101.773
11
197.695
21
-101.773
0
LINE
8
BLACK
6
CONTINUOUS
10
197.695
20
-101.773
11
197.98
21
-101.916
0
LINE
8
BLACK
6
CONTINUOUS
10
197.98
20
-101.916
11
198.123
21
-102.059
0
LINE
8
BLACK
6
CONTINUOUS
10
198.123
20
-102.059
11
198.266
21
-102.345
0
LINE
8
BLACK
6
CONTINUOUS
10
198.266
20
-102.345
11
198.266
21
-103.202
0
LINE
8
BLACK
6
CONTINUOUS
10
198.266
20
-103.202
11
198.123
21
-103.487
0
LINE
8
BLACK
6
CONTINUOUS
10
198.123
20
-103.487
11
197.98
21
-103.63
0
LINE
8
BLACK
6
CONTINUOUS
10
197.98
20
-103.63
11
197.695
21
-103.773
0
LINE
8
BLACK
6
CONTINUOUS
10
197.695
20
-103.773
11
197.266
21
-103.773
0
LINE
8
BLACK
6
CONTINUOUS
10
199.98
20
-103.773
11
199.695
21
-103.63
0
LINE
8
BLACK
6
CONTINUOUS
10
199.695
20
-103.63
11
199.552
21
-103.345
0
LINE
8
BLACK
6
CONTINUOUS
10
199.552
20
-103.345
11
199.552
21
-100.773
0
LINE
8
BLACK
6
CONTINUOUS
10
202.266
20
-103.63
11
201.98
21
-103.773
0
LINE
8
BLACK
6
CONTINUOUS
10
201.98
20
-103.773
11
201.409
21
-103.773
0
LINE
8
BLACK
6
CONTINUOUS
10
201.409
20
-103.773
11
201.123
21
-103.63
0
LINE
8
BLACK
6
CONTINUOUS
10
201.123
20
-103.63
11
200.98
21
-103.345
0
LINE
8
BLACK
6
CONTINUOUS
10
200.98
20
-103.345
11
200.98
21
-102.202
0
LINE
8
BLACK
6
CONTINUOUS
10
200.98
20
-102.202
11
201.123
21
-101.916
0
LINE
8
BLACK
6
CONTINUOUS
10
201.123
20
-101.916
11
201.409
21
-101.773
0
LINE
8
BLACK
6
CONTINUOUS
10
201.409
20
-101.773
11
201.98
21
-101.773
0
LINE
8
BLACK
6
CONTINUOUS
10
201.98
20
-101.773
11
202.266
21
-101.916
0
LINE
8
BLACK
6
CONTINUOUS
10
202.266
20
-101.916
11
202.409
21
-102.202
0
LINE
8
BLACK
6
CONTINUOUS
10
202.409
20
-102.202
11
202.409
21
-102.487
0
LINE
8
BLACK
6
CONTINUOUS
10
202.409
20
-102.487
11
200.98
21
-102.773
0
LINE
8
BLACK
6
CONTINUOUS
10
203.552
20
-103.63
11
203.837
21
-103.773
0
LINE
8
BLACK
6
CONTINUOUS
10
203.837
20
-103.773
11
204.409
21
-103.773
0
LINE
8
BLACK
6
CONTINUOUS
10
204.409
20
-103.773
11
204.695
21
-103.63
0
LINE
8
BLACK
6
CONTINUOUS
10
204.695
20
-103.63
11
204.837
21
-103.345
0
LINE
8
BLACK
6
CONTINUOUS
10
204.837
20
-103.345
11
204.837
21
-103.202
0
LINE
8
BLACK
6
CONTINUOUS
10
204.837
20
-103.202
11
204.695
21
-102.916
0
LINE
8
BLACK
6
CONTINUOUS
10
204.695
20
-102.916
11
204.409
21
-102.773
0
LINE
8
BLACK
6
CONTINUOUS
10
204.409
20
-102.773
11
203.98
21
-102.773
0
LINE
8
BLACK
6
CONTINUOUS
10
203.98
20
-102.773
11
203.695
21
-102.63
0
LINE
8
BLACK
6
CONTINUOUS
10
203.695
20
-102.63
11
203.552
21
-102.345
0
LINE
8
BLACK
6
CONTINUOUS
10
203.552
20
-102.345
11
203.552
21
-102.202
0
LINE
8
BLACK
6
CONTINUOUS
10
203.552
20
-102.202
11
203.695
21
-101.916
0
LINE
8
BLACK
6
CONTINUOUS
10
203.695
20
-101.916
11
203.98
21
-101.773
0
LINE
8
BLACK
6
CONTINUOUS
10
203.98
20
-101.773
11
204.409
21
-101.773
0
LINE
8
BLACK
6
CONTINUOUS
10
204.409
20
-101.773
11
204.695
21
-101.916
0
LINE
8
BLACK
6
CONTINUOUS
10
205.837
20
-104.916
11
205.98
21
-104.773
0
LINE
8
BLACK
6
CONTINUOUS
10
205.98
20
-104.773
11
206.266
21
-104.345
0
LINE
8
BLACK
6
CONTINUOUS
10
206.266
20
-104.345
11
206.409
21
-104.059
0
LINE
8
BLACK
6
CONTINUOUS
10
206.409
20
-104.059
11
206.552
21
-103.63
0
LINE
8
BLACK
6
CONTINUOUS
10
206.552
20
-103.63
11
206.695
21
-102.916
0
LINE
8
BLACK
6
CONTINUOUS
10
206.695
20
-102.916
11
206.695
21
-102.345
0
LINE
8
BLACK
6
CONTINUOUS
10
206.695
20
-102.345
11
206.552
21
-101.63
0
LINE
8
BLACK
6
CONTINUOUS
10
206.552
20
-101.63
11
206.409
21
-101.202
0
LINE
8
BLACK
6
CONTINUOUS
10
206.409
20
-101.202
11
206.266
21
-100.916
0
LINE
8
BLACK
6
CONTINUOUS
10
206.266
20
-100.916
11
205.98
21
-100.487
0
LINE
8
BLACK
6
CONTINUOUS
10
205.98
20
-100.487
11
205.837
21
-100.345
  0
ENDSEC
  0
EOF
