  0
SECTION
  2
HEADER
  9
$ANGBASE
  50
0.0
  9
$ANGDIR
  70
1
  9
$MEASUREMENT
  70
1
  0
ENDSEC
  0
SECTION
  2
TABLES
  0
TABLE
  2
LTYPE
  70
4
  0
LTYPE
  5
40F
  2
CONTINUOUS
  70
0
  3
Solid line
  72
65
  73
0
  40
0.0
  0
LTYPE
  5
410
  2
DASHDOT
 70
0
  3
Dash Dot ____ _ ____ _
 72
65
 73
4
 40
2.0
 49
1.25
 49
-0.25
 49
0.25
 49
-0.25
  0
LTYPE
  5
411
  2
DASHED
 70
0
  3
Dashed __ __ __ __ __
 72
65
 73
2
 40
0.75
 49
0.5
 49
-0.25
  0
LTYPE
  5
43B
  2
DOTTED
 70
0
  3
Dotted .  .  .  .
 72
65
 73
2
 40
0.2
 49
0.0
 49
-0.2
  0
ENDTAB
  0
TABLE
  2
STYLE
  70
4
  0
STYLE
  2
KICAD
  70
0
  40
0
  41
1
  42
1
  50
0
  71
0
  3
isocp.shx
  0
STYLE
  2
KICADB
  70
0
  40
0
  41
1
  42
1
  50
0
  71
0
  3
isocp.shx
  0
STYLE
  2
KICADI
  70
0
  40
0
  41
1
  42
1
  50
15
  71
0
  3
isocp.shx
  0
STYLE
  2
KICADBI
  70
0
  40
0
  41
1
  42
1
  50
15
  71
0
  3
isocp.shx
  0
ENDTAB
  0
TABLE
  2
LAYER
  70
1
  0
LAYER
  2
BLACK
  70
0
  62
7
  6
CONTINUOUS
  0
ENDTAB
  0
ENDSEC
  0
SECTION
  2
ENTITIES
0
LINE
8
BLACK
6
CONTINUOUS
10
100.87
20
-81.6927
11
193.897
21
-81.6927
0
LINE
8
BLACK
6
CONTINUOUS
10
100.87
20
-100.743
11
100.87
21
-81.6927
0
LINE
8
BLACK
6
CONTINUOUS
10
109.602
20
-100.743
11
100.87
21
-100.743
0
LINE
8
BLACK
6
CONTINUOUS
10
193.897
20
-122.333
11
119.602
21
-122.333
0
LINE
8
BLACK
6
CONTINUOUS
10
119.602
20
-122.333
11
119.602
21
-110.743
0
LINE
8
BLACK
6
CONTINUOUS
10
193.897
20
-81.6927
11
193.897
21
-122.333
0
LINE
8
BLACK
6
CONTINUOUS
10
109.602
20
-100.743
11
119.602
21
-110.743
0
LINE
8
BLACK
6
CONTINUOUS
10
111.665
20
-89.9658
11
112.427
21
-90.7278
0
LINE
8
BLACK
6
CONTINUOUS
10
112.427
20
-89.9658
11
111.665
21
-90.7278
0
LINE
8
BLACK
6
CONTINUOUS
10
111.705
20
-95.7568
11
112.467
21
-96.5188
0
LINE
8
BLACK
6
CONTINUOUS
10
112.467
20
-95.7568
11
111.705
21
-96.5188
0
LINE
8
BLACK
6
CONTINUOUS
10
129.064
20
-85.8658
11
129.826
21
-86.6278
0
LINE
8
BLACK
6
CONTINUOUS
10
129.826
20
-85.8658
11
129.064
21
-86.6278
0
LINE
8
BLACK
6
CONTINUOUS
10
129.104
20
-91.6568
11
129.866
21
-92.4188
0
LINE
8
BLACK
6
CONTINUOUS
10
129.866
20
-91.6568
11
129.104
21
-92.4188
0
LINE
8
BLACK
6
CONTINUOUS
10
146.59
20
-85.8658
11
147.352
21
-86.6278
0
LINE
8
BLACK
6
CONTINUOUS
10
147.352
20
-85.8658
11
146.59
21
-86.6278
0
LINE
8
BLACK
6
CONTINUOUS
10
146.63
20
-91.6568
11
147.392
21
-92.4188
0
LINE
8
BLACK
6
CONTINUOUS
10
147.392
20
-91.6568
11
146.63
21
-92.4188
0
LINE
8
BLACK
6
CONTINUOUS
10
163.989
20
-85.8658
11
164.751
21
-86.6278
0
LINE
8
BLACK
6
CONTINUOUS
10
164.751
20
-85.8658
11
163.989
21
-86.6278
0
LINE
8
BLACK
6
CONTINUOUS
10
164.029
20
-91.6568
11
164.791
21
-92.4188
0
LINE
8
BLACK
6
CONTINUOUS
10
164.791
20
-91.6568
11
164.029
21
-92.4188
0
LINE
8
BLACK
6
CONTINUOUS
10
181.515
20
-85.8658
11
182.277
21
-86.6278
0
LINE
8
BLACK
6
CONTINUOUS
10
182.277
20
-85.8658
11
181.515
21
-86.6278
0
LINE
8
BLACK
6
CONTINUOUS
10
181.555
20
-91.6568
11
182.317
21
-92.4188
0
LINE
8
BLACK
6
CONTINUOUS
10
182.317
20
-91.6568
11
181.555
21
-92.4188
0
CIRCLE
8
BLACK
10
180.88
20
-95.4088
40
0.45
0
CIRCLE
8
BLACK
10
183.42
20
-95.4088
40
0.45
0
CIRCLE
8
BLACK
10
176.257
20
-102.521
40
0.45
0
CIRCLE
8
BLACK
10
176.257
20
-110.141
40
0.45
0
CIRCLE
8
BLACK
10
180.016
20
-102.521
40
0.45
0
CIRCLE
8
BLACK
10
180.016
20
-110.141
40
0.45
0
CIRCLE
8
BLACK
10
163.354
20
-95.4088
40
0.45
0
CIRCLE
8
BLACK
10
165.894
20
-95.4088
40
0.45
0
CIRCLE
8
BLACK
10
110.776
20
-87.0268
40
0.45
0
CIRCLE
8
BLACK
10
113.316
20
-87.0268
40
0.45
0
CIRCLE
8
BLACK
10
187.535
20
-102.521
40
0.45
0
CIRCLE
8
BLACK
10
187.535
20
-110.141
40
0.45
0
CIRCLE
8
BLACK
10
191.294
20
-102.521
40
0.45
0
CIRCLE
8
BLACK
10
191.294
20
-110.141
40
0.45
0
CIRCLE
8
BLACK
10
172.498
20
-102.521
40
0.45
0
CIRCLE
8
BLACK
10
172.498
20
-110.141
40
0.45
0
CIRCLE
8
BLACK
10
183.775
20
-102.521
40
0.45
0
CIRCLE
8
BLACK
10
183.775
20
-110.141
40
0.45
0
CIRCLE
8
BLACK
10
145.828
20
-95.4088
40
0.45
0
CIRCLE
8
BLACK
10
148.368
20
-95.4088
40
0.45
0
CIRCLE
8
BLACK
10
128.048
20
-95.4088
40
0.45
0
CIRCLE
8
BLACK
10
130.588
20
-95.4088
40
0.45
0
LINE
8
BLACK
6
CONTINUOUS
10
161.195
20
-86.3818
11
161.195
21
-87.3818
0
LINE
8
BLACK
6
CONTINUOUS
10
160.695
20
-86.8818
11
161.695
21
-86.8818
0
LINE
8
BLACK
6
CONTINUOUS
10
161.195
20
-90.8268
11
161.195
21
-91.8268
0
LINE
8
BLACK
6
CONTINUOUS
10
160.695
20
-91.3268
11
161.695
21
-91.3268
0
LINE
8
BLACK
6
CONTINUOUS
10
167.545
20
-86.3818
11
167.545
21
-87.3818
0
LINE
8
BLACK
6
CONTINUOUS
10
167.045
20
-86.8818
11
168.045
21
-86.8818
0
LINE
8
BLACK
6
CONTINUOUS
10
167.545
20
-90.8268
11
167.545
21
-91.8268
0
LINE
8
BLACK
6
CONTINUOUS
10
167.045
20
-91.3268
11
168.045
21
-91.3268
0
LINE
8
BLACK
6
CONTINUOUS
10
178.721
20
-86.3818
11
178.721
21
-87.3818
0
LINE
8
BLACK
6
CONTINUOUS
10
178.221
20
-86.8818
11
179.221
21
-86.8818
0
LINE
8
BLACK
6
CONTINUOUS
10
178.721
20
-90.8268
11
178.721
21
-91.8268
0
LINE
8
BLACK
6
CONTINUOUS
10
178.221
20
-91.3268
11
179.221
21
-91.3268
0
LINE
8
BLACK
6
CONTINUOUS
10
185.071
20
-86.3818
11
185.071
21
-87.3818
0
LINE
8
BLACK
6
CONTINUOUS
10
184.571
20
-86.8818
11
185.571
21
-86.8818
0
LINE
8
BLACK
6
CONTINUOUS
10
185.071
20
-90.8268
11
185.071
21
-91.8268
0
LINE
8
BLACK
6
CONTINUOUS
10
184.571
20
-91.3268
11
185.571
21
-91.3268
0
LINE
8
BLACK
6
CONTINUOUS
10
108.871
20
-90.4818
11
108.871
21
-91.4818
0
LINE
8
BLACK
6
CONTINUOUS
10
108.371
20
-90.9818
11
109.371
21
-90.9818
0
LINE
8
BLACK
6
CONTINUOUS
10
108.871
20
-94.9268
11
108.871
21
-95.9268
0
LINE
8
BLACK
6
CONTINUOUS
10
108.371
20
-95.4268
11
109.371
21
-95.4268
0
LINE
8
BLACK
6
CONTINUOUS
10
115.221
20
-90.4818
11
115.221
21
-91.4818
0
LINE
8
BLACK
6
CONTINUOUS
10
114.721
20
-90.9818
11
115.721
21
-90.9818
0
LINE
8
BLACK
6
CONTINUOUS
10
115.221
20
-94.9268
11
115.221
21
-95.9268
0
LINE
8
BLACK
6
CONTINUOUS
10
114.721
20
-95.4268
11
115.721
21
-95.4268
0
LINE
8
BLACK
6
CONTINUOUS
10
126.27
20
-86.3818
11
126.27
21
-87.3818
0
LINE
8
BLACK
6
CONTINUOUS
10
125.77
20
-86.8818
11
126.77
21
-86.8818
0
LINE
8
BLACK
6
CONTINUOUS
10
126.27
20
-90.8268
11
126.27
21
-91.8268
0
LINE
8
BLACK
6
CONTINUOUS
10
125.77
20
-91.3268
11
126.77
21
-91.3268
0
LINE
8
BLACK
6
CONTINUOUS
10
132.62
20
-86.3818
11
132.62
21
-87.3818
0
LINE
8
BLACK
6
CONTINUOUS
10
132.12
20
-86.8818
11
133.12
21
-86.8818
0
LINE
8
BLACK
6
CONTINUOUS
10
132.62
20
-90.8268
11
132.62
21
-91.8268
0
LINE
8
BLACK
6
CONTINUOUS
10
132.12
20
-91.3268
11
133.12
21
-91.3268
0
LINE
8
BLACK
6
CONTINUOUS
10
143.796
20
-86.3818
11
143.796
21
-87.3818
0
LINE
8
BLACK
6
CONTINUOUS
10
143.296
20
-86.8818
11
144.296
21
-86.8818
0
LINE
8
BLACK
6
CONTINUOUS
10
143.796
20
-90.8268
11
143.796
21
-91.8268
0
LINE
8
BLACK
6
CONTINUOUS
10
143.296
20
-91.3268
11
144.296
21
-91.3268
0
LINE
8
BLACK
6
CONTINUOUS
10
150.146
20
-86.3818
11
150.146
21
-87.3818
0
LINE
8
BLACK
6
CONTINUOUS
10
149.646
20
-86.8818
11
150.646
21
-86.8818
0
LINE
8
BLACK
6
CONTINUOUS
10
150.146
20
-90.8268
11
150.146
21
-91.8268
0
LINE
8
BLACK
6
CONTINUOUS
10
149.646
20
-91.3268
11
150.646
21
-91.3268
0
LINE
8
BLACK
6
CONTINUOUS
10
158.187
20
-117.166
11
158.187
21
-116.324
0
LINE
8
BLACK
6
CONTINUOUS
10
158.187
20
-116.324
11
157.345
21
-116.324
0
LINE
8
BLACK
6
CONTINUOUS
10
157.345
20
-116.324
11
157.345
21
-117.166
0
LINE
8
BLACK
6
CONTINUOUS
10
157.345
20
-117.166
11
158.187
21
-117.166
0
LINE
8
BLACK
6
CONTINUOUS
10
160.727
20
-117.166
11
160.727
21
-116.324
0
LINE
8
BLACK
6
CONTINUOUS
10
160.727
20
-116.324
11
159.885
21
-116.324
0
LINE
8
BLACK
6
CONTINUOUS
10
159.885
20
-116.324
11
159.885
21
-117.166
0
LINE
8
BLACK
6
CONTINUOUS
10
159.885
20
-117.166
11
160.727
21
-117.166
0
LINE
8
BLACK
6
CONTINUOUS
10
163.267
20
-117.166
11
163.267
21
-116.324
0
LINE
8
BLACK
6
CONTINUOUS
10
163.267
20
-116.324
11
162.425
21
-116.324
0
LINE
8
BLACK
6
CONTINUOUS
10
162.425
20
-116.324
11
162.425
21
-117.166
0
LINE
8
BLACK
6
CONTINUOUS
10
162.425
20
-117.166
11
163.267
21
-117.166
0
LINE
8
BLACK
6
CONTINUOUS
10
165.807
20
-117.166
11
165.807
21
-116.324
0
LINE
8
BLACK
6
CONTINUOUS
10
165.807
20
-116.324
11
164.965
21
-116.324
0
LINE
8
BLACK
6
CONTINUOUS
10
164.965
20
-116.324
11
164.965
21
-117.166
0
LINE
8
BLACK
6
CONTINUOUS
10
164.965
20
-117.166
11
165.807
21
-117.166
0
LINE
8
BLACK
6
CONTINUOUS
10
169.871
20
-117.166
11
169.871
21
-116.324
0
LINE
8
BLACK
6
CONTINUOUS
10
169.871
20
-116.324
11
169.029
21
-116.324
0
LINE
8
BLACK
6
CONTINUOUS
10
169.029
20
-116.324
11
169.029
21
-117.166
0
LINE
8
BLACK
6
CONTINUOUS
10
169.029
20
-117.166
11
169.871
21
-117.166
0
LINE
8
BLACK
6
CONTINUOUS
10
172.411
20
-117.166
11
172.411
21
-116.324
0
LINE
8
BLACK
6
CONTINUOUS
10
172.411
20
-116.324
11
171.569
21
-116.324
0
LINE
8
BLACK
6
CONTINUOUS
10
171.569
20
-116.324
11
171.569
21
-117.166
0
LINE
8
BLACK
6
CONTINUOUS
10
171.569
20
-117.166
11
172.411
21
-117.166
0
LINE
8
BLACK
6
CONTINUOUS
10
174.951
20
-117.166
11
174.951
21
-116.324
0
LINE
8
BLACK
6
CONTINUOUS
10
174.951
20
-116.324
11
174.109
21
-116.324
0
LINE
8
BLACK
6
CONTINUOUS
10
174.109
20
-116.324
11
174.109
21
-117.166
0
LINE
8
BLACK
6
CONTINUOUS
10
174.109
20
-117.166
11
174.951
21
-117.166
0
LINE
8
BLACK
6
CONTINUOUS
10
124.659
20
-110.054
11
124.659
21
-109.212
0
LINE
8
BLACK
6
CONTINUOUS
10
124.659
20
-109.212
11
123.817
21
-109.212
0
LINE
8
BLACK
6
CONTINUOUS
10
123.817
20
-109.212
11
123.817
21
-110.054
0
LINE
8
BLACK
6
CONTINUOUS
10
123.817
20
-110.054
11
124.659
21
-110.054
0
LINE
8
BLACK
6
CONTINUOUS
10
127.199
20
-110.054
11
127.199
21
-109.212
0
LINE
8
BLACK
6
CONTINUOUS
10
127.199
20
-109.212
11
126.357
21
-109.212
0
LINE
8
BLACK
6
CONTINUOUS
10
126.357
20
-109.212
11
126.357
21
-110.054
0
LINE
8
BLACK
6
CONTINUOUS
10
126.357
20
-110.054
11
127.199
21
-110.054
0
LINE
8
BLACK
6
CONTINUOUS
10
129.739
20
-110.054
11
129.739
21
-109.212
0
LINE
8
BLACK
6
CONTINUOUS
10
129.739
20
-109.212
11
128.897
21
-109.212
0
LINE
8
BLACK
6
CONTINUOUS
10
128.897
20
-109.212
11
128.897
21
-110.054
0
LINE
8
BLACK
6
CONTINUOUS
10
128.897
20
-110.054
11
129.739
21
-110.054
0
LINE
8
BLACK
6
CONTINUOUS
10
132.279
20
-110.054
11
132.279
21
-109.212
0
LINE
8
BLACK
6
CONTINUOUS
10
132.279
20
-109.212
11
131.437
21
-109.212
0
LINE
8
BLACK
6
CONTINUOUS
10
131.437
20
-109.212
11
131.437
21
-110.054
0
LINE
8
BLACK
6
CONTINUOUS
10
131.437
20
-110.054
11
132.279
21
-110.054
0
LINE
8
BLACK
6
CONTINUOUS
10
134.819
20
-110.054
11
134.819
21
-109.212
0
LINE
8
BLACK
6
CONTINUOUS
10
134.819
20
-109.212
11
133.977
21
-109.212
0
LINE
8
BLACK
6
CONTINUOUS
10
133.977
20
-109.212
11
133.977
21
-110.054
0
LINE
8
BLACK
6
CONTINUOUS
10
133.977
20
-110.054
11
134.819
21
-110.054
0
LINE
8
BLACK
6
CONTINUOUS
10
137.359
20
-110.054
11
137.359
21
-109.212
0
LINE
8
BLACK
6
CONTINUOUS
10
137.359
20
-109.212
11
136.517
21
-109.212
0
LINE
8
BLACK
6
CONTINUOUS
10
136.517
20
-109.212
11
136.517
21
-110.054
0
LINE
8
BLACK
6
CONTINUOUS
10
136.517
20
-110.054
11
137.359
21
-110.054
0
LINE
8
BLACK
6
CONTINUOUS
10
139.899
20
-110.054
11
139.899
21
-109.212
0
LINE
8
BLACK
6
CONTINUOUS
10
139.899
20
-109.212
11
139.057
21
-109.212
0
LINE
8
BLACK
6
CONTINUOUS
10
139.057
20
-109.212
11
139.057
21
-110.054
0
LINE
8
BLACK
6
CONTINUOUS
10
139.057
20
-110.054
11
139.899
21
-110.054
0
LINE
8
BLACK
6
CONTINUOUS
10
142.439
20
-110.054
11
142.439
21
-109.212
0
LINE
8
BLACK
6
CONTINUOUS
10
142.439
20
-109.212
11
141.597
21
-109.212
0
LINE
8
BLACK
6
CONTINUOUS
10
141.597
20
-109.212
11
141.597
21
-110.054
0
LINE
8
BLACK
6
CONTINUOUS
10
141.597
20
-110.054
11
142.439
21
-110.054
0
LINE
8
BLACK
6
CONTINUOUS
10
151.075
20
-108.53
11
151.075
21
-107.688
0
LINE
8
BLACK
6
CONTINUOUS
10
151.075
20
-107.688
11
150.233
21
-107.688
0
LINE
8
BLACK
6
CONTINUOUS
10
150.233
20
-107.688
11
150.233
21
-108.53
0
LINE
8
BLACK
6
CONTINUOUS
10
150.233
20
-108.53
11
151.075
21
-108.53
0
LINE
8
BLACK
6
CONTINUOUS
10
153.615
20
-108.53
11
153.615
21
-107.688
0
LINE
8
BLACK
6
CONTINUOUS
10
153.615
20
-107.688
11
152.773
21
-107.688
0
LINE
8
BLACK
6
CONTINUOUS
10
152.773
20
-107.688
11
152.773
21
-108.53
0
LINE
8
BLACK
6
CONTINUOUS
10
152.773
20
-108.53
11
153.615
21
-108.53
0
LINE
8
BLACK
6
CONTINUOUS
10
156.155
20
-108.53
11
156.155
21
-107.688
0
LINE
8
BLACK
6
CONTINUOUS
10
156.155
20
-107.688
11
155.313
21
-107.688
0
LINE
8
BLACK
6
CONTINUOUS
10
155.313
20
-107.688
11
155.313
21
-108.53
0
LINE
8
BLACK
6
CONTINUOUS
10
155.313
20
-108.53
11
156.155
21
-108.53
0
LINE
8
BLACK
6
CONTINUOUS
10
158.695
20
-108.53
11
158.695
21
-107.688
0
LINE
8
BLACK
6
CONTINUOUS
10
158.695
20
-107.688
11
157.853
21
-107.688
0
LINE
8
BLACK
6
CONTINUOUS
10
157.853
20
-107.688
11
157.853
21
-108.53
0
LINE
8
BLACK
6
CONTINUOUS
10
157.853
20
-108.53
11
158.695
21
-108.53
0
LINE
8
BLACK
6
CONTINUOUS
10
161.235
20
-108.53
11
161.235
21
-107.688
0
LINE
8
BLACK
6
CONTINUOUS
10
161.235
20
-107.688
11
160.393
21
-107.688
0
LINE
8
BLACK
6
CONTINUOUS
10
160.393
20
-107.688
11
160.393
21
-108.53
0
LINE
8
BLACK
6
CONTINUOUS
10
160.393
20
-108.53
11
161.235
21
-108.53
0
LINE
8
BLACK
6
CONTINUOUS
10
163.775
20
-108.53
11
163.775
21
-107.688
0
LINE
8
BLACK
6
CONTINUOUS
10
163.775
20
-107.688
11
162.933
21
-107.688
0
LINE
8
BLACK
6
CONTINUOUS
10
162.933
20
-107.688
11
162.933
21
-108.53
0
LINE
8
BLACK
6
CONTINUOUS
10
162.933
20
-108.53
11
163.775
21
-108.53
0
LINE
8
BLACK
6
CONTINUOUS
10
166.315
20
-108.53
11
166.315
21
-107.688
0
LINE
8
BLACK
6
CONTINUOUS
10
166.315
20
-107.688
11
165.473
21
-107.688
0
LINE
8
BLACK
6
CONTINUOUS
10
165.473
20
-107.688
11
165.473
21
-108.53
0
LINE
8
BLACK
6
CONTINUOUS
10
165.473
20
-108.53
11
166.315
21
-108.53
0
LINE
8
BLACK
6
CONTINUOUS
10
168.855
20
-108.53
11
168.855
21
-107.688
0
LINE
8
BLACK
6
CONTINUOUS
10
168.855
20
-107.688
11
168.013
21
-107.688
0
LINE
8
BLACK
6
CONTINUOUS
10
168.013
20
-107.688
11
168.013
21
-108.53
0
LINE
8
BLACK
6
CONTINUOUS
10
168.013
20
-108.53
11
168.855
21
-108.53
0
LINE
8
BLACK
6
CONTINUOUS
10
149.043
20
-117.166
11
149.043
21
-116.324
0
LINE
8
BLACK
6
CONTINUOUS
10
149.043
20
-116.324
11
148.201
21
-116.324
0
LINE
8
BLACK
6
CONTINUOUS
10
148.201
20
-116.324
11
148.201
21
-117.166
0
LINE
8
BLACK
6
CONTINUOUS
10
148.201
20
-117.166
11
149.043
21
-117.166
0
LINE
8
BLACK
6
CONTINUOUS
10
151.583
20
-117.166
11
151.583
21
-116.324
0
LINE
8
BLACK
6
CONTINUOUS
10
151.583
20
-116.324
11
150.741
21
-116.324
0
LINE
8
BLACK
6
CONTINUOUS
10
150.741
20
-116.324
11
150.741
21
-117.166
0
LINE
8
BLACK
6
CONTINUOUS
10
150.741
20
-117.166
11
151.583
21
-117.166
0
LINE
8
BLACK
6
CONTINUOUS
10
154.123
20
-117.166
11
154.123
21
-116.324
0
LINE
8
BLACK
6
CONTINUOUS
10
154.123
20
-116.324
11
153.281
21
-116.324
0
LINE
8
BLACK
6
CONTINUOUS
10
153.281
20
-116.324
11
153.281
21
-117.166
0
LINE
8
BLACK
6
CONTINUOUS
10
153.281
20
-117.166
11
154.123
21
-117.166
0
LINE
8
BLACK
6
CONTINUOUS
10
129.231
20
-117.928
11
129.231
21
-117.086
0
LINE
8
BLACK
6
CONTINUOUS
10
129.231
20
-117.086
11
128.389
21
-117.086
0
LINE
8
BLACK
6
CONTINUOUS
10
128.389
20
-117.086
11
128.389
21
-117.928
0
LINE
8
BLACK
6
CONTINUOUS
10
128.389
20
-117.928
11
129.231
21
-117.928
0
LINE
8
BLACK
6
CONTINUOUS
10
131.771
20
-117.928
11
131.771
21
-117.086
0
LINE
8
BLACK
6
CONTINUOUS
10
131.771
20
-117.086
11
130.929
21
-117.086
0
LINE
8
BLACK
6
CONTINUOUS
10
130.929
20
-117.086
11
130.929
21
-117.928
0
LINE
8
BLACK
6
CONTINUOUS
10
130.929
20
-117.928
11
131.771
21
-117.928
0
LINE
8
BLACK
6
CONTINUOUS
10
134.311
20
-117.928
11
134.311
21
-117.086
0
LINE
8
BLACK
6
CONTINUOUS
10
134.311
20
-117.086
11
133.469
21
-117.086
0
LINE
8
BLACK
6
CONTINUOUS
10
133.469
20
-117.086
11
133.469
21
-117.928
0
LINE
8
BLACK
6
CONTINUOUS
10
133.469
20
-117.928
11
134.311
21
-117.928
0
LINE
8
BLACK
6
CONTINUOUS
10
136.851
20
-117.928
11
136.851
21
-117.086
0
LINE
8
BLACK
6
CONTINUOUS
10
136.851
20
-117.086
11
136.009
21
-117.086
0
LINE
8
BLACK
6
CONTINUOUS
10
136.009
20
-117.086
11
136.009
21
-117.928
0
LINE
8
BLACK
6
CONTINUOUS
10
136.009
20
-117.928
11
136.851
21
-117.928
0
LINE
8
BLACK
6
CONTINUOUS
10
139.391
20
-117.928
11
139.391
21
-117.086
0
LINE
8
BLACK
6
CONTINUOUS
10
139.391
20
-117.086
11
138.549
21
-117.086
0
LINE
8
BLACK
6
CONTINUOUS
10
138.549
20
-117.086
11
138.549
21
-117.928
0
LINE
8
BLACK
6
CONTINUOUS
10
138.549
20
-117.928
11
139.391
21
-117.928
0
LINE
8
BLACK
6
CONTINUOUS
10
141.931
20
-117.928
11
141.931
21
-117.086
0
LINE
8
BLACK
6
CONTINUOUS
10
141.931
20
-117.086
11
141.089
21
-117.086
0
LINE
8
BLACK
6
CONTINUOUS
10
141.089
20
-117.086
11
141.089
21
-117.928
0
LINE
8
BLACK
6
CONTINUOUS
10
141.089
20
-117.928
11
141.931
21
-117.928
0
LINE
8
BLACK
6
CONTINUOUS
10
103.634
20
-127.09
11
103.634
21
-124.09
0
LINE
8
BLACK
6
CONTINUOUS
10
103.634
20
-124.09
11
104.348
21
-124.09
0
LINE
8
BLACK
6
CONTINUOUS
10
104.348
20
-124.09
11
104.777
21
-124.233
0
LINE
8
BLACK
6
CONTINUOUS
10
104.777
20
-124.233
11
105.063
21
-124.518
0
LINE
8
BLACK
6
CONTINUOUS
10
105.063
20
-124.518
11
105.205
21
-124.804
0
LINE
8
BLACK
6
CONTINUOUS
10
105.205
20
-124.804
11
105.348
21
-125.376
0
LINE
8
BLACK
6
CONTINUOUS
10
105.348
20
-125.376
11
105.348
21
-125.804
0
LINE
8
BLACK
6
CONTINUOUS
10
105.348
20
-125.804
11
105.205
21
-126.376
0
LINE
8
BLACK
6
CONTINUOUS
10
105.205
20
-126.376
11
105.063
21
-126.661
0
LINE
8
BLACK
6
CONTINUOUS
10
105.063
20
-126.661
11
104.777
21
-126.947
0
LINE
8
BLACK
6
CONTINUOUS
10
104.777
20
-126.947
11
104.348
21
-127.09
0
LINE
8
BLACK
6
CONTINUOUS
10
104.348
20
-127.09
11
103.634
21
-127.09
0
LINE
8
BLACK
6
CONTINUOUS
10
106.634
20
-127.09
11
106.634
21
-125.09
0
LINE
8
BLACK
6
CONTINUOUS
10
106.634
20
-125.661
11
106.777
21
-125.376
0
LINE
8
BLACK
6
CONTINUOUS
10
106.777
20
-125.376
11
106.92
21
-125.233
0
LINE
8
BLACK
6
CONTINUOUS
10
106.92
20
-125.233
11
107.205
21
-125.09
0
LINE
8
BLACK
6
CONTINUOUS
10
107.205
20
-125.09
11
107.491
21
-125.09
0
LINE
8
BLACK
6
CONTINUOUS
10
108.491
20
-127.09
11
108.491
21
-125.09
0
LINE
8
BLACK
6
CONTINUOUS
10
108.491
20
-124.09
11
108.348
21
-124.233
0
LINE
8
BLACK
6
CONTINUOUS
10
108.348
20
-124.233
11
108.491
21
-124.376
0
LINE
8
BLACK
6
CONTINUOUS
10
108.491
20
-124.376
11
108.634
21
-124.233
0
LINE
8
BLACK
6
CONTINUOUS
10
108.634
20
-124.233
11
108.491
21
-124.09
0
LINE
8
BLACK
6
CONTINUOUS
10
108.491
20
-124.09
11
108.491
21
-124.376
0
LINE
8
BLACK
6
CONTINUOUS
10
110.348
20
-127.09
11
110.063
21
-126.947
0
LINE
8
BLACK
6
CONTINUOUS
10
110.063
20
-126.947
11
109.92
21
-126.661
0
LINE
8
BLACK
6
CONTINUOUS
10
109.92
20
-126.661
11
109.92
21
-124.09
0
LINE
8
BLACK
6
CONTINUOUS
10
111.92
20
-127.09
11
111.634
21
-126.947
0
LINE
8
BLACK
6
CONTINUOUS
10
111.634
20
-126.947
11
111.491
21
-126.661
0
LINE
8
BLACK
6
CONTINUOUS
10
111.491
20
-126.661
11
111.491
21
-124.09
0
LINE
8
BLACK
6
CONTINUOUS
10
115.348
20
-127.09
11
115.348
21
-124.09
0
LINE
8
BLACK
6
CONTINUOUS
10
115.348
20
-124.09
11
116.348
21
-126.233
0
LINE
8
BLACK
6
CONTINUOUS
10
116.348
20
-126.233
11
117.348
21
-124.09
0
LINE
8
BLACK
6
CONTINUOUS
10
117.348
20
-124.09
11
117.348
21
-127.09
0
LINE
8
BLACK
6
CONTINUOUS
10
120.063
20
-127.09
11
120.063
21
-125.518
0
LINE
8
BLACK
6
CONTINUOUS
10
120.063
20
-125.518
11
119.92
21
-125.233
0
LINE
8
BLACK
6
CONTINUOUS
10
119.92
20
-125.233
11
119.634
21
-125.09
0
LINE
8
BLACK
6
CONTINUOUS
10
119.634
20
-125.09
11
119.063
21
-125.09
0
LINE
8
BLACK
6
CONTINUOUS
10
119.063
20
-125.09
11
118.777
21
-125.233
0
LINE
8
BLACK
6
CONTINUOUS
10
120.063
20
-126.947
11
119.777
21
-127.09
0
LINE
8
BLACK
6
CONTINUOUS
10
119.777
20
-127.09
11
119.063
21
-127.09
0
LINE
8
BLACK
6
CONTINUOUS
10
119.063
20
-127.09
11
118.777
21
-126.947
0
LINE
8
BLACK
6
CONTINUOUS
10
118.777
20
-126.947
11
118.634
21
-126.661
0
LINE
8
BLACK
6
CONTINUOUS
10
118.634
20
-126.661
11
118.634
21
-126.376
0
LINE
8
BLACK
6
CONTINUOUS
10
118.634
20
-126.376
11
118.777
21
-126.09
0
LINE
8
BLACK
6
CONTINUOUS
10
118.777
20
-126.09
11
119.063
21
-125.947
0
LINE
8
BLACK
6
CONTINUOUS
10
119.063
20
-125.947
11
119.777
21
-125.947
0
LINE
8
BLACK
6
CONTINUOUS
10
119.777
20
-125.947
11
120.063
21
-125.804
0
LINE
8
BLACK
6
CONTINUOUS
10
121.491
20
-125.09
11
121.491
21
-128.09
0
LINE
8
BLACK
6
CONTINUOUS
10
121.491
20
-125.233
11
121.777
21
-125.09
0
LINE
8
BLACK
6
CONTINUOUS
10
121.777
20
-125.09
11
122.348
21
-125.09
0
LINE
8
BLACK
6
CONTINUOUS
10
122.348
20
-125.09
11
122.634
21
-125.233
0
LINE
8
BLACK
6
CONTINUOUS
10
122.634
20
-125.233
11
122.777
21
-125.376
0
LINE
8
BLACK
6
CONTINUOUS
10
122.777
20
-125.376
11
122.92
21
-125.661
0
LINE
8
BLACK
6
CONTINUOUS
10
122.92
20
-125.661
11
122.92
21
-126.518
0
LINE
8
BLACK
6
CONTINUOUS
10
122.92
20
-126.518
11
122.777
21
-126.804
0
LINE
8
BLACK
6
CONTINUOUS
10
122.777
20
-126.804
11
122.634
21
-126.947
0
LINE
8
BLACK
6
CONTINUOUS
10
122.634
20
-126.947
11
122.348
21
-127.09
0
LINE
8
BLACK
6
CONTINUOUS
10
122.348
20
-127.09
11
121.777
21
-127.09
0
LINE
8
BLACK
6
CONTINUOUS
10
121.777
20
-127.09
11
121.491
21
-126.947
0
LINE
8
BLACK
6
CONTINUOUS
10
124.205
20
-126.804
11
124.348
21
-126.947
0
LINE
8
BLACK
6
CONTINUOUS
10
124.348
20
-126.947
11
124.205
21
-127.09
0
LINE
8
BLACK
6
CONTINUOUS
10
124.205
20
-127.09
11
124.063
21
-126.947
0
LINE
8
BLACK
6
CONTINUOUS
10
124.063
20
-126.947
11
124.205
21
-126.804
0
LINE
8
BLACK
6
CONTINUOUS
10
124.205
20
-126.804
11
124.205
21
-127.09
0
LINE
8
BLACK
6
CONTINUOUS
10
124.205
20
-125.233
11
124.348
21
-125.376
0
LINE
8
BLACK
6
CONTINUOUS
10
124.348
20
-125.376
11
124.205
21
-125.518
0
LINE
8
BLACK
6
CONTINUOUS
10
124.205
20
-125.518
11
124.063
21
-125.376
0
LINE
8
BLACK
6
CONTINUOUS
10
124.063
20
-125.376
11
124.205
21
-125.233
0
LINE
8
BLACK
6
CONTINUOUS
10
124.205
20
-125.233
11
124.205
21
-125.518
0
LINE
8
BLACK
6
CONTINUOUS
10
100.008
20
-131.652
11
100.77
21
-132.414
0
LINE
8
BLACK
6
CONTINUOUS
10
100.77
20
-131.652
11
100.008
21
-132.414
0
LINE
8
BLACK
6
CONTINUOUS
10
104.205
20
-130.39
11
104.491
21
-130.39
0
LINE
8
BLACK
6
CONTINUOUS
10
104.491
20
-130.39
11
104.777
21
-130.533
0
LINE
8
BLACK
6
CONTINUOUS
10
104.777
20
-130.533
11
104.92
21
-130.676
0
LINE
8
BLACK
6
CONTINUOUS
10
104.92
20
-130.676
11
105.063
21
-130.961
0
LINE
8
BLACK
6
CONTINUOUS
10
105.063
20
-130.961
11
105.205
21
-131.533
0
LINE
8
BLACK
6
CONTINUOUS
10
105.205
20
-131.533
11
105.205
21
-132.247
0
LINE
8
BLACK
6
CONTINUOUS
10
105.205
20
-132.247
11
105.063
21
-132.818
0
LINE
8
BLACK
6
CONTINUOUS
10
105.063
20
-132.818
11
104.92
21
-133.104
0
LINE
8
BLACK
6
CONTINUOUS
10
104.92
20
-133.104
11
104.777
21
-133.247
0
LINE
8
BLACK
6
CONTINUOUS
10
104.777
20
-133.247
11
104.491
21
-133.39
0
LINE
8
BLACK
6
CONTINUOUS
10
104.491
20
-133.39
11
104.205
21
-133.39
0
LINE
8
BLACK
6
CONTINUOUS
10
104.205
20
-133.39
11
103.92
21
-133.247
0
LINE
8
BLACK
6
CONTINUOUS
10
103.92
20
-133.247
11
103.777
21
-133.104
0
LINE
8
BLACK
6
CONTINUOUS
10
103.777
20
-133.104
11
103.634
21
-132.818
0
LINE
8
BLACK
6
CONTINUOUS
10
103.634
20
-132.818
11
103.491
21
-132.247
0
LINE
8
BLACK
6
CONTINUOUS
10
103.491
20
-132.247
11
103.491
21
-131.533
0
LINE
8
BLACK
6
CONTINUOUS
10
103.491
20
-131.533
11
103.634
21
-130.961
0
LINE
8
BLACK
6
CONTINUOUS
10
103.634
20
-130.961
11
103.777
21
-130.676
0
LINE
8
BLACK
6
CONTINUOUS
10
103.777
20
-130.676
11
103.92
21
-130.533
0
LINE
8
BLACK
6
CONTINUOUS
10
103.92
20
-130.533
11
104.205
21
-130.39
0
LINE
8
BLACK
6
CONTINUOUS
10
106.491
20
-133.104
11
106.634
21
-133.247
0
LINE
8
BLACK
6
CONTINUOUS
10
106.634
20
-133.247
11
106.491
21
-133.39
0
LINE
8
BLACK
6
CONTINUOUS
10
106.491
20
-133.39
11
106.348
21
-133.247
0
LINE
8
BLACK
6
CONTINUOUS
10
106.348
20
-133.247
11
106.491
21
-133.104
0
LINE
8
BLACK
6
CONTINUOUS
10
106.491
20
-133.104
11
106.491
21
-133.39
0
LINE
8
BLACK
6
CONTINUOUS
10
107.634
20
-130.39
11
109.634
21
-130.39
0
LINE
8
BLACK
6
CONTINUOUS
10
109.634
20
-130.39
11
108.348
21
-133.39
0
LINE
8
BLACK
6
CONTINUOUS
10
112.063
20
-130.39
11
111.491
21
-130.39
0
LINE
8
BLACK
6
CONTINUOUS
10
111.491
20
-130.39
11
111.205
21
-130.533
0
LINE
8
BLACK
6
CONTINUOUS
10
111.205
20
-130.533
11
111.063
21
-130.676
0
LINE
8
BLACK
6
CONTINUOUS
10
111.063
20
-130.676
11
110.777
21
-131.104
0
LINE
8
BLACK
6
CONTINUOUS
10
110.777
20
-131.104
11
110.634
21
-131.676
0
LINE
8
BLACK
6
CONTINUOUS
10
110.634
20
-131.676
11
110.634
21
-132.818
0
LINE
8
BLACK
6
CONTINUOUS
10
110.634
20
-132.818
11
110.777
21
-133.104
0
LINE
8
BLACK
6
CONTINUOUS
10
110.777
20
-133.104
11
110.92
21
-133.247
0
LINE
8
BLACK
6
CONTINUOUS
10
110.92
20
-133.247
11
111.205
21
-133.39
0
LINE
8
BLACK
6
CONTINUOUS
10
111.205
20
-133.39
11
111.777
21
-133.39
0
LINE
8
BLACK
6
CONTINUOUS
10
111.777
20
-133.39
11
112.063
21
-133.247
0
LINE
8
BLACK
6
CONTINUOUS
10
112.063
20
-133.247
11
112.205
21
-133.104
0
LINE
8
BLACK
6
CONTINUOUS
10
112.205
20
-133.104
11
112.348
21
-132.818
0
LINE
8
BLACK
6
CONTINUOUS
10
112.348
20
-132.818
11
112.348
21
-132.104
0
LINE
8
BLACK
6
CONTINUOUS
10
112.348
20
-132.104
11
112.205
21
-131.818
0
LINE
8
BLACK
6
CONTINUOUS
10
112.205
20
-131.818
11
112.063
21
-131.676
0
LINE
8
BLACK
6
CONTINUOUS
10
112.063
20
-131.676
11
111.777
21
-131.533
0
LINE
8
BLACK
6
CONTINUOUS
10
111.777
20
-131.533
11
111.205
21
-131.533
0
LINE
8
BLACK
6
CONTINUOUS
10
111.205
20
-131.533
11
110.92
21
-131.676
0
LINE
8
BLACK
6
CONTINUOUS
10
110.92
20
-131.676
11
110.777
21
-131.818
0
LINE
8
BLACK
6
CONTINUOUS
10
110.777
20
-131.818
11
110.634
21
-132.104
0
LINE
8
BLACK
6
CONTINUOUS
10
113.634
20
-133.39
11
113.634
21
-131.39
0
LINE
8
BLACK
6
CONTINUOUS
10
113.634
20
-131.676
11
113.777
21
-131.533
0
LINE
8
BLACK
6
CONTINUOUS
10
113.777
20
-131.533
11
114.063
21
-131.39
0
LINE
8
BLACK
6
CONTINUOUS
10
114.063
20
-131.39
11
114.491
21
-131.39
0
LINE
8
BLACK
6
CONTINUOUS
10
114.491
20
-131.39
11
114.777
21
-131.533
0
LINE
8
BLACK
6
CONTINUOUS
10
114.777
20
-131.533
11
114.92
21
-131.818
0
LINE
8
BLACK
6
CONTINUOUS
10
114.92
20
-131.818
11
114.92
21
-133.39
0
LINE
8
BLACK
6
CONTINUOUS
10
114.92
20
-131.818
11
115.063
21
-131.533
0
LINE
8
BLACK
6
CONTINUOUS
10
115.063
20
-131.533
11
115.348
21
-131.39
0
LINE
8
BLACK
6
CONTINUOUS
10
115.348
20
-131.39
11
115.777
21
-131.39
0
LINE
8
BLACK
6
CONTINUOUS
10
115.777
20
-131.39
11
116.063
21
-131.533
0
LINE
8
BLACK
6
CONTINUOUS
10
116.063
20
-131.533
11
116.205
21
-131.818
0
LINE
8
BLACK
6
CONTINUOUS
10
116.205
20
-131.818
11
116.205
21
-133.39
0
LINE
8
BLACK
6
CONTINUOUS
10
117.634
20
-133.39
11
117.634
21
-131.39
0
LINE
8
BLACK
6
CONTINUOUS
10
117.634
20
-131.676
11
117.777
21
-131.533
0
LINE
8
BLACK
6
CONTINUOUS
10
117.777
20
-131.533
11
118.063
21
-131.39
0
LINE
8
BLACK
6
CONTINUOUS
10
118.063
20
-131.39
11
118.491
21
-131.39
0
LINE
8
BLACK
6
CONTINUOUS
10
118.491
20
-131.39
11
118.777
21
-131.533
0
LINE
8
BLACK
6
CONTINUOUS
10
118.777
20
-131.533
11
118.92
21
-131.818
0
LINE
8
BLACK
6
CONTINUOUS
10
118.92
20
-131.818
11
118.92
21
-133.39
0
LINE
8
BLACK
6
CONTINUOUS
10
118.92
20
-131.818
11
119.063
21
-131.533
0
LINE
8
BLACK
6
CONTINUOUS
10
119.063
20
-131.533
11
119.348
21
-131.39
0
LINE
8
BLACK
6
CONTINUOUS
10
119.348
20
-131.39
11
119.777
21
-131.39
0
LINE
8
BLACK
6
CONTINUOUS
10
119.777
20
-131.39
11
120.063
21
-131.533
0
LINE
8
BLACK
6
CONTINUOUS
10
120.063
20
-131.533
11
120.205
21
-131.818
0
LINE
8
BLACK
6
CONTINUOUS
10
120.205
20
-131.818
11
120.205
21
-133.39
0
LINE
8
BLACK
6
CONTINUOUS
10
126.063
20
-130.247
11
123.491
21
-134.104
0
LINE
8
BLACK
6
CONTINUOUS
10
129.92
20
-130.39
11
130.205
21
-130.39
0
LINE
8
BLACK
6
CONTINUOUS
10
130.205
20
-130.39
11
130.491
21
-130.533
0
LINE
8
BLACK
6
CONTINUOUS
10
130.491
20
-130.533
11
130.634
21
-130.676
0
LINE
8
BLACK
6
CONTINUOUS
10
130.634
20
-130.676
11
130.777
21
-130.961
0
LINE
8
BLACK
6
CONTINUOUS
10
130.777
20
-130.961
11
130.92
21
-131.533
0
LINE
8
BLACK
6
CONTINUOUS
10
130.92
20
-131.533
11
130.92
21
-132.247
0
LINE
8
BLACK
6
CONTINUOUS
10
130.92
20
-132.247
11
130.777
21
-132.818
0
LINE
8
BLACK
6
CONTINUOUS
10
130.777
20
-132.818
11
130.634
21
-133.104
0
LINE
8
BLACK
6
CONTINUOUS
10
130.634
20
-133.104
11
130.491
21
-133.247
0
LINE
8
BLACK
6
CONTINUOUS
10
130.491
20
-133.247
11
130.205
21
-133.39
0
LINE
8
BLACK
6
CONTINUOUS
10
130.205
20
-133.39
11
129.92
21
-133.39
0
LINE
8
BLACK
6
CONTINUOUS
10
129.92
20
-133.39
11
129.634
21
-133.247
0
LINE
8
BLACK
6
CONTINUOUS
10
129.634
20
-133.247
11
129.491
21
-133.104
0
LINE
8
BLACK
6
CONTINUOUS
10
129.491
20
-133.104
11
129.348
21
-132.818
0
LINE
8
BLACK
6
CONTINUOUS
10
129.348
20
-132.818
11
129.205
21
-132.247
0
LINE
8
BLACK
6
CONTINUOUS
10
129.205
20
-132.247
11
129.205
21
-131.533
0
LINE
8
BLACK
6
CONTINUOUS
10
129.205
20
-131.533
11
129.348
21
-130.961
0
LINE
8
BLACK
6
CONTINUOUS
10
129.348
20
-130.961
11
129.491
21
-130.676
0
LINE
8
BLACK
6
CONTINUOUS
10
129.491
20
-130.676
11
129.634
21
-130.533
0
LINE
8
BLACK
6
CONTINUOUS
10
129.634
20
-130.533
11
129.92
21
-130.39
0
LINE
8
BLACK
6
CONTINUOUS
10
132.205
20
-133.104
11
132.348
21
-133.247
0
LINE
8
BLACK
6
CONTINUOUS
10
132.348
20
-133.247
11
132.205
21
-133.39
0
LINE
8
BLACK
6
CONTINUOUS
10
132.205
20
-133.39
11
132.063
21
-133.247
0
LINE
8
BLACK
6
CONTINUOUS
10
132.063
20
-133.247
11
132.205
21
-133.104
0
LINE
8
BLACK
6
CONTINUOUS
10
132.205
20
-133.104
11
132.205
21
-133.39
0
LINE
8
BLACK
6
CONTINUOUS
10
134.205
20
-130.39
11
134.491
21
-130.39
0
LINE
8
BLACK
6
CONTINUOUS
10
134.491
20
-130.39
11
134.777
21
-130.533
0
LINE
8
BLACK
6
CONTINUOUS
10
134.777
20
-130.533
11
134.92
21
-130.676
0
LINE
8
BLACK
6
CONTINUOUS
10
134.92
20
-130.676
11
135.063
21
-130.961
0
LINE
8
BLACK
6
CONTINUOUS
10
135.063
20
-130.961
11
135.205
21
-131.533
0
LINE
8
BLACK
6
CONTINUOUS
10
135.205
20
-131.533
11
135.205
21
-132.247
0
LINE
8
BLACK
6
CONTINUOUS
10
135.205
20
-132.247
11
135.063
21
-132.818
0
LINE
8
BLACK
6
CONTINUOUS
10
135.063
20
-132.818
11
134.92
21
-133.104
0
LINE
8
BLACK
6
CONTINUOUS
10
134.92
20
-133.104
11
134.777
21
-133.247
0
LINE
8
BLACK
6
CONTINUOUS
10
134.777
20
-133.247
11
134.491
21
-133.39
0
LINE
8
BLACK
6
CONTINUOUS
10
134.491
20
-133.39
11
134.205
21
-133.39
0
LINE
8
BLACK
6
CONTINUOUS
10
134.205
20
-133.39
11
133.92
21
-133.247
0
LINE
8
BLACK
6
CONTINUOUS
10
133.92
20
-133.247
11
133.777
21
-133.104
0
LINE
8
BLACK
6
CONTINUOUS
10
133.777
20
-133.104
11
133.634
21
-132.818
0
LINE
8
BLACK
6
CONTINUOUS
10
133.634
20
-132.818
11
133.491
21
-132.247
0
LINE
8
BLACK
6
CONTINUOUS
10
133.491
20
-132.247
11
133.491
21
-131.533
0
LINE
8
BLACK
6
CONTINUOUS
10
133.491
20
-131.533
11
133.634
21
-130.961
0
LINE
8
BLACK
6
CONTINUOUS
10
133.634
20
-130.961
11
133.777
21
-130.676
0
LINE
8
BLACK
6
CONTINUOUS
10
133.777
20
-130.676
11
133.92
21
-130.533
0
LINE
8
BLACK
6
CONTINUOUS
10
133.92
20
-130.533
11
134.205
21
-130.39
0
LINE
8
BLACK
6
CONTINUOUS
10
136.205
20
-130.39
11
138.063
21
-130.39
0
LINE
8
BLACK
6
CONTINUOUS
10
138.063
20
-130.39
11
137.063
21
-131.533
0
LINE
8
BLACK
6
CONTINUOUS
10
137.063
20
-131.533
11
137.491
21
-131.533
0
LINE
8
BLACK
6
CONTINUOUS
10
137.491
20
-131.533
11
137.777
21
-131.676
0
LINE
8
BLACK
6
CONTINUOUS
10
137.777
20
-131.676
11
137.92
21
-131.818
0
LINE
8
BLACK
6
CONTINUOUS
10
137.92
20
-131.818
11
138.063
21
-132.104
0
LINE
8
BLACK
6
CONTINUOUS
10
138.063
20
-132.104
11
138.063
21
-132.818
0
LINE
8
BLACK
6
CONTINUOUS
10
138.063
20
-132.818
11
137.92
21
-133.104
0
LINE
8
BLACK
6
CONTINUOUS
10
137.92
20
-133.104
11
137.777
21
-133.247
0
LINE
8
BLACK
6
CONTINUOUS
10
137.777
20
-133.247
11
137.491
21
-133.39
0
LINE
8
BLACK
6
CONTINUOUS
10
137.491
20
-133.39
11
136.634
21
-133.39
0
LINE
8
BLACK
6
CONTINUOUS
10
136.634
20
-133.39
11
136.348
21
-133.247
0
LINE
8
BLACK
6
CONTINUOUS
10
136.348
20
-133.247
11
136.205
21
-133.104
0
LINE
8
BLACK
6
CONTINUOUS
10
139.92
20
-130.39
11
140.205
21
-130.39
0
LINE
8
BLACK
6
CONTINUOUS
10
140.205
20
-130.39
11
140.491
21
-130.533
0
LINE
8
BLACK
6
CONTINUOUS
10
140.491
20
-130.533
11
140.634
21
-130.676
0
LINE
8
BLACK
6
CONTINUOUS
10
140.634
20
-130.676
11
140.777
21
-130.961
0
LINE
8
BLACK
6
CONTINUOUS
10
140.777
20
-130.961
11
140.92
21
-131.533
0
LINE
8
BLACK
6
CONTINUOUS
10
140.92
20
-131.533
11
140.92
21
-132.247
0
LINE
8
BLACK
6
CONTINUOUS
10
140.92
20
-132.247
11
140.777
21
-132.818
0
LINE
8
BLACK
6
CONTINUOUS
10
140.777
20
-132.818
11
140.634
21
-133.104
0
LINE
8
BLACK
6
CONTINUOUS
10
140.634
20
-133.104
11
140.491
21
-133.247
0
LINE
8
BLACK
6
CONTINUOUS
10
140.491
20
-133.247
11
140.205
21
-133.39
0
LINE
8
BLACK
6
CONTINUOUS
10
140.205
20
-133.39
11
139.92
21
-133.39
0
LINE
8
BLACK
6
CONTINUOUS
10
139.92
20
-133.39
11
139.634
21
-133.247
0
LINE
8
BLACK
6
CONTINUOUS
10
139.634
20
-133.247
11
139.491
21
-133.104
0
LINE
8
BLACK
6
CONTINUOUS
10
139.491
20
-133.104
11
139.348
21
-132.818
0
LINE
8
BLACK
6
CONTINUOUS
10
139.348
20
-132.818
11
139.205
21
-132.247
0
LINE
8
BLACK
6
CONTINUOUS
10
139.205
20
-132.247
11
139.205
21
-131.533
0
LINE
8
BLACK
6
CONTINUOUS
10
139.205
20
-131.533
11
139.348
21
-130.961
0
LINE
8
BLACK
6
CONTINUOUS
10
139.348
20
-130.961
11
139.491
21
-130.676
0
LINE
8
BLACK
6
CONTINUOUS
10
139.491
20
-130.676
11
139.634
21
-130.533
0
LINE
8
BLACK
6
CONTINUOUS
10
139.634
20
-130.533
11
139.92
21
-130.39
0
LINE
8
BLACK
6
CONTINUOUS
10
142.063
20
-130.39
11
142.063
21
-130.961
0
LINE
8
BLACK
6
CONTINUOUS
10
143.205
20
-130.39
11
143.205
21
-130.961
0
LINE
8
BLACK
6
CONTINUOUS
10
147.634
20
-134.533
11
147.491
21
-134.39
0
LINE
8
BLACK
6
CONTINUOUS
10
147.491
20
-134.39
11
147.205
21
-133.961
0
LINE
8
BLACK
6
CONTINUOUS
10
147.205
20
-133.961
11
147.063
21
-133.676
0
LINE
8
BLACK
6
CONTINUOUS
10
147.063
20
-133.676
11
146.92
21
-133.247
0
LINE
8
BLACK
6
CONTINUOUS
10
146.92
20
-133.247
11
146.777
21
-132.533
0
LINE
8
BLACK
6
CONTINUOUS
10
146.777
20
-132.533
11
146.777
21
-131.961
0
LINE
8
BLACK
6
CONTINUOUS
10
146.777
20
-131.961
11
146.92
21
-131.247
0
LINE
8
BLACK
6
CONTINUOUS
10
146.92
20
-131.247
11
147.063
21
-130.818
0
LINE
8
BLACK
6
CONTINUOUS
10
147.063
20
-130.818
11
147.205
21
-130.533
0
LINE
8
BLACK
6
CONTINUOUS
10
147.205
20
-130.533
11
147.491
21
-130.104
0
LINE
8
BLACK
6
CONTINUOUS
10
147.491
20
-130.104
11
147.634
21
-129.961
0
LINE
8
BLACK
6
CONTINUOUS
10
150.348
20
-133.39
11
148.634
21
-133.39
0
LINE
8
BLACK
6
CONTINUOUS
10
149.491
20
-133.39
11
149.491
21
-130.39
0
LINE
8
BLACK
6
CONTINUOUS
10
149.491
20
-130.39
11
149.205
21
-130.818
0
LINE
8
BLACK
6
CONTINUOUS
10
149.205
20
-130.818
11
148.92
21
-131.104
0
LINE
8
BLACK
6
CONTINUOUS
10
148.92
20
-131.104
11
148.634
21
-131.247
0
LINE
8
BLACK
6
CONTINUOUS
10
152.205
20
-130.39
11
152.491
21
-130.39
0
LINE
8
BLACK
6
CONTINUOUS
10
152.491
20
-130.39
11
152.777
21
-130.533
0
LINE
8
BLACK
6
CONTINUOUS
10
152.777
20
-130.533
11
152.92
21
-130.676
0
LINE
8
BLACK
6
CONTINUOUS
10
152.92
20
-130.676
11
153.063
21
-130.961
0
LINE
8
BLACK
6
CONTINUOUS
10
153.063
20
-130.961
11
153.205
21
-131.533
0
LINE
8
BLACK
6
CONTINUOUS
10
153.205
20
-131.533
11
153.205
21
-132.247
0
LINE
8
BLACK
6
CONTINUOUS
10
153.205
20
-132.247
11
153.063
21
-132.818
0
LINE
8
BLACK
6
CONTINUOUS
10
153.063
20
-132.818
11
152.92
21
-133.104
0
LINE
8
BLACK
6
CONTINUOUS
10
152.92
20
-133.104
11
152.777
21
-133.247
0
LINE
8
BLACK
6
CONTINUOUS
10
152.777
20
-133.247
11
152.491
21
-133.39
0
LINE
8
BLACK
6
CONTINUOUS
10
152.491
20
-133.39
11
152.205
21
-133.39
0
LINE
8
BLACK
6
CONTINUOUS
10
152.205
20
-133.39
11
151.92
21
-133.247
0
LINE
8
BLACK
6
CONTINUOUS
10
151.92
20
-133.247
11
151.777
21
-133.104
0
LINE
8
BLACK
6
CONTINUOUS
10
151.777
20
-133.104
11
151.634
21
-132.818
0
LINE
8
BLACK
6
CONTINUOUS
10
151.634
20
-132.818
11
151.491
21
-132.247
0
LINE
8
BLACK
6
CONTINUOUS
10
151.491
20
-132.247
11
151.491
21
-131.533
0
LINE
8
BLACK
6
CONTINUOUS
10
151.491
20
-131.533
11
151.634
21
-130.961
0
LINE
8
BLACK
6
CONTINUOUS
10
151.634
20
-130.961
11
151.777
21
-130.676
0
LINE
8
BLACK
6
CONTINUOUS
10
151.777
20
-130.676
11
151.92
21
-130.533
0
LINE
8
BLACK
6
CONTINUOUS
10
151.92
20
-130.533
11
152.205
21
-130.39
0
LINE
8
BLACK
6
CONTINUOUS
10
156.777
20
-133.39
11
156.777
21
-130.39
0
LINE
8
BLACK
6
CONTINUOUS
10
158.063
20
-133.39
11
158.063
21
-131.818
0
LINE
8
BLACK
6
CONTINUOUS
10
158.063
20
-131.818
11
157.92
21
-131.533
0
LINE
8
BLACK
6
CONTINUOUS
10
157.92
20
-131.533
11
157.634
21
-131.39
0
LINE
8
BLACK
6
CONTINUOUS
10
157.634
20
-131.39
11
157.205
21
-131.39
0
LINE
8
BLACK
6
CONTINUOUS
10
157.205
20
-131.39
11
156.92
21
-131.533
0
LINE
8
BLACK
6
CONTINUOUS
10
156.92
20
-131.533
11
156.777
21
-131.676
0
LINE
8
BLACK
6
CONTINUOUS
10
159.92
20
-133.39
11
159.634
21
-133.247
0
LINE
8
BLACK
6
CONTINUOUS
10
159.634
20
-133.247
11
159.491
21
-133.104
0
LINE
8
BLACK
6
CONTINUOUS
10
159.491
20
-133.104
11
159.348
21
-132.818
0
LINE
8
BLACK
6
CONTINUOUS
10
159.348
20
-132.818
11
159.348
21
-131.961
0
LINE
8
BLACK
6
CONTINUOUS
10
159.348
20
-131.961
11
159.491
21
-131.676
0
LINE
8
BLACK
6
CONTINUOUS
10
159.491
20
-131.676
11
159.634
21
-131.533
0
LINE
8
BLACK
6
CONTINUOUS
10
159.634
20
-131.533
11
159.92
21
-131.39
0
LINE
8
BLACK
6
CONTINUOUS
10
159.92
20
-131.39
11
160.348
21
-131.39
0
LINE
8
BLACK
6
CONTINUOUS
10
160.348
20
-131.39
11
160.634
21
-131.533
0
LINE
8
BLACK
6
CONTINUOUS
10
160.634
20
-131.533
11
160.777
21
-131.676
0
LINE
8
BLACK
6
CONTINUOUS
10
160.777
20
-131.676
11
160.92
21
-131.961
0
LINE
8
BLACK
6
CONTINUOUS
10
160.92
20
-131.961
11
160.92
21
-132.818
0
LINE
8
BLACK
6
CONTINUOUS
10
160.92
20
-132.818
11
160.777
21
-133.104
0
LINE
8
BLACK
6
CONTINUOUS
10
160.777
20
-133.104
11
160.634
21
-133.247
0
LINE
8
BLACK
6
CONTINUOUS
10
160.634
20
-133.247
11
160.348
21
-133.39
0
LINE
8
BLACK
6
CONTINUOUS
10
160.348
20
-133.39
11
159.92
21
-133.39
0
LINE
8
BLACK
6
CONTINUOUS
10
162.634
20
-133.39
11
162.348
21
-133.247
0
LINE
8
BLACK
6
CONTINUOUS
10
162.348
20
-133.247
11
162.205
21
-132.961
0
LINE
8
BLACK
6
CONTINUOUS
10
162.205
20
-132.961
11
162.205
21
-130.39
0
LINE
8
BLACK
6
CONTINUOUS
10
164.92
20
-133.247
11
164.634
21
-133.39
0
LINE
8
BLACK
6
CONTINUOUS
10
164.634
20
-133.39
11
164.063
21
-133.39
0
LINE
8
BLACK
6
CONTINUOUS
10
164.063
20
-133.39
11
163.777
21
-133.247
0
LINE
8
BLACK
6
CONTINUOUS
10
163.777
20
-133.247
11
163.634
21
-132.961
0
LINE
8
BLACK
6
CONTINUOUS
10
163.634
20
-132.961
11
163.634
21
-131.818
0
LINE
8
BLACK
6
CONTINUOUS
10
163.634
20
-131.818
11
163.777
21
-131.533
0
LINE
8
BLACK
6
CONTINUOUS
10
163.777
20
-131.533
11
164.063
21
-131.39
0
LINE
8
BLACK
6
CONTINUOUS
10
164.063
20
-131.39
11
164.634
21
-131.39
0
LINE
8
BLACK
6
CONTINUOUS
10
164.634
20
-131.39
11
164.92
21
-131.533
0
LINE
8
BLACK
6
CONTINUOUS
10
164.92
20
-131.533
11
165.063
21
-131.818
0
LINE
8
BLACK
6
CONTINUOUS
10
165.063
20
-131.818
11
165.063
21
-132.104
0
LINE
8
BLACK
6
CONTINUOUS
10
165.063
20
-132.104
11
163.634
21
-132.39
0
LINE
8
BLACK
6
CONTINUOUS
10
166.205
20
-133.247
11
166.491
21
-133.39
0
LINE
8
BLACK
6
CONTINUOUS
10
166.491
20
-133.39
11
167.063
21
-133.39
0
LINE
8
BLACK
6
CONTINUOUS
10
167.063
20
-133.39
11
167.348
21
-133.247
0
LINE
8
BLACK
6
CONTINUOUS
10
167.348
20
-133.247
11
167.491
21
-132.961
0
LINE
8
BLACK
6
CONTINUOUS
10
167.491
20
-132.961
11
167.491
21
-132.818
0
LINE
8
BLACK
6
CONTINUOUS
10
167.491
20
-132.818
11
167.348
21
-132.533
0
LINE
8
BLACK
6
CONTINUOUS
10
167.348
20
-132.533
11
167.063
21
-132.39
0
LINE
8
BLACK
6
CONTINUOUS
10
167.063
20
-132.39
11
166.634
21
-132.39
0
LINE
8
BLACK
6
CONTINUOUS
10
166.634
20
-132.39
11
166.348
21
-132.247
0
LINE
8
BLACK
6
CONTINUOUS
10
166.348
20
-132.247
11
166.205
21
-131.961
0
LINE
8
BLACK
6
CONTINUOUS
10
166.205
20
-131.961
11
166.205
21
-131.818
0
LINE
8
BLACK
6
CONTINUOUS
10
166.205
20
-131.818
11
166.348
21
-131.533
0
LINE
8
BLACK
6
CONTINUOUS
10
166.348
20
-131.533
11
166.634
21
-131.39
0
LINE
8
BLACK
6
CONTINUOUS
10
166.634
20
-131.39
11
167.063
21
-131.39
0
LINE
8
BLACK
6
CONTINUOUS
10
167.063
20
-131.39
11
167.348
21
-131.533
0
LINE
8
BLACK
6
CONTINUOUS
10
168.491
20
-134.533
11
168.634
21
-134.39
0
LINE
8
BLACK
6
CONTINUOUS
10
168.634
20
-134.39
11
168.92
21
-133.961
0
LINE
8
BLACK
6
CONTINUOUS
10
168.92
20
-133.961
11
169.063
21
-133.676
0
LINE
8
BLACK
6
CONTINUOUS
10
169.063
20
-133.676
11
169.205
21
-133.247
0
LINE
8
BLACK
6
CONTINUOUS
10
169.205
20
-133.247
11
169.348
21
-132.533
0
LINE
8
BLACK
6
CONTINUOUS
10
169.348
20
-132.533
11
169.348
21
-131.961
0
LINE
8
BLACK
6
CONTINUOUS
10
169.348
20
-131.961
11
169.205
21
-131.247
0
LINE
8
BLACK
6
CONTINUOUS
10
169.205
20
-131.247
11
169.063
21
-130.818
0
LINE
8
BLACK
6
CONTINUOUS
10
169.063
20
-130.818
11
168.92
21
-130.533
0
LINE
8
BLACK
6
CONTINUOUS
10
168.92
20
-130.533
11
168.634
21
-130.104
0
LINE
8
BLACK
6
CONTINUOUS
10
168.634
20
-130.104
11
168.491
21
-129.961
0
CIRCLE
8
BLACK
10
100.32
20
-135.993
40
0.45
0
LINE
8
BLACK
6
CONTINUOUS
10
104.205
20
-134.35
11
104.491
21
-134.35
0
LINE
8
BLACK
6
CONTINUOUS
10
104.491
20
-134.35
11
104.777
21
-134.493
0
LINE
8
BLACK
6
CONTINUOUS
10
104.777
20
-134.493
11
104.92
21
-134.636
0
LINE
8
BLACK
6
CONTINUOUS
10
104.92
20
-134.636
11
105.063
21
-134.921
0
LINE
8
BLACK
6
CONTINUOUS
10
105.063
20
-134.921
11
105.205
21
-135.493
0
LINE
8
BLACK
6
CONTINUOUS
10
105.205
20
-135.493
11
105.205
21
-136.207
0
LINE
8
BLACK
6
CONTINUOUS
10
105.205
20
-136.207
11
105.063
21
-136.778
0
LINE
8
BLACK
6
CONTINUOUS
10
105.063
20
-136.778
11
104.92
21
-137.064
0
LINE
8
BLACK
6
CONTINUOUS
10
104.92
20
-137.064
11
104.777
21
-137.207
0
LINE
8
BLACK
6
CONTINUOUS
10
104.777
20
-137.207
11
104.491
21
-137.35
0
LINE
8
BLACK
6
CONTINUOUS
10
104.491
20
-137.35
11
104.205
21
-137.35
0
LINE
8
BLACK
6
CONTINUOUS
10
104.205
20
-137.35
11
103.92
21
-137.207
0
LINE
8
BLACK
6
CONTINUOUS
10
103.92
20
-137.207
11
103.777
21
-137.064
0
LINE
8
BLACK
6
CONTINUOUS
10
103.777
20
-137.064
11
103.634
21
-136.778
0
LINE
8
BLACK
6
CONTINUOUS
10
103.634
20
-136.778
11
103.491
21
-136.207
0
LINE
8
BLACK
6
CONTINUOUS
10
103.491
20
-136.207
11
103.491
21
-135.493
0
LINE
8
BLACK
6
CONTINUOUS
10
103.491
20
-135.493
11
103.634
21
-134.921
0
LINE
8
BLACK
6
CONTINUOUS
10
103.634
20
-134.921
11
103.777
21
-134.636
0
LINE
8
BLACK
6
CONTINUOUS
10
103.777
20
-134.636
11
103.92
21
-134.493
0
LINE
8
BLACK
6
CONTINUOUS
10
103.92
20
-134.493
11
104.205
21
-134.35
0
LINE
8
BLACK
6
CONTINUOUS
10
106.491
20
-137.064
11
106.634
21
-137.207
0
LINE
8
BLACK
6
CONTINUOUS
10
106.634
20
-137.207
11
106.491
21
-137.35
0
LINE
8
BLACK
6
CONTINUOUS
10
106.491
20
-137.35
11
106.348
21
-137.207
0
LINE
8
BLACK
6
CONTINUOUS
10
106.348
20
-137.207
11
106.491
21
-137.064
0
LINE
8
BLACK
6
CONTINUOUS
10
106.491
20
-137.064
11
106.491
21
-137.35
0
LINE
8
BLACK
6
CONTINUOUS
10
108.063
20
-137.35
11
108.634
21
-137.35
0
LINE
8
BLACK
6
CONTINUOUS
10
108.634
20
-137.35
11
108.92
21
-137.207
0
LINE
8
BLACK
6
CONTINUOUS
10
108.92
20
-137.207
11
109.063
21
-137.064
0
LINE
8
BLACK
6
CONTINUOUS
10
109.063
20
-137.064
11
109.348
21
-136.636
0
LINE
8
BLACK
6
CONTINUOUS
10
109.348
20
-136.636
11
109.491
21
-136.064
0
LINE
8
BLACK
6
CONTINUOUS
10
109.491
20
-136.064
11
109.491
21
-134.921
0
LINE
8
BLACK
6
CONTINUOUS
10
109.491
20
-134.921
11
109.348
21
-134.636
0
LINE
8
BLACK
6
CONTINUOUS
10
109.348
20
-134.636
11
109.205
21
-134.493
0
LINE
8
BLACK
6
CONTINUOUS
10
109.205
20
-134.493
11
108.92
21
-134.35
0
LINE
8
BLACK
6
CONTINUOUS
10
108.92
20
-134.35
11
108.348
21
-134.35
0
LINE
8
BLACK
6
CONTINUOUS
10
108.348
20
-134.35
11
108.063
21
-134.493
0
LINE
8
BLACK
6
CONTINUOUS
10
108.063
20
-134.493
11
107.92
21
-134.636
0
LINE
8
BLACK
6
CONTINUOUS
10
107.92
20
-134.636
11
107.777
21
-134.921
0
LINE
8
BLACK
6
CONTINUOUS
10
107.777
20
-134.921
11
107.777
21
-135.636
0
LINE
8
BLACK
6
CONTINUOUS
10
107.777
20
-135.636
11
107.92
21
-135.921
0
LINE
8
BLACK
6
CONTINUOUS
10
107.92
20
-135.921
11
108.063
21
-136.064
0
LINE
8
BLACK
6
CONTINUOUS
10
108.063
20
-136.064
11
108.348
21
-136.207
0
LINE
8
BLACK
6
CONTINUOUS
10
108.348
20
-136.207
11
108.92
21
-136.207
0
LINE
8
BLACK
6
CONTINUOUS
10
108.92
20
-136.207
11
109.205
21
-136.064
0
LINE
8
BLACK
6
CONTINUOUS
10
109.205
20
-136.064
11
109.348
21
-135.921
0
LINE
8
BLACK
6
CONTINUOUS
10
109.348
20
-135.921
11
109.491
21
-135.636
0
LINE
8
BLACK
6
CONTINUOUS
10
111.348
20
-134.35
11
111.634
21
-134.35
0
LINE
8
BLACK
6
CONTINUOUS
10
111.634
20
-134.35
11
111.92
21
-134.493
0
LINE
8
BLACK
6
CONTINUOUS
10
111.92
20
-134.493
11
112.063
21
-134.636
0
LINE
8
BLACK
6
CONTINUOUS
10
112.063
20
-134.636
11
112.205
21
-134.921
0
LINE
8
BLACK
6
CONTINUOUS
10
112.205
20
-134.921
11
112.348
21
-135.493
0
LINE
8
BLACK
6
CONTINUOUS
10
112.348
20
-135.493
11
112.348
21
-136.207
0
LINE
8
BLACK
6
CONTINUOUS
10
112.348
20
-136.207
11
112.205
21
-136.778
0
LINE
8
BLACK
6
CONTINUOUS
10
112.205
20
-136.778
11
112.063
21
-137.064
0
LINE
8
BLACK
6
CONTINUOUS
10
112.063
20
-137.064
11
111.92
21
-137.207
0
LINE
8
BLACK
6
CONTINUOUS
10
111.92
20
-137.207
11
111.634
21
-137.35
0
LINE
8
BLACK
6
CONTINUOUS
10
111.634
20
-137.35
11
111.348
21
-137.35
0
LINE
8
BLACK
6
CONTINUOUS
10
111.348
20
-137.35
11
111.063
21
-137.207
0
LINE
8
BLACK
6
CONTINUOUS
10
111.063
20
-137.207
11
110.92
21
-137.064
0
LINE
8
BLACK
6
CONTINUOUS
10
110.92
20
-137.064
11
110.777
21
-136.778
0
LINE
8
BLACK
6
CONTINUOUS
10
110.777
20
-136.778
11
110.634
21
-136.207
0
LINE
8
BLACK
6
CONTINUOUS
10
110.634
20
-136.207
11
110.634
21
-135.493
0
LINE
8
BLACK
6
CONTINUOUS
10
110.634
20
-135.493
11
110.777
21
-134.921
0
LINE
8
BLACK
6
CONTINUOUS
10
110.777
20
-134.921
11
110.92
21
-134.636
0
LINE
8
BLACK
6
CONTINUOUS
10
110.92
20
-134.636
11
111.063
21
-134.493
0
LINE
8
BLACK
6
CONTINUOUS
10
111.063
20
-134.493
11
111.348
21
-134.35
0
LINE
8
BLACK
6
CONTINUOUS
10
113.634
20
-137.35
11
113.634
21
-135.35
0
LINE
8
BLACK
6
CONTINUOUS
10
113.634
20
-135.636
11
113.777
21
-135.493
0
LINE
8
BLACK
6
CONTINUOUS
10
113.777
20
-135.493
11
114.063
21
-135.35
0
LINE
8
BLACK
6
CONTINUOUS
10
114.063
20
-135.35
11
114.491
21
-135.35
0
LINE
8
BLACK
6
CONTINUOUS
10
114.491
20
-135.35
11
114.777
21
-135.493
0
LINE
8
BLACK
6
CONTINUOUS
10
114.777
20
-135.493
11
114.92
21
-135.778
0
LINE
8
BLACK
6
CONTINUOUS
10
114.92
20
-135.778
11
114.92
21
-137.35
0
LINE
8
BLACK
6
CONTINUOUS
10
114.92
20
-135.778
11
115.063
21
-135.493
0
LINE
8
BLACK
6
CONTINUOUS
10
115.063
20
-135.493
11
115.348
21
-135.35
0
LINE
8
BLACK
6
CONTINUOUS
10
115.348
20
-135.35
11
115.777
21
-135.35
0
LINE
8
BLACK
6
CONTINUOUS
10
115.777
20
-135.35
11
116.063
21
-135.493
0
LINE
8
BLACK
6
CONTINUOUS
10
116.063
20
-135.493
11
116.205
21
-135.778
0
LINE
8
BLACK
6
CONTINUOUS
10
116.205
20
-135.778
11
116.205
21
-137.35
0
LINE
8
BLACK
6
CONTINUOUS
10
117.634
20
-137.35
11
117.634
21
-135.35
0
LINE
8
BLACK
6
CONTINUOUS
10
117.634
20
-135.636
11
117.777
21
-135.493
0
LINE
8
BLACK
6
CONTINUOUS
10
117.777
20
-135.493
11
118.063
21
-135.35
0
LINE
8
BLACK
6
CONTINUOUS
10
118.063
20
-135.35
11
118.491
21
-135.35
0
LINE
8
BLACK
6
CONTINUOUS
10
118.491
20
-135.35
11
118.777
21
-135.493
0
LINE
8
BLACK
6
CONTINUOUS
10
118.777
20
-135.493
11
118.92
21
-135.778
0
LINE
8
BLACK
6
CONTINUOUS
10
118.92
20
-135.778
11
118.92
21
-137.35
0
LINE
8
BLACK
6
CONTINUOUS
10
118.92
20
-135.778
11
119.063
21
-135.493
0
LINE
8
BLACK
6
CONTINUOUS
10
119.063
20
-135.493
11
119.348
21
-135.35
0
LINE
8
BLACK
6
CONTINUOUS
10
119.348
20
-135.35
11
119.777
21
-135.35
0
LINE
8
BLACK
6
CONTINUOUS
10
119.777
20
-135.35
11
120.063
21
-135.493
0
LINE
8
BLACK
6
CONTINUOUS
10
120.063
20
-135.493
11
120.205
21
-135.778
0
LINE
8
BLACK
6
CONTINUOUS
10
120.205
20
-135.778
11
120.205
21
-137.35
0
LINE
8
BLACK
6
CONTINUOUS
10
126.063
20
-134.207
11
123.491
21
-138.064
0
LINE
8
BLACK
6
CONTINUOUS
10
129.92
20
-134.35
11
130.205
21
-134.35
0
LINE
8
BLACK
6
CONTINUOUS
10
130.205
20
-134.35
11
130.491
21
-134.493
0
LINE
8
BLACK
6
CONTINUOUS
10
130.491
20
-134.493
11
130.634
21
-134.636
0
LINE
8
BLACK
6
CONTINUOUS
10
130.634
20
-134.636
11
130.777
21
-134.921
0
LINE
8
BLACK
6
CONTINUOUS
10
130.777
20
-134.921
11
130.92
21
-135.493
0
LINE
8
BLACK
6
CONTINUOUS
10
130.92
20
-135.493
11
130.92
21
-136.207
0
LINE
8
BLACK
6
CONTINUOUS
10
130.92
20
-136.207
11
130.777
21
-136.778
0
LINE
8
BLACK
6
CONTINUOUS
10
130.777
20
-136.778
11
130.634
21
-137.064
0
LINE
8
BLACK
6
CONTINUOUS
10
130.634
20
-137.064
11
130.491
21
-137.207
0
LINE
8
BLACK
6
CONTINUOUS
10
130.491
20
-137.207
11
130.205
21
-137.35
0
LINE
8
BLACK
6
CONTINUOUS
10
130.205
20
-137.35
11
129.92
21
-137.35
0
LINE
8
BLACK
6
CONTINUOUS
10
129.92
20
-137.35
11
129.634
21
-137.207
0
LINE
8
BLACK
6
CONTINUOUS
10
129.634
20
-137.207
11
129.491
21
-137.064
0
LINE
8
BLACK
6
CONTINUOUS
10
129.491
20
-137.064
11
129.348
21
-136.778
0
LINE
8
BLACK
6
CONTINUOUS
10
129.348
20
-136.778
11
129.205
21
-136.207
0
LINE
8
BLACK
6
CONTINUOUS
10
129.205
20
-136.207
11
129.205
21
-135.493
0
LINE
8
BLACK
6
CONTINUOUS
10
129.205
20
-135.493
11
129.348
21
-134.921
0
LINE
8
BLACK
6
CONTINUOUS
10
129.348
20
-134.921
11
129.491
21
-134.636
0
LINE
8
BLACK
6
CONTINUOUS
10
129.491
20
-134.636
11
129.634
21
-134.493
0
LINE
8
BLACK
6
CONTINUOUS
10
129.634
20
-134.493
11
129.92
21
-134.35
0
LINE
8
BLACK
6
CONTINUOUS
10
132.205
20
-137.064
11
132.348
21
-137.207
0
LINE
8
BLACK
6
CONTINUOUS
10
132.348
20
-137.207
11
132.205
21
-137.35
0
LINE
8
BLACK
6
CONTINUOUS
10
132.205
20
-137.35
11
132.063
21
-137.207
0
LINE
8
BLACK
6
CONTINUOUS
10
132.063
20
-137.207
11
132.205
21
-137.064
0
LINE
8
BLACK
6
CONTINUOUS
10
132.205
20
-137.064
11
132.205
21
-137.35
0
LINE
8
BLACK
6
CONTINUOUS
10
134.205
20
-134.35
11
134.491
21
-134.35
0
LINE
8
BLACK
6
CONTINUOUS
10
134.491
20
-134.35
11
134.777
21
-134.493
0
LINE
8
BLACK
6
CONTINUOUS
10
134.777
20
-134.493
11
134.92
21
-134.636
0
LINE
8
BLACK
6
CONTINUOUS
10
134.92
20
-134.636
11
135.063
21
-134.921
0
LINE
8
BLACK
6
CONTINUOUS
10
135.063
20
-134.921
11
135.205
21
-135.493
0
LINE
8
BLACK
6
CONTINUOUS
10
135.205
20
-135.493
11
135.205
21
-136.207
0
LINE
8
BLACK
6
CONTINUOUS
10
135.205
20
-136.207
11
135.063
21
-136.778
0
LINE
8
BLACK
6
CONTINUOUS
10
135.063
20
-136.778
11
134.92
21
-137.064
0
LINE
8
BLACK
6
CONTINUOUS
10
134.92
20
-137.064
11
134.777
21
-137.207
0
LINE
8
BLACK
6
CONTINUOUS
10
134.777
20
-137.207
11
134.491
21
-137.35
0
LINE
8
BLACK
6
CONTINUOUS
10
134.491
20
-137.35
11
134.205
21
-137.35
0
LINE
8
BLACK
6
CONTINUOUS
10
134.205
20
-137.35
11
133.92
21
-137.207
0
LINE
8
BLACK
6
CONTINUOUS
10
133.92
20
-137.207
11
133.777
21
-137.064
0
LINE
8
BLACK
6
CONTINUOUS
10
133.777
20
-137.064
11
133.634
21
-136.778
0
LINE
8
BLACK
6
CONTINUOUS
10
133.634
20
-136.778
11
133.491
21
-136.207
0
LINE
8
BLACK
6
CONTINUOUS
10
133.491
20
-136.207
11
133.491
21
-135.493
0
LINE
8
BLACK
6
CONTINUOUS
10
133.491
20
-135.493
11
133.634
21
-134.921
0
LINE
8
BLACK
6
CONTINUOUS
10
133.634
20
-134.921
11
133.777
21
-134.636
0
LINE
8
BLACK
6
CONTINUOUS
10
133.777
20
-134.636
11
133.92
21
-134.493
0
LINE
8
BLACK
6
CONTINUOUS
10
133.92
20
-134.493
11
134.205
21
-134.35
0
LINE
8
BLACK
6
CONTINUOUS
10
136.205
20
-134.35
11
138.063
21
-134.35
0
LINE
8
BLACK
6
CONTINUOUS
10
138.063
20
-134.35
11
137.063
21
-135.493
0
LINE
8
BLACK
6
CONTINUOUS
10
137.063
20
-135.493
11
137.491
21
-135.493
0
LINE
8
BLACK
6
CONTINUOUS
10
137.491
20
-135.493
11
137.777
21
-135.636
0
LINE
8
BLACK
6
CONTINUOUS
10
137.777
20
-135.636
11
137.92
21
-135.778
0
LINE
8
BLACK
6
CONTINUOUS
10
137.92
20
-135.778
11
138.063
21
-136.064
0
LINE
8
BLACK
6
CONTINUOUS
10
138.063
20
-136.064
11
138.063
21
-136.778
0
LINE
8
BLACK
6
CONTINUOUS
10
138.063
20
-136.778
11
137.92
21
-137.064
0
LINE
8
BLACK
6
CONTINUOUS
10
137.92
20
-137.064
11
137.777
21
-137.207
0
LINE
8
BLACK
6
CONTINUOUS
10
137.777
20
-137.207
11
137.491
21
-137.35
0
LINE
8
BLACK
6
CONTINUOUS
10
137.491
20
-137.35
11
136.634
21
-137.35
0
LINE
8
BLACK
6
CONTINUOUS
10
136.634
20
-137.35
11
136.348
21
-137.207
0
LINE
8
BLACK
6
CONTINUOUS
10
136.348
20
-137.207
11
136.205
21
-137.064
0
LINE
8
BLACK
6
CONTINUOUS
10
140.777
20
-134.35
11
139.348
21
-134.35
0
LINE
8
BLACK
6
CONTINUOUS
10
139.348
20
-134.35
11
139.205
21
-135.778
0
LINE
8
BLACK
6
CONTINUOUS
10
139.205
20
-135.778
11
139.348
21
-135.636
0
LINE
8
BLACK
6
CONTINUOUS
10
139.348
20
-135.636
11
139.634
21
-135.493
0
LINE
8
BLACK
6
CONTINUOUS
10
139.634
20
-135.493
11
140.348
21
-135.493
0
LINE
8
BLACK
6
CONTINUOUS
10
140.348
20
-135.493
11
140.634
21
-135.636
0
LINE
8
BLACK
6
CONTINUOUS
10
140.634
20
-135.636
11
140.777
21
-135.778
0
LINE
8
BLACK
6
CONTINUOUS
10
140.777
20
-135.778
11
140.92
21
-136.064
0
LINE
8
BLACK
6
CONTINUOUS
10
140.92
20
-136.064
11
140.92
21
-136.778
0
LINE
8
BLACK
6
CONTINUOUS
10
140.92
20
-136.778
11
140.777
21
-137.064
0
LINE
8
BLACK
6
CONTINUOUS
10
140.777
20
-137.064
11
140.634
21
-137.207
0
LINE
8
BLACK
6
CONTINUOUS
10
140.634
20
-137.207
11
140.348
21
-137.35
0
LINE
8
BLACK
6
CONTINUOUS
10
140.348
20
-137.35
11
139.634
21
-137.35
0
LINE
8
BLACK
6
CONTINUOUS
10
139.634
20
-137.35
11
139.348
21
-137.207
0
LINE
8
BLACK
6
CONTINUOUS
10
139.348
20
-137.207
11
139.205
21
-137.064
0
LINE
8
BLACK
6
CONTINUOUS
10
142.063
20
-134.35
11
142.063
21
-134.921
0
LINE
8
BLACK
6
CONTINUOUS
10
143.205
20
-134.35
11
143.205
21
-134.921
0
LINE
8
BLACK
6
CONTINUOUS
10
147.634
20
-138.493
11
147.491
21
-138.35
0
LINE
8
BLACK
6
CONTINUOUS
10
147.491
20
-138.35
11
147.205
21
-137.921
0
LINE
8
BLACK
6
CONTINUOUS
10
147.205
20
-137.921
11
147.063
21
-137.636
0
LINE
8
BLACK
6
CONTINUOUS
10
147.063
20
-137.636
11
146.92
21
-137.207
0
LINE
8
BLACK
6
CONTINUOUS
10
146.92
20
-137.207
11
146.777
21
-136.493
0
LINE
8
BLACK
6
CONTINUOUS
10
146.777
20
-136.493
11
146.777
21
-135.921
0
LINE
8
BLACK
6
CONTINUOUS
10
146.777
20
-135.921
11
146.92
21
-135.207
0
LINE
8
BLACK
6
CONTINUOUS
10
146.92
20
-135.207
11
147.063
21
-134.778
0
LINE
8
BLACK
6
CONTINUOUS
10
147.063
20
-134.778
11
147.205
21
-134.493
0
LINE
8
BLACK
6
CONTINUOUS
10
147.205
20
-134.493
11
147.491
21
-134.064
0
LINE
8
BLACK
6
CONTINUOUS
10
147.491
20
-134.064
11
147.634
21
-133.921
0
LINE
8
BLACK
6
CONTINUOUS
10
148.634
20
-134.636
11
148.777
21
-134.493
0
LINE
8
BLACK
6
CONTINUOUS
10
148.777
20
-134.493
11
149.063
21
-134.35
0
LINE
8
BLACK
6
CONTINUOUS
10
149.063
20
-134.35
11
149.777
21
-134.35
0
LINE
8
BLACK
6
CONTINUOUS
10
149.777
20
-134.35
11
150.063
21
-134.493
0
LINE
8
BLACK
6
CONTINUOUS
10
150.063
20
-134.493
11
150.205
21
-134.636
0
LINE
8
BLACK
6
CONTINUOUS
10
150.205
20
-134.636
11
150.348
21
-134.921
0
LINE
8
BLACK
6
CONTINUOUS
10
150.348
20
-134.921
11
150.348
21
-135.207
0
LINE
8
BLACK
6
CONTINUOUS
10
150.348
20
-135.207
11
150.205
21
-135.636
0
LINE
8
BLACK
6
CONTINUOUS
10
150.205
20
-135.636
11
148.491
21
-137.35
0
LINE
8
BLACK
6
CONTINUOUS
10
148.491
20
-137.35
11
150.348
21
-137.35
0
LINE
8
BLACK
6
CONTINUOUS
10
151.491
20
-134.636
11
151.634
21
-134.493
0
LINE
8
BLACK
6
CONTINUOUS
10
151.634
20
-134.493
11
151.92
21
-134.35
0
LINE
8
BLACK
6
CONTINUOUS
10
151.92
20
-134.35
11
152.634
21
-134.35
0
LINE
8
BLACK
6
CONTINUOUS
10
152.634
20
-134.35
11
152.92
21
-134.493
0
LINE
8
BLACK
6
CONTINUOUS
10
152.92
20
-134.493
11
153.063
21
-134.636
0
LINE
8
BLACK
6
CONTINUOUS
10
153.063
20
-134.636
11
153.205
21
-134.921
0
LINE
8
BLACK
6
CONTINUOUS
10
153.205
20
-134.921
11
153.205
21
-135.207
0
LINE
8
BLACK
6
CONTINUOUS
10
153.205
20
-135.207
11
153.063
21
-135.636
0
LINE
8
BLACK
6
CONTINUOUS
10
153.063
20
-135.636
11
151.348
21
-137.35
0
LINE
8
BLACK
6
CONTINUOUS
10
151.348
20
-137.35
11
153.205
21
-137.35
0
LINE
8
BLACK
6
CONTINUOUS
10
156.777
20
-137.35
11
156.777
21
-134.35
0
LINE
8
BLACK
6
CONTINUOUS
10
158.063
20
-137.35
11
158.063
21
-135.778
0
LINE
8
BLACK
6
CONTINUOUS
10
158.063
20
-135.778
11
157.92
21
-135.493
0
LINE
8
BLACK
6
CONTINUOUS
10
157.92
20
-135.493
11
157.634
21
-135.35
0
LINE
8
BLACK
6
CONTINUOUS
10
157.634
20
-135.35
11
157.205
21
-135.35
0
LINE
8
BLACK
6
CONTINUOUS
10
157.205
20
-135.35
11
156.92
21
-135.493
0
LINE
8
BLACK
6
CONTINUOUS
10
156.92
20
-135.493
11
156.777
21
-135.636
0
LINE
8
BLACK
6
CONTINUOUS
10
159.92
20
-137.35
11
159.634
21
-137.207
0
LINE
8
BLACK
6
CONTINUOUS
10
159.634
20
-137.207
11
159.491
21
-137.064
0
LINE
8
BLACK
6
CONTINUOUS
10
159.491
20
-137.064
11
159.348
21
-136.778
0
LINE
8
BLACK
6
CONTINUOUS
10
159.348
20
-136.778
11
159.348
21
-135.921
0
LINE
8
BLACK
6
CONTINUOUS
10
159.348
20
-135.921
11
159.491
21
-135.636
0
LINE
8
BLACK
6
CONTINUOUS
10
159.491
20
-135.636
11
159.634
21
-135.493
0
LINE
8
BLACK
6
CONTINUOUS
10
159.634
20
-135.493
11
159.92
21
-135.35
0
LINE
8
BLACK
6
CONTINUOUS
10
159.92
20
-135.35
11
160.348
21
-135.35
0
LINE
8
BLACK
6
CONTINUOUS
10
160.348
20
-135.35
11
160.634
21
-135.493
0
LINE
8
BLACK
6
CONTINUOUS
10
160.634
20
-135.493
11
160.777
21
-135.636
0
LINE
8
BLACK
6
CONTINUOUS
10
160.777
20
-135.636
11
160.92
21
-135.921
0
LINE
8
BLACK
6
CONTINUOUS
10
160.92
20
-135.921
11
160.92
21
-136.778
0
LINE
8
BLACK
6
CONTINUOUS
10
160.92
20
-136.778
11
160.777
21
-137.064
0
LINE
8
BLACK
6
CONTINUOUS
10
160.777
20
-137.064
11
160.634
21
-137.207
0
LINE
8
BLACK
6
CONTINUOUS
10
160.634
20
-137.207
11
160.348
21
-137.35
0
LINE
8
BLACK
6
CONTINUOUS
10
160.348
20
-137.35
11
159.92
21
-137.35
0
LINE
8
BLACK
6
CONTINUOUS
10
162.634
20
-137.35
11
162.348
21
-137.207
0
LINE
8
BLACK
6
CONTINUOUS
10
162.348
20
-137.207
11
162.205
21
-136.921
0
LINE
8
BLACK
6
CONTINUOUS
10
162.205
20
-136.921
11
162.205
21
-134.35
0
LINE
8
BLACK
6
CONTINUOUS
10
164.92
20
-137.207
11
164.634
21
-137.35
0
LINE
8
BLACK
6
CONTINUOUS
10
164.634
20
-137.35
11
164.063
21
-137.35
0
LINE
8
BLACK
6
CONTINUOUS
10
164.063
20
-137.35
11
163.777
21
-137.207
0
LINE
8
BLACK
6
CONTINUOUS
10
163.777
20
-137.207
11
163.634
21
-136.921
0
LINE
8
BLACK
6
CONTINUOUS
10
163.634
20
-136.921
11
163.634
21
-135.778
0
LINE
8
BLACK
6
CONTINUOUS
10
163.634
20
-135.778
11
163.777
21
-135.493
0
LINE
8
BLACK
6
CONTINUOUS
10
163.777
20
-135.493
11
164.063
21
-135.35
0
LINE
8
BLACK
6
CONTINUOUS
10
164.063
20
-135.35
11
164.634
21
-135.35
0
LINE
8
BLACK
6
CONTINUOUS
10
164.634
20
-135.35
11
164.92
21
-135.493
0
LINE
8
BLACK
6
CONTINUOUS
10
164.92
20
-135.493
11
165.063
21
-135.778
0
LINE
8
BLACK
6
CONTINUOUS
10
165.063
20
-135.778
11
165.063
21
-136.064
0
LINE
8
BLACK
6
CONTINUOUS
10
165.063
20
-136.064
11
163.634
21
-136.35
0
LINE
8
BLACK
6
CONTINUOUS
10
166.205
20
-137.207
11
166.491
21
-137.35
0
LINE
8
BLACK
6
CONTINUOUS
10
166.491
20
-137.35
11
167.063
21
-137.35
0
LINE
8
BLACK
6
CONTINUOUS
10
167.063
20
-137.35
11
167.348
21
-137.207
0
LINE
8
BLACK
6
CONTINUOUS
10
167.348
20
-137.207
11
167.491
21
-136.921
0
LINE
8
BLACK
6
CONTINUOUS
10
167.491
20
-136.921
11
167.491
21
-136.778
0
LINE
8
BLACK
6
CONTINUOUS
10
167.491
20
-136.778
11
167.348
21
-136.493
0
LINE
8
BLACK
6
CONTINUOUS
10
167.348
20
-136.493
11
167.063
21
-136.35
0
LINE
8
BLACK
6
CONTINUOUS
10
167.063
20
-136.35
11
166.634
21
-136.35
0
LINE
8
BLACK
6
CONTINUOUS
10
166.634
20
-136.35
11
166.348
21
-136.207
0
LINE
8
BLACK
6
CONTINUOUS
10
166.348
20
-136.207
11
166.205
21
-135.921
0
LINE
8
BLACK
6
CONTINUOUS
10
166.205
20
-135.921
11
166.205
21
-135.778
0
LINE
8
BLACK
6
CONTINUOUS
10
166.205
20
-135.778
11
166.348
21
-135.493
0
LINE
8
BLACK
6
CONTINUOUS
10
166.348
20
-135.493
11
166.634
21
-135.35
0
LINE
8
BLACK
6
CONTINUOUS
10
166.634
20
-135.35
11
167.063
21
-135.35
0
LINE
8
BLACK
6
CONTINUOUS
10
167.063
20
-135.35
11
167.348
21
-135.493
0
LINE
8
BLACK
6
CONTINUOUS
10
168.491
20
-138.493
11
168.634
21
-138.35
0
LINE
8
BLACK
6
CONTINUOUS
10
168.634
20
-138.35
11
168.92
21
-137.921
0
LINE
8
BLACK
6
CONTINUOUS
10
168.92
20
-137.921
11
169.063
21
-137.636
0
LINE
8
BLACK
6
CONTINUOUS
10
169.063
20
-137.636
11
169.205
21
-137.207
0
LINE
8
BLACK
6
CONTINUOUS
10
169.205
20
-137.207
11
169.348
21
-136.493
0
LINE
8
BLACK
6
CONTINUOUS
10
169.348
20
-136.493
11
169.348
21
-135.921
0
LINE
8
BLACK
6
CONTINUOUS
10
169.348
20
-135.921
11
169.205
21
-135.207
0
LINE
8
BLACK
6
CONTINUOUS
10
169.205
20
-135.207
11
169.063
21
-134.778
0
LINE
8
BLACK
6
CONTINUOUS
10
169.063
20
-134.778
11
168.92
21
-134.493
0
LINE
8
BLACK
6
CONTINUOUS
10
168.92
20
-134.493
11
168.634
21
-134.064
0
LINE
8
BLACK
6
CONTINUOUS
10
168.634
20
-134.064
11
168.491
21
-133.921
0
LINE
8
BLACK
6
CONTINUOUS
10
100.27
20
-139.453
11
100.27
21
-140.453
0
LINE
8
BLACK
6
CONTINUOUS
10
99.7697
20
-139.953
11
100.77
21
-139.953
0
LINE
8
BLACK
6
CONTINUOUS
10
105.205
20
-141.31
11
103.491
21
-141.31
0
LINE
8
BLACK
6
CONTINUOUS
10
104.348
20
-141.31
11
104.348
21
-138.31
0
LINE
8
BLACK
6
CONTINUOUS
10
104.348
20
-138.31
11
104.063
21
-138.738
0
LINE
8
BLACK
6
CONTINUOUS
10
104.063
20
-138.738
11
103.777
21
-139.024
0
LINE
8
BLACK
6
CONTINUOUS
10
103.777
20
-139.024
11
103.491
21
-139.167
0
LINE
8
BLACK
6
CONTINUOUS
10
106.491
20
-141.024
11
106.634
21
-141.167
0
LINE
8
BLACK
6
CONTINUOUS
10
106.634
20
-141.167
11
106.491
21
-141.31
0
LINE
8
BLACK
6
CONTINUOUS
10
106.491
20
-141.31
11
106.348
21
-141.167
0
LINE
8
BLACK
6
CONTINUOUS
10
106.348
20
-141.167
11
106.491
21
-141.024
0
LINE
8
BLACK
6
CONTINUOUS
10
106.491
20
-141.024
11
106.491
21
-141.31
0
LINE
8
BLACK
6
CONTINUOUS
10
108.491
20
-138.31
11
108.777
21
-138.31
0
LINE
8
BLACK
6
CONTINUOUS
10
108.777
20
-138.31
11
109.063
21
-138.453
0
LINE
8
BLACK
6
CONTINUOUS
10
109.063
20
-138.453
11
109.205
21
-138.596
0
LINE
8
BLACK
6
CONTINUOUS
10
109.205
20
-138.596
11
109.348
21
-138.881
0
LINE
8
BLACK
6
CONTINUOUS
10
109.348
20
-138.881
11
109.491
21
-139.453
0
LINE
8
BLACK
6
CONTINUOUS
10
109.491
20
-139.453
11
109.491
21
-140.167
0
LINE
8
BLACK
6
CONTINUOUS
10
109.491
20
-140.167
11
109.348
21
-140.738
0
LINE
8
BLACK
6
CONTINUOUS
10
109.348
20
-140.738
11
109.205
21
-141.024
0
LINE
8
BLACK
6
CONTINUOUS
10
109.205
20
-141.024
11
109.063
21
-141.167
0
LINE
8
BLACK
6
CONTINUOUS
10
109.063
20
-141.167
11
108.777
21
-141.31
0
LINE
8
BLACK
6
CONTINUOUS
10
108.777
20
-141.31
11
108.491
21
-141.31
0
LINE
8
BLACK
6
CONTINUOUS
10
108.491
20
-141.31
11
108.205
21
-141.167
0
LINE
8
BLACK
6
CONTINUOUS
10
108.205
20
-141.167
11
108.063
21
-141.024
0
LINE
8
BLACK
6
CONTINUOUS
10
108.063
20
-141.024
11
107.92
21
-140.738
0
LINE
8
BLACK
6
CONTINUOUS
10
107.92
20
-140.738
11
107.777
21
-140.167
0
LINE
8
BLACK
6
CONTINUOUS
10
107.777
20
-140.167
11
107.777
21
-139.453
0
LINE
8
BLACK
6
CONTINUOUS
10
107.777
20
-139.453
11
107.92
21
-138.881
0
LINE
8
BLACK
6
CONTINUOUS
10
107.92
20
-138.881
11
108.063
21
-138.596
0
LINE
8
BLACK
6
CONTINUOUS
10
108.063
20
-138.596
11
108.205
21
-138.453
0
LINE
8
BLACK
6
CONTINUOUS
10
108.205
20
-138.453
11
108.491
21
-138.31
0
LINE
8
BLACK
6
CONTINUOUS
10
111.348
20
-138.31
11
111.634
21
-138.31
0
LINE
8
BLACK
6
CONTINUOUS
10
111.634
20
-138.31
11
111.92
21
-138.453
0
LINE
8
BLACK
6
CONTINUOUS
10
111.92
20
-138.453
11
112.063
21
-138.596
0
LINE
8
BLACK
6
CONTINUOUS
10
112.063
20
-138.596
11
112.205
21
-138.881
0
LINE
8
BLACK
6
CONTINUOUS
10
112.205
20
-138.881
11
112.348
21
-139.453
0
LINE
8
BLACK
6
CONTINUOUS
10
112.348
20
-139.453
11
112.348
21
-140.167
0
LINE
8
BLACK
6
CONTINUOUS
10
112.348
20
-140.167
11
112.205
21
-140.738
0
LINE
8
BLACK
6
CONTINUOUS
10
112.205
20
-140.738
11
112.063
21
-141.024
0
LINE
8
BLACK
6
CONTINUOUS
10
112.063
20
-141.024
11
111.92
21
-141.167
0
LINE
8
BLACK
6
CONTINUOUS
10
111.92
20
-141.167
11
111.634
21
-141.31
0
LINE
8
BLACK
6
CONTINUOUS
10
111.634
20
-141.31
11
111.348
21
-141.31
0
LINE
8
BLACK
6
CONTINUOUS
10
111.348
20
-141.31
11
111.063
21
-141.167
0
LINE
8
BLACK
6
CONTINUOUS
10
111.063
20
-141.167
11
110.92
21
-141.024
0
LINE
8
BLACK
6
CONTINUOUS
10
110.92
20
-141.024
11
110.777
21
-140.738
0
LINE
8
BLACK
6
CONTINUOUS
10
110.777
20
-140.738
11
110.634
21
-140.167
0
LINE
8
BLACK
6
CONTINUOUS
10
110.634
20
-140.167
11
110.634
21
-139.453
0
LINE
8
BLACK
6
CONTINUOUS
10
110.634
20
-139.453
11
110.777
21
-138.881
0
LINE
8
BLACK
6
CONTINUOUS
10
110.777
20
-138.881
11
110.92
21
-138.596
0
LINE
8
BLACK
6
CONTINUOUS
10
110.92
20
-138.596
11
111.063
21
-138.453
0
LINE
8
BLACK
6
CONTINUOUS
10
111.063
20
-138.453
11
111.348
21
-138.31
0
LINE
8
BLACK
6
CONTINUOUS
10
113.634
20
-141.31
11
113.634
21
-139.31
0
LINE
8
BLACK
6
CONTINUOUS
10
113.634
20
-139.596
11
113.777
21
-139.453
0
LINE
8
BLACK
6
CONTINUOUS
10
113.777
20
-139.453
11
114.063
21
-139.31
0
LINE
8
BLACK
6
CONTINUOUS
10
114.063
20
-139.31
11
114.491
21
-139.31
0
LINE
8
BLACK
6
CONTINUOUS
10
114.491
20
-139.31
11
114.777
21
-139.453
0
LINE
8
BLACK
6
CONTINUOUS
10
114.777
20
-139.453
11
114.92
21
-139.738
0
LINE
8
BLACK
6
CONTINUOUS
10
114.92
20
-139.738
11
114.92
21
-141.31
0
LINE
8
BLACK
6
CONTINUOUS
10
114.92
20
-139.738
11
115.063
21
-139.453
0
LINE
8
BLACK
6
CONTINUOUS
10
115.063
20
-139.453
11
115.348
21
-139.31
0
LINE
8
BLACK
6
CONTINUOUS
10
115.348
20
-139.31
11
115.777
21
-139.31
0
LINE
8
BLACK
6
CONTINUOUS
10
115.777
20
-139.31
11
116.063
21
-139.453
0
LINE
8
BLACK
6
CONTINUOUS
10
116.063
20
-139.453
11
116.205
21
-139.738
0
LINE
8
BLACK
6
CONTINUOUS
10
116.205
20
-139.738
11
116.205
21
-141.31
0
LINE
8
BLACK
6
CONTINUOUS
10
117.634
20
-141.31
11
117.634
21
-139.31
0
LINE
8
BLACK
6
CONTINUOUS
10
117.634
20
-139.596
11
117.777
21
-139.453
0
LINE
8
BLACK
6
CONTINUOUS
10
117.777
20
-139.453
11
118.063
21
-139.31
0
LINE
8
BLACK
6
CONTINUOUS
10
118.063
20
-139.31
11
118.491
21
-139.31
0
LINE
8
BLACK
6
CONTINUOUS
10
118.491
20
-139.31
11
118.777
21
-139.453
0
LINE
8
BLACK
6
CONTINUOUS
10
118.777
20
-139.453
11
118.92
21
-139.738
0
LINE
8
BLACK
6
CONTINUOUS
10
118.92
20
-139.738
11
118.92
21
-141.31
0
LINE
8
BLACK
6
CONTINUOUS
10
118.92
20
-139.738
11
119.063
21
-139.453
0
LINE
8
BLACK
6
CONTINUOUS
10
119.063
20
-139.453
11
119.348
21
-139.31
0
LINE
8
BLACK
6
CONTINUOUS
10
119.348
20
-139.31
11
119.777
21
-139.31
0
LINE
8
BLACK
6
CONTINUOUS
10
119.777
20
-139.31
11
120.063
21
-139.453
0
LINE
8
BLACK
6
CONTINUOUS
10
120.063
20
-139.453
11
120.205
21
-139.738
0
LINE
8
BLACK
6
CONTINUOUS
10
120.205
20
-139.738
11
120.205
21
-141.31
0
LINE
8
BLACK
6
CONTINUOUS
10
126.063
20
-138.167
11
123.491
21
-142.024
0
LINE
8
BLACK
6
CONTINUOUS
10
129.92
20
-138.31
11
130.205
21
-138.31
0
LINE
8
BLACK
6
CONTINUOUS
10
130.205
20
-138.31
11
130.491
21
-138.453
0
LINE
8
BLACK
6
CONTINUOUS
10
130.491
20
-138.453
11
130.634
21
-138.596
0
LINE
8
BLACK
6
CONTINUOUS
10
130.634
20
-138.596
11
130.777
21
-138.881
0
LINE
8
BLACK
6
CONTINUOUS
10
130.777
20
-138.881
11
130.92
21
-139.453
0
LINE
8
BLACK
6
CONTINUOUS
10
130.92
20
-139.453
11
130.92
21
-140.167
0
LINE
8
BLACK
6
CONTINUOUS
10
130.92
20
-140.167
11
130.777
21
-140.738
0
LINE
8
BLACK
6
CONTINUOUS
10
130.777
20
-140.738
11
130.634
21
-141.024
0
LINE
8
BLACK
6
CONTINUOUS
10
130.634
20
-141.024
11
130.491
21
-141.167
0
LINE
8
BLACK
6
CONTINUOUS
10
130.491
20
-141.167
11
130.205
21
-141.31
0
LINE
8
BLACK
6
CONTINUOUS
10
130.205
20
-141.31
11
129.92
21
-141.31
0
LINE
8
BLACK
6
CONTINUOUS
10
129.92
20
-141.31
11
129.634
21
-141.167
0
LINE
8
BLACK
6
CONTINUOUS
10
129.634
20
-141.167
11
129.491
21
-141.024
0
LINE
8
BLACK
6
CONTINUOUS
10
129.491
20
-141.024
11
129.348
21
-140.738
0
LINE
8
BLACK
6
CONTINUOUS
10
129.348
20
-140.738
11
129.205
21
-140.167
0
LINE
8
BLACK
6
CONTINUOUS
10
129.205
20
-140.167
11
129.205
21
-139.453
0
LINE
8
BLACK
6
CONTINUOUS
10
129.205
20
-139.453
11
129.348
21
-138.881
0
LINE
8
BLACK
6
CONTINUOUS
10
129.348
20
-138.881
11
129.491
21
-138.596
0
LINE
8
BLACK
6
CONTINUOUS
10
129.491
20
-138.596
11
129.634
21
-138.453
0
LINE
8
BLACK
6
CONTINUOUS
10
129.634
20
-138.453
11
129.92
21
-138.31
0
LINE
8
BLACK
6
CONTINUOUS
10
132.205
20
-141.024
11
132.348
21
-141.167
0
LINE
8
BLACK
6
CONTINUOUS
10
132.348
20
-141.167
11
132.205
21
-141.31
0
LINE
8
BLACK
6
CONTINUOUS
10
132.205
20
-141.31
11
132.063
21
-141.167
0
LINE
8
BLACK
6
CONTINUOUS
10
132.063
20
-141.167
11
132.205
21
-141.024
0
LINE
8
BLACK
6
CONTINUOUS
10
132.205
20
-141.024
11
132.205
21
-141.31
0
LINE
8
BLACK
6
CONTINUOUS
10
134.205
20
-138.31
11
134.491
21
-138.31
0
LINE
8
BLACK
6
CONTINUOUS
10
134.491
20
-138.31
11
134.777
21
-138.453
0
LINE
8
BLACK
6
CONTINUOUS
10
134.777
20
-138.453
11
134.92
21
-138.596
0
LINE
8
BLACK
6
CONTINUOUS
10
134.92
20
-138.596
11
135.063
21
-138.881
0
LINE
8
BLACK
6
CONTINUOUS
10
135.063
20
-138.881
11
135.205
21
-139.453
0
LINE
8
BLACK
6
CONTINUOUS
10
135.205
20
-139.453
11
135.205
21
-140.167
0
LINE
8
BLACK
6
CONTINUOUS
10
135.205
20
-140.167
11
135.063
21
-140.738
0
LINE
8
BLACK
6
CONTINUOUS
10
135.063
20
-140.738
11
134.92
21
-141.024
0
LINE
8
BLACK
6
CONTINUOUS
10
134.92
20
-141.024
11
134.777
21
-141.167
0
LINE
8
BLACK
6
CONTINUOUS
10
134.777
20
-141.167
11
134.491
21
-141.31
0
LINE
8
BLACK
6
CONTINUOUS
10
134.491
20
-141.31
11
134.205
21
-141.31
0
LINE
8
BLACK
6
CONTINUOUS
10
134.205
20
-141.31
11
133.92
21
-141.167
0
LINE
8
BLACK
6
CONTINUOUS
10
133.92
20
-141.167
11
133.777
21
-141.024
0
LINE
8
BLACK
6
CONTINUOUS
10
133.777
20
-141.024
11
133.634
21
-140.738
0
LINE
8
BLACK
6
CONTINUOUS
10
133.634
20
-140.738
11
133.491
21
-140.167
0
LINE
8
BLACK
6
CONTINUOUS
10
133.491
20
-140.167
11
133.491
21
-139.453
0
LINE
8
BLACK
6
CONTINUOUS
10
133.491
20
-139.453
11
133.634
21
-138.881
0
LINE
8
BLACK
6
CONTINUOUS
10
133.634
20
-138.881
11
133.777
21
-138.596
0
LINE
8
BLACK
6
CONTINUOUS
10
133.777
20
-138.596
11
133.92
21
-138.453
0
LINE
8
BLACK
6
CONTINUOUS
10
133.92
20
-138.453
11
134.205
21
-138.31
0
LINE
8
BLACK
6
CONTINUOUS
10
136.205
20
-138.31
11
138.063
21
-138.31
0
LINE
8
BLACK
6
CONTINUOUS
10
138.063
20
-138.31
11
137.063
21
-139.453
0
LINE
8
BLACK
6
CONTINUOUS
10
137.063
20
-139.453
11
137.491
21
-139.453
0
LINE
8
BLACK
6
CONTINUOUS
10
137.491
20
-139.453
11
137.777
21
-139.596
0
LINE
8
BLACK
6
CONTINUOUS
10
137.777
20
-139.596
11
137.92
21
-139.738
0
LINE
8
BLACK
6
CONTINUOUS
10
137.92
20
-139.738
11
138.063
21
-140.024
0
LINE
8
BLACK
6
CONTINUOUS
10
138.063
20
-140.024
11
138.063
21
-140.738
0
LINE
8
BLACK
6
CONTINUOUS
10
138.063
20
-140.738
11
137.92
21
-141.024
0
LINE
8
BLACK
6
CONTINUOUS
10
137.92
20
-141.024
11
137.777
21
-141.167
0
LINE
8
BLACK
6
CONTINUOUS
10
137.777
20
-141.167
11
137.491
21
-141.31
0
LINE
8
BLACK
6
CONTINUOUS
10
137.491
20
-141.31
11
136.634
21
-141.31
0
LINE
8
BLACK
6
CONTINUOUS
10
136.634
20
-141.31
11
136.348
21
-141.167
0
LINE
8
BLACK
6
CONTINUOUS
10
136.348
20
-141.167
11
136.205
21
-141.024
0
LINE
8
BLACK
6
CONTINUOUS
10
139.491
20
-141.31
11
140.063
21
-141.31
0
LINE
8
BLACK
6
CONTINUOUS
10
140.063
20
-141.31
11
140.348
21
-141.167
0
LINE
8
BLACK
6
CONTINUOUS
10
140.348
20
-141.167
11
140.491
21
-141.024
0
LINE
8
BLACK
6
CONTINUOUS
10
140.491
20
-141.024
11
140.777
21
-140.596
0
LINE
8
BLACK
6
CONTINUOUS
10
140.777
20
-140.596
11
140.92
21
-140.024
0
LINE
8
BLACK
6
CONTINUOUS
10
140.92
20
-140.024
11
140.92
21
-138.881
0
LINE
8
BLACK
6
CONTINUOUS
10
140.92
20
-138.881
11
140.777
21
-138.596
0
LINE
8
BLACK
6
CONTINUOUS
10
140.777
20
-138.596
11
140.634
21
-138.453
0
LINE
8
BLACK
6
CONTINUOUS
10
140.634
20
-138.453
11
140.348
21
-138.31
0
LINE
8
BLACK
6
CONTINUOUS
10
140.348
20
-138.31
11
139.777
21
-138.31
0
LINE
8
BLACK
6
CONTINUOUS
10
139.777
20
-138.31
11
139.491
21
-138.453
0
LINE
8
BLACK
6
CONTINUOUS
10
139.491
20
-138.453
11
139.348
21
-138.596
0
LINE
8
BLACK
6
CONTINUOUS
10
139.348
20
-138.596
11
139.205
21
-138.881
0
LINE
8
BLACK
6
CONTINUOUS
10
139.205
20
-138.881
11
139.205
21
-139.596
0
LINE
8
BLACK
6
CONTINUOUS
10
139.205
20
-139.596
11
139.348
21
-139.881
0
LINE
8
BLACK
6
CONTINUOUS
10
139.348
20
-139.881
11
139.491
21
-140.024
0
LINE
8
BLACK
6
CONTINUOUS
10
139.491
20
-140.024
11
139.777
21
-140.167
0
LINE
8
BLACK
6
CONTINUOUS
10
139.777
20
-140.167
11
140.348
21
-140.167
0
LINE
8
BLACK
6
CONTINUOUS
10
140.348
20
-140.167
11
140.634
21
-140.024
0
LINE
8
BLACK
6
CONTINUOUS
10
140.634
20
-140.024
11
140.777
21
-139.881
0
LINE
8
BLACK
6
CONTINUOUS
10
140.777
20
-139.881
11
140.92
21
-139.596
0
LINE
8
BLACK
6
CONTINUOUS
10
142.063
20
-138.31
11
142.063
21
-138.881
0
LINE
8
BLACK
6
CONTINUOUS
10
143.205
20
-138.31
11
143.205
21
-138.881
0
LINE
8
BLACK
6
CONTINUOUS
10
147.634
20
-142.453
11
147.491
21
-142.31
0
LINE
8
BLACK
6
CONTINUOUS
10
147.491
20
-142.31
11
147.205
21
-141.881
0
LINE
8
BLACK
6
CONTINUOUS
10
147.205
20
-141.881
11
147.063
21
-141.596
0
LINE
8
BLACK
6
CONTINUOUS
10
147.063
20
-141.596
11
146.92
21
-141.167
0
LINE
8
BLACK
6
CONTINUOUS
10
146.92
20
-141.167
11
146.777
21
-140.453
0
LINE
8
BLACK
6
CONTINUOUS
10
146.777
20
-140.453
11
146.777
21
-139.881
0
LINE
8
BLACK
6
CONTINUOUS
10
146.777
20
-139.881
11
146.92
21
-139.167
0
LINE
8
BLACK
6
CONTINUOUS
10
146.92
20
-139.167
11
147.063
21
-138.738
0
LINE
8
BLACK
6
CONTINUOUS
10
147.063
20
-138.738
11
147.205
21
-138.453
0
LINE
8
BLACK
6
CONTINUOUS
10
147.205
20
-138.453
11
147.491
21
-138.024
0
LINE
8
BLACK
6
CONTINUOUS
10
147.491
20
-138.024
11
147.634
21
-137.881
0
LINE
8
BLACK
6
CONTINUOUS
10
148.634
20
-138.596
11
148.777
21
-138.453
0
LINE
8
BLACK
6
CONTINUOUS
10
148.777
20
-138.453
11
149.063
21
-138.31
0
LINE
8
BLACK
6
CONTINUOUS
10
149.063
20
-138.31
11
149.777
21
-138.31
0
LINE
8
BLACK
6
CONTINUOUS
10
149.777
20
-138.31
11
150.063
21
-138.453
0
LINE
8
BLACK
6
CONTINUOUS
10
150.063
20
-138.453
11
150.205
21
-138.596
0
LINE
8
BLACK
6
CONTINUOUS
10
150.205
20
-138.596
11
150.348
21
-138.881
0
LINE
8
BLACK
6
CONTINUOUS
10
150.348
20
-138.881
11
150.348
21
-139.167
0
LINE
8
BLACK
6
CONTINUOUS
10
150.348
20
-139.167
11
150.205
21
-139.596
0
LINE
8
BLACK
6
CONTINUOUS
10
150.205
20
-139.596
11
148.491
21
-141.31
0
LINE
8
BLACK
6
CONTINUOUS
10
148.491
20
-141.31
11
150.348
21
-141.31
0
LINE
8
BLACK
6
CONTINUOUS
10
152.205
20
-138.31
11
152.491
21
-138.31
0
LINE
8
BLACK
6
CONTINUOUS
10
152.491
20
-138.31
11
152.777
21
-138.453
0
LINE
8
BLACK
6
CONTINUOUS
10
152.777
20
-138.453
11
152.92
21
-138.596
0
LINE
8
BLACK
6
CONTINUOUS
10
152.92
20
-138.596
11
153.063
21
-138.881
0
LINE
8
BLACK
6
CONTINUOUS
10
153.063
20
-138.881
11
153.205
21
-139.453
0
LINE
8
BLACK
6
CONTINUOUS
10
153.205
20
-139.453
11
153.205
21
-140.167
0
LINE
8
BLACK
6
CONTINUOUS
10
153.205
20
-140.167
11
153.063
21
-140.738
0
LINE
8
BLACK
6
CONTINUOUS
10
153.063
20
-140.738
11
152.92
21
-141.024
0
LINE
8
BLACK
6
CONTINUOUS
10
152.92
20
-141.024
11
152.777
21
-141.167
0
LINE
8
BLACK
6
CONTINUOUS
10
152.777
20
-141.167
11
152.491
21
-141.31
0
LINE
8
BLACK
6
CONTINUOUS
10
152.491
20
-141.31
11
152.205
21
-141.31
0
LINE
8
BLACK
6
CONTINUOUS
10
152.205
20
-141.31
11
151.92
21
-141.167
0
LINE
8
BLACK
6
CONTINUOUS
10
151.92
20
-141.167
11
151.777
21
-141.024
0
LINE
8
BLACK
6
CONTINUOUS
10
151.777
20
-141.024
11
151.634
21
-140.738
0
LINE
8
BLACK
6
CONTINUOUS
10
151.634
20
-140.738
11
151.491
21
-140.167
0
LINE
8
BLACK
6
CONTINUOUS
10
151.491
20
-140.167
11
151.491
21
-139.453
0
LINE
8
BLACK
6
CONTINUOUS
10
151.491
20
-139.453
11
151.634
21
-138.881
0
LINE
8
BLACK
6
CONTINUOUS
10
151.634
20
-138.881
11
151.777
21
-138.596
0
LINE
8
BLACK
6
CONTINUOUS
10
151.777
20
-138.596
11
151.92
21
-138.453
0
LINE
8
BLACK
6
CONTINUOUS
10
151.92
20
-138.453
11
152.205
21
-138.31
0
LINE
8
BLACK
6
CONTINUOUS
10
156.777
20
-141.31
11
156.777
21
-138.31
0
LINE
8
BLACK
6
CONTINUOUS
10
158.063
20
-141.31
11
158.063
21
-139.738
0
LINE
8
BLACK
6
CONTINUOUS
10
158.063
20
-139.738
11
157.92
21
-139.453
0
LINE
8
BLACK
6
CONTINUOUS
10
157.92
20
-139.453
11
157.634
21
-139.31
0
LINE
8
BLACK
6
CONTINUOUS
10
157.634
20
-139.31
11
157.205
21
-139.31
0
LINE
8
BLACK
6
CONTINUOUS
10
157.205
20
-139.31
11
156.92
21
-139.453
0
LINE
8
BLACK
6
CONTINUOUS
10
156.92
20
-139.453
11
156.777
21
-139.596
0
LINE
8
BLACK
6
CONTINUOUS
10
159.92
20
-141.31
11
159.634
21
-141.167
0
LINE
8
BLACK
6
CONTINUOUS
10
159.634
20
-141.167
11
159.491
21
-141.024
0
LINE
8
BLACK
6
CONTINUOUS
10
159.491
20
-141.024
11
159.348
21
-140.738
0
LINE
8
BLACK
6
CONTINUOUS
10
159.348
20
-140.738
11
159.348
21
-139.881
0
LINE
8
BLACK
6
CONTINUOUS
10
159.348
20
-139.881
11
159.491
21
-139.596
0
LINE
8
BLACK
6
CONTINUOUS
10
159.491
20
-139.596
11
159.634
21
-139.453
0
LINE
8
BLACK
6
CONTINUOUS
10
159.634
20
-139.453
11
159.92
21
-139.31
0
LINE
8
BLACK
6
CONTINUOUS
10
159.92
20
-139.31
11
160.348
21
-139.31
0
LINE
8
BLACK
6
CONTINUOUS
10
160.348
20
-139.31
11
160.634
21
-139.453
0
LINE
8
BLACK
6
CONTINUOUS
10
160.634
20
-139.453
11
160.777
21
-139.596
0
LINE
8
BLACK
6
CONTINUOUS
10
160.777
20
-139.596
11
160.92
21
-139.881
0
LINE
8
BLACK
6
CONTINUOUS
10
160.92
20
-139.881
11
160.92
21
-140.738
0
LINE
8
BLACK
6
CONTINUOUS
10
160.92
20
-140.738
11
160.777
21
-141.024
0
LINE
8
BLACK
6
CONTINUOUS
10
160.777
20
-141.024
11
160.634
21
-141.167
0
LINE
8
BLACK
6
CONTINUOUS
10
160.634
20
-141.167
11
160.348
21
-141.31
0
LINE
8
BLACK
6
CONTINUOUS
10
160.348
20
-141.31
11
159.92
21
-141.31
0
LINE
8
BLACK
6
CONTINUOUS
10
162.634
20
-141.31
11
162.348
21
-141.167
0
LINE
8
BLACK
6
CONTINUOUS
10
162.348
20
-141.167
11
162.205
21
-140.881
0
LINE
8
BLACK
6
CONTINUOUS
10
162.205
20
-140.881
11
162.205
21
-138.31
0
LINE
8
BLACK
6
CONTINUOUS
10
164.92
20
-141.167
11
164.634
21
-141.31
0
LINE
8
BLACK
6
CONTINUOUS
10
164.634
20
-141.31
11
164.063
21
-141.31
0
LINE
8
BLACK
6
CONTINUOUS
10
164.063
20
-141.31
11
163.777
21
-141.167
0
LINE
8
BLACK
6
CONTINUOUS
10
163.777
20
-141.167
11
163.634
21
-140.881
0
LINE
8
BLACK
6
CONTINUOUS
10
163.634
20
-140.881
11
163.634
21
-139.738
0
LINE
8
BLACK
6
CONTINUOUS
10
163.634
20
-139.738
11
163.777
21
-139.453
0
LINE
8
BLACK
6
CONTINUOUS
10
163.777
20
-139.453
11
164.063
21
-139.31
0
LINE
8
BLACK
6
CONTINUOUS
10
164.063
20
-139.31
11
164.634
21
-139.31
0
LINE
8
BLACK
6
CONTINUOUS
10
164.634
20
-139.31
11
164.92
21
-139.453
0
LINE
8
BLACK
6
CONTINUOUS
10
164.92
20
-139.453
11
165.063
21
-139.738
0
LINE
8
BLACK
6
CONTINUOUS
10
165.063
20
-139.738
11
165.063
21
-140.024
0
LINE
8
BLACK
6
CONTINUOUS
10
165.063
20
-140.024
11
163.634
21
-140.31
0
LINE
8
BLACK
6
CONTINUOUS
10
166.205
20
-141.167
11
166.491
21
-141.31
0
LINE
8
BLACK
6
CONTINUOUS
10
166.491
20
-141.31
11
167.063
21
-141.31
0
LINE
8
BLACK
6
CONTINUOUS
10
167.063
20
-141.31
11
167.348
21
-141.167
0
LINE
8
BLACK
6
CONTINUOUS
10
167.348
20
-141.167
11
167.491
21
-140.881
0
LINE
8
BLACK
6
CONTINUOUS
10
167.491
20
-140.881
11
167.491
21
-140.738
0
LINE
8
BLACK
6
CONTINUOUS
10
167.491
20
-140.738
11
167.348
21
-140.453
0
LINE
8
BLACK
6
CONTINUOUS
10
167.348
20
-140.453
11
167.063
21
-140.31
0
LINE
8
BLACK
6
CONTINUOUS
10
167.063
20
-140.31
11
166.634
21
-140.31
0
LINE
8
BLACK
6
CONTINUOUS
10
166.634
20
-140.31
11
166.348
21
-140.167
0
LINE
8
BLACK
6
CONTINUOUS
10
166.348
20
-140.167
11
166.205
21
-139.881
0
LINE
8
BLACK
6
CONTINUOUS
10
166.205
20
-139.881
11
166.205
21
-139.738
0
LINE
8
BLACK
6
CONTINUOUS
10
166.205
20
-139.738
11
166.348
21
-139.453
0
LINE
8
BLACK
6
CONTINUOUS
10
166.348
20
-139.453
11
166.634
21
-139.31
0
LINE
8
BLACK
6
CONTINUOUS
10
166.634
20
-139.31
11
167.063
21
-139.31
0
LINE
8
BLACK
6
CONTINUOUS
10
167.063
20
-139.31
11
167.348
21
-139.453
0
LINE
8
BLACK
6
CONTINUOUS
10
168.491
20
-142.453
11
168.634
21
-142.31
0
LINE
8
BLACK
6
CONTINUOUS
10
168.634
20
-142.31
11
168.92
21
-141.881
0
LINE
8
BLACK
6
CONTINUOUS
10
168.92
20
-141.881
11
169.063
21
-141.596
0
LINE
8
BLACK
6
CONTINUOUS
10
169.063
20
-141.596
11
169.205
21
-141.167
0
LINE
8
BLACK
6
CONTINUOUS
10
169.205
20
-141.167
11
169.348
21
-140.453
0
LINE
8
BLACK
6
CONTINUOUS
10
169.348
20
-140.453
11
169.348
21
-139.881
0
LINE
8
BLACK
6
CONTINUOUS
10
169.348
20
-139.881
11
169.205
21
-139.167
0
LINE
8
BLACK
6
CONTINUOUS
10
169.205
20
-139.167
11
169.063
21
-138.738
0
LINE
8
BLACK
6
CONTINUOUS
10
169.063
20
-138.738
11
168.92
21
-138.453
0
LINE
8
BLACK
6
CONTINUOUS
10
168.92
20
-138.453
11
168.634
21
-138.024
0
LINE
8
BLACK
6
CONTINUOUS
10
168.634
20
-138.024
11
168.491
21
-137.881
0
LINE
8
BLACK
6
CONTINUOUS
10
100.595
20
-144.333
11
100.595
21
-143.492
0
LINE
8
BLACK
6
CONTINUOUS
10
100.595
20
-143.492
11
99.754
21
-143.492
0
LINE
8
BLACK
6
CONTINUOUS
10
99.754
20
-143.492
11
99.754
21
-144.333
0
LINE
8
BLACK
6
CONTINUOUS
10
99.754
20
-144.333
11
100.595
21
-144.333
0
LINE
8
BLACK
6
CONTINUOUS
10
105.205
20
-145.27
11
103.491
21
-145.27
0
LINE
8
BLACK
6
CONTINUOUS
10
104.348
20
-145.27
11
104.348
21
-142.27
0
LINE
8
BLACK
6
CONTINUOUS
10
104.348
20
-142.27
11
104.063
21
-142.698
0
LINE
8
BLACK
6
CONTINUOUS
10
104.063
20
-142.698
11
103.777
21
-142.984
0
LINE
8
BLACK
6
CONTINUOUS
10
103.777
20
-142.984
11
103.491
21
-143.127
0
LINE
8
BLACK
6
CONTINUOUS
10
106.491
20
-144.984
11
106.634
21
-145.127
0
LINE
8
BLACK
6
CONTINUOUS
10
106.634
20
-145.127
11
106.491
21
-145.27
0
LINE
8
BLACK
6
CONTINUOUS
10
106.491
20
-145.27
11
106.348
21
-145.127
0
LINE
8
BLACK
6
CONTINUOUS
10
106.348
20
-145.127
11
106.491
21
-144.984
0
LINE
8
BLACK
6
CONTINUOUS
10
106.491
20
-144.984
11
106.491
21
-145.27
0
LINE
8
BLACK
6
CONTINUOUS
10
109.491
20
-145.27
11
107.777
21
-145.27
0
LINE
8
BLACK
6
CONTINUOUS
10
108.634
20
-145.27
11
108.634
21
-142.27
0
LINE
8
BLACK
6
CONTINUOUS
10
108.634
20
-142.27
11
108.348
21
-142.698
0
LINE
8
BLACK
6
CONTINUOUS
10
108.348
20
-142.698
11
108.063
21
-142.984
0
LINE
8
BLACK
6
CONTINUOUS
10
108.063
20
-142.984
11
107.777
21
-143.127
0
LINE
8
BLACK
6
CONTINUOUS
10
110.92
20
-145.27
11
111.491
21
-145.27
0
LINE
8
BLACK
6
CONTINUOUS
10
111.491
20
-145.27
11
111.777
21
-145.127
0
LINE
8
BLACK
6
CONTINUOUS
10
111.777
20
-145.127
11
111.92
21
-144.984
0
LINE
8
BLACK
6
CONTINUOUS
10
111.92
20
-144.984
11
112.205
21
-144.556
0
LINE
8
BLACK
6
CONTINUOUS
10
112.205
20
-144.556
11
112.348
21
-143.984
0
LINE
8
BLACK
6
CONTINUOUS
10
112.348
20
-143.984
11
112.348
21
-142.841
0
LINE
8
BLACK
6
CONTINUOUS
10
112.348
20
-142.841
11
112.205
21
-142.556
0
LINE
8
BLACK
6
CONTINUOUS
10
112.205
20
-142.556
11
112.063
21
-142.413
0
LINE
8
BLACK
6
CONTINUOUS
10
112.063
20
-142.413
11
111.777
21
-142.27
0
LINE
8
BLACK
6
CONTINUOUS
10
111.777
20
-142.27
11
111.205
21
-142.27
0
LINE
8
BLACK
6
CONTINUOUS
10
111.205
20
-142.27
11
110.92
21
-142.413
0
LINE
8
BLACK
6
CONTINUOUS
10
110.92
20
-142.413
11
110.777
21
-142.556
0
LINE
8
BLACK
6
CONTINUOUS
10
110.777
20
-142.556
11
110.634
21
-142.841
0
LINE
8
BLACK
6
CONTINUOUS
10
110.634
20
-142.841
11
110.634
21
-143.556
0
LINE
8
BLACK
6
CONTINUOUS
10
110.634
20
-143.556
11
110.777
21
-143.841
0
LINE
8
BLACK
6
CONTINUOUS
10
110.777
20
-143.841
11
110.92
21
-143.984
0
LINE
8
BLACK
6
CONTINUOUS
10
110.92
20
-143.984
11
111.205
21
-144.127
0
LINE
8
BLACK
6
CONTINUOUS
10
111.205
20
-144.127
11
111.777
21
-144.127
0
LINE
8
BLACK
6
CONTINUOUS
10
111.777
20
-144.127
11
112.063
21
-143.984
0
LINE
8
BLACK
6
CONTINUOUS
10
112.063
20
-143.984
11
112.205
21
-143.841
0
LINE
8
BLACK
6
CONTINUOUS
10
112.205
20
-143.841
11
112.348
21
-143.556
0
LINE
8
BLACK
6
CONTINUOUS
10
113.634
20
-145.27
11
113.634
21
-143.27
0
LINE
8
BLACK
6
CONTINUOUS
10
113.634
20
-143.556
11
113.777
21
-143.413
0
LINE
8
BLACK
6
CONTINUOUS
10
113.777
20
-143.413
11
114.063
21
-143.27
0
LINE
8
BLACK
6
CONTINUOUS
10
114.063
20
-143.27
11
114.491
21
-143.27
0
LINE
8
BLACK
6
CONTINUOUS
10
114.491
20
-143.27
11
114.777
21
-143.413
0
LINE
8
BLACK
6
CONTINUOUS
10
114.777
20
-143.413
11
114.92
21
-143.698
0
LINE
8
BLACK
6
CONTINUOUS
10
114.92
20
-143.698
11
114.92
21
-145.27
0
LINE
8
BLACK
6
CONTINUOUS
10
114.92
20
-143.698
11
115.063
21
-143.413
0
LINE
8
BLACK
6
CONTINUOUS
10
115.063
20
-143.413
11
115.348
21
-143.27
0
LINE
8
BLACK
6
CONTINUOUS
10
115.348
20
-143.27
11
115.777
21
-143.27
0
LINE
8
BLACK
6
CONTINUOUS
10
115.777
20
-143.27
11
116.063
21
-143.413
0
LINE
8
BLACK
6
CONTINUOUS
10
116.063
20
-143.413
11
116.205
21
-143.698
0
LINE
8
BLACK
6
CONTINUOUS
10
116.205
20
-143.698
11
116.205
21
-145.27
0
LINE
8
BLACK
6
CONTINUOUS
10
117.634
20
-145.27
11
117.634
21
-143.27
0
LINE
8
BLACK
6
CONTINUOUS
10
117.634
20
-143.556
11
117.777
21
-143.413
0
LINE
8
BLACK
6
CONTINUOUS
10
117.777
20
-143.413
11
118.063
21
-143.27
0
LINE
8
BLACK
6
CONTINUOUS
10
118.063
20
-143.27
11
118.491
21
-143.27
0
LINE
8
BLACK
6
CONTINUOUS
10
118.491
20
-143.27
11
118.777
21
-143.413
0
LINE
8
BLACK
6
CONTINUOUS
10
118.777
20
-143.413
11
118.92
21
-143.698
0
LINE
8
BLACK
6
CONTINUOUS
10
118.92
20
-143.698
11
118.92
21
-145.27
0
LINE
8
BLACK
6
CONTINUOUS
10
118.92
20
-143.698
11
119.063
21
-143.413
0
LINE
8
BLACK
6
CONTINUOUS
10
119.063
20
-143.413
11
119.348
21
-143.27
0
LINE
8
BLACK
6
CONTINUOUS
10
119.348
20
-143.27
11
119.777
21
-143.27
0
LINE
8
BLACK
6
CONTINUOUS
10
119.777
20
-143.27
11
120.063
21
-143.413
0
LINE
8
BLACK
6
CONTINUOUS
10
120.063
20
-143.413
11
120.205
21
-143.698
0
LINE
8
BLACK
6
CONTINUOUS
10
120.205
20
-143.698
11
120.205
21
-145.27
0
LINE
8
BLACK
6
CONTINUOUS
10
126.063
20
-142.127
11
123.491
21
-145.984
0
LINE
8
BLACK
6
CONTINUOUS
10
129.92
20
-142.27
11
130.205
21
-142.27
0
LINE
8
BLACK
6
CONTINUOUS
10
130.205
20
-142.27
11
130.491
21
-142.413
0
LINE
8
BLACK
6
CONTINUOUS
10
130.491
20
-142.413
11
130.634
21
-142.556
0
LINE
8
BLACK
6
CONTINUOUS
10
130.634
20
-142.556
11
130.777
21
-142.841
0
LINE
8
BLACK
6
CONTINUOUS
10
130.777
20
-142.841
11
130.92
21
-143.413
0
LINE
8
BLACK
6
CONTINUOUS
10
130.92
20
-143.413
11
130.92
21
-144.127
0
LINE
8
BLACK
6
CONTINUOUS
10
130.92
20
-144.127
11
130.777
21
-144.698
0
LINE
8
BLACK
6
CONTINUOUS
10
130.777
20
-144.698
11
130.634
21
-144.984
0
LINE
8
BLACK
6
CONTINUOUS
10
130.634
20
-144.984
11
130.491
21
-145.127
0
LINE
8
BLACK
6
CONTINUOUS
10
130.491
20
-145.127
11
130.205
21
-145.27
0
LINE
8
BLACK
6
CONTINUOUS
10
130.205
20
-145.27
11
129.92
21
-145.27
0
LINE
8
BLACK
6
CONTINUOUS
10
129.92
20
-145.27
11
129.634
21
-145.127
0
LINE
8
BLACK
6
CONTINUOUS
10
129.634
20
-145.127
11
129.491
21
-144.984
0
LINE
8
BLACK
6
CONTINUOUS
10
129.491
20
-144.984
11
129.348
21
-144.698
0
LINE
8
BLACK
6
CONTINUOUS
10
129.348
20
-144.698
11
129.205
21
-144.127
0
LINE
8
BLACK
6
CONTINUOUS
10
129.205
20
-144.127
11
129.205
21
-143.413
0
LINE
8
BLACK
6
CONTINUOUS
10
129.205
20
-143.413
11
129.348
21
-142.841
0
LINE
8
BLACK
6
CONTINUOUS
10
129.348
20
-142.841
11
129.491
21
-142.556
0
LINE
8
BLACK
6
CONTINUOUS
10
129.491
20
-142.556
11
129.634
21
-142.413
0
LINE
8
BLACK
6
CONTINUOUS
10
129.634
20
-142.413
11
129.92
21
-142.27
0
LINE
8
BLACK
6
CONTINUOUS
10
132.205
20
-144.984
11
132.348
21
-145.127
0
LINE
8
BLACK
6
CONTINUOUS
10
132.348
20
-145.127
11
132.205
21
-145.27
0
LINE
8
BLACK
6
CONTINUOUS
10
132.205
20
-145.27
11
132.063
21
-145.127
0
LINE
8
BLACK
6
CONTINUOUS
10
132.063
20
-145.127
11
132.205
21
-144.984
0
LINE
8
BLACK
6
CONTINUOUS
10
132.205
20
-144.984
11
132.205
21
-145.27
0
LINE
8
BLACK
6
CONTINUOUS
10
134.205
20
-142.27
11
134.491
21
-142.27
0
LINE
8
BLACK
6
CONTINUOUS
10
134.491
20
-142.27
11
134.777
21
-142.413
0
LINE
8
BLACK
6
CONTINUOUS
10
134.777
20
-142.413
11
134.92
21
-142.556
0
LINE
8
BLACK
6
CONTINUOUS
10
134.92
20
-142.556
11
135.063
21
-142.841
0
LINE
8
BLACK
6
CONTINUOUS
10
135.063
20
-142.841
11
135.205
21
-143.413
0
LINE
8
BLACK
6
CONTINUOUS
10
135.205
20
-143.413
11
135.205
21
-144.127
0
LINE
8
BLACK
6
CONTINUOUS
10
135.205
20
-144.127
11
135.063
21
-144.698
0
LINE
8
BLACK
6
CONTINUOUS
10
135.063
20
-144.698
11
134.92
21
-144.984
0
LINE
8
BLACK
6
CONTINUOUS
10
134.92
20
-144.984
11
134.777
21
-145.127
0
LINE
8
BLACK
6
CONTINUOUS
10
134.777
20
-145.127
11
134.491
21
-145.27
0
LINE
8
BLACK
6
CONTINUOUS
10
134.491
20
-145.27
11
134.205
21
-145.27
0
LINE
8
BLACK
6
CONTINUOUS
10
134.205
20
-145.27
11
133.92
21
-145.127
0
LINE
8
BLACK
6
CONTINUOUS
10
133.92
20
-145.127
11
133.777
21
-144.984
0
LINE
8
BLACK
6
CONTINUOUS
10
133.777
20
-144.984
11
133.634
21
-144.698
0
LINE
8
BLACK
6
CONTINUOUS
10
133.634
20
-144.698
11
133.491
21
-144.127
0
LINE
8
BLACK
6
CONTINUOUS
10
133.491
20
-144.127
11
133.491
21
-143.413
0
LINE
8
BLACK
6
CONTINUOUS
10
133.491
20
-143.413
11
133.634
21
-142.841
0
LINE
8
BLACK
6
CONTINUOUS
10
133.634
20
-142.841
11
133.777
21
-142.556
0
LINE
8
BLACK
6
CONTINUOUS
10
133.777
20
-142.556
11
133.92
21
-142.413
0
LINE
8
BLACK
6
CONTINUOUS
10
133.92
20
-142.413
11
134.205
21
-142.27
0
LINE
8
BLACK
6
CONTINUOUS
10
137.777
20
-143.27
11
137.777
21
-145.27
0
LINE
8
BLACK
6
CONTINUOUS
10
137.063
20
-142.127
11
136.348
21
-144.27
0
LINE
8
BLACK
6
CONTINUOUS
10
136.348
20
-144.27
11
138.205
21
-144.27
0
LINE
8
BLACK
6
CONTINUOUS
10
139.063
20
-142.27
11
141.063
21
-142.27
0
LINE
8
BLACK
6
CONTINUOUS
10
141.063
20
-142.27
11
139.777
21
-145.27
0
LINE
8
BLACK
6
CONTINUOUS
10
142.063
20
-142.27
11
142.063
21
-142.841
0
LINE
8
BLACK
6
CONTINUOUS
10
143.205
20
-142.27
11
143.205
21
-142.841
0
LINE
8
BLACK
6
CONTINUOUS
10
147.634
20
-146.413
11
147.491
21
-146.27
0
LINE
8
BLACK
6
CONTINUOUS
10
147.491
20
-146.27
11
147.205
21
-145.841
0
LINE
8
BLACK
6
CONTINUOUS
10
147.205
20
-145.841
11
147.063
21
-145.556
0
LINE
8
BLACK
6
CONTINUOUS
10
147.063
20
-145.556
11
146.92
21
-145.127
0
LINE
8
BLACK
6
CONTINUOUS
10
146.92
20
-145.127
11
146.777
21
-144.413
0
LINE
8
BLACK
6
CONTINUOUS
10
146.777
20
-144.413
11
146.777
21
-143.841
0
LINE
8
BLACK
6
CONTINUOUS
10
146.777
20
-143.841
11
146.92
21
-143.127
0
LINE
8
BLACK
6
CONTINUOUS
10
146.92
20
-143.127
11
147.063
21
-142.698
0
LINE
8
BLACK
6
CONTINUOUS
10
147.063
20
-142.698
11
147.205
21
-142.413
0
LINE
8
BLACK
6
CONTINUOUS
10
147.205
20
-142.413
11
147.491
21
-141.984
0
LINE
8
BLACK
6
CONTINUOUS
10
147.491
20
-141.984
11
147.634
21
-141.841
0
LINE
8
BLACK
6
CONTINUOUS
10
148.491
20
-142.27
11
150.348
21
-142.27
0
LINE
8
BLACK
6
CONTINUOUS
10
150.348
20
-142.27
11
149.348
21
-143.413
0
LINE
8
BLACK
6
CONTINUOUS
10
149.348
20
-143.413
11
149.777
21
-143.413
0
LINE
8
BLACK
6
CONTINUOUS
10
149.777
20
-143.413
11
150.063
21
-143.556
0
LINE
8
BLACK
6
CONTINUOUS
10
150.063
20
-143.556
11
150.205
21
-143.698
0
LINE
8
BLACK
6
CONTINUOUS
10
150.205
20
-143.698
11
150.348
21
-143.984
0
LINE
8
BLACK
6
CONTINUOUS
10
150.348
20
-143.984
11
150.348
21
-144.698
0
LINE
8
BLACK
6
CONTINUOUS
10
150.348
20
-144.698
11
150.205
21
-144.984
0
LINE
8
BLACK
6
CONTINUOUS
10
150.205
20
-144.984
11
150.063
21
-145.127
0
LINE
8
BLACK
6
CONTINUOUS
10
150.063
20
-145.127
11
149.777
21
-145.27
0
LINE
8
BLACK
6
CONTINUOUS
10
149.777
20
-145.27
11
148.92
21
-145.27
0
LINE
8
BLACK
6
CONTINUOUS
10
148.92
20
-145.27
11
148.634
21
-145.127
0
LINE
8
BLACK
6
CONTINUOUS
10
148.634
20
-145.127
11
148.491
21
-144.984
0
LINE
8
BLACK
6
CONTINUOUS
10
151.491
20
-142.556
11
151.634
21
-142.413
0
LINE
8
BLACK
6
CONTINUOUS
10
151.634
20
-142.413
11
151.92
21
-142.27
0
LINE
8
BLACK
6
CONTINUOUS
10
151.92
20
-142.27
11
152.634
21
-142.27
0
LINE
8
BLACK
6
CONTINUOUS
10
152.634
20
-142.27
11
152.92
21
-142.413
0
LINE
8
BLACK
6
CONTINUOUS
10
152.92
20
-142.413
11
153.063
21
-142.556
0
LINE
8
BLACK
6
CONTINUOUS
10
153.063
20
-142.556
11
153.205
21
-142.841
0
LINE
8
BLACK
6
CONTINUOUS
10
153.205
20
-142.841
11
153.205
21
-143.127
0
LINE
8
BLACK
6
CONTINUOUS
10
153.205
20
-143.127
11
153.063
21
-143.556
0
LINE
8
BLACK
6
CONTINUOUS
10
153.063
20
-143.556
11
151.348
21
-145.27
0
LINE
8
BLACK
6
CONTINUOUS
10
151.348
20
-145.27
11
153.205
21
-145.27
0
LINE
8
BLACK
6
CONTINUOUS
10
156.777
20
-145.27
11
156.777
21
-142.27
0
LINE
8
BLACK
6
CONTINUOUS
10
158.063
20
-145.27
11
158.063
21
-143.698
0
LINE
8
BLACK
6
CONTINUOUS
10
158.063
20
-143.698
11
157.92
21
-143.413
0
LINE
8
BLACK
6
CONTINUOUS
10
157.92
20
-143.413
11
157.634
21
-143.27
0
LINE
8
BLACK
6
CONTINUOUS
10
157.634
20
-143.27
11
157.205
21
-143.27
0
LINE
8
BLACK
6
CONTINUOUS
10
157.205
20
-143.27
11
156.92
21
-143.413
0
LINE
8
BLACK
6
CONTINUOUS
10
156.92
20
-143.413
11
156.777
21
-143.556
0
LINE
8
BLACK
6
CONTINUOUS
10
159.92
20
-145.27
11
159.634
21
-145.127
0
LINE
8
BLACK
6
CONTINUOUS
10
159.634
20
-145.127
11
159.491
21
-144.984
0
LINE
8
BLACK
6
CONTINUOUS
10
159.491
20
-144.984
11
159.348
21
-144.698
0
LINE
8
BLACK
6
CONTINUOUS
10
159.348
20
-144.698
11
159.348
21
-143.841
0
LINE
8
BLACK
6
CONTINUOUS
10
159.348
20
-143.841
11
159.491
21
-143.556
0
LINE
8
BLACK
6
CONTINUOUS
10
159.491
20
-143.556
11
159.634
21
-143.413
0
LINE
8
BLACK
6
CONTINUOUS
10
159.634
20
-143.413
11
159.92
21
-143.27
0
LINE
8
BLACK
6
CONTINUOUS
10
159.92
20
-143.27
11
160.348
21
-143.27
0
LINE
8
BLACK
6
CONTINUOUS
10
160.348
20
-143.27
11
160.634
21
-143.413
0
LINE
8
BLACK
6
CONTINUOUS
10
160.634
20
-143.413
11
160.777
21
-143.556
0
LINE
8
BLACK
6
CONTINUOUS
10
160.777
20
-143.556
11
160.92
21
-143.841
0
LINE
8
BLACK
6
CONTINUOUS
10
160.92
20
-143.841
11
160.92
21
-144.698
0
LINE
8
BLACK
6
CONTINUOUS
10
160.92
20
-144.698
11
160.777
21
-144.984
0
LINE
8
BLACK
6
CONTINUOUS
10
160.777
20
-144.984
11
160.634
21
-145.127
0
LINE
8
BLACK
6
CONTINUOUS
10
160.634
20
-145.127
11
160.348
21
-145.27
0
LINE
8
BLACK
6
CONTINUOUS
10
160.348
20
-145.27
11
159.92
21
-145.27
0
LINE
8
BLACK
6
CONTINUOUS
10
162.634
20
-145.27
11
162.348
21
-145.127
0
LINE
8
BLACK
6
CONTINUOUS
10
162.348
20
-145.127
11
162.205
21
-144.841
0
LINE
8
BLACK
6
CONTINUOUS
10
162.205
20
-144.841
11
162.205
21
-142.27
0
LINE
8
BLACK
6
CONTINUOUS
10
164.92
20
-145.127
11
164.634
21
-145.27
0
LINE
8
BLACK
6
CONTINUOUS
10
164.634
20
-145.27
11
164.063
21
-145.27
0
LINE
8
BLACK
6
CONTINUOUS
10
164.063
20
-145.27
11
163.777
21
-145.127
0
LINE
8
BLACK
6
CONTINUOUS
10
163.777
20
-145.127
11
163.634
21
-144.841
0
LINE
8
BLACK
6
CONTINUOUS
10
163.634
20
-144.841
11
163.634
21
-143.698
0
LINE
8
BLACK
6
CONTINUOUS
10
163.634
20
-143.698
11
163.777
21
-143.413
0
LINE
8
BLACK
6
CONTINUOUS
10
163.777
20
-143.413
11
164.063
21
-143.27
0
LINE
8
BLACK
6
CONTINUOUS
10
164.063
20
-143.27
11
164.634
21
-143.27
0
LINE
8
BLACK
6
CONTINUOUS
10
164.634
20
-143.27
11
164.92
21
-143.413
0
LINE
8
BLACK
6
CONTINUOUS
10
164.92
20
-143.413
11
165.063
21
-143.698
0
LINE
8
BLACK
6
CONTINUOUS
10
165.063
20
-143.698
11
165.063
21
-143.984
0
LINE
8
BLACK
6
CONTINUOUS
10
165.063
20
-143.984
11
163.634
21
-144.27
0
LINE
8
BLACK
6
CONTINUOUS
10
166.205
20
-145.127
11
166.491
21
-145.27
0
LINE
8
BLACK
6
CONTINUOUS
10
166.491
20
-145.27
11
167.063
21
-145.27
0
LINE
8
BLACK
6
CONTINUOUS
10
167.063
20
-145.27
11
167.348
21
-145.127
0
LINE
8
BLACK
6
CONTINUOUS
10
167.348
20
-145.127
11
167.491
21
-144.841
0
LINE
8
BLACK
6
CONTINUOUS
10
167.491
20
-144.841
11
167.491
21
-144.698
0
LINE
8
BLACK
6
CONTINUOUS
10
167.491
20
-144.698
11
167.348
21
-144.413
0
LINE
8
BLACK
6
CONTINUOUS
10
167.348
20
-144.413
11
167.063
21
-144.27
0
LINE
8
BLACK
6
CONTINUOUS
10
167.063
20
-144.27
11
166.634
21
-144.27
0
LINE
8
BLACK
6
CONTINUOUS
10
166.634
20
-144.27
11
166.348
21
-144.127
0
LINE
8
BLACK
6
CONTINUOUS
10
166.348
20
-144.127
11
166.205
21
-143.841
0
LINE
8
BLACK
6
CONTINUOUS
10
166.205
20
-143.841
11
166.205
21
-143.698
0
LINE
8
BLACK
6
CONTINUOUS
10
166.205
20
-143.698
11
166.348
21
-143.413
0
LINE
8
BLACK
6
CONTINUOUS
10
166.348
20
-143.413
11
166.634
21
-143.27
0
LINE
8
BLACK
6
CONTINUOUS
10
166.634
20
-143.27
11
167.063
21
-143.27
0
LINE
8
BLACK
6
CONTINUOUS
10
167.063
20
-143.27
11
167.348
21
-143.413
0
LINE
8
BLACK
6
CONTINUOUS
10
168.491
20
-146.413
11
168.634
21
-146.27
0
LINE
8
BLACK
6
CONTINUOUS
10
168.634
20
-146.27
11
168.92
21
-145.841
0
LINE
8
BLACK
6
CONTINUOUS
10
168.92
20
-145.841
11
169.063
21
-145.556
0
LINE
8
BLACK
6
CONTINUOUS
10
169.063
20
-145.556
11
169.205
21
-145.127
0
LINE
8
BLACK
6
CONTINUOUS
10
169.205
20
-145.127
11
169.348
21
-144.413
0
LINE
8
BLACK
6
CONTINUOUS
10
169.348
20
-144.413
11
169.348
21
-143.841
0
LINE
8
BLACK
6
CONTINUOUS
10
169.348
20
-143.841
11
169.205
21
-143.127
0
LINE
8
BLACK
6
CONTINUOUS
10
169.205
20
-143.127
11
169.063
21
-142.698
0
LINE
8
BLACK
6
CONTINUOUS
10
169.063
20
-142.698
11
168.92
21
-142.413
0
LINE
8
BLACK
6
CONTINUOUS
10
168.92
20
-142.413
11
168.634
21
-141.984
0
LINE
8
BLACK
6
CONTINUOUS
10
168.634
20
-141.984
11
168.491
21
-141.841
  0
ENDSEC
  0
EOF
