G04 #@! TF.GenerationSoftware,KiCad,Pcbnew,9.0.7*
G04 #@! TF.CreationDate,2026-08-01T03:17:38+10:00*
G04 #@! TF.ProjectId,Jet Ranger 13 Stepper,4a657420-5261-46e6-9765-722031332053,1.0*
G04 #@! TF.SameCoordinates,Original*
G04 #@! TF.FileFunction,Soldermask,Top*
G04 #@! TF.FilePolarity,Negative*
%FSLAX46Y46*%
G04 Gerber Fmt 4.6, Leading zero omitted, Abs format (unit mm)*
G04 Created by KiCad (PCBNEW 9.0.7) date 2026-08-01 03:17:38*
%MOMM*%
%LPD*%
G01*
G04 APERTURE LIST*
G04 Aperture macros list*
%AMRoundRect*
0 Rectangle with rounded corners*
0 $1 Rounding radius*
0 $2 $3 $4 $5 $6 $7 $8 $9 X,Y pos of 4 corners*
0 Add a 4 corners polygon primitive as box body*
4,1,4,$2,$3,$4,$5,$6,$7,$8,$9,$2,$3,0*
0 Add four circle primitives for the rounded corners*
1,1,$1+$1,$2,$3*
1,1,$1+$1,$4,$5*
1,1,$1+$1,$6,$7*
1,1,$1+$1,$8,$9*
0 Add four rect primitives between the rounded corners*
20,1,$1+$1,$2,$3,$4,$5,0*
20,1,$1+$1,$4,$5,$6,$7,0*
20,1,$1+$1,$6,$7,$8,$9,0*
20,1,$1+$1,$8,$9,$2,$3,0*%
G04 Aperture macros list end*
%ADD10C,2.000000*%
%ADD11RoundRect,0.250000X-0.620000X-0.845000X0.620000X-0.845000X0.620000X0.845000X-0.620000X0.845000X0*%
%ADD12O,1.740000X2.190000*%
%ADD13C,3.200000*%
%ADD14R,1.700000X1.700000*%
%ADD15O,1.700000X1.700000*%
%ADD16R,1.800000X1.800000*%
%ADD17C,1.800000*%
%ADD18C,1.600000*%
%ADD19R,3.500000X3.500000*%
%ADD20RoundRect,0.750000X0.750000X1.000000X-0.750000X1.000000X-0.750000X-1.000000X0.750000X-1.000000X0*%
%ADD21RoundRect,0.875000X0.875000X0.875000X-0.875000X0.875000X-0.875000X-0.875000X0.875000X-0.875000X0*%
%ADD22C,1.700000*%
%ADD23R,1.905000X2.000000*%
%ADD24O,1.905000X2.000000*%
%ADD25R,1.665000X1.665000*%
%ADD26C,1.665000*%
%ADD27O,1.727200X1.727200*%
%ADD28R,1.727200X1.727200*%
G04 APERTURE END LIST*
D10*
X111000000Y-109000000D03*
X111010000Y-103920000D03*
D11*
X35880000Y-115520000D03*
D12*
X38420000Y-115520000D03*
X40960000Y-115520000D03*
X43500000Y-115520000D03*
X46040000Y-115520000D03*
X48580000Y-115520000D03*
D13*
X126589800Y-38832100D03*
D14*
X63500000Y-41046400D03*
D15*
X60960000Y-41046400D03*
X58420000Y-41046400D03*
X55880000Y-41046400D03*
X53340000Y-41046400D03*
X50800000Y-41046400D03*
X48260000Y-41046400D03*
X45720000Y-41046400D03*
D14*
X117298000Y-50550000D03*
D15*
X117298000Y-48010000D03*
X117298000Y-45470000D03*
D14*
X86360000Y-41046400D03*
D15*
X83820000Y-41046400D03*
X81280000Y-41046400D03*
X78740000Y-41046400D03*
X76200000Y-41046400D03*
X73660000Y-41046400D03*
X71120000Y-41046400D03*
X68580000Y-41046400D03*
D16*
X127769000Y-87500000D03*
D17*
X125229000Y-87500000D03*
D11*
X73726700Y-126500000D03*
D12*
X76266700Y-126500000D03*
X78806700Y-126500000D03*
X81346700Y-126500000D03*
X83886700Y-126500000D03*
X86426700Y-126500000D03*
D18*
X117710700Y-82863900D03*
X120250700Y-82863900D03*
X117710700Y-79545900D03*
X120250700Y-79545900D03*
D13*
X32300000Y-38800000D03*
D14*
X39225000Y-41000000D03*
D15*
X41765000Y-41000000D03*
D19*
X118949000Y-118350000D03*
D20*
X124949000Y-118350000D03*
D21*
X121949000Y-113650000D03*
D13*
X125101000Y-130612200D03*
D16*
X113040000Y-85500000D03*
D17*
X110500000Y-85500000D03*
D11*
X73726700Y-115520000D03*
D12*
X76266700Y-115520000D03*
X78806700Y-115520000D03*
X81346700Y-115520000D03*
X83886700Y-115520000D03*
X86426700Y-115520000D03*
D16*
X127540000Y-81500000D03*
D17*
X125000000Y-81500000D03*
D10*
X110990000Y-120580000D03*
X111000000Y-115500000D03*
D14*
X33000000Y-98000000D03*
D22*
X33000000Y-95460000D03*
X33000000Y-92920000D03*
X33000000Y-90380000D03*
X33000000Y-87840000D03*
X33000000Y-85300000D03*
D18*
X117710700Y-86182000D03*
X120250700Y-86182000D03*
X125000000Y-91500000D03*
X127540000Y-91500000D03*
D14*
X68580000Y-98958400D03*
D15*
X66040000Y-98958400D03*
X63500000Y-98958400D03*
X60960000Y-98958400D03*
X58420000Y-98958400D03*
X55880000Y-98958400D03*
X53340000Y-98958400D03*
X50800000Y-98958400D03*
D11*
X54300000Y-54800000D03*
D12*
X56840000Y-54800000D03*
X59380000Y-54800000D03*
X61920000Y-54800000D03*
X64460000Y-54800000D03*
X67000000Y-54800000D03*
D11*
X83880000Y-84000000D03*
D12*
X86420000Y-84000000D03*
X88960000Y-84000000D03*
X91500000Y-84000000D03*
X94040000Y-84000000D03*
X96580000Y-84000000D03*
D18*
X94960000Y-61500000D03*
X97500000Y-61500000D03*
D23*
X88920000Y-56500000D03*
D24*
X91460000Y-56500000D03*
X94000000Y-56500000D03*
D13*
X33851800Y-130929500D03*
D25*
X121809000Y-55183300D03*
D26*
X119269000Y-55183300D03*
X116729000Y-55183300D03*
X114189000Y-55183300D03*
X111649000Y-55183300D03*
X109109000Y-55183300D03*
D25*
X121809000Y-75503300D03*
D26*
X119269000Y-75503300D03*
X116729000Y-75503300D03*
X114189000Y-75503300D03*
X111649000Y-75503300D03*
X109109000Y-75503300D03*
D16*
X113040000Y-90500000D03*
D17*
X110500000Y-90500000D03*
D18*
X117710700Y-89500000D03*
X120250700Y-89500000D03*
D14*
X109220000Y-41046400D03*
D15*
X106680000Y-41046400D03*
X104140000Y-41046400D03*
X101600000Y-41046400D03*
X99060000Y-41046400D03*
X96520000Y-41046400D03*
X93980000Y-41046400D03*
X91440000Y-41046400D03*
D11*
X83880000Y-74500000D03*
D12*
X86420000Y-74500000D03*
X88960000Y-74500000D03*
X91500000Y-74500000D03*
X94040000Y-74500000D03*
X96580000Y-74500000D03*
D14*
X118800000Y-125460000D03*
D15*
X118800000Y-128000000D03*
D11*
X54803300Y-115520000D03*
D12*
X57343300Y-115520000D03*
X59883300Y-115520000D03*
X62423300Y-115520000D03*
X64963300Y-115520000D03*
X67503300Y-115520000D03*
D11*
X54803300Y-126500000D03*
D12*
X57343300Y-126500000D03*
X59883300Y-126500000D03*
X62423300Y-126500000D03*
X64963300Y-126500000D03*
X67503300Y-126500000D03*
D11*
X92650000Y-115520000D03*
D12*
X95190000Y-115520000D03*
X97730000Y-115520000D03*
X100270000Y-115520000D03*
X102810000Y-115520000D03*
X105350000Y-115520000D03*
D11*
X53920000Y-75500000D03*
D12*
X56460000Y-75500000D03*
X59000000Y-75500000D03*
X61540000Y-75500000D03*
X64080000Y-75500000D03*
X66620000Y-75500000D03*
D18*
X111000000Y-51000000D03*
X113540000Y-51000000D03*
X89037500Y-61212500D03*
X91577500Y-61212500D03*
X104955000Y-49000000D03*
X107495000Y-49000000D03*
D11*
X53960000Y-86500000D03*
D12*
X56500000Y-86500000D03*
X59040000Y-86500000D03*
X61580000Y-86500000D03*
X64120000Y-86500000D03*
X66660000Y-86500000D03*
D11*
X54460000Y-65500000D03*
D12*
X57000000Y-65500000D03*
X59540000Y-65500000D03*
X62080000Y-65500000D03*
X64620000Y-65500000D03*
X67160000Y-65500000D03*
D16*
X113040000Y-80500000D03*
D17*
X110500000Y-80500000D03*
D19*
X120000000Y-106207500D03*
D20*
X126000000Y-106207500D03*
D21*
X123000000Y-101507500D03*
D14*
X95504000Y-98958400D03*
D15*
X98044000Y-98958400D03*
X100584000Y-98958400D03*
X103124000Y-98958400D03*
X105664000Y-98958400D03*
X108204000Y-98958400D03*
X110744000Y-98958400D03*
X113284000Y-98958400D03*
X115824000Y-98958400D03*
X118364000Y-98958400D03*
D11*
X92650000Y-126500000D03*
D12*
X95190000Y-126500000D03*
X97730000Y-126500000D03*
X100270000Y-126500000D03*
X102810000Y-126500000D03*
X105350000Y-126500000D03*
D14*
X40411400Y-98933000D03*
D15*
X42951400Y-98933000D03*
D14*
X73660000Y-98958400D03*
D15*
X76200000Y-98958400D03*
X78740000Y-98958400D03*
X81280000Y-98958400D03*
X83820000Y-98958400D03*
X86360000Y-98958400D03*
X88900000Y-98958400D03*
X91440000Y-98958400D03*
D27*
X109205000Y-46039300D03*
X101585000Y-46039300D03*
X99045000Y-46039300D03*
X43165000Y-94299300D03*
X40625000Y-94299300D03*
X86345000Y-46039300D03*
X83805000Y-46039300D03*
X81265000Y-46039300D03*
X78725000Y-46039300D03*
X76185000Y-46039300D03*
X73645000Y-46039300D03*
X71105000Y-46039300D03*
X68565000Y-46039300D03*
X63485000Y-46039300D03*
X60945000Y-46039300D03*
X58405000Y-46039300D03*
X55865000Y-46039300D03*
X53325000Y-46039300D03*
X50785000Y-46039300D03*
X48245000Y-46039300D03*
X45705000Y-46039300D03*
X113269000Y-94299300D03*
X73645000Y-94299300D03*
X76185000Y-94299300D03*
X78725000Y-94299300D03*
X81265000Y-94299300D03*
X83805000Y-94299300D03*
X86345000Y-94299300D03*
X88885000Y-94299300D03*
X91425000Y-94299300D03*
X95489000Y-94299300D03*
X98029000Y-94299300D03*
X100569000Y-94299300D03*
X103109000Y-94299300D03*
X105649000Y-94299300D03*
X108189000Y-94299300D03*
X68565000Y-94299300D03*
X66025000Y-94299300D03*
X63485000Y-94299300D03*
X60945000Y-94299300D03*
X58405000Y-94299300D03*
X55865000Y-94299300D03*
X53325000Y-94299300D03*
X50785000Y-94299300D03*
X43165000Y-91759300D03*
X40625000Y-91759300D03*
X43165000Y-89219300D03*
X40625000Y-89219300D03*
X43165000Y-86679300D03*
X40625000Y-86679300D03*
X43165000Y-84139300D03*
X40625000Y-84139300D03*
X43165000Y-81599300D03*
X40625000Y-81599300D03*
X43165000Y-79059300D03*
X40625000Y-79059300D03*
X43165000Y-76519300D03*
X40625000Y-76519300D03*
X43165000Y-73979300D03*
X40625000Y-73979300D03*
X43165000Y-71439300D03*
X40625000Y-71439300D03*
X43165000Y-68899300D03*
X40625000Y-68899300D03*
X43165000Y-66359300D03*
X40625000Y-66359300D03*
X43165000Y-63819300D03*
X40625000Y-63819300D03*
X43165000Y-61279300D03*
X40625000Y-61279300D03*
X43165000Y-58739300D03*
X40625000Y-58739300D03*
X43165000Y-56199300D03*
X40625000Y-56199300D03*
X43165000Y-53659300D03*
X40625000Y-53659300D03*
D28*
X110729000Y-94299300D03*
X96505000Y-46039300D03*
X93965000Y-46039300D03*
X43165000Y-51119300D03*
X40625000Y-51119300D03*
D27*
X106665000Y-46039300D03*
X104125000Y-46039300D03*
X118349000Y-94299300D03*
X115809000Y-94299300D03*
X91425000Y-46039300D03*
M02*
