G04 DipTrace 2.4.0.2*
%INTopSilk.gbr*%
%MOIN*%
%ADD10C,0.0098*%
%ADD38C,0.0077*%
%FSLAX44Y44*%
G04*
G70*
G90*
G75*
G01*
%LNTopSilk*%
%LPD*%
X11776Y17901D2*
D10*
X10277D1*
X11779Y17903D2*
G03X10274Y17903I-752J998D01*
G01*
X22012Y17901D2*
X20514D1*
X22015Y17903D2*
G03X20511Y17903I-752J998D01*
G01*
X32249Y17901D2*
X30750D1*
X32252Y17903D2*
G03X30747Y17903I-752J998D01*
G01*
X11776Y13700D2*
X10277D1*
X11779Y13702D2*
G03X10274Y13702I-752J998D01*
G01*
X22012Y13700D2*
X20514D1*
X22015Y13702D2*
G03X20511Y13702I-752J998D01*
G01*
X32249Y13700D2*
X30750D1*
X32252Y13702D2*
G03X30747Y13702I-752J998D01*
G01*
X11776Y9503D2*
X10277D1*
X11779Y9505D2*
G03X10274Y9505I-752J998D01*
G01*
X22012Y9503D2*
X20514D1*
X22015Y9505D2*
G03X20511Y9505I-752J998D01*
G01*
X32249Y9503D2*
X30750D1*
X32252Y9505D2*
G03X30747Y9505I-752J998D01*
G01*
X11776Y5302D2*
X10277D1*
X11779Y5305D2*
G03X10274Y5305I-752J998D01*
G01*
X22012Y5302D2*
X20514D1*
X22015Y5305D2*
G03X20511Y5305I-752J998D01*
G01*
X32249Y5302D2*
X30750D1*
X32252Y5305D2*
G03X30747Y5305I-752J998D01*
G01*
X17021Y18207D2*
Y18807D1*
X15418Y18207D2*
X17021D1*
X15418D2*
Y18807D1*
X17021D1*
X16946Y16632D2*
Y17232D1*
X15343Y16632D2*
X16946D1*
X15343D2*
Y17232D1*
X16946D1*
X25899Y19594D2*
Y18994D1*
X27501Y19594D2*
X25899D1*
X27501D2*
Y18994D1*
X25899D1*
X16946Y15057D2*
Y15657D1*
X15343Y15057D2*
X16946D1*
X15343D2*
Y15657D1*
X16946D1*
Y13483D2*
Y14083D1*
X15343Y13483D2*
X16946D1*
X15343D2*
Y14083D1*
X16946D1*
X27656Y15269D2*
X28256D1*
X27656Y16872D2*
Y15269D1*
Y16872D2*
X28256D1*
Y15269D1*
X16946Y11908D2*
Y12508D1*
X15343Y11908D2*
X16946D1*
X15343D2*
Y12508D1*
X16946D1*
Y10333D2*
Y10933D1*
X15343Y10333D2*
X16946D1*
X15343D2*
Y10933D1*
X16946D1*
X28256Y11509D2*
X27656D1*
X28256Y9906D2*
Y11509D1*
Y9906D2*
X27656D1*
Y11509D1*
X16946Y8365D2*
Y8965D1*
X15343Y8365D2*
X16946D1*
X15343D2*
Y8965D1*
X16946D1*
Y6790D2*
Y7390D1*
X15343Y6790D2*
X16946D1*
X15343D2*
Y7390D1*
X16946D1*
X27257Y6396D2*
Y6996D1*
X25654Y6396D2*
X27257D1*
X25654D2*
Y6996D1*
X27257D1*
X10615Y20883D2*
D38*
Y20381D1*
X10782D1*
X10854Y20405D1*
X10902Y20453D1*
X10926Y20501D1*
X10950Y20572D1*
Y20692D1*
X10926Y20764D1*
X10902Y20811D1*
X10854Y20859D1*
X10782Y20883D1*
X10615D1*
X11391D2*
X11152D1*
X11128Y20668D1*
X11152Y20691D1*
X11224Y20716D1*
X11295D1*
X11367Y20691D1*
X11415Y20644D1*
X11439Y20572D1*
Y20524D1*
X11415Y20453D1*
X11367Y20404D1*
X11295Y20381D1*
X11224D1*
X11152Y20404D1*
X11128Y20429D1*
X11104Y20476D1*
X20863Y20883D2*
Y20381D1*
X21030D1*
X21102Y20405D1*
X21150Y20453D1*
X21174Y20501D1*
X21198Y20572D1*
Y20692D1*
X21174Y20764D1*
X21150Y20811D1*
X21102Y20859D1*
X21030Y20883D1*
X20863D1*
X21639Y20811D2*
X21615Y20859D1*
X21544Y20883D1*
X21496D1*
X21424Y20859D1*
X21376Y20787D1*
X21352Y20668D1*
Y20548D1*
X21376Y20453D1*
X21424Y20404D1*
X21496Y20381D1*
X21520D1*
X21591Y20404D1*
X21639Y20453D1*
X21663Y20524D1*
Y20548D1*
X21639Y20620D1*
X21591Y20668D1*
X21520Y20691D1*
X21496D1*
X21424Y20668D1*
X21376Y20620D1*
X21352Y20548D1*
X31087Y20883D2*
Y20381D1*
X31255D1*
X31326Y20405D1*
X31374Y20453D1*
X31398Y20501D1*
X31422Y20572D1*
Y20692D1*
X31398Y20764D1*
X31374Y20811D1*
X31326Y20859D1*
X31255Y20883D1*
X31087D1*
X31672Y20381D2*
X31911Y20883D1*
X31576D1*
X10615Y16682D2*
Y16180D1*
X10782D1*
X10854Y16204D1*
X10902Y16252D1*
X10926Y16300D1*
X10950Y16371D1*
Y16491D1*
X10926Y16563D1*
X10902Y16610D1*
X10854Y16659D1*
X10782Y16682D1*
X10615D1*
X11224D2*
X11152Y16658D1*
X11128Y16610D1*
Y16562D1*
X11152Y16515D1*
X11200Y16491D1*
X11295Y16467D1*
X11367Y16443D1*
X11415Y16395D1*
X11439Y16347D1*
Y16276D1*
X11415Y16228D1*
X11391Y16204D1*
X11319Y16180D1*
X11224D1*
X11152Y16204D1*
X11128Y16228D1*
X11104Y16276D1*
Y16347D1*
X11128Y16395D1*
X11176Y16443D1*
X11247Y16467D1*
X11343Y16491D1*
X11391Y16515D1*
X11415Y16562D1*
Y16610D1*
X11391Y16658D1*
X11319Y16682D1*
X11224D1*
X20714D2*
Y16180D1*
X20881D1*
X20953Y16204D1*
X21001Y16252D1*
X21025Y16300D1*
X21049Y16371D1*
Y16491D1*
X21025Y16563D1*
X21001Y16610D1*
X20953Y16659D1*
X20881Y16682D1*
X20714D1*
X21203Y16586D2*
X21251Y16610D1*
X21323Y16682D1*
Y16180D1*
X21525Y16682D2*
X21788D1*
X21645Y16491D1*
X21717D1*
X21764Y16467D1*
X21788Y16443D1*
X21812Y16371D1*
Y16324D1*
X21788Y16252D1*
X21740Y16204D1*
X21669Y16180D1*
X21597D1*
X21525Y16204D1*
X21502Y16228D1*
X21477Y16276D1*
X30938Y16682D2*
Y16180D1*
X31106D1*
X31177Y16204D1*
X31225Y16252D1*
X31249Y16300D1*
X31273Y16371D1*
Y16491D1*
X31249Y16563D1*
X31225Y16610D1*
X31177Y16659D1*
X31106Y16682D1*
X30938D1*
X31427Y16586D2*
X31475Y16610D1*
X31547Y16682D1*
Y16180D1*
X31941D2*
Y16682D1*
X31702Y16347D1*
X32060D1*
X10477Y12485D2*
Y11983D1*
X10645D1*
X10717Y12007D1*
X10765Y12055D1*
X10789Y12103D1*
X10812Y12174D1*
Y12294D1*
X10789Y12366D1*
X10765Y12414D1*
X10717Y12462D1*
X10645Y12485D1*
X10477D1*
X10967Y12389D2*
X11015Y12414D1*
X11087Y12485D1*
Y11983D1*
X11528Y12485D2*
X11289D1*
X11265Y12270D1*
X11289Y12294D1*
X11361Y12318D1*
X11432D1*
X11504Y12294D1*
X11552Y12246D1*
X11576Y12174D1*
Y12127D1*
X11552Y12055D1*
X11504Y12007D1*
X11432Y11983D1*
X11361D1*
X11289Y12007D1*
X11265Y12031D1*
X11241Y12079D1*
X20726Y12485D2*
Y11983D1*
X20893D1*
X20965Y12007D1*
X21013Y12055D1*
X21037Y12103D1*
X21061Y12174D1*
Y12294D1*
X21037Y12366D1*
X21013Y12414D1*
X20965Y12462D1*
X20893Y12485D1*
X20726D1*
X21215Y12389D2*
X21263Y12414D1*
X21335Y12485D1*
Y11983D1*
X21776Y12414D2*
X21753Y12461D1*
X21681Y12485D1*
X21633D1*
X21561Y12461D1*
X21513Y12389D1*
X21490Y12270D1*
Y12151D1*
X21513Y12055D1*
X21561Y12007D1*
X21633Y11983D1*
X21657D1*
X21728Y12007D1*
X21776Y12055D1*
X21800Y12127D1*
Y12151D1*
X21776Y12222D1*
X21728Y12270D1*
X21657Y12294D1*
X21633D1*
X21561Y12270D1*
X21513Y12222D1*
X21490Y12151D1*
X30950Y12485D2*
Y11983D1*
X31117D1*
X31189Y12007D1*
X31237Y12055D1*
X31261Y12103D1*
X31285Y12174D1*
Y12294D1*
X31261Y12366D1*
X31237Y12414D1*
X31189Y12462D1*
X31117Y12485D1*
X30950D1*
X31464Y12366D2*
Y12389D1*
X31487Y12437D1*
X31511Y12461D1*
X31559Y12485D1*
X31655D1*
X31702Y12461D1*
X31726Y12437D1*
X31750Y12389D1*
Y12342D1*
X31726Y12294D1*
X31679Y12222D1*
X31439Y11983D1*
X31774D1*
X31929Y12389D2*
X31977Y12414D1*
X32049Y12485D1*
Y11983D1*
X10370Y8285D2*
Y7782D1*
X10537D1*
X10609Y7807D1*
X10657Y7854D1*
X10681Y7902D1*
X10705Y7973D1*
Y8093D1*
X10681Y8165D1*
X10657Y8213D1*
X10609Y8261D1*
X10537Y8285D1*
X10370D1*
X10884Y8165D2*
Y8188D1*
X10907Y8237D1*
X10931Y8260D1*
X10979Y8284D1*
X11075D1*
X11122Y8260D1*
X11146Y8237D1*
X11170Y8188D1*
Y8141D1*
X11146Y8093D1*
X11099Y8022D1*
X10859Y7782D1*
X11194D1*
X11373Y8165D2*
Y8188D1*
X11397Y8237D1*
X11420Y8260D1*
X11469Y8284D1*
X11564D1*
X11612Y8260D1*
X11635Y8237D1*
X11660Y8188D1*
Y8141D1*
X11635Y8093D1*
X11588Y8022D1*
X11349Y7782D1*
X11684D1*
X20606Y8285D2*
Y7782D1*
X20774D1*
X20846Y7807D1*
X20894Y7854D1*
X20917Y7902D1*
X20941Y7973D1*
Y8093D1*
X20917Y8165D1*
X20894Y8213D1*
X20846Y8261D1*
X20774Y8285D1*
X20606D1*
X21120Y8165D2*
Y8188D1*
X21144Y8237D1*
X21167Y8260D1*
X21215Y8284D1*
X21311D1*
X21359Y8260D1*
X21382Y8237D1*
X21407Y8188D1*
Y8141D1*
X21382Y8093D1*
X21335Y8022D1*
X21096Y7782D1*
X21430D1*
X21633Y8284D2*
X21895D1*
X21752Y8093D1*
X21824D1*
X21872Y8069D1*
X21895Y8045D1*
X21920Y7973D1*
Y7926D1*
X21895Y7854D1*
X21848Y7806D1*
X21776Y7782D1*
X21704D1*
X21633Y7806D1*
X21609Y7830D1*
X21585Y7878D1*
X30831Y8285D2*
Y7782D1*
X30998D1*
X31070Y7807D1*
X31118Y7854D1*
X31142Y7902D1*
X31165Y7973D1*
Y8093D1*
X31142Y8165D1*
X31118Y8213D1*
X31070Y8261D1*
X30998Y8285D1*
X30831D1*
X31344Y8165D2*
Y8188D1*
X31368Y8237D1*
X31392Y8260D1*
X31440Y8284D1*
X31535D1*
X31583Y8260D1*
X31607Y8237D1*
X31631Y8188D1*
Y8141D1*
X31607Y8093D1*
X31559Y8022D1*
X31320Y7782D1*
X31655D1*
X32049D2*
Y8284D1*
X31809Y7950D1*
X32168D1*
X15808Y19300D2*
X16023D1*
X16094Y19324D1*
X16119Y19348D1*
X16142Y19396D1*
Y19444D1*
X16119Y19491D1*
X16094Y19516D1*
X16023Y19539D1*
X15808D1*
Y19037D1*
X15975Y19300D2*
X16142Y19037D1*
X16584Y19539D2*
X16345D1*
X16321Y19324D1*
X16345Y19348D1*
X16417Y19372D1*
X16488D1*
X16560Y19348D1*
X16608Y19300D1*
X16632Y19228D1*
Y19181D1*
X16608Y19109D1*
X16560Y19061D1*
X16488Y19037D1*
X16417D1*
X16345Y19061D1*
X16321Y19085D1*
X16297Y19133D1*
X15745Y17725D2*
X15960D1*
X16032Y17750D1*
X16056Y17773D1*
X16080Y17821D1*
Y17869D1*
X16056Y17916D1*
X16032Y17941D1*
X15960Y17965D1*
X15745D1*
Y17462D1*
X15912Y17725D2*
X16080Y17462D1*
X16521Y17893D2*
X16497Y17940D1*
X16425Y17964D1*
X16378D1*
X16306Y17940D1*
X16258Y17868D1*
X16234Y17749D1*
Y17630D1*
X16258Y17534D1*
X16306Y17486D1*
X16378Y17462D1*
X16402D1*
X16473Y17486D1*
X16521Y17534D1*
X16545Y17606D1*
Y17630D1*
X16521Y17701D1*
X16473Y17749D1*
X16402Y17773D1*
X16378D1*
X16306Y17749D1*
X16258Y17701D1*
X16234Y17630D1*
X26288Y20087D2*
X26503D1*
X26575Y20112D1*
X26599Y20135D1*
X26623Y20183D1*
Y20231D1*
X26599Y20279D1*
X26575Y20303D1*
X26503Y20327D1*
X26288D1*
Y19824D1*
X26455Y20087D2*
X26623Y19824D1*
X26873D2*
X27112Y20326D1*
X26777D1*
X15733Y16150D2*
X15948D1*
X16020Y16175D1*
X16044Y16198D1*
X16068Y16246D1*
Y16294D1*
X16044Y16342D1*
X16020Y16366D1*
X15948Y16390D1*
X15733D1*
Y15887D1*
X15900Y16150D2*
X16068Y15887D1*
X16342Y16389D2*
X16270Y16365D1*
X16246Y16318D1*
Y16270D1*
X16270Y16222D1*
X16318Y16198D1*
X16414Y16174D1*
X16485Y16150D1*
X16533Y16102D1*
X16557Y16055D1*
Y15983D1*
X16533Y15935D1*
X16509Y15911D1*
X16437Y15887D1*
X16342D1*
X16270Y15911D1*
X16246Y15935D1*
X16222Y15983D1*
Y16055D1*
X16246Y16102D1*
X16294Y16150D1*
X16366Y16174D1*
X16461Y16198D1*
X16509Y16222D1*
X16533Y16270D1*
Y16318D1*
X16509Y16365D1*
X16437Y16389D1*
X16342D1*
X15596Y14576D2*
X15811D1*
X15882Y14600D1*
X15907Y14624D1*
X15931Y14671D1*
Y14719D1*
X15907Y14767D1*
X15882Y14791D1*
X15811Y14815D1*
X15596D1*
Y14313D1*
X15763Y14576D2*
X15931Y14313D1*
X16085Y14719D2*
X16133Y14743D1*
X16205Y14814D1*
Y14313D1*
X16407Y14814D2*
X16670D1*
X16527Y14623D1*
X16599D1*
X16646Y14599D1*
X16670Y14576D1*
X16694Y14504D1*
Y14456D1*
X16670Y14384D1*
X16622Y14336D1*
X16550Y14313D1*
X16479D1*
X16407Y14336D1*
X16384Y14361D1*
X16359Y14408D1*
X27163Y15509D2*
Y15724D1*
X27139Y15796D1*
X27115Y15820D1*
X27067Y15844D1*
X27019D1*
X26972Y15820D1*
X26947Y15796D1*
X26924Y15724D1*
Y15509D1*
X27426D1*
X27163Y15676D2*
X27426Y15844D1*
X27020Y15998D2*
X26996Y16046D1*
X26924Y16118D1*
X27426D1*
Y16512D2*
X26924D1*
X27259Y16273D1*
Y16631D1*
X15596Y13001D2*
X15811D1*
X15882Y13025D1*
X15907Y13049D1*
X15931Y13096D1*
Y13144D1*
X15907Y13192D1*
X15882Y13216D1*
X15811Y13240D1*
X15596D1*
Y12738D1*
X15763Y13001D2*
X15931Y12738D1*
X16085Y13144D2*
X16133Y13168D1*
X16205Y13240D1*
Y12738D1*
X16646Y13240D2*
X16407D1*
X16384Y13025D1*
X16407Y13048D1*
X16479Y13073D1*
X16550D1*
X16622Y13048D1*
X16670Y13001D1*
X16694Y12929D1*
Y12881D1*
X16670Y12810D1*
X16622Y12761D1*
X16550Y12738D1*
X16479D1*
X16407Y12761D1*
X16384Y12786D1*
X16359Y12833D1*
X15608Y11426D2*
X15823D1*
X15895Y11450D1*
X15919Y11474D1*
X15943Y11522D1*
Y11570D1*
X15919Y11617D1*
X15895Y11642D1*
X15823Y11665D1*
X15608D1*
Y11163D1*
X15775Y11426D2*
X15943Y11163D1*
X16097Y11569D2*
X16145Y11593D1*
X16217Y11665D1*
Y11163D1*
X16658Y11593D2*
X16634Y11641D1*
X16563Y11665D1*
X16515D1*
X16443Y11641D1*
X16395Y11569D1*
X16371Y11450D1*
Y11330D1*
X16395Y11235D1*
X16443Y11187D1*
X16515Y11163D1*
X16539D1*
X16610Y11187D1*
X16658Y11235D1*
X16682Y11307D1*
Y11330D1*
X16658Y11402D1*
X16610Y11450D1*
X16539Y11474D1*
X16515D1*
X16443Y11450D1*
X16395Y11402D1*
X16371Y11330D1*
X27163Y10159D2*
Y10374D1*
X27139Y10445D1*
X27115Y10470D1*
X27067Y10494D1*
X27019D1*
X26972Y10470D1*
X26947Y10445D1*
X26924Y10374D1*
Y10159D1*
X27426D1*
X27163Y10326D2*
X27426Y10494D1*
X27044Y10672D2*
X27020D1*
X26972Y10696D1*
X26948Y10720D1*
X26924Y10768D1*
Y10863D1*
X26948Y10911D1*
X26972Y10935D1*
X27020Y10959D1*
X27067D1*
X27115Y10935D1*
X27187Y10887D1*
X27426Y10648D1*
Y10983D1*
X27020Y11137D2*
X26996Y11185D1*
X26924Y11257D1*
X27426D1*
X15488Y9457D2*
X15703D1*
X15775Y9482D1*
X15799Y9506D1*
X15823Y9553D1*
Y9601D1*
X15799Y9649D1*
X15775Y9673D1*
X15703Y9697D1*
X15488D1*
Y9194D1*
X15656Y9457D2*
X15823Y9194D1*
X16002Y9577D2*
Y9601D1*
X16025Y9649D1*
X16049Y9672D1*
X16097Y9696D1*
X16193D1*
X16240Y9672D1*
X16264Y9649D1*
X16289Y9601D1*
Y9553D1*
X16264Y9505D1*
X16217Y9434D1*
X15977Y9194D1*
X16312D1*
X16491Y9577D2*
Y9601D1*
X16515Y9649D1*
X16539Y9672D1*
X16587Y9696D1*
X16682D1*
X16730Y9672D1*
X16754Y9649D1*
X16778Y9601D1*
Y9553D1*
X16754Y9505D1*
X16706Y9434D1*
X16467Y9194D1*
X16802D1*
X15488Y7883D2*
X15703D1*
X15775Y7907D1*
X15799Y7931D1*
X15823Y7978D1*
Y8026D1*
X15799Y8074D1*
X15775Y8098D1*
X15703Y8122D1*
X15488D1*
Y7620D1*
X15656Y7883D2*
X15823Y7620D1*
X16002Y8002D2*
Y8026D1*
X16025Y8074D1*
X16049Y8098D1*
X16097Y8121D1*
X16193D1*
X16240Y8098D1*
X16264Y8074D1*
X16289Y8026D1*
Y7978D1*
X16264Y7930D1*
X16217Y7859D1*
X15977Y7620D1*
X16312D1*
X16515Y8121D2*
X16777D1*
X16634Y7930D1*
X16706D1*
X16754Y7906D1*
X16777Y7883D1*
X16802Y7811D1*
Y7763D1*
X16777Y7691D1*
X16730Y7643D1*
X16658Y7620D1*
X16586D1*
X16515Y7643D1*
X16491Y7668D1*
X16467Y7715D1*
X25787Y7489D2*
X26002D1*
X26074Y7513D1*
X26098Y7537D1*
X26122Y7585D1*
Y7633D1*
X26098Y7680D1*
X26074Y7705D1*
X26002Y7728D1*
X25787D1*
Y7226D1*
X25955Y7489D2*
X26122Y7226D1*
X26301Y7608D2*
Y7632D1*
X26325Y7680D1*
X26348Y7704D1*
X26396Y7728D1*
X26492D1*
X26540Y7704D1*
X26563Y7680D1*
X26588Y7632D1*
Y7585D1*
X26563Y7537D1*
X26516Y7465D1*
X26277Y7226D1*
X26611D1*
X27005D2*
Y7728D1*
X26766Y7393D1*
X27125D1*
M02*
