  0
SECTION
  2
HEADER
  9
$ANGBASE
  50
0.0
  9
$ANGDIR
  70
1
  9
$MEASUREMENT
  70
1
  0
ENDSEC
  0
SECTION
  2
TABLES
  0
TABLE
  2
LTYPE
  70
4
  0
LTYPE
  5
40F
  2
CONTINUOUS
  70
0
  3
Solid line
  72
65
  73
0
  40
0.0
  0
LTYPE
  5
410
  2
DASHDOT
 70
0
  3
Dash Dot ____ _ ____ _
 72
65
 73
4
 40
2.0
 49
1.25
 49
-0.25
 49
0.25
 49
-0.25
  0
LTYPE
  5
411
  2
DASHED
 70
0
  3
Dashed __ __ __ __ __
 72
65
 73
2
 40
0.75
 49
0.5
 49
-0.25
  0
LTYPE
  5
43B
  2
DOTTED
 70
0
  3
Dotted .  .  .  .
 72
65
 73
2
 40
0.2
 49
0.0
 49
-0.2
  0
ENDTAB
  0
TABLE
  2
STYLE
  70
4
  0
STYLE
  2
KICAD
  70
0
  40
0
  41
1
  42
1
  50
0
  71
0
  3
isocp.shx
  0
STYLE
  2
KICADB
  70
0
  40
0
  41
1
  42
1
  50
0
  71
0
  3
isocp.shx
  0
STYLE
  2
KICADI
  70
0
  40
0
  41
1
  42
1
  50
15
  71
0
  3
isocp.shx
  0
STYLE
  2
KICADBI
  70
0
  40
0
  41
1
  42
1
  50
15
  71
0
  3
isocp.shx
  0
ENDTAB
  0
TABLE
  2
LAYER
  70
1
  0
LAYER
  2
BLACK
  70
0
  62
7
  6
CONTINUOUS
  0
ENDTAB
  0
ENDSEC
  0
SECTION
  2
ENTITIES
0
LINE
8
BLACK
6
CONTINUOUS
10
153.5855149999999867
20
-61.2745739999999941
11
140.3055149999999855
21
-74.5545740000000023
0
LINE
8
BLACK
6
CONTINUOUS
10
219.685514999999981
20
-138.294573999999983
11
219.685514999999981
21
-74.8145739999999932
0
LINE
8
BLACK
6
CONTINUOUS
10
140.3055149999999855
20
-74.5545740000000023
11
140.3055149999999855
21
-126.984573999999995
0
LINE
8
BLACK
6
CONTINUOUS
10
140.3055149999999855
20
-126.984573999999995
11
153.9855149999999924
21
-140.6645739999999876
0
CIRCLE
8
BLACK
10
198.2485590000000002
20
-137.1445740000000058
40
1.8499999999999999
0
CIRCLE
8
BLACK
10
154.395514999999989
20
-64.974574000000004
40
1.8499999999999999
0
LINE
8
BLACK
6
CONTINUOUS
10
206.145514999999989
20
-61.2745739999999941
11
153.5855149999999867
21
-61.2745739999999941
0
CIRCLE
8
BLACK
10
144.3055149999999855
20
-74.6045739999999995
40
1.8499999999999999
0
CIRCLE
8
BLACK
10
143.9555149999999912
20
-127.2745740000000012
40
1.8499999999999999
0
LINE
8
BLACK
6
CONTINUOUS
10
219.685514999999981
20
-74.8145739999999932
11
206.145514999999989
21
-61.2745739999999941
0
CIRCLE
8
BLACK
10
154.1355149999999981
20
-137.1945739999999887
40
1.8499999999999999
0
LINE
8
BLACK
6
CONTINUOUS
10
153.9855149999999924
20
-140.6645739999999876
11
205.8355149999999867
21
-140.6645739999999876
0
CIRCLE
8
BLACK
10
215.8755149999999787
20
-74.8045740000000023
40
1.8499999999999999
0
CIRCLE
8
BLACK
10
205.895514999999989
20
-64.9345739999999978
40
1.8499999999999999
0
LINE
8
BLACK
6
CONTINUOUS
10
205.8355149999999867
20
-140.6645739999999876
11
217.3155149999999765
21
-140.6645739999999876
0
LINE
8
BLACK
6
CONTINUOUS
10
217.3155149999999765
20
-140.6645739999999876
11
219.685514999999981
21
-138.294573999999983
0
CIRCLE
8
BLACK
10
216.3070369999999798
20
-118.2660959999999903
40
1.8499999999999999
0
LINE
8
BLACK
6
CONTINUOUS
10
185.2950999999999908
20
-86.0945999999999998
11
187.4950999999999794
21
-88.2946000000000026
0
LINE
8
BLACK
6
CONTINUOUS
10
187.4950999999999794
20
-86.0945999999999998
11
185.2950999999999908
21
-88.2946000000000026
0
LINE
8
BLACK
6
CONTINUOUS
10
185.2950999999999908
20
-113.0945999999999998
11
187.4950999999999794
21
-115.2945999999999884
0
LINE
8
BLACK
6
CONTINUOUS
10
187.4950999999999794
20
-113.0945999999999998
11
185.2950999999999908
21
-115.2945999999999884
0
CIRCLE
8
BLACK
10
195.3950999999999851
20
-91.6945999999999941
40
1.25
0
CIRCLE
8
BLACK
10
195.3950999999999851
20
-109.9695999999999998
40
1.25
0
LINE
8
BLACK
6
CONTINUOUS
10
176.3950999999999851
20
-98.7945999999999884
11
176.3950999999999851
21
-102.5945999999999998
0
LINE
8
BLACK
6
CONTINUOUS
10
174.4950999999999794
20
-100.6945999999999941
11
178.2950999999999908
21
-100.6945999999999941
0
LINE
8
BLACK
6
CONTINUOUS
10
142.8882830000000013
20
-143.804411999999985
11
142.8882830000000013
21
-141.804411999999985
0
LINE
8
BLACK
6
CONTINUOUS
10
142.8882830000000013
20
-141.804411999999985
11
143.3644730000000038
21
-141.804411999999985
0
LINE
8
BLACK
6
CONTINUOUS
10
143.3644730000000038
20
-141.804411999999985
11
143.6501879999999858
21
-141.8996499999999799
0
LINE
8
BLACK
6
CONTINUOUS
10
143.6501879999999858
20
-141.8996499999999799
11
143.8406640000000039
21
-142.0901259999999979
0
LINE
8
BLACK
6
CONTINUOUS
10
143.8406640000000039
20
-142.0901259999999979
11
143.9359019999999987
21
-142.2806019999999876
0
LINE
8
BLACK
6
CONTINUOUS
10
143.9359019999999987
20
-142.2806019999999876
11
144.0311399999999935
21
-142.6615539999999953
0
LINE
8
BLACK
6
CONTINUOUS
10
144.0311399999999935
20
-142.6615539999999953
11
144.0311399999999935
21
-142.9472690000000057
0
LINE
8
BLACK
6
CONTINUOUS
10
144.0311399999999935
20
-142.9472690000000057
11
143.9359019999999987
21
-143.328220999999985
0
LINE
8
BLACK
6
CONTINUOUS
10
143.9359019999999987
20
-143.328220999999985
11
143.8406640000000039
21
-143.5186970000000031
0
LINE
8
BLACK
6
CONTINUOUS
10
143.8406640000000039
20
-143.5186970000000031
11
143.6501879999999858
21
-143.7091739999999902
0
LINE
8
BLACK
6
CONTINUOUS
10
143.6501879999999858
20
-143.7091739999999902
11
143.3644730000000038
21
-143.804411999999985
0
LINE
8
BLACK
6
CONTINUOUS
10
143.3644730000000038
20
-143.804411999999985
11
142.8882830000000013
21
-143.804411999999985
0
LINE
8
BLACK
6
CONTINUOUS
10
144.8882830000000013
20
-143.804411999999985
11
144.8882830000000013
21
-142.4710780000000057
0
LINE
8
BLACK
6
CONTINUOUS
10
144.8882830000000013
20
-142.8520309999999824
11
144.9835209999999961
21
-142.6615539999999953
0
LINE
8
BLACK
6
CONTINUOUS
10
144.9835209999999961
20
-142.6615539999999953
11
145.0787589999999909
21
-142.5663160000000005
0
LINE
8
BLACK
6
CONTINUOUS
10
145.0787589999999909
20
-142.5663160000000005
11
145.2692349999999806
21
-142.4710780000000057
0
LINE
8
BLACK
6
CONTINUOUS
10
145.2692349999999806
20
-142.4710780000000057
11
145.4597119999999961
21
-142.4710780000000057
0
LINE
8
BLACK
6
CONTINUOUS
10
146.1263779999999883
20
-143.804411999999985
11
146.1263779999999883
21
-142.4710780000000057
0
LINE
8
BLACK
6
CONTINUOUS
10
146.1263779999999883
20
-141.804411999999985
11
146.0311399999999935
21
-141.8996499999999799
0
LINE
8
BLACK
6
CONTINUOUS
10
146.0311399999999935
20
-141.8996499999999799
11
146.1263779999999883
21
-141.9948880000000031
0
LINE
8
BLACK
6
CONTINUOUS
10
146.1263779999999883
20
-141.9948880000000031
11
146.2216159999999832
21
-141.8996499999999799
0
LINE
8
BLACK
6
CONTINUOUS
10
146.2216159999999832
20
-141.8996499999999799
11
146.1263779999999883
21
-141.804411999999985
0
LINE
8
BLACK
6
CONTINUOUS
10
146.1263779999999883
20
-141.804411999999985
11
146.1263779999999883
21
-141.9948880000000031
0
LINE
8
BLACK
6
CONTINUOUS
10
147.3644730000000038
20
-143.804411999999985
11
147.1739969999999857
21
-143.7091739999999902
0
LINE
8
BLACK
6
CONTINUOUS
10
147.1739969999999857
20
-143.7091739999999902
11
147.0787589999999909
21
-143.5186970000000031
0
LINE
8
BLACK
6
CONTINUOUS
10
147.0787589999999909
20
-143.5186970000000031
11
147.0787589999999909
21
-141.804411999999985
0
LINE
8
BLACK
6
CONTINUOUS
10
148.4120920000000012
20
-143.804411999999985
11
148.2216159999999832
21
-143.7091739999999902
0
LINE
8
BLACK
6
CONTINUOUS
10
148.2216159999999832
20
-143.7091739999999902
11
148.1263779999999883
21
-143.5186970000000031
0
LINE
8
BLACK
6
CONTINUOUS
10
148.1263779999999883
20
-143.5186970000000031
11
148.1263779999999883
21
-141.804411999999985
0
LINE
8
BLACK
6
CONTINUOUS
10
150.6978069999999832
20
-143.804411999999985
11
150.6978069999999832
21
-141.804411999999985
0
LINE
8
BLACK
6
CONTINUOUS
10
150.6978069999999832
20
-141.804411999999985
11
151.3644740000000013
21
-143.2329829999999902
0
LINE
8
BLACK
6
CONTINUOUS
10
151.3644740000000013
20
-143.2329829999999902
11
152.0311399999999935
21
-141.804411999999985
0
LINE
8
BLACK
6
CONTINUOUS
10
152.0311399999999935
20
-141.804411999999985
11
152.0311399999999935
21
-143.804411999999985
0
LINE
8
BLACK
6
CONTINUOUS
10
153.8406640000000039
20
-143.804411999999985
11
153.8406640000000039
21
-142.7567929999999876
0
LINE
8
BLACK
6
CONTINUOUS
10
153.8406640000000039
20
-142.7567929999999876
11
153.7454259999999806
21
-142.5663160000000005
0
LINE
8
BLACK
6
CONTINUOUS
10
153.7454259999999806
20
-142.5663160000000005
11
153.554949999999991
21
-142.4710780000000057
0
LINE
8
BLACK
6
CONTINUOUS
10
153.554949999999991
20
-142.4710780000000057
11
153.1739969999999857
21
-142.4710780000000057
0
LINE
8
BLACK
6
CONTINUOUS
10
153.1739969999999857
20
-142.4710780000000057
11
152.9835209999999961
21
-142.5663160000000005
0
LINE
8
BLACK
6
CONTINUOUS
10
153.8406640000000039
20
-143.7091739999999902
11
153.6501879999999858
21
-143.804411999999985
0
LINE
8
BLACK
6
CONTINUOUS
10
153.6501879999999858
20
-143.804411999999985
11
153.1739969999999857
21
-143.804411999999985
0
LINE
8
BLACK
6
CONTINUOUS
10
153.1739969999999857
20
-143.804411999999985
11
152.9835209999999961
21
-143.7091739999999902
0
LINE
8
BLACK
6
CONTINUOUS
10
152.9835209999999961
20
-143.7091739999999902
11
152.8882830000000013
21
-143.5186970000000031
0
LINE
8
BLACK
6
CONTINUOUS
10
152.8882830000000013
20
-143.5186970000000031
11
152.8882830000000013
21
-143.328220999999985
0
LINE
8
BLACK
6
CONTINUOUS
10
152.8882830000000013
20
-143.328220999999985
11
152.9835209999999961
21
-143.1377449999999953
0
LINE
8
BLACK
6
CONTINUOUS
10
152.9835209999999961
20
-143.1377449999999953
11
153.1739969999999857
21
-143.0425070000000005
0
LINE
8
BLACK
6
CONTINUOUS
10
153.1739969999999857
20
-143.0425070000000005
11
153.6501879999999858
21
-143.0425070000000005
0
LINE
8
BLACK
6
CONTINUOUS
10
153.6501879999999858
20
-143.0425070000000005
11
153.8406640000000039
21
-142.9472690000000057
0
LINE
8
BLACK
6
CONTINUOUS
10
154.7930450000000064
20
-142.4710780000000057
11
154.7930450000000064
21
-144.4710780000000057
0
LINE
8
BLACK
6
CONTINUOUS
10
154.7930450000000064
20
-142.5663160000000005
11
154.9835209999999961
21
-142.4710780000000057
0
LINE
8
BLACK
6
CONTINUOUS
10
154.9835209999999961
20
-142.4710780000000057
11
155.3644740000000013
21
-142.4710780000000057
0
LINE
8
BLACK
6
CONTINUOUS
10
155.3644740000000013
20
-142.4710780000000057
11
155.554949999999991
21
-142.5663160000000005
0
LINE
8
BLACK
6
CONTINUOUS
10
155.554949999999991
20
-142.5663160000000005
11
155.6501879999999858
21
-142.6615539999999953
0
LINE
8
BLACK
6
CONTINUOUS
10
155.6501879999999858
20
-142.6615539999999953
11
155.7454259999999806
21
-142.8520309999999824
0
LINE
8
BLACK
6
CONTINUOUS
10
155.7454259999999806
20
-142.8520309999999824
11
155.7454259999999806
21
-143.4234589999999798
0
LINE
8
BLACK
6
CONTINUOUS
10
155.7454259999999806
20
-143.4234589999999798
11
155.6501879999999858
21
-143.6139349999999979
0
LINE
8
BLACK
6
CONTINUOUS
10
155.6501879999999858
20
-143.6139349999999979
11
155.554949999999991
21
-143.7091739999999902
0
LINE
8
BLACK
6
CONTINUOUS
10
155.554949999999991
20
-143.7091739999999902
11
155.3644740000000013
21
-143.804411999999985
0
LINE
8
BLACK
6
CONTINUOUS
10
155.3644740000000013
20
-143.804411999999985
11
154.9835209999999961
21
-143.804411999999985
0
LINE
8
BLACK
6
CONTINUOUS
10
154.9835209999999961
20
-143.804411999999985
11
154.7930450000000064
21
-143.7091739999999902
0
LINE
8
BLACK
6
CONTINUOUS
10
156.6025689999999884
20
-143.6139349999999979
11
156.6978069999999832
21
-143.7091739999999902
0
LINE
8
BLACK
6
CONTINUOUS
10
156.6978069999999832
20
-143.7091739999999902
11
156.6025689999999884
21
-143.804411999999985
0
LINE
8
BLACK
6
CONTINUOUS
10
156.6025689999999884
20
-143.804411999999985
11
156.5073309999999935
21
-143.7091739999999902
0
LINE
8
BLACK
6
CONTINUOUS
10
156.5073309999999935
20
-143.7091739999999902
11
156.6025689999999884
21
-143.6139349999999979
0
LINE
8
BLACK
6
CONTINUOUS
10
156.6025689999999884
20
-143.6139349999999979
11
156.6025689999999884
21
-143.804411999999985
0
LINE
8
BLACK
6
CONTINUOUS
10
156.6025689999999884
20
-142.5663160000000005
11
156.6978069999999832
21
-142.6615539999999953
0
LINE
8
BLACK
6
CONTINUOUS
10
156.6978069999999832
20
-142.6615539999999953
11
156.6025689999999884
21
-142.7567929999999876
0
LINE
8
BLACK
6
CONTINUOUS
10
156.6025689999999884
20
-142.7567929999999876
11
156.5073309999999935
21
-142.6615539999999953
0
LINE
8
BLACK
6
CONTINUOUS
10
156.5073309999999935
20
-142.6615539999999953
11
156.6025689999999884
21
-142.5663160000000005
0
LINE
8
BLACK
6
CONTINUOUS
10
156.6025689999999884
20
-142.5663160000000005
11
156.6025689999999884
21
-142.7567929999999876
0
LINE
8
BLACK
6
CONTINUOUS
10
138.2805149999999799
20
-146.0895739999999989
11
140.2805149999999799
21
-148.0895739999999989
0
LINE
8
BLACK
6
CONTINUOUS
10
140.2805149999999799
20
-146.0895739999999989
11
138.2805149999999799
21
-148.0895739999999989
0
LINE
8
BLACK
6
CONTINUOUS
10
142.7930450000000064
20
-146.1948879999999917
11
142.8882830000000013
21
-146.0996499999999969
0
LINE
8
BLACK
6
CONTINUOUS
10
142.8882830000000013
20
-146.0996499999999969
11
143.0787589999999909
21
-146.0044120000000021
0
LINE
8
BLACK
6
CONTINUOUS
10
143.0787589999999909
20
-146.0044120000000021
11
143.554949999999991
21
-146.0044120000000021
0
LINE
8
BLACK
6
CONTINUOUS
10
143.554949999999991
20
-146.0044120000000021
11
143.7454259999999806
21
-146.0996499999999969
0
LINE
8
BLACK
6
CONTINUOUS
10
143.7454259999999806
20
-146.0996499999999969
11
143.8406640000000039
21
-146.1948879999999917
0
LINE
8
BLACK
6
CONTINUOUS
10
143.8406640000000039
20
-146.1948879999999917
11
143.9359019999999987
21
-146.3853639999999814
0
LINE
8
BLACK
6
CONTINUOUS
10
143.9359019999999987
20
-146.3853639999999814
11
143.9359019999999987
21
-146.5758399999999995
0
LINE
8
BLACK
6
CONTINUOUS
10
143.9359019999999987
20
-146.5758399999999995
11
143.8406640000000039
21
-146.8615539999999839
0
LINE
8
BLACK
6
CONTINUOUS
10
143.8406640000000039
20
-146.8615539999999839
11
142.6978069999999832
21
-148.0044120000000021
0
LINE
8
BLACK
6
CONTINUOUS
10
142.6978069999999832
20
-148.0044120000000021
11
143.9359019999999987
21
-148.0044120000000021
0
LINE
8
BLACK
6
CONTINUOUS
10
144.7930450000000064
20
-147.8139349999999865
11
144.8882830000000013
21
-147.9091740000000073
0
LINE
8
BLACK
6
CONTINUOUS
10
144.8882830000000013
20
-147.9091740000000073
11
144.7930450000000064
21
-148.0044120000000021
0
LINE
8
BLACK
6
CONTINUOUS
10
144.7930450000000064
20
-148.0044120000000021
11
144.6978069999999832
21
-147.9091740000000073
0
LINE
8
BLACK
6
CONTINUOUS
10
144.6978069999999832
20
-147.9091740000000073
11
144.7930450000000064
21
-147.8139349999999865
0
LINE
8
BLACK
6
CONTINUOUS
10
144.7930450000000064
20
-147.8139349999999865
11
144.7930450000000064
21
-148.0044120000000021
0
LINE
8
BLACK
6
CONTINUOUS
10
145.6501879999999858
20
-146.1948879999999917
11
145.7454259999999806
21
-146.0996499999999969
0
LINE
8
BLACK
6
CONTINUOUS
10
145.7454259999999806
20
-146.0996499999999969
11
145.9359019999999987
21
-146.0044120000000021
0
LINE
8
BLACK
6
CONTINUOUS
10
145.9359019999999987
20
-146.0044120000000021
11
146.4120929999999987
21
-146.0044120000000021
0
LINE
8
BLACK
6
CONTINUOUS
10
146.4120929999999987
20
-146.0044120000000021
11
146.6025689999999884
21
-146.0996499999999969
0
LINE
8
BLACK
6
CONTINUOUS
10
146.6025689999999884
20
-146.0996499999999969
11
146.6978069999999832
21
-146.1948879999999917
0
LINE
8
BLACK
6
CONTINUOUS
10
146.6978069999999832
20
-146.1948879999999917
11
146.7930450000000064
21
-146.3853639999999814
0
LINE
8
BLACK
6
CONTINUOUS
10
146.7930450000000064
20
-146.3853639999999814
11
146.7930450000000064
21
-146.5758399999999995
0
LINE
8
BLACK
6
CONTINUOUS
10
146.7930450000000064
20
-146.5758399999999995
11
146.6978069999999832
21
-146.8615539999999839
0
LINE
8
BLACK
6
CONTINUOUS
10
146.6978069999999832
20
-146.8615539999999839
11
145.554949999999991
21
-148.0044120000000021
0
LINE
8
BLACK
6
CONTINUOUS
10
145.554949999999991
20
-148.0044120000000021
11
146.7930450000000064
21
-148.0044120000000021
0
LINE
8
BLACK
6
CONTINUOUS
10
148.0311399999999935
20
-146.0044120000000021
11
148.2216169999999806
21
-146.0044120000000021
0
LINE
8
BLACK
6
CONTINUOUS
10
148.2216169999999806
20
-146.0044120000000021
11
148.4120929999999987
21
-146.0996499999999969
0
LINE
8
BLACK
6
CONTINUOUS
10
148.4120929999999987
20
-146.0996499999999969
11
148.5073309999999935
21
-146.1948879999999917
0
LINE
8
BLACK
6
CONTINUOUS
10
148.5073309999999935
20
-146.1948879999999917
11
148.6025689999999884
21
-146.3853639999999814
0
LINE
8
BLACK
6
CONTINUOUS
10
148.6025689999999884
20
-146.3853639999999814
11
148.6978069999999832
21
-146.7663159999999891
0
LINE
8
BLACK
6
CONTINUOUS
10
148.6978069999999832
20
-146.7663159999999891
11
148.6978069999999832
21
-147.2425069999999891
0
LINE
8
BLACK
6
CONTINUOUS
10
148.6978069999999832
20
-147.2425069999999891
11
148.6025689999999884
21
-147.6234589999999969
0
LINE
8
BLACK
6
CONTINUOUS
10
148.6025689999999884
20
-147.6234589999999969
11
148.5073309999999935
21
-147.8139349999999865
0
LINE
8
BLACK
6
CONTINUOUS
10
148.5073309999999935
20
-147.8139349999999865
11
148.4120929999999987
21
-147.9091740000000073
0
LINE
8
BLACK
6
CONTINUOUS
10
148.4120929999999987
20
-147.9091740000000073
11
148.2216169999999806
21
-148.0044120000000021
0
LINE
8
BLACK
6
CONTINUOUS
10
148.2216169999999806
20
-148.0044120000000021
11
148.0311399999999935
21
-148.0044120000000021
0
LINE
8
BLACK
6
CONTINUOUS
10
148.0311399999999935
20
-148.0044120000000021
11
147.8406640000000039
21
-147.9091740000000073
0
LINE
8
BLACK
6
CONTINUOUS
10
147.8406640000000039
20
-147.9091740000000073
11
147.7454259999999806
21
-147.8139349999999865
0
LINE
8
BLACK
6
CONTINUOUS
10
147.7454259999999806
20
-147.8139349999999865
11
147.6501879999999858
21
-147.6234589999999969
0
LINE
8
BLACK
6
CONTINUOUS
10
147.6501879999999858
20
-147.6234589999999969
11
147.554949999999991
21
-147.2425069999999891
0
LINE
8
BLACK
6
CONTINUOUS
10
147.554949999999991
20
-147.2425069999999891
11
147.554949999999991
21
-146.7663159999999891
0
LINE
8
BLACK
6
CONTINUOUS
10
147.554949999999991
20
-146.7663159999999891
11
147.6501879999999858
21
-146.3853639999999814
0
LINE
8
BLACK
6
CONTINUOUS
10
147.6501879999999858
20
-146.3853639999999814
11
147.7454259999999806
21
-146.1948879999999917
0
LINE
8
BLACK
6
CONTINUOUS
10
147.7454259999999806
20
-146.1948879999999917
11
147.8406640000000039
21
-146.0996499999999969
0
LINE
8
BLACK
6
CONTINUOUS
10
147.8406640000000039
20
-146.0996499999999969
11
148.0311399999999935
21
-146.0044120000000021
0
LINE
8
BLACK
6
CONTINUOUS
10
149.9359019999999987
20
-146.0044120000000021
11
150.1263789999999858
21
-146.0044120000000021
0
LINE
8
BLACK
6
CONTINUOUS
10
150.1263789999999858
20
-146.0044120000000021
11
150.3168550000000039
21
-146.0996499999999969
0
LINE
8
BLACK
6
CONTINUOUS
10
150.3168550000000039
20
-146.0996499999999969
11
150.4120929999999987
21
-146.1948879999999917
0
LINE
8
BLACK
6
CONTINUOUS
10
150.4120929999999987
20
-146.1948879999999917
11
150.5073309999999935
21
-146.3853639999999814
0
LINE
8
BLACK
6
CONTINUOUS
10
150.5073309999999935
20
-146.3853639999999814
11
150.6025689999999884
21
-146.7663159999999891
0
LINE
8
BLACK
6
CONTINUOUS
10
150.6025689999999884
20
-146.7663159999999891
11
150.6025689999999884
21
-147.2425069999999891
0
LINE
8
BLACK
6
CONTINUOUS
10
150.6025689999999884
20
-147.2425069999999891
11
150.5073309999999935
21
-147.6234589999999969
0
LINE
8
BLACK
6
CONTINUOUS
10
150.5073309999999935
20
-147.6234589999999969
11
150.4120929999999987
21
-147.8139349999999865
0
LINE
8
BLACK
6
CONTINUOUS
10
150.4120929999999987
20
-147.8139349999999865
11
150.3168550000000039
21
-147.9091740000000073
0
LINE
8
BLACK
6
CONTINUOUS
10
150.3168550000000039
20
-147.9091740000000073
11
150.1263789999999858
21
-148.0044120000000021
0
LINE
8
BLACK
6
CONTINUOUS
10
150.1263789999999858
20
-148.0044120000000021
11
149.9359019999999987
21
-148.0044120000000021
0
LINE
8
BLACK
6
CONTINUOUS
10
149.9359019999999987
20
-148.0044120000000021
11
149.7454259999999806
21
-147.9091740000000073
0
LINE
8
BLACK
6
CONTINUOUS
10
149.7454259999999806
20
-147.9091740000000073
11
149.6501879999999858
21
-147.8139349999999865
0
LINE
8
BLACK
6
CONTINUOUS
10
149.6501879999999858
20
-147.8139349999999865
11
149.554949999999991
21
-147.6234589999999969
0
LINE
8
BLACK
6
CONTINUOUS
10
149.554949999999991
20
-147.6234589999999969
11
149.4597119999999961
21
-147.2425069999999891
0
LINE
8
BLACK
6
CONTINUOUS
10
149.4597119999999961
20
-147.2425069999999891
11
149.4597119999999961
21
-146.7663159999999891
0
LINE
8
BLACK
6
CONTINUOUS
10
149.4597119999999961
20
-146.7663159999999891
11
149.554949999999991
21
-146.3853639999999814
0
LINE
8
BLACK
6
CONTINUOUS
10
149.554949999999991
20
-146.3853639999999814
11
149.6501879999999858
21
-146.1948879999999917
0
LINE
8
BLACK
6
CONTINUOUS
10
149.6501879999999858
20
-146.1948879999999917
11
149.7454259999999806
21
-146.0996499999999969
0
LINE
8
BLACK
6
CONTINUOUS
10
149.7454259999999806
20
-146.0996499999999969
11
149.9359019999999987
21
-146.0044120000000021
0
LINE
8
BLACK
6
CONTINUOUS
10
151.4597119999999961
20
-148.0044120000000021
11
151.4597119999999961
21
-146.6710779999999943
0
LINE
8
BLACK
6
CONTINUOUS
10
151.4597119999999961
20
-146.8615539999999839
11
151.554949999999991
21
-146.7663159999999891
0
LINE
8
BLACK
6
CONTINUOUS
10
151.554949999999991
20
-146.7663159999999891
11
151.7454259999999806
21
-146.6710779999999943
0
LINE
8
BLACK
6
CONTINUOUS
10
151.7454259999999806
20
-146.6710779999999943
11
152.031140999999991
21
-146.6710779999999943
0
LINE
8
BLACK
6
CONTINUOUS
10
152.031140999999991
20
-146.6710779999999943
11
152.2216169999999806
21
-146.7663159999999891
0
LINE
8
BLACK
6
CONTINUOUS
10
152.2216169999999806
20
-146.7663159999999891
11
152.3168550000000039
21
-146.9567930000000047
0
LINE
8
BLACK
6
CONTINUOUS
10
152.3168550000000039
20
-146.9567930000000047
11
152.3168550000000039
21
-148.0044120000000021
0
LINE
8
BLACK
6
CONTINUOUS
10
152.3168550000000039
20
-146.9567930000000047
11
152.4120929999999987
21
-146.7663159999999891
0
LINE
8
BLACK
6
CONTINUOUS
10
152.4120929999999987
20
-146.7663159999999891
11
152.6025689999999884
21
-146.6710779999999943
0
LINE
8
BLACK
6
CONTINUOUS
10
152.6025689999999884
20
-146.6710779999999943
11
152.8882830000000013
21
-146.6710779999999943
0
LINE
8
BLACK
6
CONTINUOUS
10
152.8882830000000013
20
-146.6710779999999943
11
153.0787599999999884
21
-146.7663159999999891
0
LINE
8
BLACK
6
CONTINUOUS
10
153.0787599999999884
20
-146.7663159999999891
11
153.1739979999999832
21
-146.9567930000000047
0
LINE
8
BLACK
6
CONTINUOUS
10
153.1739979999999832
20
-146.9567930000000047
11
153.1739979999999832
21
-148.0044120000000021
0
LINE
8
BLACK
6
CONTINUOUS
10
154.1263789999999858
20
-148.0044120000000021
11
154.1263789999999858
21
-146.6710779999999943
0
LINE
8
BLACK
6
CONTINUOUS
10
154.1263789999999858
20
-146.8615539999999839
11
154.2216169999999806
21
-146.7663159999999891
0
LINE
8
BLACK
6
CONTINUOUS
10
154.2216169999999806
20
-146.7663159999999891
11
154.4120929999999987
21
-146.6710779999999943
0
LINE
8
BLACK
6
CONTINUOUS
10
154.4120929999999987
20
-146.6710779999999943
11
154.6978079999999807
21
-146.6710779999999943
0
LINE
8
BLACK
6
CONTINUOUS
10
154.6978079999999807
20
-146.6710779999999943
11
154.8882839999999987
21
-146.7663159999999891
0
LINE
8
BLACK
6
CONTINUOUS
10
154.8882839999999987
20
-146.7663159999999891
11
154.9835219999999936
21
-146.9567930000000047
0
LINE
8
BLACK
6
CONTINUOUS
10
154.9835219999999936
20
-146.9567930000000047
11
154.9835219999999936
21
-148.0044120000000021
0
LINE
8
BLACK
6
CONTINUOUS
10
154.9835219999999936
20
-146.9567930000000047
11
155.0787599999999884
21
-146.7663159999999891
0
LINE
8
BLACK
6
CONTINUOUS
10
155.0787599999999884
20
-146.7663159999999891
11
155.2692360000000065
21
-146.6710779999999943
0
LINE
8
BLACK
6
CONTINUOUS
10
155.2692360000000065
20
-146.6710779999999943
11
155.554949999999991
21
-146.6710779999999943
0
LINE
8
BLACK
6
CONTINUOUS
10
155.554949999999991
20
-146.6710779999999943
11
155.7454270000000065
21
-146.7663159999999891
0
LINE
8
BLACK
6
CONTINUOUS
10
155.7454270000000065
20
-146.7663159999999891
11
155.8406650000000013
21
-146.9567930000000047
0
LINE
8
BLACK
6
CONTINUOUS
10
155.8406650000000013
20
-146.9567930000000047
11
155.8406650000000013
21
-148.0044120000000021
0
LINE
8
BLACK
6
CONTINUOUS
10
159.7454270000000065
20
-145.9091740000000073
11
158.0311419999999885
21
-148.4806020000000046
0
LINE
8
BLACK
6
CONTINUOUS
10
162.3168560000000014
20
-146.0044120000000021
11
162.5073329999999885
21
-146.0044120000000021
0
LINE
8
BLACK
6
CONTINUOUS
10
162.5073329999999885
20
-146.0044120000000021
11
162.6978090000000066
21
-146.0996499999999969
0
LINE
8
BLACK
6
CONTINUOUS
10
162.6978090000000066
20
-146.0996499999999969
11
162.7930470000000014
21
-146.1948879999999917
0
LINE
8
BLACK
6
CONTINUOUS
10
162.7930470000000014
20
-146.1948879999999917
11
162.8882849999999962
21
-146.3853639999999814
0
LINE
8
BLACK
6
CONTINUOUS
10
162.8882849999999962
20
-146.3853639999999814
11
162.983522999999991
21
-146.7663159999999891
0
LINE
8
BLACK
6
CONTINUOUS
10
162.983522999999991
20
-146.7663159999999891
11
162.983522999999991
21
-147.2425069999999891
0
LINE
8
BLACK
6
CONTINUOUS
10
162.983522999999991
20
-147.2425069999999891
11
162.8882849999999962
21
-147.6234589999999969
0
LINE
8
BLACK
6
CONTINUOUS
10
162.8882849999999962
20
-147.6234589999999969
11
162.7930470000000014
21
-147.8139349999999865
0
LINE
8
BLACK
6
CONTINUOUS
10
162.7930470000000014
20
-147.8139349999999865
11
162.6978090000000066
21
-147.9091740000000073
0
LINE
8
BLACK
6
CONTINUOUS
10
162.6978090000000066
20
-147.9091740000000073
11
162.5073329999999885
21
-148.0044120000000021
0
LINE
8
BLACK
6
CONTINUOUS
10
162.5073329999999885
20
-148.0044120000000021
11
162.3168560000000014
21
-148.0044120000000021
0
LINE
8
BLACK
6
CONTINUOUS
10
162.3168560000000014
20
-148.0044120000000021
11
162.1263799999999833
21
-147.9091740000000073
0
LINE
8
BLACK
6
CONTINUOUS
10
162.1263799999999833
20
-147.9091740000000073
11
162.0311419999999885
21
-147.8139349999999865
0
LINE
8
BLACK
6
CONTINUOUS
10
162.0311419999999885
20
-147.8139349999999865
11
161.9359039999999936
21
-147.6234589999999969
0
LINE
8
BLACK
6
CONTINUOUS
10
161.9359039999999936
20
-147.6234589999999969
11
161.8406659999999988
21
-147.2425069999999891
0
LINE
8
BLACK
6
CONTINUOUS
10
161.8406659999999988
20
-147.2425069999999891
11
161.8406659999999988
21
-146.7663159999999891
0
LINE
8
BLACK
6
CONTINUOUS
10
161.8406659999999988
20
-146.7663159999999891
11
161.9359039999999936
21
-146.3853639999999814
0
LINE
8
BLACK
6
CONTINUOUS
10
161.9359039999999936
20
-146.3853639999999814
11
162.0311419999999885
21
-146.1948879999999917
0
LINE
8
BLACK
6
CONTINUOUS
10
162.0311419999999885
20
-146.1948879999999917
11
162.1263799999999833
21
-146.0996499999999969
0
LINE
8
BLACK
6
CONTINUOUS
10
162.1263799999999833
20
-146.0996499999999969
11
162.3168560000000014
21
-146.0044120000000021
0
LINE
8
BLACK
6
CONTINUOUS
10
163.8406659999999988
20
-147.8139349999999865
11
163.9359039999999936
21
-147.9091740000000073
0
LINE
8
BLACK
6
CONTINUOUS
10
163.9359039999999936
20
-147.9091740000000073
11
163.8406659999999988
21
-148.0044120000000021
0
LINE
8
BLACK
6
CONTINUOUS
10
163.8406659999999988
20
-148.0044120000000021
11
163.745428000000004
21
-147.9091740000000073
0
LINE
8
BLACK
6
CONTINUOUS
10
163.745428000000004
20
-147.9091740000000073
11
163.8406659999999988
21
-147.8139349999999865
0
LINE
8
BLACK
6
CONTINUOUS
10
163.8406659999999988
20
-147.8139349999999865
11
163.8406659999999988
21
-148.0044120000000021
0
LINE
8
BLACK
6
CONTINUOUS
10
165.1739989999999807
20
-146.0044120000000021
11
165.3644759999999962
21
-146.0044120000000021
0
LINE
8
BLACK
6
CONTINUOUS
10
165.3644759999999962
20
-146.0044120000000021
11
165.5549519999999859
21
-146.0996499999999969
0
LINE
8
BLACK
6
CONTINUOUS
10
165.5549519999999859
20
-146.0996499999999969
11
165.6501899999999807
21
-146.1948879999999917
0
LINE
8
BLACK
6
CONTINUOUS
10
165.6501899999999807
20
-146.1948879999999917
11
165.745428000000004
21
-146.3853639999999814
0
LINE
8
BLACK
6
CONTINUOUS
10
165.745428000000004
20
-146.3853639999999814
11
165.8406659999999988
21
-146.7663159999999891
0
LINE
8
BLACK
6
CONTINUOUS
10
165.8406659999999988
20
-146.7663159999999891
11
165.8406659999999988
21
-147.2425069999999891
0
LINE
8
BLACK
6
CONTINUOUS
10
165.8406659999999988
20
-147.2425069999999891
11
165.745428000000004
21
-147.6234589999999969
0
LINE
8
BLACK
6
CONTINUOUS
10
165.745428000000004
20
-147.6234589999999969
11
165.6501899999999807
21
-147.8139349999999865
0
LINE
8
BLACK
6
CONTINUOUS
10
165.6501899999999807
20
-147.8139349999999865
11
165.5549519999999859
21
-147.9091740000000073
0
LINE
8
BLACK
6
CONTINUOUS
10
165.5549519999999859
20
-147.9091740000000073
11
165.3644759999999962
21
-148.0044120000000021
0
LINE
8
BLACK
6
CONTINUOUS
10
165.3644759999999962
20
-148.0044120000000021
11
165.1739989999999807
21
-148.0044120000000021
0
LINE
8
BLACK
6
CONTINUOUS
10
165.1739989999999807
20
-148.0044120000000021
11
164.983522999999991
21
-147.9091740000000073
0
LINE
8
BLACK
6
CONTINUOUS
10
164.983522999999991
20
-147.9091740000000073
11
164.8882849999999962
21
-147.8139349999999865
0
LINE
8
BLACK
6
CONTINUOUS
10
164.8882849999999962
20
-147.8139349999999865
11
164.7930470000000014
21
-147.6234589999999969
0
LINE
8
BLACK
6
CONTINUOUS
10
164.7930470000000014
20
-147.6234589999999969
11
164.6978090000000066
21
-147.2425069999999891
0
LINE
8
BLACK
6
CONTINUOUS
10
164.6978090000000066
20
-147.2425069999999891
11
164.6978090000000066
21
-146.7663159999999891
0
LINE
8
BLACK
6
CONTINUOUS
10
164.6978090000000066
20
-146.7663159999999891
11
164.7930470000000014
21
-146.3853639999999814
0
LINE
8
BLACK
6
CONTINUOUS
10
164.7930470000000014
20
-146.3853639999999814
11
164.8882849999999962
21
-146.1948879999999917
0
LINE
8
BLACK
6
CONTINUOUS
10
164.8882849999999962
20
-146.1948879999999917
11
164.983522999999991
21
-146.0996499999999969
0
LINE
8
BLACK
6
CONTINUOUS
10
164.983522999999991
20
-146.0996499999999969
11
165.1739989999999807
21
-146.0044120000000021
0
LINE
8
BLACK
6
CONTINUOUS
10
166.983522999999991
20
-146.8615539999999839
11
166.7930470000000014
21
-146.7663159999999891
0
LINE
8
BLACK
6
CONTINUOUS
10
166.7930470000000014
20
-146.7663159999999891
11
166.6978090000000066
21
-146.6710779999999943
0
LINE
8
BLACK
6
CONTINUOUS
10
166.6978090000000066
20
-146.6710779999999943
11
166.6025709999999833
21
-146.4806020000000046
0
LINE
8
BLACK
6
CONTINUOUS
10
166.6025709999999833
20
-146.4806020000000046
11
166.6025709999999833
21
-146.3853639999999814
0
LINE
8
BLACK
6
CONTINUOUS
10
166.6025709999999833
20
-146.3853639999999814
11
166.6978090000000066
21
-146.1948879999999917
0
LINE
8
BLACK
6
CONTINUOUS
10
166.6978090000000066
20
-146.1948879999999917
11
166.7930470000000014
21
-146.0996499999999969
0
LINE
8
BLACK
6
CONTINUOUS
10
166.7930470000000014
20
-146.0996499999999969
11
166.983522999999991
21
-146.0044120000000021
0
LINE
8
BLACK
6
CONTINUOUS
10
166.983522999999991
20
-146.0044120000000021
11
167.3644759999999962
21
-146.0044120000000021
0
LINE
8
BLACK
6
CONTINUOUS
10
167.3644759999999962
20
-146.0044120000000021
11
167.5549519999999859
21
-146.0996499999999969
0
LINE
8
BLACK
6
CONTINUOUS
10
167.5549519999999859
20
-146.0996499999999969
11
167.6501899999999807
21
-146.1948879999999917
0
LINE
8
BLACK
6
CONTINUOUS
10
167.6501899999999807
20
-146.1948879999999917
11
167.745428000000004
21
-146.3853639999999814
0
LINE
8
BLACK
6
CONTINUOUS
10
167.745428000000004
20
-146.3853639999999814
11
167.745428000000004
21
-146.4806020000000046
0
LINE
8
BLACK
6
CONTINUOUS
10
167.745428000000004
20
-146.4806020000000046
11
167.6501899999999807
21
-146.6710779999999943
0
LINE
8
BLACK
6
CONTINUOUS
10
167.6501899999999807
20
-146.6710779999999943
11
167.5549519999999859
21
-146.7663159999999891
0
LINE
8
BLACK
6
CONTINUOUS
10
167.5549519999999859
20
-146.7663159999999891
11
167.3644759999999962
21
-146.8615539999999839
0
LINE
8
BLACK
6
CONTINUOUS
10
167.3644759999999962
20
-146.8615539999999839
11
166.983522999999991
21
-146.8615539999999839
0
LINE
8
BLACK
6
CONTINUOUS
10
166.983522999999991
20
-146.8615539999999839
11
166.7930470000000014
21
-146.9567930000000047
0
LINE
8
BLACK
6
CONTINUOUS
10
166.7930470000000014
20
-146.9567930000000047
11
166.6978090000000066
21
-147.0520309999999995
0
LINE
8
BLACK
6
CONTINUOUS
10
166.6978090000000066
20
-147.0520309999999995
11
166.6025709999999833
21
-147.2425069999999891
0
LINE
8
BLACK
6
CONTINUOUS
10
166.6025709999999833
20
-147.2425069999999891
11
166.6025709999999833
21
-147.6234589999999969
0
LINE
8
BLACK
6
CONTINUOUS
10
166.6025709999999833
20
-147.6234589999999969
11
166.6978090000000066
21
-147.8139349999999865
0
LINE
8
BLACK
6
CONTINUOUS
10
166.6978090000000066
20
-147.8139349999999865
11
166.7930470000000014
21
-147.9091740000000073
0
LINE
8
BLACK
6
CONTINUOUS
10
166.7930470000000014
20
-147.9091740000000073
11
166.983522999999991
21
-148.0044120000000021
0
LINE
8
BLACK
6
CONTINUOUS
10
166.983522999999991
20
-148.0044120000000021
11
167.3644759999999962
21
-148.0044120000000021
0
LINE
8
BLACK
6
CONTINUOUS
10
167.3644759999999962
20
-148.0044120000000021
11
167.5549519999999859
21
-147.9091740000000073
0
LINE
8
BLACK
6
CONTINUOUS
10
167.5549519999999859
20
-147.9091740000000073
11
167.6501899999999807
21
-147.8139349999999865
0
LINE
8
BLACK
6
CONTINUOUS
10
167.6501899999999807
20
-147.8139349999999865
11
167.745428000000004
21
-147.6234589999999969
0
LINE
8
BLACK
6
CONTINUOUS
10
167.745428000000004
20
-147.6234589999999969
11
167.745428000000004
21
-147.2425069999999891
0
LINE
8
BLACK
6
CONTINUOUS
10
167.745428000000004
20
-147.2425069999999891
11
167.6501899999999807
21
-147.0520309999999995
0
LINE
8
BLACK
6
CONTINUOUS
10
167.6501899999999807
20
-147.0520309999999995
11
167.5549519999999859
21
-146.9567930000000047
0
LINE
8
BLACK
6
CONTINUOUS
10
167.5549519999999859
20
-146.9567930000000047
11
167.3644759999999962
21
-146.8615539999999839
0
LINE
8
BLACK
6
CONTINUOUS
10
169.4597139999999911
20
-146.0044120000000021
11
169.0787609999999859
21
-146.0044120000000021
0
LINE
8
BLACK
6
CONTINUOUS
10
169.0787609999999859
20
-146.0044120000000021
11
168.8882849999999962
21
-146.0996499999999969
0
LINE
8
BLACK
6
CONTINUOUS
10
168.8882849999999962
20
-146.0996499999999969
11
168.7930470000000014
21
-146.1948879999999917
0
LINE
8
BLACK
6
CONTINUOUS
10
168.7930470000000014
20
-146.1948879999999917
11
168.6025709999999833
21
-146.4806020000000046
0
LINE
8
BLACK
6
CONTINUOUS
10
168.6025709999999833
20
-146.4806020000000046
11
168.5073329999999885
21
-146.8615539999999839
0
LINE
8
BLACK
6
CONTINUOUS
10
168.5073329999999885
20
-146.8615539999999839
11
168.5073329999999885
21
-147.6234589999999969
0
LINE
8
BLACK
6
CONTINUOUS
10
168.5073329999999885
20
-147.6234589999999969
11
168.6025709999999833
21
-147.8139349999999865
0
LINE
8
BLACK
6
CONTINUOUS
10
168.6025709999999833
20
-147.8139349999999865
11
168.6978090000000066
21
-147.9091740000000073
0
LINE
8
BLACK
6
CONTINUOUS
10
168.6978090000000066
20
-147.9091740000000073
11
168.8882849999999962
21
-148.0044120000000021
0
LINE
8
BLACK
6
CONTINUOUS
10
168.8882849999999962
20
-148.0044120000000021
11
169.2692380000000014
21
-148.0044120000000021
0
LINE
8
BLACK
6
CONTINUOUS
10
169.2692380000000014
20
-148.0044120000000021
11
169.4597139999999911
21
-147.9091740000000073
0
LINE
8
BLACK
6
CONTINUOUS
10
169.4597139999999911
20
-147.9091740000000073
11
169.5549519999999859
21
-147.8139349999999865
0
LINE
8
BLACK
6
CONTINUOUS
10
169.5549519999999859
20
-147.8139349999999865
11
169.6501899999999807
21
-147.6234589999999969
0
LINE
8
BLACK
6
CONTINUOUS
10
169.6501899999999807
20
-147.6234589999999969
11
169.6501899999999807
21
-147.1472689999999943
0
LINE
8
BLACK
6
CONTINUOUS
10
169.6501899999999807
20
-147.1472689999999943
11
169.5549519999999859
21
-146.9567930000000047
0
LINE
8
BLACK
6
CONTINUOUS
10
169.5549519999999859
20
-146.9567930000000047
11
169.4597139999999911
21
-146.8615539999999839
0
LINE
8
BLACK
6
CONTINUOUS
10
169.4597139999999911
20
-146.8615539999999839
11
169.2692380000000014
21
-146.7663159999999891
0
LINE
8
BLACK
6
CONTINUOUS
10
169.2692380000000014
20
-146.7663159999999891
11
168.8882849999999962
21
-146.7663159999999891
0
LINE
8
BLACK
6
CONTINUOUS
10
168.8882849999999962
20
-146.7663159999999891
11
168.6978090000000066
21
-146.8615539999999839
0
LINE
8
BLACK
6
CONTINUOUS
10
168.6978090000000066
20
-146.8615539999999839
11
168.6025709999999833
21
-146.9567930000000047
0
LINE
8
BLACK
6
CONTINUOUS
10
168.6025709999999833
20
-146.9567930000000047
11
168.5073329999999885
21
-147.1472689999999943
0
LINE
8
BLACK
6
CONTINUOUS
10
171.3644759999999962
20
-146.0044120000000021
11
170.983522999999991
21
-146.0044120000000021
0
LINE
8
BLACK
6
CONTINUOUS
10
170.983522999999991
20
-146.0044120000000021
11
170.7930470000000014
21
-146.0996499999999969
0
LINE
8
BLACK
6
CONTINUOUS
10
170.7930470000000014
20
-146.0996499999999969
11
170.6978089999999781
21
-146.1948879999999917
0
LINE
8
BLACK
6
CONTINUOUS
10
170.6978089999999781
20
-146.1948879999999917
11
170.5073329999999885
21
-146.4806020000000046
0
LINE
8
BLACK
6
CONTINUOUS
10
170.5073329999999885
20
-146.4806020000000046
11
170.4120949999999937
21
-146.8615539999999839
0
LINE
8
BLACK
6
CONTINUOUS
10
170.4120949999999937
20
-146.8615539999999839
11
170.4120949999999937
21
-147.6234589999999969
0
LINE
8
BLACK
6
CONTINUOUS
10
170.4120949999999937
20
-147.6234589999999969
11
170.5073329999999885
21
-147.8139349999999865
0
LINE
8
BLACK
6
CONTINUOUS
10
170.5073329999999885
20
-147.8139349999999865
11
170.6025709999999833
21
-147.9091740000000073
0
LINE
8
BLACK
6
CONTINUOUS
10
170.6025709999999833
20
-147.9091740000000073
11
170.7930470000000014
21
-148.0044120000000021
0
LINE
8
BLACK
6
CONTINUOUS
10
170.7930470000000014
20
-148.0044120000000021
11
171.1739999999999782
21
-148.0044120000000021
0
LINE
8
BLACK
6
CONTINUOUS
10
171.1739999999999782
20
-148.0044120000000021
11
171.3644759999999962
21
-147.9091740000000073
0
LINE
8
BLACK
6
CONTINUOUS
10
171.3644759999999962
20
-147.9091740000000073
11
171.4597139999999911
21
-147.8139349999999865
0
LINE
8
BLACK
6
CONTINUOUS
10
171.4597139999999911
20
-147.8139349999999865
11
171.5549519999999859
21
-147.6234589999999969
0
LINE
8
BLACK
6
CONTINUOUS
10
171.5549519999999859
20
-147.6234589999999969
11
171.5549519999999859
21
-147.1472689999999943
0
LINE
8
BLACK
6
CONTINUOUS
10
171.5549519999999859
20
-147.1472689999999943
11
171.4597139999999911
21
-146.9567930000000047
0
LINE
8
BLACK
6
CONTINUOUS
10
171.4597139999999911
20
-146.9567930000000047
11
171.3644759999999962
21
-146.8615539999999839
0
LINE
8
BLACK
6
CONTINUOUS
10
171.3644759999999962
20
-146.8615539999999839
11
171.1739999999999782
21
-146.7663159999999891
0
LINE
8
BLACK
6
CONTINUOUS
10
171.1739999999999782
20
-146.7663159999999891
11
170.7930470000000014
21
-146.7663159999999891
0
LINE
8
BLACK
6
CONTINUOUS
10
170.7930470000000014
20
-146.7663159999999891
11
170.6025709999999833
21
-146.8615539999999839
0
LINE
8
BLACK
6
CONTINUOUS
10
170.6025709999999833
20
-146.8615539999999839
11
170.5073329999999885
21
-146.9567930000000047
0
LINE
8
BLACK
6
CONTINUOUS
10
170.5073329999999885
20
-146.9567930000000047
11
170.4120949999999937
21
-147.1472689999999943
0
LINE
8
BLACK
6
CONTINUOUS
10
172.3168569999999988
20
-146.0044120000000021
11
172.3168569999999988
21
-146.3853639999999814
0
LINE
8
BLACK
6
CONTINUOUS
10
173.0787619999999833
20
-146.0044120000000021
11
173.0787619999999833
21
-146.3853639999999814
0
LINE
8
BLACK
6
CONTINUOUS
10
176.0311439999999834
20
-148.7663159999999891
11
175.9359049999999911
21
-148.6710779999999943
0
LINE
8
BLACK
6
CONTINUOUS
10
175.9359049999999911
20
-148.6710779999999943
11
175.7454290000000015
21
-148.3853639999999814
0
LINE
8
BLACK
6
CONTINUOUS
10
175.7454290000000015
20
-148.3853639999999814
11
175.6501909999999782
21
-148.1948879999999917
0
LINE
8
BLACK
6
CONTINUOUS
10
175.6501909999999782
20
-148.1948879999999917
11
175.5549529999999834
21
-147.9091740000000073
0
LINE
8
BLACK
6
CONTINUOUS
10
175.5549529999999834
20
-147.9091740000000073
11
175.4597149999999885
21
-147.4329830000000072
0
LINE
8
BLACK
6
CONTINUOUS
10
175.4597149999999885
20
-147.4329830000000072
11
175.4597149999999885
21
-147.0520309999999995
0
LINE
8
BLACK
6
CONTINUOUS
10
175.4597149999999885
20
-147.0520309999999995
11
175.5549529999999834
21
-146.5758399999999995
0
LINE
8
BLACK
6
CONTINUOUS
10
175.5549529999999834
20
-146.5758399999999995
11
175.6501909999999782
21
-146.2901259999999866
0
LINE
8
BLACK
6
CONTINUOUS
10
175.6501909999999782
20
-146.2901259999999866
11
175.7454290000000015
21
-146.0996499999999969
0
LINE
8
BLACK
6
CONTINUOUS
10
175.7454290000000015
20
-146.0996499999999969
11
175.9359049999999911
21
-145.8139349999999865
0
LINE
8
BLACK
6
CONTINUOUS
10
175.9359049999999911
20
-145.8139349999999865
11
176.0311439999999834
21
-145.7186969999999917
0
LINE
8
BLACK
6
CONTINUOUS
10
176.697810000000004
20
-146.1948879999999917
11
176.7930479999999989
21
-146.0996499999999969
0
LINE
8
BLACK
6
CONTINUOUS
10
176.7930479999999989
20
-146.0996499999999969
11
176.9835239999999885
21
-146.0044120000000021
0
LINE
8
BLACK
6
CONTINUOUS
10
176.9835239999999885
20
-146.0044120000000021
11
177.4597149999999885
21
-146.0044120000000021
0
LINE
8
BLACK
6
CONTINUOUS
10
177.4597149999999885
20
-146.0044120000000021
11
177.6501909999999782
21
-146.0996499999999969
0
LINE
8
BLACK
6
CONTINUOUS
10
177.6501909999999782
20
-146.0996499999999969
11
177.7454290000000015
21
-146.1948879999999917
0
LINE
8
BLACK
6
CONTINUOUS
10
177.7454290000000015
20
-146.1948879999999917
11
177.8406669999999963
21
-146.3853639999999814
0
LINE
8
BLACK
6
CONTINUOUS
10
177.8406669999999963
20
-146.3853639999999814
11
177.8406669999999963
21
-146.5758399999999995
0
LINE
8
BLACK
6
CONTINUOUS
10
177.8406669999999963
20
-146.5758399999999995
11
177.7454290000000015
21
-146.8615539999999839
0
LINE
8
BLACK
6
CONTINUOUS
10
177.7454290000000015
20
-146.8615539999999839
11
176.6025719999999808
21
-148.0044120000000021
0
LINE
8
BLACK
6
CONTINUOUS
10
176.6025719999999808
20
-148.0044120000000021
11
177.8406669999999963
21
-148.0044120000000021
0
LINE
8
BLACK
6
CONTINUOUS
10
180.2216200000000015
20
-148.0044120000000021
11
180.2216200000000015
21
-146.0044120000000021
0
LINE
8
BLACK
6
CONTINUOUS
10
181.0787629999999808
20
-148.0044120000000021
11
181.0787629999999808
21
-146.9567930000000047
0
LINE
8
BLACK
6
CONTINUOUS
10
181.0787629999999808
20
-146.9567930000000047
11
180.983524999999986
21
-146.7663159999999891
0
LINE
8
BLACK
6
CONTINUOUS
10
180.983524999999986
20
-146.7663159999999891
11
180.7930489999999963
21
-146.6710779999999943
0
LINE
8
BLACK
6
CONTINUOUS
10
180.7930489999999963
20
-146.6710779999999943
11
180.507333999999986
21
-146.6710779999999943
0
LINE
8
BLACK
6
CONTINUOUS
10
180.507333999999986
20
-146.6710779999999943
11
180.3168579999999963
21
-146.7663159999999891
0
LINE
8
BLACK
6
CONTINUOUS
10
180.3168579999999963
20
-146.7663159999999891
11
180.2216200000000015
21
-146.8615539999999839
0
LINE
8
BLACK
6
CONTINUOUS
10
182.3168579999999963
20
-148.0044120000000021
11
182.1263819999999782
21
-147.9091740000000073
0
LINE
8
BLACK
6
CONTINUOUS
10
182.1263819999999782
20
-147.9091740000000073
11
182.0311439999999834
21
-147.8139349999999865
0
LINE
8
BLACK
6
CONTINUOUS
10
182.0311439999999834
20
-147.8139349999999865
11
181.9359059999999886
21
-147.6234589999999969
0
LINE
8
BLACK
6
CONTINUOUS
10
181.9359059999999886
20
-147.6234589999999969
11
181.9359059999999886
21
-147.0520309999999995
0
LINE
8
BLACK
6
CONTINUOUS
10
181.9359059999999886
20
-147.0520309999999995
11
182.0311439999999834
21
-146.8615539999999839
0
LINE
8
BLACK
6
CONTINUOUS
10
182.0311439999999834
20
-146.8615539999999839
11
182.1263819999999782
21
-146.7663159999999891
0
LINE
8
BLACK
6
CONTINUOUS
10
182.1263819999999782
20
-146.7663159999999891
11
182.3168579999999963
21
-146.6710779999999943
0
LINE
8
BLACK
6
CONTINUOUS
10
182.3168579999999963
20
-146.6710779999999943
11
182.6025729999999783
21
-146.6710779999999943
0
LINE
8
BLACK
6
CONTINUOUS
10
182.6025729999999783
20
-146.6710779999999943
11
182.7930489999999963
21
-146.7663159999999891
0
LINE
8
BLACK
6
CONTINUOUS
10
182.7930489999999963
20
-146.7663159999999891
11
182.8882869999999912
21
-146.8615539999999839
0
LINE
8
BLACK
6
CONTINUOUS
10
182.8882869999999912
20
-146.8615539999999839
11
182.983524999999986
21
-147.0520309999999995
0
LINE
8
BLACK
6
CONTINUOUS
10
182.983524999999986
20
-147.0520309999999995
11
182.983524999999986
21
-147.6234589999999969
0
LINE
8
BLACK
6
CONTINUOUS
10
182.983524999999986
20
-147.6234589999999969
11
182.8882869999999912
21
-147.8139349999999865
0
LINE
8
BLACK
6
CONTINUOUS
10
182.8882869999999912
20
-147.8139349999999865
11
182.7930489999999963
21
-147.9091740000000073
0
LINE
8
BLACK
6
CONTINUOUS
10
182.7930489999999963
20
-147.9091740000000073
11
182.6025729999999783
21
-148.0044120000000021
0
LINE
8
BLACK
6
CONTINUOUS
10
182.6025729999999783
20
-148.0044120000000021
11
182.3168579999999963
21
-148.0044120000000021
0
LINE
8
BLACK
6
CONTINUOUS
10
184.1263819999999782
20
-148.0044120000000021
11
183.9359059999999886
21
-147.9091740000000073
0
LINE
8
BLACK
6
CONTINUOUS
10
183.9359059999999886
20
-147.9091740000000073
11
183.8406679999999938
21
-147.7186969999999917
0
LINE
8
BLACK
6
CONTINUOUS
10
183.8406679999999938
20
-147.7186969999999917
11
183.8406679999999938
21
-146.0044120000000021
0
LINE
8
BLACK
6
CONTINUOUS
10
185.6501920000000041
20
-147.9091740000000073
11
185.459715999999986
21
-148.0044120000000021
0
LINE
8
BLACK
6
CONTINUOUS
10
185.459715999999986
20
-148.0044120000000021
11
185.0787629999999808
21
-148.0044120000000021
0
LINE
8
BLACK
6
CONTINUOUS
10
185.0787629999999808
20
-148.0044120000000021
11
184.8882869999999912
21
-147.9091740000000073
0
LINE
8
BLACK
6
CONTINUOUS
10
184.8882869999999912
20
-147.9091740000000073
11
184.7930489999999963
21
-147.7186969999999917
0
LINE
8
BLACK
6
CONTINUOUS
10
184.7930489999999963
20
-147.7186969999999917
11
184.7930489999999963
21
-146.9567930000000047
0
LINE
8
BLACK
6
CONTINUOUS
10
184.7930489999999963
20
-146.9567930000000047
11
184.8882869999999912
21
-146.7663159999999891
0
LINE
8
BLACK
6
CONTINUOUS
10
184.8882869999999912
20
-146.7663159999999891
11
185.0787629999999808
21
-146.6710779999999943
0
LINE
8
BLACK
6
CONTINUOUS
10
185.0787629999999808
20
-146.6710779999999943
11
185.459715999999986
21
-146.6710779999999943
0
LINE
8
BLACK
6
CONTINUOUS
10
185.459715999999986
20
-146.6710779999999943
11
185.6501920000000041
21
-146.7663159999999891
0
LINE
8
BLACK
6
CONTINUOUS
10
185.6501920000000041
20
-146.7663159999999891
11
185.7454299999999989
21
-146.9567930000000047
0
LINE
8
BLACK
6
CONTINUOUS
10
185.7454299999999989
20
-146.9567930000000047
11
185.7454299999999989
21
-147.1472689999999943
0
LINE
8
BLACK
6
CONTINUOUS
10
185.7454299999999989
20
-147.1472689999999943
11
184.7930489999999963
21
-147.337744999999984
0
LINE
8
BLACK
6
CONTINUOUS
10
186.5073349999999834
20
-147.9091740000000073
11
186.6978110000000015
21
-148.0044120000000021
0
LINE
8
BLACK
6
CONTINUOUS
10
186.6978110000000015
20
-148.0044120000000021
11
187.0787629999999808
21
-148.0044120000000021
0
LINE
8
BLACK
6
CONTINUOUS
10
187.0787629999999808
20
-148.0044120000000021
11
187.2692399999999964
21
-147.9091740000000073
0
LINE
8
BLACK
6
CONTINUOUS
10
187.2692399999999964
20
-147.9091740000000073
11
187.3644779999999912
21
-147.7186969999999917
0
LINE
8
BLACK
6
CONTINUOUS
10
187.3644779999999912
20
-147.7186969999999917
11
187.3644779999999912
21
-147.6234589999999969
0
LINE
8
BLACK
6
CONTINUOUS
10
187.3644779999999912
20
-147.6234589999999969
11
187.2692399999999964
21
-147.4329830000000072
0
LINE
8
BLACK
6
CONTINUOUS
10
187.2692399999999964
20
-147.4329830000000072
11
187.0787629999999808
21
-147.337744999999984
0
LINE
8
BLACK
6
CONTINUOUS
10
187.0787629999999808
20
-147.337744999999984
11
186.7930489999999963
21
-147.337744999999984
0
LINE
8
BLACK
6
CONTINUOUS
10
186.7930489999999963
20
-147.337744999999984
11
186.6025729999999783
21
-147.2425069999999891
0
LINE
8
BLACK
6
CONTINUOUS
10
186.6025729999999783
20
-147.2425069999999891
11
186.5073349999999834
21
-147.0520309999999995
0
LINE
8
BLACK
6
CONTINUOUS
10
186.5073349999999834
20
-147.0520309999999995
11
186.5073349999999834
21
-146.9567930000000047
0
LINE
8
BLACK
6
CONTINUOUS
10
186.5073349999999834
20
-146.9567930000000047
11
186.6025729999999783
21
-146.7663159999999891
0
LINE
8
BLACK
6
CONTINUOUS
10
186.6025729999999783
20
-146.7663159999999891
11
186.7930489999999963
21
-146.6710779999999943
0
LINE
8
BLACK
6
CONTINUOUS
10
186.7930489999999963
20
-146.6710779999999943
11
187.0787629999999808
21
-146.6710779999999943
0
LINE
8
BLACK
6
CONTINUOUS
10
187.0787629999999808
20
-146.6710779999999943
11
187.2692399999999964
21
-146.7663159999999891
0
LINE
8
BLACK
6
CONTINUOUS
10
188.0311449999999809
20
-148.7663159999999891
11
188.1263830000000041
21
-148.6710779999999943
0
LINE
8
BLACK
6
CONTINUOUS
10
188.1263830000000041
20
-148.6710779999999943
11
188.3168589999999938
21
-148.3853639999999814
0
LINE
8
BLACK
6
CONTINUOUS
10
188.3168589999999938
20
-148.3853639999999814
11
188.4120969999999886
21
-148.1948879999999917
0
LINE
8
BLACK
6
CONTINUOUS
10
188.4120969999999886
20
-148.1948879999999917
11
188.5073349999999834
21
-147.9091740000000073
0
LINE
8
BLACK
6
CONTINUOUS
10
188.5073349999999834
20
-147.9091740000000073
11
188.6025729999999783
21
-147.4329830000000072
0
LINE
8
BLACK
6
CONTINUOUS
10
188.6025729999999783
20
-147.4329830000000072
11
188.6025729999999783
21
-147.0520309999999995
0
LINE
8
BLACK
6
CONTINUOUS
10
188.6025729999999783
20
-147.0520309999999995
11
188.5073349999999834
21
-146.5758399999999995
0
LINE
8
BLACK
6
CONTINUOUS
10
188.5073349999999834
20
-146.5758399999999995
11
188.4120969999999886
21
-146.2901259999999866
0
LINE
8
BLACK
6
CONTINUOUS
10
188.4120969999999886
20
-146.2901259999999866
11
188.3168589999999938
21
-146.0996499999999969
0
LINE
8
BLACK
6
CONTINUOUS
10
188.3168589999999938
20
-146.0996499999999969
11
188.1263830000000041
21
-145.8139349999999865
0
LINE
8
BLACK
6
CONTINUOUS
10
188.1263830000000041
20
-145.8139349999999865
11
188.0311449999999809
21
-145.7186969999999917
0
LINE
8
BLACK
6
CONTINUOUS
10
191.6501930000000016
20
-148.7663159999999891
11
191.5549539999999809
21
-148.6710779999999943
0
LINE
8
BLACK
6
CONTINUOUS
10
191.5549539999999809
20
-148.6710779999999943
11
191.3644779999999912
21
-148.3853639999999814
0
LINE
8
BLACK
6
CONTINUOUS
10
191.3644779999999912
20
-148.3853639999999814
11
191.2692399999999964
21
-148.1948879999999917
0
LINE
8
BLACK
6
CONTINUOUS
10
191.2692399999999964
20
-148.1948879999999917
11
191.1740020000000015
21
-147.9091740000000073
0
LINE
8
BLACK
6
CONTINUOUS
10
191.1740020000000015
20
-147.9091740000000073
11
191.0787639999999783
21
-147.4329830000000072
0
LINE
8
BLACK
6
CONTINUOUS
10
191.0787639999999783
20
-147.4329830000000072
11
191.0787639999999783
21
-147.0520309999999995
0
LINE
8
BLACK
6
CONTINUOUS
10
191.0787639999999783
20
-147.0520309999999995
11
191.1740020000000015
21
-146.5758399999999995
0
LINE
8
BLACK
6
CONTINUOUS
10
191.1740020000000015
20
-146.5758399999999995
11
191.2692399999999964
21
-146.2901259999999866
0
LINE
8
BLACK
6
CONTINUOUS
10
191.2692399999999964
20
-146.2901259999999866
11
191.3644779999999912
21
-146.0996499999999969
0
LINE
8
BLACK
6
CONTINUOUS
10
191.3644779999999912
20
-146.0996499999999969
11
191.5549539999999809
21
-145.8139349999999865
0
LINE
8
BLACK
6
CONTINUOUS
10
191.5549539999999809
20
-145.8139349999999865
11
191.6501930000000016
21
-145.7186969999999917
0
LINE
8
BLACK
6
CONTINUOUS
10
192.4120969999999886
20
-146.6710779999999943
11
192.4120969999999886
21
-148.0044120000000021
0
LINE
8
BLACK
6
CONTINUOUS
10
192.4120969999999886
20
-146.8615539999999839
11
192.5073349999999834
21
-146.7663159999999891
0
LINE
8
BLACK
6
CONTINUOUS
10
192.5073349999999834
20
-146.7663159999999891
11
192.6978110000000015
21
-146.6710779999999943
0
LINE
8
BLACK
6
CONTINUOUS
10
192.6978110000000015
20
-146.6710779999999943
11
192.9835259999999835
21
-146.6710779999999943
0
LINE
8
BLACK
6
CONTINUOUS
10
192.9835259999999835
20
-146.6710779999999943
11
193.1740020000000015
21
-146.7663159999999891
0
LINE
8
BLACK
6
CONTINUOUS
10
193.1740020000000015
20
-146.7663159999999891
11
193.2692399999999964
21
-146.9567930000000047
0
LINE
8
BLACK
6
CONTINUOUS
10
193.2692399999999964
20
-146.9567930000000047
11
193.2692399999999964
21
-148.0044120000000021
0
LINE
8
BLACK
6
CONTINUOUS
10
194.5073349999999834
20
-148.0044120000000021
11
194.3168589999999938
21
-147.9091740000000073
0
LINE
8
BLACK
6
CONTINUOUS
10
194.3168589999999938
20
-147.9091740000000073
11
194.221620999999999
21
-147.8139349999999865
0
LINE
8
BLACK
6
CONTINUOUS
10
194.221620999999999
20
-147.8139349999999865
11
194.1263830000000041
21
-147.6234589999999969
0
LINE
8
BLACK
6
CONTINUOUS
10
194.1263830000000041
20
-147.6234589999999969
11
194.1263830000000041
21
-147.0520309999999995
0
LINE
8
BLACK
6
CONTINUOUS
10
194.1263830000000041
20
-147.0520309999999995
11
194.221620999999999
21
-146.8615539999999839
0
LINE
8
BLACK
6
CONTINUOUS
10
194.221620999999999
20
-146.8615539999999839
11
194.3168589999999938
21
-146.7663159999999891
0
LINE
8
BLACK
6
CONTINUOUS
10
194.3168589999999938
20
-146.7663159999999891
11
194.5073349999999834
21
-146.6710779999999943
0
LINE
8
BLACK
6
CONTINUOUS
10
194.5073349999999834
20
-146.6710779999999943
11
194.7930499999999938
21
-146.6710779999999943
0
LINE
8
BLACK
6
CONTINUOUS
10
194.7930499999999938
20
-146.6710779999999943
11
194.9835259999999835
21
-146.7663159999999891
0
LINE
8
BLACK
6
CONTINUOUS
10
194.9835259999999835
20
-146.7663159999999891
11
195.0787639999999783
21
-146.8615539999999839
0
LINE
8
BLACK
6
CONTINUOUS
10
195.0787639999999783
20
-146.8615539999999839
11
195.1740020000000015
21
-147.0520309999999995
0
LINE
8
BLACK
6
CONTINUOUS
10
195.1740020000000015
20
-147.0520309999999995
11
195.1740020000000015
21
-147.6234589999999969
0
LINE
8
BLACK
6
CONTINUOUS
10
195.1740020000000015
20
-147.6234589999999969
11
195.0787639999999783
21
-147.8139349999999865
0
LINE
8
BLACK
6
CONTINUOUS
10
195.0787639999999783
20
-147.8139349999999865
11
194.9835259999999835
21
-147.9091740000000073
0
LINE
8
BLACK
6
CONTINUOUS
10
194.9835259999999835
20
-147.9091740000000073
11
194.7930499999999938
21
-148.0044120000000021
0
LINE
8
BLACK
6
CONTINUOUS
10
194.7930499999999938
20
-148.0044120000000021
11
194.5073349999999834
21
-148.0044120000000021
0
LINE
8
BLACK
6
CONTINUOUS
10
195.7454309999999964
20
-146.6710779999999943
11
196.5073349999999834
21
-146.6710779999999943
0
LINE
8
BLACK
6
CONTINUOUS
10
196.0311449999999809
20
-146.0044120000000021
11
196.0311449999999809
21
-147.7186969999999917
0
LINE
8
BLACK
6
CONTINUOUS
10
196.0311449999999809
20
-147.7186969999999917
11
196.1263830000000041
21
-147.9091740000000073
0
LINE
8
BLACK
6
CONTINUOUS
10
196.1263830000000041
20
-147.9091740000000073
11
196.3168589999999938
21
-148.0044120000000021
0
LINE
8
BLACK
6
CONTINUOUS
10
196.3168589999999938
20
-148.0044120000000021
11
196.5073349999999834
21
-148.0044120000000021
0
LINE
8
BLACK
6
CONTINUOUS
10
198.697811999999999
20
-146.6710779999999943
11
198.697811999999999
21
-148.6710779999999943
0
LINE
8
BLACK
6
CONTINUOUS
10
198.697811999999999
20
-146.7663159999999891
11
198.8882879999999886
21
-146.6710779999999943
0
LINE
8
BLACK
6
CONTINUOUS
10
198.8882879999999886
20
-146.6710779999999943
11
199.2692409999999938
21
-146.6710779999999943
0
LINE
8
BLACK
6
CONTINUOUS
10
199.2692409999999938
20
-146.6710779999999943
11
199.4597169999999835
21
-146.7663159999999891
0
LINE
8
BLACK
6
CONTINUOUS
10
199.4597169999999835
20
-146.7663159999999891
11
199.5549549999999783
21
-146.8615539999999839
0
LINE
8
BLACK
6
CONTINUOUS
10
199.5549549999999783
20
-146.8615539999999839
11
199.6501930000000016
21
-147.0520309999999995
0
LINE
8
BLACK
6
CONTINUOUS
10
199.6501930000000016
20
-147.0520309999999995
11
199.6501930000000016
21
-147.6234589999999969
0
LINE
8
BLACK
6
CONTINUOUS
10
199.6501930000000016
20
-147.6234589999999969
11
199.5549549999999783
21
-147.8139349999999865
0
LINE
8
BLACK
6
CONTINUOUS
10
199.5549549999999783
20
-147.8139349999999865
11
199.4597169999999835
21
-147.9091740000000073
0
LINE
8
BLACK
6
CONTINUOUS
10
199.4597169999999835
20
-147.9091740000000073
11
199.2692409999999938
21
-148.0044120000000021
0
LINE
8
BLACK
6
CONTINUOUS
10
199.2692409999999938
20
-148.0044120000000021
11
198.8882879999999886
21
-148.0044120000000021
0
LINE
8
BLACK
6
CONTINUOUS
10
198.8882879999999886
20
-148.0044120000000021
11
198.697811999999999
21
-147.9091740000000073
0
LINE
8
BLACK
6
CONTINUOUS
10
200.7930499999999938
20
-148.0044120000000021
11
200.6025740000000042
21
-147.9091740000000073
0
LINE
8
BLACK
6
CONTINUOUS
10
200.6025740000000042
20
-147.9091740000000073
11
200.5073359999999809
21
-147.7186969999999917
0
LINE
8
BLACK
6
CONTINUOUS
10
200.5073359999999809
20
-147.7186969999999917
11
200.5073359999999809
21
-146.0044120000000021
0
LINE
8
BLACK
6
CONTINUOUS
10
202.4120979999999861
20
-148.0044120000000021
11
202.4120979999999861
21
-146.9567930000000047
0
LINE
8
BLACK
6
CONTINUOUS
10
202.4120979999999861
20
-146.9567930000000047
11
202.3168599999999913
21
-146.7663159999999891
0
LINE
8
BLACK
6
CONTINUOUS
10
202.3168599999999913
20
-146.7663159999999891
11
202.1263840000000016
21
-146.6710779999999943
0
LINE
8
BLACK
6
CONTINUOUS
10
202.1263840000000016
20
-146.6710779999999943
11
201.7454309999999964
21
-146.6710779999999943
0
LINE
8
BLACK
6
CONTINUOUS
10
201.7454309999999964
20
-146.6710779999999943
11
201.5549549999999783
21
-146.7663159999999891
0
LINE
8
BLACK
6
CONTINUOUS
10
202.4120979999999861
20
-147.9091740000000073
11
202.2216219999999964
21
-148.0044120000000021
0
LINE
8
BLACK
6
CONTINUOUS
10
202.2216219999999964
20
-148.0044120000000021
11
201.7454309999999964
21
-148.0044120000000021
0
LINE
8
BLACK
6
CONTINUOUS
10
201.7454309999999964
20
-148.0044120000000021
11
201.5549549999999783
21
-147.9091740000000073
0
LINE
8
BLACK
6
CONTINUOUS
10
201.5549549999999783
20
-147.9091740000000073
11
201.4597169999999835
21
-147.7186969999999917
0
LINE
8
BLACK
6
CONTINUOUS
10
201.4597169999999835
20
-147.7186969999999917
11
201.4597169999999835
21
-147.5282210000000021
0
LINE
8
BLACK
6
CONTINUOUS
10
201.4597169999999835
20
-147.5282210000000021
11
201.5549549999999783
21
-147.337744999999984
0
LINE
8
BLACK
6
CONTINUOUS
10
201.5549549999999783
20
-147.337744999999984
11
201.7454309999999964
21
-147.2425069999999891
0
LINE
8
BLACK
6
CONTINUOUS
10
201.7454309999999964
20
-147.2425069999999891
11
202.2216219999999964
21
-147.2425069999999891
0
LINE
8
BLACK
6
CONTINUOUS
10
202.2216219999999964
20
-147.2425069999999891
11
202.4120979999999861
21
-147.1472689999999943
0
LINE
8
BLACK
6
CONTINUOUS
10
203.0787650000000042
20
-146.6710779999999943
11
203.8406689999999912
21
-146.6710779999999943
0
LINE
8
BLACK
6
CONTINUOUS
10
203.3644789999999887
20
-146.0044120000000021
11
203.3644789999999887
21
-147.7186969999999917
0
LINE
8
BLACK
6
CONTINUOUS
10
203.3644789999999887
20
-147.7186969999999917
11
203.4597169999999835
21
-147.9091740000000073
0
LINE
8
BLACK
6
CONTINUOUS
10
203.4597169999999835
20
-147.9091740000000073
11
203.6501930000000016
21
-148.0044120000000021
0
LINE
8
BLACK
6
CONTINUOUS
10
203.6501930000000016
20
-148.0044120000000021
11
203.8406689999999912
21
-148.0044120000000021
0
LINE
8
BLACK
6
CONTINUOUS
10
205.2692409999999938
20
-147.9091740000000073
11
205.0787650000000042
21
-148.0044120000000021
0
LINE
8
BLACK
6
CONTINUOUS
10
205.0787650000000042
20
-148.0044120000000021
11
204.697811999999999
21
-148.0044120000000021
0
LINE
8
BLACK
6
CONTINUOUS
10
204.697811999999999
20
-148.0044120000000021
11
204.5073359999999809
21
-147.9091740000000073
0
LINE
8
BLACK
6
CONTINUOUS
10
204.5073359999999809
20
-147.9091740000000073
11
204.4120979999999861
21
-147.7186969999999917
0
LINE
8
BLACK
6
CONTINUOUS
10
204.4120979999999861
20
-147.7186969999999917
11
204.4120979999999861
21
-146.9567930000000047
0
LINE
8
BLACK
6
CONTINUOUS
10
204.4120979999999861
20
-146.9567930000000047
11
204.5073359999999809
21
-146.7663159999999891
0
LINE
8
BLACK
6
CONTINUOUS
10
204.5073359999999809
20
-146.7663159999999891
11
204.697811999999999
21
-146.6710779999999943
0
LINE
8
BLACK
6
CONTINUOUS
10
204.697811999999999
20
-146.6710779999999943
11
205.0787650000000042
21
-146.6710779999999943
0
LINE
8
BLACK
6
CONTINUOUS
10
205.0787650000000042
20
-146.6710779999999943
11
205.2692409999999938
21
-146.7663159999999891
0
LINE
8
BLACK
6
CONTINUOUS
10
205.2692409999999938
20
-146.7663159999999891
11
205.3644789999999887
21
-146.9567930000000047
0
LINE
8
BLACK
6
CONTINUOUS
10
205.3644789999999887
20
-146.9567930000000047
11
205.3644789999999887
21
-147.1472689999999943
0
LINE
8
BLACK
6
CONTINUOUS
10
205.3644789999999887
20
-147.1472689999999943
11
204.4120979999999861
21
-147.337744999999984
0
LINE
8
BLACK
6
CONTINUOUS
10
207.0787650000000042
20
-148.0044120000000021
11
207.0787650000000042
21
-146.0044120000000021
0
LINE
8
BLACK
6
CONTINUOUS
10
207.0787650000000042
20
-147.9091740000000073
11
206.8882889999999861
21
-148.0044120000000021
0
LINE
8
BLACK
6
CONTINUOUS
10
206.8882889999999861
20
-148.0044120000000021
11
206.5073359999999809
21
-148.0044120000000021
0
LINE
8
BLACK
6
CONTINUOUS
10
206.5073359999999809
20
-148.0044120000000021
11
206.3168599999999913
21
-147.9091740000000073
0
LINE
8
BLACK
6
CONTINUOUS
10
206.3168599999999913
20
-147.9091740000000073
11
206.2216219999999964
21
-147.8139349999999865
0
LINE
8
BLACK
6
CONTINUOUS
10
206.2216219999999964
20
-147.8139349999999865
11
206.1263840000000016
21
-147.6234589999999969
0
LINE
8
BLACK
6
CONTINUOUS
10
206.1263840000000016
20
-147.6234589999999969
11
206.1263840000000016
21
-147.0520309999999995
0
LINE
8
BLACK
6
CONTINUOUS
10
206.1263840000000016
20
-147.0520309999999995
11
206.2216219999999964
21
-146.8615539999999839
0
LINE
8
BLACK
6
CONTINUOUS
10
206.2216219999999964
20
-146.8615539999999839
11
206.3168599999999913
21
-146.7663159999999891
0
LINE
8
BLACK
6
CONTINUOUS
10
206.3168599999999913
20
-146.7663159999999891
11
206.5073359999999809
21
-146.6710779999999943
0
LINE
8
BLACK
6
CONTINUOUS
10
206.5073359999999809
20
-146.6710779999999943
11
206.8882889999999861
21
-146.6710779999999943
0
LINE
8
BLACK
6
CONTINUOUS
10
206.8882889999999861
20
-146.6710779999999943
11
207.0787650000000042
21
-146.7663159999999891
0
LINE
8
BLACK
6
CONTINUOUS
10
207.8406699999999887
20
-148.7663159999999891
11
207.9359079999999835
21
-148.6710779999999943
0
LINE
8
BLACK
6
CONTINUOUS
10
207.9359079999999835
20
-148.6710779999999943
11
208.1263840000000016
21
-148.3853639999999814
0
LINE
8
BLACK
6
CONTINUOUS
10
208.1263840000000016
20
-148.3853639999999814
11
208.2216219999999964
21
-148.1948879999999917
0
LINE
8
BLACK
6
CONTINUOUS
10
208.2216219999999964
20
-148.1948879999999917
11
208.3168599999999913
21
-147.9091740000000073
0
LINE
8
BLACK
6
CONTINUOUS
10
208.3168599999999913
20
-147.9091740000000073
11
208.4120979999999861
21
-147.4329830000000072
0
LINE
8
BLACK
6
CONTINUOUS
10
208.4120979999999861
20
-147.4329830000000072
11
208.4120979999999861
21
-147.0520309999999995
0
LINE
8
BLACK
6
CONTINUOUS
10
208.4120979999999861
20
-147.0520309999999995
11
208.3168599999999913
21
-146.5758399999999995
0
LINE
8
BLACK
6
CONTINUOUS
10
208.3168599999999913
20
-146.5758399999999995
11
208.2216219999999964
21
-146.2901259999999866
0
LINE
8
BLACK
6
CONTINUOUS
10
208.2216219999999964
20
-146.2901259999999866
11
208.1263840000000016
21
-146.0996499999999969
0
LINE
8
BLACK
6
CONTINUOUS
10
208.1263840000000016
20
-146.0996499999999969
11
207.9359079999999835
21
-145.8139349999999865
0
LINE
8
BLACK
6
CONTINUOUS
10
207.9359079999999835
20
-145.8139349999999865
11
207.8406699999999887
21
-145.7186969999999917
0
CIRCLE
8
BLACK
10
139.2805149999999799
20
-150.2895739999999876
40
1.
0
LINE
8
BLACK
6
CONTINUOUS
10
142.7930450000000064
20
-149.3948879999999804
11
142.8882830000000013
21
-149.2996499999999855
0
LINE
8
BLACK
6
CONTINUOUS
10
142.8882830000000013
20
-149.2996499999999855
11
143.0787589999999909
21
-149.2044119999999907
0
LINE
8
BLACK
6
CONTINUOUS
10
143.0787589999999909
20
-149.2044119999999907
11
143.554949999999991
21
-149.2044119999999907
0
LINE
8
BLACK
6
CONTINUOUS
10
143.554949999999991
20
-149.2044119999999907
11
143.7454259999999806
21
-149.2996499999999855
0
LINE
8
BLACK
6
CONTINUOUS
10
143.7454259999999806
20
-149.2996499999999855
11
143.8406640000000039
21
-149.3948879999999804
0
LINE
8
BLACK
6
CONTINUOUS
10
143.8406640000000039
20
-149.3948879999999804
11
143.9359019999999987
21
-149.5853639999999984
0
LINE
8
BLACK
6
CONTINUOUS
10
143.9359019999999987
20
-149.5853639999999984
11
143.9359019999999987
21
-149.7758399999999881
0
LINE
8
BLACK
6
CONTINUOUS
10
143.9359019999999987
20
-149.7758399999999881
11
143.8406640000000039
21
-150.061554000000001
0
LINE
8
BLACK
6
CONTINUOUS
10
143.8406640000000039
20
-150.061554000000001
11
142.6978069999999832
21
-151.2044119999999907
0
LINE
8
BLACK
6
CONTINUOUS
10
142.6978069999999832
20
-151.2044119999999907
11
143.9359019999999987
21
-151.2044119999999907
0
LINE
8
BLACK
6
CONTINUOUS
10
144.7930450000000064
20
-151.0139350000000036
11
144.8882830000000013
21
-151.1091739999999959
0
LINE
8
BLACK
6
CONTINUOUS
10
144.8882830000000013
20
-151.1091739999999959
11
144.7930450000000064
21
-151.2044119999999907
0
LINE
8
BLACK
6
CONTINUOUS
10
144.7930450000000064
20
-151.2044119999999907
11
144.6978069999999832
21
-151.1091739999999959
0
LINE
8
BLACK
6
CONTINUOUS
10
144.6978069999999832
20
-151.1091739999999959
11
144.7930450000000064
21
-151.0139350000000036
0
LINE
8
BLACK
6
CONTINUOUS
10
144.7930450000000064
20
-151.0139350000000036
11
144.7930450000000064
21
-151.2044119999999907
0
LINE
8
BLACK
6
CONTINUOUS
10
146.6978069999999832
20
-149.2044119999999907
11
145.7454259999999806
21
-149.2044119999999907
0
LINE
8
BLACK
6
CONTINUOUS
10
145.7454259999999806
20
-149.2044119999999907
11
145.6501879999999858
21
-150.1567929999999933
0
LINE
8
BLACK
6
CONTINUOUS
10
145.6501879999999858
20
-150.1567929999999933
11
145.7454259999999806
21
-150.061554000000001
0
LINE
8
BLACK
6
CONTINUOUS
10
145.7454259999999806
20
-150.061554000000001
11
145.9359019999999987
21
-149.9663160000000062
0
LINE
8
BLACK
6
CONTINUOUS
10
145.9359019999999987
20
-149.9663160000000062
11
146.4120929999999987
21
-149.9663160000000062
0
LINE
8
BLACK
6
CONTINUOUS
10
146.4120929999999987
20
-149.9663160000000062
11
146.6025689999999884
21
-150.061554000000001
0
LINE
8
BLACK
6
CONTINUOUS
10
146.6025689999999884
20
-150.061554000000001
11
146.6978069999999832
21
-150.1567929999999933
0
LINE
8
BLACK
6
CONTINUOUS
10
146.6978069999999832
20
-150.1567929999999933
11
146.7930450000000064
21
-150.347268999999983
0
LINE
8
BLACK
6
CONTINUOUS
10
146.7930450000000064
20
-150.347268999999983
11
146.7930450000000064
21
-150.8234589999999855
0
LINE
8
BLACK
6
CONTINUOUS
10
146.7930450000000064
20
-150.8234589999999855
11
146.6978069999999832
21
-151.0139350000000036
0
LINE
8
BLACK
6
CONTINUOUS
10
146.6978069999999832
20
-151.0139350000000036
11
146.6025689999999884
21
-151.1091739999999959
0
LINE
8
BLACK
6
CONTINUOUS
10
146.6025689999999884
20
-151.1091739999999959
11
146.4120929999999987
21
-151.2044119999999907
0
LINE
8
BLACK
6
CONTINUOUS
10
146.4120929999999987
20
-151.2044119999999907
11
145.9359019999999987
21
-151.2044119999999907
0
LINE
8
BLACK
6
CONTINUOUS
10
145.9359019999999987
20
-151.2044119999999907
11
145.7454259999999806
21
-151.1091739999999959
0
LINE
8
BLACK
6
CONTINUOUS
10
145.7454259999999806
20
-151.1091739999999959
11
145.6501879999999858
21
-151.0139350000000036
0
LINE
8
BLACK
6
CONTINUOUS
10
148.0311399999999935
20
-149.2044119999999907
11
148.2216169999999806
21
-149.2044119999999907
0
LINE
8
BLACK
6
CONTINUOUS
10
148.2216169999999806
20
-149.2044119999999907
11
148.4120929999999987
21
-149.2996499999999855
0
LINE
8
BLACK
6
CONTINUOUS
10
148.4120929999999987
20
-149.2996499999999855
11
148.5073309999999935
21
-149.3948879999999804
0
LINE
8
BLACK
6
CONTINUOUS
10
148.5073309999999935
20
-149.3948879999999804
11
148.6025689999999884
21
-149.5853639999999984
0
LINE
8
BLACK
6
CONTINUOUS
10
148.6025689999999884
20
-149.5853639999999984
11
148.6978069999999832
21
-149.9663160000000062
0
LINE
8
BLACK
6
CONTINUOUS
10
148.6978069999999832
20
-149.9663160000000062
11
148.6978069999999832
21
-150.4425070000000062
0
LINE
8
BLACK
6
CONTINUOUS
10
148.6978069999999832
20
-150.4425070000000062
11
148.6025689999999884
21
-150.8234589999999855
0
LINE
8
BLACK
6
CONTINUOUS
10
148.6025689999999884
20
-150.8234589999999855
11
148.5073309999999935
21
-151.0139350000000036
0
LINE
8
BLACK
6
CONTINUOUS
10
148.5073309999999935
20
-151.0139350000000036
11
148.4120929999999987
21
-151.1091739999999959
0
LINE
8
BLACK
6
CONTINUOUS
10
148.4120929999999987
20
-151.1091739999999959
11
148.2216169999999806
21
-151.2044119999999907
0
LINE
8
BLACK
6
CONTINUOUS
10
148.2216169999999806
20
-151.2044119999999907
11
148.0311399999999935
21
-151.2044119999999907
0
LINE
8
BLACK
6
CONTINUOUS
10
148.0311399999999935
20
-151.2044119999999907
11
147.8406640000000039
21
-151.1091739999999959
0
LINE
8
BLACK
6
CONTINUOUS
10
147.8406640000000039
20
-151.1091739999999959
11
147.7454259999999806
21
-151.0139350000000036
0
LINE
8
BLACK
6
CONTINUOUS
10
147.7454259999999806
20
-151.0139350000000036
11
147.6501879999999858
21
-150.8234589999999855
0
LINE
8
BLACK
6
CONTINUOUS
10
147.6501879999999858
20
-150.8234589999999855
11
147.554949999999991
21
-150.4425070000000062
0
LINE
8
BLACK
6
CONTINUOUS
10
147.554949999999991
20
-150.4425070000000062
11
147.554949999999991
21
-149.9663160000000062
0
LINE
8
BLACK
6
CONTINUOUS
10
147.554949999999991
20
-149.9663160000000062
11
147.6501879999999858
21
-149.5853639999999984
0
LINE
8
BLACK
6
CONTINUOUS
10
147.6501879999999858
20
-149.5853639999999984
11
147.7454259999999806
21
-149.3948879999999804
0
LINE
8
BLACK
6
CONTINUOUS
10
147.7454259999999806
20
-149.3948879999999804
11
147.8406640000000039
21
-149.2996499999999855
0
LINE
8
BLACK
6
CONTINUOUS
10
147.8406640000000039
20
-149.2996499999999855
11
148.0311399999999935
21
-149.2044119999999907
0
LINE
8
BLACK
6
CONTINUOUS
10
149.9359019999999987
20
-149.2044119999999907
11
150.1263789999999858
21
-149.2044119999999907
0
LINE
8
BLACK
6
CONTINUOUS
10
150.1263789999999858
20
-149.2044119999999907
11
150.3168550000000039
21
-149.2996499999999855
0
LINE
8
BLACK
6
CONTINUOUS
10
150.3168550000000039
20
-149.2996499999999855
11
150.4120929999999987
21
-149.3948879999999804
0
LINE
8
BLACK
6
CONTINUOUS
10
150.4120929999999987
20
-149.3948879999999804
11
150.5073309999999935
21
-149.5853639999999984
0
LINE
8
BLACK
6
CONTINUOUS
10
150.5073309999999935
20
-149.5853639999999984
11
150.6025689999999884
21
-149.9663160000000062
0
LINE
8
BLACK
6
CONTINUOUS
10
150.6025689999999884
20
-149.9663160000000062
11
150.6025689999999884
21
-150.4425070000000062
0
LINE
8
BLACK
6
CONTINUOUS
10
150.6025689999999884
20
-150.4425070000000062
11
150.5073309999999935
21
-150.8234589999999855
0
LINE
8
BLACK
6
CONTINUOUS
10
150.5073309999999935
20
-150.8234589999999855
11
150.4120929999999987
21
-151.0139350000000036
0
LINE
8
BLACK
6
CONTINUOUS
10
150.4120929999999987
20
-151.0139350000000036
11
150.3168550000000039
21
-151.1091739999999959
0
LINE
8
BLACK
6
CONTINUOUS
10
150.3168550000000039
20
-151.1091739999999959
11
150.1263789999999858
21
-151.2044119999999907
0
LINE
8
BLACK
6
CONTINUOUS
10
150.1263789999999858
20
-151.2044119999999907
11
149.9359019999999987
21
-151.2044119999999907
0
LINE
8
BLACK
6
CONTINUOUS
10
149.9359019999999987
20
-151.2044119999999907
11
149.7454259999999806
21
-151.1091739999999959
0
LINE
8
BLACK
6
CONTINUOUS
10
149.7454259999999806
20
-151.1091739999999959
11
149.6501879999999858
21
-151.0139350000000036
0
LINE
8
BLACK
6
CONTINUOUS
10
149.6501879999999858
20
-151.0139350000000036
11
149.554949999999991
21
-150.8234589999999855
0
LINE
8
BLACK
6
CONTINUOUS
10
149.554949999999991
20
-150.8234589999999855
11
149.4597119999999961
21
-150.4425070000000062
0
LINE
8
BLACK
6
CONTINUOUS
10
149.4597119999999961
20
-150.4425070000000062
11
149.4597119999999961
21
-149.9663160000000062
0
LINE
8
BLACK
6
CONTINUOUS
10
149.4597119999999961
20
-149.9663160000000062
11
149.554949999999991
21
-149.5853639999999984
0
LINE
8
BLACK
6
CONTINUOUS
10
149.554949999999991
20
-149.5853639999999984
11
149.6501879999999858
21
-149.3948879999999804
0
LINE
8
BLACK
6
CONTINUOUS
10
149.6501879999999858
20
-149.3948879999999804
11
149.7454259999999806
21
-149.2996499999999855
0
LINE
8
BLACK
6
CONTINUOUS
10
149.7454259999999806
20
-149.2996499999999855
11
149.9359019999999987
21
-149.2044119999999907
0
LINE
8
BLACK
6
CONTINUOUS
10
151.4597119999999961
20
-151.2044119999999907
11
151.4597119999999961
21
-149.8710779999999829
0
LINE
8
BLACK
6
CONTINUOUS
10
151.4597119999999961
20
-150.061554000000001
11
151.554949999999991
21
-149.9663160000000062
0
LINE
8
BLACK
6
CONTINUOUS
10
151.554949999999991
20
-149.9663160000000062
11
151.7454259999999806
21
-149.8710779999999829
0
LINE
8
BLACK
6
CONTINUOUS
10
151.7454259999999806
20
-149.8710779999999829
11
152.031140999999991
21
-149.8710779999999829
0
LINE
8
BLACK
6
CONTINUOUS
10
152.031140999999991
20
-149.8710779999999829
11
152.2216169999999806
21
-149.9663160000000062
0
LINE
8
BLACK
6
CONTINUOUS
10
152.2216169999999806
20
-149.9663160000000062
11
152.3168550000000039
21
-150.1567929999999933
0
LINE
8
BLACK
6
CONTINUOUS
10
152.3168550000000039
20
-150.1567929999999933
11
152.3168550000000039
21
-151.2044119999999907
0
LINE
8
BLACK
6
CONTINUOUS
10
152.3168550000000039
20
-150.1567929999999933
11
152.4120929999999987
21
-149.9663160000000062
0
LINE
8
BLACK
6
CONTINUOUS
10
152.4120929999999987
20
-149.9663160000000062
11
152.6025689999999884
21
-149.8710779999999829
0
LINE
8
BLACK
6
CONTINUOUS
10
152.6025689999999884
20
-149.8710779999999829
11
152.8882830000000013
21
-149.8710779999999829
0
LINE
8
BLACK
6
CONTINUOUS
10
152.8882830000000013
20
-149.8710779999999829
11
153.0787599999999884
21
-149.9663160000000062
0
LINE
8
BLACK
6
CONTINUOUS
10
153.0787599999999884
20
-149.9663160000000062
11
153.1739979999999832
21
-150.1567929999999933
0
LINE
8
BLACK
6
CONTINUOUS
10
153.1739979999999832
20
-150.1567929999999933
11
153.1739979999999832
21
-151.2044119999999907
0
LINE
8
BLACK
6
CONTINUOUS
10
154.1263789999999858
20
-151.2044119999999907
11
154.1263789999999858
21
-149.8710779999999829
0
LINE
8
BLACK
6
CONTINUOUS
10
154.1263789999999858
20
-150.061554000000001
11
154.2216169999999806
21
-149.9663160000000062
0
LINE
8
BLACK
6
CONTINUOUS
10
154.2216169999999806
20
-149.9663160000000062
11
154.4120929999999987
21
-149.8710779999999829
0
LINE
8
BLACK
6
CONTINUOUS
10
154.4120929999999987
20
-149.8710779999999829
11
154.6978079999999807
21
-149.8710779999999829
0
LINE
8
BLACK
6
CONTINUOUS
10
154.6978079999999807
20
-149.8710779999999829
11
154.8882839999999987
21
-149.9663160000000062
0
LINE
8
BLACK
6
CONTINUOUS
10
154.8882839999999987
20
-149.9663160000000062
11
154.9835219999999936
21
-150.1567929999999933
0
LINE
8
BLACK
6
CONTINUOUS
10
154.9835219999999936
20
-150.1567929999999933
11
154.9835219999999936
21
-151.2044119999999907
0
LINE
8
BLACK
6
CONTINUOUS
10
154.9835219999999936
20
-150.1567929999999933
11
155.0787599999999884
21
-149.9663160000000062
0
LINE
8
BLACK
6
CONTINUOUS
10
155.0787599999999884
20
-149.9663160000000062
11
155.2692360000000065
21
-149.8710779999999829
0
LINE
8
BLACK
6
CONTINUOUS
10
155.2692360000000065
20
-149.8710779999999829
11
155.554949999999991
21
-149.8710779999999829
0
LINE
8
BLACK
6
CONTINUOUS
10
155.554949999999991
20
-149.8710779999999829
11
155.7454270000000065
21
-149.9663160000000062
0
LINE
8
BLACK
6
CONTINUOUS
10
155.7454270000000065
20
-149.9663160000000062
11
155.8406650000000013
21
-150.1567929999999933
0
LINE
8
BLACK
6
CONTINUOUS
10
155.8406650000000013
20
-150.1567929999999933
11
155.8406650000000013
21
-151.2044119999999907
0
LINE
8
BLACK
6
CONTINUOUS
10
159.7454270000000065
20
-149.1091739999999959
11
158.0311419999999885
21
-151.6806019999999933
0
LINE
8
BLACK
6
CONTINUOUS
10
162.3168560000000014
20
-149.2044119999999907
11
162.5073329999999885
21
-149.2044119999999907
0
LINE
8
BLACK
6
CONTINUOUS
10
162.5073329999999885
20
-149.2044119999999907
11
162.6978090000000066
21
-149.2996499999999855
0
LINE
8
BLACK
6
CONTINUOUS
10
162.6978090000000066
20
-149.2996499999999855
11
162.7930470000000014
21
-149.3948879999999804
0
LINE
8
BLACK
6
CONTINUOUS
10
162.7930470000000014
20
-149.3948879999999804
11
162.8882849999999962
21
-149.5853639999999984
0
LINE
8
BLACK
6
CONTINUOUS
10
162.8882849999999962
20
-149.5853639999999984
11
162.983522999999991
21
-149.9663160000000062
0
LINE
8
BLACK
6
CONTINUOUS
10
162.983522999999991
20
-149.9663160000000062
11
162.983522999999991
21
-150.4425070000000062
0
LINE
8
BLACK
6
CONTINUOUS
10
162.983522999999991
20
-150.4425070000000062
11
162.8882849999999962
21
-150.8234589999999855
0
LINE
8
BLACK
6
CONTINUOUS
10
162.8882849999999962
20
-150.8234589999999855
11
162.7930470000000014
21
-151.0139350000000036
0
LINE
8
BLACK
6
CONTINUOUS
10
162.7930470000000014
20
-151.0139350000000036
11
162.6978090000000066
21
-151.1091739999999959
0
LINE
8
BLACK
6
CONTINUOUS
10
162.6978090000000066
20
-151.1091739999999959
11
162.5073329999999885
21
-151.2044119999999907
0
LINE
8
BLACK
6
CONTINUOUS
10
162.5073329999999885
20
-151.2044119999999907
11
162.3168560000000014
21
-151.2044119999999907
0
LINE
8
BLACK
6
CONTINUOUS
10
162.3168560000000014
20
-151.2044119999999907
11
162.1263799999999833
21
-151.1091739999999959
0
LINE
8
BLACK
6
CONTINUOUS
10
162.1263799999999833
20
-151.1091739999999959
11
162.0311419999999885
21
-151.0139350000000036
0
LINE
8
BLACK
6
CONTINUOUS
10
162.0311419999999885
20
-151.0139350000000036
11
161.9359039999999936
21
-150.8234589999999855
0
LINE
8
BLACK
6
CONTINUOUS
10
161.9359039999999936
20
-150.8234589999999855
11
161.8406659999999988
21
-150.4425070000000062
0
LINE
8
BLACK
6
CONTINUOUS
10
161.8406659999999988
20
-150.4425070000000062
11
161.8406659999999988
21
-149.9663160000000062
0
LINE
8
BLACK
6
CONTINUOUS
10
161.8406659999999988
20
-149.9663160000000062
11
161.9359039999999936
21
-149.5853639999999984
0
LINE
8
BLACK
6
CONTINUOUS
10
161.9359039999999936
20
-149.5853639999999984
11
162.0311419999999885
21
-149.3948879999999804
0
LINE
8
BLACK
6
CONTINUOUS
10
162.0311419999999885
20
-149.3948879999999804
11
162.1263799999999833
21
-149.2996499999999855
0
LINE
8
BLACK
6
CONTINUOUS
10
162.1263799999999833
20
-149.2996499999999855
11
162.3168560000000014
21
-149.2044119999999907
0
LINE
8
BLACK
6
CONTINUOUS
10
163.8406659999999988
20
-151.0139350000000036
11
163.9359039999999936
21
-151.1091739999999959
0
LINE
8
BLACK
6
CONTINUOUS
10
163.9359039999999936
20
-151.1091739999999959
11
163.8406659999999988
21
-151.2044119999999907
0
LINE
8
BLACK
6
CONTINUOUS
10
163.8406659999999988
20
-151.2044119999999907
11
163.745428000000004
21
-151.1091739999999959
0
LINE
8
BLACK
6
CONTINUOUS
10
163.745428000000004
20
-151.1091739999999959
11
163.8406659999999988
21
-151.0139350000000036
0
LINE
8
BLACK
6
CONTINUOUS
10
163.8406659999999988
20
-151.0139350000000036
11
163.8406659999999988
21
-151.2044119999999907
0
LINE
8
BLACK
6
CONTINUOUS
10
165.1739989999999807
20
-149.2044119999999907
11
165.3644759999999962
21
-149.2044119999999907
0
LINE
8
BLACK
6
CONTINUOUS
10
165.3644759999999962
20
-149.2044119999999907
11
165.5549519999999859
21
-149.2996499999999855
0
LINE
8
BLACK
6
CONTINUOUS
10
165.5549519999999859
20
-149.2996499999999855
11
165.6501899999999807
21
-149.3948879999999804
0
LINE
8
BLACK
6
CONTINUOUS
10
165.6501899999999807
20
-149.3948879999999804
11
165.745428000000004
21
-149.5853639999999984
0
LINE
8
BLACK
6
CONTINUOUS
10
165.745428000000004
20
-149.5853639999999984
11
165.8406659999999988
21
-149.9663160000000062
0
LINE
8
BLACK
6
CONTINUOUS
10
165.8406659999999988
20
-149.9663160000000062
11
165.8406659999999988
21
-150.4425070000000062
0
LINE
8
BLACK
6
CONTINUOUS
10
165.8406659999999988
20
-150.4425070000000062
11
165.745428000000004
21
-150.8234589999999855
0
LINE
8
BLACK
6
CONTINUOUS
10
165.745428000000004
20
-150.8234589999999855
11
165.6501899999999807
21
-151.0139350000000036
0
LINE
8
BLACK
6
CONTINUOUS
10
165.6501899999999807
20
-151.0139350000000036
11
165.5549519999999859
21
-151.1091739999999959
0
LINE
8
BLACK
6
CONTINUOUS
10
165.5549519999999859
20
-151.1091739999999959
11
165.3644759999999962
21
-151.2044119999999907
0
LINE
8
BLACK
6
CONTINUOUS
10
165.3644759999999962
20
-151.2044119999999907
11
165.1739989999999807
21
-151.2044119999999907
0
LINE
8
BLACK
6
CONTINUOUS
10
165.1739989999999807
20
-151.2044119999999907
11
164.983522999999991
21
-151.1091739999999959
0
LINE
8
BLACK
6
CONTINUOUS
10
164.983522999999991
20
-151.1091739999999959
11
164.8882849999999962
21
-151.0139350000000036
0
LINE
8
BLACK
6
CONTINUOUS
10
164.8882849999999962
20
-151.0139350000000036
11
164.7930470000000014
21
-150.8234589999999855
0
LINE
8
BLACK
6
CONTINUOUS
10
164.7930470000000014
20
-150.8234589999999855
11
164.6978090000000066
21
-150.4425070000000062
0
LINE
8
BLACK
6
CONTINUOUS
10
164.6978090000000066
20
-150.4425070000000062
11
164.6978090000000066
21
-149.9663160000000062
0
LINE
8
BLACK
6
CONTINUOUS
10
164.6978090000000066
20
-149.9663160000000062
11
164.7930470000000014
21
-149.5853639999999984
0
LINE
8
BLACK
6
CONTINUOUS
10
164.7930470000000014
20
-149.5853639999999984
11
164.8882849999999962
21
-149.3948879999999804
0
LINE
8
BLACK
6
CONTINUOUS
10
164.8882849999999962
20
-149.3948879999999804
11
164.983522999999991
21
-149.2996499999999855
0
LINE
8
BLACK
6
CONTINUOUS
10
164.983522999999991
20
-149.2996499999999855
11
165.1739989999999807
21
-149.2044119999999907
0
LINE
8
BLACK
6
CONTINUOUS
10
166.7930470000000014
20
-151.2044119999999907
11
167.1739989999999807
21
-151.2044119999999907
0
LINE
8
BLACK
6
CONTINUOUS
10
167.1739989999999807
20
-151.2044119999999907
11
167.3644759999999962
21
-151.1091739999999959
0
LINE
8
BLACK
6
CONTINUOUS
10
167.3644759999999962
20
-151.1091739999999959
11
167.4597139999999911
21
-151.0139350000000036
0
LINE
8
BLACK
6
CONTINUOUS
10
167.4597139999999911
20
-151.0139350000000036
11
167.6501899999999807
21
-150.7282209999999907
0
LINE
8
BLACK
6
CONTINUOUS
10
167.6501899999999807
20
-150.7282209999999907
11
167.745428000000004
21
-150.347268999999983
0
LINE
8
BLACK
6
CONTINUOUS
10
167.745428000000004
20
-150.347268999999983
11
167.745428000000004
21
-149.5853639999999984
0
LINE
8
BLACK
6
CONTINUOUS
10
167.745428000000004
20
-149.5853639999999984
11
167.6501899999999807
21
-149.3948879999999804
0
LINE
8
BLACK
6
CONTINUOUS
10
167.6501899999999807
20
-149.3948879999999804
11
167.5549519999999859
21
-149.2996499999999855
0
LINE
8
BLACK
6
CONTINUOUS
10
167.5549519999999859
20
-149.2996499999999855
11
167.3644759999999962
21
-149.2044119999999907
0
LINE
8
BLACK
6
CONTINUOUS
10
167.3644759999999962
20
-149.2044119999999907
11
166.983522999999991
21
-149.2044119999999907
0
LINE
8
BLACK
6
CONTINUOUS
10
166.983522999999991
20
-149.2044119999999907
11
166.7930470000000014
21
-149.2996499999999855
0
LINE
8
BLACK
6
CONTINUOUS
10
166.7930470000000014
20
-149.2996499999999855
11
166.6978090000000066
21
-149.3948879999999804
0
LINE
8
BLACK
6
CONTINUOUS
10
166.6978090000000066
20
-149.3948879999999804
11
166.6025709999999833
21
-149.5853639999999984
0
LINE
8
BLACK
6
CONTINUOUS
10
166.6025709999999833
20
-149.5853639999999984
11
166.6025709999999833
21
-150.061554000000001
0
LINE
8
BLACK
6
CONTINUOUS
10
166.6025709999999833
20
-150.061554000000001
11
166.6978090000000066
21
-150.2520309999999881
0
LINE
8
BLACK
6
CONTINUOUS
10
166.6978090000000066
20
-150.2520309999999881
11
166.7930470000000014
21
-150.347268999999983
0
LINE
8
BLACK
6
CONTINUOUS
10
166.7930470000000014
20
-150.347268999999983
11
166.983522999999991
21
-150.4425070000000062
0
LINE
8
BLACK
6
CONTINUOUS
10
166.983522999999991
20
-150.4425070000000062
11
167.3644759999999962
21
-150.4425070000000062
0
LINE
8
BLACK
6
CONTINUOUS
10
167.3644759999999962
20
-150.4425070000000062
11
167.5549519999999859
21
-150.347268999999983
0
LINE
8
BLACK
6
CONTINUOUS
10
167.5549519999999859
20
-150.347268999999983
11
167.6501899999999807
21
-150.2520309999999881
0
LINE
8
BLACK
6
CONTINUOUS
10
167.6501899999999807
20
-150.2520309999999881
11
167.745428000000004
21
-150.061554000000001
0
LINE
8
BLACK
6
CONTINUOUS
10
168.8882849999999962
20
-150.061554000000001
11
168.6978090000000066
21
-149.9663160000000062
0
LINE
8
BLACK
6
CONTINUOUS
10
168.6978090000000066
20
-149.9663160000000062
11
168.6025709999999833
21
-149.8710779999999829
0
LINE
8
BLACK
6
CONTINUOUS
10
168.6025709999999833
20
-149.8710779999999829
11
168.5073329999999885
21
-149.6806019999999933
0
LINE
8
BLACK
6
CONTINUOUS
10
168.5073329999999885
20
-149.6806019999999933
11
168.5073329999999885
21
-149.5853639999999984
0
LINE
8
BLACK
6
CONTINUOUS
10
168.5073329999999885
20
-149.5853639999999984
11
168.6025709999999833
21
-149.3948879999999804
0
LINE
8
BLACK
6
CONTINUOUS
10
168.6025709999999833
20
-149.3948879999999804
11
168.6978090000000066
21
-149.2996499999999855
0
LINE
8
BLACK
6
CONTINUOUS
10
168.6978090000000066
20
-149.2996499999999855
11
168.8882849999999962
21
-149.2044119999999907
0
LINE
8
BLACK
6
CONTINUOUS
10
168.8882849999999962
20
-149.2044119999999907
11
169.2692380000000014
21
-149.2044119999999907
0
LINE
8
BLACK
6
CONTINUOUS
10
169.2692380000000014
20
-149.2044119999999907
11
169.4597139999999911
21
-149.2996499999999855
0
LINE
8
BLACK
6
CONTINUOUS
10
169.4597139999999911
20
-149.2996499999999855
11
169.5549519999999859
21
-149.3948879999999804
0
LINE
8
BLACK
6
CONTINUOUS
10
169.5549519999999859
20
-149.3948879999999804
11
169.6501899999999807
21
-149.5853639999999984
0
LINE
8
BLACK
6
CONTINUOUS
10
169.6501899999999807
20
-149.5853639999999984
11
169.6501899999999807
21
-149.6806019999999933
0
LINE
8
BLACK
6
CONTINUOUS
10
169.6501899999999807
20
-149.6806019999999933
11
169.5549519999999859
21
-149.8710779999999829
0
LINE
8
BLACK
6
CONTINUOUS
10
169.5549519999999859
20
-149.8710779999999829
11
169.4597139999999911
21
-149.9663160000000062
0
LINE
8
BLACK
6
CONTINUOUS
10
169.4597139999999911
20
-149.9663160000000062
11
169.2692380000000014
21
-150.061554000000001
0
LINE
8
BLACK
6
CONTINUOUS
10
169.2692380000000014
20
-150.061554000000001
11
168.8882849999999962
21
-150.061554000000001
0
LINE
8
BLACK
6
CONTINUOUS
10
168.8882849999999962
20
-150.061554000000001
11
168.6978090000000066
21
-150.1567929999999933
0
LINE
8
BLACK
6
CONTINUOUS
10
168.6978090000000066
20
-150.1567929999999933
11
168.6025709999999833
21
-150.2520309999999881
0
LINE
8
BLACK
6
CONTINUOUS
10
168.6025709999999833
20
-150.2520309999999881
11
168.5073329999999885
21
-150.4425070000000062
0
LINE
8
BLACK
6
CONTINUOUS
10
168.5073329999999885
20
-150.4425070000000062
11
168.5073329999999885
21
-150.8234589999999855
0
LINE
8
BLACK
6
CONTINUOUS
10
168.5073329999999885
20
-150.8234589999999855
11
168.6025709999999833
21
-151.0139350000000036
0
LINE
8
BLACK
6
CONTINUOUS
10
168.6025709999999833
20
-151.0139350000000036
11
168.6978090000000066
21
-151.1091739999999959
0
LINE
8
BLACK
6
CONTINUOUS
10
168.6978090000000066
20
-151.1091739999999959
11
168.8882849999999962
21
-151.2044119999999907
0
LINE
8
BLACK
6
CONTINUOUS
10
168.8882849999999962
20
-151.2044119999999907
11
169.2692380000000014
21
-151.2044119999999907
0
LINE
8
BLACK
6
CONTINUOUS
10
169.2692380000000014
20
-151.2044119999999907
11
169.4597139999999911
21
-151.1091739999999959
0
LINE
8
BLACK
6
CONTINUOUS
10
169.4597139999999911
20
-151.1091739999999959
11
169.5549519999999859
21
-151.0139350000000036
0
LINE
8
BLACK
6
CONTINUOUS
10
169.5549519999999859
20
-151.0139350000000036
11
169.6501899999999807
21
-150.8234589999999855
0
LINE
8
BLACK
6
CONTINUOUS
10
169.6501899999999807
20
-150.8234589999999855
11
169.6501899999999807
21
-150.4425070000000062
0
LINE
8
BLACK
6
CONTINUOUS
10
169.6501899999999807
20
-150.4425070000000062
11
169.5549519999999859
21
-150.2520309999999881
0
LINE
8
BLACK
6
CONTINUOUS
10
169.5549519999999859
20
-150.2520309999999881
11
169.4597139999999911
21
-150.1567929999999933
0
LINE
8
BLACK
6
CONTINUOUS
10
169.4597139999999911
20
-150.1567929999999933
11
169.2692380000000014
21
-150.061554000000001
0
LINE
8
BLACK
6
CONTINUOUS
10
171.3644759999999962
20
-149.8710779999999829
11
171.3644759999999962
21
-151.2044119999999907
0
LINE
8
BLACK
6
CONTINUOUS
10
170.8882849999999962
20
-149.1091739999999959
11
170.4120949999999937
21
-150.537745000000001
0
LINE
8
BLACK
6
CONTINUOUS
10
170.4120949999999937
20
-150.537745000000001
11
171.6501899999999807
21
-150.537745000000001
0
LINE
8
BLACK
6
CONTINUOUS
10
172.3168569999999988
20
-149.2044119999999907
11
172.3168569999999988
21
-149.5853639999999984
0
LINE
8
BLACK
6
CONTINUOUS
10
173.0787619999999833
20
-149.2044119999999907
11
173.0787619999999833
21
-149.5853639999999984
0
LINE
8
BLACK
6
CONTINUOUS
10
176.0311439999999834
20
-151.9663160000000062
11
175.9359049999999911
21
-151.8710779999999829
0
LINE
8
BLACK
6
CONTINUOUS
10
175.9359049999999911
20
-151.8710779999999829
11
175.7454290000000015
21
-151.5853639999999984
0
LINE
8
BLACK
6
CONTINUOUS
10
175.7454290000000015
20
-151.5853639999999984
11
175.6501909999999782
21
-151.3948879999999804
0
LINE
8
BLACK
6
CONTINUOUS
10
175.6501909999999782
20
-151.3948879999999804
11
175.5549529999999834
21
-151.1091739999999959
0
LINE
8
BLACK
6
CONTINUOUS
10
175.5549529999999834
20
-151.1091739999999959
11
175.4597149999999885
21
-150.6329829999999959
0
LINE
8
BLACK
6
CONTINUOUS
10
175.4597149999999885
20
-150.6329829999999959
11
175.4597149999999885
21
-150.2520309999999881
0
LINE
8
BLACK
6
CONTINUOUS
10
175.4597149999999885
20
-150.2520309999999881
11
175.5549529999999834
21
-149.7758399999999881
0
LINE
8
BLACK
6
CONTINUOUS
10
175.5549529999999834
20
-149.7758399999999881
11
175.6501909999999782
21
-149.4901260000000036
0
LINE
8
BLACK
6
CONTINUOUS
10
175.6501909999999782
20
-149.4901260000000036
11
175.7454290000000015
21
-149.2996499999999855
0
LINE
8
BLACK
6
CONTINUOUS
10
175.7454290000000015
20
-149.2996499999999855
11
175.9359049999999911
21
-149.0139350000000036
0
LINE
8
BLACK
6
CONTINUOUS
10
175.9359049999999911
20
-149.0139350000000036
11
176.0311439999999834
21
-148.9186969999999803
0
LINE
8
BLACK
6
CONTINUOUS
10
176.697810000000004
20
-149.3948879999999804
11
176.7930479999999989
21
-149.2996499999999855
0
LINE
8
BLACK
6
CONTINUOUS
10
176.7930479999999989
20
-149.2996499999999855
11
176.9835239999999885
21
-149.2044119999999907
0
LINE
8
BLACK
6
CONTINUOUS
10
176.9835239999999885
20
-149.2044119999999907
11
177.4597149999999885
21
-149.2044119999999907
0
LINE
8
BLACK
6
CONTINUOUS
10
177.4597149999999885
20
-149.2044119999999907
11
177.6501909999999782
21
-149.2996499999999855
0
LINE
8
BLACK
6
CONTINUOUS
10
177.6501909999999782
20
-149.2996499999999855
11
177.7454290000000015
21
-149.3948879999999804
0
LINE
8
BLACK
6
CONTINUOUS
10
177.7454290000000015
20
-149.3948879999999804
11
177.8406669999999963
21
-149.5853639999999984
0
LINE
8
BLACK
6
CONTINUOUS
10
177.8406669999999963
20
-149.5853639999999984
11
177.8406669999999963
21
-149.7758399999999881
0
LINE
8
BLACK
6
CONTINUOUS
10
177.8406669999999963
20
-149.7758399999999881
11
177.7454290000000015
21
-150.061554000000001
0
LINE
8
BLACK
6
CONTINUOUS
10
177.7454290000000015
20
-150.061554000000001
11
176.6025719999999808
21
-151.2044119999999907
0
LINE
8
BLACK
6
CONTINUOUS
10
176.6025719999999808
20
-151.2044119999999907
11
177.8406669999999963
21
-151.2044119999999907
0
LINE
8
BLACK
6
CONTINUOUS
10
180.2216200000000015
20
-151.2044119999999907
11
180.2216200000000015
21
-149.2044119999999907
0
LINE
8
BLACK
6
CONTINUOUS
10
181.0787629999999808
20
-151.2044119999999907
11
181.0787629999999808
21
-150.1567929999999933
0
LINE
8
BLACK
6
CONTINUOUS
10
181.0787629999999808
20
-150.1567929999999933
11
180.983524999999986
21
-149.9663160000000062
0
LINE
8
BLACK
6
CONTINUOUS
10
180.983524999999986
20
-149.9663160000000062
11
180.7930489999999963
21
-149.8710779999999829
0
LINE
8
BLACK
6
CONTINUOUS
10
180.7930489999999963
20
-149.8710779999999829
11
180.507333999999986
21
-149.8710779999999829
0
LINE
8
BLACK
6
CONTINUOUS
10
180.507333999999986
20
-149.8710779999999829
11
180.3168579999999963
21
-149.9663160000000062
0
LINE
8
BLACK
6
CONTINUOUS
10
180.3168579999999963
20
-149.9663160000000062
11
180.2216200000000015
21
-150.061554000000001
0
LINE
8
BLACK
6
CONTINUOUS
10
182.3168579999999963
20
-151.2044119999999907
11
182.1263819999999782
21
-151.1091739999999959
0
LINE
8
BLACK
6
CONTINUOUS
10
182.1263819999999782
20
-151.1091739999999959
11
182.0311439999999834
21
-151.0139350000000036
0
LINE
8
BLACK
6
CONTINUOUS
10
182.0311439999999834
20
-151.0139350000000036
11
181.9359059999999886
21
-150.8234589999999855
0
LINE
8
BLACK
6
CONTINUOUS
10
181.9359059999999886
20
-150.8234589999999855
11
181.9359059999999886
21
-150.2520309999999881
0
LINE
8
BLACK
6
CONTINUOUS
10
181.9359059999999886
20
-150.2520309999999881
11
182.0311439999999834
21
-150.061554000000001
0
LINE
8
BLACK
6
CONTINUOUS
10
182.0311439999999834
20
-150.061554000000001
11
182.1263819999999782
21
-149.9663160000000062
0
LINE
8
BLACK
6
CONTINUOUS
10
182.1263819999999782
20
-149.9663160000000062
11
182.3168579999999963
21
-149.8710779999999829
0
LINE
8
BLACK
6
CONTINUOUS
10
182.3168579999999963
20
-149.8710779999999829
11
182.6025729999999783
21
-149.8710779999999829
0
LINE
8
BLACK
6
CONTINUOUS
10
182.6025729999999783
20
-149.8710779999999829
11
182.7930489999999963
21
-149.9663160000000062
0
LINE
8
BLACK
6
CONTINUOUS
10
182.7930489999999963
20
-149.9663160000000062
11
182.8882869999999912
21
-150.061554000000001
0
LINE
8
BLACK
6
CONTINUOUS
10
182.8882869999999912
20
-150.061554000000001
11
182.983524999999986
21
-150.2520309999999881
0
LINE
8
BLACK
6
CONTINUOUS
10
182.983524999999986
20
-150.2520309999999881
11
182.983524999999986
21
-150.8234589999999855
0
LINE
8
BLACK
6
CONTINUOUS
10
182.983524999999986
20
-150.8234589999999855
11
182.8882869999999912
21
-151.0139350000000036
0
LINE
8
BLACK
6
CONTINUOUS
10
182.8882869999999912
20
-151.0139350000000036
11
182.7930489999999963
21
-151.1091739999999959
0
LINE
8
BLACK
6
CONTINUOUS
10
182.7930489999999963
20
-151.1091739999999959
11
182.6025729999999783
21
-151.2044119999999907
0
LINE
8
BLACK
6
CONTINUOUS
10
182.6025729999999783
20
-151.2044119999999907
11
182.3168579999999963
21
-151.2044119999999907
0
LINE
8
BLACK
6
CONTINUOUS
10
184.1263819999999782
20
-151.2044119999999907
11
183.9359059999999886
21
-151.1091739999999959
0
LINE
8
BLACK
6
CONTINUOUS
10
183.9359059999999886
20
-151.1091739999999959
11
183.8406679999999938
21
-150.9186969999999803
0
LINE
8
BLACK
6
CONTINUOUS
10
183.8406679999999938
20
-150.9186969999999803
11
183.8406679999999938
21
-149.2044119999999907
0
LINE
8
BLACK
6
CONTINUOUS
10
185.6501920000000041
20
-151.1091739999999959
11
185.459715999999986
21
-151.2044119999999907
0
LINE
8
BLACK
6
CONTINUOUS
10
185.459715999999986
20
-151.2044119999999907
11
185.0787629999999808
21
-151.2044119999999907
0
LINE
8
BLACK
6
CONTINUOUS
10
185.0787629999999808
20
-151.2044119999999907
11
184.8882869999999912
21
-151.1091739999999959
0
LINE
8
BLACK
6
CONTINUOUS
10
184.8882869999999912
20
-151.1091739999999959
11
184.7930489999999963
21
-150.9186969999999803
0
LINE
8
BLACK
6
CONTINUOUS
10
184.7930489999999963
20
-150.9186969999999803
11
184.7930489999999963
21
-150.1567929999999933
0
LINE
8
BLACK
6
CONTINUOUS
10
184.7930489999999963
20
-150.1567929999999933
11
184.8882869999999912
21
-149.9663160000000062
0
LINE
8
BLACK
6
CONTINUOUS
10
184.8882869999999912
20
-149.9663160000000062
11
185.0787629999999808
21
-149.8710779999999829
0
LINE
8
BLACK
6
CONTINUOUS
10
185.0787629999999808
20
-149.8710779999999829
11
185.459715999999986
21
-149.8710779999999829
0
LINE
8
BLACK
6
CONTINUOUS
10
185.459715999999986
20
-149.8710779999999829
11
185.6501920000000041
21
-149.9663160000000062
0
LINE
8
BLACK
6
CONTINUOUS
10
185.6501920000000041
20
-149.9663160000000062
11
185.7454299999999989
21
-150.1567929999999933
0
LINE
8
BLACK
6
CONTINUOUS
10
185.7454299999999989
20
-150.1567929999999933
11
185.7454299999999989
21
-150.347268999999983
0
LINE
8
BLACK
6
CONTINUOUS
10
185.7454299999999989
20
-150.347268999999983
11
184.7930489999999963
21
-150.537745000000001
0
LINE
8
BLACK
6
CONTINUOUS
10
186.5073349999999834
20
-151.1091739999999959
11
186.6978110000000015
21
-151.2044119999999907
0
LINE
8
BLACK
6
CONTINUOUS
10
186.6978110000000015
20
-151.2044119999999907
11
187.0787629999999808
21
-151.2044119999999907
0
LINE
8
BLACK
6
CONTINUOUS
10
187.0787629999999808
20
-151.2044119999999907
11
187.2692399999999964
21
-151.1091739999999959
0
LINE
8
BLACK
6
CONTINUOUS
10
187.2692399999999964
20
-151.1091739999999959
11
187.3644779999999912
21
-150.9186969999999803
0
LINE
8
BLACK
6
CONTINUOUS
10
187.3644779999999912
20
-150.9186969999999803
11
187.3644779999999912
21
-150.8234589999999855
0
LINE
8
BLACK
6
CONTINUOUS
10
187.3644779999999912
20
-150.8234589999999855
11
187.2692399999999964
21
-150.6329829999999959
0
LINE
8
BLACK
6
CONTINUOUS
10
187.2692399999999964
20
-150.6329829999999959
11
187.0787629999999808
21
-150.537745000000001
0
LINE
8
BLACK
6
CONTINUOUS
10
187.0787629999999808
20
-150.537745000000001
11
186.7930489999999963
21
-150.537745000000001
0
LINE
8
BLACK
6
CONTINUOUS
10
186.7930489999999963
20
-150.537745000000001
11
186.6025729999999783
21
-150.4425070000000062
0
LINE
8
BLACK
6
CONTINUOUS
10
186.6025729999999783
20
-150.4425070000000062
11
186.5073349999999834
21
-150.2520309999999881
0
LINE
8
BLACK
6
CONTINUOUS
10
186.5073349999999834
20
-150.2520309999999881
11
186.5073349999999834
21
-150.1567929999999933
0
LINE
8
BLACK
6
CONTINUOUS
10
186.5073349999999834
20
-150.1567929999999933
11
186.6025729999999783
21
-149.9663160000000062
0
LINE
8
BLACK
6
CONTINUOUS
10
186.6025729999999783
20
-149.9663160000000062
11
186.7930489999999963
21
-149.8710779999999829
0
LINE
8
BLACK
6
CONTINUOUS
10
186.7930489999999963
20
-149.8710779999999829
11
187.0787629999999808
21
-149.8710779999999829
0
LINE
8
BLACK
6
CONTINUOUS
10
187.0787629999999808
20
-149.8710779999999829
11
187.2692399999999964
21
-149.9663160000000062
0
LINE
8
BLACK
6
CONTINUOUS
10
188.0311449999999809
20
-151.9663160000000062
11
188.1263830000000041
21
-151.8710779999999829
0
LINE
8
BLACK
6
CONTINUOUS
10
188.1263830000000041
20
-151.8710779999999829
11
188.3168589999999938
21
-151.5853639999999984
0
LINE
8
BLACK
6
CONTINUOUS
10
188.3168589999999938
20
-151.5853639999999984
11
188.4120969999999886
21
-151.3948879999999804
0
LINE
8
BLACK
6
CONTINUOUS
10
188.4120969999999886
20
-151.3948879999999804
11
188.5073349999999834
21
-151.1091739999999959
0
LINE
8
BLACK
6
CONTINUOUS
10
188.5073349999999834
20
-151.1091739999999959
11
188.6025729999999783
21
-150.6329829999999959
0
LINE
8
BLACK
6
CONTINUOUS
10
188.6025729999999783
20
-150.6329829999999959
11
188.6025729999999783
21
-150.2520309999999881
0
LINE
8
BLACK
6
CONTINUOUS
10
188.6025729999999783
20
-150.2520309999999881
11
188.5073349999999834
21
-149.7758399999999881
0
LINE
8
BLACK
6
CONTINUOUS
10
188.5073349999999834
20
-149.7758399999999881
11
188.4120969999999886
21
-149.4901260000000036
0
LINE
8
BLACK
6
CONTINUOUS
10
188.4120969999999886
20
-149.4901260000000036
11
188.3168589999999938
21
-149.2996499999999855
0
LINE
8
BLACK
6
CONTINUOUS
10
188.3168589999999938
20
-149.2996499999999855
11
188.1263830000000041
21
-149.0139350000000036
0
LINE
8
BLACK
6
CONTINUOUS
10
188.1263830000000041
20
-149.0139350000000036
11
188.0311449999999809
21
-148.9186969999999803
0
LINE
8
BLACK
6
CONTINUOUS
10
191.6501930000000016
20
-151.9663160000000062
11
191.5549539999999809
21
-151.8710779999999829
0
LINE
8
BLACK
6
CONTINUOUS
10
191.5549539999999809
20
-151.8710779999999829
11
191.3644779999999912
21
-151.5853639999999984
0
LINE
8
BLACK
6
CONTINUOUS
10
191.3644779999999912
20
-151.5853639999999984
11
191.2692399999999964
21
-151.3948879999999804
0
LINE
8
BLACK
6
CONTINUOUS
10
191.2692399999999964
20
-151.3948879999999804
11
191.1740020000000015
21
-151.1091739999999959
0
LINE
8
BLACK
6
CONTINUOUS
10
191.1740020000000015
20
-151.1091739999999959
11
191.0787639999999783
21
-150.6329829999999959
0
LINE
8
BLACK
6
CONTINUOUS
10
191.0787639999999783
20
-150.6329829999999959
11
191.0787639999999783
21
-150.2520309999999881
0
LINE
8
BLACK
6
CONTINUOUS
10
191.0787639999999783
20
-150.2520309999999881
11
191.1740020000000015
21
-149.7758399999999881
0
LINE
8
BLACK
6
CONTINUOUS
10
191.1740020000000015
20
-149.7758399999999881
11
191.2692399999999964
21
-149.4901260000000036
0
LINE
8
BLACK
6
CONTINUOUS
10
191.2692399999999964
20
-149.4901260000000036
11
191.3644779999999912
21
-149.2996499999999855
0
LINE
8
BLACK
6
CONTINUOUS
10
191.3644779999999912
20
-149.2996499999999855
11
191.5549539999999809
21
-149.0139350000000036
0
LINE
8
BLACK
6
CONTINUOUS
10
191.5549539999999809
20
-149.0139350000000036
11
191.6501930000000016
21
-148.9186969999999803
0
LINE
8
BLACK
6
CONTINUOUS
10
192.4120969999999886
20
-149.8710779999999829
11
192.4120969999999886
21
-151.2044119999999907
0
LINE
8
BLACK
6
CONTINUOUS
10
192.4120969999999886
20
-150.061554000000001
11
192.5073349999999834
21
-149.9663160000000062
0
LINE
8
BLACK
6
CONTINUOUS
10
192.5073349999999834
20
-149.9663160000000062
11
192.6978110000000015
21
-149.8710779999999829
0
LINE
8
BLACK
6
CONTINUOUS
10
192.6978110000000015
20
-149.8710779999999829
11
192.9835259999999835
21
-149.8710779999999829
0
LINE
8
BLACK
6
CONTINUOUS
10
192.9835259999999835
20
-149.8710779999999829
11
193.1740020000000015
21
-149.9663160000000062
0
LINE
8
BLACK
6
CONTINUOUS
10
193.1740020000000015
20
-149.9663160000000062
11
193.2692399999999964
21
-150.1567929999999933
0
LINE
8
BLACK
6
CONTINUOUS
10
193.2692399999999964
20
-150.1567929999999933
11
193.2692399999999964
21
-151.2044119999999907
0
LINE
8
BLACK
6
CONTINUOUS
10
194.5073349999999834
20
-151.2044119999999907
11
194.3168589999999938
21
-151.1091739999999959
0
LINE
8
BLACK
6
CONTINUOUS
10
194.3168589999999938
20
-151.1091739999999959
11
194.221620999999999
21
-151.0139350000000036
0
LINE
8
BLACK
6
CONTINUOUS
10
194.221620999999999
20
-151.0139350000000036
11
194.1263830000000041
21
-150.8234589999999855
0
LINE
8
BLACK
6
CONTINUOUS
10
194.1263830000000041
20
-150.8234589999999855
11
194.1263830000000041
21
-150.2520309999999881
0
LINE
8
BLACK
6
CONTINUOUS
10
194.1263830000000041
20
-150.2520309999999881
11
194.221620999999999
21
-150.061554000000001
0
LINE
8
BLACK
6
CONTINUOUS
10
194.221620999999999
20
-150.061554000000001
11
194.3168589999999938
21
-149.9663160000000062
0
LINE
8
BLACK
6
CONTINUOUS
10
194.3168589999999938
20
-149.9663160000000062
11
194.5073349999999834
21
-149.8710779999999829
0
LINE
8
BLACK
6
CONTINUOUS
10
194.5073349999999834
20
-149.8710779999999829
11
194.7930499999999938
21
-149.8710779999999829
0
LINE
8
BLACK
6
CONTINUOUS
10
194.7930499999999938
20
-149.8710779999999829
11
194.9835259999999835
21
-149.9663160000000062
0
LINE
8
BLACK
6
CONTINUOUS
10
194.9835259999999835
20
-149.9663160000000062
11
195.0787639999999783
21
-150.061554000000001
0
LINE
8
BLACK
6
CONTINUOUS
10
195.0787639999999783
20
-150.061554000000001
11
195.1740020000000015
21
-150.2520309999999881
0
LINE
8
BLACK
6
CONTINUOUS
10
195.1740020000000015
20
-150.2520309999999881
11
195.1740020000000015
21
-150.8234589999999855
0
LINE
8
BLACK
6
CONTINUOUS
10
195.1740020000000015
20
-150.8234589999999855
11
195.0787639999999783
21
-151.0139350000000036
0
LINE
8
BLACK
6
CONTINUOUS
10
195.0787639999999783
20
-151.0139350000000036
11
194.9835259999999835
21
-151.1091739999999959
0
LINE
8
BLACK
6
CONTINUOUS
10
194.9835259999999835
20
-151.1091739999999959
11
194.7930499999999938
21
-151.2044119999999907
0
LINE
8
BLACK
6
CONTINUOUS
10
194.7930499999999938
20
-151.2044119999999907
11
194.5073349999999834
21
-151.2044119999999907
0
LINE
8
BLACK
6
CONTINUOUS
10
195.7454309999999964
20
-149.8710779999999829
11
196.5073349999999834
21
-149.8710779999999829
0
LINE
8
BLACK
6
CONTINUOUS
10
196.0311449999999809
20
-149.2044119999999907
11
196.0311449999999809
21
-150.9186969999999803
0
LINE
8
BLACK
6
CONTINUOUS
10
196.0311449999999809
20
-150.9186969999999803
11
196.1263830000000041
21
-151.1091739999999959
0
LINE
8
BLACK
6
CONTINUOUS
10
196.1263830000000041
20
-151.1091739999999959
11
196.3168589999999938
21
-151.2044119999999907
0
LINE
8
BLACK
6
CONTINUOUS
10
196.3168589999999938
20
-151.2044119999999907
11
196.5073349999999834
21
-151.2044119999999907
0
LINE
8
BLACK
6
CONTINUOUS
10
198.697811999999999
20
-149.8710779999999829
11
198.697811999999999
21
-151.8710779999999829
0
LINE
8
BLACK
6
CONTINUOUS
10
198.697811999999999
20
-149.9663160000000062
11
198.8882879999999886
21
-149.8710779999999829
0
LINE
8
BLACK
6
CONTINUOUS
10
198.8882879999999886
20
-149.8710779999999829
11
199.2692409999999938
21
-149.8710779999999829
0
LINE
8
BLACK
6
CONTINUOUS
10
199.2692409999999938
20
-149.8710779999999829
11
199.4597169999999835
21
-149.9663160000000062
0
LINE
8
BLACK
6
CONTINUOUS
10
199.4597169999999835
20
-149.9663160000000062
11
199.5549549999999783
21
-150.061554000000001
0
LINE
8
BLACK
6
CONTINUOUS
10
199.5549549999999783
20
-150.061554000000001
11
199.6501930000000016
21
-150.2520309999999881
0
LINE
8
BLACK
6
CONTINUOUS
10
199.6501930000000016
20
-150.2520309999999881
11
199.6501930000000016
21
-150.8234589999999855
0
LINE
8
BLACK
6
CONTINUOUS
10
199.6501930000000016
20
-150.8234589999999855
11
199.5549549999999783
21
-151.0139350000000036
0
LINE
8
BLACK
6
CONTINUOUS
10
199.5549549999999783
20
-151.0139350000000036
11
199.4597169999999835
21
-151.1091739999999959
0
LINE
8
BLACK
6
CONTINUOUS
10
199.4597169999999835
20
-151.1091739999999959
11
199.2692409999999938
21
-151.2044119999999907
0
LINE
8
BLACK
6
CONTINUOUS
10
199.2692409999999938
20
-151.2044119999999907
11
198.8882879999999886
21
-151.2044119999999907
0
LINE
8
BLACK
6
CONTINUOUS
10
198.8882879999999886
20
-151.2044119999999907
11
198.697811999999999
21
-151.1091739999999959
0
LINE
8
BLACK
6
CONTINUOUS
10
200.7930499999999938
20
-151.2044119999999907
11
200.6025740000000042
21
-151.1091739999999959
0
LINE
8
BLACK
6
CONTINUOUS
10
200.6025740000000042
20
-151.1091739999999959
11
200.5073359999999809
21
-150.9186969999999803
0
LINE
8
BLACK
6
CONTINUOUS
10
200.5073359999999809
20
-150.9186969999999803
11
200.5073359999999809
21
-149.2044119999999907
0
LINE
8
BLACK
6
CONTINUOUS
10
202.4120979999999861
20
-151.2044119999999907
11
202.4120979999999861
21
-150.1567929999999933
0
LINE
8
BLACK
6
CONTINUOUS
10
202.4120979999999861
20
-150.1567929999999933
11
202.3168599999999913
21
-149.9663160000000062
0
LINE
8
BLACK
6
CONTINUOUS
10
202.3168599999999913
20
-149.9663160000000062
11
202.1263840000000016
21
-149.8710779999999829
0
LINE
8
BLACK
6
CONTINUOUS
10
202.1263840000000016
20
-149.8710779999999829
11
201.7454309999999964
21
-149.8710779999999829
0
LINE
8
BLACK
6
CONTINUOUS
10
201.7454309999999964
20
-149.8710779999999829
11
201.5549549999999783
21
-149.9663160000000062
0
LINE
8
BLACK
6
CONTINUOUS
10
202.4120979999999861
20
-151.1091739999999959
11
202.2216219999999964
21
-151.2044119999999907
0
LINE
8
BLACK
6
CONTINUOUS
10
202.2216219999999964
20
-151.2044119999999907
11
201.7454309999999964
21
-151.2044119999999907
0
LINE
8
BLACK
6
CONTINUOUS
10
201.7454309999999964
20
-151.2044119999999907
11
201.5549549999999783
21
-151.1091739999999959
0
LINE
8
BLACK
6
CONTINUOUS
10
201.5549549999999783
20
-151.1091739999999959
11
201.4597169999999835
21
-150.9186969999999803
0
LINE
8
BLACK
6
CONTINUOUS
10
201.4597169999999835
20
-150.9186969999999803
11
201.4597169999999835
21
-150.7282209999999907
0
LINE
8
BLACK
6
CONTINUOUS
10
201.4597169999999835
20
-150.7282209999999907
11
201.5549549999999783
21
-150.537745000000001
0
LINE
8
BLACK
6
CONTINUOUS
10
201.5549549999999783
20
-150.537745000000001
11
201.7454309999999964
21
-150.4425070000000062
0
LINE
8
BLACK
6
CONTINUOUS
10
201.7454309999999964
20
-150.4425070000000062
11
202.2216219999999964
21
-150.4425070000000062
0
LINE
8
BLACK
6
CONTINUOUS
10
202.2216219999999964
20
-150.4425070000000062
11
202.4120979999999861
21
-150.347268999999983
0
LINE
8
BLACK
6
CONTINUOUS
10
203.0787650000000042
20
-149.8710779999999829
11
203.8406689999999912
21
-149.8710779999999829
0
LINE
8
BLACK
6
CONTINUOUS
10
203.3644789999999887
20
-149.2044119999999907
11
203.3644789999999887
21
-150.9186969999999803
0
LINE
8
BLACK
6
CONTINUOUS
10
203.3644789999999887
20
-150.9186969999999803
11
203.4597169999999835
21
-151.1091739999999959
0
LINE
8
BLACK
6
CONTINUOUS
10
203.4597169999999835
20
-151.1091739999999959
11
203.6501930000000016
21
-151.2044119999999907
0
LINE
8
BLACK
6
CONTINUOUS
10
203.6501930000000016
20
-151.2044119999999907
11
203.8406689999999912
21
-151.2044119999999907
0
LINE
8
BLACK
6
CONTINUOUS
10
205.2692409999999938
20
-151.1091739999999959
11
205.0787650000000042
21
-151.2044119999999907
0
LINE
8
BLACK
6
CONTINUOUS
10
205.0787650000000042
20
-151.2044119999999907
11
204.697811999999999
21
-151.2044119999999907
0
LINE
8
BLACK
6
CONTINUOUS
10
204.697811999999999
20
-151.2044119999999907
11
204.5073359999999809
21
-151.1091739999999959
0
LINE
8
BLACK
6
CONTINUOUS
10
204.5073359999999809
20
-151.1091739999999959
11
204.4120979999999861
21
-150.9186969999999803
0
LINE
8
BLACK
6
CONTINUOUS
10
204.4120979999999861
20
-150.9186969999999803
11
204.4120979999999861
21
-150.1567929999999933
0
LINE
8
BLACK
6
CONTINUOUS
10
204.4120979999999861
20
-150.1567929999999933
11
204.5073359999999809
21
-149.9663160000000062
0
LINE
8
BLACK
6
CONTINUOUS
10
204.5073359999999809
20
-149.9663160000000062
11
204.697811999999999
21
-149.8710779999999829
0
LINE
8
BLACK
6
CONTINUOUS
10
204.697811999999999
20
-149.8710779999999829
11
205.0787650000000042
21
-149.8710779999999829
0
LINE
8
BLACK
6
CONTINUOUS
10
205.0787650000000042
20
-149.8710779999999829
11
205.2692409999999938
21
-149.9663160000000062
0
LINE
8
BLACK
6
CONTINUOUS
10
205.2692409999999938
20
-149.9663160000000062
11
205.3644789999999887
21
-150.1567929999999933
0
LINE
8
BLACK
6
CONTINUOUS
10
205.3644789999999887
20
-150.1567929999999933
11
205.3644789999999887
21
-150.347268999999983
0
LINE
8
BLACK
6
CONTINUOUS
10
205.3644789999999887
20
-150.347268999999983
11
204.4120979999999861
21
-150.537745000000001
0
LINE
8
BLACK
6
CONTINUOUS
10
207.0787650000000042
20
-151.2044119999999907
11
207.0787650000000042
21
-149.2044119999999907
0
LINE
8
BLACK
6
CONTINUOUS
10
207.0787650000000042
20
-151.1091739999999959
11
206.8882889999999861
21
-151.2044119999999907
0
LINE
8
BLACK
6
CONTINUOUS
10
206.8882889999999861
20
-151.2044119999999907
11
206.5073359999999809
21
-151.2044119999999907
0
LINE
8
BLACK
6
CONTINUOUS
10
206.5073359999999809
20
-151.2044119999999907
11
206.3168599999999913
21
-151.1091739999999959
0
LINE
8
BLACK
6
CONTINUOUS
10
206.3168599999999913
20
-151.1091739999999959
11
206.2216219999999964
21
-151.0139350000000036
0
LINE
8
BLACK
6
CONTINUOUS
10
206.2216219999999964
20
-151.0139350000000036
11
206.1263840000000016
21
-150.8234589999999855
0
LINE
8
BLACK
6
CONTINUOUS
10
206.1263840000000016
20
-150.8234589999999855
11
206.1263840000000016
21
-150.2520309999999881
0
LINE
8
BLACK
6
CONTINUOUS
10
206.1263840000000016
20
-150.2520309999999881
11
206.2216219999999964
21
-150.061554000000001
0
LINE
8
BLACK
6
CONTINUOUS
10
206.2216219999999964
20
-150.061554000000001
11
206.3168599999999913
21
-149.9663160000000062
0
LINE
8
BLACK
6
CONTINUOUS
10
206.3168599999999913
20
-149.9663160000000062
11
206.5073359999999809
21
-149.8710779999999829
0
LINE
8
BLACK
6
CONTINUOUS
10
206.5073359999999809
20
-149.8710779999999829
11
206.8882889999999861
21
-149.8710779999999829
0
LINE
8
BLACK
6
CONTINUOUS
10
206.8882889999999861
20
-149.8710779999999829
11
207.0787650000000042
21
-149.9663160000000062
0
LINE
8
BLACK
6
CONTINUOUS
10
207.8406699999999887
20
-151.9663160000000062
11
207.9359079999999835
21
-151.8710779999999829
0
LINE
8
BLACK
6
CONTINUOUS
10
207.9359079999999835
20
-151.8710779999999829
11
208.1263840000000016
21
-151.5853639999999984
0
LINE
8
BLACK
6
CONTINUOUS
10
208.1263840000000016
20
-151.5853639999999984
11
208.2216219999999964
21
-151.3948879999999804
0
LINE
8
BLACK
6
CONTINUOUS
10
208.2216219999999964
20
-151.3948879999999804
11
208.3168599999999913
21
-151.1091739999999959
0
LINE
8
BLACK
6
CONTINUOUS
10
208.3168599999999913
20
-151.1091739999999959
11
208.4120979999999861
21
-150.6329829999999959
0
LINE
8
BLACK
6
CONTINUOUS
10
208.4120979999999861
20
-150.6329829999999959
11
208.4120979999999861
21
-150.2520309999999881
0
LINE
8
BLACK
6
CONTINUOUS
10
208.4120979999999861
20
-150.2520309999999881
11
208.3168599999999913
21
-149.7758399999999881
0
LINE
8
BLACK
6
CONTINUOUS
10
208.3168599999999913
20
-149.7758399999999881
11
208.2216219999999964
21
-149.4901260000000036
0
LINE
8
BLACK
6
CONTINUOUS
10
208.2216219999999964
20
-149.4901260000000036
11
208.1263840000000016
21
-149.2996499999999855
0
LINE
8
BLACK
6
CONTINUOUS
10
208.1263840000000016
20
-149.2996499999999855
11
207.9359079999999835
21
-149.0139350000000036
0
LINE
8
BLACK
6
CONTINUOUS
10
207.9359079999999835
20
-149.0139350000000036
11
207.8406699999999887
21
-148.9186969999999803
0
LINE
8
BLACK
6
CONTINUOUS
10
139.2805149999999799
20
-152.4895740000000046
11
139.2805149999999799
21
-154.4895740000000046
0
LINE
8
BLACK
6
CONTINUOUS
10
138.2805149999999799
20
-153.4895740000000046
11
140.2805149999999799
21
-153.4895740000000046
0
LINE
8
BLACK
6
CONTINUOUS
10
142.6978069999999832
20
-152.4044119999999793
11
143.9359019999999987
21
-152.4044119999999793
0
LINE
8
BLACK
6
CONTINUOUS
10
143.9359019999999987
20
-152.4044119999999793
11
143.2692349999999806
21
-153.1663159999999948
0
LINE
8
BLACK
6
CONTINUOUS
10
143.2692349999999806
20
-153.1663159999999948
11
143.554949999999991
21
-153.1663159999999948
0
LINE
8
BLACK
6
CONTINUOUS
10
143.554949999999991
20
-153.1663159999999948
11
143.7454259999999806
21
-153.2615539999999896
0
LINE
8
BLACK
6
CONTINUOUS
10
143.7454259999999806
20
-153.2615539999999896
11
143.8406640000000039
21
-153.3567929999999819
0
LINE
8
BLACK
6
CONTINUOUS
10
143.8406640000000039
20
-153.3567929999999819
11
143.9359019999999987
21
-153.547269
0
LINE
8
BLACK
6
CONTINUOUS
10
143.9359019999999987
20
-153.547269
11
143.9359019999999987
21
-154.0234590000000026
0
LINE
8
BLACK
6
CONTINUOUS
10
143.9359019999999987
20
-154.0234590000000026
11
143.8406640000000039
21
-154.2139349999999922
0
LINE
8
BLACK
6
CONTINUOUS
10
143.8406640000000039
20
-154.2139349999999922
11
143.7454259999999806
21
-154.3091739999999845
0
LINE
8
BLACK
6
CONTINUOUS
10
143.7454259999999806
20
-154.3091739999999845
11
143.554949999999991
21
-154.4044119999999793
0
LINE
8
BLACK
6
CONTINUOUS
10
143.554949999999991
20
-154.4044119999999793
11
142.9835209999999961
21
-154.4044119999999793
0
LINE
8
BLACK
6
CONTINUOUS
10
142.9835209999999961
20
-154.4044119999999793
11
142.7930450000000064
21
-154.3091739999999845
0
LINE
8
BLACK
6
CONTINUOUS
10
142.7930450000000064
20
-154.3091739999999845
11
142.6978069999999832
21
-154.2139349999999922
0
LINE
8
BLACK
6
CONTINUOUS
10
144.7930450000000064
20
-154.2139349999999922
11
144.8882830000000013
21
-154.3091739999999845
0
LINE
8
BLACK
6
CONTINUOUS
10
144.8882830000000013
20
-154.3091739999999845
11
144.7930450000000064
21
-154.4044119999999793
0
LINE
8
BLACK
6
CONTINUOUS
10
144.7930450000000064
20
-154.4044119999999793
11
144.6978069999999832
21
-154.3091739999999845
0
LINE
8
BLACK
6
CONTINUOUS
10
144.6978069999999832
20
-154.3091739999999845
11
144.7930450000000064
21
-154.2139349999999922
0
LINE
8
BLACK
6
CONTINUOUS
10
144.7930450000000064
20
-154.2139349999999922
11
144.7930450000000064
21
-154.4044119999999793
0
LINE
8
BLACK
6
CONTINUOUS
10
146.0311399999999935
20
-153.2615539999999896
11
145.8406640000000039
21
-153.1663159999999948
0
LINE
8
BLACK
6
CONTINUOUS
10
145.8406640000000039
20
-153.1663159999999948
11
145.7454259999999806
21
-153.071078
0
LINE
8
BLACK
6
CONTINUOUS
10
145.7454259999999806
20
-153.071078
11
145.6501879999999858
21
-152.8806019999999819
0
LINE
8
BLACK
6
CONTINUOUS
10
145.6501879999999858
20
-152.8806019999999819
11
145.6501879999999858
21
-152.7853639999999871
0
LINE
8
BLACK
6
CONTINUOUS
10
145.6501879999999858
20
-152.7853639999999871
11
145.7454259999999806
21
-152.5948879999999974
0
LINE
8
BLACK
6
CONTINUOUS
10
145.7454259999999806
20
-152.5948879999999974
11
145.8406640000000039
21
-152.4996500000000026
0
LINE
8
BLACK
6
CONTINUOUS
10
145.8406640000000039
20
-152.4996500000000026
11
146.0311399999999935
21
-152.4044119999999793
0
LINE
8
BLACK
6
CONTINUOUS
10
146.0311399999999935
20
-152.4044119999999793
11
146.4120929999999987
21
-152.4044119999999793
0
LINE
8
BLACK
6
CONTINUOUS
10
146.4120929999999987
20
-152.4044119999999793
11
146.6025689999999884
21
-152.4996500000000026
0
LINE
8
BLACK
6
CONTINUOUS
10
146.6025689999999884
20
-152.4996500000000026
11
146.6978069999999832
21
-152.5948879999999974
0
LINE
8
BLACK
6
CONTINUOUS
10
146.6978069999999832
20
-152.5948879999999974
11
146.7930450000000064
21
-152.7853639999999871
0
LINE
8
BLACK
6
CONTINUOUS
10
146.7930450000000064
20
-152.7853639999999871
11
146.7930450000000064
21
-152.8806019999999819
0
LINE
8
BLACK
6
CONTINUOUS
10
146.7930450000000064
20
-152.8806019999999819
11
146.6978069999999832
21
-153.071078
0
LINE
8
BLACK
6
CONTINUOUS
10
146.6978069999999832
20
-153.071078
11
146.6025689999999884
21
-153.1663159999999948
0
LINE
8
BLACK
6
CONTINUOUS
10
146.6025689999999884
20
-153.1663159999999948
11
146.4120929999999987
21
-153.2615539999999896
0
LINE
8
BLACK
6
CONTINUOUS
10
146.4120929999999987
20
-153.2615539999999896
11
146.0311399999999935
21
-153.2615539999999896
0
LINE
8
BLACK
6
CONTINUOUS
10
146.0311399999999935
20
-153.2615539999999896
11
145.8406640000000039
21
-153.3567929999999819
0
LINE
8
BLACK
6
CONTINUOUS
10
145.8406640000000039
20
-153.3567929999999819
11
145.7454259999999806
21
-153.4520310000000052
0
LINE
8
BLACK
6
CONTINUOUS
10
145.7454259999999806
20
-153.4520310000000052
11
145.6501879999999858
21
-153.6425069999999948
0
LINE
8
BLACK
6
CONTINUOUS
10
145.6501879999999858
20
-153.6425069999999948
11
145.6501879999999858
21
-154.0234590000000026
0
LINE
8
BLACK
6
CONTINUOUS
10
145.6501879999999858
20
-154.0234590000000026
11
145.7454259999999806
21
-154.2139349999999922
0
LINE
8
BLACK
6
CONTINUOUS
10
145.7454259999999806
20
-154.2139349999999922
11
145.8406640000000039
21
-154.3091739999999845
0
LINE
8
BLACK
6
CONTINUOUS
10
145.8406640000000039
20
-154.3091739999999845
11
146.0311399999999935
21
-154.4044119999999793
0
LINE
8
BLACK
6
CONTINUOUS
10
146.0311399999999935
20
-154.4044119999999793
11
146.4120929999999987
21
-154.4044119999999793
0
LINE
8
BLACK
6
CONTINUOUS
10
146.4120929999999987
20
-154.4044119999999793
11
146.6025689999999884
21
-154.3091739999999845
0
LINE
8
BLACK
6
CONTINUOUS
10
146.6025689999999884
20
-154.3091739999999845
11
146.6978069999999832
21
-154.2139349999999922
0
LINE
8
BLACK
6
CONTINUOUS
10
146.6978069999999832
20
-154.2139349999999922
11
146.7930450000000064
21
-154.0234590000000026
0
LINE
8
BLACK
6
CONTINUOUS
10
146.7930450000000064
20
-154.0234590000000026
11
146.7930450000000064
21
-153.6425069999999948
0
LINE
8
BLACK
6
CONTINUOUS
10
146.7930450000000064
20
-153.6425069999999948
11
146.6978069999999832
21
-153.4520310000000052
0
LINE
8
BLACK
6
CONTINUOUS
10
146.6978069999999832
20
-153.4520310000000052
11
146.6025689999999884
21
-153.3567929999999819
0
LINE
8
BLACK
6
CONTINUOUS
10
146.6025689999999884
20
-153.3567929999999819
11
146.4120929999999987
21
-153.2615539999999896
0
LINE
8
BLACK
6
CONTINUOUS
10
148.0311399999999935
20
-152.4044119999999793
11
148.2216169999999806
21
-152.4044119999999793
0
LINE
8
BLACK
6
CONTINUOUS
10
148.2216169999999806
20
-152.4044119999999793
11
148.4120929999999987
21
-152.4996500000000026
0
LINE
8
BLACK
6
CONTINUOUS
10
148.4120929999999987
20
-152.4996500000000026
11
148.5073309999999935
21
-152.5948879999999974
0
LINE
8
BLACK
6
CONTINUOUS
10
148.5073309999999935
20
-152.5948879999999974
11
148.6025689999999884
21
-152.7853639999999871
0
LINE
8
BLACK
6
CONTINUOUS
10
148.6025689999999884
20
-152.7853639999999871
11
148.6978069999999832
21
-153.1663159999999948
0
LINE
8
BLACK
6
CONTINUOUS
10
148.6978069999999832
20
-153.1663159999999948
11
148.6978069999999832
21
-153.6425069999999948
0
LINE
8
BLACK
6
CONTINUOUS
10
148.6978069999999832
20
-153.6425069999999948
11
148.6025689999999884
21
-154.0234590000000026
0
LINE
8
BLACK
6
CONTINUOUS
10
148.6025689999999884
20
-154.0234590000000026
11
148.5073309999999935
21
-154.2139349999999922
0
LINE
8
BLACK
6
CONTINUOUS
10
148.5073309999999935
20
-154.2139349999999922
11
148.4120929999999987
21
-154.3091739999999845
0
LINE
8
BLACK
6
CONTINUOUS
10
148.4120929999999987
20
-154.3091739999999845
11
148.2216169999999806
21
-154.4044119999999793
0
LINE
8
BLACK
6
CONTINUOUS
10
148.2216169999999806
20
-154.4044119999999793
11
148.0311399999999935
21
-154.4044119999999793
0
LINE
8
BLACK
6
CONTINUOUS
10
148.0311399999999935
20
-154.4044119999999793
11
147.8406640000000039
21
-154.3091739999999845
0
LINE
8
BLACK
6
CONTINUOUS
10
147.8406640000000039
20
-154.3091739999999845
11
147.7454259999999806
21
-154.2139349999999922
0
LINE
8
BLACK
6
CONTINUOUS
10
147.7454259999999806
20
-154.2139349999999922
11
147.6501879999999858
21
-154.0234590000000026
0
LINE
8
BLACK
6
CONTINUOUS
10
147.6501879999999858
20
-154.0234590000000026
11
147.554949999999991
21
-153.6425069999999948
0
LINE
8
BLACK
6
CONTINUOUS
10
147.554949999999991
20
-153.6425069999999948
11
147.554949999999991
21
-153.1663159999999948
0
LINE
8
BLACK
6
CONTINUOUS
10
147.554949999999991
20
-153.1663159999999948
11
147.6501879999999858
21
-152.7853639999999871
0
LINE
8
BLACK
6
CONTINUOUS
10
147.6501879999999858
20
-152.7853639999999871
11
147.7454259999999806
21
-152.5948879999999974
0
LINE
8
BLACK
6
CONTINUOUS
10
147.7454259999999806
20
-152.5948879999999974
11
147.8406640000000039
21
-152.4996500000000026
0
LINE
8
BLACK
6
CONTINUOUS
10
147.8406640000000039
20
-152.4996500000000026
11
148.0311399999999935
21
-152.4044119999999793
0
LINE
8
BLACK
6
CONTINUOUS
10
149.9359019999999987
20
-152.4044119999999793
11
150.1263789999999858
21
-152.4044119999999793
0
LINE
8
BLACK
6
CONTINUOUS
10
150.1263789999999858
20
-152.4044119999999793
11
150.3168550000000039
21
-152.4996500000000026
0
LINE
8
BLACK
6
CONTINUOUS
10
150.3168550000000039
20
-152.4996500000000026
11
150.4120929999999987
21
-152.5948879999999974
0
LINE
8
BLACK
6
CONTINUOUS
10
150.4120929999999987
20
-152.5948879999999974
11
150.5073309999999935
21
-152.7853639999999871
0
LINE
8
BLACK
6
CONTINUOUS
10
150.5073309999999935
20
-152.7853639999999871
11
150.6025689999999884
21
-153.1663159999999948
0
LINE
8
BLACK
6
CONTINUOUS
10
150.6025689999999884
20
-153.1663159999999948
11
150.6025689999999884
21
-153.6425069999999948
0
LINE
8
BLACK
6
CONTINUOUS
10
150.6025689999999884
20
-153.6425069999999948
11
150.5073309999999935
21
-154.0234590000000026
0
LINE
8
BLACK
6
CONTINUOUS
10
150.5073309999999935
20
-154.0234590000000026
11
150.4120929999999987
21
-154.2139349999999922
0
LINE
8
BLACK
6
CONTINUOUS
10
150.4120929999999987
20
-154.2139349999999922
11
150.3168550000000039
21
-154.3091739999999845
0
LINE
8
BLACK
6
CONTINUOUS
10
150.3168550000000039
20
-154.3091739999999845
11
150.1263789999999858
21
-154.4044119999999793
0
LINE
8
BLACK
6
CONTINUOUS
10
150.1263789999999858
20
-154.4044119999999793
11
149.9359019999999987
21
-154.4044119999999793
0
LINE
8
BLACK
6
CONTINUOUS
10
149.9359019999999987
20
-154.4044119999999793
11
149.7454259999999806
21
-154.3091739999999845
0
LINE
8
BLACK
6
CONTINUOUS
10
149.7454259999999806
20
-154.3091739999999845
11
149.6501879999999858
21
-154.2139349999999922
0
LINE
8
BLACK
6
CONTINUOUS
10
149.6501879999999858
20
-154.2139349999999922
11
149.554949999999991
21
-154.0234590000000026
0
LINE
8
BLACK
6
CONTINUOUS
10
149.554949999999991
20
-154.0234590000000026
11
149.4597119999999961
21
-153.6425069999999948
0
LINE
8
BLACK
6
CONTINUOUS
10
149.4597119999999961
20
-153.6425069999999948
11
149.4597119999999961
21
-153.1663159999999948
0
LINE
8
BLACK
6
CONTINUOUS
10
149.4597119999999961
20
-153.1663159999999948
11
149.554949999999991
21
-152.7853639999999871
0
LINE
8
BLACK
6
CONTINUOUS
10
149.554949999999991
20
-152.7853639999999871
11
149.6501879999999858
21
-152.5948879999999974
0
LINE
8
BLACK
6
CONTINUOUS
10
149.6501879999999858
20
-152.5948879999999974
11
149.7454259999999806
21
-152.4996500000000026
0
LINE
8
BLACK
6
CONTINUOUS
10
149.7454259999999806
20
-152.4996500000000026
11
149.9359019999999987
21
-152.4044119999999793
0
LINE
8
BLACK
6
CONTINUOUS
10
151.4597119999999961
20
-154.4044119999999793
11
151.4597119999999961
21
-153.071078
0
LINE
8
BLACK
6
CONTINUOUS
10
151.4597119999999961
20
-153.2615539999999896
11
151.554949999999991
21
-153.1663159999999948
0
LINE
8
BLACK
6
CONTINUOUS
10
151.554949999999991
20
-153.1663159999999948
11
151.7454259999999806
21
-153.071078
0
LINE
8
BLACK
6
CONTINUOUS
10
151.7454259999999806
20
-153.071078
11
152.031140999999991
21
-153.071078
0
LINE
8
BLACK
6
CONTINUOUS
10
152.031140999999991
20
-153.071078
11
152.2216169999999806
21
-153.1663159999999948
0
LINE
8
BLACK
6
CONTINUOUS
10
152.2216169999999806
20
-153.1663159999999948
11
152.3168550000000039
21
-153.3567929999999819
0
LINE
8
BLACK
6
CONTINUOUS
10
152.3168550000000039
20
-153.3567929999999819
11
152.3168550000000039
21
-154.4044119999999793
0
LINE
8
BLACK
6
CONTINUOUS
10
152.3168550000000039
20
-153.3567929999999819
11
152.4120929999999987
21
-153.1663159999999948
0
LINE
8
BLACK
6
CONTINUOUS
10
152.4120929999999987
20
-153.1663159999999948
11
152.6025689999999884
21
-153.071078
0
LINE
8
BLACK
6
CONTINUOUS
10
152.6025689999999884
20
-153.071078
11
152.8882830000000013
21
-153.071078
0
LINE
8
BLACK
6
CONTINUOUS
10
152.8882830000000013
20
-153.071078
11
153.0787599999999884
21
-153.1663159999999948
0
LINE
8
BLACK
6
CONTINUOUS
10
153.0787599999999884
20
-153.1663159999999948
11
153.1739979999999832
21
-153.3567929999999819
0
LINE
8
BLACK
6
CONTINUOUS
10
153.1739979999999832
20
-153.3567929999999819
11
153.1739979999999832
21
-154.4044119999999793
0
LINE
8
BLACK
6
CONTINUOUS
10
154.1263789999999858
20
-154.4044119999999793
11
154.1263789999999858
21
-153.071078
0
LINE
8
BLACK
6
CONTINUOUS
10
154.1263789999999858
20
-153.2615539999999896
11
154.2216169999999806
21
-153.1663159999999948
0
LINE
8
BLACK
6
CONTINUOUS
10
154.2216169999999806
20
-153.1663159999999948
11
154.4120929999999987
21
-153.071078
0
LINE
8
BLACK
6
CONTINUOUS
10
154.4120929999999987
20
-153.071078
11
154.6978079999999807
21
-153.071078
0
LINE
8
BLACK
6
CONTINUOUS
10
154.6978079999999807
20
-153.071078
11
154.8882839999999987
21
-153.1663159999999948
0
LINE
8
BLACK
6
CONTINUOUS
10
154.8882839999999987
20
-153.1663159999999948
11
154.9835219999999936
21
-153.3567929999999819
0
LINE
8
BLACK
6
CONTINUOUS
10
154.9835219999999936
20
-153.3567929999999819
11
154.9835219999999936
21
-154.4044119999999793
0
LINE
8
BLACK
6
CONTINUOUS
10
154.9835219999999936
20
-153.3567929999999819
11
155.0787599999999884
21
-153.1663159999999948
0
LINE
8
BLACK
6
CONTINUOUS
10
155.0787599999999884
20
-153.1663159999999948
11
155.2692360000000065
21
-153.071078
0
LINE
8
BLACK
6
CONTINUOUS
10
155.2692360000000065
20
-153.071078
11
155.554949999999991
21
-153.071078
0
LINE
8
BLACK
6
CONTINUOUS
10
155.554949999999991
20
-153.071078
11
155.7454270000000065
21
-153.1663159999999948
0
LINE
8
BLACK
6
CONTINUOUS
10
155.7454270000000065
20
-153.1663159999999948
11
155.8406650000000013
21
-153.3567929999999819
0
LINE
8
BLACK
6
CONTINUOUS
10
155.8406650000000013
20
-153.3567929999999819
11
155.8406650000000013
21
-154.4044119999999793
0
LINE
8
BLACK
6
CONTINUOUS
10
159.7454270000000065
20
-152.3091739999999845
11
158.0311419999999885
21
-154.8806019999999819
0
LINE
8
BLACK
6
CONTINUOUS
10
162.3168560000000014
20
-152.4044119999999793
11
162.5073329999999885
21
-152.4044119999999793
0
LINE
8
BLACK
6
CONTINUOUS
10
162.5073329999999885
20
-152.4044119999999793
11
162.6978090000000066
21
-152.4996500000000026
0
LINE
8
BLACK
6
CONTINUOUS
10
162.6978090000000066
20
-152.4996500000000026
11
162.7930470000000014
21
-152.5948879999999974
0
LINE
8
BLACK
6
CONTINUOUS
10
162.7930470000000014
20
-152.5948879999999974
11
162.8882849999999962
21
-152.7853639999999871
0
LINE
8
BLACK
6
CONTINUOUS
10
162.8882849999999962
20
-152.7853639999999871
11
162.983522999999991
21
-153.1663159999999948
0
LINE
8
BLACK
6
CONTINUOUS
10
162.983522999999991
20
-153.1663159999999948
11
162.983522999999991
21
-153.6425069999999948
0
LINE
8
BLACK
6
CONTINUOUS
10
162.983522999999991
20
-153.6425069999999948
11
162.8882849999999962
21
-154.0234590000000026
0
LINE
8
BLACK
6
CONTINUOUS
10
162.8882849999999962
20
-154.0234590000000026
11
162.7930470000000014
21
-154.2139349999999922
0
LINE
8
BLACK
6
CONTINUOUS
10
162.7930470000000014
20
-154.2139349999999922
11
162.6978090000000066
21
-154.3091739999999845
0
LINE
8
BLACK
6
CONTINUOUS
10
162.6978090000000066
20
-154.3091739999999845
11
162.5073329999999885
21
-154.4044119999999793
0
LINE
8
BLACK
6
CONTINUOUS
10
162.5073329999999885
20
-154.4044119999999793
11
162.3168560000000014
21
-154.4044119999999793
0
LINE
8
BLACK
6
CONTINUOUS
10
162.3168560000000014
20
-154.4044119999999793
11
162.1263799999999833
21
-154.3091739999999845
0
LINE
8
BLACK
6
CONTINUOUS
10
162.1263799999999833
20
-154.3091739999999845
11
162.0311419999999885
21
-154.2139349999999922
0
LINE
8
BLACK
6
CONTINUOUS
10
162.0311419999999885
20
-154.2139349999999922
11
161.9359039999999936
21
-154.0234590000000026
0
LINE
8
BLACK
6
CONTINUOUS
10
161.9359039999999936
20
-154.0234590000000026
11
161.8406659999999988
21
-153.6425069999999948
0
LINE
8
BLACK
6
CONTINUOUS
10
161.8406659999999988
20
-153.6425069999999948
11
161.8406659999999988
21
-153.1663159999999948
0
LINE
8
BLACK
6
CONTINUOUS
10
161.8406659999999988
20
-153.1663159999999948
11
161.9359039999999936
21
-152.7853639999999871
0
LINE
8
BLACK
6
CONTINUOUS
10
161.9359039999999936
20
-152.7853639999999871
11
162.0311419999999885
21
-152.5948879999999974
0
LINE
8
BLACK
6
CONTINUOUS
10
162.0311419999999885
20
-152.5948879999999974
11
162.1263799999999833
21
-152.4996500000000026
0
LINE
8
BLACK
6
CONTINUOUS
10
162.1263799999999833
20
-152.4996500000000026
11
162.3168560000000014
21
-152.4044119999999793
0
LINE
8
BLACK
6
CONTINUOUS
10
163.8406659999999988
20
-154.2139349999999922
11
163.9359039999999936
21
-154.3091739999999845
0
LINE
8
BLACK
6
CONTINUOUS
10
163.9359039999999936
20
-154.3091739999999845
11
163.8406659999999988
21
-154.4044119999999793
0
LINE
8
BLACK
6
CONTINUOUS
10
163.8406659999999988
20
-154.4044119999999793
11
163.745428000000004
21
-154.3091739999999845
0
LINE
8
BLACK
6
CONTINUOUS
10
163.745428000000004
20
-154.3091739999999845
11
163.8406659999999988
21
-154.2139349999999922
0
LINE
8
BLACK
6
CONTINUOUS
10
163.8406659999999988
20
-154.2139349999999922
11
163.8406659999999988
21
-154.4044119999999793
0
LINE
8
BLACK
6
CONTINUOUS
10
165.8406659999999988
20
-154.4044119999999793
11
164.6978090000000066
21
-154.4044119999999793
0
LINE
8
BLACK
6
CONTINUOUS
10
165.2692370000000039
20
-154.4044119999999793
11
165.2692370000000039
21
-152.4044119999999793
0
LINE
8
BLACK
6
CONTINUOUS
10
165.2692370000000039
20
-152.4044119999999793
11
165.0787609999999859
21
-152.6901259999999922
0
LINE
8
BLACK
6
CONTINUOUS
10
165.0787609999999859
20
-152.6901259999999922
11
164.8882849999999962
21
-152.8806019999999819
0
LINE
8
BLACK
6
CONTINUOUS
10
164.8882849999999962
20
-152.8806019999999819
11
164.6978090000000066
21
-152.9758400000000051
0
LINE
8
BLACK
6
CONTINUOUS
10
167.5549519999999859
20
-153.071078
11
167.5549519999999859
21
-154.4044119999999793
0
LINE
8
BLACK
6
CONTINUOUS
10
167.0787609999999859
20
-152.3091739999999845
11
166.6025709999999833
21
-153.7377449999999897
0
LINE
8
BLACK
6
CONTINUOUS
10
166.6025709999999833
20
-153.7377449999999897
11
167.8406659999999988
21
-153.7377449999999897
0
LINE
8
BLACK
6
CONTINUOUS
10
168.6978090000000066
20
-154.4044119999999793
11
169.0787609999999859
21
-154.4044119999999793
0
LINE
8
BLACK
6
CONTINUOUS
10
169.0787609999999859
20
-154.4044119999999793
11
169.2692380000000014
21
-154.3091739999999845
0
LINE
8
BLACK
6
CONTINUOUS
10
169.2692380000000014
20
-154.3091739999999845
11
169.3644759999999962
21
-154.2139349999999922
0
LINE
8
BLACK
6
CONTINUOUS
10
169.3644759999999962
20
-154.2139349999999922
11
169.5549519999999859
21
-153.9282209999999793
0
LINE
8
BLACK
6
CONTINUOUS
10
169.5549519999999859
20
-153.9282209999999793
11
169.6501899999999807
21
-153.547269
0
LINE
8
BLACK
6
CONTINUOUS
10
169.6501899999999807
20
-153.547269
11
169.6501899999999807
21
-152.7853639999999871
0
LINE
8
BLACK
6
CONTINUOUS
10
169.6501899999999807
20
-152.7853639999999871
11
169.5549519999999859
21
-152.5948879999999974
0
LINE
8
BLACK
6
CONTINUOUS
10
169.5549519999999859
20
-152.5948879999999974
11
169.4597139999999911
21
-152.4996500000000026
0
LINE
8
BLACK
6
CONTINUOUS
10
169.4597139999999911
20
-152.4996500000000026
11
169.2692380000000014
21
-152.4044119999999793
0
LINE
8
BLACK
6
CONTINUOUS
10
169.2692380000000014
20
-152.4044119999999793
11
168.8882849999999962
21
-152.4044119999999793
0
LINE
8
BLACK
6
CONTINUOUS
10
168.8882849999999962
20
-152.4044119999999793
11
168.6978090000000066
21
-152.4996500000000026
0
LINE
8
BLACK
6
CONTINUOUS
10
168.6978090000000066
20
-152.4996500000000026
11
168.6025709999999833
21
-152.5948879999999974
0
LINE
8
BLACK
6
CONTINUOUS
10
168.6025709999999833
20
-152.5948879999999974
11
168.5073329999999885
21
-152.7853639999999871
0
LINE
8
BLACK
6
CONTINUOUS
10
168.5073329999999885
20
-152.7853639999999871
11
168.5073329999999885
21
-153.2615539999999896
0
LINE
8
BLACK
6
CONTINUOUS
10
168.5073329999999885
20
-153.2615539999999896
11
168.6025709999999833
21
-153.4520310000000052
0
LINE
8
BLACK
6
CONTINUOUS
10
168.6025709999999833
20
-153.4520310000000052
11
168.6978090000000066
21
-153.547269
0
LINE
8
BLACK
6
CONTINUOUS
10
168.6978090000000066
20
-153.547269
11
168.8882849999999962
21
-153.6425069999999948
0
LINE
8
BLACK
6
CONTINUOUS
10
168.8882849999999962
20
-153.6425069999999948
11
169.2692380000000014
21
-153.6425069999999948
0
LINE
8
BLACK
6
CONTINUOUS
10
169.2692380000000014
20
-153.6425069999999948
11
169.4597139999999911
21
-153.547269
0
LINE
8
BLACK
6
CONTINUOUS
10
169.4597139999999911
20
-153.547269
11
169.5549519999999859
21
-153.4520310000000052
0
LINE
8
BLACK
6
CONTINUOUS
10
169.5549519999999859
20
-153.4520310000000052
11
169.6501899999999807
21
-153.2615539999999896
0
LINE
8
BLACK
6
CONTINUOUS
10
171.3644759999999962
20
-152.4044119999999793
11
170.983522999999991
21
-152.4044119999999793
0
LINE
8
BLACK
6
CONTINUOUS
10
170.983522999999991
20
-152.4044119999999793
11
170.7930470000000014
21
-152.4996500000000026
0
LINE
8
BLACK
6
CONTINUOUS
10
170.7930470000000014
20
-152.4996500000000026
11
170.6978089999999781
21
-152.5948879999999974
0
LINE
8
BLACK
6
CONTINUOUS
10
170.6978089999999781
20
-152.5948879999999974
11
170.5073329999999885
21
-152.8806019999999819
0
LINE
8
BLACK
6
CONTINUOUS
10
170.5073329999999885
20
-152.8806019999999819
11
170.4120949999999937
21
-153.2615539999999896
0
LINE
8
BLACK
6
CONTINUOUS
10
170.4120949999999937
20
-153.2615539999999896
11
170.4120949999999937
21
-154.0234590000000026
0
LINE
8
BLACK
6
CONTINUOUS
10
170.4120949999999937
20
-154.0234590000000026
11
170.5073329999999885
21
-154.2139349999999922
0
LINE
8
BLACK
6
CONTINUOUS
10
170.5073329999999885
20
-154.2139349999999922
11
170.6025709999999833
21
-154.3091739999999845
0
LINE
8
BLACK
6
CONTINUOUS
10
170.6025709999999833
20
-154.3091739999999845
11
170.7930470000000014
21
-154.4044119999999793
0
LINE
8
BLACK
6
CONTINUOUS
10
170.7930470000000014
20
-154.4044119999999793
11
171.1739999999999782
21
-154.4044119999999793
0
LINE
8
BLACK
6
CONTINUOUS
10
171.1739999999999782
20
-154.4044119999999793
11
171.3644759999999962
21
-154.3091739999999845
0
LINE
8
BLACK
6
CONTINUOUS
10
171.3644759999999962
20
-154.3091739999999845
11
171.4597139999999911
21
-154.2139349999999922
0
LINE
8
BLACK
6
CONTINUOUS
10
171.4597139999999911
20
-154.2139349999999922
11
171.5549519999999859
21
-154.0234590000000026
0
LINE
8
BLACK
6
CONTINUOUS
10
171.5549519999999859
20
-154.0234590000000026
11
171.5549519999999859
21
-153.547269
0
LINE
8
BLACK
6
CONTINUOUS
10
171.5549519999999859
20
-153.547269
11
171.4597139999999911
21
-153.3567929999999819
0
LINE
8
BLACK
6
CONTINUOUS
10
171.4597139999999911
20
-153.3567929999999819
11
171.3644759999999962
21
-153.2615539999999896
0
LINE
8
BLACK
6
CONTINUOUS
10
171.3644759999999962
20
-153.2615539999999896
11
171.1739999999999782
21
-153.1663159999999948
0
LINE
8
BLACK
6
CONTINUOUS
10
171.1739999999999782
20
-153.1663159999999948
11
170.7930470000000014
21
-153.1663159999999948
0
LINE
8
BLACK
6
CONTINUOUS
10
170.7930470000000014
20
-153.1663159999999948
11
170.6025709999999833
21
-153.2615539999999896
0
LINE
8
BLACK
6
CONTINUOUS
10
170.6025709999999833
20
-153.2615539999999896
11
170.5073329999999885
21
-153.3567929999999819
0
LINE
8
BLACK
6
CONTINUOUS
10
170.5073329999999885
20
-153.3567929999999819
11
170.4120949999999937
21
-153.547269
0
LINE
8
BLACK
6
CONTINUOUS
10
172.3168569999999988
20
-152.4044119999999793
11
172.3168569999999988
21
-152.7853639999999871
0
LINE
8
BLACK
6
CONTINUOUS
10
173.0787619999999833
20
-152.4044119999999793
11
173.0787619999999833
21
-152.7853639999999871
0
LINE
8
BLACK
6
CONTINUOUS
10
176.0311439999999834
20
-155.1663159999999948
11
175.9359049999999911
21
-155.071078
0
LINE
8
BLACK
6
CONTINUOUS
10
175.9359049999999911
20
-155.071078
11
175.7454290000000015
21
-154.7853639999999871
0
LINE
8
BLACK
6
CONTINUOUS
10
175.7454290000000015
20
-154.7853639999999871
11
175.6501909999999782
21
-154.5948879999999974
0
LINE
8
BLACK
6
CONTINUOUS
10
175.6501909999999782
20
-154.5948879999999974
11
175.5549529999999834
21
-154.3091739999999845
0
LINE
8
BLACK
6
CONTINUOUS
10
175.5549529999999834
20
-154.3091739999999845
11
175.4597149999999885
21
-153.8329829999999845
0
LINE
8
BLACK
6
CONTINUOUS
10
175.4597149999999885
20
-153.8329829999999845
11
175.4597149999999885
21
-153.4520310000000052
0
LINE
8
BLACK
6
CONTINUOUS
10
175.4597149999999885
20
-153.4520310000000052
11
175.5549529999999834
21
-152.9758400000000051
0
LINE
8
BLACK
6
CONTINUOUS
10
175.5549529999999834
20
-152.9758400000000051
11
175.6501909999999782
21
-152.6901259999999922
0
LINE
8
BLACK
6
CONTINUOUS
10
175.6501909999999782
20
-152.6901259999999922
11
175.7454290000000015
21
-152.4996500000000026
0
LINE
8
BLACK
6
CONTINUOUS
10
175.7454290000000015
20
-152.4996500000000026
11
175.9359049999999911
21
-152.2139349999999922
0
LINE
8
BLACK
6
CONTINUOUS
10
175.9359049999999911
20
-152.2139349999999922
11
176.0311439999999834
21
-152.1186969999999974
0
LINE
8
BLACK
6
CONTINUOUS
10
177.8406669999999963
20
-154.4044119999999793
11
176.697810000000004
21
-154.4044119999999793
0
LINE
8
BLACK
6
CONTINUOUS
10
177.2692380000000014
20
-154.4044119999999793
11
177.2692380000000014
21
-152.4044119999999793
0
LINE
8
BLACK
6
CONTINUOUS
10
177.2692380000000014
20
-152.4044119999999793
11
177.0787619999999833
21
-152.6901259999999922
0
LINE
8
BLACK
6
CONTINUOUS
10
177.0787619999999833
20
-152.6901259999999922
11
176.8882859999999937
21
-152.8806019999999819
0
LINE
8
BLACK
6
CONTINUOUS
10
176.8882859999999937
20
-152.8806019999999819
11
176.697810000000004
21
-152.9758400000000051
0
LINE
8
BLACK
6
CONTINUOUS
10
180.2216200000000015
20
-154.4044119999999793
11
180.2216200000000015
21
-152.4044119999999793
0
LINE
8
BLACK
6
CONTINUOUS
10
181.0787629999999808
20
-154.4044119999999793
11
181.0787629999999808
21
-153.3567929999999819
0
LINE
8
BLACK
6
CONTINUOUS
10
181.0787629999999808
20
-153.3567929999999819
11
180.983524999999986
21
-153.1663159999999948
0
LINE
8
BLACK
6
CONTINUOUS
10
180.983524999999986
20
-153.1663159999999948
11
180.7930489999999963
21
-153.071078
0
LINE
8
BLACK
6
CONTINUOUS
10
180.7930489999999963
20
-153.071078
11
180.507333999999986
21
-153.071078
0
LINE
8
BLACK
6
CONTINUOUS
10
180.507333999999986
20
-153.071078
11
180.3168579999999963
21
-153.1663159999999948
0
LINE
8
BLACK
6
CONTINUOUS
10
180.3168579999999963
20
-153.1663159999999948
11
180.2216200000000015
21
-153.2615539999999896
0
LINE
8
BLACK
6
CONTINUOUS
10
182.3168579999999963
20
-154.4044119999999793
11
182.1263819999999782
21
-154.3091739999999845
0
LINE
8
BLACK
6
CONTINUOUS
10
182.1263819999999782
20
-154.3091739999999845
11
182.0311439999999834
21
-154.2139349999999922
0
LINE
8
BLACK
6
CONTINUOUS
10
182.0311439999999834
20
-154.2139349999999922
11
181.9359059999999886
21
-154.0234590000000026
0
LINE
8
BLACK
6
CONTINUOUS
10
181.9359059999999886
20
-154.0234590000000026
11
181.9359059999999886
21
-153.4520310000000052
0
LINE
8
BLACK
6
CONTINUOUS
10
181.9359059999999886
20
-153.4520310000000052
11
182.0311439999999834
21
-153.2615539999999896
0
LINE
8
BLACK
6
CONTINUOUS
10
182.0311439999999834
20
-153.2615539999999896
11
182.1263819999999782
21
-153.1663159999999948
0
LINE
8
BLACK
6
CONTINUOUS
10
182.1263819999999782
20
-153.1663159999999948
11
182.3168579999999963
21
-153.071078
0
LINE
8
BLACK
6
CONTINUOUS
10
182.3168579999999963
20
-153.071078
11
182.6025729999999783
21
-153.071078
0
LINE
8
BLACK
6
CONTINUOUS
10
182.6025729999999783
20
-153.071078
11
182.7930489999999963
21
-153.1663159999999948
0
LINE
8
BLACK
6
CONTINUOUS
10
182.7930489999999963
20
-153.1663159999999948
11
182.8882869999999912
21
-153.2615539999999896
0
LINE
8
BLACK
6
CONTINUOUS
10
182.8882869999999912
20
-153.2615539999999896
11
182.983524999999986
21
-153.4520310000000052
0
LINE
8
BLACK
6
CONTINUOUS
10
182.983524999999986
20
-153.4520310000000052
11
182.983524999999986
21
-154.0234590000000026
0
LINE
8
BLACK
6
CONTINUOUS
10
182.983524999999986
20
-154.0234590000000026
11
182.8882869999999912
21
-154.2139349999999922
0
LINE
8
BLACK
6
CONTINUOUS
10
182.8882869999999912
20
-154.2139349999999922
11
182.7930489999999963
21
-154.3091739999999845
0
LINE
8
BLACK
6
CONTINUOUS
10
182.7930489999999963
20
-154.3091739999999845
11
182.6025729999999783
21
-154.4044119999999793
0
LINE
8
BLACK
6
CONTINUOUS
10
182.6025729999999783
20
-154.4044119999999793
11
182.3168579999999963
21
-154.4044119999999793
0
LINE
8
BLACK
6
CONTINUOUS
10
184.1263819999999782
20
-154.4044119999999793
11
183.9359059999999886
21
-154.3091739999999845
0
LINE
8
BLACK
6
CONTINUOUS
10
183.9359059999999886
20
-154.3091739999999845
11
183.8406679999999938
21
-154.1186969999999974
0
LINE
8
BLACK
6
CONTINUOUS
10
183.8406679999999938
20
-154.1186969999999974
11
183.8406679999999938
21
-152.4044119999999793
0
LINE
8
BLACK
6
CONTINUOUS
10
185.6501920000000041
20
-154.3091739999999845
11
185.459715999999986
21
-154.4044119999999793
0
LINE
8
BLACK
6
CONTINUOUS
10
185.459715999999986
20
-154.4044119999999793
11
185.0787629999999808
21
-154.4044119999999793
0
LINE
8
BLACK
6
CONTINUOUS
10
185.0787629999999808
20
-154.4044119999999793
11
184.8882869999999912
21
-154.3091739999999845
0
LINE
8
BLACK
6
CONTINUOUS
10
184.8882869999999912
20
-154.3091739999999845
11
184.7930489999999963
21
-154.1186969999999974
0
LINE
8
BLACK
6
CONTINUOUS
10
184.7930489999999963
20
-154.1186969999999974
11
184.7930489999999963
21
-153.3567929999999819
0
LINE
8
BLACK
6
CONTINUOUS
10
184.7930489999999963
20
-153.3567929999999819
11
184.8882869999999912
21
-153.1663159999999948
0
LINE
8
BLACK
6
CONTINUOUS
10
184.8882869999999912
20
-153.1663159999999948
11
185.0787629999999808
21
-153.071078
0
LINE
8
BLACK
6
CONTINUOUS
10
185.0787629999999808
20
-153.071078
11
185.459715999999986
21
-153.071078
0
LINE
8
BLACK
6
CONTINUOUS
10
185.459715999999986
20
-153.071078
11
185.6501920000000041
21
-153.1663159999999948
0
LINE
8
BLACK
6
CONTINUOUS
10
185.6501920000000041
20
-153.1663159999999948
11
185.7454299999999989
21
-153.3567929999999819
0
LINE
8
BLACK
6
CONTINUOUS
10
185.7454299999999989
20
-153.3567929999999819
11
185.7454299999999989
21
-153.547269
0
LINE
8
BLACK
6
CONTINUOUS
10
185.7454299999999989
20
-153.547269
11
184.7930489999999963
21
-153.7377449999999897
0
LINE
8
BLACK
6
CONTINUOUS
10
186.4120969999999886
20
-155.1663159999999948
11
186.5073349999999834
21
-155.071078
0
LINE
8
BLACK
6
CONTINUOUS
10
186.5073349999999834
20
-155.071078
11
186.6978110000000015
21
-154.7853639999999871
0
LINE
8
BLACK
6
CONTINUOUS
10
186.6978110000000015
20
-154.7853639999999871
11
186.7930489999999963
21
-154.5948879999999974
0
LINE
8
BLACK
6
CONTINUOUS
10
186.7930489999999963
20
-154.5948879999999974
11
186.8882869999999912
21
-154.3091739999999845
0
LINE
8
BLACK
6
CONTINUOUS
10
186.8882869999999912
20
-154.3091739999999845
11
186.983524999999986
21
-153.8329829999999845
0
LINE
8
BLACK
6
CONTINUOUS
10
186.983524999999986
20
-153.8329829999999845
11
186.983524999999986
21
-153.4520310000000052
0
LINE
8
BLACK
6
CONTINUOUS
10
186.983524999999986
20
-153.4520310000000052
11
186.8882869999999912
21
-152.9758400000000051
0
LINE
8
BLACK
6
CONTINUOUS
10
186.8882869999999912
20
-152.9758400000000051
11
186.7930489999999963
21
-152.6901259999999922
0
LINE
8
BLACK
6
CONTINUOUS
10
186.7930489999999963
20
-152.6901259999999922
11
186.6978110000000015
21
-152.4996500000000026
0
LINE
8
BLACK
6
CONTINUOUS
10
186.6978110000000015
20
-152.4996500000000026
11
186.5073349999999834
21
-152.2139349999999922
0
LINE
8
BLACK
6
CONTINUOUS
10
186.5073349999999834
20
-152.2139349999999922
11
186.4120969999999886
21
-152.1186969999999974
0
LINE
8
BLACK
6
CONTINUOUS
10
190.0311449999999809
20
-155.1663159999999948
11
189.9359059999999886
21
-155.071078
0
LINE
8
BLACK
6
CONTINUOUS
10
189.9359059999999886
20
-155.071078
11
189.7454299999999989
21
-154.7853639999999871
0
LINE
8
BLACK
6
CONTINUOUS
10
189.7454299999999989
20
-154.7853639999999871
11
189.6501920000000041
21
-154.5948879999999974
0
LINE
8
BLACK
6
CONTINUOUS
10
189.6501920000000041
20
-154.5948879999999974
11
189.5549539999999809
21
-154.3091739999999845
0
LINE
8
BLACK
6
CONTINUOUS
10
189.5549539999999809
20
-154.3091739999999845
11
189.459715999999986
21
-153.8329829999999845
0
LINE
8
BLACK
6
CONTINUOUS
10
189.459715999999986
20
-153.8329829999999845
11
189.459715999999986
21
-153.4520310000000052
0
LINE
8
BLACK
6
CONTINUOUS
10
189.459715999999986
20
-153.4520310000000052
11
189.5549539999999809
21
-152.9758400000000051
0
LINE
8
BLACK
6
CONTINUOUS
10
189.5549539999999809
20
-152.9758400000000051
11
189.6501920000000041
21
-152.6901259999999922
0
LINE
8
BLACK
6
CONTINUOUS
10
189.6501920000000041
20
-152.6901259999999922
11
189.7454299999999989
21
-152.4996500000000026
0
LINE
8
BLACK
6
CONTINUOUS
10
189.7454299999999989
20
-152.4996500000000026
11
189.9359059999999886
21
-152.2139349999999922
0
LINE
8
BLACK
6
CONTINUOUS
10
189.9359059999999886
20
-152.2139349999999922
11
190.0311449999999809
21
-152.1186969999999974
0
LINE
8
BLACK
6
CONTINUOUS
10
190.7930489999999963
20
-153.071078
11
190.7930489999999963
21
-154.4044119999999793
0
LINE
8
BLACK
6
CONTINUOUS
10
190.7930489999999963
20
-153.2615539999999896
11
190.8882869999999912
21
-153.1663159999999948
0
LINE
8
BLACK
6
CONTINUOUS
10
190.8882869999999912
20
-153.1663159999999948
11
191.0787629999999808
21
-153.071078
0
LINE
8
BLACK
6
CONTINUOUS
10
191.0787629999999808
20
-153.071078
11
191.3644779999999912
21
-153.071078
0
LINE
8
BLACK
6
CONTINUOUS
10
191.3644779999999912
20
-153.071078
11
191.5549539999999809
21
-153.1663159999999948
0
LINE
8
BLACK
6
CONTINUOUS
10
191.5549539999999809
20
-153.1663159999999948
11
191.6501920000000041
21
-153.3567929999999819
0
LINE
8
BLACK
6
CONTINUOUS
10
191.6501920000000041
20
-153.3567929999999819
11
191.6501920000000041
21
-154.4044119999999793
0
LINE
8
BLACK
6
CONTINUOUS
10
192.8882869999999912
20
-154.4044119999999793
11
192.6978110000000015
21
-154.3091739999999845
0
LINE
8
BLACK
6
CONTINUOUS
10
192.6978110000000015
20
-154.3091739999999845
11
192.6025729999999783
21
-154.2139349999999922
0
LINE
8
BLACK
6
CONTINUOUS
10
192.6025729999999783
20
-154.2139349999999922
11
192.5073349999999834
21
-154.0234590000000026
0
LINE
8
BLACK
6
CONTINUOUS
10
192.5073349999999834
20
-154.0234590000000026
11
192.5073349999999834
21
-153.4520310000000052
0
LINE
8
BLACK
6
CONTINUOUS
10
192.5073349999999834
20
-153.4520310000000052
11
192.6025729999999783
21
-153.2615539999999896
0
LINE
8
BLACK
6
CONTINUOUS
10
192.6025729999999783
20
-153.2615539999999896
11
192.6978110000000015
21
-153.1663159999999948
0
LINE
8
BLACK
6
CONTINUOUS
10
192.6978110000000015
20
-153.1663159999999948
11
192.8882869999999912
21
-153.071078
0
LINE
8
BLACK
6
CONTINUOUS
10
192.8882869999999912
20
-153.071078
11
193.1740020000000015
21
-153.071078
0
LINE
8
BLACK
6
CONTINUOUS
10
193.1740020000000015
20
-153.071078
11
193.3644779999999912
21
-153.1663159999999948
0
LINE
8
BLACK
6
CONTINUOUS
10
193.3644779999999912
20
-153.1663159999999948
11
193.459715999999986
21
-153.2615539999999896
0
LINE
8
BLACK
6
CONTINUOUS
10
193.459715999999986
20
-153.2615539999999896
11
193.5549539999999809
21
-153.4520310000000052
0
LINE
8
BLACK
6
CONTINUOUS
10
193.5549539999999809
20
-153.4520310000000052
11
193.5549539999999809
21
-154.0234590000000026
0
LINE
8
BLACK
6
CONTINUOUS
10
193.5549539999999809
20
-154.0234590000000026
11
193.459715999999986
21
-154.2139349999999922
0
LINE
8
BLACK
6
CONTINUOUS
10
193.459715999999986
20
-154.2139349999999922
11
193.3644779999999912
21
-154.3091739999999845
0
LINE
8
BLACK
6
CONTINUOUS
10
193.3644779999999912
20
-154.3091739999999845
11
193.1740020000000015
21
-154.4044119999999793
0
LINE
8
BLACK
6
CONTINUOUS
10
193.1740020000000015
20
-154.4044119999999793
11
192.8882869999999912
21
-154.4044119999999793
0
LINE
8
BLACK
6
CONTINUOUS
10
194.1263830000000041
20
-153.071078
11
194.8882869999999912
21
-153.071078
0
LINE
8
BLACK
6
CONTINUOUS
10
194.4120969999999886
20
-152.4044119999999793
11
194.4120969999999886
21
-154.1186969999999974
0
LINE
8
BLACK
6
CONTINUOUS
10
194.4120969999999886
20
-154.1186969999999974
11
194.5073349999999834
21
-154.3091739999999845
0
LINE
8
BLACK
6
CONTINUOUS
10
194.5073349999999834
20
-154.3091739999999845
11
194.6978110000000015
21
-154.4044119999999793
0
LINE
8
BLACK
6
CONTINUOUS
10
194.6978110000000015
20
-154.4044119999999793
11
194.8882869999999912
21
-154.4044119999999793
0
LINE
8
BLACK
6
CONTINUOUS
10
197.0787639999999783
20
-153.071078
11
197.0787639999999783
21
-155.071078
0
LINE
8
BLACK
6
CONTINUOUS
10
197.0787639999999783
20
-153.1663159999999948
11
197.2692399999999964
21
-153.071078
0
LINE
8
BLACK
6
CONTINUOUS
10
197.2692399999999964
20
-153.071078
11
197.6501930000000016
21
-153.071078
0
LINE
8
BLACK
6
CONTINUOUS
10
197.6501930000000016
20
-153.071078
11
197.8406689999999912
21
-153.1663159999999948
0
LINE
8
BLACK
6
CONTINUOUS
10
197.8406689999999912
20
-153.1663159999999948
11
197.9359069999999861
21
-153.2615539999999896
0
LINE
8
BLACK
6
CONTINUOUS
10
197.9359069999999861
20
-153.2615539999999896
11
198.0311449999999809
21
-153.4520310000000052
0
LINE
8
BLACK
6
CONTINUOUS
10
198.0311449999999809
20
-153.4520310000000052
11
198.0311449999999809
21
-154.0234590000000026
0
LINE
8
BLACK
6
CONTINUOUS
10
198.0311449999999809
20
-154.0234590000000026
11
197.9359069999999861
21
-154.2139349999999922
0
LINE
8
BLACK
6
CONTINUOUS
10
197.9359069999999861
20
-154.2139349999999922
11
197.8406689999999912
21
-154.3091739999999845
0
LINE
8
BLACK
6
CONTINUOUS
10
197.8406689999999912
20
-154.3091739999999845
11
197.6501930000000016
21
-154.4044119999999793
0
LINE
8
BLACK
6
CONTINUOUS
10
197.6501930000000016
20
-154.4044119999999793
11
197.2692399999999964
21
-154.4044119999999793
0
LINE
8
BLACK
6
CONTINUOUS
10
197.2692399999999964
20
-154.4044119999999793
11
197.0787639999999783
21
-154.3091739999999845
0
LINE
8
BLACK
6
CONTINUOUS
10
199.1740020000000015
20
-154.4044119999999793
11
198.9835259999999835
21
-154.3091739999999845
0
LINE
8
BLACK
6
CONTINUOUS
10
198.9835259999999835
20
-154.3091739999999845
11
198.8882879999999886
21
-154.1186969999999974
0
LINE
8
BLACK
6
CONTINUOUS
10
198.8882879999999886
20
-154.1186969999999974
11
198.8882879999999886
21
-152.4044119999999793
0
LINE
8
BLACK
6
CONTINUOUS
10
200.7930499999999938
20
-154.4044119999999793
11
200.7930499999999938
21
-153.3567929999999819
0
LINE
8
BLACK
6
CONTINUOUS
10
200.7930499999999938
20
-153.3567929999999819
11
200.697811999999999
21
-153.1663159999999948
0
LINE
8
BLACK
6
CONTINUOUS
10
200.697811999999999
20
-153.1663159999999948
11
200.5073359999999809
21
-153.071078
0
LINE
8
BLACK
6
CONTINUOUS
10
200.5073359999999809
20
-153.071078
11
200.1263830000000041
21
-153.071078
0
LINE
8
BLACK
6
CONTINUOUS
10
200.1263830000000041
20
-153.071078
11
199.9359069999999861
21
-153.1663159999999948
0
LINE
8
BLACK
6
CONTINUOUS
10
200.7930499999999938
20
-154.3091739999999845
11
200.6025740000000042
21
-154.4044119999999793
0
LINE
8
BLACK
6
CONTINUOUS
10
200.6025740000000042
20
-154.4044119999999793
11
200.1263830000000041
21
-154.4044119999999793
0
LINE
8
BLACK
6
CONTINUOUS
10
200.1263830000000041
20
-154.4044119999999793
11
199.9359069999999861
21
-154.3091739999999845
0
LINE
8
BLACK
6
CONTINUOUS
10
199.9359069999999861
20
-154.3091739999999845
11
199.8406689999999912
21
-154.1186969999999974
0
LINE
8
BLACK
6
CONTINUOUS
10
199.8406689999999912
20
-154.1186969999999974
11
199.8406689999999912
21
-153.9282209999999793
0
LINE
8
BLACK
6
CONTINUOUS
10
199.8406689999999912
20
-153.9282209999999793
11
199.9359069999999861
21
-153.7377449999999897
0
LINE
8
BLACK
6
CONTINUOUS
10
199.9359069999999861
20
-153.7377449999999897
11
200.1263830000000041
21
-153.6425069999999948
0
LINE
8
BLACK
6
CONTINUOUS
10
200.1263830000000041
20
-153.6425069999999948
11
200.6025740000000042
21
-153.6425069999999948
0
LINE
8
BLACK
6
CONTINUOUS
10
200.6025740000000042
20
-153.6425069999999948
11
200.7930499999999938
21
-153.547269
0
LINE
8
BLACK
6
CONTINUOUS
10
201.4597169999999835
20
-153.071078
11
202.221620999999999
21
-153.071078
0
LINE
8
BLACK
6
CONTINUOUS
10
201.7454309999999964
20
-152.4044119999999793
11
201.7454309999999964
21
-154.1186969999999974
0
LINE
8
BLACK
6
CONTINUOUS
10
201.7454309999999964
20
-154.1186969999999974
11
201.8406689999999912
21
-154.3091739999999845
0
LINE
8
BLACK
6
CONTINUOUS
10
201.8406689999999912
20
-154.3091739999999845
11
202.0311449999999809
21
-154.4044119999999793
0
LINE
8
BLACK
6
CONTINUOUS
10
202.0311449999999809
20
-154.4044119999999793
11
202.221620999999999
21
-154.4044119999999793
0
LINE
8
BLACK
6
CONTINUOUS
10
203.6501930000000016
20
-154.3091739999999845
11
203.4597169999999835
21
-154.4044119999999793
0
LINE
8
BLACK
6
CONTINUOUS
10
203.4597169999999835
20
-154.4044119999999793
11
203.0787639999999783
21
-154.4044119999999793
0
LINE
8
BLACK
6
CONTINUOUS
10
203.0787639999999783
20
-154.4044119999999793
11
202.8882879999999886
21
-154.3091739999999845
0
LINE
8
BLACK
6
CONTINUOUS
10
202.8882879999999886
20
-154.3091739999999845
11
202.7930499999999938
21
-154.1186969999999974
0
LINE
8
BLACK
6
CONTINUOUS
10
202.7930499999999938
20
-154.1186969999999974
11
202.7930499999999938
21
-153.3567929999999819
0
LINE
8
BLACK
6
CONTINUOUS
10
202.7930499999999938
20
-153.3567929999999819
11
202.8882879999999886
21
-153.1663159999999948
0
LINE
8
BLACK
6
CONTINUOUS
10
202.8882879999999886
20
-153.1663159999999948
11
203.0787639999999783
21
-153.071078
0
LINE
8
BLACK
6
CONTINUOUS
10
203.0787639999999783
20
-153.071078
11
203.4597169999999835
21
-153.071078
0
LINE
8
BLACK
6
CONTINUOUS
10
203.4597169999999835
20
-153.071078
11
203.6501930000000016
21
-153.1663159999999948
0
LINE
8
BLACK
6
CONTINUOUS
10
203.6501930000000016
20
-153.1663159999999948
11
203.7454309999999964
21
-153.3567929999999819
0
LINE
8
BLACK
6
CONTINUOUS
10
203.7454309999999964
20
-153.3567929999999819
11
203.7454309999999964
21
-153.547269
0
LINE
8
BLACK
6
CONTINUOUS
10
203.7454309999999964
20
-153.547269
11
202.7930499999999938
21
-153.7377449999999897
0
LINE
8
BLACK
6
CONTINUOUS
10
205.4597169999999835
20
-154.4044119999999793
11
205.4597169999999835
21
-152.4044119999999793
0
LINE
8
BLACK
6
CONTINUOUS
10
205.4597169999999835
20
-154.3091739999999845
11
205.2692409999999938
21
-154.4044119999999793
0
LINE
8
BLACK
6
CONTINUOUS
10
205.2692409999999938
20
-154.4044119999999793
11
204.8882879999999886
21
-154.4044119999999793
0
LINE
8
BLACK
6
CONTINUOUS
10
204.8882879999999886
20
-154.4044119999999793
11
204.697811999999999
21
-154.3091739999999845
0
LINE
8
BLACK
6
CONTINUOUS
10
204.697811999999999
20
-154.3091739999999845
11
204.6025740000000042
21
-154.2139349999999922
0
LINE
8
BLACK
6
CONTINUOUS
10
204.6025740000000042
20
-154.2139349999999922
11
204.5073359999999809
21
-154.0234590000000026
0
LINE
8
BLACK
6
CONTINUOUS
10
204.5073359999999809
20
-154.0234590000000026
11
204.5073359999999809
21
-153.4520310000000052
0
LINE
8
BLACK
6
CONTINUOUS
10
204.5073359999999809
20
-153.4520310000000052
11
204.6025740000000042
21
-153.2615539999999896
0
LINE
8
BLACK
6
CONTINUOUS
10
204.6025740000000042
20
-153.2615539999999896
11
204.697811999999999
21
-153.1663159999999948
0
LINE
8
BLACK
6
CONTINUOUS
10
204.697811999999999
20
-153.1663159999999948
11
204.8882879999999886
21
-153.071078
0
LINE
8
BLACK
6
CONTINUOUS
10
204.8882879999999886
20
-153.071078
11
205.2692409999999938
21
-153.071078
0
LINE
8
BLACK
6
CONTINUOUS
10
205.2692409999999938
20
-153.071078
11
205.4597169999999835
21
-153.1663159999999948
0
LINE
8
BLACK
6
CONTINUOUS
10
206.2216219999999964
20
-155.1663159999999948
11
206.3168599999999913
21
-155.071078
0
LINE
8
BLACK
6
CONTINUOUS
10
206.3168599999999913
20
-155.071078
11
206.5073359999999809
21
-154.7853639999999871
0
LINE
8
BLACK
6
CONTINUOUS
10
206.5073359999999809
20
-154.7853639999999871
11
206.6025740000000042
21
-154.5948879999999974
0
LINE
8
BLACK
6
CONTINUOUS
10
206.6025740000000042
20
-154.5948879999999974
11
206.697811999999999
21
-154.3091739999999845
0
LINE
8
BLACK
6
CONTINUOUS
10
206.697811999999999
20
-154.3091739999999845
11
206.7930499999999938
21
-153.8329829999999845
0
LINE
8
BLACK
6
CONTINUOUS
10
206.7930499999999938
20
-153.8329829999999845
11
206.7930499999999938
21
-153.4520310000000052
0
LINE
8
BLACK
6
CONTINUOUS
10
206.7930499999999938
20
-153.4520310000000052
11
206.697811999999999
21
-152.9758400000000051
0
LINE
8
BLACK
6
CONTINUOUS
10
206.697811999999999
20
-152.9758400000000051
11
206.6025740000000042
21
-152.6901259999999922
0
LINE
8
BLACK
6
CONTINUOUS
10
206.6025740000000042
20
-152.6901259999999922
11
206.5073359999999809
21
-152.4996500000000026
0
LINE
8
BLACK
6
CONTINUOUS
10
206.5073359999999809
20
-152.4996500000000026
11
206.3168599999999913
21
-152.2139349999999922
0
LINE
8
BLACK
6
CONTINUOUS
10
206.3168599999999913
20
-152.2139349999999922
11
206.2216219999999964
21
-152.1186969999999974
  0
ENDSEC
  0
EOF
