G04 #@! TF.GenerationSoftware,KiCad,Pcbnew,(6.0.7)*
G04 #@! TF.CreationDate,2023-04-28T08:19:35+10:00*
G04 #@! TF.ProjectId,NEW_STANDBY_SHEILD,4e45575f-5354-4414-9e44-42595f534845,rev?*
G04 #@! TF.SameCoordinates,Original*
G04 #@! TF.FileFunction,Copper,L2,Bot*
G04 #@! TF.FilePolarity,Positive*
%FSLAX46Y46*%
G04 Gerber Fmt 4.6, Leading zero omitted, Abs format (unit mm)*
G04 Created by KiCad (PCBNEW (6.0.7)) date 2023-04-28 08:19:35*
%MOMM*%
%LPD*%
G01*
G04 APERTURE LIST*
G04 Aperture macros list*
%AMRoundRect*
0 Rectangle with rounded corners*
0 $1 Rounding radius*
0 $2 $3 $4 $5 $6 $7 $8 $9 X,Y pos of 4 corners*
0 Add a 4 corners polygon primitive as box body*
4,1,4,$2,$3,$4,$5,$6,$7,$8,$9,$2,$3,0*
0 Add four circle primitives for the rounded corners*
1,1,$1+$1,$2,$3*
1,1,$1+$1,$4,$5*
1,1,$1+$1,$6,$7*
1,1,$1+$1,$8,$9*
0 Add four rect primitives between the rounded corners*
20,1,$1+$1,$2,$3,$4,$5,0*
20,1,$1+$1,$4,$5,$6,$7,0*
20,1,$1+$1,$6,$7,$8,$9,0*
20,1,$1+$1,$8,$9,$2,$3,0*%
G04 Aperture macros list end*
G04 #@! TA.AperFunction,ComponentPad*
%ADD10C,1.727200*%
G04 #@! TD*
G04 #@! TA.AperFunction,ComponentPad*
%ADD11O,1.727200X1.727200*%
G04 #@! TD*
G04 #@! TA.AperFunction,ComponentPad*
%ADD12O,1.727200X2.032000*%
G04 #@! TD*
G04 #@! TA.AperFunction,ComponentPad*
%ADD13R,1.700000X1.700000*%
G04 #@! TD*
G04 #@! TA.AperFunction,ComponentPad*
%ADD14O,1.700000X1.700000*%
G04 #@! TD*
G04 #@! TA.AperFunction,ComponentPad*
%ADD15R,1.800000X1.800000*%
G04 #@! TD*
G04 #@! TA.AperFunction,ComponentPad*
%ADD16C,1.800000*%
G04 #@! TD*
G04 #@! TA.AperFunction,ComponentPad*
%ADD17C,1.400000*%
G04 #@! TD*
G04 #@! TA.AperFunction,ComponentPad*
%ADD18O,1.400000X1.400000*%
G04 #@! TD*
G04 #@! TA.AperFunction,ComponentPad*
%ADD19RoundRect,0.250000X0.600000X-0.600000X0.600000X0.600000X-0.600000X0.600000X-0.600000X-0.600000X0*%
G04 #@! TD*
G04 #@! TA.AperFunction,ComponentPad*
%ADD20C,1.700000*%
G04 #@! TD*
G04 #@! TA.AperFunction,ComponentPad*
%ADD21RoundRect,0.250000X-0.600000X-0.725000X0.600000X-0.725000X0.600000X0.725000X-0.600000X0.725000X0*%
G04 #@! TD*
G04 #@! TA.AperFunction,ComponentPad*
%ADD22O,1.700000X1.950000*%
G04 #@! TD*
G04 #@! TA.AperFunction,ComponentPad*
%ADD23RoundRect,0.250000X-0.725000X0.600000X-0.725000X-0.600000X0.725000X-0.600000X0.725000X0.600000X0*%
G04 #@! TD*
G04 #@! TA.AperFunction,ComponentPad*
%ADD24O,1.950000X1.700000*%
G04 #@! TD*
G04 #@! TA.AperFunction,ComponentPad*
%ADD25C,1.600000*%
G04 #@! TD*
G04 #@! TA.AperFunction,ComponentPad*
%ADD26R,3.500000X3.500000*%
G04 #@! TD*
G04 #@! TA.AperFunction,ComponentPad*
%ADD27RoundRect,0.750000X-0.750000X-1.000000X0.750000X-1.000000X0.750000X1.000000X-0.750000X1.000000X0*%
G04 #@! TD*
G04 #@! TA.AperFunction,ComponentPad*
%ADD28RoundRect,0.875000X-0.875000X-0.875000X0.875000X-0.875000X0.875000X0.875000X-0.875000X0.875000X0*%
G04 #@! TD*
G04 #@! TA.AperFunction,ComponentPad*
%ADD29R,1.500000X1.600000*%
G04 #@! TD*
G04 #@! TA.AperFunction,ComponentPad*
%ADD30C,3.000000*%
G04 #@! TD*
G04 #@! TA.AperFunction,ComponentPad*
%ADD31RoundRect,0.250001X1.399999X-1.099999X1.399999X1.099999X-1.399999X1.099999X-1.399999X-1.099999X0*%
G04 #@! TD*
G04 #@! TA.AperFunction,ComponentPad*
%ADD32O,3.300000X2.700000*%
G04 #@! TD*
G04 #@! TA.AperFunction,ComponentPad*
%ADD33R,1.600000X1.600000*%
G04 #@! TD*
G04 #@! TA.AperFunction,ComponentPad*
%ADD34O,1.600000X1.600000*%
G04 #@! TD*
G04 #@! TA.AperFunction,ComponentPad*
%ADD35RoundRect,0.250000X-0.600000X0.600000X-0.600000X-0.600000X0.600000X-0.600000X0.600000X0.600000X0*%
G04 #@! TD*
G04 #@! TA.AperFunction,ComponentPad*
%ADD36RoundRect,0.250000X0.750000X-0.600000X0.750000X0.600000X-0.750000X0.600000X-0.750000X-0.600000X0*%
G04 #@! TD*
G04 #@! TA.AperFunction,ComponentPad*
%ADD37O,2.000000X1.700000*%
G04 #@! TD*
G04 #@! TA.AperFunction,ViaPad*
%ADD38C,0.600000*%
G04 #@! TD*
G04 #@! TA.AperFunction,Conductor*
%ADD39C,0.250000*%
G04 #@! TD*
G04 #@! TA.AperFunction,Conductor*
%ADD40C,0.450000*%
G04 #@! TD*
G04 APERTURE END LIST*
D10*
X197358000Y-114046000D03*
D11*
X199898000Y-114046000D03*
X197358000Y-111506000D03*
X199898000Y-111506000D03*
X197358000Y-108966000D03*
X199898000Y-108966000D03*
X197358000Y-106426000D03*
X199898000Y-106426000D03*
X197358000Y-103886000D03*
X199898000Y-103886000D03*
X197358000Y-101346000D03*
X199898000Y-101346000D03*
X197358000Y-98806000D03*
X199898000Y-98806000D03*
X197358000Y-96266000D03*
X199898000Y-96266000D03*
X197358000Y-93726000D03*
X199898000Y-93726000D03*
X197358000Y-91186000D03*
X199898000Y-91186000D03*
X197358000Y-88646000D03*
X199898000Y-88646000D03*
X197358000Y-86106000D03*
X199898000Y-86106000D03*
X197358000Y-83566000D03*
X199898000Y-83566000D03*
X197358000Y-81026000D03*
X199898000Y-81026000D03*
X197358000Y-78486000D03*
X199898000Y-78486000D03*
X197358000Y-75946000D03*
X199898000Y-75946000D03*
X197358000Y-73406000D03*
X199898000Y-73406000D03*
X197358000Y-70866000D03*
X199898000Y-70866000D03*
D12*
X131318000Y-119126000D03*
X133858000Y-119126000D03*
X136398000Y-119126000D03*
X138938000Y-119126000D03*
X141478000Y-119126000D03*
X144018000Y-119126000D03*
X146558000Y-119126000D03*
X149098000Y-119126000D03*
D13*
X154178000Y-119126000D03*
D14*
X156718000Y-119126000D03*
X159258000Y-119126000D03*
X161798000Y-119126000D03*
X164338000Y-119126000D03*
X166878000Y-119126000D03*
D12*
X177038000Y-119126000D03*
X179578000Y-119126000D03*
X182118000Y-119126000D03*
X184658000Y-119126000D03*
X187198000Y-119126000D03*
X189738000Y-119126000D03*
X192278000Y-119126000D03*
X194818000Y-119126000D03*
X127254000Y-70866000D03*
X129794000Y-70866000D03*
X132334000Y-70866000D03*
X134874000Y-70866000D03*
X137414000Y-70866000D03*
X139954000Y-70866000D03*
X142494000Y-70866000D03*
X145034000Y-70866000D03*
X149098000Y-70866000D03*
X151638000Y-70866000D03*
X154178000Y-70866000D03*
X156718000Y-70866000D03*
X159258000Y-70866000D03*
X161798000Y-70866000D03*
X164338000Y-70866000D03*
X166878000Y-70866000D03*
X171958000Y-70866000D03*
X174498000Y-70866000D03*
X177038000Y-70866000D03*
X179578000Y-70866000D03*
X182118000Y-70866000D03*
X184658000Y-70866000D03*
X187198000Y-70866000D03*
X189738000Y-70866000D03*
D15*
X145300000Y-81025000D03*
D16*
X145300000Y-78485000D03*
D15*
X145300000Y-86525000D03*
D16*
X145300000Y-83985000D03*
D17*
X151150000Y-83300000D03*
D18*
X153690000Y-83300000D03*
D17*
X151050000Y-86950000D03*
D18*
X153590000Y-86950000D03*
D19*
X207890000Y-116450000D03*
D20*
X207890000Y-113910000D03*
X210430000Y-116450000D03*
X210430000Y-113910000D03*
X212970000Y-116450000D03*
X212970000Y-113910000D03*
X215510000Y-116450000D03*
X215510000Y-113910000D03*
X218050000Y-116450000D03*
X218050000Y-113910000D03*
X220590000Y-116450000D03*
X220590000Y-113910000D03*
X223130000Y-116450000D03*
X223130000Y-113910000D03*
D15*
X146350000Y-111925000D03*
D16*
X146350000Y-109385000D03*
D21*
X178388000Y-110727000D03*
D22*
X180888000Y-110727000D03*
X183388000Y-110727000D03*
X185888000Y-110727000D03*
X188388000Y-110727000D03*
X190888000Y-110727000D03*
D23*
X189738000Y-77630000D03*
D24*
X189738000Y-80130000D03*
X189738000Y-82630000D03*
X189738000Y-85130000D03*
X189738000Y-87630000D03*
X189738000Y-90130000D03*
X189738000Y-92630000D03*
X189738000Y-95130000D03*
X189738000Y-97630000D03*
X189738000Y-100130000D03*
D17*
X151750000Y-109960000D03*
D18*
X151750000Y-112500000D03*
D25*
X241049600Y-90620000D03*
X244549600Y-90620000D03*
X224649600Y-90120000D03*
X228149600Y-90120000D03*
D26*
X135650000Y-97800000D03*
D27*
X129650000Y-97800000D03*
D28*
X132650000Y-102500000D03*
D29*
X136750000Y-79000000D03*
D25*
X136750000Y-81500000D03*
X136750000Y-83500000D03*
X136750000Y-86000000D03*
D30*
X134040000Y-75930000D03*
X134040000Y-89070000D03*
D31*
X269850000Y-98100000D03*
D32*
X269850000Y-93900000D03*
X275350000Y-98100000D03*
X275350000Y-93900000D03*
D25*
X257049600Y-90620000D03*
X260549600Y-90620000D03*
D33*
X264889600Y-99170000D03*
D34*
X264889600Y-96630000D03*
X264889600Y-94090000D03*
X264889600Y-91550000D03*
X264889600Y-89010000D03*
X264889600Y-86470000D03*
X264889600Y-83930000D03*
X264889600Y-81390000D03*
X252189600Y-81390000D03*
X252189600Y-83930000D03*
X252189600Y-86470000D03*
X252189600Y-89010000D03*
X252189600Y-91550000D03*
X252189600Y-94090000D03*
X252189600Y-96630000D03*
X252189600Y-99170000D03*
D26*
X135750000Y-110242500D03*
D27*
X129750000Y-110242500D03*
D28*
X132750000Y-114942500D03*
D25*
X159425000Y-83693000D03*
X164425000Y-83693000D03*
D15*
X146250000Y-106350000D03*
D16*
X146250000Y-103810000D03*
D35*
X256280000Y-73047500D03*
D20*
X256280000Y-75587500D03*
X253740000Y-73047500D03*
X253740000Y-75587500D03*
X251200000Y-73047500D03*
X251200000Y-75587500D03*
X248660000Y-73047500D03*
X248660000Y-75587500D03*
X246120000Y-73047500D03*
X246120000Y-75587500D03*
X243580000Y-73047500D03*
X243580000Y-75587500D03*
X241040000Y-73047500D03*
X241040000Y-75587500D03*
X238500000Y-73047500D03*
X238500000Y-75587500D03*
X235960000Y-73047500D03*
X235960000Y-75587500D03*
X233420000Y-73047500D03*
X233420000Y-75587500D03*
X230880000Y-73047500D03*
X230880000Y-75587500D03*
X228340000Y-73047500D03*
X228340000Y-75587500D03*
X225800000Y-73047500D03*
X225800000Y-75587500D03*
X223260000Y-73047500D03*
X223260000Y-75587500D03*
X220720000Y-73047500D03*
X220720000Y-75587500D03*
X218180000Y-73047500D03*
X218180000Y-75587500D03*
X215640000Y-73047500D03*
X215640000Y-75587500D03*
X213100000Y-73047500D03*
X213100000Y-75587500D03*
X210560000Y-73047500D03*
X210560000Y-75587500D03*
X208020000Y-73047500D03*
X208020000Y-75587500D03*
D17*
X151750000Y-103010000D03*
D18*
X151750000Y-105550000D03*
D33*
X232739600Y-99170000D03*
D34*
X232739600Y-96630000D03*
X232739600Y-94090000D03*
X232739600Y-91550000D03*
X232739600Y-89010000D03*
X232739600Y-86470000D03*
X232739600Y-83930000D03*
X232739600Y-81390000D03*
X220039600Y-81390000D03*
X220039600Y-83930000D03*
X220039600Y-86470000D03*
X220039600Y-89010000D03*
X220039600Y-91550000D03*
X220039600Y-94090000D03*
X220039600Y-96630000D03*
X220039600Y-99170000D03*
D23*
X179595000Y-77650000D03*
D24*
X179595000Y-80150000D03*
X179595000Y-82650000D03*
X179595000Y-85150000D03*
X179595000Y-87650000D03*
X179595000Y-90150000D03*
X179595000Y-92650000D03*
X179595000Y-95150000D03*
X179595000Y-97650000D03*
X179595000Y-100150000D03*
D36*
X275100000Y-111100000D03*
D37*
X275100000Y-108600000D03*
D23*
X162450000Y-89321000D03*
D24*
X162450000Y-91821000D03*
X162450000Y-94321000D03*
D23*
X162577000Y-101446000D03*
D24*
X162577000Y-103946000D03*
X162577000Y-106446000D03*
X162577000Y-108946000D03*
X162577000Y-111446000D03*
X162577000Y-113946000D03*
D33*
X237050000Y-118867500D03*
D34*
X239590000Y-118867500D03*
X242130000Y-118867500D03*
X244670000Y-118867500D03*
X247210000Y-118867500D03*
X249750000Y-118867500D03*
X252290000Y-118867500D03*
X254830000Y-118867500D03*
X254830000Y-111247500D03*
X252290000Y-111247500D03*
X249750000Y-111247500D03*
X247210000Y-111247500D03*
X244670000Y-111247500D03*
X242130000Y-111247500D03*
X239590000Y-111247500D03*
X237050000Y-111247500D03*
D33*
X248889600Y-99170000D03*
D34*
X248889600Y-96630000D03*
X248889600Y-94090000D03*
X248889600Y-91550000D03*
X248889600Y-89010000D03*
X248889600Y-86470000D03*
X248889600Y-83930000D03*
X248889600Y-81390000D03*
X236189600Y-81390000D03*
X236189600Y-83930000D03*
X236189600Y-86470000D03*
X236189600Y-89010000D03*
X236189600Y-91550000D03*
X236189600Y-94090000D03*
X236189600Y-96630000D03*
X236189600Y-99170000D03*
D33*
X216589600Y-99170000D03*
D34*
X216589600Y-96630000D03*
X216589600Y-94090000D03*
X216589600Y-91550000D03*
X216589600Y-89010000D03*
X216589600Y-86470000D03*
X216589600Y-83930000D03*
X216589600Y-81390000D03*
X203889600Y-81390000D03*
X203889600Y-83930000D03*
X203889600Y-86470000D03*
X203889600Y-89010000D03*
X203889600Y-91550000D03*
X203889600Y-94090000D03*
X203889600Y-96630000D03*
X203889600Y-99170000D03*
D25*
X208599600Y-90520000D03*
X212099600Y-90520000D03*
D31*
X269850000Y-86950000D03*
D32*
X269850000Y-82750000D03*
X275350000Y-86950000D03*
X275350000Y-82750000D03*
D38*
X236207000Y-102698000D03*
X228675700Y-99875000D03*
X222285500Y-91370700D03*
X202341500Y-82424400D03*
X188043000Y-80756700D03*
X186022100Y-93491500D03*
X227485500Y-106423300D03*
X194156500Y-96194800D03*
X206542100Y-107614900D03*
X206753000Y-105090600D03*
X243648400Y-104879900D03*
X239807500Y-77710900D03*
X241830900Y-77710900D03*
X258621900Y-73364400D03*
X259438700Y-75538100D03*
X226205700Y-99095100D03*
X225389200Y-97281000D03*
X238800300Y-85480900D03*
X239047500Y-87740000D03*
D39*
X248889600Y-85055300D02*
X248608200Y-85055300D01*
X247764300Y-91140700D02*
X236207000Y-102698000D01*
X248889600Y-83930000D02*
X248889600Y-85055300D01*
X247764300Y-85899200D02*
X247764300Y-91140700D01*
X248608200Y-85055300D02*
X247764300Y-85899200D01*
X248889600Y-81390000D02*
X247764300Y-81390000D01*
X235859500Y-92820000D02*
X233319500Y-95360000D01*
X228675700Y-99023100D02*
X228675700Y-99875000D01*
X236559300Y-92820000D02*
X235859500Y-92820000D01*
X232338800Y-95360000D02*
X228675700Y-99023100D01*
X247764300Y-81615000D02*
X236559300Y-92820000D01*
X247764300Y-81390000D02*
X247764300Y-81615000D01*
X233319500Y-95360000D02*
X232338800Y-95360000D01*
X203207100Y-100775300D02*
X201086900Y-98655100D01*
X231614300Y-85899200D02*
X231614300Y-89186900D01*
X232739600Y-83930000D02*
X232739600Y-85055300D01*
X200269600Y-97454900D02*
X199898000Y-97454900D01*
X201086900Y-98272200D02*
X200269600Y-97454900D01*
X220025900Y-100775300D02*
X203207100Y-100775300D01*
X231614300Y-89186900D02*
X220025900Y-100775300D01*
X199898000Y-96266000D02*
X199898000Y-97454900D01*
X201086900Y-98655100D02*
X201086900Y-98272200D01*
X232739600Y-85055300D02*
X232458200Y-85055300D01*
X232458200Y-85055300D02*
X231614300Y-85899200D01*
X231614300Y-81390000D02*
X231057000Y-81390000D01*
X222285500Y-90161500D02*
X222285500Y-91370700D01*
X231057000Y-81390000D02*
X222285500Y-90161500D01*
X232739600Y-81390000D02*
X231614300Y-81390000D01*
D40*
X134040000Y-89070000D02*
X136750000Y-86360000D01*
X162450000Y-94321000D02*
X162450000Y-94810500D01*
X134040000Y-75930000D02*
X130417300Y-72307300D01*
X129650000Y-97800000D02*
X134040000Y-93410000D01*
X146581300Y-107675300D02*
X147732100Y-108826100D01*
X162450000Y-94810500D02*
X164425000Y-92835500D01*
X136750000Y-86000000D02*
X134040000Y-83290000D01*
X146250000Y-107675300D02*
X146581300Y-107675300D01*
X129794000Y-70866000D02*
X129794000Y-72307300D01*
X134040000Y-83290000D02*
X134040000Y-75930000D01*
X134040000Y-93410000D02*
X134040000Y-89070000D01*
X162577000Y-103946000D02*
X161174800Y-102543800D01*
X162450000Y-94958600D02*
X162450000Y-94810500D01*
X146250000Y-106350000D02*
X146250000Y-107675300D01*
X162450000Y-94958600D02*
X162450000Y-95596300D01*
X147732100Y-108826100D02*
X147732100Y-110542900D01*
X161174800Y-96871500D02*
X162450000Y-95596300D01*
X136750000Y-86360000D02*
X136750000Y-86000000D01*
X161174800Y-102543800D02*
X161174800Y-96871500D01*
X164425000Y-92835500D02*
X164425000Y-83693000D01*
X130417300Y-72307300D02*
X129794000Y-72307300D01*
X147732100Y-110542900D02*
X146350000Y-111925000D01*
D39*
X195718700Y-75657800D02*
X190926900Y-70866000D01*
X207890000Y-112726300D02*
X200319700Y-105156000D01*
X200319700Y-105156000D02*
X196926900Y-105156000D01*
X196926900Y-105156000D02*
X195718700Y-103947800D01*
X207890000Y-113910000D02*
X207890000Y-112726300D01*
X195718700Y-103947800D02*
X195718700Y-75657800D01*
X189738000Y-70866000D02*
X190926900Y-70866000D01*
D40*
X179595000Y-95150000D02*
X178158800Y-96586200D01*
X178158800Y-110497800D02*
X178388000Y-110727000D01*
X178158800Y-96586200D02*
X178158800Y-110497800D01*
X146540000Y-97800000D02*
X135650000Y-97800000D01*
X151750000Y-103010000D02*
X146540000Y-97800000D01*
D39*
X159425000Y-88502200D02*
X159425000Y-83693000D01*
X162450000Y-91821000D02*
X162450000Y-90645700D01*
X161568500Y-90645700D02*
X159425000Y-88502200D01*
X162450000Y-90645700D02*
X161568500Y-90645700D01*
D40*
X269850000Y-82750000D02*
X269850000Y-86950000D01*
X269850000Y-86950000D02*
X269850000Y-93900000D01*
X269850000Y-93900000D02*
X269850000Y-98100000D01*
D39*
X196943700Y-110236000D02*
X201676000Y-110236000D01*
X194818000Y-82710000D02*
X194818000Y-108110300D01*
X201676000Y-110236000D02*
X207890000Y-116450000D01*
X189738000Y-77630000D02*
X194818000Y-82710000D01*
X194818000Y-108110300D02*
X196943700Y-110236000D01*
X224494600Y-115085400D02*
X223130000Y-116450000D01*
X224494700Y-115085400D02*
X224494600Y-115085400D01*
X233175000Y-90171600D02*
X231609500Y-90171600D01*
X234078700Y-89267900D02*
X233175000Y-90171600D01*
X231609500Y-90171600D02*
X224494700Y-97286400D01*
X234078700Y-84426500D02*
X234078700Y-89267900D01*
X235845200Y-82660000D02*
X234078700Y-84426500D01*
X224494700Y-97286400D02*
X224494700Y-115085400D01*
X241040000Y-75587500D02*
X241040000Y-78197400D01*
X236577400Y-82660000D02*
X235845200Y-82660000D01*
X241040000Y-78197400D02*
X236577400Y-82660000D01*
X179595000Y-77650000D02*
X182075000Y-80130000D01*
X182075000Y-80130000D02*
X189738000Y-80130000D01*
X192991500Y-115958200D02*
X194818000Y-117784700D01*
X192991500Y-86544600D02*
X192991500Y-115958200D01*
X194818000Y-119126000D02*
X194818000Y-117784700D01*
X190252200Y-83805300D02*
X192991500Y-86544600D01*
X189738000Y-83805300D02*
X190252200Y-83805300D01*
X189738000Y-82630000D02*
X189738000Y-83805300D01*
X199898000Y-88646000D02*
X199898000Y-87457100D01*
X200269500Y-87457100D02*
X202341500Y-85385100D01*
X199898000Y-87457100D02*
X200269500Y-87457100D01*
X202341500Y-85385100D02*
X202341500Y-82424400D01*
X189638000Y-117684700D02*
X189638000Y-109951800D01*
X189738000Y-117784700D02*
X189638000Y-117684700D01*
X188043000Y-108356800D02*
X188043000Y-80756700D01*
X189638000Y-109951800D02*
X188043000Y-108356800D01*
X189738000Y-119126000D02*
X189738000Y-117784700D01*
X199898000Y-81026000D02*
X201086900Y-81026000D01*
X201867700Y-81026000D02*
X201086900Y-81026000D01*
X203646400Y-82804700D02*
X201867700Y-81026000D01*
X214339000Y-82804700D02*
X203646400Y-82804700D01*
X215464300Y-83930000D02*
X214339000Y-82804700D01*
X216589600Y-83930000D02*
X215464300Y-83930000D01*
X215464300Y-99170000D02*
X214336600Y-100297700D01*
X201954400Y-94091500D02*
X200237900Y-92375000D01*
X200237900Y-92375000D02*
X199332300Y-92375000D01*
X199898000Y-78486000D02*
X199898000Y-79674900D01*
X199332300Y-92375000D02*
X198681700Y-91724400D01*
X203366400Y-100297700D02*
X201954400Y-98885700D01*
X216589600Y-99170000D02*
X215464300Y-99170000D01*
X198681700Y-80521700D02*
X199528500Y-79674900D01*
X198681700Y-91724400D02*
X198681700Y-80521700D01*
X201954400Y-98885700D02*
X201954400Y-94091500D01*
X199528500Y-79674900D02*
X199898000Y-79674900D01*
X214336600Y-100297700D02*
X203366400Y-100297700D01*
X151050000Y-86950000D02*
X147745800Y-83645800D01*
X147745800Y-83645800D02*
X147745800Y-72388900D01*
X145034000Y-70866000D02*
X146222900Y-70866000D01*
X147745800Y-72388900D02*
X146222900Y-70866000D01*
X152320000Y-98027900D02*
X152320000Y-86434400D01*
X152320000Y-86434400D02*
X149098000Y-83212400D01*
X149098000Y-83212400D02*
X149098000Y-70866000D01*
X162577000Y-107770700D02*
X162062800Y-107770700D01*
X162577000Y-108946000D02*
X162577000Y-107770700D01*
X162062800Y-107770700D02*
X152320000Y-98027900D01*
X210560000Y-75587500D02*
X208020000Y-75587500D01*
X208020000Y-76134300D02*
X208020000Y-75587500D01*
X218914300Y-81390000D02*
X217789000Y-80264700D01*
X236189600Y-81390000D02*
X235064300Y-81390000D01*
X236189600Y-96630000D02*
X235031300Y-97788300D01*
X223519600Y-89643800D02*
X223519600Y-92288300D01*
X217789000Y-80264700D02*
X215237200Y-80264700D01*
X203889600Y-96630000D02*
X203889600Y-95504700D01*
X203889600Y-80264700D02*
X208020000Y-76134300D01*
X216919900Y-92820000D02*
X214399600Y-92820000D01*
X215237200Y-80264700D02*
X210560000Y-75587500D01*
X239590000Y-111247500D02*
X238464700Y-111247500D01*
X233939000Y-82515300D02*
X232559700Y-82515300D01*
X235064300Y-81390000D02*
X233939000Y-82515300D01*
X206698200Y-90819600D02*
X208130600Y-89387200D01*
X228149600Y-86925400D02*
X228149600Y-88946400D01*
X210966800Y-89387200D02*
X212099600Y-90520000D01*
X203889600Y-81390000D02*
X203889600Y-80264700D01*
X237050000Y-110684800D02*
X237050000Y-110122200D01*
X237050000Y-111247500D02*
X237050000Y-110684800D01*
X237902000Y-110684800D02*
X238464700Y-111247500D01*
X204170900Y-95504700D02*
X206698200Y-92977400D01*
X208130600Y-89387200D02*
X210966800Y-89387200D01*
X220039600Y-95504700D02*
X219604600Y-95504700D01*
X235031300Y-108103500D02*
X237050000Y-110122200D01*
X223519600Y-92288300D02*
X220303200Y-95504700D01*
X219604600Y-95504700D02*
X216919900Y-92820000D01*
X214399600Y-92820000D02*
X212099600Y-90520000D01*
X232559700Y-82515300D02*
X228149600Y-86925400D01*
X220039600Y-81390000D02*
X218914300Y-81390000D01*
X228149600Y-88946400D02*
X228149600Y-90120000D01*
X224217000Y-88946400D02*
X223519600Y-89643800D01*
X203889600Y-95504700D02*
X204170900Y-95504700D01*
X237050000Y-110684800D02*
X237902000Y-110684800D01*
X220303200Y-95504700D02*
X220039600Y-95504700D01*
X206698200Y-92977400D02*
X206698200Y-90819600D01*
X228149600Y-88946400D02*
X224217000Y-88946400D01*
X220039600Y-96630000D02*
X220039600Y-95504700D01*
X235031300Y-97788300D02*
X235031300Y-108103500D01*
X180134500Y-78826400D02*
X187198000Y-85889900D01*
X216910000Y-72635700D02*
X213762000Y-69487700D01*
X227117400Y-76810100D02*
X217666500Y-76810100D01*
X217666500Y-76810100D02*
X216910000Y-76053600D01*
X180848100Y-70256000D02*
X180848100Y-71435800D01*
X178245100Y-78461200D02*
X178610300Y-78826400D01*
X178610300Y-78826400D02*
X180134500Y-78826400D01*
X187198000Y-85889900D02*
X187198000Y-119126000D01*
X216910000Y-76053600D02*
X216910000Y-72635700D01*
X181616400Y-69487700D02*
X180848100Y-70256000D01*
X180848100Y-71435800D02*
X178245100Y-74038800D01*
X213762000Y-69487700D02*
X181616400Y-69487700D01*
X178245100Y-74038800D02*
X178245100Y-78461200D01*
X228340000Y-75587500D02*
X227117400Y-76810100D01*
X207416600Y-115126700D02*
X205382600Y-113092700D01*
X188386900Y-72054800D02*
X188386900Y-70866000D01*
X195268400Y-106059400D02*
X195268400Y-78936300D01*
X200341000Y-107696000D02*
X196905000Y-107696000D01*
X205382600Y-112737600D02*
X200341000Y-107696000D01*
X187198000Y-70866000D02*
X188386900Y-70866000D01*
X195268400Y-78936300D02*
X188386900Y-72054800D01*
X205382600Y-113092700D02*
X205382600Y-112737600D01*
X210430000Y-113910000D02*
X209213300Y-115126700D01*
X196905000Y-107696000D02*
X195268400Y-106059400D01*
X209213300Y-115126700D02*
X207416600Y-115126700D01*
X180904700Y-82157000D02*
X180147700Y-81400000D01*
X180904700Y-88179200D02*
X180904700Y-82157000D01*
X179595000Y-90150000D02*
X179595000Y-88974700D01*
X180109200Y-88974700D02*
X180904700Y-88179200D01*
X177038000Y-79446900D02*
X177038000Y-70866000D01*
X180147700Y-81400000D02*
X178991100Y-81400000D01*
X179595000Y-88974700D02*
X180109200Y-88974700D01*
X178991100Y-81400000D02*
X177038000Y-79446900D01*
X179595000Y-86474700D02*
X179080800Y-86474700D01*
X179080800Y-86474700D02*
X174498000Y-81891900D01*
X174498000Y-81891900D02*
X174498000Y-70866000D01*
X179595000Y-87650000D02*
X179595000Y-86474700D01*
X179595000Y-83974700D02*
X179080800Y-83974700D01*
X179595000Y-85150000D02*
X179595000Y-83974700D01*
X173146900Y-70345900D02*
X173146900Y-70866000D01*
X173973600Y-69519200D02*
X173146900Y-70345900D01*
X175768000Y-70263900D02*
X175023300Y-69519200D01*
X175768000Y-80661900D02*
X175768000Y-70263900D01*
X171958000Y-70866000D02*
X173146900Y-70866000D01*
X179080800Y-83974700D02*
X175768000Y-80661900D01*
X175023300Y-69519200D02*
X173973600Y-69519200D01*
X185888000Y-93625600D02*
X185888000Y-110727000D01*
X186022100Y-93491500D02*
X185888000Y-93625600D01*
X236517100Y-85200000D02*
X235853200Y-85200000D01*
X234977600Y-90912200D02*
X233069800Y-92820000D01*
X243580000Y-75587500D02*
X243580000Y-78137100D01*
X235853200Y-85200000D02*
X234977600Y-86075600D01*
X234977600Y-86075600D02*
X234977600Y-90912200D01*
X243580000Y-78137100D02*
X236517100Y-85200000D01*
X227485500Y-97699800D02*
X227485500Y-106423300D01*
X232365300Y-92820000D02*
X227485500Y-97699800D01*
X233069800Y-92820000D02*
X232365300Y-92820000D01*
X190340800Y-78937100D02*
X193494900Y-82091200D01*
X199705600Y-118149700D02*
X218890300Y-118149700D01*
X193494900Y-82091200D02*
X193494900Y-111939000D01*
X218890300Y-118149700D02*
X220590000Y-116450000D01*
X182118000Y-70866000D02*
X182118000Y-72211400D01*
X188843700Y-78937100D02*
X190340800Y-78937100D01*
X193494900Y-111939000D02*
X199705600Y-118149700D01*
X182118000Y-72211400D02*
X188843700Y-78937100D01*
X276425500Y-109774500D02*
X276425500Y-108113300D01*
X264487800Y-87740000D02*
X262364500Y-85616700D01*
X265211400Y-87740000D02*
X264487800Y-87740000D01*
X275100000Y-111100000D02*
X276425500Y-109774500D01*
X221615400Y-69612100D02*
X218180000Y-73047500D01*
X267873600Y-90402200D02*
X265211400Y-87740000D01*
X276425500Y-108113300D02*
X267873600Y-99561400D01*
X256915900Y-69612100D02*
X221615400Y-69612100D01*
X262364500Y-75060700D02*
X256915900Y-69612100D01*
X262364500Y-85616700D02*
X262364500Y-75060700D01*
X267873600Y-99561400D02*
X267873600Y-90402200D01*
X226266900Y-74317500D02*
X226975400Y-73609000D01*
X256729400Y-70062500D02*
X260514300Y-73847400D01*
X260514300Y-73847400D02*
X260514300Y-86230700D01*
X226975400Y-73609000D02*
X226975400Y-72697900D01*
X267101200Y-99426000D02*
X267101300Y-99426000D01*
X267101300Y-99426000D02*
X275100000Y-107424700D01*
X275100000Y-108600000D02*
X275100000Y-107424700D01*
X226975400Y-72697900D02*
X229610800Y-70062500D01*
X229610800Y-70062500D02*
X256729400Y-70062500D01*
X260514300Y-86230700D02*
X264708200Y-90424600D01*
X265387300Y-90424600D02*
X267101200Y-92138500D01*
X267101200Y-92138500D02*
X267101200Y-99426000D01*
X218180000Y-75587500D02*
X219450000Y-74317500D01*
X219450000Y-74317500D02*
X226266900Y-74317500D01*
X264708200Y-90424600D02*
X265387300Y-90424600D01*
X209290000Y-74317500D02*
X202715400Y-74317500D01*
X202715400Y-74317500D02*
X201086900Y-75946000D01*
X210560000Y-73047500D02*
X209290000Y-74317500D01*
X199898000Y-75946000D02*
X201086900Y-75946000D01*
X236393900Y-98044700D02*
X236189600Y-98044700D01*
X224649600Y-90120000D02*
X224649600Y-93716000D01*
X224649600Y-93716000D02*
X220250000Y-98115600D01*
X252470900Y-98044700D02*
X252189600Y-98044700D01*
X241049600Y-90620000D02*
X241049600Y-93389000D01*
X219968600Y-98044600D02*
X213028200Y-98044600D01*
X208599600Y-93616000D02*
X208599600Y-90520000D01*
X203889600Y-99170000D02*
X203889600Y-98044700D01*
X220250000Y-98115600D02*
X220039600Y-98115600D01*
X213028200Y-98044600D02*
X208599600Y-93616000D01*
X257049600Y-90620000D02*
X257049600Y-93466000D01*
X203889600Y-98044700D02*
X204170900Y-98044700D01*
X204170900Y-98044700D02*
X208599600Y-93616000D01*
X220039600Y-98115600D02*
X219968600Y-98044600D01*
X220039600Y-99170000D02*
X220039600Y-98115600D01*
X241049600Y-93389000D02*
X236393900Y-98044700D01*
X257049600Y-93466000D02*
X252470900Y-98044700D01*
X236189600Y-99170000D02*
X236189600Y-98044700D01*
X252189600Y-99170000D02*
X252189600Y-98044700D01*
X243023100Y-102967300D02*
X248235100Y-97755300D01*
X238175300Y-118867500D02*
X238175300Y-119148900D01*
X239019200Y-119992800D02*
X240137100Y-119992800D01*
X240860000Y-119269900D02*
X240860000Y-118337300D01*
X240860000Y-118337300D02*
X243306700Y-115890600D01*
X243306700Y-115890600D02*
X243306700Y-105422500D01*
X238175300Y-119148900D02*
X239019200Y-119992800D01*
X248889600Y-96630000D02*
X248889600Y-97755300D01*
X243306700Y-105422500D02*
X243023100Y-105138900D01*
X248235100Y-97755300D02*
X248889600Y-97755300D01*
X240137100Y-119992800D02*
X240860000Y-119269900D01*
X237050000Y-118867500D02*
X238175300Y-118867500D01*
X243023100Y-105138900D02*
X243023100Y-102967300D01*
X248608300Y-95215300D02*
X240715300Y-103108300D01*
X240715300Y-103108300D02*
X240715300Y-116616900D01*
X248889600Y-94090000D02*
X248889600Y-95215300D01*
X248889600Y-95215300D02*
X248608300Y-95215300D01*
X239590000Y-118867500D02*
X239590000Y-117742200D01*
X240715300Y-116616900D02*
X239590000Y-117742200D01*
X248889600Y-86470000D02*
X248889600Y-89010000D01*
X247390000Y-75979800D02*
X247390000Y-74317500D01*
X236189600Y-86470000D02*
X237314900Y-86470000D01*
X247390000Y-74317500D02*
X248660000Y-73047500D01*
X237314900Y-86470000D02*
X237314900Y-86054900D01*
X237314900Y-86054900D02*
X247390000Y-75979800D01*
X240409200Y-85504700D02*
X240319900Y-85504700D01*
X251200000Y-73047500D02*
X249930000Y-74317500D01*
X240319900Y-85504700D02*
X237314900Y-88509700D01*
X249930000Y-75983900D02*
X240409200Y-85504700D01*
X237314900Y-88509700D02*
X237314900Y-89010000D01*
X236189600Y-89010000D02*
X237314900Y-89010000D01*
X249930000Y-74317500D02*
X249930000Y-75983900D01*
X236189600Y-91550000D02*
X248836800Y-78902800D01*
X253740000Y-73600800D02*
X253740000Y-73047500D01*
X248836800Y-78902800D02*
X252103200Y-78902800D01*
X254952700Y-74813500D02*
X253740000Y-73600800D01*
X252103200Y-78902800D02*
X254952700Y-76053300D01*
X254952700Y-76053300D02*
X254952700Y-74813500D01*
X256280000Y-73552900D02*
X256280000Y-73047500D01*
X236189600Y-93826600D02*
X247356200Y-82660000D01*
X249253900Y-82660000D02*
X255082100Y-76831800D01*
X256752700Y-76831800D02*
X257462400Y-76122100D01*
X255082100Y-76831800D02*
X256752700Y-76831800D01*
X247356200Y-82660000D02*
X249253900Y-82660000D01*
X236189600Y-94090000D02*
X236189600Y-93826600D01*
X257462400Y-74735300D02*
X256280000Y-73552900D01*
X257462400Y-76122100D02*
X257462400Y-74735300D01*
X212970000Y-116450000D02*
X211757200Y-117662800D01*
X194156500Y-110026900D02*
X194156500Y-96194800D01*
X207056400Y-117662800D02*
X202169600Y-112776000D01*
X202169600Y-112776000D02*
X196905600Y-112776000D01*
X196905600Y-112776000D02*
X194156500Y-110026900D01*
X211757200Y-117662800D02*
X207056400Y-117662800D01*
X212970000Y-113910000D02*
X212837200Y-113910000D01*
X212837200Y-113910000D02*
X206542100Y-107614900D01*
X197358000Y-98806000D02*
X198546900Y-98806000D01*
X198546900Y-99177600D02*
X198546900Y-98806000D01*
X200719800Y-99994900D02*
X199364200Y-99994900D01*
X215510000Y-116450000D02*
X214240000Y-115180000D01*
X214240000Y-113515100D02*
X200719800Y-99994900D01*
X199364200Y-99994900D02*
X198546900Y-99177600D01*
X214240000Y-115180000D02*
X214240000Y-113515100D01*
X215510000Y-113910000D02*
X215510000Y-113847600D01*
X215510000Y-113847600D02*
X206753000Y-105090600D01*
X215016900Y-117647500D02*
X214240000Y-116870600D01*
X214240000Y-116870600D02*
X214240000Y-116040600D01*
X206912700Y-108702600D02*
X206745500Y-108702600D01*
X212525600Y-115180000D02*
X211700000Y-114354400D01*
X218050000Y-116450000D02*
X216852500Y-117647500D01*
X199364200Y-102534900D02*
X198546900Y-101717600D01*
X214240000Y-116040600D02*
X213379400Y-115180000D01*
X216852500Y-117647500D02*
X215016900Y-117647500D01*
X213379400Y-115180000D02*
X212525600Y-115180000D01*
X211700000Y-114354400D02*
X211700000Y-113489900D01*
X206745500Y-108702600D02*
X200577800Y-102534900D01*
X198546900Y-101717600D02*
X198546900Y-101346000D01*
X200577800Y-102534900D02*
X199364200Y-102534900D01*
X197358000Y-101346000D02*
X198546900Y-101346000D01*
X211700000Y-113489900D02*
X206912700Y-108702600D01*
X232739600Y-97755300D02*
X233443200Y-97755300D01*
X233960000Y-117889100D02*
X236516800Y-120445900D01*
X233960000Y-98272100D02*
X233960000Y-117889100D01*
X240551600Y-120445900D02*
X242130000Y-118867500D01*
X233443200Y-97755300D02*
X233960000Y-98272100D01*
X232739600Y-96630000D02*
X232739600Y-97755300D01*
X236516800Y-120445900D02*
X240551600Y-120445900D01*
X244670000Y-118867500D02*
X244670000Y-117742200D01*
X244670000Y-117742200D02*
X245860600Y-116551600D01*
X245860600Y-107092100D02*
X243648400Y-104879900D01*
X245860600Y-116551600D02*
X245860600Y-107092100D01*
X232739600Y-86470000D02*
X232739600Y-89010000D01*
X221164900Y-86470000D02*
X222804200Y-86470000D01*
X232467200Y-76807000D02*
X233935200Y-76807000D01*
X234784600Y-75098100D02*
X235470600Y-74412100D01*
X233935200Y-76807000D02*
X234784600Y-75957600D01*
X220039600Y-86470000D02*
X221164900Y-86470000D01*
X235470600Y-74412100D02*
X237135400Y-74412100D01*
X237135400Y-74412100D02*
X238500000Y-73047500D01*
X222804200Y-86470000D02*
X232467200Y-76807000D01*
X234784600Y-75957600D02*
X234784600Y-75098100D01*
X238010600Y-74412100D02*
X237324600Y-75098100D01*
X237324600Y-75885800D02*
X235152800Y-78057600D01*
X220039600Y-89010000D02*
X221164900Y-89010000D01*
X235152800Y-78057600D02*
X232117300Y-78057600D01*
X237324600Y-75098100D02*
X237324600Y-75885800D01*
X241040000Y-73047500D02*
X239675400Y-74412100D01*
X232117300Y-78057600D02*
X221164900Y-89010000D01*
X239675400Y-74412100D02*
X238010600Y-74412100D01*
X239770000Y-76006000D02*
X239770000Y-75131100D01*
X220039600Y-91550000D02*
X220039600Y-90424700D01*
X231965400Y-79138100D02*
X236637900Y-79138100D01*
X220678800Y-90424700D02*
X231965400Y-79138100D01*
X220039600Y-90424700D02*
X220678800Y-90424700D01*
X240489000Y-74412100D02*
X242215400Y-74412100D01*
X239770000Y-75131100D02*
X240489000Y-74412100D01*
X236637900Y-79138100D02*
X239770000Y-76006000D01*
X242215400Y-74412100D02*
X243580000Y-73047500D01*
X243029000Y-74412100D02*
X242383900Y-75057200D01*
X246120000Y-73047500D02*
X244755400Y-74412100D01*
X220250600Y-92964700D02*
X220039600Y-92964700D01*
X242383900Y-77157900D02*
X241830900Y-77710900D01*
X244755400Y-74412100D02*
X243029000Y-74412100D01*
X242383900Y-75057200D02*
X242383900Y-77157900D01*
X239807500Y-77710900D02*
X237929900Y-79588500D01*
X221615300Y-91600000D02*
X220250600Y-92964700D01*
X232220800Y-79588500D02*
X221615300Y-90194000D01*
X237929900Y-79588500D02*
X232220800Y-79588500D01*
X221615300Y-90194000D02*
X221615300Y-91600000D01*
X220039600Y-94090000D02*
X220039600Y-92964700D01*
X247210000Y-117742200D02*
X247491300Y-117742200D01*
X247210000Y-118867500D02*
X247210000Y-117742200D01*
X264889600Y-96630000D02*
X264889600Y-97755300D01*
X247491300Y-117742200D02*
X253560000Y-111673500D01*
X253560000Y-111673500D02*
X253560000Y-108381600D01*
X253560000Y-108381600D02*
X264186300Y-97755300D01*
X264186300Y-97755300D02*
X264889600Y-97755300D01*
X250031300Y-117742200D02*
X266014900Y-101758600D01*
X265171000Y-95215300D02*
X264889600Y-95215300D01*
X264889600Y-94090000D02*
X264889600Y-95215300D01*
X249750000Y-117742200D02*
X250031300Y-117742200D01*
X249750000Y-118867500D02*
X249750000Y-117742200D01*
X266014900Y-96059200D02*
X265171000Y-95215300D01*
X266014900Y-101758600D02*
X266014900Y-96059200D01*
X252470900Y-85344700D02*
X252189600Y-85344700D01*
X258363100Y-73989900D02*
X258363100Y-79452500D01*
X257996600Y-73623400D02*
X258363100Y-73989900D01*
X230874700Y-70512800D02*
X256455000Y-70512800D01*
X256455000Y-70512800D02*
X257996600Y-72054400D01*
X228340000Y-73047500D02*
X230874700Y-70512800D01*
X258363100Y-79452500D02*
X252470900Y-85344700D01*
X257996600Y-72054400D02*
X257996600Y-73623400D01*
X252189600Y-86470000D02*
X252189600Y-85344700D01*
X252189600Y-89010000D02*
X252189600Y-87884700D01*
X257546300Y-72241000D02*
X257546300Y-73810000D01*
X257546300Y-73810000D02*
X257912800Y-74176500D01*
X256268400Y-70963100D02*
X257546300Y-72241000D01*
X232964400Y-70963100D02*
X256268400Y-70963100D01*
X251908200Y-87884700D02*
X252189600Y-87884700D01*
X230880000Y-73047500D02*
X232964400Y-70963100D01*
X257912800Y-74176500D02*
X257912800Y-77318200D01*
X251064300Y-83413300D02*
X251064300Y-87040800D01*
X251064300Y-87040800D02*
X251908200Y-87884700D01*
X251817600Y-82660000D02*
X251064300Y-83413300D01*
X257912800Y-77318200D02*
X252571000Y-82660000D01*
X252571000Y-82660000D02*
X251817600Y-82660000D01*
X252393900Y-90424700D02*
X252189600Y-90424700D01*
X252189600Y-91550000D02*
X252189600Y-90424700D01*
X258813400Y-84005200D02*
X252393900Y-90424700D01*
X258813400Y-73555900D02*
X258813400Y-84005200D01*
X258621900Y-73364400D02*
X258813400Y-73555900D01*
X252366500Y-92964700D02*
X252189600Y-92964700D01*
X252189600Y-94090000D02*
X252189600Y-92964700D01*
X259438700Y-75538100D02*
X259438700Y-85892500D01*
X259438700Y-85892500D02*
X252366500Y-92964700D01*
X251164700Y-119148800D02*
X249395000Y-120918500D01*
X251164700Y-118867500D02*
X251164700Y-119148800D01*
X226205700Y-110812500D02*
X226205700Y-99095100D01*
X249395000Y-120918500D02*
X236311700Y-120918500D01*
X236311700Y-120918500D02*
X226205700Y-110812500D01*
X252290000Y-118867500D02*
X251164700Y-118867500D01*
X236125200Y-121368900D02*
X225389200Y-110632900D01*
X254830000Y-118867500D02*
X253704700Y-118867500D01*
X225389200Y-110632900D02*
X225389200Y-97281000D01*
X251484600Y-121368900D02*
X236125200Y-121368900D01*
X253704700Y-118867500D02*
X253704700Y-119148800D01*
X253704700Y-119148800D02*
X251484600Y-121368900D01*
X216589600Y-86470000D02*
X216589600Y-89010000D01*
X248660000Y-75621200D02*
X238800300Y-85480900D01*
X248660000Y-75587500D02*
X248660000Y-75621200D01*
X251200000Y-75587500D02*
X239047500Y-87740000D01*
X216919500Y-85200000D02*
X219459500Y-82660000D01*
X230543600Y-74222900D02*
X231405600Y-74222900D01*
X233372400Y-71413400D02*
X253856300Y-71413400D01*
X232150000Y-73478500D02*
X232150000Y-72635800D01*
X255073700Y-74062900D02*
X256280000Y-75269200D01*
X203889600Y-91550000D02*
X210239600Y-85200000D01*
X256280000Y-75269200D02*
X256280000Y-75587500D01*
X229704600Y-75886700D02*
X229704600Y-75061900D01*
X229704600Y-75061900D02*
X230543600Y-74222900D01*
X222931300Y-82660000D02*
X229704600Y-75886700D01*
X253856300Y-71413400D02*
X255073700Y-72630800D01*
X219459500Y-82660000D02*
X222931300Y-82660000D01*
X231405600Y-74222900D02*
X232150000Y-73478500D01*
X232150000Y-72635800D02*
X233372400Y-71413400D01*
X255073700Y-72630800D02*
X255073700Y-74062900D01*
X210239600Y-85200000D02*
X216919500Y-85200000D01*
X205697300Y-91368400D02*
X205697300Y-91157500D01*
X234761700Y-72538700D02*
X235436700Y-71863700D01*
X232055400Y-75287900D02*
X233120400Y-74222900D01*
X213310400Y-88867300D02*
X214582500Y-90139400D01*
X219709300Y-85200000D02*
X222937000Y-85200000D01*
X252470000Y-74317500D02*
X253740000Y-75587500D01*
X233120400Y-74222900D02*
X233945600Y-74222900D01*
X235436700Y-71863700D02*
X251686900Y-71863700D01*
X252470000Y-72646800D02*
X252470000Y-74317500D01*
X232055400Y-76081600D02*
X232055400Y-75287900D01*
X222937000Y-85200000D02*
X232055400Y-76081600D01*
X251686900Y-71863700D02*
X252470000Y-72646800D01*
X233945600Y-74222900D02*
X234761700Y-73406800D01*
X234761700Y-73406800D02*
X234761700Y-72538700D01*
X217086300Y-90139400D02*
X218459200Y-88766500D01*
X203889600Y-94090000D02*
X203889600Y-92964700D01*
X204101000Y-92964700D02*
X205697300Y-91368400D01*
X207987500Y-88867300D02*
X213310400Y-88867300D01*
X205697300Y-91157500D02*
X207987500Y-88867300D01*
X214582500Y-90139400D02*
X217086300Y-90139400D01*
X218459200Y-86450100D02*
X219709300Y-85200000D01*
X203889600Y-92964700D02*
X204101000Y-92964700D01*
X218459200Y-88766500D02*
X218459200Y-86450100D01*
X145303500Y-113170900D02*
X145124600Y-112992000D01*
X150724700Y-112500000D02*
X150053800Y-113170900D01*
X145124600Y-112992000D02*
X145124600Y-110610400D01*
X151750000Y-112500000D02*
X150724700Y-112500000D01*
X145124600Y-110610400D02*
X146350000Y-109385000D01*
X150053800Y-113170900D02*
X145303500Y-113170900D01*
X151750000Y-105550000D02*
X147990000Y-105550000D01*
X147990000Y-105550000D02*
X146250000Y-103810000D01*
M02*
