  0
SECTION
  2
HEADER
  9
$ANGBASE
  50
0.0
  9
$ANGDIR
  70
1
  9
$MEASUREMENT
  70
1
  0
ENDSEC
  0
SECTION
  2
TABLES
  0
TABLE
  2
LTYPE
  70
4
  0
LTYPE
  5
40F
  2
CONTINUOUS
  70
0
  3
Solid line
  72
65
  73
0
  40
0.0
  0
LTYPE
  5
410
  2
DASHDOT
 70
0
  3
Dash Dot ____ _ ____ _
 72
65
 73
4
 40
2.0
 49
1.25
 49
-0.25
 49
0.25
 49
-0.25
  0
LTYPE
  5
411
  2
DASHED
 70
0
  3
Dashed __ __ __ __ __
 72
65
 73
2
 40
0.75
 49
0.5
 49
-0.25
  0
LTYPE
  5
43B
  2
DOTTED
 70
0
  3
Dotted .  .  .  .
 72
65
 73
2
 40
0.2
 49
0.0
 49
-0.2
  0
ENDTAB
  0
TABLE
  2
STYLE
  70
4
  0
STYLE
  2
KICAD
  70
0
  40
0
  41
1
  42
1
  50
0
  71
0
  3
isocp.shx
  0
STYLE
  2
KICADB
  70
0
  40
0
  41
1
  42
1
  50
0
  71
0
  3
isocp.shx
  0
STYLE
  2
KICADI
  70
0
  40
0
  41
1
  42
1
  50
15
  71
0
  3
isocp.shx
  0
STYLE
  2
KICADBI
  70
0
  40
0
  41
1
  42
1
  50
15
  71
0
  3
isocp.shx
  0
ENDTAB
  0
TABLE
  2
LAYER
  70
1
  0
LAYER
  2
BLACK
  70
0
  62
7
  6
CONTINUOUS
  0
ENDTAB
  0
ENDSEC
  0
SECTION
  2
ENTITIES
0
LINE
8
BLACK
6
CONTINUOUS
10
129.921
20
-36.957
11
129.921
21
-136.398
0
LINE
8
BLACK
6
CONTINUOUS
10
229.362
20
-136.398
11
129.921
21
-136.398
0
LINE
8
BLACK
6
CONTINUOUS
10
229.362
20
-36.957
11
229.362
21
-136.398
0
LINE
8
BLACK
6
CONTINUOUS
10
129.921
20
-36.957
11
229.362
21
-36.957
0
LINE
8
BLACK
6
CONTINUOUS
10
223.75
20
-38.786
11
226.95
21
-41.986
0
LINE
8
BLACK
6
CONTINUOUS
10
226.95
20
-38.786
11
223.75
21
-41.986
0
LINE
8
BLACK
6
CONTINUOUS
10
191.75
20
-94.786
11
194.95
21
-97.986
0
LINE
8
BLACK
6
CONTINUOUS
10
194.95
20
-94.786
11
191.75
21
-97.986
0
LINE
8
BLACK
6
CONTINUOUS
10
131.75
20
-38.786
11
134.95
21
-41.986
0
LINE
8
BLACK
6
CONTINUOUS
10
134.95
20
-38.786
11
131.75
21
-41.986
0
LINE
8
BLACK
6
CONTINUOUS
10
179.75
20
-38.786
11
182.95
21
-41.986
0
LINE
8
BLACK
6
CONTINUOUS
10
182.95
20
-38.786
11
179.75
21
-41.986
0
LINE
8
BLACK
6
CONTINUOUS
10
179.75
20
-130.786
11
182.95
21
-133.986
0
LINE
8
BLACK
6
CONTINUOUS
10
182.95
20
-130.786
11
179.75
21
-133.986
0
LINE
8
BLACK
6
CONTINUOUS
10
131.75
20
-130.786
11
134.95
21
-133.986
0
LINE
8
BLACK
6
CONTINUOUS
10
134.95
20
-130.786
11
131.75
21
-133.986
0
LINE
8
BLACK
6
CONTINUOUS
10
223.75
20
-94.786
11
226.95
21
-97.986
0
LINE
8
BLACK
6
CONTINUOUS
10
226.95
20
-94.786
11
223.75
21
-97.986
0
LINE
8
BLACK
6
CONTINUOUS
10
223.75
20
-130.786
11
226.95
21
-133.986
0
LINE
8
BLACK
6
CONTINUOUS
10
226.95
20
-130.786
11
223.75
21
-133.986
0
LINE
8
BLACK
6
CONTINUOUS
10
132.76
20
-141.08
11
132.76
21
-138.08
0
LINE
8
BLACK
6
CONTINUOUS
10
132.76
20
-138.08
11
133.475
21
-138.08
0
LINE
8
BLACK
6
CONTINUOUS
10
133.475
20
-138.08
11
133.903
21
-138.223
0
LINE
8
BLACK
6
CONTINUOUS
10
133.903
20
-138.223
11
134.189
21
-138.509
0
LINE
8
BLACK
6
CONTINUOUS
10
134.189
20
-138.509
11
134.332
21
-138.794
0
LINE
8
BLACK
6
CONTINUOUS
10
134.332
20
-138.794
11
134.475
21
-139.366
0
LINE
8
BLACK
6
CONTINUOUS
10
134.475
20
-139.366
11
134.475
21
-139.794
0
LINE
8
BLACK
6
CONTINUOUS
10
134.475
20
-139.794
11
134.332
21
-140.366
0
LINE
8
BLACK
6
CONTINUOUS
10
134.332
20
-140.366
11
134.189
21
-140.652
0
LINE
8
BLACK
6
CONTINUOUS
10
134.189
20
-140.652
11
133.903
21
-140.937
0
LINE
8
BLACK
6
CONTINUOUS
10
133.903
20
-140.937
11
133.475
21
-141.08
0
LINE
8
BLACK
6
CONTINUOUS
10
133.475
20
-141.08
11
132.76
21
-141.08
0
LINE
8
BLACK
6
CONTINUOUS
10
135.76
20
-141.08
11
135.76
21
-139.08
0
LINE
8
BLACK
6
CONTINUOUS
10
135.76
20
-139.652
11
135.903
21
-139.366
0
LINE
8
BLACK
6
CONTINUOUS
10
135.903
20
-139.366
11
136.046
21
-139.223
0
LINE
8
BLACK
6
CONTINUOUS
10
136.046
20
-139.223
11
136.332
21
-139.08
0
LINE
8
BLACK
6
CONTINUOUS
10
136.332
20
-139.08
11
136.617
21
-139.08
0
LINE
8
BLACK
6
CONTINUOUS
10
137.617
20
-141.08
11
137.617
21
-139.08
0
LINE
8
BLACK
6
CONTINUOUS
10
137.617
20
-138.08
11
137.475
21
-138.223
0
LINE
8
BLACK
6
CONTINUOUS
10
137.475
20
-138.223
11
137.617
21
-138.366
0
LINE
8
BLACK
6
CONTINUOUS
10
137.617
20
-138.366
11
137.76
21
-138.223
0
LINE
8
BLACK
6
CONTINUOUS
10
137.76
20
-138.223
11
137.617
21
-138.08
0
LINE
8
BLACK
6
CONTINUOUS
10
137.617
20
-138.08
11
137.617
21
-138.366
0
LINE
8
BLACK
6
CONTINUOUS
10
139.475
20
-141.08
11
139.189
21
-140.937
0
LINE
8
BLACK
6
CONTINUOUS
10
139.189
20
-140.937
11
139.046
21
-140.652
0
LINE
8
BLACK
6
CONTINUOUS
10
139.046
20
-140.652
11
139.046
21
-138.08
0
LINE
8
BLACK
6
CONTINUOUS
10
141.046
20
-141.08
11
140.76
21
-140.937
0
LINE
8
BLACK
6
CONTINUOUS
10
140.76
20
-140.937
11
140.617
21
-140.652
0
LINE
8
BLACK
6
CONTINUOUS
10
140.617
20
-140.652
11
140.617
21
-138.08
0
LINE
8
BLACK
6
CONTINUOUS
10
144.475
20
-141.08
11
144.475
21
-138.08
0
LINE
8
BLACK
6
CONTINUOUS
10
144.475
20
-138.08
11
145.475
21
-140.223
0
LINE
8
BLACK
6
CONTINUOUS
10
145.475
20
-140.223
11
146.475
21
-138.08
0
LINE
8
BLACK
6
CONTINUOUS
10
146.475
20
-138.08
11
146.475
21
-141.08
0
LINE
8
BLACK
6
CONTINUOUS
10
149.189
20
-141.08
11
149.189
21
-139.509
0
LINE
8
BLACK
6
CONTINUOUS
10
149.189
20
-139.509
11
149.046
21
-139.223
0
LINE
8
BLACK
6
CONTINUOUS
10
149.046
20
-139.223
11
148.76
21
-139.08
0
LINE
8
BLACK
6
CONTINUOUS
10
148.76
20
-139.08
11
148.189
21
-139.08
0
LINE
8
BLACK
6
CONTINUOUS
10
148.189
20
-139.08
11
147.903
21
-139.223
0
LINE
8
BLACK
6
CONTINUOUS
10
149.189
20
-140.937
11
148.903
21
-141.08
0
LINE
8
BLACK
6
CONTINUOUS
10
148.903
20
-141.08
11
148.189
21
-141.08
0
LINE
8
BLACK
6
CONTINUOUS
10
148.189
20
-141.08
11
147.903
21
-140.937
0
LINE
8
BLACK
6
CONTINUOUS
10
147.903
20
-140.937
11
147.76
21
-140.652
0
LINE
8
BLACK
6
CONTINUOUS
10
147.76
20
-140.652
11
147.76
21
-140.366
0
LINE
8
BLACK
6
CONTINUOUS
10
147.76
20
-140.366
11
147.903
21
-140.08
0
LINE
8
BLACK
6
CONTINUOUS
10
147.903
20
-140.08
11
148.189
21
-139.937
0
LINE
8
BLACK
6
CONTINUOUS
10
148.189
20
-139.937
11
148.903
21
-139.937
0
LINE
8
BLACK
6
CONTINUOUS
10
148.903
20
-139.937
11
149.189
21
-139.794
0
LINE
8
BLACK
6
CONTINUOUS
10
150.617
20
-139.08
11
150.617
21
-142.08
0
LINE
8
BLACK
6
CONTINUOUS
10
150.617
20
-139.223
11
150.903
21
-139.08
0
LINE
8
BLACK
6
CONTINUOUS
10
150.903
20
-139.08
11
151.475
21
-139.08
0
LINE
8
BLACK
6
CONTINUOUS
10
151.475
20
-139.08
11
151.76
21
-139.223
0
LINE
8
BLACK
6
CONTINUOUS
10
151.76
20
-139.223
11
151.903
21
-139.366
0
LINE
8
BLACK
6
CONTINUOUS
10
151.903
20
-139.366
11
152.046
21
-139.652
0
LINE
8
BLACK
6
CONTINUOUS
10
152.046
20
-139.652
11
152.046
21
-140.509
0
LINE
8
BLACK
6
CONTINUOUS
10
152.046
20
-140.509
11
151.903
21
-140.794
0
LINE
8
BLACK
6
CONTINUOUS
10
151.903
20
-140.794
11
151.76
21
-140.937
0
LINE
8
BLACK
6
CONTINUOUS
10
151.76
20
-140.937
11
151.475
21
-141.08
0
LINE
8
BLACK
6
CONTINUOUS
10
151.475
20
-141.08
11
150.903
21
-141.08
0
LINE
8
BLACK
6
CONTINUOUS
10
150.903
20
-141.08
11
150.617
21
-140.937
0
LINE
8
BLACK
6
CONTINUOUS
10
153.332
20
-140.794
11
153.475
21
-140.937
0
LINE
8
BLACK
6
CONTINUOUS
10
153.475
20
-140.937
11
153.332
21
-141.08
0
LINE
8
BLACK
6
CONTINUOUS
10
153.332
20
-141.08
11
153.189
21
-140.937
0
LINE
8
BLACK
6
CONTINUOUS
10
153.189
20
-140.937
11
153.332
21
-140.794
0
LINE
8
BLACK
6
CONTINUOUS
10
153.332
20
-140.794
11
153.332
21
-141.08
0
LINE
8
BLACK
6
CONTINUOUS
10
153.332
20
-139.223
11
153.475
21
-139.366
0
LINE
8
BLACK
6
CONTINUOUS
10
153.475
20
-139.366
11
153.332
21
-139.509
0
LINE
8
BLACK
6
CONTINUOUS
10
153.332
20
-139.509
11
153.189
21
-139.366
0
LINE
8
BLACK
6
CONTINUOUS
10
153.189
20
-139.366
11
153.332
21
-139.223
0
LINE
8
BLACK
6
CONTINUOUS
10
153.332
20
-139.223
11
153.332
21
-139.509
0
LINE
8
BLACK
6
CONTINUOUS
10
126.696
20
-144.423
11
129.896
21
-147.623
0
LINE
8
BLACK
6
CONTINUOUS
10
129.896
20
-144.423
11
126.696
21
-147.623
0
LINE
8
BLACK
6
CONTINUOUS
10
132.475
20
-144.38
11
134.332
21
-144.38
0
LINE
8
BLACK
6
CONTINUOUS
10
134.332
20
-144.38
11
133.332
21
-145.523
0
LINE
8
BLACK
6
CONTINUOUS
10
133.332
20
-145.523
11
133.76
21
-145.523
0
LINE
8
BLACK
6
CONTINUOUS
10
133.76
20
-145.523
11
134.046
21
-145.666
0
LINE
8
BLACK
6
CONTINUOUS
10
134.046
20
-145.666
11
134.189
21
-145.809
0
LINE
8
BLACK
6
CONTINUOUS
10
134.189
20
-145.809
11
134.332
21
-146.094
0
LINE
8
BLACK
6
CONTINUOUS
10
134.332
20
-146.094
11
134.332
21
-146.809
0
LINE
8
BLACK
6
CONTINUOUS
10
134.332
20
-146.809
11
134.189
21
-147.094
0
LINE
8
BLACK
6
CONTINUOUS
10
134.189
20
-147.094
11
134.046
21
-147.237
0
LINE
8
BLACK
6
CONTINUOUS
10
134.046
20
-147.237
11
133.76
21
-147.38
0
LINE
8
BLACK
6
CONTINUOUS
10
133.76
20
-147.38
11
132.903
21
-147.38
0
LINE
8
BLACK
6
CONTINUOUS
10
132.903
20
-147.38
11
132.617
21
-147.237
0
LINE
8
BLACK
6
CONTINUOUS
10
132.617
20
-147.237
11
132.475
21
-147.094
0
LINE
8
BLACK
6
CONTINUOUS
10
135.617
20
-147.094
11
135.76
21
-147.237
0
LINE
8
BLACK
6
CONTINUOUS
10
135.76
20
-147.237
11
135.617
21
-147.38
0
LINE
8
BLACK
6
CONTINUOUS
10
135.617
20
-147.38
11
135.475
21
-147.237
0
LINE
8
BLACK
6
CONTINUOUS
10
135.475
20
-147.237
11
135.617
21
-147.094
0
LINE
8
BLACK
6
CONTINUOUS
10
135.617
20
-147.094
11
135.617
21
-147.38
0
LINE
8
BLACK
6
CONTINUOUS
10
136.903
20
-144.666
11
137.046
21
-144.523
0
LINE
8
BLACK
6
CONTINUOUS
10
137.046
20
-144.523
11
137.332
21
-144.38
0
LINE
8
BLACK
6
CONTINUOUS
10
137.332
20
-144.38
11
138.046
21
-144.38
0
LINE
8
BLACK
6
CONTINUOUS
10
138.046
20
-144.38
11
138.332
21
-144.523
0
LINE
8
BLACK
6
CONTINUOUS
10
138.332
20
-144.523
11
138.475
21
-144.666
0
LINE
8
BLACK
6
CONTINUOUS
10
138.475
20
-144.666
11
138.617
21
-144.952
0
LINE
8
BLACK
6
CONTINUOUS
10
138.617
20
-144.952
11
138.617
21
-145.237
0
LINE
8
BLACK
6
CONTINUOUS
10
138.617
20
-145.237
11
138.475
21
-145.666
0
LINE
8
BLACK
6
CONTINUOUS
10
138.475
20
-145.666
11
136.76
21
-147.38
0
LINE
8
BLACK
6
CONTINUOUS
10
136.76
20
-147.38
11
138.617
21
-147.38
0
LINE
8
BLACK
6
CONTINUOUS
10
140.475
20
-144.38
11
140.76
21
-144.38
0
LINE
8
BLACK
6
CONTINUOUS
10
140.76
20
-144.38
11
141.046
21
-144.523
0
LINE
8
BLACK
6
CONTINUOUS
10
141.046
20
-144.523
11
141.189
21
-144.666
0
LINE
8
BLACK
6
CONTINUOUS
10
141.189
20
-144.666
11
141.332
21
-144.952
0
LINE
8
BLACK
6
CONTINUOUS
10
141.332
20
-144.952
11
141.475
21
-145.523
0
LINE
8
BLACK
6
CONTINUOUS
10
141.475
20
-145.523
11
141.475
21
-146.237
0
LINE
8
BLACK
6
CONTINUOUS
10
141.475
20
-146.237
11
141.332
21
-146.809
0
LINE
8
BLACK
6
CONTINUOUS
10
141.332
20
-146.809
11
141.189
21
-147.094
0
LINE
8
BLACK
6
CONTINUOUS
10
141.189
20
-147.094
11
141.046
21
-147.237
0
LINE
8
BLACK
6
CONTINUOUS
10
141.046
20
-147.237
11
140.76
21
-147.38
0
LINE
8
BLACK
6
CONTINUOUS
10
140.76
20
-147.38
11
140.475
21
-147.38
0
LINE
8
BLACK
6
CONTINUOUS
10
140.475
20
-147.38
11
140.189
21
-147.237
0
LINE
8
BLACK
6
CONTINUOUS
10
140.189
20
-147.237
11
140.046
21
-147.094
0
LINE
8
BLACK
6
CONTINUOUS
10
140.046
20
-147.094
11
139.903
21
-146.809
0
LINE
8
BLACK
6
CONTINUOUS
10
139.903
20
-146.809
11
139.76
21
-146.237
0
LINE
8
BLACK
6
CONTINUOUS
10
139.76
20
-146.237
11
139.76
21
-145.523
0
LINE
8
BLACK
6
CONTINUOUS
10
139.76
20
-145.523
11
139.903
21
-144.952
0
LINE
8
BLACK
6
CONTINUOUS
10
139.903
20
-144.952
11
140.046
21
-144.666
0
LINE
8
BLACK
6
CONTINUOUS
10
140.046
20
-144.666
11
140.189
21
-144.523
0
LINE
8
BLACK
6
CONTINUOUS
10
140.189
20
-144.523
11
140.475
21
-144.38
0
LINE
8
BLACK
6
CONTINUOUS
10
142.76
20
-147.38
11
142.76
21
-145.38
0
LINE
8
BLACK
6
CONTINUOUS
10
142.76
20
-145.666
11
142.903
21
-145.523
0
LINE
8
BLACK
6
CONTINUOUS
10
142.903
20
-145.523
11
143.189
21
-145.38
0
LINE
8
BLACK
6
CONTINUOUS
10
143.189
20
-145.38
11
143.617
21
-145.38
0
LINE
8
BLACK
6
CONTINUOUS
10
143.617
20
-145.38
11
143.903
21
-145.523
0
LINE
8
BLACK
6
CONTINUOUS
10
143.903
20
-145.523
11
144.046
21
-145.809
0
LINE
8
BLACK
6
CONTINUOUS
10
144.046
20
-145.809
11
144.046
21
-147.38
0
LINE
8
BLACK
6
CONTINUOUS
10
144.046
20
-145.809
11
144.189
21
-145.523
0
LINE
8
BLACK
6
CONTINUOUS
10
144.189
20
-145.523
11
144.475
21
-145.38
0
LINE
8
BLACK
6
CONTINUOUS
10
144.475
20
-145.38
11
144.903
21
-145.38
0
LINE
8
BLACK
6
CONTINUOUS
10
144.903
20
-145.38
11
145.189
21
-145.523
0
LINE
8
BLACK
6
CONTINUOUS
10
145.189
20
-145.523
11
145.332
21
-145.809
0
LINE
8
BLACK
6
CONTINUOUS
10
145.332
20
-145.809
11
145.332
21
-147.38
0
LINE
8
BLACK
6
CONTINUOUS
10
146.76
20
-147.38
11
146.76
21
-145.38
0
LINE
8
BLACK
6
CONTINUOUS
10
146.76
20
-145.666
11
146.903
21
-145.523
0
LINE
8
BLACK
6
CONTINUOUS
10
146.903
20
-145.523
11
147.189
21
-145.38
0
LINE
8
BLACK
6
CONTINUOUS
10
147.189
20
-145.38
11
147.617
21
-145.38
0
LINE
8
BLACK
6
CONTINUOUS
10
147.617
20
-145.38
11
147.903
21
-145.523
0
LINE
8
BLACK
6
CONTINUOUS
10
147.903
20
-145.523
11
148.046
21
-145.809
0
LINE
8
BLACK
6
CONTINUOUS
10
148.046
20
-145.809
11
148.046
21
-147.38
0
LINE
8
BLACK
6
CONTINUOUS
10
148.046
20
-145.809
11
148.189
21
-145.523
0
LINE
8
BLACK
6
CONTINUOUS
10
148.189
20
-145.523
11
148.475
21
-145.38
0
LINE
8
BLACK
6
CONTINUOUS
10
148.475
20
-145.38
11
148.903
21
-145.38
0
LINE
8
BLACK
6
CONTINUOUS
10
148.903
20
-145.38
11
149.189
21
-145.523
0
LINE
8
BLACK
6
CONTINUOUS
10
149.189
20
-145.523
11
149.332
21
-145.809
0
LINE
8
BLACK
6
CONTINUOUS
10
149.332
20
-145.809
11
149.332
21
-147.38
0
LINE
8
BLACK
6
CONTINUOUS
10
155.189
20
-144.237
11
152.617
21
-148.094
0
LINE
8
BLACK
6
CONTINUOUS
10
159.046
20
-144.38
11
159.332
21
-144.38
0
LINE
8
BLACK
6
CONTINUOUS
10
159.332
20
-144.38
11
159.617
21
-144.523
0
LINE
8
BLACK
6
CONTINUOUS
10
159.617
20
-144.523
11
159.76
21
-144.666
0
LINE
8
BLACK
6
CONTINUOUS
10
159.76
20
-144.666
11
159.903
21
-144.952
0
LINE
8
BLACK
6
CONTINUOUS
10
159.903
20
-144.952
11
160.046
21
-145.523
0
LINE
8
BLACK
6
CONTINUOUS
10
160.046
20
-145.523
11
160.046
21
-146.237
0
LINE
8
BLACK
6
CONTINUOUS
10
160.046
20
-146.237
11
159.903
21
-146.809
0
LINE
8
BLACK
6
CONTINUOUS
10
159.903
20
-146.809
11
159.76
21
-147.094
0
LINE
8
BLACK
6
CONTINUOUS
10
159.76
20
-147.094
11
159.617
21
-147.237
0
LINE
8
BLACK
6
CONTINUOUS
10
159.617
20
-147.237
11
159.332
21
-147.38
0
LINE
8
BLACK
6
CONTINUOUS
10
159.332
20
-147.38
11
159.046
21
-147.38
0
LINE
8
BLACK
6
CONTINUOUS
10
159.046
20
-147.38
11
158.76
21
-147.237
0
LINE
8
BLACK
6
CONTINUOUS
10
158.76
20
-147.237
11
158.617
21
-147.094
0
LINE
8
BLACK
6
CONTINUOUS
10
158.617
20
-147.094
11
158.475
21
-146.809
0
LINE
8
BLACK
6
CONTINUOUS
10
158.475
20
-146.809
11
158.332
21
-146.237
0
LINE
8
BLACK
6
CONTINUOUS
10
158.332
20
-146.237
11
158.332
21
-145.523
0
LINE
8
BLACK
6
CONTINUOUS
10
158.332
20
-145.523
11
158.475
21
-144.952
0
LINE
8
BLACK
6
CONTINUOUS
10
158.475
20
-144.952
11
158.617
21
-144.666
0
LINE
8
BLACK
6
CONTINUOUS
10
158.617
20
-144.666
11
158.76
21
-144.523
0
LINE
8
BLACK
6
CONTINUOUS
10
158.76
20
-144.523
11
159.046
21
-144.38
0
LINE
8
BLACK
6
CONTINUOUS
10
161.332
20
-147.094
11
161.475
21
-147.237
0
LINE
8
BLACK
6
CONTINUOUS
10
161.475
20
-147.237
11
161.332
21
-147.38
0
LINE
8
BLACK
6
CONTINUOUS
10
161.332
20
-147.38
11
161.189
21
-147.237
0
LINE
8
BLACK
6
CONTINUOUS
10
161.189
20
-147.237
11
161.332
21
-147.094
0
LINE
8
BLACK
6
CONTINUOUS
10
161.332
20
-147.094
11
161.332
21
-147.38
0
LINE
8
BLACK
6
CONTINUOUS
10
164.332
20
-147.38
11
162.617
21
-147.38
0
LINE
8
BLACK
6
CONTINUOUS
10
163.475
20
-147.38
11
163.475
21
-144.38
0
LINE
8
BLACK
6
CONTINUOUS
10
163.475
20
-144.38
11
163.189
21
-144.809
0
LINE
8
BLACK
6
CONTINUOUS
10
163.189
20
-144.809
11
162.903
21
-145.094
0
LINE
8
BLACK
6
CONTINUOUS
10
162.903
20
-145.094
11
162.617
21
-145.237
0
LINE
8
BLACK
6
CONTINUOUS
10
165.475
20
-144.666
11
165.617
21
-144.523
0
LINE
8
BLACK
6
CONTINUOUS
10
165.617
20
-144.523
11
165.903
21
-144.38
0
LINE
8
BLACK
6
CONTINUOUS
10
165.903
20
-144.38
11
166.617
21
-144.38
0
LINE
8
BLACK
6
CONTINUOUS
10
166.617
20
-144.38
11
166.903
21
-144.523
0
LINE
8
BLACK
6
CONTINUOUS
10
166.903
20
-144.523
11
167.046
21
-144.666
0
LINE
8
BLACK
6
CONTINUOUS
10
167.046
20
-144.666
11
167.189
21
-144.952
0
LINE
8
BLACK
6
CONTINUOUS
10
167.189
20
-144.952
11
167.189
21
-145.237
0
LINE
8
BLACK
6
CONTINUOUS
10
167.189
20
-145.237
11
167.046
21
-145.666
0
LINE
8
BLACK
6
CONTINUOUS
10
167.046
20
-145.666
11
165.332
21
-147.38
0
LINE
8
BLACK
6
CONTINUOUS
10
165.332
20
-147.38
11
167.189
21
-147.38
0
LINE
8
BLACK
6
CONTINUOUS
10
169.76
20
-144.38
11
169.189
21
-144.38
0
LINE
8
BLACK
6
CONTINUOUS
10
169.189
20
-144.38
11
168.903
21
-144.523
0
LINE
8
BLACK
6
CONTINUOUS
10
168.903
20
-144.523
11
168.76
21
-144.666
0
LINE
8
BLACK
6
CONTINUOUS
10
168.76
20
-144.666
11
168.475
21
-145.094
0
LINE
8
BLACK
6
CONTINUOUS
10
168.475
20
-145.094
11
168.332
21
-145.666
0
LINE
8
BLACK
6
CONTINUOUS
10
168.332
20
-145.666
11
168.332
21
-146.809
0
LINE
8
BLACK
6
CONTINUOUS
10
168.332
20
-146.809
11
168.475
21
-147.094
0
LINE
8
BLACK
6
CONTINUOUS
10
168.475
20
-147.094
11
168.617
21
-147.237
0
LINE
8
BLACK
6
CONTINUOUS
10
168.617
20
-147.237
11
168.903
21
-147.38
0
LINE
8
BLACK
6
CONTINUOUS
10
168.903
20
-147.38
11
169.475
21
-147.38
0
LINE
8
BLACK
6
CONTINUOUS
10
169.475
20
-147.38
11
169.76
21
-147.237
0
LINE
8
BLACK
6
CONTINUOUS
10
169.76
20
-147.237
11
169.903
21
-147.094
0
LINE
8
BLACK
6
CONTINUOUS
10
169.903
20
-147.094
11
170.046
21
-146.809
0
LINE
8
BLACK
6
CONTINUOUS
10
170.046
20
-146.809
11
170.046
21
-146.094
0
LINE
8
BLACK
6
CONTINUOUS
10
170.046
20
-146.094
11
169.903
21
-145.809
0
LINE
8
BLACK
6
CONTINUOUS
10
169.903
20
-145.809
11
169.76
21
-145.666
0
LINE
8
BLACK
6
CONTINUOUS
10
169.76
20
-145.666
11
169.475
21
-145.523
0
LINE
8
BLACK
6
CONTINUOUS
10
169.475
20
-145.523
11
168.903
21
-145.523
0
LINE
8
BLACK
6
CONTINUOUS
10
168.903
20
-145.523
11
168.617
21
-145.666
0
LINE
8
BLACK
6
CONTINUOUS
10
168.617
20
-145.666
11
168.475
21
-145.809
0
LINE
8
BLACK
6
CONTINUOUS
10
168.475
20
-145.809
11
168.332
21
-146.094
0
LINE
8
BLACK
6
CONTINUOUS
10
171.189
20
-144.38
11
171.189
21
-144.952
0
LINE
8
BLACK
6
CONTINUOUS
10
172.332
20
-144.38
11
172.332
21
-144.952
0
LINE
8
BLACK
6
CONTINUOUS
10
176.76
20
-148.523
11
176.617
21
-148.38
0
LINE
8
BLACK
6
CONTINUOUS
10
176.617
20
-148.38
11
176.332
21
-147.952
0
LINE
8
BLACK
6
CONTINUOUS
10
176.332
20
-147.952
11
176.189
21
-147.666
0
LINE
8
BLACK
6
CONTINUOUS
10
176.189
20
-147.666
11
176.046
21
-147.237
0
LINE
8
BLACK
6
CONTINUOUS
10
176.046
20
-147.237
11
175.903
21
-146.523
0
LINE
8
BLACK
6
CONTINUOUS
10
175.903
20
-146.523
11
175.903
21
-145.952
0
LINE
8
BLACK
6
CONTINUOUS
10
175.903
20
-145.952
11
176.046
21
-145.237
0
LINE
8
BLACK
6
CONTINUOUS
10
176.046
20
-145.237
11
176.189
21
-144.809
0
LINE
8
BLACK
6
CONTINUOUS
10
176.189
20
-144.809
11
176.332
21
-144.523
0
LINE
8
BLACK
6
CONTINUOUS
10
176.332
20
-144.523
11
176.617
21
-144.094
0
LINE
8
BLACK
6
CONTINUOUS
10
176.617
20
-144.094
11
176.76
21
-143.952
0
LINE
8
BLACK
6
CONTINUOUS
10
178.332
20
-145.666
11
178.046
21
-145.523
0
LINE
8
BLACK
6
CONTINUOUS
10
178.046
20
-145.523
11
177.903
21
-145.38
0
LINE
8
BLACK
6
CONTINUOUS
10
177.903
20
-145.38
11
177.76
21
-145.094
0
LINE
8
BLACK
6
CONTINUOUS
10
177.76
20
-145.094
11
177.76
21
-144.952
0
LINE
8
BLACK
6
CONTINUOUS
10
177.76
20
-144.952
11
177.903
21
-144.666
0
LINE
8
BLACK
6
CONTINUOUS
10
177.903
20
-144.666
11
178.046
21
-144.523
0
LINE
8
BLACK
6
CONTINUOUS
10
178.046
20
-144.523
11
178.332
21
-144.38
0
LINE
8
BLACK
6
CONTINUOUS
10
178.332
20
-144.38
11
178.903
21
-144.38
0
LINE
8
BLACK
6
CONTINUOUS
10
178.903
20
-144.38
11
179.189
21
-144.523
0
LINE
8
BLACK
6
CONTINUOUS
10
179.189
20
-144.523
11
179.332
21
-144.666
0
LINE
8
BLACK
6
CONTINUOUS
10
179.332
20
-144.666
11
179.475
21
-144.952
0
LINE
8
BLACK
6
CONTINUOUS
10
179.475
20
-144.952
11
179.475
21
-145.094
0
LINE
8
BLACK
6
CONTINUOUS
10
179.475
20
-145.094
11
179.332
21
-145.38
0
LINE
8
BLACK
6
CONTINUOUS
10
179.332
20
-145.38
11
179.189
21
-145.523
0
LINE
8
BLACK
6
CONTINUOUS
10
179.189
20
-145.523
11
178.903
21
-145.666
0
LINE
8
BLACK
6
CONTINUOUS
10
178.903
20
-145.666
11
178.332
21
-145.666
0
LINE
8
BLACK
6
CONTINUOUS
10
178.332
20
-145.666
11
178.046
21
-145.809
0
LINE
8
BLACK
6
CONTINUOUS
10
178.046
20
-145.809
11
177.903
21
-145.952
0
LINE
8
BLACK
6
CONTINUOUS
10
177.903
20
-145.952
11
177.76
21
-146.237
0
LINE
8
BLACK
6
CONTINUOUS
10
177.76
20
-146.237
11
177.76
21
-146.809
0
LINE
8
BLACK
6
CONTINUOUS
10
177.76
20
-146.809
11
177.903
21
-147.094
0
LINE
8
BLACK
6
CONTINUOUS
10
177.903
20
-147.094
11
178.046
21
-147.237
0
LINE
8
BLACK
6
CONTINUOUS
10
178.046
20
-147.237
11
178.332
21
-147.38
0
LINE
8
BLACK
6
CONTINUOUS
10
178.332
20
-147.38
11
178.903
21
-147.38
0
LINE
8
BLACK
6
CONTINUOUS
10
178.903
20
-147.38
11
179.189
21
-147.237
0
LINE
8
BLACK
6
CONTINUOUS
10
179.189
20
-147.237
11
179.332
21
-147.094
0
LINE
8
BLACK
6
CONTINUOUS
10
179.332
20
-147.094
11
179.475
21
-146.809
0
LINE
8
BLACK
6
CONTINUOUS
10
179.475
20
-146.809
11
179.475
21
-146.237
0
LINE
8
BLACK
6
CONTINUOUS
10
179.475
20
-146.237
11
179.332
21
-145.952
0
LINE
8
BLACK
6
CONTINUOUS
10
179.332
20
-145.952
11
179.189
21
-145.809
0
LINE
8
BLACK
6
CONTINUOUS
10
179.189
20
-145.809
11
178.903
21
-145.666
0
LINE
8
BLACK
6
CONTINUOUS
10
183.046
20
-147.38
11
183.046
21
-144.38
0
LINE
8
BLACK
6
CONTINUOUS
10
184.332
20
-147.38
11
184.332
21
-145.809
0
LINE
8
BLACK
6
CONTINUOUS
10
184.332
20
-145.809
11
184.189
21
-145.523
0
LINE
8
BLACK
6
CONTINUOUS
10
184.189
20
-145.523
11
183.903
21
-145.38
0
LINE
8
BLACK
6
CONTINUOUS
10
183.903
20
-145.38
11
183.475
21
-145.38
0
LINE
8
BLACK
6
CONTINUOUS
10
183.475
20
-145.38
11
183.189
21
-145.523
0
LINE
8
BLACK
6
CONTINUOUS
10
183.189
20
-145.523
11
183.046
21
-145.666
0
LINE
8
BLACK
6
CONTINUOUS
10
186.189
20
-147.38
11
185.903
21
-147.237
0
LINE
8
BLACK
6
CONTINUOUS
10
185.903
20
-147.237
11
185.76
21
-147.094
0
LINE
8
BLACK
6
CONTINUOUS
10
185.76
20
-147.094
11
185.617
21
-146.809
0
LINE
8
BLACK
6
CONTINUOUS
10
185.617
20
-146.809
11
185.617
21
-145.952
0
LINE
8
BLACK
6
CONTINUOUS
10
185.617
20
-145.952
11
185.76
21
-145.666
0
LINE
8
BLACK
6
CONTINUOUS
10
185.76
20
-145.666
11
185.903
21
-145.523
0
LINE
8
BLACK
6
CONTINUOUS
10
185.903
20
-145.523
11
186.189
21
-145.38
0
LINE
8
BLACK
6
CONTINUOUS
10
186.189
20
-145.38
11
186.617
21
-145.38
0
LINE
8
BLACK
6
CONTINUOUS
10
186.617
20
-145.38
11
186.903
21
-145.523
0
LINE
8
BLACK
6
CONTINUOUS
10
186.903
20
-145.523
11
187.046
21
-145.666
0
LINE
8
BLACK
6
CONTINUOUS
10
187.046
20
-145.666
11
187.189
21
-145.952
0
LINE
8
BLACK
6
CONTINUOUS
10
187.189
20
-145.952
11
187.189
21
-146.809
0
LINE
8
BLACK
6
CONTINUOUS
10
187.189
20
-146.809
11
187.046
21
-147.094
0
LINE
8
BLACK
6
CONTINUOUS
10
187.046
20
-147.094
11
186.903
21
-147.237
0
LINE
8
BLACK
6
CONTINUOUS
10
186.903
20
-147.237
11
186.617
21
-147.38
0
LINE
8
BLACK
6
CONTINUOUS
10
186.617
20
-147.38
11
186.189
21
-147.38
0
LINE
8
BLACK
6
CONTINUOUS
10
188.903
20
-147.38
11
188.617
21
-147.237
0
LINE
8
BLACK
6
CONTINUOUS
10
188.617
20
-147.237
11
188.475
21
-146.952
0
LINE
8
BLACK
6
CONTINUOUS
10
188.475
20
-146.952
11
188.475
21
-144.38
0
LINE
8
BLACK
6
CONTINUOUS
10
191.189
20
-147.237
11
190.903
21
-147.38
0
LINE
8
BLACK
6
CONTINUOUS
10
190.903
20
-147.38
11
190.332
21
-147.38
0
LINE
8
BLACK
6
CONTINUOUS
10
190.332
20
-147.38
11
190.046
21
-147.237
0
LINE
8
BLACK
6
CONTINUOUS
10
190.046
20
-147.237
11
189.903
21
-146.952
0
LINE
8
BLACK
6
CONTINUOUS
10
189.903
20
-146.952
11
189.903
21
-145.809
0
LINE
8
BLACK
6
CONTINUOUS
10
189.903
20
-145.809
11
190.046
21
-145.523
0
LINE
8
BLACK
6
CONTINUOUS
10
190.046
20
-145.523
11
190.332
21
-145.38
0
LINE
8
BLACK
6
CONTINUOUS
10
190.332
20
-145.38
11
190.903
21
-145.38
0
LINE
8
BLACK
6
CONTINUOUS
10
190.903
20
-145.38
11
191.189
21
-145.523
0
LINE
8
BLACK
6
CONTINUOUS
10
191.189
20
-145.523
11
191.332
21
-145.809
0
LINE
8
BLACK
6
CONTINUOUS
10
191.332
20
-145.809
11
191.332
21
-146.094
0
LINE
8
BLACK
6
CONTINUOUS
10
191.332
20
-146.094
11
189.903
21
-146.38
0
LINE
8
BLACK
6
CONTINUOUS
10
192.475
20
-147.237
11
192.76
21
-147.38
0
LINE
8
BLACK
6
CONTINUOUS
10
192.76
20
-147.38
11
193.332
21
-147.38
0
LINE
8
BLACK
6
CONTINUOUS
10
193.332
20
-147.38
11
193.617
21
-147.237
0
LINE
8
BLACK
6
CONTINUOUS
10
193.617
20
-147.237
11
193.76
21
-146.952
0
LINE
8
BLACK
6
CONTINUOUS
10
193.76
20
-146.952
11
193.76
21
-146.809
0
LINE
8
BLACK
6
CONTINUOUS
10
193.76
20
-146.809
11
193.617
21
-146.523
0
LINE
8
BLACK
6
CONTINUOUS
10
193.617
20
-146.523
11
193.332
21
-146.38
0
LINE
8
BLACK
6
CONTINUOUS
10
193.332
20
-146.38
11
192.903
21
-146.38
0
LINE
8
BLACK
6
CONTINUOUS
10
192.903
20
-146.38
11
192.617
21
-146.237
0
LINE
8
BLACK
6
CONTINUOUS
10
192.617
20
-146.237
11
192.475
21
-145.952
0
LINE
8
BLACK
6
CONTINUOUS
10
192.475
20
-145.952
11
192.475
21
-145.809
0
LINE
8
BLACK
6
CONTINUOUS
10
192.475
20
-145.809
11
192.617
21
-145.523
0
LINE
8
BLACK
6
CONTINUOUS
10
192.617
20
-145.523
11
192.903
21
-145.38
0
LINE
8
BLACK
6
CONTINUOUS
10
192.903
20
-145.38
11
193.332
21
-145.38
0
LINE
8
BLACK
6
CONTINUOUS
10
193.332
20
-145.38
11
193.617
21
-145.523
0
LINE
8
BLACK
6
CONTINUOUS
10
194.76
20
-148.523
11
194.903
21
-148.38
0
LINE
8
BLACK
6
CONTINUOUS
10
194.903
20
-148.38
11
195.189
21
-147.952
0
LINE
8
BLACK
6
CONTINUOUS
10
195.189
20
-147.952
11
195.332
21
-147.666
0
LINE
8
BLACK
6
CONTINUOUS
10
195.332
20
-147.666
11
195.475
21
-147.237
0
LINE
8
BLACK
6
CONTINUOUS
10
195.475
20
-147.237
11
195.617
21
-146.523
0
LINE
8
BLACK
6
CONTINUOUS
10
195.617
20
-146.523
11
195.617
21
-145.952
0
LINE
8
BLACK
6
CONTINUOUS
10
195.617
20
-145.952
11
195.475
21
-145.237
0
LINE
8
BLACK
6
CONTINUOUS
10
195.475
20
-145.237
11
195.332
21
-144.809
0
LINE
8
BLACK
6
CONTINUOUS
10
195.332
20
-144.809
11
195.189
21
-144.523
0
LINE
8
BLACK
6
CONTINUOUS
10
195.189
20
-144.523
11
194.903
21
-144.094
0
LINE
8
BLACK
6
CONTINUOUS
10
194.903
20
-144.094
11
194.76
21
-143.952
0
LINE
8
BLACK
6
CONTINUOUS
10
200.189
20
-148.523
11
200.046
21
-148.38
0
LINE
8
BLACK
6
CONTINUOUS
10
200.046
20
-148.38
11
199.76
21
-147.952
0
LINE
8
BLACK
6
CONTINUOUS
10
199.76
20
-147.952
11
199.617
21
-147.666
0
LINE
8
BLACK
6
CONTINUOUS
10
199.617
20
-147.666
11
199.475
21
-147.237
0
LINE
8
BLACK
6
CONTINUOUS
10
199.475
20
-147.237
11
199.332
21
-146.523
0
LINE
8
BLACK
6
CONTINUOUS
10
199.332
20
-146.523
11
199.332
21
-145.952
0
LINE
8
BLACK
6
CONTINUOUS
10
199.332
20
-145.952
11
199.475
21
-145.237
0
LINE
8
BLACK
6
CONTINUOUS
10
199.475
20
-145.237
11
199.617
21
-144.809
0
LINE
8
BLACK
6
CONTINUOUS
10
199.617
20
-144.809
11
199.76
21
-144.523
0
LINE
8
BLACK
6
CONTINUOUS
10
199.76
20
-144.523
11
200.046
21
-144.094
0
LINE
8
BLACK
6
CONTINUOUS
10
200.046
20
-144.094
11
200.189
21
-143.952
0
LINE
8
BLACK
6
CONTINUOUS
10
201.332
20
-145.38
11
201.332
21
-147.38
0
LINE
8
BLACK
6
CONTINUOUS
10
201.332
20
-145.666
11
201.475
21
-145.523
0
LINE
8
BLACK
6
CONTINUOUS
10
201.475
20
-145.523
11
201.76
21
-145.38
0
LINE
8
BLACK
6
CONTINUOUS
10
201.76
20
-145.38
11
202.189
21
-145.38
0
LINE
8
BLACK
6
CONTINUOUS
10
202.189
20
-145.38
11
202.475
21
-145.523
0
LINE
8
BLACK
6
CONTINUOUS
10
202.475
20
-145.523
11
202.617
21
-145.809
0
LINE
8
BLACK
6
CONTINUOUS
10
202.617
20
-145.809
11
202.617
21
-147.38
0
LINE
8
BLACK
6
CONTINUOUS
10
204.475
20
-147.38
11
204.189
21
-147.237
0
LINE
8
BLACK
6
CONTINUOUS
10
204.189
20
-147.237
11
204.046
21
-147.094
0
LINE
8
BLACK
6
CONTINUOUS
10
204.046
20
-147.094
11
203.903
21
-146.809
0
LINE
8
BLACK
6
CONTINUOUS
10
203.903
20
-146.809
11
203.903
21
-145.952
0
LINE
8
BLACK
6
CONTINUOUS
10
203.903
20
-145.952
11
204.046
21
-145.666
0
LINE
8
BLACK
6
CONTINUOUS
10
204.046
20
-145.666
11
204.189
21
-145.523
0
LINE
8
BLACK
6
CONTINUOUS
10
204.189
20
-145.523
11
204.475
21
-145.38
0
LINE
8
BLACK
6
CONTINUOUS
10
204.475
20
-145.38
11
204.903
21
-145.38
0
LINE
8
BLACK
6
CONTINUOUS
10
204.903
20
-145.38
11
205.189
21
-145.523
0
LINE
8
BLACK
6
CONTINUOUS
10
205.189
20
-145.523
11
205.332
21
-145.666
0
LINE
8
BLACK
6
CONTINUOUS
10
205.332
20
-145.666
11
205.475
21
-145.952
0
LINE
8
BLACK
6
CONTINUOUS
10
205.475
20
-145.952
11
205.475
21
-146.809
0
LINE
8
BLACK
6
CONTINUOUS
10
205.475
20
-146.809
11
205.332
21
-147.094
0
LINE
8
BLACK
6
CONTINUOUS
10
205.332
20
-147.094
11
205.189
21
-147.237
0
LINE
8
BLACK
6
CONTINUOUS
10
205.189
20
-147.237
11
204.903
21
-147.38
0
LINE
8
BLACK
6
CONTINUOUS
10
204.903
20
-147.38
11
204.475
21
-147.38
0
LINE
8
BLACK
6
CONTINUOUS
10
206.332
20
-145.38
11
207.475
21
-145.38
0
LINE
8
BLACK
6
CONTINUOUS
10
206.76
20
-144.38
11
206.76
21
-146.952
0
LINE
8
BLACK
6
CONTINUOUS
10
206.76
20
-146.952
11
206.903
21
-147.237
0
LINE
8
BLACK
6
CONTINUOUS
10
206.903
20
-147.237
11
207.189
21
-147.38
0
LINE
8
BLACK
6
CONTINUOUS
10
207.189
20
-147.38
11
207.475
21
-147.38
0
LINE
8
BLACK
6
CONTINUOUS
10
210.76
20
-145.38
11
210.76
21
-148.38
0
LINE
8
BLACK
6
CONTINUOUS
10
210.76
20
-145.523
11
211.046
21
-145.38
0
LINE
8
BLACK
6
CONTINUOUS
10
211.046
20
-145.38
11
211.617
21
-145.38
0
LINE
8
BLACK
6
CONTINUOUS
10
211.617
20
-145.38
11
211.903
21
-145.523
0
LINE
8
BLACK
6
CONTINUOUS
10
211.903
20
-145.523
11
212.046
21
-145.666
0
LINE
8
BLACK
6
CONTINUOUS
10
212.046
20
-145.666
11
212.189
21
-145.952
0
LINE
8
BLACK
6
CONTINUOUS
10
212.189
20
-145.952
11
212.189
21
-146.809
0
LINE
8
BLACK
6
CONTINUOUS
10
212.189
20
-146.809
11
212.046
21
-147.094
0
LINE
8
BLACK
6
CONTINUOUS
10
212.046
20
-147.094
11
211.903
21
-147.237
0
LINE
8
BLACK
6
CONTINUOUS
10
211.903
20
-147.237
11
211.617
21
-147.38
0
LINE
8
BLACK
6
CONTINUOUS
10
211.617
20
-147.38
11
211.046
21
-147.38
0
LINE
8
BLACK
6
CONTINUOUS
10
211.046
20
-147.38
11
210.76
21
-147.237
0
LINE
8
BLACK
6
CONTINUOUS
10
213.903
20
-147.38
11
213.617
21
-147.237
0
LINE
8
BLACK
6
CONTINUOUS
10
213.617
20
-147.237
11
213.475
21
-146.952
0
LINE
8
BLACK
6
CONTINUOUS
10
213.475
20
-146.952
11
213.475
21
-144.38
0
LINE
8
BLACK
6
CONTINUOUS
10
216.332
20
-147.38
11
216.332
21
-145.809
0
LINE
8
BLACK
6
CONTINUOUS
10
216.332
20
-145.809
11
216.189
21
-145.523
0
LINE
8
BLACK
6
CONTINUOUS
10
216.189
20
-145.523
11
215.903
21
-145.38
0
LINE
8
BLACK
6
CONTINUOUS
10
215.903
20
-145.38
11
215.332
21
-145.38
0
LINE
8
BLACK
6
CONTINUOUS
10
215.332
20
-145.38
11
215.046
21
-145.523
0
LINE
8
BLACK
6
CONTINUOUS
10
216.332
20
-147.237
11
216.046
21
-147.38
0
LINE
8
BLACK
6
CONTINUOUS
10
216.046
20
-147.38
11
215.332
21
-147.38
0
LINE
8
BLACK
6
CONTINUOUS
10
215.332
20
-147.38
11
215.046
21
-147.237
0
LINE
8
BLACK
6
CONTINUOUS
10
215.046
20
-147.237
11
214.903
21
-146.952
0
LINE
8
BLACK
6
CONTINUOUS
10
214.903
20
-146.952
11
214.903
21
-146.666
0
LINE
8
BLACK
6
CONTINUOUS
10
214.903
20
-146.666
11
215.046
21
-146.38
0
LINE
8
BLACK
6
CONTINUOUS
10
215.046
20
-146.38
11
215.332
21
-146.237
0
LINE
8
BLACK
6
CONTINUOUS
10
215.332
20
-146.237
11
216.046
21
-146.237
0
LINE
8
BLACK
6
CONTINUOUS
10
216.046
20
-146.237
11
216.332
21
-146.094
0
LINE
8
BLACK
6
CONTINUOUS
10
217.332
20
-145.38
11
218.475
21
-145.38
0
LINE
8
BLACK
6
CONTINUOUS
10
217.76
20
-144.38
11
217.76
21
-146.952
0
LINE
8
BLACK
6
CONTINUOUS
10
217.76
20
-146.952
11
217.903
21
-147.237
0
LINE
8
BLACK
6
CONTINUOUS
10
217.903
20
-147.237
11
218.189
21
-147.38
0
LINE
8
BLACK
6
CONTINUOUS
10
218.189
20
-147.38
11
218.475
21
-147.38
0
LINE
8
BLACK
6
CONTINUOUS
10
220.617
20
-147.237
11
220.332
21
-147.38
0
LINE
8
BLACK
6
CONTINUOUS
10
220.332
20
-147.38
11
219.76
21
-147.38
0
LINE
8
BLACK
6
CONTINUOUS
10
219.76
20
-147.38
11
219.475
21
-147.237
0
LINE
8
BLACK
6
CONTINUOUS
10
219.475
20
-147.237
11
219.332
21
-146.952
0
LINE
8
BLACK
6
CONTINUOUS
10
219.332
20
-146.952
11
219.332
21
-145.809
0
LINE
8
BLACK
6
CONTINUOUS
10
219.332
20
-145.809
11
219.475
21
-145.523
0
LINE
8
BLACK
6
CONTINUOUS
10
219.475
20
-145.523
11
219.76
21
-145.38
0
LINE
8
BLACK
6
CONTINUOUS
10
219.76
20
-145.38
11
220.332
21
-145.38
0
LINE
8
BLACK
6
CONTINUOUS
10
220.332
20
-145.38
11
220.617
21
-145.523
0
LINE
8
BLACK
6
CONTINUOUS
10
220.617
20
-145.523
11
220.76
21
-145.809
0
LINE
8
BLACK
6
CONTINUOUS
10
220.76
20
-145.809
11
220.76
21
-146.094
0
LINE
8
BLACK
6
CONTINUOUS
10
220.76
20
-146.094
11
219.332
21
-146.38
0
LINE
8
BLACK
6
CONTINUOUS
10
223.332
20
-147.38
11
223.332
21
-144.38
0
LINE
8
BLACK
6
CONTINUOUS
10
223.332
20
-147.237
11
223.046
21
-147.38
0
LINE
8
BLACK
6
CONTINUOUS
10
223.046
20
-147.38
11
222.475
21
-147.38
0
LINE
8
BLACK
6
CONTINUOUS
10
222.475
20
-147.38
11
222.189
21
-147.237
0
LINE
8
BLACK
6
CONTINUOUS
10
222.189
20
-147.237
11
222.046
21
-147.094
0
LINE
8
BLACK
6
CONTINUOUS
10
222.046
20
-147.094
11
221.903
21
-146.809
0
LINE
8
BLACK
6
CONTINUOUS
10
221.903
20
-146.809
11
221.903
21
-145.952
0
LINE
8
BLACK
6
CONTINUOUS
10
221.903
20
-145.952
11
222.046
21
-145.666
0
LINE
8
BLACK
6
CONTINUOUS
10
222.046
20
-145.666
11
222.189
21
-145.523
0
LINE
8
BLACK
6
CONTINUOUS
10
222.189
20
-145.523
11
222.475
21
-145.38
0
LINE
8
BLACK
6
CONTINUOUS
10
222.475
20
-145.38
11
223.046
21
-145.38
0
LINE
8
BLACK
6
CONTINUOUS
10
223.046
20
-145.38
11
223.332
21
-145.523
0
LINE
8
BLACK
6
CONTINUOUS
10
224.475
20
-148.523
11
224.617
21
-148.38
0
LINE
8
BLACK
6
CONTINUOUS
10
224.617
20
-148.38
11
224.903
21
-147.952
0
LINE
8
BLACK
6
CONTINUOUS
10
224.903
20
-147.952
11
225.046
21
-147.666
0
LINE
8
BLACK
6
CONTINUOUS
10
225.046
20
-147.666
11
225.189
21
-147.237
0
LINE
8
BLACK
6
CONTINUOUS
10
225.189
20
-147.237
11
225.332
21
-146.523
0
LINE
8
BLACK
6
CONTINUOUS
10
225.332
20
-146.523
11
225.332
21
-145.952
0
LINE
8
BLACK
6
CONTINUOUS
10
225.332
20
-145.952
11
225.189
21
-145.237
0
LINE
8
BLACK
6
CONTINUOUS
10
225.189
20
-145.237
11
225.046
21
-144.809
0
LINE
8
BLACK
6
CONTINUOUS
10
225.046
20
-144.809
11
224.903
21
-144.523
0
LINE
8
BLACK
6
CONTINUOUS
10
224.903
20
-144.523
11
224.617
21
-144.094
0
LINE
8
BLACK
6
CONTINUOUS
10
224.617
20
-144.094
11
224.475
21
-143.952
  0
ENDSEC
  0
EOF
