M48
; DRILL file {KiCad (6.0.7-1)-1} date Sunday, 05 November 2023 at 11:58:28 am
; FORMAT={-:-/ absolute / metric / decimal}
; #@! TF.CreationDate,2023-11-05T11:58:28+10:00
; #@! TF.GenerationSoftware,Kicad,Pcbnew,(6.0.7-1)-1
; #@! TF.FileFunction,Plated,1,2,PTH
FMAT,2
METRIC
; #@! TA.AperFunction,Plated,PTH,ViaDrill
T1C0.400
; #@! TA.AperFunction,Plated,PTH,ComponentDrill
T2C0.700
; #@! TA.AperFunction,Plated,PTH,ComponentDrill
T3C0.800
; #@! TA.AperFunction,Plated,PTH,ComponentDrill
T4C0.900
; #@! TA.AperFunction,Plated,PTH,ComponentDrill
T5C1.000
; #@! TA.AperFunction,Plated,PTH,ComponentDrill
T6C1.100
; #@! TA.AperFunction,Plated,PTH,ComponentDrill
T7C1.110
; #@! TA.AperFunction,Plated,PTH,ComponentDrill
T8C1.190
%
G90
G05
T1
X135.432Y-54.652
X136.643Y-102.106
X139.262Y-78.385
X144.384Y-70.531
X146.621Y-83.809
X146.883Y-85.237
X158.878Y-64.323
X160.617Y-65.802
X161.1Y-69.359
X163.795Y-78.315
X166.136Y-83.04
X172.062Y-91.899
X172.708Y-116.255
X172.794Y-117.54
X174.645Y-74.092
X175.371Y-86.792
X176.55Y-69.448
X178.083Y-85.436
X182.375Y-79.172
X184.312Y-95.507
X190.276Y-82.708
T2
X119.1Y-45.644
X120.325Y-132.385
X121.64Y-45.644
X122.865Y-132.385
X127.94Y-40.26
X127.94Y-42.8
X135.356Y-56.312
X137.896Y-56.312
X166.852Y-57.836
X169.392Y-57.836
X172.43Y-106.3
X172.43Y-108.84
X172.44Y-119.685
X174.98Y-119.685
T3
X120.457Y-61.9
X125.457Y-61.9
X132.385Y-59.36
X132.385Y-61.9
X132.385Y-64.44
X132.385Y-66.98
X132.385Y-69.52
X132.385Y-72.06
X132.385Y-74.6
X132.385Y-77.14
X132.385Y-79.68
X132.385Y-82.22
X132.385Y-84.76
X132.385Y-87.3
X133.695Y-92.38
X138.695Y-92.38
X140.005Y-59.36
X140.005Y-61.9
X140.005Y-64.44
X140.005Y-66.98
X140.005Y-69.52
X140.005Y-72.06
X140.005Y-74.6
X140.005Y-77.14
X140.005Y-79.68
X140.005Y-82.22
X140.005Y-84.76
X140.005Y-87.3
X172.644Y-58.852
X172.644Y-61.392
X172.644Y-63.932
X172.644Y-66.472
X172.644Y-69.012
X172.644Y-71.552
X172.644Y-74.092
X172.644Y-76.632
X172.644Y-79.172
X172.644Y-81.712
X172.644Y-84.252
X172.644Y-86.792
X174.208Y-92.888
X176.24Y-107.62
X179.208Y-92.888
X180.264Y-58.852
X180.264Y-61.392
X180.264Y-63.932
X180.264Y-66.472
X180.264Y-69.012
X180.264Y-71.552
X180.264Y-74.092
X180.264Y-76.632
X180.264Y-79.172
X180.264Y-81.712
X180.264Y-84.252
X180.264Y-86.792
X181.24Y-107.62
T4
X117.013Y-40.564
X119.553Y-40.564
X122.601Y-40.564
X125.141Y-40.564
T5
X118.796Y-49.2
X118.796Y-52.985
X121.336Y-49.2
X121.336Y-52.985
X123.876Y-49.2
X123.876Y-52.985
X126.416Y-49.2
X126.416Y-52.985
X127.94Y-97.46
X127.94Y-101.27
X128.956Y-49.2
X128.956Y-52.985
X130.48Y-97.46
X130.48Y-101.27
X131.496Y-49.2
X131.496Y-52.985
X133.02Y-97.46
X133.02Y-101.27
X134.036Y-49.2
X134.036Y-52.985
X135.56Y-97.46
X135.56Y-101.27
X136.576Y-49.2
X136.576Y-52.985
X138.1Y-97.46
X138.1Y-101.27
X139.116Y-49.2
X139.116Y-52.985
X140.64Y-97.46
X140.64Y-101.27
X141.656Y-49.2
X141.656Y-52.985
X143.18Y-97.46
X143.18Y-101.27
X145.72Y-49.2
X145.72Y-53.01
X145.72Y-97.46
X145.72Y-101.27
X148.26Y-49.2
X148.26Y-53.01
X150.8Y-49.2
X150.8Y-53.01
X150.8Y-97.46
X150.8Y-101.905
X153.34Y-49.2
X153.34Y-53.01
X153.34Y-97.46
X153.34Y-101.905
X155.88Y-49.2
X155.88Y-53.01
X155.88Y-97.46
X155.88Y-101.905
X158.42Y-49.2
X158.42Y-53.01
X158.42Y-97.46
X158.42Y-101.905
X160.96Y-49.2
X160.96Y-53.01
X160.96Y-97.46
X160.96Y-101.905
X163.5Y-49.2
X163.5Y-53.01
X163.5Y-97.46
X163.5Y-101.905
X166.04Y-97.46
X166.04Y-101.905
X168.58Y-49.2
X168.58Y-53.01
X168.58Y-97.46
X168.58Y-101.905
X171.12Y-49.2
X171.12Y-53.01
X171.628Y-39.47
X171.628Y-44.12
X173.66Y-49.2
X173.66Y-53.01
X173.66Y-97.46
X173.66Y-101.905
X174.168Y-39.47
X174.168Y-44.12
X176.2Y-49.2
X176.2Y-53.01
X176.2Y-97.46
X176.2Y-101.905
X176.708Y-39.47
X176.708Y-44.12
X178.74Y-49.2
X178.74Y-53.01
X178.74Y-97.46
X178.74Y-101.905
X179.248Y-39.47
X179.248Y-44.12
X181.28Y-49.2
X181.28Y-53.01
X181.28Y-97.46
X181.28Y-101.905
X181.788Y-39.47
X181.788Y-44.12
X183.82Y-49.2
X183.82Y-53.01
X183.82Y-97.46
X183.82Y-101.905
X184.328Y-39.47
X184.328Y-44.12
X186.36Y-49.2
X186.36Y-53.01
X186.36Y-97.46
X186.36Y-101.905
X186.868Y-39.47
X186.868Y-44.12
X188.9Y-97.46
X188.9Y-101.905
X189.408Y-39.47
X189.408Y-44.12
X191.44Y-97.46
X191.44Y-101.905
X193.98Y-49.2
X193.98Y-51.74
X193.98Y-54.28
X193.98Y-56.82
X193.98Y-59.36
X193.98Y-61.9
X193.98Y-64.44
X193.98Y-66.98
X193.98Y-69.52
X193.98Y-72.06
X193.98Y-74.6
X193.98Y-77.14
X193.98Y-79.68
X193.98Y-82.22
X193.98Y-84.76
X193.98Y-87.3
X193.98Y-89.84
X193.98Y-92.38
X196.52Y-49.2
X196.52Y-51.74
X196.52Y-54.28
X196.52Y-56.82
X196.52Y-59.36
X196.52Y-61.9
X196.52Y-64.44
X196.52Y-66.98
X196.52Y-69.52
X196.52Y-72.06
X196.52Y-74.6
X196.52Y-77.14
X196.52Y-79.68
X196.52Y-82.22
X196.52Y-84.76
X196.52Y-87.3
X196.52Y-89.84
X196.52Y-92.38
X203.124Y-38.532
X203.124Y-42.088
X205.664Y-38.532
X205.664Y-42.088
X208.204Y-38.532
X208.204Y-42.088
X210.744Y-38.532
X210.744Y-42.088
T6
X173.66Y-114.605
X176.2Y-114.605
X178.74Y-114.605
T7
X117.495Y-105.715
X117.495Y-126.035
X120.035Y-105.715
X120.035Y-126.035
X122.575Y-105.715
X122.575Y-126.035
X125.115Y-105.715
X125.115Y-126.035
X127.655Y-105.715
X127.655Y-126.035
X130.195Y-105.715
X130.195Y-126.035
T8
X142.926Y-41.092
X143.18Y-108.91
X143.18Y-116.76
X143.18Y-124.61
X144.196Y-72.568
X144.196Y-81.204
X144.196Y-89.84
X145.466Y-41.092
X145.72Y-108.91
X145.72Y-116.76
X145.72Y-124.61
X145.974Y-63.952
X146.736Y-72.568
X146.736Y-81.204
X146.736Y-89.84
X148.006Y-41.092
X148.514Y-63.952
X149.276Y-72.568
X149.276Y-81.204
X149.276Y-89.84
X150.31Y-108.91
X150.31Y-116.76
X150.31Y-124.61
X150.546Y-41.092
X151.054Y-63.952
X151.816Y-72.568
X151.816Y-81.204
X151.816Y-89.84
X152.85Y-108.91
X152.85Y-116.76
X152.85Y-124.61
X153.594Y-63.952
X154.356Y-72.568
X154.356Y-81.204
X154.356Y-89.84
X155.118Y-41.092
X156.878Y-124.384
X156.896Y-72.568
X156.896Y-81.204
X156.896Y-89.84
X157.44Y-108.91
X157.44Y-116.76
X157.658Y-41.092
X159.418Y-124.384
X159.436Y-72.568
X159.436Y-81.204
X159.436Y-89.84
X159.98Y-108.91
X159.98Y-116.76
X160.198Y-41.092
X161.976Y-72.568
X161.976Y-81.204
X161.976Y-89.84
X162.738Y-41.092
X164.008Y-124.384
X164.57Y-108.91
X164.57Y-116.76
X165.278Y-41.092
X166.548Y-124.384
X167.11Y-108.91
X167.11Y-116.76
X167.818Y-41.092
X171.138Y-124.384
X173.678Y-124.384
X177.978Y-124.404
X180.518Y-124.404
X185.108Y-124.404
X186.868Y-58.344
X186.868Y-60.884
X186.868Y-63.424
X186.868Y-65.964
X186.868Y-68.504
X186.868Y-71.044
X186.868Y-73.584
X186.868Y-76.124
X186.868Y-80.188
X186.868Y-82.728
X186.868Y-85.268
X186.868Y-87.808
X187.648Y-124.404
X188.138Y-109.164
X188.138Y-116.276
X190.678Y-109.164
X190.678Y-116.276
X202.108Y-113.716
X202.108Y-116.256
X202.108Y-118.796
X202.108Y-121.336
X202.108Y-123.876
X202.108Y-126.416
X202.128Y-45.898
X202.128Y-48.438
X202.128Y-50.978
X202.128Y-53.518
X202.128Y-57.555
X202.128Y-60.095
X202.128Y-62.635
X202.128Y-65.175
X202.128Y-69.012
X202.128Y-71.552
X202.128Y-74.092
X202.128Y-76.632
X202.128Y-80.696
X202.128Y-83.236
X202.128Y-85.776
X202.128Y-88.316
X202.128Y-90.856
X202.128Y-93.396
X202.128Y-97.206
X202.128Y-99.746
X202.128Y-102.286
X202.128Y-104.826
X202.128Y-107.366
X202.128Y-109.906
X210.236Y-45.898
X210.236Y-48.438
X210.236Y-50.978
X210.236Y-53.518
X210.236Y-57.555
X210.236Y-60.095
X210.236Y-62.635
X210.236Y-65.175
X210.236Y-69.012
X210.236Y-71.552
X210.236Y-74.092
X210.236Y-76.632
X210.236Y-80.696
X210.236Y-83.236
X210.236Y-85.776
X210.236Y-88.316
X210.236Y-90.856
X210.236Y-93.396
X210.256Y-97.206
X210.256Y-99.746
X210.256Y-102.286
X210.256Y-104.826
X210.256Y-107.366
X210.256Y-109.906
X210.256Y-113.707
X210.256Y-116.247
X210.256Y-118.787
X210.256Y-121.327
X210.256Y-123.867
X210.256Y-126.407
T5
G00X119.66Y-74.945
M15
G01X119.66Y-76.945
M16
G05
G00X119.66Y-87.882
M15
G01X119.66Y-89.882
M16
G05
G00X121.66Y-80.645
M15
G01X123.66Y-80.645
M16
G05
G00X121.66Y-93.582
M15
G01X123.66Y-93.582
M16
G05
G00X125.66Y-74.945
M15
G01X125.66Y-76.945
M16
G05
G00X125.66Y-87.882
M15
G01X125.66Y-89.882
M16
G05
T0
M30
