%TF.GenerationSoftware,KiCad,Pcbnew,8.0.3*%
%TF.CreationDate,2024-11-29T12:56:50+10:00*%
%TF.ProjectId,Right Console Output,52696768-7420-4436-9f6e-736f6c65204f,rev?*%
%TF.SameCoordinates,Original*%
%TF.FileFunction,Legend,Bot*%
%TF.FilePolarity,Positive*%
%FSLAX46Y46*%
G04 Gerber Fmt 4.6, Leading zero omitted, Abs format (unit mm)*
G04 Created by KiCad (PCBNEW 8.0.3) date 2024-11-29 12:56:50*
%MOMM*%
%LPD*%
G01*
G04 APERTURE LIST*
%ADD10C,0.150000*%
G04 APERTURE END LIST*
D10*
X162744763Y-75562819D02*
X162744763Y-74562819D01*
X162744763Y-74562819D02*
X162506668Y-74562819D01*
X162506668Y-74562819D02*
X162363811Y-74610438D01*
X162363811Y-74610438D02*
X162268573Y-74705676D01*
X162268573Y-74705676D02*
X162220954Y-74800914D01*
X162220954Y-74800914D02*
X162173335Y-74991390D01*
X162173335Y-74991390D02*
X162173335Y-75134247D01*
X162173335Y-75134247D02*
X162220954Y-75324723D01*
X162220954Y-75324723D02*
X162268573Y-75419961D01*
X162268573Y-75419961D02*
X162363811Y-75515200D01*
X162363811Y-75515200D02*
X162506668Y-75562819D01*
X162506668Y-75562819D02*
X162744763Y-75562819D01*
X161744763Y-75562819D02*
X161744763Y-74562819D01*
X161744763Y-74562819D02*
X161363811Y-74562819D01*
X161363811Y-74562819D02*
X161268573Y-74610438D01*
X161268573Y-74610438D02*
X161220954Y-74658057D01*
X161220954Y-74658057D02*
X161173335Y-74753295D01*
X161173335Y-74753295D02*
X161173335Y-74896152D01*
X161173335Y-74896152D02*
X161220954Y-74991390D01*
X161220954Y-74991390D02*
X161268573Y-75039009D01*
X161268573Y-75039009D02*
X161363811Y-75086628D01*
X161363811Y-75086628D02*
X161744763Y-75086628D01*
X158697144Y-74610438D02*
X158792382Y-74562819D01*
X158792382Y-74562819D02*
X158935239Y-74562819D01*
X158935239Y-74562819D02*
X159078096Y-74610438D01*
X159078096Y-74610438D02*
X159173334Y-74705676D01*
X159173334Y-74705676D02*
X159220953Y-74800914D01*
X159220953Y-74800914D02*
X159268572Y-74991390D01*
X159268572Y-74991390D02*
X159268572Y-75134247D01*
X159268572Y-75134247D02*
X159220953Y-75324723D01*
X159220953Y-75324723D02*
X159173334Y-75419961D01*
X159173334Y-75419961D02*
X159078096Y-75515200D01*
X159078096Y-75515200D02*
X158935239Y-75562819D01*
X158935239Y-75562819D02*
X158840001Y-75562819D01*
X158840001Y-75562819D02*
X158697144Y-75515200D01*
X158697144Y-75515200D02*
X158649525Y-75467580D01*
X158649525Y-75467580D02*
X158649525Y-75134247D01*
X158649525Y-75134247D02*
X158840001Y-75134247D01*
X156363810Y-75039009D02*
X156697143Y-75039009D01*
X156697143Y-75562819D02*
X156697143Y-74562819D01*
X156697143Y-74562819D02*
X156220953Y-74562819D01*
X154316190Y-75039009D02*
X153982857Y-75039009D01*
X153840000Y-75562819D02*
X154316190Y-75562819D01*
X154316190Y-75562819D02*
X154316190Y-74562819D01*
X154316190Y-74562819D02*
X153840000Y-74562819D01*
X151887618Y-75562819D02*
X151887618Y-74562819D01*
X151887618Y-74562819D02*
X151649523Y-74562819D01*
X151649523Y-74562819D02*
X151506666Y-74610438D01*
X151506666Y-74610438D02*
X151411428Y-74705676D01*
X151411428Y-74705676D02*
X151363809Y-74800914D01*
X151363809Y-74800914D02*
X151316190Y-74991390D01*
X151316190Y-74991390D02*
X151316190Y-75134247D01*
X151316190Y-75134247D02*
X151363809Y-75324723D01*
X151363809Y-75324723D02*
X151411428Y-75419961D01*
X151411428Y-75419961D02*
X151506666Y-75515200D01*
X151506666Y-75515200D02*
X151649523Y-75562819D01*
X151649523Y-75562819D02*
X151887618Y-75562819D01*
X148792380Y-75467580D02*
X148839999Y-75515200D01*
X148839999Y-75515200D02*
X148982856Y-75562819D01*
X148982856Y-75562819D02*
X149078094Y-75562819D01*
X149078094Y-75562819D02*
X149220951Y-75515200D01*
X149220951Y-75515200D02*
X149316189Y-75419961D01*
X149316189Y-75419961D02*
X149363808Y-75324723D01*
X149363808Y-75324723D02*
X149411427Y-75134247D01*
X149411427Y-75134247D02*
X149411427Y-74991390D01*
X149411427Y-74991390D02*
X149363808Y-74800914D01*
X149363808Y-74800914D02*
X149316189Y-74705676D01*
X149316189Y-74705676D02*
X149220951Y-74610438D01*
X149220951Y-74610438D02*
X149078094Y-74562819D01*
X149078094Y-74562819D02*
X148982856Y-74562819D01*
X148982856Y-74562819D02*
X148839999Y-74610438D01*
X148839999Y-74610438D02*
X148792380Y-74658057D01*
X146506665Y-75039009D02*
X146363808Y-75086628D01*
X146363808Y-75086628D02*
X146316189Y-75134247D01*
X146316189Y-75134247D02*
X146268570Y-75229485D01*
X146268570Y-75229485D02*
X146268570Y-75372342D01*
X146268570Y-75372342D02*
X146316189Y-75467580D01*
X146316189Y-75467580D02*
X146363808Y-75515200D01*
X146363808Y-75515200D02*
X146459046Y-75562819D01*
X146459046Y-75562819D02*
X146839998Y-75562819D01*
X146839998Y-75562819D02*
X146839998Y-74562819D01*
X146839998Y-74562819D02*
X146506665Y-74562819D01*
X146506665Y-74562819D02*
X146411427Y-74610438D01*
X146411427Y-74610438D02*
X146363808Y-74658057D01*
X146363808Y-74658057D02*
X146316189Y-74753295D01*
X146316189Y-74753295D02*
X146316189Y-74848533D01*
X146316189Y-74848533D02*
X146363808Y-74943771D01*
X146363808Y-74943771D02*
X146411427Y-74991390D01*
X146411427Y-74991390D02*
X146506665Y-75039009D01*
X146506665Y-75039009D02*
X146839998Y-75039009D01*
X144363807Y-75277104D02*
X143887617Y-75277104D01*
X144459045Y-75562819D02*
X144125712Y-74562819D01*
X144125712Y-74562819D02*
X143792379Y-75562819D01*
X162744763Y-92834819D02*
X162744763Y-91834819D01*
X162744763Y-91834819D02*
X162506668Y-91834819D01*
X162506668Y-91834819D02*
X162363811Y-91882438D01*
X162363811Y-91882438D02*
X162268573Y-91977676D01*
X162268573Y-91977676D02*
X162220954Y-92072914D01*
X162220954Y-92072914D02*
X162173335Y-92263390D01*
X162173335Y-92263390D02*
X162173335Y-92406247D01*
X162173335Y-92406247D02*
X162220954Y-92596723D01*
X162220954Y-92596723D02*
X162268573Y-92691961D01*
X162268573Y-92691961D02*
X162363811Y-92787200D01*
X162363811Y-92787200D02*
X162506668Y-92834819D01*
X162506668Y-92834819D02*
X162744763Y-92834819D01*
X161744763Y-92834819D02*
X161744763Y-91834819D01*
X161744763Y-91834819D02*
X161363811Y-91834819D01*
X161363811Y-91834819D02*
X161268573Y-91882438D01*
X161268573Y-91882438D02*
X161220954Y-91930057D01*
X161220954Y-91930057D02*
X161173335Y-92025295D01*
X161173335Y-92025295D02*
X161173335Y-92168152D01*
X161173335Y-92168152D02*
X161220954Y-92263390D01*
X161220954Y-92263390D02*
X161268573Y-92311009D01*
X161268573Y-92311009D02*
X161363811Y-92358628D01*
X161363811Y-92358628D02*
X161744763Y-92358628D01*
X158697144Y-91882438D02*
X158792382Y-91834819D01*
X158792382Y-91834819D02*
X158935239Y-91834819D01*
X158935239Y-91834819D02*
X159078096Y-91882438D01*
X159078096Y-91882438D02*
X159173334Y-91977676D01*
X159173334Y-91977676D02*
X159220953Y-92072914D01*
X159220953Y-92072914D02*
X159268572Y-92263390D01*
X159268572Y-92263390D02*
X159268572Y-92406247D01*
X159268572Y-92406247D02*
X159220953Y-92596723D01*
X159220953Y-92596723D02*
X159173334Y-92691961D01*
X159173334Y-92691961D02*
X159078096Y-92787200D01*
X159078096Y-92787200D02*
X158935239Y-92834819D01*
X158935239Y-92834819D02*
X158840001Y-92834819D01*
X158840001Y-92834819D02*
X158697144Y-92787200D01*
X158697144Y-92787200D02*
X158649525Y-92739580D01*
X158649525Y-92739580D02*
X158649525Y-92406247D01*
X158649525Y-92406247D02*
X158840001Y-92406247D01*
X156363810Y-92311009D02*
X156697143Y-92311009D01*
X156697143Y-92834819D02*
X156697143Y-91834819D01*
X156697143Y-91834819D02*
X156220953Y-91834819D01*
X154316190Y-92311009D02*
X153982857Y-92311009D01*
X153840000Y-92834819D02*
X154316190Y-92834819D01*
X154316190Y-92834819D02*
X154316190Y-91834819D01*
X154316190Y-91834819D02*
X153840000Y-91834819D01*
X151887618Y-92834819D02*
X151887618Y-91834819D01*
X151887618Y-91834819D02*
X151649523Y-91834819D01*
X151649523Y-91834819D02*
X151506666Y-91882438D01*
X151506666Y-91882438D02*
X151411428Y-91977676D01*
X151411428Y-91977676D02*
X151363809Y-92072914D01*
X151363809Y-92072914D02*
X151316190Y-92263390D01*
X151316190Y-92263390D02*
X151316190Y-92406247D01*
X151316190Y-92406247D02*
X151363809Y-92596723D01*
X151363809Y-92596723D02*
X151411428Y-92691961D01*
X151411428Y-92691961D02*
X151506666Y-92787200D01*
X151506666Y-92787200D02*
X151649523Y-92834819D01*
X151649523Y-92834819D02*
X151887618Y-92834819D01*
X148792380Y-92739580D02*
X148839999Y-92787200D01*
X148839999Y-92787200D02*
X148982856Y-92834819D01*
X148982856Y-92834819D02*
X149078094Y-92834819D01*
X149078094Y-92834819D02*
X149220951Y-92787200D01*
X149220951Y-92787200D02*
X149316189Y-92691961D01*
X149316189Y-92691961D02*
X149363808Y-92596723D01*
X149363808Y-92596723D02*
X149411427Y-92406247D01*
X149411427Y-92406247D02*
X149411427Y-92263390D01*
X149411427Y-92263390D02*
X149363808Y-92072914D01*
X149363808Y-92072914D02*
X149316189Y-91977676D01*
X149316189Y-91977676D02*
X149220951Y-91882438D01*
X149220951Y-91882438D02*
X149078094Y-91834819D01*
X149078094Y-91834819D02*
X148982856Y-91834819D01*
X148982856Y-91834819D02*
X148839999Y-91882438D01*
X148839999Y-91882438D02*
X148792380Y-91930057D01*
X146506665Y-92311009D02*
X146363808Y-92358628D01*
X146363808Y-92358628D02*
X146316189Y-92406247D01*
X146316189Y-92406247D02*
X146268570Y-92501485D01*
X146268570Y-92501485D02*
X146268570Y-92644342D01*
X146268570Y-92644342D02*
X146316189Y-92739580D01*
X146316189Y-92739580D02*
X146363808Y-92787200D01*
X146363808Y-92787200D02*
X146459046Y-92834819D01*
X146459046Y-92834819D02*
X146839998Y-92834819D01*
X146839998Y-92834819D02*
X146839998Y-91834819D01*
X146839998Y-91834819D02*
X146506665Y-91834819D01*
X146506665Y-91834819D02*
X146411427Y-91882438D01*
X146411427Y-91882438D02*
X146363808Y-91930057D01*
X146363808Y-91930057D02*
X146316189Y-92025295D01*
X146316189Y-92025295D02*
X146316189Y-92120533D01*
X146316189Y-92120533D02*
X146363808Y-92215771D01*
X146363808Y-92215771D02*
X146411427Y-92263390D01*
X146411427Y-92263390D02*
X146506665Y-92311009D01*
X146506665Y-92311009D02*
X146839998Y-92311009D01*
X144363807Y-92549104D02*
X143887617Y-92549104D01*
X144459045Y-92834819D02*
X144125712Y-91834819D01*
X144125712Y-91834819D02*
X143792379Y-92834819D01*
X188953180Y-76892763D02*
X189953180Y-76892763D01*
X189953180Y-76892763D02*
X189953180Y-76654668D01*
X189953180Y-76654668D02*
X189905561Y-76511811D01*
X189905561Y-76511811D02*
X189810323Y-76416573D01*
X189810323Y-76416573D02*
X189715085Y-76368954D01*
X189715085Y-76368954D02*
X189524609Y-76321335D01*
X189524609Y-76321335D02*
X189381752Y-76321335D01*
X189381752Y-76321335D02*
X189191276Y-76368954D01*
X189191276Y-76368954D02*
X189096038Y-76416573D01*
X189096038Y-76416573D02*
X189000800Y-76511811D01*
X189000800Y-76511811D02*
X188953180Y-76654668D01*
X188953180Y-76654668D02*
X188953180Y-76892763D01*
X188953180Y-75892763D02*
X189953180Y-75892763D01*
X189953180Y-75892763D02*
X189953180Y-75511811D01*
X189953180Y-75511811D02*
X189905561Y-75416573D01*
X189905561Y-75416573D02*
X189857942Y-75368954D01*
X189857942Y-75368954D02*
X189762704Y-75321335D01*
X189762704Y-75321335D02*
X189619847Y-75321335D01*
X189619847Y-75321335D02*
X189524609Y-75368954D01*
X189524609Y-75368954D02*
X189476990Y-75416573D01*
X189476990Y-75416573D02*
X189429371Y-75511811D01*
X189429371Y-75511811D02*
X189429371Y-75892763D01*
X189905561Y-72845144D02*
X189953180Y-72940382D01*
X189953180Y-72940382D02*
X189953180Y-73083239D01*
X189953180Y-73083239D02*
X189905561Y-73226096D01*
X189905561Y-73226096D02*
X189810323Y-73321334D01*
X189810323Y-73321334D02*
X189715085Y-73368953D01*
X189715085Y-73368953D02*
X189524609Y-73416572D01*
X189524609Y-73416572D02*
X189381752Y-73416572D01*
X189381752Y-73416572D02*
X189191276Y-73368953D01*
X189191276Y-73368953D02*
X189096038Y-73321334D01*
X189096038Y-73321334D02*
X189000800Y-73226096D01*
X189000800Y-73226096D02*
X188953180Y-73083239D01*
X188953180Y-73083239D02*
X188953180Y-72988001D01*
X188953180Y-72988001D02*
X189000800Y-72845144D01*
X189000800Y-72845144D02*
X189048419Y-72797525D01*
X189048419Y-72797525D02*
X189381752Y-72797525D01*
X189381752Y-72797525D02*
X189381752Y-72988001D01*
X189476990Y-70511810D02*
X189476990Y-70845143D01*
X188953180Y-70845143D02*
X189953180Y-70845143D01*
X189953180Y-70845143D02*
X189953180Y-70368953D01*
X189476990Y-68464190D02*
X189476990Y-68130857D01*
X188953180Y-67988000D02*
X188953180Y-68464190D01*
X188953180Y-68464190D02*
X189953180Y-68464190D01*
X189953180Y-68464190D02*
X189953180Y-67988000D01*
X188953180Y-66035618D02*
X189953180Y-66035618D01*
X189953180Y-66035618D02*
X189953180Y-65797523D01*
X189953180Y-65797523D02*
X189905561Y-65654666D01*
X189905561Y-65654666D02*
X189810323Y-65559428D01*
X189810323Y-65559428D02*
X189715085Y-65511809D01*
X189715085Y-65511809D02*
X189524609Y-65464190D01*
X189524609Y-65464190D02*
X189381752Y-65464190D01*
X189381752Y-65464190D02*
X189191276Y-65511809D01*
X189191276Y-65511809D02*
X189096038Y-65559428D01*
X189096038Y-65559428D02*
X189000800Y-65654666D01*
X189000800Y-65654666D02*
X188953180Y-65797523D01*
X188953180Y-65797523D02*
X188953180Y-66035618D01*
X189048419Y-62940380D02*
X189000800Y-62987999D01*
X189000800Y-62987999D02*
X188953180Y-63130856D01*
X188953180Y-63130856D02*
X188953180Y-63226094D01*
X188953180Y-63226094D02*
X189000800Y-63368951D01*
X189000800Y-63368951D02*
X189096038Y-63464189D01*
X189096038Y-63464189D02*
X189191276Y-63511808D01*
X189191276Y-63511808D02*
X189381752Y-63559427D01*
X189381752Y-63559427D02*
X189524609Y-63559427D01*
X189524609Y-63559427D02*
X189715085Y-63511808D01*
X189715085Y-63511808D02*
X189810323Y-63464189D01*
X189810323Y-63464189D02*
X189905561Y-63368951D01*
X189905561Y-63368951D02*
X189953180Y-63226094D01*
X189953180Y-63226094D02*
X189953180Y-63130856D01*
X189953180Y-63130856D02*
X189905561Y-62987999D01*
X189905561Y-62987999D02*
X189857942Y-62940380D01*
X189476990Y-60654665D02*
X189429371Y-60511808D01*
X189429371Y-60511808D02*
X189381752Y-60464189D01*
X189381752Y-60464189D02*
X189286514Y-60416570D01*
X189286514Y-60416570D02*
X189143657Y-60416570D01*
X189143657Y-60416570D02*
X189048419Y-60464189D01*
X189048419Y-60464189D02*
X189000800Y-60511808D01*
X189000800Y-60511808D02*
X188953180Y-60607046D01*
X188953180Y-60607046D02*
X188953180Y-60987998D01*
X188953180Y-60987998D02*
X189953180Y-60987998D01*
X189953180Y-60987998D02*
X189953180Y-60654665D01*
X189953180Y-60654665D02*
X189905561Y-60559427D01*
X189905561Y-60559427D02*
X189857942Y-60511808D01*
X189857942Y-60511808D02*
X189762704Y-60464189D01*
X189762704Y-60464189D02*
X189667466Y-60464189D01*
X189667466Y-60464189D02*
X189572228Y-60511808D01*
X189572228Y-60511808D02*
X189524609Y-60559427D01*
X189524609Y-60559427D02*
X189476990Y-60654665D01*
X189476990Y-60654665D02*
X189476990Y-60987998D01*
X189238895Y-58511807D02*
X189238895Y-58035617D01*
X188953180Y-58607045D02*
X189953180Y-58273712D01*
X189953180Y-58273712D02*
X188953180Y-57940379D01*
X184290819Y-66170476D02*
X185005104Y-66170476D01*
X185005104Y-66170476D02*
X185147961Y-66122857D01*
X185147961Y-66122857D02*
X185243200Y-66027619D01*
X185243200Y-66027619D02*
X185290819Y-65884762D01*
X185290819Y-65884762D02*
X185290819Y-65789524D01*
X184290819Y-67122857D02*
X184290819Y-66646667D01*
X184290819Y-66646667D02*
X184767009Y-66599048D01*
X184767009Y-66599048D02*
X184719390Y-66646667D01*
X184719390Y-66646667D02*
X184671771Y-66741905D01*
X184671771Y-66741905D02*
X184671771Y-66980000D01*
X184671771Y-66980000D02*
X184719390Y-67075238D01*
X184719390Y-67075238D02*
X184767009Y-67122857D01*
X184767009Y-67122857D02*
X184862247Y-67170476D01*
X184862247Y-67170476D02*
X185100342Y-67170476D01*
X185100342Y-67170476D02*
X185195580Y-67122857D01*
X185195580Y-67122857D02*
X185243200Y-67075238D01*
X185243200Y-67075238D02*
X185290819Y-66980000D01*
X185290819Y-66980000D02*
X185290819Y-66741905D01*
X185290819Y-66741905D02*
X185243200Y-66646667D01*
X185243200Y-66646667D02*
X185195580Y-66599048D01*
X184290819Y-68075238D02*
X184290819Y-67599048D01*
X184290819Y-67599048D02*
X184767009Y-67551429D01*
X184767009Y-67551429D02*
X184719390Y-67599048D01*
X184719390Y-67599048D02*
X184671771Y-67694286D01*
X184671771Y-67694286D02*
X184671771Y-67932381D01*
X184671771Y-67932381D02*
X184719390Y-68027619D01*
X184719390Y-68027619D02*
X184767009Y-68075238D01*
X184767009Y-68075238D02*
X184862247Y-68122857D01*
X184862247Y-68122857D02*
X185100342Y-68122857D01*
X185100342Y-68122857D02*
X185195580Y-68075238D01*
X185195580Y-68075238D02*
X185243200Y-68027619D01*
X185243200Y-68027619D02*
X185290819Y-67932381D01*
X185290819Y-67932381D02*
X185290819Y-67694286D01*
X185290819Y-67694286D02*
X185243200Y-67599048D01*
X185243200Y-67599048D02*
X185195580Y-67551429D01*
X204366819Y-72825476D02*
X205081104Y-72825476D01*
X205081104Y-72825476D02*
X205223961Y-72777857D01*
X205223961Y-72777857D02*
X205319200Y-72682619D01*
X205319200Y-72682619D02*
X205366819Y-72539762D01*
X205366819Y-72539762D02*
X205366819Y-72444524D01*
X204366819Y-73206429D02*
X204366819Y-73825476D01*
X204366819Y-73825476D02*
X204747771Y-73492143D01*
X204747771Y-73492143D02*
X204747771Y-73635000D01*
X204747771Y-73635000D02*
X204795390Y-73730238D01*
X204795390Y-73730238D02*
X204843009Y-73777857D01*
X204843009Y-73777857D02*
X204938247Y-73825476D01*
X204938247Y-73825476D02*
X205176342Y-73825476D01*
X205176342Y-73825476D02*
X205271580Y-73777857D01*
X205271580Y-73777857D02*
X205319200Y-73730238D01*
X205319200Y-73730238D02*
X205366819Y-73635000D01*
X205366819Y-73635000D02*
X205366819Y-73349286D01*
X205366819Y-73349286D02*
X205319200Y-73254048D01*
X205319200Y-73254048D02*
X205271580Y-73206429D01*
X204366819Y-74730238D02*
X204366819Y-74254048D01*
X204366819Y-74254048D02*
X204843009Y-74206429D01*
X204843009Y-74206429D02*
X204795390Y-74254048D01*
X204795390Y-74254048D02*
X204747771Y-74349286D01*
X204747771Y-74349286D02*
X204747771Y-74587381D01*
X204747771Y-74587381D02*
X204795390Y-74682619D01*
X204795390Y-74682619D02*
X204843009Y-74730238D01*
X204843009Y-74730238D02*
X204938247Y-74777857D01*
X204938247Y-74777857D02*
X205176342Y-74777857D01*
X205176342Y-74777857D02*
X205271580Y-74730238D01*
X205271580Y-74730238D02*
X205319200Y-74682619D01*
X205319200Y-74682619D02*
X205366819Y-74587381D01*
X205366819Y-74587381D02*
X205366819Y-74349286D01*
X205366819Y-74349286D02*
X205319200Y-74254048D01*
X205319200Y-74254048D02*
X205271580Y-74206429D01*
X164809523Y-105296819D02*
X164809523Y-106011104D01*
X164809523Y-106011104D02*
X164857142Y-106153961D01*
X164857142Y-106153961D02*
X164952380Y-106249200D01*
X164952380Y-106249200D02*
X165095237Y-106296819D01*
X165095237Y-106296819D02*
X165190475Y-106296819D01*
X163809523Y-106296819D02*
X164380951Y-106296819D01*
X164095237Y-106296819D02*
X164095237Y-105296819D01*
X164095237Y-105296819D02*
X164190475Y-105439676D01*
X164190475Y-105439676D02*
X164285713Y-105534914D01*
X164285713Y-105534914D02*
X164380951Y-105582533D01*
X163428570Y-105392057D02*
X163380951Y-105344438D01*
X163380951Y-105344438D02*
X163285713Y-105296819D01*
X163285713Y-105296819D02*
X163047618Y-105296819D01*
X163047618Y-105296819D02*
X162952380Y-105344438D01*
X162952380Y-105344438D02*
X162904761Y-105392057D01*
X162904761Y-105392057D02*
X162857142Y-105487295D01*
X162857142Y-105487295D02*
X162857142Y-105582533D01*
X162857142Y-105582533D02*
X162904761Y-105725390D01*
X162904761Y-105725390D02*
X163476189Y-106296819D01*
X163476189Y-106296819D02*
X162857142Y-106296819D01*
X204474819Y-49527476D02*
X205189104Y-49527476D01*
X205189104Y-49527476D02*
X205331961Y-49479857D01*
X205331961Y-49479857D02*
X205427200Y-49384619D01*
X205427200Y-49384619D02*
X205474819Y-49241762D01*
X205474819Y-49241762D02*
X205474819Y-49146524D01*
X204474819Y-49908429D02*
X204474819Y-50527476D01*
X204474819Y-50527476D02*
X204855771Y-50194143D01*
X204855771Y-50194143D02*
X204855771Y-50337000D01*
X204855771Y-50337000D02*
X204903390Y-50432238D01*
X204903390Y-50432238D02*
X204951009Y-50479857D01*
X204951009Y-50479857D02*
X205046247Y-50527476D01*
X205046247Y-50527476D02*
X205284342Y-50527476D01*
X205284342Y-50527476D02*
X205379580Y-50479857D01*
X205379580Y-50479857D02*
X205427200Y-50432238D01*
X205427200Y-50432238D02*
X205474819Y-50337000D01*
X205474819Y-50337000D02*
X205474819Y-50051286D01*
X205474819Y-50051286D02*
X205427200Y-49956048D01*
X205427200Y-49956048D02*
X205379580Y-49908429D01*
X205474819Y-51003667D02*
X205474819Y-51194143D01*
X205474819Y-51194143D02*
X205427200Y-51289381D01*
X205427200Y-51289381D02*
X205379580Y-51337000D01*
X205379580Y-51337000D02*
X205236723Y-51432238D01*
X205236723Y-51432238D02*
X205046247Y-51479857D01*
X205046247Y-51479857D02*
X204665295Y-51479857D01*
X204665295Y-51479857D02*
X204570057Y-51432238D01*
X204570057Y-51432238D02*
X204522438Y-51384619D01*
X204522438Y-51384619D02*
X204474819Y-51289381D01*
X204474819Y-51289381D02*
X204474819Y-51098905D01*
X204474819Y-51098905D02*
X204522438Y-51003667D01*
X204522438Y-51003667D02*
X204570057Y-50956048D01*
X204570057Y-50956048D02*
X204665295Y-50908429D01*
X204665295Y-50908429D02*
X204903390Y-50908429D01*
X204903390Y-50908429D02*
X204998628Y-50956048D01*
X204998628Y-50956048D02*
X205046247Y-51003667D01*
X205046247Y-51003667D02*
X205093866Y-51098905D01*
X205093866Y-51098905D02*
X205093866Y-51289381D01*
X205093866Y-51289381D02*
X205046247Y-51384619D01*
X205046247Y-51384619D02*
X204998628Y-51432238D01*
X204998628Y-51432238D02*
X204903390Y-51479857D01*
X168039523Y-75474819D02*
X168039523Y-76189104D01*
X168039523Y-76189104D02*
X168087142Y-76331961D01*
X168087142Y-76331961D02*
X168182380Y-76427200D01*
X168182380Y-76427200D02*
X168325237Y-76474819D01*
X168325237Y-76474819D02*
X168420475Y-76474819D01*
X167087142Y-75474819D02*
X167563332Y-75474819D01*
X167563332Y-75474819D02*
X167610951Y-75951009D01*
X167610951Y-75951009D02*
X167563332Y-75903390D01*
X167563332Y-75903390D02*
X167468094Y-75855771D01*
X167468094Y-75855771D02*
X167229999Y-75855771D01*
X167229999Y-75855771D02*
X167134761Y-75903390D01*
X167134761Y-75903390D02*
X167087142Y-75951009D01*
X167087142Y-75951009D02*
X167039523Y-76046247D01*
X167039523Y-76046247D02*
X167039523Y-76284342D01*
X167039523Y-76284342D02*
X167087142Y-76379580D01*
X167087142Y-76379580D02*
X167134761Y-76427200D01*
X167134761Y-76427200D02*
X167229999Y-76474819D01*
X167229999Y-76474819D02*
X167468094Y-76474819D01*
X167468094Y-76474819D02*
X167563332Y-76427200D01*
X167563332Y-76427200D02*
X167610951Y-76379580D01*
X166706189Y-75474819D02*
X166087142Y-75474819D01*
X166087142Y-75474819D02*
X166420475Y-75855771D01*
X166420475Y-75855771D02*
X166277618Y-75855771D01*
X166277618Y-75855771D02*
X166182380Y-75903390D01*
X166182380Y-75903390D02*
X166134761Y-75951009D01*
X166134761Y-75951009D02*
X166087142Y-76046247D01*
X166087142Y-76046247D02*
X166087142Y-76284342D01*
X166087142Y-76284342D02*
X166134761Y-76379580D01*
X166134761Y-76379580D02*
X166182380Y-76427200D01*
X166182380Y-76427200D02*
X166277618Y-76474819D01*
X166277618Y-76474819D02*
X166563332Y-76474819D01*
X166563332Y-76474819D02*
X166658570Y-76427200D01*
X166658570Y-76427200D02*
X166706189Y-76379580D01*
X150593523Y-61354819D02*
X150593523Y-62069104D01*
X150593523Y-62069104D02*
X150641142Y-62211961D01*
X150641142Y-62211961D02*
X150736380Y-62307200D01*
X150736380Y-62307200D02*
X150879237Y-62354819D01*
X150879237Y-62354819D02*
X150974475Y-62354819D01*
X149641142Y-61354819D02*
X150117332Y-61354819D01*
X150117332Y-61354819D02*
X150164951Y-61831009D01*
X150164951Y-61831009D02*
X150117332Y-61783390D01*
X150117332Y-61783390D02*
X150022094Y-61735771D01*
X150022094Y-61735771D02*
X149783999Y-61735771D01*
X149783999Y-61735771D02*
X149688761Y-61783390D01*
X149688761Y-61783390D02*
X149641142Y-61831009D01*
X149641142Y-61831009D02*
X149593523Y-61926247D01*
X149593523Y-61926247D02*
X149593523Y-62164342D01*
X149593523Y-62164342D02*
X149641142Y-62259580D01*
X149641142Y-62259580D02*
X149688761Y-62307200D01*
X149688761Y-62307200D02*
X149783999Y-62354819D01*
X149783999Y-62354819D02*
X150022094Y-62354819D01*
X150022094Y-62354819D02*
X150117332Y-62307200D01*
X150117332Y-62307200D02*
X150164951Y-62259580D01*
X148641142Y-62354819D02*
X149212570Y-62354819D01*
X148926856Y-62354819D02*
X148926856Y-61354819D01*
X148926856Y-61354819D02*
X149022094Y-61497676D01*
X149022094Y-61497676D02*
X149117332Y-61592914D01*
X149117332Y-61592914D02*
X149212570Y-61640533D01*
X143809523Y-122216819D02*
X143809523Y-122931104D01*
X143809523Y-122931104D02*
X143857142Y-123073961D01*
X143857142Y-123073961D02*
X143952380Y-123169200D01*
X143952380Y-123169200D02*
X144095237Y-123216819D01*
X144095237Y-123216819D02*
X144190475Y-123216819D01*
X142809523Y-123216819D02*
X143380951Y-123216819D01*
X143095237Y-123216819D02*
X143095237Y-122216819D01*
X143095237Y-122216819D02*
X143190475Y-122359676D01*
X143190475Y-122359676D02*
X143285713Y-122454914D01*
X143285713Y-122454914D02*
X143380951Y-122502533D01*
X142238094Y-122645390D02*
X142333332Y-122597771D01*
X142333332Y-122597771D02*
X142380951Y-122550152D01*
X142380951Y-122550152D02*
X142428570Y-122454914D01*
X142428570Y-122454914D02*
X142428570Y-122407295D01*
X142428570Y-122407295D02*
X142380951Y-122312057D01*
X142380951Y-122312057D02*
X142333332Y-122264438D01*
X142333332Y-122264438D02*
X142238094Y-122216819D01*
X142238094Y-122216819D02*
X142047618Y-122216819D01*
X142047618Y-122216819D02*
X141952380Y-122264438D01*
X141952380Y-122264438D02*
X141904761Y-122312057D01*
X141904761Y-122312057D02*
X141857142Y-122407295D01*
X141857142Y-122407295D02*
X141857142Y-122454914D01*
X141857142Y-122454914D02*
X141904761Y-122550152D01*
X141904761Y-122550152D02*
X141952380Y-122597771D01*
X141952380Y-122597771D02*
X142047618Y-122645390D01*
X142047618Y-122645390D02*
X142238094Y-122645390D01*
X142238094Y-122645390D02*
X142333332Y-122693009D01*
X142333332Y-122693009D02*
X142380951Y-122740628D01*
X142380951Y-122740628D02*
X142428570Y-122835866D01*
X142428570Y-122835866D02*
X142428570Y-123026342D01*
X142428570Y-123026342D02*
X142380951Y-123121580D01*
X142380951Y-123121580D02*
X142333332Y-123169200D01*
X142333332Y-123169200D02*
X142238094Y-123216819D01*
X142238094Y-123216819D02*
X142047618Y-123216819D01*
X142047618Y-123216819D02*
X141952380Y-123169200D01*
X141952380Y-123169200D02*
X141904761Y-123121580D01*
X141904761Y-123121580D02*
X141857142Y-123026342D01*
X141857142Y-123026342D02*
X141857142Y-122835866D01*
X141857142Y-122835866D02*
X141904761Y-122740628D01*
X141904761Y-122740628D02*
X141952380Y-122693009D01*
X141952380Y-122693009D02*
X142047618Y-122645390D01*
X153895523Y-78626819D02*
X153895523Y-79341104D01*
X153895523Y-79341104D02*
X153943142Y-79483961D01*
X153943142Y-79483961D02*
X154038380Y-79579200D01*
X154038380Y-79579200D02*
X154181237Y-79626819D01*
X154181237Y-79626819D02*
X154276475Y-79626819D01*
X152990761Y-78960152D02*
X152990761Y-79626819D01*
X153228856Y-78579200D02*
X153466951Y-79293485D01*
X153466951Y-79293485D02*
X152847904Y-79293485D01*
X152419332Y-79626819D02*
X152228856Y-79626819D01*
X152228856Y-79626819D02*
X152133618Y-79579200D01*
X152133618Y-79579200D02*
X152085999Y-79531580D01*
X152085999Y-79531580D02*
X151990761Y-79388723D01*
X151990761Y-79388723D02*
X151943142Y-79198247D01*
X151943142Y-79198247D02*
X151943142Y-78817295D01*
X151943142Y-78817295D02*
X151990761Y-78722057D01*
X151990761Y-78722057D02*
X152038380Y-78674438D01*
X152038380Y-78674438D02*
X152133618Y-78626819D01*
X152133618Y-78626819D02*
X152324094Y-78626819D01*
X152324094Y-78626819D02*
X152419332Y-78674438D01*
X152419332Y-78674438D02*
X152466951Y-78722057D01*
X152466951Y-78722057D02*
X152514570Y-78817295D01*
X152514570Y-78817295D02*
X152514570Y-79055390D01*
X152514570Y-79055390D02*
X152466951Y-79150628D01*
X152466951Y-79150628D02*
X152419332Y-79198247D01*
X152419332Y-79198247D02*
X152324094Y-79245866D01*
X152324094Y-79245866D02*
X152133618Y-79245866D01*
X152133618Y-79245866D02*
X152038380Y-79198247D01*
X152038380Y-79198247D02*
X151990761Y-79150628D01*
X151990761Y-79150628D02*
X151943142Y-79055390D01*
X178607523Y-122216819D02*
X178607523Y-122931104D01*
X178607523Y-122931104D02*
X178655142Y-123073961D01*
X178655142Y-123073961D02*
X178750380Y-123169200D01*
X178750380Y-123169200D02*
X178893237Y-123216819D01*
X178893237Y-123216819D02*
X178988475Y-123216819D01*
X177607523Y-123216819D02*
X178178951Y-123216819D01*
X177893237Y-123216819D02*
X177893237Y-122216819D01*
X177893237Y-122216819D02*
X177988475Y-122359676D01*
X177988475Y-122359676D02*
X178083713Y-122454914D01*
X178083713Y-122454914D02*
X178178951Y-122502533D01*
X176750380Y-122550152D02*
X176750380Y-123216819D01*
X176988475Y-122169200D02*
X177226570Y-122883485D01*
X177226570Y-122883485D02*
X176607523Y-122883485D01*
X185243333Y-122216819D02*
X185243333Y-122931104D01*
X185243333Y-122931104D02*
X185290952Y-123073961D01*
X185290952Y-123073961D02*
X185386190Y-123169200D01*
X185386190Y-123169200D02*
X185529047Y-123216819D01*
X185529047Y-123216819D02*
X185624285Y-123216819D01*
X184719523Y-123216819D02*
X184529047Y-123216819D01*
X184529047Y-123216819D02*
X184433809Y-123169200D01*
X184433809Y-123169200D02*
X184386190Y-123121580D01*
X184386190Y-123121580D02*
X184290952Y-122978723D01*
X184290952Y-122978723D02*
X184243333Y-122788247D01*
X184243333Y-122788247D02*
X184243333Y-122407295D01*
X184243333Y-122407295D02*
X184290952Y-122312057D01*
X184290952Y-122312057D02*
X184338571Y-122264438D01*
X184338571Y-122264438D02*
X184433809Y-122216819D01*
X184433809Y-122216819D02*
X184624285Y-122216819D01*
X184624285Y-122216819D02*
X184719523Y-122264438D01*
X184719523Y-122264438D02*
X184767142Y-122312057D01*
X184767142Y-122312057D02*
X184814761Y-122407295D01*
X184814761Y-122407295D02*
X184814761Y-122645390D01*
X184814761Y-122645390D02*
X184767142Y-122740628D01*
X184767142Y-122740628D02*
X184719523Y-122788247D01*
X184719523Y-122788247D02*
X184624285Y-122835866D01*
X184624285Y-122835866D02*
X184433809Y-122835866D01*
X184433809Y-122835866D02*
X184338571Y-122788247D01*
X184338571Y-122788247D02*
X184290952Y-122740628D01*
X184290952Y-122740628D02*
X184243333Y-122645390D01*
X158982523Y-42994819D02*
X158982523Y-43709104D01*
X158982523Y-43709104D02*
X159030142Y-43851961D01*
X159030142Y-43851961D02*
X159125380Y-43947200D01*
X159125380Y-43947200D02*
X159268237Y-43994819D01*
X159268237Y-43994819D02*
X159363475Y-43994819D01*
X158077761Y-43328152D02*
X158077761Y-43994819D01*
X158315856Y-42947200D02*
X158553951Y-43661485D01*
X158553951Y-43661485D02*
X157934904Y-43661485D01*
X157363475Y-42994819D02*
X157268237Y-42994819D01*
X157268237Y-42994819D02*
X157172999Y-43042438D01*
X157172999Y-43042438D02*
X157125380Y-43090057D01*
X157125380Y-43090057D02*
X157077761Y-43185295D01*
X157077761Y-43185295D02*
X157030142Y-43375771D01*
X157030142Y-43375771D02*
X157030142Y-43613866D01*
X157030142Y-43613866D02*
X157077761Y-43804342D01*
X157077761Y-43804342D02*
X157125380Y-43899580D01*
X157125380Y-43899580D02*
X157172999Y-43947200D01*
X157172999Y-43947200D02*
X157268237Y-43994819D01*
X157268237Y-43994819D02*
X157363475Y-43994819D01*
X157363475Y-43994819D02*
X157458713Y-43947200D01*
X157458713Y-43947200D02*
X157506332Y-43899580D01*
X157506332Y-43899580D02*
X157553951Y-43804342D01*
X157553951Y-43804342D02*
X157601570Y-43613866D01*
X157601570Y-43613866D02*
X157601570Y-43375771D01*
X157601570Y-43375771D02*
X157553951Y-43185295D01*
X157553951Y-43185295D02*
X157506332Y-43090057D01*
X157506332Y-43090057D02*
X157458713Y-43042438D01*
X157458713Y-43042438D02*
X157363475Y-42994819D01*
X153895523Y-69990819D02*
X153895523Y-70705104D01*
X153895523Y-70705104D02*
X153943142Y-70847961D01*
X153943142Y-70847961D02*
X154038380Y-70943200D01*
X154038380Y-70943200D02*
X154181237Y-70990819D01*
X154181237Y-70990819D02*
X154276475Y-70990819D01*
X152943142Y-69990819D02*
X153419332Y-69990819D01*
X153419332Y-69990819D02*
X153466951Y-70467009D01*
X153466951Y-70467009D02*
X153419332Y-70419390D01*
X153419332Y-70419390D02*
X153324094Y-70371771D01*
X153324094Y-70371771D02*
X153085999Y-70371771D01*
X153085999Y-70371771D02*
X152990761Y-70419390D01*
X152990761Y-70419390D02*
X152943142Y-70467009D01*
X152943142Y-70467009D02*
X152895523Y-70562247D01*
X152895523Y-70562247D02*
X152895523Y-70800342D01*
X152895523Y-70800342D02*
X152943142Y-70895580D01*
X152943142Y-70895580D02*
X152990761Y-70943200D01*
X152990761Y-70943200D02*
X153085999Y-70990819D01*
X153085999Y-70990819D02*
X153324094Y-70990819D01*
X153324094Y-70990819D02*
X153419332Y-70943200D01*
X153419332Y-70943200D02*
X153466951Y-70895580D01*
X152514570Y-70086057D02*
X152466951Y-70038438D01*
X152466951Y-70038438D02*
X152371713Y-69990819D01*
X152371713Y-69990819D02*
X152133618Y-69990819D01*
X152133618Y-69990819D02*
X152038380Y-70038438D01*
X152038380Y-70038438D02*
X151990761Y-70086057D01*
X151990761Y-70086057D02*
X151943142Y-70181295D01*
X151943142Y-70181295D02*
X151943142Y-70276533D01*
X151943142Y-70276533D02*
X151990761Y-70419390D01*
X151990761Y-70419390D02*
X152562189Y-70990819D01*
X152562189Y-70990819D02*
X151943142Y-70990819D01*
X172003523Y-122216819D02*
X172003523Y-122931104D01*
X172003523Y-122931104D02*
X172051142Y-123073961D01*
X172051142Y-123073961D02*
X172146380Y-123169200D01*
X172146380Y-123169200D02*
X172289237Y-123216819D01*
X172289237Y-123216819D02*
X172384475Y-123216819D01*
X171003523Y-123216819D02*
X171574951Y-123216819D01*
X171289237Y-123216819D02*
X171289237Y-122216819D01*
X171289237Y-122216819D02*
X171384475Y-122359676D01*
X171384475Y-122359676D02*
X171479713Y-122454914D01*
X171479713Y-122454914D02*
X171574951Y-122502533D01*
X170527332Y-123216819D02*
X170336856Y-123216819D01*
X170336856Y-123216819D02*
X170241618Y-123169200D01*
X170241618Y-123169200D02*
X170193999Y-123121580D01*
X170193999Y-123121580D02*
X170098761Y-122978723D01*
X170098761Y-122978723D02*
X170051142Y-122788247D01*
X170051142Y-122788247D02*
X170051142Y-122407295D01*
X170051142Y-122407295D02*
X170098761Y-122312057D01*
X170098761Y-122312057D02*
X170146380Y-122264438D01*
X170146380Y-122264438D02*
X170241618Y-122216819D01*
X170241618Y-122216819D02*
X170432094Y-122216819D01*
X170432094Y-122216819D02*
X170527332Y-122264438D01*
X170527332Y-122264438D02*
X170574951Y-122312057D01*
X170574951Y-122312057D02*
X170622570Y-122407295D01*
X170622570Y-122407295D02*
X170622570Y-122645390D01*
X170622570Y-122645390D02*
X170574951Y-122740628D01*
X170574951Y-122740628D02*
X170527332Y-122788247D01*
X170527332Y-122788247D02*
X170432094Y-122835866D01*
X170432094Y-122835866D02*
X170241618Y-122835866D01*
X170241618Y-122835866D02*
X170146380Y-122788247D01*
X170146380Y-122788247D02*
X170098761Y-122740628D01*
X170098761Y-122740628D02*
X170051142Y-122645390D01*
X168034819Y-106563333D02*
X167558628Y-106230000D01*
X168034819Y-105991905D02*
X167034819Y-105991905D01*
X167034819Y-105991905D02*
X167034819Y-106372857D01*
X167034819Y-106372857D02*
X167082438Y-106468095D01*
X167082438Y-106468095D02*
X167130057Y-106515714D01*
X167130057Y-106515714D02*
X167225295Y-106563333D01*
X167225295Y-106563333D02*
X167368152Y-106563333D01*
X167368152Y-106563333D02*
X167463390Y-106515714D01*
X167463390Y-106515714D02*
X167511009Y-106468095D01*
X167511009Y-106468095D02*
X167558628Y-106372857D01*
X167558628Y-106372857D02*
X167558628Y-105991905D01*
X168034819Y-107515714D02*
X168034819Y-106944286D01*
X168034819Y-107230000D02*
X167034819Y-107230000D01*
X167034819Y-107230000D02*
X167177676Y-107134762D01*
X167177676Y-107134762D02*
X167272914Y-107039524D01*
X167272914Y-107039524D02*
X167320533Y-106944286D01*
X147545523Y-38494819D02*
X147545523Y-39209104D01*
X147545523Y-39209104D02*
X147593142Y-39351961D01*
X147593142Y-39351961D02*
X147688380Y-39447200D01*
X147688380Y-39447200D02*
X147831237Y-39494819D01*
X147831237Y-39494819D02*
X147926475Y-39494819D01*
X147164570Y-38494819D02*
X146545523Y-38494819D01*
X146545523Y-38494819D02*
X146878856Y-38875771D01*
X146878856Y-38875771D02*
X146735999Y-38875771D01*
X146735999Y-38875771D02*
X146640761Y-38923390D01*
X146640761Y-38923390D02*
X146593142Y-38971009D01*
X146593142Y-38971009D02*
X146545523Y-39066247D01*
X146545523Y-39066247D02*
X146545523Y-39304342D01*
X146545523Y-39304342D02*
X146593142Y-39399580D01*
X146593142Y-39399580D02*
X146640761Y-39447200D01*
X146640761Y-39447200D02*
X146735999Y-39494819D01*
X146735999Y-39494819D02*
X147021713Y-39494819D01*
X147021713Y-39494819D02*
X147116951Y-39447200D01*
X147116951Y-39447200D02*
X147164570Y-39399580D01*
X145688380Y-38828152D02*
X145688380Y-39494819D01*
X145926475Y-38447200D02*
X146164570Y-39161485D01*
X146164570Y-39161485D02*
X145545523Y-39161485D01*
X149099333Y-113168819D02*
X149099333Y-113883104D01*
X149099333Y-113883104D02*
X149146952Y-114025961D01*
X149146952Y-114025961D02*
X149242190Y-114121200D01*
X149242190Y-114121200D02*
X149385047Y-114168819D01*
X149385047Y-114168819D02*
X149480285Y-114168819D01*
X148480285Y-113597390D02*
X148575523Y-113549771D01*
X148575523Y-113549771D02*
X148623142Y-113502152D01*
X148623142Y-113502152D02*
X148670761Y-113406914D01*
X148670761Y-113406914D02*
X148670761Y-113359295D01*
X148670761Y-113359295D02*
X148623142Y-113264057D01*
X148623142Y-113264057D02*
X148575523Y-113216438D01*
X148575523Y-113216438D02*
X148480285Y-113168819D01*
X148480285Y-113168819D02*
X148289809Y-113168819D01*
X148289809Y-113168819D02*
X148194571Y-113216438D01*
X148194571Y-113216438D02*
X148146952Y-113264057D01*
X148146952Y-113264057D02*
X148099333Y-113359295D01*
X148099333Y-113359295D02*
X148099333Y-113406914D01*
X148099333Y-113406914D02*
X148146952Y-113502152D01*
X148146952Y-113502152D02*
X148194571Y-113549771D01*
X148194571Y-113549771D02*
X148289809Y-113597390D01*
X148289809Y-113597390D02*
X148480285Y-113597390D01*
X148480285Y-113597390D02*
X148575523Y-113645009D01*
X148575523Y-113645009D02*
X148623142Y-113692628D01*
X148623142Y-113692628D02*
X148670761Y-113787866D01*
X148670761Y-113787866D02*
X148670761Y-113978342D01*
X148670761Y-113978342D02*
X148623142Y-114073580D01*
X148623142Y-114073580D02*
X148575523Y-114121200D01*
X148575523Y-114121200D02*
X148480285Y-114168819D01*
X148480285Y-114168819D02*
X148289809Y-114168819D01*
X148289809Y-114168819D02*
X148194571Y-114121200D01*
X148194571Y-114121200D02*
X148146952Y-114073580D01*
X148146952Y-114073580D02*
X148099333Y-113978342D01*
X148099333Y-113978342D02*
X148099333Y-113787866D01*
X148099333Y-113787866D02*
X148146952Y-113692628D01*
X148146952Y-113692628D02*
X148194571Y-113645009D01*
X148194571Y-113645009D02*
X148289809Y-113597390D01*
X142087333Y-113446819D02*
X142087333Y-114161104D01*
X142087333Y-114161104D02*
X142134952Y-114303961D01*
X142134952Y-114303961D02*
X142230190Y-114399200D01*
X142230190Y-114399200D02*
X142373047Y-114446819D01*
X142373047Y-114446819D02*
X142468285Y-114446819D01*
X141134952Y-113446819D02*
X141611142Y-113446819D01*
X141611142Y-113446819D02*
X141658761Y-113923009D01*
X141658761Y-113923009D02*
X141611142Y-113875390D01*
X141611142Y-113875390D02*
X141515904Y-113827771D01*
X141515904Y-113827771D02*
X141277809Y-113827771D01*
X141277809Y-113827771D02*
X141182571Y-113875390D01*
X141182571Y-113875390D02*
X141134952Y-113923009D01*
X141134952Y-113923009D02*
X141087333Y-114018247D01*
X141087333Y-114018247D02*
X141087333Y-114256342D01*
X141087333Y-114256342D02*
X141134952Y-114351580D01*
X141134952Y-114351580D02*
X141182571Y-114399200D01*
X141182571Y-114399200D02*
X141277809Y-114446819D01*
X141277809Y-114446819D02*
X141515904Y-114446819D01*
X141515904Y-114446819D02*
X141611142Y-114399200D01*
X141611142Y-114399200D02*
X141658761Y-114351580D01*
X157031333Y-121708819D02*
X157031333Y-122423104D01*
X157031333Y-122423104D02*
X157078952Y-122565961D01*
X157078952Y-122565961D02*
X157174190Y-122661200D01*
X157174190Y-122661200D02*
X157317047Y-122708819D01*
X157317047Y-122708819D02*
X157412285Y-122708819D01*
X156126571Y-121708819D02*
X156317047Y-121708819D01*
X156317047Y-121708819D02*
X156412285Y-121756438D01*
X156412285Y-121756438D02*
X156459904Y-121804057D01*
X156459904Y-121804057D02*
X156555142Y-121946914D01*
X156555142Y-121946914D02*
X156602761Y-122137390D01*
X156602761Y-122137390D02*
X156602761Y-122518342D01*
X156602761Y-122518342D02*
X156555142Y-122613580D01*
X156555142Y-122613580D02*
X156507523Y-122661200D01*
X156507523Y-122661200D02*
X156412285Y-122708819D01*
X156412285Y-122708819D02*
X156221809Y-122708819D01*
X156221809Y-122708819D02*
X156126571Y-122661200D01*
X156126571Y-122661200D02*
X156078952Y-122613580D01*
X156078952Y-122613580D02*
X156031333Y-122518342D01*
X156031333Y-122518342D02*
X156031333Y-122280247D01*
X156031333Y-122280247D02*
X156078952Y-122185009D01*
X156078952Y-122185009D02*
X156126571Y-122137390D01*
X156126571Y-122137390D02*
X156221809Y-122089771D01*
X156221809Y-122089771D02*
X156412285Y-122089771D01*
X156412285Y-122089771D02*
X156507523Y-122137390D01*
X156507523Y-122137390D02*
X156555142Y-122185009D01*
X156555142Y-122185009D02*
X156602761Y-122280247D01*
X164415333Y-122216819D02*
X164415333Y-122931104D01*
X164415333Y-122931104D02*
X164462952Y-123073961D01*
X164462952Y-123073961D02*
X164558190Y-123169200D01*
X164558190Y-123169200D02*
X164701047Y-123216819D01*
X164701047Y-123216819D02*
X164796285Y-123216819D01*
X164034380Y-122216819D02*
X163415333Y-122216819D01*
X163415333Y-122216819D02*
X163748666Y-122597771D01*
X163748666Y-122597771D02*
X163605809Y-122597771D01*
X163605809Y-122597771D02*
X163510571Y-122645390D01*
X163510571Y-122645390D02*
X163462952Y-122693009D01*
X163462952Y-122693009D02*
X163415333Y-122788247D01*
X163415333Y-122788247D02*
X163415333Y-123026342D01*
X163415333Y-123026342D02*
X163462952Y-123121580D01*
X163462952Y-123121580D02*
X163510571Y-123169200D01*
X163510571Y-123169200D02*
X163605809Y-123216819D01*
X163605809Y-123216819D02*
X163891523Y-123216819D01*
X163891523Y-123216819D02*
X163986761Y-123169200D01*
X163986761Y-123169200D02*
X164034380Y-123121580D01*
X150699333Y-122216819D02*
X150699333Y-122931104D01*
X150699333Y-122931104D02*
X150746952Y-123073961D01*
X150746952Y-123073961D02*
X150842190Y-123169200D01*
X150842190Y-123169200D02*
X150985047Y-123216819D01*
X150985047Y-123216819D02*
X151080285Y-123216819D01*
X150270761Y-122312057D02*
X150223142Y-122264438D01*
X150223142Y-122264438D02*
X150127904Y-122216819D01*
X150127904Y-122216819D02*
X149889809Y-122216819D01*
X149889809Y-122216819D02*
X149794571Y-122264438D01*
X149794571Y-122264438D02*
X149746952Y-122312057D01*
X149746952Y-122312057D02*
X149699333Y-122407295D01*
X149699333Y-122407295D02*
X149699333Y-122502533D01*
X149699333Y-122502533D02*
X149746952Y-122645390D01*
X149746952Y-122645390D02*
X150318380Y-123216819D01*
X150318380Y-123216819D02*
X149699333Y-123216819D01*
X188862819Y-83188476D02*
X189577104Y-83188476D01*
X189577104Y-83188476D02*
X189719961Y-83140857D01*
X189719961Y-83140857D02*
X189815200Y-83045619D01*
X189815200Y-83045619D02*
X189862819Y-82902762D01*
X189862819Y-82902762D02*
X189862819Y-82807524D01*
X188862819Y-84140857D02*
X188862819Y-83664667D01*
X188862819Y-83664667D02*
X189339009Y-83617048D01*
X189339009Y-83617048D02*
X189291390Y-83664667D01*
X189291390Y-83664667D02*
X189243771Y-83759905D01*
X189243771Y-83759905D02*
X189243771Y-83998000D01*
X189243771Y-83998000D02*
X189291390Y-84093238D01*
X189291390Y-84093238D02*
X189339009Y-84140857D01*
X189339009Y-84140857D02*
X189434247Y-84188476D01*
X189434247Y-84188476D02*
X189672342Y-84188476D01*
X189672342Y-84188476D02*
X189767580Y-84140857D01*
X189767580Y-84140857D02*
X189815200Y-84093238D01*
X189815200Y-84093238D02*
X189862819Y-83998000D01*
X189862819Y-83998000D02*
X189862819Y-83759905D01*
X189862819Y-83759905D02*
X189815200Y-83664667D01*
X189815200Y-83664667D02*
X189767580Y-83617048D01*
X188862819Y-85045619D02*
X188862819Y-84855143D01*
X188862819Y-84855143D02*
X188910438Y-84759905D01*
X188910438Y-84759905D02*
X188958057Y-84712286D01*
X188958057Y-84712286D02*
X189100914Y-84617048D01*
X189100914Y-84617048D02*
X189291390Y-84569429D01*
X189291390Y-84569429D02*
X189672342Y-84569429D01*
X189672342Y-84569429D02*
X189767580Y-84617048D01*
X189767580Y-84617048D02*
X189815200Y-84664667D01*
X189815200Y-84664667D02*
X189862819Y-84759905D01*
X189862819Y-84759905D02*
X189862819Y-84950381D01*
X189862819Y-84950381D02*
X189815200Y-85045619D01*
X189815200Y-85045619D02*
X189767580Y-85093238D01*
X189767580Y-85093238D02*
X189672342Y-85140857D01*
X189672342Y-85140857D02*
X189434247Y-85140857D01*
X189434247Y-85140857D02*
X189339009Y-85093238D01*
X189339009Y-85093238D02*
X189291390Y-85045619D01*
X189291390Y-85045619D02*
X189243771Y-84950381D01*
X189243771Y-84950381D02*
X189243771Y-84759905D01*
X189243771Y-84759905D02*
X189291390Y-84664667D01*
X189291390Y-84664667D02*
X189339009Y-84617048D01*
X189339009Y-84617048D02*
X189434247Y-84569429D01*
X170982523Y-42974819D02*
X170982523Y-43689104D01*
X170982523Y-43689104D02*
X171030142Y-43831961D01*
X171030142Y-43831961D02*
X171125380Y-43927200D01*
X171125380Y-43927200D02*
X171268237Y-43974819D01*
X171268237Y-43974819D02*
X171363475Y-43974819D01*
X170601570Y-42974819D02*
X169982523Y-42974819D01*
X169982523Y-42974819D02*
X170315856Y-43355771D01*
X170315856Y-43355771D02*
X170172999Y-43355771D01*
X170172999Y-43355771D02*
X170077761Y-43403390D01*
X170077761Y-43403390D02*
X170030142Y-43451009D01*
X170030142Y-43451009D02*
X169982523Y-43546247D01*
X169982523Y-43546247D02*
X169982523Y-43784342D01*
X169982523Y-43784342D02*
X170030142Y-43879580D01*
X170030142Y-43879580D02*
X170077761Y-43927200D01*
X170077761Y-43927200D02*
X170172999Y-43974819D01*
X170172999Y-43974819D02*
X170458713Y-43974819D01*
X170458713Y-43974819D02*
X170553951Y-43927200D01*
X170553951Y-43927200D02*
X170601570Y-43879580D01*
X169649189Y-42974819D02*
X168982523Y-42974819D01*
X168982523Y-42974819D02*
X169411094Y-43974819D01*
X157708333Y-105221819D02*
X157708333Y-105936104D01*
X157708333Y-105936104D02*
X157755952Y-106078961D01*
X157755952Y-106078961D02*
X157851190Y-106174200D01*
X157851190Y-106174200D02*
X157994047Y-106221819D01*
X157994047Y-106221819D02*
X158089285Y-106221819D01*
X157327380Y-105221819D02*
X156660714Y-105221819D01*
X156660714Y-105221819D02*
X157089285Y-106221819D01*
X168238666Y-56370819D02*
X168571999Y-55894628D01*
X168810094Y-56370819D02*
X168810094Y-55370819D01*
X168810094Y-55370819D02*
X168429142Y-55370819D01*
X168429142Y-55370819D02*
X168333904Y-55418438D01*
X168333904Y-55418438D02*
X168286285Y-55466057D01*
X168286285Y-55466057D02*
X168238666Y-55561295D01*
X168238666Y-55561295D02*
X168238666Y-55704152D01*
X168238666Y-55704152D02*
X168286285Y-55799390D01*
X168286285Y-55799390D02*
X168333904Y-55847009D01*
X168333904Y-55847009D02*
X168429142Y-55894628D01*
X168429142Y-55894628D02*
X168810094Y-55894628D01*
X167905332Y-55370819D02*
X167238666Y-55370819D01*
X167238666Y-55370819D02*
X167667237Y-56370819D01*
X168079523Y-84474819D02*
X168079523Y-85189104D01*
X168079523Y-85189104D02*
X168127142Y-85331961D01*
X168127142Y-85331961D02*
X168222380Y-85427200D01*
X168222380Y-85427200D02*
X168365237Y-85474819D01*
X168365237Y-85474819D02*
X168460475Y-85474819D01*
X167127142Y-84474819D02*
X167603332Y-84474819D01*
X167603332Y-84474819D02*
X167650951Y-84951009D01*
X167650951Y-84951009D02*
X167603332Y-84903390D01*
X167603332Y-84903390D02*
X167508094Y-84855771D01*
X167508094Y-84855771D02*
X167269999Y-84855771D01*
X167269999Y-84855771D02*
X167174761Y-84903390D01*
X167174761Y-84903390D02*
X167127142Y-84951009D01*
X167127142Y-84951009D02*
X167079523Y-85046247D01*
X167079523Y-85046247D02*
X167079523Y-85284342D01*
X167079523Y-85284342D02*
X167127142Y-85379580D01*
X167127142Y-85379580D02*
X167174761Y-85427200D01*
X167174761Y-85427200D02*
X167269999Y-85474819D01*
X167269999Y-85474819D02*
X167508094Y-85474819D01*
X167508094Y-85474819D02*
X167603332Y-85427200D01*
X167603332Y-85427200D02*
X167650951Y-85379580D01*
X166222380Y-84808152D02*
X166222380Y-85474819D01*
X166460475Y-84427200D02*
X166698570Y-85141485D01*
X166698570Y-85141485D02*
X166079523Y-85141485D01*
X156332523Y-113168819D02*
X156332523Y-113883104D01*
X156332523Y-113883104D02*
X156380142Y-114025961D01*
X156380142Y-114025961D02*
X156475380Y-114121200D01*
X156475380Y-114121200D02*
X156618237Y-114168819D01*
X156618237Y-114168819D02*
X156713475Y-114168819D01*
X155332523Y-114168819D02*
X155903951Y-114168819D01*
X155618237Y-114168819D02*
X155618237Y-113168819D01*
X155618237Y-113168819D02*
X155713475Y-113311676D01*
X155713475Y-113311676D02*
X155808713Y-113406914D01*
X155808713Y-113406914D02*
X155903951Y-113454533D01*
X154999189Y-113168819D02*
X154380142Y-113168819D01*
X154380142Y-113168819D02*
X154713475Y-113549771D01*
X154713475Y-113549771D02*
X154570618Y-113549771D01*
X154570618Y-113549771D02*
X154475380Y-113597390D01*
X154475380Y-113597390D02*
X154427761Y-113645009D01*
X154427761Y-113645009D02*
X154380142Y-113740247D01*
X154380142Y-113740247D02*
X154380142Y-113978342D01*
X154380142Y-113978342D02*
X154427761Y-114073580D01*
X154427761Y-114073580D02*
X154475380Y-114121200D01*
X154475380Y-114121200D02*
X154570618Y-114168819D01*
X154570618Y-114168819D02*
X154856332Y-114168819D01*
X154856332Y-114168819D02*
X154951570Y-114121200D01*
X154951570Y-114121200D02*
X154999189Y-114073580D01*
X204474819Y-61220476D02*
X205189104Y-61220476D01*
X205189104Y-61220476D02*
X205331961Y-61172857D01*
X205331961Y-61172857D02*
X205427200Y-61077619D01*
X205427200Y-61077619D02*
X205474819Y-60934762D01*
X205474819Y-60934762D02*
X205474819Y-60839524D01*
X204474819Y-61601429D02*
X204474819Y-62220476D01*
X204474819Y-62220476D02*
X204855771Y-61887143D01*
X204855771Y-61887143D02*
X204855771Y-62030000D01*
X204855771Y-62030000D02*
X204903390Y-62125238D01*
X204903390Y-62125238D02*
X204951009Y-62172857D01*
X204951009Y-62172857D02*
X205046247Y-62220476D01*
X205046247Y-62220476D02*
X205284342Y-62220476D01*
X205284342Y-62220476D02*
X205379580Y-62172857D01*
X205379580Y-62172857D02*
X205427200Y-62125238D01*
X205427200Y-62125238D02*
X205474819Y-62030000D01*
X205474819Y-62030000D02*
X205474819Y-61744286D01*
X205474819Y-61744286D02*
X205427200Y-61649048D01*
X205427200Y-61649048D02*
X205379580Y-61601429D01*
X204474819Y-63077619D02*
X204474819Y-62887143D01*
X204474819Y-62887143D02*
X204522438Y-62791905D01*
X204522438Y-62791905D02*
X204570057Y-62744286D01*
X204570057Y-62744286D02*
X204712914Y-62649048D01*
X204712914Y-62649048D02*
X204903390Y-62601429D01*
X204903390Y-62601429D02*
X205284342Y-62601429D01*
X205284342Y-62601429D02*
X205379580Y-62649048D01*
X205379580Y-62649048D02*
X205427200Y-62696667D01*
X205427200Y-62696667D02*
X205474819Y-62791905D01*
X205474819Y-62791905D02*
X205474819Y-62982381D01*
X205474819Y-62982381D02*
X205427200Y-63077619D01*
X205427200Y-63077619D02*
X205379580Y-63125238D01*
X205379580Y-63125238D02*
X205284342Y-63172857D01*
X205284342Y-63172857D02*
X205046247Y-63172857D01*
X205046247Y-63172857D02*
X204951009Y-63125238D01*
X204951009Y-63125238D02*
X204903390Y-63077619D01*
X204903390Y-63077619D02*
X204855771Y-62982381D01*
X204855771Y-62982381D02*
X204855771Y-62791905D01*
X204855771Y-62791905D02*
X204903390Y-62696667D01*
X204903390Y-62696667D02*
X204951009Y-62649048D01*
X204951009Y-62649048D02*
X205046247Y-62601429D01*
X183092523Y-42994819D02*
X183092523Y-43709104D01*
X183092523Y-43709104D02*
X183140142Y-43851961D01*
X183140142Y-43851961D02*
X183235380Y-43947200D01*
X183235380Y-43947200D02*
X183378237Y-43994819D01*
X183378237Y-43994819D02*
X183473475Y-43994819D01*
X182711570Y-42994819D02*
X182092523Y-42994819D01*
X182092523Y-42994819D02*
X182425856Y-43375771D01*
X182425856Y-43375771D02*
X182282999Y-43375771D01*
X182282999Y-43375771D02*
X182187761Y-43423390D01*
X182187761Y-43423390D02*
X182140142Y-43471009D01*
X182140142Y-43471009D02*
X182092523Y-43566247D01*
X182092523Y-43566247D02*
X182092523Y-43804342D01*
X182092523Y-43804342D02*
X182140142Y-43899580D01*
X182140142Y-43899580D02*
X182187761Y-43947200D01*
X182187761Y-43947200D02*
X182282999Y-43994819D01*
X182282999Y-43994819D02*
X182568713Y-43994819D01*
X182568713Y-43994819D02*
X182663951Y-43947200D01*
X182663951Y-43947200D02*
X182711570Y-43899580D01*
X181521094Y-43423390D02*
X181616332Y-43375771D01*
X181616332Y-43375771D02*
X181663951Y-43328152D01*
X181663951Y-43328152D02*
X181711570Y-43232914D01*
X181711570Y-43232914D02*
X181711570Y-43185295D01*
X181711570Y-43185295D02*
X181663951Y-43090057D01*
X181663951Y-43090057D02*
X181616332Y-43042438D01*
X181616332Y-43042438D02*
X181521094Y-42994819D01*
X181521094Y-42994819D02*
X181330618Y-42994819D01*
X181330618Y-42994819D02*
X181235380Y-43042438D01*
X181235380Y-43042438D02*
X181187761Y-43090057D01*
X181187761Y-43090057D02*
X181140142Y-43185295D01*
X181140142Y-43185295D02*
X181140142Y-43232914D01*
X181140142Y-43232914D02*
X181187761Y-43328152D01*
X181187761Y-43328152D02*
X181235380Y-43375771D01*
X181235380Y-43375771D02*
X181330618Y-43423390D01*
X181330618Y-43423390D02*
X181521094Y-43423390D01*
X181521094Y-43423390D02*
X181616332Y-43471009D01*
X181616332Y-43471009D02*
X181663951Y-43518628D01*
X181663951Y-43518628D02*
X181711570Y-43613866D01*
X181711570Y-43613866D02*
X181711570Y-43804342D01*
X181711570Y-43804342D02*
X181663951Y-43899580D01*
X181663951Y-43899580D02*
X181616332Y-43947200D01*
X181616332Y-43947200D02*
X181521094Y-43994819D01*
X181521094Y-43994819D02*
X181330618Y-43994819D01*
X181330618Y-43994819D02*
X181235380Y-43947200D01*
X181235380Y-43947200D02*
X181187761Y-43899580D01*
X181187761Y-43899580D02*
X181140142Y-43804342D01*
X181140142Y-43804342D02*
X181140142Y-43613866D01*
X181140142Y-43613866D02*
X181187761Y-43518628D01*
X181187761Y-43518628D02*
X181235380Y-43471009D01*
X181235380Y-43471009D02*
X181330618Y-43423390D01*
X178666666Y-105859580D02*
X178714285Y-105907200D01*
X178714285Y-105907200D02*
X178857142Y-105954819D01*
X178857142Y-105954819D02*
X178952380Y-105954819D01*
X178952380Y-105954819D02*
X179095237Y-105907200D01*
X179095237Y-105907200D02*
X179190475Y-105811961D01*
X179190475Y-105811961D02*
X179238094Y-105716723D01*
X179238094Y-105716723D02*
X179285713Y-105526247D01*
X179285713Y-105526247D02*
X179285713Y-105383390D01*
X179285713Y-105383390D02*
X179238094Y-105192914D01*
X179238094Y-105192914D02*
X179190475Y-105097676D01*
X179190475Y-105097676D02*
X179095237Y-105002438D01*
X179095237Y-105002438D02*
X178952380Y-104954819D01*
X178952380Y-104954819D02*
X178857142Y-104954819D01*
X178857142Y-104954819D02*
X178714285Y-105002438D01*
X178714285Y-105002438D02*
X178666666Y-105050057D01*
X178285713Y-105050057D02*
X178238094Y-105002438D01*
X178238094Y-105002438D02*
X178142856Y-104954819D01*
X178142856Y-104954819D02*
X177904761Y-104954819D01*
X177904761Y-104954819D02*
X177809523Y-105002438D01*
X177809523Y-105002438D02*
X177761904Y-105050057D01*
X177761904Y-105050057D02*
X177714285Y-105145295D01*
X177714285Y-105145295D02*
X177714285Y-105240533D01*
X177714285Y-105240533D02*
X177761904Y-105383390D01*
X177761904Y-105383390D02*
X178333332Y-105954819D01*
X178333332Y-105954819D02*
X177714285Y-105954819D01*
X153895523Y-87262819D02*
X153895523Y-87977104D01*
X153895523Y-87977104D02*
X153943142Y-88119961D01*
X153943142Y-88119961D02*
X154038380Y-88215200D01*
X154038380Y-88215200D02*
X154181237Y-88262819D01*
X154181237Y-88262819D02*
X154276475Y-88262819D01*
X152943142Y-87262819D02*
X153419332Y-87262819D01*
X153419332Y-87262819D02*
X153466951Y-87739009D01*
X153466951Y-87739009D02*
X153419332Y-87691390D01*
X153419332Y-87691390D02*
X153324094Y-87643771D01*
X153324094Y-87643771D02*
X153085999Y-87643771D01*
X153085999Y-87643771D02*
X152990761Y-87691390D01*
X152990761Y-87691390D02*
X152943142Y-87739009D01*
X152943142Y-87739009D02*
X152895523Y-87834247D01*
X152895523Y-87834247D02*
X152895523Y-88072342D01*
X152895523Y-88072342D02*
X152943142Y-88167580D01*
X152943142Y-88167580D02*
X152990761Y-88215200D01*
X152990761Y-88215200D02*
X153085999Y-88262819D01*
X153085999Y-88262819D02*
X153324094Y-88262819D01*
X153324094Y-88262819D02*
X153419332Y-88215200D01*
X153419332Y-88215200D02*
X153466951Y-88167580D01*
X152276475Y-87262819D02*
X152181237Y-87262819D01*
X152181237Y-87262819D02*
X152085999Y-87310438D01*
X152085999Y-87310438D02*
X152038380Y-87358057D01*
X152038380Y-87358057D02*
X151990761Y-87453295D01*
X151990761Y-87453295D02*
X151943142Y-87643771D01*
X151943142Y-87643771D02*
X151943142Y-87881866D01*
X151943142Y-87881866D02*
X151990761Y-88072342D01*
X151990761Y-88072342D02*
X152038380Y-88167580D01*
X152038380Y-88167580D02*
X152085999Y-88215200D01*
X152085999Y-88215200D02*
X152181237Y-88262819D01*
X152181237Y-88262819D02*
X152276475Y-88262819D01*
X152276475Y-88262819D02*
X152371713Y-88215200D01*
X152371713Y-88215200D02*
X152419332Y-88167580D01*
X152419332Y-88167580D02*
X152466951Y-88072342D01*
X152466951Y-88072342D02*
X152514570Y-87881866D01*
X152514570Y-87881866D02*
X152514570Y-87643771D01*
X152514570Y-87643771D02*
X152466951Y-87453295D01*
X152466951Y-87453295D02*
X152419332Y-87358057D01*
X152419332Y-87358057D02*
X152371713Y-87310438D01*
X152371713Y-87310438D02*
X152276475Y-87262819D01*
M02*
