G04 #@! TF.GenerationSoftware,KiCad,Pcbnew,7.0.9*
G04 #@! TF.CreationDate,2024-01-20T11:08:54+10:00*
G04 #@! TF.ProjectId,Front Console 12 Stepper,46726f6e-7420-4436-9f6e-736f6c652031,rev?*
G04 #@! TF.SameCoordinates,Original*
G04 #@! TF.FileFunction,Legend,Bot*
G04 #@! TF.FilePolarity,Positive*
%FSLAX46Y46*%
G04 Gerber Fmt 4.6, Leading zero omitted, Abs format (unit mm)*
G04 Created by KiCad (PCBNEW 7.0.9) date 2024-01-20 11:08:54*
%MOMM*%
%LPD*%
G01*
G04 APERTURE LIST*
%ADD10C,0.150000*%
G04 APERTURE END LIST*
D10*
X139729887Y-93936009D02*
X140063220Y-93936009D01*
X140063220Y-94459819D02*
X140063220Y-93459819D01*
X140063220Y-93459819D02*
X139587030Y-93459819D01*
X138634649Y-94459819D02*
X138967982Y-93983628D01*
X139206077Y-94459819D02*
X139206077Y-93459819D01*
X139206077Y-93459819D02*
X138825125Y-93459819D01*
X138825125Y-93459819D02*
X138729887Y-93507438D01*
X138729887Y-93507438D02*
X138682268Y-93555057D01*
X138682268Y-93555057D02*
X138634649Y-93650295D01*
X138634649Y-93650295D02*
X138634649Y-93793152D01*
X138634649Y-93793152D02*
X138682268Y-93888390D01*
X138682268Y-93888390D02*
X138729887Y-93936009D01*
X138729887Y-93936009D02*
X138825125Y-93983628D01*
X138825125Y-93983628D02*
X139206077Y-93983628D01*
X138015601Y-93459819D02*
X137825125Y-93459819D01*
X137825125Y-93459819D02*
X137729887Y-93507438D01*
X137729887Y-93507438D02*
X137634649Y-93602676D01*
X137634649Y-93602676D02*
X137587030Y-93793152D01*
X137587030Y-93793152D02*
X137587030Y-94126485D01*
X137587030Y-94126485D02*
X137634649Y-94316961D01*
X137634649Y-94316961D02*
X137729887Y-94412200D01*
X137729887Y-94412200D02*
X137825125Y-94459819D01*
X137825125Y-94459819D02*
X138015601Y-94459819D01*
X138015601Y-94459819D02*
X138110839Y-94412200D01*
X138110839Y-94412200D02*
X138206077Y-94316961D01*
X138206077Y-94316961D02*
X138253696Y-94126485D01*
X138253696Y-94126485D02*
X138253696Y-93793152D01*
X138253696Y-93793152D02*
X138206077Y-93602676D01*
X138206077Y-93602676D02*
X138110839Y-93507438D01*
X138110839Y-93507438D02*
X138015601Y-93459819D01*
X137158458Y-94459819D02*
X137158458Y-93459819D01*
X137158458Y-93459819D02*
X136587030Y-94459819D01*
X136587030Y-94459819D02*
X136587030Y-93459819D01*
X136253696Y-93459819D02*
X135682268Y-93459819D01*
X135967982Y-94459819D02*
X135967982Y-93459819D01*
X134015601Y-94364580D02*
X134063220Y-94412200D01*
X134063220Y-94412200D02*
X134206077Y-94459819D01*
X134206077Y-94459819D02*
X134301315Y-94459819D01*
X134301315Y-94459819D02*
X134444172Y-94412200D01*
X134444172Y-94412200D02*
X134539410Y-94316961D01*
X134539410Y-94316961D02*
X134587029Y-94221723D01*
X134587029Y-94221723D02*
X134634648Y-94031247D01*
X134634648Y-94031247D02*
X134634648Y-93888390D01*
X134634648Y-93888390D02*
X134587029Y-93697914D01*
X134587029Y-93697914D02*
X134539410Y-93602676D01*
X134539410Y-93602676D02*
X134444172Y-93507438D01*
X134444172Y-93507438D02*
X134301315Y-93459819D01*
X134301315Y-93459819D02*
X134206077Y-93459819D01*
X134206077Y-93459819D02*
X134063220Y-93507438D01*
X134063220Y-93507438D02*
X134015601Y-93555057D01*
X133396553Y-93459819D02*
X133206077Y-93459819D01*
X133206077Y-93459819D02*
X133110839Y-93507438D01*
X133110839Y-93507438D02*
X133015601Y-93602676D01*
X133015601Y-93602676D02*
X132967982Y-93793152D01*
X132967982Y-93793152D02*
X132967982Y-94126485D01*
X132967982Y-94126485D02*
X133015601Y-94316961D01*
X133015601Y-94316961D02*
X133110839Y-94412200D01*
X133110839Y-94412200D02*
X133206077Y-94459819D01*
X133206077Y-94459819D02*
X133396553Y-94459819D01*
X133396553Y-94459819D02*
X133491791Y-94412200D01*
X133491791Y-94412200D02*
X133587029Y-94316961D01*
X133587029Y-94316961D02*
X133634648Y-94126485D01*
X133634648Y-94126485D02*
X133634648Y-93793152D01*
X133634648Y-93793152D02*
X133587029Y-93602676D01*
X133587029Y-93602676D02*
X133491791Y-93507438D01*
X133491791Y-93507438D02*
X133396553Y-93459819D01*
X132539410Y-94459819D02*
X132539410Y-93459819D01*
X132539410Y-93459819D02*
X131967982Y-94459819D01*
X131967982Y-94459819D02*
X131967982Y-93459819D01*
X131539410Y-94412200D02*
X131396553Y-94459819D01*
X131396553Y-94459819D02*
X131158458Y-94459819D01*
X131158458Y-94459819D02*
X131063220Y-94412200D01*
X131063220Y-94412200D02*
X131015601Y-94364580D01*
X131015601Y-94364580D02*
X130967982Y-94269342D01*
X130967982Y-94269342D02*
X130967982Y-94174104D01*
X130967982Y-94174104D02*
X131015601Y-94078866D01*
X131015601Y-94078866D02*
X131063220Y-94031247D01*
X131063220Y-94031247D02*
X131158458Y-93983628D01*
X131158458Y-93983628D02*
X131348934Y-93936009D01*
X131348934Y-93936009D02*
X131444172Y-93888390D01*
X131444172Y-93888390D02*
X131491791Y-93840771D01*
X131491791Y-93840771D02*
X131539410Y-93745533D01*
X131539410Y-93745533D02*
X131539410Y-93650295D01*
X131539410Y-93650295D02*
X131491791Y-93555057D01*
X131491791Y-93555057D02*
X131444172Y-93507438D01*
X131444172Y-93507438D02*
X131348934Y-93459819D01*
X131348934Y-93459819D02*
X131110839Y-93459819D01*
X131110839Y-93459819D02*
X130967982Y-93507438D01*
X130348934Y-93459819D02*
X130158458Y-93459819D01*
X130158458Y-93459819D02*
X130063220Y-93507438D01*
X130063220Y-93507438D02*
X129967982Y-93602676D01*
X129967982Y-93602676D02*
X129920363Y-93793152D01*
X129920363Y-93793152D02*
X129920363Y-94126485D01*
X129920363Y-94126485D02*
X129967982Y-94316961D01*
X129967982Y-94316961D02*
X130063220Y-94412200D01*
X130063220Y-94412200D02*
X130158458Y-94459819D01*
X130158458Y-94459819D02*
X130348934Y-94459819D01*
X130348934Y-94459819D02*
X130444172Y-94412200D01*
X130444172Y-94412200D02*
X130539410Y-94316961D01*
X130539410Y-94316961D02*
X130587029Y-94126485D01*
X130587029Y-94126485D02*
X130587029Y-93793152D01*
X130587029Y-93793152D02*
X130539410Y-93602676D01*
X130539410Y-93602676D02*
X130444172Y-93507438D01*
X130444172Y-93507438D02*
X130348934Y-93459819D01*
X129015601Y-94459819D02*
X129491791Y-94459819D01*
X129491791Y-94459819D02*
X129491791Y-93459819D01*
X128682267Y-93936009D02*
X128348934Y-93936009D01*
X128206077Y-94459819D02*
X128682267Y-94459819D01*
X128682267Y-94459819D02*
X128682267Y-93459819D01*
X128682267Y-93459819D02*
X128206077Y-93459819D01*
X139539411Y-96069819D02*
X140110839Y-96069819D01*
X139825125Y-96069819D02*
X139825125Y-95069819D01*
X139825125Y-95069819D02*
X139920363Y-95212676D01*
X139920363Y-95212676D02*
X140015601Y-95307914D01*
X140015601Y-95307914D02*
X140110839Y-95355533D01*
X139158458Y-95165057D02*
X139110839Y-95117438D01*
X139110839Y-95117438D02*
X139015601Y-95069819D01*
X139015601Y-95069819D02*
X138777506Y-95069819D01*
X138777506Y-95069819D02*
X138682268Y-95117438D01*
X138682268Y-95117438D02*
X138634649Y-95165057D01*
X138634649Y-95165057D02*
X138587030Y-95260295D01*
X138587030Y-95260295D02*
X138587030Y-95355533D01*
X138587030Y-95355533D02*
X138634649Y-95498390D01*
X138634649Y-95498390D02*
X139206077Y-96069819D01*
X139206077Y-96069819D02*
X138587030Y-96069819D01*
X137444172Y-96022200D02*
X137301315Y-96069819D01*
X137301315Y-96069819D02*
X137063220Y-96069819D01*
X137063220Y-96069819D02*
X136967982Y-96022200D01*
X136967982Y-96022200D02*
X136920363Y-95974580D01*
X136920363Y-95974580D02*
X136872744Y-95879342D01*
X136872744Y-95879342D02*
X136872744Y-95784104D01*
X136872744Y-95784104D02*
X136920363Y-95688866D01*
X136920363Y-95688866D02*
X136967982Y-95641247D01*
X136967982Y-95641247D02*
X137063220Y-95593628D01*
X137063220Y-95593628D02*
X137253696Y-95546009D01*
X137253696Y-95546009D02*
X137348934Y-95498390D01*
X137348934Y-95498390D02*
X137396553Y-95450771D01*
X137396553Y-95450771D02*
X137444172Y-95355533D01*
X137444172Y-95355533D02*
X137444172Y-95260295D01*
X137444172Y-95260295D02*
X137396553Y-95165057D01*
X137396553Y-95165057D02*
X137348934Y-95117438D01*
X137348934Y-95117438D02*
X137253696Y-95069819D01*
X137253696Y-95069819D02*
X137015601Y-95069819D01*
X137015601Y-95069819D02*
X136872744Y-95117438D01*
X136587029Y-95069819D02*
X136015601Y-95069819D01*
X136301315Y-96069819D02*
X136301315Y-95069819D01*
X135682267Y-95546009D02*
X135348934Y-95546009D01*
X135206077Y-96069819D02*
X135682267Y-96069819D01*
X135682267Y-96069819D02*
X135682267Y-95069819D01*
X135682267Y-95069819D02*
X135206077Y-95069819D01*
X134777505Y-96069819D02*
X134777505Y-95069819D01*
X134777505Y-95069819D02*
X134396553Y-95069819D01*
X134396553Y-95069819D02*
X134301315Y-95117438D01*
X134301315Y-95117438D02*
X134253696Y-95165057D01*
X134253696Y-95165057D02*
X134206077Y-95260295D01*
X134206077Y-95260295D02*
X134206077Y-95403152D01*
X134206077Y-95403152D02*
X134253696Y-95498390D01*
X134253696Y-95498390D02*
X134301315Y-95546009D01*
X134301315Y-95546009D02*
X134396553Y-95593628D01*
X134396553Y-95593628D02*
X134777505Y-95593628D01*
X133777505Y-96069819D02*
X133777505Y-95069819D01*
X133777505Y-95069819D02*
X133396553Y-95069819D01*
X133396553Y-95069819D02*
X133301315Y-95117438D01*
X133301315Y-95117438D02*
X133253696Y-95165057D01*
X133253696Y-95165057D02*
X133206077Y-95260295D01*
X133206077Y-95260295D02*
X133206077Y-95403152D01*
X133206077Y-95403152D02*
X133253696Y-95498390D01*
X133253696Y-95498390D02*
X133301315Y-95546009D01*
X133301315Y-95546009D02*
X133396553Y-95593628D01*
X133396553Y-95593628D02*
X133777505Y-95593628D01*
X132777505Y-95546009D02*
X132444172Y-95546009D01*
X132301315Y-96069819D02*
X132777505Y-96069819D01*
X132777505Y-96069819D02*
X132777505Y-95069819D01*
X132777505Y-95069819D02*
X132301315Y-95069819D01*
X131301315Y-96069819D02*
X131634648Y-95593628D01*
X131872743Y-96069819D02*
X131872743Y-95069819D01*
X131872743Y-95069819D02*
X131491791Y-95069819D01*
X131491791Y-95069819D02*
X131396553Y-95117438D01*
X131396553Y-95117438D02*
X131348934Y-95165057D01*
X131348934Y-95165057D02*
X131301315Y-95260295D01*
X131301315Y-95260295D02*
X131301315Y-95403152D01*
X131301315Y-95403152D02*
X131348934Y-95498390D01*
X131348934Y-95498390D02*
X131396553Y-95546009D01*
X131396553Y-95546009D02*
X131491791Y-95593628D01*
X131491791Y-95593628D02*
X131872743Y-95593628D01*
X130253695Y-95069819D02*
X129920362Y-96069819D01*
X129920362Y-96069819D02*
X129587029Y-95069819D01*
X128729886Y-96069819D02*
X129301314Y-96069819D01*
X129015600Y-96069819D02*
X129015600Y-95069819D01*
X129015600Y-95069819D02*
X129110838Y-95212676D01*
X129110838Y-95212676D02*
X129206076Y-95307914D01*
X129206076Y-95307914D02*
X129301314Y-95355533D01*
X128301314Y-95974580D02*
X128253695Y-96022200D01*
X128253695Y-96022200D02*
X128301314Y-96069819D01*
X128301314Y-96069819D02*
X128348933Y-96022200D01*
X128348933Y-96022200D02*
X128301314Y-95974580D01*
X128301314Y-95974580D02*
X128301314Y-96069819D01*
X127872743Y-95165057D02*
X127825124Y-95117438D01*
X127825124Y-95117438D02*
X127729886Y-95069819D01*
X127729886Y-95069819D02*
X127491791Y-95069819D01*
X127491791Y-95069819D02*
X127396553Y-95117438D01*
X127396553Y-95117438D02*
X127348934Y-95165057D01*
X127348934Y-95165057D02*
X127301315Y-95260295D01*
X127301315Y-95260295D02*
X127301315Y-95355533D01*
X127301315Y-95355533D02*
X127348934Y-95498390D01*
X127348934Y-95498390D02*
X127920362Y-96069819D01*
X127920362Y-96069819D02*
X127301315Y-96069819D01*
X129135094Y-118818819D02*
X129135094Y-117818819D01*
X129135094Y-117818819D02*
X128754142Y-117818819D01*
X128754142Y-117818819D02*
X128658904Y-117866438D01*
X128658904Y-117866438D02*
X128611285Y-117914057D01*
X128611285Y-117914057D02*
X128563666Y-118009295D01*
X128563666Y-118009295D02*
X128563666Y-118152152D01*
X128563666Y-118152152D02*
X128611285Y-118247390D01*
X128611285Y-118247390D02*
X128658904Y-118295009D01*
X128658904Y-118295009D02*
X128754142Y-118342628D01*
X128754142Y-118342628D02*
X129135094Y-118342628D01*
X127611285Y-118818819D02*
X128182713Y-118818819D01*
X127896999Y-118818819D02*
X127896999Y-117818819D01*
X127896999Y-117818819D02*
X127992237Y-117961676D01*
X127992237Y-117961676D02*
X128087475Y-118056914D01*
X128087475Y-118056914D02*
X128182713Y-118104533D01*
X174728094Y-119707819D02*
X174728094Y-118707819D01*
X174728094Y-118707819D02*
X174347142Y-118707819D01*
X174347142Y-118707819D02*
X174251904Y-118755438D01*
X174251904Y-118755438D02*
X174204285Y-118803057D01*
X174204285Y-118803057D02*
X174156666Y-118898295D01*
X174156666Y-118898295D02*
X174156666Y-119041152D01*
X174156666Y-119041152D02*
X174204285Y-119136390D01*
X174204285Y-119136390D02*
X174251904Y-119184009D01*
X174251904Y-119184009D02*
X174347142Y-119231628D01*
X174347142Y-119231628D02*
X174728094Y-119231628D01*
X173823332Y-118707819D02*
X173204285Y-118707819D01*
X173204285Y-118707819D02*
X173537618Y-119088771D01*
X173537618Y-119088771D02*
X173394761Y-119088771D01*
X173394761Y-119088771D02*
X173299523Y-119136390D01*
X173299523Y-119136390D02*
X173251904Y-119184009D01*
X173251904Y-119184009D02*
X173204285Y-119279247D01*
X173204285Y-119279247D02*
X173204285Y-119517342D01*
X173204285Y-119517342D02*
X173251904Y-119612580D01*
X173251904Y-119612580D02*
X173299523Y-119660200D01*
X173299523Y-119660200D02*
X173394761Y-119707819D01*
X173394761Y-119707819D02*
X173680475Y-119707819D01*
X173680475Y-119707819D02*
X173775713Y-119660200D01*
X173775713Y-119660200D02*
X173823332Y-119612580D01*
X149074094Y-73860819D02*
X149074094Y-72860819D01*
X149074094Y-72860819D02*
X148693142Y-72860819D01*
X148693142Y-72860819D02*
X148597904Y-72908438D01*
X148597904Y-72908438D02*
X148550285Y-72956057D01*
X148550285Y-72956057D02*
X148502666Y-73051295D01*
X148502666Y-73051295D02*
X148502666Y-73194152D01*
X148502666Y-73194152D02*
X148550285Y-73289390D01*
X148550285Y-73289390D02*
X148597904Y-73337009D01*
X148597904Y-73337009D02*
X148693142Y-73384628D01*
X148693142Y-73384628D02*
X149074094Y-73384628D01*
X147645523Y-72860819D02*
X147835999Y-72860819D01*
X147835999Y-72860819D02*
X147931237Y-72908438D01*
X147931237Y-72908438D02*
X147978856Y-72956057D01*
X147978856Y-72956057D02*
X148074094Y-73098914D01*
X148074094Y-73098914D02*
X148121713Y-73289390D01*
X148121713Y-73289390D02*
X148121713Y-73670342D01*
X148121713Y-73670342D02*
X148074094Y-73765580D01*
X148074094Y-73765580D02*
X148026475Y-73813200D01*
X148026475Y-73813200D02*
X147931237Y-73860819D01*
X147931237Y-73860819D02*
X147740761Y-73860819D01*
X147740761Y-73860819D02*
X147645523Y-73813200D01*
X147645523Y-73813200D02*
X147597904Y-73765580D01*
X147597904Y-73765580D02*
X147550285Y-73670342D01*
X147550285Y-73670342D02*
X147550285Y-73432247D01*
X147550285Y-73432247D02*
X147597904Y-73337009D01*
X147597904Y-73337009D02*
X147645523Y-73289390D01*
X147645523Y-73289390D02*
X147740761Y-73241771D01*
X147740761Y-73241771D02*
X147931237Y-73241771D01*
X147931237Y-73241771D02*
X148026475Y-73289390D01*
X148026475Y-73289390D02*
X148074094Y-73337009D01*
X148074094Y-73337009D02*
X148121713Y-73432247D01*
X172315094Y-73860819D02*
X172315094Y-72860819D01*
X172315094Y-72860819D02*
X171934142Y-72860819D01*
X171934142Y-72860819D02*
X171838904Y-72908438D01*
X171838904Y-72908438D02*
X171791285Y-72956057D01*
X171791285Y-72956057D02*
X171743666Y-73051295D01*
X171743666Y-73051295D02*
X171743666Y-73194152D01*
X171743666Y-73194152D02*
X171791285Y-73289390D01*
X171791285Y-73289390D02*
X171838904Y-73337009D01*
X171838904Y-73337009D02*
X171934142Y-73384628D01*
X171934142Y-73384628D02*
X172315094Y-73384628D01*
X171410332Y-72860819D02*
X170743666Y-72860819D01*
X170743666Y-72860819D02*
X171172237Y-73860819D01*
X129385219Y-65017505D02*
X128385219Y-65017505D01*
X128385219Y-65017505D02*
X128385219Y-65255600D01*
X128385219Y-65255600D02*
X128432838Y-65398457D01*
X128432838Y-65398457D02*
X128528076Y-65493695D01*
X128528076Y-65493695D02*
X128623314Y-65541314D01*
X128623314Y-65541314D02*
X128813790Y-65588933D01*
X128813790Y-65588933D02*
X128956647Y-65588933D01*
X128956647Y-65588933D02*
X129147123Y-65541314D01*
X129147123Y-65541314D02*
X129242361Y-65493695D01*
X129242361Y-65493695D02*
X129337600Y-65398457D01*
X129337600Y-65398457D02*
X129385219Y-65255600D01*
X129385219Y-65255600D02*
X129385219Y-65017505D01*
X128480457Y-65969886D02*
X128432838Y-66017505D01*
X128432838Y-66017505D02*
X128385219Y-66112743D01*
X128385219Y-66112743D02*
X128385219Y-66350838D01*
X128385219Y-66350838D02*
X128432838Y-66446076D01*
X128432838Y-66446076D02*
X128480457Y-66493695D01*
X128480457Y-66493695D02*
X128575695Y-66541314D01*
X128575695Y-66541314D02*
X128670933Y-66541314D01*
X128670933Y-66541314D02*
X128813790Y-66493695D01*
X128813790Y-66493695D02*
X129385219Y-65922267D01*
X129385219Y-65922267D02*
X129385219Y-66541314D01*
M02*
