  0
SECTION
  2
HEADER
  9
$ANGBASE
  50
0.0
  9
$ANGDIR
  70
1
  9
$MEASUREMENT
  70
1
  0
ENDSEC
  0
SECTION
  2
TABLES
  0
TABLE
  2
LTYPE
  70
4
  0
LTYPE
  5
40F
  2
CONTINUOUS
  70
0
  3
Solid line
  72
65
  73
0
  40
0.0
  0
LTYPE
  5
410
  2
DASHDOT
 70
0
  3
Dash Dot ____ _ ____ _
 72
65
 73
4
 40
2.0
 49
1.25
 49
-0.25
 49
0.25
 49
-0.25
  0
LTYPE
  5
411
  2
DASHED
 70
0
  3
Dashed __ __ __ __ __
 72
65
 73
2
 40
0.75
 49
0.5
 49
-0.25
  0
LTYPE
  5
43B
  2
DOTTED
 70
0
  3
Dotted .  .  .  .
 72
65
 73
2
 40
0.2
 49
0.0
 49
-0.2
  0
ENDTAB
  0
TABLE
  2
STYLE
  70
4
  0
STYLE
  2
KICAD
  70
0
  40
0
  41
1
  42
1
  50
0
  71
0
  3
isocp.shx
  0
STYLE
  2
KICADB
  70
0
  40
0
  41
1
  42
1
  50
0
  71
0
  3
isocp.shx
  0
STYLE
  2
KICADI
  70
0
  40
0
  41
1
  42
1
  50
15
  71
0
  3
isocp.shx
  0
STYLE
  2
KICADBI
  70
0
  40
0
  41
1
  42
1
  50
15
  71
0
  3
isocp.shx
  0
ENDTAB
  0
TABLE
  2
LAYER
  70
1
  0
LAYER
  2
BLACK
  70
0
  62
7
  6
CONTINUOUS
  0
ENDTAB
  0
ENDSEC
  0
SECTION
  2
ENTITIES
0
CIRCLE
8
BLACK
10
205.4947999999999979
20
-157.
40
1.7960509999999998
0
CIRCLE
8
BLACK
10
205.4947999999999979
20
-64.289999999999992
40
1.7692699999999999
0
CIRCLE
8
BLACK
10
145.5
20
-64.289999999999992
40
1.7692699999999999
0
CIRCLE
8
BLACK
10
145.5
20
-157.
40
1.747992
0
LINE
8
BLACK
6
CONTINUOUS
10
124.7157499999999999
20
-61.4324999999999974
11
224.4107499999999789
21
-61.4324999999999974
0
LINE
8
BLACK
6
CONTINUOUS
10
224.4107499999999789
20
-61.4324999999999974
11
224.4107499999999789
21
-159.8574999999999875
0
LINE
8
BLACK
6
CONTINUOUS
10
224.4107499999999789
20
-159.8574999999999875
11
124.7157499999999999
21
-159.8574999999999875
0
LINE
8
BLACK
6
CONTINUOUS
10
124.7157499999999999
20
-159.8574999999999875
11
124.7157499999999999
21
-61.4324999999999974
0
LINE
8
BLACK
6
CONTINUOUS
10
127.24851799999999
20
-163.0473379999999963
11
127.24851799999999
21
-161.0473379999999963
0
LINE
8
BLACK
6
CONTINUOUS
10
127.24851799999999
20
-161.0473379999999963
11
127.7247079999999926
21
-161.0473379999999963
0
LINE
8
BLACK
6
CONTINUOUS
10
127.7247079999999926
20
-161.0473379999999963
11
128.010423000000003
21
-161.1425759999999912
0
LINE
8
BLACK
6
CONTINUOUS
10
128.010423000000003
20
-161.1425759999999912
11
128.2008989999999926
21
-161.3330519999999808
0
LINE
8
BLACK
6
CONTINUOUS
10
128.2008989999999926
20
-161.3330519999999808
11
128.2961369999999874
21
-161.5235279999999989
0
LINE
8
BLACK
6
CONTINUOUS
10
128.2961369999999874
20
-161.5235279999999989
11
128.3913749999999823
21
-161.9044800000000066
0
LINE
8
BLACK
6
CONTINUOUS
10
128.3913749999999823
20
-161.9044800000000066
11
128.3913749999999823
21
-162.1901949999999886
0
LINE
8
BLACK
6
CONTINUOUS
10
128.3913749999999823
20
-162.1901949999999886
11
128.2961369999999874
21
-162.5711469999999963
0
LINE
8
BLACK
6
CONTINUOUS
10
128.2961369999999874
20
-162.5711469999999963
11
128.2008989999999926
21
-162.761622999999986
0
LINE
8
BLACK
6
CONTINUOUS
10
128.2008989999999926
20
-162.761622999999986
11
128.010423000000003
21
-162.9521000000000015
0
LINE
8
BLACK
6
CONTINUOUS
10
128.010423000000003
20
-162.9521000000000015
11
127.7247079999999926
21
-163.0473379999999963
0
LINE
8
BLACK
6
CONTINUOUS
10
127.7247079999999926
20
-163.0473379999999963
11
127.24851799999999
21
-163.0473379999999963
0
LINE
8
BLACK
6
CONTINUOUS
10
129.24851799999999
20
-163.0473379999999963
11
129.24851799999999
21
-161.7140039999999885
0
LINE
8
BLACK
6
CONTINUOUS
10
129.24851799999999
20
-162.0949569999999937
11
129.3437559999999849
21
-161.9044800000000066
0
LINE
8
BLACK
6
CONTINUOUS
10
129.3437559999999849
20
-161.9044800000000066
11
129.4389940000000081
21
-161.8092419999999834
0
LINE
8
BLACK
6
CONTINUOUS
10
129.4389940000000081
20
-161.8092419999999834
11
129.6294699999999978
21
-161.7140039999999885
0
LINE
8
BLACK
6
CONTINUOUS
10
129.6294699999999978
20
-161.7140039999999885
11
129.8199469999999849
21
-161.7140039999999885
0
LINE
8
BLACK
6
CONTINUOUS
10
130.4866130000000055
20
-163.0473379999999963
11
130.4866130000000055
21
-161.7140039999999885
0
LINE
8
BLACK
6
CONTINUOUS
10
130.4866130000000055
20
-161.0473379999999963
11
130.3913749999999823
21
-161.1425759999999912
0
LINE
8
BLACK
6
CONTINUOUS
10
130.3913749999999823
20
-161.1425759999999912
11
130.4866130000000055
21
-161.237813999999986
0
LINE
8
BLACK
6
CONTINUOUS
10
130.4866130000000055
20
-161.237813999999986
11
130.5818510000000003
21
-161.1425759999999912
0
LINE
8
BLACK
6
CONTINUOUS
10
130.5818510000000003
20
-161.1425759999999912
11
130.4866130000000055
21
-161.0473379999999963
0
LINE
8
BLACK
6
CONTINUOUS
10
130.4866130000000055
20
-161.0473379999999963
11
130.4866130000000055
21
-161.237813999999986
0
LINE
8
BLACK
6
CONTINUOUS
10
131.7247079999999926
20
-163.0473379999999963
11
131.5342320000000029
21
-162.9521000000000015
0
LINE
8
BLACK
6
CONTINUOUS
10
131.5342320000000029
20
-162.9521000000000015
11
131.4389940000000081
21
-162.761622999999986
0
LINE
8
BLACK
6
CONTINUOUS
10
131.4389940000000081
20
-162.761622999999986
11
131.4389940000000081
21
-161.0473379999999963
0
LINE
8
BLACK
6
CONTINUOUS
10
132.77232699999999
20
-163.0473379999999963
11
132.5818510000000003
21
-162.9521000000000015
0
LINE
8
BLACK
6
CONTINUOUS
10
132.5818510000000003
20
-162.9521000000000015
11
132.4866130000000055
21
-162.761622999999986
0
LINE
8
BLACK
6
CONTINUOUS
10
132.4866130000000055
20
-162.761622999999986
11
132.4866130000000055
21
-161.0473379999999963
0
LINE
8
BLACK
6
CONTINUOUS
10
135.0580420000000004
20
-163.0473379999999963
11
135.0580420000000004
21
-161.0473379999999963
0
LINE
8
BLACK
6
CONTINUOUS
10
135.0580420000000004
20
-161.0473379999999963
11
135.7247089999999901
21
-162.4759090000000015
0
LINE
8
BLACK
6
CONTINUOUS
10
135.7247089999999901
20
-162.4759090000000015
11
136.3913749999999823
21
-161.0473379999999963
0
LINE
8
BLACK
6
CONTINUOUS
10
136.3913749999999823
20
-161.0473379999999963
11
136.3913749999999823
21
-163.0473379999999963
0
LINE
8
BLACK
6
CONTINUOUS
10
138.2008989999999926
20
-163.0473379999999963
11
138.2008989999999926
21
-161.9997189999999989
0
LINE
8
BLACK
6
CONTINUOUS
10
138.2008989999999926
20
-161.9997189999999989
11
138.1056609999999978
21
-161.8092419999999834
0
LINE
8
BLACK
6
CONTINUOUS
10
138.1056609999999978
20
-161.8092419999999834
11
137.9151849999999797
21
-161.7140039999999885
0
LINE
8
BLACK
6
CONTINUOUS
10
137.9151849999999797
20
-161.7140039999999885
11
137.5342320000000029
21
-161.7140039999999885
0
LINE
8
BLACK
6
CONTINUOUS
10
137.5342320000000029
20
-161.7140039999999885
11
137.3437559999999849
21
-161.8092419999999834
0
LINE
8
BLACK
6
CONTINUOUS
10
138.2008989999999926
20
-162.9521000000000015
11
138.010423000000003
21
-163.0473379999999963
0
LINE
8
BLACK
6
CONTINUOUS
10
138.010423000000003
20
-163.0473379999999963
11
137.5342320000000029
21
-163.0473379999999963
0
LINE
8
BLACK
6
CONTINUOUS
10
137.5342320000000029
20
-163.0473379999999963
11
137.3437559999999849
21
-162.9521000000000015
0
LINE
8
BLACK
6
CONTINUOUS
10
137.3437559999999849
20
-162.9521000000000015
11
137.24851799999999
21
-162.761622999999986
0
LINE
8
BLACK
6
CONTINUOUS
10
137.24851799999999
20
-162.761622999999986
11
137.24851799999999
21
-162.5711469999999963
0
LINE
8
BLACK
6
CONTINUOUS
10
137.24851799999999
20
-162.5711469999999963
11
137.3437559999999849
21
-162.3806710000000066
0
LINE
8
BLACK
6
CONTINUOUS
10
137.3437559999999849
20
-162.3806710000000066
11
137.5342320000000029
21
-162.2854329999999834
0
LINE
8
BLACK
6
CONTINUOUS
10
137.5342320000000029
20
-162.2854329999999834
11
138.010423000000003
21
-162.2854329999999834
0
LINE
8
BLACK
6
CONTINUOUS
10
138.010423000000003
20
-162.2854329999999834
11
138.2008989999999926
21
-162.1901949999999886
0
LINE
8
BLACK
6
CONTINUOUS
10
139.1532799999999952
20
-161.7140039999999885
11
139.1532799999999952
21
-163.7140039999999885
0
LINE
8
BLACK
6
CONTINUOUS
10
139.1532799999999952
20
-161.8092419999999834
11
139.3437559999999849
21
-161.7140039999999885
0
LINE
8
BLACK
6
CONTINUOUS
10
139.3437559999999849
20
-161.7140039999999885
11
139.7247089999999901
21
-161.7140039999999885
0
LINE
8
BLACK
6
CONTINUOUS
10
139.7247089999999901
20
-161.7140039999999885
11
139.9151849999999797
21
-161.8092419999999834
0
LINE
8
BLACK
6
CONTINUOUS
10
139.9151849999999797
20
-161.8092419999999834
11
140.010423000000003
21
-161.9044800000000066
0
LINE
8
BLACK
6
CONTINUOUS
10
140.010423000000003
20
-161.9044800000000066
11
140.1056609999999978
21
-162.0949569999999937
0
LINE
8
BLACK
6
CONTINUOUS
10
140.1056609999999978
20
-162.0949569999999937
11
140.1056609999999978
21
-162.6663849999999911
0
LINE
8
BLACK
6
CONTINUOUS
10
140.1056609999999978
20
-162.6663849999999911
11
140.010423000000003
21
-162.8568609999999808
0
LINE
8
BLACK
6
CONTINUOUS
10
140.010423000000003
20
-162.8568609999999808
11
139.9151849999999797
21
-162.9521000000000015
0
LINE
8
BLACK
6
CONTINUOUS
10
139.9151849999999797
20
-162.9521000000000015
11
139.7247089999999901
21
-163.0473379999999963
0
LINE
8
BLACK
6
CONTINUOUS
10
139.7247089999999901
20
-163.0473379999999963
11
139.3437559999999849
21
-163.0473379999999963
0
LINE
8
BLACK
6
CONTINUOUS
10
139.3437559999999849
20
-163.0473379999999963
11
139.1532799999999952
21
-162.9521000000000015
0
LINE
8
BLACK
6
CONTINUOUS
10
140.9628040000000055
20
-162.8568609999999808
11
141.0580420000000004
21
-162.9521000000000015
0
LINE
8
BLACK
6
CONTINUOUS
10
141.0580420000000004
20
-162.9521000000000015
11
140.9628040000000055
21
-163.0473379999999963
0
LINE
8
BLACK
6
CONTINUOUS
10
140.9628040000000055
20
-163.0473379999999963
11
140.8675659999999823
21
-162.9521000000000015
0
LINE
8
BLACK
6
CONTINUOUS
10
140.8675659999999823
20
-162.9521000000000015
11
140.9628040000000055
21
-162.8568609999999808
0
LINE
8
BLACK
6
CONTINUOUS
10
140.9628040000000055
20
-162.8568609999999808
11
140.9628040000000055
21
-163.0473379999999963
0
LINE
8
BLACK
6
CONTINUOUS
10
140.9628040000000055
20
-161.8092419999999834
11
141.0580420000000004
21
-161.9044800000000066
0
LINE
8
BLACK
6
CONTINUOUS
10
141.0580420000000004
20
-161.9044800000000066
11
140.9628040000000055
21
-161.9997189999999989
0
LINE
8
BLACK
6
CONTINUOUS
10
140.9628040000000055
20
-161.9997189999999989
11
140.8675659999999823
21
-161.9044800000000066
0
LINE
8
BLACK
6
CONTINUOUS
10
140.8675659999999823
20
-161.9044800000000066
11
140.9628040000000055
21
-161.8092419999999834
0
LINE
8
BLACK
6
CONTINUOUS
10
140.9628040000000055
20
-161.8092419999999834
11
140.9628040000000055
21
-161.9997189999999989
  0
ENDSEC
  0
EOF
