G04 #@! TF.GenerationSoftware,KiCad,Pcbnew,9.0.7*
G04 #@! TF.CreationDate,2026-07-21T05:55:21+10:00*
G04 #@! TF.ProjectId,Jet Ranger Upper Controller,4a657420-5261-46e6-9765-722055707065,1.1*
G04 #@! TF.SameCoordinates,Original*
G04 #@! TF.FileFunction,Copper,L1,Top*
G04 #@! TF.FilePolarity,Positive*
%FSLAX46Y46*%
G04 Gerber Fmt 4.6, Leading zero omitted, Abs format (unit mm)*
G04 Created by KiCad (PCBNEW 9.0.7) date 2026-07-21 05:55:21*
%MOMM*%
%LPD*%
G01*
G04 APERTURE LIST*
G04 Aperture macros list*
%AMRoundRect*
0 Rectangle with rounded corners*
0 $1 Rounding radius*
0 $2 $3 $4 $5 $6 $7 $8 $9 X,Y pos of 4 corners*
0 Add a 4 corners polygon primitive as box body*
4,1,4,$2,$3,$4,$5,$6,$7,$8,$9,$2,$3,0*
0 Add four circle primitives for the rounded corners*
1,1,$1+$1,$2,$3*
1,1,$1+$1,$4,$5*
1,1,$1+$1,$6,$7*
1,1,$1+$1,$8,$9*
0 Add four rect primitives between the rounded corners*
20,1,$1+$1,$2,$3,$4,$5,0*
20,1,$1+$1,$4,$5,$6,$7,0*
20,1,$1+$1,$6,$7,$8,$9,0*
20,1,$1+$1,$8,$9,$2,$3,0*%
G04 Aperture macros list end*
G04 #@! TA.AperFunction,ComponentPad*
%ADD10RoundRect,0.250000X-0.620000X-0.845000X0.620000X-0.845000X0.620000X0.845000X-0.620000X0.845000X0*%
G04 #@! TD*
G04 #@! TA.AperFunction,ComponentPad*
%ADD11O,1.740000X2.190000*%
G04 #@! TD*
G04 #@! TA.AperFunction,ComponentPad*
%ADD12RoundRect,0.250000X-0.550000X-0.550000X0.550000X-0.550000X0.550000X0.550000X-0.550000X0.550000X0*%
G04 #@! TD*
G04 #@! TA.AperFunction,ComponentPad*
%ADD13C,1.600000*%
G04 #@! TD*
G04 #@! TA.AperFunction,ComponentPad*
%ADD14C,2.010000*%
G04 #@! TD*
G04 #@! TA.AperFunction,ComponentPad*
%ADD15R,1.700000X1.700000*%
G04 #@! TD*
G04 #@! TA.AperFunction,ComponentPad*
%ADD16O,1.700000X1.700000*%
G04 #@! TD*
G04 #@! TA.AperFunction,ComponentPad*
%ADD17R,1.800000X1.800000*%
G04 #@! TD*
G04 #@! TA.AperFunction,ComponentPad*
%ADD18C,1.800000*%
G04 #@! TD*
G04 #@! TA.AperFunction,ComponentPad*
%ADD19RoundRect,0.250000X0.600000X-0.600000X0.600000X0.600000X-0.600000X0.600000X-0.600000X-0.600000X0*%
G04 #@! TD*
G04 #@! TA.AperFunction,ComponentPad*
%ADD20C,1.700000*%
G04 #@! TD*
G04 #@! TA.AperFunction,ComponentPad*
%ADD21R,3.500000X3.500000*%
G04 #@! TD*
G04 #@! TA.AperFunction,ComponentPad*
%ADD22RoundRect,0.750000X0.750000X1.000000X-0.750000X1.000000X-0.750000X-1.000000X0.750000X-1.000000X0*%
G04 #@! TD*
G04 #@! TA.AperFunction,ComponentPad*
%ADD23RoundRect,0.875000X0.875000X0.875000X-0.875000X0.875000X-0.875000X-0.875000X0.875000X-0.875000X0*%
G04 #@! TD*
G04 #@! TA.AperFunction,ComponentPad*
%ADD24R,1.905000X2.000000*%
G04 #@! TD*
G04 #@! TA.AperFunction,ComponentPad*
%ADD25O,1.905000X2.000000*%
G04 #@! TD*
G04 #@! TA.AperFunction,ComponentPad*
%ADD26R,1.665000X1.665000*%
G04 #@! TD*
G04 #@! TA.AperFunction,ComponentPad*
%ADD27C,1.665000*%
G04 #@! TD*
G04 #@! TA.AperFunction,ComponentPad*
%ADD28O,1.727200X1.727200*%
G04 #@! TD*
G04 #@! TA.AperFunction,ComponentPad*
%ADD29R,1.727200X1.727200*%
G04 #@! TD*
G04 #@! TA.AperFunction,ViaPad*
%ADD30C,0.600000*%
G04 #@! TD*
G04 #@! TA.AperFunction,Conductor*
%ADD31C,0.250000*%
G04 #@! TD*
G04 APERTURE END LIST*
D10*
X51460000Y-128000000D03*
D11*
X54000000Y-128000000D03*
D10*
X42460000Y-128000000D03*
D11*
X45000000Y-128000000D03*
D10*
X64460000Y-57000000D03*
D11*
X67000000Y-57000000D03*
X69540000Y-57000000D03*
D12*
X59380000Y-130500000D03*
D13*
X67000000Y-130500000D03*
D12*
X59380000Y-126950000D03*
D13*
X67000000Y-126950000D03*
D14*
X110750000Y-105050000D03*
X109550000Y-110150000D03*
D13*
X59040000Y-75594300D03*
X56500000Y-75594300D03*
D15*
X63500000Y-41046400D03*
D16*
X60960000Y-41046400D03*
X58420000Y-41046400D03*
X55880000Y-41046400D03*
X53340000Y-41046400D03*
X50800000Y-41046400D03*
X48260000Y-41046400D03*
X45720000Y-41046400D03*
D13*
X59040000Y-82192700D03*
X56500000Y-82192700D03*
X58956600Y-85491900D03*
X56416600Y-85491900D03*
D15*
X117298000Y-50550000D03*
D16*
X117298000Y-48010000D03*
X117298000Y-45470000D03*
D15*
X86360000Y-41046400D03*
D16*
X83820000Y-41046400D03*
X81280000Y-41046400D03*
X78740000Y-41046400D03*
X76200000Y-41046400D03*
X73660000Y-41046400D03*
X71120000Y-41046400D03*
X68580000Y-41046400D03*
D17*
X113540000Y-80500000D03*
D18*
X111000000Y-80500000D03*
D13*
X59040000Y-55799200D03*
X56500000Y-55799200D03*
X59040000Y-52500000D03*
X56500000Y-52500000D03*
D19*
X74560000Y-122000000D03*
D20*
X74560000Y-119460000D03*
X77100000Y-122000000D03*
X77100000Y-119460000D03*
X79640000Y-122000000D03*
X79640000Y-119460000D03*
X82180000Y-122000000D03*
X82180000Y-119460000D03*
X84720000Y-122000000D03*
X84720000Y-119460000D03*
X87260000Y-122000000D03*
X87260000Y-119460000D03*
X89800000Y-122000000D03*
X89800000Y-119460000D03*
X92340000Y-122000000D03*
X92340000Y-119460000D03*
X94880000Y-122000000D03*
X94880000Y-119460000D03*
X97420000Y-122000000D03*
X97420000Y-119460000D03*
X99960000Y-122000000D03*
X99960000Y-119460000D03*
X102500000Y-122000000D03*
X102500000Y-119460000D03*
D15*
X33560000Y-114410000D03*
D20*
X36100000Y-114410000D03*
X38640000Y-114410000D03*
X41180000Y-114410000D03*
X43720000Y-114410000D03*
X46260000Y-114410000D03*
X48800000Y-114410000D03*
X51340000Y-114410000D03*
X53880000Y-114410000D03*
X56420000Y-114410000D03*
X58960000Y-114410000D03*
X61500000Y-114410000D03*
D13*
X118250000Y-84250000D03*
X120790000Y-84250000D03*
X124750000Y-87500000D03*
X124750000Y-84960000D03*
D15*
X37000000Y-45000000D03*
D16*
X39540000Y-45000000D03*
D21*
X118949000Y-118350000D03*
D22*
X124949000Y-118350000D03*
D23*
X121949000Y-113650000D03*
D10*
X72220000Y-78150000D03*
D11*
X74760000Y-78150000D03*
X77300000Y-78150000D03*
X79840000Y-78150000D03*
X82380000Y-78150000D03*
X84920000Y-78150000D03*
X87460000Y-78150000D03*
X90000000Y-78150000D03*
D17*
X127040000Y-96750000D03*
D18*
X124500000Y-96750000D03*
D17*
X125770000Y-80500000D03*
D18*
X123230000Y-80500000D03*
D10*
X72260000Y-87500000D03*
D11*
X74800000Y-87500000D03*
X77340000Y-87500000D03*
X79880000Y-87500000D03*
X82420000Y-87500000D03*
X84960000Y-87500000D03*
X87500000Y-87500000D03*
X90040000Y-87500000D03*
D13*
X59040000Y-62397600D03*
X56500000Y-62397600D03*
D15*
X33560000Y-105230000D03*
D20*
X36100000Y-105230000D03*
X38640000Y-105230000D03*
X41180000Y-105230000D03*
X43720000Y-105230000D03*
X46260000Y-105230000D03*
X48800000Y-105230000D03*
X51340000Y-105230000D03*
X53880000Y-105230000D03*
X56420000Y-105230000D03*
X58960000Y-105230000D03*
X61500000Y-105230000D03*
D13*
X124710000Y-92750000D03*
X127250000Y-92750000D03*
X117000000Y-80000000D03*
X119540000Y-80000000D03*
D15*
X33560000Y-109820000D03*
D20*
X36100000Y-109820000D03*
X38640000Y-109820000D03*
X41180000Y-109820000D03*
X43720000Y-109820000D03*
X46260000Y-109820000D03*
X48800000Y-109820000D03*
X51340000Y-109820000D03*
X53880000Y-109820000D03*
X56420000Y-109820000D03*
X58960000Y-109820000D03*
X61500000Y-109820000D03*
D13*
X59040000Y-78893500D03*
X56500000Y-78893500D03*
D15*
X68580000Y-98958400D03*
D16*
X66040000Y-98958400D03*
X63500000Y-98958400D03*
X60960000Y-98958400D03*
X58420000Y-98958400D03*
X55880000Y-98958400D03*
X53340000Y-98958400D03*
X50800000Y-98958400D03*
D13*
X94960000Y-61500000D03*
X97500000Y-61500000D03*
X59040000Y-72295100D03*
X56500000Y-72295100D03*
D24*
X88920000Y-56500000D03*
D25*
X91460000Y-56500000D03*
X94000000Y-56500000D03*
D13*
X59040000Y-65696800D03*
X56500000Y-65696800D03*
D26*
X121809000Y-55183300D03*
D27*
X119269000Y-55183300D03*
X116729000Y-55183300D03*
X114189000Y-55183300D03*
X111649000Y-55183300D03*
X109109000Y-55183300D03*
D26*
X121809000Y-75503300D03*
D27*
X119269000Y-75503300D03*
X116729000Y-75503300D03*
X114189000Y-75503300D03*
X111649000Y-75503300D03*
X109109000Y-75503300D03*
D17*
X113040000Y-90500000D03*
D18*
X110500000Y-90500000D03*
D13*
X111455000Y-85750000D03*
X113995000Y-85750000D03*
D10*
X75725000Y-57020000D03*
D11*
X78265000Y-57020000D03*
D15*
X109220000Y-41046400D03*
D16*
X106680000Y-41046400D03*
X104140000Y-41046400D03*
X101600000Y-41046400D03*
X99060000Y-41046400D03*
X96520000Y-41046400D03*
X93980000Y-41046400D03*
X91440000Y-41046400D03*
D13*
X59040000Y-68996000D03*
X56500000Y-68996000D03*
D15*
X76000000Y-130500000D03*
D20*
X78540000Y-130500000D03*
X81080000Y-130500000D03*
X83620000Y-130500000D03*
X86160000Y-130500000D03*
X88700000Y-130500000D03*
X91240000Y-130500000D03*
X93780000Y-130500000D03*
X96320000Y-130500000D03*
X98860000Y-130500000D03*
X101400000Y-130500000D03*
X103940000Y-130500000D03*
D15*
X115450000Y-125560000D03*
D16*
X115450000Y-128100000D03*
D13*
X59040000Y-59098400D03*
X56500000Y-59098400D03*
X110960000Y-50900000D03*
X113500000Y-50900000D03*
X89037500Y-61212500D03*
X91577500Y-61212500D03*
X105350000Y-48750000D03*
X107890000Y-48750000D03*
D17*
X121540000Y-89750000D03*
D18*
X119000000Y-89750000D03*
D10*
X72153300Y-69041200D03*
D11*
X74693300Y-69041200D03*
X77233300Y-69041200D03*
X79773300Y-69041200D03*
X82313300Y-69041200D03*
X84853300Y-69041200D03*
X87393300Y-69041200D03*
X89933300Y-69041200D03*
D15*
X33560000Y-119000000D03*
D20*
X36100000Y-119000000D03*
X38640000Y-119000000D03*
X41180000Y-119000000D03*
X43720000Y-119000000D03*
X46260000Y-119000000D03*
X48800000Y-119000000D03*
X51340000Y-119000000D03*
X53880000Y-119000000D03*
X56420000Y-119000000D03*
X58960000Y-119000000D03*
X61500000Y-119000000D03*
D21*
X120000000Y-106207500D03*
D22*
X126000000Y-106207500D03*
D23*
X123000000Y-101507500D03*
D15*
X95504000Y-98958400D03*
D16*
X98044000Y-98958400D03*
X100584000Y-98958400D03*
X103124000Y-98958400D03*
X105664000Y-98958400D03*
X108204000Y-98958400D03*
X110744000Y-98958400D03*
X113284000Y-98958400D03*
X115824000Y-98958400D03*
X118364000Y-98958400D03*
D15*
X40411400Y-98933000D03*
D16*
X42951400Y-98933000D03*
D15*
X76000000Y-112000000D03*
D20*
X78540000Y-112000000D03*
X81080000Y-112000000D03*
X83620000Y-112000000D03*
X86160000Y-112000000D03*
X88700000Y-112000000D03*
X91240000Y-112000000D03*
X93780000Y-112000000D03*
X96320000Y-112000000D03*
X98860000Y-112000000D03*
X101400000Y-112000000D03*
X103940000Y-112000000D03*
D15*
X73660000Y-98958400D03*
D16*
X76200000Y-98958400D03*
X78740000Y-98958400D03*
X81280000Y-98958400D03*
X83820000Y-98958400D03*
X86360000Y-98958400D03*
X88900000Y-98958400D03*
X91440000Y-98958400D03*
D28*
X109205000Y-46039300D03*
X101585000Y-46039300D03*
X99045000Y-46039300D03*
X43165000Y-94299300D03*
X40625000Y-94299300D03*
X86345000Y-46039300D03*
X83805000Y-46039300D03*
X81265000Y-46039300D03*
X78725000Y-46039300D03*
X76185000Y-46039300D03*
X73645000Y-46039300D03*
X71105000Y-46039300D03*
X68565000Y-46039300D03*
X63485000Y-46039300D03*
X60945000Y-46039300D03*
X58405000Y-46039300D03*
X55865000Y-46039300D03*
X53325000Y-46039300D03*
X50785000Y-46039300D03*
X48245000Y-46039300D03*
X45705000Y-46039300D03*
X113269000Y-94299300D03*
X73645000Y-94299300D03*
X76185000Y-94299300D03*
X78725000Y-94299300D03*
X81265000Y-94299300D03*
X83805000Y-94299300D03*
X86345000Y-94299300D03*
X88885000Y-94299300D03*
X91425000Y-94299300D03*
X95489000Y-94299300D03*
X98029000Y-94299300D03*
X100569000Y-94299300D03*
X103109000Y-94299300D03*
X105649000Y-94299300D03*
X108189000Y-94299300D03*
X68565000Y-94299300D03*
X66025000Y-94299300D03*
X63485000Y-94299300D03*
X60945000Y-94299300D03*
X58405000Y-94299300D03*
X55865000Y-94299300D03*
X53325000Y-94299300D03*
X50785000Y-94299300D03*
X43165000Y-91759300D03*
X40625000Y-91759300D03*
X43165000Y-89219300D03*
X40625000Y-89219300D03*
X43165000Y-86679300D03*
X40625000Y-86679300D03*
X43165000Y-84139300D03*
X40625000Y-84139300D03*
X43165000Y-81599300D03*
X40625000Y-81599300D03*
X43165000Y-79059300D03*
X40625000Y-79059300D03*
X43165000Y-76519300D03*
X40625000Y-76519300D03*
X43165000Y-73979300D03*
X40625000Y-73979300D03*
X43165000Y-71439300D03*
X40625000Y-71439300D03*
X43165000Y-68899300D03*
X40625000Y-68899300D03*
X43165000Y-66359300D03*
X40625000Y-66359300D03*
X43165000Y-63819300D03*
X40625000Y-63819300D03*
X43165000Y-61279300D03*
X40625000Y-61279300D03*
X43165000Y-58739300D03*
X40625000Y-58739300D03*
X43165000Y-56199300D03*
X40625000Y-56199300D03*
X43165000Y-53659300D03*
X40625000Y-53659300D03*
D29*
X110729000Y-94299300D03*
X96505000Y-46039300D03*
X93965000Y-46039300D03*
X43165000Y-51119300D03*
X40625000Y-51119300D03*
D28*
X106665000Y-46039300D03*
X104125000Y-46039300D03*
X118349000Y-94299300D03*
X115809000Y-94299300D03*
X91425000Y-46039300D03*
D30*
X54544600Y-67379400D03*
X54590300Y-82131600D03*
X84492900Y-79902100D03*
X55087300Y-78442200D03*
X81181000Y-47509400D03*
X71031700Y-95526200D03*
X77952100Y-85761800D03*
X69415900Y-89585900D03*
X82881900Y-48350700D03*
X54904100Y-56060500D03*
X53195200Y-80386900D03*
X53589200Y-76864400D03*
X82300100Y-71126100D03*
X75316200Y-82819900D03*
X69029400Y-76482500D03*
X84922100Y-47226800D03*
X92910600Y-67616000D03*
X76304900Y-47509400D03*
X69583100Y-51743400D03*
X55732900Y-86778000D03*
X60981200Y-79615000D03*
X57876900Y-88772700D03*
X46828500Y-67799300D03*
X55121300Y-87626800D03*
X63586600Y-80903300D03*
X81075200Y-73852700D03*
X122171600Y-95288400D03*
X57715100Y-64047200D03*
X68955900Y-83811500D03*
X51882700Y-73514400D03*
X108793300Y-77489300D03*
X69453000Y-53079600D03*
D31*
X65225000Y-128725000D02*
X67000000Y-130500000D01*
X57476200Y-128725000D02*
X65225000Y-128725000D01*
X55301300Y-126550100D02*
X57476200Y-128725000D01*
X52909900Y-126550100D02*
X55301300Y-126550100D01*
X51460000Y-128000000D02*
X52909900Y-126550100D01*
X65865700Y-125815700D02*
X67000000Y-126950000D01*
X44644300Y-125815700D02*
X65865700Y-125815700D01*
X42460000Y-128000000D02*
X44644300Y-125815700D01*
X79773300Y-69041200D02*
X78576600Y-69041200D01*
X59131400Y-67379400D02*
X54544600Y-67379400D01*
X62259100Y-70507100D02*
X59131400Y-67379400D01*
X77709000Y-70507100D02*
X62259100Y-70507100D01*
X78576600Y-69639500D02*
X77709000Y-70507100D01*
X78576600Y-69041200D02*
X78576600Y-69639500D01*
X83178900Y-114098900D02*
X81080000Y-112000000D01*
X86120000Y-114098900D02*
X83178900Y-114098900D01*
X91070000Y-119048900D02*
X86120000Y-114098900D01*
X91070000Y-120730000D02*
X91070000Y-119048900D01*
X92340000Y-122000000D02*
X91070000Y-120730000D01*
X88126800Y-117786800D02*
X89800000Y-119460000D01*
X85570200Y-117786800D02*
X88126800Y-117786800D01*
X81261900Y-113478500D02*
X85570200Y-117786800D01*
X80018500Y-113478500D02*
X81261900Y-113478500D01*
X78540000Y-112000000D02*
X80018500Y-113478500D01*
X95964100Y-125064100D02*
X101400000Y-130500000D01*
X90324100Y-125064100D02*
X95964100Y-125064100D01*
X87260000Y-122000000D02*
X90324100Y-125064100D01*
X85191200Y-113571200D02*
X83620000Y-112000000D01*
X86451200Y-113571200D02*
X85191200Y-113571200D01*
X92340000Y-119460000D02*
X86451200Y-113571200D01*
X88017400Y-119460000D02*
X87260000Y-119460000D01*
X89194100Y-120636700D02*
X88017400Y-119460000D01*
X90116000Y-120636700D02*
X89194100Y-120636700D01*
X90976700Y-121497400D02*
X90116000Y-120636700D01*
X90976700Y-122360800D02*
X90976700Y-121497400D01*
X93176700Y-124560800D02*
X90976700Y-122360800D01*
X98000800Y-124560800D02*
X93176700Y-124560800D01*
X103940000Y-130500000D02*
X98000800Y-124560800D01*
X76000000Y-112000000D02*
X77176700Y-112000000D01*
X88530000Y-120730000D02*
X89800000Y-122000000D01*
X86850700Y-120730000D02*
X88530000Y-120730000D01*
X86083300Y-119962600D02*
X86850700Y-120730000D01*
X86083300Y-119146100D02*
X86083300Y-119962600D01*
X81026700Y-114089500D02*
X86083300Y-119146100D01*
X78898400Y-114089500D02*
X81026700Y-114089500D01*
X77176700Y-112367800D02*
X78898400Y-114089500D01*
X77176700Y-112000000D02*
X77176700Y-112367800D01*
X85990100Y-120730100D02*
X84720000Y-119460000D01*
X85990100Y-122409500D02*
X85990100Y-120730100D01*
X89237500Y-125656900D02*
X85990100Y-122409500D01*
X94016900Y-125656900D02*
X89237500Y-125656900D01*
X98860000Y-130500000D02*
X94016900Y-125656900D01*
X90680000Y-130500000D02*
X91240000Y-130500000D01*
X82180000Y-122000000D02*
X90680000Y-130500000D01*
X91980300Y-126160300D02*
X96320000Y-130500000D01*
X88880300Y-126160300D02*
X91980300Y-126160300D01*
X84720000Y-122000000D02*
X88880300Y-126160300D01*
X88700000Y-113280000D02*
X88700000Y-112000000D01*
X94880000Y-119460000D02*
X88700000Y-113280000D01*
X92625000Y-55125000D02*
X94000000Y-56500000D01*
X77620000Y-55125000D02*
X92625000Y-55125000D01*
X75725000Y-57020000D02*
X77620000Y-55125000D01*
X40625000Y-84139300D02*
X40625000Y-82949000D01*
X54590300Y-80891300D02*
X54590300Y-82131600D01*
X53451800Y-79752800D02*
X54590300Y-80891300D01*
X52804100Y-79752800D02*
X53451800Y-79752800D01*
X52227600Y-80329300D02*
X52804100Y-79752800D01*
X42731900Y-80329300D02*
X52227600Y-80329300D01*
X41815300Y-81245900D02*
X42731900Y-80329300D01*
X41815300Y-82130800D02*
X41815300Y-81245900D01*
X40997100Y-82949000D02*
X41815300Y-82130800D01*
X40625000Y-82949000D02*
X40997100Y-82949000D01*
X55797600Y-77731900D02*
X55087300Y-78442200D01*
X56977200Y-77731900D02*
X55797600Y-77731900D01*
X57770000Y-78524700D02*
X56977200Y-77731900D01*
X57770000Y-79292700D02*
X57770000Y-78524700D01*
X58570200Y-80092900D02*
X57770000Y-79292700D01*
X59304700Y-80092900D02*
X58570200Y-80092900D01*
X60777800Y-81566000D02*
X59304700Y-80092900D01*
X82829000Y-81566000D02*
X60777800Y-81566000D01*
X84492900Y-79902100D02*
X82829000Y-81566000D01*
X51975300Y-46411400D02*
X51975300Y-46039300D01*
X53745800Y-48181900D02*
X51975300Y-46411400D01*
X80508500Y-48181900D02*
X53745800Y-48181900D01*
X81181000Y-47509400D02*
X80508500Y-48181900D01*
X50785000Y-46039300D02*
X51975300Y-46039300D01*
X81181000Y-47509400D02*
X81116600Y-47573800D01*
X81116600Y-47573800D02*
X81181000Y-47509400D01*
X70564700Y-95993200D02*
X71031700Y-95526200D01*
X40530400Y-95993200D02*
X70564700Y-95993200D01*
X39434700Y-94897500D02*
X40530400Y-95993200D01*
X39434700Y-93767800D02*
X39434700Y-94897500D01*
X40252900Y-92949600D02*
X39434700Y-93767800D01*
X40625000Y-92949600D02*
X40252900Y-92949600D01*
X40625000Y-91759300D02*
X40625000Y-92949600D01*
X74582500Y-85761800D02*
X77952100Y-85761800D01*
X73603300Y-86741000D02*
X74582500Y-85761800D01*
X73603300Y-88472300D02*
X73603300Y-86741000D01*
X73144700Y-88930900D02*
X73603300Y-88472300D01*
X70456500Y-88930900D02*
X73144700Y-88930900D01*
X65886700Y-84361100D02*
X70456500Y-88930900D01*
X58488900Y-84361100D02*
X65886700Y-84361100D01*
X57650800Y-85199200D02*
X58488900Y-84361100D01*
X57650800Y-85983600D02*
X57650800Y-85199200D01*
X54415100Y-89219300D02*
X57650800Y-85983600D01*
X43165000Y-89219300D02*
X54415100Y-89219300D01*
X67242500Y-91759300D02*
X43165000Y-91759300D01*
X69415900Y-89585900D02*
X67242500Y-91759300D01*
X48245000Y-46039300D02*
X49435300Y-46039300D01*
X82543100Y-48689500D02*
X82881900Y-48350700D01*
X51713500Y-48689500D02*
X82543100Y-48689500D01*
X49435300Y-46411300D02*
X51713500Y-48689500D01*
X49435300Y-46039300D02*
X49435300Y-46411300D01*
X52335300Y-59963900D02*
X56500000Y-55799200D01*
X42758700Y-59963900D02*
X52335300Y-59963900D01*
X41815300Y-60907300D02*
X42758700Y-59963900D01*
X41815300Y-61279300D02*
X41815300Y-60907300D01*
X40625000Y-61279300D02*
X41815300Y-61279300D01*
X52225300Y-58739300D02*
X43165000Y-58739300D01*
X54904100Y-56060500D02*
X52225300Y-58739300D01*
X113492500Y-106207500D02*
X109550000Y-110150000D01*
X120000000Y-106207500D02*
X113492500Y-106207500D01*
X50754300Y-82827800D02*
X53195200Y-80386900D01*
X42754500Y-82827800D02*
X50754300Y-82827800D01*
X41815300Y-83767000D02*
X42754500Y-82827800D01*
X41815300Y-84670800D02*
X41815300Y-83767000D01*
X40997100Y-85489000D02*
X41815300Y-84670800D01*
X40625000Y-85489000D02*
X40997100Y-85489000D01*
X40625000Y-86679300D02*
X40625000Y-85489000D01*
X84920000Y-78150000D02*
X83723300Y-78150000D01*
X53970100Y-77245300D02*
X53589200Y-76864400D01*
X69894300Y-77245300D02*
X53970100Y-77245300D01*
X70868700Y-76270900D02*
X69894300Y-77245300D01*
X82617400Y-76270900D02*
X70868700Y-76270900D01*
X83723300Y-77376800D02*
X82617400Y-76270900D01*
X83723300Y-78150000D02*
X83723300Y-77376800D01*
X40625000Y-66359300D02*
X41815300Y-66359300D01*
X51476600Y-68996000D02*
X56500000Y-68996000D01*
X47649600Y-65169000D02*
X51476600Y-68996000D01*
X42633500Y-65169000D02*
X47649600Y-65169000D01*
X41815300Y-65987200D02*
X42633500Y-65169000D01*
X41815300Y-66359300D02*
X41815300Y-65987200D01*
X58061600Y-70557600D02*
X56500000Y-68996000D01*
X61438400Y-70557600D02*
X58061600Y-70557600D01*
X62006900Y-71126100D02*
X61438400Y-70557600D01*
X82300100Y-71126100D02*
X62006900Y-71126100D01*
X87460000Y-78150000D02*
X86263300Y-78150000D01*
X43165000Y-84139300D02*
X44355300Y-84139300D01*
X45048000Y-83446600D02*
X44355300Y-84139300D01*
X68434600Y-83446600D02*
X45048000Y-83446600D01*
X68696400Y-83184800D02*
X68434600Y-83446600D01*
X69220300Y-83184800D02*
X68696400Y-83184800D01*
X69482100Y-83446600D02*
X69220300Y-83184800D01*
X81834700Y-83446600D02*
X69482100Y-83446600D01*
X86263300Y-79018000D02*
X81834700Y-83446600D01*
X86263300Y-78150000D02*
X86263300Y-79018000D01*
X43165000Y-68899300D02*
X44355300Y-68899300D01*
X56324600Y-79068900D02*
X56500000Y-78893500D01*
X54524900Y-79068900D02*
X56324600Y-79068900D01*
X44355300Y-68899300D02*
X54524900Y-79068900D01*
X58601300Y-80994800D02*
X56500000Y-78893500D01*
X59550100Y-80994800D02*
X58601300Y-80994800D01*
X61288400Y-82733100D02*
X59550100Y-80994800D01*
X75229400Y-82733100D02*
X61288400Y-82733100D01*
X75316200Y-82819900D02*
X75229400Y-82733100D01*
X40625000Y-68899300D02*
X41815300Y-68899300D01*
X53076400Y-75594300D02*
X56500000Y-75594300D01*
X45143400Y-67661300D02*
X53076400Y-75594300D01*
X42681300Y-67661300D02*
X45143400Y-67661300D01*
X41815300Y-68527300D02*
X42681300Y-67661300D01*
X41815300Y-68899300D02*
X41815300Y-68527300D01*
X57636800Y-76731100D02*
X56500000Y-75594300D01*
X68780800Y-76731100D02*
X57636800Y-76731100D01*
X69029400Y-76482500D02*
X68780800Y-76731100D01*
X45705000Y-46039300D02*
X46895300Y-46039300D01*
X82958200Y-49190700D02*
X84922100Y-47226800D01*
X49674700Y-49190700D02*
X82958200Y-49190700D01*
X46895300Y-46411300D02*
X49674700Y-49190700D01*
X46895300Y-46039300D02*
X46895300Y-46411300D01*
X40625000Y-63819300D02*
X41815300Y-63819300D01*
X56268600Y-62629000D02*
X56500000Y-62397600D01*
X42633500Y-62629000D02*
X56268600Y-62629000D01*
X41815300Y-63447200D02*
X42633500Y-62629000D01*
X41815300Y-63819300D02*
X41815300Y-63447200D01*
X56951800Y-62397600D02*
X56500000Y-62397600D01*
X58078500Y-63524300D02*
X56951800Y-62397600D01*
X85270300Y-63524300D02*
X58078500Y-63524300D01*
X89362000Y-67616000D02*
X85270300Y-63524300D01*
X92910600Y-67616000D02*
X89362000Y-67616000D01*
X55865000Y-46039300D02*
X57055300Y-46039300D01*
X57055300Y-46411300D02*
X57055300Y-46039300D01*
X58153400Y-47509400D02*
X57055300Y-46411300D01*
X76304900Y-47509400D02*
X58153400Y-47509400D01*
X52803300Y-128972300D02*
X52803300Y-128000000D01*
X52352100Y-129423500D02*
X52803300Y-128972300D01*
X47620200Y-129423500D02*
X52352100Y-129423500D01*
X46196700Y-128000000D02*
X47620200Y-129423500D01*
X45000000Y-128000000D02*
X46196700Y-128000000D01*
X54000000Y-128000000D02*
X52803300Y-128000000D01*
X91865000Y-61500000D02*
X91577500Y-61212500D01*
X94960000Y-61500000D02*
X91865000Y-61500000D01*
X117298000Y-45470000D02*
X116121300Y-45470000D01*
X40625000Y-58739300D02*
X40625000Y-57549000D01*
X115484300Y-44833000D02*
X116121300Y-45470000D01*
X90715700Y-44833000D02*
X115484300Y-44833000D01*
X84302000Y-51246700D02*
X90715700Y-44833000D01*
X72336400Y-51246700D02*
X84302000Y-51246700D01*
X69876800Y-53706300D02*
X72336400Y-51246700D01*
X69163900Y-53706300D02*
X69876800Y-53706300D01*
X67825600Y-52368000D02*
X69163900Y-53706300D01*
X67825600Y-52228500D02*
X67825600Y-52368000D01*
X66970400Y-51373300D02*
X67825600Y-52228500D01*
X55427000Y-51373300D02*
X66970400Y-51373300D01*
X54411000Y-52389300D02*
X55427000Y-51373300D01*
X42724300Y-52389300D02*
X54411000Y-52389300D01*
X41974700Y-53138900D02*
X42724300Y-52389300D01*
X41974700Y-54101300D02*
X41974700Y-53138900D01*
X41226400Y-54849600D02*
X41974700Y-54101300D01*
X40277800Y-54849600D02*
X41226400Y-54849600D01*
X39434700Y-55692700D02*
X40277800Y-54849600D01*
X39434700Y-56730800D02*
X39434700Y-55692700D01*
X40252900Y-57549000D02*
X39434700Y-56730800D01*
X40625000Y-57549000D02*
X40252900Y-57549000D01*
X119269000Y-75503300D02*
X116729000Y-75503300D01*
X43165000Y-61279300D02*
X44355300Y-61279300D01*
X54319100Y-61279300D02*
X56500000Y-59098400D01*
X44355300Y-61279300D02*
X54319100Y-61279300D01*
X113392300Y-50900000D02*
X113500000Y-50900000D01*
X109109000Y-55183300D02*
X113392300Y-50900000D01*
X83546400Y-50028200D02*
X86345000Y-47229600D01*
X71298300Y-50028200D02*
X83546400Y-50028200D01*
X69583100Y-51743400D02*
X71298300Y-50028200D01*
X86345000Y-46039300D02*
X86345000Y-47229600D01*
X44454000Y-86778000D02*
X44355300Y-86679300D01*
X55732900Y-86778000D02*
X44454000Y-86778000D01*
X43165000Y-86679300D02*
X44355300Y-86679300D01*
X82380000Y-78150000D02*
X82380000Y-76728300D01*
X82374300Y-76722600D02*
X82380000Y-76728300D01*
X71078500Y-76722600D02*
X82374300Y-76722600D01*
X68186100Y-79615000D02*
X71078500Y-76722600D01*
X60981200Y-79615000D02*
X68186100Y-79615000D01*
X66025000Y-94299300D02*
X67215300Y-94299300D01*
X71167800Y-89974700D02*
X73556500Y-89974700D01*
X67215300Y-93927200D02*
X71167800Y-89974700D01*
X67215300Y-94299300D02*
X67215300Y-93927200D01*
X73556500Y-89974700D02*
X73742100Y-89789100D01*
X73556500Y-89974700D02*
X73742100Y-89789100D01*
X113875200Y-83124800D02*
X117000000Y-80000000D01*
X97901400Y-83124800D02*
X113875200Y-83124800D01*
X91237100Y-89789100D02*
X97901400Y-83124800D01*
X73742100Y-89789100D02*
X91237100Y-89789100D01*
X68565000Y-94299300D02*
X69755300Y-94299300D01*
X105815900Y-84250000D02*
X118250000Y-84250000D01*
X96956900Y-93109000D02*
X105815900Y-84250000D01*
X70945600Y-93109000D02*
X96956900Y-93109000D01*
X69755300Y-94299300D02*
X70945600Y-93109000D01*
X40625000Y-56199300D02*
X41815300Y-56199300D01*
X54755100Y-54428000D02*
X54569500Y-54613600D01*
X54755100Y-54428000D02*
X54569500Y-54613600D01*
X41815300Y-55827200D02*
X41815300Y-56199300D01*
X42633500Y-55009000D02*
X41815300Y-55827200D01*
X54174100Y-55009000D02*
X42633500Y-55009000D01*
X54569500Y-54613600D02*
X54174100Y-55009000D01*
X87329000Y-54298100D02*
X87463700Y-54163400D01*
X87329000Y-54298100D02*
X87463700Y-54163400D01*
X105338000Y-54163400D02*
X87463700Y-54163400D01*
X107987700Y-56813100D02*
X105338000Y-54163400D01*
X115099200Y-56813100D02*
X107987700Y-56813100D01*
X116729000Y-55183300D02*
X115099200Y-56813100D01*
X87194300Y-54163400D02*
X87329000Y-54298100D01*
X71726700Y-54163400D02*
X87194300Y-54163400D01*
X71545000Y-54345100D02*
X71726700Y-54163400D01*
X71545000Y-54345100D02*
X71726700Y-54163400D01*
X71280400Y-54609700D02*
X71545000Y-54345100D01*
X71116400Y-54609700D02*
X71280400Y-54609700D01*
X70929300Y-54796800D02*
X71116400Y-54609700D01*
X70929300Y-54796800D02*
X71116400Y-54609700D01*
X70664700Y-55061400D02*
X70929300Y-54796800D01*
X68602600Y-55061400D02*
X70664700Y-55061400D01*
X67704600Y-54163400D02*
X68602600Y-55061400D01*
X55019700Y-54163400D02*
X67704600Y-54163400D01*
X54755100Y-54428000D02*
X55019700Y-54163400D01*
X108630000Y-48010000D02*
X107890000Y-48750000D01*
X117298000Y-48010000D02*
X108630000Y-48010000D01*
X107626300Y-48750000D02*
X107890000Y-48750000D01*
X105315300Y-46439000D02*
X107626300Y-48750000D01*
X105315300Y-46039300D02*
X105315300Y-46439000D01*
X104125000Y-46039300D02*
X105315300Y-46039300D01*
X71758200Y-87500000D02*
X72260000Y-87500000D01*
X68167600Y-83909400D02*
X71758200Y-87500000D01*
X57999100Y-83909400D02*
X68167600Y-83909400D01*
X56416600Y-85491900D02*
X57999100Y-83909400D01*
X53847800Y-56199300D02*
X43165000Y-56199300D01*
X55375700Y-54671400D02*
X53847800Y-56199300D01*
X56976200Y-54671400D02*
X55375700Y-54671400D01*
X57770100Y-55465300D02*
X56976200Y-54671400D01*
X57770100Y-56126700D02*
X57770100Y-55465300D01*
X60607300Y-58963900D02*
X57770100Y-56126700D01*
X82186800Y-58963900D02*
X60607300Y-58963900D01*
X88607100Y-65384200D02*
X82186800Y-58963900D01*
X89299000Y-65384200D02*
X88607100Y-65384200D01*
X89300500Y-65385700D02*
X89299000Y-65384200D01*
X98991400Y-65385700D02*
X89300500Y-65385700D01*
X109109000Y-75503300D02*
X98991400Y-65385700D01*
X40625000Y-71439300D02*
X41815300Y-71439300D01*
X73875500Y-88921700D02*
X74800000Y-88921700D01*
X73414600Y-89382600D02*
X73875500Y-88921700D01*
X70171800Y-89382600D02*
X73414600Y-89382600D01*
X69561900Y-88772700D02*
X70171800Y-89382600D01*
X57876900Y-88772700D02*
X69561900Y-88772700D01*
X74800000Y-87500000D02*
X74800000Y-88921700D01*
X41815300Y-71811400D02*
X41815300Y-71439300D01*
X42633500Y-72629600D02*
X41815300Y-71811400D01*
X47016700Y-72629600D02*
X42633500Y-72629600D01*
X56500000Y-82112900D02*
X47016700Y-72629600D01*
X56500000Y-82192700D02*
X56500000Y-82112900D01*
X47467400Y-67799300D02*
X46828500Y-67799300D01*
X53469100Y-73801000D02*
X47467400Y-67799300D01*
X60127300Y-73801000D02*
X53469100Y-73801000D01*
X61149600Y-74823300D02*
X60127300Y-73801000D01*
X91035500Y-74823300D02*
X61149600Y-74823300D01*
X92949900Y-76737700D02*
X91035500Y-74823300D01*
X110414600Y-76737700D02*
X92949900Y-76737700D01*
X111649000Y-75503300D02*
X110414600Y-76737700D01*
X54719100Y-88029000D02*
X55121300Y-87626800D01*
X42633500Y-88029000D02*
X54719100Y-88029000D01*
X41815300Y-88847200D02*
X42633500Y-88029000D01*
X41815300Y-89219300D02*
X41815300Y-88847200D01*
X78643300Y-78748300D02*
X78643300Y-78150000D01*
X76488300Y-80903300D02*
X78643300Y-78748300D01*
X63586600Y-80903300D02*
X76488300Y-80903300D01*
X79840000Y-78150000D02*
X78643300Y-78150000D01*
X40625000Y-89219300D02*
X41815300Y-89219300D01*
X43165000Y-66359300D02*
X44355300Y-66359300D01*
X47412900Y-66359300D02*
X44355300Y-66359300D01*
X53348700Y-72295100D02*
X47412900Y-66359300D01*
X56500000Y-72295100D02*
X53348700Y-72295100D01*
X63869500Y-73852700D02*
X81075200Y-73852700D01*
X61142600Y-71125800D02*
X63869500Y-73852700D01*
X57669300Y-71125800D02*
X61142600Y-71125800D01*
X56500000Y-72295100D02*
X57669300Y-71125800D01*
X43165000Y-53659300D02*
X44355300Y-53659300D01*
X113010900Y-56361400D02*
X114189000Y-55183300D01*
X108400000Y-56361400D02*
X113010900Y-56361400D01*
X105744900Y-53706300D02*
X108400000Y-56361400D01*
X71381000Y-53706300D02*
X105744900Y-53706300D01*
X70929300Y-54158000D02*
X71381000Y-53706300D01*
X70742200Y-54345100D02*
X70929300Y-54158000D01*
X70742200Y-54345100D02*
X70929300Y-54158000D01*
X70477600Y-54609700D02*
X70742200Y-54345100D01*
X68789700Y-54609700D02*
X70477600Y-54609700D01*
X67839300Y-53659300D02*
X68789700Y-54609700D01*
X44355300Y-53659300D02*
X67839300Y-53659300D01*
X99045000Y-46039300D02*
X100235300Y-46039300D01*
X63259200Y-55799200D02*
X64460000Y-57000000D01*
X59040000Y-55799200D02*
X63259200Y-55799200D01*
X53959200Y-90489300D02*
X58956600Y-85491900D01*
X42731900Y-90489300D02*
X53959200Y-90489300D01*
X41947300Y-91273900D02*
X42731900Y-90489300D01*
X41947300Y-94299300D02*
X41947300Y-91273900D01*
X43165000Y-94299300D02*
X41947300Y-94299300D01*
X41947300Y-94299300D02*
X40625000Y-94299300D01*
X102607000Y-48750000D02*
X100235300Y-46378300D01*
X105350000Y-48750000D02*
X102607000Y-48750000D01*
X100235300Y-46039300D02*
X100235300Y-46378300D01*
X43165000Y-94299300D02*
X44355300Y-94299300D01*
X93708800Y-52904800D02*
X100235300Y-46378300D01*
X71356600Y-52904800D02*
X93708800Y-52904800D01*
X70103400Y-54158000D02*
X71356600Y-52904800D01*
X68976800Y-54158000D02*
X70103400Y-54158000D01*
X67318800Y-52500000D02*
X68976800Y-54158000D01*
X59040000Y-52500000D02*
X67318800Y-52500000D01*
X45545600Y-95489600D02*
X44355300Y-94299300D01*
X70182200Y-95489600D02*
X45545600Y-95489600D01*
X70182200Y-95489500D02*
X70182200Y-95489600D01*
X70772200Y-94899500D02*
X70182200Y-95489500D01*
X71291300Y-94899500D02*
X70772200Y-94899500D01*
X71881400Y-95489600D02*
X71291300Y-94899500D01*
X121970400Y-95489600D02*
X71881400Y-95489600D01*
X122171600Y-95288400D02*
X121970400Y-95489600D01*
X59040000Y-65372100D02*
X59040000Y-65696800D01*
X57715100Y-64047200D02*
X59040000Y-65372100D01*
X54622500Y-63819300D02*
X43165000Y-63819300D01*
X56500000Y-65696800D02*
X54622500Y-63819300D01*
X86303300Y-86901700D02*
X86303300Y-87500000D01*
X83835500Y-84433900D02*
X86303300Y-86901700D01*
X69578300Y-84433900D02*
X83835500Y-84433900D01*
X68955900Y-83811500D02*
X69578300Y-84433900D01*
X87500000Y-87500000D02*
X86303300Y-87500000D01*
X52621000Y-74252700D02*
X51882700Y-73514400D01*
X59715000Y-74252700D02*
X52621000Y-74252700D01*
X60737300Y-75275000D02*
X59715000Y-74252700D01*
X90623200Y-75275000D02*
X60737300Y-75275000D01*
X92837500Y-77489300D02*
X90623200Y-75275000D01*
X108793300Y-77489300D02*
X92837500Y-77489300D01*
X118395000Y-78855000D02*
X119540000Y-80000000D01*
X112645000Y-78855000D02*
X118395000Y-78855000D01*
X111000000Y-80500000D02*
X112645000Y-78855000D01*
X123790000Y-84960000D02*
X124750000Y-84960000D01*
X119000000Y-89750000D02*
X123790000Y-84960000D01*
X93980000Y-41046400D02*
X96520000Y-41046400D01*
X40625000Y-51119300D02*
X43165000Y-51119300D01*
X93965000Y-46039300D02*
X96505000Y-46039300D01*
X113040000Y-90500000D02*
X114266700Y-90500000D01*
X121540000Y-89750000D02*
X120313300Y-89750000D01*
X114743400Y-90976700D02*
X120313300Y-90976700D01*
X114266700Y-90500000D02*
X114743400Y-90976700D01*
X120313300Y-90976700D02*
X120313300Y-89750000D01*
X120551600Y-90976700D02*
X120313300Y-90976700D01*
X125813300Y-96238400D02*
X120551600Y-90976700D01*
X125813300Y-96750000D02*
X125813300Y-96238400D01*
X127040000Y-96750000D02*
X125813300Y-96750000D01*
X78265000Y-57020000D02*
X79461700Y-57020000D01*
X89037500Y-61212500D02*
X89037500Y-57826700D01*
X91460000Y-57826700D02*
X89037500Y-57826700D01*
X43165000Y-51119300D02*
X44355300Y-51119300D01*
X119269000Y-55183300D02*
X121809000Y-55183300D01*
X91460000Y-57826700D02*
X91460000Y-56500000D01*
X116625600Y-57826700D02*
X91460000Y-57826700D01*
X119269000Y-55183300D02*
X116625600Y-57826700D01*
X79461700Y-57826700D02*
X79461700Y-57020000D01*
X89037500Y-57826700D02*
X79461700Y-57826700D01*
X72224500Y-58487800D02*
X70736700Y-57000000D01*
X77238500Y-58487800D02*
X72224500Y-58487800D01*
X77510400Y-58215900D02*
X77238500Y-58487800D01*
X77807400Y-58215900D02*
X77510400Y-58215900D01*
X78196600Y-57826700D02*
X77807400Y-58215900D01*
X79461700Y-57826700D02*
X78196600Y-57826700D01*
X69540000Y-57000000D02*
X70736700Y-57000000D01*
X55014700Y-50921600D02*
X54750100Y-51186200D01*
X67295000Y-50921600D02*
X55014700Y-50921600D01*
X69453000Y-53079600D02*
X67295000Y-50921600D01*
X54750100Y-51186200D02*
X54564500Y-51371800D01*
X54750100Y-51186200D02*
X54564500Y-51371800D01*
X44607800Y-51371800D02*
X44355300Y-51119300D01*
X54564500Y-51371800D02*
X44607800Y-51371800D01*
M02*
