  0
SECTION
  2
HEADER
  9
$ANGBASE
  50
0.0
  9
$ANGDIR
  70
1
  9
$MEASUREMENT
  70
1
  0
ENDSEC
  0
SECTION
  2
TABLES
  0
TABLE
  2
LTYPE
  70
4
  0
LTYPE
  5
40F
  2
CONTINUOUS
  70
0
  3
Solid line
  72
65
  73
0
  40
0.0
  0
LTYPE
  5
410
  2
DASHDOT
 70
0
  3
Dash Dot ____ _ ____ _
 72
65
 73
4
 40
2.0
 49
1.25
 49
-0.25
 49
0.25
 49
-0.25
  0
LTYPE
  5
411
  2
DASHED
 70
0
  3
Dashed __ __ __ __ __
 72
65
 73
2
 40
0.75
 49
0.5
 49
-0.25
  0
LTYPE
  5
43B
  2
DOTTED
 70
0
  3
Dotted .  .  .  .
 72
65
 73
2
 40
0.2
 49
0.0
 49
-0.2
  0
ENDTAB
  0
TABLE
  2
STYLE
  70
4
  0
STYLE
  2
KICAD
  70
0
  40
0
  41
1
  42
1
  50
0
  71
0
  3
isocp.shx
  0
STYLE
  2
KICADB
  70
0
  40
0
  41
1
  42
1
  50
0
  71
0
  3
isocp.shx
  0
STYLE
  2
KICADI
  70
0
  40
0
  41
1
  42
1
  50
15
  71
0
  3
isocp.shx
  0
STYLE
  2
KICADBI
  70
0
  40
0
  41
1
  42
1
  50
15
  71
0
  3
isocp.shx
  0
ENDTAB
  0
TABLE
  2
LAYER
  70
1
  0
LAYER
  2
BLACK
  70
0
  62
7
  6
CONTINUOUS
  0
ENDTAB
  0
ENDSEC
  0
SECTION
  2
ENTITIES
0
CIRCLE
8
BLACK
10
140.072
20
-174.46
40
0.175
0
CIRCLE
8
BLACK
10
134.992
20
-174.46
40
0.175
0
CIRCLE
8
BLACK
10
150.002
20
-166.51
40
0.175
0
CIRCLE
8
BLACK
10
147.462
20
-166.51
40
0.175
0
CIRCLE
8
BLACK
10
48.082
20
-167.03
40
0.175
0
CIRCLE
8
BLACK
10
45.542
20
-167.03
40
0.175
0
CIRCLE
8
BLACK
10
24.892
20
-91.44
40
0.175
0
CIRCLE
8
BLACK
10
22.352
20
-91.44
40
0.175
0
CIRCLE
8
BLACK
10
78.232
20
-22.86
40
0.175
0
CIRCLE
8
BLACK
10
78.232
20
-20.32
40
0.175
0
CIRCLE
8
BLACK
10
123.952
20
-12.7
40
0.175
0
CIRCLE
8
BLACK
10
121.412
20
-12.7
40
0.175
0
CIRCLE
8
BLACK
10
118.872
20
-12.7
40
0.175
0
CIRCLE
8
BLACK
10
116.332
20
-12.7
40
0.175
0
CIRCLE
8
BLACK
10
76.962
20
-11.43
40
0.175
0
CIRCLE
8
BLACK
10
74.422
20
-11.43
40
0.175
0
CIRCLE
8
BLACK
10
71.882
20
-11.43
40
0.175
0
CIRCLE
8
BLACK
10
69.342
20
-11.43
40
0.175
0
CIRCLE
8
BLACK
10
66.802
20
-11.43
40
0.175
0
CIRCLE
8
BLACK
10
123.952
20
-24.13
40
0.175
0
CIRCLE
8
BLACK
10
116.332
20
-24.13
40
0.175
0
CIRCLE
8
BLACK
10
62.992
20
-22.86
40
0.175
0
CIRCLE
8
BLACK
10
62.992
20
-20.32
40
0.175
0
CIRCLE
8
BLACK
10
76.962
20
-15.24
40
0.175
0
CIRCLE
8
BLACK
10
74.422
20
-15.24
40
0.175
0
CIRCLE
8
BLACK
10
71.882
20
-15.24
40
0.175
0
CIRCLE
8
BLACK
10
69.342
20
-15.24
40
0.175
0
CIRCLE
8
BLACK
10
66.802
20
-15.24
40
0.175
0
CIRCLE
8
BLACK
10
123.952
20
-17.78
40
0.175
0
CIRCLE
8
BLACK
10
121.412
20
-17.78
40
0.175
0
CIRCLE
8
BLACK
10
118.872
20
-17.78
40
0.175
0
CIRCLE
8
BLACK
10
116.332
20
-17.78
40
0.175
0
CIRCLE
8
BLACK
10
27.432
20
-154.94
40
0.175
0
CIRCLE
8
BLACK
10
24.892
20
-154.94
40
0.175
0
CIRCLE
8
BLACK
10
22.352
20
-154.94
40
0.175
0
CIRCLE
8
BLACK
10
169.672
20
-153.67
40
0.175
0
CIRCLE
8
BLACK
10
167.132
20
-153.67
40
0.175
0
CIRCLE
8
BLACK
10
164.592
20
-153.67
40
0.175
0
CIRCLE
8
BLACK
10
64.262
20
-34.29
40
0.175
0
CIRCLE
8
BLACK
10
64.262
20
-26.67
40
0.175
0
CIRCLE
8
BLACK
10
69.342
20
-34.29
40
0.175
0
CIRCLE
8
BLACK
10
69.342
20
-26.67
40
0.175
0
CIRCLE
8
BLACK
10
103.632
20
-34.29
40
0.175
0
CIRCLE
8
BLACK
10
103.632
20
-26.67
40
0.175
0
CIRCLE
8
BLACK
10
108.712
20
-34.29
40
0.175
0
CIRCLE
8
BLACK
10
108.712
20
-26.67
40
0.175
0
CIRCLE
8
BLACK
10
127.762
20
-34.29
40
0.175
0
CIRCLE
8
BLACK
10
127.762
20
-26.67
40
0.175
0
CIRCLE
8
BLACK
10
170.942
20
-71.12
40
0.175
0
CIRCLE
8
BLACK
10
163.322
20
-71.12
40
0.175
0
CIRCLE
8
BLACK
10
169.672
20
-90.17
40
0.175
0
CIRCLE
8
BLACK
10
162.052
20
-90.17
40
0.175
0
CIRCLE
8
BLACK
10
173.482
20
-106.68
40
0.175
0
CIRCLE
8
BLACK
10
173.482
20
-99.06
40
0.175
0
CIRCLE
8
BLACK
10
169.672
20
-132.08
40
0.175
0
CIRCLE
8
BLACK
10
162.052
20
-132.08
40
0.175
0
CIRCLE
8
BLACK
10
169.672
20
-137.16
40
0.175
0
CIRCLE
8
BLACK
10
162.052
20
-137.16
40
0.175
0
CIRCLE
8
BLACK
10
62.992
20
-172.72
40
0.175
0
CIRCLE
8
BLACK
10
62.992
20
-165.1
40
0.175
0
CIRCLE
8
BLACK
10
129.032
20
-172.72
40
0.175
0
CIRCLE
8
BLACK
10
129.032
20
-165.1
40
0.175
0
CIRCLE
8
BLACK
10
108.712
20
-172.72
40
0.175
0
CIRCLE
8
BLACK
10
108.712
20
-165.1
40
0.175
0
CIRCLE
8
BLACK
10
88.392
20
-172.72
40
0.175
0
CIRCLE
8
BLACK
10
88.392
20
-165.1
40
0.175
0
CIRCLE
8
BLACK
10
83.312
20
-172.72
40
0.175
0
CIRCLE
8
BLACK
10
83.312
20
-165.1
40
0.175
0
CIRCLE
8
BLACK
10
29.972
20
-71.12
40
0.175
0
CIRCLE
8
BLACK
10
22.352
20
-71.12
40
0.175
0
CIRCLE
8
BLACK
10
29.972
20
-137.16
40
0.175
0
CIRCLE
8
BLACK
10
22.352
20
-137.16
40
0.175
0
CIRCLE
8
BLACK
10
19.812
20
-128.27
40
0.175
0
CIRCLE
8
BLACK
10
19.812
20
-120.65
40
0.175
0
CIRCLE
8
BLACK
10
29.972
20
-96.52
40
0.175
0
CIRCLE
8
BLACK
10
22.352
20
-96.52
40
0.175
0
CIRCLE
8
BLACK
10
153.162
20
-171.45
40
0.175
0
CIRCLE
8
BLACK
10
148.082
20
-171.45
40
0.175
0
CIRCLE
8
BLACK
10
73.152
20
-22.86
40
0.175
0
CIRCLE
8
BLACK
10
68.072
20
-22.86
40
0.175
0
CIRCLE
8
BLACK
10
129.032
20
-22.86
40
0.175
0
CIRCLE
8
BLACK
10
134.112
20
-22.86
40
0.175
0
CIRCLE
8
BLACK
10
168.402
20
-95.25
40
0.175
0
CIRCLE
8
BLACK
10
163.322
20
-95.25
40
0.175
0
CIRCLE
8
BLACK
10
47.032
20
-173.55
40
0.175
0
CIRCLE
8
BLACK
10
41.952
20
-173.55
40
0.175
0
CIRCLE
8
BLACK
10
28.702
20
-133.35
40
0.175
0
CIRCLE
8
BLACK
10
23.622
20
-133.35
40
0.175
0
CIRCLE
8
BLACK
10
28.702
20
-54.61
40
0.175
0
CIRCLE
8
BLACK
10
23.622
20
-54.61
40
0.175
0
CIRCLE
8
BLACK
10
76.042
20
-27.411
40
0.175
0
CIRCLE
8
BLACK
10
76.042
20
-33.761
40
0.175
0
CIRCLE
8
BLACK
10
72.867
20
-28.681
40
0.175
0
CIRCLE
8
BLACK
10
79.217
20
-28.681
40
0.175
0
CIRCLE
8
BLACK
10
72.867
20
-33.126
40
0.175
0
CIRCLE
8
BLACK
10
79.217
20
-33.126
40
0.175
0
CIRCLE
8
BLACK
10
96.362
20
-27.411
40
0.175
0
CIRCLE
8
BLACK
10
96.362
20
-33.761
40
0.175
0
CIRCLE
8
BLACK
10
93.187
20
-28.681
40
0.175
0
CIRCLE
8
BLACK
10
99.537
20
-28.681
40
0.175
0
CIRCLE
8
BLACK
10
93.187
20
-33.126
40
0.175
0
CIRCLE
8
BLACK
10
99.537
20
-33.126
40
0.175
0
CIRCLE
8
BLACK
10
116.682
20
-27.411
40
0.175
0
CIRCLE
8
BLACK
10
116.682
20
-33.761
40
0.175
0
CIRCLE
8
BLACK
10
113.507
20
-28.681
40
0.175
0
CIRCLE
8
BLACK
10
119.857
20
-28.681
40
0.175
0
CIRCLE
8
BLACK
10
113.507
20
-33.126
40
0.175
0
CIRCLE
8
BLACK
10
119.857
20
-33.126
40
0.175
0
CIRCLE
8
BLACK
10
137.002
20
-27.411
40
0.175
0
CIRCLE
8
BLACK
10
137.002
20
-33.761
40
0.175
0
CIRCLE
8
BLACK
10
133.827
20
-28.681
40
0.175
0
CIRCLE
8
BLACK
10
140.177
20
-28.681
40
0.175
0
CIRCLE
8
BLACK
10
133.827
20
-33.126
40
0.175
0
CIRCLE
8
BLACK
10
140.177
20
-33.126
40
0.175
0
CIRCLE
8
BLACK
10
163.333
20
-62.99
40
0.175
0
CIRCLE
8
BLACK
10
169.683
20
-62.99
40
0.175
0
CIRCLE
8
BLACK
10
164.603
20
-66.165
40
0.175
0
CIRCLE
8
BLACK
10
164.603
20
-59.815
40
0.175
0
CIRCLE
8
BLACK
10
169.048
20
-66.165
40
0.175
0
CIRCLE
8
BLACK
10
169.048
20
-59.815
40
0.175
0
CIRCLE
8
BLACK
10
163.333
20
-83.31
40
0.175
0
CIRCLE
8
BLACK
10
169.683
20
-83.31
40
0.175
0
CIRCLE
8
BLACK
10
164.603
20
-86.485
40
0.175
0
CIRCLE
8
BLACK
10
164.603
20
-80.135
40
0.175
0
CIRCLE
8
BLACK
10
169.048
20
-86.485
40
0.175
0
CIRCLE
8
BLACK
10
169.048
20
-80.135
40
0.175
0
CIRCLE
8
BLACK
10
163.333
20
-103.63
40
0.175
0
CIRCLE
8
BLACK
10
169.683
20
-103.63
40
0.175
0
CIRCLE
8
BLACK
10
164.603
20
-106.805
40
0.175
0
CIRCLE
8
BLACK
10
164.603
20
-100.455
40
0.175
0
CIRCLE
8
BLACK
10
169.048
20
-106.805
40
0.175
0
CIRCLE
8
BLACK
10
169.048
20
-100.455
40
0.175
0
CIRCLE
8
BLACK
10
170.191
20
-123.95
40
0.175
0
CIRCLE
8
BLACK
10
163.841
20
-123.95
40
0.175
0
CIRCLE
8
BLACK
10
168.921
20
-120.775
40
0.175
0
CIRCLE
8
BLACK
10
168.921
20
-127.125
40
0.175
0
CIRCLE
8
BLACK
10
164.476
20
-120.775
40
0.175
0
CIRCLE
8
BLACK
10
164.476
20
-127.125
40
0.175
0
CIRCLE
8
BLACK
10
163.333
20
-144.27
40
0.175
0
CIRCLE
8
BLACK
10
169.683
20
-144.27
40
0.175
0
CIRCLE
8
BLACK
10
164.603
20
-147.445
40
0.175
0
CIRCLE
8
BLACK
10
164.603
20
-141.095
40
0.175
0
CIRCLE
8
BLACK
10
169.048
20
-147.445
40
0.175
0
CIRCLE
8
BLACK
10
169.048
20
-141.095
40
0.175
0
CIRCLE
8
BLACK
10
137.002
20
-164.741
40
0.175
0
CIRCLE
8
BLACK
10
137.002
20
-171.091
40
0.175
0
CIRCLE
8
BLACK
10
133.827
20
-166.011
40
0.175
0
CIRCLE
8
BLACK
10
140.177
20
-166.011
40
0.175
0
CIRCLE
8
BLACK
10
133.827
20
-170.456
40
0.175
0
CIRCLE
8
BLACK
10
140.177
20
-170.456
40
0.175
0
CIRCLE
8
BLACK
10
116.682
20
-164.741
40
0.175
0
CIRCLE
8
BLACK
10
116.682
20
-171.091
40
0.175
0
CIRCLE
8
BLACK
10
113.507
20
-166.011
40
0.175
0
CIRCLE
8
BLACK
10
119.857
20
-166.011
40
0.175
0
CIRCLE
8
BLACK
10
113.507
20
-170.456
40
0.175
0
CIRCLE
8
BLACK
10
119.857
20
-170.456
40
0.175
0
CIRCLE
8
BLACK
10
96.362
20
-164.741
40
0.175
0
CIRCLE
8
BLACK
10
96.362
20
-171.091
40
0.175
0
CIRCLE
8
BLACK
10
93.187
20
-166.011
40
0.175
0
CIRCLE
8
BLACK
10
99.537
20
-166.011
40
0.175
0
CIRCLE
8
BLACK
10
93.187
20
-170.456
40
0.175
0
CIRCLE
8
BLACK
10
99.537
20
-170.456
40
0.175
0
CIRCLE
8
BLACK
10
76.042
20
-164.741
40
0.175
0
CIRCLE
8
BLACK
10
76.042
20
-171.091
40
0.175
0
CIRCLE
8
BLACK
10
72.867
20
-166.011
40
0.175
0
CIRCLE
8
BLACK
10
79.217
20
-166.011
40
0.175
0
CIRCLE
8
BLACK
10
72.867
20
-170.456
40
0.175
0
CIRCLE
8
BLACK
10
79.217
20
-170.456
40
0.175
0
CIRCLE
8
BLACK
10
55.722
20
-164.741
40
0.175
0
CIRCLE
8
BLACK
10
55.722
20
-171.091
40
0.175
0
CIRCLE
8
BLACK
10
52.547
20
-166.011
40
0.175
0
CIRCLE
8
BLACK
10
58.897
20
-166.011
40
0.175
0
CIRCLE
8
BLACK
10
52.547
20
-170.456
40
0.175
0
CIRCLE
8
BLACK
10
58.897
20
-170.456
40
0.175
0
CIRCLE
8
BLACK
10
22.523
20
-144.27
40
0.175
0
CIRCLE
8
BLACK
10
28.873
20
-144.27
40
0.175
0
CIRCLE
8
BLACK
10
23.793
20
-147.445
40
0.175
0
CIRCLE
8
BLACK
10
23.793
20
-141.095
40
0.175
0
CIRCLE
8
BLACK
10
28.238
20
-147.445
40
0.175
0
CIRCLE
8
BLACK
10
28.238
20
-141.095
40
0.175
0
CIRCLE
8
BLACK
10
22.523
20
-123.95
40
0.175
0
CIRCLE
8
BLACK
10
28.873
20
-123.95
40
0.175
0
CIRCLE
8
BLACK
10
23.793
20
-127.125
40
0.175
0
CIRCLE
8
BLACK
10
23.793
20
-120.775
40
0.175
0
CIRCLE
8
BLACK
10
28.238
20
-127.125
40
0.175
0
CIRCLE
8
BLACK
10
28.238
20
-120.775
40
0.175
0
CIRCLE
8
BLACK
10
22.523
20
-103.63
40
0.175
0
CIRCLE
8
BLACK
10
28.873
20
-103.63
40
0.175
0
CIRCLE
8
BLACK
10
23.793
20
-106.805
40
0.175
0
CIRCLE
8
BLACK
10
23.793
20
-100.455
40
0.175
0
CIRCLE
8
BLACK
10
28.238
20
-106.805
40
0.175
0
CIRCLE
8
BLACK
10
28.238
20
-100.455
40
0.175
0
CIRCLE
8
BLACK
10
22.523
20
-83.31
40
0.175
0
CIRCLE
8
BLACK
10
28.873
20
-83.31
40
0.175
0
CIRCLE
8
BLACK
10
23.793
20
-86.485
40
0.175
0
CIRCLE
8
BLACK
10
23.793
20
-80.135
40
0.175
0
CIRCLE
8
BLACK
10
28.238
20
-86.485
40
0.175
0
CIRCLE
8
BLACK
10
28.238
20
-80.135
40
0.175
0
CIRCLE
8
BLACK
10
22.523
20
-62.99
40
0.175
0
CIRCLE
8
BLACK
10
28.873
20
-62.99
40
0.175
0
CIRCLE
8
BLACK
10
23.793
20
-66.165
40
0.175
0
CIRCLE
8
BLACK
10
23.793
20
-59.815
40
0.175
0
CIRCLE
8
BLACK
10
28.238
20
-66.165
40
0.175
0
CIRCLE
8
BLACK
10
28.238
20
-59.815
40
0.175
0
CIRCLE
8
BLACK
10
55.722
20
-27.411
40
0.175
0
CIRCLE
8
BLACK
10
55.722
20
-33.761
40
0.175
0
CIRCLE
8
BLACK
10
52.547
20
-28.681
40
0.175
0
CIRCLE
8
BLACK
10
58.897
20
-28.681
40
0.175
0
CIRCLE
8
BLACK
10
52.547
20
-33.126
40
0.175
0
CIRCLE
8
BLACK
10
58.897
20
-33.126
40
0.175
0
LINE
8
BLACK
6
CONTINUOUS
10
126.574
20
-9.0543
11
126.583
21
-9.05618
0
LINE
8
BLACK
6
CONTINUOUS
10
126.583
20
-9.05618
11
126.592
21
-9.05794
0
LINE
8
BLACK
6
CONTINUOUS
10
126.592
20
-9.05794
11
126.687
21
-9.0866
0
LINE
8
BLACK
6
CONTINUOUS
10
126.687
20
-9.0866
11
126.688
21
-9.08701
0
LINE
8
BLACK
6
CONTINUOUS
10
126.688
20
-9.08701
11
126.697
21
-9.09058
0
LINE
8
BLACK
6
CONTINUOUS
10
126.697
20
-9.09058
11
126.705
21
-9.09404
0
LINE
8
BLACK
6
CONTINUOUS
10
126.705
20
-9.09404
11
126.792
21
-9.14058
0
LINE
8
BLACK
6
CONTINUOUS
10
126.792
20
-9.14058
11
126.794
21
-9.14124
0
LINE
8
BLACK
6
CONTINUOUS
10
126.794
20
-9.14124
11
126.8
21
-9.1455
0
LINE
8
BLACK
6
CONTINUOUS
10
126.8
20
-9.1455
11
126.806
21
-9.14948
0
LINE
8
BLACK
6
CONTINUOUS
10
126.806
20
-9.14948
11
126.859
21
-9.18993
0
LINE
8
BLACK
6
CONTINUOUS
10
126.859
20
-9.18993
11
126.862
21
-9.19187
0
LINE
8
BLACK
6
CONTINUOUS
10
126.862
20
-9.19187
11
175.379
21
-51.7871
0
LINE
8
BLACK
6
CONTINUOUS
10
175.379
20
-51.7871
11
175.382
21
-51.7907
0
LINE
8
BLACK
6
CONTINUOUS
10
175.382
20
-51.7907
11
175.382
21
-51.7907
0
LINE
8
BLACK
6
CONTINUOUS
10
175.382
20
-51.7907
11
175.45
21
-51.8631
0
LINE
8
BLACK
6
CONTINUOUS
10
175.45
20
-51.8631
11
175.451
21
-51.8641
0
LINE
8
BLACK
6
CONTINUOUS
10
175.451
20
-51.8641
11
175.457
21
-51.8713
0
LINE
8
BLACK
6
CONTINUOUS
10
175.457
20
-51.8713
11
175.462
21
-51.8785
0
LINE
8
BLACK
6
CONTINUOUS
10
175.462
20
-51.8785
11
175.514
21
-51.9627
0
LINE
8
BLACK
6
CONTINUOUS
10
175.514
20
-51.9627
11
175.515
21
-51.9639
0
LINE
8
BLACK
6
CONTINUOUS
10
175.515
20
-51.9639
11
175.519
21
-51.9721
0
LINE
8
BLACK
6
CONTINUOUS
10
175.519
20
-51.9721
11
175.523
21
-51.9802
0
LINE
8
BLACK
6
CONTINUOUS
10
175.523
20
-51.9802
11
175.558
21
-52.0729
0
LINE
8
BLACK
6
CONTINUOUS
10
175.558
20
-52.0729
11
175.558
21
-52.0729
0
LINE
8
BLACK
6
CONTINUOUS
10
175.558
20
-52.0729
11
175.558
21
-52.0729
0
LINE
8
BLACK
6
CONTINUOUS
10
175.558
20
-52.0729
11
175.559
21
-52.0742
0
LINE
8
BLACK
6
CONTINUOUS
10
175.559
20
-52.0742
11
175.561
21
-52.083
0
LINE
8
BLACK
6
CONTINUOUS
10
175.561
20
-52.083
11
175.563
21
-52.0918
0
LINE
8
BLACK
6
CONTINUOUS
10
175.563
20
-52.0918
11
175.58
21
-52.1895
0
LINE
8
BLACK
6
CONTINUOUS
10
175.58
20
-52.1895
11
175.58
21
-52.1909
0
LINE
8
BLACK
6
CONTINUOUS
10
175.58
20
-52.1909
11
175.58
21
-52.1968
0
LINE
8
BLACK
6
CONTINUOUS
10
175.58
20
-52.1968
11
175.581
21
-52.2027
0
LINE
8
BLACK
6
CONTINUOUS
10
175.581
20
-52.2027
11
175.582
21
-52.2342
0
LINE
8
BLACK
6
CONTINUOUS
10
175.582
20
-52.2342
11
175.582
21
-52.2359
0
LINE
8
BLACK
6
CONTINUOUS
10
175.582
20
-52.2359
11
175.582
21
-176.027
0
LINE
8
BLACK
6
CONTINUOUS
10
175.582
20
-176.027
11
175.582
21
-176.032
0
LINE
8
BLACK
6
CONTINUOUS
10
175.582
20
-176.032
11
175.582
21
-176.032
0
LINE
8
BLACK
6
CONTINUOUS
10
175.582
20
-176.032
11
175.572
21
-176.13
0
LINE
8
BLACK
6
CONTINUOUS
10
175.572
20
-176.13
11
175.572
21
-176.132
0
LINE
8
BLACK
6
CONTINUOUS
10
175.572
20
-176.132
11
175.57
21
-176.141
0
LINE
8
BLACK
6
CONTINUOUS
10
175.57
20
-176.141
11
175.568
21
-176.15
0
LINE
8
BLACK
6
CONTINUOUS
10
175.568
20
-176.15
11
175.54
21
-176.244
0
LINE
8
BLACK
6
CONTINUOUS
10
175.54
20
-176.244
11
175.539
21
-176.246
0
LINE
8
BLACK
6
CONTINUOUS
10
175.539
20
-176.246
11
175.536
21
-176.254
0
LINE
8
BLACK
6
CONTINUOUS
10
175.536
20
-176.254
11
175.532
21
-176.263
0
LINE
8
BLACK
6
CONTINUOUS
10
175.532
20
-176.263
11
175.486
21
-176.35
0
LINE
8
BLACK
6
CONTINUOUS
10
175.486
20
-176.35
11
175.486
21
-176.35
0
LINE
8
BLACK
6
CONTINUOUS
10
175.486
20
-176.35
11
175.486
21
-176.35
0
LINE
8
BLACK
6
CONTINUOUS
10
175.486
20
-176.35
11
175.485
21
-176.351
0
LINE
8
BLACK
6
CONTINUOUS
10
175.485
20
-176.351
11
175.48
21
-176.359
0
LINE
8
BLACK
6
CONTINUOUS
10
175.48
20
-176.359
11
175.475
21
-176.366
0
LINE
8
BLACK
6
CONTINUOUS
10
175.475
20
-176.366
11
175.412
21
-176.443
0
LINE
8
BLACK
6
CONTINUOUS
10
175.412
20
-176.443
11
175.412
21
-176.443
0
LINE
8
BLACK
6
CONTINUOUS
10
175.412
20
-176.443
11
175.412
21
-176.443
0
LINE
8
BLACK
6
CONTINUOUS
10
175.412
20
-176.443
11
175.411
21
-176.444
0
LINE
8
BLACK
6
CONTINUOUS
10
175.411
20
-176.444
11
175.405
21
-176.451
0
LINE
8
BLACK
6
CONTINUOUS
10
175.405
20
-176.451
11
175.398
21
-176.457
0
LINE
8
BLACK
6
CONTINUOUS
10
175.398
20
-176.457
11
175.322
21
-176.52
0
LINE
8
BLACK
6
CONTINUOUS
10
175.322
20
-176.52
11
175.322
21
-176.52
0
LINE
8
BLACK
6
CONTINUOUS
10
175.322
20
-176.52
11
175.322
21
-176.52
0
LINE
8
BLACK
6
CONTINUOUS
10
175.322
20
-176.52
11
175.321
21
-176.521
0
LINE
8
BLACK
6
CONTINUOUS
10
175.321
20
-176.521
11
175.313
21
-176.526
0
LINE
8
BLACK
6
CONTINUOUS
10
175.313
20
-176.526
11
175.306
21
-176.531
0
LINE
8
BLACK
6
CONTINUOUS
10
175.306
20
-176.531
11
175.219
21
-176.578
0
LINE
8
BLACK
6
CONTINUOUS
10
175.219
20
-176.578
11
175.217
21
-176.579
0
LINE
8
BLACK
6
CONTINUOUS
10
175.217
20
-176.579
11
175.209
21
-176.582
0
LINE
8
BLACK
6
CONTINUOUS
10
175.209
20
-176.582
11
175.201
21
-176.586
0
LINE
8
BLACK
6
CONTINUOUS
10
175.201
20
-176.586
11
175.106
21
-176.615
0
LINE
8
BLACK
6
CONTINUOUS
10
175.106
20
-176.615
11
175.105
21
-176.616
0
LINE
8
BLACK
6
CONTINUOUS
10
175.105
20
-176.616
11
175.096
21
-176.617
0
LINE
8
BLACK
6
CONTINUOUS
10
175.096
20
-176.617
11
175.087
21
-176.619
0
LINE
8
BLACK
6
CONTINUOUS
10
175.087
20
-176.619
11
174.988
21
-176.629
0
LINE
8
BLACK
6
CONTINUOUS
10
174.988
20
-176.629
11
174.987
21
-176.63
0
LINE
8
BLACK
6
CONTINUOUS
10
174.987
20
-176.63
11
174.984
21
-176.63
0
LINE
8
BLACK
6
CONTINUOUS
10
174.984
20
-176.63
11
174.979
21
-176.63
0
LINE
8
BLACK
6
CONTINUOUS
10
174.979
20
-176.63
11
17.8068
21
-176.63
0
LINE
8
BLACK
6
CONTINUOUS
10
17.8068
20
-176.63
11
17.802
21
-176.63
0
LINE
8
BLACK
6
CONTINUOUS
10
17.802
20
-176.63
11
17.802
21
-176.63
0
LINE
8
BLACK
6
CONTINUOUS
10
17.802
20
-176.63
11
17.7033
21
-176.62
0
LINE
8
BLACK
6
CONTINUOUS
10
17.7033
20
-176.62
11
17.7019
21
-176.62
0
LINE
8
BLACK
6
CONTINUOUS
10
17.7019
20
-176.62
11
17.6931
21
-176.618
0
LINE
8
BLACK
6
CONTINUOUS
10
17.6931
20
-176.618
11
17.6842
21
-176.616
0
LINE
8
BLACK
6
CONTINUOUS
10
17.6842
20
-176.616
11
17.5893
21
-176.587
0
LINE
8
BLACK
6
CONTINUOUS
10
17.5893
20
-176.587
11
17.5879
21
-176.587
0
LINE
8
BLACK
6
CONTINUOUS
10
17.5879
20
-176.587
11
17.5796
21
-176.583
0
LINE
8
BLACK
6
CONTINUOUS
10
17.5796
20
-176.583
11
17.5712
21
-176.58
0
LINE
8
BLACK
6
CONTINUOUS
10
17.5712
20
-176.58
11
17.4837
21
-176.533
0
LINE
8
BLACK
6
CONTINUOUS
10
17.4837
20
-176.533
11
17.4837
21
-176.533
0
LINE
8
BLACK
6
CONTINUOUS
10
17.4837
20
-176.533
11
17.4837
21
-176.533
0
LINE
8
BLACK
6
CONTINUOUS
10
17.4837
20
-176.533
11
17.4825
21
-176.533
0
LINE
8
BLACK
6
CONTINUOUS
10
17.4825
20
-176.533
11
17.475
21
-176.528
0
LINE
8
BLACK
6
CONTINUOUS
10
17.475
20
-176.528
11
17.4674
21
-176.523
0
LINE
8
BLACK
6
CONTINUOUS
10
17.4674
20
-176.523
11
17.3906
21
-176.46
0
LINE
8
BLACK
6
CONTINUOUS
10
17.3906
20
-176.46
11
17.3906
21
-176.46
0
LINE
8
BLACK
6
CONTINUOUS
10
17.3906
20
-176.46
11
17.3906
21
-176.46
0
LINE
8
BLACK
6
CONTINUOUS
10
17.3906
20
-176.46
11
17.3895
21
-176.459
0
LINE
8
BLACK
6
CONTINUOUS
10
17.3895
20
-176.459
11
17.3832
21
-176.453
0
LINE
8
BLACK
6
CONTINUOUS
10
17.3832
20
-176.453
11
17.3767
21
-176.446
0
LINE
8
BLACK
6
CONTINUOUS
10
17.3767
20
-176.446
11
17.3136
21
-176.37
0
LINE
8
BLACK
6
CONTINUOUS
10
17.3136
20
-176.37
11
17.3135
21
-176.37
0
LINE
8
BLACK
6
CONTINUOUS
10
17.3135
20
-176.37
11
17.3135
21
-176.37
0
LINE
8
BLACK
6
CONTINUOUS
10
17.3135
20
-176.37
11
17.3127
21
-176.369
0
LINE
8
BLACK
6
CONTINUOUS
10
17.3127
20
-176.369
11
17.3077
21
-176.361
0
LINE
8
BLACK
6
CONTINUOUS
10
17.3077
20
-176.361
11
17.3026
21
-176.354
0
LINE
8
BLACK
6
CONTINUOUS
10
17.3026
20
-176.354
11
17.2555
21
-176.266
0
LINE
8
BLACK
6
CONTINUOUS
10
17.2555
20
-176.266
11
17.2548
21
-176.265
0
LINE
8
BLACK
6
CONTINUOUS
10
17.2548
20
-176.265
11
17.2514
21
-176.257
0
LINE
8
BLACK
6
CONTINUOUS
10
17.2514
20
-176.257
11
17.2479
21
-176.248
0
LINE
8
BLACK
6
CONTINUOUS
10
17.2479
20
-176.248
11
17.2186
21
-176.154
0
LINE
8
BLACK
6
CONTINUOUS
10
17.2186
20
-176.154
11
17.2182
21
-176.152
0
LINE
8
BLACK
6
CONTINUOUS
10
17.2182
20
-176.152
11
17.2165
21
-176.143
0
LINE
8
BLACK
6
CONTINUOUS
10
17.2165
20
-176.143
11
17.2147
21
-176.135
0
LINE
8
BLACK
6
CONTINUOUS
10
17.2147
20
-176.135
11
17.2043
21
-176.036
0
LINE
8
BLACK
6
CONTINUOUS
10
17.2043
20
-176.036
11
17.2042
21
-176.035
0
LINE
8
BLACK
6
CONTINUOUS
10
17.2042
20
-176.035
11
17.2042
21
-176.031
0
LINE
8
BLACK
6
CONTINUOUS
10
17.2042
20
-176.031
11
17.2038
21
-176.027
0
LINE
8
BLACK
6
CONTINUOUS
10
17.2038
20
-176.027
11
17.2037
21
-52.2359
0
LINE
8
BLACK
6
CONTINUOUS
10
17.2037
20
-52.2359
11
17.2042
21
-52.2311
0
LINE
8
BLACK
6
CONTINUOUS
10
17.2042
20
-52.2311
11
17.2042
21
-52.231
0
LINE
8
BLACK
6
CONTINUOUS
10
17.2042
20
-52.231
11
17.2139
21
-52.1324
0
LINE
8
BLACK
6
CONTINUOUS
10
17.2139
20
-52.1324
11
17.214
21
-52.131
0
LINE
8
BLACK
6
CONTINUOUS
10
17.214
20
-52.131
11
17.2159
21
-52.1221
0
LINE
8
BLACK
6
CONTINUOUS
10
17.2159
20
-52.1221
11
17.2177
21
-52.1132
0
LINE
8
BLACK
6
CONTINUOUS
10
17.2177
20
-52.1132
11
17.2463
21
-52.0183
0
LINE
8
BLACK
6
CONTINUOUS
10
17.2463
20
-52.0183
11
17.2468
21
-52.017
0
LINE
8
BLACK
6
CONTINUOUS
10
17.2468
20
-52.017
11
17.2503
21
-52.0086
0
LINE
8
BLACK
6
CONTINUOUS
10
17.2503
20
-52.0086
11
17.2538
21
-52.0003
0
LINE
8
BLACK
6
CONTINUOUS
10
17.2538
20
-52.0003
11
17.3003
21
-51.9127
0
LINE
8
BLACK
6
CONTINUOUS
10
17.3003
20
-51.9127
11
17.3003
21
-51.9127
0
LINE
8
BLACK
6
CONTINUOUS
10
17.3003
20
-51.9127
11
17.3003
21
-51.9127
0
LINE
8
BLACK
6
CONTINUOUS
10
17.3003
20
-51.9127
11
17.301
21
-51.9115
0
LINE
8
BLACK
6
CONTINUOUS
10
17.301
20
-51.9115
11
17.3061
21
-51.904
0
LINE
8
BLACK
6
CONTINUOUS
10
17.3061
20
-51.904
11
17.3111
21
-51.8965
0
LINE
8
BLACK
6
CONTINUOUS
10
17.3111
20
-51.8965
11
17.3738
21
-51.8196
0
LINE
8
BLACK
6
CONTINUOUS
10
17.3738
20
-51.8196
11
17.3747
21
-51.8186
0
LINE
8
BLACK
6
CONTINUOUS
10
17.3747
20
-51.8186
11
17.3789
21
-51.8144
0
LINE
8
BLACK
6
CONTINUOUS
10
17.3789
20
-51.8144
11
17.3828
21
-51.81
0
LINE
8
BLACK
6
CONTINUOUS
10
17.3828
20
-51.81
11
17.4058
21
-51.7884
0
LINE
8
BLACK
6
CONTINUOUS
10
17.4058
20
-51.7884
11
17.4069
21
-51.7871
0
LINE
8
BLACK
6
CONTINUOUS
10
17.4069
20
-51.7871
11
65.9241
21
-9.19187
0
LINE
8
BLACK
6
CONTINUOUS
10
65.9241
20
-9.19187
11
65.9281
21
-9.18903
0
LINE
8
BLACK
6
CONTINUOUS
10
65.9281
20
-9.18903
11
65.9281
21
-9.18902
0
LINE
8
BLACK
6
CONTINUOUS
10
65.9281
20
-9.18902
11
66.0086
21
-9.13119
0
LINE
8
BLACK
6
CONTINUOUS
10
66.0086
20
-9.13119
11
66.0098
21
-9.13039
0
LINE
8
BLACK
6
CONTINUOUS
10
66.0098
20
-9.13039
11
66.0177
21
-9.12596
0
LINE
8
BLACK
6
CONTINUOUS
10
66.0177
20
-9.12596
11
66.0255
21
-9.12141
0
LINE
8
BLACK
6
CONTINUOUS
10
66.0255
20
-9.12141
11
66.1157
21
-9.08033
0
LINE
8
BLACK
6
CONTINUOUS
10
66.1157
20
-9.08033
11
66.117
21
-9.07976
0
LINE
8
BLACK
6
CONTINUOUS
10
66.117
20
-9.07976
11
66.1256
21
-9.07694
0
LINE
8
BLACK
6
CONTINUOUS
10
66.1256
20
-9.07694
11
66.1342
21
-9.07401
0
LINE
8
BLACK
6
CONTINUOUS
10
66.1342
20
-9.07401
11
66.2307
21
-9.05123
0
LINE
8
BLACK
6
CONTINUOUS
10
66.2307
20
-9.05123
11
66.2321
21
-9.05092
0
LINE
8
BLACK
6
CONTINUOUS
10
66.2321
20
-9.05092
11
66.2395
21
-9.05002
0
LINE
8
BLACK
6
CONTINUOUS
10
66.2395
20
-9.05002
11
66.247
21
-9.04878
0
LINE
8
BLACK
6
CONTINUOUS
10
66.247
20
-9.04878
11
66.3133
21
-9.04433
0
LINE
8
BLACK
6
CONTINUOUS
10
66.3133
20
-9.04433
11
66.3167
21
-9.044
0
LINE
8
BLACK
6
CONTINUOUS
10
66.3167
20
-9.044
11
80.5131
21
-9.044
0
LINE
8
BLACK
6
CONTINUOUS
10
80.5131
20
-9.044
11
80.518
21
-9.04352
0
LINE
8
BLACK
6
CONTINUOUS
10
80.518
20
-9.04352
11
80.5229
21
-9.044
0
LINE
8
BLACK
6
CONTINUOUS
10
80.5229
20
-9.044
11
80.5376
21
-9.04545
0
LINE
8
BLACK
6
CONTINUOUS
10
80.5376
20
-9.04545
11
80.5565
21
-9.05117
0
LINE
8
BLACK
6
CONTINUOUS
10
80.5565
20
-9.05117
11
80.5738
21
-9.06045
0
LINE
8
BLACK
6
CONTINUOUS
10
80.5738
20
-9.06045
11
80.5891
21
-9.07295
0
LINE
8
BLACK
6
CONTINUOUS
10
80.5891
20
-9.07295
11
80.6015
21
-9.08817
0
LINE
8
BLACK
6
CONTINUOUS
10
80.6015
20
-9.08817
11
80.6108
21
-9.10555
0
LINE
8
BLACK
6
CONTINUOUS
10
80.6108
20
-9.10555
11
80.6166
21
-9.1244
0
LINE
8
BLACK
6
CONTINUOUS
10
80.6166
20
-9.1244
11
80.6185
21
-9.144
0
LINE
8
BLACK
6
CONTINUOUS
10
80.6185
20
-9.144
11
80.618
21
-9.1489
0
LINE
8
BLACK
6
CONTINUOUS
10
80.618
20
-9.1489
11
80.618
21
-21.8439
0
LINE
8
BLACK
6
CONTINUOUS
10
80.618
20
-21.8439
11
80.6181
21
-21.8607
0
LINE
8
BLACK
6
CONTINUOUS
10
80.6181
20
-21.8607
11
80.6813
21
-22.4622
0
LINE
8
BLACK
6
CONTINUOUS
10
80.6813
20
-22.4622
11
80.8587
21
-23.0354
0
LINE
8
BLACK
6
CONTINUOUS
10
80.8587
20
-23.0354
11
81.1441
21
-23.5633
0
LINE
8
BLACK
6
CONTINUOUS
10
81.1441
20
-23.5633
11
81.5266
21
-24.0256
0
LINE
8
BLACK
6
CONTINUOUS
10
81.5266
20
-24.0256
11
81.9916
21
-24.4048
0
LINE
8
BLACK
6
CONTINUOUS
10
81.9916
20
-24.4048
11
82.5214
21
-24.6865
0
LINE
8
BLACK
6
CONTINUOUS
10
82.5214
20
-24.6865
11
83.0958
21
-24.86
0
LINE
8
BLACK
6
CONTINUOUS
10
83.0958
20
-24.86
11
83.6979
21
-24.919
0
LINE
8
BLACK
6
CONTINUOUS
10
83.6979
20
-24.919
11
109.093
21
-24.919
0
LINE
8
BLACK
6
CONTINUOUS
10
109.093
20
-24.919
11
109.11
21
-24.9189
0
LINE
8
BLACK
6
CONTINUOUS
10
109.11
20
-24.9189
11
109.711
21
-24.8557
0
LINE
8
BLACK
6
CONTINUOUS
10
109.711
20
-24.8557
11
110.284
21
-24.6783
0
LINE
8
BLACK
6
CONTINUOUS
10
110.284
20
-24.6783
11
110.812
21
-24.3929
0
LINE
8
BLACK
6
CONTINUOUS
10
110.812
20
-24.3929
11
111.275
21
-24.0104
0
LINE
8
BLACK
6
CONTINUOUS
10
111.275
20
-24.0104
11
111.654
21
-23.5454
0
LINE
8
BLACK
6
CONTINUOUS
10
111.654
20
-23.5454
11
111.936
21
-23.0156
0
LINE
8
BLACK
6
CONTINUOUS
10
111.936
20
-23.0156
11
112.109
21
-22.4412
0
LINE
8
BLACK
6
CONTINUOUS
10
112.109
20
-22.4412
11
112.168
21
-21.8391
0
LINE
8
BLACK
6
CONTINUOUS
10
112.168
20
-21.8391
11
112.168
21
-9.14891
0
LINE
8
BLACK
6
CONTINUOUS
10
112.168
20
-9.14891
11
112.168
21
-9.144
0
LINE
8
BLACK
6
CONTINUOUS
10
112.168
20
-9.144
11
112.169
21
-9.1244
0
LINE
8
BLACK
6
CONTINUOUS
10
112.169
20
-9.1244
11
112.175
21
-9.10555
0
LINE
8
BLACK
6
CONTINUOUS
10
112.175
20
-9.10555
11
112.184
21
-9.08817
0
LINE
8
BLACK
6
CONTINUOUS
10
112.184
20
-9.08817
11
112.197
21
-9.07295
0
LINE
8
BLACK
6
CONTINUOUS
10
112.197
20
-9.07295
11
112.212
21
-9.06045
0
LINE
8
BLACK
6
CONTINUOUS
10
112.212
20
-9.06045
11
112.23
21
-9.05117
0
LINE
8
BLACK
6
CONTINUOUS
10
112.23
20
-9.05117
11
112.248
21
-9.04545
0
LINE
8
BLACK
6
CONTINUOUS
10
112.248
20
-9.04545
11
112.263
21
-9.044
0
LINE
8
BLACK
6
CONTINUOUS
10
112.263
20
-9.044
11
112.268
21
-9.04352
0
LINE
8
BLACK
6
CONTINUOUS
10
112.268
20
-9.04352
11
112.273
21
-9.044
0
LINE
8
BLACK
6
CONTINUOUS
10
112.273
20
-9.044
11
126.469
21
-9.044
0
LINE
8
BLACK
6
CONTINUOUS
10
126.469
20
-9.044
11
126.474
21
-9.04448
0
LINE
8
BLACK
6
CONTINUOUS
10
126.474
20
-9.04448
11
126.474
21
-9.04448
0
LINE
8
BLACK
6
CONTINUOUS
10
126.474
20
-9.04448
11
126.573
21
-9.05415
0
LINE
8
BLACK
6
CONTINUOUS
10
126.573
20
-9.05415
11
126.573
21
-9.05415
0
LINE
8
BLACK
6
CONTINUOUS
10
126.573
20
-9.05415
11
126.574
21
-9.0543
0
LINE
8
BLACK
6
CONTINUOUS
10
83.0652
20
-25.0579
11
83.0563
21
-25.056
0
LINE
8
BLACK
6
CONTINUOUS
10
83.0563
20
-25.056
11
83.0474
21
-25.0543
0
LINE
8
BLACK
6
CONTINUOUS
10
83.0474
20
-25.0543
11
82.4542
21
-24.8752
0
LINE
8
BLACK
6
CONTINUOUS
10
82.4542
20
-24.8752
11
82.4542
21
-24.8752
0
LINE
8
BLACK
6
CONTINUOUS
10
82.4542
20
-24.8752
11
82.4529
21
-24.8748
0
LINE
8
BLACK
6
CONTINUOUS
10
82.4529
20
-24.8748
11
82.4445
21
-24.8712
0
LINE
8
BLACK
6
CONTINUOUS
10
82.4445
20
-24.8712
11
82.4362
21
-24.8677
0
LINE
8
BLACK
6
CONTINUOUS
10
82.4362
20
-24.8677
11
81.889
21
-24.5768
0
LINE
8
BLACK
6
CONTINUOUS
10
81.889
20
-24.5768
11
81.889
21
-24.5768
0
LINE
8
BLACK
6
CONTINUOUS
10
81.889
20
-24.5768
11
81.889
21
-24.5768
0
LINE
8
BLACK
6
CONTINUOUS
10
81.889
20
-24.5768
11
81.8878
21
-24.5762
0
LINE
8
BLACK
6
CONTINUOUS
10
81.8878
20
-24.5762
11
81.8803
21
-24.571
0
LINE
8
BLACK
6
CONTINUOUS
10
81.8803
20
-24.571
11
81.8728
21
-24.566
0
LINE
8
BLACK
6
CONTINUOUS
10
81.8728
20
-24.566
11
81.3926
21
-24.1744
0
LINE
8
BLACK
6
CONTINUOUS
10
81.3926
20
-24.1744
11
81.3926
21
-24.1744
0
LINE
8
BLACK
6
CONTINUOUS
10
81.3926
20
-24.1744
11
81.3926
21
-24.1744
0
LINE
8
BLACK
6
CONTINUOUS
10
81.3926
20
-24.1744
11
81.3915
21
-24.1735
0
LINE
8
BLACK
6
CONTINUOUS
10
81.3915
20
-24.1735
11
81.3852
21
-24.167
0
LINE
8
BLACK
6
CONTINUOUS
10
81.3852
20
-24.167
11
81.3787
21
-24.1606
0
LINE
8
BLACK
6
CONTINUOUS
10
81.3787
20
-24.1606
11
80.9838
21
-23.6832
0
LINE
8
BLACK
6
CONTINUOUS
10
80.9838
20
-23.6832
11
80.9838
21
-23.6832
0
LINE
8
BLACK
6
CONTINUOUS
10
80.9838
20
-23.6832
11
80.9837
21
-23.6832
0
LINE
8
BLACK
6
CONTINUOUS
10
80.9837
20
-23.6832
11
80.9829
21
-23.6821
0
LINE
8
BLACK
6
CONTINUOUS
10
80.9829
20
-23.6821
11
80.9779
21
-23.6745
0
LINE
8
BLACK
6
CONTINUOUS
10
80.9779
20
-23.6745
11
80.9728
21
-23.667
0
LINE
8
BLACK
6
CONTINUOUS
10
80.9728
20
-23.667
11
80.6781
21
-23.1219
0
LINE
8
BLACK
6
CONTINUOUS
10
80.6781
20
-23.1219
11
80.6775
21
-23.1207
0
LINE
8
BLACK
6
CONTINUOUS
10
80.6775
20
-23.1207
11
80.6741
21
-23.1123
0
LINE
8
BLACK
6
CONTINUOUS
10
80.6741
20
-23.1123
11
80.6706
21
-23.1039
0
LINE
8
BLACK
6
CONTINUOUS
10
80.6706
20
-23.1039
11
80.4873
21
-22.512
0
LINE
8
BLACK
6
CONTINUOUS
10
80.4873
20
-22.512
11
80.4869
21
-22.5107
0
LINE
8
BLACK
6
CONTINUOUS
10
80.4869
20
-22.5107
11
80.4852
21
-22.5018
0
LINE
8
BLACK
6
CONTINUOUS
10
80.4852
20
-22.5018
11
80.4834
21
-22.4929
0
LINE
8
BLACK
6
CONTINUOUS
10
80.4834
20
-22.4929
11
80.4186
21
-21.8766
0
LINE
8
BLACK
6
CONTINUOUS
10
80.4186
20
-21.8766
11
80.4185
21
-21.8752
0
LINE
8
BLACK
6
CONTINUOUS
10
80.4185
20
-21.8752
11
80.4185
21
-21.8709
0
LINE
8
BLACK
6
CONTINUOUS
10
80.4185
20
-21.8709
11
80.4181
21
-21.8665
0
LINE
8
BLACK
6
CONTINUOUS
10
80.4181
20
-21.8665
11
80.418
21
-21.8491
0
LINE
8
BLACK
6
CONTINUOUS
10
80.418
20
-21.8491
11
80.418
21
-21.8489
0
LINE
8
BLACK
6
CONTINUOUS
10
80.418
20
-21.8489
11
80.418
21
-9.244
0
LINE
8
BLACK
6
CONTINUOUS
10
80.418
20
-9.244
11
66.3249
21
-9.244
0
LINE
8
BLACK
6
CONTINUOUS
10
66.3249
20
-9.244
11
66.2686
21
-9.24778
0
LINE
8
BLACK
6
CONTINUOUS
10
66.2686
20
-9.24778
11
66.1897
21
-9.26641
0
LINE
8
BLACK
6
CONTINUOUS
10
66.1897
20
-9.26641
11
66.1173
21
-9.29937
0
LINE
8
BLACK
6
CONTINUOUS
10
66.1173
20
-9.29937
11
66.0487
21
-9.34862
0
LINE
8
BLACK
6
CONTINUOUS
10
66.0487
20
-9.34862
11
17.5439
21
-51.933
0
LINE
8
BLACK
6
CONTINUOUS
10
17.5439
20
-51.933
11
17.5246
21
-51.9512
0
LINE
8
BLACK
6
CONTINUOUS
10
17.5246
20
-51.9512
11
17.4723
21
-52.0153
0
LINE
8
BLACK
6
CONTINUOUS
10
17.4723
20
-52.0153
11
17.435
21
-52.0855
0
LINE
8
BLACK
6
CONTINUOUS
10
17.435
20
-52.0855
11
17.412
21
-52.1616
0
LINE
8
BLACK
6
CONTINUOUS
10
17.412
20
-52.1616
11
17.4037
21
-52.2457
0
LINE
8
BLACK
6
CONTINUOUS
10
17.4037
20
-52.2457
11
17.4037
21
-176.02
0
LINE
8
BLACK
6
CONTINUOUS
10
17.4037
20
-176.02
11
17.4126
21
-176.104
0
LINE
8
BLACK
6
CONTINUOUS
10
17.4126
20
-176.104
11
17.4361
21
-176.18
0
LINE
8
BLACK
6
CONTINUOUS
10
17.4361
20
-176.18
11
17.4739
21
-176.25
0
LINE
8
BLACK
6
CONTINUOUS
10
17.4739
20
-176.25
11
17.5246
21
-176.311
0
LINE
8
BLACK
6
CONTINUOUS
10
17.5246
20
-176.311
11
17.5862
21
-176.361
0
LINE
8
BLACK
6
CONTINUOUS
10
17.5862
20
-176.361
11
17.6565
21
-176.399
0
LINE
8
BLACK
6
CONTINUOUS
10
17.6565
20
-176.399
11
17.7326
21
-176.422
0
LINE
8
BLACK
6
CONTINUOUS
10
17.7326
20
-176.422
11
17.8166
21
-176.43
0
LINE
8
BLACK
6
CONTINUOUS
10
17.8166
20
-176.43
11
174.972
21
-176.43
0
LINE
8
BLACK
6
CONTINUOUS
10
174.972
20
-176.43
11
175.056
21
-176.421
0
LINE
8
BLACK
6
CONTINUOUS
10
175.056
20
-176.421
11
175.132
21
-176.398
0
LINE
8
BLACK
6
CONTINUOUS
10
175.132
20
-176.398
11
175.202
21
-176.36
0
LINE
8
BLACK
6
CONTINUOUS
10
175.202
20
-176.36
11
175.263
21
-176.309
0
LINE
8
BLACK
6
CONTINUOUS
10
175.263
20
-176.309
11
175.314
21
-176.248
0
LINE
8
BLACK
6
CONTINUOUS
10
175.314
20
-176.248
11
175.351
21
-176.177
0
LINE
8
BLACK
6
CONTINUOUS
10
175.351
20
-176.177
11
175.374
21
-176.101
0
LINE
8
BLACK
6
CONTINUOUS
10
175.374
20
-176.101
11
175.382
21
-176.017
0
LINE
8
BLACK
6
CONTINUOUS
10
175.382
20
-176.017
11
175.382
21
-52.2426
0
LINE
8
BLACK
6
CONTINUOUS
10
175.382
20
-52.2426
11
175.381
21
-52.2161
0
LINE
8
BLACK
6
CONTINUOUS
10
175.381
20
-52.2161
11
175.368
21
-52.1345
0
LINE
8
BLACK
6
CONTINUOUS
10
175.368
20
-52.1345
11
175.34
21
-52.0601
0
LINE
8
BLACK
6
CONTINUOUS
10
175.34
20
-52.0601
11
175.297
21
-51.9926
0
LINE
8
BLACK
6
CONTINUOUS
10
175.297
20
-51.9926
11
175.24
21
-51.931
0
LINE
8
BLACK
6
CONTINUOUS
10
175.24
20
-51.931
11
126.736
21
-9.34761
0
LINE
8
BLACK
6
CONTINUOUS
10
126.736
20
-9.34761
11
126.691
21
-9.3133
0
LINE
8
BLACK
6
CONTINUOUS
10
126.691
20
-9.3133
11
126.62
21
-9.27523
0
LINE
8
BLACK
6
CONTINUOUS
10
126.62
20
-9.27523
11
126.544
21
-9.25224
0
LINE
8
BLACK
6
CONTINUOUS
10
126.544
20
-9.25224
11
126.46
21
-9.244
0
LINE
8
BLACK
6
CONTINUOUS
10
126.46
20
-9.244
11
112.368
21
-9.244
0
LINE
8
BLACK
6
CONTINUOUS
10
112.368
20
-9.244
11
112.368
21
-21.8489
0
LINE
8
BLACK
6
CONTINUOUS
10
112.368
20
-21.8489
11
112.368
21
-21.8537
0
LINE
8
BLACK
6
CONTINUOUS
10
112.368
20
-21.8537
11
112.368
21
-21.8538
0
LINE
8
BLACK
6
CONTINUOUS
10
112.368
20
-21.8538
11
112.307
21
-22.4705
0
LINE
8
BLACK
6
CONTINUOUS
10
112.307
20
-22.4705
11
112.307
21
-22.4718
0
LINE
8
BLACK
6
CONTINUOUS
10
112.307
20
-22.4718
11
112.305
21
-22.4807
0
LINE
8
BLACK
6
CONTINUOUS
10
112.305
20
-22.4807
11
112.303
21
-22.4896
0
LINE
8
BLACK
6
CONTINUOUS
10
112.303
20
-22.4896
11
112.124
21
-23.0828
0
LINE
8
BLACK
6
CONTINUOUS
10
112.124
20
-23.0828
11
112.124
21
-23.0841
0
LINE
8
BLACK
6
CONTINUOUS
10
112.124
20
-23.0841
11
112.12
21
-23.0925
0
LINE
8
BLACK
6
CONTINUOUS
10
112.12
20
-23.0925
11
112.117
21
-23.1008
0
LINE
8
BLACK
6
CONTINUOUS
10
112.117
20
-23.1008
11
111.826
21
-23.648
0
LINE
8
BLACK
6
CONTINUOUS
10
111.826
20
-23.648
11
111.826
21
-23.648
0
LINE
8
BLACK
6
CONTINUOUS
10
111.826
20
-23.648
11
111.826
21
-23.648
0
LINE
8
BLACK
6
CONTINUOUS
10
111.826
20
-23.648
11
111.825
21
-23.6492
0
LINE
8
BLACK
6
CONTINUOUS
10
111.825
20
-23.6492
11
111.82
21
-23.6567
0
LINE
8
BLACK
6
CONTINUOUS
10
111.82
20
-23.6567
11
111.815
21
-23.6642
0
LINE
8
BLACK
6
CONTINUOUS
10
111.815
20
-23.6642
11
111.423
21
-24.1444
0
LINE
8
BLACK
6
CONTINUOUS
10
111.423
20
-24.1444
11
111.423
21
-24.1444
0
LINE
8
BLACK
6
CONTINUOUS
10
111.423
20
-24.1444
11
111.423
21
-24.1444
0
LINE
8
BLACK
6
CONTINUOUS
10
111.423
20
-24.1444
11
111.422
21
-24.1455
0
LINE
8
BLACK
6
CONTINUOUS
10
111.422
20
-24.1455
11
111.416
21
-24.1518
0
LINE
8
BLACK
6
CONTINUOUS
10
111.416
20
-24.1518
11
111.41
21
-24.1583
0
LINE
8
BLACK
6
CONTINUOUS
10
111.41
20
-24.1583
11
110.932
21
-24.5532
0
LINE
8
BLACK
6
CONTINUOUS
10
110.932
20
-24.5532
11
110.932
21
-24.5532
0
LINE
8
BLACK
6
CONTINUOUS
10
110.932
20
-24.5532
11
110.932
21
-24.5533
0
LINE
8
BLACK
6
CONTINUOUS
10
110.932
20
-24.5533
11
110.931
21
-24.5541
0
LINE
8
BLACK
6
CONTINUOUS
10
110.931
20
-24.5541
11
110.924
21
-24.5591
0
LINE
8
BLACK
6
CONTINUOUS
10
110.924
20
-24.5591
11
110.916
21
-24.5642
0
LINE
8
BLACK
6
CONTINUOUS
10
110.916
20
-24.5642
11
110.371
21
-24.8589
0
LINE
8
BLACK
6
CONTINUOUS
10
110.371
20
-24.8589
11
110.37
21
-24.8595
0
LINE
8
BLACK
6
CONTINUOUS
10
110.37
20
-24.8595
11
110.361
21
-24.8629
0
LINE
8
BLACK
6
CONTINUOUS
10
110.361
20
-24.8629
11
110.353
21
-24.8664
0
LINE
8
BLACK
6
CONTINUOUS
10
110.353
20
-24.8664
11
109.761
21
-25.0497
0
LINE
8
BLACK
6
CONTINUOUS
10
109.761
20
-25.0497
11
109.76
21
-25.0501
0
LINE
8
BLACK
6
CONTINUOUS
10
109.76
20
-25.0501
11
109.751
21
-25.0518
0
LINE
8
BLACK
6
CONTINUOUS
10
109.751
20
-25.0518
11
109.742
21
-25.0536
0
LINE
8
BLACK
6
CONTINUOUS
10
109.742
20
-25.0536
11
109.126
21
-25.1184
0
LINE
8
BLACK
6
CONTINUOUS
10
109.126
20
-25.1184
11
109.124
21
-25.1185
0
LINE
8
BLACK
6
CONTINUOUS
10
109.124
20
-25.1185
11
109.12
21
-25.1185
0
LINE
8
BLACK
6
CONTINUOUS
10
109.12
20
-25.1185
11
109.116
21
-25.1189
0
LINE
8
BLACK
6
CONTINUOUS
10
109.116
20
-25.1189
11
109.098
21
-25.119
0
LINE
8
BLACK
6
CONTINUOUS
10
109.098
20
-25.119
11
109.098
21
-25.119
0
LINE
8
BLACK
6
CONTINUOUS
10
109.098
20
-25.119
11
83.6881
21
-25.119
0
LINE
8
BLACK
6
CONTINUOUS
10
83.6881
20
-25.119
11
83.6833
21
-25.1185
0
LINE
8
BLACK
6
CONTINUOUS
10
83.6833
20
-25.1185
11
83.6832
21
-25.1185
0
LINE
8
BLACK
6
CONTINUOUS
10
83.6832
20
-25.1185
11
83.0665
21
-25.0581
0
LINE
8
BLACK
6
CONTINUOUS
10
83.0665
20
-25.0581
11
83.0665
21
-25.0581
0
LINE
8
BLACK
6
CONTINUOUS
10
83.0665
20
-25.0581
11
83.0652
21
-25.0579
0
LINE
8
BLACK
6
CONTINUOUS
10
142.189
20
-37.1747
11
143.791
21
-37.2531
0
LINE
8
BLACK
6
CONTINUOUS
10
143.791
20
-37.2531
11
143.793
21
-37.2532
0
LINE
8
BLACK
6
CONTINUOUS
10
143.793
20
-37.2532
11
143.797
21
-37.2536
0
LINE
8
BLACK
6
CONTINUOUS
10
143.797
20
-37.2536
11
143.801
21
-37.254
0
LINE
8
BLACK
6
CONTINUOUS
10
143.801
20
-37.254
11
145.39
21
-37.4887
0
LINE
8
BLACK
6
CONTINUOUS
10
145.39
20
-37.4887
11
145.391
21
-37.4889
0
LINE
8
BLACK
6
CONTINUOUS
10
145.391
20
-37.4889
11
145.395
21
-37.4898
0
LINE
8
BLACK
6
CONTINUOUS
10
145.395
20
-37.4898
11
145.399
21
-37.4906
0
LINE
8
BLACK
6
CONTINUOUS
10
145.399
20
-37.4906
11
146.958
21
-37.8792
0
LINE
8
BLACK
6
CONTINUOUS
10
146.958
20
-37.8792
11
146.958
21
-37.8792
0
LINE
8
BLACK
6
CONTINUOUS
10
146.958
20
-37.8792
11
146.958
21
-37.8792
0
LINE
8
BLACK
6
CONTINUOUS
10
146.958
20
-37.8792
11
146.959
21
-37.8795
0
LINE
8
BLACK
6
CONTINUOUS
10
146.959
20
-37.8795
11
146.963
21
-37.8808
0
LINE
8
BLACK
6
CONTINUOUS
10
146.963
20
-37.8808
11
146.967
21
-37.882
0
LINE
8
BLACK
6
CONTINUOUS
10
146.967
20
-37.882
11
148.481
21
-38.4208
0
LINE
8
BLACK
6
CONTINUOUS
10
148.481
20
-38.4208
11
148.482
21
-38.4213
0
LINE
8
BLACK
6
CONTINUOUS
10
148.482
20
-38.4213
11
148.486
21
-38.423
0
LINE
8
BLACK
6
CONTINUOUS
10
148.486
20
-38.423
11
148.49
21
-38.4246
0
LINE
8
BLACK
6
CONTINUOUS
10
148.49
20
-38.4246
11
149.943
21
-39.1085
0
LINE
8
BLACK
6
CONTINUOUS
10
149.943
20
-39.1085
11
149.944
21
-39.1091
0
LINE
8
BLACK
6
CONTINUOUS
10
149.944
20
-39.1091
11
149.948
21
-39.1111
0
LINE
8
BLACK
6
CONTINUOUS
10
149.948
20
-39.1111
11
149.952
21
-39.1131
0
LINE
8
BLACK
6
CONTINUOUS
10
149.952
20
-39.1131
11
151.331
21
-39.9356
0
LINE
8
BLACK
6
CONTINUOUS
10
151.331
20
-39.9356
11
151.331
21
-39.9356
0
LINE
8
BLACK
6
CONTINUOUS
10
151.331
20
-39.9356
11
151.331
21
-39.9356
0
LINE
8
BLACK
6
CONTINUOUS
10
151.331
20
-39.9356
11
151.333
21
-39.9363
0
LINE
8
BLACK
6
CONTINUOUS
10
151.333
20
-39.9363
11
151.336
21
-39.9387
0
LINE
8
BLACK
6
CONTINUOUS
10
151.336
20
-39.9387
11
151.34
21
-39.941
0
LINE
8
BLACK
6
CONTINUOUS
10
151.34
20
-39.941
11
152.632
21
-40.8942
0
LINE
8
BLACK
6
CONTINUOUS
10
152.632
20
-40.8942
11
152.634
21
-40.895
0
LINE
8
BLACK
6
CONTINUOUS
10
152.634
20
-40.895
11
152.637
21
-40.8977
0
LINE
8
BLACK
6
CONTINUOUS
10
152.637
20
-40.8977
11
152.64
21
-40.9004
0
LINE
8
BLACK
6
CONTINUOUS
10
152.64
20
-40.9004
11
153.834
21
-41.9752
0
LINE
8
BLACK
6
CONTINUOUS
10
153.834
20
-41.9752
11
153.835
21
-41.9761
0
LINE
8
BLACK
6
CONTINUOUS
10
153.835
20
-41.9761
11
153.838
21
-41.9791
0
LINE
8
BLACK
6
CONTINUOUS
10
153.838
20
-41.9791
11
153.841
21
-41.9821
0
LINE
8
BLACK
6
CONTINUOUS
10
153.841
20
-41.9821
11
154.924
21
-43.1682
0
LINE
8
BLACK
6
CONTINUOUS
10
154.924
20
-43.1682
11
154.925
21
-43.1693
0
LINE
8
BLACK
6
CONTINUOUS
10
154.925
20
-43.1693
11
154.927
21
-43.1725
0
LINE
8
BLACK
6
CONTINUOUS
10
154.927
20
-43.1725
11
154.93
21
-43.1758
0
LINE
8
BLACK
6
CONTINUOUS
10
154.93
20
-43.1758
11
155.892
21
-44.462
0
LINE
8
BLACK
6
CONTINUOUS
10
155.892
20
-44.462
11
155.892
21
-44.462
0
LINE
8
BLACK
6
CONTINUOUS
10
155.892
20
-44.462
11
155.892
21
-44.462
0
LINE
8
BLACK
6
CONTINUOUS
10
155.892
20
-44.462
11
155.893
21
-44.4631
0
LINE
8
BLACK
6
CONTINUOUS
10
155.893
20
-44.4631
11
155.895
21
-44.4666
0
LINE
8
BLACK
6
CONTINUOUS
10
155.895
20
-44.4666
11
155.898
21
-44.4701
0
LINE
8
BLACK
6
CONTINUOUS
10
155.898
20
-44.4701
11
156.73
21
-45.844
0
LINE
8
BLACK
6
CONTINUOUS
10
156.73
20
-45.844
11
156.731
21
-45.8452
0
LINE
8
BLACK
6
CONTINUOUS
10
156.731
20
-45.8452
11
156.732
21
-45.8489
0
LINE
8
BLACK
6
CONTINUOUS
10
156.732
20
-45.8489
11
156.734
21
-45.8526
0
LINE
8
BLACK
6
CONTINUOUS
10
156.734
20
-45.8526
11
157.429
21
-47.3012
0
LINE
8
BLACK
6
CONTINUOUS
10
157.429
20
-47.3012
11
157.429
21
-47.3012
0
LINE
8
BLACK
6
CONTINUOUS
10
157.429
20
-47.3012
11
157.429
21
-47.3013
0
LINE
8
BLACK
6
CONTINUOUS
10
157.429
20
-47.3013
11
157.429
21
-47.3025
0
LINE
8
BLACK
6
CONTINUOUS
10
157.429
20
-47.3025
11
157.431
21
-47.3064
0
LINE
8
BLACK
6
CONTINUOUS
10
157.431
20
-47.3064
11
157.432
21
-47.3102
0
LINE
8
BLACK
6
CONTINUOUS
10
157.432
20
-47.3102
11
157.982
21
-48.8196
0
LINE
8
BLACK
6
CONTINUOUS
10
157.982
20
-48.8196
11
157.982
21
-48.8197
0
LINE
8
BLACK
6
CONTINUOUS
10
157.982
20
-48.8197
11
157.982
21
-48.8197
0
LINE
8
BLACK
6
CONTINUOUS
10
157.982
20
-48.8197
11
157.982
21
-48.821
0
LINE
8
BLACK
6
CONTINUOUS
10
157.982
20
-48.821
11
157.983
21
-48.825
0
LINE
8
BLACK
6
CONTINUOUS
10
157.983
20
-48.825
11
157.985
21
-48.829
0
LINE
8
BLACK
6
CONTINUOUS
10
157.985
20
-48.829
11
158.384
21
-50.3848
0
LINE
8
BLACK
6
CONTINUOUS
10
158.384
20
-50.3848
11
158.384
21
-50.3848
0
LINE
8
BLACK
6
CONTINUOUS
10
158.384
20
-50.3848
11
158.384
21
-50.3848
0
LINE
8
BLACK
6
CONTINUOUS
10
158.384
20
-50.3848
11
158.384
21
-50.3862
0
LINE
8
BLACK
6
CONTINUOUS
10
158.384
20
-50.3862
11
158.385
21
-50.3903
0
LINE
8
BLACK
6
CONTINUOUS
10
158.385
20
-50.3903
11
158.386
21
-50.3944
0
LINE
8
BLACK
6
CONTINUOUS
10
158.386
20
-50.3944
11
158.632
21
-51.9818
0
LINE
8
BLACK
6
CONTINUOUS
10
158.632
20
-51.9818
11
158.632
21
-51.9832
0
LINE
8
BLACK
6
CONTINUOUS
10
158.632
20
-51.9832
11
158.632
21
-51.9874
0
LINE
8
BLACK
6
CONTINUOUS
10
158.632
20
-51.9874
11
158.633
21
-51.9915
0
LINE
8
BLACK
6
CONTINUOUS
10
158.633
20
-51.9915
11
158.722
21
-53.5953
0
LINE
8
BLACK
6
CONTINUOUS
10
158.722
20
-53.5953
11
158.723
21
-53.5967
0
LINE
8
BLACK
6
CONTINUOUS
10
158.723
20
-53.5967
11
158.722
21
-53.5986
0
LINE
8
BLACK
6
CONTINUOUS
10
158.722
20
-53.5986
11
158.723
21
-53.6005
0
LINE
8
BLACK
6
CONTINUOUS
10
158.723
20
-53.6005
11
158.723
21
-53.7106
0
LINE
8
BLACK
6
CONTINUOUS
10
158.723
20
-53.7106
11
158.723
21
-53.7107
0
LINE
8
BLACK
6
CONTINUOUS
10
158.723
20
-53.7107
11
158.723
21
-145.298
0
LINE
8
BLACK
6
CONTINUOUS
10
158.723
20
-145.298
11
158.723
21
-145.301
0
LINE
8
BLACK
6
CONTINUOUS
10
158.723
20
-145.301
11
158.644
21
-146.903
0
LINE
8
BLACK
6
CONTINUOUS
10
158.644
20
-146.903
11
158.644
21
-146.904
0
LINE
8
BLACK
6
CONTINUOUS
10
158.644
20
-146.904
11
158.644
21
-146.908
0
LINE
8
BLACK
6
CONTINUOUS
10
158.644
20
-146.908
11
158.643
21
-146.912
0
LINE
8
BLACK
6
CONTINUOUS
10
158.643
20
-146.912
11
158.409
21
-148.501
0
LINE
8
BLACK
6
CONTINUOUS
10
158.409
20
-148.501
11
158.409
21
-148.503
0
LINE
8
BLACK
6
CONTINUOUS
10
158.409
20
-148.503
11
158.408
21
-148.507
0
LINE
8
BLACK
6
CONTINUOUS
10
158.408
20
-148.507
11
158.407
21
-148.511
0
LINE
8
BLACK
6
CONTINUOUS
10
158.407
20
-148.511
11
158.018
21
-150.07
0
LINE
8
BLACK
6
CONTINUOUS
10
158.018
20
-150.07
11
158.018
21
-150.071
0
LINE
8
BLACK
6
CONTINUOUS
10
158.018
20
-150.071
11
158.017
21
-150.075
0
LINE
8
BLACK
6
CONTINUOUS
10
158.017
20
-150.075
11
158.015
21
-150.079
0
LINE
8
BLACK
6
CONTINUOUS
10
158.015
20
-150.079
11
157.477
21
-151.592
0
LINE
8
BLACK
6
CONTINUOUS
10
157.477
20
-151.592
11
157.476
21
-151.593
0
LINE
8
BLACK
6
CONTINUOUS
10
157.476
20
-151.593
11
157.475
21
-151.597
0
LINE
8
BLACK
6
CONTINUOUS
10
157.475
20
-151.597
11
157.473
21
-151.601
0
LINE
8
BLACK
6
CONTINUOUS
10
157.473
20
-151.601
11
156.789
21
-153.055
0
LINE
8
BLACK
6
CONTINUOUS
10
156.789
20
-153.055
11
156.788
21
-153.056
0
LINE
8
BLACK
6
CONTINUOUS
10
156.788
20
-153.056
11
156.786
21
-153.059
0
LINE
8
BLACK
6
CONTINUOUS
10
156.786
20
-153.059
11
156.784
21
-153.063
0
LINE
8
BLACK
6
CONTINUOUS
10
156.784
20
-153.063
11
155.962
21
-154.443
0
LINE
8
BLACK
6
CONTINUOUS
10
155.962
20
-154.443
11
155.961
21
-154.444
0
LINE
8
BLACK
6
CONTINUOUS
10
155.961
20
-154.444
11
155.959
21
-154.448
0
LINE
8
BLACK
6
CONTINUOUS
10
155.959
20
-154.448
11
155.957
21
-154.451
0
LINE
8
BLACK
6
CONTINUOUS
10
155.957
20
-154.451
11
155.003
21
-155.744
0
LINE
8
BLACK
6
CONTINUOUS
10
155.003
20
-155.744
11
155.002
21
-155.745
0
LINE
8
BLACK
6
CONTINUOUS
10
155.002
20
-155.745
11
155
21
-155.748
0
LINE
8
BLACK
6
CONTINUOUS
10
155
20
-155.748
11
154.997
21
-155.752
0
LINE
8
BLACK
6
CONTINUOUS
10
154.997
20
-155.752
11
153.922
21
-156.945
0
LINE
8
BLACK
6
CONTINUOUS
10
153.922
20
-156.945
11
153.922
21
-156.945
0
LINE
8
BLACK
6
CONTINUOUS
10
153.922
20
-156.945
11
153.922
21
-156.945
0
LINE
8
BLACK
6
CONTINUOUS
10
153.922
20
-156.945
11
153.921
21
-156.946
0
LINE
8
BLACK
6
CONTINUOUS
10
153.921
20
-156.946
11
153.918
21
-156.949
0
LINE
8
BLACK
6
CONTINUOUS
10
153.918
20
-156.949
11
153.915
21
-156.952
0
LINE
8
BLACK
6
CONTINUOUS
10
153.915
20
-156.952
11
152.729
21
-158.035
0
LINE
8
BLACK
6
CONTINUOUS
10
152.729
20
-158.035
11
152.728
21
-158.036
0
LINE
8
BLACK
6
CONTINUOUS
10
152.728
20
-158.036
11
152.725
21
-158.039
0
LINE
8
BLACK
6
CONTINUOUS
10
152.725
20
-158.039
11
152.722
21
-158.042
0
LINE
8
BLACK
6
CONTINUOUS
10
152.722
20
-158.042
11
151.436
21
-159.004
0
LINE
8
BLACK
6
CONTINUOUS
10
151.436
20
-159.004
11
151.434
21
-159.005
0
LINE
8
BLACK
6
CONTINUOUS
10
151.434
20
-159.005
11
151.431
21
-159.007
0
LINE
8
BLACK
6
CONTINUOUS
10
151.431
20
-159.007
11
151.427
21
-159.009
0
LINE
8
BLACK
6
CONTINUOUS
10
151.427
20
-159.009
11
150.053
21
-159.841
0
LINE
8
BLACK
6
CONTINUOUS
10
150.053
20
-159.841
11
150.053
21
-159.841
0
LINE
8
BLACK
6
CONTINUOUS
10
150.053
20
-159.841
11
150.053
21
-159.841
0
LINE
8
BLACK
6
CONTINUOUS
10
150.053
20
-159.841
11
150.052
21
-159.842
0
LINE
8
BLACK
6
CONTINUOUS
10
150.052
20
-159.842
11
150.049
21
-159.844
0
LINE
8
BLACK
6
CONTINUOUS
10
150.049
20
-159.844
11
150.045
21
-159.846
0
LINE
8
BLACK
6
CONTINUOUS
10
150.045
20
-159.846
11
148.596
21
-160.54
0
LINE
8
BLACK
6
CONTINUOUS
10
148.596
20
-160.54
11
148.596
21
-160.54
0
LINE
8
BLACK
6
CONTINUOUS
10
148.596
20
-160.54
11
148.596
21
-160.54
0
LINE
8
BLACK
6
CONTINUOUS
10
148.596
20
-160.54
11
148.595
21
-160.541
0
LINE
8
BLACK
6
CONTINUOUS
10
148.595
20
-160.541
11
148.591
21
-160.542
0
LINE
8
BLACK
6
CONTINUOUS
10
148.591
20
-160.542
11
148.587
21
-160.544
0
LINE
8
BLACK
6
CONTINUOUS
10
148.587
20
-160.544
11
147.078
21
-161.093
0
LINE
8
BLACK
6
CONTINUOUS
10
147.078
20
-161.093
11
147.078
21
-161.093
0
LINE
8
BLACK
6
CONTINUOUS
10
147.078
20
-161.093
11
147.078
21
-161.093
0
LINE
8
BLACK
6
CONTINUOUS
10
147.078
20
-161.093
11
147.077
21
-161.094
0
LINE
8
BLACK
6
CONTINUOUS
10
147.077
20
-161.094
11
147.073
21
-161.095
0
LINE
8
BLACK
6
CONTINUOUS
10
147.073
20
-161.095
11
147.069
21
-161.096
0
LINE
8
BLACK
6
CONTINUOUS
10
147.069
20
-161.096
11
145.513
21
-161.496
0
LINE
8
BLACK
6
CONTINUOUS
10
145.513
20
-161.496
11
145.513
21
-161.496
0
LINE
8
BLACK
6
CONTINUOUS
10
145.513
20
-161.496
11
145.513
21
-161.496
0
LINE
8
BLACK
6
CONTINUOUS
10
145.513
20
-161.496
11
145.511
21
-161.496
0
LINE
8
BLACK
6
CONTINUOUS
10
145.511
20
-161.496
11
145.507
21
-161.497
0
LINE
8
BLACK
6
CONTINUOUS
10
145.507
20
-161.497
11
145.503
21
-161.498
0
LINE
8
BLACK
6
CONTINUOUS
10
145.503
20
-161.498
11
143.916
21
-161.743
0
LINE
8
BLACK
6
CONTINUOUS
10
143.916
20
-161.743
11
143.914
21
-161.743
0
LINE
8
BLACK
6
CONTINUOUS
10
143.914
20
-161.743
11
143.91
21
-161.744
0
LINE
8
BLACK
6
CONTINUOUS
10
143.91
20
-161.744
11
143.906
21
-161.744
0
LINE
8
BLACK
6
CONTINUOUS
10
143.906
20
-161.744
11
142.302
21
-161.834
0
LINE
8
BLACK
6
CONTINUOUS
10
142.302
20
-161.834
11
142.301
21
-161.834
0
LINE
8
BLACK
6
CONTINUOUS
10
142.301
20
-161.834
11
142.299
21
-161.834
0
LINE
8
BLACK
6
CONTINUOUS
10
142.299
20
-161.834
11
142.297
21
-161.834
0
LINE
8
BLACK
6
CONTINUOUS
10
142.297
20
-161.834
11
142.187
21
-161.834
0
LINE
8
BLACK
6
CONTINUOUS
10
142.187
20
-161.834
11
142.187
21
-161.834
0
LINE
8
BLACK
6
CONTINUOUS
10
142.187
20
-161.834
11
50.5992
21
-161.834
0
LINE
8
BLACK
6
CONTINUOUS
10
50.5992
20
-161.834
11
50.5968
21
-161.834
0
LINE
8
BLACK
6
CONTINUOUS
10
50.5968
20
-161.834
11
48.9949
21
-161.756
0
LINE
8
BLACK
6
CONTINUOUS
10
48.9949
20
-161.756
11
48.9935
21
-161.756
0
LINE
8
BLACK
6
CONTINUOUS
10
48.9935
20
-161.756
11
48.9893
21
-161.755
0
LINE
8
BLACK
6
CONTINUOUS
10
48.9893
20
-161.755
11
48.9852
21
-161.755
0
LINE
8
BLACK
6
CONTINUOUS
10
48.9852
20
-161.755
11
47.3961
21
-161.52
0
LINE
8
BLACK
6
CONTINUOUS
10
47.3961
20
-161.52
11
47.3947
21
-161.52
0
LINE
8
BLACK
6
CONTINUOUS
10
47.3947
20
-161.52
11
47.3906
21
-161.519
0
LINE
8
BLACK
6
CONTINUOUS
10
47.3906
20
-161.519
11
47.3865
21
-161.518
0
LINE
8
BLACK
6
CONTINUOUS
10
47.3865
20
-161.518
11
45.8279
21
-161.13
0
LINE
8
BLACK
6
CONTINUOUS
10
45.8279
20
-161.13
11
45.8266
21
-161.129
0
LINE
8
BLACK
6
CONTINUOUS
10
45.8266
20
-161.129
11
45.8226
21
-161.128
0
LINE
8
BLACK
6
CONTINUOUS
10
45.8226
20
-161.128
11
45.8186
21
-161.127
0
LINE
8
BLACK
6
CONTINUOUS
10
45.8186
20
-161.127
11
44.3054
21
-160.588
0
LINE
8
BLACK
6
CONTINUOUS
10
44.3054
20
-160.588
11
44.3041
21
-160.588
0
LINE
8
BLACK
6
CONTINUOUS
10
44.3041
20
-160.588
11
44.3002
21
-160.586
0
LINE
8
BLACK
6
CONTINUOUS
10
44.3002
20
-160.586
11
44.2963
21
-160.584
0
LINE
8
BLACK
6
CONTINUOUS
10
44.2963
20
-160.584
11
42.8429
21
-159.901
0
LINE
8
BLACK
6
CONTINUOUS
10
42.8429
20
-159.901
11
42.8429
21
-159.901
0
LINE
8
BLACK
6
CONTINUOUS
10
42.8429
20
-159.901
11
42.8429
21
-159.901
0
LINE
8
BLACK
6
CONTINUOUS
10
42.8429
20
-159.901
11
42.8417
21
-159.9
0
LINE
8
BLACK
6
CONTINUOUS
10
42.8417
20
-159.9
11
42.838
21
-159.898
0
LINE
8
BLACK
6
CONTINUOUS
10
42.838
20
-159.898
11
42.8343
21
-159.896
0
LINE
8
BLACK
6
CONTINUOUS
10
42.8343
20
-159.896
11
41.4545
21
-159.073
0
LINE
8
BLACK
6
CONTINUOUS
10
41.4545
20
-159.073
11
41.4534
21
-159.073
0
LINE
8
BLACK
6
CONTINUOUS
10
41.4534
20
-159.073
11
41.4499
21
-159.07
0
LINE
8
BLACK
6
CONTINUOUS
10
41.4499
20
-159.07
11
41.4464
21
-159.068
0
LINE
8
BLACK
6
CONTINUOUS
10
41.4464
20
-159.068
11
40.1535
21
-158.115
0
LINE
8
BLACK
6
CONTINUOUS
10
40.1535
20
-158.115
11
40.1524
21
-158.114
0
LINE
8
BLACK
6
CONTINUOUS
10
40.1524
20
-158.114
11
40.1492
21
-158.111
0
LINE
8
BLACK
6
CONTINUOUS
10
40.1492
20
-158.111
11
40.1459
21
-158.109
0
LINE
8
BLACK
6
CONTINUOUS
10
40.1459
20
-158.109
11
38.9522
21
-157.034
0
LINE
8
BLACK
6
CONTINUOUS
10
38.9522
20
-157.034
11
38.9522
21
-157.034
0
LINE
8
BLACK
6
CONTINUOUS
10
38.9522
20
-157.034
11
38.9522
21
-157.034
0
LINE
8
BLACK
6
CONTINUOUS
10
38.9522
20
-157.034
11
38.9512
21
-157.033
0
LINE
8
BLACK
6
CONTINUOUS
10
38.9512
20
-157.033
11
38.9483
21
-157.03
0
LINE
8
BLACK
6
CONTINUOUS
10
38.9483
20
-157.03
11
38.9453
21
-157.027
0
LINE
8
BLACK
6
CONTINUOUS
10
38.9453
20
-157.027
11
37.8622
21
-155.841
0
LINE
8
BLACK
6
CONTINUOUS
10
37.8622
20
-155.841
11
37.8612
21
-155.84
0
LINE
8
BLACK
6
CONTINUOUS
10
37.8612
20
-155.84
11
37.8586
21
-155.836
0
LINE
8
BLACK
6
CONTINUOUS
10
37.8586
20
-155.836
11
37.856
21
-155.833
0
LINE
8
BLACK
6
CONTINUOUS
10
37.856
20
-155.833
11
36.8937
21
-154.547
0
LINE
8
BLACK
6
CONTINUOUS
10
36.8937
20
-154.547
11
36.8929
21
-154.546
0
LINE
8
BLACK
6
CONTINUOUS
10
36.8929
20
-154.546
11
36.8906
21
-154.542
0
LINE
8
BLACK
6
CONTINUOUS
10
36.8906
20
-154.542
11
36.8883
21
-154.539
0
LINE
8
BLACK
6
CONTINUOUS
10
36.8883
20
-154.539
11
36.0562
21
-153.165
0
LINE
8
BLACK
6
CONTINUOUS
10
36.0562
20
-153.165
11
36.0562
21
-153.165
0
LINE
8
BLACK
6
CONTINUOUS
10
36.0562
20
-153.165
11
36.0562
21
-153.165
0
LINE
8
BLACK
6
CONTINUOUS
10
36.0562
20
-153.165
11
36.0555
21
-153.164
0
LINE
8
BLACK
6
CONTINUOUS
10
36.0555
20
-153.164
11
36.0535
21
-153.16
0
LINE
8
BLACK
6
CONTINUOUS
10
36.0535
20
-153.16
11
36.0515
21
-153.156
0
LINE
8
BLACK
6
CONTINUOUS
10
36.0515
20
-153.156
11
35.3575
21
-151.708
0
LINE
8
BLACK
6
CONTINUOUS
10
35.3575
20
-151.708
11
35.3575
21
-151.708
0
LINE
8
BLACK
6
CONTINUOUS
10
35.3575
20
-151.708
11
35.3575
21
-151.708
0
LINE
8
BLACK
6
CONTINUOUS
10
35.3575
20
-151.708
11
35.3569
21
-151.707
0
LINE
8
BLACK
6
CONTINUOUS
10
35.3569
20
-151.707
11
35.3553
21
-151.703
0
LINE
8
BLACK
6
CONTINUOUS
10
35.3553
20
-151.703
11
35.3537
21
-151.699
0
LINE
8
BLACK
6
CONTINUOUS
10
35.3537
20
-151.699
11
34.8043
21
-150.189
0
LINE
8
BLACK
6
CONTINUOUS
10
34.8043
20
-150.189
11
34.8043
21
-150.189
0
LINE
8
BLACK
6
CONTINUOUS
10
34.8043
20
-150.189
11
34.8043
21
-150.189
0
LINE
8
BLACK
6
CONTINUOUS
10
34.8043
20
-150.189
11
34.8038
21
-150.188
0
LINE
8
BLACK
6
CONTINUOUS
10
34.8038
20
-150.188
11
34.8027
21
-150.184
0
LINE
8
BLACK
6
CONTINUOUS
10
34.8027
20
-150.184
11
34.8014
21
-150.18
0
LINE
8
BLACK
6
CONTINUOUS
10
34.8014
20
-150.18
11
34.402
21
-148.624
0
LINE
8
BLACK
6
CONTINUOUS
10
34.402
20
-148.624
11
34.4019
21
-148.624
0
LINE
8
BLACK
6
CONTINUOUS
10
34.4019
20
-148.624
11
34.4019
21
-148.624
0
LINE
8
BLACK
6
CONTINUOUS
10
34.4019
20
-148.624
11
34.4016
21
-148.623
0
LINE
8
BLACK
6
CONTINUOUS
10
34.4016
20
-148.623
11
34.4008
21
-148.619
0
LINE
8
BLACK
6
CONTINUOUS
10
34.4008
20
-148.619
11
34.4
21
-148.615
0
LINE
8
BLACK
6
CONTINUOUS
10
34.4
20
-148.615
11
34.1542
21
-147.027
0
LINE
8
BLACK
6
CONTINUOUS
10
34.1542
20
-147.027
11
34.154
21
-147.026
0
LINE
8
BLACK
6
CONTINUOUS
10
34.154
20
-147.026
11
34.1537
21
-147.022
0
LINE
8
BLACK
6
CONTINUOUS
10
34.1537
20
-147.022
11
34.1532
21
-147.018
0
LINE
8
BLACK
6
CONTINUOUS
10
34.1532
20
-147.018
11
34.0636
21
-145.414
0
LINE
8
BLACK
6
CONTINUOUS
10
34.0636
20
-145.414
11
34.0635
21
-145.412
0
LINE
8
BLACK
6
CONTINUOUS
10
34.0635
20
-145.412
11
34.0635
21
-145.41
0
LINE
8
BLACK
6
CONTINUOUS
10
34.0635
20
-145.41
11
34.0634
21
-145.408
0
LINE
8
BLACK
6
CONTINUOUS
10
34.0634
20
-145.408
11
34.063
21
-145.298
0
LINE
8
BLACK
6
CONTINUOUS
10
34.063
20
-145.298
11
34.063
21
-145.298
0
LINE
8
BLACK
6
CONTINUOUS
10
34.063
20
-145.298
11
34.063
21
-53.7107
0
LINE
8
BLACK
6
CONTINUOUS
10
34.063
20
-53.7107
11
34.0632
21
-53.7083
0
LINE
8
BLACK
6
CONTINUOUS
10
34.0632
20
-53.7083
11
34.1416
21
-52.1064
0
LINE
8
BLACK
6
CONTINUOUS
10
34.1416
20
-52.1064
11
34.1417
21
-52.105
0
LINE
8
BLACK
6
CONTINUOUS
10
34.1417
20
-52.105
11
34.1421
21
-52.1008
0
LINE
8
BLACK
6
CONTINUOUS
10
34.1421
20
-52.1008
11
34.1425
21
-52.0967
0
LINE
8
BLACK
6
CONTINUOUS
10
34.1425
20
-52.0967
11
34.3772
21
-50.5076
0
LINE
8
BLACK
6
CONTINUOUS
10
34.3772
20
-50.5076
11
34.3774
21
-50.5062
0
LINE
8
BLACK
6
CONTINUOUS
10
34.3774
20
-50.5062
11
34.3783
21
-50.5022
0
LINE
8
BLACK
6
CONTINUOUS
10
34.3783
20
-50.5022
11
34.3791
21
-50.498
0
LINE
8
BLACK
6
CONTINUOUS
10
34.3791
20
-50.498
11
34.7677
21
-48.9394
0
LINE
8
BLACK
6
CONTINUOUS
10
34.7677
20
-48.9394
11
34.768
21
-48.9381
0
LINE
8
BLACK
6
CONTINUOUS
10
34.768
20
-48.9381
11
34.7693
21
-48.9341
0
LINE
8
BLACK
6
CONTINUOUS
10
34.7693
20
-48.9341
11
34.7705
21
-48.9301
0
LINE
8
BLACK
6
CONTINUOUS
10
34.7705
20
-48.9301
11
35.3093
21
-47.4169
0
LINE
8
BLACK
6
CONTINUOUS
10
35.3093
20
-47.4169
11
35.3098
21
-47.4156
0
LINE
8
BLACK
6
CONTINUOUS
10
35.3098
20
-47.4156
11
35.3115
21
-47.4117
0
LINE
8
BLACK
6
CONTINUOUS
10
35.3115
20
-47.4117
11
35.3131
21
-47.4078
0
LINE
8
BLACK
6
CONTINUOUS
10
35.3131
20
-47.4078
11
35.997
21
-45.9544
0
LINE
8
BLACK
6
CONTINUOUS
10
35.997
20
-45.9544
11
35.9976
21
-45.9532
0
LINE
8
BLACK
6
CONTINUOUS
10
35.9976
20
-45.9532
11
35.9996
21
-45.9495
0
LINE
8
BLACK
6
CONTINUOUS
10
35.9996
20
-45.9495
11
36.0016
21
-45.9458
0
LINE
8
BLACK
6
CONTINUOUS
10
36.0016
20
-45.9458
11
36.8241
21
-44.5661
0
LINE
8
BLACK
6
CONTINUOUS
10
36.8241
20
-44.5661
11
36.8241
21
-44.566
0
LINE
8
BLACK
6
CONTINUOUS
10
36.8241
20
-44.566
11
36.8241
21
-44.566
0
LINE
8
BLACK
6
CONTINUOUS
10
36.8241
20
-44.566
11
36.8248
21
-44.5649
0
LINE
8
BLACK
6
CONTINUOUS
10
36.8248
20
-44.5649
11
36.8272
21
-44.5614
0
LINE
8
BLACK
6
CONTINUOUS
10
36.8272
20
-44.5614
11
36.8295
21
-44.5579
0
LINE
8
BLACK
6
CONTINUOUS
10
36.8295
20
-44.5579
11
37.7827
21
-43.265
0
LINE
8
BLACK
6
CONTINUOUS
10
37.7827
20
-43.265
11
37.7835
21
-43.2639
0
LINE
8
BLACK
6
CONTINUOUS
10
37.7835
20
-43.2639
11
37.7862
21
-43.2607
0
LINE
8
BLACK
6
CONTINUOUS
10
37.7862
20
-43.2607
11
37.7889
21
-43.2574
0
LINE
8
BLACK
6
CONTINUOUS
10
37.7889
20
-43.2574
11
38.8637
21
-42.0637
0
LINE
8
BLACK
6
CONTINUOUS
10
38.8637
20
-42.0637
11
38.8646
21
-42.0627
0
LINE
8
BLACK
6
CONTINUOUS
10
38.8646
20
-42.0627
11
38.8676
21
-42.0598
0
LINE
8
BLACK
6
CONTINUOUS
10
38.8676
20
-42.0598
11
38.8706
21
-42.0568
0
LINE
8
BLACK
6
CONTINUOUS
10
38.8706
20
-42.0568
11
40.0567
21
-40.9737
0
LINE
8
BLACK
6
CONTINUOUS
10
40.0567
20
-40.9737
11
40.0578
21
-40.9727
0
LINE
8
BLACK
6
CONTINUOUS
10
40.0578
20
-40.9727
11
40.061
21
-40.9701
0
LINE
8
BLACK
6
CONTINUOUS
10
40.061
20
-40.9701
11
40.0643
21
-40.9675
0
LINE
8
BLACK
6
CONTINUOUS
10
40.0643
20
-40.9675
11
41.3505
21
-40.0053
0
LINE
8
BLACK
6
CONTINUOUS
10
41.3505
20
-40.0053
11
41.3505
21
-40.0052
0
LINE
8
BLACK
6
CONTINUOUS
10
41.3505
20
-40.0052
11
41.3505
21
-40.0052
0
LINE
8
BLACK
6
CONTINUOUS
10
41.3505
20
-40.0052
11
41.3516
21
-40.0044
0
LINE
8
BLACK
6
CONTINUOUS
10
41.3516
20
-40.0044
11
41.3551
21
-40.0021
0
LINE
8
BLACK
6
CONTINUOUS
10
41.3551
20
-40.0021
11
41.3586
21
-39.9998
0
LINE
8
BLACK
6
CONTINUOUS
10
41.3586
20
-39.9998
11
42.7325
21
-39.1677
0
LINE
8
BLACK
6
CONTINUOUS
10
42.7325
20
-39.1677
11
42.7337
21
-39.167
0
LINE
8
BLACK
6
CONTINUOUS
10
42.7337
20
-39.167
11
42.7374
21
-39.165
0
LINE
8
BLACK
6
CONTINUOUS
10
42.7374
20
-39.165
11
42.7411
21
-39.163
0
LINE
8
BLACK
6
CONTINUOUS
10
42.7411
20
-39.163
11
44.1897
21
-38.469
0
LINE
8
BLACK
6
CONTINUOUS
10
44.1897
20
-38.469
11
44.1897
21
-38.469
0
LINE
8
BLACK
6
CONTINUOUS
10
44.1897
20
-38.469
11
44.1898
21
-38.469
0
LINE
8
BLACK
6
CONTINUOUS
10
44.1898
20
-38.469
11
44.191
21
-38.4684
0
LINE
8
BLACK
6
CONTINUOUS
10
44.191
20
-38.4684
11
44.1949
21
-38.4668
0
LINE
8
BLACK
6
CONTINUOUS
10
44.1949
20
-38.4668
11
44.1987
21
-38.4652
0
LINE
8
BLACK
6
CONTINUOUS
10
44.1987
20
-38.4652
11
45.7081
21
-37.9158
0
LINE
8
BLACK
6
CONTINUOUS
10
45.7081
20
-37.9158
11
45.7082
21
-37.9158
0
LINE
8
BLACK
6
CONTINUOUS
10
45.7082
20
-37.9158
11
45.7082
21
-37.9158
0
LINE
8
BLACK
6
CONTINUOUS
10
45.7082
20
-37.9158
11
45.7095
21
-37.9153
0
LINE
8
BLACK
6
CONTINUOUS
10
45.7095
20
-37.9153
11
45.7135
21
-37.9142
0
LINE
8
BLACK
6
CONTINUOUS
10
45.7135
20
-37.9142
11
45.7175
21
-37.9129
0
LINE
8
BLACK
6
CONTINUOUS
10
45.7175
20
-37.9129
11
47.2733
21
-37.5135
0
LINE
8
BLACK
6
CONTINUOUS
10
47.2733
20
-37.5135
11
47.2733
21
-37.5134
0
LINE
8
BLACK
6
CONTINUOUS
10
47.2733
20
-37.5134
11
47.2733
21
-37.5134
0
LINE
8
BLACK
6
CONTINUOUS
10
47.2733
20
-37.5134
11
47.2747
21
-37.5131
0
LINE
8
BLACK
6
CONTINUOUS
10
47.2747
20
-37.5131
11
47.2788
21
-37.5123
0
LINE
8
BLACK
6
CONTINUOUS
10
47.2788
20
-37.5123
11
47.2829
21
-37.5115
0
LINE
8
BLACK
6
CONTINUOUS
10
47.2829
20
-37.5115
11
48.8703
21
-37.2657
0
LINE
8
BLACK
6
CONTINUOUS
10
48.8703
20
-37.2657
11
48.8717
21
-37.2655
0
LINE
8
BLACK
6
CONTINUOUS
10
48.8717
20
-37.2655
11
48.8759
21
-37.2652
0
LINE
8
BLACK
6
CONTINUOUS
10
48.8759
20
-37.2652
11
48.88
21
-37.2647
0
LINE
8
BLACK
6
CONTINUOUS
10
48.88
20
-37.2647
11
50.4838
21
-37.1751
0
LINE
8
BLACK
6
CONTINUOUS
10
50.4838
20
-37.1751
11
50.4852
21
-37.175
0
LINE
8
BLACK
6
CONTINUOUS
10
50.4852
20
-37.175
11
50.4871
21
-37.175
0
LINE
8
BLACK
6
CONTINUOUS
10
50.4871
20
-37.175
11
50.489
21
-37.1749
0
LINE
8
BLACK
6
CONTINUOUS
10
50.489
20
-37.1749
11
50.5991
21
-37.1745
0
LINE
8
BLACK
6
CONTINUOUS
10
50.5991
20
-37.1745
11
50.5992
21
-37.1745
0
LINE
8
BLACK
6
CONTINUOUS
10
50.5992
20
-37.1745
11
142.187
21
-37.1745
0
LINE
8
BLACK
6
CONTINUOUS
10
142.187
20
-37.1745
11
142.189
21
-37.1747
0
LINE
8
BLACK
6
CONTINUOUS
10
50.6042
20
-37.3745
11
50.4923
21
-37.3749
0
LINE
8
BLACK
6
CONTINUOUS
10
50.4923
20
-37.3749
11
48.896
21
-37.4641
0
LINE
8
BLACK
6
CONTINUOUS
10
48.896
20
-37.4641
11
47.3183
21
-37.7084
0
LINE
8
BLACK
6
CONTINUOUS
10
47.3183
20
-37.7084
11
45.772
21
-38.1054
0
LINE
8
BLACK
6
CONTINUOUS
10
45.772
20
-38.1054
11
44.2717
21
-38.6515
0
LINE
8
BLACK
6
CONTINUOUS
10
44.2717
20
-38.6515
11
42.832
21
-39.3413
0
LINE
8
BLACK
6
CONTINUOUS
10
42.832
20
-39.3413
11
41.4664
21
-40.1683
0
LINE
8
BLACK
6
CONTINUOUS
10
41.4664
20
-40.1683
11
40.188
21
-41.1247
0
LINE
8
BLACK
6
CONTINUOUS
10
40.188
20
-41.1247
11
39.009
21
-42.2012
0
LINE
8
BLACK
6
CONTINUOUS
10
39.009
20
-42.2012
11
37.9408
21
-43.3876
0
LINE
8
BLACK
6
CONTINUOUS
10
37.9408
20
-43.3876
11
36.9934
21
-44.6727
0
LINE
8
BLACK
6
CONTINUOUS
10
36.9934
20
-44.6727
11
36.1759
21
-46.044
0
LINE
8
BLACK
6
CONTINUOUS
10
36.1759
20
-46.044
11
35.4961
21
-47.4886
0
LINE
8
BLACK
6
CONTINUOUS
10
35.4961
20
-47.4886
11
34.9606
21
-48.9926
0
LINE
8
BLACK
6
CONTINUOUS
10
34.9606
20
-48.9926
11
34.5743
21
-50.5417
0
LINE
8
BLACK
6
CONTINUOUS
10
34.5743
20
-50.5417
11
34.3411
21
-52.121
0
LINE
8
BLACK
6
CONTINUOUS
10
34.3411
20
-52.121
11
34.263
21
-53.7181
0
LINE
8
BLACK
6
CONTINUOUS
10
34.263
20
-53.7181
11
34.263
21
-145.293
0
LINE
8
BLACK
6
CONTINUOUS
10
34.263
20
-145.293
11
34.2634
21
-145.405
0
LINE
8
BLACK
6
CONTINUOUS
10
34.2634
20
-145.405
11
34.3526
21
-147.001
0
LINE
8
BLACK
6
CONTINUOUS
10
34.3526
20
-147.001
11
34.5969
21
-148.579
0
LINE
8
BLACK
6
CONTINUOUS
10
34.5969
20
-148.579
11
34.9939
21
-150.126
0
LINE
8
BLACK
6
CONTINUOUS
10
34.9939
20
-150.126
11
35.54
21
-151.626
0
LINE
8
BLACK
6
CONTINUOUS
10
35.54
20
-151.626
11
36.2298
21
-153.066
0
LINE
8
BLACK
6
CONTINUOUS
10
36.2298
20
-153.066
11
37.0568
21
-154.431
0
LINE
8
BLACK
6
CONTINUOUS
10
37.0568
20
-154.431
11
38.0132
21
-155.71
0
LINE
8
BLACK
6
CONTINUOUS
10
38.0132
20
-155.71
11
39.0897
21
-156.888
0
LINE
8
BLACK
6
CONTINUOUS
10
39.0897
20
-156.888
11
40.2761
21
-157.957
0
LINE
8
BLACK
6
CONTINUOUS
10
40.2761
20
-157.957
11
41.5612
21
-158.904
0
LINE
8
BLACK
6
CONTINUOUS
10
41.5612
20
-158.904
11
42.9325
21
-159.722
0
LINE
8
BLACK
6
CONTINUOUS
10
42.9325
20
-159.722
11
44.3771
21
-160.401
0
LINE
8
BLACK
6
CONTINUOUS
10
44.3771
20
-160.401
11
45.8811
21
-160.937
0
LINE
8
BLACK
6
CONTINUOUS
10
45.8811
20
-160.937
11
47.4302
21
-161.323
0
LINE
8
BLACK
6
CONTINUOUS
10
47.4302
20
-161.323
11
49.0095
21
-161.556
0
LINE
8
BLACK
6
CONTINUOUS
10
49.0095
20
-161.556
11
50.6066
21
-161.635
0
LINE
8
BLACK
6
CONTINUOUS
10
50.6066
20
-161.635
11
142.182
21
-161.635
0
LINE
8
BLACK
6
CONTINUOUS
10
142.182
20
-161.635
11
142.294
21
-161.634
0
LINE
8
BLACK
6
CONTINUOUS
10
142.294
20
-161.634
11
143.89
21
-161.545
0
LINE
8
BLACK
6
CONTINUOUS
10
143.89
20
-161.545
11
145.468
21
-161.301
0
LINE
8
BLACK
6
CONTINUOUS
10
145.468
20
-161.301
11
147.014
21
-160.904
0
LINE
8
BLACK
6
CONTINUOUS
10
147.014
20
-160.904
11
148.514
21
-160.358
0
LINE
8
BLACK
6
CONTINUOUS
10
148.514
20
-160.358
11
149.954
21
-159.668
0
LINE
8
BLACK
6
CONTINUOUS
10
149.954
20
-159.668
11
151.32
21
-158.841
0
LINE
8
BLACK
6
CONTINUOUS
10
151.32
20
-158.841
11
152.598
21
-157.884
0
LINE
8
BLACK
6
CONTINUOUS
10
152.598
20
-157.884
11
153.777
21
-156.808
0
LINE
8
BLACK
6
CONTINUOUS
10
153.777
20
-156.808
11
154.845
21
-155.621
0
LINE
8
BLACK
6
CONTINUOUS
10
154.845
20
-155.621
11
155.793
21
-154.336
0
LINE
8
BLACK
6
CONTINUOUS
10
155.793
20
-154.336
11
156.61
21
-152.965
0
LINE
8
BLACK
6
CONTINUOUS
10
156.61
20
-152.965
11
157.29
21
-151.52
0
LINE
8
BLACK
6
CONTINUOUS
10
157.29
20
-151.52
11
157.825
21
-150.016
0
LINE
8
BLACK
6
CONTINUOUS
10
157.825
20
-150.016
11
158.212
21
-148.467
0
LINE
8
BLACK
6
CONTINUOUS
10
158.212
20
-148.467
11
158.445
21
-146.888
0
LINE
8
BLACK
6
CONTINUOUS
10
158.445
20
-146.888
11
158.523
21
-145.291
0
LINE
8
BLACK
6
CONTINUOUS
10
158.523
20
-145.291
11
158.523
21
-53.716
0
LINE
8
BLACK
6
CONTINUOUS
10
158.523
20
-53.716
11
158.523
21
-53.6038
0
LINE
8
BLACK
6
CONTINUOUS
10
158.523
20
-53.6038
11
158.433
21
-52.0075
0
LINE
8
BLACK
6
CONTINUOUS
10
158.433
20
-52.0075
11
158.189
21
-50.4298
0
LINE
8
BLACK
6
CONTINUOUS
10
158.189
20
-50.4298
11
157.792
21
-48.8835
0
LINE
8
BLACK
6
CONTINUOUS
10
157.792
20
-48.8835
11
157.246
21
-47.3832
0
LINE
8
BLACK
6
CONTINUOUS
10
157.246
20
-47.3832
11
156.556
21
-45.9435
0
LINE
8
BLACK
6
CONTINUOUS
10
156.556
20
-45.9435
11
155.729
21
-44.5779
0
LINE
8
BLACK
6
CONTINUOUS
10
155.729
20
-44.5779
11
154.773
21
-43.2995
0
LINE
8
BLACK
6
CONTINUOUS
10
154.773
20
-43.2995
11
153.696
21
-42.1205
0
LINE
8
BLACK
6
CONTINUOUS
10
153.696
20
-42.1205
11
152.51
21
-41.0523
0
LINE
8
BLACK
6
CONTINUOUS
10
152.51
20
-41.0523
11
151.225
21
-40.1049
0
LINE
8
BLACK
6
CONTINUOUS
10
151.225
20
-40.1049
11
149.854
21
-39.2874
0
LINE
8
BLACK
6
CONTINUOUS
10
149.854
20
-39.2874
11
148.409
21
-38.6076
0
LINE
8
BLACK
6
CONTINUOUS
10
148.409
20
-38.6076
11
146.905
21
-38.0721
0
LINE
8
BLACK
6
CONTINUOUS
10
146.905
20
-38.0721
11
145.356
21
-37.6858
0
LINE
8
BLACK
6
CONTINUOUS
10
145.356
20
-37.6858
11
143.776
21
-37.4526
0
LINE
8
BLACK
6
CONTINUOUS
10
143.776
20
-37.4526
11
142.179
21
-37.3745
0
LINE
8
BLACK
6
CONTINUOUS
10
142.179
20
-37.3745
11
50.6042
21
-37.3745
0
LINE
8
BLACK
6
CONTINUOUS
10
33.8651
20
-174.007
11
33.9756
21
-173.74
0
LINE
8
BLACK
6
CONTINUOUS
10
33.9756
20
-173.74
11
34.136
21
-173.5
0
LINE
8
BLACK
6
CONTINUOUS
10
34.136
20
-173.5
11
34.3401
21
-173.296
0
LINE
8
BLACK
6
CONTINUOUS
10
34.3401
20
-173.296
11
34.5801
21
-173.136
0
LINE
8
BLACK
6
CONTINUOUS
10
34.5801
20
-173.136
11
34.8468
21
-173.025
0
LINE
8
BLACK
6
CONTINUOUS
10
34.8468
20
-173.025
11
35.1299
21
-172.969
0
LINE
8
BLACK
6
CONTINUOUS
10
35.1299
20
-172.969
11
35.4186
21
-172.969
0
LINE
8
BLACK
6
CONTINUOUS
10
35.4186
20
-172.969
11
35.7017
21
-173.025
0
LINE
8
BLACK
6
CONTINUOUS
10
35.7017
20
-173.025
11
35.9684
21
-173.136
0
LINE
8
BLACK
6
CONTINUOUS
10
35.9684
20
-173.136
11
36.2084
21
-173.296
0
LINE
8
BLACK
6
CONTINUOUS
10
36.2084
20
-173.296
11
36.4125
21
-173.5
0
LINE
8
BLACK
6
CONTINUOUS
10
36.4125
20
-173.5
11
36.5729
21
-173.74
0
LINE
8
BLACK
6
CONTINUOUS
10
36.5729
20
-173.74
11
36.6834
21
-174.007
0
LINE
8
BLACK
6
CONTINUOUS
10
36.6834
20
-174.007
11
36.7397
21
-174.29
0
LINE
8
BLACK
6
CONTINUOUS
10
36.7397
20
-174.29
11
36.7397
21
-174.579
0
LINE
8
BLACK
6
CONTINUOUS
10
36.7397
20
-174.579
11
36.6834
21
-174.862
0
LINE
8
BLACK
6
CONTINUOUS
10
36.6834
20
-174.862
11
36.5729
21
-175.129
0
LINE
8
BLACK
6
CONTINUOUS
10
36.5729
20
-175.129
11
36.4125
21
-175.369
0
LINE
8
BLACK
6
CONTINUOUS
10
36.4125
20
-175.369
11
36.2084
21
-175.573
0
LINE
8
BLACK
6
CONTINUOUS
10
36.2084
20
-175.573
11
35.9684
21
-175.733
0
LINE
8
BLACK
6
CONTINUOUS
10
35.9684
20
-175.733
11
35.7017
21
-175.844
0
LINE
8
BLACK
6
CONTINUOUS
10
35.7017
20
-175.844
11
35.4186
21
-175.9
0
LINE
8
BLACK
6
CONTINUOUS
10
35.4186
20
-175.9
11
35.1299
21
-175.9
0
LINE
8
BLACK
6
CONTINUOUS
10
35.1299
20
-175.9
11
34.8468
21
-175.844
0
LINE
8
BLACK
6
CONTINUOUS
10
34.8468
20
-175.844
11
34.5801
21
-175.733
0
LINE
8
BLACK
6
CONTINUOUS
10
34.5801
20
-175.733
11
34.3401
21
-175.573
0
LINE
8
BLACK
6
CONTINUOUS
10
34.3401
20
-175.573
11
34.136
21
-175.369
0
LINE
8
BLACK
6
CONTINUOUS
10
34.136
20
-175.369
11
33.9756
21
-175.129
0
LINE
8
BLACK
6
CONTINUOUS
10
33.9756
20
-175.129
11
33.8651
21
-174.862
0
LINE
8
BLACK
6
CONTINUOUS
10
33.8651
20
-174.862
11
33.8088
21
-174.579
0
LINE
8
BLACK
6
CONTINUOUS
10
33.8088
20
-174.579
11
33.8088
21
-174.29
0
LINE
8
BLACK
6
CONTINUOUS
10
33.8088
20
-174.29
11
33.8651
21
-174.007
0
LINE
8
BLACK
6
CONTINUOUS
10
34.0756
20
-174.798
11
34.1696
21
-175.025
0
LINE
8
BLACK
6
CONTINUOUS
10
34.1696
20
-175.025
11
34.306
21
-175.229
0
LINE
8
BLACK
6
CONTINUOUS
10
34.306
20
-175.229
11
34.4796
21
-175.403
0
LINE
8
BLACK
6
CONTINUOUS
10
34.4796
20
-175.403
11
34.6838
21
-175.539
0
LINE
8
BLACK
6
CONTINUOUS
10
34.6838
20
-175.539
11
34.9107
21
-175.633
0
LINE
8
BLACK
6
CONTINUOUS
10
34.9107
20
-175.633
11
35.1515
21
-175.681
0
LINE
8
BLACK
6
CONTINUOUS
10
35.1515
20
-175.681
11
35.397
21
-175.681
0
LINE
8
BLACK
6
CONTINUOUS
10
35.397
20
-175.681
11
35.6378
21
-175.633
0
LINE
8
BLACK
6
CONTINUOUS
10
35.6378
20
-175.633
11
35.8647
21
-175.539
0
LINE
8
BLACK
6
CONTINUOUS
10
35.8647
20
-175.539
11
36.0689
21
-175.403
0
LINE
8
BLACK
6
CONTINUOUS
10
36.0689
20
-175.403
11
36.2425
21
-175.229
0
LINE
8
BLACK
6
CONTINUOUS
10
36.2425
20
-175.229
11
36.3789
21
-175.025
0
LINE
8
BLACK
6
CONTINUOUS
10
36.3789
20
-175.025
11
36.4729
21
-174.798
0
LINE
8
BLACK
6
CONTINUOUS
10
36.4729
20
-174.798
11
36.5208
21
-174.557
0
LINE
8
BLACK
6
CONTINUOUS
10
36.5208
20
-174.557
11
36.5208
21
-174.312
0
LINE
8
BLACK
6
CONTINUOUS
10
36.5208
20
-174.312
11
36.4729
21
-174.071
0
LINE
8
BLACK
6
CONTINUOUS
10
36.4729
20
-174.071
11
36.3789
21
-173.844
0
LINE
8
BLACK
6
CONTINUOUS
10
36.3789
20
-173.844
11
36.2425
21
-173.64
0
LINE
8
BLACK
6
CONTINUOUS
10
36.2425
20
-173.64
11
36.0689
21
-173.466
0
LINE
8
BLACK
6
CONTINUOUS
10
36.0689
20
-173.466
11
35.8647
21
-173.33
0
LINE
8
BLACK
6
CONTINUOUS
10
35.8647
20
-173.33
11
35.6378
21
-173.236
0
LINE
8
BLACK
6
CONTINUOUS
10
35.6378
20
-173.236
11
35.397
21
-173.188
0
LINE
8
BLACK
6
CONTINUOUS
10
35.397
20
-173.188
11
35.1515
21
-173.188
0
LINE
8
BLACK
6
CONTINUOUS
10
35.1515
20
-173.188
11
34.9107
21
-173.236
0
LINE
8
BLACK
6
CONTINUOUS
10
34.9107
20
-173.236
11
34.6838
21
-173.33
0
LINE
8
BLACK
6
CONTINUOUS
10
34.6838
20
-173.33
11
34.4796
21
-173.466
0
LINE
8
BLACK
6
CONTINUOUS
10
34.4796
20
-173.466
11
34.306
21
-173.64
0
LINE
8
BLACK
6
CONTINUOUS
10
34.306
20
-173.64
11
34.1696
21
-173.844
0
LINE
8
BLACK
6
CONTINUOUS
10
34.1696
20
-173.844
11
34.0756
21
-174.071
0
LINE
8
BLACK
6
CONTINUOUS
10
34.0756
20
-174.071
11
34.0277
21
-174.312
0
LINE
8
BLACK
6
CONTINUOUS
10
34.0277
20
-174.312
11
34.0277
21
-174.557
0
LINE
8
BLACK
6
CONTINUOUS
10
34.0277
20
-174.557
11
34.0756
21
-174.798
0
LINE
8
BLACK
6
CONTINUOUS
10
156.103
20
-174.007
11
156.213
21
-173.74
0
LINE
8
BLACK
6
CONTINUOUS
10
156.213
20
-173.74
11
156.373
21
-173.5
0
LINE
8
BLACK
6
CONTINUOUS
10
156.373
20
-173.5
11
156.578
21
-173.296
0
LINE
8
BLACK
6
CONTINUOUS
10
156.578
20
-173.296
11
156.818
21
-173.136
0
LINE
8
BLACK
6
CONTINUOUS
10
156.818
20
-173.136
11
157.084
21
-173.025
0
LINE
8
BLACK
6
CONTINUOUS
10
157.084
20
-173.025
11
157.367
21
-172.969
0
LINE
8
BLACK
6
CONTINUOUS
10
157.367
20
-172.969
11
157.656
21
-172.969
0
LINE
8
BLACK
6
CONTINUOUS
10
157.656
20
-172.969
11
157.939
21
-173.025
0
LINE
8
BLACK
6
CONTINUOUS
10
157.939
20
-173.025
11
158.206
21
-173.136
0
LINE
8
BLACK
6
CONTINUOUS
10
158.206
20
-173.136
11
158.446
21
-173.296
0
LINE
8
BLACK
6
CONTINUOUS
10
158.446
20
-173.296
11
158.65
21
-173.5
0
LINE
8
BLACK
6
CONTINUOUS
10
158.65
20
-173.5
11
158.81
21
-173.74
0
LINE
8
BLACK
6
CONTINUOUS
10
158.81
20
-173.74
11
158.921
21
-174.007
0
LINE
8
BLACK
6
CONTINUOUS
10
158.921
20
-174.007
11
158.977
21
-174.29
0
LINE
8
BLACK
6
CONTINUOUS
10
158.977
20
-174.29
11
158.977
21
-174.579
0
LINE
8
BLACK
6
CONTINUOUS
10
158.977
20
-174.579
11
158.921
21
-174.862
0
LINE
8
BLACK
6
CONTINUOUS
10
158.921
20
-174.862
11
158.81
21
-175.129
0
LINE
8
BLACK
6
CONTINUOUS
10
158.81
20
-175.129
11
158.65
21
-175.369
0
LINE
8
BLACK
6
CONTINUOUS
10
158.65
20
-175.369
11
158.446
21
-175.573
0
LINE
8
BLACK
6
CONTINUOUS
10
158.446
20
-175.573
11
158.206
21
-175.733
0
LINE
8
BLACK
6
CONTINUOUS
10
158.206
20
-175.733
11
157.939
21
-175.844
0
LINE
8
BLACK
6
CONTINUOUS
10
157.939
20
-175.844
11
157.656
21
-175.9
0
LINE
8
BLACK
6
CONTINUOUS
10
157.656
20
-175.9
11
157.367
21
-175.9
0
LINE
8
BLACK
6
CONTINUOUS
10
157.367
20
-175.9
11
157.084
21
-175.844
0
LINE
8
BLACK
6
CONTINUOUS
10
157.084
20
-175.844
11
156.818
21
-175.733
0
LINE
8
BLACK
6
CONTINUOUS
10
156.818
20
-175.733
11
156.578
21
-175.573
0
LINE
8
BLACK
6
CONTINUOUS
10
156.578
20
-175.573
11
156.373
21
-175.369
0
LINE
8
BLACK
6
CONTINUOUS
10
156.373
20
-175.369
11
156.213
21
-175.129
0
LINE
8
BLACK
6
CONTINUOUS
10
156.213
20
-175.129
11
156.103
21
-174.862
0
LINE
8
BLACK
6
CONTINUOUS
10
156.103
20
-174.862
11
156.046
21
-174.579
0
LINE
8
BLACK
6
CONTINUOUS
10
156.046
20
-174.579
11
156.046
21
-174.29
0
LINE
8
BLACK
6
CONTINUOUS
10
156.046
20
-174.29
11
156.103
21
-174.007
0
LINE
8
BLACK
6
CONTINUOUS
10
156.313
20
-174.798
11
156.407
21
-175.025
0
LINE
8
BLACK
6
CONTINUOUS
10
156.407
20
-175.025
11
156.544
21
-175.229
0
LINE
8
BLACK
6
CONTINUOUS
10
156.544
20
-175.229
11
156.717
21
-175.403
0
LINE
8
BLACK
6
CONTINUOUS
10
156.717
20
-175.403
11
156.921
21
-175.539
0
LINE
8
BLACK
6
CONTINUOUS
10
156.921
20
-175.539
11
157.148
21
-175.633
0
LINE
8
BLACK
6
CONTINUOUS
10
157.148
20
-175.633
11
157.389
21
-175.681
0
LINE
8
BLACK
6
CONTINUOUS
10
157.389
20
-175.681
11
157.635
21
-175.681
0
LINE
8
BLACK
6
CONTINUOUS
10
157.635
20
-175.681
11
157.875
21
-175.633
0
LINE
8
BLACK
6
CONTINUOUS
10
157.875
20
-175.633
11
158.102
21
-175.539
0
LINE
8
BLACK
6
CONTINUOUS
10
158.102
20
-175.539
11
158.306
21
-175.403
0
LINE
8
BLACK
6
CONTINUOUS
10
158.306
20
-175.403
11
158.48
21
-175.229
0
LINE
8
BLACK
6
CONTINUOUS
10
158.48
20
-175.229
11
158.616
21
-175.025
0
LINE
8
BLACK
6
CONTINUOUS
10
158.616
20
-175.025
11
158.71
21
-174.798
0
LINE
8
BLACK
6
CONTINUOUS
10
158.71
20
-174.798
11
158.758
21
-174.557
0
LINE
8
BLACK
6
CONTINUOUS
10
158.758
20
-174.557
11
158.758
21
-174.312
0
LINE
8
BLACK
6
CONTINUOUS
10
158.758
20
-174.312
11
158.71
21
-174.071
0
LINE
8
BLACK
6
CONTINUOUS
10
158.71
20
-174.071
11
158.616
21
-173.844
0
LINE
8
BLACK
6
CONTINUOUS
10
158.616
20
-173.844
11
158.48
21
-173.64
0
LINE
8
BLACK
6
CONTINUOUS
10
158.48
20
-173.64
11
158.306
21
-173.466
0
LINE
8
BLACK
6
CONTINUOUS
10
158.306
20
-173.466
11
158.102
21
-173.33
0
LINE
8
BLACK
6
CONTINUOUS
10
158.102
20
-173.33
11
157.875
21
-173.236
0
LINE
8
BLACK
6
CONTINUOUS
10
157.875
20
-173.236
11
157.635
21
-173.188
0
LINE
8
BLACK
6
CONTINUOUS
10
157.635
20
-173.188
11
157.389
21
-173.188
0
LINE
8
BLACK
6
CONTINUOUS
10
157.389
20
-173.188
11
157.148
21
-173.236
0
LINE
8
BLACK
6
CONTINUOUS
10
157.148
20
-173.236
11
156.921
21
-173.33
0
LINE
8
BLACK
6
CONTINUOUS
10
156.921
20
-173.33
11
156.717
21
-173.466
0
LINE
8
BLACK
6
CONTINUOUS
10
156.717
20
-173.466
11
156.544
21
-173.64
0
LINE
8
BLACK
6
CONTINUOUS
10
156.544
20
-173.64
11
156.407
21
-173.844
0
LINE
8
BLACK
6
CONTINUOUS
10
156.407
20
-173.844
11
156.313
21
-174.071
0
LINE
8
BLACK
6
CONTINUOUS
10
156.313
20
-174.071
11
156.265
21
-174.312
0
LINE
8
BLACK
6
CONTINUOUS
10
156.265
20
-174.312
11
156.265
21
-174.557
0
LINE
8
BLACK
6
CONTINUOUS
10
156.265
20
-174.557
11
156.313
21
-174.798
0
LINE
8
BLACK
6
CONTINUOUS
10
21.1939
20
-162.704
11
21.5921
21
-161.877
0
LINE
8
BLACK
6
CONTINUOUS
10
21.5921
20
-161.877
11
22.1317
21
-161.134
0
LINE
8
BLACK
6
CONTINUOUS
10
22.1317
20
-161.134
11
22.7951
21
-160.5
0
LINE
8
BLACK
6
CONTINUOUS
10
22.7951
20
-160.5
11
23.5612
21
-159.994
0
LINE
8
BLACK
6
CONTINUOUS
10
23.5612
20
-159.994
11
24.4052
21
-159.634
0
LINE
8
BLACK
6
CONTINUOUS
10
24.4052
20
-159.634
11
25.3001
21
-159.429
0
LINE
8
BLACK
6
CONTINUOUS
10
25.3001
20
-159.429
11
26.2171
21
-159.388
0
LINE
8
BLACK
6
CONTINUOUS
10
26.2171
20
-159.388
11
27.1267
21
-159.511
0
LINE
8
BLACK
6
CONTINUOUS
10
27.1267
20
-159.511
11
27.9997
21
-159.795
0
LINE
8
BLACK
6
CONTINUOUS
10
27.9997
20
-159.795
11
28.808
21
-160.23
0
LINE
8
BLACK
6
CONTINUOUS
10
28.808
20
-160.23
11
29.5256
21
-160.802
0
LINE
8
BLACK
6
CONTINUOUS
10
29.5256
20
-160.802
11
30.1295
21
-161.494
0
LINE
8
BLACK
6
CONTINUOUS
10
30.1295
20
-161.494
11
30.6003
21
-162.282
0
LINE
8
BLACK
6
CONTINUOUS
10
30.6003
20
-162.282
11
30.9229
21
-163.141
0
LINE
8
BLACK
6
CONTINUOUS
10
30.9229
20
-163.141
11
31.0868
21
-164.044
0
LINE
8
BLACK
6
CONTINUOUS
10
31.0868
20
-164.044
11
31.0868
21
-164.962
0
LINE
8
BLACK
6
CONTINUOUS
10
31.0868
20
-164.962
11
30.9229
21
-165.865
0
LINE
8
BLACK
6
CONTINUOUS
10
30.9229
20
-165.865
11
30.6003
21
-166.725
0
LINE
8
BLACK
6
CONTINUOUS
10
30.6003
20
-166.725
11
30.1295
21
-167.513
0
LINE
8
BLACK
6
CONTINUOUS
10
30.1295
20
-167.513
11
29.5256
21
-168.204
0
LINE
8
BLACK
6
CONTINUOUS
10
29.5256
20
-168.204
11
28.808
21
-168.776
0
LINE
8
BLACK
6
CONTINUOUS
10
28.808
20
-168.776
11
27.9997
21
-169.211
0
LINE
8
BLACK
6
CONTINUOUS
10
27.9997
20
-169.211
11
27.1267
21
-169.495
0
LINE
8
BLACK
6
CONTINUOUS
10
27.1267
20
-169.495
11
26.2171
21
-169.618
0
LINE
8
BLACK
6
CONTINUOUS
10
26.2171
20
-169.618
11
25.3001
21
-169.577
0
LINE
8
BLACK
6
CONTINUOUS
10
25.3001
20
-169.577
11
24.4052
21
-169.373
0
LINE
8
BLACK
6
CONTINUOUS
10
24.4052
20
-169.373
11
23.5612
21
-169.012
0
LINE
8
BLACK
6
CONTINUOUS
10
23.5612
20
-169.012
11
22.7951
21
-168.506
0
LINE
8
BLACK
6
CONTINUOUS
10
22.7951
20
-168.506
11
22.1317
21
-167.872
0
LINE
8
BLACK
6
CONTINUOUS
10
22.1317
20
-167.872
11
21.5921
21
-167.129
0
LINE
8
BLACK
6
CONTINUOUS
10
21.5921
20
-167.129
11
21.1939
21
-166.302
0
LINE
8
BLACK
6
CONTINUOUS
10
21.1939
20
-166.302
11
20.9497
21
-165.417
0
LINE
8
BLACK
6
CONTINUOUS
10
20.9497
20
-165.417
11
20.8674
21
-164.503
0
LINE
8
BLACK
6
CONTINUOUS
10
20.8674
20
-164.503
11
20.9497
21
-163.589
0
LINE
8
BLACK
6
CONTINUOUS
10
20.9497
20
-163.589
11
21.1939
21
-162.704
0
LINE
8
BLACK
6
CONTINUOUS
10
21.3998
20
-166.225
11
21.781
21
-167.016
0
LINE
8
BLACK
6
CONTINUOUS
10
21.781
20
-167.016
11
22.2973
21
-167.727
0
LINE
8
BLACK
6
CONTINUOUS
10
22.2973
20
-167.727
11
22.9323
21
-168.334
0
LINE
8
BLACK
6
CONTINUOUS
10
22.9323
20
-168.334
11
23.6654
21
-168.818
0
LINE
8
BLACK
6
CONTINUOUS
10
23.6654
20
-168.818
11
24.4732
21
-169.163
0
LINE
8
BLACK
6
CONTINUOUS
10
24.4732
20
-169.163
11
25.3296
21
-169.359
0
LINE
8
BLACK
6
CONTINUOUS
10
25.3296
20
-169.359
11
26.2072
21
-169.398
0
LINE
8
BLACK
6
CONTINUOUS
10
26.2072
20
-169.398
11
27.0777
21
-169.28
0
LINE
8
BLACK
6
CONTINUOUS
10
27.0777
20
-169.28
11
27.9132
21
-169.009
0
LINE
8
BLACK
6
CONTINUOUS
10
27.9132
20
-169.009
11
28.6868
21
-168.593
0
LINE
8
BLACK
6
CONTINUOUS
10
28.6868
20
-168.593
11
29.3736
21
-168.045
0
LINE
8
BLACK
6
CONTINUOUS
10
29.3736
20
-168.045
11
29.9516
21
-167.383
0
LINE
8
BLACK
6
CONTINUOUS
10
29.9516
20
-167.383
11
30.4021
21
-166.629
0
LINE
8
BLACK
6
CONTINUOUS
10
30.4021
20
-166.629
11
30.7108
21
-165.807
0
LINE
8
BLACK
6
CONTINUOUS
10
30.7108
20
-165.807
11
30.8677
21
-164.942
0
LINE
8
BLACK
6
CONTINUOUS
10
30.8677
20
-164.942
11
30.8677
21
-164.064
0
LINE
8
BLACK
6
CONTINUOUS
10
30.8677
20
-164.064
11
30.7108
21
-163.2
0
LINE
8
BLACK
6
CONTINUOUS
10
30.7108
20
-163.2
11
30.4021
21
-162.377
0
LINE
8
BLACK
6
CONTINUOUS
10
30.4021
20
-162.377
11
29.9516
21
-161.623
0
LINE
8
BLACK
6
CONTINUOUS
10
29.9516
20
-161.623
11
29.3736
21
-160.961
0
LINE
8
BLACK
6
CONTINUOUS
10
29.3736
20
-160.961
11
28.6868
21
-160.414
0
LINE
8
BLACK
6
CONTINUOUS
10
28.6868
20
-160.414
11
27.9132
21
-159.997
0
LINE
8
BLACK
6
CONTINUOUS
10
27.9132
20
-159.997
11
27.0777
21
-159.726
0
LINE
8
BLACK
6
CONTINUOUS
10
27.0777
20
-159.726
11
26.2072
21
-159.608
0
LINE
8
BLACK
6
CONTINUOUS
10
26.2072
20
-159.608
11
25.3296
21
-159.647
0
LINE
8
BLACK
6
CONTINUOUS
10
25.3296
20
-159.647
11
24.4732
21
-159.843
0
LINE
8
BLACK
6
CONTINUOUS
10
24.4732
20
-159.843
11
23.6654
21
-160.188
0
LINE
8
BLACK
6
CONTINUOUS
10
23.6654
20
-160.188
11
22.9323
21
-160.672
0
LINE
8
BLACK
6
CONTINUOUS
10
22.9323
20
-160.672
11
22.2973
21
-161.279
0
LINE
8
BLACK
6
CONTINUOUS
10
22.2973
20
-161.279
11
21.781
21
-161.99
0
LINE
8
BLACK
6
CONTINUOUS
10
21.781
20
-161.99
11
21.3998
21
-162.781
0
LINE
8
BLACK
6
CONTINUOUS
10
21.3998
20
-162.781
11
21.1661
21
-163.628
0
LINE
8
BLACK
6
CONTINUOUS
10
21.1661
20
-163.628
11
21.0874
21
-164.503
0
LINE
8
BLACK
6
CONTINUOUS
10
21.0874
20
-164.503
11
21.1661
21
-165.378
0
LINE
8
BLACK
6
CONTINUOUS
10
21.1661
20
-165.378
11
21.3998
21
-166.225
0
LINE
8
BLACK
6
CONTINUOUS
10
162.005
20
-162.704
11
162.403
21
-161.877
0
LINE
8
BLACK
6
CONTINUOUS
10
162.403
20
-161.877
11
162.943
21
-161.134
0
LINE
8
BLACK
6
CONTINUOUS
10
162.943
20
-161.134
11
163.606
21
-160.5
0
LINE
8
BLACK
6
CONTINUOUS
10
163.606
20
-160.5
11
164.372
21
-159.994
0
LINE
8
BLACK
6
CONTINUOUS
10
164.372
20
-159.994
11
165.216
21
-159.634
0
LINE
8
BLACK
6
CONTINUOUS
10
165.216
20
-159.634
11
166.111
21
-159.429
0
LINE
8
BLACK
6
CONTINUOUS
10
166.111
20
-159.429
11
167.028
21
-159.388
0
LINE
8
BLACK
6
CONTINUOUS
10
167.028
20
-159.388
11
167.938
21
-159.511
0
LINE
8
BLACK
6
CONTINUOUS
10
167.938
20
-159.511
11
168.811
21
-159.795
0
LINE
8
BLACK
6
CONTINUOUS
10
168.811
20
-159.795
11
169.619
21
-160.23
0
LINE
8
BLACK
6
CONTINUOUS
10
169.619
20
-160.23
11
170.337
21
-160.802
0
LINE
8
BLACK
6
CONTINUOUS
10
170.337
20
-160.802
11
170.941
21
-161.494
0
LINE
8
BLACK
6
CONTINUOUS
10
170.941
20
-161.494
11
171.412
21
-162.282
0
LINE
8
BLACK
6
CONTINUOUS
10
171.412
20
-162.282
11
171.734
21
-163.141
0
LINE
8
BLACK
6
CONTINUOUS
10
171.734
20
-163.141
11
171.898
21
-164.044
0
LINE
8
BLACK
6
CONTINUOUS
10
171.898
20
-164.044
11
171.898
21
-164.962
0
LINE
8
BLACK
6
CONTINUOUS
10
171.898
20
-164.962
11
171.734
21
-165.865
0
LINE
8
BLACK
6
CONTINUOUS
10
171.734
20
-165.865
11
171.412
21
-166.725
0
LINE
8
BLACK
6
CONTINUOUS
10
171.412
20
-166.725
11
170.941
21
-167.513
0
LINE
8
BLACK
6
CONTINUOUS
10
170.941
20
-167.513
11
170.337
21
-168.204
0
LINE
8
BLACK
6
CONTINUOUS
10
170.337
20
-168.204
11
169.619
21
-168.776
0
LINE
8
BLACK
6
CONTINUOUS
10
169.619
20
-168.776
11
168.811
21
-169.211
0
LINE
8
BLACK
6
CONTINUOUS
10
168.811
20
-169.211
11
167.938
21
-169.495
0
LINE
8
BLACK
6
CONTINUOUS
10
167.938
20
-169.495
11
167.028
21
-169.618
0
LINE
8
BLACK
6
CONTINUOUS
10
167.028
20
-169.618
11
166.111
21
-169.577
0
LINE
8
BLACK
6
CONTINUOUS
10
166.111
20
-169.577
11
165.216
21
-169.373
0
LINE
8
BLACK
6
CONTINUOUS
10
165.216
20
-169.373
11
164.372
21
-169.012
0
LINE
8
BLACK
6
CONTINUOUS
10
164.372
20
-169.012
11
163.606
21
-168.506
0
LINE
8
BLACK
6
CONTINUOUS
10
163.606
20
-168.506
11
162.943
21
-167.872
0
LINE
8
BLACK
6
CONTINUOUS
10
162.943
20
-167.872
11
162.403
21
-167.129
0
LINE
8
BLACK
6
CONTINUOUS
10
162.403
20
-167.129
11
162.005
21
-166.302
0
LINE
8
BLACK
6
CONTINUOUS
10
162.005
20
-166.302
11
161.761
21
-165.417
0
LINE
8
BLACK
6
CONTINUOUS
10
161.761
20
-165.417
11
161.679
21
-164.503
0
LINE
8
BLACK
6
CONTINUOUS
10
161.679
20
-164.503
11
161.761
21
-163.589
0
LINE
8
BLACK
6
CONTINUOUS
10
161.761
20
-163.589
11
162.005
21
-162.704
0
LINE
8
BLACK
6
CONTINUOUS
10
162.211
20
-166.225
11
162.592
21
-167.016
0
LINE
8
BLACK
6
CONTINUOUS
10
162.592
20
-167.016
11
163.109
21
-167.727
0
LINE
8
BLACK
6
CONTINUOUS
10
163.109
20
-167.727
11
163.744
21
-168.334
0
LINE
8
BLACK
6
CONTINUOUS
10
163.744
20
-168.334
11
164.477
21
-168.818
0
LINE
8
BLACK
6
CONTINUOUS
10
164.477
20
-168.818
11
165.284
21
-169.163
0
LINE
8
BLACK
6
CONTINUOUS
10
165.284
20
-169.163
11
166.141
21
-169.359
0
LINE
8
BLACK
6
CONTINUOUS
10
166.141
20
-169.359
11
167.018
21
-169.398
0
LINE
8
BLACK
6
CONTINUOUS
10
167.018
20
-169.398
11
167.889
21
-169.28
0
LINE
8
BLACK
6
CONTINUOUS
10
167.889
20
-169.28
11
168.724
21
-169.009
0
LINE
8
BLACK
6
CONTINUOUS
10
168.724
20
-169.009
11
169.498
21
-168.593
0
LINE
8
BLACK
6
CONTINUOUS
10
169.498
20
-168.593
11
170.185
21
-168.045
0
LINE
8
BLACK
6
CONTINUOUS
10
170.185
20
-168.045
11
170.763
21
-167.383
0
LINE
8
BLACK
6
CONTINUOUS
10
170.763
20
-167.383
11
171.213
21
-166.629
0
LINE
8
BLACK
6
CONTINUOUS
10
171.213
20
-166.629
11
171.522
21
-165.807
0
LINE
8
BLACK
6
CONTINUOUS
10
171.522
20
-165.807
11
171.679
21
-164.942
0
LINE
8
BLACK
6
CONTINUOUS
10
171.679
20
-164.942
11
171.679
21
-164.064
0
LINE
8
BLACK
6
CONTINUOUS
10
171.679
20
-164.064
11
171.522
21
-163.2
0
LINE
8
BLACK
6
CONTINUOUS
10
171.522
20
-163.2
11
171.213
21
-162.377
0
LINE
8
BLACK
6
CONTINUOUS
10
171.213
20
-162.377
11
170.763
21
-161.623
0
LINE
8
BLACK
6
CONTINUOUS
10
170.763
20
-161.623
11
170.185
21
-160.961
0
LINE
8
BLACK
6
CONTINUOUS
10
170.185
20
-160.961
11
169.498
21
-160.414
0
LINE
8
BLACK
6
CONTINUOUS
10
169.498
20
-160.414
11
168.724
21
-159.997
0
LINE
8
BLACK
6
CONTINUOUS
10
168.724
20
-159.997
11
167.889
21
-159.726
0
LINE
8
BLACK
6
CONTINUOUS
10
167.889
20
-159.726
11
167.018
21
-159.608
0
LINE
8
BLACK
6
CONTINUOUS
10
167.018
20
-159.608
11
166.141
21
-159.647
0
LINE
8
BLACK
6
CONTINUOUS
10
166.141
20
-159.647
11
165.284
21
-159.843
0
LINE
8
BLACK
6
CONTINUOUS
10
165.284
20
-159.843
11
164.477
21
-160.188
0
LINE
8
BLACK
6
CONTINUOUS
10
164.477
20
-160.188
11
163.744
21
-160.672
0
LINE
8
BLACK
6
CONTINUOUS
10
163.744
20
-160.672
11
163.109
21
-161.279
0
LINE
8
BLACK
6
CONTINUOUS
10
163.109
20
-161.279
11
162.592
21
-161.99
0
LINE
8
BLACK
6
CONTINUOUS
10
162.592
20
-161.99
11
162.211
21
-162.781
0
LINE
8
BLACK
6
CONTINUOUS
10
162.211
20
-162.781
11
161.977
21
-163.628
0
LINE
8
BLACK
6
CONTINUOUS
10
161.977
20
-163.628
11
161.899
21
-164.503
0
LINE
8
BLACK
6
CONTINUOUS
10
161.899
20
-164.503
11
161.977
21
-165.378
0
LINE
8
BLACK
6
CONTINUOUS
10
161.977
20
-165.378
11
162.211
21
-166.225
0
LINE
8
BLACK
6
CONTINUOUS
10
170.387
20
-113.365
11
170.497
21
-113.098
0
LINE
8
BLACK
6
CONTINUOUS
10
170.497
20
-113.098
11
170.658
21
-112.858
0
LINE
8
BLACK
6
CONTINUOUS
10
170.658
20
-112.858
11
170.862
21
-112.654
0
LINE
8
BLACK
6
CONTINUOUS
10
170.862
20
-112.654
11
171.102
21
-112.493
0
LINE
8
BLACK
6
CONTINUOUS
10
171.102
20
-112.493
11
171.369
21
-112.383
0
LINE
8
BLACK
6
CONTINUOUS
10
171.369
20
-112.383
11
171.652
21
-112.327
0
LINE
8
BLACK
6
CONTINUOUS
10
171.652
20
-112.327
11
171.94
21
-112.327
0
LINE
8
BLACK
6
CONTINUOUS
10
171.94
20
-112.327
11
172.224
21
-112.383
0
LINE
8
BLACK
6
CONTINUOUS
10
172.224
20
-112.383
11
172.49
21
-112.493
0
LINE
8
BLACK
6
CONTINUOUS
10
172.49
20
-112.493
11
172.73
21
-112.654
0
LINE
8
BLACK
6
CONTINUOUS
10
172.73
20
-112.654
11
172.934
21
-112.858
0
LINE
8
BLACK
6
CONTINUOUS
10
172.934
20
-112.858
11
173.095
21
-113.098
0
LINE
8
BLACK
6
CONTINUOUS
10
173.095
20
-113.098
11
173.205
21
-113.365
0
LINE
8
BLACK
6
CONTINUOUS
10
173.205
20
-113.365
11
173.262
21
-113.648
0
LINE
8
BLACK
6
CONTINUOUS
10
173.262
20
-113.648
11
173.262
21
-113.936
0
LINE
8
BLACK
6
CONTINUOUS
10
173.262
20
-113.936
11
173.205
21
-114.219
0
LINE
8
BLACK
6
CONTINUOUS
10
173.205
20
-114.219
11
173.095
21
-114.486
0
LINE
8
BLACK
6
CONTINUOUS
10
173.095
20
-114.486
11
172.934
21
-114.726
0
LINE
8
BLACK
6
CONTINUOUS
10
172.934
20
-114.726
11
172.73
21
-114.93
0
LINE
8
BLACK
6
CONTINUOUS
10
172.73
20
-114.93
11
172.49
21
-115.091
0
LINE
8
BLACK
6
CONTINUOUS
10
172.49
20
-115.091
11
172.224
21
-115.201
0
LINE
8
BLACK
6
CONTINUOUS
10
172.224
20
-115.201
11
171.94
21
-115.257
0
LINE
8
BLACK
6
CONTINUOUS
10
171.94
20
-115.257
11
171.652
21
-115.257
0
LINE
8
BLACK
6
CONTINUOUS
10
171.652
20
-115.257
11
171.369
21
-115.201
0
LINE
8
BLACK
6
CONTINUOUS
10
171.369
20
-115.201
11
171.102
21
-115.091
0
LINE
8
BLACK
6
CONTINUOUS
10
171.102
20
-115.091
11
170.862
21
-114.93
0
LINE
8
BLACK
6
CONTINUOUS
10
170.862
20
-114.93
11
170.658
21
-114.726
0
LINE
8
BLACK
6
CONTINUOUS
10
170.658
20
-114.726
11
170.497
21
-114.486
0
LINE
8
BLACK
6
CONTINUOUS
10
170.497
20
-114.486
11
170.387
21
-114.219
0
LINE
8
BLACK
6
CONTINUOUS
10
170.387
20
-114.219
11
170.331
21
-113.936
0
LINE
8
BLACK
6
CONTINUOUS
10
170.331
20
-113.936
11
170.331
21
-113.648
0
LINE
8
BLACK
6
CONTINUOUS
10
170.331
20
-113.648
11
170.387
21
-113.365
0
LINE
8
BLACK
6
CONTINUOUS
10
170.597
20
-114.156
11
170.691
21
-114.382
0
LINE
8
BLACK
6
CONTINUOUS
10
170.691
20
-114.382
11
170.828
21
-114.587
0
LINE
8
BLACK
6
CONTINUOUS
10
170.828
20
-114.587
11
171.001
21
-114.76
0
LINE
8
BLACK
6
CONTINUOUS
10
171.001
20
-114.76
11
171.206
21
-114.897
0
LINE
8
BLACK
6
CONTINUOUS
10
171.206
20
-114.897
11
171.432
21
-114.991
0
LINE
8
BLACK
6
CONTINUOUS
10
171.432
20
-114.991
11
171.673
21
-115.039
0
LINE
8
BLACK
6
CONTINUOUS
10
171.673
20
-115.039
11
171.919
21
-115.039
0
LINE
8
BLACK
6
CONTINUOUS
10
171.919
20
-115.039
11
172.16
21
-114.991
0
LINE
8
BLACK
6
CONTINUOUS
10
172.16
20
-114.991
11
172.387
21
-114.897
0
LINE
8
BLACK
6
CONTINUOUS
10
172.387
20
-114.897
11
172.591
21
-114.76
0
LINE
8
BLACK
6
CONTINUOUS
10
172.591
20
-114.76
11
172.764
21
-114.587
0
LINE
8
BLACK
6
CONTINUOUS
10
172.764
20
-114.587
11
172.901
21
-114.382
0
LINE
8
BLACK
6
CONTINUOUS
10
172.901
20
-114.382
11
172.995
21
-114.156
0
LINE
8
BLACK
6
CONTINUOUS
10
172.995
20
-114.156
11
173.043
21
-113.915
0
LINE
8
BLACK
6
CONTINUOUS
10
173.043
20
-113.915
11
173.043
21
-113.669
0
LINE
8
BLACK
6
CONTINUOUS
10
173.043
20
-113.669
11
172.995
21
-113.428
0
LINE
8
BLACK
6
CONTINUOUS
10
172.995
20
-113.428
11
172.901
21
-113.202
0
LINE
8
BLACK
6
CONTINUOUS
10
172.901
20
-113.202
11
172.764
21
-112.997
0
LINE
8
BLACK
6
CONTINUOUS
10
172.764
20
-112.997
11
172.591
21
-112.824
0
LINE
8
BLACK
6
CONTINUOUS
10
172.591
20
-112.824
11
172.387
21
-112.687
0
LINE
8
BLACK
6
CONTINUOUS
10
172.387
20
-112.687
11
172.16
21
-112.593
0
LINE
8
BLACK
6
CONTINUOUS
10
172.16
20
-112.593
11
171.919
21
-112.545
0
LINE
8
BLACK
6
CONTINUOUS
10
171.919
20
-112.545
11
171.673
21
-112.545
0
LINE
8
BLACK
6
CONTINUOUS
10
171.673
20
-112.545
11
171.432
21
-112.593
0
LINE
8
BLACK
6
CONTINUOUS
10
171.432
20
-112.593
11
171.206
21
-112.687
0
LINE
8
BLACK
6
CONTINUOUS
10
171.206
20
-112.687
11
171.001
21
-112.824
0
LINE
8
BLACK
6
CONTINUOUS
10
171.001
20
-112.824
11
170.828
21
-112.997
0
LINE
8
BLACK
6
CONTINUOUS
10
170.828
20
-112.997
11
170.691
21
-113.202
0
LINE
8
BLACK
6
CONTINUOUS
10
170.691
20
-113.202
11
170.597
21
-113.428
0
LINE
8
BLACK
6
CONTINUOUS
10
170.597
20
-113.428
11
170.55
21
-113.669
0
LINE
8
BLACK
6
CONTINUOUS
10
170.55
20
-113.669
11
170.55
21
-113.915
0
LINE
8
BLACK
6
CONTINUOUS
10
170.55
20
-113.915
11
170.597
21
-114.156
0
LINE
8
BLACK
6
CONTINUOUS
10
19.5808
20
-113.365
11
19.6912
21
-113.098
0
LINE
8
BLACK
6
CONTINUOUS
10
19.6912
20
-113.098
11
19.8516
21
-112.858
0
LINE
8
BLACK
6
CONTINUOUS
10
19.8516
20
-112.858
11
20.0557
21
-112.654
0
LINE
8
BLACK
6
CONTINUOUS
10
20.0557
20
-112.654
11
20.2958
21
-112.493
0
LINE
8
BLACK
6
CONTINUOUS
10
20.2958
20
-112.493
11
20.5625
21
-112.383
0
LINE
8
BLACK
6
CONTINUOUS
10
20.5625
20
-112.383
11
20.8456
21
-112.327
0
LINE
8
BLACK
6
CONTINUOUS
10
20.8456
20
-112.327
11
21.1343
21
-112.327
0
LINE
8
BLACK
6
CONTINUOUS
10
21.1343
20
-112.327
11
21.4174
21
-112.383
0
LINE
8
BLACK
6
CONTINUOUS
10
21.4174
20
-112.383
11
21.6841
21
-112.493
0
LINE
8
BLACK
6
CONTINUOUS
10
21.6841
20
-112.493
11
21.9241
21
-112.654
0
LINE
8
BLACK
6
CONTINUOUS
10
21.9241
20
-112.654
11
22.1282
21
-112.858
0
LINE
8
BLACK
6
CONTINUOUS
10
22.1282
20
-112.858
11
22.2886
21
-113.098
0
LINE
8
BLACK
6
CONTINUOUS
10
22.2886
20
-113.098
11
22.3991
21
-113.365
0
LINE
8
BLACK
6
CONTINUOUS
10
22.3991
20
-113.365
11
22.4554
21
-113.648
0
LINE
8
BLACK
6
CONTINUOUS
10
22.4554
20
-113.648
11
22.4554
21
-113.936
0
LINE
8
BLACK
6
CONTINUOUS
10
22.4554
20
-113.936
11
22.3991
21
-114.219
0
LINE
8
BLACK
6
CONTINUOUS
10
22.3991
20
-114.219
11
22.2886
21
-114.486
0
LINE
8
BLACK
6
CONTINUOUS
10
22.2886
20
-114.486
11
22.1282
21
-114.726
0
LINE
8
BLACK
6
CONTINUOUS
10
22.1282
20
-114.726
11
21.9241
21
-114.93
0
LINE
8
BLACK
6
CONTINUOUS
10
21.9241
20
-114.93
11
21.6841
21
-115.091
0
LINE
8
BLACK
6
CONTINUOUS
10
21.6841
20
-115.091
11
21.4174
21
-115.201
0
LINE
8
BLACK
6
CONTINUOUS
10
21.4174
20
-115.201
11
21.1343
21
-115.257
0
LINE
8
BLACK
6
CONTINUOUS
10
21.1343
20
-115.257
11
20.8456
21
-115.257
0
LINE
8
BLACK
6
CONTINUOUS
10
20.8456
20
-115.257
11
20.5625
21
-115.201
0
LINE
8
BLACK
6
CONTINUOUS
10
20.5625
20
-115.201
11
20.2958
21
-115.091
0
LINE
8
BLACK
6
CONTINUOUS
10
20.2958
20
-115.091
11
20.0557
21
-114.93
0
LINE
8
BLACK
6
CONTINUOUS
10
20.0557
20
-114.93
11
19.8516
21
-114.726
0
LINE
8
BLACK
6
CONTINUOUS
10
19.8516
20
-114.726
11
19.6912
21
-114.486
0
LINE
8
BLACK
6
CONTINUOUS
10
19.6912
20
-114.486
11
19.5808
21
-114.219
0
LINE
8
BLACK
6
CONTINUOUS
10
19.5808
20
-114.219
11
19.5245
21
-113.936
0
LINE
8
BLACK
6
CONTINUOUS
10
19.5245
20
-113.936
11
19.5245
21
-113.648
0
LINE
8
BLACK
6
CONTINUOUS
10
19.5245
20
-113.648
11
19.5808
21
-113.365
0
LINE
8
BLACK
6
CONTINUOUS
10
19.7913
20
-114.156
11
19.8853
21
-114.382
0
LINE
8
BLACK
6
CONTINUOUS
10
19.8853
20
-114.382
11
20.0217
21
-114.587
0
LINE
8
BLACK
6
CONTINUOUS
10
20.0217
20
-114.587
11
20.1953
21
-114.76
0
LINE
8
BLACK
6
CONTINUOUS
10
20.1953
20
-114.76
11
20.3995
21
-114.897
0
LINE
8
BLACK
6
CONTINUOUS
10
20.3995
20
-114.897
11
20.6263
21
-114.991
0
LINE
8
BLACK
6
CONTINUOUS
10
20.6263
20
-114.991
11
20.8671
21
-115.039
0
LINE
8
BLACK
6
CONTINUOUS
10
20.8671
20
-115.039
11
21.1127
21
-115.039
0
LINE
8
BLACK
6
CONTINUOUS
10
21.1127
20
-115.039
11
21.3535
21
-114.991
0
LINE
8
BLACK
6
CONTINUOUS
10
21.3535
20
-114.991
11
21.5804
21
-114.897
0
LINE
8
BLACK
6
CONTINUOUS
10
21.5804
20
-114.897
11
21.7845
21
-114.76
0
LINE
8
BLACK
6
CONTINUOUS
10
21.7845
20
-114.76
11
21.9582
21
-114.587
0
LINE
8
BLACK
6
CONTINUOUS
10
21.9582
20
-114.587
11
22.0946
21
-114.382
0
LINE
8
BLACK
6
CONTINUOUS
10
22.0946
20
-114.382
11
22.1885
21
-114.156
0
LINE
8
BLACK
6
CONTINUOUS
10
22.1885
20
-114.156
11
22.2364
21
-113.915
0
LINE
8
BLACK
6
CONTINUOUS
10
22.2364
20
-113.915
11
22.2364
21
-113.669
0
LINE
8
BLACK
6
CONTINUOUS
10
22.2364
20
-113.669
11
22.1885
21
-113.428
0
LINE
8
BLACK
6
CONTINUOUS
10
22.1885
20
-113.428
11
22.0946
21
-113.202
0
LINE
8
BLACK
6
CONTINUOUS
10
22.0946
20
-113.202
11
21.9582
21
-112.997
0
LINE
8
BLACK
6
CONTINUOUS
10
21.9582
20
-112.997
11
21.7845
21
-112.824
0
LINE
8
BLACK
6
CONTINUOUS
10
21.7845
20
-112.824
11
21.5804
21
-112.687
0
LINE
8
BLACK
6
CONTINUOUS
10
21.5804
20
-112.687
11
21.3535
21
-112.593
0
LINE
8
BLACK
6
CONTINUOUS
10
21.3535
20
-112.593
11
21.1127
21
-112.545
0
LINE
8
BLACK
6
CONTINUOUS
10
21.1127
20
-112.545
11
20.8671
21
-112.545
0
LINE
8
BLACK
6
CONTINUOUS
10
20.8671
20
-112.545
11
20.6263
21
-112.593
0
LINE
8
BLACK
6
CONTINUOUS
10
20.6263
20
-112.593
11
20.3995
21
-112.687
0
LINE
8
BLACK
6
CONTINUOUS
10
20.3995
20
-112.687
11
20.1953
21
-112.824
0
LINE
8
BLACK
6
CONTINUOUS
10
20.1953
20
-112.824
11
20.0217
21
-112.997
0
LINE
8
BLACK
6
CONTINUOUS
10
20.0217
20
-112.997
11
19.8853
21
-113.202
0
LINE
8
BLACK
6
CONTINUOUS
10
19.8853
20
-113.202
11
19.7913
21
-113.428
0
LINE
8
BLACK
6
CONTINUOUS
10
19.7913
20
-113.428
11
19.7434
21
-113.669
0
LINE
8
BLACK
6
CONTINUOUS
10
19.7434
20
-113.669
11
19.7434
21
-113.915
0
LINE
8
BLACK
6
CONTINUOUS
10
19.7434
20
-113.915
11
19.7913
21
-114.156
0
LINE
8
BLACK
6
CONTINUOUS
10
57.8255
20
-17.5589
11
57.936
21
-17.2922
0
LINE
8
BLACK
6
CONTINUOUS
10
57.936
20
-17.2922
11
58.0964
21
-17.0522
0
LINE
8
BLACK
6
CONTINUOUS
10
58.0964
20
-17.0522
11
58.3005
21
-16.8481
0
LINE
8
BLACK
6
CONTINUOUS
10
58.3005
20
-16.8481
11
58.5405
21
-16.6877
0
LINE
8
BLACK
6
CONTINUOUS
10
58.5405
20
-16.6877
11
58.8072
21
-16.5772
0
LINE
8
BLACK
6
CONTINUOUS
10
58.8072
20
-16.5772
11
59.0903
21
-16.5209
0
LINE
8
BLACK
6
CONTINUOUS
10
59.0903
20
-16.5209
11
59.379
21
-16.5209
0
LINE
8
BLACK
6
CONTINUOUS
10
59.379
20
-16.5209
11
59.6621
21
-16.5772
0
LINE
8
BLACK
6
CONTINUOUS
10
59.6621
20
-16.5772
11
59.9288
21
-16.6877
0
LINE
8
BLACK
6
CONTINUOUS
10
59.9288
20
-16.6877
11
60.1689
21
-16.8481
0
LINE
8
BLACK
6
CONTINUOUS
10
60.1689
20
-16.8481
11
60.373
21
-17.0522
0
LINE
8
BLACK
6
CONTINUOUS
10
60.373
20
-17.0522
11
60.5334
21
-17.2922
0
LINE
8
BLACK
6
CONTINUOUS
10
60.5334
20
-17.2922
11
60.6438
21
-17.5589
0
LINE
8
BLACK
6
CONTINUOUS
10
60.6438
20
-17.5589
11
60.7001
21
-17.842
0
LINE
8
BLACK
6
CONTINUOUS
10
60.7001
20
-17.842
11
60.7001
21
-18.1307
0
LINE
8
BLACK
6
CONTINUOUS
10
60.7001
20
-18.1307
11
60.6438
21
-18.4138
0
LINE
8
BLACK
6
CONTINUOUS
10
60.6438
20
-18.4138
11
60.5334
21
-18.6805
0
LINE
8
BLACK
6
CONTINUOUS
10
60.5334
20
-18.6805
11
60.373
21
-18.9206
0
LINE
8
BLACK
6
CONTINUOUS
10
60.373
20
-18.9206
11
60.1689
21
-19.1247
0
LINE
8
BLACK
6
CONTINUOUS
10
60.1689
20
-19.1247
11
59.9288
21
-19.285
0
LINE
8
BLACK
6
CONTINUOUS
10
59.9288
20
-19.285
11
59.6621
21
-19.3955
0
LINE
8
BLACK
6
CONTINUOUS
10
59.6621
20
-19.3955
11
59.379
21
-19.4518
0
LINE
8
BLACK
6
CONTINUOUS
10
59.379
20
-19.4518
11
59.0903
21
-19.4518
0
LINE
8
BLACK
6
CONTINUOUS
10
59.0903
20
-19.4518
11
58.8072
21
-19.3955
0
LINE
8
BLACK
6
CONTINUOUS
10
58.8072
20
-19.3955
11
58.5405
21
-19.285
0
LINE
8
BLACK
6
CONTINUOUS
10
58.5405
20
-19.285
11
58.3005
21
-19.1247
0
LINE
8
BLACK
6
CONTINUOUS
10
58.3005
20
-19.1247
11
58.0964
21
-18.9206
0
LINE
8
BLACK
6
CONTINUOUS
10
58.0964
20
-18.9206
11
57.936
21
-18.6805
0
LINE
8
BLACK
6
CONTINUOUS
10
57.936
20
-18.6805
11
57.8255
21
-18.4138
0
LINE
8
BLACK
6
CONTINUOUS
10
57.8255
20
-18.4138
11
57.7692
21
-18.1307
0
LINE
8
BLACK
6
CONTINUOUS
10
57.7692
20
-18.1307
11
57.7692
21
-17.842
0
LINE
8
BLACK
6
CONTINUOUS
10
57.7692
20
-17.842
11
57.8255
21
-17.5589
0
LINE
8
BLACK
6
CONTINUOUS
10
58.0361
20
-18.35
11
58.13
21
-18.5768
0
LINE
8
BLACK
6
CONTINUOUS
10
58.13
20
-18.5768
11
58.2664
21
-18.781
0
LINE
8
BLACK
6
CONTINUOUS
10
58.2664
20
-18.781
11
58.4401
21
-18.9546
0
LINE
8
BLACK
6
CONTINUOUS
10
58.4401
20
-18.9546
11
58.6442
21
-19.091
0
LINE
8
BLACK
6
CONTINUOUS
10
58.6442
20
-19.091
11
58.8711
21
-19.185
0
LINE
8
BLACK
6
CONTINUOUS
10
58.8711
20
-19.185
11
59.1119
21
-19.2329
0
LINE
8
BLACK
6
CONTINUOUS
10
59.1119
20
-19.2329
11
59.3575
21
-19.2329
0
LINE
8
BLACK
6
CONTINUOUS
10
59.3575
20
-19.2329
11
59.5983
21
-19.185
0
LINE
8
BLACK
6
CONTINUOUS
10
59.5983
20
-19.185
11
59.8251
21
-19.091
0
LINE
8
BLACK
6
CONTINUOUS
10
59.8251
20
-19.091
11
60.0293
21
-18.9546
0
LINE
8
BLACK
6
CONTINUOUS
10
60.0293
20
-18.9546
11
60.2029
21
-18.781
0
LINE
8
BLACK
6
CONTINUOUS
10
60.2029
20
-18.781
11
60.3393
21
-18.5768
0
LINE
8
BLACK
6
CONTINUOUS
10
60.3393
20
-18.5768
11
60.4333
21
-18.35
0
LINE
8
BLACK
6
CONTINUOUS
10
60.4333
20
-18.35
11
60.4812
21
-18.1091
0
LINE
8
BLACK
6
CONTINUOUS
10
60.4812
20
-18.1091
11
60.4812
21
-17.8636
0
LINE
8
BLACK
6
CONTINUOUS
10
60.4812
20
-17.8636
11
60.4333
21
-17.6228
0
LINE
8
BLACK
6
CONTINUOUS
10
60.4333
20
-17.6228
11
60.3393
21
-17.3959
0
LINE
8
BLACK
6
CONTINUOUS
10
60.3393
20
-17.3959
11
60.2029
21
-17.1918
0
LINE
8
BLACK
6
CONTINUOUS
10
60.2029
20
-17.1918
11
60.0293
21
-17.0181
0
LINE
8
BLACK
6
CONTINUOUS
10
60.0293
20
-17.0181
11
59.8251
21
-16.8817
0
LINE
8
BLACK
6
CONTINUOUS
10
59.8251
20
-16.8817
11
59.5983
21
-16.7878
0
LINE
8
BLACK
6
CONTINUOUS
10
59.5983
20
-16.7878
11
59.3575
21
-16.7399
0
LINE
8
BLACK
6
CONTINUOUS
10
59.3575
20
-16.7399
11
59.1119
21
-16.7399
0
LINE
8
BLACK
6
CONTINUOUS
10
59.1119
20
-16.7399
11
58.8711
21
-16.7878
0
LINE
8
BLACK
6
CONTINUOUS
10
58.8711
20
-16.7878
11
58.6442
21
-16.8817
0
LINE
8
BLACK
6
CONTINUOUS
10
58.6442
20
-16.8817
11
58.4401
21
-17.0181
0
LINE
8
BLACK
6
CONTINUOUS
10
58.4401
20
-17.0181
11
58.2664
21
-17.1918
0
LINE
8
BLACK
6
CONTINUOUS
10
58.2664
20
-17.1918
11
58.13
21
-17.3959
0
LINE
8
BLACK
6
CONTINUOUS
10
58.13
20
-17.3959
11
58.0361
21
-17.6228
0
LINE
8
BLACK
6
CONTINUOUS
10
58.0361
20
-17.6228
11
57.9882
21
-17.8636
0
LINE
8
BLACK
6
CONTINUOUS
10
57.9882
20
-17.8636
11
57.9882
21
-18.1091
0
LINE
8
BLACK
6
CONTINUOUS
10
57.9882
20
-18.1091
11
58.0361
21
-18.35
0
LINE
8
BLACK
6
CONTINUOUS
10
132.142
20
-17.5589
11
132.253
21
-17.2922
0
LINE
8
BLACK
6
CONTINUOUS
10
132.253
20
-17.2922
11
132.413
21
-17.0522
0
LINE
8
BLACK
6
CONTINUOUS
10
132.413
20
-17.0522
11
132.617
21
-16.8481
0
LINE
8
BLACK
6
CONTINUOUS
10
132.617
20
-16.8481
11
132.857
21
-16.6877
0
LINE
8
BLACK
6
CONTINUOUS
10
132.857
20
-16.6877
11
133.124
21
-16.5772
0
LINE
8
BLACK
6
CONTINUOUS
10
133.124
20
-16.5772
11
133.407
21
-16.5209
0
LINE
8
BLACK
6
CONTINUOUS
10
133.407
20
-16.5209
11
133.696
21
-16.5209
0
LINE
8
BLACK
6
CONTINUOUS
10
133.696
20
-16.5209
11
133.979
21
-16.5772
0
LINE
8
BLACK
6
CONTINUOUS
10
133.979
20
-16.5772
11
134.245
21
-16.6877
0
LINE
8
BLACK
6
CONTINUOUS
10
134.245
20
-16.6877
11
134.485
21
-16.8481
0
LINE
8
BLACK
6
CONTINUOUS
10
134.485
20
-16.8481
11
134.69
21
-17.0522
0
LINE
8
BLACK
6
CONTINUOUS
10
134.69
20
-17.0522
11
134.85
21
-17.2922
0
LINE
8
BLACK
6
CONTINUOUS
10
134.85
20
-17.2922
11
134.96
21
-17.5589
0
LINE
8
BLACK
6
CONTINUOUS
10
134.96
20
-17.5589
11
135.017
21
-17.842
0
LINE
8
BLACK
6
CONTINUOUS
10
135.017
20
-17.842
11
135.017
21
-18.1307
0
LINE
8
BLACK
6
CONTINUOUS
10
135.017
20
-18.1307
11
134.96
21
-18.4138
0
LINE
8
BLACK
6
CONTINUOUS
10
134.96
20
-18.4138
11
134.85
21
-18.6805
0
LINE
8
BLACK
6
CONTINUOUS
10
134.85
20
-18.6805
11
134.69
21
-18.9206
0
LINE
8
BLACK
6
CONTINUOUS
10
134.69
20
-18.9206
11
134.485
21
-19.1247
0
LINE
8
BLACK
6
CONTINUOUS
10
134.485
20
-19.1247
11
134.245
21
-19.285
0
LINE
8
BLACK
6
CONTINUOUS
10
134.245
20
-19.285
11
133.979
21
-19.3955
0
LINE
8
BLACK
6
CONTINUOUS
10
133.979
20
-19.3955
11
133.696
21
-19.4518
0
LINE
8
BLACK
6
CONTINUOUS
10
133.696
20
-19.4518
11
133.407
21
-19.4518
0
LINE
8
BLACK
6
CONTINUOUS
10
133.407
20
-19.4518
11
133.124
21
-19.3955
0
LINE
8
BLACK
6
CONTINUOUS
10
133.124
20
-19.3955
11
132.857
21
-19.285
0
LINE
8
BLACK
6
CONTINUOUS
10
132.857
20
-19.285
11
132.617
21
-19.1247
0
LINE
8
BLACK
6
CONTINUOUS
10
132.617
20
-19.1247
11
132.413
21
-18.9206
0
LINE
8
BLACK
6
CONTINUOUS
10
132.413
20
-18.9206
11
132.253
21
-18.6805
0
LINE
8
BLACK
6
CONTINUOUS
10
132.253
20
-18.6805
11
132.142
21
-18.4138
0
LINE
8
BLACK
6
CONTINUOUS
10
132.142
20
-18.4138
11
132.086
21
-18.1307
0
LINE
8
BLACK
6
CONTINUOUS
10
132.086
20
-18.1307
11
132.086
21
-17.842
0
LINE
8
BLACK
6
CONTINUOUS
10
132.086
20
-17.842
11
132.142
21
-17.5589
0
LINE
8
BLACK
6
CONTINUOUS
10
132.353
20
-18.35
11
132.447
21
-18.5768
0
LINE
8
BLACK
6
CONTINUOUS
10
132.447
20
-18.5768
11
132.583
21
-18.781
0
LINE
8
BLACK
6
CONTINUOUS
10
132.583
20
-18.781
11
132.757
21
-18.9546
0
LINE
8
BLACK
6
CONTINUOUS
10
132.757
20
-18.9546
11
132.961
21
-19.091
0
LINE
8
BLACK
6
CONTINUOUS
10
132.961
20
-19.091
11
133.188
21
-19.185
0
LINE
8
BLACK
6
CONTINUOUS
10
133.188
20
-19.185
11
133.429
21
-19.2329
0
LINE
8
BLACK
6
CONTINUOUS
10
133.429
20
-19.2329
11
133.674
21
-19.2329
0
LINE
8
BLACK
6
CONTINUOUS
10
133.674
20
-19.2329
11
133.915
21
-19.185
0
LINE
8
BLACK
6
CONTINUOUS
10
133.915
20
-19.185
11
134.142
21
-19.091
0
LINE
8
BLACK
6
CONTINUOUS
10
134.142
20
-19.091
11
134.346
21
-18.9546
0
LINE
8
BLACK
6
CONTINUOUS
10
134.346
20
-18.9546
11
134.52
21
-18.781
0
LINE
8
BLACK
6
CONTINUOUS
10
134.52
20
-18.781
11
134.656
21
-18.5768
0
LINE
8
BLACK
6
CONTINUOUS
10
134.656
20
-18.5768
11
134.75
21
-18.35
0
LINE
8
BLACK
6
CONTINUOUS
10
134.75
20
-18.35
11
134.798
21
-18.1091
0
LINE
8
BLACK
6
CONTINUOUS
10
134.798
20
-18.1091
11
134.798
21
-17.8636
0
LINE
8
BLACK
6
CONTINUOUS
10
134.798
20
-17.8636
11
134.75
21
-17.6228
0
LINE
8
BLACK
6
CONTINUOUS
10
134.75
20
-17.6228
11
134.656
21
-17.3959
0
LINE
8
BLACK
6
CONTINUOUS
10
134.656
20
-17.3959
11
134.52
21
-17.1918
0
LINE
8
BLACK
6
CONTINUOUS
10
134.52
20
-17.1918
11
134.346
21
-17.0181
0
LINE
8
BLACK
6
CONTINUOUS
10
134.346
20
-17.0181
11
134.142
21
-16.8817
0
LINE
8
BLACK
6
CONTINUOUS
10
134.142
20
-16.8817
11
133.915
21
-16.7878
0
LINE
8
BLACK
6
CONTINUOUS
10
133.915
20
-16.7878
11
133.674
21
-16.7399
0
LINE
8
BLACK
6
CONTINUOUS
10
133.674
20
-16.7399
11
133.429
21
-16.7399
0
LINE
8
BLACK
6
CONTINUOUS
10
133.429
20
-16.7399
11
133.188
21
-16.7878
0
LINE
8
BLACK
6
CONTINUOUS
10
133.188
20
-16.7878
11
132.961
21
-16.8817
0
LINE
8
BLACK
6
CONTINUOUS
10
132.961
20
-16.8817
11
132.757
21
-17.0181
0
LINE
8
BLACK
6
CONTINUOUS
10
132.757
20
-17.0181
11
132.583
21
-17.1918
0
LINE
8
BLACK
6
CONTINUOUS
10
132.583
20
-17.1918
11
132.447
21
-17.3959
0
LINE
8
BLACK
6
CONTINUOUS
10
132.447
20
-17.3959
11
132.353
21
-17.6228
0
LINE
8
BLACK
6
CONTINUOUS
10
132.353
20
-17.6228
11
132.305
21
-17.8636
0
LINE
8
BLACK
6
CONTINUOUS
10
132.305
20
-17.8636
11
132.305
21
-18.1091
0
LINE
8
BLACK
6
CONTINUOUS
10
132.305
20
-18.1091
11
132.353
21
-18.35
0
CIRCLE
8
BLACK
10
140.072
20
-174.46
40
0.175
0
CIRCLE
8
BLACK
10
134.992
20
-174.46
40
0.175
0
CIRCLE
8
BLACK
10
150.002
20
-166.51
40
0.175
0
CIRCLE
8
BLACK
10
147.462
20
-166.51
40
0.175
0
CIRCLE
8
BLACK
10
48.082
20
-167.03
40
0.175
0
CIRCLE
8
BLACK
10
45.542
20
-167.03
40
0.175
0
CIRCLE
8
BLACK
10
24.892
20
-91.44
40
0.175
0
CIRCLE
8
BLACK
10
22.352
20
-91.44
40
0.175
0
CIRCLE
8
BLACK
10
78.232
20
-22.86
40
0.175
0
CIRCLE
8
BLACK
10
78.232
20
-20.32
40
0.175
0
CIRCLE
8
BLACK
10
123.952
20
-12.7
40
0.175
0
CIRCLE
8
BLACK
10
121.412
20
-12.7
40
0.175
0
CIRCLE
8
BLACK
10
118.872
20
-12.7
40
0.175
0
CIRCLE
8
BLACK
10
116.332
20
-12.7
40
0.175
0
CIRCLE
8
BLACK
10
76.962
20
-11.43
40
0.175
0
CIRCLE
8
BLACK
10
74.422
20
-11.43
40
0.175
0
CIRCLE
8
BLACK
10
71.882
20
-11.43
40
0.175
0
CIRCLE
8
BLACK
10
69.342
20
-11.43
40
0.175
0
CIRCLE
8
BLACK
10
66.802
20
-11.43
40
0.175
0
CIRCLE
8
BLACK
10
123.952
20
-24.13
40
0.175
0
CIRCLE
8
BLACK
10
116.332
20
-24.13
40
0.175
0
CIRCLE
8
BLACK
10
62.992
20
-22.86
40
0.175
0
CIRCLE
8
BLACK
10
62.992
20
-20.32
40
0.175
0
CIRCLE
8
BLACK
10
76.962
20
-15.24
40
0.175
0
CIRCLE
8
BLACK
10
74.422
20
-15.24
40
0.175
0
CIRCLE
8
BLACK
10
71.882
20
-15.24
40
0.175
0
CIRCLE
8
BLACK
10
69.342
20
-15.24
40
0.175
0
CIRCLE
8
BLACK
10
66.802
20
-15.24
40
0.175
0
CIRCLE
8
BLACK
10
123.952
20
-17.78
40
0.175
0
CIRCLE
8
BLACK
10
121.412
20
-17.78
40
0.175
0
CIRCLE
8
BLACK
10
118.872
20
-17.78
40
0.175
0
CIRCLE
8
BLACK
10
116.332
20
-17.78
40
0.175
0
CIRCLE
8
BLACK
10
27.432
20
-154.94
40
0.175
0
CIRCLE
8
BLACK
10
24.892
20
-154.94
40
0.175
0
CIRCLE
8
BLACK
10
22.352
20
-154.94
40
0.175
0
CIRCLE
8
BLACK
10
169.672
20
-153.67
40
0.175
0
CIRCLE
8
BLACK
10
167.132
20
-153.67
40
0.175
0
CIRCLE
8
BLACK
10
164.592
20
-153.67
40
0.175
0
CIRCLE
8
BLACK
10
64.262
20
-34.29
40
0.175
0
CIRCLE
8
BLACK
10
64.262
20
-26.67
40
0.175
0
CIRCLE
8
BLACK
10
69.342
20
-34.29
40
0.175
0
CIRCLE
8
BLACK
10
69.342
20
-26.67
40
0.175
0
CIRCLE
8
BLACK
10
103.632
20
-34.29
40
0.175
0
CIRCLE
8
BLACK
10
103.632
20
-26.67
40
0.175
0
CIRCLE
8
BLACK
10
108.712
20
-34.29
40
0.175
0
CIRCLE
8
BLACK
10
108.712
20
-26.67
40
0.175
0
CIRCLE
8
BLACK
10
127.762
20
-34.29
40
0.175
0
CIRCLE
8
BLACK
10
127.762
20
-26.67
40
0.175
0
CIRCLE
8
BLACK
10
170.942
20
-71.12
40
0.175
0
CIRCLE
8
BLACK
10
163.322
20
-71.12
40
0.175
0
CIRCLE
8
BLACK
10
169.672
20
-90.17
40
0.175
0
CIRCLE
8
BLACK
10
162.052
20
-90.17
40
0.175
0
CIRCLE
8
BLACK
10
173.482
20
-106.68
40
0.175
0
CIRCLE
8
BLACK
10
173.482
20
-99.06
40
0.175
0
CIRCLE
8
BLACK
10
169.672
20
-132.08
40
0.175
0
CIRCLE
8
BLACK
10
162.052
20
-132.08
40
0.175
0
CIRCLE
8
BLACK
10
169.672
20
-137.16
40
0.175
0
CIRCLE
8
BLACK
10
162.052
20
-137.16
40
0.175
0
CIRCLE
8
BLACK
10
62.992
20
-172.72
40
0.175
0
CIRCLE
8
BLACK
10
62.992
20
-165.1
40
0.175
0
CIRCLE
8
BLACK
10
129.032
20
-172.72
40
0.175
0
CIRCLE
8
BLACK
10
129.032
20
-165.1
40
0.175
0
CIRCLE
8
BLACK
10
108.712
20
-172.72
40
0.175
0
CIRCLE
8
BLACK
10
108.712
20
-165.1
40
0.175
0
CIRCLE
8
BLACK
10
88.392
20
-172.72
40
0.175
0
CIRCLE
8
BLACK
10
88.392
20
-165.1
40
0.175
0
CIRCLE
8
BLACK
10
83.312
20
-172.72
40
0.175
0
CIRCLE
8
BLACK
10
83.312
20
-165.1
40
0.175
0
CIRCLE
8
BLACK
10
29.972
20
-71.12
40
0.175
0
CIRCLE
8
BLACK
10
22.352
20
-71.12
40
0.175
0
CIRCLE
8
BLACK
10
29.972
20
-137.16
40
0.175
0
CIRCLE
8
BLACK
10
22.352
20
-137.16
40
0.175
0
CIRCLE
8
BLACK
10
19.812
20
-128.27
40
0.175
0
CIRCLE
8
BLACK
10
19.812
20
-120.65
40
0.175
0
CIRCLE
8
BLACK
10
29.972
20
-96.52
40
0.175
0
CIRCLE
8
BLACK
10
22.352
20
-96.52
40
0.175
0
CIRCLE
8
BLACK
10
153.162
20
-171.45
40
0.175
0
CIRCLE
8
BLACK
10
148.082
20
-171.45
40
0.175
0
CIRCLE
8
BLACK
10
73.152
20
-22.86
40
0.175
0
CIRCLE
8
BLACK
10
68.072
20
-22.86
40
0.175
0
CIRCLE
8
BLACK
10
129.032
20
-22.86
40
0.175
0
CIRCLE
8
BLACK
10
134.112
20
-22.86
40
0.175
0
CIRCLE
8
BLACK
10
168.402
20
-95.25
40
0.175
0
CIRCLE
8
BLACK
10
163.322
20
-95.25
40
0.175
0
CIRCLE
8
BLACK
10
47.032
20
-173.55
40
0.175
0
CIRCLE
8
BLACK
10
41.952
20
-173.55
40
0.175
0
CIRCLE
8
BLACK
10
28.702
20
-133.35
40
0.175
0
CIRCLE
8
BLACK
10
23.622
20
-133.35
40
0.175
0
CIRCLE
8
BLACK
10
28.702
20
-54.61
40
0.175
0
CIRCLE
8
BLACK
10
23.622
20
-54.61
40
0.175
0
CIRCLE
8
BLACK
10
76.042
20
-27.411
40
0.175
0
CIRCLE
8
BLACK
10
76.042
20
-33.761
40
0.175
0
CIRCLE
8
BLACK
10
72.867
20
-28.681
40
0.175
0
CIRCLE
8
BLACK
10
79.217
20
-28.681
40
0.175
0
CIRCLE
8
BLACK
10
72.867
20
-33.126
40
0.175
0
CIRCLE
8
BLACK
10
79.217
20
-33.126
40
0.175
0
CIRCLE
8
BLACK
10
96.362
20
-27.411
40
0.175
0
CIRCLE
8
BLACK
10
96.362
20
-33.761
40
0.175
0
CIRCLE
8
BLACK
10
93.187
20
-28.681
40
0.175
0
CIRCLE
8
BLACK
10
99.537
20
-28.681
40
0.175
0
CIRCLE
8
BLACK
10
93.187
20
-33.126
40
0.175
0
CIRCLE
8
BLACK
10
99.537
20
-33.126
40
0.175
0
CIRCLE
8
BLACK
10
116.682
20
-27.411
40
0.175
0
CIRCLE
8
BLACK
10
116.682
20
-33.761
40
0.175
0
CIRCLE
8
BLACK
10
113.507
20
-28.681
40
0.175
0
CIRCLE
8
BLACK
10
119.857
20
-28.681
40
0.175
0
CIRCLE
8
BLACK
10
113.507
20
-33.126
40
0.175
0
CIRCLE
8
BLACK
10
119.857
20
-33.126
40
0.175
0
CIRCLE
8
BLACK
10
137.002
20
-27.411
40
0.175
0
CIRCLE
8
BLACK
10
137.002
20
-33.761
40
0.175
0
CIRCLE
8
BLACK
10
133.827
20
-28.681
40
0.175
0
CIRCLE
8
BLACK
10
140.177
20
-28.681
40
0.175
0
CIRCLE
8
BLACK
10
133.827
20
-33.126
40
0.175
0
CIRCLE
8
BLACK
10
140.177
20
-33.126
40
0.175
0
CIRCLE
8
BLACK
10
163.333
20
-62.99
40
0.175
0
CIRCLE
8
BLACK
10
169.683
20
-62.99
40
0.175
0
CIRCLE
8
BLACK
10
164.603
20
-66.165
40
0.175
0
CIRCLE
8
BLACK
10
164.603
20
-59.815
40
0.175
0
CIRCLE
8
BLACK
10
169.048
20
-66.165
40
0.175
0
CIRCLE
8
BLACK
10
169.048
20
-59.815
40
0.175
0
CIRCLE
8
BLACK
10
163.333
20
-83.31
40
0.175
0
CIRCLE
8
BLACK
10
169.683
20
-83.31
40
0.175
0
CIRCLE
8
BLACK
10
164.603
20
-86.485
40
0.175
0
CIRCLE
8
BLACK
10
164.603
20
-80.135
40
0.175
0
CIRCLE
8
BLACK
10
169.048
20
-86.485
40
0.175
0
CIRCLE
8
BLACK
10
169.048
20
-80.135
40
0.175
0
CIRCLE
8
BLACK
10
163.333
20
-103.63
40
0.175
0
CIRCLE
8
BLACK
10
169.683
20
-103.63
40
0.175
0
CIRCLE
8
BLACK
10
164.603
20
-106.805
40
0.175
0
CIRCLE
8
BLACK
10
164.603
20
-100.455
40
0.175
0
CIRCLE
8
BLACK
10
169.048
20
-106.805
40
0.175
0
CIRCLE
8
BLACK
10
169.048
20
-100.455
40
0.175
0
CIRCLE
8
BLACK
10
170.191
20
-123.95
40
0.175
0
CIRCLE
8
BLACK
10
163.841
20
-123.95
40
0.175
0
CIRCLE
8
BLACK
10
168.921
20
-120.775
40
0.175
0
CIRCLE
8
BLACK
10
168.921
20
-127.125
40
0.175
0
CIRCLE
8
BLACK
10
164.476
20
-120.775
40
0.175
0
CIRCLE
8
BLACK
10
164.476
20
-127.125
40
0.175
0
CIRCLE
8
BLACK
10
163.333
20
-144.27
40
0.175
0
CIRCLE
8
BLACK
10
169.683
20
-144.27
40
0.175
0
CIRCLE
8
BLACK
10
164.603
20
-147.445
40
0.175
0
CIRCLE
8
BLACK
10
164.603
20
-141.095
40
0.175
0
CIRCLE
8
BLACK
10
169.048
20
-147.445
40
0.175
0
CIRCLE
8
BLACK
10
169.048
20
-141.095
40
0.175
0
CIRCLE
8
BLACK
10
137.002
20
-164.741
40
0.175
0
CIRCLE
8
BLACK
10
137.002
20
-171.091
40
0.175
0
CIRCLE
8
BLACK
10
133.827
20
-166.011
40
0.175
0
CIRCLE
8
BLACK
10
140.177
20
-166.011
40
0.175
0
CIRCLE
8
BLACK
10
133.827
20
-170.456
40
0.175
0
CIRCLE
8
BLACK
10
140.177
20
-170.456
40
0.175
0
CIRCLE
8
BLACK
10
116.682
20
-164.741
40
0.175
0
CIRCLE
8
BLACK
10
116.682
20
-171.091
40
0.175
0
CIRCLE
8
BLACK
10
113.507
20
-166.011
40
0.175
0
CIRCLE
8
BLACK
10
119.857
20
-166.011
40
0.175
0
CIRCLE
8
BLACK
10
113.507
20
-170.456
40
0.175
0
CIRCLE
8
BLACK
10
119.857
20
-170.456
40
0.175
0
CIRCLE
8
BLACK
10
96.362
20
-164.741
40
0.175
0
CIRCLE
8
BLACK
10
96.362
20
-171.091
40
0.175
0
CIRCLE
8
BLACK
10
93.187
20
-166.011
40
0.175
0
CIRCLE
8
BLACK
10
99.537
20
-166.011
40
0.175
0
CIRCLE
8
BLACK
10
93.187
20
-170.456
40
0.175
0
CIRCLE
8
BLACK
10
99.537
20
-170.456
40
0.175
0
CIRCLE
8
BLACK
10
76.042
20
-164.741
40
0.175
0
CIRCLE
8
BLACK
10
76.042
20
-171.091
40
0.175
0
CIRCLE
8
BLACK
10
72.867
20
-166.011
40
0.175
0
CIRCLE
8
BLACK
10
79.217
20
-166.011
40
0.175
0
CIRCLE
8
BLACK
10
72.867
20
-170.456
40
0.175
0
CIRCLE
8
BLACK
10
79.217
20
-170.456
40
0.175
0
CIRCLE
8
BLACK
10
55.722
20
-164.741
40
0.175
0
CIRCLE
8
BLACK
10
55.722
20
-171.091
40
0.175
0
CIRCLE
8
BLACK
10
52.547
20
-166.011
40
0.175
0
CIRCLE
8
BLACK
10
58.897
20
-166.011
40
0.175
0
CIRCLE
8
BLACK
10
52.547
20
-170.456
40
0.175
0
CIRCLE
8
BLACK
10
58.897
20
-170.456
40
0.175
0
CIRCLE
8
BLACK
10
22.523
20
-144.27
40
0.175
0
CIRCLE
8
BLACK
10
28.873
20
-144.27
40
0.175
0
CIRCLE
8
BLACK
10
23.793
20
-147.445
40
0.175
0
CIRCLE
8
BLACK
10
23.793
20
-141.095
40
0.175
0
CIRCLE
8
BLACK
10
28.238
20
-147.445
40
0.175
0
CIRCLE
8
BLACK
10
28.238
20
-141.095
40
0.175
0
CIRCLE
8
BLACK
10
22.523
20
-123.95
40
0.175
0
CIRCLE
8
BLACK
10
28.873
20
-123.95
40
0.175
0
CIRCLE
8
BLACK
10
23.793
20
-127.125
40
0.175
0
CIRCLE
8
BLACK
10
23.793
20
-120.775
40
0.175
0
CIRCLE
8
BLACK
10
28.238
20
-127.125
40
0.175
0
CIRCLE
8
BLACK
10
28.238
20
-120.775
40
0.175
0
CIRCLE
8
BLACK
10
22.523
20
-103.63
40
0.175
0
CIRCLE
8
BLACK
10
28.873
20
-103.63
40
0.175
0
CIRCLE
8
BLACK
10
23.793
20
-106.805
40
0.175
0
CIRCLE
8
BLACK
10
23.793
20
-100.455
40
0.175
0
CIRCLE
8
BLACK
10
28.238
20
-106.805
40
0.175
0
CIRCLE
8
BLACK
10
28.238
20
-100.455
40
0.175
0
CIRCLE
8
BLACK
10
22.523
20
-83.31
40
0.175
0
CIRCLE
8
BLACK
10
28.873
20
-83.31
40
0.175
0
CIRCLE
8
BLACK
10
23.793
20
-86.485
40
0.175
0
CIRCLE
8
BLACK
10
23.793
20
-80.135
40
0.175
0
CIRCLE
8
BLACK
10
28.238
20
-86.485
40
0.175
0
CIRCLE
8
BLACK
10
28.238
20
-80.135
40
0.175
0
CIRCLE
8
BLACK
10
22.523
20
-62.99
40
0.175
0
CIRCLE
8
BLACK
10
28.873
20
-62.99
40
0.175
0
CIRCLE
8
BLACK
10
23.793
20
-66.165
40
0.175
0
CIRCLE
8
BLACK
10
23.793
20
-59.815
40
0.175
0
CIRCLE
8
BLACK
10
28.238
20
-66.165
40
0.175
0
CIRCLE
8
BLACK
10
28.238
20
-59.815
40
0.175
0
CIRCLE
8
BLACK
10
55.722
20
-27.411
40
0.175
0
CIRCLE
8
BLACK
10
55.722
20
-33.761
40
0.175
0
CIRCLE
8
BLACK
10
52.547
20
-28.681
40
0.175
0
CIRCLE
8
BLACK
10
58.897
20
-28.681
40
0.175
0
CIRCLE
8
BLACK
10
52.547
20
-33.126
40
0.175
0
CIRCLE
8
BLACK
10
58.897
20
-33.126
40
0.175
  0
ENDSEC
  0
EOF
