G04 #@! TF.GenerationSoftware,KiCad,Pcbnew,(5.1.5-0-10_14)*
G04 #@! TF.CreationDate,2021-11-28T09:12:12+10:00*
G04 #@! TF.ProjectId,Buttons_DDI,42757474-6f6e-4735-9f44-44492e6b6963,rev?*
G04 #@! TF.SameCoordinates,Original*
G04 #@! TF.FileFunction,Copper,L2,Bot*
G04 #@! TF.FilePolarity,Positive*
%FSLAX46Y46*%
G04 Gerber Fmt 4.6, Leading zero omitted, Abs format (unit mm)*
G04 Created by KiCad (PCBNEW (5.1.5-0-10_14)) date 2021-11-28 09:12:12*
%MOMM*%
%LPD*%
G04 APERTURE LIST*
%ADD10C,0.200000*%
%ADD11C,0.100000*%
%ADD12C,1.524000*%
%ADD13C,1.700000*%
%ADD14O,1.800000X1.800000*%
%ADD15R,1.800000X1.800000*%
%ADD16O,1.600000X1.600000*%
%ADD17C,1.600000*%
%ADD18C,1.800000*%
%ADD19O,1.700000X1.700000*%
%ADD20R,1.700000X1.700000*%
%ADD21C,0.800000*%
%ADD22C,0.250000*%
G04 APERTURE END LIST*
D10*
X91030675Y-18376300D02*
G75*
G03X91030675Y-18376300I-1100000J0D01*
G01*
X99531375Y-16288500D02*
G75*
G03X99531375Y-16288500I-3175000J0D01*
G01*
X126464426Y-9144000D02*
X66106369Y-9176498D01*
X30987380Y-164503100D02*
G75*
G03X30987380Y-164503100I-5000000J0D01*
G01*
X60587233Y-17986375D02*
G75*
G03X60587233Y-17986375I-1352550J0D01*
G01*
X173148629Y-113792000D02*
G75*
G03X173148629Y-113792000I-1352550J0D01*
G01*
X50604140Y-161734500D02*
G75*
G02X34163000Y-145293360I0J16441140D01*
G01*
X158864300Y-174434500D02*
G75*
G03X158864300Y-174434500I-1352550J0D01*
G01*
X36626800Y-174434500D02*
G75*
G03X36626800Y-174434500I-1352550J0D01*
G01*
X158623000Y-145293360D02*
X158623000Y-53715640D01*
X142181860Y-37274500D02*
G75*
G02X158623000Y-53715640I0J-16441140D01*
G01*
X142181860Y-37274500D02*
X50604140Y-37274500D01*
X50604140Y-161734500D02*
X142181860Y-161734500D01*
X171798621Y-164503100D02*
G75*
G03X171798621Y-164503100I-5000000J0D01*
G01*
X126464426Y-9144000D02*
G75*
G02X126799582Y-9270248I0J-508000D01*
G01*
X17303750Y-52240798D02*
X17303750Y-176022000D01*
X17811750Y-176530000D02*
X174974250Y-176530000D01*
X175309406Y-51859046D02*
X126799582Y-9270248D01*
X175309406Y-51859046D02*
G75*
G02X175482250Y-52240798I-335156J-381752D01*
G01*
X158623000Y-145293360D02*
G75*
G02X142181860Y-161734500I-16441140J0D01*
G01*
X34163000Y-53715640D02*
X34163000Y-145293360D01*
X134903867Y-17986375D02*
G75*
G03X134903867Y-17986375I-1352550J0D01*
G01*
X22342471Y-113792000D02*
G75*
G03X22342471Y-113792000I-1352550J0D01*
G01*
X175482250Y-176022000D02*
X175482250Y-52240798D01*
X175482250Y-176022000D02*
G75*
G02X174974250Y-176530000I-508000J0D01*
G01*
X17303750Y-52240798D02*
G75*
G02X17476594Y-51859046I508000J0D01*
G01*
X34163000Y-53715640D02*
G75*
G02X50604140Y-37274500I16441140J0D01*
G01*
X17811750Y-176530000D02*
G75*
G02X17303750Y-176022000I0J508000D01*
G01*
X66106369Y-9176498D02*
X17476594Y-51859046D01*
D11*
X18938666Y-176530000D02*
G75*
G03X18938666Y-176530000I-1666666J0D01*
G01*
X14772000Y-176530000D02*
X19772000Y-176530000D01*
X17272000Y-174030000D02*
X17272000Y-179030000D01*
D12*
X23082000Y-123990000D03*
X28873000Y-123950000D03*
D13*
X23793000Y-127125000D03*
X23793000Y-120775000D03*
X28238000Y-127125000D03*
X28238000Y-120775000D03*
D12*
X76002000Y-27970000D03*
X76042000Y-33761000D03*
D13*
X72867000Y-28681000D03*
X79217000Y-28681000D03*
X72867000Y-33126000D03*
X79217000Y-33126000D03*
D12*
X96322000Y-27970000D03*
X96362000Y-33761000D03*
D13*
X93187000Y-28681000D03*
X99537000Y-28681000D03*
X93187000Y-33126000D03*
X99537000Y-33126000D03*
D12*
X116642000Y-27970000D03*
X116682000Y-33761000D03*
D13*
X113507000Y-28681000D03*
X119857000Y-28681000D03*
X113507000Y-33126000D03*
X119857000Y-33126000D03*
D12*
X136962000Y-27970000D03*
X137002000Y-33761000D03*
D13*
X133827000Y-28681000D03*
X140177000Y-28681000D03*
X133827000Y-33126000D03*
X140177000Y-33126000D03*
D12*
X163892000Y-63030000D03*
X169683000Y-62990000D03*
D13*
X164603000Y-66165000D03*
X164603000Y-59815000D03*
X169048000Y-66165000D03*
X169048000Y-59815000D03*
D12*
X163892000Y-83350000D03*
X169683000Y-83310000D03*
D13*
X164603000Y-86485000D03*
X164603000Y-80135000D03*
X169048000Y-86485000D03*
X169048000Y-80135000D03*
D12*
X163892000Y-103670000D03*
X169683000Y-103630000D03*
D13*
X164603000Y-106805000D03*
X164603000Y-100455000D03*
X169048000Y-106805000D03*
X169048000Y-100455000D03*
D12*
X169632000Y-123910000D03*
X163841000Y-123950000D03*
D13*
X168921000Y-120775000D03*
X168921000Y-127125000D03*
X164476000Y-120775000D03*
X164476000Y-127125000D03*
D12*
X163892000Y-144310000D03*
X169683000Y-144270000D03*
D13*
X164603000Y-147445000D03*
X164603000Y-141095000D03*
X169048000Y-147445000D03*
X169048000Y-141095000D03*
D12*
X136962000Y-165300000D03*
X137002000Y-171091000D03*
D13*
X133827000Y-166011000D03*
X140177000Y-166011000D03*
X133827000Y-170456000D03*
X140177000Y-170456000D03*
D12*
X116642000Y-165300000D03*
X116682000Y-171091000D03*
D13*
X113507000Y-166011000D03*
X119857000Y-166011000D03*
X113507000Y-170456000D03*
X119857000Y-170456000D03*
D12*
X96322000Y-165300000D03*
X96362000Y-171091000D03*
D13*
X93187000Y-166011000D03*
X99537000Y-166011000D03*
X93187000Y-170456000D03*
X99537000Y-170456000D03*
D12*
X76002000Y-165300000D03*
X76042000Y-171091000D03*
D13*
X72867000Y-166011000D03*
X79217000Y-166011000D03*
X72867000Y-170456000D03*
X79217000Y-170456000D03*
D12*
X55682000Y-165300000D03*
X55722000Y-171091000D03*
D13*
X52547000Y-166011000D03*
X58897000Y-166011000D03*
X52547000Y-170456000D03*
X58897000Y-170456000D03*
D12*
X23082000Y-144310000D03*
X28873000Y-144270000D03*
D13*
X23793000Y-147445000D03*
X23793000Y-141095000D03*
X28238000Y-147445000D03*
X28238000Y-141095000D03*
D12*
X23082000Y-103670000D03*
X28873000Y-103630000D03*
D13*
X23793000Y-106805000D03*
X23793000Y-100455000D03*
X28238000Y-106805000D03*
X28238000Y-100455000D03*
D12*
X23082000Y-83350000D03*
X28873000Y-83310000D03*
D13*
X23793000Y-86485000D03*
X23793000Y-80135000D03*
X28238000Y-86485000D03*
X28238000Y-80135000D03*
D12*
X23082000Y-63030000D03*
X28873000Y-62990000D03*
D13*
X23793000Y-66165000D03*
X23793000Y-59815000D03*
X28238000Y-66165000D03*
X28238000Y-59815000D03*
D12*
X55682000Y-27970000D03*
X55722000Y-33761000D03*
D13*
X52547000Y-28681000D03*
X58897000Y-28681000D03*
X52547000Y-33126000D03*
X58897000Y-33126000D03*
D14*
X19562000Y-87570000D03*
D15*
X19562000Y-79950000D03*
D16*
X134722000Y-174080000D03*
D17*
X127102000Y-174080000D03*
D16*
X74672000Y-20230000D03*
D17*
X67052000Y-20230000D03*
D16*
X123862000Y-22540000D03*
D17*
X116242000Y-22540000D03*
D16*
X173382000Y-94820000D03*
D17*
X173382000Y-87200000D03*
D16*
X49572000Y-173550000D03*
D17*
X41952000Y-173550000D03*
D16*
X150792000Y-174320000D03*
D17*
X143172000Y-174320000D03*
D16*
X19482000Y-139280000D03*
D17*
X19482000Y-131660000D03*
D16*
X19782000Y-62330000D03*
D17*
X19782000Y-54710000D03*
D18*
X157722000Y-163690000D03*
D15*
X155182000Y-163690000D03*
D18*
X38962000Y-164630000D03*
D15*
X36422000Y-164630000D03*
D19*
X78232000Y-22860000D03*
D20*
X78232000Y-20320000D03*
D19*
X123952000Y-12700000D03*
X121412000Y-12700000D03*
X118872000Y-12700000D03*
D20*
X116332000Y-12700000D03*
D19*
X76962000Y-11430000D03*
X74422000Y-11430000D03*
X71882000Y-11430000D03*
X69342000Y-11430000D03*
D20*
X66802000Y-11430000D03*
D14*
X126962000Y-22680000D03*
D15*
X134582000Y-22680000D03*
D19*
X62992000Y-22860000D03*
D20*
X62992000Y-20320000D03*
D19*
X76962000Y-15240000D03*
X74422000Y-15240000D03*
X71882000Y-15240000D03*
X69342000Y-15240000D03*
D20*
X66802000Y-15240000D03*
D19*
X123952000Y-17780000D03*
X121412000Y-17780000D03*
X118872000Y-17780000D03*
D20*
X116332000Y-17780000D03*
D19*
X27432000Y-154940000D03*
X24892000Y-154940000D03*
D20*
X22352000Y-154940000D03*
D19*
X169672000Y-153670000D03*
X167132000Y-153670000D03*
D20*
X164592000Y-153670000D03*
D14*
X62012000Y-35180000D03*
D15*
X69632000Y-35180000D03*
D14*
X82542000Y-35040000D03*
D15*
X90162000Y-35040000D03*
D14*
X102772000Y-35180000D03*
D15*
X110392000Y-35180000D03*
D14*
X123292000Y-35040000D03*
D15*
X130912000Y-35040000D03*
D14*
X162442000Y-52990000D03*
D15*
X170062000Y-52990000D03*
D14*
X173382000Y-70360000D03*
D15*
X173382000Y-62740000D03*
D14*
X173382000Y-82590000D03*
D15*
X173382000Y-74970000D03*
D14*
X173482000Y-106680000D03*
D15*
X173482000Y-99060000D03*
D14*
X173382000Y-129590000D03*
D15*
X173382000Y-121970000D03*
D14*
X173142000Y-144940000D03*
D15*
X173142000Y-137320000D03*
D14*
X62172000Y-174110000D03*
D15*
X69792000Y-174110000D03*
D14*
X115402000Y-174080000D03*
D15*
X123022000Y-174080000D03*
D14*
X102692000Y-174110000D03*
D15*
X110312000Y-174110000D03*
D14*
X89982000Y-174350000D03*
D15*
X97602000Y-174350000D03*
D14*
X77762000Y-174350000D03*
D15*
X85382000Y-174350000D03*
D14*
X19672000Y-75740000D03*
D15*
X19672000Y-68120000D03*
D14*
X19482000Y-149750000D03*
D15*
X19482000Y-142130000D03*
D14*
X19812000Y-128270000D03*
D15*
X19812000Y-120650000D03*
D14*
X19752000Y-105310000D03*
D15*
X19752000Y-97690000D03*
X104322000Y-13180000D03*
D18*
X106862000Y-13180000D03*
D15*
X83792000Y-12950000D03*
D18*
X86332000Y-12950000D03*
X86532000Y-21810000D03*
D15*
X83992000Y-21810000D03*
D17*
X109072000Y-23230000D03*
D16*
X101452000Y-23230000D03*
D21*
X31186600Y-99236900D03*
X110527600Y-27987000D03*
X146182100Y-30677800D03*
X159894100Y-151838600D03*
X30901000Y-149989400D03*
X84736800Y-20285800D03*
D22*
X100716400Y-28174000D02*
X100716400Y-29244600D01*
X100716400Y-29244600D02*
X100039000Y-29922000D01*
X100039000Y-29922000D02*
X86469300Y-29922000D01*
X86469300Y-29922000D02*
X79407300Y-22860000D01*
X96322000Y-27970000D02*
X96830900Y-27461100D01*
X96830900Y-27461100D02*
X100003500Y-27461100D01*
X100003500Y-27461100D02*
X100716400Y-28174000D01*
X100716400Y-28174000D02*
X103634400Y-25256000D01*
X103634400Y-25256000D02*
X107046000Y-25256000D01*
X107046000Y-25256000D02*
X109072000Y-23230000D01*
X78232000Y-22860000D02*
X79407300Y-22860000D01*
X31186600Y-99236900D02*
X26753500Y-103670000D01*
X26753500Y-103670000D02*
X23082000Y-103670000D01*
X116642000Y-165300000D02*
X118927500Y-163014500D01*
X118927500Y-163014500D02*
X149758700Y-163014500D01*
X149758700Y-163014500D02*
X161084400Y-151688800D01*
X161084400Y-151688800D02*
X161084400Y-132457600D01*
X161084400Y-132457600D02*
X169632000Y-123910000D01*
X77056700Y-22860000D02*
X64167300Y-22860000D01*
X62992000Y-22860000D02*
X64167300Y-22860000D01*
X78232000Y-22860000D02*
X77056700Y-22860000D01*
X55682000Y-27970000D02*
X60792000Y-22860000D01*
X60792000Y-22860000D02*
X62992000Y-22860000D01*
X116642000Y-165300000D02*
X114626700Y-163284700D01*
X114626700Y-163284700D02*
X57697300Y-163284700D01*
X57697300Y-163284700D02*
X55682000Y-165300000D01*
X163892000Y-103670000D02*
X167683400Y-99878600D01*
X167683400Y-99878600D02*
X167683400Y-85309600D01*
X167683400Y-85309600D02*
X169683000Y-83310000D01*
X96362000Y-33761000D02*
X98572600Y-31550400D01*
X98572600Y-31550400D02*
X113061600Y-31550400D01*
X113061600Y-31550400D02*
X116642000Y-27970000D01*
X76002000Y-27970000D02*
X73831800Y-30140200D01*
X73831800Y-30140200D02*
X64044900Y-30140200D01*
X64044900Y-30140200D02*
X59883700Y-34301400D01*
X59883700Y-34301400D02*
X56262400Y-34301400D01*
X56262400Y-34301400D02*
X55722000Y-33761000D01*
X19782000Y-54710000D02*
X20593000Y-54710000D01*
X20593000Y-54710000D02*
X28873000Y-62990000D01*
X19482000Y-131660000D02*
X21163000Y-131660000D01*
X21163000Y-131660000D02*
X28873000Y-123950000D01*
X41952000Y-173550000D02*
X43093400Y-174691400D01*
X43093400Y-174691400D02*
X59670600Y-174691400D01*
X59670600Y-174691400D02*
X61562400Y-172799600D01*
X61562400Y-172799600D02*
X74333400Y-172799600D01*
X74333400Y-172799600D02*
X76042000Y-171091000D01*
X116242000Y-22540000D02*
X118695800Y-24993800D01*
X118695800Y-24993800D02*
X127357100Y-24993800D01*
X127357100Y-24993800D02*
X136124300Y-33761000D01*
X136124300Y-33761000D02*
X137002000Y-33761000D01*
X27772200Y-80135000D02*
X28238000Y-80135000D01*
X20787300Y-79950000D02*
X21794600Y-78942700D01*
X21794600Y-78942700D02*
X26579900Y-78942700D01*
X26579900Y-78942700D02*
X27772200Y-80135000D01*
X27772200Y-80135000D02*
X27772200Y-86019200D01*
X27772200Y-86019200D02*
X28238000Y-86485000D01*
X19562000Y-79950000D02*
X20787300Y-79950000D01*
X19752000Y-97690000D02*
X25473000Y-97690000D01*
X25473000Y-97690000D02*
X28238000Y-100455000D01*
X28238000Y-141095000D02*
X27040100Y-142292900D01*
X27040100Y-142292900D02*
X20870200Y-142292900D01*
X20870200Y-142292900D02*
X20707300Y-142130000D01*
X19482000Y-142130000D02*
X20707300Y-142130000D01*
X19672000Y-68120000D02*
X26283000Y-68120000D01*
X26283000Y-68120000D02*
X28238000Y-66165000D01*
X79217000Y-170456000D02*
X78764600Y-170003600D01*
X78764600Y-170003600D02*
X73319400Y-170003600D01*
X73319400Y-170003600D02*
X72867000Y-170456000D01*
X85382000Y-174350000D02*
X83111000Y-174350000D01*
X83111000Y-174350000D02*
X79217000Y-170456000D01*
X110312000Y-174110000D02*
X110312000Y-172884700D01*
X110312000Y-172884700D02*
X111078300Y-172884700D01*
X111078300Y-172884700D02*
X113507000Y-170456000D01*
X133827000Y-170456000D02*
X134300600Y-169982400D01*
X134300600Y-169982400D02*
X139703400Y-169982400D01*
X139703400Y-169982400D02*
X140177000Y-170456000D01*
X124247300Y-174080000D02*
X127871300Y-170456000D01*
X127871300Y-170456000D02*
X133827000Y-170456000D01*
X123022000Y-174080000D02*
X124247300Y-174080000D01*
X58897000Y-170456000D02*
X57165900Y-172187100D01*
X57165900Y-172187100D02*
X54278100Y-172187100D01*
X54278100Y-172187100D02*
X52547000Y-170456000D01*
X173142000Y-137320000D02*
X171916700Y-137320000D01*
X171916700Y-137320000D02*
X171916700Y-138226300D01*
X171916700Y-138226300D02*
X169048000Y-141095000D01*
X165671000Y-121970000D02*
X164476000Y-120775000D01*
X173382000Y-121970000D02*
X165671000Y-121970000D01*
X165671000Y-121970000D02*
X165671000Y-125930000D01*
X165671000Y-125930000D02*
X164476000Y-127125000D01*
X173482000Y-99060000D02*
X170443000Y-99060000D01*
X170443000Y-99060000D02*
X169048000Y-100455000D01*
X172223000Y-62990000D02*
X169048000Y-59815000D01*
X172769400Y-62740000D02*
X172519400Y-62990000D01*
X172519400Y-62990000D02*
X172223000Y-62990000D01*
X169048000Y-66165000D02*
X172223000Y-62990000D01*
X173382000Y-62740000D02*
X172769400Y-62740000D01*
X168836700Y-52990000D02*
X168836700Y-51269000D01*
X168836700Y-51269000D02*
X150693700Y-33126000D01*
X150693700Y-33126000D02*
X140177000Y-33126000D01*
X170062000Y-52990000D02*
X168836700Y-52990000D01*
X119857000Y-33126000D02*
X119401400Y-32670400D01*
X119401400Y-32670400D02*
X113962600Y-32670400D01*
X113962600Y-32670400D02*
X113507000Y-33126000D01*
X129686700Y-35040000D02*
X127772700Y-33126000D01*
X127772700Y-33126000D02*
X119857000Y-33126000D01*
X130912000Y-35040000D02*
X129686700Y-35040000D01*
X99537000Y-33126000D02*
X107112700Y-33126000D01*
X107112700Y-33126000D02*
X109166700Y-35180000D01*
X110392000Y-35180000D02*
X109166700Y-35180000D01*
X79217000Y-33126000D02*
X78718600Y-32627600D01*
X78718600Y-32627600D02*
X73365400Y-32627600D01*
X73365400Y-32627600D02*
X72867000Y-33126000D01*
X88936700Y-35040000D02*
X87022700Y-33126000D01*
X87022700Y-33126000D02*
X79217000Y-33126000D01*
X90162000Y-35040000D02*
X88936700Y-35040000D01*
X58897000Y-33126000D02*
X58444700Y-32673700D01*
X58444700Y-32673700D02*
X52999300Y-32673700D01*
X52999300Y-32673700D02*
X52547000Y-33126000D01*
X110527600Y-27987000D02*
X107414600Y-31100000D01*
X107414600Y-31100000D02*
X63815200Y-31100000D01*
X63815200Y-31100000D02*
X59127700Y-35787500D01*
X59127700Y-35787500D02*
X40679100Y-35787500D01*
X40679100Y-35787500D02*
X30844600Y-45622000D01*
X30844600Y-45622000D02*
X30844600Y-45903800D01*
X30844600Y-45903800D02*
X32410200Y-47469400D01*
X32410200Y-47469400D02*
X32410200Y-138609100D01*
X32410200Y-138609100D02*
X27836700Y-143182600D01*
X27836700Y-143182600D02*
X22639000Y-143182600D01*
X22639000Y-143182600D02*
X21951900Y-143869700D01*
X21951900Y-143869700D02*
X21951900Y-150824600D01*
X21951900Y-150824600D02*
X24892000Y-153764700D01*
X24892000Y-154940000D02*
X24892000Y-153764700D01*
X167682400Y-152488400D02*
X163469300Y-152488400D01*
X163469300Y-152488400D02*
X147268500Y-168689200D01*
X147268500Y-168689200D02*
X84471700Y-168689200D01*
X84471700Y-168689200D02*
X84108100Y-168325600D01*
X84108100Y-168325600D02*
X62797400Y-168325600D01*
X62797400Y-168325600D02*
X58445700Y-172677300D01*
X58445700Y-172677300D02*
X51735300Y-172677300D01*
X51735300Y-172677300D02*
X48517800Y-169459800D01*
X48517800Y-169459800D02*
X47256400Y-169459800D01*
X47256400Y-169459800D02*
X32736600Y-154940000D01*
X32736600Y-154940000D02*
X27432000Y-154940000D01*
X167682400Y-152488400D02*
X175146600Y-145024200D01*
X175146600Y-145024200D02*
X175146600Y-92591400D01*
X175146600Y-92591400D02*
X172156600Y-89601400D01*
X172156600Y-89601400D02*
X172156600Y-72993300D01*
X172156600Y-72993300D02*
X167872600Y-68709300D01*
X167872600Y-68709300D02*
X167872600Y-50941800D01*
X167872600Y-50941800D02*
X151247800Y-34317000D01*
X151247800Y-34317000D02*
X139705800Y-34317000D01*
X139705800Y-34317000D02*
X139001600Y-33612800D01*
X139001600Y-33612800D02*
X139001600Y-32557000D01*
X139001600Y-32557000D02*
X140155400Y-31403200D01*
X140155400Y-31403200D02*
X146500000Y-31403200D01*
X146500000Y-31403200D02*
X146911800Y-30991400D01*
X146911800Y-30991400D02*
X146911800Y-30305300D01*
X146911800Y-30305300D02*
X140983100Y-24376600D01*
X140983100Y-24376600D02*
X133356600Y-24376600D01*
X133356600Y-24376600D02*
X127935300Y-18955300D01*
X127935300Y-18955300D02*
X120855200Y-18955300D01*
X120855200Y-18955300D02*
X120047300Y-18147400D01*
X120047300Y-18147400D02*
X120047300Y-17780000D01*
X168496700Y-153670000D02*
X168496700Y-153302700D01*
X168496700Y-153302700D02*
X167682400Y-152488400D01*
X118872000Y-17780000D02*
X120047300Y-17780000D01*
X169672000Y-153670000D02*
X168496700Y-153670000D01*
X164592000Y-153670000D02*
X162924600Y-153670000D01*
X162924600Y-153670000D02*
X147346800Y-169247800D01*
X147346800Y-169247800D02*
X119385900Y-169247800D01*
X119385900Y-169247800D02*
X118524900Y-170108800D01*
X118524900Y-170108800D02*
X118524900Y-170787100D01*
X118524900Y-170787100D02*
X117107700Y-172204300D01*
X117107700Y-172204300D02*
X116249500Y-172204300D01*
X116249500Y-172204300D02*
X115474300Y-171429100D01*
X115474300Y-171429100D02*
X115474300Y-170747400D01*
X115474300Y-170747400D02*
X113983600Y-169256700D01*
X113983600Y-169256700D02*
X105812300Y-169256700D01*
X105812300Y-169256700D02*
X102859400Y-172209600D01*
X102859400Y-172209600D02*
X95929900Y-172209600D01*
X95929900Y-172209600D02*
X94983500Y-171263200D01*
X94983500Y-171263200D02*
X94983500Y-170519500D01*
X94983500Y-170519500D02*
X93690300Y-169226300D01*
X93690300Y-169226300D02*
X84371900Y-169226300D01*
X84371900Y-169226300D02*
X83921500Y-168775900D01*
X83921500Y-168775900D02*
X62984100Y-168775900D01*
X62984100Y-168775900D02*
X58632300Y-173127700D01*
X58632300Y-173127700D02*
X50924300Y-173127700D01*
X50924300Y-173127700D02*
X47706800Y-169910200D01*
X47706800Y-169910200D02*
X46806500Y-169910200D01*
X46806500Y-169910200D02*
X33461900Y-156565600D01*
X33461900Y-156565600D02*
X24785500Y-156565600D01*
X24785500Y-156565600D02*
X23527300Y-155307400D01*
X23527300Y-155307400D02*
X23527300Y-154940000D01*
X117507300Y-17780000D02*
X117507300Y-18147300D01*
X117507300Y-18147300D02*
X119301600Y-19941600D01*
X119301600Y-19941600D02*
X127868700Y-19941600D01*
X127868700Y-19941600D02*
X134175700Y-26248600D01*
X134175700Y-26248600D02*
X141752900Y-26248600D01*
X141752900Y-26248600D02*
X146182100Y-30677800D01*
X116332000Y-17780000D02*
X117507300Y-17780000D01*
X22352000Y-154940000D02*
X23527300Y-154940000D01*
X23082000Y-144310000D02*
X22591000Y-144801000D01*
X22591000Y-144801000D02*
X22591000Y-147949500D01*
X22591000Y-147949500D02*
X28257200Y-153615700D01*
X28257200Y-153615700D02*
X32049200Y-153615700D01*
X32049200Y-153615700D02*
X47187700Y-168754200D01*
X47187700Y-168754200D02*
X53385200Y-168754200D01*
X53385200Y-168754200D02*
X55722000Y-171091000D01*
X136962000Y-165300000D02*
X137876600Y-164385400D01*
X137876600Y-164385400D02*
X150298500Y-164385400D01*
X150298500Y-164385400D02*
X166732900Y-147951000D01*
X166732900Y-147951000D02*
X166732900Y-147220100D01*
X166732900Y-147220100D02*
X169683000Y-144270000D01*
X124517300Y-35040000D02*
X125742600Y-36265300D01*
X125742600Y-36265300D02*
X150522500Y-36265300D01*
X150522500Y-36265300D02*
X162442000Y-48184800D01*
X162442000Y-48184800D02*
X162442000Y-52990000D01*
X123292000Y-35040000D02*
X124517300Y-35040000D01*
X62012000Y-35180000D02*
X63237300Y-35180000D01*
X82542000Y-35040000D02*
X81316700Y-35040000D01*
X81316700Y-35040000D02*
X79951400Y-36405300D01*
X79951400Y-36405300D02*
X64462600Y-36405300D01*
X64462600Y-36405300D02*
X63237300Y-35180000D01*
X83154700Y-35040000D02*
X82542000Y-35040000D01*
X83154700Y-35040000D02*
X83767300Y-35040000D01*
X102772000Y-35180000D02*
X101546700Y-35180000D01*
X101546700Y-35180000D02*
X100461400Y-36265300D01*
X100461400Y-36265300D02*
X84992600Y-36265300D01*
X84992600Y-36265300D02*
X83767300Y-35040000D01*
X77762000Y-174350000D02*
X76536700Y-174350000D01*
X62172000Y-174110000D02*
X63397300Y-174110000D01*
X63397300Y-174110000D02*
X64622600Y-175335300D01*
X64622600Y-175335300D02*
X75551400Y-175335300D01*
X75551400Y-175335300D02*
X76536700Y-174350000D01*
X115402000Y-174080000D02*
X114176700Y-174080000D01*
X102692000Y-174110000D02*
X103917300Y-174110000D01*
X103917300Y-174110000D02*
X105142700Y-175335400D01*
X105142700Y-175335400D02*
X112921300Y-175335400D01*
X112921300Y-175335400D02*
X114176700Y-174080000D01*
X89982000Y-174350000D02*
X88756700Y-174350000D01*
X77762000Y-174350000D02*
X78987300Y-174350000D01*
X78987300Y-174350000D02*
X80212600Y-175575300D01*
X80212600Y-175575300D02*
X87531400Y-175575300D01*
X87531400Y-175575300D02*
X88756700Y-174350000D01*
X133827000Y-166011000D02*
X131599200Y-168238800D01*
X131599200Y-168238800D02*
X84658200Y-168238800D01*
X84658200Y-168238800D02*
X84294700Y-167875300D01*
X84294700Y-167875300D02*
X47006100Y-167875300D01*
X47006100Y-167875300D02*
X26575800Y-147445000D01*
X26575800Y-147445000D02*
X23793000Y-147445000D01*
X164603000Y-59815000D02*
X164603000Y-48995000D01*
X164603000Y-48995000D02*
X150865100Y-35257100D01*
X150865100Y-35257100D02*
X134071000Y-35257100D01*
X134071000Y-35257100D02*
X124258100Y-25444200D01*
X124258100Y-25444200D02*
X116472700Y-25444200D01*
X116472700Y-25444200D02*
X113121600Y-22093100D01*
X113121600Y-22093100D02*
X108408700Y-22093100D01*
X108408700Y-22093100D02*
X106145200Y-24356600D01*
X106145200Y-24356600D02*
X84261300Y-24356600D01*
X84261300Y-24356600D02*
X82656500Y-22751800D01*
X82656500Y-22751800D02*
X82656500Y-21867800D01*
X82656500Y-21867800D02*
X77204000Y-16415300D01*
X77204000Y-16415300D02*
X76962000Y-16415300D01*
X76962000Y-15240000D02*
X76962000Y-16415300D01*
X58897000Y-28681000D02*
X58508800Y-29069200D01*
X58508800Y-29069200D02*
X52935200Y-29069200D01*
X52935200Y-29069200D02*
X52547000Y-28681000D01*
X164603000Y-59815000D02*
X164986900Y-60198900D01*
X164986900Y-60198900D02*
X164986900Y-65781100D01*
X164986900Y-65781100D02*
X164603000Y-66165000D01*
X79217000Y-28681000D02*
X80908300Y-30372300D01*
X80908300Y-30372300D02*
X100291000Y-30372300D01*
X100291000Y-30372300D02*
X103806900Y-26856400D01*
X103806900Y-26856400D02*
X125033400Y-26856400D01*
X125033400Y-26856400D02*
X133974600Y-35797600D01*
X133974600Y-35797600D02*
X150768700Y-35797600D01*
X150768700Y-35797600D02*
X163709200Y-48738100D01*
X163709200Y-48738100D02*
X163709200Y-57405200D01*
X163709200Y-57405200D02*
X162800900Y-58313500D01*
X162800900Y-58313500D02*
X162800900Y-78332900D01*
X162800900Y-78332900D02*
X164603000Y-80135000D01*
X164603000Y-86485000D02*
X159894100Y-91193900D01*
X159894100Y-91193900D02*
X159894100Y-151838600D01*
X72867000Y-28681000D02*
X61679800Y-28681000D01*
X61679800Y-28681000D02*
X60504400Y-29856400D01*
X60504400Y-29856400D02*
X53911000Y-29856400D01*
X53911000Y-29856400D02*
X51371600Y-32395800D01*
X51371600Y-32395800D02*
X43433900Y-32395800D01*
X43433900Y-32395800D02*
X30394200Y-45435500D01*
X30394200Y-45435500D02*
X30394200Y-94181100D01*
X30394200Y-94181100D02*
X31923400Y-95710300D01*
X31923400Y-95710300D02*
X31923400Y-112644600D01*
X31923400Y-112644600D02*
X23793000Y-120775000D01*
X113507000Y-166011000D02*
X114340700Y-166844700D01*
X114340700Y-166844700D02*
X119023300Y-166844700D01*
X119023300Y-166844700D02*
X119857000Y-166011000D01*
X71882000Y-15240000D02*
X73057300Y-15240000D01*
X73057300Y-15240000D02*
X73057300Y-15607300D01*
X73057300Y-15607300D02*
X76512800Y-19062800D01*
X76512800Y-19062800D02*
X79193000Y-19062800D01*
X79193000Y-19062800D02*
X81447100Y-21316900D01*
X81447100Y-21316900D02*
X81447100Y-22265000D01*
X81447100Y-22265000D02*
X87863100Y-28681000D01*
X87863100Y-28681000D02*
X93187000Y-28681000D01*
X93187000Y-166011000D02*
X92006100Y-167191900D01*
X92006100Y-167191900D02*
X48103500Y-167191900D01*
X48103500Y-167191900D02*
X30901000Y-149989400D01*
X99537000Y-166011000D02*
X99153600Y-166394400D01*
X99153600Y-166394400D02*
X93570400Y-166394400D01*
X93570400Y-166394400D02*
X93187000Y-166011000D01*
X164603000Y-106805000D02*
X164603000Y-111029900D01*
X164603000Y-111029900D02*
X172414100Y-118841000D01*
X172414100Y-118841000D02*
X172551300Y-118841000D01*
X172551300Y-118841000D02*
X174648000Y-120937700D01*
X174648000Y-120937700D02*
X174648000Y-140842900D01*
X174648000Y-140842900D02*
X169860000Y-145630900D01*
X169860000Y-145630900D02*
X169153600Y-145630900D01*
X169153600Y-145630900D02*
X167342500Y-147442000D01*
X167342500Y-147442000D02*
X167342500Y-147978300D01*
X167342500Y-147978300D02*
X150485100Y-164835700D01*
X150485100Y-164835700D02*
X139430800Y-164835700D01*
X139430800Y-164835700D02*
X137878800Y-166387700D01*
X137878800Y-166387700D02*
X136506600Y-166387700D01*
X136506600Y-166387700D02*
X134949800Y-164830900D01*
X134949800Y-164830900D02*
X131890400Y-164830900D01*
X131890400Y-164830900D02*
X128937000Y-167784300D01*
X128937000Y-167784300D02*
X101310300Y-167784300D01*
X101310300Y-167784300D02*
X99537000Y-166011000D01*
X99537000Y-28681000D02*
X99155900Y-29062100D01*
X99155900Y-29062100D02*
X93568100Y-29062100D01*
X93568100Y-29062100D02*
X93187000Y-28681000D01*
X72867000Y-166011000D02*
X73255200Y-166399200D01*
X73255200Y-166399200D02*
X78828800Y-166399200D01*
X78828800Y-166399200D02*
X79217000Y-166011000D01*
X70517300Y-15240000D02*
X70517300Y-14872700D01*
X70517300Y-14872700D02*
X71376200Y-14013800D01*
X71376200Y-14013800D02*
X78464800Y-14013800D01*
X78464800Y-14013800D02*
X84736800Y-20285800D01*
X69342000Y-15240000D02*
X70517300Y-15240000D01*
X79217000Y-166011000D02*
X81042600Y-164185400D01*
X81042600Y-164185400D02*
X110015100Y-164185400D01*
X110015100Y-164185400D02*
X113128800Y-167299100D01*
X113128800Y-167299100D02*
X128622700Y-167299100D01*
X128622700Y-167299100D02*
X131986700Y-163935100D01*
X131986700Y-163935100D02*
X150111900Y-163935100D01*
X150111900Y-163935100D02*
X166282600Y-147764400D01*
X166282600Y-147764400D02*
X166282600Y-129763400D01*
X166282600Y-129763400D02*
X168921000Y-127125000D01*
X115109400Y-11475600D02*
X113721800Y-10088000D01*
X113721800Y-10088000D02*
X80361800Y-10088000D01*
X80361800Y-10088000D02*
X77458300Y-12991500D01*
X77458300Y-12991500D02*
X68462900Y-12991500D01*
X68462900Y-12991500D02*
X66214400Y-15240000D01*
X115109400Y-11475600D02*
X115109400Y-18734400D01*
X115109400Y-18734400D02*
X117434600Y-21059600D01*
X117434600Y-21059600D02*
X127074800Y-21059600D01*
X127074800Y-21059600D02*
X133827000Y-27811800D01*
X133827000Y-27811800D02*
X133827000Y-28681000D01*
X115109400Y-11475600D02*
X117647600Y-11475600D01*
X117647600Y-11475600D02*
X118872000Y-12700000D01*
X66214400Y-15240000D02*
X65626700Y-15240000D01*
X66802000Y-15240000D02*
X66214400Y-15240000D01*
X58897000Y-166011000D02*
X61173000Y-163735000D01*
X61173000Y-163735000D02*
X113459600Y-163735000D01*
X113459600Y-163735000D02*
X116119000Y-166394400D01*
X116119000Y-166394400D02*
X117599500Y-166394400D01*
X117599500Y-166394400D02*
X120509100Y-163484800D01*
X120509100Y-163484800D02*
X149925300Y-163484800D01*
X149925300Y-163484800D02*
X164603000Y-148807100D01*
X164603000Y-148807100D02*
X164603000Y-147445000D01*
X140177000Y-28681000D02*
X139792200Y-29065800D01*
X139792200Y-29065800D02*
X134211800Y-29065800D01*
X134211800Y-29065800D02*
X133827000Y-28681000D01*
X58897000Y-166011000D02*
X58520600Y-166387400D01*
X58520600Y-166387400D02*
X52923400Y-166387400D01*
X52923400Y-166387400D02*
X52547000Y-166011000D01*
X65626700Y-15240000D02*
X61629500Y-19237200D01*
X61629500Y-19237200D02*
X61629500Y-19606000D01*
X61629500Y-19606000D02*
X60231100Y-21004400D01*
X60231100Y-21004400D02*
X55906100Y-21004400D01*
X55906100Y-21004400D02*
X46199700Y-30710800D01*
X46199700Y-30710800D02*
X42137900Y-30710800D01*
X42137900Y-30710800D02*
X18626300Y-54222400D01*
X18626300Y-54222400D02*
X18626300Y-55155900D01*
X18626300Y-55155900D02*
X23285400Y-59815000D01*
X23285400Y-59815000D02*
X23793000Y-59815000D01*
X49572000Y-173550000D02*
X50697300Y-173550000D01*
X150792000Y-174320000D02*
X149666700Y-174320000D01*
X149666700Y-174320000D02*
X148199500Y-175787200D01*
X148199500Y-175787200D02*
X94910800Y-175787200D01*
X94910800Y-175787200D02*
X92011600Y-172888000D01*
X92011600Y-172888000D02*
X84558600Y-172888000D01*
X84558600Y-172888000D02*
X80949300Y-169278700D01*
X80949300Y-169278700D02*
X63689200Y-169278700D01*
X63689200Y-169278700D02*
X59353100Y-173614800D01*
X59353100Y-173614800D02*
X50762100Y-173614800D01*
X50762100Y-173614800D02*
X50697300Y-173550000D01*
X68165000Y-18036800D02*
X71353500Y-18036800D01*
X71353500Y-18036800D02*
X73546700Y-20230000D01*
X64167300Y-20320000D02*
X66450500Y-18036800D01*
X66450500Y-18036800D02*
X68165000Y-18036800D01*
X68165000Y-18036800D02*
X68165000Y-14753300D01*
X68165000Y-14753300D02*
X69476400Y-13441900D01*
X69476400Y-13441900D02*
X78579900Y-13441900D01*
X78579900Y-13441900D02*
X81429200Y-10592600D01*
X81429200Y-10592600D02*
X104274600Y-10592600D01*
X104274600Y-10592600D02*
X106862000Y-13180000D01*
X74672000Y-20230000D02*
X73546700Y-20230000D01*
X106862000Y-13180000D02*
X108582700Y-13180000D01*
X108582700Y-13180000D02*
X117942700Y-22540000D01*
X117942700Y-22540000D02*
X123862000Y-22540000D01*
X62992000Y-20320000D02*
X64167300Y-20320000D01*
X173382000Y-94820000D02*
X173382000Y-93694700D01*
X123862000Y-22540000D02*
X124987300Y-22540000D01*
X124987300Y-22540000D02*
X126352600Y-23905300D01*
X126352600Y-23905300D02*
X126922000Y-23905300D01*
X126922000Y-23905300D02*
X134594900Y-31578200D01*
X134594900Y-31578200D02*
X136404000Y-31578200D01*
X136404000Y-31578200D02*
X138385800Y-33560000D01*
X138385800Y-33560000D02*
X138385800Y-33635600D01*
X138385800Y-33635600D02*
X139517600Y-34767400D01*
X139517600Y-34767400D02*
X151061300Y-34767400D01*
X151061300Y-34767400D02*
X166403700Y-50109800D01*
X166403700Y-50109800D02*
X166403700Y-73662000D01*
X166403700Y-73662000D02*
X170770400Y-78028700D01*
X170770400Y-78028700D02*
X170770400Y-91083100D01*
X170770400Y-91083100D02*
X173382000Y-93694700D01*
X19782000Y-63455300D02*
X18193000Y-65044300D01*
X18193000Y-65044300D02*
X18193000Y-136865700D01*
X18193000Y-136865700D02*
X19482000Y-138154700D01*
X19482000Y-139280000D02*
X19482000Y-138154700D01*
X19782000Y-62330000D02*
X19782000Y-63455300D01*
X117507300Y-12700000D02*
X117507300Y-13067400D01*
X117507300Y-13067400D02*
X118765500Y-14325600D01*
X118765500Y-14325600D02*
X125002300Y-14325600D01*
X125002300Y-14325600D02*
X133356700Y-22680000D01*
X134582000Y-22680000D02*
X133356700Y-22680000D01*
X116332000Y-12700000D02*
X117507300Y-12700000D01*
X153956700Y-163690000D02*
X145142300Y-172504400D01*
X145142300Y-172504400D02*
X137422900Y-172504400D01*
X137422900Y-172504400D02*
X135847300Y-174080000D01*
X134722000Y-174080000D02*
X135847300Y-174080000D01*
X155182000Y-163690000D02*
X153956700Y-163690000D01*
X86332000Y-12950000D02*
X88236100Y-11045900D01*
X88236100Y-11045900D02*
X100962600Y-11045900D01*
X100962600Y-11045900D02*
X103096700Y-13180000D01*
X104322000Y-13180000D02*
X103096700Y-13180000D01*
X83992000Y-21810000D02*
X85217300Y-21810000D01*
X101452000Y-23230000D02*
X86177800Y-23230000D01*
X86177800Y-23230000D02*
X85217300Y-22269500D01*
X85217300Y-22269500D02*
X85217300Y-21810000D01*
M02*
