  0
SECTION
  2
HEADER
  9
$ANGBASE
  50
0.0
  9
$ANGDIR
  70
1
  9
$MEASUREMENT
  70
1
  0
ENDSEC
  0
SECTION
  2
TABLES
  0
TABLE
  2
LTYPE
  70
4
  0
LTYPE
  5
40F
  2
CONTINUOUS
  70
0
  3
Solid line
  72
65
  73
0
  40
0.0
  0
LTYPE
  5
410
  2
DASHDOT
 70
0
  3
Dash Dot ____ _ ____ _
 72
65
 73
4
 40
2.0
 49
1.25
 49
-0.25
 49
0.25
 49
-0.25
  0
LTYPE
  5
411
  2
DASHED
 70
0
  3
Dashed __ __ __ __ __
 72
65
 73
2
 40
0.75
 49
0.5
 49
-0.25
  0
LTYPE
  5
43B
  2
DOTTED
 70
0
  3
Dotted .  .  .  .
 72
65
 73
2
 40
0.2
 49
0.0
 49
-0.2
  0
ENDTAB
  0
TABLE
  2
STYLE
  70
4
  0
STYLE
  2
KICAD
  70
0
  40
0
  41
1
  42
1
  50
0
  71
0
  3
isocp.shx
  0
STYLE
  2
KICADB
  70
0
  40
0
  41
1
  42
1
  50
0
  71
0
  3
isocp.shx
  0
STYLE
  2
KICADI
  70
0
  40
0
  41
1
  42
1
  50
15
  71
0
  3
isocp.shx
  0
STYLE
  2
KICADBI
  70
0
  40
0
  41
1
  42
1
  50
15
  71
0
  3
isocp.shx
  0
ENDTAB
  0
TABLE
  2
LAYER
  70
1
  0
LAYER
  2
BLACK
  70
0
  62
7
  6
CONTINUOUS
  0
ENDTAB
  0
ENDSEC
  0
SECTION
  2
ENTITIES
0
LINE
8
BLACK
6
CONTINUOUS
10
141.208
20
-22.397
11
148.568
21
-22.397
0
LINE
8
BLACK
6
CONTINUOUS
10
148.568
20
-22.397
11
148.569
21
-22.3969
0
LINE
8
BLACK
6
CONTINUOUS
10
148.569
20
-22.3969
11
148.578
21
-22.397
0
LINE
8
BLACK
6
CONTINUOUS
10
148.578
20
-22.397
11
148.582
21
-22.397
0
LINE
8
BLACK
6
CONTINUOUS
10
148.582
20
-22.397
11
148.583
21
-22.3971
0
LINE
8
BLACK
6
CONTINUOUS
10
148.583
20
-22.3971
11
148.588
21
-22.3972
0
LINE
8
BLACK
6
CONTINUOUS
10
148.588
20
-22.3972
11
148.592
21
-22.398
0
LINE
8
BLACK
6
CONTINUOUS
10
148.592
20
-22.398
11
148.597
21
-22.3984
0
LINE
8
BLACK
6
CONTINUOUS
10
148.597
20
-22.3984
11
148.602
21
-22.4001
0
LINE
8
BLACK
6
CONTINUOUS
10
148.602
20
-22.4001
11
148.608
21
-22.4013
0
LINE
8
BLACK
6
CONTINUOUS
10
148.608
20
-22.4013
11
148.611
21
-22.403
0
LINE
8
BLACK
6
CONTINUOUS
10
148.611
20
-22.403
11
148.615
21
-22.4042
0
LINE
8
BLACK
6
CONTINUOUS
10
148.615
20
-22.4042
11
148.62
21
-22.4069
0
LINE
8
BLACK
6
CONTINUOUS
10
148.62
20
-22.4069
11
148.626
21
-22.4091
0
LINE
8
BLACK
6
CONTINUOUS
10
148.626
20
-22.4091
11
148.629
21
-22.4115
0
LINE
8
BLACK
6
CONTINUOUS
10
148.629
20
-22.4115
11
148.633
21
-22.4135
0
LINE
8
BLACK
6
CONTINUOUS
10
148.633
20
-22.4135
11
148.637
21
-22.4171
0
LINE
8
BLACK
6
CONTINUOUS
10
148.637
20
-22.4171
11
148.638
21
-22.4175
0
LINE
8
BLACK
6
CONTINUOUS
10
148.638
20
-22.4175
11
148.641
21
-22.4202
0
LINE
8
BLACK
6
CONTINUOUS
10
148.641
20
-22.4202
11
148.648
21
-22.4259
0
LINE
8
BLACK
6
CONTINUOUS
10
148.648
20
-22.4259
11
148.649
21
-22.4265
0
LINE
8
BLACK
6
CONTINUOUS
10
148.649
20
-22.4265
11
172.276
21
-42.4323
0
LINE
8
BLACK
6
CONTINUOUS
10
172.276
20
-42.4323
11
172.283
21
-42.438
0
LINE
8
BLACK
6
CONTINUOUS
10
172.283
20
-42.438
11
172.287
21
-42.4424
0
LINE
8
BLACK
6
CONTINUOUS
10
172.287
20
-42.4424
11
172.291
21
-42.4465
0
LINE
8
BLACK
6
CONTINUOUS
10
172.291
20
-42.4465
11
172.293
21
-42.45
0
LINE
8
BLACK
6
CONTINUOUS
10
172.293
20
-42.45
11
172.296
21
-42.4532
0
LINE
8
BLACK
6
CONTINUOUS
10
172.296
20
-42.4532
11
172.298
21
-42.4583
0
LINE
8
BLACK
6
CONTINUOUS
10
172.298
20
-42.4583
11
172.301
21
-42.463
0
LINE
8
BLACK
6
CONTINUOUS
10
172.301
20
-42.463
11
172.303
21
-42.4669
0
LINE
8
BLACK
6
CONTINUOUS
10
172.303
20
-42.4669
11
172.305
21
-42.4706
0
LINE
8
BLACK
6
CONTINUOUS
10
172.305
20
-42.4706
11
172.306
21
-42.4761
0
LINE
8
BLACK
6
CONTINUOUS
10
172.306
20
-42.4761
11
172.309
21
-42.4814
0
LINE
8
BLACK
6
CONTINUOUS
10
172.309
20
-42.4814
11
172.309
21
-42.4855
0
LINE
8
BLACK
6
CONTINUOUS
10
172.309
20
-42.4855
11
172.311
21
-42.4894
0
LINE
8
BLACK
6
CONTINUOUS
10
172.311
20
-42.4894
11
172.311
21
-42.4951
0
LINE
8
BLACK
6
CONTINUOUS
10
172.311
20
-42.4951
11
172.312
21
-42.5007
0
LINE
8
BLACK
6
CONTINUOUS
10
172.312
20
-42.5007
11
172.312
21
-42.5097
0
LINE
8
BLACK
6
CONTINUOUS
10
172.312
20
-42.5097
11
172.312
21
-51.7795
0
LINE
8
BLACK
6
CONTINUOUS
10
172.312
20
-51.7795
11
178.176
21
-51.7795
0
LINE
8
BLACK
6
CONTINUOUS
10
178.176
20
-51.7795
11
178.181
21
-51.779
0
LINE
8
BLACK
6
CONTINUOUS
10
178.181
20
-51.779
11
178.186
21
-51.7795
0
LINE
8
BLACK
6
CONTINUOUS
10
178.186
20
-51.7795
11
178.201
21
-51.7809
0
LINE
8
BLACK
6
CONTINUOUS
10
178.201
20
-51.7809
11
178.219
21
-51.7867
0
LINE
8
BLACK
6
CONTINUOUS
10
178.219
20
-51.7867
11
178.237
21
-51.796
0
LINE
8
BLACK
6
CONTINUOUS
10
178.237
20
-51.796
11
178.252
21
-51.8084
0
LINE
8
BLACK
6
CONTINUOUS
10
178.252
20
-51.8084
11
178.265
21
-51.8237
0
LINE
8
BLACK
6
CONTINUOUS
10
178.265
20
-51.8237
11
178.274
21
-51.841
0
LINE
8
BLACK
6
CONTINUOUS
10
178.274
20
-51.841
11
178.28
21
-51.8599
0
LINE
8
BLACK
6
CONTINUOUS
10
178.28
20
-51.8599
11
178.281
21
-51.8795
0
LINE
8
BLACK
6
CONTINUOUS
10
178.281
20
-51.8795
11
178.281
21
-51.8844
0
LINE
8
BLACK
6
CONTINUOUS
10
178.281
20
-51.8844
11
178.281
21
-193.162
0
LINE
8
BLACK
6
CONTINUOUS
10
178.281
20
-193.162
11
178.281
21
-193.167
0
LINE
8
BLACK
6
CONTINUOUS
10
178.281
20
-193.167
11
178.28
21
-193.187
0
LINE
8
BLACK
6
CONTINUOUS
10
178.28
20
-193.187
11
178.274
21
-193.205
0
LINE
8
BLACK
6
CONTINUOUS
10
178.274
20
-193.205
11
178.265
21
-193.223
0
LINE
8
BLACK
6
CONTINUOUS
10
178.265
20
-193.223
11
178.252
21
-193.238
0
LINE
8
BLACK
6
CONTINUOUS
10
178.252
20
-193.238
11
178.237
21
-193.251
0
LINE
8
BLACK
6
CONTINUOUS
10
178.237
20
-193.251
11
178.219
21
-193.26
0
LINE
8
BLACK
6
CONTINUOUS
10
178.219
20
-193.26
11
178.201
21
-193.266
0
LINE
8
BLACK
6
CONTINUOUS
10
178.201
20
-193.266
11
178.186
21
-193.267
0
LINE
8
BLACK
6
CONTINUOUS
10
178.186
20
-193.267
11
178.181
21
-193.267
0
LINE
8
BLACK
6
CONTINUOUS
10
178.181
20
-193.267
11
178.176
21
-193.267
0
LINE
8
BLACK
6
CONTINUOUS
10
178.176
20
-193.267
11
167.645
21
-193.267
0
LINE
8
BLACK
6
CONTINUOUS
10
167.645
20
-193.267
11
167.64
21
-193.267
0
LINE
8
BLACK
6
CONTINUOUS
10
167.64
20
-193.267
11
167.62
21
-193.266
0
LINE
8
BLACK
6
CONTINUOUS
10
167.62
20
-193.266
11
167.602
21
-193.26
0
LINE
8
BLACK
6
CONTINUOUS
10
167.602
20
-193.26
11
167.584
21
-193.251
0
LINE
8
BLACK
6
CONTINUOUS
10
167.584
20
-193.251
11
167.569
21
-193.238
0
LINE
8
BLACK
6
CONTINUOUS
10
167.569
20
-193.238
11
167.556
21
-193.223
0
LINE
8
BLACK
6
CONTINUOUS
10
167.556
20
-193.223
11
167.547
21
-193.205
0
LINE
8
BLACK
6
CONTINUOUS
10
167.547
20
-193.205
11
167.541
21
-193.187
0
LINE
8
BLACK
6
CONTINUOUS
10
167.541
20
-193.187
11
167.54
21
-193.167
0
LINE
8
BLACK
6
CONTINUOUS
10
167.54
20
-193.167
11
167.54
21
-193.162
0
LINE
8
BLACK
6
CONTINUOUS
10
167.54
20
-193.162
11
167.54
21
-188.25
0
LINE
8
BLACK
6
CONTINUOUS
10
167.54
20
-188.25
11
159.866
21
-188.25
0
LINE
8
BLACK
6
CONTINUOUS
10
159.866
20
-188.25
11
159.866
21
-193.162
0
LINE
8
BLACK
6
CONTINUOUS
10
159.866
20
-193.162
11
159.866
21
-193.167
0
LINE
8
BLACK
6
CONTINUOUS
10
159.866
20
-193.167
11
159.865
21
-193.187
0
LINE
8
BLACK
6
CONTINUOUS
10
159.865
20
-193.187
11
159.859
21
-193.205
0
LINE
8
BLACK
6
CONTINUOUS
10
159.859
20
-193.205
11
159.85
21
-193.223
0
LINE
8
BLACK
6
CONTINUOUS
10
159.85
20
-193.223
11
159.837
21
-193.238
0
LINE
8
BLACK
6
CONTINUOUS
10
159.837
20
-193.238
11
159.822
21
-193.251
0
LINE
8
BLACK
6
CONTINUOUS
10
159.822
20
-193.251
11
159.804
21
-193.26
0
LINE
8
BLACK
6
CONTINUOUS
10
159.804
20
-193.26
11
159.786
21
-193.266
0
LINE
8
BLACK
6
CONTINUOUS
10
159.786
20
-193.266
11
159.771
21
-193.267
0
LINE
8
BLACK
6
CONTINUOUS
10
159.771
20
-193.267
11
159.766
21
-193.267
0
LINE
8
BLACK
6
CONTINUOUS
10
159.766
20
-193.267
11
159.761
21
-193.267
0
LINE
8
BLACK
6
CONTINUOUS
10
159.761
20
-193.267
11
33.7869
21
-193.267
0
LINE
8
BLACK
6
CONTINUOUS
10
33.7869
20
-193.267
11
33.782
21
-193.267
0
LINE
8
BLACK
6
CONTINUOUS
10
33.782
20
-193.267
11
33.7624
21
-193.266
0
LINE
8
BLACK
6
CONTINUOUS
10
33.7624
20
-193.266
11
33.7435
21
-193.26
0
LINE
8
BLACK
6
CONTINUOUS
10
33.7435
20
-193.26
11
33.7262
21
-193.251
0
LINE
8
BLACK
6
CONTINUOUS
10
33.7262
20
-193.251
11
33.7109
21
-193.238
0
LINE
8
BLACK
6
CONTINUOUS
10
33.7109
20
-193.238
11
33.6985
21
-193.223
0
LINE
8
BLACK
6
CONTINUOUS
10
33.6985
20
-193.223
11
33.6892
21
-193.205
0
LINE
8
BLACK
6
CONTINUOUS
10
33.6892
20
-193.205
11
33.6834
21
-193.187
0
LINE
8
BLACK
6
CONTINUOUS
10
33.6834
20
-193.187
11
33.6815
21
-193.167
0
LINE
8
BLACK
6
CONTINUOUS
10
33.6815
20
-193.167
11
33.682
21
-193.162
0
LINE
8
BLACK
6
CONTINUOUS
10
33.682
20
-193.162
11
33.682
21
-188.25
0
LINE
8
BLACK
6
CONTINUOUS
10
33.682
20
-188.25
11
26.008
21
-188.25
0
LINE
8
BLACK
6
CONTINUOUS
10
26.008
20
-188.25
11
26.008
21
-193.162
0
LINE
8
BLACK
6
CONTINUOUS
10
26.008
20
-193.162
11
26.0085
21
-193.167
0
LINE
8
BLACK
6
CONTINUOUS
10
26.0085
20
-193.167
11
26.0066
21
-193.187
0
LINE
8
BLACK
6
CONTINUOUS
10
26.0066
20
-193.187
11
26.0008
21
-193.205
0
LINE
8
BLACK
6
CONTINUOUS
10
26.0008
20
-193.205
11
25.9915
21
-193.223
0
LINE
8
BLACK
6
CONTINUOUS
10
25.9915
20
-193.223
11
25.9791
21
-193.238
0
LINE
8
BLACK
6
CONTINUOUS
10
25.9791
20
-193.238
11
25.9638
21
-193.251
0
LINE
8
BLACK
6
CONTINUOUS
10
25.9638
20
-193.251
11
25.9465
21
-193.26
0
LINE
8
BLACK
6
CONTINUOUS
10
25.9465
20
-193.26
11
25.9276
21
-193.266
0
LINE
8
BLACK
6
CONTINUOUS
10
25.9276
20
-193.266
11
25.9129
21
-193.267
0
LINE
8
BLACK
6
CONTINUOUS
10
25.9129
20
-193.267
11
25.908
21
-193.267
0
LINE
8
BLACK
6
CONTINUOUS
10
25.908
20
-193.267
11
25.9031
21
-193.267
0
LINE
8
BLACK
6
CONTINUOUS
10
25.9031
20
-193.267
11
15.3719
21
-193.267
0
LINE
8
BLACK
6
CONTINUOUS
10
15.3719
20
-193.267
11
15.367
21
-193.267
0
LINE
8
BLACK
6
CONTINUOUS
10
15.367
20
-193.267
11
15.3474
21
-193.266
0
LINE
8
BLACK
6
CONTINUOUS
10
15.3474
20
-193.266
11
15.3285
21
-193.26
0
LINE
8
BLACK
6
CONTINUOUS
10
15.3285
20
-193.26
11
15.3112
21
-193.251
0
LINE
8
BLACK
6
CONTINUOUS
10
15.3112
20
-193.251
11
15.2959
21
-193.238
0
LINE
8
BLACK
6
CONTINUOUS
10
15.2959
20
-193.238
11
15.2835
21
-193.223
0
LINE
8
BLACK
6
CONTINUOUS
10
15.2835
20
-193.223
11
15.2742
21
-193.205
0
LINE
8
BLACK
6
CONTINUOUS
10
15.2742
20
-193.205
11
15.2684
21
-193.187
0
LINE
8
BLACK
6
CONTINUOUS
10
15.2684
20
-193.187
11
15.2665
21
-193.167
0
LINE
8
BLACK
6
CONTINUOUS
10
15.2665
20
-193.167
11
15.267
21
-193.162
0
LINE
8
BLACK
6
CONTINUOUS
10
15.267
20
-193.162
11
15.267
21
-51.8844
0
LINE
8
BLACK
6
CONTINUOUS
10
15.267
20
-51.8844
11
15.2665
21
-51.8795
0
LINE
8
BLACK
6
CONTINUOUS
10
15.2665
20
-51.8795
11
15.2684
21
-51.8599
0
LINE
8
BLACK
6
CONTINUOUS
10
15.2684
20
-51.8599
11
15.2742
21
-51.841
0
LINE
8
BLACK
6
CONTINUOUS
10
15.2742
20
-51.841
11
15.2835
21
-51.8237
0
LINE
8
BLACK
6
CONTINUOUS
10
15.2835
20
-51.8237
11
15.2959
21
-51.8084
0
LINE
8
BLACK
6
CONTINUOUS
10
15.2959
20
-51.8084
11
15.3112
21
-51.796
0
LINE
8
BLACK
6
CONTINUOUS
10
15.3112
20
-51.796
11
15.3285
21
-51.7867
0
LINE
8
BLACK
6
CONTINUOUS
10
15.3285
20
-51.7867
11
15.3474
21
-51.7809
0
LINE
8
BLACK
6
CONTINUOUS
10
15.3474
20
-51.7809
11
15.3621
21
-51.7795
0
LINE
8
BLACK
6
CONTINUOUS
10
15.3621
20
-51.7795
11
15.367
21
-51.779
0
LINE
8
BLACK
6
CONTINUOUS
10
15.367
20
-51.779
11
15.3719
21
-51.7795
0
LINE
8
BLACK
6
CONTINUOUS
10
15.3719
20
-51.7795
11
21.236
21
-51.7795
0
LINE
8
BLACK
6
CONTINUOUS
10
21.236
20
-51.7795
11
21.236
21
-42.5099
0
LINE
8
BLACK
6
CONTINUOUS
10
21.236
20
-42.5099
11
21.2358
21
-42.5009
0
LINE
8
BLACK
6
CONTINUOUS
10
21.2358
20
-42.5009
11
21.2369
21
-42.4952
0
LINE
8
BLACK
6
CONTINUOUS
10
21.2369
20
-42.4952
11
21.2374
21
-42.4894
0
LINE
8
BLACK
6
CONTINUOUS
10
21.2374
20
-42.4894
11
21.2386
21
-42.4856
0
LINE
8
BLACK
6
CONTINUOUS
10
21.2386
20
-42.4856
11
21.2393
21
-42.4816
0
LINE
8
BLACK
6
CONTINUOUS
10
21.2393
20
-42.4816
11
21.2415
21
-42.4761
0
LINE
8
BLACK
6
CONTINUOUS
10
21.2415
20
-42.4761
11
21.2432
21
-42.4706
0
LINE
8
BLACK
6
CONTINUOUS
10
21.2432
20
-42.4706
11
21.2451
21
-42.467
0
LINE
8
BLACK
6
CONTINUOUS
10
21.2451
20
-42.467
11
21.2466
21
-42.4632
0
LINE
8
BLACK
6
CONTINUOUS
10
21.2466
20
-42.4632
11
21.2497
21
-42.4583
0
LINE
8
BLACK
6
CONTINUOUS
10
21.2497
20
-42.4583
11
21.2525
21
-42.4532
0
LINE
8
BLACK
6
CONTINUOUS
10
21.2525
20
-42.4532
11
21.255
21
-42.4501
0
LINE
8
BLACK
6
CONTINUOUS
10
21.255
20
-42.4501
11
21.2572
21
-42.4467
0
LINE
8
BLACK
6
CONTINUOUS
10
21.2572
20
-42.4467
11
21.2613
21
-42.4425
0
LINE
8
BLACK
6
CONTINUOUS
10
21.2613
20
-42.4425
11
21.2649
21
-42.438
0
LINE
8
BLACK
6
CONTINUOUS
10
21.2649
20
-42.438
11
21.2719
21
-42.4323
0
LINE
8
BLACK
6
CONTINUOUS
10
21.2719
20
-42.4323
11
44.7854
21
-22.4366
0
LINE
8
BLACK
6
CONTINUOUS
10
44.7854
20
-22.4366
11
44.7859
21
-22.4359
0
LINE
8
BLACK
6
CONTINUOUS
10
44.7859
20
-22.4359
11
44.7928
21
-22.4303
0
LINE
8
BLACK
6
CONTINUOUS
10
44.7928
20
-22.4303
11
44.796
21
-22.4276
0
LINE
8
BLACK
6
CONTINUOUS
10
44.796
20
-22.4276
11
44.7967
21
-22.4271
0
LINE
8
BLACK
6
CONTINUOUS
10
44.7967
20
-22.4271
11
44.8012
21
-22.4235
0
LINE
8
BLACK
6
CONTINUOUS
10
44.8012
20
-22.4235
11
44.8048
21
-22.4215
0
LINE
8
BLACK
6
CONTINUOUS
10
44.8048
20
-22.4215
11
44.8081
21
-22.4192
0
LINE
8
BLACK
6
CONTINUOUS
10
44.8081
20
-22.4192
11
44.8134
21
-22.4169
0
LINE
8
BLACK
6
CONTINUOUS
10
44.8134
20
-22.4169
11
44.8185
21
-22.4142
0
LINE
8
BLACK
6
CONTINUOUS
10
44.8185
20
-22.4142
11
44.8224
21
-22.413
0
LINE
8
BLACK
6
CONTINUOUS
10
44.8224
20
-22.413
11
44.8262
21
-22.4114
0
LINE
8
BLACK
6
CONTINUOUS
10
44.8262
20
-22.4114
11
44.8318
21
-22.4101
0
LINE
8
BLACK
6
CONTINUOUS
10
44.8318
20
-22.4101
11
44.8374
21
-22.4084
0
LINE
8
BLACK
6
CONTINUOUS
10
44.8374
20
-22.4084
11
44.8414
21
-22.408
0
LINE
8
BLACK
6
CONTINUOUS
10
44.8414
20
-22.408
11
44.8454
21
-22.4072
0
LINE
8
BLACK
6
CONTINUOUS
10
44.8454
20
-22.4072
11
44.8512
21
-22.4071
0
LINE
8
BLACK
6
CONTINUOUS
10
44.8512
20
-22.4071
11
44.8521
21
-22.407
0
LINE
8
BLACK
6
CONTINUOUS
10
44.8521
20
-22.407
11
44.8562
21
-22.407
0
LINE
8
BLACK
6
CONTINUOUS
10
44.8562
20
-22.407
11
44.8651
21
-22.4068
0
LINE
8
BLACK
6
CONTINUOUS
10
44.8651
20
-22.4068
11
44.866
21
-22.407
0
LINE
8
BLACK
6
CONTINUOUS
10
44.866
20
-22.407
11
52.3563
21
-22.407
0
LINE
8
BLACK
6
CONTINUOUS
10
52.3563
20
-22.407
11
52.3652
21
-22.4069
0
LINE
8
BLACK
6
CONTINUOUS
10
52.3652
20
-22.4069
11
52.3709
21
-22.4079
0
LINE
8
BLACK
6
CONTINUOUS
10
52.3709
20
-22.4079
11
52.3766
21
-22.4084
0
LINE
8
BLACK
6
CONTINUOUS
10
52.3766
20
-22.4084
11
52.3806
21
-22.4096
0
LINE
8
BLACK
6
CONTINUOUS
10
52.3806
20
-22.4096
11
52.3846
21
-22.4104
0
LINE
8
BLACK
6
CONTINUOUS
10
52.3846
20
-22.4104
11
52.39
21
-22.4125
0
LINE
8
BLACK
6
CONTINUOUS
10
52.39
20
-22.4125
11
52.3955
21
-22.4142
0
LINE
8
BLACK
6
CONTINUOUS
10
52.3955
20
-22.4142
11
52.3991
21
-22.4161
0
LINE
8
BLACK
6
CONTINUOUS
10
52.3991
20
-22.4161
11
52.4029
21
-22.4176
0
LINE
8
BLACK
6
CONTINUOUS
10
52.4029
20
-22.4176
11
52.4078
21
-22.4207
0
LINE
8
BLACK
6
CONTINUOUS
10
52.4078
20
-22.4207
11
52.4128
21
-22.4235
0
LINE
8
BLACK
6
CONTINUOUS
10
52.4128
20
-22.4235
11
52.416
21
-22.4261
0
LINE
8
BLACK
6
CONTINUOUS
10
52.416
20
-22.4261
11
52.4195
21
-22.4283
0
LINE
8
BLACK
6
CONTINUOUS
10
52.4195
20
-22.4283
11
52.4236
21
-22.4323
0
LINE
8
BLACK
6
CONTINUOUS
10
52.4236
20
-22.4323
11
52.4281
21
-22.4359
0
LINE
8
BLACK
6
CONTINUOUS
10
52.4281
20
-22.4359
11
52.4338
21
-22.4429
0
LINE
8
BLACK
6
CONTINUOUS
10
52.4338
20
-22.4429
11
56.1933
21
-26.877
0
LINE
8
BLACK
6
CONTINUOUS
10
56.1933
20
-26.877
11
82.0221
21
-26.877
0
LINE
8
BLACK
6
CONTINUOUS
10
82.0221
20
-26.877
11
82.027
21
-26.8765
0
LINE
8
BLACK
6
CONTINUOUS
10
82.027
20
-26.8765
11
82.0319
21
-26.877
0
LINE
8
BLACK
6
CONTINUOUS
10
82.0319
20
-26.877
11
82.0466
21
-26.8784
0
LINE
8
BLACK
6
CONTINUOUS
10
82.0466
20
-26.8784
11
82.0655
21
-26.8842
0
LINE
8
BLACK
6
CONTINUOUS
10
82.0655
20
-26.8842
11
82.0828
21
-26.8935
0
LINE
8
BLACK
6
CONTINUOUS
10
82.0828
20
-26.8935
11
82.0981
21
-26.9059
0
LINE
8
BLACK
6
CONTINUOUS
10
82.0981
20
-26.9059
11
82.1105
21
-26.9212
0
LINE
8
BLACK
6
CONTINUOUS
10
82.1105
20
-26.9212
11
82.1198
21
-26.9385
0
LINE
8
BLACK
6
CONTINUOUS
10
82.1198
20
-26.9385
11
82.1256
21
-26.9574
0
LINE
8
BLACK
6
CONTINUOUS
10
82.1256
20
-26.9574
11
82.1275
21
-26.977
0
LINE
8
BLACK
6
CONTINUOUS
10
82.1275
20
-26.977
11
82.127
21
-26.9819
0
LINE
8
BLACK
6
CONTINUOUS
10
82.127
20
-26.9819
11
82.127
21
-33.107
0
LINE
8
BLACK
6
CONTINUOUS
10
82.127
20
-33.107
11
111.637
21
-33.117
0
LINE
8
BLACK
6
CONTINUOUS
10
111.637
20
-33.117
11
111.637
21
-26.8819
0
LINE
8
BLACK
6
CONTINUOUS
10
111.637
20
-26.8819
11
111.637
21
-26.877
0
LINE
8
BLACK
6
CONTINUOUS
10
111.637
20
-26.877
11
111.638
21
-26.8574
0
LINE
8
BLACK
6
CONTINUOUS
10
111.638
20
-26.8574
11
111.644
21
-26.8385
0
LINE
8
BLACK
6
CONTINUOUS
10
111.644
20
-26.8385
11
111.653
21
-26.8212
0
LINE
8
BLACK
6
CONTINUOUS
10
111.653
20
-26.8212
11
111.666
21
-26.8059
0
LINE
8
BLACK
6
CONTINUOUS
10
111.666
20
-26.8059
11
111.681
21
-26.7935
0
LINE
8
BLACK
6
CONTINUOUS
10
111.681
20
-26.7935
11
111.699
21
-26.7842
0
LINE
8
BLACK
6
CONTINUOUS
10
111.699
20
-26.7842
11
111.717
21
-26.7784
0
LINE
8
BLACK
6
CONTINUOUS
10
111.717
20
-26.7784
11
111.732
21
-26.777
0
LINE
8
BLACK
6
CONTINUOUS
10
111.732
20
-26.777
11
111.737
21
-26.7765
0
LINE
8
BLACK
6
CONTINUOUS
10
111.737
20
-26.7765
11
111.742
21
-26.777
0
LINE
8
BLACK
6
CONTINUOUS
10
111.742
20
-26.777
11
137.441
21
-26.777
0
LINE
8
BLACK
6
CONTINUOUS
10
137.441
20
-26.777
11
141.13
21
-22.4329
0
LINE
8
BLACK
6
CONTINUOUS
10
141.13
20
-22.4329
11
141.136
21
-22.4259
0
LINE
8
BLACK
6
CONTINUOUS
10
141.136
20
-22.4259
11
141.14
21
-22.4223
0
LINE
8
BLACK
6
CONTINUOUS
10
141.14
20
-22.4223
11
141.145
21
-22.4183
0
LINE
8
BLACK
6
CONTINUOUS
10
141.145
20
-22.4183
11
141.148
21
-22.416
0
LINE
8
BLACK
6
CONTINUOUS
10
141.148
20
-22.416
11
141.151
21
-22.4135
0
LINE
8
BLACK
6
CONTINUOUS
10
141.151
20
-22.4135
11
141.156
21
-22.4107
0
LINE
8
BLACK
6
CONTINUOUS
10
141.156
20
-22.4107
11
141.161
21
-22.4076
0
LINE
8
BLACK
6
CONTINUOUS
10
141.161
20
-22.4076
11
141.165
21
-22.4061
0
LINE
8
BLACK
6
CONTINUOUS
10
141.165
20
-22.4061
11
141.169
21
-22.4042
0
LINE
8
BLACK
6
CONTINUOUS
10
141.169
20
-22.4042
11
141.174
21
-22.4025
0
LINE
8
BLACK
6
CONTINUOUS
10
141.174
20
-22.4025
11
141.179
21
-22.4004
0
LINE
8
BLACK
6
CONTINUOUS
10
141.179
20
-22.4004
11
141.183
21
-22.3996
0
LINE
8
BLACK
6
CONTINUOUS
10
141.183
20
-22.3996
11
141.187
21
-22.3984
0
LINE
8
BLACK
6
CONTINUOUS
10
141.187
20
-22.3984
11
141.193
21
-22.3979
0
LINE
8
BLACK
6
CONTINUOUS
10
141.193
20
-22.3979
11
141.199
21
-22.3969
0
LINE
8
BLACK
6
CONTINUOUS
10
141.199
20
-22.3969
11
141.208
21
-22.397
0
LINE
8
BLACK
6
CONTINUOUS
10
141.253
20
-22.597
11
137.564
21
-26.9411
0
LINE
8
BLACK
6
CONTINUOUS
10
137.564
20
-26.9411
11
137.558
21
-26.9481
0
LINE
8
BLACK
6
CONTINUOUS
10
137.558
20
-26.9481
11
137.554
21
-26.9517
0
LINE
8
BLACK
6
CONTINUOUS
10
137.554
20
-26.9517
11
137.549
21
-26.9557
0
LINE
8
BLACK
6
CONTINUOUS
10
137.549
20
-26.9557
11
137.546
21
-26.9579
0
LINE
8
BLACK
6
CONTINUOUS
10
137.546
20
-26.9579
11
137.543
21
-26.9605
0
LINE
8
BLACK
6
CONTINUOUS
10
137.543
20
-26.9605
11
137.538
21
-26.9633
0
LINE
8
BLACK
6
CONTINUOUS
10
137.538
20
-26.9633
11
137.533
21
-26.9664
0
LINE
8
BLACK
6
CONTINUOUS
10
137.533
20
-26.9664
11
137.529
21
-26.9679
0
LINE
8
BLACK
6
CONTINUOUS
10
137.529
20
-26.9679
11
137.525
21
-26.9698
0
LINE
8
BLACK
6
CONTINUOUS
10
137.525
20
-26.9698
11
137.52
21
-26.9715
0
LINE
8
BLACK
6
CONTINUOUS
10
137.52
20
-26.9715
11
137.515
21
-26.9736
0
LINE
8
BLACK
6
CONTINUOUS
10
137.515
20
-26.9736
11
137.511
21
-26.9744
0
LINE
8
BLACK
6
CONTINUOUS
10
137.511
20
-26.9744
11
137.507
21
-26.9756
0
LINE
8
BLACK
6
CONTINUOUS
10
137.507
20
-26.9756
11
137.501
21
-26.9761
0
LINE
8
BLACK
6
CONTINUOUS
10
137.501
20
-26.9761
11
137.495
21
-26.9771
0
LINE
8
BLACK
6
CONTINUOUS
10
137.495
20
-26.9771
11
137.486
21
-26.977
0
LINE
8
BLACK
6
CONTINUOUS
10
137.486
20
-26.977
11
111.837
21
-26.977
0
LINE
8
BLACK
6
CONTINUOUS
10
111.837
20
-26.977
11
111.837
21
-33.2121
0
LINE
8
BLACK
6
CONTINUOUS
10
111.837
20
-33.2121
11
111.837
21
-33.217
0
LINE
8
BLACK
6
CONTINUOUS
10
111.837
20
-33.217
11
111.837
21
-33.2262
0
LINE
8
BLACK
6
CONTINUOUS
10
111.837
20
-33.2262
11
111.836
21
-33.2366
0
LINE
8
BLACK
6
CONTINUOUS
10
111.836
20
-33.2366
11
111.836
21
-33.2366
0
LINE
8
BLACK
6
CONTINUOUS
10
111.836
20
-33.2366
11
111.836
21
-33.2366
0
LINE
8
BLACK
6
CONTINUOUS
10
111.836
20
-33.2366
11
111.833
21
-33.2452
0
LINE
8
BLACK
6
CONTINUOUS
10
111.833
20
-33.2452
11
111.83
21
-33.2555
0
LINE
8
BLACK
6
CONTINUOUS
10
111.83
20
-33.2555
11
111.83
21
-33.2555
0
LINE
8
BLACK
6
CONTINUOUS
10
111.83
20
-33.2555
11
111.83
21
-33.2555
0
LINE
8
BLACK
6
CONTINUOUS
10
111.83
20
-33.2555
11
111.826
21
-33.2628
0
LINE
8
BLACK
6
CONTINUOUS
10
111.826
20
-33.2628
11
111.821
21
-33.2728
0
LINE
8
BLACK
6
CONTINUOUS
10
111.821
20
-33.2728
11
111.821
21
-33.2728
0
LINE
8
BLACK
6
CONTINUOUS
10
111.821
20
-33.2728
11
111.821
21
-33.2729
0
LINE
8
BLACK
6
CONTINUOUS
10
111.821
20
-33.2729
11
111.815
21
-33.2795
0
LINE
8
BLACK
6
CONTINUOUS
10
111.815
20
-33.2795
11
111.808
21
-33.2881
0
LINE
8
BLACK
6
CONTINUOUS
10
111.808
20
-33.2881
11
111.808
21
-33.2881
0
LINE
8
BLACK
6
CONTINUOUS
10
111.808
20
-33.2881
11
111.808
21
-33.2881
0
LINE
8
BLACK
6
CONTINUOUS
10
111.808
20
-33.2881
11
111.801
21
-33.2936
0
LINE
8
BLACK
6
CONTINUOUS
10
111.801
20
-33.2936
11
111.793
21
-33.3005
0
LINE
8
BLACK
6
CONTINUOUS
10
111.793
20
-33.3005
11
111.793
21
-33.3006
0
LINE
8
BLACK
6
CONTINUOUS
10
111.793
20
-33.3006
11
111.793
21
-33.3006
0
LINE
8
BLACK
6
CONTINUOUS
10
111.793
20
-33.3006
11
111.785
21
-33.3049
0
LINE
8
BLACK
6
CONTINUOUS
10
111.785
20
-33.3049
11
111.775
21
-33.3098
0
LINE
8
BLACK
6
CONTINUOUS
10
111.775
20
-33.3098
11
111.775
21
-33.3098
0
LINE
8
BLACK
6
CONTINUOUS
10
111.775
20
-33.3098
11
111.775
21
-33.3098
0
LINE
8
BLACK
6
CONTINUOUS
10
111.775
20
-33.3098
11
111.767
21
-33.3124
0
LINE
8
BLACK
6
CONTINUOUS
10
111.767
20
-33.3124
11
111.757
21
-33.3156
0
LINE
8
BLACK
6
CONTINUOUS
10
111.757
20
-33.3156
11
111.757
21
-33.3156
0
LINE
8
BLACK
6
CONTINUOUS
10
111.757
20
-33.3156
11
111.757
21
-33.3156
0
LINE
8
BLACK
6
CONTINUOUS
10
111.757
20
-33.3156
11
111.749
21
-33.3163
0
LINE
8
BLACK
6
CONTINUOUS
10
111.749
20
-33.3163
11
111.737
21
-33.3175
0
LINE
8
BLACK
6
CONTINUOUS
10
111.737
20
-33.3175
11
111.732
21
-33.317
0
LINE
8
BLACK
6
CONTINUOUS
10
111.732
20
-33.317
11
82.0319
21
-33.307
0
LINE
8
BLACK
6
CONTINUOUS
10
82.0319
20
-33.307
11
82.027
21
-33.3075
0
LINE
8
BLACK
6
CONTINUOUS
10
82.027
20
-33.3075
11
82.0221
21
-33.307
0
LINE
8
BLACK
6
CONTINUOUS
10
82.0221
20
-33.307
11
82.0221
21
-33.307
0
LINE
8
BLACK
6
CONTINUOUS
10
82.0221
20
-33.307
11
82.0185
21
-33.3066
0
LINE
8
BLACK
6
CONTINUOUS
10
82.0185
20
-33.3066
11
82.0074
21
-33.3056
0
LINE
8
BLACK
6
CONTINUOUS
10
82.0074
20
-33.3056
11
82.0074
21
-33.3055
0
LINE
8
BLACK
6
CONTINUOUS
10
82.0074
20
-33.3055
11
82.0074
21
-33.3055
0
LINE
8
BLACK
6
CONTINUOUS
10
82.0074
20
-33.3055
11
81.9988
21
-33.3029
0
LINE
8
BLACK
6
CONTINUOUS
10
81.9988
20
-33.3029
11
81.9885
21
-33.2998
0
LINE
8
BLACK
6
CONTINUOUS
10
81.9885
20
-33.2998
11
81.9885
21
-33.2998
0
LINE
8
BLACK
6
CONTINUOUS
10
81.9885
20
-33.2998
11
81.9885
21
-33.2998
0
LINE
8
BLACK
6
CONTINUOUS
10
81.9885
20
-33.2998
11
81.9804
21
-33.2955
0
LINE
8
BLACK
6
CONTINUOUS
10
81.9804
20
-33.2955
11
81.9712
21
-33.2905
0
LINE
8
BLACK
6
CONTINUOUS
10
81.9712
20
-33.2905
11
81.9712
21
-33.2905
0
LINE
8
BLACK
6
CONTINUOUS
10
81.9712
20
-33.2905
11
81.9711
21
-33.2905
0
LINE
8
BLACK
6
CONTINUOUS
10
81.9711
20
-33.2905
11
81.9645
21
-33.2851
0
LINE
8
BLACK
6
CONTINUOUS
10
81.9645
20
-33.2851
11
81.9559
21
-33.2781
0
LINE
8
BLACK
6
CONTINUOUS
10
81.9559
20
-33.2781
11
81.9559
21
-33.278
0
LINE
8
BLACK
6
CONTINUOUS
10
81.9559
20
-33.278
11
81.9559
21
-33.278
0
LINE
8
BLACK
6
CONTINUOUS
10
81.9559
20
-33.278
11
81.9509
21
-33.272
0
LINE
8
BLACK
6
CONTINUOUS
10
81.9509
20
-33.272
11
81.9435
21
-33.2628
0
LINE
8
BLACK
6
CONTINUOUS
10
81.9435
20
-33.2628
11
81.9434
21
-33.2628
0
LINE
8
BLACK
6
CONTINUOUS
10
81.9434
20
-33.2628
11
81.9434
21
-33.2628
0
LINE
8
BLACK
6
CONTINUOUS
10
81.9434
20
-33.2628
11
81.9395
21
-33.2555
0
LINE
8
BLACK
6
CONTINUOUS
10
81.9395
20
-33.2555
11
81.9342
21
-33.2455
0
LINE
8
BLACK
6
CONTINUOUS
10
81.9342
20
-33.2455
11
81.9342
21
-33.2454
0
LINE
8
BLACK
6
CONTINUOUS
10
81.9342
20
-33.2454
11
81.9342
21
-33.2454
0
LINE
8
BLACK
6
CONTINUOUS
10
81.9342
20
-33.2454
11
81.9315
21
-33.2366
0
LINE
8
BLACK
6
CONTINUOUS
10
81.9315
20
-33.2366
11
81.9284
21
-33.2266
0
LINE
8
BLACK
6
CONTINUOUS
10
81.9284
20
-33.2266
11
81.9284
21
-33.2266
0
LINE
8
BLACK
6
CONTINUOUS
10
81.9284
20
-33.2266
11
81.9284
21
-33.2266
0
LINE
8
BLACK
6
CONTINUOUS
10
81.9284
20
-33.2266
11
81.9277
21
-33.2187
0
LINE
8
BLACK
6
CONTINUOUS
10
81.9277
20
-33.2187
11
81.927
21
-33.2119
0
LINE
8
BLACK
6
CONTINUOUS
10
81.927
20
-33.2119
11
81.927
21
-33.2119
0
LINE
8
BLACK
6
CONTINUOUS
10
81.927
20
-33.2119
11
81.9265
21
-33.207
0
LINE
8
BLACK
6
CONTINUOUS
10
81.9265
20
-33.207
11
81.927
21
-33.2021
0
LINE
8
BLACK
6
CONTINUOUS
10
81.927
20
-33.2021
11
81.927
21
-27.077
0
LINE
8
BLACK
6
CONTINUOUS
10
81.927
20
-27.077
11
56.1477
21
-27.077
0
LINE
8
BLACK
6
CONTINUOUS
10
56.1477
20
-27.077
11
56.1388
21
-27.0771
0
LINE
8
BLACK
6
CONTINUOUS
10
56.1388
20
-27.0771
11
56.1331
21
-27.0761
0
LINE
8
BLACK
6
CONTINUOUS
10
56.1331
20
-27.0761
11
56.1274
21
-27.0756
0
LINE
8
BLACK
6
CONTINUOUS
10
56.1274
20
-27.0756
11
56.1234
21
-27.0744
0
LINE
8
BLACK
6
CONTINUOUS
10
56.1234
20
-27.0744
11
56.1194
21
-27.0736
0
LINE
8
BLACK
6
CONTINUOUS
10
56.1194
20
-27.0736
11
56.114
21
-27.0715
0
LINE
8
BLACK
6
CONTINUOUS
10
56.114
20
-27.0715
11
56.1085
21
-27.0698
0
LINE
8
BLACK
6
CONTINUOUS
10
56.1085
20
-27.0698
11
56.1049
21
-27.0679
0
LINE
8
BLACK
6
CONTINUOUS
10
56.1049
20
-27.0679
11
56.1011
21
-27.0664
0
LINE
8
BLACK
6
CONTINUOUS
10
56.1011
20
-27.0664
11
56.0962
21
-27.0633
0
LINE
8
BLACK
6
CONTINUOUS
10
56.0962
20
-27.0633
11
56.0912
21
-27.0605
0
LINE
8
BLACK
6
CONTINUOUS
10
56.0912
20
-27.0605
11
56.088
21
-27.0579
0
LINE
8
BLACK
6
CONTINUOUS
10
56.088
20
-27.0579
11
56.0845
21
-27.0557
0
LINE
8
BLACK
6
CONTINUOUS
10
56.0845
20
-27.0557
11
56.0804
21
-27.0517
0
LINE
8
BLACK
6
CONTINUOUS
10
56.0804
20
-27.0517
11
56.0759
21
-27.0481
0
LINE
8
BLACK
6
CONTINUOUS
10
56.0759
20
-27.0481
11
56.0702
21
-27.0411
0
LINE
8
BLACK
6
CONTINUOUS
10
56.0702
20
-27.0411
11
52.3107
21
-22.607
0
LINE
8
BLACK
6
CONTINUOUS
10
52.3107
20
-22.607
11
44.8938
21
-22.607
0
LINE
8
BLACK
6
CONTINUOUS
10
44.8938
20
-22.607
11
21.436
21
-42.5553
0
LINE
8
BLACK
6
CONTINUOUS
10
21.436
20
-42.5553
11
21.436
21
-51.8746
0
LINE
8
BLACK
6
CONTINUOUS
10
21.436
20
-51.8746
11
21.4365
21
-51.8795
0
LINE
8
BLACK
6
CONTINUOUS
10
21.4365
20
-51.8795
11
21.4346
21
-51.8991
0
LINE
8
BLACK
6
CONTINUOUS
10
21.4346
20
-51.8991
11
21.4288
21
-51.918
0
LINE
8
BLACK
6
CONTINUOUS
10
21.4288
20
-51.918
11
21.4195
21
-51.9353
0
LINE
8
BLACK
6
CONTINUOUS
10
21.4195
20
-51.9353
11
21.4071
21
-51.9506
0
LINE
8
BLACK
6
CONTINUOUS
10
21.4071
20
-51.9506
11
21.3918
21
-51.963
0
LINE
8
BLACK
6
CONTINUOUS
10
21.3918
20
-51.963
11
21.3745
21
-51.9723
0
LINE
8
BLACK
6
CONTINUOUS
10
21.3745
20
-51.9723
11
21.3556
21
-51.9781
0
LINE
8
BLACK
6
CONTINUOUS
10
21.3556
20
-51.9781
11
21.3409
21
-51.9795
0
LINE
8
BLACK
6
CONTINUOUS
10
21.3409
20
-51.9795
11
21.336
21
-51.98
0
LINE
8
BLACK
6
CONTINUOUS
10
21.336
20
-51.98
11
21.3311
21
-51.9795
0
LINE
8
BLACK
6
CONTINUOUS
10
21.3311
20
-51.9795
11
15.467
21
-51.9795
0
LINE
8
BLACK
6
CONTINUOUS
10
15.467
20
-51.9795
11
15.467
21
-193.067
0
LINE
8
BLACK
6
CONTINUOUS
10
15.467
20
-193.067
11
25.808
21
-193.067
0
LINE
8
BLACK
6
CONTINUOUS
10
25.808
20
-193.067
11
25.808
21
-188.155
0
LINE
8
BLACK
6
CONTINUOUS
10
25.808
20
-188.155
11
25.8075
21
-188.15
0
LINE
8
BLACK
6
CONTINUOUS
10
25.8075
20
-188.15
11
25.8094
21
-188.131
0
LINE
8
BLACK
6
CONTINUOUS
10
25.8094
20
-188.131
11
25.8152
21
-188.112
0
LINE
8
BLACK
6
CONTINUOUS
10
25.8152
20
-188.112
11
25.8245
21
-188.095
0
LINE
8
BLACK
6
CONTINUOUS
10
25.8245
20
-188.095
11
25.8369
21
-188.079
0
LINE
8
BLACK
6
CONTINUOUS
10
25.8369
20
-188.079
11
25.8522
21
-188.067
0
LINE
8
BLACK
6
CONTINUOUS
10
25.8522
20
-188.067
11
25.8695
21
-188.058
0
LINE
8
BLACK
6
CONTINUOUS
10
25.8695
20
-188.058
11
25.8884
21
-188.052
0
LINE
8
BLACK
6
CONTINUOUS
10
25.8884
20
-188.052
11
25.9031
21
-188.05
0
LINE
8
BLACK
6
CONTINUOUS
10
25.9031
20
-188.05
11
25.908
21
-188.05
0
LINE
8
BLACK
6
CONTINUOUS
10
25.908
20
-188.05
11
25.9129
21
-188.05
0
LINE
8
BLACK
6
CONTINUOUS
10
25.9129
20
-188.05
11
33.7771
21
-188.05
0
LINE
8
BLACK
6
CONTINUOUS
10
33.7771
20
-188.05
11
33.782
21
-188.05
0
LINE
8
BLACK
6
CONTINUOUS
10
33.782
20
-188.05
11
33.7869
21
-188.05
0
LINE
8
BLACK
6
CONTINUOUS
10
33.7869
20
-188.05
11
33.8016
21
-188.052
0
LINE
8
BLACK
6
CONTINUOUS
10
33.8016
20
-188.052
11
33.8205
21
-188.058
0
LINE
8
BLACK
6
CONTINUOUS
10
33.8205
20
-188.058
11
33.8378
21
-188.067
0
LINE
8
BLACK
6
CONTINUOUS
10
33.8378
20
-188.067
11
33.8531
21
-188.079
0
LINE
8
BLACK
6
CONTINUOUS
10
33.8531
20
-188.079
11
33.8655
21
-188.095
0
LINE
8
BLACK
6
CONTINUOUS
10
33.8655
20
-188.095
11
33.8748
21
-188.112
0
LINE
8
BLACK
6
CONTINUOUS
10
33.8748
20
-188.112
11
33.8806
21
-188.131
0
LINE
8
BLACK
6
CONTINUOUS
10
33.8806
20
-188.131
11
33.8825
21
-188.15
0
LINE
8
BLACK
6
CONTINUOUS
10
33.8825
20
-188.15
11
33.882
21
-188.155
0
LINE
8
BLACK
6
CONTINUOUS
10
33.882
20
-188.155
11
33.882
21
-193.067
0
LINE
8
BLACK
6
CONTINUOUS
10
33.882
20
-193.067
11
159.666
21
-193.067
0
LINE
8
BLACK
6
CONTINUOUS
10
159.666
20
-193.067
11
159.666
21
-188.155
0
LINE
8
BLACK
6
CONTINUOUS
10
159.666
20
-188.155
11
159.666
21
-188.15
0
LINE
8
BLACK
6
CONTINUOUS
10
159.666
20
-188.15
11
159.667
21
-188.131
0
LINE
8
BLACK
6
CONTINUOUS
10
159.667
20
-188.131
11
159.673
21
-188.112
0
LINE
8
BLACK
6
CONTINUOUS
10
159.673
20
-188.112
11
159.682
21
-188.095
0
LINE
8
BLACK
6
CONTINUOUS
10
159.682
20
-188.095
11
159.695
21
-188.079
0
LINE
8
BLACK
6
CONTINUOUS
10
159.695
20
-188.079
11
159.71
21
-188.067
0
LINE
8
BLACK
6
CONTINUOUS
10
159.71
20
-188.067
11
159.728
21
-188.058
0
LINE
8
BLACK
6
CONTINUOUS
10
159.728
20
-188.058
11
159.746
21
-188.052
0
LINE
8
BLACK
6
CONTINUOUS
10
159.746
20
-188.052
11
159.761
21
-188.05
0
LINE
8
BLACK
6
CONTINUOUS
10
159.761
20
-188.05
11
159.766
21
-188.05
0
LINE
8
BLACK
6
CONTINUOUS
10
159.766
20
-188.05
11
159.771
21
-188.05
0
LINE
8
BLACK
6
CONTINUOUS
10
159.771
20
-188.05
11
167.635
21
-188.05
0
LINE
8
BLACK
6
CONTINUOUS
10
167.635
20
-188.05
11
167.64
21
-188.05
0
LINE
8
BLACK
6
CONTINUOUS
10
167.64
20
-188.05
11
167.645
21
-188.05
0
LINE
8
BLACK
6
CONTINUOUS
10
167.645
20
-188.05
11
167.66
21
-188.052
0
LINE
8
BLACK
6
CONTINUOUS
10
167.66
20
-188.052
11
167.678
21
-188.058
0
LINE
8
BLACK
6
CONTINUOUS
10
167.678
20
-188.058
11
167.696
21
-188.067
0
LINE
8
BLACK
6
CONTINUOUS
10
167.696
20
-188.067
11
167.711
21
-188.079
0
LINE
8
BLACK
6
CONTINUOUS
10
167.711
20
-188.079
11
167.724
21
-188.095
0
LINE
8
BLACK
6
CONTINUOUS
10
167.724
20
-188.095
11
167.733
21
-188.112
0
LINE
8
BLACK
6
CONTINUOUS
10
167.733
20
-188.112
11
167.739
21
-188.131
0
LINE
8
BLACK
6
CONTINUOUS
10
167.739
20
-188.131
11
167.74
21
-188.15
0
LINE
8
BLACK
6
CONTINUOUS
10
167.74
20
-188.15
11
167.74
21
-188.155
0
LINE
8
BLACK
6
CONTINUOUS
10
167.74
20
-188.155
11
167.74
21
-193.067
0
LINE
8
BLACK
6
CONTINUOUS
10
167.74
20
-193.067
11
178.081
21
-193.067
0
LINE
8
BLACK
6
CONTINUOUS
10
178.081
20
-193.067
11
178.081
21
-51.9795
0
LINE
8
BLACK
6
CONTINUOUS
10
178.081
20
-51.9795
11
172.217
21
-51.9795
0
LINE
8
BLACK
6
CONTINUOUS
10
172.217
20
-51.9795
11
172.212
21
-51.98
0
LINE
8
BLACK
6
CONTINUOUS
10
172.212
20
-51.98
11
172.207
21
-51.9795
0
LINE
8
BLACK
6
CONTINUOUS
10
172.207
20
-51.9795
11
172.192
21
-51.9781
0
LINE
8
BLACK
6
CONTINUOUS
10
172.192
20
-51.9781
11
172.174
21
-51.9723
0
LINE
8
BLACK
6
CONTINUOUS
10
172.174
20
-51.9723
11
172.156
21
-51.963
0
LINE
8
BLACK
6
CONTINUOUS
10
172.156
20
-51.963
11
172.141
21
-51.9506
0
LINE
8
BLACK
6
CONTINUOUS
10
172.141
20
-51.9506
11
172.128
21
-51.9353
0
LINE
8
BLACK
6
CONTINUOUS
10
172.128
20
-51.9353
11
172.119
21
-51.918
0
LINE
8
BLACK
6
CONTINUOUS
10
172.119
20
-51.918
11
172.113
21
-51.8991
0
LINE
8
BLACK
6
CONTINUOUS
10
172.113
20
-51.8991
11
172.112
21
-51.8795
0
LINE
8
BLACK
6
CONTINUOUS
10
172.112
20
-51.8795
11
172.112
21
-51.8746
0
LINE
8
BLACK
6
CONTINUOUS
10
172.112
20
-51.8746
11
172.112
21
-42.5554
0
LINE
8
BLACK
6
CONTINUOUS
10
172.112
20
-42.5554
11
148.54
21
-22.597
0
LINE
8
BLACK
6
CONTINUOUS
10
148.54
20
-22.597
11
141.253
21
-22.597
0
LINE
8
BLACK
6
CONTINUOUS
10
163.962
20
-49.2395
11
163.977
21
-49.2409
0
LINE
8
BLACK
6
CONTINUOUS
10
163.977
20
-49.2409
11
163.995
21
-49.2467
0
LINE
8
BLACK
6
CONTINUOUS
10
163.995
20
-49.2467
11
164.013
21
-49.256
0
LINE
8
BLACK
6
CONTINUOUS
10
164.013
20
-49.256
11
164.028
21
-49.2684
0
LINE
8
BLACK
6
CONTINUOUS
10
164.028
20
-49.2684
11
164.041
21
-49.2837
0
LINE
8
BLACK
6
CONTINUOUS
10
164.041
20
-49.2837
11
164.05
21
-49.301
0
LINE
8
BLACK
6
CONTINUOUS
10
164.05
20
-49.301
11
164.056
21
-49.3199
0
LINE
8
BLACK
6
CONTINUOUS
10
164.056
20
-49.3199
11
164.057
21
-49.3395
0
LINE
8
BLACK
6
CONTINUOUS
10
164.057
20
-49.3395
11
164.057
21
-49.3444
0
LINE
8
BLACK
6
CONTINUOUS
10
164.057
20
-49.3444
11
164.057
21
-184.653
0
LINE
8
BLACK
6
CONTINUOUS
10
164.057
20
-184.653
11
164.057
21
-184.658
0
LINE
8
BLACK
6
CONTINUOUS
10
164.057
20
-184.658
11
164.056
21
-184.678
0
LINE
8
BLACK
6
CONTINUOUS
10
164.056
20
-184.678
11
164.05
21
-184.696
0
LINE
8
BLACK
6
CONTINUOUS
10
164.05
20
-184.696
11
164.041
21
-184.714
0
LINE
8
BLACK
6
CONTINUOUS
10
164.041
20
-184.714
11
164.028
21
-184.729
0
LINE
8
BLACK
6
CONTINUOUS
10
164.028
20
-184.729
11
164.013
21
-184.742
0
LINE
8
BLACK
6
CONTINUOUS
10
164.013
20
-184.742
11
163.995
21
-184.751
0
LINE
8
BLACK
6
CONTINUOUS
10
163.995
20
-184.751
11
163.977
21
-184.757
0
LINE
8
BLACK
6
CONTINUOUS
10
163.977
20
-184.757
11
163.962
21
-184.758
0
LINE
8
BLACK
6
CONTINUOUS
10
163.962
20
-184.758
11
163.957
21
-184.758
0
LINE
8
BLACK
6
CONTINUOUS
10
163.957
20
-184.758
11
163.952
21
-184.758
0
LINE
8
BLACK
6
CONTINUOUS
10
163.952
20
-184.758
11
29.5959
21
-184.758
0
LINE
8
BLACK
6
CONTINUOUS
10
29.5959
20
-184.758
11
29.591
21
-184.758
0
LINE
8
BLACK
6
CONTINUOUS
10
29.591
20
-184.758
11
29.5714
21
-184.757
0
LINE
8
BLACK
6
CONTINUOUS
10
29.5714
20
-184.757
11
29.5525
21
-184.751
0
LINE
8
BLACK
6
CONTINUOUS
10
29.5525
20
-184.751
11
29.5352
21
-184.742
0
LINE
8
BLACK
6
CONTINUOUS
10
29.5352
20
-184.742
11
29.5199
21
-184.729
0
LINE
8
BLACK
6
CONTINUOUS
10
29.5199
20
-184.729
11
29.5075
21
-184.714
0
LINE
8
BLACK
6
CONTINUOUS
10
29.5075
20
-184.714
11
29.4982
21
-184.696
0
LINE
8
BLACK
6
CONTINUOUS
10
29.4982
20
-184.696
11
29.4924
21
-184.678
0
LINE
8
BLACK
6
CONTINUOUS
10
29.4924
20
-184.678
11
29.4905
21
-184.658
0
LINE
8
BLACK
6
CONTINUOUS
10
29.4905
20
-184.658
11
29.491
21
-184.653
0
LINE
8
BLACK
6
CONTINUOUS
10
29.491
20
-184.653
11
29.491
21
-49.3444
0
LINE
8
BLACK
6
CONTINUOUS
10
29.491
20
-49.3444
11
29.4905
21
-49.3395
0
LINE
8
BLACK
6
CONTINUOUS
10
29.4905
20
-49.3395
11
29.4924
21
-49.3199
0
LINE
8
BLACK
6
CONTINUOUS
10
29.4924
20
-49.3199
11
29.4982
21
-49.301
0
LINE
8
BLACK
6
CONTINUOUS
10
29.4982
20
-49.301
11
29.5075
21
-49.2837
0
LINE
8
BLACK
6
CONTINUOUS
10
29.5075
20
-49.2837
11
29.5199
21
-49.2684
0
LINE
8
BLACK
6
CONTINUOUS
10
29.5199
20
-49.2684
11
29.5352
21
-49.256
0
LINE
8
BLACK
6
CONTINUOUS
10
29.5352
20
-49.256
11
29.5525
21
-49.2467
0
LINE
8
BLACK
6
CONTINUOUS
10
29.5525
20
-49.2467
11
29.5714
21
-49.2409
0
LINE
8
BLACK
6
CONTINUOUS
10
29.5714
20
-49.2409
11
29.5861
21
-49.2395
0
LINE
8
BLACK
6
CONTINUOUS
10
29.5861
20
-49.2395
11
29.591
21
-49.239
0
LINE
8
BLACK
6
CONTINUOUS
10
29.591
20
-49.239
11
29.5959
21
-49.2395
0
LINE
8
BLACK
6
CONTINUOUS
10
29.5959
20
-49.2395
11
163.952
21
-49.2395
0
LINE
8
BLACK
6
CONTINUOUS
10
163.952
20
-49.2395
11
163.957
21
-49.239
0
LINE
8
BLACK
6
CONTINUOUS
10
163.957
20
-49.239
11
163.962
21
-49.2395
0
LINE
8
BLACK
6
CONTINUOUS
10
29.691
20
-49.4395
11
29.691
21
-184.558
0
LINE
8
BLACK
6
CONTINUOUS
10
29.691
20
-184.558
11
163.857
21
-184.558
0
LINE
8
BLACK
6
CONTINUOUS
10
163.857
20
-184.558
11
163.857
21
-49.4395
0
LINE
8
BLACK
6
CONTINUOUS
10
163.857
20
-49.4395
11
29.691
21
-49.4395
  0
ENDSEC
  0
EOF
