G04 #@! TF.GenerationSoftware,KiCad,Pcbnew,(5.1.5-0-10_14)*
G04 #@! TF.CreationDate,2020-06-21T13:54:13+10:00*
G04 #@! TF.ProjectId,Buttons_AMPCD,42757474-6f6e-4735-9f41-4d5043442e6b,rev?*
G04 #@! TF.SameCoordinates,Original*
G04 #@! TF.FileFunction,Copper,L1,Top*
G04 #@! TF.FilePolarity,Positive*
%FSLAX46Y46*%
G04 Gerber Fmt 4.6, Leading zero omitted, Abs format (unit mm)*
G04 Created by KiCad (PCBNEW (5.1.5-0-10_14)) date 2020-06-21 13:54:13*
%MOMM*%
%LPD*%
G04 APERTURE LIST*
%ADD10O,1.740000X2.200000*%
%ADD11C,0.100000*%
%ADD12O,1.600000X1.600000*%
%ADD13R,1.600000X1.600000*%
%ADD14C,1.524000*%
%ADD15C,1.700000*%
%ADD16C,1.600000*%
%ADD17C,0.800000*%
%ADD18C,0.250000*%
G04 APERTURE END LIST*
D10*
X129317000Y-30347000D03*
X126777000Y-30347000D03*
G04 #@! TA.AperFunction,ComponentPad*
D11*
G36*
X124881505Y-29248204D02*
G01*
X124905773Y-29251804D01*
X124929572Y-29257765D01*
X124952671Y-29266030D01*
X124974850Y-29276520D01*
X124995893Y-29289132D01*
X125015599Y-29303747D01*
X125033777Y-29320223D01*
X125050253Y-29338401D01*
X125064868Y-29358107D01*
X125077480Y-29379150D01*
X125087970Y-29401329D01*
X125096235Y-29424428D01*
X125102196Y-29448227D01*
X125105796Y-29472495D01*
X125107000Y-29496999D01*
X125107000Y-31197001D01*
X125105796Y-31221505D01*
X125102196Y-31245773D01*
X125096235Y-31269572D01*
X125087970Y-31292671D01*
X125077480Y-31314850D01*
X125064868Y-31335893D01*
X125050253Y-31355599D01*
X125033777Y-31373777D01*
X125015599Y-31390253D01*
X124995893Y-31404868D01*
X124974850Y-31417480D01*
X124952671Y-31427970D01*
X124929572Y-31436235D01*
X124905773Y-31442196D01*
X124881505Y-31445796D01*
X124857001Y-31447000D01*
X123616999Y-31447000D01*
X123592495Y-31445796D01*
X123568227Y-31442196D01*
X123544428Y-31436235D01*
X123521329Y-31427970D01*
X123499150Y-31417480D01*
X123478107Y-31404868D01*
X123458401Y-31390253D01*
X123440223Y-31373777D01*
X123423747Y-31355599D01*
X123409132Y-31335893D01*
X123396520Y-31314850D01*
X123386030Y-31292671D01*
X123377765Y-31269572D01*
X123371804Y-31245773D01*
X123368204Y-31221505D01*
X123367000Y-31197001D01*
X123367000Y-29496999D01*
X123368204Y-29472495D01*
X123371804Y-29448227D01*
X123377765Y-29424428D01*
X123386030Y-29401329D01*
X123396520Y-29379150D01*
X123409132Y-29358107D01*
X123423747Y-29338401D01*
X123440223Y-29320223D01*
X123458401Y-29303747D01*
X123478107Y-29289132D01*
X123499150Y-29276520D01*
X123521329Y-29266030D01*
X123544428Y-29257765D01*
X123568227Y-29251804D01*
X123592495Y-29248204D01*
X123616999Y-29247000D01*
X124857001Y-29247000D01*
X124881505Y-29248204D01*
G37*
G04 #@! TD.AperFunction*
D10*
X119777000Y-30287000D03*
X117237000Y-30287000D03*
G04 #@! TA.AperFunction,ComponentPad*
D11*
G36*
X115341505Y-29188204D02*
G01*
X115365773Y-29191804D01*
X115389572Y-29197765D01*
X115412671Y-29206030D01*
X115434850Y-29216520D01*
X115455893Y-29229132D01*
X115475599Y-29243747D01*
X115493777Y-29260223D01*
X115510253Y-29278401D01*
X115524868Y-29298107D01*
X115537480Y-29319150D01*
X115547970Y-29341329D01*
X115556235Y-29364428D01*
X115562196Y-29388227D01*
X115565796Y-29412495D01*
X115567000Y-29436999D01*
X115567000Y-31137001D01*
X115565796Y-31161505D01*
X115562196Y-31185773D01*
X115556235Y-31209572D01*
X115547970Y-31232671D01*
X115537480Y-31254850D01*
X115524868Y-31275893D01*
X115510253Y-31295599D01*
X115493777Y-31313777D01*
X115475599Y-31330253D01*
X115455893Y-31344868D01*
X115434850Y-31357480D01*
X115412671Y-31367970D01*
X115389572Y-31376235D01*
X115365773Y-31382196D01*
X115341505Y-31385796D01*
X115317001Y-31387000D01*
X114076999Y-31387000D01*
X114052495Y-31385796D01*
X114028227Y-31382196D01*
X114004428Y-31376235D01*
X113981329Y-31367970D01*
X113959150Y-31357480D01*
X113938107Y-31344868D01*
X113918401Y-31330253D01*
X113900223Y-31313777D01*
X113883747Y-31295599D01*
X113869132Y-31275893D01*
X113856520Y-31254850D01*
X113846030Y-31232671D01*
X113837765Y-31209572D01*
X113831804Y-31185773D01*
X113828204Y-31161505D01*
X113827000Y-31137001D01*
X113827000Y-29436999D01*
X113828204Y-29412495D01*
X113831804Y-29388227D01*
X113837765Y-29364428D01*
X113846030Y-29341329D01*
X113856520Y-29319150D01*
X113869132Y-29298107D01*
X113883747Y-29278401D01*
X113900223Y-29260223D01*
X113918401Y-29243747D01*
X113938107Y-29229132D01*
X113959150Y-29216520D01*
X113981329Y-29206030D01*
X114004428Y-29197765D01*
X114028227Y-29191804D01*
X114052495Y-29188204D01*
X114076999Y-29187000D01*
X115317001Y-29187000D01*
X115341505Y-29188204D01*
G37*
G04 #@! TD.AperFunction*
D10*
X78587000Y-30747000D03*
G04 #@! TA.AperFunction,ComponentPad*
D11*
G36*
X76691505Y-29648204D02*
G01*
X76715773Y-29651804D01*
X76739572Y-29657765D01*
X76762671Y-29666030D01*
X76784850Y-29676520D01*
X76805893Y-29689132D01*
X76825599Y-29703747D01*
X76843777Y-29720223D01*
X76860253Y-29738401D01*
X76874868Y-29758107D01*
X76887480Y-29779150D01*
X76897970Y-29801329D01*
X76906235Y-29824428D01*
X76912196Y-29848227D01*
X76915796Y-29872495D01*
X76917000Y-29896999D01*
X76917000Y-31597001D01*
X76915796Y-31621505D01*
X76912196Y-31645773D01*
X76906235Y-31669572D01*
X76897970Y-31692671D01*
X76887480Y-31714850D01*
X76874868Y-31735893D01*
X76860253Y-31755599D01*
X76843777Y-31773777D01*
X76825599Y-31790253D01*
X76805893Y-31804868D01*
X76784850Y-31817480D01*
X76762671Y-31827970D01*
X76739572Y-31836235D01*
X76715773Y-31842196D01*
X76691505Y-31845796D01*
X76667001Y-31847000D01*
X75426999Y-31847000D01*
X75402495Y-31845796D01*
X75378227Y-31842196D01*
X75354428Y-31836235D01*
X75331329Y-31827970D01*
X75309150Y-31817480D01*
X75288107Y-31804868D01*
X75268401Y-31790253D01*
X75250223Y-31773777D01*
X75233747Y-31755599D01*
X75219132Y-31735893D01*
X75206520Y-31714850D01*
X75196030Y-31692671D01*
X75187765Y-31669572D01*
X75181804Y-31645773D01*
X75178204Y-31621505D01*
X75177000Y-31597001D01*
X75177000Y-29896999D01*
X75178204Y-29872495D01*
X75181804Y-29848227D01*
X75187765Y-29824428D01*
X75196030Y-29801329D01*
X75206520Y-29779150D01*
X75219132Y-29758107D01*
X75233747Y-29738401D01*
X75250223Y-29720223D01*
X75268401Y-29703747D01*
X75288107Y-29689132D01*
X75309150Y-29676520D01*
X75331329Y-29666030D01*
X75354428Y-29657765D01*
X75378227Y-29651804D01*
X75402495Y-29648204D01*
X75426999Y-29647000D01*
X76667001Y-29647000D01*
X76691505Y-29648204D01*
G37*
G04 #@! TD.AperFunction*
D12*
X71447000Y-37807000D03*
D13*
X63827000Y-37807000D03*
D14*
X22617000Y-158007000D03*
X16826000Y-158047000D03*
D15*
X21906000Y-154872000D03*
X21906000Y-161222000D03*
X17461000Y-154872000D03*
X17461000Y-161222000D03*
D12*
X31707000Y-43057000D03*
D16*
X24087000Y-43057000D03*
D12*
X100577000Y-45047000D03*
D16*
X92957000Y-45047000D03*
D12*
X150467000Y-43057000D03*
D16*
X142847000Y-43057000D03*
D12*
X176177000Y-71257000D03*
D16*
X176177000Y-63637000D03*
D12*
X176047000Y-131587000D03*
D16*
X176047000Y-123967000D03*
D12*
X169537000Y-170057000D03*
D16*
X177157000Y-170057000D03*
D12*
X102737000Y-191237000D03*
D16*
X110357000Y-191237000D03*
D12*
X24447000Y-182087000D03*
D16*
X16827000Y-182087000D03*
D12*
X24527000Y-143957000D03*
D16*
X16907000Y-143957000D03*
D12*
X24527000Y-82987000D03*
D16*
X16907000Y-82987000D03*
D10*
X137267000Y-30287000D03*
G04 #@! TA.AperFunction,ComponentPad*
D11*
G36*
X135371505Y-29188204D02*
G01*
X135395773Y-29191804D01*
X135419572Y-29197765D01*
X135442671Y-29206030D01*
X135464850Y-29216520D01*
X135485893Y-29229132D01*
X135505599Y-29243747D01*
X135523777Y-29260223D01*
X135540253Y-29278401D01*
X135554868Y-29298107D01*
X135567480Y-29319150D01*
X135577970Y-29341329D01*
X135586235Y-29364428D01*
X135592196Y-29388227D01*
X135595796Y-29412495D01*
X135597000Y-29436999D01*
X135597000Y-31137001D01*
X135595796Y-31161505D01*
X135592196Y-31185773D01*
X135586235Y-31209572D01*
X135577970Y-31232671D01*
X135567480Y-31254850D01*
X135554868Y-31275893D01*
X135540253Y-31295599D01*
X135523777Y-31313777D01*
X135505599Y-31330253D01*
X135485893Y-31344868D01*
X135464850Y-31357480D01*
X135442671Y-31367970D01*
X135419572Y-31376235D01*
X135395773Y-31382196D01*
X135371505Y-31385796D01*
X135347001Y-31387000D01*
X134106999Y-31387000D01*
X134082495Y-31385796D01*
X134058227Y-31382196D01*
X134034428Y-31376235D01*
X134011329Y-31367970D01*
X133989150Y-31357480D01*
X133968107Y-31344868D01*
X133948401Y-31330253D01*
X133930223Y-31313777D01*
X133913747Y-31295599D01*
X133899132Y-31275893D01*
X133886520Y-31254850D01*
X133876030Y-31232671D01*
X133867765Y-31209572D01*
X133861804Y-31185773D01*
X133858204Y-31161505D01*
X133857000Y-31137001D01*
X133857000Y-29436999D01*
X133858204Y-29412495D01*
X133861804Y-29388227D01*
X133867765Y-29364428D01*
X133876030Y-29341329D01*
X133886520Y-29319150D01*
X133899132Y-29298107D01*
X133913747Y-29278401D01*
X133930223Y-29260223D01*
X133948401Y-29243747D01*
X133968107Y-29229132D01*
X133989150Y-29216520D01*
X134011329Y-29206030D01*
X134034428Y-29197765D01*
X134058227Y-29191804D01*
X134082495Y-29188204D01*
X134106999Y-29187000D01*
X135347001Y-29187000D01*
X135371505Y-29188204D01*
G37*
G04 #@! TD.AperFunction*
D10*
X132527000Y-45657000D03*
X129987000Y-45657000D03*
X127447000Y-45657000D03*
G04 #@! TA.AperFunction,ComponentPad*
D11*
G36*
X125551505Y-44558204D02*
G01*
X125575773Y-44561804D01*
X125599572Y-44567765D01*
X125622671Y-44576030D01*
X125644850Y-44586520D01*
X125665893Y-44599132D01*
X125685599Y-44613747D01*
X125703777Y-44630223D01*
X125720253Y-44648401D01*
X125734868Y-44668107D01*
X125747480Y-44689150D01*
X125757970Y-44711329D01*
X125766235Y-44734428D01*
X125772196Y-44758227D01*
X125775796Y-44782495D01*
X125777000Y-44806999D01*
X125777000Y-46507001D01*
X125775796Y-46531505D01*
X125772196Y-46555773D01*
X125766235Y-46579572D01*
X125757970Y-46602671D01*
X125747480Y-46624850D01*
X125734868Y-46645893D01*
X125720253Y-46665599D01*
X125703777Y-46683777D01*
X125685599Y-46700253D01*
X125665893Y-46714868D01*
X125644850Y-46727480D01*
X125622671Y-46737970D01*
X125599572Y-46746235D01*
X125575773Y-46752196D01*
X125551505Y-46755796D01*
X125527001Y-46757000D01*
X124286999Y-46757000D01*
X124262495Y-46755796D01*
X124238227Y-46752196D01*
X124214428Y-46746235D01*
X124191329Y-46737970D01*
X124169150Y-46727480D01*
X124148107Y-46714868D01*
X124128401Y-46700253D01*
X124110223Y-46683777D01*
X124093747Y-46665599D01*
X124079132Y-46645893D01*
X124066520Y-46624850D01*
X124056030Y-46602671D01*
X124047765Y-46579572D01*
X124041804Y-46555773D01*
X124038204Y-46531505D01*
X124037000Y-46507001D01*
X124037000Y-44806999D01*
X124038204Y-44782495D01*
X124041804Y-44758227D01*
X124047765Y-44734428D01*
X124056030Y-44711329D01*
X124066520Y-44689150D01*
X124079132Y-44668107D01*
X124093747Y-44648401D01*
X124110223Y-44630223D01*
X124128401Y-44613747D01*
X124148107Y-44599132D01*
X124169150Y-44586520D01*
X124191329Y-44576030D01*
X124214428Y-44567765D01*
X124238227Y-44561804D01*
X124262495Y-44558204D01*
X124286999Y-44557000D01*
X125527001Y-44557000D01*
X125551505Y-44558204D01*
G37*
G04 #@! TD.AperFunction*
D10*
X70377000Y-30847000D03*
X67837000Y-30847000D03*
X65297000Y-30847000D03*
X62757000Y-30847000D03*
X60217000Y-30847000D03*
X57677000Y-30847000D03*
X55137000Y-30847000D03*
G04 #@! TA.AperFunction,ComponentPad*
D11*
G36*
X53241505Y-29748204D02*
G01*
X53265773Y-29751804D01*
X53289572Y-29757765D01*
X53312671Y-29766030D01*
X53334850Y-29776520D01*
X53355893Y-29789132D01*
X53375599Y-29803747D01*
X53393777Y-29820223D01*
X53410253Y-29838401D01*
X53424868Y-29858107D01*
X53437480Y-29879150D01*
X53447970Y-29901329D01*
X53456235Y-29924428D01*
X53462196Y-29948227D01*
X53465796Y-29972495D01*
X53467000Y-29996999D01*
X53467000Y-31697001D01*
X53465796Y-31721505D01*
X53462196Y-31745773D01*
X53456235Y-31769572D01*
X53447970Y-31792671D01*
X53437480Y-31814850D01*
X53424868Y-31835893D01*
X53410253Y-31855599D01*
X53393777Y-31873777D01*
X53375599Y-31890253D01*
X53355893Y-31904868D01*
X53334850Y-31917480D01*
X53312671Y-31927970D01*
X53289572Y-31936235D01*
X53265773Y-31942196D01*
X53241505Y-31945796D01*
X53217001Y-31947000D01*
X51976999Y-31947000D01*
X51952495Y-31945796D01*
X51928227Y-31942196D01*
X51904428Y-31936235D01*
X51881329Y-31927970D01*
X51859150Y-31917480D01*
X51838107Y-31904868D01*
X51818401Y-31890253D01*
X51800223Y-31873777D01*
X51783747Y-31855599D01*
X51769132Y-31835893D01*
X51756520Y-31814850D01*
X51746030Y-31792671D01*
X51737765Y-31769572D01*
X51731804Y-31745773D01*
X51728204Y-31721505D01*
X51727000Y-31697001D01*
X51727000Y-29996999D01*
X51728204Y-29972495D01*
X51731804Y-29948227D01*
X51737765Y-29924428D01*
X51746030Y-29901329D01*
X51756520Y-29879150D01*
X51769132Y-29858107D01*
X51783747Y-29838401D01*
X51800223Y-29820223D01*
X51818401Y-29803747D01*
X51838107Y-29789132D01*
X51859150Y-29776520D01*
X51881329Y-29766030D01*
X51904428Y-29757765D01*
X51928227Y-29751804D01*
X51952495Y-29748204D01*
X51976999Y-29747000D01*
X53217001Y-29747000D01*
X53241505Y-29748204D01*
G37*
G04 #@! TD.AperFunction*
D12*
X49777000Y-42437000D03*
D13*
X42157000Y-42437000D03*
D12*
X50147000Y-38547000D03*
D13*
X42527000Y-38547000D03*
D12*
X61917000Y-44957000D03*
D13*
X54297000Y-44957000D03*
D12*
X49777000Y-46197000D03*
D13*
X42157000Y-46197000D03*
D12*
X110697000Y-42017000D03*
D13*
X103077000Y-42017000D03*
D12*
X120377000Y-44817000D03*
D13*
X112757000Y-44817000D03*
D12*
X150467000Y-46197000D03*
D13*
X142847000Y-46197000D03*
D12*
X169307000Y-42777000D03*
D13*
X161687000Y-42777000D03*
D12*
X150337000Y-39927000D03*
D13*
X142717000Y-39927000D03*
D12*
X176177000Y-53257000D03*
D13*
X176177000Y-60877000D03*
D12*
X176297000Y-90917000D03*
D13*
X176297000Y-83297000D03*
D12*
X175677000Y-111117000D03*
D13*
X175677000Y-103497000D03*
D12*
X175797000Y-151907000D03*
D13*
X175797000Y-144287000D03*
D12*
X172037000Y-151777000D03*
D13*
X172037000Y-144157000D03*
D12*
X176867000Y-182167000D03*
D13*
X169247000Y-182167000D03*
D12*
X177067000Y-166987000D03*
D13*
X169447000Y-166987000D03*
D12*
X148747000Y-186377000D03*
D13*
X141127000Y-186377000D03*
D12*
X129597000Y-186397000D03*
D13*
X121977000Y-186397000D03*
D12*
X110127000Y-186197000D03*
D13*
X102507000Y-186197000D03*
D12*
X91057000Y-186237000D03*
D13*
X83437000Y-186237000D03*
D12*
X71637000Y-186417000D03*
D13*
X64017000Y-186417000D03*
D12*
X43437000Y-191217000D03*
D13*
X35817000Y-191217000D03*
D12*
X24527000Y-170367000D03*
D13*
X16907000Y-170367000D03*
D12*
X24527000Y-163987000D03*
D13*
X16907000Y-163987000D03*
D12*
X24447000Y-132037000D03*
D13*
X16827000Y-132037000D03*
D12*
X24607000Y-123387000D03*
D13*
X16987000Y-123387000D03*
D12*
X24687000Y-103057000D03*
D13*
X17067000Y-103057000D03*
D12*
X24447000Y-70947000D03*
D13*
X16827000Y-70947000D03*
D14*
X58127000Y-36687000D03*
X58167000Y-42478000D03*
D15*
X54992000Y-37398000D03*
X61342000Y-37398000D03*
X54992000Y-41843000D03*
X61342000Y-41843000D03*
D14*
X77427000Y-36687000D03*
X77467000Y-42478000D03*
D15*
X74292000Y-37398000D03*
X80642000Y-37398000D03*
X74292000Y-41843000D03*
X80642000Y-41843000D03*
D14*
X96737000Y-36687000D03*
X96777000Y-42478000D03*
D15*
X93602000Y-37398000D03*
X99952000Y-37398000D03*
X93602000Y-41843000D03*
X99952000Y-41843000D03*
D14*
X116037000Y-36687000D03*
X116077000Y-42478000D03*
D15*
X112902000Y-37398000D03*
X119252000Y-37398000D03*
X112902000Y-41843000D03*
X119252000Y-41843000D03*
D14*
X135347000Y-36687000D03*
X135387000Y-42478000D03*
D15*
X132212000Y-37398000D03*
X138562000Y-37398000D03*
X132212000Y-41843000D03*
X138562000Y-41843000D03*
D14*
X176667000Y-76727000D03*
X170876000Y-76767000D03*
D15*
X175956000Y-73592000D03*
X175956000Y-79942000D03*
X171511000Y-73592000D03*
X171511000Y-79942000D03*
D14*
X176667000Y-97047000D03*
X170876000Y-97087000D03*
D15*
X175956000Y-93912000D03*
X175956000Y-100262000D03*
X171511000Y-93912000D03*
X171511000Y-100262000D03*
D14*
X176667000Y-117367000D03*
X170876000Y-117407000D03*
D15*
X175956000Y-114232000D03*
X175956000Y-120582000D03*
X171511000Y-114232000D03*
X171511000Y-120582000D03*
D14*
X176667000Y-137687000D03*
X170876000Y-137727000D03*
D15*
X175956000Y-134552000D03*
X175956000Y-140902000D03*
X171511000Y-134552000D03*
X171511000Y-140902000D03*
D14*
X176667000Y-158007000D03*
X170876000Y-158047000D03*
D15*
X175956000Y-154872000D03*
X175956000Y-161222000D03*
X171511000Y-154872000D03*
X171511000Y-161222000D03*
D14*
X135347000Y-186047000D03*
X135387000Y-191838000D03*
D15*
X132212000Y-186758000D03*
X138562000Y-186758000D03*
X132212000Y-191203000D03*
X138562000Y-191203000D03*
D14*
X116037000Y-186047000D03*
X116077000Y-191838000D03*
D15*
X112902000Y-186758000D03*
X119252000Y-186758000D03*
X112902000Y-191203000D03*
X119252000Y-191203000D03*
D14*
X96737000Y-186047000D03*
X96777000Y-191838000D03*
D15*
X93602000Y-186758000D03*
X99952000Y-186758000D03*
X93602000Y-191203000D03*
X99952000Y-191203000D03*
D14*
X77427000Y-186047000D03*
X77467000Y-191838000D03*
D15*
X74292000Y-186758000D03*
X80642000Y-186758000D03*
X74292000Y-191203000D03*
X80642000Y-191203000D03*
D14*
X58127000Y-186047000D03*
X58167000Y-191838000D03*
D15*
X54992000Y-186758000D03*
X61342000Y-186758000D03*
X54992000Y-191203000D03*
X61342000Y-191203000D03*
D14*
X22617000Y-137687000D03*
X16826000Y-137727000D03*
D15*
X21906000Y-134552000D03*
X21906000Y-140902000D03*
X17461000Y-134552000D03*
X17461000Y-140902000D03*
D14*
X22617000Y-117367000D03*
X16826000Y-117407000D03*
D15*
X21906000Y-114232000D03*
X21906000Y-120582000D03*
X17461000Y-114232000D03*
X17461000Y-120582000D03*
D14*
X22617000Y-97047000D03*
X16826000Y-97087000D03*
D15*
X21906000Y-93912000D03*
X21906000Y-100262000D03*
X17461000Y-93912000D03*
X17461000Y-100262000D03*
D14*
X22617000Y-76727000D03*
X16826000Y-76767000D03*
D15*
X21906000Y-73592000D03*
X21906000Y-79942000D03*
X17461000Y-73592000D03*
X17461000Y-79942000D03*
D14*
X33774164Y-39202442D03*
X38184616Y-35449417D03*
D15*
X36333961Y-41146970D03*
X32252259Y-36282587D03*
X39739028Y-38289779D03*
X35657327Y-33425396D03*
D14*
X42844164Y-31482442D03*
X47254616Y-27729417D03*
D15*
X45403961Y-33426970D03*
X41322259Y-28562587D03*
X48809028Y-30569779D03*
X44727327Y-25705396D03*
D14*
X159821259Y-39141159D03*
X155359384Y-35449417D03*
D15*
X161291741Y-36282587D03*
X157210039Y-41146970D03*
X157886673Y-33425396D03*
X153804972Y-38289779D03*
D14*
X150751259Y-31421159D03*
X146289384Y-27729417D03*
D15*
X152221741Y-28562587D03*
X148140039Y-33426970D03*
X148816673Y-25705396D03*
X144734972Y-30569779D03*
D14*
X176667000Y-187907000D03*
X170876000Y-187947000D03*
D15*
X175956000Y-184772000D03*
X175956000Y-191122000D03*
X171511000Y-184772000D03*
X171511000Y-191122000D03*
D14*
X176667000Y-175997000D03*
X170876000Y-176037000D03*
D15*
X175956000Y-172862000D03*
X175956000Y-179212000D03*
X171511000Y-172862000D03*
X171511000Y-179212000D03*
D14*
X22617000Y-187907000D03*
X16826000Y-187947000D03*
D15*
X21906000Y-184772000D03*
X21906000Y-191122000D03*
X17461000Y-184772000D03*
X17461000Y-191122000D03*
D14*
X22617000Y-175997000D03*
X16826000Y-176037000D03*
D15*
X21906000Y-172862000D03*
X21906000Y-179212000D03*
X17461000Y-172862000D03*
X17461000Y-179212000D03*
D17*
X78791600Y-186533100D03*
X36916300Y-37753500D03*
X107649000Y-190276200D03*
X32988600Y-46720100D03*
X26242300Y-44182400D03*
X54119700Y-48066000D03*
X169373000Y-54037500D03*
D18*
X169537000Y-170057000D02*
X169537000Y-174698000D01*
X169537000Y-174698000D02*
X170876000Y-176037000D01*
X176667000Y-187907000D02*
X173868700Y-185108700D01*
X173868700Y-185108700D02*
X173868700Y-166727300D01*
X173868700Y-166727300D02*
X170322900Y-163181500D01*
X170322900Y-163181500D02*
X170322900Y-158600100D01*
X170322900Y-158600100D02*
X170876000Y-158047000D01*
X47254600Y-27729400D02*
X53984400Y-27729400D01*
X53984400Y-27729400D02*
X56407000Y-30152000D01*
X56407000Y-30152000D02*
X56407000Y-34967000D01*
X56407000Y-34967000D02*
X58127000Y-36687000D01*
X22617000Y-137687000D02*
X23109300Y-138179300D01*
X23109300Y-138179300D02*
X23109300Y-141606700D01*
X23109300Y-141606700D02*
X18825600Y-145890400D01*
X18825600Y-145890400D02*
X18825600Y-156047400D01*
X18825600Y-156047400D02*
X16826000Y-158047000D01*
X77467000Y-191838000D02*
X77467000Y-187857700D01*
X77467000Y-187857700D02*
X78791600Y-186533100D01*
X116077000Y-191838000D02*
X115498100Y-192416900D01*
X115498100Y-192416900D02*
X109912900Y-192416900D01*
X109912900Y-192416900D02*
X108374300Y-190878300D01*
X108374300Y-190878300D02*
X108374300Y-189975700D01*
X108374300Y-189975700D02*
X103470200Y-185071600D01*
X103470200Y-185071600D02*
X97712400Y-185071600D01*
X97712400Y-185071600D02*
X96737000Y-186047000D01*
X116037000Y-186047000D02*
X116812400Y-185271600D01*
X116812400Y-185271600D02*
X123390600Y-185271600D01*
X123390600Y-185271600D02*
X127892700Y-189773700D01*
X127892700Y-189773700D02*
X133322700Y-189773700D01*
X133322700Y-189773700D02*
X135387000Y-191838000D01*
X176667000Y-117367000D02*
X177149800Y-116884200D01*
X177149800Y-116884200D02*
X177149800Y-113763600D01*
X177149800Y-113763600D02*
X176195000Y-112808800D01*
X176195000Y-112808800D02*
X175777300Y-112808800D01*
X175777300Y-112808800D02*
X170315200Y-107346700D01*
X170315200Y-107346700D02*
X170315200Y-97647800D01*
X170315200Y-97647800D02*
X170876000Y-97087000D01*
X135347000Y-36687000D02*
X134871100Y-36211100D01*
X134871100Y-36211100D02*
X130048100Y-36211100D01*
X130048100Y-36211100D02*
X126638700Y-39620500D01*
X126638700Y-39620500D02*
X118934500Y-39620500D01*
X118934500Y-39620500D02*
X116077000Y-42478000D01*
X116037000Y-36687000D02*
X113103500Y-39620500D01*
X113103500Y-39620500D02*
X99634500Y-39620500D01*
X99634500Y-39620500D02*
X96777000Y-42478000D01*
X24527000Y-171492300D02*
X28011100Y-174976400D01*
X28011100Y-174976400D02*
X28011100Y-184839600D01*
X28011100Y-184839600D02*
X30379900Y-187208400D01*
X30379900Y-187208400D02*
X38303100Y-187208400D01*
X38303100Y-187208400D02*
X42311700Y-191217000D01*
X24447000Y-70947000D02*
X24447000Y-69821700D01*
X71447000Y-37807000D02*
X70321700Y-37807000D01*
X70321700Y-37807000D02*
X70321700Y-38229000D01*
X70321700Y-38229000D02*
X59605900Y-48944800D01*
X59605900Y-48944800D02*
X29456300Y-48944800D01*
X29456300Y-48944800D02*
X29265600Y-49135500D01*
X29265600Y-49135500D02*
X29265600Y-65003100D01*
X29265600Y-65003100D02*
X24447000Y-69821700D01*
X24687000Y-103057000D02*
X24687000Y-101931700D01*
X24447000Y-70947000D02*
X24447000Y-72072300D01*
X24447000Y-72072300D02*
X25701100Y-73326400D01*
X25701100Y-73326400D02*
X25701100Y-100917600D01*
X25701100Y-100917600D02*
X24687000Y-101931700D01*
X43437000Y-191217000D02*
X42311700Y-191217000D01*
X24527000Y-170367000D02*
X24527000Y-171492300D01*
X24527000Y-163987000D02*
X24527000Y-170367000D01*
X24447000Y-132037000D02*
X24447000Y-133162300D01*
X24447000Y-133162300D02*
X25652300Y-134367600D01*
X25652300Y-134367600D02*
X25652300Y-161736400D01*
X25652300Y-161736400D02*
X24527000Y-162861700D01*
X24447000Y-131474300D02*
X24447000Y-132037000D01*
X24527000Y-163987000D02*
X24527000Y-162861700D01*
X24447000Y-131474300D02*
X24447000Y-130911700D01*
X24607000Y-124512300D02*
X24447000Y-124672300D01*
X24447000Y-124672300D02*
X24447000Y-130911700D01*
X24607000Y-123387000D02*
X24607000Y-124512300D01*
X17461000Y-73592000D02*
X16827000Y-72958000D01*
X16827000Y-72958000D02*
X16827000Y-70947000D01*
X17461000Y-79942000D02*
X17924600Y-79478400D01*
X17924600Y-79478400D02*
X17924600Y-74055600D01*
X17924600Y-74055600D02*
X17461000Y-73592000D01*
X17461000Y-100262000D02*
X17067000Y-100656000D01*
X17067000Y-100656000D02*
X17067000Y-103057000D01*
X17461000Y-93912000D02*
X17914100Y-94365100D01*
X17914100Y-94365100D02*
X17914100Y-99808900D01*
X17914100Y-99808900D02*
X17461000Y-100262000D01*
X17461000Y-120582000D02*
X16987000Y-121056000D01*
X16987000Y-121056000D02*
X16987000Y-123387000D01*
X17461000Y-114232000D02*
X17914100Y-114685100D01*
X17914100Y-114685100D02*
X17914100Y-120128900D01*
X17914100Y-120128900D02*
X17461000Y-120582000D01*
X17461000Y-134552000D02*
X16827000Y-133918000D01*
X16827000Y-133918000D02*
X16827000Y-132037000D01*
X17461000Y-140902000D02*
X17917800Y-140445200D01*
X17917800Y-140445200D02*
X17917800Y-135008800D01*
X17917800Y-135008800D02*
X17461000Y-134552000D01*
X17461000Y-161222000D02*
X16907000Y-161776000D01*
X16907000Y-161776000D02*
X16907000Y-163987000D01*
X17461000Y-179212000D02*
X17917700Y-178755300D01*
X17917700Y-178755300D02*
X17917700Y-173318700D01*
X17917700Y-173318700D02*
X17461000Y-172862000D01*
X17461000Y-191122000D02*
X17917700Y-190665300D01*
X17917700Y-190665300D02*
X17917700Y-185228700D01*
X17917700Y-185228700D02*
X17461000Y-184772000D01*
X128642300Y-45657000D02*
X128642300Y-46254700D01*
X128642300Y-46254700D02*
X131262900Y-48875300D01*
X131262900Y-48875300D02*
X163958200Y-48875300D01*
X163958200Y-48875300D02*
X164543800Y-49460900D01*
X164543800Y-49460900D02*
X164543800Y-141170300D01*
X164543800Y-141170300D02*
X173207500Y-149834000D01*
X173207500Y-149834000D02*
X173207500Y-165340300D01*
X173207500Y-165340300D02*
X174698500Y-166831300D01*
X174698500Y-166831300D02*
X174698500Y-173286100D01*
X174698500Y-173286100D02*
X175461700Y-174049300D01*
X175461700Y-174049300D02*
X177151200Y-174049300D01*
X177151200Y-174049300D02*
X177754900Y-174653000D01*
X177754900Y-174653000D02*
X177754900Y-180153800D01*
X177754900Y-180153800D02*
X176867000Y-181041700D01*
X177151200Y-174049300D02*
X177151200Y-172178900D01*
X177151200Y-172178900D02*
X175998700Y-171026400D01*
X175998700Y-171026400D02*
X175998700Y-169180600D01*
X175998700Y-169180600D02*
X177067000Y-168112300D01*
X127447000Y-45657000D02*
X128642300Y-45657000D01*
X177067000Y-166987000D02*
X177067000Y-168112300D01*
X176867000Y-182167000D02*
X176867000Y-181041700D01*
X176867000Y-182729600D02*
X176867000Y-182167000D01*
X148747000Y-186377000D02*
X147621700Y-186377000D01*
X147621700Y-186377000D02*
X141618600Y-192380100D01*
X141618600Y-192380100D02*
X138046300Y-192380100D01*
X138046300Y-192380100D02*
X134016200Y-188350000D01*
X134016200Y-188350000D02*
X132112600Y-188350000D01*
X132112600Y-188350000D02*
X130722300Y-186959700D01*
X130722300Y-186959700D02*
X130722300Y-186397000D01*
X148747000Y-186377000D02*
X173360200Y-186377000D01*
X173360200Y-186377000D02*
X175978900Y-188995700D01*
X175978900Y-188995700D02*
X177163700Y-188995700D01*
X177163700Y-188995700D02*
X177756200Y-188403200D01*
X177756200Y-188403200D02*
X177756200Y-184181500D01*
X177756200Y-184181500D02*
X176867000Y-183292300D01*
X129597000Y-186397000D02*
X130722300Y-186397000D01*
X176867000Y-182729600D02*
X176867000Y-183292300D01*
X61342000Y-191203000D02*
X64017000Y-188528000D01*
X64017000Y-188528000D02*
X64017000Y-186417000D01*
X83437000Y-186237000D02*
X83437000Y-187362300D01*
X80642000Y-191203000D02*
X83437000Y-188408000D01*
X83437000Y-188408000D02*
X83437000Y-187362300D01*
X99952000Y-191203000D02*
X102507000Y-188648000D01*
X102507000Y-188648000D02*
X102507000Y-186197000D01*
X119252000Y-190750200D02*
X119252000Y-190247300D01*
X119252000Y-190247300D02*
X121977000Y-187522300D01*
X119252000Y-191203000D02*
X119252000Y-190750200D01*
X119252000Y-190750200D02*
X113354800Y-190750200D01*
X113354800Y-190750200D02*
X112902000Y-191203000D01*
X121977000Y-186397000D02*
X121977000Y-187522300D01*
X138562000Y-191203000D02*
X141127000Y-188638000D01*
X141127000Y-188638000D02*
X141127000Y-186377000D01*
X169447000Y-166987000D02*
X169447000Y-168112300D01*
X169447000Y-168112300D02*
X171511000Y-170176300D01*
X171511000Y-170176300D02*
X171511000Y-172862000D01*
X171511000Y-179212000D02*
X171967700Y-178755300D01*
X171967700Y-178755300D02*
X171967700Y-173318700D01*
X171967700Y-173318700D02*
X171511000Y-172862000D01*
X169247000Y-182167000D02*
X169247000Y-183292300D01*
X171511000Y-184772000D02*
X170031300Y-183292300D01*
X170031300Y-183292300D02*
X169247000Y-183292300D01*
X176177000Y-54382300D02*
X174761100Y-55798200D01*
X174761100Y-55798200D02*
X174761100Y-88255800D01*
X174761100Y-88255800D02*
X176297000Y-89791700D01*
X169307000Y-42777000D02*
X168181700Y-42777000D01*
X150337000Y-39927000D02*
X156911400Y-39927000D01*
X156911400Y-39927000D02*
X158797600Y-38040800D01*
X158797600Y-38040800D02*
X160260200Y-38040800D01*
X160260200Y-38040800D02*
X160930800Y-38711400D01*
X160930800Y-38711400D02*
X160930800Y-39859400D01*
X160930800Y-39859400D02*
X160561600Y-40228600D01*
X160561600Y-40228600D02*
X160561600Y-43777000D01*
X160561600Y-43777000D02*
X160686900Y-43902300D01*
X160686900Y-43902300D02*
X167056400Y-43902300D01*
X167056400Y-43902300D02*
X168181700Y-42777000D01*
X176177000Y-53257000D02*
X176177000Y-54382300D01*
X176297000Y-90917000D02*
X176297000Y-89791700D01*
X171511000Y-161222000D02*
X172014400Y-160718600D01*
X172014400Y-160718600D02*
X172014400Y-155375400D01*
X172014400Y-155375400D02*
X171511000Y-154872000D01*
X171511000Y-140902000D02*
X171970900Y-140442100D01*
X171970900Y-140442100D02*
X171970900Y-135011900D01*
X171970900Y-135011900D02*
X171511000Y-134552000D01*
X171511000Y-120582000D02*
X171964100Y-120128900D01*
X171964100Y-120128900D02*
X171964100Y-114685100D01*
X171964100Y-114685100D02*
X171511000Y-114232000D01*
X171511000Y-100262000D02*
X171987500Y-99785500D01*
X171987500Y-99785500D02*
X171987500Y-94388500D01*
X171987500Y-94388500D02*
X171511000Y-93912000D01*
X171511000Y-79942000D02*
X171969600Y-79483400D01*
X171969600Y-79483400D02*
X171969600Y-74050600D01*
X171969600Y-74050600D02*
X171511000Y-73592000D01*
X142717000Y-39927000D02*
X142717000Y-38801700D01*
X144735000Y-30569800D02*
X144735000Y-36783700D01*
X144735000Y-36783700D02*
X142717000Y-38801700D01*
X144735000Y-30569800D02*
X145013800Y-30569800D01*
X145013800Y-30569800D02*
X148816700Y-26766900D01*
X148816700Y-26766900D02*
X148816700Y-25705400D01*
X161687000Y-41651700D02*
X161687000Y-38688200D01*
X161687000Y-38688200D02*
X157886700Y-34887900D01*
X157886700Y-34887900D02*
X157886700Y-33425400D01*
X161687000Y-42777000D02*
X161687000Y-41651700D01*
X120377000Y-44817000D02*
X121502300Y-44817000D01*
X132527000Y-45657000D02*
X131331700Y-45657000D01*
X131331700Y-45657000D02*
X131331700Y-45059400D01*
X131331700Y-45059400D02*
X130503000Y-44230700D01*
X130503000Y-44230700D02*
X122088600Y-44230700D01*
X122088600Y-44230700D02*
X121502300Y-44817000D01*
X50147000Y-38547000D02*
X50147000Y-39672300D01*
X50147000Y-39672300D02*
X49777000Y-40042300D01*
X49777000Y-40042300D02*
X49777000Y-42437000D01*
X49777000Y-46197000D02*
X49777000Y-42437000D01*
X142847000Y-46197000D02*
X142847000Y-45071700D01*
X138562000Y-41843000D02*
X141790700Y-45071700D01*
X141790700Y-45071700D02*
X142847000Y-45071700D01*
X112757000Y-44817000D02*
X112757000Y-43691700D01*
X112902000Y-41843000D02*
X112902000Y-43546700D01*
X112902000Y-43546700D02*
X112757000Y-43691700D01*
X54992000Y-41843000D02*
X54297000Y-42538000D01*
X54297000Y-42538000D02*
X54297000Y-44957000D01*
X42527000Y-38547000D02*
X42527000Y-37421700D01*
X48809000Y-30569800D02*
X48809000Y-31702300D01*
X48809000Y-31702300D02*
X43089600Y-37421700D01*
X43089600Y-37421700D02*
X42527000Y-37421700D01*
X35657300Y-33425400D02*
X35657300Y-36494500D01*
X35657300Y-36494500D02*
X36916300Y-37753500D01*
X22617000Y-175997000D02*
X27560800Y-180940800D01*
X27560800Y-180940800D02*
X27560800Y-185049600D01*
X27560800Y-185049600D02*
X30325800Y-187814600D01*
X30325800Y-187814600D02*
X35565600Y-187814600D01*
X35565600Y-187814600D02*
X40111100Y-192360100D01*
X40111100Y-192360100D02*
X50615500Y-192360100D01*
X50615500Y-192360100D02*
X52951400Y-190024200D01*
X52951400Y-190024200D02*
X58494300Y-190024200D01*
X58494300Y-190024200D02*
X60857300Y-192387200D01*
X60857300Y-192387200D02*
X71086800Y-192387200D01*
X71086800Y-192387200D02*
X77427000Y-186047000D01*
X77427000Y-186047000D02*
X78362400Y-185111600D01*
X78362400Y-185111600D02*
X86242500Y-185111600D01*
X86242500Y-185111600D02*
X90337800Y-189206900D01*
X90337800Y-189206900D02*
X95691800Y-189206900D01*
X95691800Y-189206900D02*
X98909100Y-192424200D01*
X98909100Y-192424200D02*
X105501000Y-192424200D01*
X105501000Y-192424200D02*
X107649000Y-190276200D01*
X22617000Y-117367000D02*
X23274100Y-118024100D01*
X23274100Y-118024100D02*
X23274100Y-132692200D01*
X23274100Y-132692200D02*
X24641800Y-134059900D01*
X24641800Y-134059900D02*
X24641800Y-142212300D01*
X24641800Y-142212300D02*
X23361100Y-143493000D01*
X23361100Y-143493000D02*
X23361100Y-151023300D01*
X23361100Y-151023300D02*
X23704400Y-151366600D01*
X23704400Y-151366600D02*
X23704400Y-163047400D01*
X23704400Y-163047400D02*
X23081400Y-163670400D01*
X23081400Y-163670400D02*
X23081400Y-175532600D01*
X23081400Y-175532600D02*
X22617000Y-175997000D01*
X176667000Y-97047000D02*
X177173900Y-96540100D01*
X177173900Y-96540100D02*
X177173900Y-93460600D01*
X177173900Y-93460600D02*
X173224400Y-89511100D01*
X173224400Y-89511100D02*
X173224400Y-55514300D01*
X173224400Y-55514300D02*
X162312800Y-44602700D01*
X162312800Y-44602700D02*
X160750400Y-44602700D01*
X160750400Y-44602700D02*
X159821300Y-43673600D01*
X159821300Y-43673600D02*
X159821300Y-39141200D01*
X96737000Y-36687000D02*
X99204000Y-34220000D01*
X99204000Y-34220000D02*
X133109900Y-34220000D01*
X133109900Y-34220000D02*
X136071700Y-31258200D01*
X136071700Y-31258200D02*
X136071700Y-30287000D01*
X137267000Y-30287000D02*
X136071700Y-30287000D01*
X148140000Y-33427000D02*
X148140000Y-39344000D01*
X148140000Y-39344000D02*
X149903500Y-41107500D01*
X149903500Y-41107500D02*
X151949700Y-41107500D01*
X151949700Y-41107500D02*
X155895300Y-45053100D01*
X155895300Y-45053100D02*
X162126300Y-45053100D01*
X162126300Y-45053100D02*
X167191600Y-50118400D01*
X167191600Y-50118400D02*
X167191600Y-120042400D01*
X167191600Y-120042400D02*
X177756300Y-130607100D01*
X177756300Y-130607100D02*
X177756300Y-163699000D01*
X177756300Y-163699000D02*
X175536700Y-165918600D01*
X175536700Y-165918600D02*
X175536700Y-172442700D01*
X175536700Y-172442700D02*
X175956000Y-172862000D01*
X152221700Y-28562600D02*
X151999800Y-28562600D01*
X151999800Y-28562600D02*
X148140000Y-32422400D01*
X148140000Y-32422400D02*
X148140000Y-33427000D01*
X45404000Y-33427000D02*
X40944400Y-37886600D01*
X40944400Y-37886600D02*
X40944400Y-38764300D01*
X40944400Y-38764300D02*
X32988600Y-46720100D01*
X21906000Y-179212000D02*
X21481800Y-178787800D01*
X21481800Y-178787800D02*
X21481800Y-173286200D01*
X21481800Y-173286200D02*
X21906000Y-172862000D01*
X21906000Y-184772000D02*
X19630100Y-182496100D01*
X19630100Y-182496100D02*
X19630100Y-145722800D01*
X19630100Y-145722800D02*
X23725700Y-141627200D01*
X23725700Y-141627200D02*
X23725700Y-134417600D01*
X23725700Y-134417600D02*
X19356900Y-130048800D01*
X19356900Y-130048800D02*
X19356900Y-66787900D01*
X19356900Y-66787900D02*
X25460300Y-60684500D01*
X25460300Y-60684500D02*
X25460300Y-43074600D01*
X25460300Y-43074600D02*
X32252300Y-36282600D01*
X21906000Y-184772000D02*
X21509000Y-185169000D01*
X21509000Y-185169000D02*
X21509000Y-190725000D01*
X21509000Y-190725000D02*
X21906000Y-191122000D01*
X175956000Y-79942000D02*
X175575800Y-79561800D01*
X175575800Y-79561800D02*
X175575800Y-73972200D01*
X175575800Y-73972200D02*
X175956000Y-73592000D01*
X132212000Y-186758000D02*
X132591900Y-187137900D01*
X132591900Y-187137900D02*
X138182100Y-187137900D01*
X138182100Y-187137900D02*
X138562000Y-186758000D01*
X26242300Y-44182400D02*
X25910700Y-44514000D01*
X25910700Y-44514000D02*
X25910700Y-62895900D01*
X25910700Y-62895900D02*
X19807200Y-68999400D01*
X19807200Y-68999400D02*
X19807200Y-129862200D01*
X19807200Y-129862200D02*
X24176100Y-134231100D01*
X24176100Y-134231100D02*
X24176100Y-141813700D01*
X24176100Y-141813700D02*
X22910700Y-143079100D01*
X22910700Y-143079100D02*
X22910700Y-153867300D01*
X22910700Y-153867300D02*
X21906000Y-154872000D01*
X62757000Y-30847000D02*
X61561700Y-30847000D01*
X61561700Y-30847000D02*
X61561700Y-30249400D01*
X61561700Y-30249400D02*
X60727600Y-29415300D01*
X60727600Y-29415300D02*
X59713000Y-29415300D01*
X59713000Y-29415300D02*
X59013800Y-30114500D01*
X59013800Y-30114500D02*
X59013800Y-35985700D01*
X59013800Y-35985700D02*
X59222700Y-36194600D01*
X59222700Y-36194600D02*
X59222700Y-37157500D01*
X59222700Y-37157500D02*
X58605100Y-37775100D01*
X58605100Y-37775100D02*
X55369100Y-37775100D01*
X55369100Y-37775100D02*
X54992000Y-37398000D01*
X21906000Y-154872000D02*
X21512900Y-155265100D01*
X21512900Y-155265100D02*
X21512900Y-160828900D01*
X21512900Y-160828900D02*
X21906000Y-161222000D01*
X62546300Y-38932400D02*
X59737000Y-41741700D01*
X59737000Y-41741700D02*
X59737000Y-42448700D01*
X59737000Y-42448700D02*
X54119700Y-48066000D01*
X62546300Y-38932400D02*
X68498500Y-38932400D01*
X68498500Y-38932400D02*
X70763200Y-36667700D01*
X70763200Y-36667700D02*
X73561700Y-36667700D01*
X73561700Y-36667700D02*
X74292000Y-37398000D01*
X60217000Y-30847000D02*
X62546300Y-33176300D01*
X62546300Y-33176300D02*
X62546300Y-38932400D01*
X175956000Y-93912000D02*
X175570200Y-94297800D01*
X175570200Y-94297800D02*
X175570200Y-99876200D01*
X175570200Y-99876200D02*
X175956000Y-100262000D01*
X21906000Y-140902000D02*
X21486500Y-140482500D01*
X21486500Y-140482500D02*
X21486500Y-134971500D01*
X21486500Y-134971500D02*
X21906000Y-134552000D01*
X119252000Y-186758000D02*
X118868200Y-187141800D01*
X118868200Y-187141800D02*
X113285800Y-187141800D01*
X113285800Y-187141800D02*
X112902000Y-186758000D01*
X74292000Y-37398000D02*
X74668400Y-37774400D01*
X74668400Y-37774400D02*
X80265600Y-37774400D01*
X80265600Y-37774400D02*
X80642000Y-37398000D01*
X175956000Y-114232000D02*
X169373000Y-107649000D01*
X169373000Y-107649000D02*
X169373000Y-54037500D01*
X175956000Y-114232000D02*
X175539600Y-114648400D01*
X175539600Y-114648400D02*
X175539600Y-120165600D01*
X175539600Y-120165600D02*
X175956000Y-120582000D01*
X57677000Y-29421700D02*
X54877800Y-26622500D01*
X54877800Y-26622500D02*
X46823100Y-26622500D01*
X46823100Y-26622500D02*
X46158100Y-27287500D01*
X46158100Y-27287500D02*
X46158100Y-29746500D01*
X46158100Y-29746500D02*
X37746100Y-38158500D01*
X37746100Y-38158500D02*
X37620600Y-38158500D01*
X37620600Y-38158500D02*
X34861600Y-40917500D01*
X34861600Y-40917500D02*
X34861600Y-41552600D01*
X34861600Y-41552600D02*
X26361100Y-50053100D01*
X26361100Y-50053100D02*
X26361100Y-64939200D01*
X26361100Y-64939200D02*
X20257500Y-71042800D01*
X20257500Y-71042800D02*
X20257500Y-112583500D01*
X20257500Y-112583500D02*
X21906000Y-114232000D01*
X93602000Y-186758000D02*
X93987300Y-187143300D01*
X93987300Y-187143300D02*
X99566700Y-187143300D01*
X99566700Y-187143300D02*
X99952000Y-186758000D01*
X57677000Y-29421700D02*
X58140000Y-28958700D01*
X58140000Y-28958700D02*
X78728200Y-28958700D01*
X78728200Y-28958700D02*
X81358400Y-31588900D01*
X81358400Y-31588900D02*
X81358400Y-33059000D01*
X81358400Y-33059000D02*
X85697400Y-37398000D01*
X85697400Y-37398000D02*
X93602000Y-37398000D01*
X57677000Y-30847000D02*
X57677000Y-29421700D01*
X119252000Y-37398000D02*
X121533700Y-35116300D01*
X121533700Y-35116300D02*
X135316100Y-35116300D01*
X135316100Y-35116300D02*
X137258400Y-37058600D01*
X137258400Y-37058600D02*
X137258400Y-37816000D01*
X137258400Y-37816000D02*
X141000300Y-41557900D01*
X141000300Y-41557900D02*
X151686400Y-41557900D01*
X151686400Y-41557900D02*
X156082300Y-45953800D01*
X156082300Y-45953800D02*
X162390100Y-45953800D01*
X162390100Y-45953800D02*
X165603800Y-49167500D01*
X165603800Y-49167500D02*
X165603800Y-124199800D01*
X165603800Y-124199800D02*
X175956000Y-134552000D01*
X21906000Y-100262000D02*
X21906000Y-102766400D01*
X21906000Y-102766400D02*
X29070700Y-109931100D01*
X29070700Y-109931100D02*
X29070700Y-184599000D01*
X29070700Y-184599000D02*
X29881900Y-185410200D01*
X29881900Y-185410200D02*
X55857800Y-185410200D01*
X55857800Y-185410200D02*
X57614300Y-187166700D01*
X57614300Y-187166700D02*
X58550900Y-187166700D01*
X58550900Y-187166700D02*
X60447400Y-185270200D01*
X60447400Y-185270200D02*
X72804200Y-185270200D01*
X72804200Y-185270200D02*
X74292000Y-186758000D01*
X21906000Y-93912000D02*
X21529600Y-94288400D01*
X21529600Y-94288400D02*
X21529600Y-99885600D01*
X21529600Y-99885600D02*
X21906000Y-100262000D01*
X21906000Y-93912000D02*
X21906000Y-83232600D01*
X21906000Y-83232600D02*
X23704400Y-81434200D01*
X23704400Y-81434200D02*
X23704400Y-71966600D01*
X23704400Y-71966600D02*
X23315000Y-71577200D01*
X23315000Y-71577200D02*
X23315000Y-69858200D01*
X23315000Y-69858200D02*
X28628600Y-64544600D01*
X28628600Y-64544600D02*
X28628600Y-49135600D01*
X28628600Y-49135600D02*
X29654300Y-48109900D01*
X29654300Y-48109900D02*
X34374100Y-48109900D01*
X34374100Y-48109900D02*
X41223100Y-41260900D01*
X41223100Y-41260900D02*
X44499000Y-41260900D01*
X44499000Y-41260900D02*
X53941700Y-31818200D01*
X53941700Y-31818200D02*
X53941700Y-30847000D01*
X55137000Y-30847000D02*
X53941700Y-30847000D01*
X175956000Y-134552000D02*
X175529800Y-134978200D01*
X175529800Y-134978200D02*
X175529800Y-140475800D01*
X175529800Y-140475800D02*
X175956000Y-140902000D01*
X21906000Y-79942000D02*
X20707800Y-81140200D01*
X20707800Y-81140200D02*
X20707800Y-104191300D01*
X20707800Y-104191300D02*
X28461500Y-111945000D01*
X28461500Y-111945000D02*
X28461500Y-184626700D01*
X28461500Y-184626700D02*
X30592800Y-186758000D01*
X30592800Y-186758000D02*
X54992000Y-186758000D01*
X132212000Y-37398000D02*
X133722400Y-38908400D01*
X133722400Y-38908400D02*
X133722400Y-42424600D01*
X133722400Y-42424600D02*
X139272500Y-47974700D01*
X139272500Y-47974700D02*
X163697100Y-47974700D01*
X163697100Y-47974700D02*
X165153400Y-49431000D01*
X165153400Y-49431000D02*
X165153400Y-140071700D01*
X165153400Y-140071700D02*
X174116400Y-149034700D01*
X174116400Y-149034700D02*
X174116400Y-153032400D01*
X174116400Y-153032400D02*
X175956000Y-154872000D01*
X52597000Y-30847000D02*
X43771600Y-39672400D01*
X43771600Y-39672400D02*
X41990200Y-39672400D01*
X41990200Y-39672400D02*
X34217100Y-47445500D01*
X34217100Y-47445500D02*
X29677700Y-47445500D01*
X29677700Y-47445500D02*
X28178200Y-48945000D01*
X28178200Y-48945000D02*
X28178200Y-63871600D01*
X28178200Y-63871600D02*
X21906000Y-70143800D01*
X21906000Y-70143800D02*
X21906000Y-73592000D01*
X21906000Y-73592000D02*
X21517800Y-73980200D01*
X21517800Y-73980200D02*
X21517800Y-79553800D01*
X21517800Y-79553800D02*
X21906000Y-79942000D01*
X175956000Y-154872000D02*
X175539700Y-155288300D01*
X175539700Y-155288300D02*
X175539700Y-160805700D01*
X175539700Y-160805700D02*
X175956000Y-161222000D01*
X24087000Y-43057000D02*
X24087000Y-53446200D01*
X24087000Y-53446200D02*
X18906500Y-58626700D01*
X18906500Y-58626700D02*
X18906500Y-80987500D01*
X18906500Y-80987500D02*
X16907000Y-82987000D01*
X16907000Y-82987000D02*
X18636400Y-84716400D01*
X18636400Y-84716400D02*
X18636400Y-142227600D01*
X18636400Y-142227600D02*
X16907000Y-143957000D01*
X176177000Y-63637000D02*
X177756300Y-65216300D01*
X177756300Y-65216300D02*
X177756300Y-122257700D01*
X177756300Y-122257700D02*
X176047000Y-123967000D01*
X16907000Y-143957000D02*
X15702400Y-145161600D01*
X15702400Y-145161600D02*
X15702400Y-180962400D01*
X15702400Y-180962400D02*
X16827000Y-182087000D01*
X92957000Y-45047000D02*
X95039200Y-42964800D01*
X95039200Y-42964800D02*
X95039200Y-36837400D01*
X95039200Y-36837400D02*
X98106900Y-33769700D01*
X98106900Y-33769700D02*
X131244300Y-33769700D01*
X131244300Y-33769700D02*
X134727000Y-30287000D01*
X150467000Y-43057000D02*
X149341700Y-43057000D01*
X149341700Y-43057000D02*
X145076300Y-47322400D01*
X145076300Y-47322400D02*
X140231400Y-47322400D01*
X140231400Y-47322400D02*
X135387000Y-42478000D01*
X63827000Y-37807000D02*
X68987000Y-37807000D01*
X68987000Y-37807000D02*
X76047000Y-30747000D01*
X129317000Y-30347000D02*
X128121700Y-30347000D01*
X119777000Y-30287000D02*
X120972300Y-30287000D01*
X120972300Y-30287000D02*
X122351500Y-28907800D01*
X122351500Y-28907800D02*
X127280100Y-28907800D01*
X127280100Y-28907800D02*
X128121700Y-29749400D01*
X128121700Y-29749400D02*
X128121700Y-30347000D01*
X114697000Y-30287000D02*
X116129800Y-31719800D01*
X116129800Y-31719800D02*
X122864200Y-31719800D01*
X122864200Y-31719800D02*
X124237000Y-30347000D01*
M02*
