G04 #@! TF.GenerationSoftware,KiCad,Pcbnew,(5.1.5-0-10_14)*
G04 #@! TF.CreationDate,2021-03-15T05:54:21+10:00*
G04 #@! TF.ProjectId,OH - Left Console - 31 - Landing Gear,4f48202d-204c-4656-9674-20436f6e736f,rev?*
G04 #@! TF.SameCoordinates,Original*
G04 #@! TF.FileFunction,Soldermask,Top*
G04 #@! TF.FilePolarity,Negative*
%FSLAX46Y46*%
G04 Gerber Fmt 4.6, Leading zero omitted, Abs format (unit mm)*
G04 Created by KiCad (PCBNEW (5.1.5-0-10_14)) date 2021-03-15 05:54:21*
%MOMM*%
%LPD*%
G04 APERTURE LIST*
%ADD10C,0.100000*%
G04 APERTURE END LIST*
D10*
G36*
X183683256Y-77385298D02*
G01*
X183789579Y-77406447D01*
X184090042Y-77530903D01*
X184360451Y-77711585D01*
X184590415Y-77941549D01*
X184771097Y-78211958D01*
X184895553Y-78512421D01*
X184959000Y-78831391D01*
X184959000Y-79156609D01*
X184895553Y-79475579D01*
X184771097Y-79776042D01*
X184590415Y-80046451D01*
X184360451Y-80276415D01*
X184090042Y-80457097D01*
X183789579Y-80581553D01*
X183683256Y-80602702D01*
X183470611Y-80645000D01*
X183145389Y-80645000D01*
X182932744Y-80602702D01*
X182826421Y-80581553D01*
X182525958Y-80457097D01*
X182255549Y-80276415D01*
X182025585Y-80046451D01*
X181844903Y-79776042D01*
X181720447Y-79475579D01*
X181657000Y-79156609D01*
X181657000Y-78831391D01*
X181720447Y-78512421D01*
X181844903Y-78211958D01*
X182025585Y-77941549D01*
X182255549Y-77711585D01*
X182525958Y-77530903D01*
X182826421Y-77406447D01*
X182932744Y-77385298D01*
X183145389Y-77343000D01*
X183470611Y-77343000D01*
X183683256Y-77385298D01*
G37*
G36*
X148683256Y-77385298D02*
G01*
X148789579Y-77406447D01*
X149090042Y-77530903D01*
X149360451Y-77711585D01*
X149590415Y-77941549D01*
X149771097Y-78211958D01*
X149895553Y-78512421D01*
X149959000Y-78831391D01*
X149959000Y-79156609D01*
X149895553Y-79475579D01*
X149771097Y-79776042D01*
X149590415Y-80046451D01*
X149360451Y-80276415D01*
X149090042Y-80457097D01*
X148789579Y-80581553D01*
X148683256Y-80602702D01*
X148470611Y-80645000D01*
X148145389Y-80645000D01*
X147932744Y-80602702D01*
X147826421Y-80581553D01*
X147525958Y-80457097D01*
X147255549Y-80276415D01*
X147025585Y-80046451D01*
X146844903Y-79776042D01*
X146720447Y-79475579D01*
X146657000Y-79156609D01*
X146657000Y-78831391D01*
X146720447Y-78512421D01*
X146844903Y-78211958D01*
X147025585Y-77941549D01*
X147255549Y-77711585D01*
X147525958Y-77530903D01*
X147826421Y-77406447D01*
X147932744Y-77385298D01*
X148145389Y-77343000D01*
X148470611Y-77343000D01*
X148683256Y-77385298D01*
G37*
G36*
X169852547Y-75697326D02*
G01*
X170026156Y-75749990D01*
X170026158Y-75749991D01*
X170186155Y-75835511D01*
X170326397Y-75950603D01*
X170405729Y-76047271D01*
X170441489Y-76090844D01*
X170527010Y-76250843D01*
X170579674Y-76424452D01*
X170593000Y-76559756D01*
X170593000Y-77110243D01*
X170579674Y-77245548D01*
X170527010Y-77419157D01*
X170441489Y-77579156D01*
X170405729Y-77622729D01*
X170326397Y-77719397D01*
X170229729Y-77798729D01*
X170186156Y-77834489D01*
X170026157Y-77920010D01*
X169852548Y-77972674D01*
X169672000Y-77990456D01*
X169491453Y-77972674D01*
X169317844Y-77920010D01*
X169157845Y-77834489D01*
X169114272Y-77798729D01*
X169017604Y-77719397D01*
X168902513Y-77579157D01*
X168902512Y-77579155D01*
X168816990Y-77419157D01*
X168764326Y-77245548D01*
X168751000Y-77110244D01*
X168751000Y-76559757D01*
X168764326Y-76424453D01*
X168816990Y-76250844D01*
X168902511Y-76090845D01*
X168902512Y-76090844D01*
X169017603Y-75950603D01*
X169143388Y-75847375D01*
X169157844Y-75835511D01*
X169317843Y-75749990D01*
X169491452Y-75697326D01*
X169672000Y-75679544D01*
X169852547Y-75697326D01*
G37*
G36*
X176202547Y-75697326D02*
G01*
X176376156Y-75749990D01*
X176376158Y-75749991D01*
X176536155Y-75835511D01*
X176676397Y-75950603D01*
X176755729Y-76047271D01*
X176791489Y-76090844D01*
X176877010Y-76250843D01*
X176929674Y-76424452D01*
X176943000Y-76559756D01*
X176943000Y-77110243D01*
X176929674Y-77245548D01*
X176877010Y-77419157D01*
X176791489Y-77579156D01*
X176755729Y-77622729D01*
X176676397Y-77719397D01*
X176579729Y-77798729D01*
X176536156Y-77834489D01*
X176376157Y-77920010D01*
X176202548Y-77972674D01*
X176022000Y-77990456D01*
X175841453Y-77972674D01*
X175667844Y-77920010D01*
X175507845Y-77834489D01*
X175464272Y-77798729D01*
X175367604Y-77719397D01*
X175252513Y-77579157D01*
X175252512Y-77579155D01*
X175166990Y-77419157D01*
X175114326Y-77245548D01*
X175101000Y-77110244D01*
X175101000Y-76559757D01*
X175114326Y-76424453D01*
X175166990Y-76250844D01*
X175252511Y-76090845D01*
X175252512Y-76090844D01*
X175367603Y-75950603D01*
X175493388Y-75847375D01*
X175507844Y-75835511D01*
X175667843Y-75749990D01*
X175841452Y-75697326D01*
X176022000Y-75679544D01*
X176202547Y-75697326D01*
G37*
G36*
X163502547Y-75697326D02*
G01*
X163676156Y-75749990D01*
X163676158Y-75749991D01*
X163836155Y-75835511D01*
X163976397Y-75950603D01*
X164055729Y-76047271D01*
X164091489Y-76090844D01*
X164177010Y-76250843D01*
X164229674Y-76424452D01*
X164243000Y-76559756D01*
X164243000Y-77110243D01*
X164229674Y-77245548D01*
X164177010Y-77419157D01*
X164091489Y-77579156D01*
X164055729Y-77622729D01*
X163976397Y-77719397D01*
X163879729Y-77798729D01*
X163836156Y-77834489D01*
X163676157Y-77920010D01*
X163502548Y-77972674D01*
X163322000Y-77990456D01*
X163141453Y-77972674D01*
X162967844Y-77920010D01*
X162807845Y-77834489D01*
X162764272Y-77798729D01*
X162667604Y-77719397D01*
X162552513Y-77579157D01*
X162552512Y-77579155D01*
X162466990Y-77419157D01*
X162414326Y-77245548D01*
X162401000Y-77110244D01*
X162401000Y-76559757D01*
X162414326Y-76424453D01*
X162466990Y-76250844D01*
X162552511Y-76090845D01*
X162552512Y-76090844D01*
X162667603Y-75950603D01*
X162793388Y-75847375D01*
X162807844Y-75835511D01*
X162967843Y-75749990D01*
X163141452Y-75697326D01*
X163322000Y-75679544D01*
X163502547Y-75697326D01*
G37*
G36*
X157279547Y-75697326D02*
G01*
X157453156Y-75749990D01*
X157453158Y-75749991D01*
X157613155Y-75835511D01*
X157753397Y-75950603D01*
X157832729Y-76047271D01*
X157868489Y-76090844D01*
X157954010Y-76250843D01*
X158006674Y-76424452D01*
X158020000Y-76559756D01*
X158020000Y-77110243D01*
X158006674Y-77245548D01*
X157954010Y-77419157D01*
X157868489Y-77579156D01*
X157832729Y-77622729D01*
X157753397Y-77719397D01*
X157656729Y-77798729D01*
X157613156Y-77834489D01*
X157453157Y-77920010D01*
X157279548Y-77972674D01*
X157099000Y-77990456D01*
X156918453Y-77972674D01*
X156744844Y-77920010D01*
X156584845Y-77834489D01*
X156541272Y-77798729D01*
X156444604Y-77719397D01*
X156329513Y-77579157D01*
X156329512Y-77579155D01*
X156243990Y-77419157D01*
X156191326Y-77245548D01*
X156178000Y-77110244D01*
X156178000Y-76559757D01*
X156191326Y-76424453D01*
X156243990Y-76250844D01*
X156329511Y-76090845D01*
X156329512Y-76090844D01*
X156444603Y-75950603D01*
X156570388Y-75847375D01*
X156584844Y-75835511D01*
X156744843Y-75749990D01*
X156918452Y-75697326D01*
X157099000Y-75679544D01*
X157279547Y-75697326D01*
G37*
G36*
X155338561Y-75687966D02*
G01*
X155371383Y-75697923D01*
X155401632Y-75714092D01*
X155428148Y-75735852D01*
X155449908Y-75762368D01*
X155466077Y-75792617D01*
X155476034Y-75825439D01*
X155480000Y-75865713D01*
X155480000Y-77804287D01*
X155476034Y-77844561D01*
X155466077Y-77877383D01*
X155449908Y-77907632D01*
X155428148Y-77934148D01*
X155401632Y-77955908D01*
X155371383Y-77972077D01*
X155338561Y-77982034D01*
X155298287Y-77986000D01*
X153819713Y-77986000D01*
X153779439Y-77982034D01*
X153746617Y-77972077D01*
X153716368Y-77955908D01*
X153689852Y-77934148D01*
X153668092Y-77907632D01*
X153651923Y-77877383D01*
X153641966Y-77844561D01*
X153638000Y-77804287D01*
X153638000Y-75865713D01*
X153641966Y-75825439D01*
X153651923Y-75792617D01*
X153668092Y-75762368D01*
X153689852Y-75735852D01*
X153716368Y-75714092D01*
X153746617Y-75697923D01*
X153779439Y-75687966D01*
X153819713Y-75684000D01*
X155298287Y-75684000D01*
X155338561Y-75687966D01*
G37*
G36*
X167911561Y-75687966D02*
G01*
X167944383Y-75697923D01*
X167974632Y-75714092D01*
X168001148Y-75735852D01*
X168022908Y-75762368D01*
X168039077Y-75792617D01*
X168049034Y-75825439D01*
X168053000Y-75865713D01*
X168053000Y-77804287D01*
X168049034Y-77844561D01*
X168039077Y-77877383D01*
X168022908Y-77907632D01*
X168001148Y-77934148D01*
X167974632Y-77955908D01*
X167944383Y-77972077D01*
X167911561Y-77982034D01*
X167871287Y-77986000D01*
X166392713Y-77986000D01*
X166352439Y-77982034D01*
X166319617Y-77972077D01*
X166289368Y-77955908D01*
X166262852Y-77934148D01*
X166241092Y-77907632D01*
X166224923Y-77877383D01*
X166214966Y-77844561D01*
X166211000Y-77804287D01*
X166211000Y-75865713D01*
X166214966Y-75825439D01*
X166224923Y-75792617D01*
X166241092Y-75762368D01*
X166262852Y-75735852D01*
X166289368Y-75714092D01*
X166319617Y-75697923D01*
X166352439Y-75687966D01*
X166392713Y-75684000D01*
X167871287Y-75684000D01*
X167911561Y-75687966D01*
G37*
G36*
X161561561Y-75687966D02*
G01*
X161594383Y-75697923D01*
X161624632Y-75714092D01*
X161651148Y-75735852D01*
X161672908Y-75762368D01*
X161689077Y-75792617D01*
X161699034Y-75825439D01*
X161703000Y-75865713D01*
X161703000Y-77804287D01*
X161699034Y-77844561D01*
X161689077Y-77877383D01*
X161672908Y-77907632D01*
X161651148Y-77934148D01*
X161624632Y-77955908D01*
X161594383Y-77972077D01*
X161561561Y-77982034D01*
X161521287Y-77986000D01*
X160042713Y-77986000D01*
X160002439Y-77982034D01*
X159969617Y-77972077D01*
X159939368Y-77955908D01*
X159912852Y-77934148D01*
X159891092Y-77907632D01*
X159874923Y-77877383D01*
X159864966Y-77844561D01*
X159861000Y-77804287D01*
X159861000Y-75865713D01*
X159864966Y-75825439D01*
X159874923Y-75792617D01*
X159891092Y-75762368D01*
X159912852Y-75735852D01*
X159939368Y-75714092D01*
X159969617Y-75697923D01*
X160002439Y-75687966D01*
X160042713Y-75684000D01*
X161521287Y-75684000D01*
X161561561Y-75687966D01*
G37*
G36*
X174261561Y-75687966D02*
G01*
X174294383Y-75697923D01*
X174324632Y-75714092D01*
X174351148Y-75735852D01*
X174372908Y-75762368D01*
X174389077Y-75792617D01*
X174399034Y-75825439D01*
X174403000Y-75865713D01*
X174403000Y-77804287D01*
X174399034Y-77844561D01*
X174389077Y-77877383D01*
X174372908Y-77907632D01*
X174351148Y-77934148D01*
X174324632Y-77955908D01*
X174294383Y-77972077D01*
X174261561Y-77982034D01*
X174221287Y-77986000D01*
X172742713Y-77986000D01*
X172702439Y-77982034D01*
X172669617Y-77972077D01*
X172639368Y-77955908D01*
X172612852Y-77934148D01*
X172591092Y-77907632D01*
X172574923Y-77877383D01*
X172564966Y-77844561D01*
X172561000Y-77804287D01*
X172561000Y-75865713D01*
X172564966Y-75825439D01*
X172574923Y-75792617D01*
X172591092Y-75762368D01*
X172612852Y-75735852D01*
X172639368Y-75714092D01*
X172669617Y-75697923D01*
X172702439Y-75687966D01*
X172742713Y-75684000D01*
X174221287Y-75684000D01*
X174261561Y-75687966D01*
G37*
G36*
X183763228Y-71571703D02*
G01*
X183918100Y-71635853D01*
X184057481Y-71728985D01*
X184176015Y-71847519D01*
X184269147Y-71986900D01*
X184333297Y-72141772D01*
X184366000Y-72306184D01*
X184366000Y-72473816D01*
X184333297Y-72638228D01*
X184269147Y-72793100D01*
X184176015Y-72932481D01*
X184057481Y-73051015D01*
X183918100Y-73144147D01*
X183763228Y-73208297D01*
X183598816Y-73241000D01*
X183431184Y-73241000D01*
X183266772Y-73208297D01*
X183111900Y-73144147D01*
X182972519Y-73051015D01*
X182853985Y-72932481D01*
X182760853Y-72793100D01*
X182696703Y-72638228D01*
X182664000Y-72473816D01*
X182664000Y-72306184D01*
X182696703Y-72141772D01*
X182760853Y-71986900D01*
X182853985Y-71847519D01*
X182972519Y-71728985D01*
X183111900Y-71635853D01*
X183266772Y-71571703D01*
X183431184Y-71539000D01*
X183598816Y-71539000D01*
X183763228Y-71571703D01*
G37*
G36*
X170233547Y-67569326D02*
G01*
X170407156Y-67621990D01*
X170407158Y-67621991D01*
X170567155Y-67707511D01*
X170707397Y-67822603D01*
X170745345Y-67868844D01*
X170822489Y-67962844D01*
X170908010Y-68122843D01*
X170960674Y-68296452D01*
X170974000Y-68431756D01*
X170974000Y-68982243D01*
X170960674Y-69117548D01*
X170908010Y-69291157D01*
X170822489Y-69451156D01*
X170805452Y-69471915D01*
X170707397Y-69591397D01*
X170631741Y-69653485D01*
X170567156Y-69706489D01*
X170407157Y-69792010D01*
X170233548Y-69844674D01*
X170053000Y-69862456D01*
X169872453Y-69844674D01*
X169698844Y-69792010D01*
X169538845Y-69706489D01*
X169474260Y-69653485D01*
X169398604Y-69591397D01*
X169283513Y-69451157D01*
X169283512Y-69451155D01*
X169197990Y-69291157D01*
X169145326Y-69117548D01*
X169132818Y-68990546D01*
X169132000Y-68982245D01*
X169132000Y-68431756D01*
X169144508Y-68304756D01*
X169145326Y-68296453D01*
X169197990Y-68122844D01*
X169283511Y-67962845D01*
X169283512Y-67962844D01*
X169398603Y-67822603D01*
X169495271Y-67743271D01*
X169538844Y-67707511D01*
X169698843Y-67621990D01*
X169872452Y-67569326D01*
X170053000Y-67551544D01*
X170233547Y-67569326D01*
G37*
G36*
X168292561Y-67559966D02*
G01*
X168325383Y-67569923D01*
X168355632Y-67586092D01*
X168382148Y-67607852D01*
X168403908Y-67634368D01*
X168420077Y-67664617D01*
X168430034Y-67697439D01*
X168434000Y-67737713D01*
X168434000Y-69676287D01*
X168430034Y-69716561D01*
X168420077Y-69749383D01*
X168403908Y-69779632D01*
X168382148Y-69806148D01*
X168355632Y-69827908D01*
X168325383Y-69844077D01*
X168292561Y-69854034D01*
X168252287Y-69858000D01*
X166773713Y-69858000D01*
X166733439Y-69854034D01*
X166700617Y-69844077D01*
X166670368Y-69827908D01*
X166643852Y-69806148D01*
X166622092Y-69779632D01*
X166605923Y-69749383D01*
X166595966Y-69716561D01*
X166592000Y-69676287D01*
X166592000Y-67737713D01*
X166595966Y-67697439D01*
X166605923Y-67664617D01*
X166622092Y-67634368D01*
X166643852Y-67607852D01*
X166670368Y-67586092D01*
X166700617Y-67569923D01*
X166733439Y-67559966D01*
X166773713Y-67556000D01*
X168252287Y-67556000D01*
X168292561Y-67559966D01*
G37*
G36*
X178869547Y-67442326D02*
G01*
X179043156Y-67494990D01*
X179043158Y-67494991D01*
X179203155Y-67580511D01*
X179343397Y-67695603D01*
X179381345Y-67741844D01*
X179458489Y-67835844D01*
X179544010Y-67995843D01*
X179596674Y-68169452D01*
X179596674Y-68169454D01*
X179609183Y-68296455D01*
X179610000Y-68304756D01*
X179610000Y-68855243D01*
X179596674Y-68990548D01*
X179544010Y-69164157D01*
X179458489Y-69324156D01*
X179429581Y-69359380D01*
X179343397Y-69464397D01*
X179267741Y-69526485D01*
X179203156Y-69579489D01*
X179043157Y-69665010D01*
X178869548Y-69717674D01*
X178689000Y-69735456D01*
X178508453Y-69717674D01*
X178334844Y-69665010D01*
X178174845Y-69579489D01*
X178110260Y-69526485D01*
X178034604Y-69464397D01*
X177919513Y-69324157D01*
X177919512Y-69324155D01*
X177833990Y-69164157D01*
X177781326Y-68990548D01*
X177768818Y-68863546D01*
X177768000Y-68855245D01*
X177768000Y-68304756D01*
X177780508Y-68177756D01*
X177781326Y-68169453D01*
X177833990Y-67995844D01*
X177919511Y-67835845D01*
X177919512Y-67835844D01*
X178034603Y-67695603D01*
X178141529Y-67607852D01*
X178174844Y-67580511D01*
X178334843Y-67494990D01*
X178508452Y-67442326D01*
X178689000Y-67424544D01*
X178869547Y-67442326D01*
G37*
G36*
X176928561Y-67432966D02*
G01*
X176961383Y-67442923D01*
X176991632Y-67459092D01*
X177018148Y-67480852D01*
X177039908Y-67507368D01*
X177056077Y-67537617D01*
X177066034Y-67570439D01*
X177070000Y-67610713D01*
X177070000Y-69549287D01*
X177066034Y-69589561D01*
X177056077Y-69622383D01*
X177039908Y-69652632D01*
X177018148Y-69679148D01*
X176991632Y-69700908D01*
X176961383Y-69717077D01*
X176928561Y-69727034D01*
X176888287Y-69731000D01*
X175409713Y-69731000D01*
X175369439Y-69727034D01*
X175336617Y-69717077D01*
X175306368Y-69700908D01*
X175279852Y-69679148D01*
X175258092Y-69652632D01*
X175241923Y-69622383D01*
X175231966Y-69589561D01*
X175228000Y-69549287D01*
X175228000Y-67610713D01*
X175231966Y-67570439D01*
X175241923Y-67537617D01*
X175258092Y-67507368D01*
X175279852Y-67480852D01*
X175306368Y-67459092D01*
X175336617Y-67442923D01*
X175369439Y-67432966D01*
X175409713Y-67429000D01*
X176888287Y-67429000D01*
X176928561Y-67432966D01*
G37*
G36*
X153088547Y-67315326D02*
G01*
X153262156Y-67367990D01*
X153262158Y-67367991D01*
X153422155Y-67453511D01*
X153562397Y-67568603D01*
X153615668Y-67633515D01*
X153677489Y-67708844D01*
X153763010Y-67868843D01*
X153815674Y-68042452D01*
X153815674Y-68042454D01*
X153828183Y-68169455D01*
X153829000Y-68177756D01*
X153829000Y-68728243D01*
X153815674Y-68863548D01*
X153763010Y-69037157D01*
X153677489Y-69197156D01*
X153641729Y-69240729D01*
X153562397Y-69337397D01*
X153486741Y-69399485D01*
X153422156Y-69452489D01*
X153262157Y-69538010D01*
X153088548Y-69590674D01*
X152908000Y-69608456D01*
X152727453Y-69590674D01*
X152553844Y-69538010D01*
X152393845Y-69452489D01*
X152329260Y-69399485D01*
X152253604Y-69337397D01*
X152138513Y-69197157D01*
X152138512Y-69197155D01*
X152052990Y-69037157D01*
X152000326Y-68863548D01*
X151987818Y-68736546D01*
X151987000Y-68728245D01*
X151987000Y-68177756D01*
X151999508Y-68050756D01*
X152000326Y-68042453D01*
X152052990Y-67868844D01*
X152138511Y-67708845D01*
X152147872Y-67697439D01*
X152253603Y-67568603D01*
X152360529Y-67480852D01*
X152393844Y-67453511D01*
X152553843Y-67367990D01*
X152727452Y-67315326D01*
X152908000Y-67297544D01*
X153088547Y-67315326D01*
G37*
G36*
X151147561Y-67305966D02*
G01*
X151180383Y-67315923D01*
X151210632Y-67332092D01*
X151237148Y-67353852D01*
X151258908Y-67380368D01*
X151275077Y-67410617D01*
X151285034Y-67443439D01*
X151289000Y-67483713D01*
X151289000Y-69422287D01*
X151285034Y-69462561D01*
X151275077Y-69495383D01*
X151258908Y-69525632D01*
X151237148Y-69552148D01*
X151210632Y-69573908D01*
X151180383Y-69590077D01*
X151147561Y-69600034D01*
X151107287Y-69604000D01*
X149628713Y-69604000D01*
X149588439Y-69600034D01*
X149555617Y-69590077D01*
X149525368Y-69573908D01*
X149498852Y-69552148D01*
X149477092Y-69525632D01*
X149460923Y-69495383D01*
X149450966Y-69462561D01*
X149447000Y-69422287D01*
X149447000Y-67483713D01*
X149450966Y-67443439D01*
X149460923Y-67410617D01*
X149477092Y-67380368D01*
X149498852Y-67353852D01*
X149525368Y-67332092D01*
X149555617Y-67315923D01*
X149588439Y-67305966D01*
X149628713Y-67302000D01*
X151107287Y-67302000D01*
X151147561Y-67305966D01*
G37*
G36*
X161851547Y-67188326D02*
G01*
X162025156Y-67240990D01*
X162025158Y-67240991D01*
X162185155Y-67326511D01*
X162325397Y-67441603D01*
X162378668Y-67506515D01*
X162440489Y-67581844D01*
X162501294Y-67695603D01*
X162523803Y-67737713D01*
X162526010Y-67741843D01*
X162578674Y-67915452D01*
X162578674Y-67915454D01*
X162591183Y-68042455D01*
X162592000Y-68050756D01*
X162592000Y-68601243D01*
X162578674Y-68736548D01*
X162526010Y-68910157D01*
X162440489Y-69070156D01*
X162404729Y-69113729D01*
X162325397Y-69210397D01*
X162228729Y-69289729D01*
X162185156Y-69325489D01*
X162025157Y-69411010D01*
X161851548Y-69463674D01*
X161671000Y-69481456D01*
X161490453Y-69463674D01*
X161316844Y-69411010D01*
X161156845Y-69325489D01*
X161113272Y-69289729D01*
X161016604Y-69210397D01*
X160901513Y-69070157D01*
X160901512Y-69070155D01*
X160815990Y-68910157D01*
X160763326Y-68736548D01*
X160750000Y-68601244D01*
X160750000Y-68050757D01*
X160763326Y-67915453D01*
X160815990Y-67741844D01*
X160901511Y-67581845D01*
X160911785Y-67569326D01*
X161016603Y-67441603D01*
X161123529Y-67353852D01*
X161156844Y-67326511D01*
X161316843Y-67240990D01*
X161490452Y-67188326D01*
X161671000Y-67170544D01*
X161851547Y-67188326D01*
G37*
G36*
X159910561Y-67178966D02*
G01*
X159943383Y-67188923D01*
X159973632Y-67205092D01*
X160000148Y-67226852D01*
X160021908Y-67253368D01*
X160038077Y-67283617D01*
X160048034Y-67316439D01*
X160052000Y-67356713D01*
X160052000Y-69295287D01*
X160048034Y-69335561D01*
X160038077Y-69368383D01*
X160021908Y-69398632D01*
X160000148Y-69425148D01*
X159973632Y-69446908D01*
X159943383Y-69463077D01*
X159910561Y-69473034D01*
X159870287Y-69477000D01*
X158391713Y-69477000D01*
X158351439Y-69473034D01*
X158318617Y-69463077D01*
X158288368Y-69446908D01*
X158261852Y-69425148D01*
X158240092Y-69398632D01*
X158223923Y-69368383D01*
X158213966Y-69335561D01*
X158210000Y-69295287D01*
X158210000Y-67356713D01*
X158213966Y-67316439D01*
X158223923Y-67283617D01*
X158240092Y-67253368D01*
X158261852Y-67226852D01*
X158288368Y-67205092D01*
X158318617Y-67188923D01*
X158351439Y-67178966D01*
X158391713Y-67175000D01*
X159870287Y-67175000D01*
X159910561Y-67178966D01*
G37*
G36*
X184366000Y-65621000D02*
G01*
X182664000Y-65621000D01*
X182664000Y-63919000D01*
X184366000Y-63919000D01*
X184366000Y-65621000D01*
G37*
G36*
X166459000Y-62700000D02*
G01*
X164757000Y-62700000D01*
X164757000Y-60998000D01*
X166459000Y-60998000D01*
X166459000Y-62700000D01*
G37*
G36*
X173476228Y-61030703D02*
G01*
X173631100Y-61094853D01*
X173770481Y-61187985D01*
X173889015Y-61306519D01*
X173982147Y-61445900D01*
X174046297Y-61600772D01*
X174079000Y-61765184D01*
X174079000Y-61932816D01*
X174046297Y-62097228D01*
X173982147Y-62252100D01*
X173889015Y-62391481D01*
X173770481Y-62510015D01*
X173631100Y-62603147D01*
X173476228Y-62667297D01*
X173311816Y-62700000D01*
X173144184Y-62700000D01*
X172979772Y-62667297D01*
X172824900Y-62603147D01*
X172685519Y-62510015D01*
X172566985Y-62391481D01*
X172473853Y-62252100D01*
X172409703Y-62097228D01*
X172377000Y-61932816D01*
X172377000Y-61765184D01*
X172409703Y-61600772D01*
X172473853Y-61445900D01*
X172566985Y-61306519D01*
X172685519Y-61187985D01*
X172824900Y-61094853D01*
X172979772Y-61030703D01*
X173144184Y-60998000D01*
X173311816Y-60998000D01*
X173476228Y-61030703D01*
G37*
G36*
X160521561Y-60169966D02*
G01*
X160554383Y-60179923D01*
X160584632Y-60196092D01*
X160611148Y-60217852D01*
X160632908Y-60244368D01*
X160649077Y-60274617D01*
X160659034Y-60307439D01*
X160663000Y-60347713D01*
X160663000Y-61826287D01*
X160659034Y-61866561D01*
X160649077Y-61899383D01*
X160632908Y-61929632D01*
X160611148Y-61956148D01*
X160584632Y-61977908D01*
X160554383Y-61994077D01*
X160521561Y-62004034D01*
X160481287Y-62008000D01*
X158542713Y-62008000D01*
X158502439Y-62004034D01*
X158469617Y-61994077D01*
X158439368Y-61977908D01*
X158412852Y-61956148D01*
X158391092Y-61929632D01*
X158374923Y-61899383D01*
X158364966Y-61866561D01*
X158361000Y-61826287D01*
X158361000Y-60347713D01*
X158364966Y-60307439D01*
X158374923Y-60274617D01*
X158391092Y-60244368D01*
X158412852Y-60217852D01*
X158439368Y-60196092D01*
X158469617Y-60179923D01*
X158502439Y-60169966D01*
X158542713Y-60166000D01*
X160481287Y-60166000D01*
X160521561Y-60169966D01*
G37*
G36*
X159832345Y-57630442D02*
G01*
X159922548Y-57639326D01*
X160096157Y-57691990D01*
X160256156Y-57777511D01*
X160274850Y-57792853D01*
X160396397Y-57892603D01*
X160475729Y-57989271D01*
X160511489Y-58032844D01*
X160597010Y-58192843D01*
X160649674Y-58366452D01*
X160667456Y-58547000D01*
X160649674Y-58727548D01*
X160597010Y-58901157D01*
X160511489Y-59061156D01*
X160488244Y-59089480D01*
X160396397Y-59201397D01*
X160299729Y-59280729D01*
X160256156Y-59316489D01*
X160096157Y-59402010D01*
X159922548Y-59454674D01*
X159832345Y-59463558D01*
X159787245Y-59468000D01*
X159236755Y-59468000D01*
X159191655Y-59463558D01*
X159101452Y-59454674D01*
X158927843Y-59402010D01*
X158767844Y-59316489D01*
X158724271Y-59280729D01*
X158627603Y-59201397D01*
X158535756Y-59089480D01*
X158512511Y-59061156D01*
X158426990Y-58901157D01*
X158374326Y-58727548D01*
X158356544Y-58547000D01*
X158374326Y-58366452D01*
X158426990Y-58192843D01*
X158512511Y-58032844D01*
X158548271Y-57989271D01*
X158627603Y-57892603D01*
X158749150Y-57792853D01*
X158767844Y-57777511D01*
X158927843Y-57691990D01*
X159101452Y-57639326D01*
X159191655Y-57630442D01*
X159236755Y-57626000D01*
X159787245Y-57626000D01*
X159832345Y-57630442D01*
G37*
G36*
X173476228Y-57728703D02*
G01*
X173631100Y-57792853D01*
X173770481Y-57885985D01*
X173889015Y-58004519D01*
X173982147Y-58143900D01*
X174046297Y-58298772D01*
X174079000Y-58463184D01*
X174079000Y-58630816D01*
X174046297Y-58795228D01*
X173982147Y-58950100D01*
X173889015Y-59089481D01*
X173770481Y-59208015D01*
X173631100Y-59301147D01*
X173476228Y-59365297D01*
X173311816Y-59398000D01*
X173144184Y-59398000D01*
X172979772Y-59365297D01*
X172824900Y-59301147D01*
X172685519Y-59208015D01*
X172566985Y-59089481D01*
X172473853Y-58950100D01*
X172409703Y-58795228D01*
X172377000Y-58630816D01*
X172377000Y-58463184D01*
X172409703Y-58298772D01*
X172473853Y-58143900D01*
X172566985Y-58004519D01*
X172685519Y-57885985D01*
X172824900Y-57792853D01*
X172979772Y-57728703D01*
X173144184Y-57696000D01*
X173311816Y-57696000D01*
X173476228Y-57728703D01*
G37*
G36*
X166459000Y-59398000D02*
G01*
X164757000Y-59398000D01*
X164757000Y-57696000D01*
X166459000Y-57696000D01*
X166459000Y-59398000D01*
G37*
G36*
X159832345Y-55090442D02*
G01*
X159922548Y-55099326D01*
X160096157Y-55151990D01*
X160256156Y-55237511D01*
X160299729Y-55273271D01*
X160396397Y-55352603D01*
X160475729Y-55449271D01*
X160511489Y-55492844D01*
X160597010Y-55652843D01*
X160649674Y-55826452D01*
X160667456Y-56007000D01*
X160649674Y-56187548D01*
X160597010Y-56361157D01*
X160511489Y-56521156D01*
X160475729Y-56564729D01*
X160396397Y-56661397D01*
X160299729Y-56740729D01*
X160256156Y-56776489D01*
X160096157Y-56862010D01*
X159922548Y-56914674D01*
X159832345Y-56923558D01*
X159787245Y-56928000D01*
X159236755Y-56928000D01*
X159191655Y-56923558D01*
X159101452Y-56914674D01*
X158927843Y-56862010D01*
X158767844Y-56776489D01*
X158724271Y-56740729D01*
X158627603Y-56661397D01*
X158548271Y-56564729D01*
X158512511Y-56521156D01*
X158426990Y-56361157D01*
X158374326Y-56187548D01*
X158356544Y-56007000D01*
X158374326Y-55826452D01*
X158426990Y-55652843D01*
X158512511Y-55492844D01*
X158548271Y-55449271D01*
X158627603Y-55352603D01*
X158724271Y-55273271D01*
X158767844Y-55237511D01*
X158927843Y-55151990D01*
X159101452Y-55099326D01*
X159191655Y-55090442D01*
X159236755Y-55086000D01*
X159787245Y-55086000D01*
X159832345Y-55090442D01*
G37*
G36*
X173603228Y-54807703D02*
G01*
X173758100Y-54871853D01*
X173897481Y-54964985D01*
X174016015Y-55083519D01*
X174109147Y-55222900D01*
X174173297Y-55377772D01*
X174206000Y-55542184D01*
X174206000Y-55709816D01*
X174173297Y-55874228D01*
X174109147Y-56029100D01*
X174016015Y-56168481D01*
X173897481Y-56287015D01*
X173758100Y-56380147D01*
X173603228Y-56444297D01*
X173438816Y-56477000D01*
X173271184Y-56477000D01*
X173106772Y-56444297D01*
X172951900Y-56380147D01*
X172812519Y-56287015D01*
X172693985Y-56168481D01*
X172600853Y-56029100D01*
X172536703Y-55874228D01*
X172504000Y-55709816D01*
X172504000Y-55542184D01*
X172536703Y-55377772D01*
X172600853Y-55222900D01*
X172693985Y-55083519D01*
X172812519Y-54964985D01*
X172951900Y-54871853D01*
X173106772Y-54807703D01*
X173271184Y-54775000D01*
X173438816Y-54775000D01*
X173603228Y-54807703D01*
G37*
G36*
X166586000Y-56477000D02*
G01*
X164884000Y-56477000D01*
X164884000Y-54775000D01*
X166586000Y-54775000D01*
X166586000Y-56477000D01*
G37*
G36*
X148683256Y-52385298D02*
G01*
X148789579Y-52406447D01*
X149090042Y-52530903D01*
X149360451Y-52711585D01*
X149590415Y-52941549D01*
X149771097Y-53211958D01*
X149771098Y-53211960D01*
X149895553Y-53512422D01*
X149956965Y-53821157D01*
X149959000Y-53831391D01*
X149959000Y-54156609D01*
X149895553Y-54475579D01*
X149771097Y-54776042D01*
X149590415Y-55046451D01*
X149360451Y-55276415D01*
X149090042Y-55457097D01*
X148789579Y-55581553D01*
X148683256Y-55602702D01*
X148470611Y-55645000D01*
X148145389Y-55645000D01*
X147932744Y-55602702D01*
X147826421Y-55581553D01*
X147525958Y-55457097D01*
X147255549Y-55276415D01*
X147025585Y-55046451D01*
X146844903Y-54776042D01*
X146720447Y-54475579D01*
X146657000Y-54156609D01*
X146657000Y-53831391D01*
X146659036Y-53821157D01*
X146720447Y-53512422D01*
X146844902Y-53211960D01*
X146844903Y-53211958D01*
X147025585Y-52941549D01*
X147255549Y-52711585D01*
X147525958Y-52530903D01*
X147826421Y-52406447D01*
X147932744Y-52385298D01*
X148145389Y-52343000D01*
X148470611Y-52343000D01*
X148683256Y-52385298D01*
G37*
G36*
X183683256Y-52385298D02*
G01*
X183789579Y-52406447D01*
X184090042Y-52530903D01*
X184360451Y-52711585D01*
X184590415Y-52941549D01*
X184771097Y-53211958D01*
X184771098Y-53211960D01*
X184895553Y-53512422D01*
X184956965Y-53821157D01*
X184959000Y-53831391D01*
X184959000Y-54156609D01*
X184895553Y-54475579D01*
X184771097Y-54776042D01*
X184590415Y-55046451D01*
X184360451Y-55276415D01*
X184090042Y-55457097D01*
X183789579Y-55581553D01*
X183683256Y-55602702D01*
X183470611Y-55645000D01*
X183145389Y-55645000D01*
X182932744Y-55602702D01*
X182826421Y-55581553D01*
X182525958Y-55457097D01*
X182255549Y-55276415D01*
X182025585Y-55046451D01*
X181844903Y-54776042D01*
X181720447Y-54475579D01*
X181657000Y-54156609D01*
X181657000Y-53831391D01*
X181659036Y-53821157D01*
X181720447Y-53512422D01*
X181844902Y-53211960D01*
X181844903Y-53211958D01*
X182025585Y-52941549D01*
X182255549Y-52711585D01*
X182525958Y-52530903D01*
X182826421Y-52406447D01*
X182932744Y-52385298D01*
X183145389Y-52343000D01*
X183470611Y-52343000D01*
X183683256Y-52385298D01*
G37*
G36*
X159832345Y-52550442D02*
G01*
X159922548Y-52559326D01*
X160096157Y-52611990D01*
X160256156Y-52697511D01*
X160299729Y-52733271D01*
X160396397Y-52812603D01*
X160475729Y-52909271D01*
X160511489Y-52952844D01*
X160597010Y-53112843D01*
X160649674Y-53286452D01*
X160667456Y-53467000D01*
X160649674Y-53647548D01*
X160597010Y-53821157D01*
X160511489Y-53981156D01*
X160475729Y-54024729D01*
X160396397Y-54121397D01*
X160299729Y-54200729D01*
X160256156Y-54236489D01*
X160096157Y-54322010D01*
X159922548Y-54374674D01*
X159832345Y-54383558D01*
X159787245Y-54388000D01*
X159236755Y-54388000D01*
X159191655Y-54383558D01*
X159101452Y-54374674D01*
X158927843Y-54322010D01*
X158767844Y-54236489D01*
X158724271Y-54200729D01*
X158627603Y-54121397D01*
X158548271Y-54024729D01*
X158512511Y-53981156D01*
X158426990Y-53821157D01*
X158374326Y-53647548D01*
X158356544Y-53467000D01*
X158374326Y-53286452D01*
X158426990Y-53112843D01*
X158512511Y-52952844D01*
X158548271Y-52909271D01*
X158627603Y-52812603D01*
X158724271Y-52733271D01*
X158767844Y-52697511D01*
X158927843Y-52611990D01*
X159101452Y-52559326D01*
X159191655Y-52550442D01*
X159236755Y-52546000D01*
X159787245Y-52546000D01*
X159832345Y-52550442D01*
G37*
G36*
X166586000Y-53302000D02*
G01*
X164884000Y-53302000D01*
X164884000Y-51600000D01*
X166586000Y-51600000D01*
X166586000Y-53302000D01*
G37*
G36*
X173603228Y-51632703D02*
G01*
X173758100Y-51696853D01*
X173897481Y-51789985D01*
X174016015Y-51908519D01*
X174109147Y-52047900D01*
X174173297Y-52202772D01*
X174206000Y-52367184D01*
X174206000Y-52534816D01*
X174173297Y-52699228D01*
X174109147Y-52854100D01*
X174016015Y-52993481D01*
X173897481Y-53112015D01*
X173758100Y-53205147D01*
X173603228Y-53269297D01*
X173438816Y-53302000D01*
X173271184Y-53302000D01*
X173106772Y-53269297D01*
X172951900Y-53205147D01*
X172812519Y-53112015D01*
X172693985Y-52993481D01*
X172600853Y-52854100D01*
X172536703Y-52699228D01*
X172504000Y-52534816D01*
X172504000Y-52367184D01*
X172536703Y-52202772D01*
X172600853Y-52047900D01*
X172693985Y-51908519D01*
X172812519Y-51789985D01*
X172951900Y-51696853D01*
X173106772Y-51632703D01*
X173271184Y-51600000D01*
X173438816Y-51600000D01*
X173603228Y-51632703D01*
G37*
M02*
