M48
; DRILL file {KiCad 9.0.4} date 2026-02-08T17:50:32+1000
; FORMAT={-:-/ absolute / inch / decimal}
; #@! TF.CreationDate,2026-02-08T17:50:32+10:00
; #@! TF.GenerationSoftware,Kicad,Pcbnew,9.0.4
; #@! TF.FileFunction,Plated,1,2,PTH
FMAT,2
INCH
; #@! TA.AperFunction,Plated,PTH,ComponentDrill
T1C0.0276
; #@! TA.AperFunction,Plated,PTH,ComponentDrill
T2C0.0354
; #@! TA.AperFunction,Plated,PTH,ComponentDrill
T3C0.0394
; #@! TA.AperFunction,Plated,PTH,ComponentDrill
T4C0.0469
; #@! TA.AperFunction,Plated,PTH,ComponentDrill
T5C0.0551
%
G90
G05
T1
X4.0724Y-3.3218
X4.0739Y-2.9674
X4.0755Y-3.1446
X4.2724Y-3.3218
X4.2739Y-2.9674
X4.2755Y-3.1446
T2
X3.859Y-2.9674
X3.859Y-3.1446
X3.859Y-3.3218
X3.959Y-2.9674
X3.959Y-3.1446
X3.959Y-3.3218
T4
X3.8969Y-5.2567
X3.9969Y-5.2567
T5
X2.934Y-4.6172
X2.934Y-4.7826
X2.934Y-5.131
X2.934Y-5.2963
X3.0256Y-5.6244
X3.0256Y-5.8409
X3.0994Y-4.6172
X3.0994Y-4.7826
X3.0994Y-5.131
X3.0994Y-5.2963
X3.1909Y-5.6244
X3.1909Y-5.8409
X3.3563Y-5.6244
X3.3563Y-5.8409
X3.5217Y-5.6244
X3.5217Y-5.8409
X3.687Y-5.6244
X3.687Y-5.8409
X3.8524Y-5.6244
X3.8524Y-5.8409
X4.0177Y-5.6244
X4.0177Y-5.8409
X4.0591Y-4.4902
X4.0591Y-4.6555
X4.1831Y-5.6244
X4.1831Y-5.8409
X4.2244Y-4.4902
X4.2244Y-4.6555
X4.3484Y-5.6244
X4.3484Y-5.8409
X4.5138Y-5.6244
X4.5138Y-5.8409
X4.6791Y-5.6244
X4.6791Y-5.8409
X4.7291Y-4.7785
X4.7291Y-4.9438
X4.7291Y-5.2115
X4.7291Y-5.3769
X4.8445Y-5.6244
X4.8445Y-5.8409
X4.8944Y-4.7785
X4.8944Y-4.9438
X4.8944Y-5.2115
X4.8944Y-5.3769
T3
G00X2.9134Y-2.3147
M15
G01X2.9134Y-2.3934
M16
G05
G00X2.915Y-3.2294
M15
G01X2.915Y-3.3081
M16
G05
G00X2.915Y-3.6958
M15
G01X2.915Y-3.7745
M16
G05
G00X2.915Y-4.1682
M15
G01X2.915Y-4.247
M16
G05
G00X2.9232Y-2.7756
M15
G01X2.9232Y-2.8543
M16
G05
G00X2.9921Y-2.5391
M15
G01X3.0709Y-2.5391
M16
G05
G00X2.9938Y-3.4538
M15
G01X3.0725Y-3.4538
M16
G05
G00X2.9938Y-3.9202
M15
G01X3.0725Y-3.9202
M16
G05
G00X2.9938Y-4.3926
M15
G01X3.0725Y-4.3926
M16
G05
G00X3.002Y-3.0
M15
G01X3.0807Y-3.0
M16
G05
G00X3.1496Y-2.3147
M15
G01X3.1496Y-2.3934
M16
G05
G00X3.1513Y-3.2294
M15
G01X3.1513Y-3.3081
M16
G05
G00X3.1513Y-3.6958
M15
G01X3.1513Y-3.7745
M16
G05
G00X3.1513Y-4.1682
M15
G01X3.1513Y-4.247
M16
G05
G00X3.1594Y-2.7756
M15
G01X3.1594Y-2.8543
M16
G05
G00X4.6817Y-2.4755
M15
G01X4.6817Y-2.3967
M16
G05
G00X4.6916Y-2.9364
M15
G01X4.6916Y-2.8577
M16
G05
G00X4.6949Y-3.4038
M15
G01X4.6949Y-3.3251
M16
G05
G00X4.6949Y-3.8566
M15
G01X4.6949Y-3.7779
M16
G05
G00X4.6949Y-4.3094
M15
G01X4.6949Y-4.2306
M16
G05
G00X4.8392Y-2.2511
M15
G01X4.7605Y-2.2511
M16
G05
G00X4.8491Y-2.712
M15
G01X4.7703Y-2.712
M16
G05
G00X4.8524Y-3.1794
M15
G01X4.7736Y-3.1794
M16
G05
G00X4.8524Y-3.6322
M15
G01X4.7736Y-3.6322
M16
G05
G00X4.8524Y-4.0849
M15
G01X4.7736Y-4.0849
M16
G05
G00X4.918Y-2.4755
M15
G01X4.918Y-2.3967
M16
G05
G00X4.9278Y-2.9364
M15
G01X4.9278Y-2.8577
M16
G05
G00X4.9311Y-3.4038
M15
G01X4.9311Y-3.3251
M16
G05
G00X4.9311Y-3.8566
M15
G01X4.9311Y-3.7779
M16
G05
G00X4.9311Y-4.3094
M15
G01X4.9311Y-4.2306
M16
G05
M30
