0
SECTION
2
HEADER
9
$INSUNITS
70
4
9
$ACADVER
1
AC1014
9
$HANDSEED
5
FFFF
0
ENDSEC
0
SECTION
2
TABLES
0
TABLE
2
VPORT
5
8
100
AcDbSymbolTable
0
ENDTAB
0
TABLE
2
LTYPE
5
5
100
AcDbSymbolTable
0
LTYPE
5
14
100
AcDbSymbolTableRecord
100
AcDbLinetypeTableRecord
2
BYBLOCK
70
0
0
LTYPE
5
15
100
AcDbSymbolTableRecord
100
AcDbLinetypeTableRecord
2
BYLAYER
70
0
0
ENDTAB
0
TABLE
2
LAYER
5
2
100
AcDbSymbolTable
70
2
0
LAYER
5
50
100
AcDbSymbolTableRecord
100
AcDbLayerTableRecord
2
0
70
0
6
CONTINUOUS
0
ENDTAB
0
TABLE
2
STYLE
5
3
100
AcDbSymbolTable
70
1
0
STYLE
5
11
100
AcDbSymbolTableRecord
100
AcDbTextStyleTableRecord
2
STANDARD
70
0
0
ENDTAB
0
TABLE
2
VIEW
5
6
100
AcDbSymbolTable
70
0
0
ENDTAB
0
TABLE
2
UCS
5
7
100
AcDbSymbolTable
70
0
0
ENDTAB
0
TABLE
2
APPID
5
9
100
AcDbSymbolTable
70
2
0
APPID
5
12
100
AcDbSymbolTableRecord
100
AcDbRegAppTableRecord
2
ACAD
70
0
0
ENDTAB
0
TABLE
2
DIMSTYLE
5
A
100
AcDbSymbolTable
70
1
0
ENDTAB
0
TABLE
2
BLOCK_RECORD
5
1
100
AcDbSymbolTable
70
1
0
BLOCK_RECORD
5
1F
100
AcDbSymbolTableRecord
100
AcDbBlockTableRecord
2
*MODEL_SPACE
0
BLOCK_RECORD
5
1B
100
AcDbSymbolTableRecord
100
AcDbBlockTableRecord
2
*PAPER_SPACE
0
ENDTAB
0
ENDSEC
0
SECTION
2
BLOCKS
0
BLOCK
5
20
100
AcDbEntity
100
AcDbBlockBegin
2
*MODEL_SPACE
0
ENDBLK
5
21
100
AcDbEntity
100
AcDbBlockEnd
0
BLOCK
5
1C
100
AcDbEntity
100
AcDbBlockBegin
2
*PAPER_SPACE
0
ENDBLK
5
1D
100
AcDbEntity
100
AcDbBlockEnd
0
ENDSEC
0
SECTION
2
ENTITIES
0
LWPOLYLINE
5
100
100
AcDbEntity
8
0
100
AcDbPolyline
90
8
70
1
43
0.0
10
207.53680117881615
20
-663.18655142307364
10
227.39962087592119
20
-663.08887808845566
10
227.63792986232187
20
-485.4921217292611
10
84.48352261701784
20
-485.514621632483
10
83.111922643819597
20
-485.51435048181361
10
84.096941149339557
20
-642.23254827180767
10
84.245253801086648
20
-662.90817799564763
10
104.5652031909361
20
-663.16619503763786
0
CIRCLE
5
101
100
AcDbEntity
8
0
100
AcDbCircle
10
-101.92313039088032
20
-503.79869961394041
30
9.9121982222683417e-13
40
1.1900000000000008
210
-4.3368086899420168e-19
220
6.9388939039072268e-18
230
-1
0
CIRCLE
5
102
100
AcDbEntity
8
0
100
AcDbCircle
10
-107.92313027363711
20
-503.79988574985185
30
1.058775671531191e-12
40
3.7700000000000005
210
-4.3368086899420168e-19
220
1.3877787807814454e-17
230
-1
0
CIRCLE
5
103
100
AcDbEntity
8
0
100
AcDbCircle
10
-139.67312965322509
20
-503.80616238571628
30
1.0587618150580488e-12
40
3.7700000000000005
210
-4.3368086899420168e-19
220
1.3877787807814454e-17
230
-1
0
CIRCLE
5
104
100
AcDbEntity
8
0
100
AcDbCircle
10
-133.67312977046836
20
-503.80497624980489
30
1.1333145564586223e-12
40
1.1900000000000008
210
-4.3368086899420168e-19
220
6.9388939039072268e-18
230
-1
0
CIRCLE
5
105
100
AcDbEntity
8
0
100
AcDbCircle
10
-203.17312841240127
20
-503.81871565744513
30
1.1297883756877745e-12
40
3.7700000000000005
210
-4.3368086899420168e-19
220
1.3877787807814454e-17
230
-1
0
CIRCLE
5
106
100
AcDbEntity
8
0
100
AcDbCircle
10
-197.17312852964449
20
-503.81752952153369
30
1.0622326570421488e-12
40
1.1900000000000008
210
-4.3368086899420168e-19
220
6.9388939039072268e-18
230
-1
0
CIRCLE
5
107
100
AcDbEntity
8
0
100
AcDbCircle
10
-171.42312903281319
20
-503.81243902158064
30
1.1298022321609167e-12
40
3.7700000000000005
210
-4.3368086899420168e-19
220
1.3877787807814454e-17
230
-1
0
CIRCLE
5
108
100
AcDbEntity
8
0
100
AcDbCircle
10
-165.42312915005638
20
-503.81125288566932
30
1.0622464699623804e-12
40
1.1900000000000008
210
-4.3368086899420168e-19
220
6.9388939039072268e-18
230
-1
0
CIRCLE
5
109
100
AcDbEntity
8
0
100
AcDbCircle
10
-107.91559831059982
20
-541.89988500535742
30
1.1293012046685235e-12
40
3.7700000000000005
210
-4.3368086899420168e-19
220
1.3877787807814454e-17
230
-1
0
CIRCLE
5
110
100
AcDbEntity
8
0
100
AcDbCircle
10
-139.66559769018787
20
-541.90616164122184
30
1.1292873481953813e-12
40
3.7700000000000005
210
-4.3368086899420168e-19
220
1.3877787807814454e-17
230
-1
0
CIRCLE
5
111
100
AcDbEntity
8
0
100
AcDbCircle
10
-133.66559780743106
20
-541.90497550531052
30
1.2041044614485279e-12
40
1.1900000000000008
210
-4.3368086899420168e-19
220
6.9388939039072268e-18
230
-1
0
CIRCLE
5
112
100
AcDbEntity
8
0
100
AcDbCircle
10
-107.91968063456605
20
-521.24968540887346
30
1.2006420555622969e-12
40
2.1500000000000004
210
-4.3368086899420168e-19
220
1.3877787807814454e-17
230
-1
0
CIRCLE
5
113
100
AcDbEntity
8
0
100
AcDbCircle
10
-155.54467970394819
20
-521.25910036266998
30
1.1295669972765736e-12
40
2.1500000000000004
210
-4.3368086899420168e-19
220
1.3877787807814454e-17
230
-1
0
CIRCLE
5
114
100
AcDbEntity
8
0
100
AcDbCircle
10
-165.41559718701916
20
-541.91125214117494
30
1.204090648528296e-12
40
1.1900000000000008
210
-4.3368086899420168e-19
220
6.9388939039072268e-18
230
-1
0
CIRCLE
5
115
100
AcDbEntity
8
0
100
AcDbCircle
10
-197.16559656660723
20
-541.91752877703937
30
1.1330225620320541e-12
40
1.1900000000000008
210
-4.3368086899420168e-19
220
6.9388939039072268e-18
230
-1
0
CIRCLE
5
116
100
AcDbEntity
8
0
100
AcDbCircle
10
-171.41559706977591
20
-541.91243827708649
30
1.2003277652982491e-12
40
3.7700000000000005
210
-4.3368086899420168e-19
220
1.3877787807814454e-17
230
-1
0
CIRCLE
5
117
100
AcDbEntity
8
0
100
AcDbCircle
10
-101.91559842784298
20
-541.89869886944609
30
1.2041182743687595e-12
40
1.1900000000000008
210
-4.3368086899420168e-19
220
6.9388939039072268e-18
230
-1
0
CIRCLE
5
118
100
AcDbEntity
8
0
100
AcDbCircle
10
-136.29093392888132
20
-516.82486401614051
30
1.0621688039711788e-12
40
1.5500000000000005
210
-4.3368086899420168e-19
220
6.9388939039072268e-18
230
-1
0
CIRCLE
5
119
100
AcDbEntity
8
0
100
AcDbCircle
10
-176.29093314726009
20
-516.83277158888336
30
1.0621514018669495e-12
40
1.5500000000000005
210
-4.3368086899420168e-19
220
6.9388939039072268e-18
230
-1
0
CIRCLE
5
120
100
AcDbEntity
8
0
100
AcDbCircle
10
-203.16559644936393
20
-541.9187149129508
30
1.2003139088251069e-12
40
3.7700000000000005
210
-4.3368086899420168e-19
220
1.3877787807814454e-17
230
-1
0
CIRCLE
5
121
100
AcDbEntity
8
0
100
AcDbCircle
10
-223.68488584944237
20
-497.46007048854415
30
1.0622652731339241e-12
40
2.1526500000000004
210
-4.3368086899420168e-19
220
6.9388939039072268e-18
230
-1
0
CIRCLE
5
122
100
AcDbEntity
8
0
100
AcDbCircle
10
-209.51967864924785
20
-521.26977064363973
30
1.0584891676962218e-12
40
2.1500000000000004
210
-4.3368086899420168e-19
220
1.3877787807814454e-17
230
-1
0
CIRCLE
5
123
100
AcDbEntity
8
0
100
AcDbCircle
10
-176.28302557451744
20
-556.83277080726202
30
1.2039823966975998e-12
40
1.5500000000000005
210
-4.3368086899420168e-19
220
6.9388939039072268e-18
230
-1
0
CIRCLE
5
124
100
AcDbEntity
8
0
100
AcDbCircle
10
-136.28302635613869
20
-556.82486323451917
30
1.1923494495134039e-12
40
1.7721849999999999
210
-8.6736173798840335e-19
220
2.7755575615628907e-17
230
-1
0
CIRCLE
5
125
100
AcDbEntity
8
0
100
AcDbCircle
10
-116.27732712362324
20
-644.4413400335435
30
1.4075694867583041e-12
40
6.3500000000000014
210
-8.6736173798840335e-19
220
2.0816681711721679e-17
230
-1
0
CIRCLE
5
126
100
AcDbEntity
8
0
100
AcDbCircle
10
-155.41946690028152
20
-645.65024804010545
30
1.4120578719303731e-12
40
2.1500000000000004
210
-4.3368086899420168e-19
220
1.3877787807814454e-17
230
-1
0
CIRCLE
5
127
100
AcDbEntity
8
0
100
AcDbCircle
10
-158.95166119833118
20
-632.6387760629384
30
1.3367238893152818e-12
40
6.3500000000000014
210
-8.6736173798840335e-19
220
2.0816681711721679e-17
230
-1
0
CIRCLE
5
128
100
AcDbEntity
8
0
100
AcDbCircle
10
-155.52862180349197
20
-602.48706077543227
30
1.2705482869939277e-12
40
2.1500000000000004
210
-4.3368086899420168e-19
220
1.3877787807814454e-17
230
-1
0
CIRCLE
5
129
100
AcDbEntity
8
0
100
AcDbCircle
10
-100.68449203582161
20
-589.8748264303415
30
1.341757710393818e-12
40
0.70000000000000018
210
-8.6736173798840335e-19
220
1.3877787807814454e-17
230
-1
0
CIRCLE
5
130
100
AcDbEntity
8
0
100
AcDbCircle
10
-104.88449195375139
20
-589.87565672547964
30
1.2706997823759197e-12
40
0.70000000000000018
210
-8.6736173798840335e-19
220
1.3877787807814454e-17
230
-1
0
CIRCLE
5
131
100
AcDbEntity
8
0
100
AcDbCircle
10
-107.89834007262692
20
-629.19968329947289
30
1.3412525048047305e-12
40
2.1500000000000004
210
-4.3368086899420168e-19
220
1.3877787807814454e-17
230
-1
0
CIRCLE
5
132
100
AcDbEntity
8
0
100
AcDbCircle
10
-116.28372929220497
20
-612.05634066636355
30
1.3371893558533589e-12
40
6.3500000000000014
210
-8.6736173798840335e-19
220
2.0816681711721679e-17
230
-1
0
CIRCLE
5
133
100
AcDbEntity
8
0
100
AcDbCircle
10
-114.14647180614578
20
-589.97848772197449
30
1.3417445953982387e-12
40
0.70000000000000018
210
-8.6736173798840335e-19
220
1.3877787807814454e-17
230
-1
0
CIRCLE
5
134
100
AcDbEntity
8
0
100
AcDbCircle
10
-118.3464717240755
20
-589.97931801711229
30
1.1996323938043304e-12
40
0.70000000000000018
210
-8.6736173798840335e-19
220
1.3877787807814454e-17
230
-1
0
CIRCLE
5
135
100
AcDbEntity
8
0
100
AcDbCircle
10
-118.34755901532766
20
-584.47931812458546
30
1.199708720692707e-12
40
0.70000000000000018
210
-8.6736173798840335e-19
220
1.3877787807814454e-17
230
-1
0
CIRCLE
5
136
100
AcDbEntity
8
0
100
AcDbCircle
10
-114.14755909739789
20
-584.47848782944732
30
1.1997123751345951e-12
40
0.70000000000000018
210
-8.6736173798840335e-19
220
1.3877787807814454e-17
230
-1
0
CIRCLE
5
137
100
AcDbEntity
8
0
100
AcDbCircle
10
-100.68557932707378
20
-584.37482653781456
30
1.1997254901301746e-12
40
0.70000000000000018
210
-8.6736173798840335e-19
220
1.3877787807814454e-17
230
-1
0
CIRCLE
5
138
100
AcDbEntity
8
0
100
AcDbCircle
10
-104.88557924500347
20
-584.37565683295236
30
1.1997218356882866e-12
40
0.70000000000000018
210
-8.6736173798840335e-19
220
1.3877787807814454e-17
230
-1
0
CIRCLE
5
139
100
AcDbEntity
8
0
100
AcDbCircle
10
-157.69213065176953
20
-579.67952603235085
30
1.2667731440594541e-12
40
6.3500000000000014
210
-8.6736173798840335e-19
220
2.0816681711721679e-17
230
-1
0
CIRCLE
5
140
100
AcDbEntity
8
0
100
AcDbCircle
10
-223.66982192336775
20
-573.66006899955562
30
1.2038450831137348e-12
40
2.1526500000000004
210
-4.3368086899420168e-19
220
6.9388939039072268e-18
230
-1
0
CIRCLE
5
141
100
AcDbEntity
8
0
100
AcDbCircle
10
-202.39612977822955
20
-579.68836353564802
30
1.2667341855535834e-12
40
6.3500000000000014
210
-8.6736173798840335e-19
220
2.0816681711721679e-17
230
-1
0
CIRCLE
5
142
100
AcDbEntity
8
0
100
AcDbCircle
10
-209.49833808730881
20
-629.21976853423894
30
1.3412081640906756e-12
40
2.1500000000000004
210
-4.3368086899420168e-19
220
1.3877787807814454e-17
230
-1
0
CIRCLE
5
143
100
AcDbEntity
8
0
100
AcDbCircle
10
-202.38972760964782
20
-612.07336290282774
30
1.2660600428825186e-12
40
6.3500000000000014
210
-8.6736173798840335e-19
220
2.0816681711721679e-17
230
-1
0
CIRCLE
5
144
100
AcDbEntity
8
0
100
AcDbCircle
10
-223.65475799729319
20
-649.86006751056675
30
1.4164791666695557e-12
40
2.1526500000000004
210
-4.3368086899420168e-19
220
6.9388939039072268e-18
230
-1
0
CIRCLE
5
145
100
AcDbEntity
8
0
100
AcDbCircle
10
-202.38332544106615
20
-644.45836227000768
30
1.4074944473634739e-12
40
6.3500000000000014
210
-8.6736173798840335e-19
220
2.0816681711721679e-17
230
-1
0
CIRCLE
5
146
100
AcDbEntity
8
0
100
AcDbCircle
10
-176.27511800177487
20
-596.83277002564068
30
1.2747591179522402e-12
40
1.5500000000000005
210
-4.3368086899420168e-19
220
6.9388939039072268e-18
230
-1
0
CIRCLE
5
147
100
AcDbEntity
8
0
100
AcDbCircle
10
-96.555691318712547
20
-619.21701078390333
30
1.3328025990227766e-12
40
0.44999999999999996
210
-4.3368086899420168e-19
220
2.7755575615628907e-17
230
-1
0
CIRCLE
5
148
100
AcDbEntity
8
0
100
AcDbCircle
10
-99.095691269079609
20
-619.21751291477244
30
1.3328014835364595e-12
40
0.44999999999999996
210
-4.3368086899420168e-19
220
2.7755575615628907e-17
230
-1
0
CIRCLE
5
149
100
AcDbEntity
8
0
100
AcDbCircle
10
-87.398824586175834
20
-573.63312967842535
30
1.1999239887407649e-12
40
2.1526490000000003
210
-4.3368086899420168e-19
220
1.3877787807814454e-17
230
-1
0
CIRCLE
5
150
100
AcDbEntity
8
0
100
AcDbCircle
10
-87.38376066010116
20
-649.83312818943716
30
1.4165384517231907e-12
40
2.1526500000000004
210
-4.3368086899420168e-19
220
6.9388939039072268e-18
230
-1
0
CIRCLE
5
151
100
AcDbEntity
8
0
100
AcDbCircle
10
-87.413888512250466
20
-497.43313116741388
30
1.062324558187559e-12
40
2.1526500000000004
210
-4.3368086899420168e-19
220
6.9388939039072268e-18
230
-1
0
ENDSEC
0
SECTION
2
OBJECTS
0
DICTIONARY
5
C
100
AcDbDictionary
3
ACAD_GROUP
350
D
3
ACAD_MLINESTYLE
350
17
0
DICTIONARY
5
D
100
AcDbDictionary
0
DICTIONARY
5
1A
330
C
100
AcDbDictionary
0
DICTIONARY
5
17
100
AcDbDictionary
0
ENDSEC
0
EOF
