  0
SECTION
  2
HEADER
  9
$ANGBASE
  50
0.0
  9
$ANGDIR
  70
1
  9
$MEASUREMENT
  70
1
  0
ENDSEC
  0
SECTION
  2
TABLES
  0
TABLE
  2
LTYPE
  70
4
  0
LTYPE
  5
40F
  2
CONTINUOUS
  70
0
  3
Solid line
  72
65
  73
0
  40
0.0
  0
LTYPE
  5
410
  2
DASHDOT
 70
0
  3
Dash Dot ____ _ ____ _
 72
65
 73
4
 40
2.0
 49
1.25
 49
-0.25
 49
0.25
 49
-0.25
  0
LTYPE
  5
411
  2
DASHED
 70
0
  3
Dashed __ __ __ __ __
 72
65
 73
2
 40
0.75
 49
0.5
 49
-0.25
  0
LTYPE
  5
43B
  2
DOTTED
 70
0
  3
Dotted .  .  .  .
 72
65
 73
2
 40
0.2
 49
0.0
 49
-0.2
  0
ENDTAB
  0
TABLE
  2
STYLE
  70
4
  0
STYLE
  2
KICAD
  70
0
  40
0
  41
1
  42
1
  50
0
  71
0
  3
isocp.shx
  0
STYLE
  2
KICADB
  70
0
  40
0
  41
1
  42
1
  50
0
  71
0
  3
isocp.shx
  0
STYLE
  2
KICADI
  70
0
  40
0
  41
1
  42
1
  50
15
  71
0
  3
isocp.shx
  0
STYLE
  2
KICADBI
  70
0
  40
0
  41
1
  42
1
  50
15
  71
0
  3
isocp.shx
  0
ENDTAB
  0
TABLE
  2
LAYER
  70
1
  0
LAYER
  2
BLACK
  70
0
  62
7
  6
CONTINUOUS
  0
ENDTAB
  0
ENDSEC
  0
SECTION
  2
ENTITIES
0
LINE
8
BLACK
6
CONTINUOUS
10
124.841
20
-121.666
11
279.5
21
-121.666
0
LINE
8
BLACK
6
CONTINUOUS
10
124.841
20
-68.326
11
279.5
21
-68.35
0
LINE
8
BLACK
6
CONTINUOUS
10
279.5
20
-121.666
11
279.5
21
-68.35
0
LINE
8
BLACK
6
CONTINUOUS
10
124.841
20
-68.326
11
124.841
21
-121.666
0
LINE
8
BLACK
6
CONTINUOUS
10
274.65
20
-70
11
277.15
21
-72.5
0
LINE
8
BLACK
6
CONTINUOUS
10
277.15
20
-70
11
274.65
21
-72.5
0
LINE
8
BLACK
6
CONTINUOUS
10
274.75
20
-117.6
11
277.25
21
-120.1
0
LINE
8
BLACK
6
CONTINUOUS
10
277.25
20
-117.6
11
274.75
21
-120.1
0
LINE
8
BLACK
6
CONTINUOUS
10
127.342
20
-124.846
11
127.342
21
-122.846
0
LINE
8
BLACK
6
CONTINUOUS
10
127.342
20
-122.846
11
127.818
21
-122.846
0
LINE
8
BLACK
6
CONTINUOUS
10
127.818
20
-122.846
11
128.104
21
-122.941
0
LINE
8
BLACK
6
CONTINUOUS
10
128.104
20
-122.941
11
128.295
21
-123.131
0
LINE
8
BLACK
6
CONTINUOUS
10
128.295
20
-123.131
11
128.39
21
-123.322
0
LINE
8
BLACK
6
CONTINUOUS
10
128.39
20
-123.322
11
128.485
21
-123.703
0
LINE
8
BLACK
6
CONTINUOUS
10
128.485
20
-123.703
11
128.485
21
-123.989
0
LINE
8
BLACK
6
CONTINUOUS
10
128.485
20
-123.989
11
128.39
21
-124.37
0
LINE
8
BLACK
6
CONTINUOUS
10
128.39
20
-124.37
11
128.295
21
-124.56
0
LINE
8
BLACK
6
CONTINUOUS
10
128.295
20
-124.56
11
128.104
21
-124.751
0
LINE
8
BLACK
6
CONTINUOUS
10
128.104
20
-124.751
11
127.818
21
-124.846
0
LINE
8
BLACK
6
CONTINUOUS
10
127.818
20
-124.846
11
127.342
21
-124.846
0
LINE
8
BLACK
6
CONTINUOUS
10
129.342
20
-124.846
11
129.342
21
-123.512
0
LINE
8
BLACK
6
CONTINUOUS
10
129.342
20
-123.893
11
129.437
21
-123.703
0
LINE
8
BLACK
6
CONTINUOUS
10
129.437
20
-123.703
11
129.533
21
-123.608
0
LINE
8
BLACK
6
CONTINUOUS
10
129.533
20
-123.608
11
129.723
21
-123.512
0
LINE
8
BLACK
6
CONTINUOUS
10
129.723
20
-123.512
11
129.914
21
-123.512
0
LINE
8
BLACK
6
CONTINUOUS
10
130.58
20
-124.846
11
130.58
21
-123.512
0
LINE
8
BLACK
6
CONTINUOUS
10
130.58
20
-122.846
11
130.485
21
-122.941
0
LINE
8
BLACK
6
CONTINUOUS
10
130.485
20
-122.941
11
130.58
21
-123.036
0
LINE
8
BLACK
6
CONTINUOUS
10
130.58
20
-123.036
11
130.676
21
-122.941
0
LINE
8
BLACK
6
CONTINUOUS
10
130.676
20
-122.941
11
130.58
21
-122.846
0
LINE
8
BLACK
6
CONTINUOUS
10
130.58
20
-122.846
11
130.58
21
-123.036
0
LINE
8
BLACK
6
CONTINUOUS
10
131.818
20
-124.846
11
131.628
21
-124.751
0
LINE
8
BLACK
6
CONTINUOUS
10
131.628
20
-124.751
11
131.533
21
-124.56
0
LINE
8
BLACK
6
CONTINUOUS
10
131.533
20
-124.56
11
131.533
21
-122.846
0
LINE
8
BLACK
6
CONTINUOUS
10
132.866
20
-124.846
11
132.676
21
-124.751
0
LINE
8
BLACK
6
CONTINUOUS
10
132.676
20
-124.751
11
132.58
21
-124.56
0
LINE
8
BLACK
6
CONTINUOUS
10
132.58
20
-124.56
11
132.58
21
-122.846
0
LINE
8
BLACK
6
CONTINUOUS
10
135.152
20
-124.846
11
135.152
21
-122.846
0
LINE
8
BLACK
6
CONTINUOUS
10
135.152
20
-122.846
11
135.818
21
-124.274
0
LINE
8
BLACK
6
CONTINUOUS
10
135.818
20
-124.274
11
136.485
21
-122.846
0
LINE
8
BLACK
6
CONTINUOUS
10
136.485
20
-122.846
11
136.485
21
-124.846
0
LINE
8
BLACK
6
CONTINUOUS
10
138.295
20
-124.846
11
138.295
21
-123.798
0
LINE
8
BLACK
6
CONTINUOUS
10
138.295
20
-123.798
11
138.199
21
-123.608
0
LINE
8
BLACK
6
CONTINUOUS
10
138.199
20
-123.608
11
138.009
21
-123.512
0
LINE
8
BLACK
6
CONTINUOUS
10
138.009
20
-123.512
11
137.628
21
-123.512
0
LINE
8
BLACK
6
CONTINUOUS
10
137.628
20
-123.512
11
137.437
21
-123.608
0
LINE
8
BLACK
6
CONTINUOUS
10
138.295
20
-124.751
11
138.104
21
-124.846
0
LINE
8
BLACK
6
CONTINUOUS
10
138.104
20
-124.846
11
137.628
21
-124.846
0
LINE
8
BLACK
6
CONTINUOUS
10
137.628
20
-124.846
11
137.437
21
-124.751
0
LINE
8
BLACK
6
CONTINUOUS
10
137.437
20
-124.751
11
137.342
21
-124.56
0
LINE
8
BLACK
6
CONTINUOUS
10
137.342
20
-124.56
11
137.342
21
-124.37
0
LINE
8
BLACK
6
CONTINUOUS
10
137.342
20
-124.37
11
137.437
21
-124.179
0
LINE
8
BLACK
6
CONTINUOUS
10
137.437
20
-124.179
11
137.628
21
-124.084
0
LINE
8
BLACK
6
CONTINUOUS
10
137.628
20
-124.084
11
138.104
21
-124.084
0
LINE
8
BLACK
6
CONTINUOUS
10
138.104
20
-124.084
11
138.295
21
-123.989
0
LINE
8
BLACK
6
CONTINUOUS
10
139.247
20
-123.512
11
139.247
21
-125.512
0
LINE
8
BLACK
6
CONTINUOUS
10
139.247
20
-123.608
11
139.437
21
-123.512
0
LINE
8
BLACK
6
CONTINUOUS
10
139.437
20
-123.512
11
139.818
21
-123.512
0
LINE
8
BLACK
6
CONTINUOUS
10
139.818
20
-123.512
11
140.009
21
-123.608
0
LINE
8
BLACK
6
CONTINUOUS
10
140.009
20
-123.608
11
140.104
21
-123.703
0
LINE
8
BLACK
6
CONTINUOUS
10
140.104
20
-123.703
11
140.199
21
-123.893
0
LINE
8
BLACK
6
CONTINUOUS
10
140.199
20
-123.893
11
140.199
21
-124.465
0
LINE
8
BLACK
6
CONTINUOUS
10
140.199
20
-124.465
11
140.104
21
-124.655
0
LINE
8
BLACK
6
CONTINUOUS
10
140.104
20
-124.655
11
140.009
21
-124.751
0
LINE
8
BLACK
6
CONTINUOUS
10
140.009
20
-124.751
11
139.818
21
-124.846
0
LINE
8
BLACK
6
CONTINUOUS
10
139.818
20
-124.846
11
139.437
21
-124.846
0
LINE
8
BLACK
6
CONTINUOUS
10
139.437
20
-124.846
11
139.247
21
-124.751
0
LINE
8
BLACK
6
CONTINUOUS
10
141.056
20
-124.655
11
141.152
21
-124.751
0
LINE
8
BLACK
6
CONTINUOUS
10
141.152
20
-124.751
11
141.056
21
-124.846
0
LINE
8
BLACK
6
CONTINUOUS
10
141.056
20
-124.846
11
140.961
21
-124.751
0
LINE
8
BLACK
6
CONTINUOUS
10
140.961
20
-124.751
11
141.056
21
-124.655
0
LINE
8
BLACK
6
CONTINUOUS
10
141.056
20
-124.655
11
141.056
21
-124.846
0
LINE
8
BLACK
6
CONTINUOUS
10
141.056
20
-123.608
11
141.152
21
-123.703
0
LINE
8
BLACK
6
CONTINUOUS
10
141.152
20
-123.703
11
141.056
21
-123.798
0
LINE
8
BLACK
6
CONTINUOUS
10
141.056
20
-123.798
11
140.961
21
-123.703
0
LINE
8
BLACK
6
CONTINUOUS
10
140.961
20
-123.703
11
141.056
21
-123.608
0
LINE
8
BLACK
6
CONTINUOUS
10
141.056
20
-123.608
11
141.056
21
-123.798
0
LINE
8
BLACK
6
CONTINUOUS
10
122.766
20
-127.141
11
124.766
21
-129.141
0
LINE
8
BLACK
6
CONTINUOUS
10
124.766
20
-127.141
11
122.766
21
-129.141
0
LINE
8
BLACK
6
CONTINUOUS
10
127.247
20
-127.236
11
127.342
21
-127.141
0
LINE
8
BLACK
6
CONTINUOUS
10
127.342
20
-127.141
11
127.533
21
-127.046
0
LINE
8
BLACK
6
CONTINUOUS
10
127.533
20
-127.046
11
128.009
21
-127.046
0
LINE
8
BLACK
6
CONTINUOUS
10
128.009
20
-127.046
11
128.199
21
-127.141
0
LINE
8
BLACK
6
CONTINUOUS
10
128.199
20
-127.141
11
128.295
21
-127.236
0
LINE
8
BLACK
6
CONTINUOUS
10
128.295
20
-127.236
11
128.39
21
-127.427
0
LINE
8
BLACK
6
CONTINUOUS
10
128.39
20
-127.427
11
128.39
21
-127.617
0
LINE
8
BLACK
6
CONTINUOUS
10
128.39
20
-127.617
11
128.295
21
-127.903
0
LINE
8
BLACK
6
CONTINUOUS
10
128.295
20
-127.903
11
127.152
21
-129.046
0
LINE
8
BLACK
6
CONTINUOUS
10
127.152
20
-129.046
11
128.39
21
-129.046
0
LINE
8
BLACK
6
CONTINUOUS
10
129.247
20
-128.855
11
129.342
21
-128.951
0
LINE
8
BLACK
6
CONTINUOUS
10
129.342
20
-128.951
11
129.247
21
-129.046
0
LINE
8
BLACK
6
CONTINUOUS
10
129.247
20
-129.046
11
129.152
21
-128.951
0
LINE
8
BLACK
6
CONTINUOUS
10
129.152
20
-128.951
11
129.247
21
-128.855
0
LINE
8
BLACK
6
CONTINUOUS
10
129.247
20
-128.855
11
129.247
21
-129.046
0
LINE
8
BLACK
6
CONTINUOUS
10
131.152
20
-127.046
11
130.199
21
-127.046
0
LINE
8
BLACK
6
CONTINUOUS
10
130.199
20
-127.046
11
130.104
21
-127.998
0
LINE
8
BLACK
6
CONTINUOUS
10
130.104
20
-127.998
11
130.199
21
-127.903
0
LINE
8
BLACK
6
CONTINUOUS
10
130.199
20
-127.903
11
130.39
21
-127.808
0
LINE
8
BLACK
6
CONTINUOUS
10
130.39
20
-127.808
11
130.866
21
-127.808
0
LINE
8
BLACK
6
CONTINUOUS
10
130.866
20
-127.808
11
131.056
21
-127.903
0
LINE
8
BLACK
6
CONTINUOUS
10
131.056
20
-127.903
11
131.152
21
-127.998
0
LINE
8
BLACK
6
CONTINUOUS
10
131.152
20
-127.998
11
131.247
21
-128.189
0
LINE
8
BLACK
6
CONTINUOUS
10
131.247
20
-128.189
11
131.247
21
-128.665
0
LINE
8
BLACK
6
CONTINUOUS
10
131.247
20
-128.665
11
131.152
21
-128.855
0
LINE
8
BLACK
6
CONTINUOUS
10
131.152
20
-128.855
11
131.056
21
-128.951
0
LINE
8
BLACK
6
CONTINUOUS
10
131.056
20
-128.951
11
130.866
21
-129.046
0
LINE
8
BLACK
6
CONTINUOUS
10
130.866
20
-129.046
11
130.39
21
-129.046
0
LINE
8
BLACK
6
CONTINUOUS
10
130.39
20
-129.046
11
130.199
21
-128.951
0
LINE
8
BLACK
6
CONTINUOUS
10
130.199
20
-128.951
11
130.104
21
-128.855
0
LINE
8
BLACK
6
CONTINUOUS
10
132.485
20
-127.046
11
132.676
21
-127.046
0
LINE
8
BLACK
6
CONTINUOUS
10
132.676
20
-127.046
11
132.866
21
-127.141
0
LINE
8
BLACK
6
CONTINUOUS
10
132.866
20
-127.141
11
132.961
21
-127.236
0
LINE
8
BLACK
6
CONTINUOUS
10
132.961
20
-127.236
11
133.056
21
-127.427
0
LINE
8
BLACK
6
CONTINUOUS
10
133.056
20
-127.427
11
133.152
21
-127.808
0
LINE
8
BLACK
6
CONTINUOUS
10
133.152
20
-127.808
11
133.152
21
-128.284
0
LINE
8
BLACK
6
CONTINUOUS
10
133.152
20
-128.284
11
133.056
21
-128.665
0
LINE
8
BLACK
6
CONTINUOUS
10
133.056
20
-128.665
11
132.961
21
-128.855
0
LINE
8
BLACK
6
CONTINUOUS
10
132.961
20
-128.855
11
132.866
21
-128.951
0
LINE
8
BLACK
6
CONTINUOUS
10
132.866
20
-128.951
11
132.676
21
-129.046
0
LINE
8
BLACK
6
CONTINUOUS
10
132.676
20
-129.046
11
132.485
21
-129.046
0
LINE
8
BLACK
6
CONTINUOUS
10
132.485
20
-129.046
11
132.295
21
-128.951
0
LINE
8
BLACK
6
CONTINUOUS
10
132.295
20
-128.951
11
132.199
21
-128.855
0
LINE
8
BLACK
6
CONTINUOUS
10
132.199
20
-128.855
11
132.104
21
-128.665
0
LINE
8
BLACK
6
CONTINUOUS
10
132.104
20
-128.665
11
132.009
21
-128.284
0
LINE
8
BLACK
6
CONTINUOUS
10
132.009
20
-128.284
11
132.009
21
-127.808
0
LINE
8
BLACK
6
CONTINUOUS
10
132.009
20
-127.808
11
132.104
21
-127.427
0
LINE
8
BLACK
6
CONTINUOUS
10
132.104
20
-127.427
11
132.199
21
-127.236
0
LINE
8
BLACK
6
CONTINUOUS
10
132.199
20
-127.236
11
132.295
21
-127.141
0
LINE
8
BLACK
6
CONTINUOUS
10
132.295
20
-127.141
11
132.485
21
-127.046
0
LINE
8
BLACK
6
CONTINUOUS
10
134.39
20
-127.046
11
134.58
21
-127.046
0
LINE
8
BLACK
6
CONTINUOUS
10
134.58
20
-127.046
11
134.771
21
-127.141
0
LINE
8
BLACK
6
CONTINUOUS
10
134.771
20
-127.141
11
134.866
21
-127.236
0
LINE
8
BLACK
6
CONTINUOUS
10
134.866
20
-127.236
11
134.961
21
-127.427
0
LINE
8
BLACK
6
CONTINUOUS
10
134.961
20
-127.427
11
135.056
21
-127.808
0
LINE
8
BLACK
6
CONTINUOUS
10
135.056
20
-127.808
11
135.056
21
-128.284
0
LINE
8
BLACK
6
CONTINUOUS
10
135.056
20
-128.284
11
134.961
21
-128.665
0
LINE
8
BLACK
6
CONTINUOUS
10
134.961
20
-128.665
11
134.866
21
-128.855
0
LINE
8
BLACK
6
CONTINUOUS
10
134.866
20
-128.855
11
134.771
21
-128.951
0
LINE
8
BLACK
6
CONTINUOUS
10
134.771
20
-128.951
11
134.58
21
-129.046
0
LINE
8
BLACK
6
CONTINUOUS
10
134.58
20
-129.046
11
134.39
21
-129.046
0
LINE
8
BLACK
6
CONTINUOUS
10
134.39
20
-129.046
11
134.199
21
-128.951
0
LINE
8
BLACK
6
CONTINUOUS
10
134.199
20
-128.951
11
134.104
21
-128.855
0
LINE
8
BLACK
6
CONTINUOUS
10
134.104
20
-128.855
11
134.009
21
-128.665
0
LINE
8
BLACK
6
CONTINUOUS
10
134.009
20
-128.665
11
133.914
21
-128.284
0
LINE
8
BLACK
6
CONTINUOUS
10
133.914
20
-128.284
11
133.914
21
-127.808
0
LINE
8
BLACK
6
CONTINUOUS
10
133.914
20
-127.808
11
134.009
21
-127.427
0
LINE
8
BLACK
6
CONTINUOUS
10
134.009
20
-127.427
11
134.104
21
-127.236
0
LINE
8
BLACK
6
CONTINUOUS
10
134.104
20
-127.236
11
134.199
21
-127.141
0
LINE
8
BLACK
6
CONTINUOUS
10
134.199
20
-127.141
11
134.39
21
-127.046
0
LINE
8
BLACK
6
CONTINUOUS
10
135.914
20
-129.046
11
135.914
21
-127.712
0
LINE
8
BLACK
6
CONTINUOUS
10
135.914
20
-127.903
11
136.009
21
-127.808
0
LINE
8
BLACK
6
CONTINUOUS
10
136.009
20
-127.808
11
136.199
21
-127.712
0
LINE
8
BLACK
6
CONTINUOUS
10
136.199
20
-127.712
11
136.485
21
-127.712
0
LINE
8
BLACK
6
CONTINUOUS
10
136.485
20
-127.712
11
136.676
21
-127.808
0
LINE
8
BLACK
6
CONTINUOUS
10
136.676
20
-127.808
11
136.771
21
-127.998
0
LINE
8
BLACK
6
CONTINUOUS
10
136.771
20
-127.998
11
136.771
21
-129.046
0
LINE
8
BLACK
6
CONTINUOUS
10
136.771
20
-127.998
11
136.866
21
-127.808
0
LINE
8
BLACK
6
CONTINUOUS
10
136.866
20
-127.808
11
137.056
21
-127.712
0
LINE
8
BLACK
6
CONTINUOUS
10
137.056
20
-127.712
11
137.342
21
-127.712
0
LINE
8
BLACK
6
CONTINUOUS
10
137.342
20
-127.712
11
137.533
21
-127.808
0
LINE
8
BLACK
6
CONTINUOUS
10
137.533
20
-127.808
11
137.628
21
-127.998
0
LINE
8
BLACK
6
CONTINUOUS
10
137.628
20
-127.998
11
137.628
21
-129.046
0
LINE
8
BLACK
6
CONTINUOUS
10
138.58
20
-129.046
11
138.58
21
-127.712
0
LINE
8
BLACK
6
CONTINUOUS
10
138.58
20
-127.903
11
138.676
21
-127.808
0
LINE
8
BLACK
6
CONTINUOUS
10
138.676
20
-127.808
11
138.866
21
-127.712
0
LINE
8
BLACK
6
CONTINUOUS
10
138.866
20
-127.712
11
139.152
21
-127.712
0
LINE
8
BLACK
6
CONTINUOUS
10
139.152
20
-127.712
11
139.342
21
-127.808
0
LINE
8
BLACK
6
CONTINUOUS
10
139.342
20
-127.808
11
139.437
21
-127.998
0
LINE
8
BLACK
6
CONTINUOUS
10
139.437
20
-127.998
11
139.437
21
-129.046
0
LINE
8
BLACK
6
CONTINUOUS
10
139.437
20
-127.998
11
139.533
21
-127.808
0
LINE
8
BLACK
6
CONTINUOUS
10
139.533
20
-127.808
11
139.723
21
-127.712
0
LINE
8
BLACK
6
CONTINUOUS
10
139.723
20
-127.712
11
140.009
21
-127.712
0
LINE
8
BLACK
6
CONTINUOUS
10
140.009
20
-127.712
11
140.199
21
-127.808
0
LINE
8
BLACK
6
CONTINUOUS
10
140.199
20
-127.808
11
140.295
21
-127.998
0
LINE
8
BLACK
6
CONTINUOUS
10
140.295
20
-127.998
11
140.295
21
-129.046
0
LINE
8
BLACK
6
CONTINUOUS
10
144.199
20
-126.951
11
142.485
21
-129.522
0
LINE
8
BLACK
6
CONTINUOUS
10
146.771
20
-127.046
11
146.961
21
-127.046
0
LINE
8
BLACK
6
CONTINUOUS
10
146.961
20
-127.046
11
147.152
21
-127.141
0
LINE
8
BLACK
6
CONTINUOUS
10
147.152
20
-127.141
11
147.247
21
-127.236
0
LINE
8
BLACK
6
CONTINUOUS
10
147.247
20
-127.236
11
147.342
21
-127.427
0
LINE
8
BLACK
6
CONTINUOUS
10
147.342
20
-127.427
11
147.437
21
-127.808
0
LINE
8
BLACK
6
CONTINUOUS
10
147.437
20
-127.808
11
147.437
21
-128.284
0
LINE
8
BLACK
6
CONTINUOUS
10
147.437
20
-128.284
11
147.342
21
-128.665
0
LINE
8
BLACK
6
CONTINUOUS
10
147.342
20
-128.665
11
147.247
21
-128.855
0
LINE
8
BLACK
6
CONTINUOUS
10
147.247
20
-128.855
11
147.152
21
-128.951
0
LINE
8
BLACK
6
CONTINUOUS
10
147.152
20
-128.951
11
146.961
21
-129.046
0
LINE
8
BLACK
6
CONTINUOUS
10
146.961
20
-129.046
11
146.771
21
-129.046
0
LINE
8
BLACK
6
CONTINUOUS
10
146.771
20
-129.046
11
146.58
21
-128.951
0
LINE
8
BLACK
6
CONTINUOUS
10
146.58
20
-128.951
11
146.485
21
-128.855
0
LINE
8
BLACK
6
CONTINUOUS
10
146.485
20
-128.855
11
146.39
21
-128.665
0
LINE
8
BLACK
6
CONTINUOUS
10
146.39
20
-128.665
11
146.295
21
-128.284
0
LINE
8
BLACK
6
CONTINUOUS
10
146.295
20
-128.284
11
146.295
21
-127.808
0
LINE
8
BLACK
6
CONTINUOUS
10
146.295
20
-127.808
11
146.39
21
-127.427
0
LINE
8
BLACK
6
CONTINUOUS
10
146.39
20
-127.427
11
146.485
21
-127.236
0
LINE
8
BLACK
6
CONTINUOUS
10
146.485
20
-127.236
11
146.58
21
-127.141
0
LINE
8
BLACK
6
CONTINUOUS
10
146.58
20
-127.141
11
146.771
21
-127.046
0
LINE
8
BLACK
6
CONTINUOUS
10
148.295
20
-128.855
11
148.39
21
-128.951
0
LINE
8
BLACK
6
CONTINUOUS
10
148.39
20
-128.951
11
148.295
21
-129.046
0
LINE
8
BLACK
6
CONTINUOUS
10
148.295
20
-129.046
11
148.199
21
-128.951
0
LINE
8
BLACK
6
CONTINUOUS
10
148.199
20
-128.951
11
148.295
21
-128.855
0
LINE
8
BLACK
6
CONTINUOUS
10
148.295
20
-128.855
11
148.295
21
-129.046
0
LINE
8
BLACK
6
CONTINUOUS
10
149.628
20
-127.046
11
149.818
21
-127.046
0
LINE
8
BLACK
6
CONTINUOUS
10
149.818
20
-127.046
11
150.009
21
-127.141
0
LINE
8
BLACK
6
CONTINUOUS
10
150.009
20
-127.141
11
150.104
21
-127.236
0
LINE
8
BLACK
6
CONTINUOUS
10
150.104
20
-127.236
11
150.199
21
-127.427
0
LINE
8
BLACK
6
CONTINUOUS
10
150.199
20
-127.427
11
150.295
21
-127.808
0
LINE
8
BLACK
6
CONTINUOUS
10
150.295
20
-127.808
11
150.295
21
-128.284
0
LINE
8
BLACK
6
CONTINUOUS
10
150.295
20
-128.284
11
150.199
21
-128.665
0
LINE
8
BLACK
6
CONTINUOUS
10
150.199
20
-128.665
11
150.104
21
-128.855
0
LINE
8
BLACK
6
CONTINUOUS
10
150.104
20
-128.855
11
150.009
21
-128.951
0
LINE
8
BLACK
6
CONTINUOUS
10
150.009
20
-128.951
11
149.818
21
-129.046
0
LINE
8
BLACK
6
CONTINUOUS
10
149.818
20
-129.046
11
149.628
21
-129.046
0
LINE
8
BLACK
6
CONTINUOUS
10
149.628
20
-129.046
11
149.437
21
-128.951
0
LINE
8
BLACK
6
CONTINUOUS
10
149.437
20
-128.951
11
149.342
21
-128.855
0
LINE
8
BLACK
6
CONTINUOUS
10
149.342
20
-128.855
11
149.247
21
-128.665
0
LINE
8
BLACK
6
CONTINUOUS
10
149.247
20
-128.665
11
149.152
21
-128.284
0
LINE
8
BLACK
6
CONTINUOUS
10
149.152
20
-128.284
11
149.152
21
-127.808
0
LINE
8
BLACK
6
CONTINUOUS
10
149.152
20
-127.808
11
149.247
21
-127.427
0
LINE
8
BLACK
6
CONTINUOUS
10
149.247
20
-127.427
11
149.342
21
-127.236
0
LINE
8
BLACK
6
CONTINUOUS
10
149.342
20
-127.236
11
149.437
21
-127.141
0
LINE
8
BLACK
6
CONTINUOUS
10
149.437
20
-127.141
11
149.628
21
-127.046
0
LINE
8
BLACK
6
CONTINUOUS
10
151.247
20
-129.046
11
151.628
21
-129.046
0
LINE
8
BLACK
6
CONTINUOUS
10
151.628
20
-129.046
11
151.818
21
-128.951
0
LINE
8
BLACK
6
CONTINUOUS
10
151.818
20
-128.951
11
151.914
21
-128.855
0
LINE
8
BLACK
6
CONTINUOUS
10
151.914
20
-128.855
11
152.104
21
-128.57
0
LINE
8
BLACK
6
CONTINUOUS
10
152.104
20
-128.57
11
152.199
21
-128.189
0
LINE
8
BLACK
6
CONTINUOUS
10
152.199
20
-128.189
11
152.199
21
-127.427
0
LINE
8
BLACK
6
CONTINUOUS
10
152.199
20
-127.427
11
152.104
21
-127.236
0
LINE
8
BLACK
6
CONTINUOUS
10
152.104
20
-127.236
11
152.009
21
-127.141
0
LINE
8
BLACK
6
CONTINUOUS
10
152.009
20
-127.141
11
151.818
21
-127.046
0
LINE
8
BLACK
6
CONTINUOUS
10
151.818
20
-127.046
11
151.437
21
-127.046
0
LINE
8
BLACK
6
CONTINUOUS
10
151.437
20
-127.046
11
151.247
21
-127.141
0
LINE
8
BLACK
6
CONTINUOUS
10
151.247
20
-127.141
11
151.152
21
-127.236
0
LINE
8
BLACK
6
CONTINUOUS
10
151.152
20
-127.236
11
151.056
21
-127.427
0
LINE
8
BLACK
6
CONTINUOUS
10
151.056
20
-127.427
11
151.056
21
-127.903
0
LINE
8
BLACK
6
CONTINUOUS
10
151.056
20
-127.903
11
151.152
21
-128.093
0
LINE
8
BLACK
6
CONTINUOUS
10
151.152
20
-128.093
11
151.247
21
-128.189
0
LINE
8
BLACK
6
CONTINUOUS
10
151.247
20
-128.189
11
151.437
21
-128.284
0
LINE
8
BLACK
6
CONTINUOUS
10
151.437
20
-128.284
11
151.818
21
-128.284
0
LINE
8
BLACK
6
CONTINUOUS
10
151.818
20
-128.284
11
152.009
21
-128.189
0
LINE
8
BLACK
6
CONTINUOUS
10
152.009
20
-128.189
11
152.104
21
-128.093
0
LINE
8
BLACK
6
CONTINUOUS
10
152.104
20
-128.093
11
152.199
21
-127.903
0
LINE
8
BLACK
6
CONTINUOUS
10
153.342
20
-127.903
11
153.152
21
-127.808
0
LINE
8
BLACK
6
CONTINUOUS
10
153.152
20
-127.808
11
153.056
21
-127.712
0
LINE
8
BLACK
6
CONTINUOUS
10
153.056
20
-127.712
11
152.961
21
-127.522
0
LINE
8
BLACK
6
CONTINUOUS
10
152.961
20
-127.522
11
152.961
21
-127.427
0
LINE
8
BLACK
6
CONTINUOUS
10
152.961
20
-127.427
11
153.056
21
-127.236
0
LINE
8
BLACK
6
CONTINUOUS
10
153.056
20
-127.236
11
153.152
21
-127.141
0
LINE
8
BLACK
6
CONTINUOUS
10
153.152
20
-127.141
11
153.342
21
-127.046
0
LINE
8
BLACK
6
CONTINUOUS
10
153.342
20
-127.046
11
153.723
21
-127.046
0
LINE
8
BLACK
6
CONTINUOUS
10
153.723
20
-127.046
11
153.914
21
-127.141
0
LINE
8
BLACK
6
CONTINUOUS
10
153.914
20
-127.141
11
154.009
21
-127.236
0
LINE
8
BLACK
6
CONTINUOUS
10
154.009
20
-127.236
11
154.104
21
-127.427
0
LINE
8
BLACK
6
CONTINUOUS
10
154.104
20
-127.427
11
154.104
21
-127.522
0
LINE
8
BLACK
6
CONTINUOUS
10
154.104
20
-127.522
11
154.009
21
-127.712
0
LINE
8
BLACK
6
CONTINUOUS
10
154.009
20
-127.712
11
153.914
21
-127.808
0
LINE
8
BLACK
6
CONTINUOUS
10
153.914
20
-127.808
11
153.723
21
-127.903
0
LINE
8
BLACK
6
CONTINUOUS
10
153.723
20
-127.903
11
153.342
21
-127.903
0
LINE
8
BLACK
6
CONTINUOUS
10
153.342
20
-127.903
11
153.152
21
-127.998
0
LINE
8
BLACK
6
CONTINUOUS
10
153.152
20
-127.998
11
153.056
21
-128.093
0
LINE
8
BLACK
6
CONTINUOUS
10
153.056
20
-128.093
11
152.961
21
-128.284
0
LINE
8
BLACK
6
CONTINUOUS
10
152.961
20
-128.284
11
152.961
21
-128.665
0
LINE
8
BLACK
6
CONTINUOUS
10
152.961
20
-128.665
11
153.056
21
-128.855
0
LINE
8
BLACK
6
CONTINUOUS
10
153.056
20
-128.855
11
153.152
21
-128.951
0
LINE
8
BLACK
6
CONTINUOUS
10
153.152
20
-128.951
11
153.342
21
-129.046
0
LINE
8
BLACK
6
CONTINUOUS
10
153.342
20
-129.046
11
153.723
21
-129.046
0
LINE
8
BLACK
6
CONTINUOUS
10
153.723
20
-129.046
11
153.914
21
-128.951
0
LINE
8
BLACK
6
CONTINUOUS
10
153.914
20
-128.951
11
154.009
21
-128.855
0
LINE
8
BLACK
6
CONTINUOUS
10
154.009
20
-128.855
11
154.104
21
-128.665
0
LINE
8
BLACK
6
CONTINUOUS
10
154.104
20
-128.665
11
154.104
21
-128.284
0
LINE
8
BLACK
6
CONTINUOUS
10
154.104
20
-128.284
11
154.009
21
-128.093
0
LINE
8
BLACK
6
CONTINUOUS
10
154.009
20
-128.093
11
153.914
21
-127.998
0
LINE
8
BLACK
6
CONTINUOUS
10
153.914
20
-127.998
11
153.723
21
-127.903
0
LINE
8
BLACK
6
CONTINUOUS
10
155.818
20
-127.712
11
155.818
21
-129.046
0
LINE
8
BLACK
6
CONTINUOUS
10
155.342
20
-126.951
11
154.866
21
-128.379
0
LINE
8
BLACK
6
CONTINUOUS
10
154.866
20
-128.379
11
156.104
21
-128.379
0
LINE
8
BLACK
6
CONTINUOUS
10
156.771
20
-127.046
11
156.771
21
-127.427
0
LINE
8
BLACK
6
CONTINUOUS
10
157.533
20
-127.046
11
157.533
21
-127.427
0
LINE
8
BLACK
6
CONTINUOUS
10
160.485
20
-129.808
11
160.39
21
-129.712
0
LINE
8
BLACK
6
CONTINUOUS
10
160.39
20
-129.712
11
160.199
21
-129.427
0
LINE
8
BLACK
6
CONTINUOUS
10
160.199
20
-129.427
11
160.104
21
-129.236
0
LINE
8
BLACK
6
CONTINUOUS
10
160.104
20
-129.236
11
160.009
21
-128.951
0
LINE
8
BLACK
6
CONTINUOUS
10
160.009
20
-128.951
11
159.914
21
-128.474
0
LINE
8
BLACK
6
CONTINUOUS
10
159.914
20
-128.474
11
159.914
21
-128.093
0
LINE
8
BLACK
6
CONTINUOUS
10
159.914
20
-128.093
11
160.009
21
-127.617
0
LINE
8
BLACK
6
CONTINUOUS
10
160.009
20
-127.617
11
160.104
21
-127.331
0
LINE
8
BLACK
6
CONTINUOUS
10
160.104
20
-127.331
11
160.199
21
-127.141
0
LINE
8
BLACK
6
CONTINUOUS
10
160.199
20
-127.141
11
160.39
21
-126.855
0
LINE
8
BLACK
6
CONTINUOUS
10
160.39
20
-126.855
11
160.485
21
-126.76
0
LINE
8
BLACK
6
CONTINUOUS
10
161.152
20
-127.236
11
161.247
21
-127.141
0
LINE
8
BLACK
6
CONTINUOUS
10
161.247
20
-127.141
11
161.437
21
-127.046
0
LINE
8
BLACK
6
CONTINUOUS
10
161.437
20
-127.046
11
161.914
21
-127.046
0
LINE
8
BLACK
6
CONTINUOUS
10
161.914
20
-127.046
11
162.104
21
-127.141
0
LINE
8
BLACK
6
CONTINUOUS
10
162.104
20
-127.141
11
162.199
21
-127.236
0
LINE
8
BLACK
6
CONTINUOUS
10
162.199
20
-127.236
11
162.295
21
-127.427
0
LINE
8
BLACK
6
CONTINUOUS
10
162.295
20
-127.427
11
162.295
21
-127.617
0
LINE
8
BLACK
6
CONTINUOUS
10
162.295
20
-127.617
11
162.199
21
-127.903
0
LINE
8
BLACK
6
CONTINUOUS
10
162.199
20
-127.903
11
161.056
21
-129.046
0
LINE
8
BLACK
6
CONTINUOUS
10
161.056
20
-129.046
11
162.295
21
-129.046
0
LINE
8
BLACK
6
CONTINUOUS
10
164.676
20
-129.046
11
164.676
21
-127.046
0
LINE
8
BLACK
6
CONTINUOUS
10
165.533
20
-129.046
11
165.533
21
-127.998
0
LINE
8
BLACK
6
CONTINUOUS
10
165.533
20
-127.998
11
165.437
21
-127.808
0
LINE
8
BLACK
6
CONTINUOUS
10
165.437
20
-127.808
11
165.247
21
-127.712
0
LINE
8
BLACK
6
CONTINUOUS
10
165.247
20
-127.712
11
164.961
21
-127.712
0
LINE
8
BLACK
6
CONTINUOUS
10
164.961
20
-127.712
11
164.771
21
-127.808
0
LINE
8
BLACK
6
CONTINUOUS
10
164.771
20
-127.808
11
164.676
21
-127.903
0
LINE
8
BLACK
6
CONTINUOUS
10
166.771
20
-129.046
11
166.58
21
-128.951
0
LINE
8
BLACK
6
CONTINUOUS
10
166.58
20
-128.951
11
166.485
21
-128.855
0
LINE
8
BLACK
6
CONTINUOUS
10
166.485
20
-128.855
11
166.39
21
-128.665
0
LINE
8
BLACK
6
CONTINUOUS
10
166.39
20
-128.665
11
166.39
21
-128.093
0
LINE
8
BLACK
6
CONTINUOUS
10
166.39
20
-128.093
11
166.485
21
-127.903
0
LINE
8
BLACK
6
CONTINUOUS
10
166.485
20
-127.903
11
166.58
21
-127.808
0
LINE
8
BLACK
6
CONTINUOUS
10
166.58
20
-127.808
11
166.771
21
-127.712
0
LINE
8
BLACK
6
CONTINUOUS
10
166.771
20
-127.712
11
167.056
21
-127.712
0
LINE
8
BLACK
6
CONTINUOUS
10
167.056
20
-127.712
11
167.247
21
-127.808
0
LINE
8
BLACK
6
CONTINUOUS
10
167.247
20
-127.808
11
167.342
21
-127.903
0
LINE
8
BLACK
6
CONTINUOUS
10
167.342
20
-127.903
11
167.437
21
-128.093
0
LINE
8
BLACK
6
CONTINUOUS
10
167.437
20
-128.093
11
167.437
21
-128.665
0
LINE
8
BLACK
6
CONTINUOUS
10
167.437
20
-128.665
11
167.342
21
-128.855
0
LINE
8
BLACK
6
CONTINUOUS
10
167.342
20
-128.855
11
167.247
21
-128.951
0
LINE
8
BLACK
6
CONTINUOUS
10
167.247
20
-128.951
11
167.056
21
-129.046
0
LINE
8
BLACK
6
CONTINUOUS
10
167.056
20
-129.046
11
166.771
21
-129.046
0
LINE
8
BLACK
6
CONTINUOUS
10
168.58
20
-129.046
11
168.39
21
-128.951
0
LINE
8
BLACK
6
CONTINUOUS
10
168.39
20
-128.951
11
168.295
21
-128.76
0
LINE
8
BLACK
6
CONTINUOUS
10
168.295
20
-128.76
11
168.295
21
-127.046
0
LINE
8
BLACK
6
CONTINUOUS
10
170.104
20
-128.951
11
169.914
21
-129.046
0
LINE
8
BLACK
6
CONTINUOUS
10
169.914
20
-129.046
11
169.533
21
-129.046
0
LINE
8
BLACK
6
CONTINUOUS
10
169.533
20
-129.046
11
169.342
21
-128.951
0
LINE
8
BLACK
6
CONTINUOUS
10
169.342
20
-128.951
11
169.247
21
-128.76
0
LINE
8
BLACK
6
CONTINUOUS
10
169.247
20
-128.76
11
169.247
21
-127.998
0
LINE
8
BLACK
6
CONTINUOUS
10
169.247
20
-127.998
11
169.342
21
-127.808
0
LINE
8
BLACK
6
CONTINUOUS
10
169.342
20
-127.808
11
169.533
21
-127.712
0
LINE
8
BLACK
6
CONTINUOUS
10
169.533
20
-127.712
11
169.914
21
-127.712
0
LINE
8
BLACK
6
CONTINUOUS
10
169.914
20
-127.712
11
170.104
21
-127.808
0
LINE
8
BLACK
6
CONTINUOUS
10
170.104
20
-127.808
11
170.199
21
-127.998
0
LINE
8
BLACK
6
CONTINUOUS
10
170.199
20
-127.998
11
170.199
21
-128.189
0
LINE
8
BLACK
6
CONTINUOUS
10
170.199
20
-128.189
11
169.247
21
-128.379
0
LINE
8
BLACK
6
CONTINUOUS
10
170.961
20
-128.951
11
171.152
21
-129.046
0
LINE
8
BLACK
6
CONTINUOUS
10
171.152
20
-129.046
11
171.533
21
-129.046
0
LINE
8
BLACK
6
CONTINUOUS
10
171.533
20
-129.046
11
171.723
21
-128.951
0
LINE
8
BLACK
6
CONTINUOUS
10
171.723
20
-128.951
11
171.818
21
-128.76
0
LINE
8
BLACK
6
CONTINUOUS
10
171.818
20
-128.76
11
171.818
21
-128.665
0
LINE
8
BLACK
6
CONTINUOUS
10
171.818
20
-128.665
11
171.723
21
-128.474
0
LINE
8
BLACK
6
CONTINUOUS
10
171.723
20
-128.474
11
171.533
21
-128.379
0
LINE
8
BLACK
6
CONTINUOUS
10
171.533
20
-128.379
11
171.247
21
-128.379
0
LINE
8
BLACK
6
CONTINUOUS
10
171.247
20
-128.379
11
171.056
21
-128.284
0
LINE
8
BLACK
6
CONTINUOUS
10
171.056
20
-128.284
11
170.961
21
-128.093
0
LINE
8
BLACK
6
CONTINUOUS
10
170.961
20
-128.093
11
170.961
21
-127.998
0
LINE
8
BLACK
6
CONTINUOUS
10
170.961
20
-127.998
11
171.056
21
-127.808
0
LINE
8
BLACK
6
CONTINUOUS
10
171.056
20
-127.808
11
171.247
21
-127.712
0
LINE
8
BLACK
6
CONTINUOUS
10
171.247
20
-127.712
11
171.533
21
-127.712
0
LINE
8
BLACK
6
CONTINUOUS
10
171.533
20
-127.712
11
171.723
21
-127.808
0
LINE
8
BLACK
6
CONTINUOUS
10
172.485
20
-129.808
11
172.58
21
-129.712
0
LINE
8
BLACK
6
CONTINUOUS
10
172.58
20
-129.712
11
172.771
21
-129.427
0
LINE
8
BLACK
6
CONTINUOUS
10
172.771
20
-129.427
11
172.866
21
-129.236
0
LINE
8
BLACK
6
CONTINUOUS
10
172.866
20
-129.236
11
172.961
21
-128.951
0
LINE
8
BLACK
6
CONTINUOUS
10
172.961
20
-128.951
11
173.056
21
-128.474
0
LINE
8
BLACK
6
CONTINUOUS
10
173.056
20
-128.474
11
173.056
21
-128.093
0
LINE
8
BLACK
6
CONTINUOUS
10
173.056
20
-128.093
11
172.961
21
-127.617
0
LINE
8
BLACK
6
CONTINUOUS
10
172.961
20
-127.617
11
172.866
21
-127.331
0
LINE
8
BLACK
6
CONTINUOUS
10
172.866
20
-127.331
11
172.771
21
-127.141
0
LINE
8
BLACK
6
CONTINUOUS
10
172.771
20
-127.141
11
172.58
21
-126.855
0
LINE
8
BLACK
6
CONTINUOUS
10
172.58
20
-126.855
11
172.485
21
-126.76
0
LINE
8
BLACK
6
CONTINUOUS
10
176.104
20
-129.808
11
176.009
21
-129.712
0
LINE
8
BLACK
6
CONTINUOUS
10
176.009
20
-129.712
11
175.818
21
-129.427
0
LINE
8
BLACK
6
CONTINUOUS
10
175.818
20
-129.427
11
175.723
21
-129.236
0
LINE
8
BLACK
6
CONTINUOUS
10
175.723
20
-129.236
11
175.628
21
-128.951
0
LINE
8
BLACK
6
CONTINUOUS
10
175.628
20
-128.951
11
175.533
21
-128.474
0
LINE
8
BLACK
6
CONTINUOUS
10
175.533
20
-128.474
11
175.533
21
-128.093
0
LINE
8
BLACK
6
CONTINUOUS
10
175.533
20
-128.093
11
175.628
21
-127.617
0
LINE
8
BLACK
6
CONTINUOUS
10
175.628
20
-127.617
11
175.723
21
-127.331
0
LINE
8
BLACK
6
CONTINUOUS
10
175.723
20
-127.331
11
175.818
21
-127.141
0
LINE
8
BLACK
6
CONTINUOUS
10
175.818
20
-127.141
11
176.009
21
-126.855
0
LINE
8
BLACK
6
CONTINUOUS
10
176.009
20
-126.855
11
176.104
21
-126.76
0
LINE
8
BLACK
6
CONTINUOUS
10
176.866
20
-127.712
11
176.866
21
-129.046
0
LINE
8
BLACK
6
CONTINUOUS
10
176.866
20
-127.903
11
176.961
21
-127.808
0
LINE
8
BLACK
6
CONTINUOUS
10
176.961
20
-127.808
11
177.152
21
-127.712
0
LINE
8
BLACK
6
CONTINUOUS
10
177.152
20
-127.712
11
177.437
21
-127.712
0
LINE
8
BLACK
6
CONTINUOUS
10
177.437
20
-127.712
11
177.628
21
-127.808
0
LINE
8
BLACK
6
CONTINUOUS
10
177.628
20
-127.808
11
177.723
21
-127.998
0
LINE
8
BLACK
6
CONTINUOUS
10
177.723
20
-127.998
11
177.723
21
-129.046
0
LINE
8
BLACK
6
CONTINUOUS
10
178.961
20
-129.046
11
178.771
21
-128.951
0
LINE
8
BLACK
6
CONTINUOUS
10
178.771
20
-128.951
11
178.676
21
-128.855
0
LINE
8
BLACK
6
CONTINUOUS
10
178.676
20
-128.855
11
178.58
21
-128.665
0
LINE
8
BLACK
6
CONTINUOUS
10
178.58
20
-128.665
11
178.58
21
-128.093
0
LINE
8
BLACK
6
CONTINUOUS
10
178.58
20
-128.093
11
178.676
21
-127.903
0
LINE
8
BLACK
6
CONTINUOUS
10
178.676
20
-127.903
11
178.771
21
-127.808
0
LINE
8
BLACK
6
CONTINUOUS
10
178.771
20
-127.808
11
178.961
21
-127.712
0
LINE
8
BLACK
6
CONTINUOUS
10
178.961
20
-127.712
11
179.247
21
-127.712
0
LINE
8
BLACK
6
CONTINUOUS
10
179.247
20
-127.712
11
179.437
21
-127.808
0
LINE
8
BLACK
6
CONTINUOUS
10
179.437
20
-127.808
11
179.533
21
-127.903
0
LINE
8
BLACK
6
CONTINUOUS
10
179.533
20
-127.903
11
179.628
21
-128.093
0
LINE
8
BLACK
6
CONTINUOUS
10
179.628
20
-128.093
11
179.628
21
-128.665
0
LINE
8
BLACK
6
CONTINUOUS
10
179.628
20
-128.665
11
179.533
21
-128.855
0
LINE
8
BLACK
6
CONTINUOUS
10
179.533
20
-128.855
11
179.437
21
-128.951
0
LINE
8
BLACK
6
CONTINUOUS
10
179.437
20
-128.951
11
179.247
21
-129.046
0
LINE
8
BLACK
6
CONTINUOUS
10
179.247
20
-129.046
11
178.961
21
-129.046
0
LINE
8
BLACK
6
CONTINUOUS
10
180.199
20
-127.712
11
180.961
21
-127.712
0
LINE
8
BLACK
6
CONTINUOUS
10
180.485
20
-127.046
11
180.485
21
-128.76
0
LINE
8
BLACK
6
CONTINUOUS
10
180.485
20
-128.76
11
180.58
21
-128.951
0
LINE
8
BLACK
6
CONTINUOUS
10
180.58
20
-128.951
11
180.771
21
-129.046
0
LINE
8
BLACK
6
CONTINUOUS
10
180.771
20
-129.046
11
180.961
21
-129.046
0
LINE
8
BLACK
6
CONTINUOUS
10
183.152
20
-127.712
11
183.152
21
-129.712
0
LINE
8
BLACK
6
CONTINUOUS
10
183.152
20
-127.808
11
183.342
21
-127.712
0
LINE
8
BLACK
6
CONTINUOUS
10
183.342
20
-127.712
11
183.723
21
-127.712
0
LINE
8
BLACK
6
CONTINUOUS
10
183.723
20
-127.712
11
183.914
21
-127.808
0
LINE
8
BLACK
6
CONTINUOUS
10
183.914
20
-127.808
11
184.009
21
-127.903
0
LINE
8
BLACK
6
CONTINUOUS
10
184.009
20
-127.903
11
184.104
21
-128.093
0
LINE
8
BLACK
6
CONTINUOUS
10
184.104
20
-128.093
11
184.104
21
-128.665
0
LINE
8
BLACK
6
CONTINUOUS
10
184.104
20
-128.665
11
184.009
21
-128.855
0
LINE
8
BLACK
6
CONTINUOUS
10
184.009
20
-128.855
11
183.914
21
-128.951
0
LINE
8
BLACK
6
CONTINUOUS
10
183.914
20
-128.951
11
183.723
21
-129.046
0
LINE
8
BLACK
6
CONTINUOUS
10
183.723
20
-129.046
11
183.342
21
-129.046
0
LINE
8
BLACK
6
CONTINUOUS
10
183.342
20
-129.046
11
183.152
21
-128.951
0
LINE
8
BLACK
6
CONTINUOUS
10
185.247
20
-129.046
11
185.056
21
-128.951
0
LINE
8
BLACK
6
CONTINUOUS
10
185.056
20
-128.951
11
184.961
21
-128.76
0
LINE
8
BLACK
6
CONTINUOUS
10
184.961
20
-128.76
11
184.961
21
-127.046
0
LINE
8
BLACK
6
CONTINUOUS
10
186.866
20
-129.046
11
186.866
21
-127.998
0
LINE
8
BLACK
6
CONTINUOUS
10
186.866
20
-127.998
11
186.771
21
-127.808
0
LINE
8
BLACK
6
CONTINUOUS
10
186.771
20
-127.808
11
186.58
21
-127.712
0
LINE
8
BLACK
6
CONTINUOUS
10
186.58
20
-127.712
11
186.199
21
-127.712
0
LINE
8
BLACK
6
CONTINUOUS
10
186.199
20
-127.712
11
186.009
21
-127.808
0
LINE
8
BLACK
6
CONTINUOUS
10
186.866
20
-128.951
11
186.676
21
-129.046
0
LINE
8
BLACK
6
CONTINUOUS
10
186.676
20
-129.046
11
186.199
21
-129.046
0
LINE
8
BLACK
6
CONTINUOUS
10
186.199
20
-129.046
11
186.009
21
-128.951
0
LINE
8
BLACK
6
CONTINUOUS
10
186.009
20
-128.951
11
185.914
21
-128.76
0
LINE
8
BLACK
6
CONTINUOUS
10
185.914
20
-128.76
11
185.914
21
-128.57
0
LINE
8
BLACK
6
CONTINUOUS
10
185.914
20
-128.57
11
186.009
21
-128.379
0
LINE
8
BLACK
6
CONTINUOUS
10
186.009
20
-128.379
11
186.199
21
-128.284
0
LINE
8
BLACK
6
CONTINUOUS
10
186.199
20
-128.284
11
186.676
21
-128.284
0
LINE
8
BLACK
6
CONTINUOUS
10
186.676
20
-128.284
11
186.866
21
-128.189
0
LINE
8
BLACK
6
CONTINUOUS
10
187.533
20
-127.712
11
188.295
21
-127.712
0
LINE
8
BLACK
6
CONTINUOUS
10
187.818
20
-127.046
11
187.818
21
-128.76
0
LINE
8
BLACK
6
CONTINUOUS
10
187.818
20
-128.76
11
187.914
21
-128.951
0
LINE
8
BLACK
6
CONTINUOUS
10
187.914
20
-128.951
11
188.104
21
-129.046
0
LINE
8
BLACK
6
CONTINUOUS
10
188.104
20
-129.046
11
188.295
21
-129.046
0
LINE
8
BLACK
6
CONTINUOUS
10
189.723
20
-128.951
11
189.533
21
-129.046
0
LINE
8
BLACK
6
CONTINUOUS
10
189.533
20
-129.046
11
189.152
21
-129.046
0
LINE
8
BLACK
6
CONTINUOUS
10
189.152
20
-129.046
11
188.961
21
-128.951
0
LINE
8
BLACK
6
CONTINUOUS
10
188.961
20
-128.951
11
188.866
21
-128.76
0
LINE
8
BLACK
6
CONTINUOUS
10
188.866
20
-128.76
11
188.866
21
-127.998
0
LINE
8
BLACK
6
CONTINUOUS
10
188.866
20
-127.998
11
188.961
21
-127.808
0
LINE
8
BLACK
6
CONTINUOUS
10
188.961
20
-127.808
11
189.152
21
-127.712
0
LINE
8
BLACK
6
CONTINUOUS
10
189.152
20
-127.712
11
189.533
21
-127.712
0
LINE
8
BLACK
6
CONTINUOUS
10
189.533
20
-127.712
11
189.723
21
-127.808
0
LINE
8
BLACK
6
CONTINUOUS
10
189.723
20
-127.808
11
189.818
21
-127.998
0
LINE
8
BLACK
6
CONTINUOUS
10
189.818
20
-127.998
11
189.818
21
-128.189
0
LINE
8
BLACK
6
CONTINUOUS
10
189.818
20
-128.189
11
188.866
21
-128.379
0
LINE
8
BLACK
6
CONTINUOUS
10
191.533
20
-129.046
11
191.533
21
-127.046
0
LINE
8
BLACK
6
CONTINUOUS
10
191.533
20
-128.951
11
191.342
21
-129.046
0
LINE
8
BLACK
6
CONTINUOUS
10
191.342
20
-129.046
11
190.961
21
-129.046
0
LINE
8
BLACK
6
CONTINUOUS
10
190.961
20
-129.046
11
190.771
21
-128.951
0
LINE
8
BLACK
6
CONTINUOUS
10
190.771
20
-128.951
11
190.676
21
-128.855
0
LINE
8
BLACK
6
CONTINUOUS
10
190.676
20
-128.855
11
190.58
21
-128.665
0
LINE
8
BLACK
6
CONTINUOUS
10
190.58
20
-128.665
11
190.58
21
-128.093
0
LINE
8
BLACK
6
CONTINUOUS
10
190.58
20
-128.093
11
190.676
21
-127.903
0
LINE
8
BLACK
6
CONTINUOUS
10
190.676
20
-127.903
11
190.771
21
-127.808
0
LINE
8
BLACK
6
CONTINUOUS
10
190.771
20
-127.808
11
190.961
21
-127.712
0
LINE
8
BLACK
6
CONTINUOUS
10
190.961
20
-127.712
11
191.342
21
-127.712
0
LINE
8
BLACK
6
CONTINUOUS
10
191.342
20
-127.712
11
191.533
21
-127.808
0
LINE
8
BLACK
6
CONTINUOUS
10
192.295
20
-129.808
11
192.39
21
-129.712
0
LINE
8
BLACK
6
CONTINUOUS
10
192.39
20
-129.712
11
192.58
21
-129.427
0
LINE
8
BLACK
6
CONTINUOUS
10
192.58
20
-129.427
11
192.676
21
-129.236
0
LINE
8
BLACK
6
CONTINUOUS
10
192.676
20
-129.236
11
192.771
21
-128.951
0
LINE
8
BLACK
6
CONTINUOUS
10
192.771
20
-128.951
11
192.866
21
-128.474
0
LINE
8
BLACK
6
CONTINUOUS
10
192.866
20
-128.474
11
192.866
21
-128.093
0
LINE
8
BLACK
6
CONTINUOUS
10
192.866
20
-128.093
11
192.771
21
-127.617
0
LINE
8
BLACK
6
CONTINUOUS
10
192.771
20
-127.617
11
192.676
21
-127.331
0
LINE
8
BLACK
6
CONTINUOUS
10
192.676
20
-127.331
11
192.58
21
-127.141
0
LINE
8
BLACK
6
CONTINUOUS
10
192.58
20
-127.141
11
192.39
21
-126.855
0
LINE
8
BLACK
6
CONTINUOUS
10
192.39
20
-126.855
11
192.295
21
-126.76
  0
ENDSEC
  0
EOF
