M48
; DRILL file {KiCad (5.1.5-0-10_14)} date Sunday, 18 April 2021 at 04:02:43 pm
; FORMAT={-:-/ absolute / metric / decimal}
; #@! TF.CreationDate,2021-04-18T16:02:43+10:00
; #@! TF.GenerationSoftware,Kicad,Pcbnew,(5.1.5-0-10_14)
; #@! TF.FileFunction,Plated,1,2,PTH
FMAT,2
METRIC
T1C0.800
T2C1.200
%
G90
G05
T1
X138.049Y-45.847
X138.049Y-48.387
X138.049Y-50.927
X138.049Y-53.467
X138.049Y-56.007
X138.049Y-58.547
X138.049Y-61.087
X138.049Y-63.627
X145.669Y-45.847
X145.669Y-48.387
X145.669Y-50.927
X145.669Y-53.467
X145.669Y-56.007
X145.669Y-58.547
X145.669Y-61.087
X145.669Y-63.627
T2
X187.071Y-62.865
X189.611Y-62.865
X186.055Y-74.676
X188.595Y-74.676
X191.135Y-74.676
X137.812Y-37.608
X140.352Y-37.608
X142.892Y-37.608
X145.432Y-37.608
X147.972Y-37.608
X150.512Y-37.608
X153.052Y-37.608
X155.592Y-37.608
X158.132Y-37.608
X160.672Y-37.608
X126.365Y-52.324
X128.905Y-52.324
X185.293Y-40.386
X187.833Y-40.386
X190.373Y-40.386
X192.913Y-40.386
X169.545Y-40.386
X172.085Y-40.386
X174.625Y-40.386
X177.165Y-40.386
X170.053Y-64.516
X172.593Y-64.516
X175.133Y-64.516
X177.673Y-64.516
X157.607Y-47.371
X160.147Y-47.371
X193.548Y-51.435
X196.088Y-51.435
X198.628Y-51.435
X201.168Y-51.435
X156.464Y-64.516
X159.004Y-64.516
X161.544Y-64.516
X164.084Y-64.516
X198.501Y-62.865
X201.041Y-62.865
X161.544Y-74.295
X164.084Y-74.295
X173.355Y-74.676
X175.895Y-74.676
X178.435Y-74.676
T0
M30
