  0
SECTION
  2
HEADER
  9
$ANGBASE
  50
0.0
  9
$ANGDIR
  70
1
  9
$MEASUREMENT
  70
1
  0
ENDSEC
  0
SECTION
  2
TABLES
  0
TABLE
  2
LTYPE
  70
4
  0
LTYPE
  5
40F
  2
CONTINUOUS
  70
0
  3
Solid line
  72
65
  73
0
  40
0.0
  0
LTYPE
  5
410
  2
DASHDOT
 70
0
  3
Dash Dot ____ _ ____ _
 72
65
 73
4
 40
2.0
 49
1.25
 49
-0.25
 49
0.25
 49
-0.25
  0
LTYPE
  5
411
  2
DASHED
 70
0
  3
Dashed __ __ __ __ __
 72
65
 73
2
 40
0.75
 49
0.5
 49
-0.25
  0
LTYPE
  5
43B
  2
DOTTED
 70
0
  3
Dotted .  .  .  .
 72
65
 73
2
 40
0.2
 49
0.0
 49
-0.2
  0
ENDTAB
  0
TABLE
  2
STYLE
  70
4
  0
STYLE
  2
KICAD
  70
0
  40
0
  41
1
  42
1
  50
0
  71
0
  3
isocp.shx
  0
STYLE
  2
KICADB
  70
0
  40
0
  41
1
  42
1
  50
0
  71
0
  3
isocp.shx
  0
STYLE
  2
KICADI
  70
0
  40
0
  41
1
  42
1
  50
15
  71
0
  3
isocp.shx
  0
STYLE
  2
KICADBI
  70
0
  40
0
  41
1
  42
1
  50
15
  71
0
  3
isocp.shx
  0
ENDTAB
  0
TABLE
  2
LAYER
  70
1
  0
LAYER
  2
BLACK
  70
0
  62
7
  6
CONTINUOUS
  0
ENDTAB
  0
ENDSEC
  0
SECTION
  2
ENTITIES
0
LINE
8
BLACK
6
CONTINUOUS
10
122.047
20
-31.242
11
122.809
21
-31.242
0
LINE
8
BLACK
6
CONTINUOUS
10
122.047
20
-81.026
11
122.047
21
-31.242
0
LINE
8
BLACK
6
CONTINUOUS
10
207.518
20
-81.026
11
122.047
21
-81.026
0
LINE
8
BLACK
6
CONTINUOUS
10
207.518
20
-31.242
11
207.518
21
-81.026
0
LINE
8
BLACK
6
CONTINUOUS
10
122.809
20
-31.242
11
207.518
21
-31.242
0
LINE
8
BLACK
6
CONTINUOUS
10
123.933
20
-46.336
11
124.733
21
-47.136
0
LINE
8
BLACK
6
CONTINUOUS
10
124.733
20
-46.336
11
123.933
21
-47.136
0
LINE
8
BLACK
6
CONTINUOUS
10
123.933
20
-48.876
11
124.733
21
-49.676
0
LINE
8
BLACK
6
CONTINUOUS
10
124.733
20
-48.876
11
123.933
21
-49.676
0
LINE
8
BLACK
6
CONTINUOUS
10
123.933
20
-51.416
11
124.733
21
-52.216
0
LINE
8
BLACK
6
CONTINUOUS
10
124.733
20
-51.416
11
123.933
21
-52.216
0
LINE
8
BLACK
6
CONTINUOUS
10
123.933
20
-53.956
11
124.733
21
-54.756
0
LINE
8
BLACK
6
CONTINUOUS
10
124.733
20
-53.956
11
123.933
21
-54.756
0
LINE
8
BLACK
6
CONTINUOUS
10
123.933
20
-56.496
11
124.733
21
-57.296
0
LINE
8
BLACK
6
CONTINUOUS
10
124.733
20
-56.496
11
123.933
21
-57.296
0
LINE
8
BLACK
6
CONTINUOUS
10
123.933
20
-59.036
11
124.733
21
-59.836
0
LINE
8
BLACK
6
CONTINUOUS
10
124.733
20
-59.036
11
123.933
21
-59.836
0
LINE
8
BLACK
6
CONTINUOUS
10
123.933
20
-61.576
11
124.733
21
-62.376
0
LINE
8
BLACK
6
CONTINUOUS
10
124.733
20
-61.576
11
123.933
21
-62.376
0
LINE
8
BLACK
6
CONTINUOUS
10
123.933
20
-64.116
11
124.733
21
-64.916
0
LINE
8
BLACK
6
CONTINUOUS
10
124.733
20
-64.116
11
123.933
21
-64.916
0
LINE
8
BLACK
6
CONTINUOUS
10
131.553
20
-46.336
11
132.353
21
-47.136
0
LINE
8
BLACK
6
CONTINUOUS
10
132.353
20
-46.336
11
131.553
21
-47.136
0
LINE
8
BLACK
6
CONTINUOUS
10
131.553
20
-48.876
11
132.353
21
-49.676
0
LINE
8
BLACK
6
CONTINUOUS
10
132.353
20
-48.876
11
131.553
21
-49.676
0
LINE
8
BLACK
6
CONTINUOUS
10
131.553
20
-51.416
11
132.353
21
-52.216
0
LINE
8
BLACK
6
CONTINUOUS
10
132.353
20
-51.416
11
131.553
21
-52.216
0
LINE
8
BLACK
6
CONTINUOUS
10
131.553
20
-53.956
11
132.353
21
-54.756
0
LINE
8
BLACK
6
CONTINUOUS
10
132.353
20
-53.956
11
131.553
21
-54.756
0
LINE
8
BLACK
6
CONTINUOUS
10
131.553
20
-56.496
11
132.353
21
-57.296
0
LINE
8
BLACK
6
CONTINUOUS
10
132.353
20
-56.496
11
131.553
21
-57.296
0
LINE
8
BLACK
6
CONTINUOUS
10
131.553
20
-59.036
11
132.353
21
-59.836
0
LINE
8
BLACK
6
CONTINUOUS
10
132.353
20
-59.036
11
131.553
21
-59.836
0
LINE
8
BLACK
6
CONTINUOUS
10
131.553
20
-61.576
11
132.353
21
-62.376
0
LINE
8
BLACK
6
CONTINUOUS
10
132.353
20
-61.576
11
131.553
21
-62.376
0
LINE
8
BLACK
6
CONTINUOUS
10
131.553
20
-64.116
11
132.353
21
-64.916
0
LINE
8
BLACK
6
CONTINUOUS
10
132.353
20
-64.116
11
131.553
21
-64.916
0
LINE
8
BLACK
6
CONTINUOUS
10
154.54
20
-50.146
11
155.34
21
-50.946
0
LINE
8
BLACK
6
CONTINUOUS
10
155.34
20
-50.146
11
154.54
21
-50.946
0
LINE
8
BLACK
6
CONTINUOUS
10
154.54
20
-52.686
11
155.34
21
-53.486
0
LINE
8
BLACK
6
CONTINUOUS
10
155.34
20
-52.686
11
154.54
21
-53.486
0
LINE
8
BLACK
6
CONTINUOUS
10
154.54
20
-55.226
11
155.34
21
-56.026
0
LINE
8
BLACK
6
CONTINUOUS
10
155.34
20
-55.226
11
154.54
21
-56.026
0
LINE
8
BLACK
6
CONTINUOUS
10
154.54
20
-57.766
11
155.34
21
-58.566
0
LINE
8
BLACK
6
CONTINUOUS
10
155.34
20
-57.766
11
154.54
21
-58.566
0
LINE
8
BLACK
6
CONTINUOUS
10
154.54
20
-60.306
11
155.34
21
-61.106
0
LINE
8
BLACK
6
CONTINUOUS
10
155.34
20
-60.306
11
154.54
21
-61.106
0
LINE
8
BLACK
6
CONTINUOUS
10
154.54
20
-62.846
11
155.34
21
-63.646
0
LINE
8
BLACK
6
CONTINUOUS
10
155.34
20
-62.846
11
154.54
21
-63.646
0
LINE
8
BLACK
6
CONTINUOUS
10
154.54
20
-65.386
11
155.34
21
-66.186
0
LINE
8
BLACK
6
CONTINUOUS
10
155.34
20
-65.386
11
154.54
21
-66.186
0
LINE
8
BLACK
6
CONTINUOUS
10
154.54
20
-67.926
11
155.34
21
-68.726
0
LINE
8
BLACK
6
CONTINUOUS
10
155.34
20
-67.926
11
154.54
21
-68.726
0
LINE
8
BLACK
6
CONTINUOUS
10
162.16
20
-50.146
11
162.96
21
-50.946
0
LINE
8
BLACK
6
CONTINUOUS
10
162.96
20
-50.146
11
162.16
21
-50.946
0
LINE
8
BLACK
6
CONTINUOUS
10
162.16
20
-52.686
11
162.96
21
-53.486
0
LINE
8
BLACK
6
CONTINUOUS
10
162.96
20
-52.686
11
162.16
21
-53.486
0
LINE
8
BLACK
6
CONTINUOUS
10
162.16
20
-55.226
11
162.96
21
-56.026
0
LINE
8
BLACK
6
CONTINUOUS
10
162.96
20
-55.226
11
162.16
21
-56.026
0
LINE
8
BLACK
6
CONTINUOUS
10
162.16
20
-57.766
11
162.96
21
-58.566
0
LINE
8
BLACK
6
CONTINUOUS
10
162.96
20
-57.766
11
162.16
21
-58.566
0
LINE
8
BLACK
6
CONTINUOUS
10
162.16
20
-60.306
11
162.96
21
-61.106
0
LINE
8
BLACK
6
CONTINUOUS
10
162.96
20
-60.306
11
162.16
21
-61.106
0
LINE
8
BLACK
6
CONTINUOUS
10
162.16
20
-62.846
11
162.96
21
-63.646
0
LINE
8
BLACK
6
CONTINUOUS
10
162.96
20
-62.846
11
162.16
21
-63.646
0
LINE
8
BLACK
6
CONTINUOUS
10
162.16
20
-65.386
11
162.96
21
-66.186
0
LINE
8
BLACK
6
CONTINUOUS
10
162.96
20
-65.386
11
162.16
21
-66.186
0
LINE
8
BLACK
6
CONTINUOUS
10
162.16
20
-67.926
11
162.96
21
-68.726
0
LINE
8
BLACK
6
CONTINUOUS
10
162.96
20
-67.926
11
162.16
21
-68.726
0
CIRCLE
8
BLACK
10
136.27
20
-38.529
40
0.5
0
LINE
8
BLACK
6
CONTINUOUS
10
135.77
20
-37.529
11
135.77
21
-39.529
0
LINE
8
BLACK
6
CONTINUOUS
10
136.77
20
-37.529
11
136.77
21
-39.529
0
ARC
8
BLACK
10
136.27
20
-39.529
40
0.5
50
180
51
360
0
ARC
8
BLACK
10
136.27
20
-37.529
40
0.5
50
0
51
180
0
CIRCLE
8
BLACK
10
140.97
20
-35.529
40
0.5
0
LINE
8
BLACK
6
CONTINUOUS
10
141.97
20
-35.029
11
139.97
21
-35.029
0
LINE
8
BLACK
6
CONTINUOUS
10
141.97
20
-36.029
11
139.97
21
-36.029
0
ARC
8
BLACK
10
139.97
20
-35.529
40
0.5
50
450
51
630
0
ARC
8
BLACK
10
141.97
20
-35.529
40
0.5
50
270
51
450
0
CIRCLE
8
BLACK
10
140.97
20
-41.529
40
0.5
0
LINE
8
BLACK
6
CONTINUOUS
10
141.97
20
-41.029
11
139.97
21
-41.029
0
LINE
8
BLACK
6
CONTINUOUS
10
141.97
20
-42.029
11
139.97
21
-42.029
0
ARC
8
BLACK
10
139.97
20
-41.529
40
0.5
50
450
51
630
0
ARC
8
BLACK
10
141.97
20
-41.529
40
0.5
50
270
51
450
0
LINE
8
BLACK
6
CONTINUOUS
10
169.418
20
-45.501
11
169.418
21
-46.701
0
LINE
8
BLACK
6
CONTINUOUS
10
168.818
20
-46.101
11
170.018
21
-46.101
0
LINE
8
BLACK
6
CONTINUOUS
10
169.418
20
-48.041
11
169.418
21
-49.241
0
LINE
8
BLACK
6
CONTINUOUS
10
168.818
20
-48.641
11
170.018
21
-48.641
0
LINE
8
BLACK
6
CONTINUOUS
10
169.418
20
-50.581
11
169.418
21
-51.781
0
LINE
8
BLACK
6
CONTINUOUS
10
168.818
20
-51.181
11
170.018
21
-51.181
0
LINE
8
BLACK
6
CONTINUOUS
10
169.418
20
-53.121
11
169.418
21
-54.321
0
LINE
8
BLACK
6
CONTINUOUS
10
168.818
20
-53.721
11
170.018
21
-53.721
0
LINE
8
BLACK
6
CONTINUOUS
10
150.241
20
-34.198
11
150.241
21
-35.398
0
LINE
8
BLACK
6
CONTINUOUS
10
149.641
20
-34.798
11
150.841
21
-34.798
0
LINE
8
BLACK
6
CONTINUOUS
10
150.241
20
-36.738
11
150.241
21
-37.938
0
LINE
8
BLACK
6
CONTINUOUS
10
149.641
20
-37.338
11
150.841
21
-37.338
0
LINE
8
BLACK
6
CONTINUOUS
10
186.055
20
-65.186
11
186.055
21
-66.386
0
LINE
8
BLACK
6
CONTINUOUS
10
185.455
20
-65.786
11
186.655
21
-65.786
0
LINE
8
BLACK
6
CONTINUOUS
10
188.595
20
-65.186
11
188.595
21
-66.386
0
LINE
8
BLACK
6
CONTINUOUS
10
187.995
20
-65.786
11
189.195
21
-65.786
0
LINE
8
BLACK
6
CONTINUOUS
10
191.135
20
-65.186
11
191.135
21
-66.386
0
LINE
8
BLACK
6
CONTINUOUS
10
190.535
20
-65.786
11
191.735
21
-65.786
0
LINE
8
BLACK
6
CONTINUOUS
10
185.42
20
-41.818
11
185.42
21
-43.018
0
LINE
8
BLACK
6
CONTINUOUS
10
184.82
20
-42.418
11
186.02
21
-42.418
0
LINE
8
BLACK
6
CONTINUOUS
10
187.96
20
-41.818
11
187.96
21
-43.018
0
LINE
8
BLACK
6
CONTINUOUS
10
187.36
20
-42.418
11
188.56
21
-42.418
0
LINE
8
BLACK
6
CONTINUOUS
10
190.5
20
-41.818
11
190.5
21
-43.018
0
LINE
8
BLACK
6
CONTINUOUS
10
189.9
20
-42.418
11
191.1
21
-42.418
0
LINE
8
BLACK
6
CONTINUOUS
10
193.04
20
-41.818
11
193.04
21
-43.018
0
LINE
8
BLACK
6
CONTINUOUS
10
192.44
20
-42.418
11
193.64
21
-42.418
0
LINE
8
BLACK
6
CONTINUOUS
10
139.065
20
-60.106
11
139.065
21
-61.306
0
LINE
8
BLACK
6
CONTINUOUS
10
138.465
20
-60.706
11
139.665
21
-60.706
0
LINE
8
BLACK
6
CONTINUOUS
10
139.065
20
-62.646
11
139.065
21
-63.846
0
LINE
8
BLACK
6
CONTINUOUS
10
138.465
20
-63.246
11
139.665
21
-63.246
0
LINE
8
BLACK
6
CONTINUOUS
10
139.065
20
-65.186
11
139.065
21
-66.386
0
LINE
8
BLACK
6
CONTINUOUS
10
138.465
20
-65.786
11
139.665
21
-65.786
0
LINE
8
BLACK
6
CONTINUOUS
10
139.065
20
-67.726
11
139.065
21
-68.926
0
LINE
8
BLACK
6
CONTINUOUS
10
138.465
20
-68.326
11
139.665
21
-68.326
0
LINE
8
BLACK
6
CONTINUOUS
10
169.672
20
-57.439
11
169.672
21
-58.639
0
LINE
8
BLACK
6
CONTINUOUS
10
169.072
20
-58.039
11
170.272
21
-58.039
0
LINE
8
BLACK
6
CONTINUOUS
10
169.672
20
-59.979
11
169.672
21
-61.179
0
LINE
8
BLACK
6
CONTINUOUS
10
169.072
20
-60.579
11
170.272
21
-60.579
0
LINE
8
BLACK
6
CONTINUOUS
10
199.771
20
-47.66
11
199.771
21
-48.86
0
LINE
8
BLACK
6
CONTINUOUS
10
199.171
20
-48.26
11
200.371
21
-48.26
0
LINE
8
BLACK
6
CONTINUOUS
10
202.311
20
-47.66
11
202.311
21
-48.86
0
LINE
8
BLACK
6
CONTINUOUS
10
201.711
20
-48.26
11
202.911
21
-48.26
0
LINE
8
BLACK
6
CONTINUOUS
10
204.851
20
-47.66
11
204.851
21
-48.86
0
LINE
8
BLACK
6
CONTINUOUS
10
204.251
20
-48.26
11
205.451
21
-48.26
0
LINE
8
BLACK
6
CONTINUOUS
10
169.672
20
-64.17
11
169.672
21
-65.37
0
LINE
8
BLACK
6
CONTINUOUS
10
169.072
20
-64.77
11
170.272
21
-64.77
0
LINE
8
BLACK
6
CONTINUOUS
10
169.672
20
-66.71
11
169.672
21
-67.91
0
LINE
8
BLACK
6
CONTINUOUS
10
169.072
20
-67.31
11
170.272
21
-67.31
0
LINE
8
BLACK
6
CONTINUOUS
10
201.93
20
-56.169
11
201.93
21
-57.369
0
LINE
8
BLACK
6
CONTINUOUS
10
201.33
20
-56.769
11
202.53
21
-56.769
0
LINE
8
BLACK
6
CONTINUOUS
10
204.47
20
-56.169
11
204.47
21
-57.369
0
LINE
8
BLACK
6
CONTINUOUS
10
203.87
20
-56.769
11
205.07
21
-56.769
0
LINE
8
BLACK
6
CONTINUOUS
10
169.545
20
-33.69
11
169.545
21
-34.89
0
LINE
8
BLACK
6
CONTINUOUS
10
168.945
20
-34.29
11
170.145
21
-34.29
0
LINE
8
BLACK
6
CONTINUOUS
10
169.545
20
-36.23
11
169.545
21
-37.43
0
LINE
8
BLACK
6
CONTINUOUS
10
168.945
20
-36.83
11
170.145
21
-36.83
0
LINE
8
BLACK
6
CONTINUOUS
10
169.545
20
-38.77
11
169.545
21
-39.97
0
LINE
8
BLACK
6
CONTINUOUS
10
168.945
20
-39.37
11
170.145
21
-39.37
0
LINE
8
BLACK
6
CONTINUOUS
10
169.545
20
-41.31
11
169.545
21
-42.51
0
LINE
8
BLACK
6
CONTINUOUS
10
168.945
20
-41.91
11
170.145
21
-41.91
0
LINE
8
BLACK
6
CONTINUOUS
10
134.747
20
-75.473
11
134.747
21
-76.673
0
LINE
8
BLACK
6
CONTINUOUS
10
134.147
20
-76.073
11
135.347
21
-76.073
0
LINE
8
BLACK
6
CONTINUOUS
10
137.287
20
-75.473
11
137.287
21
-76.673
0
LINE
8
BLACK
6
CONTINUOUS
10
136.687
20
-76.073
11
137.887
21
-76.073
0
LINE
8
BLACK
6
CONTINUOUS
10
139.827
20
-75.473
11
139.827
21
-76.673
0
LINE
8
BLACK
6
CONTINUOUS
10
139.227
20
-76.073
11
140.427
21
-76.073
0
LINE
8
BLACK
6
CONTINUOUS
10
142.367
20
-75.473
11
142.367
21
-76.673
0
LINE
8
BLACK
6
CONTINUOUS
10
141.767
20
-76.073
11
142.967
21
-76.073
0
LINE
8
BLACK
6
CONTINUOUS
10
144.907
20
-75.473
11
144.907
21
-76.673
0
LINE
8
BLACK
6
CONTINUOUS
10
144.307
20
-76.073
11
145.507
21
-76.073
0
LINE
8
BLACK
6
CONTINUOUS
10
147.447
20
-75.473
11
147.447
21
-76.673
0
LINE
8
BLACK
6
CONTINUOUS
10
146.847
20
-76.073
11
148.047
21
-76.073
0
LINE
8
BLACK
6
CONTINUOUS
10
149.987
20
-75.473
11
149.987
21
-76.673
0
LINE
8
BLACK
6
CONTINUOUS
10
149.387
20
-76.073
11
150.587
21
-76.073
0
LINE
8
BLACK
6
CONTINUOUS
10
152.527
20
-75.473
11
152.527
21
-76.673
0
LINE
8
BLACK
6
CONTINUOUS
10
151.927
20
-76.073
11
153.127
21
-76.073
0
LINE
8
BLACK
6
CONTINUOUS
10
185.293
20
-34.198
11
185.293
21
-35.398
0
LINE
8
BLACK
6
CONTINUOUS
10
184.693
20
-34.798
11
185.893
21
-34.798
0
LINE
8
BLACK
6
CONTINUOUS
10
187.833
20
-34.198
11
187.833
21
-35.398
0
LINE
8
BLACK
6
CONTINUOUS
10
187.233
20
-34.798
11
188.433
21
-34.798
0
LINE
8
BLACK
6
CONTINUOUS
10
190.373
20
-34.198
11
190.373
21
-35.398
0
LINE
8
BLACK
6
CONTINUOUS
10
189.773
20
-34.798
11
190.973
21
-34.798
0
LINE
8
BLACK
6
CONTINUOUS
10
192.913
20
-34.198
11
192.913
21
-35.398
0
LINE
8
BLACK
6
CONTINUOUS
10
192.313
20
-34.798
11
193.513
21
-34.798
0
LINE
8
BLACK
6
CONTINUOUS
10
201.803
20
-64.932
11
201.803
21
-66.132
0
LINE
8
BLACK
6
CONTINUOUS
10
201.203
20
-65.532
11
202.403
21
-65.532
0
LINE
8
BLACK
6
CONTINUOUS
10
204.343
20
-64.932
11
204.343
21
-66.132
0
LINE
8
BLACK
6
CONTINUOUS
10
203.743
20
-65.532
11
204.943
21
-65.532
0
LINE
8
BLACK
6
CONTINUOUS
10
150.114
20
-40.929
11
150.114
21
-42.129
0
LINE
8
BLACK
6
CONTINUOUS
10
149.514
20
-41.529
11
150.714
21
-41.529
0
LINE
8
BLACK
6
CONTINUOUS
10
150.114
20
-43.469
11
150.114
21
-44.669
0
LINE
8
BLACK
6
CONTINUOUS
10
149.514
20
-44.069
11
150.714
21
-44.069
0
LINE
8
BLACK
6
CONTINUOUS
10
186.055
20
-74.076
11
186.055
21
-75.276
0
LINE
8
BLACK
6
CONTINUOUS
10
185.455
20
-74.676
11
186.655
21
-74.676
0
LINE
8
BLACK
6
CONTINUOUS
10
188.595
20
-74.076
11
188.595
21
-75.276
0
LINE
8
BLACK
6
CONTINUOUS
10
187.995
20
-74.676
11
189.195
21
-74.676
0
LINE
8
BLACK
6
CONTINUOUS
10
191.135
20
-74.076
11
191.135
21
-75.276
0
LINE
8
BLACK
6
CONTINUOUS
10
190.535
20
-74.676
11
191.735
21
-74.676
0
LINE
8
BLACK
6
CONTINUOUS
10
138.938
20
-48.549
11
138.938
21
-49.749
0
LINE
8
BLACK
6
CONTINUOUS
10
138.338
20
-49.149
11
139.538
21
-49.149
0
LINE
8
BLACK
6
CONTINUOUS
10
138.938
20
-51.089
11
138.938
21
-52.289
0
LINE
8
BLACK
6
CONTINUOUS
10
138.338
20
-51.689
11
139.538
21
-51.689
0
LINE
8
BLACK
6
CONTINUOUS
10
138.938
20
-53.629
11
138.938
21
-54.829
0
LINE
8
BLACK
6
CONTINUOUS
10
138.338
20
-54.229
11
139.538
21
-54.229
0
LINE
8
BLACK
6
CONTINUOUS
10
138.938
20
-56.169
11
138.938
21
-57.369
0
LINE
8
BLACK
6
CONTINUOUS
10
138.338
20
-56.769
11
139.538
21
-56.769
0
LINE
8
BLACK
6
CONTINUOUS
10
124.861
20
-85.7331
11
124.861
21
-82.7331
0
LINE
8
BLACK
6
CONTINUOUS
10
124.861
20
-82.7331
11
125.576
21
-82.7331
0
LINE
8
BLACK
6
CONTINUOUS
10
125.576
20
-82.7331
11
126.004
21
-82.876
0
LINE
8
BLACK
6
CONTINUOUS
10
126.004
20
-82.876
11
126.29
21
-83.1617
0
LINE
8
BLACK
6
CONTINUOUS
10
126.29
20
-83.1617
11
126.433
21
-83.4474
0
LINE
8
BLACK
6
CONTINUOUS
10
126.433
20
-83.4474
11
126.576
21
-84.0189
0
LINE
8
BLACK
6
CONTINUOUS
10
126.576
20
-84.0189
11
126.576
21
-84.4474
0
LINE
8
BLACK
6
CONTINUOUS
10
126.576
20
-84.4474
11
126.433
21
-85.0189
0
LINE
8
BLACK
6
CONTINUOUS
10
126.433
20
-85.0189
11
126.29
21
-85.3046
0
LINE
8
BLACK
6
CONTINUOUS
10
126.29
20
-85.3046
11
126.004
21
-85.5903
0
LINE
8
BLACK
6
CONTINUOUS
10
126.004
20
-85.5903
11
125.576
21
-85.7331
0
LINE
8
BLACK
6
CONTINUOUS
10
125.576
20
-85.7331
11
124.861
21
-85.7331
0
LINE
8
BLACK
6
CONTINUOUS
10
127.861
20
-85.7331
11
127.861
21
-83.7331
0
LINE
8
BLACK
6
CONTINUOUS
10
127.861
20
-84.3046
11
128.004
21
-84.0189
0
LINE
8
BLACK
6
CONTINUOUS
10
128.004
20
-84.0189
11
128.147
21
-83.876
0
LINE
8
BLACK
6
CONTINUOUS
10
128.147
20
-83.876
11
128.433
21
-83.7331
0
LINE
8
BLACK
6
CONTINUOUS
10
128.433
20
-83.7331
11
128.718
21
-83.7331
0
LINE
8
BLACK
6
CONTINUOUS
10
129.718
20
-85.7331
11
129.718
21
-83.7331
0
LINE
8
BLACK
6
CONTINUOUS
10
129.718
20
-82.7331
11
129.576
21
-82.876
0
LINE
8
BLACK
6
CONTINUOUS
10
129.576
20
-82.876
11
129.718
21
-83.0189
0
LINE
8
BLACK
6
CONTINUOUS
10
129.718
20
-83.0189
11
129.861
21
-82.876
0
LINE
8
BLACK
6
CONTINUOUS
10
129.861
20
-82.876
11
129.718
21
-82.7331
0
LINE
8
BLACK
6
CONTINUOUS
10
129.718
20
-82.7331
11
129.718
21
-83.0189
0
LINE
8
BLACK
6
CONTINUOUS
10
131.576
20
-85.7331
11
131.29
21
-85.5903
0
LINE
8
BLACK
6
CONTINUOUS
10
131.29
20
-85.5903
11
131.147
21
-85.3046
0
LINE
8
BLACK
6
CONTINUOUS
10
131.147
20
-85.3046
11
131.147
21
-82.7331
0
LINE
8
BLACK
6
CONTINUOUS
10
133.147
20
-85.7331
11
132.861
21
-85.5903
0
LINE
8
BLACK
6
CONTINUOUS
10
132.861
20
-85.5903
11
132.718
21
-85.3046
0
LINE
8
BLACK
6
CONTINUOUS
10
132.718
20
-85.3046
11
132.718
21
-82.7331
0
LINE
8
BLACK
6
CONTINUOUS
10
136.576
20
-85.7331
11
136.576
21
-82.7331
0
LINE
8
BLACK
6
CONTINUOUS
10
136.576
20
-82.7331
11
137.576
21
-84.876
0
LINE
8
BLACK
6
CONTINUOUS
10
137.576
20
-84.876
11
138.576
21
-82.7331
0
LINE
8
BLACK
6
CONTINUOUS
10
138.576
20
-82.7331
11
138.576
21
-85.7331
0
LINE
8
BLACK
6
CONTINUOUS
10
141.29
20
-85.7331
11
141.29
21
-84.1617
0
LINE
8
BLACK
6
CONTINUOUS
10
141.29
20
-84.1617
11
141.147
21
-83.876
0
LINE
8
BLACK
6
CONTINUOUS
10
141.147
20
-83.876
11
140.861
21
-83.7331
0
LINE
8
BLACK
6
CONTINUOUS
10
140.861
20
-83.7331
11
140.29
21
-83.7331
0
LINE
8
BLACK
6
CONTINUOUS
10
140.29
20
-83.7331
11
140.004
21
-83.876
0
LINE
8
BLACK
6
CONTINUOUS
10
141.29
20
-85.5903
11
141.004
21
-85.7331
0
LINE
8
BLACK
6
CONTINUOUS
10
141.004
20
-85.7331
11
140.29
21
-85.7331
0
LINE
8
BLACK
6
CONTINUOUS
10
140.29
20
-85.7331
11
140.004
21
-85.5903
0
LINE
8
BLACK
6
CONTINUOUS
10
140.004
20
-85.5903
11
139.861
21
-85.3046
0
LINE
8
BLACK
6
CONTINUOUS
10
139.861
20
-85.3046
11
139.861
21
-85.0189
0
LINE
8
BLACK
6
CONTINUOUS
10
139.861
20
-85.0189
11
140.004
21
-84.7331
0
LINE
8
BLACK
6
CONTINUOUS
10
140.004
20
-84.7331
11
140.29
21
-84.5903
0
LINE
8
BLACK
6
CONTINUOUS
10
140.29
20
-84.5903
11
141.004
21
-84.5903
0
LINE
8
BLACK
6
CONTINUOUS
10
141.004
20
-84.5903
11
141.29
21
-84.4474
0
LINE
8
BLACK
6
CONTINUOUS
10
142.718
20
-83.7331
11
142.718
21
-86.7331
0
LINE
8
BLACK
6
CONTINUOUS
10
142.718
20
-83.876
11
143.004
21
-83.7331
0
LINE
8
BLACK
6
CONTINUOUS
10
143.004
20
-83.7331
11
143.576
21
-83.7331
0
LINE
8
BLACK
6
CONTINUOUS
10
143.576
20
-83.7331
11
143.861
21
-83.876
0
LINE
8
BLACK
6
CONTINUOUS
10
143.861
20
-83.876
11
144.004
21
-84.0189
0
LINE
8
BLACK
6
CONTINUOUS
10
144.004
20
-84.0189
11
144.147
21
-84.3046
0
LINE
8
BLACK
6
CONTINUOUS
10
144.147
20
-84.3046
11
144.147
21
-85.1617
0
LINE
8
BLACK
6
CONTINUOUS
10
144.147
20
-85.1617
11
144.004
21
-85.4474
0
LINE
8
BLACK
6
CONTINUOUS
10
144.004
20
-85.4474
11
143.861
21
-85.5903
0
LINE
8
BLACK
6
CONTINUOUS
10
143.861
20
-85.5903
11
143.576
21
-85.7331
0
LINE
8
BLACK
6
CONTINUOUS
10
143.576
20
-85.7331
11
143.004
21
-85.7331
0
LINE
8
BLACK
6
CONTINUOUS
10
143.004
20
-85.7331
11
142.718
21
-85.5903
0
LINE
8
BLACK
6
CONTINUOUS
10
145.433
20
-85.4474
11
145.576
21
-85.5903
0
LINE
8
BLACK
6
CONTINUOUS
10
145.576
20
-85.5903
11
145.433
21
-85.7331
0
LINE
8
BLACK
6
CONTINUOUS
10
145.433
20
-85.7331
11
145.29
21
-85.5903
0
LINE
8
BLACK
6
CONTINUOUS
10
145.29
20
-85.5903
11
145.433
21
-85.4474
0
LINE
8
BLACK
6
CONTINUOUS
10
145.433
20
-85.4474
11
145.433
21
-85.7331
0
LINE
8
BLACK
6
CONTINUOUS
10
145.433
20
-83.876
11
145.576
21
-84.0189
0
LINE
8
BLACK
6
CONTINUOUS
10
145.576
20
-84.0189
11
145.433
21
-84.1617
0
LINE
8
BLACK
6
CONTINUOUS
10
145.433
20
-84.1617
11
145.29
21
-84.0189
0
LINE
8
BLACK
6
CONTINUOUS
10
145.29
20
-84.0189
11
145.433
21
-83.876
0
LINE
8
BLACK
6
CONTINUOUS
10
145.433
20
-83.876
11
145.433
21
-84.1617
0
LINE
8
BLACK
6
CONTINUOUS
10
121.197
20
-90.276
11
121.997
21
-91.076
0
LINE
8
BLACK
6
CONTINUOUS
10
121.997
20
-90.276
11
121.197
21
-91.076
0
LINE
8
BLACK
6
CONTINUOUS
10
125.433
20
-89.0331
11
125.718
21
-89.0331
0
LINE
8
BLACK
6
CONTINUOUS
10
125.718
20
-89.0331
11
126.004
21
-89.176
0
LINE
8
BLACK
6
CONTINUOUS
10
126.004
20
-89.176
11
126.147
21
-89.3189
0
LINE
8
BLACK
6
CONTINUOUS
10
126.147
20
-89.3189
11
126.29
21
-89.6046
0
LINE
8
BLACK
6
CONTINUOUS
10
126.29
20
-89.6046
11
126.433
21
-90.176
0
LINE
8
BLACK
6
CONTINUOUS
10
126.433
20
-90.176
11
126.433
21
-90.8903
0
LINE
8
BLACK
6
CONTINUOUS
10
126.433
20
-90.8903
11
126.29
21
-91.4617
0
LINE
8
BLACK
6
CONTINUOUS
10
126.29
20
-91.4617
11
126.147
21
-91.7474
0
LINE
8
BLACK
6
CONTINUOUS
10
126.147
20
-91.7474
11
126.004
21
-91.8903
0
LINE
8
BLACK
6
CONTINUOUS
10
126.004
20
-91.8903
11
125.718
21
-92.0331
0
LINE
8
BLACK
6
CONTINUOUS
10
125.718
20
-92.0331
11
125.433
21
-92.0331
0
LINE
8
BLACK
6
CONTINUOUS
10
125.433
20
-92.0331
11
125.147
21
-91.8903
0
LINE
8
BLACK
6
CONTINUOUS
10
125.147
20
-91.8903
11
125.004
21
-91.7474
0
LINE
8
BLACK
6
CONTINUOUS
10
125.004
20
-91.7474
11
124.861
21
-91.4617
0
LINE
8
BLACK
6
CONTINUOUS
10
124.861
20
-91.4617
11
124.718
21
-90.8903
0
LINE
8
BLACK
6
CONTINUOUS
10
124.718
20
-90.8903
11
124.718
21
-90.176
0
LINE
8
BLACK
6
CONTINUOUS
10
124.718
20
-90.176
11
124.861
21
-89.6046
0
LINE
8
BLACK
6
CONTINUOUS
10
124.861
20
-89.6046
11
125.004
21
-89.3189
0
LINE
8
BLACK
6
CONTINUOUS
10
125.004
20
-89.3189
11
125.147
21
-89.176
0
LINE
8
BLACK
6
CONTINUOUS
10
125.147
20
-89.176
11
125.433
21
-89.0331
0
LINE
8
BLACK
6
CONTINUOUS
10
127.718
20
-91.7474
11
127.861
21
-91.8903
0
LINE
8
BLACK
6
CONTINUOUS
10
127.861
20
-91.8903
11
127.718
21
-92.0331
0
LINE
8
BLACK
6
CONTINUOUS
10
127.718
20
-92.0331
11
127.576
21
-91.8903
0
LINE
8
BLACK
6
CONTINUOUS
10
127.576
20
-91.8903
11
127.718
21
-91.7474
0
LINE
8
BLACK
6
CONTINUOUS
10
127.718
20
-91.7474
11
127.718
21
-92.0331
0
LINE
8
BLACK
6
CONTINUOUS
10
129.576
20
-90.3189
11
129.29
21
-90.176
0
LINE
8
BLACK
6
CONTINUOUS
10
129.29
20
-90.176
11
129.147
21
-90.0331
0
LINE
8
BLACK
6
CONTINUOUS
10
129.147
20
-90.0331
11
129.004
21
-89.7474
0
LINE
8
BLACK
6
CONTINUOUS
10
129.004
20
-89.7474
11
129.004
21
-89.6046
0
LINE
8
BLACK
6
CONTINUOUS
10
129.004
20
-89.6046
11
129.147
21
-89.3189
0
LINE
8
BLACK
6
CONTINUOUS
10
129.147
20
-89.3189
11
129.29
21
-89.176
0
LINE
8
BLACK
6
CONTINUOUS
10
129.29
20
-89.176
11
129.576
21
-89.0331
0
LINE
8
BLACK
6
CONTINUOUS
10
129.576
20
-89.0331
11
130.147
21
-89.0331
0
LINE
8
BLACK
6
CONTINUOUS
10
130.147
20
-89.0331
11
130.433
21
-89.176
0
LINE
8
BLACK
6
CONTINUOUS
10
130.433
20
-89.176
11
130.576
21
-89.3189
0
LINE
8
BLACK
6
CONTINUOUS
10
130.576
20
-89.3189
11
130.718
21
-89.6046
0
LINE
8
BLACK
6
CONTINUOUS
10
130.718
20
-89.6046
11
130.718
21
-89.7474
0
LINE
8
BLACK
6
CONTINUOUS
10
130.718
20
-89.7474
11
130.576
21
-90.0331
0
LINE
8
BLACK
6
CONTINUOUS
10
130.576
20
-90.0331
11
130.433
21
-90.176
0
LINE
8
BLACK
6
CONTINUOUS
10
130.433
20
-90.176
11
130.147
21
-90.3189
0
LINE
8
BLACK
6
CONTINUOUS
10
130.147
20
-90.3189
11
129.576
21
-90.3189
0
LINE
8
BLACK
6
CONTINUOUS
10
129.576
20
-90.3189
11
129.29
21
-90.4617
0
LINE
8
BLACK
6
CONTINUOUS
10
129.29
20
-90.4617
11
129.147
21
-90.6046
0
LINE
8
BLACK
6
CONTINUOUS
10
129.147
20
-90.6046
11
129.004
21
-90.8903
0
LINE
8
BLACK
6
CONTINUOUS
10
129.004
20
-90.8903
11
129.004
21
-91.4617
0
LINE
8
BLACK
6
CONTINUOUS
10
129.004
20
-91.4617
11
129.147
21
-91.7474
0
LINE
8
BLACK
6
CONTINUOUS
10
129.147
20
-91.7474
11
129.29
21
-91.8903
0
LINE
8
BLACK
6
CONTINUOUS
10
129.29
20
-91.8903
11
129.576
21
-92.0331
0
LINE
8
BLACK
6
CONTINUOUS
10
129.576
20
-92.0331
11
130.147
21
-92.0331
0
LINE
8
BLACK
6
CONTINUOUS
10
130.147
20
-92.0331
11
130.433
21
-91.8903
0
LINE
8
BLACK
6
CONTINUOUS
10
130.433
20
-91.8903
11
130.576
21
-91.7474
0
LINE
8
BLACK
6
CONTINUOUS
10
130.576
20
-91.7474
11
130.718
21
-91.4617
0
LINE
8
BLACK
6
CONTINUOUS
10
130.718
20
-91.4617
11
130.718
21
-90.8903
0
LINE
8
BLACK
6
CONTINUOUS
10
130.718
20
-90.8903
11
130.576
21
-90.6046
0
LINE
8
BLACK
6
CONTINUOUS
10
130.576
20
-90.6046
11
130.433
21
-90.4617
0
LINE
8
BLACK
6
CONTINUOUS
10
130.433
20
-90.4617
11
130.147
21
-90.3189
0
LINE
8
BLACK
6
CONTINUOUS
10
132.576
20
-89.0331
11
132.861
21
-89.0331
0
LINE
8
BLACK
6
CONTINUOUS
10
132.861
20
-89.0331
11
133.147
21
-89.176
0
LINE
8
BLACK
6
CONTINUOUS
10
133.147
20
-89.176
11
133.29
21
-89.3189
0
LINE
8
BLACK
6
CONTINUOUS
10
133.29
20
-89.3189
11
133.433
21
-89.6046
0
LINE
8
BLACK
6
CONTINUOUS
10
133.433
20
-89.6046
11
133.576
21
-90.176
0
LINE
8
BLACK
6
CONTINUOUS
10
133.576
20
-90.176
11
133.576
21
-90.8903
0
LINE
8
BLACK
6
CONTINUOUS
10
133.576
20
-90.8903
11
133.433
21
-91.4617
0
LINE
8
BLACK
6
CONTINUOUS
10
133.433
20
-91.4617
11
133.29
21
-91.7474
0
LINE
8
BLACK
6
CONTINUOUS
10
133.29
20
-91.7474
11
133.147
21
-91.8903
0
LINE
8
BLACK
6
CONTINUOUS
10
133.147
20
-91.8903
11
132.861
21
-92.0331
0
LINE
8
BLACK
6
CONTINUOUS
10
132.861
20
-92.0331
11
132.576
21
-92.0331
0
LINE
8
BLACK
6
CONTINUOUS
10
132.576
20
-92.0331
11
132.29
21
-91.8903
0
LINE
8
BLACK
6
CONTINUOUS
10
132.29
20
-91.8903
11
132.147
21
-91.7474
0
LINE
8
BLACK
6
CONTINUOUS
10
132.147
20
-91.7474
11
132.004
21
-91.4617
0
LINE
8
BLACK
6
CONTINUOUS
10
132.004
20
-91.4617
11
131.861
21
-90.8903
0
LINE
8
BLACK
6
CONTINUOUS
10
131.861
20
-90.8903
11
131.861
21
-90.176
0
LINE
8
BLACK
6
CONTINUOUS
10
131.861
20
-90.176
11
132.004
21
-89.6046
0
LINE
8
BLACK
6
CONTINUOUS
10
132.004
20
-89.6046
11
132.147
21
-89.3189
0
LINE
8
BLACK
6
CONTINUOUS
10
132.147
20
-89.3189
11
132.29
21
-89.176
0
LINE
8
BLACK
6
CONTINUOUS
10
132.29
20
-89.176
11
132.576
21
-89.0331
0
LINE
8
BLACK
6
CONTINUOUS
10
134.861
20
-92.0331
11
134.861
21
-90.0331
0
LINE
8
BLACK
6
CONTINUOUS
10
134.861
20
-90.3189
11
135.004
21
-90.176
0
LINE
8
BLACK
6
CONTINUOUS
10
135.004
20
-90.176
11
135.29
21
-90.0331
0
LINE
8
BLACK
6
CONTINUOUS
10
135.29
20
-90.0331
11
135.718
21
-90.0331
0
LINE
8
BLACK
6
CONTINUOUS
10
135.718
20
-90.0331
11
136.004
21
-90.176
0
LINE
8
BLACK
6
CONTINUOUS
10
136.004
20
-90.176
11
136.147
21
-90.4617
0
LINE
8
BLACK
6
CONTINUOUS
10
136.147
20
-90.4617
11
136.147
21
-92.0331
0
LINE
8
BLACK
6
CONTINUOUS
10
136.147
20
-90.4617
11
136.29
21
-90.176
0
LINE
8
BLACK
6
CONTINUOUS
10
136.29
20
-90.176
11
136.576
21
-90.0331
0
LINE
8
BLACK
6
CONTINUOUS
10
136.576
20
-90.0331
11
137.004
21
-90.0331
0
LINE
8
BLACK
6
CONTINUOUS
10
137.004
20
-90.0331
11
137.29
21
-90.176
0
LINE
8
BLACK
6
CONTINUOUS
10
137.29
20
-90.176
11
137.433
21
-90.4617
0
LINE
8
BLACK
6
CONTINUOUS
10
137.433
20
-90.4617
11
137.433
21
-92.0331
0
LINE
8
BLACK
6
CONTINUOUS
10
138.861
20
-92.0331
11
138.861
21
-90.0331
0
LINE
8
BLACK
6
CONTINUOUS
10
138.861
20
-90.3189
11
139.004
21
-90.176
0
LINE
8
BLACK
6
CONTINUOUS
10
139.004
20
-90.176
11
139.29
21
-90.0331
0
LINE
8
BLACK
6
CONTINUOUS
10
139.29
20
-90.0331
11
139.718
21
-90.0331
0
LINE
8
BLACK
6
CONTINUOUS
10
139.718
20
-90.0331
11
140.004
21
-90.176
0
LINE
8
BLACK
6
CONTINUOUS
10
140.004
20
-90.176
11
140.147
21
-90.4617
0
LINE
8
BLACK
6
CONTINUOUS
10
140.147
20
-90.4617
11
140.147
21
-92.0331
0
LINE
8
BLACK
6
CONTINUOUS
10
140.147
20
-90.4617
11
140.29
21
-90.176
0
LINE
8
BLACK
6
CONTINUOUS
10
140.29
20
-90.176
11
140.576
21
-90.0331
0
LINE
8
BLACK
6
CONTINUOUS
10
140.576
20
-90.0331
11
141.004
21
-90.0331
0
LINE
8
BLACK
6
CONTINUOUS
10
141.004
20
-90.0331
11
141.29
21
-90.176
0
LINE
8
BLACK
6
CONTINUOUS
10
141.29
20
-90.176
11
141.433
21
-90.4617
0
LINE
8
BLACK
6
CONTINUOUS
10
141.433
20
-90.4617
11
141.433
21
-92.0331
0
LINE
8
BLACK
6
CONTINUOUS
10
147.29
20
-88.8903
11
144.718
21
-92.7474
0
LINE
8
BLACK
6
CONTINUOUS
10
151.147
20
-89.0331
11
151.433
21
-89.0331
0
LINE
8
BLACK
6
CONTINUOUS
10
151.433
20
-89.0331
11
151.718
21
-89.176
0
LINE
8
BLACK
6
CONTINUOUS
10
151.718
20
-89.176
11
151.861
21
-89.3189
0
LINE
8
BLACK
6
CONTINUOUS
10
151.861
20
-89.3189
11
152.004
21
-89.6046
0
LINE
8
BLACK
6
CONTINUOUS
10
152.004
20
-89.6046
11
152.147
21
-90.176
0
LINE
8
BLACK
6
CONTINUOUS
10
152.147
20
-90.176
11
152.147
21
-90.8903
0
LINE
8
BLACK
6
CONTINUOUS
10
152.147
20
-90.8903
11
152.004
21
-91.4617
0
LINE
8
BLACK
6
CONTINUOUS
10
152.004
20
-91.4617
11
151.861
21
-91.7474
0
LINE
8
BLACK
6
CONTINUOUS
10
151.861
20
-91.7474
11
151.718
21
-91.8903
0
LINE
8
BLACK
6
CONTINUOUS
10
151.718
20
-91.8903
11
151.433
21
-92.0331
0
LINE
8
BLACK
6
CONTINUOUS
10
151.433
20
-92.0331
11
151.147
21
-92.0331
0
LINE
8
BLACK
6
CONTINUOUS
10
151.147
20
-92.0331
11
150.861
21
-91.8903
0
LINE
8
BLACK
6
CONTINUOUS
10
150.861
20
-91.8903
11
150.718
21
-91.7474
0
LINE
8
BLACK
6
CONTINUOUS
10
150.718
20
-91.7474
11
150.576
21
-91.4617
0
LINE
8
BLACK
6
CONTINUOUS
10
150.576
20
-91.4617
11
150.433
21
-90.8903
0
LINE
8
BLACK
6
CONTINUOUS
10
150.433
20
-90.8903
11
150.433
21
-90.176
0
LINE
8
BLACK
6
CONTINUOUS
10
150.433
20
-90.176
11
150.576
21
-89.6046
0
LINE
8
BLACK
6
CONTINUOUS
10
150.576
20
-89.6046
11
150.718
21
-89.3189
0
LINE
8
BLACK
6
CONTINUOUS
10
150.718
20
-89.3189
11
150.861
21
-89.176
0
LINE
8
BLACK
6
CONTINUOUS
10
150.861
20
-89.176
11
151.147
21
-89.0331
0
LINE
8
BLACK
6
CONTINUOUS
10
153.433
20
-91.7474
11
153.576
21
-91.8903
0
LINE
8
BLACK
6
CONTINUOUS
10
153.576
20
-91.8903
11
153.433
21
-92.0331
0
LINE
8
BLACK
6
CONTINUOUS
10
153.433
20
-92.0331
11
153.29
21
-91.8903
0
LINE
8
BLACK
6
CONTINUOUS
10
153.29
20
-91.8903
11
153.433
21
-91.7474
0
LINE
8
BLACK
6
CONTINUOUS
10
153.433
20
-91.7474
11
153.433
21
-92.0331
0
LINE
8
BLACK
6
CONTINUOUS
10
155.433
20
-89.0331
11
155.718
21
-89.0331
0
LINE
8
BLACK
6
CONTINUOUS
10
155.718
20
-89.0331
11
156.004
21
-89.176
0
LINE
8
BLACK
6
CONTINUOUS
10
156.004
20
-89.176
11
156.147
21
-89.3189
0
LINE
8
BLACK
6
CONTINUOUS
10
156.147
20
-89.3189
11
156.29
21
-89.6046
0
LINE
8
BLACK
6
CONTINUOUS
10
156.29
20
-89.6046
11
156.433
21
-90.176
0
LINE
8
BLACK
6
CONTINUOUS
10
156.433
20
-90.176
11
156.433
21
-90.8903
0
LINE
8
BLACK
6
CONTINUOUS
10
156.433
20
-90.8903
11
156.29
21
-91.4617
0
LINE
8
BLACK
6
CONTINUOUS
10
156.29
20
-91.4617
11
156.147
21
-91.7474
0
LINE
8
BLACK
6
CONTINUOUS
10
156.147
20
-91.7474
11
156.004
21
-91.8903
0
LINE
8
BLACK
6
CONTINUOUS
10
156.004
20
-91.8903
11
155.718
21
-92.0331
0
LINE
8
BLACK
6
CONTINUOUS
10
155.718
20
-92.0331
11
155.433
21
-92.0331
0
LINE
8
BLACK
6
CONTINUOUS
10
155.433
20
-92.0331
11
155.147
21
-91.8903
0
LINE
8
BLACK
6
CONTINUOUS
10
155.147
20
-91.8903
11
155.004
21
-91.7474
0
LINE
8
BLACK
6
CONTINUOUS
10
155.004
20
-91.7474
11
154.861
21
-91.4617
0
LINE
8
BLACK
6
CONTINUOUS
10
154.861
20
-91.4617
11
154.718
21
-90.8903
0
LINE
8
BLACK
6
CONTINUOUS
10
154.718
20
-90.8903
11
154.718
21
-90.176
0
LINE
8
BLACK
6
CONTINUOUS
10
154.718
20
-90.176
11
154.861
21
-89.6046
0
LINE
8
BLACK
6
CONTINUOUS
10
154.861
20
-89.6046
11
155.004
21
-89.3189
0
LINE
8
BLACK
6
CONTINUOUS
10
155.004
20
-89.3189
11
155.147
21
-89.176
0
LINE
8
BLACK
6
CONTINUOUS
10
155.147
20
-89.176
11
155.433
21
-89.0331
0
LINE
8
BLACK
6
CONTINUOUS
10
157.433
20
-89.0331
11
159.29
21
-89.0331
0
LINE
8
BLACK
6
CONTINUOUS
10
159.29
20
-89.0331
11
158.29
21
-90.176
0
LINE
8
BLACK
6
CONTINUOUS
10
158.29
20
-90.176
11
158.718
21
-90.176
0
LINE
8
BLACK
6
CONTINUOUS
10
158.718
20
-90.176
11
159.004
21
-90.3189
0
LINE
8
BLACK
6
CONTINUOUS
10
159.004
20
-90.3189
11
159.147
21
-90.4617
0
LINE
8
BLACK
6
CONTINUOUS
10
159.147
20
-90.4617
11
159.29
21
-90.7474
0
LINE
8
BLACK
6
CONTINUOUS
10
159.29
20
-90.7474
11
159.29
21
-91.4617
0
LINE
8
BLACK
6
CONTINUOUS
10
159.29
20
-91.4617
11
159.147
21
-91.7474
0
LINE
8
BLACK
6
CONTINUOUS
10
159.147
20
-91.7474
11
159.004
21
-91.8903
0
LINE
8
BLACK
6
CONTINUOUS
10
159.004
20
-91.8903
11
158.718
21
-92.0331
0
LINE
8
BLACK
6
CONTINUOUS
10
158.718
20
-92.0331
11
157.861
21
-92.0331
0
LINE
8
BLACK
6
CONTINUOUS
10
157.861
20
-92.0331
11
157.576
21
-91.8903
0
LINE
8
BLACK
6
CONTINUOUS
10
157.576
20
-91.8903
11
157.433
21
-91.7474
0
LINE
8
BLACK
6
CONTINUOUS
10
162.147
20
-92.0331
11
160.433
21
-92.0331
0
LINE
8
BLACK
6
CONTINUOUS
10
161.29
20
-92.0331
11
161.29
21
-89.0331
0
LINE
8
BLACK
6
CONTINUOUS
10
161.29
20
-89.0331
11
161.004
21
-89.4617
0
LINE
8
BLACK
6
CONTINUOUS
10
161.004
20
-89.4617
11
160.718
21
-89.7474
0
LINE
8
BLACK
6
CONTINUOUS
10
160.718
20
-89.7474
11
160.433
21
-89.8903
0
LINE
8
BLACK
6
CONTINUOUS
10
163.29
20
-89.0331
11
163.29
21
-89.6046
0
LINE
8
BLACK
6
CONTINUOUS
10
164.433
20
-89.0331
11
164.433
21
-89.6046
0
LINE
8
BLACK
6
CONTINUOUS
10
168.861
20
-93.176
11
168.718
21
-93.0331
0
LINE
8
BLACK
6
CONTINUOUS
10
168.718
20
-93.0331
11
168.433
21
-92.6046
0
LINE
8
BLACK
6
CONTINUOUS
10
168.433
20
-92.6046
11
168.29
21
-92.3189
0
LINE
8
BLACK
6
CONTINUOUS
10
168.29
20
-92.3189
11
168.147
21
-91.8903
0
LINE
8
BLACK
6
CONTINUOUS
10
168.147
20
-91.8903
11
168.004
21
-91.176
0
LINE
8
BLACK
6
CONTINUOUS
10
168.004
20
-91.176
11
168.004
21
-90.6046
0
LINE
8
BLACK
6
CONTINUOUS
10
168.004
20
-90.6046
11
168.147
21
-89.8903
0
LINE
8
BLACK
6
CONTINUOUS
10
168.147
20
-89.8903
11
168.29
21
-89.4617
0
LINE
8
BLACK
6
CONTINUOUS
10
168.29
20
-89.4617
11
168.433
21
-89.176
0
LINE
8
BLACK
6
CONTINUOUS
10
168.433
20
-89.176
11
168.718
21
-88.7474
0
LINE
8
BLACK
6
CONTINUOUS
10
168.718
20
-88.7474
11
168.861
21
-88.6046
0
LINE
8
BLACK
6
CONTINUOUS
10
169.718
20
-89.0331
11
171.576
21
-89.0331
0
LINE
8
BLACK
6
CONTINUOUS
10
171.576
20
-89.0331
11
170.576
21
-90.176
0
LINE
8
BLACK
6
CONTINUOUS
10
170.576
20
-90.176
11
171.004
21
-90.176
0
LINE
8
BLACK
6
CONTINUOUS
10
171.004
20
-90.176
11
171.29
21
-90.3189
0
LINE
8
BLACK
6
CONTINUOUS
10
171.29
20
-90.3189
11
171.433
21
-90.4617
0
LINE
8
BLACK
6
CONTINUOUS
10
171.433
20
-90.4617
11
171.576
21
-90.7474
0
LINE
8
BLACK
6
CONTINUOUS
10
171.576
20
-90.7474
11
171.576
21
-91.4617
0
LINE
8
BLACK
6
CONTINUOUS
10
171.576
20
-91.4617
11
171.433
21
-91.7474
0
LINE
8
BLACK
6
CONTINUOUS
10
171.433
20
-91.7474
11
171.29
21
-91.8903
0
LINE
8
BLACK
6
CONTINUOUS
10
171.29
20
-91.8903
11
171.004
21
-92.0331
0
LINE
8
BLACK
6
CONTINUOUS
10
171.004
20
-92.0331
11
170.147
21
-92.0331
0
LINE
8
BLACK
6
CONTINUOUS
10
170.147
20
-92.0331
11
169.861
21
-91.8903
0
LINE
8
BLACK
6
CONTINUOUS
10
169.861
20
-91.8903
11
169.718
21
-91.7474
0
LINE
8
BLACK
6
CONTINUOUS
10
172.718
20
-89.3189
11
172.861
21
-89.176
0
LINE
8
BLACK
6
CONTINUOUS
10
172.861
20
-89.176
11
173.147
21
-89.0331
0
LINE
8
BLACK
6
CONTINUOUS
10
173.147
20
-89.0331
11
173.861
21
-89.0331
0
LINE
8
BLACK
6
CONTINUOUS
10
173.861
20
-89.0331
11
174.147
21
-89.176
0
LINE
8
BLACK
6
CONTINUOUS
10
174.147
20
-89.176
11
174.29
21
-89.3189
0
LINE
8
BLACK
6
CONTINUOUS
10
174.29
20
-89.3189
11
174.433
21
-89.6046
0
LINE
8
BLACK
6
CONTINUOUS
10
174.433
20
-89.6046
11
174.433
21
-89.8903
0
LINE
8
BLACK
6
CONTINUOUS
10
174.433
20
-89.8903
11
174.29
21
-90.3189
0
LINE
8
BLACK
6
CONTINUOUS
10
174.29
20
-90.3189
11
172.576
21
-92.0331
0
LINE
8
BLACK
6
CONTINUOUS
10
172.576
20
-92.0331
11
174.433
21
-92.0331
0
LINE
8
BLACK
6
CONTINUOUS
10
178.004
20
-92.0331
11
178.004
21
-89.0331
0
LINE
8
BLACK
6
CONTINUOUS
10
179.29
20
-92.0331
11
179.29
21
-90.4617
0
LINE
8
BLACK
6
CONTINUOUS
10
179.29
20
-90.4617
11
179.147
21
-90.176
0
LINE
8
BLACK
6
CONTINUOUS
10
179.147
20
-90.176
11
178.861
21
-90.0331
0
LINE
8
BLACK
6
CONTINUOUS
10
178.861
20
-90.0331
11
178.433
21
-90.0331
0
LINE
8
BLACK
6
CONTINUOUS
10
178.433
20
-90.0331
11
178.147
21
-90.176
0
LINE
8
BLACK
6
CONTINUOUS
10
178.147
20
-90.176
11
178.004
21
-90.3189
0
LINE
8
BLACK
6
CONTINUOUS
10
181.147
20
-92.0331
11
180.861
21
-91.8903
0
LINE
8
BLACK
6
CONTINUOUS
10
180.861
20
-91.8903
11
180.718
21
-91.7474
0
LINE
8
BLACK
6
CONTINUOUS
10
180.718
20
-91.7474
11
180.576
21
-91.4617
0
LINE
8
BLACK
6
CONTINUOUS
10
180.576
20
-91.4617
11
180.576
21
-90.6046
0
LINE
8
BLACK
6
CONTINUOUS
10
180.576
20
-90.6046
11
180.718
21
-90.3189
0
LINE
8
BLACK
6
CONTINUOUS
10
180.718
20
-90.3189
11
180.861
21
-90.176
0
LINE
8
BLACK
6
CONTINUOUS
10
180.861
20
-90.176
11
181.147
21
-90.0331
0
LINE
8
BLACK
6
CONTINUOUS
10
181.147
20
-90.0331
11
181.576
21
-90.0331
0
LINE
8
BLACK
6
CONTINUOUS
10
181.576
20
-90.0331
11
181.861
21
-90.176
0
LINE
8
BLACK
6
CONTINUOUS
10
181.861
20
-90.176
11
182.004
21
-90.3189
0
LINE
8
BLACK
6
CONTINUOUS
10
182.004
20
-90.3189
11
182.147
21
-90.6046
0
LINE
8
BLACK
6
CONTINUOUS
10
182.147
20
-90.6046
11
182.147
21
-91.4617
0
LINE
8
BLACK
6
CONTINUOUS
10
182.147
20
-91.4617
11
182.004
21
-91.7474
0
LINE
8
BLACK
6
CONTINUOUS
10
182.004
20
-91.7474
11
181.861
21
-91.8903
0
LINE
8
BLACK
6
CONTINUOUS
10
181.861
20
-91.8903
11
181.576
21
-92.0331
0
LINE
8
BLACK
6
CONTINUOUS
10
181.576
20
-92.0331
11
181.147
21
-92.0331
0
LINE
8
BLACK
6
CONTINUOUS
10
183.861
20
-92.0331
11
183.576
21
-91.8903
0
LINE
8
BLACK
6
CONTINUOUS
10
183.576
20
-91.8903
11
183.433
21
-91.6046
0
LINE
8
BLACK
6
CONTINUOUS
10
183.433
20
-91.6046
11
183.433
21
-89.0331
0
LINE
8
BLACK
6
CONTINUOUS
10
186.147
20
-91.8903
11
185.861
21
-92.0331
0
LINE
8
BLACK
6
CONTINUOUS
10
185.861
20
-92.0331
11
185.29
21
-92.0331
0
LINE
8
BLACK
6
CONTINUOUS
10
185.29
20
-92.0331
11
185.004
21
-91.8903
0
LINE
8
BLACK
6
CONTINUOUS
10
185.004
20
-91.8903
11
184.861
21
-91.6046
0
LINE
8
BLACK
6
CONTINUOUS
10
184.861
20
-91.6046
11
184.861
21
-90.4617
0
LINE
8
BLACK
6
CONTINUOUS
10
184.861
20
-90.4617
11
185.004
21
-90.176
0
LINE
8
BLACK
6
CONTINUOUS
10
185.004
20
-90.176
11
185.29
21
-90.0331
0
LINE
8
BLACK
6
CONTINUOUS
10
185.29
20
-90.0331
11
185.861
21
-90.0331
0
LINE
8
BLACK
6
CONTINUOUS
10
185.861
20
-90.0331
11
186.147
21
-90.176
0
LINE
8
BLACK
6
CONTINUOUS
10
186.147
20
-90.176
11
186.29
21
-90.4617
0
LINE
8
BLACK
6
CONTINUOUS
10
186.29
20
-90.4617
11
186.29
21
-90.7474
0
LINE
8
BLACK
6
CONTINUOUS
10
186.29
20
-90.7474
11
184.861
21
-91.0331
0
LINE
8
BLACK
6
CONTINUOUS
10
187.433
20
-91.8903
11
187.718
21
-92.0331
0
LINE
8
BLACK
6
CONTINUOUS
10
187.718
20
-92.0331
11
188.29
21
-92.0331
0
LINE
8
BLACK
6
CONTINUOUS
10
188.29
20
-92.0331
11
188.576
21
-91.8903
0
LINE
8
BLACK
6
CONTINUOUS
10
188.576
20
-91.8903
11
188.718
21
-91.6046
0
LINE
8
BLACK
6
CONTINUOUS
10
188.718
20
-91.6046
11
188.718
21
-91.4617
0
LINE
8
BLACK
6
CONTINUOUS
10
188.718
20
-91.4617
11
188.576
21
-91.176
0
LINE
8
BLACK
6
CONTINUOUS
10
188.576
20
-91.176
11
188.29
21
-91.0331
0
LINE
8
BLACK
6
CONTINUOUS
10
188.29
20
-91.0331
11
187.861
21
-91.0331
0
LINE
8
BLACK
6
CONTINUOUS
10
187.861
20
-91.0331
11
187.576
21
-90.8903
0
LINE
8
BLACK
6
CONTINUOUS
10
187.576
20
-90.8903
11
187.433
21
-90.6046
0
LINE
8
BLACK
6
CONTINUOUS
10
187.433
20
-90.6046
11
187.433
21
-90.4617
0
LINE
8
BLACK
6
CONTINUOUS
10
187.433
20
-90.4617
11
187.576
21
-90.176
0
LINE
8
BLACK
6
CONTINUOUS
10
187.576
20
-90.176
11
187.861
21
-90.0331
0
LINE
8
BLACK
6
CONTINUOUS
10
187.861
20
-90.0331
11
188.29
21
-90.0331
0
LINE
8
BLACK
6
CONTINUOUS
10
188.29
20
-90.0331
11
188.576
21
-90.176
0
LINE
8
BLACK
6
CONTINUOUS
10
189.718
20
-93.176
11
189.861
21
-93.0331
0
LINE
8
BLACK
6
CONTINUOUS
10
189.861
20
-93.0331
11
190.147
21
-92.6046
0
LINE
8
BLACK
6
CONTINUOUS
10
190.147
20
-92.6046
11
190.29
21
-92.3189
0
LINE
8
BLACK
6
CONTINUOUS
10
190.29
20
-92.3189
11
190.433
21
-91.8903
0
LINE
8
BLACK
6
CONTINUOUS
10
190.433
20
-91.8903
11
190.576
21
-91.176
0
LINE
8
BLACK
6
CONTINUOUS
10
190.576
20
-91.176
11
190.576
21
-90.6046
0
LINE
8
BLACK
6
CONTINUOUS
10
190.576
20
-90.6046
11
190.433
21
-89.8903
0
LINE
8
BLACK
6
CONTINUOUS
10
190.433
20
-89.8903
11
190.29
21
-89.4617
0
LINE
8
BLACK
6
CONTINUOUS
10
190.29
20
-89.4617
11
190.147
21
-89.176
0
LINE
8
BLACK
6
CONTINUOUS
10
190.147
20
-89.176
11
189.861
21
-88.7474
0
LINE
8
BLACK
6
CONTINUOUS
10
189.861
20
-88.7474
11
189.718
21
-88.6046
0
CIRCLE
8
BLACK
10
121.497
20
-94.636
40
0.5
0
LINE
8
BLACK
6
CONTINUOUS
10
126.433
20
-95.9931
11
124.718
21
-95.9931
0
LINE
8
BLACK
6
CONTINUOUS
10
125.576
20
-95.9931
11
125.576
21
-92.9931
0
LINE
8
BLACK
6
CONTINUOUS
10
125.576
20
-92.9931
11
125.29
21
-93.4217
0
LINE
8
BLACK
6
CONTINUOUS
10
125.29
20
-93.4217
11
125.004
21
-93.7074
0
LINE
8
BLACK
6
CONTINUOUS
10
125.004
20
-93.7074
11
124.718
21
-93.8503
0
LINE
8
BLACK
6
CONTINUOUS
10
127.718
20
-95.7074
11
127.861
21
-95.8503
0
LINE
8
BLACK
6
CONTINUOUS
10
127.861
20
-95.8503
11
127.718
21
-95.9931
0
LINE
8
BLACK
6
CONTINUOUS
10
127.718
20
-95.9931
11
127.576
21
-95.8503
0
LINE
8
BLACK
6
CONTINUOUS
10
127.576
20
-95.8503
11
127.718
21
-95.7074
0
LINE
8
BLACK
6
CONTINUOUS
10
127.718
20
-95.7074
11
127.718
21
-95.9931
0
LINE
8
BLACK
6
CONTINUOUS
10
129.718
20
-92.9931
11
130.004
21
-92.9931
0
LINE
8
BLACK
6
CONTINUOUS
10
130.004
20
-92.9931
11
130.29
21
-93.136
0
LINE
8
BLACK
6
CONTINUOUS
10
130.29
20
-93.136
11
130.433
21
-93.2789
0
LINE
8
BLACK
6
CONTINUOUS
10
130.433
20
-93.2789
11
130.576
21
-93.5646
0
LINE
8
BLACK
6
CONTINUOUS
10
130.576
20
-93.5646
11
130.718
21
-94.136
0
LINE
8
BLACK
6
CONTINUOUS
10
130.718
20
-94.136
11
130.718
21
-94.8503
0
LINE
8
BLACK
6
CONTINUOUS
10
130.718
20
-94.8503
11
130.576
21
-95.4217
0
LINE
8
BLACK
6
CONTINUOUS
10
130.576
20
-95.4217
11
130.433
21
-95.7074
0
LINE
8
BLACK
6
CONTINUOUS
10
130.433
20
-95.7074
11
130.29
21
-95.8503
0
LINE
8
BLACK
6
CONTINUOUS
10
130.29
20
-95.8503
11
130.004
21
-95.9931
0
LINE
8
BLACK
6
CONTINUOUS
10
130.004
20
-95.9931
11
129.718
21
-95.9931
0
LINE
8
BLACK
6
CONTINUOUS
10
129.718
20
-95.9931
11
129.433
21
-95.8503
0
LINE
8
BLACK
6
CONTINUOUS
10
129.433
20
-95.8503
11
129.29
21
-95.7074
0
LINE
8
BLACK
6
CONTINUOUS
10
129.29
20
-95.7074
11
129.147
21
-95.4217
0
LINE
8
BLACK
6
CONTINUOUS
10
129.147
20
-95.4217
11
129.004
21
-94.8503
0
LINE
8
BLACK
6
CONTINUOUS
10
129.004
20
-94.8503
11
129.004
21
-94.136
0
LINE
8
BLACK
6
CONTINUOUS
10
129.004
20
-94.136
11
129.147
21
-93.5646
0
LINE
8
BLACK
6
CONTINUOUS
10
129.147
20
-93.5646
11
129.29
21
-93.2789
0
LINE
8
BLACK
6
CONTINUOUS
10
129.29
20
-93.2789
11
129.433
21
-93.136
0
LINE
8
BLACK
6
CONTINUOUS
10
129.433
20
-93.136
11
129.718
21
-92.9931
0
LINE
8
BLACK
6
CONTINUOUS
10
132.576
20
-92.9931
11
132.861
21
-92.9931
0
LINE
8
BLACK
6
CONTINUOUS
10
132.861
20
-92.9931
11
133.147
21
-93.136
0
LINE
8
BLACK
6
CONTINUOUS
10
133.147
20
-93.136
11
133.29
21
-93.2789
0
LINE
8
BLACK
6
CONTINUOUS
10
133.29
20
-93.2789
11
133.433
21
-93.5646
0
LINE
8
BLACK
6
CONTINUOUS
10
133.433
20
-93.5646
11
133.576
21
-94.136
0
LINE
8
BLACK
6
CONTINUOUS
10
133.576
20
-94.136
11
133.576
21
-94.8503
0
LINE
8
BLACK
6
CONTINUOUS
10
133.576
20
-94.8503
11
133.433
21
-95.4217
0
LINE
8
BLACK
6
CONTINUOUS
10
133.433
20
-95.4217
11
133.29
21
-95.7074
0
LINE
8
BLACK
6
CONTINUOUS
10
133.29
20
-95.7074
11
133.147
21
-95.8503
0
LINE
8
BLACK
6
CONTINUOUS
10
133.147
20
-95.8503
11
132.861
21
-95.9931
0
LINE
8
BLACK
6
CONTINUOUS
10
132.861
20
-95.9931
11
132.576
21
-95.9931
0
LINE
8
BLACK
6
CONTINUOUS
10
132.576
20
-95.9931
11
132.29
21
-95.8503
0
LINE
8
BLACK
6
CONTINUOUS
10
132.29
20
-95.8503
11
132.147
21
-95.7074
0
LINE
8
BLACK
6
CONTINUOUS
10
132.147
20
-95.7074
11
132.004
21
-95.4217
0
LINE
8
BLACK
6
CONTINUOUS
10
132.004
20
-95.4217
11
131.861
21
-94.8503
0
LINE
8
BLACK
6
CONTINUOUS
10
131.861
20
-94.8503
11
131.861
21
-94.136
0
LINE
8
BLACK
6
CONTINUOUS
10
131.861
20
-94.136
11
132.004
21
-93.5646
0
LINE
8
BLACK
6
CONTINUOUS
10
132.004
20
-93.5646
11
132.147
21
-93.2789
0
LINE
8
BLACK
6
CONTINUOUS
10
132.147
20
-93.2789
11
132.29
21
-93.136
0
LINE
8
BLACK
6
CONTINUOUS
10
132.29
20
-93.136
11
132.576
21
-92.9931
0
LINE
8
BLACK
6
CONTINUOUS
10
134.861
20
-95.9931
11
134.861
21
-93.9931
0
LINE
8
BLACK
6
CONTINUOUS
10
134.861
20
-94.2789
11
135.004
21
-94.136
0
LINE
8
BLACK
6
CONTINUOUS
10
135.004
20
-94.136
11
135.29
21
-93.9931
0
LINE
8
BLACK
6
CONTINUOUS
10
135.29
20
-93.9931
11
135.718
21
-93.9931
0
LINE
8
BLACK
6
CONTINUOUS
10
135.718
20
-93.9931
11
136.004
21
-94.136
0
LINE
8
BLACK
6
CONTINUOUS
10
136.004
20
-94.136
11
136.147
21
-94.4217
0
LINE
8
BLACK
6
CONTINUOUS
10
136.147
20
-94.4217
11
136.147
21
-95.9931
0
LINE
8
BLACK
6
CONTINUOUS
10
136.147
20
-94.4217
11
136.29
21
-94.136
0
LINE
8
BLACK
6
CONTINUOUS
10
136.29
20
-94.136
11
136.576
21
-93.9931
0
LINE
8
BLACK
6
CONTINUOUS
10
136.576
20
-93.9931
11
137.004
21
-93.9931
0
LINE
8
BLACK
6
CONTINUOUS
10
137.004
20
-93.9931
11
137.29
21
-94.136
0
LINE
8
BLACK
6
CONTINUOUS
10
137.29
20
-94.136
11
137.433
21
-94.4217
0
LINE
8
BLACK
6
CONTINUOUS
10
137.433
20
-94.4217
11
137.433
21
-95.9931
0
LINE
8
BLACK
6
CONTINUOUS
10
138.861
20
-95.9931
11
138.861
21
-93.9931
0
LINE
8
BLACK
6
CONTINUOUS
10
138.861
20
-94.2789
11
139.004
21
-94.136
0
LINE
8
BLACK
6
CONTINUOUS
10
139.004
20
-94.136
11
139.29
21
-93.9931
0
LINE
8
BLACK
6
CONTINUOUS
10
139.29
20
-93.9931
11
139.718
21
-93.9931
0
LINE
8
BLACK
6
CONTINUOUS
10
139.718
20
-93.9931
11
140.004
21
-94.136
0
LINE
8
BLACK
6
CONTINUOUS
10
140.004
20
-94.136
11
140.147
21
-94.4217
0
LINE
8
BLACK
6
CONTINUOUS
10
140.147
20
-94.4217
11
140.147
21
-95.9931
0
LINE
8
BLACK
6
CONTINUOUS
10
140.147
20
-94.4217
11
140.29
21
-94.136
0
LINE
8
BLACK
6
CONTINUOUS
10
140.29
20
-94.136
11
140.576
21
-93.9931
0
LINE
8
BLACK
6
CONTINUOUS
10
140.576
20
-93.9931
11
141.004
21
-93.9931
0
LINE
8
BLACK
6
CONTINUOUS
10
141.004
20
-93.9931
11
141.29
21
-94.136
0
LINE
8
BLACK
6
CONTINUOUS
10
141.29
20
-94.136
11
141.433
21
-94.4217
0
LINE
8
BLACK
6
CONTINUOUS
10
141.433
20
-94.4217
11
141.433
21
-95.9931
0
LINE
8
BLACK
6
CONTINUOUS
10
147.29
20
-92.8503
11
144.718
21
-96.7074
0
LINE
8
BLACK
6
CONTINUOUS
10
151.147
20
-92.9931
11
151.433
21
-92.9931
0
LINE
8
BLACK
6
CONTINUOUS
10
151.433
20
-92.9931
11
151.718
21
-93.136
0
LINE
8
BLACK
6
CONTINUOUS
10
151.718
20
-93.136
11
151.861
21
-93.2789
0
LINE
8
BLACK
6
CONTINUOUS
10
151.861
20
-93.2789
11
152.004
21
-93.5646
0
LINE
8
BLACK
6
CONTINUOUS
10
152.004
20
-93.5646
11
152.147
21
-94.136
0
LINE
8
BLACK
6
CONTINUOUS
10
152.147
20
-94.136
11
152.147
21
-94.8503
0
LINE
8
BLACK
6
CONTINUOUS
10
152.147
20
-94.8503
11
152.004
21
-95.4217
0
LINE
8
BLACK
6
CONTINUOUS
10
152.004
20
-95.4217
11
151.861
21
-95.7074
0
LINE
8
BLACK
6
CONTINUOUS
10
151.861
20
-95.7074
11
151.718
21
-95.8503
0
LINE
8
BLACK
6
CONTINUOUS
10
151.718
20
-95.8503
11
151.433
21
-95.9931
0
LINE
8
BLACK
6
CONTINUOUS
10
151.433
20
-95.9931
11
151.147
21
-95.9931
0
LINE
8
BLACK
6
CONTINUOUS
10
151.147
20
-95.9931
11
150.861
21
-95.8503
0
LINE
8
BLACK
6
CONTINUOUS
10
150.861
20
-95.8503
11
150.718
21
-95.7074
0
LINE
8
BLACK
6
CONTINUOUS
10
150.718
20
-95.7074
11
150.576
21
-95.4217
0
LINE
8
BLACK
6
CONTINUOUS
10
150.576
20
-95.4217
11
150.433
21
-94.8503
0
LINE
8
BLACK
6
CONTINUOUS
10
150.433
20
-94.8503
11
150.433
21
-94.136
0
LINE
8
BLACK
6
CONTINUOUS
10
150.433
20
-94.136
11
150.576
21
-93.5646
0
LINE
8
BLACK
6
CONTINUOUS
10
150.576
20
-93.5646
11
150.718
21
-93.2789
0
LINE
8
BLACK
6
CONTINUOUS
10
150.718
20
-93.2789
11
150.861
21
-93.136
0
LINE
8
BLACK
6
CONTINUOUS
10
150.861
20
-93.136
11
151.147
21
-92.9931
0
LINE
8
BLACK
6
CONTINUOUS
10
153.433
20
-95.7074
11
153.576
21
-95.8503
0
LINE
8
BLACK
6
CONTINUOUS
10
153.576
20
-95.8503
11
153.433
21
-95.9931
0
LINE
8
BLACK
6
CONTINUOUS
10
153.433
20
-95.9931
11
153.29
21
-95.8503
0
LINE
8
BLACK
6
CONTINUOUS
10
153.29
20
-95.8503
11
153.433
21
-95.7074
0
LINE
8
BLACK
6
CONTINUOUS
10
153.433
20
-95.7074
11
153.433
21
-95.9931
0
LINE
8
BLACK
6
CONTINUOUS
10
155.433
20
-92.9931
11
155.718
21
-92.9931
0
LINE
8
BLACK
6
CONTINUOUS
10
155.718
20
-92.9931
11
156.004
21
-93.136
0
LINE
8
BLACK
6
CONTINUOUS
10
156.004
20
-93.136
11
156.147
21
-93.2789
0
LINE
8
BLACK
6
CONTINUOUS
10
156.147
20
-93.2789
11
156.29
21
-93.5646
0
LINE
8
BLACK
6
CONTINUOUS
10
156.29
20
-93.5646
11
156.433
21
-94.136
0
LINE
8
BLACK
6
CONTINUOUS
10
156.433
20
-94.136
11
156.433
21
-94.8503
0
LINE
8
BLACK
6
CONTINUOUS
10
156.433
20
-94.8503
11
156.29
21
-95.4217
0
LINE
8
BLACK
6
CONTINUOUS
10
156.29
20
-95.4217
11
156.147
21
-95.7074
0
LINE
8
BLACK
6
CONTINUOUS
10
156.147
20
-95.7074
11
156.004
21
-95.8503
0
LINE
8
BLACK
6
CONTINUOUS
10
156.004
20
-95.8503
11
155.718
21
-95.9931
0
LINE
8
BLACK
6
CONTINUOUS
10
155.718
20
-95.9931
11
155.433
21
-95.9931
0
LINE
8
BLACK
6
CONTINUOUS
10
155.433
20
-95.9931
11
155.147
21
-95.8503
0
LINE
8
BLACK
6
CONTINUOUS
10
155.147
20
-95.8503
11
155.004
21
-95.7074
0
LINE
8
BLACK
6
CONTINUOUS
10
155.004
20
-95.7074
11
154.861
21
-95.4217
0
LINE
8
BLACK
6
CONTINUOUS
10
154.861
20
-95.4217
11
154.718
21
-94.8503
0
LINE
8
BLACK
6
CONTINUOUS
10
154.718
20
-94.8503
11
154.718
21
-94.136
0
LINE
8
BLACK
6
CONTINUOUS
10
154.718
20
-94.136
11
154.861
21
-93.5646
0
LINE
8
BLACK
6
CONTINUOUS
10
154.861
20
-93.5646
11
155.004
21
-93.2789
0
LINE
8
BLACK
6
CONTINUOUS
10
155.004
20
-93.2789
11
155.147
21
-93.136
0
LINE
8
BLACK
6
CONTINUOUS
10
155.147
20
-93.136
11
155.433
21
-92.9931
0
LINE
8
BLACK
6
CONTINUOUS
10
157.433
20
-92.9931
11
159.29
21
-92.9931
0
LINE
8
BLACK
6
CONTINUOUS
10
159.29
20
-92.9931
11
158.29
21
-94.136
0
LINE
8
BLACK
6
CONTINUOUS
10
158.29
20
-94.136
11
158.718
21
-94.136
0
LINE
8
BLACK
6
CONTINUOUS
10
158.718
20
-94.136
11
159.004
21
-94.2789
0
LINE
8
BLACK
6
CONTINUOUS
10
159.004
20
-94.2789
11
159.147
21
-94.4217
0
LINE
8
BLACK
6
CONTINUOUS
10
159.147
20
-94.4217
11
159.29
21
-94.7074
0
LINE
8
BLACK
6
CONTINUOUS
10
159.29
20
-94.7074
11
159.29
21
-95.4217
0
LINE
8
BLACK
6
CONTINUOUS
10
159.29
20
-95.4217
11
159.147
21
-95.7074
0
LINE
8
BLACK
6
CONTINUOUS
10
159.147
20
-95.7074
11
159.004
21
-95.8503
0
LINE
8
BLACK
6
CONTINUOUS
10
159.004
20
-95.8503
11
158.718
21
-95.9931
0
LINE
8
BLACK
6
CONTINUOUS
10
158.718
20
-95.9931
11
157.861
21
-95.9931
0
LINE
8
BLACK
6
CONTINUOUS
10
157.861
20
-95.9931
11
157.576
21
-95.8503
0
LINE
8
BLACK
6
CONTINUOUS
10
157.576
20
-95.8503
11
157.433
21
-95.7074
0
LINE
8
BLACK
6
CONTINUOUS
10
160.718
20
-95.9931
11
161.29
21
-95.9931
0
LINE
8
BLACK
6
CONTINUOUS
10
161.29
20
-95.9931
11
161.576
21
-95.8503
0
LINE
8
BLACK
6
CONTINUOUS
10
161.576
20
-95.8503
11
161.718
21
-95.7074
0
LINE
8
BLACK
6
CONTINUOUS
10
161.718
20
-95.7074
11
162.004
21
-95.2789
0
LINE
8
BLACK
6
CONTINUOUS
10
162.004
20
-95.2789
11
162.147
21
-94.7074
0
LINE
8
BLACK
6
CONTINUOUS
10
162.147
20
-94.7074
11
162.147
21
-93.5646
0
LINE
8
BLACK
6
CONTINUOUS
10
162.147
20
-93.5646
11
162.004
21
-93.2789
0
LINE
8
BLACK
6
CONTINUOUS
10
162.004
20
-93.2789
11
161.861
21
-93.136
0
LINE
8
BLACK
6
CONTINUOUS
10
161.861
20
-93.136
11
161.576
21
-92.9931
0
LINE
8
BLACK
6
CONTINUOUS
10
161.576
20
-92.9931
11
161.004
21
-92.9931
0
LINE
8
BLACK
6
CONTINUOUS
10
161.004
20
-92.9931
11
160.718
21
-93.136
0
LINE
8
BLACK
6
CONTINUOUS
10
160.718
20
-93.136
11
160.576
21
-93.2789
0
LINE
8
BLACK
6
CONTINUOUS
10
160.576
20
-93.2789
11
160.433
21
-93.5646
0
LINE
8
BLACK
6
CONTINUOUS
10
160.433
20
-93.5646
11
160.433
21
-94.2789
0
LINE
8
BLACK
6
CONTINUOUS
10
160.433
20
-94.2789
11
160.576
21
-94.5646
0
LINE
8
BLACK
6
CONTINUOUS
10
160.576
20
-94.5646
11
160.718
21
-94.7074
0
LINE
8
BLACK
6
CONTINUOUS
10
160.718
20
-94.7074
11
161.004
21
-94.8503
0
LINE
8
BLACK
6
CONTINUOUS
10
161.004
20
-94.8503
11
161.576
21
-94.8503
0
LINE
8
BLACK
6
CONTINUOUS
10
161.576
20
-94.8503
11
161.861
21
-94.7074
0
LINE
8
BLACK
6
CONTINUOUS
10
161.861
20
-94.7074
11
162.004
21
-94.5646
0
LINE
8
BLACK
6
CONTINUOUS
10
162.004
20
-94.5646
11
162.147
21
-94.2789
0
LINE
8
BLACK
6
CONTINUOUS
10
163.29
20
-92.9931
11
163.29
21
-93.5646
0
LINE
8
BLACK
6
CONTINUOUS
10
164.433
20
-92.9931
11
164.433
21
-93.5646
0
LINE
8
BLACK
6
CONTINUOUS
10
168.861
20
-97.136
11
168.718
21
-96.9931
0
LINE
8
BLACK
6
CONTINUOUS
10
168.718
20
-96.9931
11
168.433
21
-96.5646
0
LINE
8
BLACK
6
CONTINUOUS
10
168.433
20
-96.5646
11
168.29
21
-96.2789
0
LINE
8
BLACK
6
CONTINUOUS
10
168.29
20
-96.2789
11
168.147
21
-95.8503
0
LINE
8
BLACK
6
CONTINUOUS
10
168.147
20
-95.8503
11
168.004
21
-95.136
0
LINE
8
BLACK
6
CONTINUOUS
10
168.004
20
-95.136
11
168.004
21
-94.5646
0
LINE
8
BLACK
6
CONTINUOUS
10
168.004
20
-94.5646
11
168.147
21
-93.8503
0
LINE
8
BLACK
6
CONTINUOUS
10
168.147
20
-93.8503
11
168.29
21
-93.4217
0
LINE
8
BLACK
6
CONTINUOUS
10
168.29
20
-93.4217
11
168.433
21
-93.136
0
LINE
8
BLACK
6
CONTINUOUS
10
168.433
20
-93.136
11
168.718
21
-92.7074
0
LINE
8
BLACK
6
CONTINUOUS
10
168.718
20
-92.7074
11
168.861
21
-92.5646
0
LINE
8
BLACK
6
CONTINUOUS
10
170.576
20
-92.9931
11
170.861
21
-92.9931
0
LINE
8
BLACK
6
CONTINUOUS
10
170.861
20
-92.9931
11
171.147
21
-93.136
0
LINE
8
BLACK
6
CONTINUOUS
10
171.147
20
-93.136
11
171.29
21
-93.2789
0
LINE
8
BLACK
6
CONTINUOUS
10
171.29
20
-93.2789
11
171.433
21
-93.5646
0
LINE
8
BLACK
6
CONTINUOUS
10
171.433
20
-93.5646
11
171.576
21
-94.136
0
LINE
8
BLACK
6
CONTINUOUS
10
171.576
20
-94.136
11
171.576
21
-94.8503
0
LINE
8
BLACK
6
CONTINUOUS
10
171.576
20
-94.8503
11
171.433
21
-95.4217
0
LINE
8
BLACK
6
CONTINUOUS
10
171.433
20
-95.4217
11
171.29
21
-95.7074
0
LINE
8
BLACK
6
CONTINUOUS
10
171.29
20
-95.7074
11
171.147
21
-95.8503
0
LINE
8
BLACK
6
CONTINUOUS
10
171.147
20
-95.8503
11
170.861
21
-95.9931
0
LINE
8
BLACK
6
CONTINUOUS
10
170.861
20
-95.9931
11
170.576
21
-95.9931
0
LINE
8
BLACK
6
CONTINUOUS
10
170.576
20
-95.9931
11
170.29
21
-95.8503
0
LINE
8
BLACK
6
CONTINUOUS
10
170.29
20
-95.8503
11
170.147
21
-95.7074
0
LINE
8
BLACK
6
CONTINUOUS
10
170.147
20
-95.7074
11
170.004
21
-95.4217
0
LINE
8
BLACK
6
CONTINUOUS
10
170.004
20
-95.4217
11
169.861
21
-94.8503
0
LINE
8
BLACK
6
CONTINUOUS
10
169.861
20
-94.8503
11
169.861
21
-94.136
0
LINE
8
BLACK
6
CONTINUOUS
10
169.861
20
-94.136
11
170.004
21
-93.5646
0
LINE
8
BLACK
6
CONTINUOUS
10
170.004
20
-93.5646
11
170.147
21
-93.2789
0
LINE
8
BLACK
6
CONTINUOUS
10
170.147
20
-93.2789
11
170.29
21
-93.136
0
LINE
8
BLACK
6
CONTINUOUS
10
170.29
20
-93.136
11
170.576
21
-92.9931
0
LINE
8
BLACK
6
CONTINUOUS
10
175.147
20
-95.9931
11
175.147
21
-92.9931
0
LINE
8
BLACK
6
CONTINUOUS
10
176.433
20
-95.9931
11
176.433
21
-94.4217
0
LINE
8
BLACK
6
CONTINUOUS
10
176.433
20
-94.4217
11
176.29
21
-94.136
0
LINE
8
BLACK
6
CONTINUOUS
10
176.29
20
-94.136
11
176.004
21
-93.9931
0
LINE
8
BLACK
6
CONTINUOUS
10
176.004
20
-93.9931
11
175.576
21
-93.9931
0
LINE
8
BLACK
6
CONTINUOUS
10
175.576
20
-93.9931
11
175.29
21
-94.136
0
LINE
8
BLACK
6
CONTINUOUS
10
175.29
20
-94.136
11
175.147
21
-94.2789
0
LINE
8
BLACK
6
CONTINUOUS
10
178.29
20
-95.9931
11
178.004
21
-95.8503
0
LINE
8
BLACK
6
CONTINUOUS
10
178.004
20
-95.8503
11
177.861
21
-95.7074
0
LINE
8
BLACK
6
CONTINUOUS
10
177.861
20
-95.7074
11
177.718
21
-95.4217
0
LINE
8
BLACK
6
CONTINUOUS
10
177.718
20
-95.4217
11
177.718
21
-94.5646
0
LINE
8
BLACK
6
CONTINUOUS
10
177.718
20
-94.5646
11
177.861
21
-94.2789
0
LINE
8
BLACK
6
CONTINUOUS
10
177.861
20
-94.2789
11
178.004
21
-94.136
0
LINE
8
BLACK
6
CONTINUOUS
10
178.004
20
-94.136
11
178.29
21
-93.9931
0
LINE
8
BLACK
6
CONTINUOUS
10
178.29
20
-93.9931
11
178.718
21
-93.9931
0
LINE
8
BLACK
6
CONTINUOUS
10
178.718
20
-93.9931
11
179.004
21
-94.136
0
LINE
8
BLACK
6
CONTINUOUS
10
179.004
20
-94.136
11
179.147
21
-94.2789
0
LINE
8
BLACK
6
CONTINUOUS
10
179.147
20
-94.2789
11
179.29
21
-94.5646
0
LINE
8
BLACK
6
CONTINUOUS
10
179.29
20
-94.5646
11
179.29
21
-95.4217
0
LINE
8
BLACK
6
CONTINUOUS
10
179.29
20
-95.4217
11
179.147
21
-95.7074
0
LINE
8
BLACK
6
CONTINUOUS
10
179.147
20
-95.7074
11
179.004
21
-95.8503
0
LINE
8
BLACK
6
CONTINUOUS
10
179.004
20
-95.8503
11
178.718
21
-95.9931
0
LINE
8
BLACK
6
CONTINUOUS
10
178.718
20
-95.9931
11
178.29
21
-95.9931
0
LINE
8
BLACK
6
CONTINUOUS
10
181.004
20
-95.9931
11
180.718
21
-95.8503
0
LINE
8
BLACK
6
CONTINUOUS
10
180.718
20
-95.8503
11
180.576
21
-95.5646
0
LINE
8
BLACK
6
CONTINUOUS
10
180.576
20
-95.5646
11
180.576
21
-92.9931
0
LINE
8
BLACK
6
CONTINUOUS
10
183.29
20
-95.8503
11
183.004
21
-95.9931
0
LINE
8
BLACK
6
CONTINUOUS
10
183.004
20
-95.9931
11
182.433
21
-95.9931
0
LINE
8
BLACK
6
CONTINUOUS
10
182.433
20
-95.9931
11
182.147
21
-95.8503
0
LINE
8
BLACK
6
CONTINUOUS
10
182.147
20
-95.8503
11
182.004
21
-95.5646
0
LINE
8
BLACK
6
CONTINUOUS
10
182.004
20
-95.5646
11
182.004
21
-94.4217
0
LINE
8
BLACK
6
CONTINUOUS
10
182.004
20
-94.4217
11
182.147
21
-94.136
0
LINE
8
BLACK
6
CONTINUOUS
10
182.147
20
-94.136
11
182.433
21
-93.9931
0
LINE
8
BLACK
6
CONTINUOUS
10
182.433
20
-93.9931
11
183.004
21
-93.9931
0
LINE
8
BLACK
6
CONTINUOUS
10
183.004
20
-93.9931
11
183.29
21
-94.136
0
LINE
8
BLACK
6
CONTINUOUS
10
183.29
20
-94.136
11
183.433
21
-94.4217
0
LINE
8
BLACK
6
CONTINUOUS
10
183.433
20
-94.4217
11
183.433
21
-94.7074
0
LINE
8
BLACK
6
CONTINUOUS
10
183.433
20
-94.7074
11
182.004
21
-94.9931
0
LINE
8
BLACK
6
CONTINUOUS
10
184.576
20
-95.8503
11
184.861
21
-95.9931
0
LINE
8
BLACK
6
CONTINUOUS
10
184.861
20
-95.9931
11
185.433
21
-95.9931
0
LINE
8
BLACK
6
CONTINUOUS
10
185.433
20
-95.9931
11
185.718
21
-95.8503
0
LINE
8
BLACK
6
CONTINUOUS
10
185.718
20
-95.8503
11
185.861
21
-95.5646
0
LINE
8
BLACK
6
CONTINUOUS
10
185.861
20
-95.5646
11
185.861
21
-95.4217
0
LINE
8
BLACK
6
CONTINUOUS
10
185.861
20
-95.4217
11
185.718
21
-95.136
0
LINE
8
BLACK
6
CONTINUOUS
10
185.718
20
-95.136
11
185.433
21
-94.9931
0
LINE
8
BLACK
6
CONTINUOUS
10
185.433
20
-94.9931
11
185.004
21
-94.9931
0
LINE
8
BLACK
6
CONTINUOUS
10
185.004
20
-94.9931
11
184.718
21
-94.8503
0
LINE
8
BLACK
6
CONTINUOUS
10
184.718
20
-94.8503
11
184.576
21
-94.5646
0
LINE
8
BLACK
6
CONTINUOUS
10
184.576
20
-94.5646
11
184.576
21
-94.4217
0
LINE
8
BLACK
6
CONTINUOUS
10
184.576
20
-94.4217
11
184.718
21
-94.136
0
LINE
8
BLACK
6
CONTINUOUS
10
184.718
20
-94.136
11
185.004
21
-93.9931
0
LINE
8
BLACK
6
CONTINUOUS
10
185.004
20
-93.9931
11
185.433
21
-93.9931
0
LINE
8
BLACK
6
CONTINUOUS
10
185.433
20
-93.9931
11
185.718
21
-94.136
0
LINE
8
BLACK
6
CONTINUOUS
10
189.433
20
-94.8503
11
191.718
21
-94.8503
0
LINE
8
BLACK
6
CONTINUOUS
10
190.576
20
-95.9931
11
190.576
21
-93.7074
0
LINE
8
BLACK
6
CONTINUOUS
10
195.147
20
-92.9931
11
197.004
21
-92.9931
0
LINE
8
BLACK
6
CONTINUOUS
10
197.004
20
-92.9931
11
196.004
21
-94.136
0
LINE
8
BLACK
6
CONTINUOUS
10
196.004
20
-94.136
11
196.433
21
-94.136
0
LINE
8
BLACK
6
CONTINUOUS
10
196.433
20
-94.136
11
196.718
21
-94.2789
0
LINE
8
BLACK
6
CONTINUOUS
10
196.718
20
-94.2789
11
196.861
21
-94.4217
0
LINE
8
BLACK
6
CONTINUOUS
10
196.861
20
-94.4217
11
197.004
21
-94.7074
0
LINE
8
BLACK
6
CONTINUOUS
10
197.004
20
-94.7074
11
197.004
21
-95.4217
0
LINE
8
BLACK
6
CONTINUOUS
10
197.004
20
-95.4217
11
196.861
21
-95.7074
0
LINE
8
BLACK
6
CONTINUOUS
10
196.861
20
-95.7074
11
196.718
21
-95.8503
0
LINE
8
BLACK
6
CONTINUOUS
10
196.718
20
-95.8503
11
196.433
21
-95.9931
0
LINE
8
BLACK
6
CONTINUOUS
10
196.433
20
-95.9931
11
195.576
21
-95.9931
0
LINE
8
BLACK
6
CONTINUOUS
10
195.576
20
-95.9931
11
195.29
21
-95.8503
0
LINE
8
BLACK
6
CONTINUOUS
10
195.29
20
-95.8503
11
195.147
21
-95.7074
0
LINE
8
BLACK
6
CONTINUOUS
10
200.433
20
-95.8503
11
200.718
21
-95.9931
0
LINE
8
BLACK
6
CONTINUOUS
10
200.718
20
-95.9931
11
201.29
21
-95.9931
0
LINE
8
BLACK
6
CONTINUOUS
10
201.29
20
-95.9931
11
201.576
21
-95.8503
0
LINE
8
BLACK
6
CONTINUOUS
10
201.576
20
-95.8503
11
201.718
21
-95.5646
0
LINE
8
BLACK
6
CONTINUOUS
10
201.718
20
-95.5646
11
201.718
21
-95.4217
0
LINE
8
BLACK
6
CONTINUOUS
10
201.718
20
-95.4217
11
201.576
21
-95.136
0
LINE
8
BLACK
6
CONTINUOUS
10
201.576
20
-95.136
11
201.29
21
-94.9931
0
LINE
8
BLACK
6
CONTINUOUS
10
201.29
20
-94.9931
11
200.861
21
-94.9931
0
LINE
8
BLACK
6
CONTINUOUS
10
200.861
20
-94.9931
11
200.576
21
-94.8503
0
LINE
8
BLACK
6
CONTINUOUS
10
200.576
20
-94.8503
11
200.433
21
-94.5646
0
LINE
8
BLACK
6
CONTINUOUS
10
200.433
20
-94.5646
11
200.433
21
-94.4217
0
LINE
8
BLACK
6
CONTINUOUS
10
200.433
20
-94.4217
11
200.576
21
-94.136
0
LINE
8
BLACK
6
CONTINUOUS
10
200.576
20
-94.136
11
200.861
21
-93.9931
0
LINE
8
BLACK
6
CONTINUOUS
10
200.861
20
-93.9931
11
201.29
21
-93.9931
0
LINE
8
BLACK
6
CONTINUOUS
10
201.29
20
-93.9931
11
201.576
21
-94.136
0
LINE
8
BLACK
6
CONTINUOUS
10
203.433
20
-95.9931
11
203.147
21
-95.8503
0
LINE
8
BLACK
6
CONTINUOUS
10
203.147
20
-95.8503
11
203.004
21
-95.5646
0
LINE
8
BLACK
6
CONTINUOUS
10
203.004
20
-95.5646
11
203.004
21
-92.9931
0
LINE
8
BLACK
6
CONTINUOUS
10
205.004
20
-95.9931
11
204.718
21
-95.8503
0
LINE
8
BLACK
6
CONTINUOUS
10
204.718
20
-95.8503
11
204.576
21
-95.7074
0
LINE
8
BLACK
6
CONTINUOUS
10
204.576
20
-95.7074
11
204.433
21
-95.4217
0
LINE
8
BLACK
6
CONTINUOUS
10
204.433
20
-95.4217
11
204.433
21
-94.5646
0
LINE
8
BLACK
6
CONTINUOUS
10
204.433
20
-94.5646
11
204.576
21
-94.2789
0
LINE
8
BLACK
6
CONTINUOUS
10
204.576
20
-94.2789
11
204.718
21
-94.136
0
LINE
8
BLACK
6
CONTINUOUS
10
204.718
20
-94.136
11
205.004
21
-93.9931
0
LINE
8
BLACK
6
CONTINUOUS
10
205.004
20
-93.9931
11
205.433
21
-93.9931
0
LINE
8
BLACK
6
CONTINUOUS
10
205.433
20
-93.9931
11
205.718
21
-94.136
0
LINE
8
BLACK
6
CONTINUOUS
10
205.718
20
-94.136
11
205.861
21
-94.2789
0
LINE
8
BLACK
6
CONTINUOUS
10
205.861
20
-94.2789
11
206.004
21
-94.5646
0
LINE
8
BLACK
6
CONTINUOUS
10
206.004
20
-94.5646
11
206.004
21
-95.4217
0
LINE
8
BLACK
6
CONTINUOUS
10
206.004
20
-95.4217
11
205.861
21
-95.7074
0
LINE
8
BLACK
6
CONTINUOUS
10
205.861
20
-95.7074
11
205.718
21
-95.8503
0
LINE
8
BLACK
6
CONTINUOUS
10
205.718
20
-95.8503
11
205.433
21
-95.9931
0
LINE
8
BLACK
6
CONTINUOUS
10
205.433
20
-95.9931
11
205.004
21
-95.9931
0
LINE
8
BLACK
6
CONTINUOUS
10
206.861
20
-93.9931
11
208.004
21
-93.9931
0
LINE
8
BLACK
6
CONTINUOUS
10
207.29
20
-92.9931
11
207.29
21
-95.5646
0
LINE
8
BLACK
6
CONTINUOUS
10
207.29
20
-95.5646
11
207.433
21
-95.8503
0
LINE
8
BLACK
6
CONTINUOUS
10
207.433
20
-95.8503
11
207.718
21
-95.9931
0
LINE
8
BLACK
6
CONTINUOUS
10
207.718
20
-95.9931
11
208.004
21
-95.9931
0
LINE
8
BLACK
6
CONTINUOUS
10
208.861
20
-95.8503
11
209.147
21
-95.9931
0
LINE
8
BLACK
6
CONTINUOUS
10
209.147
20
-95.9931
11
209.718
21
-95.9931
0
LINE
8
BLACK
6
CONTINUOUS
10
209.718
20
-95.9931
11
210.004
21
-95.8503
0
LINE
8
BLACK
6
CONTINUOUS
10
210.004
20
-95.8503
11
210.147
21
-95.5646
0
LINE
8
BLACK
6
CONTINUOUS
10
210.147
20
-95.5646
11
210.147
21
-95.4217
0
LINE
8
BLACK
6
CONTINUOUS
10
210.147
20
-95.4217
11
210.004
21
-95.136
0
LINE
8
BLACK
6
CONTINUOUS
10
210.004
20
-95.136
11
209.718
21
-94.9931
0
LINE
8
BLACK
6
CONTINUOUS
10
209.718
20
-94.9931
11
209.29
21
-94.9931
0
LINE
8
BLACK
6
CONTINUOUS
10
209.29
20
-94.9931
11
209.004
21
-94.8503
0
LINE
8
BLACK
6
CONTINUOUS
10
209.004
20
-94.8503
11
208.861
21
-94.5646
0
LINE
8
BLACK
6
CONTINUOUS
10
208.861
20
-94.5646
11
208.861
21
-94.4217
0
LINE
8
BLACK
6
CONTINUOUS
10
208.861
20
-94.4217
11
209.004
21
-94.136
0
LINE
8
BLACK
6
CONTINUOUS
10
209.004
20
-94.136
11
209.29
21
-93.9931
0
LINE
8
BLACK
6
CONTINUOUS
10
209.29
20
-93.9931
11
209.718
21
-93.9931
0
LINE
8
BLACK
6
CONTINUOUS
10
209.718
20
-93.9931
11
210.004
21
-94.136
0
LINE
8
BLACK
6
CONTINUOUS
10
211.147
20
-97.136
11
211.29
21
-96.9931
0
LINE
8
BLACK
6
CONTINUOUS
10
211.29
20
-96.9931
11
211.576
21
-96.5646
0
LINE
8
BLACK
6
CONTINUOUS
10
211.576
20
-96.5646
11
211.718
21
-96.2789
0
LINE
8
BLACK
6
CONTINUOUS
10
211.718
20
-96.2789
11
211.861
21
-95.8503
0
LINE
8
BLACK
6
CONTINUOUS
10
211.861
20
-95.8503
11
212.004
21
-95.136
0
LINE
8
BLACK
6
CONTINUOUS
10
212.004
20
-95.136
11
212.004
21
-94.5646
0
LINE
8
BLACK
6
CONTINUOUS
10
212.004
20
-94.5646
11
211.861
21
-93.8503
0
LINE
8
BLACK
6
CONTINUOUS
10
211.861
20
-93.8503
11
211.718
21
-93.4217
0
LINE
8
BLACK
6
CONTINUOUS
10
211.718
20
-93.4217
11
211.576
21
-93.136
0
LINE
8
BLACK
6
CONTINUOUS
10
211.576
20
-93.136
11
211.29
21
-92.7074
0
LINE
8
BLACK
6
CONTINUOUS
10
211.29
20
-92.7074
11
211.147
21
-92.5646
0
LINE
8
BLACK
6
CONTINUOUS
10
121.397
20
-97.996
11
121.397
21
-99.196
0
LINE
8
BLACK
6
CONTINUOUS
10
120.797
20
-98.596
11
121.997
21
-98.596
0
LINE
8
BLACK
6
CONTINUOUS
10
126.433
20
-99.9531
11
124.718
21
-99.9531
0
LINE
8
BLACK
6
CONTINUOUS
10
125.576
20
-99.9531
11
125.576
21
-96.9531
0
LINE
8
BLACK
6
CONTINUOUS
10
125.576
20
-96.9531
11
125.29
21
-97.3817
0
LINE
8
BLACK
6
CONTINUOUS
10
125.29
20
-97.3817
11
125.004
21
-97.6674
0
LINE
8
BLACK
6
CONTINUOUS
10
125.004
20
-97.6674
11
124.718
21
-97.8103
0
LINE
8
BLACK
6
CONTINUOUS
10
127.718
20
-99.6674
11
127.861
21
-99.8103
0
LINE
8
BLACK
6
CONTINUOUS
10
127.861
20
-99.8103
11
127.718
21
-99.9531
0
LINE
8
BLACK
6
CONTINUOUS
10
127.718
20
-99.9531
11
127.576
21
-99.8103
0
LINE
8
BLACK
6
CONTINUOUS
10
127.576
20
-99.8103
11
127.718
21
-99.6674
0
LINE
8
BLACK
6
CONTINUOUS
10
127.718
20
-99.6674
11
127.718
21
-99.9531
0
LINE
8
BLACK
6
CONTINUOUS
10
129.004
20
-97.2389
11
129.147
21
-97.096
0
LINE
8
BLACK
6
CONTINUOUS
10
129.147
20
-97.096
11
129.433
21
-96.9531
0
LINE
8
BLACK
6
CONTINUOUS
10
129.433
20
-96.9531
11
130.147
21
-96.9531
0
LINE
8
BLACK
6
CONTINUOUS
10
130.147
20
-96.9531
11
130.433
21
-97.096
0
LINE
8
BLACK
6
CONTINUOUS
10
130.433
20
-97.096
11
130.576
21
-97.2389
0
LINE
8
BLACK
6
CONTINUOUS
10
130.576
20
-97.2389
11
130.718
21
-97.5246
0
LINE
8
BLACK
6
CONTINUOUS
10
130.718
20
-97.5246
11
130.718
21
-97.8103
0
LINE
8
BLACK
6
CONTINUOUS
10
130.718
20
-97.8103
11
130.576
21
-98.2389
0
LINE
8
BLACK
6
CONTINUOUS
10
130.576
20
-98.2389
11
128.861
21
-99.9531
0
LINE
8
BLACK
6
CONTINUOUS
10
128.861
20
-99.9531
11
130.718
21
-99.9531
0
LINE
8
BLACK
6
CONTINUOUS
10
132.576
20
-96.9531
11
132.861
21
-96.9531
0
LINE
8
BLACK
6
CONTINUOUS
10
132.861
20
-96.9531
11
133.147
21
-97.096
0
LINE
8
BLACK
6
CONTINUOUS
10
133.147
20
-97.096
11
133.29
21
-97.2389
0
LINE
8
BLACK
6
CONTINUOUS
10
133.29
20
-97.2389
11
133.433
21
-97.5246
0
LINE
8
BLACK
6
CONTINUOUS
10
133.433
20
-97.5246
11
133.576
21
-98.096
0
LINE
8
BLACK
6
CONTINUOUS
10
133.576
20
-98.096
11
133.576
21
-98.8103
0
LINE
8
BLACK
6
CONTINUOUS
10
133.576
20
-98.8103
11
133.433
21
-99.3817
0
LINE
8
BLACK
6
CONTINUOUS
10
133.433
20
-99.3817
11
133.29
21
-99.6674
0
LINE
8
BLACK
6
CONTINUOUS
10
133.29
20
-99.6674
11
133.147
21
-99.8103
0
LINE
8
BLACK
6
CONTINUOUS
10
133.147
20
-99.8103
11
132.861
21
-99.9531
0
LINE
8
BLACK
6
CONTINUOUS
10
132.861
20
-99.9531
11
132.576
21
-99.9531
0
LINE
8
BLACK
6
CONTINUOUS
10
132.576
20
-99.9531
11
132.29
21
-99.8103
0
LINE
8
BLACK
6
CONTINUOUS
10
132.29
20
-99.8103
11
132.147
21
-99.6674
0
LINE
8
BLACK
6
CONTINUOUS
10
132.147
20
-99.6674
11
132.004
21
-99.3817
0
LINE
8
BLACK
6
CONTINUOUS
10
132.004
20
-99.3817
11
131.861
21
-98.8103
0
LINE
8
BLACK
6
CONTINUOUS
10
131.861
20
-98.8103
11
131.861
21
-98.096
0
LINE
8
BLACK
6
CONTINUOUS
10
131.861
20
-98.096
11
132.004
21
-97.5246
0
LINE
8
BLACK
6
CONTINUOUS
10
132.004
20
-97.5246
11
132.147
21
-97.2389
0
LINE
8
BLACK
6
CONTINUOUS
10
132.147
20
-97.2389
11
132.29
21
-97.096
0
LINE
8
BLACK
6
CONTINUOUS
10
132.29
20
-97.096
11
132.576
21
-96.9531
0
LINE
8
BLACK
6
CONTINUOUS
10
134.861
20
-99.9531
11
134.861
21
-97.9531
0
LINE
8
BLACK
6
CONTINUOUS
10
134.861
20
-98.2389
11
135.004
21
-98.096
0
LINE
8
BLACK
6
CONTINUOUS
10
135.004
20
-98.096
11
135.29
21
-97.9531
0
LINE
8
BLACK
6
CONTINUOUS
10
135.29
20
-97.9531
11
135.718
21
-97.9531
0
LINE
8
BLACK
6
CONTINUOUS
10
135.718
20
-97.9531
11
136.004
21
-98.096
0
LINE
8
BLACK
6
CONTINUOUS
10
136.004
20
-98.096
11
136.147
21
-98.3817
0
LINE
8
BLACK
6
CONTINUOUS
10
136.147
20
-98.3817
11
136.147
21
-99.9531
0
LINE
8
BLACK
6
CONTINUOUS
10
136.147
20
-98.3817
11
136.29
21
-98.096
0
LINE
8
BLACK
6
CONTINUOUS
10
136.29
20
-98.096
11
136.576
21
-97.9531
0
LINE
8
BLACK
6
CONTINUOUS
10
136.576
20
-97.9531
11
137.004
21
-97.9531
0
LINE
8
BLACK
6
CONTINUOUS
10
137.004
20
-97.9531
11
137.29
21
-98.096
0
LINE
8
BLACK
6
CONTINUOUS
10
137.29
20
-98.096
11
137.433
21
-98.3817
0
LINE
8
BLACK
6
CONTINUOUS
10
137.433
20
-98.3817
11
137.433
21
-99.9531
0
LINE
8
BLACK
6
CONTINUOUS
10
138.861
20
-99.9531
11
138.861
21
-97.9531
0
LINE
8
BLACK
6
CONTINUOUS
10
138.861
20
-98.2389
11
139.004
21
-98.096
0
LINE
8
BLACK
6
CONTINUOUS
10
139.004
20
-98.096
11
139.29
21
-97.9531
0
LINE
8
BLACK
6
CONTINUOUS
10
139.29
20
-97.9531
11
139.718
21
-97.9531
0
LINE
8
BLACK
6
CONTINUOUS
10
139.718
20
-97.9531
11
140.004
21
-98.096
0
LINE
8
BLACK
6
CONTINUOUS
10
140.004
20
-98.096
11
140.147
21
-98.3817
0
LINE
8
BLACK
6
CONTINUOUS
10
140.147
20
-98.3817
11
140.147
21
-99.9531
0
LINE
8
BLACK
6
CONTINUOUS
10
140.147
20
-98.3817
11
140.29
21
-98.096
0
LINE
8
BLACK
6
CONTINUOUS
10
140.29
20
-98.096
11
140.576
21
-97.9531
0
LINE
8
BLACK
6
CONTINUOUS
10
140.576
20
-97.9531
11
141.004
21
-97.9531
0
LINE
8
BLACK
6
CONTINUOUS
10
141.004
20
-97.9531
11
141.29
21
-98.096
0
LINE
8
BLACK
6
CONTINUOUS
10
141.29
20
-98.096
11
141.433
21
-98.3817
0
LINE
8
BLACK
6
CONTINUOUS
10
141.433
20
-98.3817
11
141.433
21
-99.9531
0
LINE
8
BLACK
6
CONTINUOUS
10
147.29
20
-96.8103
11
144.718
21
-100.667
0
LINE
8
BLACK
6
CONTINUOUS
10
151.147
20
-96.9531
11
151.433
21
-96.9531
0
LINE
8
BLACK
6
CONTINUOUS
10
151.433
20
-96.9531
11
151.718
21
-97.096
0
LINE
8
BLACK
6
CONTINUOUS
10
151.718
20
-97.096
11
151.861
21
-97.2389
0
LINE
8
BLACK
6
CONTINUOUS
10
151.861
20
-97.2389
11
152.004
21
-97.5246
0
LINE
8
BLACK
6
CONTINUOUS
10
152.004
20
-97.5246
11
152.147
21
-98.096
0
LINE
8
BLACK
6
CONTINUOUS
10
152.147
20
-98.096
11
152.147
21
-98.8103
0
LINE
8
BLACK
6
CONTINUOUS
10
152.147
20
-98.8103
11
152.004
21
-99.3817
0
LINE
8
BLACK
6
CONTINUOUS
10
152.004
20
-99.3817
11
151.861
21
-99.6674
0
LINE
8
BLACK
6
CONTINUOUS
10
151.861
20
-99.6674
11
151.718
21
-99.8103
0
LINE
8
BLACK
6
CONTINUOUS
10
151.718
20
-99.8103
11
151.433
21
-99.9531
0
LINE
8
BLACK
6
CONTINUOUS
10
151.433
20
-99.9531
11
151.147
21
-99.9531
0
LINE
8
BLACK
6
CONTINUOUS
10
151.147
20
-99.9531
11
150.861
21
-99.8103
0
LINE
8
BLACK
6
CONTINUOUS
10
150.861
20
-99.8103
11
150.718
21
-99.6674
0
LINE
8
BLACK
6
CONTINUOUS
10
150.718
20
-99.6674
11
150.576
21
-99.3817
0
LINE
8
BLACK
6
CONTINUOUS
10
150.576
20
-99.3817
11
150.433
21
-98.8103
0
LINE
8
BLACK
6
CONTINUOUS
10
150.433
20
-98.8103
11
150.433
21
-98.096
0
LINE
8
BLACK
6
CONTINUOUS
10
150.433
20
-98.096
11
150.576
21
-97.5246
0
LINE
8
BLACK
6
CONTINUOUS
10
150.576
20
-97.5246
11
150.718
21
-97.2389
0
LINE
8
BLACK
6
CONTINUOUS
10
150.718
20
-97.2389
11
150.861
21
-97.096
0
LINE
8
BLACK
6
CONTINUOUS
10
150.861
20
-97.096
11
151.147
21
-96.9531
0
LINE
8
BLACK
6
CONTINUOUS
10
153.433
20
-99.6674
11
153.576
21
-99.8103
0
LINE
8
BLACK
6
CONTINUOUS
10
153.576
20
-99.8103
11
153.433
21
-99.9531
0
LINE
8
BLACK
6
CONTINUOUS
10
153.433
20
-99.9531
11
153.29
21
-99.8103
0
LINE
8
BLACK
6
CONTINUOUS
10
153.29
20
-99.8103
11
153.433
21
-99.6674
0
LINE
8
BLACK
6
CONTINUOUS
10
153.433
20
-99.6674
11
153.433
21
-99.9531
0
LINE
8
BLACK
6
CONTINUOUS
10
155.433
20
-96.9531
11
155.718
21
-96.9531
0
LINE
8
BLACK
6
CONTINUOUS
10
155.718
20
-96.9531
11
156.004
21
-97.096
0
LINE
8
BLACK
6
CONTINUOUS
10
156.004
20
-97.096
11
156.147
21
-97.2389
0
LINE
8
BLACK
6
CONTINUOUS
10
156.147
20
-97.2389
11
156.29
21
-97.5246
0
LINE
8
BLACK
6
CONTINUOUS
10
156.29
20
-97.5246
11
156.433
21
-98.096
0
LINE
8
BLACK
6
CONTINUOUS
10
156.433
20
-98.096
11
156.433
21
-98.8103
0
LINE
8
BLACK
6
CONTINUOUS
10
156.433
20
-98.8103
11
156.29
21
-99.3817
0
LINE
8
BLACK
6
CONTINUOUS
10
156.29
20
-99.3817
11
156.147
21
-99.6674
0
LINE
8
BLACK
6
CONTINUOUS
10
156.147
20
-99.6674
11
156.004
21
-99.8103
0
LINE
8
BLACK
6
CONTINUOUS
10
156.004
20
-99.8103
11
155.718
21
-99.9531
0
LINE
8
BLACK
6
CONTINUOUS
10
155.718
20
-99.9531
11
155.433
21
-99.9531
0
LINE
8
BLACK
6
CONTINUOUS
10
155.433
20
-99.9531
11
155.147
21
-99.8103
0
LINE
8
BLACK
6
CONTINUOUS
10
155.147
20
-99.8103
11
155.004
21
-99.6674
0
LINE
8
BLACK
6
CONTINUOUS
10
155.004
20
-99.6674
11
154.861
21
-99.3817
0
LINE
8
BLACK
6
CONTINUOUS
10
154.861
20
-99.3817
11
154.718
21
-98.8103
0
LINE
8
BLACK
6
CONTINUOUS
10
154.718
20
-98.8103
11
154.718
21
-98.096
0
LINE
8
BLACK
6
CONTINUOUS
10
154.718
20
-98.096
11
154.861
21
-97.5246
0
LINE
8
BLACK
6
CONTINUOUS
10
154.861
20
-97.5246
11
155.004
21
-97.2389
0
LINE
8
BLACK
6
CONTINUOUS
10
155.004
20
-97.2389
11
155.147
21
-97.096
0
LINE
8
BLACK
6
CONTINUOUS
10
155.147
20
-97.096
11
155.433
21
-96.9531
0
LINE
8
BLACK
6
CONTINUOUS
10
159.004
20
-97.9531
11
159.004
21
-99.9531
0
LINE
8
BLACK
6
CONTINUOUS
10
158.29
20
-96.8103
11
157.576
21
-98.9531
0
LINE
8
BLACK
6
CONTINUOUS
10
157.576
20
-98.9531
11
159.433
21
-98.9531
0
LINE
8
BLACK
6
CONTINUOUS
10
160.29
20
-96.9531
11
162.29
21
-96.9531
0
LINE
8
BLACK
6
CONTINUOUS
10
162.29
20
-96.9531
11
161.004
21
-99.9531
0
LINE
8
BLACK
6
CONTINUOUS
10
163.29
20
-96.9531
11
163.29
21
-97.5246
0
LINE
8
BLACK
6
CONTINUOUS
10
164.433
20
-96.9531
11
164.433
21
-97.5246
0
LINE
8
BLACK
6
CONTINUOUS
10
168.861
20
-101.096
11
168.718
21
-100.953
0
LINE
8
BLACK
6
CONTINUOUS
10
168.718
20
-100.953
11
168.433
21
-100.525
0
LINE
8
BLACK
6
CONTINUOUS
10
168.433
20
-100.525
11
168.29
21
-100.239
0
LINE
8
BLACK
6
CONTINUOUS
10
168.29
20
-100.239
11
168.147
21
-99.8103
0
LINE
8
BLACK
6
CONTINUOUS
10
168.147
20
-99.8103
11
168.004
21
-99.096
0
LINE
8
BLACK
6
CONTINUOUS
10
168.004
20
-99.096
11
168.004
21
-98.5246
0
LINE
8
BLACK
6
CONTINUOUS
10
168.004
20
-98.5246
11
168.147
21
-97.8103
0
LINE
8
BLACK
6
CONTINUOUS
10
168.147
20
-97.8103
11
168.29
21
-97.3817
0
LINE
8
BLACK
6
CONTINUOUS
10
168.29
20
-97.3817
11
168.433
21
-97.096
0
LINE
8
BLACK
6
CONTINUOUS
10
168.433
20
-97.096
11
168.718
21
-96.6674
0
LINE
8
BLACK
6
CONTINUOUS
10
168.718
20
-96.6674
11
168.861
21
-96.5246
0
LINE
8
BLACK
6
CONTINUOUS
10
171.433
20
-96.9531
11
170.004
21
-96.9531
0
LINE
8
BLACK
6
CONTINUOUS
10
170.004
20
-96.9531
11
169.861
21
-98.3817
0
LINE
8
BLACK
6
CONTINUOUS
10
169.861
20
-98.3817
11
170.004
21
-98.2389
0
LINE
8
BLACK
6
CONTINUOUS
10
170.004
20
-98.2389
11
170.29
21
-98.096
0
LINE
8
BLACK
6
CONTINUOUS
10
170.29
20
-98.096
11
171.004
21
-98.096
0
LINE
8
BLACK
6
CONTINUOUS
10
171.004
20
-98.096
11
171.29
21
-98.2389
0
LINE
8
BLACK
6
CONTINUOUS
10
171.29
20
-98.2389
11
171.433
21
-98.3817
0
LINE
8
BLACK
6
CONTINUOUS
10
171.433
20
-98.3817
11
171.576
21
-98.6674
0
LINE
8
BLACK
6
CONTINUOUS
10
171.576
20
-98.6674
11
171.576
21
-99.3817
0
LINE
8
BLACK
6
CONTINUOUS
10
171.576
20
-99.3817
11
171.433
21
-99.6674
0
LINE
8
BLACK
6
CONTINUOUS
10
171.433
20
-99.6674
11
171.29
21
-99.8103
0
LINE
8
BLACK
6
CONTINUOUS
10
171.29
20
-99.8103
11
171.004
21
-99.9531
0
LINE
8
BLACK
6
CONTINUOUS
10
171.004
20
-99.9531
11
170.29
21
-99.9531
0
LINE
8
BLACK
6
CONTINUOUS
10
170.29
20
-99.9531
11
170.004
21
-99.8103
0
LINE
8
BLACK
6
CONTINUOUS
10
170.004
20
-99.8103
11
169.861
21
-99.6674
0
LINE
8
BLACK
6
CONTINUOUS
10
172.576
20
-96.9531
11
174.433
21
-96.9531
0
LINE
8
BLACK
6
CONTINUOUS
10
174.433
20
-96.9531
11
173.433
21
-98.096
0
LINE
8
BLACK
6
CONTINUOUS
10
173.433
20
-98.096
11
173.861
21
-98.096
0
LINE
8
BLACK
6
CONTINUOUS
10
173.861
20
-98.096
11
174.147
21
-98.2389
0
LINE
8
BLACK
6
CONTINUOUS
10
174.147
20
-98.2389
11
174.29
21
-98.3817
0
LINE
8
BLACK
6
CONTINUOUS
10
174.29
20
-98.3817
11
174.433
21
-98.6674
0
LINE
8
BLACK
6
CONTINUOUS
10
174.433
20
-98.6674
11
174.433
21
-99.3817
0
LINE
8
BLACK
6
CONTINUOUS
10
174.433
20
-99.3817
11
174.29
21
-99.6674
0
LINE
8
BLACK
6
CONTINUOUS
10
174.29
20
-99.6674
11
174.147
21
-99.8103
0
LINE
8
BLACK
6
CONTINUOUS
10
174.147
20
-99.8103
11
173.861
21
-99.9531
0
LINE
8
BLACK
6
CONTINUOUS
10
173.861
20
-99.9531
11
173.004
21
-99.9531
0
LINE
8
BLACK
6
CONTINUOUS
10
173.004
20
-99.9531
11
172.718
21
-99.8103
0
LINE
8
BLACK
6
CONTINUOUS
10
172.718
20
-99.8103
11
172.576
21
-99.6674
0
LINE
8
BLACK
6
CONTINUOUS
10
178.004
20
-99.9531
11
178.004
21
-96.9531
0
LINE
8
BLACK
6
CONTINUOUS
10
179.29
20
-99.9531
11
179.29
21
-98.3817
0
LINE
8
BLACK
6
CONTINUOUS
10
179.29
20
-98.3817
11
179.147
21
-98.096
0
LINE
8
BLACK
6
CONTINUOUS
10
179.147
20
-98.096
11
178.861
21
-97.9531
0
LINE
8
BLACK
6
CONTINUOUS
10
178.861
20
-97.9531
11
178.433
21
-97.9531
0
LINE
8
BLACK
6
CONTINUOUS
10
178.433
20
-97.9531
11
178.147
21
-98.096
0
LINE
8
BLACK
6
CONTINUOUS
10
178.147
20
-98.096
11
178.004
21
-98.2389
0
LINE
8
BLACK
6
CONTINUOUS
10
181.147
20
-99.9531
11
180.861
21
-99.8103
0
LINE
8
BLACK
6
CONTINUOUS
10
180.861
20
-99.8103
11
180.718
21
-99.6674
0
LINE
8
BLACK
6
CONTINUOUS
10
180.718
20
-99.6674
11
180.576
21
-99.3817
0
LINE
8
BLACK
6
CONTINUOUS
10
180.576
20
-99.3817
11
180.576
21
-98.5246
0
LINE
8
BLACK
6
CONTINUOUS
10
180.576
20
-98.5246
11
180.718
21
-98.2389
0
LINE
8
BLACK
6
CONTINUOUS
10
180.718
20
-98.2389
11
180.861
21
-98.096
0
LINE
8
BLACK
6
CONTINUOUS
10
180.861
20
-98.096
11
181.147
21
-97.9531
0
LINE
8
BLACK
6
CONTINUOUS
10
181.147
20
-97.9531
11
181.576
21
-97.9531
0
LINE
8
BLACK
6
CONTINUOUS
10
181.576
20
-97.9531
11
181.861
21
-98.096
0
LINE
8
BLACK
6
CONTINUOUS
10
181.861
20
-98.096
11
182.004
21
-98.2389
0
LINE
8
BLACK
6
CONTINUOUS
10
182.004
20
-98.2389
11
182.147
21
-98.5246
0
LINE
8
BLACK
6
CONTINUOUS
10
182.147
20
-98.5246
11
182.147
21
-99.3817
0
LINE
8
BLACK
6
CONTINUOUS
10
182.147
20
-99.3817
11
182.004
21
-99.6674
0
LINE
8
BLACK
6
CONTINUOUS
10
182.004
20
-99.6674
11
181.861
21
-99.8103
0
LINE
8
BLACK
6
CONTINUOUS
10
181.861
20
-99.8103
11
181.576
21
-99.9531
0
LINE
8
BLACK
6
CONTINUOUS
10
181.576
20
-99.9531
11
181.147
21
-99.9531
0
LINE
8
BLACK
6
CONTINUOUS
10
183.861
20
-99.9531
11
183.576
21
-99.8103
0
LINE
8
BLACK
6
CONTINUOUS
10
183.576
20
-99.8103
11
183.433
21
-99.5246
0
LINE
8
BLACK
6
CONTINUOUS
10
183.433
20
-99.5246
11
183.433
21
-96.9531
0
LINE
8
BLACK
6
CONTINUOUS
10
186.147
20
-99.8103
11
185.861
21
-99.9531
0
LINE
8
BLACK
6
CONTINUOUS
10
185.861
20
-99.9531
11
185.29
21
-99.9531
0
LINE
8
BLACK
6
CONTINUOUS
10
185.29
20
-99.9531
11
185.004
21
-99.8103
0
LINE
8
BLACK
6
CONTINUOUS
10
185.004
20
-99.8103
11
184.861
21
-99.5246
0
LINE
8
BLACK
6
CONTINUOUS
10
184.861
20
-99.5246
11
184.861
21
-98.3817
0
LINE
8
BLACK
6
CONTINUOUS
10
184.861
20
-98.3817
11
185.004
21
-98.096
0
LINE
8
BLACK
6
CONTINUOUS
10
185.004
20
-98.096
11
185.29
21
-97.9531
0
LINE
8
BLACK
6
CONTINUOUS
10
185.29
20
-97.9531
11
185.861
21
-97.9531
0
LINE
8
BLACK
6
CONTINUOUS
10
185.861
20
-97.9531
11
186.147
21
-98.096
0
LINE
8
BLACK
6
CONTINUOUS
10
186.147
20
-98.096
11
186.29
21
-98.3817
0
LINE
8
BLACK
6
CONTINUOUS
10
186.29
20
-98.3817
11
186.29
21
-98.6674
0
LINE
8
BLACK
6
CONTINUOUS
10
186.29
20
-98.6674
11
184.861
21
-98.9531
0
LINE
8
BLACK
6
CONTINUOUS
10
187.433
20
-99.8103
11
187.718
21
-99.9531
0
LINE
8
BLACK
6
CONTINUOUS
10
187.718
20
-99.9531
11
188.29
21
-99.9531
0
LINE
8
BLACK
6
CONTINUOUS
10
188.29
20
-99.9531
11
188.576
21
-99.8103
0
LINE
8
BLACK
6
CONTINUOUS
10
188.576
20
-99.8103
11
188.718
21
-99.5246
0
LINE
8
BLACK
6
CONTINUOUS
10
188.718
20
-99.5246
11
188.718
21
-99.3817
0
LINE
8
BLACK
6
CONTINUOUS
10
188.718
20
-99.3817
11
188.576
21
-99.096
0
LINE
8
BLACK
6
CONTINUOUS
10
188.576
20
-99.096
11
188.29
21
-98.9531
0
LINE
8
BLACK
6
CONTINUOUS
10
188.29
20
-98.9531
11
187.861
21
-98.9531
0
LINE
8
BLACK
6
CONTINUOUS
10
187.861
20
-98.9531
11
187.576
21
-98.8103
0
LINE
8
BLACK
6
CONTINUOUS
10
187.576
20
-98.8103
11
187.433
21
-98.5246
0
LINE
8
BLACK
6
CONTINUOUS
10
187.433
20
-98.5246
11
187.433
21
-98.3817
0
LINE
8
BLACK
6
CONTINUOUS
10
187.433
20
-98.3817
11
187.576
21
-98.096
0
LINE
8
BLACK
6
CONTINUOUS
10
187.576
20
-98.096
11
187.861
21
-97.9531
0
LINE
8
BLACK
6
CONTINUOUS
10
187.861
20
-97.9531
11
188.29
21
-97.9531
0
LINE
8
BLACK
6
CONTINUOUS
10
188.29
20
-97.9531
11
188.576
21
-98.096
0
LINE
8
BLACK
6
CONTINUOUS
10
189.718
20
-101.096
11
189.861
21
-100.953
0
LINE
8
BLACK
6
CONTINUOUS
10
189.861
20
-100.953
11
190.147
21
-100.525
0
LINE
8
BLACK
6
CONTINUOUS
10
190.147
20
-100.525
11
190.29
21
-100.239
0
LINE
8
BLACK
6
CONTINUOUS
10
190.29
20
-100.239
11
190.433
21
-99.8103
0
LINE
8
BLACK
6
CONTINUOUS
10
190.433
20
-99.8103
11
190.576
21
-99.096
0
LINE
8
BLACK
6
CONTINUOUS
10
190.576
20
-99.096
11
190.576
21
-98.5246
0
LINE
8
BLACK
6
CONTINUOUS
10
190.576
20
-98.5246
11
190.433
21
-97.8103
0
LINE
8
BLACK
6
CONTINUOUS
10
190.433
20
-97.8103
11
190.29
21
-97.3817
0
LINE
8
BLACK
6
CONTINUOUS
10
190.29
20
-97.3817
11
190.147
21
-97.096
0
LINE
8
BLACK
6
CONTINUOUS
10
190.147
20
-97.096
11
189.861
21
-96.6674
0
LINE
8
BLACK
6
CONTINUOUS
10
189.861
20
-96.6674
11
189.718
21
-96.5246
  0
ENDSEC
  0
EOF
