G04 #@! TF.GenerationSoftware,KiCad,Pcbnew,(5.1.5-0-10_14)*
G04 #@! TF.CreationDate,2020-05-20T14:42:11+10:00*
G04 #@! TF.ProjectId,Buttons_DDI,42757474-6f6e-4735-9f44-44492e6b6963,rev?*
G04 #@! TF.SameCoordinates,Original*
G04 #@! TF.FileFunction,Copper,L2,Bot*
G04 #@! TF.FilePolarity,Positive*
%FSLAX46Y46*%
G04 Gerber Fmt 4.6, Leading zero omitted, Abs format (unit mm)*
G04 Created by KiCad (PCBNEW (5.1.5-0-10_14)) date 2020-05-20 14:42:11*
%MOMM*%
%LPD*%
G04 APERTURE LIST*
%ADD10C,0.200000*%
%ADD11C,0.100000*%
%ADD12O,1.800000X1.800000*%
%ADD13R,1.800000X1.800000*%
%ADD14O,1.600000X1.600000*%
%ADD15C,1.600000*%
%ADD16C,1.800000*%
%ADD17O,1.700000X1.700000*%
%ADD18R,1.700000X1.700000*%
%ADD19C,1.524000*%
%ADD20C,0.800000*%
%ADD21C,0.250000*%
G04 APERTURE END LIST*
D10*
X30987380Y-164503100D02*
G75*
G03X30987380Y-164503100I-5000000J0D01*
G01*
X60587233Y-17986375D02*
G75*
G03X60587233Y-17986375I-1352550J0D01*
G01*
X83693000Y-25019000D02*
X109093000Y-25019000D01*
X112268000Y-21844000D02*
G75*
G02X109093000Y-25019000I-3175000J0D01*
G01*
X173148629Y-113792000D02*
G75*
G03X173148629Y-113792000I-1352550J0D01*
G01*
X50604140Y-161734500D02*
G75*
G02X34163000Y-145293360I0J16441140D01*
G01*
X158864300Y-174434500D02*
G75*
G03X158864300Y-174434500I-1352550J0D01*
G01*
X36626800Y-174434500D02*
G75*
G03X36626800Y-174434500I-1352550J0D01*
G01*
X158623000Y-145293360D02*
X158623000Y-53715640D01*
X142181860Y-37274500D02*
G75*
G02X158623000Y-53715640I0J-16441140D01*
G01*
X142181860Y-37274500D02*
X50604140Y-37274500D01*
X50604140Y-161734500D02*
X142181860Y-161734500D01*
X171798621Y-164503100D02*
G75*
G03X171798621Y-164503100I-5000000J0D01*
G01*
X126464426Y-9144000D02*
X112268000Y-9144000D01*
X126464426Y-9144000D02*
G75*
G02X126799582Y-9270248I0J-508000D01*
G01*
X17303750Y-52240798D02*
X17303750Y-176022000D01*
X17811750Y-176530000D02*
X174974250Y-176530000D01*
X175309406Y-51859046D02*
X126799582Y-9270248D01*
X175309406Y-51859046D02*
G75*
G02X175482250Y-52240798I-335156J-381752D01*
G01*
X158623000Y-145293360D02*
G75*
G02X142181860Y-161734500I-16441140J0D01*
G01*
X34163000Y-53715640D02*
X34163000Y-145293360D01*
X65986418Y-9270248D02*
G75*
G02X66321574Y-9144000I335156J-381752D01*
G01*
X134903867Y-17986375D02*
G75*
G03X134903867Y-17986375I-1352550J0D01*
G01*
X22342471Y-113792000D02*
G75*
G03X22342471Y-113792000I-1352550J0D01*
G01*
X175482250Y-176022000D02*
X175482250Y-52240798D01*
X175482250Y-176022000D02*
G75*
G02X174974250Y-176530000I-508000J0D01*
G01*
X17303750Y-52240798D02*
G75*
G02X17476594Y-51859046I508000J0D01*
G01*
X80518000Y-9144000D02*
X66321574Y-9144000D01*
X112268000Y-21844000D02*
X112268000Y-9144000D01*
X34163000Y-53715640D02*
G75*
G02X50604140Y-37274500I16441140J0D01*
G01*
X17811750Y-176530000D02*
G75*
G02X17303750Y-176022000I0J508000D01*
G01*
X65986418Y-9270248D02*
X17476594Y-51859046D01*
X80518000Y-9144000D02*
X80518000Y-21844000D01*
X83693000Y-25019000D02*
G75*
G02X80518000Y-21844000I0J3175000D01*
G01*
D11*
X18938666Y-176530000D02*
G75*
G03X18938666Y-176530000I-1666666J0D01*
G01*
X14772000Y-176530000D02*
X19772000Y-176530000D01*
X17272000Y-174030000D02*
X17272000Y-179030000D01*
D12*
X19562000Y-87570000D03*
D13*
X19562000Y-79950000D03*
D14*
X134722000Y-174080000D03*
D15*
X127102000Y-174080000D03*
D14*
X74672000Y-20230000D03*
D15*
X67052000Y-20230000D03*
D14*
X123862000Y-22540000D03*
D15*
X116242000Y-22540000D03*
D14*
X173382000Y-94820000D03*
D15*
X173382000Y-87200000D03*
D14*
X49572000Y-173550000D03*
D15*
X41952000Y-173550000D03*
D14*
X150792000Y-174320000D03*
D15*
X143172000Y-174320000D03*
D14*
X19482000Y-139280000D03*
D15*
X19482000Y-131660000D03*
D14*
X19782000Y-62330000D03*
D15*
X19782000Y-54710000D03*
D16*
X157722000Y-163690000D03*
D13*
X155182000Y-163690000D03*
D16*
X38962000Y-164630000D03*
D13*
X36422000Y-164630000D03*
D17*
X78232000Y-22860000D03*
D18*
X78232000Y-20320000D03*
D17*
X123952000Y-12700000D03*
X121412000Y-12700000D03*
X118872000Y-12700000D03*
D18*
X116332000Y-12700000D03*
D17*
X76962000Y-11430000D03*
X74422000Y-11430000D03*
X71882000Y-11430000D03*
X69342000Y-11430000D03*
D18*
X66802000Y-11430000D03*
D12*
X126962000Y-22680000D03*
D13*
X134582000Y-22680000D03*
D17*
X62992000Y-22860000D03*
D18*
X62992000Y-20320000D03*
D17*
X76962000Y-15240000D03*
X74422000Y-15240000D03*
X71882000Y-15240000D03*
X69342000Y-15240000D03*
D18*
X66802000Y-15240000D03*
D17*
X123952000Y-17780000D03*
X121412000Y-17780000D03*
X118872000Y-17780000D03*
D18*
X116332000Y-17780000D03*
D17*
X27432000Y-154940000D03*
X24892000Y-154940000D03*
D18*
X22352000Y-154940000D03*
D17*
X169672000Y-153670000D03*
X167132000Y-153670000D03*
D18*
X164592000Y-153670000D03*
D12*
X62012000Y-35180000D03*
D13*
X69632000Y-35180000D03*
D12*
X82542000Y-35040000D03*
D13*
X90162000Y-35040000D03*
D12*
X102772000Y-35180000D03*
D13*
X110392000Y-35180000D03*
D12*
X123292000Y-35040000D03*
D13*
X130912000Y-35040000D03*
D12*
X162442000Y-52990000D03*
D13*
X170062000Y-52990000D03*
D12*
X173382000Y-70360000D03*
D13*
X173382000Y-62740000D03*
D12*
X173382000Y-82590000D03*
D13*
X173382000Y-74970000D03*
D12*
X173482000Y-106680000D03*
D13*
X173482000Y-99060000D03*
D12*
X173382000Y-129590000D03*
D13*
X173382000Y-121970000D03*
D12*
X173142000Y-144940000D03*
D13*
X173142000Y-137320000D03*
D12*
X62172000Y-174110000D03*
D13*
X69792000Y-174110000D03*
D12*
X115402000Y-174080000D03*
D13*
X123022000Y-174080000D03*
D12*
X102692000Y-174110000D03*
D13*
X110312000Y-174110000D03*
D12*
X89982000Y-174350000D03*
D13*
X97602000Y-174350000D03*
D12*
X77762000Y-174350000D03*
D13*
X85382000Y-174350000D03*
D12*
X19672000Y-75740000D03*
D13*
X19672000Y-68120000D03*
D12*
X19482000Y-149750000D03*
D13*
X19482000Y-142130000D03*
D12*
X19812000Y-128270000D03*
D13*
X19812000Y-120650000D03*
D12*
X19752000Y-105310000D03*
D13*
X19752000Y-97690000D03*
D19*
X76042000Y-27411000D03*
X76042000Y-33761000D03*
X72867000Y-28681000D03*
X79217000Y-28681000D03*
X72867000Y-33126000D03*
X79217000Y-33126000D03*
X96362000Y-27411000D03*
X96362000Y-33761000D03*
X93187000Y-28681000D03*
X99537000Y-28681000D03*
X93187000Y-33126000D03*
X99537000Y-33126000D03*
X116682000Y-27411000D03*
X116682000Y-33761000D03*
X113507000Y-28681000D03*
X119857000Y-28681000D03*
X113507000Y-33126000D03*
X119857000Y-33126000D03*
X137002000Y-27411000D03*
X137002000Y-33761000D03*
X133827000Y-28681000D03*
X140177000Y-28681000D03*
X133827000Y-33126000D03*
X140177000Y-33126000D03*
X163333000Y-62990000D03*
X169683000Y-62990000D03*
X164603000Y-66165000D03*
X164603000Y-59815000D03*
X169048000Y-66165000D03*
X169048000Y-59815000D03*
X163333000Y-83310000D03*
X169683000Y-83310000D03*
X164603000Y-86485000D03*
X164603000Y-80135000D03*
X169048000Y-86485000D03*
X169048000Y-80135000D03*
X163333000Y-103630000D03*
X169683000Y-103630000D03*
X164603000Y-106805000D03*
X164603000Y-100455000D03*
X169048000Y-106805000D03*
X169048000Y-100455000D03*
X170191000Y-123950000D03*
X163841000Y-123950000D03*
X168921000Y-120775000D03*
X168921000Y-127125000D03*
X164476000Y-120775000D03*
X164476000Y-127125000D03*
X163333000Y-144270000D03*
X169683000Y-144270000D03*
X164603000Y-147445000D03*
X164603000Y-141095000D03*
X169048000Y-147445000D03*
X169048000Y-141095000D03*
X137002000Y-164741000D03*
X137002000Y-171091000D03*
X133827000Y-166011000D03*
X140177000Y-166011000D03*
X133827000Y-170456000D03*
X140177000Y-170456000D03*
X116682000Y-164741000D03*
X116682000Y-171091000D03*
X113507000Y-166011000D03*
X119857000Y-166011000D03*
X113507000Y-170456000D03*
X119857000Y-170456000D03*
X96362000Y-164741000D03*
X96362000Y-171091000D03*
X93187000Y-166011000D03*
X99537000Y-166011000D03*
X93187000Y-170456000D03*
X99537000Y-170456000D03*
X76042000Y-164741000D03*
X76042000Y-171091000D03*
X72867000Y-166011000D03*
X79217000Y-166011000D03*
X72867000Y-170456000D03*
X79217000Y-170456000D03*
X55722000Y-164741000D03*
X55722000Y-171091000D03*
X52547000Y-166011000D03*
X58897000Y-166011000D03*
X52547000Y-170456000D03*
X58897000Y-170456000D03*
X22523000Y-144270000D03*
X28873000Y-144270000D03*
X23793000Y-147445000D03*
X23793000Y-141095000D03*
X28238000Y-147445000D03*
X28238000Y-141095000D03*
X22523000Y-123950000D03*
X28873000Y-123950000D03*
X23793000Y-127125000D03*
X23793000Y-120775000D03*
X28238000Y-127125000D03*
X28238000Y-120775000D03*
X22523000Y-103630000D03*
X28873000Y-103630000D03*
X23793000Y-106805000D03*
X23793000Y-100455000D03*
X28238000Y-106805000D03*
X28238000Y-100455000D03*
X22523000Y-83310000D03*
X28873000Y-83310000D03*
X23793000Y-86485000D03*
X23793000Y-80135000D03*
X28238000Y-86485000D03*
X28238000Y-80135000D03*
X22523000Y-62990000D03*
X28873000Y-62990000D03*
X23793000Y-66165000D03*
X23793000Y-59815000D03*
X28238000Y-66165000D03*
X28238000Y-59815000D03*
X55722000Y-27411000D03*
X55722000Y-33761000D03*
X52547000Y-28681000D03*
X58897000Y-28681000D03*
X52547000Y-33126000D03*
X58897000Y-33126000D03*
D20*
X88898100Y-31490300D03*
D21*
X78232000Y-21684700D02*
X79040100Y-21684700D01*
X79040100Y-21684700D02*
X79526600Y-21198200D01*
X79526600Y-21198200D02*
X79526600Y-14164900D01*
X79526600Y-14164900D02*
X78075400Y-12713700D01*
X78075400Y-12713700D02*
X72912800Y-12713700D01*
X72912800Y-12713700D02*
X72463200Y-13163300D01*
X72463200Y-13163300D02*
X66676500Y-13163300D01*
X66676500Y-13163300D02*
X65496900Y-14342900D01*
X65496900Y-14342900D02*
X65496900Y-15683300D01*
X65496900Y-15683300D02*
X62665600Y-18514600D01*
X62665600Y-18514600D02*
X62586000Y-18514600D01*
X62586000Y-18514600D02*
X61816700Y-19283900D01*
X61816700Y-19283900D02*
X61816700Y-22860000D01*
X96362000Y-27411000D02*
X108356200Y-27411000D01*
X108356200Y-27411000D02*
X111928300Y-30983100D01*
X111928300Y-30983100D02*
X145914700Y-30983100D01*
X145914700Y-30983100D02*
X165690400Y-50758800D01*
X165690400Y-50758800D02*
X165690400Y-60632600D01*
X165690400Y-60632600D02*
X163333000Y-62990000D01*
X61816700Y-22860000D02*
X57265700Y-27411000D01*
X57265700Y-27411000D02*
X55722000Y-27411000D01*
X62992000Y-22860000D02*
X61816700Y-22860000D01*
X78232000Y-22860000D02*
X78232000Y-21684700D01*
X116682000Y-164741000D02*
X112990900Y-164741000D01*
X112990900Y-164741000D02*
X109706700Y-168025200D01*
X109706700Y-168025200D02*
X90307700Y-168025200D01*
X90307700Y-168025200D02*
X89840500Y-167558000D01*
X89840500Y-167558000D02*
X52518000Y-167558000D01*
X52518000Y-167558000D02*
X51447200Y-166487200D01*
X51447200Y-166487200D02*
X51447200Y-165527400D01*
X51447200Y-165527400D02*
X52233600Y-164741000D01*
X52233600Y-164741000D02*
X55722000Y-164741000D01*
X163333000Y-62990000D02*
X162245600Y-64077400D01*
X162245600Y-64077400D02*
X162245600Y-116004600D01*
X162245600Y-116004600D02*
X170191000Y-123950000D01*
X22523000Y-83310000D02*
X29339500Y-90126500D01*
X29339500Y-90126500D02*
X29339500Y-103163500D01*
X29339500Y-103163500D02*
X28873000Y-103630000D01*
X163333000Y-103630000D02*
X163333000Y-89660000D01*
X163333000Y-89660000D02*
X169683000Y-83310000D01*
X163333000Y-83310000D02*
X163333000Y-69340000D01*
X163333000Y-69340000D02*
X169683000Y-62990000D01*
X55722000Y-33761000D02*
X62072000Y-27411000D01*
X62072000Y-27411000D02*
X76042000Y-27411000D01*
X28873000Y-62990000D02*
X20593000Y-54710000D01*
X20593000Y-54710000D02*
X19782000Y-54710000D01*
X28873000Y-123950000D02*
X25430200Y-123950000D01*
X25430200Y-123950000D02*
X22095400Y-127284800D01*
X22095400Y-127284800D02*
X22095400Y-129046600D01*
X22095400Y-129046600D02*
X19482000Y-131660000D01*
X137002000Y-171091000D02*
X140231000Y-174320000D01*
X140231000Y-174320000D02*
X143172000Y-174320000D01*
X76042000Y-171091000D02*
X71769000Y-175364000D01*
X71769000Y-175364000D02*
X43766000Y-175364000D01*
X43766000Y-175364000D02*
X41952000Y-173550000D01*
X28238000Y-80135000D02*
X27744000Y-80629000D01*
X27744000Y-80629000D02*
X27744000Y-85991000D01*
X27744000Y-85991000D02*
X28238000Y-86485000D01*
X28238000Y-80135000D02*
X27147800Y-79044800D01*
X27147800Y-79044800D02*
X21692500Y-79044800D01*
X21692500Y-79044800D02*
X20787300Y-79950000D01*
X19562000Y-79950000D02*
X20787300Y-79950000D01*
X28238000Y-100455000D02*
X25473000Y-97690000D01*
X25473000Y-97690000D02*
X19752000Y-97690000D01*
X27150600Y-142182400D02*
X20759700Y-142182400D01*
X20759700Y-142182400D02*
X20707300Y-142130000D01*
X28238000Y-141095000D02*
X27150600Y-142182400D01*
X28238000Y-147445000D02*
X27150600Y-146357600D01*
X27150600Y-146357600D02*
X27150600Y-142182400D01*
X19482000Y-142130000D02*
X20707300Y-142130000D01*
X28238000Y-66165000D02*
X26283000Y-68120000D01*
X26283000Y-68120000D02*
X19672000Y-68120000D01*
X79217000Y-170456000D02*
X78732300Y-169971300D01*
X78732300Y-169971300D02*
X73351700Y-169971300D01*
X73351700Y-169971300D02*
X72867000Y-170456000D01*
X119857000Y-170456000D02*
X119394300Y-169993300D01*
X119394300Y-169993300D02*
X113969700Y-169993300D01*
X113969700Y-169993300D02*
X113507000Y-170456000D01*
X124247300Y-174080000D02*
X127871300Y-170456000D01*
X127871300Y-170456000D02*
X133827000Y-170456000D01*
X140177000Y-170456000D02*
X139720300Y-169999300D01*
X139720300Y-169999300D02*
X134283700Y-169999300D01*
X134283700Y-169999300D02*
X133827000Y-170456000D01*
X123022000Y-174080000D02*
X124247300Y-174080000D01*
X69792000Y-174110000D02*
X68566700Y-174110000D01*
X58897000Y-170456000D02*
X64912700Y-170456000D01*
X64912700Y-170456000D02*
X68566700Y-174110000D01*
X169048000Y-141095000D02*
X171916700Y-138226300D01*
X171916700Y-138226300D02*
X171916700Y-137320000D01*
X169048000Y-147445000D02*
X168595600Y-146992600D01*
X168595600Y-146992600D02*
X168595600Y-141547400D01*
X168595600Y-141547400D02*
X169048000Y-141095000D01*
X173142000Y-137320000D02*
X171916700Y-137320000D01*
X165930500Y-125051700D02*
X165930500Y-122229500D01*
X165930500Y-122229500D02*
X164476000Y-120775000D01*
X164476000Y-127125000D02*
X165930500Y-125670500D01*
X165930500Y-125670500D02*
X165930500Y-125051700D01*
X165930500Y-125051700D02*
X171525600Y-125051700D01*
X171525600Y-125051700D02*
X173382000Y-123195300D01*
X173382000Y-121970000D02*
X173382000Y-123195300D01*
X173482000Y-99060000D02*
X172256700Y-99060000D01*
X169048000Y-100455000D02*
X170861700Y-100455000D01*
X170861700Y-100455000D02*
X172256700Y-99060000D01*
X140177000Y-33126000D02*
X139716700Y-32665700D01*
X139716700Y-32665700D02*
X134287300Y-32665700D01*
X134287300Y-32665700D02*
X133827000Y-33126000D01*
X130912000Y-35040000D02*
X129686700Y-35040000D01*
X129686700Y-35040000D02*
X127772700Y-33126000D01*
X127772700Y-33126000D02*
X119857000Y-33126000D01*
X119857000Y-33126000D02*
X119391500Y-32660500D01*
X119391500Y-32660500D02*
X113972500Y-32660500D01*
X113972500Y-32660500D02*
X113507000Y-33126000D01*
X99537000Y-33126000D02*
X99072000Y-32661000D01*
X99072000Y-32661000D02*
X93652000Y-32661000D01*
X93652000Y-32661000D02*
X93187000Y-33126000D01*
X109166700Y-35180000D02*
X107112700Y-33126000D01*
X107112700Y-33126000D02*
X99537000Y-33126000D01*
X110392000Y-35180000D02*
X109166700Y-35180000D01*
X79217000Y-33126000D02*
X87022700Y-33126000D01*
X87022700Y-33126000D02*
X88936700Y-35040000D01*
X72867000Y-33126000D02*
X73319400Y-32673600D01*
X73319400Y-32673600D02*
X78764600Y-32673600D01*
X78764600Y-32673600D02*
X79217000Y-33126000D01*
X90162000Y-35040000D02*
X88936700Y-35040000D01*
X120047300Y-17780000D02*
X120047300Y-18147400D01*
X120047300Y-18147400D02*
X121909000Y-20009100D01*
X121909000Y-20009100D02*
X126735800Y-20009100D01*
X126735800Y-20009100D02*
X128992200Y-22265500D01*
X128992200Y-22265500D02*
X128992200Y-25426300D01*
X128992200Y-25426300D02*
X133648200Y-30082300D01*
X133648200Y-30082300D02*
X146287700Y-30082300D01*
X146287700Y-30082300D02*
X166865700Y-50660300D01*
X166865700Y-50660300D02*
X166865700Y-55069900D01*
X166865700Y-55069900D02*
X171706300Y-59910500D01*
X171706300Y-59910500D02*
X171706300Y-79161300D01*
X171706300Y-79161300D02*
X175092800Y-82547800D01*
X175092800Y-82547800D02*
X175092800Y-145364600D01*
X175092800Y-145364600D02*
X166787400Y-153670000D01*
X24892000Y-154940000D02*
X26708500Y-156756500D01*
X26708500Y-156756500D02*
X33085600Y-156756500D01*
X33085600Y-156756500D02*
X48525700Y-172196600D01*
X48525700Y-172196600D02*
X56156900Y-172196600D01*
X56156900Y-172196600D02*
X57562000Y-170791500D01*
X57562000Y-170791500D02*
X57562000Y-170217200D01*
X57562000Y-170217200D02*
X58433200Y-169346000D01*
X58433200Y-169346000D02*
X80703000Y-169346000D01*
X80703000Y-169346000D02*
X83535400Y-172178400D01*
X83535400Y-172178400D02*
X124043300Y-172178400D01*
X124043300Y-172178400D02*
X129123300Y-167098400D01*
X129123300Y-167098400D02*
X149498500Y-167098400D01*
X149498500Y-167098400D02*
X161751600Y-154845300D01*
X161751600Y-154845300D02*
X165589500Y-154845300D01*
X165589500Y-154845300D02*
X165956700Y-154478100D01*
X165956700Y-154478100D02*
X165956700Y-153670000D01*
X118872000Y-17780000D02*
X120047300Y-17780000D01*
X166787400Y-153670000D02*
X165956700Y-153670000D01*
X167132000Y-153670000D02*
X166787400Y-153670000D01*
X117507300Y-17780000D02*
X117507300Y-18147200D01*
X117507300Y-18147200D02*
X120223300Y-20863200D01*
X120223300Y-20863200D02*
X126953000Y-20863200D01*
X126953000Y-20863200D02*
X128410000Y-22320200D01*
X128410000Y-22320200D02*
X128410000Y-25481000D01*
X128410000Y-25481000D02*
X133461700Y-30532700D01*
X133461700Y-30532700D02*
X146101200Y-30532700D01*
X146101200Y-30532700D02*
X166415400Y-50846900D01*
X166415400Y-50846900D02*
X166415400Y-55629700D01*
X166415400Y-55629700D02*
X170780800Y-59995100D01*
X170780800Y-59995100D02*
X170780800Y-88597500D01*
X170780800Y-88597500D02*
X167931500Y-91446800D01*
X167931500Y-91446800D02*
X167931500Y-103780100D01*
X167931500Y-103780100D02*
X174610700Y-110459300D01*
X174610700Y-110459300D02*
X174610700Y-124350900D01*
X174610700Y-124350900D02*
X165954000Y-133007600D01*
X165954000Y-133007600D02*
X165954000Y-151132700D01*
X165954000Y-151132700D02*
X164592000Y-152494700D01*
X116332000Y-17780000D02*
X117507300Y-17780000D01*
X164592000Y-153670000D02*
X164592000Y-152494700D01*
X27432000Y-154940000D02*
X26256700Y-154940000D01*
X26256700Y-154940000D02*
X26256700Y-154572600D01*
X26256700Y-154572600D02*
X25448800Y-153764700D01*
X25448800Y-153764700D02*
X21763800Y-153764700D01*
X21763800Y-153764700D02*
X17748200Y-149749100D01*
X17748200Y-149749100D02*
X17748200Y-86498100D01*
X17748200Y-86498100D02*
X22024600Y-82221700D01*
X22024600Y-82221700D02*
X22988600Y-82221700D01*
X22988600Y-82221700D02*
X23793000Y-83026100D01*
X23793000Y-83026100D02*
X23793000Y-83577700D01*
X23793000Y-83577700D02*
X27814100Y-87598800D01*
X27814100Y-87598800D02*
X28715200Y-87598800D01*
X28715200Y-87598800D02*
X30908500Y-85405500D01*
X30908500Y-85405500D02*
X30908500Y-45565200D01*
X30908500Y-45565200D02*
X41005200Y-35468500D01*
X41005200Y-35468500D02*
X58684300Y-35468500D01*
X58684300Y-35468500D02*
X62662500Y-31490300D01*
X62662500Y-31490300D02*
X88898100Y-31490300D01*
X22523000Y-144270000D02*
X22523000Y-147712700D01*
X22523000Y-147712700D02*
X30891400Y-156081100D01*
X30891400Y-156081100D02*
X33365300Y-156081100D01*
X33365300Y-156081100D02*
X46263700Y-168979500D01*
X46263700Y-168979500D02*
X53610500Y-168979500D01*
X53610500Y-168979500D02*
X55722000Y-171091000D01*
X66802000Y-12605300D02*
X66581700Y-12605300D01*
X66581700Y-12605300D02*
X62399500Y-16787500D01*
X62399500Y-16787500D02*
X62399500Y-18064300D01*
X62399500Y-18064300D02*
X62399400Y-18064300D01*
X62399400Y-18064300D02*
X61152700Y-19311000D01*
X61152700Y-19311000D02*
X61152700Y-20118200D01*
X61152700Y-20118200D02*
X60571200Y-20699700D01*
X60571200Y-20699700D02*
X54500200Y-20699700D01*
X54500200Y-20699700D02*
X30007900Y-45192000D01*
X30007900Y-45192000D02*
X30007900Y-65941300D01*
X30007900Y-65941300D02*
X20209200Y-75740000D01*
X20209200Y-75740000D02*
X19672000Y-75740000D01*
X66802000Y-11430000D02*
X66802000Y-12605300D01*
X19812000Y-128270000D02*
X19812000Y-127044700D01*
X19752000Y-105310000D02*
X19752000Y-106535300D01*
X19752000Y-106535300D02*
X18202500Y-108084800D01*
X18202500Y-108084800D02*
X18202500Y-125435200D01*
X18202500Y-125435200D02*
X19812000Y-127044700D01*
X19482000Y-149750000D02*
X19482000Y-148524700D01*
X19812000Y-128270000D02*
X19812000Y-129495300D01*
X19812000Y-129495300D02*
X18256700Y-131050600D01*
X18256700Y-131050600D02*
X18256700Y-147299400D01*
X18256700Y-147299400D02*
X19482000Y-148524700D01*
X102772000Y-35180000D02*
X101546700Y-35180000D01*
X82542000Y-35040000D02*
X83767300Y-35040000D01*
X83767300Y-35040000D02*
X85010000Y-36282700D01*
X85010000Y-36282700D02*
X100444000Y-36282700D01*
X100444000Y-36282700D02*
X101546700Y-35180000D01*
X81929400Y-35040000D02*
X82542000Y-35040000D01*
X81929400Y-35040000D02*
X81316700Y-35040000D01*
X62012000Y-35180000D02*
X63237300Y-35180000D01*
X81316700Y-35040000D02*
X79951400Y-36405300D01*
X79951400Y-36405300D02*
X64462600Y-36405300D01*
X64462600Y-36405300D02*
X63237300Y-35180000D01*
X173382000Y-70360000D02*
X173382000Y-69134700D01*
X71882000Y-11430000D02*
X73057300Y-11430000D01*
X73057300Y-11430000D02*
X73057300Y-11062700D01*
X73057300Y-11062700D02*
X73870000Y-10250000D01*
X73870000Y-10250000D02*
X77514500Y-10250000D01*
X77514500Y-10250000D02*
X80148300Y-12883800D01*
X80148300Y-12883800D02*
X80148300Y-23267600D01*
X80148300Y-23267600D02*
X82274500Y-25393800D01*
X82274500Y-25393800D02*
X110518700Y-25393800D01*
X110518700Y-25393800D02*
X114518300Y-21394200D01*
X114518300Y-21394200D02*
X114518300Y-12341400D01*
X114518300Y-12341400D02*
X115879500Y-10980200D01*
X115879500Y-10980200D02*
X121354600Y-10980200D01*
X121354600Y-10980200D02*
X122682000Y-12307600D01*
X122682000Y-12307600D02*
X122682000Y-13146700D01*
X122682000Y-13146700D02*
X123940400Y-14405100D01*
X123940400Y-14405100D02*
X125867500Y-14405100D01*
X125867500Y-14405100D02*
X132433100Y-20970700D01*
X132433100Y-20970700D02*
X137909700Y-20970700D01*
X137909700Y-20970700D02*
X167316100Y-50377100D01*
X167316100Y-50377100D02*
X167316100Y-54215400D01*
X167316100Y-54215400D02*
X172156700Y-59056000D01*
X172156700Y-59056000D02*
X172156700Y-67909400D01*
X172156700Y-67909400D02*
X173382000Y-69134700D01*
X173142000Y-144940000D02*
X173142000Y-143714700D01*
X173382000Y-129590000D02*
X173382000Y-130815300D01*
X173382000Y-130815300D02*
X174367300Y-131800600D01*
X174367300Y-131800600D02*
X174367300Y-142489400D01*
X174367300Y-142489400D02*
X173142000Y-143714700D01*
X89982000Y-174350000D02*
X88756700Y-174350000D01*
X77762000Y-174350000D02*
X78987300Y-174350000D01*
X78987300Y-174350000D02*
X80212600Y-173124700D01*
X80212600Y-173124700D02*
X87531400Y-173124700D01*
X87531400Y-173124700D02*
X88756700Y-174350000D01*
X102692000Y-174110000D02*
X101466700Y-174110000D01*
X89982000Y-174350000D02*
X91207300Y-174350000D01*
X91207300Y-174350000D02*
X92432600Y-173124700D01*
X92432600Y-173124700D02*
X100481400Y-173124700D01*
X100481400Y-173124700D02*
X101466700Y-174110000D01*
X115402000Y-174080000D02*
X114176700Y-174080000D01*
X102692000Y-174110000D02*
X103917300Y-174110000D01*
X103917300Y-174110000D02*
X105142700Y-175335400D01*
X105142700Y-175335400D02*
X112921300Y-175335400D01*
X112921300Y-175335400D02*
X114176700Y-174080000D01*
X72615800Y-22518200D02*
X72728400Y-22518200D01*
X72728400Y-22518200D02*
X77803800Y-27593600D01*
X77803800Y-27593600D02*
X86027200Y-27593600D01*
X86027200Y-27593600D02*
X90317100Y-31883500D01*
X90317100Y-31883500D02*
X146178200Y-31883500D01*
X146178200Y-31883500D02*
X164603000Y-50308300D01*
X164603000Y-50308300D02*
X164603000Y-59815000D01*
X58897000Y-28681000D02*
X59533900Y-28681000D01*
X59533900Y-28681000D02*
X65696600Y-22518300D01*
X65696600Y-22518300D02*
X65696600Y-22518200D01*
X65696600Y-22518200D02*
X72615800Y-22518200D01*
X76962000Y-16415300D02*
X75614700Y-16415300D01*
X75614700Y-16415300D02*
X72615800Y-19414200D01*
X72615800Y-19414200D02*
X72615800Y-22518200D01*
X76962000Y-15240000D02*
X76962000Y-16415300D01*
X58897000Y-28681000D02*
X58584200Y-28993800D01*
X58584200Y-28993800D02*
X52859800Y-28993800D01*
X52859800Y-28993800D02*
X52547000Y-28681000D01*
X133827000Y-166011000D02*
X128557000Y-166011000D01*
X128557000Y-166011000D02*
X125642200Y-168925800D01*
X125642200Y-168925800D02*
X80919700Y-168925800D01*
X80919700Y-168925800D02*
X80452500Y-168458600D01*
X80452500Y-168458600D02*
X47148500Y-168458600D01*
X47148500Y-168458600D02*
X26134900Y-147445000D01*
X26134900Y-147445000D02*
X23793000Y-147445000D01*
X140177000Y-166011000D02*
X133827000Y-166011000D01*
X23793000Y-127125000D02*
X30461700Y-133793700D01*
X30461700Y-133793700D02*
X30461700Y-150876300D01*
X30461700Y-150876300D02*
X47593700Y-168008300D01*
X47593700Y-168008300D02*
X88668600Y-168008300D01*
X88668600Y-168008300D02*
X89135800Y-168475500D01*
X89135800Y-168475500D02*
X111042500Y-168475500D01*
X111042500Y-168475500D02*
X113507000Y-166011000D01*
X113507000Y-166011000D02*
X119857000Y-166011000D01*
X71882000Y-15240000D02*
X73057300Y-15240000D01*
X73057300Y-15240000D02*
X73057300Y-14916200D01*
X73057300Y-14916200D02*
X73908900Y-14064600D01*
X73908900Y-14064600D02*
X77515600Y-14064600D01*
X77515600Y-14064600D02*
X78175700Y-14724700D01*
X78175700Y-14724700D02*
X78175700Y-15864500D01*
X78175700Y-15864500D02*
X75962300Y-18077900D01*
X75962300Y-18077900D02*
X74589000Y-18077900D01*
X74589000Y-18077900D02*
X73066100Y-19600800D01*
X73066100Y-19600800D02*
X73066100Y-20967300D01*
X73066100Y-20967300D02*
X78898100Y-26799300D01*
X78898100Y-26799300D02*
X91305300Y-26799300D01*
X91305300Y-26799300D02*
X93187000Y-28681000D01*
X93187000Y-28681000D02*
X99537000Y-28681000D01*
X23793000Y-106805000D02*
X32277500Y-115289500D01*
X32277500Y-115289500D02*
X32277500Y-151370800D01*
X32277500Y-151370800D02*
X44109400Y-163202700D01*
X44109400Y-163202700D02*
X90378700Y-163202700D01*
X90378700Y-163202700D02*
X93187000Y-166011000D01*
X113507000Y-28681000D02*
X111149700Y-26323700D01*
X111149700Y-26323700D02*
X79068700Y-26323700D01*
X79068700Y-26323700D02*
X73535200Y-20790200D01*
X73535200Y-20790200D02*
X73535200Y-19768600D01*
X73535200Y-19768600D02*
X74512900Y-18790900D01*
X74512900Y-18790900D02*
X75886200Y-18790900D01*
X75886200Y-18790900D02*
X78626000Y-16051100D01*
X78626000Y-16051100D02*
X78626000Y-14538100D01*
X78626000Y-14538100D02*
X77702200Y-13614300D01*
X77702200Y-13614300D02*
X73286100Y-13614300D01*
X73286100Y-13614300D02*
X72835800Y-14064600D01*
X72835800Y-14064600D02*
X71325400Y-14064600D01*
X71325400Y-14064600D02*
X70517300Y-14872700D01*
X70517300Y-14872700D02*
X70517300Y-15240000D01*
X69342000Y-15240000D02*
X70517300Y-15240000D01*
X69342000Y-15240000D02*
X69342000Y-19561300D01*
X69342000Y-19561300D02*
X66835500Y-22067800D01*
X66835500Y-22067800D02*
X65430500Y-22067800D01*
X65430500Y-22067800D02*
X65191900Y-22306400D01*
X65191900Y-22306400D02*
X65191900Y-22386100D01*
X65191900Y-22386100D02*
X62951200Y-24626800D01*
X62951200Y-24626800D02*
X60824800Y-24626800D01*
X60824800Y-24626800D02*
X56939400Y-28512200D01*
X56939400Y-28512200D02*
X54709000Y-28512200D01*
X54709000Y-28512200D02*
X53762600Y-27565800D01*
X53762600Y-27565800D02*
X48271000Y-27565800D01*
X48271000Y-27565800D02*
X30458200Y-45378600D01*
X30458200Y-45378600D02*
X30458200Y-66760200D01*
X30458200Y-66760200D02*
X18320900Y-78897500D01*
X18320900Y-78897500D02*
X18320900Y-80969100D01*
X18320900Y-80969100D02*
X18527200Y-81175400D01*
X18527200Y-81175400D02*
X22752600Y-81175400D01*
X22752600Y-81175400D02*
X23793000Y-80135000D01*
X113507000Y-28681000D02*
X119857000Y-28681000D01*
X79217000Y-166011000D02*
X72867000Y-166011000D01*
X168921000Y-127125000D02*
X162020500Y-134025500D01*
X162020500Y-134025500D02*
X162020500Y-150351800D01*
X162020500Y-150351800D02*
X149444500Y-162927800D01*
X149444500Y-162927800D02*
X99713000Y-162927800D01*
X99713000Y-162927800D02*
X95516300Y-167124500D01*
X95516300Y-167124500D02*
X90680800Y-167124500D01*
X90680800Y-167124500D02*
X89567300Y-166011000D01*
X89567300Y-166011000D02*
X79217000Y-166011000D01*
X23793000Y-86485000D02*
X18526600Y-91751400D01*
X18526600Y-91751400D02*
X18526600Y-102175800D01*
X18526600Y-102175800D02*
X21187200Y-104836400D01*
X21187200Y-104836400D02*
X21187200Y-108529200D01*
X21187200Y-108529200D02*
X30966600Y-118308600D01*
X30966600Y-118308600D02*
X30966600Y-150696800D01*
X30966600Y-150696800D02*
X43922900Y-163653100D01*
X43922900Y-163653100D02*
X70509100Y-163653100D01*
X70509100Y-163653100D02*
X72867000Y-166011000D01*
X118872000Y-12700000D02*
X122701000Y-16529000D01*
X122701000Y-16529000D02*
X124363300Y-16529000D01*
X124363300Y-16529000D02*
X133827000Y-25992700D01*
X133827000Y-25992700D02*
X133827000Y-28681000D01*
X164603000Y-147445000D02*
X164603000Y-148406200D01*
X164603000Y-148406200D02*
X149631000Y-163378200D01*
X149631000Y-163378200D02*
X100520200Y-163378200D01*
X100520200Y-163378200D02*
X96323500Y-167574900D01*
X96323500Y-167574900D02*
X90494300Y-167574900D01*
X90494300Y-167574900D02*
X90027100Y-167107700D01*
X90027100Y-167107700D02*
X59993700Y-167107700D01*
X59993700Y-167107700D02*
X58897000Y-166011000D01*
X140177000Y-28681000D02*
X133827000Y-28681000D01*
X58897000Y-166011000D02*
X52547000Y-166011000D01*
X78232000Y-19144700D02*
X79076300Y-18300400D01*
X79076300Y-18300400D02*
X79076300Y-14351500D01*
X79076300Y-14351500D02*
X77888800Y-13164000D01*
X77888800Y-13164000D02*
X73099400Y-13164000D01*
X73099400Y-13164000D02*
X72649800Y-13613600D01*
X72649800Y-13613600D02*
X69244200Y-13613600D01*
X69244200Y-13613600D02*
X67977400Y-14880400D01*
X67977400Y-14880400D02*
X67977400Y-16509900D01*
X67977400Y-16509900D02*
X64167300Y-20320000D01*
X76982300Y-20394400D02*
X77056700Y-20320000D01*
X75797300Y-20230000D02*
X76817900Y-20230000D01*
X76817900Y-20230000D02*
X76982300Y-20394400D01*
X76982300Y-20394400D02*
X76982300Y-23295200D01*
X76982300Y-23295200D02*
X79553200Y-25866100D01*
X79553200Y-25866100D02*
X119410600Y-25866100D01*
X119410600Y-25866100D02*
X122736700Y-22540000D01*
X123862000Y-22540000D02*
X122736700Y-22540000D01*
X78232000Y-20320000D02*
X78232000Y-19144700D01*
X62992000Y-20320000D02*
X64167300Y-20320000D01*
X78232000Y-20320000D02*
X77056700Y-20320000D01*
X38962000Y-164630000D02*
X47882000Y-173550000D01*
X47882000Y-173550000D02*
X49572000Y-173550000D01*
X74672000Y-20230000D02*
X75797300Y-20230000D01*
X133356700Y-22680000D02*
X126530400Y-15853700D01*
X126530400Y-15853700D02*
X122901000Y-15853700D01*
X122901000Y-15853700D02*
X120142000Y-13094700D01*
X120142000Y-13094700D02*
X120142000Y-12239300D01*
X120142000Y-12239300D02*
X119374500Y-11471800D01*
X119374500Y-11471800D02*
X118368200Y-11471800D01*
X118368200Y-11471800D02*
X117507300Y-12332700D01*
X117507300Y-12332700D02*
X117507300Y-12700000D01*
X134582000Y-22680000D02*
X133356700Y-22680000D01*
X116332000Y-12700000D02*
X117507300Y-12700000D01*
X36422000Y-164630000D02*
X36422000Y-169686200D01*
X36422000Y-169686200D02*
X42566700Y-175830900D01*
X42566700Y-175830900D02*
X116902000Y-175830900D01*
X116902000Y-175830900D02*
X119878300Y-172854600D01*
X119878300Y-172854600D02*
X124194600Y-172854600D01*
X124194600Y-172854600D02*
X127962600Y-169086600D01*
X127962600Y-169086600D02*
X152325400Y-169086600D01*
X152325400Y-169086600D02*
X157722000Y-163690000D01*
M02*
