G04 #@! TF.GenerationSoftware,KiCad,Pcbnew,(5.1.5-0-10_14)*
G04 #@! TF.CreationDate,2021-11-28T09:12:12+10:00*
G04 #@! TF.ProjectId,Buttons_DDI,42757474-6f6e-4735-9f44-44492e6b6963,rev?*
G04 #@! TF.SameCoordinates,Original*
G04 #@! TF.FileFunction,Soldermask,Top*
G04 #@! TF.FilePolarity,Negative*
%FSLAX46Y46*%
G04 Gerber Fmt 4.6, Leading zero omitted, Abs format (unit mm)*
G04 Created by KiCad (PCBNEW (5.1.5-0-10_14)) date 2021-11-28 09:12:12*
%MOMM*%
%LPD*%
G04 APERTURE LIST*
%ADD10C,0.200000*%
%ADD11C,0.100000*%
G04 APERTURE END LIST*
D10*
X91030675Y-18376300D02*
G75*
G03X91030675Y-18376300I-1100000J0D01*
G01*
X99531375Y-16288500D02*
G75*
G03X99531375Y-16288500I-3175000J0D01*
G01*
X126464426Y-9144000D02*
X66106369Y-9176498D01*
X30987380Y-164503100D02*
G75*
G03X30987380Y-164503100I-5000000J0D01*
G01*
X60587233Y-17986375D02*
G75*
G03X60587233Y-17986375I-1352550J0D01*
G01*
X173148629Y-113792000D02*
G75*
G03X173148629Y-113792000I-1352550J0D01*
G01*
X50604140Y-161734500D02*
G75*
G02X34163000Y-145293360I0J16441140D01*
G01*
X158864300Y-174434500D02*
G75*
G03X158864300Y-174434500I-1352550J0D01*
G01*
X36626800Y-174434500D02*
G75*
G03X36626800Y-174434500I-1352550J0D01*
G01*
X158623000Y-145293360D02*
X158623000Y-53715640D01*
X142181860Y-37274500D02*
G75*
G02X158623000Y-53715640I0J-16441140D01*
G01*
X142181860Y-37274500D02*
X50604140Y-37274500D01*
X50604140Y-161734500D02*
X142181860Y-161734500D01*
X171798621Y-164503100D02*
G75*
G03X171798621Y-164503100I-5000000J0D01*
G01*
X126464426Y-9144000D02*
G75*
G02X126799582Y-9270248I0J-508000D01*
G01*
X17303750Y-52240798D02*
X17303750Y-176022000D01*
X17811750Y-176530000D02*
X174974250Y-176530000D01*
X175309406Y-51859046D02*
X126799582Y-9270248D01*
X175309406Y-51859046D02*
G75*
G02X175482250Y-52240798I-335156J-381752D01*
G01*
X158623000Y-145293360D02*
G75*
G02X142181860Y-161734500I-16441140J0D01*
G01*
X34163000Y-53715640D02*
X34163000Y-145293360D01*
X134903867Y-17986375D02*
G75*
G03X134903867Y-17986375I-1352550J0D01*
G01*
X22342471Y-113792000D02*
G75*
G03X22342471Y-113792000I-1352550J0D01*
G01*
X175482250Y-176022000D02*
X175482250Y-52240798D01*
X175482250Y-176022000D02*
G75*
G02X174974250Y-176530000I-508000J0D01*
G01*
X17303750Y-52240798D02*
G75*
G02X17476594Y-51859046I508000J0D01*
G01*
X34163000Y-53715640D02*
G75*
G02X50604140Y-37274500I16441140J0D01*
G01*
X17811750Y-176530000D02*
G75*
G02X17303750Y-176022000I0J508000D01*
G01*
X66106369Y-9176498D02*
X17476594Y-51859046D01*
D11*
X18938666Y-176530000D02*
G75*
G03X18938666Y-176530000I-1666666J0D01*
G01*
X14772000Y-176530000D02*
X19772000Y-176530000D01*
X17272000Y-174030000D02*
X17272000Y-179030000D01*
G36*
X98502000Y-175250000D02*
G01*
X96702000Y-175250000D01*
X96702000Y-173450000D01*
X98502000Y-173450000D01*
X98502000Y-175250000D01*
G37*
G36*
X90244520Y-173484586D02*
G01*
X90404238Y-173550743D01*
X90408310Y-173552430D01*
X90555717Y-173650924D01*
X90681076Y-173776283D01*
X90728648Y-173847480D01*
X90779571Y-173923692D01*
X90847414Y-174087480D01*
X90882000Y-174261356D01*
X90882000Y-174438644D01*
X90877962Y-174458942D01*
X90847414Y-174612520D01*
X90779570Y-174776310D01*
X90681076Y-174923717D01*
X90555717Y-175049076D01*
X90408310Y-175147570D01*
X90408309Y-175147571D01*
X90408308Y-175147571D01*
X90244520Y-175215414D01*
X90070644Y-175250000D01*
X89893356Y-175250000D01*
X89719480Y-175215414D01*
X89555692Y-175147571D01*
X89555691Y-175147571D01*
X89555690Y-175147570D01*
X89408283Y-175049076D01*
X89282924Y-174923717D01*
X89184430Y-174776310D01*
X89116586Y-174612520D01*
X89086038Y-174458942D01*
X89082000Y-174438644D01*
X89082000Y-174261356D01*
X89116586Y-174087480D01*
X89184429Y-173923692D01*
X89235352Y-173847480D01*
X89282924Y-173776283D01*
X89408283Y-173650924D01*
X89555690Y-173552430D01*
X89559763Y-173550743D01*
X89719480Y-173484586D01*
X89893356Y-173450000D01*
X90070644Y-173450000D01*
X90244520Y-173484586D01*
G37*
G36*
X86282000Y-175250000D02*
G01*
X84482000Y-175250000D01*
X84482000Y-173450000D01*
X86282000Y-173450000D01*
X86282000Y-175250000D01*
G37*
G36*
X78024520Y-173484586D02*
G01*
X78184238Y-173550743D01*
X78188310Y-173552430D01*
X78335717Y-173650924D01*
X78461076Y-173776283D01*
X78508648Y-173847480D01*
X78559571Y-173923692D01*
X78627414Y-174087480D01*
X78662000Y-174261356D01*
X78662000Y-174438644D01*
X78657962Y-174458942D01*
X78627414Y-174612520D01*
X78559570Y-174776310D01*
X78461076Y-174923717D01*
X78335717Y-175049076D01*
X78188310Y-175147570D01*
X78188309Y-175147571D01*
X78188308Y-175147571D01*
X78024520Y-175215414D01*
X77850644Y-175250000D01*
X77673356Y-175250000D01*
X77499480Y-175215414D01*
X77335692Y-175147571D01*
X77335691Y-175147571D01*
X77335690Y-175147570D01*
X77188283Y-175049076D01*
X77062924Y-174923717D01*
X76964430Y-174776310D01*
X76896586Y-174612520D01*
X76866038Y-174458942D01*
X76862000Y-174438644D01*
X76862000Y-174261356D01*
X76896586Y-174087480D01*
X76964429Y-173923692D01*
X77015352Y-173847480D01*
X77062924Y-173776283D01*
X77188283Y-173650924D01*
X77335690Y-173552430D01*
X77339763Y-173550743D01*
X77499480Y-173484586D01*
X77673356Y-173450000D01*
X77850644Y-173450000D01*
X78024520Y-173484586D01*
G37*
G36*
X151025351Y-173550743D02*
G01*
X151170941Y-173611048D01*
X151301970Y-173698599D01*
X151413401Y-173810030D01*
X151500952Y-173941059D01*
X151561257Y-174086649D01*
X151592000Y-174241206D01*
X151592000Y-174398794D01*
X151561257Y-174553351D01*
X151500952Y-174698941D01*
X151413401Y-174829970D01*
X151301970Y-174941401D01*
X151170941Y-175028952D01*
X151025351Y-175089257D01*
X150870794Y-175120000D01*
X150713206Y-175120000D01*
X150558649Y-175089257D01*
X150413059Y-175028952D01*
X150282030Y-174941401D01*
X150170599Y-174829970D01*
X150083048Y-174698941D01*
X150022743Y-174553351D01*
X149992000Y-174398794D01*
X149992000Y-174241206D01*
X150022743Y-174086649D01*
X150083048Y-173941059D01*
X150170599Y-173810030D01*
X150282030Y-173698599D01*
X150413059Y-173611048D01*
X150558649Y-173550743D01*
X150713206Y-173520000D01*
X150870794Y-173520000D01*
X151025351Y-173550743D01*
G37*
G36*
X143405351Y-173550743D02*
G01*
X143550941Y-173611048D01*
X143681970Y-173698599D01*
X143793401Y-173810030D01*
X143880952Y-173941059D01*
X143941257Y-174086649D01*
X143972000Y-174241206D01*
X143972000Y-174398794D01*
X143941257Y-174553351D01*
X143880952Y-174698941D01*
X143793401Y-174829970D01*
X143681970Y-174941401D01*
X143550941Y-175028952D01*
X143405351Y-175089257D01*
X143250794Y-175120000D01*
X143093206Y-175120000D01*
X142938649Y-175089257D01*
X142793059Y-175028952D01*
X142662030Y-174941401D01*
X142550599Y-174829970D01*
X142463048Y-174698941D01*
X142402743Y-174553351D01*
X142372000Y-174398794D01*
X142372000Y-174241206D01*
X142402743Y-174086649D01*
X142463048Y-173941059D01*
X142550599Y-173810030D01*
X142662030Y-173698599D01*
X142793059Y-173611048D01*
X142938649Y-173550743D01*
X143093206Y-173520000D01*
X143250794Y-173520000D01*
X143405351Y-173550743D01*
G37*
G36*
X70692000Y-175010000D02*
G01*
X68892000Y-175010000D01*
X68892000Y-173210000D01*
X70692000Y-173210000D01*
X70692000Y-175010000D01*
G37*
G36*
X62434520Y-173244586D02*
G01*
X62594238Y-173310743D01*
X62598310Y-173312430D01*
X62745717Y-173410924D01*
X62871076Y-173536283D01*
X62949526Y-173653692D01*
X62969571Y-173683692D01*
X63037414Y-173847480D01*
X63072000Y-174021356D01*
X63072000Y-174198644D01*
X63037414Y-174372520D01*
X62981997Y-174506310D01*
X62969570Y-174536310D01*
X62871076Y-174683717D01*
X62745717Y-174809076D01*
X62598310Y-174907570D01*
X62598309Y-174907571D01*
X62598308Y-174907571D01*
X62434520Y-174975414D01*
X62260644Y-175010000D01*
X62083356Y-175010000D01*
X61909480Y-174975414D01*
X61745692Y-174907571D01*
X61745691Y-174907571D01*
X61745690Y-174907570D01*
X61598283Y-174809076D01*
X61472924Y-174683717D01*
X61374430Y-174536310D01*
X61362004Y-174506310D01*
X61306586Y-174372520D01*
X61272000Y-174198644D01*
X61272000Y-174021356D01*
X61306586Y-173847480D01*
X61374429Y-173683692D01*
X61394474Y-173653692D01*
X61472924Y-173536283D01*
X61598283Y-173410924D01*
X61745690Y-173312430D01*
X61749763Y-173310743D01*
X61909480Y-173244586D01*
X62083356Y-173210000D01*
X62260644Y-173210000D01*
X62434520Y-173244586D01*
G37*
G36*
X111212000Y-175010000D02*
G01*
X109412000Y-175010000D01*
X109412000Y-173210000D01*
X111212000Y-173210000D01*
X111212000Y-175010000D01*
G37*
G36*
X102954520Y-173244586D02*
G01*
X103114238Y-173310743D01*
X103118310Y-173312430D01*
X103265717Y-173410924D01*
X103391076Y-173536283D01*
X103469526Y-173653692D01*
X103489571Y-173683692D01*
X103557414Y-173847480D01*
X103592000Y-174021356D01*
X103592000Y-174198644D01*
X103557414Y-174372520D01*
X103501997Y-174506310D01*
X103489570Y-174536310D01*
X103391076Y-174683717D01*
X103265717Y-174809076D01*
X103118310Y-174907570D01*
X103118309Y-174907571D01*
X103118308Y-174907571D01*
X102954520Y-174975414D01*
X102780644Y-175010000D01*
X102603356Y-175010000D01*
X102429480Y-174975414D01*
X102265692Y-174907571D01*
X102265691Y-174907571D01*
X102265690Y-174907570D01*
X102118283Y-174809076D01*
X101992924Y-174683717D01*
X101894430Y-174536310D01*
X101882004Y-174506310D01*
X101826586Y-174372520D01*
X101792000Y-174198644D01*
X101792000Y-174021356D01*
X101826586Y-173847480D01*
X101894429Y-173683692D01*
X101914474Y-173653692D01*
X101992924Y-173536283D01*
X102118283Y-173410924D01*
X102265690Y-173312430D01*
X102269763Y-173310743D01*
X102429480Y-173244586D01*
X102603356Y-173210000D01*
X102780644Y-173210000D01*
X102954520Y-173244586D01*
G37*
G36*
X123922000Y-174980000D02*
G01*
X122122000Y-174980000D01*
X122122000Y-173180000D01*
X123922000Y-173180000D01*
X123922000Y-174980000D01*
G37*
G36*
X115664520Y-173214586D02*
G01*
X115822444Y-173280000D01*
X115828310Y-173282430D01*
X115975717Y-173380924D01*
X116101076Y-173506283D01*
X116199570Y-173653690D01*
X116199571Y-173653692D01*
X116267414Y-173817480D01*
X116302000Y-173991356D01*
X116302000Y-174168644D01*
X116267414Y-174342520D01*
X116219191Y-174458942D01*
X116199570Y-174506310D01*
X116101076Y-174653717D01*
X115975717Y-174779076D01*
X115828310Y-174877570D01*
X115828309Y-174877571D01*
X115828308Y-174877571D01*
X115664520Y-174945414D01*
X115490644Y-174980000D01*
X115313356Y-174980000D01*
X115139480Y-174945414D01*
X114975692Y-174877571D01*
X114975691Y-174877571D01*
X114975690Y-174877570D01*
X114828283Y-174779076D01*
X114702924Y-174653717D01*
X114604430Y-174506310D01*
X114584810Y-174458942D01*
X114536586Y-174342520D01*
X114502000Y-174168644D01*
X114502000Y-173991356D01*
X114536586Y-173817480D01*
X114604429Y-173653692D01*
X114604430Y-173653690D01*
X114702924Y-173506283D01*
X114828283Y-173380924D01*
X114975690Y-173282430D01*
X114981557Y-173280000D01*
X115139480Y-173214586D01*
X115313356Y-173180000D01*
X115490644Y-173180000D01*
X115664520Y-173214586D01*
G37*
G36*
X134955351Y-173310743D02*
G01*
X135100941Y-173371048D01*
X135231970Y-173458599D01*
X135343401Y-173570030D01*
X135430952Y-173701059D01*
X135491257Y-173846649D01*
X135522000Y-174001206D01*
X135522000Y-174158794D01*
X135491257Y-174313351D01*
X135430952Y-174458941D01*
X135343401Y-174589970D01*
X135231970Y-174701401D01*
X135100941Y-174788952D01*
X134955351Y-174849257D01*
X134800794Y-174880000D01*
X134643206Y-174880000D01*
X134488649Y-174849257D01*
X134343059Y-174788952D01*
X134212030Y-174701401D01*
X134100599Y-174589970D01*
X134013048Y-174458941D01*
X133952743Y-174313351D01*
X133922000Y-174158794D01*
X133922000Y-174001206D01*
X133952743Y-173846649D01*
X134013048Y-173701059D01*
X134100599Y-173570030D01*
X134212030Y-173458599D01*
X134343059Y-173371048D01*
X134488649Y-173310743D01*
X134643206Y-173280000D01*
X134800794Y-173280000D01*
X134955351Y-173310743D01*
G37*
G36*
X127335351Y-173310743D02*
G01*
X127480941Y-173371048D01*
X127611970Y-173458599D01*
X127723401Y-173570030D01*
X127810952Y-173701059D01*
X127871257Y-173846649D01*
X127902000Y-174001206D01*
X127902000Y-174158794D01*
X127871257Y-174313351D01*
X127810952Y-174458941D01*
X127723401Y-174589970D01*
X127611970Y-174701401D01*
X127480941Y-174788952D01*
X127335351Y-174849257D01*
X127180794Y-174880000D01*
X127023206Y-174880000D01*
X126868649Y-174849257D01*
X126723059Y-174788952D01*
X126592030Y-174701401D01*
X126480599Y-174589970D01*
X126393048Y-174458941D01*
X126332743Y-174313351D01*
X126302000Y-174158794D01*
X126302000Y-174001206D01*
X126332743Y-173846649D01*
X126393048Y-173701059D01*
X126480599Y-173570030D01*
X126592030Y-173458599D01*
X126723059Y-173371048D01*
X126868649Y-173310743D01*
X127023206Y-173280000D01*
X127180794Y-173280000D01*
X127335351Y-173310743D01*
G37*
G36*
X49805351Y-172780743D02*
G01*
X49950941Y-172841048D01*
X50081970Y-172928599D01*
X50193401Y-173040030D01*
X50280952Y-173171059D01*
X50341257Y-173316649D01*
X50372000Y-173471206D01*
X50372000Y-173628794D01*
X50341257Y-173783351D01*
X50280952Y-173928941D01*
X50193401Y-174059970D01*
X50081970Y-174171401D01*
X49950941Y-174258952D01*
X49805351Y-174319257D01*
X49650794Y-174350000D01*
X49493206Y-174350000D01*
X49338649Y-174319257D01*
X49193059Y-174258952D01*
X49062030Y-174171401D01*
X48950599Y-174059970D01*
X48863048Y-173928941D01*
X48802743Y-173783351D01*
X48772000Y-173628794D01*
X48772000Y-173471206D01*
X48802743Y-173316649D01*
X48863048Y-173171059D01*
X48950599Y-173040030D01*
X49062030Y-172928599D01*
X49193059Y-172841048D01*
X49338649Y-172780743D01*
X49493206Y-172750000D01*
X49650794Y-172750000D01*
X49805351Y-172780743D01*
G37*
G36*
X42185351Y-172780743D02*
G01*
X42330941Y-172841048D01*
X42461970Y-172928599D01*
X42573401Y-173040030D01*
X42660952Y-173171059D01*
X42721257Y-173316649D01*
X42752000Y-173471206D01*
X42752000Y-173628794D01*
X42721257Y-173783351D01*
X42660952Y-173928941D01*
X42573401Y-174059970D01*
X42461970Y-174171401D01*
X42330941Y-174258952D01*
X42185351Y-174319257D01*
X42030794Y-174350000D01*
X41873206Y-174350000D01*
X41718649Y-174319257D01*
X41573059Y-174258952D01*
X41442030Y-174171401D01*
X41330599Y-174059970D01*
X41243048Y-173928941D01*
X41182743Y-173783351D01*
X41152000Y-173628794D01*
X41152000Y-173471206D01*
X41182743Y-173316649D01*
X41243048Y-173171059D01*
X41330599Y-173040030D01*
X41442030Y-172928599D01*
X41573059Y-172841048D01*
X41718649Y-172780743D01*
X41873206Y-172750000D01*
X42030794Y-172750000D01*
X42185351Y-172780743D01*
G37*
G36*
X137175195Y-170348522D02*
G01*
X137224267Y-170358283D01*
X137362942Y-170415724D01*
X137487747Y-170499116D01*
X137593884Y-170605253D01*
X137677276Y-170730058D01*
X137734717Y-170868733D01*
X137734717Y-170868734D01*
X137760399Y-170997843D01*
X137764000Y-171015950D01*
X137764000Y-171166050D01*
X137734717Y-171313267D01*
X137677276Y-171451942D01*
X137593884Y-171576747D01*
X137487747Y-171682884D01*
X137362942Y-171766276D01*
X137224267Y-171823717D01*
X137175195Y-171833478D01*
X137077052Y-171853000D01*
X136926948Y-171853000D01*
X136828805Y-171833478D01*
X136779733Y-171823717D01*
X136641058Y-171766276D01*
X136516253Y-171682884D01*
X136410116Y-171576747D01*
X136326724Y-171451942D01*
X136269283Y-171313267D01*
X136240000Y-171166050D01*
X136240000Y-171015950D01*
X136243602Y-170997843D01*
X136269283Y-170868734D01*
X136269283Y-170868733D01*
X136326724Y-170730058D01*
X136410116Y-170605253D01*
X136516253Y-170499116D01*
X136641058Y-170415724D01*
X136779733Y-170358283D01*
X136828805Y-170348522D01*
X136926948Y-170329000D01*
X137077052Y-170329000D01*
X137175195Y-170348522D01*
G37*
G36*
X116855195Y-170348522D02*
G01*
X116904267Y-170358283D01*
X117042942Y-170415724D01*
X117167747Y-170499116D01*
X117273884Y-170605253D01*
X117357276Y-170730058D01*
X117414717Y-170868733D01*
X117414717Y-170868734D01*
X117440399Y-170997843D01*
X117444000Y-171015950D01*
X117444000Y-171166050D01*
X117414717Y-171313267D01*
X117357276Y-171451942D01*
X117273884Y-171576747D01*
X117167747Y-171682884D01*
X117042942Y-171766276D01*
X116904267Y-171823717D01*
X116855195Y-171833478D01*
X116757052Y-171853000D01*
X116606948Y-171853000D01*
X116508805Y-171833478D01*
X116459733Y-171823717D01*
X116321058Y-171766276D01*
X116196253Y-171682884D01*
X116090116Y-171576747D01*
X116006724Y-171451942D01*
X115949283Y-171313267D01*
X115920000Y-171166050D01*
X115920000Y-171015950D01*
X115923602Y-170997843D01*
X115949283Y-170868734D01*
X115949283Y-170868733D01*
X116006724Y-170730058D01*
X116090116Y-170605253D01*
X116196253Y-170499116D01*
X116321058Y-170415724D01*
X116459733Y-170358283D01*
X116508805Y-170348522D01*
X116606948Y-170329000D01*
X116757052Y-170329000D01*
X116855195Y-170348522D01*
G37*
G36*
X96535195Y-170348522D02*
G01*
X96584267Y-170358283D01*
X96722942Y-170415724D01*
X96847747Y-170499116D01*
X96953884Y-170605253D01*
X97037276Y-170730058D01*
X97094717Y-170868733D01*
X97094717Y-170868734D01*
X97120399Y-170997843D01*
X97124000Y-171015950D01*
X97124000Y-171166050D01*
X97094717Y-171313267D01*
X97037276Y-171451942D01*
X96953884Y-171576747D01*
X96847747Y-171682884D01*
X96722942Y-171766276D01*
X96584267Y-171823717D01*
X96535195Y-171833478D01*
X96437052Y-171853000D01*
X96286948Y-171853000D01*
X96188805Y-171833478D01*
X96139733Y-171823717D01*
X96001058Y-171766276D01*
X95876253Y-171682884D01*
X95770116Y-171576747D01*
X95686724Y-171451942D01*
X95629283Y-171313267D01*
X95600000Y-171166050D01*
X95600000Y-171015950D01*
X95603602Y-170997843D01*
X95629283Y-170868734D01*
X95629283Y-170868733D01*
X95686724Y-170730058D01*
X95770116Y-170605253D01*
X95876253Y-170499116D01*
X96001058Y-170415724D01*
X96139733Y-170358283D01*
X96188805Y-170348522D01*
X96286948Y-170329000D01*
X96437052Y-170329000D01*
X96535195Y-170348522D01*
G37*
G36*
X76215195Y-170348522D02*
G01*
X76264267Y-170358283D01*
X76402942Y-170415724D01*
X76527747Y-170499116D01*
X76633884Y-170605253D01*
X76717276Y-170730058D01*
X76774717Y-170868733D01*
X76774717Y-170868734D01*
X76800399Y-170997843D01*
X76804000Y-171015950D01*
X76804000Y-171166050D01*
X76774717Y-171313267D01*
X76717276Y-171451942D01*
X76633884Y-171576747D01*
X76527747Y-171682884D01*
X76402942Y-171766276D01*
X76264267Y-171823717D01*
X76215195Y-171833478D01*
X76117052Y-171853000D01*
X75966948Y-171853000D01*
X75868805Y-171833478D01*
X75819733Y-171823717D01*
X75681058Y-171766276D01*
X75556253Y-171682884D01*
X75450116Y-171576747D01*
X75366724Y-171451942D01*
X75309283Y-171313267D01*
X75280000Y-171166050D01*
X75280000Y-171015950D01*
X75283602Y-170997843D01*
X75309283Y-170868734D01*
X75309283Y-170868733D01*
X75366724Y-170730058D01*
X75450116Y-170605253D01*
X75556253Y-170499116D01*
X75681058Y-170415724D01*
X75819733Y-170358283D01*
X75868805Y-170348522D01*
X75966948Y-170329000D01*
X76117052Y-170329000D01*
X76215195Y-170348522D01*
G37*
G36*
X55895195Y-170348522D02*
G01*
X55944267Y-170358283D01*
X56082942Y-170415724D01*
X56207747Y-170499116D01*
X56313884Y-170605253D01*
X56397276Y-170730058D01*
X56454717Y-170868733D01*
X56454717Y-170868734D01*
X56480399Y-170997843D01*
X56484000Y-171015950D01*
X56484000Y-171166050D01*
X56454717Y-171313267D01*
X56397276Y-171451942D01*
X56313884Y-171576747D01*
X56207747Y-171682884D01*
X56082942Y-171766276D01*
X55944267Y-171823717D01*
X55895195Y-171833478D01*
X55797052Y-171853000D01*
X55646948Y-171853000D01*
X55548805Y-171833478D01*
X55499733Y-171823717D01*
X55361058Y-171766276D01*
X55236253Y-171682884D01*
X55130116Y-171576747D01*
X55046724Y-171451942D01*
X54989283Y-171313267D01*
X54960000Y-171166050D01*
X54960000Y-171015950D01*
X54963602Y-170997843D01*
X54989283Y-170868734D01*
X54989283Y-170868733D01*
X55046724Y-170730058D01*
X55130116Y-170605253D01*
X55236253Y-170499116D01*
X55361058Y-170415724D01*
X55499733Y-170358283D01*
X55548805Y-170348522D01*
X55646948Y-170329000D01*
X55797052Y-170329000D01*
X55895195Y-170348522D01*
G37*
G36*
X140424935Y-169638664D02*
G01*
X140579624Y-169702739D01*
X140579626Y-169702740D01*
X140718844Y-169795762D01*
X140837238Y-169914156D01*
X140930260Y-170053374D01*
X140930261Y-170053376D01*
X140994336Y-170208065D01*
X141027000Y-170372281D01*
X141027000Y-170539719D01*
X140994336Y-170703935D01*
X140930261Y-170858624D01*
X140930260Y-170858626D01*
X140837238Y-170997844D01*
X140718844Y-171116238D01*
X140579626Y-171209260D01*
X140579625Y-171209261D01*
X140579624Y-171209261D01*
X140424935Y-171273336D01*
X140260719Y-171306000D01*
X140093281Y-171306000D01*
X139929065Y-171273336D01*
X139774376Y-171209261D01*
X139774375Y-171209261D01*
X139774374Y-171209260D01*
X139635156Y-171116238D01*
X139516762Y-170997844D01*
X139423740Y-170858626D01*
X139423739Y-170858624D01*
X139359664Y-170703935D01*
X139327000Y-170539719D01*
X139327000Y-170372281D01*
X139359664Y-170208065D01*
X139423739Y-170053376D01*
X139423740Y-170053374D01*
X139516762Y-169914156D01*
X139635156Y-169795762D01*
X139774374Y-169702740D01*
X139774376Y-169702739D01*
X139929065Y-169638664D01*
X140093281Y-169606000D01*
X140260719Y-169606000D01*
X140424935Y-169638664D01*
G37*
G36*
X134074935Y-169638664D02*
G01*
X134229624Y-169702739D01*
X134229626Y-169702740D01*
X134368844Y-169795762D01*
X134487238Y-169914156D01*
X134580260Y-170053374D01*
X134580261Y-170053376D01*
X134644336Y-170208065D01*
X134677000Y-170372281D01*
X134677000Y-170539719D01*
X134644336Y-170703935D01*
X134580261Y-170858624D01*
X134580260Y-170858626D01*
X134487238Y-170997844D01*
X134368844Y-171116238D01*
X134229626Y-171209260D01*
X134229625Y-171209261D01*
X134229624Y-171209261D01*
X134074935Y-171273336D01*
X133910719Y-171306000D01*
X133743281Y-171306000D01*
X133579065Y-171273336D01*
X133424376Y-171209261D01*
X133424375Y-171209261D01*
X133424374Y-171209260D01*
X133285156Y-171116238D01*
X133166762Y-170997844D01*
X133073740Y-170858626D01*
X133073739Y-170858624D01*
X133009664Y-170703935D01*
X132977000Y-170539719D01*
X132977000Y-170372281D01*
X133009664Y-170208065D01*
X133073739Y-170053376D01*
X133073740Y-170053374D01*
X133166762Y-169914156D01*
X133285156Y-169795762D01*
X133424374Y-169702740D01*
X133424376Y-169702739D01*
X133579065Y-169638664D01*
X133743281Y-169606000D01*
X133910719Y-169606000D01*
X134074935Y-169638664D01*
G37*
G36*
X120104935Y-169638664D02*
G01*
X120259624Y-169702739D01*
X120259626Y-169702740D01*
X120398844Y-169795762D01*
X120517238Y-169914156D01*
X120610260Y-170053374D01*
X120610261Y-170053376D01*
X120674336Y-170208065D01*
X120707000Y-170372281D01*
X120707000Y-170539719D01*
X120674336Y-170703935D01*
X120610261Y-170858624D01*
X120610260Y-170858626D01*
X120517238Y-170997844D01*
X120398844Y-171116238D01*
X120259626Y-171209260D01*
X120259625Y-171209261D01*
X120259624Y-171209261D01*
X120104935Y-171273336D01*
X119940719Y-171306000D01*
X119773281Y-171306000D01*
X119609065Y-171273336D01*
X119454376Y-171209261D01*
X119454375Y-171209261D01*
X119454374Y-171209260D01*
X119315156Y-171116238D01*
X119196762Y-170997844D01*
X119103740Y-170858626D01*
X119103739Y-170858624D01*
X119039664Y-170703935D01*
X119007000Y-170539719D01*
X119007000Y-170372281D01*
X119039664Y-170208065D01*
X119103739Y-170053376D01*
X119103740Y-170053374D01*
X119196762Y-169914156D01*
X119315156Y-169795762D01*
X119454374Y-169702740D01*
X119454376Y-169702739D01*
X119609065Y-169638664D01*
X119773281Y-169606000D01*
X119940719Y-169606000D01*
X120104935Y-169638664D01*
G37*
G36*
X113754935Y-169638664D02*
G01*
X113909624Y-169702739D01*
X113909626Y-169702740D01*
X114048844Y-169795762D01*
X114167238Y-169914156D01*
X114260260Y-170053374D01*
X114260261Y-170053376D01*
X114324336Y-170208065D01*
X114357000Y-170372281D01*
X114357000Y-170539719D01*
X114324336Y-170703935D01*
X114260261Y-170858624D01*
X114260260Y-170858626D01*
X114167238Y-170997844D01*
X114048844Y-171116238D01*
X113909626Y-171209260D01*
X113909625Y-171209261D01*
X113909624Y-171209261D01*
X113754935Y-171273336D01*
X113590719Y-171306000D01*
X113423281Y-171306000D01*
X113259065Y-171273336D01*
X113104376Y-171209261D01*
X113104375Y-171209261D01*
X113104374Y-171209260D01*
X112965156Y-171116238D01*
X112846762Y-170997844D01*
X112753740Y-170858626D01*
X112753739Y-170858624D01*
X112689664Y-170703935D01*
X112657000Y-170539719D01*
X112657000Y-170372281D01*
X112689664Y-170208065D01*
X112753739Y-170053376D01*
X112753740Y-170053374D01*
X112846762Y-169914156D01*
X112965156Y-169795762D01*
X113104374Y-169702740D01*
X113104376Y-169702739D01*
X113259065Y-169638664D01*
X113423281Y-169606000D01*
X113590719Y-169606000D01*
X113754935Y-169638664D01*
G37*
G36*
X99784935Y-169638664D02*
G01*
X99939624Y-169702739D01*
X99939626Y-169702740D01*
X100078844Y-169795762D01*
X100197238Y-169914156D01*
X100290260Y-170053374D01*
X100290261Y-170053376D01*
X100354336Y-170208065D01*
X100387000Y-170372281D01*
X100387000Y-170539719D01*
X100354336Y-170703935D01*
X100290261Y-170858624D01*
X100290260Y-170858626D01*
X100197238Y-170997844D01*
X100078844Y-171116238D01*
X99939626Y-171209260D01*
X99939625Y-171209261D01*
X99939624Y-171209261D01*
X99784935Y-171273336D01*
X99620719Y-171306000D01*
X99453281Y-171306000D01*
X99289065Y-171273336D01*
X99134376Y-171209261D01*
X99134375Y-171209261D01*
X99134374Y-171209260D01*
X98995156Y-171116238D01*
X98876762Y-170997844D01*
X98783740Y-170858626D01*
X98783739Y-170858624D01*
X98719664Y-170703935D01*
X98687000Y-170539719D01*
X98687000Y-170372281D01*
X98719664Y-170208065D01*
X98783739Y-170053376D01*
X98783740Y-170053374D01*
X98876762Y-169914156D01*
X98995156Y-169795762D01*
X99134374Y-169702740D01*
X99134376Y-169702739D01*
X99289065Y-169638664D01*
X99453281Y-169606000D01*
X99620719Y-169606000D01*
X99784935Y-169638664D01*
G37*
G36*
X93434935Y-169638664D02*
G01*
X93589624Y-169702739D01*
X93589626Y-169702740D01*
X93728844Y-169795762D01*
X93847238Y-169914156D01*
X93940260Y-170053374D01*
X93940261Y-170053376D01*
X94004336Y-170208065D01*
X94037000Y-170372281D01*
X94037000Y-170539719D01*
X94004336Y-170703935D01*
X93940261Y-170858624D01*
X93940260Y-170858626D01*
X93847238Y-170997844D01*
X93728844Y-171116238D01*
X93589626Y-171209260D01*
X93589625Y-171209261D01*
X93589624Y-171209261D01*
X93434935Y-171273336D01*
X93270719Y-171306000D01*
X93103281Y-171306000D01*
X92939065Y-171273336D01*
X92784376Y-171209261D01*
X92784375Y-171209261D01*
X92784374Y-171209260D01*
X92645156Y-171116238D01*
X92526762Y-170997844D01*
X92433740Y-170858626D01*
X92433739Y-170858624D01*
X92369664Y-170703935D01*
X92337000Y-170539719D01*
X92337000Y-170372281D01*
X92369664Y-170208065D01*
X92433739Y-170053376D01*
X92433740Y-170053374D01*
X92526762Y-169914156D01*
X92645156Y-169795762D01*
X92784374Y-169702740D01*
X92784376Y-169702739D01*
X92939065Y-169638664D01*
X93103281Y-169606000D01*
X93270719Y-169606000D01*
X93434935Y-169638664D01*
G37*
G36*
X79464935Y-169638664D02*
G01*
X79619624Y-169702739D01*
X79619626Y-169702740D01*
X79758844Y-169795762D01*
X79877238Y-169914156D01*
X79970260Y-170053374D01*
X79970261Y-170053376D01*
X80034336Y-170208065D01*
X80067000Y-170372281D01*
X80067000Y-170539719D01*
X80034336Y-170703935D01*
X79970261Y-170858624D01*
X79970260Y-170858626D01*
X79877238Y-170997844D01*
X79758844Y-171116238D01*
X79619626Y-171209260D01*
X79619625Y-171209261D01*
X79619624Y-171209261D01*
X79464935Y-171273336D01*
X79300719Y-171306000D01*
X79133281Y-171306000D01*
X78969065Y-171273336D01*
X78814376Y-171209261D01*
X78814375Y-171209261D01*
X78814374Y-171209260D01*
X78675156Y-171116238D01*
X78556762Y-170997844D01*
X78463740Y-170858626D01*
X78463739Y-170858624D01*
X78399664Y-170703935D01*
X78367000Y-170539719D01*
X78367000Y-170372281D01*
X78399664Y-170208065D01*
X78463739Y-170053376D01*
X78463740Y-170053374D01*
X78556762Y-169914156D01*
X78675156Y-169795762D01*
X78814374Y-169702740D01*
X78814376Y-169702739D01*
X78969065Y-169638664D01*
X79133281Y-169606000D01*
X79300719Y-169606000D01*
X79464935Y-169638664D01*
G37*
G36*
X73114935Y-169638664D02*
G01*
X73269624Y-169702739D01*
X73269626Y-169702740D01*
X73408844Y-169795762D01*
X73527238Y-169914156D01*
X73620260Y-170053374D01*
X73620261Y-170053376D01*
X73684336Y-170208065D01*
X73717000Y-170372281D01*
X73717000Y-170539719D01*
X73684336Y-170703935D01*
X73620261Y-170858624D01*
X73620260Y-170858626D01*
X73527238Y-170997844D01*
X73408844Y-171116238D01*
X73269626Y-171209260D01*
X73269625Y-171209261D01*
X73269624Y-171209261D01*
X73114935Y-171273336D01*
X72950719Y-171306000D01*
X72783281Y-171306000D01*
X72619065Y-171273336D01*
X72464376Y-171209261D01*
X72464375Y-171209261D01*
X72464374Y-171209260D01*
X72325156Y-171116238D01*
X72206762Y-170997844D01*
X72113740Y-170858626D01*
X72113739Y-170858624D01*
X72049664Y-170703935D01*
X72017000Y-170539719D01*
X72017000Y-170372281D01*
X72049664Y-170208065D01*
X72113739Y-170053376D01*
X72113740Y-170053374D01*
X72206762Y-169914156D01*
X72325156Y-169795762D01*
X72464374Y-169702740D01*
X72464376Y-169702739D01*
X72619065Y-169638664D01*
X72783281Y-169606000D01*
X72950719Y-169606000D01*
X73114935Y-169638664D01*
G37*
G36*
X59144935Y-169638664D02*
G01*
X59299624Y-169702739D01*
X59299626Y-169702740D01*
X59438844Y-169795762D01*
X59557238Y-169914156D01*
X59650260Y-170053374D01*
X59650261Y-170053376D01*
X59714336Y-170208065D01*
X59747000Y-170372281D01*
X59747000Y-170539719D01*
X59714336Y-170703935D01*
X59650261Y-170858624D01*
X59650260Y-170858626D01*
X59557238Y-170997844D01*
X59438844Y-171116238D01*
X59299626Y-171209260D01*
X59299625Y-171209261D01*
X59299624Y-171209261D01*
X59144935Y-171273336D01*
X58980719Y-171306000D01*
X58813281Y-171306000D01*
X58649065Y-171273336D01*
X58494376Y-171209261D01*
X58494375Y-171209261D01*
X58494374Y-171209260D01*
X58355156Y-171116238D01*
X58236762Y-170997844D01*
X58143740Y-170858626D01*
X58143739Y-170858624D01*
X58079664Y-170703935D01*
X58047000Y-170539719D01*
X58047000Y-170372281D01*
X58079664Y-170208065D01*
X58143739Y-170053376D01*
X58143740Y-170053374D01*
X58236762Y-169914156D01*
X58355156Y-169795762D01*
X58494374Y-169702740D01*
X58494376Y-169702739D01*
X58649065Y-169638664D01*
X58813281Y-169606000D01*
X58980719Y-169606000D01*
X59144935Y-169638664D01*
G37*
G36*
X52794935Y-169638664D02*
G01*
X52949624Y-169702739D01*
X52949626Y-169702740D01*
X53088844Y-169795762D01*
X53207238Y-169914156D01*
X53300260Y-170053374D01*
X53300261Y-170053376D01*
X53364336Y-170208065D01*
X53397000Y-170372281D01*
X53397000Y-170539719D01*
X53364336Y-170703935D01*
X53300261Y-170858624D01*
X53300260Y-170858626D01*
X53207238Y-170997844D01*
X53088844Y-171116238D01*
X52949626Y-171209260D01*
X52949625Y-171209261D01*
X52949624Y-171209261D01*
X52794935Y-171273336D01*
X52630719Y-171306000D01*
X52463281Y-171306000D01*
X52299065Y-171273336D01*
X52144376Y-171209261D01*
X52144375Y-171209261D01*
X52144374Y-171209260D01*
X52005156Y-171116238D01*
X51886762Y-170997844D01*
X51793740Y-170858626D01*
X51793739Y-170858624D01*
X51729664Y-170703935D01*
X51697000Y-170539719D01*
X51697000Y-170372281D01*
X51729664Y-170208065D01*
X51793739Y-170053376D01*
X51793740Y-170053374D01*
X51886762Y-169914156D01*
X52005156Y-169795762D01*
X52144374Y-169702740D01*
X52144376Y-169702739D01*
X52299065Y-169638664D01*
X52463281Y-169606000D01*
X52630719Y-169606000D01*
X52794935Y-169638664D01*
G37*
G36*
X52794935Y-165193664D02*
G01*
X52949624Y-165257739D01*
X52949626Y-165257740D01*
X53088844Y-165350762D01*
X53207238Y-165469156D01*
X53242725Y-165522267D01*
X53300261Y-165608376D01*
X53364336Y-165763065D01*
X53397000Y-165927281D01*
X53397000Y-166094719D01*
X53364336Y-166258935D01*
X53300261Y-166413624D01*
X53300260Y-166413626D01*
X53207238Y-166552844D01*
X53088844Y-166671238D01*
X52949626Y-166764260D01*
X52949625Y-166764261D01*
X52949624Y-166764261D01*
X52794935Y-166828336D01*
X52630719Y-166861000D01*
X52463281Y-166861000D01*
X52299065Y-166828336D01*
X52144376Y-166764261D01*
X52144375Y-166764261D01*
X52144374Y-166764260D01*
X52005156Y-166671238D01*
X51886762Y-166552844D01*
X51793740Y-166413626D01*
X51793739Y-166413624D01*
X51729664Y-166258935D01*
X51697000Y-166094719D01*
X51697000Y-165927281D01*
X51729664Y-165763065D01*
X51793739Y-165608376D01*
X51851275Y-165522267D01*
X51886762Y-165469156D01*
X52005156Y-165350762D01*
X52144374Y-165257740D01*
X52144376Y-165257739D01*
X52299065Y-165193664D01*
X52463281Y-165161000D01*
X52630719Y-165161000D01*
X52794935Y-165193664D01*
G37*
G36*
X59144935Y-165193664D02*
G01*
X59299624Y-165257739D01*
X59299626Y-165257740D01*
X59438844Y-165350762D01*
X59557238Y-165469156D01*
X59592725Y-165522267D01*
X59650261Y-165608376D01*
X59714336Y-165763065D01*
X59747000Y-165927281D01*
X59747000Y-166094719D01*
X59714336Y-166258935D01*
X59650261Y-166413624D01*
X59650260Y-166413626D01*
X59557238Y-166552844D01*
X59438844Y-166671238D01*
X59299626Y-166764260D01*
X59299625Y-166764261D01*
X59299624Y-166764261D01*
X59144935Y-166828336D01*
X58980719Y-166861000D01*
X58813281Y-166861000D01*
X58649065Y-166828336D01*
X58494376Y-166764261D01*
X58494375Y-166764261D01*
X58494374Y-166764260D01*
X58355156Y-166671238D01*
X58236762Y-166552844D01*
X58143740Y-166413626D01*
X58143739Y-166413624D01*
X58079664Y-166258935D01*
X58047000Y-166094719D01*
X58047000Y-165927281D01*
X58079664Y-165763065D01*
X58143739Y-165608376D01*
X58201275Y-165522267D01*
X58236762Y-165469156D01*
X58355156Y-165350762D01*
X58494374Y-165257740D01*
X58494376Y-165257739D01*
X58649065Y-165193664D01*
X58813281Y-165161000D01*
X58980719Y-165161000D01*
X59144935Y-165193664D01*
G37*
G36*
X79464935Y-165193664D02*
G01*
X79619624Y-165257739D01*
X79619626Y-165257740D01*
X79758844Y-165350762D01*
X79877238Y-165469156D01*
X79912725Y-165522267D01*
X79970261Y-165608376D01*
X80034336Y-165763065D01*
X80067000Y-165927281D01*
X80067000Y-166094719D01*
X80034336Y-166258935D01*
X79970261Y-166413624D01*
X79970260Y-166413626D01*
X79877238Y-166552844D01*
X79758844Y-166671238D01*
X79619626Y-166764260D01*
X79619625Y-166764261D01*
X79619624Y-166764261D01*
X79464935Y-166828336D01*
X79300719Y-166861000D01*
X79133281Y-166861000D01*
X78969065Y-166828336D01*
X78814376Y-166764261D01*
X78814375Y-166764261D01*
X78814374Y-166764260D01*
X78675156Y-166671238D01*
X78556762Y-166552844D01*
X78463740Y-166413626D01*
X78463739Y-166413624D01*
X78399664Y-166258935D01*
X78367000Y-166094719D01*
X78367000Y-165927281D01*
X78399664Y-165763065D01*
X78463739Y-165608376D01*
X78521275Y-165522267D01*
X78556762Y-165469156D01*
X78675156Y-165350762D01*
X78814374Y-165257740D01*
X78814376Y-165257739D01*
X78969065Y-165193664D01*
X79133281Y-165161000D01*
X79300719Y-165161000D01*
X79464935Y-165193664D01*
G37*
G36*
X120104935Y-165193664D02*
G01*
X120259624Y-165257739D01*
X120259626Y-165257740D01*
X120398844Y-165350762D01*
X120517238Y-165469156D01*
X120552725Y-165522267D01*
X120610261Y-165608376D01*
X120674336Y-165763065D01*
X120707000Y-165927281D01*
X120707000Y-166094719D01*
X120674336Y-166258935D01*
X120610261Y-166413624D01*
X120610260Y-166413626D01*
X120517238Y-166552844D01*
X120398844Y-166671238D01*
X120259626Y-166764260D01*
X120259625Y-166764261D01*
X120259624Y-166764261D01*
X120104935Y-166828336D01*
X119940719Y-166861000D01*
X119773281Y-166861000D01*
X119609065Y-166828336D01*
X119454376Y-166764261D01*
X119454375Y-166764261D01*
X119454374Y-166764260D01*
X119315156Y-166671238D01*
X119196762Y-166552844D01*
X119103740Y-166413626D01*
X119103739Y-166413624D01*
X119039664Y-166258935D01*
X119007000Y-166094719D01*
X119007000Y-165927281D01*
X119039664Y-165763065D01*
X119103739Y-165608376D01*
X119161275Y-165522267D01*
X119196762Y-165469156D01*
X119315156Y-165350762D01*
X119454374Y-165257740D01*
X119454376Y-165257739D01*
X119609065Y-165193664D01*
X119773281Y-165161000D01*
X119940719Y-165161000D01*
X120104935Y-165193664D01*
G37*
G36*
X99784935Y-165193664D02*
G01*
X99939624Y-165257739D01*
X99939626Y-165257740D01*
X100078844Y-165350762D01*
X100197238Y-165469156D01*
X100232725Y-165522267D01*
X100290261Y-165608376D01*
X100354336Y-165763065D01*
X100387000Y-165927281D01*
X100387000Y-166094719D01*
X100354336Y-166258935D01*
X100290261Y-166413624D01*
X100290260Y-166413626D01*
X100197238Y-166552844D01*
X100078844Y-166671238D01*
X99939626Y-166764260D01*
X99939625Y-166764261D01*
X99939624Y-166764261D01*
X99784935Y-166828336D01*
X99620719Y-166861000D01*
X99453281Y-166861000D01*
X99289065Y-166828336D01*
X99134376Y-166764261D01*
X99134375Y-166764261D01*
X99134374Y-166764260D01*
X98995156Y-166671238D01*
X98876762Y-166552844D01*
X98783740Y-166413626D01*
X98783739Y-166413624D01*
X98719664Y-166258935D01*
X98687000Y-166094719D01*
X98687000Y-165927281D01*
X98719664Y-165763065D01*
X98783739Y-165608376D01*
X98841275Y-165522267D01*
X98876762Y-165469156D01*
X98995156Y-165350762D01*
X99134374Y-165257740D01*
X99134376Y-165257739D01*
X99289065Y-165193664D01*
X99453281Y-165161000D01*
X99620719Y-165161000D01*
X99784935Y-165193664D01*
G37*
G36*
X93434935Y-165193664D02*
G01*
X93589624Y-165257739D01*
X93589626Y-165257740D01*
X93728844Y-165350762D01*
X93847238Y-165469156D01*
X93882725Y-165522267D01*
X93940261Y-165608376D01*
X94004336Y-165763065D01*
X94037000Y-165927281D01*
X94037000Y-166094719D01*
X94004336Y-166258935D01*
X93940261Y-166413624D01*
X93940260Y-166413626D01*
X93847238Y-166552844D01*
X93728844Y-166671238D01*
X93589626Y-166764260D01*
X93589625Y-166764261D01*
X93589624Y-166764261D01*
X93434935Y-166828336D01*
X93270719Y-166861000D01*
X93103281Y-166861000D01*
X92939065Y-166828336D01*
X92784376Y-166764261D01*
X92784375Y-166764261D01*
X92784374Y-166764260D01*
X92645156Y-166671238D01*
X92526762Y-166552844D01*
X92433740Y-166413626D01*
X92433739Y-166413624D01*
X92369664Y-166258935D01*
X92337000Y-166094719D01*
X92337000Y-165927281D01*
X92369664Y-165763065D01*
X92433739Y-165608376D01*
X92491275Y-165522267D01*
X92526762Y-165469156D01*
X92645156Y-165350762D01*
X92784374Y-165257740D01*
X92784376Y-165257739D01*
X92939065Y-165193664D01*
X93103281Y-165161000D01*
X93270719Y-165161000D01*
X93434935Y-165193664D01*
G37*
G36*
X113754935Y-165193664D02*
G01*
X113909624Y-165257739D01*
X113909626Y-165257740D01*
X114048844Y-165350762D01*
X114167238Y-165469156D01*
X114202725Y-165522267D01*
X114260261Y-165608376D01*
X114324336Y-165763065D01*
X114357000Y-165927281D01*
X114357000Y-166094719D01*
X114324336Y-166258935D01*
X114260261Y-166413624D01*
X114260260Y-166413626D01*
X114167238Y-166552844D01*
X114048844Y-166671238D01*
X113909626Y-166764260D01*
X113909625Y-166764261D01*
X113909624Y-166764261D01*
X113754935Y-166828336D01*
X113590719Y-166861000D01*
X113423281Y-166861000D01*
X113259065Y-166828336D01*
X113104376Y-166764261D01*
X113104375Y-166764261D01*
X113104374Y-166764260D01*
X112965156Y-166671238D01*
X112846762Y-166552844D01*
X112753740Y-166413626D01*
X112753739Y-166413624D01*
X112689664Y-166258935D01*
X112657000Y-166094719D01*
X112657000Y-165927281D01*
X112689664Y-165763065D01*
X112753739Y-165608376D01*
X112811275Y-165522267D01*
X112846762Y-165469156D01*
X112965156Y-165350762D01*
X113104374Y-165257740D01*
X113104376Y-165257739D01*
X113259065Y-165193664D01*
X113423281Y-165161000D01*
X113590719Y-165161000D01*
X113754935Y-165193664D01*
G37*
G36*
X134074935Y-165193664D02*
G01*
X134229624Y-165257739D01*
X134229626Y-165257740D01*
X134368844Y-165350762D01*
X134487238Y-165469156D01*
X134522725Y-165522267D01*
X134580261Y-165608376D01*
X134644336Y-165763065D01*
X134677000Y-165927281D01*
X134677000Y-166094719D01*
X134644336Y-166258935D01*
X134580261Y-166413624D01*
X134580260Y-166413626D01*
X134487238Y-166552844D01*
X134368844Y-166671238D01*
X134229626Y-166764260D01*
X134229625Y-166764261D01*
X134229624Y-166764261D01*
X134074935Y-166828336D01*
X133910719Y-166861000D01*
X133743281Y-166861000D01*
X133579065Y-166828336D01*
X133424376Y-166764261D01*
X133424375Y-166764261D01*
X133424374Y-166764260D01*
X133285156Y-166671238D01*
X133166762Y-166552844D01*
X133073740Y-166413626D01*
X133073739Y-166413624D01*
X133009664Y-166258935D01*
X132977000Y-166094719D01*
X132977000Y-165927281D01*
X133009664Y-165763065D01*
X133073739Y-165608376D01*
X133131275Y-165522267D01*
X133166762Y-165469156D01*
X133285156Y-165350762D01*
X133424374Y-165257740D01*
X133424376Y-165257739D01*
X133579065Y-165193664D01*
X133743281Y-165161000D01*
X133910719Y-165161000D01*
X134074935Y-165193664D01*
G37*
G36*
X140424935Y-165193664D02*
G01*
X140579624Y-165257739D01*
X140579626Y-165257740D01*
X140718844Y-165350762D01*
X140837238Y-165469156D01*
X140872725Y-165522267D01*
X140930261Y-165608376D01*
X140994336Y-165763065D01*
X141027000Y-165927281D01*
X141027000Y-166094719D01*
X140994336Y-166258935D01*
X140930261Y-166413624D01*
X140930260Y-166413626D01*
X140837238Y-166552844D01*
X140718844Y-166671238D01*
X140579626Y-166764260D01*
X140579625Y-166764261D01*
X140579624Y-166764261D01*
X140424935Y-166828336D01*
X140260719Y-166861000D01*
X140093281Y-166861000D01*
X139929065Y-166828336D01*
X139774376Y-166764261D01*
X139774375Y-166764261D01*
X139774374Y-166764260D01*
X139635156Y-166671238D01*
X139516762Y-166552844D01*
X139423740Y-166413626D01*
X139423739Y-166413624D01*
X139359664Y-166258935D01*
X139327000Y-166094719D01*
X139327000Y-165927281D01*
X139359664Y-165763065D01*
X139423739Y-165608376D01*
X139481275Y-165522267D01*
X139516762Y-165469156D01*
X139635156Y-165350762D01*
X139774374Y-165257740D01*
X139774376Y-165257739D01*
X139929065Y-165193664D01*
X140093281Y-165161000D01*
X140260719Y-165161000D01*
X140424935Y-165193664D01*
G37*
G36*
X73114935Y-165193664D02*
G01*
X73269624Y-165257739D01*
X73269626Y-165257740D01*
X73408844Y-165350762D01*
X73527238Y-165469156D01*
X73562725Y-165522267D01*
X73620261Y-165608376D01*
X73684336Y-165763065D01*
X73717000Y-165927281D01*
X73717000Y-166094719D01*
X73684336Y-166258935D01*
X73620261Y-166413624D01*
X73620260Y-166413626D01*
X73527238Y-166552844D01*
X73408844Y-166671238D01*
X73269626Y-166764260D01*
X73269625Y-166764261D01*
X73269624Y-166764261D01*
X73114935Y-166828336D01*
X72950719Y-166861000D01*
X72783281Y-166861000D01*
X72619065Y-166828336D01*
X72464376Y-166764261D01*
X72464375Y-166764261D01*
X72464374Y-166764260D01*
X72325156Y-166671238D01*
X72206762Y-166552844D01*
X72113740Y-166413626D01*
X72113739Y-166413624D01*
X72049664Y-166258935D01*
X72017000Y-166094719D01*
X72017000Y-165927281D01*
X72049664Y-165763065D01*
X72113739Y-165608376D01*
X72171275Y-165522267D01*
X72206762Y-165469156D01*
X72325156Y-165350762D01*
X72464374Y-165257740D01*
X72464376Y-165257739D01*
X72619065Y-165193664D01*
X72783281Y-165161000D01*
X72950719Y-165161000D01*
X73114935Y-165193664D01*
G37*
G36*
X137124597Y-164555414D02*
G01*
X137184267Y-164567283D01*
X137322942Y-164624724D01*
X137447747Y-164708116D01*
X137553884Y-164814253D01*
X137637276Y-164939058D01*
X137637276Y-164939059D01*
X137694717Y-165077734D01*
X137719777Y-165203716D01*
X137724000Y-165224950D01*
X137724000Y-165375050D01*
X137694717Y-165522267D01*
X137637276Y-165660942D01*
X137553884Y-165785747D01*
X137447747Y-165891884D01*
X137322942Y-165975276D01*
X137184267Y-166032717D01*
X137135195Y-166042478D01*
X137037052Y-166062000D01*
X136886948Y-166062000D01*
X136788805Y-166042478D01*
X136739733Y-166032717D01*
X136601058Y-165975276D01*
X136476253Y-165891884D01*
X136370116Y-165785747D01*
X136286724Y-165660942D01*
X136229283Y-165522267D01*
X136200000Y-165375050D01*
X136200000Y-165224950D01*
X136204224Y-165203716D01*
X136229283Y-165077734D01*
X136286724Y-164939059D01*
X136286724Y-164939058D01*
X136370116Y-164814253D01*
X136476253Y-164708116D01*
X136601058Y-164624724D01*
X136739733Y-164567283D01*
X136799403Y-164555414D01*
X136886948Y-164538000D01*
X137037052Y-164538000D01*
X137124597Y-164555414D01*
G37*
G36*
X76164597Y-164555414D02*
G01*
X76224267Y-164567283D01*
X76362942Y-164624724D01*
X76487747Y-164708116D01*
X76593884Y-164814253D01*
X76677276Y-164939058D01*
X76677276Y-164939059D01*
X76734717Y-165077734D01*
X76759777Y-165203716D01*
X76764000Y-165224950D01*
X76764000Y-165375050D01*
X76734717Y-165522267D01*
X76677276Y-165660942D01*
X76593884Y-165785747D01*
X76487747Y-165891884D01*
X76362942Y-165975276D01*
X76224267Y-166032717D01*
X76175195Y-166042478D01*
X76077052Y-166062000D01*
X75926948Y-166062000D01*
X75828805Y-166042478D01*
X75779733Y-166032717D01*
X75641058Y-165975276D01*
X75516253Y-165891884D01*
X75410116Y-165785747D01*
X75326724Y-165660942D01*
X75269283Y-165522267D01*
X75240000Y-165375050D01*
X75240000Y-165224950D01*
X75244224Y-165203716D01*
X75269283Y-165077734D01*
X75326724Y-164939059D01*
X75326724Y-164939058D01*
X75410116Y-164814253D01*
X75516253Y-164708116D01*
X75641058Y-164624724D01*
X75779733Y-164567283D01*
X75839403Y-164555414D01*
X75926948Y-164538000D01*
X76077052Y-164538000D01*
X76164597Y-164555414D01*
G37*
G36*
X55844597Y-164555414D02*
G01*
X55904267Y-164567283D01*
X56042942Y-164624724D01*
X56167747Y-164708116D01*
X56273884Y-164814253D01*
X56357276Y-164939058D01*
X56357276Y-164939059D01*
X56414717Y-165077734D01*
X56439777Y-165203716D01*
X56444000Y-165224950D01*
X56444000Y-165375050D01*
X56414717Y-165522267D01*
X56357276Y-165660942D01*
X56273884Y-165785747D01*
X56167747Y-165891884D01*
X56042942Y-165975276D01*
X55904267Y-166032717D01*
X55855195Y-166042478D01*
X55757052Y-166062000D01*
X55606948Y-166062000D01*
X55508805Y-166042478D01*
X55459733Y-166032717D01*
X55321058Y-165975276D01*
X55196253Y-165891884D01*
X55090116Y-165785747D01*
X55006724Y-165660942D01*
X54949283Y-165522267D01*
X54920000Y-165375050D01*
X54920000Y-165224950D01*
X54924224Y-165203716D01*
X54949283Y-165077734D01*
X55006724Y-164939059D01*
X55006724Y-164939058D01*
X55090116Y-164814253D01*
X55196253Y-164708116D01*
X55321058Y-164624724D01*
X55459733Y-164567283D01*
X55519403Y-164555414D01*
X55606948Y-164538000D01*
X55757052Y-164538000D01*
X55844597Y-164555414D01*
G37*
G36*
X116804597Y-164555414D02*
G01*
X116864267Y-164567283D01*
X117002942Y-164624724D01*
X117127747Y-164708116D01*
X117233884Y-164814253D01*
X117317276Y-164939058D01*
X117317276Y-164939059D01*
X117374717Y-165077734D01*
X117399777Y-165203716D01*
X117404000Y-165224950D01*
X117404000Y-165375050D01*
X117374717Y-165522267D01*
X117317276Y-165660942D01*
X117233884Y-165785747D01*
X117127747Y-165891884D01*
X117002942Y-165975276D01*
X116864267Y-166032717D01*
X116815195Y-166042478D01*
X116717052Y-166062000D01*
X116566948Y-166062000D01*
X116468805Y-166042478D01*
X116419733Y-166032717D01*
X116281058Y-165975276D01*
X116156253Y-165891884D01*
X116050116Y-165785747D01*
X115966724Y-165660942D01*
X115909283Y-165522267D01*
X115880000Y-165375050D01*
X115880000Y-165224950D01*
X115884224Y-165203716D01*
X115909283Y-165077734D01*
X115966724Y-164939059D01*
X115966724Y-164939058D01*
X116050116Y-164814253D01*
X116156253Y-164708116D01*
X116281058Y-164624724D01*
X116419733Y-164567283D01*
X116479403Y-164555414D01*
X116566948Y-164538000D01*
X116717052Y-164538000D01*
X116804597Y-164555414D01*
G37*
G36*
X96484597Y-164555414D02*
G01*
X96544267Y-164567283D01*
X96682942Y-164624724D01*
X96807747Y-164708116D01*
X96913884Y-164814253D01*
X96997276Y-164939058D01*
X96997276Y-164939059D01*
X97054717Y-165077734D01*
X97079777Y-165203716D01*
X97084000Y-165224950D01*
X97084000Y-165375050D01*
X97054717Y-165522267D01*
X96997276Y-165660942D01*
X96913884Y-165785747D01*
X96807747Y-165891884D01*
X96682942Y-165975276D01*
X96544267Y-166032717D01*
X96495195Y-166042478D01*
X96397052Y-166062000D01*
X96246948Y-166062000D01*
X96148805Y-166042478D01*
X96099733Y-166032717D01*
X95961058Y-165975276D01*
X95836253Y-165891884D01*
X95730116Y-165785747D01*
X95646724Y-165660942D01*
X95589283Y-165522267D01*
X95560000Y-165375050D01*
X95560000Y-165224950D01*
X95564224Y-165203716D01*
X95589283Y-165077734D01*
X95646724Y-164939059D01*
X95646724Y-164939058D01*
X95730116Y-164814253D01*
X95836253Y-164708116D01*
X95961058Y-164624724D01*
X96099733Y-164567283D01*
X96159403Y-164555414D01*
X96246948Y-164538000D01*
X96397052Y-164538000D01*
X96484597Y-164555414D01*
G37*
G36*
X37322000Y-165530000D02*
G01*
X35522000Y-165530000D01*
X35522000Y-163730000D01*
X37322000Y-163730000D01*
X37322000Y-165530000D01*
G37*
G36*
X39224520Y-163764586D02*
G01*
X39388310Y-163832430D01*
X39535717Y-163930924D01*
X39661076Y-164056283D01*
X39759570Y-164203690D01*
X39759571Y-164203692D01*
X39827414Y-164367480D01*
X39851302Y-164487571D01*
X39862000Y-164541358D01*
X39862000Y-164718642D01*
X39827414Y-164892520D01*
X39759570Y-165056310D01*
X39661076Y-165203717D01*
X39535717Y-165329076D01*
X39388310Y-165427570D01*
X39388309Y-165427571D01*
X39388308Y-165427571D01*
X39224520Y-165495414D01*
X39050644Y-165530000D01*
X38873356Y-165530000D01*
X38699480Y-165495414D01*
X38535692Y-165427571D01*
X38535691Y-165427571D01*
X38535690Y-165427570D01*
X38388283Y-165329076D01*
X38262924Y-165203717D01*
X38164430Y-165056310D01*
X38096586Y-164892520D01*
X38062000Y-164718642D01*
X38062000Y-164541358D01*
X38072699Y-164487571D01*
X38096586Y-164367480D01*
X38164429Y-164203692D01*
X38164430Y-164203690D01*
X38262924Y-164056283D01*
X38388283Y-163930924D01*
X38535690Y-163832430D01*
X38699480Y-163764586D01*
X38873356Y-163730000D01*
X39050644Y-163730000D01*
X39224520Y-163764586D01*
G37*
G36*
X157984520Y-162824586D02*
G01*
X158148310Y-162892430D01*
X158295717Y-162990924D01*
X158421076Y-163116283D01*
X158519570Y-163263690D01*
X158519571Y-163263692D01*
X158587414Y-163427480D01*
X158622000Y-163601356D01*
X158622000Y-163778644D01*
X158611301Y-163832430D01*
X158587414Y-163952520D01*
X158519570Y-164116310D01*
X158421076Y-164263717D01*
X158295717Y-164389076D01*
X158148310Y-164487570D01*
X158148309Y-164487571D01*
X158148308Y-164487571D01*
X157984520Y-164555414D01*
X157810644Y-164590000D01*
X157633356Y-164590000D01*
X157459480Y-164555414D01*
X157295692Y-164487571D01*
X157295691Y-164487571D01*
X157295690Y-164487570D01*
X157148283Y-164389076D01*
X157022924Y-164263717D01*
X156924430Y-164116310D01*
X156856586Y-163952520D01*
X156832699Y-163832430D01*
X156822000Y-163778644D01*
X156822000Y-163601356D01*
X156856586Y-163427480D01*
X156924429Y-163263692D01*
X156924430Y-163263690D01*
X157022924Y-163116283D01*
X157148283Y-162990924D01*
X157295690Y-162892430D01*
X157459480Y-162824586D01*
X157633356Y-162790000D01*
X157810644Y-162790000D01*
X157984520Y-162824586D01*
G37*
G36*
X156082000Y-164590000D02*
G01*
X154282000Y-164590000D01*
X154282000Y-162790000D01*
X156082000Y-162790000D01*
X156082000Y-164590000D01*
G37*
G36*
X23202000Y-155790000D02*
G01*
X21502000Y-155790000D01*
X21502000Y-154090000D01*
X23202000Y-154090000D01*
X23202000Y-155790000D01*
G37*
G36*
X25139935Y-154122664D02*
G01*
X25294624Y-154186739D01*
X25294626Y-154186740D01*
X25433844Y-154279762D01*
X25552238Y-154398156D01*
X25633651Y-154520000D01*
X25645261Y-154537376D01*
X25709336Y-154692065D01*
X25742000Y-154856281D01*
X25742000Y-155023719D01*
X25709336Y-155187935D01*
X25645261Y-155342624D01*
X25645260Y-155342626D01*
X25552238Y-155481844D01*
X25433844Y-155600238D01*
X25294626Y-155693260D01*
X25294625Y-155693261D01*
X25294624Y-155693261D01*
X25139935Y-155757336D01*
X24975719Y-155790000D01*
X24808281Y-155790000D01*
X24644065Y-155757336D01*
X24489376Y-155693261D01*
X24489375Y-155693261D01*
X24489374Y-155693260D01*
X24350156Y-155600238D01*
X24231762Y-155481844D01*
X24138740Y-155342626D01*
X24138739Y-155342624D01*
X24074664Y-155187935D01*
X24042000Y-155023719D01*
X24042000Y-154856281D01*
X24074664Y-154692065D01*
X24138739Y-154537376D01*
X24150349Y-154520000D01*
X24231762Y-154398156D01*
X24350156Y-154279762D01*
X24489374Y-154186740D01*
X24489376Y-154186739D01*
X24644065Y-154122664D01*
X24808281Y-154090000D01*
X24975719Y-154090000D01*
X25139935Y-154122664D01*
G37*
G36*
X27679935Y-154122664D02*
G01*
X27834624Y-154186739D01*
X27834626Y-154186740D01*
X27973844Y-154279762D01*
X28092238Y-154398156D01*
X28173651Y-154520000D01*
X28185261Y-154537376D01*
X28249336Y-154692065D01*
X28282000Y-154856281D01*
X28282000Y-155023719D01*
X28249336Y-155187935D01*
X28185261Y-155342624D01*
X28185260Y-155342626D01*
X28092238Y-155481844D01*
X27973844Y-155600238D01*
X27834626Y-155693260D01*
X27834625Y-155693261D01*
X27834624Y-155693261D01*
X27679935Y-155757336D01*
X27515719Y-155790000D01*
X27348281Y-155790000D01*
X27184065Y-155757336D01*
X27029376Y-155693261D01*
X27029375Y-155693261D01*
X27029374Y-155693260D01*
X26890156Y-155600238D01*
X26771762Y-155481844D01*
X26678740Y-155342626D01*
X26678739Y-155342624D01*
X26614664Y-155187935D01*
X26582000Y-155023719D01*
X26582000Y-154856281D01*
X26614664Y-154692065D01*
X26678739Y-154537376D01*
X26690349Y-154520000D01*
X26771762Y-154398156D01*
X26890156Y-154279762D01*
X27029374Y-154186740D01*
X27029376Y-154186739D01*
X27184065Y-154122664D01*
X27348281Y-154090000D01*
X27515719Y-154090000D01*
X27679935Y-154122664D01*
G37*
G36*
X167379935Y-152852664D02*
G01*
X167534624Y-152916739D01*
X167534626Y-152916740D01*
X167673844Y-153009762D01*
X167792238Y-153128156D01*
X167885260Y-153267374D01*
X167885261Y-153267376D01*
X167949336Y-153422065D01*
X167982000Y-153586281D01*
X167982000Y-153753719D01*
X167949336Y-153917935D01*
X167885261Y-154072624D01*
X167885260Y-154072626D01*
X167792238Y-154211844D01*
X167673844Y-154330238D01*
X167534626Y-154423260D01*
X167534625Y-154423261D01*
X167534624Y-154423261D01*
X167379935Y-154487336D01*
X167215719Y-154520000D01*
X167048281Y-154520000D01*
X166884065Y-154487336D01*
X166729376Y-154423261D01*
X166729375Y-154423261D01*
X166729374Y-154423260D01*
X166590156Y-154330238D01*
X166471762Y-154211844D01*
X166378740Y-154072626D01*
X166378739Y-154072624D01*
X166314664Y-153917935D01*
X166282000Y-153753719D01*
X166282000Y-153586281D01*
X166314664Y-153422065D01*
X166378739Y-153267376D01*
X166378740Y-153267374D01*
X166471762Y-153128156D01*
X166590156Y-153009762D01*
X166729374Y-152916740D01*
X166729376Y-152916739D01*
X166884065Y-152852664D01*
X167048281Y-152820000D01*
X167215719Y-152820000D01*
X167379935Y-152852664D01*
G37*
G36*
X165442000Y-154520000D02*
G01*
X163742000Y-154520000D01*
X163742000Y-152820000D01*
X165442000Y-152820000D01*
X165442000Y-154520000D01*
G37*
G36*
X169919935Y-152852664D02*
G01*
X170074624Y-152916739D01*
X170074626Y-152916740D01*
X170213844Y-153009762D01*
X170332238Y-153128156D01*
X170425260Y-153267374D01*
X170425261Y-153267376D01*
X170489336Y-153422065D01*
X170522000Y-153586281D01*
X170522000Y-153753719D01*
X170489336Y-153917935D01*
X170425261Y-154072624D01*
X170425260Y-154072626D01*
X170332238Y-154211844D01*
X170213844Y-154330238D01*
X170074626Y-154423260D01*
X170074625Y-154423261D01*
X170074624Y-154423261D01*
X169919935Y-154487336D01*
X169755719Y-154520000D01*
X169588281Y-154520000D01*
X169424065Y-154487336D01*
X169269376Y-154423261D01*
X169269375Y-154423261D01*
X169269374Y-154423260D01*
X169130156Y-154330238D01*
X169011762Y-154211844D01*
X168918740Y-154072626D01*
X168918739Y-154072624D01*
X168854664Y-153917935D01*
X168822000Y-153753719D01*
X168822000Y-153586281D01*
X168854664Y-153422065D01*
X168918739Y-153267376D01*
X168918740Y-153267374D01*
X169011762Y-153128156D01*
X169130156Y-153009762D01*
X169269374Y-152916740D01*
X169269376Y-152916739D01*
X169424065Y-152852664D01*
X169588281Y-152820000D01*
X169755719Y-152820000D01*
X169919935Y-152852664D01*
G37*
G36*
X19744520Y-148884586D02*
G01*
X19908310Y-148952430D01*
X20055717Y-149050924D01*
X20181076Y-149176283D01*
X20279570Y-149323690D01*
X20347414Y-149487480D01*
X20382000Y-149661358D01*
X20382000Y-149838642D01*
X20347414Y-150012520D01*
X20279570Y-150176310D01*
X20181076Y-150323717D01*
X20055717Y-150449076D01*
X19908310Y-150547570D01*
X19908309Y-150547571D01*
X19908308Y-150547571D01*
X19744520Y-150615414D01*
X19570644Y-150650000D01*
X19393356Y-150650000D01*
X19219480Y-150615414D01*
X19055692Y-150547571D01*
X19055691Y-150547571D01*
X19055690Y-150547570D01*
X18908283Y-150449076D01*
X18782924Y-150323717D01*
X18684430Y-150176310D01*
X18616586Y-150012520D01*
X18582000Y-149838642D01*
X18582000Y-149661358D01*
X18616586Y-149487480D01*
X18684430Y-149323690D01*
X18782924Y-149176283D01*
X18908283Y-149050924D01*
X19055690Y-148952430D01*
X19219480Y-148884586D01*
X19393356Y-148850000D01*
X19570644Y-148850000D01*
X19744520Y-148884586D01*
G37*
G36*
X164850935Y-146627664D02*
G01*
X165005624Y-146691739D01*
X165005626Y-146691740D01*
X165144844Y-146784762D01*
X165263238Y-146903156D01*
X165356260Y-147042374D01*
X165356261Y-147042376D01*
X165420336Y-147197065D01*
X165453000Y-147361281D01*
X165453000Y-147528719D01*
X165420336Y-147692935D01*
X165356261Y-147847624D01*
X165356260Y-147847626D01*
X165263238Y-147986844D01*
X165144844Y-148105238D01*
X165005626Y-148198260D01*
X165005625Y-148198261D01*
X165005624Y-148198261D01*
X164850935Y-148262336D01*
X164686719Y-148295000D01*
X164519281Y-148295000D01*
X164355065Y-148262336D01*
X164200376Y-148198261D01*
X164200375Y-148198261D01*
X164200374Y-148198260D01*
X164061156Y-148105238D01*
X163942762Y-147986844D01*
X163849740Y-147847626D01*
X163849739Y-147847624D01*
X163785664Y-147692935D01*
X163753000Y-147528719D01*
X163753000Y-147361281D01*
X163785664Y-147197065D01*
X163849739Y-147042376D01*
X163849740Y-147042374D01*
X163942762Y-146903156D01*
X164061156Y-146784762D01*
X164200374Y-146691740D01*
X164200376Y-146691739D01*
X164355065Y-146627664D01*
X164519281Y-146595000D01*
X164686719Y-146595000D01*
X164850935Y-146627664D01*
G37*
G36*
X28485935Y-146627664D02*
G01*
X28640624Y-146691739D01*
X28640626Y-146691740D01*
X28779844Y-146784762D01*
X28898238Y-146903156D01*
X28991260Y-147042374D01*
X28991261Y-147042376D01*
X29055336Y-147197065D01*
X29088000Y-147361281D01*
X29088000Y-147528719D01*
X29055336Y-147692935D01*
X28991261Y-147847624D01*
X28991260Y-147847626D01*
X28898238Y-147986844D01*
X28779844Y-148105238D01*
X28640626Y-148198260D01*
X28640625Y-148198261D01*
X28640624Y-148198261D01*
X28485935Y-148262336D01*
X28321719Y-148295000D01*
X28154281Y-148295000D01*
X27990065Y-148262336D01*
X27835376Y-148198261D01*
X27835375Y-148198261D01*
X27835374Y-148198260D01*
X27696156Y-148105238D01*
X27577762Y-147986844D01*
X27484740Y-147847626D01*
X27484739Y-147847624D01*
X27420664Y-147692935D01*
X27388000Y-147528719D01*
X27388000Y-147361281D01*
X27420664Y-147197065D01*
X27484739Y-147042376D01*
X27484740Y-147042374D01*
X27577762Y-146903156D01*
X27696156Y-146784762D01*
X27835374Y-146691740D01*
X27835376Y-146691739D01*
X27990065Y-146627664D01*
X28154281Y-146595000D01*
X28321719Y-146595000D01*
X28485935Y-146627664D01*
G37*
G36*
X24040935Y-146627664D02*
G01*
X24195624Y-146691739D01*
X24195626Y-146691740D01*
X24334844Y-146784762D01*
X24453238Y-146903156D01*
X24546260Y-147042374D01*
X24546261Y-147042376D01*
X24610336Y-147197065D01*
X24643000Y-147361281D01*
X24643000Y-147528719D01*
X24610336Y-147692935D01*
X24546261Y-147847624D01*
X24546260Y-147847626D01*
X24453238Y-147986844D01*
X24334844Y-148105238D01*
X24195626Y-148198260D01*
X24195625Y-148198261D01*
X24195624Y-148198261D01*
X24040935Y-148262336D01*
X23876719Y-148295000D01*
X23709281Y-148295000D01*
X23545065Y-148262336D01*
X23390376Y-148198261D01*
X23390375Y-148198261D01*
X23390374Y-148198260D01*
X23251156Y-148105238D01*
X23132762Y-147986844D01*
X23039740Y-147847626D01*
X23039739Y-147847624D01*
X22975664Y-147692935D01*
X22943000Y-147528719D01*
X22943000Y-147361281D01*
X22975664Y-147197065D01*
X23039739Y-147042376D01*
X23039740Y-147042374D01*
X23132762Y-146903156D01*
X23251156Y-146784762D01*
X23390374Y-146691740D01*
X23390376Y-146691739D01*
X23545065Y-146627664D01*
X23709281Y-146595000D01*
X23876719Y-146595000D01*
X24040935Y-146627664D01*
G37*
G36*
X169295935Y-146627664D02*
G01*
X169450624Y-146691739D01*
X169450626Y-146691740D01*
X169589844Y-146784762D01*
X169708238Y-146903156D01*
X169801260Y-147042374D01*
X169801261Y-147042376D01*
X169865336Y-147197065D01*
X169898000Y-147361281D01*
X169898000Y-147528719D01*
X169865336Y-147692935D01*
X169801261Y-147847624D01*
X169801260Y-147847626D01*
X169708238Y-147986844D01*
X169589844Y-148105238D01*
X169450626Y-148198260D01*
X169450625Y-148198261D01*
X169450624Y-148198261D01*
X169295935Y-148262336D01*
X169131719Y-148295000D01*
X168964281Y-148295000D01*
X168800065Y-148262336D01*
X168645376Y-148198261D01*
X168645375Y-148198261D01*
X168645374Y-148198260D01*
X168506156Y-148105238D01*
X168387762Y-147986844D01*
X168294740Y-147847626D01*
X168294739Y-147847624D01*
X168230664Y-147692935D01*
X168198000Y-147528719D01*
X168198000Y-147361281D01*
X168230664Y-147197065D01*
X168294739Y-147042376D01*
X168294740Y-147042374D01*
X168387762Y-146903156D01*
X168506156Y-146784762D01*
X168645374Y-146691740D01*
X168645376Y-146691739D01*
X168800065Y-146627664D01*
X168964281Y-146595000D01*
X169131719Y-146595000D01*
X169295935Y-146627664D01*
G37*
G36*
X173404520Y-144074586D02*
G01*
X173568310Y-144142430D01*
X173715717Y-144240924D01*
X173841076Y-144366283D01*
X173939570Y-144513690D01*
X173939571Y-144513692D01*
X174007414Y-144677480D01*
X174042000Y-144851356D01*
X174042000Y-145028644D01*
X174033376Y-145072000D01*
X174007414Y-145202520D01*
X173939570Y-145366310D01*
X173841076Y-145513717D01*
X173715717Y-145639076D01*
X173568310Y-145737570D01*
X173568309Y-145737571D01*
X173568308Y-145737571D01*
X173404520Y-145805414D01*
X173230644Y-145840000D01*
X173053356Y-145840000D01*
X172879480Y-145805414D01*
X172715692Y-145737571D01*
X172715691Y-145737571D01*
X172715690Y-145737570D01*
X172568283Y-145639076D01*
X172442924Y-145513717D01*
X172344430Y-145366310D01*
X172276586Y-145202520D01*
X172250624Y-145072000D01*
X172242000Y-145028644D01*
X172242000Y-144851356D01*
X172276586Y-144677480D01*
X172344429Y-144513692D01*
X172344430Y-144513690D01*
X172442924Y-144366283D01*
X172568283Y-144240924D01*
X172715690Y-144142430D01*
X172879480Y-144074586D01*
X173053356Y-144040000D01*
X173230644Y-144040000D01*
X173404520Y-144074586D01*
G37*
G36*
X23255195Y-143567522D02*
G01*
X23304267Y-143577283D01*
X23442942Y-143634724D01*
X23567747Y-143718116D01*
X23673884Y-143824253D01*
X23757276Y-143949058D01*
X23814717Y-144087733D01*
X23844000Y-144234950D01*
X23844000Y-144385050D01*
X23814717Y-144532267D01*
X23757276Y-144670942D01*
X23673884Y-144795747D01*
X23567747Y-144901884D01*
X23442942Y-144985276D01*
X23304267Y-145042717D01*
X23255195Y-145052478D01*
X23157052Y-145072000D01*
X23006948Y-145072000D01*
X22908805Y-145052478D01*
X22859733Y-145042717D01*
X22721058Y-144985276D01*
X22596253Y-144901884D01*
X22490116Y-144795747D01*
X22406724Y-144670942D01*
X22349283Y-144532267D01*
X22320000Y-144385050D01*
X22320000Y-144234950D01*
X22349283Y-144087733D01*
X22406724Y-143949058D01*
X22490116Y-143824253D01*
X22596253Y-143718116D01*
X22721058Y-143634724D01*
X22859733Y-143577283D01*
X22908805Y-143567522D01*
X23006948Y-143548000D01*
X23157052Y-143548000D01*
X23255195Y-143567522D01*
G37*
G36*
X164065195Y-143567522D02*
G01*
X164114267Y-143577283D01*
X164252942Y-143634724D01*
X164377747Y-143718116D01*
X164483884Y-143824253D01*
X164567276Y-143949058D01*
X164624717Y-144087733D01*
X164654000Y-144234950D01*
X164654000Y-144385050D01*
X164624717Y-144532267D01*
X164567276Y-144670942D01*
X164483884Y-144795747D01*
X164377747Y-144901884D01*
X164252942Y-144985276D01*
X164114267Y-145042717D01*
X164065195Y-145052478D01*
X163967052Y-145072000D01*
X163816948Y-145072000D01*
X163718805Y-145052478D01*
X163669733Y-145042717D01*
X163531058Y-144985276D01*
X163406253Y-144901884D01*
X163300116Y-144795747D01*
X163216724Y-144670942D01*
X163159283Y-144532267D01*
X163130000Y-144385050D01*
X163130000Y-144234950D01*
X163159283Y-144087733D01*
X163216724Y-143949058D01*
X163300116Y-143824253D01*
X163406253Y-143718116D01*
X163531058Y-143634724D01*
X163669733Y-143577283D01*
X163718805Y-143567522D01*
X163816948Y-143548000D01*
X163967052Y-143548000D01*
X164065195Y-143567522D01*
G37*
G36*
X169856195Y-143527522D02*
G01*
X169905267Y-143537283D01*
X170043942Y-143594724D01*
X170168747Y-143678116D01*
X170274884Y-143784253D01*
X170358276Y-143909058D01*
X170415717Y-144047733D01*
X170415717Y-144047734D01*
X170445000Y-144194948D01*
X170445000Y-144345052D01*
X170437044Y-144385050D01*
X170415717Y-144492267D01*
X170358276Y-144630942D01*
X170274884Y-144755747D01*
X170168747Y-144861884D01*
X170043942Y-144945276D01*
X169905267Y-145002717D01*
X169856195Y-145012478D01*
X169758052Y-145032000D01*
X169607948Y-145032000D01*
X169509805Y-145012478D01*
X169460733Y-145002717D01*
X169322058Y-144945276D01*
X169197253Y-144861884D01*
X169091116Y-144755747D01*
X169007724Y-144630942D01*
X168950283Y-144492267D01*
X168928956Y-144385050D01*
X168921000Y-144345052D01*
X168921000Y-144194948D01*
X168950283Y-144047734D01*
X168950283Y-144047733D01*
X169007724Y-143909058D01*
X169091116Y-143784253D01*
X169197253Y-143678116D01*
X169322058Y-143594724D01*
X169460733Y-143537283D01*
X169509805Y-143527522D01*
X169607948Y-143508000D01*
X169758052Y-143508000D01*
X169856195Y-143527522D01*
G37*
G36*
X29046195Y-143527522D02*
G01*
X29095267Y-143537283D01*
X29233942Y-143594724D01*
X29358747Y-143678116D01*
X29464884Y-143784253D01*
X29548276Y-143909058D01*
X29605717Y-144047733D01*
X29605717Y-144047734D01*
X29635000Y-144194948D01*
X29635000Y-144345052D01*
X29627044Y-144385050D01*
X29605717Y-144492267D01*
X29548276Y-144630942D01*
X29464884Y-144755747D01*
X29358747Y-144861884D01*
X29233942Y-144945276D01*
X29095267Y-145002717D01*
X29046195Y-145012478D01*
X28948052Y-145032000D01*
X28797948Y-145032000D01*
X28699805Y-145012478D01*
X28650733Y-145002717D01*
X28512058Y-144945276D01*
X28387253Y-144861884D01*
X28281116Y-144755747D01*
X28197724Y-144630942D01*
X28140283Y-144492267D01*
X28118956Y-144385050D01*
X28111000Y-144345052D01*
X28111000Y-144194948D01*
X28140283Y-144047734D01*
X28140283Y-144047733D01*
X28197724Y-143909058D01*
X28281116Y-143784253D01*
X28387253Y-143678116D01*
X28512058Y-143594724D01*
X28650733Y-143537283D01*
X28699805Y-143527522D01*
X28797948Y-143508000D01*
X28948052Y-143508000D01*
X29046195Y-143527522D01*
G37*
G36*
X20382000Y-143030000D02*
G01*
X18582000Y-143030000D01*
X18582000Y-141230000D01*
X20382000Y-141230000D01*
X20382000Y-143030000D01*
G37*
G36*
X28485935Y-140277664D02*
G01*
X28640624Y-140341739D01*
X28640626Y-140341740D01*
X28779844Y-140434762D01*
X28898238Y-140553156D01*
X28991260Y-140692374D01*
X28991261Y-140692376D01*
X29055336Y-140847065D01*
X29088000Y-141011281D01*
X29088000Y-141178719D01*
X29055336Y-141342935D01*
X28991261Y-141497624D01*
X28991260Y-141497626D01*
X28898238Y-141636844D01*
X28779844Y-141755238D01*
X28640626Y-141848260D01*
X28640625Y-141848261D01*
X28640624Y-141848261D01*
X28485935Y-141912336D01*
X28321719Y-141945000D01*
X28154281Y-141945000D01*
X27990065Y-141912336D01*
X27835376Y-141848261D01*
X27835375Y-141848261D01*
X27835374Y-141848260D01*
X27696156Y-141755238D01*
X27577762Y-141636844D01*
X27484740Y-141497626D01*
X27484739Y-141497624D01*
X27420664Y-141342935D01*
X27388000Y-141178719D01*
X27388000Y-141011281D01*
X27420664Y-140847065D01*
X27484739Y-140692376D01*
X27484740Y-140692374D01*
X27577762Y-140553156D01*
X27696156Y-140434762D01*
X27835374Y-140341740D01*
X27835376Y-140341739D01*
X27990065Y-140277664D01*
X28154281Y-140245000D01*
X28321719Y-140245000D01*
X28485935Y-140277664D01*
G37*
G36*
X169295935Y-140277664D02*
G01*
X169450624Y-140341739D01*
X169450626Y-140341740D01*
X169589844Y-140434762D01*
X169708238Y-140553156D01*
X169801260Y-140692374D01*
X169801261Y-140692376D01*
X169865336Y-140847065D01*
X169898000Y-141011281D01*
X169898000Y-141178719D01*
X169865336Y-141342935D01*
X169801261Y-141497624D01*
X169801260Y-141497626D01*
X169708238Y-141636844D01*
X169589844Y-141755238D01*
X169450626Y-141848260D01*
X169450625Y-141848261D01*
X169450624Y-141848261D01*
X169295935Y-141912336D01*
X169131719Y-141945000D01*
X168964281Y-141945000D01*
X168800065Y-141912336D01*
X168645376Y-141848261D01*
X168645375Y-141848261D01*
X168645374Y-141848260D01*
X168506156Y-141755238D01*
X168387762Y-141636844D01*
X168294740Y-141497626D01*
X168294739Y-141497624D01*
X168230664Y-141342935D01*
X168198000Y-141178719D01*
X168198000Y-141011281D01*
X168230664Y-140847065D01*
X168294739Y-140692376D01*
X168294740Y-140692374D01*
X168387762Y-140553156D01*
X168506156Y-140434762D01*
X168645374Y-140341740D01*
X168645376Y-140341739D01*
X168800065Y-140277664D01*
X168964281Y-140245000D01*
X169131719Y-140245000D01*
X169295935Y-140277664D01*
G37*
G36*
X164850935Y-140277664D02*
G01*
X165005624Y-140341739D01*
X165005626Y-140341740D01*
X165144844Y-140434762D01*
X165263238Y-140553156D01*
X165356260Y-140692374D01*
X165356261Y-140692376D01*
X165420336Y-140847065D01*
X165453000Y-141011281D01*
X165453000Y-141178719D01*
X165420336Y-141342935D01*
X165356261Y-141497624D01*
X165356260Y-141497626D01*
X165263238Y-141636844D01*
X165144844Y-141755238D01*
X165005626Y-141848260D01*
X165005625Y-141848261D01*
X165005624Y-141848261D01*
X164850935Y-141912336D01*
X164686719Y-141945000D01*
X164519281Y-141945000D01*
X164355065Y-141912336D01*
X164200376Y-141848261D01*
X164200375Y-141848261D01*
X164200374Y-141848260D01*
X164061156Y-141755238D01*
X163942762Y-141636844D01*
X163849740Y-141497626D01*
X163849739Y-141497624D01*
X163785664Y-141342935D01*
X163753000Y-141178719D01*
X163753000Y-141011281D01*
X163785664Y-140847065D01*
X163849739Y-140692376D01*
X163849740Y-140692374D01*
X163942762Y-140553156D01*
X164061156Y-140434762D01*
X164200374Y-140341740D01*
X164200376Y-140341739D01*
X164355065Y-140277664D01*
X164519281Y-140245000D01*
X164686719Y-140245000D01*
X164850935Y-140277664D01*
G37*
G36*
X24040935Y-140277664D02*
G01*
X24195624Y-140341739D01*
X24195626Y-140341740D01*
X24334844Y-140434762D01*
X24453238Y-140553156D01*
X24546260Y-140692374D01*
X24546261Y-140692376D01*
X24610336Y-140847065D01*
X24643000Y-141011281D01*
X24643000Y-141178719D01*
X24610336Y-141342935D01*
X24546261Y-141497624D01*
X24546260Y-141497626D01*
X24453238Y-141636844D01*
X24334844Y-141755238D01*
X24195626Y-141848260D01*
X24195625Y-141848261D01*
X24195624Y-141848261D01*
X24040935Y-141912336D01*
X23876719Y-141945000D01*
X23709281Y-141945000D01*
X23545065Y-141912336D01*
X23390376Y-141848261D01*
X23390375Y-141848261D01*
X23390374Y-141848260D01*
X23251156Y-141755238D01*
X23132762Y-141636844D01*
X23039740Y-141497626D01*
X23039739Y-141497624D01*
X22975664Y-141342935D01*
X22943000Y-141178719D01*
X22943000Y-141011281D01*
X22975664Y-140847065D01*
X23039739Y-140692376D01*
X23039740Y-140692374D01*
X23132762Y-140553156D01*
X23251156Y-140434762D01*
X23390374Y-140341740D01*
X23390376Y-140341739D01*
X23545065Y-140277664D01*
X23709281Y-140245000D01*
X23876719Y-140245000D01*
X24040935Y-140277664D01*
G37*
G36*
X19715351Y-138510743D02*
G01*
X19860941Y-138571048D01*
X19991970Y-138658599D01*
X20103401Y-138770030D01*
X20190952Y-138901059D01*
X20251257Y-139046649D01*
X20282000Y-139201206D01*
X20282000Y-139358794D01*
X20251257Y-139513351D01*
X20190952Y-139658941D01*
X20103401Y-139789970D01*
X19991970Y-139901401D01*
X19860941Y-139988952D01*
X19715351Y-140049257D01*
X19560794Y-140080000D01*
X19403206Y-140080000D01*
X19248649Y-140049257D01*
X19103059Y-139988952D01*
X18972030Y-139901401D01*
X18860599Y-139789970D01*
X18773048Y-139658941D01*
X18712743Y-139513351D01*
X18682000Y-139358794D01*
X18682000Y-139201206D01*
X18712743Y-139046649D01*
X18773048Y-138901059D01*
X18860599Y-138770030D01*
X18972030Y-138658599D01*
X19103059Y-138571048D01*
X19248649Y-138510743D01*
X19403206Y-138480000D01*
X19560794Y-138480000D01*
X19715351Y-138510743D01*
G37*
G36*
X174042000Y-138220000D02*
G01*
X172242000Y-138220000D01*
X172242000Y-136420000D01*
X174042000Y-136420000D01*
X174042000Y-138220000D01*
G37*
G36*
X19715351Y-130890743D02*
G01*
X19860941Y-130951048D01*
X19991970Y-131038599D01*
X20103401Y-131150030D01*
X20190952Y-131281059D01*
X20251257Y-131426649D01*
X20282000Y-131581206D01*
X20282000Y-131738794D01*
X20251257Y-131893351D01*
X20190952Y-132038941D01*
X20103401Y-132169970D01*
X19991970Y-132281401D01*
X19860941Y-132368952D01*
X19715351Y-132429257D01*
X19560794Y-132460000D01*
X19403206Y-132460000D01*
X19248649Y-132429257D01*
X19103059Y-132368952D01*
X18972030Y-132281401D01*
X18860599Y-132169970D01*
X18773048Y-132038941D01*
X18712743Y-131893351D01*
X18682000Y-131738794D01*
X18682000Y-131581206D01*
X18712743Y-131426649D01*
X18773048Y-131281059D01*
X18860599Y-131150030D01*
X18972030Y-131038599D01*
X19103059Y-130951048D01*
X19248649Y-130890743D01*
X19403206Y-130860000D01*
X19560794Y-130860000D01*
X19715351Y-130890743D01*
G37*
G36*
X173644520Y-128724586D02*
G01*
X173808310Y-128792430D01*
X173955717Y-128890924D01*
X174081076Y-129016283D01*
X174179570Y-129163690D01*
X174247414Y-129327480D01*
X174282000Y-129501358D01*
X174282000Y-129678642D01*
X174247414Y-129852520D01*
X174179570Y-130016310D01*
X174081076Y-130163717D01*
X173955717Y-130289076D01*
X173808310Y-130387570D01*
X173808309Y-130387571D01*
X173808308Y-130387571D01*
X173644520Y-130455414D01*
X173470644Y-130490000D01*
X173293356Y-130490000D01*
X173119480Y-130455414D01*
X172955692Y-130387571D01*
X172955691Y-130387571D01*
X172955690Y-130387570D01*
X172808283Y-130289076D01*
X172682924Y-130163717D01*
X172584430Y-130016310D01*
X172516586Y-129852520D01*
X172482000Y-129678642D01*
X172482000Y-129501358D01*
X172516586Y-129327480D01*
X172584430Y-129163690D01*
X172682924Y-129016283D01*
X172808283Y-128890924D01*
X172955690Y-128792430D01*
X173119480Y-128724586D01*
X173293356Y-128690000D01*
X173470644Y-128690000D01*
X173644520Y-128724586D01*
G37*
G36*
X20074520Y-127404586D02*
G01*
X20238310Y-127472430D01*
X20385717Y-127570924D01*
X20511076Y-127696283D01*
X20609570Y-127843690D01*
X20609571Y-127843692D01*
X20663960Y-127975000D01*
X20677414Y-128007480D01*
X20712000Y-128181358D01*
X20712000Y-128358642D01*
X20677414Y-128532520D01*
X20609570Y-128696310D01*
X20511076Y-128843717D01*
X20385717Y-128969076D01*
X20238310Y-129067570D01*
X20238309Y-129067571D01*
X20238308Y-129067571D01*
X20074520Y-129135414D01*
X19900644Y-129170000D01*
X19723356Y-129170000D01*
X19549480Y-129135414D01*
X19385692Y-129067571D01*
X19385691Y-129067571D01*
X19385690Y-129067570D01*
X19238283Y-128969076D01*
X19112924Y-128843717D01*
X19014430Y-128696310D01*
X18946586Y-128532520D01*
X18912000Y-128358642D01*
X18912000Y-128181358D01*
X18946586Y-128007480D01*
X18960040Y-127975000D01*
X19014429Y-127843692D01*
X19014430Y-127843690D01*
X19112924Y-127696283D01*
X19238283Y-127570924D01*
X19385690Y-127472430D01*
X19549480Y-127404586D01*
X19723356Y-127370000D01*
X19900644Y-127370000D01*
X20074520Y-127404586D01*
G37*
G36*
X24040935Y-126307664D02*
G01*
X24195624Y-126371739D01*
X24195626Y-126371740D01*
X24334844Y-126464762D01*
X24453238Y-126583156D01*
X24546260Y-126722374D01*
X24546261Y-126722376D01*
X24610336Y-126877065D01*
X24643000Y-127041281D01*
X24643000Y-127208719D01*
X24610336Y-127372935D01*
X24569123Y-127472430D01*
X24546260Y-127527626D01*
X24453238Y-127666844D01*
X24334844Y-127785238D01*
X24195626Y-127878260D01*
X24195625Y-127878261D01*
X24195624Y-127878261D01*
X24040935Y-127942336D01*
X23876719Y-127975000D01*
X23709281Y-127975000D01*
X23545065Y-127942336D01*
X23390376Y-127878261D01*
X23390375Y-127878261D01*
X23390374Y-127878260D01*
X23251156Y-127785238D01*
X23132762Y-127666844D01*
X23039740Y-127527626D01*
X23016877Y-127472430D01*
X22975664Y-127372935D01*
X22943000Y-127208719D01*
X22943000Y-127041281D01*
X22975664Y-126877065D01*
X23039739Y-126722376D01*
X23039740Y-126722374D01*
X23132762Y-126583156D01*
X23251156Y-126464762D01*
X23390374Y-126371740D01*
X23390376Y-126371739D01*
X23545065Y-126307664D01*
X23709281Y-126275000D01*
X23876719Y-126275000D01*
X24040935Y-126307664D01*
G37*
G36*
X28485935Y-126307664D02*
G01*
X28640624Y-126371739D01*
X28640626Y-126371740D01*
X28779844Y-126464762D01*
X28898238Y-126583156D01*
X28991260Y-126722374D01*
X28991261Y-126722376D01*
X29055336Y-126877065D01*
X29088000Y-127041281D01*
X29088000Y-127208719D01*
X29055336Y-127372935D01*
X29014123Y-127472430D01*
X28991260Y-127527626D01*
X28898238Y-127666844D01*
X28779844Y-127785238D01*
X28640626Y-127878260D01*
X28640625Y-127878261D01*
X28640624Y-127878261D01*
X28485935Y-127942336D01*
X28321719Y-127975000D01*
X28154281Y-127975000D01*
X27990065Y-127942336D01*
X27835376Y-127878261D01*
X27835375Y-127878261D01*
X27835374Y-127878260D01*
X27696156Y-127785238D01*
X27577762Y-127666844D01*
X27484740Y-127527626D01*
X27461877Y-127472430D01*
X27420664Y-127372935D01*
X27388000Y-127208719D01*
X27388000Y-127041281D01*
X27420664Y-126877065D01*
X27484739Y-126722376D01*
X27484740Y-126722374D01*
X27577762Y-126583156D01*
X27696156Y-126464762D01*
X27835374Y-126371740D01*
X27835376Y-126371739D01*
X27990065Y-126307664D01*
X28154281Y-126275000D01*
X28321719Y-126275000D01*
X28485935Y-126307664D01*
G37*
G36*
X164723935Y-126307664D02*
G01*
X164878624Y-126371739D01*
X164878626Y-126371740D01*
X165017844Y-126464762D01*
X165136238Y-126583156D01*
X165229260Y-126722374D01*
X165229261Y-126722376D01*
X165293336Y-126877065D01*
X165326000Y-127041281D01*
X165326000Y-127208719D01*
X165293336Y-127372935D01*
X165252123Y-127472430D01*
X165229260Y-127527626D01*
X165136238Y-127666844D01*
X165017844Y-127785238D01*
X164878626Y-127878260D01*
X164878625Y-127878261D01*
X164878624Y-127878261D01*
X164723935Y-127942336D01*
X164559719Y-127975000D01*
X164392281Y-127975000D01*
X164228065Y-127942336D01*
X164073376Y-127878261D01*
X164073375Y-127878261D01*
X164073374Y-127878260D01*
X163934156Y-127785238D01*
X163815762Y-127666844D01*
X163722740Y-127527626D01*
X163699877Y-127472430D01*
X163658664Y-127372935D01*
X163626000Y-127208719D01*
X163626000Y-127041281D01*
X163658664Y-126877065D01*
X163722739Y-126722376D01*
X163722740Y-126722374D01*
X163815762Y-126583156D01*
X163934156Y-126464762D01*
X164073374Y-126371740D01*
X164073376Y-126371739D01*
X164228065Y-126307664D01*
X164392281Y-126275000D01*
X164559719Y-126275000D01*
X164723935Y-126307664D01*
G37*
G36*
X169168935Y-126307664D02*
G01*
X169323624Y-126371739D01*
X169323626Y-126371740D01*
X169462844Y-126464762D01*
X169581238Y-126583156D01*
X169674260Y-126722374D01*
X169674261Y-126722376D01*
X169738336Y-126877065D01*
X169771000Y-127041281D01*
X169771000Y-127208719D01*
X169738336Y-127372935D01*
X169697123Y-127472430D01*
X169674260Y-127527626D01*
X169581238Y-127666844D01*
X169462844Y-127785238D01*
X169323626Y-127878260D01*
X169323625Y-127878261D01*
X169323624Y-127878261D01*
X169168935Y-127942336D01*
X169004719Y-127975000D01*
X168837281Y-127975000D01*
X168673065Y-127942336D01*
X168518376Y-127878261D01*
X168518375Y-127878261D01*
X168518374Y-127878260D01*
X168379156Y-127785238D01*
X168260762Y-127666844D01*
X168167740Y-127527626D01*
X168144877Y-127472430D01*
X168103664Y-127372935D01*
X168071000Y-127208719D01*
X168071000Y-127041281D01*
X168103664Y-126877065D01*
X168167739Y-126722376D01*
X168167740Y-126722374D01*
X168260762Y-126583156D01*
X168379156Y-126464762D01*
X168518374Y-126371740D01*
X168518376Y-126371739D01*
X168673065Y-126307664D01*
X168837281Y-126275000D01*
X169004719Y-126275000D01*
X169168935Y-126307664D01*
G37*
G36*
X23255195Y-123247522D02*
G01*
X23304267Y-123257283D01*
X23442942Y-123314724D01*
X23567747Y-123398116D01*
X23673884Y-123504253D01*
X23757276Y-123629058D01*
X23814717Y-123767733D01*
X23844000Y-123914950D01*
X23844000Y-124065050D01*
X23814717Y-124212267D01*
X23757276Y-124350942D01*
X23673884Y-124475747D01*
X23567747Y-124581884D01*
X23442942Y-124665276D01*
X23304267Y-124722717D01*
X23255195Y-124732478D01*
X23157052Y-124752000D01*
X23006948Y-124752000D01*
X22908805Y-124732478D01*
X22859733Y-124722717D01*
X22721058Y-124665276D01*
X22596253Y-124581884D01*
X22490116Y-124475747D01*
X22406724Y-124350942D01*
X22349283Y-124212267D01*
X22320000Y-124065050D01*
X22320000Y-123914950D01*
X22349283Y-123767733D01*
X22406724Y-123629058D01*
X22490116Y-123504253D01*
X22596253Y-123398116D01*
X22721058Y-123314724D01*
X22859733Y-123257283D01*
X22908805Y-123247522D01*
X23006948Y-123228000D01*
X23157052Y-123228000D01*
X23255195Y-123247522D01*
G37*
G36*
X164014195Y-123207522D02*
G01*
X164063267Y-123217283D01*
X164201942Y-123274724D01*
X164326747Y-123358116D01*
X164432884Y-123464253D01*
X164516276Y-123589058D01*
X164573717Y-123727733D01*
X164603000Y-123874950D01*
X164603000Y-124025050D01*
X164573717Y-124172267D01*
X164516276Y-124310942D01*
X164432884Y-124435747D01*
X164326747Y-124541884D01*
X164201942Y-124625276D01*
X164063267Y-124682717D01*
X164014195Y-124692478D01*
X163916052Y-124712000D01*
X163765948Y-124712000D01*
X163667805Y-124692478D01*
X163618733Y-124682717D01*
X163480058Y-124625276D01*
X163355253Y-124541884D01*
X163249116Y-124435747D01*
X163165724Y-124310942D01*
X163108283Y-124172267D01*
X163079000Y-124025050D01*
X163079000Y-123874950D01*
X163108283Y-123727733D01*
X163165724Y-123589058D01*
X163249116Y-123464253D01*
X163355253Y-123358116D01*
X163480058Y-123274724D01*
X163618733Y-123217283D01*
X163667805Y-123207522D01*
X163765948Y-123188000D01*
X163916052Y-123188000D01*
X164014195Y-123207522D01*
G37*
G36*
X29046195Y-123207522D02*
G01*
X29095267Y-123217283D01*
X29233942Y-123274724D01*
X29358747Y-123358116D01*
X29464884Y-123464253D01*
X29548276Y-123589058D01*
X29605717Y-123727733D01*
X29635000Y-123874950D01*
X29635000Y-124025050D01*
X29605717Y-124172267D01*
X29548276Y-124310942D01*
X29464884Y-124435747D01*
X29358747Y-124541884D01*
X29233942Y-124625276D01*
X29095267Y-124682717D01*
X29046195Y-124692478D01*
X28948052Y-124712000D01*
X28797948Y-124712000D01*
X28699805Y-124692478D01*
X28650733Y-124682717D01*
X28512058Y-124625276D01*
X28387253Y-124541884D01*
X28281116Y-124435747D01*
X28197724Y-124310942D01*
X28140283Y-124172267D01*
X28111000Y-124025050D01*
X28111000Y-123874950D01*
X28140283Y-123727733D01*
X28197724Y-123589058D01*
X28281116Y-123464253D01*
X28387253Y-123358116D01*
X28512058Y-123274724D01*
X28650733Y-123217283D01*
X28699805Y-123207522D01*
X28797948Y-123188000D01*
X28948052Y-123188000D01*
X29046195Y-123207522D01*
G37*
G36*
X169805195Y-123167522D02*
G01*
X169854267Y-123177283D01*
X169992942Y-123234724D01*
X170117747Y-123318116D01*
X170223884Y-123424253D01*
X170307276Y-123549058D01*
X170364717Y-123687733D01*
X170394000Y-123834950D01*
X170394000Y-123985050D01*
X170364717Y-124132267D01*
X170307276Y-124270942D01*
X170223884Y-124395747D01*
X170117747Y-124501884D01*
X169992942Y-124585276D01*
X169854267Y-124642717D01*
X169805195Y-124652478D01*
X169707052Y-124672000D01*
X169556948Y-124672000D01*
X169458805Y-124652478D01*
X169409733Y-124642717D01*
X169271058Y-124585276D01*
X169146253Y-124501884D01*
X169040116Y-124395747D01*
X168956724Y-124270942D01*
X168899283Y-124132267D01*
X168870000Y-123985050D01*
X168870000Y-123834950D01*
X168899283Y-123687733D01*
X168956724Y-123549058D01*
X169040116Y-123424253D01*
X169146253Y-123318116D01*
X169271058Y-123234724D01*
X169409733Y-123177283D01*
X169458805Y-123167522D01*
X169556948Y-123148000D01*
X169707052Y-123148000D01*
X169805195Y-123167522D01*
G37*
G36*
X174282000Y-122870000D02*
G01*
X172482000Y-122870000D01*
X172482000Y-121070000D01*
X174282000Y-121070000D01*
X174282000Y-122870000D01*
G37*
G36*
X164723935Y-119957664D02*
G01*
X164878624Y-120021739D01*
X164878626Y-120021740D01*
X165017844Y-120114762D01*
X165136238Y-120233156D01*
X165229260Y-120372374D01*
X165229261Y-120372376D01*
X165293336Y-120527065D01*
X165326000Y-120691281D01*
X165326000Y-120858719D01*
X165293336Y-121022935D01*
X165229261Y-121177624D01*
X165229260Y-121177626D01*
X165136238Y-121316844D01*
X165017844Y-121435238D01*
X164878626Y-121528260D01*
X164878625Y-121528261D01*
X164878624Y-121528261D01*
X164723935Y-121592336D01*
X164559719Y-121625000D01*
X164392281Y-121625000D01*
X164228065Y-121592336D01*
X164073376Y-121528261D01*
X164073375Y-121528261D01*
X164073374Y-121528260D01*
X163934156Y-121435238D01*
X163815762Y-121316844D01*
X163722740Y-121177626D01*
X163722739Y-121177624D01*
X163658664Y-121022935D01*
X163626000Y-120858719D01*
X163626000Y-120691281D01*
X163658664Y-120527065D01*
X163722739Y-120372376D01*
X163722740Y-120372374D01*
X163815762Y-120233156D01*
X163934156Y-120114762D01*
X164073374Y-120021740D01*
X164073376Y-120021739D01*
X164228065Y-119957664D01*
X164392281Y-119925000D01*
X164559719Y-119925000D01*
X164723935Y-119957664D01*
G37*
G36*
X28485935Y-119957664D02*
G01*
X28640624Y-120021739D01*
X28640626Y-120021740D01*
X28779844Y-120114762D01*
X28898238Y-120233156D01*
X28991260Y-120372374D01*
X28991261Y-120372376D01*
X29055336Y-120527065D01*
X29088000Y-120691281D01*
X29088000Y-120858719D01*
X29055336Y-121022935D01*
X28991261Y-121177624D01*
X28991260Y-121177626D01*
X28898238Y-121316844D01*
X28779844Y-121435238D01*
X28640626Y-121528260D01*
X28640625Y-121528261D01*
X28640624Y-121528261D01*
X28485935Y-121592336D01*
X28321719Y-121625000D01*
X28154281Y-121625000D01*
X27990065Y-121592336D01*
X27835376Y-121528261D01*
X27835375Y-121528261D01*
X27835374Y-121528260D01*
X27696156Y-121435238D01*
X27577762Y-121316844D01*
X27484740Y-121177626D01*
X27484739Y-121177624D01*
X27420664Y-121022935D01*
X27388000Y-120858719D01*
X27388000Y-120691281D01*
X27420664Y-120527065D01*
X27484739Y-120372376D01*
X27484740Y-120372374D01*
X27577762Y-120233156D01*
X27696156Y-120114762D01*
X27835374Y-120021740D01*
X27835376Y-120021739D01*
X27990065Y-119957664D01*
X28154281Y-119925000D01*
X28321719Y-119925000D01*
X28485935Y-119957664D01*
G37*
G36*
X24040935Y-119957664D02*
G01*
X24195624Y-120021739D01*
X24195626Y-120021740D01*
X24334844Y-120114762D01*
X24453238Y-120233156D01*
X24546260Y-120372374D01*
X24546261Y-120372376D01*
X24610336Y-120527065D01*
X24643000Y-120691281D01*
X24643000Y-120858719D01*
X24610336Y-121022935D01*
X24546261Y-121177624D01*
X24546260Y-121177626D01*
X24453238Y-121316844D01*
X24334844Y-121435238D01*
X24195626Y-121528260D01*
X24195625Y-121528261D01*
X24195624Y-121528261D01*
X24040935Y-121592336D01*
X23876719Y-121625000D01*
X23709281Y-121625000D01*
X23545065Y-121592336D01*
X23390376Y-121528261D01*
X23390375Y-121528261D01*
X23390374Y-121528260D01*
X23251156Y-121435238D01*
X23132762Y-121316844D01*
X23039740Y-121177626D01*
X23039739Y-121177624D01*
X22975664Y-121022935D01*
X22943000Y-120858719D01*
X22943000Y-120691281D01*
X22975664Y-120527065D01*
X23039739Y-120372376D01*
X23039740Y-120372374D01*
X23132762Y-120233156D01*
X23251156Y-120114762D01*
X23390374Y-120021740D01*
X23390376Y-120021739D01*
X23545065Y-119957664D01*
X23709281Y-119925000D01*
X23876719Y-119925000D01*
X24040935Y-119957664D01*
G37*
G36*
X169168935Y-119957664D02*
G01*
X169323624Y-120021739D01*
X169323626Y-120021740D01*
X169462844Y-120114762D01*
X169581238Y-120233156D01*
X169674260Y-120372374D01*
X169674261Y-120372376D01*
X169738336Y-120527065D01*
X169771000Y-120691281D01*
X169771000Y-120858719D01*
X169738336Y-121022935D01*
X169674261Y-121177624D01*
X169674260Y-121177626D01*
X169581238Y-121316844D01*
X169462844Y-121435238D01*
X169323626Y-121528260D01*
X169323625Y-121528261D01*
X169323624Y-121528261D01*
X169168935Y-121592336D01*
X169004719Y-121625000D01*
X168837281Y-121625000D01*
X168673065Y-121592336D01*
X168518376Y-121528261D01*
X168518375Y-121528261D01*
X168518374Y-121528260D01*
X168379156Y-121435238D01*
X168260762Y-121316844D01*
X168167740Y-121177626D01*
X168167739Y-121177624D01*
X168103664Y-121022935D01*
X168071000Y-120858719D01*
X168071000Y-120691281D01*
X168103664Y-120527065D01*
X168167739Y-120372376D01*
X168167740Y-120372374D01*
X168260762Y-120233156D01*
X168379156Y-120114762D01*
X168518374Y-120021740D01*
X168518376Y-120021739D01*
X168673065Y-119957664D01*
X168837281Y-119925000D01*
X169004719Y-119925000D01*
X169168935Y-119957664D01*
G37*
G36*
X20712000Y-121550000D02*
G01*
X18912000Y-121550000D01*
X18912000Y-119750000D01*
X20712000Y-119750000D01*
X20712000Y-121550000D01*
G37*
G36*
X24040935Y-105987664D02*
G01*
X24195624Y-106051739D01*
X24195626Y-106051740D01*
X24334844Y-106144762D01*
X24453238Y-106263156D01*
X24546260Y-106402374D01*
X24546261Y-106402376D01*
X24610336Y-106557065D01*
X24643000Y-106721281D01*
X24643000Y-106888719D01*
X24610336Y-107052935D01*
X24588227Y-107106310D01*
X24546260Y-107207626D01*
X24453238Y-107346844D01*
X24334844Y-107465238D01*
X24195626Y-107558260D01*
X24195625Y-107558261D01*
X24195624Y-107558261D01*
X24040935Y-107622336D01*
X23876719Y-107655000D01*
X23709281Y-107655000D01*
X23545065Y-107622336D01*
X23390376Y-107558261D01*
X23390375Y-107558261D01*
X23390374Y-107558260D01*
X23251156Y-107465238D01*
X23132762Y-107346844D01*
X23039740Y-107207626D01*
X22997773Y-107106310D01*
X22975664Y-107052935D01*
X22943000Y-106888719D01*
X22943000Y-106721281D01*
X22975664Y-106557065D01*
X23039739Y-106402376D01*
X23039740Y-106402374D01*
X23132762Y-106263156D01*
X23251156Y-106144762D01*
X23390374Y-106051740D01*
X23390376Y-106051739D01*
X23545065Y-105987664D01*
X23709281Y-105955000D01*
X23876719Y-105955000D01*
X24040935Y-105987664D01*
G37*
G36*
X28485935Y-105987664D02*
G01*
X28640624Y-106051739D01*
X28640626Y-106051740D01*
X28779844Y-106144762D01*
X28898238Y-106263156D01*
X28991260Y-106402374D01*
X28991261Y-106402376D01*
X29055336Y-106557065D01*
X29088000Y-106721281D01*
X29088000Y-106888719D01*
X29055336Y-107052935D01*
X29033227Y-107106310D01*
X28991260Y-107207626D01*
X28898238Y-107346844D01*
X28779844Y-107465238D01*
X28640626Y-107558260D01*
X28640625Y-107558261D01*
X28640624Y-107558261D01*
X28485935Y-107622336D01*
X28321719Y-107655000D01*
X28154281Y-107655000D01*
X27990065Y-107622336D01*
X27835376Y-107558261D01*
X27835375Y-107558261D01*
X27835374Y-107558260D01*
X27696156Y-107465238D01*
X27577762Y-107346844D01*
X27484740Y-107207626D01*
X27442773Y-107106310D01*
X27420664Y-107052935D01*
X27388000Y-106888719D01*
X27388000Y-106721281D01*
X27420664Y-106557065D01*
X27484739Y-106402376D01*
X27484740Y-106402374D01*
X27577762Y-106263156D01*
X27696156Y-106144762D01*
X27835374Y-106051740D01*
X27835376Y-106051739D01*
X27990065Y-105987664D01*
X28154281Y-105955000D01*
X28321719Y-105955000D01*
X28485935Y-105987664D01*
G37*
G36*
X164850935Y-105987664D02*
G01*
X165005624Y-106051739D01*
X165005626Y-106051740D01*
X165144844Y-106144762D01*
X165263238Y-106263156D01*
X165356260Y-106402374D01*
X165356261Y-106402376D01*
X165420336Y-106557065D01*
X165453000Y-106721281D01*
X165453000Y-106888719D01*
X165420336Y-107052935D01*
X165398227Y-107106310D01*
X165356260Y-107207626D01*
X165263238Y-107346844D01*
X165144844Y-107465238D01*
X165005626Y-107558260D01*
X165005625Y-107558261D01*
X165005624Y-107558261D01*
X164850935Y-107622336D01*
X164686719Y-107655000D01*
X164519281Y-107655000D01*
X164355065Y-107622336D01*
X164200376Y-107558261D01*
X164200375Y-107558261D01*
X164200374Y-107558260D01*
X164061156Y-107465238D01*
X163942762Y-107346844D01*
X163849740Y-107207626D01*
X163807773Y-107106310D01*
X163785664Y-107052935D01*
X163753000Y-106888719D01*
X163753000Y-106721281D01*
X163785664Y-106557065D01*
X163849739Y-106402376D01*
X163849740Y-106402374D01*
X163942762Y-106263156D01*
X164061156Y-106144762D01*
X164200374Y-106051740D01*
X164200376Y-106051739D01*
X164355065Y-105987664D01*
X164519281Y-105955000D01*
X164686719Y-105955000D01*
X164850935Y-105987664D01*
G37*
G36*
X169295935Y-105987664D02*
G01*
X169450624Y-106051739D01*
X169450626Y-106051740D01*
X169589844Y-106144762D01*
X169708238Y-106263156D01*
X169801260Y-106402374D01*
X169801261Y-106402376D01*
X169865336Y-106557065D01*
X169898000Y-106721281D01*
X169898000Y-106888719D01*
X169865336Y-107052935D01*
X169843227Y-107106310D01*
X169801260Y-107207626D01*
X169708238Y-107346844D01*
X169589844Y-107465238D01*
X169450626Y-107558260D01*
X169450625Y-107558261D01*
X169450624Y-107558261D01*
X169295935Y-107622336D01*
X169131719Y-107655000D01*
X168964281Y-107655000D01*
X168800065Y-107622336D01*
X168645376Y-107558261D01*
X168645375Y-107558261D01*
X168645374Y-107558260D01*
X168506156Y-107465238D01*
X168387762Y-107346844D01*
X168294740Y-107207626D01*
X168252773Y-107106310D01*
X168230664Y-107052935D01*
X168198000Y-106888719D01*
X168198000Y-106721281D01*
X168230664Y-106557065D01*
X168294739Y-106402376D01*
X168294740Y-106402374D01*
X168387762Y-106263156D01*
X168506156Y-106144762D01*
X168645374Y-106051740D01*
X168645376Y-106051739D01*
X168800065Y-105987664D01*
X168964281Y-105955000D01*
X169131719Y-105955000D01*
X169295935Y-105987664D01*
G37*
G36*
X173744520Y-105814586D02*
G01*
X173908310Y-105882430D01*
X174055717Y-105980924D01*
X174181076Y-106106283D01*
X174250377Y-106210000D01*
X174279571Y-106253692D01*
X174341157Y-106402374D01*
X174347414Y-106417480D01*
X174382000Y-106591358D01*
X174382000Y-106768642D01*
X174347414Y-106942520D01*
X174279570Y-107106310D01*
X174181076Y-107253717D01*
X174055717Y-107379076D01*
X173908310Y-107477570D01*
X173908309Y-107477571D01*
X173908308Y-107477571D01*
X173744520Y-107545414D01*
X173570644Y-107580000D01*
X173393356Y-107580000D01*
X173219480Y-107545414D01*
X173055692Y-107477571D01*
X173055691Y-107477571D01*
X173055690Y-107477570D01*
X172908283Y-107379076D01*
X172782924Y-107253717D01*
X172684430Y-107106310D01*
X172616586Y-106942520D01*
X172582000Y-106768642D01*
X172582000Y-106591358D01*
X172616586Y-106417480D01*
X172622843Y-106402374D01*
X172684429Y-106253692D01*
X172713623Y-106210000D01*
X172782924Y-106106283D01*
X172908283Y-105980924D01*
X173055690Y-105882430D01*
X173219480Y-105814586D01*
X173393356Y-105780000D01*
X173570644Y-105780000D01*
X173744520Y-105814586D01*
G37*
G36*
X20014520Y-104444586D02*
G01*
X20178310Y-104512430D01*
X20325717Y-104610924D01*
X20451076Y-104736283D01*
X20549570Y-104883690D01*
X20617414Y-105047480D01*
X20652000Y-105221358D01*
X20652000Y-105398642D01*
X20617414Y-105572520D01*
X20549570Y-105736310D01*
X20451076Y-105883717D01*
X20325717Y-106009076D01*
X20178310Y-106107570D01*
X20178309Y-106107571D01*
X20178308Y-106107571D01*
X20014520Y-106175414D01*
X19840644Y-106210000D01*
X19663356Y-106210000D01*
X19489480Y-106175414D01*
X19325692Y-106107571D01*
X19325691Y-106107571D01*
X19325690Y-106107570D01*
X19178283Y-106009076D01*
X19052924Y-105883717D01*
X18954430Y-105736310D01*
X18886586Y-105572520D01*
X18852000Y-105398642D01*
X18852000Y-105221358D01*
X18886586Y-105047480D01*
X18954430Y-104883690D01*
X19052924Y-104736283D01*
X19178283Y-104610924D01*
X19325690Y-104512430D01*
X19489480Y-104444586D01*
X19663356Y-104410000D01*
X19840644Y-104410000D01*
X20014520Y-104444586D01*
G37*
G36*
X23255195Y-102927522D02*
G01*
X23304267Y-102937283D01*
X23442942Y-102994724D01*
X23567747Y-103078116D01*
X23673884Y-103184253D01*
X23757276Y-103309058D01*
X23814717Y-103447733D01*
X23844000Y-103594950D01*
X23844000Y-103745050D01*
X23814717Y-103892267D01*
X23757276Y-104030942D01*
X23673884Y-104155747D01*
X23567747Y-104261884D01*
X23442942Y-104345276D01*
X23304267Y-104402717D01*
X23255195Y-104412478D01*
X23157052Y-104432000D01*
X23006948Y-104432000D01*
X22908805Y-104412478D01*
X22859733Y-104402717D01*
X22721058Y-104345276D01*
X22596253Y-104261884D01*
X22490116Y-104155747D01*
X22406724Y-104030942D01*
X22349283Y-103892267D01*
X22320000Y-103745050D01*
X22320000Y-103594950D01*
X22349283Y-103447733D01*
X22406724Y-103309058D01*
X22490116Y-103184253D01*
X22596253Y-103078116D01*
X22721058Y-102994724D01*
X22859733Y-102937283D01*
X22908805Y-102927522D01*
X23006948Y-102908000D01*
X23157052Y-102908000D01*
X23255195Y-102927522D01*
G37*
G36*
X164065195Y-102927522D02*
G01*
X164114267Y-102937283D01*
X164252942Y-102994724D01*
X164377747Y-103078116D01*
X164483884Y-103184253D01*
X164567276Y-103309058D01*
X164624717Y-103447733D01*
X164654000Y-103594950D01*
X164654000Y-103745050D01*
X164624717Y-103892267D01*
X164567276Y-104030942D01*
X164483884Y-104155747D01*
X164377747Y-104261884D01*
X164252942Y-104345276D01*
X164114267Y-104402717D01*
X164065195Y-104412478D01*
X163967052Y-104432000D01*
X163816948Y-104432000D01*
X163718805Y-104412478D01*
X163669733Y-104402717D01*
X163531058Y-104345276D01*
X163406253Y-104261884D01*
X163300116Y-104155747D01*
X163216724Y-104030942D01*
X163159283Y-103892267D01*
X163130000Y-103745050D01*
X163130000Y-103594950D01*
X163159283Y-103447733D01*
X163216724Y-103309058D01*
X163300116Y-103184253D01*
X163406253Y-103078116D01*
X163531058Y-102994724D01*
X163669733Y-102937283D01*
X163718805Y-102927522D01*
X163816948Y-102908000D01*
X163967052Y-102908000D01*
X164065195Y-102927522D01*
G37*
G36*
X169856195Y-102887522D02*
G01*
X169905267Y-102897283D01*
X170043942Y-102954724D01*
X170168747Y-103038116D01*
X170274884Y-103144253D01*
X170358276Y-103269058D01*
X170415717Y-103407733D01*
X170445000Y-103554950D01*
X170445000Y-103705050D01*
X170415717Y-103852267D01*
X170358276Y-103990942D01*
X170274884Y-104115747D01*
X170168747Y-104221884D01*
X170043942Y-104305276D01*
X169905267Y-104362717D01*
X169856195Y-104372478D01*
X169758052Y-104392000D01*
X169607948Y-104392000D01*
X169509805Y-104372478D01*
X169460733Y-104362717D01*
X169322058Y-104305276D01*
X169197253Y-104221884D01*
X169091116Y-104115747D01*
X169007724Y-103990942D01*
X168950283Y-103852267D01*
X168921000Y-103705050D01*
X168921000Y-103554950D01*
X168950283Y-103407733D01*
X169007724Y-103269058D01*
X169091116Y-103144253D01*
X169197253Y-103038116D01*
X169322058Y-102954724D01*
X169460733Y-102897283D01*
X169509805Y-102887522D01*
X169607948Y-102868000D01*
X169758052Y-102868000D01*
X169856195Y-102887522D01*
G37*
G36*
X29046195Y-102887522D02*
G01*
X29095267Y-102897283D01*
X29233942Y-102954724D01*
X29358747Y-103038116D01*
X29464884Y-103144253D01*
X29548276Y-103269058D01*
X29605717Y-103407733D01*
X29635000Y-103554950D01*
X29635000Y-103705050D01*
X29605717Y-103852267D01*
X29548276Y-103990942D01*
X29464884Y-104115747D01*
X29358747Y-104221884D01*
X29233942Y-104305276D01*
X29095267Y-104362717D01*
X29046195Y-104372478D01*
X28948052Y-104392000D01*
X28797948Y-104392000D01*
X28699805Y-104372478D01*
X28650733Y-104362717D01*
X28512058Y-104305276D01*
X28387253Y-104221884D01*
X28281116Y-104115747D01*
X28197724Y-103990942D01*
X28140283Y-103852267D01*
X28111000Y-103705050D01*
X28111000Y-103554950D01*
X28140283Y-103407733D01*
X28197724Y-103269058D01*
X28281116Y-103144253D01*
X28387253Y-103038116D01*
X28512058Y-102954724D01*
X28650733Y-102897283D01*
X28699805Y-102887522D01*
X28797948Y-102868000D01*
X28948052Y-102868000D01*
X29046195Y-102887522D01*
G37*
G36*
X169295935Y-99637664D02*
G01*
X169450624Y-99701739D01*
X169450626Y-99701740D01*
X169589844Y-99794762D01*
X169708238Y-99913156D01*
X169801260Y-100052374D01*
X169801261Y-100052376D01*
X169865336Y-100207065D01*
X169898000Y-100371281D01*
X169898000Y-100538719D01*
X169865336Y-100702935D01*
X169801261Y-100857624D01*
X169801260Y-100857626D01*
X169708238Y-100996844D01*
X169589844Y-101115238D01*
X169450626Y-101208260D01*
X169450625Y-101208261D01*
X169450624Y-101208261D01*
X169295935Y-101272336D01*
X169131719Y-101305000D01*
X168964281Y-101305000D01*
X168800065Y-101272336D01*
X168645376Y-101208261D01*
X168645375Y-101208261D01*
X168645374Y-101208260D01*
X168506156Y-101115238D01*
X168387762Y-100996844D01*
X168294740Y-100857626D01*
X168294739Y-100857624D01*
X168230664Y-100702935D01*
X168198000Y-100538719D01*
X168198000Y-100371281D01*
X168230664Y-100207065D01*
X168294739Y-100052376D01*
X168294740Y-100052374D01*
X168387762Y-99913156D01*
X168506156Y-99794762D01*
X168645374Y-99701740D01*
X168645376Y-99701739D01*
X168800065Y-99637664D01*
X168964281Y-99605000D01*
X169131719Y-99605000D01*
X169295935Y-99637664D01*
G37*
G36*
X164850935Y-99637664D02*
G01*
X165005624Y-99701739D01*
X165005626Y-99701740D01*
X165144844Y-99794762D01*
X165263238Y-99913156D01*
X165356260Y-100052374D01*
X165356261Y-100052376D01*
X165420336Y-100207065D01*
X165453000Y-100371281D01*
X165453000Y-100538719D01*
X165420336Y-100702935D01*
X165356261Y-100857624D01*
X165356260Y-100857626D01*
X165263238Y-100996844D01*
X165144844Y-101115238D01*
X165005626Y-101208260D01*
X165005625Y-101208261D01*
X165005624Y-101208261D01*
X164850935Y-101272336D01*
X164686719Y-101305000D01*
X164519281Y-101305000D01*
X164355065Y-101272336D01*
X164200376Y-101208261D01*
X164200375Y-101208261D01*
X164200374Y-101208260D01*
X164061156Y-101115238D01*
X163942762Y-100996844D01*
X163849740Y-100857626D01*
X163849739Y-100857624D01*
X163785664Y-100702935D01*
X163753000Y-100538719D01*
X163753000Y-100371281D01*
X163785664Y-100207065D01*
X163849739Y-100052376D01*
X163849740Y-100052374D01*
X163942762Y-99913156D01*
X164061156Y-99794762D01*
X164200374Y-99701740D01*
X164200376Y-99701739D01*
X164355065Y-99637664D01*
X164519281Y-99605000D01*
X164686719Y-99605000D01*
X164850935Y-99637664D01*
G37*
G36*
X28485935Y-99637664D02*
G01*
X28640624Y-99701739D01*
X28640626Y-99701740D01*
X28779844Y-99794762D01*
X28898238Y-99913156D01*
X28991260Y-100052374D01*
X28991261Y-100052376D01*
X29055336Y-100207065D01*
X29088000Y-100371281D01*
X29088000Y-100538719D01*
X29055336Y-100702935D01*
X28991261Y-100857624D01*
X28991260Y-100857626D01*
X28898238Y-100996844D01*
X28779844Y-101115238D01*
X28640626Y-101208260D01*
X28640625Y-101208261D01*
X28640624Y-101208261D01*
X28485935Y-101272336D01*
X28321719Y-101305000D01*
X28154281Y-101305000D01*
X27990065Y-101272336D01*
X27835376Y-101208261D01*
X27835375Y-101208261D01*
X27835374Y-101208260D01*
X27696156Y-101115238D01*
X27577762Y-100996844D01*
X27484740Y-100857626D01*
X27484739Y-100857624D01*
X27420664Y-100702935D01*
X27388000Y-100538719D01*
X27388000Y-100371281D01*
X27420664Y-100207065D01*
X27484739Y-100052376D01*
X27484740Y-100052374D01*
X27577762Y-99913156D01*
X27696156Y-99794762D01*
X27835374Y-99701740D01*
X27835376Y-99701739D01*
X27990065Y-99637664D01*
X28154281Y-99605000D01*
X28321719Y-99605000D01*
X28485935Y-99637664D01*
G37*
G36*
X24040935Y-99637664D02*
G01*
X24195624Y-99701739D01*
X24195626Y-99701740D01*
X24334844Y-99794762D01*
X24453238Y-99913156D01*
X24546260Y-100052374D01*
X24546261Y-100052376D01*
X24610336Y-100207065D01*
X24643000Y-100371281D01*
X24643000Y-100538719D01*
X24610336Y-100702935D01*
X24546261Y-100857624D01*
X24546260Y-100857626D01*
X24453238Y-100996844D01*
X24334844Y-101115238D01*
X24195626Y-101208260D01*
X24195625Y-101208261D01*
X24195624Y-101208261D01*
X24040935Y-101272336D01*
X23876719Y-101305000D01*
X23709281Y-101305000D01*
X23545065Y-101272336D01*
X23390376Y-101208261D01*
X23390375Y-101208261D01*
X23390374Y-101208260D01*
X23251156Y-101115238D01*
X23132762Y-100996844D01*
X23039740Y-100857626D01*
X23039739Y-100857624D01*
X22975664Y-100702935D01*
X22943000Y-100538719D01*
X22943000Y-100371281D01*
X22975664Y-100207065D01*
X23039739Y-100052376D01*
X23039740Y-100052374D01*
X23132762Y-99913156D01*
X23251156Y-99794762D01*
X23390374Y-99701740D01*
X23390376Y-99701739D01*
X23545065Y-99637664D01*
X23709281Y-99605000D01*
X23876719Y-99605000D01*
X24040935Y-99637664D01*
G37*
G36*
X174382000Y-99960000D02*
G01*
X172582000Y-99960000D01*
X172582000Y-98160000D01*
X174382000Y-98160000D01*
X174382000Y-99960000D01*
G37*
G36*
X20652000Y-98590000D02*
G01*
X18852000Y-98590000D01*
X18852000Y-96790000D01*
X20652000Y-96790000D01*
X20652000Y-98590000D01*
G37*
G36*
X173615351Y-94050743D02*
G01*
X173760941Y-94111048D01*
X173891970Y-94198599D01*
X174003401Y-94310030D01*
X174090952Y-94441059D01*
X174151257Y-94586649D01*
X174182000Y-94741206D01*
X174182000Y-94898794D01*
X174151257Y-95053351D01*
X174090952Y-95198941D01*
X174003401Y-95329970D01*
X173891970Y-95441401D01*
X173760941Y-95528952D01*
X173615351Y-95589257D01*
X173460794Y-95620000D01*
X173303206Y-95620000D01*
X173148649Y-95589257D01*
X173003059Y-95528952D01*
X172872030Y-95441401D01*
X172760599Y-95329970D01*
X172673048Y-95198941D01*
X172612743Y-95053351D01*
X172582000Y-94898794D01*
X172582000Y-94741206D01*
X172612743Y-94586649D01*
X172673048Y-94441059D01*
X172760599Y-94310030D01*
X172872030Y-94198599D01*
X173003059Y-94111048D01*
X173148649Y-94050743D01*
X173303206Y-94020000D01*
X173460794Y-94020000D01*
X173615351Y-94050743D01*
G37*
G36*
X19824520Y-86704586D02*
G01*
X19988310Y-86772430D01*
X20135717Y-86870924D01*
X20261076Y-86996283D01*
X20344547Y-87121207D01*
X20359571Y-87143692D01*
X20427414Y-87307480D01*
X20462000Y-87481356D01*
X20462000Y-87658644D01*
X20429626Y-87821401D01*
X20427414Y-87832520D01*
X20359570Y-87996310D01*
X20261076Y-88143717D01*
X20135717Y-88269076D01*
X19988310Y-88367570D01*
X19988309Y-88367571D01*
X19988308Y-88367571D01*
X19824520Y-88435414D01*
X19650644Y-88470000D01*
X19473356Y-88470000D01*
X19299480Y-88435414D01*
X19135692Y-88367571D01*
X19135691Y-88367571D01*
X19135690Y-88367570D01*
X18988283Y-88269076D01*
X18862924Y-88143717D01*
X18764430Y-87996310D01*
X18696586Y-87832520D01*
X18694374Y-87821401D01*
X18662000Y-87658644D01*
X18662000Y-87481356D01*
X18696586Y-87307480D01*
X18764429Y-87143692D01*
X18779453Y-87121207D01*
X18862924Y-86996283D01*
X18988283Y-86870924D01*
X19135690Y-86772430D01*
X19299480Y-86704586D01*
X19473356Y-86670000D01*
X19650644Y-86670000D01*
X19824520Y-86704586D01*
G37*
G36*
X173615351Y-86430743D02*
G01*
X173760941Y-86491048D01*
X173891970Y-86578599D01*
X174003401Y-86690030D01*
X174090952Y-86821059D01*
X174151257Y-86966649D01*
X174182000Y-87121206D01*
X174182000Y-87278794D01*
X174151257Y-87433351D01*
X174090952Y-87578941D01*
X174003401Y-87709970D01*
X173891970Y-87821401D01*
X173760941Y-87908952D01*
X173615351Y-87969257D01*
X173460794Y-88000000D01*
X173303206Y-88000000D01*
X173148649Y-87969257D01*
X173003059Y-87908952D01*
X172872030Y-87821401D01*
X172760599Y-87709970D01*
X172673048Y-87578941D01*
X172612743Y-87433351D01*
X172582000Y-87278794D01*
X172582000Y-87121206D01*
X172612743Y-86966649D01*
X172673048Y-86821059D01*
X172760599Y-86690030D01*
X172872030Y-86578599D01*
X173003059Y-86491048D01*
X173148649Y-86430743D01*
X173303206Y-86400000D01*
X173460794Y-86400000D01*
X173615351Y-86430743D01*
G37*
G36*
X28485935Y-85667664D02*
G01*
X28640624Y-85731739D01*
X28640626Y-85731740D01*
X28779844Y-85824762D01*
X28898238Y-85943156D01*
X28991260Y-86082374D01*
X28991261Y-86082376D01*
X29055336Y-86237065D01*
X29088000Y-86401281D01*
X29088000Y-86568719D01*
X29055336Y-86732935D01*
X29018833Y-86821059D01*
X28991260Y-86887626D01*
X28898238Y-87026844D01*
X28779844Y-87145238D01*
X28640626Y-87238260D01*
X28640625Y-87238261D01*
X28640624Y-87238261D01*
X28485935Y-87302336D01*
X28321719Y-87335000D01*
X28154281Y-87335000D01*
X27990065Y-87302336D01*
X27835376Y-87238261D01*
X27835375Y-87238261D01*
X27835374Y-87238260D01*
X27696156Y-87145238D01*
X27577762Y-87026844D01*
X27484740Y-86887626D01*
X27457167Y-86821059D01*
X27420664Y-86732935D01*
X27388000Y-86568719D01*
X27388000Y-86401281D01*
X27420664Y-86237065D01*
X27484739Y-86082376D01*
X27484740Y-86082374D01*
X27577762Y-85943156D01*
X27696156Y-85824762D01*
X27835374Y-85731740D01*
X27835376Y-85731739D01*
X27990065Y-85667664D01*
X28154281Y-85635000D01*
X28321719Y-85635000D01*
X28485935Y-85667664D01*
G37*
G36*
X24040935Y-85667664D02*
G01*
X24195624Y-85731739D01*
X24195626Y-85731740D01*
X24334844Y-85824762D01*
X24453238Y-85943156D01*
X24546260Y-86082374D01*
X24546261Y-86082376D01*
X24610336Y-86237065D01*
X24643000Y-86401281D01*
X24643000Y-86568719D01*
X24610336Y-86732935D01*
X24573833Y-86821059D01*
X24546260Y-86887626D01*
X24453238Y-87026844D01*
X24334844Y-87145238D01*
X24195626Y-87238260D01*
X24195625Y-87238261D01*
X24195624Y-87238261D01*
X24040935Y-87302336D01*
X23876719Y-87335000D01*
X23709281Y-87335000D01*
X23545065Y-87302336D01*
X23390376Y-87238261D01*
X23390375Y-87238261D01*
X23390374Y-87238260D01*
X23251156Y-87145238D01*
X23132762Y-87026844D01*
X23039740Y-86887626D01*
X23012167Y-86821059D01*
X22975664Y-86732935D01*
X22943000Y-86568719D01*
X22943000Y-86401281D01*
X22975664Y-86237065D01*
X23039739Y-86082376D01*
X23039740Y-86082374D01*
X23132762Y-85943156D01*
X23251156Y-85824762D01*
X23390374Y-85731740D01*
X23390376Y-85731739D01*
X23545065Y-85667664D01*
X23709281Y-85635000D01*
X23876719Y-85635000D01*
X24040935Y-85667664D01*
G37*
G36*
X169295935Y-85667664D02*
G01*
X169450624Y-85731739D01*
X169450626Y-85731740D01*
X169589844Y-85824762D01*
X169708238Y-85943156D01*
X169801260Y-86082374D01*
X169801261Y-86082376D01*
X169865336Y-86237065D01*
X169898000Y-86401281D01*
X169898000Y-86568719D01*
X169865336Y-86732935D01*
X169828833Y-86821059D01*
X169801260Y-86887626D01*
X169708238Y-87026844D01*
X169589844Y-87145238D01*
X169450626Y-87238260D01*
X169450625Y-87238261D01*
X169450624Y-87238261D01*
X169295935Y-87302336D01*
X169131719Y-87335000D01*
X168964281Y-87335000D01*
X168800065Y-87302336D01*
X168645376Y-87238261D01*
X168645375Y-87238261D01*
X168645374Y-87238260D01*
X168506156Y-87145238D01*
X168387762Y-87026844D01*
X168294740Y-86887626D01*
X168267167Y-86821059D01*
X168230664Y-86732935D01*
X168198000Y-86568719D01*
X168198000Y-86401281D01*
X168230664Y-86237065D01*
X168294739Y-86082376D01*
X168294740Y-86082374D01*
X168387762Y-85943156D01*
X168506156Y-85824762D01*
X168645374Y-85731740D01*
X168645376Y-85731739D01*
X168800065Y-85667664D01*
X168964281Y-85635000D01*
X169131719Y-85635000D01*
X169295935Y-85667664D01*
G37*
G36*
X164850935Y-85667664D02*
G01*
X165005624Y-85731739D01*
X165005626Y-85731740D01*
X165144844Y-85824762D01*
X165263238Y-85943156D01*
X165356260Y-86082374D01*
X165356261Y-86082376D01*
X165420336Y-86237065D01*
X165453000Y-86401281D01*
X165453000Y-86568719D01*
X165420336Y-86732935D01*
X165383833Y-86821059D01*
X165356260Y-86887626D01*
X165263238Y-87026844D01*
X165144844Y-87145238D01*
X165005626Y-87238260D01*
X165005625Y-87238261D01*
X165005624Y-87238261D01*
X164850935Y-87302336D01*
X164686719Y-87335000D01*
X164519281Y-87335000D01*
X164355065Y-87302336D01*
X164200376Y-87238261D01*
X164200375Y-87238261D01*
X164200374Y-87238260D01*
X164061156Y-87145238D01*
X163942762Y-87026844D01*
X163849740Y-86887626D01*
X163822167Y-86821059D01*
X163785664Y-86732935D01*
X163753000Y-86568719D01*
X163753000Y-86401281D01*
X163785664Y-86237065D01*
X163849739Y-86082376D01*
X163849740Y-86082374D01*
X163942762Y-85943156D01*
X164061156Y-85824762D01*
X164200374Y-85731740D01*
X164200376Y-85731739D01*
X164355065Y-85667664D01*
X164519281Y-85635000D01*
X164686719Y-85635000D01*
X164850935Y-85667664D01*
G37*
G36*
X23255195Y-82607522D02*
G01*
X23304267Y-82617283D01*
X23442942Y-82674724D01*
X23567747Y-82758116D01*
X23673884Y-82864253D01*
X23757276Y-82989058D01*
X23814717Y-83127733D01*
X23814717Y-83127734D01*
X23844000Y-83274948D01*
X23844000Y-83425052D01*
X23831081Y-83490000D01*
X23814717Y-83572267D01*
X23757276Y-83710942D01*
X23673884Y-83835747D01*
X23567747Y-83941884D01*
X23442942Y-84025276D01*
X23304267Y-84082717D01*
X23255195Y-84092478D01*
X23157052Y-84112000D01*
X23006948Y-84112000D01*
X22908805Y-84092478D01*
X22859733Y-84082717D01*
X22721058Y-84025276D01*
X22596253Y-83941884D01*
X22490116Y-83835747D01*
X22406724Y-83710942D01*
X22349283Y-83572267D01*
X22332919Y-83490000D01*
X22320000Y-83425052D01*
X22320000Y-83274948D01*
X22349283Y-83127734D01*
X22349283Y-83127733D01*
X22406724Y-82989058D01*
X22490116Y-82864253D01*
X22596253Y-82758116D01*
X22721058Y-82674724D01*
X22859733Y-82617283D01*
X22908805Y-82607522D01*
X23006948Y-82588000D01*
X23157052Y-82588000D01*
X23255195Y-82607522D01*
G37*
G36*
X164065195Y-82607522D02*
G01*
X164114267Y-82617283D01*
X164252942Y-82674724D01*
X164377747Y-82758116D01*
X164483884Y-82864253D01*
X164567276Y-82989058D01*
X164624717Y-83127733D01*
X164624717Y-83127734D01*
X164654000Y-83274948D01*
X164654000Y-83425052D01*
X164641081Y-83490000D01*
X164624717Y-83572267D01*
X164567276Y-83710942D01*
X164483884Y-83835747D01*
X164377747Y-83941884D01*
X164252942Y-84025276D01*
X164114267Y-84082717D01*
X164065195Y-84092478D01*
X163967052Y-84112000D01*
X163816948Y-84112000D01*
X163718805Y-84092478D01*
X163669733Y-84082717D01*
X163531058Y-84025276D01*
X163406253Y-83941884D01*
X163300116Y-83835747D01*
X163216724Y-83710942D01*
X163159283Y-83572267D01*
X163142919Y-83490000D01*
X163130000Y-83425052D01*
X163130000Y-83274948D01*
X163159283Y-83127734D01*
X163159283Y-83127733D01*
X163216724Y-82989058D01*
X163300116Y-82864253D01*
X163406253Y-82758116D01*
X163531058Y-82674724D01*
X163669733Y-82617283D01*
X163718805Y-82607522D01*
X163816948Y-82588000D01*
X163967052Y-82588000D01*
X164065195Y-82607522D01*
G37*
G36*
X29046195Y-82567522D02*
G01*
X29095267Y-82577283D01*
X29233942Y-82634724D01*
X29358747Y-82718116D01*
X29464884Y-82824253D01*
X29548276Y-82949058D01*
X29605717Y-83087733D01*
X29635000Y-83234950D01*
X29635000Y-83385050D01*
X29605717Y-83532267D01*
X29548276Y-83670942D01*
X29464884Y-83795747D01*
X29358747Y-83901884D01*
X29233942Y-83985276D01*
X29095267Y-84042717D01*
X29046195Y-84052478D01*
X28948052Y-84072000D01*
X28797948Y-84072000D01*
X28699805Y-84052478D01*
X28650733Y-84042717D01*
X28512058Y-83985276D01*
X28387253Y-83901884D01*
X28281116Y-83795747D01*
X28197724Y-83670942D01*
X28140283Y-83532267D01*
X28111000Y-83385050D01*
X28111000Y-83234950D01*
X28140283Y-83087733D01*
X28197724Y-82949058D01*
X28281116Y-82824253D01*
X28387253Y-82718116D01*
X28512058Y-82634724D01*
X28650733Y-82577283D01*
X28699805Y-82567522D01*
X28797948Y-82548000D01*
X28948052Y-82548000D01*
X29046195Y-82567522D01*
G37*
G36*
X169856195Y-82567522D02*
G01*
X169905267Y-82577283D01*
X170043942Y-82634724D01*
X170168747Y-82718116D01*
X170274884Y-82824253D01*
X170358276Y-82949058D01*
X170415717Y-83087733D01*
X170445000Y-83234950D01*
X170445000Y-83385050D01*
X170415717Y-83532267D01*
X170358276Y-83670942D01*
X170274884Y-83795747D01*
X170168747Y-83901884D01*
X170043942Y-83985276D01*
X169905267Y-84042717D01*
X169856195Y-84052478D01*
X169758052Y-84072000D01*
X169607948Y-84072000D01*
X169509805Y-84052478D01*
X169460733Y-84042717D01*
X169322058Y-83985276D01*
X169197253Y-83901884D01*
X169091116Y-83795747D01*
X169007724Y-83670942D01*
X168950283Y-83532267D01*
X168921000Y-83385050D01*
X168921000Y-83234950D01*
X168950283Y-83087733D01*
X169007724Y-82949058D01*
X169091116Y-82824253D01*
X169197253Y-82718116D01*
X169322058Y-82634724D01*
X169460733Y-82577283D01*
X169509805Y-82567522D01*
X169607948Y-82548000D01*
X169758052Y-82548000D01*
X169856195Y-82567522D01*
G37*
G36*
X173644520Y-81724586D02*
G01*
X173808310Y-81792430D01*
X173955717Y-81890924D01*
X174081076Y-82016283D01*
X174179570Y-82163690D01*
X174179571Y-82163692D01*
X174247414Y-82327480D01*
X174282000Y-82501356D01*
X174282000Y-82678644D01*
X174266192Y-82758116D01*
X174247414Y-82852520D01*
X174179570Y-83016310D01*
X174081076Y-83163717D01*
X173955717Y-83289076D01*
X173808310Y-83387570D01*
X173808309Y-83387571D01*
X173808308Y-83387571D01*
X173644520Y-83455414D01*
X173470644Y-83490000D01*
X173293356Y-83490000D01*
X173119480Y-83455414D01*
X172955692Y-83387571D01*
X172955691Y-83387571D01*
X172955690Y-83387570D01*
X172808283Y-83289076D01*
X172682924Y-83163717D01*
X172584430Y-83016310D01*
X172516586Y-82852520D01*
X172497808Y-82758116D01*
X172482000Y-82678644D01*
X172482000Y-82501356D01*
X172516586Y-82327480D01*
X172584429Y-82163692D01*
X172584430Y-82163690D01*
X172682924Y-82016283D01*
X172808283Y-81890924D01*
X172955690Y-81792430D01*
X173119480Y-81724586D01*
X173293356Y-81690000D01*
X173470644Y-81690000D01*
X173644520Y-81724586D01*
G37*
G36*
X24040935Y-79317664D02*
G01*
X24195624Y-79381739D01*
X24195626Y-79381740D01*
X24334844Y-79474762D01*
X24453238Y-79593156D01*
X24546260Y-79732374D01*
X24546261Y-79732376D01*
X24610336Y-79887065D01*
X24643000Y-80051281D01*
X24643000Y-80218719D01*
X24610336Y-80382935D01*
X24546261Y-80537624D01*
X24546260Y-80537626D01*
X24453238Y-80676844D01*
X24334844Y-80795238D01*
X24195626Y-80888260D01*
X24195625Y-80888261D01*
X24195624Y-80888261D01*
X24040935Y-80952336D01*
X23876719Y-80985000D01*
X23709281Y-80985000D01*
X23545065Y-80952336D01*
X23390376Y-80888261D01*
X23390375Y-80888261D01*
X23390374Y-80888260D01*
X23251156Y-80795238D01*
X23132762Y-80676844D01*
X23039740Y-80537626D01*
X23039739Y-80537624D01*
X22975664Y-80382935D01*
X22943000Y-80218719D01*
X22943000Y-80051281D01*
X22975664Y-79887065D01*
X23039739Y-79732376D01*
X23039740Y-79732374D01*
X23132762Y-79593156D01*
X23251156Y-79474762D01*
X23390374Y-79381740D01*
X23390376Y-79381739D01*
X23545065Y-79317664D01*
X23709281Y-79285000D01*
X23876719Y-79285000D01*
X24040935Y-79317664D01*
G37*
G36*
X28485935Y-79317664D02*
G01*
X28640624Y-79381739D01*
X28640626Y-79381740D01*
X28779844Y-79474762D01*
X28898238Y-79593156D01*
X28991260Y-79732374D01*
X28991261Y-79732376D01*
X29055336Y-79887065D01*
X29088000Y-80051281D01*
X29088000Y-80218719D01*
X29055336Y-80382935D01*
X28991261Y-80537624D01*
X28991260Y-80537626D01*
X28898238Y-80676844D01*
X28779844Y-80795238D01*
X28640626Y-80888260D01*
X28640625Y-80888261D01*
X28640624Y-80888261D01*
X28485935Y-80952336D01*
X28321719Y-80985000D01*
X28154281Y-80985000D01*
X27990065Y-80952336D01*
X27835376Y-80888261D01*
X27835375Y-80888261D01*
X27835374Y-80888260D01*
X27696156Y-80795238D01*
X27577762Y-80676844D01*
X27484740Y-80537626D01*
X27484739Y-80537624D01*
X27420664Y-80382935D01*
X27388000Y-80218719D01*
X27388000Y-80051281D01*
X27420664Y-79887065D01*
X27484739Y-79732376D01*
X27484740Y-79732374D01*
X27577762Y-79593156D01*
X27696156Y-79474762D01*
X27835374Y-79381740D01*
X27835376Y-79381739D01*
X27990065Y-79317664D01*
X28154281Y-79285000D01*
X28321719Y-79285000D01*
X28485935Y-79317664D01*
G37*
G36*
X164850935Y-79317664D02*
G01*
X165005624Y-79381739D01*
X165005626Y-79381740D01*
X165144844Y-79474762D01*
X165263238Y-79593156D01*
X165356260Y-79732374D01*
X165356261Y-79732376D01*
X165420336Y-79887065D01*
X165453000Y-80051281D01*
X165453000Y-80218719D01*
X165420336Y-80382935D01*
X165356261Y-80537624D01*
X165356260Y-80537626D01*
X165263238Y-80676844D01*
X165144844Y-80795238D01*
X165005626Y-80888260D01*
X165005625Y-80888261D01*
X165005624Y-80888261D01*
X164850935Y-80952336D01*
X164686719Y-80985000D01*
X164519281Y-80985000D01*
X164355065Y-80952336D01*
X164200376Y-80888261D01*
X164200375Y-80888261D01*
X164200374Y-80888260D01*
X164061156Y-80795238D01*
X163942762Y-80676844D01*
X163849740Y-80537626D01*
X163849739Y-80537624D01*
X163785664Y-80382935D01*
X163753000Y-80218719D01*
X163753000Y-80051281D01*
X163785664Y-79887065D01*
X163849739Y-79732376D01*
X163849740Y-79732374D01*
X163942762Y-79593156D01*
X164061156Y-79474762D01*
X164200374Y-79381740D01*
X164200376Y-79381739D01*
X164355065Y-79317664D01*
X164519281Y-79285000D01*
X164686719Y-79285000D01*
X164850935Y-79317664D01*
G37*
G36*
X169295935Y-79317664D02*
G01*
X169450624Y-79381739D01*
X169450626Y-79381740D01*
X169589844Y-79474762D01*
X169708238Y-79593156D01*
X169801260Y-79732374D01*
X169801261Y-79732376D01*
X169865336Y-79887065D01*
X169898000Y-80051281D01*
X169898000Y-80218719D01*
X169865336Y-80382935D01*
X169801261Y-80537624D01*
X169801260Y-80537626D01*
X169708238Y-80676844D01*
X169589844Y-80795238D01*
X169450626Y-80888260D01*
X169450625Y-80888261D01*
X169450624Y-80888261D01*
X169295935Y-80952336D01*
X169131719Y-80985000D01*
X168964281Y-80985000D01*
X168800065Y-80952336D01*
X168645376Y-80888261D01*
X168645375Y-80888261D01*
X168645374Y-80888260D01*
X168506156Y-80795238D01*
X168387762Y-80676844D01*
X168294740Y-80537626D01*
X168294739Y-80537624D01*
X168230664Y-80382935D01*
X168198000Y-80218719D01*
X168198000Y-80051281D01*
X168230664Y-79887065D01*
X168294739Y-79732376D01*
X168294740Y-79732374D01*
X168387762Y-79593156D01*
X168506156Y-79474762D01*
X168645374Y-79381740D01*
X168645376Y-79381739D01*
X168800065Y-79317664D01*
X168964281Y-79285000D01*
X169131719Y-79285000D01*
X169295935Y-79317664D01*
G37*
G36*
X20462000Y-80850000D02*
G01*
X18662000Y-80850000D01*
X18662000Y-79050000D01*
X20462000Y-79050000D01*
X20462000Y-80850000D01*
G37*
G36*
X19934520Y-74874586D02*
G01*
X20098310Y-74942430D01*
X20245717Y-75040924D01*
X20371076Y-75166283D01*
X20469570Y-75313690D01*
X20469571Y-75313692D01*
X20537414Y-75477480D01*
X20572000Y-75651356D01*
X20572000Y-75828644D01*
X20537414Y-76002520D01*
X20469570Y-76166310D01*
X20371076Y-76313717D01*
X20245717Y-76439076D01*
X20098310Y-76537570D01*
X20098309Y-76537571D01*
X20098308Y-76537571D01*
X19934520Y-76605414D01*
X19760644Y-76640000D01*
X19583356Y-76640000D01*
X19409480Y-76605414D01*
X19245692Y-76537571D01*
X19245691Y-76537571D01*
X19245690Y-76537570D01*
X19098283Y-76439076D01*
X18972924Y-76313717D01*
X18874430Y-76166310D01*
X18806586Y-76002520D01*
X18772000Y-75828644D01*
X18772000Y-75651356D01*
X18806586Y-75477480D01*
X18874429Y-75313692D01*
X18874430Y-75313690D01*
X18972924Y-75166283D01*
X19098283Y-75040924D01*
X19245690Y-74942430D01*
X19409480Y-74874586D01*
X19583356Y-74840000D01*
X19760644Y-74840000D01*
X19934520Y-74874586D01*
G37*
G36*
X174282000Y-75870000D02*
G01*
X172482000Y-75870000D01*
X172482000Y-74070000D01*
X174282000Y-74070000D01*
X174282000Y-75870000D01*
G37*
G36*
X173644520Y-69494586D02*
G01*
X173808310Y-69562430D01*
X173955717Y-69660924D01*
X174081076Y-69786283D01*
X174179570Y-69933690D01*
X174247414Y-70097480D01*
X174282000Y-70271358D01*
X174282000Y-70448642D01*
X174247414Y-70622520D01*
X174179570Y-70786310D01*
X174081076Y-70933717D01*
X173955717Y-71059076D01*
X173808310Y-71157570D01*
X173808309Y-71157571D01*
X173808308Y-71157571D01*
X173644520Y-71225414D01*
X173470644Y-71260000D01*
X173293356Y-71260000D01*
X173119480Y-71225414D01*
X172955692Y-71157571D01*
X172955691Y-71157571D01*
X172955690Y-71157570D01*
X172808283Y-71059076D01*
X172682924Y-70933717D01*
X172584430Y-70786310D01*
X172516586Y-70622520D01*
X172482000Y-70448642D01*
X172482000Y-70271358D01*
X172516586Y-70097480D01*
X172584430Y-69933690D01*
X172682924Y-69786283D01*
X172808283Y-69660924D01*
X172955690Y-69562430D01*
X173119480Y-69494586D01*
X173293356Y-69460000D01*
X173470644Y-69460000D01*
X173644520Y-69494586D01*
G37*
G36*
X20572000Y-69020000D02*
G01*
X18772000Y-69020000D01*
X18772000Y-67220000D01*
X20572000Y-67220000D01*
X20572000Y-69020000D01*
G37*
G36*
X28485935Y-65347664D02*
G01*
X28640624Y-65411739D01*
X28640626Y-65411740D01*
X28779844Y-65504762D01*
X28898238Y-65623156D01*
X28991260Y-65762374D01*
X28991261Y-65762376D01*
X29055336Y-65917065D01*
X29088000Y-66081281D01*
X29088000Y-66248719D01*
X29055336Y-66412935D01*
X28991261Y-66567624D01*
X28991260Y-66567626D01*
X28898238Y-66706844D01*
X28779844Y-66825238D01*
X28640626Y-66918260D01*
X28640625Y-66918261D01*
X28640624Y-66918261D01*
X28485935Y-66982336D01*
X28321719Y-67015000D01*
X28154281Y-67015000D01*
X27990065Y-66982336D01*
X27835376Y-66918261D01*
X27835375Y-66918261D01*
X27835374Y-66918260D01*
X27696156Y-66825238D01*
X27577762Y-66706844D01*
X27484740Y-66567626D01*
X27484739Y-66567624D01*
X27420664Y-66412935D01*
X27388000Y-66248719D01*
X27388000Y-66081281D01*
X27420664Y-65917065D01*
X27484739Y-65762376D01*
X27484740Y-65762374D01*
X27577762Y-65623156D01*
X27696156Y-65504762D01*
X27835374Y-65411740D01*
X27835376Y-65411739D01*
X27990065Y-65347664D01*
X28154281Y-65315000D01*
X28321719Y-65315000D01*
X28485935Y-65347664D01*
G37*
G36*
X169295935Y-65347664D02*
G01*
X169450624Y-65411739D01*
X169450626Y-65411740D01*
X169589844Y-65504762D01*
X169708238Y-65623156D01*
X169801260Y-65762374D01*
X169801261Y-65762376D01*
X169865336Y-65917065D01*
X169898000Y-66081281D01*
X169898000Y-66248719D01*
X169865336Y-66412935D01*
X169801261Y-66567624D01*
X169801260Y-66567626D01*
X169708238Y-66706844D01*
X169589844Y-66825238D01*
X169450626Y-66918260D01*
X169450625Y-66918261D01*
X169450624Y-66918261D01*
X169295935Y-66982336D01*
X169131719Y-67015000D01*
X168964281Y-67015000D01*
X168800065Y-66982336D01*
X168645376Y-66918261D01*
X168645375Y-66918261D01*
X168645374Y-66918260D01*
X168506156Y-66825238D01*
X168387762Y-66706844D01*
X168294740Y-66567626D01*
X168294739Y-66567624D01*
X168230664Y-66412935D01*
X168198000Y-66248719D01*
X168198000Y-66081281D01*
X168230664Y-65917065D01*
X168294739Y-65762376D01*
X168294740Y-65762374D01*
X168387762Y-65623156D01*
X168506156Y-65504762D01*
X168645374Y-65411740D01*
X168645376Y-65411739D01*
X168800065Y-65347664D01*
X168964281Y-65315000D01*
X169131719Y-65315000D01*
X169295935Y-65347664D01*
G37*
G36*
X164850935Y-65347664D02*
G01*
X165005624Y-65411739D01*
X165005626Y-65411740D01*
X165144844Y-65504762D01*
X165263238Y-65623156D01*
X165356260Y-65762374D01*
X165356261Y-65762376D01*
X165420336Y-65917065D01*
X165453000Y-66081281D01*
X165453000Y-66248719D01*
X165420336Y-66412935D01*
X165356261Y-66567624D01*
X165356260Y-66567626D01*
X165263238Y-66706844D01*
X165144844Y-66825238D01*
X165005626Y-66918260D01*
X165005625Y-66918261D01*
X165005624Y-66918261D01*
X164850935Y-66982336D01*
X164686719Y-67015000D01*
X164519281Y-67015000D01*
X164355065Y-66982336D01*
X164200376Y-66918261D01*
X164200375Y-66918261D01*
X164200374Y-66918260D01*
X164061156Y-66825238D01*
X163942762Y-66706844D01*
X163849740Y-66567626D01*
X163849739Y-66567624D01*
X163785664Y-66412935D01*
X163753000Y-66248719D01*
X163753000Y-66081281D01*
X163785664Y-65917065D01*
X163849739Y-65762376D01*
X163849740Y-65762374D01*
X163942762Y-65623156D01*
X164061156Y-65504762D01*
X164200374Y-65411740D01*
X164200376Y-65411739D01*
X164355065Y-65347664D01*
X164519281Y-65315000D01*
X164686719Y-65315000D01*
X164850935Y-65347664D01*
G37*
G36*
X24040935Y-65347664D02*
G01*
X24195624Y-65411739D01*
X24195626Y-65411740D01*
X24334844Y-65504762D01*
X24453238Y-65623156D01*
X24546260Y-65762374D01*
X24546261Y-65762376D01*
X24610336Y-65917065D01*
X24643000Y-66081281D01*
X24643000Y-66248719D01*
X24610336Y-66412935D01*
X24546261Y-66567624D01*
X24546260Y-66567626D01*
X24453238Y-66706844D01*
X24334844Y-66825238D01*
X24195626Y-66918260D01*
X24195625Y-66918261D01*
X24195624Y-66918261D01*
X24040935Y-66982336D01*
X23876719Y-67015000D01*
X23709281Y-67015000D01*
X23545065Y-66982336D01*
X23390376Y-66918261D01*
X23390375Y-66918261D01*
X23390374Y-66918260D01*
X23251156Y-66825238D01*
X23132762Y-66706844D01*
X23039740Y-66567626D01*
X23039739Y-66567624D01*
X22975664Y-66412935D01*
X22943000Y-66248719D01*
X22943000Y-66081281D01*
X22975664Y-65917065D01*
X23039739Y-65762376D01*
X23039740Y-65762374D01*
X23132762Y-65623156D01*
X23251156Y-65504762D01*
X23390374Y-65411740D01*
X23390376Y-65411739D01*
X23545065Y-65347664D01*
X23709281Y-65315000D01*
X23876719Y-65315000D01*
X24040935Y-65347664D01*
G37*
G36*
X164065195Y-62287522D02*
G01*
X164114267Y-62297283D01*
X164252942Y-62354724D01*
X164377747Y-62438116D01*
X164483884Y-62544253D01*
X164567276Y-62669058D01*
X164624717Y-62807733D01*
X164654000Y-62954950D01*
X164654000Y-63105050D01*
X164624717Y-63252267D01*
X164567276Y-63390942D01*
X164483884Y-63515747D01*
X164377747Y-63621884D01*
X164252942Y-63705276D01*
X164114267Y-63762717D01*
X164065195Y-63772478D01*
X163967052Y-63792000D01*
X163816948Y-63792000D01*
X163718805Y-63772478D01*
X163669733Y-63762717D01*
X163531058Y-63705276D01*
X163406253Y-63621884D01*
X163300116Y-63515747D01*
X163216724Y-63390942D01*
X163159283Y-63252267D01*
X163130000Y-63105050D01*
X163130000Y-62954950D01*
X163159283Y-62807733D01*
X163216724Y-62669058D01*
X163300116Y-62544253D01*
X163406253Y-62438116D01*
X163531058Y-62354724D01*
X163669733Y-62297283D01*
X163718805Y-62287522D01*
X163816948Y-62268000D01*
X163967052Y-62268000D01*
X164065195Y-62287522D01*
G37*
G36*
X23255195Y-62287522D02*
G01*
X23304267Y-62297283D01*
X23442942Y-62354724D01*
X23567747Y-62438116D01*
X23673884Y-62544253D01*
X23757276Y-62669058D01*
X23814717Y-62807733D01*
X23844000Y-62954950D01*
X23844000Y-63105050D01*
X23814717Y-63252267D01*
X23757276Y-63390942D01*
X23673884Y-63515747D01*
X23567747Y-63621884D01*
X23442942Y-63705276D01*
X23304267Y-63762717D01*
X23255195Y-63772478D01*
X23157052Y-63792000D01*
X23006948Y-63792000D01*
X22908805Y-63772478D01*
X22859733Y-63762717D01*
X22721058Y-63705276D01*
X22596253Y-63621884D01*
X22490116Y-63515747D01*
X22406724Y-63390942D01*
X22349283Y-63252267D01*
X22320000Y-63105050D01*
X22320000Y-62954950D01*
X22349283Y-62807733D01*
X22406724Y-62669058D01*
X22490116Y-62544253D01*
X22596253Y-62438116D01*
X22721058Y-62354724D01*
X22859733Y-62297283D01*
X22908805Y-62287522D01*
X23006948Y-62268000D01*
X23157052Y-62268000D01*
X23255195Y-62287522D01*
G37*
G36*
X169856195Y-62247522D02*
G01*
X169905267Y-62257283D01*
X170043942Y-62314724D01*
X170168747Y-62398116D01*
X170274884Y-62504253D01*
X170358276Y-62629058D01*
X170415717Y-62767733D01*
X170445000Y-62914950D01*
X170445000Y-63065050D01*
X170415717Y-63212267D01*
X170358276Y-63350942D01*
X170274884Y-63475747D01*
X170168747Y-63581884D01*
X170043942Y-63665276D01*
X169905267Y-63722717D01*
X169856195Y-63732478D01*
X169758052Y-63752000D01*
X169607948Y-63752000D01*
X169509805Y-63732478D01*
X169460733Y-63722717D01*
X169322058Y-63665276D01*
X169197253Y-63581884D01*
X169091116Y-63475747D01*
X169007724Y-63350942D01*
X168950283Y-63212267D01*
X168921000Y-63065050D01*
X168921000Y-62914950D01*
X168950283Y-62767733D01*
X169007724Y-62629058D01*
X169091116Y-62504253D01*
X169197253Y-62398116D01*
X169322058Y-62314724D01*
X169460733Y-62257283D01*
X169509805Y-62247522D01*
X169607948Y-62228000D01*
X169758052Y-62228000D01*
X169856195Y-62247522D01*
G37*
G36*
X29046195Y-62247522D02*
G01*
X29095267Y-62257283D01*
X29233942Y-62314724D01*
X29358747Y-62398116D01*
X29464884Y-62504253D01*
X29548276Y-62629058D01*
X29605717Y-62767733D01*
X29635000Y-62914950D01*
X29635000Y-63065050D01*
X29605717Y-63212267D01*
X29548276Y-63350942D01*
X29464884Y-63475747D01*
X29358747Y-63581884D01*
X29233942Y-63665276D01*
X29095267Y-63722717D01*
X29046195Y-63732478D01*
X28948052Y-63752000D01*
X28797948Y-63752000D01*
X28699805Y-63732478D01*
X28650733Y-63722717D01*
X28512058Y-63665276D01*
X28387253Y-63581884D01*
X28281116Y-63475747D01*
X28197724Y-63350942D01*
X28140283Y-63212267D01*
X28111000Y-63065050D01*
X28111000Y-62914950D01*
X28140283Y-62767733D01*
X28197724Y-62629058D01*
X28281116Y-62504253D01*
X28387253Y-62398116D01*
X28512058Y-62314724D01*
X28650733Y-62257283D01*
X28699805Y-62247522D01*
X28797948Y-62228000D01*
X28948052Y-62228000D01*
X29046195Y-62247522D01*
G37*
G36*
X174282000Y-63640000D02*
G01*
X172482000Y-63640000D01*
X172482000Y-61840000D01*
X174282000Y-61840000D01*
X174282000Y-63640000D01*
G37*
G36*
X20015351Y-61560743D02*
G01*
X20160941Y-61621048D01*
X20291970Y-61708599D01*
X20403401Y-61820030D01*
X20490952Y-61951059D01*
X20551257Y-62096649D01*
X20582000Y-62251206D01*
X20582000Y-62408794D01*
X20551257Y-62563351D01*
X20490952Y-62708941D01*
X20403401Y-62839970D01*
X20291970Y-62951401D01*
X20160941Y-63038952D01*
X20015351Y-63099257D01*
X19860794Y-63130000D01*
X19703206Y-63130000D01*
X19548649Y-63099257D01*
X19403059Y-63038952D01*
X19272030Y-62951401D01*
X19160599Y-62839970D01*
X19073048Y-62708941D01*
X19012743Y-62563351D01*
X18982000Y-62408794D01*
X18982000Y-62251206D01*
X19012743Y-62096649D01*
X19073048Y-61951059D01*
X19160599Y-61820030D01*
X19272030Y-61708599D01*
X19403059Y-61621048D01*
X19548649Y-61560743D01*
X19703206Y-61530000D01*
X19860794Y-61530000D01*
X20015351Y-61560743D01*
G37*
G36*
X164850935Y-58997664D02*
G01*
X165005624Y-59061739D01*
X165005626Y-59061740D01*
X165144844Y-59154762D01*
X165263238Y-59273156D01*
X165356260Y-59412374D01*
X165356261Y-59412376D01*
X165420336Y-59567065D01*
X165453000Y-59731281D01*
X165453000Y-59898719D01*
X165420336Y-60062935D01*
X165356261Y-60217624D01*
X165356260Y-60217626D01*
X165263238Y-60356844D01*
X165144844Y-60475238D01*
X165005626Y-60568260D01*
X165005625Y-60568261D01*
X165005624Y-60568261D01*
X164850935Y-60632336D01*
X164686719Y-60665000D01*
X164519281Y-60665000D01*
X164355065Y-60632336D01*
X164200376Y-60568261D01*
X164200375Y-60568261D01*
X164200374Y-60568260D01*
X164061156Y-60475238D01*
X163942762Y-60356844D01*
X163849740Y-60217626D01*
X163849739Y-60217624D01*
X163785664Y-60062935D01*
X163753000Y-59898719D01*
X163753000Y-59731281D01*
X163785664Y-59567065D01*
X163849739Y-59412376D01*
X163849740Y-59412374D01*
X163942762Y-59273156D01*
X164061156Y-59154762D01*
X164200374Y-59061740D01*
X164200376Y-59061739D01*
X164355065Y-58997664D01*
X164519281Y-58965000D01*
X164686719Y-58965000D01*
X164850935Y-58997664D01*
G37*
G36*
X169295935Y-58997664D02*
G01*
X169450624Y-59061739D01*
X169450626Y-59061740D01*
X169589844Y-59154762D01*
X169708238Y-59273156D01*
X169801260Y-59412374D01*
X169801261Y-59412376D01*
X169865336Y-59567065D01*
X169898000Y-59731281D01*
X169898000Y-59898719D01*
X169865336Y-60062935D01*
X169801261Y-60217624D01*
X169801260Y-60217626D01*
X169708238Y-60356844D01*
X169589844Y-60475238D01*
X169450626Y-60568260D01*
X169450625Y-60568261D01*
X169450624Y-60568261D01*
X169295935Y-60632336D01*
X169131719Y-60665000D01*
X168964281Y-60665000D01*
X168800065Y-60632336D01*
X168645376Y-60568261D01*
X168645375Y-60568261D01*
X168645374Y-60568260D01*
X168506156Y-60475238D01*
X168387762Y-60356844D01*
X168294740Y-60217626D01*
X168294739Y-60217624D01*
X168230664Y-60062935D01*
X168198000Y-59898719D01*
X168198000Y-59731281D01*
X168230664Y-59567065D01*
X168294739Y-59412376D01*
X168294740Y-59412374D01*
X168387762Y-59273156D01*
X168506156Y-59154762D01*
X168645374Y-59061740D01*
X168645376Y-59061739D01*
X168800065Y-58997664D01*
X168964281Y-58965000D01*
X169131719Y-58965000D01*
X169295935Y-58997664D01*
G37*
G36*
X24040935Y-58997664D02*
G01*
X24195624Y-59061739D01*
X24195626Y-59061740D01*
X24334844Y-59154762D01*
X24453238Y-59273156D01*
X24546260Y-59412374D01*
X24546261Y-59412376D01*
X24610336Y-59567065D01*
X24643000Y-59731281D01*
X24643000Y-59898719D01*
X24610336Y-60062935D01*
X24546261Y-60217624D01*
X24546260Y-60217626D01*
X24453238Y-60356844D01*
X24334844Y-60475238D01*
X24195626Y-60568260D01*
X24195625Y-60568261D01*
X24195624Y-60568261D01*
X24040935Y-60632336D01*
X23876719Y-60665000D01*
X23709281Y-60665000D01*
X23545065Y-60632336D01*
X23390376Y-60568261D01*
X23390375Y-60568261D01*
X23390374Y-60568260D01*
X23251156Y-60475238D01*
X23132762Y-60356844D01*
X23039740Y-60217626D01*
X23039739Y-60217624D01*
X22975664Y-60062935D01*
X22943000Y-59898719D01*
X22943000Y-59731281D01*
X22975664Y-59567065D01*
X23039739Y-59412376D01*
X23039740Y-59412374D01*
X23132762Y-59273156D01*
X23251156Y-59154762D01*
X23390374Y-59061740D01*
X23390376Y-59061739D01*
X23545065Y-58997664D01*
X23709281Y-58965000D01*
X23876719Y-58965000D01*
X24040935Y-58997664D01*
G37*
G36*
X28485935Y-58997664D02*
G01*
X28640624Y-59061739D01*
X28640626Y-59061740D01*
X28779844Y-59154762D01*
X28898238Y-59273156D01*
X28991260Y-59412374D01*
X28991261Y-59412376D01*
X29055336Y-59567065D01*
X29088000Y-59731281D01*
X29088000Y-59898719D01*
X29055336Y-60062935D01*
X28991261Y-60217624D01*
X28991260Y-60217626D01*
X28898238Y-60356844D01*
X28779844Y-60475238D01*
X28640626Y-60568260D01*
X28640625Y-60568261D01*
X28640624Y-60568261D01*
X28485935Y-60632336D01*
X28321719Y-60665000D01*
X28154281Y-60665000D01*
X27990065Y-60632336D01*
X27835376Y-60568261D01*
X27835375Y-60568261D01*
X27835374Y-60568260D01*
X27696156Y-60475238D01*
X27577762Y-60356844D01*
X27484740Y-60217626D01*
X27484739Y-60217624D01*
X27420664Y-60062935D01*
X27388000Y-59898719D01*
X27388000Y-59731281D01*
X27420664Y-59567065D01*
X27484739Y-59412376D01*
X27484740Y-59412374D01*
X27577762Y-59273156D01*
X27696156Y-59154762D01*
X27835374Y-59061740D01*
X27835376Y-59061739D01*
X27990065Y-58997664D01*
X28154281Y-58965000D01*
X28321719Y-58965000D01*
X28485935Y-58997664D01*
G37*
G36*
X20015351Y-53940743D02*
G01*
X20160941Y-54001048D01*
X20291970Y-54088599D01*
X20403401Y-54200030D01*
X20490952Y-54331059D01*
X20551257Y-54476649D01*
X20582000Y-54631206D01*
X20582000Y-54788794D01*
X20551257Y-54943351D01*
X20490952Y-55088941D01*
X20403401Y-55219970D01*
X20291970Y-55331401D01*
X20160941Y-55418952D01*
X20015351Y-55479257D01*
X19860794Y-55510000D01*
X19703206Y-55510000D01*
X19548649Y-55479257D01*
X19403059Y-55418952D01*
X19272030Y-55331401D01*
X19160599Y-55219970D01*
X19073048Y-55088941D01*
X19012743Y-54943351D01*
X18982000Y-54788794D01*
X18982000Y-54631206D01*
X19012743Y-54476649D01*
X19073048Y-54331059D01*
X19160599Y-54200030D01*
X19272030Y-54088599D01*
X19403059Y-54001048D01*
X19548649Y-53940743D01*
X19703206Y-53910000D01*
X19860794Y-53910000D01*
X20015351Y-53940743D01*
G37*
G36*
X162704520Y-52124586D02*
G01*
X162868310Y-52192430D01*
X163015717Y-52290924D01*
X163141076Y-52416283D01*
X163239570Y-52563690D01*
X163307414Y-52727480D01*
X163342000Y-52901358D01*
X163342000Y-53078642D01*
X163307414Y-53252520D01*
X163239570Y-53416310D01*
X163141076Y-53563717D01*
X163015717Y-53689076D01*
X162868310Y-53787570D01*
X162868309Y-53787571D01*
X162868308Y-53787571D01*
X162704520Y-53855414D01*
X162530644Y-53890000D01*
X162353356Y-53890000D01*
X162179480Y-53855414D01*
X162015692Y-53787571D01*
X162015691Y-53787571D01*
X162015690Y-53787570D01*
X161868283Y-53689076D01*
X161742924Y-53563717D01*
X161644430Y-53416310D01*
X161576586Y-53252520D01*
X161542000Y-53078642D01*
X161542000Y-52901358D01*
X161576586Y-52727480D01*
X161644430Y-52563690D01*
X161742924Y-52416283D01*
X161868283Y-52290924D01*
X162015690Y-52192430D01*
X162179480Y-52124586D01*
X162353356Y-52090000D01*
X162530644Y-52090000D01*
X162704520Y-52124586D01*
G37*
G36*
X170962000Y-53890000D02*
G01*
X169162000Y-53890000D01*
X169162000Y-52090000D01*
X170962000Y-52090000D01*
X170962000Y-53890000D01*
G37*
G36*
X111292000Y-36080000D02*
G01*
X109492000Y-36080000D01*
X109492000Y-34280000D01*
X111292000Y-34280000D01*
X111292000Y-36080000D01*
G37*
G36*
X103034520Y-34314586D02*
G01*
X103198310Y-34382430D01*
X103345717Y-34480924D01*
X103471076Y-34606283D01*
X103569570Y-34753690D01*
X103569571Y-34753692D01*
X103637414Y-34917480D01*
X103672000Y-35091356D01*
X103672000Y-35268644D01*
X103637414Y-35442520D01*
X103569570Y-35606310D01*
X103471076Y-35753717D01*
X103345717Y-35879076D01*
X103198310Y-35977570D01*
X103198309Y-35977571D01*
X103198308Y-35977571D01*
X103034520Y-36045414D01*
X102860644Y-36080000D01*
X102683356Y-36080000D01*
X102509480Y-36045414D01*
X102345692Y-35977571D01*
X102345691Y-35977571D01*
X102345690Y-35977570D01*
X102198283Y-35879076D01*
X102072924Y-35753717D01*
X101974430Y-35606310D01*
X101906586Y-35442520D01*
X101872000Y-35268644D01*
X101872000Y-35091356D01*
X101906586Y-34917480D01*
X101974429Y-34753692D01*
X101974430Y-34753690D01*
X102072924Y-34606283D01*
X102198283Y-34480924D01*
X102345690Y-34382430D01*
X102509480Y-34314586D01*
X102683356Y-34280000D01*
X102860644Y-34280000D01*
X103034520Y-34314586D01*
G37*
G36*
X70532000Y-36080000D02*
G01*
X68732000Y-36080000D01*
X68732000Y-34280000D01*
X70532000Y-34280000D01*
X70532000Y-36080000D01*
G37*
G36*
X62274520Y-34314586D02*
G01*
X62438310Y-34382430D01*
X62585717Y-34480924D01*
X62711076Y-34606283D01*
X62809570Y-34753690D01*
X62809571Y-34753692D01*
X62877414Y-34917480D01*
X62912000Y-35091356D01*
X62912000Y-35268644D01*
X62877414Y-35442520D01*
X62809570Y-35606310D01*
X62711076Y-35753717D01*
X62585717Y-35879076D01*
X62438310Y-35977570D01*
X62438309Y-35977571D01*
X62438308Y-35977571D01*
X62274520Y-36045414D01*
X62100644Y-36080000D01*
X61923356Y-36080000D01*
X61749480Y-36045414D01*
X61585692Y-35977571D01*
X61585691Y-35977571D01*
X61585690Y-35977570D01*
X61438283Y-35879076D01*
X61312924Y-35753717D01*
X61214430Y-35606310D01*
X61146586Y-35442520D01*
X61112000Y-35268644D01*
X61112000Y-35091356D01*
X61146586Y-34917480D01*
X61214429Y-34753692D01*
X61214430Y-34753690D01*
X61312924Y-34606283D01*
X61438283Y-34480924D01*
X61585690Y-34382430D01*
X61749480Y-34314586D01*
X61923356Y-34280000D01*
X62100644Y-34280000D01*
X62274520Y-34314586D01*
G37*
G36*
X131812000Y-35940000D02*
G01*
X130012000Y-35940000D01*
X130012000Y-34140000D01*
X131812000Y-34140000D01*
X131812000Y-35940000D01*
G37*
G36*
X123554520Y-34174586D02*
G01*
X123718310Y-34242430D01*
X123865717Y-34340924D01*
X123991076Y-34466283D01*
X124084621Y-34606284D01*
X124089571Y-34613692D01*
X124157414Y-34777480D01*
X124185262Y-34917480D01*
X124192000Y-34951358D01*
X124192000Y-35128642D01*
X124157414Y-35302520D01*
X124089570Y-35466310D01*
X123991076Y-35613717D01*
X123865717Y-35739076D01*
X123718310Y-35837570D01*
X123718309Y-35837571D01*
X123718308Y-35837571D01*
X123554520Y-35905414D01*
X123380644Y-35940000D01*
X123203356Y-35940000D01*
X123029480Y-35905414D01*
X122865692Y-35837571D01*
X122865691Y-35837571D01*
X122865690Y-35837570D01*
X122718283Y-35739076D01*
X122592924Y-35613717D01*
X122494430Y-35466310D01*
X122426586Y-35302520D01*
X122392000Y-35128642D01*
X122392000Y-34951358D01*
X122398739Y-34917480D01*
X122426586Y-34777480D01*
X122494429Y-34613692D01*
X122499379Y-34606284D01*
X122592924Y-34466283D01*
X122718283Y-34340924D01*
X122865690Y-34242430D01*
X123029480Y-34174586D01*
X123203356Y-34140000D01*
X123380644Y-34140000D01*
X123554520Y-34174586D01*
G37*
G36*
X91062000Y-35940000D02*
G01*
X89262000Y-35940000D01*
X89262000Y-34140000D01*
X91062000Y-34140000D01*
X91062000Y-35940000D01*
G37*
G36*
X82804520Y-34174586D02*
G01*
X82968310Y-34242430D01*
X83115717Y-34340924D01*
X83241076Y-34466283D01*
X83334621Y-34606284D01*
X83339571Y-34613692D01*
X83407414Y-34777480D01*
X83435262Y-34917480D01*
X83442000Y-34951358D01*
X83442000Y-35128642D01*
X83407414Y-35302520D01*
X83339570Y-35466310D01*
X83241076Y-35613717D01*
X83115717Y-35739076D01*
X82968310Y-35837570D01*
X82968309Y-35837571D01*
X82968308Y-35837571D01*
X82804520Y-35905414D01*
X82630644Y-35940000D01*
X82453356Y-35940000D01*
X82279480Y-35905414D01*
X82115692Y-35837571D01*
X82115691Y-35837571D01*
X82115690Y-35837570D01*
X81968283Y-35739076D01*
X81842924Y-35613717D01*
X81744430Y-35466310D01*
X81676586Y-35302520D01*
X81642000Y-35128642D01*
X81642000Y-34951358D01*
X81648739Y-34917480D01*
X81676586Y-34777480D01*
X81744429Y-34613692D01*
X81749379Y-34606284D01*
X81842924Y-34466283D01*
X81968283Y-34340924D01*
X82115690Y-34242430D01*
X82279480Y-34174586D01*
X82453356Y-34140000D01*
X82630644Y-34140000D01*
X82804520Y-34174586D01*
G37*
G36*
X137175195Y-33018522D02*
G01*
X137224267Y-33028283D01*
X137362942Y-33085724D01*
X137487747Y-33169116D01*
X137593884Y-33275253D01*
X137677276Y-33400058D01*
X137734717Y-33538733D01*
X137734717Y-33538734D01*
X137760399Y-33667843D01*
X137764000Y-33685950D01*
X137764000Y-33836050D01*
X137734717Y-33983267D01*
X137677276Y-34121942D01*
X137593884Y-34246747D01*
X137487747Y-34352884D01*
X137362942Y-34436276D01*
X137224267Y-34493717D01*
X137175195Y-34503478D01*
X137077052Y-34523000D01*
X136926948Y-34523000D01*
X136828805Y-34503478D01*
X136779733Y-34493717D01*
X136641058Y-34436276D01*
X136516253Y-34352884D01*
X136410116Y-34246747D01*
X136326724Y-34121942D01*
X136269283Y-33983267D01*
X136240000Y-33836050D01*
X136240000Y-33685950D01*
X136243602Y-33667843D01*
X136269283Y-33538734D01*
X136269283Y-33538733D01*
X136326724Y-33400058D01*
X136410116Y-33275253D01*
X136516253Y-33169116D01*
X136641058Y-33085724D01*
X136779733Y-33028283D01*
X136828805Y-33018522D01*
X136926948Y-32999000D01*
X137077052Y-32999000D01*
X137175195Y-33018522D01*
G37*
G36*
X116855195Y-33018522D02*
G01*
X116904267Y-33028283D01*
X117042942Y-33085724D01*
X117167747Y-33169116D01*
X117273884Y-33275253D01*
X117357276Y-33400058D01*
X117414717Y-33538733D01*
X117414717Y-33538734D01*
X117440399Y-33667843D01*
X117444000Y-33685950D01*
X117444000Y-33836050D01*
X117414717Y-33983267D01*
X117357276Y-34121942D01*
X117273884Y-34246747D01*
X117167747Y-34352884D01*
X117042942Y-34436276D01*
X116904267Y-34493717D01*
X116855195Y-34503478D01*
X116757052Y-34523000D01*
X116606948Y-34523000D01*
X116508805Y-34503478D01*
X116459733Y-34493717D01*
X116321058Y-34436276D01*
X116196253Y-34352884D01*
X116090116Y-34246747D01*
X116006724Y-34121942D01*
X115949283Y-33983267D01*
X115920000Y-33836050D01*
X115920000Y-33685950D01*
X115923602Y-33667843D01*
X115949283Y-33538734D01*
X115949283Y-33538733D01*
X116006724Y-33400058D01*
X116090116Y-33275253D01*
X116196253Y-33169116D01*
X116321058Y-33085724D01*
X116459733Y-33028283D01*
X116508805Y-33018522D01*
X116606948Y-32999000D01*
X116757052Y-32999000D01*
X116855195Y-33018522D01*
G37*
G36*
X96535195Y-33018522D02*
G01*
X96584267Y-33028283D01*
X96722942Y-33085724D01*
X96847747Y-33169116D01*
X96953884Y-33275253D01*
X97037276Y-33400058D01*
X97094717Y-33538733D01*
X97094717Y-33538734D01*
X97120399Y-33667843D01*
X97124000Y-33685950D01*
X97124000Y-33836050D01*
X97094717Y-33983267D01*
X97037276Y-34121942D01*
X96953884Y-34246747D01*
X96847747Y-34352884D01*
X96722942Y-34436276D01*
X96584267Y-34493717D01*
X96535195Y-34503478D01*
X96437052Y-34523000D01*
X96286948Y-34523000D01*
X96188805Y-34503478D01*
X96139733Y-34493717D01*
X96001058Y-34436276D01*
X95876253Y-34352884D01*
X95770116Y-34246747D01*
X95686724Y-34121942D01*
X95629283Y-33983267D01*
X95600000Y-33836050D01*
X95600000Y-33685950D01*
X95603602Y-33667843D01*
X95629283Y-33538734D01*
X95629283Y-33538733D01*
X95686724Y-33400058D01*
X95770116Y-33275253D01*
X95876253Y-33169116D01*
X96001058Y-33085724D01*
X96139733Y-33028283D01*
X96188805Y-33018522D01*
X96286948Y-32999000D01*
X96437052Y-32999000D01*
X96535195Y-33018522D01*
G37*
G36*
X76215195Y-33018522D02*
G01*
X76264267Y-33028283D01*
X76402942Y-33085724D01*
X76527747Y-33169116D01*
X76633884Y-33275253D01*
X76717276Y-33400058D01*
X76774717Y-33538733D01*
X76774717Y-33538734D01*
X76800399Y-33667843D01*
X76804000Y-33685950D01*
X76804000Y-33836050D01*
X76774717Y-33983267D01*
X76717276Y-34121942D01*
X76633884Y-34246747D01*
X76527747Y-34352884D01*
X76402942Y-34436276D01*
X76264267Y-34493717D01*
X76215195Y-34503478D01*
X76117052Y-34523000D01*
X75966948Y-34523000D01*
X75868805Y-34503478D01*
X75819733Y-34493717D01*
X75681058Y-34436276D01*
X75556253Y-34352884D01*
X75450116Y-34246747D01*
X75366724Y-34121942D01*
X75309283Y-33983267D01*
X75280000Y-33836050D01*
X75280000Y-33685950D01*
X75283602Y-33667843D01*
X75309283Y-33538734D01*
X75309283Y-33538733D01*
X75366724Y-33400058D01*
X75450116Y-33275253D01*
X75556253Y-33169116D01*
X75681058Y-33085724D01*
X75819733Y-33028283D01*
X75868805Y-33018522D01*
X75966948Y-32999000D01*
X76117052Y-32999000D01*
X76215195Y-33018522D01*
G37*
G36*
X55895195Y-33018522D02*
G01*
X55944267Y-33028283D01*
X56082942Y-33085724D01*
X56207747Y-33169116D01*
X56313884Y-33275253D01*
X56397276Y-33400058D01*
X56454717Y-33538733D01*
X56454717Y-33538734D01*
X56480399Y-33667843D01*
X56484000Y-33685950D01*
X56484000Y-33836050D01*
X56454717Y-33983267D01*
X56397276Y-34121942D01*
X56313884Y-34246747D01*
X56207747Y-34352884D01*
X56082942Y-34436276D01*
X55944267Y-34493717D01*
X55895195Y-34503478D01*
X55797052Y-34523000D01*
X55646948Y-34523000D01*
X55548805Y-34503478D01*
X55499733Y-34493717D01*
X55361058Y-34436276D01*
X55236253Y-34352884D01*
X55130116Y-34246747D01*
X55046724Y-34121942D01*
X54989283Y-33983267D01*
X54960000Y-33836050D01*
X54960000Y-33685950D01*
X54963602Y-33667843D01*
X54989283Y-33538734D01*
X54989283Y-33538733D01*
X55046724Y-33400058D01*
X55130116Y-33275253D01*
X55236253Y-33169116D01*
X55361058Y-33085724D01*
X55499733Y-33028283D01*
X55548805Y-33018522D01*
X55646948Y-32999000D01*
X55797052Y-32999000D01*
X55895195Y-33018522D01*
G37*
G36*
X99784935Y-32308664D02*
G01*
X99939624Y-32372739D01*
X99939626Y-32372740D01*
X100078844Y-32465762D01*
X100197238Y-32584156D01*
X100290260Y-32723374D01*
X100290261Y-32723376D01*
X100354336Y-32878065D01*
X100387000Y-33042281D01*
X100387000Y-33209719D01*
X100354336Y-33373935D01*
X100290261Y-33528624D01*
X100290260Y-33528626D01*
X100197238Y-33667844D01*
X100078844Y-33786238D01*
X99939626Y-33879260D01*
X99939625Y-33879261D01*
X99939624Y-33879261D01*
X99784935Y-33943336D01*
X99620719Y-33976000D01*
X99453281Y-33976000D01*
X99289065Y-33943336D01*
X99134376Y-33879261D01*
X99134375Y-33879261D01*
X99134374Y-33879260D01*
X98995156Y-33786238D01*
X98876762Y-33667844D01*
X98783740Y-33528626D01*
X98783739Y-33528624D01*
X98719664Y-33373935D01*
X98687000Y-33209719D01*
X98687000Y-33042281D01*
X98719664Y-32878065D01*
X98783739Y-32723376D01*
X98783740Y-32723374D01*
X98876762Y-32584156D01*
X98995156Y-32465762D01*
X99134374Y-32372740D01*
X99134376Y-32372739D01*
X99289065Y-32308664D01*
X99453281Y-32276000D01*
X99620719Y-32276000D01*
X99784935Y-32308664D01*
G37*
G36*
X140424935Y-32308664D02*
G01*
X140579624Y-32372739D01*
X140579626Y-32372740D01*
X140718844Y-32465762D01*
X140837238Y-32584156D01*
X140930260Y-32723374D01*
X140930261Y-32723376D01*
X140994336Y-32878065D01*
X141027000Y-33042281D01*
X141027000Y-33209719D01*
X140994336Y-33373935D01*
X140930261Y-33528624D01*
X140930260Y-33528626D01*
X140837238Y-33667844D01*
X140718844Y-33786238D01*
X140579626Y-33879260D01*
X140579625Y-33879261D01*
X140579624Y-33879261D01*
X140424935Y-33943336D01*
X140260719Y-33976000D01*
X140093281Y-33976000D01*
X139929065Y-33943336D01*
X139774376Y-33879261D01*
X139774375Y-33879261D01*
X139774374Y-33879260D01*
X139635156Y-33786238D01*
X139516762Y-33667844D01*
X139423740Y-33528626D01*
X139423739Y-33528624D01*
X139359664Y-33373935D01*
X139327000Y-33209719D01*
X139327000Y-33042281D01*
X139359664Y-32878065D01*
X139423739Y-32723376D01*
X139423740Y-32723374D01*
X139516762Y-32584156D01*
X139635156Y-32465762D01*
X139774374Y-32372740D01*
X139774376Y-32372739D01*
X139929065Y-32308664D01*
X140093281Y-32276000D01*
X140260719Y-32276000D01*
X140424935Y-32308664D01*
G37*
G36*
X134074935Y-32308664D02*
G01*
X134229624Y-32372739D01*
X134229626Y-32372740D01*
X134368844Y-32465762D01*
X134487238Y-32584156D01*
X134580260Y-32723374D01*
X134580261Y-32723376D01*
X134644336Y-32878065D01*
X134677000Y-33042281D01*
X134677000Y-33209719D01*
X134644336Y-33373935D01*
X134580261Y-33528624D01*
X134580260Y-33528626D01*
X134487238Y-33667844D01*
X134368844Y-33786238D01*
X134229626Y-33879260D01*
X134229625Y-33879261D01*
X134229624Y-33879261D01*
X134074935Y-33943336D01*
X133910719Y-33976000D01*
X133743281Y-33976000D01*
X133579065Y-33943336D01*
X133424376Y-33879261D01*
X133424375Y-33879261D01*
X133424374Y-33879260D01*
X133285156Y-33786238D01*
X133166762Y-33667844D01*
X133073740Y-33528626D01*
X133073739Y-33528624D01*
X133009664Y-33373935D01*
X132977000Y-33209719D01*
X132977000Y-33042281D01*
X133009664Y-32878065D01*
X133073739Y-32723376D01*
X133073740Y-32723374D01*
X133166762Y-32584156D01*
X133285156Y-32465762D01*
X133424374Y-32372740D01*
X133424376Y-32372739D01*
X133579065Y-32308664D01*
X133743281Y-32276000D01*
X133910719Y-32276000D01*
X134074935Y-32308664D01*
G37*
G36*
X52794935Y-32308664D02*
G01*
X52949624Y-32372739D01*
X52949626Y-32372740D01*
X53088844Y-32465762D01*
X53207238Y-32584156D01*
X53300260Y-32723374D01*
X53300261Y-32723376D01*
X53364336Y-32878065D01*
X53397000Y-33042281D01*
X53397000Y-33209719D01*
X53364336Y-33373935D01*
X53300261Y-33528624D01*
X53300260Y-33528626D01*
X53207238Y-33667844D01*
X53088844Y-33786238D01*
X52949626Y-33879260D01*
X52949625Y-33879261D01*
X52949624Y-33879261D01*
X52794935Y-33943336D01*
X52630719Y-33976000D01*
X52463281Y-33976000D01*
X52299065Y-33943336D01*
X52144376Y-33879261D01*
X52144375Y-33879261D01*
X52144374Y-33879260D01*
X52005156Y-33786238D01*
X51886762Y-33667844D01*
X51793740Y-33528626D01*
X51793739Y-33528624D01*
X51729664Y-33373935D01*
X51697000Y-33209719D01*
X51697000Y-33042281D01*
X51729664Y-32878065D01*
X51793739Y-32723376D01*
X51793740Y-32723374D01*
X51886762Y-32584156D01*
X52005156Y-32465762D01*
X52144374Y-32372740D01*
X52144376Y-32372739D01*
X52299065Y-32308664D01*
X52463281Y-32276000D01*
X52630719Y-32276000D01*
X52794935Y-32308664D01*
G37*
G36*
X113754935Y-32308664D02*
G01*
X113909624Y-32372739D01*
X113909626Y-32372740D01*
X114048844Y-32465762D01*
X114167238Y-32584156D01*
X114260260Y-32723374D01*
X114260261Y-32723376D01*
X114324336Y-32878065D01*
X114357000Y-33042281D01*
X114357000Y-33209719D01*
X114324336Y-33373935D01*
X114260261Y-33528624D01*
X114260260Y-33528626D01*
X114167238Y-33667844D01*
X114048844Y-33786238D01*
X113909626Y-33879260D01*
X113909625Y-33879261D01*
X113909624Y-33879261D01*
X113754935Y-33943336D01*
X113590719Y-33976000D01*
X113423281Y-33976000D01*
X113259065Y-33943336D01*
X113104376Y-33879261D01*
X113104375Y-33879261D01*
X113104374Y-33879260D01*
X112965156Y-33786238D01*
X112846762Y-33667844D01*
X112753740Y-33528626D01*
X112753739Y-33528624D01*
X112689664Y-33373935D01*
X112657000Y-33209719D01*
X112657000Y-33042281D01*
X112689664Y-32878065D01*
X112753739Y-32723376D01*
X112753740Y-32723374D01*
X112846762Y-32584156D01*
X112965156Y-32465762D01*
X113104374Y-32372740D01*
X113104376Y-32372739D01*
X113259065Y-32308664D01*
X113423281Y-32276000D01*
X113590719Y-32276000D01*
X113754935Y-32308664D01*
G37*
G36*
X120104935Y-32308664D02*
G01*
X120259624Y-32372739D01*
X120259626Y-32372740D01*
X120398844Y-32465762D01*
X120517238Y-32584156D01*
X120610260Y-32723374D01*
X120610261Y-32723376D01*
X120674336Y-32878065D01*
X120707000Y-33042281D01*
X120707000Y-33209719D01*
X120674336Y-33373935D01*
X120610261Y-33528624D01*
X120610260Y-33528626D01*
X120517238Y-33667844D01*
X120398844Y-33786238D01*
X120259626Y-33879260D01*
X120259625Y-33879261D01*
X120259624Y-33879261D01*
X120104935Y-33943336D01*
X119940719Y-33976000D01*
X119773281Y-33976000D01*
X119609065Y-33943336D01*
X119454376Y-33879261D01*
X119454375Y-33879261D01*
X119454374Y-33879260D01*
X119315156Y-33786238D01*
X119196762Y-33667844D01*
X119103740Y-33528626D01*
X119103739Y-33528624D01*
X119039664Y-33373935D01*
X119007000Y-33209719D01*
X119007000Y-33042281D01*
X119039664Y-32878065D01*
X119103739Y-32723376D01*
X119103740Y-32723374D01*
X119196762Y-32584156D01*
X119315156Y-32465762D01*
X119454374Y-32372740D01*
X119454376Y-32372739D01*
X119609065Y-32308664D01*
X119773281Y-32276000D01*
X119940719Y-32276000D01*
X120104935Y-32308664D01*
G37*
G36*
X59144935Y-32308664D02*
G01*
X59299624Y-32372739D01*
X59299626Y-32372740D01*
X59438844Y-32465762D01*
X59557238Y-32584156D01*
X59650260Y-32723374D01*
X59650261Y-32723376D01*
X59714336Y-32878065D01*
X59747000Y-33042281D01*
X59747000Y-33209719D01*
X59714336Y-33373935D01*
X59650261Y-33528624D01*
X59650260Y-33528626D01*
X59557238Y-33667844D01*
X59438844Y-33786238D01*
X59299626Y-33879260D01*
X59299625Y-33879261D01*
X59299624Y-33879261D01*
X59144935Y-33943336D01*
X58980719Y-33976000D01*
X58813281Y-33976000D01*
X58649065Y-33943336D01*
X58494376Y-33879261D01*
X58494375Y-33879261D01*
X58494374Y-33879260D01*
X58355156Y-33786238D01*
X58236762Y-33667844D01*
X58143740Y-33528626D01*
X58143739Y-33528624D01*
X58079664Y-33373935D01*
X58047000Y-33209719D01*
X58047000Y-33042281D01*
X58079664Y-32878065D01*
X58143739Y-32723376D01*
X58143740Y-32723374D01*
X58236762Y-32584156D01*
X58355156Y-32465762D01*
X58494374Y-32372740D01*
X58494376Y-32372739D01*
X58649065Y-32308664D01*
X58813281Y-32276000D01*
X58980719Y-32276000D01*
X59144935Y-32308664D01*
G37*
G36*
X73114935Y-32308664D02*
G01*
X73269624Y-32372739D01*
X73269626Y-32372740D01*
X73408844Y-32465762D01*
X73527238Y-32584156D01*
X73620260Y-32723374D01*
X73620261Y-32723376D01*
X73684336Y-32878065D01*
X73717000Y-33042281D01*
X73717000Y-33209719D01*
X73684336Y-33373935D01*
X73620261Y-33528624D01*
X73620260Y-33528626D01*
X73527238Y-33667844D01*
X73408844Y-33786238D01*
X73269626Y-33879260D01*
X73269625Y-33879261D01*
X73269624Y-33879261D01*
X73114935Y-33943336D01*
X72950719Y-33976000D01*
X72783281Y-33976000D01*
X72619065Y-33943336D01*
X72464376Y-33879261D01*
X72464375Y-33879261D01*
X72464374Y-33879260D01*
X72325156Y-33786238D01*
X72206762Y-33667844D01*
X72113740Y-33528626D01*
X72113739Y-33528624D01*
X72049664Y-33373935D01*
X72017000Y-33209719D01*
X72017000Y-33042281D01*
X72049664Y-32878065D01*
X72113739Y-32723376D01*
X72113740Y-32723374D01*
X72206762Y-32584156D01*
X72325156Y-32465762D01*
X72464374Y-32372740D01*
X72464376Y-32372739D01*
X72619065Y-32308664D01*
X72783281Y-32276000D01*
X72950719Y-32276000D01*
X73114935Y-32308664D01*
G37*
G36*
X79464935Y-32308664D02*
G01*
X79619624Y-32372739D01*
X79619626Y-32372740D01*
X79758844Y-32465762D01*
X79877238Y-32584156D01*
X79970260Y-32723374D01*
X79970261Y-32723376D01*
X80034336Y-32878065D01*
X80067000Y-33042281D01*
X80067000Y-33209719D01*
X80034336Y-33373935D01*
X79970261Y-33528624D01*
X79970260Y-33528626D01*
X79877238Y-33667844D01*
X79758844Y-33786238D01*
X79619626Y-33879260D01*
X79619625Y-33879261D01*
X79619624Y-33879261D01*
X79464935Y-33943336D01*
X79300719Y-33976000D01*
X79133281Y-33976000D01*
X78969065Y-33943336D01*
X78814376Y-33879261D01*
X78814375Y-33879261D01*
X78814374Y-33879260D01*
X78675156Y-33786238D01*
X78556762Y-33667844D01*
X78463740Y-33528626D01*
X78463739Y-33528624D01*
X78399664Y-33373935D01*
X78367000Y-33209719D01*
X78367000Y-33042281D01*
X78399664Y-32878065D01*
X78463739Y-32723376D01*
X78463740Y-32723374D01*
X78556762Y-32584156D01*
X78675156Y-32465762D01*
X78814374Y-32372740D01*
X78814376Y-32372739D01*
X78969065Y-32308664D01*
X79133281Y-32276000D01*
X79300719Y-32276000D01*
X79464935Y-32308664D01*
G37*
G36*
X93434935Y-32308664D02*
G01*
X93589624Y-32372739D01*
X93589626Y-32372740D01*
X93728844Y-32465762D01*
X93847238Y-32584156D01*
X93940260Y-32723374D01*
X93940261Y-32723376D01*
X94004336Y-32878065D01*
X94037000Y-33042281D01*
X94037000Y-33209719D01*
X94004336Y-33373935D01*
X93940261Y-33528624D01*
X93940260Y-33528626D01*
X93847238Y-33667844D01*
X93728844Y-33786238D01*
X93589626Y-33879260D01*
X93589625Y-33879261D01*
X93589624Y-33879261D01*
X93434935Y-33943336D01*
X93270719Y-33976000D01*
X93103281Y-33976000D01*
X92939065Y-33943336D01*
X92784376Y-33879261D01*
X92784375Y-33879261D01*
X92784374Y-33879260D01*
X92645156Y-33786238D01*
X92526762Y-33667844D01*
X92433740Y-33528626D01*
X92433739Y-33528624D01*
X92369664Y-33373935D01*
X92337000Y-33209719D01*
X92337000Y-33042281D01*
X92369664Y-32878065D01*
X92433739Y-32723376D01*
X92433740Y-32723374D01*
X92526762Y-32584156D01*
X92645156Y-32465762D01*
X92784374Y-32372740D01*
X92784376Y-32372739D01*
X92939065Y-32308664D01*
X93103281Y-32276000D01*
X93270719Y-32276000D01*
X93434935Y-32308664D01*
G37*
G36*
X52794935Y-27863664D02*
G01*
X52949624Y-27927739D01*
X52949626Y-27927740D01*
X53088844Y-28020762D01*
X53207238Y-28139156D01*
X53242725Y-28192267D01*
X53300261Y-28278376D01*
X53364336Y-28433065D01*
X53397000Y-28597281D01*
X53397000Y-28764719D01*
X53364336Y-28928935D01*
X53300261Y-29083624D01*
X53300260Y-29083626D01*
X53207238Y-29222844D01*
X53088844Y-29341238D01*
X52949626Y-29434260D01*
X52949625Y-29434261D01*
X52949624Y-29434261D01*
X52794935Y-29498336D01*
X52630719Y-29531000D01*
X52463281Y-29531000D01*
X52299065Y-29498336D01*
X52144376Y-29434261D01*
X52144375Y-29434261D01*
X52144374Y-29434260D01*
X52005156Y-29341238D01*
X51886762Y-29222844D01*
X51793740Y-29083626D01*
X51793739Y-29083624D01*
X51729664Y-28928935D01*
X51697000Y-28764719D01*
X51697000Y-28597281D01*
X51729664Y-28433065D01*
X51793739Y-28278376D01*
X51851275Y-28192267D01*
X51886762Y-28139156D01*
X52005156Y-28020762D01*
X52144374Y-27927740D01*
X52144376Y-27927739D01*
X52299065Y-27863664D01*
X52463281Y-27831000D01*
X52630719Y-27831000D01*
X52794935Y-27863664D01*
G37*
G36*
X59144935Y-27863664D02*
G01*
X59299624Y-27927739D01*
X59299626Y-27927740D01*
X59438844Y-28020762D01*
X59557238Y-28139156D01*
X59592725Y-28192267D01*
X59650261Y-28278376D01*
X59714336Y-28433065D01*
X59747000Y-28597281D01*
X59747000Y-28764719D01*
X59714336Y-28928935D01*
X59650261Y-29083624D01*
X59650260Y-29083626D01*
X59557238Y-29222844D01*
X59438844Y-29341238D01*
X59299626Y-29434260D01*
X59299625Y-29434261D01*
X59299624Y-29434261D01*
X59144935Y-29498336D01*
X58980719Y-29531000D01*
X58813281Y-29531000D01*
X58649065Y-29498336D01*
X58494376Y-29434261D01*
X58494375Y-29434261D01*
X58494374Y-29434260D01*
X58355156Y-29341238D01*
X58236762Y-29222844D01*
X58143740Y-29083626D01*
X58143739Y-29083624D01*
X58079664Y-28928935D01*
X58047000Y-28764719D01*
X58047000Y-28597281D01*
X58079664Y-28433065D01*
X58143739Y-28278376D01*
X58201275Y-28192267D01*
X58236762Y-28139156D01*
X58355156Y-28020762D01*
X58494374Y-27927740D01*
X58494376Y-27927739D01*
X58649065Y-27863664D01*
X58813281Y-27831000D01*
X58980719Y-27831000D01*
X59144935Y-27863664D01*
G37*
G36*
X79464935Y-27863664D02*
G01*
X79619624Y-27927739D01*
X79619626Y-27927740D01*
X79758844Y-28020762D01*
X79877238Y-28139156D01*
X79912725Y-28192267D01*
X79970261Y-28278376D01*
X80034336Y-28433065D01*
X80067000Y-28597281D01*
X80067000Y-28764719D01*
X80034336Y-28928935D01*
X79970261Y-29083624D01*
X79970260Y-29083626D01*
X79877238Y-29222844D01*
X79758844Y-29341238D01*
X79619626Y-29434260D01*
X79619625Y-29434261D01*
X79619624Y-29434261D01*
X79464935Y-29498336D01*
X79300719Y-29531000D01*
X79133281Y-29531000D01*
X78969065Y-29498336D01*
X78814376Y-29434261D01*
X78814375Y-29434261D01*
X78814374Y-29434260D01*
X78675156Y-29341238D01*
X78556762Y-29222844D01*
X78463740Y-29083626D01*
X78463739Y-29083624D01*
X78399664Y-28928935D01*
X78367000Y-28764719D01*
X78367000Y-28597281D01*
X78399664Y-28433065D01*
X78463739Y-28278376D01*
X78521275Y-28192267D01*
X78556762Y-28139156D01*
X78675156Y-28020762D01*
X78814374Y-27927740D01*
X78814376Y-27927739D01*
X78969065Y-27863664D01*
X79133281Y-27831000D01*
X79300719Y-27831000D01*
X79464935Y-27863664D01*
G37*
G36*
X73114935Y-27863664D02*
G01*
X73269624Y-27927739D01*
X73269626Y-27927740D01*
X73408844Y-28020762D01*
X73527238Y-28139156D01*
X73562725Y-28192267D01*
X73620261Y-28278376D01*
X73684336Y-28433065D01*
X73717000Y-28597281D01*
X73717000Y-28764719D01*
X73684336Y-28928935D01*
X73620261Y-29083624D01*
X73620260Y-29083626D01*
X73527238Y-29222844D01*
X73408844Y-29341238D01*
X73269626Y-29434260D01*
X73269625Y-29434261D01*
X73269624Y-29434261D01*
X73114935Y-29498336D01*
X72950719Y-29531000D01*
X72783281Y-29531000D01*
X72619065Y-29498336D01*
X72464376Y-29434261D01*
X72464375Y-29434261D01*
X72464374Y-29434260D01*
X72325156Y-29341238D01*
X72206762Y-29222844D01*
X72113740Y-29083626D01*
X72113739Y-29083624D01*
X72049664Y-28928935D01*
X72017000Y-28764719D01*
X72017000Y-28597281D01*
X72049664Y-28433065D01*
X72113739Y-28278376D01*
X72171275Y-28192267D01*
X72206762Y-28139156D01*
X72325156Y-28020762D01*
X72464374Y-27927740D01*
X72464376Y-27927739D01*
X72619065Y-27863664D01*
X72783281Y-27831000D01*
X72950719Y-27831000D01*
X73114935Y-27863664D01*
G37*
G36*
X93434935Y-27863664D02*
G01*
X93589624Y-27927739D01*
X93589626Y-27927740D01*
X93728844Y-28020762D01*
X93847238Y-28139156D01*
X93882725Y-28192267D01*
X93940261Y-28278376D01*
X94004336Y-28433065D01*
X94037000Y-28597281D01*
X94037000Y-28764719D01*
X94004336Y-28928935D01*
X93940261Y-29083624D01*
X93940260Y-29083626D01*
X93847238Y-29222844D01*
X93728844Y-29341238D01*
X93589626Y-29434260D01*
X93589625Y-29434261D01*
X93589624Y-29434261D01*
X93434935Y-29498336D01*
X93270719Y-29531000D01*
X93103281Y-29531000D01*
X92939065Y-29498336D01*
X92784376Y-29434261D01*
X92784375Y-29434261D01*
X92784374Y-29434260D01*
X92645156Y-29341238D01*
X92526762Y-29222844D01*
X92433740Y-29083626D01*
X92433739Y-29083624D01*
X92369664Y-28928935D01*
X92337000Y-28764719D01*
X92337000Y-28597281D01*
X92369664Y-28433065D01*
X92433739Y-28278376D01*
X92491275Y-28192267D01*
X92526762Y-28139156D01*
X92645156Y-28020762D01*
X92784374Y-27927740D01*
X92784376Y-27927739D01*
X92939065Y-27863664D01*
X93103281Y-27831000D01*
X93270719Y-27831000D01*
X93434935Y-27863664D01*
G37*
G36*
X99784935Y-27863664D02*
G01*
X99939624Y-27927739D01*
X99939626Y-27927740D01*
X100078844Y-28020762D01*
X100197238Y-28139156D01*
X100232725Y-28192267D01*
X100290261Y-28278376D01*
X100354336Y-28433065D01*
X100387000Y-28597281D01*
X100387000Y-28764719D01*
X100354336Y-28928935D01*
X100290261Y-29083624D01*
X100290260Y-29083626D01*
X100197238Y-29222844D01*
X100078844Y-29341238D01*
X99939626Y-29434260D01*
X99939625Y-29434261D01*
X99939624Y-29434261D01*
X99784935Y-29498336D01*
X99620719Y-29531000D01*
X99453281Y-29531000D01*
X99289065Y-29498336D01*
X99134376Y-29434261D01*
X99134375Y-29434261D01*
X99134374Y-29434260D01*
X98995156Y-29341238D01*
X98876762Y-29222844D01*
X98783740Y-29083626D01*
X98783739Y-29083624D01*
X98719664Y-28928935D01*
X98687000Y-28764719D01*
X98687000Y-28597281D01*
X98719664Y-28433065D01*
X98783739Y-28278376D01*
X98841275Y-28192267D01*
X98876762Y-28139156D01*
X98995156Y-28020762D01*
X99134374Y-27927740D01*
X99134376Y-27927739D01*
X99289065Y-27863664D01*
X99453281Y-27831000D01*
X99620719Y-27831000D01*
X99784935Y-27863664D01*
G37*
G36*
X113754935Y-27863664D02*
G01*
X113909624Y-27927739D01*
X113909626Y-27927740D01*
X114048844Y-28020762D01*
X114167238Y-28139156D01*
X114202725Y-28192267D01*
X114260261Y-28278376D01*
X114324336Y-28433065D01*
X114357000Y-28597281D01*
X114357000Y-28764719D01*
X114324336Y-28928935D01*
X114260261Y-29083624D01*
X114260260Y-29083626D01*
X114167238Y-29222844D01*
X114048844Y-29341238D01*
X113909626Y-29434260D01*
X113909625Y-29434261D01*
X113909624Y-29434261D01*
X113754935Y-29498336D01*
X113590719Y-29531000D01*
X113423281Y-29531000D01*
X113259065Y-29498336D01*
X113104376Y-29434261D01*
X113104375Y-29434261D01*
X113104374Y-29434260D01*
X112965156Y-29341238D01*
X112846762Y-29222844D01*
X112753740Y-29083626D01*
X112753739Y-29083624D01*
X112689664Y-28928935D01*
X112657000Y-28764719D01*
X112657000Y-28597281D01*
X112689664Y-28433065D01*
X112753739Y-28278376D01*
X112811275Y-28192267D01*
X112846762Y-28139156D01*
X112965156Y-28020762D01*
X113104374Y-27927740D01*
X113104376Y-27927739D01*
X113259065Y-27863664D01*
X113423281Y-27831000D01*
X113590719Y-27831000D01*
X113754935Y-27863664D01*
G37*
G36*
X120104935Y-27863664D02*
G01*
X120259624Y-27927739D01*
X120259626Y-27927740D01*
X120398844Y-28020762D01*
X120517238Y-28139156D01*
X120552725Y-28192267D01*
X120610261Y-28278376D01*
X120674336Y-28433065D01*
X120707000Y-28597281D01*
X120707000Y-28764719D01*
X120674336Y-28928935D01*
X120610261Y-29083624D01*
X120610260Y-29083626D01*
X120517238Y-29222844D01*
X120398844Y-29341238D01*
X120259626Y-29434260D01*
X120259625Y-29434261D01*
X120259624Y-29434261D01*
X120104935Y-29498336D01*
X119940719Y-29531000D01*
X119773281Y-29531000D01*
X119609065Y-29498336D01*
X119454376Y-29434261D01*
X119454375Y-29434261D01*
X119454374Y-29434260D01*
X119315156Y-29341238D01*
X119196762Y-29222844D01*
X119103740Y-29083626D01*
X119103739Y-29083624D01*
X119039664Y-28928935D01*
X119007000Y-28764719D01*
X119007000Y-28597281D01*
X119039664Y-28433065D01*
X119103739Y-28278376D01*
X119161275Y-28192267D01*
X119196762Y-28139156D01*
X119315156Y-28020762D01*
X119454374Y-27927740D01*
X119454376Y-27927739D01*
X119609065Y-27863664D01*
X119773281Y-27831000D01*
X119940719Y-27831000D01*
X120104935Y-27863664D01*
G37*
G36*
X134074935Y-27863664D02*
G01*
X134229624Y-27927739D01*
X134229626Y-27927740D01*
X134368844Y-28020762D01*
X134487238Y-28139156D01*
X134522725Y-28192267D01*
X134580261Y-28278376D01*
X134644336Y-28433065D01*
X134677000Y-28597281D01*
X134677000Y-28764719D01*
X134644336Y-28928935D01*
X134580261Y-29083624D01*
X134580260Y-29083626D01*
X134487238Y-29222844D01*
X134368844Y-29341238D01*
X134229626Y-29434260D01*
X134229625Y-29434261D01*
X134229624Y-29434261D01*
X134074935Y-29498336D01*
X133910719Y-29531000D01*
X133743281Y-29531000D01*
X133579065Y-29498336D01*
X133424376Y-29434261D01*
X133424375Y-29434261D01*
X133424374Y-29434260D01*
X133285156Y-29341238D01*
X133166762Y-29222844D01*
X133073740Y-29083626D01*
X133073739Y-29083624D01*
X133009664Y-28928935D01*
X132977000Y-28764719D01*
X132977000Y-28597281D01*
X133009664Y-28433065D01*
X133073739Y-28278376D01*
X133131275Y-28192267D01*
X133166762Y-28139156D01*
X133285156Y-28020762D01*
X133424374Y-27927740D01*
X133424376Y-27927739D01*
X133579065Y-27863664D01*
X133743281Y-27831000D01*
X133910719Y-27831000D01*
X134074935Y-27863664D01*
G37*
G36*
X140424935Y-27863664D02*
G01*
X140579624Y-27927739D01*
X140579626Y-27927740D01*
X140718844Y-28020762D01*
X140837238Y-28139156D01*
X140872725Y-28192267D01*
X140930261Y-28278376D01*
X140994336Y-28433065D01*
X141027000Y-28597281D01*
X141027000Y-28764719D01*
X140994336Y-28928935D01*
X140930261Y-29083624D01*
X140930260Y-29083626D01*
X140837238Y-29222844D01*
X140718844Y-29341238D01*
X140579626Y-29434260D01*
X140579625Y-29434261D01*
X140579624Y-29434261D01*
X140424935Y-29498336D01*
X140260719Y-29531000D01*
X140093281Y-29531000D01*
X139929065Y-29498336D01*
X139774376Y-29434261D01*
X139774375Y-29434261D01*
X139774374Y-29434260D01*
X139635156Y-29341238D01*
X139516762Y-29222844D01*
X139423740Y-29083626D01*
X139423739Y-29083624D01*
X139359664Y-28928935D01*
X139327000Y-28764719D01*
X139327000Y-28597281D01*
X139359664Y-28433065D01*
X139423739Y-28278376D01*
X139481275Y-28192267D01*
X139516762Y-28139156D01*
X139635156Y-28020762D01*
X139774374Y-27927740D01*
X139774376Y-27927739D01*
X139929065Y-27863664D01*
X140093281Y-27831000D01*
X140260719Y-27831000D01*
X140424935Y-27863664D01*
G37*
G36*
X55855195Y-27227522D02*
G01*
X55904267Y-27237283D01*
X56042942Y-27294724D01*
X56167747Y-27378116D01*
X56273884Y-27484253D01*
X56357276Y-27609058D01*
X56414717Y-27747733D01*
X56444000Y-27894950D01*
X56444000Y-28045050D01*
X56414717Y-28192267D01*
X56357276Y-28330942D01*
X56273884Y-28455747D01*
X56167747Y-28561884D01*
X56042942Y-28645276D01*
X55904267Y-28702717D01*
X55855195Y-28712478D01*
X55757052Y-28732000D01*
X55606948Y-28732000D01*
X55508805Y-28712478D01*
X55459733Y-28702717D01*
X55321058Y-28645276D01*
X55196253Y-28561884D01*
X55090116Y-28455747D01*
X55006724Y-28330942D01*
X54949283Y-28192267D01*
X54920000Y-28045050D01*
X54920000Y-27894950D01*
X54949283Y-27747733D01*
X55006724Y-27609058D01*
X55090116Y-27484253D01*
X55196253Y-27378116D01*
X55321058Y-27294724D01*
X55459733Y-27237283D01*
X55508805Y-27227522D01*
X55606948Y-27208000D01*
X55757052Y-27208000D01*
X55855195Y-27227522D01*
G37*
G36*
X96495195Y-27227522D02*
G01*
X96544267Y-27237283D01*
X96682942Y-27294724D01*
X96807747Y-27378116D01*
X96913884Y-27484253D01*
X96997276Y-27609058D01*
X97054717Y-27747733D01*
X97084000Y-27894950D01*
X97084000Y-28045050D01*
X97054717Y-28192267D01*
X96997276Y-28330942D01*
X96913884Y-28455747D01*
X96807747Y-28561884D01*
X96682942Y-28645276D01*
X96544267Y-28702717D01*
X96495195Y-28712478D01*
X96397052Y-28732000D01*
X96246948Y-28732000D01*
X96148805Y-28712478D01*
X96099733Y-28702717D01*
X95961058Y-28645276D01*
X95836253Y-28561884D01*
X95730116Y-28455747D01*
X95646724Y-28330942D01*
X95589283Y-28192267D01*
X95560000Y-28045050D01*
X95560000Y-27894950D01*
X95589283Y-27747733D01*
X95646724Y-27609058D01*
X95730116Y-27484253D01*
X95836253Y-27378116D01*
X95961058Y-27294724D01*
X96099733Y-27237283D01*
X96148805Y-27227522D01*
X96246948Y-27208000D01*
X96397052Y-27208000D01*
X96495195Y-27227522D01*
G37*
G36*
X76175195Y-27227522D02*
G01*
X76224267Y-27237283D01*
X76362942Y-27294724D01*
X76487747Y-27378116D01*
X76593884Y-27484253D01*
X76677276Y-27609058D01*
X76734717Y-27747733D01*
X76764000Y-27894950D01*
X76764000Y-28045050D01*
X76734717Y-28192267D01*
X76677276Y-28330942D01*
X76593884Y-28455747D01*
X76487747Y-28561884D01*
X76362942Y-28645276D01*
X76224267Y-28702717D01*
X76175195Y-28712478D01*
X76077052Y-28732000D01*
X75926948Y-28732000D01*
X75828805Y-28712478D01*
X75779733Y-28702717D01*
X75641058Y-28645276D01*
X75516253Y-28561884D01*
X75410116Y-28455747D01*
X75326724Y-28330942D01*
X75269283Y-28192267D01*
X75240000Y-28045050D01*
X75240000Y-27894950D01*
X75269283Y-27747733D01*
X75326724Y-27609058D01*
X75410116Y-27484253D01*
X75516253Y-27378116D01*
X75641058Y-27294724D01*
X75779733Y-27237283D01*
X75828805Y-27227522D01*
X75926948Y-27208000D01*
X76077052Y-27208000D01*
X76175195Y-27227522D01*
G37*
G36*
X116815195Y-27227522D02*
G01*
X116864267Y-27237283D01*
X117002942Y-27294724D01*
X117127747Y-27378116D01*
X117233884Y-27484253D01*
X117317276Y-27609058D01*
X117374717Y-27747733D01*
X117404000Y-27894950D01*
X117404000Y-28045050D01*
X117374717Y-28192267D01*
X117317276Y-28330942D01*
X117233884Y-28455747D01*
X117127747Y-28561884D01*
X117002942Y-28645276D01*
X116864267Y-28702717D01*
X116815195Y-28712478D01*
X116717052Y-28732000D01*
X116566948Y-28732000D01*
X116468805Y-28712478D01*
X116419733Y-28702717D01*
X116281058Y-28645276D01*
X116156253Y-28561884D01*
X116050116Y-28455747D01*
X115966724Y-28330942D01*
X115909283Y-28192267D01*
X115880000Y-28045050D01*
X115880000Y-27894950D01*
X115909283Y-27747733D01*
X115966724Y-27609058D01*
X116050116Y-27484253D01*
X116156253Y-27378116D01*
X116281058Y-27294724D01*
X116419733Y-27237283D01*
X116468805Y-27227522D01*
X116566948Y-27208000D01*
X116717052Y-27208000D01*
X116815195Y-27227522D01*
G37*
G36*
X137135195Y-27227522D02*
G01*
X137184267Y-27237283D01*
X137322942Y-27294724D01*
X137447747Y-27378116D01*
X137553884Y-27484253D01*
X137637276Y-27609058D01*
X137694717Y-27747733D01*
X137724000Y-27894950D01*
X137724000Y-28045050D01*
X137694717Y-28192267D01*
X137637276Y-28330942D01*
X137553884Y-28455747D01*
X137447747Y-28561884D01*
X137322942Y-28645276D01*
X137184267Y-28702717D01*
X137135195Y-28712478D01*
X137037052Y-28732000D01*
X136886948Y-28732000D01*
X136788805Y-28712478D01*
X136739733Y-28702717D01*
X136601058Y-28645276D01*
X136476253Y-28561884D01*
X136370116Y-28455747D01*
X136286724Y-28330942D01*
X136229283Y-28192267D01*
X136200000Y-28045050D01*
X136200000Y-27894950D01*
X136229283Y-27747733D01*
X136286724Y-27609058D01*
X136370116Y-27484253D01*
X136476253Y-27378116D01*
X136601058Y-27294724D01*
X136739733Y-27237283D01*
X136788805Y-27227522D01*
X136886948Y-27208000D01*
X137037052Y-27208000D01*
X137135195Y-27227522D01*
G37*
G36*
X101685351Y-22460743D02*
G01*
X101830941Y-22521048D01*
X101961970Y-22608599D01*
X102073401Y-22720030D01*
X102160952Y-22851059D01*
X102221257Y-22996649D01*
X102252000Y-23151206D01*
X102252000Y-23308794D01*
X102221257Y-23463351D01*
X102160952Y-23608941D01*
X102073401Y-23739970D01*
X101961970Y-23851401D01*
X101830941Y-23938952D01*
X101685351Y-23999257D01*
X101530794Y-24030000D01*
X101373206Y-24030000D01*
X101218649Y-23999257D01*
X101073059Y-23938952D01*
X100942030Y-23851401D01*
X100830599Y-23739970D01*
X100743048Y-23608941D01*
X100682743Y-23463351D01*
X100652000Y-23308794D01*
X100652000Y-23151206D01*
X100682743Y-22996649D01*
X100743048Y-22851059D01*
X100830599Y-22720030D01*
X100942030Y-22608599D01*
X101073059Y-22521048D01*
X101218649Y-22460743D01*
X101373206Y-22430000D01*
X101530794Y-22430000D01*
X101685351Y-22460743D01*
G37*
G36*
X109305351Y-22460743D02*
G01*
X109450941Y-22521048D01*
X109581970Y-22608599D01*
X109693401Y-22720030D01*
X109780952Y-22851059D01*
X109841257Y-22996649D01*
X109872000Y-23151206D01*
X109872000Y-23308794D01*
X109841257Y-23463351D01*
X109780952Y-23608941D01*
X109693401Y-23739970D01*
X109581970Y-23851401D01*
X109450941Y-23938952D01*
X109305351Y-23999257D01*
X109150794Y-24030000D01*
X108993206Y-24030000D01*
X108838649Y-23999257D01*
X108693059Y-23938952D01*
X108562030Y-23851401D01*
X108450599Y-23739970D01*
X108363048Y-23608941D01*
X108302743Y-23463351D01*
X108272000Y-23308794D01*
X108272000Y-23151206D01*
X108302743Y-22996649D01*
X108363048Y-22851059D01*
X108450599Y-22720030D01*
X108562030Y-22608599D01*
X108693059Y-22521048D01*
X108838649Y-22460743D01*
X108993206Y-22430000D01*
X109150794Y-22430000D01*
X109305351Y-22460743D01*
G37*
G36*
X63239935Y-22042664D02*
G01*
X63394624Y-22106739D01*
X63394626Y-22106740D01*
X63533844Y-22199762D01*
X63652238Y-22318156D01*
X63726969Y-22430000D01*
X63745261Y-22457376D01*
X63809336Y-22612065D01*
X63842000Y-22776281D01*
X63842000Y-22943719D01*
X63809336Y-23107935D01*
X63750924Y-23248952D01*
X63745260Y-23262626D01*
X63652238Y-23401844D01*
X63533844Y-23520238D01*
X63394626Y-23613260D01*
X63394625Y-23613261D01*
X63394624Y-23613261D01*
X63239935Y-23677336D01*
X63075719Y-23710000D01*
X62908281Y-23710000D01*
X62744065Y-23677336D01*
X62589376Y-23613261D01*
X62589375Y-23613261D01*
X62589374Y-23613260D01*
X62450156Y-23520238D01*
X62331762Y-23401844D01*
X62238740Y-23262626D01*
X62233076Y-23248952D01*
X62174664Y-23107935D01*
X62142000Y-22943719D01*
X62142000Y-22776281D01*
X62174664Y-22612065D01*
X62238739Y-22457376D01*
X62257031Y-22430000D01*
X62331762Y-22318156D01*
X62450156Y-22199762D01*
X62589374Y-22106740D01*
X62589376Y-22106739D01*
X62744065Y-22042664D01*
X62908281Y-22010000D01*
X63075719Y-22010000D01*
X63239935Y-22042664D01*
G37*
G36*
X78479935Y-22042664D02*
G01*
X78634624Y-22106739D01*
X78634626Y-22106740D01*
X78773844Y-22199762D01*
X78892238Y-22318156D01*
X78966969Y-22430000D01*
X78985261Y-22457376D01*
X79049336Y-22612065D01*
X79082000Y-22776281D01*
X79082000Y-22943719D01*
X79049336Y-23107935D01*
X78990924Y-23248952D01*
X78985260Y-23262626D01*
X78892238Y-23401844D01*
X78773844Y-23520238D01*
X78634626Y-23613260D01*
X78634625Y-23613261D01*
X78634624Y-23613261D01*
X78479935Y-23677336D01*
X78315719Y-23710000D01*
X78148281Y-23710000D01*
X77984065Y-23677336D01*
X77829376Y-23613261D01*
X77829375Y-23613261D01*
X77829374Y-23613260D01*
X77690156Y-23520238D01*
X77571762Y-23401844D01*
X77478740Y-23262626D01*
X77473076Y-23248952D01*
X77414664Y-23107935D01*
X77382000Y-22943719D01*
X77382000Y-22776281D01*
X77414664Y-22612065D01*
X77478739Y-22457376D01*
X77497031Y-22430000D01*
X77571762Y-22318156D01*
X77690156Y-22199762D01*
X77829374Y-22106740D01*
X77829376Y-22106739D01*
X77984065Y-22042664D01*
X78148281Y-22010000D01*
X78315719Y-22010000D01*
X78479935Y-22042664D01*
G37*
G36*
X127224520Y-21814586D02*
G01*
X127388310Y-21882430D01*
X127535717Y-21980924D01*
X127661076Y-22106283D01*
X127747957Y-22236310D01*
X127759571Y-22253692D01*
X127827414Y-22417480D01*
X127862000Y-22591356D01*
X127862000Y-22768644D01*
X127832104Y-22918941D01*
X127827414Y-22942520D01*
X127759570Y-23106310D01*
X127661076Y-23253717D01*
X127535717Y-23379076D01*
X127388310Y-23477570D01*
X127388309Y-23477571D01*
X127388308Y-23477571D01*
X127224520Y-23545414D01*
X127050644Y-23580000D01*
X126873356Y-23580000D01*
X126699480Y-23545414D01*
X126535692Y-23477571D01*
X126535691Y-23477571D01*
X126535690Y-23477570D01*
X126388283Y-23379076D01*
X126262924Y-23253717D01*
X126164430Y-23106310D01*
X126096586Y-22942520D01*
X126091896Y-22918941D01*
X126062000Y-22768644D01*
X126062000Y-22591356D01*
X126096586Y-22417480D01*
X126164429Y-22253692D01*
X126176043Y-22236310D01*
X126262924Y-22106283D01*
X126388283Y-21980924D01*
X126535690Y-21882430D01*
X126699480Y-21814586D01*
X126873356Y-21780000D01*
X127050644Y-21780000D01*
X127224520Y-21814586D01*
G37*
G36*
X135482000Y-23580000D02*
G01*
X133682000Y-23580000D01*
X133682000Y-21780000D01*
X135482000Y-21780000D01*
X135482000Y-23580000D01*
G37*
G36*
X116475351Y-21770743D02*
G01*
X116620941Y-21831048D01*
X116751970Y-21918599D01*
X116863401Y-22030030D01*
X116950952Y-22161059D01*
X117011257Y-22306649D01*
X117042000Y-22461206D01*
X117042000Y-22618794D01*
X117011257Y-22773351D01*
X116950952Y-22918941D01*
X116863401Y-23049970D01*
X116751970Y-23161401D01*
X116620941Y-23248952D01*
X116475351Y-23309257D01*
X116320794Y-23340000D01*
X116163206Y-23340000D01*
X116008649Y-23309257D01*
X115863059Y-23248952D01*
X115732030Y-23161401D01*
X115620599Y-23049970D01*
X115533048Y-22918941D01*
X115472743Y-22773351D01*
X115442000Y-22618794D01*
X115442000Y-22461206D01*
X115472743Y-22306649D01*
X115533048Y-22161059D01*
X115620599Y-22030030D01*
X115732030Y-21918599D01*
X115863059Y-21831048D01*
X116008649Y-21770743D01*
X116163206Y-21740000D01*
X116320794Y-21740000D01*
X116475351Y-21770743D01*
G37*
G36*
X124095351Y-21770743D02*
G01*
X124240941Y-21831048D01*
X124371970Y-21918599D01*
X124483401Y-22030030D01*
X124570952Y-22161059D01*
X124631257Y-22306649D01*
X124662000Y-22461206D01*
X124662000Y-22618794D01*
X124631257Y-22773351D01*
X124570952Y-22918941D01*
X124483401Y-23049970D01*
X124371970Y-23161401D01*
X124240941Y-23248952D01*
X124095351Y-23309257D01*
X123940794Y-23340000D01*
X123783206Y-23340000D01*
X123628649Y-23309257D01*
X123483059Y-23248952D01*
X123352030Y-23161401D01*
X123240599Y-23049970D01*
X123153048Y-22918941D01*
X123092743Y-22773351D01*
X123062000Y-22618794D01*
X123062000Y-22461206D01*
X123092743Y-22306649D01*
X123153048Y-22161059D01*
X123240599Y-22030030D01*
X123352030Y-21918599D01*
X123483059Y-21831048D01*
X123628649Y-21770743D01*
X123783206Y-21740000D01*
X123940794Y-21740000D01*
X124095351Y-21770743D01*
G37*
G36*
X86766191Y-20938951D02*
G01*
X86794520Y-20944586D01*
X86958310Y-21012430D01*
X87105717Y-21110924D01*
X87231076Y-21236283D01*
X87329570Y-21383690D01*
X87329571Y-21383692D01*
X87397414Y-21547480D01*
X87432000Y-21721356D01*
X87432000Y-21898644D01*
X87397414Y-22072520D01*
X87329570Y-22236310D01*
X87231076Y-22383717D01*
X87105717Y-22509076D01*
X86958310Y-22607570D01*
X86958309Y-22607571D01*
X86958308Y-22607571D01*
X86794520Y-22675414D01*
X86620644Y-22710000D01*
X86443356Y-22710000D01*
X86269480Y-22675414D01*
X86105692Y-22607571D01*
X86105691Y-22607571D01*
X86105690Y-22607570D01*
X85958283Y-22509076D01*
X85832924Y-22383717D01*
X85734430Y-22236310D01*
X85666586Y-22072520D01*
X85632000Y-21898644D01*
X85632000Y-21721356D01*
X85666586Y-21547480D01*
X85734429Y-21383692D01*
X85734430Y-21383690D01*
X85832924Y-21236283D01*
X85958283Y-21110924D01*
X86105690Y-21012430D01*
X86269480Y-20944586D01*
X86297809Y-20938951D01*
X86443356Y-20910000D01*
X86620644Y-20910000D01*
X86766191Y-20938951D01*
G37*
G36*
X84892000Y-22710000D02*
G01*
X83092000Y-22710000D01*
X83092000Y-20910000D01*
X84892000Y-20910000D01*
X84892000Y-22710000D01*
G37*
G36*
X79082000Y-21170000D02*
G01*
X77382000Y-21170000D01*
X77382000Y-19470000D01*
X79082000Y-19470000D01*
X79082000Y-21170000D01*
G37*
G36*
X63842000Y-21170000D02*
G01*
X62142000Y-21170000D01*
X62142000Y-19470000D01*
X63842000Y-19470000D01*
X63842000Y-21170000D01*
G37*
G36*
X67285351Y-19460743D02*
G01*
X67430941Y-19521048D01*
X67561970Y-19608599D01*
X67673401Y-19720030D01*
X67760952Y-19851059D01*
X67821257Y-19996649D01*
X67852000Y-20151206D01*
X67852000Y-20308794D01*
X67821257Y-20463351D01*
X67760952Y-20608941D01*
X67673401Y-20739970D01*
X67561970Y-20851401D01*
X67430941Y-20938952D01*
X67285351Y-20999257D01*
X67130794Y-21030000D01*
X66973206Y-21030000D01*
X66818649Y-20999257D01*
X66673059Y-20938952D01*
X66542030Y-20851401D01*
X66430599Y-20739970D01*
X66343048Y-20608941D01*
X66282743Y-20463351D01*
X66252000Y-20308794D01*
X66252000Y-20151206D01*
X66282743Y-19996649D01*
X66343048Y-19851059D01*
X66430599Y-19720030D01*
X66542030Y-19608599D01*
X66673059Y-19521048D01*
X66818649Y-19460743D01*
X66973206Y-19430000D01*
X67130794Y-19430000D01*
X67285351Y-19460743D01*
G37*
G36*
X74905351Y-19460743D02*
G01*
X75050941Y-19521048D01*
X75181970Y-19608599D01*
X75293401Y-19720030D01*
X75380952Y-19851059D01*
X75441257Y-19996649D01*
X75472000Y-20151206D01*
X75472000Y-20308794D01*
X75441257Y-20463351D01*
X75380952Y-20608941D01*
X75293401Y-20739970D01*
X75181970Y-20851401D01*
X75050941Y-20938952D01*
X74905351Y-20999257D01*
X74750794Y-21030000D01*
X74593206Y-21030000D01*
X74438649Y-20999257D01*
X74293059Y-20938952D01*
X74162030Y-20851401D01*
X74050599Y-20739970D01*
X73963048Y-20608941D01*
X73902743Y-20463351D01*
X73872000Y-20308794D01*
X73872000Y-20151206D01*
X73902743Y-19996649D01*
X73963048Y-19851059D01*
X74050599Y-19720030D01*
X74162030Y-19608599D01*
X74293059Y-19521048D01*
X74438649Y-19460743D01*
X74593206Y-19430000D01*
X74750794Y-19430000D01*
X74905351Y-19460743D01*
G37*
G36*
X121659935Y-16962664D02*
G01*
X121814624Y-17026739D01*
X121814626Y-17026740D01*
X121953844Y-17119762D01*
X122072238Y-17238156D01*
X122165260Y-17377374D01*
X122165261Y-17377376D01*
X122229336Y-17532065D01*
X122262000Y-17696281D01*
X122262000Y-17863719D01*
X122229336Y-18027935D01*
X122165261Y-18182624D01*
X122165260Y-18182626D01*
X122072238Y-18321844D01*
X121953844Y-18440238D01*
X121814626Y-18533260D01*
X121814625Y-18533261D01*
X121814624Y-18533261D01*
X121659935Y-18597336D01*
X121495719Y-18630000D01*
X121328281Y-18630000D01*
X121164065Y-18597336D01*
X121009376Y-18533261D01*
X121009375Y-18533261D01*
X121009374Y-18533260D01*
X120870156Y-18440238D01*
X120751762Y-18321844D01*
X120658740Y-18182626D01*
X120658739Y-18182624D01*
X120594664Y-18027935D01*
X120562000Y-17863719D01*
X120562000Y-17696281D01*
X120594664Y-17532065D01*
X120658739Y-17377376D01*
X120658740Y-17377374D01*
X120751762Y-17238156D01*
X120870156Y-17119762D01*
X121009374Y-17026740D01*
X121009376Y-17026739D01*
X121164065Y-16962664D01*
X121328281Y-16930000D01*
X121495719Y-16930000D01*
X121659935Y-16962664D01*
G37*
G36*
X124199935Y-16962664D02*
G01*
X124354624Y-17026739D01*
X124354626Y-17026740D01*
X124493844Y-17119762D01*
X124612238Y-17238156D01*
X124705260Y-17377374D01*
X124705261Y-17377376D01*
X124769336Y-17532065D01*
X124802000Y-17696281D01*
X124802000Y-17863719D01*
X124769336Y-18027935D01*
X124705261Y-18182624D01*
X124705260Y-18182626D01*
X124612238Y-18321844D01*
X124493844Y-18440238D01*
X124354626Y-18533260D01*
X124354625Y-18533261D01*
X124354624Y-18533261D01*
X124199935Y-18597336D01*
X124035719Y-18630000D01*
X123868281Y-18630000D01*
X123704065Y-18597336D01*
X123549376Y-18533261D01*
X123549375Y-18533261D01*
X123549374Y-18533260D01*
X123410156Y-18440238D01*
X123291762Y-18321844D01*
X123198740Y-18182626D01*
X123198739Y-18182624D01*
X123134664Y-18027935D01*
X123102000Y-17863719D01*
X123102000Y-17696281D01*
X123134664Y-17532065D01*
X123198739Y-17377376D01*
X123198740Y-17377374D01*
X123291762Y-17238156D01*
X123410156Y-17119762D01*
X123549374Y-17026740D01*
X123549376Y-17026739D01*
X123704065Y-16962664D01*
X123868281Y-16930000D01*
X124035719Y-16930000D01*
X124199935Y-16962664D01*
G37*
G36*
X117182000Y-18630000D02*
G01*
X115482000Y-18630000D01*
X115482000Y-16930000D01*
X117182000Y-16930000D01*
X117182000Y-18630000D01*
G37*
G36*
X119119935Y-16962664D02*
G01*
X119274624Y-17026739D01*
X119274626Y-17026740D01*
X119413844Y-17119762D01*
X119532238Y-17238156D01*
X119625260Y-17377374D01*
X119625261Y-17377376D01*
X119689336Y-17532065D01*
X119722000Y-17696281D01*
X119722000Y-17863719D01*
X119689336Y-18027935D01*
X119625261Y-18182624D01*
X119625260Y-18182626D01*
X119532238Y-18321844D01*
X119413844Y-18440238D01*
X119274626Y-18533260D01*
X119274625Y-18533261D01*
X119274624Y-18533261D01*
X119119935Y-18597336D01*
X118955719Y-18630000D01*
X118788281Y-18630000D01*
X118624065Y-18597336D01*
X118469376Y-18533261D01*
X118469375Y-18533261D01*
X118469374Y-18533260D01*
X118330156Y-18440238D01*
X118211762Y-18321844D01*
X118118740Y-18182626D01*
X118118739Y-18182624D01*
X118054664Y-18027935D01*
X118022000Y-17863719D01*
X118022000Y-17696281D01*
X118054664Y-17532065D01*
X118118739Y-17377376D01*
X118118740Y-17377374D01*
X118211762Y-17238156D01*
X118330156Y-17119762D01*
X118469374Y-17026740D01*
X118469376Y-17026739D01*
X118624065Y-16962664D01*
X118788281Y-16930000D01*
X118955719Y-16930000D01*
X119119935Y-16962664D01*
G37*
G36*
X77209935Y-14422664D02*
G01*
X77364624Y-14486739D01*
X77364626Y-14486740D01*
X77503844Y-14579762D01*
X77622238Y-14698156D01*
X77715260Y-14837374D01*
X77715261Y-14837376D01*
X77779336Y-14992065D01*
X77812000Y-15156281D01*
X77812000Y-15323719D01*
X77779336Y-15487935D01*
X77715261Y-15642624D01*
X77715260Y-15642626D01*
X77622238Y-15781844D01*
X77503844Y-15900238D01*
X77364626Y-15993260D01*
X77364625Y-15993261D01*
X77364624Y-15993261D01*
X77209935Y-16057336D01*
X77045719Y-16090000D01*
X76878281Y-16090000D01*
X76714065Y-16057336D01*
X76559376Y-15993261D01*
X76559375Y-15993261D01*
X76559374Y-15993260D01*
X76420156Y-15900238D01*
X76301762Y-15781844D01*
X76208740Y-15642626D01*
X76208739Y-15642624D01*
X76144664Y-15487935D01*
X76112000Y-15323719D01*
X76112000Y-15156281D01*
X76144664Y-14992065D01*
X76208739Y-14837376D01*
X76208740Y-14837374D01*
X76301762Y-14698156D01*
X76420156Y-14579762D01*
X76559374Y-14486740D01*
X76559376Y-14486739D01*
X76714065Y-14422664D01*
X76878281Y-14390000D01*
X77045719Y-14390000D01*
X77209935Y-14422664D01*
G37*
G36*
X74669935Y-14422664D02*
G01*
X74824624Y-14486739D01*
X74824626Y-14486740D01*
X74963844Y-14579762D01*
X75082238Y-14698156D01*
X75175260Y-14837374D01*
X75175261Y-14837376D01*
X75239336Y-14992065D01*
X75272000Y-15156281D01*
X75272000Y-15323719D01*
X75239336Y-15487935D01*
X75175261Y-15642624D01*
X75175260Y-15642626D01*
X75082238Y-15781844D01*
X74963844Y-15900238D01*
X74824626Y-15993260D01*
X74824625Y-15993261D01*
X74824624Y-15993261D01*
X74669935Y-16057336D01*
X74505719Y-16090000D01*
X74338281Y-16090000D01*
X74174065Y-16057336D01*
X74019376Y-15993261D01*
X74019375Y-15993261D01*
X74019374Y-15993260D01*
X73880156Y-15900238D01*
X73761762Y-15781844D01*
X73668740Y-15642626D01*
X73668739Y-15642624D01*
X73604664Y-15487935D01*
X73572000Y-15323719D01*
X73572000Y-15156281D01*
X73604664Y-14992065D01*
X73668739Y-14837376D01*
X73668740Y-14837374D01*
X73761762Y-14698156D01*
X73880156Y-14579762D01*
X74019374Y-14486740D01*
X74019376Y-14486739D01*
X74174065Y-14422664D01*
X74338281Y-14390000D01*
X74505719Y-14390000D01*
X74669935Y-14422664D01*
G37*
G36*
X72129935Y-14422664D02*
G01*
X72284624Y-14486739D01*
X72284626Y-14486740D01*
X72423844Y-14579762D01*
X72542238Y-14698156D01*
X72635260Y-14837374D01*
X72635261Y-14837376D01*
X72699336Y-14992065D01*
X72732000Y-15156281D01*
X72732000Y-15323719D01*
X72699336Y-15487935D01*
X72635261Y-15642624D01*
X72635260Y-15642626D01*
X72542238Y-15781844D01*
X72423844Y-15900238D01*
X72284626Y-15993260D01*
X72284625Y-15993261D01*
X72284624Y-15993261D01*
X72129935Y-16057336D01*
X71965719Y-16090000D01*
X71798281Y-16090000D01*
X71634065Y-16057336D01*
X71479376Y-15993261D01*
X71479375Y-15993261D01*
X71479374Y-15993260D01*
X71340156Y-15900238D01*
X71221762Y-15781844D01*
X71128740Y-15642626D01*
X71128739Y-15642624D01*
X71064664Y-15487935D01*
X71032000Y-15323719D01*
X71032000Y-15156281D01*
X71064664Y-14992065D01*
X71128739Y-14837376D01*
X71128740Y-14837374D01*
X71221762Y-14698156D01*
X71340156Y-14579762D01*
X71479374Y-14486740D01*
X71479376Y-14486739D01*
X71634065Y-14422664D01*
X71798281Y-14390000D01*
X71965719Y-14390000D01*
X72129935Y-14422664D01*
G37*
G36*
X69589935Y-14422664D02*
G01*
X69744624Y-14486739D01*
X69744626Y-14486740D01*
X69883844Y-14579762D01*
X70002238Y-14698156D01*
X70095260Y-14837374D01*
X70095261Y-14837376D01*
X70159336Y-14992065D01*
X70192000Y-15156281D01*
X70192000Y-15323719D01*
X70159336Y-15487935D01*
X70095261Y-15642624D01*
X70095260Y-15642626D01*
X70002238Y-15781844D01*
X69883844Y-15900238D01*
X69744626Y-15993260D01*
X69744625Y-15993261D01*
X69744624Y-15993261D01*
X69589935Y-16057336D01*
X69425719Y-16090000D01*
X69258281Y-16090000D01*
X69094065Y-16057336D01*
X68939376Y-15993261D01*
X68939375Y-15993261D01*
X68939374Y-15993260D01*
X68800156Y-15900238D01*
X68681762Y-15781844D01*
X68588740Y-15642626D01*
X68588739Y-15642624D01*
X68524664Y-15487935D01*
X68492000Y-15323719D01*
X68492000Y-15156281D01*
X68524664Y-14992065D01*
X68588739Y-14837376D01*
X68588740Y-14837374D01*
X68681762Y-14698156D01*
X68800156Y-14579762D01*
X68939374Y-14486740D01*
X68939376Y-14486739D01*
X69094065Y-14422664D01*
X69258281Y-14390000D01*
X69425719Y-14390000D01*
X69589935Y-14422664D01*
G37*
G36*
X67652000Y-16090000D02*
G01*
X65952000Y-16090000D01*
X65952000Y-14390000D01*
X67652000Y-14390000D01*
X67652000Y-16090000D01*
G37*
G36*
X107124520Y-12314586D02*
G01*
X107273473Y-12376284D01*
X107288310Y-12382430D01*
X107435717Y-12480924D01*
X107561076Y-12606283D01*
X107615330Y-12687480D01*
X107659571Y-12753692D01*
X107727414Y-12917480D01*
X107751515Y-13038642D01*
X107762000Y-13091358D01*
X107762000Y-13268642D01*
X107727414Y-13442520D01*
X107659570Y-13606310D01*
X107561076Y-13753717D01*
X107435717Y-13879076D01*
X107288310Y-13977570D01*
X107288309Y-13977571D01*
X107288308Y-13977571D01*
X107124520Y-14045414D01*
X106950644Y-14080000D01*
X106773356Y-14080000D01*
X106599480Y-14045414D01*
X106435692Y-13977571D01*
X106435691Y-13977571D01*
X106435690Y-13977570D01*
X106288283Y-13879076D01*
X106162924Y-13753717D01*
X106064430Y-13606310D01*
X105996586Y-13442520D01*
X105962000Y-13268642D01*
X105962000Y-13091358D01*
X105972486Y-13038642D01*
X105996586Y-12917480D01*
X106064429Y-12753692D01*
X106108670Y-12687480D01*
X106162924Y-12606283D01*
X106288283Y-12480924D01*
X106435690Y-12382430D01*
X106450528Y-12376284D01*
X106599480Y-12314586D01*
X106773356Y-12280000D01*
X106950644Y-12280000D01*
X107124520Y-12314586D01*
G37*
G36*
X105222000Y-14080000D02*
G01*
X103422000Y-14080000D01*
X103422000Y-12280000D01*
X105222000Y-12280000D01*
X105222000Y-14080000D01*
G37*
G36*
X86594520Y-12084586D02*
G01*
X86758310Y-12152430D01*
X86905717Y-12250924D01*
X87031076Y-12376283D01*
X87129570Y-12523690D01*
X87129571Y-12523692D01*
X87197414Y-12687480D01*
X87232000Y-12861356D01*
X87232000Y-13038644D01*
X87219273Y-13102626D01*
X87197414Y-13212520D01*
X87129570Y-13376310D01*
X87031076Y-13523717D01*
X86905717Y-13649076D01*
X86758310Y-13747570D01*
X86758309Y-13747571D01*
X86758308Y-13747571D01*
X86594520Y-13815414D01*
X86420644Y-13850000D01*
X86243356Y-13850000D01*
X86069480Y-13815414D01*
X85905692Y-13747571D01*
X85905691Y-13747571D01*
X85905690Y-13747570D01*
X85758283Y-13649076D01*
X85632924Y-13523717D01*
X85534430Y-13376310D01*
X85466586Y-13212520D01*
X85444727Y-13102626D01*
X85432000Y-13038644D01*
X85432000Y-12861356D01*
X85466586Y-12687480D01*
X85534429Y-12523692D01*
X85534430Y-12523690D01*
X85632924Y-12376283D01*
X85758283Y-12250924D01*
X85905690Y-12152430D01*
X86069480Y-12084586D01*
X86243356Y-12050000D01*
X86420644Y-12050000D01*
X86594520Y-12084586D01*
G37*
G36*
X84692000Y-13850000D02*
G01*
X82892000Y-13850000D01*
X82892000Y-12050000D01*
X84692000Y-12050000D01*
X84692000Y-13850000D01*
G37*
G36*
X117182000Y-13550000D02*
G01*
X115482000Y-13550000D01*
X115482000Y-11850000D01*
X117182000Y-11850000D01*
X117182000Y-13550000D01*
G37*
G36*
X119119935Y-11882664D02*
G01*
X119274624Y-11946739D01*
X119274626Y-11946740D01*
X119413844Y-12039762D01*
X119532238Y-12158156D01*
X119594223Y-12250924D01*
X119625261Y-12297376D01*
X119689336Y-12452065D01*
X119722000Y-12616281D01*
X119722000Y-12783719D01*
X119689336Y-12947935D01*
X119625261Y-13102624D01*
X119625260Y-13102626D01*
X119532238Y-13241844D01*
X119413844Y-13360238D01*
X119274626Y-13453260D01*
X119274625Y-13453261D01*
X119274624Y-13453261D01*
X119119935Y-13517336D01*
X118955719Y-13550000D01*
X118788281Y-13550000D01*
X118624065Y-13517336D01*
X118469376Y-13453261D01*
X118469375Y-13453261D01*
X118469374Y-13453260D01*
X118330156Y-13360238D01*
X118211762Y-13241844D01*
X118118740Y-13102626D01*
X118118739Y-13102624D01*
X118054664Y-12947935D01*
X118022000Y-12783719D01*
X118022000Y-12616281D01*
X118054664Y-12452065D01*
X118118739Y-12297376D01*
X118149777Y-12250924D01*
X118211762Y-12158156D01*
X118330156Y-12039762D01*
X118469374Y-11946740D01*
X118469376Y-11946739D01*
X118624065Y-11882664D01*
X118788281Y-11850000D01*
X118955719Y-11850000D01*
X119119935Y-11882664D01*
G37*
G36*
X121659935Y-11882664D02*
G01*
X121814624Y-11946739D01*
X121814626Y-11946740D01*
X121953844Y-12039762D01*
X122072238Y-12158156D01*
X122134223Y-12250924D01*
X122165261Y-12297376D01*
X122229336Y-12452065D01*
X122262000Y-12616281D01*
X122262000Y-12783719D01*
X122229336Y-12947935D01*
X122165261Y-13102624D01*
X122165260Y-13102626D01*
X122072238Y-13241844D01*
X121953844Y-13360238D01*
X121814626Y-13453260D01*
X121814625Y-13453261D01*
X121814624Y-13453261D01*
X121659935Y-13517336D01*
X121495719Y-13550000D01*
X121328281Y-13550000D01*
X121164065Y-13517336D01*
X121009376Y-13453261D01*
X121009375Y-13453261D01*
X121009374Y-13453260D01*
X120870156Y-13360238D01*
X120751762Y-13241844D01*
X120658740Y-13102626D01*
X120658739Y-13102624D01*
X120594664Y-12947935D01*
X120562000Y-12783719D01*
X120562000Y-12616281D01*
X120594664Y-12452065D01*
X120658739Y-12297376D01*
X120689777Y-12250924D01*
X120751762Y-12158156D01*
X120870156Y-12039762D01*
X121009374Y-11946740D01*
X121009376Y-11946739D01*
X121164065Y-11882664D01*
X121328281Y-11850000D01*
X121495719Y-11850000D01*
X121659935Y-11882664D01*
G37*
G36*
X124199935Y-11882664D02*
G01*
X124354624Y-11946739D01*
X124354626Y-11946740D01*
X124493844Y-12039762D01*
X124612238Y-12158156D01*
X124674223Y-12250924D01*
X124705261Y-12297376D01*
X124769336Y-12452065D01*
X124802000Y-12616281D01*
X124802000Y-12783719D01*
X124769336Y-12947935D01*
X124705261Y-13102624D01*
X124705260Y-13102626D01*
X124612238Y-13241844D01*
X124493844Y-13360238D01*
X124354626Y-13453260D01*
X124354625Y-13453261D01*
X124354624Y-13453261D01*
X124199935Y-13517336D01*
X124035719Y-13550000D01*
X123868281Y-13550000D01*
X123704065Y-13517336D01*
X123549376Y-13453261D01*
X123549375Y-13453261D01*
X123549374Y-13453260D01*
X123410156Y-13360238D01*
X123291762Y-13241844D01*
X123198740Y-13102626D01*
X123198739Y-13102624D01*
X123134664Y-12947935D01*
X123102000Y-12783719D01*
X123102000Y-12616281D01*
X123134664Y-12452065D01*
X123198739Y-12297376D01*
X123229777Y-12250924D01*
X123291762Y-12158156D01*
X123410156Y-12039762D01*
X123549374Y-11946740D01*
X123549376Y-11946739D01*
X123704065Y-11882664D01*
X123868281Y-11850000D01*
X124035719Y-11850000D01*
X124199935Y-11882664D01*
G37*
G36*
X77209935Y-10612664D02*
G01*
X77364624Y-10676739D01*
X77364626Y-10676740D01*
X77503844Y-10769762D01*
X77622238Y-10888156D01*
X77715260Y-11027374D01*
X77715261Y-11027376D01*
X77779336Y-11182065D01*
X77812000Y-11346281D01*
X77812000Y-11513719D01*
X77779336Y-11677935D01*
X77715261Y-11832624D01*
X77715260Y-11832626D01*
X77622238Y-11971844D01*
X77503844Y-12090238D01*
X77364626Y-12183260D01*
X77364625Y-12183261D01*
X77364624Y-12183261D01*
X77209935Y-12247336D01*
X77045719Y-12280000D01*
X76878281Y-12280000D01*
X76714065Y-12247336D01*
X76559376Y-12183261D01*
X76559375Y-12183261D01*
X76559374Y-12183260D01*
X76420156Y-12090238D01*
X76301762Y-11971844D01*
X76208740Y-11832626D01*
X76208739Y-11832624D01*
X76144664Y-11677935D01*
X76112000Y-11513719D01*
X76112000Y-11346281D01*
X76144664Y-11182065D01*
X76208739Y-11027376D01*
X76208740Y-11027374D01*
X76301762Y-10888156D01*
X76420156Y-10769762D01*
X76559374Y-10676740D01*
X76559376Y-10676739D01*
X76714065Y-10612664D01*
X76878281Y-10580000D01*
X77045719Y-10580000D01*
X77209935Y-10612664D01*
G37*
G36*
X74669935Y-10612664D02*
G01*
X74824624Y-10676739D01*
X74824626Y-10676740D01*
X74963844Y-10769762D01*
X75082238Y-10888156D01*
X75175260Y-11027374D01*
X75175261Y-11027376D01*
X75239336Y-11182065D01*
X75272000Y-11346281D01*
X75272000Y-11513719D01*
X75239336Y-11677935D01*
X75175261Y-11832624D01*
X75175260Y-11832626D01*
X75082238Y-11971844D01*
X74963844Y-12090238D01*
X74824626Y-12183260D01*
X74824625Y-12183261D01*
X74824624Y-12183261D01*
X74669935Y-12247336D01*
X74505719Y-12280000D01*
X74338281Y-12280000D01*
X74174065Y-12247336D01*
X74019376Y-12183261D01*
X74019375Y-12183261D01*
X74019374Y-12183260D01*
X73880156Y-12090238D01*
X73761762Y-11971844D01*
X73668740Y-11832626D01*
X73668739Y-11832624D01*
X73604664Y-11677935D01*
X73572000Y-11513719D01*
X73572000Y-11346281D01*
X73604664Y-11182065D01*
X73668739Y-11027376D01*
X73668740Y-11027374D01*
X73761762Y-10888156D01*
X73880156Y-10769762D01*
X74019374Y-10676740D01*
X74019376Y-10676739D01*
X74174065Y-10612664D01*
X74338281Y-10580000D01*
X74505719Y-10580000D01*
X74669935Y-10612664D01*
G37*
G36*
X72129935Y-10612664D02*
G01*
X72284624Y-10676739D01*
X72284626Y-10676740D01*
X72423844Y-10769762D01*
X72542238Y-10888156D01*
X72635260Y-11027374D01*
X72635261Y-11027376D01*
X72699336Y-11182065D01*
X72732000Y-11346281D01*
X72732000Y-11513719D01*
X72699336Y-11677935D01*
X72635261Y-11832624D01*
X72635260Y-11832626D01*
X72542238Y-11971844D01*
X72423844Y-12090238D01*
X72284626Y-12183260D01*
X72284625Y-12183261D01*
X72284624Y-12183261D01*
X72129935Y-12247336D01*
X71965719Y-12280000D01*
X71798281Y-12280000D01*
X71634065Y-12247336D01*
X71479376Y-12183261D01*
X71479375Y-12183261D01*
X71479374Y-12183260D01*
X71340156Y-12090238D01*
X71221762Y-11971844D01*
X71128740Y-11832626D01*
X71128739Y-11832624D01*
X71064664Y-11677935D01*
X71032000Y-11513719D01*
X71032000Y-11346281D01*
X71064664Y-11182065D01*
X71128739Y-11027376D01*
X71128740Y-11027374D01*
X71221762Y-10888156D01*
X71340156Y-10769762D01*
X71479374Y-10676740D01*
X71479376Y-10676739D01*
X71634065Y-10612664D01*
X71798281Y-10580000D01*
X71965719Y-10580000D01*
X72129935Y-10612664D01*
G37*
G36*
X69589935Y-10612664D02*
G01*
X69744624Y-10676739D01*
X69744626Y-10676740D01*
X69883844Y-10769762D01*
X70002238Y-10888156D01*
X70095260Y-11027374D01*
X70095261Y-11027376D01*
X70159336Y-11182065D01*
X70192000Y-11346281D01*
X70192000Y-11513719D01*
X70159336Y-11677935D01*
X70095261Y-11832624D01*
X70095260Y-11832626D01*
X70002238Y-11971844D01*
X69883844Y-12090238D01*
X69744626Y-12183260D01*
X69744625Y-12183261D01*
X69744624Y-12183261D01*
X69589935Y-12247336D01*
X69425719Y-12280000D01*
X69258281Y-12280000D01*
X69094065Y-12247336D01*
X68939376Y-12183261D01*
X68939375Y-12183261D01*
X68939374Y-12183260D01*
X68800156Y-12090238D01*
X68681762Y-11971844D01*
X68588740Y-11832626D01*
X68588739Y-11832624D01*
X68524664Y-11677935D01*
X68492000Y-11513719D01*
X68492000Y-11346281D01*
X68524664Y-11182065D01*
X68588739Y-11027376D01*
X68588740Y-11027374D01*
X68681762Y-10888156D01*
X68800156Y-10769762D01*
X68939374Y-10676740D01*
X68939376Y-10676739D01*
X69094065Y-10612664D01*
X69258281Y-10580000D01*
X69425719Y-10580000D01*
X69589935Y-10612664D01*
G37*
G36*
X67652000Y-12280000D02*
G01*
X65952000Y-12280000D01*
X65952000Y-10580000D01*
X67652000Y-10580000D01*
X67652000Y-12280000D01*
G37*
M02*
