  0
SECTION
  2
HEADER
  9
$ANGBASE
  50
0.0
  9
$ANGDIR
  70
1
  9
$MEASUREMENT
  70
1
  0
ENDSEC
  0
SECTION
  2
TABLES
  0
TABLE
  2
LTYPE
  70
4
  0
LTYPE
  5
40F
  2
CONTINUOUS
  70
0
  3
Solid line
  72
65
  73
0
  40
0.0
  0
LTYPE
  5
410
  2
DASHDOT
 70
0
  3
Dash Dot ____ _ ____ _
 72
65
 73
4
 40
2.0
 49
1.25
 49
-0.25
 49
0.25
 49
-0.25
  0
LTYPE
  5
411
  2
DASHED
 70
0
  3
Dashed __ __ __ __ __
 72
65
 73
2
 40
0.75
 49
0.5
 49
-0.25
  0
LTYPE
  5
43B
  2
DOTTED
 70
0
  3
Dotted .  .  .  .
 72
65
 73
2
 40
0.2
 49
0.0
 49
-0.2
  0
ENDTAB
  0
TABLE
  2
STYLE
  70
4
  0
STYLE
  2
KICAD
  70
0
  40
0
  41
1
  42
1
  50
0
  71
0
  3
isocp.shx
  0
STYLE
  2
KICADB
  70
0
  40
0
  41
1
  42
1
  50
0
  71
0
  3
isocp.shx
  0
STYLE
  2
KICADI
  70
0
  40
0
  41
1
  42
1
  50
15
  71
0
  3
isocp.shx
  0
STYLE
  2
KICADBI
  70
0
  40
0
  41
1
  42
1
  50
15
  71
0
  3
isocp.shx
  0
ENDTAB
  0
TABLE
  2
LAYER
  70
1
  0
LAYER
  2
BLACK
  70
0
  62
7
  6
CONTINUOUS
  0
ENDTAB
  0
ENDSEC
  0
SECTION
  2
ENTITIES
0
ARC
8
BLACK
10
173.99
20
-88.773
40
0.508
50
90
51
180
0
LINE
8
BLACK
6
CONTINUOUS
10
182.118
20
-88.265
11
173.99
21
-88.265
0
LINE
8
BLACK
6
CONTINUOUS
10
182.118
20
-78.883
11
182.118
21
-88.265
0
LINE
8
BLACK
6
CONTINUOUS
10
107.061
20
-78.883
11
107.061
21
-111.252
0
LINE
8
BLACK
6
CONTINUOUS
10
173.482
20
-111.252
11
107.061
21
-111.252
0
LINE
8
BLACK
6
CONTINUOUS
10
173.482
20
-88.773
11
173.482
21
-111.252
0
LINE
8
BLACK
6
CONTINUOUS
10
107.061
20
-78.883
11
182.118
21
-78.883
0
LINE
8
BLACK
6
CONTINUOUS
10
155.33
20
-105.527
11
159.63
21
-109.827
0
LINE
8
BLACK
6
CONTINUOUS
10
159.63
20
-105.527
11
155.33
21
-109.827
0
LINE
8
BLACK
6
CONTINUOUS
10
176.213
20
-80.527
11
180.513
21
-84.827
0
LINE
8
BLACK
6
CONTINUOUS
10
180.513
20
-80.527
11
176.213
21
-84.827
0
LINE
8
BLACK
6
CONTINUOUS
10
108.213
20
-105.527
11
112.513
21
-109.827
0
LINE
8
BLACK
6
CONTINUOUS
10
112.513
20
-105.527
11
108.213
21
-109.827
0
LINE
8
BLACK
6
CONTINUOUS
10
108.213
20
-80.527
11
112.513
21
-84.827
0
LINE
8
BLACK
6
CONTINUOUS
10
112.513
20
-80.527
11
108.213
21
-84.827
0
LINE
8
BLACK
6
CONTINUOUS
10
109.9
20
-115.934
11
109.9
21
-112.934
0
LINE
8
BLACK
6
CONTINUOUS
10
109.9
20
-112.934
11
110.615
21
-112.934
0
LINE
8
BLACK
6
CONTINUOUS
10
110.615
20
-112.934
11
111.043
21
-113.077
0
LINE
8
BLACK
6
CONTINUOUS
10
111.043
20
-113.077
11
111.329
21
-113.363
0
LINE
8
BLACK
6
CONTINUOUS
10
111.329
20
-113.363
11
111.472
21
-113.648
0
LINE
8
BLACK
6
CONTINUOUS
10
111.472
20
-113.648
11
111.615
21
-114.22
0
LINE
8
BLACK
6
CONTINUOUS
10
111.615
20
-114.22
11
111.615
21
-114.648
0
LINE
8
BLACK
6
CONTINUOUS
10
111.615
20
-114.648
11
111.472
21
-115.22
0
LINE
8
BLACK
6
CONTINUOUS
10
111.472
20
-115.22
11
111.329
21
-115.506
0
LINE
8
BLACK
6
CONTINUOUS
10
111.329
20
-115.506
11
111.043
21
-115.791
0
LINE
8
BLACK
6
CONTINUOUS
10
111.043
20
-115.791
11
110.615
21
-115.934
0
LINE
8
BLACK
6
CONTINUOUS
10
110.615
20
-115.934
11
109.9
21
-115.934
0
LINE
8
BLACK
6
CONTINUOUS
10
112.9
20
-115.934
11
112.9
21
-113.934
0
LINE
8
BLACK
6
CONTINUOUS
10
112.9
20
-114.506
11
113.043
21
-114.22
0
LINE
8
BLACK
6
CONTINUOUS
10
113.043
20
-114.22
11
113.186
21
-114.077
0
LINE
8
BLACK
6
CONTINUOUS
10
113.186
20
-114.077
11
113.472
21
-113.934
0
LINE
8
BLACK
6
CONTINUOUS
10
113.472
20
-113.934
11
113.757
21
-113.934
0
LINE
8
BLACK
6
CONTINUOUS
10
114.757
20
-115.934
11
114.757
21
-113.934
0
LINE
8
BLACK
6
CONTINUOUS
10
114.757
20
-112.934
11
114.615
21
-113.077
0
LINE
8
BLACK
6
CONTINUOUS
10
114.615
20
-113.077
11
114.757
21
-113.22
0
LINE
8
BLACK
6
CONTINUOUS
10
114.757
20
-113.22
11
114.9
21
-113.077
0
LINE
8
BLACK
6
CONTINUOUS
10
114.9
20
-113.077
11
114.757
21
-112.934
0
LINE
8
BLACK
6
CONTINUOUS
10
114.757
20
-112.934
11
114.757
21
-113.22
0
LINE
8
BLACK
6
CONTINUOUS
10
116.615
20
-115.934
11
116.329
21
-115.791
0
LINE
8
BLACK
6
CONTINUOUS
10
116.329
20
-115.791
11
116.186
21
-115.506
0
LINE
8
BLACK
6
CONTINUOUS
10
116.186
20
-115.506
11
116.186
21
-112.934
0
LINE
8
BLACK
6
CONTINUOUS
10
118.186
20
-115.934
11
117.9
21
-115.791
0
LINE
8
BLACK
6
CONTINUOUS
10
117.9
20
-115.791
11
117.757
21
-115.506
0
LINE
8
BLACK
6
CONTINUOUS
10
117.757
20
-115.506
11
117.757
21
-112.934
0
LINE
8
BLACK
6
CONTINUOUS
10
121.615
20
-115.934
11
121.615
21
-112.934
0
LINE
8
BLACK
6
CONTINUOUS
10
121.615
20
-112.934
11
122.615
21
-115.077
0
LINE
8
BLACK
6
CONTINUOUS
10
122.615
20
-115.077
11
123.615
21
-112.934
0
LINE
8
BLACK
6
CONTINUOUS
10
123.615
20
-112.934
11
123.615
21
-115.934
0
LINE
8
BLACK
6
CONTINUOUS
10
126.329
20
-115.934
11
126.329
21
-114.363
0
LINE
8
BLACK
6
CONTINUOUS
10
126.329
20
-114.363
11
126.186
21
-114.077
0
LINE
8
BLACK
6
CONTINUOUS
10
126.186
20
-114.077
11
125.9
21
-113.934
0
LINE
8
BLACK
6
CONTINUOUS
10
125.9
20
-113.934
11
125.329
21
-113.934
0
LINE
8
BLACK
6
CONTINUOUS
10
125.329
20
-113.934
11
125.043
21
-114.077
0
LINE
8
BLACK
6
CONTINUOUS
10
126.329
20
-115.791
11
126.043
21
-115.934
0
LINE
8
BLACK
6
CONTINUOUS
10
126.043
20
-115.934
11
125.329
21
-115.934
0
LINE
8
BLACK
6
CONTINUOUS
10
125.329
20
-115.934
11
125.043
21
-115.791
0
LINE
8
BLACK
6
CONTINUOUS
10
125.043
20
-115.791
11
124.9
21
-115.506
0
LINE
8
BLACK
6
CONTINUOUS
10
124.9
20
-115.506
11
124.9
21
-115.22
0
LINE
8
BLACK
6
CONTINUOUS
10
124.9
20
-115.22
11
125.043
21
-114.934
0
LINE
8
BLACK
6
CONTINUOUS
10
125.043
20
-114.934
11
125.329
21
-114.791
0
LINE
8
BLACK
6
CONTINUOUS
10
125.329
20
-114.791
11
126.043
21
-114.791
0
LINE
8
BLACK
6
CONTINUOUS
10
126.043
20
-114.791
11
126.329
21
-114.648
0
LINE
8
BLACK
6
CONTINUOUS
10
127.757
20
-113.934
11
127.757
21
-116.934
0
LINE
8
BLACK
6
CONTINUOUS
10
127.757
20
-114.077
11
128.043
21
-113.934
0
LINE
8
BLACK
6
CONTINUOUS
10
128.043
20
-113.934
11
128.615
21
-113.934
0
LINE
8
BLACK
6
CONTINUOUS
10
128.615
20
-113.934
11
128.9
21
-114.077
0
LINE
8
BLACK
6
CONTINUOUS
10
128.9
20
-114.077
11
129.043
21
-114.22
0
LINE
8
BLACK
6
CONTINUOUS
10
129.043
20
-114.22
11
129.186
21
-114.506
0
LINE
8
BLACK
6
CONTINUOUS
10
129.186
20
-114.506
11
129.186
21
-115.363
0
LINE
8
BLACK
6
CONTINUOUS
10
129.186
20
-115.363
11
129.043
21
-115.648
0
LINE
8
BLACK
6
CONTINUOUS
10
129.043
20
-115.648
11
128.9
21
-115.791
0
LINE
8
BLACK
6
CONTINUOUS
10
128.9
20
-115.791
11
128.615
21
-115.934
0
LINE
8
BLACK
6
CONTINUOUS
10
128.615
20
-115.934
11
128.043
21
-115.934
0
LINE
8
BLACK
6
CONTINUOUS
10
128.043
20
-115.934
11
127.757
21
-115.791
0
LINE
8
BLACK
6
CONTINUOUS
10
130.472
20
-115.648
11
130.615
21
-115.791
0
LINE
8
BLACK
6
CONTINUOUS
10
130.615
20
-115.791
11
130.472
21
-115.934
0
LINE
8
BLACK
6
CONTINUOUS
10
130.472
20
-115.934
11
130.329
21
-115.791
0
LINE
8
BLACK
6
CONTINUOUS
10
130.329
20
-115.791
11
130.472
21
-115.648
0
LINE
8
BLACK
6
CONTINUOUS
10
130.472
20
-115.648
11
130.472
21
-115.934
0
LINE
8
BLACK
6
CONTINUOUS
10
130.472
20
-114.077
11
130.615
21
-114.22
0
LINE
8
BLACK
6
CONTINUOUS
10
130.615
20
-114.22
11
130.472
21
-114.363
0
LINE
8
BLACK
6
CONTINUOUS
10
130.472
20
-114.363
11
130.329
21
-114.22
0
LINE
8
BLACK
6
CONTINUOUS
10
130.329
20
-114.22
11
130.472
21
-114.077
0
LINE
8
BLACK
6
CONTINUOUS
10
130.472
20
-114.077
11
130.472
21
-114.363
0
LINE
8
BLACK
6
CONTINUOUS
10
102.736
20
-118.727
11
107.036
21
-123.027
0
LINE
8
BLACK
6
CONTINUOUS
10
107.036
20
-118.727
11
102.736
21
-123.027
0
LINE
8
BLACK
6
CONTINUOUS
10
111.186
20
-120.234
11
111.186
21
-122.234
0
LINE
8
BLACK
6
CONTINUOUS
10
110.472
20
-119.091
11
109.757
21
-121.234
0
LINE
8
BLACK
6
CONTINUOUS
10
109.757
20
-121.234
11
111.615
21
-121.234
0
LINE
8
BLACK
6
CONTINUOUS
10
112.757
20
-121.948
11
112.9
21
-122.091
0
LINE
8
BLACK
6
CONTINUOUS
10
112.9
20
-122.091
11
112.757
21
-122.234
0
LINE
8
BLACK
6
CONTINUOUS
10
112.757
20
-122.234
11
112.615
21
-122.091
0
LINE
8
BLACK
6
CONTINUOUS
10
112.615
20
-122.091
11
112.757
21
-121.948
0
LINE
8
BLACK
6
CONTINUOUS
10
112.757
20
-121.948
11
112.757
21
-122.234
0
LINE
8
BLACK
6
CONTINUOUS
10
113.9
20
-119.234
11
115.757
21
-119.234
0
LINE
8
BLACK
6
CONTINUOUS
10
115.757
20
-119.234
11
114.757
21
-120.377
0
LINE
8
BLACK
6
CONTINUOUS
10
114.757
20
-120.377
11
115.186
21
-120.377
0
LINE
8
BLACK
6
CONTINUOUS
10
115.186
20
-120.377
11
115.472
21
-120.52
0
LINE
8
BLACK
6
CONTINUOUS
10
115.472
20
-120.52
11
115.615
21
-120.663
0
LINE
8
BLACK
6
CONTINUOUS
10
115.615
20
-120.663
11
115.757
21
-120.948
0
LINE
8
BLACK
6
CONTINUOUS
10
115.757
20
-120.948
11
115.757
21
-121.663
0
LINE
8
BLACK
6
CONTINUOUS
10
115.757
20
-121.663
11
115.615
21
-121.948
0
LINE
8
BLACK
6
CONTINUOUS
10
115.615
20
-121.948
11
115.472
21
-122.091
0
LINE
8
BLACK
6
CONTINUOUS
10
115.472
20
-122.091
11
115.186
21
-122.234
0
LINE
8
BLACK
6
CONTINUOUS
10
115.186
20
-122.234
11
114.329
21
-122.234
0
LINE
8
BLACK
6
CONTINUOUS
10
114.329
20
-122.234
11
114.043
21
-122.091
0
LINE
8
BLACK
6
CONTINUOUS
10
114.043
20
-122.091
11
113.9
21
-121.948
0
LINE
8
BLACK
6
CONTINUOUS
10
117.615
20
-119.234
11
117.9
21
-119.234
0
LINE
8
BLACK
6
CONTINUOUS
10
117.9
20
-119.234
11
118.186
21
-119.377
0
LINE
8
BLACK
6
CONTINUOUS
10
118.186
20
-119.377
11
118.329
21
-119.52
0
LINE
8
BLACK
6
CONTINUOUS
10
118.329
20
-119.52
11
118.472
21
-119.806
0
LINE
8
BLACK
6
CONTINUOUS
10
118.472
20
-119.806
11
118.615
21
-120.377
0
LINE
8
BLACK
6
CONTINUOUS
10
118.615
20
-120.377
11
118.615
21
-121.091
0
LINE
8
BLACK
6
CONTINUOUS
10
118.615
20
-121.091
11
118.472
21
-121.663
0
LINE
8
BLACK
6
CONTINUOUS
10
118.472
20
-121.663
11
118.329
21
-121.948
0
LINE
8
BLACK
6
CONTINUOUS
10
118.329
20
-121.948
11
118.186
21
-122.091
0
LINE
8
BLACK
6
CONTINUOUS
10
118.186
20
-122.091
11
117.9
21
-122.234
0
LINE
8
BLACK
6
CONTINUOUS
10
117.9
20
-122.234
11
117.615
21
-122.234
0
LINE
8
BLACK
6
CONTINUOUS
10
117.615
20
-122.234
11
117.329
21
-122.091
0
LINE
8
BLACK
6
CONTINUOUS
10
117.329
20
-122.091
11
117.186
21
-121.948
0
LINE
8
BLACK
6
CONTINUOUS
10
117.186
20
-121.948
11
117.043
21
-121.663
0
LINE
8
BLACK
6
CONTINUOUS
10
117.043
20
-121.663
11
116.9
21
-121.091
0
LINE
8
BLACK
6
CONTINUOUS
10
116.9
20
-121.091
11
116.9
21
-120.377
0
LINE
8
BLACK
6
CONTINUOUS
10
116.9
20
-120.377
11
117.043
21
-119.806
0
LINE
8
BLACK
6
CONTINUOUS
10
117.043
20
-119.806
11
117.186
21
-119.52
0
LINE
8
BLACK
6
CONTINUOUS
10
117.186
20
-119.52
11
117.329
21
-119.377
0
LINE
8
BLACK
6
CONTINUOUS
10
117.329
20
-119.377
11
117.615
21
-119.234
0
LINE
8
BLACK
6
CONTINUOUS
10
119.9
20
-122.234
11
119.9
21
-120.234
0
LINE
8
BLACK
6
CONTINUOUS
10
119.9
20
-120.52
11
120.043
21
-120.377
0
LINE
8
BLACK
6
CONTINUOUS
10
120.043
20
-120.377
11
120.329
21
-120.234
0
LINE
8
BLACK
6
CONTINUOUS
10
120.329
20
-120.234
11
120.757
21
-120.234
0
LINE
8
BLACK
6
CONTINUOUS
10
120.757
20
-120.234
11
121.043
21
-120.377
0
LINE
8
BLACK
6
CONTINUOUS
10
121.043
20
-120.377
11
121.186
21
-120.663
0
LINE
8
BLACK
6
CONTINUOUS
10
121.186
20
-120.663
11
121.186
21
-122.234
0
LINE
8
BLACK
6
CONTINUOUS
10
121.186
20
-120.663
11
121.329
21
-120.377
0
LINE
8
BLACK
6
CONTINUOUS
10
121.329
20
-120.377
11
121.615
21
-120.234
0
LINE
8
BLACK
6
CONTINUOUS
10
121.615
20
-120.234
11
122.043
21
-120.234
0
LINE
8
BLACK
6
CONTINUOUS
10
122.043
20
-120.234
11
122.329
21
-120.377
0
LINE
8
BLACK
6
CONTINUOUS
10
122.329
20
-120.377
11
122.472
21
-120.663
0
LINE
8
BLACK
6
CONTINUOUS
10
122.472
20
-120.663
11
122.472
21
-122.234
0
LINE
8
BLACK
6
CONTINUOUS
10
123.9
20
-122.234
11
123.9
21
-120.234
0
LINE
8
BLACK
6
CONTINUOUS
10
123.9
20
-120.52
11
124.043
21
-120.377
0
LINE
8
BLACK
6
CONTINUOUS
10
124.043
20
-120.377
11
124.329
21
-120.234
0
LINE
8
BLACK
6
CONTINUOUS
10
124.329
20
-120.234
11
124.757
21
-120.234
0
LINE
8
BLACK
6
CONTINUOUS
10
124.757
20
-120.234
11
125.043
21
-120.377
0
LINE
8
BLACK
6
CONTINUOUS
10
125.043
20
-120.377
11
125.186
21
-120.663
0
LINE
8
BLACK
6
CONTINUOUS
10
125.186
20
-120.663
11
125.186
21
-122.234
0
LINE
8
BLACK
6
CONTINUOUS
10
125.186
20
-120.663
11
125.329
21
-120.377
0
LINE
8
BLACK
6
CONTINUOUS
10
125.329
20
-120.377
11
125.615
21
-120.234
0
LINE
8
BLACK
6
CONTINUOUS
10
125.615
20
-120.234
11
126.043
21
-120.234
0
LINE
8
BLACK
6
CONTINUOUS
10
126.043
20
-120.234
11
126.329
21
-120.377
0
LINE
8
BLACK
6
CONTINUOUS
10
126.329
20
-120.377
11
126.472
21
-120.663
0
LINE
8
BLACK
6
CONTINUOUS
10
126.472
20
-120.663
11
126.472
21
-122.234
0
LINE
8
BLACK
6
CONTINUOUS
10
132.329
20
-119.091
11
129.757
21
-122.948
0
LINE
8
BLACK
6
CONTINUOUS
10
136.186
20
-119.234
11
136.472
21
-119.234
0
LINE
8
BLACK
6
CONTINUOUS
10
136.472
20
-119.234
11
136.757
21
-119.377
0
LINE
8
BLACK
6
CONTINUOUS
10
136.757
20
-119.377
11
136.9
21
-119.52
0
LINE
8
BLACK
6
CONTINUOUS
10
136.9
20
-119.52
11
137.043
21
-119.806
0
LINE
8
BLACK
6
CONTINUOUS
10
137.043
20
-119.806
11
137.186
21
-120.377
0
LINE
8
BLACK
6
CONTINUOUS
10
137.186
20
-120.377
11
137.186
21
-121.091
0
LINE
8
BLACK
6
CONTINUOUS
10
137.186
20
-121.091
11
137.043
21
-121.663
0
LINE
8
BLACK
6
CONTINUOUS
10
137.043
20
-121.663
11
136.9
21
-121.948
0
LINE
8
BLACK
6
CONTINUOUS
10
136.9
20
-121.948
11
136.757
21
-122.091
0
LINE
8
BLACK
6
CONTINUOUS
10
136.757
20
-122.091
11
136.472
21
-122.234
0
LINE
8
BLACK
6
CONTINUOUS
10
136.472
20
-122.234
11
136.186
21
-122.234
0
LINE
8
BLACK
6
CONTINUOUS
10
136.186
20
-122.234
11
135.9
21
-122.091
0
LINE
8
BLACK
6
CONTINUOUS
10
135.9
20
-122.091
11
135.757
21
-121.948
0
LINE
8
BLACK
6
CONTINUOUS
10
135.757
20
-121.948
11
135.615
21
-121.663
0
LINE
8
BLACK
6
CONTINUOUS
10
135.615
20
-121.663
11
135.472
21
-121.091
0
LINE
8
BLACK
6
CONTINUOUS
10
135.472
20
-121.091
11
135.472
21
-120.377
0
LINE
8
BLACK
6
CONTINUOUS
10
135.472
20
-120.377
11
135.615
21
-119.806
0
LINE
8
BLACK
6
CONTINUOUS
10
135.615
20
-119.806
11
135.757
21
-119.52
0
LINE
8
BLACK
6
CONTINUOUS
10
135.757
20
-119.52
11
135.9
21
-119.377
0
LINE
8
BLACK
6
CONTINUOUS
10
135.9
20
-119.377
11
136.186
21
-119.234
0
LINE
8
BLACK
6
CONTINUOUS
10
138.472
20
-121.948
11
138.615
21
-122.091
0
LINE
8
BLACK
6
CONTINUOUS
10
138.615
20
-122.091
11
138.472
21
-122.234
0
LINE
8
BLACK
6
CONTINUOUS
10
138.472
20
-122.234
11
138.329
21
-122.091
0
LINE
8
BLACK
6
CONTINUOUS
10
138.329
20
-122.091
11
138.472
21
-121.948
0
LINE
8
BLACK
6
CONTINUOUS
10
138.472
20
-121.948
11
138.472
21
-122.234
0
LINE
8
BLACK
6
CONTINUOUS
10
141.472
20
-122.234
11
139.757
21
-122.234
0
LINE
8
BLACK
6
CONTINUOUS
10
140.615
20
-122.234
11
140.615
21
-119.234
0
LINE
8
BLACK
6
CONTINUOUS
10
140.615
20
-119.234
11
140.329
21
-119.663
0
LINE
8
BLACK
6
CONTINUOUS
10
140.329
20
-119.663
11
140.043
21
-119.948
0
LINE
8
BLACK
6
CONTINUOUS
10
140.043
20
-119.948
11
139.757
21
-120.091
0
LINE
8
BLACK
6
CONTINUOUS
10
144.043
20
-119.234
11
143.472
21
-119.234
0
LINE
8
BLACK
6
CONTINUOUS
10
143.472
20
-119.234
11
143.186
21
-119.377
0
LINE
8
BLACK
6
CONTINUOUS
10
143.186
20
-119.377
11
143.043
21
-119.52
0
LINE
8
BLACK
6
CONTINUOUS
10
143.043
20
-119.52
11
142.757
21
-119.948
0
LINE
8
BLACK
6
CONTINUOUS
10
142.757
20
-119.948
11
142.615
21
-120.52
0
LINE
8
BLACK
6
CONTINUOUS
10
142.615
20
-120.52
11
142.615
21
-121.663
0
LINE
8
BLACK
6
CONTINUOUS
10
142.615
20
-121.663
11
142.757
21
-121.948
0
LINE
8
BLACK
6
CONTINUOUS
10
142.757
20
-121.948
11
142.9
21
-122.091
0
LINE
8
BLACK
6
CONTINUOUS
10
142.9
20
-122.091
11
143.186
21
-122.234
0
LINE
8
BLACK
6
CONTINUOUS
10
143.186
20
-122.234
11
143.757
21
-122.234
0
LINE
8
BLACK
6
CONTINUOUS
10
143.757
20
-122.234
11
144.043
21
-122.091
0
LINE
8
BLACK
6
CONTINUOUS
10
144.043
20
-122.091
11
144.186
21
-121.948
0
LINE
8
BLACK
6
CONTINUOUS
10
144.186
20
-121.948
11
144.329
21
-121.663
0
LINE
8
BLACK
6
CONTINUOUS
10
144.329
20
-121.663
11
144.329
21
-120.948
0
LINE
8
BLACK
6
CONTINUOUS
10
144.329
20
-120.948
11
144.186
21
-120.663
0
LINE
8
BLACK
6
CONTINUOUS
10
144.186
20
-120.663
11
144.043
21
-120.52
0
LINE
8
BLACK
6
CONTINUOUS
10
144.043
20
-120.52
11
143.757
21
-120.377
0
LINE
8
BLACK
6
CONTINUOUS
10
143.757
20
-120.377
11
143.186
21
-120.377
0
LINE
8
BLACK
6
CONTINUOUS
10
143.186
20
-120.377
11
142.9
21
-120.52
0
LINE
8
BLACK
6
CONTINUOUS
10
142.9
20
-120.52
11
142.757
21
-120.663
0
LINE
8
BLACK
6
CONTINUOUS
10
142.757
20
-120.663
11
142.615
21
-120.948
0
LINE
8
BLACK
6
CONTINUOUS
10
145.757
20
-122.234
11
146.329
21
-122.234
0
LINE
8
BLACK
6
CONTINUOUS
10
146.329
20
-122.234
11
146.615
21
-122.091
0
LINE
8
BLACK
6
CONTINUOUS
10
146.615
20
-122.091
11
146.757
21
-121.948
0
LINE
8
BLACK
6
CONTINUOUS
10
146.757
20
-121.948
11
147.043
21
-121.52
0
LINE
8
BLACK
6
CONTINUOUS
10
147.043
20
-121.52
11
147.186
21
-120.948
0
LINE
8
BLACK
6
CONTINUOUS
10
147.186
20
-120.948
11
147.186
21
-119.806
0
LINE
8
BLACK
6
CONTINUOUS
10
147.186
20
-119.806
11
147.043
21
-119.52
0
LINE
8
BLACK
6
CONTINUOUS
10
147.043
20
-119.52
11
146.9
21
-119.377
0
LINE
8
BLACK
6
CONTINUOUS
10
146.9
20
-119.377
11
146.615
21
-119.234
0
LINE
8
BLACK
6
CONTINUOUS
10
146.615
20
-119.234
11
146.043
21
-119.234
0
LINE
8
BLACK
6
CONTINUOUS
10
146.043
20
-119.234
11
145.757
21
-119.377
0
LINE
8
BLACK
6
CONTINUOUS
10
145.757
20
-119.377
11
145.615
21
-119.52
0
LINE
8
BLACK
6
CONTINUOUS
10
145.615
20
-119.52
11
145.472
21
-119.806
0
LINE
8
BLACK
6
CONTINUOUS
10
145.472
20
-119.806
11
145.472
21
-120.52
0
LINE
8
BLACK
6
CONTINUOUS
10
145.472
20
-120.52
11
145.615
21
-120.806
0
LINE
8
BLACK
6
CONTINUOUS
10
145.615
20
-120.806
11
145.757
21
-120.948
0
LINE
8
BLACK
6
CONTINUOUS
10
145.757
20
-120.948
11
146.043
21
-121.091
0
LINE
8
BLACK
6
CONTINUOUS
10
146.043
20
-121.091
11
146.615
21
-121.091
0
LINE
8
BLACK
6
CONTINUOUS
10
146.615
20
-121.091
11
146.9
21
-120.948
0
LINE
8
BLACK
6
CONTINUOUS
10
146.9
20
-120.948
11
147.043
21
-120.806
0
LINE
8
BLACK
6
CONTINUOUS
10
147.043
20
-120.806
11
147.186
21
-120.52
0
LINE
8
BLACK
6
CONTINUOUS
10
148.329
20
-119.234
11
148.329
21
-119.806
0
LINE
8
BLACK
6
CONTINUOUS
10
149.472
20
-119.234
11
149.472
21
-119.806
0
LINE
8
BLACK
6
CONTINUOUS
10
153.9
20
-123.377
11
153.757
21
-123.234
0
LINE
8
BLACK
6
CONTINUOUS
10
153.757
20
-123.234
11
153.472
21
-122.806
0
LINE
8
BLACK
6
CONTINUOUS
10
153.472
20
-122.806
11
153.329
21
-122.52
0
LINE
8
BLACK
6
CONTINUOUS
10
153.329
20
-122.52
11
153.186
21
-122.091
0
LINE
8
BLACK
6
CONTINUOUS
10
153.186
20
-122.091
11
153.043
21
-121.377
0
LINE
8
BLACK
6
CONTINUOUS
10
153.043
20
-121.377
11
153.043
21
-120.806
0
LINE
8
BLACK
6
CONTINUOUS
10
153.043
20
-120.806
11
153.186
21
-120.091
0
LINE
8
BLACK
6
CONTINUOUS
10
153.186
20
-120.091
11
153.329
21
-119.663
0
LINE
8
BLACK
6
CONTINUOUS
10
153.329
20
-119.663
11
153.472
21
-119.377
0
LINE
8
BLACK
6
CONTINUOUS
10
153.472
20
-119.377
11
153.757
21
-118.948
0
LINE
8
BLACK
6
CONTINUOUS
10
153.757
20
-118.948
11
153.9
21
-118.806
0
LINE
8
BLACK
6
CONTINUOUS
10
156.329
20
-120.234
11
156.329
21
-122.234
0
LINE
8
BLACK
6
CONTINUOUS
10
155.615
20
-119.091
11
154.9
21
-121.234
0
LINE
8
BLACK
6
CONTINUOUS
10
154.9
20
-121.234
11
156.757
21
-121.234
0
LINE
8
BLACK
6
CONTINUOUS
10
160.186
20
-122.234
11
160.186
21
-119.234
0
LINE
8
BLACK
6
CONTINUOUS
10
161.472
20
-122.234
11
161.472
21
-120.663
0
LINE
8
BLACK
6
CONTINUOUS
10
161.472
20
-120.663
11
161.329
21
-120.377
0
LINE
8
BLACK
6
CONTINUOUS
10
161.329
20
-120.377
11
161.043
21
-120.234
0
LINE
8
BLACK
6
CONTINUOUS
10
161.043
20
-120.234
11
160.615
21
-120.234
0
LINE
8
BLACK
6
CONTINUOUS
10
160.615
20
-120.234
11
160.329
21
-120.377
0
LINE
8
BLACK
6
CONTINUOUS
10
160.329
20
-120.377
11
160.186
21
-120.52
0
LINE
8
BLACK
6
CONTINUOUS
10
163.329
20
-122.234
11
163.043
21
-122.091
0
LINE
8
BLACK
6
CONTINUOUS
10
163.043
20
-122.091
11
162.9
21
-121.948
0
LINE
8
BLACK
6
CONTINUOUS
10
162.9
20
-121.948
11
162.757
21
-121.663
0
LINE
8
BLACK
6
CONTINUOUS
10
162.757
20
-121.663
11
162.757
21
-120.806
0
LINE
8
BLACK
6
CONTINUOUS
10
162.757
20
-120.806
11
162.9
21
-120.52
0
LINE
8
BLACK
6
CONTINUOUS
10
162.9
20
-120.52
11
163.043
21
-120.377
0
LINE
8
BLACK
6
CONTINUOUS
10
163.043
20
-120.377
11
163.329
21
-120.234
0
LINE
8
BLACK
6
CONTINUOUS
10
163.329
20
-120.234
11
163.757
21
-120.234
0
LINE
8
BLACK
6
CONTINUOUS
10
163.757
20
-120.234
11
164.043
21
-120.377
0
LINE
8
BLACK
6
CONTINUOUS
10
164.043
20
-120.377
11
164.186
21
-120.52
0
LINE
8
BLACK
6
CONTINUOUS
10
164.186
20
-120.52
11
164.329
21
-120.806
0
LINE
8
BLACK
6
CONTINUOUS
10
164.329
20
-120.806
11
164.329
21
-121.663
0
LINE
8
BLACK
6
CONTINUOUS
10
164.329
20
-121.663
11
164.186
21
-121.948
0
LINE
8
BLACK
6
CONTINUOUS
10
164.186
20
-121.948
11
164.043
21
-122.091
0
LINE
8
BLACK
6
CONTINUOUS
10
164.043
20
-122.091
11
163.757
21
-122.234
0
LINE
8
BLACK
6
CONTINUOUS
10
163.757
20
-122.234
11
163.329
21
-122.234
0
LINE
8
BLACK
6
CONTINUOUS
10
166.043
20
-122.234
11
165.757
21
-122.091
0
LINE
8
BLACK
6
CONTINUOUS
10
165.757
20
-122.091
11
165.615
21
-121.806
0
LINE
8
BLACK
6
CONTINUOUS
10
165.615
20
-121.806
11
165.615
21
-119.234
0
LINE
8
BLACK
6
CONTINUOUS
10
168.329
20
-122.091
11
168.043
21
-122.234
0
LINE
8
BLACK
6
CONTINUOUS
10
168.043
20
-122.234
11
167.472
21
-122.234
0
LINE
8
BLACK
6
CONTINUOUS
10
167.472
20
-122.234
11
167.186
21
-122.091
0
LINE
8
BLACK
6
CONTINUOUS
10
167.186
20
-122.091
11
167.043
21
-121.806
0
LINE
8
BLACK
6
CONTINUOUS
10
167.043
20
-121.806
11
167.043
21
-120.663
0
LINE
8
BLACK
6
CONTINUOUS
10
167.043
20
-120.663
11
167.186
21
-120.377
0
LINE
8
BLACK
6
CONTINUOUS
10
167.186
20
-120.377
11
167.472
21
-120.234
0
LINE
8
BLACK
6
CONTINUOUS
10
167.472
20
-120.234
11
168.043
21
-120.234
0
LINE
8
BLACK
6
CONTINUOUS
10
168.043
20
-120.234
11
168.329
21
-120.377
0
LINE
8
BLACK
6
CONTINUOUS
10
168.329
20
-120.377
11
168.472
21
-120.663
0
LINE
8
BLACK
6
CONTINUOUS
10
168.472
20
-120.663
11
168.472
21
-120.948
0
LINE
8
BLACK
6
CONTINUOUS
10
168.472
20
-120.948
11
167.043
21
-121.234
0
LINE
8
BLACK
6
CONTINUOUS
10
169.615
20
-122.091
11
169.9
21
-122.234
0
LINE
8
BLACK
6
CONTINUOUS
10
169.9
20
-122.234
11
170.472
21
-122.234
0
LINE
8
BLACK
6
CONTINUOUS
10
170.472
20
-122.234
11
170.757
21
-122.091
0
LINE
8
BLACK
6
CONTINUOUS
10
170.757
20
-122.091
11
170.9
21
-121.806
0
LINE
8
BLACK
6
CONTINUOUS
10
170.9
20
-121.806
11
170.9
21
-121.663
0
LINE
8
BLACK
6
CONTINUOUS
10
170.9
20
-121.663
11
170.757
21
-121.377
0
LINE
8
BLACK
6
CONTINUOUS
10
170.757
20
-121.377
11
170.472
21
-121.234
0
LINE
8
BLACK
6
CONTINUOUS
10
170.472
20
-121.234
11
170.043
21
-121.234
0
LINE
8
BLACK
6
CONTINUOUS
10
170.043
20
-121.234
11
169.757
21
-121.091
0
LINE
8
BLACK
6
CONTINUOUS
10
169.757
20
-121.091
11
169.615
21
-120.806
0
LINE
8
BLACK
6
CONTINUOUS
10
169.615
20
-120.806
11
169.615
21
-120.663
0
LINE
8
BLACK
6
CONTINUOUS
10
169.615
20
-120.663
11
169.757
21
-120.377
0
LINE
8
BLACK
6
CONTINUOUS
10
169.757
20
-120.377
11
170.043
21
-120.234
0
LINE
8
BLACK
6
CONTINUOUS
10
170.043
20
-120.234
11
170.472
21
-120.234
0
LINE
8
BLACK
6
CONTINUOUS
10
170.472
20
-120.234
11
170.757
21
-120.377
0
LINE
8
BLACK
6
CONTINUOUS
10
171.9
20
-123.377
11
172.043
21
-123.234
0
LINE
8
BLACK
6
CONTINUOUS
10
172.043
20
-123.234
11
172.329
21
-122.806
0
LINE
8
BLACK
6
CONTINUOUS
10
172.329
20
-122.806
11
172.472
21
-122.52
0
LINE
8
BLACK
6
CONTINUOUS
10
172.472
20
-122.52
11
172.615
21
-122.091
0
LINE
8
BLACK
6
CONTINUOUS
10
172.615
20
-122.091
11
172.757
21
-121.377
0
LINE
8
BLACK
6
CONTINUOUS
10
172.757
20
-121.377
11
172.757
21
-120.806
0
LINE
8
BLACK
6
CONTINUOUS
10
172.757
20
-120.806
11
172.615
21
-120.091
0
LINE
8
BLACK
6
CONTINUOUS
10
172.615
20
-120.091
11
172.472
21
-119.663
0
LINE
8
BLACK
6
CONTINUOUS
10
172.472
20
-119.663
11
172.329
21
-119.377
0
LINE
8
BLACK
6
CONTINUOUS
10
172.329
20
-119.377
11
172.043
21
-118.948
0
LINE
8
BLACK
6
CONTINUOUS
10
172.043
20
-118.948
11
171.9
21
-118.806
0
LINE
8
BLACK
6
CONTINUOUS
10
177.329
20
-123.377
11
177.186
21
-123.234
0
LINE
8
BLACK
6
CONTINUOUS
10
177.186
20
-123.234
11
176.9
21
-122.806
0
LINE
8
BLACK
6
CONTINUOUS
10
176.9
20
-122.806
11
176.757
21
-122.52
0
LINE
8
BLACK
6
CONTINUOUS
10
176.757
20
-122.52
11
176.615
21
-122.091
0
LINE
8
BLACK
6
CONTINUOUS
10
176.615
20
-122.091
11
176.472
21
-121.377
0
LINE
8
BLACK
6
CONTINUOUS
10
176.472
20
-121.377
11
176.472
21
-120.806
0
LINE
8
BLACK
6
CONTINUOUS
10
176.472
20
-120.806
11
176.615
21
-120.091
0
LINE
8
BLACK
6
CONTINUOUS
10
176.615
20
-120.091
11
176.757
21
-119.663
0
LINE
8
BLACK
6
CONTINUOUS
10
176.757
20
-119.663
11
176.9
21
-119.377
0
LINE
8
BLACK
6
CONTINUOUS
10
176.9
20
-119.377
11
177.186
21
-118.948
0
LINE
8
BLACK
6
CONTINUOUS
10
177.186
20
-118.948
11
177.329
21
-118.806
0
LINE
8
BLACK
6
CONTINUOUS
10
178.472
20
-120.234
11
178.472
21
-122.234
0
LINE
8
BLACK
6
CONTINUOUS
10
178.472
20
-120.52
11
178.615
21
-120.377
0
LINE
8
BLACK
6
CONTINUOUS
10
178.615
20
-120.377
11
178.9
21
-120.234
0
LINE
8
BLACK
6
CONTINUOUS
10
178.9
20
-120.234
11
179.329
21
-120.234
0
LINE
8
BLACK
6
CONTINUOUS
10
179.329
20
-120.234
11
179.615
21
-120.377
0
LINE
8
BLACK
6
CONTINUOUS
10
179.615
20
-120.377
11
179.757
21
-120.663
0
LINE
8
BLACK
6
CONTINUOUS
10
179.757
20
-120.663
11
179.757
21
-122.234
0
LINE
8
BLACK
6
CONTINUOUS
10
181.615
20
-122.234
11
181.329
21
-122.091
0
LINE
8
BLACK
6
CONTINUOUS
10
181.329
20
-122.091
11
181.186
21
-121.948
0
LINE
8
BLACK
6
CONTINUOUS
10
181.186
20
-121.948
11
181.043
21
-121.663
0
LINE
8
BLACK
6
CONTINUOUS
10
181.043
20
-121.663
11
181.043
21
-120.806
0
LINE
8
BLACK
6
CONTINUOUS
10
181.043
20
-120.806
11
181.186
21
-120.52
0
LINE
8
BLACK
6
CONTINUOUS
10
181.186
20
-120.52
11
181.329
21
-120.377
0
LINE
8
BLACK
6
CONTINUOUS
10
181.329
20
-120.377
11
181.615
21
-120.234
0
LINE
8
BLACK
6
CONTINUOUS
10
181.615
20
-120.234
11
182.043
21
-120.234
0
LINE
8
BLACK
6
CONTINUOUS
10
182.043
20
-120.234
11
182.329
21
-120.377
0
LINE
8
BLACK
6
CONTINUOUS
10
182.329
20
-120.377
11
182.472
21
-120.52
0
LINE
8
BLACK
6
CONTINUOUS
10
182.472
20
-120.52
11
182.615
21
-120.806
0
LINE
8
BLACK
6
CONTINUOUS
10
182.615
20
-120.806
11
182.615
21
-121.663
0
LINE
8
BLACK
6
CONTINUOUS
10
182.615
20
-121.663
11
182.472
21
-121.948
0
LINE
8
BLACK
6
CONTINUOUS
10
182.472
20
-121.948
11
182.329
21
-122.091
0
LINE
8
BLACK
6
CONTINUOUS
10
182.329
20
-122.091
11
182.043
21
-122.234
0
LINE
8
BLACK
6
CONTINUOUS
10
182.043
20
-122.234
11
181.615
21
-122.234
0
LINE
8
BLACK
6
CONTINUOUS
10
183.472
20
-120.234
11
184.615
21
-120.234
0
LINE
8
BLACK
6
CONTINUOUS
10
183.9
20
-119.234
11
183.9
21
-121.806
0
LINE
8
BLACK
6
CONTINUOUS
10
183.9
20
-121.806
11
184.043
21
-122.091
0
LINE
8
BLACK
6
CONTINUOUS
10
184.043
20
-122.091
11
184.329
21
-122.234
0
LINE
8
BLACK
6
CONTINUOUS
10
184.329
20
-122.234
11
184.615
21
-122.234
0
LINE
8
BLACK
6
CONTINUOUS
10
187.9
20
-120.234
11
187.9
21
-123.234
0
LINE
8
BLACK
6
CONTINUOUS
10
187.9
20
-120.377
11
188.186
21
-120.234
0
LINE
8
BLACK
6
CONTINUOUS
10
188.186
20
-120.234
11
188.757
21
-120.234
0
LINE
8
BLACK
6
CONTINUOUS
10
188.757
20
-120.234
11
189.043
21
-120.377
0
LINE
8
BLACK
6
CONTINUOUS
10
189.043
20
-120.377
11
189.186
21
-120.52
0
LINE
8
BLACK
6
CONTINUOUS
10
189.186
20
-120.52
11
189.329
21
-120.806
0
LINE
8
BLACK
6
CONTINUOUS
10
189.329
20
-120.806
11
189.329
21
-121.663
0
LINE
8
BLACK
6
CONTINUOUS
10
189.329
20
-121.663
11
189.186
21
-121.948
0
LINE
8
BLACK
6
CONTINUOUS
10
189.186
20
-121.948
11
189.043
21
-122.091
0
LINE
8
BLACK
6
CONTINUOUS
10
189.043
20
-122.091
11
188.757
21
-122.234
0
LINE
8
BLACK
6
CONTINUOUS
10
188.757
20
-122.234
11
188.186
21
-122.234
0
LINE
8
BLACK
6
CONTINUOUS
10
188.186
20
-122.234
11
187.9
21
-122.091
0
LINE
8
BLACK
6
CONTINUOUS
10
191.043
20
-122.234
11
190.757
21
-122.091
0
LINE
8
BLACK
6
CONTINUOUS
10
190.757
20
-122.091
11
190.615
21
-121.806
0
LINE
8
BLACK
6
CONTINUOUS
10
190.615
20
-121.806
11
190.615
21
-119.234
0
LINE
8
BLACK
6
CONTINUOUS
10
193.472
20
-122.234
11
193.472
21
-120.663
0
LINE
8
BLACK
6
CONTINUOUS
10
193.472
20
-120.663
11
193.329
21
-120.377
0
LINE
8
BLACK
6
CONTINUOUS
10
193.329
20
-120.377
11
193.043
21
-120.234
0
LINE
8
BLACK
6
CONTINUOUS
10
193.043
20
-120.234
11
192.472
21
-120.234
0
LINE
8
BLACK
6
CONTINUOUS
10
192.472
20
-120.234
11
192.186
21
-120.377
0
LINE
8
BLACK
6
CONTINUOUS
10
193.472
20
-122.091
11
193.186
21
-122.234
0
LINE
8
BLACK
6
CONTINUOUS
10
193.186
20
-122.234
11
192.472
21
-122.234
0
LINE
8
BLACK
6
CONTINUOUS
10
192.472
20
-122.234
11
192.186
21
-122.091
0
LINE
8
BLACK
6
CONTINUOUS
10
192.186
20
-122.091
11
192.043
21
-121.806
0
LINE
8
BLACK
6
CONTINUOUS
10
192.043
20
-121.806
11
192.043
21
-121.52
0
LINE
8
BLACK
6
CONTINUOUS
10
192.043
20
-121.52
11
192.186
21
-121.234
0
LINE
8
BLACK
6
CONTINUOUS
10
192.186
20
-121.234
11
192.472
21
-121.091
0
LINE
8
BLACK
6
CONTINUOUS
10
192.472
20
-121.091
11
193.186
21
-121.091
0
LINE
8
BLACK
6
CONTINUOUS
10
193.186
20
-121.091
11
193.472
21
-120.948
0
LINE
8
BLACK
6
CONTINUOUS
10
194.472
20
-120.234
11
195.615
21
-120.234
0
LINE
8
BLACK
6
CONTINUOUS
10
194.9
20
-119.234
11
194.9
21
-121.806
0
LINE
8
BLACK
6
CONTINUOUS
10
194.9
20
-121.806
11
195.043
21
-122.091
0
LINE
8
BLACK
6
CONTINUOUS
10
195.043
20
-122.091
11
195.329
21
-122.234
0
LINE
8
BLACK
6
CONTINUOUS
10
195.329
20
-122.234
11
195.615
21
-122.234
0
LINE
8
BLACK
6
CONTINUOUS
10
197.757
20
-122.091
11
197.472
21
-122.234
0
LINE
8
BLACK
6
CONTINUOUS
10
197.472
20
-122.234
11
196.9
21
-122.234
0
LINE
8
BLACK
6
CONTINUOUS
10
196.9
20
-122.234
11
196.615
21
-122.091
0
LINE
8
BLACK
6
CONTINUOUS
10
196.615
20
-122.091
11
196.472
21
-121.806
0
LINE
8
BLACK
6
CONTINUOUS
10
196.472
20
-121.806
11
196.472
21
-120.663
0
LINE
8
BLACK
6
CONTINUOUS
10
196.472
20
-120.663
11
196.615
21
-120.377
0
LINE
8
BLACK
6
CONTINUOUS
10
196.615
20
-120.377
11
196.9
21
-120.234
0
LINE
8
BLACK
6
CONTINUOUS
10
196.9
20
-120.234
11
197.472
21
-120.234
0
LINE
8
BLACK
6
CONTINUOUS
10
197.472
20
-120.234
11
197.757
21
-120.377
0
LINE
8
BLACK
6
CONTINUOUS
10
197.757
20
-120.377
11
197.9
21
-120.663
0
LINE
8
BLACK
6
CONTINUOUS
10
197.9
20
-120.663
11
197.9
21
-120.948
0
LINE
8
BLACK
6
CONTINUOUS
10
197.9
20
-120.948
11
196.472
21
-121.234
0
LINE
8
BLACK
6
CONTINUOUS
10
200.472
20
-122.234
11
200.472
21
-119.234
0
LINE
8
BLACK
6
CONTINUOUS
10
200.472
20
-122.091
11
200.186
21
-122.234
0
LINE
8
BLACK
6
CONTINUOUS
10
200.186
20
-122.234
11
199.615
21
-122.234
0
LINE
8
BLACK
6
CONTINUOUS
10
199.615
20
-122.234
11
199.329
21
-122.091
0
LINE
8
BLACK
6
CONTINUOUS
10
199.329
20
-122.091
11
199.186
21
-121.948
0
LINE
8
BLACK
6
CONTINUOUS
10
199.186
20
-121.948
11
199.043
21
-121.663
0
LINE
8
BLACK
6
CONTINUOUS
10
199.043
20
-121.663
11
199.043
21
-120.806
0
LINE
8
BLACK
6
CONTINUOUS
10
199.043
20
-120.806
11
199.186
21
-120.52
0
LINE
8
BLACK
6
CONTINUOUS
10
199.186
20
-120.52
11
199.329
21
-120.377
0
LINE
8
BLACK
6
CONTINUOUS
10
199.329
20
-120.377
11
199.615
21
-120.234
0
LINE
8
BLACK
6
CONTINUOUS
10
199.615
20
-120.234
11
200.186
21
-120.234
0
LINE
8
BLACK
6
CONTINUOUS
10
200.186
20
-120.234
11
200.472
21
-120.377
0
LINE
8
BLACK
6
CONTINUOUS
10
201.615
20
-123.377
11
201.757
21
-123.234
0
LINE
8
BLACK
6
CONTINUOUS
10
201.757
20
-123.234
11
202.043
21
-122.806
0
LINE
8
BLACK
6
CONTINUOUS
10
202.043
20
-122.806
11
202.186
21
-122.52
0
LINE
8
BLACK
6
CONTINUOUS
10
202.186
20
-122.52
11
202.329
21
-122.091
0
LINE
8
BLACK
6
CONTINUOUS
10
202.329
20
-122.091
11
202.472
21
-121.377
0
LINE
8
BLACK
6
CONTINUOUS
10
202.472
20
-121.377
11
202.472
21
-120.806
0
LINE
8
BLACK
6
CONTINUOUS
10
202.472
20
-120.806
11
202.329
21
-120.091
0
LINE
8
BLACK
6
CONTINUOUS
10
202.329
20
-120.091
11
202.186
21
-119.663
0
LINE
8
BLACK
6
CONTINUOUS
10
202.186
20
-119.663
11
202.043
21
-119.377
0
LINE
8
BLACK
6
CONTINUOUS
10
202.043
20
-119.377
11
201.757
21
-118.948
0
LINE
8
BLACK
6
CONTINUOUS
10
201.757
20
-118.948
11
201.615
21
-118.806
  0
ENDSEC
  0
EOF
