G04 DipTrace 2.4.0.2*
%INTopSilk.gbr*%
%MOIN*%
%ADD10C,0.0098*%
%ADD14C,0.0*%
%ADD15C,0.0013*%
%ADD40C,0.0077*%
%ADD41C,0.0154*%
%FSLAX44Y44*%
G04*
G70*
G90*
G75*
G01*
%LNTopSilk*%
%LPD*%
X12884Y25613D2*
D10*
Y24115D1*
X12882Y25616D2*
G03X12882Y24112I-998J-752D01*
G01*
X17116Y21676D2*
Y20178D1*
X17114Y21679D2*
G03X17114Y20175I-998J-752D01*
G01*
X8652Y21676D2*
Y20178D1*
X8650Y21679D2*
G03X8650Y20175I-998J-752D01*
G01*
X12884Y17739D2*
Y16241D1*
X12882Y17742D2*
G03X12882Y16238I-998J-752D01*
G01*
X12884Y13802D2*
Y12304D1*
X12882Y13805D2*
G03X12882Y12301I-998J-752D01*
G01*
X12884Y9865D2*
Y8367D1*
X12882Y9868D2*
G03X12882Y8364I-998J-752D01*
G01*
X9934Y14540D2*
X9334D1*
X9934Y12937D2*
Y14540D1*
Y12937D2*
X9334D1*
Y14540D1*
X10120Y21918D2*
X9520D1*
X10120Y20315D2*
Y21918D1*
Y20315D2*
X9520D1*
Y21918D1*
X11622D2*
X11022D1*
X11622Y20315D2*
Y21918D1*
Y20315D2*
X11022D1*
Y21918D1*
X14685D2*
X14085D1*
X14685Y20315D2*
Y21918D1*
Y20315D2*
X14085D1*
Y21918D1*
X13122D2*
X12522D1*
X13122Y20315D2*
Y21918D1*
Y20315D2*
X12522D1*
Y21918D1*
X9934Y10727D2*
X9334D1*
X9934Y9124D2*
Y10727D1*
Y9124D2*
X9334D1*
Y10727D1*
X7582Y18726D2*
Y18126D1*
X9185Y18726D2*
X7582D1*
X9185D2*
Y18126D1*
X7582D1*
X14429Y16976D2*
Y16376D1*
X16032Y16976D2*
X14429D1*
X16032D2*
Y16376D1*
X14429D1*
X14022Y24063D2*
X14622D1*
X14022Y25666D2*
Y24063D1*
Y25666D2*
X14622D1*
Y24063D1*
X10122Y25666D2*
X9522D1*
X10122Y24063D2*
Y25666D1*
Y24063D2*
X9522D1*
Y25666D1*
X14429Y18476D2*
Y17876D1*
X16032Y18476D2*
X14429D1*
X16032D2*
Y17876D1*
X14429D1*
Y15413D2*
Y14813D1*
X16032Y15413D2*
X14429D1*
X16032D2*
Y14813D1*
X14429D1*
X7582Y17163D2*
Y16563D1*
X9185Y17163D2*
X7582D1*
X9185D2*
Y16563D1*
X7582D1*
X16447Y25864D2*
X15447D1*
X16447Y23864D2*
Y25864D1*
Y23864D2*
X15447D1*
Y25864D1*
X17947Y29801D2*
X16947D1*
X17947Y27801D2*
Y29801D1*
Y27801D2*
X16947D1*
Y29801D1*
X15135D2*
X14135D1*
X15135Y27801D2*
Y29801D1*
Y27801D2*
X14135D1*
Y29801D1*
X12322D2*
X11322D1*
X12322Y27801D2*
Y29801D1*
Y27801D2*
X11322D1*
Y29801D1*
X9384Y29739D2*
X8384D1*
X9384Y27739D2*
Y29739D1*
Y27739D2*
X8384D1*
Y29739D1*
X6571Y29801D2*
X5571D1*
X6571Y27801D2*
Y29801D1*
Y27801D2*
X5571D1*
Y29801D1*
X7946Y25864D2*
X6946D1*
X7946Y23864D2*
Y25864D1*
Y23864D2*
X6946D1*
Y25864D1*
X23948Y24801D2*
X22948D1*
X23948Y20801D2*
Y24801D1*
X22948Y20801D2*
Y24801D1*
X23948Y20801D2*
X22948D1*
X24948Y11488D2*
Y17488D1*
X23948Y11488D2*
Y17488D1*
X24948Y11488D2*
X23948D1*
X24948Y17488D2*
X23948D1*
X26386Y29212D2*
X25386D1*
X26386Y27212D2*
Y29212D1*
Y27212D2*
X25386D1*
Y29212D1*
X32824D2*
X31824D1*
X32824Y27212D2*
Y29212D1*
Y27212D2*
X31824D1*
Y29212D1*
X39450D2*
X38450D1*
X39450Y27212D2*
Y29212D1*
Y27212D2*
X38450D1*
Y29212D1*
X36949Y16551D2*
X35949D1*
X36949Y14551D2*
Y16551D1*
Y14551D2*
X35949D1*
Y16551D1*
X32949Y16676D2*
X31949D1*
X32949Y14676D2*
Y16676D1*
Y14676D2*
X31949D1*
Y16676D1*
X29699D2*
X28699D1*
X29699Y14676D2*
Y16676D1*
Y14676D2*
X28699D1*
Y16676D1*
X27511Y20931D2*
Y21931D1*
X25511Y20931D2*
X27511D1*
X25511D2*
Y21931D1*
X27511D1*
X30949Y20931D2*
Y21931D1*
X28949Y20931D2*
X30949D1*
X28949D2*
Y21931D1*
X30949D1*
X34887Y20931D2*
Y21931D1*
X32887Y20931D2*
X34887D1*
X32887D2*
Y21931D1*
X34887D1*
X38512Y20931D2*
Y21931D1*
X36512Y20931D2*
X38512D1*
X36512D2*
Y21931D1*
X38512D1*
X22948Y7362D2*
Y8362D1*
X20948Y7362D2*
X22948D1*
X20948D2*
Y8362D1*
X22948D1*
X29323Y7427D2*
Y8427D1*
X27323Y7427D2*
X29323D1*
X27323D2*
Y8427D1*
X29323D1*
X34011Y7427D2*
Y8427D1*
X32011Y7427D2*
X34011D1*
X32011D2*
Y8427D1*
X34011D1*
X38762Y7427D2*
Y8427D1*
X36762Y7427D2*
X38762D1*
X36762D2*
Y8427D1*
X38762D1*
X29636Y4362D2*
Y5362D1*
X32636D1*
Y4362D2*
Y5362D1*
X29636Y4362D2*
X32636D1*
X22760Y29212D2*
X21760D1*
X22760Y27212D2*
Y29212D1*
Y27212D2*
X21760D1*
Y29212D1*
X29199D2*
X28199D1*
X29199Y27212D2*
Y29212D1*
Y27212D2*
X28199D1*
Y29212D1*
X35762D2*
X34762D1*
X35762Y27212D2*
Y29212D1*
Y27212D2*
X34762D1*
Y29212D1*
X37001Y12875D2*
Y13475D1*
X35398Y12875D2*
X37001D1*
X35398D2*
Y13475D1*
X37001D1*
X32751Y12750D2*
Y13350D1*
X31148Y12750D2*
X32751D1*
X31148D2*
Y13350D1*
X32751D1*
X28750Y12813D2*
Y13413D1*
X27147Y12813D2*
X28750D1*
X27147D2*
Y13413D1*
X28750D1*
X27062Y23099D2*
Y23699D1*
X25459Y23099D2*
X27062D1*
X25459D2*
Y23699D1*
X27062D1*
X30750Y23099D2*
Y23699D1*
X29147Y23099D2*
X30750D1*
X29147D2*
Y23699D1*
X30750D1*
X34501Y23099D2*
Y23699D1*
X32898Y23099D2*
X34501D1*
X32898D2*
Y23699D1*
X34501D1*
X38314Y23099D2*
Y23699D1*
X36711Y23099D2*
X38314D1*
X36711D2*
Y23699D1*
X38314D1*
X24936Y8728D2*
X24336D1*
X24936Y7125D2*
Y8728D1*
Y7125D2*
X24336D1*
Y8728D1*
X26748D2*
X26148D1*
X26748Y7125D2*
Y8728D1*
Y7125D2*
X26148D1*
Y8728D1*
X31186D2*
X30586D1*
X31186Y7125D2*
Y8728D1*
Y7125D2*
X30586D1*
Y8728D1*
X35812D2*
X35212D1*
X35812Y7125D2*
Y8728D1*
Y7125D2*
X35212D1*
Y8728D1*
X3946Y30802D2*
D14*
X19694D1*
Y27007D1*
X18119D1*
Y22676D1*
X19694D1*
Y10078D1*
X16151Y6928D1*
X7883D1*
X3946Y10078D1*
Y22676D1*
X5914D1*
Y27007D1*
X3946D1*
Y30802D1*
X20448Y26177D2*
D15*
X40075D1*
X27056D2*
Y30552D1*
X33762Y26302D2*
Y30552D1*
X20510Y18613D2*
X40137D1*
X20385Y10613D2*
X40075D1*
X20403Y30761D2*
D14*
X40088D1*
Y3990D1*
X20403D1*
Y30761D1*
X11114Y26846D2*
D40*
Y26344D1*
X11282D1*
X11354Y26368D1*
X11402Y26416D1*
X11425Y26464D1*
X11449Y26535D1*
Y26655D1*
X11425Y26727D1*
X11402Y26774D1*
X11354Y26822D1*
X11282Y26846D1*
X11114D1*
X11628Y26726D2*
Y26750D1*
X11652Y26798D1*
X11675Y26822D1*
X11724Y26846D1*
X11819D1*
X11867Y26822D1*
X11890Y26798D1*
X11915Y26750D1*
Y26702D1*
X11890Y26654D1*
X11843Y26583D1*
X11604Y26344D1*
X11939D1*
X12404Y26679D2*
X12380Y26607D1*
X12332Y26559D1*
X12260Y26535D1*
X12237D1*
X12165Y26559D1*
X12117Y26607D1*
X12093Y26679D1*
Y26702D1*
X12117Y26774D1*
X12165Y26822D1*
X12237Y26846D1*
X12260D1*
X12332Y26822D1*
X12380Y26774D1*
X12404Y26679D1*
Y26559D1*
X12380Y26439D1*
X12332Y26367D1*
X12260Y26344D1*
X12213D1*
X12141Y26367D1*
X12117Y26416D1*
X15335Y22909D2*
Y22407D1*
X15502D1*
X15574Y22431D1*
X15622Y22479D1*
X15646Y22527D1*
X15670Y22598D1*
Y22718D1*
X15646Y22790D1*
X15622Y22837D1*
X15574Y22885D1*
X15502Y22909D1*
X15335D1*
X15872D2*
X16135D1*
X15991Y22717D1*
X16063D1*
X16111Y22694D1*
X16135Y22670D1*
X16159Y22598D1*
Y22550D1*
X16135Y22479D1*
X16087Y22430D1*
X16015Y22407D1*
X15943D1*
X15872Y22430D1*
X15848Y22455D1*
X15824Y22502D1*
X16457Y22909D2*
X16385Y22885D1*
X16337Y22813D1*
X16313Y22694D1*
Y22622D1*
X16337Y22502D1*
X16385Y22430D1*
X16457Y22407D1*
X16505D1*
X16576Y22430D1*
X16624Y22502D1*
X16648Y22622D1*
Y22694D1*
X16624Y22813D1*
X16576Y22885D1*
X16505Y22909D1*
X16457D1*
X16624Y22813D2*
X16337Y22502D1*
X6870Y22909D2*
Y22407D1*
X7038D1*
X7109Y22431D1*
X7158Y22479D1*
X7181Y22527D1*
X7205Y22598D1*
Y22718D1*
X7181Y22790D1*
X7158Y22837D1*
X7109Y22885D1*
X7038Y22909D1*
X6870D1*
X7408D2*
X7670D1*
X7527Y22717D1*
X7599D1*
X7646Y22694D1*
X7670Y22670D1*
X7694Y22598D1*
Y22550D1*
X7670Y22479D1*
X7623Y22430D1*
X7551Y22407D1*
X7479D1*
X7408Y22430D1*
X7384Y22455D1*
X7359Y22502D1*
X7944Y22407D2*
X8184Y22909D1*
X7849D1*
X11103Y18972D2*
Y18470D1*
X11270D1*
X11342Y18494D1*
X11390Y18542D1*
X11414Y18590D1*
X11438Y18661D1*
Y18781D1*
X11414Y18853D1*
X11390Y18900D1*
X11342Y18948D1*
X11270Y18972D1*
X11103D1*
X11640D2*
X11903D1*
X11759Y18780D1*
X11831D1*
X11879Y18757D1*
X11903Y18733D1*
X11927Y18661D1*
Y18613D1*
X11903Y18542D1*
X11855Y18493D1*
X11783Y18470D1*
X11711D1*
X11640Y18493D1*
X11616Y18518D1*
X11592Y18565D1*
X12201Y18972D2*
X12129Y18948D1*
X12105Y18900D1*
Y18852D1*
X12129Y18805D1*
X12177Y18780D1*
X12273Y18757D1*
X12344Y18733D1*
X12392Y18685D1*
X12416Y18637D1*
Y18565D1*
X12392Y18518D1*
X12368Y18493D1*
X12296Y18470D1*
X12201D1*
X12129Y18493D1*
X12105Y18518D1*
X12081Y18565D1*
Y18637D1*
X12105Y18685D1*
X12153Y18733D1*
X12224Y18757D1*
X12320Y18780D1*
X12368Y18805D1*
X12392Y18852D1*
Y18900D1*
X12368Y18948D1*
X12296Y18972D1*
X12201D1*
X11091Y15035D2*
Y14533D1*
X11258D1*
X11330Y14557D1*
X11378Y14605D1*
X11402Y14653D1*
X11425Y14724D1*
Y14844D1*
X11402Y14916D1*
X11378Y14963D1*
X11330Y15011D1*
X11258Y15035D1*
X11091D1*
X11819Y14533D2*
Y15035D1*
X11580Y14700D1*
X11939D1*
X12380Y15035D2*
X12141D1*
X12117Y14820D1*
X12141Y14843D1*
X12213Y14868D1*
X12284D1*
X12356Y14843D1*
X12404Y14796D1*
X12428Y14724D1*
Y14676D1*
X12404Y14605D1*
X12356Y14556D1*
X12284Y14533D1*
X12213D1*
X12141Y14556D1*
X12117Y14581D1*
X12093Y14628D1*
X11103Y11098D2*
Y10596D1*
X11270D1*
X11342Y10620D1*
X11390Y10668D1*
X11414Y10716D1*
X11438Y10787D1*
Y10907D1*
X11414Y10979D1*
X11390Y11026D1*
X11342Y11074D1*
X11270Y11098D1*
X11103D1*
X11831Y10596D2*
Y11098D1*
X11592Y10763D1*
X11951D1*
X12392Y11026D2*
X12368Y11074D1*
X12296Y11098D1*
X12249D1*
X12177Y11074D1*
X12129Y11002D1*
X12105Y10883D1*
Y10763D1*
X12129Y10668D1*
X12177Y10619D1*
X12249Y10596D1*
X12273D1*
X12344Y10619D1*
X12392Y10668D1*
X12416Y10739D1*
Y10763D1*
X12392Y10835D1*
X12344Y10883D1*
X12273Y10906D1*
X12249D1*
X12177Y10883D1*
X12129Y10835D1*
X12105Y10763D1*
X8841Y13069D2*
Y13284D1*
X8817Y13356D1*
X8793Y13381D1*
X8745Y13404D1*
X8697D1*
X8650Y13381D1*
X8626Y13356D1*
X8602Y13284D1*
Y13069D1*
X9104D1*
X8841Y13237D2*
X9104Y13404D1*
Y13798D2*
X8602D1*
X8937Y13559D1*
Y13917D1*
X8602Y14359D2*
Y14120D1*
X8817Y14096D1*
X8794Y14120D1*
X8769Y14192D1*
Y14263D1*
X8794Y14335D1*
X8841Y14383D1*
X8913Y14407D1*
X8960D1*
X9032Y14383D1*
X9080Y14335D1*
X9104Y14263D1*
Y14192D1*
X9080Y14120D1*
X9056Y14096D1*
X9009Y14072D1*
X9027Y20459D2*
Y20674D1*
X9003Y20746D1*
X8979Y20770D1*
X8932Y20794D1*
X8883D1*
X8836Y20770D1*
X8812Y20746D1*
X8788Y20674D1*
Y20459D1*
X9290D1*
X9027Y20627D2*
X9290Y20794D1*
X8788Y20997D2*
Y21259D1*
X8980Y21116D1*
Y21188D1*
X9003Y21235D1*
X9027Y21259D1*
X9099Y21284D1*
X9147D1*
X9218Y21259D1*
X9266Y21212D1*
X9290Y21140D1*
Y21068D1*
X9266Y20997D1*
X9242Y20973D1*
X9195Y20949D1*
X9290Y21534D2*
X8788Y21773D1*
Y21438D1*
X10529Y20471D2*
Y20686D1*
X10505Y20758D1*
X10481Y20782D1*
X10433Y20806D1*
X10385D1*
X10338Y20782D1*
X10313Y20758D1*
X10290Y20686D1*
Y20471D1*
X10792D1*
X10529Y20639D2*
X10792Y20806D1*
X10410Y20985D2*
X10386D1*
X10338Y21009D1*
X10314Y21032D1*
X10290Y21080D1*
Y21176D1*
X10314Y21224D1*
X10338Y21247D1*
X10386Y21272D1*
X10433D1*
X10481Y21247D1*
X10553Y21200D1*
X10792Y20960D1*
Y21295D1*
X10457Y21761D2*
X10529Y21737D1*
X10577Y21689D1*
X10601Y21617D1*
Y21594D1*
X10577Y21522D1*
X10529Y21474D1*
X10457Y21450D1*
X10433D1*
X10361Y21474D1*
X10314Y21522D1*
X10290Y21594D1*
Y21617D1*
X10314Y21689D1*
X10361Y21737D1*
X10457Y21761D1*
X10577D1*
X10696Y21737D1*
X10768Y21689D1*
X10792Y21617D1*
Y21570D1*
X10768Y21498D1*
X10720Y21474D1*
X13592Y20459D2*
Y20674D1*
X13567Y20746D1*
X13544Y20770D1*
X13496Y20794D1*
X13448D1*
X13401Y20770D1*
X13376Y20746D1*
X13352Y20674D1*
Y20459D1*
X13855D1*
X13592Y20627D2*
X13855Y20794D1*
X13353Y20997D2*
Y21259D1*
X13544Y21116D1*
Y21188D1*
X13568Y21235D1*
X13592Y21259D1*
X13664Y21284D1*
X13711D1*
X13783Y21259D1*
X13831Y21212D1*
X13855Y21140D1*
Y21068D1*
X13831Y20997D1*
X13807Y20973D1*
X13759Y20949D1*
X13353Y21582D2*
X13377Y21510D1*
X13449Y21462D1*
X13568Y21438D1*
X13640D1*
X13759Y21462D1*
X13831Y21510D1*
X13855Y21582D1*
Y21629D1*
X13831Y21701D1*
X13759Y21749D1*
X13640Y21773D1*
X13568D1*
X13449Y21749D1*
X13377Y21701D1*
X13353Y21629D1*
Y21582D1*
X13449Y21749D2*
X13759Y21462D1*
X12029Y20460D2*
Y20675D1*
X12005Y20746D1*
X11981Y20771D1*
X11933Y20794D1*
X11885D1*
X11838Y20771D1*
X11814Y20746D1*
X11790Y20675D1*
Y20460D1*
X12292D1*
X12029Y20627D2*
X12292Y20794D1*
X11790Y20997D2*
Y21259D1*
X11982Y21116D1*
Y21188D1*
X12005Y21236D1*
X12029Y21259D1*
X12101Y21284D1*
X12148D1*
X12220Y21259D1*
X12268Y21212D1*
X12292Y21140D1*
Y21068D1*
X12268Y20997D1*
X12244Y20973D1*
X12197Y20949D1*
X11790Y21558D2*
X11814Y21486D1*
X11862Y21462D1*
X11910D1*
X11957Y21486D1*
X11982Y21534D1*
X12005Y21629D1*
X12029Y21701D1*
X12077Y21749D1*
X12125Y21773D1*
X12197D1*
X12244Y21749D1*
X12268Y21725D1*
X12292Y21653D1*
Y21558D1*
X12268Y21486D1*
X12244Y21462D1*
X12197Y21438D1*
X12125D1*
X12077Y21462D1*
X12029Y21510D1*
X12005Y21581D1*
X11982Y21677D1*
X11957Y21725D1*
X11910Y21749D1*
X11862D1*
X11814Y21725D1*
X11790Y21653D1*
Y21558D1*
X8841Y9269D2*
Y9484D1*
X8817Y9555D1*
X8793Y9580D1*
X8746Y9603D1*
X8698D1*
X8650Y9580D1*
X8626Y9555D1*
X8602Y9484D1*
Y9269D1*
X9104D1*
X8841Y9436D2*
X9104Y9603D1*
Y9997D2*
X8603D1*
X8937Y9758D1*
Y10117D1*
X8674Y10558D2*
X8626Y10534D1*
X8603Y10462D1*
Y10415D1*
X8626Y10343D1*
X8698Y10295D1*
X8818Y10271D1*
X8937D1*
X9033Y10295D1*
X9081Y10343D1*
X9104Y10415D1*
Y10438D1*
X9081Y10510D1*
X9033Y10558D1*
X8961Y10582D1*
X8937D1*
X8865Y10558D1*
X8818Y10510D1*
X8794Y10438D1*
Y10415D1*
X8818Y10343D1*
X8865Y10295D1*
X8937Y10271D1*
X7834Y19219D2*
X8049D1*
X8121Y19243D1*
X8146Y19267D1*
X8169Y19314D1*
Y19363D1*
X8146Y19410D1*
X8121Y19434D1*
X8049Y19458D1*
X7834D1*
Y18956D1*
X8002Y19219D2*
X8169Y18956D1*
X8324Y19362D2*
X8372Y19386D1*
X8444Y19458D1*
Y18956D1*
X8694D2*
X8933Y19458D1*
X8598D1*
X14830Y17469D2*
X15045D1*
X15117Y17493D1*
X15142Y17517D1*
X15165Y17564D1*
Y17612D1*
X15142Y17660D1*
X15117Y17684D1*
X15045Y17708D1*
X14830D1*
Y17206D1*
X14998Y17469D2*
X15165Y17206D1*
X15631Y17540D2*
X15607Y17469D1*
X15559Y17421D1*
X15487Y17397D1*
X15464D1*
X15392Y17421D1*
X15344Y17469D1*
X15320Y17540D1*
Y17564D1*
X15344Y17636D1*
X15392Y17684D1*
X15464Y17707D1*
X15487D1*
X15559Y17684D1*
X15607Y17636D1*
X15631Y17540D1*
Y17421D1*
X15607Y17301D1*
X15559Y17229D1*
X15487Y17206D1*
X15440D1*
X15368Y17229D1*
X15344Y17277D1*
X13529Y24207D2*
Y24422D1*
X13505Y24494D1*
X13481Y24518D1*
X13433Y24542D1*
X13385D1*
X13338Y24518D1*
X13313Y24494D1*
X13290Y24422D1*
Y24207D1*
X13792D1*
X13529Y24375D2*
X13792Y24542D1*
X13410Y24721D2*
X13386D1*
X13338Y24745D1*
X13314Y24768D1*
X13290Y24817D1*
Y24912D1*
X13314Y24960D1*
X13338Y24983D1*
X13386Y25008D1*
X13433D1*
X13481Y24983D1*
X13553Y24936D1*
X13792Y24697D1*
Y25032D1*
X13290Y25330D2*
X13314Y25258D1*
X13386Y25210D1*
X13505Y25186D1*
X13577D1*
X13696Y25210D1*
X13768Y25258D1*
X13792Y25330D1*
Y25377D1*
X13768Y25449D1*
X13696Y25497D1*
X13577Y25521D1*
X13505D1*
X13386Y25497D1*
X13314Y25449D1*
X13290Y25377D1*
Y25330D1*
X13386Y25497D2*
X13696Y25210D1*
X9029Y24327D2*
Y24542D1*
X9004Y24614D1*
X8981Y24638D1*
X8933Y24662D1*
X8885D1*
X8837Y24638D1*
X8813Y24614D1*
X8789Y24542D1*
Y24327D1*
X9292D1*
X9029Y24494D2*
X9292Y24662D1*
X8885Y24816D2*
X8861Y24864D1*
X8790Y24936D1*
X9292D1*
X8957Y25402D2*
X9029Y25377D1*
X9077Y25330D1*
X9100Y25258D1*
Y25234D1*
X9077Y25162D1*
X9029Y25115D1*
X8957Y25090D1*
X8933D1*
X8861Y25115D1*
X8814Y25162D1*
X8790Y25234D1*
Y25258D1*
X8814Y25330D1*
X8861Y25377D1*
X8957Y25402D1*
X9077D1*
X9196Y25377D1*
X9268Y25330D1*
X9292Y25258D1*
Y25210D1*
X9268Y25138D1*
X9220Y25115D1*
X14819Y18969D2*
X15034D1*
X15105Y18993D1*
X15130Y19017D1*
X15154Y19065D1*
Y19113D1*
X15130Y19160D1*
X15105Y19185D1*
X15034Y19208D1*
X14819D1*
Y18706D1*
X14986Y18969D2*
X15154Y18706D1*
X15332Y19088D2*
Y19112D1*
X15356Y19160D1*
X15380Y19184D1*
X15428Y19208D1*
X15523D1*
X15571Y19184D1*
X15595Y19160D1*
X15619Y19112D1*
Y19065D1*
X15595Y19016D1*
X15547Y18945D1*
X15308Y18706D1*
X15643D1*
X14681Y15906D2*
X14896D1*
X14968Y15930D1*
X14993Y15954D1*
X15016Y16002D1*
Y16050D1*
X14993Y16097D1*
X14968Y16122D1*
X14896Y16145D1*
X14681D1*
Y15643D1*
X14849Y15906D2*
X15016Y15643D1*
X15171Y16049D2*
X15219Y16073D1*
X15291Y16145D1*
Y15643D1*
X15589Y16145D2*
X15517Y16121D1*
X15469Y16049D1*
X15445Y15930D1*
Y15858D1*
X15469Y15739D1*
X15517Y15667D1*
X15589Y15643D1*
X15636D1*
X15708Y15667D1*
X15756Y15739D1*
X15780Y15858D1*
Y15930D1*
X15756Y16049D1*
X15708Y16121D1*
X15636Y16145D1*
X15589D1*
X15756Y16049D2*
X15469Y15739D1*
X7835Y17656D2*
X8050D1*
X8122Y17680D1*
X8146Y17704D1*
X8170Y17752D1*
Y17800D1*
X8146Y17847D1*
X8122Y17872D1*
X8050Y17895D1*
X7835D1*
Y17393D1*
X8002Y17656D2*
X8170Y17393D1*
X8324Y17799D2*
X8372Y17824D1*
X8444Y17895D1*
Y17393D1*
X8718Y17895D2*
X8646Y17871D1*
X8622Y17824D1*
Y17776D1*
X8646Y17728D1*
X8694Y17704D1*
X8790Y17680D1*
X8861Y17656D1*
X8909Y17608D1*
X8933Y17561D1*
Y17489D1*
X8909Y17441D1*
X8885Y17417D1*
X8813Y17393D1*
X8718D1*
X8646Y17417D1*
X8622Y17441D1*
X8598Y17489D1*
Y17561D1*
X8622Y17608D1*
X8670Y17656D1*
X8742Y17680D1*
X8837Y17704D1*
X8885Y17728D1*
X8909Y17776D1*
Y17824D1*
X8885Y17871D1*
X8813Y17895D1*
X8718D1*
X15822Y26596D2*
Y26214D1*
X15798Y26142D1*
X15774Y26118D1*
X15727Y26094D1*
X15678D1*
X15631Y26118D1*
X15607Y26142D1*
X15583Y26214D1*
Y26261D1*
X16001Y26476D2*
Y26500D1*
X16025Y26548D1*
X16048Y26572D1*
X16096Y26596D1*
X16192D1*
X16240Y26572D1*
X16263Y26548D1*
X16288Y26500D1*
Y26453D1*
X16263Y26405D1*
X16216Y26333D1*
X15977Y26094D1*
X16311D1*
X17334Y30533D2*
Y30151D1*
X17310Y30079D1*
X17286Y30055D1*
X17239Y30031D1*
X17191D1*
X17143Y30055D1*
X17119Y30079D1*
X17095Y30151D1*
Y30198D1*
X17800Y30366D2*
X17775Y30294D1*
X17728Y30246D1*
X17656Y30222D1*
X17632D1*
X17560Y30246D1*
X17513Y30294D1*
X17489Y30366D1*
Y30390D1*
X17513Y30461D1*
X17560Y30509D1*
X17632Y30533D1*
X17656D1*
X17728Y30509D1*
X17775Y30461D1*
X17800Y30366D1*
Y30246D1*
X17775Y30127D1*
X17728Y30055D1*
X17656Y30031D1*
X17609D1*
X17537Y30055D1*
X17513Y30103D1*
X13402Y28539D2*
X13785D1*
X13857Y28515D1*
X13880Y28491D1*
X13905Y28443D1*
Y28395D1*
X13880Y28348D1*
X13857Y28324D1*
X13785Y28300D1*
X13737D1*
X13498Y28693D2*
X13474Y28741D1*
X13403Y28813D1*
X13905D1*
X13403Y29111D2*
X13427Y29040D1*
X13498Y28991D1*
X13618Y28968D1*
X13690D1*
X13809Y28991D1*
X13881Y29040D1*
X13905Y29111D1*
Y29159D1*
X13881Y29231D1*
X13809Y29278D1*
X13690Y29303D1*
X13618D1*
X13498Y29278D1*
X13427Y29231D1*
X13403Y29159D1*
Y29111D1*
X13498Y29278D2*
X13809Y28991D1*
X10590Y28539D2*
X10972D1*
X11044Y28515D1*
X11068Y28491D1*
X11092Y28443D1*
Y28395D1*
X11068Y28348D1*
X11044Y28324D1*
X10972Y28300D1*
X10924D1*
X10686Y28693D2*
X10661Y28741D1*
X10590Y28813D1*
X11092D1*
Y29063D2*
X10590Y29303D1*
Y28968D1*
X7652Y28478D2*
X8034D1*
X8106Y28454D1*
X8130Y28429D1*
X8154Y28382D1*
Y28334D1*
X8130Y28286D1*
X8106Y28263D1*
X8034Y28238D1*
X7987D1*
X7748Y28632D2*
X7724Y28680D1*
X7652Y28752D1*
X8154D1*
X7652Y29026D2*
X7676Y28954D1*
X7724Y28930D1*
X7772D1*
X7819Y28954D1*
X7844Y29002D1*
X7867Y29098D1*
X7891Y29169D1*
X7939Y29217D1*
X7987Y29241D1*
X8059D1*
X8106Y29217D1*
X8130Y29193D1*
X8154Y29121D1*
Y29026D1*
X8130Y28954D1*
X8106Y28930D1*
X8059Y28906D1*
X7987D1*
X7939Y28930D1*
X7891Y28978D1*
X7867Y29049D1*
X7844Y29145D1*
X7819Y29193D1*
X7772Y29217D1*
X7724D1*
X7676Y29193D1*
X7652Y29121D1*
Y29026D1*
X4839Y28551D2*
X5221D1*
X5293Y28527D1*
X5317Y28503D1*
X5341Y28455D1*
Y28407D1*
X5317Y28360D1*
X5293Y28336D1*
X5221Y28312D1*
X5174D1*
X4935Y28705D2*
X4911Y28753D1*
X4839Y28825D1*
X5341D1*
X5006Y29291D2*
X5078Y29266D1*
X5126Y29219D1*
X5150Y29147D1*
Y29123D1*
X5126Y29051D1*
X5078Y29004D1*
X5006Y28980D1*
X4983D1*
X4911Y29004D1*
X4863Y29051D1*
X4839Y29123D1*
Y29147D1*
X4863Y29219D1*
X4911Y29266D1*
X5006Y29291D1*
X5126D1*
X5246Y29266D1*
X5318Y29219D1*
X5341Y29147D1*
Y29099D1*
X5318Y29028D1*
X5269Y29004D1*
X6214Y24494D2*
X6597D1*
X6668Y24471D1*
X6692Y24446D1*
X6716Y24399D1*
Y24351D1*
X6692Y24303D1*
X6668Y24279D1*
X6597Y24255D1*
X6549D1*
X6334Y24673D2*
X6310D1*
X6262Y24697D1*
X6238Y24721D1*
X6215Y24769D1*
Y24864D1*
X6238Y24912D1*
X6262Y24936D1*
X6310Y24960D1*
X6358D1*
X6406Y24936D1*
X6477Y24888D1*
X6716Y24649D1*
Y24984D1*
X6215Y25282D2*
X6238Y25210D1*
X6310Y25162D1*
X6430Y25138D1*
X6501D1*
X6621Y25162D1*
X6693Y25210D1*
X6716Y25282D1*
Y25329D1*
X6693Y25401D1*
X6621Y25449D1*
X6501Y25473D1*
X6430D1*
X6310Y25449D1*
X6238Y25401D1*
X6215Y25329D1*
Y25282D1*
X6310Y25449D2*
X6621Y25162D1*
X22718Y21154D2*
X22216Y20962D1*
X22718Y20771D1*
X22551Y20843D2*
Y21082D1*
X22718Y21691D2*
X22216Y21500D1*
X22718Y21308D1*
X22551Y21380D2*
Y21620D1*
X22467Y21846D2*
Y22122D1*
X22718Y22660D2*
X22216Y22468D1*
X22718Y22277D1*
X22551Y22348D2*
Y22588D1*
X22335Y23173D2*
X22288Y23149D1*
X22240Y23101D1*
X22216Y23053D1*
Y22958D1*
X22240Y22910D1*
X22288Y22862D1*
X22335Y22838D1*
X22407Y22814D1*
X22527D1*
X22598Y22838D1*
X22646Y22862D1*
X22694Y22910D1*
X22718Y22958D1*
Y23053D1*
X22694Y23101D1*
X22646Y23149D1*
X22598Y23173D1*
X22527D1*
Y23053D1*
X22467Y23327D2*
Y23603D1*
X22216Y24068D2*
Y23758D1*
X22718D1*
Y24068D1*
X22455Y23758D2*
Y23949D1*
X22383Y24223D2*
X22718Y24486D1*
X22383D2*
X22718Y24223D1*
X22216Y24712D2*
X22623D1*
X22694Y24736D1*
X22718Y24784D1*
Y24831D1*
X22383Y24640D2*
Y24808D1*
X23718Y14142D2*
X23216Y13950D1*
X23718Y13759D1*
X23551Y13831D2*
Y14070D1*
X23216Y14440D2*
X23240Y14392D1*
X23288Y14345D1*
X23335Y14320D1*
X23407Y14297D1*
X23527D1*
X23598Y14320D1*
X23646Y14345D1*
X23694Y14392D1*
X23718Y14440D1*
Y14536D1*
X23694Y14583D1*
X23646Y14631D1*
X23598Y14655D1*
X23527Y14679D1*
X23407D1*
X23335Y14655D1*
X23288Y14631D1*
X23240Y14583D1*
X23216Y14536D1*
Y14440D1*
X23718Y15216D2*
X23216Y15025D1*
X23718Y14833D1*
X23551Y14905D2*
Y15145D1*
X25868Y29944D2*
Y29561D1*
X25844Y29489D1*
X25820Y29466D1*
X25773Y29441D1*
X25725D1*
X25677Y29466D1*
X25653Y29489D1*
X25629Y29561D1*
Y29609D1*
X26023Y29848D2*
X26071Y29872D1*
X26143Y29943D1*
Y29441D1*
X32199Y29944D2*
Y29561D1*
X32175Y29489D1*
X32151Y29466D1*
X32103Y29441D1*
X32055D1*
X32008Y29466D1*
X31984Y29489D1*
X31960Y29561D1*
Y29609D1*
X32401Y29943D2*
X32664D1*
X32521Y29752D1*
X32593D1*
X32640Y29728D1*
X32664Y29704D1*
X32688Y29633D1*
Y29585D1*
X32664Y29513D1*
X32616Y29465D1*
X32545Y29441D1*
X32473D1*
X32401Y29465D1*
X32378Y29489D1*
X32353Y29537D1*
X38813Y29944D2*
Y29561D1*
X38789Y29489D1*
X38765Y29466D1*
X38717Y29441D1*
X38669D1*
X38622Y29466D1*
X38598Y29489D1*
X38573Y29561D1*
Y29609D1*
X39206Y29441D2*
Y29943D1*
X38967Y29609D1*
X39326D1*
X36324Y17283D2*
Y16900D1*
X36301Y16828D1*
X36276Y16805D1*
X36229Y16780D1*
X36181D1*
X36133Y16805D1*
X36109Y16828D1*
X36085Y16900D1*
Y16948D1*
X36766Y17282D2*
X36527D1*
X36503Y17067D1*
X36527Y17091D1*
X36599Y17115D1*
X36670D1*
X36742Y17091D1*
X36790Y17043D1*
X36814Y16972D1*
Y16924D1*
X36790Y16852D1*
X36742Y16804D1*
X36670Y16780D1*
X36599D1*
X36527Y16804D1*
X36503Y16828D1*
X36479Y16876D1*
X31217Y15413D2*
X31599D1*
X31671Y15390D1*
X31695Y15365D1*
X31719Y15318D1*
Y15270D1*
X31695Y15222D1*
X31671Y15198D1*
X31599Y15174D1*
X31552D1*
X31313Y15568D2*
X31289Y15616D1*
X31217Y15688D1*
X31719D1*
X31337Y15866D2*
X31313D1*
X31265Y15890D1*
X31241Y15914D1*
X31217Y15962D1*
Y16058D1*
X31241Y16105D1*
X31265Y16129D1*
X31313Y16153D1*
X31360D1*
X31409Y16129D1*
X31480Y16081D1*
X31719Y15842D1*
Y16177D1*
X29086Y17408D2*
Y17025D1*
X29062Y16953D1*
X29038Y16930D1*
X28990Y16905D1*
X28942D1*
X28895Y16930D1*
X28871Y16953D1*
X28846Y17025D1*
Y17073D1*
X29527Y17336D2*
X29503Y17383D1*
X29431Y17407D1*
X29384D1*
X29312Y17383D1*
X29264Y17312D1*
X29240Y17192D1*
Y17073D1*
X29264Y16977D1*
X29312Y16929D1*
X29384Y16905D1*
X29408D1*
X29479Y16929D1*
X29527Y16977D1*
X29551Y17049D1*
Y17073D1*
X29527Y17145D1*
X29479Y17192D1*
X29408Y17216D1*
X29384D1*
X29312Y17192D1*
X29264Y17145D1*
X29240Y17073D1*
X26141Y22663D2*
Y22281D1*
X26117Y22209D1*
X26093Y22185D1*
X26045Y22161D1*
X25997D1*
X25950Y22185D1*
X25926Y22209D1*
X25902Y22281D1*
Y22328D1*
X26582Y22663D2*
X26344D1*
X26320Y22448D1*
X26344Y22471D1*
X26415Y22496D1*
X26487D1*
X26559Y22471D1*
X26607Y22424D1*
X26630Y22352D1*
Y22304D1*
X26607Y22233D1*
X26559Y22185D1*
X26487Y22161D1*
X26415D1*
X26344Y22185D1*
X26320Y22209D1*
X26295Y22256D1*
X26833Y22663D2*
X27095D1*
X26952Y22471D1*
X27024D1*
X27072Y22448D1*
X27095Y22424D1*
X27120Y22352D1*
Y22304D1*
X27095Y22233D1*
X27048Y22185D1*
X26976Y22161D1*
X26904D1*
X26833Y22185D1*
X26809Y22209D1*
X26785Y22256D1*
X29567Y22663D2*
Y22281D1*
X29543Y22209D1*
X29519Y22185D1*
X29471Y22161D1*
X29423D1*
X29376Y22185D1*
X29352Y22209D1*
X29328Y22281D1*
Y22328D1*
X30008Y22663D2*
X29770D1*
X29746Y22448D1*
X29770Y22471D1*
X29841Y22496D1*
X29913D1*
X29985Y22471D1*
X30033Y22424D1*
X30056Y22352D1*
Y22304D1*
X30033Y22233D1*
X29985Y22185D1*
X29913Y22161D1*
X29841D1*
X29770Y22185D1*
X29746Y22209D1*
X29721Y22256D1*
X30450Y22161D2*
Y22663D1*
X30211Y22328D1*
X30570D1*
X33637Y22663D2*
Y22281D1*
X33613Y22209D1*
X33588Y22185D1*
X33541Y22161D1*
X33493D1*
X33445Y22185D1*
X33422Y22209D1*
X33397Y22281D1*
Y22328D1*
X34078Y22591D2*
X34054Y22639D1*
X33982Y22663D1*
X33935D1*
X33863Y22639D1*
X33815Y22567D1*
X33791Y22448D1*
Y22328D1*
X33815Y22233D1*
X33863Y22185D1*
X33935Y22161D1*
X33958D1*
X34030Y22185D1*
X34078Y22233D1*
X34102Y22304D1*
Y22328D1*
X34078Y22400D1*
X34030Y22448D1*
X33958Y22471D1*
X33935D1*
X33863Y22448D1*
X33815Y22400D1*
X33791Y22328D1*
X34256Y22567D2*
X34304Y22591D1*
X34376Y22663D1*
Y22161D1*
X37154Y22663D2*
Y22281D1*
X37131Y22209D1*
X37106Y22185D1*
X37059Y22161D1*
X37011D1*
X36963Y22185D1*
X36939Y22209D1*
X36915Y22281D1*
Y22328D1*
X37596Y22591D2*
X37572Y22639D1*
X37500Y22663D1*
X37453D1*
X37381Y22639D1*
X37333Y22567D1*
X37309Y22448D1*
Y22328D1*
X37333Y22233D1*
X37381Y22185D1*
X37453Y22161D1*
X37476D1*
X37548Y22185D1*
X37596Y22233D1*
X37619Y22304D1*
Y22328D1*
X37596Y22400D1*
X37548Y22448D1*
X37476Y22471D1*
X37453D1*
X37381Y22448D1*
X37333Y22400D1*
X37309Y22328D1*
X37798Y22543D2*
Y22567D1*
X37822Y22615D1*
X37846Y22639D1*
X37894Y22663D1*
X37989D1*
X38037Y22639D1*
X38061Y22615D1*
X38085Y22567D1*
Y22519D1*
X38061Y22471D1*
X38013Y22400D1*
X37774Y22161D1*
X38109D1*
X21417Y9095D2*
Y8712D1*
X21393Y8640D1*
X21369Y8616D1*
X21321Y8592D1*
X21273D1*
X21226Y8616D1*
X21202Y8640D1*
X21178Y8712D1*
Y8760D1*
X21619Y9094D2*
X21882D1*
X21739Y8903D1*
X21811D1*
X21858Y8879D1*
X21882Y8855D1*
X21906Y8783D1*
Y8736D1*
X21882Y8664D1*
X21834Y8616D1*
X21763Y8592D1*
X21691D1*
X21619Y8616D1*
X21596Y8640D1*
X21571Y8688D1*
X22061Y8998D2*
X22109Y9023D1*
X22181Y9094D1*
Y8592D1*
X22718D2*
X22526Y9095D1*
X22335Y8592D1*
X22407Y8760D2*
X22646D1*
X27817Y9159D2*
Y8776D1*
X27793Y8705D1*
X27769Y8681D1*
X27721Y8656D1*
X27673D1*
X27625Y8681D1*
X27602Y8705D1*
X27577Y8776D1*
Y8824D1*
X28019Y9158D2*
X28282D1*
X28138Y8967D1*
X28210D1*
X28258Y8943D1*
X28282Y8920D1*
X28306Y8848D1*
Y8800D1*
X28282Y8728D1*
X28234Y8680D1*
X28162Y8656D1*
X28090D1*
X28019Y8680D1*
X27995Y8705D1*
X27971Y8752D1*
X28460Y9063D2*
X28508Y9087D1*
X28580Y9158D1*
Y8656D1*
X28735Y9159D2*
Y8656D1*
X28950D1*
X29022Y8681D1*
X29046Y8705D1*
X29070Y8752D1*
Y8824D1*
X29046Y8872D1*
X29022Y8896D1*
X28950Y8920D1*
X29022Y8944D1*
X29046Y8968D1*
X29070Y9015D1*
Y9063D1*
X29046Y9111D1*
X29022Y9135D1*
X28950Y9159D1*
X28735D1*
Y8920D2*
X28950D1*
X32385Y9159D2*
Y8776D1*
X32361Y8705D1*
X32337Y8681D1*
X32289Y8656D1*
X32241D1*
X32194Y8681D1*
X32170Y8705D1*
X32146Y8776D1*
Y8824D1*
X32587Y9158D2*
X32850D1*
X32707Y8967D1*
X32779D1*
X32826Y8943D1*
X32850Y8920D1*
X32874Y8848D1*
Y8800D1*
X32850Y8728D1*
X32802Y8680D1*
X32731Y8656D1*
X32659D1*
X32587Y8680D1*
X32564Y8705D1*
X32539Y8752D1*
X33340Y8991D2*
X33316Y8920D1*
X33268Y8871D1*
X33196Y8848D1*
X33172D1*
X33101Y8871D1*
X33053Y8920D1*
X33029Y8991D1*
Y9015D1*
X33053Y9087D1*
X33101Y9135D1*
X33172Y9158D1*
X33196D1*
X33268Y9135D1*
X33316Y9087D1*
X33340Y8991D1*
Y8871D1*
X33316Y8752D1*
X33268Y8680D1*
X33196Y8656D1*
X33149D1*
X33077Y8680D1*
X33053Y8728D1*
X33877Y8656D2*
X33685Y9159D1*
X33494Y8656D1*
X33566Y8824D2*
X33805D1*
X37160Y9159D2*
Y8776D1*
X37136Y8705D1*
X37111Y8681D1*
X37064Y8656D1*
X37016D1*
X36968Y8681D1*
X36945Y8705D1*
X36920Y8776D1*
Y8824D1*
X37362Y9158D2*
X37625D1*
X37481Y8967D1*
X37553D1*
X37601Y8943D1*
X37625Y8920D1*
X37649Y8848D1*
Y8800D1*
X37625Y8728D1*
X37577Y8680D1*
X37505Y8656D1*
X37433D1*
X37362Y8680D1*
X37338Y8705D1*
X37314Y8752D1*
X38114Y8991D2*
X38090Y8920D1*
X38043Y8871D1*
X37971Y8848D1*
X37947D1*
X37875Y8871D1*
X37828Y8920D1*
X37803Y8991D1*
Y9015D1*
X37828Y9087D1*
X37875Y9135D1*
X37947Y9158D1*
X37971D1*
X38043Y9135D1*
X38090Y9087D1*
X38114Y8991D1*
Y8871D1*
X38090Y8752D1*
X38043Y8680D1*
X37971Y8656D1*
X37923D1*
X37851Y8680D1*
X37828Y8728D1*
X38269Y9159D2*
Y8656D1*
X38484D1*
X38556Y8681D1*
X38580Y8705D1*
X38604Y8752D1*
Y8824D1*
X38580Y8872D1*
X38556Y8896D1*
X38484Y8920D1*
X38556Y8944D1*
X38580Y8968D1*
X38604Y9015D1*
Y9063D1*
X38580Y9111D1*
X38556Y9135D1*
X38484Y9159D1*
X38269D1*
Y8920D2*
X38484D1*
X29239Y6094D2*
Y5592D1*
X29526D1*
X29799Y5927D2*
X29752Y5903D1*
X29704Y5855D1*
X29680Y5783D1*
Y5735D1*
X29704Y5664D1*
X29752Y5616D1*
X29799Y5592D1*
X29871D1*
X29919Y5616D1*
X29967Y5664D1*
X29991Y5735D1*
Y5783D1*
X29967Y5855D1*
X29919Y5903D1*
X29871Y5927D1*
X29799D1*
X30433Y5855D2*
X30385Y5903D1*
X30337Y5927D1*
X30265D1*
X30217Y5903D1*
X30170Y5855D1*
X30146Y5783D1*
Y5735D1*
X30170Y5664D1*
X30217Y5616D1*
X30265Y5592D1*
X30337D1*
X30385Y5616D1*
X30433Y5664D1*
X30587Y6094D2*
Y5592D1*
X30827Y5927D2*
X30587Y5687D1*
X30683Y5783D2*
X30850Y5592D1*
X31340Y6022D2*
X31292Y6070D1*
X31220Y6094D1*
X31125D1*
X31053Y6070D1*
X31005Y6022D1*
Y5975D1*
X31029Y5927D1*
X31053Y5903D1*
X31100Y5879D1*
X31244Y5831D1*
X31292Y5807D1*
X31316Y5783D1*
X31340Y5735D1*
Y5664D1*
X31292Y5616D1*
X31220Y5592D1*
X31125D1*
X31053Y5616D1*
X31005Y5664D1*
X31494Y6094D2*
Y5592D1*
Y5831D2*
X31566Y5903D1*
X31614Y5927D1*
X31686D1*
X31733Y5903D1*
X31757Y5831D1*
Y5592D1*
X32031Y5927D2*
X31983Y5903D1*
X31935Y5855D1*
X31912Y5783D1*
Y5735D1*
X31935Y5664D1*
X31983Y5616D1*
X32031Y5592D1*
X32103D1*
X32151Y5616D1*
X32198Y5664D1*
X32223Y5735D1*
Y5783D1*
X32198Y5855D1*
X32151Y5903D1*
X32103Y5927D1*
X32031D1*
X32497D2*
X32449Y5903D1*
X32401Y5855D1*
X32377Y5783D1*
Y5735D1*
X32401Y5664D1*
X32449Y5616D1*
X32497Y5592D1*
X32568D1*
X32616Y5616D1*
X32664Y5664D1*
X32688Y5735D1*
Y5783D1*
X32664Y5855D1*
X32616Y5903D1*
X32568Y5927D1*
X32497D1*
X32915Y6094D2*
Y5687D1*
X32938Y5616D1*
X32986Y5592D1*
X33034D1*
X32843Y5927D2*
X33010D1*
X21267Y27907D2*
Y28122D1*
X21243Y28194D1*
X21219Y28218D1*
X21172Y28242D1*
X21124D1*
X21076Y28218D1*
X21052Y28194D1*
X21028Y28122D1*
Y27907D1*
X21531D1*
X21267Y28074D2*
X21531Y28242D1*
X21124Y28396D2*
X21100Y28444D1*
X21029Y28516D1*
X21531D1*
X27706Y27799D2*
Y28014D1*
X27681Y28086D1*
X27658Y28111D1*
X27610Y28134D1*
X27562D1*
X27514Y28111D1*
X27490Y28086D1*
X27466Y28014D1*
Y27799D1*
X27969D1*
X27706Y27967D2*
X27969Y28134D1*
X27467Y28337D2*
Y28599D1*
X27658Y28456D1*
Y28528D1*
X27682Y28576D1*
X27706Y28599D1*
X27777Y28624D1*
X27825D1*
X27897Y28599D1*
X27945Y28552D1*
X27969Y28480D1*
Y28408D1*
X27945Y28337D1*
X27921Y28313D1*
X27873Y28289D1*
X34269Y27788D2*
Y28003D1*
X34245Y28074D1*
X34221Y28099D1*
X34173Y28122D1*
X34125D1*
X34078Y28099D1*
X34053Y28074D1*
X34030Y28003D1*
Y27788D1*
X34532D1*
X34269Y27955D2*
X34532Y28122D1*
Y28516D2*
X34030D1*
X34364Y28277D1*
Y28636D1*
X35787Y13968D2*
X36002D1*
X36074Y13993D1*
X36099Y14016D1*
X36122Y14064D1*
Y14112D1*
X36099Y14160D1*
X36074Y14184D1*
X36002Y14208D1*
X35787D1*
Y13705D1*
X35955Y13968D2*
X36122Y13705D1*
X36564Y14207D2*
X36325D1*
X36301Y13992D1*
X36325Y14016D1*
X36397Y14040D1*
X36468D1*
X36540Y14016D1*
X36588Y13968D1*
X36612Y13896D1*
Y13849D1*
X36588Y13777D1*
X36540Y13729D1*
X36468Y13705D1*
X36397D1*
X36325Y13729D1*
X36301Y13753D1*
X36277Y13801D1*
X31400Y13843D2*
X31615D1*
X31687Y13868D1*
X31711Y13891D1*
X31735Y13939D1*
Y13987D1*
X31711Y14035D1*
X31687Y14059D1*
X31615Y14083D1*
X31400D1*
Y13580D1*
X31567Y13843D2*
X31735Y13580D1*
X31889Y13986D2*
X31937Y14011D1*
X32009Y14082D1*
Y13580D1*
X32188Y13963D2*
Y13986D1*
X32211Y14035D1*
X32235Y14058D1*
X32283Y14082D1*
X32379D1*
X32426Y14058D1*
X32450Y14035D1*
X32475Y13986D1*
Y13939D1*
X32450Y13891D1*
X32403Y13820D1*
X32163Y13580D1*
X32498D1*
X27549Y13906D2*
X27764D1*
X27836Y13930D1*
X27860Y13954D1*
X27884Y14001D1*
Y14049D1*
X27860Y14097D1*
X27836Y14121D1*
X27764Y14145D1*
X27549D1*
Y13643D1*
X27716Y13906D2*
X27884Y13643D1*
X28325Y14073D2*
X28301Y14121D1*
X28229Y14145D1*
X28182D1*
X28110Y14121D1*
X28062Y14049D1*
X28038Y13930D1*
Y13810D1*
X28062Y13715D1*
X28110Y13666D1*
X28182Y13643D1*
X28205D1*
X28277Y13666D1*
X28325Y13715D1*
X28349Y13786D1*
Y13810D1*
X28325Y13882D1*
X28277Y13930D1*
X28205Y13953D1*
X28182D1*
X28110Y13930D1*
X28062Y13882D1*
X28038Y13810D1*
X25604Y24192D2*
X25819D1*
X25891Y24217D1*
X25915Y24240D1*
X25939Y24288D1*
Y24336D1*
X25915Y24384D1*
X25891Y24408D1*
X25819Y24432D1*
X25604D1*
Y23929D1*
X25772Y24192D2*
X25939Y23929D1*
X26380Y24431D2*
X26142D1*
X26118Y24216D1*
X26142Y24240D1*
X26213Y24264D1*
X26285D1*
X26357Y24240D1*
X26405Y24192D1*
X26428Y24121D1*
Y24073D1*
X26405Y24001D1*
X26357Y23953D1*
X26285Y23929D1*
X26213D1*
X26142Y23953D1*
X26118Y23977D1*
X26093Y24025D1*
X26631Y24431D2*
X26893D1*
X26750Y24240D1*
X26822D1*
X26870Y24216D1*
X26893Y24192D1*
X26918Y24121D1*
Y24073D1*
X26893Y24001D1*
X26846Y23953D1*
X26774Y23929D1*
X26702D1*
X26631Y23953D1*
X26607Y23977D1*
X26583Y24025D1*
X29280Y24192D2*
X29495D1*
X29567Y24217D1*
X29591Y24240D1*
X29615Y24288D1*
Y24336D1*
X29591Y24384D1*
X29567Y24408D1*
X29495Y24432D1*
X29280D1*
Y23929D1*
X29448Y24192D2*
X29615Y23929D1*
X30056Y24431D2*
X29818D1*
X29794Y24216D1*
X29818Y24240D1*
X29889Y24264D1*
X29961D1*
X30033Y24240D1*
X30081Y24192D1*
X30104Y24121D1*
Y24073D1*
X30081Y24001D1*
X30033Y23953D1*
X29961Y23929D1*
X29889D1*
X29818Y23953D1*
X29794Y23977D1*
X29769Y24025D1*
X30498Y23929D2*
Y24431D1*
X30259Y24097D1*
X30618D1*
X33162Y24192D2*
X33377D1*
X33449Y24217D1*
X33473Y24240D1*
X33497Y24288D1*
Y24336D1*
X33473Y24384D1*
X33449Y24408D1*
X33377Y24432D1*
X33162D1*
Y23929D1*
X33330Y24192D2*
X33497Y23929D1*
X33938Y24360D2*
X33915Y24407D1*
X33843Y24431D1*
X33795D1*
X33723Y24407D1*
X33675Y24336D1*
X33651Y24216D1*
Y24097D1*
X33675Y24001D1*
X33723Y23953D1*
X33795Y23929D1*
X33819D1*
X33890Y23953D1*
X33938Y24001D1*
X33962Y24073D1*
Y24097D1*
X33938Y24169D1*
X33890Y24216D1*
X33819Y24240D1*
X33795D1*
X33723Y24216D1*
X33675Y24169D1*
X33651Y24097D1*
X34116Y24336D2*
X34165Y24360D1*
X34236Y24431D1*
Y23929D1*
X36868Y24192D2*
X37083D1*
X37154Y24217D1*
X37179Y24240D1*
X37202Y24288D1*
Y24336D1*
X37179Y24384D1*
X37154Y24408D1*
X37083Y24432D1*
X36868D1*
Y23929D1*
X37035Y24192D2*
X37202Y23929D1*
X37644Y24360D2*
X37620Y24407D1*
X37548Y24431D1*
X37501D1*
X37429Y24407D1*
X37381Y24336D1*
X37357Y24216D1*
Y24097D1*
X37381Y24001D1*
X37429Y23953D1*
X37501Y23929D1*
X37524D1*
X37596Y23953D1*
X37644Y24001D1*
X37667Y24073D1*
Y24097D1*
X37644Y24169D1*
X37596Y24216D1*
X37524Y24240D1*
X37501D1*
X37429Y24216D1*
X37381Y24169D1*
X37357Y24097D1*
X37846Y24312D2*
Y24336D1*
X37870Y24384D1*
X37894Y24407D1*
X37942Y24431D1*
X38037D1*
X38085Y24407D1*
X38109Y24384D1*
X38133Y24336D1*
Y24288D1*
X38109Y24240D1*
X38061Y24169D1*
X37822Y23929D1*
X38157D1*
X23843Y7109D2*
Y7324D1*
X23818Y7395D1*
X23795Y7420D1*
X23747Y7444D1*
X23699D1*
X23651Y7420D1*
X23627Y7395D1*
X23603Y7324D1*
Y7109D1*
X24106D1*
X23843Y7276D2*
X24106Y7444D1*
X23604Y7646D2*
Y7909D1*
X23795Y7765D1*
Y7837D1*
X23819Y7885D1*
X23843Y7909D1*
X23915Y7933D1*
X23962D1*
X24034Y7909D1*
X24082Y7861D1*
X24106Y7789D1*
Y7717D1*
X24082Y7646D1*
X24058Y7622D1*
X24010Y7598D1*
X23700Y8087D2*
X23675Y8135D1*
X23604Y8207D1*
X24106D1*
Y8745D2*
X23603Y8553D1*
X24106Y8362D1*
X23938Y8433D2*
Y8673D1*
X25655Y7133D2*
Y7348D1*
X25631Y7420D1*
X25607Y7444D1*
X25560Y7468D1*
X25512D1*
X25464Y7444D1*
X25440Y7420D1*
X25416Y7348D1*
Y7133D1*
X25918D1*
X25655Y7300D2*
X25918Y7468D1*
X25417Y7670D2*
Y7933D1*
X25608Y7789D1*
Y7861D1*
X25632Y7909D1*
X25655Y7933D1*
X25727Y7957D1*
X25775D1*
X25847Y7933D1*
X25895Y7885D1*
X25918Y7813D1*
Y7741D1*
X25895Y7670D1*
X25870Y7646D1*
X25823Y7622D1*
X25512Y8111D2*
X25488Y8159D1*
X25417Y8231D1*
X25918D1*
X25416Y8386D2*
X25918D1*
Y8601D1*
X25894Y8673D1*
X25870Y8697D1*
X25823Y8721D1*
X25751D1*
X25703Y8697D1*
X25679Y8673D1*
X25655Y8601D1*
X25631Y8673D1*
X25607Y8697D1*
X25560Y8721D1*
X25512D1*
X25464Y8697D1*
X25440Y8673D1*
X25416Y8601D1*
Y8386D1*
X25655D2*
Y8601D1*
X30093Y7013D2*
Y7228D1*
X30069Y7300D1*
X30045Y7324D1*
X29998Y7348D1*
X29950D1*
X29902Y7324D1*
X29878Y7300D1*
X29854Y7228D1*
Y7013D1*
X30356D1*
X30093Y7180D2*
X30356Y7348D1*
X29855Y7550D2*
Y7813D1*
X30046Y7670D1*
Y7742D1*
X30070Y7789D1*
X30093Y7813D1*
X30165Y7837D1*
X30213D1*
X30285Y7813D1*
X30333Y7765D1*
X30356Y7694D1*
Y7622D1*
X30333Y7550D1*
X30308Y7527D1*
X30261Y7502D1*
X30022Y8303D2*
X30093Y8279D1*
X30141Y8231D1*
X30165Y8159D1*
Y8135D1*
X30141Y8064D1*
X30093Y8016D1*
X30022Y7992D1*
X29998D1*
X29926Y8016D1*
X29878Y8064D1*
X29855Y8135D1*
Y8159D1*
X29878Y8231D1*
X29926Y8279D1*
X30022Y8303D1*
X30141D1*
X30261Y8279D1*
X30333Y8231D1*
X30356Y8159D1*
Y8112D1*
X30333Y8040D1*
X30285Y8016D1*
X30356Y8840D2*
X29854Y8648D1*
X30356Y8457D1*
X30189Y8529D2*
Y8768D1*
X34719Y7037D2*
Y7252D1*
X34695Y7324D1*
X34671Y7348D1*
X34623Y7372D1*
X34575D1*
X34528Y7348D1*
X34503Y7324D1*
X34480Y7252D1*
Y7037D1*
X34982D1*
X34719Y7205D2*
X34982Y7372D1*
X34480Y7574D2*
Y7837D1*
X34671Y7694D1*
Y7766D1*
X34695Y7813D1*
X34719Y7837D1*
X34791Y7861D1*
X34838D1*
X34910Y7837D1*
X34958Y7789D1*
X34982Y7718D1*
Y7646D1*
X34958Y7574D1*
X34934Y7551D1*
X34886Y7526D1*
X34647Y8327D2*
X34719Y8303D1*
X34767Y8255D1*
X34791Y8183D1*
Y8159D1*
X34767Y8088D1*
X34719Y8040D1*
X34647Y8016D1*
X34623D1*
X34551Y8040D1*
X34504Y8088D1*
X34480Y8159D1*
Y8183D1*
X34504Y8255D1*
X34551Y8303D1*
X34647Y8327D1*
X34767D1*
X34886Y8303D1*
X34958Y8255D1*
X34982Y8183D1*
Y8136D1*
X34958Y8064D1*
X34910Y8040D1*
X34480Y8481D2*
X34982D1*
Y8697D1*
X34958Y8769D1*
X34934Y8792D1*
X34886Y8816D1*
X34814D1*
X34766Y8792D1*
X34743Y8769D1*
X34719Y8697D1*
X34695Y8769D1*
X34671Y8792D1*
X34623Y8816D1*
X34575D1*
X34528Y8792D1*
X34503Y8769D1*
X34480Y8697D1*
Y8481D1*
X34719D2*
Y8697D1*
X17010Y11096D2*
D41*
X17106Y11145D1*
X17250Y11287D1*
Y10283D1*
X17655Y11287D2*
X18180D1*
X17893Y10905D1*
X18037D1*
X18132Y10857D1*
X18180Y10810D1*
X18228Y10666D1*
Y10571D1*
X18180Y10427D1*
X18085Y10331D1*
X17941Y10283D1*
X17797D1*
X17655Y10331D1*
X17607Y10380D1*
X17558Y10475D1*
X25187Y4553D2*
X25138Y4649D1*
X24996Y4793D1*
X26000D1*
X24996Y5198D2*
Y5723D1*
X25378Y5437D1*
Y5581D1*
X25426Y5676D1*
X25473Y5723D1*
X25617Y5772D1*
X25712D1*
X25856Y5723D1*
X25952Y5628D1*
X26000Y5484D1*
Y5341D1*
X25952Y5198D1*
X25903Y5151D1*
X25808Y5102D1*
X21073Y14596D2*
X21169Y14645D1*
X21313Y14787D1*
Y13784D1*
X21718Y14787D2*
X22243D1*
X21956Y14405D1*
X22100D1*
X22195Y14357D1*
X22243Y14310D1*
X22291Y14166D1*
Y14071D1*
X22243Y13927D1*
X22148Y13831D1*
X22004Y13784D1*
X21860D1*
X21718Y13831D1*
X21670Y13880D1*
X21621Y13975D1*
X30000Y18992D2*
X29951Y19088D1*
X29809Y19232D1*
X30813D1*
X29809Y19637D2*
Y20162D1*
X30191Y19876D1*
Y20020D1*
X30239Y20115D1*
X30286Y20162D1*
X30430Y20211D1*
X30525D1*
X30669Y20162D1*
X30765Y20067D1*
X30813Y19923D1*
Y19780D1*
X30765Y19637D1*
X30716Y19590D1*
X30621Y19541D1*
M02*
