  0
SECTION
  2
HEADER
  9
$ANGBASE
  50
0.0
  9
$ANGDIR
  70
1
  9
$MEASUREMENT
  70
1
  0
ENDSEC
  0
SECTION
  2
TABLES
  0
TABLE
  2
LTYPE
  70
4
  0
LTYPE
  5
40F
  2
CONTINUOUS
  70
0
  3
Solid line
  72
65
  73
0
  40
0.0
  0
LTYPE
  5
410
  2
DASHDOT
 70
0
  3
Dash Dot ____ _ ____ _
 72
65
 73
4
 40
2.0
 49
1.25
 49
-0.25
 49
0.25
 49
-0.25
  0
LTYPE
  5
411
  2
DASHED
 70
0
  3
Dashed __ __ __ __ __
 72
65
 73
2
 40
0.75
 49
0.5
 49
-0.25
  0
LTYPE
  5
43B
  2
DOTTED
 70
0
  3
Dotted .  .  .  .
 72
65
 73
2
 40
0.2
 49
0.0
 49
-0.2
  0
ENDTAB
  0
TABLE
  2
STYLE
  70
4
  0
STYLE
  2
KICAD
  70
0
  40
0
  41
1
  42
1
  50
0
  71
0
  3
isocp.shx
  0
STYLE
  2
KICADB
  70
0
  40
0
  41
1
  42
1
  50
0
  71
0
  3
isocp.shx
  0
STYLE
  2
KICADI
  70
0
  40
0
  41
1
  42
1
  50
15
  71
0
  3
isocp.shx
  0
STYLE
  2
KICADBI
  70
0
  40
0
  41
1
  42
1
  50
15
  71
0
  3
isocp.shx
  0
ENDTAB
  0
TABLE
  2
LAYER
  70
1
  0
LAYER
  2
BLACK
  70
0
  62
7
  6
CONTINUOUS
  0
ENDTAB
  0
ENDSEC
  0
SECTION
  2
ENTITIES
0
LINE
8
BLACK
6
CONTINUOUS
10
133.096
20
-88.9
11
133.096
21
-138.684
0
LINE
8
BLACK
6
CONTINUOUS
10
181.864
20
-138.684
11
133.096
21
-138.684
0
LINE
8
BLACK
6
CONTINUOUS
10
181.864
20
-88.9
11
181.864
21
-138.684
0
LINE
8
BLACK
6
CONTINUOUS
10
133.096
20
-88.9
11
181.864
21
-88.9
0
LINE
8
BLACK
6
CONTINUOUS
10
159.154
20
-114.535
11
159.954
21
-115.335
0
LINE
8
BLACK
6
CONTINUOUS
10
159.954
20
-114.535
11
159.154
21
-115.335
0
LINE
8
BLACK
6
CONTINUOUS
10
166.774
20
-114.535
11
167.574
21
-115.335
0
LINE
8
BLACK
6
CONTINUOUS
10
167.574
20
-114.535
11
166.774
21
-115.335
0
LINE
8
BLACK
6
CONTINUOUS
10
166.986
20
-101.454
11
167.786
21
-102.254
0
LINE
8
BLACK
6
CONTINUOUS
10
167.786
20
-101.454
11
166.986
21
-102.254
0
LINE
8
BLACK
6
CONTINUOUS
10
174.606
20
-101.454
11
175.406
21
-102.254
0
LINE
8
BLACK
6
CONTINUOUS
10
175.406
20
-101.454
11
174.606
21
-102.254
0
LINE
8
BLACK
6
CONTINUOUS
10
135.617
20
-114.662
11
136.417
21
-115.462
0
LINE
8
BLACK
6
CONTINUOUS
10
136.417
20
-114.662
11
135.617
21
-115.462
0
LINE
8
BLACK
6
CONTINUOUS
10
143.237
20
-114.662
11
144.037
21
-115.462
0
LINE
8
BLACK
6
CONTINUOUS
10
144.037
20
-114.662
11
143.237
21
-115.462
0
LINE
8
BLACK
6
CONTINUOUS
10
140.189
20
-101.454
11
140.989
21
-102.254
0
LINE
8
BLACK
6
CONTINUOUS
10
140.989
20
-101.454
11
140.189
21
-102.254
0
LINE
8
BLACK
6
CONTINUOUS
10
147.809
20
-101.454
11
148.609
21
-102.254
0
LINE
8
BLACK
6
CONTINUOUS
10
148.609
20
-101.454
11
147.809
21
-102.254
0
LINE
8
BLACK
6
CONTINUOUS
10
170.923
20
-114.408
11
171.723
21
-115.208
0
LINE
8
BLACK
6
CONTINUOUS
10
171.723
20
-114.408
11
170.923
21
-115.208
0
LINE
8
BLACK
6
CONTINUOUS
10
178.543
20
-114.408
11
179.343
21
-115.208
0
LINE
8
BLACK
6
CONTINUOUS
10
179.343
20
-114.408
11
178.543
21
-115.208
0
LINE
8
BLACK
6
CONTINUOUS
10
153.588
20
-101.454
11
154.388
21
-102.254
0
LINE
8
BLACK
6
CONTINUOUS
10
154.388
20
-101.454
11
153.588
21
-102.254
0
LINE
8
BLACK
6
CONTINUOUS
10
161.208
20
-101.454
11
162.008
21
-102.254
0
LINE
8
BLACK
6
CONTINUOUS
10
162.008
20
-101.454
11
161.208
21
-102.254
0
LINE
8
BLACK
6
CONTINUOUS
10
147.386
20
-114.662
11
148.186
21
-115.462
0
LINE
8
BLACK
6
CONTINUOUS
10
148.186
20
-114.662
11
147.386
21
-115.462
0
LINE
8
BLACK
6
CONTINUOUS
10
155.006
20
-114.662
11
155.806
21
-115.462
0
LINE
8
BLACK
6
CONTINUOUS
10
155.806
20
-114.662
11
155.006
21
-115.462
0
CIRCLE
8
BLACK
10
174.117
20
-122.682
40
0.6
0
CIRCLE
8
BLACK
10
176.657
20
-122.682
40
0.6
0
CIRCLE
8
BLACK
10
179.197
20
-122.682
40
0.6
0
CIRCLE
8
BLACK
10
136.779
20
-122.682
40
0.6
0
CIRCLE
8
BLACK
10
139.319
20
-122.682
40
0.6
0
CIRCLE
8
BLACK
10
141.859
20
-122.682
40
0.6
0
CIRCLE
8
BLACK
10
144.399
20
-122.682
40
0.6
0
CIRCLE
8
BLACK
10
146.939
20
-122.682
40
0.6
0
CIRCLE
8
BLACK
10
149.479
20
-122.682
40
0.6
0
CIRCLE
8
BLACK
10
152.019
20
-122.682
40
0.6
0
CIRCLE
8
BLACK
10
154.559
20
-122.682
40
0.6
0
CIRCLE
8
BLACK
10
157.099
20
-122.682
40
0.6
0
CIRCLE
8
BLACK
10
159.639
20
-122.682
40
0.6
0
CIRCLE
8
BLACK
10
144.399
20
-94.234
40
0.6
0
CIRCLE
8
BLACK
10
146.939
20
-94.234
40
0.6
0
CIRCLE
8
BLACK
10
149.479
20
-94.234
40
0.6
0
CIRCLE
8
BLACK
10
140.208
20
-107.442
40
0.6
0
CIRCLE
8
BLACK
10
142.748
20
-107.442
40
0.6
0
CIRCLE
8
BLACK
10
145.288
20
-107.442
40
0.6
0
CIRCLE
8
BLACK
10
147.828
20
-107.442
40
0.6
0
CIRCLE
8
BLACK
10
157.099
20
-94.234
40
0.6
0
CIRCLE
8
BLACK
10
159.639
20
-94.234
40
0.6
0
CIRCLE
8
BLACK
10
164.338
20
-122.682
40
0.6
0
CIRCLE
8
BLACK
10
166.878
20
-122.682
40
0.6
0
CIRCLE
8
BLACK
10
169.418
20
-122.682
40
0.6
0
CIRCLE
8
BLACK
10
145.923
20
-133.35
40
0.6
0
CIRCLE
8
BLACK
10
148.463
20
-133.35
40
0.6
0
CIRCLE
8
BLACK
10
151.003
20
-133.35
40
0.6
0
CIRCLE
8
BLACK
10
153.543
20
-133.35
40
0.6
0
CIRCLE
8
BLACK
10
156.083
20
-133.35
40
0.6
0
CIRCLE
8
BLACK
10
158.623
20
-133.35
40
0.6
0
CIRCLE
8
BLACK
10
161.163
20
-133.35
40
0.6
0
CIRCLE
8
BLACK
10
163.703
20
-133.35
40
0.6
0
CIRCLE
8
BLACK
10
166.243
20
-133.35
40
0.6
0
CIRCLE
8
BLACK
10
168.783
20
-133.35
40
0.6
0
CIRCLE
8
BLACK
10
166.37
20
-94.234
40
0.6
0
CIRCLE
8
BLACK
10
168.91
20
-94.234
40
0.6
0
CIRCLE
8
BLACK
10
171.45
20
-94.234
40
0.6
0
CIRCLE
8
BLACK
10
156.337
20
-107.442
40
0.6
0
CIRCLE
8
BLACK
10
158.877
20
-107.442
40
0.6
0
CIRCLE
8
BLACK
10
161.417
20
-107.442
40
0.6
0
CIRCLE
8
BLACK
10
163.957
20
-107.442
40
0.6
0
CIRCLE
8
BLACK
10
166.497
20
-107.442
40
0.6
0
CIRCLE
8
BLACK
10
169.037
20
-107.442
40
0.6
0
CIRCLE
8
BLACK
10
171.577
20
-107.442
40
0.6
0
CIRCLE
8
BLACK
10
174.117
20
-107.442
40
0.6
0
LINE
8
BLACK
6
CONTINUOUS
10
135.935
20
-143.366
11
135.935
21
-140.366
0
LINE
8
BLACK
6
CONTINUOUS
10
135.935
20
-140.366
11
136.65
21
-140.366
0
LINE
8
BLACK
6
CONTINUOUS
10
136.65
20
-140.366
11
137.078
21
-140.509
0
LINE
8
BLACK
6
CONTINUOUS
10
137.078
20
-140.509
11
137.364
21
-140.795
0
LINE
8
BLACK
6
CONTINUOUS
10
137.364
20
-140.795
11
137.507
21
-141.08
0
LINE
8
BLACK
6
CONTINUOUS
10
137.507
20
-141.08
11
137.65
21
-141.652
0
LINE
8
BLACK
6
CONTINUOUS
10
137.65
20
-141.652
11
137.65
21
-142.08
0
LINE
8
BLACK
6
CONTINUOUS
10
137.65
20
-142.08
11
137.507
21
-142.652
0
LINE
8
BLACK
6
CONTINUOUS
10
137.507
20
-142.652
11
137.364
21
-142.938
0
LINE
8
BLACK
6
CONTINUOUS
10
137.364
20
-142.938
11
137.078
21
-143.223
0
LINE
8
BLACK
6
CONTINUOUS
10
137.078
20
-143.223
11
136.65
21
-143.366
0
LINE
8
BLACK
6
CONTINUOUS
10
136.65
20
-143.366
11
135.935
21
-143.366
0
LINE
8
BLACK
6
CONTINUOUS
10
138.935
20
-143.366
11
138.935
21
-141.366
0
LINE
8
BLACK
6
CONTINUOUS
10
138.935
20
-141.938
11
139.078
21
-141.652
0
LINE
8
BLACK
6
CONTINUOUS
10
139.078
20
-141.652
11
139.221
21
-141.509
0
LINE
8
BLACK
6
CONTINUOUS
10
139.221
20
-141.509
11
139.507
21
-141.366
0
LINE
8
BLACK
6
CONTINUOUS
10
139.507
20
-141.366
11
139.792
21
-141.366
0
LINE
8
BLACK
6
CONTINUOUS
10
140.792
20
-143.366
11
140.792
21
-141.366
0
LINE
8
BLACK
6
CONTINUOUS
10
140.792
20
-140.366
11
140.65
21
-140.509
0
LINE
8
BLACK
6
CONTINUOUS
10
140.65
20
-140.509
11
140.792
21
-140.652
0
LINE
8
BLACK
6
CONTINUOUS
10
140.792
20
-140.652
11
140.935
21
-140.509
0
LINE
8
BLACK
6
CONTINUOUS
10
140.935
20
-140.509
11
140.792
21
-140.366
0
LINE
8
BLACK
6
CONTINUOUS
10
140.792
20
-140.366
11
140.792
21
-140.652
0
LINE
8
BLACK
6
CONTINUOUS
10
142.65
20
-143.366
11
142.364
21
-143.223
0
LINE
8
BLACK
6
CONTINUOUS
10
142.364
20
-143.223
11
142.221
21
-142.938
0
LINE
8
BLACK
6
CONTINUOUS
10
142.221
20
-142.938
11
142.221
21
-140.366
0
LINE
8
BLACK
6
CONTINUOUS
10
144.221
20
-143.366
11
143.935
21
-143.223
0
LINE
8
BLACK
6
CONTINUOUS
10
143.935
20
-143.223
11
143.792
21
-142.938
0
LINE
8
BLACK
6
CONTINUOUS
10
143.792
20
-142.938
11
143.792
21
-140.366
0
LINE
8
BLACK
6
CONTINUOUS
10
147.65
20
-143.366
11
147.65
21
-140.366
0
LINE
8
BLACK
6
CONTINUOUS
10
147.65
20
-140.366
11
148.65
21
-142.509
0
LINE
8
BLACK
6
CONTINUOUS
10
148.65
20
-142.509
11
149.65
21
-140.366
0
LINE
8
BLACK
6
CONTINUOUS
10
149.65
20
-140.366
11
149.65
21
-143.366
0
LINE
8
BLACK
6
CONTINUOUS
10
152.364
20
-143.366
11
152.364
21
-141.795
0
LINE
8
BLACK
6
CONTINUOUS
10
152.364
20
-141.795
11
152.221
21
-141.509
0
LINE
8
BLACK
6
CONTINUOUS
10
152.221
20
-141.509
11
151.935
21
-141.366
0
LINE
8
BLACK
6
CONTINUOUS
10
151.935
20
-141.366
11
151.364
21
-141.366
0
LINE
8
BLACK
6
CONTINUOUS
10
151.364
20
-141.366
11
151.078
21
-141.509
0
LINE
8
BLACK
6
CONTINUOUS
10
152.364
20
-143.223
11
152.078
21
-143.366
0
LINE
8
BLACK
6
CONTINUOUS
10
152.078
20
-143.366
11
151.364
21
-143.366
0
LINE
8
BLACK
6
CONTINUOUS
10
151.364
20
-143.366
11
151.078
21
-143.223
0
LINE
8
BLACK
6
CONTINUOUS
10
151.078
20
-143.223
11
150.935
21
-142.938
0
LINE
8
BLACK
6
CONTINUOUS
10
150.935
20
-142.938
11
150.935
21
-142.652
0
LINE
8
BLACK
6
CONTINUOUS
10
150.935
20
-142.652
11
151.078
21
-142.366
0
LINE
8
BLACK
6
CONTINUOUS
10
151.078
20
-142.366
11
151.364
21
-142.223
0
LINE
8
BLACK
6
CONTINUOUS
10
151.364
20
-142.223
11
152.078
21
-142.223
0
LINE
8
BLACK
6
CONTINUOUS
10
152.078
20
-142.223
11
152.364
21
-142.08
0
LINE
8
BLACK
6
CONTINUOUS
10
153.792
20
-141.366
11
153.792
21
-144.366
0
LINE
8
BLACK
6
CONTINUOUS
10
153.792
20
-141.509
11
154.078
21
-141.366
0
LINE
8
BLACK
6
CONTINUOUS
10
154.078
20
-141.366
11
154.65
21
-141.366
0
LINE
8
BLACK
6
CONTINUOUS
10
154.65
20
-141.366
11
154.935
21
-141.509
0
LINE
8
BLACK
6
CONTINUOUS
10
154.935
20
-141.509
11
155.078
21
-141.652
0
LINE
8
BLACK
6
CONTINUOUS
10
155.078
20
-141.652
11
155.221
21
-141.938
0
LINE
8
BLACK
6
CONTINUOUS
10
155.221
20
-141.938
11
155.221
21
-142.795
0
LINE
8
BLACK
6
CONTINUOUS
10
155.221
20
-142.795
11
155.078
21
-143.08
0
LINE
8
BLACK
6
CONTINUOUS
10
155.078
20
-143.08
11
154.935
21
-143.223
0
LINE
8
BLACK
6
CONTINUOUS
10
154.935
20
-143.223
11
154.65
21
-143.366
0
LINE
8
BLACK
6
CONTINUOUS
10
154.65
20
-143.366
11
154.078
21
-143.366
0
LINE
8
BLACK
6
CONTINUOUS
10
154.078
20
-143.366
11
153.792
21
-143.223
0
LINE
8
BLACK
6
CONTINUOUS
10
156.507
20
-143.08
11
156.65
21
-143.223
0
LINE
8
BLACK
6
CONTINUOUS
10
156.65
20
-143.223
11
156.507
21
-143.366
0
LINE
8
BLACK
6
CONTINUOUS
10
156.507
20
-143.366
11
156.364
21
-143.223
0
LINE
8
BLACK
6
CONTINUOUS
10
156.364
20
-143.223
11
156.507
21
-143.08
0
LINE
8
BLACK
6
CONTINUOUS
10
156.507
20
-143.08
11
156.507
21
-143.366
0
LINE
8
BLACK
6
CONTINUOUS
10
156.507
20
-141.509
11
156.65
21
-141.652
0
LINE
8
BLACK
6
CONTINUOUS
10
156.65
20
-141.652
11
156.507
21
-141.795
0
LINE
8
BLACK
6
CONTINUOUS
10
156.507
20
-141.795
11
156.364
21
-141.652
0
LINE
8
BLACK
6
CONTINUOUS
10
156.364
20
-141.652
11
156.507
21
-141.509
0
LINE
8
BLACK
6
CONTINUOUS
10
156.507
20
-141.509
11
156.507
21
-141.795
0
LINE
8
BLACK
6
CONTINUOUS
10
132.271
20
-147.909
11
133.071
21
-148.709
0
LINE
8
BLACK
6
CONTINUOUS
10
133.071
20
-147.909
11
132.271
21
-148.709
0
LINE
8
BLACK
6
CONTINUOUS
10
136.507
20
-146.666
11
136.792
21
-146.666
0
LINE
8
BLACK
6
CONTINUOUS
10
136.792
20
-146.666
11
137.078
21
-146.809
0
LINE
8
BLACK
6
CONTINUOUS
10
137.078
20
-146.809
11
137.221
21
-146.952
0
LINE
8
BLACK
6
CONTINUOUS
10
137.221
20
-146.952
11
137.364
21
-147.238
0
LINE
8
BLACK
6
CONTINUOUS
10
137.364
20
-147.238
11
137.507
21
-147.809
0
LINE
8
BLACK
6
CONTINUOUS
10
137.507
20
-147.809
11
137.507
21
-148.523
0
LINE
8
BLACK
6
CONTINUOUS
10
137.507
20
-148.523
11
137.364
21
-149.095
0
LINE
8
BLACK
6
CONTINUOUS
10
137.364
20
-149.095
11
137.221
21
-149.38
0
LINE
8
BLACK
6
CONTINUOUS
10
137.221
20
-149.38
11
137.078
21
-149.523
0
LINE
8
BLACK
6
CONTINUOUS
10
137.078
20
-149.523
11
136.792
21
-149.666
0
LINE
8
BLACK
6
CONTINUOUS
10
136.792
20
-149.666
11
136.507
21
-149.666
0
LINE
8
BLACK
6
CONTINUOUS
10
136.507
20
-149.666
11
136.221
21
-149.523
0
LINE
8
BLACK
6
CONTINUOUS
10
136.221
20
-149.523
11
136.078
21
-149.38
0
LINE
8
BLACK
6
CONTINUOUS
10
136.078
20
-149.38
11
135.935
21
-149.095
0
LINE
8
BLACK
6
CONTINUOUS
10
135.935
20
-149.095
11
135.792
21
-148.523
0
LINE
8
BLACK
6
CONTINUOUS
10
135.792
20
-148.523
11
135.792
21
-147.809
0
LINE
8
BLACK
6
CONTINUOUS
10
135.792
20
-147.809
11
135.935
21
-147.238
0
LINE
8
BLACK
6
CONTINUOUS
10
135.935
20
-147.238
11
136.078
21
-146.952
0
LINE
8
BLACK
6
CONTINUOUS
10
136.078
20
-146.952
11
136.221
21
-146.809
0
LINE
8
BLACK
6
CONTINUOUS
10
136.221
20
-146.809
11
136.507
21
-146.666
0
LINE
8
BLACK
6
CONTINUOUS
10
138.792
20
-149.38
11
138.935
21
-149.523
0
LINE
8
BLACK
6
CONTINUOUS
10
138.935
20
-149.523
11
138.792
21
-149.666
0
LINE
8
BLACK
6
CONTINUOUS
10
138.792
20
-149.666
11
138.65
21
-149.523
0
LINE
8
BLACK
6
CONTINUOUS
10
138.65
20
-149.523
11
138.792
21
-149.38
0
LINE
8
BLACK
6
CONTINUOUS
10
138.792
20
-149.38
11
138.792
21
-149.666
0
LINE
8
BLACK
6
CONTINUOUS
10
140.65
20
-147.952
11
140.364
21
-147.809
0
LINE
8
BLACK
6
CONTINUOUS
10
140.364
20
-147.809
11
140.221
21
-147.666
0
LINE
8
BLACK
6
CONTINUOUS
10
140.221
20
-147.666
11
140.078
21
-147.38
0
LINE
8
BLACK
6
CONTINUOUS
10
140.078
20
-147.38
11
140.078
21
-147.238
0
LINE
8
BLACK
6
CONTINUOUS
10
140.078
20
-147.238
11
140.221
21
-146.952
0
LINE
8
BLACK
6
CONTINUOUS
10
140.221
20
-146.952
11
140.364
21
-146.809
0
LINE
8
BLACK
6
CONTINUOUS
10
140.364
20
-146.809
11
140.65
21
-146.666
0
LINE
8
BLACK
6
CONTINUOUS
10
140.65
20
-146.666
11
141.221
21
-146.666
0
LINE
8
BLACK
6
CONTINUOUS
10
141.221
20
-146.666
11
141.507
21
-146.809
0
LINE
8
BLACK
6
CONTINUOUS
10
141.507
20
-146.809
11
141.65
21
-146.952
0
LINE
8
BLACK
6
CONTINUOUS
10
141.65
20
-146.952
11
141.792
21
-147.238
0
LINE
8
BLACK
6
CONTINUOUS
10
141.792
20
-147.238
11
141.792
21
-147.38
0
LINE
8
BLACK
6
CONTINUOUS
10
141.792
20
-147.38
11
141.65
21
-147.666
0
LINE
8
BLACK
6
CONTINUOUS
10
141.65
20
-147.666
11
141.507
21
-147.809
0
LINE
8
BLACK
6
CONTINUOUS
10
141.507
20
-147.809
11
141.221
21
-147.952
0
LINE
8
BLACK
6
CONTINUOUS
10
141.221
20
-147.952
11
140.65
21
-147.952
0
LINE
8
BLACK
6
CONTINUOUS
10
140.65
20
-147.952
11
140.364
21
-148.095
0
LINE
8
BLACK
6
CONTINUOUS
10
140.364
20
-148.095
11
140.221
21
-148.238
0
LINE
8
BLACK
6
CONTINUOUS
10
140.221
20
-148.238
11
140.078
21
-148.523
0
LINE
8
BLACK
6
CONTINUOUS
10
140.078
20
-148.523
11
140.078
21
-149.095
0
LINE
8
BLACK
6
CONTINUOUS
10
140.078
20
-149.095
11
140.221
21
-149.38
0
LINE
8
BLACK
6
CONTINUOUS
10
140.221
20
-149.38
11
140.364
21
-149.523
0
LINE
8
BLACK
6
CONTINUOUS
10
140.364
20
-149.523
11
140.65
21
-149.666
0
LINE
8
BLACK
6
CONTINUOUS
10
140.65
20
-149.666
11
141.221
21
-149.666
0
LINE
8
BLACK
6
CONTINUOUS
10
141.221
20
-149.666
11
141.507
21
-149.523
0
LINE
8
BLACK
6
CONTINUOUS
10
141.507
20
-149.523
11
141.65
21
-149.38
0
LINE
8
BLACK
6
CONTINUOUS
10
141.65
20
-149.38
11
141.792
21
-149.095
0
LINE
8
BLACK
6
CONTINUOUS
10
141.792
20
-149.095
11
141.792
21
-148.523
0
LINE
8
BLACK
6
CONTINUOUS
10
141.792
20
-148.523
11
141.65
21
-148.238
0
LINE
8
BLACK
6
CONTINUOUS
10
141.65
20
-148.238
11
141.507
21
-148.095
0
LINE
8
BLACK
6
CONTINUOUS
10
141.507
20
-148.095
11
141.221
21
-147.952
0
LINE
8
BLACK
6
CONTINUOUS
10
143.65
20
-146.666
11
143.935
21
-146.666
0
LINE
8
BLACK
6
CONTINUOUS
10
143.935
20
-146.666
11
144.221
21
-146.809
0
LINE
8
BLACK
6
CONTINUOUS
10
144.221
20
-146.809
11
144.364
21
-146.952
0
LINE
8
BLACK
6
CONTINUOUS
10
144.364
20
-146.952
11
144.507
21
-147.238
0
LINE
8
BLACK
6
CONTINUOUS
10
144.507
20
-147.238
11
144.65
21
-147.809
0
LINE
8
BLACK
6
CONTINUOUS
10
144.65
20
-147.809
11
144.65
21
-148.523
0
LINE
8
BLACK
6
CONTINUOUS
10
144.65
20
-148.523
11
144.507
21
-149.095
0
LINE
8
BLACK
6
CONTINUOUS
10
144.507
20
-149.095
11
144.364
21
-149.38
0
LINE
8
BLACK
6
CONTINUOUS
10
144.364
20
-149.38
11
144.221
21
-149.523
0
LINE
8
BLACK
6
CONTINUOUS
10
144.221
20
-149.523
11
143.935
21
-149.666
0
LINE
8
BLACK
6
CONTINUOUS
10
143.935
20
-149.666
11
143.65
21
-149.666
0
LINE
8
BLACK
6
CONTINUOUS
10
143.65
20
-149.666
11
143.364
21
-149.523
0
LINE
8
BLACK
6
CONTINUOUS
10
143.364
20
-149.523
11
143.221
21
-149.38
0
LINE
8
BLACK
6
CONTINUOUS
10
143.221
20
-149.38
11
143.078
21
-149.095
0
LINE
8
BLACK
6
CONTINUOUS
10
143.078
20
-149.095
11
142.935
21
-148.523
0
LINE
8
BLACK
6
CONTINUOUS
10
142.935
20
-148.523
11
142.935
21
-147.809
0
LINE
8
BLACK
6
CONTINUOUS
10
142.935
20
-147.809
11
143.078
21
-147.238
0
LINE
8
BLACK
6
CONTINUOUS
10
143.078
20
-147.238
11
143.221
21
-146.952
0
LINE
8
BLACK
6
CONTINUOUS
10
143.221
20
-146.952
11
143.364
21
-146.809
0
LINE
8
BLACK
6
CONTINUOUS
10
143.364
20
-146.809
11
143.65
21
-146.666
0
LINE
8
BLACK
6
CONTINUOUS
10
145.935
20
-149.666
11
145.935
21
-147.666
0
LINE
8
BLACK
6
CONTINUOUS
10
145.935
20
-147.952
11
146.078
21
-147.809
0
LINE
8
BLACK
6
CONTINUOUS
10
146.078
20
-147.809
11
146.364
21
-147.666
0
LINE
8
BLACK
6
CONTINUOUS
10
146.364
20
-147.666
11
146.792
21
-147.666
0
LINE
8
BLACK
6
CONTINUOUS
10
146.792
20
-147.666
11
147.078
21
-147.809
0
LINE
8
BLACK
6
CONTINUOUS
10
147.078
20
-147.809
11
147.221
21
-148.095
0
LINE
8
BLACK
6
CONTINUOUS
10
147.221
20
-148.095
11
147.221
21
-149.666
0
LINE
8
BLACK
6
CONTINUOUS
10
147.221
20
-148.095
11
147.364
21
-147.809
0
LINE
8
BLACK
6
CONTINUOUS
10
147.364
20
-147.809
11
147.65
21
-147.666
0
LINE
8
BLACK
6
CONTINUOUS
10
147.65
20
-147.666
11
148.078
21
-147.666
0
LINE
8
BLACK
6
CONTINUOUS
10
148.078
20
-147.666
11
148.364
21
-147.809
0
LINE
8
BLACK
6
CONTINUOUS
10
148.364
20
-147.809
11
148.507
21
-148.095
0
LINE
8
BLACK
6
CONTINUOUS
10
148.507
20
-148.095
11
148.507
21
-149.666
0
LINE
8
BLACK
6
CONTINUOUS
10
149.935
20
-149.666
11
149.935
21
-147.666
0
LINE
8
BLACK
6
CONTINUOUS
10
149.935
20
-147.952
11
150.078
21
-147.809
0
LINE
8
BLACK
6
CONTINUOUS
10
150.078
20
-147.809
11
150.364
21
-147.666
0
LINE
8
BLACK
6
CONTINUOUS
10
150.364
20
-147.666
11
150.792
21
-147.666
0
LINE
8
BLACK
6
CONTINUOUS
10
150.792
20
-147.666
11
151.078
21
-147.809
0
LINE
8
BLACK
6
CONTINUOUS
10
151.078
20
-147.809
11
151.221
21
-148.095
0
LINE
8
BLACK
6
CONTINUOUS
10
151.221
20
-148.095
11
151.221
21
-149.666
0
LINE
8
BLACK
6
CONTINUOUS
10
151.221
20
-148.095
11
151.364
21
-147.809
0
LINE
8
BLACK
6
CONTINUOUS
10
151.364
20
-147.809
11
151.65
21
-147.666
0
LINE
8
BLACK
6
CONTINUOUS
10
151.65
20
-147.666
11
152.078
21
-147.666
0
LINE
8
BLACK
6
CONTINUOUS
10
152.078
20
-147.666
11
152.364
21
-147.809
0
LINE
8
BLACK
6
CONTINUOUS
10
152.364
20
-147.809
11
152.507
21
-148.095
0
LINE
8
BLACK
6
CONTINUOUS
10
152.507
20
-148.095
11
152.507
21
-149.666
0
LINE
8
BLACK
6
CONTINUOUS
10
158.364
20
-146.523
11
155.792
21
-150.38
0
LINE
8
BLACK
6
CONTINUOUS
10
162.221
20
-146.666
11
162.507
21
-146.666
0
LINE
8
BLACK
6
CONTINUOUS
10
162.507
20
-146.666
11
162.792
21
-146.809
0
LINE
8
BLACK
6
CONTINUOUS
10
162.792
20
-146.809
11
162.935
21
-146.952
0
LINE
8
BLACK
6
CONTINUOUS
10
162.935
20
-146.952
11
163.078
21
-147.238
0
LINE
8
BLACK
6
CONTINUOUS
10
163.078
20
-147.238
11
163.221
21
-147.809
0
LINE
8
BLACK
6
CONTINUOUS
10
163.221
20
-147.809
11
163.221
21
-148.523
0
LINE
8
BLACK
6
CONTINUOUS
10
163.221
20
-148.523
11
163.078
21
-149.095
0
LINE
8
BLACK
6
CONTINUOUS
10
163.078
20
-149.095
11
162.935
21
-149.38
0
LINE
8
BLACK
6
CONTINUOUS
10
162.935
20
-149.38
11
162.792
21
-149.523
0
LINE
8
BLACK
6
CONTINUOUS
10
162.792
20
-149.523
11
162.507
21
-149.666
0
LINE
8
BLACK
6
CONTINUOUS
10
162.507
20
-149.666
11
162.221
21
-149.666
0
LINE
8
BLACK
6
CONTINUOUS
10
162.221
20
-149.666
11
161.935
21
-149.523
0
LINE
8
BLACK
6
CONTINUOUS
10
161.935
20
-149.523
11
161.792
21
-149.38
0
LINE
8
BLACK
6
CONTINUOUS
10
161.792
20
-149.38
11
161.65
21
-149.095
0
LINE
8
BLACK
6
CONTINUOUS
10
161.65
20
-149.095
11
161.507
21
-148.523
0
LINE
8
BLACK
6
CONTINUOUS
10
161.507
20
-148.523
11
161.507
21
-147.809
0
LINE
8
BLACK
6
CONTINUOUS
10
161.507
20
-147.809
11
161.65
21
-147.238
0
LINE
8
BLACK
6
CONTINUOUS
10
161.65
20
-147.238
11
161.792
21
-146.952
0
LINE
8
BLACK
6
CONTINUOUS
10
161.792
20
-146.952
11
161.935
21
-146.809
0
LINE
8
BLACK
6
CONTINUOUS
10
161.935
20
-146.809
11
162.221
21
-146.666
0
LINE
8
BLACK
6
CONTINUOUS
10
164.507
20
-149.38
11
164.65
21
-149.523
0
LINE
8
BLACK
6
CONTINUOUS
10
164.65
20
-149.523
11
164.507
21
-149.666
0
LINE
8
BLACK
6
CONTINUOUS
10
164.507
20
-149.666
11
164.364
21
-149.523
0
LINE
8
BLACK
6
CONTINUOUS
10
164.364
20
-149.523
11
164.507
21
-149.38
0
LINE
8
BLACK
6
CONTINUOUS
10
164.507
20
-149.38
11
164.507
21
-149.666
0
LINE
8
BLACK
6
CONTINUOUS
10
166.507
20
-146.666
11
166.792
21
-146.666
0
LINE
8
BLACK
6
CONTINUOUS
10
166.792
20
-146.666
11
167.078
21
-146.809
0
LINE
8
BLACK
6
CONTINUOUS
10
167.078
20
-146.809
11
167.221
21
-146.952
0
LINE
8
BLACK
6
CONTINUOUS
10
167.221
20
-146.952
11
167.364
21
-147.238
0
LINE
8
BLACK
6
CONTINUOUS
10
167.364
20
-147.238
11
167.507
21
-147.809
0
LINE
8
BLACK
6
CONTINUOUS
10
167.507
20
-147.809
11
167.507
21
-148.523
0
LINE
8
BLACK
6
CONTINUOUS
10
167.507
20
-148.523
11
167.364
21
-149.095
0
LINE
8
BLACK
6
CONTINUOUS
10
167.364
20
-149.095
11
167.221
21
-149.38
0
LINE
8
BLACK
6
CONTINUOUS
10
167.221
20
-149.38
11
167.078
21
-149.523
0
LINE
8
BLACK
6
CONTINUOUS
10
167.078
20
-149.523
11
166.792
21
-149.666
0
LINE
8
BLACK
6
CONTINUOUS
10
166.792
20
-149.666
11
166.507
21
-149.666
0
LINE
8
BLACK
6
CONTINUOUS
10
166.507
20
-149.666
11
166.221
21
-149.523
0
LINE
8
BLACK
6
CONTINUOUS
10
166.221
20
-149.523
11
166.078
21
-149.38
0
LINE
8
BLACK
6
CONTINUOUS
10
166.078
20
-149.38
11
165.935
21
-149.095
0
LINE
8
BLACK
6
CONTINUOUS
10
165.935
20
-149.095
11
165.792
21
-148.523
0
LINE
8
BLACK
6
CONTINUOUS
10
165.792
20
-148.523
11
165.792
21
-147.809
0
LINE
8
BLACK
6
CONTINUOUS
10
165.792
20
-147.809
11
165.935
21
-147.238
0
LINE
8
BLACK
6
CONTINUOUS
10
165.935
20
-147.238
11
166.078
21
-146.952
0
LINE
8
BLACK
6
CONTINUOUS
10
166.078
20
-146.952
11
166.221
21
-146.809
0
LINE
8
BLACK
6
CONTINUOUS
10
166.221
20
-146.809
11
166.507
21
-146.666
0
LINE
8
BLACK
6
CONTINUOUS
10
168.507
20
-146.666
11
170.364
21
-146.666
0
LINE
8
BLACK
6
CONTINUOUS
10
170.364
20
-146.666
11
169.364
21
-147.809
0
LINE
8
BLACK
6
CONTINUOUS
10
169.364
20
-147.809
11
169.792
21
-147.809
0
LINE
8
BLACK
6
CONTINUOUS
10
169.792
20
-147.809
11
170.078
21
-147.952
0
LINE
8
BLACK
6
CONTINUOUS
10
170.078
20
-147.952
11
170.221
21
-148.095
0
LINE
8
BLACK
6
CONTINUOUS
10
170.221
20
-148.095
11
170.364
21
-148.38
0
LINE
8
BLACK
6
CONTINUOUS
10
170.364
20
-148.38
11
170.364
21
-149.095
0
LINE
8
BLACK
6
CONTINUOUS
10
170.364
20
-149.095
11
170.221
21
-149.38
0
LINE
8
BLACK
6
CONTINUOUS
10
170.221
20
-149.38
11
170.078
21
-149.523
0
LINE
8
BLACK
6
CONTINUOUS
10
170.078
20
-149.523
11
169.792
21
-149.666
0
LINE
8
BLACK
6
CONTINUOUS
10
169.792
20
-149.666
11
168.935
21
-149.666
0
LINE
8
BLACK
6
CONTINUOUS
10
168.935
20
-149.666
11
168.65
21
-149.523
0
LINE
8
BLACK
6
CONTINUOUS
10
168.65
20
-149.523
11
168.507
21
-149.38
0
LINE
8
BLACK
6
CONTINUOUS
10
173.221
20
-149.666
11
171.507
21
-149.666
0
LINE
8
BLACK
6
CONTINUOUS
10
172.364
20
-149.666
11
172.364
21
-146.666
0
LINE
8
BLACK
6
CONTINUOUS
10
172.364
20
-146.666
11
172.078
21
-147.095
0
LINE
8
BLACK
6
CONTINUOUS
10
172.078
20
-147.095
11
171.792
21
-147.38
0
LINE
8
BLACK
6
CONTINUOUS
10
171.792
20
-147.38
11
171.507
21
-147.523
0
LINE
8
BLACK
6
CONTINUOUS
10
174.364
20
-146.666
11
174.364
21
-147.238
0
LINE
8
BLACK
6
CONTINUOUS
10
175.507
20
-146.666
11
175.507
21
-147.238
0
LINE
8
BLACK
6
CONTINUOUS
10
179.935
20
-150.809
11
179.792
21
-150.666
0
LINE
8
BLACK
6
CONTINUOUS
10
179.792
20
-150.666
11
179.507
21
-150.238
0
LINE
8
BLACK
6
CONTINUOUS
10
179.507
20
-150.238
11
179.364
21
-149.952
0
LINE
8
BLACK
6
CONTINUOUS
10
179.364
20
-149.952
11
179.221
21
-149.523
0
LINE
8
BLACK
6
CONTINUOUS
10
179.221
20
-149.523
11
179.078
21
-148.809
0
LINE
8
BLACK
6
CONTINUOUS
10
179.078
20
-148.809
11
179.078
21
-148.238
0
LINE
8
BLACK
6
CONTINUOUS
10
179.078
20
-148.238
11
179.221
21
-147.523
0
LINE
8
BLACK
6
CONTINUOUS
10
179.221
20
-147.523
11
179.364
21
-147.095
0
LINE
8
BLACK
6
CONTINUOUS
10
179.364
20
-147.095
11
179.507
21
-146.809
0
LINE
8
BLACK
6
CONTINUOUS
10
179.507
20
-146.809
11
179.792
21
-146.38
0
LINE
8
BLACK
6
CONTINUOUS
10
179.792
20
-146.38
11
179.935
21
-146.238
0
LINE
8
BLACK
6
CONTINUOUS
10
182.65
20
-149.666
11
180.935
21
-149.666
0
LINE
8
BLACK
6
CONTINUOUS
10
181.792
20
-149.666
11
181.792
21
-146.666
0
LINE
8
BLACK
6
CONTINUOUS
10
181.792
20
-146.666
11
181.507
21
-147.095
0
LINE
8
BLACK
6
CONTINUOUS
10
181.507
20
-147.095
11
181.221
21
-147.38
0
LINE
8
BLACK
6
CONTINUOUS
10
181.221
20
-147.38
11
180.935
21
-147.523
0
LINE
8
BLACK
6
CONTINUOUS
10
185.221
20
-147.666
11
185.221
21
-149.666
0
LINE
8
BLACK
6
CONTINUOUS
10
184.507
20
-146.523
11
183.792
21
-148.666
0
LINE
8
BLACK
6
CONTINUOUS
10
183.792
20
-148.666
11
185.65
21
-148.666
0
LINE
8
BLACK
6
CONTINUOUS
10
189.078
20
-149.666
11
189.078
21
-146.666
0
LINE
8
BLACK
6
CONTINUOUS
10
190.364
20
-149.666
11
190.364
21
-148.095
0
LINE
8
BLACK
6
CONTINUOUS
10
190.364
20
-148.095
11
190.221
21
-147.809
0
LINE
8
BLACK
6
CONTINUOUS
10
190.221
20
-147.809
11
189.935
21
-147.666
0
LINE
8
BLACK
6
CONTINUOUS
10
189.935
20
-147.666
11
189.507
21
-147.666
0
LINE
8
BLACK
6
CONTINUOUS
10
189.507
20
-147.666
11
189.221
21
-147.809
0
LINE
8
BLACK
6
CONTINUOUS
10
189.221
20
-147.809
11
189.078
21
-147.952
0
LINE
8
BLACK
6
CONTINUOUS
10
192.221
20
-149.666
11
191.935
21
-149.523
0
LINE
8
BLACK
6
CONTINUOUS
10
191.935
20
-149.523
11
191.792
21
-149.38
0
LINE
8
BLACK
6
CONTINUOUS
10
191.792
20
-149.38
11
191.65
21
-149.095
0
LINE
8
BLACK
6
CONTINUOUS
10
191.65
20
-149.095
11
191.65
21
-148.238
0
LINE
8
BLACK
6
CONTINUOUS
10
191.65
20
-148.238
11
191.792
21
-147.952
0
LINE
8
BLACK
6
CONTINUOUS
10
191.792
20
-147.952
11
191.935
21
-147.809
0
LINE
8
BLACK
6
CONTINUOUS
10
191.935
20
-147.809
11
192.221
21
-147.666
0
LINE
8
BLACK
6
CONTINUOUS
10
192.221
20
-147.666
11
192.65
21
-147.666
0
LINE
8
BLACK
6
CONTINUOUS
10
192.65
20
-147.666
11
192.935
21
-147.809
0
LINE
8
BLACK
6
CONTINUOUS
10
192.935
20
-147.809
11
193.078
21
-147.952
0
LINE
8
BLACK
6
CONTINUOUS
10
193.078
20
-147.952
11
193.221
21
-148.238
0
LINE
8
BLACK
6
CONTINUOUS
10
193.221
20
-148.238
11
193.221
21
-149.095
0
LINE
8
BLACK
6
CONTINUOUS
10
193.221
20
-149.095
11
193.078
21
-149.38
0
LINE
8
BLACK
6
CONTINUOUS
10
193.078
20
-149.38
11
192.935
21
-149.523
0
LINE
8
BLACK
6
CONTINUOUS
10
192.935
20
-149.523
11
192.65
21
-149.666
0
LINE
8
BLACK
6
CONTINUOUS
10
192.65
20
-149.666
11
192.221
21
-149.666
0
LINE
8
BLACK
6
CONTINUOUS
10
194.935
20
-149.666
11
194.65
21
-149.523
0
LINE
8
BLACK
6
CONTINUOUS
10
194.65
20
-149.523
11
194.507
21
-149.238
0
LINE
8
BLACK
6
CONTINUOUS
10
194.507
20
-149.238
11
194.507
21
-146.666
0
LINE
8
BLACK
6
CONTINUOUS
10
197.221
20
-149.523
11
196.935
21
-149.666
0
LINE
8
BLACK
6
CONTINUOUS
10
196.935
20
-149.666
11
196.364
21
-149.666
0
LINE
8
BLACK
6
CONTINUOUS
10
196.364
20
-149.666
11
196.078
21
-149.523
0
LINE
8
BLACK
6
CONTINUOUS
10
196.078
20
-149.523
11
195.935
21
-149.238
0
LINE
8
BLACK
6
CONTINUOUS
10
195.935
20
-149.238
11
195.935
21
-148.095
0
LINE
8
BLACK
6
CONTINUOUS
10
195.935
20
-148.095
11
196.078
21
-147.809
0
LINE
8
BLACK
6
CONTINUOUS
10
196.078
20
-147.809
11
196.364
21
-147.666
0
LINE
8
BLACK
6
CONTINUOUS
10
196.364
20
-147.666
11
196.935
21
-147.666
0
LINE
8
BLACK
6
CONTINUOUS
10
196.935
20
-147.666
11
197.221
21
-147.809
0
LINE
8
BLACK
6
CONTINUOUS
10
197.221
20
-147.809
11
197.364
21
-148.095
0
LINE
8
BLACK
6
CONTINUOUS
10
197.364
20
-148.095
11
197.364
21
-148.38
0
LINE
8
BLACK
6
CONTINUOUS
10
197.364
20
-148.38
11
195.935
21
-148.666
0
LINE
8
BLACK
6
CONTINUOUS
10
198.507
20
-149.523
11
198.792
21
-149.666
0
LINE
8
BLACK
6
CONTINUOUS
10
198.792
20
-149.666
11
199.364
21
-149.666
0
LINE
8
BLACK
6
CONTINUOUS
10
199.364
20
-149.666
11
199.65
21
-149.523
0
LINE
8
BLACK
6
CONTINUOUS
10
199.65
20
-149.523
11
199.792
21
-149.238
0
LINE
8
BLACK
6
CONTINUOUS
10
199.792
20
-149.238
11
199.792
21
-149.095
0
LINE
8
BLACK
6
CONTINUOUS
10
199.792
20
-149.095
11
199.65
21
-148.809
0
LINE
8
BLACK
6
CONTINUOUS
10
199.65
20
-148.809
11
199.364
21
-148.666
0
LINE
8
BLACK
6
CONTINUOUS
10
199.364
20
-148.666
11
198.935
21
-148.666
0
LINE
8
BLACK
6
CONTINUOUS
10
198.935
20
-148.666
11
198.65
21
-148.523
0
LINE
8
BLACK
6
CONTINUOUS
10
198.65
20
-148.523
11
198.507
21
-148.238
0
LINE
8
BLACK
6
CONTINUOUS
10
198.507
20
-148.238
11
198.507
21
-148.095
0
LINE
8
BLACK
6
CONTINUOUS
10
198.507
20
-148.095
11
198.65
21
-147.809
0
LINE
8
BLACK
6
CONTINUOUS
10
198.65
20
-147.809
11
198.935
21
-147.666
0
LINE
8
BLACK
6
CONTINUOUS
10
198.935
20
-147.666
11
199.364
21
-147.666
0
LINE
8
BLACK
6
CONTINUOUS
10
199.364
20
-147.666
11
199.65
21
-147.809
0
LINE
8
BLACK
6
CONTINUOUS
10
200.792
20
-150.809
11
200.935
21
-150.666
0
LINE
8
BLACK
6
CONTINUOUS
10
200.935
20
-150.666
11
201.221
21
-150.238
0
LINE
8
BLACK
6
CONTINUOUS
10
201.221
20
-150.238
11
201.364
21
-149.952
0
LINE
8
BLACK
6
CONTINUOUS
10
201.364
20
-149.952
11
201.507
21
-149.523
0
LINE
8
BLACK
6
CONTINUOUS
10
201.507
20
-149.523
11
201.65
21
-148.809
0
LINE
8
BLACK
6
CONTINUOUS
10
201.65
20
-148.809
11
201.65
21
-148.238
0
LINE
8
BLACK
6
CONTINUOUS
10
201.65
20
-148.238
11
201.507
21
-147.523
0
LINE
8
BLACK
6
CONTINUOUS
10
201.507
20
-147.523
11
201.364
21
-147.095
0
LINE
8
BLACK
6
CONTINUOUS
10
201.364
20
-147.095
11
201.221
21
-146.809
0
LINE
8
BLACK
6
CONTINUOUS
10
201.221
20
-146.809
11
200.935
21
-146.38
0
LINE
8
BLACK
6
CONTINUOUS
10
200.935
20
-146.38
11
200.792
21
-146.238
0
CIRCLE
8
BLACK
10
132.471
20
-152.269
40
0.6
0
LINE
8
BLACK
6
CONTINUOUS
10
137.507
20
-153.626
11
135.792
21
-153.626
0
LINE
8
BLACK
6
CONTINUOUS
10
136.65
20
-153.626
11
136.65
21
-150.626
0
LINE
8
BLACK
6
CONTINUOUS
10
136.65
20
-150.626
11
136.364
21
-151.055
0
LINE
8
BLACK
6
CONTINUOUS
10
136.364
20
-151.055
11
136.078
21
-151.34
0
LINE
8
BLACK
6
CONTINUOUS
10
136.078
20
-151.34
11
135.792
21
-151.483
0
LINE
8
BLACK
6
CONTINUOUS
10
138.792
20
-153.34
11
138.935
21
-153.483
0
LINE
8
BLACK
6
CONTINUOUS
10
138.935
20
-153.483
11
138.792
21
-153.626
0
LINE
8
BLACK
6
CONTINUOUS
10
138.792
20
-153.626
11
138.65
21
-153.483
0
LINE
8
BLACK
6
CONTINUOUS
10
138.65
20
-153.483
11
138.792
21
-153.34
0
LINE
8
BLACK
6
CONTINUOUS
10
138.792
20
-153.34
11
138.792
21
-153.626
0
LINE
8
BLACK
6
CONTINUOUS
10
140.078
20
-150.912
11
140.221
21
-150.769
0
LINE
8
BLACK
6
CONTINUOUS
10
140.221
20
-150.769
11
140.507
21
-150.626
0
LINE
8
BLACK
6
CONTINUOUS
10
140.507
20
-150.626
11
141.221
21
-150.626
0
LINE
8
BLACK
6
CONTINUOUS
10
141.221
20
-150.626
11
141.507
21
-150.769
0
LINE
8
BLACK
6
CONTINUOUS
10
141.507
20
-150.769
11
141.65
21
-150.912
0
LINE
8
BLACK
6
CONTINUOUS
10
141.65
20
-150.912
11
141.792
21
-151.198
0
LINE
8
BLACK
6
CONTINUOUS
10
141.792
20
-151.198
11
141.792
21
-151.483
0
LINE
8
BLACK
6
CONTINUOUS
10
141.792
20
-151.483
11
141.65
21
-151.912
0
LINE
8
BLACK
6
CONTINUOUS
10
141.65
20
-151.912
11
139.935
21
-153.626
0
LINE
8
BLACK
6
CONTINUOUS
10
139.935
20
-153.626
11
141.792
21
-153.626
0
LINE
8
BLACK
6
CONTINUOUS
10
143.65
20
-150.626
11
143.935
21
-150.626
0
LINE
8
BLACK
6
CONTINUOUS
10
143.935
20
-150.626
11
144.221
21
-150.769
0
LINE
8
BLACK
6
CONTINUOUS
10
144.221
20
-150.769
11
144.364
21
-150.912
0
LINE
8
BLACK
6
CONTINUOUS
10
144.364
20
-150.912
11
144.507
21
-151.198
0
LINE
8
BLACK
6
CONTINUOUS
10
144.507
20
-151.198
11
144.65
21
-151.769
0
LINE
8
BLACK
6
CONTINUOUS
10
144.65
20
-151.769
11
144.65
21
-152.483
0
LINE
8
BLACK
6
CONTINUOUS
10
144.65
20
-152.483
11
144.507
21
-153.055
0
LINE
8
BLACK
6
CONTINUOUS
10
144.507
20
-153.055
11
144.364
21
-153.34
0
LINE
8
BLACK
6
CONTINUOUS
10
144.364
20
-153.34
11
144.221
21
-153.483
0
LINE
8
BLACK
6
CONTINUOUS
10
144.221
20
-153.483
11
143.935
21
-153.626
0
LINE
8
BLACK
6
CONTINUOUS
10
143.935
20
-153.626
11
143.65
21
-153.626
0
LINE
8
BLACK
6
CONTINUOUS
10
143.65
20
-153.626
11
143.364
21
-153.483
0
LINE
8
BLACK
6
CONTINUOUS
10
143.364
20
-153.483
11
143.221
21
-153.34
0
LINE
8
BLACK
6
CONTINUOUS
10
143.221
20
-153.34
11
143.078
21
-153.055
0
LINE
8
BLACK
6
CONTINUOUS
10
143.078
20
-153.055
11
142.935
21
-152.483
0
LINE
8
BLACK
6
CONTINUOUS
10
142.935
20
-152.483
11
142.935
21
-151.769
0
LINE
8
BLACK
6
CONTINUOUS
10
142.935
20
-151.769
11
143.078
21
-151.198
0
LINE
8
BLACK
6
CONTINUOUS
10
143.078
20
-151.198
11
143.221
21
-150.912
0
LINE
8
BLACK
6
CONTINUOUS
10
143.221
20
-150.912
11
143.364
21
-150.769
0
LINE
8
BLACK
6
CONTINUOUS
10
143.364
20
-150.769
11
143.65
21
-150.626
0
LINE
8
BLACK
6
CONTINUOUS
10
145.935
20
-153.626
11
145.935
21
-151.626
0
LINE
8
BLACK
6
CONTINUOUS
10
145.935
20
-151.912
11
146.078
21
-151.769
0
LINE
8
BLACK
6
CONTINUOUS
10
146.078
20
-151.769
11
146.364
21
-151.626
0
LINE
8
BLACK
6
CONTINUOUS
10
146.364
20
-151.626
11
146.792
21
-151.626
0
LINE
8
BLACK
6
CONTINUOUS
10
146.792
20
-151.626
11
147.078
21
-151.769
0
LINE
8
BLACK
6
CONTINUOUS
10
147.078
20
-151.769
11
147.221
21
-152.055
0
LINE
8
BLACK
6
CONTINUOUS
10
147.221
20
-152.055
11
147.221
21
-153.626
0
LINE
8
BLACK
6
CONTINUOUS
10
147.221
20
-152.055
11
147.364
21
-151.769
0
LINE
8
BLACK
6
CONTINUOUS
10
147.364
20
-151.769
11
147.65
21
-151.626
0
LINE
8
BLACK
6
CONTINUOUS
10
147.65
20
-151.626
11
148.078
21
-151.626
0
LINE
8
BLACK
6
CONTINUOUS
10
148.078
20
-151.626
11
148.364
21
-151.769
0
LINE
8
BLACK
6
CONTINUOUS
10
148.364
20
-151.769
11
148.507
21
-152.055
0
LINE
8
BLACK
6
CONTINUOUS
10
148.507
20
-152.055
11
148.507
21
-153.626
0
LINE
8
BLACK
6
CONTINUOUS
10
149.935
20
-153.626
11
149.935
21
-151.626
0
LINE
8
BLACK
6
CONTINUOUS
10
149.935
20
-151.912
11
150.078
21
-151.769
0
LINE
8
BLACK
6
CONTINUOUS
10
150.078
20
-151.769
11
150.364
21
-151.626
0
LINE
8
BLACK
6
CONTINUOUS
10
150.364
20
-151.626
11
150.792
21
-151.626
0
LINE
8
BLACK
6
CONTINUOUS
10
150.792
20
-151.626
11
151.078
21
-151.769
0
LINE
8
BLACK
6
CONTINUOUS
10
151.078
20
-151.769
11
151.221
21
-152.055
0
LINE
8
BLACK
6
CONTINUOUS
10
151.221
20
-152.055
11
151.221
21
-153.626
0
LINE
8
BLACK
6
CONTINUOUS
10
151.221
20
-152.055
11
151.364
21
-151.769
0
LINE
8
BLACK
6
CONTINUOUS
10
151.364
20
-151.769
11
151.65
21
-151.626
0
LINE
8
BLACK
6
CONTINUOUS
10
151.65
20
-151.626
11
152.078
21
-151.626
0
LINE
8
BLACK
6
CONTINUOUS
10
152.078
20
-151.626
11
152.364
21
-151.769
0
LINE
8
BLACK
6
CONTINUOUS
10
152.364
20
-151.769
11
152.507
21
-152.055
0
LINE
8
BLACK
6
CONTINUOUS
10
152.507
20
-152.055
11
152.507
21
-153.626
0
LINE
8
BLACK
6
CONTINUOUS
10
158.364
20
-150.483
11
155.792
21
-154.34
0
LINE
8
BLACK
6
CONTINUOUS
10
162.221
20
-150.626
11
162.507
21
-150.626
0
LINE
8
BLACK
6
CONTINUOUS
10
162.507
20
-150.626
11
162.792
21
-150.769
0
LINE
8
BLACK
6
CONTINUOUS
10
162.792
20
-150.769
11
162.935
21
-150.912
0
LINE
8
BLACK
6
CONTINUOUS
10
162.935
20
-150.912
11
163.078
21
-151.198
0
LINE
8
BLACK
6
CONTINUOUS
10
163.078
20
-151.198
11
163.221
21
-151.769
0
LINE
8
BLACK
6
CONTINUOUS
10
163.221
20
-151.769
11
163.221
21
-152.483
0
LINE
8
BLACK
6
CONTINUOUS
10
163.221
20
-152.483
11
163.078
21
-153.055
0
LINE
8
BLACK
6
CONTINUOUS
10
163.078
20
-153.055
11
162.935
21
-153.34
0
LINE
8
BLACK
6
CONTINUOUS
10
162.935
20
-153.34
11
162.792
21
-153.483
0
LINE
8
BLACK
6
CONTINUOUS
10
162.792
20
-153.483
11
162.507
21
-153.626
0
LINE
8
BLACK
6
CONTINUOUS
10
162.507
20
-153.626
11
162.221
21
-153.626
0
LINE
8
BLACK
6
CONTINUOUS
10
162.221
20
-153.626
11
161.935
21
-153.483
0
LINE
8
BLACK
6
CONTINUOUS
10
161.935
20
-153.483
11
161.792
21
-153.34
0
LINE
8
BLACK
6
CONTINUOUS
10
161.792
20
-153.34
11
161.65
21
-153.055
0
LINE
8
BLACK
6
CONTINUOUS
10
161.65
20
-153.055
11
161.507
21
-152.483
0
LINE
8
BLACK
6
CONTINUOUS
10
161.507
20
-152.483
11
161.507
21
-151.769
0
LINE
8
BLACK
6
CONTINUOUS
10
161.507
20
-151.769
11
161.65
21
-151.198
0
LINE
8
BLACK
6
CONTINUOUS
10
161.65
20
-151.198
11
161.792
21
-150.912
0
LINE
8
BLACK
6
CONTINUOUS
10
161.792
20
-150.912
11
161.935
21
-150.769
0
LINE
8
BLACK
6
CONTINUOUS
10
161.935
20
-150.769
11
162.221
21
-150.626
0
LINE
8
BLACK
6
CONTINUOUS
10
164.507
20
-153.34
11
164.65
21
-153.483
0
LINE
8
BLACK
6
CONTINUOUS
10
164.65
20
-153.483
11
164.507
21
-153.626
0
LINE
8
BLACK
6
CONTINUOUS
10
164.507
20
-153.626
11
164.364
21
-153.483
0
LINE
8
BLACK
6
CONTINUOUS
10
164.364
20
-153.483
11
164.507
21
-153.34
0
LINE
8
BLACK
6
CONTINUOUS
10
164.507
20
-153.34
11
164.507
21
-153.626
0
LINE
8
BLACK
6
CONTINUOUS
10
166.507
20
-150.626
11
166.792
21
-150.626
0
LINE
8
BLACK
6
CONTINUOUS
10
166.792
20
-150.626
11
167.078
21
-150.769
0
LINE
8
BLACK
6
CONTINUOUS
10
167.078
20
-150.769
11
167.221
21
-150.912
0
LINE
8
BLACK
6
CONTINUOUS
10
167.221
20
-150.912
11
167.364
21
-151.198
0
LINE
8
BLACK
6
CONTINUOUS
10
167.364
20
-151.198
11
167.507
21
-151.769
0
LINE
8
BLACK
6
CONTINUOUS
10
167.507
20
-151.769
11
167.507
21
-152.483
0
LINE
8
BLACK
6
CONTINUOUS
10
167.507
20
-152.483
11
167.364
21
-153.055
0
LINE
8
BLACK
6
CONTINUOUS
10
167.364
20
-153.055
11
167.221
21
-153.34
0
LINE
8
BLACK
6
CONTINUOUS
10
167.221
20
-153.34
11
167.078
21
-153.483
0
LINE
8
BLACK
6
CONTINUOUS
10
167.078
20
-153.483
11
166.792
21
-153.626
0
LINE
8
BLACK
6
CONTINUOUS
10
166.792
20
-153.626
11
166.507
21
-153.626
0
LINE
8
BLACK
6
CONTINUOUS
10
166.507
20
-153.626
11
166.221
21
-153.483
0
LINE
8
BLACK
6
CONTINUOUS
10
166.221
20
-153.483
11
166.078
21
-153.34
0
LINE
8
BLACK
6
CONTINUOUS
10
166.078
20
-153.34
11
165.935
21
-153.055
0
LINE
8
BLACK
6
CONTINUOUS
10
165.935
20
-153.055
11
165.792
21
-152.483
0
LINE
8
BLACK
6
CONTINUOUS
10
165.792
20
-152.483
11
165.792
21
-151.769
0
LINE
8
BLACK
6
CONTINUOUS
10
165.792
20
-151.769
11
165.935
21
-151.198
0
LINE
8
BLACK
6
CONTINUOUS
10
165.935
20
-151.198
11
166.078
21
-150.912
0
LINE
8
BLACK
6
CONTINUOUS
10
166.078
20
-150.912
11
166.221
21
-150.769
0
LINE
8
BLACK
6
CONTINUOUS
10
166.221
20
-150.769
11
166.507
21
-150.626
0
LINE
8
BLACK
6
CONTINUOUS
10
170.078
20
-151.626
11
170.078
21
-153.626
0
LINE
8
BLACK
6
CONTINUOUS
10
169.364
20
-150.483
11
168.65
21
-152.626
0
LINE
8
BLACK
6
CONTINUOUS
10
168.65
20
-152.626
11
170.507
21
-152.626
0
LINE
8
BLACK
6
CONTINUOUS
10
171.364
20
-150.626
11
173.364
21
-150.626
0
LINE
8
BLACK
6
CONTINUOUS
10
173.364
20
-150.626
11
172.078
21
-153.626
0
LINE
8
BLACK
6
CONTINUOUS
10
174.364
20
-150.626
11
174.364
21
-151.198
0
LINE
8
BLACK
6
CONTINUOUS
10
175.507
20
-150.626
11
175.507
21
-151.198
0
LINE
8
BLACK
6
CONTINUOUS
10
179.935
20
-154.769
11
179.792
21
-154.626
0
LINE
8
BLACK
6
CONTINUOUS
10
179.792
20
-154.626
11
179.507
21
-154.198
0
LINE
8
BLACK
6
CONTINUOUS
10
179.507
20
-154.198
11
179.364
21
-153.912
0
LINE
8
BLACK
6
CONTINUOUS
10
179.364
20
-153.912
11
179.221
21
-153.483
0
LINE
8
BLACK
6
CONTINUOUS
10
179.221
20
-153.483
11
179.078
21
-152.769
0
LINE
8
BLACK
6
CONTINUOUS
10
179.078
20
-152.769
11
179.078
21
-152.198
0
LINE
8
BLACK
6
CONTINUOUS
10
179.078
20
-152.198
11
179.221
21
-151.483
0
LINE
8
BLACK
6
CONTINUOUS
10
179.221
20
-151.483
11
179.364
21
-151.055
0
LINE
8
BLACK
6
CONTINUOUS
10
179.364
20
-151.055
11
179.507
21
-150.769
0
LINE
8
BLACK
6
CONTINUOUS
10
179.507
20
-150.769
11
179.792
21
-150.34
0
LINE
8
BLACK
6
CONTINUOUS
10
179.792
20
-150.34
11
179.935
21
-150.198
0
LINE
8
BLACK
6
CONTINUOUS
10
182.364
20
-151.626
11
182.364
21
-153.626
0
LINE
8
BLACK
6
CONTINUOUS
10
181.65
20
-150.483
11
180.935
21
-152.626
0
LINE
8
BLACK
6
CONTINUOUS
10
180.935
20
-152.626
11
182.792
21
-152.626
0
LINE
8
BLACK
6
CONTINUOUS
10
185.221
20
-150.626
11
184.65
21
-150.626
0
LINE
8
BLACK
6
CONTINUOUS
10
184.65
20
-150.626
11
184.364
21
-150.769
0
LINE
8
BLACK
6
CONTINUOUS
10
184.364
20
-150.769
11
184.221
21
-150.912
0
LINE
8
BLACK
6
CONTINUOUS
10
184.221
20
-150.912
11
183.935
21
-151.34
0
LINE
8
BLACK
6
CONTINUOUS
10
183.935
20
-151.34
11
183.792
21
-151.912
0
LINE
8
BLACK
6
CONTINUOUS
10
183.792
20
-151.912
11
183.792
21
-153.055
0
LINE
8
BLACK
6
CONTINUOUS
10
183.792
20
-153.055
11
183.935
21
-153.34
0
LINE
8
BLACK
6
CONTINUOUS
10
183.935
20
-153.34
11
184.078
21
-153.483
0
LINE
8
BLACK
6
CONTINUOUS
10
184.078
20
-153.483
11
184.364
21
-153.626
0
LINE
8
BLACK
6
CONTINUOUS
10
184.364
20
-153.626
11
184.935
21
-153.626
0
LINE
8
BLACK
6
CONTINUOUS
10
184.935
20
-153.626
11
185.221
21
-153.483
0
LINE
8
BLACK
6
CONTINUOUS
10
185.221
20
-153.483
11
185.364
21
-153.34
0
LINE
8
BLACK
6
CONTINUOUS
10
185.364
20
-153.34
11
185.507
21
-153.055
0
LINE
8
BLACK
6
CONTINUOUS
10
185.507
20
-153.055
11
185.507
21
-152.34
0
LINE
8
BLACK
6
CONTINUOUS
10
185.507
20
-152.34
11
185.364
21
-152.055
0
LINE
8
BLACK
6
CONTINUOUS
10
185.364
20
-152.055
11
185.221
21
-151.912
0
LINE
8
BLACK
6
CONTINUOUS
10
185.221
20
-151.912
11
184.935
21
-151.769
0
LINE
8
BLACK
6
CONTINUOUS
10
184.935
20
-151.769
11
184.364
21
-151.769
0
LINE
8
BLACK
6
CONTINUOUS
10
184.364
20
-151.769
11
184.078
21
-151.912
0
LINE
8
BLACK
6
CONTINUOUS
10
184.078
20
-151.912
11
183.935
21
-152.055
0
LINE
8
BLACK
6
CONTINUOUS
10
183.935
20
-152.055
11
183.792
21
-152.34
0
LINE
8
BLACK
6
CONTINUOUS
10
189.078
20
-153.626
11
189.078
21
-150.626
0
LINE
8
BLACK
6
CONTINUOUS
10
190.364
20
-153.626
11
190.364
21
-152.055
0
LINE
8
BLACK
6
CONTINUOUS
10
190.364
20
-152.055
11
190.221
21
-151.769
0
LINE
8
BLACK
6
CONTINUOUS
10
190.221
20
-151.769
11
189.935
21
-151.626
0
LINE
8
BLACK
6
CONTINUOUS
10
189.935
20
-151.626
11
189.507
21
-151.626
0
LINE
8
BLACK
6
CONTINUOUS
10
189.507
20
-151.626
11
189.221
21
-151.769
0
LINE
8
BLACK
6
CONTINUOUS
10
189.221
20
-151.769
11
189.078
21
-151.912
0
LINE
8
BLACK
6
CONTINUOUS
10
192.221
20
-153.626
11
191.935
21
-153.483
0
LINE
8
BLACK
6
CONTINUOUS
10
191.935
20
-153.483
11
191.792
21
-153.34
0
LINE
8
BLACK
6
CONTINUOUS
10
191.792
20
-153.34
11
191.65
21
-153.055
0
LINE
8
BLACK
6
CONTINUOUS
10
191.65
20
-153.055
11
191.65
21
-152.198
0
LINE
8
BLACK
6
CONTINUOUS
10
191.65
20
-152.198
11
191.792
21
-151.912
0
LINE
8
BLACK
6
CONTINUOUS
10
191.792
20
-151.912
11
191.935
21
-151.769
0
LINE
8
BLACK
6
CONTINUOUS
10
191.935
20
-151.769
11
192.221
21
-151.626
0
LINE
8
BLACK
6
CONTINUOUS
10
192.221
20
-151.626
11
192.65
21
-151.626
0
LINE
8
BLACK
6
CONTINUOUS
10
192.65
20
-151.626
11
192.935
21
-151.769
0
LINE
8
BLACK
6
CONTINUOUS
10
192.935
20
-151.769
11
193.078
21
-151.912
0
LINE
8
BLACK
6
CONTINUOUS
10
193.078
20
-151.912
11
193.221
21
-152.198
0
LINE
8
BLACK
6
CONTINUOUS
10
193.221
20
-152.198
11
193.221
21
-153.055
0
LINE
8
BLACK
6
CONTINUOUS
10
193.221
20
-153.055
11
193.078
21
-153.34
0
LINE
8
BLACK
6
CONTINUOUS
10
193.078
20
-153.34
11
192.935
21
-153.483
0
LINE
8
BLACK
6
CONTINUOUS
10
192.935
20
-153.483
11
192.65
21
-153.626
0
LINE
8
BLACK
6
CONTINUOUS
10
192.65
20
-153.626
11
192.221
21
-153.626
0
LINE
8
BLACK
6
CONTINUOUS
10
194.935
20
-153.626
11
194.65
21
-153.483
0
LINE
8
BLACK
6
CONTINUOUS
10
194.65
20
-153.483
11
194.507
21
-153.198
0
LINE
8
BLACK
6
CONTINUOUS
10
194.507
20
-153.198
11
194.507
21
-150.626
0
LINE
8
BLACK
6
CONTINUOUS
10
197.221
20
-153.483
11
196.935
21
-153.626
0
LINE
8
BLACK
6
CONTINUOUS
10
196.935
20
-153.626
11
196.364
21
-153.626
0
LINE
8
BLACK
6
CONTINUOUS
10
196.364
20
-153.626
11
196.078
21
-153.483
0
LINE
8
BLACK
6
CONTINUOUS
10
196.078
20
-153.483
11
195.935
21
-153.198
0
LINE
8
BLACK
6
CONTINUOUS
10
195.935
20
-153.198
11
195.935
21
-152.055
0
LINE
8
BLACK
6
CONTINUOUS
10
195.935
20
-152.055
11
196.078
21
-151.769
0
LINE
8
BLACK
6
CONTINUOUS
10
196.078
20
-151.769
11
196.364
21
-151.626
0
LINE
8
BLACK
6
CONTINUOUS
10
196.364
20
-151.626
11
196.935
21
-151.626
0
LINE
8
BLACK
6
CONTINUOUS
10
196.935
20
-151.626
11
197.221
21
-151.769
0
LINE
8
BLACK
6
CONTINUOUS
10
197.221
20
-151.769
11
197.364
21
-152.055
0
LINE
8
BLACK
6
CONTINUOUS
10
197.364
20
-152.055
11
197.364
21
-152.34
0
LINE
8
BLACK
6
CONTINUOUS
10
197.364
20
-152.34
11
195.935
21
-152.626
0
LINE
8
BLACK
6
CONTINUOUS
10
198.507
20
-153.483
11
198.792
21
-153.626
0
LINE
8
BLACK
6
CONTINUOUS
10
198.792
20
-153.626
11
199.364
21
-153.626
0
LINE
8
BLACK
6
CONTINUOUS
10
199.364
20
-153.626
11
199.65
21
-153.483
0
LINE
8
BLACK
6
CONTINUOUS
10
199.65
20
-153.483
11
199.792
21
-153.198
0
LINE
8
BLACK
6
CONTINUOUS
10
199.792
20
-153.198
11
199.792
21
-153.055
0
LINE
8
BLACK
6
CONTINUOUS
10
199.792
20
-153.055
11
199.65
21
-152.769
0
LINE
8
BLACK
6
CONTINUOUS
10
199.65
20
-152.769
11
199.364
21
-152.626
0
LINE
8
BLACK
6
CONTINUOUS
10
199.364
20
-152.626
11
198.935
21
-152.626
0
LINE
8
BLACK
6
CONTINUOUS
10
198.935
20
-152.626
11
198.65
21
-152.483
0
LINE
8
BLACK
6
CONTINUOUS
10
198.65
20
-152.483
11
198.507
21
-152.198
0
LINE
8
BLACK
6
CONTINUOUS
10
198.507
20
-152.198
11
198.507
21
-152.055
0
LINE
8
BLACK
6
CONTINUOUS
10
198.507
20
-152.055
11
198.65
21
-151.769
0
LINE
8
BLACK
6
CONTINUOUS
10
198.65
20
-151.769
11
198.935
21
-151.626
0
LINE
8
BLACK
6
CONTINUOUS
10
198.935
20
-151.626
11
199.364
21
-151.626
0
LINE
8
BLACK
6
CONTINUOUS
10
199.364
20
-151.626
11
199.65
21
-151.769
0
LINE
8
BLACK
6
CONTINUOUS
10
200.792
20
-154.769
11
200.935
21
-154.626
0
LINE
8
BLACK
6
CONTINUOUS
10
200.935
20
-154.626
11
201.221
21
-154.198
0
LINE
8
BLACK
6
CONTINUOUS
10
201.221
20
-154.198
11
201.364
21
-153.912
0
LINE
8
BLACK
6
CONTINUOUS
10
201.364
20
-153.912
11
201.507
21
-153.483
0
LINE
8
BLACK
6
CONTINUOUS
10
201.507
20
-153.483
11
201.65
21
-152.769
0
LINE
8
BLACK
6
CONTINUOUS
10
201.65
20
-152.769
11
201.65
21
-152.198
0
LINE
8
BLACK
6
CONTINUOUS
10
201.65
20
-152.198
11
201.507
21
-151.483
0
LINE
8
BLACK
6
CONTINUOUS
10
201.507
20
-151.483
11
201.364
21
-151.055
0
LINE
8
BLACK
6
CONTINUOUS
10
201.364
20
-151.055
11
201.221
21
-150.769
0
LINE
8
BLACK
6
CONTINUOUS
10
201.221
20
-150.769
11
200.935
21
-150.34
0
LINE
8
BLACK
6
CONTINUOUS
10
200.935
20
-150.34
11
200.792
21
-150.198
  0
ENDSEC
  0
EOF
