  0
SECTION
  2
HEADER
  9
$ANGBASE
  50
0.0
  9
$ANGDIR
  70
1
  9
$MEASUREMENT
  70
1
  0
ENDSEC
  0
SECTION
  2
TABLES
  0
TABLE
  2
LTYPE
  70
4
  0
LTYPE
  5
40F
  2
CONTINUOUS
  70
0
  3
Solid line
  72
65
  73
0
  40
0.0
  0
LTYPE
  5
410
  2
DASHDOT
 70
0
  3
Dash Dot ____ _ ____ _
 72
65
 73
4
 40
2.0
 49
1.25
 49
-0.25
 49
0.25
 49
-0.25
  0
LTYPE
  5
411
  2
DASHED
 70
0
  3
Dashed __ __ __ __ __
 72
65
 73
2
 40
0.75
 49
0.5
 49
-0.25
  0
LTYPE
  5
43B
  2
DOTTED
 70
0
  3
Dotted .  .  .  .
 72
65
 73
2
 40
0.2
 49
0.0
 49
-0.2
  0
ENDTAB
  0
TABLE
  2
STYLE
  70
4
  0
STYLE
  2
KICAD
  70
0
  40
0
  41
1
  42
1
  50
0
  71
0
  3
isocp.shx
  0
STYLE
  2
KICADB
  70
0
  40
0
  41
1
  42
1
  50
0
  71
0
  3
isocp.shx
  0
STYLE
  2
KICADI
  70
0
  40
0
  41
1
  42
1
  50
15
  71
0
  3
isocp.shx
  0
STYLE
  2
KICADBI
  70
0
  40
0
  41
1
  42
1
  50
15
  71
0
  3
isocp.shx
  0
ENDTAB
  0
TABLE
  2
LAYER
  70
1
  0
LAYER
  2
BLACK
  70
0
  62
7
  6
CONTINUOUS
  0
ENDTAB
  0
ENDSEC
  0
SECTION
  2
ENTITIES
0
LINE
8
BLACK
6
CONTINUOUS
10
95.7579999999999956
20
-53.3399999999999963
11
166.8779999999999859
21
-53.3399999999999963
0
LINE
8
BLACK
6
CONTINUOUS
10
166.8779999999999859
20
-53.3399999999999963
11
166.8779999999999859
21
-104.6479999999999961
0
LINE
8
BLACK
6
CONTINUOUS
10
166.8779999999999859
20
-104.6479999999999961
11
95.7579999999999956
21
-104.6479999999999961
0
LINE
8
BLACK
6
CONTINUOUS
10
95.7579999999999956
20
-104.6479999999999961
11
95.7579999999999956
21
-53.3399999999999963
0
CIRCLE
8
BLACK
10
163.5759999999999934
20
-101.0919999999999987
40
1.703884
0
CIRCLE
8
BLACK
10
140.7159999999999798
20
-82.804000000000002
40
1.7960509999999998
0
CIRCLE
8
BLACK
10
163.5759999999999934
20
-56.8960000000000008
40
1.703884
0
CIRCLE
8
BLACK
10
104.902000000000001
20
-82.2959999999999923
40
1.703884
0
CIRCLE
8
BLACK
10
99.0600000000000023
20
-56.8960000000000008
40
1.703884
0
CIRCLE
8
BLACK
10
99.0600000000000023
20
-101.0919999999999987
40
1.7960509999999998
0
CIRCLE
8
BLACK
10
104.902000000000001
20
-59.6899999999999977
40
1.83162
0
LINE
8
BLACK
6
CONTINUOUS
10
98.3157679999999914
20
-107.8128379999999993
11
98.3157679999999914
21
-105.8128379999999993
0
LINE
8
BLACK
6
CONTINUOUS
10
98.3157679999999914
20
-105.8128379999999993
11
98.7919579999999939
21
-105.8128379999999993
0
LINE
8
BLACK
6
CONTINUOUS
10
98.7919579999999939
20
-105.8128379999999993
11
99.0776729999999901
21
-105.9080759999999941
0
LINE
8
BLACK
6
CONTINUOUS
10
99.0776729999999901
20
-105.9080759999999941
11
99.268148999999994
21
-106.098551999999998
0
LINE
8
BLACK
6
CONTINUOUS
10
99.268148999999994
20
-106.098551999999998
11
99.3633869999999888
21
-106.2890280000000018
0
LINE
8
BLACK
6
CONTINUOUS
10
99.3633869999999888
20
-106.2890280000000018
11
99.4586249999999978
21
-106.6699799999999954
0
LINE
8
BLACK
6
CONTINUOUS
10
99.4586249999999978
20
-106.6699799999999954
11
99.4586249999999978
21
-106.9556949999999915
0
LINE
8
BLACK
6
CONTINUOUS
10
99.4586249999999978
20
-106.9556949999999915
11
99.3633869999999888
21
-107.3366469999999993
0
LINE
8
BLACK
6
CONTINUOUS
10
99.3633869999999888
20
-107.3366469999999993
11
99.268148999999994
21
-107.5271229999999889
0
LINE
8
BLACK
6
CONTINUOUS
10
99.268148999999994
20
-107.5271229999999889
11
99.0776729999999901
21
-107.7175999999999902
0
LINE
8
BLACK
6
CONTINUOUS
10
99.0776729999999901
20
-107.7175999999999902
11
98.7919579999999939
21
-107.8128379999999993
0
LINE
8
BLACK
6
CONTINUOUS
10
98.7919579999999939
20
-107.8128379999999993
11
98.3157679999999914
21
-107.8128379999999993
0
LINE
8
BLACK
6
CONTINUOUS
10
100.3157679999999914
20
-107.8128379999999993
11
100.3157679999999914
21
-106.4795039999999915
0
LINE
8
BLACK
6
CONTINUOUS
10
100.3157679999999914
20
-106.8604569999999967
11
100.4110060000000004
21
-106.6699799999999954
0
LINE
8
BLACK
6
CONTINUOUS
10
100.4110060000000004
20
-106.6699799999999954
11
100.5062439999999953
21
-106.5747420000000005
0
LINE
8
BLACK
6
CONTINUOUS
10
100.5062439999999953
20
-106.5747420000000005
11
100.6967199999999991
21
-106.4795039999999915
0
LINE
8
BLACK
6
CONTINUOUS
10
100.6967199999999991
20
-106.4795039999999915
11
100.8871970000000005
21
-106.4795039999999915
0
LINE
8
BLACK
6
CONTINUOUS
10
101.5538629999999927
20
-107.8128379999999993
11
101.5538629999999927
21
-106.4795039999999915
0
LINE
8
BLACK
6
CONTINUOUS
10
101.5538629999999927
20
-105.8128379999999993
11
101.4586249999999978
21
-105.9080759999999941
0
LINE
8
BLACK
6
CONTINUOUS
10
101.4586249999999978
20
-105.9080759999999941
11
101.5538629999999927
21
-106.0033139999999889
0
LINE
8
BLACK
6
CONTINUOUS
10
101.5538629999999927
20
-106.0033139999999889
11
101.6491010000000017
21
-105.9080759999999941
0
LINE
8
BLACK
6
CONTINUOUS
10
101.6491010000000017
20
-105.9080759999999941
11
101.5538629999999927
21
-105.8128379999999993
0
LINE
8
BLACK
6
CONTINUOUS
10
101.5538629999999927
20
-105.8128379999999993
11
101.5538629999999927
21
-106.0033139999999889
0
LINE
8
BLACK
6
CONTINUOUS
10
102.7919579999999939
20
-107.8128379999999993
11
102.6014819999999901
21
-107.7175999999999902
0
LINE
8
BLACK
6
CONTINUOUS
10
102.6014819999999901
20
-107.7175999999999902
11
102.5062439999999953
21
-107.5271229999999889
0
LINE
8
BLACK
6
CONTINUOUS
10
102.5062439999999953
20
-107.5271229999999889
11
102.5062439999999953
21
-105.8128379999999993
0
LINE
8
BLACK
6
CONTINUOUS
10
103.8395769999999914
20
-107.8128379999999993
11
103.6491010000000017
21
-107.7175999999999902
0
LINE
8
BLACK
6
CONTINUOUS
10
103.6491010000000017
20
-107.7175999999999902
11
103.5538629999999927
21
-107.5271229999999889
0
LINE
8
BLACK
6
CONTINUOUS
10
103.5538629999999927
20
-107.5271229999999889
11
103.5538629999999927
21
-105.8128379999999993
0
LINE
8
BLACK
6
CONTINUOUS
10
106.1252920000000017
20
-107.8128379999999993
11
106.1252920000000017
21
-105.8128379999999993
0
LINE
8
BLACK
6
CONTINUOUS
10
106.1252920000000017
20
-105.8128379999999993
11
106.7919589999999914
21
-107.2414089999999902
0
LINE
8
BLACK
6
CONTINUOUS
10
106.7919589999999914
20
-107.2414089999999902
11
107.4586249999999978
21
-105.8128379999999993
0
LINE
8
BLACK
6
CONTINUOUS
10
107.4586249999999978
20
-105.8128379999999993
11
107.4586249999999978
21
-107.8128379999999993
0
LINE
8
BLACK
6
CONTINUOUS
10
109.268148999999994
20
-107.8128379999999993
11
109.268148999999994
21
-106.7652190000000019
0
LINE
8
BLACK
6
CONTINUOUS
10
109.268148999999994
20
-106.7652190000000019
11
109.1729109999999991
21
-106.5747420000000005
0
LINE
8
BLACK
6
CONTINUOUS
10
109.1729109999999991
20
-106.5747420000000005
11
108.9824349999999953
21
-106.4795039999999915
0
LINE
8
BLACK
6
CONTINUOUS
10
108.9824349999999953
20
-106.4795039999999915
11
108.6014819999999901
21
-106.4795039999999915
0
LINE
8
BLACK
6
CONTINUOUS
10
108.6014819999999901
20
-106.4795039999999915
11
108.4110060000000004
21
-106.5747420000000005
0
LINE
8
BLACK
6
CONTINUOUS
10
109.268148999999994
20
-107.7175999999999902
11
109.0776729999999901
21
-107.8128379999999993
0
LINE
8
BLACK
6
CONTINUOUS
10
109.0776729999999901
20
-107.8128379999999993
11
108.6014819999999901
21
-107.8128379999999993
0
LINE
8
BLACK
6
CONTINUOUS
10
108.6014819999999901
20
-107.8128379999999993
11
108.4110060000000004
21
-107.7175999999999902
0
LINE
8
BLACK
6
CONTINUOUS
10
108.4110060000000004
20
-107.7175999999999902
11
108.3157679999999914
21
-107.5271229999999889
0
LINE
8
BLACK
6
CONTINUOUS
10
108.3157679999999914
20
-107.5271229999999889
11
108.3157679999999914
21
-107.3366469999999993
0
LINE
8
BLACK
6
CONTINUOUS
10
108.3157679999999914
20
-107.3366469999999993
11
108.4110060000000004
21
-107.1461709999999954
0
LINE
8
BLACK
6
CONTINUOUS
10
108.4110060000000004
20
-107.1461709999999954
11
108.6014819999999901
21
-107.0509330000000006
0
LINE
8
BLACK
6
CONTINUOUS
10
108.6014819999999901
20
-107.0509330000000006
11
109.0776729999999901
21
-107.0509330000000006
0
LINE
8
BLACK
6
CONTINUOUS
10
109.0776729999999901
20
-107.0509330000000006
11
109.268148999999994
21
-106.9556949999999915
0
LINE
8
BLACK
6
CONTINUOUS
10
110.2205299999999966
20
-106.4795039999999915
11
110.2205299999999966
21
-108.4795039999999915
0
LINE
8
BLACK
6
CONTINUOUS
10
110.2205299999999966
20
-106.5747420000000005
11
110.4110060000000004
21
-106.4795039999999915
0
LINE
8
BLACK
6
CONTINUOUS
10
110.4110060000000004
20
-106.4795039999999915
11
110.7919589999999914
21
-106.4795039999999915
0
LINE
8
BLACK
6
CONTINUOUS
10
110.7919589999999914
20
-106.4795039999999915
11
110.9824349999999953
21
-106.5747420000000005
0
LINE
8
BLACK
6
CONTINUOUS
10
110.9824349999999953
20
-106.5747420000000005
11
111.0776729999999901
21
-106.6699799999999954
0
LINE
8
BLACK
6
CONTINUOUS
10
111.0776729999999901
20
-106.6699799999999954
11
111.1729109999999991
21
-106.8604569999999967
0
LINE
8
BLACK
6
CONTINUOUS
10
111.1729109999999991
20
-106.8604569999999967
11
111.1729109999999991
21
-107.4318849999999941
0
LINE
8
BLACK
6
CONTINUOUS
10
111.1729109999999991
20
-107.4318849999999941
11
111.0776729999999901
21
-107.6223609999999979
0
LINE
8
BLACK
6
CONTINUOUS
10
111.0776729999999901
20
-107.6223609999999979
11
110.9824349999999953
21
-107.7175999999999902
0
LINE
8
BLACK
6
CONTINUOUS
10
110.9824349999999953
20
-107.7175999999999902
11
110.7919589999999914
21
-107.8128379999999993
0
LINE
8
BLACK
6
CONTINUOUS
10
110.7919589999999914
20
-107.8128379999999993
11
110.4110060000000004
21
-107.8128379999999993
0
LINE
8
BLACK
6
CONTINUOUS
10
110.4110060000000004
20
-107.8128379999999993
11
110.2205299999999966
21
-107.7175999999999902
0
LINE
8
BLACK
6
CONTINUOUS
10
112.0300539999999927
20
-107.6223609999999979
11
112.1252920000000017
21
-107.7175999999999902
0
LINE
8
BLACK
6
CONTINUOUS
10
112.1252920000000017
20
-107.7175999999999902
11
112.0300539999999927
21
-107.8128379999999993
0
LINE
8
BLACK
6
CONTINUOUS
10
112.0300539999999927
20
-107.8128379999999993
11
111.9348159999999979
21
-107.7175999999999902
0
LINE
8
BLACK
6
CONTINUOUS
10
111.9348159999999979
20
-107.7175999999999902
11
112.0300539999999927
21
-107.6223609999999979
0
LINE
8
BLACK
6
CONTINUOUS
10
112.0300539999999927
20
-107.6223609999999979
11
112.0300539999999927
21
-107.8128379999999993
0
LINE
8
BLACK
6
CONTINUOUS
10
112.0300539999999927
20
-106.5747420000000005
11
112.1252920000000017
21
-106.6699799999999954
0
LINE
8
BLACK
6
CONTINUOUS
10
112.1252920000000017
20
-106.6699799999999954
11
112.0300539999999927
21
-106.7652190000000019
0
LINE
8
BLACK
6
CONTINUOUS
10
112.0300539999999927
20
-106.7652190000000019
11
111.9348159999999979
21
-106.6699799999999954
0
LINE
8
BLACK
6
CONTINUOUS
10
111.9348159999999979
20
-106.6699799999999954
11
112.0300539999999927
21
-106.5747420000000005
0
LINE
8
BLACK
6
CONTINUOUS
10
112.0300539999999927
20
-106.5747420000000005
11
112.0300539999999927
21
-106.7652190000000019
  0
ENDSEC
  0
EOF
