%TF.GenerationSoftware,KiCad,Pcbnew,7.0.9*%
%TF.CreationDate,2023-11-25T10:22:14+10:00*%
%TF.ProjectId,EWS,4557532e-6b69-4636-9164-5f7063625858,rev?*%
%TF.SameCoordinates,Original*%
%TF.FileFunction,Copper,L2,Bot*%
%TF.FilePolarity,Positive*%
%FSLAX46Y46*%
G04 Gerber Fmt 4.6, Leading zero omitted, Abs format (unit mm)*
G04 Created by KiCad (PCBNEW 7.0.9) date 2023-11-25 10:22:14*
%MOMM*%
%LPD*%
G01*
G04 APERTURE LIST*
G04 Aperture macros list*
%AMRoundRect*
0 Rectangle with rounded corners*
0 $1 Rounding radius*
0 $2 $3 $4 $5 $6 $7 $8 $9 X,Y pos of 4 corners*
0 Add a 4 corners polygon primitive as box body*
4,1,4,$2,$3,$4,$5,$6,$7,$8,$9,$2,$3,0*
0 Add four circle primitives for the rounded corners*
1,1,$1+$1,$2,$3*
1,1,$1+$1,$4,$5*
1,1,$1+$1,$6,$7*
1,1,$1+$1,$8,$9*
0 Add four rect primitives between the rounded corners*
20,1,$1+$1,$2,$3,$4,$5,0*
20,1,$1+$1,$4,$5,$6,$7,0*
20,1,$1+$1,$6,$7,$8,$9,0*
20,1,$1+$1,$8,$9,$2,$3,0*%
G04 Aperture macros list end*
%TA.AperFunction,ComponentPad*%
%ADD10RoundRect,0.250000X-0.620000X-0.845000X0.620000X-0.845000X0.620000X0.845000X-0.620000X0.845000X0*%
%TD*%
%TA.AperFunction,ComponentPad*%
%ADD11O,1.740000X2.190000*%
%TD*%
%TA.AperFunction,ComponentPad*%
%ADD12R,1.800000X1.800000*%
%TD*%
%TA.AperFunction,ComponentPad*%
%ADD13O,1.800000X1.800000*%
%TD*%
%TA.AperFunction,Conductor*%
%ADD14C,0.250000*%
%TD*%
G04 APERTURE END LIST*
D10*
%TO.P,J2,1,Pin_1*%
%TO.N,Net-(J2-Pin_1)*%
X98552000Y-82824000D03*
D11*
%TO.P,J2,2,Pin_2*%
%TO.N,Net-(J2-Pin_2)*%
X101092000Y-82824000D03*
%TD*%
D10*
%TO.P,SW7,1,1*%
%TO.N,/ROW5*%
X107900000Y-99860000D03*
D11*
%TO.P,SW7,2,2*%
%TO.N,Net-(D8-K)*%
X110440000Y-99860000D03*
%TO.P,SW7,3,3*%
%TO.N,/ROW6*%
X112980000Y-99860000D03*
%TD*%
D12*
%TO.P,D11,1,K*%
%TO.N,Net-(D11-K)*%
X120210000Y-69180000D03*
D13*
%TO.P,D11,2,A*%
%TO.N,/COL6*%
X120210000Y-66640000D03*
%TD*%
D10*
%TO.P,RV1,1,1*%
%TO.N,/ANALOG_5V*%
X158970000Y-82840000D03*
D11*
%TO.P,RV1,2,2*%
%TO.N,/EW_BRIGHT*%
X161510000Y-82840000D03*
%TO.P,RV1,3,3*%
%TO.N,/ANALOG_GND*%
X164050000Y-82840000D03*
%TD*%
D12*
%TO.P,D7,1,K*%
%TO.N,Net-(D7-K)*%
X109670000Y-85650000D03*
D13*
%TO.P,D7,2,A*%
%TO.N,/COL6*%
X109670000Y-83110000D03*
%TD*%
D10*
%TO.P,J5,1,Pin_1*%
%TO.N,/ANALOG_5V*%
X158970000Y-91984000D03*
D11*
%TO.P,J5,2,Pin_2*%
%TO.N,/EW_BRIGHT*%
X161510000Y-91984000D03*
%TO.P,J5,3,Pin_3*%
%TO.N,/ANALOG_GND*%
X164050000Y-91984000D03*
%TD*%
D10*
%TO.P,SW9,1,1*%
%TO.N,Net-(D9-K)*%
X97790000Y-72250000D03*
D11*
%TO.P,SW9,2,2*%
%TO.N,/ROW5*%
X100330000Y-72250000D03*
%TD*%
D12*
%TO.P,D9,1,K*%
%TO.N,Net-(D9-K)*%
X123800000Y-69180000D03*
D13*
%TO.P,D9,2,A*%
%TO.N,/COL7*%
X123800000Y-66640000D03*
%TD*%
D12*
%TO.P,D4,1,K*%
%TO.N,Net-(D4-K)*%
X127150000Y-85810000D03*
D13*
%TO.P,D4,2,A*%
%TO.N,/COL6*%
X127150000Y-83270000D03*
%TD*%
D10*
%TO.P,J1,1,Pin_1*%
%TO.N,Net-(J1-Pin_1)*%
X156670000Y-71640000D03*
D11*
%TO.P,J1,2,Pin_2*%
%TO.N,Net-(J1-Pin_2)*%
X159210000Y-71640000D03*
%TO.P,J1,3,Pin_3*%
%TO.N,Net-(J1-Pin_3)*%
X161750000Y-71640000D03*
%TO.P,J1,4,Pin_4*%
%TO.N,Net-(J1-Pin_4)*%
X164290000Y-71640000D03*
%TD*%
D10*
%TO.P,SW8,1,1*%
%TO.N,Net-(D7-K)*%
X108708000Y-91740000D03*
D11*
%TO.P,SW8,2,2*%
%TO.N,/ROW4*%
X111248000Y-91740000D03*
%TD*%
D12*
%TO.P,D5,1,K*%
%TO.N,Net-(D5-K)*%
X119660000Y-85730000D03*
D13*
%TO.P,D5,2,A*%
%TO.N,/COL5*%
X119660000Y-83190000D03*
%TD*%
D10*
%TO.P,SW10,1,1*%
%TO.N,Net-(D10-K)*%
X105430000Y-67410000D03*
D11*
%TO.P,SW10,2,2*%
%TO.N,/ROW7*%
X107970000Y-67410000D03*
%TD*%
D12*
%TO.P,D13,1,K*%
%TO.N,Net-(D13-K)*%
X116770000Y-69180000D03*
D13*
%TO.P,D13,2,A*%
%TO.N,/COL7*%
X116770000Y-66640000D03*
%TD*%
D10*
%TO.P,J6,1,Pin_1*%
%TO.N,Net-(D13-K)*%
X108150000Y-77690000D03*
D11*
%TO.P,J6,2,Pin_2*%
%TO.N,/ROW0*%
X110690000Y-77690000D03*
%TO.P,J6,3,Pin_3*%
%TO.N,/ROW1*%
X113230000Y-77690000D03*
%TO.P,J6,4,Pin_4*%
%TO.N,/ROW2*%
X115770000Y-77690000D03*
%TO.P,J6,5,Pin_5*%
%TO.N,/ROW3*%
X118310000Y-77690000D03*
%TO.P,J6,6,Pin_6*%
%TO.N,/ROW4*%
X120850000Y-77690000D03*
%TD*%
D12*
%TO.P,D8,1,K*%
%TO.N,Net-(D8-K)*%
X114510000Y-85730000D03*
D13*
%TO.P,D8,2,A*%
%TO.N,/COL6*%
X114510000Y-83190000D03*
%TD*%
D10*
%TO.P,SW12,1,1*%
%TO.N,Net-(D12-K)*%
X97790000Y-64520000D03*
D11*
%TO.P,SW12,2,2*%
%TO.N,/ROW6*%
X100330000Y-64520000D03*
%TD*%
D10*
%TO.P,J3,1,Pin_1*%
%TO.N,Net-(J2-Pin_1)*%
X98552000Y-91460000D03*
D11*
%TO.P,J3,2,Pin_2*%
%TO.N,Net-(J2-Pin_2)*%
X101092000Y-91460000D03*
%TD*%
D10*
%TO.P,SW5,1,1*%
%TO.N,/ROW2*%
X119078000Y-99860000D03*
D11*
%TO.P,SW5,2,2*%
%TO.N,Net-(D6-K)*%
X121618000Y-99860000D03*
%TO.P,SW5,3,3*%
%TO.N,/ROW3*%
X124158000Y-99860000D03*
%TD*%
D10*
%TO.P,J8,1,Pin_1*%
%TO.N,/ROW0*%
X133590000Y-72150000D03*
D11*
%TO.P,J8,2,Pin_2*%
%TO.N,/ROW1*%
X136130000Y-72150000D03*
%TO.P,J8,3,Pin_3*%
%TO.N,/ROW2*%
X138670000Y-72150000D03*
%TO.P,J8,4,Pin_4*%
%TO.N,/ROW3*%
X141210000Y-72150000D03*
%TO.P,J8,5,Pin_5*%
%TO.N,/ROW4*%
X143750000Y-72150000D03*
%TO.P,J8,6,Pin_6*%
%TO.N,/ROW5*%
X146290000Y-72150000D03*
%TO.P,J8,7,Pin_7*%
%TO.N,/ROW6*%
X148830000Y-72150000D03*
%TO.P,J8,8,Pin_8*%
%TO.N,/ROW7*%
X151370000Y-72150000D03*
%TD*%
D10*
%TO.P,SW3,1,1*%
%TO.N,/ROW0*%
X132794000Y-99860000D03*
D11*
%TO.P,SW3,2,2*%
%TO.N,Net-(D4-K)*%
X135334000Y-99860000D03*
%TO.P,SW3,3,3*%
%TO.N,/ROW1*%
X137874000Y-99860000D03*
%TD*%
D12*
%TO.P,D2,1,K*%
%TO.N,Net-(D2-K)*%
X146900000Y-83940000D03*
D13*
%TO.P,D2,2,A*%
%TO.N,/COL5*%
X146900000Y-81400000D03*
%TD*%
D10*
%TO.P,J7,1,Pin_1*%
%TO.N,/COL5*%
X140462000Y-61976000D03*
D11*
%TO.P,J7,2,Pin_2*%
%TO.N,/COL6*%
X143002000Y-61976000D03*
%TO.P,J7,3,Pin_3*%
%TO.N,/COL7*%
X145542000Y-61976000D03*
%TD*%
D12*
%TO.P,D12,1,K*%
%TO.N,Net-(D12-K)*%
X113284000Y-69088000D03*
D13*
%TO.P,D12,2,A*%
%TO.N,/COL7*%
X113284000Y-66548000D03*
%TD*%
D10*
%TO.P,J4,1,Pin_1*%
%TO.N,Net-(J1-Pin_1)*%
X156670000Y-63492000D03*
D11*
%TO.P,J4,2,Pin_2*%
%TO.N,Net-(J1-Pin_2)*%
X159210000Y-63492000D03*
%TO.P,J4,3,Pin_3*%
%TO.N,Net-(J1-Pin_3)*%
X161750000Y-63492000D03*
%TO.P,J4,4,Pin_4*%
%TO.N,Net-(J1-Pin_4)*%
X164290000Y-63492000D03*
%TD*%
D10*
%TO.P,SW1,1,1*%
%TO.N,/ROW4*%
X143970000Y-99860000D03*
D11*
%TO.P,SW1,2,2*%
%TO.N,Net-(D2-K)*%
X146510000Y-99860000D03*
%TO.P,SW1,3,3*%
%TO.N,/ROW5*%
X149050000Y-99860000D03*
%TD*%
D12*
%TO.P,D1,1,K*%
%TO.N,Net-(D1-K)*%
X135900000Y-83780000D03*
D13*
%TO.P,D1,2,A*%
%TO.N,/COL5*%
X135900000Y-81240000D03*
%TD*%
D12*
%TO.P,D10,1,K*%
%TO.N,Net-(D10-K)*%
X127310000Y-69110000D03*
D13*
%TO.P,D10,2,A*%
%TO.N,/COL7*%
X127310000Y-66570000D03*
%TD*%
D10*
%TO.P,SW2,1,1*%
%TO.N,Net-(D1-K)*%
X145030000Y-91740000D03*
D11*
%TO.P,SW2,2,2*%
%TO.N,/ROW3*%
X147570000Y-91740000D03*
%TD*%
D12*
%TO.P,D3,1,K*%
%TO.N,Net-(D3-K)*%
X130590000Y-85810000D03*
D13*
%TO.P,D3,2,A*%
%TO.N,/COL5*%
X130590000Y-83270000D03*
%TD*%
D10*
%TO.P,SW4,1,1*%
%TO.N,Net-(D3-K)*%
X134108000Y-91740000D03*
D11*
%TO.P,SW4,2,2*%
%TO.N,/ROW6*%
X136648000Y-91740000D03*
%TD*%
D12*
%TO.P,D6,1,K*%
%TO.N,Net-(D6-K)*%
X123640000Y-85765000D03*
D13*
%TO.P,D6,2,A*%
%TO.N,/COL6*%
X123640000Y-83225000D03*
%TD*%
D10*
%TO.P,SW11,1,A*%
%TO.N,Net-(D11-K)*%
X120010000Y-57400000D03*
D11*
%TO.P,SW11,2,B*%
%TO.N,/ROW7*%
X122550000Y-57400000D03*
%TD*%
D10*
%TO.P,SW6,1,1*%
%TO.N,Net-(D5-K)*%
X120138000Y-91740000D03*
D11*
%TO.P,SW6,2,2*%
%TO.N,/ROW7*%
X122678000Y-91740000D03*
%TD*%
D14*
%TO.N,/COL5*%
X134918100Y-79032800D02*
X134918100Y-67519900D01*
X134918100Y-67519900D02*
X140462000Y-61976000D01*
X135900000Y-81240000D02*
X135900000Y-80014700D01*
X135900000Y-80014700D02*
X134918100Y-79032800D01*
%TO.N,Net-(D4-K)*%
X133632600Y-101337300D02*
X134138700Y-100831200D01*
X131964600Y-101337300D02*
X133632600Y-101337300D01*
X135334000Y-99860000D02*
X134138700Y-99860000D01*
X127150000Y-96522700D02*
X131964600Y-101337300D01*
X134138700Y-100831200D02*
X134138700Y-99860000D01*
X127150000Y-85810000D02*
X127150000Y-96522700D01*
%TO.N,Net-(D5-K)*%
X120138000Y-87433300D02*
X120138000Y-91740000D01*
X119660000Y-86955300D02*
X120138000Y-87433300D01*
X119660000Y-85730000D02*
X119660000Y-86955300D01*
%TO.N,Net-(D6-K)*%
X123886100Y-87236400D02*
X123886100Y-97591900D01*
X123886100Y-97591900D02*
X121618000Y-99860000D01*
X123640000Y-86990300D02*
X123886100Y-87236400D01*
X123640000Y-85765000D02*
X123640000Y-86990300D01*
%TO.N,/COL6*%
X120210000Y-66640000D02*
X121435300Y-66640000D01*
X143002000Y-61976000D02*
X141806700Y-61976000D01*
X122574600Y-80934300D02*
X122574600Y-67910000D01*
X141806700Y-61004800D02*
X141806700Y-61976000D01*
X121435300Y-66770700D02*
X122574600Y-67910000D01*
X124320300Y-67852700D02*
X131275900Y-67852700D01*
X138582500Y-60546100D02*
X141348000Y-60546100D01*
X141348000Y-60546100D02*
X141806700Y-61004800D01*
X121435300Y-66640000D02*
X121435300Y-66770700D01*
X123640000Y-83225000D02*
X123640000Y-81999700D01*
X124263000Y-67910000D02*
X124320300Y-67852700D01*
X122574600Y-67910000D02*
X124263000Y-67910000D01*
X123640000Y-81999700D02*
X122574600Y-80934300D01*
X131275900Y-67852700D02*
X138582500Y-60546100D01*
%TO.N,Net-(D7-K)*%
X109670000Y-85650000D02*
X109670000Y-86875300D01*
X109670000Y-86875300D02*
X108708000Y-87837300D01*
X108708000Y-87837300D02*
X108708000Y-91740000D01*
%TO.N,Net-(D8-K)*%
X111635300Y-98664700D02*
X111635300Y-99860000D01*
X110440000Y-99860000D02*
X111635300Y-99860000D01*
X114510000Y-95790000D02*
X111635300Y-98664700D01*
X114510000Y-85730000D02*
X114510000Y-95790000D01*
%TO.N,Net-(D11-K)*%
X120210000Y-69180000D02*
X120210000Y-67954700D01*
X118965100Y-58444900D02*
X120010000Y-57400000D01*
X120210000Y-67954700D02*
X119750500Y-67954700D01*
X119750500Y-67954700D02*
X118965100Y-67169300D01*
X118965100Y-67169300D02*
X118965100Y-58444900D01*
%TO.N,/COL7*%
X143059800Y-60091500D02*
X144346700Y-61378400D01*
X145542000Y-61976000D02*
X144346700Y-61976000D01*
X144346700Y-61378400D02*
X144346700Y-61976000D01*
X135013800Y-60091500D02*
X143059800Y-60091500D01*
X128535300Y-66570000D02*
X135013800Y-60091500D01*
X127310000Y-66570000D02*
X128535300Y-66570000D01*
%TO.N,Net-(D12-K)*%
X102358000Y-69088000D02*
X97790000Y-64520000D01*
X113284000Y-69088000D02*
X102358000Y-69088000D01*
%TO.N,Net-(D13-K)*%
X116770000Y-69180000D02*
X115544700Y-69180000D01*
X108150000Y-77690000D02*
X115544700Y-70295300D01*
X115544700Y-70295300D02*
X115544700Y-69180000D01*
%TO.N,/ANALOG_5V*%
X158970000Y-91984000D02*
X158970000Y-82840000D01*
%TO.N,/EW_BRIGHT*%
X161510000Y-91984000D02*
X161510000Y-82840000D01*
%TO.N,/ANALOG_GND*%
X164050000Y-91984000D02*
X164050000Y-82840000D01*
%TO.N,/ROW0*%
X133590000Y-72150000D02*
X132794000Y-72946000D01*
X132794000Y-72946000D02*
X132794000Y-99860000D01*
%TO.N,/ROW1*%
X137325300Y-72150000D02*
X137325300Y-73345300D01*
X137325300Y-73345300D02*
X137874000Y-73894000D01*
X136130000Y-72150000D02*
X137325300Y-72150000D01*
X137874000Y-73894000D02*
X137874000Y-99860000D01*
%TO.N,/ROW2*%
X115770000Y-96552000D02*
X119078000Y-99860000D01*
X115770000Y-77690000D02*
X115770000Y-96552000D01*
%TO.N,/ROW3*%
X142405300Y-72150000D02*
X142405300Y-73982100D01*
X142405300Y-73982100D02*
X144467000Y-76043800D01*
X144467000Y-76043800D02*
X144467000Y-88637000D01*
X147570000Y-91740000D02*
X146374700Y-91740000D01*
X146374700Y-90544700D02*
X146374700Y-91740000D01*
X144467000Y-88637000D02*
X146374700Y-90544700D01*
X141210000Y-72150000D02*
X142405300Y-72150000D01*
%TO.N,/ROW4*%
X119654700Y-77092400D02*
X119654700Y-77690000D01*
X114500000Y-80178800D02*
X114500000Y-76984900D01*
X143750000Y-72150000D02*
X144945300Y-72150000D01*
X115225200Y-76259700D02*
X118822000Y-76259700D01*
X111248000Y-83430800D02*
X114500000Y-80178800D01*
X144945300Y-86729000D02*
X148765400Y-90549100D01*
X120850000Y-77690000D02*
X119654700Y-77690000D01*
X114500000Y-76984900D02*
X115225200Y-76259700D01*
X111248000Y-91740000D02*
X111248000Y-83430800D01*
X144945300Y-72150000D02*
X144945300Y-86729000D01*
X118822000Y-76259700D02*
X119654700Y-77092400D01*
X148765400Y-95064600D02*
X143970000Y-99860000D01*
X148765400Y-90549100D02*
X148765400Y-95064600D01*
%TO.N,/ROW5*%
X149216000Y-75076000D02*
X149216000Y-98273700D01*
X149050000Y-99860000D02*
X149050000Y-98439700D01*
X106953600Y-81478500D02*
X100330000Y-74854900D01*
X100330000Y-74854900D02*
X100330000Y-72250000D01*
X106953600Y-98913600D02*
X106953600Y-81478500D01*
X107900000Y-99860000D02*
X106953600Y-98913600D01*
X149216000Y-98273700D02*
X149050000Y-98439700D01*
X146290000Y-72150000D02*
X147485300Y-72150000D01*
X147485300Y-72150000D02*
X147485300Y-73345300D01*
X147485300Y-73345300D02*
X149216000Y-75076000D01*
%TO.N,/ROW7*%
X109617900Y-67862600D02*
X115002300Y-67862600D01*
X122112900Y-89754600D02*
X122678000Y-90319700D01*
X107970000Y-67410000D02*
X109165300Y-67410000D01*
X122550000Y-57400000D02*
X121354700Y-57400000D01*
X119212100Y-55916100D02*
X118514700Y-56613500D01*
X117995400Y-70834200D02*
X122112900Y-74951700D01*
X120842000Y-55916100D02*
X119212100Y-55916100D01*
X117804700Y-67954600D02*
X117995400Y-68145300D01*
X122112900Y-74951700D02*
X122112900Y-89754600D01*
X122678000Y-91740000D02*
X122678000Y-90319700D01*
X118514700Y-56613500D02*
X118514700Y-67244600D01*
X115002300Y-67862600D02*
X115094300Y-67954600D01*
X121354700Y-57400000D02*
X121354700Y-56428800D01*
X121354700Y-56428800D02*
X120842000Y-55916100D01*
X115094300Y-67954600D02*
X117804700Y-67954600D01*
X117995400Y-68145300D02*
X117995400Y-70834200D01*
X118514700Y-67244600D02*
X117804700Y-67954600D01*
X109165300Y-67410000D02*
X109617900Y-67862600D01*
%TO.N,Net-(J1-Pin_1)*%
X156670000Y-63492000D02*
X156670000Y-71640000D01*
%TO.N,Net-(J1-Pin_2)*%
X159210000Y-63492000D02*
X159210000Y-71640000D01*
%TO.N,Net-(J1-Pin_3)*%
X161750000Y-63492000D02*
X161750000Y-71640000D01*
%TO.N,Net-(J1-Pin_4)*%
X164290000Y-63492000D02*
X164290000Y-71640000D01*
%TO.N,Net-(J2-Pin_1)*%
X98552000Y-91460000D02*
X98552000Y-82824000D01*
%TO.N,Net-(J2-Pin_2)*%
X101092000Y-91460000D02*
X101092000Y-82824000D01*
%TD*%
M02*
