  0
SECTION
  2
HEADER
  9
$ANGBASE
  50
0.0
  9
$ANGDIR
  70
1
  9
$MEASUREMENT
  70
1
  0
ENDSEC
  0
SECTION
  2
TABLES
  0
TABLE
  2
LTYPE
  70
4
  0
LTYPE
  5
40F
  2
CONTINUOUS
  70
0
  3
Solid line
  72
65
  73
0
  40
0.0
  0
LTYPE
  5
410
  2
DASHDOT
 70
0
  3
Dash Dot ____ _ ____ _
 72
65
 73
4
 40
2.0
 49
1.25
 49
-0.25
 49
0.25
 49
-0.25
  0
LTYPE
  5
411
  2
DASHED
 70
0
  3
Dashed __ __ __ __ __
 72
65
 73
2
 40
0.75
 49
0.5
 49
-0.25
  0
LTYPE
  5
43B
  2
DOTTED
 70
0
  3
Dotted .  .  .  .
 72
65
 73
2
 40
0.2
 49
0.0
 49
-0.2
  0
ENDTAB
  0
TABLE
  2
STYLE
  70
4
  0
STYLE
  2
KICAD
  70
0
  40
0
  41
1
  42
1
  50
0
  71
0
  3
isocp.shx
  0
STYLE
  2
KICADB
  70
0
  40
0
  41
1
  42
1
  50
0
  71
0
  3
isocp.shx
  0
STYLE
  2
KICADI
  70
0
  40
0
  41
1
  42
1
  50
15
  71
0
  3
isocp.shx
  0
STYLE
  2
KICADBI
  70
0
  40
0
  41
1
  42
1
  50
15
  71
0
  3
isocp.shx
  0
ENDTAB
  0
TABLE
  2
LAYER
  70
1
  0
LAYER
  2
BLACK
  70
0
  62
7
  6
CONTINUOUS
  0
ENDTAB
  0
ENDSEC
  0
SECTION
  2
ENTITIES
0
LINE
8
BLACK
6
CONTINUOUS
10
95.7579999999999956
20
-53.3399999999999963
11
166.8779999999999859
21
-53.3399999999999963
0
LINE
8
BLACK
6
CONTINUOUS
10
166.8779999999999859
20
-53.3399999999999963
11
166.8779999999999859
21
-104.6479999999999961
0
LINE
8
BLACK
6
CONTINUOUS
10
166.8779999999999859
20
-104.6479999999999961
11
95.7579999999999956
21
-104.6479999999999961
0
LINE
8
BLACK
6
CONTINUOUS
10
95.7579999999999956
20
-104.6479999999999961
11
95.7579999999999956
21
-53.3399999999999963
0
CIRCLE
8
BLACK
10
163.5759999999999934
20
-101.0919999999999987
40
1.703884
0
CIRCLE
8
BLACK
10
140.7159999999999798
20
-82.804000000000002
40
1.7960509999999998
0
CIRCLE
8
BLACK
10
163.5759999999999934
20
-56.8960000000000008
40
1.703884
0
CIRCLE
8
BLACK
10
104.902000000000001
20
-82.2959999999999923
40
1.703884
0
CIRCLE
8
BLACK
10
99.0600000000000023
20
-56.8960000000000008
40
1.703884
0
CIRCLE
8
BLACK
10
99.0600000000000023
20
-101.0919999999999987
40
1.7960509999999998
0
CIRCLE
8
BLACK
10
104.902000000000001
20
-59.6899999999999977
40
1.83162
0
LINE
8
BLACK
6
CONTINUOUS
10
109.2199999999999989
20
-82.6599999999999966
11
110.1199999999999903
21
-83.5600000000000023
0
LINE
8
BLACK
6
CONTINUOUS
10
110.1199999999999903
20
-82.6599999999999966
11
109.2199999999999989
21
-83.5600000000000023
0
LINE
8
BLACK
6
CONTINUOUS
10
109.2199999999999989
20
-85.2000000000000028
11
110.1199999999999903
21
-86.0999999999999943
0
LINE
8
BLACK
6
CONTINUOUS
10
110.1199999999999903
20
-85.2000000000000028
11
109.2199999999999989
21
-86.0999999999999943
0
LINE
8
BLACK
6
CONTINUOUS
10
112.833999999999989
20
-66.097999999999999
11
113.7339999999999947
21
-66.9979999999999905
0
LINE
8
BLACK
6
CONTINUOUS
10
113.7339999999999947
20
-66.097999999999999
11
112.833999999999989
21
-66.9979999999999905
0
LINE
8
BLACK
6
CONTINUOUS
10
112.833999999999989
20
-68.637999999999991
11
113.7339999999999947
21
-69.5379999999999967
0
LINE
8
BLACK
6
CONTINUOUS
10
113.7339999999999947
20
-68.637999999999991
11
112.833999999999989
21
-69.5379999999999967
0
LINE
8
BLACK
6
CONTINUOUS
10
114.0599999999999881
20
-82.7399999999999949
11
114.9599999999999937
21
-83.6400000000000006
0
LINE
8
BLACK
6
CONTINUOUS
10
114.9599999999999937
20
-82.7399999999999949
11
114.0599999999999881
21
-83.6400000000000006
0
LINE
8
BLACK
6
CONTINUOUS
10
114.0599999999999881
20
-85.2800000000000011
11
114.9599999999999937
21
-86.1799999999999926
0
LINE
8
BLACK
6
CONTINUOUS
10
114.9599999999999937
20
-85.2800000000000011
11
114.0599999999999881
21
-86.1799999999999926
0
LINE
8
BLACK
6
CONTINUOUS
10
116.3199999999999932
20
-66.1899999999999977
11
117.2199999999999989
21
-67.0900000000000034
0
LINE
8
BLACK
6
CONTINUOUS
10
117.2199999999999989
20
-66.1899999999999977
11
116.3199999999999932
21
-67.0900000000000034
0
LINE
8
BLACK
6
CONTINUOUS
10
116.3199999999999932
20
-68.730000000000004
11
117.2199999999999989
21
-69.6299999999999955
0
LINE
8
BLACK
6
CONTINUOUS
10
117.2199999999999989
20
-68.730000000000004
11
116.3199999999999932
21
-69.6299999999999955
0
LINE
8
BLACK
6
CONTINUOUS
10
119.2099999999999937
20
-82.7399999999999949
11
120.1099999999999994
21
-83.6400000000000006
0
LINE
8
BLACK
6
CONTINUOUS
10
120.1099999999999994
20
-82.7399999999999949
11
119.2099999999999937
21
-83.6400000000000006
0
LINE
8
BLACK
6
CONTINUOUS
10
119.2099999999999937
20
-85.2800000000000011
11
120.1099999999999994
21
-86.1799999999999926
0
LINE
8
BLACK
6
CONTINUOUS
10
120.1099999999999994
20
-85.2800000000000011
11
119.2099999999999937
21
-86.1799999999999926
0
LINE
8
BLACK
6
CONTINUOUS
10
119.7599999999999909
20
-66.1899999999999977
11
120.6599999999999966
21
-67.0900000000000034
0
LINE
8
BLACK
6
CONTINUOUS
10
120.6599999999999966
20
-66.1899999999999977
11
119.7599999999999909
21
-67.0900000000000034
0
LINE
8
BLACK
6
CONTINUOUS
10
119.7599999999999909
20
-68.730000000000004
11
120.6599999999999966
21
-69.6299999999999955
0
LINE
8
BLACK
6
CONTINUOUS
10
120.6599999999999966
20
-68.730000000000004
11
119.7599999999999909
21
-69.6299999999999955
0
LINE
8
BLACK
6
CONTINUOUS
10
123.1899999999999977
20
-82.7749999999999915
11
124.0899999999999892
21
-83.6749999999999972
0
LINE
8
BLACK
6
CONTINUOUS
10
124.0899999999999892
20
-82.7749999999999915
11
123.1899999999999977
21
-83.6749999999999972
0
LINE
8
BLACK
6
CONTINUOUS
10
123.1899999999999977
20
-85.3149999999999977
11
124.0899999999999892
21
-86.2149999999999892
0
LINE
8
BLACK
6
CONTINUOUS
10
124.0899999999999892
20
-85.3149999999999977
11
123.1899999999999977
21
-86.2149999999999892
0
LINE
8
BLACK
6
CONTINUOUS
10
123.3499999999999943
20
-66.1899999999999977
11
124.25
21
-67.0900000000000034
0
LINE
8
BLACK
6
CONTINUOUS
10
124.25
20
-66.1899999999999977
11
123.3499999999999943
21
-67.0900000000000034
0
LINE
8
BLACK
6
CONTINUOUS
10
123.3499999999999943
20
-68.730000000000004
11
124.25
21
-69.6299999999999955
0
LINE
8
BLACK
6
CONTINUOUS
10
124.25
20
-68.730000000000004
11
123.3499999999999943
21
-69.6299999999999955
0
LINE
8
BLACK
6
CONTINUOUS
10
126.6999999999999886
20
-82.8199999999999932
11
127.5999999999999943
21
-83.7199999999999989
0
LINE
8
BLACK
6
CONTINUOUS
10
127.5999999999999943
20
-82.8199999999999932
11
126.6999999999999886
21
-83.7199999999999989
0
LINE
8
BLACK
6
CONTINUOUS
10
126.6999999999999886
20
-85.3599999999999994
11
127.5999999999999943
21
-86.2599999999999909
0
LINE
8
BLACK
6
CONTINUOUS
10
127.5999999999999943
20
-85.3599999999999994
11
126.6999999999999886
21
-86.2599999999999909
0
LINE
8
BLACK
6
CONTINUOUS
10
126.8599999999999994
20
-66.1199999999999903
11
127.7599999999999909
21
-67.019999999999996
0
LINE
8
BLACK
6
CONTINUOUS
10
127.7599999999999909
20
-66.1199999999999903
11
126.8599999999999994
21
-67.019999999999996
0
LINE
8
BLACK
6
CONTINUOUS
10
126.8599999999999994
20
-68.6599999999999966
11
127.7599999999999909
21
-69.5600000000000023
0
LINE
8
BLACK
6
CONTINUOUS
10
127.7599999999999909
20
-68.6599999999999966
11
126.8599999999999994
21
-69.5600000000000023
0
LINE
8
BLACK
6
CONTINUOUS
10
130.1399999999999864
20
-82.8199999999999932
11
131.039999999999992
21
-83.7199999999999989
0
LINE
8
BLACK
6
CONTINUOUS
10
131.039999999999992
20
-82.8199999999999932
11
130.1399999999999864
21
-83.7199999999999989
0
LINE
8
BLACK
6
CONTINUOUS
10
130.1399999999999864
20
-85.3599999999999994
11
131.039999999999992
21
-86.2599999999999909
0
LINE
8
BLACK
6
CONTINUOUS
10
131.039999999999992
20
-85.3599999999999994
11
130.1399999999999864
21
-86.2599999999999909
0
LINE
8
BLACK
6
CONTINUOUS
10
135.4499999999999886
20
-80.789999999999992
11
136.3499999999999943
21
-81.6899999999999977
0
LINE
8
BLACK
6
CONTINUOUS
10
136.3499999999999943
20
-80.789999999999992
11
135.4499999999999886
21
-81.6899999999999977
0
LINE
8
BLACK
6
CONTINUOUS
10
135.4499999999999886
20
-83.3299999999999983
11
136.3499999999999943
21
-84.2299999999999898
0
LINE
8
BLACK
6
CONTINUOUS
10
136.3499999999999943
20
-83.3299999999999983
11
135.4499999999999886
21
-84.2299999999999898
0
LINE
8
BLACK
6
CONTINUOUS
10
146.4499999999999886
20
-80.9500000000000028
11
147.3499999999999943
21
-81.8499999999999943
0
LINE
8
BLACK
6
CONTINUOUS
10
147.3499999999999943
20
-80.9500000000000028
11
146.4499999999999886
21
-81.8499999999999943
0
LINE
8
BLACK
6
CONTINUOUS
10
146.4499999999999886
20
-83.4899999999999949
11
147.3499999999999943
21
-84.3900000000000006
0
LINE
8
BLACK
6
CONTINUOUS
10
147.3499999999999943
20
-83.4899999999999949
11
146.4499999999999886
21
-84.3900000000000006
0
CIRCLE
8
BLACK
10
97.789999999999992
20
-64.519999999999996
40
0.595
0
CIRCLE
8
BLACK
10
97.789999999999992
20
-72.25
40
0.595
0
CIRCLE
8
BLACK
10
98.5519999999999925
20
-82.8239999999999981
40
0.595
0
CIRCLE
8
BLACK
10
98.5519999999999925
20
-91.4599999999999937
40
0.595
0
CIRCLE
8
BLACK
10
100.3299999999999983
20
-64.519999999999996
40
0.595
0
CIRCLE
8
BLACK
10
100.3299999999999983
20
-72.25
40
0.595
0
CIRCLE
8
BLACK
10
101.0919999999999987
20
-82.8239999999999981
40
0.595
0
CIRCLE
8
BLACK
10
101.0919999999999987
20
-91.4599999999999937
40
0.595
0
CIRCLE
8
BLACK
10
105.4299999999999926
20
-67.4099999999999966
40
0.595
0
CIRCLE
8
BLACK
10
107.8999999999999915
20
-99.8599999999999994
40
0.595
0
CIRCLE
8
BLACK
10
107.9699999999999989
20
-67.4099999999999966
40
0.595
0
CIRCLE
8
BLACK
10
108.1499999999999915
20
-77.6899999999999977
40
0.595
0
CIRCLE
8
BLACK
10
108.7079999999999984
20
-91.7399999999999949
40
0.595
0
CIRCLE
8
BLACK
10
110.4399999999999977
20
-99.8599999999999994
40
0.595
0
CIRCLE
8
BLACK
10
110.6899999999999977
20
-77.6899999999999977
40
0.595
0
CIRCLE
8
BLACK
10
111.2479999999999905
20
-91.7399999999999949
40
0.595
0
CIRCLE
8
BLACK
10
112.9799999999999898
20
-99.8599999999999994
40
0.595
0
CIRCLE
8
BLACK
10
113.2299999999999898
20
-77.6899999999999977
40
0.595
0
CIRCLE
8
BLACK
10
115.769999999999996
20
-77.6899999999999977
40
0.595
0
CIRCLE
8
BLACK
10
118.3099999999999881
20
-77.6899999999999977
40
0.595
0
CIRCLE
8
BLACK
10
119.0779999999999887
20
-99.8599999999999994
40
0.595
0
CIRCLE
8
BLACK
10
120.0099999999999909
20
-57.3999999999999986
40
0.595
0
CIRCLE
8
BLACK
10
120.137999999999991
20
-91.7399999999999949
40
0.595
0
CIRCLE
8
BLACK
10
120.8499999999999943
20
-77.6899999999999977
40
0.595
0
CIRCLE
8
BLACK
10
121.617999999999995
20
-99.8599999999999994
40
0.595
0
CIRCLE
8
BLACK
10
122.5499999999999972
20
-57.3999999999999986
40
0.595
0
CIRCLE
8
BLACK
10
122.6779999999999973
20
-91.7399999999999949
40
0.595
0
CIRCLE
8
BLACK
10
124.1580000000000013
20
-99.8599999999999994
40
0.595
0
CIRCLE
8
BLACK
10
132.7939999999999827
20
-99.8599999999999994
40
0.595
0
CIRCLE
8
BLACK
10
133.5900000000000034
20
-72.1499999999999915
40
0.595
0
CIRCLE
8
BLACK
10
134.1080000000000041
20
-91.7399999999999949
40
0.595
0
CIRCLE
8
BLACK
10
135.3340000000000032
20
-99.8599999999999994
40
0.595
0
CIRCLE
8
BLACK
10
136.1299999999999955
20
-72.1499999999999915
40
0.595
0
CIRCLE
8
BLACK
10
136.6479999999999961
20
-91.7399999999999949
40
0.595
0
CIRCLE
8
BLACK
10
137.8739999999999952
20
-99.8599999999999994
40
0.595
0
CIRCLE
8
BLACK
10
138.6699999999999875
20
-72.1499999999999915
40
0.595
0
CIRCLE
8
BLACK
10
140.4619999999999891
20
-61.9759999999999991
40
0.595
0
CIRCLE
8
BLACK
10
141.2099999999999795
20
-72.1499999999999915
40
0.595
0
CIRCLE
8
BLACK
10
143.0019999999999811
20
-61.9759999999999991
40
0.595
0
CIRCLE
8
BLACK
10
143.75
20
-72.1499999999999915
40
0.595
0
CIRCLE
8
BLACK
10
143.9699999999999989
20
-99.8599999999999994
40
0.595
0
CIRCLE
8
BLACK
10
145.0300000000000011
20
-91.7399999999999949
40
0.595
0
CIRCLE
8
BLACK
10
145.5420000000000016
20
-61.9759999999999991
40
0.595
0
CIRCLE
8
BLACK
10
146.289999999999992
20
-72.1499999999999915
40
0.595
0
CIRCLE
8
BLACK
10
146.5099999999999909
20
-99.8599999999999994
40
0.595
0
CIRCLE
8
BLACK
10
147.5699999999999932
20
-91.7399999999999949
40
0.595
0
CIRCLE
8
BLACK
10
148.8299999999999841
20
-72.1499999999999915
40
0.595
0
CIRCLE
8
BLACK
10
149.0499999999999829
20
-99.8599999999999994
40
0.595
0
CIRCLE
8
BLACK
10
151.3700000000000045
20
-72.1499999999999915
40
0.595
0
CIRCLE
8
BLACK
10
156.6699999999999875
20
-63.4919999999999973
40
0.595
0
CIRCLE
8
BLACK
10
156.6699999999999875
20
-71.6400000000000006
40
0.595
0
CIRCLE
8
BLACK
10
158.9699999999999989
20
-82.8399999999999892
40
0.595
0
CIRCLE
8
BLACK
10
158.9699999999999989
20
-91.9839999999999947
40
0.595
0
CIRCLE
8
BLACK
10
159.2099999999999795
20
-63.4919999999999973
40
0.595
0
CIRCLE
8
BLACK
10
159.2099999999999795
20
-71.6400000000000006
40
0.595
0
CIRCLE
8
BLACK
10
161.5099999999999909
20
-82.8399999999999892
40
0.595
0
CIRCLE
8
BLACK
10
161.5099999999999909
20
-91.9839999999999947
40
0.595
0
CIRCLE
8
BLACK
10
161.75
20
-63.4919999999999973
40
0.595
0
CIRCLE
8
BLACK
10
161.75
20
-71.6400000000000006
40
0.595
0
CIRCLE
8
BLACK
10
164.0499999999999829
20
-82.8399999999999892
40
0.595
0
CIRCLE
8
BLACK
10
164.0499999999999829
20
-91.9839999999999947
40
0.595
0
CIRCLE
8
BLACK
10
164.289999999999992
20
-63.4919999999999973
40
0.595
0
CIRCLE
8
BLACK
10
164.289999999999992
20
-71.6400000000000006
40
0.595
0
LINE
8
BLACK
6
CONTINUOUS
10
98.3157679999999914
20
-107.8128379999999993
11
98.3157679999999914
21
-105.8128379999999993
0
LINE
8
BLACK
6
CONTINUOUS
10
98.3157679999999914
20
-105.8128379999999993
11
98.7919579999999939
21
-105.8128379999999993
0
LINE
8
BLACK
6
CONTINUOUS
10
98.7919579999999939
20
-105.8128379999999993
11
99.0776729999999901
21
-105.9080759999999941
0
LINE
8
BLACK
6
CONTINUOUS
10
99.0776729999999901
20
-105.9080759999999941
11
99.268148999999994
21
-106.098551999999998
0
LINE
8
BLACK
6
CONTINUOUS
10
99.268148999999994
20
-106.098551999999998
11
99.3633869999999888
21
-106.2890280000000018
0
LINE
8
BLACK
6
CONTINUOUS
10
99.3633869999999888
20
-106.2890280000000018
11
99.4586249999999978
21
-106.6699799999999954
0
LINE
8
BLACK
6
CONTINUOUS
10
99.4586249999999978
20
-106.6699799999999954
11
99.4586249999999978
21
-106.9556949999999915
0
LINE
8
BLACK
6
CONTINUOUS
10
99.4586249999999978
20
-106.9556949999999915
11
99.3633869999999888
21
-107.3366469999999993
0
LINE
8
BLACK
6
CONTINUOUS
10
99.3633869999999888
20
-107.3366469999999993
11
99.268148999999994
21
-107.5271229999999889
0
LINE
8
BLACK
6
CONTINUOUS
10
99.268148999999994
20
-107.5271229999999889
11
99.0776729999999901
21
-107.7175999999999902
0
LINE
8
BLACK
6
CONTINUOUS
10
99.0776729999999901
20
-107.7175999999999902
11
98.7919579999999939
21
-107.8128379999999993
0
LINE
8
BLACK
6
CONTINUOUS
10
98.7919579999999939
20
-107.8128379999999993
11
98.3157679999999914
21
-107.8128379999999993
0
LINE
8
BLACK
6
CONTINUOUS
10
100.3157679999999914
20
-107.8128379999999993
11
100.3157679999999914
21
-106.4795039999999915
0
LINE
8
BLACK
6
CONTINUOUS
10
100.3157679999999914
20
-106.8604569999999967
11
100.4110060000000004
21
-106.6699799999999954
0
LINE
8
BLACK
6
CONTINUOUS
10
100.4110060000000004
20
-106.6699799999999954
11
100.5062439999999953
21
-106.5747420000000005
0
LINE
8
BLACK
6
CONTINUOUS
10
100.5062439999999953
20
-106.5747420000000005
11
100.6967199999999991
21
-106.4795039999999915
0
LINE
8
BLACK
6
CONTINUOUS
10
100.6967199999999991
20
-106.4795039999999915
11
100.8871970000000005
21
-106.4795039999999915
0
LINE
8
BLACK
6
CONTINUOUS
10
101.5538629999999927
20
-107.8128379999999993
11
101.5538629999999927
21
-106.4795039999999915
0
LINE
8
BLACK
6
CONTINUOUS
10
101.5538629999999927
20
-105.8128379999999993
11
101.4586249999999978
21
-105.9080759999999941
0
LINE
8
BLACK
6
CONTINUOUS
10
101.4586249999999978
20
-105.9080759999999941
11
101.5538629999999927
21
-106.0033139999999889
0
LINE
8
BLACK
6
CONTINUOUS
10
101.5538629999999927
20
-106.0033139999999889
11
101.6491010000000017
21
-105.9080759999999941
0
LINE
8
BLACK
6
CONTINUOUS
10
101.6491010000000017
20
-105.9080759999999941
11
101.5538629999999927
21
-105.8128379999999993
0
LINE
8
BLACK
6
CONTINUOUS
10
101.5538629999999927
20
-105.8128379999999993
11
101.5538629999999927
21
-106.0033139999999889
0
LINE
8
BLACK
6
CONTINUOUS
10
102.7919579999999939
20
-107.8128379999999993
11
102.6014819999999901
21
-107.7175999999999902
0
LINE
8
BLACK
6
CONTINUOUS
10
102.6014819999999901
20
-107.7175999999999902
11
102.5062439999999953
21
-107.5271229999999889
0
LINE
8
BLACK
6
CONTINUOUS
10
102.5062439999999953
20
-107.5271229999999889
11
102.5062439999999953
21
-105.8128379999999993
0
LINE
8
BLACK
6
CONTINUOUS
10
103.8395769999999914
20
-107.8128379999999993
11
103.6491010000000017
21
-107.7175999999999902
0
LINE
8
BLACK
6
CONTINUOUS
10
103.6491010000000017
20
-107.7175999999999902
11
103.5538629999999927
21
-107.5271229999999889
0
LINE
8
BLACK
6
CONTINUOUS
10
103.5538629999999927
20
-107.5271229999999889
11
103.5538629999999927
21
-105.8128379999999993
0
LINE
8
BLACK
6
CONTINUOUS
10
106.1252920000000017
20
-107.8128379999999993
11
106.1252920000000017
21
-105.8128379999999993
0
LINE
8
BLACK
6
CONTINUOUS
10
106.1252920000000017
20
-105.8128379999999993
11
106.7919589999999914
21
-107.2414089999999902
0
LINE
8
BLACK
6
CONTINUOUS
10
106.7919589999999914
20
-107.2414089999999902
11
107.4586249999999978
21
-105.8128379999999993
0
LINE
8
BLACK
6
CONTINUOUS
10
107.4586249999999978
20
-105.8128379999999993
11
107.4586249999999978
21
-107.8128379999999993
0
LINE
8
BLACK
6
CONTINUOUS
10
109.268148999999994
20
-107.8128379999999993
11
109.268148999999994
21
-106.7652190000000019
0
LINE
8
BLACK
6
CONTINUOUS
10
109.268148999999994
20
-106.7652190000000019
11
109.1729109999999991
21
-106.5747420000000005
0
LINE
8
BLACK
6
CONTINUOUS
10
109.1729109999999991
20
-106.5747420000000005
11
108.9824349999999953
21
-106.4795039999999915
0
LINE
8
BLACK
6
CONTINUOUS
10
108.9824349999999953
20
-106.4795039999999915
11
108.6014819999999901
21
-106.4795039999999915
0
LINE
8
BLACK
6
CONTINUOUS
10
108.6014819999999901
20
-106.4795039999999915
11
108.4110060000000004
21
-106.5747420000000005
0
LINE
8
BLACK
6
CONTINUOUS
10
109.268148999999994
20
-107.7175999999999902
11
109.0776729999999901
21
-107.8128379999999993
0
LINE
8
BLACK
6
CONTINUOUS
10
109.0776729999999901
20
-107.8128379999999993
11
108.6014819999999901
21
-107.8128379999999993
0
LINE
8
BLACK
6
CONTINUOUS
10
108.6014819999999901
20
-107.8128379999999993
11
108.4110060000000004
21
-107.7175999999999902
0
LINE
8
BLACK
6
CONTINUOUS
10
108.4110060000000004
20
-107.7175999999999902
11
108.3157679999999914
21
-107.5271229999999889
0
LINE
8
BLACK
6
CONTINUOUS
10
108.3157679999999914
20
-107.5271229999999889
11
108.3157679999999914
21
-107.3366469999999993
0
LINE
8
BLACK
6
CONTINUOUS
10
108.3157679999999914
20
-107.3366469999999993
11
108.4110060000000004
21
-107.1461709999999954
0
LINE
8
BLACK
6
CONTINUOUS
10
108.4110060000000004
20
-107.1461709999999954
11
108.6014819999999901
21
-107.0509330000000006
0
LINE
8
BLACK
6
CONTINUOUS
10
108.6014819999999901
20
-107.0509330000000006
11
109.0776729999999901
21
-107.0509330000000006
0
LINE
8
BLACK
6
CONTINUOUS
10
109.0776729999999901
20
-107.0509330000000006
11
109.268148999999994
21
-106.9556949999999915
0
LINE
8
BLACK
6
CONTINUOUS
10
110.2205299999999966
20
-106.4795039999999915
11
110.2205299999999966
21
-108.4795039999999915
0
LINE
8
BLACK
6
CONTINUOUS
10
110.2205299999999966
20
-106.5747420000000005
11
110.4110060000000004
21
-106.4795039999999915
0
LINE
8
BLACK
6
CONTINUOUS
10
110.4110060000000004
20
-106.4795039999999915
11
110.7919589999999914
21
-106.4795039999999915
0
LINE
8
BLACK
6
CONTINUOUS
10
110.7919589999999914
20
-106.4795039999999915
11
110.9824349999999953
21
-106.5747420000000005
0
LINE
8
BLACK
6
CONTINUOUS
10
110.9824349999999953
20
-106.5747420000000005
11
111.0776729999999901
21
-106.6699799999999954
0
LINE
8
BLACK
6
CONTINUOUS
10
111.0776729999999901
20
-106.6699799999999954
11
111.1729109999999991
21
-106.8604569999999967
0
LINE
8
BLACK
6
CONTINUOUS
10
111.1729109999999991
20
-106.8604569999999967
11
111.1729109999999991
21
-107.4318849999999941
0
LINE
8
BLACK
6
CONTINUOUS
10
111.1729109999999991
20
-107.4318849999999941
11
111.0776729999999901
21
-107.6223609999999979
0
LINE
8
BLACK
6
CONTINUOUS
10
111.0776729999999901
20
-107.6223609999999979
11
110.9824349999999953
21
-107.7175999999999902
0
LINE
8
BLACK
6
CONTINUOUS
10
110.9824349999999953
20
-107.7175999999999902
11
110.7919589999999914
21
-107.8128379999999993
0
LINE
8
BLACK
6
CONTINUOUS
10
110.7919589999999914
20
-107.8128379999999993
11
110.4110060000000004
21
-107.8128379999999993
0
LINE
8
BLACK
6
CONTINUOUS
10
110.4110060000000004
20
-107.8128379999999993
11
110.2205299999999966
21
-107.7175999999999902
0
LINE
8
BLACK
6
CONTINUOUS
10
112.0300539999999927
20
-107.6223609999999979
11
112.1252920000000017
21
-107.7175999999999902
0
LINE
8
BLACK
6
CONTINUOUS
10
112.1252920000000017
20
-107.7175999999999902
11
112.0300539999999927
21
-107.8128379999999993
0
LINE
8
BLACK
6
CONTINUOUS
10
112.0300539999999927
20
-107.8128379999999993
11
111.9348159999999979
21
-107.7175999999999902
0
LINE
8
BLACK
6
CONTINUOUS
10
111.9348159999999979
20
-107.7175999999999902
11
112.0300539999999927
21
-107.6223609999999979
0
LINE
8
BLACK
6
CONTINUOUS
10
112.0300539999999927
20
-107.6223609999999979
11
112.0300539999999927
21
-107.8128379999999993
0
LINE
8
BLACK
6
CONTINUOUS
10
112.0300539999999927
20
-106.5747420000000005
11
112.1252920000000017
21
-106.6699799999999954
0
LINE
8
BLACK
6
CONTINUOUS
10
112.1252920000000017
20
-106.6699799999999954
11
112.0300539999999927
21
-106.7652190000000019
0
LINE
8
BLACK
6
CONTINUOUS
10
112.0300539999999927
20
-106.7652190000000019
11
111.9348159999999979
21
-106.6699799999999954
0
LINE
8
BLACK
6
CONTINUOUS
10
111.9348159999999979
20
-106.6699799999999954
11
112.0300539999999927
21
-106.5747420000000005
0
LINE
8
BLACK
6
CONTINUOUS
10
112.0300539999999927
20
-106.5747420000000005
11
112.0300539999999927
21
-106.7652190000000019
0
LINE
8
BLACK
6
CONTINUOUS
10
94.8079999999999927
20
-110.6479999999999961
11
95.7079999999999984
21
-111.5480000000000018
0
LINE
8
BLACK
6
CONTINUOUS
10
95.7079999999999984
20
-110.6479999999999961
11
94.8079999999999927
21
-111.5480000000000018
0
LINE
8
BLACK
6
CONTINUOUS
10
98.6967199999999991
20
-110.0128380000000021
11
98.8871970000000005
21
-110.0128380000000021
0
LINE
8
BLACK
6
CONTINUOUS
10
98.8871970000000005
20
-110.0128380000000021
11
99.0776729999999901
21
-110.108075999999997
0
LINE
8
BLACK
6
CONTINUOUS
10
99.0776729999999901
20
-110.108075999999997
11
99.1729109999999991
21
-110.2033139999999918
0
LINE
8
BLACK
6
CONTINUOUS
10
99.1729109999999991
20
-110.2033139999999918
11
99.268148999999994
21
-110.3937899999999956
0
LINE
8
BLACK
6
CONTINUOUS
10
99.268148999999994
20
-110.3937899999999956
11
99.3633869999999888
21
-110.7747419999999892
0
LINE
8
BLACK
6
CONTINUOUS
10
99.3633869999999888
20
-110.7747419999999892
11
99.3633869999999888
21
-111.2509329999999892
0
LINE
8
BLACK
6
CONTINUOUS
10
99.3633869999999888
20
-111.2509329999999892
11
99.268148999999994
21
-111.6318849999999969
0
LINE
8
BLACK
6
CONTINUOUS
10
99.268148999999994
20
-111.6318849999999969
11
99.1729109999999991
21
-111.8223610000000008
0
LINE
8
BLACK
6
CONTINUOUS
10
99.1729109999999991
20
-111.8223610000000008
11
99.0776729999999901
21
-111.9175999999999931
0
LINE
8
BLACK
6
CONTINUOUS
10
99.0776729999999901
20
-111.9175999999999931
11
98.8871970000000005
21
-112.0128379999999879
0
LINE
8
BLACK
6
CONTINUOUS
10
98.8871970000000005
20
-112.0128379999999879
11
98.6967199999999991
21
-112.0128379999999879
0
LINE
8
BLACK
6
CONTINUOUS
10
98.6967199999999991
20
-112.0128379999999879
11
98.5062439999999953
21
-111.9175999999999931
0
LINE
8
BLACK
6
CONTINUOUS
10
98.5062439999999953
20
-111.9175999999999931
11
98.4110060000000004
21
-111.8223610000000008
0
LINE
8
BLACK
6
CONTINUOUS
10
98.4110060000000004
20
-111.8223610000000008
11
98.3157679999999914
21
-111.6318849999999969
0
LINE
8
BLACK
6
CONTINUOUS
10
98.3157679999999914
20
-111.6318849999999969
11
98.2205299999999966
21
-111.2509329999999892
0
LINE
8
BLACK
6
CONTINUOUS
10
98.2205299999999966
20
-111.2509329999999892
11
98.2205299999999966
21
-110.7747419999999892
0
LINE
8
BLACK
6
CONTINUOUS
10
98.2205299999999966
20
-110.7747419999999892
11
98.3157679999999914
21
-110.3937899999999956
0
LINE
8
BLACK
6
CONTINUOUS
10
98.3157679999999914
20
-110.3937899999999956
11
98.4110060000000004
21
-110.2033139999999918
0
LINE
8
BLACK
6
CONTINUOUS
10
98.4110060000000004
20
-110.2033139999999918
11
98.5062439999999953
21
-110.108075999999997
0
LINE
8
BLACK
6
CONTINUOUS
10
98.5062439999999953
20
-110.108075999999997
11
98.6967199999999991
21
-110.0128380000000021
0
LINE
8
BLACK
6
CONTINUOUS
10
100.2205299999999966
20
-111.8223610000000008
11
100.3157679999999914
21
-111.9175999999999931
0
LINE
8
BLACK
6
CONTINUOUS
10
100.3157679999999914
20
-111.9175999999999931
11
100.2205299999999966
21
-112.0128379999999879
0
LINE
8
BLACK
6
CONTINUOUS
10
100.2205299999999966
20
-112.0128379999999879
11
100.1252920000000017
21
-111.9175999999999931
0
LINE
8
BLACK
6
CONTINUOUS
10
100.1252920000000017
20
-111.9175999999999931
11
100.2205299999999966
21
-111.8223610000000008
0
LINE
8
BLACK
6
CONTINUOUS
10
100.2205299999999966
20
-111.8223610000000008
11
100.2205299999999966
21
-112.0128379999999879
0
LINE
8
BLACK
6
CONTINUOUS
10
101.268148999999994
20
-112.0128379999999879
11
101.6491010000000017
21
-112.0128379999999879
0
LINE
8
BLACK
6
CONTINUOUS
10
101.6491010000000017
20
-112.0128379999999879
11
101.8395779999999888
21
-111.9175999999999931
0
LINE
8
BLACK
6
CONTINUOUS
10
101.8395779999999888
20
-111.9175999999999931
11
101.9348159999999979
21
-111.8223610000000008
0
LINE
8
BLACK
6
CONTINUOUS
10
101.9348159999999979
20
-111.8223610000000008
11
102.1252920000000017
21
-111.5366469999999879
0
LINE
8
BLACK
6
CONTINUOUS
10
102.1252920000000017
20
-111.5366469999999879
11
102.2205299999999966
21
-111.1556949999999944
0
LINE
8
BLACK
6
CONTINUOUS
10
102.2205299999999966
20
-111.1556949999999944
11
102.2205299999999966
21
-110.3937899999999956
0
LINE
8
BLACK
6
CONTINUOUS
10
102.2205299999999966
20
-110.3937899999999956
11
102.1252920000000017
21
-110.2033139999999918
0
LINE
8
BLACK
6
CONTINUOUS
10
102.1252920000000017
20
-110.2033139999999918
11
102.0300539999999927
21
-110.108075999999997
0
LINE
8
BLACK
6
CONTINUOUS
10
102.0300539999999927
20
-110.108075999999997
11
101.8395779999999888
21
-110.0128380000000021
0
LINE
8
BLACK
6
CONTINUOUS
10
101.8395779999999888
20
-110.0128380000000021
11
101.4586249999999978
21
-110.0128380000000021
0
LINE
8
BLACK
6
CONTINUOUS
10
101.4586249999999978
20
-110.0128380000000021
11
101.268148999999994
21
-110.108075999999997
0
LINE
8
BLACK
6
CONTINUOUS
10
101.268148999999994
20
-110.108075999999997
11
101.1729109999999991
21
-110.2033139999999918
0
LINE
8
BLACK
6
CONTINUOUS
10
101.1729109999999991
20
-110.2033139999999918
11
101.0776729999999901
21
-110.3937899999999956
0
LINE
8
BLACK
6
CONTINUOUS
10
101.0776729999999901
20
-110.3937899999999956
11
101.0776729999999901
21
-110.8699799999999982
0
LINE
8
BLACK
6
CONTINUOUS
10
101.0776729999999901
20
-110.8699799999999982
11
101.1729109999999991
21
-111.0604569999999995
0
LINE
8
BLACK
6
CONTINUOUS
10
101.1729109999999991
20
-111.0604569999999995
11
101.268148999999994
21
-111.1556949999999944
0
LINE
8
BLACK
6
CONTINUOUS
10
101.268148999999994
20
-111.1556949999999944
11
101.4586249999999978
21
-111.2509329999999892
0
LINE
8
BLACK
6
CONTINUOUS
10
101.4586249999999978
20
-111.2509329999999892
11
101.8395779999999888
21
-111.2509329999999892
0
LINE
8
BLACK
6
CONTINUOUS
10
101.8395779999999888
20
-111.2509329999999892
11
102.0300539999999927
21
-111.1556949999999944
0
LINE
8
BLACK
6
CONTINUOUS
10
102.0300539999999927
20
-111.1556949999999944
11
102.1252920000000017
21
-111.0604569999999995
0
LINE
8
BLACK
6
CONTINUOUS
10
102.1252920000000017
20
-111.0604569999999995
11
102.2205299999999966
21
-110.8699799999999982
0
LINE
8
BLACK
6
CONTINUOUS
10
103.4586249999999978
20
-110.0128380000000021
11
103.6491019999999992
21
-110.0128380000000021
0
LINE
8
BLACK
6
CONTINUOUS
10
103.6491019999999992
20
-110.0128380000000021
11
103.8395779999999888
21
-110.108075999999997
0
LINE
8
BLACK
6
CONTINUOUS
10
103.8395779999999888
20
-110.108075999999997
11
103.9348159999999979
21
-110.2033139999999918
0
LINE
8
BLACK
6
CONTINUOUS
10
103.9348159999999979
20
-110.2033139999999918
11
104.0300539999999927
21
-110.3937899999999956
0
LINE
8
BLACK
6
CONTINUOUS
10
104.0300539999999927
20
-110.3937899999999956
11
104.1252920000000017
21
-110.7747419999999892
0
LINE
8
BLACK
6
CONTINUOUS
10
104.1252920000000017
20
-110.7747419999999892
11
104.1252920000000017
21
-111.2509329999999892
0
LINE
8
BLACK
6
CONTINUOUS
10
104.1252920000000017
20
-111.2509329999999892
11
104.0300539999999927
21
-111.6318849999999969
0
LINE
8
BLACK
6
CONTINUOUS
10
104.0300539999999927
20
-111.6318849999999969
11
103.9348159999999979
21
-111.8223610000000008
0
LINE
8
BLACK
6
CONTINUOUS
10
103.9348159999999979
20
-111.8223610000000008
11
103.8395779999999888
21
-111.9175999999999931
0
LINE
8
BLACK
6
CONTINUOUS
10
103.8395779999999888
20
-111.9175999999999931
11
103.6491019999999992
21
-112.0128379999999879
0
LINE
8
BLACK
6
CONTINUOUS
10
103.6491019999999992
20
-112.0128379999999879
11
103.4586249999999978
21
-112.0128379999999879
0
LINE
8
BLACK
6
CONTINUOUS
10
103.4586249999999978
20
-112.0128379999999879
11
103.268148999999994
21
-111.9175999999999931
0
LINE
8
BLACK
6
CONTINUOUS
10
103.268148999999994
20
-111.9175999999999931
11
103.1729109999999991
21
-111.8223610000000008
0
LINE
8
BLACK
6
CONTINUOUS
10
103.1729109999999991
20
-111.8223610000000008
11
103.0776729999999901
21
-111.6318849999999969
0
LINE
8
BLACK
6
CONTINUOUS
10
103.0776729999999901
20
-111.6318849999999969
11
102.9824349999999953
21
-111.2509329999999892
0
LINE
8
BLACK
6
CONTINUOUS
10
102.9824349999999953
20
-111.2509329999999892
11
102.9824349999999953
21
-110.7747419999999892
0
LINE
8
BLACK
6
CONTINUOUS
10
102.9824349999999953
20
-110.7747419999999892
11
103.0776729999999901
21
-110.3937899999999956
0
LINE
8
BLACK
6
CONTINUOUS
10
103.0776729999999901
20
-110.3937899999999956
11
103.1729109999999991
21
-110.2033139999999918
0
LINE
8
BLACK
6
CONTINUOUS
10
103.1729109999999991
20
-110.2033139999999918
11
103.268148999999994
21
-110.108075999999997
0
LINE
8
BLACK
6
CONTINUOUS
10
103.268148999999994
20
-110.108075999999997
11
103.4586249999999978
21
-110.0128380000000021
0
LINE
8
BLACK
6
CONTINUOUS
10
105.3633869999999888
20
-110.0128380000000021
11
105.5538639999999901
21
-110.0128380000000021
0
LINE
8
BLACK
6
CONTINUOUS
10
105.5538639999999901
20
-110.0128380000000021
11
105.744339999999994
21
-110.108075999999997
0
LINE
8
BLACK
6
CONTINUOUS
10
105.744339999999994
20
-110.108075999999997
11
105.8395779999999888
21
-110.2033139999999918
0
LINE
8
BLACK
6
CONTINUOUS
10
105.8395779999999888
20
-110.2033139999999918
11
105.9348159999999979
21
-110.3937899999999956
0
LINE
8
BLACK
6
CONTINUOUS
10
105.9348159999999979
20
-110.3937899999999956
11
106.0300539999999927
21
-110.7747419999999892
0
LINE
8
BLACK
6
CONTINUOUS
10
106.0300539999999927
20
-110.7747419999999892
11
106.0300539999999927
21
-111.2509329999999892
0
LINE
8
BLACK
6
CONTINUOUS
10
106.0300539999999927
20
-111.2509329999999892
11
105.9348159999999979
21
-111.6318849999999969
0
LINE
8
BLACK
6
CONTINUOUS
10
105.9348159999999979
20
-111.6318849999999969
11
105.8395779999999888
21
-111.8223610000000008
0
LINE
8
BLACK
6
CONTINUOUS
10
105.8395779999999888
20
-111.8223610000000008
11
105.744339999999994
21
-111.9175999999999931
0
LINE
8
BLACK
6
CONTINUOUS
10
105.744339999999994
20
-111.9175999999999931
11
105.5538639999999901
21
-112.0128379999999879
0
LINE
8
BLACK
6
CONTINUOUS
10
105.5538639999999901
20
-112.0128379999999879
11
105.3633869999999888
21
-112.0128379999999879
0
LINE
8
BLACK
6
CONTINUOUS
10
105.3633869999999888
20
-112.0128379999999879
11
105.1729109999999991
21
-111.9175999999999931
0
LINE
8
BLACK
6
CONTINUOUS
10
105.1729109999999991
20
-111.9175999999999931
11
105.0776729999999901
21
-111.8223610000000008
0
LINE
8
BLACK
6
CONTINUOUS
10
105.0776729999999901
20
-111.8223610000000008
11
104.9824349999999953
21
-111.6318849999999969
0
LINE
8
BLACK
6
CONTINUOUS
10
104.9824349999999953
20
-111.6318849999999969
11
104.8871970000000005
21
-111.2509329999999892
0
LINE
8
BLACK
6
CONTINUOUS
10
104.8871970000000005
20
-111.2509329999999892
11
104.8871970000000005
21
-110.7747419999999892
0
LINE
8
BLACK
6
CONTINUOUS
10
104.8871970000000005
20
-110.7747419999999892
11
104.9824349999999953
21
-110.3937899999999956
0
LINE
8
BLACK
6
CONTINUOUS
10
104.9824349999999953
20
-110.3937899999999956
11
105.0776729999999901
21
-110.2033139999999918
0
LINE
8
BLACK
6
CONTINUOUS
10
105.0776729999999901
20
-110.2033139999999918
11
105.1729109999999991
21
-110.108075999999997
0
LINE
8
BLACK
6
CONTINUOUS
10
105.1729109999999991
20
-110.108075999999997
11
105.3633869999999888
21
-110.0128380000000021
0
LINE
8
BLACK
6
CONTINUOUS
10
106.8871970000000005
20
-112.0128379999999879
11
106.8871970000000005
21
-110.6795039999999943
0
LINE
8
BLACK
6
CONTINUOUS
10
106.8871970000000005
20
-110.8699799999999982
11
106.9824349999999953
21
-110.7747419999999892
0
LINE
8
BLACK
6
CONTINUOUS
10
106.9824349999999953
20
-110.7747419999999892
11
107.1729109999999991
21
-110.6795039999999943
0
LINE
8
BLACK
6
CONTINUOUS
10
107.1729109999999991
20
-110.6795039999999943
11
107.4586259999999953
21
-110.6795039999999943
0
LINE
8
BLACK
6
CONTINUOUS
10
107.4586259999999953
20
-110.6795039999999943
11
107.6491019999999992
21
-110.7747419999999892
0
LINE
8
BLACK
6
CONTINUOUS
10
107.6491019999999992
20
-110.7747419999999892
11
107.744339999999994
21
-110.9652189999999905
0
LINE
8
BLACK
6
CONTINUOUS
10
107.744339999999994
20
-110.9652189999999905
11
107.744339999999994
21
-112.0128379999999879
0
LINE
8
BLACK
6
CONTINUOUS
10
107.744339999999994
20
-110.9652189999999905
11
107.8395779999999888
21
-110.7747419999999892
0
LINE
8
BLACK
6
CONTINUOUS
10
107.8395779999999888
20
-110.7747419999999892
11
108.0300539999999927
21
-110.6795039999999943
0
LINE
8
BLACK
6
CONTINUOUS
10
108.0300539999999927
20
-110.6795039999999943
11
108.3157679999999914
21
-110.6795039999999943
0
LINE
8
BLACK
6
CONTINUOUS
10
108.3157679999999914
20
-110.6795039999999943
11
108.5062449999999927
21
-110.7747419999999892
0
LINE
8
BLACK
6
CONTINUOUS
10
108.5062449999999927
20
-110.7747419999999892
11
108.6014830000000018
21
-110.9652189999999905
0
LINE
8
BLACK
6
CONTINUOUS
10
108.6014830000000018
20
-110.9652189999999905
11
108.6014830000000018
21
-112.0128379999999879
0
LINE
8
BLACK
6
CONTINUOUS
10
109.5538639999999901
20
-112.0128379999999879
11
109.5538639999999901
21
-110.6795039999999943
0
LINE
8
BLACK
6
CONTINUOUS
10
109.5538639999999901
20
-110.8699799999999982
11
109.6491019999999992
21
-110.7747419999999892
0
LINE
8
BLACK
6
CONTINUOUS
10
109.6491019999999992
20
-110.7747419999999892
11
109.8395779999999888
21
-110.6795039999999943
0
LINE
8
BLACK
6
CONTINUOUS
10
109.8395779999999888
20
-110.6795039999999943
11
110.1252929999999992
21
-110.6795039999999943
0
LINE
8
BLACK
6
CONTINUOUS
10
110.1252929999999992
20
-110.6795039999999943
11
110.3157689999999889
21
-110.7747419999999892
0
LINE
8
BLACK
6
CONTINUOUS
10
110.3157689999999889
20
-110.7747419999999892
11
110.4110069999999979
21
-110.9652189999999905
0
LINE
8
BLACK
6
CONTINUOUS
10
110.4110069999999979
20
-110.9652189999999905
11
110.4110069999999979
21
-112.0128379999999879
0
LINE
8
BLACK
6
CONTINUOUS
10
110.4110069999999979
20
-110.9652189999999905
11
110.5062449999999927
21
-110.7747419999999892
0
LINE
8
BLACK
6
CONTINUOUS
10
110.5062449999999927
20
-110.7747419999999892
11
110.6967209999999966
21
-110.6795039999999943
0
LINE
8
BLACK
6
CONTINUOUS
10
110.6967209999999966
20
-110.6795039999999943
11
110.9824349999999953
21
-110.6795039999999943
0
LINE
8
BLACK
6
CONTINUOUS
10
110.9824349999999953
20
-110.6795039999999943
11
111.1729119999999966
21
-110.7747419999999892
0
LINE
8
BLACK
6
CONTINUOUS
10
111.1729119999999966
20
-110.7747419999999892
11
111.2681499999999915
21
-110.9652189999999905
0
LINE
8
BLACK
6
CONTINUOUS
10
111.2681499999999915
20
-110.9652189999999905
11
111.2681499999999915
21
-112.0128379999999879
0
LINE
8
BLACK
6
CONTINUOUS
10
115.1729119999999966
20
-109.9175999999999931
11
113.4586269999999928
21
-112.4890279999999905
0
LINE
8
BLACK
6
CONTINUOUS
10
117.7443409999999915
20
-110.0128380000000021
11
117.9348179999999928
21
-110.0128380000000021
0
LINE
8
BLACK
6
CONTINUOUS
10
117.9348179999999928
20
-110.0128380000000021
11
118.1252939999999967
21
-110.108075999999997
0
LINE
8
BLACK
6
CONTINUOUS
10
118.1252939999999967
20
-110.108075999999997
11
118.2205319999999915
21
-110.2033139999999918
0
LINE
8
BLACK
6
CONTINUOUS
10
118.2205319999999915
20
-110.2033139999999918
11
118.3157700000000006
21
-110.3937899999999956
0
LINE
8
BLACK
6
CONTINUOUS
10
118.3157700000000006
20
-110.3937899999999956
11
118.4110079999999954
21
-110.7747419999999892
0
LINE
8
BLACK
6
CONTINUOUS
10
118.4110079999999954
20
-110.7747419999999892
11
118.4110079999999954
21
-111.2509329999999892
0
LINE
8
BLACK
6
CONTINUOUS
10
118.4110079999999954
20
-111.2509329999999892
11
118.3157700000000006
21
-111.6318849999999969
0
LINE
8
BLACK
6
CONTINUOUS
10
118.3157700000000006
20
-111.6318849999999969
11
118.2205319999999915
21
-111.8223610000000008
0
LINE
8
BLACK
6
CONTINUOUS
10
118.2205319999999915
20
-111.8223610000000008
11
118.1252939999999967
21
-111.9175999999999931
0
LINE
8
BLACK
6
CONTINUOUS
10
118.1252939999999967
20
-111.9175999999999931
11
117.9348179999999928
21
-112.0128379999999879
0
LINE
8
BLACK
6
CONTINUOUS
10
117.9348179999999928
20
-112.0128379999999879
11
117.7443409999999915
21
-112.0128379999999879
0
LINE
8
BLACK
6
CONTINUOUS
10
117.7443409999999915
20
-112.0128379999999879
11
117.5538649999999876
21
-111.9175999999999931
0
LINE
8
BLACK
6
CONTINUOUS
10
117.5538649999999876
20
-111.9175999999999931
11
117.4586269999999928
21
-111.8223610000000008
0
LINE
8
BLACK
6
CONTINUOUS
10
117.4586269999999928
20
-111.8223610000000008
11
117.363388999999998
21
-111.6318849999999969
0
LINE
8
BLACK
6
CONTINUOUS
10
117.363388999999998
20
-111.6318849999999969
11
117.2681509999999889
21
-111.2509329999999892
0
LINE
8
BLACK
6
CONTINUOUS
10
117.2681509999999889
20
-111.2509329999999892
11
117.2681509999999889
21
-110.7747419999999892
0
LINE
8
BLACK
6
CONTINUOUS
10
117.2681509999999889
20
-110.7747419999999892
11
117.363388999999998
21
-110.3937899999999956
0
LINE
8
BLACK
6
CONTINUOUS
10
117.363388999999998
20
-110.3937899999999956
11
117.4586269999999928
21
-110.2033139999999918
0
LINE
8
BLACK
6
CONTINUOUS
10
117.4586269999999928
20
-110.2033139999999918
11
117.5538649999999876
21
-110.108075999999997
0
LINE
8
BLACK
6
CONTINUOUS
10
117.5538649999999876
20
-110.108075999999997
11
117.7443409999999915
21
-110.0128380000000021
0
LINE
8
BLACK
6
CONTINUOUS
10
119.2681509999999889
20
-111.8223610000000008
11
119.363388999999998
21
-111.9175999999999931
0
LINE
8
BLACK
6
CONTINUOUS
10
119.363388999999998
20
-111.9175999999999931
11
119.2681509999999889
21
-112.0128379999999879
0
LINE
8
BLACK
6
CONTINUOUS
10
119.2681509999999889
20
-112.0128379999999879
11
119.1729129999999941
21
-111.9175999999999931
0
LINE
8
BLACK
6
CONTINUOUS
10
119.1729129999999941
20
-111.9175999999999931
11
119.2681509999999889
21
-111.8223610000000008
0
LINE
8
BLACK
6
CONTINUOUS
10
119.2681509999999889
20
-111.8223610000000008
11
119.2681509999999889
21
-112.0128379999999879
0
LINE
8
BLACK
6
CONTINUOUS
10
120.6014839999999992
20
-110.0128380000000021
11
120.7919610000000006
21
-110.0128380000000021
0
LINE
8
BLACK
6
CONTINUOUS
10
120.7919610000000006
20
-110.0128380000000021
11
120.9824369999999902
21
-110.108075999999997
0
LINE
8
BLACK
6
CONTINUOUS
10
120.9824369999999902
20
-110.108075999999997
11
121.0776749999999993
21
-110.2033139999999918
0
LINE
8
BLACK
6
CONTINUOUS
10
121.0776749999999993
20
-110.2033139999999918
11
121.1729129999999941
21
-110.3937899999999956
0
LINE
8
BLACK
6
CONTINUOUS
10
121.1729129999999941
20
-110.3937899999999956
11
121.2681509999999889
21
-110.7747419999999892
0
LINE
8
BLACK
6
CONTINUOUS
10
121.2681509999999889
20
-110.7747419999999892
11
121.2681509999999889
21
-111.2509329999999892
0
LINE
8
BLACK
6
CONTINUOUS
10
121.2681509999999889
20
-111.2509329999999892
11
121.1729129999999941
21
-111.6318849999999969
0
LINE
8
BLACK
6
CONTINUOUS
10
121.1729129999999941
20
-111.6318849999999969
11
121.0776749999999993
21
-111.8223610000000008
0
LINE
8
BLACK
6
CONTINUOUS
10
121.0776749999999993
20
-111.8223610000000008
11
120.9824369999999902
21
-111.9175999999999931
0
LINE
8
BLACK
6
CONTINUOUS
10
120.9824369999999902
20
-111.9175999999999931
11
120.7919610000000006
21
-112.0128379999999879
0
LINE
8
BLACK
6
CONTINUOUS
10
120.7919610000000006
20
-112.0128379999999879
11
120.6014839999999992
21
-112.0128379999999879
0
LINE
8
BLACK
6
CONTINUOUS
10
120.6014839999999992
20
-112.0128379999999879
11
120.4110079999999954
21
-111.9175999999999931
0
LINE
8
BLACK
6
CONTINUOUS
10
120.4110079999999954
20
-111.9175999999999931
11
120.3157700000000006
21
-111.8223610000000008
0
LINE
8
BLACK
6
CONTINUOUS
10
120.3157700000000006
20
-111.8223610000000008
11
120.2205319999999915
21
-111.6318849999999969
0
LINE
8
BLACK
6
CONTINUOUS
10
120.2205319999999915
20
-111.6318849999999969
11
120.1252939999999967
21
-111.2509329999999892
0
LINE
8
BLACK
6
CONTINUOUS
10
120.1252939999999967
20
-111.2509329999999892
11
120.1252939999999967
21
-110.7747419999999892
0
LINE
8
BLACK
6
CONTINUOUS
10
120.1252939999999967
20
-110.7747419999999892
11
120.2205319999999915
21
-110.3937899999999956
0
LINE
8
BLACK
6
CONTINUOUS
10
120.2205319999999915
20
-110.3937899999999956
11
120.3157700000000006
21
-110.2033139999999918
0
LINE
8
BLACK
6
CONTINUOUS
10
120.3157700000000006
20
-110.2033139999999918
11
120.4110079999999954
21
-110.108075999999997
0
LINE
8
BLACK
6
CONTINUOUS
10
120.4110079999999954
20
-110.108075999999997
11
120.6014839999999992
21
-110.0128380000000021
0
LINE
8
BLACK
6
CONTINUOUS
10
121.9348179999999928
20
-110.0128380000000021
11
123.1729129999999941
21
-110.0128380000000021
0
LINE
8
BLACK
6
CONTINUOUS
10
123.1729129999999941
20
-110.0128380000000021
11
122.5062459999999902
21
-110.7747419999999892
0
LINE
8
BLACK
6
CONTINUOUS
10
122.5062459999999902
20
-110.7747419999999892
11
122.7919610000000006
21
-110.7747419999999892
0
LINE
8
BLACK
6
CONTINUOUS
10
122.7919610000000006
20
-110.7747419999999892
11
122.9824369999999902
21
-110.8699799999999982
0
LINE
8
BLACK
6
CONTINUOUS
10
122.9824369999999902
20
-110.8699799999999982
11
123.0776749999999993
21
-110.9652189999999905
0
LINE
8
BLACK
6
CONTINUOUS
10
123.0776749999999993
20
-110.9652189999999905
11
123.1729129999999941
21
-111.1556949999999944
0
LINE
8
BLACK
6
CONTINUOUS
10
123.1729129999999941
20
-111.1556949999999944
11
123.1729129999999941
21
-111.6318849999999969
0
LINE
8
BLACK
6
CONTINUOUS
10
123.1729129999999941
20
-111.6318849999999969
11
123.0776749999999993
21
-111.8223610000000008
0
LINE
8
BLACK
6
CONTINUOUS
10
123.0776749999999993
20
-111.8223610000000008
11
122.9824369999999902
21
-111.9175999999999931
0
LINE
8
BLACK
6
CONTINUOUS
10
122.9824369999999902
20
-111.9175999999999931
11
122.7919610000000006
21
-112.0128379999999879
0
LINE
8
BLACK
6
CONTINUOUS
10
122.7919610000000006
20
-112.0128379999999879
11
122.2205319999999915
21
-112.0128379999999879
0
LINE
8
BLACK
6
CONTINUOUS
10
122.2205319999999915
20
-112.0128379999999879
11
122.0300559999999876
21
-111.9175999999999931
0
LINE
8
BLACK
6
CONTINUOUS
10
122.0300559999999876
20
-111.9175999999999931
11
121.9348179999999928
21
-111.8223610000000008
0
LINE
8
BLACK
6
CONTINUOUS
10
124.9824369999999902
20
-110.0128380000000021
11
124.0300559999999876
21
-110.0128380000000021
0
LINE
8
BLACK
6
CONTINUOUS
10
124.0300559999999876
20
-110.0128380000000021
11
123.9348179999999928
21
-110.9652189999999905
0
LINE
8
BLACK
6
CONTINUOUS
10
123.9348179999999928
20
-110.9652189999999905
11
124.0300559999999876
21
-110.8699799999999982
0
LINE
8
BLACK
6
CONTINUOUS
10
124.0300559999999876
20
-110.8699799999999982
11
124.2205319999999915
21
-110.7747419999999892
0
LINE
8
BLACK
6
CONTINUOUS
10
124.2205319999999915
20
-110.7747419999999892
11
124.6967229999999915
21
-110.7747419999999892
0
LINE
8
BLACK
6
CONTINUOUS
10
124.6967229999999915
20
-110.7747419999999892
11
124.8871989999999954
21
-110.8699799999999982
0
LINE
8
BLACK
6
CONTINUOUS
10
124.8871989999999954
20
-110.8699799999999982
11
124.9824369999999902
21
-110.9652189999999905
0
LINE
8
BLACK
6
CONTINUOUS
10
124.9824369999999902
20
-110.9652189999999905
11
125.0776749999999993
21
-111.1556949999999944
0
LINE
8
BLACK
6
CONTINUOUS
10
125.0776749999999993
20
-111.1556949999999944
11
125.0776749999999993
21
-111.6318849999999969
0
LINE
8
BLACK
6
CONTINUOUS
10
125.0776749999999993
20
-111.6318849999999969
11
124.9824369999999902
21
-111.8223610000000008
0
LINE
8
BLACK
6
CONTINUOUS
10
124.9824369999999902
20
-111.8223610000000008
11
124.8871989999999954
21
-111.9175999999999931
0
LINE
8
BLACK
6
CONTINUOUS
10
124.8871989999999954
20
-111.9175999999999931
11
124.6967229999999915
21
-112.0128379999999879
0
LINE
8
BLACK
6
CONTINUOUS
10
124.6967229999999915
20
-112.0128379999999879
11
124.2205319999999915
21
-112.0128379999999879
0
LINE
8
BLACK
6
CONTINUOUS
10
124.2205319999999915
20
-112.0128379999999879
11
124.0300559999999876
21
-111.9175999999999931
0
LINE
8
BLACK
6
CONTINUOUS
10
124.0300559999999876
20
-111.9175999999999931
11
123.9348179999999928
21
-111.8223610000000008
0
LINE
8
BLACK
6
CONTINUOUS
10
126.7919610000000006
20
-110.6795039999999943
11
126.7919610000000006
21
-112.0128379999999879
0
LINE
8
BLACK
6
CONTINUOUS
10
126.3157700000000006
20
-109.9175999999999931
11
125.839579999999998
21
-111.3461709999999982
0
LINE
8
BLACK
6
CONTINUOUS
10
125.839579999999998
20
-111.3461709999999982
11
127.0776749999999993
21
-111.3461709999999982
0
LINE
8
BLACK
6
CONTINUOUS
10
127.744341999999989
20
-110.0128380000000021
11
127.744341999999989
21
-110.3937899999999956
0
LINE
8
BLACK
6
CONTINUOUS
10
128.5062470000000019
20
-110.0128380000000021
11
128.5062470000000019
21
-110.3937899999999956
0
LINE
8
BLACK
6
CONTINUOUS
10
131.458629000000002
20
-112.7747419999999892
11
131.3633899999999812
21
-112.6795039999999943
0
LINE
8
BLACK
6
CONTINUOUS
10
131.3633899999999812
20
-112.6795039999999943
11
131.1729139999999916
21
-112.3937899999999956
0
LINE
8
BLACK
6
CONTINUOUS
10
131.1729139999999916
20
-112.3937899999999956
11
131.0776759999999967
21
-112.2033139999999918
0
LINE
8
BLACK
6
CONTINUOUS
10
131.0776759999999967
20
-112.2033139999999918
11
130.9824380000000019
21
-111.9175999999999931
0
LINE
8
BLACK
6
CONTINUOUS
10
130.9824380000000019
20
-111.9175999999999931
11
130.8872000000000071
21
-111.4414089999999931
0
LINE
8
BLACK
6
CONTINUOUS
10
130.8872000000000071
20
-111.4414089999999931
11
130.8872000000000071
21
-111.0604569999999995
0
LINE
8
BLACK
6
CONTINUOUS
10
130.8872000000000071
20
-111.0604569999999995
11
130.9824380000000019
21
-110.5842659999999995
0
LINE
8
BLACK
6
CONTINUOUS
10
130.9824380000000019
20
-110.5842659999999995
11
131.0776759999999967
21
-110.2985520000000008
0
LINE
8
BLACK
6
CONTINUOUS
10
131.0776759999999967
20
-110.2985520000000008
11
131.1729139999999916
21
-110.108075999999997
0
LINE
8
BLACK
6
CONTINUOUS
10
131.1729139999999916
20
-110.108075999999997
11
131.3633899999999812
21
-109.8223610000000008
0
LINE
8
BLACK
6
CONTINUOUS
10
131.3633899999999812
20
-109.8223610000000008
11
131.458629000000002
21
-109.7271229999999917
0
LINE
8
BLACK
6
CONTINUOUS
10
132.1252949999999942
20
-110.2033139999999918
11
132.220532999999989
21
-110.108075999999997
0
LINE
8
BLACK
6
CONTINUOUS
10
132.220532999999989
20
-110.108075999999997
11
132.4110090000000071
21
-110.0128380000000021
0
LINE
8
BLACK
6
CONTINUOUS
10
132.4110090000000071
20
-110.0128380000000021
11
132.8872000000000071
21
-110.0128380000000021
0
LINE
8
BLACK
6
CONTINUOUS
10
132.8872000000000071
20
-110.0128380000000021
11
133.0776759999999967
21
-110.108075999999997
0
LINE
8
BLACK
6
CONTINUOUS
10
133.0776759999999967
20
-110.108075999999997
11
133.1729139999999916
21
-110.2033139999999918
0
LINE
8
BLACK
6
CONTINUOUS
10
133.1729139999999916
20
-110.2033139999999918
11
133.2681519999999864
21
-110.3937899999999956
0
LINE
8
BLACK
6
CONTINUOUS
10
133.2681519999999864
20
-110.3937899999999956
11
133.2681519999999864
21
-110.5842659999999995
0
LINE
8
BLACK
6
CONTINUOUS
10
133.2681519999999864
20
-110.5842659999999995
11
133.1729139999999916
21
-110.8699799999999982
0
LINE
8
BLACK
6
CONTINUOUS
10
133.1729139999999916
20
-110.8699799999999982
11
132.0300569999999993
21
-112.0128379999999879
0
LINE
8
BLACK
6
CONTINUOUS
10
132.0300569999999993
20
-112.0128379999999879
11
133.2681519999999864
21
-112.0128379999999879
0
LINE
8
BLACK
6
CONTINUOUS
10
134.9824380000000019
20
-110.0128380000000021
11
134.6014849999999967
21
-110.0128380000000021
0
LINE
8
BLACK
6
CONTINUOUS
10
134.6014849999999967
20
-110.0128380000000021
11
134.4110090000000071
21
-110.108075999999997
0
LINE
8
BLACK
6
CONTINUOUS
10
134.4110090000000071
20
-110.108075999999997
11
134.3157709999999838
21
-110.2033139999999918
0
LINE
8
BLACK
6
CONTINUOUS
10
134.3157709999999838
20
-110.2033139999999918
11
134.1252949999999942
21
-110.4890279999999905
0
LINE
8
BLACK
6
CONTINUOUS
10
134.1252949999999942
20
-110.4890279999999905
11
134.0300569999999993
21
-110.8699799999999982
0
LINE
8
BLACK
6
CONTINUOUS
10
134.0300569999999993
20
-110.8699799999999982
11
134.0300569999999993
21
-111.6318849999999969
0
LINE
8
BLACK
6
CONTINUOUS
10
134.0300569999999993
20
-111.6318849999999969
11
134.1252949999999942
21
-111.8223610000000008
0
LINE
8
BLACK
6
CONTINUOUS
10
134.1252949999999942
20
-111.8223610000000008
11
134.220532999999989
21
-111.9175999999999931
0
LINE
8
BLACK
6
CONTINUOUS
10
134.220532999999989
20
-111.9175999999999931
11
134.4110090000000071
21
-112.0128379999999879
0
LINE
8
BLACK
6
CONTINUOUS
10
134.4110090000000071
20
-112.0128379999999879
11
134.7919619999999838
21
-112.0128379999999879
0
LINE
8
BLACK
6
CONTINUOUS
10
134.7919619999999838
20
-112.0128379999999879
11
134.9824380000000019
21
-111.9175999999999931
0
LINE
8
BLACK
6
CONTINUOUS
10
134.9824380000000019
20
-111.9175999999999931
11
135.0776759999999967
21
-111.8223610000000008
0
LINE
8
BLACK
6
CONTINUOUS
10
135.0776759999999967
20
-111.8223610000000008
11
135.1729139999999916
21
-111.6318849999999969
0
LINE
8
BLACK
6
CONTINUOUS
10
135.1729139999999916
20
-111.6318849999999969
11
135.1729139999999916
21
-111.1556949999999944
0
LINE
8
BLACK
6
CONTINUOUS
10
135.1729139999999916
20
-111.1556949999999944
11
135.0776759999999967
21
-110.9652189999999905
0
LINE
8
BLACK
6
CONTINUOUS
10
135.0776759999999967
20
-110.9652189999999905
11
134.9824380000000019
21
-110.8699799999999982
0
LINE
8
BLACK
6
CONTINUOUS
10
134.9824380000000019
20
-110.8699799999999982
11
134.7919619999999838
21
-110.7747419999999892
0
LINE
8
BLACK
6
CONTINUOUS
10
134.7919619999999838
20
-110.7747419999999892
11
134.4110090000000071
21
-110.7747419999999892
0
LINE
8
BLACK
6
CONTINUOUS
10
134.4110090000000071
20
-110.7747419999999892
11
134.220532999999989
21
-110.8699799999999982
0
LINE
8
BLACK
6
CONTINUOUS
10
134.220532999999989
20
-110.8699799999999982
11
134.1252949999999942
21
-110.9652189999999905
0
LINE
8
BLACK
6
CONTINUOUS
10
134.1252949999999942
20
-110.9652189999999905
11
134.0300569999999993
21
-111.1556949999999944
0
LINE
8
BLACK
6
CONTINUOUS
10
137.5538669999999968
20
-112.0128379999999879
11
137.5538669999999968
21
-110.0128380000000021
0
LINE
8
BLACK
6
CONTINUOUS
10
138.4110100000000045
20
-112.0128379999999879
11
138.4110100000000045
21
-110.9652189999999905
0
LINE
8
BLACK
6
CONTINUOUS
10
138.4110100000000045
20
-110.9652189999999905
11
138.3157719999999813
21
-110.7747419999999892
0
LINE
8
BLACK
6
CONTINUOUS
10
138.3157719999999813
20
-110.7747419999999892
11
138.1252959999999916
21
-110.6795039999999943
0
LINE
8
BLACK
6
CONTINUOUS
10
138.1252959999999916
20
-110.6795039999999943
11
137.8395809999999813
21
-110.6795039999999943
0
LINE
8
BLACK
6
CONTINUOUS
10
137.8395809999999813
20
-110.6795039999999943
11
137.6491049999999916
21
-110.7747419999999892
0
LINE
8
BLACK
6
CONTINUOUS
10
137.6491049999999916
20
-110.7747419999999892
11
137.5538669999999968
21
-110.8699799999999982
0
LINE
8
BLACK
6
CONTINUOUS
10
139.6491049999999916
20
-112.0128379999999879
11
139.458629000000002
21
-111.9175999999999931
0
LINE
8
BLACK
6
CONTINUOUS
10
139.458629000000002
20
-111.9175999999999931
11
139.3633910000000071
21
-111.8223610000000008
0
LINE
8
BLACK
6
CONTINUOUS
10
139.3633910000000071
20
-111.8223610000000008
11
139.2681529999999839
21
-111.6318849999999969
0
LINE
8
BLACK
6
CONTINUOUS
10
139.2681529999999839
20
-111.6318849999999969
11
139.2681529999999839
21
-111.0604569999999995
0
LINE
8
BLACK
6
CONTINUOUS
10
139.2681529999999839
20
-111.0604569999999995
11
139.3633910000000071
21
-110.8699799999999982
0
LINE
8
BLACK
6
CONTINUOUS
10
139.3633910000000071
20
-110.8699799999999982
11
139.458629000000002
21
-110.7747419999999892
0
LINE
8
BLACK
6
CONTINUOUS
10
139.458629000000002
20
-110.7747419999999892
11
139.6491049999999916
21
-110.6795039999999943
0
LINE
8
BLACK
6
CONTINUOUS
10
139.6491049999999916
20
-110.6795039999999943
11
139.934820000000002
21
-110.6795039999999943
0
LINE
8
BLACK
6
CONTINUOUS
10
139.934820000000002
20
-110.6795039999999943
11
140.1252959999999916
21
-110.7747419999999892
0
LINE
8
BLACK
6
CONTINUOUS
10
140.1252959999999916
20
-110.7747419999999892
11
140.2205339999999865
21
-110.8699799999999982
0
LINE
8
BLACK
6
CONTINUOUS
10
140.2205339999999865
20
-110.8699799999999982
11
140.3157719999999813
21
-111.0604569999999995
0
LINE
8
BLACK
6
CONTINUOUS
10
140.3157719999999813
20
-111.0604569999999995
11
140.3157719999999813
21
-111.6318849999999969
0
LINE
8
BLACK
6
CONTINUOUS
10
140.3157719999999813
20
-111.6318849999999969
11
140.2205339999999865
21
-111.8223610000000008
0
LINE
8
BLACK
6
CONTINUOUS
10
140.2205339999999865
20
-111.8223610000000008
11
140.1252959999999916
21
-111.9175999999999931
0
LINE
8
BLACK
6
CONTINUOUS
10
140.1252959999999916
20
-111.9175999999999931
11
139.934820000000002
21
-112.0128379999999879
0
LINE
8
BLACK
6
CONTINUOUS
10
139.934820000000002
20
-112.0128379999999879
11
139.6491049999999916
21
-112.0128379999999879
0
LINE
8
BLACK
6
CONTINUOUS
10
141.458629000000002
20
-112.0128379999999879
11
141.2681529999999839
21
-111.9175999999999931
0
LINE
8
BLACK
6
CONTINUOUS
10
141.2681529999999839
20
-111.9175999999999931
11
141.172914999999989
21
-111.7271229999999917
0
LINE
8
BLACK
6
CONTINUOUS
10
141.172914999999989
20
-111.7271229999999917
11
141.172914999999989
21
-110.0128380000000021
0
LINE
8
BLACK
6
CONTINUOUS
10
142.9824389999999994
20
-111.9175999999999931
11
142.7919629999999813
21
-112.0128379999999879
0
LINE
8
BLACK
6
CONTINUOUS
10
142.7919629999999813
20
-112.0128379999999879
11
142.4110100000000045
21
-112.0128379999999879
0
LINE
8
BLACK
6
CONTINUOUS
10
142.4110100000000045
20
-112.0128379999999879
11
142.2205339999999865
21
-111.9175999999999931
0
LINE
8
BLACK
6
CONTINUOUS
10
142.2205339999999865
20
-111.9175999999999931
11
142.1252959999999916
21
-111.7271229999999917
0
LINE
8
BLACK
6
CONTINUOUS
10
142.1252959999999916
20
-111.7271229999999917
11
142.1252959999999916
21
-110.9652189999999905
0
LINE
8
BLACK
6
CONTINUOUS
10
142.1252959999999916
20
-110.9652189999999905
11
142.2205339999999865
21
-110.7747419999999892
0
LINE
8
BLACK
6
CONTINUOUS
10
142.2205339999999865
20
-110.7747419999999892
11
142.4110100000000045
21
-110.6795039999999943
0
LINE
8
BLACK
6
CONTINUOUS
10
142.4110100000000045
20
-110.6795039999999943
11
142.7919629999999813
21
-110.6795039999999943
0
LINE
8
BLACK
6
CONTINUOUS
10
142.7919629999999813
20
-110.6795039999999943
11
142.9824389999999994
21
-110.7747419999999892
0
LINE
8
BLACK
6
CONTINUOUS
10
142.9824389999999994
20
-110.7747419999999892
11
143.0776769999999942
21
-110.9652189999999905
0
LINE
8
BLACK
6
CONTINUOUS
10
143.0776769999999942
20
-110.9652189999999905
11
143.0776769999999942
21
-111.1556949999999944
0
LINE
8
BLACK
6
CONTINUOUS
10
143.0776769999999942
20
-111.1556949999999944
11
142.1252959999999916
21
-111.3461709999999982
0
LINE
8
BLACK
6
CONTINUOUS
10
143.8395820000000072
20
-111.9175999999999931
11
144.0300579999999968
21
-112.0128379999999879
0
LINE
8
BLACK
6
CONTINUOUS
10
144.0300579999999968
20
-112.0128379999999879
11
144.4110100000000045
21
-112.0128379999999879
0
LINE
8
BLACK
6
CONTINUOUS
10
144.4110100000000045
20
-112.0128379999999879
11
144.6014869999999917
21
-111.9175999999999931
0
LINE
8
BLACK
6
CONTINUOUS
10
144.6014869999999917
20
-111.9175999999999931
11
144.6967249999999865
21
-111.7271229999999917
0
LINE
8
BLACK
6
CONTINUOUS
10
144.6967249999999865
20
-111.7271229999999917
11
144.6967249999999865
21
-111.6318849999999969
0
LINE
8
BLACK
6
CONTINUOUS
10
144.6967249999999865
20
-111.6318849999999969
11
144.6014869999999917
21
-111.4414089999999931
0
LINE
8
BLACK
6
CONTINUOUS
10
144.6014869999999917
20
-111.4414089999999931
11
144.4110100000000045
21
-111.3461709999999982
0
LINE
8
BLACK
6
CONTINUOUS
10
144.4110100000000045
20
-111.3461709999999982
11
144.1252959999999916
21
-111.3461709999999982
0
LINE
8
BLACK
6
CONTINUOUS
10
144.1252959999999916
20
-111.3461709999999982
11
143.934820000000002
21
-111.2509329999999892
0
LINE
8
BLACK
6
CONTINUOUS
10
143.934820000000002
20
-111.2509329999999892
11
143.8395820000000072
21
-111.0604569999999995
0
LINE
8
BLACK
6
CONTINUOUS
10
143.8395820000000072
20
-111.0604569999999995
11
143.8395820000000072
21
-110.9652189999999905
0
LINE
8
BLACK
6
CONTINUOUS
10
143.8395820000000072
20
-110.9652189999999905
11
143.934820000000002
21
-110.7747419999999892
0
LINE
8
BLACK
6
CONTINUOUS
10
143.934820000000002
20
-110.7747419999999892
11
144.1252959999999916
21
-110.6795039999999943
0
LINE
8
BLACK
6
CONTINUOUS
10
144.1252959999999916
20
-110.6795039999999943
11
144.4110100000000045
21
-110.6795039999999943
0
LINE
8
BLACK
6
CONTINUOUS
10
144.4110100000000045
20
-110.6795039999999943
11
144.6014869999999917
21
-110.7747419999999892
0
LINE
8
BLACK
6
CONTINUOUS
10
145.3633920000000046
20
-112.7747419999999892
11
145.4586299999999994
21
-112.6795039999999943
0
LINE
8
BLACK
6
CONTINUOUS
10
145.4586299999999994
20
-112.6795039999999943
11
145.6491059999999891
21
-112.3937899999999956
0
LINE
8
BLACK
6
CONTINUOUS
10
145.6491059999999891
20
-112.3937899999999956
11
145.7443439999999839
21
-112.2033139999999918
0
LINE
8
BLACK
6
CONTINUOUS
10
145.7443439999999839
20
-112.2033139999999918
11
145.8395820000000072
21
-111.9175999999999931
0
LINE
8
BLACK
6
CONTINUOUS
10
145.8395820000000072
20
-111.9175999999999931
11
145.934820000000002
21
-111.4414089999999931
0
LINE
8
BLACK
6
CONTINUOUS
10
145.934820000000002
20
-111.4414089999999931
11
145.934820000000002
21
-111.0604569999999995
0
LINE
8
BLACK
6
CONTINUOUS
10
145.934820000000002
20
-111.0604569999999995
11
145.8395820000000072
21
-110.5842659999999995
0
LINE
8
BLACK
6
CONTINUOUS
10
145.8395820000000072
20
-110.5842659999999995
11
145.7443439999999839
21
-110.2985520000000008
0
LINE
8
BLACK
6
CONTINUOUS
10
145.7443439999999839
20
-110.2985520000000008
11
145.6491059999999891
21
-110.108075999999997
0
LINE
8
BLACK
6
CONTINUOUS
10
145.6491059999999891
20
-110.108075999999997
11
145.4586299999999994
21
-109.8223610000000008
0
LINE
8
BLACK
6
CONTINUOUS
10
145.4586299999999994
20
-109.8223610000000008
11
145.3633920000000046
21
-109.7271229999999917
0
CIRCLE
8
BLACK
10
95.1129999999999995
20
-113.7379999999999995
40
0.595
0
LINE
8
BLACK
6
CONTINUOUS
10
99.3633869999999888
20
-114.6528379999999885
11
98.2205299999999966
21
-114.6528379999999885
0
LINE
8
BLACK
6
CONTINUOUS
10
98.7919579999999939
20
-114.6528379999999885
11
98.7919579999999939
21
-112.6528379999999885
0
LINE
8
BLACK
6
CONTINUOUS
10
98.7919579999999939
20
-112.6528379999999885
11
98.6014819999999901
21
-112.9385520000000014
0
LINE
8
BLACK
6
CONTINUOUS
10
98.6014819999999901
20
-112.9385520000000014
11
98.4110060000000004
21
-113.129027999999991
0
LINE
8
BLACK
6
CONTINUOUS
10
98.4110060000000004
20
-113.129027999999991
11
98.2205299999999966
21
-113.2242660000000001
0
LINE
8
BLACK
6
CONTINUOUS
10
100.2205299999999966
20
-114.4623610000000014
11
100.3157679999999914
21
-114.5575999999999937
0
LINE
8
BLACK
6
CONTINUOUS
10
100.3157679999999914
20
-114.5575999999999937
11
100.2205299999999966
21
-114.6528379999999885
0
LINE
8
BLACK
6
CONTINUOUS
10
100.2205299999999966
20
-114.6528379999999885
11
100.1252920000000017
21
-114.5575999999999937
0
LINE
8
BLACK
6
CONTINUOUS
10
100.1252920000000017
20
-114.5575999999999937
11
100.2205299999999966
21
-114.4623610000000014
0
LINE
8
BLACK
6
CONTINUOUS
10
100.2205299999999966
20
-114.4623610000000014
11
100.2205299999999966
21
-114.6528379999999885
0
LINE
8
BLACK
6
CONTINUOUS
10
102.2205299999999966
20
-114.6528379999999885
11
101.0776729999999901
21
-114.6528379999999885
0
LINE
8
BLACK
6
CONTINUOUS
10
101.6491010000000017
20
-114.6528379999999885
11
101.6491010000000017
21
-112.6528379999999885
0
LINE
8
BLACK
6
CONTINUOUS
10
101.6491010000000017
20
-112.6528379999999885
11
101.4586249999999978
21
-112.9385520000000014
0
LINE
8
BLACK
6
CONTINUOUS
10
101.4586249999999978
20
-112.9385520000000014
11
101.268148999999994
21
-113.129027999999991
0
LINE
8
BLACK
6
CONTINUOUS
10
101.268148999999994
20
-113.129027999999991
11
101.0776729999999901
21
-113.2242660000000001
0
LINE
8
BLACK
6
CONTINUOUS
10
103.1729109999999991
20
-114.6528379999999885
11
103.5538629999999927
21
-114.6528379999999885
0
LINE
8
BLACK
6
CONTINUOUS
10
103.5538629999999927
20
-114.6528379999999885
11
103.744339999999994
21
-114.5575999999999937
0
LINE
8
BLACK
6
CONTINUOUS
10
103.744339999999994
20
-114.5575999999999937
11
103.8395779999999888
21
-114.4623610000000014
0
LINE
8
BLACK
6
CONTINUOUS
10
103.8395779999999888
20
-114.4623610000000014
11
104.0300539999999927
21
-114.1766469999999885
0
LINE
8
BLACK
6
CONTINUOUS
10
104.0300539999999927
20
-114.1766469999999885
11
104.1252920000000017
21
-113.7956949999999949
0
LINE
8
BLACK
6
CONTINUOUS
10
104.1252920000000017
20
-113.7956949999999949
11
104.1252920000000017
21
-113.0337899999999962
0
LINE
8
BLACK
6
CONTINUOUS
10
104.1252920000000017
20
-113.0337899999999962
11
104.0300539999999927
21
-112.8433139999999923
0
LINE
8
BLACK
6
CONTINUOUS
10
104.0300539999999927
20
-112.8433139999999923
11
103.9348159999999979
21
-112.7480759999999975
0
LINE
8
BLACK
6
CONTINUOUS
10
103.9348159999999979
20
-112.7480759999999975
11
103.744339999999994
21
-112.6528379999999885
0
LINE
8
BLACK
6
CONTINUOUS
10
103.744339999999994
20
-112.6528379999999885
11
103.3633869999999888
21
-112.6528379999999885
0
LINE
8
BLACK
6
CONTINUOUS
10
103.3633869999999888
20
-112.6528379999999885
11
103.1729109999999991
21
-112.7480759999999975
0
LINE
8
BLACK
6
CONTINUOUS
10
103.1729109999999991
20
-112.7480759999999975
11
103.0776729999999901
21
-112.8433139999999923
0
LINE
8
BLACK
6
CONTINUOUS
10
103.0776729999999901
20
-112.8433139999999923
11
102.9824349999999953
21
-113.0337899999999962
0
LINE
8
BLACK
6
CONTINUOUS
10
102.9824349999999953
20
-113.0337899999999962
11
102.9824349999999953
21
-113.5099799999999988
0
LINE
8
BLACK
6
CONTINUOUS
10
102.9824349999999953
20
-113.5099799999999988
11
103.0776729999999901
21
-113.7004570000000001
0
LINE
8
BLACK
6
CONTINUOUS
10
103.0776729999999901
20
-113.7004570000000001
11
103.1729109999999991
21
-113.7956949999999949
0
LINE
8
BLACK
6
CONTINUOUS
10
103.1729109999999991
20
-113.7956949999999949
11
103.3633869999999888
21
-113.8909329999999898
0
LINE
8
BLACK
6
CONTINUOUS
10
103.3633869999999888
20
-113.8909329999999898
11
103.744339999999994
21
-113.8909329999999898
0
LINE
8
BLACK
6
CONTINUOUS
10
103.744339999999994
20
-113.8909329999999898
11
103.9348159999999979
21
-113.7956949999999949
0
LINE
8
BLACK
6
CONTINUOUS
10
103.9348159999999979
20
-113.7956949999999949
11
104.0300539999999927
21
-113.7004570000000001
0
LINE
8
BLACK
6
CONTINUOUS
10
104.0300539999999927
20
-113.7004570000000001
11
104.1252920000000017
21
-113.5099799999999988
0
LINE
8
BLACK
6
CONTINUOUS
10
105.3633869999999888
20
-112.6528379999999885
11
105.5538639999999901
21
-112.6528379999999885
0
LINE
8
BLACK
6
CONTINUOUS
10
105.5538639999999901
20
-112.6528379999999885
11
105.744339999999994
21
-112.7480759999999975
0
LINE
8
BLACK
6
CONTINUOUS
10
105.744339999999994
20
-112.7480759999999975
11
105.8395779999999888
21
-112.8433139999999923
0
LINE
8
BLACK
6
CONTINUOUS
10
105.8395779999999888
20
-112.8433139999999923
11
105.9348159999999979
21
-113.0337899999999962
0
LINE
8
BLACK
6
CONTINUOUS
10
105.9348159999999979
20
-113.0337899999999962
11
106.0300539999999927
21
-113.4147419999999897
0
LINE
8
BLACK
6
CONTINUOUS
10
106.0300539999999927
20
-113.4147419999999897
11
106.0300539999999927
21
-113.8909329999999898
0
LINE
8
BLACK
6
CONTINUOUS
10
106.0300539999999927
20
-113.8909329999999898
11
105.9348159999999979
21
-114.2718849999999975
0
LINE
8
BLACK
6
CONTINUOUS
10
105.9348159999999979
20
-114.2718849999999975
11
105.8395779999999888
21
-114.4623610000000014
0
LINE
8
BLACK
6
CONTINUOUS
10
105.8395779999999888
20
-114.4623610000000014
11
105.744339999999994
21
-114.5575999999999937
0
LINE
8
BLACK
6
CONTINUOUS
10
105.744339999999994
20
-114.5575999999999937
11
105.5538639999999901
21
-114.6528379999999885
0
LINE
8
BLACK
6
CONTINUOUS
10
105.5538639999999901
20
-114.6528379999999885
11
105.3633869999999888
21
-114.6528379999999885
0
LINE
8
BLACK
6
CONTINUOUS
10
105.3633869999999888
20
-114.6528379999999885
11
105.1729109999999991
21
-114.5575999999999937
0
LINE
8
BLACK
6
CONTINUOUS
10
105.1729109999999991
20
-114.5575999999999937
11
105.0776729999999901
21
-114.4623610000000014
0
LINE
8
BLACK
6
CONTINUOUS
10
105.0776729999999901
20
-114.4623610000000014
11
104.9824349999999953
21
-114.2718849999999975
0
LINE
8
BLACK
6
CONTINUOUS
10
104.9824349999999953
20
-114.2718849999999975
11
104.8871970000000005
21
-113.8909329999999898
0
LINE
8
BLACK
6
CONTINUOUS
10
104.8871970000000005
20
-113.8909329999999898
11
104.8871970000000005
21
-113.4147419999999897
0
LINE
8
BLACK
6
CONTINUOUS
10
104.8871970000000005
20
-113.4147419999999897
11
104.9824349999999953
21
-113.0337899999999962
0
LINE
8
BLACK
6
CONTINUOUS
10
104.9824349999999953
20
-113.0337899999999962
11
105.0776729999999901
21
-112.8433139999999923
0
LINE
8
BLACK
6
CONTINUOUS
10
105.0776729999999901
20
-112.8433139999999923
11
105.1729109999999991
21
-112.7480759999999975
0
LINE
8
BLACK
6
CONTINUOUS
10
105.1729109999999991
20
-112.7480759999999975
11
105.3633869999999888
21
-112.6528379999999885
0
LINE
8
BLACK
6
CONTINUOUS
10
106.8871970000000005
20
-114.6528379999999885
11
106.8871970000000005
21
-113.3195039999999949
0
LINE
8
BLACK
6
CONTINUOUS
10
106.8871970000000005
20
-113.5099799999999988
11
106.9824349999999953
21
-113.4147419999999897
0
LINE
8
BLACK
6
CONTINUOUS
10
106.9824349999999953
20
-113.4147419999999897
11
107.1729109999999991
21
-113.3195039999999949
0
LINE
8
BLACK
6
CONTINUOUS
10
107.1729109999999991
20
-113.3195039999999949
11
107.4586259999999953
21
-113.3195039999999949
0
LINE
8
BLACK
6
CONTINUOUS
10
107.4586259999999953
20
-113.3195039999999949
11
107.6491019999999992
21
-113.4147419999999897
0
LINE
8
BLACK
6
CONTINUOUS
10
107.6491019999999992
20
-113.4147419999999897
11
107.744339999999994
21
-113.6052189999999911
0
LINE
8
BLACK
6
CONTINUOUS
10
107.744339999999994
20
-113.6052189999999911
11
107.744339999999994
21
-114.6528379999999885
0
LINE
8
BLACK
6
CONTINUOUS
10
107.744339999999994
20
-113.6052189999999911
11
107.8395779999999888
21
-113.4147419999999897
0
LINE
8
BLACK
6
CONTINUOUS
10
107.8395779999999888
20
-113.4147419999999897
11
108.0300539999999927
21
-113.3195039999999949
0
LINE
8
BLACK
6
CONTINUOUS
10
108.0300539999999927
20
-113.3195039999999949
11
108.3157679999999914
21
-113.3195039999999949
0
LINE
8
BLACK
6
CONTINUOUS
10
108.3157679999999914
20
-113.3195039999999949
11
108.5062449999999927
21
-113.4147419999999897
0
LINE
8
BLACK
6
CONTINUOUS
10
108.5062449999999927
20
-113.4147419999999897
11
108.6014830000000018
21
-113.6052189999999911
0
LINE
8
BLACK
6
CONTINUOUS
10
108.6014830000000018
20
-113.6052189999999911
11
108.6014830000000018
21
-114.6528379999999885
0
LINE
8
BLACK
6
CONTINUOUS
10
109.5538639999999901
20
-114.6528379999999885
11
109.5538639999999901
21
-113.3195039999999949
0
LINE
8
BLACK
6
CONTINUOUS
10
109.5538639999999901
20
-113.5099799999999988
11
109.6491019999999992
21
-113.4147419999999897
0
LINE
8
BLACK
6
CONTINUOUS
10
109.6491019999999992
20
-113.4147419999999897
11
109.8395779999999888
21
-113.3195039999999949
0
LINE
8
BLACK
6
CONTINUOUS
10
109.8395779999999888
20
-113.3195039999999949
11
110.1252929999999992
21
-113.3195039999999949
0
LINE
8
BLACK
6
CONTINUOUS
10
110.1252929999999992
20
-113.3195039999999949
11
110.3157689999999889
21
-113.4147419999999897
0
LINE
8
BLACK
6
CONTINUOUS
10
110.3157689999999889
20
-113.4147419999999897
11
110.4110069999999979
21
-113.6052189999999911
0
LINE
8
BLACK
6
CONTINUOUS
10
110.4110069999999979
20
-113.6052189999999911
11
110.4110069999999979
21
-114.6528379999999885
0
LINE
8
BLACK
6
CONTINUOUS
10
110.4110069999999979
20
-113.6052189999999911
11
110.5062449999999927
21
-113.4147419999999897
0
LINE
8
BLACK
6
CONTINUOUS
10
110.5062449999999927
20
-113.4147419999999897
11
110.6967209999999966
21
-113.3195039999999949
0
LINE
8
BLACK
6
CONTINUOUS
10
110.6967209999999966
20
-113.3195039999999949
11
110.9824349999999953
21
-113.3195039999999949
0
LINE
8
BLACK
6
CONTINUOUS
10
110.9824349999999953
20
-113.3195039999999949
11
111.1729119999999966
21
-113.4147419999999897
0
LINE
8
BLACK
6
CONTINUOUS
10
111.1729119999999966
20
-113.4147419999999897
11
111.2681499999999915
21
-113.6052189999999911
0
LINE
8
BLACK
6
CONTINUOUS
10
111.2681499999999915
20
-113.6052189999999911
11
111.2681499999999915
21
-114.6528379999999885
0
LINE
8
BLACK
6
CONTINUOUS
10
115.1729119999999966
20
-112.5575999999999937
11
113.4586269999999928
21
-115.129027999999991
0
LINE
8
BLACK
6
CONTINUOUS
10
117.7443409999999915
20
-112.6528379999999885
11
117.9348179999999928
21
-112.6528379999999885
0
LINE
8
BLACK
6
CONTINUOUS
10
117.9348179999999928
20
-112.6528379999999885
11
118.1252939999999967
21
-112.7480759999999975
0
LINE
8
BLACK
6
CONTINUOUS
10
118.1252939999999967
20
-112.7480759999999975
11
118.2205319999999915
21
-112.8433139999999923
0
LINE
8
BLACK
6
CONTINUOUS
10
118.2205319999999915
20
-112.8433139999999923
11
118.3157700000000006
21
-113.0337899999999962
0
LINE
8
BLACK
6
CONTINUOUS
10
118.3157700000000006
20
-113.0337899999999962
11
118.4110079999999954
21
-113.4147419999999897
0
LINE
8
BLACK
6
CONTINUOUS
10
118.4110079999999954
20
-113.4147419999999897
11
118.4110079999999954
21
-113.8909329999999898
0
LINE
8
BLACK
6
CONTINUOUS
10
118.4110079999999954
20
-113.8909329999999898
11
118.3157700000000006
21
-114.2718849999999975
0
LINE
8
BLACK
6
CONTINUOUS
10
118.3157700000000006
20
-114.2718849999999975
11
118.2205319999999915
21
-114.4623610000000014
0
LINE
8
BLACK
6
CONTINUOUS
10
118.2205319999999915
20
-114.4623610000000014
11
118.1252939999999967
21
-114.5575999999999937
0
LINE
8
BLACK
6
CONTINUOUS
10
118.1252939999999967
20
-114.5575999999999937
11
117.9348179999999928
21
-114.6528379999999885
0
LINE
8
BLACK
6
CONTINUOUS
10
117.9348179999999928
20
-114.6528379999999885
11
117.7443409999999915
21
-114.6528379999999885
0
LINE
8
BLACK
6
CONTINUOUS
10
117.7443409999999915
20
-114.6528379999999885
11
117.5538649999999876
21
-114.5575999999999937
0
LINE
8
BLACK
6
CONTINUOUS
10
117.5538649999999876
20
-114.5575999999999937
11
117.4586269999999928
21
-114.4623610000000014
0
LINE
8
BLACK
6
CONTINUOUS
10
117.4586269999999928
20
-114.4623610000000014
11
117.363388999999998
21
-114.2718849999999975
0
LINE
8
BLACK
6
CONTINUOUS
10
117.363388999999998
20
-114.2718849999999975
11
117.2681509999999889
21
-113.8909329999999898
0
LINE
8
BLACK
6
CONTINUOUS
10
117.2681509999999889
20
-113.8909329999999898
11
117.2681509999999889
21
-113.4147419999999897
0
LINE
8
BLACK
6
CONTINUOUS
10
117.2681509999999889
20
-113.4147419999999897
11
117.363388999999998
21
-113.0337899999999962
0
LINE
8
BLACK
6
CONTINUOUS
10
117.363388999999998
20
-113.0337899999999962
11
117.4586269999999928
21
-112.8433139999999923
0
LINE
8
BLACK
6
CONTINUOUS
10
117.4586269999999928
20
-112.8433139999999923
11
117.5538649999999876
21
-112.7480759999999975
0
LINE
8
BLACK
6
CONTINUOUS
10
117.5538649999999876
20
-112.7480759999999975
11
117.7443409999999915
21
-112.6528379999999885
0
LINE
8
BLACK
6
CONTINUOUS
10
119.2681509999999889
20
-114.4623610000000014
11
119.363388999999998
21
-114.5575999999999937
0
LINE
8
BLACK
6
CONTINUOUS
10
119.363388999999998
20
-114.5575999999999937
11
119.2681509999999889
21
-114.6528379999999885
0
LINE
8
BLACK
6
CONTINUOUS
10
119.2681509999999889
20
-114.6528379999999885
11
119.1729129999999941
21
-114.5575999999999937
0
LINE
8
BLACK
6
CONTINUOUS
10
119.1729129999999941
20
-114.5575999999999937
11
119.2681509999999889
21
-114.4623610000000014
0
LINE
8
BLACK
6
CONTINUOUS
10
119.2681509999999889
20
-114.4623610000000014
11
119.2681509999999889
21
-114.6528379999999885
0
LINE
8
BLACK
6
CONTINUOUS
10
120.6014839999999992
20
-112.6528379999999885
11
120.7919610000000006
21
-112.6528379999999885
0
LINE
8
BLACK
6
CONTINUOUS
10
120.7919610000000006
20
-112.6528379999999885
11
120.9824369999999902
21
-112.7480759999999975
0
LINE
8
BLACK
6
CONTINUOUS
10
120.9824369999999902
20
-112.7480759999999975
11
121.0776749999999993
21
-112.8433139999999923
0
LINE
8
BLACK
6
CONTINUOUS
10
121.0776749999999993
20
-112.8433139999999923
11
121.1729129999999941
21
-113.0337899999999962
0
LINE
8
BLACK
6
CONTINUOUS
10
121.1729129999999941
20
-113.0337899999999962
11
121.2681509999999889
21
-113.4147419999999897
0
LINE
8
BLACK
6
CONTINUOUS
10
121.2681509999999889
20
-113.4147419999999897
11
121.2681509999999889
21
-113.8909329999999898
0
LINE
8
BLACK
6
CONTINUOUS
10
121.2681509999999889
20
-113.8909329999999898
11
121.1729129999999941
21
-114.2718849999999975
0
LINE
8
BLACK
6
CONTINUOUS
10
121.1729129999999941
20
-114.2718849999999975
11
121.0776749999999993
21
-114.4623610000000014
0
LINE
8
BLACK
6
CONTINUOUS
10
121.0776749999999993
20
-114.4623610000000014
11
120.9824369999999902
21
-114.5575999999999937
0
LINE
8
BLACK
6
CONTINUOUS
10
120.9824369999999902
20
-114.5575999999999937
11
120.7919610000000006
21
-114.6528379999999885
0
LINE
8
BLACK
6
CONTINUOUS
10
120.7919610000000006
20
-114.6528379999999885
11
120.6014839999999992
21
-114.6528379999999885
0
LINE
8
BLACK
6
CONTINUOUS
10
120.6014839999999992
20
-114.6528379999999885
11
120.4110079999999954
21
-114.5575999999999937
0
LINE
8
BLACK
6
CONTINUOUS
10
120.4110079999999954
20
-114.5575999999999937
11
120.3157700000000006
21
-114.4623610000000014
0
LINE
8
BLACK
6
CONTINUOUS
10
120.3157700000000006
20
-114.4623610000000014
11
120.2205319999999915
21
-114.2718849999999975
0
LINE
8
BLACK
6
CONTINUOUS
10
120.2205319999999915
20
-114.2718849999999975
11
120.1252939999999967
21
-113.8909329999999898
0
LINE
8
BLACK
6
CONTINUOUS
10
120.1252939999999967
20
-113.8909329999999898
11
120.1252939999999967
21
-113.4147419999999897
0
LINE
8
BLACK
6
CONTINUOUS
10
120.1252939999999967
20
-113.4147419999999897
11
120.2205319999999915
21
-113.0337899999999962
0
LINE
8
BLACK
6
CONTINUOUS
10
120.2205319999999915
20
-113.0337899999999962
11
120.3157700000000006
21
-112.8433139999999923
0
LINE
8
BLACK
6
CONTINUOUS
10
120.3157700000000006
20
-112.8433139999999923
11
120.4110079999999954
21
-112.7480759999999975
0
LINE
8
BLACK
6
CONTINUOUS
10
120.4110079999999954
20
-112.7480759999999975
11
120.6014839999999992
21
-112.6528379999999885
0
LINE
8
BLACK
6
CONTINUOUS
10
122.9824369999999902
20
-113.3195039999999949
11
122.9824369999999902
21
-114.6528379999999885
0
LINE
8
BLACK
6
CONTINUOUS
10
122.5062459999999902
20
-112.5575999999999937
11
122.0300559999999876
21
-113.9861709999999988
0
LINE
8
BLACK
6
CONTINUOUS
10
122.0300559999999876
20
-113.9861709999999988
11
123.2681509999999889
21
-113.9861709999999988
0
LINE
8
BLACK
6
CONTINUOUS
10
124.8871989999999954
20
-112.6528379999999885
11
124.5062459999999902
21
-112.6528379999999885
0
LINE
8
BLACK
6
CONTINUOUS
10
124.5062459999999902
20
-112.6528379999999885
11
124.3157700000000006
21
-112.7480759999999975
0
LINE
8
BLACK
6
CONTINUOUS
10
124.3157700000000006
20
-112.7480759999999975
11
124.2205319999999915
21
-112.8433139999999923
0
LINE
8
BLACK
6
CONTINUOUS
10
124.2205319999999915
20
-112.8433139999999923
11
124.0300559999999876
21
-113.129027999999991
0
LINE
8
BLACK
6
CONTINUOUS
10
124.0300559999999876
20
-113.129027999999991
11
123.9348179999999928
21
-113.5099799999999988
0
LINE
8
BLACK
6
CONTINUOUS
10
123.9348179999999928
20
-113.5099799999999988
11
123.9348179999999928
21
-114.2718849999999975
0
LINE
8
BLACK
6
CONTINUOUS
10
123.9348179999999928
20
-114.2718849999999975
11
124.0300559999999876
21
-114.4623610000000014
0
LINE
8
BLACK
6
CONTINUOUS
10
124.0300559999999876
20
-114.4623610000000014
11
124.1252939999999967
21
-114.5575999999999937
0
LINE
8
BLACK
6
CONTINUOUS
10
124.1252939999999967
20
-114.5575999999999937
11
124.3157700000000006
21
-114.6528379999999885
0
LINE
8
BLACK
6
CONTINUOUS
10
124.3157700000000006
20
-114.6528379999999885
11
124.6967229999999915
21
-114.6528379999999885
0
LINE
8
BLACK
6
CONTINUOUS
10
124.6967229999999915
20
-114.6528379999999885
11
124.8871989999999954
21
-114.5575999999999937
0
LINE
8
BLACK
6
CONTINUOUS
10
124.8871989999999954
20
-114.5575999999999937
11
124.9824369999999902
21
-114.4623610000000014
0
LINE
8
BLACK
6
CONTINUOUS
10
124.9824369999999902
20
-114.4623610000000014
11
125.0776749999999993
21
-114.2718849999999975
0
LINE
8
BLACK
6
CONTINUOUS
10
125.0776749999999993
20
-114.2718849999999975
11
125.0776749999999993
21
-113.7956949999999949
0
LINE
8
BLACK
6
CONTINUOUS
10
125.0776749999999993
20
-113.7956949999999949
11
124.9824369999999902
21
-113.6052189999999911
0
LINE
8
BLACK
6
CONTINUOUS
10
124.9824369999999902
20
-113.6052189999999911
11
124.8871989999999954
21
-113.5099799999999988
0
LINE
8
BLACK
6
CONTINUOUS
10
124.8871989999999954
20
-113.5099799999999988
11
124.6967229999999915
21
-113.4147419999999897
0
LINE
8
BLACK
6
CONTINUOUS
10
124.6967229999999915
20
-113.4147419999999897
11
124.3157700000000006
21
-113.4147419999999897
0
LINE
8
BLACK
6
CONTINUOUS
10
124.3157700000000006
20
-113.4147419999999897
11
124.1252939999999967
21
-113.5099799999999988
0
LINE
8
BLACK
6
CONTINUOUS
10
124.1252939999999967
20
-113.5099799999999988
11
124.0300559999999876
21
-113.6052189999999911
0
LINE
8
BLACK
6
CONTINUOUS
10
124.0300559999999876
20
-113.6052189999999911
11
123.9348179999999928
21
-113.7956949999999949
0
LINE
8
BLACK
6
CONTINUOUS
10
126.0300559999999876
20
-114.6528379999999885
11
126.4110079999999954
21
-114.6528379999999885
0
LINE
8
BLACK
6
CONTINUOUS
10
126.4110079999999954
20
-114.6528379999999885
11
126.6014849999999967
21
-114.5575999999999937
0
LINE
8
BLACK
6
CONTINUOUS
10
126.6014849999999967
20
-114.5575999999999937
11
126.6967229999999915
21
-114.4623610000000014
0
LINE
8
BLACK
6
CONTINUOUS
10
126.6967229999999915
20
-114.4623610000000014
11
126.8871989999999954
21
-114.1766469999999885
0
LINE
8
BLACK
6
CONTINUOUS
10
126.8871989999999954
20
-114.1766469999999885
11
126.9824369999999902
21
-113.7956949999999949
0
LINE
8
BLACK
6
CONTINUOUS
10
126.9824369999999902
20
-113.7956949999999949
11
126.9824369999999902
21
-113.0337899999999962
0
LINE
8
BLACK
6
CONTINUOUS
10
126.9824369999999902
20
-113.0337899999999962
11
126.8871989999999954
21
-112.8433139999999923
0
LINE
8
BLACK
6
CONTINUOUS
10
126.8871989999999954
20
-112.8433139999999923
11
126.7919610000000006
21
-112.7480759999999975
0
LINE
8
BLACK
6
CONTINUOUS
10
126.7919610000000006
20
-112.7480759999999975
11
126.6014849999999967
21
-112.6528379999999885
0
LINE
8
BLACK
6
CONTINUOUS
10
126.6014849999999967
20
-112.6528379999999885
11
126.2205319999999915
21
-112.6528379999999885
0
LINE
8
BLACK
6
CONTINUOUS
10
126.2205319999999915
20
-112.6528379999999885
11
126.0300559999999876
21
-112.7480759999999975
0
LINE
8
BLACK
6
CONTINUOUS
10
126.0300559999999876
20
-112.7480759999999975
11
125.9348179999999928
21
-112.8433139999999923
0
LINE
8
BLACK
6
CONTINUOUS
10
125.9348179999999928
20
-112.8433139999999923
11
125.839579999999998
21
-113.0337899999999962
0
LINE
8
BLACK
6
CONTINUOUS
10
125.839579999999998
20
-113.0337899999999962
11
125.839579999999998
21
-113.5099799999999988
0
LINE
8
BLACK
6
CONTINUOUS
10
125.839579999999998
20
-113.5099799999999988
11
125.9348179999999928
21
-113.7004570000000001
0
LINE
8
BLACK
6
CONTINUOUS
10
125.9348179999999928
20
-113.7004570000000001
11
126.0300559999999876
21
-113.7956949999999949
0
LINE
8
BLACK
6
CONTINUOUS
10
126.0300559999999876
20
-113.7956949999999949
11
126.2205319999999915
21
-113.8909329999999898
0
LINE
8
BLACK
6
CONTINUOUS
10
126.2205319999999915
20
-113.8909329999999898
11
126.6014849999999967
21
-113.8909329999999898
0
LINE
8
BLACK
6
CONTINUOUS
10
126.6014849999999967
20
-113.8909329999999898
11
126.7919610000000006
21
-113.7956949999999949
0
LINE
8
BLACK
6
CONTINUOUS
10
126.7919610000000006
20
-113.7956949999999949
11
126.8871989999999954
21
-113.7004570000000001
0
LINE
8
BLACK
6
CONTINUOUS
10
126.8871989999999954
20
-113.7004570000000001
11
126.9824369999999902
21
-113.5099799999999988
0
LINE
8
BLACK
6
CONTINUOUS
10
127.744341999999989
20
-112.6528379999999885
11
127.744341999999989
21
-113.0337899999999962
0
LINE
8
BLACK
6
CONTINUOUS
10
128.5062470000000019
20
-112.6528379999999885
11
128.5062470000000019
21
-113.0337899999999962
0
LINE
8
BLACK
6
CONTINUOUS
10
131.458629000000002
20
-115.4147419999999897
11
131.3633899999999812
21
-115.3195039999999949
0
LINE
8
BLACK
6
CONTINUOUS
10
131.3633899999999812
20
-115.3195039999999949
11
131.1729139999999916
21
-115.0337899999999962
0
LINE
8
BLACK
6
CONTINUOUS
10
131.1729139999999916
20
-115.0337899999999962
11
131.0776759999999967
21
-114.8433139999999923
0
LINE
8
BLACK
6
CONTINUOUS
10
131.0776759999999967
20
-114.8433139999999923
11
130.9824380000000019
21
-114.5575999999999937
0
LINE
8
BLACK
6
CONTINUOUS
10
130.9824380000000019
20
-114.5575999999999937
11
130.8872000000000071
21
-114.0814089999999936
0
LINE
8
BLACK
6
CONTINUOUS
10
130.8872000000000071
20
-114.0814089999999936
11
130.8872000000000071
21
-113.7004570000000001
0
LINE
8
BLACK
6
CONTINUOUS
10
130.8872000000000071
20
-113.7004570000000001
11
130.9824380000000019
21
-113.2242660000000001
0
LINE
8
BLACK
6
CONTINUOUS
10
130.9824380000000019
20
-113.2242660000000001
11
131.0776759999999967
21
-112.9385520000000014
0
LINE
8
BLACK
6
CONTINUOUS
10
131.0776759999999967
20
-112.9385520000000014
11
131.1729139999999916
21
-112.7480759999999975
0
LINE
8
BLACK
6
CONTINUOUS
10
131.1729139999999916
20
-112.7480759999999975
11
131.3633899999999812
21
-112.4623610000000014
0
LINE
8
BLACK
6
CONTINUOUS
10
131.3633899999999812
20
-112.4623610000000014
11
131.458629000000002
21
-112.3671229999999923
0
LINE
8
BLACK
6
CONTINUOUS
10
133.0776759999999967
20
-112.6528379999999885
11
132.6967229999999915
21
-112.6528379999999885
0
LINE
8
BLACK
6
CONTINUOUS
10
132.6967229999999915
20
-112.6528379999999885
11
132.5062470000000019
21
-112.7480759999999975
0
LINE
8
BLACK
6
CONTINUOUS
10
132.5062470000000019
20
-112.7480759999999975
11
132.4110090000000071
21
-112.8433139999999923
0
LINE
8
BLACK
6
CONTINUOUS
10
132.4110090000000071
20
-112.8433139999999923
11
132.220532999999989
21
-113.129027999999991
0
LINE
8
BLACK
6
CONTINUOUS
10
132.220532999999989
20
-113.129027999999991
11
132.1252949999999942
21
-113.5099799999999988
0
LINE
8
BLACK
6
CONTINUOUS
10
132.1252949999999942
20
-113.5099799999999988
11
132.1252949999999942
21
-114.2718849999999975
0
LINE
8
BLACK
6
CONTINUOUS
10
132.1252949999999942
20
-114.2718849999999975
11
132.220532999999989
21
-114.4623610000000014
0
LINE
8
BLACK
6
CONTINUOUS
10
132.220532999999989
20
-114.4623610000000014
11
132.3157709999999838
21
-114.5575999999999937
0
LINE
8
BLACK
6
CONTINUOUS
10
132.3157709999999838
20
-114.5575999999999937
11
132.5062470000000019
21
-114.6528379999999885
0
LINE
8
BLACK
6
CONTINUOUS
10
132.5062470000000019
20
-114.6528379999999885
11
132.8872000000000071
21
-114.6528379999999885
0
LINE
8
BLACK
6
CONTINUOUS
10
132.8872000000000071
20
-114.6528379999999885
11
133.0776759999999967
21
-114.5575999999999937
0
LINE
8
BLACK
6
CONTINUOUS
10
133.0776759999999967
20
-114.5575999999999937
11
133.1729139999999916
21
-114.4623610000000014
0
LINE
8
BLACK
6
CONTINUOUS
10
133.1729139999999916
20
-114.4623610000000014
11
133.2681519999999864
21
-114.2718849999999975
0
LINE
8
BLACK
6
CONTINUOUS
10
133.2681519999999864
20
-114.2718849999999975
11
133.2681519999999864
21
-113.7956949999999949
0
LINE
8
BLACK
6
CONTINUOUS
10
133.2681519999999864
20
-113.7956949999999949
11
133.1729139999999916
21
-113.6052189999999911
0
LINE
8
BLACK
6
CONTINUOUS
10
133.1729139999999916
20
-113.6052189999999911
11
133.0776759999999967
21
-113.5099799999999988
0
LINE
8
BLACK
6
CONTINUOUS
10
133.0776759999999967
20
-113.5099799999999988
11
132.8872000000000071
21
-113.4147419999999897
0
LINE
8
BLACK
6
CONTINUOUS
10
132.8872000000000071
20
-113.4147419999999897
11
132.5062470000000019
21
-113.4147419999999897
0
LINE
8
BLACK
6
CONTINUOUS
10
132.5062470000000019
20
-113.4147419999999897
11
132.3157709999999838
21
-113.5099799999999988
0
LINE
8
BLACK
6
CONTINUOUS
10
132.3157709999999838
20
-113.5099799999999988
11
132.220532999999989
21
-113.6052189999999911
0
LINE
8
BLACK
6
CONTINUOUS
10
132.220532999999989
20
-113.6052189999999911
11
132.1252949999999942
21
-113.7956949999999949
0
LINE
8
BLACK
6
CONTINUOUS
10
133.9348190000000045
20
-112.6528379999999885
11
135.1729139999999916
21
-112.6528379999999885
0
LINE
8
BLACK
6
CONTINUOUS
10
135.1729139999999916
20
-112.6528379999999885
11
134.5062470000000019
21
-113.4147419999999897
0
LINE
8
BLACK
6
CONTINUOUS
10
134.5062470000000019
20
-113.4147419999999897
11
134.7919619999999838
21
-113.4147419999999897
0
LINE
8
BLACK
6
CONTINUOUS
10
134.7919619999999838
20
-113.4147419999999897
11
134.9824380000000019
21
-113.5099799999999988
0
LINE
8
BLACK
6
CONTINUOUS
10
134.9824380000000019
20
-113.5099799999999988
11
135.0776759999999967
21
-113.6052189999999911
0
LINE
8
BLACK
6
CONTINUOUS
10
135.0776759999999967
20
-113.6052189999999911
11
135.1729139999999916
21
-113.7956949999999949
0
LINE
8
BLACK
6
CONTINUOUS
10
135.1729139999999916
20
-113.7956949999999949
11
135.1729139999999916
21
-114.2718849999999975
0
LINE
8
BLACK
6
CONTINUOUS
10
135.1729139999999916
20
-114.2718849999999975
11
135.0776759999999967
21
-114.4623610000000014
0
LINE
8
BLACK
6
CONTINUOUS
10
135.0776759999999967
20
-114.4623610000000014
11
134.9824380000000019
21
-114.5575999999999937
0
LINE
8
BLACK
6
CONTINUOUS
10
134.9824380000000019
20
-114.5575999999999937
11
134.7919619999999838
21
-114.6528379999999885
0
LINE
8
BLACK
6
CONTINUOUS
10
134.7919619999999838
20
-114.6528379999999885
11
134.220532999999989
21
-114.6528379999999885
0
LINE
8
BLACK
6
CONTINUOUS
10
134.220532999999989
20
-114.6528379999999885
11
134.0300569999999993
21
-114.5575999999999937
0
LINE
8
BLACK
6
CONTINUOUS
10
134.0300569999999993
20
-114.5575999999999937
11
133.9348190000000045
21
-114.4623610000000014
0
LINE
8
BLACK
6
CONTINUOUS
10
137.5538669999999968
20
-114.6528379999999885
11
137.5538669999999968
21
-112.6528379999999885
0
LINE
8
BLACK
6
CONTINUOUS
10
138.4110100000000045
20
-114.6528379999999885
11
138.4110100000000045
21
-113.6052189999999911
0
LINE
8
BLACK
6
CONTINUOUS
10
138.4110100000000045
20
-113.6052189999999911
11
138.3157719999999813
21
-113.4147419999999897
0
LINE
8
BLACK
6
CONTINUOUS
10
138.3157719999999813
20
-113.4147419999999897
11
138.1252959999999916
21
-113.3195039999999949
0
LINE
8
BLACK
6
CONTINUOUS
10
138.1252959999999916
20
-113.3195039999999949
11
137.8395809999999813
21
-113.3195039999999949
0
LINE
8
BLACK
6
CONTINUOUS
10
137.8395809999999813
20
-113.3195039999999949
11
137.6491049999999916
21
-113.4147419999999897
0
LINE
8
BLACK
6
CONTINUOUS
10
137.6491049999999916
20
-113.4147419999999897
11
137.5538669999999968
21
-113.5099799999999988
0
LINE
8
BLACK
6
CONTINUOUS
10
139.6491049999999916
20
-114.6528379999999885
11
139.458629000000002
21
-114.5575999999999937
0
LINE
8
BLACK
6
CONTINUOUS
10
139.458629000000002
20
-114.5575999999999937
11
139.3633910000000071
21
-114.4623610000000014
0
LINE
8
BLACK
6
CONTINUOUS
10
139.3633910000000071
20
-114.4623610000000014
11
139.2681529999999839
21
-114.2718849999999975
0
LINE
8
BLACK
6
CONTINUOUS
10
139.2681529999999839
20
-114.2718849999999975
11
139.2681529999999839
21
-113.7004570000000001
0
LINE
8
BLACK
6
CONTINUOUS
10
139.2681529999999839
20
-113.7004570000000001
11
139.3633910000000071
21
-113.5099799999999988
0
LINE
8
BLACK
6
CONTINUOUS
10
139.3633910000000071
20
-113.5099799999999988
11
139.458629000000002
21
-113.4147419999999897
0
LINE
8
BLACK
6
CONTINUOUS
10
139.458629000000002
20
-113.4147419999999897
11
139.6491049999999916
21
-113.3195039999999949
0
LINE
8
BLACK
6
CONTINUOUS
10
139.6491049999999916
20
-113.3195039999999949
11
139.934820000000002
21
-113.3195039999999949
0
LINE
8
BLACK
6
CONTINUOUS
10
139.934820000000002
20
-113.3195039999999949
11
140.1252959999999916
21
-113.4147419999999897
0
LINE
8
BLACK
6
CONTINUOUS
10
140.1252959999999916
20
-113.4147419999999897
11
140.2205339999999865
21
-113.5099799999999988
0
LINE
8
BLACK
6
CONTINUOUS
10
140.2205339999999865
20
-113.5099799999999988
11
140.3157719999999813
21
-113.7004570000000001
0
LINE
8
BLACK
6
CONTINUOUS
10
140.3157719999999813
20
-113.7004570000000001
11
140.3157719999999813
21
-114.2718849999999975
0
LINE
8
BLACK
6
CONTINUOUS
10
140.3157719999999813
20
-114.2718849999999975
11
140.2205339999999865
21
-114.4623610000000014
0
LINE
8
BLACK
6
CONTINUOUS
10
140.2205339999999865
20
-114.4623610000000014
11
140.1252959999999916
21
-114.5575999999999937
0
LINE
8
BLACK
6
CONTINUOUS
10
140.1252959999999916
20
-114.5575999999999937
11
139.934820000000002
21
-114.6528379999999885
0
LINE
8
BLACK
6
CONTINUOUS
10
139.934820000000002
20
-114.6528379999999885
11
139.6491049999999916
21
-114.6528379999999885
0
LINE
8
BLACK
6
CONTINUOUS
10
141.458629000000002
20
-114.6528379999999885
11
141.2681529999999839
21
-114.5575999999999937
0
LINE
8
BLACK
6
CONTINUOUS
10
141.2681529999999839
20
-114.5575999999999937
11
141.172914999999989
21
-114.3671229999999923
0
LINE
8
BLACK
6
CONTINUOUS
10
141.172914999999989
20
-114.3671229999999923
11
141.172914999999989
21
-112.6528379999999885
0
LINE
8
BLACK
6
CONTINUOUS
10
142.9824389999999994
20
-114.5575999999999937
11
142.7919629999999813
21
-114.6528379999999885
0
LINE
8
BLACK
6
CONTINUOUS
10
142.7919629999999813
20
-114.6528379999999885
11
142.4110100000000045
21
-114.6528379999999885
0
LINE
8
BLACK
6
CONTINUOUS
10
142.4110100000000045
20
-114.6528379999999885
11
142.2205339999999865
21
-114.5575999999999937
0
LINE
8
BLACK
6
CONTINUOUS
10
142.2205339999999865
20
-114.5575999999999937
11
142.1252959999999916
21
-114.3671229999999923
0
LINE
8
BLACK
6
CONTINUOUS
10
142.1252959999999916
20
-114.3671229999999923
11
142.1252959999999916
21
-113.6052189999999911
0
LINE
8
BLACK
6
CONTINUOUS
10
142.1252959999999916
20
-113.6052189999999911
11
142.2205339999999865
21
-113.4147419999999897
0
LINE
8
BLACK
6
CONTINUOUS
10
142.2205339999999865
20
-113.4147419999999897
11
142.4110100000000045
21
-113.3195039999999949
0
LINE
8
BLACK
6
CONTINUOUS
10
142.4110100000000045
20
-113.3195039999999949
11
142.7919629999999813
21
-113.3195039999999949
0
LINE
8
BLACK
6
CONTINUOUS
10
142.7919629999999813
20
-113.3195039999999949
11
142.9824389999999994
21
-113.4147419999999897
0
LINE
8
BLACK
6
CONTINUOUS
10
142.9824389999999994
20
-113.4147419999999897
11
143.0776769999999942
21
-113.6052189999999911
0
LINE
8
BLACK
6
CONTINUOUS
10
143.0776769999999942
20
-113.6052189999999911
11
143.0776769999999942
21
-113.7956949999999949
0
LINE
8
BLACK
6
CONTINUOUS
10
143.0776769999999942
20
-113.7956949999999949
11
142.1252959999999916
21
-113.9861709999999988
0
LINE
8
BLACK
6
CONTINUOUS
10
143.8395820000000072
20
-114.5575999999999937
11
144.0300579999999968
21
-114.6528379999999885
0
LINE
8
BLACK
6
CONTINUOUS
10
144.0300579999999968
20
-114.6528379999999885
11
144.4110100000000045
21
-114.6528379999999885
0
LINE
8
BLACK
6
CONTINUOUS
10
144.4110100000000045
20
-114.6528379999999885
11
144.6014869999999917
21
-114.5575999999999937
0
LINE
8
BLACK
6
CONTINUOUS
10
144.6014869999999917
20
-114.5575999999999937
11
144.6967249999999865
21
-114.3671229999999923
0
LINE
8
BLACK
6
CONTINUOUS
10
144.6967249999999865
20
-114.3671229999999923
11
144.6967249999999865
21
-114.2718849999999975
0
LINE
8
BLACK
6
CONTINUOUS
10
144.6967249999999865
20
-114.2718849999999975
11
144.6014869999999917
21
-114.0814089999999936
0
LINE
8
BLACK
6
CONTINUOUS
10
144.6014869999999917
20
-114.0814089999999936
11
144.4110100000000045
21
-113.9861709999999988
0
LINE
8
BLACK
6
CONTINUOUS
10
144.4110100000000045
20
-113.9861709999999988
11
144.1252959999999916
21
-113.9861709999999988
0
LINE
8
BLACK
6
CONTINUOUS
10
144.1252959999999916
20
-113.9861709999999988
11
143.934820000000002
21
-113.8909329999999898
0
LINE
8
BLACK
6
CONTINUOUS
10
143.934820000000002
20
-113.8909329999999898
11
143.8395820000000072
21
-113.7004570000000001
0
LINE
8
BLACK
6
CONTINUOUS
10
143.8395820000000072
20
-113.7004570000000001
11
143.8395820000000072
21
-113.6052189999999911
0
LINE
8
BLACK
6
CONTINUOUS
10
143.8395820000000072
20
-113.6052189999999911
11
143.934820000000002
21
-113.4147419999999897
0
LINE
8
BLACK
6
CONTINUOUS
10
143.934820000000002
20
-113.4147419999999897
11
144.1252959999999916
21
-113.3195039999999949
0
LINE
8
BLACK
6
CONTINUOUS
10
144.1252959999999916
20
-113.3195039999999949
11
144.4110100000000045
21
-113.3195039999999949
0
LINE
8
BLACK
6
CONTINUOUS
10
144.4110100000000045
20
-113.3195039999999949
11
144.6014869999999917
21
-113.4147419999999897
0
LINE
8
BLACK
6
CONTINUOUS
10
145.3633920000000046
20
-115.4147419999999897
11
145.4586299999999994
21
-115.3195039999999949
0
LINE
8
BLACK
6
CONTINUOUS
10
145.4586299999999994
20
-115.3195039999999949
11
145.6491059999999891
21
-115.0337899999999962
0
LINE
8
BLACK
6
CONTINUOUS
10
145.6491059999999891
20
-115.0337899999999962
11
145.7443439999999839
21
-114.8433139999999923
0
LINE
8
BLACK
6
CONTINUOUS
10
145.7443439999999839
20
-114.8433139999999923
11
145.8395820000000072
21
-114.5575999999999937
0
LINE
8
BLACK
6
CONTINUOUS
10
145.8395820000000072
20
-114.5575999999999937
11
145.934820000000002
21
-114.0814089999999936
0
LINE
8
BLACK
6
CONTINUOUS
10
145.934820000000002
20
-114.0814089999999936
11
145.934820000000002
21
-113.7004570000000001
0
LINE
8
BLACK
6
CONTINUOUS
10
145.934820000000002
20
-113.7004570000000001
11
145.8395820000000072
21
-113.2242660000000001
0
LINE
8
BLACK
6
CONTINUOUS
10
145.8395820000000072
20
-113.2242660000000001
11
145.7443439999999839
21
-112.9385520000000014
0
LINE
8
BLACK
6
CONTINUOUS
10
145.7443439999999839
20
-112.9385520000000014
11
145.6491059999999891
21
-112.7480759999999975
0
LINE
8
BLACK
6
CONTINUOUS
10
145.6491059999999891
20
-112.7480759999999975
11
145.4586299999999994
21
-112.4623610000000014
0
LINE
8
BLACK
6
CONTINUOUS
10
145.4586299999999994
20
-112.4623610000000014
11
145.3633920000000046
21
-112.3671229999999923
  0
ENDSEC
  0
EOF
