  0
SECTION
  2
HEADER
  9
$ANGBASE
  50
0.0
  9
$ANGDIR
  70
1
  9
$MEASUREMENT
  70
1
  0
ENDSEC
  0
SECTION
  2
TABLES
  0
TABLE
  2
LTYPE
  70
4
  0
LTYPE
  5
40F
  2
CONTINUOUS
  70
0
  3
Solid line
  72
65
  73
0
  40
0.0
  0
LTYPE
  5
410
  2
DASHDOT
 70
0
  3
Dash Dot ____ _ ____ _
 72
65
 73
4
 40
2.0
 49
1.25
 49
-0.25
 49
0.25
 49
-0.25
  0
LTYPE
  5
411
  2
DASHED
 70
0
  3
Dashed __ __ __ __ __
 72
65
 73
2
 40
0.75
 49
0.5
 49
-0.25
  0
LTYPE
  5
43B
  2
DOTTED
 70
0
  3
Dotted .  .  .  .
 72
65
 73
2
 40
0.2
 49
0.0
 49
-0.2
  0
ENDTAB
  0
TABLE
  2
STYLE
  70
4
  0
STYLE
  2
KICAD
  70
0
  40
0
  41
1
  42
1
  50
0
  71
0
  3
isocp.shx
  0
STYLE
  2
KICADB
  70
0
  40
0
  41
1
  42
1
  50
0
  71
0
  3
isocp.shx
  0
STYLE
  2
KICADI
  70
0
  40
0
  41
1
  42
1
  50
15
  71
0
  3
isocp.shx
  0
STYLE
  2
KICADBI
  70
0
  40
0
  41
1
  42
1
  50
15
  71
0
  3
isocp.shx
  0
ENDTAB
  0
TABLE
  2
LAYER
  70
1
  0
LAYER
  2
BLACK
  70
0
  62
7
  6
CONTINUOUS
  0
ENDTAB
  0
ENDSEC
  0
SECTION
  2
ENTITIES
0
LINE
8
BLACK
6
CONTINUOUS
10
38.862
20
-41.021
11
38.862
21
-140.653
0
LINE
8
BLACK
6
CONTINUOUS
10
138.049
20
-140.653
11
38.862
21
-140.653
0
LINE
8
BLACK
6
CONTINUOUS
10
138.049
20
-41.021
11
138.049
21
-140.653
0
LINE
8
BLACK
6
CONTINUOUS
10
38.862
20
-41.021
11
138.049
21
-41.021
0
LINE
8
BLACK
6
CONTINUOUS
10
77.41
20
-72.51
11
78.61
21
-73.71
0
LINE
8
BLACK
6
CONTINUOUS
10
78.61
20
-72.51
11
77.41
21
-73.71
0
LINE
8
BLACK
6
CONTINUOUS
10
77.41
20
-75.05
11
78.61
21
-76.25
0
LINE
8
BLACK
6
CONTINUOUS
10
78.61
20
-75.05
11
77.41
21
-76.25
0
LINE
8
BLACK
6
CONTINUOUS
10
77.41
20
-77.59
11
78.61
21
-78.79
0
LINE
8
BLACK
6
CONTINUOUS
10
78.61
20
-77.59
11
77.41
21
-78.79
0
LINE
8
BLACK
6
CONTINUOUS
10
77.41
20
-80.13
11
78.61
21
-81.33
0
LINE
8
BLACK
6
CONTINUOUS
10
78.61
20
-80.13
11
77.41
21
-81.33
0
LINE
8
BLACK
6
CONTINUOUS
10
77.41
20
-82.67
11
78.61
21
-83.87
0
LINE
8
BLACK
6
CONTINUOUS
10
78.61
20
-82.67
11
77.41
21
-83.87
0
LINE
8
BLACK
6
CONTINUOUS
10
77.41
20
-85.21
11
78.61
21
-86.41
0
LINE
8
BLACK
6
CONTINUOUS
10
78.61
20
-85.21
11
77.41
21
-86.41
0
LINE
8
BLACK
6
CONTINUOUS
10
77.41
20
-87.75
11
78.61
21
-88.95
0
LINE
8
BLACK
6
CONTINUOUS
10
78.61
20
-87.75
11
77.41
21
-88.95
0
LINE
8
BLACK
6
CONTINUOUS
10
77.41
20
-90.29
11
78.61
21
-91.49
0
LINE
8
BLACK
6
CONTINUOUS
10
78.61
20
-90.29
11
77.41
21
-91.49
0
LINE
8
BLACK
6
CONTINUOUS
10
95.825
20
-129.985
11
97.025
21
-131.185
0
LINE
8
BLACK
6
CONTINUOUS
10
97.025
20
-129.985
11
95.825
21
-131.185
0
LINE
8
BLACK
6
CONTINUOUS
10
98.365
20
-129.985
11
99.565
21
-131.185
0
LINE
8
BLACK
6
CONTINUOUS
10
99.565
20
-129.985
11
98.365
21
-131.185
0
LINE
8
BLACK
6
CONTINUOUS
10
100.905
20
-129.985
11
102.105
21
-131.185
0
LINE
8
BLACK
6
CONTINUOUS
10
102.105
20
-129.985
11
100.905
21
-131.185
0
LINE
8
BLACK
6
CONTINUOUS
10
103.445
20
-129.985
11
104.645
21
-131.185
0
LINE
8
BLACK
6
CONTINUOUS
10
104.645
20
-129.985
11
103.445
21
-131.185
0
LINE
8
BLACK
6
CONTINUOUS
10
105.985
20
-129.985
11
107.185
21
-131.185
0
LINE
8
BLACK
6
CONTINUOUS
10
107.185
20
-129.985
11
105.985
21
-131.185
0
LINE
8
BLACK
6
CONTINUOUS
10
108.525
20
-129.985
11
109.725
21
-131.185
0
LINE
8
BLACK
6
CONTINUOUS
10
109.725
20
-129.985
11
108.525
21
-131.185
0
LINE
8
BLACK
6
CONTINUOUS
10
99.864
20
-61.036
11
101.064
21
-62.236
0
LINE
8
BLACK
6
CONTINUOUS
10
101.064
20
-61.036
11
99.864
21
-62.236
0
LINE
8
BLACK
6
CONTINUOUS
10
102.404
20
-61.036
11
103.604
21
-62.236
0
LINE
8
BLACK
6
CONTINUOUS
10
103.604
20
-61.036
11
102.404
21
-62.236
0
LINE
8
BLACK
6
CONTINUOUS
10
104.944
20
-61.036
11
106.144
21
-62.236
0
LINE
8
BLACK
6
CONTINUOUS
10
106.144
20
-61.036
11
104.944
21
-62.236
0
LINE
8
BLACK
6
CONTINUOUS
10
107.484
20
-61.036
11
108.684
21
-62.236
0
LINE
8
BLACK
6
CONTINUOUS
10
108.684
20
-61.036
11
107.484
21
-62.236
0
LINE
8
BLACK
6
CONTINUOUS
10
116.96
20
-52.08
11
118.16
21
-53.28
0
LINE
8
BLACK
6
CONTINUOUS
10
118.16
20
-52.08
11
116.96
21
-53.28
0
LINE
8
BLACK
6
CONTINUOUS
10
119.5
20
-52.08
11
120.7
21
-53.28
0
LINE
8
BLACK
6
CONTINUOUS
10
120.7
20
-52.08
11
119.5
21
-53.28
0
LINE
8
BLACK
6
CONTINUOUS
10
67.53
20
-132.83
11
68.73
21
-134.03
0
LINE
8
BLACK
6
CONTINUOUS
10
68.73
20
-132.83
11
67.53
21
-134.03
0
LINE
8
BLACK
6
CONTINUOUS
10
70.07
20
-132.83
11
71.27
21
-134.03
0
LINE
8
BLACK
6
CONTINUOUS
10
71.27
20
-132.83
11
70.07
21
-134.03
0
LINE
8
BLACK
6
CONTINUOUS
10
72.61
20
-132.83
11
73.81
21
-134.03
0
LINE
8
BLACK
6
CONTINUOUS
10
73.81
20
-132.83
11
72.61
21
-134.03
0
LINE
8
BLACK
6
CONTINUOUS
10
75.15
20
-132.83
11
76.35
21
-134.03
0
LINE
8
BLACK
6
CONTINUOUS
10
76.35
20
-132.83
11
75.15
21
-134.03
0
LINE
8
BLACK
6
CONTINUOUS
10
99.93
20
-51.78
11
101.13
21
-52.98
0
LINE
8
BLACK
6
CONTINUOUS
10
101.13
20
-51.78
11
99.93
21
-52.98
0
LINE
8
BLACK
6
CONTINUOUS
10
102.47
20
-51.78
11
103.67
21
-52.98
0
LINE
8
BLACK
6
CONTINUOUS
10
103.67
20
-51.78
11
102.47
21
-52.98
0
LINE
8
BLACK
6
CONTINUOUS
10
105.01
20
-51.78
11
106.21
21
-52.98
0
LINE
8
BLACK
6
CONTINUOUS
10
106.21
20
-51.78
11
105.01
21
-52.98
0
LINE
8
BLACK
6
CONTINUOUS
10
107.55
20
-51.78
11
108.75
21
-52.98
0
LINE
8
BLACK
6
CONTINUOUS
10
108.75
20
-51.78
11
107.55
21
-52.98
0
LINE
8
BLACK
6
CONTINUOUS
10
113.13
20
-71.64
11
114.33
21
-72.84
0
LINE
8
BLACK
6
CONTINUOUS
10
114.33
20
-71.64
11
113.13
21
-72.84
0
LINE
8
BLACK
6
CONTINUOUS
10
115.67
20
-71.64
11
116.87
21
-72.84
0
LINE
8
BLACK
6
CONTINUOUS
10
116.87
20
-71.64
11
115.67
21
-72.84
0
LINE
8
BLACK
6
CONTINUOUS
10
118.21
20
-71.64
11
119.41
21
-72.84
0
LINE
8
BLACK
6
CONTINUOUS
10
119.41
20
-71.64
11
118.21
21
-72.84
0
LINE
8
BLACK
6
CONTINUOUS
10
120.75
20
-71.64
11
121.95
21
-72.84
0
LINE
8
BLACK
6
CONTINUOUS
10
121.95
20
-71.64
11
120.75
21
-72.84
0
LINE
8
BLACK
6
CONTINUOUS
10
123.29
20
-71.64
11
124.49
21
-72.84
0
LINE
8
BLACK
6
CONTINUOUS
10
124.49
20
-71.64
11
123.29
21
-72.84
0
LINE
8
BLACK
6
CONTINUOUS
10
125.83
20
-71.64
11
127.03
21
-72.84
0
LINE
8
BLACK
6
CONTINUOUS
10
127.03
20
-71.64
11
125.83
21
-72.84
0
LINE
8
BLACK
6
CONTINUOUS
10
67.735
20
-72.685
11
68.935
21
-73.885
0
LINE
8
BLACK
6
CONTINUOUS
10
68.935
20
-72.685
11
67.735
21
-73.885
0
LINE
8
BLACK
6
CONTINUOUS
10
67.735
20
-75.225
11
68.935
21
-76.425
0
LINE
8
BLACK
6
CONTINUOUS
10
68.935
20
-75.225
11
67.735
21
-76.425
0
LINE
8
BLACK
6
CONTINUOUS
10
67.735
20
-77.765
11
68.935
21
-78.965
0
LINE
8
BLACK
6
CONTINUOUS
10
68.935
20
-77.765
11
67.735
21
-78.965
0
LINE
8
BLACK
6
CONTINUOUS
10
67.735
20
-80.305
11
68.935
21
-81.505
0
LINE
8
BLACK
6
CONTINUOUS
10
68.935
20
-80.305
11
67.735
21
-81.505
0
LINE
8
BLACK
6
CONTINUOUS
10
67.735
20
-82.845
11
68.935
21
-84.045
0
LINE
8
BLACK
6
CONTINUOUS
10
68.935
20
-82.845
11
67.735
21
-84.045
0
LINE
8
BLACK
6
CONTINUOUS
10
67.735
20
-85.385
11
68.935
21
-86.585
0
LINE
8
BLACK
6
CONTINUOUS
10
68.935
20
-85.385
11
67.735
21
-86.585
0
LINE
8
BLACK
6
CONTINUOUS
10
67.735
20
-87.925
11
68.935
21
-89.125
0
LINE
8
BLACK
6
CONTINUOUS
10
68.935
20
-87.925
11
67.735
21
-89.125
0
LINE
8
BLACK
6
CONTINUOUS
10
67.735
20
-90.465
11
68.935
21
-91.665
0
LINE
8
BLACK
6
CONTINUOUS
10
68.935
20
-90.465
11
67.735
21
-91.665
0
LINE
8
BLACK
6
CONTINUOUS
10
102.87
20
-100.78
11
104.07
21
-101.98
0
LINE
8
BLACK
6
CONTINUOUS
10
104.07
20
-100.78
11
102.87
21
-101.98
0
LINE
8
BLACK
6
CONTINUOUS
10
105.41
20
-100.78
11
106.61
21
-101.98
0
LINE
8
BLACK
6
CONTINUOUS
10
106.61
20
-100.78
11
105.41
21
-101.98
0
LINE
8
BLACK
6
CONTINUOUS
10
107.95
20
-100.78
11
109.15
21
-101.98
0
LINE
8
BLACK
6
CONTINUOUS
10
109.15
20
-100.78
11
107.95
21
-101.98
0
LINE
8
BLACK
6
CONTINUOUS
10
110.49
20
-100.78
11
111.69
21
-101.98
0
LINE
8
BLACK
6
CONTINUOUS
10
111.69
20
-100.78
11
110.49
21
-101.98
0
LINE
8
BLACK
6
CONTINUOUS
10
49.06
20
-115.13
11
50.26
21
-116.33
0
LINE
8
BLACK
6
CONTINUOUS
10
50.26
20
-115.13
11
49.06
21
-116.33
0
LINE
8
BLACK
6
CONTINUOUS
10
51.6
20
-115.13
11
52.8
21
-116.33
0
LINE
8
BLACK
6
CONTINUOUS
10
52.8
20
-115.13
11
51.6
21
-116.33
0
LINE
8
BLACK
6
CONTINUOUS
10
54.14
20
-115.13
11
55.34
21
-116.33
0
LINE
8
BLACK
6
CONTINUOUS
10
55.34
20
-115.13
11
54.14
21
-116.33
0
LINE
8
BLACK
6
CONTINUOUS
10
56.68
20
-115.13
11
57.88
21
-116.33
0
LINE
8
BLACK
6
CONTINUOUS
10
57.88
20
-115.13
11
56.68
21
-116.33
0
LINE
8
BLACK
6
CONTINUOUS
10
59.22
20
-115.13
11
60.42
21
-116.33
0
LINE
8
BLACK
6
CONTINUOUS
10
60.42
20
-115.13
11
59.22
21
-116.33
0
LINE
8
BLACK
6
CONTINUOUS
10
61.76
20
-115.13
11
62.96
21
-116.33
0
LINE
8
BLACK
6
CONTINUOUS
10
62.96
20
-115.13
11
61.76
21
-116.33
0
LINE
8
BLACK
6
CONTINUOUS
10
67.53
20
-123.57
11
68.73
21
-124.77
0
LINE
8
BLACK
6
CONTINUOUS
10
68.73
20
-123.57
11
67.53
21
-124.77
0
LINE
8
BLACK
6
CONTINUOUS
10
70.07
20
-123.57
11
71.27
21
-124.77
0
LINE
8
BLACK
6
CONTINUOUS
10
71.27
20
-123.57
11
70.07
21
-124.77
0
LINE
8
BLACK
6
CONTINUOUS
10
72.61
20
-123.57
11
73.81
21
-124.77
0
LINE
8
BLACK
6
CONTINUOUS
10
73.81
20
-123.57
11
72.61
21
-124.77
0
LINE
8
BLACK
6
CONTINUOUS
10
75.15
20
-123.57
11
76.35
21
-124.77
0
LINE
8
BLACK
6
CONTINUOUS
10
76.35
20
-123.57
11
75.15
21
-124.77
0
LINE
8
BLACK
6
CONTINUOUS
10
118.5
20
-111.65
11
119.7
21
-112.85
0
LINE
8
BLACK
6
CONTINUOUS
10
119.7
20
-111.65
11
118.5
21
-112.85
0
LINE
8
BLACK
6
CONTINUOUS
10
121.04
20
-111.65
11
122.24
21
-112.85
0
LINE
8
BLACK
6
CONTINUOUS
10
122.24
20
-111.65
11
121.04
21
-112.85
0
LINE
8
BLACK
6
CONTINUOUS
10
57.25
20
-124.2
11
58.45
21
-125.4
0
LINE
8
BLACK
6
CONTINUOUS
10
58.45
20
-124.2
11
57.25
21
-125.4
0
LINE
8
BLACK
6
CONTINUOUS
10
59.79
20
-124.2
11
60.99
21
-125.4
0
LINE
8
BLACK
6
CONTINUOUS
10
60.99
20
-124.2
11
59.79
21
-125.4
0
LINE
8
BLACK
6
CONTINUOUS
10
45.19
20
-81.61
11
46.39
21
-82.81
0
LINE
8
BLACK
6
CONTINUOUS
10
46.39
20
-81.61
11
45.19
21
-82.81
0
LINE
8
BLACK
6
CONTINUOUS
10
45.19
20
-84.15
11
46.39
21
-85.35
0
LINE
8
BLACK
6
CONTINUOUS
10
46.39
20
-84.15
11
45.19
21
-85.35
0
LINE
8
BLACK
6
CONTINUOUS
10
45.19
20
-86.69
11
46.39
21
-87.89
0
LINE
8
BLACK
6
CONTINUOUS
10
46.39
20
-86.69
11
45.19
21
-87.89
0
LINE
8
BLACK
6
CONTINUOUS
10
45.19
20
-89.23
11
46.39
21
-90.43
0
LINE
8
BLACK
6
CONTINUOUS
10
46.39
20
-89.23
11
45.19
21
-90.43
0
LINE
8
BLACK
6
CONTINUOUS
10
113.22
20
-81.85
11
114.42
21
-83.05
0
LINE
8
BLACK
6
CONTINUOUS
10
114.42
20
-81.85
11
113.22
21
-83.05
0
LINE
8
BLACK
6
CONTINUOUS
10
115.76
20
-81.85
11
116.96
21
-83.05
0
LINE
8
BLACK
6
CONTINUOUS
10
116.96
20
-81.85
11
115.76
21
-83.05
0
LINE
8
BLACK
6
CONTINUOUS
10
118.3
20
-81.85
11
119.5
21
-83.05
0
LINE
8
BLACK
6
CONTINUOUS
10
119.5
20
-81.85
11
118.3
21
-83.05
0
LINE
8
BLACK
6
CONTINUOUS
10
120.84
20
-81.85
11
122.04
21
-83.05
0
LINE
8
BLACK
6
CONTINUOUS
10
122.04
20
-81.85
11
120.84
21
-83.05
0
LINE
8
BLACK
6
CONTINUOUS
10
123.38
20
-81.85
11
124.58
21
-83.05
0
LINE
8
BLACK
6
CONTINUOUS
10
124.58
20
-81.85
11
123.38
21
-83.05
0
LINE
8
BLACK
6
CONTINUOUS
10
125.92
20
-81.85
11
127.12
21
-83.05
0
LINE
8
BLACK
6
CONTINUOUS
10
127.12
20
-81.85
11
125.92
21
-83.05
0
LINE
8
BLACK
6
CONTINUOUS
10
49.59
20
-132.65
11
50.79
21
-133.85
0
LINE
8
BLACK
6
CONTINUOUS
10
50.79
20
-132.65
11
49.59
21
-133.85
0
LINE
8
BLACK
6
CONTINUOUS
10
52.13
20
-132.65
11
53.33
21
-133.85
0
LINE
8
BLACK
6
CONTINUOUS
10
53.33
20
-132.65
11
52.13
21
-133.85
0
LINE
8
BLACK
6
CONTINUOUS
10
44.01
20
-57.67
11
45.21
21
-58.87
0
LINE
8
BLACK
6
CONTINUOUS
10
45.21
20
-57.67
11
44.01
21
-58.87
0
LINE
8
BLACK
6
CONTINUOUS
10
44.01
20
-60.21
11
45.21
21
-61.41
0
LINE
8
BLACK
6
CONTINUOUS
10
45.21
20
-60.21
11
44.01
21
-61.41
0
LINE
8
BLACK
6
CONTINUOUS
10
67.27
20
-107.27
11
68.47
21
-108.47
0
LINE
8
BLACK
6
CONTINUOUS
10
68.47
20
-107.27
11
67.27
21
-108.47
0
LINE
8
BLACK
6
CONTINUOUS
10
69.81
20
-107.27
11
71.01
21
-108.47
0
LINE
8
BLACK
6
CONTINUOUS
10
71.01
20
-107.27
11
69.81
21
-108.47
0
LINE
8
BLACK
6
CONTINUOUS
10
72.35
20
-107.27
11
73.55
21
-108.47
0
LINE
8
BLACK
6
CONTINUOUS
10
73.55
20
-107.27
11
72.35
21
-108.47
0
LINE
8
BLACK
6
CONTINUOUS
10
74.89
20
-107.27
11
76.09
21
-108.47
0
LINE
8
BLACK
6
CONTINUOUS
10
76.09
20
-107.27
11
74.89
21
-108.47
0
LINE
8
BLACK
6
CONTINUOUS
10
49.64
20
-124.15
11
50.84
21
-125.35
0
LINE
8
BLACK
6
CONTINUOUS
10
50.84
20
-124.15
11
49.64
21
-125.35
0
LINE
8
BLACK
6
CONTINUOUS
10
52.18
20
-124.15
11
53.38
21
-125.35
0
LINE
8
BLACK
6
CONTINUOUS
10
53.38
20
-124.15
11
52.18
21
-125.35
0
LINE
8
BLACK
6
CONTINUOUS
10
115.955
20
-122.115
11
117.155
21
-123.315
0
LINE
8
BLACK
6
CONTINUOUS
10
117.155
20
-122.115
11
115.955
21
-123.315
0
LINE
8
BLACK
6
CONTINUOUS
10
118.495
20
-122.115
11
119.695
21
-123.315
0
LINE
8
BLACK
6
CONTINUOUS
10
119.695
20
-122.115
11
118.495
21
-123.315
0
LINE
8
BLACK
6
CONTINUOUS
10
121.035
20
-122.115
11
122.235
21
-123.315
0
LINE
8
BLACK
6
CONTINUOUS
10
122.235
20
-122.115
11
121.035
21
-123.315
0
LINE
8
BLACK
6
CONTINUOUS
10
123.575
20
-122.115
11
124.775
21
-123.315
0
LINE
8
BLACK
6
CONTINUOUS
10
124.775
20
-122.115
11
123.575
21
-123.315
0
LINE
8
BLACK
6
CONTINUOUS
10
126.115
20
-122.115
11
127.315
21
-123.315
0
LINE
8
BLACK
6
CONTINUOUS
10
127.315
20
-122.115
11
126.115
21
-123.315
0
LINE
8
BLACK
6
CONTINUOUS
10
128.655
20
-122.115
11
129.855
21
-123.315
0
LINE
8
BLACK
6
CONTINUOUS
10
129.855
20
-122.115
11
128.655
21
-123.315
0
LINE
8
BLACK
6
CONTINUOUS
10
67.27
20
-115.12
11
68.47
21
-116.32
0
LINE
8
BLACK
6
CONTINUOUS
10
68.47
20
-115.12
11
67.27
21
-116.32
0
LINE
8
BLACK
6
CONTINUOUS
10
69.81
20
-115.12
11
71.01
21
-116.32
0
LINE
8
BLACK
6
CONTINUOUS
10
71.01
20
-115.12
11
69.81
21
-116.32
0
LINE
8
BLACK
6
CONTINUOUS
10
72.35
20
-115.12
11
73.55
21
-116.32
0
LINE
8
BLACK
6
CONTINUOUS
10
73.55
20
-115.12
11
72.35
21
-116.32
0
LINE
8
BLACK
6
CONTINUOUS
10
74.89
20
-115.12
11
76.09
21
-116.32
0
LINE
8
BLACK
6
CONTINUOUS
10
76.09
20
-115.12
11
74.89
21
-116.32
0
LINE
8
BLACK
6
CONTINUOUS
10
95.57
20
-81.68
11
96.77
21
-82.88
0
LINE
8
BLACK
6
CONTINUOUS
10
96.77
20
-81.68
11
95.57
21
-82.88
0
LINE
8
BLACK
6
CONTINUOUS
10
98.11
20
-81.68
11
99.31
21
-82.88
0
LINE
8
BLACK
6
CONTINUOUS
10
99.31
20
-81.68
11
98.11
21
-82.88
0
LINE
8
BLACK
6
CONTINUOUS
10
100.65
20
-81.68
11
101.85
21
-82.88
0
LINE
8
BLACK
6
CONTINUOUS
10
101.85
20
-81.68
11
100.65
21
-82.88
0
LINE
8
BLACK
6
CONTINUOUS
10
103.19
20
-81.68
11
104.39
21
-82.88
0
LINE
8
BLACK
6
CONTINUOUS
10
104.39
20
-81.68
11
103.19
21
-82.88
0
LINE
8
BLACK
6
CONTINUOUS
10
105.73
20
-81.68
11
106.93
21
-82.88
0
LINE
8
BLACK
6
CONTINUOUS
10
106.93
20
-81.68
11
105.73
21
-82.88
0
LINE
8
BLACK
6
CONTINUOUS
10
108.27
20
-81.68
11
109.47
21
-82.88
0
LINE
8
BLACK
6
CONTINUOUS
10
109.47
20
-81.68
11
108.27
21
-82.88
0
LINE
8
BLACK
6
CONTINUOUS
10
55.23
20
-81.68
11
56.43
21
-82.88
0
LINE
8
BLACK
6
CONTINUOUS
10
56.43
20
-81.68
11
55.23
21
-82.88
0
LINE
8
BLACK
6
CONTINUOUS
10
55.23
20
-84.22
11
56.43
21
-85.42
0
LINE
8
BLACK
6
CONTINUOUS
10
56.43
20
-84.22
11
55.23
21
-85.42
0
LINE
8
BLACK
6
CONTINUOUS
10
55.23
20
-86.76
11
56.43
21
-87.96
0
LINE
8
BLACK
6
CONTINUOUS
10
56.43
20
-86.76
11
55.23
21
-87.96
0
LINE
8
BLACK
6
CONTINUOUS
10
55.23
20
-89.3
11
56.43
21
-90.5
0
LINE
8
BLACK
6
CONTINUOUS
10
56.43
20
-89.3
11
55.23
21
-90.5
0
LINE
8
BLACK
6
CONTINUOUS
10
115.955
20
-129.965
11
117.155
21
-131.165
0
LINE
8
BLACK
6
CONTINUOUS
10
117.155
20
-129.965
11
115.955
21
-131.165
0
LINE
8
BLACK
6
CONTINUOUS
10
118.495
20
-129.965
11
119.695
21
-131.165
0
LINE
8
BLACK
6
CONTINUOUS
10
119.695
20
-129.965
11
118.495
21
-131.165
0
LINE
8
BLACK
6
CONTINUOUS
10
121.035
20
-129.965
11
122.235
21
-131.165
0
LINE
8
BLACK
6
CONTINUOUS
10
122.235
20
-129.965
11
121.035
21
-131.165
0
LINE
8
BLACK
6
CONTINUOUS
10
123.575
20
-129.965
11
124.775
21
-131.165
0
LINE
8
BLACK
6
CONTINUOUS
10
124.775
20
-129.965
11
123.575
21
-131.165
0
LINE
8
BLACK
6
CONTINUOUS
10
126.115
20
-129.965
11
127.315
21
-131.165
0
LINE
8
BLACK
6
CONTINUOUS
10
127.315
20
-129.965
11
126.115
21
-131.165
0
LINE
8
BLACK
6
CONTINUOUS
10
128.655
20
-129.965
11
129.855
21
-131.165
0
LINE
8
BLACK
6
CONTINUOUS
10
129.855
20
-129.965
11
128.655
21
-131.165
0
LINE
8
BLACK
6
CONTINUOUS
10
67.18
20
-60.34
11
68.38
21
-61.54
0
LINE
8
BLACK
6
CONTINUOUS
10
68.38
20
-60.34
11
67.18
21
-61.54
0
LINE
8
BLACK
6
CONTINUOUS
10
67.18
20
-62.88
11
68.38
21
-64.08
0
LINE
8
BLACK
6
CONTINUOUS
10
68.38
20
-62.88
11
67.18
21
-64.08
0
LINE
8
BLACK
6
CONTINUOUS
10
67.18
20
-65.42
11
68.38
21
-66.62
0
LINE
8
BLACK
6
CONTINUOUS
10
68.38
20
-65.42
11
67.18
21
-66.62
0
LINE
8
BLACK
6
CONTINUOUS
10
67.18
20
-67.96
11
68.38
21
-69.16
0
LINE
8
BLACK
6
CONTINUOUS
10
68.38
20
-67.96
11
67.18
21
-69.16
0
LINE
8
BLACK
6
CONTINUOUS
10
54.68
20
-68.33
11
55.88
21
-69.53
0
LINE
8
BLACK
6
CONTINUOUS
10
55.88
20
-68.33
11
54.68
21
-69.53
0
LINE
8
BLACK
6
CONTINUOUS
10
54.68
20
-70.87
11
55.88
21
-72.07
0
LINE
8
BLACK
6
CONTINUOUS
10
55.88
20
-70.87
11
54.68
21
-72.07
0
LINE
8
BLACK
6
CONTINUOUS
10
54.68
20
-73.41
11
55.88
21
-74.61
0
LINE
8
BLACK
6
CONTINUOUS
10
55.88
20
-73.41
11
54.68
21
-74.61
0
LINE
8
BLACK
6
CONTINUOUS
10
54.68
20
-75.95
11
55.88
21
-77.15
0
LINE
8
BLACK
6
CONTINUOUS
10
55.88
20
-75.95
11
54.68
21
-77.15
0
LINE
8
BLACK
6
CONTINUOUS
10
118.6
20
-100.92
11
119.8
21
-102.12
0
LINE
8
BLACK
6
CONTINUOUS
10
119.8
20
-100.92
11
118.6
21
-102.12
0
LINE
8
BLACK
6
CONTINUOUS
10
121.14
20
-100.92
11
122.34
21
-102.12
0
LINE
8
BLACK
6
CONTINUOUS
10
122.34
20
-100.92
11
121.14
21
-102.12
0
LINE
8
BLACK
6
CONTINUOUS
10
95.57
20
-71.53
11
96.77
21
-72.73
0
LINE
8
BLACK
6
CONTINUOUS
10
96.77
20
-71.53
11
95.57
21
-72.73
0
LINE
8
BLACK
6
CONTINUOUS
10
98.11
20
-71.53
11
99.31
21
-72.73
0
LINE
8
BLACK
6
CONTINUOUS
10
99.31
20
-71.53
11
98.11
21
-72.73
0
LINE
8
BLACK
6
CONTINUOUS
10
100.65
20
-71.53
11
101.85
21
-72.73
0
LINE
8
BLACK
6
CONTINUOUS
10
101.85
20
-71.53
11
100.65
21
-72.73
0
LINE
8
BLACK
6
CONTINUOUS
10
103.19
20
-71.53
11
104.39
21
-72.73
0
LINE
8
BLACK
6
CONTINUOUS
10
104.39
20
-71.53
11
103.19
21
-72.73
0
LINE
8
BLACK
6
CONTINUOUS
10
105.73
20
-71.53
11
106.93
21
-72.73
0
LINE
8
BLACK
6
CONTINUOUS
10
106.93
20
-71.53
11
105.73
21
-72.73
0
LINE
8
BLACK
6
CONTINUOUS
10
108.27
20
-71.53
11
109.47
21
-72.73
0
LINE
8
BLACK
6
CONTINUOUS
10
109.47
20
-71.53
11
108.27
21
-72.73
0
LINE
8
BLACK
6
CONTINUOUS
10
49.06
20
-107.28
11
50.26
21
-108.48
0
LINE
8
BLACK
6
CONTINUOUS
10
50.26
20
-107.28
11
49.06
21
-108.48
0
LINE
8
BLACK
6
CONTINUOUS
10
51.6
20
-107.28
11
52.8
21
-108.48
0
LINE
8
BLACK
6
CONTINUOUS
10
52.8
20
-107.28
11
51.6
21
-108.48
0
LINE
8
BLACK
6
CONTINUOUS
10
54.14
20
-107.28
11
55.34
21
-108.48
0
LINE
8
BLACK
6
CONTINUOUS
10
55.34
20
-107.28
11
54.14
21
-108.48
0
LINE
8
BLACK
6
CONTINUOUS
10
56.68
20
-107.28
11
57.88
21
-108.48
0
LINE
8
BLACK
6
CONTINUOUS
10
57.88
20
-107.28
11
56.68
21
-108.48
0
LINE
8
BLACK
6
CONTINUOUS
10
59.22
20
-107.28
11
60.42
21
-108.48
0
LINE
8
BLACK
6
CONTINUOUS
10
60.42
20
-107.28
11
59.22
21
-108.48
0
LINE
8
BLACK
6
CONTINUOUS
10
61.76
20
-107.28
11
62.96
21
-108.48
0
LINE
8
BLACK
6
CONTINUOUS
10
62.96
20
-107.28
11
61.76
21
-108.48
0
LINE
8
BLACK
6
CONTINUOUS
10
57.04
20
-132.65
11
58.24
21
-133.85
0
LINE
8
BLACK
6
CONTINUOUS
10
58.24
20
-132.65
11
57.04
21
-133.85
0
LINE
8
BLACK
6
CONTINUOUS
10
59.58
20
-132.65
11
60.78
21
-133.85
0
LINE
8
BLACK
6
CONTINUOUS
10
60.78
20
-132.65
11
59.58
21
-133.85
0
LINE
8
BLACK
6
CONTINUOUS
10
54.39
20
-57.74
11
55.59
21
-58.94
0
LINE
8
BLACK
6
CONTINUOUS
10
55.59
20
-57.74
11
54.39
21
-58.94
0
LINE
8
BLACK
6
CONTINUOUS
10
54.39
20
-60.28
11
55.59
21
-61.48
0
LINE
8
BLACK
6
CONTINUOUS
10
55.59
20
-60.28
11
54.39
21
-61.48
0
LINE
8
BLACK
6
CONTINUOUS
10
77.205
20
-60.055
11
78.405
21
-61.255
0
LINE
8
BLACK
6
CONTINUOUS
10
78.405
20
-60.055
11
77.205
21
-61.255
0
LINE
8
BLACK
6
CONTINUOUS
10
77.205
20
-62.595
11
78.405
21
-63.795
0
LINE
8
BLACK
6
CONTINUOUS
10
78.405
20
-62.595
11
77.205
21
-63.795
0
LINE
8
BLACK
6
CONTINUOUS
10
77.205
20
-65.135
11
78.405
21
-66.335
0
LINE
8
BLACK
6
CONTINUOUS
10
78.405
20
-65.135
11
77.205
21
-66.335
0
LINE
8
BLACK
6
CONTINUOUS
10
77.205
20
-67.675
11
78.405
21
-68.875
0
LINE
8
BLACK
6
CONTINUOUS
10
78.405
20
-67.675
11
77.205
21
-68.875
0
LINE
8
BLACK
6
CONTINUOUS
10
45.35
20
-68.33
11
46.55
21
-69.53
0
LINE
8
BLACK
6
CONTINUOUS
10
46.55
20
-68.33
11
45.35
21
-69.53
0
LINE
8
BLACK
6
CONTINUOUS
10
45.35
20
-70.87
11
46.55
21
-72.07
0
LINE
8
BLACK
6
CONTINUOUS
10
46.55
20
-70.87
11
45.35
21
-72.07
0
LINE
8
BLACK
6
CONTINUOUS
10
45.35
20
-73.41
11
46.55
21
-74.61
0
LINE
8
BLACK
6
CONTINUOUS
10
46.55
20
-73.41
11
45.35
21
-74.61
0
LINE
8
BLACK
6
CONTINUOUS
10
45.35
20
-75.95
11
46.55
21
-77.15
0
LINE
8
BLACK
6
CONTINUOUS
10
46.55
20
-75.95
11
45.35
21
-77.15
0
LINE
8
BLACK
6
CONTINUOUS
10
69.66
20
-51.35
11
70.86
21
-52.55
0
LINE
8
BLACK
6
CONTINUOUS
10
70.86
20
-51.35
11
69.66
21
-52.55
0
LINE
8
BLACK
6
CONTINUOUS
10
69.66
20
-53.89
11
70.86
21
-55.09
0
LINE
8
BLACK
6
CONTINUOUS
10
70.86
20
-53.89
11
69.66
21
-55.09
0
LINE
8
BLACK
6
CONTINUOUS
10
103.03
20
-111.57
11
104.23
21
-112.77
0
LINE
8
BLACK
6
CONTINUOUS
10
104.23
20
-111.57
11
103.03
21
-112.77
0
LINE
8
BLACK
6
CONTINUOUS
10
105.57
20
-111.57
11
106.77
21
-112.77
0
LINE
8
BLACK
6
CONTINUOUS
10
106.77
20
-111.57
11
105.57
21
-112.77
0
LINE
8
BLACK
6
CONTINUOUS
10
108.11
20
-111.57
11
109.31
21
-112.77
0
LINE
8
BLACK
6
CONTINUOUS
10
109.31
20
-111.57
11
108.11
21
-112.77
0
LINE
8
BLACK
6
CONTINUOUS
10
110.65
20
-111.57
11
111.85
21
-112.77
0
LINE
8
BLACK
6
CONTINUOUS
10
111.85
20
-111.57
11
110.65
21
-112.77
0
LINE
8
BLACK
6
CONTINUOUS
10
95.825
20
-122.135
11
97.025
21
-123.335
0
LINE
8
BLACK
6
CONTINUOUS
10
97.025
20
-122.135
11
95.825
21
-123.335
0
LINE
8
BLACK
6
CONTINUOUS
10
98.365
20
-122.135
11
99.565
21
-123.335
0
LINE
8
BLACK
6
CONTINUOUS
10
99.565
20
-122.135
11
98.365
21
-123.335
0
LINE
8
BLACK
6
CONTINUOUS
10
100.905
20
-122.135
11
102.105
21
-123.335
0
LINE
8
BLACK
6
CONTINUOUS
10
102.105
20
-122.135
11
100.905
21
-123.335
0
LINE
8
BLACK
6
CONTINUOUS
10
103.445
20
-122.135
11
104.645
21
-123.335
0
LINE
8
BLACK
6
CONTINUOUS
10
104.645
20
-122.135
11
103.445
21
-123.335
0
LINE
8
BLACK
6
CONTINUOUS
10
105.985
20
-122.135
11
107.185
21
-123.335
0
LINE
8
BLACK
6
CONTINUOUS
10
107.185
20
-122.135
11
105.985
21
-123.335
0
LINE
8
BLACK
6
CONTINUOUS
10
108.525
20
-122.135
11
109.725
21
-123.335
0
LINE
8
BLACK
6
CONTINUOUS
10
109.725
20
-122.135
11
108.525
21
-123.335
0
LINE
8
BLACK
6
CONTINUOUS
10
116.975
20
-61.525
11
118.175
21
-62.725
0
LINE
8
BLACK
6
CONTINUOUS
10
118.175
20
-61.525
11
116.975
21
-62.725
0
LINE
8
BLACK
6
CONTINUOUS
10
119.515
20
-61.525
11
120.715
21
-62.725
0
LINE
8
BLACK
6
CONTINUOUS
10
120.715
20
-61.525
11
119.515
21
-62.725
0
LINE
8
BLACK
6
CONTINUOUS
10
41.6663
20
-145.37
11
41.6663
21
-142.37
0
LINE
8
BLACK
6
CONTINUOUS
10
41.6663
20
-142.37
11
42.3806
21
-142.37
0
LINE
8
BLACK
6
CONTINUOUS
10
42.3806
20
-142.37
11
42.8091
21
-142.513
0
LINE
8
BLACK
6
CONTINUOUS
10
42.8091
20
-142.513
11
43.0949
21
-142.798
0
LINE
8
BLACK
6
CONTINUOUS
10
43.0949
20
-142.798
11
43.2377
21
-143.084
0
LINE
8
BLACK
6
CONTINUOUS
10
43.2377
20
-143.084
11
43.3806
21
-143.655
0
LINE
8
BLACK
6
CONTINUOUS
10
43.3806
20
-143.655
11
43.3806
21
-144.084
0
LINE
8
BLACK
6
CONTINUOUS
10
43.3806
20
-144.084
11
43.2377
21
-144.655
0
LINE
8
BLACK
6
CONTINUOUS
10
43.2377
20
-144.655
11
43.0949
21
-144.941
0
LINE
8
BLACK
6
CONTINUOUS
10
43.0949
20
-144.941
11
42.8091
21
-145.227
0
LINE
8
BLACK
6
CONTINUOUS
10
42.8091
20
-145.227
11
42.3806
21
-145.37
0
LINE
8
BLACK
6
CONTINUOUS
10
42.3806
20
-145.37
11
41.6663
21
-145.37
0
LINE
8
BLACK
6
CONTINUOUS
10
44.6663
20
-145.37
11
44.6663
21
-143.37
0
LINE
8
BLACK
6
CONTINUOUS
10
44.6663
20
-143.941
11
44.8091
21
-143.655
0
LINE
8
BLACK
6
CONTINUOUS
10
44.8091
20
-143.655
11
44.952
21
-143.513
0
LINE
8
BLACK
6
CONTINUOUS
10
44.952
20
-143.513
11
45.2377
21
-143.37
0
LINE
8
BLACK
6
CONTINUOUS
10
45.2377
20
-143.37
11
45.5234
21
-143.37
0
LINE
8
BLACK
6
CONTINUOUS
10
46.5234
20
-145.37
11
46.5234
21
-143.37
0
LINE
8
BLACK
6
CONTINUOUS
10
46.5234
20
-142.37
11
46.3806
21
-142.513
0
LINE
8
BLACK
6
CONTINUOUS
10
46.3806
20
-142.513
11
46.5234
21
-142.655
0
LINE
8
BLACK
6
CONTINUOUS
10
46.5234
20
-142.655
11
46.6663
21
-142.513
0
LINE
8
BLACK
6
CONTINUOUS
10
46.6663
20
-142.513
11
46.5234
21
-142.37
0
LINE
8
BLACK
6
CONTINUOUS
10
46.5234
20
-142.37
11
46.5234
21
-142.655
0
LINE
8
BLACK
6
CONTINUOUS
10
48.3806
20
-145.37
11
48.0949
21
-145.227
0
LINE
8
BLACK
6
CONTINUOUS
10
48.0949
20
-145.227
11
47.952
21
-144.941
0
LINE
8
BLACK
6
CONTINUOUS
10
47.952
20
-144.941
11
47.952
21
-142.37
0
LINE
8
BLACK
6
CONTINUOUS
10
49.952
20
-145.37
11
49.6663
21
-145.227
0
LINE
8
BLACK
6
CONTINUOUS
10
49.6663
20
-145.227
11
49.5234
21
-144.941
0
LINE
8
BLACK
6
CONTINUOUS
10
49.5234
20
-144.941
11
49.5234
21
-142.37
0
LINE
8
BLACK
6
CONTINUOUS
10
53.3806
20
-145.37
11
53.3806
21
-142.37
0
LINE
8
BLACK
6
CONTINUOUS
10
53.3806
20
-142.37
11
54.3806
21
-144.513
0
LINE
8
BLACK
6
CONTINUOUS
10
54.3806
20
-144.513
11
55.3806
21
-142.37
0
LINE
8
BLACK
6
CONTINUOUS
10
55.3806
20
-142.37
11
55.3806
21
-145.37
0
LINE
8
BLACK
6
CONTINUOUS
10
58.0949
20
-145.37
11
58.0949
21
-143.798
0
LINE
8
BLACK
6
CONTINUOUS
10
58.0949
20
-143.798
11
57.952
21
-143.513
0
LINE
8
BLACK
6
CONTINUOUS
10
57.952
20
-143.513
11
57.6663
21
-143.37
0
LINE
8
BLACK
6
CONTINUOUS
10
57.6663
20
-143.37
11
57.0949
21
-143.37
0
LINE
8
BLACK
6
CONTINUOUS
10
57.0949
20
-143.37
11
56.8091
21
-143.513
0
LINE
8
BLACK
6
CONTINUOUS
10
58.0949
20
-145.227
11
57.8091
21
-145.37
0
LINE
8
BLACK
6
CONTINUOUS
10
57.8091
20
-145.37
11
57.0949
21
-145.37
0
LINE
8
BLACK
6
CONTINUOUS
10
57.0949
20
-145.37
11
56.8091
21
-145.227
0
LINE
8
BLACK
6
CONTINUOUS
10
56.8091
20
-145.227
11
56.6663
21
-144.941
0
LINE
8
BLACK
6
CONTINUOUS
10
56.6663
20
-144.941
11
56.6663
21
-144.655
0
LINE
8
BLACK
6
CONTINUOUS
10
56.6663
20
-144.655
11
56.8091
21
-144.37
0
LINE
8
BLACK
6
CONTINUOUS
10
56.8091
20
-144.37
11
57.0949
21
-144.227
0
LINE
8
BLACK
6
CONTINUOUS
10
57.0949
20
-144.227
11
57.8091
21
-144.227
0
LINE
8
BLACK
6
CONTINUOUS
10
57.8091
20
-144.227
11
58.0949
21
-144.084
0
LINE
8
BLACK
6
CONTINUOUS
10
59.5234
20
-143.37
11
59.5234
21
-146.37
0
LINE
8
BLACK
6
CONTINUOUS
10
59.5234
20
-143.513
11
59.8091
21
-143.37
0
LINE
8
BLACK
6
CONTINUOUS
10
59.8091
20
-143.37
11
60.3806
21
-143.37
0
LINE
8
BLACK
6
CONTINUOUS
10
60.3806
20
-143.37
11
60.6663
21
-143.513
0
LINE
8
BLACK
6
CONTINUOUS
10
60.6663
20
-143.513
11
60.8091
21
-143.655
0
LINE
8
BLACK
6
CONTINUOUS
10
60.8091
20
-143.655
11
60.952
21
-143.941
0
LINE
8
BLACK
6
CONTINUOUS
10
60.952
20
-143.941
11
60.952
21
-144.798
0
LINE
8
BLACK
6
CONTINUOUS
10
60.952
20
-144.798
11
60.8091
21
-145.084
0
LINE
8
BLACK
6
CONTINUOUS
10
60.8091
20
-145.084
11
60.6663
21
-145.227
0
LINE
8
BLACK
6
CONTINUOUS
10
60.6663
20
-145.227
11
60.3806
21
-145.37
0
LINE
8
BLACK
6
CONTINUOUS
10
60.3806
20
-145.37
11
59.8091
21
-145.37
0
LINE
8
BLACK
6
CONTINUOUS
10
59.8091
20
-145.37
11
59.5234
21
-145.227
0
LINE
8
BLACK
6
CONTINUOUS
10
62.2377
20
-145.084
11
62.3806
21
-145.227
0
LINE
8
BLACK
6
CONTINUOUS
10
62.3806
20
-145.227
11
62.2377
21
-145.37
0
LINE
8
BLACK
6
CONTINUOUS
10
62.2377
20
-145.37
11
62.0949
21
-145.227
0
LINE
8
BLACK
6
CONTINUOUS
10
62.0949
20
-145.227
11
62.2377
21
-145.084
0
LINE
8
BLACK
6
CONTINUOUS
10
62.2377
20
-145.084
11
62.2377
21
-145.37
0
LINE
8
BLACK
6
CONTINUOUS
10
62.2377
20
-143.513
11
62.3806
21
-143.655
0
LINE
8
BLACK
6
CONTINUOUS
10
62.3806
20
-143.655
11
62.2377
21
-143.798
0
LINE
8
BLACK
6
CONTINUOUS
10
62.2377
20
-143.798
11
62.0949
21
-143.655
0
LINE
8
BLACK
6
CONTINUOUS
10
62.0949
20
-143.655
11
62.2377
21
-143.513
0
LINE
8
BLACK
6
CONTINUOUS
10
62.2377
20
-143.513
11
62.2377
21
-143.798
0
LINE
8
BLACK
6
CONTINUOUS
10
37.602
20
-149.713
11
38.802
21
-150.913
0
LINE
8
BLACK
6
CONTINUOUS
10
38.802
20
-149.713
11
37.602
21
-150.913
0
LINE
8
BLACK
6
CONTINUOUS
10
43.2377
20
-151.67
11
41.5234
21
-151.67
0
LINE
8
BLACK
6
CONTINUOUS
10
42.3806
20
-151.67
11
42.3806
21
-148.67
0
LINE
8
BLACK
6
CONTINUOUS
10
42.3806
20
-148.67
11
42.0949
21
-149.098
0
LINE
8
BLACK
6
CONTINUOUS
10
42.0949
20
-149.098
11
41.8091
21
-149.384
0
LINE
8
BLACK
6
CONTINUOUS
10
41.8091
20
-149.384
11
41.5234
21
-149.527
0
LINE
8
BLACK
6
CONTINUOUS
10
44.5234
20
-151.384
11
44.6663
21
-151.527
0
LINE
8
BLACK
6
CONTINUOUS
10
44.6663
20
-151.527
11
44.5234
21
-151.67
0
LINE
8
BLACK
6
CONTINUOUS
10
44.5234
20
-151.67
11
44.3806
21
-151.527
0
LINE
8
BLACK
6
CONTINUOUS
10
44.3806
20
-151.527
11
44.5234
21
-151.384
0
LINE
8
BLACK
6
CONTINUOUS
10
44.5234
20
-151.384
11
44.5234
21
-151.67
0
LINE
8
BLACK
6
CONTINUOUS
10
45.8091
20
-148.955
11
45.952
21
-148.813
0
LINE
8
BLACK
6
CONTINUOUS
10
45.952
20
-148.813
11
46.2377
21
-148.67
0
LINE
8
BLACK
6
CONTINUOUS
10
46.2377
20
-148.67
11
46.952
21
-148.67
0
LINE
8
BLACK
6
CONTINUOUS
10
46.952
20
-148.67
11
47.2377
21
-148.813
0
LINE
8
BLACK
6
CONTINUOUS
10
47.2377
20
-148.813
11
47.3806
21
-148.955
0
LINE
8
BLACK
6
CONTINUOUS
10
47.3806
20
-148.955
11
47.5234
21
-149.241
0
LINE
8
BLACK
6
CONTINUOUS
10
47.5234
20
-149.241
11
47.5234
21
-149.527
0
LINE
8
BLACK
6
CONTINUOUS
10
47.5234
20
-149.527
11
47.3806
21
-149.955
0
LINE
8
BLACK
6
CONTINUOUS
10
47.3806
20
-149.955
11
45.6663
21
-151.67
0
LINE
8
BLACK
6
CONTINUOUS
10
45.6663
20
-151.67
11
47.5234
21
-151.67
0
LINE
8
BLACK
6
CONTINUOUS
10
49.3806
20
-148.67
11
49.6663
21
-148.67
0
LINE
8
BLACK
6
CONTINUOUS
10
49.6663
20
-148.67
11
49.952
21
-148.813
0
LINE
8
BLACK
6
CONTINUOUS
10
49.952
20
-148.813
11
50.0949
21
-148.955
0
LINE
8
BLACK
6
CONTINUOUS
10
50.0949
20
-148.955
11
50.2377
21
-149.241
0
LINE
8
BLACK
6
CONTINUOUS
10
50.2377
20
-149.241
11
50.3806
21
-149.813
0
LINE
8
BLACK
6
CONTINUOUS
10
50.3806
20
-149.813
11
50.3806
21
-150.527
0
LINE
8
BLACK
6
CONTINUOUS
10
50.3806
20
-150.527
11
50.2377
21
-151.098
0
LINE
8
BLACK
6
CONTINUOUS
10
50.2377
20
-151.098
11
50.0949
21
-151.384
0
LINE
8
BLACK
6
CONTINUOUS
10
50.0949
20
-151.384
11
49.952
21
-151.527
0
LINE
8
BLACK
6
CONTINUOUS
10
49.952
20
-151.527
11
49.6663
21
-151.67
0
LINE
8
BLACK
6
CONTINUOUS
10
49.6663
20
-151.67
11
49.3806
21
-151.67
0
LINE
8
BLACK
6
CONTINUOUS
10
49.3806
20
-151.67
11
49.0949
21
-151.527
0
LINE
8
BLACK
6
CONTINUOUS
10
49.0949
20
-151.527
11
48.952
21
-151.384
0
LINE
8
BLACK
6
CONTINUOUS
10
48.952
20
-151.384
11
48.8091
21
-151.098
0
LINE
8
BLACK
6
CONTINUOUS
10
48.8091
20
-151.098
11
48.6663
21
-150.527
0
LINE
8
BLACK
6
CONTINUOUS
10
48.6663
20
-150.527
11
48.6663
21
-149.813
0
LINE
8
BLACK
6
CONTINUOUS
10
48.6663
20
-149.813
11
48.8091
21
-149.241
0
LINE
8
BLACK
6
CONTINUOUS
10
48.8091
20
-149.241
11
48.952
21
-148.955
0
LINE
8
BLACK
6
CONTINUOUS
10
48.952
20
-148.955
11
49.0949
21
-148.813
0
LINE
8
BLACK
6
CONTINUOUS
10
49.0949
20
-148.813
11
49.3806
21
-148.67
0
LINE
8
BLACK
6
CONTINUOUS
10
51.6663
20
-151.67
11
51.6663
21
-149.67
0
LINE
8
BLACK
6
CONTINUOUS
10
51.6663
20
-149.955
11
51.8091
21
-149.813
0
LINE
8
BLACK
6
CONTINUOUS
10
51.8091
20
-149.813
11
52.0949
21
-149.67
0
LINE
8
BLACK
6
CONTINUOUS
10
52.0949
20
-149.67
11
52.5234
21
-149.67
0
LINE
8
BLACK
6
CONTINUOUS
10
52.5234
20
-149.67
11
52.8091
21
-149.813
0
LINE
8
BLACK
6
CONTINUOUS
10
52.8091
20
-149.813
11
52.952
21
-150.098
0
LINE
8
BLACK
6
CONTINUOUS
10
52.952
20
-150.098
11
52.952
21
-151.67
0
LINE
8
BLACK
6
CONTINUOUS
10
52.952
20
-150.098
11
53.0949
21
-149.813
0
LINE
8
BLACK
6
CONTINUOUS
10
53.0949
20
-149.813
11
53.3806
21
-149.67
0
LINE
8
BLACK
6
CONTINUOUS
10
53.3806
20
-149.67
11
53.8091
21
-149.67
0
LINE
8
BLACK
6
CONTINUOUS
10
53.8091
20
-149.67
11
54.0949
21
-149.813
0
LINE
8
BLACK
6
CONTINUOUS
10
54.0949
20
-149.813
11
54.2377
21
-150.098
0
LINE
8
BLACK
6
CONTINUOUS
10
54.2377
20
-150.098
11
54.2377
21
-151.67
0
LINE
8
BLACK
6
CONTINUOUS
10
55.6663
20
-151.67
11
55.6663
21
-149.67
0
LINE
8
BLACK
6
CONTINUOUS
10
55.6663
20
-149.955
11
55.8091
21
-149.813
0
LINE
8
BLACK
6
CONTINUOUS
10
55.8091
20
-149.813
11
56.0949
21
-149.67
0
LINE
8
BLACK
6
CONTINUOUS
10
56.0949
20
-149.67
11
56.5234
21
-149.67
0
LINE
8
BLACK
6
CONTINUOUS
10
56.5234
20
-149.67
11
56.8091
21
-149.813
0
LINE
8
BLACK
6
CONTINUOUS
10
56.8091
20
-149.813
11
56.952
21
-150.098
0
LINE
8
BLACK
6
CONTINUOUS
10
56.952
20
-150.098
11
56.952
21
-151.67
0
LINE
8
BLACK
6
CONTINUOUS
10
56.952
20
-150.098
11
57.0949
21
-149.813
0
LINE
8
BLACK
6
CONTINUOUS
10
57.0949
20
-149.813
11
57.3806
21
-149.67
0
LINE
8
BLACK
6
CONTINUOUS
10
57.3806
20
-149.67
11
57.8091
21
-149.67
0
LINE
8
BLACK
6
CONTINUOUS
10
57.8091
20
-149.67
11
58.0949
21
-149.813
0
LINE
8
BLACK
6
CONTINUOUS
10
58.0949
20
-149.813
11
58.2377
21
-150.098
0
LINE
8
BLACK
6
CONTINUOUS
10
58.2377
20
-150.098
11
58.2377
21
-151.67
0
LINE
8
BLACK
6
CONTINUOUS
10
64.0949
20
-148.527
11
61.5234
21
-152.384
0
LINE
8
BLACK
6
CONTINUOUS
10
67.952
20
-148.67
11
68.2377
21
-148.67
0
LINE
8
BLACK
6
CONTINUOUS
10
68.2377
20
-148.67
11
68.5234
21
-148.813
0
LINE
8
BLACK
6
CONTINUOUS
10
68.5234
20
-148.813
11
68.6663
21
-148.955
0
LINE
8
BLACK
6
CONTINUOUS
10
68.6663
20
-148.955
11
68.8091
21
-149.241
0
LINE
8
BLACK
6
CONTINUOUS
10
68.8091
20
-149.241
11
68.952
21
-149.813
0
LINE
8
BLACK
6
CONTINUOUS
10
68.952
20
-149.813
11
68.952
21
-150.527
0
LINE
8
BLACK
6
CONTINUOUS
10
68.952
20
-150.527
11
68.8091
21
-151.098
0
LINE
8
BLACK
6
CONTINUOUS
10
68.8091
20
-151.098
11
68.6663
21
-151.384
0
LINE
8
BLACK
6
CONTINUOUS
10
68.6663
20
-151.384
11
68.5234
21
-151.527
0
LINE
8
BLACK
6
CONTINUOUS
10
68.5234
20
-151.527
11
68.2377
21
-151.67
0
LINE
8
BLACK
6
CONTINUOUS
10
68.2377
20
-151.67
11
67.952
21
-151.67
0
LINE
8
BLACK
6
CONTINUOUS
10
67.952
20
-151.67
11
67.6663
21
-151.527
0
LINE
8
BLACK
6
CONTINUOUS
10
67.6663
20
-151.527
11
67.5234
21
-151.384
0
LINE
8
BLACK
6
CONTINUOUS
10
67.5234
20
-151.384
11
67.3806
21
-151.098
0
LINE
8
BLACK
6
CONTINUOUS
10
67.3806
20
-151.098
11
67.2377
21
-150.527
0
LINE
8
BLACK
6
CONTINUOUS
10
67.2377
20
-150.527
11
67.2377
21
-149.813
0
LINE
8
BLACK
6
CONTINUOUS
10
67.2377
20
-149.813
11
67.3806
21
-149.241
0
LINE
8
BLACK
6
CONTINUOUS
10
67.3806
20
-149.241
11
67.5234
21
-148.955
0
LINE
8
BLACK
6
CONTINUOUS
10
67.5234
20
-148.955
11
67.6663
21
-148.813
0
LINE
8
BLACK
6
CONTINUOUS
10
67.6663
20
-148.813
11
67.952
21
-148.67
0
LINE
8
BLACK
6
CONTINUOUS
10
70.2377
20
-151.384
11
70.3806
21
-151.527
0
LINE
8
BLACK
6
CONTINUOUS
10
70.3806
20
-151.527
11
70.2377
21
-151.67
0
LINE
8
BLACK
6
CONTINUOUS
10
70.2377
20
-151.67
11
70.0949
21
-151.527
0
LINE
8
BLACK
6
CONTINUOUS
10
70.0949
20
-151.527
11
70.2377
21
-151.384
0
LINE
8
BLACK
6
CONTINUOUS
10
70.2377
20
-151.384
11
70.2377
21
-151.67
0
LINE
8
BLACK
6
CONTINUOUS
10
72.2377
20
-148.67
11
72.5234
21
-148.67
0
LINE
8
BLACK
6
CONTINUOUS
10
72.5234
20
-148.67
11
72.8091
21
-148.813
0
LINE
8
BLACK
6
CONTINUOUS
10
72.8091
20
-148.813
11
72.952
21
-148.955
0
LINE
8
BLACK
6
CONTINUOUS
10
72.952
20
-148.955
11
73.0949
21
-149.241
0
LINE
8
BLACK
6
CONTINUOUS
10
73.0949
20
-149.241
11
73.2377
21
-149.813
0
LINE
8
BLACK
6
CONTINUOUS
10
73.2377
20
-149.813
11
73.2377
21
-150.527
0
LINE
8
BLACK
6
CONTINUOUS
10
73.2377
20
-150.527
11
73.0949
21
-151.098
0
LINE
8
BLACK
6
CONTINUOUS
10
73.0949
20
-151.098
11
72.952
21
-151.384
0
LINE
8
BLACK
6
CONTINUOUS
10
72.952
20
-151.384
11
72.8091
21
-151.527
0
LINE
8
BLACK
6
CONTINUOUS
10
72.8091
20
-151.527
11
72.5234
21
-151.67
0
LINE
8
BLACK
6
CONTINUOUS
10
72.5234
20
-151.67
11
72.2377
21
-151.67
0
LINE
8
BLACK
6
CONTINUOUS
10
72.2377
20
-151.67
11
71.952
21
-151.527
0
LINE
8
BLACK
6
CONTINUOUS
10
71.952
20
-151.527
11
71.8091
21
-151.384
0
LINE
8
BLACK
6
CONTINUOUS
10
71.8091
20
-151.384
11
71.6663
21
-151.098
0
LINE
8
BLACK
6
CONTINUOUS
10
71.6663
20
-151.098
11
71.5234
21
-150.527
0
LINE
8
BLACK
6
CONTINUOUS
10
71.5234
20
-150.527
11
71.5234
21
-149.813
0
LINE
8
BLACK
6
CONTINUOUS
10
71.5234
20
-149.813
11
71.6663
21
-149.241
0
LINE
8
BLACK
6
CONTINUOUS
10
71.6663
20
-149.241
11
71.8091
21
-148.955
0
LINE
8
BLACK
6
CONTINUOUS
10
71.8091
20
-148.955
11
71.952
21
-148.813
0
LINE
8
BLACK
6
CONTINUOUS
10
71.952
20
-148.813
11
72.2377
21
-148.67
0
LINE
8
BLACK
6
CONTINUOUS
10
75.8091
20
-149.67
11
75.8091
21
-151.67
0
LINE
8
BLACK
6
CONTINUOUS
10
75.0949
20
-148.527
11
74.3806
21
-150.67
0
LINE
8
BLACK
6
CONTINUOUS
10
74.3806
20
-150.67
11
76.2377
21
-150.67
0
LINE
8
BLACK
6
CONTINUOUS
10
77.0949
20
-148.67
11
79.0949
21
-148.67
0
LINE
8
BLACK
6
CONTINUOUS
10
79.0949
20
-148.67
11
77.8091
21
-151.67
0
LINE
8
BLACK
6
CONTINUOUS
10
80.0949
20
-148.67
11
80.0949
21
-149.241
0
LINE
8
BLACK
6
CONTINUOUS
10
81.2377
20
-148.67
11
81.2377
21
-149.241
0
LINE
8
BLACK
6
CONTINUOUS
10
85.6663
20
-152.813
11
85.5234
21
-152.67
0
LINE
8
BLACK
6
CONTINUOUS
10
85.5234
20
-152.67
11
85.2377
21
-152.241
0
LINE
8
BLACK
6
CONTINUOUS
10
85.2377
20
-152.241
11
85.0949
21
-151.955
0
LINE
8
BLACK
6
CONTINUOUS
10
85.0949
20
-151.955
11
84.952
21
-151.527
0
LINE
8
BLACK
6
CONTINUOUS
10
84.952
20
-151.527
11
84.8091
21
-150.813
0
LINE
8
BLACK
6
CONTINUOUS
10
84.8091
20
-150.813
11
84.8091
21
-150.241
0
LINE
8
BLACK
6
CONTINUOUS
10
84.8091
20
-150.241
11
84.952
21
-149.527
0
LINE
8
BLACK
6
CONTINUOUS
10
84.952
20
-149.527
11
85.0949
21
-149.098
0
LINE
8
BLACK
6
CONTINUOUS
10
85.0949
20
-149.098
11
85.2377
21
-148.813
0
LINE
8
BLACK
6
CONTINUOUS
10
85.2377
20
-148.813
11
85.5234
21
-148.384
0
LINE
8
BLACK
6
CONTINUOUS
10
85.5234
20
-148.384
11
85.6663
21
-148.241
0
LINE
8
BLACK
6
CONTINUOUS
10
88.3806
20
-151.67
11
86.6663
21
-151.67
0
LINE
8
BLACK
6
CONTINUOUS
10
87.5234
20
-151.67
11
87.5234
21
-148.67
0
LINE
8
BLACK
6
CONTINUOUS
10
87.5234
20
-148.67
11
87.2377
21
-149.098
0
LINE
8
BLACK
6
CONTINUOUS
10
87.2377
20
-149.098
11
86.952
21
-149.384
0
LINE
8
BLACK
6
CONTINUOUS
10
86.952
20
-149.384
11
86.6663
21
-149.527
0
LINE
8
BLACK
6
CONTINUOUS
10
91.0949
20
-148.67
11
89.6663
21
-148.67
0
LINE
8
BLACK
6
CONTINUOUS
10
89.6663
20
-148.67
11
89.5234
21
-150.098
0
LINE
8
BLACK
6
CONTINUOUS
10
89.5234
20
-150.098
11
89.6663
21
-149.955
0
LINE
8
BLACK
6
CONTINUOUS
10
89.6663
20
-149.955
11
89.952
21
-149.813
0
LINE
8
BLACK
6
CONTINUOUS
10
89.952
20
-149.813
11
90.6663
21
-149.813
0
LINE
8
BLACK
6
CONTINUOUS
10
90.6663
20
-149.813
11
90.952
21
-149.955
0
LINE
8
BLACK
6
CONTINUOUS
10
90.952
20
-149.955
11
91.0949
21
-150.098
0
LINE
8
BLACK
6
CONTINUOUS
10
91.0949
20
-150.098
11
91.2377
21
-150.384
0
LINE
8
BLACK
6
CONTINUOUS
10
91.2377
20
-150.384
11
91.2377
21
-151.098
0
LINE
8
BLACK
6
CONTINUOUS
10
91.2377
20
-151.098
11
91.0949
21
-151.384
0
LINE
8
BLACK
6
CONTINUOUS
10
91.0949
20
-151.384
11
90.952
21
-151.527
0
LINE
8
BLACK
6
CONTINUOUS
10
90.952
20
-151.527
11
90.6663
21
-151.67
0
LINE
8
BLACK
6
CONTINUOUS
10
90.6663
20
-151.67
11
89.952
21
-151.67
0
LINE
8
BLACK
6
CONTINUOUS
10
89.952
20
-151.67
11
89.6663
21
-151.527
0
LINE
8
BLACK
6
CONTINUOUS
10
89.6663
20
-151.527
11
89.5234
21
-151.384
0
LINE
8
BLACK
6
CONTINUOUS
10
93.8091
20
-149.67
11
93.8091
21
-151.67
0
LINE
8
BLACK
6
CONTINUOUS
10
93.0949
20
-148.527
11
92.3806
21
-150.67
0
LINE
8
BLACK
6
CONTINUOUS
10
92.3806
20
-150.67
11
94.2377
21
-150.67
0
LINE
8
BLACK
6
CONTINUOUS
10
97.6663
20
-151.67
11
97.6663
21
-148.67
0
LINE
8
BLACK
6
CONTINUOUS
10
98.952
20
-151.67
11
98.952
21
-150.098
0
LINE
8
BLACK
6
CONTINUOUS
10
98.952
20
-150.098
11
98.8091
21
-149.813
0
LINE
8
BLACK
6
CONTINUOUS
10
98.8091
20
-149.813
11
98.5234
21
-149.67
0
LINE
8
BLACK
6
CONTINUOUS
10
98.5234
20
-149.67
11
98.0949
21
-149.67
0
LINE
8
BLACK
6
CONTINUOUS
10
98.0949
20
-149.67
11
97.8091
21
-149.813
0
LINE
8
BLACK
6
CONTINUOUS
10
97.8091
20
-149.813
11
97.6663
21
-149.955
0
LINE
8
BLACK
6
CONTINUOUS
10
100.809
20
-151.67
11
100.523
21
-151.527
0
LINE
8
BLACK
6
CONTINUOUS
10
100.523
20
-151.527
11
100.381
21
-151.384
0
LINE
8
BLACK
6
CONTINUOUS
10
100.381
20
-151.384
11
100.238
21
-151.098
0
LINE
8
BLACK
6
CONTINUOUS
10
100.238
20
-151.098
11
100.238
21
-150.241
0
LINE
8
BLACK
6
CONTINUOUS
10
100.238
20
-150.241
11
100.381
21
-149.955
0
LINE
8
BLACK
6
CONTINUOUS
10
100.381
20
-149.955
11
100.523
21
-149.813
0
LINE
8
BLACK
6
CONTINUOUS
10
100.523
20
-149.813
11
100.809
21
-149.67
0
LINE
8
BLACK
6
CONTINUOUS
10
100.809
20
-149.67
11
101.238
21
-149.67
0
LINE
8
BLACK
6
CONTINUOUS
10
101.238
20
-149.67
11
101.523
21
-149.813
0
LINE
8
BLACK
6
CONTINUOUS
10
101.523
20
-149.813
11
101.666
21
-149.955
0
LINE
8
BLACK
6
CONTINUOUS
10
101.666
20
-149.955
11
101.809
21
-150.241
0
LINE
8
BLACK
6
CONTINUOUS
10
101.809
20
-150.241
11
101.809
21
-151.098
0
LINE
8
BLACK
6
CONTINUOUS
10
101.809
20
-151.098
11
101.666
21
-151.384
0
LINE
8
BLACK
6
CONTINUOUS
10
101.666
20
-151.384
11
101.523
21
-151.527
0
LINE
8
BLACK
6
CONTINUOUS
10
101.523
20
-151.527
11
101.238
21
-151.67
0
LINE
8
BLACK
6
CONTINUOUS
10
101.238
20
-151.67
11
100.809
21
-151.67
0
LINE
8
BLACK
6
CONTINUOUS
10
103.523
20
-151.67
11
103.238
21
-151.527
0
LINE
8
BLACK
6
CONTINUOUS
10
103.238
20
-151.527
11
103.095
21
-151.241
0
LINE
8
BLACK
6
CONTINUOUS
10
103.095
20
-151.241
11
103.095
21
-148.67
0
LINE
8
BLACK
6
CONTINUOUS
10
105.809
20
-151.527
11
105.523
21
-151.67
0
LINE
8
BLACK
6
CONTINUOUS
10
105.523
20
-151.67
11
104.952
21
-151.67
0
LINE
8
BLACK
6
CONTINUOUS
10
104.952
20
-151.67
11
104.666
21
-151.527
0
LINE
8
BLACK
6
CONTINUOUS
10
104.666
20
-151.527
11
104.523
21
-151.241
0
LINE
8
BLACK
6
CONTINUOUS
10
104.523
20
-151.241
11
104.523
21
-150.098
0
LINE
8
BLACK
6
CONTINUOUS
10
104.523
20
-150.098
11
104.666
21
-149.813
0
LINE
8
BLACK
6
CONTINUOUS
10
104.666
20
-149.813
11
104.952
21
-149.67
0
LINE
8
BLACK
6
CONTINUOUS
10
104.952
20
-149.67
11
105.523
21
-149.67
0
LINE
8
BLACK
6
CONTINUOUS
10
105.523
20
-149.67
11
105.809
21
-149.813
0
LINE
8
BLACK
6
CONTINUOUS
10
105.809
20
-149.813
11
105.952
21
-150.098
0
LINE
8
BLACK
6
CONTINUOUS
10
105.952
20
-150.098
11
105.952
21
-150.384
0
LINE
8
BLACK
6
CONTINUOUS
10
105.952
20
-150.384
11
104.523
21
-150.67
0
LINE
8
BLACK
6
CONTINUOUS
10
107.095
20
-151.527
11
107.381
21
-151.67
0
LINE
8
BLACK
6
CONTINUOUS
10
107.381
20
-151.67
11
107.952
21
-151.67
0
LINE
8
BLACK
6
CONTINUOUS
10
107.952
20
-151.67
11
108.238
21
-151.527
0
LINE
8
BLACK
6
CONTINUOUS
10
108.238
20
-151.527
11
108.381
21
-151.241
0
LINE
8
BLACK
6
CONTINUOUS
10
108.381
20
-151.241
11
108.381
21
-151.098
0
LINE
8
BLACK
6
CONTINUOUS
10
108.381
20
-151.098
11
108.238
21
-150.813
0
LINE
8
BLACK
6
CONTINUOUS
10
108.238
20
-150.813
11
107.952
21
-150.67
0
LINE
8
BLACK
6
CONTINUOUS
10
107.952
20
-150.67
11
107.523
21
-150.67
0
LINE
8
BLACK
6
CONTINUOUS
10
107.523
20
-150.67
11
107.238
21
-150.527
0
LINE
8
BLACK
6
CONTINUOUS
10
107.238
20
-150.527
11
107.095
21
-150.241
0
LINE
8
BLACK
6
CONTINUOUS
10
107.095
20
-150.241
11
107.095
21
-150.098
0
LINE
8
BLACK
6
CONTINUOUS
10
107.095
20
-150.098
11
107.238
21
-149.813
0
LINE
8
BLACK
6
CONTINUOUS
10
107.238
20
-149.813
11
107.523
21
-149.67
0
LINE
8
BLACK
6
CONTINUOUS
10
107.523
20
-149.67
11
107.952
21
-149.67
0
LINE
8
BLACK
6
CONTINUOUS
10
107.952
20
-149.67
11
108.238
21
-149.813
0
LINE
8
BLACK
6
CONTINUOUS
10
109.381
20
-152.813
11
109.523
21
-152.67
0
LINE
8
BLACK
6
CONTINUOUS
10
109.523
20
-152.67
11
109.809
21
-152.241
0
LINE
8
BLACK
6
CONTINUOUS
10
109.809
20
-152.241
11
109.952
21
-151.955
0
LINE
8
BLACK
6
CONTINUOUS
10
109.952
20
-151.955
11
110.095
21
-151.527
0
LINE
8
BLACK
6
CONTINUOUS
10
110.095
20
-151.527
11
110.238
21
-150.813
0
LINE
8
BLACK
6
CONTINUOUS
10
110.238
20
-150.813
11
110.238
21
-150.241
0
LINE
8
BLACK
6
CONTINUOUS
10
110.238
20
-150.241
11
110.095
21
-149.527
0
LINE
8
BLACK
6
CONTINUOUS
10
110.095
20
-149.527
11
109.952
21
-149.098
0
LINE
8
BLACK
6
CONTINUOUS
10
109.952
20
-149.098
11
109.809
21
-148.813
0
LINE
8
BLACK
6
CONTINUOUS
10
109.809
20
-148.813
11
109.523
21
-148.384
0
LINE
8
BLACK
6
CONTINUOUS
10
109.523
20
-148.384
11
109.381
21
-148.241
  0
ENDSEC
  0
EOF
