0
SECTION
2
HEADER
9
$INSUNITS
70
4
9
$ACADVER
1
AC1014
9
$HANDSEED
5
FFFF
0
ENDSEC
0
SECTION
2
TABLES
0
TABLE
2
VPORT
5
8
100
AcDbSymbolTable
0
ENDTAB
0
TABLE
2
LTYPE
5
5
100
AcDbSymbolTable
0
LTYPE
5
14
100
AcDbSymbolTableRecord
100
AcDbLinetypeTableRecord
2
BYBLOCK
70
0
0
LTYPE
5
15
100
AcDbSymbolTableRecord
100
AcDbLinetypeTableRecord
2
BYLAYER
70
0
0
LTYPE
5
16
100
AcDbSymbolTableRecord
100
AcDbLinetypeTableRecord
2
DASHED
70
0
3
Dashed __ __ __ __ __ __ __ __ __ __ __ __ __ _
72
65
73
2
40
0.75
49
0.5
74
0
49
-0.25
74
0
0
ENDTAB
0
TABLE
2
LAYER
5
2
100
AcDbSymbolTable
70
2
0
LAYER
5
50
100
AcDbSymbolTableRecord
100
AcDbLayerTableRecord
2
0
70
0
62
7
6
CONTINUOUS
0
ENDTAB
0
TABLE
2
STYLE
5
3
100
AcDbSymbolTable
70
1
0
STYLE
5
11
100
AcDbSymbolTableRecord
100
AcDbTextStyleTableRecord
2
STANDARD
70
0
0
ENDTAB
0
TABLE
2
VIEW
5
6
100
AcDbSymbolTable
70
0
0
ENDTAB
0
TABLE
2
UCS
5
7
100
AcDbSymbolTable
70
0
0
ENDTAB
0
TABLE
2
APPID
5
9
100
AcDbSymbolTable
70
2
0
APPID
5
12
100
AcDbSymbolTableRecord
100
AcDbRegAppTableRecord
2
ACAD
70
0
0
ENDTAB
0
TABLE
2
DIMSTYLE
5
A
100
AcDbSymbolTable
70
1
0
ENDTAB
0
TABLE
2
BLOCK_RECORD
5
1
100
AcDbSymbolTable
70
1
0
BLOCK_RECORD
5
1F
100
AcDbSymbolTableRecord
100
AcDbBlockTableRecord
2
*MODEL_SPACE
0
BLOCK_RECORD
5
1B
100
AcDbSymbolTableRecord
100
AcDbBlockTableRecord
2
*PAPER_SPACE
0
ENDTAB
0
ENDSEC
0
SECTION
2
BLOCKS
0
BLOCK
5
20
100
AcDbEntity
100
AcDbBlockBegin
2
*MODEL_SPACE
0
ENDBLK
5
21
100
AcDbEntity
100
AcDbBlockEnd
0
BLOCK
5
1C
100
AcDbEntity
100
AcDbBlockBegin
2
*PAPER_SPACE
0
ENDBLK
5
1D
100
AcDbEntity
100
AcDbBlockEnd
0
ENDSEC
0
SECTION
2
ENTITIES
0
CIRCLE
5
100
100
AcDbEntity
8
0
100
AcDbCircle
10
-87.390734154872263
20
63.511426020167143
30
0
40
2.5
210
0
220
0
230
1
0
LWPOLYLINE
5
101
100
AcDbEntity
8
0
100
AcDbPolyline
90
4
70
1
43
0.0
10
-109.84653180021347
20
154.35754563287242
10
-109.84653180021347
20
-45.64245436712595
10
34.616468199786539
20
-45.642454367125929
10
34.616468199786539
20
154.35754563287406
0
CIRCLE
5
102
100
AcDbEntity
8
0
100
AcDbCircle
10
30.810362333625747
20
139.6216140432208
30
0
40
2.2499999999999964
210
0
220
0
230
1
0
CIRCLE
5
103
100
AcDbEntity
8
0
100
AcDbCircle
10
25.434298915448544
20
48.865242360571273
30
0
40
1.749999999999998
210
0
220
0
230
1
0
CIRCLE
5
104
100
AcDbEntity
8
0
100
AcDbCircle
10
-61.128037730535489
20
-18.876959070199927
30
0
40
2.0000000000000018
210
0
220
0
230
1
0
CIRCLE
5
105
100
AcDbEntity
8
0
100
AcDbCircle
10
30.521746318088674
20
91.997481897584379
30
0
40
2.2499999999999964
210
0
220
0
230
1
0
ELLIPSE
5
106
100
AcDbEntity
8
0
100
AcDbEllipse
10
-80.400026084551399
20
-22.029295639428739
30
0
11
5.0287446046906565e-05
21
-4.9022000776420596
31
0.0
40
0.99999998410918023
41
0
42
6.2831853071795862
0
CIRCLE
5
107
100
AcDbEntity
8
0
100
AcDbCircle
10
-80.484826084551457
20
41.60380436057126
30
0
40
1.9999999999999929
210
0
220
0
230
1
0
CIRCLE
5
108
100
AcDbEntity
8
0
100
AcDbCircle
10
-107.42232608455154
20
41.753804360571266
30
0
40
2.0000000000000107
210
0
220
0
230
1
0
CIRCLE
5
109
100
AcDbEntity
8
0
100
AcDbCircle
10
-79.184826084551503
20
30.353804360571264
30
0
40
1.9999999999999929
210
0
220
0
230
1
0
LWPOLYLINE
5
110
100
AcDbEntity
8
0
100
AcDbPolyline
90
4
70
1
43
0.0
10
28.803909618328202
20
34.002074460714212
10
23.485898445137941
20
34.002074460714212
10
23.485898445137941
20
44.363027263653869
10
28.803909618328202
20
44.363027263653869
0
CIRCLE
5
111
100
AcDbEntity
8
0
100
AcDbCircle
10
-37.766531800213492
20
-28.402454367125934
30
0
40
0.86359999999999992
210
0
220
0
230
1
0
CIRCLE
5
112
100
AcDbEntity
8
0
100
AcDbCircle
10
-102.4723260845515
20
-31.99619563942872
30
0
40
1.9999999999999929
210
0
220
0
230
1
0
CIRCLE
5
113
100
AcDbEntity
8
0
100
AcDbCircle
10
-91.772326084551423
20
-1.6461956394287292
30
0
40
1.9999999999999929
210
0
220
0
230
1
0
CIRCLE
5
114
100
AcDbEntity
8
0
100
AcDbCircle
10
-103.7180889640551
20
77.961131737190669
30
0
40
2.1250000000000036
210
0
220
0
230
1
0
LWPOLYLINE
5
115
100
AcDbEntity
8
0
100
AcDbPolyline
90
4
70
1
43
0.0
10
23.485898445137941
20
-1.8486560344132208
10
23.485898445137941
20
16.947762767379935
10
27.887011140191952
20
16.947762767379935
10
27.887011140191952
20
-1.8486560344132208
0
CIRCLE
5
116
100
AcDbEntity
8
0
100
AcDbCircle
10
-105.74675206998968
20
92.823316166224643
30
0
40
2.2499999999999964
210
0
220
0
230
1
0
CIRCLE
5
117
100
AcDbEntity
8
0
100
AcDbCircle
10
-82.572326084551406
20
7.9038043605712716
30
0
40
1.9999999999999929
210
0
220
0
230
1
0
CIRCLE
5
118
100
AcDbEntity
8
0
100
AcDbCircle
10
-94.035671548646675
20
41.764953994966341
30
0
40
2.5
210
0
220
0
230
1
0
CIRCLE
5
119
100
AcDbEntity
8
0
100
AcDbCircle
10
-105.74675206999021
20
139.6216140432208
30
0
40
2.2499999999999964
210
0
220
0
230
1
0
CIRCLE
5
120
100
AcDbEntity
8
0
100
AcDbCircle
10
-94.509826084551491
20
30.553804360571277
30
0
40
1.9999999999999929
210
0
220
0
230
1
0
CIRCLE
5
121
100
AcDbEntity
8
0
100
AcDbCircle
10
-93.262414028905525
20
-41.066865891401193
30
0
40
2.5
210
0
220
0
230
1
0
CIRCLE
5
122
100
AcDbEntity
8
0
100
AcDbCircle
10
-97.072326084551435
20
-13.246195639428722
30
0
40
1.9999999999999929
210
0
220
0
230
1
0
CIRCLE
5
123
100
AcDbEntity
8
0
100
AcDbCircle
10
28.790278163693568
20
124.75826112584753
30
0
40
2.1249999999999947
210
0
220
0
230
1
0
CIRCLE
5
124
100
AcDbEntity
8
0
100
AcDbCircle
10
28.725892845175448
20
77.105372903092515
30
0
40
2.1249999999999991
210
0
220
0
230
1
0
LWPOLYLINE
5
125
100
AcDbEntity
8
0
100
AcDbPolyline
90
12
70
1
43
0.0
10
-95.414858792390206
20
152.37418471204097
42
0.41421356237310691
10
-97.164858792390191
20
150.624184712041
10
-97.164858792390177
20
78.624184712040957
42
0.41421356237310103
10
-95.414858792390206
20
76.874184712041
10
22.585141207609922
20
76.874184712040957
42
0.41421356237309132
10
24.335141207609915
20
78.624184712040957
10
24.335141207609944
20
104.62418471204097
10
30.28514120760989
20
104.62418471204097
10
30.2851412076099
20
122.124184712041
10
24.335141207609936
20
122.12418471204103
10
24.335141207609929
20
150.62418471204097
42
0.41421356237312851
10
22.585141207609905
20
152.37418471204109
0
CIRCLE
5
126
100
AcDbEntity
8
0
100
AcDbCircle
10
-102.6223260845515
20
-8.7461956394287199
30
0
40
1.9999999999999929
210
0
220
0
230
1
0
CIRCLE
5
127
100
AcDbEntity
8
0
100
AcDbCircle
10
-65.344039823561701
20
-31.374625726265563
30
0
40
2.5
210
0
220
0
230
1
0
CIRCLE
5
128
100
AcDbEntity
8
0
100
AcDbCircle
10
-103.73984179123346
20
124.75647660244952
30
0
40
2.1250000000000036
210
0
220
0
230
1
0
CIRCLE
5
129
100
AcDbEntity
8
0
100
AcDbCircle
10
-70.631300127229281
20
-41.719265450832559
30
0
40
2.5
210
0
220
0
230
1
0
CIRCLE
5
130
100
AcDbEntity
8
0
100
AcDbCircle
10
-65.822326084551435
20
41.503804360571266
30
0
40
2.0000000000000018
210
0
220
0
230
1
0
CIRCLE
5
131
100
AcDbEntity
8
0
100
AcDbCircle
10
-68.122326084551474
20
-1.9961956394287306
30
0
40
2.0000000000000018
210
0
220
0
230
1
0
ENDSEC
0
SECTION
2
OBJECTS
0
DICTIONARY
5
C
100
AcDbDictionary
3
ACAD_GROUP
350
D
3
ACAD_MLINESTYLE
350
17
0
DICTIONARY
5
D
100
AcDbDictionary
0
DICTIONARY
5
1A
330
C
100
AcDbDictionary
0
DICTIONARY
5
17
100
AcDbDictionary
0
ENDSEC
0
EOF
