<?xml version="1.0" encoding="UTF-8" standalone="no"?>
<svg xmlns="http://www.w3.org/2000/svg" xmlns:xlink="http://www.w3.org/1999/xlink" width="200.032mm" height="146.093mm" viewBox="27.984161 -168.046753 200.031647 146.093475">
    <circle transform="matrix(0.980416,-0.196938,-0.196938,-0.980416,41.642487,-163.15448)" style="stroke:#000000;stroke-width:0.050000mm;fill:none" r="3.175" cx="0" cy="0"/>
    <circle transform="matrix(0.980416,-0.196938,-0.196938,-0.980416,165.467422,-163.127289)" style="stroke:#000000;stroke-width:0.050000mm;fill:none" r="3.175" cx="0" cy="0"/>
    <circle transform="matrix(0.980416,-0.196938,-0.196938,-0.980416,213.092422,-163.116821)" style="stroke:#000000;stroke-width:0.050000mm;fill:none" r="3.175" cx="0" cy="0"/>
    <circle transform="matrix(0.980416,-0.196938,-0.196938,-0.980416,117.842506,-163.137756)" style="stroke:#000000;stroke-width:0.050000mm;fill:none" r="3.175" cx="0" cy="0"/>
    <circle transform="matrix(0.980416,-0.196938,-0.196938,-0.980416,213.062546,-26.845848)" style="stroke:#ff00ff;stroke-width:0.050000mm;fill:none" r="3.175" cx="0" cy="0"/>
    <circle transform="matrix(0.980416,-0.196938,-0.196938,-0.980416,41.612595,-26.883507)" style="stroke:#ff00ff;stroke-width:0.050000mm;fill:none" r="3.175" cx="0" cy="0"/>
    <circle transform="matrix(0.980416,-0.196938,-0.196938,-0.980416,165.437546,-26.856316)" style="stroke:#ff00ff;stroke-width:0.050000mm;fill:none" r="3.175" cx="0" cy="0"/>
    <circle transform="matrix(0.980416,-0.196938,-0.196938,-0.980416,117.812576,-26.866768)" style="stroke:#ff00ff;stroke-width:0.050000mm;fill:none" r="3.175" cx="0" cy="0"/>
    <path transform="matrix(0.980416,-0.196938,-0.196938,-0.980416,-338.315796,46.267708)" style="stroke:#000000;stroke-width:0.050000mm;fill:none" d="M563.799072,-31.349579L542.091125,-26.981985L541.992004,-26.963087C541.232361,-26.787251,540.434265,-26.912788,539.765198,-27.313221C539.134827,-27.773787,538.709167,-28.462563,538.579285,-29.232384L538.55835,-29.33131L537.732178,-33.437504L517.331177,-29.33485L515.370483,-28.940357L516.197021,-24.832245C516.210449,-24.766254,516.222351,-24.69997,516.232727,-24.63343C516.392273,-23.869707,516.239502,-23.073992,515.808289,-22.423754C515.319946,-21.815262,514.619507,-21.413715,513.847717,-21.299446L491.252838,-16.753395C490.711395,-16.644459,490.360779,-16.117229,490.469727,-15.575794L514.139221,102.066704C514.248169,102.608124,514.775391,102.958733,515.316833,102.8498L587.863037,88.253616C588.40448,88.144684,588.755066,87.617455,588.646118,87.076019L564.976624,-30.566471C564.867676,-31.107906,564.340454,-31.458515,563.799072,-31.349579z"/>
    <path transform="matrix(0.980416,-0.196938,-0.196938,-0.980416,-338.315796,46.267708)" style="stroke:#ff00ff;stroke-width:0.050000mm;fill:none" d="M396.152649,15.694732L409.165283,80.399223C410.036407,84.730759,414.253998,87.535995,418.585541,86.664902L446.526123,81.045807L447.314789,84.967293C447.96814,88.21595,451.131317,90.319885,454.379974,89.66655C457.628662,89.013214,459.732574,85.850021,459.079224,82.601364L458.290588,78.679878L486.231171,73.060783C490.562744,72.189674,493.367981,67.972076,492.496826,63.640526L479.484192,-1.063967C478.613068,-5.395507,474.395477,-8.200747,470.063934,-7.329646L442.123383,-1.710553L441.334717,-5.632038C440.681396,-8.880699,437.518219,-10.984623,434.269562,-10.331287C431.020874,-9.677954,428.916962,-6.514764,429.570282,-3.266104L430.358917,0.655381L402.418335,6.274474C398.086792,7.145595,395.281555,11.36318,396.152649,15.694732z"/>
    <path transform="matrix(0.980416,-0.196938,-0.196938,-0.980416,-338.315796,46.267708)" style="stroke:#000000;stroke-width:0.050000mm;fill:none" d="M597.241699,97.561653C597.350586,98.103111,596.999878,98.630325,596.458435,98.739182L402.344666,137.775604C401.803223,137.884476,401.276062,137.533798,401.167145,136.992371L372.767181,-4.230296C372.658295,-4.771734,373.008942,-5.298925,373.550385,-5.407823L567.664185,-44.444237C568.205627,-44.553116,568.732788,-44.202457,568.841675,-43.661018L597.241699,97.561653z"/>
</svg>
