0
SECTION
2
HEADER
9
$INSUNITS
70
4
9
$ACADVER
1
AC1014
9
$HANDSEED
5
FFFF
0
ENDSEC
0
SECTION
2
TABLES
0
TABLE
2
VPORT
5
8
100
AcDbSymbolTable
0
ENDTAB
0
TABLE
2
LTYPE
5
5
100
AcDbSymbolTable
0
LTYPE
5
14
100
AcDbSymbolTableRecord
100
AcDbLinetypeTableRecord
2
BYBLOCK
70
0
0
LTYPE
5
15
100
AcDbSymbolTableRecord
100
AcDbLinetypeTableRecord
2
BYLAYER
70
0
0
LTYPE
5
16
100
AcDbSymbolTableRecord
100
AcDbLinetypeTableRecord
2
DASHED
70
0
3
Dashed __ __ __ __ __ __ __ __ __ __ __ __ __ _
72
65
73
2
40
0.75
49
0.5
74
0
49
-0.25
74
0
0
ENDTAB
0
TABLE
2
LAYER
5
2
100
AcDbSymbolTable
70
2
0
LAYER
5
50
100
AcDbSymbolTableRecord
100
AcDbLayerTableRecord
2
0
70
0
62
7
6
CONTINUOUS
0
ENDTAB
0
TABLE
2
STYLE
5
3
100
AcDbSymbolTable
70
1
0
STYLE
5
11
100
AcDbSymbolTableRecord
100
AcDbTextStyleTableRecord
2
STANDARD
70
0
0
ENDTAB
0
TABLE
2
VIEW
5
6
100
AcDbSymbolTable
70
0
0
ENDTAB
0
TABLE
2
UCS
5
7
100
AcDbSymbolTable
70
0
0
ENDTAB
0
TABLE
2
APPID
5
9
100
AcDbSymbolTable
70
2
0
APPID
5
12
100
AcDbSymbolTableRecord
100
AcDbRegAppTableRecord
2
ACAD
70
0
0
ENDTAB
0
TABLE
2
DIMSTYLE
5
A
100
AcDbSymbolTable
70
1
0
ENDTAB
0
TABLE
2
BLOCK_RECORD
5
1
100
AcDbSymbolTable
70
1
0
BLOCK_RECORD
5
1F
100
AcDbSymbolTableRecord
100
AcDbBlockTableRecord
2
*MODEL_SPACE
0
BLOCK_RECORD
5
1B
100
AcDbSymbolTableRecord
100
AcDbBlockTableRecord
2
*PAPER_SPACE
0
ENDTAB
0
ENDSEC
0
SECTION
2
BLOCKS
0
BLOCK
5
20
100
AcDbEntity
100
AcDbBlockBegin
2
*MODEL_SPACE
0
ENDBLK
5
21
100
AcDbEntity
100
AcDbBlockEnd
0
BLOCK
5
1C
100
AcDbEntity
100
AcDbBlockBegin
2
*PAPER_SPACE
0
ENDBLK
5
1D
100
AcDbEntity
100
AcDbBlockEnd
0
ENDSEC
0
SECTION
2
ENTITIES
0
LWPOLYLINE
5
100
100
AcDbEntity
8
0
100
AcDbPolyline
90
8
70
1
43
0.0
10
-58.101766899973967
20
-42.839026542875722
42
0.62674717136863689
10
-58.101748288149501
20
-44.653373751480046
10
-58.101747010590124
20
-44.777914744257245
10
-40.101747011536943
20
-44.777730097763346
10
-40.101750051089937
20
-44.481423612823249
42
0.78527933049181819
10
-40.101767263658552
20
-42.803480920246102
10
-40.101890625474326
20
-30.777729955482613
10
-58.101890624527421
20
-30.77791460197642
0
LWPOLYLINE
5
101
100
AcDbEntity
8
0
100
AcDbPolyline
90
8
70
1
43
0.0
10
-58.10192323322363
20
-27.599102288731409
42
0.62662716057842494
10
-58.101904622953171
20
-29.413298008831759
10
-58.101902934294088
20
-29.57791453529812
10
-40.101902935240915
20
-29.577729888804313
10
-40.101906384725901
20
-29.241461756447706
42
0.78542996274120558
10
-40.101923598076503
20
-27.563442779829156
10
-40.102026032901023
20
-17.577729746418125
10
-58.102026031954196
20
-17.577914392912014
0
CIRCLE
5
102
100
AcDbEntity
8
0
100
AcDbCircle
10
-17.022326084551462
20
-28.506195639428718
30
0
40
0.50799999999999956
210
0
220
-0
230
1
0
CIRCLE
5
103
100
AcDbEntity
8
0
100
AcDbCircle
10
-17.022326084551462
20
-43.74619563942872
30
0
40
0.50799999999999956
210
0
220
-0
230
1
0
CIRCLE
5
104
100
AcDbEntity
8
0
100
AcDbCircle
10
-61.128037730535489
20
-18.876959070199927
30
0
40
2.0000000000000018
210
0
220
-0
230
1
0
CIRCLE
5
105
100
AcDbEntity
8
0
100
AcDbCircle
10
-102.6223260845515
20
-8.7461956394287199
30
0
40
1.9999999999999929
210
0
220
-0
230
1
0
LWPOLYLINE
5
106
100
AcDbEntity
8
0
100
AcDbPolyline
90
4
70
1
43
0.0
10
-74.897326084551452
20
1.0538043605712595
10
-98.352326084551464
20
1.0538043605712599
42
-0.99999999999999989
10
-98.352326084551464
20
5.0538043605712595
10
-74.897326084551452
20
5.0538043605712595
42
-0.99999999999999989
0
CIRCLE
5
107
100
AcDbEntity
8
0
100
AcDbCircle
10
-91.772326084551423
20
-1.6461956394287292
30
0
40
1.9999999999999929
210
0
220
-0
230
1
0
CIRCLE
5
108
100
AcDbEntity
8
0
100
AcDbCircle
10
-82.572326084551406
20
7.9038043605712716
30
0
40
1.9999999999999929
210
0
220
-0
230
1
0
CIRCLE
5
109
100
AcDbEntity
8
0
100
AcDbCircle
10
-65.822326084551435
20
41.503804360571266
30
0
40
2.0000000000000018
210
0
220
-0
230
1
0
CIRCLE
5
110
100
AcDbEntity
8
0
100
AcDbCircle
10
-107.42232608455154
20
41.753804360571266
30
0
40
2.0000000000000107
210
0
220
-0
230
1
0
CIRCLE
5
111
100
AcDbEntity
8
0
100
AcDbCircle
10
-79.184826084551503
20
30.353804360571264
30
0
40
1.9999999999999929
210
0
220
-0
230
1
0
CIRCLE
5
112
100
AcDbEntity
8
0
100
AcDbCircle
10
-80.484826084551457
20
41.60380436057126
30
0
40
1.9999999999999929
210
0
220
-0
230
1
0
CIRCLE
5
113
100
AcDbEntity
8
0
100
AcDbCircle
10
-94.509826084551491
20
30.553804360571277
30
0
40
1.9999999999999929
210
0
220
-0
230
1
0
CIRCLE
5
114
100
AcDbEntity
8
0
100
AcDbCircle
10
-97.072326084551435
20
-13.246195639428722
30
0
40
1.9999999999999929
210
0
220
-0
230
1
0
CIRCLE
5
115
100
AcDbEntity
8
0
100
AcDbCircle
10
-68.122326084551474
20
-1.9961956394287306
30
0
40
2.0000000000000018
210
0
220
-0
230
1
0
CIRCLE
5
116
100
AcDbEntity
8
0
100
AcDbCircle
10
-102.4723260845515
20
-31.99619563942872
30
0
40
1.9999999999999929
210
0
220
-0
230
1
0
LWPOLYLINE
5
117
100
AcDbEntity
8
0
100
AcDbPolyline
90
142
70
1
43
0.0
10
-69.776343932275068
20
0.39245527075344122
10
-69.776343932275097
20
26.647903605596774
42
-0.41314513419405319
10
-63.820174127233535
20
32.669639072760063
10
-60.466394987641728
20
32.694116859495644
10
-60.466909844936829
20
61.075885456416202
10
-60.455836539836426
20
61.514125213055806
10
-60.422267217920059
20
61.955695966378826
10
-60.36695070190855
20
62.391079729931661
10
-60.290423953366563
20
62.819649981140515
10
-60.193232695005548
20
63.240796887487932
10
-60.075928046040474
20
63.653918437224334
10
-59.939066231322187
20
64.058425206273625
10
-59.783206707441252
20
64.453740254642582
10
-59.608908607379249
20
64.839298055455373
10
-59.416728754004858
20
65.21454228711049
10
-59.207222860033006
20
65.578922232853486
10
-58.98094436356152
20
65.931897209156872
10
-58.73844031570178
20
66.27292977575766
10
-58.480254765585116
20
66.601487633741939
10
-58.206927675600568
20
66.917038762265591
10
-57.918996309253536
20
67.219050457666583
10
-57.616995259265771
20
67.506992541366316
10
-57.301453684815215
20
67.780330840495665
10
-56.972906134704182
20
68.038527738374611
10
-56.631883418194199
20
68.281042955520633
10
-56.278917384048853
20
68.507334971242315
10
-55.914545156029945
20
68.716852604418122
10
-55.539310563480697
20
68.909045585830086
10
-55.153759090429169
20
69.083357883378071
10
-54.758451384244928
20
69.239230382350584
10
-54.353951687101699
20
69.376106232370859
10
-53.94083779526688
20
69.493426036323186
10
-53.51969708573948
20
69.590632614761518
10
-53.091131344953098
20
69.667174840324137
10
-52.655752559587938
20
69.72250582914954
10
-52.214187481566512
20
69.756091245963404
10
-51.775952034841609
20
69.767180062582113
10
14.241528754480477
20
69.76837241996742
10
14.679764756344165
20
69.757299129716884
10
15.121333778358244
20
69.723730861513701
10
15.556714556845055
20
69.668414310953409
10
15.985284083255484
20
69.591888585706684
10
16.406428902037639
20
69.494697056465085
10
16.81954914854262
20
69.377392468781139
10
17.224054200152761
20
69.240530867183864
10
17.619368345959021
20
69.084672358592925
10
18.00492596775981
20
68.91037384783364
10
18.380167854387068
20
68.718194638556525
10
18.74454649757552
20
68.508691043923719
10
19.097522416675645
20
68.282411943062186
10
19.43855544194075
20
68.039907569052346
10
19.767111724603961
20
67.781722402775884
10
20.082662471021131
20
67.50839673102152
10
20.384674665395302
20
67.220464888964841
10
20.672616336985492
20
66.918464271208251
10
20.945954210451525
20
66.602924275461234
10
21.204152073087581
20
66.274376880864111
10
21.446669047493529
20
65.93335322202104
10
21.672961179525299
20
65.580385918645945
10
21.88247881177687
20
65.216014780272218
10
22.074671589306636
20
64.840779497507782
10
22.248984446474324
20
64.455229192926424
10
22.404858322687062
20
64.059920753328853
10
22.541734595627627
20
63.655419806360321
10
22.659054118085784
20
63.242304727716238
10
22.756261740328945
20
62.821164209871043
10
22.832803934709858
20
62.392596465403578
10
22.888135987239036
20
61.957217866706237
10
22.92172145738985
20
61.515649907696456
10
22.932810268459072
20
61.077413606962445
10
22.933313130004969
20
33.302815340863461
10
26.177428859020075
20
33.326492741686586
42
-0.99999999999999989
10
26.265009348210206
20
21.326812343529589
10
22.933531773726337
20
21.302497326294297
10
22.933545149469801
20
20.568667282725176
10
22.934076313797831
20
-7.9400629286665847
10
22.923001909331681
20
-8.3782998414891541
10
22.889431469176003
20
-8.8198688393795219
10
22.83411381205779
20
-9.2552497679790786
10
22.757585901851172
20
-9.6838182591570519
10
22.660393464528337
20
-10.104962297657043
10
22.543087697911723
20
-10.518081776010606
10
22.406225074432466
20
-10.922585543794014
10
22.250365467497055
20
-11.317899715257626
10
22.076066024941497
20
-11.703455903792761
10
21.883886607021921
20
-12.078697110423937
10
21.674380597348495
20
-12.443076170153816
10
21.448101580769546
20
-12.796049783577619
10
21.205596349585598
20
-13.137081398037813
10
20.947411130393697
20
-13.46563666117914
10
20.674084322444699
20
-13.781186377305939
10
20.386152434732445
20
-14.083197532800149
10
20.08415068905137
20
-14.371138156390593
10
19.768611083962561
20
-14.644474604590737
10
19.44006319137263
20
-14.902671771616124
10
19.099038422836472
20
-15.145187674597569
10
18.746071106481246
20
-15.371478727640611
10
18.381699928722
20
-15.580994669398788
10
18.006464974723659
20
-15.773187835943311
10
17.620912453909739
20
-15.947499027167433
10
17.22560585628645
20
-16.103371089026748
10
16.821104890933924
20
-16.240247368187461
10
16.407988962961497
20
-16.357566043695016
10
15.986849257786409
20
-16.454772390311533
10
15.558282358987938
20
-16.531314433655609
10
15.122903760291058
20
-16.586646486184971
10
14.681335801278452
20
-16.620231956335644
10
14.243099644265103
20
-16.631320763768226
10
-51.774378559034353
20
-16.632543129148843
10
-52.212613948149396
20
-16.621473074596825
10
-52.654183755691363
20
-16.587907002860454
10
-53.089566626007226
20
-16.532593724854696
10
-53.51813685912483
20
-16.456070049213277
10
-53.939283741025676
20
-16.358880721920958
10
-54.352404166733031
20
-16.241578259911602
10
-54.756910006637128
20
-16.104718936149258
10
-55.152226300379574
20
-15.948862185952819
10
-55.537783934450793
20
-15.774564757753076
10
-55.913027239520972
20
-15.582387554816492
10
-56.277407330086923
20
-15.372883753121512
10
-56.630383084826697
20
-15.146606932829902
10
-56.971416355457919
20
-14.904103471794938
10
-57.299974839155013
20
-14.645918517316153
10
-57.615526010070639
20
-14.372591390612614
10
-57.91753727134919
20
-14.084661525368901
10
-58.205480444242482
20
-13.782660472860069
10
-58.478819218897968
20
-13.467119436782156
10
-58.737015895477363
20
-13.138572168269558
10
-58.979533914385769
20
-12.797547481753995
10
-59.20582491984856
20
-12.44458023961506
10
-59.415343404178728
20
-12.080208422641361
10
-59.607536841158186
20
-11.704970764097958
10
-59.78184821415649
20
-11.319420247502162
10
-59.937723219300793
20
-10.924110615510116
10
-60.074598325114792
20
-10.519607724179078
10
-60.191918915806383
20
-10.106491626641784
10
-60.289125567870308
20
-9.6853473308668008
10
-60.365667548897228
20
-9.2567796918603769
10
-60.420999564991654
20
-8.821398112108632
10
-60.454584999905194
20
-8.3798284366510281
10
-60.465673803959305
20
-7.9415902665029803
10
-60.465824692453026
20
0.39245527075344122
0
ARC
5
118
100
AcDbEntity
8
0
100
AcDbCircle
10
-100.67790508455144
20
30.25381136057128
30
0
40
1.167262000000008
210
0
220
0
230
1
100
AcDbArc
50
-199.56538942747395
51
19.98963093954854
0
SPLINE
5
119
100
AcDbEntity
8
0
100
AcDbSpline
70
0
71
3
72
14
73
10
74
0
42
0.000000001
43
0.0000000001
44
0.0000000001
40
-3.1415926535897931
40
-3.1415926535897931
40
-3.1415926535897931
40
-3.1415926535897931
40
-2.0279167471318051
40
-2.0279167471318051
40
-2.0279167471318051
40
-0.88669869698103387
40
-0.88669869698103387
40
-0.88669869698103387
40
-0.18783209932642236
40
-0.18783209932642236
40
-0.18783209932642236
40
-0.18783209932642236
10
-100.70039876713112
20
42.083850106940808
30
0
10
-102.84248459453168
20
42.083828133128279
30
0
10
-104.93279925568403
20
40.782466067564883
30
0
10
-105.87822341164721
20
38.860304562102733
30
0
10
-106.84702870372293
20
36.890606382750818
30
0
10
-106.55947322893323
20
34.367940959556279
30
0
10
-105.17223417801972
20
32.666805330464989
30
0
10
-104.32270762565099
20
31.625052731919077
30
0
10
-103.0974270991439
20
30.895523793444461
30
0
10
-101.77776927944646
20
30.644706908947128
30
0
0
SPLINE
5
120
100
AcDbEntity
8
0
100
AcDbSpline
70
0
71
3
72
14
73
10
74
0
42
0.000000001
43
0.0000000001
44
0.0000000001
40
0.19521601281988513
40
0.19521601281988513
40
0.19521601281988513
40
0.19521601281988513
40
0.93360759900336676
40
0.93360759900336676
40
0.93360759900336676
40
2.336891004060309
40
2.336891004060309
40
2.336891004060309
40
3.1415926535897931
40
3.1415926535897931
40
3.1415926535897931
40
3.1415926535897931
10
-99.580965326441685
20
30.652839986525365
30
0
10
-98.190143472540143
20
30.92786793934328
30
0
10
-96.907241414389631
20
31.739041653698592
30
0
10
-96.062292219724213
20
32.880606711403622
30
0
10
-94.456500380845426
20
35.050105025367721
30
0
10
-94.670760257092127
20
38.369253058519107
30
0
10
-96.542156322527234
20
40.314289595848159
30
0
10
-97.615293434640037
20
41.429655247820861
30
0
10
-99.152605563787716
20
42.08386598441745
30
0
10
-100.70039876713112
20
42.083850106940808
30
0
0
ARC
5
121
100
AcDbEntity
8
0
100
AcDbCircle
10
-73.022326084551452
20
30.403804360571268
30
0
40
1.1672620000000034
210
0
220
0
230
1
100
AcDbArc
50
-195.29221447501672
51
15.265541177202211
0
SPLINE
5
122
100
AcDbEntity
8
0
100
AcDbSpline
70
0
71
3
72
27
73
23
74
0
42
0.000000001
43
0.0000000001
44
0.0000000001
40
3.3147449953537516
40
3.3147449953537516
40
3.3147449953537516
40
3.3147449953537516
40
3.3812107598045049
40
3.3812107598045049
40
3.5088382769398092
40
3.5088382769398092
40
3.6364657940586991
40
3.6364657940586991
40
3.6364657940586991
40
3.8618798428865708
40
3.8618798428865708
40
4.0872938943134409
40
4.0872938943134409
40
4.3127079477475565
40
4.3127079477475565
40
4.5381220014477002
40
4.5381220014477002
40
4.7635360535124578
40
4.7635360535124578
40
4.9889501029822965
40
4.9889501029822965
40
5.018761325645289
40
5.018761325645289
40
5.018761325645289
40
5.018761325645289
10
-73.020996352879834
20
42.141093046994136
30
0
10
-73.241681858546087
20
42.141090783171748
30
0
10
-73.462615501421368
20
42.128428687638518
30
0
10
-74.105324278029386
20
42.054229967184369
30
0
10
-74.521253510970112
20
41.958852081443261
30
0
10
-75.324554971000197
20
41.678401228409925
30
0
10
-75.709469203074917
20
41.494186403228071
30
0
10
-76.070623204809991
20
41.269343644439658
30
0
10
-76.708488671643408
20
40.872229309253939
30
0
10
-77.262690536722914
20
40.354322293970988
30
0
10
-78.141378349291784
20
39.13522576342946
30
0
10
-78.45746355983988
20
38.445691473226191
30
0
10
-78.807533610754916
20
36.984274479723325
30
0
10
-78.838171588284752
20
36.226363718005807
30
0
10
-78.607204406225605
20
34.741458720003294
30
0
10
-78.347807418324336
20
34.02866098413385
30
0
10
-77.570388007624985
20
32.742617540873894
30
0
10
-77.059798139833077
20
32.181667108505842
30
0
10
-75.852337226975607
20
31.287057261207437
30
0
10
-75.167010168765387
20
30.961950801637215
30
0
10
-74.34233670605424
20
30.752927392158675
30
0
10
-74.245503032685605
20
30.731031765144991
30
0
10
-74.148259132571283
20
30.711660347828641
30
0
0
SPLINE
5
123
100
AcDbEntity
8
0
100
AcDbSpline
70
0
71
3
72
22
73
18
74
0
42
0.000000001
43
0.0000000001
44
0.0000000001
40
5.2461284270310689
40
5.2461284270310689
40
5.2461284270310689
40
5.2461284270310689
40
5.4397781974776551
40
5.4397781974776551
40
5.6651922461474262
40
5.6651922461474262
40
5.8906062974008657
40
5.8906062974008657
40
6.1160203507462008
40
6.1160203507462008
40
6.341434404492901
40
6.341434404492901
40
6.5668484567133465
40
6.5668484567133465
40
6.7922625063582442
40
6.7922625063582442
40
6.9512107894124506
40
6.9512107894124506
40
6.9512107894124506
40
6.9512107894124506
10
-71.896249843043748
20
30.711136150374347
30
0
10
-71.264582668457905
20
30.836661354719478
30
0
10
-70.657598595728857
20
31.067216030587531
30
0
10
-69.452786722221134
20
31.774110930364664
30
0
10
-68.88518434407797
20
32.277295710749627
30
0
10
-67.974806525448088
20
33.472913060369223
30
0
10
-67.640734795583541
20
34.153914878333055
30
0
10
-67.252433487735672
20
35.605641698750233
30
0
10
-67.201916284315644
20
36.362487403027615
30
0
10
-67.39383570392242
20
37.852942242414059
30
0
10
-67.634437473312076
20
38.572301817608711
30
0
10
-68.37783962559692
20
39.878304084120302
30
0
10
-68.873532677131351
20
40.452460683112825
30
0
10
-70.05710057750278
20
41.378449702235393
30
0
10
-70.733659869693085
20
41.721429164961521
30
0
10
-71.966907159166766
20
42.068696334635916
30
0
10
-72.493242214934241
20
42.141098460768951
30
0
10
-73.020996352879834
20
42.141093046994136
30
0
0
LWPOLYLINE
5
124
100
AcDbEntity
8
0
100
AcDbPolyline
90
4
70
1
43
0.0
10
-95.422326084551443
20
47.103804360571274
10
-95.422326084551443
20
54.723804360571279
42
-0.99999999999999989
10
-91.422326084551457
20
54.723804360571279
10
-91.422326084551457
20
47.103804360571274
42
-0.99999999999999989
0
CIRCLE
5
125
100
AcDbEntity
8
0
100
AcDbCircle
10
18.377673915448547
20
-23.546195639428717
30
0
40
2.5
210
0
220
-0
230
1
0
LWPOLYLINE
5
126
100
AcDbEntity
8
0
100
AcDbPolyline
90
4
70
1
43
0.0
10
15.38405661086081
20
-18.271582178049314
10
15.38405661086081
20
-29.711379152936654
10
7.6068033314907568
20
-29.711379152936654
10
7.6068033314907568
20
-18.271582178049314
0
LWPOLYLINE
5
127
100
AcDbEntity
8
0
100
AcDbPolyline
90
4
70
1
43
0.0
10
-96.092326084551445
20
63.283804360571274
10
-96.092326084551445
20
65.823804360571273
42
-0.99999999999999989
10
-92.092326084551459
20
65.823804360571273
10
-92.092326084551459
20
63.283804360571274
42
-0.99999999999999989
0
CIRCLE
5
128
100
AcDbEntity
8
0
100
AcDbCircle
10
-68.591499084551458
20
59.456865360571257
30
0
40
2.5
210
0
220
-0
230
1
0
LWPOLYLINE
5
129
100
AcDbEntity
8
0
100
AcDbPolyline
90
4
70
1
43
0.0
10
23.485898445137941
20
44.363027263653862
10
28.803909618328202
20
44.363027263653862
10
28.803909618328202
20
34.002074460714219
10
23.485898445137941
20
34.002074460714219
0
CIRCLE
5
130
100
AcDbEntity
8
0
100
AcDbCircle
10
-37.522326084551452
20
-35.896195639428718
30
0
40
1.749999999999998
210
0
220
-0
230
1
0
LWPOLYLINE
5
131
100
AcDbEntity
8
0
100
AcDbPolyline
90
4
70
1
43
0.0
10
27.887011140191952
20
16.947762767379938
10
27.887011140191952
20
-1.848656034413223
10
23.485898445137941
20
-1.8486560344132221
10
23.485898445137941
20
16.947762767379938
0
LWPOLYLINE
5
132
100
AcDbEntity
8
0
100
AcDbPolyline
90
4
70
1
43
0.0
10
-88.296841096764481
20
37.080563897270729
10
-88.296841096764481
20
40.241923320247381
42
-0.99999999999999989
10
-84.296841096764496
20
40.241923320247381
10
-84.296841096764496
20
37.080563897270729
42
-0.99999999999999989
0
CIRCLE
5
133
100
AcDbEntity
8
0
100
AcDbCircle
10
25.434298915448544
20
48.865242360571273
30
0
40
1.749999999999998
210
0
220
-0
230
1
0
LWPOLYLINE
5
134
100
AcDbEntity
8
0
100
AcDbPolyline
90
5
70
1
43
0.0
10
9.4016046324675848
20
-42.779025379642604
10
9.4016046324675848
20
-40.322454367125935
10
9.4015067346523278
20
-30.779025236939518
10
27.401506733705286
20
-30.778840590445199
10
27.401629831365572
20
-42.778840732889947
0
LWPOLYLINE
5
135
100
AcDbEntity
8
0
100
AcDbPolyline
90
5
70
1
43
0.0
10
4.8982072879957617
20
-40.322454367125943
10
4.8982072879957617
20
-42.777268481891653
10
-13.101767529234824
20
-42.777453128127398
10
-13.101890626895019
20
-30.777452985741348
10
4.8981093721580793
20
-30.777268339247371
0
LWPOLYLINE
5
136
100
AcDbEntity
8
0
100
AcDbPolyline
90
4
70
1
43
0.0
10
-80.946531800213464
20
70.217545632874035
10
-68.246531800213447
20
70.217545632874035
42
-0.99999999999999989
10
-68.246531800213447
20
67.217545632874035
10
-80.946531800213464
20
67.217545632874035
42
-0.99999999999999989
0
LWPOLYLINE
5
137
100
AcDbEntity
8
0
100
AcDbPolyline
90
4
70
1
43
0.0
10
-80.946531800213464
20
49.897545632874042
10
-68.246531800213447
20
49.897545632874042
42
-0.99999999999999989
10
-68.246531800213447
20
46.897545632874028
10
-80.946531800213464
20
46.897545632874028
42
-0.99999999999999989
0
CIRCLE
5
138
100
AcDbEntity
8
0
100
AcDbCircle
10
-93.262414028905525
20
-41.066865891401193
30
0
40
2.5
210
0
220
-0
230
1
0
CIRCLE
5
139
100
AcDbEntity
8
0
100
AcDbCircle
10
-65.344039823561701
20
-31.374625726265563
30
0
40
2.5
210
0
220
-0
230
1
0
LWPOLYLINE
5
140
100
AcDbEntity
8
0
100
AcDbPolyline
90
4
70
1
43
0.0
10
-96.19653180021345
20
26.207545632874041
10
-79.746531800213447
20
26.207545632874059
42
-0.99999999999999989
10
-79.746531800213447
20
21.207545632874059
10
-96.19653180021345
20
21.207545632874041
42
-0.99999999999999989
0
CIRCLE
5
141
100
AcDbEntity
8
0
100
AcDbCircle
10
-87.390734154872263
20
63.511426020167143
30
0
40
2.5
210
0
220
-0
230
1
0
CIRCLE
5
142
100
AcDbEntity
8
0
100
AcDbCircle
10
-94.035671548646675
20
41.764953994966341
30
0
40
2.5
210
0
220
-0
230
1
0
CIRCLE
5
143
100
AcDbEntity
8
0
100
AcDbCircle
10
-70.871531800213447
20
-21.892454367125957
30
0
40
1.5875000000000039
210
0
220
-0
230
1
0
CIRCLE
5
144
100
AcDbEntity
8
0
100
AcDbCircle
10
-70.631300127229281
20
-41.719265450832559
30
0
40
2.5
210
0
220
-0
230
1
0
LWPOLYLINE
5
145
100
AcDbEntity
8
0
100
AcDbPolyline
90
4
70
1
43
0.0
10
-100.00531075386498
20
17.122546517087287
10
-91.012555881984767
20
17.122546517087279
42
-0.99999999999999989
10
-91.012555881984767
20
5.1225465170872821
10
-100.00531075386498
20
5.1225465170872786
42
-0.99999999999999989
0
LWPOLYLINE
5
146
100
AcDbEntity
8
0
100
AcDbPolyline
90
4
70
1
43
0.0
10
-82.574180996370359
20
65.652597936959168
10
-78.844592664989051
20
65.652597936959168
42
-0.99999999999999989
10
-78.844592664989051
20
62.652597936959154
10
-82.574180996370359
20
62.652597936959154
42
-0.99999999999999989
0
CIRCLE
5
147
100
AcDbEntity
8
0
100
AcDbCircle
10
-37.766531800213492
20
-43.642454367125943
30
0
40
0.86360000000000003
210
0
220
-0
230
1
0
ELLIPSE
5
148
100
AcDbEntity
8
0
100
AcDbEllipse
10
-80.400026084551399
20
-22.029295639428739
30
0
11
5.0287446046906565e-05
21
-4.9022000776420596
31
0.0
40
0.99999998410918023
41
0
42
6.2831853071795862
0
LWPOLYLINE
5
149
100
AcDbEntity
8
0
100
AcDbPolyline
90
6
70
1
43
0.0
10
-35.601922969353055
20
-27.624709916723347
42
0.62773111603322507
10
-35.601907012853871
20
-29.180206518993856
10
-35.601903961291569
20
-29.477683725596712
10
-17.601903962238477
20
-29.47749907910265
10
-17.602027059898766
20
-17.477498936716703
10
-35.602027058951947
20
-17.477683583210506
0
LWPOLYLINE
5
150
100
AcDbEntity
8
0
100
AcDbPolyline
90
4
70
1
43
0.0
10
-13.101903962475401
20
-29.477452917479134
10
-13.102027060135782
20
-17.477452775092924
10
4.8979729389173166
20
-17.477268128599203
10
4.8980960365776971
20
-29.477268270985071
0
LWPOLYLINE
5
151
100
AcDbEntity
8
0
100
AcDbPolyline
90
6
70
1
43
0.0
10
-35.601766636100301
20
-42.864634479274663
42
0.62787122566761144
10
-35.60175067805347
20
-44.420281953235161
10
-35.601747011773895
20
-44.777683936139745
10
-17.601747012720711
20
-44.777499289645689
10
-17.601890626658097
20
-30.777499147364956
10
-35.601890625711185
20
-30.777683793858849
0
CIRCLE
5
152
100
AcDbEntity
8
0
100
AcDbCircle
10
-37.766531800213492
20
-28.402454367125934
30
0
40
0.86360000000000003
210
0
220
-0
230
1
0
CIRCLE
5
153
100
AcDbEntity
8
0
100
AcDbCircle
10
30.810362333625747
20
139.6216140432208
30
0
40
2.2499999999999964
210
0
220
0
230
1
0
CIRCLE
5
154
100
AcDbEntity
8
0
100
AcDbCircle
10
-105.74675206998968
20
92.823316166224643
30
0
40
2.2499999999999964
210
0
220
0
230
1
0
CIRCLE
5
155
100
AcDbEntity
8
0
100
AcDbCircle
10
-105.67351325628273
20
-17.931954367128498
30
0
40
2.2499999999999964
210
0
220
0
230
1
0
CIRCLE
5
156
100
AcDbEntity
8
0
100
AcDbCircle
10
30.521746318088674
20
91.997481897584379
30
0
40
2.2499999999999964
210
0
220
0
230
1
0
CIRCLE
5
157
100
AcDbEntity
8
0
100
AcDbCircle
10
-105.74675206999021
20
139.6216140432208
30
0
40
2.2499999999999964
210
0
220
0
230
1
0
CIRCLE
5
158
100
AcDbEntity
8
0
100
AcDbCircle
10
30.597486743832576
20
-17.931954367128494
30
0
40
2.2500000000000009
210
0
220
0
230
1
0
CIRCLE
5
159
100
AcDbEntity
8
0
100
AcDbCircle
10
-103.73984179123346
20
124.75647660244952
30
0
40
2.1250000000000036
210
0
220
0
230
1
0
CIRCLE
5
160
100
AcDbEntity
8
0
100
AcDbCircle
10
28.725892845175448
20
77.105372903092515
30
0
40
2.1249999999999991
210
0
220
0
230
1
0
CIRCLE
5
161
100
AcDbEntity
8
0
100
AcDbCircle
10
-103.7180889640551
20
77.961131737190669
30
0
40
2.1250000000000036
210
0
220
0
230
1
0
CIRCLE
5
162
100
AcDbEntity
8
0
100
AcDbCircle
10
28.790278163693568
20
124.75826112584753
30
0
40
2.1249999999999947
210
0
220
0
230
1
0
LWPOLYLINE
5
163
100
AcDbEntity
8
0
100
AcDbPolyline
90
12
70
1
43
0.0
10
24.335141207609936
20
122.12418471204103
10
30.2851412076099
20
122.124184712041
10
30.28514120760989
20
104.62418471204097
10
24.335141207609944
20
104.62418471204097
10
24.335141207609915
20
78.624184712040972
42
-0.41421356237309132
10
22.585141207609922
20
76.874184712040957
10
-95.414858792390206
20
76.874184712041
42
-0.41421356237310542
10
-97.164858792390177
20
78.624184712040957
10
-97.164858792390191
20
150.624184712041
42
-0.41421356237310691
10
-95.414858792390206
20
152.37418471204097
10
22.585141207609905
20
152.37418471204109
42
-0.41421356237312701
10
24.335141207609929
20
150.62418471204097
0
LWPOLYLINE
5
164
100
AcDbEntity
8
0
100
AcDbPolyline
90
4
70
1
43
0.0
10
-109.84653180021347
20
-45.642454367125929
10
34.616468199786539
20
-45.642454367125929
10
34.616468199786539
20
154.35754563287406
10
-109.84653180021347
20
154.35754563287242
0
ENDSEC
0
SECTION
2
OBJECTS
0
DICTIONARY
5
C
100
AcDbDictionary
3
ACAD_GROUP
350
D
3
ACAD_MLINESTYLE
350
17
0
DICTIONARY
5
D
100
AcDbDictionary
0
DICTIONARY
5
1A
330
C
100
AcDbDictionary
0
DICTIONARY
5
17
100
AcDbDictionary
0
ENDSEC
0
EOF
