  0
SECTION
  2
HEADER
  9
$ANGBASE
  50
0.0
  9
$ANGDIR
  70
1
  9
$MEASUREMENT
  70
1
  0
ENDSEC
  0
SECTION
  2
TABLES
  0
TABLE
  2
LTYPE
  70
4
  0
LTYPE
  5
40F
  2
CONTINUOUS
  70
0
  3
Solid line
  72
65
  73
0
  40
0.0
  0
LTYPE
  5
410
  2
DASHDOT
 70
0
  3
Dash Dot ____ _ ____ _
 72
65
 73
4
 40
2.0
 49
1.25
 49
-0.25
 49
0.25
 49
-0.25
  0
LTYPE
  5
411
  2
DASHED
 70
0
  3
Dashed __ __ __ __ __
 72
65
 73
2
 40
0.75
 49
0.5
 49
-0.25
  0
LTYPE
  5
43B
  2
DOTTED
 70
0
  3
Dotted .  .  .  .
 72
65
 73
2
 40
0.2
 49
0.0
 49
-0.2
  0
ENDTAB
  0
TABLE
  2
STYLE
  70
4
  0
STYLE
  2
KICAD
  70
0
  40
0
  41
1
  42
1
  50
0
  71
0
  3
isocp.shx
  0
STYLE
  2
KICADB
  70
0
  40
0
  41
1
  42
1
  50
0
  71
0
  3
isocp.shx
  0
STYLE
  2
KICADI
  70
0
  40
0
  41
1
  42
1
  50
15
  71
0
  3
isocp.shx
  0
STYLE
  2
KICADBI
  70
0
  40
0
  41
1
  42
1
  50
15
  71
0
  3
isocp.shx
  0
ENDTAB
  0
TABLE
  2
LAYER
  70
1
  0
LAYER
  2
BLACK
  70
0
  62
7
  6
CONTINUOUS
  0
ENDTAB
  0
ENDSEC
  0
SECTION
  2
ENTITIES
0
LINE
8
BLACK
6
CONTINUOUS
10
115.443
20
-64.77
11
66.802
21
-64.77
0
LINE
8
BLACK
6
CONTINUOUS
10
66.802
20
-122.301
11
66.802
21
-64.77
0
LINE
8
BLACK
6
CONTINUOUS
10
115.443
20
-122.301
11
66.802
21
-122.301
0
LINE
8
BLACK
6
CONTINUOUS
10
115.443
20
-64.77
11
115.443
21
-122.301
0
LINE
8
BLACK
6
CONTINUOUS
10
79.045
20
-65.837
11
82.245
21
-69.037
0
LINE
8
BLACK
6
CONTINUOUS
10
82.245
20
-65.837
11
79.045
21
-69.037
0
LINE
8
BLACK
6
CONTINUOUS
10
79.045
20
-110.837
11
82.245
21
-114.037
0
LINE
8
BLACK
6
CONTINUOUS
10
82.245
20
-110.837
11
79.045
21
-114.037
0
LINE
8
BLACK
6
CONTINUOUS
10
109.045
20
-110.837
11
112.245
21
-114.037
0
LINE
8
BLACK
6
CONTINUOUS
10
112.245
20
-110.837
11
109.045
21
-114.037
0
LINE
8
BLACK
6
CONTINUOUS
10
109.045
20
-65.837
11
112.245
21
-69.037
0
LINE
8
BLACK
6
CONTINUOUS
10
112.245
20
-65.837
11
109.045
21
-69.037
0
LINE
8
BLACK
6
CONTINUOUS
10
69.6413
20
-126.983
11
69.6413
21
-123.983
0
LINE
8
BLACK
6
CONTINUOUS
10
69.6413
20
-123.983
11
70.3556
21
-123.983
0
LINE
8
BLACK
6
CONTINUOUS
10
70.3556
20
-123.983
11
70.7841
21
-124.126
0
LINE
8
BLACK
6
CONTINUOUS
10
70.7841
20
-124.126
11
71.0699
21
-124.412
0
LINE
8
BLACK
6
CONTINUOUS
10
71.0699
20
-124.412
11
71.2127
21
-124.697
0
LINE
8
BLACK
6
CONTINUOUS
10
71.2127
20
-124.697
11
71.3556
21
-125.269
0
LINE
8
BLACK
6
CONTINUOUS
10
71.3556
20
-125.269
11
71.3556
21
-125.697
0
LINE
8
BLACK
6
CONTINUOUS
10
71.3556
20
-125.697
11
71.2127
21
-126.269
0
LINE
8
BLACK
6
CONTINUOUS
10
71.2127
20
-126.269
11
71.0699
21
-126.555
0
LINE
8
BLACK
6
CONTINUOUS
10
71.0699
20
-126.555
11
70.7841
21
-126.84
0
LINE
8
BLACK
6
CONTINUOUS
10
70.7841
20
-126.84
11
70.3556
21
-126.983
0
LINE
8
BLACK
6
CONTINUOUS
10
70.3556
20
-126.983
11
69.6413
21
-126.983
0
LINE
8
BLACK
6
CONTINUOUS
10
72.6413
20
-126.983
11
72.6413
21
-124.983
0
LINE
8
BLACK
6
CONTINUOUS
10
72.6413
20
-125.555
11
72.7841
21
-125.269
0
LINE
8
BLACK
6
CONTINUOUS
10
72.7841
20
-125.269
11
72.927
21
-125.126
0
LINE
8
BLACK
6
CONTINUOUS
10
72.927
20
-125.126
11
73.2127
21
-124.983
0
LINE
8
BLACK
6
CONTINUOUS
10
73.2127
20
-124.983
11
73.4984
21
-124.983
0
LINE
8
BLACK
6
CONTINUOUS
10
74.4984
20
-126.983
11
74.4984
21
-124.983
0
LINE
8
BLACK
6
CONTINUOUS
10
74.4984
20
-123.983
11
74.3556
21
-124.126
0
LINE
8
BLACK
6
CONTINUOUS
10
74.3556
20
-124.126
11
74.4984
21
-124.269
0
LINE
8
BLACK
6
CONTINUOUS
10
74.4984
20
-124.269
11
74.6413
21
-124.126
0
LINE
8
BLACK
6
CONTINUOUS
10
74.6413
20
-124.126
11
74.4984
21
-123.983
0
LINE
8
BLACK
6
CONTINUOUS
10
74.4984
20
-123.983
11
74.4984
21
-124.269
0
LINE
8
BLACK
6
CONTINUOUS
10
76.3556
20
-126.983
11
76.0699
21
-126.84
0
LINE
8
BLACK
6
CONTINUOUS
10
76.0699
20
-126.84
11
75.927
21
-126.555
0
LINE
8
BLACK
6
CONTINUOUS
10
75.927
20
-126.555
11
75.927
21
-123.983
0
LINE
8
BLACK
6
CONTINUOUS
10
77.927
20
-126.983
11
77.6413
21
-126.84
0
LINE
8
BLACK
6
CONTINUOUS
10
77.6413
20
-126.84
11
77.4984
21
-126.555
0
LINE
8
BLACK
6
CONTINUOUS
10
77.4984
20
-126.555
11
77.4984
21
-123.983
0
LINE
8
BLACK
6
CONTINUOUS
10
81.3556
20
-126.983
11
81.3556
21
-123.983
0
LINE
8
BLACK
6
CONTINUOUS
10
81.3556
20
-123.983
11
82.3556
21
-126.126
0
LINE
8
BLACK
6
CONTINUOUS
10
82.3556
20
-126.126
11
83.3556
21
-123.983
0
LINE
8
BLACK
6
CONTINUOUS
10
83.3556
20
-123.983
11
83.3556
21
-126.983
0
LINE
8
BLACK
6
CONTINUOUS
10
86.0699
20
-126.983
11
86.0699
21
-125.412
0
LINE
8
BLACK
6
CONTINUOUS
10
86.0699
20
-125.412
11
85.927
21
-125.126
0
LINE
8
BLACK
6
CONTINUOUS
10
85.927
20
-125.126
11
85.6413
21
-124.983
0
LINE
8
BLACK
6
CONTINUOUS
10
85.6413
20
-124.983
11
85.0699
21
-124.983
0
LINE
8
BLACK
6
CONTINUOUS
10
85.0699
20
-124.983
11
84.7841
21
-125.126
0
LINE
8
BLACK
6
CONTINUOUS
10
86.0699
20
-126.84
11
85.7841
21
-126.983
0
LINE
8
BLACK
6
CONTINUOUS
10
85.7841
20
-126.983
11
85.0699
21
-126.983
0
LINE
8
BLACK
6
CONTINUOUS
10
85.0699
20
-126.983
11
84.7841
21
-126.84
0
LINE
8
BLACK
6
CONTINUOUS
10
84.7841
20
-126.84
11
84.6413
21
-126.555
0
LINE
8
BLACK
6
CONTINUOUS
10
84.6413
20
-126.555
11
84.6413
21
-126.269
0
LINE
8
BLACK
6
CONTINUOUS
10
84.6413
20
-126.269
11
84.7841
21
-125.983
0
LINE
8
BLACK
6
CONTINUOUS
10
84.7841
20
-125.983
11
85.0699
21
-125.84
0
LINE
8
BLACK
6
CONTINUOUS
10
85.0699
20
-125.84
11
85.7841
21
-125.84
0
LINE
8
BLACK
6
CONTINUOUS
10
85.7841
20
-125.84
11
86.0699
21
-125.697
0
LINE
8
BLACK
6
CONTINUOUS
10
87.4984
20
-124.983
11
87.4984
21
-127.983
0
LINE
8
BLACK
6
CONTINUOUS
10
87.4984
20
-125.126
11
87.7841
21
-124.983
0
LINE
8
BLACK
6
CONTINUOUS
10
87.7841
20
-124.983
11
88.3556
21
-124.983
0
LINE
8
BLACK
6
CONTINUOUS
10
88.3556
20
-124.983
11
88.6413
21
-125.126
0
LINE
8
BLACK
6
CONTINUOUS
10
88.6413
20
-125.126
11
88.7841
21
-125.269
0
LINE
8
BLACK
6
CONTINUOUS
10
88.7841
20
-125.269
11
88.927
21
-125.555
0
LINE
8
BLACK
6
CONTINUOUS
10
88.927
20
-125.555
11
88.927
21
-126.412
0
LINE
8
BLACK
6
CONTINUOUS
10
88.927
20
-126.412
11
88.7841
21
-126.697
0
LINE
8
BLACK
6
CONTINUOUS
10
88.7841
20
-126.697
11
88.6413
21
-126.84
0
LINE
8
BLACK
6
CONTINUOUS
10
88.6413
20
-126.84
11
88.3556
21
-126.983
0
LINE
8
BLACK
6
CONTINUOUS
10
88.3556
20
-126.983
11
87.7841
21
-126.983
0
LINE
8
BLACK
6
CONTINUOUS
10
87.7841
20
-126.983
11
87.4984
21
-126.84
0
LINE
8
BLACK
6
CONTINUOUS
10
90.2127
20
-126.697
11
90.3556
21
-126.84
0
LINE
8
BLACK
6
CONTINUOUS
10
90.3556
20
-126.84
11
90.2127
21
-126.983
0
LINE
8
BLACK
6
CONTINUOUS
10
90.2127
20
-126.983
11
90.0699
21
-126.84
0
LINE
8
BLACK
6
CONTINUOUS
10
90.0699
20
-126.84
11
90.2127
21
-126.697
0
LINE
8
BLACK
6
CONTINUOUS
10
90.2127
20
-126.697
11
90.2127
21
-126.983
0
LINE
8
BLACK
6
CONTINUOUS
10
90.2127
20
-125.126
11
90.3556
21
-125.269
0
LINE
8
BLACK
6
CONTINUOUS
10
90.3556
20
-125.269
11
90.2127
21
-125.412
0
LINE
8
BLACK
6
CONTINUOUS
10
90.2127
20
-125.412
11
90.0699
21
-125.269
0
LINE
8
BLACK
6
CONTINUOUS
10
90.0699
20
-125.269
11
90.2127
21
-125.126
0
LINE
8
BLACK
6
CONTINUOUS
10
90.2127
20
-125.126
11
90.2127
21
-125.412
0
LINE
8
BLACK
6
CONTINUOUS
10
63.577
20
-130.326
11
66.777
21
-133.526
0
LINE
8
BLACK
6
CONTINUOUS
10
66.777
20
-130.326
11
63.577
21
-133.526
0
LINE
8
BLACK
6
CONTINUOUS
10
69.3556
20
-130.283
11
71.2127
21
-130.283
0
LINE
8
BLACK
6
CONTINUOUS
10
71.2127
20
-130.283
11
70.2127
21
-131.426
0
LINE
8
BLACK
6
CONTINUOUS
10
70.2127
20
-131.426
11
70.6413
21
-131.426
0
LINE
8
BLACK
6
CONTINUOUS
10
70.6413
20
-131.426
11
70.927
21
-131.569
0
LINE
8
BLACK
6
CONTINUOUS
10
70.927
20
-131.569
11
71.0699
21
-131.712
0
LINE
8
BLACK
6
CONTINUOUS
10
71.0699
20
-131.712
11
71.2127
21
-131.997
0
LINE
8
BLACK
6
CONTINUOUS
10
71.2127
20
-131.997
11
71.2127
21
-132.712
0
LINE
8
BLACK
6
CONTINUOUS
10
71.2127
20
-132.712
11
71.0699
21
-132.997
0
LINE
8
BLACK
6
CONTINUOUS
10
71.0699
20
-132.997
11
70.927
21
-133.14
0
LINE
8
BLACK
6
CONTINUOUS
10
70.927
20
-133.14
11
70.6413
21
-133.283
0
LINE
8
BLACK
6
CONTINUOUS
10
70.6413
20
-133.283
11
69.7841
21
-133.283
0
LINE
8
BLACK
6
CONTINUOUS
10
69.7841
20
-133.283
11
69.4984
21
-133.14
0
LINE
8
BLACK
6
CONTINUOUS
10
69.4984
20
-133.14
11
69.3556
21
-132.997
0
LINE
8
BLACK
6
CONTINUOUS
10
72.4984
20
-132.997
11
72.6413
21
-133.14
0
LINE
8
BLACK
6
CONTINUOUS
10
72.6413
20
-133.14
11
72.4984
21
-133.283
0
LINE
8
BLACK
6
CONTINUOUS
10
72.4984
20
-133.283
11
72.3556
21
-133.14
0
LINE
8
BLACK
6
CONTINUOUS
10
72.3556
20
-133.14
11
72.4984
21
-132.997
0
LINE
8
BLACK
6
CONTINUOUS
10
72.4984
20
-132.997
11
72.4984
21
-133.283
0
LINE
8
BLACK
6
CONTINUOUS
10
73.7841
20
-130.569
11
73.927
21
-130.426
0
LINE
8
BLACK
6
CONTINUOUS
10
73.927
20
-130.426
11
74.2127
21
-130.283
0
LINE
8
BLACK
6
CONTINUOUS
10
74.2127
20
-130.283
11
74.927
21
-130.283
0
LINE
8
BLACK
6
CONTINUOUS
10
74.927
20
-130.283
11
75.2127
21
-130.426
0
LINE
8
BLACK
6
CONTINUOUS
10
75.2127
20
-130.426
11
75.3556
21
-130.569
0
LINE
8
BLACK
6
CONTINUOUS
10
75.3556
20
-130.569
11
75.4984
21
-130.855
0
LINE
8
BLACK
6
CONTINUOUS
10
75.4984
20
-130.855
11
75.4984
21
-131.14
0
LINE
8
BLACK
6
CONTINUOUS
10
75.4984
20
-131.14
11
75.3556
21
-131.569
0
LINE
8
BLACK
6
CONTINUOUS
10
75.3556
20
-131.569
11
73.6413
21
-133.283
0
LINE
8
BLACK
6
CONTINUOUS
10
73.6413
20
-133.283
11
75.4984
21
-133.283
0
LINE
8
BLACK
6
CONTINUOUS
10
77.3556
20
-130.283
11
77.6413
21
-130.283
0
LINE
8
BLACK
6
CONTINUOUS
10
77.6413
20
-130.283
11
77.927
21
-130.426
0
LINE
8
BLACK
6
CONTINUOUS
10
77.927
20
-130.426
11
78.0699
21
-130.569
0
LINE
8
BLACK
6
CONTINUOUS
10
78.0699
20
-130.569
11
78.2127
21
-130.855
0
LINE
8
BLACK
6
CONTINUOUS
10
78.2127
20
-130.855
11
78.3556
21
-131.426
0
LINE
8
BLACK
6
CONTINUOUS
10
78.3556
20
-131.426
11
78.3556
21
-132.14
0
LINE
8
BLACK
6
CONTINUOUS
10
78.3556
20
-132.14
11
78.2127
21
-132.712
0
LINE
8
BLACK
6
CONTINUOUS
10
78.2127
20
-132.712
11
78.0699
21
-132.997
0
LINE
8
BLACK
6
CONTINUOUS
10
78.0699
20
-132.997
11
77.927
21
-133.14
0
LINE
8
BLACK
6
CONTINUOUS
10
77.927
20
-133.14
11
77.6413
21
-133.283
0
LINE
8
BLACK
6
CONTINUOUS
10
77.6413
20
-133.283
11
77.3556
21
-133.283
0
LINE
8
BLACK
6
CONTINUOUS
10
77.3556
20
-133.283
11
77.0699
21
-133.14
0
LINE
8
BLACK
6
CONTINUOUS
10
77.0699
20
-133.14
11
76.927
21
-132.997
0
LINE
8
BLACK
6
CONTINUOUS
10
76.927
20
-132.997
11
76.7841
21
-132.712
0
LINE
8
BLACK
6
CONTINUOUS
10
76.7841
20
-132.712
11
76.6413
21
-132.14
0
LINE
8
BLACK
6
CONTINUOUS
10
76.6413
20
-132.14
11
76.6413
21
-131.426
0
LINE
8
BLACK
6
CONTINUOUS
10
76.6413
20
-131.426
11
76.7841
21
-130.855
0
LINE
8
BLACK
6
CONTINUOUS
10
76.7841
20
-130.855
11
76.927
21
-130.569
0
LINE
8
BLACK
6
CONTINUOUS
10
76.927
20
-130.569
11
77.0699
21
-130.426
0
LINE
8
BLACK
6
CONTINUOUS
10
77.0699
20
-130.426
11
77.3556
21
-130.283
0
LINE
8
BLACK
6
CONTINUOUS
10
79.6413
20
-133.283
11
79.6413
21
-131.283
0
LINE
8
BLACK
6
CONTINUOUS
10
79.6413
20
-131.569
11
79.7841
21
-131.426
0
LINE
8
BLACK
6
CONTINUOUS
10
79.7841
20
-131.426
11
80.0699
21
-131.283
0
LINE
8
BLACK
6
CONTINUOUS
10
80.0699
20
-131.283
11
80.4984
21
-131.283
0
LINE
8
BLACK
6
CONTINUOUS
10
80.4984
20
-131.283
11
80.7841
21
-131.426
0
LINE
8
BLACK
6
CONTINUOUS
10
80.7841
20
-131.426
11
80.927
21
-131.712
0
LINE
8
BLACK
6
CONTINUOUS
10
80.927
20
-131.712
11
80.927
21
-133.283
0
LINE
8
BLACK
6
CONTINUOUS
10
80.927
20
-131.712
11
81.0699
21
-131.426
0
LINE
8
BLACK
6
CONTINUOUS
10
81.0699
20
-131.426
11
81.3556
21
-131.283
0
LINE
8
BLACK
6
CONTINUOUS
10
81.3556
20
-131.283
11
81.7841
21
-131.283
0
LINE
8
BLACK
6
CONTINUOUS
10
81.7841
20
-131.283
11
82.0699
21
-131.426
0
LINE
8
BLACK
6
CONTINUOUS
10
82.0699
20
-131.426
11
82.2127
21
-131.712
0
LINE
8
BLACK
6
CONTINUOUS
10
82.2127
20
-131.712
11
82.2127
21
-133.283
0
LINE
8
BLACK
6
CONTINUOUS
10
83.6413
20
-133.283
11
83.6413
21
-131.283
0
LINE
8
BLACK
6
CONTINUOUS
10
83.6413
20
-131.569
11
83.7841
21
-131.426
0
LINE
8
BLACK
6
CONTINUOUS
10
83.7841
20
-131.426
11
84.0699
21
-131.283
0
LINE
8
BLACK
6
CONTINUOUS
10
84.0699
20
-131.283
11
84.4984
21
-131.283
0
LINE
8
BLACK
6
CONTINUOUS
10
84.4984
20
-131.283
11
84.7841
21
-131.426
0
LINE
8
BLACK
6
CONTINUOUS
10
84.7841
20
-131.426
11
84.927
21
-131.712
0
LINE
8
BLACK
6
CONTINUOUS
10
84.927
20
-131.712
11
84.927
21
-133.283
0
LINE
8
BLACK
6
CONTINUOUS
10
84.927
20
-131.712
11
85.0699
21
-131.426
0
LINE
8
BLACK
6
CONTINUOUS
10
85.0699
20
-131.426
11
85.3556
21
-131.283
0
LINE
8
BLACK
6
CONTINUOUS
10
85.3556
20
-131.283
11
85.7841
21
-131.283
0
LINE
8
BLACK
6
CONTINUOUS
10
85.7841
20
-131.283
11
86.0699
21
-131.426
0
LINE
8
BLACK
6
CONTINUOUS
10
86.0699
20
-131.426
11
86.2127
21
-131.712
0
LINE
8
BLACK
6
CONTINUOUS
10
86.2127
20
-131.712
11
86.2127
21
-133.283
0
LINE
8
BLACK
6
CONTINUOUS
10
92.0699
20
-130.14
11
89.4984
21
-133.997
0
LINE
8
BLACK
6
CONTINUOUS
10
95.927
20
-130.283
11
96.2127
21
-130.283
0
LINE
8
BLACK
6
CONTINUOUS
10
96.2127
20
-130.283
11
96.4984
21
-130.426
0
LINE
8
BLACK
6
CONTINUOUS
10
96.4984
20
-130.426
11
96.6413
21
-130.569
0
LINE
8
BLACK
6
CONTINUOUS
10
96.6413
20
-130.569
11
96.7841
21
-130.855
0
LINE
8
BLACK
6
CONTINUOUS
10
96.7841
20
-130.855
11
96.927
21
-131.426
0
LINE
8
BLACK
6
CONTINUOUS
10
96.927
20
-131.426
11
96.927
21
-132.14
0
LINE
8
BLACK
6
CONTINUOUS
10
96.927
20
-132.14
11
96.7841
21
-132.712
0
LINE
8
BLACK
6
CONTINUOUS
10
96.7841
20
-132.712
11
96.6413
21
-132.997
0
LINE
8
BLACK
6
CONTINUOUS
10
96.6413
20
-132.997
11
96.4984
21
-133.14
0
LINE
8
BLACK
6
CONTINUOUS
10
96.4984
20
-133.14
11
96.2127
21
-133.283
0
LINE
8
BLACK
6
CONTINUOUS
10
96.2127
20
-133.283
11
95.927
21
-133.283
0
LINE
8
BLACK
6
CONTINUOUS
10
95.927
20
-133.283
11
95.6413
21
-133.14
0
LINE
8
BLACK
6
CONTINUOUS
10
95.6413
20
-133.14
11
95.4984
21
-132.997
0
LINE
8
BLACK
6
CONTINUOUS
10
95.4984
20
-132.997
11
95.3556
21
-132.712
0
LINE
8
BLACK
6
CONTINUOUS
10
95.3556
20
-132.712
11
95.2127
21
-132.14
0
LINE
8
BLACK
6
CONTINUOUS
10
95.2127
20
-132.14
11
95.2127
21
-131.426
0
LINE
8
BLACK
6
CONTINUOUS
10
95.2127
20
-131.426
11
95.3556
21
-130.855
0
LINE
8
BLACK
6
CONTINUOUS
10
95.3556
20
-130.855
11
95.4984
21
-130.569
0
LINE
8
BLACK
6
CONTINUOUS
10
95.4984
20
-130.569
11
95.6413
21
-130.426
0
LINE
8
BLACK
6
CONTINUOUS
10
95.6413
20
-130.426
11
95.927
21
-130.283
0
LINE
8
BLACK
6
CONTINUOUS
10
98.2127
20
-132.997
11
98.3556
21
-133.14
0
LINE
8
BLACK
6
CONTINUOUS
10
98.3556
20
-133.14
11
98.2127
21
-133.283
0
LINE
8
BLACK
6
CONTINUOUS
10
98.2127
20
-133.283
11
98.0699
21
-133.14
0
LINE
8
BLACK
6
CONTINUOUS
10
98.0699
20
-133.14
11
98.2127
21
-132.997
0
LINE
8
BLACK
6
CONTINUOUS
10
98.2127
20
-132.997
11
98.2127
21
-133.283
0
LINE
8
BLACK
6
CONTINUOUS
10
101.213
20
-133.283
11
99.4984
21
-133.283
0
LINE
8
BLACK
6
CONTINUOUS
10
100.356
20
-133.283
11
100.356
21
-130.283
0
LINE
8
BLACK
6
CONTINUOUS
10
100.356
20
-130.283
11
100.07
21
-130.712
0
LINE
8
BLACK
6
CONTINUOUS
10
100.07
20
-130.712
11
99.7841
21
-130.997
0
LINE
8
BLACK
6
CONTINUOUS
10
99.7841
20
-130.997
11
99.4984
21
-131.14
0
LINE
8
BLACK
6
CONTINUOUS
10
102.356
20
-130.569
11
102.498
21
-130.426
0
LINE
8
BLACK
6
CONTINUOUS
10
102.498
20
-130.426
11
102.784
21
-130.283
0
LINE
8
BLACK
6
CONTINUOUS
10
102.784
20
-130.283
11
103.498
21
-130.283
0
LINE
8
BLACK
6
CONTINUOUS
10
103.498
20
-130.283
11
103.784
21
-130.426
0
LINE
8
BLACK
6
CONTINUOUS
10
103.784
20
-130.426
11
103.927
21
-130.569
0
LINE
8
BLACK
6
CONTINUOUS
10
103.927
20
-130.569
11
104.07
21
-130.855
0
LINE
8
BLACK
6
CONTINUOUS
10
104.07
20
-130.855
11
104.07
21
-131.14
0
LINE
8
BLACK
6
CONTINUOUS
10
104.07
20
-131.14
11
103.927
21
-131.569
0
LINE
8
BLACK
6
CONTINUOUS
10
103.927
20
-131.569
11
102.213
21
-133.283
0
LINE
8
BLACK
6
CONTINUOUS
10
102.213
20
-133.283
11
104.07
21
-133.283
0
LINE
8
BLACK
6
CONTINUOUS
10
106.641
20
-130.283
11
106.07
21
-130.283
0
LINE
8
BLACK
6
CONTINUOUS
10
106.07
20
-130.283
11
105.784
21
-130.426
0
LINE
8
BLACK
6
CONTINUOUS
10
105.784
20
-130.426
11
105.641
21
-130.569
0
LINE
8
BLACK
6
CONTINUOUS
10
105.641
20
-130.569
11
105.356
21
-130.997
0
LINE
8
BLACK
6
CONTINUOUS
10
105.356
20
-130.997
11
105.213
21
-131.569
0
LINE
8
BLACK
6
CONTINUOUS
10
105.213
20
-131.569
11
105.213
21
-132.712
0
LINE
8
BLACK
6
CONTINUOUS
10
105.213
20
-132.712
11
105.356
21
-132.997
0
LINE
8
BLACK
6
CONTINUOUS
10
105.356
20
-132.997
11
105.498
21
-133.14
0
LINE
8
BLACK
6
CONTINUOUS
10
105.498
20
-133.14
11
105.784
21
-133.283
0
LINE
8
BLACK
6
CONTINUOUS
10
105.784
20
-133.283
11
106.356
21
-133.283
0
LINE
8
BLACK
6
CONTINUOUS
10
106.356
20
-133.283
11
106.641
21
-133.14
0
LINE
8
BLACK
6
CONTINUOUS
10
106.641
20
-133.14
11
106.784
21
-132.997
0
LINE
8
BLACK
6
CONTINUOUS
10
106.784
20
-132.997
11
106.927
21
-132.712
0
LINE
8
BLACK
6
CONTINUOUS
10
106.927
20
-132.712
11
106.927
21
-131.997
0
LINE
8
BLACK
6
CONTINUOUS
10
106.927
20
-131.997
11
106.784
21
-131.712
0
LINE
8
BLACK
6
CONTINUOUS
10
106.784
20
-131.712
11
106.641
21
-131.569
0
LINE
8
BLACK
6
CONTINUOUS
10
106.641
20
-131.569
11
106.356
21
-131.426
0
LINE
8
BLACK
6
CONTINUOUS
10
106.356
20
-131.426
11
105.784
21
-131.426
0
LINE
8
BLACK
6
CONTINUOUS
10
105.784
20
-131.426
11
105.498
21
-131.569
0
LINE
8
BLACK
6
CONTINUOUS
10
105.498
20
-131.569
11
105.356
21
-131.712
0
LINE
8
BLACK
6
CONTINUOUS
10
105.356
20
-131.712
11
105.213
21
-131.997
0
LINE
8
BLACK
6
CONTINUOUS
10
108.07
20
-130.283
11
108.07
21
-130.855
0
LINE
8
BLACK
6
CONTINUOUS
10
109.213
20
-130.283
11
109.213
21
-130.855
0
LINE
8
BLACK
6
CONTINUOUS
10
113.641
20
-134.426
11
113.498
21
-134.283
0
LINE
8
BLACK
6
CONTINUOUS
10
113.498
20
-134.283
11
113.213
21
-133.855
0
LINE
8
BLACK
6
CONTINUOUS
10
113.213
20
-133.855
11
113.07
21
-133.569
0
LINE
8
BLACK
6
CONTINUOUS
10
113.07
20
-133.569
11
112.927
21
-133.14
0
LINE
8
BLACK
6
CONTINUOUS
10
112.927
20
-133.14
11
112.784
21
-132.426
0
LINE
8
BLACK
6
CONTINUOUS
10
112.784
20
-132.426
11
112.784
21
-131.855
0
LINE
8
BLACK
6
CONTINUOUS
10
112.784
20
-131.855
11
112.927
21
-131.14
0
LINE
8
BLACK
6
CONTINUOUS
10
112.927
20
-131.14
11
113.07
21
-130.712
0
LINE
8
BLACK
6
CONTINUOUS
10
113.07
20
-130.712
11
113.213
21
-130.426
0
LINE
8
BLACK
6
CONTINUOUS
10
113.213
20
-130.426
11
113.498
21
-129.997
0
LINE
8
BLACK
6
CONTINUOUS
10
113.498
20
-129.997
11
113.641
21
-129.855
0
LINE
8
BLACK
6
CONTINUOUS
10
116.07
20
-131.283
11
116.07
21
-133.283
0
LINE
8
BLACK
6
CONTINUOUS
10
115.356
20
-130.14
11
114.641
21
-132.283
0
LINE
8
BLACK
6
CONTINUOUS
10
114.641
20
-132.283
11
116.498
21
-132.283
0
LINE
8
BLACK
6
CONTINUOUS
10
119.927
20
-133.283
11
119.927
21
-130.283
0
LINE
8
BLACK
6
CONTINUOUS
10
121.213
20
-133.283
11
121.213
21
-131.712
0
LINE
8
BLACK
6
CONTINUOUS
10
121.213
20
-131.712
11
121.07
21
-131.426
0
LINE
8
BLACK
6
CONTINUOUS
10
121.07
20
-131.426
11
120.784
21
-131.283
0
LINE
8
BLACK
6
CONTINUOUS
10
120.784
20
-131.283
11
120.356
21
-131.283
0
LINE
8
BLACK
6
CONTINUOUS
10
120.356
20
-131.283
11
120.07
21
-131.426
0
LINE
8
BLACK
6
CONTINUOUS
10
120.07
20
-131.426
11
119.927
21
-131.569
0
LINE
8
BLACK
6
CONTINUOUS
10
123.07
20
-133.283
11
122.784
21
-133.14
0
LINE
8
BLACK
6
CONTINUOUS
10
122.784
20
-133.14
11
122.641
21
-132.997
0
LINE
8
BLACK
6
CONTINUOUS
10
122.641
20
-132.997
11
122.498
21
-132.712
0
LINE
8
BLACK
6
CONTINUOUS
10
122.498
20
-132.712
11
122.498
21
-131.855
0
LINE
8
BLACK
6
CONTINUOUS
10
122.498
20
-131.855
11
122.641
21
-131.569
0
LINE
8
BLACK
6
CONTINUOUS
10
122.641
20
-131.569
11
122.784
21
-131.426
0
LINE
8
BLACK
6
CONTINUOUS
10
122.784
20
-131.426
11
123.07
21
-131.283
0
LINE
8
BLACK
6
CONTINUOUS
10
123.07
20
-131.283
11
123.498
21
-131.283
0
LINE
8
BLACK
6
CONTINUOUS
10
123.498
20
-131.283
11
123.784
21
-131.426
0
LINE
8
BLACK
6
CONTINUOUS
10
123.784
20
-131.426
11
123.927
21
-131.569
0
LINE
8
BLACK
6
CONTINUOUS
10
123.927
20
-131.569
11
124.07
21
-131.855
0
LINE
8
BLACK
6
CONTINUOUS
10
124.07
20
-131.855
11
124.07
21
-132.712
0
LINE
8
BLACK
6
CONTINUOUS
10
124.07
20
-132.712
11
123.927
21
-132.997
0
LINE
8
BLACK
6
CONTINUOUS
10
123.927
20
-132.997
11
123.784
21
-133.14
0
LINE
8
BLACK
6
CONTINUOUS
10
123.784
20
-133.14
11
123.498
21
-133.283
0
LINE
8
BLACK
6
CONTINUOUS
10
123.498
20
-133.283
11
123.07
21
-133.283
0
LINE
8
BLACK
6
CONTINUOUS
10
125.784
20
-133.283
11
125.498
21
-133.14
0
LINE
8
BLACK
6
CONTINUOUS
10
125.498
20
-133.14
11
125.356
21
-132.855
0
LINE
8
BLACK
6
CONTINUOUS
10
125.356
20
-132.855
11
125.356
21
-130.283
0
LINE
8
BLACK
6
CONTINUOUS
10
128.07
20
-133.14
11
127.784
21
-133.283
0
LINE
8
BLACK
6
CONTINUOUS
10
127.784
20
-133.283
11
127.213
21
-133.283
0
LINE
8
BLACK
6
CONTINUOUS
10
127.213
20
-133.283
11
126.927
21
-133.14
0
LINE
8
BLACK
6
CONTINUOUS
10
126.927
20
-133.14
11
126.784
21
-132.855
0
LINE
8
BLACK
6
CONTINUOUS
10
126.784
20
-132.855
11
126.784
21
-131.712
0
LINE
8
BLACK
6
CONTINUOUS
10
126.784
20
-131.712
11
126.927
21
-131.426
0
LINE
8
BLACK
6
CONTINUOUS
10
126.927
20
-131.426
11
127.213
21
-131.283
0
LINE
8
BLACK
6
CONTINUOUS
10
127.213
20
-131.283
11
127.784
21
-131.283
0
LINE
8
BLACK
6
CONTINUOUS
10
127.784
20
-131.283
11
128.07
21
-131.426
0
LINE
8
BLACK
6
CONTINUOUS
10
128.07
20
-131.426
11
128.213
21
-131.712
0
LINE
8
BLACK
6
CONTINUOUS
10
128.213
20
-131.712
11
128.213
21
-131.997
0
LINE
8
BLACK
6
CONTINUOUS
10
128.213
20
-131.997
11
126.784
21
-132.283
0
LINE
8
BLACK
6
CONTINUOUS
10
129.356
20
-133.14
11
129.641
21
-133.283
0
LINE
8
BLACK
6
CONTINUOUS
10
129.641
20
-133.283
11
130.213
21
-133.283
0
LINE
8
BLACK
6
CONTINUOUS
10
130.213
20
-133.283
11
130.498
21
-133.14
0
LINE
8
BLACK
6
CONTINUOUS
10
130.498
20
-133.14
11
130.641
21
-132.855
0
LINE
8
BLACK
6
CONTINUOUS
10
130.641
20
-132.855
11
130.641
21
-132.712
0
LINE
8
BLACK
6
CONTINUOUS
10
130.641
20
-132.712
11
130.498
21
-132.426
0
LINE
8
BLACK
6
CONTINUOUS
10
130.498
20
-132.426
11
130.213
21
-132.283
0
LINE
8
BLACK
6
CONTINUOUS
10
130.213
20
-132.283
11
129.784
21
-132.283
0
LINE
8
BLACK
6
CONTINUOUS
10
129.784
20
-132.283
11
129.498
21
-132.14
0
LINE
8
BLACK
6
CONTINUOUS
10
129.498
20
-132.14
11
129.356
21
-131.855
0
LINE
8
BLACK
6
CONTINUOUS
10
129.356
20
-131.855
11
129.356
21
-131.712
0
LINE
8
BLACK
6
CONTINUOUS
10
129.356
20
-131.712
11
129.498
21
-131.426
0
LINE
8
BLACK
6
CONTINUOUS
10
129.498
20
-131.426
11
129.784
21
-131.283
0
LINE
8
BLACK
6
CONTINUOUS
10
129.784
20
-131.283
11
130.213
21
-131.283
0
LINE
8
BLACK
6
CONTINUOUS
10
130.213
20
-131.283
11
130.498
21
-131.426
0
LINE
8
BLACK
6
CONTINUOUS
10
131.641
20
-134.426
11
131.784
21
-134.283
0
LINE
8
BLACK
6
CONTINUOUS
10
131.784
20
-134.283
11
132.07
21
-133.855
0
LINE
8
BLACK
6
CONTINUOUS
10
132.07
20
-133.855
11
132.213
21
-133.569
0
LINE
8
BLACK
6
CONTINUOUS
10
132.213
20
-133.569
11
132.356
21
-133.14
0
LINE
8
BLACK
6
CONTINUOUS
10
132.356
20
-133.14
11
132.498
21
-132.426
0
LINE
8
BLACK
6
CONTINUOUS
10
132.498
20
-132.426
11
132.498
21
-131.855
0
LINE
8
BLACK
6
CONTINUOUS
10
132.498
20
-131.855
11
132.356
21
-131.14
0
LINE
8
BLACK
6
CONTINUOUS
10
132.356
20
-131.14
11
132.213
21
-130.712
0
LINE
8
BLACK
6
CONTINUOUS
10
132.213
20
-130.712
11
132.07
21
-130.426
0
LINE
8
BLACK
6
CONTINUOUS
10
132.07
20
-130.426
11
131.784
21
-129.997
0
LINE
8
BLACK
6
CONTINUOUS
10
131.784
20
-129.997
11
131.641
21
-129.855
0
LINE
8
BLACK
6
CONTINUOUS
10
137.07
20
-134.426
11
136.927
21
-134.283
0
LINE
8
BLACK
6
CONTINUOUS
10
136.927
20
-134.283
11
136.641
21
-133.855
0
LINE
8
BLACK
6
CONTINUOUS
10
136.641
20
-133.855
11
136.498
21
-133.569
0
LINE
8
BLACK
6
CONTINUOUS
10
136.498
20
-133.569
11
136.356
21
-133.14
0
LINE
8
BLACK
6
CONTINUOUS
10
136.356
20
-133.14
11
136.213
21
-132.426
0
LINE
8
BLACK
6
CONTINUOUS
10
136.213
20
-132.426
11
136.213
21
-131.855
0
LINE
8
BLACK
6
CONTINUOUS
10
136.213
20
-131.855
11
136.356
21
-131.14
0
LINE
8
BLACK
6
CONTINUOUS
10
136.356
20
-131.14
11
136.498
21
-130.712
0
LINE
8
BLACK
6
CONTINUOUS
10
136.498
20
-130.712
11
136.641
21
-130.426
0
LINE
8
BLACK
6
CONTINUOUS
10
136.641
20
-130.426
11
136.927
21
-129.997
0
LINE
8
BLACK
6
CONTINUOUS
10
136.927
20
-129.997
11
137.07
21
-129.855
0
LINE
8
BLACK
6
CONTINUOUS
10
138.213
20
-131.283
11
138.213
21
-133.283
0
LINE
8
BLACK
6
CONTINUOUS
10
138.213
20
-131.569
11
138.356
21
-131.426
0
LINE
8
BLACK
6
CONTINUOUS
10
138.356
20
-131.426
11
138.641
21
-131.283
0
LINE
8
BLACK
6
CONTINUOUS
10
138.641
20
-131.283
11
139.07
21
-131.283
0
LINE
8
BLACK
6
CONTINUOUS
10
139.07
20
-131.283
11
139.356
21
-131.426
0
LINE
8
BLACK
6
CONTINUOUS
10
139.356
20
-131.426
11
139.498
21
-131.712
0
LINE
8
BLACK
6
CONTINUOUS
10
139.498
20
-131.712
11
139.498
21
-133.283
0
LINE
8
BLACK
6
CONTINUOUS
10
141.356
20
-133.283
11
141.07
21
-133.14
0
LINE
8
BLACK
6
CONTINUOUS
10
141.07
20
-133.14
11
140.927
21
-132.997
0
LINE
8
BLACK
6
CONTINUOUS
10
140.927
20
-132.997
11
140.784
21
-132.712
0
LINE
8
BLACK
6
CONTINUOUS
10
140.784
20
-132.712
11
140.784
21
-131.855
0
LINE
8
BLACK
6
CONTINUOUS
10
140.784
20
-131.855
11
140.927
21
-131.569
0
LINE
8
BLACK
6
CONTINUOUS
10
140.927
20
-131.569
11
141.07
21
-131.426
0
LINE
8
BLACK
6
CONTINUOUS
10
141.07
20
-131.426
11
141.356
21
-131.283
0
LINE
8
BLACK
6
CONTINUOUS
10
141.356
20
-131.283
11
141.784
21
-131.283
0
LINE
8
BLACK
6
CONTINUOUS
10
141.784
20
-131.283
11
142.07
21
-131.426
0
LINE
8
BLACK
6
CONTINUOUS
10
142.07
20
-131.426
11
142.213
21
-131.569
0
LINE
8
BLACK
6
CONTINUOUS
10
142.213
20
-131.569
11
142.356
21
-131.855
0
LINE
8
BLACK
6
CONTINUOUS
10
142.356
20
-131.855
11
142.356
21
-132.712
0
LINE
8
BLACK
6
CONTINUOUS
10
142.356
20
-132.712
11
142.213
21
-132.997
0
LINE
8
BLACK
6
CONTINUOUS
10
142.213
20
-132.997
11
142.07
21
-133.14
0
LINE
8
BLACK
6
CONTINUOUS
10
142.07
20
-133.14
11
141.784
21
-133.283
0
LINE
8
BLACK
6
CONTINUOUS
10
141.784
20
-133.283
11
141.356
21
-133.283
0
LINE
8
BLACK
6
CONTINUOUS
10
143.213
20
-131.283
11
144.356
21
-131.283
0
LINE
8
BLACK
6
CONTINUOUS
10
143.641
20
-130.283
11
143.641
21
-132.855
0
LINE
8
BLACK
6
CONTINUOUS
10
143.641
20
-132.855
11
143.784
21
-133.14
0
LINE
8
BLACK
6
CONTINUOUS
10
143.784
20
-133.14
11
144.07
21
-133.283
0
LINE
8
BLACK
6
CONTINUOUS
10
144.07
20
-133.283
11
144.356
21
-133.283
0
LINE
8
BLACK
6
CONTINUOUS
10
147.641
20
-131.283
11
147.641
21
-134.283
0
LINE
8
BLACK
6
CONTINUOUS
10
147.641
20
-131.426
11
147.927
21
-131.283
0
LINE
8
BLACK
6
CONTINUOUS
10
147.927
20
-131.283
11
148.498
21
-131.283
0
LINE
8
BLACK
6
CONTINUOUS
10
148.498
20
-131.283
11
148.784
21
-131.426
0
LINE
8
BLACK
6
CONTINUOUS
10
148.784
20
-131.426
11
148.927
21
-131.569
0
LINE
8
BLACK
6
CONTINUOUS
10
148.927
20
-131.569
11
149.07
21
-131.855
0
LINE
8
BLACK
6
CONTINUOUS
10
149.07
20
-131.855
11
149.07
21
-132.712
0
LINE
8
BLACK
6
CONTINUOUS
10
149.07
20
-132.712
11
148.927
21
-132.997
0
LINE
8
BLACK
6
CONTINUOUS
10
148.927
20
-132.997
11
148.784
21
-133.14
0
LINE
8
BLACK
6
CONTINUOUS
10
148.784
20
-133.14
11
148.498
21
-133.283
0
LINE
8
BLACK
6
CONTINUOUS
10
148.498
20
-133.283
11
147.927
21
-133.283
0
LINE
8
BLACK
6
CONTINUOUS
10
147.927
20
-133.283
11
147.641
21
-133.14
0
LINE
8
BLACK
6
CONTINUOUS
10
150.784
20
-133.283
11
150.498
21
-133.14
0
LINE
8
BLACK
6
CONTINUOUS
10
150.498
20
-133.14
11
150.356
21
-132.855
0
LINE
8
BLACK
6
CONTINUOUS
10
150.356
20
-132.855
11
150.356
21
-130.283
0
LINE
8
BLACK
6
CONTINUOUS
10
153.213
20
-133.283
11
153.213
21
-131.712
0
LINE
8
BLACK
6
CONTINUOUS
10
153.213
20
-131.712
11
153.07
21
-131.426
0
LINE
8
BLACK
6
CONTINUOUS
10
153.07
20
-131.426
11
152.784
21
-131.283
0
LINE
8
BLACK
6
CONTINUOUS
10
152.784
20
-131.283
11
152.213
21
-131.283
0
LINE
8
BLACK
6
CONTINUOUS
10
152.213
20
-131.283
11
151.927
21
-131.426
0
LINE
8
BLACK
6
CONTINUOUS
10
153.213
20
-133.14
11
152.927
21
-133.283
0
LINE
8
BLACK
6
CONTINUOUS
10
152.927
20
-133.283
11
152.213
21
-133.283
0
LINE
8
BLACK
6
CONTINUOUS
10
152.213
20
-133.283
11
151.927
21
-133.14
0
LINE
8
BLACK
6
CONTINUOUS
10
151.927
20
-133.14
11
151.784
21
-132.855
0
LINE
8
BLACK
6
CONTINUOUS
10
151.784
20
-132.855
11
151.784
21
-132.569
0
LINE
8
BLACK
6
CONTINUOUS
10
151.784
20
-132.569
11
151.927
21
-132.283
0
LINE
8
BLACK
6
CONTINUOUS
10
151.927
20
-132.283
11
152.213
21
-132.14
0
LINE
8
BLACK
6
CONTINUOUS
10
152.213
20
-132.14
11
152.927
21
-132.14
0
LINE
8
BLACK
6
CONTINUOUS
10
152.927
20
-132.14
11
153.213
21
-131.997
0
LINE
8
BLACK
6
CONTINUOUS
10
154.213
20
-131.283
11
155.356
21
-131.283
0
LINE
8
BLACK
6
CONTINUOUS
10
154.641
20
-130.283
11
154.641
21
-132.855
0
LINE
8
BLACK
6
CONTINUOUS
10
154.641
20
-132.855
11
154.784
21
-133.14
0
LINE
8
BLACK
6
CONTINUOUS
10
154.784
20
-133.14
11
155.07
21
-133.283
0
LINE
8
BLACK
6
CONTINUOUS
10
155.07
20
-133.283
11
155.356
21
-133.283
0
LINE
8
BLACK
6
CONTINUOUS
10
157.498
20
-133.14
11
157.213
21
-133.283
0
LINE
8
BLACK
6
CONTINUOUS
10
157.213
20
-133.283
11
156.641
21
-133.283
0
LINE
8
BLACK
6
CONTINUOUS
10
156.641
20
-133.283
11
156.356
21
-133.14
0
LINE
8
BLACK
6
CONTINUOUS
10
156.356
20
-133.14
11
156.213
21
-132.855
0
LINE
8
BLACK
6
CONTINUOUS
10
156.213
20
-132.855
11
156.213
21
-131.712
0
LINE
8
BLACK
6
CONTINUOUS
10
156.213
20
-131.712
11
156.356
21
-131.426
0
LINE
8
BLACK
6
CONTINUOUS
10
156.356
20
-131.426
11
156.641
21
-131.283
0
LINE
8
BLACK
6
CONTINUOUS
10
156.641
20
-131.283
11
157.213
21
-131.283
0
LINE
8
BLACK
6
CONTINUOUS
10
157.213
20
-131.283
11
157.498
21
-131.426
0
LINE
8
BLACK
6
CONTINUOUS
10
157.498
20
-131.426
11
157.641
21
-131.712
0
LINE
8
BLACK
6
CONTINUOUS
10
157.641
20
-131.712
11
157.641
21
-131.997
0
LINE
8
BLACK
6
CONTINUOUS
10
157.641
20
-131.997
11
156.213
21
-132.283
0
LINE
8
BLACK
6
CONTINUOUS
10
160.213
20
-133.283
11
160.213
21
-130.283
0
LINE
8
BLACK
6
CONTINUOUS
10
160.213
20
-133.14
11
159.927
21
-133.283
0
LINE
8
BLACK
6
CONTINUOUS
10
159.927
20
-133.283
11
159.356
21
-133.283
0
LINE
8
BLACK
6
CONTINUOUS
10
159.356
20
-133.283
11
159.07
21
-133.14
0
LINE
8
BLACK
6
CONTINUOUS
10
159.07
20
-133.14
11
158.927
21
-132.997
0
LINE
8
BLACK
6
CONTINUOUS
10
158.927
20
-132.997
11
158.784
21
-132.712
0
LINE
8
BLACK
6
CONTINUOUS
10
158.784
20
-132.712
11
158.784
21
-131.855
0
LINE
8
BLACK
6
CONTINUOUS
10
158.784
20
-131.855
11
158.927
21
-131.569
0
LINE
8
BLACK
6
CONTINUOUS
10
158.927
20
-131.569
11
159.07
21
-131.426
0
LINE
8
BLACK
6
CONTINUOUS
10
159.07
20
-131.426
11
159.356
21
-131.283
0
LINE
8
BLACK
6
CONTINUOUS
10
159.356
20
-131.283
11
159.927
21
-131.283
0
LINE
8
BLACK
6
CONTINUOUS
10
159.927
20
-131.283
11
160.213
21
-131.426
0
LINE
8
BLACK
6
CONTINUOUS
10
161.356
20
-134.426
11
161.498
21
-134.283
0
LINE
8
BLACK
6
CONTINUOUS
10
161.498
20
-134.283
11
161.784
21
-133.855
0
LINE
8
BLACK
6
CONTINUOUS
10
161.784
20
-133.855
11
161.927
21
-133.569
0
LINE
8
BLACK
6
CONTINUOUS
10
161.927
20
-133.569
11
162.07
21
-133.14
0
LINE
8
BLACK
6
CONTINUOUS
10
162.07
20
-133.14
11
162.213
21
-132.426
0
LINE
8
BLACK
6
CONTINUOUS
10
162.213
20
-132.426
11
162.213
21
-131.855
0
LINE
8
BLACK
6
CONTINUOUS
10
162.213
20
-131.855
11
162.07
21
-131.14
0
LINE
8
BLACK
6
CONTINUOUS
10
162.07
20
-131.14
11
161.927
21
-130.712
0
LINE
8
BLACK
6
CONTINUOUS
10
161.927
20
-130.712
11
161.784
21
-130.426
0
LINE
8
BLACK
6
CONTINUOUS
10
161.784
20
-130.426
11
161.498
21
-129.997
0
LINE
8
BLACK
6
CONTINUOUS
10
161.498
20
-129.997
11
161.356
21
-129.855
  0
ENDSEC
  0
EOF
