  0
SECTION
  2
HEADER
  9
$ANGBASE
  50
0.0
  9
$ANGDIR
  70
1
  9
$MEASUREMENT
  70
1
  0
ENDSEC
  0
SECTION
  2
TABLES
  0
TABLE
  2
LTYPE
  70
4
  0
LTYPE
  5
40F
  2
CONTINUOUS
  70
0
  3
Solid line
  72
65
  73
0
  40
0.0
  0
LTYPE
  5
410
  2
DASHDOT
 70
0
  3
Dash Dot ____ _ ____ _
 72
65
 73
4
 40
2.0
 49
1.25
 49
-0.25
 49
0.25
 49
-0.25
  0
LTYPE
  5
411
  2
DASHED
 70
0
  3
Dashed __ __ __ __ __
 72
65
 73
2
 40
0.75
 49
0.5
 49
-0.25
  0
LTYPE
  5
43B
  2
DOTTED
 70
0
  3
Dotted .  .  .  .
 72
65
 73
2
 40
0.2
 49
0.0
 49
-0.2
  0
ENDTAB
  0
TABLE
  2
STYLE
  70
4
  0
STYLE
  2
KICAD
  70
0
  40
0
  41
1
  42
1
  50
0
  71
0
  3
isocp.shx
  0
STYLE
  2
KICADB
  70
0
  40
0
  41
1
  42
1
  50
0
  71
0
  3
isocp.shx
  0
STYLE
  2
KICADI
  70
0
  40
0
  41
1
  42
1
  50
15
  71
0
  3
isocp.shx
  0
STYLE
  2
KICADBI
  70
0
  40
0
  41
1
  42
1
  50
15
  71
0
  3
isocp.shx
  0
ENDTAB
  0
TABLE
  2
LAYER
  70
1
  0
LAYER
  2
BLACK
  70
0
  62
7
  6
CONTINUOUS
  0
ENDTAB
  0
ENDSEC
  0
SECTION
  2
ENTITIES
0
LINE
8
BLACK
6
CONTINUOUS
10
115.443
20
-64.77
11
66.802
21
-64.77
0
LINE
8
BLACK
6
CONTINUOUS
10
66.802
20
-122.301
11
66.802
21
-64.77
0
LINE
8
BLACK
6
CONTINUOUS
10
115.443
20
-122.301
11
66.802
21
-122.301
0
LINE
8
BLACK
6
CONTINUOUS
10
115.443
20
-64.77
11
115.443
21
-122.301
0
LINE
8
BLACK
6
CONTINUOUS
10
105.772
20
-98.533
11
106.572
21
-99.333
0
LINE
8
BLACK
6
CONTINUOUS
10
106.572
20
-98.533
11
105.772
21
-99.333
0
LINE
8
BLACK
6
CONTINUOUS
10
113.392
20
-98.533
11
114.192
21
-99.333
0
LINE
8
BLACK
6
CONTINUOUS
10
114.192
20
-98.533
11
113.392
21
-99.333
0
LINE
8
BLACK
6
CONTINUOUS
10
89.897
20
-85.96
11
90.697
21
-86.76
0
LINE
8
BLACK
6
CONTINUOUS
10
90.697
20
-85.96
11
89.897
21
-86.76
0
LINE
8
BLACK
6
CONTINUOUS
10
97.517
20
-85.96
11
98.317
21
-86.76
0
LINE
8
BLACK
6
CONTINUOUS
10
98.317
20
-85.96
11
97.517
21
-86.76
0
LINE
8
BLACK
6
CONTINUOUS
10
79.991
20
-101.454
11
80.791
21
-102.254
0
LINE
8
BLACK
6
CONTINUOUS
10
80.791
20
-101.454
11
79.991
21
-102.254
0
LINE
8
BLACK
6
CONTINUOUS
10
87.611
20
-101.454
11
88.411
21
-102.254
0
LINE
8
BLACK
6
CONTINUOUS
10
88.411
20
-101.454
11
87.611
21
-102.254
0
LINE
8
BLACK
6
CONTINUOUS
10
79.102
20
-75.673
11
79.902
21
-76.473
0
LINE
8
BLACK
6
CONTINUOUS
10
79.902
20
-75.673
11
79.102
21
-76.473
0
LINE
8
BLACK
6
CONTINUOUS
10
86.722
20
-75.673
11
87.522
21
-76.473
0
LINE
8
BLACK
6
CONTINUOUS
10
87.522
20
-75.673
11
86.722
21
-76.473
0
LINE
8
BLACK
6
CONTINUOUS
10
105.899
20
-92.945
11
106.699
21
-93.745
0
LINE
8
BLACK
6
CONTINUOUS
10
106.699
20
-92.945
11
105.899
21
-93.745
0
LINE
8
BLACK
6
CONTINUOUS
10
113.519
20
-92.945
11
114.319
21
-93.745
0
LINE
8
BLACK
6
CONTINUOUS
10
114.319
20
-92.945
11
113.519
21
-93.745
0
LINE
8
BLACK
6
CONTINUOUS
10
105.899
20
-95.612
11
106.699
21
-96.412
0
LINE
8
BLACK
6
CONTINUOUS
10
106.699
20
-95.612
11
105.899
21
-96.412
0
LINE
8
BLACK
6
CONTINUOUS
10
113.519
20
-95.612
11
114.319
21
-96.412
0
LINE
8
BLACK
6
CONTINUOUS
10
114.319
20
-95.612
11
113.519
21
-96.412
0
LINE
8
BLACK
6
CONTINUOUS
10
105.899
20
-80.626
11
106.699
21
-81.426
0
LINE
8
BLACK
6
CONTINUOUS
10
106.699
20
-80.626
11
105.899
21
-81.426
0
LINE
8
BLACK
6
CONTINUOUS
10
113.519
20
-80.626
11
114.319
21
-81.426
0
LINE
8
BLACK
6
CONTINUOUS
10
114.319
20
-80.626
11
113.519
21
-81.426
0
LINE
8
BLACK
6
CONTINUOUS
10
79.991
20
-107.296
11
80.791
21
-108.096
0
LINE
8
BLACK
6
CONTINUOUS
10
80.791
20
-107.296
11
79.991
21
-108.096
0
LINE
8
BLACK
6
CONTINUOUS
10
87.611
20
-107.296
11
88.411
21
-108.096
0
LINE
8
BLACK
6
CONTINUOUS
10
88.411
20
-107.296
11
87.611
21
-108.096
0
LINE
8
BLACK
6
CONTINUOUS
10
79.991
20
-104.375
11
80.791
21
-105.175
0
LINE
8
BLACK
6
CONTINUOUS
10
80.791
20
-104.375
11
79.991
21
-105.175
0
LINE
8
BLACK
6
CONTINUOUS
10
87.611
20
-104.375
11
88.411
21
-105.175
0
LINE
8
BLACK
6
CONTINUOUS
10
88.411
20
-104.375
11
87.611
21
-105.175
0
LINE
8
BLACK
6
CONTINUOUS
10
79.991
20
-98.533
11
80.791
21
-99.333
0
LINE
8
BLACK
6
CONTINUOUS
10
80.791
20
-98.533
11
79.991
21
-99.333
0
LINE
8
BLACK
6
CONTINUOUS
10
87.611
20
-98.533
11
88.411
21
-99.333
0
LINE
8
BLACK
6
CONTINUOUS
10
88.411
20
-98.533
11
87.611
21
-99.333
0
CIRCLE
8
BLACK
10
97.409
20
-105.029
40
0.6
0
CIRCLE
8
BLACK
10
99.949
20
-105.029
40
0.6
0
CIRCLE
8
BLACK
10
102.489
20
-105.029
40
0.6
0
CIRCLE
8
BLACK
10
85.979
20
-116.586
40
0.6
0
CIRCLE
8
BLACK
10
88.519
20
-116.586
40
0.6
0
CIRCLE
8
BLACK
10
91.059
20
-116.586
40
0.6
0
CIRCLE
8
BLACK
10
93.599
20
-116.586
40
0.6
0
CIRCLE
8
BLACK
10
97.536
20
-116.586
40
0.6
0
CIRCLE
8
BLACK
10
100.076
20
-116.586
40
0.6
0
CIRCLE
8
BLACK
10
102.616
20
-116.586
40
0.6
0
CIRCLE
8
BLACK
10
105.156
20
-116.586
40
0.6
0
CIRCLE
8
BLACK
10
71.628
20
-75.311
40
0.6
0
CIRCLE
8
BLACK
10
74.168
20
-75.311
40
0.6
0
CIRCLE
8
BLACK
10
110.363
20
-74.803
40
0.6
0
CIRCLE
8
BLACK
10
112.903
20
-74.803
40
0.6
0
CIRCLE
8
BLACK
10
110.49
20
-105.283
40
0.6
0
CIRCLE
8
BLACK
10
113.03
20
-105.283
40
0.6
0
CIRCLE
8
BLACK
10
86.614
20
-71.12
40
0.6
0
CIRCLE
8
BLACK
10
89.154
20
-71.12
40
0.6
0
CIRCLE
8
BLACK
10
91.694
20
-71.12
40
0.6
0
CIRCLE
8
BLACK
10
94.234
20
-71.12
40
0.6
0
CIRCLE
8
BLACK
10
96.774
20
-71.12
40
0.6
0
CIRCLE
8
BLACK
10
99.314
20
-71.12
40
0.6
0
CIRCLE
8
BLACK
10
101.854
20
-71.12
40
0.6
0
CIRCLE
8
BLACK
10
104.394
20
-71.12
40
0.6
0
CIRCLE
8
BLACK
10
71.628
20
-102.616
40
0.6
0
CIRCLE
8
BLACK
10
74.168
20
-102.616
40
0.6
0
CIRCLE
8
BLACK
10
71.628
20
-93.5143
40
0.6
0
CIRCLE
8
BLACK
10
74.168
20
-93.5143
40
0.6
0
CIRCLE
8
BLACK
10
107.95
20
-86.995
40
0.6
0
CIRCLE
8
BLACK
10
110.49
20
-86.995
40
0.6
0
CIRCLE
8
BLACK
10
113.03
20
-86.995
40
0.6
0
CIRCLE
8
BLACK
10
94.234
20
-80.645
40
0.6
0
CIRCLE
8
BLACK
10
96.774
20
-80.645
40
0.6
0
CIRCLE
8
BLACK
10
99.314
20
-80.645
40
0.6
0
CIRCLE
8
BLACK
10
101.854
20
-80.645
40
0.6
0
CIRCLE
8
BLACK
10
84.963
20
-92.583
40
0.6
0
CIRCLE
8
BLACK
10
87.503
20
-92.583
40
0.6
0
CIRCLE
8
BLACK
10
71.628
20
-84.4127
40
0.6
0
CIRCLE
8
BLACK
10
74.168
20
-84.4127
40
0.6
0
CIRCLE
8
BLACK
10
76.708
20
-84.4127
40
0.6
0
CIRCLE
8
BLACK
10
79.248
20
-84.4127
40
0.6
0
CIRCLE
8
BLACK
10
81.788
20
-84.4127
40
0.6
0
CIRCLE
8
BLACK
10
84.328
20
-84.4127
40
0.6
0
CIRCLE
8
BLACK
10
94.488
20
-92.71
40
0.6
0
CIRCLE
8
BLACK
10
97.028
20
-92.71
40
0.6
0
CIRCLE
8
BLACK
10
99.568
20
-92.71
40
0.6
0
LINE
8
BLACK
6
CONTINUOUS
10
69.6413
20
-126.983
11
69.6413
21
-123.983
0
LINE
8
BLACK
6
CONTINUOUS
10
69.6413
20
-123.983
11
70.3556
21
-123.983
0
LINE
8
BLACK
6
CONTINUOUS
10
70.3556
20
-123.983
11
70.7841
21
-124.126
0
LINE
8
BLACK
6
CONTINUOUS
10
70.7841
20
-124.126
11
71.0699
21
-124.412
0
LINE
8
BLACK
6
CONTINUOUS
10
71.0699
20
-124.412
11
71.2127
21
-124.697
0
LINE
8
BLACK
6
CONTINUOUS
10
71.2127
20
-124.697
11
71.3556
21
-125.269
0
LINE
8
BLACK
6
CONTINUOUS
10
71.3556
20
-125.269
11
71.3556
21
-125.697
0
LINE
8
BLACK
6
CONTINUOUS
10
71.3556
20
-125.697
11
71.2127
21
-126.269
0
LINE
8
BLACK
6
CONTINUOUS
10
71.2127
20
-126.269
11
71.0699
21
-126.555
0
LINE
8
BLACK
6
CONTINUOUS
10
71.0699
20
-126.555
11
70.7841
21
-126.84
0
LINE
8
BLACK
6
CONTINUOUS
10
70.7841
20
-126.84
11
70.3556
21
-126.983
0
LINE
8
BLACK
6
CONTINUOUS
10
70.3556
20
-126.983
11
69.6413
21
-126.983
0
LINE
8
BLACK
6
CONTINUOUS
10
72.6413
20
-126.983
11
72.6413
21
-124.983
0
LINE
8
BLACK
6
CONTINUOUS
10
72.6413
20
-125.555
11
72.7841
21
-125.269
0
LINE
8
BLACK
6
CONTINUOUS
10
72.7841
20
-125.269
11
72.927
21
-125.126
0
LINE
8
BLACK
6
CONTINUOUS
10
72.927
20
-125.126
11
73.2127
21
-124.983
0
LINE
8
BLACK
6
CONTINUOUS
10
73.2127
20
-124.983
11
73.4984
21
-124.983
0
LINE
8
BLACK
6
CONTINUOUS
10
74.4984
20
-126.983
11
74.4984
21
-124.983
0
LINE
8
BLACK
6
CONTINUOUS
10
74.4984
20
-123.983
11
74.3556
21
-124.126
0
LINE
8
BLACK
6
CONTINUOUS
10
74.3556
20
-124.126
11
74.4984
21
-124.269
0
LINE
8
BLACK
6
CONTINUOUS
10
74.4984
20
-124.269
11
74.6413
21
-124.126
0
LINE
8
BLACK
6
CONTINUOUS
10
74.6413
20
-124.126
11
74.4984
21
-123.983
0
LINE
8
BLACK
6
CONTINUOUS
10
74.4984
20
-123.983
11
74.4984
21
-124.269
0
LINE
8
BLACK
6
CONTINUOUS
10
76.3556
20
-126.983
11
76.0699
21
-126.84
0
LINE
8
BLACK
6
CONTINUOUS
10
76.0699
20
-126.84
11
75.927
21
-126.555
0
LINE
8
BLACK
6
CONTINUOUS
10
75.927
20
-126.555
11
75.927
21
-123.983
0
LINE
8
BLACK
6
CONTINUOUS
10
77.927
20
-126.983
11
77.6413
21
-126.84
0
LINE
8
BLACK
6
CONTINUOUS
10
77.6413
20
-126.84
11
77.4984
21
-126.555
0
LINE
8
BLACK
6
CONTINUOUS
10
77.4984
20
-126.555
11
77.4984
21
-123.983
0
LINE
8
BLACK
6
CONTINUOUS
10
81.3556
20
-126.983
11
81.3556
21
-123.983
0
LINE
8
BLACK
6
CONTINUOUS
10
81.3556
20
-123.983
11
82.3556
21
-126.126
0
LINE
8
BLACK
6
CONTINUOUS
10
82.3556
20
-126.126
11
83.3556
21
-123.983
0
LINE
8
BLACK
6
CONTINUOUS
10
83.3556
20
-123.983
11
83.3556
21
-126.983
0
LINE
8
BLACK
6
CONTINUOUS
10
86.0699
20
-126.983
11
86.0699
21
-125.412
0
LINE
8
BLACK
6
CONTINUOUS
10
86.0699
20
-125.412
11
85.927
21
-125.126
0
LINE
8
BLACK
6
CONTINUOUS
10
85.927
20
-125.126
11
85.6413
21
-124.983
0
LINE
8
BLACK
6
CONTINUOUS
10
85.6413
20
-124.983
11
85.0699
21
-124.983
0
LINE
8
BLACK
6
CONTINUOUS
10
85.0699
20
-124.983
11
84.7841
21
-125.126
0
LINE
8
BLACK
6
CONTINUOUS
10
86.0699
20
-126.84
11
85.7841
21
-126.983
0
LINE
8
BLACK
6
CONTINUOUS
10
85.7841
20
-126.983
11
85.0699
21
-126.983
0
LINE
8
BLACK
6
CONTINUOUS
10
85.0699
20
-126.983
11
84.7841
21
-126.84
0
LINE
8
BLACK
6
CONTINUOUS
10
84.7841
20
-126.84
11
84.6413
21
-126.555
0
LINE
8
BLACK
6
CONTINUOUS
10
84.6413
20
-126.555
11
84.6413
21
-126.269
0
LINE
8
BLACK
6
CONTINUOUS
10
84.6413
20
-126.269
11
84.7841
21
-125.983
0
LINE
8
BLACK
6
CONTINUOUS
10
84.7841
20
-125.983
11
85.0699
21
-125.84
0
LINE
8
BLACK
6
CONTINUOUS
10
85.0699
20
-125.84
11
85.7841
21
-125.84
0
LINE
8
BLACK
6
CONTINUOUS
10
85.7841
20
-125.84
11
86.0699
21
-125.697
0
LINE
8
BLACK
6
CONTINUOUS
10
87.4984
20
-124.983
11
87.4984
21
-127.983
0
LINE
8
BLACK
6
CONTINUOUS
10
87.4984
20
-125.126
11
87.7841
21
-124.983
0
LINE
8
BLACK
6
CONTINUOUS
10
87.7841
20
-124.983
11
88.3556
21
-124.983
0
LINE
8
BLACK
6
CONTINUOUS
10
88.3556
20
-124.983
11
88.6413
21
-125.126
0
LINE
8
BLACK
6
CONTINUOUS
10
88.6413
20
-125.126
11
88.7841
21
-125.269
0
LINE
8
BLACK
6
CONTINUOUS
10
88.7841
20
-125.269
11
88.927
21
-125.555
0
LINE
8
BLACK
6
CONTINUOUS
10
88.927
20
-125.555
11
88.927
21
-126.412
0
LINE
8
BLACK
6
CONTINUOUS
10
88.927
20
-126.412
11
88.7841
21
-126.697
0
LINE
8
BLACK
6
CONTINUOUS
10
88.7841
20
-126.697
11
88.6413
21
-126.84
0
LINE
8
BLACK
6
CONTINUOUS
10
88.6413
20
-126.84
11
88.3556
21
-126.983
0
LINE
8
BLACK
6
CONTINUOUS
10
88.3556
20
-126.983
11
87.7841
21
-126.983
0
LINE
8
BLACK
6
CONTINUOUS
10
87.7841
20
-126.983
11
87.4984
21
-126.84
0
LINE
8
BLACK
6
CONTINUOUS
10
90.2127
20
-126.697
11
90.3556
21
-126.84
0
LINE
8
BLACK
6
CONTINUOUS
10
90.3556
20
-126.84
11
90.2127
21
-126.983
0
LINE
8
BLACK
6
CONTINUOUS
10
90.2127
20
-126.983
11
90.0699
21
-126.84
0
LINE
8
BLACK
6
CONTINUOUS
10
90.0699
20
-126.84
11
90.2127
21
-126.697
0
LINE
8
BLACK
6
CONTINUOUS
10
90.2127
20
-126.697
11
90.2127
21
-126.983
0
LINE
8
BLACK
6
CONTINUOUS
10
90.2127
20
-125.126
11
90.3556
21
-125.269
0
LINE
8
BLACK
6
CONTINUOUS
10
90.3556
20
-125.269
11
90.2127
21
-125.412
0
LINE
8
BLACK
6
CONTINUOUS
10
90.2127
20
-125.412
11
90.0699
21
-125.269
0
LINE
8
BLACK
6
CONTINUOUS
10
90.0699
20
-125.269
11
90.2127
21
-125.126
0
LINE
8
BLACK
6
CONTINUOUS
10
90.2127
20
-125.126
11
90.2127
21
-125.412
0
LINE
8
BLACK
6
CONTINUOUS
10
65.977
20
-131.526
11
66.777
21
-132.326
0
LINE
8
BLACK
6
CONTINUOUS
10
66.777
20
-131.526
11
65.977
21
-132.326
0
LINE
8
BLACK
6
CONTINUOUS
10
70.2127
20
-130.283
11
70.4984
21
-130.283
0
LINE
8
BLACK
6
CONTINUOUS
10
70.4984
20
-130.283
11
70.7841
21
-130.426
0
LINE
8
BLACK
6
CONTINUOUS
10
70.7841
20
-130.426
11
70.927
21
-130.569
0
LINE
8
BLACK
6
CONTINUOUS
10
70.927
20
-130.569
11
71.0699
21
-130.855
0
LINE
8
BLACK
6
CONTINUOUS
10
71.0699
20
-130.855
11
71.2127
21
-131.426
0
LINE
8
BLACK
6
CONTINUOUS
10
71.2127
20
-131.426
11
71.2127
21
-132.14
0
LINE
8
BLACK
6
CONTINUOUS
10
71.2127
20
-132.14
11
71.0699
21
-132.712
0
LINE
8
BLACK
6
CONTINUOUS
10
71.0699
20
-132.712
11
70.927
21
-132.997
0
LINE
8
BLACK
6
CONTINUOUS
10
70.927
20
-132.997
11
70.7841
21
-133.14
0
LINE
8
BLACK
6
CONTINUOUS
10
70.7841
20
-133.14
11
70.4984
21
-133.283
0
LINE
8
BLACK
6
CONTINUOUS
10
70.4984
20
-133.283
11
70.2127
21
-133.283
0
LINE
8
BLACK
6
CONTINUOUS
10
70.2127
20
-133.283
11
69.927
21
-133.14
0
LINE
8
BLACK
6
CONTINUOUS
10
69.927
20
-133.14
11
69.7841
21
-132.997
0
LINE
8
BLACK
6
CONTINUOUS
10
69.7841
20
-132.997
11
69.6413
21
-132.712
0
LINE
8
BLACK
6
CONTINUOUS
10
69.6413
20
-132.712
11
69.4984
21
-132.14
0
LINE
8
BLACK
6
CONTINUOUS
10
69.4984
20
-132.14
11
69.4984
21
-131.426
0
LINE
8
BLACK
6
CONTINUOUS
10
69.4984
20
-131.426
11
69.6413
21
-130.855
0
LINE
8
BLACK
6
CONTINUOUS
10
69.6413
20
-130.855
11
69.7841
21
-130.569
0
LINE
8
BLACK
6
CONTINUOUS
10
69.7841
20
-130.569
11
69.927
21
-130.426
0
LINE
8
BLACK
6
CONTINUOUS
10
69.927
20
-130.426
11
70.2127
21
-130.283
0
LINE
8
BLACK
6
CONTINUOUS
10
72.4984
20
-132.997
11
72.6413
21
-133.14
0
LINE
8
BLACK
6
CONTINUOUS
10
72.6413
20
-133.14
11
72.4984
21
-133.283
0
LINE
8
BLACK
6
CONTINUOUS
10
72.4984
20
-133.283
11
72.3556
21
-133.14
0
LINE
8
BLACK
6
CONTINUOUS
10
72.3556
20
-133.14
11
72.4984
21
-132.997
0
LINE
8
BLACK
6
CONTINUOUS
10
72.4984
20
-132.997
11
72.4984
21
-133.283
0
LINE
8
BLACK
6
CONTINUOUS
10
74.3556
20
-131.569
11
74.0699
21
-131.426
0
LINE
8
BLACK
6
CONTINUOUS
10
74.0699
20
-131.426
11
73.927
21
-131.283
0
LINE
8
BLACK
6
CONTINUOUS
10
73.927
20
-131.283
11
73.7841
21
-130.997
0
LINE
8
BLACK
6
CONTINUOUS
10
73.7841
20
-130.997
11
73.7841
21
-130.855
0
LINE
8
BLACK
6
CONTINUOUS
10
73.7841
20
-130.855
11
73.927
21
-130.569
0
LINE
8
BLACK
6
CONTINUOUS
10
73.927
20
-130.569
11
74.0699
21
-130.426
0
LINE
8
BLACK
6
CONTINUOUS
10
74.0699
20
-130.426
11
74.3556
21
-130.283
0
LINE
8
BLACK
6
CONTINUOUS
10
74.3556
20
-130.283
11
74.927
21
-130.283
0
LINE
8
BLACK
6
CONTINUOUS
10
74.927
20
-130.283
11
75.2127
21
-130.426
0
LINE
8
BLACK
6
CONTINUOUS
10
75.2127
20
-130.426
11
75.3556
21
-130.569
0
LINE
8
BLACK
6
CONTINUOUS
10
75.3556
20
-130.569
11
75.4984
21
-130.855
0
LINE
8
BLACK
6
CONTINUOUS
10
75.4984
20
-130.855
11
75.4984
21
-130.997
0
LINE
8
BLACK
6
CONTINUOUS
10
75.4984
20
-130.997
11
75.3556
21
-131.283
0
LINE
8
BLACK
6
CONTINUOUS
10
75.3556
20
-131.283
11
75.2127
21
-131.426
0
LINE
8
BLACK
6
CONTINUOUS
10
75.2127
20
-131.426
11
74.927
21
-131.569
0
LINE
8
BLACK
6
CONTINUOUS
10
74.927
20
-131.569
11
74.3556
21
-131.569
0
LINE
8
BLACK
6
CONTINUOUS
10
74.3556
20
-131.569
11
74.0699
21
-131.712
0
LINE
8
BLACK
6
CONTINUOUS
10
74.0699
20
-131.712
11
73.927
21
-131.855
0
LINE
8
BLACK
6
CONTINUOUS
10
73.927
20
-131.855
11
73.7841
21
-132.14
0
LINE
8
BLACK
6
CONTINUOUS
10
73.7841
20
-132.14
11
73.7841
21
-132.712
0
LINE
8
BLACK
6
CONTINUOUS
10
73.7841
20
-132.712
11
73.927
21
-132.997
0
LINE
8
BLACK
6
CONTINUOUS
10
73.927
20
-132.997
11
74.0699
21
-133.14
0
LINE
8
BLACK
6
CONTINUOUS
10
74.0699
20
-133.14
11
74.3556
21
-133.283
0
LINE
8
BLACK
6
CONTINUOUS
10
74.3556
20
-133.283
11
74.927
21
-133.283
0
LINE
8
BLACK
6
CONTINUOUS
10
74.927
20
-133.283
11
75.2127
21
-133.14
0
LINE
8
BLACK
6
CONTINUOUS
10
75.2127
20
-133.14
11
75.3556
21
-132.997
0
LINE
8
BLACK
6
CONTINUOUS
10
75.3556
20
-132.997
11
75.4984
21
-132.712
0
LINE
8
BLACK
6
CONTINUOUS
10
75.4984
20
-132.712
11
75.4984
21
-132.14
0
LINE
8
BLACK
6
CONTINUOUS
10
75.4984
20
-132.14
11
75.3556
21
-131.855
0
LINE
8
BLACK
6
CONTINUOUS
10
75.3556
20
-131.855
11
75.2127
21
-131.712
0
LINE
8
BLACK
6
CONTINUOUS
10
75.2127
20
-131.712
11
74.927
21
-131.569
0
LINE
8
BLACK
6
CONTINUOUS
10
77.3556
20
-130.283
11
77.6413
21
-130.283
0
LINE
8
BLACK
6
CONTINUOUS
10
77.6413
20
-130.283
11
77.927
21
-130.426
0
LINE
8
BLACK
6
CONTINUOUS
10
77.927
20
-130.426
11
78.0699
21
-130.569
0
LINE
8
BLACK
6
CONTINUOUS
10
78.0699
20
-130.569
11
78.2127
21
-130.855
0
LINE
8
BLACK
6
CONTINUOUS
10
78.2127
20
-130.855
11
78.3556
21
-131.426
0
LINE
8
BLACK
6
CONTINUOUS
10
78.3556
20
-131.426
11
78.3556
21
-132.14
0
LINE
8
BLACK
6
CONTINUOUS
10
78.3556
20
-132.14
11
78.2127
21
-132.712
0
LINE
8
BLACK
6
CONTINUOUS
10
78.2127
20
-132.712
11
78.0699
21
-132.997
0
LINE
8
BLACK
6
CONTINUOUS
10
78.0699
20
-132.997
11
77.927
21
-133.14
0
LINE
8
BLACK
6
CONTINUOUS
10
77.927
20
-133.14
11
77.6413
21
-133.283
0
LINE
8
BLACK
6
CONTINUOUS
10
77.6413
20
-133.283
11
77.3556
21
-133.283
0
LINE
8
BLACK
6
CONTINUOUS
10
77.3556
20
-133.283
11
77.0699
21
-133.14
0
LINE
8
BLACK
6
CONTINUOUS
10
77.0699
20
-133.14
11
76.927
21
-132.997
0
LINE
8
BLACK
6
CONTINUOUS
10
76.927
20
-132.997
11
76.7841
21
-132.712
0
LINE
8
BLACK
6
CONTINUOUS
10
76.7841
20
-132.712
11
76.6413
21
-132.14
0
LINE
8
BLACK
6
CONTINUOUS
10
76.6413
20
-132.14
11
76.6413
21
-131.426
0
LINE
8
BLACK
6
CONTINUOUS
10
76.6413
20
-131.426
11
76.7841
21
-130.855
0
LINE
8
BLACK
6
CONTINUOUS
10
76.7841
20
-130.855
11
76.927
21
-130.569
0
LINE
8
BLACK
6
CONTINUOUS
10
76.927
20
-130.569
11
77.0699
21
-130.426
0
LINE
8
BLACK
6
CONTINUOUS
10
77.0699
20
-130.426
11
77.3556
21
-130.283
0
LINE
8
BLACK
6
CONTINUOUS
10
79.6413
20
-133.283
11
79.6413
21
-131.283
0
LINE
8
BLACK
6
CONTINUOUS
10
79.6413
20
-131.569
11
79.7841
21
-131.426
0
LINE
8
BLACK
6
CONTINUOUS
10
79.7841
20
-131.426
11
80.0699
21
-131.283
0
LINE
8
BLACK
6
CONTINUOUS
10
80.0699
20
-131.283
11
80.4984
21
-131.283
0
LINE
8
BLACK
6
CONTINUOUS
10
80.4984
20
-131.283
11
80.7841
21
-131.426
0
LINE
8
BLACK
6
CONTINUOUS
10
80.7841
20
-131.426
11
80.927
21
-131.712
0
LINE
8
BLACK
6
CONTINUOUS
10
80.927
20
-131.712
11
80.927
21
-133.283
0
LINE
8
BLACK
6
CONTINUOUS
10
80.927
20
-131.712
11
81.0699
21
-131.426
0
LINE
8
BLACK
6
CONTINUOUS
10
81.0699
20
-131.426
11
81.3556
21
-131.283
0
LINE
8
BLACK
6
CONTINUOUS
10
81.3556
20
-131.283
11
81.7841
21
-131.283
0
LINE
8
BLACK
6
CONTINUOUS
10
81.7841
20
-131.283
11
82.0699
21
-131.426
0
LINE
8
BLACK
6
CONTINUOUS
10
82.0699
20
-131.426
11
82.2127
21
-131.712
0
LINE
8
BLACK
6
CONTINUOUS
10
82.2127
20
-131.712
11
82.2127
21
-133.283
0
LINE
8
BLACK
6
CONTINUOUS
10
83.6413
20
-133.283
11
83.6413
21
-131.283
0
LINE
8
BLACK
6
CONTINUOUS
10
83.6413
20
-131.569
11
83.7841
21
-131.426
0
LINE
8
BLACK
6
CONTINUOUS
10
83.7841
20
-131.426
11
84.0699
21
-131.283
0
LINE
8
BLACK
6
CONTINUOUS
10
84.0699
20
-131.283
11
84.4984
21
-131.283
0
LINE
8
BLACK
6
CONTINUOUS
10
84.4984
20
-131.283
11
84.7841
21
-131.426
0
LINE
8
BLACK
6
CONTINUOUS
10
84.7841
20
-131.426
11
84.927
21
-131.712
0
LINE
8
BLACK
6
CONTINUOUS
10
84.927
20
-131.712
11
84.927
21
-133.283
0
LINE
8
BLACK
6
CONTINUOUS
10
84.927
20
-131.712
11
85.0699
21
-131.426
0
LINE
8
BLACK
6
CONTINUOUS
10
85.0699
20
-131.426
11
85.3556
21
-131.283
0
LINE
8
BLACK
6
CONTINUOUS
10
85.3556
20
-131.283
11
85.7841
21
-131.283
0
LINE
8
BLACK
6
CONTINUOUS
10
85.7841
20
-131.283
11
86.0699
21
-131.426
0
LINE
8
BLACK
6
CONTINUOUS
10
86.0699
20
-131.426
11
86.2127
21
-131.712
0
LINE
8
BLACK
6
CONTINUOUS
10
86.2127
20
-131.712
11
86.2127
21
-133.283
0
LINE
8
BLACK
6
CONTINUOUS
10
92.0699
20
-130.14
11
89.4984
21
-133.997
0
LINE
8
BLACK
6
CONTINUOUS
10
95.927
20
-130.283
11
96.2127
21
-130.283
0
LINE
8
BLACK
6
CONTINUOUS
10
96.2127
20
-130.283
11
96.4984
21
-130.426
0
LINE
8
BLACK
6
CONTINUOUS
10
96.4984
20
-130.426
11
96.6413
21
-130.569
0
LINE
8
BLACK
6
CONTINUOUS
10
96.6413
20
-130.569
11
96.7841
21
-130.855
0
LINE
8
BLACK
6
CONTINUOUS
10
96.7841
20
-130.855
11
96.927
21
-131.426
0
LINE
8
BLACK
6
CONTINUOUS
10
96.927
20
-131.426
11
96.927
21
-132.14
0
LINE
8
BLACK
6
CONTINUOUS
10
96.927
20
-132.14
11
96.7841
21
-132.712
0
LINE
8
BLACK
6
CONTINUOUS
10
96.7841
20
-132.712
11
96.6413
21
-132.997
0
LINE
8
BLACK
6
CONTINUOUS
10
96.6413
20
-132.997
11
96.4984
21
-133.14
0
LINE
8
BLACK
6
CONTINUOUS
10
96.4984
20
-133.14
11
96.2127
21
-133.283
0
LINE
8
BLACK
6
CONTINUOUS
10
96.2127
20
-133.283
11
95.927
21
-133.283
0
LINE
8
BLACK
6
CONTINUOUS
10
95.927
20
-133.283
11
95.6413
21
-133.14
0
LINE
8
BLACK
6
CONTINUOUS
10
95.6413
20
-133.14
11
95.4984
21
-132.997
0
LINE
8
BLACK
6
CONTINUOUS
10
95.4984
20
-132.997
11
95.3556
21
-132.712
0
LINE
8
BLACK
6
CONTINUOUS
10
95.3556
20
-132.712
11
95.2127
21
-132.14
0
LINE
8
BLACK
6
CONTINUOUS
10
95.2127
20
-132.14
11
95.2127
21
-131.426
0
LINE
8
BLACK
6
CONTINUOUS
10
95.2127
20
-131.426
11
95.3556
21
-130.855
0
LINE
8
BLACK
6
CONTINUOUS
10
95.3556
20
-130.855
11
95.4984
21
-130.569
0
LINE
8
BLACK
6
CONTINUOUS
10
95.4984
20
-130.569
11
95.6413
21
-130.426
0
LINE
8
BLACK
6
CONTINUOUS
10
95.6413
20
-130.426
11
95.927
21
-130.283
0
LINE
8
BLACK
6
CONTINUOUS
10
98.2127
20
-132.997
11
98.3556
21
-133.14
0
LINE
8
BLACK
6
CONTINUOUS
10
98.3556
20
-133.14
11
98.2127
21
-133.283
0
LINE
8
BLACK
6
CONTINUOUS
10
98.2127
20
-133.283
11
98.0699
21
-133.14
0
LINE
8
BLACK
6
CONTINUOUS
10
98.0699
20
-133.14
11
98.2127
21
-132.997
0
LINE
8
BLACK
6
CONTINUOUS
10
98.2127
20
-132.997
11
98.2127
21
-133.283
0
LINE
8
BLACK
6
CONTINUOUS
10
100.213
20
-130.283
11
100.498
21
-130.283
0
LINE
8
BLACK
6
CONTINUOUS
10
100.498
20
-130.283
11
100.784
21
-130.426
0
LINE
8
BLACK
6
CONTINUOUS
10
100.784
20
-130.426
11
100.927
21
-130.569
0
LINE
8
BLACK
6
CONTINUOUS
10
100.927
20
-130.569
11
101.07
21
-130.855
0
LINE
8
BLACK
6
CONTINUOUS
10
101.07
20
-130.855
11
101.213
21
-131.426
0
LINE
8
BLACK
6
CONTINUOUS
10
101.213
20
-131.426
11
101.213
21
-132.14
0
LINE
8
BLACK
6
CONTINUOUS
10
101.213
20
-132.14
11
101.07
21
-132.712
0
LINE
8
BLACK
6
CONTINUOUS
10
101.07
20
-132.712
11
100.927
21
-132.997
0
LINE
8
BLACK
6
CONTINUOUS
10
100.927
20
-132.997
11
100.784
21
-133.14
0
LINE
8
BLACK
6
CONTINUOUS
10
100.784
20
-133.14
11
100.498
21
-133.283
0
LINE
8
BLACK
6
CONTINUOUS
10
100.498
20
-133.283
11
100.213
21
-133.283
0
LINE
8
BLACK
6
CONTINUOUS
10
100.213
20
-133.283
11
99.927
21
-133.14
0
LINE
8
BLACK
6
CONTINUOUS
10
99.927
20
-133.14
11
99.7841
21
-132.997
0
LINE
8
BLACK
6
CONTINUOUS
10
99.7841
20
-132.997
11
99.6413
21
-132.712
0
LINE
8
BLACK
6
CONTINUOUS
10
99.6413
20
-132.712
11
99.4984
21
-132.14
0
LINE
8
BLACK
6
CONTINUOUS
10
99.4984
20
-132.14
11
99.4984
21
-131.426
0
LINE
8
BLACK
6
CONTINUOUS
10
99.4984
20
-131.426
11
99.6413
21
-130.855
0
LINE
8
BLACK
6
CONTINUOUS
10
99.6413
20
-130.855
11
99.7841
21
-130.569
0
LINE
8
BLACK
6
CONTINUOUS
10
99.7841
20
-130.569
11
99.927
21
-130.426
0
LINE
8
BLACK
6
CONTINUOUS
10
99.927
20
-130.426
11
100.213
21
-130.283
0
LINE
8
BLACK
6
CONTINUOUS
10
102.213
20
-130.283
11
104.07
21
-130.283
0
LINE
8
BLACK
6
CONTINUOUS
10
104.07
20
-130.283
11
103.07
21
-131.426
0
LINE
8
BLACK
6
CONTINUOUS
10
103.07
20
-131.426
11
103.498
21
-131.426
0
LINE
8
BLACK
6
CONTINUOUS
10
103.498
20
-131.426
11
103.784
21
-131.569
0
LINE
8
BLACK
6
CONTINUOUS
10
103.784
20
-131.569
11
103.927
21
-131.712
0
LINE
8
BLACK
6
CONTINUOUS
10
103.927
20
-131.712
11
104.07
21
-131.997
0
LINE
8
BLACK
6
CONTINUOUS
10
104.07
20
-131.997
11
104.07
21
-132.712
0
LINE
8
BLACK
6
CONTINUOUS
10
104.07
20
-132.712
11
103.927
21
-132.997
0
LINE
8
BLACK
6
CONTINUOUS
10
103.927
20
-132.997
11
103.784
21
-133.14
0
LINE
8
BLACK
6
CONTINUOUS
10
103.784
20
-133.14
11
103.498
21
-133.283
0
LINE
8
BLACK
6
CONTINUOUS
10
103.498
20
-133.283
11
102.641
21
-133.283
0
LINE
8
BLACK
6
CONTINUOUS
10
102.641
20
-133.283
11
102.356
21
-133.14
0
LINE
8
BLACK
6
CONTINUOUS
10
102.356
20
-133.14
11
102.213
21
-132.997
0
LINE
8
BLACK
6
CONTINUOUS
10
106.927
20
-133.283
11
105.213
21
-133.283
0
LINE
8
BLACK
6
CONTINUOUS
10
106.07
20
-133.283
11
106.07
21
-130.283
0
LINE
8
BLACK
6
CONTINUOUS
10
106.07
20
-130.283
11
105.784
21
-130.712
0
LINE
8
BLACK
6
CONTINUOUS
10
105.784
20
-130.712
11
105.498
21
-130.997
0
LINE
8
BLACK
6
CONTINUOUS
10
105.498
20
-130.997
11
105.213
21
-131.14
0
LINE
8
BLACK
6
CONTINUOUS
10
108.07
20
-130.283
11
108.07
21
-130.855
0
LINE
8
BLACK
6
CONTINUOUS
10
109.213
20
-130.283
11
109.213
21
-130.855
0
LINE
8
BLACK
6
CONTINUOUS
10
113.641
20
-134.426
11
113.498
21
-134.283
0
LINE
8
BLACK
6
CONTINUOUS
10
113.498
20
-134.283
11
113.213
21
-133.855
0
LINE
8
BLACK
6
CONTINUOUS
10
113.213
20
-133.855
11
113.07
21
-133.569
0
LINE
8
BLACK
6
CONTINUOUS
10
113.07
20
-133.569
11
112.927
21
-133.14
0
LINE
8
BLACK
6
CONTINUOUS
10
112.927
20
-133.14
11
112.784
21
-132.426
0
LINE
8
BLACK
6
CONTINUOUS
10
112.784
20
-132.426
11
112.784
21
-131.855
0
LINE
8
BLACK
6
CONTINUOUS
10
112.784
20
-131.855
11
112.927
21
-131.14
0
LINE
8
BLACK
6
CONTINUOUS
10
112.927
20
-131.14
11
113.07
21
-130.712
0
LINE
8
BLACK
6
CONTINUOUS
10
113.07
20
-130.712
11
113.213
21
-130.426
0
LINE
8
BLACK
6
CONTINUOUS
10
113.213
20
-130.426
11
113.498
21
-129.997
0
LINE
8
BLACK
6
CONTINUOUS
10
113.498
20
-129.997
11
113.641
21
-129.855
0
LINE
8
BLACK
6
CONTINUOUS
10
114.641
20
-130.569
11
114.784
21
-130.426
0
LINE
8
BLACK
6
CONTINUOUS
10
114.784
20
-130.426
11
115.07
21
-130.283
0
LINE
8
BLACK
6
CONTINUOUS
10
115.07
20
-130.283
11
115.784
21
-130.283
0
LINE
8
BLACK
6
CONTINUOUS
10
115.784
20
-130.283
11
116.07
21
-130.426
0
LINE
8
BLACK
6
CONTINUOUS
10
116.07
20
-130.426
11
116.213
21
-130.569
0
LINE
8
BLACK
6
CONTINUOUS
10
116.213
20
-130.569
11
116.356
21
-130.855
0
LINE
8
BLACK
6
CONTINUOUS
10
116.356
20
-130.855
11
116.356
21
-131.14
0
LINE
8
BLACK
6
CONTINUOUS
10
116.356
20
-131.14
11
116.213
21
-131.569
0
LINE
8
BLACK
6
CONTINUOUS
10
116.213
20
-131.569
11
114.498
21
-133.283
0
LINE
8
BLACK
6
CONTINUOUS
10
114.498
20
-133.283
11
116.356
21
-133.283
0
LINE
8
BLACK
6
CONTINUOUS
10
118.213
20
-130.283
11
118.498
21
-130.283
0
LINE
8
BLACK
6
CONTINUOUS
10
118.498
20
-130.283
11
118.784
21
-130.426
0
LINE
8
BLACK
6
CONTINUOUS
10
118.784
20
-130.426
11
118.927
21
-130.569
0
LINE
8
BLACK
6
CONTINUOUS
10
118.927
20
-130.569
11
119.07
21
-130.855
0
LINE
8
BLACK
6
CONTINUOUS
10
119.07
20
-130.855
11
119.213
21
-131.426
0
LINE
8
BLACK
6
CONTINUOUS
10
119.213
20
-131.426
11
119.213
21
-132.14
0
LINE
8
BLACK
6
CONTINUOUS
10
119.213
20
-132.14
11
119.07
21
-132.712
0
LINE
8
BLACK
6
CONTINUOUS
10
119.07
20
-132.712
11
118.927
21
-132.997
0
LINE
8
BLACK
6
CONTINUOUS
10
118.927
20
-132.997
11
118.784
21
-133.14
0
LINE
8
BLACK
6
CONTINUOUS
10
118.784
20
-133.14
11
118.498
21
-133.283
0
LINE
8
BLACK
6
CONTINUOUS
10
118.498
20
-133.283
11
118.213
21
-133.283
0
LINE
8
BLACK
6
CONTINUOUS
10
118.213
20
-133.283
11
117.927
21
-133.14
0
LINE
8
BLACK
6
CONTINUOUS
10
117.927
20
-133.14
11
117.784
21
-132.997
0
LINE
8
BLACK
6
CONTINUOUS
10
117.784
20
-132.997
11
117.641
21
-132.712
0
LINE
8
BLACK
6
CONTINUOUS
10
117.641
20
-132.712
11
117.498
21
-132.14
0
LINE
8
BLACK
6
CONTINUOUS
10
117.498
20
-132.14
11
117.498
21
-131.426
0
LINE
8
BLACK
6
CONTINUOUS
10
117.498
20
-131.426
11
117.641
21
-130.855
0
LINE
8
BLACK
6
CONTINUOUS
10
117.641
20
-130.855
11
117.784
21
-130.569
0
LINE
8
BLACK
6
CONTINUOUS
10
117.784
20
-130.569
11
117.927
21
-130.426
0
LINE
8
BLACK
6
CONTINUOUS
10
117.927
20
-130.426
11
118.213
21
-130.283
0
LINE
8
BLACK
6
CONTINUOUS
10
122.784
20
-133.283
11
122.784
21
-130.283
0
LINE
8
BLACK
6
CONTINUOUS
10
124.07
20
-133.283
11
124.07
21
-131.712
0
LINE
8
BLACK
6
CONTINUOUS
10
124.07
20
-131.712
11
123.927
21
-131.426
0
LINE
8
BLACK
6
CONTINUOUS
10
123.927
20
-131.426
11
123.641
21
-131.283
0
LINE
8
BLACK
6
CONTINUOUS
10
123.641
20
-131.283
11
123.213
21
-131.283
0
LINE
8
BLACK
6
CONTINUOUS
10
123.213
20
-131.283
11
122.927
21
-131.426
0
LINE
8
BLACK
6
CONTINUOUS
10
122.927
20
-131.426
11
122.784
21
-131.569
0
LINE
8
BLACK
6
CONTINUOUS
10
125.927
20
-133.283
11
125.641
21
-133.14
0
LINE
8
BLACK
6
CONTINUOUS
10
125.641
20
-133.14
11
125.498
21
-132.997
0
LINE
8
BLACK
6
CONTINUOUS
10
125.498
20
-132.997
11
125.356
21
-132.712
0
LINE
8
BLACK
6
CONTINUOUS
10
125.356
20
-132.712
11
125.356
21
-131.855
0
LINE
8
BLACK
6
CONTINUOUS
10
125.356
20
-131.855
11
125.498
21
-131.569
0
LINE
8
BLACK
6
CONTINUOUS
10
125.498
20
-131.569
11
125.641
21
-131.426
0
LINE
8
BLACK
6
CONTINUOUS
10
125.641
20
-131.426
11
125.927
21
-131.283
0
LINE
8
BLACK
6
CONTINUOUS
10
125.927
20
-131.283
11
126.356
21
-131.283
0
LINE
8
BLACK
6
CONTINUOUS
10
126.356
20
-131.283
11
126.641
21
-131.426
0
LINE
8
BLACK
6
CONTINUOUS
10
126.641
20
-131.426
11
126.784
21
-131.569
0
LINE
8
BLACK
6
CONTINUOUS
10
126.784
20
-131.569
11
126.927
21
-131.855
0
LINE
8
BLACK
6
CONTINUOUS
10
126.927
20
-131.855
11
126.927
21
-132.712
0
LINE
8
BLACK
6
CONTINUOUS
10
126.927
20
-132.712
11
126.784
21
-132.997
0
LINE
8
BLACK
6
CONTINUOUS
10
126.784
20
-132.997
11
126.641
21
-133.14
0
LINE
8
BLACK
6
CONTINUOUS
10
126.641
20
-133.14
11
126.356
21
-133.283
0
LINE
8
BLACK
6
CONTINUOUS
10
126.356
20
-133.283
11
125.927
21
-133.283
0
LINE
8
BLACK
6
CONTINUOUS
10
128.641
20
-133.283
11
128.356
21
-133.14
0
LINE
8
BLACK
6
CONTINUOUS
10
128.356
20
-133.14
11
128.213
21
-132.855
0
LINE
8
BLACK
6
CONTINUOUS
10
128.213
20
-132.855
11
128.213
21
-130.283
0
LINE
8
BLACK
6
CONTINUOUS
10
130.927
20
-133.14
11
130.641
21
-133.283
0
LINE
8
BLACK
6
CONTINUOUS
10
130.641
20
-133.283
11
130.07
21
-133.283
0
LINE
8
BLACK
6
CONTINUOUS
10
130.07
20
-133.283
11
129.784
21
-133.14
0
LINE
8
BLACK
6
CONTINUOUS
10
129.784
20
-133.14
11
129.641
21
-132.855
0
LINE
8
BLACK
6
CONTINUOUS
10
129.641
20
-132.855
11
129.641
21
-131.712
0
LINE
8
BLACK
6
CONTINUOUS
10
129.641
20
-131.712
11
129.784
21
-131.426
0
LINE
8
BLACK
6
CONTINUOUS
10
129.784
20
-131.426
11
130.07
21
-131.283
0
LINE
8
BLACK
6
CONTINUOUS
10
130.07
20
-131.283
11
130.641
21
-131.283
0
LINE
8
BLACK
6
CONTINUOUS
10
130.641
20
-131.283
11
130.927
21
-131.426
0
LINE
8
BLACK
6
CONTINUOUS
10
130.927
20
-131.426
11
131.07
21
-131.712
0
LINE
8
BLACK
6
CONTINUOUS
10
131.07
20
-131.712
11
131.07
21
-131.997
0
LINE
8
BLACK
6
CONTINUOUS
10
131.07
20
-131.997
11
129.641
21
-132.283
0
LINE
8
BLACK
6
CONTINUOUS
10
132.213
20
-133.14
11
132.498
21
-133.283
0
LINE
8
BLACK
6
CONTINUOUS
10
132.498
20
-133.283
11
133.07
21
-133.283
0
LINE
8
BLACK
6
CONTINUOUS
10
133.07
20
-133.283
11
133.356
21
-133.14
0
LINE
8
BLACK
6
CONTINUOUS
10
133.356
20
-133.14
11
133.498
21
-132.855
0
LINE
8
BLACK
6
CONTINUOUS
10
133.498
20
-132.855
11
133.498
21
-132.712
0
LINE
8
BLACK
6
CONTINUOUS
10
133.498
20
-132.712
11
133.356
21
-132.426
0
LINE
8
BLACK
6
CONTINUOUS
10
133.356
20
-132.426
11
133.07
21
-132.283
0
LINE
8
BLACK
6
CONTINUOUS
10
133.07
20
-132.283
11
132.641
21
-132.283
0
LINE
8
BLACK
6
CONTINUOUS
10
132.641
20
-132.283
11
132.356
21
-132.14
0
LINE
8
BLACK
6
CONTINUOUS
10
132.356
20
-132.14
11
132.213
21
-131.855
0
LINE
8
BLACK
6
CONTINUOUS
10
132.213
20
-131.855
11
132.213
21
-131.712
0
LINE
8
BLACK
6
CONTINUOUS
10
132.213
20
-131.712
11
132.356
21
-131.426
0
LINE
8
BLACK
6
CONTINUOUS
10
132.356
20
-131.426
11
132.641
21
-131.283
0
LINE
8
BLACK
6
CONTINUOUS
10
132.641
20
-131.283
11
133.07
21
-131.283
0
LINE
8
BLACK
6
CONTINUOUS
10
133.07
20
-131.283
11
133.356
21
-131.426
0
LINE
8
BLACK
6
CONTINUOUS
10
134.498
20
-134.426
11
134.641
21
-134.283
0
LINE
8
BLACK
6
CONTINUOUS
10
134.641
20
-134.283
11
134.927
21
-133.855
0
LINE
8
BLACK
6
CONTINUOUS
10
134.927
20
-133.855
11
135.07
21
-133.569
0
LINE
8
BLACK
6
CONTINUOUS
10
135.07
20
-133.569
11
135.213
21
-133.14
0
LINE
8
BLACK
6
CONTINUOUS
10
135.213
20
-133.14
11
135.356
21
-132.426
0
LINE
8
BLACK
6
CONTINUOUS
10
135.356
20
-132.426
11
135.356
21
-131.855
0
LINE
8
BLACK
6
CONTINUOUS
10
135.356
20
-131.855
11
135.213
21
-131.14
0
LINE
8
BLACK
6
CONTINUOUS
10
135.213
20
-131.14
11
135.07
21
-130.712
0
LINE
8
BLACK
6
CONTINUOUS
10
135.07
20
-130.712
11
134.927
21
-130.426
0
LINE
8
BLACK
6
CONTINUOUS
10
134.927
20
-130.426
11
134.641
21
-129.997
0
LINE
8
BLACK
6
CONTINUOUS
10
134.641
20
-129.997
11
134.498
21
-129.855
0
CIRCLE
8
BLACK
10
66.177
20
-135.886
40
0.6
0
LINE
8
BLACK
6
CONTINUOUS
10
71.2127
20
-137.243
11
69.4984
21
-137.243
0
LINE
8
BLACK
6
CONTINUOUS
10
70.3556
20
-137.243
11
70.3556
21
-134.243
0
LINE
8
BLACK
6
CONTINUOUS
10
70.3556
20
-134.243
11
70.0699
21
-134.672
0
LINE
8
BLACK
6
CONTINUOUS
10
70.0699
20
-134.672
11
69.7841
21
-134.957
0
LINE
8
BLACK
6
CONTINUOUS
10
69.7841
20
-134.957
11
69.4984
21
-135.1
0
LINE
8
BLACK
6
CONTINUOUS
10
72.4984
20
-136.957
11
72.6413
21
-137.1
0
LINE
8
BLACK
6
CONTINUOUS
10
72.6413
20
-137.1
11
72.4984
21
-137.243
0
LINE
8
BLACK
6
CONTINUOUS
10
72.4984
20
-137.243
11
72.3556
21
-137.1
0
LINE
8
BLACK
6
CONTINUOUS
10
72.3556
20
-137.1
11
72.4984
21
-136.957
0
LINE
8
BLACK
6
CONTINUOUS
10
72.4984
20
-136.957
11
72.4984
21
-137.243
0
LINE
8
BLACK
6
CONTINUOUS
10
73.7841
20
-134.529
11
73.927
21
-134.386
0
LINE
8
BLACK
6
CONTINUOUS
10
73.927
20
-134.386
11
74.2127
21
-134.243
0
LINE
8
BLACK
6
CONTINUOUS
10
74.2127
20
-134.243
11
74.927
21
-134.243
0
LINE
8
BLACK
6
CONTINUOUS
10
74.927
20
-134.243
11
75.2127
21
-134.386
0
LINE
8
BLACK
6
CONTINUOUS
10
75.2127
20
-134.386
11
75.3556
21
-134.529
0
LINE
8
BLACK
6
CONTINUOUS
10
75.3556
20
-134.529
11
75.4984
21
-134.815
0
LINE
8
BLACK
6
CONTINUOUS
10
75.4984
20
-134.815
11
75.4984
21
-135.1
0
LINE
8
BLACK
6
CONTINUOUS
10
75.4984
20
-135.1
11
75.3556
21
-135.529
0
LINE
8
BLACK
6
CONTINUOUS
10
75.3556
20
-135.529
11
73.6413
21
-137.243
0
LINE
8
BLACK
6
CONTINUOUS
10
73.6413
20
-137.243
11
75.4984
21
-137.243
0
LINE
8
BLACK
6
CONTINUOUS
10
77.3556
20
-134.243
11
77.6413
21
-134.243
0
LINE
8
BLACK
6
CONTINUOUS
10
77.6413
20
-134.243
11
77.927
21
-134.386
0
LINE
8
BLACK
6
CONTINUOUS
10
77.927
20
-134.386
11
78.0699
21
-134.529
0
LINE
8
BLACK
6
CONTINUOUS
10
78.0699
20
-134.529
11
78.2127
21
-134.815
0
LINE
8
BLACK
6
CONTINUOUS
10
78.2127
20
-134.815
11
78.3556
21
-135.386
0
LINE
8
BLACK
6
CONTINUOUS
10
78.3556
20
-135.386
11
78.3556
21
-136.1
0
LINE
8
BLACK
6
CONTINUOUS
10
78.3556
20
-136.1
11
78.2127
21
-136.672
0
LINE
8
BLACK
6
CONTINUOUS
10
78.2127
20
-136.672
11
78.0699
21
-136.957
0
LINE
8
BLACK
6
CONTINUOUS
10
78.0699
20
-136.957
11
77.927
21
-137.1
0
LINE
8
BLACK
6
CONTINUOUS
10
77.927
20
-137.1
11
77.6413
21
-137.243
0
LINE
8
BLACK
6
CONTINUOUS
10
77.6413
20
-137.243
11
77.3556
21
-137.243
0
LINE
8
BLACK
6
CONTINUOUS
10
77.3556
20
-137.243
11
77.0699
21
-137.1
0
LINE
8
BLACK
6
CONTINUOUS
10
77.0699
20
-137.1
11
76.927
21
-136.957
0
LINE
8
BLACK
6
CONTINUOUS
10
76.927
20
-136.957
11
76.7841
21
-136.672
0
LINE
8
BLACK
6
CONTINUOUS
10
76.7841
20
-136.672
11
76.6413
21
-136.1
0
LINE
8
BLACK
6
CONTINUOUS
10
76.6413
20
-136.1
11
76.6413
21
-135.386
0
LINE
8
BLACK
6
CONTINUOUS
10
76.6413
20
-135.386
11
76.7841
21
-134.815
0
LINE
8
BLACK
6
CONTINUOUS
10
76.7841
20
-134.815
11
76.927
21
-134.529
0
LINE
8
BLACK
6
CONTINUOUS
10
76.927
20
-134.529
11
77.0699
21
-134.386
0
LINE
8
BLACK
6
CONTINUOUS
10
77.0699
20
-134.386
11
77.3556
21
-134.243
0
LINE
8
BLACK
6
CONTINUOUS
10
79.6413
20
-137.243
11
79.6413
21
-135.243
0
LINE
8
BLACK
6
CONTINUOUS
10
79.6413
20
-135.529
11
79.7841
21
-135.386
0
LINE
8
BLACK
6
CONTINUOUS
10
79.7841
20
-135.386
11
80.0699
21
-135.243
0
LINE
8
BLACK
6
CONTINUOUS
10
80.0699
20
-135.243
11
80.4984
21
-135.243
0
LINE
8
BLACK
6
CONTINUOUS
10
80.4984
20
-135.243
11
80.7841
21
-135.386
0
LINE
8
BLACK
6
CONTINUOUS
10
80.7841
20
-135.386
11
80.927
21
-135.672
0
LINE
8
BLACK
6
CONTINUOUS
10
80.927
20
-135.672
11
80.927
21
-137.243
0
LINE
8
BLACK
6
CONTINUOUS
10
80.927
20
-135.672
11
81.0699
21
-135.386
0
LINE
8
BLACK
6
CONTINUOUS
10
81.0699
20
-135.386
11
81.3556
21
-135.243
0
LINE
8
BLACK
6
CONTINUOUS
10
81.3556
20
-135.243
11
81.7841
21
-135.243
0
LINE
8
BLACK
6
CONTINUOUS
10
81.7841
20
-135.243
11
82.0699
21
-135.386
0
LINE
8
BLACK
6
CONTINUOUS
10
82.0699
20
-135.386
11
82.2127
21
-135.672
0
LINE
8
BLACK
6
CONTINUOUS
10
82.2127
20
-135.672
11
82.2127
21
-137.243
0
LINE
8
BLACK
6
CONTINUOUS
10
83.6413
20
-137.243
11
83.6413
21
-135.243
0
LINE
8
BLACK
6
CONTINUOUS
10
83.6413
20
-135.529
11
83.7841
21
-135.386
0
LINE
8
BLACK
6
CONTINUOUS
10
83.7841
20
-135.386
11
84.0699
21
-135.243
0
LINE
8
BLACK
6
CONTINUOUS
10
84.0699
20
-135.243
11
84.4984
21
-135.243
0
LINE
8
BLACK
6
CONTINUOUS
10
84.4984
20
-135.243
11
84.7841
21
-135.386
0
LINE
8
BLACK
6
CONTINUOUS
10
84.7841
20
-135.386
11
84.927
21
-135.672
0
LINE
8
BLACK
6
CONTINUOUS
10
84.927
20
-135.672
11
84.927
21
-137.243
0
LINE
8
BLACK
6
CONTINUOUS
10
84.927
20
-135.672
11
85.0699
21
-135.386
0
LINE
8
BLACK
6
CONTINUOUS
10
85.0699
20
-135.386
11
85.3556
21
-135.243
0
LINE
8
BLACK
6
CONTINUOUS
10
85.3556
20
-135.243
11
85.7841
21
-135.243
0
LINE
8
BLACK
6
CONTINUOUS
10
85.7841
20
-135.243
11
86.0699
21
-135.386
0
LINE
8
BLACK
6
CONTINUOUS
10
86.0699
20
-135.386
11
86.2127
21
-135.672
0
LINE
8
BLACK
6
CONTINUOUS
10
86.2127
20
-135.672
11
86.2127
21
-137.243
0
LINE
8
BLACK
6
CONTINUOUS
10
92.0699
20
-134.1
11
89.4984
21
-137.957
0
LINE
8
BLACK
6
CONTINUOUS
10
95.927
20
-134.243
11
96.2127
21
-134.243
0
LINE
8
BLACK
6
CONTINUOUS
10
96.2127
20
-134.243
11
96.4984
21
-134.386
0
LINE
8
BLACK
6
CONTINUOUS
10
96.4984
20
-134.386
11
96.6413
21
-134.529
0
LINE
8
BLACK
6
CONTINUOUS
10
96.6413
20
-134.529
11
96.7841
21
-134.815
0
LINE
8
BLACK
6
CONTINUOUS
10
96.7841
20
-134.815
11
96.927
21
-135.386
0
LINE
8
BLACK
6
CONTINUOUS
10
96.927
20
-135.386
11
96.927
21
-136.1
0
LINE
8
BLACK
6
CONTINUOUS
10
96.927
20
-136.1
11
96.7841
21
-136.672
0
LINE
8
BLACK
6
CONTINUOUS
10
96.7841
20
-136.672
11
96.6413
21
-136.957
0
LINE
8
BLACK
6
CONTINUOUS
10
96.6413
20
-136.957
11
96.4984
21
-137.1
0
LINE
8
BLACK
6
CONTINUOUS
10
96.4984
20
-137.1
11
96.2127
21
-137.243
0
LINE
8
BLACK
6
CONTINUOUS
10
96.2127
20
-137.243
11
95.927
21
-137.243
0
LINE
8
BLACK
6
CONTINUOUS
10
95.927
20
-137.243
11
95.6413
21
-137.1
0
LINE
8
BLACK
6
CONTINUOUS
10
95.6413
20
-137.1
11
95.4984
21
-136.957
0
LINE
8
BLACK
6
CONTINUOUS
10
95.4984
20
-136.957
11
95.3556
21
-136.672
0
LINE
8
BLACK
6
CONTINUOUS
10
95.3556
20
-136.672
11
95.2127
21
-136.1
0
LINE
8
BLACK
6
CONTINUOUS
10
95.2127
20
-136.1
11
95.2127
21
-135.386
0
LINE
8
BLACK
6
CONTINUOUS
10
95.2127
20
-135.386
11
95.3556
21
-134.815
0
LINE
8
BLACK
6
CONTINUOUS
10
95.3556
20
-134.815
11
95.4984
21
-134.529
0
LINE
8
BLACK
6
CONTINUOUS
10
95.4984
20
-134.529
11
95.6413
21
-134.386
0
LINE
8
BLACK
6
CONTINUOUS
10
95.6413
20
-134.386
11
95.927
21
-134.243
0
LINE
8
BLACK
6
CONTINUOUS
10
98.2127
20
-136.957
11
98.3556
21
-137.1
0
LINE
8
BLACK
6
CONTINUOUS
10
98.3556
20
-137.1
11
98.2127
21
-137.243
0
LINE
8
BLACK
6
CONTINUOUS
10
98.2127
20
-137.243
11
98.0699
21
-137.1
0
LINE
8
BLACK
6
CONTINUOUS
10
98.0699
20
-137.1
11
98.2127
21
-136.957
0
LINE
8
BLACK
6
CONTINUOUS
10
98.2127
20
-136.957
11
98.2127
21
-137.243
0
LINE
8
BLACK
6
CONTINUOUS
10
100.213
20
-134.243
11
100.498
21
-134.243
0
LINE
8
BLACK
6
CONTINUOUS
10
100.498
20
-134.243
11
100.784
21
-134.386
0
LINE
8
BLACK
6
CONTINUOUS
10
100.784
20
-134.386
11
100.927
21
-134.529
0
LINE
8
BLACK
6
CONTINUOUS
10
100.927
20
-134.529
11
101.07
21
-134.815
0
LINE
8
BLACK
6
CONTINUOUS
10
101.07
20
-134.815
11
101.213
21
-135.386
0
LINE
8
BLACK
6
CONTINUOUS
10
101.213
20
-135.386
11
101.213
21
-136.1
0
LINE
8
BLACK
6
CONTINUOUS
10
101.213
20
-136.1
11
101.07
21
-136.672
0
LINE
8
BLACK
6
CONTINUOUS
10
101.07
20
-136.672
11
100.927
21
-136.957
0
LINE
8
BLACK
6
CONTINUOUS
10
100.927
20
-136.957
11
100.784
21
-137.1
0
LINE
8
BLACK
6
CONTINUOUS
10
100.784
20
-137.1
11
100.498
21
-137.243
0
LINE
8
BLACK
6
CONTINUOUS
10
100.498
20
-137.243
11
100.213
21
-137.243
0
LINE
8
BLACK
6
CONTINUOUS
10
100.213
20
-137.243
11
99.927
21
-137.1
0
LINE
8
BLACK
6
CONTINUOUS
10
99.927
20
-137.1
11
99.7841
21
-136.957
0
LINE
8
BLACK
6
CONTINUOUS
10
99.7841
20
-136.957
11
99.6413
21
-136.672
0
LINE
8
BLACK
6
CONTINUOUS
10
99.6413
20
-136.672
11
99.4984
21
-136.1
0
LINE
8
BLACK
6
CONTINUOUS
10
99.4984
20
-136.1
11
99.4984
21
-135.386
0
LINE
8
BLACK
6
CONTINUOUS
10
99.4984
20
-135.386
11
99.6413
21
-134.815
0
LINE
8
BLACK
6
CONTINUOUS
10
99.6413
20
-134.815
11
99.7841
21
-134.529
0
LINE
8
BLACK
6
CONTINUOUS
10
99.7841
20
-134.529
11
99.927
21
-134.386
0
LINE
8
BLACK
6
CONTINUOUS
10
99.927
20
-134.386
11
100.213
21
-134.243
0
LINE
8
BLACK
6
CONTINUOUS
10
103.784
20
-135.243
11
103.784
21
-137.243
0
LINE
8
BLACK
6
CONTINUOUS
10
103.07
20
-134.1
11
102.356
21
-136.243
0
LINE
8
BLACK
6
CONTINUOUS
10
102.356
20
-136.243
11
104.213
21
-136.243
0
LINE
8
BLACK
6
CONTINUOUS
10
105.07
20
-134.243
11
107.07
21
-134.243
0
LINE
8
BLACK
6
CONTINUOUS
10
107.07
20
-134.243
11
105.784
21
-137.243
0
LINE
8
BLACK
6
CONTINUOUS
10
108.07
20
-134.243
11
108.07
21
-134.815
0
LINE
8
BLACK
6
CONTINUOUS
10
109.213
20
-134.243
11
109.213
21
-134.815
0
LINE
8
BLACK
6
CONTINUOUS
10
113.641
20
-138.386
11
113.498
21
-138.243
0
LINE
8
BLACK
6
CONTINUOUS
10
113.498
20
-138.243
11
113.213
21
-137.815
0
LINE
8
BLACK
6
CONTINUOUS
10
113.213
20
-137.815
11
113.07
21
-137.529
0
LINE
8
BLACK
6
CONTINUOUS
10
113.07
20
-137.529
11
112.927
21
-137.1
0
LINE
8
BLACK
6
CONTINUOUS
10
112.927
20
-137.1
11
112.784
21
-136.386
0
LINE
8
BLACK
6
CONTINUOUS
10
112.784
20
-136.386
11
112.784
21
-135.815
0
LINE
8
BLACK
6
CONTINUOUS
10
112.784
20
-135.815
11
112.927
21
-135.1
0
LINE
8
BLACK
6
CONTINUOUS
10
112.927
20
-135.1
11
113.07
21
-134.672
0
LINE
8
BLACK
6
CONTINUOUS
10
113.07
20
-134.672
11
113.213
21
-134.386
0
LINE
8
BLACK
6
CONTINUOUS
10
113.213
20
-134.386
11
113.498
21
-133.957
0
LINE
8
BLACK
6
CONTINUOUS
10
113.498
20
-133.957
11
113.641
21
-133.815
0
LINE
8
BLACK
6
CONTINUOUS
10
116.07
20
-135.243
11
116.07
21
-137.243
0
LINE
8
BLACK
6
CONTINUOUS
10
115.356
20
-134.1
11
114.641
21
-136.243
0
LINE
8
BLACK
6
CONTINUOUS
10
114.641
20
-136.243
11
116.498
21
-136.243
0
LINE
8
BLACK
6
CONTINUOUS
10
117.356
20
-134.243
11
119.356
21
-134.243
0
LINE
8
BLACK
6
CONTINUOUS
10
119.356
20
-134.243
11
118.07
21
-137.243
0
LINE
8
BLACK
6
CONTINUOUS
10
122.784
20
-137.243
11
122.784
21
-134.243
0
LINE
8
BLACK
6
CONTINUOUS
10
124.07
20
-137.243
11
124.07
21
-135.672
0
LINE
8
BLACK
6
CONTINUOUS
10
124.07
20
-135.672
11
123.927
21
-135.386
0
LINE
8
BLACK
6
CONTINUOUS
10
123.927
20
-135.386
11
123.641
21
-135.243
0
LINE
8
BLACK
6
CONTINUOUS
10
123.641
20
-135.243
11
123.213
21
-135.243
0
LINE
8
BLACK
6
CONTINUOUS
10
123.213
20
-135.243
11
122.927
21
-135.386
0
LINE
8
BLACK
6
CONTINUOUS
10
122.927
20
-135.386
11
122.784
21
-135.529
0
LINE
8
BLACK
6
CONTINUOUS
10
125.927
20
-137.243
11
125.641
21
-137.1
0
LINE
8
BLACK
6
CONTINUOUS
10
125.641
20
-137.1
11
125.498
21
-136.957
0
LINE
8
BLACK
6
CONTINUOUS
10
125.498
20
-136.957
11
125.356
21
-136.672
0
LINE
8
BLACK
6
CONTINUOUS
10
125.356
20
-136.672
11
125.356
21
-135.815
0
LINE
8
BLACK
6
CONTINUOUS
10
125.356
20
-135.815
11
125.498
21
-135.529
0
LINE
8
BLACK
6
CONTINUOUS
10
125.498
20
-135.529
11
125.641
21
-135.386
0
LINE
8
BLACK
6
CONTINUOUS
10
125.641
20
-135.386
11
125.927
21
-135.243
0
LINE
8
BLACK
6
CONTINUOUS
10
125.927
20
-135.243
11
126.356
21
-135.243
0
LINE
8
BLACK
6
CONTINUOUS
10
126.356
20
-135.243
11
126.641
21
-135.386
0
LINE
8
BLACK
6
CONTINUOUS
10
126.641
20
-135.386
11
126.784
21
-135.529
0
LINE
8
BLACK
6
CONTINUOUS
10
126.784
20
-135.529
11
126.927
21
-135.815
0
LINE
8
BLACK
6
CONTINUOUS
10
126.927
20
-135.815
11
126.927
21
-136.672
0
LINE
8
BLACK
6
CONTINUOUS
10
126.927
20
-136.672
11
126.784
21
-136.957
0
LINE
8
BLACK
6
CONTINUOUS
10
126.784
20
-136.957
11
126.641
21
-137.1
0
LINE
8
BLACK
6
CONTINUOUS
10
126.641
20
-137.1
11
126.356
21
-137.243
0
LINE
8
BLACK
6
CONTINUOUS
10
126.356
20
-137.243
11
125.927
21
-137.243
0
LINE
8
BLACK
6
CONTINUOUS
10
128.641
20
-137.243
11
128.356
21
-137.1
0
LINE
8
BLACK
6
CONTINUOUS
10
128.356
20
-137.1
11
128.213
21
-136.815
0
LINE
8
BLACK
6
CONTINUOUS
10
128.213
20
-136.815
11
128.213
21
-134.243
0
LINE
8
BLACK
6
CONTINUOUS
10
130.927
20
-137.1
11
130.641
21
-137.243
0
LINE
8
BLACK
6
CONTINUOUS
10
130.641
20
-137.243
11
130.07
21
-137.243
0
LINE
8
BLACK
6
CONTINUOUS
10
130.07
20
-137.243
11
129.784
21
-137.1
0
LINE
8
BLACK
6
CONTINUOUS
10
129.784
20
-137.1
11
129.641
21
-136.815
0
LINE
8
BLACK
6
CONTINUOUS
10
129.641
20
-136.815
11
129.641
21
-135.672
0
LINE
8
BLACK
6
CONTINUOUS
10
129.641
20
-135.672
11
129.784
21
-135.386
0
LINE
8
BLACK
6
CONTINUOUS
10
129.784
20
-135.386
11
130.07
21
-135.243
0
LINE
8
BLACK
6
CONTINUOUS
10
130.07
20
-135.243
11
130.641
21
-135.243
0
LINE
8
BLACK
6
CONTINUOUS
10
130.641
20
-135.243
11
130.927
21
-135.386
0
LINE
8
BLACK
6
CONTINUOUS
10
130.927
20
-135.386
11
131.07
21
-135.672
0
LINE
8
BLACK
6
CONTINUOUS
10
131.07
20
-135.672
11
131.07
21
-135.957
0
LINE
8
BLACK
6
CONTINUOUS
10
131.07
20
-135.957
11
129.641
21
-136.243
0
LINE
8
BLACK
6
CONTINUOUS
10
132.213
20
-137.1
11
132.498
21
-137.243
0
LINE
8
BLACK
6
CONTINUOUS
10
132.498
20
-137.243
11
133.07
21
-137.243
0
LINE
8
BLACK
6
CONTINUOUS
10
133.07
20
-137.243
11
133.356
21
-137.1
0
LINE
8
BLACK
6
CONTINUOUS
10
133.356
20
-137.1
11
133.498
21
-136.815
0
LINE
8
BLACK
6
CONTINUOUS
10
133.498
20
-136.815
11
133.498
21
-136.672
0
LINE
8
BLACK
6
CONTINUOUS
10
133.498
20
-136.672
11
133.356
21
-136.386
0
LINE
8
BLACK
6
CONTINUOUS
10
133.356
20
-136.386
11
133.07
21
-136.243
0
LINE
8
BLACK
6
CONTINUOUS
10
133.07
20
-136.243
11
132.641
21
-136.243
0
LINE
8
BLACK
6
CONTINUOUS
10
132.641
20
-136.243
11
132.356
21
-136.1
0
LINE
8
BLACK
6
CONTINUOUS
10
132.356
20
-136.1
11
132.213
21
-135.815
0
LINE
8
BLACK
6
CONTINUOUS
10
132.213
20
-135.815
11
132.213
21
-135.672
0
LINE
8
BLACK
6
CONTINUOUS
10
132.213
20
-135.672
11
132.356
21
-135.386
0
LINE
8
BLACK
6
CONTINUOUS
10
132.356
20
-135.386
11
132.641
21
-135.243
0
LINE
8
BLACK
6
CONTINUOUS
10
132.641
20
-135.243
11
133.07
21
-135.243
0
LINE
8
BLACK
6
CONTINUOUS
10
133.07
20
-135.243
11
133.356
21
-135.386
0
LINE
8
BLACK
6
CONTINUOUS
10
134.498
20
-138.386
11
134.641
21
-138.243
0
LINE
8
BLACK
6
CONTINUOUS
10
134.641
20
-138.243
11
134.927
21
-137.815
0
LINE
8
BLACK
6
CONTINUOUS
10
134.927
20
-137.815
11
135.07
21
-137.529
0
LINE
8
BLACK
6
CONTINUOUS
10
135.07
20
-137.529
11
135.213
21
-137.1
0
LINE
8
BLACK
6
CONTINUOUS
10
135.213
20
-137.1
11
135.356
21
-136.386
0
LINE
8
BLACK
6
CONTINUOUS
10
135.356
20
-136.386
11
135.356
21
-135.815
0
LINE
8
BLACK
6
CONTINUOUS
10
135.356
20
-135.815
11
135.213
21
-135.1
0
LINE
8
BLACK
6
CONTINUOUS
10
135.213
20
-135.1
11
135.07
21
-134.672
0
LINE
8
BLACK
6
CONTINUOUS
10
135.07
20
-134.672
11
134.927
21
-134.386
0
LINE
8
BLACK
6
CONTINUOUS
10
134.927
20
-134.386
11
134.641
21
-133.957
0
LINE
8
BLACK
6
CONTINUOUS
10
134.641
20
-133.957
11
134.498
21
-133.815
  0
ENDSEC
  0
EOF
