  0
SECTION
  2
HEADER
  9
$ANGBASE
  50
0.0
  9
$ANGDIR
  70
1
  9
$MEASUREMENT
  70
1
  0
ENDSEC
  0
SECTION
  2
TABLES
  0
TABLE
  2
LTYPE
  70
4
  0
LTYPE
  5
40F
  2
CONTINUOUS
  70
0
  3
Solid line
  72
65
  73
0
  40
0.0
  0
LTYPE
  5
410
  2
DASHDOT
 70
0
  3
Dash Dot ____ _ ____ _
 72
65
 73
4
 40
2.0
 49
1.25
 49
-0.25
 49
0.25
 49
-0.25
  0
LTYPE
  5
411
  2
DASHED
 70
0
  3
Dashed __ __ __ __ __
 72
65
 73
2
 40
0.75
 49
0.5
 49
-0.25
  0
LTYPE
  5
43B
  2
DOTTED
 70
0
  3
Dotted .  .  .  .
 72
65
 73
2
 40
0.2
 49
0.0
 49
-0.2
  0
ENDTAB
  0
TABLE
  2
STYLE
  70
4
  0
STYLE
  2
KICAD
  70
0
  40
0
  41
1
  42
1
  50
0
  71
0
  3
isocp.shx
  0
STYLE
  2
KICADB
  70
0
  40
0
  41
1
  42
1
  50
0
  71
0
  3
isocp.shx
  0
STYLE
  2
KICADI
  70
0
  40
0
  41
1
  42
1
  50
15
  71
0
  3
isocp.shx
  0
STYLE
  2
KICADBI
  70
0
  40
0
  41
1
  42
1
  50
15
  71
0
  3
isocp.shx
  0
ENDTAB
  0
TABLE
  2
LAYER
  70
1
  0
LAYER
  2
BLACK
  70
0
  62
7
  6
CONTINUOUS
  0
ENDTAB
  0
ENDSEC
  0
SECTION
  2
ENTITIES
0
LINE
8
BLACK
6
CONTINUOUS
10
50.546
20
-79.756
11
50.546
21
-144.907
0
LINE
8
BLACK
6
CONTINUOUS
10
118.745
20
-144.907
11
50.546
21
-144.907
0
LINE
8
BLACK
6
CONTINUOUS
10
118.745
20
-79.756
11
118.745
21
-144.907
0
LINE
8
BLACK
6
CONTINUOUS
10
50.546
20
-79.756
11
118.745
21
-79.756
0
LINE
8
BLACK
6
CONTINUOUS
10
99.741
20
-131.186
11
102.941
21
-134.386
0
LINE
8
BLACK
6
CONTINUOUS
10
102.941
20
-131.186
11
99.741
21
-134.386
0
LINE
8
BLACK
6
CONTINUOUS
10
99.741
20
-91.186
11
102.941
21
-94.386
0
LINE
8
BLACK
6
CONTINUOUS
10
102.941
20
-91.186
11
99.741
21
-94.386
0
LINE
8
BLACK
6
CONTINUOUS
10
59.741
20
-131.186
11
62.941
21
-134.386
0
LINE
8
BLACK
6
CONTINUOUS
10
62.941
20
-131.186
11
59.741
21
-134.386
0
LINE
8
BLACK
6
CONTINUOUS
10
59.741
20
-91.186
11
62.941
21
-94.386
0
LINE
8
BLACK
6
CONTINUOUS
10
62.941
20
-91.186
11
59.741
21
-94.386
0
LINE
8
BLACK
6
CONTINUOUS
10
53.3853
20
-149.589
11
53.3853
21
-146.589
0
LINE
8
BLACK
6
CONTINUOUS
10
53.3853
20
-146.589
11
54.0996
21
-146.589
0
LINE
8
BLACK
6
CONTINUOUS
10
54.0996
20
-146.589
11
54.5281
21
-146.732
0
LINE
8
BLACK
6
CONTINUOUS
10
54.5281
20
-146.732
11
54.8139
21
-147.018
0
LINE
8
BLACK
6
CONTINUOUS
10
54.8139
20
-147.018
11
54.9567
21
-147.303
0
LINE
8
BLACK
6
CONTINUOUS
10
54.9567
20
-147.303
11
55.0996
21
-147.875
0
LINE
8
BLACK
6
CONTINUOUS
10
55.0996
20
-147.875
11
55.0996
21
-148.303
0
LINE
8
BLACK
6
CONTINUOUS
10
55.0996
20
-148.303
11
54.9567
21
-148.875
0
LINE
8
BLACK
6
CONTINUOUS
10
54.9567
20
-148.875
11
54.8139
21
-149.161
0
LINE
8
BLACK
6
CONTINUOUS
10
54.8139
20
-149.161
11
54.5281
21
-149.446
0
LINE
8
BLACK
6
CONTINUOUS
10
54.5281
20
-149.446
11
54.0996
21
-149.589
0
LINE
8
BLACK
6
CONTINUOUS
10
54.0996
20
-149.589
11
53.3853
21
-149.589
0
LINE
8
BLACK
6
CONTINUOUS
10
56.3853
20
-149.589
11
56.3853
21
-147.589
0
LINE
8
BLACK
6
CONTINUOUS
10
56.3853
20
-148.161
11
56.5281
21
-147.875
0
LINE
8
BLACK
6
CONTINUOUS
10
56.5281
20
-147.875
11
56.671
21
-147.732
0
LINE
8
BLACK
6
CONTINUOUS
10
56.671
20
-147.732
11
56.9567
21
-147.589
0
LINE
8
BLACK
6
CONTINUOUS
10
56.9567
20
-147.589
11
57.2424
21
-147.589
0
LINE
8
BLACK
6
CONTINUOUS
10
58.2424
20
-149.589
11
58.2424
21
-147.589
0
LINE
8
BLACK
6
CONTINUOUS
10
58.2424
20
-146.589
11
58.0996
21
-146.732
0
LINE
8
BLACK
6
CONTINUOUS
10
58.0996
20
-146.732
11
58.2424
21
-146.875
0
LINE
8
BLACK
6
CONTINUOUS
10
58.2424
20
-146.875
11
58.3853
21
-146.732
0
LINE
8
BLACK
6
CONTINUOUS
10
58.3853
20
-146.732
11
58.2424
21
-146.589
0
LINE
8
BLACK
6
CONTINUOUS
10
58.2424
20
-146.589
11
58.2424
21
-146.875
0
LINE
8
BLACK
6
CONTINUOUS
10
60.0996
20
-149.589
11
59.8139
21
-149.446
0
LINE
8
BLACK
6
CONTINUOUS
10
59.8139
20
-149.446
11
59.671
21
-149.161
0
LINE
8
BLACK
6
CONTINUOUS
10
59.671
20
-149.161
11
59.671
21
-146.589
0
LINE
8
BLACK
6
CONTINUOUS
10
61.671
20
-149.589
11
61.3853
21
-149.446
0
LINE
8
BLACK
6
CONTINUOUS
10
61.3853
20
-149.446
11
61.2424
21
-149.161
0
LINE
8
BLACK
6
CONTINUOUS
10
61.2424
20
-149.161
11
61.2424
21
-146.589
0
LINE
8
BLACK
6
CONTINUOUS
10
65.0996
20
-149.589
11
65.0996
21
-146.589
0
LINE
8
BLACK
6
CONTINUOUS
10
65.0996
20
-146.589
11
66.0996
21
-148.732
0
LINE
8
BLACK
6
CONTINUOUS
10
66.0996
20
-148.732
11
67.0996
21
-146.589
0
LINE
8
BLACK
6
CONTINUOUS
10
67.0996
20
-146.589
11
67.0996
21
-149.589
0
LINE
8
BLACK
6
CONTINUOUS
10
69.8139
20
-149.589
11
69.8139
21
-148.018
0
LINE
8
BLACK
6
CONTINUOUS
10
69.8139
20
-148.018
11
69.671
21
-147.732
0
LINE
8
BLACK
6
CONTINUOUS
10
69.671
20
-147.732
11
69.3853
21
-147.589
0
LINE
8
BLACK
6
CONTINUOUS
10
69.3853
20
-147.589
11
68.8139
21
-147.589
0
LINE
8
BLACK
6
CONTINUOUS
10
68.8139
20
-147.589
11
68.5281
21
-147.732
0
LINE
8
BLACK
6
CONTINUOUS
10
69.8139
20
-149.446
11
69.5281
21
-149.589
0
LINE
8
BLACK
6
CONTINUOUS
10
69.5281
20
-149.589
11
68.8139
21
-149.589
0
LINE
8
BLACK
6
CONTINUOUS
10
68.8139
20
-149.589
11
68.5281
21
-149.446
0
LINE
8
BLACK
6
CONTINUOUS
10
68.5281
20
-149.446
11
68.3853
21
-149.161
0
LINE
8
BLACK
6
CONTINUOUS
10
68.3853
20
-149.161
11
68.3853
21
-148.875
0
LINE
8
BLACK
6
CONTINUOUS
10
68.3853
20
-148.875
11
68.5281
21
-148.589
0
LINE
8
BLACK
6
CONTINUOUS
10
68.5281
20
-148.589
11
68.8139
21
-148.446
0
LINE
8
BLACK
6
CONTINUOUS
10
68.8139
20
-148.446
11
69.5281
21
-148.446
0
LINE
8
BLACK
6
CONTINUOUS
10
69.5281
20
-148.446
11
69.8139
21
-148.303
0
LINE
8
BLACK
6
CONTINUOUS
10
71.2424
20
-147.589
11
71.2424
21
-150.589
0
LINE
8
BLACK
6
CONTINUOUS
10
71.2424
20
-147.732
11
71.5281
21
-147.589
0
LINE
8
BLACK
6
CONTINUOUS
10
71.5281
20
-147.589
11
72.0996
21
-147.589
0
LINE
8
BLACK
6
CONTINUOUS
10
72.0996
20
-147.589
11
72.3853
21
-147.732
0
LINE
8
BLACK
6
CONTINUOUS
10
72.3853
20
-147.732
11
72.5281
21
-147.875
0
LINE
8
BLACK
6
CONTINUOUS
10
72.5281
20
-147.875
11
72.671
21
-148.161
0
LINE
8
BLACK
6
CONTINUOUS
10
72.671
20
-148.161
11
72.671
21
-149.018
0
LINE
8
BLACK
6
CONTINUOUS
10
72.671
20
-149.018
11
72.5281
21
-149.303
0
LINE
8
BLACK
6
CONTINUOUS
10
72.5281
20
-149.303
11
72.3853
21
-149.446
0
LINE
8
BLACK
6
CONTINUOUS
10
72.3853
20
-149.446
11
72.0996
21
-149.589
0
LINE
8
BLACK
6
CONTINUOUS
10
72.0996
20
-149.589
11
71.5281
21
-149.589
0
LINE
8
BLACK
6
CONTINUOUS
10
71.5281
20
-149.589
11
71.2424
21
-149.446
0
LINE
8
BLACK
6
CONTINUOUS
10
73.9567
20
-149.303
11
74.0996
21
-149.446
0
LINE
8
BLACK
6
CONTINUOUS
10
74.0996
20
-149.446
11
73.9567
21
-149.589
0
LINE
8
BLACK
6
CONTINUOUS
10
73.9567
20
-149.589
11
73.8139
21
-149.446
0
LINE
8
BLACK
6
CONTINUOUS
10
73.8139
20
-149.446
11
73.9567
21
-149.303
0
LINE
8
BLACK
6
CONTINUOUS
10
73.9567
20
-149.303
11
73.9567
21
-149.589
0
LINE
8
BLACK
6
CONTINUOUS
10
73.9567
20
-147.732
11
74.0996
21
-147.875
0
LINE
8
BLACK
6
CONTINUOUS
10
74.0996
20
-147.875
11
73.9567
21
-148.018
0
LINE
8
BLACK
6
CONTINUOUS
10
73.9567
20
-148.018
11
73.8139
21
-147.875
0
LINE
8
BLACK
6
CONTINUOUS
10
73.8139
20
-147.875
11
73.9567
21
-147.732
0
LINE
8
BLACK
6
CONTINUOUS
10
73.9567
20
-147.732
11
73.9567
21
-148.018
0
LINE
8
BLACK
6
CONTINUOUS
10
47.321
20
-152.932
11
50.521
21
-156.132
0
LINE
8
BLACK
6
CONTINUOUS
10
50.521
20
-152.932
11
47.321
21
-156.132
0
LINE
8
BLACK
6
CONTINUOUS
10
53.0996
20
-152.889
11
54.9567
21
-152.889
0
LINE
8
BLACK
6
CONTINUOUS
10
54.9567
20
-152.889
11
53.9567
21
-154.032
0
LINE
8
BLACK
6
CONTINUOUS
10
53.9567
20
-154.032
11
54.3853
21
-154.032
0
LINE
8
BLACK
6
CONTINUOUS
10
54.3853
20
-154.032
11
54.671
21
-154.175
0
LINE
8
BLACK
6
CONTINUOUS
10
54.671
20
-154.175
11
54.8139
21
-154.318
0
LINE
8
BLACK
6
CONTINUOUS
10
54.8139
20
-154.318
11
54.9567
21
-154.603
0
LINE
8
BLACK
6
CONTINUOUS
10
54.9567
20
-154.603
11
54.9567
21
-155.318
0
LINE
8
BLACK
6
CONTINUOUS
10
54.9567
20
-155.318
11
54.8139
21
-155.603
0
LINE
8
BLACK
6
CONTINUOUS
10
54.8139
20
-155.603
11
54.671
21
-155.746
0
LINE
8
BLACK
6
CONTINUOUS
10
54.671
20
-155.746
11
54.3853
21
-155.889
0
LINE
8
BLACK
6
CONTINUOUS
10
54.3853
20
-155.889
11
53.5281
21
-155.889
0
LINE
8
BLACK
6
CONTINUOUS
10
53.5281
20
-155.889
11
53.2424
21
-155.746
0
LINE
8
BLACK
6
CONTINUOUS
10
53.2424
20
-155.746
11
53.0996
21
-155.603
0
LINE
8
BLACK
6
CONTINUOUS
10
56.2424
20
-155.603
11
56.3853
21
-155.746
0
LINE
8
BLACK
6
CONTINUOUS
10
56.3853
20
-155.746
11
56.2424
21
-155.889
0
LINE
8
BLACK
6
CONTINUOUS
10
56.2424
20
-155.889
11
56.0996
21
-155.746
0
LINE
8
BLACK
6
CONTINUOUS
10
56.0996
20
-155.746
11
56.2424
21
-155.603
0
LINE
8
BLACK
6
CONTINUOUS
10
56.2424
20
-155.603
11
56.2424
21
-155.889
0
LINE
8
BLACK
6
CONTINUOUS
10
57.5281
20
-153.175
11
57.671
21
-153.032
0
LINE
8
BLACK
6
CONTINUOUS
10
57.671
20
-153.032
11
57.9567
21
-152.889
0
LINE
8
BLACK
6
CONTINUOUS
10
57.9567
20
-152.889
11
58.671
21
-152.889
0
LINE
8
BLACK
6
CONTINUOUS
10
58.671
20
-152.889
11
58.9567
21
-153.032
0
LINE
8
BLACK
6
CONTINUOUS
10
58.9567
20
-153.032
11
59.0996
21
-153.175
0
LINE
8
BLACK
6
CONTINUOUS
10
59.0996
20
-153.175
11
59.2424
21
-153.461
0
LINE
8
BLACK
6
CONTINUOUS
10
59.2424
20
-153.461
11
59.2424
21
-153.746
0
LINE
8
BLACK
6
CONTINUOUS
10
59.2424
20
-153.746
11
59.0996
21
-154.175
0
LINE
8
BLACK
6
CONTINUOUS
10
59.0996
20
-154.175
11
57.3853
21
-155.889
0
LINE
8
BLACK
6
CONTINUOUS
10
57.3853
20
-155.889
11
59.2424
21
-155.889
0
LINE
8
BLACK
6
CONTINUOUS
10
61.0996
20
-152.889
11
61.3853
21
-152.889
0
LINE
8
BLACK
6
CONTINUOUS
10
61.3853
20
-152.889
11
61.671
21
-153.032
0
LINE
8
BLACK
6
CONTINUOUS
10
61.671
20
-153.032
11
61.8139
21
-153.175
0
LINE
8
BLACK
6
CONTINUOUS
10
61.8139
20
-153.175
11
61.9567
21
-153.461
0
LINE
8
BLACK
6
CONTINUOUS
10
61.9567
20
-153.461
11
62.0996
21
-154.032
0
LINE
8
BLACK
6
CONTINUOUS
10
62.0996
20
-154.032
11
62.0996
21
-154.746
0
LINE
8
BLACK
6
CONTINUOUS
10
62.0996
20
-154.746
11
61.9567
21
-155.318
0
LINE
8
BLACK
6
CONTINUOUS
10
61.9567
20
-155.318
11
61.8139
21
-155.603
0
LINE
8
BLACK
6
CONTINUOUS
10
61.8139
20
-155.603
11
61.671
21
-155.746
0
LINE
8
BLACK
6
CONTINUOUS
10
61.671
20
-155.746
11
61.3853
21
-155.889
0
LINE
8
BLACK
6
CONTINUOUS
10
61.3853
20
-155.889
11
61.0996
21
-155.889
0
LINE
8
BLACK
6
CONTINUOUS
10
61.0996
20
-155.889
11
60.8139
21
-155.746
0
LINE
8
BLACK
6
CONTINUOUS
10
60.8139
20
-155.746
11
60.671
21
-155.603
0
LINE
8
BLACK
6
CONTINUOUS
10
60.671
20
-155.603
11
60.5281
21
-155.318
0
LINE
8
BLACK
6
CONTINUOUS
10
60.5281
20
-155.318
11
60.3853
21
-154.746
0
LINE
8
BLACK
6
CONTINUOUS
10
60.3853
20
-154.746
11
60.3853
21
-154.032
0
LINE
8
BLACK
6
CONTINUOUS
10
60.3853
20
-154.032
11
60.5281
21
-153.461
0
LINE
8
BLACK
6
CONTINUOUS
10
60.5281
20
-153.461
11
60.671
21
-153.175
0
LINE
8
BLACK
6
CONTINUOUS
10
60.671
20
-153.175
11
60.8139
21
-153.032
0
LINE
8
BLACK
6
CONTINUOUS
10
60.8139
20
-153.032
11
61.0996
21
-152.889
0
LINE
8
BLACK
6
CONTINUOUS
10
63.3853
20
-155.889
11
63.3853
21
-153.889
0
LINE
8
BLACK
6
CONTINUOUS
10
63.3853
20
-154.175
11
63.5281
21
-154.032
0
LINE
8
BLACK
6
CONTINUOUS
10
63.5281
20
-154.032
11
63.8139
21
-153.889
0
LINE
8
BLACK
6
CONTINUOUS
10
63.8139
20
-153.889
11
64.2424
21
-153.889
0
LINE
8
BLACK
6
CONTINUOUS
10
64.2424
20
-153.889
11
64.5281
21
-154.032
0
LINE
8
BLACK
6
CONTINUOUS
10
64.5281
20
-154.032
11
64.671
21
-154.318
0
LINE
8
BLACK
6
CONTINUOUS
10
64.671
20
-154.318
11
64.671
21
-155.889
0
LINE
8
BLACK
6
CONTINUOUS
10
64.671
20
-154.318
11
64.8139
21
-154.032
0
LINE
8
BLACK
6
CONTINUOUS
10
64.8139
20
-154.032
11
65.0996
21
-153.889
0
LINE
8
BLACK
6
CONTINUOUS
10
65.0996
20
-153.889
11
65.5281
21
-153.889
0
LINE
8
BLACK
6
CONTINUOUS
10
65.5281
20
-153.889
11
65.8139
21
-154.032
0
LINE
8
BLACK
6
CONTINUOUS
10
65.8139
20
-154.032
11
65.9567
21
-154.318
0
LINE
8
BLACK
6
CONTINUOUS
10
65.9567
20
-154.318
11
65.9567
21
-155.889
0
LINE
8
BLACK
6
CONTINUOUS
10
67.3853
20
-155.889
11
67.3853
21
-153.889
0
LINE
8
BLACK
6
CONTINUOUS
10
67.3853
20
-154.175
11
67.5281
21
-154.032
0
LINE
8
BLACK
6
CONTINUOUS
10
67.5281
20
-154.032
11
67.8139
21
-153.889
0
LINE
8
BLACK
6
CONTINUOUS
10
67.8139
20
-153.889
11
68.2424
21
-153.889
0
LINE
8
BLACK
6
CONTINUOUS
10
68.2424
20
-153.889
11
68.5281
21
-154.032
0
LINE
8
BLACK
6
CONTINUOUS
10
68.5281
20
-154.032
11
68.671
21
-154.318
0
LINE
8
BLACK
6
CONTINUOUS
10
68.671
20
-154.318
11
68.671
21
-155.889
0
LINE
8
BLACK
6
CONTINUOUS
10
68.671
20
-154.318
11
68.8139
21
-154.032
0
LINE
8
BLACK
6
CONTINUOUS
10
68.8139
20
-154.032
11
69.0996
21
-153.889
0
LINE
8
BLACK
6
CONTINUOUS
10
69.0996
20
-153.889
11
69.5281
21
-153.889
0
LINE
8
BLACK
6
CONTINUOUS
10
69.5281
20
-153.889
11
69.8139
21
-154.032
0
LINE
8
BLACK
6
CONTINUOUS
10
69.8139
20
-154.032
11
69.9567
21
-154.318
0
LINE
8
BLACK
6
CONTINUOUS
10
69.9567
20
-154.318
11
69.9567
21
-155.889
0
LINE
8
BLACK
6
CONTINUOUS
10
75.8139
20
-152.746
11
73.2424
21
-156.603
0
LINE
8
BLACK
6
CONTINUOUS
10
79.671
20
-152.889
11
79.9567
21
-152.889
0
LINE
8
BLACK
6
CONTINUOUS
10
79.9567
20
-152.889
11
80.2424
21
-153.032
0
LINE
8
BLACK
6
CONTINUOUS
10
80.2424
20
-153.032
11
80.3853
21
-153.175
0
LINE
8
BLACK
6
CONTINUOUS
10
80.3853
20
-153.175
11
80.5281
21
-153.461
0
LINE
8
BLACK
6
CONTINUOUS
10
80.5281
20
-153.461
11
80.671
21
-154.032
0
LINE
8
BLACK
6
CONTINUOUS
10
80.671
20
-154.032
11
80.671
21
-154.746
0
LINE
8
BLACK
6
CONTINUOUS
10
80.671
20
-154.746
11
80.5281
21
-155.318
0
LINE
8
BLACK
6
CONTINUOUS
10
80.5281
20
-155.318
11
80.3853
21
-155.603
0
LINE
8
BLACK
6
CONTINUOUS
10
80.3853
20
-155.603
11
80.2424
21
-155.746
0
LINE
8
BLACK
6
CONTINUOUS
10
80.2424
20
-155.746
11
79.9567
21
-155.889
0
LINE
8
BLACK
6
CONTINUOUS
10
79.9567
20
-155.889
11
79.671
21
-155.889
0
LINE
8
BLACK
6
CONTINUOUS
10
79.671
20
-155.889
11
79.3853
21
-155.746
0
LINE
8
BLACK
6
CONTINUOUS
10
79.3853
20
-155.746
11
79.2424
21
-155.603
0
LINE
8
BLACK
6
CONTINUOUS
10
79.2424
20
-155.603
11
79.0996
21
-155.318
0
LINE
8
BLACK
6
CONTINUOUS
10
79.0996
20
-155.318
11
78.9567
21
-154.746
0
LINE
8
BLACK
6
CONTINUOUS
10
78.9567
20
-154.746
11
78.9567
21
-154.032
0
LINE
8
BLACK
6
CONTINUOUS
10
78.9567
20
-154.032
11
79.0996
21
-153.461
0
LINE
8
BLACK
6
CONTINUOUS
10
79.0996
20
-153.461
11
79.2424
21
-153.175
0
LINE
8
BLACK
6
CONTINUOUS
10
79.2424
20
-153.175
11
79.3853
21
-153.032
0
LINE
8
BLACK
6
CONTINUOUS
10
79.3853
20
-153.032
11
79.671
21
-152.889
0
LINE
8
BLACK
6
CONTINUOUS
10
81.9567
20
-155.603
11
82.0996
21
-155.746
0
LINE
8
BLACK
6
CONTINUOUS
10
82.0996
20
-155.746
11
81.9567
21
-155.889
0
LINE
8
BLACK
6
CONTINUOUS
10
81.9567
20
-155.889
11
81.8139
21
-155.746
0
LINE
8
BLACK
6
CONTINUOUS
10
81.8139
20
-155.746
11
81.9567
21
-155.603
0
LINE
8
BLACK
6
CONTINUOUS
10
81.9567
20
-155.603
11
81.9567
21
-155.889
0
LINE
8
BLACK
6
CONTINUOUS
10
84.9567
20
-155.889
11
83.2424
21
-155.889
0
LINE
8
BLACK
6
CONTINUOUS
10
84.0996
20
-155.889
11
84.0996
21
-152.889
0
LINE
8
BLACK
6
CONTINUOUS
10
84.0996
20
-152.889
11
83.8139
21
-153.318
0
LINE
8
BLACK
6
CONTINUOUS
10
83.8139
20
-153.318
11
83.5281
21
-153.603
0
LINE
8
BLACK
6
CONTINUOUS
10
83.5281
20
-153.603
11
83.2424
21
-153.746
0
LINE
8
BLACK
6
CONTINUOUS
10
86.0996
20
-153.175
11
86.2424
21
-153.032
0
LINE
8
BLACK
6
CONTINUOUS
10
86.2424
20
-153.032
11
86.5281
21
-152.889
0
LINE
8
BLACK
6
CONTINUOUS
10
86.5281
20
-152.889
11
87.2424
21
-152.889
0
LINE
8
BLACK
6
CONTINUOUS
10
87.2424
20
-152.889
11
87.5281
21
-153.032
0
LINE
8
BLACK
6
CONTINUOUS
10
87.5281
20
-153.032
11
87.671
21
-153.175
0
LINE
8
BLACK
6
CONTINUOUS
10
87.671
20
-153.175
11
87.8139
21
-153.461
0
LINE
8
BLACK
6
CONTINUOUS
10
87.8139
20
-153.461
11
87.8139
21
-153.746
0
LINE
8
BLACK
6
CONTINUOUS
10
87.8139
20
-153.746
11
87.671
21
-154.175
0
LINE
8
BLACK
6
CONTINUOUS
10
87.671
20
-154.175
11
85.9567
21
-155.889
0
LINE
8
BLACK
6
CONTINUOUS
10
85.9567
20
-155.889
11
87.8139
21
-155.889
0
LINE
8
BLACK
6
CONTINUOUS
10
90.3853
20
-152.889
11
89.8139
21
-152.889
0
LINE
8
BLACK
6
CONTINUOUS
10
89.8139
20
-152.889
11
89.5281
21
-153.032
0
LINE
8
BLACK
6
CONTINUOUS
10
89.5281
20
-153.032
11
89.3853
21
-153.175
0
LINE
8
BLACK
6
CONTINUOUS
10
89.3853
20
-153.175
11
89.0996
21
-153.603
0
LINE
8
BLACK
6
CONTINUOUS
10
89.0996
20
-153.603
11
88.9567
21
-154.175
0
LINE
8
BLACK
6
CONTINUOUS
10
88.9567
20
-154.175
11
88.9567
21
-155.318
0
LINE
8
BLACK
6
CONTINUOUS
10
88.9567
20
-155.318
11
89.0996
21
-155.603
0
LINE
8
BLACK
6
CONTINUOUS
10
89.0996
20
-155.603
11
89.2424
21
-155.746
0
LINE
8
BLACK
6
CONTINUOUS
10
89.2424
20
-155.746
11
89.5281
21
-155.889
0
LINE
8
BLACK
6
CONTINUOUS
10
89.5281
20
-155.889
11
90.0996
21
-155.889
0
LINE
8
BLACK
6
CONTINUOUS
10
90.0996
20
-155.889
11
90.3853
21
-155.746
0
LINE
8
BLACK
6
CONTINUOUS
10
90.3853
20
-155.746
11
90.5281
21
-155.603
0
LINE
8
BLACK
6
CONTINUOUS
10
90.5281
20
-155.603
11
90.671
21
-155.318
0
LINE
8
BLACK
6
CONTINUOUS
10
90.671
20
-155.318
11
90.671
21
-154.603
0
LINE
8
BLACK
6
CONTINUOUS
10
90.671
20
-154.603
11
90.5281
21
-154.318
0
LINE
8
BLACK
6
CONTINUOUS
10
90.5281
20
-154.318
11
90.3853
21
-154.175
0
LINE
8
BLACK
6
CONTINUOUS
10
90.3853
20
-154.175
11
90.0996
21
-154.032
0
LINE
8
BLACK
6
CONTINUOUS
10
90.0996
20
-154.032
11
89.5281
21
-154.032
0
LINE
8
BLACK
6
CONTINUOUS
10
89.5281
20
-154.032
11
89.2424
21
-154.175
0
LINE
8
BLACK
6
CONTINUOUS
10
89.2424
20
-154.175
11
89.0996
21
-154.318
0
LINE
8
BLACK
6
CONTINUOUS
10
89.0996
20
-154.318
11
88.9567
21
-154.603
0
LINE
8
BLACK
6
CONTINUOUS
10
91.8139
20
-152.889
11
91.8139
21
-153.461
0
LINE
8
BLACK
6
CONTINUOUS
10
92.9567
20
-152.889
11
92.9567
21
-153.461
0
LINE
8
BLACK
6
CONTINUOUS
10
97.3853
20
-157.032
11
97.2424
21
-156.889
0
LINE
8
BLACK
6
CONTINUOUS
10
97.2424
20
-156.889
11
96.9567
21
-156.461
0
LINE
8
BLACK
6
CONTINUOUS
10
96.9567
20
-156.461
11
96.8139
21
-156.175
0
LINE
8
BLACK
6
CONTINUOUS
10
96.8139
20
-156.175
11
96.671
21
-155.746
0
LINE
8
BLACK
6
CONTINUOUS
10
96.671
20
-155.746
11
96.5281
21
-155.032
0
LINE
8
BLACK
6
CONTINUOUS
10
96.5281
20
-155.032
11
96.5281
21
-154.461
0
LINE
8
BLACK
6
CONTINUOUS
10
96.5281
20
-154.461
11
96.671
21
-153.746
0
LINE
8
BLACK
6
CONTINUOUS
10
96.671
20
-153.746
11
96.8139
21
-153.318
0
LINE
8
BLACK
6
CONTINUOUS
10
96.8139
20
-153.318
11
96.9567
21
-153.032
0
LINE
8
BLACK
6
CONTINUOUS
10
96.9567
20
-153.032
11
97.2424
21
-152.603
0
LINE
8
BLACK
6
CONTINUOUS
10
97.2424
20
-152.603
11
97.3853
21
-152.461
0
LINE
8
BLACK
6
CONTINUOUS
10
99.8139
20
-153.889
11
99.8139
21
-155.889
0
LINE
8
BLACK
6
CONTINUOUS
10
99.0996
20
-152.746
11
98.3853
21
-154.889
0
LINE
8
BLACK
6
CONTINUOUS
10
98.3853
20
-154.889
11
100.242
21
-154.889
0
LINE
8
BLACK
6
CONTINUOUS
10
103.671
20
-155.889
11
103.671
21
-152.889
0
LINE
8
BLACK
6
CONTINUOUS
10
104.957
20
-155.889
11
104.957
21
-154.318
0
LINE
8
BLACK
6
CONTINUOUS
10
104.957
20
-154.318
11
104.814
21
-154.032
0
LINE
8
BLACK
6
CONTINUOUS
10
104.814
20
-154.032
11
104.528
21
-153.889
0
LINE
8
BLACK
6
CONTINUOUS
10
104.528
20
-153.889
11
104.1
21
-153.889
0
LINE
8
BLACK
6
CONTINUOUS
10
104.1
20
-153.889
11
103.814
21
-154.032
0
LINE
8
BLACK
6
CONTINUOUS
10
103.814
20
-154.032
11
103.671
21
-154.175
0
LINE
8
BLACK
6
CONTINUOUS
10
106.814
20
-155.889
11
106.528
21
-155.746
0
LINE
8
BLACK
6
CONTINUOUS
10
106.528
20
-155.746
11
106.385
21
-155.603
0
LINE
8
BLACK
6
CONTINUOUS
10
106.385
20
-155.603
11
106.242
21
-155.318
0
LINE
8
BLACK
6
CONTINUOUS
10
106.242
20
-155.318
11
106.242
21
-154.461
0
LINE
8
BLACK
6
CONTINUOUS
10
106.242
20
-154.461
11
106.385
21
-154.175
0
LINE
8
BLACK
6
CONTINUOUS
10
106.385
20
-154.175
11
106.528
21
-154.032
0
LINE
8
BLACK
6
CONTINUOUS
10
106.528
20
-154.032
11
106.814
21
-153.889
0
LINE
8
BLACK
6
CONTINUOUS
10
106.814
20
-153.889
11
107.242
21
-153.889
0
LINE
8
BLACK
6
CONTINUOUS
10
107.242
20
-153.889
11
107.528
21
-154.032
0
LINE
8
BLACK
6
CONTINUOUS
10
107.528
20
-154.032
11
107.671
21
-154.175
0
LINE
8
BLACK
6
CONTINUOUS
10
107.671
20
-154.175
11
107.814
21
-154.461
0
LINE
8
BLACK
6
CONTINUOUS
10
107.814
20
-154.461
11
107.814
21
-155.318
0
LINE
8
BLACK
6
CONTINUOUS
10
107.814
20
-155.318
11
107.671
21
-155.603
0
LINE
8
BLACK
6
CONTINUOUS
10
107.671
20
-155.603
11
107.528
21
-155.746
0
LINE
8
BLACK
6
CONTINUOUS
10
107.528
20
-155.746
11
107.242
21
-155.889
0
LINE
8
BLACK
6
CONTINUOUS
10
107.242
20
-155.889
11
106.814
21
-155.889
0
LINE
8
BLACK
6
CONTINUOUS
10
109.528
20
-155.889
11
109.242
21
-155.746
0
LINE
8
BLACK
6
CONTINUOUS
10
109.242
20
-155.746
11
109.1
21
-155.461
0
LINE
8
BLACK
6
CONTINUOUS
10
109.1
20
-155.461
11
109.1
21
-152.889
0
LINE
8
BLACK
6
CONTINUOUS
10
111.814
20
-155.746
11
111.528
21
-155.889
0
LINE
8
BLACK
6
CONTINUOUS
10
111.528
20
-155.889
11
110.957
21
-155.889
0
LINE
8
BLACK
6
CONTINUOUS
10
110.957
20
-155.889
11
110.671
21
-155.746
0
LINE
8
BLACK
6
CONTINUOUS
10
110.671
20
-155.746
11
110.528
21
-155.461
0
LINE
8
BLACK
6
CONTINUOUS
10
110.528
20
-155.461
11
110.528
21
-154.318
0
LINE
8
BLACK
6
CONTINUOUS
10
110.528
20
-154.318
11
110.671
21
-154.032
0
LINE
8
BLACK
6
CONTINUOUS
10
110.671
20
-154.032
11
110.957
21
-153.889
0
LINE
8
BLACK
6
CONTINUOUS
10
110.957
20
-153.889
11
111.528
21
-153.889
0
LINE
8
BLACK
6
CONTINUOUS
10
111.528
20
-153.889
11
111.814
21
-154.032
0
LINE
8
BLACK
6
CONTINUOUS
10
111.814
20
-154.032
11
111.957
21
-154.318
0
LINE
8
BLACK
6
CONTINUOUS
10
111.957
20
-154.318
11
111.957
21
-154.603
0
LINE
8
BLACK
6
CONTINUOUS
10
111.957
20
-154.603
11
110.528
21
-154.889
0
LINE
8
BLACK
6
CONTINUOUS
10
113.1
20
-155.746
11
113.385
21
-155.889
0
LINE
8
BLACK
6
CONTINUOUS
10
113.385
20
-155.889
11
113.957
21
-155.889
0
LINE
8
BLACK
6
CONTINUOUS
10
113.957
20
-155.889
11
114.242
21
-155.746
0
LINE
8
BLACK
6
CONTINUOUS
10
114.242
20
-155.746
11
114.385
21
-155.461
0
LINE
8
BLACK
6
CONTINUOUS
10
114.385
20
-155.461
11
114.385
21
-155.318
0
LINE
8
BLACK
6
CONTINUOUS
10
114.385
20
-155.318
11
114.242
21
-155.032
0
LINE
8
BLACK
6
CONTINUOUS
10
114.242
20
-155.032
11
113.957
21
-154.889
0
LINE
8
BLACK
6
CONTINUOUS
10
113.957
20
-154.889
11
113.528
21
-154.889
0
LINE
8
BLACK
6
CONTINUOUS
10
113.528
20
-154.889
11
113.242
21
-154.746
0
LINE
8
BLACK
6
CONTINUOUS
10
113.242
20
-154.746
11
113.1
21
-154.461
0
LINE
8
BLACK
6
CONTINUOUS
10
113.1
20
-154.461
11
113.1
21
-154.318
0
LINE
8
BLACK
6
CONTINUOUS
10
113.1
20
-154.318
11
113.242
21
-154.032
0
LINE
8
BLACK
6
CONTINUOUS
10
113.242
20
-154.032
11
113.528
21
-153.889
0
LINE
8
BLACK
6
CONTINUOUS
10
113.528
20
-153.889
11
113.957
21
-153.889
0
LINE
8
BLACK
6
CONTINUOUS
10
113.957
20
-153.889
11
114.242
21
-154.032
0
LINE
8
BLACK
6
CONTINUOUS
10
115.385
20
-157.032
11
115.528
21
-156.889
0
LINE
8
BLACK
6
CONTINUOUS
10
115.528
20
-156.889
11
115.814
21
-156.461
0
LINE
8
BLACK
6
CONTINUOUS
10
115.814
20
-156.461
11
115.957
21
-156.175
0
LINE
8
BLACK
6
CONTINUOUS
10
115.957
20
-156.175
11
116.1
21
-155.746
0
LINE
8
BLACK
6
CONTINUOUS
10
116.1
20
-155.746
11
116.242
21
-155.032
0
LINE
8
BLACK
6
CONTINUOUS
10
116.242
20
-155.032
11
116.242
21
-154.461
0
LINE
8
BLACK
6
CONTINUOUS
10
116.242
20
-154.461
11
116.1
21
-153.746
0
LINE
8
BLACK
6
CONTINUOUS
10
116.1
20
-153.746
11
115.957
21
-153.318
0
LINE
8
BLACK
6
CONTINUOUS
10
115.957
20
-153.318
11
115.814
21
-153.032
0
LINE
8
BLACK
6
CONTINUOUS
10
115.814
20
-153.032
11
115.528
21
-152.603
0
LINE
8
BLACK
6
CONTINUOUS
10
115.528
20
-152.603
11
115.385
21
-152.461
0
LINE
8
BLACK
6
CONTINUOUS
10
120.814
20
-157.032
11
120.671
21
-156.889
0
LINE
8
BLACK
6
CONTINUOUS
10
120.671
20
-156.889
11
120.385
21
-156.461
0
LINE
8
BLACK
6
CONTINUOUS
10
120.385
20
-156.461
11
120.242
21
-156.175
0
LINE
8
BLACK
6
CONTINUOUS
10
120.242
20
-156.175
11
120.1
21
-155.746
0
LINE
8
BLACK
6
CONTINUOUS
10
120.1
20
-155.746
11
119.957
21
-155.032
0
LINE
8
BLACK
6
CONTINUOUS
10
119.957
20
-155.032
11
119.957
21
-154.461
0
LINE
8
BLACK
6
CONTINUOUS
10
119.957
20
-154.461
11
120.1
21
-153.746
0
LINE
8
BLACK
6
CONTINUOUS
10
120.1
20
-153.746
11
120.242
21
-153.318
0
LINE
8
BLACK
6
CONTINUOUS
10
120.242
20
-153.318
11
120.385
21
-153.032
0
LINE
8
BLACK
6
CONTINUOUS
10
120.385
20
-153.032
11
120.671
21
-152.603
0
LINE
8
BLACK
6
CONTINUOUS
10
120.671
20
-152.603
11
120.814
21
-152.461
0
LINE
8
BLACK
6
CONTINUOUS
10
121.957
20
-153.889
11
121.957
21
-155.889
0
LINE
8
BLACK
6
CONTINUOUS
10
121.957
20
-154.175
11
122.1
21
-154.032
0
LINE
8
BLACK
6
CONTINUOUS
10
122.1
20
-154.032
11
122.385
21
-153.889
0
LINE
8
BLACK
6
CONTINUOUS
10
122.385
20
-153.889
11
122.814
21
-153.889
0
LINE
8
BLACK
6
CONTINUOUS
10
122.814
20
-153.889
11
123.1
21
-154.032
0
LINE
8
BLACK
6
CONTINUOUS
10
123.1
20
-154.032
11
123.242
21
-154.318
0
LINE
8
BLACK
6
CONTINUOUS
10
123.242
20
-154.318
11
123.242
21
-155.889
0
LINE
8
BLACK
6
CONTINUOUS
10
125.1
20
-155.889
11
124.814
21
-155.746
0
LINE
8
BLACK
6
CONTINUOUS
10
124.814
20
-155.746
11
124.671
21
-155.603
0
LINE
8
BLACK
6
CONTINUOUS
10
124.671
20
-155.603
11
124.528
21
-155.318
0
LINE
8
BLACK
6
CONTINUOUS
10
124.528
20
-155.318
11
124.528
21
-154.461
0
LINE
8
BLACK
6
CONTINUOUS
10
124.528
20
-154.461
11
124.671
21
-154.175
0
LINE
8
BLACK
6
CONTINUOUS
10
124.671
20
-154.175
11
124.814
21
-154.032
0
LINE
8
BLACK
6
CONTINUOUS
10
124.814
20
-154.032
11
125.1
21
-153.889
0
LINE
8
BLACK
6
CONTINUOUS
10
125.1
20
-153.889
11
125.528
21
-153.889
0
LINE
8
BLACK
6
CONTINUOUS
10
125.528
20
-153.889
11
125.814
21
-154.032
0
LINE
8
BLACK
6
CONTINUOUS
10
125.814
20
-154.032
11
125.957
21
-154.175
0
LINE
8
BLACK
6
CONTINUOUS
10
125.957
20
-154.175
11
126.1
21
-154.461
0
LINE
8
BLACK
6
CONTINUOUS
10
126.1
20
-154.461
11
126.1
21
-155.318
0
LINE
8
BLACK
6
CONTINUOUS
10
126.1
20
-155.318
11
125.957
21
-155.603
0
LINE
8
BLACK
6
CONTINUOUS
10
125.957
20
-155.603
11
125.814
21
-155.746
0
LINE
8
BLACK
6
CONTINUOUS
10
125.814
20
-155.746
11
125.528
21
-155.889
0
LINE
8
BLACK
6
CONTINUOUS
10
125.528
20
-155.889
11
125.1
21
-155.889
0
LINE
8
BLACK
6
CONTINUOUS
10
126.957
20
-153.889
11
128.1
21
-153.889
0
LINE
8
BLACK
6
CONTINUOUS
10
127.385
20
-152.889
11
127.385
21
-155.461
0
LINE
8
BLACK
6
CONTINUOUS
10
127.385
20
-155.461
11
127.528
21
-155.746
0
LINE
8
BLACK
6
CONTINUOUS
10
127.528
20
-155.746
11
127.814
21
-155.889
0
LINE
8
BLACK
6
CONTINUOUS
10
127.814
20
-155.889
11
128.1
21
-155.889
0
LINE
8
BLACK
6
CONTINUOUS
10
131.385
20
-153.889
11
131.385
21
-156.889
0
LINE
8
BLACK
6
CONTINUOUS
10
131.385
20
-154.032
11
131.671
21
-153.889
0
LINE
8
BLACK
6
CONTINUOUS
10
131.671
20
-153.889
11
132.242
21
-153.889
0
LINE
8
BLACK
6
CONTINUOUS
10
132.242
20
-153.889
11
132.528
21
-154.032
0
LINE
8
BLACK
6
CONTINUOUS
10
132.528
20
-154.032
11
132.671
21
-154.175
0
LINE
8
BLACK
6
CONTINUOUS
10
132.671
20
-154.175
11
132.814
21
-154.461
0
LINE
8
BLACK
6
CONTINUOUS
10
132.814
20
-154.461
11
132.814
21
-155.318
0
LINE
8
BLACK
6
CONTINUOUS
10
132.814
20
-155.318
11
132.671
21
-155.603
0
LINE
8
BLACK
6
CONTINUOUS
10
132.671
20
-155.603
11
132.528
21
-155.746
0
LINE
8
BLACK
6
CONTINUOUS
10
132.528
20
-155.746
11
132.242
21
-155.889
0
LINE
8
BLACK
6
CONTINUOUS
10
132.242
20
-155.889
11
131.671
21
-155.889
0
LINE
8
BLACK
6
CONTINUOUS
10
131.671
20
-155.889
11
131.385
21
-155.746
0
LINE
8
BLACK
6
CONTINUOUS
10
134.528
20
-155.889
11
134.242
21
-155.746
0
LINE
8
BLACK
6
CONTINUOUS
10
134.242
20
-155.746
11
134.1
21
-155.461
0
LINE
8
BLACK
6
CONTINUOUS
10
134.1
20
-155.461
11
134.1
21
-152.889
0
LINE
8
BLACK
6
CONTINUOUS
10
136.957
20
-155.889
11
136.957
21
-154.318
0
LINE
8
BLACK
6
CONTINUOUS
10
136.957
20
-154.318
11
136.814
21
-154.032
0
LINE
8
BLACK
6
CONTINUOUS
10
136.814
20
-154.032
11
136.528
21
-153.889
0
LINE
8
BLACK
6
CONTINUOUS
10
136.528
20
-153.889
11
135.957
21
-153.889
0
LINE
8
BLACK
6
CONTINUOUS
10
135.957
20
-153.889
11
135.671
21
-154.032
0
LINE
8
BLACK
6
CONTINUOUS
10
136.957
20
-155.746
11
136.671
21
-155.889
0
LINE
8
BLACK
6
CONTINUOUS
10
136.671
20
-155.889
11
135.957
21
-155.889
0
LINE
8
BLACK
6
CONTINUOUS
10
135.957
20
-155.889
11
135.671
21
-155.746
0
LINE
8
BLACK
6
CONTINUOUS
10
135.671
20
-155.746
11
135.528
21
-155.461
0
LINE
8
BLACK
6
CONTINUOUS
10
135.528
20
-155.461
11
135.528
21
-155.175
0
LINE
8
BLACK
6
CONTINUOUS
10
135.528
20
-155.175
11
135.671
21
-154.889
0
LINE
8
BLACK
6
CONTINUOUS
10
135.671
20
-154.889
11
135.957
21
-154.746
0
LINE
8
BLACK
6
CONTINUOUS
10
135.957
20
-154.746
11
136.671
21
-154.746
0
LINE
8
BLACK
6
CONTINUOUS
10
136.671
20
-154.746
11
136.957
21
-154.603
0
LINE
8
BLACK
6
CONTINUOUS
10
137.957
20
-153.889
11
139.1
21
-153.889
0
LINE
8
BLACK
6
CONTINUOUS
10
138.385
20
-152.889
11
138.385
21
-155.461
0
LINE
8
BLACK
6
CONTINUOUS
10
138.385
20
-155.461
11
138.528
21
-155.746
0
LINE
8
BLACK
6
CONTINUOUS
10
138.528
20
-155.746
11
138.814
21
-155.889
0
LINE
8
BLACK
6
CONTINUOUS
10
138.814
20
-155.889
11
139.1
21
-155.889
0
LINE
8
BLACK
6
CONTINUOUS
10
141.242
20
-155.746
11
140.957
21
-155.889
0
LINE
8
BLACK
6
CONTINUOUS
10
140.957
20
-155.889
11
140.385
21
-155.889
0
LINE
8
BLACK
6
CONTINUOUS
10
140.385
20
-155.889
11
140.1
21
-155.746
0
LINE
8
BLACK
6
CONTINUOUS
10
140.1
20
-155.746
11
139.957
21
-155.461
0
LINE
8
BLACK
6
CONTINUOUS
10
139.957
20
-155.461
11
139.957
21
-154.318
0
LINE
8
BLACK
6
CONTINUOUS
10
139.957
20
-154.318
11
140.1
21
-154.032
0
LINE
8
BLACK
6
CONTINUOUS
10
140.1
20
-154.032
11
140.385
21
-153.889
0
LINE
8
BLACK
6
CONTINUOUS
10
140.385
20
-153.889
11
140.957
21
-153.889
0
LINE
8
BLACK
6
CONTINUOUS
10
140.957
20
-153.889
11
141.242
21
-154.032
0
LINE
8
BLACK
6
CONTINUOUS
10
141.242
20
-154.032
11
141.385
21
-154.318
0
LINE
8
BLACK
6
CONTINUOUS
10
141.385
20
-154.318
11
141.385
21
-154.603
0
LINE
8
BLACK
6
CONTINUOUS
10
141.385
20
-154.603
11
139.957
21
-154.889
0
LINE
8
BLACK
6
CONTINUOUS
10
143.957
20
-155.889
11
143.957
21
-152.889
0
LINE
8
BLACK
6
CONTINUOUS
10
143.957
20
-155.746
11
143.671
21
-155.889
0
LINE
8
BLACK
6
CONTINUOUS
10
143.671
20
-155.889
11
143.1
21
-155.889
0
LINE
8
BLACK
6
CONTINUOUS
10
143.1
20
-155.889
11
142.814
21
-155.746
0
LINE
8
BLACK
6
CONTINUOUS
10
142.814
20
-155.746
11
142.671
21
-155.603
0
LINE
8
BLACK
6
CONTINUOUS
10
142.671
20
-155.603
11
142.528
21
-155.318
0
LINE
8
BLACK
6
CONTINUOUS
10
142.528
20
-155.318
11
142.528
21
-154.461
0
LINE
8
BLACK
6
CONTINUOUS
10
142.528
20
-154.461
11
142.671
21
-154.175
0
LINE
8
BLACK
6
CONTINUOUS
10
142.671
20
-154.175
11
142.814
21
-154.032
0
LINE
8
BLACK
6
CONTINUOUS
10
142.814
20
-154.032
11
143.1
21
-153.889
0
LINE
8
BLACK
6
CONTINUOUS
10
143.1
20
-153.889
11
143.671
21
-153.889
0
LINE
8
BLACK
6
CONTINUOUS
10
143.671
20
-153.889
11
143.957
21
-154.032
0
LINE
8
BLACK
6
CONTINUOUS
10
145.1
20
-157.032
11
145.242
21
-156.889
0
LINE
8
BLACK
6
CONTINUOUS
10
145.242
20
-156.889
11
145.528
21
-156.461
0
LINE
8
BLACK
6
CONTINUOUS
10
145.528
20
-156.461
11
145.671
21
-156.175
0
LINE
8
BLACK
6
CONTINUOUS
10
145.671
20
-156.175
11
145.814
21
-155.746
0
LINE
8
BLACK
6
CONTINUOUS
10
145.814
20
-155.746
11
145.957
21
-155.032
0
LINE
8
BLACK
6
CONTINUOUS
10
145.957
20
-155.032
11
145.957
21
-154.461
0
LINE
8
BLACK
6
CONTINUOUS
10
145.957
20
-154.461
11
145.814
21
-153.746
0
LINE
8
BLACK
6
CONTINUOUS
10
145.814
20
-153.746
11
145.671
21
-153.318
0
LINE
8
BLACK
6
CONTINUOUS
10
145.671
20
-153.318
11
145.528
21
-153.032
0
LINE
8
BLACK
6
CONTINUOUS
10
145.528
20
-153.032
11
145.242
21
-152.603
0
LINE
8
BLACK
6
CONTINUOUS
10
145.242
20
-152.603
11
145.1
21
-152.461
  0
ENDSEC
  0
EOF
