%TF.GenerationSoftware,KiCad,Pcbnew,(6.0.7-1)-1*%
%TF.CreationDate,2023-10-29T11:35:44+10:00*%
%TF.ProjectId,HYD ISO Panel PCB V2,48594420-4953-44f2-9050-616e656c2050,rev?*%
%TF.SameCoordinates,Original*%
%TF.FileFunction,Copper,L1,Top*%
%TF.FilePolarity,Positive*%
%FSLAX46Y46*%
G04 Gerber Fmt 4.6, Leading zero omitted, Abs format (unit mm)*
G04 Created by KiCad (PCBNEW (6.0.7-1)-1) date 2023-10-29 11:35:44*
%MOMM*%
%LPD*%
G01*
G04 APERTURE LIST*
G04 Aperture macros list*
%AMRoundRect*
0 Rectangle with rounded corners*
0 $1 Rounding radius*
0 $2 $3 $4 $5 $6 $7 $8 $9 X,Y pos of 4 corners*
0 Add a 4 corners polygon primitive as box body*
4,1,4,$2,$3,$4,$5,$6,$7,$8,$9,$2,$3,0*
0 Add four circle primitives for the rounded corners*
1,1,$1+$1,$2,$3*
1,1,$1+$1,$4,$5*
1,1,$1+$1,$6,$7*
1,1,$1+$1,$8,$9*
0 Add four rect primitives between the rounded corners*
20,1,$1+$1,$2,$3,$4,$5,0*
20,1,$1+$1,$4,$5,$6,$7,0*
20,1,$1+$1,$6,$7,$8,$9,0*
20,1,$1+$1,$8,$9,$2,$3,0*%
%AMRotRect*
0 Rectangle, with rotation*
0 The origin of the aperture is its center*
0 $1 length*
0 $2 width*
0 $3 Rotation angle, in degrees counterclockwise*
0 Add horizontal line*
21,1,$1,$2,0,0,$3*%
G04 Aperture macros list end*
%TA.AperFunction,ComponentPad*%
%ADD10RoundRect,0.250000X1.800000X-1.330000X1.800000X1.330000X-1.800000X1.330000X-1.800000X-1.330000X0*%
%TD*%
%TA.AperFunction,ComponentPad*%
%ADD11O,4.100000X3.160000*%
%TD*%
%TA.AperFunction,ComponentPad*%
%ADD12R,1.800000X1.800000*%
%TD*%
%TA.AperFunction,ComponentPad*%
%ADD13C,1.800000*%
%TD*%
%TA.AperFunction,ComponentPad*%
%ADD14RotRect,1.800000X1.800000X315.000000*%
%TD*%
%TA.AperFunction,ComponentPad*%
%ADD15RotRect,1.800000X1.800000X100.000000*%
%TD*%
%TA.AperFunction,ComponentPad*%
%ADD16RotRect,1.800000X1.800000X70.000000*%
%TD*%
%TA.AperFunction,ComponentPad*%
%ADD17RotRect,1.800000X1.800000X30.000000*%
%TD*%
%TA.AperFunction,ComponentPad*%
%ADD18RotRect,1.800000X1.800000X340.000000*%
%TD*%
%TA.AperFunction,ComponentPad*%
%ADD19RotRect,1.800000X1.800000X300.000000*%
%TD*%
%TA.AperFunction,ComponentPad*%
%ADD20RotRect,1.800000X1.800000X60.000000*%
%TD*%
%TA.AperFunction,ComponentPad*%
%ADD21RotRect,1.800000X1.800000X330.000000*%
%TD*%
%TA.AperFunction,ComponentPad*%
%ADD22RotRect,1.800000X1.800000X80.000000*%
%TD*%
%TA.AperFunction,ComponentPad*%
%ADD23RotRect,1.800000X1.800000X110.000000*%
%TD*%
%TA.AperFunction,ComponentPad*%
%ADD24RotRect,1.800000X1.800000X350.000000*%
%TD*%
%TA.AperFunction,ComponentPad*%
%ADD25RotRect,1.800000X1.800000X10.000000*%
%TD*%
%TA.AperFunction,ComponentPad*%
%ADD26C,1.400000*%
%TD*%
%TA.AperFunction,ComponentPad*%
%ADD27O,1.400000X1.400000*%
%TD*%
%TA.AperFunction,Conductor*%
%ADD28C,0.250000*%
%TD*%
G04 APERTURE END LIST*
D10*
%TO.P,J2,1,Pin_1*%
%TO.N,/LED+12V*%
X114525000Y-67004000D03*
D11*
%TO.P,J2,2,Pin_2*%
%TO.N,/LED-12V*%
X114525000Y-63044000D03*
%TD*%
D10*
%TO.P,J1,1,Pin_1*%
%TO.N,/LED+12V*%
X103019000Y-67004000D03*
D11*
%TO.P,J1,2,Pin_2*%
%TO.N,/LED-12V*%
X103019000Y-63044000D03*
%TD*%
D12*
%TO.P,D1,1,K*%
%TO.N,Net-(D1-Pad1)*%
X90425000Y-68150000D03*
D13*
%TO.P,D1,2,A*%
%TO.N,Net-(D1-Pad2)*%
X92965000Y-68150000D03*
%TD*%
D14*
%TO.P,D2,1,K*%
%TO.N,Net-(D1-Pad2)*%
X96500000Y-72700000D03*
D13*
%TO.P,D2,2,A*%
%TO.N,Net-(D2-Pad2)*%
X98296051Y-74496051D03*
%TD*%
D15*
%TO.P,D3,1,K*%
%TO.N,Net-(D2-Pad2)*%
X102700000Y-81100000D03*
D13*
%TO.P,D3,2,A*%
%TO.N,/LED+12V*%
X102258934Y-78598588D03*
%TD*%
D16*
%TO.P,D4,1,K*%
%TO.N,Net-(D4-Pad1)*%
X102013900Y-88098100D03*
D13*
%TO.P,D4,2,A*%
%TO.N,Net-(D4-Pad2)*%
X102882631Y-85711281D03*
%TD*%
D17*
%TO.P,D5,1,K*%
%TO.N,Net-(D4-Pad2)*%
X95500000Y-94600000D03*
D13*
%TO.P,D5,2,A*%
%TO.N,Net-(D5-Pad2)*%
X97699705Y-93330000D03*
%TD*%
D18*
%TO.P,D6,1,K*%
%TO.N,Net-(D5-Pad2)*%
X86451900Y-93663900D03*
D13*
%TO.P,D6,2,A*%
%TO.N,/LED+12V*%
X88838719Y-94532631D03*
%TD*%
D19*
%TO.P,D7,1,K*%
%TO.N,Net-(D7-Pad1)*%
X79862500Y-87245800D03*
D13*
%TO.P,D7,2,A*%
%TO.N,Net-(D7-Pad2)*%
X81132500Y-89445505D03*
%TD*%
D20*
%TO.P,D8,1,K*%
%TO.N,Net-(D7-Pad2)*%
X80150000Y-81100000D03*
D13*
%TO.P,D8,2,A*%
%TO.N,Net-(D8-Pad2)*%
X81420000Y-78900295D03*
%TD*%
D17*
%TO.P,D9,1,K*%
%TO.N,Net-(D8-Pad2)*%
X85250000Y-73750000D03*
D13*
%TO.P,D9,2,A*%
%TO.N,/LED+12V*%
X87449705Y-72480000D03*
%TD*%
D12*
%TO.P,D10,1,K*%
%TO.N,Net-(D10-Pad1)*%
X120975000Y-65950000D03*
D13*
%TO.P,D10,2,A*%
%TO.N,Net-(D10-Pad2)*%
X123515000Y-65950000D03*
%TD*%
D12*
%TO.P,D11,1,K*%
%TO.N,Net-(D10-Pad2)*%
X121025000Y-75000000D03*
D13*
%TO.P,D11,2,A*%
%TO.N,Net-(D11-Pad2)*%
X123565000Y-75000000D03*
%TD*%
D12*
%TO.P,D12,1,K*%
%TO.N,Net-(D11-Pad2)*%
X120750000Y-84200000D03*
D13*
%TO.P,D12,2,A*%
%TO.N,/LED+12V*%
X123290000Y-84200000D03*
%TD*%
D12*
%TO.P,D13,1,K*%
%TO.N,Net-(D13-Pad1)*%
X120550000Y-93450000D03*
D13*
%TO.P,D13,2,A*%
%TO.N,Net-(D13-Pad2)*%
X123090000Y-93450000D03*
%TD*%
D12*
%TO.P,D14,1,K*%
%TO.N,Net-(D13-Pad2)*%
X141825000Y-68650000D03*
D13*
%TO.P,D14,2,A*%
%TO.N,Net-(D14-Pad2)*%
X144365000Y-68650000D03*
%TD*%
D12*
%TO.P,D15,1,K*%
%TO.N,Net-(D14-Pad2)*%
X151050000Y-68402000D03*
D13*
%TO.P,D15,2,A*%
%TO.N,/LED+12V*%
X153590000Y-68402000D03*
%TD*%
D12*
%TO.P,D16,1,K*%
%TO.N,Net-(D16-Pad1)*%
X161126000Y-68554400D03*
D13*
%TO.P,D16,2,A*%
%TO.N,Net-(D16-Pad2)*%
X163666000Y-68554400D03*
%TD*%
D17*
%TO.P,D17,1,K*%
%TO.N,Net-(D16-Pad2)*%
X144845800Y-75037500D03*
D13*
%TO.P,D17,2,A*%
%TO.N,Net-(D17-Pad2)*%
X147045505Y-73767500D03*
%TD*%
D21*
%TO.P,D18,1,K*%
%TO.N,Net-(D17-Pad2)*%
X156945800Y-73762500D03*
D13*
%TO.P,D18,2,A*%
%TO.N,/LED+12V*%
X159145505Y-75032500D03*
%TD*%
D22*
%TO.P,D24,1,K*%
%TO.N,Net-(D23-Pad2)*%
X140978600Y-82555600D03*
D13*
%TO.P,D24,2,A*%
%TO.N,/LED+12V*%
X141419666Y-80054188D03*
%TD*%
D15*
%TO.P,D19,1,K*%
%TO.N,Net-(D19-Pad1)*%
X163300000Y-82650000D03*
D13*
%TO.P,D19,2,A*%
%TO.N,Net-(D19-Pad2)*%
X162858934Y-80148588D03*
%TD*%
D23*
%TO.P,D23,1,K*%
%TO.N,Net-(D22-Pad2)*%
X142533200Y-90600000D03*
D13*
%TO.P,D23,2,A*%
%TO.N,Net-(D23-Pad2)*%
X141664469Y-88213181D03*
%TD*%
D20*
%TO.P,D20,1,K*%
%TO.N,Net-(D19-Pad2)*%
X161612500Y-89854200D03*
D13*
%TO.P,D20,2,A*%
%TO.N,Net-(D20-Pad2)*%
X162882500Y-87654495D03*
%TD*%
D24*
%TO.P,D22,1,K*%
%TO.N,Net-(D22-Pad1)*%
X147725000Y-95100000D03*
D13*
%TO.P,D22,2,A*%
%TO.N,Net-(D22-Pad2)*%
X150226412Y-95541066D03*
%TD*%
D25*
%TO.P,D21,1,K*%
%TO.N,Net-(D20-Pad2)*%
X155125000Y-95200000D03*
D13*
%TO.P,D21,2,A*%
%TO.N,/LED+12V*%
X157626412Y-94758934D03*
%TD*%
D26*
%TO.P,R1,1*%
%TO.N,/LED-12V*%
X115900000Y-70580000D03*
D27*
%TO.P,R1,2*%
%TO.N,Net-(D1-Pad1)*%
X115900000Y-73120000D03*
%TD*%
D26*
%TO.P,R5,1*%
%TO.N,/LED-12V*%
X115900000Y-79900000D03*
D27*
%TO.P,R5,2*%
%TO.N,Net-(D13-Pad1)*%
X115900000Y-82440000D03*
%TD*%
D26*
%TO.P,R6,1*%
%TO.N,/LED-12V*%
X115900000Y-75230000D03*
D27*
%TO.P,R6,2*%
%TO.N,Net-(D16-Pad1)*%
X115900000Y-77770000D03*
%TD*%
D26*
%TO.P,R2,1*%
%TO.N,/LED-12V*%
X113750000Y-79900000D03*
D27*
%TO.P,R2,2*%
%TO.N,Net-(D4-Pad1)*%
X113750000Y-82440000D03*
%TD*%
D26*
%TO.P,R3,1*%
%TO.N,/LED-12V*%
X111600000Y-70580000D03*
D27*
%TO.P,R3,2*%
%TO.N,Net-(D7-Pad1)*%
X111600000Y-73120000D03*
%TD*%
D26*
%TO.P,R8,1*%
%TO.N,/LED-12V*%
X113750000Y-75230000D03*
D27*
%TO.P,R8,2*%
%TO.N,Net-(D22-Pad1)*%
X113750000Y-77770000D03*
%TD*%
D26*
%TO.P,R4,1*%
%TO.N,/LED-12V*%
X111600000Y-75230000D03*
D27*
%TO.P,R4,2*%
%TO.N,Net-(D10-Pad1)*%
X111600000Y-77770000D03*
%TD*%
D26*
%TO.P,R7,1*%
%TO.N,/LED-12V*%
X113750000Y-70580000D03*
D27*
%TO.P,R7,2*%
%TO.N,Net-(D19-Pad1)*%
X113750000Y-73120000D03*
%TD*%
D28*
%TO.N,/LED-12V*%
X111600000Y-75230000D02*
X113750000Y-75230000D01*
X111600000Y-70580000D02*
X113750000Y-70580000D01*
X113750000Y-70580000D02*
X115900000Y-70580000D01*
%TO.N,Net-(D16-Pad1)*%
X158409300Y-70045800D02*
X159900700Y-68554400D01*
X123624200Y-70045800D02*
X158409300Y-70045800D01*
X116925300Y-76744700D02*
X123624200Y-70045800D01*
X116925300Y-77770000D02*
X116925300Y-76744700D01*
X115900000Y-77770000D02*
X116925300Y-77770000D01*
X161126000Y-68554400D02*
X159900700Y-68554400D01*
%TO.N,Net-(D22-Pad2)*%
X144103700Y-90028500D02*
X144103700Y-90028400D01*
X144675200Y-90600000D02*
X144103700Y-90028500D01*
X145522200Y-90600000D02*
X144675200Y-90600000D01*
X150226400Y-95304200D02*
X145522200Y-90600000D01*
X150226400Y-95541100D02*
X150226400Y-95304200D01*
X142533200Y-90600000D02*
X144103700Y-90028400D01*
%TO.N,Net-(D19-Pad2)*%
X161612500Y-81395000D02*
X162858900Y-80148600D01*
X161612500Y-89854200D02*
X161612500Y-81395000D01*
%TO.N,Net-(D17-Pad2)*%
X148583600Y-72229400D02*
X147045500Y-73767500D01*
X154844100Y-72229400D02*
X148583600Y-72229400D01*
X155600400Y-72985700D02*
X154844100Y-72229400D01*
X156945800Y-73762500D02*
X155600400Y-72985700D01*
%TO.N,Net-(D16-Pad2)*%
X160720000Y-71500400D02*
X163666000Y-68554400D01*
X147567200Y-71500400D02*
X160720000Y-71500400D01*
X144845800Y-74221800D02*
X147567200Y-71500400D01*
X144845800Y-75037500D02*
X144845800Y-74221800D01*
%TO.N,Net-(D7-Pad1)*%
X78561100Y-85375800D02*
X79085700Y-85900400D01*
X78561100Y-78397200D02*
X78561100Y-85375800D01*
X85876800Y-71081500D02*
X78561100Y-78397200D01*
X96755600Y-71081500D02*
X85876800Y-71081500D01*
X98794100Y-73120000D02*
X96755600Y-71081500D01*
X111600000Y-73120000D02*
X98794100Y-73120000D01*
X79862500Y-87245800D02*
X79085700Y-85900400D01*
%TO.N,Net-(D14-Pad2)*%
X144613000Y-68402000D02*
X144365000Y-68650000D01*
X151050000Y-68402000D02*
X144613000Y-68402000D01*
%TO.N,Net-(D4-Pad1)*%
X103584400Y-88669600D02*
X103584400Y-88669700D01*
X104155900Y-88098100D02*
X103584400Y-88669600D01*
X107066600Y-88098100D02*
X104155900Y-88098100D01*
X112724700Y-82440000D02*
X107066600Y-88098100D01*
X113750000Y-82440000D02*
X112724700Y-82440000D01*
X102013900Y-88098100D02*
X103584400Y-88669700D01*
%TO.N,/LED+12V*%
X103019000Y-67004000D02*
X114525000Y-67004000D01*
X127435800Y-80054200D02*
X123290000Y-84200000D01*
X141419700Y-80054200D02*
X127435800Y-80054200D01*
X109441200Y-78598600D02*
X102258900Y-78598600D01*
X112022600Y-81180000D02*
X109441200Y-78598600D01*
X120270000Y-81180000D02*
X112022600Y-81180000D01*
X123290000Y-84200000D02*
X120270000Y-81180000D01*
%TO.N,Net-(D7-Pad2)*%
X81438300Y-89139700D02*
X81132500Y-89445500D01*
X81438300Y-81933900D02*
X81438300Y-89139700D01*
X81495400Y-81876800D02*
X81438300Y-81933900D01*
X80150000Y-81100000D02*
X81495400Y-81876800D01*
%TO.N,Net-(D5-Pad2)*%
X97368000Y-92998300D02*
X97699700Y-93330000D01*
X87117500Y-92998300D02*
X97368000Y-92998300D01*
X86451900Y-93663900D02*
X87117500Y-92998300D01*
%TO.N,Net-(D1-Pad1)*%
X115900000Y-73120000D02*
X114874700Y-73120000D01*
X90425000Y-68150000D02*
X91650300Y-68150000D01*
X91650300Y-68609600D02*
X91650300Y-68150000D01*
X92416000Y-69375300D02*
X91650300Y-68609600D01*
X100255200Y-69375300D02*
X92416000Y-69375300D01*
X102974600Y-72094700D02*
X100255200Y-69375300D01*
X114234000Y-72094700D02*
X102974600Y-72094700D01*
X114874700Y-72735400D02*
X114234000Y-72094700D01*
X114874700Y-73120000D02*
X114874700Y-72735400D01*
%TD*%
M02*
