M48
; DRILL file {KiCad (5.1.5-0-10_14)} date Monday, 15 March 2021 at 06:00:48 am
; FORMAT={-:-/ absolute / metric / decimal}
; #@! TF.CreationDate,2021-03-15T06:00:48+10:00
; #@! TF.GenerationSoftware,Kicad,Pcbnew,(5.1.5-0-10_14)
; #@! TF.FileFunction,Plated,1,2,PTH
FMAT,2
METRIC
T1C0.800
T2C1.200
%
G90
G05
T1
X113.792Y-102.87
X121.412Y-102.87
X136.017Y-102.87
X143.637Y-102.87
X124.904Y-102.87
X132.524Y-102.87
X147.13Y-102.87
X154.75Y-102.87
X158.242Y-102.87
X165.862Y-102.87
T2
X158.496Y-109.855
X161.036Y-109.855
X117.729Y-109.855
X120.269Y-109.855
X144.907Y-109.855
X147.447Y-109.855
X131.318Y-109.855
X133.858Y-109.855
X155.194Y-92.837
X157.734Y-92.837
X121.539Y-96.393
X124.079Y-96.393
X126.619Y-96.393
X129.159Y-96.393
X131.699Y-96.393
X134.239Y-96.393
T0
M30
