  0
SECTION
  2
HEADER
  9
$ANGBASE
  50
0.0
  9
$ANGDIR
  70
1
  9
$MEASUREMENT
  70
1
  0
ENDSEC
  0
SECTION
  2
TABLES
  0
TABLE
  2
LTYPE
  70
4
  0
LTYPE
  5
40F
  2
CONTINUOUS
  70
0
  3
Solid line
  72
65
  73
0
  40
0.0
  0
LTYPE
  5
410
  2
DASHDOT
 70
0
  3
Dash Dot ____ _ ____ _
 72
65
 73
4
 40
2.0
 49
1.25
 49
-0.25
 49
0.25
 49
-0.25
  0
LTYPE
  5
411
  2
DASHED
 70
0
  3
Dashed __ __ __ __ __
 72
65
 73
2
 40
0.75
 49
0.5
 49
-0.25
  0
LTYPE
  5
43B
  2
DOTTED
 70
0
  3
Dotted .  .  .  .
 72
65
 73
2
 40
0.2
 49
0.0
 49
-0.2
  0
ENDTAB
  0
TABLE
  2
STYLE
  70
4
  0
STYLE
  2
KICAD
  70
0
  40
0
  41
1
  42
1
  50
0
  71
0
  3
isocp.shx
  0
STYLE
  2
KICADB
  70
0
  40
0
  41
1
  42
1
  50
0
  71
0
  3
isocp.shx
  0
STYLE
  2
KICADI
  70
0
  40
0
  41
1
  42
1
  50
15
  71
0
  3
isocp.shx
  0
STYLE
  2
KICADBI
  70
0
  40
0
  41
1
  42
1
  50
15
  71
0
  3
isocp.shx
  0
ENDTAB
  0
TABLE
  2
LAYER
  70
1
  0
LAYER
  2
BLACK
  70
0
  62
7
  6
CONTINUOUS
  0
ENDTAB
  0
ENDSEC
  0
SECTION
  2
ENTITIES
0
CIRCLE
8
BLACK
10
86.8654
20
-106.909
40
1.35255
0
LINE
8
BLACK
6
CONTINUOUS
10
120.651
20
-64.7891
11
111.919
21
-64.7891
0
LINE
8
BLACK
6
CONTINUOUS
10
93.0852
20
-146.437
11
111.817
21
-146.437
0
LINE
8
BLACK
6
CONTINUOUS
10
84.354
20
-135.693
11
93.0852
21
-135.693
0
LINE
8
BLACK
6
CONTINUOUS
10
120.651
20
-135.769
11
120.651
21
-64.7891
0
CIRCLE
8
BLACK
10
87.2623
20
-58.9661
40
1.35255
0
LINE
8
BLACK
6
CONTINUOUS
10
111.664
20
-135.769
11
120.651
21
-135.769
0
LINE
8
BLACK
6
CONTINUOUS
10
93.0852
20
-55.5054
11
84.354
21
-55.5054
0
LINE
8
BLACK
6
CONTINUOUS
10
93.0852
20
-135.693
11
93.0852
21
-146.437
0
LINE
8
BLACK
6
CONTINUOUS
10
111.919
20
-47.3265
11
93.0852
21
-47.3265
0
LINE
8
BLACK
6
CONTINUOUS
10
111.919
20
-64.7891
11
111.919
21
-47.3265
0
LINE
8
BLACK
6
CONTINUOUS
10
84.354
20
-55.5054
11
84.354
21
-135.693
0
LINE
8
BLACK
6
CONTINUOUS
10
93.0852
20
-47.3265
11
93.0852
21
-55.5054
0
LINE
8
BLACK
6
CONTINUOUS
10
111.817
20
-146.437
11
111.664
21
-135.769
0
LINE
8
BLACK
6
CONTINUOUS
10
85.9054
20
-57.6098
11
88.6054
21
-60.3098
0
LINE
8
BLACK
6
CONTINUOUS
10
88.6054
20
-57.6098
11
85.9054
21
-60.3098
0
LINE
8
BLACK
6
CONTINUOUS
10
116.792
20
-105.565
11
119.492
21
-108.265
0
LINE
8
BLACK
6
CONTINUOUS
10
119.492
20
-105.565
11
116.792
21
-108.265
0
LINE
8
BLACK
6
CONTINUOUS
10
87.1183
20
-151.194
11
87.1183
21
-148.194
0
LINE
8
BLACK
6
CONTINUOUS
10
87.1183
20
-148.194
11
87.8325
21
-148.194
0
LINE
8
BLACK
6
CONTINUOUS
10
87.8325
20
-148.194
11
88.2611
21
-148.337
0
LINE
8
BLACK
6
CONTINUOUS
10
88.2611
20
-148.337
11
88.5468
21
-148.623
0
LINE
8
BLACK
6
CONTINUOUS
10
88.5468
20
-148.623
11
88.6897
21
-148.909
0
LINE
8
BLACK
6
CONTINUOUS
10
88.6897
20
-148.909
11
88.8325
21
-149.48
0
LINE
8
BLACK
6
CONTINUOUS
10
88.8325
20
-149.48
11
88.8325
21
-149.909
0
LINE
8
BLACK
6
CONTINUOUS
10
88.8325
20
-149.909
11
88.6897
21
-150.48
0
LINE
8
BLACK
6
CONTINUOUS
10
88.6897
20
-150.48
11
88.5468
21
-150.766
0
LINE
8
BLACK
6
CONTINUOUS
10
88.5468
20
-150.766
11
88.2611
21
-151.052
0
LINE
8
BLACK
6
CONTINUOUS
10
88.2611
20
-151.052
11
87.8325
21
-151.194
0
LINE
8
BLACK
6
CONTINUOUS
10
87.8325
20
-151.194
11
87.1183
21
-151.194
0
LINE
8
BLACK
6
CONTINUOUS
10
90.1183
20
-151.194
11
90.1183
21
-149.194
0
LINE
8
BLACK
6
CONTINUOUS
10
90.1183
20
-149.766
11
90.2611
21
-149.48
0
LINE
8
BLACK
6
CONTINUOUS
10
90.2611
20
-149.48
11
90.404
21
-149.337
0
LINE
8
BLACK
6
CONTINUOUS
10
90.404
20
-149.337
11
90.6897
21
-149.194
0
LINE
8
BLACK
6
CONTINUOUS
10
90.6897
20
-149.194
11
90.9754
21
-149.194
0
LINE
8
BLACK
6
CONTINUOUS
10
91.9754
20
-151.194
11
91.9754
21
-149.194
0
LINE
8
BLACK
6
CONTINUOUS
10
91.9754
20
-148.194
11
91.8325
21
-148.337
0
LINE
8
BLACK
6
CONTINUOUS
10
91.8325
20
-148.337
11
91.9754
21
-148.48
0
LINE
8
BLACK
6
CONTINUOUS
10
91.9754
20
-148.48
11
92.1183
21
-148.337
0
LINE
8
BLACK
6
CONTINUOUS
10
92.1183
20
-148.337
11
91.9754
21
-148.194
0
LINE
8
BLACK
6
CONTINUOUS
10
91.9754
20
-148.194
11
91.9754
21
-148.48
0
LINE
8
BLACK
6
CONTINUOUS
10
93.8325
20
-151.194
11
93.5468
21
-151.052
0
LINE
8
BLACK
6
CONTINUOUS
10
93.5468
20
-151.052
11
93.404
21
-150.766
0
LINE
8
BLACK
6
CONTINUOUS
10
93.404
20
-150.766
11
93.404
21
-148.194
0
LINE
8
BLACK
6
CONTINUOUS
10
95.404
20
-151.194
11
95.1183
21
-151.052
0
LINE
8
BLACK
6
CONTINUOUS
10
95.1183
20
-151.052
11
94.9754
21
-150.766
0
LINE
8
BLACK
6
CONTINUOUS
10
94.9754
20
-150.766
11
94.9754
21
-148.194
0
LINE
8
BLACK
6
CONTINUOUS
10
98.8325
20
-151.194
11
98.8325
21
-148.194
0
LINE
8
BLACK
6
CONTINUOUS
10
98.8325
20
-148.194
11
99.8325
21
-150.337
0
LINE
8
BLACK
6
CONTINUOUS
10
99.8325
20
-150.337
11
100.833
21
-148.194
0
LINE
8
BLACK
6
CONTINUOUS
10
100.833
20
-148.194
11
100.833
21
-151.194
0
LINE
8
BLACK
6
CONTINUOUS
10
103.547
20
-151.194
11
103.547
21
-149.623
0
LINE
8
BLACK
6
CONTINUOUS
10
103.547
20
-149.623
11
103.404
21
-149.337
0
LINE
8
BLACK
6
CONTINUOUS
10
103.404
20
-149.337
11
103.118
21
-149.194
0
LINE
8
BLACK
6
CONTINUOUS
10
103.118
20
-149.194
11
102.547
21
-149.194
0
LINE
8
BLACK
6
CONTINUOUS
10
102.547
20
-149.194
11
102.261
21
-149.337
0
LINE
8
BLACK
6
CONTINUOUS
10
103.547
20
-151.052
11
103.261
21
-151.194
0
LINE
8
BLACK
6
CONTINUOUS
10
103.261
20
-151.194
11
102.547
21
-151.194
0
LINE
8
BLACK
6
CONTINUOUS
10
102.547
20
-151.194
11
102.261
21
-151.052
0
LINE
8
BLACK
6
CONTINUOUS
10
102.261
20
-151.052
11
102.118
21
-150.766
0
LINE
8
BLACK
6
CONTINUOUS
10
102.118
20
-150.766
11
102.118
21
-150.48
0
LINE
8
BLACK
6
CONTINUOUS
10
102.118
20
-150.48
11
102.261
21
-150.194
0
LINE
8
BLACK
6
CONTINUOUS
10
102.261
20
-150.194
11
102.547
21
-150.052
0
LINE
8
BLACK
6
CONTINUOUS
10
102.547
20
-150.052
11
103.261
21
-150.052
0
LINE
8
BLACK
6
CONTINUOUS
10
103.261
20
-150.052
11
103.547
21
-149.909
0
LINE
8
BLACK
6
CONTINUOUS
10
104.975
20
-149.194
11
104.975
21
-152.194
0
LINE
8
BLACK
6
CONTINUOUS
10
104.975
20
-149.337
11
105.261
21
-149.194
0
LINE
8
BLACK
6
CONTINUOUS
10
105.261
20
-149.194
11
105.833
21
-149.194
0
LINE
8
BLACK
6
CONTINUOUS
10
105.833
20
-149.194
11
106.118
21
-149.337
0
LINE
8
BLACK
6
CONTINUOUS
10
106.118
20
-149.337
11
106.261
21
-149.48
0
LINE
8
BLACK
6
CONTINUOUS
10
106.261
20
-149.48
11
106.404
21
-149.766
0
LINE
8
BLACK
6
CONTINUOUS
10
106.404
20
-149.766
11
106.404
21
-150.623
0
LINE
8
BLACK
6
CONTINUOUS
10
106.404
20
-150.623
11
106.261
21
-150.909
0
LINE
8
BLACK
6
CONTINUOUS
10
106.261
20
-150.909
11
106.118
21
-151.052
0
LINE
8
BLACK
6
CONTINUOUS
10
106.118
20
-151.052
11
105.833
21
-151.194
0
LINE
8
BLACK
6
CONTINUOUS
10
105.833
20
-151.194
11
105.261
21
-151.194
0
LINE
8
BLACK
6
CONTINUOUS
10
105.261
20
-151.194
11
104.975
21
-151.052
0
LINE
8
BLACK
6
CONTINUOUS
10
107.69
20
-150.909
11
107.833
21
-151.052
0
LINE
8
BLACK
6
CONTINUOUS
10
107.833
20
-151.052
11
107.69
21
-151.194
0
LINE
8
BLACK
6
CONTINUOUS
10
107.69
20
-151.194
11
107.547
21
-151.052
0
LINE
8
BLACK
6
CONTINUOUS
10
107.547
20
-151.052
11
107.69
21
-150.909
0
LINE
8
BLACK
6
CONTINUOUS
10
107.69
20
-150.909
11
107.69
21
-151.194
0
LINE
8
BLACK
6
CONTINUOUS
10
107.69
20
-149.337
11
107.833
21
-149.48
0
LINE
8
BLACK
6
CONTINUOUS
10
107.833
20
-149.48
11
107.69
21
-149.623
0
LINE
8
BLACK
6
CONTINUOUS
10
107.69
20
-149.623
11
107.547
21
-149.48
0
LINE
8
BLACK
6
CONTINUOUS
10
107.547
20
-149.48
11
107.69
21
-149.337
0
LINE
8
BLACK
6
CONTINUOUS
10
107.69
20
-149.337
11
107.69
21
-149.623
0
LINE
8
BLACK
6
CONTINUOUS
10
81.554
20
-154.787
11
84.254
21
-157.487
0
LINE
8
BLACK
6
CONTINUOUS
10
84.254
20
-154.787
11
81.554
21
-157.487
0
LINE
8
BLACK
6
CONTINUOUS
10
86.9754
20
-154.78
11
87.1183
21
-154.637
0
LINE
8
BLACK
6
CONTINUOUS
10
87.1183
20
-154.637
11
87.404
21
-154.494
0
LINE
8
BLACK
6
CONTINUOUS
10
87.404
20
-154.494
11
88.1183
21
-154.494
0
LINE
8
BLACK
6
CONTINUOUS
10
88.1183
20
-154.494
11
88.404
21
-154.637
0
LINE
8
BLACK
6
CONTINUOUS
10
88.404
20
-154.637
11
88.5468
21
-154.78
0
LINE
8
BLACK
6
CONTINUOUS
10
88.5468
20
-154.78
11
88.6897
21
-155.066
0
LINE
8
BLACK
6
CONTINUOUS
10
88.6897
20
-155.066
11
88.6897
21
-155.352
0
LINE
8
BLACK
6
CONTINUOUS
10
88.6897
20
-155.352
11
88.5468
21
-155.78
0
LINE
8
BLACK
6
CONTINUOUS
10
88.5468
20
-155.78
11
86.8325
21
-157.494
0
LINE
8
BLACK
6
CONTINUOUS
10
86.8325
20
-157.494
11
88.6897
21
-157.494
0
LINE
8
BLACK
6
CONTINUOUS
10
89.9754
20
-157.209
11
90.1183
21
-157.352
0
LINE
8
BLACK
6
CONTINUOUS
10
90.1183
20
-157.352
11
89.9754
21
-157.494
0
LINE
8
BLACK
6
CONTINUOUS
10
89.9754
20
-157.494
11
89.8325
21
-157.352
0
LINE
8
BLACK
6
CONTINUOUS
10
89.8325
20
-157.352
11
89.9754
21
-157.209
0
LINE
8
BLACK
6
CONTINUOUS
10
89.9754
20
-157.209
11
89.9754
21
-157.494
0
LINE
8
BLACK
6
CONTINUOUS
10
91.1183
20
-154.494
11
93.1183
21
-154.494
0
LINE
8
BLACK
6
CONTINUOUS
10
93.1183
20
-154.494
11
91.8325
21
-157.494
0
LINE
8
BLACK
6
CONTINUOUS
10
94.8325
20
-154.494
11
95.1183
21
-154.494
0
LINE
8
BLACK
6
CONTINUOUS
10
95.1183
20
-154.494
11
95.404
21
-154.637
0
LINE
8
BLACK
6
CONTINUOUS
10
95.404
20
-154.637
11
95.5468
21
-154.78
0
LINE
8
BLACK
6
CONTINUOUS
10
95.5468
20
-154.78
11
95.6897
21
-155.066
0
LINE
8
BLACK
6
CONTINUOUS
10
95.6897
20
-155.066
11
95.8325
21
-155.637
0
LINE
8
BLACK
6
CONTINUOUS
10
95.8325
20
-155.637
11
95.8325
21
-156.352
0
LINE
8
BLACK
6
CONTINUOUS
10
95.8325
20
-156.352
11
95.6897
21
-156.923
0
LINE
8
BLACK
6
CONTINUOUS
10
95.6897
20
-156.923
11
95.5468
21
-157.209
0
LINE
8
BLACK
6
CONTINUOUS
10
95.5468
20
-157.209
11
95.404
21
-157.352
0
LINE
8
BLACK
6
CONTINUOUS
10
95.404
20
-157.352
11
95.1183
21
-157.494
0
LINE
8
BLACK
6
CONTINUOUS
10
95.1183
20
-157.494
11
94.8325
21
-157.494
0
LINE
8
BLACK
6
CONTINUOUS
10
94.8325
20
-157.494
11
94.5468
21
-157.352
0
LINE
8
BLACK
6
CONTINUOUS
10
94.5468
20
-157.352
11
94.404
21
-157.209
0
LINE
8
BLACK
6
CONTINUOUS
10
94.404
20
-157.209
11
94.2611
21
-156.923
0
LINE
8
BLACK
6
CONTINUOUS
10
94.2611
20
-156.923
11
94.1183
21
-156.352
0
LINE
8
BLACK
6
CONTINUOUS
10
94.1183
20
-156.352
11
94.1183
21
-155.637
0
LINE
8
BLACK
6
CONTINUOUS
10
94.1183
20
-155.637
11
94.2611
21
-155.066
0
LINE
8
BLACK
6
CONTINUOUS
10
94.2611
20
-155.066
11
94.404
21
-154.78
0
LINE
8
BLACK
6
CONTINUOUS
10
94.404
20
-154.78
11
94.5468
21
-154.637
0
LINE
8
BLACK
6
CONTINUOUS
10
94.5468
20
-154.637
11
94.8325
21
-154.494
0
LINE
8
BLACK
6
CONTINUOUS
10
97.1183
20
-157.494
11
97.1183
21
-155.494
0
LINE
8
BLACK
6
CONTINUOUS
10
97.1183
20
-155.78
11
97.2611
21
-155.637
0
LINE
8
BLACK
6
CONTINUOUS
10
97.2611
20
-155.637
11
97.5468
21
-155.494
0
LINE
8
BLACK
6
CONTINUOUS
10
97.5468
20
-155.494
11
97.9754
21
-155.494
0
LINE
8
BLACK
6
CONTINUOUS
10
97.9754
20
-155.494
11
98.2611
21
-155.637
0
LINE
8
BLACK
6
CONTINUOUS
10
98.2611
20
-155.637
11
98.404
21
-155.923
0
LINE
8
BLACK
6
CONTINUOUS
10
98.404
20
-155.923
11
98.404
21
-157.494
0
LINE
8
BLACK
6
CONTINUOUS
10
98.404
20
-155.923
11
98.5468
21
-155.637
0
LINE
8
BLACK
6
CONTINUOUS
10
98.5468
20
-155.637
11
98.8325
21
-155.494
0
LINE
8
BLACK
6
CONTINUOUS
10
98.8325
20
-155.494
11
99.2611
21
-155.494
0
LINE
8
BLACK
6
CONTINUOUS
10
99.2611
20
-155.494
11
99.5468
21
-155.637
0
LINE
8
BLACK
6
CONTINUOUS
10
99.5468
20
-155.637
11
99.6897
21
-155.923
0
LINE
8
BLACK
6
CONTINUOUS
10
99.6897
20
-155.923
11
99.6897
21
-157.494
0
LINE
8
BLACK
6
CONTINUOUS
10
101.118
20
-157.494
11
101.118
21
-155.494
0
LINE
8
BLACK
6
CONTINUOUS
10
101.118
20
-155.78
11
101.261
21
-155.637
0
LINE
8
BLACK
6
CONTINUOUS
10
101.261
20
-155.637
11
101.547
21
-155.494
0
LINE
8
BLACK
6
CONTINUOUS
10
101.547
20
-155.494
11
101.975
21
-155.494
0
LINE
8
BLACK
6
CONTINUOUS
10
101.975
20
-155.494
11
102.261
21
-155.637
0
LINE
8
BLACK
6
CONTINUOUS
10
102.261
20
-155.637
11
102.404
21
-155.923
0
LINE
8
BLACK
6
CONTINUOUS
10
102.404
20
-155.923
11
102.404
21
-157.494
0
LINE
8
BLACK
6
CONTINUOUS
10
102.404
20
-155.923
11
102.547
21
-155.637
0
LINE
8
BLACK
6
CONTINUOUS
10
102.547
20
-155.637
11
102.833
21
-155.494
0
LINE
8
BLACK
6
CONTINUOUS
10
102.833
20
-155.494
11
103.261
21
-155.494
0
LINE
8
BLACK
6
CONTINUOUS
10
103.261
20
-155.494
11
103.547
21
-155.637
0
LINE
8
BLACK
6
CONTINUOUS
10
103.547
20
-155.637
11
103.69
21
-155.923
0
LINE
8
BLACK
6
CONTINUOUS
10
103.69
20
-155.923
11
103.69
21
-157.494
0
LINE
8
BLACK
6
CONTINUOUS
10
109.547
20
-154.352
11
106.975
21
-158.209
0
LINE
8
BLACK
6
CONTINUOUS
10
113.404
20
-154.494
11
113.69
21
-154.494
0
LINE
8
BLACK
6
CONTINUOUS
10
113.69
20
-154.494
11
113.975
21
-154.637
0
LINE
8
BLACK
6
CONTINUOUS
10
113.975
20
-154.637
11
114.118
21
-154.78
0
LINE
8
BLACK
6
CONTINUOUS
10
114.118
20
-154.78
11
114.261
21
-155.066
0
LINE
8
BLACK
6
CONTINUOUS
10
114.261
20
-155.066
11
114.404
21
-155.637
0
LINE
8
BLACK
6
CONTINUOUS
10
114.404
20
-155.637
11
114.404
21
-156.352
0
LINE
8
BLACK
6
CONTINUOUS
10
114.404
20
-156.352
11
114.261
21
-156.923
0
LINE
8
BLACK
6
CONTINUOUS
10
114.261
20
-156.923
11
114.118
21
-157.209
0
LINE
8
BLACK
6
CONTINUOUS
10
114.118
20
-157.209
11
113.975
21
-157.352
0
LINE
8
BLACK
6
CONTINUOUS
10
113.975
20
-157.352
11
113.69
21
-157.494
0
LINE
8
BLACK
6
CONTINUOUS
10
113.69
20
-157.494
11
113.404
21
-157.494
0
LINE
8
BLACK
6
CONTINUOUS
10
113.404
20
-157.494
11
113.118
21
-157.352
0
LINE
8
BLACK
6
CONTINUOUS
10
113.118
20
-157.352
11
112.975
21
-157.209
0
LINE
8
BLACK
6
CONTINUOUS
10
112.975
20
-157.209
11
112.833
21
-156.923
0
LINE
8
BLACK
6
CONTINUOUS
10
112.833
20
-156.923
11
112.69
21
-156.352
0
LINE
8
BLACK
6
CONTINUOUS
10
112.69
20
-156.352
11
112.69
21
-155.637
0
LINE
8
BLACK
6
CONTINUOUS
10
112.69
20
-155.637
11
112.833
21
-155.066
0
LINE
8
BLACK
6
CONTINUOUS
10
112.833
20
-155.066
11
112.975
21
-154.78
0
LINE
8
BLACK
6
CONTINUOUS
10
112.975
20
-154.78
11
113.118
21
-154.637
0
LINE
8
BLACK
6
CONTINUOUS
10
113.118
20
-154.637
11
113.404
21
-154.494
0
LINE
8
BLACK
6
CONTINUOUS
10
115.69
20
-157.209
11
115.833
21
-157.352
0
LINE
8
BLACK
6
CONTINUOUS
10
115.833
20
-157.352
11
115.69
21
-157.494
0
LINE
8
BLACK
6
CONTINUOUS
10
115.69
20
-157.494
11
115.547
21
-157.352
0
LINE
8
BLACK
6
CONTINUOUS
10
115.547
20
-157.352
11
115.69
21
-157.209
0
LINE
8
BLACK
6
CONTINUOUS
10
115.69
20
-157.209
11
115.69
21
-157.494
0
LINE
8
BLACK
6
CONTINUOUS
10
118.69
20
-157.494
11
116.975
21
-157.494
0
LINE
8
BLACK
6
CONTINUOUS
10
117.833
20
-157.494
11
117.833
21
-154.494
0
LINE
8
BLACK
6
CONTINUOUS
10
117.833
20
-154.494
11
117.547
21
-154.923
0
LINE
8
BLACK
6
CONTINUOUS
10
117.547
20
-154.923
11
117.261
21
-155.209
0
LINE
8
BLACK
6
CONTINUOUS
10
117.261
20
-155.209
11
116.975
21
-155.352
0
LINE
8
BLACK
6
CONTINUOUS
10
120.547
20
-154.494
11
120.833
21
-154.494
0
LINE
8
BLACK
6
CONTINUOUS
10
120.833
20
-154.494
11
121.118
21
-154.637
0
LINE
8
BLACK
6
CONTINUOUS
10
121.118
20
-154.637
11
121.261
21
-154.78
0
LINE
8
BLACK
6
CONTINUOUS
10
121.261
20
-154.78
11
121.404
21
-155.066
0
LINE
8
BLACK
6
CONTINUOUS
10
121.404
20
-155.066
11
121.547
21
-155.637
0
LINE
8
BLACK
6
CONTINUOUS
10
121.547
20
-155.637
11
121.547
21
-156.352
0
LINE
8
BLACK
6
CONTINUOUS
10
121.547
20
-156.352
11
121.404
21
-156.923
0
LINE
8
BLACK
6
CONTINUOUS
10
121.404
20
-156.923
11
121.261
21
-157.209
0
LINE
8
BLACK
6
CONTINUOUS
10
121.261
20
-157.209
11
121.118
21
-157.352
0
LINE
8
BLACK
6
CONTINUOUS
10
121.118
20
-157.352
11
120.833
21
-157.494
0
LINE
8
BLACK
6
CONTINUOUS
10
120.833
20
-157.494
11
120.547
21
-157.494
0
LINE
8
BLACK
6
CONTINUOUS
10
120.547
20
-157.494
11
120.261
21
-157.352
0
LINE
8
BLACK
6
CONTINUOUS
10
120.261
20
-157.352
11
120.118
21
-157.209
0
LINE
8
BLACK
6
CONTINUOUS
10
120.118
20
-157.209
11
119.975
21
-156.923
0
LINE
8
BLACK
6
CONTINUOUS
10
119.975
20
-156.923
11
119.833
21
-156.352
0
LINE
8
BLACK
6
CONTINUOUS
10
119.833
20
-156.352
11
119.833
21
-155.637
0
LINE
8
BLACK
6
CONTINUOUS
10
119.833
20
-155.637
11
119.975
21
-155.066
0
LINE
8
BLACK
6
CONTINUOUS
10
119.975
20
-155.066
11
120.118
21
-154.78
0
LINE
8
BLACK
6
CONTINUOUS
10
120.118
20
-154.78
11
120.261
21
-154.637
0
LINE
8
BLACK
6
CONTINUOUS
10
120.261
20
-154.637
11
120.547
21
-154.494
0
LINE
8
BLACK
6
CONTINUOUS
10
124.118
20
-154.494
11
123.547
21
-154.494
0
LINE
8
BLACK
6
CONTINUOUS
10
123.547
20
-154.494
11
123.261
21
-154.637
0
LINE
8
BLACK
6
CONTINUOUS
10
123.261
20
-154.637
11
123.118
21
-154.78
0
LINE
8
BLACK
6
CONTINUOUS
10
123.118
20
-154.78
11
122.833
21
-155.209
0
LINE
8
BLACK
6
CONTINUOUS
10
122.833
20
-155.209
11
122.69
21
-155.78
0
LINE
8
BLACK
6
CONTINUOUS
10
122.69
20
-155.78
11
122.69
21
-156.923
0
LINE
8
BLACK
6
CONTINUOUS
10
122.69
20
-156.923
11
122.833
21
-157.209
0
LINE
8
BLACK
6
CONTINUOUS
10
122.833
20
-157.209
11
122.975
21
-157.352
0
LINE
8
BLACK
6
CONTINUOUS
10
122.975
20
-157.352
11
123.261
21
-157.494
0
LINE
8
BLACK
6
CONTINUOUS
10
123.261
20
-157.494
11
123.833
21
-157.494
0
LINE
8
BLACK
6
CONTINUOUS
10
123.833
20
-157.494
11
124.118
21
-157.352
0
LINE
8
BLACK
6
CONTINUOUS
10
124.118
20
-157.352
11
124.261
21
-157.209
0
LINE
8
BLACK
6
CONTINUOUS
10
124.261
20
-157.209
11
124.404
21
-156.923
0
LINE
8
BLACK
6
CONTINUOUS
10
124.404
20
-156.923
11
124.404
21
-156.209
0
LINE
8
BLACK
6
CONTINUOUS
10
124.404
20
-156.209
11
124.261
21
-155.923
0
LINE
8
BLACK
6
CONTINUOUS
10
124.261
20
-155.923
11
124.118
21
-155.78
0
LINE
8
BLACK
6
CONTINUOUS
10
124.118
20
-155.78
11
123.833
21
-155.637
0
LINE
8
BLACK
6
CONTINUOUS
10
123.833
20
-155.637
11
123.261
21
-155.637
0
LINE
8
BLACK
6
CONTINUOUS
10
123.261
20
-155.637
11
122.975
21
-155.78
0
LINE
8
BLACK
6
CONTINUOUS
10
122.975
20
-155.78
11
122.833
21
-155.923
0
LINE
8
BLACK
6
CONTINUOUS
10
122.833
20
-155.923
11
122.69
21
-156.209
0
LINE
8
BLACK
6
CONTINUOUS
10
125.547
20
-154.494
11
125.547
21
-155.066
0
LINE
8
BLACK
6
CONTINUOUS
10
126.69
20
-154.494
11
126.69
21
-155.066
0
LINE
8
BLACK
6
CONTINUOUS
10
131.118
20
-158.637
11
130.975
21
-158.494
0
LINE
8
BLACK
6
CONTINUOUS
10
130.975
20
-158.494
11
130.69
21
-158.066
0
LINE
8
BLACK
6
CONTINUOUS
10
130.69
20
-158.066
11
130.547
21
-157.78
0
LINE
8
BLACK
6
CONTINUOUS
10
130.547
20
-157.78
11
130.404
21
-157.352
0
LINE
8
BLACK
6
CONTINUOUS
10
130.404
20
-157.352
11
130.261
21
-156.637
0
LINE
8
BLACK
6
CONTINUOUS
10
130.261
20
-156.637
11
130.261
21
-156.066
0
LINE
8
BLACK
6
CONTINUOUS
10
130.261
20
-156.066
11
130.404
21
-155.352
0
LINE
8
BLACK
6
CONTINUOUS
10
130.404
20
-155.352
11
130.547
21
-154.923
0
LINE
8
BLACK
6
CONTINUOUS
10
130.547
20
-154.923
11
130.69
21
-154.637
0
LINE
8
BLACK
6
CONTINUOUS
10
130.69
20
-154.637
11
130.975
21
-154.209
0
LINE
8
BLACK
6
CONTINUOUS
10
130.975
20
-154.209
11
131.118
21
-154.066
0
LINE
8
BLACK
6
CONTINUOUS
10
132.118
20
-154.78
11
132.261
21
-154.637
0
LINE
8
BLACK
6
CONTINUOUS
10
132.261
20
-154.637
11
132.547
21
-154.494
0
LINE
8
BLACK
6
CONTINUOUS
10
132.547
20
-154.494
11
133.261
21
-154.494
0
LINE
8
BLACK
6
CONTINUOUS
10
133.261
20
-154.494
11
133.547
21
-154.637
0
LINE
8
BLACK
6
CONTINUOUS
10
133.547
20
-154.637
11
133.69
21
-154.78
0
LINE
8
BLACK
6
CONTINUOUS
10
133.69
20
-154.78
11
133.833
21
-155.066
0
LINE
8
BLACK
6
CONTINUOUS
10
133.833
20
-155.066
11
133.833
21
-155.352
0
LINE
8
BLACK
6
CONTINUOUS
10
133.833
20
-155.352
11
133.69
21
-155.78
0
LINE
8
BLACK
6
CONTINUOUS
10
133.69
20
-155.78
11
131.975
21
-157.494
0
LINE
8
BLACK
6
CONTINUOUS
10
131.975
20
-157.494
11
133.833
21
-157.494
0
LINE
8
BLACK
6
CONTINUOUS
10
137.404
20
-157.494
11
137.404
21
-154.494
0
LINE
8
BLACK
6
CONTINUOUS
10
138.69
20
-157.494
11
138.69
21
-155.923
0
LINE
8
BLACK
6
CONTINUOUS
10
138.69
20
-155.923
11
138.547
21
-155.637
0
LINE
8
BLACK
6
CONTINUOUS
10
138.547
20
-155.637
11
138.261
21
-155.494
0
LINE
8
BLACK
6
CONTINUOUS
10
138.261
20
-155.494
11
137.833
21
-155.494
0
LINE
8
BLACK
6
CONTINUOUS
10
137.833
20
-155.494
11
137.547
21
-155.637
0
LINE
8
BLACK
6
CONTINUOUS
10
137.547
20
-155.637
11
137.404
21
-155.78
0
LINE
8
BLACK
6
CONTINUOUS
10
140.547
20
-157.494
11
140.261
21
-157.352
0
LINE
8
BLACK
6
CONTINUOUS
10
140.261
20
-157.352
11
140.118
21
-157.209
0
LINE
8
BLACK
6
CONTINUOUS
10
140.118
20
-157.209
11
139.975
21
-156.923
0
LINE
8
BLACK
6
CONTINUOUS
10
139.975
20
-156.923
11
139.975
21
-156.066
0
LINE
8
BLACK
6
CONTINUOUS
10
139.975
20
-156.066
11
140.118
21
-155.78
0
LINE
8
BLACK
6
CONTINUOUS
10
140.118
20
-155.78
11
140.261
21
-155.637
0
LINE
8
BLACK
6
CONTINUOUS
10
140.261
20
-155.637
11
140.547
21
-155.494
0
LINE
8
BLACK
6
CONTINUOUS
10
140.547
20
-155.494
11
140.975
21
-155.494
0
LINE
8
BLACK
6
CONTINUOUS
10
140.975
20
-155.494
11
141.261
21
-155.637
0
LINE
8
BLACK
6
CONTINUOUS
10
141.261
20
-155.637
11
141.404
21
-155.78
0
LINE
8
BLACK
6
CONTINUOUS
10
141.404
20
-155.78
11
141.547
21
-156.066
0
LINE
8
BLACK
6
CONTINUOUS
10
141.547
20
-156.066
11
141.547
21
-156.923
0
LINE
8
BLACK
6
CONTINUOUS
10
141.547
20
-156.923
11
141.404
21
-157.209
0
LINE
8
BLACK
6
CONTINUOUS
10
141.404
20
-157.209
11
141.261
21
-157.352
0
LINE
8
BLACK
6
CONTINUOUS
10
141.261
20
-157.352
11
140.975
21
-157.494
0
LINE
8
BLACK
6
CONTINUOUS
10
140.975
20
-157.494
11
140.547
21
-157.494
0
LINE
8
BLACK
6
CONTINUOUS
10
143.261
20
-157.494
11
142.975
21
-157.352
0
LINE
8
BLACK
6
CONTINUOUS
10
142.975
20
-157.352
11
142.833
21
-157.066
0
LINE
8
BLACK
6
CONTINUOUS
10
142.833
20
-157.066
11
142.833
21
-154.494
0
LINE
8
BLACK
6
CONTINUOUS
10
145.547
20
-157.352
11
145.261
21
-157.494
0
LINE
8
BLACK
6
CONTINUOUS
10
145.261
20
-157.494
11
144.69
21
-157.494
0
LINE
8
BLACK
6
CONTINUOUS
10
144.69
20
-157.494
11
144.404
21
-157.352
0
LINE
8
BLACK
6
CONTINUOUS
10
144.404
20
-157.352
11
144.261
21
-157.066
0
LINE
8
BLACK
6
CONTINUOUS
10
144.261
20
-157.066
11
144.261
21
-155.923
0
LINE
8
BLACK
6
CONTINUOUS
10
144.261
20
-155.923
11
144.404
21
-155.637
0
LINE
8
BLACK
6
CONTINUOUS
10
144.404
20
-155.637
11
144.69
21
-155.494
0
LINE
8
BLACK
6
CONTINUOUS
10
144.69
20
-155.494
11
145.261
21
-155.494
0
LINE
8
BLACK
6
CONTINUOUS
10
145.261
20
-155.494
11
145.547
21
-155.637
0
LINE
8
BLACK
6
CONTINUOUS
10
145.547
20
-155.637
11
145.69
21
-155.923
0
LINE
8
BLACK
6
CONTINUOUS
10
145.69
20
-155.923
11
145.69
21
-156.209
0
LINE
8
BLACK
6
CONTINUOUS
10
145.69
20
-156.209
11
144.261
21
-156.494
0
LINE
8
BLACK
6
CONTINUOUS
10
146.833
20
-157.352
11
147.118
21
-157.494
0
LINE
8
BLACK
6
CONTINUOUS
10
147.118
20
-157.494
11
147.69
21
-157.494
0
LINE
8
BLACK
6
CONTINUOUS
10
147.69
20
-157.494
11
147.975
21
-157.352
0
LINE
8
BLACK
6
CONTINUOUS
10
147.975
20
-157.352
11
148.118
21
-157.066
0
LINE
8
BLACK
6
CONTINUOUS
10
148.118
20
-157.066
11
148.118
21
-156.923
0
LINE
8
BLACK
6
CONTINUOUS
10
148.118
20
-156.923
11
147.975
21
-156.637
0
LINE
8
BLACK
6
CONTINUOUS
10
147.975
20
-156.637
11
147.69
21
-156.494
0
LINE
8
BLACK
6
CONTINUOUS
10
147.69
20
-156.494
11
147.261
21
-156.494
0
LINE
8
BLACK
6
CONTINUOUS
10
147.261
20
-156.494
11
146.975
21
-156.352
0
LINE
8
BLACK
6
CONTINUOUS
10
146.975
20
-156.352
11
146.833
21
-156.066
0
LINE
8
BLACK
6
CONTINUOUS
10
146.833
20
-156.066
11
146.833
21
-155.923
0
LINE
8
BLACK
6
CONTINUOUS
10
146.833
20
-155.923
11
146.975
21
-155.637
0
LINE
8
BLACK
6
CONTINUOUS
10
146.975
20
-155.637
11
147.261
21
-155.494
0
LINE
8
BLACK
6
CONTINUOUS
10
147.261
20
-155.494
11
147.69
21
-155.494
0
LINE
8
BLACK
6
CONTINUOUS
10
147.69
20
-155.494
11
147.975
21
-155.637
0
LINE
8
BLACK
6
CONTINUOUS
10
149.118
20
-158.637
11
149.261
21
-158.494
0
LINE
8
BLACK
6
CONTINUOUS
10
149.261
20
-158.494
11
149.547
21
-158.066
0
LINE
8
BLACK
6
CONTINUOUS
10
149.547
20
-158.066
11
149.69
21
-157.78
0
LINE
8
BLACK
6
CONTINUOUS
10
149.69
20
-157.78
11
149.833
21
-157.352
0
LINE
8
BLACK
6
CONTINUOUS
10
149.833
20
-157.352
11
149.975
21
-156.637
0
LINE
8
BLACK
6
CONTINUOUS
10
149.975
20
-156.637
11
149.975
21
-156.066
0
LINE
8
BLACK
6
CONTINUOUS
10
149.975
20
-156.066
11
149.833
21
-155.352
0
LINE
8
BLACK
6
CONTINUOUS
10
149.833
20
-155.352
11
149.69
21
-154.923
0
LINE
8
BLACK
6
CONTINUOUS
10
149.69
20
-154.923
11
149.547
21
-154.637
0
LINE
8
BLACK
6
CONTINUOUS
10
149.547
20
-154.637
11
149.261
21
-154.209
0
LINE
8
BLACK
6
CONTINUOUS
10
149.261
20
-154.209
11
149.118
21
-154.066
0
LINE
8
BLACK
6
CONTINUOUS
10
154.547
20
-158.637
11
154.404
21
-158.494
0
LINE
8
BLACK
6
CONTINUOUS
10
154.404
20
-158.494
11
154.118
21
-158.066
0
LINE
8
BLACK
6
CONTINUOUS
10
154.118
20
-158.066
11
153.975
21
-157.78
0
LINE
8
BLACK
6
CONTINUOUS
10
153.975
20
-157.78
11
153.833
21
-157.352
0
LINE
8
BLACK
6
CONTINUOUS
10
153.833
20
-157.352
11
153.69
21
-156.637
0
LINE
8
BLACK
6
CONTINUOUS
10
153.69
20
-156.637
11
153.69
21
-156.066
0
LINE
8
BLACK
6
CONTINUOUS
10
153.69
20
-156.066
11
153.833
21
-155.352
0
LINE
8
BLACK
6
CONTINUOUS
10
153.833
20
-155.352
11
153.975
21
-154.923
0
LINE
8
BLACK
6
CONTINUOUS
10
153.975
20
-154.923
11
154.118
21
-154.637
0
LINE
8
BLACK
6
CONTINUOUS
10
154.118
20
-154.637
11
154.404
21
-154.209
0
LINE
8
BLACK
6
CONTINUOUS
10
154.404
20
-154.209
11
154.547
21
-154.066
0
LINE
8
BLACK
6
CONTINUOUS
10
155.69
20
-155.494
11
155.69
21
-157.494
0
LINE
8
BLACK
6
CONTINUOUS
10
155.69
20
-155.78
11
155.833
21
-155.637
0
LINE
8
BLACK
6
CONTINUOUS
10
155.833
20
-155.637
11
156.118
21
-155.494
0
LINE
8
BLACK
6
CONTINUOUS
10
156.118
20
-155.494
11
156.547
21
-155.494
0
LINE
8
BLACK
6
CONTINUOUS
10
156.547
20
-155.494
11
156.833
21
-155.637
0
LINE
8
BLACK
6
CONTINUOUS
10
156.833
20
-155.637
11
156.975
21
-155.923
0
LINE
8
BLACK
6
CONTINUOUS
10
156.975
20
-155.923
11
156.975
21
-157.494
0
LINE
8
BLACK
6
CONTINUOUS
10
158.833
20
-157.494
11
158.547
21
-157.352
0
LINE
8
BLACK
6
CONTINUOUS
10
158.547
20
-157.352
11
158.404
21
-157.209
0
LINE
8
BLACK
6
CONTINUOUS
10
158.404
20
-157.209
11
158.261
21
-156.923
0
LINE
8
BLACK
6
CONTINUOUS
10
158.261
20
-156.923
11
158.261
21
-156.066
0
LINE
8
BLACK
6
CONTINUOUS
10
158.261
20
-156.066
11
158.404
21
-155.78
0
LINE
8
BLACK
6
CONTINUOUS
10
158.404
20
-155.78
11
158.547
21
-155.637
0
LINE
8
BLACK
6
CONTINUOUS
10
158.547
20
-155.637
11
158.833
21
-155.494
0
LINE
8
BLACK
6
CONTINUOUS
10
158.833
20
-155.494
11
159.261
21
-155.494
0
LINE
8
BLACK
6
CONTINUOUS
10
159.261
20
-155.494
11
159.547
21
-155.637
0
LINE
8
BLACK
6
CONTINUOUS
10
159.547
20
-155.637
11
159.69
21
-155.78
0
LINE
8
BLACK
6
CONTINUOUS
10
159.69
20
-155.78
11
159.833
21
-156.066
0
LINE
8
BLACK
6
CONTINUOUS
10
159.833
20
-156.066
11
159.833
21
-156.923
0
LINE
8
BLACK
6
CONTINUOUS
10
159.833
20
-156.923
11
159.69
21
-157.209
0
LINE
8
BLACK
6
CONTINUOUS
10
159.69
20
-157.209
11
159.547
21
-157.352
0
LINE
8
BLACK
6
CONTINUOUS
10
159.547
20
-157.352
11
159.261
21
-157.494
0
LINE
8
BLACK
6
CONTINUOUS
10
159.261
20
-157.494
11
158.833
21
-157.494
0
LINE
8
BLACK
6
CONTINUOUS
10
160.69
20
-155.494
11
161.833
21
-155.494
0
LINE
8
BLACK
6
CONTINUOUS
10
161.118
20
-154.494
11
161.118
21
-157.066
0
LINE
8
BLACK
6
CONTINUOUS
10
161.118
20
-157.066
11
161.261
21
-157.352
0
LINE
8
BLACK
6
CONTINUOUS
10
161.261
20
-157.352
11
161.547
21
-157.494
0
LINE
8
BLACK
6
CONTINUOUS
10
161.547
20
-157.494
11
161.833
21
-157.494
0
LINE
8
BLACK
6
CONTINUOUS
10
165.118
20
-155.494
11
165.118
21
-158.494
0
LINE
8
BLACK
6
CONTINUOUS
10
165.118
20
-155.637
11
165.404
21
-155.494
0
LINE
8
BLACK
6
CONTINUOUS
10
165.404
20
-155.494
11
165.975
21
-155.494
0
LINE
8
BLACK
6
CONTINUOUS
10
165.975
20
-155.494
11
166.261
21
-155.637
0
LINE
8
BLACK
6
CONTINUOUS
10
166.261
20
-155.637
11
166.404
21
-155.78
0
LINE
8
BLACK
6
CONTINUOUS
10
166.404
20
-155.78
11
166.547
21
-156.066
0
LINE
8
BLACK
6
CONTINUOUS
10
166.547
20
-156.066
11
166.547
21
-156.923
0
LINE
8
BLACK
6
CONTINUOUS
10
166.547
20
-156.923
11
166.404
21
-157.209
0
LINE
8
BLACK
6
CONTINUOUS
10
166.404
20
-157.209
11
166.261
21
-157.352
0
LINE
8
BLACK
6
CONTINUOUS
10
166.261
20
-157.352
11
165.975
21
-157.494
0
LINE
8
BLACK
6
CONTINUOUS
10
165.975
20
-157.494
11
165.404
21
-157.494
0
LINE
8
BLACK
6
CONTINUOUS
10
165.404
20
-157.494
11
165.118
21
-157.352
0
LINE
8
BLACK
6
CONTINUOUS
10
168.261
20
-157.494
11
167.975
21
-157.352
0
LINE
8
BLACK
6
CONTINUOUS
10
167.975
20
-157.352
11
167.833
21
-157.066
0
LINE
8
BLACK
6
CONTINUOUS
10
167.833
20
-157.066
11
167.833
21
-154.494
0
LINE
8
BLACK
6
CONTINUOUS
10
170.69
20
-157.494
11
170.69
21
-155.923
0
LINE
8
BLACK
6
CONTINUOUS
10
170.69
20
-155.923
11
170.547
21
-155.637
0
LINE
8
BLACK
6
CONTINUOUS
10
170.547
20
-155.637
11
170.261
21
-155.494
0
LINE
8
BLACK
6
CONTINUOUS
10
170.261
20
-155.494
11
169.69
21
-155.494
0
LINE
8
BLACK
6
CONTINUOUS
10
169.69
20
-155.494
11
169.404
21
-155.637
0
LINE
8
BLACK
6
CONTINUOUS
10
170.69
20
-157.352
11
170.404
21
-157.494
0
LINE
8
BLACK
6
CONTINUOUS
10
170.404
20
-157.494
11
169.69
21
-157.494
0
LINE
8
BLACK
6
CONTINUOUS
10
169.69
20
-157.494
11
169.404
21
-157.352
0
LINE
8
BLACK
6
CONTINUOUS
10
169.404
20
-157.352
11
169.261
21
-157.066
0
LINE
8
BLACK
6
CONTINUOUS
10
169.261
20
-157.066
11
169.261
21
-156.78
0
LINE
8
BLACK
6
CONTINUOUS
10
169.261
20
-156.78
11
169.404
21
-156.494
0
LINE
8
BLACK
6
CONTINUOUS
10
169.404
20
-156.494
11
169.69
21
-156.352
0
LINE
8
BLACK
6
CONTINUOUS
10
169.69
20
-156.352
11
170.404
21
-156.352
0
LINE
8
BLACK
6
CONTINUOUS
10
170.404
20
-156.352
11
170.69
21
-156.209
0
LINE
8
BLACK
6
CONTINUOUS
10
171.69
20
-155.494
11
172.833
21
-155.494
0
LINE
8
BLACK
6
CONTINUOUS
10
172.118
20
-154.494
11
172.118
21
-157.066
0
LINE
8
BLACK
6
CONTINUOUS
10
172.118
20
-157.066
11
172.261
21
-157.352
0
LINE
8
BLACK
6
CONTINUOUS
10
172.261
20
-157.352
11
172.547
21
-157.494
0
LINE
8
BLACK
6
CONTINUOUS
10
172.547
20
-157.494
11
172.833
21
-157.494
0
LINE
8
BLACK
6
CONTINUOUS
10
174.975
20
-157.352
11
174.69
21
-157.494
0
LINE
8
BLACK
6
CONTINUOUS
10
174.69
20
-157.494
11
174.118
21
-157.494
0
LINE
8
BLACK
6
CONTINUOUS
10
174.118
20
-157.494
11
173.833
21
-157.352
0
LINE
8
BLACK
6
CONTINUOUS
10
173.833
20
-157.352
11
173.69
21
-157.066
0
LINE
8
BLACK
6
CONTINUOUS
10
173.69
20
-157.066
11
173.69
21
-155.923
0
LINE
8
BLACK
6
CONTINUOUS
10
173.69
20
-155.923
11
173.833
21
-155.637
0
LINE
8
BLACK
6
CONTINUOUS
10
173.833
20
-155.637
11
174.118
21
-155.494
0
LINE
8
BLACK
6
CONTINUOUS
10
174.118
20
-155.494
11
174.69
21
-155.494
0
LINE
8
BLACK
6
CONTINUOUS
10
174.69
20
-155.494
11
174.975
21
-155.637
0
LINE
8
BLACK
6
CONTINUOUS
10
174.975
20
-155.637
11
175.118
21
-155.923
0
LINE
8
BLACK
6
CONTINUOUS
10
175.118
20
-155.923
11
175.118
21
-156.209
0
LINE
8
BLACK
6
CONTINUOUS
10
175.118
20
-156.209
11
173.69
21
-156.494
0
LINE
8
BLACK
6
CONTINUOUS
10
177.69
20
-157.494
11
177.69
21
-154.494
0
LINE
8
BLACK
6
CONTINUOUS
10
177.69
20
-157.352
11
177.404
21
-157.494
0
LINE
8
BLACK
6
CONTINUOUS
10
177.404
20
-157.494
11
176.833
21
-157.494
0
LINE
8
BLACK
6
CONTINUOUS
10
176.833
20
-157.494
11
176.547
21
-157.352
0
LINE
8
BLACK
6
CONTINUOUS
10
176.547
20
-157.352
11
176.404
21
-157.209
0
LINE
8
BLACK
6
CONTINUOUS
10
176.404
20
-157.209
11
176.261
21
-156.923
0
LINE
8
BLACK
6
CONTINUOUS
10
176.261
20
-156.923
11
176.261
21
-156.066
0
LINE
8
BLACK
6
CONTINUOUS
10
176.261
20
-156.066
11
176.404
21
-155.78
0
LINE
8
BLACK
6
CONTINUOUS
10
176.404
20
-155.78
11
176.547
21
-155.637
0
LINE
8
BLACK
6
CONTINUOUS
10
176.547
20
-155.637
11
176.833
21
-155.494
0
LINE
8
BLACK
6
CONTINUOUS
10
176.833
20
-155.494
11
177.404
21
-155.494
0
LINE
8
BLACK
6
CONTINUOUS
10
177.404
20
-155.494
11
177.69
21
-155.637
0
LINE
8
BLACK
6
CONTINUOUS
10
178.833
20
-158.637
11
178.975
21
-158.494
0
LINE
8
BLACK
6
CONTINUOUS
10
178.975
20
-158.494
11
179.261
21
-158.066
0
LINE
8
BLACK
6
CONTINUOUS
10
179.261
20
-158.066
11
179.404
21
-157.78
0
LINE
8
BLACK
6
CONTINUOUS
10
179.404
20
-157.78
11
179.547
21
-157.352
0
LINE
8
BLACK
6
CONTINUOUS
10
179.547
20
-157.352
11
179.69
21
-156.637
0
LINE
8
BLACK
6
CONTINUOUS
10
179.69
20
-156.637
11
179.69
21
-156.066
0
LINE
8
BLACK
6
CONTINUOUS
10
179.69
20
-156.066
11
179.547
21
-155.352
0
LINE
8
BLACK
6
CONTINUOUS
10
179.547
20
-155.352
11
179.404
21
-154.923
0
LINE
8
BLACK
6
CONTINUOUS
10
179.404
20
-154.923
11
179.261
21
-154.637
0
LINE
8
BLACK
6
CONTINUOUS
10
179.261
20
-154.637
11
178.975
21
-154.209
0
LINE
8
BLACK
6
CONTINUOUS
10
178.975
20
-154.209
11
178.833
21
-154.066
  0
ENDSEC
  0
EOF
