M48
; DRILL file {KiCad (5.1.5-0-10_14)} date Saturday, 29 January 2022 at 04:04:05 pm
; FORMAT={-:-/ absolute / metric / decimal}
; #@! TF.CreationDate,2022-01-29T16:04:05+10:00
; #@! TF.GenerationSoftware,Kicad,Pcbnew,(5.1.5-0-10_14)
; #@! TF.FileFunction,Plated,1,2,PTH
FMAT,2
METRIC
T1C1.200
%
G90
G05
T1
X127.381Y-49.53
X129.921Y-49.53
X72.771Y-89.281
X75.311Y-89.281
X77.851Y-89.281
X80.391Y-89.281
X72.644Y-96.266
X75.184Y-96.266
X77.724Y-96.266
X80.264Y-96.266
X112.141Y-131.445
X114.681Y-131.445
X117.221Y-131.445
X119.761Y-131.445
X122.301Y-131.445
X124.841Y-131.445
X127.381Y-131.445
X129.921Y-131.445
X127.508Y-56.896
X130.048Y-56.896
X87.249Y-49.276
X89.789Y-49.276
X92.329Y-49.276
X94.869Y-49.276
X97.409Y-49.276
X99.949Y-49.276
X102.489Y-49.276
X105.029Y-49.276
X46.99Y-88.646
X49.53Y-88.646
X52.07Y-88.646
X54.61Y-88.646
X127.254Y-86.995
X129.794Y-86.995
X47.037Y-131.191
X49.577Y-131.191
X52.117Y-131.191
X54.657Y-131.191
X57.197Y-131.191
X59.737Y-131.191
X62.277Y-131.191
X64.817Y-131.191
X47.244Y-49.53
X49.784Y-49.53
X52.324Y-49.53
X54.864Y-49.53
X57.404Y-49.53
X59.944Y-49.53
X62.484Y-49.53
X65.024Y-49.53
X47.037Y-124.206
X49.577Y-124.206
X52.117Y-124.206
X54.657Y-124.206
X57.197Y-124.206
X59.737Y-124.206
X62.277Y-124.206
X64.817Y-124.206
X87.249Y-56.261
X89.789Y-56.261
X92.329Y-56.261
X94.869Y-56.261
X97.409Y-56.261
X99.949Y-56.261
X102.489Y-56.261
X105.029Y-56.261
X127.254Y-80.01
X129.794Y-80.01
X112.141Y-124.46
X114.681Y-124.46
X117.221Y-124.46
X119.761Y-124.46
X122.301Y-124.46
X124.841Y-124.46
X127.381Y-124.46
X129.921Y-124.46
X46.863Y-95.504
X49.403Y-95.504
X51.943Y-95.504
X54.483Y-95.504
X47.244Y-56.515
X49.784Y-56.515
X52.324Y-56.515
X54.864Y-56.515
X57.404Y-56.515
X59.944Y-56.515
X62.484Y-56.515
X65.024Y-56.515
T0
M30
