G04 #@! TF.GenerationSoftware,KiCad,Pcbnew,(5.1.5-0-10_14)*
G04 #@! TF.CreationDate,2020-06-22T06:00:13+10:00*
G04 #@! TF.ProjectId,LED_Downlight,4c45445f-446f-4776-9e6c-696768742e6b,rev?*
G04 #@! TF.SameCoordinates,Original*
G04 #@! TF.FileFunction,Copper,L1,Top*
G04 #@! TF.FilePolarity,Positive*
%FSLAX46Y46*%
G04 Gerber Fmt 4.6, Leading zero omitted, Abs format (unit mm)*
G04 Created by KiCad (PCBNEW (5.1.5-0-10_14)) date 2020-06-22 06:00:13*
%MOMM*%
%LPD*%
G04 APERTURE LIST*
%ADD10O,1.600000X1.600000*%
%ADD11C,1.600000*%
%ADD12O,1.700000X1.700000*%
%ADD13R,1.700000X1.700000*%
%ADD14C,1.800000*%
%ADD15R,1.800000X1.800000*%
%ADD16C,0.250000*%
%ADD17C,0.500000*%
G04 APERTURE END LIST*
D10*
X186570000Y-57840000D03*
D11*
X178950000Y-57840000D03*
D10*
X186950000Y-61630000D03*
D11*
X179330000Y-61630000D03*
D12*
X210820000Y-55880000D03*
X210820000Y-58420000D03*
X210820000Y-60960000D03*
D13*
X210820000Y-63500000D03*
D12*
X176022000Y-63400000D03*
X176022000Y-60860000D03*
X176022000Y-58320000D03*
D13*
X176022000Y-55780000D03*
D14*
X204180000Y-49750000D03*
D15*
X204180000Y-52290000D03*
D14*
X193675000Y-49750000D03*
D15*
X193675000Y-52290000D03*
D14*
X183170000Y-49750000D03*
D15*
X183170000Y-52290000D03*
D14*
X204180000Y-67350000D03*
D15*
X204180000Y-69890000D03*
D14*
X193675000Y-67350000D03*
D15*
X193675000Y-69890000D03*
D14*
X183170000Y-67350000D03*
D15*
X183170000Y-69890000D03*
D16*
X183170000Y-69890000D02*
X184395300Y-69890000D01*
X184395300Y-69890000D02*
X186935300Y-67350000D01*
X186935300Y-67350000D02*
X193675000Y-67350000D01*
X193675000Y-69890000D02*
X194900300Y-69890000D01*
X194900300Y-69890000D02*
X197440300Y-67350000D01*
X197440300Y-67350000D02*
X204180000Y-67350000D01*
X183170000Y-52290000D02*
X184395300Y-52290000D01*
X184395300Y-52290000D02*
X186935300Y-49750000D01*
X186935300Y-49750000D02*
X193675000Y-49750000D01*
X193675000Y-52290000D02*
X194900300Y-52290000D01*
X194900300Y-52290000D02*
X197440300Y-49750000D01*
X197440300Y-49750000D02*
X204180000Y-49750000D01*
D17*
X204180000Y-69890000D02*
X202829700Y-69890000D01*
X202829700Y-69890000D02*
X201433300Y-71286400D01*
X201433300Y-71286400D02*
X182064900Y-71286400D01*
X182064900Y-71286400D02*
X174697400Y-63918900D01*
X174697400Y-63918900D02*
X174697400Y-59644600D01*
X174697400Y-59644600D02*
X176022000Y-58320000D01*
X178950000Y-57840000D02*
X180217300Y-56572700D01*
X180217300Y-56572700D02*
X207672400Y-56572700D01*
X207672400Y-56572700D02*
X209519700Y-58420000D01*
X176022000Y-60860000D02*
X178950000Y-57932000D01*
X178950000Y-57932000D02*
X178950000Y-57840000D01*
X210820000Y-58420000D02*
X209519700Y-58420000D01*
X210820000Y-63500000D02*
X181200000Y-63500000D01*
X181200000Y-63500000D02*
X179330000Y-61630000D01*
M02*
