G04 #@! TF.GenerationSoftware,KiCad,Pcbnew,(5.1.5-0-10_14)*
G04 #@! TF.CreationDate,2020-06-22T09:19:20+10:00*
G04 #@! TF.ProjectId,LED_Down_Multi,4c45445f-446f-4776-9e5f-4d756c74692e,rev?*
G04 #@! TF.SameCoordinates,Original*
G04 #@! TF.FileFunction,Legend,Top*
G04 #@! TF.FilePolarity,Positive*
%FSLAX46Y46*%
G04 Gerber Fmt 4.6, Leading zero omitted, Abs format (unit mm)*
G04 Created by KiCad (PCBNEW (5.1.5-0-10_14)) date 2020-06-22 09:19:20*
%MOMM*%
%LPD*%
G04 APERTURE LIST*
%ADD10C,0.120000*%
%ADD11C,0.150000*%
G04 APERTURE END LIST*
D10*
X214122000Y-103124000D02*
X169672000Y-103124000D01*
X212090000Y-72644000D02*
X168148000Y-72644000D01*
D11*
X198018571Y-115846380D02*
X198256666Y-116846380D01*
X198447142Y-116132095D01*
X198637619Y-116846380D01*
X198875714Y-115846380D01*
X199256666Y-116846380D02*
X199256666Y-115846380D01*
X199685238Y-116846380D02*
X199685238Y-116322571D01*
X199637619Y-116227333D01*
X199542380Y-116179714D01*
X199399523Y-116179714D01*
X199304285Y-116227333D01*
X199256666Y-116274952D01*
X200161428Y-116846380D02*
X200161428Y-116179714D01*
X200161428Y-115846380D02*
X200113809Y-115894000D01*
X200161428Y-115941619D01*
X200209047Y-115894000D01*
X200161428Y-115846380D01*
X200161428Y-115941619D01*
X200494761Y-116179714D02*
X200875714Y-116179714D01*
X200637619Y-115846380D02*
X200637619Y-116703523D01*
X200685238Y-116798761D01*
X200780476Y-116846380D01*
X200875714Y-116846380D01*
X201590000Y-116798761D02*
X201494761Y-116846380D01*
X201304285Y-116846380D01*
X201209047Y-116798761D01*
X201161428Y-116703523D01*
X201161428Y-116322571D01*
X201209047Y-116227333D01*
X201304285Y-116179714D01*
X201494761Y-116179714D01*
X201590000Y-116227333D01*
X201637619Y-116322571D01*
X201637619Y-116417809D01*
X201161428Y-116513047D01*
X203304285Y-116846380D02*
X202828095Y-116846380D01*
X202828095Y-115846380D01*
X203637619Y-116322571D02*
X203970952Y-116322571D01*
X204113809Y-116846380D02*
X203637619Y-116846380D01*
X203637619Y-115846380D01*
X204113809Y-115846380D01*
X204542380Y-116846380D02*
X204542380Y-115846380D01*
X204780476Y-115846380D01*
X204923333Y-115894000D01*
X205018571Y-115989238D01*
X205066190Y-116084476D01*
X205113809Y-116274952D01*
X205113809Y-116417809D01*
X205066190Y-116608285D01*
X205018571Y-116703523D01*
X204923333Y-116798761D01*
X204780476Y-116846380D01*
X204542380Y-116846380D01*
X198390000Y-120604000D02*
X198294761Y-120556380D01*
X198151904Y-120556380D01*
X198009047Y-120604000D01*
X197913809Y-120699238D01*
X197866190Y-120794476D01*
X197818571Y-120984952D01*
X197818571Y-121127809D01*
X197866190Y-121318285D01*
X197913809Y-121413523D01*
X198009047Y-121508761D01*
X198151904Y-121556380D01*
X198247142Y-121556380D01*
X198390000Y-121508761D01*
X198437619Y-121461142D01*
X198437619Y-121127809D01*
X198247142Y-121127809D01*
X198866190Y-121556380D02*
X198866190Y-120889714D01*
X198866190Y-121080190D02*
X198913809Y-120984952D01*
X198961428Y-120937333D01*
X199056666Y-120889714D01*
X199151904Y-120889714D01*
X199866190Y-121508761D02*
X199770952Y-121556380D01*
X199580476Y-121556380D01*
X199485238Y-121508761D01*
X199437619Y-121413523D01*
X199437619Y-121032571D01*
X199485238Y-120937333D01*
X199580476Y-120889714D01*
X199770952Y-120889714D01*
X199866190Y-120937333D01*
X199913809Y-121032571D01*
X199913809Y-121127809D01*
X199437619Y-121223047D01*
X200723333Y-121508761D02*
X200628095Y-121556380D01*
X200437619Y-121556380D01*
X200342380Y-121508761D01*
X200294761Y-121413523D01*
X200294761Y-121032571D01*
X200342380Y-120937333D01*
X200437619Y-120889714D01*
X200628095Y-120889714D01*
X200723333Y-120937333D01*
X200770952Y-121032571D01*
X200770952Y-121127809D01*
X200294761Y-121223047D01*
X201199523Y-120889714D02*
X201199523Y-121556380D01*
X201199523Y-120984952D02*
X201247142Y-120937333D01*
X201342380Y-120889714D01*
X201485238Y-120889714D01*
X201580476Y-120937333D01*
X201628095Y-121032571D01*
X201628095Y-121556380D01*
X203342380Y-121556380D02*
X202866190Y-121556380D01*
X202866190Y-120556380D01*
X203675714Y-121032571D02*
X204009047Y-121032571D01*
X204151904Y-121556380D02*
X203675714Y-121556380D01*
X203675714Y-120556380D01*
X204151904Y-120556380D01*
X204580476Y-121556380D02*
X204580476Y-120556380D01*
X204818571Y-120556380D01*
X204961428Y-120604000D01*
X205056666Y-120699238D01*
X205104285Y-120794476D01*
X205151904Y-120984952D01*
X205151904Y-121127809D01*
X205104285Y-121318285D01*
X205056666Y-121413523D01*
X204961428Y-121508761D01*
X204818571Y-121556380D01*
X204580476Y-121556380D01*
X205532857Y-121508761D02*
X205628095Y-121556380D01*
X205818571Y-121556380D01*
X205913809Y-121508761D01*
X205961428Y-121413523D01*
X205961428Y-121365904D01*
X205913809Y-121270666D01*
X205818571Y-121223047D01*
X205675714Y-121223047D01*
X205580476Y-121175428D01*
X205532857Y-121080190D01*
X205532857Y-121032571D01*
X205580476Y-120937333D01*
X205675714Y-120889714D01*
X205818571Y-120889714D01*
X205913809Y-120937333D01*
X173847333Y-131103714D02*
X174085428Y-131770380D01*
X174323523Y-131103714D01*
X174894952Y-130770380D02*
X174990190Y-130770380D01*
X175085428Y-130818000D01*
X175133047Y-130865619D01*
X175180666Y-130960857D01*
X175228285Y-131151333D01*
X175228285Y-131389428D01*
X175180666Y-131579904D01*
X175133047Y-131675142D01*
X175085428Y-131722761D01*
X174990190Y-131770380D01*
X174894952Y-131770380D01*
X174799714Y-131722761D01*
X174752095Y-131675142D01*
X174704476Y-131579904D01*
X174656857Y-131389428D01*
X174656857Y-131151333D01*
X174704476Y-130960857D01*
X174752095Y-130865619D01*
X174799714Y-130818000D01*
X174894952Y-130770380D01*
X175847333Y-130770380D02*
X175942571Y-130770380D01*
X176037809Y-130818000D01*
X176085428Y-130865619D01*
X176133047Y-130960857D01*
X176180666Y-131151333D01*
X176180666Y-131389428D01*
X176133047Y-131579904D01*
X176085428Y-131675142D01*
X176037809Y-131722761D01*
X175942571Y-131770380D01*
X175847333Y-131770380D01*
X175752095Y-131722761D01*
X175704476Y-131675142D01*
X175656857Y-131579904D01*
X175609238Y-131389428D01*
X175609238Y-131151333D01*
X175656857Y-130960857D01*
X175704476Y-130865619D01*
X175752095Y-130818000D01*
X175847333Y-130770380D01*
X177133047Y-131770380D02*
X176561619Y-131770380D01*
X176847333Y-131770380D02*
X176847333Y-130770380D01*
X176752095Y-130913238D01*
X176656857Y-131008476D01*
X176561619Y-131056095D01*
X198557142Y-118816380D02*
X198080952Y-118816380D01*
X198080952Y-117816380D01*
X198890476Y-118292571D02*
X199223809Y-118292571D01*
X199366666Y-118816380D02*
X198890476Y-118816380D01*
X198890476Y-117816380D01*
X199366666Y-117816380D01*
X199795238Y-118816380D02*
X199795238Y-117816380D01*
X200033333Y-117816380D01*
X200176190Y-117864000D01*
X200271428Y-117959238D01*
X200319047Y-118054476D01*
X200366666Y-118244952D01*
X200366666Y-118387809D01*
X200319047Y-118578285D01*
X200271428Y-118673523D01*
X200176190Y-118768761D01*
X200033333Y-118816380D01*
X199795238Y-118816380D01*
X201557142Y-118816380D02*
X201557142Y-117816380D01*
X201795238Y-117816380D01*
X201938095Y-117864000D01*
X202033333Y-117959238D01*
X202080952Y-118054476D01*
X202128571Y-118244952D01*
X202128571Y-118387809D01*
X202080952Y-118578285D01*
X202033333Y-118673523D01*
X201938095Y-118768761D01*
X201795238Y-118816380D01*
X201557142Y-118816380D01*
X202700000Y-118816380D02*
X202604761Y-118768761D01*
X202557142Y-118721142D01*
X202509523Y-118625904D01*
X202509523Y-118340190D01*
X202557142Y-118244952D01*
X202604761Y-118197333D01*
X202700000Y-118149714D01*
X202842857Y-118149714D01*
X202938095Y-118197333D01*
X202985714Y-118244952D01*
X203033333Y-118340190D01*
X203033333Y-118625904D01*
X202985714Y-118721142D01*
X202938095Y-118768761D01*
X202842857Y-118816380D01*
X202700000Y-118816380D01*
X203366666Y-118149714D02*
X203557142Y-118816380D01*
X203747619Y-118340190D01*
X203938095Y-118816380D01*
X204128571Y-118149714D01*
X204509523Y-118149714D02*
X204509523Y-118816380D01*
X204509523Y-118244952D02*
X204557142Y-118197333D01*
X204652380Y-118149714D01*
X204795238Y-118149714D01*
X204890476Y-118197333D01*
X204938095Y-118292571D01*
X204938095Y-118816380D01*
X205557142Y-118816380D02*
X205461904Y-118768761D01*
X205414285Y-118673523D01*
X205414285Y-117816380D01*
X205938095Y-118816380D02*
X205938095Y-118149714D01*
X205938095Y-117816380D02*
X205890476Y-117864000D01*
X205938095Y-117911619D01*
X205985714Y-117864000D01*
X205938095Y-117816380D01*
X205938095Y-117911619D01*
X206842857Y-118149714D02*
X206842857Y-118959238D01*
X206795238Y-119054476D01*
X206747619Y-119102095D01*
X206652380Y-119149714D01*
X206509523Y-119149714D01*
X206414285Y-119102095D01*
X206842857Y-118768761D02*
X206747619Y-118816380D01*
X206557142Y-118816380D01*
X206461904Y-118768761D01*
X206414285Y-118721142D01*
X206366666Y-118625904D01*
X206366666Y-118340190D01*
X206414285Y-118244952D01*
X206461904Y-118197333D01*
X206557142Y-118149714D01*
X206747619Y-118149714D01*
X206842857Y-118197333D01*
X207319047Y-118816380D02*
X207319047Y-117816380D01*
X207747619Y-118816380D02*
X207747619Y-118292571D01*
X207700000Y-118197333D01*
X207604761Y-118149714D01*
X207461904Y-118149714D01*
X207366666Y-118197333D01*
X207319047Y-118244952D01*
X208080952Y-118149714D02*
X208461904Y-118149714D01*
X208223809Y-117816380D02*
X208223809Y-118673523D01*
X208271428Y-118768761D01*
X208366666Y-118816380D01*
X208461904Y-118816380D01*
X205867047Y-108529428D02*
X206628952Y-108529428D01*
X206248000Y-108910380D02*
X206248000Y-108148476D01*
X205867047Y-111069428D02*
X206628952Y-111069428D01*
X195453047Y-111069428D02*
X196214952Y-111069428D01*
X195453047Y-108529428D02*
X196214952Y-108529428D01*
X195834000Y-108910380D02*
X195834000Y-108148476D01*
X184785047Y-128595428D02*
X185546952Y-128595428D01*
X195199047Y-128595428D02*
X195960952Y-128595428D01*
X195199047Y-126055428D02*
X195960952Y-126055428D01*
X195580000Y-126436380D02*
X195580000Y-125674476D01*
X205613047Y-126055428D02*
X206374952Y-126055428D01*
X205994000Y-126436380D02*
X205994000Y-125674476D01*
X205613047Y-128595428D02*
X206374952Y-128595428D01*
X185039047Y-111069428D02*
X185800952Y-111069428D01*
X185039047Y-108529428D02*
X185800952Y-108529428D01*
X185420000Y-108910380D02*
X185420000Y-108148476D01*
X184785047Y-126055428D02*
X185546952Y-126055428D01*
X185166000Y-126436380D02*
X185166000Y-125674476D01*
X198018571Y-85112380D02*
X198256666Y-86112380D01*
X198447142Y-85398095D01*
X198637619Y-86112380D01*
X198875714Y-85112380D01*
X199256666Y-86112380D02*
X199256666Y-85112380D01*
X199685238Y-86112380D02*
X199685238Y-85588571D01*
X199637619Y-85493333D01*
X199542380Y-85445714D01*
X199399523Y-85445714D01*
X199304285Y-85493333D01*
X199256666Y-85540952D01*
X200161428Y-86112380D02*
X200161428Y-85445714D01*
X200161428Y-85112380D02*
X200113809Y-85160000D01*
X200161428Y-85207619D01*
X200209047Y-85160000D01*
X200161428Y-85112380D01*
X200161428Y-85207619D01*
X200494761Y-85445714D02*
X200875714Y-85445714D01*
X200637619Y-85112380D02*
X200637619Y-85969523D01*
X200685238Y-86064761D01*
X200780476Y-86112380D01*
X200875714Y-86112380D01*
X201590000Y-86064761D02*
X201494761Y-86112380D01*
X201304285Y-86112380D01*
X201209047Y-86064761D01*
X201161428Y-85969523D01*
X201161428Y-85588571D01*
X201209047Y-85493333D01*
X201304285Y-85445714D01*
X201494761Y-85445714D01*
X201590000Y-85493333D01*
X201637619Y-85588571D01*
X201637619Y-85683809D01*
X201161428Y-85779047D01*
X203304285Y-86112380D02*
X202828095Y-86112380D01*
X202828095Y-85112380D01*
X203637619Y-85588571D02*
X203970952Y-85588571D01*
X204113809Y-86112380D02*
X203637619Y-86112380D01*
X203637619Y-85112380D01*
X204113809Y-85112380D01*
X204542380Y-86112380D02*
X204542380Y-85112380D01*
X204780476Y-85112380D01*
X204923333Y-85160000D01*
X205018571Y-85255238D01*
X205066190Y-85350476D01*
X205113809Y-85540952D01*
X205113809Y-85683809D01*
X205066190Y-85874285D01*
X205018571Y-85969523D01*
X204923333Y-86064761D01*
X204780476Y-86112380D01*
X204542380Y-86112380D01*
X198390000Y-89870000D02*
X198294761Y-89822380D01*
X198151904Y-89822380D01*
X198009047Y-89870000D01*
X197913809Y-89965238D01*
X197866190Y-90060476D01*
X197818571Y-90250952D01*
X197818571Y-90393809D01*
X197866190Y-90584285D01*
X197913809Y-90679523D01*
X198009047Y-90774761D01*
X198151904Y-90822380D01*
X198247142Y-90822380D01*
X198390000Y-90774761D01*
X198437619Y-90727142D01*
X198437619Y-90393809D01*
X198247142Y-90393809D01*
X198866190Y-90822380D02*
X198866190Y-90155714D01*
X198866190Y-90346190D02*
X198913809Y-90250952D01*
X198961428Y-90203333D01*
X199056666Y-90155714D01*
X199151904Y-90155714D01*
X199866190Y-90774761D02*
X199770952Y-90822380D01*
X199580476Y-90822380D01*
X199485238Y-90774761D01*
X199437619Y-90679523D01*
X199437619Y-90298571D01*
X199485238Y-90203333D01*
X199580476Y-90155714D01*
X199770952Y-90155714D01*
X199866190Y-90203333D01*
X199913809Y-90298571D01*
X199913809Y-90393809D01*
X199437619Y-90489047D01*
X200723333Y-90774761D02*
X200628095Y-90822380D01*
X200437619Y-90822380D01*
X200342380Y-90774761D01*
X200294761Y-90679523D01*
X200294761Y-90298571D01*
X200342380Y-90203333D01*
X200437619Y-90155714D01*
X200628095Y-90155714D01*
X200723333Y-90203333D01*
X200770952Y-90298571D01*
X200770952Y-90393809D01*
X200294761Y-90489047D01*
X201199523Y-90155714D02*
X201199523Y-90822380D01*
X201199523Y-90250952D02*
X201247142Y-90203333D01*
X201342380Y-90155714D01*
X201485238Y-90155714D01*
X201580476Y-90203333D01*
X201628095Y-90298571D01*
X201628095Y-90822380D01*
X203342380Y-90822380D02*
X202866190Y-90822380D01*
X202866190Y-89822380D01*
X203675714Y-90298571D02*
X204009047Y-90298571D01*
X204151904Y-90822380D02*
X203675714Y-90822380D01*
X203675714Y-89822380D01*
X204151904Y-89822380D01*
X204580476Y-90822380D02*
X204580476Y-89822380D01*
X204818571Y-89822380D01*
X204961428Y-89870000D01*
X205056666Y-89965238D01*
X205104285Y-90060476D01*
X205151904Y-90250952D01*
X205151904Y-90393809D01*
X205104285Y-90584285D01*
X205056666Y-90679523D01*
X204961428Y-90774761D01*
X204818571Y-90822380D01*
X204580476Y-90822380D01*
X205532857Y-90774761D02*
X205628095Y-90822380D01*
X205818571Y-90822380D01*
X205913809Y-90774761D01*
X205961428Y-90679523D01*
X205961428Y-90631904D01*
X205913809Y-90536666D01*
X205818571Y-90489047D01*
X205675714Y-90489047D01*
X205580476Y-90441428D01*
X205532857Y-90346190D01*
X205532857Y-90298571D01*
X205580476Y-90203333D01*
X205675714Y-90155714D01*
X205818571Y-90155714D01*
X205913809Y-90203333D01*
X173847333Y-100369714D02*
X174085428Y-101036380D01*
X174323523Y-100369714D01*
X174894952Y-100036380D02*
X174990190Y-100036380D01*
X175085428Y-100084000D01*
X175133047Y-100131619D01*
X175180666Y-100226857D01*
X175228285Y-100417333D01*
X175228285Y-100655428D01*
X175180666Y-100845904D01*
X175133047Y-100941142D01*
X175085428Y-100988761D01*
X174990190Y-101036380D01*
X174894952Y-101036380D01*
X174799714Y-100988761D01*
X174752095Y-100941142D01*
X174704476Y-100845904D01*
X174656857Y-100655428D01*
X174656857Y-100417333D01*
X174704476Y-100226857D01*
X174752095Y-100131619D01*
X174799714Y-100084000D01*
X174894952Y-100036380D01*
X175847333Y-100036380D02*
X175942571Y-100036380D01*
X176037809Y-100084000D01*
X176085428Y-100131619D01*
X176133047Y-100226857D01*
X176180666Y-100417333D01*
X176180666Y-100655428D01*
X176133047Y-100845904D01*
X176085428Y-100941142D01*
X176037809Y-100988761D01*
X175942571Y-101036380D01*
X175847333Y-101036380D01*
X175752095Y-100988761D01*
X175704476Y-100941142D01*
X175656857Y-100845904D01*
X175609238Y-100655428D01*
X175609238Y-100417333D01*
X175656857Y-100226857D01*
X175704476Y-100131619D01*
X175752095Y-100084000D01*
X175847333Y-100036380D01*
X177133047Y-101036380D02*
X176561619Y-101036380D01*
X176847333Y-101036380D02*
X176847333Y-100036380D01*
X176752095Y-100179238D01*
X176656857Y-100274476D01*
X176561619Y-100322095D01*
X198557142Y-88082380D02*
X198080952Y-88082380D01*
X198080952Y-87082380D01*
X198890476Y-87558571D02*
X199223809Y-87558571D01*
X199366666Y-88082380D02*
X198890476Y-88082380D01*
X198890476Y-87082380D01*
X199366666Y-87082380D01*
X199795238Y-88082380D02*
X199795238Y-87082380D01*
X200033333Y-87082380D01*
X200176190Y-87130000D01*
X200271428Y-87225238D01*
X200319047Y-87320476D01*
X200366666Y-87510952D01*
X200366666Y-87653809D01*
X200319047Y-87844285D01*
X200271428Y-87939523D01*
X200176190Y-88034761D01*
X200033333Y-88082380D01*
X199795238Y-88082380D01*
X201557142Y-88082380D02*
X201557142Y-87082380D01*
X201795238Y-87082380D01*
X201938095Y-87130000D01*
X202033333Y-87225238D01*
X202080952Y-87320476D01*
X202128571Y-87510952D01*
X202128571Y-87653809D01*
X202080952Y-87844285D01*
X202033333Y-87939523D01*
X201938095Y-88034761D01*
X201795238Y-88082380D01*
X201557142Y-88082380D01*
X202700000Y-88082380D02*
X202604761Y-88034761D01*
X202557142Y-87987142D01*
X202509523Y-87891904D01*
X202509523Y-87606190D01*
X202557142Y-87510952D01*
X202604761Y-87463333D01*
X202700000Y-87415714D01*
X202842857Y-87415714D01*
X202938095Y-87463333D01*
X202985714Y-87510952D01*
X203033333Y-87606190D01*
X203033333Y-87891904D01*
X202985714Y-87987142D01*
X202938095Y-88034761D01*
X202842857Y-88082380D01*
X202700000Y-88082380D01*
X203366666Y-87415714D02*
X203557142Y-88082380D01*
X203747619Y-87606190D01*
X203938095Y-88082380D01*
X204128571Y-87415714D01*
X204509523Y-87415714D02*
X204509523Y-88082380D01*
X204509523Y-87510952D02*
X204557142Y-87463333D01*
X204652380Y-87415714D01*
X204795238Y-87415714D01*
X204890476Y-87463333D01*
X204938095Y-87558571D01*
X204938095Y-88082380D01*
X205557142Y-88082380D02*
X205461904Y-88034761D01*
X205414285Y-87939523D01*
X205414285Y-87082380D01*
X205938095Y-88082380D02*
X205938095Y-87415714D01*
X205938095Y-87082380D02*
X205890476Y-87130000D01*
X205938095Y-87177619D01*
X205985714Y-87130000D01*
X205938095Y-87082380D01*
X205938095Y-87177619D01*
X206842857Y-87415714D02*
X206842857Y-88225238D01*
X206795238Y-88320476D01*
X206747619Y-88368095D01*
X206652380Y-88415714D01*
X206509523Y-88415714D01*
X206414285Y-88368095D01*
X206842857Y-88034761D02*
X206747619Y-88082380D01*
X206557142Y-88082380D01*
X206461904Y-88034761D01*
X206414285Y-87987142D01*
X206366666Y-87891904D01*
X206366666Y-87606190D01*
X206414285Y-87510952D01*
X206461904Y-87463333D01*
X206557142Y-87415714D01*
X206747619Y-87415714D01*
X206842857Y-87463333D01*
X207319047Y-88082380D02*
X207319047Y-87082380D01*
X207747619Y-88082380D02*
X207747619Y-87558571D01*
X207700000Y-87463333D01*
X207604761Y-87415714D01*
X207461904Y-87415714D01*
X207366666Y-87463333D01*
X207319047Y-87510952D01*
X208080952Y-87415714D02*
X208461904Y-87415714D01*
X208223809Y-87082380D02*
X208223809Y-87939523D01*
X208271428Y-88034761D01*
X208366666Y-88082380D01*
X208461904Y-88082380D01*
X205867047Y-77795428D02*
X206628952Y-77795428D01*
X206248000Y-78176380D02*
X206248000Y-77414476D01*
X205867047Y-80335428D02*
X206628952Y-80335428D01*
X195453047Y-80335428D02*
X196214952Y-80335428D01*
X195453047Y-77795428D02*
X196214952Y-77795428D01*
X195834000Y-78176380D02*
X195834000Y-77414476D01*
X185039047Y-80335428D02*
X185800952Y-80335428D01*
X185039047Y-77795428D02*
X185800952Y-77795428D01*
X185420000Y-78176380D02*
X185420000Y-77414476D01*
X184785047Y-95321428D02*
X185546952Y-95321428D01*
X185166000Y-95702380D02*
X185166000Y-94940476D01*
X184785047Y-97861428D02*
X185546952Y-97861428D01*
X195199047Y-97861428D02*
X195960952Y-97861428D01*
X195199047Y-95321428D02*
X195960952Y-95321428D01*
X195580000Y-95702380D02*
X195580000Y-94940476D01*
X205613047Y-95321428D02*
X206374952Y-95321428D01*
X205994000Y-95702380D02*
X205994000Y-94940476D01*
X205613047Y-97861428D02*
X206374952Y-97861428D01*
X205613047Y-67635428D02*
X206374952Y-67635428D01*
X205613047Y-65095428D02*
X206374952Y-65095428D01*
X205994000Y-65476380D02*
X205994000Y-64714476D01*
X195199047Y-65095428D02*
X195960952Y-65095428D01*
X195580000Y-65476380D02*
X195580000Y-64714476D01*
X195199047Y-67635428D02*
X195960952Y-67635428D01*
X184785047Y-67635428D02*
X185546952Y-67635428D01*
X184785047Y-65095428D02*
X185546952Y-65095428D01*
X185166000Y-65476380D02*
X185166000Y-64714476D01*
X185039047Y-47569428D02*
X185800952Y-47569428D01*
X185420000Y-47950380D02*
X185420000Y-47188476D01*
X185039047Y-50109428D02*
X185800952Y-50109428D01*
X195453047Y-47569428D02*
X196214952Y-47569428D01*
X195834000Y-47950380D02*
X195834000Y-47188476D01*
X195453047Y-50109428D02*
X196214952Y-50109428D01*
X205867047Y-50109428D02*
X206628952Y-50109428D01*
X205867047Y-47569428D02*
X206628952Y-47569428D01*
X206248000Y-47950380D02*
X206248000Y-47188476D01*
X198557142Y-57856380D02*
X198080952Y-57856380D01*
X198080952Y-56856380D01*
X198890476Y-57332571D02*
X199223809Y-57332571D01*
X199366666Y-57856380D02*
X198890476Y-57856380D01*
X198890476Y-56856380D01*
X199366666Y-56856380D01*
X199795238Y-57856380D02*
X199795238Y-56856380D01*
X200033333Y-56856380D01*
X200176190Y-56904000D01*
X200271428Y-56999238D01*
X200319047Y-57094476D01*
X200366666Y-57284952D01*
X200366666Y-57427809D01*
X200319047Y-57618285D01*
X200271428Y-57713523D01*
X200176190Y-57808761D01*
X200033333Y-57856380D01*
X199795238Y-57856380D01*
X201557142Y-57856380D02*
X201557142Y-56856380D01*
X201795238Y-56856380D01*
X201938095Y-56904000D01*
X202033333Y-56999238D01*
X202080952Y-57094476D01*
X202128571Y-57284952D01*
X202128571Y-57427809D01*
X202080952Y-57618285D01*
X202033333Y-57713523D01*
X201938095Y-57808761D01*
X201795238Y-57856380D01*
X201557142Y-57856380D01*
X202700000Y-57856380D02*
X202604761Y-57808761D01*
X202557142Y-57761142D01*
X202509523Y-57665904D01*
X202509523Y-57380190D01*
X202557142Y-57284952D01*
X202604761Y-57237333D01*
X202700000Y-57189714D01*
X202842857Y-57189714D01*
X202938095Y-57237333D01*
X202985714Y-57284952D01*
X203033333Y-57380190D01*
X203033333Y-57665904D01*
X202985714Y-57761142D01*
X202938095Y-57808761D01*
X202842857Y-57856380D01*
X202700000Y-57856380D01*
X203366666Y-57189714D02*
X203557142Y-57856380D01*
X203747619Y-57380190D01*
X203938095Y-57856380D01*
X204128571Y-57189714D01*
X204509523Y-57189714D02*
X204509523Y-57856380D01*
X204509523Y-57284952D02*
X204557142Y-57237333D01*
X204652380Y-57189714D01*
X204795238Y-57189714D01*
X204890476Y-57237333D01*
X204938095Y-57332571D01*
X204938095Y-57856380D01*
X205557142Y-57856380D02*
X205461904Y-57808761D01*
X205414285Y-57713523D01*
X205414285Y-56856380D01*
X205938095Y-57856380D02*
X205938095Y-57189714D01*
X205938095Y-56856380D02*
X205890476Y-56904000D01*
X205938095Y-56951619D01*
X205985714Y-56904000D01*
X205938095Y-56856380D01*
X205938095Y-56951619D01*
X206842857Y-57189714D02*
X206842857Y-57999238D01*
X206795238Y-58094476D01*
X206747619Y-58142095D01*
X206652380Y-58189714D01*
X206509523Y-58189714D01*
X206414285Y-58142095D01*
X206842857Y-57808761D02*
X206747619Y-57856380D01*
X206557142Y-57856380D01*
X206461904Y-57808761D01*
X206414285Y-57761142D01*
X206366666Y-57665904D01*
X206366666Y-57380190D01*
X206414285Y-57284952D01*
X206461904Y-57237333D01*
X206557142Y-57189714D01*
X206747619Y-57189714D01*
X206842857Y-57237333D01*
X207319047Y-57856380D02*
X207319047Y-56856380D01*
X207747619Y-57856380D02*
X207747619Y-57332571D01*
X207700000Y-57237333D01*
X207604761Y-57189714D01*
X207461904Y-57189714D01*
X207366666Y-57237333D01*
X207319047Y-57284952D01*
X208080952Y-57189714D02*
X208461904Y-57189714D01*
X208223809Y-56856380D02*
X208223809Y-57713523D01*
X208271428Y-57808761D01*
X208366666Y-57856380D01*
X208461904Y-57856380D01*
X173847333Y-70143714D02*
X174085428Y-70810380D01*
X174323523Y-70143714D01*
X174894952Y-69810380D02*
X174990190Y-69810380D01*
X175085428Y-69858000D01*
X175133047Y-69905619D01*
X175180666Y-70000857D01*
X175228285Y-70191333D01*
X175228285Y-70429428D01*
X175180666Y-70619904D01*
X175133047Y-70715142D01*
X175085428Y-70762761D01*
X174990190Y-70810380D01*
X174894952Y-70810380D01*
X174799714Y-70762761D01*
X174752095Y-70715142D01*
X174704476Y-70619904D01*
X174656857Y-70429428D01*
X174656857Y-70191333D01*
X174704476Y-70000857D01*
X174752095Y-69905619D01*
X174799714Y-69858000D01*
X174894952Y-69810380D01*
X175847333Y-69810380D02*
X175942571Y-69810380D01*
X176037809Y-69858000D01*
X176085428Y-69905619D01*
X176133047Y-70000857D01*
X176180666Y-70191333D01*
X176180666Y-70429428D01*
X176133047Y-70619904D01*
X176085428Y-70715142D01*
X176037809Y-70762761D01*
X175942571Y-70810380D01*
X175847333Y-70810380D01*
X175752095Y-70762761D01*
X175704476Y-70715142D01*
X175656857Y-70619904D01*
X175609238Y-70429428D01*
X175609238Y-70191333D01*
X175656857Y-70000857D01*
X175704476Y-69905619D01*
X175752095Y-69858000D01*
X175847333Y-69810380D01*
X177133047Y-70810380D02*
X176561619Y-70810380D01*
X176847333Y-70810380D02*
X176847333Y-69810380D01*
X176752095Y-69953238D01*
X176656857Y-70048476D01*
X176561619Y-70096095D01*
X198390000Y-59644000D02*
X198294761Y-59596380D01*
X198151904Y-59596380D01*
X198009047Y-59644000D01*
X197913809Y-59739238D01*
X197866190Y-59834476D01*
X197818571Y-60024952D01*
X197818571Y-60167809D01*
X197866190Y-60358285D01*
X197913809Y-60453523D01*
X198009047Y-60548761D01*
X198151904Y-60596380D01*
X198247142Y-60596380D01*
X198390000Y-60548761D01*
X198437619Y-60501142D01*
X198437619Y-60167809D01*
X198247142Y-60167809D01*
X198866190Y-60596380D02*
X198866190Y-59929714D01*
X198866190Y-60120190D02*
X198913809Y-60024952D01*
X198961428Y-59977333D01*
X199056666Y-59929714D01*
X199151904Y-59929714D01*
X199866190Y-60548761D02*
X199770952Y-60596380D01*
X199580476Y-60596380D01*
X199485238Y-60548761D01*
X199437619Y-60453523D01*
X199437619Y-60072571D01*
X199485238Y-59977333D01*
X199580476Y-59929714D01*
X199770952Y-59929714D01*
X199866190Y-59977333D01*
X199913809Y-60072571D01*
X199913809Y-60167809D01*
X199437619Y-60263047D01*
X200723333Y-60548761D02*
X200628095Y-60596380D01*
X200437619Y-60596380D01*
X200342380Y-60548761D01*
X200294761Y-60453523D01*
X200294761Y-60072571D01*
X200342380Y-59977333D01*
X200437619Y-59929714D01*
X200628095Y-59929714D01*
X200723333Y-59977333D01*
X200770952Y-60072571D01*
X200770952Y-60167809D01*
X200294761Y-60263047D01*
X201199523Y-59929714D02*
X201199523Y-60596380D01*
X201199523Y-60024952D02*
X201247142Y-59977333D01*
X201342380Y-59929714D01*
X201485238Y-59929714D01*
X201580476Y-59977333D01*
X201628095Y-60072571D01*
X201628095Y-60596380D01*
X203342380Y-60596380D02*
X202866190Y-60596380D01*
X202866190Y-59596380D01*
X203675714Y-60072571D02*
X204009047Y-60072571D01*
X204151904Y-60596380D02*
X203675714Y-60596380D01*
X203675714Y-59596380D01*
X204151904Y-59596380D01*
X204580476Y-60596380D02*
X204580476Y-59596380D01*
X204818571Y-59596380D01*
X204961428Y-59644000D01*
X205056666Y-59739238D01*
X205104285Y-59834476D01*
X205151904Y-60024952D01*
X205151904Y-60167809D01*
X205104285Y-60358285D01*
X205056666Y-60453523D01*
X204961428Y-60548761D01*
X204818571Y-60596380D01*
X204580476Y-60596380D01*
X205532857Y-60548761D02*
X205628095Y-60596380D01*
X205818571Y-60596380D01*
X205913809Y-60548761D01*
X205961428Y-60453523D01*
X205961428Y-60405904D01*
X205913809Y-60310666D01*
X205818571Y-60263047D01*
X205675714Y-60263047D01*
X205580476Y-60215428D01*
X205532857Y-60120190D01*
X205532857Y-60072571D01*
X205580476Y-59977333D01*
X205675714Y-59929714D01*
X205818571Y-59929714D01*
X205913809Y-59977333D01*
X198018571Y-54886380D02*
X198256666Y-55886380D01*
X198447142Y-55172095D01*
X198637619Y-55886380D01*
X198875714Y-54886380D01*
X199256666Y-55886380D02*
X199256666Y-54886380D01*
X199685238Y-55886380D02*
X199685238Y-55362571D01*
X199637619Y-55267333D01*
X199542380Y-55219714D01*
X199399523Y-55219714D01*
X199304285Y-55267333D01*
X199256666Y-55314952D01*
X200161428Y-55886380D02*
X200161428Y-55219714D01*
X200161428Y-54886380D02*
X200113809Y-54934000D01*
X200161428Y-54981619D01*
X200209047Y-54934000D01*
X200161428Y-54886380D01*
X200161428Y-54981619D01*
X200494761Y-55219714D02*
X200875714Y-55219714D01*
X200637619Y-54886380D02*
X200637619Y-55743523D01*
X200685238Y-55838761D01*
X200780476Y-55886380D01*
X200875714Y-55886380D01*
X201590000Y-55838761D02*
X201494761Y-55886380D01*
X201304285Y-55886380D01*
X201209047Y-55838761D01*
X201161428Y-55743523D01*
X201161428Y-55362571D01*
X201209047Y-55267333D01*
X201304285Y-55219714D01*
X201494761Y-55219714D01*
X201590000Y-55267333D01*
X201637619Y-55362571D01*
X201637619Y-55457809D01*
X201161428Y-55553047D01*
X203304285Y-55886380D02*
X202828095Y-55886380D01*
X202828095Y-54886380D01*
X203637619Y-55362571D02*
X203970952Y-55362571D01*
X204113809Y-55886380D02*
X203637619Y-55886380D01*
X203637619Y-54886380D01*
X204113809Y-54886380D01*
X204542380Y-55886380D02*
X204542380Y-54886380D01*
X204780476Y-54886380D01*
X204923333Y-54934000D01*
X205018571Y-55029238D01*
X205066190Y-55124476D01*
X205113809Y-55314952D01*
X205113809Y-55457809D01*
X205066190Y-55648285D01*
X205018571Y-55743523D01*
X204923333Y-55838761D01*
X204780476Y-55886380D01*
X204542380Y-55886380D01*
D10*
X181028000Y-131354000D02*
X185312000Y-131354000D01*
X187170000Y-127294000D02*
G75*
G03X187170000Y-127294000I-4000000J0D01*
G01*
X183169514Y-122704000D02*
G75*
G02X185311145Y-131354000I486J-4590000D01*
G01*
X183170486Y-122704000D02*
G75*
G03X181028855Y-131354000I-486J-4590000D01*
G01*
X191533000Y-131354000D02*
X195817000Y-131354000D01*
X197675000Y-127294000D02*
G75*
G03X197675000Y-127294000I-4000000J0D01*
G01*
X193674514Y-122704000D02*
G75*
G02X195816145Y-131354000I486J-4590000D01*
G01*
X193675486Y-122704000D02*
G75*
G03X191533855Y-131354000I-486J-4590000D01*
G01*
X202038000Y-131354000D02*
X206322000Y-131354000D01*
X208180000Y-127294000D02*
G75*
G03X208180000Y-127294000I-4000000J0D01*
G01*
X204179514Y-122704000D02*
G75*
G02X206321145Y-131354000I486J-4590000D01*
G01*
X204180486Y-122704000D02*
G75*
G03X202038855Y-131354000I-486J-4590000D01*
G01*
X181028000Y-113754000D02*
X185312000Y-113754000D01*
X187170000Y-109694000D02*
G75*
G03X187170000Y-109694000I-4000000J0D01*
G01*
X183169514Y-105104000D02*
G75*
G02X185311145Y-113754000I486J-4590000D01*
G01*
X183170486Y-105104000D02*
G75*
G03X181028855Y-113754000I-486J-4590000D01*
G01*
X191533000Y-113754000D02*
X195817000Y-113754000D01*
X197675000Y-109694000D02*
G75*
G03X197675000Y-109694000I-4000000J0D01*
G01*
X193674514Y-105104000D02*
G75*
G02X195816145Y-113754000I486J-4590000D01*
G01*
X193675486Y-105104000D02*
G75*
G03X191533855Y-113754000I-486J-4590000D01*
G01*
X202038000Y-113754000D02*
X206322000Y-113754000D01*
X208180000Y-109694000D02*
G75*
G03X208180000Y-109694000I-4000000J0D01*
G01*
X204179514Y-105104000D02*
G75*
G02X206321145Y-113754000I486J-4590000D01*
G01*
X204180486Y-105104000D02*
G75*
G03X202038855Y-113754000I-486J-4590000D01*
G01*
X183170486Y-91970000D02*
G75*
G03X181028855Y-100620000I-486J-4590000D01*
G01*
X183169514Y-91970000D02*
G75*
G02X185311145Y-100620000I486J-4590000D01*
G01*
X187170000Y-96560000D02*
G75*
G03X187170000Y-96560000I-4000000J0D01*
G01*
X181028000Y-100620000D02*
X185312000Y-100620000D01*
X193675486Y-91970000D02*
G75*
G03X191533855Y-100620000I-486J-4590000D01*
G01*
X193674514Y-91970000D02*
G75*
G02X195816145Y-100620000I486J-4590000D01*
G01*
X197675000Y-96560000D02*
G75*
G03X197675000Y-96560000I-4000000J0D01*
G01*
X191533000Y-100620000D02*
X195817000Y-100620000D01*
X204180486Y-91970000D02*
G75*
G03X202038855Y-100620000I-486J-4590000D01*
G01*
X204179514Y-91970000D02*
G75*
G02X206321145Y-100620000I486J-4590000D01*
G01*
X208180000Y-96560000D02*
G75*
G03X208180000Y-96560000I-4000000J0D01*
G01*
X202038000Y-100620000D02*
X206322000Y-100620000D01*
X183170486Y-74370000D02*
G75*
G03X181028855Y-83020000I-486J-4590000D01*
G01*
X183169514Y-74370000D02*
G75*
G02X185311145Y-83020000I486J-4590000D01*
G01*
X187170000Y-78960000D02*
G75*
G03X187170000Y-78960000I-4000000J0D01*
G01*
X181028000Y-83020000D02*
X185312000Y-83020000D01*
X193675486Y-74370000D02*
G75*
G03X191533855Y-83020000I-486J-4590000D01*
G01*
X193674514Y-74370000D02*
G75*
G02X195816145Y-83020000I486J-4590000D01*
G01*
X197675000Y-78960000D02*
G75*
G03X197675000Y-78960000I-4000000J0D01*
G01*
X191533000Y-83020000D02*
X195817000Y-83020000D01*
X204180486Y-74370000D02*
G75*
G03X202038855Y-83020000I-486J-4590000D01*
G01*
X204179514Y-74370000D02*
G75*
G02X206321145Y-83020000I486J-4590000D01*
G01*
X208180000Y-78960000D02*
G75*
G03X208180000Y-78960000I-4000000J0D01*
G01*
X202038000Y-83020000D02*
X206322000Y-83020000D01*
X202038000Y-52794000D02*
X206322000Y-52794000D01*
X208180000Y-48734000D02*
G75*
G03X208180000Y-48734000I-4000000J0D01*
G01*
X204179514Y-44144000D02*
G75*
G02X206321145Y-52794000I486J-4590000D01*
G01*
X204180486Y-44144000D02*
G75*
G03X202038855Y-52794000I-486J-4590000D01*
G01*
X191533000Y-52794000D02*
X195817000Y-52794000D01*
X197675000Y-48734000D02*
G75*
G03X197675000Y-48734000I-4000000J0D01*
G01*
X193674514Y-44144000D02*
G75*
G02X195816145Y-52794000I486J-4590000D01*
G01*
X193675486Y-44144000D02*
G75*
G03X191533855Y-52794000I-486J-4590000D01*
G01*
X181028000Y-52794000D02*
X185312000Y-52794000D01*
X187170000Y-48734000D02*
G75*
G03X187170000Y-48734000I-4000000J0D01*
G01*
X183169514Y-44144000D02*
G75*
G02X185311145Y-52794000I486J-4590000D01*
G01*
X183170486Y-44144000D02*
G75*
G03X181028855Y-52794000I-486J-4590000D01*
G01*
X202038000Y-70394000D02*
X206322000Y-70394000D01*
X208180000Y-66334000D02*
G75*
G03X208180000Y-66334000I-4000000J0D01*
G01*
X204179514Y-61744000D02*
G75*
G02X206321145Y-70394000I486J-4590000D01*
G01*
X204180486Y-61744000D02*
G75*
G03X202038855Y-70394000I-486J-4590000D01*
G01*
X191533000Y-70394000D02*
X195817000Y-70394000D01*
X197675000Y-66334000D02*
G75*
G03X197675000Y-66334000I-4000000J0D01*
G01*
X193674514Y-61744000D02*
G75*
G02X195816145Y-70394000I486J-4590000D01*
G01*
X193675486Y-61744000D02*
G75*
G03X191533855Y-70394000I-486J-4590000D01*
G01*
X181028000Y-70394000D02*
X185312000Y-70394000D01*
X187170000Y-66334000D02*
G75*
G03X187170000Y-66334000I-4000000J0D01*
G01*
X183169514Y-61744000D02*
G75*
G02X185311145Y-70394000I486J-4590000D01*
G01*
X183170486Y-61744000D02*
G75*
G03X181028855Y-70394000I-486J-4590000D01*
G01*
D11*
X178062380Y-128032095D02*
X177062380Y-128032095D01*
X177062380Y-127794000D01*
X177110000Y-127651142D01*
X177205238Y-127555904D01*
X177300476Y-127508285D01*
X177490952Y-127460666D01*
X177633809Y-127460666D01*
X177824285Y-127508285D01*
X177919523Y-127555904D01*
X178014761Y-127651142D01*
X178062380Y-127794000D01*
X178062380Y-128032095D01*
X178062380Y-126508285D02*
X178062380Y-127079714D01*
X178062380Y-126794000D02*
X177062380Y-126794000D01*
X177205238Y-126889238D01*
X177300476Y-126984476D01*
X177348095Y-127079714D01*
X188567380Y-128032095D02*
X187567380Y-128032095D01*
X187567380Y-127794000D01*
X187615000Y-127651142D01*
X187710238Y-127555904D01*
X187805476Y-127508285D01*
X187995952Y-127460666D01*
X188138809Y-127460666D01*
X188329285Y-127508285D01*
X188424523Y-127555904D01*
X188519761Y-127651142D01*
X188567380Y-127794000D01*
X188567380Y-128032095D01*
X187662619Y-127079714D02*
X187615000Y-127032095D01*
X187567380Y-126936857D01*
X187567380Y-126698761D01*
X187615000Y-126603523D01*
X187662619Y-126555904D01*
X187757857Y-126508285D01*
X187853095Y-126508285D01*
X187995952Y-126555904D01*
X188567380Y-127127333D01*
X188567380Y-126508285D01*
X199072380Y-128032095D02*
X198072380Y-128032095D01*
X198072380Y-127794000D01*
X198120000Y-127651142D01*
X198215238Y-127555904D01*
X198310476Y-127508285D01*
X198500952Y-127460666D01*
X198643809Y-127460666D01*
X198834285Y-127508285D01*
X198929523Y-127555904D01*
X199024761Y-127651142D01*
X199072380Y-127794000D01*
X199072380Y-128032095D01*
X198072380Y-127127333D02*
X198072380Y-126508285D01*
X198453333Y-126841619D01*
X198453333Y-126698761D01*
X198500952Y-126603523D01*
X198548571Y-126555904D01*
X198643809Y-126508285D01*
X198881904Y-126508285D01*
X198977142Y-126555904D01*
X199024761Y-126603523D01*
X199072380Y-126698761D01*
X199072380Y-126984476D01*
X199024761Y-127079714D01*
X198977142Y-127127333D01*
X178062380Y-110432095D02*
X177062380Y-110432095D01*
X177062380Y-110194000D01*
X177110000Y-110051142D01*
X177205238Y-109955904D01*
X177300476Y-109908285D01*
X177490952Y-109860666D01*
X177633809Y-109860666D01*
X177824285Y-109908285D01*
X177919523Y-109955904D01*
X178014761Y-110051142D01*
X178062380Y-110194000D01*
X178062380Y-110432095D01*
X177395714Y-109003523D02*
X178062380Y-109003523D01*
X177014761Y-109241619D02*
X177729047Y-109479714D01*
X177729047Y-108860666D01*
X188567380Y-110432095D02*
X187567380Y-110432095D01*
X187567380Y-110194000D01*
X187615000Y-110051142D01*
X187710238Y-109955904D01*
X187805476Y-109908285D01*
X187995952Y-109860666D01*
X188138809Y-109860666D01*
X188329285Y-109908285D01*
X188424523Y-109955904D01*
X188519761Y-110051142D01*
X188567380Y-110194000D01*
X188567380Y-110432095D01*
X187567380Y-108955904D02*
X187567380Y-109432095D01*
X188043571Y-109479714D01*
X187995952Y-109432095D01*
X187948333Y-109336857D01*
X187948333Y-109098761D01*
X187995952Y-109003523D01*
X188043571Y-108955904D01*
X188138809Y-108908285D01*
X188376904Y-108908285D01*
X188472142Y-108955904D01*
X188519761Y-109003523D01*
X188567380Y-109098761D01*
X188567380Y-109336857D01*
X188519761Y-109432095D01*
X188472142Y-109479714D01*
X199072380Y-110432095D02*
X198072380Y-110432095D01*
X198072380Y-110194000D01*
X198120000Y-110051142D01*
X198215238Y-109955904D01*
X198310476Y-109908285D01*
X198500952Y-109860666D01*
X198643809Y-109860666D01*
X198834285Y-109908285D01*
X198929523Y-109955904D01*
X199024761Y-110051142D01*
X199072380Y-110194000D01*
X199072380Y-110432095D01*
X198072380Y-109003523D02*
X198072380Y-109194000D01*
X198120000Y-109289238D01*
X198167619Y-109336857D01*
X198310476Y-109432095D01*
X198500952Y-109479714D01*
X198881904Y-109479714D01*
X198977142Y-109432095D01*
X199024761Y-109384476D01*
X199072380Y-109289238D01*
X199072380Y-109098761D01*
X199024761Y-109003523D01*
X198977142Y-108955904D01*
X198881904Y-108908285D01*
X198643809Y-108908285D01*
X198548571Y-108955904D01*
X198500952Y-109003523D01*
X198453333Y-109098761D01*
X198453333Y-109289238D01*
X198500952Y-109384476D01*
X198548571Y-109432095D01*
X198643809Y-109479714D01*
X193148095Y-114706380D02*
X193148095Y-113706380D01*
X193148095Y-114182571D02*
X193719523Y-114182571D01*
X193719523Y-114706380D02*
X193719523Y-113706380D01*
X194671904Y-113706380D02*
X194195714Y-113706380D01*
X194148095Y-114182571D01*
X194195714Y-114134952D01*
X194290952Y-114087333D01*
X194529047Y-114087333D01*
X194624285Y-114134952D01*
X194671904Y-114182571D01*
X194719523Y-114277809D01*
X194719523Y-114515904D01*
X194671904Y-114611142D01*
X194624285Y-114658761D01*
X194529047Y-114706380D01*
X194290952Y-114706380D01*
X194195714Y-114658761D01*
X194148095Y-114611142D01*
X178062380Y-97298095D02*
X177062380Y-97298095D01*
X177062380Y-97060000D01*
X177110000Y-96917142D01*
X177205238Y-96821904D01*
X177300476Y-96774285D01*
X177490952Y-96726666D01*
X177633809Y-96726666D01*
X177824285Y-96774285D01*
X177919523Y-96821904D01*
X178014761Y-96917142D01*
X178062380Y-97060000D01*
X178062380Y-97298095D01*
X178062380Y-95774285D02*
X178062380Y-96345714D01*
X178062380Y-96060000D02*
X177062380Y-96060000D01*
X177205238Y-96155238D01*
X177300476Y-96250476D01*
X177348095Y-96345714D01*
X188567380Y-97298095D02*
X187567380Y-97298095D01*
X187567380Y-97060000D01*
X187615000Y-96917142D01*
X187710238Y-96821904D01*
X187805476Y-96774285D01*
X187995952Y-96726666D01*
X188138809Y-96726666D01*
X188329285Y-96774285D01*
X188424523Y-96821904D01*
X188519761Y-96917142D01*
X188567380Y-97060000D01*
X188567380Y-97298095D01*
X187662619Y-96345714D02*
X187615000Y-96298095D01*
X187567380Y-96202857D01*
X187567380Y-95964761D01*
X187615000Y-95869523D01*
X187662619Y-95821904D01*
X187757857Y-95774285D01*
X187853095Y-95774285D01*
X187995952Y-95821904D01*
X188567380Y-96393333D01*
X188567380Y-95774285D01*
X199072380Y-97298095D02*
X198072380Y-97298095D01*
X198072380Y-97060000D01*
X198120000Y-96917142D01*
X198215238Y-96821904D01*
X198310476Y-96774285D01*
X198500952Y-96726666D01*
X198643809Y-96726666D01*
X198834285Y-96774285D01*
X198929523Y-96821904D01*
X199024761Y-96917142D01*
X199072380Y-97060000D01*
X199072380Y-97298095D01*
X198072380Y-96393333D02*
X198072380Y-95774285D01*
X198453333Y-96107619D01*
X198453333Y-95964761D01*
X198500952Y-95869523D01*
X198548571Y-95821904D01*
X198643809Y-95774285D01*
X198881904Y-95774285D01*
X198977142Y-95821904D01*
X199024761Y-95869523D01*
X199072380Y-95964761D01*
X199072380Y-96250476D01*
X199024761Y-96345714D01*
X198977142Y-96393333D01*
X178062380Y-79698095D02*
X177062380Y-79698095D01*
X177062380Y-79460000D01*
X177110000Y-79317142D01*
X177205238Y-79221904D01*
X177300476Y-79174285D01*
X177490952Y-79126666D01*
X177633809Y-79126666D01*
X177824285Y-79174285D01*
X177919523Y-79221904D01*
X178014761Y-79317142D01*
X178062380Y-79460000D01*
X178062380Y-79698095D01*
X177395714Y-78269523D02*
X178062380Y-78269523D01*
X177014761Y-78507619D02*
X177729047Y-78745714D01*
X177729047Y-78126666D01*
X188567380Y-79698095D02*
X187567380Y-79698095D01*
X187567380Y-79460000D01*
X187615000Y-79317142D01*
X187710238Y-79221904D01*
X187805476Y-79174285D01*
X187995952Y-79126666D01*
X188138809Y-79126666D01*
X188329285Y-79174285D01*
X188424523Y-79221904D01*
X188519761Y-79317142D01*
X188567380Y-79460000D01*
X188567380Y-79698095D01*
X187567380Y-78221904D02*
X187567380Y-78698095D01*
X188043571Y-78745714D01*
X187995952Y-78698095D01*
X187948333Y-78602857D01*
X187948333Y-78364761D01*
X187995952Y-78269523D01*
X188043571Y-78221904D01*
X188138809Y-78174285D01*
X188376904Y-78174285D01*
X188472142Y-78221904D01*
X188519761Y-78269523D01*
X188567380Y-78364761D01*
X188567380Y-78602857D01*
X188519761Y-78698095D01*
X188472142Y-78745714D01*
X199072380Y-79698095D02*
X198072380Y-79698095D01*
X198072380Y-79460000D01*
X198120000Y-79317142D01*
X198215238Y-79221904D01*
X198310476Y-79174285D01*
X198500952Y-79126666D01*
X198643809Y-79126666D01*
X198834285Y-79174285D01*
X198929523Y-79221904D01*
X199024761Y-79317142D01*
X199072380Y-79460000D01*
X199072380Y-79698095D01*
X198072380Y-78269523D02*
X198072380Y-78460000D01*
X198120000Y-78555238D01*
X198167619Y-78602857D01*
X198310476Y-78698095D01*
X198500952Y-78745714D01*
X198881904Y-78745714D01*
X198977142Y-78698095D01*
X199024761Y-78650476D01*
X199072380Y-78555238D01*
X199072380Y-78364761D01*
X199024761Y-78269523D01*
X198977142Y-78221904D01*
X198881904Y-78174285D01*
X198643809Y-78174285D01*
X198548571Y-78221904D01*
X198500952Y-78269523D01*
X198453333Y-78364761D01*
X198453333Y-78555238D01*
X198500952Y-78650476D01*
X198548571Y-78698095D01*
X198643809Y-78745714D01*
X193148095Y-83972380D02*
X193148095Y-82972380D01*
X193148095Y-83448571D02*
X193719523Y-83448571D01*
X193719523Y-83972380D02*
X193719523Y-82972380D01*
X194671904Y-82972380D02*
X194195714Y-82972380D01*
X194148095Y-83448571D01*
X194195714Y-83400952D01*
X194290952Y-83353333D01*
X194529047Y-83353333D01*
X194624285Y-83400952D01*
X194671904Y-83448571D01*
X194719523Y-83543809D01*
X194719523Y-83781904D01*
X194671904Y-83877142D01*
X194624285Y-83924761D01*
X194529047Y-83972380D01*
X194290952Y-83972380D01*
X194195714Y-83924761D01*
X194148095Y-83877142D01*
X193148095Y-53746380D02*
X193148095Y-52746380D01*
X193148095Y-53222571D02*
X193719523Y-53222571D01*
X193719523Y-53746380D02*
X193719523Y-52746380D01*
X194671904Y-52746380D02*
X194195714Y-52746380D01*
X194148095Y-53222571D01*
X194195714Y-53174952D01*
X194290952Y-53127333D01*
X194529047Y-53127333D01*
X194624285Y-53174952D01*
X194671904Y-53222571D01*
X194719523Y-53317809D01*
X194719523Y-53555904D01*
X194671904Y-53651142D01*
X194624285Y-53698761D01*
X194529047Y-53746380D01*
X194290952Y-53746380D01*
X194195714Y-53698761D01*
X194148095Y-53651142D01*
X199072380Y-49472095D02*
X198072380Y-49472095D01*
X198072380Y-49234000D01*
X198120000Y-49091142D01*
X198215238Y-48995904D01*
X198310476Y-48948285D01*
X198500952Y-48900666D01*
X198643809Y-48900666D01*
X198834285Y-48948285D01*
X198929523Y-48995904D01*
X199024761Y-49091142D01*
X199072380Y-49234000D01*
X199072380Y-49472095D01*
X198072380Y-48043523D02*
X198072380Y-48234000D01*
X198120000Y-48329238D01*
X198167619Y-48376857D01*
X198310476Y-48472095D01*
X198500952Y-48519714D01*
X198881904Y-48519714D01*
X198977142Y-48472095D01*
X199024761Y-48424476D01*
X199072380Y-48329238D01*
X199072380Y-48138761D01*
X199024761Y-48043523D01*
X198977142Y-47995904D01*
X198881904Y-47948285D01*
X198643809Y-47948285D01*
X198548571Y-47995904D01*
X198500952Y-48043523D01*
X198453333Y-48138761D01*
X198453333Y-48329238D01*
X198500952Y-48424476D01*
X198548571Y-48472095D01*
X198643809Y-48519714D01*
X188567380Y-49472095D02*
X187567380Y-49472095D01*
X187567380Y-49234000D01*
X187615000Y-49091142D01*
X187710238Y-48995904D01*
X187805476Y-48948285D01*
X187995952Y-48900666D01*
X188138809Y-48900666D01*
X188329285Y-48948285D01*
X188424523Y-48995904D01*
X188519761Y-49091142D01*
X188567380Y-49234000D01*
X188567380Y-49472095D01*
X187567380Y-47995904D02*
X187567380Y-48472095D01*
X188043571Y-48519714D01*
X187995952Y-48472095D01*
X187948333Y-48376857D01*
X187948333Y-48138761D01*
X187995952Y-48043523D01*
X188043571Y-47995904D01*
X188138809Y-47948285D01*
X188376904Y-47948285D01*
X188472142Y-47995904D01*
X188519761Y-48043523D01*
X188567380Y-48138761D01*
X188567380Y-48376857D01*
X188519761Y-48472095D01*
X188472142Y-48519714D01*
X178062380Y-49472095D02*
X177062380Y-49472095D01*
X177062380Y-49234000D01*
X177110000Y-49091142D01*
X177205238Y-48995904D01*
X177300476Y-48948285D01*
X177490952Y-48900666D01*
X177633809Y-48900666D01*
X177824285Y-48948285D01*
X177919523Y-48995904D01*
X178014761Y-49091142D01*
X178062380Y-49234000D01*
X178062380Y-49472095D01*
X177395714Y-48043523D02*
X178062380Y-48043523D01*
X177014761Y-48281619D02*
X177729047Y-48519714D01*
X177729047Y-47900666D01*
X199072380Y-67072095D02*
X198072380Y-67072095D01*
X198072380Y-66834000D01*
X198120000Y-66691142D01*
X198215238Y-66595904D01*
X198310476Y-66548285D01*
X198500952Y-66500666D01*
X198643809Y-66500666D01*
X198834285Y-66548285D01*
X198929523Y-66595904D01*
X199024761Y-66691142D01*
X199072380Y-66834000D01*
X199072380Y-67072095D01*
X198072380Y-66167333D02*
X198072380Y-65548285D01*
X198453333Y-65881619D01*
X198453333Y-65738761D01*
X198500952Y-65643523D01*
X198548571Y-65595904D01*
X198643809Y-65548285D01*
X198881904Y-65548285D01*
X198977142Y-65595904D01*
X199024761Y-65643523D01*
X199072380Y-65738761D01*
X199072380Y-66024476D01*
X199024761Y-66119714D01*
X198977142Y-66167333D01*
X188567380Y-67072095D02*
X187567380Y-67072095D01*
X187567380Y-66834000D01*
X187615000Y-66691142D01*
X187710238Y-66595904D01*
X187805476Y-66548285D01*
X187995952Y-66500666D01*
X188138809Y-66500666D01*
X188329285Y-66548285D01*
X188424523Y-66595904D01*
X188519761Y-66691142D01*
X188567380Y-66834000D01*
X188567380Y-67072095D01*
X187662619Y-66119714D02*
X187615000Y-66072095D01*
X187567380Y-65976857D01*
X187567380Y-65738761D01*
X187615000Y-65643523D01*
X187662619Y-65595904D01*
X187757857Y-65548285D01*
X187853095Y-65548285D01*
X187995952Y-65595904D01*
X188567380Y-66167333D01*
X188567380Y-65548285D01*
X178062380Y-67072095D02*
X177062380Y-67072095D01*
X177062380Y-66834000D01*
X177110000Y-66691142D01*
X177205238Y-66595904D01*
X177300476Y-66548285D01*
X177490952Y-66500666D01*
X177633809Y-66500666D01*
X177824285Y-66548285D01*
X177919523Y-66595904D01*
X178014761Y-66691142D01*
X178062380Y-66834000D01*
X178062380Y-67072095D01*
X178062380Y-65548285D02*
X178062380Y-66119714D01*
X178062380Y-65834000D02*
X177062380Y-65834000D01*
X177205238Y-65929238D01*
X177300476Y-66024476D01*
X177348095Y-66119714D01*
M02*
