G04 #@! TF.GenerationSoftware,KiCad,Pcbnew,(5.1.5-0-10_14)*
G04 #@! TF.CreationDate,2020-06-22T06:00:13+10:00*
G04 #@! TF.ProjectId,LED_Downlight,4c45445f-446f-4776-9e6c-696768742e6b,rev?*
G04 #@! TF.SameCoordinates,Original*
G04 #@! TF.FileFunction,Copper,L2,Bot*
G04 #@! TF.FilePolarity,Positive*
%FSLAX46Y46*%
G04 Gerber Fmt 4.6, Leading zero omitted, Abs format (unit mm)*
G04 Created by KiCad (PCBNEW (5.1.5-0-10_14)) date 2020-06-22 06:00:13*
%MOMM*%
%LPD*%
G04 APERTURE LIST*
%ADD10O,1.600000X1.600000*%
%ADD11C,1.600000*%
%ADD12O,1.700000X1.700000*%
%ADD13R,1.700000X1.700000*%
%ADD14C,1.800000*%
%ADD15R,1.800000X1.800000*%
%ADD16C,0.250000*%
%ADD17C,0.500000*%
G04 APERTURE END LIST*
D10*
X186570000Y-57840000D03*
D11*
X178950000Y-57840000D03*
D10*
X186950000Y-61630000D03*
D11*
X179330000Y-61630000D03*
D12*
X210820000Y-55880000D03*
X210820000Y-58420000D03*
X210820000Y-60960000D03*
D13*
X210820000Y-63500000D03*
D12*
X176022000Y-63400000D03*
X176022000Y-60860000D03*
X176022000Y-58320000D03*
D13*
X176022000Y-55780000D03*
D14*
X204180000Y-49750000D03*
D15*
X204180000Y-52290000D03*
D14*
X193675000Y-49750000D03*
D15*
X193675000Y-52290000D03*
D14*
X183170000Y-49750000D03*
D15*
X183170000Y-52290000D03*
D14*
X204180000Y-67350000D03*
D15*
X204180000Y-69890000D03*
D14*
X193675000Y-67350000D03*
D15*
X193675000Y-69890000D03*
D14*
X183170000Y-67350000D03*
D15*
X183170000Y-69890000D03*
D16*
X183170000Y-67350000D02*
X186950000Y-63570000D01*
X186950000Y-63570000D02*
X186950000Y-61630000D01*
X183170000Y-49750000D02*
X186570000Y-53150000D01*
X186570000Y-53150000D02*
X186570000Y-57840000D01*
D17*
X204180000Y-69890000D02*
X207510000Y-66560000D01*
X207510000Y-66560000D02*
X207510000Y-64270000D01*
X207510000Y-64270000D02*
X210820000Y-60960000D01*
X202829700Y-52290000D02*
X201479400Y-53640300D01*
X201479400Y-53640300D02*
X192538100Y-53640300D01*
X192538100Y-53640300D02*
X186717100Y-59461300D01*
X186717100Y-59461300D02*
X185231300Y-59461300D01*
X185231300Y-59461300D02*
X181292600Y-63400000D01*
X181292600Y-63400000D02*
X176022000Y-63400000D01*
X204180000Y-52290000D02*
X202829700Y-52290000D01*
X210820000Y-55880000D02*
X209519700Y-55880000D01*
X204180000Y-52290000D02*
X205929700Y-52290000D01*
X205929700Y-52290000D02*
X209519700Y-55880000D01*
X176022000Y-55780000D02*
X177650500Y-57408500D01*
X177650500Y-57408500D02*
X177650500Y-59950500D01*
X177650500Y-59950500D02*
X179330000Y-61630000D01*
M02*
