%TF.GenerationSoftware,KiCad,Pcbnew,9.0.4*%
%TF.CreationDate,2026-02-08T18:12:17+10:00*%
%TF.ProjectId,OZ-HORNET-POWER-DIST,4f5a2d48-4f52-44e4-9554-2d504f574552,rev?*%
%TF.SameCoordinates,Original*%
%TF.FileFunction,Copper,L2,Bot*%
%TF.FilePolarity,Positive*%
%FSLAX46Y46*%
G04 Gerber Fmt 4.6, Leading zero omitted, Abs format (unit mm)*
G04 Created by KiCad (PCBNEW 9.0.4) date 2026-02-08 18:12:17*
%MOMM*%
%LPD*%
G01*
G04 APERTURE LIST*
G04 Aperture macros list*
%AMRoundRect*
0 Rectangle with rounded corners*
0 $1 Rounding radius*
0 $2 $3 $4 $5 $6 $7 $8 $9 X,Y pos of 4 corners*
0 Add a 4 corners polygon primitive as box body*
4,1,4,$2,$3,$4,$5,$6,$7,$8,$9,$2,$3,0*
0 Add four circle primitives for the rounded corners*
1,1,$1+$1,$2,$3*
1,1,$1+$1,$4,$5*
1,1,$1+$1,$6,$7*
1,1,$1+$1,$8,$9*
0 Add four rect primitives between the rounded corners*
20,1,$1+$1,$2,$3,$4,$5,0*
20,1,$1+$1,$4,$5,$6,$7,0*
20,1,$1+$1,$6,$7,$8,$9,0*
20,1,$1+$1,$8,$9,$2,$3,0*%
G04 Aperture macros list end*
%TA.AperFunction,ComponentPad*%
%ADD10RoundRect,0.250001X-1.099999X-1.399999X1.099999X-1.399999X1.099999X1.399999X-1.099999X1.399999X0*%
%TD*%
%TA.AperFunction,ComponentPad*%
%ADD11O,2.700000X3.300000*%
%TD*%
%TA.AperFunction,ComponentPad*%
%ADD12C,1.600000*%
%TD*%
%TA.AperFunction,ComponentPad*%
%ADD13R,3.500000X3.500000*%
%TD*%
%TA.AperFunction,ComponentPad*%
%ADD14RoundRect,0.750000X-0.750000X-1.000000X0.750000X-1.000000X0.750000X1.000000X-0.750000X1.000000X0*%
%TD*%
%TA.AperFunction,ComponentPad*%
%ADD15RoundRect,0.875000X-0.875000X-0.875000X0.875000X-0.875000X0.875000X0.875000X-0.875000X0.875000X0*%
%TD*%
%TA.AperFunction,ComponentPad*%
%ADD16RoundRect,0.750000X0.750000X1.000000X-0.750000X1.000000X-0.750000X-1.000000X0.750000X-1.000000X0*%
%TD*%
%TA.AperFunction,ComponentPad*%
%ADD17RoundRect,0.875000X0.875000X0.875000X-0.875000X0.875000X-0.875000X-0.875000X0.875000X-0.875000X0*%
%TD*%
%TA.AperFunction,ComponentPad*%
%ADD18RoundRect,0.250000X-0.550000X0.550000X-0.550000X-0.550000X0.550000X-0.550000X0.550000X0.550000X0*%
%TD*%
%TA.AperFunction,ComponentPad*%
%ADD19C,1.400000*%
%TD*%
%TA.AperFunction,ComponentPad*%
%ADD20R,1.800000X1.800000*%
%TD*%
%TA.AperFunction,ComponentPad*%
%ADD21C,1.800000*%
%TD*%
%TA.AperFunction,Conductor*%
%ADD22C,1.000000*%
%TD*%
G04 APERTURE END LIST*
D10*
%TO.P,J10,1,Pin_1*%
%TO.N,/5VDC*%
X88832000Y-50690000D03*
D11*
%TO.P,J10,2,Pin_3*%
%TO.N,/5VGND*%
X93032000Y-50690000D03*
%TO.P,J10,3,Pin_2*%
%TO.N,/12VDC*%
X88832000Y-54890000D03*
%TO.P,J10,4,Pin_4*%
%TO.N,/12VGND*%
X93032000Y-54890000D03*
%TD*%
D10*
%TO.P,J1,1,Pin_1*%
%TO.N,/5VDC*%
X88764000Y-65624000D03*
D11*
%TO.P,J1,2,Pin_3*%
%TO.N,/5VGND*%
X92964000Y-65624000D03*
%TO.P,J1,3,Pin_2*%
%TO.N,/12VDC*%
X88764000Y-69824000D03*
%TO.P,J1,4,Pin_4*%
%TO.N,/12VGND*%
X92964000Y-69824000D03*
%TD*%
D12*
%TO.P,C4,1*%
%TO.N,/12VDC*%
X95000000Y-102000000D03*
%TO.P,C4,2*%
%TO.N,/12VGND*%
X95000000Y-104500000D03*
%TD*%
D13*
%TO.P,J11,1,Pin_1*%
%TO.N,/5VDC*%
X71120000Y-55815000D03*
D14*
%TO.P,J11,2,Pin_2*%
%TO.N,/5VGND*%
X65120000Y-55815000D03*
D15*
%TO.P,J11,3*%
%TO.N,N/C*%
X68120000Y-60515000D03*
%TD*%
D13*
%TO.P,J3,1,Pin_1*%
%TO.N,/5VDC*%
X109776000Y-57597000D03*
D16*
%TO.P,J3,2,Pin_2*%
%TO.N,/5VGND*%
X115776000Y-57597000D03*
D17*
%TO.P,J3,3*%
%TO.N,N/C*%
X112776000Y-52897000D03*
%TD*%
D13*
%TO.P,J4,1,Pin_1*%
%TO.N,/5VDC*%
X109776000Y-44962000D03*
D16*
%TO.P,J4,2,Pin_2*%
%TO.N,/5VGND*%
X115776000Y-44962000D03*
D17*
%TO.P,J4,3*%
%TO.N,N/C*%
X112776000Y-40262000D03*
%TD*%
D18*
%TO.P,C1,1*%
%TO.N,/5VDC*%
X87000000Y-94150000D03*
D12*
%TO.P,C1,2*%
%TO.N,/5VGND*%
X87000000Y-96650000D03*
%TD*%
D13*
%TO.P,J2,1,Pin_1*%
%TO.N,/5VDC*%
X109776000Y-70232000D03*
D16*
%TO.P,J2,2,Pin_2*%
%TO.N,/5VGND*%
X115776000Y-70232000D03*
D17*
%TO.P,J2,3*%
%TO.N,N/C*%
X112776000Y-65532000D03*
%TD*%
D19*
%TO.P,R2,1*%
%TO.N,Net-(D2-A)*%
X92500000Y-114000000D03*
%TO.P,R2,2*%
%TO.N,/12VDC*%
X97580000Y-114000000D03*
%TD*%
D18*
%TO.P,C3,1*%
%TO.N,/12VDC*%
X87000000Y-102000000D03*
D12*
%TO.P,C3,2*%
%TO.N,/12VGND*%
X87000000Y-104500000D03*
%TD*%
D13*
%TO.P,J8,1,Pin_1*%
%TO.N,/12VDC*%
X71072000Y-107438000D03*
D14*
%TO.P,J8,2,Pin_2*%
%TO.N,/12VGND*%
X65072000Y-107438000D03*
D15*
%TO.P,J8,3*%
%TO.N,N/C*%
X68072000Y-112138000D03*
%TD*%
D13*
%TO.P,J13,1,Pin_1*%
%TO.N,/12VDC*%
X109728000Y-84393000D03*
D16*
%TO.P,J13,2,Pin_2*%
%TO.N,/12VGND*%
X115728000Y-84393000D03*
D17*
%TO.P,J13,3*%
%TO.N,N/C*%
X112728000Y-79693000D03*
%TD*%
D13*
%TO.P,J6,1,Pin_1*%
%TO.N,/12VDC*%
X71072000Y-82168000D03*
D14*
%TO.P,J6,2,Pin_2*%
%TO.N,/12VGND*%
X65072000Y-82168000D03*
D15*
%TO.P,J6,3*%
%TO.N,N/C*%
X68072000Y-86868000D03*
%TD*%
D19*
%TO.P,R1,1*%
%TO.N,Net-(D1-A)*%
X92500000Y-109500000D03*
%TO.P,R1,2*%
%TO.N,/5VDC*%
X97580000Y-109500000D03*
%TD*%
D13*
%TO.P,J9,1,Pin_1*%
%TO.N,/12VDC*%
X109728000Y-109663000D03*
D16*
%TO.P,J9,2,Pin_2*%
%TO.N,/12VGND*%
X115728000Y-109663000D03*
D17*
%TO.P,J9,3*%
%TO.N,N/C*%
X112728000Y-104963000D03*
%TD*%
D12*
%TO.P,C2,1*%
%TO.N,/5VDC*%
X95500000Y-94250000D03*
%TO.P,C2,2*%
%TO.N,/5VGND*%
X95500000Y-96750000D03*
%TD*%
D13*
%TO.P,J7,1,Pin_1*%
%TO.N,/12VDC*%
X71072000Y-94803000D03*
D14*
%TO.P,J7,2,Pin_2*%
%TO.N,/12VGND*%
X65072000Y-94803000D03*
D15*
%TO.P,J7,3*%
%TO.N,N/C*%
X68072000Y-99503000D03*
%TD*%
D13*
%TO.P,J12,1,Pin_1*%
%TO.N,/12VDC*%
X109728000Y-97028000D03*
D16*
%TO.P,J12,2,Pin_2*%
%TO.N,/12VGND*%
X115728000Y-97028000D03*
D17*
%TO.P,J12,3*%
%TO.N,N/C*%
X112728000Y-92328000D03*
%TD*%
D13*
%TO.P,J5,1,Pin_1*%
%TO.N,/5VDC*%
X71120000Y-43180000D03*
D14*
%TO.P,J5,2,Pin_2*%
%TO.N,/5VGND*%
X65120000Y-43180000D03*
D15*
%TO.P,J5,3*%
%TO.N,N/C*%
X68120000Y-47880000D03*
%TD*%
D20*
%TO.P,D1,1,K*%
%TO.N,/5VGND*%
X85460000Y-109500000D03*
D21*
%TO.P,D1,2,A*%
%TO.N,Net-(D1-A)*%
X88000000Y-109500000D03*
%TD*%
D20*
%TO.P,D2,1,K*%
%TO.N,/12VGND*%
X85500000Y-114000000D03*
D21*
%TO.P,D2,2,A*%
%TO.N,Net-(D2-A)*%
X88040000Y-114000000D03*
%TD*%
D13*
%TO.P,J14,1,Pin_1*%
%TO.N,/5VDC*%
X71120000Y-68450000D03*
D14*
%TO.P,J14,2,Pin_2*%
%TO.N,/5VGND*%
X65120000Y-68450000D03*
D15*
%TO.P,J14,3*%
%TO.N,N/C*%
X68120000Y-73150000D03*
%TD*%
D22*
%TO.N,/12VGND*%
X97019700Y-104500000D02*
X95000000Y-104500000D01*
X101225600Y-100294100D02*
X97019700Y-104500000D01*
X112461900Y-100294100D02*
X101225600Y-100294100D01*
X115728000Y-97028000D02*
X112461900Y-100294100D01*
X95000000Y-104500000D02*
X87000000Y-104500000D01*
X67823700Y-104686300D02*
X65072000Y-107438000D01*
X75657400Y-104686300D02*
X67823700Y-104686300D01*
X77399800Y-106428700D02*
X75657400Y-104686300D01*
X85071300Y-106428700D02*
X77399800Y-106428700D01*
X87000000Y-104500000D02*
X85071300Y-106428700D01*
%TO.N,/12VDC*%
X102639300Y-114000000D02*
X106976300Y-109663000D01*
X97580000Y-114000000D02*
X102639300Y-114000000D01*
X109728000Y-109663000D02*
X106976300Y-109663000D01*
X87000000Y-102000000D02*
X95000000Y-102000000D01*
X99972000Y-97028000D02*
X95000000Y-102000000D01*
X109728000Y-97028000D02*
X99972000Y-97028000D01*
X79803000Y-94803000D02*
X87000000Y-102000000D01*
X71072000Y-94803000D02*
X79803000Y-94803000D01*
%TO.N,Net-(D2-A)*%
X88040000Y-114000000D02*
X92500000Y-114000000D01*
%TO.N,Net-(D1-A)*%
X88000000Y-109500000D02*
X92500000Y-109500000D01*
%TD*%
%TA.AperFunction,Conductor*%
%TO.N,/5VGND*%
G36*
X119846539Y-37096185D02*
G01*
X119892294Y-37148989D01*
X119903500Y-37200500D01*
X119903500Y-52294784D01*
X119903498Y-52295566D01*
X119501878Y-115952282D01*
X119481770Y-116019196D01*
X119428679Y-116064617D01*
X119377880Y-116075500D01*
X78667296Y-116075500D01*
X78666766Y-116075499D01*
X61124647Y-116000532D01*
X61057692Y-115980561D01*
X61012164Y-115927562D01*
X61001183Y-115875356D01*
X61006019Y-115366014D01*
X61091388Y-106373777D01*
X63071500Y-106373777D01*
X63071500Y-108502208D01*
X63071501Y-108502223D01*
X63081904Y-108634413D01*
X63081905Y-108634420D01*
X63136902Y-108852678D01*
X63136903Y-108852681D01*
X63229991Y-109057622D01*
X63229997Y-109057632D01*
X63358174Y-109242645D01*
X63358178Y-109242650D01*
X63358181Y-109242654D01*
X63517346Y-109401819D01*
X63517350Y-109401822D01*
X63517354Y-109401825D01*
X63558506Y-109430335D01*
X63702374Y-109530007D01*
X63907317Y-109623096D01*
X63907321Y-109623097D01*
X64125579Y-109678094D01*
X64125581Y-109678094D01*
X64125588Y-109678096D01*
X64257783Y-109688500D01*
X65886216Y-109688499D01*
X66018412Y-109678096D01*
X66236683Y-109623096D01*
X66441626Y-109530007D01*
X66626654Y-109401819D01*
X66785819Y-109242654D01*
X66914007Y-109057626D01*
X67007096Y-108852683D01*
X67062096Y-108634412D01*
X67072500Y-108502217D01*
X67072499Y-106903782D01*
X67092184Y-106836744D01*
X67108818Y-106816102D01*
X68201802Y-105723119D01*
X68263125Y-105689634D01*
X68289483Y-105686800D01*
X68697500Y-105686800D01*
X68764539Y-105706485D01*
X68810294Y-105759289D01*
X68821500Y-105810800D01*
X68821500Y-109235870D01*
X68821501Y-109235876D01*
X68827908Y-109295483D01*
X68878202Y-109430328D01*
X68878206Y-109430335D01*
X68964452Y-109545544D01*
X68964455Y-109545547D01*
X69079664Y-109631793D01*
X69079673Y-109631798D01*
X69126937Y-109649426D01*
X69182871Y-109691296D01*
X69207289Y-109756760D01*
X69192438Y-109825033D01*
X69143033Y-109874439D01*
X69077028Y-109889433D01*
X69040657Y-109887501D01*
X69040628Y-109887500D01*
X69040622Y-109887500D01*
X67103378Y-109887500D01*
X67103370Y-109887500D01*
X67103347Y-109887501D01*
X67050756Y-109890295D01*
X67050755Y-109890295D01*
X66820878Y-109934754D01*
X66820876Y-109934754D01*
X66820874Y-109934755D01*
X66751764Y-109960836D01*
X66601810Y-110017425D01*
X66399868Y-110135929D01*
X66399861Y-110135934D01*
X66220858Y-110286856D01*
X66220856Y-110286858D01*
X66069934Y-110465861D01*
X66069929Y-110465868D01*
X65951425Y-110667810D01*
X65905918Y-110788399D01*
X65868755Y-110886874D01*
X65868754Y-110886876D01*
X65868754Y-110886878D01*
X65824295Y-111116755D01*
X65824295Y-111116756D01*
X65821501Y-111169347D01*
X65821500Y-111169386D01*
X65821500Y-113106613D01*
X65821501Y-113106652D01*
X65824295Y-113159243D01*
X65824295Y-113159244D01*
X65865211Y-113370800D01*
X65868755Y-113389126D01*
X65917326Y-113517832D01*
X65951425Y-113608189D01*
X66069929Y-113810131D01*
X66069934Y-113810138D01*
X66220856Y-113989141D01*
X66220858Y-113989143D01*
X66399861Y-114140065D01*
X66399868Y-114140070D01*
X66601810Y-114258574D01*
X66820874Y-114341245D01*
X67050759Y-114385705D01*
X67103378Y-114388500D01*
X67103386Y-114388500D01*
X69040614Y-114388500D01*
X69040622Y-114388500D01*
X69093241Y-114385705D01*
X69323126Y-114341245D01*
X69542190Y-114258574D01*
X69744132Y-114140070D01*
X69744138Y-114140065D01*
X69923141Y-113989143D01*
X69923143Y-113989141D01*
X70074065Y-113810138D01*
X70074065Y-113810137D01*
X70074070Y-113810132D01*
X70192574Y-113608190D01*
X70275245Y-113389126D01*
X70319705Y-113159241D01*
X70322500Y-113106622D01*
X70322500Y-113052135D01*
X84099500Y-113052135D01*
X84099500Y-114947870D01*
X84099501Y-114947876D01*
X84105908Y-115007483D01*
X84156202Y-115142328D01*
X84156206Y-115142335D01*
X84242452Y-115257544D01*
X84242455Y-115257547D01*
X84357664Y-115343793D01*
X84357671Y-115343797D01*
X84492517Y-115394091D01*
X84492516Y-115394091D01*
X84499444Y-115394835D01*
X84552127Y-115400500D01*
X86447872Y-115400499D01*
X86507483Y-115394091D01*
X86642331Y-115343796D01*
X86757546Y-115257546D01*
X86843796Y-115142331D01*
X86854905Y-115112547D01*
X86873601Y-115062420D01*
X86915471Y-115006486D01*
X86980936Y-114982068D01*
X87049209Y-114996919D01*
X87077464Y-115018071D01*
X87127636Y-115068243D01*
X87127641Y-115068247D01*
X87283192Y-115181260D01*
X87305978Y-115197815D01*
X87434375Y-115263237D01*
X87502393Y-115297895D01*
X87502396Y-115297896D01*
X87607221Y-115331955D01*
X87712049Y-115366015D01*
X87929778Y-115400500D01*
X87929779Y-115400500D01*
X88150221Y-115400500D01*
X88150222Y-115400500D01*
X88367951Y-115366015D01*
X88577606Y-115297895D01*
X88774022Y-115197815D01*
X88952365Y-115068242D01*
X88983788Y-115036819D01*
X89045111Y-115003334D01*
X89071469Y-115000500D01*
X91794367Y-115000500D01*
X91861406Y-115020185D01*
X91867254Y-115024183D01*
X91870799Y-115026759D01*
X92039163Y-115112545D01*
X92039165Y-115112545D01*
X92039168Y-115112547D01*
X92130818Y-115142326D01*
X92218881Y-115170940D01*
X92405514Y-115200500D01*
X92405519Y-115200500D01*
X92594486Y-115200500D01*
X92781118Y-115170940D01*
X92960832Y-115112547D01*
X93129199Y-115026760D01*
X93282073Y-114915690D01*
X93415690Y-114782073D01*
X93526760Y-114629199D01*
X93612547Y-114460832D01*
X93670940Y-114281118D01*
X93693280Y-114140070D01*
X93700500Y-114094486D01*
X93700500Y-113905513D01*
X96379500Y-113905513D01*
X96379500Y-114094486D01*
X96409059Y-114281118D01*
X96467454Y-114460836D01*
X96553240Y-114629199D01*
X96664310Y-114782073D01*
X96797927Y-114915690D01*
X96950801Y-115026760D01*
X97020788Y-115062420D01*
X97119163Y-115112545D01*
X97119165Y-115112545D01*
X97119168Y-115112547D01*
X97210818Y-115142326D01*
X97298881Y-115170940D01*
X97485514Y-115200500D01*
X97485519Y-115200500D01*
X97674486Y-115200500D01*
X97861118Y-115170940D01*
X98040832Y-115112547D01*
X98209199Y-115026760D01*
X98212746Y-115024183D01*
X98278552Y-115000702D01*
X98285633Y-115000500D01*
X102737842Y-115000500D01*
X102768866Y-114994328D01*
X102834488Y-114981275D01*
X102931136Y-114962051D01*
X102984465Y-114939961D01*
X103113214Y-114886632D01*
X103277082Y-114777139D01*
X103416439Y-114637782D01*
X103416440Y-114637779D01*
X103423506Y-114630714D01*
X103423508Y-114630710D01*
X107265822Y-110788397D01*
X107327143Y-110754914D01*
X107396835Y-110759898D01*
X107452768Y-110801770D01*
X107477185Y-110867234D01*
X107477501Y-110876080D01*
X107477501Y-111460876D01*
X107483908Y-111520483D01*
X107534202Y-111655328D01*
X107534206Y-111655335D01*
X107620452Y-111770544D01*
X107620455Y-111770547D01*
X107735664Y-111856793D01*
X107735671Y-111856797D01*
X107870517Y-111907091D01*
X107870516Y-111907091D01*
X107877444Y-111907835D01*
X107930127Y-111913500D01*
X111525872Y-111913499D01*
X111585483Y-111907091D01*
X111720331Y-111856796D01*
X111835546Y-111770546D01*
X111921796Y-111655331D01*
X111972091Y-111520483D01*
X111978500Y-111460873D01*
X111978499Y-108598777D01*
X113727500Y-108598777D01*
X113727500Y-110727208D01*
X113727501Y-110727223D01*
X113737904Y-110859413D01*
X113737905Y-110859420D01*
X113792902Y-111077678D01*
X113792903Y-111077681D01*
X113885991Y-111282622D01*
X113885997Y-111282632D01*
X114014174Y-111467645D01*
X114014178Y-111467650D01*
X114014181Y-111467654D01*
X114173346Y-111626819D01*
X114173350Y-111626822D01*
X114173354Y-111626825D01*
X114214506Y-111655335D01*
X114358374Y-111755007D01*
X114563317Y-111848096D01*
X114563321Y-111848097D01*
X114781579Y-111903094D01*
X114781581Y-111903094D01*
X114781588Y-111903096D01*
X114913783Y-111913500D01*
X116542216Y-111913499D01*
X116674412Y-111903096D01*
X116892683Y-111848096D01*
X117097626Y-111755007D01*
X117282654Y-111626819D01*
X117441819Y-111467654D01*
X117570007Y-111282626D01*
X117663096Y-111077683D01*
X117718096Y-110859412D01*
X117728500Y-110727217D01*
X117728499Y-108598784D01*
X117718096Y-108466588D01*
X117710884Y-108437968D01*
X117663097Y-108248321D01*
X117663096Y-108248318D01*
X117660595Y-108242812D01*
X117570007Y-108043374D01*
X117538297Y-107997603D01*
X117441825Y-107858354D01*
X117441822Y-107858350D01*
X117441819Y-107858346D01*
X117282654Y-107699181D01*
X117282650Y-107699178D01*
X117282645Y-107699174D01*
X117097632Y-107570997D01*
X117097630Y-107570995D01*
X117097626Y-107570993D01*
X117063411Y-107555452D01*
X116892681Y-107477903D01*
X116892678Y-107477902D01*
X116674420Y-107422905D01*
X116674413Y-107422904D01*
X116623638Y-107418908D01*
X116542217Y-107412500D01*
X116542215Y-107412500D01*
X114913791Y-107412500D01*
X114913776Y-107412501D01*
X114781586Y-107422904D01*
X114781579Y-107422905D01*
X114563321Y-107477902D01*
X114563318Y-107477903D01*
X114358377Y-107570991D01*
X114358367Y-107570997D01*
X114173354Y-107699174D01*
X114173342Y-107699184D01*
X114014184Y-107858342D01*
X114014174Y-107858354D01*
X113885997Y-108043367D01*
X113885991Y-108043377D01*
X113792903Y-108248318D01*
X113792902Y-108248321D01*
X113737905Y-108466579D01*
X113737904Y-108466586D01*
X113727500Y-108598777D01*
X111978499Y-108598777D01*
X111978499Y-107865128D01*
X111972091Y-107805517D01*
X111932431Y-107699184D01*
X111921797Y-107670671D01*
X111921793Y-107670664D01*
X111835547Y-107555455D01*
X111835544Y-107555452D01*
X111720335Y-107469206D01*
X111720328Y-107469202D01*
X111673061Y-107451573D01*
X111617127Y-107409702D01*
X111592710Y-107344238D01*
X111607562Y-107275965D01*
X111656967Y-107226559D01*
X111722972Y-107211566D01*
X111736053Y-107212261D01*
X111759349Y-107213499D01*
X111759369Y-107213499D01*
X111759378Y-107213500D01*
X111759386Y-107213500D01*
X113696614Y-107213500D01*
X113696622Y-107213500D01*
X113749241Y-107210705D01*
X113979126Y-107166245D01*
X114198190Y-107083574D01*
X114400132Y-106965070D01*
X114552335Y-106836744D01*
X114579141Y-106814143D01*
X114579143Y-106814141D01*
X114730065Y-106635138D01*
X114730065Y-106635137D01*
X114730070Y-106635132D01*
X114848574Y-106433190D01*
X114931245Y-106214126D01*
X114975705Y-105984241D01*
X114978500Y-105931622D01*
X114978500Y-103994378D01*
X114975705Y-103941759D01*
X114931245Y-103711874D01*
X114848574Y-103492810D01*
X114730070Y-103290868D01*
X114730065Y-103290861D01*
X114579143Y-103111858D01*
X114579141Y-103111856D01*
X114400138Y-102960934D01*
X114400131Y-102960929D01*
X114198189Y-102842425D01*
X114107832Y-102808326D01*
X113979126Y-102759755D01*
X113979121Y-102759754D01*
X113749243Y-102715295D01*
X113696652Y-102712501D01*
X113696629Y-102712500D01*
X113696622Y-102712500D01*
X111759378Y-102712500D01*
X111759370Y-102712500D01*
X111759347Y-102712501D01*
X111706756Y-102715295D01*
X111706755Y-102715295D01*
X111476878Y-102759754D01*
X111476876Y-102759754D01*
X111476874Y-102759755D01*
X111402933Y-102787659D01*
X111257810Y-102842425D01*
X111055868Y-102960929D01*
X111055861Y-102960934D01*
X110876858Y-103111856D01*
X110876856Y-103111858D01*
X110725934Y-103290861D01*
X110725929Y-103290868D01*
X110607425Y-103492810D01*
X110552659Y-103637933D01*
X110524755Y-103711874D01*
X110524754Y-103711876D01*
X110524754Y-103711878D01*
X110480295Y-103941755D01*
X110480295Y-103941756D01*
X110477501Y-103994347D01*
X110477500Y-103994386D01*
X110477500Y-105931613D01*
X110477501Y-105931652D01*
X110480295Y-105984243D01*
X110480295Y-105984244D01*
X110487853Y-106023321D01*
X110524755Y-106214126D01*
X110535119Y-106241588D01*
X110607425Y-106433189D01*
X110725929Y-106635131D01*
X110725934Y-106635138D01*
X110876856Y-106814141D01*
X110876858Y-106814143D01*
X111055861Y-106965065D01*
X111055868Y-106965070D01*
X111257810Y-107083574D01*
X111476874Y-107166245D01*
X111479517Y-107166756D01*
X111480537Y-107167282D01*
X111481950Y-107167683D01*
X111481868Y-107167970D01*
X111541598Y-107198814D01*
X111576493Y-107259346D01*
X111573122Y-107329134D01*
X111532556Y-107386021D01*
X111467674Y-107411946D01*
X111455969Y-107412500D01*
X107930129Y-107412500D01*
X107930123Y-107412501D01*
X107870516Y-107418908D01*
X107735671Y-107469202D01*
X107735664Y-107469206D01*
X107620455Y-107555452D01*
X107620452Y-107555455D01*
X107534206Y-107670664D01*
X107534202Y-107670671D01*
X107483908Y-107805517D01*
X107478229Y-107858342D01*
X107477501Y-107865123D01*
X107477500Y-107865135D01*
X107477500Y-108538500D01*
X107457815Y-108605539D01*
X107405011Y-108651294D01*
X107353500Y-108662500D01*
X106877755Y-108662500D01*
X106785143Y-108680922D01*
X106785140Y-108680922D01*
X106781112Y-108681724D01*
X106684464Y-108700949D01*
X106643476Y-108717927D01*
X106636021Y-108721014D01*
X106636017Y-108721016D01*
X106502392Y-108776364D01*
X106502379Y-108776371D01*
X106338519Y-108885859D01*
X106268840Y-108955538D01*
X106199161Y-109025218D01*
X106199158Y-109025221D01*
X102261199Y-112963181D01*
X102199876Y-112996666D01*
X102173518Y-112999500D01*
X98285633Y-112999500D01*
X98218594Y-112979815D01*
X98212746Y-112975817D01*
X98209200Y-112973240D01*
X98040836Y-112887454D01*
X97861118Y-112829059D01*
X97674486Y-112799500D01*
X97674481Y-112799500D01*
X97485519Y-112799500D01*
X97485514Y-112799500D01*
X97298881Y-112829059D01*
X97119163Y-112887454D01*
X96950800Y-112973240D01*
X96914935Y-112999298D01*
X96797927Y-113084310D01*
X96797925Y-113084312D01*
X96797924Y-113084312D01*
X96664312Y-113217924D01*
X96664312Y-113217925D01*
X96664310Y-113217927D01*
X96616610Y-113283579D01*
X96553240Y-113370800D01*
X96467454Y-113539163D01*
X96409059Y-113718881D01*
X96379500Y-113905513D01*
X93700500Y-113905513D01*
X93670940Y-113718881D01*
X93612545Y-113539163D01*
X93526759Y-113370800D01*
X93415690Y-113217927D01*
X93282073Y-113084310D01*
X93129199Y-112973240D01*
X93109457Y-112963181D01*
X92960836Y-112887454D01*
X92781118Y-112829059D01*
X92594486Y-112799500D01*
X92594481Y-112799500D01*
X92405519Y-112799500D01*
X92405514Y-112799500D01*
X92218881Y-112829059D01*
X92039163Y-112887454D01*
X91870799Y-112973240D01*
X91867254Y-112975817D01*
X91801448Y-112999298D01*
X91794367Y-112999500D01*
X89071469Y-112999500D01*
X89004430Y-112979815D01*
X88983788Y-112963181D01*
X88952363Y-112931756D01*
X88952358Y-112931752D01*
X88774025Y-112802187D01*
X88774024Y-112802186D01*
X88774022Y-112802185D01*
X88656791Y-112742452D01*
X88577606Y-112702104D01*
X88577603Y-112702103D01*
X88367952Y-112633985D01*
X88259086Y-112616742D01*
X88150222Y-112599500D01*
X87929778Y-112599500D01*
X87857201Y-112610995D01*
X87712047Y-112633985D01*
X87502396Y-112702103D01*
X87502393Y-112702104D01*
X87305974Y-112802187D01*
X87127641Y-112931752D01*
X87127636Y-112931756D01*
X87077463Y-112981929D01*
X87016140Y-113015413D01*
X86946448Y-113010428D01*
X86890515Y-112968557D01*
X86873601Y-112937580D01*
X86843797Y-112857671D01*
X86843793Y-112857664D01*
X86757547Y-112742455D01*
X86757544Y-112742452D01*
X86642335Y-112656206D01*
X86642328Y-112656202D01*
X86507482Y-112605908D01*
X86507483Y-112605908D01*
X86447883Y-112599501D01*
X86447881Y-112599500D01*
X86447873Y-112599500D01*
X86447864Y-112599500D01*
X84552129Y-112599500D01*
X84552123Y-112599501D01*
X84492516Y-112605908D01*
X84357671Y-112656202D01*
X84357664Y-112656206D01*
X84242455Y-112742452D01*
X84242452Y-112742455D01*
X84156206Y-112857664D01*
X84156202Y-112857671D01*
X84105908Y-112992517D01*
X84099501Y-113052116D01*
X84099500Y-113052135D01*
X70322500Y-113052135D01*
X70322500Y-111169378D01*
X70319705Y-111116759D01*
X70275245Y-110886874D01*
X70192574Y-110667810D01*
X70074070Y-110465868D01*
X70074065Y-110465861D01*
X69923143Y-110286858D01*
X69923141Y-110286856D01*
X69744138Y-110135934D01*
X69744131Y-110135929D01*
X69542189Y-110017425D01*
X69444513Y-109980564D01*
X69323126Y-109934755D01*
X69323121Y-109934754D01*
X69323116Y-109934752D01*
X69320470Y-109934240D01*
X69319451Y-109933713D01*
X69318050Y-109933317D01*
X69318130Y-109933031D01*
X69258392Y-109902177D01*
X69223503Y-109841641D01*
X69226881Y-109771853D01*
X69267452Y-109714970D01*
X69332337Y-109689052D01*
X69344009Y-109688499D01*
X72869872Y-109688499D01*
X72929483Y-109682091D01*
X73064331Y-109631796D01*
X73179546Y-109545546D01*
X73265796Y-109430331D01*
X73316091Y-109295483D01*
X73322500Y-109235873D01*
X73322500Y-108552155D01*
X84060000Y-108552155D01*
X84060000Y-109250000D01*
X85084722Y-109250000D01*
X85040667Y-109326306D01*
X85010000Y-109440756D01*
X85010000Y-109559244D01*
X85040667Y-109673694D01*
X85084722Y-109750000D01*
X84060000Y-109750000D01*
X84060000Y-110447844D01*
X84066401Y-110507372D01*
X84066403Y-110507379D01*
X84116645Y-110642086D01*
X84116649Y-110642093D01*
X84202809Y-110757187D01*
X84202812Y-110757190D01*
X84317906Y-110843350D01*
X84317913Y-110843354D01*
X84452620Y-110893596D01*
X84452627Y-110893598D01*
X84512155Y-110899999D01*
X84512172Y-110900000D01*
X85210000Y-110900000D01*
X85210000Y-109875277D01*
X85286306Y-109919333D01*
X85400756Y-109950000D01*
X85519244Y-109950000D01*
X85633694Y-109919333D01*
X85710000Y-109875277D01*
X85710000Y-110900000D01*
X86407828Y-110900000D01*
X86407844Y-110899999D01*
X86467372Y-110893598D01*
X86467379Y-110893596D01*
X86602086Y-110843354D01*
X86602093Y-110843350D01*
X86717187Y-110757190D01*
X86717190Y-110757187D01*
X86803350Y-110642093D01*
X86803354Y-110642086D01*
X86833213Y-110562031D01*
X86875084Y-110506097D01*
X86940548Y-110481680D01*
X87008821Y-110496531D01*
X87037076Y-110517683D01*
X87087636Y-110568243D01*
X87087641Y-110568247D01*
X87243192Y-110681260D01*
X87265978Y-110697815D01*
X87394375Y-110763237D01*
X87462393Y-110797895D01*
X87462396Y-110797896D01*
X87567221Y-110831955D01*
X87672049Y-110866015D01*
X87889778Y-110900500D01*
X87889779Y-110900500D01*
X88110221Y-110900500D01*
X88110222Y-110900500D01*
X88327951Y-110866015D01*
X88537606Y-110797895D01*
X88734022Y-110697815D01*
X88912365Y-110568242D01*
X88943788Y-110536819D01*
X89005111Y-110503334D01*
X89031469Y-110500500D01*
X91794367Y-110500500D01*
X91861406Y-110520185D01*
X91867254Y-110524183D01*
X91870799Y-110526759D01*
X92039163Y-110612545D01*
X92039165Y-110612545D01*
X92039168Y-110612547D01*
X92130079Y-110642086D01*
X92218881Y-110670940D01*
X92405514Y-110700500D01*
X92405519Y-110700500D01*
X92594486Y-110700500D01*
X92781118Y-110670940D01*
X92804016Y-110663500D01*
X92960832Y-110612547D01*
X93129199Y-110526760D01*
X93282073Y-110415690D01*
X93415690Y-110282073D01*
X93526760Y-110129199D01*
X93612547Y-109960832D01*
X93670940Y-109781118D01*
X93681417Y-109714970D01*
X93700500Y-109594486D01*
X93700500Y-109405513D01*
X96379500Y-109405513D01*
X96379500Y-109594486D01*
X96409059Y-109781118D01*
X96467454Y-109960836D01*
X96506571Y-110037606D01*
X96553240Y-110129199D01*
X96664310Y-110282073D01*
X96797927Y-110415690D01*
X96950801Y-110526760D01*
X97030347Y-110567290D01*
X97119163Y-110612545D01*
X97119165Y-110612545D01*
X97119168Y-110612547D01*
X97210079Y-110642086D01*
X97298881Y-110670940D01*
X97485514Y-110700500D01*
X97485519Y-110700500D01*
X97674486Y-110700500D01*
X97861118Y-110670940D01*
X97884016Y-110663500D01*
X98040832Y-110612547D01*
X98209199Y-110526760D01*
X98362073Y-110415690D01*
X98495690Y-110282073D01*
X98606760Y-110129199D01*
X98692547Y-109960832D01*
X98750940Y-109781118D01*
X98761417Y-109714970D01*
X98780500Y-109594486D01*
X98780500Y-109405513D01*
X98750940Y-109218881D01*
X98698543Y-109057622D01*
X98692547Y-109039168D01*
X98692545Y-109039165D01*
X98692545Y-109039163D01*
X98606759Y-108870800D01*
X98593595Y-108852681D01*
X98495690Y-108717927D01*
X98362073Y-108584310D01*
X98209199Y-108473240D01*
X98139974Y-108437968D01*
X98040836Y-108387454D01*
X97861118Y-108329059D01*
X97674486Y-108299500D01*
X97674481Y-108299500D01*
X97485519Y-108299500D01*
X97485514Y-108299500D01*
X97298881Y-108329059D01*
X97119163Y-108387454D01*
X96950800Y-108473240D01*
X96899082Y-108510816D01*
X96797927Y-108584310D01*
X96797925Y-108584312D01*
X96797924Y-108584312D01*
X96664312Y-108717924D01*
X96664312Y-108717925D01*
X96664310Y-108717927D01*
X96662066Y-108721016D01*
X96553240Y-108870800D01*
X96467454Y-109039163D01*
X96409059Y-109218881D01*
X96379500Y-109405513D01*
X93700500Y-109405513D01*
X93670940Y-109218881D01*
X93618543Y-109057622D01*
X93612547Y-109039168D01*
X93612545Y-109039165D01*
X93612545Y-109039163D01*
X93526759Y-108870800D01*
X93513595Y-108852681D01*
X93415690Y-108717927D01*
X93282073Y-108584310D01*
X93129199Y-108473240D01*
X93059974Y-108437968D01*
X92960836Y-108387454D01*
X92781118Y-108329059D01*
X92594486Y-108299500D01*
X92594481Y-108299500D01*
X92405519Y-108299500D01*
X92405514Y-108299500D01*
X92218881Y-108329059D01*
X92039163Y-108387454D01*
X91870799Y-108473240D01*
X91867254Y-108475817D01*
X91801448Y-108499298D01*
X91794367Y-108499500D01*
X89031469Y-108499500D01*
X88964430Y-108479815D01*
X88943788Y-108463181D01*
X88912363Y-108431756D01*
X88912358Y-108431752D01*
X88734025Y-108302187D01*
X88734024Y-108302186D01*
X88734022Y-108302185D01*
X88671096Y-108270122D01*
X88537606Y-108202104D01*
X88537603Y-108202103D01*
X88327952Y-108133985D01*
X88219086Y-108116742D01*
X88110222Y-108099500D01*
X87889778Y-108099500D01*
X87817201Y-108110995D01*
X87672047Y-108133985D01*
X87462396Y-108202103D01*
X87462393Y-108202104D01*
X87265974Y-108302187D01*
X87087641Y-108431752D01*
X87087636Y-108431756D01*
X87037075Y-108482317D01*
X86975752Y-108515801D01*
X86906060Y-108510816D01*
X86850127Y-108468945D01*
X86833213Y-108437968D01*
X86803354Y-108357913D01*
X86803350Y-108357906D01*
X86717190Y-108242812D01*
X86717187Y-108242809D01*
X86602093Y-108156649D01*
X86602086Y-108156645D01*
X86467379Y-108106403D01*
X86467372Y-108106401D01*
X86407844Y-108100000D01*
X85710000Y-108100000D01*
X85710000Y-109124722D01*
X85633694Y-109080667D01*
X85519244Y-109050000D01*
X85400756Y-109050000D01*
X85286306Y-109080667D01*
X85210000Y-109124722D01*
X85210000Y-108100000D01*
X84512155Y-108100000D01*
X84452627Y-108106401D01*
X84452620Y-108106403D01*
X84317913Y-108156645D01*
X84317906Y-108156649D01*
X84202812Y-108242809D01*
X84202809Y-108242812D01*
X84116649Y-108357906D01*
X84116645Y-108357913D01*
X84066403Y-108492620D01*
X84066401Y-108492627D01*
X84060000Y-108552155D01*
X73322500Y-108552155D01*
X73322499Y-107451573D01*
X73322499Y-105810800D01*
X73342184Y-105743761D01*
X73394987Y-105698006D01*
X73446499Y-105686800D01*
X75191618Y-105686800D01*
X75258657Y-105706485D01*
X75279299Y-105723119D01*
X76762019Y-107205840D01*
X76762018Y-107205840D01*
X76773480Y-107213498D01*
X76802846Y-107233119D01*
X76925886Y-107315332D01*
X76984137Y-107339460D01*
X76991809Y-107342638D01*
X76991811Y-107342639D01*
X77029178Y-107358117D01*
X77107965Y-107390752D01*
X77249523Y-107418909D01*
X77284013Y-107425769D01*
X77301258Y-107429200D01*
X77301259Y-107429200D01*
X85169842Y-107429200D01*
X85221580Y-107418908D01*
X85266488Y-107409975D01*
X85363136Y-107390751D01*
X85416465Y-107368661D01*
X85545214Y-107315332D01*
X85709082Y-107205839D01*
X85848439Y-107066482D01*
X85848439Y-107066480D01*
X85858647Y-107056273D01*
X85858649Y-107056270D01*
X87088203Y-105826715D01*
X87149524Y-105793232D01*
X87156473Y-105791927D01*
X87304534Y-105768477D01*
X87499219Y-105705220D01*
X87681610Y-105612287D01*
X87802877Y-105524181D01*
X87868683Y-105500702D01*
X87875762Y-105500500D01*
X94124238Y-105500500D01*
X94191277Y-105520185D01*
X94197119Y-105524179D01*
X94318390Y-105612287D01*
X94434607Y-105671503D01*
X94500776Y-105705218D01*
X94500778Y-105705218D01*
X94500781Y-105705220D01*
X94605137Y-105739127D01*
X94695465Y-105768477D01*
X94796557Y-105784488D01*
X94897648Y-105800500D01*
X94897649Y-105800500D01*
X95102351Y-105800500D01*
X95102352Y-105800500D01*
X95304534Y-105768477D01*
X95499219Y-105705220D01*
X95681610Y-105612287D01*
X95802877Y-105524181D01*
X95868683Y-105500702D01*
X95875762Y-105500500D01*
X97118243Y-105500500D01*
X97174569Y-105489295D01*
X97288420Y-105466649D01*
X97311536Y-105462051D01*
X97370807Y-105437500D01*
X97493614Y-105386632D01*
X97657482Y-105277139D01*
X97796839Y-105137782D01*
X97796840Y-105137780D01*
X97803906Y-105130714D01*
X97803909Y-105130710D01*
X99537819Y-103396800D01*
X99599142Y-103363315D01*
X99668834Y-103368299D01*
X99724767Y-103410171D01*
X99749184Y-103475635D01*
X99749500Y-103484481D01*
X99749500Y-103779513D01*
X99770861Y-103941756D01*
X99788007Y-104071993D01*
X99821092Y-104195468D01*
X99864361Y-104356951D01*
X99864364Y-104356961D01*
X99977254Y-104629500D01*
X99977258Y-104629510D01*
X100124761Y-104884993D01*
X100304352Y-105119040D01*
X100304358Y-105119047D01*
X100512952Y-105327641D01*
X100512959Y-105327647D01*
X100747006Y-105507238D01*
X101002489Y-105654741D01*
X101002490Y-105654741D01*
X101002493Y-105654743D01*
X101275048Y-105767639D01*
X101560007Y-105843993D01*
X101852494Y-105882500D01*
X101852501Y-105882500D01*
X102147499Y-105882500D01*
X102147506Y-105882500D01*
X102439993Y-105843993D01*
X102724952Y-105767639D01*
X102997507Y-105654743D01*
X103252994Y-105507238D01*
X103487042Y-105327646D01*
X103695646Y-105119042D01*
X103875238Y-104884994D01*
X104022743Y-104629507D01*
X104135639Y-104356952D01*
X104211993Y-104071993D01*
X104250500Y-103779506D01*
X104250500Y-103484494D01*
X104211993Y-103192007D01*
X104135639Y-102907048D01*
X104022743Y-102634493D01*
X104002839Y-102600019D01*
X103875238Y-102379006D01*
X103695647Y-102144959D01*
X103695641Y-102144952D01*
X103487047Y-101936358D01*
X103487040Y-101936352D01*
X103252993Y-101756761D01*
X102997510Y-101609258D01*
X102997500Y-101609253D01*
X102813796Y-101533161D01*
X102759393Y-101489320D01*
X102737328Y-101423026D01*
X102754607Y-101355326D01*
X102805745Y-101307716D01*
X102861249Y-101294600D01*
X112560442Y-101294600D01*
X112591466Y-101288428D01*
X112657088Y-101275375D01*
X112753736Y-101256151D01*
X112807065Y-101234061D01*
X112935814Y-101180732D01*
X113099682Y-101071239D01*
X113239039Y-100931882D01*
X113239040Y-100931879D01*
X113246106Y-100924814D01*
X113246109Y-100924810D01*
X114856102Y-99314816D01*
X114917423Y-99281333D01*
X114943771Y-99278499D01*
X116542216Y-99278499D01*
X116674412Y-99268096D01*
X116892683Y-99213096D01*
X117097626Y-99120007D01*
X117282654Y-98991819D01*
X117441819Y-98832654D01*
X117570007Y-98647626D01*
X117663096Y-98442683D01*
X117718096Y-98224412D01*
X117728500Y-98092217D01*
X117728499Y-95963784D01*
X117718096Y-95831588D01*
X117711018Y-95803500D01*
X117663097Y-95613321D01*
X117663096Y-95613318D01*
X117661936Y-95610765D01*
X117570007Y-95408374D01*
X117489875Y-95292710D01*
X117441825Y-95223354D01*
X117441822Y-95223350D01*
X117441819Y-95223346D01*
X117282654Y-95064181D01*
X117282650Y-95064178D01*
X117282645Y-95064174D01*
X117097632Y-94935997D01*
X117097630Y-94935995D01*
X117097626Y-94935993D01*
X117087976Y-94931610D01*
X116892681Y-94842903D01*
X116892678Y-94842902D01*
X116674420Y-94787905D01*
X116674413Y-94787904D01*
X116623638Y-94783908D01*
X116542217Y-94777500D01*
X116542215Y-94777500D01*
X114913791Y-94777500D01*
X114913776Y-94777501D01*
X114781586Y-94787904D01*
X114781579Y-94787905D01*
X114563321Y-94842902D01*
X114563318Y-94842903D01*
X114358377Y-94935991D01*
X114358367Y-94935997D01*
X114173354Y-95064174D01*
X114173342Y-95064184D01*
X114014184Y-95223342D01*
X114014174Y-95223354D01*
X113885997Y-95408367D01*
X113885991Y-95408377D01*
X113792903Y-95613318D01*
X113792902Y-95613321D01*
X113737905Y-95831579D01*
X113737904Y-95831586D01*
X113727500Y-95963777D01*
X113727500Y-97562217D01*
X113707815Y-97629256D01*
X113691181Y-97649898D01*
X112083799Y-99257281D01*
X112056871Y-99271984D01*
X112031053Y-99288577D01*
X112024852Y-99289468D01*
X112022476Y-99290766D01*
X111996118Y-99293600D01*
X111964949Y-99293600D01*
X111897910Y-99273915D01*
X111852155Y-99221111D01*
X111842211Y-99151953D01*
X111865683Y-99095289D01*
X111921793Y-99020335D01*
X111921792Y-99020335D01*
X111921796Y-99020331D01*
X111972091Y-98885483D01*
X111978500Y-98825873D01*
X111978499Y-95230128D01*
X111972091Y-95170517D01*
X111971397Y-95168657D01*
X111921797Y-95035671D01*
X111921793Y-95035664D01*
X111835547Y-94920455D01*
X111835544Y-94920452D01*
X111720335Y-94834206D01*
X111720328Y-94834202D01*
X111673061Y-94816573D01*
X111617127Y-94774702D01*
X111592710Y-94709238D01*
X111607562Y-94640965D01*
X111656967Y-94591559D01*
X111722972Y-94576566D01*
X111736053Y-94577261D01*
X111759349Y-94578499D01*
X111759369Y-94578499D01*
X111759378Y-94578500D01*
X111759386Y-94578500D01*
X113696614Y-94578500D01*
X113696622Y-94578500D01*
X113749241Y-94575705D01*
X113979126Y-94531245D01*
X114198190Y-94448574D01*
X114400132Y-94330070D01*
X114579142Y-94179142D01*
X114605696Y-94147648D01*
X114730065Y-94000138D01*
X114730065Y-94000137D01*
X114730070Y-94000132D01*
X114848574Y-93798190D01*
X114931245Y-93579126D01*
X114975705Y-93349241D01*
X114978500Y-93296622D01*
X114978500Y-91359378D01*
X114975705Y-91306759D01*
X114931245Y-91076874D01*
X114848574Y-90857810D01*
X114730070Y-90655868D01*
X114730065Y-90655861D01*
X114579143Y-90476858D01*
X114579141Y-90476856D01*
X114400138Y-90325934D01*
X114400131Y-90325929D01*
X114198189Y-90207425D01*
X114107832Y-90173326D01*
X113979126Y-90124755D01*
X113979121Y-90124754D01*
X113749243Y-90080295D01*
X113696652Y-90077501D01*
X113696629Y-90077500D01*
X113696622Y-90077500D01*
X111759378Y-90077500D01*
X111759370Y-90077500D01*
X111759347Y-90077501D01*
X111706756Y-90080295D01*
X111706755Y-90080295D01*
X111476878Y-90124754D01*
X111476876Y-90124754D01*
X111476874Y-90124755D01*
X111402933Y-90152659D01*
X111257810Y-90207425D01*
X111055868Y-90325929D01*
X111055861Y-90325934D01*
X110876858Y-90476856D01*
X110876856Y-90476858D01*
X110725934Y-90655861D01*
X110725929Y-90655868D01*
X110607425Y-90857810D01*
X110552659Y-91002933D01*
X110524755Y-91076874D01*
X110524754Y-91076876D01*
X110524754Y-91076878D01*
X110480295Y-91306755D01*
X110480295Y-91306756D01*
X110477501Y-91359347D01*
X110477500Y-91359386D01*
X110477500Y-93296613D01*
X110477501Y-93296652D01*
X110480295Y-93349243D01*
X110480295Y-93349244D01*
X110499240Y-93447200D01*
X110524755Y-93579126D01*
X110535119Y-93606588D01*
X110607425Y-93798189D01*
X110725929Y-94000131D01*
X110725934Y-94000138D01*
X110876856Y-94179141D01*
X110876858Y-94179143D01*
X111055861Y-94330065D01*
X111055868Y-94330070D01*
X111257810Y-94448574D01*
X111476874Y-94531245D01*
X111479517Y-94531756D01*
X111480537Y-94532282D01*
X111481950Y-94532683D01*
X111481868Y-94532970D01*
X111541598Y-94563814D01*
X111576493Y-94624346D01*
X111573122Y-94694134D01*
X111532556Y-94751021D01*
X111467674Y-94776946D01*
X111455969Y-94777500D01*
X107930129Y-94777500D01*
X107930123Y-94777501D01*
X107870516Y-94783908D01*
X107735671Y-94834202D01*
X107735664Y-94834206D01*
X107620455Y-94920452D01*
X107620452Y-94920455D01*
X107534206Y-95035664D01*
X107534202Y-95035671D01*
X107483908Y-95170517D01*
X107478229Y-95223342D01*
X107477501Y-95230123D01*
X107477500Y-95230135D01*
X107477500Y-95903500D01*
X107457815Y-95970539D01*
X107405011Y-96016294D01*
X107353500Y-96027500D01*
X99873455Y-96027500D01*
X99776812Y-96046724D01*
X99680167Y-96065947D01*
X99680161Y-96065949D01*
X99626834Y-96088037D01*
X99626834Y-96088038D01*
X99581315Y-96106892D01*
X99498089Y-96141366D01*
X99498079Y-96141371D01*
X99334219Y-96250859D01*
X99288633Y-96296446D01*
X99194861Y-96390218D01*
X99194858Y-96390221D01*
X94911797Y-100673281D01*
X94850474Y-100706766D01*
X94843515Y-100708073D01*
X94695468Y-100731522D01*
X94500778Y-100794781D01*
X94318386Y-100887715D01*
X94197123Y-100975818D01*
X94131317Y-100999298D01*
X94124238Y-100999500D01*
X88212231Y-100999500D01*
X88145192Y-100979815D01*
X88124550Y-100963182D01*
X88086174Y-100924806D01*
X88018656Y-100857288D01*
X87943995Y-100811237D01*
X87869336Y-100765187D01*
X87869331Y-100765185D01*
X87835942Y-100754121D01*
X87702797Y-100710001D01*
X87702795Y-100710000D01*
X87600016Y-100699500D01*
X87600009Y-100699500D01*
X87165782Y-100699500D01*
X87098743Y-100679815D01*
X87078101Y-100663181D01*
X80584479Y-94169559D01*
X80584459Y-94169537D01*
X80440785Y-94025863D01*
X80440781Y-94025860D01*
X80276920Y-93916371D01*
X80276911Y-93916366D01*
X80204315Y-93886296D01*
X80148165Y-93863038D01*
X80094836Y-93840949D01*
X80094832Y-93840948D01*
X80094828Y-93840946D01*
X79998188Y-93821724D01*
X79901544Y-93802500D01*
X79901541Y-93802500D01*
X73446499Y-93802500D01*
X73437813Y-93799949D01*
X73428852Y-93801238D01*
X73404811Y-93790259D01*
X73379460Y-93782815D01*
X73373532Y-93775974D01*
X73365296Y-93772213D01*
X73351006Y-93749978D01*
X73333705Y-93730011D01*
X73331417Y-93719496D01*
X73327522Y-93713435D01*
X73322499Y-93678500D01*
X73322499Y-93549983D01*
X85699500Y-93549983D01*
X85699500Y-94750001D01*
X85699501Y-94750018D01*
X85710000Y-94852796D01*
X85710001Y-94852799D01*
X85765185Y-95019331D01*
X85765187Y-95019336D01*
X85800069Y-95075888D01*
X85857288Y-95168656D01*
X85981344Y-95292712D01*
X86130666Y-95384814D01*
X86192440Y-95405284D01*
X86249884Y-95445055D01*
X86276707Y-95509571D01*
X86277053Y-95532719D01*
X86274077Y-95570524D01*
X86953554Y-96250000D01*
X86947339Y-96250000D01*
X86845606Y-96277259D01*
X86754394Y-96329920D01*
X86679920Y-96404394D01*
X86627259Y-96495606D01*
X86600000Y-96597339D01*
X86600000Y-96603553D01*
X85920524Y-95924077D01*
X85920523Y-95924077D01*
X85888143Y-95968644D01*
X85795244Y-96150968D01*
X85732009Y-96345582D01*
X85700000Y-96547682D01*
X85700000Y-96752317D01*
X85732009Y-96954417D01*
X85795244Y-97149031D01*
X85888141Y-97331350D01*
X85888147Y-97331359D01*
X85920523Y-97375921D01*
X85920524Y-97375922D01*
X86600000Y-96696446D01*
X86600000Y-96702661D01*
X86627259Y-96804394D01*
X86679920Y-96895606D01*
X86754394Y-96970080D01*
X86845606Y-97022741D01*
X86947339Y-97050000D01*
X86953553Y-97050000D01*
X86274076Y-97729474D01*
X86318650Y-97761859D01*
X86500968Y-97854755D01*
X86695582Y-97917990D01*
X86897683Y-97950000D01*
X87102317Y-97950000D01*
X87304417Y-97917990D01*
X87499031Y-97854755D01*
X87681349Y-97761859D01*
X87725921Y-97729474D01*
X87725922Y-97729474D01*
X87046447Y-97050000D01*
X87052661Y-97050000D01*
X87154394Y-97022741D01*
X87245606Y-96970080D01*
X87320080Y-96895606D01*
X87372741Y-96804394D01*
X87400000Y-96702661D01*
X87400000Y-96696448D01*
X88079474Y-97375922D01*
X88079474Y-97375921D01*
X88111859Y-97331349D01*
X88204755Y-97149031D01*
X88267990Y-96954417D01*
X88300000Y-96752317D01*
X88300000Y-96547682D01*
X88267990Y-96345582D01*
X88204755Y-96150968D01*
X88111859Y-95968650D01*
X88079474Y-95924077D01*
X88079474Y-95924076D01*
X87400000Y-96603551D01*
X87400000Y-96597339D01*
X87372741Y-96495606D01*
X87320080Y-96404394D01*
X87245606Y-96329920D01*
X87154394Y-96277259D01*
X87052661Y-96250000D01*
X87046446Y-96250000D01*
X87725921Y-95570525D01*
X87722946Y-95532719D01*
X87737310Y-95464341D01*
X87786361Y-95414584D01*
X87807555Y-95405285D01*
X87869334Y-95384814D01*
X88018656Y-95292712D01*
X88142712Y-95168656D01*
X88234814Y-95019334D01*
X88289999Y-94852797D01*
X88300500Y-94750009D01*
X88300499Y-94147648D01*
X94199500Y-94147648D01*
X94199500Y-94352351D01*
X94231522Y-94554534D01*
X94294781Y-94749223D01*
X94338081Y-94834202D01*
X94382029Y-94920455D01*
X94387715Y-94931613D01*
X94508028Y-95097213D01*
X94652786Y-95241971D01*
X94818385Y-95362284D01*
X94818387Y-95362285D01*
X94818390Y-95362287D01*
X94872378Y-95389795D01*
X94923174Y-95437769D01*
X94939969Y-95505590D01*
X94917432Y-95571725D01*
X94872378Y-95610765D01*
X94818644Y-95638143D01*
X94774077Y-95670523D01*
X94774077Y-95670524D01*
X95453554Y-96350000D01*
X95447339Y-96350000D01*
X95345606Y-96377259D01*
X95254394Y-96429920D01*
X95179920Y-96504394D01*
X95127259Y-96595606D01*
X95100000Y-96697339D01*
X95100000Y-96703553D01*
X94420524Y-96024077D01*
X94420523Y-96024077D01*
X94388143Y-96068644D01*
X94295244Y-96250968D01*
X94232009Y-96445582D01*
X94200000Y-96647682D01*
X94200000Y-96852317D01*
X94232009Y-97054417D01*
X94295244Y-97249031D01*
X94388141Y-97431350D01*
X94388147Y-97431359D01*
X94420523Y-97475921D01*
X94420524Y-97475922D01*
X95100000Y-96796446D01*
X95100000Y-96802661D01*
X95127259Y-96904394D01*
X95179920Y-96995606D01*
X95254394Y-97070080D01*
X95345606Y-97122741D01*
X95447339Y-97150000D01*
X95453553Y-97150000D01*
X94774076Y-97829474D01*
X94818650Y-97861859D01*
X95000968Y-97954755D01*
X95195582Y-98017990D01*
X95397683Y-98050000D01*
X95602317Y-98050000D01*
X95804417Y-98017990D01*
X95999031Y-97954755D01*
X96181349Y-97861859D01*
X96225921Y-97829474D01*
X95546447Y-97150000D01*
X95552661Y-97150000D01*
X95654394Y-97122741D01*
X95745606Y-97070080D01*
X95820080Y-96995606D01*
X95872741Y-96904394D01*
X95900000Y-96802661D01*
X95900000Y-96796447D01*
X96579474Y-97475921D01*
X96611859Y-97431349D01*
X96704755Y-97249031D01*
X96767990Y-97054417D01*
X96800000Y-96852317D01*
X96800000Y-96647682D01*
X96767990Y-96445582D01*
X96704755Y-96250968D01*
X96611859Y-96068650D01*
X96579474Y-96024077D01*
X96579474Y-96024076D01*
X95900000Y-96703551D01*
X95900000Y-96697339D01*
X95872741Y-96595606D01*
X95820080Y-96504394D01*
X95745606Y-96429920D01*
X95654394Y-96377259D01*
X95552661Y-96350000D01*
X95546446Y-96350000D01*
X96225922Y-95670524D01*
X96225921Y-95670523D01*
X96181359Y-95638147D01*
X96181350Y-95638141D01*
X96127621Y-95610765D01*
X96076825Y-95562791D01*
X96060030Y-95494970D01*
X96082567Y-95428835D01*
X96127621Y-95389795D01*
X96181610Y-95362287D01*
X96277373Y-95292712D01*
X96347213Y-95241971D01*
X96347215Y-95241968D01*
X96347219Y-95241966D01*
X96491966Y-95097219D01*
X96491968Y-95097215D01*
X96491971Y-95097213D01*
X96548554Y-95019331D01*
X96612287Y-94931610D01*
X96704814Y-94750016D01*
X96705218Y-94749223D01*
X96705218Y-94749222D01*
X96705220Y-94749219D01*
X96768477Y-94554534D01*
X96800500Y-94352352D01*
X96800500Y-94147648D01*
X96768477Y-93945466D01*
X96759023Y-93916371D01*
X96728271Y-93821724D01*
X96705220Y-93750781D01*
X96705218Y-93750778D01*
X96705218Y-93750776D01*
X96668391Y-93678500D01*
X96612287Y-93568390D01*
X96598920Y-93549992D01*
X96491971Y-93402786D01*
X96347213Y-93258028D01*
X96181613Y-93137715D01*
X96181612Y-93137714D01*
X96181610Y-93137713D01*
X96124653Y-93108691D01*
X95999223Y-93044781D01*
X95804534Y-92981522D01*
X95629995Y-92953878D01*
X95602352Y-92949500D01*
X95397648Y-92949500D01*
X95373329Y-92953351D01*
X95195465Y-92981522D01*
X95000776Y-93044781D01*
X94818386Y-93137715D01*
X94652786Y-93258028D01*
X94508028Y-93402786D01*
X94387715Y-93568386D01*
X94294781Y-93750776D01*
X94231522Y-93945465D01*
X94199500Y-94147648D01*
X88300499Y-94147648D01*
X88300499Y-93549992D01*
X88289999Y-93447203D01*
X88234814Y-93280666D01*
X88142712Y-93131344D01*
X88018656Y-93007288D01*
X87869334Y-92915186D01*
X87702797Y-92860001D01*
X87702795Y-92860000D01*
X87600010Y-92849500D01*
X86399998Y-92849500D01*
X86399981Y-92849501D01*
X86297203Y-92860000D01*
X86297200Y-92860001D01*
X86130668Y-92915185D01*
X86130663Y-92915187D01*
X85981342Y-93007289D01*
X85857289Y-93131342D01*
X85765187Y-93280663D01*
X85765185Y-93280668D01*
X85742462Y-93349241D01*
X85710001Y-93447203D01*
X85710001Y-93447204D01*
X85710000Y-93447204D01*
X85699500Y-93549983D01*
X73322499Y-93549983D01*
X73322499Y-93005129D01*
X73322498Y-93005123D01*
X73322497Y-93005116D01*
X73316091Y-92945517D01*
X73304778Y-92915186D01*
X73265797Y-92810671D01*
X73265793Y-92810664D01*
X73179547Y-92695455D01*
X73179544Y-92695452D01*
X73064335Y-92609206D01*
X73064328Y-92609202D01*
X72929482Y-92558908D01*
X72929483Y-92558908D01*
X72869883Y-92552501D01*
X72869881Y-92552500D01*
X72869873Y-92552500D01*
X72869864Y-92552500D01*
X69274129Y-92552500D01*
X69274123Y-92552501D01*
X69214516Y-92558908D01*
X69079671Y-92609202D01*
X69079664Y-92609206D01*
X68964455Y-92695452D01*
X68964452Y-92695455D01*
X68878206Y-92810664D01*
X68878202Y-92810671D01*
X68827908Y-92945517D01*
X68822229Y-92998342D01*
X68821501Y-93005123D01*
X68821500Y-93005135D01*
X68821500Y-96600870D01*
X68821501Y-96600876D01*
X68827908Y-96660483D01*
X68878202Y-96795328D01*
X68878206Y-96795335D01*
X68964452Y-96910544D01*
X68964455Y-96910547D01*
X69079664Y-96996793D01*
X69079673Y-96996798D01*
X69126937Y-97014426D01*
X69182871Y-97056296D01*
X69207289Y-97121760D01*
X69192438Y-97190033D01*
X69143033Y-97239439D01*
X69077028Y-97254433D01*
X69040657Y-97252501D01*
X69040628Y-97252500D01*
X69040622Y-97252500D01*
X67103378Y-97252500D01*
X67103370Y-97252500D01*
X67103347Y-97252501D01*
X67050756Y-97255295D01*
X67050755Y-97255295D01*
X66820878Y-97299754D01*
X66820876Y-97299754D01*
X66820874Y-97299755D01*
X66746933Y-97327659D01*
X66601810Y-97382425D01*
X66399868Y-97500929D01*
X66399861Y-97500934D01*
X66220858Y-97651856D01*
X66220856Y-97651858D01*
X66069934Y-97830861D01*
X66069929Y-97830868D01*
X65951425Y-98032810D01*
X65925696Y-98100989D01*
X65868755Y-98251874D01*
X65868754Y-98251876D01*
X65868754Y-98251878D01*
X65824295Y-98481755D01*
X65824295Y-98481756D01*
X65821501Y-98534347D01*
X65821500Y-98534386D01*
X65821500Y-100471613D01*
X65821501Y-100471652D01*
X65824295Y-100524243D01*
X65824295Y-100524244D01*
X65868754Y-100754121D01*
X65868755Y-100754126D01*
X65884098Y-100794781D01*
X65951425Y-100973189D01*
X66069929Y-101175131D01*
X66069934Y-101175138D01*
X66220856Y-101354141D01*
X66220858Y-101354143D01*
X66399861Y-101505065D01*
X66399868Y-101505070D01*
X66601810Y-101623574D01*
X66820874Y-101706245D01*
X67050759Y-101750705D01*
X67103378Y-101753500D01*
X67103386Y-101753500D01*
X69040614Y-101753500D01*
X69040622Y-101753500D01*
X69093241Y-101750705D01*
X69323126Y-101706245D01*
X69542190Y-101623574D01*
X69744132Y-101505070D01*
X69754461Y-101496361D01*
X69923141Y-101354143D01*
X69923143Y-101354141D01*
X70074065Y-101175138D01*
X70074065Y-101175137D01*
X70074070Y-101175132D01*
X70192574Y-100973190D01*
X70275245Y-100754126D01*
X70319705Y-100524241D01*
X70322500Y-100471622D01*
X70322500Y-98534378D01*
X70319705Y-98481759D01*
X70275245Y-98251874D01*
X70192574Y-98032810D01*
X70074070Y-97830868D01*
X70074065Y-97830861D01*
X69923143Y-97651858D01*
X69923141Y-97651856D01*
X69744138Y-97500934D01*
X69744131Y-97500929D01*
X69542189Y-97382425D01*
X69406847Y-97331350D01*
X69323126Y-97299755D01*
X69323121Y-97299754D01*
X69323116Y-97299752D01*
X69320470Y-97299240D01*
X69319451Y-97298713D01*
X69318050Y-97298317D01*
X69318130Y-97298031D01*
X69258392Y-97267177D01*
X69223503Y-97206641D01*
X69226881Y-97136853D01*
X69267452Y-97079970D01*
X69332337Y-97054052D01*
X69344009Y-97053499D01*
X72869872Y-97053499D01*
X72929483Y-97047091D01*
X73064331Y-96996796D01*
X73179546Y-96910546D01*
X73265796Y-96795331D01*
X73316091Y-96660483D01*
X73322500Y-96600873D01*
X73322500Y-95927500D01*
X73342185Y-95860461D01*
X73394989Y-95814706D01*
X73446500Y-95803500D01*
X79337218Y-95803500D01*
X79404257Y-95823185D01*
X79424899Y-95839819D01*
X85663181Y-102078101D01*
X85696666Y-102139424D01*
X85699500Y-102165782D01*
X85699500Y-102600001D01*
X85699501Y-102600019D01*
X85710000Y-102702796D01*
X85710001Y-102702799D01*
X85757856Y-102847213D01*
X85765186Y-102869334D01*
X85857288Y-103018656D01*
X85981344Y-103142712D01*
X86130666Y-103234814D01*
X86174759Y-103249425D01*
X86232203Y-103289196D01*
X86259027Y-103353711D01*
X86246713Y-103422487D01*
X86208642Y-103467447D01*
X86152784Y-103508031D01*
X86152782Y-103508032D01*
X86008028Y-103652786D01*
X85887715Y-103818386D01*
X85794781Y-104000778D01*
X85731522Y-104195468D01*
X85708073Y-104343515D01*
X85678143Y-104406649D01*
X85673281Y-104411797D01*
X84693199Y-105391881D01*
X84631876Y-105425366D01*
X84605518Y-105428200D01*
X81685851Y-105428200D01*
X81618812Y-105408515D01*
X81573057Y-105355711D01*
X81563113Y-105286553D01*
X81592138Y-105222997D01*
X81598170Y-105216519D01*
X81695641Y-105119047D01*
X81695646Y-105119042D01*
X81875238Y-104884994D01*
X82022743Y-104629507D01*
X82135639Y-104356952D01*
X82211993Y-104071993D01*
X82250500Y-103779506D01*
X82250500Y-103484494D01*
X82211993Y-103192007D01*
X82135639Y-102907048D01*
X82022743Y-102634493D01*
X82002839Y-102600019D01*
X81875238Y-102379006D01*
X81695647Y-102144959D01*
X81695641Y-102144952D01*
X81487047Y-101936358D01*
X81487040Y-101936352D01*
X81252993Y-101756761D01*
X80997510Y-101609258D01*
X80997500Y-101609254D01*
X80724961Y-101496364D01*
X80724954Y-101496362D01*
X80724952Y-101496361D01*
X80439993Y-101420007D01*
X80391113Y-101413571D01*
X80147513Y-101381500D01*
X80147506Y-101381500D01*
X79852494Y-101381500D01*
X79852486Y-101381500D01*
X79574085Y-101418153D01*
X79560007Y-101420007D01*
X79497999Y-101436622D01*
X79275048Y-101496361D01*
X79275038Y-101496364D01*
X79002499Y-101609254D01*
X79002489Y-101609258D01*
X78747006Y-101756761D01*
X78512959Y-101936352D01*
X78512952Y-101936358D01*
X78304358Y-102144952D01*
X78304352Y-102144959D01*
X78124761Y-102379006D01*
X77977258Y-102634489D01*
X77977254Y-102634499D01*
X77864364Y-102907038D01*
X77864361Y-102907048D01*
X77788007Y-103192007D01*
X77787293Y-103197428D01*
X77749500Y-103484486D01*
X77749500Y-103779513D01*
X77770861Y-103941756D01*
X77788007Y-104071993D01*
X77821092Y-104195468D01*
X77864361Y-104356951D01*
X77864364Y-104356961D01*
X77977254Y-104629500D01*
X77977258Y-104629510D01*
X78124761Y-104884993D01*
X78304352Y-105119040D01*
X78304358Y-105119047D01*
X78401830Y-105216519D01*
X78435315Y-105277842D01*
X78430331Y-105347534D01*
X78388459Y-105403467D01*
X78322995Y-105427884D01*
X78314149Y-105428200D01*
X77865583Y-105428200D01*
X77798544Y-105408515D01*
X77777902Y-105391881D01*
X76441609Y-104055589D01*
X76441606Y-104055585D01*
X76441606Y-104055586D01*
X76434539Y-104048519D01*
X76434539Y-104048518D01*
X76295182Y-103909161D01*
X76295181Y-103909160D01*
X76295180Y-103909159D01*
X76131316Y-103799669D01*
X76131307Y-103799664D01*
X75972255Y-103733784D01*
X75972254Y-103733783D01*
X75963204Y-103730035D01*
X75949236Y-103724249D01*
X75852588Y-103705024D01*
X75848343Y-103704179D01*
X75755944Y-103685800D01*
X75755941Y-103685800D01*
X67922240Y-103685800D01*
X67725159Y-103685800D01*
X67725156Y-103685800D01*
X67531871Y-103724246D01*
X67531867Y-103724248D01*
X67531865Y-103724248D01*
X67531864Y-103724249D01*
X67456445Y-103755488D01*
X67456443Y-103755489D01*
X67349785Y-103799668D01*
X67349785Y-103799669D01*
X67349784Y-103799669D01*
X67185922Y-103909157D01*
X67185914Y-103909163D01*
X65943896Y-105151181D01*
X65882573Y-105184666D01*
X65856215Y-105187500D01*
X64257791Y-105187500D01*
X64257776Y-105187501D01*
X64125586Y-105197904D01*
X64125579Y-105197905D01*
X63907321Y-105252902D01*
X63907318Y-105252903D01*
X63702377Y-105345991D01*
X63702367Y-105345997D01*
X63517354Y-105474174D01*
X63517342Y-105474184D01*
X63358184Y-105633342D01*
X63358174Y-105633354D01*
X63229997Y-105818367D01*
X63229991Y-105818377D01*
X63136903Y-106023318D01*
X63136902Y-106023321D01*
X63081905Y-106241579D01*
X63081904Y-106241586D01*
X63071500Y-106373777D01*
X61091388Y-106373777D01*
X61201740Y-94750016D01*
X61211341Y-93738777D01*
X63071500Y-93738777D01*
X63071500Y-95867208D01*
X63071501Y-95867223D01*
X63081904Y-95999413D01*
X63081905Y-95999420D01*
X63136902Y-96217678D01*
X63136903Y-96217681D01*
X63229991Y-96422622D01*
X63229997Y-96422632D01*
X63358174Y-96607645D01*
X63358178Y-96607650D01*
X63358181Y-96607654D01*
X63517346Y-96766819D01*
X63517350Y-96766822D01*
X63517354Y-96766825D01*
X63571582Y-96804394D01*
X63702374Y-96895007D01*
X63907317Y-96988096D01*
X63907321Y-96988097D01*
X64125579Y-97043094D01*
X64125581Y-97043094D01*
X64125588Y-97043096D01*
X64257783Y-97053500D01*
X65886216Y-97053499D01*
X66018412Y-97043096D01*
X66236683Y-96988096D01*
X66441626Y-96895007D01*
X66626654Y-96766819D01*
X66785819Y-96607654D01*
X66914007Y-96422626D01*
X67007096Y-96217683D01*
X67062096Y-95999412D01*
X67072500Y-95867217D01*
X67072499Y-93738784D01*
X67062096Y-93606588D01*
X67047836Y-93549998D01*
X67007097Y-93388321D01*
X67007096Y-93388318D01*
X66989347Y-93349243D01*
X66914007Y-93183374D01*
X66877959Y-93131342D01*
X66785825Y-92998354D01*
X66785822Y-92998350D01*
X66785819Y-92998346D01*
X66626654Y-92839181D01*
X66626650Y-92839178D01*
X66626645Y-92839174D01*
X66441632Y-92710997D01*
X66441630Y-92710995D01*
X66441626Y-92710993D01*
X66407411Y-92695452D01*
X66236681Y-92617903D01*
X66236678Y-92617902D01*
X66018420Y-92562905D01*
X66018413Y-92562904D01*
X65967638Y-92558908D01*
X65886217Y-92552500D01*
X65886215Y-92552500D01*
X64257791Y-92552500D01*
X64257776Y-92552501D01*
X64125586Y-92562904D01*
X64125579Y-92562905D01*
X63907321Y-92617902D01*
X63907318Y-92617903D01*
X63702377Y-92710991D01*
X63702367Y-92710997D01*
X63517354Y-92839174D01*
X63517342Y-92839184D01*
X63358184Y-92998342D01*
X63358174Y-92998354D01*
X63229997Y-93183367D01*
X63229991Y-93183377D01*
X63136903Y-93388318D01*
X63136902Y-93388321D01*
X63081905Y-93606579D01*
X63081904Y-93606586D01*
X63071500Y-93738777D01*
X61211341Y-93738777D01*
X61211375Y-93735171D01*
X61255653Y-89071245D01*
X61285765Y-85899386D01*
X65821500Y-85899386D01*
X65821500Y-87836613D01*
X65821501Y-87836652D01*
X65824295Y-87889243D01*
X65824295Y-87889244D01*
X65868754Y-88119121D01*
X65868755Y-88119126D01*
X65917326Y-88247832D01*
X65951425Y-88338189D01*
X66069929Y-88540131D01*
X66069934Y-88540138D01*
X66220856Y-88719141D01*
X66220858Y-88719143D01*
X66399861Y-88870065D01*
X66399868Y-88870070D01*
X66601810Y-88988574D01*
X66820874Y-89071245D01*
X67050759Y-89115705D01*
X67103378Y-89118500D01*
X67103386Y-89118500D01*
X69040614Y-89118500D01*
X69040622Y-89118500D01*
X69093241Y-89115705D01*
X69323126Y-89071245D01*
X69542190Y-88988574D01*
X69744132Y-88870070D01*
X69923142Y-88719142D01*
X70074070Y-88540132D01*
X70192574Y-88338190D01*
X70275245Y-88119126D01*
X70319705Y-87889241D01*
X70322500Y-87836622D01*
X70322500Y-85899378D01*
X70319705Y-85846759D01*
X70275245Y-85616874D01*
X70192574Y-85397810D01*
X70074070Y-85195868D01*
X70074065Y-85195861D01*
X69923143Y-85016858D01*
X69923141Y-85016856D01*
X69744138Y-84865934D01*
X69744131Y-84865929D01*
X69542189Y-84747425D01*
X69444513Y-84710564D01*
X69323126Y-84664755D01*
X69323121Y-84664754D01*
X69323116Y-84664752D01*
X69320470Y-84664240D01*
X69319451Y-84663713D01*
X69318050Y-84663317D01*
X69318130Y-84663031D01*
X69258392Y-84632177D01*
X69223503Y-84571641D01*
X69226881Y-84501853D01*
X69267452Y-84444970D01*
X69332337Y-84419052D01*
X69344009Y-84418499D01*
X72869872Y-84418499D01*
X72929483Y-84412091D01*
X73064331Y-84361796D01*
X73179546Y-84275546D01*
X73265796Y-84160331D01*
X73316091Y-84025483D01*
X73322500Y-83965873D01*
X73322499Y-82595135D01*
X107477500Y-82595135D01*
X107477500Y-86190870D01*
X107477501Y-86190876D01*
X107483908Y-86250483D01*
X107534202Y-86385328D01*
X107534206Y-86385335D01*
X107620452Y-86500544D01*
X107620455Y-86500547D01*
X107735664Y-86586793D01*
X107735671Y-86586797D01*
X107870517Y-86637091D01*
X107870516Y-86637091D01*
X107877444Y-86637835D01*
X107930127Y-86643500D01*
X111525872Y-86643499D01*
X111585483Y-86637091D01*
X111720331Y-86586796D01*
X111835546Y-86500546D01*
X111921796Y-86385331D01*
X111972091Y-86250483D01*
X111978500Y-86190873D01*
X111978499Y-83328777D01*
X113727500Y-83328777D01*
X113727500Y-85457208D01*
X113727501Y-85457223D01*
X113737904Y-85589413D01*
X113737905Y-85589420D01*
X113792902Y-85807678D01*
X113792903Y-85807681D01*
X113885991Y-86012622D01*
X113885997Y-86012632D01*
X114014174Y-86197645D01*
X114014178Y-86197650D01*
X114014181Y-86197654D01*
X114173346Y-86356819D01*
X114173350Y-86356822D01*
X114173354Y-86356825D01*
X114214506Y-86385335D01*
X114358374Y-86485007D01*
X114563317Y-86578096D01*
X114563321Y-86578097D01*
X114781579Y-86633094D01*
X114781581Y-86633094D01*
X114781588Y-86633096D01*
X114913783Y-86643500D01*
X116542216Y-86643499D01*
X116674412Y-86633096D01*
X116892683Y-86578096D01*
X117097626Y-86485007D01*
X117282654Y-86356819D01*
X117441819Y-86197654D01*
X117570007Y-86012626D01*
X117663096Y-85807683D01*
X117718096Y-85589412D01*
X117728500Y-85457217D01*
X117728499Y-83328784D01*
X117718096Y-83196588D01*
X117663096Y-82978317D01*
X117570007Y-82773374D01*
X117538297Y-82727603D01*
X117441825Y-82588354D01*
X117441822Y-82588350D01*
X117441819Y-82588346D01*
X117282654Y-82429181D01*
X117282650Y-82429178D01*
X117282645Y-82429174D01*
X117097632Y-82300997D01*
X117097630Y-82300995D01*
X117097626Y-82300993D01*
X117063411Y-82285452D01*
X116892681Y-82207903D01*
X116892678Y-82207902D01*
X116674420Y-82152905D01*
X116674413Y-82152904D01*
X116623638Y-82148908D01*
X116542217Y-82142500D01*
X116542215Y-82142500D01*
X114913791Y-82142500D01*
X114913776Y-82142501D01*
X114781586Y-82152904D01*
X114781579Y-82152905D01*
X114563321Y-82207902D01*
X114563318Y-82207903D01*
X114358377Y-82300991D01*
X114358367Y-82300997D01*
X114173354Y-82429174D01*
X114173342Y-82429184D01*
X114014184Y-82588342D01*
X114014174Y-82588354D01*
X113885997Y-82773367D01*
X113885991Y-82773377D01*
X113792903Y-82978318D01*
X113792902Y-82978321D01*
X113737905Y-83196579D01*
X113737904Y-83196586D01*
X113727500Y-83328777D01*
X111978499Y-83328777D01*
X111978499Y-82595128D01*
X111972091Y-82535517D01*
X111932431Y-82429184D01*
X111921797Y-82400671D01*
X111921793Y-82400664D01*
X111835547Y-82285455D01*
X111835544Y-82285452D01*
X111720335Y-82199206D01*
X111720328Y-82199202D01*
X111673061Y-82181573D01*
X111617127Y-82139702D01*
X111592710Y-82074238D01*
X111607562Y-82005965D01*
X111656967Y-81956559D01*
X111722972Y-81941566D01*
X111736053Y-81942261D01*
X111759349Y-81943499D01*
X111759369Y-81943499D01*
X111759378Y-81943500D01*
X111759386Y-81943500D01*
X113696614Y-81943500D01*
X113696622Y-81943500D01*
X113749241Y-81940705D01*
X113979126Y-81896245D01*
X114198190Y-81813574D01*
X114400132Y-81695070D01*
X114579142Y-81544142D01*
X114730070Y-81365132D01*
X114848574Y-81163190D01*
X114931245Y-80944126D01*
X114975705Y-80714241D01*
X114978500Y-80661622D01*
X114978500Y-78724378D01*
X114975705Y-78671759D01*
X114931245Y-78441874D01*
X114848574Y-78222810D01*
X114730070Y-78020868D01*
X114730065Y-78020861D01*
X114579143Y-77841858D01*
X114579141Y-77841856D01*
X114400138Y-77690934D01*
X114400131Y-77690929D01*
X114198189Y-77572425D01*
X114107832Y-77538326D01*
X113979126Y-77489755D01*
X113979121Y-77489754D01*
X113749243Y-77445295D01*
X113696652Y-77442501D01*
X113696629Y-77442500D01*
X113696622Y-77442500D01*
X111759378Y-77442500D01*
X111759370Y-77442500D01*
X111759347Y-77442501D01*
X111706756Y-77445295D01*
X111706755Y-77445295D01*
X111476878Y-77489754D01*
X111476876Y-77489754D01*
X111476874Y-77489755D01*
X111402933Y-77517659D01*
X111257810Y-77572425D01*
X111055868Y-77690929D01*
X111055861Y-77690934D01*
X110876858Y-77841856D01*
X110876856Y-77841858D01*
X110725934Y-78020861D01*
X110725929Y-78020868D01*
X110607425Y-78222810D01*
X110552659Y-78367933D01*
X110524755Y-78441874D01*
X110524754Y-78441876D01*
X110524754Y-78441878D01*
X110480295Y-78671755D01*
X110480295Y-78671756D01*
X110477501Y-78724347D01*
X110477500Y-78724386D01*
X110477500Y-80661613D01*
X110477501Y-80661652D01*
X110480295Y-80714243D01*
X110480295Y-80714244D01*
X110487853Y-80753321D01*
X110524755Y-80944126D01*
X110535119Y-80971588D01*
X110607425Y-81163189D01*
X110725929Y-81365131D01*
X110725934Y-81365138D01*
X110876856Y-81544141D01*
X110876858Y-81544143D01*
X111055861Y-81695065D01*
X111055868Y-81695070D01*
X111257810Y-81813574D01*
X111476874Y-81896245D01*
X111479517Y-81896756D01*
X111480537Y-81897282D01*
X111481950Y-81897683D01*
X111481868Y-81897970D01*
X111541598Y-81928814D01*
X111576493Y-81989346D01*
X111573122Y-82059134D01*
X111532556Y-82116021D01*
X111467674Y-82141946D01*
X111455969Y-82142500D01*
X107930129Y-82142500D01*
X107930123Y-82142501D01*
X107870516Y-82148908D01*
X107735671Y-82199202D01*
X107735664Y-82199206D01*
X107620455Y-82285452D01*
X107620452Y-82285455D01*
X107534206Y-82400664D01*
X107534202Y-82400671D01*
X107483908Y-82535517D01*
X107478229Y-82588342D01*
X107477501Y-82595123D01*
X107477500Y-82595135D01*
X73322499Y-82595135D01*
X73322499Y-82152905D01*
X73322499Y-80370129D01*
X73322498Y-80370123D01*
X73322497Y-80370116D01*
X73316091Y-80310517D01*
X73276431Y-80204184D01*
X73265797Y-80175671D01*
X73265793Y-80175664D01*
X73179547Y-80060455D01*
X73179544Y-80060452D01*
X73064335Y-79974206D01*
X73064328Y-79974202D01*
X72929482Y-79923908D01*
X72929483Y-79923908D01*
X72869883Y-79917501D01*
X72869881Y-79917500D01*
X72869873Y-79917500D01*
X72869864Y-79917500D01*
X69274129Y-79917500D01*
X69274123Y-79917501D01*
X69214516Y-79923908D01*
X69079671Y-79974202D01*
X69079664Y-79974206D01*
X68964455Y-80060452D01*
X68964452Y-80060455D01*
X68878206Y-80175664D01*
X68878202Y-80175671D01*
X68827908Y-80310517D01*
X68822229Y-80363342D01*
X68821501Y-80370123D01*
X68821500Y-80370135D01*
X68821500Y-83965870D01*
X68821501Y-83965876D01*
X68827908Y-84025483D01*
X68878202Y-84160328D01*
X68878206Y-84160335D01*
X68964452Y-84275544D01*
X68964455Y-84275547D01*
X69079664Y-84361793D01*
X69079673Y-84361798D01*
X69126937Y-84379426D01*
X69182871Y-84421296D01*
X69207289Y-84486760D01*
X69192438Y-84555033D01*
X69143033Y-84604439D01*
X69077028Y-84619433D01*
X69040657Y-84617501D01*
X69040628Y-84617500D01*
X69040622Y-84617500D01*
X67103378Y-84617500D01*
X67103370Y-84617500D01*
X67103347Y-84617501D01*
X67050756Y-84620295D01*
X67050755Y-84620295D01*
X66820878Y-84664754D01*
X66820876Y-84664754D01*
X66820874Y-84664755D01*
X66746933Y-84692659D01*
X66601810Y-84747425D01*
X66399868Y-84865929D01*
X66399861Y-84865934D01*
X66220858Y-85016856D01*
X66220856Y-85016858D01*
X66069934Y-85195861D01*
X66069929Y-85195868D01*
X65951425Y-85397810D01*
X65896659Y-85542933D01*
X65868755Y-85616874D01*
X65868754Y-85616876D01*
X65868754Y-85616878D01*
X65824295Y-85846755D01*
X65824295Y-85846756D01*
X65821501Y-85899347D01*
X65821500Y-85899386D01*
X61285765Y-85899386D01*
X61331293Y-81103777D01*
X63071500Y-81103777D01*
X63071500Y-83232208D01*
X63071501Y-83232223D01*
X63081904Y-83364413D01*
X63081905Y-83364420D01*
X63136902Y-83582678D01*
X63136903Y-83582681D01*
X63229991Y-83787622D01*
X63229997Y-83787632D01*
X63358174Y-83972645D01*
X63358178Y-83972650D01*
X63358181Y-83972654D01*
X63517346Y-84131819D01*
X63517350Y-84131822D01*
X63517354Y-84131825D01*
X63558506Y-84160335D01*
X63702374Y-84260007D01*
X63907317Y-84353096D01*
X63907321Y-84353097D01*
X64125579Y-84408094D01*
X64125581Y-84408094D01*
X64125588Y-84408096D01*
X64257783Y-84418500D01*
X65886216Y-84418499D01*
X66018412Y-84408096D01*
X66236683Y-84353096D01*
X66441626Y-84260007D01*
X66626654Y-84131819D01*
X66785819Y-83972654D01*
X66914007Y-83787626D01*
X67007096Y-83582683D01*
X67062096Y-83364412D01*
X67072500Y-83232217D01*
X67072499Y-81103784D01*
X67062096Y-80971588D01*
X67007096Y-80753317D01*
X66914007Y-80548374D01*
X66882297Y-80502603D01*
X66785825Y-80363354D01*
X66785822Y-80363350D01*
X66785819Y-80363346D01*
X66626654Y-80204181D01*
X66626650Y-80204178D01*
X66626645Y-80204174D01*
X66441632Y-80075997D01*
X66441630Y-80075995D01*
X66441626Y-80075993D01*
X66407411Y-80060452D01*
X66236681Y-79982903D01*
X66236678Y-79982902D01*
X66018420Y-79927905D01*
X66018413Y-79927904D01*
X65967638Y-79923908D01*
X65886217Y-79917500D01*
X65886215Y-79917500D01*
X64257791Y-79917500D01*
X64257776Y-79917501D01*
X64125586Y-79927904D01*
X64125579Y-79927905D01*
X63907321Y-79982902D01*
X63907318Y-79982903D01*
X63702377Y-80075991D01*
X63702367Y-80075997D01*
X63517354Y-80204174D01*
X63517342Y-80204184D01*
X63358184Y-80363342D01*
X63358174Y-80363354D01*
X63229997Y-80548367D01*
X63229991Y-80548377D01*
X63136903Y-80753318D01*
X63136902Y-80753321D01*
X63081905Y-80971579D01*
X63081904Y-80971586D01*
X63071500Y-81103777D01*
X61331293Y-81103777D01*
X61415999Y-72181386D01*
X65869500Y-72181386D01*
X65869500Y-74118613D01*
X65869501Y-74118652D01*
X65872295Y-74171243D01*
X65872295Y-74171244D01*
X65916754Y-74401121D01*
X65916755Y-74401126D01*
X65965326Y-74529832D01*
X65999425Y-74620189D01*
X66117929Y-74822131D01*
X66117934Y-74822138D01*
X66268856Y-75001141D01*
X66268858Y-75001143D01*
X66447861Y-75152065D01*
X66447868Y-75152070D01*
X66649810Y-75270574D01*
X66868874Y-75353245D01*
X67098759Y-75397705D01*
X67151378Y-75400500D01*
X67151386Y-75400500D01*
X69088614Y-75400500D01*
X69088622Y-75400500D01*
X69141241Y-75397705D01*
X69371126Y-75353245D01*
X69590190Y-75270574D01*
X69792132Y-75152070D01*
X69971142Y-75001142D01*
X70122070Y-74822132D01*
X70240574Y-74620190D01*
X70323245Y-74401126D01*
X70367705Y-74171241D01*
X70370500Y-74118622D01*
X70370500Y-72181378D01*
X70367705Y-72128759D01*
X70323245Y-71898874D01*
X70240574Y-71679810D01*
X70122070Y-71477868D01*
X70122065Y-71477861D01*
X69971143Y-71298858D01*
X69971141Y-71298856D01*
X69792138Y-71147934D01*
X69792131Y-71147929D01*
X69590189Y-71029425D01*
X69492513Y-70992564D01*
X69371126Y-70946755D01*
X69371121Y-70946754D01*
X69371116Y-70946752D01*
X69368470Y-70946240D01*
X69367451Y-70945713D01*
X69366050Y-70945317D01*
X69366130Y-70945031D01*
X69306392Y-70914177D01*
X69271503Y-70853641D01*
X69274881Y-70783853D01*
X69315452Y-70726970D01*
X69380337Y-70701052D01*
X69392009Y-70700499D01*
X72917872Y-70700499D01*
X72977483Y-70694091D01*
X73112331Y-70643796D01*
X73227546Y-70557546D01*
X73313796Y-70442331D01*
X73364091Y-70307483D01*
X73370500Y-70247873D01*
X73370499Y-66652128D01*
X73364091Y-66592517D01*
X73329816Y-66500622D01*
X73313797Y-66457671D01*
X73313793Y-66457664D01*
X73227547Y-66342455D01*
X73227544Y-66342452D01*
X73112335Y-66256206D01*
X73112328Y-66256202D01*
X72977482Y-66205908D01*
X72977483Y-66205908D01*
X72917883Y-66199501D01*
X72917881Y-66199500D01*
X72917873Y-66199500D01*
X72917864Y-66199500D01*
X69322129Y-66199500D01*
X69322123Y-66199501D01*
X69262516Y-66205908D01*
X69127671Y-66256202D01*
X69127664Y-66256206D01*
X69012455Y-66342452D01*
X69012452Y-66342455D01*
X68926206Y-66457664D01*
X68926202Y-66457671D01*
X68875908Y-66592517D01*
X68869501Y-66652116D01*
X68869501Y-66652123D01*
X68869500Y-66652135D01*
X68869500Y-70247870D01*
X68869501Y-70247876D01*
X68875908Y-70307483D01*
X68926202Y-70442328D01*
X68926206Y-70442335D01*
X69012452Y-70557544D01*
X69012455Y-70557547D01*
X69127664Y-70643793D01*
X69127673Y-70643798D01*
X69174937Y-70661426D01*
X69230871Y-70703296D01*
X69255289Y-70768760D01*
X69240438Y-70837033D01*
X69191033Y-70886439D01*
X69125028Y-70901433D01*
X69088657Y-70899501D01*
X69088628Y-70899500D01*
X69088622Y-70899500D01*
X67151378Y-70899500D01*
X67151370Y-70899500D01*
X67151347Y-70899501D01*
X67098756Y-70902295D01*
X67098755Y-70902295D01*
X66868878Y-70946754D01*
X66868876Y-70946754D01*
X66868874Y-70946755D01*
X66794933Y-70974659D01*
X66649810Y-71029425D01*
X66447868Y-71147929D01*
X66447861Y-71147934D01*
X66268858Y-71298856D01*
X66268856Y-71298858D01*
X66117934Y-71477861D01*
X66117929Y-71477868D01*
X65999425Y-71679810D01*
X65958890Y-71787224D01*
X65916755Y-71898874D01*
X65916754Y-71898876D01*
X65916754Y-71898878D01*
X65872295Y-72128755D01*
X65872295Y-72128756D01*
X65869501Y-72181347D01*
X65869500Y-72181386D01*
X61415999Y-72181386D01*
X61461527Y-67385803D01*
X63120000Y-67385803D01*
X63120000Y-68200000D01*
X64620000Y-68200000D01*
X64620000Y-68700000D01*
X63120001Y-68700000D01*
X63120001Y-69514197D01*
X63130400Y-69646332D01*
X63185377Y-69864519D01*
X63278428Y-70069374D01*
X63278431Y-70069380D01*
X63406559Y-70254323D01*
X63406569Y-70254335D01*
X63565664Y-70413430D01*
X63565676Y-70413440D01*
X63750619Y-70541568D01*
X63750625Y-70541571D01*
X63955480Y-70634622D01*
X64173667Y-70689599D01*
X64305810Y-70699999D01*
X64869999Y-70699999D01*
X64870000Y-70699998D01*
X64870000Y-69883012D01*
X64927007Y-69915925D01*
X65054174Y-69950000D01*
X65185826Y-69950000D01*
X65312993Y-69915925D01*
X65370000Y-69883012D01*
X65370000Y-70699999D01*
X65934182Y-70699999D01*
X65934197Y-70699998D01*
X66066332Y-70689599D01*
X66284519Y-70634622D01*
X66489374Y-70541571D01*
X66489380Y-70541568D01*
X66674323Y-70413440D01*
X66674335Y-70413430D01*
X66833430Y-70254335D01*
X66833440Y-70254323D01*
X66961568Y-70069380D01*
X66961571Y-70069374D01*
X67054622Y-69864519D01*
X67109599Y-69646332D01*
X67119999Y-69514196D01*
X67120000Y-69514184D01*
X67120000Y-68700000D01*
X65620000Y-68700000D01*
X65620000Y-68200000D01*
X67119999Y-68200000D01*
X67119999Y-67385817D01*
X67119998Y-67385802D01*
X67109599Y-67253667D01*
X67054622Y-67035480D01*
X66961571Y-66830625D01*
X66961568Y-66830619D01*
X66833440Y-66645676D01*
X66833430Y-66645664D01*
X66674335Y-66486569D01*
X66674323Y-66486559D01*
X66489380Y-66358431D01*
X66489374Y-66358428D01*
X66284519Y-66265377D01*
X66066332Y-66210400D01*
X65934196Y-66200000D01*
X65370000Y-66200000D01*
X65370000Y-67016988D01*
X65312993Y-66984075D01*
X65185826Y-66950000D01*
X65054174Y-66950000D01*
X64927007Y-66984075D01*
X64870000Y-67016988D01*
X64870000Y-66200000D01*
X64305817Y-66200000D01*
X64305802Y-66200001D01*
X64173667Y-66210400D01*
X63955480Y-66265377D01*
X63750625Y-66358428D01*
X63750619Y-66358431D01*
X63565676Y-66486559D01*
X63565664Y-66486569D01*
X63406569Y-66645664D01*
X63406559Y-66645676D01*
X63278431Y-66830619D01*
X63278428Y-66830625D01*
X63185377Y-67035480D01*
X63130400Y-67253667D01*
X63120000Y-67385803D01*
X61461527Y-67385803D01*
X61492019Y-64173984D01*
X86913500Y-64173984D01*
X86913500Y-67074015D01*
X86924000Y-67176795D01*
X86924001Y-67176796D01*
X86979186Y-67343335D01*
X86979187Y-67343337D01*
X87071286Y-67492651D01*
X87071289Y-67492655D01*
X87195344Y-67616710D01*
X87195348Y-67616713D01*
X87344662Y-67708812D01*
X87344664Y-67708813D01*
X87344666Y-67708814D01*
X87511203Y-67763999D01*
X87613992Y-67774500D01*
X87638921Y-67774500D01*
X87705960Y-67794185D01*
X87751715Y-67846989D01*
X87761659Y-67916147D01*
X87732634Y-67979703D01*
X87714407Y-67996876D01*
X87541263Y-68129733D01*
X87541256Y-68129739D01*
X87369739Y-68301256D01*
X87369733Y-68301263D01*
X87222067Y-68493706D01*
X87100777Y-68703785D01*
X87100773Y-68703794D01*
X87007947Y-68927895D01*
X86945161Y-69162214D01*
X86913500Y-69402711D01*
X86913500Y-70245288D01*
X86945161Y-70485785D01*
X87007947Y-70720104D01*
X87100773Y-70944205D01*
X87100777Y-70944214D01*
X87102244Y-70946755D01*
X87222064Y-71154289D01*
X87222066Y-71154292D01*
X87222067Y-71154293D01*
X87369733Y-71346736D01*
X87369739Y-71346743D01*
X87541256Y-71518260D01*
X87541263Y-71518266D01*
X87654321Y-71605018D01*
X87733711Y-71665936D01*
X87943788Y-71787224D01*
X88167900Y-71880054D01*
X88402211Y-71942838D01*
X88582586Y-71966584D01*
X88642711Y-71974500D01*
X88642712Y-71974500D01*
X88885289Y-71974500D01*
X88933388Y-71968167D01*
X89125789Y-71942838D01*
X89360100Y-71880054D01*
X89584212Y-71787224D01*
X89794289Y-71665936D01*
X89986738Y-71518265D01*
X90158265Y-71346738D01*
X90305936Y-71154289D01*
X90427224Y-70944212D01*
X90520054Y-70720100D01*
X90582838Y-70485789D01*
X90614500Y-70245288D01*
X90614500Y-69402712D01*
X90614500Y-69402711D01*
X91113500Y-69402711D01*
X91113500Y-70245288D01*
X91145161Y-70485785D01*
X91207947Y-70720104D01*
X91300773Y-70944205D01*
X91300777Y-70944214D01*
X91302244Y-70946755D01*
X91422064Y-71154289D01*
X91422066Y-71154292D01*
X91422067Y-71154293D01*
X91569733Y-71346736D01*
X91569739Y-71346743D01*
X91741256Y-71518260D01*
X91741263Y-71518266D01*
X91854321Y-71605018D01*
X91933711Y-71665936D01*
X92143788Y-71787224D01*
X92367900Y-71880054D01*
X92602211Y-71942838D01*
X92782586Y-71966584D01*
X92842711Y-71974500D01*
X92842712Y-71974500D01*
X93085289Y-71974500D01*
X93133388Y-71968167D01*
X93325789Y-71942838D01*
X93560100Y-71880054D01*
X93784212Y-71787224D01*
X93994289Y-71665936D01*
X94186738Y-71518265D01*
X94358265Y-71346738D01*
X94505936Y-71154289D01*
X94627224Y-70944212D01*
X94720054Y-70720100D01*
X94782838Y-70485789D01*
X94814500Y-70245288D01*
X94814500Y-69402712D01*
X94782838Y-69162211D01*
X94720054Y-68927900D01*
X94627224Y-68703788D01*
X94505936Y-68493711D01*
X94460222Y-68434135D01*
X107525500Y-68434135D01*
X107525500Y-72029870D01*
X107525501Y-72029876D01*
X107531908Y-72089483D01*
X107582202Y-72224328D01*
X107582206Y-72224335D01*
X107668452Y-72339544D01*
X107668455Y-72339547D01*
X107783664Y-72425793D01*
X107783671Y-72425797D01*
X107918517Y-72476091D01*
X107918516Y-72476091D01*
X107925444Y-72476835D01*
X107978127Y-72482500D01*
X111573872Y-72482499D01*
X111633483Y-72476091D01*
X111768331Y-72425796D01*
X111883546Y-72339546D01*
X111969796Y-72224331D01*
X112020091Y-72089483D01*
X112026500Y-72029873D01*
X112026499Y-69167803D01*
X113776000Y-69167803D01*
X113776000Y-69982000D01*
X115276000Y-69982000D01*
X115276000Y-70482000D01*
X113776001Y-70482000D01*
X113776001Y-71296197D01*
X113786400Y-71428332D01*
X113841377Y-71646519D01*
X113934428Y-71851374D01*
X113934431Y-71851380D01*
X114062559Y-72036323D01*
X114062569Y-72036335D01*
X114221664Y-72195430D01*
X114221676Y-72195440D01*
X114406619Y-72323568D01*
X114406625Y-72323571D01*
X114611480Y-72416622D01*
X114829667Y-72471599D01*
X114961810Y-72481999D01*
X115525999Y-72481999D01*
X115526000Y-72481998D01*
X115526000Y-71665012D01*
X115583007Y-71697925D01*
X115710174Y-71732000D01*
X115841826Y-71732000D01*
X115968993Y-71697925D01*
X116026000Y-71665012D01*
X116026000Y-72481999D01*
X116590182Y-72481999D01*
X116590197Y-72481998D01*
X116722332Y-72471599D01*
X116940519Y-72416622D01*
X117145374Y-72323571D01*
X117145380Y-72323568D01*
X117330323Y-72195440D01*
X117330335Y-72195430D01*
X117489430Y-72036335D01*
X117489440Y-72036323D01*
X117617568Y-71851380D01*
X117617571Y-71851374D01*
X117710622Y-71646519D01*
X117765599Y-71428332D01*
X117775999Y-71296196D01*
X117776000Y-71296184D01*
X117776000Y-70482000D01*
X116276000Y-70482000D01*
X116276000Y-69982000D01*
X117775999Y-69982000D01*
X117775999Y-69167817D01*
X117775998Y-69167802D01*
X117765599Y-69035667D01*
X117710622Y-68817480D01*
X117617571Y-68612625D01*
X117617568Y-68612619D01*
X117489440Y-68427676D01*
X117489430Y-68427664D01*
X117330335Y-68268569D01*
X117330323Y-68268559D01*
X117145380Y-68140431D01*
X117145374Y-68140428D01*
X116940519Y-68047377D01*
X116722332Y-67992400D01*
X116590196Y-67982000D01*
X116026000Y-67982000D01*
X116026000Y-68798988D01*
X115968993Y-68766075D01*
X115841826Y-68732000D01*
X115710174Y-68732000D01*
X115583007Y-68766075D01*
X115526000Y-68798988D01*
X115526000Y-67982000D01*
X114961817Y-67982000D01*
X114961802Y-67982001D01*
X114829667Y-67992400D01*
X114611480Y-68047377D01*
X114406625Y-68140428D01*
X114406619Y-68140431D01*
X114221676Y-68268559D01*
X114221664Y-68268569D01*
X114062569Y-68427664D01*
X114062559Y-68427676D01*
X113934431Y-68612619D01*
X113934428Y-68612625D01*
X113841377Y-68817480D01*
X113786400Y-69035667D01*
X113776000Y-69167803D01*
X112026499Y-69167803D01*
X112026499Y-68434128D01*
X112020091Y-68374517D01*
X111992766Y-68301256D01*
X111969797Y-68239671D01*
X111969793Y-68239664D01*
X111883547Y-68124455D01*
X111883544Y-68124452D01*
X111768335Y-68038206D01*
X111768328Y-68038202D01*
X111721061Y-68020573D01*
X111665127Y-67978702D01*
X111640710Y-67913238D01*
X111655562Y-67844965D01*
X111704967Y-67795559D01*
X111770972Y-67780566D01*
X111784053Y-67781261D01*
X111807349Y-67782499D01*
X111807369Y-67782499D01*
X111807378Y-67782500D01*
X111807386Y-67782500D01*
X113744614Y-67782500D01*
X113744622Y-67782500D01*
X113797241Y-67779705D01*
X114027126Y-67735245D01*
X114246190Y-67652574D01*
X114448132Y-67534070D01*
X114627142Y-67383142D01*
X114778070Y-67204132D01*
X114896574Y-67002190D01*
X114979245Y-66783126D01*
X115023705Y-66553241D01*
X115026500Y-66500622D01*
X115026500Y-64563378D01*
X115023705Y-64510759D01*
X114979245Y-64280874D01*
X114896574Y-64061810D01*
X114778070Y-63859868D01*
X114778065Y-63859861D01*
X114627143Y-63680858D01*
X114627141Y-63680856D01*
X114448138Y-63529934D01*
X114448131Y-63529929D01*
X114246189Y-63411425D01*
X114155832Y-63377326D01*
X114027126Y-63328755D01*
X114027121Y-63328754D01*
X113797243Y-63284295D01*
X113744652Y-63281501D01*
X113744629Y-63281500D01*
X113744622Y-63281500D01*
X111807378Y-63281500D01*
X111807370Y-63281500D01*
X111807347Y-63281501D01*
X111754756Y-63284295D01*
X111754755Y-63284295D01*
X111524878Y-63328754D01*
X111524876Y-63328754D01*
X111524874Y-63328755D01*
X111450933Y-63356659D01*
X111305810Y-63411425D01*
X111103868Y-63529929D01*
X111103861Y-63529934D01*
X110924858Y-63680856D01*
X110924856Y-63680858D01*
X110773934Y-63859861D01*
X110773929Y-63859868D01*
X110655425Y-64061810D01*
X110600659Y-64206933D01*
X110572755Y-64280874D01*
X110572754Y-64280876D01*
X110572754Y-64280878D01*
X110528295Y-64510755D01*
X110528295Y-64510756D01*
X110525501Y-64563347D01*
X110525500Y-64563386D01*
X110525500Y-66500613D01*
X110525501Y-66500652D01*
X110528295Y-66553243D01*
X110528295Y-66553244D01*
X110547420Y-66652128D01*
X110572755Y-66783126D01*
X110621326Y-66911832D01*
X110655425Y-67002189D01*
X110773929Y-67204131D01*
X110773934Y-67204138D01*
X110924856Y-67383141D01*
X110924858Y-67383143D01*
X111103861Y-67534065D01*
X111103868Y-67534070D01*
X111305810Y-67652574D01*
X111524874Y-67735245D01*
X111527517Y-67735756D01*
X111528537Y-67736282D01*
X111529950Y-67736683D01*
X111529868Y-67736970D01*
X111589598Y-67767814D01*
X111624493Y-67828346D01*
X111621122Y-67898134D01*
X111580556Y-67955021D01*
X111515674Y-67980946D01*
X111503969Y-67981500D01*
X107978129Y-67981500D01*
X107978123Y-67981501D01*
X107918516Y-67987908D01*
X107783671Y-68038202D01*
X107783664Y-68038206D01*
X107668455Y-68124452D01*
X107668452Y-68124455D01*
X107582206Y-68239664D01*
X107582202Y-68239671D01*
X107531908Y-68374517D01*
X107525501Y-68434116D01*
X107525501Y-68434123D01*
X107525500Y-68434135D01*
X94460222Y-68434135D01*
X94460217Y-68434129D01*
X94358266Y-68301263D01*
X94358260Y-68301256D01*
X94186743Y-68129739D01*
X94186736Y-68129733D01*
X93994293Y-67982067D01*
X93994292Y-67982066D01*
X93994289Y-67982064D01*
X93784212Y-67860776D01*
X93784200Y-67860770D01*
X93729927Y-67838290D01*
X93675523Y-67794449D01*
X93653458Y-67728155D01*
X93670737Y-67660456D01*
X93721874Y-67612845D01*
X93729927Y-67609168D01*
X93783978Y-67586779D01*
X93783993Y-67586772D01*
X93994009Y-67465519D01*
X94186405Y-67317889D01*
X94186412Y-67317883D01*
X94357883Y-67146412D01*
X94357889Y-67146405D01*
X94505519Y-66954009D01*
X94626772Y-66743993D01*
X94626779Y-66743978D01*
X94719578Y-66519939D01*
X94782346Y-66285687D01*
X94813998Y-66045264D01*
X94814000Y-66045248D01*
X94814000Y-65874000D01*
X93618121Y-65874000D01*
X93637099Y-65828182D01*
X93664000Y-65692944D01*
X93664000Y-65555056D01*
X93637099Y-65419818D01*
X93618121Y-65374000D01*
X94814000Y-65374000D01*
X94814000Y-65202751D01*
X94813998Y-65202735D01*
X94782346Y-64962312D01*
X94719578Y-64728060D01*
X94626779Y-64504021D01*
X94626772Y-64504006D01*
X94505519Y-64293990D01*
X94357889Y-64101594D01*
X94357883Y-64101587D01*
X94186412Y-63930116D01*
X94186405Y-63930110D01*
X93994009Y-63782480D01*
X93783993Y-63661227D01*
X93783978Y-63661220D01*
X93559939Y-63568421D01*
X93325687Y-63505653D01*
X93214000Y-63490948D01*
X93214000Y-64969879D01*
X93168182Y-64950901D01*
X93032944Y-64924000D01*
X92895056Y-64924000D01*
X92759818Y-64950901D01*
X92714000Y-64969879D01*
X92714000Y-63490948D01*
X92713999Y-63490948D01*
X92602312Y-63505653D01*
X92368060Y-63568421D01*
X92144021Y-63661220D01*
X92144006Y-63661227D01*
X91933990Y-63782480D01*
X91741594Y-63930110D01*
X91741587Y-63930116D01*
X91570116Y-64101587D01*
X91570110Y-64101594D01*
X91422480Y-64293990D01*
X91301227Y-64504006D01*
X91301220Y-64504021D01*
X91208421Y-64728060D01*
X91145653Y-64962312D01*
X91114001Y-65202735D01*
X91114000Y-65202751D01*
X91114000Y-65374000D01*
X92309879Y-65374000D01*
X92290901Y-65419818D01*
X92264000Y-65555056D01*
X92264000Y-65692944D01*
X92290901Y-65828182D01*
X92309879Y-65874000D01*
X91114000Y-65874000D01*
X91114000Y-66045248D01*
X91114001Y-66045264D01*
X91145653Y-66285687D01*
X91208421Y-66519939D01*
X91301220Y-66743978D01*
X91301227Y-66743993D01*
X91422480Y-66954009D01*
X91570110Y-67146405D01*
X91570116Y-67146412D01*
X91741587Y-67317883D01*
X91741594Y-67317889D01*
X91933990Y-67465519D01*
X92144006Y-67586772D01*
X92144016Y-67586777D01*
X92198073Y-67609168D01*
X92252476Y-67653009D01*
X92274541Y-67719303D01*
X92257262Y-67787003D01*
X92206124Y-67834613D01*
X92198073Y-67838290D01*
X92143794Y-67860772D01*
X92143785Y-67860777D01*
X92005792Y-67940448D01*
X91935648Y-67980946D01*
X91933706Y-67982067D01*
X91741263Y-68129733D01*
X91741256Y-68129739D01*
X91569739Y-68301256D01*
X91569733Y-68301263D01*
X91422067Y-68493706D01*
X91300777Y-68703785D01*
X91300773Y-68703794D01*
X91207947Y-68927895D01*
X91145161Y-69162214D01*
X91113500Y-69402711D01*
X90614500Y-69402711D01*
X90582838Y-69162211D01*
X90520054Y-68927900D01*
X90427224Y-68703788D01*
X90305936Y-68493711D01*
X90245018Y-68414321D01*
X90158266Y-68301263D01*
X90158260Y-68301256D01*
X89986743Y-68129739D01*
X89986736Y-68129733D01*
X89813593Y-67996876D01*
X89772390Y-67940448D01*
X89768235Y-67870702D01*
X89802447Y-67809782D01*
X89864164Y-67777029D01*
X89889079Y-67774500D01*
X89914003Y-67774500D01*
X89914008Y-67774500D01*
X90016797Y-67763999D01*
X90183334Y-67708814D01*
X90332655Y-67616711D01*
X90456711Y-67492655D01*
X90548814Y-67343334D01*
X90603999Y-67176797D01*
X90614500Y-67074008D01*
X90614500Y-64173992D01*
X90603999Y-64071203D01*
X90548814Y-63904666D01*
X90456711Y-63755345D01*
X90332655Y-63631289D01*
X90332651Y-63631286D01*
X90183337Y-63539187D01*
X90183335Y-63539186D01*
X90082138Y-63505653D01*
X90016797Y-63484001D01*
X90016795Y-63484000D01*
X89914015Y-63473500D01*
X89914008Y-63473500D01*
X87613992Y-63473500D01*
X87613984Y-63473500D01*
X87511204Y-63484000D01*
X87511203Y-63484001D01*
X87344664Y-63539186D01*
X87344662Y-63539187D01*
X87195348Y-63631286D01*
X87195344Y-63631289D01*
X87071289Y-63755344D01*
X87071286Y-63755348D01*
X86979187Y-63904662D01*
X86979186Y-63904664D01*
X86924001Y-64071203D01*
X86924000Y-64071204D01*
X86913500Y-64173984D01*
X61492019Y-64173984D01*
X61535952Y-59546386D01*
X65869500Y-59546386D01*
X65869500Y-61483613D01*
X65869501Y-61483652D01*
X65872295Y-61536243D01*
X65872295Y-61536244D01*
X65916754Y-61766121D01*
X65916755Y-61766126D01*
X65965326Y-61894832D01*
X65999425Y-61985189D01*
X66117929Y-62187131D01*
X66117934Y-62187138D01*
X66268856Y-62366141D01*
X66268858Y-62366143D01*
X66447861Y-62517065D01*
X66447868Y-62517070D01*
X66649810Y-62635574D01*
X66868874Y-62718245D01*
X67098759Y-62762705D01*
X67151378Y-62765500D01*
X67151386Y-62765500D01*
X69088614Y-62765500D01*
X69088622Y-62765500D01*
X69141241Y-62762705D01*
X69371126Y-62718245D01*
X69590190Y-62635574D01*
X69792132Y-62517070D01*
X69971142Y-62366142D01*
X70122070Y-62187132D01*
X70240574Y-61985190D01*
X70323245Y-61766126D01*
X70367705Y-61536241D01*
X70370500Y-61483622D01*
X70370500Y-59546378D01*
X70367705Y-59493759D01*
X70323245Y-59263874D01*
X70240574Y-59044810D01*
X70122070Y-58842868D01*
X70122065Y-58842861D01*
X69971143Y-58663858D01*
X69971141Y-58663856D01*
X69792138Y-58512934D01*
X69792131Y-58512929D01*
X69590189Y-58394425D01*
X69492513Y-58357564D01*
X69371126Y-58311755D01*
X69371121Y-58311754D01*
X69371116Y-58311752D01*
X69368470Y-58311240D01*
X69367451Y-58310713D01*
X69366050Y-58310317D01*
X69366130Y-58310031D01*
X69306392Y-58279177D01*
X69271503Y-58218641D01*
X69274881Y-58148853D01*
X69315452Y-58091970D01*
X69380337Y-58066052D01*
X69392009Y-58065499D01*
X72917872Y-58065499D01*
X72977483Y-58059091D01*
X73112331Y-58008796D01*
X73227546Y-57922546D01*
X73313796Y-57807331D01*
X73364091Y-57672483D01*
X73370500Y-57612873D01*
X73370500Y-56852486D01*
X77749500Y-56852486D01*
X77749500Y-57147513D01*
X77760297Y-57229519D01*
X77788007Y-57439993D01*
X77845045Y-57652862D01*
X77864361Y-57724951D01*
X77864364Y-57724961D01*
X77977254Y-57997500D01*
X77977258Y-57997510D01*
X78124761Y-58252993D01*
X78304352Y-58487040D01*
X78304358Y-58487047D01*
X78512952Y-58695641D01*
X78512959Y-58695647D01*
X78747006Y-58875238D01*
X79002489Y-59022741D01*
X79002490Y-59022741D01*
X79002493Y-59022743D01*
X79275048Y-59135639D01*
X79560007Y-59211993D01*
X79852494Y-59250500D01*
X79852501Y-59250500D01*
X80147499Y-59250500D01*
X80147506Y-59250500D01*
X80439993Y-59211993D01*
X80724952Y-59135639D01*
X80997507Y-59022743D01*
X81252994Y-58875238D01*
X81487042Y-58695646D01*
X81695646Y-58487042D01*
X81875238Y-58252994D01*
X82022743Y-57997507D01*
X82135639Y-57724952D01*
X82211993Y-57439993D01*
X82250500Y-57147506D01*
X82250500Y-56852494D01*
X82211993Y-56560007D01*
X82135639Y-56275048D01*
X82022743Y-56002493D01*
X81901605Y-55792676D01*
X81875238Y-55747006D01*
X81695647Y-55512959D01*
X81695641Y-55512952D01*
X81487047Y-55304358D01*
X81487040Y-55304352D01*
X81252993Y-55124761D01*
X80997510Y-54977258D01*
X80997500Y-54977254D01*
X80724961Y-54864364D01*
X80724954Y-54864362D01*
X80724952Y-54864361D01*
X80439993Y-54788007D01*
X80391113Y-54781571D01*
X80147513Y-54749500D01*
X80147506Y-54749500D01*
X79852494Y-54749500D01*
X79852486Y-54749500D01*
X79574085Y-54786153D01*
X79560007Y-54788007D01*
X79275048Y-54864361D01*
X79275038Y-54864364D01*
X79002499Y-54977254D01*
X79002489Y-54977258D01*
X78747006Y-55124761D01*
X78512959Y-55304352D01*
X78512952Y-55304358D01*
X78304358Y-55512952D01*
X78304352Y-55512959D01*
X78124761Y-55747006D01*
X77977258Y-56002489D01*
X77977254Y-56002499D01*
X77864364Y-56275038D01*
X77864361Y-56275048D01*
X77795293Y-56532817D01*
X77788008Y-56560004D01*
X77788006Y-56560015D01*
X77749500Y-56852486D01*
X73370500Y-56852486D01*
X73370499Y-55799135D01*
X73370499Y-54017129D01*
X73370498Y-54017123D01*
X73370497Y-54017116D01*
X73364091Y-53957517D01*
X73329816Y-53865622D01*
X73313797Y-53822671D01*
X73313793Y-53822664D01*
X73227547Y-53707455D01*
X73227544Y-53707452D01*
X73112335Y-53621206D01*
X73112328Y-53621202D01*
X72977482Y-53570908D01*
X72977483Y-53570908D01*
X72917883Y-53564501D01*
X72917881Y-53564500D01*
X72917873Y-53564500D01*
X72917864Y-53564500D01*
X69322129Y-53564500D01*
X69322123Y-53564501D01*
X69262516Y-53570908D01*
X69127671Y-53621202D01*
X69127664Y-53621206D01*
X69012455Y-53707452D01*
X69012452Y-53707455D01*
X68926206Y-53822664D01*
X68926202Y-53822671D01*
X68875908Y-53957517D01*
X68869501Y-54017116D01*
X68869501Y-54017123D01*
X68869500Y-54017135D01*
X68869500Y-57612870D01*
X68869501Y-57612876D01*
X68875908Y-57672483D01*
X68926202Y-57807328D01*
X68926206Y-57807335D01*
X69012452Y-57922544D01*
X69012455Y-57922547D01*
X69127664Y-58008793D01*
X69127673Y-58008798D01*
X69174937Y-58026426D01*
X69230871Y-58068296D01*
X69255289Y-58133760D01*
X69240438Y-58202033D01*
X69191033Y-58251439D01*
X69125028Y-58266433D01*
X69088657Y-58264501D01*
X69088628Y-58264500D01*
X69088622Y-58264500D01*
X67151378Y-58264500D01*
X67151370Y-58264500D01*
X67151347Y-58264501D01*
X67098756Y-58267295D01*
X67098755Y-58267295D01*
X66868878Y-58311754D01*
X66868876Y-58311754D01*
X66868874Y-58311755D01*
X66794933Y-58339659D01*
X66649810Y-58394425D01*
X66447868Y-58512929D01*
X66447861Y-58512934D01*
X66268858Y-58663856D01*
X66268856Y-58663858D01*
X66117934Y-58842861D01*
X66117929Y-58842868D01*
X65999425Y-59044810D01*
X65944659Y-59189933D01*
X65916755Y-59263874D01*
X65916754Y-59263876D01*
X65916754Y-59263878D01*
X65872295Y-59493755D01*
X65872295Y-59493756D01*
X65869501Y-59546347D01*
X65869500Y-59546386D01*
X61535952Y-59546386D01*
X61535979Y-59543556D01*
X61569502Y-56012461D01*
X61581480Y-54750803D01*
X63120000Y-54750803D01*
X63120000Y-55565000D01*
X64620000Y-55565000D01*
X64620000Y-56065000D01*
X63120001Y-56065000D01*
X63120001Y-56879197D01*
X63130400Y-57011332D01*
X63185377Y-57229519D01*
X63278428Y-57434374D01*
X63278431Y-57434380D01*
X63406559Y-57619323D01*
X63406569Y-57619335D01*
X63565664Y-57778430D01*
X63565676Y-57778440D01*
X63750619Y-57906568D01*
X63750625Y-57906571D01*
X63955480Y-57999622D01*
X64173667Y-58054599D01*
X64305810Y-58064999D01*
X64869999Y-58064999D01*
X64870000Y-58064998D01*
X64870000Y-57248012D01*
X64927007Y-57280925D01*
X65054174Y-57315000D01*
X65185826Y-57315000D01*
X65312993Y-57280925D01*
X65370000Y-57248012D01*
X65370000Y-58064999D01*
X65934182Y-58064999D01*
X65934197Y-58064998D01*
X66066332Y-58054599D01*
X66284519Y-57999622D01*
X66489374Y-57906571D01*
X66489380Y-57906568D01*
X66674323Y-57778440D01*
X66674335Y-57778430D01*
X66833430Y-57619335D01*
X66833440Y-57619323D01*
X66961568Y-57434380D01*
X66961571Y-57434374D01*
X67054622Y-57229519D01*
X67109599Y-57011332D01*
X67119999Y-56879196D01*
X67120000Y-56879184D01*
X67120000Y-56065000D01*
X65620000Y-56065000D01*
X65620000Y-55565000D01*
X67119999Y-55565000D01*
X67119999Y-54750817D01*
X67119998Y-54750802D01*
X67109599Y-54618667D01*
X67054622Y-54400480D01*
X66961571Y-54195625D01*
X66961568Y-54195619D01*
X66833440Y-54010676D01*
X66833430Y-54010664D01*
X66674335Y-53851569D01*
X66674323Y-53851559D01*
X66489380Y-53723431D01*
X66489374Y-53723428D01*
X66284519Y-53630377D01*
X66066332Y-53575400D01*
X65934196Y-53565000D01*
X65370000Y-53565000D01*
X65370000Y-54381988D01*
X65312993Y-54349075D01*
X65185826Y-54315000D01*
X65054174Y-54315000D01*
X64927007Y-54349075D01*
X64870000Y-54381988D01*
X64870000Y-53565000D01*
X64305817Y-53565000D01*
X64305802Y-53565001D01*
X64173667Y-53575400D01*
X63955480Y-53630377D01*
X63750625Y-53723428D01*
X63750619Y-53723431D01*
X63565676Y-53851559D01*
X63565664Y-53851569D01*
X63406569Y-54010664D01*
X63406559Y-54010676D01*
X63278431Y-54195619D01*
X63278428Y-54195625D01*
X63185377Y-54400480D01*
X63130400Y-54618667D01*
X63120000Y-54750803D01*
X61581480Y-54750803D01*
X61581514Y-54747197D01*
X61655905Y-46911386D01*
X65869500Y-46911386D01*
X65869500Y-48848613D01*
X65869501Y-48848652D01*
X65872295Y-48901243D01*
X65872295Y-48901244D01*
X65890644Y-48996116D01*
X65916755Y-49131126D01*
X65940126Y-49193054D01*
X65999425Y-49350189D01*
X66117929Y-49552131D01*
X66117934Y-49552138D01*
X66268856Y-49731141D01*
X66268858Y-49731143D01*
X66447861Y-49882065D01*
X66447868Y-49882070D01*
X66649810Y-50000574D01*
X66868874Y-50083245D01*
X67098759Y-50127705D01*
X67151378Y-50130500D01*
X67151386Y-50130500D01*
X69088614Y-50130500D01*
X69088622Y-50130500D01*
X69141241Y-50127705D01*
X69371126Y-50083245D01*
X69590190Y-50000574D01*
X69792132Y-49882070D01*
X69971142Y-49731142D01*
X70122070Y-49552132D01*
X70240574Y-49350190D01*
X70282164Y-49239984D01*
X86981500Y-49239984D01*
X86981500Y-52140015D01*
X86992000Y-52242795D01*
X86992001Y-52242796D01*
X87047186Y-52409335D01*
X87047187Y-52409337D01*
X87139286Y-52558651D01*
X87139289Y-52558655D01*
X87263344Y-52682710D01*
X87263348Y-52682713D01*
X87412662Y-52774812D01*
X87412664Y-52774813D01*
X87412666Y-52774814D01*
X87579203Y-52829999D01*
X87681992Y-52840500D01*
X87706921Y-52840500D01*
X87773960Y-52860185D01*
X87819715Y-52912989D01*
X87829659Y-52982147D01*
X87800634Y-53045703D01*
X87782407Y-53062876D01*
X87609263Y-53195733D01*
X87609256Y-53195739D01*
X87437739Y-53367256D01*
X87437733Y-53367263D01*
X87290067Y-53559706D01*
X87290064Y-53559710D01*
X87290064Y-53559711D01*
X87287010Y-53565000D01*
X87168777Y-53769785D01*
X87168773Y-53769794D01*
X87075947Y-53993895D01*
X87013161Y-54228214D01*
X86981500Y-54468711D01*
X86981500Y-55311288D01*
X87013161Y-55551785D01*
X87075947Y-55786104D01*
X87155278Y-55977625D01*
X87168776Y-56010212D01*
X87290064Y-56220289D01*
X87290066Y-56220292D01*
X87290067Y-56220293D01*
X87437733Y-56412736D01*
X87437739Y-56412743D01*
X87609256Y-56584260D01*
X87609262Y-56584265D01*
X87801711Y-56731936D01*
X88011788Y-56853224D01*
X88235900Y-56946054D01*
X88470211Y-57008838D01*
X88650586Y-57032584D01*
X88710711Y-57040500D01*
X88710712Y-57040500D01*
X88953289Y-57040500D01*
X89001388Y-57034167D01*
X89193789Y-57008838D01*
X89428100Y-56946054D01*
X89652212Y-56853224D01*
X89862289Y-56731936D01*
X90054738Y-56584265D01*
X90226265Y-56412738D01*
X90373936Y-56220289D01*
X90495224Y-56010212D01*
X90588054Y-55786100D01*
X90650838Y-55551789D01*
X90682500Y-55311288D01*
X90682500Y-54468712D01*
X90682500Y-54468711D01*
X91181500Y-54468711D01*
X91181500Y-55311288D01*
X91213161Y-55551785D01*
X91275947Y-55786104D01*
X91355278Y-55977625D01*
X91368776Y-56010212D01*
X91490064Y-56220289D01*
X91490066Y-56220292D01*
X91490067Y-56220293D01*
X91637733Y-56412736D01*
X91637739Y-56412743D01*
X91809256Y-56584260D01*
X91809262Y-56584265D01*
X92001711Y-56731936D01*
X92211788Y-56853224D01*
X92435900Y-56946054D01*
X92670211Y-57008838D01*
X92850586Y-57032584D01*
X92910711Y-57040500D01*
X92910712Y-57040500D01*
X93153289Y-57040500D01*
X93201388Y-57034167D01*
X93393789Y-57008838D01*
X93628100Y-56946054D01*
X93852212Y-56853224D01*
X93853490Y-56852486D01*
X99749500Y-56852486D01*
X99749500Y-57147513D01*
X99760297Y-57229519D01*
X99788007Y-57439993D01*
X99845045Y-57652862D01*
X99864361Y-57724951D01*
X99864364Y-57724961D01*
X99977254Y-57997500D01*
X99977258Y-57997510D01*
X100124761Y-58252993D01*
X100304352Y-58487040D01*
X100304358Y-58487047D01*
X100512952Y-58695641D01*
X100512959Y-58695647D01*
X100747006Y-58875238D01*
X101002489Y-59022741D01*
X101002490Y-59022741D01*
X101002493Y-59022743D01*
X101275048Y-59135639D01*
X101560007Y-59211993D01*
X101852494Y-59250500D01*
X101852501Y-59250500D01*
X102147499Y-59250500D01*
X102147506Y-59250500D01*
X102439993Y-59211993D01*
X102724952Y-59135639D01*
X102997507Y-59022743D01*
X103252994Y-58875238D01*
X103487042Y-58695646D01*
X103695646Y-58487042D01*
X103875238Y-58252994D01*
X104022743Y-57997507D01*
X104135639Y-57724952D01*
X104211993Y-57439993D01*
X104250500Y-57147506D01*
X104250500Y-56852494D01*
X104211993Y-56560007D01*
X104135639Y-56275048D01*
X104022743Y-56002493D01*
X103905335Y-55799135D01*
X107525500Y-55799135D01*
X107525500Y-59394870D01*
X107525501Y-59394876D01*
X107531908Y-59454483D01*
X107582202Y-59589328D01*
X107582206Y-59589335D01*
X107668452Y-59704544D01*
X107668455Y-59704547D01*
X107783664Y-59790793D01*
X107783671Y-59790797D01*
X107918517Y-59841091D01*
X107918516Y-59841091D01*
X107925444Y-59841835D01*
X107978127Y-59847500D01*
X111573872Y-59847499D01*
X111633483Y-59841091D01*
X111768331Y-59790796D01*
X111883546Y-59704546D01*
X111969796Y-59589331D01*
X112020091Y-59454483D01*
X112026500Y-59394873D01*
X112026499Y-56532803D01*
X113776000Y-56532803D01*
X113776000Y-57347000D01*
X115276000Y-57347000D01*
X115276000Y-57847000D01*
X113776001Y-57847000D01*
X113776001Y-58661197D01*
X113786400Y-58793332D01*
X113841377Y-59011519D01*
X113934428Y-59216374D01*
X113934431Y-59216380D01*
X114062559Y-59401323D01*
X114062569Y-59401335D01*
X114221664Y-59560430D01*
X114221676Y-59560440D01*
X114406619Y-59688568D01*
X114406625Y-59688571D01*
X114611480Y-59781622D01*
X114829667Y-59836599D01*
X114961810Y-59846999D01*
X115525999Y-59846999D01*
X115526000Y-59846998D01*
X115526000Y-59030012D01*
X115583007Y-59062925D01*
X115710174Y-59097000D01*
X115841826Y-59097000D01*
X115968993Y-59062925D01*
X116026000Y-59030012D01*
X116026000Y-59846999D01*
X116590182Y-59846999D01*
X116590197Y-59846998D01*
X116722332Y-59836599D01*
X116940519Y-59781622D01*
X117145374Y-59688571D01*
X117145380Y-59688568D01*
X117330323Y-59560440D01*
X117330335Y-59560430D01*
X117489430Y-59401335D01*
X117489440Y-59401323D01*
X117617568Y-59216380D01*
X117617571Y-59216374D01*
X117710622Y-59011519D01*
X117765599Y-58793332D01*
X117775999Y-58661196D01*
X117776000Y-58661184D01*
X117776000Y-57847000D01*
X116276000Y-57847000D01*
X116276000Y-57347000D01*
X117775999Y-57347000D01*
X117775999Y-56532817D01*
X117775998Y-56532802D01*
X117765599Y-56400667D01*
X117710622Y-56182480D01*
X117617571Y-55977625D01*
X117617568Y-55977619D01*
X117489440Y-55792676D01*
X117489430Y-55792664D01*
X117330335Y-55633569D01*
X117330323Y-55633559D01*
X117145380Y-55505431D01*
X117145374Y-55505428D01*
X116940519Y-55412377D01*
X116722332Y-55357400D01*
X116590196Y-55347000D01*
X116026000Y-55347000D01*
X116026000Y-56163988D01*
X115968993Y-56131075D01*
X115841826Y-56097000D01*
X115710174Y-56097000D01*
X115583007Y-56131075D01*
X115526000Y-56163988D01*
X115526000Y-55347000D01*
X114961817Y-55347000D01*
X114961802Y-55347001D01*
X114829667Y-55357400D01*
X114611480Y-55412377D01*
X114406625Y-55505428D01*
X114406619Y-55505431D01*
X114221676Y-55633559D01*
X114221664Y-55633569D01*
X114062569Y-55792664D01*
X114062559Y-55792676D01*
X113934431Y-55977619D01*
X113934428Y-55977625D01*
X113841377Y-56182480D01*
X113786400Y-56400667D01*
X113776000Y-56532803D01*
X112026499Y-56532803D01*
X112026499Y-55799128D01*
X112021299Y-55750757D01*
X112020091Y-55739516D01*
X111969797Y-55604671D01*
X111969793Y-55604664D01*
X111883547Y-55489455D01*
X111883544Y-55489452D01*
X111768335Y-55403206D01*
X111768328Y-55403202D01*
X111721061Y-55385573D01*
X111665127Y-55343702D01*
X111640710Y-55278238D01*
X111655562Y-55209965D01*
X111704967Y-55160559D01*
X111770972Y-55145566D01*
X111784053Y-55146261D01*
X111807349Y-55147499D01*
X111807369Y-55147499D01*
X111807378Y-55147500D01*
X111807386Y-55147500D01*
X113744614Y-55147500D01*
X113744622Y-55147500D01*
X113797241Y-55144705D01*
X114027126Y-55100245D01*
X114246190Y-55017574D01*
X114448132Y-54899070D01*
X114448138Y-54899065D01*
X114627141Y-54748143D01*
X114627143Y-54748141D01*
X114778065Y-54569138D01*
X114778065Y-54569137D01*
X114778070Y-54569132D01*
X114896574Y-54367190D01*
X114979245Y-54148126D01*
X115023705Y-53918241D01*
X115026500Y-53865622D01*
X115026500Y-51928378D01*
X115023705Y-51875759D01*
X114979245Y-51645874D01*
X114896574Y-51426810D01*
X114778070Y-51224868D01*
X114778065Y-51224861D01*
X114627143Y-51045858D01*
X114627141Y-51045856D01*
X114448138Y-50894934D01*
X114448131Y-50894929D01*
X114246189Y-50776425D01*
X114155832Y-50742326D01*
X114027126Y-50693755D01*
X114027121Y-50693754D01*
X113797243Y-50649295D01*
X113744652Y-50646501D01*
X113744629Y-50646500D01*
X113744622Y-50646500D01*
X111807378Y-50646500D01*
X111807370Y-50646500D01*
X111807347Y-50646501D01*
X111754756Y-50649295D01*
X111754755Y-50649295D01*
X111524878Y-50693754D01*
X111524876Y-50693754D01*
X111524874Y-50693755D01*
X111450933Y-50721659D01*
X111305810Y-50776425D01*
X111103868Y-50894929D01*
X111103861Y-50894934D01*
X110924858Y-51045856D01*
X110924856Y-51045858D01*
X110773934Y-51224861D01*
X110773929Y-51224868D01*
X110655425Y-51426810D01*
X110600659Y-51571933D01*
X110572755Y-51645874D01*
X110572754Y-51645876D01*
X110572754Y-51645878D01*
X110528295Y-51875755D01*
X110528295Y-51875756D01*
X110525501Y-51928347D01*
X110525500Y-51928386D01*
X110525500Y-53865613D01*
X110525501Y-53865652D01*
X110528295Y-53918243D01*
X110528295Y-53918244D01*
X110547420Y-54017128D01*
X110572755Y-54148126D01*
X110602978Y-54228211D01*
X110655425Y-54367189D01*
X110773929Y-54569131D01*
X110773934Y-54569138D01*
X110924856Y-54748141D01*
X110924858Y-54748143D01*
X111103861Y-54899065D01*
X111103868Y-54899070D01*
X111305810Y-55017574D01*
X111524874Y-55100245D01*
X111527517Y-55100756D01*
X111528537Y-55101282D01*
X111529950Y-55101683D01*
X111529868Y-55101970D01*
X111589598Y-55132814D01*
X111624493Y-55193346D01*
X111621122Y-55263134D01*
X111580556Y-55320021D01*
X111515674Y-55345946D01*
X111503969Y-55346500D01*
X107978129Y-55346500D01*
X107978123Y-55346501D01*
X107918516Y-55352908D01*
X107783671Y-55403202D01*
X107783664Y-55403206D01*
X107668455Y-55489452D01*
X107668452Y-55489455D01*
X107582206Y-55604664D01*
X107582202Y-55604671D01*
X107531908Y-55739517D01*
X107525501Y-55799116D01*
X107525501Y-55799123D01*
X107525500Y-55799135D01*
X103905335Y-55799135D01*
X103905324Y-55799116D01*
X103875241Y-55747010D01*
X103875240Y-55747008D01*
X103695647Y-55512959D01*
X103695641Y-55512952D01*
X103487047Y-55304358D01*
X103487040Y-55304352D01*
X103252993Y-55124761D01*
X102997510Y-54977258D01*
X102997500Y-54977254D01*
X102724961Y-54864364D01*
X102724954Y-54864362D01*
X102724952Y-54864361D01*
X102439993Y-54788007D01*
X102391113Y-54781571D01*
X102147513Y-54749500D01*
X102147506Y-54749500D01*
X101852494Y-54749500D01*
X101852486Y-54749500D01*
X101574085Y-54786153D01*
X101560007Y-54788007D01*
X101275048Y-54864361D01*
X101275038Y-54864364D01*
X101002499Y-54977254D01*
X101002489Y-54977258D01*
X100747006Y-55124761D01*
X100512959Y-55304352D01*
X100512952Y-55304358D01*
X100304358Y-55512952D01*
X100304352Y-55512959D01*
X100124761Y-55747006D01*
X99977258Y-56002489D01*
X99977254Y-56002499D01*
X99864364Y-56275038D01*
X99864361Y-56275048D01*
X99795293Y-56532817D01*
X99788008Y-56560004D01*
X99788006Y-56560015D01*
X99749500Y-56852486D01*
X93853490Y-56852486D01*
X94062289Y-56731936D01*
X94254738Y-56584265D01*
X94426265Y-56412738D01*
X94573936Y-56220289D01*
X94695224Y-56010212D01*
X94788054Y-55786100D01*
X94850838Y-55551789D01*
X94882500Y-55311288D01*
X94882500Y-54468712D01*
X94850838Y-54228211D01*
X94788054Y-53993900D01*
X94695224Y-53769788D01*
X94573936Y-53559711D01*
X94426265Y-53367262D01*
X94426260Y-53367256D01*
X94254743Y-53195739D01*
X94254736Y-53195733D01*
X94062293Y-53048067D01*
X94062292Y-53048066D01*
X94062289Y-53048064D01*
X93852212Y-52926776D01*
X93852200Y-52926770D01*
X93797927Y-52904290D01*
X93743523Y-52860449D01*
X93721458Y-52794155D01*
X93738737Y-52726456D01*
X93789874Y-52678845D01*
X93797927Y-52675168D01*
X93851978Y-52652779D01*
X93851993Y-52652772D01*
X94062009Y-52531519D01*
X94254405Y-52383889D01*
X94254412Y-52383883D01*
X94425883Y-52212412D01*
X94425889Y-52212405D01*
X94573519Y-52020009D01*
X94694772Y-51809993D01*
X94694779Y-51809978D01*
X94787578Y-51585939D01*
X94850346Y-51351687D01*
X94881998Y-51111264D01*
X94882000Y-51111248D01*
X94882000Y-50940000D01*
X93686121Y-50940000D01*
X93705099Y-50894182D01*
X93732000Y-50758944D01*
X93732000Y-50621056D01*
X93705099Y-50485818D01*
X93686121Y-50440000D01*
X94882000Y-50440000D01*
X94882000Y-50268751D01*
X94881998Y-50268735D01*
X94850346Y-50028312D01*
X94787578Y-49794060D01*
X94694779Y-49570021D01*
X94694772Y-49570006D01*
X94573519Y-49359990D01*
X94425889Y-49167594D01*
X94425883Y-49167587D01*
X94254412Y-48996116D01*
X94254405Y-48996110D01*
X94062009Y-48848480D01*
X93851993Y-48727227D01*
X93851978Y-48727220D01*
X93627939Y-48634421D01*
X93393687Y-48571653D01*
X93282000Y-48556948D01*
X93282000Y-50035879D01*
X93236182Y-50016901D01*
X93100944Y-49990000D01*
X92963056Y-49990000D01*
X92827818Y-50016901D01*
X92782000Y-50035879D01*
X92782000Y-48556948D01*
X92781999Y-48556948D01*
X92670312Y-48571653D01*
X92436060Y-48634421D01*
X92212021Y-48727220D01*
X92212006Y-48727227D01*
X92001990Y-48848480D01*
X91809594Y-48996110D01*
X91809587Y-48996116D01*
X91638116Y-49167587D01*
X91638110Y-49167594D01*
X91490480Y-49359990D01*
X91369227Y-49570006D01*
X91369220Y-49570021D01*
X91276421Y-49794060D01*
X91213653Y-50028312D01*
X91182001Y-50268735D01*
X91182000Y-50268751D01*
X91182000Y-50440000D01*
X92377879Y-50440000D01*
X92358901Y-50485818D01*
X92332000Y-50621056D01*
X92332000Y-50758944D01*
X92358901Y-50894182D01*
X92377879Y-50940000D01*
X91182000Y-50940000D01*
X91182000Y-51111248D01*
X91182001Y-51111264D01*
X91213653Y-51351687D01*
X91276421Y-51585939D01*
X91369220Y-51809978D01*
X91369227Y-51809993D01*
X91490480Y-52020009D01*
X91638110Y-52212405D01*
X91638116Y-52212412D01*
X91809587Y-52383883D01*
X91809594Y-52383889D01*
X92001990Y-52531519D01*
X92212006Y-52652772D01*
X92212016Y-52652777D01*
X92266073Y-52675168D01*
X92320476Y-52719009D01*
X92342541Y-52785303D01*
X92325262Y-52853003D01*
X92274124Y-52900613D01*
X92266073Y-52904290D01*
X92211794Y-52926772D01*
X92211785Y-52926777D01*
X92073792Y-53006448D01*
X92005801Y-53045703D01*
X92001706Y-53048067D01*
X91809263Y-53195733D01*
X91809256Y-53195739D01*
X91637739Y-53367256D01*
X91637733Y-53367263D01*
X91490067Y-53559706D01*
X91490064Y-53559710D01*
X91490064Y-53559711D01*
X91487010Y-53565000D01*
X91368777Y-53769785D01*
X91368773Y-53769794D01*
X91275947Y-53993895D01*
X91213161Y-54228214D01*
X91181500Y-54468711D01*
X90682500Y-54468711D01*
X90650838Y-54228211D01*
X90588054Y-53993900D01*
X90495224Y-53769788D01*
X90373936Y-53559711D01*
X90226265Y-53367262D01*
X90226260Y-53367256D01*
X90054743Y-53195739D01*
X90054736Y-53195733D01*
X89881593Y-53062876D01*
X89840390Y-53006448D01*
X89836235Y-52936702D01*
X89870447Y-52875782D01*
X89932164Y-52843029D01*
X89957079Y-52840500D01*
X89982003Y-52840500D01*
X89982008Y-52840500D01*
X90084797Y-52829999D01*
X90251334Y-52774814D01*
X90400655Y-52682711D01*
X90524711Y-52558655D01*
X90616814Y-52409334D01*
X90671999Y-52242797D01*
X90682500Y-52140008D01*
X90682500Y-49239992D01*
X90671999Y-49137203D01*
X90616814Y-48970666D01*
X90524711Y-48821345D01*
X90400655Y-48697289D01*
X90400651Y-48697286D01*
X90251337Y-48605187D01*
X90251335Y-48605186D01*
X90150138Y-48571653D01*
X90084797Y-48550001D01*
X90084795Y-48550000D01*
X89982015Y-48539500D01*
X89982008Y-48539500D01*
X87681992Y-48539500D01*
X87681984Y-48539500D01*
X87579204Y-48550000D01*
X87579203Y-48550001D01*
X87412664Y-48605186D01*
X87412662Y-48605187D01*
X87263348Y-48697286D01*
X87263344Y-48697289D01*
X87139289Y-48821344D01*
X87139286Y-48821348D01*
X87047187Y-48970662D01*
X87047186Y-48970664D01*
X86992001Y-49137203D01*
X86992000Y-49137204D01*
X86981500Y-49239984D01*
X70282164Y-49239984D01*
X70323245Y-49131126D01*
X70367705Y-48901241D01*
X70370500Y-48848622D01*
X70370500Y-46911378D01*
X70367705Y-46858759D01*
X70323245Y-46628874D01*
X70240574Y-46409810D01*
X70122070Y-46207868D01*
X70122065Y-46207861D01*
X69971143Y-46028858D01*
X69971141Y-46028856D01*
X69792138Y-45877934D01*
X69792131Y-45877929D01*
X69590189Y-45759425D01*
X69492513Y-45722564D01*
X69371126Y-45676755D01*
X69371121Y-45676754D01*
X69371116Y-45676752D01*
X69368470Y-45676240D01*
X69367451Y-45675713D01*
X69366050Y-45675317D01*
X69366130Y-45675031D01*
X69306392Y-45644177D01*
X69271503Y-45583641D01*
X69274881Y-45513853D01*
X69315452Y-45456970D01*
X69380337Y-45431052D01*
X69392009Y-45430499D01*
X72917872Y-45430499D01*
X72977483Y-45424091D01*
X73112331Y-45373796D01*
X73227546Y-45287546D01*
X73313796Y-45172331D01*
X73364091Y-45037483D01*
X73370500Y-44977873D01*
X73370499Y-43164135D01*
X107525500Y-43164135D01*
X107525500Y-46759870D01*
X107525501Y-46759876D01*
X107531908Y-46819483D01*
X107582202Y-46954328D01*
X107582206Y-46954335D01*
X107668452Y-47069544D01*
X107668455Y-47069547D01*
X107783664Y-47155793D01*
X107783671Y-47155797D01*
X107918517Y-47206091D01*
X107918516Y-47206091D01*
X107925444Y-47206835D01*
X107978127Y-47212500D01*
X111573872Y-47212499D01*
X111633483Y-47206091D01*
X111768331Y-47155796D01*
X111883546Y-47069546D01*
X111969796Y-46954331D01*
X112020091Y-46819483D01*
X112026500Y-46759873D01*
X112026499Y-43897803D01*
X113776000Y-43897803D01*
X113776000Y-44712000D01*
X115276000Y-44712000D01*
X115276000Y-45212000D01*
X113776001Y-45212000D01*
X113776001Y-46026197D01*
X113786400Y-46158332D01*
X113841377Y-46376519D01*
X113934428Y-46581374D01*
X113934431Y-46581380D01*
X114062559Y-46766323D01*
X114062569Y-46766335D01*
X114221664Y-46925430D01*
X114221676Y-46925440D01*
X114406619Y-47053568D01*
X114406625Y-47053571D01*
X114611480Y-47146622D01*
X114829667Y-47201599D01*
X114961810Y-47211999D01*
X115525999Y-47211999D01*
X115526000Y-47211998D01*
X115526000Y-46395012D01*
X115583007Y-46427925D01*
X115710174Y-46462000D01*
X115841826Y-46462000D01*
X115968993Y-46427925D01*
X116026000Y-46395012D01*
X116026000Y-47211999D01*
X116590182Y-47211999D01*
X116590197Y-47211998D01*
X116722332Y-47201599D01*
X116940519Y-47146622D01*
X117145374Y-47053571D01*
X117145380Y-47053568D01*
X117330323Y-46925440D01*
X117330335Y-46925430D01*
X117489430Y-46766335D01*
X117489440Y-46766323D01*
X117617568Y-46581380D01*
X117617571Y-46581374D01*
X117710622Y-46376519D01*
X117765599Y-46158332D01*
X117775999Y-46026196D01*
X117776000Y-46026184D01*
X117776000Y-45212000D01*
X116276000Y-45212000D01*
X116276000Y-44712000D01*
X117775999Y-44712000D01*
X117775999Y-43897817D01*
X117775998Y-43897802D01*
X117765599Y-43765667D01*
X117710622Y-43547480D01*
X117617571Y-43342625D01*
X117617568Y-43342619D01*
X117489440Y-43157676D01*
X117489430Y-43157664D01*
X117330335Y-42998569D01*
X117330323Y-42998559D01*
X117145380Y-42870431D01*
X117145374Y-42870428D01*
X116940519Y-42777377D01*
X116722332Y-42722400D01*
X116590196Y-42712000D01*
X116026000Y-42712000D01*
X116026000Y-43528988D01*
X115968993Y-43496075D01*
X115841826Y-43462000D01*
X115710174Y-43462000D01*
X115583007Y-43496075D01*
X115526000Y-43528988D01*
X115526000Y-42712000D01*
X114961817Y-42712000D01*
X114961802Y-42712001D01*
X114829667Y-42722400D01*
X114611480Y-42777377D01*
X114406625Y-42870428D01*
X114406619Y-42870431D01*
X114221676Y-42998559D01*
X114221664Y-42998569D01*
X114062569Y-43157664D01*
X114062559Y-43157676D01*
X113934431Y-43342619D01*
X113934428Y-43342625D01*
X113841377Y-43547480D01*
X113786400Y-43765667D01*
X113776000Y-43897803D01*
X112026499Y-43897803D01*
X112026499Y-43164128D01*
X112020091Y-43104517D01*
X111980571Y-42998559D01*
X111969797Y-42969671D01*
X111969793Y-42969664D01*
X111883547Y-42854455D01*
X111883544Y-42854452D01*
X111768335Y-42768206D01*
X111768328Y-42768202D01*
X111721061Y-42750573D01*
X111665127Y-42708702D01*
X111640710Y-42643238D01*
X111655562Y-42574965D01*
X111704967Y-42525559D01*
X111770972Y-42510566D01*
X111784053Y-42511261D01*
X111807349Y-42512499D01*
X111807369Y-42512499D01*
X111807378Y-42512500D01*
X111807386Y-42512500D01*
X113744614Y-42512500D01*
X113744622Y-42512500D01*
X113797241Y-42509705D01*
X114027126Y-42465245D01*
X114246190Y-42382574D01*
X114448132Y-42264070D01*
X114627142Y-42113142D01*
X114778070Y-41934132D01*
X114896574Y-41732190D01*
X114979245Y-41513126D01*
X115023705Y-41283241D01*
X115026500Y-41230622D01*
X115026500Y-39293378D01*
X115023705Y-39240759D01*
X114979245Y-39010874D01*
X114896574Y-38791810D01*
X114778070Y-38589868D01*
X114778065Y-38589861D01*
X114627143Y-38410858D01*
X114627141Y-38410856D01*
X114448138Y-38259934D01*
X114448131Y-38259929D01*
X114246189Y-38141425D01*
X114155832Y-38107326D01*
X114027126Y-38058755D01*
X114027121Y-38058754D01*
X113797243Y-38014295D01*
X113744652Y-38011501D01*
X113744629Y-38011500D01*
X113744622Y-38011500D01*
X111807378Y-38011500D01*
X111807370Y-38011500D01*
X111807347Y-38011501D01*
X111754756Y-38014295D01*
X111754755Y-38014295D01*
X111524878Y-38058754D01*
X111524876Y-38058754D01*
X111524874Y-38058755D01*
X111450933Y-38086659D01*
X111305810Y-38141425D01*
X111103868Y-38259929D01*
X111103861Y-38259934D01*
X110924858Y-38410856D01*
X110924856Y-38410858D01*
X110773934Y-38589861D01*
X110773929Y-38589868D01*
X110655425Y-38791810D01*
X110600659Y-38936933D01*
X110572755Y-39010874D01*
X110572754Y-39010876D01*
X110572754Y-39010878D01*
X110528295Y-39240755D01*
X110528295Y-39240756D01*
X110525501Y-39293347D01*
X110525500Y-39293386D01*
X110525500Y-41230613D01*
X110525501Y-41230652D01*
X110528295Y-41283243D01*
X110528295Y-41283244D01*
X110547420Y-41382128D01*
X110572755Y-41513126D01*
X110621326Y-41641832D01*
X110655425Y-41732189D01*
X110773929Y-41934131D01*
X110773934Y-41934138D01*
X110924856Y-42113141D01*
X110924858Y-42113143D01*
X111103861Y-42264065D01*
X111103868Y-42264070D01*
X111305810Y-42382574D01*
X111524874Y-42465245D01*
X111527517Y-42465756D01*
X111528537Y-42466282D01*
X111529950Y-42466683D01*
X111529868Y-42466970D01*
X111589598Y-42497814D01*
X111624493Y-42558346D01*
X111621122Y-42628134D01*
X111580556Y-42685021D01*
X111515674Y-42710946D01*
X111503969Y-42711500D01*
X107978129Y-42711500D01*
X107978123Y-42711501D01*
X107918516Y-42717908D01*
X107783671Y-42768202D01*
X107783664Y-42768206D01*
X107668455Y-42854452D01*
X107668452Y-42854455D01*
X107582206Y-42969664D01*
X107582202Y-42969671D01*
X107531908Y-43104517D01*
X107525501Y-43164116D01*
X107525501Y-43164123D01*
X107525500Y-43164135D01*
X73370499Y-43164135D01*
X73370499Y-41382128D01*
X73364091Y-41322517D01*
X73329816Y-41230622D01*
X73313797Y-41187671D01*
X73313793Y-41187664D01*
X73227547Y-41072455D01*
X73227544Y-41072452D01*
X73112335Y-40986206D01*
X73112328Y-40986202D01*
X72977482Y-40935908D01*
X72977483Y-40935908D01*
X72917883Y-40929501D01*
X72917881Y-40929500D01*
X72917873Y-40929500D01*
X72917864Y-40929500D01*
X69322129Y-40929500D01*
X69322123Y-40929501D01*
X69262516Y-40935908D01*
X69127671Y-40986202D01*
X69127664Y-40986206D01*
X69012455Y-41072452D01*
X69012452Y-41072455D01*
X68926206Y-41187664D01*
X68926202Y-41187671D01*
X68875908Y-41322517D01*
X68869501Y-41382116D01*
X68869501Y-41382123D01*
X68869500Y-41382135D01*
X68869500Y-44977870D01*
X68869501Y-44977876D01*
X68875908Y-45037483D01*
X68926202Y-45172328D01*
X68926206Y-45172335D01*
X69012452Y-45287544D01*
X69012455Y-45287547D01*
X69127664Y-45373793D01*
X69127673Y-45373798D01*
X69174937Y-45391426D01*
X69230871Y-45433296D01*
X69255289Y-45498760D01*
X69240438Y-45567033D01*
X69191033Y-45616439D01*
X69125028Y-45631433D01*
X69088657Y-45629501D01*
X69088628Y-45629500D01*
X69088622Y-45629500D01*
X67151378Y-45629500D01*
X67151370Y-45629500D01*
X67151347Y-45629501D01*
X67098756Y-45632295D01*
X67098755Y-45632295D01*
X66868878Y-45676754D01*
X66868876Y-45676754D01*
X66868874Y-45676755D01*
X66794933Y-45704659D01*
X66649810Y-45759425D01*
X66447868Y-45877929D01*
X66447861Y-45877934D01*
X66268858Y-46028856D01*
X66268856Y-46028858D01*
X66117934Y-46207861D01*
X66117929Y-46207868D01*
X65999425Y-46409810D01*
X65979730Y-46462000D01*
X65916755Y-46628874D01*
X65916754Y-46628876D01*
X65916754Y-46628878D01*
X65872295Y-46858755D01*
X65872295Y-46858756D01*
X65869501Y-46911347D01*
X65869500Y-46911386D01*
X61655905Y-46911386D01*
X61655932Y-46908556D01*
X61689455Y-43377461D01*
X61701433Y-42115803D01*
X63120000Y-42115803D01*
X63120000Y-42930000D01*
X64620000Y-42930000D01*
X64620000Y-43430000D01*
X63120001Y-43430000D01*
X63120001Y-44244197D01*
X63130400Y-44376332D01*
X63185377Y-44594519D01*
X63278428Y-44799374D01*
X63278431Y-44799380D01*
X63406559Y-44984323D01*
X63406569Y-44984335D01*
X63565664Y-45143430D01*
X63565676Y-45143440D01*
X63750619Y-45271568D01*
X63750625Y-45271571D01*
X63955480Y-45364622D01*
X64173667Y-45419599D01*
X64305810Y-45429999D01*
X64869999Y-45429999D01*
X64870000Y-45429998D01*
X64870000Y-44613012D01*
X64927007Y-44645925D01*
X65054174Y-44680000D01*
X65185826Y-44680000D01*
X65312993Y-44645925D01*
X65370000Y-44613012D01*
X65370000Y-45429999D01*
X65934182Y-45429999D01*
X65934197Y-45429998D01*
X66066332Y-45419599D01*
X66284519Y-45364622D01*
X66489374Y-45271571D01*
X66489380Y-45271568D01*
X66674323Y-45143440D01*
X66674335Y-45143430D01*
X66833430Y-44984335D01*
X66833440Y-44984323D01*
X66961568Y-44799380D01*
X66961571Y-44799374D01*
X67054622Y-44594519D01*
X67109599Y-44376332D01*
X67119999Y-44244196D01*
X67120000Y-44244184D01*
X67120000Y-43430000D01*
X65620000Y-43430000D01*
X65620000Y-42930000D01*
X67119999Y-42930000D01*
X67119999Y-42115817D01*
X67119998Y-42115802D01*
X67109599Y-41983667D01*
X67054622Y-41765480D01*
X66961571Y-41560625D01*
X66961568Y-41560619D01*
X66833440Y-41375676D01*
X66833430Y-41375664D01*
X66674335Y-41216569D01*
X66674323Y-41216559D01*
X66489380Y-41088431D01*
X66489374Y-41088428D01*
X66284519Y-40995377D01*
X66066332Y-40940400D01*
X65934196Y-40930000D01*
X65370000Y-40930000D01*
X65370000Y-41746988D01*
X65312993Y-41714075D01*
X65185826Y-41680000D01*
X65054174Y-41680000D01*
X64927007Y-41714075D01*
X64870000Y-41746988D01*
X64870000Y-40930000D01*
X64305817Y-40930000D01*
X64305802Y-40930001D01*
X64173667Y-40940400D01*
X63955480Y-40995377D01*
X63750625Y-41088428D01*
X63750619Y-41088431D01*
X63565676Y-41216559D01*
X63565664Y-41216569D01*
X63406569Y-41375664D01*
X63406559Y-41375676D01*
X63278431Y-41560619D01*
X63278428Y-41560625D01*
X63185377Y-41765480D01*
X63130400Y-41983667D01*
X63120000Y-42115803D01*
X61701433Y-42115803D01*
X61701467Y-42112197D01*
X61748108Y-37199323D01*
X61768428Y-37132473D01*
X61821664Y-37087222D01*
X61872102Y-37076500D01*
X119779500Y-37076500D01*
X119846539Y-37096185D01*
G37*
%TD.AperFunction*%
%TD*%
M02*
