G04 #@! TF.GenerationSoftware,KiCad,Pcbnew,9.0.4*
G04 #@! TF.CreationDate,2025-11-10T22:17:31+11:00*
G04 #@! TF.ProjectId,Jet Ranger Radio Controller,4a657420-5261-46e6-9765-722052616469,rev?*
G04 #@! TF.SameCoordinates,Original*
G04 #@! TF.FileFunction,Copper,L1,Top*
G04 #@! TF.FilePolarity,Positive*
%FSLAX46Y46*%
G04 Gerber Fmt 4.6, Leading zero omitted, Abs format (unit mm)*
G04 Created by KiCad (PCBNEW 9.0.4) date 2025-11-10 22:17:31*
%MOMM*%
%LPD*%
G01*
G04 APERTURE LIST*
G04 Aperture macros list*
%AMRoundRect*
0 Rectangle with rounded corners*
0 $1 Rounding radius*
0 $2 $3 $4 $5 $6 $7 $8 $9 X,Y pos of 4 corners*
0 Add a 4 corners polygon primitive as box body*
4,1,4,$2,$3,$4,$5,$6,$7,$8,$9,$2,$3,0*
0 Add four circle primitives for the rounded corners*
1,1,$1+$1,$2,$3*
1,1,$1+$1,$4,$5*
1,1,$1+$1,$6,$7*
1,1,$1+$1,$8,$9*
0 Add four rect primitives between the rounded corners*
20,1,$1+$1,$2,$3,$4,$5,0*
20,1,$1+$1,$4,$5,$6,$7,0*
20,1,$1+$1,$6,$7,$8,$9,0*
20,1,$1+$1,$8,$9,$2,$3,0*%
G04 Aperture macros list end*
G04 #@! TA.AperFunction,ComponentPad*
%ADD10R,1.700000X1.700000*%
G04 #@! TD*
G04 #@! TA.AperFunction,ComponentPad*
%ADD11C,1.700000*%
G04 #@! TD*
G04 #@! TA.AperFunction,ComponentPad*
%ADD12RoundRect,0.250000X-0.620000X-0.845000X0.620000X-0.845000X0.620000X0.845000X-0.620000X0.845000X0*%
G04 #@! TD*
G04 #@! TA.AperFunction,ComponentPad*
%ADD13O,1.740000X2.190000*%
G04 #@! TD*
G04 #@! TA.AperFunction,SMDPad,CuDef*
%ADD14RoundRect,0.250000X-0.625000X0.375000X-0.625000X-0.375000X0.625000X-0.375000X0.625000X0.375000X0*%
G04 #@! TD*
G04 #@! TA.AperFunction,ComponentPad*
%ADD15C,1.600000*%
G04 #@! TD*
G04 #@! TA.AperFunction,ComponentPad*
%ADD16O,1.700000X1.700000*%
G04 #@! TD*
G04 #@! TA.AperFunction,ComponentPad*
%ADD17R,2.400000X1.600000*%
G04 #@! TD*
G04 #@! TA.AperFunction,ComponentPad*
%ADD18O,2.400000X1.600000*%
G04 #@! TD*
G04 #@! TA.AperFunction,ComponentPad*
%ADD19R,1.800000X1.800000*%
G04 #@! TD*
G04 #@! TA.AperFunction,ComponentPad*
%ADD20C,1.800000*%
G04 #@! TD*
G04 #@! TA.AperFunction,ComponentPad*
%ADD21R,3.500000X3.500000*%
G04 #@! TD*
G04 #@! TA.AperFunction,ComponentPad*
%ADD22RoundRect,0.750000X0.750000X1.000000X-0.750000X1.000000X-0.750000X-1.000000X0.750000X-1.000000X0*%
G04 #@! TD*
G04 #@! TA.AperFunction,ComponentPad*
%ADD23RoundRect,0.875000X0.875000X0.875000X-0.875000X0.875000X-0.875000X-0.875000X0.875000X-0.875000X0*%
G04 #@! TD*
G04 #@! TA.AperFunction,ComponentPad*
%ADD24RoundRect,0.250000X0.550000X-0.550000X0.550000X0.550000X-0.550000X0.550000X-0.550000X-0.550000X0*%
G04 #@! TD*
G04 #@! TA.AperFunction,ComponentPad*
%ADD25RoundRect,0.250000X-0.550000X0.550000X-0.550000X-0.550000X0.550000X-0.550000X0.550000X0.550000X0*%
G04 #@! TD*
G04 #@! TA.AperFunction,ComponentPad*
%ADD26R,1.905000X2.000000*%
G04 #@! TD*
G04 #@! TA.AperFunction,ComponentPad*
%ADD27O,1.905000X2.000000*%
G04 #@! TD*
G04 #@! TA.AperFunction,ComponentPad*
%ADD28R,1.665000X1.665000*%
G04 #@! TD*
G04 #@! TA.AperFunction,ComponentPad*
%ADD29C,1.665000*%
G04 #@! TD*
G04 #@! TA.AperFunction,ComponentPad*
%ADD30RoundRect,0.250000X0.600000X-0.600000X0.600000X0.600000X-0.600000X0.600000X-0.600000X-0.600000X0*%
G04 #@! TD*
G04 #@! TA.AperFunction,ComponentPad*
%ADD31O,1.727200X1.727200*%
G04 #@! TD*
G04 #@! TA.AperFunction,ComponentPad*
%ADD32R,1.727200X1.727200*%
G04 #@! TD*
G04 #@! TA.AperFunction,ViaPad*
%ADD33C,0.600000*%
G04 #@! TD*
G04 #@! TA.AperFunction,Conductor*
%ADD34C,0.250000*%
G04 #@! TD*
G04 #@! TA.AperFunction,Conductor*
%ADD35C,1.000000*%
G04 #@! TD*
G04 APERTURE END LIST*
D10*
X104570000Y-129500000D03*
D11*
X102030000Y-129500000D03*
X99490000Y-129500000D03*
X96950000Y-129500000D03*
X94410000Y-129500000D03*
X91870000Y-129500000D03*
X89330000Y-129500000D03*
X86790000Y-129500000D03*
X84250000Y-129500000D03*
D12*
X71750000Y-121500000D03*
D13*
X74290000Y-121500000D03*
D10*
X83450000Y-54750000D03*
D11*
X80910000Y-54750000D03*
X78370000Y-54750000D03*
X75830000Y-54750000D03*
X73290000Y-54750000D03*
X70750000Y-54750000D03*
X68210000Y-54750000D03*
X65670000Y-54750000D03*
X63130000Y-54750000D03*
X60590000Y-54750000D03*
X58050000Y-54750000D03*
X55510000Y-54750000D03*
D10*
X32750000Y-66330000D03*
D11*
X32750000Y-63790000D03*
X32750000Y-61250000D03*
X32750000Y-58710000D03*
X32750000Y-56170000D03*
D10*
X33500000Y-88500000D03*
D11*
X33500000Y-85960000D03*
X33500000Y-83420000D03*
X33500000Y-80880000D03*
X33500000Y-78340000D03*
X33500000Y-75800000D03*
D10*
X33500000Y-103000000D03*
D11*
X33500000Y-105540000D03*
X33500000Y-108080000D03*
X33500000Y-110620000D03*
X33500000Y-113160000D03*
X33500000Y-115700000D03*
X33500000Y-118240000D03*
X33500000Y-120780000D03*
D10*
X39750000Y-105000000D03*
D11*
X39750000Y-107540000D03*
X39750000Y-110080000D03*
X39750000Y-112620000D03*
X39750000Y-115160000D03*
X39750000Y-117700000D03*
X39750000Y-120240000D03*
X39750000Y-122780000D03*
D14*
X110750000Y-103650000D03*
X110750000Y-106450000D03*
D15*
X70940000Y-51500000D03*
X70940000Y-49000000D03*
X50500000Y-82500000D03*
X47960000Y-82500000D03*
X71850000Y-90000000D03*
X71850000Y-85000000D03*
D10*
X63500000Y-41046400D03*
D16*
X60960000Y-41046400D03*
X58420000Y-41046400D03*
X55880000Y-41046400D03*
X53340000Y-41046400D03*
X50800000Y-41046400D03*
X48260000Y-41046400D03*
X45720000Y-41046400D03*
D17*
X45750000Y-104750000D03*
D18*
X45750000Y-107290000D03*
X45750000Y-109830000D03*
X45750000Y-112370000D03*
X45750000Y-114910000D03*
X45750000Y-117450000D03*
X45750000Y-119990000D03*
X45750000Y-122530000D03*
X45750000Y-125070000D03*
X45750000Y-127610000D03*
X45750000Y-130150000D03*
X45750000Y-132690000D03*
X53370000Y-132690000D03*
X53370000Y-130150000D03*
X53370000Y-127610000D03*
X53370000Y-125070000D03*
X53370000Y-122530000D03*
X53370000Y-119990000D03*
X53370000Y-117450000D03*
X53370000Y-114910000D03*
X53370000Y-112370000D03*
X53370000Y-109830000D03*
X53370000Y-107290000D03*
X53370000Y-104750000D03*
D10*
X117298000Y-50550000D03*
D16*
X117298000Y-48010000D03*
X117298000Y-45470000D03*
D10*
X86360000Y-41046400D03*
D16*
X83820000Y-41046400D03*
X81280000Y-41046400D03*
X78740000Y-41046400D03*
X76200000Y-41046400D03*
X73660000Y-41046400D03*
X71120000Y-41046400D03*
X68580000Y-41046400D03*
D15*
X51040000Y-72000000D03*
X48500000Y-72000000D03*
D19*
X113540000Y-80500000D03*
D20*
X111000000Y-80500000D03*
D15*
X61000000Y-117960000D03*
X61000000Y-120500000D03*
X118250000Y-84250000D03*
X120790000Y-84250000D03*
X51040000Y-66000000D03*
X48500000Y-66000000D03*
X124750000Y-87500000D03*
X124750000Y-84960000D03*
D10*
X37000000Y-45000000D03*
D16*
X39540000Y-45000000D03*
D21*
X118949000Y-118350000D03*
D22*
X124949000Y-118350000D03*
D23*
X121949000Y-113650000D03*
D10*
X96000000Y-67880000D03*
D11*
X96000000Y-70420000D03*
X96000000Y-72960000D03*
X96000000Y-75500000D03*
D24*
X85220000Y-90750000D03*
D15*
X87760000Y-90750000D03*
X90300000Y-90750000D03*
X92840000Y-90750000D03*
X95380000Y-90750000D03*
X97920000Y-90750000D03*
X100460000Y-90750000D03*
X103000000Y-90750000D03*
X103000000Y-83130000D03*
X100460000Y-83130000D03*
X97920000Y-83130000D03*
X95380000Y-83130000D03*
X92840000Y-83130000D03*
X90300000Y-83130000D03*
X87760000Y-83130000D03*
X85220000Y-83130000D03*
X73950000Y-51500000D03*
X73950000Y-49000000D03*
D19*
X127040000Y-96750000D03*
D20*
X124500000Y-96750000D03*
D15*
X59250000Y-85250000D03*
X59250000Y-88750000D03*
D19*
X125770000Y-80500000D03*
D20*
X123230000Y-80500000D03*
D25*
X104550000Y-116750000D03*
D15*
X102010000Y-116750000D03*
X99470000Y-116750000D03*
X96930000Y-116750000D03*
X94390000Y-116750000D03*
X91850000Y-116750000D03*
X89310000Y-116750000D03*
X86770000Y-116750000D03*
X84230000Y-116750000D03*
X84230000Y-124370000D03*
X86770000Y-124370000D03*
X89310000Y-124370000D03*
X91850000Y-124370000D03*
X94390000Y-124370000D03*
X96930000Y-124370000D03*
X99470000Y-124370000D03*
X102010000Y-124370000D03*
X104550000Y-124370000D03*
X51040000Y-69000000D03*
X48500000Y-69000000D03*
X51000000Y-75000000D03*
X48460000Y-75000000D03*
X124710000Y-92750000D03*
X127250000Y-92750000D03*
X117000000Y-80000000D03*
X119540000Y-80000000D03*
D10*
X68580000Y-98958400D03*
D16*
X66040000Y-98958400D03*
X63500000Y-98958400D03*
X60960000Y-98958400D03*
X58420000Y-98958400D03*
X55880000Y-98958400D03*
X53340000Y-98958400D03*
X50800000Y-98958400D03*
D15*
X51000000Y-50500000D03*
X48460000Y-50500000D03*
X94960000Y-61500000D03*
X97500000Y-61500000D03*
D26*
X88920000Y-56500000D03*
D27*
X91460000Y-56500000D03*
X94000000Y-56500000D03*
D28*
X121809000Y-55183300D03*
D29*
X119269000Y-55183300D03*
X116729000Y-55183300D03*
X114189000Y-55183300D03*
X111649000Y-55183300D03*
X109109000Y-55183300D03*
D28*
X121809000Y-75503300D03*
D29*
X119269000Y-75503300D03*
X116729000Y-75503300D03*
X114189000Y-75503300D03*
X111649000Y-75503300D03*
X109109000Y-75503300D03*
D19*
X113040000Y-90500000D03*
D20*
X110500000Y-90500000D03*
D15*
X111455000Y-85750000D03*
X113995000Y-85750000D03*
D10*
X109220000Y-41046400D03*
D16*
X106680000Y-41046400D03*
X104140000Y-41046400D03*
X101600000Y-41046400D03*
X99060000Y-41046400D03*
X96520000Y-41046400D03*
X93980000Y-41046400D03*
X91440000Y-41046400D03*
D15*
X51040000Y-60000000D03*
X48500000Y-60000000D03*
X95000000Y-51500000D03*
X95000000Y-49000000D03*
D10*
X115450000Y-125560000D03*
D16*
X115450000Y-128100000D03*
D15*
X61000000Y-126750000D03*
X61000000Y-124250000D03*
D10*
X90000000Y-70385000D03*
D11*
X90000000Y-72925000D03*
X90000000Y-75465000D03*
X90000000Y-78005000D03*
X57050000Y-77500000D03*
X59590000Y-77500000D03*
X62130000Y-77500000D03*
X64670000Y-77500000D03*
X67210000Y-77500000D03*
X69750000Y-77500000D03*
X72290000Y-77500000D03*
X74830000Y-77500000D03*
X77370000Y-77500000D03*
X79910000Y-77500000D03*
X82450000Y-77500000D03*
X84990000Y-77500000D03*
X84990000Y-59720000D03*
X82450000Y-59720000D03*
X79910000Y-59720000D03*
X77370000Y-59720000D03*
X74830000Y-59720000D03*
X72290000Y-59720000D03*
X69750000Y-59720000D03*
X67210000Y-59720000D03*
X64670000Y-59720000D03*
X62130000Y-59720000D03*
X59590000Y-59720000D03*
X57050000Y-59720000D03*
D15*
X110960000Y-50900000D03*
X113500000Y-50900000D03*
X51040000Y-63000000D03*
X48500000Y-63000000D03*
X89037500Y-61212500D03*
X91577500Y-61212500D03*
X51000000Y-78000000D03*
X48460000Y-78000000D03*
X105350000Y-48750000D03*
X107890000Y-48750000D03*
X91990000Y-51500000D03*
X91990000Y-49000000D03*
D19*
X121540000Y-89750000D03*
D20*
X119000000Y-89750000D03*
D15*
X68400000Y-90000000D03*
X68400000Y-85000000D03*
X75300000Y-90000000D03*
X75300000Y-85000000D03*
D21*
X120000000Y-106207500D03*
D22*
X126000000Y-106207500D03*
D23*
X123000000Y-101507500D03*
D10*
X95504000Y-98958400D03*
D16*
X98044000Y-98958400D03*
X100584000Y-98958400D03*
X103124000Y-98958400D03*
X105664000Y-98958400D03*
X108204000Y-98958400D03*
X110744000Y-98958400D03*
X113284000Y-98958400D03*
X115824000Y-98958400D03*
X118364000Y-98958400D03*
D30*
X66670000Y-110750000D03*
D11*
X66670000Y-108210000D03*
X69210000Y-110750000D03*
X69210000Y-108210000D03*
X71750000Y-110750000D03*
X71750000Y-108210000D03*
X74290000Y-110750000D03*
X74290000Y-108210000D03*
X76830000Y-110750000D03*
X76830000Y-108210000D03*
X79370000Y-110750000D03*
X79370000Y-108210000D03*
X81910000Y-110750000D03*
X81910000Y-108210000D03*
X84450000Y-110750000D03*
X84450000Y-108210000D03*
X86990000Y-110750000D03*
X86990000Y-108210000D03*
X89530000Y-110750000D03*
X89530000Y-108210000D03*
X92070000Y-110750000D03*
X92070000Y-108210000D03*
X94610000Y-110750000D03*
X94610000Y-108210000D03*
X97150000Y-110750000D03*
X97150000Y-108210000D03*
D15*
X78750000Y-90000000D03*
X78750000Y-85000000D03*
X51000000Y-57000000D03*
X48460000Y-57000000D03*
D10*
X40411400Y-98933000D03*
D16*
X42951400Y-98933000D03*
D10*
X73660000Y-98958400D03*
D16*
X76200000Y-98958400D03*
X78740000Y-98958400D03*
X81280000Y-98958400D03*
X83820000Y-98958400D03*
X86360000Y-98958400D03*
X88900000Y-98958400D03*
X91440000Y-98958400D03*
D31*
X109205000Y-46039300D03*
X101585000Y-46039300D03*
X99045000Y-46039300D03*
X43165000Y-94299300D03*
X40625000Y-94299300D03*
X86345000Y-46039300D03*
X83805000Y-46039300D03*
X81265000Y-46039300D03*
X78725000Y-46039300D03*
X76185000Y-46039300D03*
X73645000Y-46039300D03*
X71105000Y-46039300D03*
X68565000Y-46039300D03*
X63485000Y-46039300D03*
X60945000Y-46039300D03*
X58405000Y-46039300D03*
X55865000Y-46039300D03*
X53325000Y-46039300D03*
X50785000Y-46039300D03*
X48245000Y-46039300D03*
X45705000Y-46039300D03*
X113269000Y-94299300D03*
X73645000Y-94299300D03*
X76185000Y-94299300D03*
X78725000Y-94299300D03*
X81265000Y-94299300D03*
X83805000Y-94299300D03*
X86345000Y-94299300D03*
X88885000Y-94299300D03*
X91425000Y-94299300D03*
X95489000Y-94299300D03*
X98029000Y-94299300D03*
X100569000Y-94299300D03*
X103109000Y-94299300D03*
X105649000Y-94299300D03*
X108189000Y-94299300D03*
X68565000Y-94299300D03*
X66025000Y-94299300D03*
X63485000Y-94299300D03*
X60945000Y-94299300D03*
X58405000Y-94299300D03*
X55865000Y-94299300D03*
X53325000Y-94299300D03*
X50785000Y-94299300D03*
X43165000Y-91759300D03*
X40625000Y-91759300D03*
X43165000Y-89219300D03*
X40625000Y-89219300D03*
X43165000Y-86679300D03*
X40625000Y-86679300D03*
X43165000Y-84139300D03*
X40625000Y-84139300D03*
X43165000Y-81599300D03*
X40625000Y-81599300D03*
X43165000Y-79059300D03*
X40625000Y-79059300D03*
X43165000Y-76519300D03*
X40625000Y-76519300D03*
X43165000Y-73979300D03*
X40625000Y-73979300D03*
X43165000Y-71439300D03*
X40625000Y-71439300D03*
X43165000Y-68899300D03*
X40625000Y-68899300D03*
X43165000Y-66359300D03*
X40625000Y-66359300D03*
X43165000Y-63819300D03*
X40625000Y-63819300D03*
X43165000Y-61279300D03*
X40625000Y-61279300D03*
X43165000Y-58739300D03*
X40625000Y-58739300D03*
X43165000Y-56199300D03*
X40625000Y-56199300D03*
X43165000Y-53659300D03*
X40625000Y-53659300D03*
D32*
X110729000Y-94299300D03*
X96505000Y-46039300D03*
X93965000Y-46039300D03*
X43165000Y-51119300D03*
X40625000Y-51119300D03*
D31*
X106665000Y-46039300D03*
X104125000Y-46039300D03*
X118349000Y-94299300D03*
X115809000Y-94299300D03*
X91425000Y-46039300D03*
D15*
X50500000Y-87000000D03*
X47960000Y-87000000D03*
D33*
X46583100Y-74628200D03*
X49340000Y-83850300D03*
X73141100Y-91993700D03*
X88057600Y-109099200D03*
X75865700Y-100782900D03*
X41944700Y-102513500D03*
X74263100Y-80275900D03*
X104320600Y-108630200D03*
X101649400Y-63677000D03*
X42052000Y-103539000D03*
X42895000Y-104567600D03*
X38021900Y-101884700D03*
X90300000Y-86670400D03*
X81630100Y-79825700D03*
X80091400Y-78984200D03*
X58100000Y-87294300D03*
X43196000Y-123655600D03*
X51844900Y-113981100D03*
X90658200Y-68992700D03*
X64589400Y-64674400D03*
X98620900Y-57757200D03*
X106849600Y-64390100D03*
X51346100Y-49190100D03*
X54282700Y-101154600D03*
X91425200Y-80524200D03*
X86481300Y-77671800D03*
X64836200Y-80769100D03*
X83795000Y-68421100D03*
X104771000Y-92134200D03*
X109109000Y-65623200D03*
X83490000Y-51696400D03*
X107955200Y-79786300D03*
X77414200Y-96067000D03*
X76449100Y-80094000D03*
X112590400Y-81913100D03*
X69806600Y-88750000D03*
X77864800Y-87759200D03*
D34*
X44353700Y-72398800D02*
X46583100Y-74628200D01*
X44353700Y-71439300D02*
X44353700Y-72398800D01*
X43165000Y-71439300D02*
X44353700Y-71439300D01*
X73069100Y-91921700D02*
X73141100Y-91993700D01*
X60213200Y-91921700D02*
X73069100Y-91921700D01*
X52141800Y-83850300D02*
X60213200Y-91921700D01*
X49340000Y-83850300D02*
X52141800Y-83850300D01*
X88057600Y-109682400D02*
X88057600Y-109099200D01*
X86990000Y-110750000D02*
X88057600Y-109682400D01*
X68239900Y-100782900D02*
X75865700Y-100782900D01*
X67404800Y-99947800D02*
X68239900Y-100782900D01*
X67404800Y-98599100D02*
X67404800Y-99947800D01*
X66247800Y-97442100D02*
X67404800Y-98599100D01*
X64868500Y-97442100D02*
X66247800Y-97442100D01*
X62215000Y-94788600D02*
X64868500Y-97442100D01*
X62215000Y-93887000D02*
X62215000Y-94788600D01*
X60699900Y-92371900D02*
X62215000Y-93887000D01*
X58795600Y-92371900D02*
X60699900Y-92371900D01*
X51530000Y-85106300D02*
X58795600Y-92371900D01*
X48393600Y-85106300D02*
X51530000Y-85106300D01*
X43616500Y-80329200D02*
X48393600Y-85106300D01*
X42731700Y-80329200D02*
X43616500Y-80329200D01*
X41976200Y-79573700D02*
X42731700Y-80329200D01*
X41976200Y-78707300D02*
X41976200Y-79573700D01*
X41139400Y-77870500D02*
X41976200Y-78707300D01*
X40285100Y-77870500D02*
X41139400Y-77870500D01*
X39424800Y-77010200D02*
X40285100Y-77870500D01*
X39424800Y-70916700D02*
X39424800Y-77010200D01*
X40253500Y-70088000D02*
X39424800Y-70916700D01*
X40625000Y-70088000D02*
X40253500Y-70088000D01*
X40625000Y-68899300D02*
X40625000Y-70088000D01*
X42111100Y-102679900D02*
X41944700Y-102513500D01*
X53941200Y-102679900D02*
X42111100Y-102679900D01*
X56655800Y-105394500D02*
X53941200Y-102679900D01*
X76554500Y-105394500D02*
X56655800Y-105394500D01*
X79370000Y-108210000D02*
X76554500Y-105394500D01*
X40625000Y-66359300D02*
X40625000Y-67548000D01*
X80734300Y-104494300D02*
X84450000Y-108210000D01*
X57028800Y-104494300D02*
X80734300Y-104494300D01*
X54314200Y-101779700D02*
X57028800Y-104494300D01*
X54023800Y-101779700D02*
X54314200Y-101779700D01*
X53367200Y-101123100D02*
X54023800Y-101779700D01*
X49132400Y-101123100D02*
X53367200Y-101123100D01*
X44741800Y-96732500D02*
X49132400Y-101123100D01*
X39505600Y-96732500D02*
X44741800Y-96732500D01*
X32324800Y-89551700D02*
X39505600Y-96732500D01*
X32324800Y-75253900D02*
X32324800Y-89551700D01*
X40030700Y-67548000D02*
X32324800Y-75253900D01*
X40625000Y-67548000D02*
X40030700Y-67548000D01*
X43165000Y-68899300D02*
X44353700Y-68899300D01*
X45383600Y-67869400D02*
X44353700Y-68899300D01*
X49009500Y-67869400D02*
X45383600Y-67869400D01*
X49903100Y-68763000D02*
X49009500Y-67869400D01*
X49903100Y-69525700D02*
X49903100Y-68763000D01*
X50877400Y-70500000D02*
X49903100Y-69525700D01*
X54298500Y-70500000D02*
X50877400Y-70500000D01*
X60860000Y-77061500D02*
X54298500Y-70500000D01*
X60860000Y-77969300D02*
X60860000Y-77061500D01*
X63034700Y-80144000D02*
X60860000Y-77969300D01*
X74131200Y-80144000D02*
X63034700Y-80144000D01*
X74263100Y-80275900D02*
X74131200Y-80144000D01*
X95277600Y-57305200D02*
X95277600Y-56500000D01*
X101649400Y-63677000D02*
X95277600Y-57305200D01*
X94000000Y-56500000D02*
X95277600Y-56500000D01*
X103393000Y-108630200D02*
X104320600Y-108630200D01*
X95515200Y-116508000D02*
X103393000Y-108630200D01*
X95515200Y-117247500D02*
X95515200Y-116508000D01*
X94856500Y-117906200D02*
X95515200Y-117247500D01*
X88827000Y-117906200D02*
X94856500Y-117906200D01*
X88040000Y-117119200D02*
X88827000Y-117906200D01*
X88040000Y-116363300D02*
X88040000Y-117119200D01*
X86928700Y-115252000D02*
X88040000Y-116363300D01*
X79589500Y-115252000D02*
X86928700Y-115252000D01*
X75560000Y-111222500D02*
X79589500Y-115252000D01*
X75560000Y-110319000D02*
X75560000Y-111222500D01*
X74815800Y-109574800D02*
X75560000Y-110319000D01*
X73938300Y-109574800D02*
X74815800Y-109574800D01*
X72925200Y-108561700D02*
X73938300Y-109574800D01*
X72925200Y-107675500D02*
X72925200Y-108561700D01*
X72258400Y-107008700D02*
X72925200Y-107675500D01*
X67871300Y-107008700D02*
X72258400Y-107008700D01*
X66670000Y-108210000D02*
X67871300Y-107008700D01*
X54163700Y-103539000D02*
X42052000Y-103539000D01*
X56469400Y-105844700D02*
X54163700Y-103539000D01*
X76131200Y-105844700D02*
X56469400Y-105844700D01*
X78043000Y-107756500D02*
X76131200Y-105844700D01*
X78043000Y-109537000D02*
X78043000Y-107756500D01*
X76830000Y-110750000D02*
X78043000Y-109537000D01*
X44485100Y-106157700D02*
X42895000Y-104567600D01*
X56145800Y-106157700D02*
X44485100Y-106157700D01*
X56546600Y-106558500D02*
X56145800Y-106157700D01*
X75178500Y-106558500D02*
X56546600Y-106558500D01*
X76830000Y-108210000D02*
X75178500Y-106558500D01*
X53492200Y-101884700D02*
X38021900Y-101884700D01*
X53837300Y-102229800D02*
X53492200Y-101884700D01*
X54127700Y-102229800D02*
X53837300Y-102229800D01*
X56842300Y-104944400D02*
X54127700Y-102229800D01*
X77768500Y-104944400D02*
X56842300Y-104944400D01*
X80734800Y-107910700D02*
X77768500Y-104944400D01*
X80734800Y-108735700D02*
X80734800Y-107910700D01*
X81479100Y-109480000D02*
X80734800Y-108735700D01*
X83180000Y-109480000D02*
X81479100Y-109480000D01*
X84450000Y-110750000D02*
X83180000Y-109480000D01*
X79137500Y-89612500D02*
X78750000Y-90000000D01*
X86622500Y-89612500D02*
X79137500Y-89612500D01*
X87760000Y-90750000D02*
X86622500Y-89612500D01*
X76465500Y-88834500D02*
X75300000Y-90000000D01*
X90037400Y-88834500D02*
X76465500Y-88834500D01*
X91570000Y-90367100D02*
X90037400Y-88834500D01*
X91570000Y-91118300D02*
X91570000Y-90367100D01*
X92351400Y-91899700D02*
X91570000Y-91118300D01*
X96770300Y-91899700D02*
X92351400Y-91899700D01*
X97920000Y-90750000D02*
X96770300Y-91899700D01*
X90474300Y-88384300D02*
X92840000Y-90750000D01*
X73465700Y-88384300D02*
X90474300Y-88384300D01*
X71850000Y-90000000D02*
X73465700Y-88384300D01*
X72980000Y-83870000D02*
X71850000Y-85000000D01*
X75795100Y-83870000D02*
X72980000Y-83870000D01*
X76724400Y-84799300D02*
X75795100Y-83870000D01*
X76724400Y-85966900D02*
X76724400Y-84799300D01*
X77891600Y-87134100D02*
X76724400Y-85966900D01*
X78123800Y-87134100D02*
X77891600Y-87134100D01*
X78286700Y-87297000D02*
X78123800Y-87134100D01*
X91927000Y-87297000D02*
X78286700Y-87297000D01*
X95380000Y-90750000D02*
X91927000Y-87297000D01*
X69525200Y-91125200D02*
X68400000Y-90000000D01*
X84844800Y-91125200D02*
X69525200Y-91125200D01*
X85220000Y-90750000D02*
X84844800Y-91125200D01*
X78115700Y-86670400D02*
X90300000Y-86670400D01*
X77174600Y-85729300D02*
X78115700Y-86670400D01*
X77174600Y-84612800D02*
X77174600Y-85729300D01*
X75981600Y-83419800D02*
X77174600Y-84612800D01*
X69980200Y-83419800D02*
X75981600Y-83419800D01*
X68400000Y-85000000D02*
X69980200Y-83419800D01*
X40625000Y-91759300D02*
X41813700Y-91759300D01*
X93340000Y-109480000D02*
X94610000Y-110750000D01*
X91639100Y-109480000D02*
X93340000Y-109480000D01*
X90894800Y-108735700D02*
X91639100Y-109480000D01*
X90894800Y-107908200D02*
X90894800Y-108735700D01*
X86355700Y-103369100D02*
X90894800Y-107908200D01*
X57822000Y-103369100D02*
X86355700Y-103369100D01*
X54606600Y-100153700D02*
X57822000Y-103369100D01*
X52866600Y-100153700D02*
X54606600Y-100153700D01*
X52070000Y-99357100D02*
X52866600Y-100153700D01*
X52070000Y-98563800D02*
X52070000Y-99357100D01*
X50890100Y-97383900D02*
X52070000Y-98563800D01*
X49148300Y-97383900D02*
X50890100Y-97383900D01*
X44712400Y-92948000D02*
X49148300Y-97383900D01*
X42630800Y-92948000D02*
X44712400Y-92948000D01*
X41813700Y-92130900D02*
X42630800Y-92948000D01*
X41813700Y-91759300D02*
X41813700Y-92130900D01*
X87808000Y-101408000D02*
X94610000Y-108210000D01*
X66817800Y-101408000D02*
X87808000Y-101408000D01*
X64770000Y-99360200D02*
X66817800Y-101408000D01*
X64770000Y-98548900D02*
X64770000Y-99360200D01*
X62734200Y-96513100D02*
X64770000Y-98548900D01*
X61414800Y-96513100D02*
X62734200Y-96513100D01*
X59675000Y-94773300D02*
X61414800Y-96513100D01*
X59675000Y-93888100D02*
X59675000Y-94773300D01*
X55006200Y-89219300D02*
X59675000Y-93888100D01*
X43165000Y-89219300D02*
X55006200Y-89219300D01*
X43165000Y-91759300D02*
X44353700Y-91759300D01*
X86779000Y-102919000D02*
X92070000Y-108210000D01*
X58093300Y-102919000D02*
X86779000Y-102919000D01*
X54610000Y-99435700D02*
X58093300Y-102919000D01*
X54610000Y-98538200D02*
X54610000Y-99435700D01*
X52735200Y-96663400D02*
X54610000Y-98538200D01*
X49257800Y-96663400D02*
X52735200Y-96663400D01*
X44353700Y-91759300D02*
X49257800Y-96663400D01*
X71450600Y-79200600D02*
X69750000Y-77500000D01*
X76439800Y-79200600D02*
X71450600Y-79200600D01*
X77064900Y-79825700D02*
X76439800Y-79200600D01*
X81630100Y-79825700D02*
X77064900Y-79825700D01*
X93750000Y-50250000D02*
X95000000Y-51500000D01*
X88832900Y-50250000D02*
X93750000Y-50250000D01*
X84993700Y-46410800D02*
X88832900Y-50250000D01*
X84993700Y-46039300D02*
X84993700Y-46410800D01*
X83805000Y-46039300D02*
X84993700Y-46039300D01*
X73540400Y-78750400D02*
X72290000Y-77500000D01*
X79857600Y-78750400D02*
X73540400Y-78750400D01*
X80091400Y-78984200D02*
X79857600Y-78750400D01*
X96794800Y-82004800D02*
X97920000Y-83130000D01*
X87220500Y-82004800D02*
X96794800Y-82004800D01*
X86490000Y-82735300D02*
X87220500Y-82004800D01*
X86490000Y-83451300D02*
X86490000Y-82735300D01*
X85666100Y-84275200D02*
X86490000Y-83451300D01*
X79895200Y-84275200D02*
X85666100Y-84275200D01*
X78139600Y-82519600D02*
X79895200Y-84275200D01*
X60336100Y-82519600D02*
X78139600Y-82519600D01*
X58100000Y-84755700D02*
X60336100Y-82519600D01*
X58100000Y-87294300D02*
X58100000Y-84755700D01*
X79910000Y-58830000D02*
X75830000Y-54750000D01*
X79910000Y-59720000D02*
X79910000Y-58830000D01*
X80910000Y-55640000D02*
X80910000Y-54750000D01*
X84990000Y-59720000D02*
X80910000Y-55640000D01*
X58855700Y-54750000D02*
X58050000Y-54750000D01*
X63305200Y-59199500D02*
X58855700Y-54750000D01*
X63305200Y-60032900D02*
X63305200Y-59199500D01*
X74832500Y-71560200D02*
X63305200Y-60032900D01*
X92323300Y-71560200D02*
X74832500Y-71560200D01*
X94648700Y-69234800D02*
X92323300Y-71560200D01*
X96476700Y-69234800D02*
X94648700Y-69234800D01*
X97198300Y-69956400D02*
X96476700Y-69234800D01*
X97198300Y-71761700D02*
X97198300Y-69956400D01*
X96000000Y-72960000D02*
X97198300Y-71761700D01*
X55510000Y-55640000D02*
X59590000Y-59720000D01*
X55510000Y-54750000D02*
X55510000Y-55640000D01*
X63865800Y-63995800D02*
X59590000Y-59720000D01*
X64848400Y-63995800D02*
X63865800Y-63995800D01*
X75138900Y-74286300D02*
X64848400Y-63995800D01*
X94786300Y-74286300D02*
X75138900Y-74286300D01*
X96000000Y-75500000D02*
X94786300Y-74286300D01*
X32321900Y-111981900D02*
X33500000Y-113160000D01*
X32321900Y-107506600D02*
X32321900Y-111981900D01*
X32931800Y-106896700D02*
X32321900Y-107506600D01*
X35151200Y-106896700D02*
X32931800Y-106896700D01*
X37088900Y-108834400D02*
X35151200Y-106896700D01*
X43229300Y-108834400D02*
X37088900Y-108834400D01*
X44224900Y-109830000D02*
X43229300Y-108834400D01*
X45750000Y-109830000D02*
X44224900Y-109830000D01*
X53370000Y-122530000D02*
X51844900Y-122530000D01*
X50719300Y-123655600D02*
X43196000Y-123655600D01*
X51844900Y-122530000D02*
X50719300Y-123655600D01*
X51844900Y-115975900D02*
X51844900Y-113981100D01*
X46560800Y-121260000D02*
X51844900Y-115975900D01*
X41270000Y-121260000D02*
X46560800Y-121260000D01*
X39750000Y-122780000D02*
X41270000Y-121260000D01*
X72190000Y-50250000D02*
X70940000Y-51500000D01*
X74338700Y-50250000D02*
X72190000Y-50250000D01*
X77455000Y-47133700D02*
X74338700Y-50250000D01*
X77455000Y-45616000D02*
X77455000Y-47133700D01*
X78235000Y-44836000D02*
X77455000Y-45616000D01*
X79211400Y-44836000D02*
X78235000Y-44836000D01*
X80076300Y-45700900D02*
X79211400Y-44836000D01*
X80076300Y-46039300D02*
X80076300Y-45700900D01*
X81265000Y-46039300D02*
X80076300Y-46039300D01*
X78222000Y-47228000D02*
X73950000Y-51500000D01*
X78725000Y-47228000D02*
X78222000Y-47228000D01*
X78725000Y-46039300D02*
X78725000Y-47228000D01*
X35411200Y-85331200D02*
X33500000Y-83420000D01*
X41155900Y-85331200D02*
X35411200Y-85331200D01*
X41976300Y-84510800D02*
X41155900Y-85331200D01*
X41976300Y-84139300D02*
X41976300Y-84510800D01*
X43165000Y-84139300D02*
X41976300Y-84139300D01*
X37970000Y-82810000D02*
X33500000Y-78340000D01*
X41137100Y-82810000D02*
X37970000Y-82810000D01*
X41976300Y-81970800D02*
X41137100Y-82810000D01*
X41976300Y-81599300D02*
X41976300Y-81970800D01*
X43165000Y-81599300D02*
X41976300Y-81599300D01*
X35307100Y-87868000D02*
X34675100Y-88500000D01*
X41159200Y-87868000D02*
X35307100Y-87868000D01*
X41976300Y-87050900D02*
X41159200Y-87868000D01*
X41976300Y-86679300D02*
X41976300Y-87050900D01*
X43165000Y-86679300D02*
X41976300Y-86679300D01*
X33500000Y-88500000D02*
X34675100Y-88500000D01*
X64670000Y-58830000D02*
X60590000Y-54750000D01*
X64670000Y-59720000D02*
X64670000Y-58830000D01*
X90604700Y-69046200D02*
X90658200Y-68992700D01*
X73996200Y-69046200D02*
X90604700Y-69046200D01*
X64670000Y-59720000D02*
X73996200Y-69046200D01*
X45750000Y-107290000D02*
X44224900Y-107290000D01*
X39934900Y-103000000D02*
X44224900Y-107290000D01*
X33500000Y-103000000D02*
X39934900Y-103000000D01*
X89271500Y-74736500D02*
X90000000Y-75465000D01*
X74651500Y-74736500D02*
X89271500Y-74736500D01*
X64589400Y-64674400D02*
X74651500Y-74736500D01*
X74830000Y-58830000D02*
X70750000Y-54750000D01*
X74830000Y-59720000D02*
X74830000Y-58830000D01*
X36759300Y-84139300D02*
X33500000Y-80880000D01*
X40625000Y-84139300D02*
X36759300Y-84139300D01*
X105253800Y-64390100D02*
X106849600Y-64390100D01*
X98620900Y-57757200D02*
X105253800Y-64390100D01*
X34219300Y-86679300D02*
X33500000Y-85960000D01*
X40625000Y-86679300D02*
X34219300Y-86679300D01*
X119757500Y-106450000D02*
X120000000Y-106207500D01*
X118940000Y-106450000D02*
X119757500Y-106450000D01*
X45750000Y-122530000D02*
X44224900Y-122530000D01*
X41663800Y-122530000D02*
X44224900Y-122530000D01*
X40234700Y-123959100D02*
X41663800Y-122530000D01*
X36679100Y-123959100D02*
X40234700Y-123959100D01*
X33500000Y-120780000D02*
X36679100Y-123959100D01*
X41270000Y-113640000D02*
X39750000Y-115160000D01*
X50574900Y-113640000D02*
X41270000Y-113640000D01*
X51844900Y-112370000D02*
X50574900Y-113640000D01*
X53370000Y-112370000D02*
X51844900Y-112370000D01*
X31866800Y-117333200D02*
X33500000Y-115700000D01*
X31866800Y-120808700D02*
X31866800Y-117333200D01*
X38668100Y-127610000D02*
X31866800Y-120808700D01*
X45750000Y-127610000D02*
X38668100Y-127610000D01*
X34151400Y-118891400D02*
X33500000Y-118240000D01*
X43392900Y-118891400D02*
X34151400Y-118891400D01*
X43564300Y-118720000D02*
X43392900Y-118891400D01*
X46478600Y-118720000D02*
X43564300Y-118720000D01*
X47275100Y-117923500D02*
X46478600Y-118720000D01*
X47275100Y-114910000D02*
X47275100Y-117923500D01*
X45750000Y-114910000D02*
X47275100Y-114910000D01*
X69750000Y-58830000D02*
X65670000Y-54750000D01*
X69750000Y-59720000D02*
X69750000Y-58830000D01*
X43229300Y-116454400D02*
X44224900Y-117450000D01*
X39373600Y-116454400D02*
X43229300Y-116454400D01*
X37681800Y-114762600D02*
X39373600Y-116454400D01*
X37681800Y-112261800D02*
X37681800Y-114762600D01*
X33500000Y-108080000D02*
X37681800Y-112261800D01*
X45750000Y-117450000D02*
X44224900Y-117450000D01*
X34684600Y-111804600D02*
X33500000Y-110620000D01*
X34684600Y-116189100D02*
X34684600Y-111804600D01*
X33903700Y-116970000D02*
X34684600Y-116189100D01*
X33103400Y-116970000D02*
X33903700Y-116970000D01*
X32317000Y-117756400D02*
X33103400Y-116970000D01*
X32317000Y-118787100D02*
X32317000Y-117756400D01*
X33039900Y-119510000D02*
X32317000Y-118787100D01*
X34133300Y-119510000D02*
X33039900Y-119510000D01*
X36050400Y-121427100D02*
X34133300Y-119510000D01*
X40466200Y-121427100D02*
X36050400Y-121427100D01*
X41903300Y-119990000D02*
X40466200Y-121427100D01*
X45750000Y-119990000D02*
X41903300Y-119990000D01*
X53370000Y-107290000D02*
X51844900Y-107290000D01*
X41204100Y-111165900D02*
X39750000Y-112620000D01*
X47969000Y-111165900D02*
X41204100Y-111165900D01*
X51844900Y-107290000D02*
X47969000Y-111165900D01*
X40625000Y-76519300D02*
X41813700Y-76519300D01*
X48139600Y-75320400D02*
X48460000Y-75000000D01*
X42641100Y-75320400D02*
X48139600Y-75320400D01*
X41813700Y-76147800D02*
X42641100Y-75320400D01*
X41813700Y-76519300D02*
X41813700Y-76147800D01*
X36532400Y-59952400D02*
X32750000Y-56170000D01*
X41134700Y-59952400D02*
X36532400Y-59952400D01*
X41976300Y-59110800D02*
X41134700Y-59952400D01*
X41976300Y-58739300D02*
X41976300Y-59110800D01*
X43165000Y-58739300D02*
X41976300Y-58739300D01*
X33637000Y-75800000D02*
X33500000Y-75800000D01*
X39436300Y-81599300D02*
X33637000Y-75800000D01*
X40625000Y-81599300D02*
X39436300Y-81599300D01*
X60945000Y-46039300D02*
X59756300Y-46039300D01*
X56977000Y-49190100D02*
X51346100Y-49190100D01*
X59756300Y-46410800D02*
X56977000Y-49190100D01*
X59756300Y-46039300D02*
X59756300Y-46410800D01*
X91287400Y-116750000D02*
X91850000Y-116750000D01*
X85720000Y-111182600D02*
X91287400Y-116750000D01*
X85720000Y-107773800D02*
X85720000Y-111182600D01*
X81765500Y-103819300D02*
X85720000Y-107773800D01*
X57087800Y-103819300D02*
X81765500Y-103819300D01*
X54423100Y-101154600D02*
X57087800Y-103819300D01*
X54282700Y-101154600D02*
X54423100Y-101154600D01*
X32779300Y-63819300D02*
X32750000Y-63790000D01*
X40625000Y-63819300D02*
X32779300Y-63819300D01*
X43165000Y-79059300D02*
X44353700Y-79059300D01*
X84265600Y-80524200D02*
X91425200Y-80524200D01*
X83395500Y-81394300D02*
X84265600Y-80524200D01*
X59030700Y-81394300D02*
X83395500Y-81394300D01*
X53991600Y-76355200D02*
X59030700Y-81394300D01*
X49637200Y-76355200D02*
X53991600Y-76355200D01*
X49637200Y-70137200D02*
X49637200Y-76355200D01*
X48500000Y-69000000D02*
X49637200Y-70137200D01*
X47057800Y-76355200D02*
X44353700Y-79059300D01*
X49637200Y-76355200D02*
X47057800Y-76355200D01*
X94672500Y-61212500D02*
X94960000Y-61500000D01*
X91577500Y-61212500D02*
X94672500Y-61212500D01*
X113592400Y-42939500D02*
X116122900Y-45470000D01*
X46603500Y-42939500D02*
X113592400Y-42939500D01*
X38974700Y-50568300D02*
X46603500Y-42939500D01*
X38974700Y-56271800D02*
X38974700Y-50568300D01*
X40253500Y-57550600D02*
X38974700Y-56271800D01*
X40625000Y-57550600D02*
X40253500Y-57550600D01*
X40625000Y-58739300D02*
X40625000Y-57550600D01*
X117298000Y-45470000D02*
X116122900Y-45470000D01*
X119269000Y-75503300D02*
X116729000Y-75503300D01*
X109105700Y-67880000D02*
X96000000Y-67880000D01*
X116729000Y-75503300D02*
X109105700Y-67880000D01*
X93680100Y-67880000D02*
X96000000Y-67880000D01*
X91175100Y-70385000D02*
X93680100Y-67880000D01*
X90000000Y-70385000D02*
X91175100Y-70385000D01*
X108448400Y-50900000D02*
X110960000Y-50900000D01*
X106620000Y-49071600D02*
X108448400Y-50900000D01*
X106620000Y-48425900D02*
X106620000Y-49071600D01*
X105422100Y-47228000D02*
X106620000Y-48425900D01*
X103590800Y-47228000D02*
X105422100Y-47228000D01*
X102773700Y-46410900D02*
X103590800Y-47228000D01*
X102773700Y-46039300D02*
X102773700Y-46410900D01*
X101585000Y-46039300D02*
X102773700Y-46039300D01*
X65011300Y-80944200D02*
X64836200Y-80769100D01*
X83208900Y-80944200D02*
X65011300Y-80944200D01*
X86481300Y-77671800D02*
X83208900Y-80944200D01*
X60319100Y-80769100D02*
X57050000Y-77500000D01*
X64836200Y-80769100D02*
X60319100Y-80769100D01*
X88582500Y-63633600D02*
X83795000Y-68421100D01*
X95366400Y-63633600D02*
X88582500Y-63633600D01*
X97500000Y-61500000D02*
X95366400Y-63633600D01*
X63485000Y-46039300D02*
X64673700Y-46039300D01*
X104445700Y-106694300D02*
X94390000Y-116750000D01*
X104445700Y-98511800D02*
X104445700Y-106694300D01*
X105564200Y-97393300D02*
X104445700Y-98511800D01*
X115083900Y-97393300D02*
X105564200Y-97393300D01*
X116488400Y-95988800D02*
X115083900Y-97393300D01*
X118357400Y-95988800D02*
X116488400Y-95988800D01*
X123612200Y-90734000D02*
X118357400Y-95988800D01*
X123612200Y-86982800D02*
X123612200Y-90734000D01*
X124365000Y-86230000D02*
X123612200Y-86982800D01*
X125150000Y-86230000D02*
X124365000Y-86230000D01*
X125947600Y-85432400D02*
X125150000Y-86230000D01*
X125947600Y-83468900D02*
X125947600Y-85432400D01*
X124544800Y-82066100D02*
X125947600Y-83468900D01*
X124544800Y-53578800D02*
X124544800Y-82066100D01*
X117706000Y-46740000D02*
X124544800Y-53578800D01*
X112380600Y-46740000D02*
X117706000Y-46740000D01*
X109030300Y-43389700D02*
X112380600Y-46740000D01*
X67323300Y-43389700D02*
X109030300Y-43389700D01*
X64673700Y-46039300D02*
X67323300Y-43389700D01*
X102734100Y-92134200D02*
X104771000Y-92134200D01*
X100569000Y-94299300D02*
X102734100Y-92134200D01*
X112580200Y-84419800D02*
X117000000Y-80000000D01*
X112580200Y-86289600D02*
X112580200Y-84419800D01*
X110433400Y-88436400D02*
X112580200Y-86289600D01*
X101140300Y-88436400D02*
X110433400Y-88436400D01*
X99190000Y-90386700D02*
X101140300Y-88436400D01*
X99190000Y-91148800D02*
X99190000Y-90386700D01*
X97688400Y-92650400D02*
X99190000Y-91148800D01*
X68491100Y-92650400D02*
X97688400Y-92650400D01*
X67213700Y-93927800D02*
X68491100Y-92650400D01*
X67213700Y-94299300D02*
X67213700Y-93927800D01*
X66025000Y-94299300D02*
X67213700Y-94299300D01*
X68580000Y-98958400D02*
X68580000Y-97783300D01*
X68565000Y-94299300D02*
X68565000Y-95375400D01*
X68580000Y-95488100D02*
X68580000Y-97783300D01*
X68565000Y-95473100D02*
X68580000Y-95488100D01*
X68565000Y-95375400D02*
X68565000Y-95473100D01*
X114425000Y-88075000D02*
X118250000Y-84250000D01*
X113163300Y-88075000D02*
X114425000Y-88075000D01*
X111814800Y-89423500D02*
X113163300Y-88075000D01*
X111814800Y-90957600D02*
X111814800Y-89423500D01*
X109661900Y-93110500D02*
X111814800Y-90957600D01*
X102615300Y-93110500D02*
X109661900Y-93110500D01*
X101839000Y-93886800D02*
X102615300Y-93110500D01*
X101839000Y-94750100D02*
X101839000Y-93886800D01*
X101065900Y-95523200D02*
X101839000Y-94750100D01*
X77779400Y-95523200D02*
X101065900Y-95523200D01*
X77680700Y-95424500D02*
X77779400Y-95523200D01*
X76741000Y-95424500D02*
X77680700Y-95424500D01*
X76677400Y-95488100D02*
X76741000Y-95424500D01*
X68580000Y-95488100D02*
X76677400Y-95488100D01*
X114193000Y-52647300D02*
X116729000Y-55183300D01*
X64970300Y-52647300D02*
X114193000Y-52647300D01*
X64789600Y-52466600D02*
X64970300Y-52647300D01*
X40086700Y-52466600D02*
X64789600Y-52466600D01*
X39432200Y-53121100D02*
X40086700Y-52466600D01*
X39432200Y-55006500D02*
X39432200Y-53121100D01*
X40625000Y-56199300D02*
X39432200Y-55006500D01*
X107890000Y-48424300D02*
X107890000Y-48750000D01*
X107336700Y-48424300D02*
X107890000Y-48424300D01*
X105313700Y-46401300D02*
X107336700Y-48424300D01*
X105313700Y-46039300D02*
X105313700Y-46401300D01*
X115708600Y-48424300D02*
X116122900Y-48010000D01*
X107890000Y-48424300D02*
X115708600Y-48424300D01*
X104125000Y-46039300D02*
X105313700Y-46039300D01*
X117298000Y-48010000D02*
X116122900Y-48010000D01*
X43165000Y-56199300D02*
X44353700Y-56199300D01*
X97060600Y-53574800D02*
X109109000Y-65623200D01*
X46978200Y-53574800D02*
X97060600Y-53574800D01*
X44353700Y-56199300D02*
X46978200Y-53574800D01*
X40625000Y-89219300D02*
X41813700Y-89219300D01*
X95880000Y-109480000D02*
X97150000Y-110750000D01*
X94200600Y-109480000D02*
X95880000Y-109480000D01*
X93340000Y-108619400D02*
X94200600Y-109480000D01*
X93340000Y-107784000D02*
X93340000Y-108619400D01*
X88024900Y-102468900D02*
X93340000Y-107784000D01*
X65320800Y-102468900D02*
X88024900Y-102468900D01*
X62237000Y-99385100D02*
X65320800Y-102468900D01*
X62237000Y-98503100D02*
X62237000Y-99385100D01*
X60298600Y-96564700D02*
X62237000Y-98503100D01*
X58914100Y-96564700D02*
X60298600Y-96564700D01*
X57135000Y-94785600D02*
X58914100Y-96564700D01*
X57135000Y-93843300D02*
X57135000Y-94785600D01*
X53781000Y-90489300D02*
X57135000Y-93843300D01*
X42714200Y-90489300D02*
X53781000Y-90489300D01*
X41813700Y-89588800D02*
X42714200Y-90489300D01*
X41813700Y-89219300D02*
X41813700Y-89588800D01*
X73645000Y-46039300D02*
X74833700Y-46039300D01*
X82535000Y-50741400D02*
X83490000Y-51696400D01*
X82535000Y-45592800D02*
X82535000Y-50741400D01*
X81317300Y-44375100D02*
X82535000Y-45592800D01*
X76126400Y-44375100D02*
X81317300Y-44375100D01*
X74833700Y-45667800D02*
X76126400Y-44375100D01*
X74833700Y-46039300D02*
X74833700Y-45667800D01*
X40625000Y-53659300D02*
X40625000Y-54848000D01*
X51210000Y-61500000D02*
X67210000Y-77500000D01*
X47661100Y-61500000D02*
X51210000Y-61500000D01*
X43630400Y-57469300D02*
X47661100Y-61500000D01*
X42731800Y-57469300D02*
X43630400Y-57469300D01*
X41813700Y-56551200D02*
X42731800Y-57469300D01*
X41813700Y-55665100D02*
X41813700Y-56551200D01*
X40996600Y-54848000D02*
X41813700Y-55665100D01*
X40625000Y-54848000D02*
X40996600Y-54848000D01*
X68901400Y-75808600D02*
X67210000Y-77500000D01*
X87898400Y-75808600D02*
X68901400Y-75808600D01*
X88767700Y-76677900D02*
X87898400Y-75808600D01*
X110474400Y-76677900D02*
X88767700Y-76677900D01*
X111649000Y-75503300D02*
X110474400Y-76677900D01*
X33976300Y-62476300D02*
X32750000Y-61250000D01*
X41150800Y-62476300D02*
X33976300Y-62476300D01*
X41976300Y-61650800D02*
X41150800Y-62476300D01*
X41976300Y-61279300D02*
X41976300Y-61650800D01*
X43165000Y-61279300D02*
X41976300Y-61279300D01*
X90089000Y-79786300D02*
X107955200Y-79786300D01*
X86612600Y-76309900D02*
X90089000Y-79786300D01*
X69273500Y-76309900D02*
X86612600Y-76309900D01*
X68480000Y-77103400D02*
X69273500Y-76309900D01*
X68480000Y-77990600D02*
X68480000Y-77103400D01*
X67788400Y-78682200D02*
X68480000Y-77990600D01*
X65852200Y-78682200D02*
X67788400Y-78682200D01*
X64670000Y-77500000D02*
X65852200Y-78682200D01*
X115809000Y-94299300D02*
X114620300Y-94299300D01*
X64280700Y-79650700D02*
X62130000Y-77500000D01*
X76005800Y-79650700D02*
X64280700Y-79650700D01*
X76449100Y-80094000D02*
X76005800Y-79650700D01*
X113224200Y-96067000D02*
X77414200Y-96067000D01*
X114620300Y-94670900D02*
X113224200Y-96067000D01*
X114620300Y-94299300D02*
X114620300Y-94670900D01*
X35100200Y-65154900D02*
X33925100Y-66330000D01*
X41012300Y-65154900D02*
X35100200Y-65154900D01*
X41976300Y-64190900D02*
X41012300Y-65154900D01*
X41976300Y-63819300D02*
X41976300Y-64190900D01*
X43165000Y-63819300D02*
X41976300Y-63819300D01*
X32750000Y-66330000D02*
X33925100Y-66330000D01*
X112103200Y-53097500D02*
X114189000Y-55183300D01*
X44915500Y-53097500D02*
X112103200Y-53097500D01*
X44353700Y-53659300D02*
X44915500Y-53097500D01*
X43165000Y-53659300D02*
X44353700Y-53659300D01*
X40625000Y-94299300D02*
X43165000Y-94299300D01*
X100233700Y-46408800D02*
X100233700Y-46039300D01*
X102574900Y-48750000D02*
X100233700Y-46408800D01*
X105350000Y-48750000D02*
X102574900Y-48750000D01*
X99045000Y-46039300D02*
X100233700Y-46039300D01*
X50500000Y-82500000D02*
X51000000Y-82000000D01*
X51000000Y-82000000D02*
X51000000Y-78000000D01*
X85220000Y-83130000D02*
X85220000Y-82069500D01*
X85767200Y-81522300D02*
X85220000Y-82069500D01*
X109573400Y-81522300D02*
X85767200Y-81522300D01*
X109964200Y-81913100D02*
X109573400Y-81522300D01*
X112590400Y-81913100D02*
X109964200Y-81913100D01*
X51069500Y-82069500D02*
X51000000Y-82000000D01*
X85220000Y-82069500D02*
X51069500Y-82069500D01*
X104570000Y-129500000D02*
X103394900Y-129500000D01*
X103280000Y-125495200D02*
X101518700Y-127256500D01*
X103280000Y-111120000D02*
X103280000Y-125495200D01*
X110750000Y-103650000D02*
X103280000Y-111120000D01*
X87116500Y-127256500D02*
X101518700Y-127256500D01*
X84230000Y-124370000D02*
X87116500Y-127256500D01*
X103394900Y-129132700D02*
X103394900Y-129500000D01*
X101518700Y-127256500D02*
X103394900Y-129132700D01*
X80290000Y-124370000D02*
X84230000Y-124370000D01*
X66670000Y-110750000D02*
X80290000Y-124370000D01*
X124750000Y-90233000D02*
X124750000Y-87500000D01*
X118066800Y-96916200D02*
X124750000Y-90233000D01*
X116197700Y-96916200D02*
X118066800Y-96916200D01*
X114554000Y-98559900D02*
X116197700Y-96916200D01*
X114554000Y-99846000D02*
X114554000Y-98559900D01*
X110750000Y-103650000D02*
X114554000Y-99846000D01*
X57945100Y-120500000D02*
X61000000Y-120500000D01*
X54895100Y-117450000D02*
X57945100Y-120500000D01*
X53370000Y-117450000D02*
X54895100Y-117450000D01*
X89528700Y-85750000D02*
X111455000Y-85750000D01*
X89117600Y-86161100D02*
X89528700Y-85750000D01*
X78318500Y-86161100D02*
X89117600Y-86161100D01*
X77624800Y-85467400D02*
X78318500Y-86161100D01*
X77624800Y-84426300D02*
X77624800Y-85467400D01*
X76168200Y-82969700D02*
X77624800Y-84426300D01*
X61530300Y-82969700D02*
X76168200Y-82969700D01*
X59250000Y-85250000D02*
X61530300Y-82969700D01*
X112656400Y-78843600D02*
X111000000Y-80500000D01*
X118383600Y-78843600D02*
X112656400Y-78843600D01*
X119540000Y-80000000D02*
X118383600Y-78843600D01*
X123790000Y-84960000D02*
X119000000Y-89750000D01*
X124750000Y-84960000D02*
X123790000Y-84960000D01*
X85890000Y-85000000D02*
X78750000Y-85000000D01*
X87760000Y-83130000D02*
X85890000Y-85000000D01*
X93980000Y-41046400D02*
X96520000Y-41046400D01*
X89037500Y-58922500D02*
X89037500Y-61212500D01*
X91460000Y-56500000D02*
X89037500Y-58922500D01*
X93495000Y-72925000D02*
X90000000Y-72925000D01*
X96000000Y-70420000D02*
X93495000Y-72925000D01*
X117298000Y-50550000D02*
X116122900Y-50550000D01*
X91990000Y-49000000D02*
X95000000Y-49000000D01*
X114621900Y-52051000D02*
X116122900Y-50550000D01*
X98051000Y-52051000D02*
X114621900Y-52051000D01*
X95000000Y-49000000D02*
X98051000Y-52051000D01*
X69806600Y-88750000D02*
X59250000Y-88750000D01*
X74290000Y-121500000D02*
X73094900Y-121500000D01*
X72624600Y-120072000D02*
X64717200Y-120072000D01*
X73094900Y-120542300D02*
X72624600Y-120072000D01*
X73094900Y-121500000D02*
X73094900Y-120542300D01*
X61000000Y-124250000D02*
X61000000Y-123944800D01*
X61000000Y-123789200D02*
X64717200Y-120072000D01*
X61000000Y-123944800D02*
X61000000Y-123789200D01*
X50880600Y-125070000D02*
X45750000Y-125070000D01*
X52005800Y-123944800D02*
X50880600Y-125070000D01*
X61000000Y-123944800D02*
X52005800Y-123944800D01*
X63932200Y-109426700D02*
X62135700Y-111223200D01*
X67993300Y-109426700D02*
X63932200Y-109426700D01*
X69210000Y-108210000D02*
X67993300Y-109426700D01*
X62135700Y-117490500D02*
X62135700Y-111223200D01*
X64717200Y-120072000D02*
X62135700Y-117490500D01*
X51170000Y-112370000D02*
X45750000Y-112370000D01*
X52316800Y-111223200D02*
X51170000Y-112370000D01*
X62135700Y-111223200D02*
X52316800Y-111223200D01*
X96505000Y-46039300D02*
X93965000Y-46039300D01*
X72375000Y-47565000D02*
X70940000Y-49000000D01*
X72375000Y-45580300D02*
X72375000Y-47565000D01*
X74040800Y-43914500D02*
X72375000Y-45580300D01*
X91023000Y-43914500D02*
X74040800Y-43914500D01*
X92776300Y-45667800D02*
X91023000Y-43914500D01*
X92776300Y-46039300D02*
X92776300Y-45667800D01*
X93965000Y-46039300D02*
X92776300Y-46039300D01*
X40625000Y-51119300D02*
X43165000Y-51119300D01*
X68275000Y-51665000D02*
X70940000Y-49000000D01*
X44899400Y-51665000D02*
X68275000Y-51665000D01*
X44353700Y-51119300D02*
X44899400Y-51665000D01*
X43165000Y-51119300D02*
X44353700Y-51119300D01*
X76511600Y-87759200D02*
X74571000Y-85818600D01*
X77864800Y-87759200D02*
X76511600Y-87759200D01*
X74571000Y-85729000D02*
X74571000Y-85818600D01*
X75300000Y-85000000D02*
X74571000Y-85729000D01*
X71639600Y-88750000D02*
X69806600Y-88750000D01*
X74571000Y-85818600D02*
X71639600Y-88750000D01*
X114743500Y-90978400D02*
X114265100Y-90500000D01*
X119545900Y-90978400D02*
X114743500Y-90978400D01*
X120314900Y-90209400D02*
X119545900Y-90978400D01*
X120314900Y-89750000D02*
X120314900Y-90209400D01*
X121540000Y-89750000D02*
X120314900Y-89750000D01*
X113040000Y-90500000D02*
X114265100Y-90500000D01*
X110500000Y-89245000D02*
X110500000Y-90500000D01*
X113995000Y-85750000D02*
X110500000Y-89245000D01*
D35*
X110750000Y-106450000D02*
X118939700Y-106450000D01*
M02*
