  0
SECTION
  2
HEADER
  9
$ANGBASE
  50
0.0
  9
$ANGDIR
  70
1
  9
$MEASUREMENT
  70
1
  0
ENDSEC
  0
SECTION
  2
TABLES
  0
TABLE
  2
LTYPE
  70
4
  0
LTYPE
  5
40F
  2
CONTINUOUS
  70
0
  3
Solid line
  72
65
  73
0
  40
0.0
  0
LTYPE
  5
410
  2
DASHDOT
 70
0
  3
Dash Dot ____ _ ____ _
 72
65
 73
4
 40
2.0
 49
1.25
 49
-0.25
 49
0.25
 49
-0.25
  0
LTYPE
  5
411
  2
DASHED
 70
0
  3
Dashed __ __ __ __ __
 72
65
 73
2
 40
0.75
 49
0.5
 49
-0.25
  0
LTYPE
  5
43B
  2
DOTTED
 70
0
  3
Dotted .  .  .  .
 72
65
 73
2
 40
0.2
 49
0.0
 49
-0.2
  0
ENDTAB
  0
TABLE
  2
STYLE
  70
4
  0
STYLE
  2
KICAD
  70
0
  40
0
  41
1
  42
1
  50
0
  71
0
  3
isocp.shx
  0
STYLE
  2
KICADB
  70
0
  40
0
  41
1
  42
1
  50
0
  71
0
  3
isocp.shx
  0
STYLE
  2
KICADI
  70
0
  40
0
  41
1
  42
1
  50
15
  71
0
  3
isocp.shx
  0
STYLE
  2
KICADBI
  70
0
  40
0
  41
1
  42
1
  50
15
  71
0
  3
isocp.shx
  0
ENDTAB
  0
TABLE
  2
LAYER
  70
1
  0
LAYER
  2
BLACK
  70
0
  62
7
  6
CONTINUOUS
  0
ENDTAB
  0
ENDSEC
  0
SECTION
  2
ENTITIES
0
LINE
8
BLACK
6
CONTINUOUS
10
76.2000000000000028
20
-45.7199999999999989
11
76.2000000000000028
21
-55.8799999999999955
0
LINE
8
BLACK
6
CONTINUOUS
10
76.2000000000000028
20
-45.7199999999999989
11
193.039999999999992
21
-45.7199999999999989
0
LINE
8
BLACK
6
CONTINUOUS
10
114.9426950000000005
20
-89.707137000000003
11
115.5892879999999963
21
-89.7700949999999978
0
LINE
8
BLACK
6
CONTINUOUS
10
115.5892879999999963
20
-89.7700949999999978
11
116.231663999999995
21
-89.8750239999999962
0
LINE
8
BLACK
6
CONTINUOUS
10
116.231663999999995
20
-89.8750239999999962
11
116.8677129999999948
21
-90.021924999999996
0
LINE
8
BLACK
6
CONTINUOUS
10
116.8677129999999948
20
-90.021924999999996
11
117.4953280000000007
21
-90.2107969999999995
0
LINE
8
BLACK
6
CONTINUOUS
10
117.4953280000000007
20
-90.2107969999999995
11
118.1123989999999964
21
-90.44164099999999
0
LINE
8
BLACK
6
CONTINUOUS
10
118.1123989999999964
20
-90.44164099999999
11
118.7168179999999893
21
-90.7144569999999959
0
LINE
8
BLACK
6
CONTINUOUS
10
118.7168179999999893
20
-90.7144569999999959
11
119.3064759999999893
21
-91.0292439999999914
0
LINE
8
BLACK
6
CONTINUOUS
10
119.3064759999999893
20
-91.0292439999999914
11
119.5937529999999924
21
-91.2015419999999892
0
LINE
8
BLACK
6
CONTINUOUS
10
119.5937529999999924
20
-91.2015419999999892
11
119.8739199999999983
21
-91.3825099999999964
0
LINE
8
BLACK
6
CONTINUOUS
10
119.8739199999999983
20
-91.3825099999999964
11
120.146844999999999
21
-91.5719199999999915
0
LINE
8
BLACK
6
CONTINUOUS
10
120.146844999999999
20
-91.5719199999999915
11
120.4123960000000011
21
-91.7695449999999937
0
LINE
8
BLACK
6
CONTINUOUS
10
120.4123960000000011
20
-91.7695449999999937
11
120.6704419999999942
21
-91.9751550000000009
0
LINE
8
BLACK
6
CONTINUOUS
10
120.6704419999999942
20
-91.9751550000000009
11
120.9208500000000015
21
-92.1885229999999893
0
LINE
8
BLACK
6
CONTINUOUS
10
120.9208500000000015
20
-92.1885229999999893
11
121.163488000000001
21
-92.4094189999999998
0
LINE
8
BLACK
6
CONTINUOUS
10
121.163488000000001
20
-92.4094189999999998
11
121.398225999999994
21
-92.6376169999999917
0
LINE
8
BLACK
6
CONTINUOUS
10
121.398225999999994
20
-92.6376169999999917
11
121.6249309999999895
21
-92.8728869999999915
0
LINE
8
BLACK
6
CONTINUOUS
10
121.6249309999999895
20
-92.8728869999999915
11
121.8434719999999913
21
-93.1150019999999898
0
LINE
8
BLACK
6
CONTINUOUS
10
121.8434719999999913
20
-93.1150019999999898
11
122.0537159999999943
21
-93.3637329999999963
0
LINE
8
BLACK
6
CONTINUOUS
10
122.0537159999999943
20
-93.3637329999999963
11
122.2555319999999881
21
-93.6188509999999923
0
LINE
8
BLACK
6
CONTINUOUS
10
122.2555319999999881
20
-93.6188509999999923
11
122.4487879999999933
21
-93.8801289999999966
0
LINE
8
BLACK
6
CONTINUOUS
10
122.4487879999999933
20
-93.8801289999999966
11
122.6333519999999879
21
-94.1473379999999906
0
LINE
8
BLACK
6
CONTINUOUS
10
122.6333519999999879
20
-94.1473379999999906
11
122.8090929999999901
21
-94.4202509999999933
0
LINE
8
BLACK
6
CONTINUOUS
10
122.8090929999999901
20
-94.4202509999999933
11
122.9758779999999945
21
-94.6986380000000025
0
LINE
8
BLACK
6
CONTINUOUS
10
122.9758779999999945
20
-94.6986380000000025
11
123.1335759999999908
21
-94.9822709999999972
0
LINE
8
BLACK
6
CONTINUOUS
10
123.1335759999999908
20
-94.9822709999999972
11
123.2820549999999997
21
-95.2709229999999963
0
LINE
8
BLACK
6
CONTINUOUS
10
123.2820549999999997
20
-95.2709229999999963
11
123.4211839999999967
21
-95.5643639999999976
0
LINE
8
BLACK
6
CONTINUOUS
10
123.4211839999999967
20
-95.5643639999999976
11
123.5508299999999906
21
-95.8623679999999894
0
LINE
8
BLACK
6
CONTINUOUS
10
123.5508299999999906
20
-95.8623679999999894
11
123.6708619999999996
21
-96.1647040000000004
0
LINE
8
BLACK
6
CONTINUOUS
10
123.6708619999999996
20
-96.1647040000000004
11
123.78114699999999
21
-96.4711459999999903
0
LINE
8
BLACK
6
CONTINUOUS
10
123.78114699999999
20
-96.4711459999999903
11
123.8815549999999917
21
-96.7814639999999997
0
LINE
8
BLACK
6
CONTINUOUS
10
123.8815549999999917
20
-96.7814639999999997
11
123.9719529999999992
21
-97.0954309999999907
0
LINE
8
BLACK
6
CONTINUOUS
10
123.9719529999999992
20
-97.0954309999999907
11
124.0522099999999881
21
-97.4128180000000015
0
LINE
8
BLACK
6
CONTINUOUS
10
124.0522099999999881
20
-97.4128180000000015
11
124.1221929999999958
21
-97.733397999999994
0
LINE
8
BLACK
6
CONTINUOUS
10
124.1221929999999958
20
-97.733397999999994
11
124.1817709999999977
21
-98.0569409999999948
0
LINE
8
BLACK
6
CONTINUOUS
10
124.1817709999999977
20
-98.0569409999999948
11
124.2308120000000002
21
-98.3832189999999969
0
LINE
8
BLACK
6
CONTINUOUS
10
124.2308120000000002
20
-98.3832189999999969
11
124.2691849999999931
21
-98.7120039999999932
0
LINE
8
BLACK
6
CONTINUOUS
10
124.2691849999999931
20
-98.7120039999999932
11
124.2967569999999995
21
-99.0430689999999885
0
LINE
8
BLACK
6
CONTINUOUS
10
124.2967569999999995
20
-99.0430689999999885
11
124.3133969999999948
21
-99.376183999999995
0
LINE
8
BLACK
6
CONTINUOUS
10
124.3133969999999948
20
-99.376183999999995
11
124.3189729999999997
21
-99.7111209999999915
0
LINE
8
BLACK
6
CONTINUOUS
10
124.3189729999999997
20
-99.7111209999999915
11
124.2967569999999995
21
-100.3791749999999894
0
LINE
8
BLACK
6
CONTINUOUS
10
124.2967569999999995
20
-100.3791749999999894
11
124.2308120000000002
21
-101.0390259999999927
0
LINE
8
BLACK
6
CONTINUOUS
10
124.2308120000000002
20
-101.0390259999999927
11
124.1221929999999958
21
-101.6888489999999905
0
LINE
8
BLACK
6
CONTINUOUS
10
124.1221929999999958
20
-101.6888489999999905
11
123.9719529999999992
21
-102.3268159999999938
0
LINE
8
BLACK
6
CONTINUOUS
10
123.9719529999999992
20
-102.3268159999999938
11
123.78114699999999
21
-102.9511019999999917
0
LINE
8
BLACK
6
CONTINUOUS
10
123.78114699999999
20
-102.9511019999999917
11
123.5508299999999906
21
-103.5598809999999901
0
LINE
8
BLACK
6
CONTINUOUS
10
123.5508299999999906
20
-103.5598809999999901
11
123.2820549999999997
21
-104.1513269999999949
0
LINE
8
BLACK
6
CONTINUOUS
10
123.2820549999999997
20
-104.1513269999999949
11
122.9758779999999945
21
-104.7236130000000003
0
LINE
8
BLACK
6
CONTINUOUS
10
122.9758779999999945
20
-104.7236130000000003
11
122.6333519999999879
21
-105.274912999999998
0
LINE
8
BLACK
6
CONTINUOUS
10
122.6333519999999879
20
-105.274912999999998
11
122.2555319999999881
21
-105.8034009999999938
0
LINE
8
BLACK
6
CONTINUOUS
10
122.2555319999999881
20
-105.8034009999999938
11
121.8434719999999913
21
-106.3072509999999937
0
LINE
8
BLACK
6
CONTINUOUS
10
121.8434719999999913
20
-106.3072509999999937
11
121.398225999999994
21
-106.7846369999999894
0
LINE
8
BLACK
6
CONTINUOUS
10
121.398225999999994
20
-106.7846369999999894
11
120.9208500000000015
21
-107.2337319999999892
0
LINE
8
BLACK
6
CONTINUOUS
10
120.9208500000000015
20
-107.2337319999999892
11
120.4123960000000011
21
-107.6527109999999965
0
LINE
8
BLACK
6
CONTINUOUS
10
120.4123960000000011
20
-107.6527109999999965
11
119.8739199999999983
21
-108.0397469999999913
0
LINE
8
BLACK
6
CONTINUOUS
10
119.8739199999999983
20
-108.0397469999999913
11
119.3064759999999893
21
-108.3930139999999938
0
LINE
8
BLACK
6
CONTINUOUS
10
119.3064759999999893
20
-108.3930139999999938
11
118.7168179999999893
21
-108.7078009999999892
0
LINE
8
BLACK
6
CONTINUOUS
10
118.7168179999999893
20
-108.7078009999999892
11
118.1123989999999964
21
-108.9806159999999977
0
LINE
8
BLACK
6
CONTINUOUS
10
118.1123989999999964
20
-108.9806159999999977
11
117.4953280000000007
21
-109.2114589999999907
0
LINE
8
BLACK
6
CONTINUOUS
10
117.4953280000000007
20
-109.2114589999999907
11
116.8677129999999948
21
-109.4003309999999942
0
LINE
8
BLACK
6
CONTINUOUS
10
116.8677129999999948
20
-109.4003309999999942
11
116.231663999999995
21
-109.5472319999999939
0
LINE
8
BLACK
6
CONTINUOUS
10
116.231663999999995
20
-109.5472319999999939
11
115.5892879999999963
21
-109.6521609999999924
0
LINE
8
BLACK
6
CONTINUOUS
10
115.5892879999999963
20
-109.6521609999999924
11
114.9426950000000005
21
-109.7151179999999897
0
LINE
8
BLACK
6
CONTINUOUS
10
114.9426950000000005
20
-109.7151179999999897
11
114.2939939999999979
21
-109.7361039999999974
0
LINE
8
BLACK
6
CONTINUOUS
10
114.2939939999999979
20
-109.7361039999999974
11
113.6452919999999978
21
-109.7151179999999897
0
LINE
8
BLACK
6
CONTINUOUS
10
113.6452919999999978
20
-109.7151179999999897
11
112.9986989999999878
21
-109.6521609999999924
0
LINE
8
BLACK
6
CONTINUOUS
10
112.9986989999999878
20
-109.6521609999999924
11
112.3563229999999891
21
-109.5472319999999939
0
LINE
8
BLACK
6
CONTINUOUS
10
112.3563229999999891
20
-109.5472319999999939
11
111.7202729999999917
21
-109.4003309999999942
0
LINE
8
BLACK
6
CONTINUOUS
10
111.7202729999999917
20
-109.4003309999999942
11
111.0926580000000001
21
-109.2114589999999907
0
LINE
8
BLACK
6
CONTINUOUS
10
111.0926580000000001
20
-109.2114589999999907
11
110.4755849999999953
21
-108.9806159999999977
0
LINE
8
BLACK
6
CONTINUOUS
10
110.4755849999999953
20
-108.9806159999999977
11
109.8711649999999906
21
-108.7078009999999892
0
LINE
8
BLACK
6
CONTINUOUS
10
109.8711649999999906
20
-108.7078009999999892
11
109.2815049999999957
21
-108.3930139999999938
0
LINE
8
BLACK
6
CONTINUOUS
10
109.2815049999999957
20
-108.3930139999999938
11
108.99422899999999
21
-108.2207149999999984
0
LINE
8
BLACK
6
CONTINUOUS
10
108.99422899999999
20
-108.2207149999999984
11
108.7140619999999984
21
-108.0397469999999913
0
LINE
8
BLACK
6
CONTINUOUS
10
108.7140619999999984
20
-108.0397469999999913
11
108.4411369999999977
21
-107.8503359999999986
0
LINE
8
BLACK
6
CONTINUOUS
10
108.4411369999999977
20
-107.8503359999999986
11
108.1755869999999931
21
-107.6527109999999965
0
LINE
8
BLACK
6
CONTINUOUS
10
108.1755869999999931
20
-107.6527109999999965
11
107.9175419999999974
21
-107.4470999999999918
0
LINE
8
BLACK
6
CONTINUOUS
10
107.9175419999999974
20
-107.4470999999999918
11
107.6671339999999901
21
-107.2337319999999892
0
LINE
8
BLACK
6
CONTINUOUS
10
107.6671339999999901
20
-107.2337319999999892
11
107.4244959999999907
21
-107.0128349999999955
0
LINE
8
BLACK
6
CONTINUOUS
10
107.4244959999999907
20
-107.0128349999999955
11
107.1897579999999977
21
-106.7846369999999894
0
LINE
8
BLACK
6
CONTINUOUS
10
107.1897579999999977
20
-106.7846369999999894
11
106.9630530000000022
21
-106.549365999999992
0
LINE
8
BLACK
6
CONTINUOUS
10
106.9630530000000022
20
-106.549365999999992
11
106.7445129999999978
21
-106.3072509999999937
0
LINE
8
BLACK
6
CONTINUOUS
10
106.7445129999999978
20
-106.3072509999999937
11
106.5342689999999948
21
-106.0585200000000015
0
LINE
8
BLACK
6
CONTINUOUS
10
106.5342689999999948
20
-106.0585200000000015
11
106.3324539999999985
21
-105.8034009999999938
0
LINE
8
BLACK
6
CONTINUOUS
10
106.3324539999999985
20
-105.8034009999999938
11
106.1391979999999933
21
-105.542121999999992
0
LINE
8
BLACK
6
CONTINUOUS
10
106.1391979999999933
20
-105.542121999999992
11
105.9546339999999987
21
-105.274912999999998
0
LINE
8
BLACK
6
CONTINUOUS
10
105.9546339999999987
20
-105.274912999999998
11
105.778893999999994
21
-105.0019999999999953
0
LINE
8
BLACK
6
CONTINUOUS
10
105.778893999999994
20
-105.0019999999999953
11
105.6121089999999896
21
-104.7236130000000003
0
LINE
8
BLACK
6
CONTINUOUS
10
105.6121089999999896
20
-104.7236130000000003
11
105.4544109999999932
21
-104.4399789999999939
0
LINE
8
BLACK
6
CONTINUOUS
10
105.4544109999999932
20
-104.4399789999999939
11
105.3059319999999985
21
-104.1513269999999949
0
LINE
8
BLACK
6
CONTINUOUS
10
105.3059319999999985
20
-104.1513269999999949
11
105.1668039999999991
21
-103.857884999999996
0
LINE
8
BLACK
6
CONTINUOUS
10
105.1668039999999991
20
-103.857884999999996
11
105.0371579999999909
21
-103.5598809999999901
0
LINE
8
BLACK
6
CONTINUOUS
10
105.0371579999999909
20
-103.5598809999999901
11
104.9171259999999961
21
-103.2575439999999958
0
LINE
8
BLACK
6
CONTINUOUS
10
104.9171259999999961
20
-103.2575439999999958
11
104.8068409999999915
21
-102.9511019999999917
0
LINE
8
BLACK
6
CONTINUOUS
10
104.8068409999999915
20
-102.9511019999999917
11
104.7064329999999899
21
-102.6407839999999965
0
LINE
8
BLACK
6
CONTINUOUS
10
104.7064329999999899
20
-102.6407839999999965
11
104.6160349999999966
21
-102.3268159999999938
0
LINE
8
BLACK
6
CONTINUOUS
10
104.6160349999999966
20
-102.3268159999999938
11
104.5357789999999909
21
-102.0094279999999998
0
LINE
8
BLACK
6
CONTINUOUS
10
104.5357789999999909
20
-102.0094279999999998
11
104.4657959999999974
21
-101.6888489999999905
0
LINE
8
BLACK
6
CONTINUOUS
10
104.4657959999999974
20
-101.6888489999999905
11
104.4062179999999955
21
-101.3653049999999922
0
LINE
8
BLACK
6
CONTINUOUS
10
104.4062179999999955
20
-101.3653049999999922
11
104.357176999999993
21
-101.0390259999999927
0
LINE
8
BLACK
6
CONTINUOUS
10
104.357176999999993
20
-101.0390259999999927
11
104.3188040000000001
21
-100.7102399999999989
0
LINE
8
BLACK
6
CONTINUOUS
10
104.3188040000000001
20
-100.7102399999999989
11
104.2912319999999937
21
-100.3791749999999894
0
LINE
8
BLACK
6
CONTINUOUS
10
104.2912319999999937
20
-100.3791749999999894
11
104.2745919999999984
21
-100.0460599999999971
0
LINE
8
BLACK
6
CONTINUOUS
10
104.2745919999999984
20
-100.0460599999999971
11
104.2690159999999935
21
-99.7111209999999915
0
LINE
8
BLACK
6
CONTINUOUS
10
104.2690159999999935
20
-99.7111209999999915
11
104.2912319999999937
21
-99.0430689999999885
0
LINE
8
BLACK
6
CONTINUOUS
10
104.2912319999999937
20
-99.0430689999999885
11
104.357176999999993
21
-98.3832189999999969
0
LINE
8
BLACK
6
CONTINUOUS
10
104.357176999999993
20
-98.3832189999999969
11
104.4657959999999974
21
-97.733397999999994
0
LINE
8
BLACK
6
CONTINUOUS
10
104.4657959999999974
20
-97.733397999999994
11
104.6160349999999966
21
-97.0954320000000024
0
LINE
8
BLACK
6
CONTINUOUS
10
104.6160349999999966
20
-97.0954320000000024
11
104.8068409999999915
21
-96.471147000000002
0
LINE
8
BLACK
6
CONTINUOUS
10
104.8068409999999915
20
-96.471147000000002
11
105.0371579999999909
21
-95.8623690000000011
0
LINE
8
BLACK
6
CONTINUOUS
10
105.0371579999999909
20
-95.8623690000000011
11
105.3059319999999985
21
-95.2709239999999937
0
LINE
8
BLACK
6
CONTINUOUS
10
105.3059319999999985
20
-95.2709239999999937
11
105.6121089999999896
21
-94.698639
0
LINE
8
BLACK
6
CONTINUOUS
10
105.6121089999999896
20
-94.698639
11
105.9546339999999987
21
-94.1473399999999998
0
LINE
8
BLACK
6
CONTINUOUS
10
105.9546339999999987
20
-94.1473399999999998
11
106.3324539999999985
21
-93.6188530000000014
0
LINE
8
BLACK
6
CONTINUOUS
10
106.3324539999999985
20
-93.6188530000000014
11
106.7445129999999978
21
-93.115003999999999
0
LINE
8
BLACK
6
CONTINUOUS
10
106.7445129999999978
20
-93.115003999999999
11
107.1897579999999977
21
-92.6376190000000008
0
LINE
8
BLACK
6
CONTINUOUS
10
107.1897579999999977
20
-92.6376190000000008
11
107.6671339999999901
21
-92.188524000000001
0
LINE
8
BLACK
6
CONTINUOUS
10
107.6671339999999901
20
-92.188524000000001
11
108.1755869999999931
21
-91.7695459999999912
0
LINE
8
BLACK
6
CONTINUOUS
10
108.1755869999999931
20
-91.7695459999999912
11
108.7140619999999984
21
-91.3825109999999938
0
LINE
8
BLACK
6
CONTINUOUS
10
108.7140619999999984
20
-91.3825109999999938
11
109.2815049999999957
21
-91.0292439999999914
0
LINE
8
BLACK
6
CONTINUOUS
10
109.2815049999999957
20
-91.0292439999999914
11
109.8711649999999906
21
-90.7144569999999959
0
LINE
8
BLACK
6
CONTINUOUS
10
109.8711649999999906
20
-90.7144569999999959
11
110.4755849999999953
21
-90.44164099999999
0
LINE
8
BLACK
6
CONTINUOUS
10
110.4755849999999953
20
-90.44164099999999
11
111.0926580000000001
21
-90.2107969999999995
0
LINE
8
BLACK
6
CONTINUOUS
10
111.0926580000000001
20
-90.2107969999999995
11
111.7202729999999917
21
-90.021924999999996
0
LINE
8
BLACK
6
CONTINUOUS
10
111.7202729999999917
20
-90.021924999999996
11
112.3563229999999891
21
-89.8750239999999962
0
LINE
8
BLACK
6
CONTINUOUS
10
112.3563229999999891
20
-89.8750239999999962
11
112.9986989999999878
21
-89.7700949999999978
0
LINE
8
BLACK
6
CONTINUOUS
10
112.9986989999999878
20
-89.7700949999999978
11
113.6452919999999978
21
-89.707137000000003
0
LINE
8
BLACK
6
CONTINUOUS
10
113.6452919999999978
20
-89.707137000000003
11
114.2939939999999979
21
-89.6861509999999953
0
LINE
8
BLACK
6
CONTINUOUS
10
114.2939939999999979
20
-89.6861509999999953
11
114.9426950000000005
21
-89.707137000000003
0
LINE
8
BLACK
6
CONTINUOUS
10
76.2000000000000028
20
-119.3799999999999955
11
76.1923850000000016
21
-110.8660509999999988
0
CIRCLE
8
BLACK
10
171.1741949999999974
20
-83.9950779999999924
40
2.54
0
LINE
8
BLACK
6
CONTINUOUS
10
68.5799999999999983
20
-99.0600000000000023
11
68.5799999999999983
21
-60.9599999999999937
0
LINE
8
BLACK
6
CONTINUOUS
10
198.1200000000000045
20
-96.519999999999996
11
193.039999999999992
21
-109.2199999999999989
0
LINE
8
BLACK
6
CONTINUOUS
10
193.039999999999992
20
-109.2199999999999989
11
193.039999999999992
21
-119.3799999999999955
0
LINE
8
BLACK
6
CONTINUOUS
10
193.039999999999992
20
-55.8799999999999955
11
198.1200000000000045
21
-60.9599999999999937
0
LINE
8
BLACK
6
CONTINUOUS
10
82.8096469999999982
20
-89.5677709999999934
11
83.456239999999994
21
-89.6307279999999906
0
LINE
8
BLACK
6
CONTINUOUS
10
83.456239999999994
20
-89.6307279999999906
11
84.0986159999999927
21
-89.7356569999999891
0
LINE
8
BLACK
6
CONTINUOUS
10
84.0986159999999927
20
-89.7356569999999891
11
84.73466599999999
21
-89.8825579999999889
0
LINE
8
BLACK
6
CONTINUOUS
10
84.73466599999999
20
-89.8825579999999889
11
85.3622819999999933
21
-90.0714299999999923
0
LINE
8
BLACK
6
CONTINUOUS
10
85.3622819999999933
20
-90.0714299999999923
11
85.979352999999989
21
-90.302273999999997
0
LINE
8
BLACK
6
CONTINUOUS
10
85.979352999999989
20
-90.302273999999997
11
86.5837719999999962
21
-90.575090000000003
0
LINE
8
BLACK
6
CONTINUOUS
10
86.5837719999999962
20
-90.575090000000003
11
87.1734299999999962
21
-90.889877999999996
0
LINE
8
BLACK
6
CONTINUOUS
10
87.1734299999999962
20
-90.889877999999996
11
87.4607069999999993
21
-91.0621759999999938
0
LINE
8
BLACK
6
CONTINUOUS
10
87.4607069999999993
20
-91.0621759999999938
11
87.7408739999999909
21
-91.2431440000000009
0
LINE
8
BLACK
6
CONTINUOUS
10
87.7408739999999909
20
-91.2431440000000009
11
88.0137989999999917
21
-91.4325549999999936
0
LINE
8
BLACK
6
CONTINUOUS
10
88.0137989999999917
20
-91.4325549999999936
11
88.2793499999999938
21
-91.6301789999999983
0
LINE
8
BLACK
6
CONTINUOUS
10
88.2793499999999938
20
-91.6301789999999983
11
88.5373960000000011
21
-91.8357900000000029
0
LINE
8
BLACK
6
CONTINUOUS
10
88.5373960000000011
20
-91.8357900000000029
11
88.7878039999999942
21
-92.0491579999999914
0
LINE
8
BLACK
6
CONTINUOUS
10
88.7878039999999942
20
-92.0491579999999914
11
89.0304429999999911
21
-92.2700540000000018
0
LINE
8
BLACK
6
CONTINUOUS
10
89.0304429999999911
20
-92.2700540000000018
11
89.2651800000000009
21
-92.4982519999999937
0
LINE
8
BLACK
6
CONTINUOUS
10
89.2651800000000009
20
-92.4982519999999937
11
89.4918849999999964
21
-92.733522999999991
0
LINE
8
BLACK
6
CONTINUOUS
10
89.4918849999999964
20
-92.733522999999991
11
89.7104250000000008
21
-92.9756379999999893
0
LINE
8
BLACK
6
CONTINUOUS
10
89.7104250000000008
20
-92.9756379999999893
11
89.9206689999999895
21
-93.2243679999999983
0
LINE
8
BLACK
6
CONTINUOUS
10
89.9206689999999895
20
-93.2243679999999983
11
90.1224849999999975
21
-93.4794869999999918
0
LINE
8
BLACK
6
CONTINUOUS
10
90.1224849999999975
20
-93.4794869999999918
11
90.315739999999991
21
-93.7407649999999961
0
LINE
8
BLACK
6
CONTINUOUS
10
90.315739999999991
20
-93.7407649999999961
11
90.5003039999999999
21
-94.0079750000000018
0
LINE
8
BLACK
6
CONTINUOUS
10
90.5003039999999999
20
-94.0079750000000018
11
90.6760439999999903
21
-94.2808869999999928
0
LINE
8
BLACK
6
CONTINUOUS
10
90.6760439999999903
20
-94.2808869999999928
11
90.8428289999999947
21
-94.559274000000002
0
LINE
8
BLACK
6
CONTINUOUS
10
90.8428289999999947
20
-94.559274000000002
11
91.0005269999999911
21
-94.8429079999999942
0
LINE
8
BLACK
6
CONTINUOUS
10
91.0005269999999911
20
-94.8429079999999942
11
91.149006
21
-95.1315599999999932
0
LINE
8
BLACK
6
CONTINUOUS
10
91.149006
20
-95.1315599999999932
11
91.2881339999999994
21
-95.4250009999999946
0
LINE
8
BLACK
6
CONTINUOUS
10
91.2881339999999994
20
-95.4250009999999946
11
91.4177789999999959
21
-95.7230050000000006
0
LINE
8
BLACK
6
CONTINUOUS
10
91.4177789999999959
20
-95.7230050000000006
11
91.5378109999999907
21
-96.0253409999999974
0
LINE
8
BLACK
6
CONTINUOUS
10
91.5378109999999907
20
-96.0253409999999974
11
91.6480959999999953
21
-96.3317830000000015
0
LINE
8
BLACK
6
CONTINUOUS
10
91.6480959999999953
20
-96.3317830000000015
11
91.7485029999999995
21
-96.6421019999999942
0
LINE
8
BLACK
6
CONTINUOUS
10
91.7485029999999995
20
-96.6421019999999942
11
91.8389009999999928
21
-96.9560689999999994
0
LINE
8
BLACK
6
CONTINUOUS
10
91.8389009999999928
20
-96.9560689999999994
11
91.9191569999999984
21
-97.2734569999999934
0
LINE
8
BLACK
6
CONTINUOUS
10
91.9191569999999984
20
-97.2734569999999934
11
91.9891399999999919
21
-97.5940360000000027
0
LINE
8
BLACK
6
CONTINUOUS
10
91.9891399999999919
20
-97.5940360000000027
11
92.0487179999999938
21
-97.9175789999999893
0
LINE
8
BLACK
6
CONTINUOUS
10
92.0487179999999938
20
-97.9175789999999893
11
92.0977589999999964
21
-98.2438579999999888
0
LINE
8
BLACK
6
CONTINUOUS
10
92.0977589999999964
20
-98.2438579999999888
11
92.1361309999999918
21
-98.5726439999999968
0
LINE
8
BLACK
6
CONTINUOUS
10
92.1361309999999918
20
-98.5726439999999968
11
92.1637029999999982
21
-98.9037089999999921
0
LINE
8
BLACK
6
CONTINUOUS
10
92.1637029999999982
20
-98.9037089999999921
11
92.1803429999999935
21
-99.2368239999999986
0
LINE
8
BLACK
6
CONTINUOUS
10
92.1803429999999935
20
-99.2368239999999986
11
92.1859189999999984
21
-99.5717619999999926
0
LINE
8
BLACK
6
CONTINUOUS
10
92.1859189999999984
20
-99.5717619999999926
11
92.1637029999999982
21
-100.2398159999999905
0
LINE
8
BLACK
6
CONTINUOUS
10
92.1637029999999982
20
-100.2398159999999905
11
92.0977589999999964
21
-100.8996659999999963
0
LINE
8
BLACK
6
CONTINUOUS
10
92.0977589999999964
20
-100.8996659999999963
11
91.9891399999999919
21
-101.5494879999999966
0
LINE
8
BLACK
6
CONTINUOUS
10
91.9891399999999919
20
-101.5494879999999966
11
91.8389009999999928
21
-102.1874549999999999
0
LINE
8
BLACK
6
CONTINUOUS
10
91.8389009999999928
20
-102.1874549999999999
11
91.6480959999999953
21
-102.8117409999999978
0
LINE
8
BLACK
6
CONTINUOUS
10
91.6480959999999953
20
-102.8117409999999978
11
91.4177789999999959
21
-103.4205189999999988
0
LINE
8
BLACK
6
CONTINUOUS
10
91.4177789999999959
20
-103.4205189999999988
11
91.149006
21
-104.0119639999999919
0
LINE
8
BLACK
6
CONTINUOUS
10
91.149006
20
-104.0119639999999919
11
90.8428289999999947
21
-104.5842499999999973
0
LINE
8
BLACK
6
CONTINUOUS
10
90.8428289999999947
20
-104.5842499999999973
11
90.5003039999999999
21
-105.1355489999999975
0
LINE
8
BLACK
6
CONTINUOUS
10
90.5003039999999999
20
-105.1355489999999975
11
90.1224849999999975
21
-105.6640369999999933
0
LINE
8
BLACK
6
CONTINUOUS
10
90.1224849999999975
20
-105.6640369999999933
11
89.7104250000000008
21
-106.1678859999999958
0
LINE
8
BLACK
6
CONTINUOUS
10
89.7104250000000008
20
-106.1678859999999958
11
89.2651800000000009
21
-106.6452709999999939
0
LINE
8
BLACK
6
CONTINUOUS
10
89.2651800000000009
20
-106.6452709999999939
11
88.7878039999999942
21
-107.0943659999999937
0
LINE
8
BLACK
6
CONTINUOUS
10
88.7878039999999942
20
-107.0943659999999937
11
88.2793499999999938
21
-107.5133439999999894
0
LINE
8
BLACK
6
CONTINUOUS
10
88.2793499999999938
20
-107.5133439999999894
11
87.7408739999999909
21
-107.9003790000000009
0
LINE
8
BLACK
6
CONTINUOUS
10
87.7408739999999909
20
-107.9003790000000009
11
87.1734299999999962
21
-108.2536449999999917
0
LINE
8
BLACK
6
CONTINUOUS
10
87.1734299999999962
20
-108.2536449999999917
11
86.5837719999999962
21
-108.5684320000000014
0
LINE
8
BLACK
6
CONTINUOUS
10
86.5837719999999962
20
-108.5684320000000014
11
85.979352999999989
21
-108.8412479999999931
0
LINE
8
BLACK
6
CONTINUOUS
10
85.979352999999989
20
-108.8412479999999931
11
85.3622819999999933
21
-109.0720919999999978
0
LINE
8
BLACK
6
CONTINUOUS
10
85.3622819999999933
20
-109.0720919999999978
11
84.73466599999999
21
-109.2609640000000013
0
LINE
8
BLACK
6
CONTINUOUS
10
84.73466599999999
20
-109.2609640000000013
11
84.0986159999999927
21
-109.407865000000001
0
LINE
8
BLACK
6
CONTINUOUS
10
84.0986159999999927
20
-109.407865000000001
11
83.456239999999994
21
-109.5127939999999995
0
LINE
8
BLACK
6
CONTINUOUS
10
83.456239999999994
20
-109.5127939999999995
11
82.8096469999999982
21
-109.5757519999999943
0
LINE
8
BLACK
6
CONTINUOUS
10
82.8096469999999982
20
-109.5757519999999943
11
82.1609440000000006
21
-109.5967369999999903
0
LINE
8
BLACK
6
CONTINUOUS
10
82.1609440000000006
20
-109.5967369999999903
11
81.5122420000000005
21
-109.5757519999999943
0
LINE
8
BLACK
6
CONTINUOUS
10
81.5122420000000005
20
-109.5757519999999943
11
80.8656479999999931
21
-109.5127939999999995
0
LINE
8
BLACK
6
CONTINUOUS
10
80.8656479999999931
20
-109.5127939999999995
11
80.2232719999999944
21
-109.407865000000001
0
LINE
8
BLACK
6
CONTINUOUS
10
80.2232719999999944
20
-109.407865000000001
11
79.587221999999997
21
-109.2609649999999988
0
LINE
8
BLACK
6
CONTINUOUS
10
79.587221999999997
20
-109.2609649999999988
11
78.9596069999999912
21
-109.0720919999999978
0
LINE
8
BLACK
6
CONTINUOUS
10
78.9596069999999912
20
-109.0720919999999978
11
78.3425359999999955
21
-108.8412479999999931
0
LINE
8
BLACK
6
CONTINUOUS
10
78.3425359999999955
20
-108.8412479999999931
11
77.7381170000000026
21
-108.5684329999999989
0
LINE
8
BLACK
6
CONTINUOUS
10
77.7381170000000026
20
-108.5684329999999989
11
77.1484590000000026
21
-108.2536449999999917
0
LINE
8
BLACK
6
CONTINUOUS
10
77.1484590000000026
20
-108.2536449999999917
11
76.861181000000002
21
-108.0813469999999938
0
LINE
8
BLACK
6
CONTINUOUS
10
76.861181000000002
20
-108.0813469999999938
11
76.5810129999999987
21
-107.9003790000000009
0
LINE
8
BLACK
6
CONTINUOUS
10
76.5810129999999987
20
-107.9003790000000009
11
76.3080879999999979
21
-107.710967999999994
0
LINE
8
BLACK
6
CONTINUOUS
10
76.3080879999999979
20
-107.710967999999994
11
76.0425359999999984
21
-107.5133429999999919
0
LINE
8
BLACK
6
CONTINUOUS
10
76.0425359999999984
20
-107.5133429999999919
11
75.784489999999991
21
-107.3077329999999989
0
LINE
8
BLACK
6
CONTINUOUS
10
75.784489999999991
20
-107.3077329999999989
11
75.5340819999999979
21
-107.0943649999999963
0
LINE
8
BLACK
6
CONTINUOUS
10
75.5340819999999979
20
-107.0943649999999963
11
75.291443000000001
21
-106.8734679999999884
0
LINE
8
BLACK
6
CONTINUOUS
10
75.291443000000001
20
-106.8734679999999884
11
75.0567049999999938
21
-106.6452709999999939
0
LINE
8
BLACK
6
CONTINUOUS
10
75.0567049999999938
20
-106.6452709999999939
11
74.8299999999999983
21
-106.4099999999999966
0
LINE
8
BLACK
6
CONTINUOUS
10
74.8299999999999983
20
-106.4099999999999966
11
74.6114599999999939
21
-106.1678849999999983
0
LINE
8
BLACK
6
CONTINUOUS
10
74.6114599999999939
20
-106.1678849999999983
11
74.4012159999999909
21
-105.9191549999999893
0
LINE
8
BLACK
6
CONTINUOUS
10
74.4012159999999909
20
-105.9191549999999893
11
74.1994009999999946
21
-105.6640359999999959
0
LINE
8
BLACK
6
CONTINUOUS
10
74.1994009999999946
20
-105.6640359999999959
11
74.0061450000000036
21
-105.4027579999999915
0
LINE
8
BLACK
6
CONTINUOUS
10
74.0061450000000036
20
-105.4027579999999915
11
73.8215819999999923
21
-105.135548
0
LINE
8
BLACK
6
CONTINUOUS
10
73.8215819999999923
20
-105.135548
11
73.6458409999999901
21
-104.8626359999999949
0
LINE
8
BLACK
6
CONTINUOUS
10
73.6458409999999901
20
-104.8626359999999949
11
73.4790569999999974
21
-104.5842489999999998
0
LINE
8
BLACK
6
CONTINUOUS
10
73.4790569999999974
20
-104.5842489999999998
11
73.3213590000000011
21
-104.3006149999999934
0
LINE
8
BLACK
6
CONTINUOUS
10
73.3213590000000011
20
-104.3006149999999934
11
73.1728809999999896
21
-104.0119639999999919
0
LINE
8
BLACK
6
CONTINUOUS
10
73.1728809999999896
20
-104.0119639999999919
11
73.0337529999999902
21
-103.718521999999993
0
LINE
8
BLACK
6
CONTINUOUS
10
73.0337529999999902
20
-103.718521999999993
11
72.9041069999999962
21
-103.4205189999999988
0
LINE
8
BLACK
6
CONTINUOUS
10
72.9041069999999962
20
-103.4205189999999988
11
72.7840759999999989
21
-103.1181819999999902
0
LINE
8
BLACK
6
CONTINUOUS
10
72.7840759999999989
20
-103.1181819999999902
11
72.6737909999999943
21
-102.8117400000000004
0
LINE
8
BLACK
6
CONTINUOUS
10
72.6737909999999943
20
-102.8117400000000004
11
72.5733839999999901
21
-102.5014219999999909
0
LINE
8
BLACK
6
CONTINUOUS
10
72.5733839999999901
20
-102.5014219999999909
11
72.4829869999999943
21
-102.1874549999999999
0
LINE
8
BLACK
6
CONTINUOUS
10
72.4829869999999943
20
-102.1874549999999999
11
72.4027310000000028
21
-101.8700669999999917
0
LINE
8
BLACK
6
CONTINUOUS
10
72.4027310000000028
20
-101.8700669999999917
11
72.3327479999999952
21
-101.5494879999999966
0
LINE
8
BLACK
6
CONTINUOUS
10
72.3327479999999952
20
-101.5494879999999966
11
72.2731699999999933
21
-101.2259449999999958
0
LINE
8
BLACK
6
CONTINUOUS
10
72.2731699999999933
20
-101.2259449999999958
11
72.2241300000000024
21
-100.8996659999999963
0
LINE
8
BLACK
6
CONTINUOUS
10
72.2241300000000024
20
-100.8996659999999963
11
72.1857569999999953
21
-100.5708800000000025
0
LINE
8
BLACK
6
CONTINUOUS
10
72.1857569999999953
20
-100.5708800000000025
11
72.1581850000000031
21
-100.2398159999999905
0
LINE
8
BLACK
6
CONTINUOUS
10
72.1581850000000031
20
-100.2398159999999905
11
72.1415449999999936
21
-99.9067000000000007
0
LINE
8
BLACK
6
CONTINUOUS
10
72.1415449999999936
20
-99.9067000000000007
11
72.1359700000000004
21
-99.5717619999999926
0
LINE
8
BLACK
6
CONTINUOUS
10
72.1359700000000004
20
-99.5717619999999926
11
72.1581850000000031
21
-98.9037089999999921
0
LINE
8
BLACK
6
CONTINUOUS
10
72.1581850000000031
20
-98.9037089999999921
11
72.2241300000000024
21
-98.2438579999999888
0
LINE
8
BLACK
6
CONTINUOUS
10
72.2241300000000024
20
-98.2438579999999888
11
72.3327479999999952
21
-97.5940360000000027
0
LINE
8
BLACK
6
CONTINUOUS
10
72.3327479999999952
20
-97.5940360000000027
11
72.4829869999999943
21
-96.9560689999999994
0
LINE
8
BLACK
6
CONTINUOUS
10
72.4829869999999943
20
-96.9560689999999994
11
72.6737909999999943
21
-96.3317830000000015
0
LINE
8
BLACK
6
CONTINUOUS
10
72.6737909999999943
20
-96.3317830000000015
11
72.9041069999999962
21
-95.7230050000000006
0
LINE
8
BLACK
6
CONTINUOUS
10
72.9041069999999962
20
-95.7230050000000006
11
73.1728809999999896
21
-95.1315599999999932
0
LINE
8
BLACK
6
CONTINUOUS
10
73.1728809999999896
20
-95.1315599999999932
11
73.4790569999999974
21
-94.559274000000002
0
LINE
8
BLACK
6
CONTINUOUS
10
73.4790569999999974
20
-94.559274000000002
11
73.8215819999999923
21
-94.0079750000000018
0
LINE
8
BLACK
6
CONTINUOUS
10
73.8215819999999923
20
-94.0079750000000018
11
74.1994009999999946
21
-93.4794869999999918
0
LINE
8
BLACK
6
CONTINUOUS
10
74.1994009999999946
20
-93.4794869999999918
11
74.6114599999999939
21
-92.9756379999999893
0
LINE
8
BLACK
6
CONTINUOUS
10
74.6114599999999939
20
-92.9756379999999893
11
75.0567049999999938
21
-92.4982519999999937
0
LINE
8
BLACK
6
CONTINUOUS
10
75.0567049999999938
20
-92.4982519999999937
11
75.5340819999999979
21
-92.0491579999999914
0
LINE
8
BLACK
6
CONTINUOUS
10
75.5340819999999979
20
-92.0491579999999914
11
76.0425359999999984
21
-91.6301789999999983
0
LINE
8
BLACK
6
CONTINUOUS
10
76.0425359999999984
20
-91.6301789999999983
11
76.5810129999999987
21
-91.2431440000000009
0
LINE
8
BLACK
6
CONTINUOUS
10
76.5810129999999987
20
-91.2431440000000009
11
77.1484590000000026
21
-90.889877999999996
0
LINE
8
BLACK
6
CONTINUOUS
10
77.1484590000000026
20
-90.889877999999996
11
77.7381170000000026
21
-90.575090000000003
0
LINE
8
BLACK
6
CONTINUOUS
10
77.7381170000000026
20
-90.575090000000003
11
78.3425359999999955
21
-90.302273999999997
0
LINE
8
BLACK
6
CONTINUOUS
10
78.3425359999999955
20
-90.302273999999997
11
78.9596069999999912
21
-90.0714299999999923
0
LINE
8
BLACK
6
CONTINUOUS
10
78.9596069999999912
20
-90.0714299999999923
11
79.587221999999997
21
-89.8825579999999889
0
LINE
8
BLACK
6
CONTINUOUS
10
79.587221999999997
20
-89.8825579999999889
11
80.2232719999999944
21
-89.7356569999999891
0
LINE
8
BLACK
6
CONTINUOUS
10
80.2232719999999944
20
-89.7356569999999891
11
80.8656479999999931
21
-89.6307279999999906
0
LINE
8
BLACK
6
CONTINUOUS
10
80.8656479999999931
20
-89.6307279999999906
11
81.5122420000000005
21
-89.5677709999999934
0
LINE
8
BLACK
6
CONTINUOUS
10
81.5122420000000005
20
-89.5677709999999934
11
82.1609440000000006
21
-89.5467849999999999
0
LINE
8
BLACK
6
CONTINUOUS
10
82.1609440000000006
20
-89.5467849999999999
11
82.8096469999999982
21
-89.5677709999999934
0
LINE
8
BLACK
6
CONTINUOUS
10
153.5506890000000055
20
-89.7071359999999913
11
154.1972829999999988
21
-89.7700940000000003
0
LINE
8
BLACK
6
CONTINUOUS
10
154.1972829999999988
20
-89.7700940000000003
11
154.8396599999999808
21
-89.8750229999999988
0
LINE
8
BLACK
6
CONTINUOUS
10
154.8396599999999808
20
-89.8750229999999988
11
155.4757109999999898
21
-90.021923000000001
0
LINE
8
BLACK
6
CONTINUOUS
10
155.4757109999999898
20
-90.021923000000001
11
156.1033280000000047
21
-90.2107949999999903
0
LINE
8
BLACK
6
CONTINUOUS
10
156.1033280000000047
20
-90.2107949999999903
11
156.7204020000000071
21
-90.441638999999995
0
LINE
8
BLACK
6
CONTINUOUS
10
156.7204020000000071
20
-90.441638999999995
11
157.3248240000000067
21
-90.7144539999999893
0
LINE
8
BLACK
6
CONTINUOUS
10
157.3248240000000067
20
-90.7144539999999893
11
157.9144859999999824
21
-91.0292400000000015
0
LINE
8
BLACK
6
CONTINUOUS
10
157.9144859999999824
20
-91.0292400000000015
11
158.2017620000000022
21
-91.2015379999999993
0
LINE
8
BLACK
6
CONTINUOUS
10
158.2017620000000022
20
-91.2015379999999993
11
158.4819279999999821
21
-91.3825069999999897
0
LINE
8
BLACK
6
CONTINUOUS
10
158.4819279999999821
20
-91.3825069999999897
11
158.7548510000000022
21
-91.5719179999999966
0
LINE
8
BLACK
6
CONTINUOUS
10
158.7548510000000022
20
-91.5719179999999966
11
159.02040199999999
21
-91.7695420000000013
0
LINE
8
BLACK
6
CONTINUOUS
10
159.02040199999999
20
-91.7695420000000013
11
159.2784460000000024
21
-91.9751529999999917
0
LINE
8
BLACK
6
CONTINUOUS
10
159.2784460000000024
20
-91.9751529999999917
11
159.528852999999998
21
-92.1885209999999944
0
LINE
8
BLACK
6
CONTINUOUS
10
159.528852999999998
20
-92.1885209999999944
11
159.7714909999999975
21
-92.4094169999999906
0
LINE
8
BLACK
6
CONTINUOUS
10
159.7714909999999975
20
-92.4094169999999906
11
160.006227999999993
21
-92.6376149999999967
0
LINE
8
BLACK
6
CONTINUOUS
10
160.006227999999993
20
-92.6376149999999967
11
160.2329330000000027
21
-92.8728859999999941
0
LINE
8
BLACK
6
CONTINUOUS
10
160.2329330000000027
20
-92.8728859999999941
11
160.4514719999999954
21
-93.1150009999999924
0
LINE
8
BLACK
6
CONTINUOUS
10
160.4514719999999954
20
-93.1150009999999924
11
160.6617159999999842
21
-93.3637310000000014
0
LINE
8
BLACK
6
CONTINUOUS
10
160.6617159999999842
20
-93.3637310000000014
11
160.8635309999999947
21
-93.6188499999999948
0
LINE
8
BLACK
6
CONTINUOUS
10
160.8635309999999947
20
-93.6188499999999948
11
161.0567869999999857
21
-93.8801279999999991
0
LINE
8
BLACK
6
CONTINUOUS
10
161.0567869999999857
20
-93.8801279999999991
11
161.2413499999999829
21
-94.1473379999999906
0
LINE
8
BLACK
6
CONTINUOUS
10
161.2413499999999829
20
-94.1473379999999906
11
161.4170900000000017
21
-94.4202499999999958
0
LINE
8
BLACK
6
CONTINUOUS
10
161.4170900000000017
20
-94.4202499999999958
11
161.5838750000000061
21
-94.6986369999999908
0
LINE
8
BLACK
6
CONTINUOUS
10
161.5838750000000061
20
-94.6986369999999908
11
161.7415729999999883
21
-94.9822709999999972
0
LINE
8
BLACK
6
CONTINUOUS
10
161.7415729999999883
20
-94.9822709999999972
11
161.8900519999999972
21
-95.2709229999999963
0
LINE
8
BLACK
6
CONTINUOUS
10
161.8900519999999972
20
-95.2709229999999963
11
162.0291799999999967
21
-95.5643639999999976
0
LINE
8
BLACK
6
CONTINUOUS
10
162.0291799999999967
20
-95.5643639999999976
11
162.1588260000000048
21
-95.8623669999999919
0
LINE
8
BLACK
6
CONTINUOUS
10
162.1588260000000048
20
-95.8623669999999919
11
162.2788569999999879
21
-96.1647040000000004
0
LINE
8
BLACK
6
CONTINUOUS
10
162.2788569999999879
20
-96.1647040000000004
11
162.38914299999999
21
-96.4711459999999903
0
LINE
8
BLACK
6
CONTINUOUS
10
162.38914299999999
20
-96.4711459999999903
11
162.4895499999999799
21
-96.7814639999999997
0
LINE
8
BLACK
6
CONTINUOUS
10
162.4895499999999799
20
-96.7814639999999997
11
162.5799480000000017
21
-97.0954309999999907
0
LINE
8
BLACK
6
CONTINUOUS
10
162.5799480000000017
20
-97.0954309999999907
11
162.6602039999999931
21
-97.4128180000000015
0
LINE
8
BLACK
6
CONTINUOUS
10
162.6602039999999931
20
-97.4128180000000015
11
162.7301870000000008
21
-97.733397999999994
0
LINE
8
BLACK
6
CONTINUOUS
10
162.7301870000000008
20
-97.733397999999994
11
162.7897649999999885
21
-98.0569409999999948
0
LINE
8
BLACK
6
CONTINUOUS
10
162.7897649999999885
20
-98.0569409999999948
11
162.8388070000000027
21
-98.3832189999999969
0
LINE
8
BLACK
6
CONTINUOUS
10
162.8388070000000027
20
-98.3832189999999969
11
162.8771789999999839
21
-98.7120039999999932
0
LINE
8
BLACK
6
CONTINUOUS
10
162.8771789999999839
20
-98.7120039999999932
11
162.9047510000000045
21
-99.0430689999999885
0
LINE
8
BLACK
6
CONTINUOUS
10
162.9047510000000045
20
-99.0430689999999885
11
162.9213909999999998
21
-99.376183999999995
0
LINE
8
BLACK
6
CONTINUOUS
10
162.9213909999999998
20
-99.376183999999995
11
162.9269669999999905
21
-99.7111209999999915
0
LINE
8
BLACK
6
CONTINUOUS
10
162.9269669999999905
20
-99.7111209999999915
11
162.9047510000000045
21
-100.3791749999999894
0
LINE
8
BLACK
6
CONTINUOUS
10
162.9047510000000045
20
-100.3791749999999894
11
162.8388070000000027
21
-101.0390259999999927
0
LINE
8
BLACK
6
CONTINUOUS
10
162.8388070000000027
20
-101.0390259999999927
11
162.7301870000000008
21
-101.6888489999999905
0
LINE
8
BLACK
6
CONTINUOUS
10
162.7301870000000008
20
-101.6888489999999905
11
162.5799480000000017
21
-102.3268159999999938
0
LINE
8
BLACK
6
CONTINUOUS
10
162.5799480000000017
20
-102.3268159999999938
11
162.38914299999999
21
-102.9511019999999917
0
LINE
8
BLACK
6
CONTINUOUS
10
162.38914299999999
20
-102.9511019999999917
11
162.1588260000000048
21
-103.5598809999999901
0
LINE
8
BLACK
6
CONTINUOUS
10
162.1588260000000048
20
-103.5598809999999901
11
161.8900519999999972
21
-104.1513269999999949
0
LINE
8
BLACK
6
CONTINUOUS
10
161.8900519999999972
20
-104.1513269999999949
11
161.5838750000000061
21
-104.7236130000000003
0
LINE
8
BLACK
6
CONTINUOUS
10
161.5838750000000061
20
-104.7236130000000003
11
161.2413499999999829
21
-105.274912999999998
0
LINE
8
BLACK
6
CONTINUOUS
10
161.2413499999999829
20
-105.274912999999998
11
160.8635309999999947
21
-105.8034009999999938
0
LINE
8
BLACK
6
CONTINUOUS
10
160.8635309999999947
20
-105.8034009999999938
11
160.4514719999999954
21
-106.3072509999999937
0
LINE
8
BLACK
6
CONTINUOUS
10
160.4514719999999954
20
-106.3072509999999937
11
160.006227999999993
21
-106.7846369999999894
0
LINE
8
BLACK
6
CONTINUOUS
10
160.006227999999993
20
-106.7846369999999894
11
159.528852999999998
21
-107.2337319999999892
0
LINE
8
BLACK
6
CONTINUOUS
10
159.528852999999998
20
-107.2337319999999892
11
159.02040199999999
21
-107.6527109999999965
0
LINE
8
BLACK
6
CONTINUOUS
10
159.02040199999999
20
-107.6527109999999965
11
158.4819279999999821
21
-108.0397469999999913
0
LINE
8
BLACK
6
CONTINUOUS
10
158.4819279999999821
20
-108.0397469999999913
11
157.9144859999999824
21
-108.3930139999999938
0
LINE
8
BLACK
6
CONTINUOUS
10
157.9144859999999824
20
-108.3930139999999938
11
157.3248240000000067
21
-108.7078009999999892
0
LINE
8
BLACK
6
CONTINUOUS
10
157.3248240000000067
20
-108.7078009999999892
11
156.7204020000000071
21
-108.9806159999999977
0
LINE
8
BLACK
6
CONTINUOUS
10
156.7204020000000071
20
-108.9806159999999977
11
156.1033290000000022
21
-109.2114589999999907
0
LINE
8
BLACK
6
CONTINUOUS
10
156.1033290000000022
20
-109.2114589999999907
11
155.4757119999999873
21
-109.4003309999999942
0
LINE
8
BLACK
6
CONTINUOUS
10
155.4757119999999873
20
-109.4003309999999942
11
154.8396620000000041
21
-109.5472319999999939
0
LINE
8
BLACK
6
CONTINUOUS
10
154.8396620000000041
20
-109.5472319999999939
11
154.1972859999999912
21
-109.6521609999999924
0
LINE
8
BLACK
6
CONTINUOUS
10
154.1972859999999912
20
-109.6521609999999924
11
153.550691999999998
21
-109.7151179999999897
0
LINE
8
BLACK
6
CONTINUOUS
10
153.550691999999998
20
-109.7151179999999897
11
152.9019909999999811
21
-109.7361039999999974
0
LINE
8
BLACK
6
CONTINUOUS
10
152.9019909999999811
20
-109.7361039999999974
11
152.2532889999999952
21
-109.7151179999999897
0
LINE
8
BLACK
6
CONTINUOUS
10
152.2532889999999952
20
-109.7151179999999897
11
151.6066959999999995
21
-109.6521609999999924
0
LINE
8
BLACK
6
CONTINUOUS
10
151.6066959999999995
20
-109.6521609999999924
11
150.964320999999984
21
-109.5472319999999939
0
LINE
8
BLACK
6
CONTINUOUS
10
150.964320999999984
20
-109.5472319999999939
11
150.3282719999999983
21
-109.4003309999999942
0
LINE
8
BLACK
6
CONTINUOUS
10
150.3282719999999983
20
-109.4003309999999942
11
149.7006570000000067
21
-109.2114589999999907
0
LINE
8
BLACK
6
CONTINUOUS
10
149.7006570000000067
20
-109.2114589999999907
11
149.0835849999999994
21
-108.9806159999999977
0
LINE
8
BLACK
6
CONTINUOUS
10
149.0835849999999994
20
-108.9806159999999977
11
148.4791659999999922
21
-108.7078009999999892
0
LINE
8
BLACK
6
CONTINUOUS
10
148.4791659999999922
20
-108.7078009999999892
11
147.8895069999999805
21
-108.3930139999999938
0
LINE
8
BLACK
6
CONTINUOUS
10
147.8895069999999805
20
-108.3930139999999938
11
147.6022299999999916
21
-108.2207149999999984
0
LINE
8
BLACK
6
CONTINUOUS
10
147.6022299999999916
20
-108.2207149999999984
11
147.3220639999999833
21
-108.0397469999999913
0
LINE
8
BLACK
6
CONTINUOUS
10
147.3220639999999833
20
-108.0397469999999913
11
147.0491389999999967
21
-107.8503359999999986
0
LINE
8
BLACK
6
CONTINUOUS
10
147.0491389999999967
20
-107.8503359999999986
11
146.7835890000000063
21
-107.6527109999999965
0
LINE
8
BLACK
6
CONTINUOUS
10
146.7835890000000063
20
-107.6527109999999965
11
146.525542999999999
21
-107.4470999999999918
0
LINE
8
BLACK
6
CONTINUOUS
10
146.525542999999999
20
-107.4470999999999918
11
146.2751360000000034
21
-107.2337319999999892
0
LINE
8
BLACK
6
CONTINUOUS
10
146.2751360000000034
20
-107.2337319999999892
11
146.0324970000000064
21
-107.0128349999999955
0
LINE
8
BLACK
6
CONTINUOUS
10
146.0324970000000064
20
-107.0128349999999955
11
145.7977599999999825
21
-106.7846369999999894
0
LINE
8
BLACK
6
CONTINUOUS
10
145.7977599999999825
20
-106.7846369999999894
11
145.5710550000000012
21
-106.549365999999992
0
LINE
8
BLACK
6
CONTINUOUS
10
145.5710550000000012
20
-106.549365999999992
11
145.3525149999999826
21
-106.3072509999999937
0
LINE
8
BLACK
6
CONTINUOUS
10
145.3525149999999826
20
-106.3072509999999937
11
145.1422709999999938
21
-106.0585200000000015
0
LINE
8
BLACK
6
CONTINUOUS
10
145.1422709999999938
20
-106.0585200000000015
11
144.9404559999999833
21
-105.8034009999999938
0
LINE
8
BLACK
6
CONTINUOUS
10
144.9404559999999833
20
-105.8034009999999938
11
144.7471999999999923
21
-105.542121999999992
0
LINE
8
BLACK
6
CONTINUOUS
10
144.7471999999999923
20
-105.542121999999992
11
144.5626359999999977
21
-105.274912999999998
0
LINE
8
BLACK
6
CONTINUOUS
10
144.5626359999999977
20
-105.274912999999998
11
144.3868960000000072
21
-105.0019999999999953
0
LINE
8
BLACK
6
CONTINUOUS
10
144.3868960000000072
20
-105.0019999999999953
11
144.2201110000000028
21
-104.7236130000000003
0
LINE
8
BLACK
6
CONTINUOUS
10
144.2201110000000028
20
-104.7236130000000003
11
144.0624129999999923
21
-104.4399789999999939
0
LINE
8
BLACK
6
CONTINUOUS
10
144.0624129999999923
20
-104.4399789999999939
11
143.9139339999999834
21
-104.1513269999999949
0
LINE
8
BLACK
6
CONTINUOUS
10
143.9139339999999834
20
-104.1513269999999949
11
143.7748049999999864
21
-103.857884999999996
0
LINE
8
BLACK
6
CONTINUOUS
10
143.7748049999999864
20
-103.857884999999996
11
143.6451600000000042
21
-103.5598809999999901
0
LINE
8
BLACK
6
CONTINUOUS
10
143.6451600000000042
20
-103.5598809999999901
11
143.5251279999999952
21
-103.2575439999999958
0
LINE
8
BLACK
6
CONTINUOUS
10
143.5251279999999952
20
-103.2575439999999958
11
143.4148429999999905
21
-102.9511019999999917
0
LINE
8
BLACK
6
CONTINUOUS
10
143.4148429999999905
20
-102.9511019999999917
11
143.3144350000000031
21
-102.6407839999999965
0
LINE
8
BLACK
6
CONTINUOUS
10
143.3144350000000031
20
-102.6407839999999965
11
143.2240369999999814
21
-102.3268159999999938
0
LINE
8
BLACK
6
CONTINUOUS
10
143.2240369999999814
20
-102.3268159999999938
11
143.1437809999999899
21
-102.0094279999999998
0
LINE
8
BLACK
6
CONTINUOUS
10
143.1437809999999899
20
-102.0094279999999998
11
143.0737979999999823
21
-101.6888489999999905
0
LINE
8
BLACK
6
CONTINUOUS
10
143.0737979999999823
20
-101.6888489999999905
11
143.0142199999999946
21
-101.3653049999999922
0
LINE
8
BLACK
6
CONTINUOUS
10
143.0142199999999946
20
-101.3653049999999922
11
142.9651779999999803
21
-101.0390259999999927
0
LINE
8
BLACK
6
CONTINUOUS
10
142.9651779999999803
20
-101.0390259999999927
11
142.9268059999999991
21
-100.7102399999999989
0
LINE
8
BLACK
6
CONTINUOUS
10
142.9268059999999991
20
-100.7102399999999989
11
142.899234000000007
21
-100.3791749999999894
0
LINE
8
BLACK
6
CONTINUOUS
10
142.899234000000007
20
-100.3791749999999894
11
142.8825939999999832
21
-100.0460599999999971
0
LINE
8
BLACK
6
CONTINUOUS
10
142.8825939999999832
20
-100.0460599999999971
11
142.8770179999999925
21
-99.7111209999999915
0
LINE
8
BLACK
6
CONTINUOUS
10
142.8770179999999925
20
-99.7111209999999915
11
142.899234000000007
21
-99.0430689999999885
0
LINE
8
BLACK
6
CONTINUOUS
10
142.899234000000007
20
-99.0430689999999885
11
142.9651779999999803
21
-98.3832189999999969
0
LINE
8
BLACK
6
CONTINUOUS
10
142.9651779999999803
20
-98.3832189999999969
11
143.0737979999999823
21
-97.733397999999994
0
LINE
8
BLACK
6
CONTINUOUS
10
143.0737979999999823
20
-97.733397999999994
11
143.2240369999999814
21
-97.0954320000000024
0
LINE
8
BLACK
6
CONTINUOUS
10
143.2240369999999814
20
-97.0954320000000024
11
143.414841999999993
21
-96.471147000000002
0
LINE
8
BLACK
6
CONTINUOUS
10
143.414841999999993
20
-96.471147000000002
11
143.6451590000000067
21
-95.8623690000000011
0
LINE
8
BLACK
6
CONTINUOUS
10
143.6451590000000067
20
-95.8623690000000011
11
143.9139329999999859
21
-95.2709239999999937
0
LINE
8
BLACK
6
CONTINUOUS
10
143.9139329999999859
20
-95.2709239999999937
11
144.2201100000000054
21
-94.698639
0
LINE
8
BLACK
6
CONTINUOUS
10
144.2201100000000054
20
-94.698639
11
144.5626350000000002
21
-94.1473399999999998
0
LINE
8
BLACK
6
CONTINUOUS
10
144.5626350000000002
20
-94.1473399999999998
11
144.9404539999999884
21
-93.6188530000000014
0
LINE
8
BLACK
6
CONTINUOUS
10
144.9404539999999884
20
-93.6188530000000014
11
145.3525119999999902
21
-93.115003999999999
0
LINE
8
BLACK
6
CONTINUOUS
10
145.3525119999999902
20
-93.115003999999999
11
145.7977569999999901
21
-92.6376190000000008
0
LINE
8
BLACK
6
CONTINUOUS
10
145.7977569999999901
20
-92.6376190000000008
11
146.2751319999999851
21
-92.188524000000001
0
LINE
8
BLACK
6
CONTINUOUS
10
146.2751319999999851
20
-92.188524000000001
11
146.783582999999993
21
-91.7695459999999912
0
LINE
8
BLACK
6
CONTINUOUS
10
146.783582999999993
20
-91.7695459999999912
11
147.3220570000000009
21
-91.3825109999999938
0
LINE
8
BLACK
6
CONTINUOUS
10
147.3220570000000009
20
-91.3825109999999938
11
147.8894990000000007
21
-91.0292439999999914
0
LINE
8
BLACK
6
CONTINUOUS
10
147.8894990000000007
20
-91.0292439999999914
11
148.479157999999984
21
-90.7144569999999959
0
LINE
8
BLACK
6
CONTINUOUS
10
148.479157999999984
20
-90.7144569999999959
11
149.0835779999999886
21
-90.44164099999999
0
LINE
8
BLACK
6
CONTINUOUS
10
149.0835779999999886
20
-90.44164099999999
11
149.700649999999996
21
-90.2107969999999995
0
LINE
8
BLACK
6
CONTINUOUS
10
149.700649999999996
20
-90.2107969999999995
11
150.3282649999999876
21
-90.021924999999996
0
LINE
8
BLACK
6
CONTINUOUS
10
150.3282649999999876
20
-90.021924999999996
11
150.9643149999999991
21
-89.8750239999999962
0
LINE
8
BLACK
6
CONTINUOUS
10
150.9643149999999991
20
-89.8750239999999962
11
151.6066909999999837
21
-89.7700940000000003
0
LINE
8
BLACK
6
CONTINUOUS
10
151.6066909999999837
20
-89.7700940000000003
11
152.2532839999999794
21
-89.707137000000003
0
LINE
8
BLACK
6
CONTINUOUS
10
152.2532839999999794
20
-89.707137000000003
11
152.9019869999999912
21
-89.6861509999999953
0
LINE
8
BLACK
6
CONTINUOUS
10
152.9019869999999912
20
-89.6861509999999953
11
153.5506890000000055
21
-89.7071359999999913
0
CIRCLE
8
BLACK
10
114.5520779999999945
20
-48.6679949999999977
40
2.54
0
LINE
8
BLACK
6
CONTINUOUS
10
193.039999999999992
20
-45.7199999999999989
11
193.039999999999992
21
-55.8799999999999955
0
LINE
8
BLACK
6
CONTINUOUS
10
185.3571619999999882
20
-89.6437339999999949
11
186.003754999999984
21
-89.7066909999999922
0
LINE
8
BLACK
6
CONTINUOUS
10
186.003754999999984
20
-89.7066909999999922
11
186.6461309999999969
21
-89.8116199999999907
0
LINE
8
BLACK
6
CONTINUOUS
10
186.6461309999999969
20
-89.8116199999999907
11
187.28218099999998
21
-89.9585209999999904
0
LINE
8
BLACK
6
CONTINUOUS
10
187.28218099999998
20
-89.9585209999999904
11
187.9097969999999975
21
-90.1473929999999939
0
LINE
8
BLACK
6
CONTINUOUS
10
187.9097969999999975
20
-90.1473929999999939
11
188.526867999999979
21
-90.3782369999999986
0
LINE
8
BLACK
6
CONTINUOUS
10
188.526867999999979
20
-90.3782369999999986
11
189.1312869999999862
21
-90.6510529999999903
0
LINE
8
BLACK
6
CONTINUOUS
10
189.1312869999999862
20
-90.6510529999999903
11
189.7209450000000004
21
-90.9658409999999975
0
LINE
8
BLACK
6
CONTINUOUS
10
189.7209450000000004
20
-90.9658409999999975
11
190.0082219999999893
21
-91.1381389999999953
0
LINE
8
BLACK
6
CONTINUOUS
10
190.0082219999999893
20
-91.1381389999999953
11
190.2883889999999951
21
-91.3191070000000025
0
LINE
8
BLACK
6
CONTINUOUS
10
190.2883889999999951
20
-91.3191070000000025
11
190.5613139999999817
21
-91.5085179999999951
0
LINE
8
BLACK
6
CONTINUOUS
10
190.5613139999999817
20
-91.5085179999999951
11
190.826864999999998
21
-91.7061419999999998
0
LINE
8
BLACK
6
CONTINUOUS
10
190.826864999999998
20
-91.7061419999999998
11
191.0849110000000053
21
-91.9117529999999903
0
LINE
8
BLACK
6
CONTINUOUS
10
191.0849110000000053
20
-91.9117529999999903
11
191.3353189999999984
21
-92.1251209999999929
0
LINE
8
BLACK
6
CONTINUOUS
10
191.3353189999999984
20
-92.1251209999999929
11
191.5779579999999953
21
-92.3460169999999891
0
LINE
8
BLACK
6
CONTINUOUS
10
191.5779579999999953
20
-92.3460169999999891
11
191.8126949999999908
21
-92.5742149999999953
0
LINE
8
BLACK
6
CONTINUOUS
10
191.8126949999999908
20
-92.5742149999999953
11
192.0394000000000005
21
-92.8094859999999926
0
LINE
8
BLACK
6
CONTINUOUS
10
192.0394000000000005
20
-92.8094859999999926
11
192.2579399999999907
21
-93.0516009999999909
0
LINE
8
BLACK
6
CONTINUOUS
10
192.2579399999999907
20
-93.0516009999999909
11
192.4681839999999795
21
-93.3003309999999999
0
LINE
8
BLACK
6
CONTINUOUS
10
192.4681839999999795
20
-93.3003309999999999
11
192.6699999999999875
21
-93.5554499999999933
0
LINE
8
BLACK
6
CONTINUOUS
10
192.6699999999999875
20
-93.5554499999999933
11
192.863254999999981
21
-93.8167279999999977
0
LINE
8
BLACK
6
CONTINUOUS
10
192.863254999999981
20
-93.8167279999999977
11
193.0478190000000041
21
-94.0839379999999892
0
LINE
8
BLACK
6
CONTINUOUS
10
193.0478190000000041
20
-94.0839379999999892
11
193.2235589999999945
21
-94.3568499999999943
0
LINE
8
BLACK
6
CONTINUOUS
10
193.2235589999999945
20
-94.3568499999999943
11
193.3903439999999989
21
-94.6352369999999894
0
LINE
8
BLACK
6
CONTINUOUS
10
193.3903439999999989
20
-94.6352369999999894
11
193.548041999999981
21
-94.9188709999999958
0
LINE
8
BLACK
6
CONTINUOUS
10
193.548041999999981
20
-94.9188709999999958
11
193.69652099999999
21
-95.2075229999999948
0
LINE
8
BLACK
6
CONTINUOUS
10
193.69652099999999
20
-95.2075229999999948
11
193.8356489999999894
21
-95.5009639999999962
0
LINE
8
BLACK
6
CONTINUOUS
10
193.8356489999999894
20
-95.5009639999999962
11
193.9652940000000001
21
-95.7989680000000021
0
LINE
8
BLACK
6
CONTINUOUS
10
193.9652940000000001
20
-95.7989680000000021
11
194.0853259999999807
21
-96.101303999999999
0
LINE
8
BLACK
6
CONTINUOUS
10
194.0853259999999807
20
-96.101303999999999
11
194.1956109999999853
21
-96.4077459999999888
0
LINE
8
BLACK
6
CONTINUOUS
10
194.1956109999999853
20
-96.4077459999999888
11
194.2960180000000037
21
-96.7180649999999957
0
LINE
8
BLACK
6
CONTINUOUS
10
194.2960180000000037
20
-96.7180649999999957
11
194.386415999999997
21
-97.0320320000000009
0
LINE
8
BLACK
6
CONTINUOUS
10
194.386415999999997
20
-97.0320320000000009
11
194.4666719999999884
21
-97.349419999999995
0
LINE
8
BLACK
6
CONTINUOUS
10
194.4666719999999884
20
-97.349419999999995
11
194.5366549999999961
21
-97.66999899999999
0
LINE
8
BLACK
6
CONTINUOUS
10
194.5366549999999961
20
-97.66999899999999
11
194.5962329999999838
21
-97.9935419999999908
0
LINE
8
BLACK
6
CONTINUOUS
10
194.5962329999999838
20
-97.9935419999999908
11
194.6452740000000006
21
-98.3198209999999904
0
LINE
8
BLACK
6
CONTINUOUS
10
194.6452740000000006
20
-98.3198209999999904
11
194.6836459999999818
21
-98.6486069999999984
0
LINE
8
BLACK
6
CONTINUOUS
10
194.6836459999999818
20
-98.6486069999999984
11
194.7112180000000023
21
-98.9796719999999937
0
LINE
8
BLACK
6
CONTINUOUS
10
194.7112180000000023
20
-98.9796719999999937
11
194.7278579999999977
21
-99.3127870000000001
0
LINE
8
BLACK
6
CONTINUOUS
10
194.7278579999999977
20
-99.3127870000000001
11
194.7334339999999884
21
-99.6477249999999941
0
LINE
8
BLACK
6
CONTINUOUS
10
194.7334339999999884
20
-99.6477249999999941
11
194.7112180000000023
21
-100.315778999999992
0
LINE
8
BLACK
6
CONTINUOUS
10
194.7112180000000023
20
-100.315778999999992
11
194.6452740000000006
21
-100.9756289999999979
0
LINE
8
BLACK
6
CONTINUOUS
10
194.6452740000000006
20
-100.9756289999999979
11
194.5366549999999961
21
-101.6254509999999982
0
LINE
8
BLACK
6
CONTINUOUS
10
194.5366549999999961
20
-101.6254509999999982
11
194.386415999999997
21
-102.2634180000000015
0
LINE
8
BLACK
6
CONTINUOUS
10
194.386415999999997
20
-102.2634180000000015
11
194.1956109999999853
21
-102.8877039999999994
0
LINE
8
BLACK
6
CONTINUOUS
10
194.1956109999999853
20
-102.8877039999999994
11
193.9652940000000001
21
-103.4964820000000003
0
LINE
8
BLACK
6
CONTINUOUS
10
193.9652940000000001
20
-103.4964820000000003
11
193.69652099999999
21
-104.0879269999999934
0
LINE
8
BLACK
6
CONTINUOUS
10
193.69652099999999
20
-104.0879269999999934
11
193.3903439999999989
21
-104.6602129999999988
0
LINE
8
BLACK
6
CONTINUOUS
10
193.3903439999999989
20
-104.6602129999999988
11
193.0478190000000041
21
-105.211511999999999
0
LINE
8
BLACK
6
CONTINUOUS
10
193.0478190000000041
20
-105.211511999999999
11
192.6699999999999875
21
-105.7399999999999949
0
LINE
8
BLACK
6
CONTINUOUS
10
192.6699999999999875
20
-105.7399999999999949
11
192.2579399999999907
21
-106.2438489999999973
0
LINE
8
BLACK
6
CONTINUOUS
10
192.2579399999999907
20
-106.2438489999999973
11
191.8126949999999908
21
-106.7212339999999955
0
LINE
8
BLACK
6
CONTINUOUS
10
191.8126949999999908
20
-106.7212339999999955
11
191.3353189999999984
21
-107.1703289999999953
0
LINE
8
BLACK
6
CONTINUOUS
10
191.3353189999999984
20
-107.1703289999999953
11
190.826864999999998
21
-107.5893069999999909
0
LINE
8
BLACK
6
CONTINUOUS
10
190.826864999999998
20
-107.5893069999999909
11
190.2883889999999951
21
-107.9763419999999883
0
LINE
8
BLACK
6
CONTINUOUS
10
190.2883889999999951
20
-107.9763419999999883
11
189.7209450000000004
21
-108.3296079999999932
0
LINE
8
BLACK
6
CONTINUOUS
10
189.7209450000000004
20
-108.3296079999999932
11
189.1312869999999862
21
-108.6443949999999887
0
LINE
8
BLACK
6
CONTINUOUS
10
189.1312869999999862
20
-108.6443949999999887
11
188.526867999999979
21
-108.9172109999999947
0
LINE
8
BLACK
6
CONTINUOUS
10
188.526867999999979
20
-108.9172109999999947
11
187.9097969999999975
21
-109.1480549999999994
0
LINE
8
BLACK
6
CONTINUOUS
10
187.9097969999999975
20
-109.1480549999999994
11
187.28218099999998
21
-109.3369269999999887
0
LINE
8
BLACK
6
CONTINUOUS
10
187.28218099999998
20
-109.3369269999999887
11
186.6461309999999969
21
-109.4838279999999884
0
LINE
8
BLACK
6
CONTINUOUS
10
186.6461309999999969
20
-109.4838279999999884
11
186.003754999999984
21
-109.5887570000000011
0
LINE
8
BLACK
6
CONTINUOUS
10
186.003754999999984
20
-109.5887570000000011
11
185.3571619999999882
21
-109.6517149999999958
0
LINE
8
BLACK
6
CONTINUOUS
10
185.3571619999999882
20
-109.6517149999999958
11
184.7084590000000048
21
-109.6726999999999919
0
LINE
8
BLACK
6
CONTINUOUS
10
184.7084590000000048
20
-109.6726999999999919
11
184.0597569999999905
21
-109.6517149999999958
0
LINE
8
BLACK
6
CONTINUOUS
10
184.0597569999999905
20
-109.6517149999999958
11
183.4131629999999973
21
-109.5887570000000011
0
LINE
8
BLACK
6
CONTINUOUS
10
183.4131629999999973
20
-109.5887570000000011
11
182.7707869999999843
21
-109.4838279999999884
0
LINE
8
BLACK
6
CONTINUOUS
10
182.7707869999999843
20
-109.4838279999999884
11
182.1347370000000012
21
-109.3369280000000003
0
LINE
8
BLACK
6
CONTINUOUS
10
182.1347370000000012
20
-109.3369280000000003
11
181.5071219999999812
21
-109.1480549999999994
0
LINE
8
BLACK
6
CONTINUOUS
10
181.5071219999999812
20
-109.1480549999999994
11
180.8900509999999997
21
-108.9172109999999947
0
LINE
8
BLACK
6
CONTINUOUS
10
180.8900509999999997
20
-108.9172109999999947
11
180.2856319999999926
21
-108.6443960000000004
0
LINE
8
BLACK
6
CONTINUOUS
10
180.2856319999999926
20
-108.6443960000000004
11
179.6959739999999783
21
-108.3296079999999932
0
LINE
8
BLACK
6
CONTINUOUS
10
179.6959739999999783
20
-108.3296079999999932
11
179.408695999999992
21
-108.1573099999999954
0
LINE
8
BLACK
6
CONTINUOUS
10
179.408695999999992
20
-108.1573099999999954
11
179.1285279999999887
21
-107.9763419999999883
0
LINE
8
BLACK
6
CONTINUOUS
10
179.1285279999999887
20
-107.9763419999999883
11
178.8556030000000021
21
-107.7869309999999956
0
LINE
8
BLACK
6
CONTINUOUS
10
178.8556030000000021
20
-107.7869309999999956
11
178.5900509999999883
21
-107.5893059999999934
0
LINE
8
BLACK
6
CONTINUOUS
10
178.5900509999999883
20
-107.5893059999999934
11
178.332004999999981
21
-107.3836960000000005
0
LINE
8
BLACK
6
CONTINUOUS
10
178.332004999999981
20
-107.3836960000000005
11
178.0815969999999879
21
-107.1703279999999978
0
LINE
8
BLACK
6
CONTINUOUS
10
178.0815969999999879
20
-107.1703279999999978
11
177.838957999999991
21
-106.9494309999999899
0
LINE
8
BLACK
6
CONTINUOUS
10
177.838957999999991
20
-106.9494309999999899
11
177.604219999999998
21
-106.7212339999999955
0
LINE
8
BLACK
6
CONTINUOUS
10
177.604219999999998
20
-106.7212339999999955
11
177.3775149999999883
21
-106.4859629999999981
0
LINE
8
BLACK
6
CONTINUOUS
10
177.3775149999999883
20
-106.4859629999999981
11
177.1589749999999981
21
-106.2438479999999998
0
LINE
8
BLACK
6
CONTINUOUS
10
177.1589749999999981
20
-106.2438479999999998
11
176.9487309999999809
21
-105.9951179999999908
0
LINE
8
BLACK
6
CONTINUOUS
10
176.9487309999999809
20
-105.9951179999999908
11
176.7469159999999988
21
-105.7399989999999974
0
LINE
8
BLACK
6
CONTINUOUS
10
176.7469159999999988
20
-105.7399989999999974
11
176.5536599999999794
21
-105.4787209999999931
0
LINE
8
BLACK
6
CONTINUOUS
10
176.5536599999999794
20
-105.4787209999999931
11
176.3690969999999822
21
-105.2115110000000016
0
LINE
8
BLACK
6
CONTINUOUS
10
176.3690969999999822
20
-105.2115110000000016
11
176.1933559999999943
21
-104.9385989999999964
0
LINE
8
BLACK
6
CONTINUOUS
10
176.1933559999999943
20
-104.9385989999999964
11
176.0265719999999874
21
-104.6602120000000014
0
LINE
8
BLACK
6
CONTINUOUS
10
176.0265719999999874
20
-104.6602120000000014
11
175.8688740000000053
21
-104.376577999999995
0
LINE
8
BLACK
6
CONTINUOUS
10
175.8688740000000053
20
-104.376577999999995
11
175.7203959999999938
21
-104.0879269999999934
0
LINE
8
BLACK
6
CONTINUOUS
10
175.7203959999999938
20
-104.0879269999999934
11
175.5812679999999943
21
-103.7944849999999946
0
LINE
8
BLACK
6
CONTINUOUS
10
175.5812679999999943
20
-103.7944849999999946
11
175.4516219999999862
21
-103.4964820000000003
0
LINE
8
BLACK
6
CONTINUOUS
10
175.4516219999999862
20
-103.4964820000000003
11
175.3315910000000031
21
-103.1941449999999918
0
LINE
8
BLACK
6
CONTINUOUS
10
175.3315910000000031
20
-103.1941449999999918
11
175.2213059999999984
21
-102.8877030000000019
0
LINE
8
BLACK
6
CONTINUOUS
10
175.2213059999999984
20
-102.8877030000000019
11
175.1208989999999801
21
-102.5773849999999925
0
LINE
8
BLACK
6
CONTINUOUS
10
175.1208989999999801
20
-102.5773849999999925
11
175.0305019999999843
21
-102.2634180000000015
0
LINE
8
BLACK
6
CONTINUOUS
10
175.0305019999999843
20
-102.2634180000000015
11
174.9502459999999928
21
-101.9460299999999933
0
LINE
8
BLACK
6
CONTINUOUS
10
174.9502459999999928
20
-101.9460299999999933
11
174.8802629999999851
21
-101.6254509999999982
0
LINE
8
BLACK
6
CONTINUOUS
10
174.8802629999999851
20
-101.6254509999999982
11
174.8206849999999974
21
-101.3019079999999974
0
LINE
8
BLACK
6
CONTINUOUS
10
174.8206849999999974
20
-101.3019079999999974
11
174.7716449999999782
21
-100.9756289999999979
0
LINE
8
BLACK
6
CONTINUOUS
10
174.7716449999999782
20
-100.9756289999999979
11
174.7332719999999995
21
-100.6468429999999898
0
LINE
8
BLACK
6
CONTINUOUS
10
174.7332719999999995
20
-100.6468429999999898
11
174.7056999999999789
21
-100.315778999999992
0
LINE
8
BLACK
6
CONTINUOUS
10
174.7056999999999789
20
-100.315778999999992
11
174.6890599999999836
21
-99.9826630000000023
0
LINE
8
BLACK
6
CONTINUOUS
10
174.6890599999999836
20
-99.9826630000000023
11
174.6834849999999904
21
-99.6477249999999941
0
LINE
8
BLACK
6
CONTINUOUS
10
174.6834849999999904
20
-99.6477249999999941
11
174.7056999999999789
21
-98.9796719999999937
0
LINE
8
BLACK
6
CONTINUOUS
10
174.7056999999999789
20
-98.9796719999999937
11
174.7716449999999782
21
-98.3198209999999904
0
LINE
8
BLACK
6
CONTINUOUS
10
174.7716449999999782
20
-98.3198209999999904
11
174.8802629999999851
21
-97.66999899999999
0
LINE
8
BLACK
6
CONTINUOUS
10
174.8802629999999851
20
-97.66999899999999
11
175.0305019999999843
21
-97.0320320000000009
0
LINE
8
BLACK
6
CONTINUOUS
10
175.0305019999999843
20
-97.0320320000000009
11
175.2213059999999984
21
-96.4077459999999888
0
LINE
8
BLACK
6
CONTINUOUS
10
175.2213059999999984
20
-96.4077459999999888
11
175.4516219999999862
21
-95.7989680000000021
0
LINE
8
BLACK
6
CONTINUOUS
10
175.4516219999999862
20
-95.7989680000000021
11
175.7203959999999938
21
-95.2075229999999948
0
LINE
8
BLACK
6
CONTINUOUS
10
175.7203959999999938
20
-95.2075229999999948
11
176.0265719999999874
21
-94.6352369999999894
0
LINE
8
BLACK
6
CONTINUOUS
10
176.0265719999999874
20
-94.6352369999999894
11
176.3690969999999822
21
-94.0839379999999892
0
LINE
8
BLACK
6
CONTINUOUS
10
176.3690969999999822
20
-94.0839379999999892
11
176.7469159999999988
21
-93.5554499999999933
0
LINE
8
BLACK
6
CONTINUOUS
10
176.7469159999999988
20
-93.5554499999999933
11
177.1589749999999981
21
-93.0516009999999909
0
LINE
8
BLACK
6
CONTINUOUS
10
177.1589749999999981
20
-93.0516009999999909
11
177.604219999999998
21
-92.5742149999999953
0
LINE
8
BLACK
6
CONTINUOUS
10
177.604219999999998
20
-92.5742149999999953
11
178.0815969999999879
21
-92.1251209999999929
0
LINE
8
BLACK
6
CONTINUOUS
10
178.0815969999999879
20
-92.1251209999999929
11
178.5900509999999883
21
-91.7061419999999998
0
LINE
8
BLACK
6
CONTINUOUS
10
178.5900509999999883
20
-91.7061419999999998
11
179.1285279999999887
21
-91.3191070000000025
0
LINE
8
BLACK
6
CONTINUOUS
10
179.1285279999999887
20
-91.3191070000000025
11
179.6959739999999783
21
-90.9658409999999975
0
LINE
8
BLACK
6
CONTINUOUS
10
179.6959739999999783
20
-90.9658409999999975
11
180.2856319999999926
21
-90.6510529999999903
0
LINE
8
BLACK
6
CONTINUOUS
10
180.2856319999999926
20
-90.6510529999999903
11
180.8900509999999997
21
-90.3782369999999986
0
LINE
8
BLACK
6
CONTINUOUS
10
180.8900509999999997
20
-90.3782369999999986
11
181.5071219999999812
21
-90.1473929999999939
0
LINE
8
BLACK
6
CONTINUOUS
10
181.5071219999999812
20
-90.1473929999999939
11
182.1347370000000012
21
-89.9585209999999904
0
LINE
8
BLACK
6
CONTINUOUS
10
182.1347370000000012
20
-89.9585209999999904
11
182.7707869999999843
21
-89.8116199999999907
0
LINE
8
BLACK
6
CONTINUOUS
10
182.7707869999999843
20
-89.8116199999999907
11
183.4131629999999973
21
-89.7066909999999922
0
LINE
8
BLACK
6
CONTINUOUS
10
183.4131629999999973
20
-89.7066909999999922
11
184.0597569999999905
21
-89.6437339999999949
0
LINE
8
BLACK
6
CONTINUOUS
10
184.0597569999999905
20
-89.6437339999999949
11
184.7084590000000048
21
-89.6227480000000014
0
LINE
8
BLACK
6
CONTINUOUS
10
184.7084590000000048
20
-89.6227480000000014
11
185.3571619999999882
21
-89.6437339999999949
0
LINE
8
BLACK
6
CONTINUOUS
10
68.5799999999999983
20
-60.9599999999999937
11
76.2000000000000028
21
-55.8799999999999955
0
CIRCLE
8
BLACK
10
94.7613979999999998
20
-109.1150639999999896
40
2.54
0
LINE
8
BLACK
6
CONTINUOUS
10
95.6386979999999909
20
-48.5591349999999977
11
96.2852910000000008
21
-48.622091999999995
0
LINE
8
BLACK
6
CONTINUOUS
10
96.2852910000000008
20
-48.622091999999995
11
96.9276669999999996
21
-48.7270210000000006
0
LINE
8
BLACK
6
CONTINUOUS
10
96.9276669999999996
20
-48.7270210000000006
11
97.5637169999999969
21
-48.8739220000000003
0
LINE
8
BLACK
6
CONTINUOUS
10
97.5637169999999969
20
-48.8739220000000003
11
98.1913319999999885
21
-49.0627939999999967
0
LINE
8
BLACK
6
CONTINUOUS
10
98.1913319999999885
20
-49.0627939999999967
11
98.8084039999999959
21
-49.2936379999999943
0
LINE
8
BLACK
6
CONTINUOUS
10
98.8084039999999959
20
-49.2936379999999943
11
99.4128240000000005
21
-49.5664540000000002
0
LINE
8
BLACK
6
CONTINUOUS
10
99.4128240000000005
20
-49.5664540000000002
11
100.002482999999998
21
-49.8812420000000003
0
LINE
8
BLACK
6
CONTINUOUS
10
100.002482999999998
20
-49.8812420000000003
11
100.2897600000000011
21
-50.0535399999999981
0
LINE
8
BLACK
6
CONTINUOUS
10
100.2897600000000011
20
-50.0535399999999981
11
100.5699269999999927
21
-50.2345079999999982
0
LINE
8
BLACK
6
CONTINUOUS
10
100.5699269999999927
20
-50.2345079999999982
11
100.8428519999999935
21
-50.4239189999999979
0
LINE
8
BLACK
6
CONTINUOUS
10
100.8428519999999935
20
-50.4239189999999979
11
101.1084029999999956
21
-50.6215429999999955
0
LINE
8
BLACK
6
CONTINUOUS
10
101.1084029999999956
20
-50.6215429999999955
11
101.3664479999999912
21
-50.8271540000000002
0
LINE
8
BLACK
6
CONTINUOUS
10
101.3664479999999912
20
-50.8271540000000002
11
101.6168559999999985
21
-51.0405219999999957
0
LINE
8
BLACK
6
CONTINUOUS
10
101.6168559999999985
20
-51.0405219999999957
11
101.859493999999998
21
-51.261417999999999
0
LINE
8
BLACK
6
CONTINUOUS
10
101.859493999999998
20
-51.261417999999999
11
102.094231999999991
21
-51.4896159999999981
0
LINE
8
BLACK
6
CONTINUOUS
10
102.094231999999991
20
-51.4896159999999981
11
102.3209370000000007
21
-51.7248869999999954
0
LINE
8
BLACK
6
CONTINUOUS
10
102.3209370000000007
20
-51.7248869999999954
11
102.5394769999999909
21
-51.9670020000000008
0
LINE
8
BLACK
6
CONTINUOUS
10
102.5394769999999909
20
-51.9670020000000008
11
102.7497209999999939
21
-52.2157319999999956
0
LINE
8
BLACK
6
CONTINUOUS
10
102.7497209999999939
20
-52.2157319999999956
11
102.9515359999999902
21
-52.4708509999999961
0
LINE
8
BLACK
6
CONTINUOUS
10
102.9515359999999902
20
-52.4708509999999961
11
103.1447919999999954
21
-52.7321290000000005
0
LINE
8
BLACK
6
CONTINUOUS
10
103.1447919999999954
20
-52.7321290000000005
11
103.32935599999999
21
-52.9993389999999991
0
LINE
8
BLACK
6
CONTINUOUS
10
103.32935599999999
20
-52.9993389999999991
11
103.5050959999999947
21
-53.2722509999999971
0
LINE
8
BLACK
6
CONTINUOUS
10
103.5050959999999947
20
-53.2722509999999971
11
103.6718809999999991
21
-53.5506379999999993
0
LINE
8
BLACK
6
CONTINUOUS
10
103.6718809999999991
20
-53.5506379999999993
11
103.8295789999999954
21
-53.8342719999999986
0
LINE
8
BLACK
6
CONTINUOUS
10
103.8295789999999954
20
-53.8342719999999986
11
103.9780579999999901
21
-54.1229239999999976
0
LINE
8
BLACK
6
CONTINUOUS
10
103.9780579999999901
20
-54.1229239999999976
11
104.1171859999999896
21
-54.416364999999999
0
LINE
8
BLACK
6
CONTINUOUS
10
104.1171859999999896
20
-54.416364999999999
11
104.2468310000000002
21
-54.7143689999999978
0
LINE
8
BLACK
6
CONTINUOUS
10
104.2468310000000002
20
-54.7143689999999978
11
104.3668629999999951
21
-55.0167049999999946
0
LINE
8
BLACK
6
CONTINUOUS
10
104.3668629999999951
20
-55.0167049999999946
11
104.4771479999999997
21
-55.3231469999999987
0
LINE
8
BLACK
6
CONTINUOUS
10
104.4771479999999997
20
-55.3231469999999987
11
104.5775560000000013
21
-55.6334659999999985
0
LINE
8
BLACK
6
CONTINUOUS
10
104.5775560000000013
20
-55.6334659999999985
11
104.6679529999999971
21
-55.9474329999999966
0
LINE
8
BLACK
6
CONTINUOUS
10
104.6679529999999971
20
-55.9474329999999966
11
104.7482100000000003
21
-56.2648209999999978
0
LINE
8
BLACK
6
CONTINUOUS
10
104.7482100000000003
20
-56.2648209999999978
11
104.8181929999999937
21
-56.5853999999999999
0
LINE
8
BLACK
6
CONTINUOUS
10
104.8181929999999937
20
-56.5853999999999999
11
104.8777709999999956
21
-56.9089430000000007
0
LINE
8
BLACK
6
CONTINUOUS
10
104.8777709999999956
20
-56.9089430000000007
11
104.9268119999999982
21
-57.2352220000000003
0
LINE
8
BLACK
6
CONTINUOUS
10
104.9268119999999982
20
-57.2352220000000003
11
104.9651839999999936
21
-57.5640079999999941
0
LINE
8
BLACK
6
CONTINUOUS
10
104.9651839999999936
20
-57.5640079999999941
11
104.9927569999999974
21
-57.8950729999999965
0
LINE
8
BLACK
6
CONTINUOUS
10
104.9927569999999974
20
-57.8950729999999965
11
105.0093959999999953
21
-58.2281879999999958
0
LINE
8
BLACK
6
CONTINUOUS
10
105.0093959999999953
20
-58.2281879999999958
11
105.0149720000000002
21
-58.5631259999999969
0
LINE
8
BLACK
6
CONTINUOUS
10
105.0149720000000002
20
-58.5631259999999969
11
104.9927569999999974
21
-59.2311799999999948
0
LINE
8
BLACK
6
CONTINUOUS
10
104.9927569999999974
20
-59.2311799999999948
11
104.9268119999999982
21
-59.8910300000000007
0
LINE
8
BLACK
6
CONTINUOUS
10
104.9268119999999982
20
-59.8910300000000007
11
104.8181929999999937
21
-60.5408519999999939
0
LINE
8
BLACK
6
CONTINUOUS
10
104.8181929999999937
20
-60.5408519999999939
11
104.6679529999999971
21
-61.1788189999999972
0
LINE
8
BLACK
6
CONTINUOUS
10
104.6679529999999971
20
-61.1788189999999972
11
104.4771479999999997
21
-61.8031049999999951
0
LINE
8
BLACK
6
CONTINUOUS
10
104.4771479999999997
20
-61.8031049999999951
11
104.2468310000000002
21
-62.411882999999996
0
LINE
8
BLACK
6
CONTINUOUS
10
104.2468310000000002
20
-62.411882999999996
11
103.9780579999999901
21
-63.0033279999999962
0
LINE
8
BLACK
6
CONTINUOUS
10
103.9780579999999901
20
-63.0033279999999962
11
103.6718809999999991
21
-63.5756139999999945
0
LINE
8
BLACK
6
CONTINUOUS
10
103.6718809999999991
20
-63.5756139999999945
11
103.32935599999999
21
-64.1269130000000018
0
LINE
8
BLACK
6
CONTINUOUS
10
103.32935599999999
20
-64.1269130000000018
11
102.9515359999999902
21
-64.6554009999999977
0
LINE
8
BLACK
6
CONTINUOUS
10
102.9515359999999902
20
-64.6554009999999977
11
102.5394769999999909
21
-65.1592500000000001
0
LINE
8
BLACK
6
CONTINUOUS
10
102.5394769999999909
20
-65.1592500000000001
11
102.094231999999991
21
-65.6366349999999983
0
LINE
8
BLACK
6
CONTINUOUS
10
102.094231999999991
20
-65.6366349999999983
11
101.6168559999999985
21
-66.0857299999999981
0
LINE
8
BLACK
6
CONTINUOUS
10
101.6168559999999985
20
-66.0857299999999981
11
101.1084029999999956
21
-66.5047079999999937
0
LINE
8
BLACK
6
CONTINUOUS
10
101.1084029999999956
20
-66.5047079999999937
11
100.5699269999999927
21
-66.8917429999999911
0
LINE
8
BLACK
6
CONTINUOUS
10
100.5699269999999927
20
-66.8917429999999911
11
100.002482999999998
21
-67.245008999999996
0
LINE
8
BLACK
6
CONTINUOUS
10
100.002482999999998
20
-67.245008999999996
11
99.4128240000000005
21
-67.5597959999999915
0
LINE
8
BLACK
6
CONTINUOUS
10
99.4128240000000005
20
-67.5597959999999915
11
98.8084039999999959
21
-67.8326119999999975
0
LINE
8
BLACK
6
CONTINUOUS
10
98.8084039999999959
20
-67.8326119999999975
11
98.1913319999999885
21
-68.0634560000000022
0
LINE
8
BLACK
6
CONTINUOUS
10
98.1913319999999885
20
-68.0634560000000022
11
97.5637169999999969
21
-68.2523279999999914
0
LINE
8
BLACK
6
CONTINUOUS
10
97.5637169999999969
20
-68.2523279999999914
11
96.9276669999999996
21
-68.3992289999999912
0
LINE
8
BLACK
6
CONTINUOUS
10
96.9276669999999996
20
-68.3992289999999912
11
96.2852910000000008
21
-68.5041580000000039
0
LINE
8
BLACK
6
CONTINUOUS
10
96.2852910000000008
20
-68.5041580000000039
11
95.6386979999999909
21
-68.5671159999999986
0
LINE
8
BLACK
6
CONTINUOUS
10
95.6386979999999909
20
-68.5671159999999986
11
94.9899959999999908
21
-68.5881009999999947
0
LINE
8
BLACK
6
CONTINUOUS
10
94.9899959999999908
20
-68.5881009999999947
11
94.3412939999999907
21
-68.5671159999999986
0
LINE
8
BLACK
6
CONTINUOUS
10
94.3412939999999907
20
-68.5671159999999986
11
93.6946999999999974
21
-68.5041580000000039
0
LINE
8
BLACK
6
CONTINUOUS
10
93.6946999999999974
20
-68.5041580000000039
11
93.0523239999999987
21
-68.3992289999999912
0
LINE
8
BLACK
6
CONTINUOUS
10
93.0523239999999987
20
-68.3992289999999912
11
92.4162740000000014
21
-68.2523290000000031
0
LINE
8
BLACK
6
CONTINUOUS
10
92.4162740000000014
20
-68.2523290000000031
11
91.7886589999999956
21
-68.0634560000000022
0
LINE
8
BLACK
6
CONTINUOUS
10
91.7886589999999956
20
-68.0634560000000022
11
91.1715870000000024
21
-67.8326119999999975
0
LINE
8
BLACK
6
CONTINUOUS
10
91.1715870000000024
20
-67.8326119999999975
11
90.5671669999999978
21
-67.5597970000000032
0
LINE
8
BLACK
6
CONTINUOUS
10
90.5671669999999978
20
-67.5597970000000032
11
89.9775080000000003
21
-67.245008999999996
0
LINE
8
BLACK
6
CONTINUOUS
10
89.9775080000000003
20
-67.245008999999996
11
89.6902309999999972
21
-67.0727109999999982
0
LINE
8
BLACK
6
CONTINUOUS
10
89.6902309999999972
20
-67.0727109999999982
11
89.4100639999999913
21
-66.8917429999999911
0
LINE
8
BLACK
6
CONTINUOUS
10
89.4100639999999913
20
-66.8917429999999911
11
89.1371400000000023
21
-66.7023319999999984
0
LINE
8
BLACK
6
CONTINUOUS
10
89.1371400000000023
20
-66.7023319999999984
11
88.8715890000000002
21
-66.5047069999999962
0
LINE
8
BLACK
6
CONTINUOUS
10
88.8715890000000002
20
-66.5047069999999962
11
88.6135429999999928
21
-66.2990970000000033
0
LINE
8
BLACK
6
CONTINUOUS
10
88.6135429999999928
20
-66.2990970000000033
11
88.3631359999999972
21
-66.0857290000000006
0
LINE
8
BLACK
6
CONTINUOUS
10
88.3631359999999972
20
-66.0857290000000006
11
88.1204970000000003
21
-65.8648319999999927
0
LINE
8
BLACK
6
CONTINUOUS
10
88.1204970000000003
20
-65.8648319999999927
11
87.8857589999999931
21
-65.6366349999999983
0
LINE
8
BLACK
6
CONTINUOUS
10
87.8857589999999931
20
-65.6366349999999983
11
87.6590549999999951
21
-65.4013640000000009
0
LINE
8
BLACK
6
CONTINUOUS
10
87.6590549999999951
20
-65.4013640000000009
11
87.4405149999999907
21
-65.1592490000000026
0
LINE
8
BLACK
6
CONTINUOUS
10
87.4405149999999907
20
-65.1592490000000026
11
87.2302710000000019
21
-64.9105189999999936
0
LINE
8
BLACK
6
CONTINUOUS
10
87.2302710000000019
20
-64.9105189999999936
11
87.0284549999999939
21
-64.6554000000000002
0
LINE
8
BLACK
6
CONTINUOUS
10
87.0284549999999939
20
-64.6554000000000002
11
86.8352000000000004
21
-64.3941219999999959
0
LINE
8
BLACK
6
CONTINUOUS
10
86.8352000000000004
20
-64.3941219999999959
11
86.6506359999999916
21
-64.1269119999999901
0
LINE
8
BLACK
6
CONTINUOUS
10
86.6506359999999916
20
-64.1269119999999901
11
86.4748949999999894
21
-63.8539999999999992
0
LINE
8
BLACK
6
CONTINUOUS
10
86.4748949999999894
20
-63.8539999999999992
11
86.3081099999999992
21
-63.575612999999997
0
LINE
8
BLACK
6
CONTINUOUS
10
86.3081099999999992
20
-63.575612999999997
11
86.1504130000000004
21
-63.2919789999999978
0
LINE
8
BLACK
6
CONTINUOUS
10
86.1504130000000004
20
-63.2919789999999978
11
86.0019339999999914
21
-63.0033279999999962
0
LINE
8
BLACK
6
CONTINUOUS
10
86.0019339999999914
20
-63.0033279999999962
11
85.8628049999999945
21
-62.7098859999999974
0
LINE
8
BLACK
6
CONTINUOUS
10
85.8628049999999945
20
-62.7098859999999974
11
85.733159999999998
21
-62.411882999999996
0
LINE
8
BLACK
6
CONTINUOUS
10
85.733159999999998
20
-62.411882999999996
11
85.6131280000000032
21
-62.1095459999999946
0
LINE
8
BLACK
6
CONTINUOUS
10
85.6131280000000032
20
-62.1095459999999946
11
85.5028429999999986
21
-61.8031039999999976
0
LINE
8
BLACK
6
CONTINUOUS
10
85.5028429999999986
20
-61.8031039999999976
11
85.4024359999999945
21
-61.4927859999999953
0
LINE
8
BLACK
6
CONTINUOUS
10
85.4024359999999945
20
-61.4927859999999953
11
85.3120380000000011
21
-61.1788189999999972
0
LINE
8
BLACK
6
CONTINUOUS
10
85.3120380000000011
20
-61.1788189999999972
11
85.2317819999999955
21
-60.8614309999999961
0
LINE
8
BLACK
6
CONTINUOUS
10
85.2317819999999955
20
-60.8614309999999961
11
85.161799000000002
21
-60.5408519999999939
0
LINE
8
BLACK
6
CONTINUOUS
10
85.161799000000002
20
-60.5408519999999939
11
85.1022210000000001
21
-60.2173090000000002
0
LINE
8
BLACK
6
CONTINUOUS
10
85.1022210000000001
20
-60.2173090000000002
11
85.0531790000000001
21
-59.8910300000000007
0
LINE
8
BLACK
6
CONTINUOUS
10
85.0531790000000001
20
-59.8910300000000007
11
85.0148069999999905
21
-59.5622439999999997
0
LINE
8
BLACK
6
CONTINUOUS
10
85.0148069999999905
20
-59.5622439999999997
11
84.9872349999999983
21
-59.2311799999999948
0
LINE
8
BLACK
6
CONTINUOUS
10
84.9872349999999983
20
-59.2311799999999948
11
84.970595000000003
21
-58.898063999999998
0
LINE
8
BLACK
6
CONTINUOUS
10
84.970595000000003
20
-58.898063999999998
11
84.9650189999999981
21
-58.5631259999999969
0
LINE
8
BLACK
6
CONTINUOUS
10
84.9650189999999981
20
-58.5631259999999969
11
84.9872349999999983
21
-57.8950729999999965
0
LINE
8
BLACK
6
CONTINUOUS
10
84.9872349999999983
20
-57.8950729999999965
11
85.0531790000000001
21
-57.2352220000000003
0
LINE
8
BLACK
6
CONTINUOUS
10
85.0531790000000001
20
-57.2352220000000003
11
85.161799000000002
21
-56.5853999999999999
0
LINE
8
BLACK
6
CONTINUOUS
10
85.161799000000002
20
-56.5853999999999999
11
85.3120380000000011
21
-55.9474329999999966
0
LINE
8
BLACK
6
CONTINUOUS
10
85.3120380000000011
20
-55.9474329999999966
11
85.5028429999999986
21
-55.3231469999999987
0
LINE
8
BLACK
6
CONTINUOUS
10
85.5028429999999986
20
-55.3231469999999987
11
85.733159999999998
21
-54.7143689999999978
0
LINE
8
BLACK
6
CONTINUOUS
10
85.733159999999998
20
-54.7143689999999978
11
86.0019339999999914
21
-54.1229239999999976
0
LINE
8
BLACK
6
CONTINUOUS
10
86.0019339999999914
20
-54.1229239999999976
11
86.3081099999999992
21
-53.5506379999999993
0
LINE
8
BLACK
6
CONTINUOUS
10
86.3081099999999992
20
-53.5506379999999993
11
86.6506359999999916
21
-52.9993389999999991
0
LINE
8
BLACK
6
CONTINUOUS
10
86.6506359999999916
20
-52.9993389999999991
11
87.0284549999999939
21
-52.4708509999999961
0
LINE
8
BLACK
6
CONTINUOUS
10
87.0284549999999939
20
-52.4708509999999961
11
87.4405149999999907
21
-51.9670020000000008
0
LINE
8
BLACK
6
CONTINUOUS
10
87.4405149999999907
20
-51.9670020000000008
11
87.8857589999999931
21
-51.4896159999999981
0
LINE
8
BLACK
6
CONTINUOUS
10
87.8857589999999931
20
-51.4896159999999981
11
88.3631359999999972
21
-51.0405219999999957
0
LINE
8
BLACK
6
CONTINUOUS
10
88.3631359999999972
20
-51.0405219999999957
11
88.8715890000000002
21
-50.6215429999999955
0
LINE
8
BLACK
6
CONTINUOUS
10
88.8715890000000002
20
-50.6215429999999955
11
89.4100639999999913
21
-50.2345079999999982
0
LINE
8
BLACK
6
CONTINUOUS
10
89.4100639999999913
20
-50.2345079999999982
11
89.9775080000000003
21
-49.8812420000000003
0
LINE
8
BLACK
6
CONTINUOUS
10
89.9775080000000003
20
-49.8812420000000003
11
90.5671669999999978
21
-49.5664540000000002
0
LINE
8
BLACK
6
CONTINUOUS
10
90.5671669999999978
20
-49.5664540000000002
11
91.1715870000000024
21
-49.2936379999999943
0
LINE
8
BLACK
6
CONTINUOUS
10
91.1715870000000024
20
-49.2936379999999943
11
91.7886589999999956
21
-49.0627939999999967
0
LINE
8
BLACK
6
CONTINUOUS
10
91.7886589999999956
20
-49.0627939999999967
11
92.4162740000000014
21
-48.8739220000000003
0
LINE
8
BLACK
6
CONTINUOUS
10
92.4162740000000014
20
-48.8739220000000003
11
93.0523239999999987
21
-48.7270210000000006
0
LINE
8
BLACK
6
CONTINUOUS
10
93.0523239999999987
20
-48.7270210000000006
11
93.6946999999999974
21
-48.622091999999995
0
LINE
8
BLACK
6
CONTINUOUS
10
93.6946999999999974
20
-48.622091999999995
11
94.3412939999999907
21
-48.5591349999999977
0
LINE
8
BLACK
6
CONTINUOUS
10
94.3412939999999907
20
-48.5591349999999977
11
94.9899959999999908
21
-48.5381489999999971
0
LINE
8
BLACK
6
CONTINUOUS
10
94.9899959999999908
20
-48.5381489999999971
11
95.6386979999999909
21
-48.5591349999999977
0
LINE
8
BLACK
6
CONTINUOUS
10
172.8546959999999899
20
-48.5591349999999977
11
173.5012889999999857
21
-48.622091999999995
0
LINE
8
BLACK
6
CONTINUOUS
10
173.5012889999999857
20
-48.622091999999995
11
174.1436649999999986
21
-48.7270210000000006
0
LINE
8
BLACK
6
CONTINUOUS
10
174.1436649999999986
20
-48.7270210000000006
11
174.7797149999999817
21
-48.8739220000000003
0
LINE
8
BLACK
6
CONTINUOUS
10
174.7797149999999817
20
-48.8739220000000003
11
175.4073309999999992
21
-49.0627939999999967
0
LINE
8
BLACK
6
CONTINUOUS
10
175.4073309999999992
20
-49.0627939999999967
11
176.0244019999999807
21
-49.2936379999999943
0
LINE
8
BLACK
6
CONTINUOUS
10
176.0244019999999807
20
-49.2936379999999943
11
176.6288209999999879
21
-49.5664540000000002
0
LINE
8
BLACK
6
CONTINUOUS
10
176.6288209999999879
20
-49.5664540000000002
11
177.2184790000000021
21
-49.8812420000000003
0
LINE
8
BLACK
6
CONTINUOUS
10
177.2184790000000021
20
-49.8812420000000003
11
177.505755999999991
21
-50.0535399999999981
0
LINE
8
BLACK
6
CONTINUOUS
10
177.505755999999991
20
-50.0535399999999981
11
177.7859229999999968
21
-50.2345079999999982
0
LINE
8
BLACK
6
CONTINUOUS
10
177.7859229999999968
20
-50.2345079999999982
11
178.0588479999999834
21
-50.4239189999999979
0
LINE
8
BLACK
6
CONTINUOUS
10
178.0588479999999834
20
-50.4239189999999979
11
178.3243989999999997
21
-50.6215429999999955
0
LINE
8
BLACK
6
CONTINUOUS
10
178.3243989999999997
20
-50.6215429999999955
11
178.5824449999999786
21
-50.8271540000000002
0
LINE
8
BLACK
6
CONTINUOUS
10
178.5824449999999786
20
-50.8271540000000002
11
178.8328530000000001
21
-51.0405219999999957
0
LINE
8
BLACK
6
CONTINUOUS
10
178.8328530000000001
20
-51.0405219999999957
11
179.075491999999997
21
-51.261417999999999
0
LINE
8
BLACK
6
CONTINUOUS
10
179.075491999999997
20
-51.261417999999999
11
179.3102289999999925
21
-51.4896159999999981
0
LINE
8
BLACK
6
CONTINUOUS
10
179.3102289999999925
20
-51.4896159999999981
11
179.5369340000000022
21
-51.7248869999999954
0
LINE
8
BLACK
6
CONTINUOUS
10
179.5369340000000022
20
-51.7248869999999954
11
179.7554739999999924
21
-51.9670020000000008
0
LINE
8
BLACK
6
CONTINUOUS
10
179.7554739999999924
20
-51.9670020000000008
11
179.9657179999999812
21
-52.2157319999999956
0
LINE
8
BLACK
6
CONTINUOUS
10
179.9657179999999812
20
-52.2157319999999956
11
180.1675339999999892
21
-52.4708509999999961
0
LINE
8
BLACK
6
CONTINUOUS
10
180.1675339999999892
20
-52.4708509999999961
11
180.3607889999999827
21
-52.7321290000000005
0
LINE
8
BLACK
6
CONTINUOUS
10
180.3607889999999827
20
-52.7321290000000005
11
180.5453530000000057
21
-52.9993389999999991
0
LINE
8
BLACK
6
CONTINUOUS
10
180.5453530000000057
20
-52.9993389999999991
11
180.7210929999999962
21
-53.2722509999999971
0
LINE
8
BLACK
6
CONTINUOUS
10
180.7210929999999962
20
-53.2722509999999971
11
180.8878780000000006
21
-53.5506379999999993
0
LINE
8
BLACK
6
CONTINUOUS
10
180.8878780000000006
20
-53.5506379999999993
11
181.0455759999999827
21
-53.8342719999999986
0
LINE
8
BLACK
6
CONTINUOUS
10
181.0455759999999827
20
-53.8342719999999986
11
181.1940549999999917
21
-54.1229239999999976
0
LINE
8
BLACK
6
CONTINUOUS
10
181.1940549999999917
20
-54.1229239999999976
11
181.3331829999999911
21
-54.416364999999999
0
LINE
8
BLACK
6
CONTINUOUS
10
181.3331829999999911
20
-54.416364999999999
11
181.4628280000000018
21
-54.7143689999999978
0
LINE
8
BLACK
6
CONTINUOUS
10
181.4628280000000018
20
-54.7143689999999978
11
181.5828599999999824
21
-55.0167049999999946
0
LINE
8
BLACK
6
CONTINUOUS
10
181.5828599999999824
20
-55.0167049999999946
11
181.693144999999987
21
-55.3231469999999987
0
LINE
8
BLACK
6
CONTINUOUS
10
181.693144999999987
20
-55.3231469999999987
11
181.7935520000000054
21
-55.6334659999999985
0
LINE
8
BLACK
6
CONTINUOUS
10
181.7935520000000054
20
-55.6334659999999985
11
181.8839499999999987
21
-55.9474329999999966
0
LINE
8
BLACK
6
CONTINUOUS
10
181.8839499999999987
20
-55.9474329999999966
11
181.9642059999999901
21
-56.2648209999999978
0
LINE
8
BLACK
6
CONTINUOUS
10
181.9642059999999901
20
-56.2648209999999978
11
182.0341889999999978
21
-56.5853999999999999
0
LINE
8
BLACK
6
CONTINUOUS
10
182.0341889999999978
20
-56.5853999999999999
11
182.0937669999999855
21
-56.9089430000000007
0
LINE
8
BLACK
6
CONTINUOUS
10
182.0937669999999855
20
-56.9089430000000007
11
182.1428080000000023
21
-57.2352220000000003
0
LINE
8
BLACK
6
CONTINUOUS
10
182.1428080000000023
20
-57.2352220000000003
11
182.1811799999999835
21
-57.5640079999999941
0
LINE
8
BLACK
6
CONTINUOUS
10
182.1811799999999835
20
-57.5640079999999941
11
182.208752000000004
21
-57.8950729999999965
0
LINE
8
BLACK
6
CONTINUOUS
10
182.208752000000004
20
-57.8950729999999965
11
182.2253919999999994
21
-58.2281879999999958
0
LINE
8
BLACK
6
CONTINUOUS
10
182.2253919999999994
20
-58.2281879999999958
11
182.2309679999999901
21
-58.5631259999999969
0
LINE
8
BLACK
6
CONTINUOUS
10
182.2309679999999901
20
-58.5631259999999969
11
182.208752000000004
21
-59.2311799999999948
0
LINE
8
BLACK
6
CONTINUOUS
10
182.208752000000004
20
-59.2311799999999948
11
182.1428080000000023
21
-59.8910300000000007
0
LINE
8
BLACK
6
CONTINUOUS
10
182.1428080000000023
20
-59.8910300000000007
11
182.0341889999999978
21
-60.5408519999999939
0
LINE
8
BLACK
6
CONTINUOUS
10
182.0341889999999978
20
-60.5408519999999939
11
181.8839499999999987
21
-61.1788189999999972
0
LINE
8
BLACK
6
CONTINUOUS
10
181.8839499999999987
20
-61.1788189999999972
11
181.693144999999987
21
-61.8031049999999951
0
LINE
8
BLACK
6
CONTINUOUS
10
181.693144999999987
20
-61.8031049999999951
11
181.4628280000000018
21
-62.411882999999996
0
LINE
8
BLACK
6
CONTINUOUS
10
181.4628280000000018
20
-62.411882999999996
11
181.1940549999999917
21
-63.0033279999999962
0
LINE
8
BLACK
6
CONTINUOUS
10
181.1940549999999917
20
-63.0033279999999962
11
180.8878780000000006
21
-63.5756139999999945
0
LINE
8
BLACK
6
CONTINUOUS
10
180.8878780000000006
20
-63.5756139999999945
11
180.5453530000000057
21
-64.1269130000000018
0
LINE
8
BLACK
6
CONTINUOUS
10
180.5453530000000057
20
-64.1269130000000018
11
180.1675339999999892
21
-64.6554009999999977
0
LINE
8
BLACK
6
CONTINUOUS
10
180.1675339999999892
20
-64.6554009999999977
11
179.7554739999999924
21
-65.1592500000000001
0
LINE
8
BLACK
6
CONTINUOUS
10
179.7554739999999924
20
-65.1592500000000001
11
179.3102289999999925
21
-65.6366349999999983
0
LINE
8
BLACK
6
CONTINUOUS
10
179.3102289999999925
20
-65.6366349999999983
11
178.8328530000000001
21
-66.0857299999999981
0
LINE
8
BLACK
6
CONTINUOUS
10
178.8328530000000001
20
-66.0857299999999981
11
178.3243989999999997
21
-66.5047079999999937
0
LINE
8
BLACK
6
CONTINUOUS
10
178.3243989999999997
20
-66.5047079999999937
11
177.7859229999999968
21
-66.8917429999999911
0
LINE
8
BLACK
6
CONTINUOUS
10
177.7859229999999968
20
-66.8917429999999911
11
177.2184790000000021
21
-67.245008999999996
0
LINE
8
BLACK
6
CONTINUOUS
10
177.2184790000000021
20
-67.245008999999996
11
176.6288209999999879
21
-67.5597959999999915
0
LINE
8
BLACK
6
CONTINUOUS
10
176.6288209999999879
20
-67.5597959999999915
11
176.0244019999999807
21
-67.8326119999999975
0
LINE
8
BLACK
6
CONTINUOUS
10
176.0244019999999807
20
-67.8326119999999975
11
175.4073309999999992
21
-68.0634560000000022
0
LINE
8
BLACK
6
CONTINUOUS
10
175.4073309999999992
20
-68.0634560000000022
11
174.7797149999999817
21
-68.2523279999999914
0
LINE
8
BLACK
6
CONTINUOUS
10
174.7797149999999817
20
-68.2523279999999914
11
174.1436649999999986
21
-68.3992289999999912
0
LINE
8
BLACK
6
CONTINUOUS
10
174.1436649999999986
20
-68.3992289999999912
11
173.5012889999999857
21
-68.5041580000000039
0
LINE
8
BLACK
6
CONTINUOUS
10
173.5012889999999857
20
-68.5041580000000039
11
172.8546959999999899
21
-68.5671159999999986
0
LINE
8
BLACK
6
CONTINUOUS
10
172.8546959999999899
20
-68.5671159999999986
11
172.2059929999999781
21
-68.5881009999999947
0
LINE
8
BLACK
6
CONTINUOUS
10
172.2059929999999781
20
-68.5881009999999947
11
171.5572909999999922
21
-68.5671159999999986
0
LINE
8
BLACK
6
CONTINUOUS
10
171.5572909999999922
20
-68.5671159999999986
11
170.910696999999999
21
-68.5041580000000039
0
LINE
8
BLACK
6
CONTINUOUS
10
170.910696999999999
20
-68.5041580000000039
11
170.268320999999986
21
-68.3992289999999912
0
LINE
8
BLACK
6
CONTINUOUS
10
170.268320999999986
20
-68.3992289999999912
11
169.6322710000000029
21
-68.2523290000000031
0
LINE
8
BLACK
6
CONTINUOUS
10
169.6322710000000029
20
-68.2523290000000031
11
169.0046559999999829
21
-68.0634560000000022
0
LINE
8
BLACK
6
CONTINUOUS
10
169.0046559999999829
20
-68.0634560000000022
11
168.3875850000000014
21
-67.8326119999999975
0
LINE
8
BLACK
6
CONTINUOUS
10
168.3875850000000014
20
-67.8326119999999975
11
167.7831659999999943
21
-67.5597970000000032
0
LINE
8
BLACK
6
CONTINUOUS
10
167.7831659999999943
20
-67.5597970000000032
11
167.19350799999998
21
-67.245008999999996
0
LINE
8
BLACK
6
CONTINUOUS
10
167.19350799999998
20
-67.245008999999996
11
166.9062299999999937
21
-67.0727109999999982
0
LINE
8
BLACK
6
CONTINUOUS
10
166.9062299999999937
20
-67.0727109999999982
11
166.6260619999999903
21
-66.8917429999999911
0
LINE
8
BLACK
6
CONTINUOUS
10
166.6260619999999903
20
-66.8917429999999911
11
166.3531370000000038
21
-66.7023319999999984
0
LINE
8
BLACK
6
CONTINUOUS
10
166.3531370000000038
20
-66.7023319999999984
11
166.08758499999999
21
-66.5047069999999962
0
LINE
8
BLACK
6
CONTINUOUS
10
166.08758499999999
20
-66.5047069999999962
11
165.8295389999999827
21
-66.2990970000000033
0
LINE
8
BLACK
6
CONTINUOUS
10
165.8295389999999827
20
-66.2990970000000033
11
165.5791309999999896
21
-66.0857290000000006
0
LINE
8
BLACK
6
CONTINUOUS
10
165.5791309999999896
20
-66.0857290000000006
11
165.3364919999999927
21
-65.8648319999999927
0
LINE
8
BLACK
6
CONTINUOUS
10
165.3364919999999927
20
-65.8648319999999927
11
165.1017539999999997
21
-65.6366349999999983
0
LINE
8
BLACK
6
CONTINUOUS
10
165.1017539999999997
20
-65.6366349999999983
11
164.87504899999999
21
-65.4013640000000009
0
LINE
8
BLACK
6
CONTINUOUS
10
164.87504899999999
20
-65.4013640000000009
11
164.6565089999999998
21
-65.1592490000000026
0
LINE
8
BLACK
6
CONTINUOUS
10
164.6565089999999998
20
-65.1592490000000026
11
164.4462649999999826
21
-64.9105189999999936
0
LINE
8
BLACK
6
CONTINUOUS
10
164.4462649999999826
20
-64.9105189999999936
11
164.2444500000000005
21
-64.6554000000000002
0
LINE
8
BLACK
6
CONTINUOUS
10
164.2444500000000005
20
-64.6554000000000002
11
164.0511939999999811
21
-64.3941219999999959
0
LINE
8
BLACK
6
CONTINUOUS
10
164.0511939999999811
20
-64.3941219999999959
11
163.8666309999999839
21
-64.1269119999999901
0
LINE
8
BLACK
6
CONTINUOUS
10
163.8666309999999839
20
-64.1269119999999901
11
163.690889999999996
21
-63.8539999999999992
0
LINE
8
BLACK
6
CONTINUOUS
10
163.690889999999996
20
-63.8539999999999992
11
163.5241059999999891
21
-63.575612999999997
0
LINE
8
BLACK
6
CONTINUOUS
10
163.5241059999999891
20
-63.575612999999997
11
163.3664079999999785
21
-63.2919789999999978
0
LINE
8
BLACK
6
CONTINUOUS
10
163.3664079999999785
20
-63.2919789999999978
11
163.2179299999999955
21
-63.0033279999999962
0
LINE
8
BLACK
6
CONTINUOUS
10
163.2179299999999955
20
-63.0033279999999962
11
163.078801999999996
21
-62.7098859999999974
0
LINE
8
BLACK
6
CONTINUOUS
10
163.078801999999996
20
-62.7098859999999974
11
162.9491559999999879
21
-62.411882999999996
0
LINE
8
BLACK
6
CONTINUOUS
10
162.9491559999999879
20
-62.411882999999996
11
162.8291250000000048
21
-62.1095459999999946
0
LINE
8
BLACK
6
CONTINUOUS
10
162.8291250000000048
20
-62.1095459999999946
11
162.7188400000000001
21
-61.8031039999999976
0
LINE
8
BLACK
6
CONTINUOUS
10
162.7188400000000001
20
-61.8031039999999976
11
162.6184329999999818
21
-61.4927859999999953
0
LINE
8
BLACK
6
CONTINUOUS
10
162.6184329999999818
20
-61.4927859999999953
11
162.528035999999986
21
-61.1788189999999972
0
LINE
8
BLACK
6
CONTINUOUS
10
162.528035999999986
20
-61.1788189999999972
11
162.4477799999999945
21
-60.8614309999999961
0
LINE
8
BLACK
6
CONTINUOUS
10
162.4477799999999945
20
-60.8614309999999961
11
162.3777969999999868
21
-60.5408519999999939
0
LINE
8
BLACK
6
CONTINUOUS
10
162.3777969999999868
20
-60.5408519999999939
11
162.3182189999999991
21
-60.2173090000000002
0
LINE
8
BLACK
6
CONTINUOUS
10
162.3182189999999991
20
-60.2173090000000002
11
162.2691789999999799
21
-59.8910300000000007
0
LINE
8
BLACK
6
CONTINUOUS
10
162.2691789999999799
20
-59.8910300000000007
11
162.2308060000000012
21
-59.5622439999999997
0
LINE
8
BLACK
6
CONTINUOUS
10
162.2308060000000012
20
-59.5622439999999997
11
162.2032339999999806
21
-59.2311799999999948
0
LINE
8
BLACK
6
CONTINUOUS
10
162.2032339999999806
20
-59.2311799999999948
11
162.1865939999999853
21
-58.898063999999998
0
LINE
8
BLACK
6
CONTINUOUS
10
162.1865939999999853
20
-58.898063999999998
11
162.181018999999992
21
-58.5631259999999969
0
LINE
8
BLACK
6
CONTINUOUS
10
162.181018999999992
20
-58.5631259999999969
11
162.2032339999999806
21
-57.8950729999999965
0
LINE
8
BLACK
6
CONTINUOUS
10
162.2032339999999806
20
-57.8950729999999965
11
162.2691789999999799
21
-57.2352220000000003
0
LINE
8
BLACK
6
CONTINUOUS
10
162.2691789999999799
20
-57.2352220000000003
11
162.3777969999999868
21
-56.5853999999999999
0
LINE
8
BLACK
6
CONTINUOUS
10
162.3777969999999868
20
-56.5853999999999999
11
162.528035999999986
21
-55.9474329999999966
0
LINE
8
BLACK
6
CONTINUOUS
10
162.528035999999986
20
-55.9474329999999966
11
162.7188400000000001
21
-55.3231469999999987
0
LINE
8
BLACK
6
CONTINUOUS
10
162.7188400000000001
20
-55.3231469999999987
11
162.9491559999999879
21
-54.7143689999999978
0
LINE
8
BLACK
6
CONTINUOUS
10
162.9491559999999879
20
-54.7143689999999978
11
163.2179299999999955
21
-54.1229239999999976
0
LINE
8
BLACK
6
CONTINUOUS
10
163.2179299999999955
20
-54.1229239999999976
11
163.5241059999999891
21
-53.5506379999999993
0
LINE
8
BLACK
6
CONTINUOUS
10
163.5241059999999891
20
-53.5506379999999993
11
163.8666309999999839
21
-52.9993389999999991
0
LINE
8
BLACK
6
CONTINUOUS
10
163.8666309999999839
20
-52.9993389999999991
11
164.2444500000000005
21
-52.4708509999999961
0
LINE
8
BLACK
6
CONTINUOUS
10
164.2444500000000005
20
-52.4708509999999961
11
164.6565089999999998
21
-51.9670020000000008
0
LINE
8
BLACK
6
CONTINUOUS
10
164.6565089999999998
20
-51.9670020000000008
11
165.1017539999999997
21
-51.4896159999999981
0
LINE
8
BLACK
6
CONTINUOUS
10
165.1017539999999997
20
-51.4896159999999981
11
165.5791309999999896
21
-51.0405219999999957
0
LINE
8
BLACK
6
CONTINUOUS
10
165.5791309999999896
20
-51.0405219999999957
11
166.08758499999999
21
-50.6215429999999955
0
LINE
8
BLACK
6
CONTINUOUS
10
166.08758499999999
20
-50.6215429999999955
11
166.6260619999999903
21
-50.2345079999999982
0
LINE
8
BLACK
6
CONTINUOUS
10
166.6260619999999903
20
-50.2345079999999982
11
167.19350799999998
21
-49.8812420000000003
0
LINE
8
BLACK
6
CONTINUOUS
10
167.19350799999998
20
-49.8812420000000003
11
167.7831659999999943
21
-49.5664540000000002
0
LINE
8
BLACK
6
CONTINUOUS
10
167.7831659999999943
20
-49.5664540000000002
11
168.3875850000000014
21
-49.2936379999999943
0
LINE
8
BLACK
6
CONTINUOUS
10
168.3875850000000014
20
-49.2936379999999943
11
169.0046559999999829
21
-49.0627939999999967
0
LINE
8
BLACK
6
CONTINUOUS
10
169.0046559999999829
20
-49.0627939999999967
11
169.6322710000000029
21
-48.8739220000000003
0
LINE
8
BLACK
6
CONTINUOUS
10
169.6322710000000029
20
-48.8739220000000003
11
170.268320999999986
21
-48.7270210000000006
0
LINE
8
BLACK
6
CONTINUOUS
10
170.268320999999986
20
-48.7270210000000006
11
170.910696999999999
21
-48.622091999999995
0
LINE
8
BLACK
6
CONTINUOUS
10
170.910696999999999
20
-48.622091999999995
11
171.5572909999999922
21
-48.5591349999999977
0
LINE
8
BLACK
6
CONTINUOUS
10
171.5572909999999922
20
-48.5591349999999977
11
172.2059929999999781
21
-48.5381489999999971
0
LINE
8
BLACK
6
CONTINUOUS
10
172.2059929999999781
20
-48.5381489999999971
11
172.8546959999999899
21
-48.5591349999999977
0
LINE
8
BLACK
6
CONTINUOUS
10
193.039999999999992
20
-119.3799999999999955
11
76.2000000000000028
21
-119.3799999999999955
0
LINE
8
BLACK
6
CONTINUOUS
10
134.2466929999999934
20
-48.5591349999999977
11
134.8932859999999891
21
-48.622091999999995
0
LINE
8
BLACK
6
CONTINUOUS
10
134.8932859999999891
20
-48.622091999999995
11
135.5356620000000021
21
-48.7270210000000006
0
LINE
8
BLACK
6
CONTINUOUS
10
135.5356620000000021
20
-48.7270210000000006
11
136.1717119999999852
21
-48.8739220000000003
0
LINE
8
BLACK
6
CONTINUOUS
10
136.1717119999999852
20
-48.8739220000000003
11
136.7993270000000052
21
-49.0627939999999967
0
LINE
8
BLACK
6
CONTINUOUS
10
136.7993270000000052
20
-49.0627939999999967
11
137.4163979999999867
21
-49.2936379999999943
0
LINE
8
BLACK
6
CONTINUOUS
10
137.4163979999999867
20
-49.2936379999999943
11
138.0208179999999913
21
-49.5664540000000002
0
LINE
8
BLACK
6
CONTINUOUS
10
138.0208179999999913
20
-49.5664540000000002
11
138.610477000000003
21
-49.8812420000000003
0
LINE
8
BLACK
6
CONTINUOUS
10
138.610477000000003
20
-49.8812420000000003
11
138.8977539999999919
21
-50.0535399999999981
0
LINE
8
BLACK
6
CONTINUOUS
10
138.8977539999999919
20
-50.0535399999999981
11
139.1779200000000003
21
-50.2345079999999982
0
LINE
8
BLACK
6
CONTINUOUS
10
139.1779200000000003
20
-50.2345079999999982
11
139.4508449999999868
21
-50.4239189999999979
0
LINE
8
BLACK
6
CONTINUOUS
10
139.4508449999999868
20
-50.4239189999999979
11
139.7163960000000031
21
-50.6215429999999955
0
LINE
8
BLACK
6
CONTINUOUS
10
139.7163960000000031
20
-50.6215429999999955
11
139.9744409999999846
21
-50.8271540000000002
0
LINE
8
BLACK
6
CONTINUOUS
10
139.9744409999999846
20
-50.8271540000000002
11
140.2248490000000061
21
-51.0405219999999957
0
LINE
8
BLACK
6
CONTINUOUS
10
140.2248490000000061
20
-51.0405219999999957
11
140.467488000000003
21
-51.261417999999999
0
LINE
8
BLACK
6
CONTINUOUS
10
140.467488000000003
20
-51.261417999999999
11
140.7022249999999985
21
-51.4896159999999981
0
LINE
8
BLACK
6
CONTINUOUS
10
140.7022249999999985
20
-51.4896159999999981
11
140.9289299999999798
21
-51.7248869999999954
0
LINE
8
BLACK
6
CONTINUOUS
10
140.9289299999999798
20
-51.7248869999999954
11
141.1474709999999959
21
-51.9670020000000008
0
LINE
8
BLACK
6
CONTINUOUS
10
141.1474709999999959
20
-51.9670020000000008
11
141.3577149999999847
21
-52.2157319999999956
0
LINE
8
BLACK
6
CONTINUOUS
10
141.3577149999999847
20
-52.2157319999999956
11
141.5595309999999927
21
-52.4708509999999961
0
LINE
8
BLACK
6
CONTINUOUS
10
141.5595309999999927
20
-52.4708509999999961
11
141.7527869999999837
21
-52.7321290000000005
0
LINE
8
BLACK
6
CONTINUOUS
10
141.7527869999999837
20
-52.7321290000000005
11
141.9373510000000067
21
-52.9993389999999991
0
LINE
8
BLACK
6
CONTINUOUS
10
141.9373510000000067
20
-52.9993389999999991
11
142.1130919999999946
21
-53.2722509999999971
0
LINE
8
BLACK
6
CONTINUOUS
10
142.1130919999999946
20
-53.2722509999999971
11
142.279876999999999
21
-53.5506379999999993
0
LINE
8
BLACK
6
CONTINUOUS
10
142.279876999999999
20
-53.5506379999999993
11
142.4375760000000071
21
-53.8342719999999986
0
LINE
8
BLACK
6
CONTINUOUS
10
142.4375760000000071
20
-53.8342719999999986
11
142.5860549999999876
21
-54.1229239999999976
0
LINE
8
BLACK
6
CONTINUOUS
10
142.5860549999999876
20
-54.1229239999999976
11
142.7251839999999845
21
-54.416364999999999
0
LINE
8
BLACK
6
CONTINUOUS
10
142.7251839999999845
20
-54.416364999999999
11
142.8548299999999927
21
-54.7143689999999978
0
LINE
8
BLACK
6
CONTINUOUS
10
142.8548299999999927
20
-54.7143689999999978
11
142.9748620000000017
21
-55.0167049999999946
0
LINE
8
BLACK
6
CONTINUOUS
10
142.9748620000000017
20
-55.0167049999999946
11
143.0851470000000063
21
-55.3231469999999987
0
LINE
8
BLACK
6
CONTINUOUS
10
143.0851470000000063
20
-55.3231469999999987
11
143.1855549999999937
21
-55.6334659999999985
0
LINE
8
BLACK
6
CONTINUOUS
10
143.1855549999999937
20
-55.6334659999999985
11
143.275952999999987
21
-55.9474329999999966
0
LINE
8
BLACK
6
CONTINUOUS
10
143.275952999999987
20
-55.9474329999999966
11
143.3562100000000044
21
-56.2648209999999978
0
LINE
8
BLACK
6
CONTINUOUS
10
143.3562100000000044
20
-56.2648209999999978
11
143.4261929999999836
21
-56.5853999999999999
0
LINE
8
BLACK
6
CONTINUOUS
10
143.4261929999999836
20
-56.5853999999999999
11
143.4857719999999972
21
-56.9089430000000007
0
LINE
8
BLACK
6
CONTINUOUS
10
143.4857719999999972
20
-56.9089430000000007
11
143.5348129999999855
21
-57.2352220000000003
0
LINE
8
BLACK
6
CONTINUOUS
10
143.5348129999999855
20
-57.2352220000000003
11
143.5731859999999926
21
-57.5640079999999941
0
LINE
8
BLACK
6
CONTINUOUS
10
143.5731859999999926
20
-57.5640079999999941
11
143.6007579999999848
21
-57.8950729999999965
0
LINE
8
BLACK
6
CONTINUOUS
10
143.6007579999999848
20
-57.8950729999999965
11
143.6173979999999801
21
-58.2281879999999958
0
LINE
8
BLACK
6
CONTINUOUS
10
143.6173979999999801
20
-58.2281879999999958
11
143.6229739999999993
21
-58.5631259999999969
0
LINE
8
BLACK
6
CONTINUOUS
10
143.6229739999999993
20
-58.5631259999999969
11
143.6007579999999848
21
-59.2311799999999948
0
LINE
8
BLACK
6
CONTINUOUS
10
143.6007579999999848
20
-59.2311799999999948
11
143.5348129999999855
21
-59.8910300000000007
0
LINE
8
BLACK
6
CONTINUOUS
10
143.5348129999999855
20
-59.8910300000000007
11
143.4261929999999836
21
-60.5408519999999939
0
LINE
8
BLACK
6
CONTINUOUS
10
143.4261929999999836
20
-60.5408519999999939
11
143.275952999999987
21
-61.1788189999999972
0
LINE
8
BLACK
6
CONTINUOUS
10
143.275952999999987
20
-61.1788189999999972
11
143.0851470000000063
21
-61.8031049999999951
0
LINE
8
BLACK
6
CONTINUOUS
10
143.0851470000000063
20
-61.8031049999999951
11
142.8548299999999927
21
-62.411882999999996
0
LINE
8
BLACK
6
CONTINUOUS
10
142.8548299999999927
20
-62.411882999999996
11
142.5860549999999876
21
-63.0033279999999962
0
LINE
8
BLACK
6
CONTINUOUS
10
142.5860549999999876
20
-63.0033279999999962
11
142.279876999999999
21
-63.5756139999999945
0
LINE
8
BLACK
6
CONTINUOUS
10
142.279876999999999
20
-63.5756139999999945
11
141.9373510000000067
21
-64.1269130000000018
0
LINE
8
BLACK
6
CONTINUOUS
10
141.9373510000000067
20
-64.1269130000000018
11
141.5595309999999927
21
-64.6554009999999977
0
LINE
8
BLACK
6
CONTINUOUS
10
141.5595309999999927
20
-64.6554009999999977
11
141.1474709999999959
21
-65.1592500000000001
0
LINE
8
BLACK
6
CONTINUOUS
10
141.1474709999999959
20
-65.1592500000000001
11
140.7022249999999985
21
-65.6366349999999983
0
LINE
8
BLACK
6
CONTINUOUS
10
140.7022249999999985
20
-65.6366349999999983
11
140.2248490000000061
21
-66.0857299999999981
0
LINE
8
BLACK
6
CONTINUOUS
10
140.2248490000000061
20
-66.0857299999999981
11
139.7163960000000031
21
-66.5047079999999937
0
LINE
8
BLACK
6
CONTINUOUS
10
139.7163960000000031
20
-66.5047079999999937
11
139.1779200000000003
21
-66.8917429999999911
0
LINE
8
BLACK
6
CONTINUOUS
10
139.1779200000000003
20
-66.8917429999999911
11
138.610477000000003
21
-67.245008999999996
0
LINE
8
BLACK
6
CONTINUOUS
10
138.610477000000003
20
-67.245008999999996
11
138.0208179999999913
21
-67.5597959999999915
0
LINE
8
BLACK
6
CONTINUOUS
10
138.0208179999999913
20
-67.5597959999999915
11
137.4163979999999867
21
-67.8326119999999975
0
LINE
8
BLACK
6
CONTINUOUS
10
137.4163979999999867
20
-67.8326119999999975
11
136.7993270000000052
21
-68.0634560000000022
0
LINE
8
BLACK
6
CONTINUOUS
10
136.7993270000000052
20
-68.0634560000000022
11
136.1717119999999852
21
-68.2523279999999914
0
LINE
8
BLACK
6
CONTINUOUS
10
136.1717119999999852
20
-68.2523279999999914
11
135.5356620000000021
21
-68.3992289999999912
0
LINE
8
BLACK
6
CONTINUOUS
10
135.5356620000000021
20
-68.3992289999999912
11
134.8932859999999891
21
-68.5041580000000039
0
LINE
8
BLACK
6
CONTINUOUS
10
134.8932859999999891
20
-68.5041580000000039
11
134.2466929999999934
21
-68.5671159999999986
0
LINE
8
BLACK
6
CONTINUOUS
10
134.2466929999999934
20
-68.5671159999999986
11
133.597992000000005
21
-68.5881009999999947
0
LINE
8
BLACK
6
CONTINUOUS
10
133.597992000000005
20
-68.5881009999999947
11
132.9492899999999906
21
-68.5671159999999986
0
LINE
8
BLACK
6
CONTINUOUS
10
132.9492899999999906
20
-68.5671159999999986
11
132.3026969999999949
21
-68.5041580000000039
0
LINE
8
BLACK
6
CONTINUOUS
10
132.3026969999999949
20
-68.5041580000000039
11
131.660320999999982
21
-68.3992289999999912
0
LINE
8
BLACK
6
CONTINUOUS
10
131.660320999999982
20
-68.3992289999999912
11
131.0242719999999963
21
-68.2523290000000031
0
LINE
8
BLACK
6
CONTINUOUS
10
131.0242719999999963
20
-68.2523290000000031
11
130.3966570000000047
21
-68.0634560000000022
0
LINE
8
BLACK
6
CONTINUOUS
10
130.3966570000000047
20
-68.0634560000000022
11
129.7795849999999973
21
-67.8326119999999975
0
LINE
8
BLACK
6
CONTINUOUS
10
129.7795849999999973
20
-67.8326119999999975
11
129.1751649999999927
21
-67.5597970000000032
0
LINE
8
BLACK
6
CONTINUOUS
10
129.1751649999999927
20
-67.5597970000000032
11
128.585505999999981
21
-67.245008999999996
0
LINE
8
BLACK
6
CONTINUOUS
10
128.585505999999981
20
-67.245008999999996
11
128.2982289999999921
21
-67.0727109999999982
0
LINE
8
BLACK
6
CONTINUOUS
10
128.2982289999999921
20
-67.0727109999999982
11
128.0180619999999863
21
-66.8917429999999911
0
LINE
8
BLACK
6
CONTINUOUS
10
128.0180619999999863
20
-66.8917429999999911
11
127.7451369999999997
21
-66.7023319999999984
0
LINE
8
BLACK
6
CONTINUOUS
10
127.7451369999999997
20
-66.7023319999999984
11
127.4795869999999951
21
-66.5047069999999962
0
LINE
8
BLACK
6
CONTINUOUS
10
127.4795869999999951
20
-66.5047069999999962
11
127.2215409999999878
21
-66.2990970000000033
0
LINE
8
BLACK
6
CONTINUOUS
10
127.2215409999999878
20
-66.2990970000000033
11
126.9711339999999922
21
-66.0857290000000006
0
LINE
8
BLACK
6
CONTINUOUS
10
126.9711339999999922
20
-66.0857290000000006
11
126.7284949999999952
21
-65.8648319999999927
0
LINE
8
BLACK
6
CONTINUOUS
10
126.7284949999999952
20
-65.8648319999999927
11
126.493756999999988
21
-65.6366349999999983
0
LINE
8
BLACK
6
CONTINUOUS
10
126.493756999999988
20
-65.6366349999999983
11
126.26705299999999
21
-65.4013640000000009
0
LINE
8
BLACK
6
CONTINUOUS
10
126.26705299999999
20
-65.4013640000000009
11
126.0485119999999881
21
-65.1592490000000026
0
LINE
8
BLACK
6
CONTINUOUS
10
126.0485119999999881
20
-65.1592490000000026
11
125.8382689999999968
21
-64.9105189999999936
0
LINE
8
BLACK
6
CONTINUOUS
10
125.8382689999999968
20
-64.9105189999999936
11
125.6364529999999888
21
-64.6554000000000002
0
LINE
8
BLACK
6
CONTINUOUS
10
125.6364529999999888
20
-64.6554000000000002
11
125.4431969999999978
21
-64.3941219999999959
0
LINE
8
BLACK
6
CONTINUOUS
10
125.4431969999999978
20
-64.3941219999999959
11
125.2586340000000007
21
-64.1269119999999901
0
LINE
8
BLACK
6
CONTINUOUS
10
125.2586340000000007
20
-64.1269119999999901
11
125.0828929999999986
21
-63.8539999999999992
0
LINE
8
BLACK
6
CONTINUOUS
10
125.0828929999999986
20
-63.8539999999999992
11
124.9161079999999941
21
-63.575612999999997
0
LINE
8
BLACK
6
CONTINUOUS
10
124.9161079999999941
20
-63.575612999999997
11
124.7584099999999978
21
-63.2919789999999978
0
LINE
8
BLACK
6
CONTINUOUS
10
124.7584099999999978
20
-63.2919789999999978
11
124.6099320000000006
21
-63.0033279999999962
0
LINE
8
BLACK
6
CONTINUOUS
10
124.6099320000000006
20
-63.0033279999999962
11
124.4708029999999894
21
-62.7098859999999974
0
LINE
8
BLACK
6
CONTINUOUS
10
124.4708029999999894
20
-62.7098859999999974
11
124.341157999999993
21
-62.411882999999996
0
LINE
8
BLACK
6
CONTINUOUS
10
124.341157999999993
20
-62.411882999999996
11
124.2211259999999982
21
-62.1095459999999946
0
LINE
8
BLACK
6
CONTINUOUS
10
124.2211259999999982
20
-62.1095459999999946
11
124.1108409999999935
21
-61.8031039999999976
0
LINE
8
BLACK
6
CONTINUOUS
10
124.1108409999999935
20
-61.8031039999999976
11
124.0104339999999894
21
-61.4927859999999953
0
LINE
8
BLACK
6
CONTINUOUS
10
124.0104339999999894
20
-61.4927859999999953
11
123.9200359999999961
21
-61.1788189999999972
0
LINE
8
BLACK
6
CONTINUOUS
10
123.9200359999999961
20
-61.1788189999999972
11
123.8397799999999904
21
-60.8614309999999961
0
LINE
8
BLACK
6
CONTINUOUS
10
123.8397799999999904
20
-60.8614309999999961
11
123.7697959999999995
21
-60.5408519999999939
0
LINE
8
BLACK
6
CONTINUOUS
10
123.7697959999999995
20
-60.5408519999999939
11
123.710218999999995
21
-60.2173090000000002
0
LINE
8
BLACK
6
CONTINUOUS
10
123.710218999999995
20
-60.2173090000000002
11
123.661176999999995
21
-59.8910300000000007
0
LINE
8
BLACK
6
CONTINUOUS
10
123.661176999999995
20
-59.8910300000000007
11
123.6228049999999996
21
-59.5622439999999997
0
LINE
8
BLACK
6
CONTINUOUS
10
123.6228049999999996
20
-59.5622439999999997
11
123.5952329999999932
21
-59.2311799999999948
0
LINE
8
BLACK
6
CONTINUOUS
10
123.5952329999999932
20
-59.2311799999999948
11
123.5785929999999979
21
-58.898063999999998
0
LINE
8
BLACK
6
CONTINUOUS
10
123.5785929999999979
20
-58.898063999999998
11
123.573016999999993
21
-58.5631259999999969
0
LINE
8
BLACK
6
CONTINUOUS
10
123.573016999999993
20
-58.5631259999999969
11
123.5952329999999932
21
-57.8950729999999965
0
LINE
8
BLACK
6
CONTINUOUS
10
123.5952329999999932
20
-57.8950729999999965
11
123.661176999999995
21
-57.2352220000000003
0
LINE
8
BLACK
6
CONTINUOUS
10
123.661176999999995
20
-57.2352220000000003
11
123.7697959999999995
21
-56.5853999999999999
0
LINE
8
BLACK
6
CONTINUOUS
10
123.7697959999999995
20
-56.5853999999999999
11
123.9200359999999961
21
-55.9474329999999966
0
LINE
8
BLACK
6
CONTINUOUS
10
123.9200359999999961
20
-55.9474329999999966
11
124.1108409999999935
21
-55.3231469999999987
0
LINE
8
BLACK
6
CONTINUOUS
10
124.1108409999999935
20
-55.3231469999999987
11
124.341157999999993
21
-54.7143689999999978
0
LINE
8
BLACK
6
CONTINUOUS
10
124.341157999999993
20
-54.7143689999999978
11
124.6099320000000006
21
-54.1229239999999976
0
LINE
8
BLACK
6
CONTINUOUS
10
124.6099320000000006
20
-54.1229239999999976
11
124.9161079999999941
21
-53.5506379999999993
0
LINE
8
BLACK
6
CONTINUOUS
10
124.9161079999999941
20
-53.5506379999999993
11
125.2586340000000007
21
-52.9993389999999991
0
LINE
8
BLACK
6
CONTINUOUS
10
125.2586340000000007
20
-52.9993389999999991
11
125.6364529999999888
21
-52.4708509999999961
0
LINE
8
BLACK
6
CONTINUOUS
10
125.6364529999999888
20
-52.4708509999999961
11
126.0485119999999881
21
-51.9670020000000008
0
LINE
8
BLACK
6
CONTINUOUS
10
126.0485119999999881
20
-51.9670020000000008
11
126.493756999999988
21
-51.4896159999999981
0
LINE
8
BLACK
6
CONTINUOUS
10
126.493756999999988
20
-51.4896159999999981
11
126.9711339999999922
21
-51.0405219999999957
0
LINE
8
BLACK
6
CONTINUOUS
10
126.9711339999999922
20
-51.0405219999999957
11
127.4795869999999951
21
-50.6215429999999955
0
LINE
8
BLACK
6
CONTINUOUS
10
127.4795869999999951
20
-50.6215429999999955
11
128.0180619999999863
21
-50.2345079999999982
0
LINE
8
BLACK
6
CONTINUOUS
10
128.0180619999999863
20
-50.2345079999999982
11
128.585505999999981
21
-49.8812420000000003
0
LINE
8
BLACK
6
CONTINUOUS
10
128.585505999999981
20
-49.8812420000000003
11
129.1751649999999927
21
-49.5664540000000002
0
LINE
8
BLACK
6
CONTINUOUS
10
129.1751649999999927
20
-49.5664540000000002
11
129.7795849999999973
21
-49.2936379999999943
0
LINE
8
BLACK
6
CONTINUOUS
10
129.7795849999999973
20
-49.2936379999999943
11
130.3966570000000047
21
-49.0627939999999967
0
LINE
8
BLACK
6
CONTINUOUS
10
130.3966570000000047
20
-49.0627939999999967
11
131.0242719999999963
21
-48.8739220000000003
0
LINE
8
BLACK
6
CONTINUOUS
10
131.0242719999999963
20
-48.8739220000000003
11
131.660320999999982
21
-48.7270210000000006
0
LINE
8
BLACK
6
CONTINUOUS
10
131.660320999999982
20
-48.7270210000000006
11
132.3026969999999949
21
-48.622091999999995
0
LINE
8
BLACK
6
CONTINUOUS
10
132.3026969999999949
20
-48.622091999999995
11
132.9492899999999906
21
-48.5591349999999977
0
LINE
8
BLACK
6
CONTINUOUS
10
132.9492899999999906
20
-48.5591349999999977
11
133.597992000000005
21
-48.5381489999999971
0
LINE
8
BLACK
6
CONTINUOUS
10
133.597992000000005
20
-48.5381489999999971
11
134.2466929999999934
21
-48.5591349999999977
0
CIRCLE
8
BLACK
10
153.2892589999999871
20
-48.6351680000000002
40
2.54
0
LINE
8
BLACK
6
CONTINUOUS
10
76.1923850000000016
20
-110.8660509999999988
11
68.5799999999999983
21
-99.0600000000000023
0
LINE
8
BLACK
6
CONTINUOUS
10
198.1200000000000045
20
-60.9599999999999937
11
198.1200000000000045
21
-96.519999999999996
0
LINE
8
BLACK
6
CONTINUOUS
10
104.789599999999993
20
-69.3256999999999977
11
105.1895999999999987
21
-69.7257000000000033
0
LINE
8
BLACK
6
CONTINUOUS
10
105.1895999999999987
20
-69.3256999999999977
11
104.789599999999993
21
-69.7257000000000033
0
LINE
8
BLACK
6
CONTINUOUS
10
124.5908999999999907
20
-116.583999999999989
11
124.9908999999999963
21
-116.9839999999999947
0
LINE
8
BLACK
6
CONTINUOUS
10
124.9908999999999963
20
-116.583999999999989
11
124.5908999999999907
21
-116.9839999999999947
0
LINE
8
BLACK
6
CONTINUOUS
10
127.1293999999999897
20
-90.8211000000000013
11
127.5293999999999954
21
-91.2210999999999927
0
LINE
8
BLACK
6
CONTINUOUS
10
127.5293999999999954
20
-90.8211000000000013
11
127.1293999999999897
21
-91.2210999999999927
0
LINE
8
BLACK
6
CONTINUOUS
10
148.8777999999999793
20
-77.4388000000000005
11
149.2777999999999849
21
-77.838799999999992
0
LINE
8
BLACK
6
CONTINUOUS
10
149.2777999999999849
20
-77.4388000000000005
11
148.8777999999999793
21
-77.838799999999992
0
LINE
8
BLACK
6
CONTINUOUS
10
150.4864000000000033
20
-68.0293999999999954
11
150.8863999999999805
21
-68.4294000000000011
0
LINE
8
BLACK
6
CONTINUOUS
10
150.8863999999999805
20
-68.0293999999999954
11
150.4864000000000033
21
-68.4294000000000011
0
LINE
8
BLACK
6
CONTINUOUS
10
151.1425999999999874
20
-66.2660999999999945
11
151.5425999999999931
21
-66.6661000000000001
0
LINE
8
BLACK
6
CONTINUOUS
10
151.5425999999999931
20
-66.2660999999999945
11
151.1425999999999874
21
-66.6661000000000001
0
LINE
8
BLACK
6
CONTINUOUS
10
153.2098000000000013
20
-71.1818999999999988
11
153.609800000000007
21
-71.5818999999999903
0
LINE
8
BLACK
6
CONTINUOUS
10
153.609800000000007
20
-71.1818999999999988
11
153.2098000000000013
21
-71.5818999999999903
0
LINE
8
BLACK
6
CONTINUOUS
10
166.4298000000000002
20
-106.4799999999999898
11
166.8298000000000059
21
-106.8799999999999955
0
LINE
8
BLACK
6
CONTINUOUS
10
166.8298000000000059
20
-106.4799999999999898
11
166.4298000000000002
21
-106.8799999999999955
0
CIRCLE
8
BLACK
10
129.539999999999992
20
-104.1400000000000006
40
0.595
0
CIRCLE
8
BLACK
10
132.0799999999999841
20
-104.1400000000000006
40
0.595
0
LINE
8
BLACK
6
CONTINUOUS
10
71.1377679999999941
20
-122.5448379999999986
11
71.1377679999999941
21
-120.5448379999999986
0
LINE
8
BLACK
6
CONTINUOUS
10
71.1377679999999941
20
-120.5448379999999986
11
71.6139579999999967
21
-120.5448379999999986
0
LINE
8
BLACK
6
CONTINUOUS
10
71.6139579999999967
20
-120.5448379999999986
11
71.8996729999999928
21
-120.6400759999999934
0
LINE
8
BLACK
6
CONTINUOUS
10
71.8996729999999928
20
-120.6400759999999934
11
72.0901489999999967
21
-120.8305519999999973
0
LINE
8
BLACK
6
CONTINUOUS
10
72.0901489999999967
20
-120.8305519999999973
11
72.1853869999999915
21
-121.0210280000000012
0
LINE
8
BLACK
6
CONTINUOUS
10
72.1853869999999915
20
-121.0210280000000012
11
72.2806250000000006
21
-121.4019799999999947
0
LINE
8
BLACK
6
CONTINUOUS
10
72.2806250000000006
20
-121.4019799999999947
11
72.2806250000000006
21
-121.6876949999999908
0
LINE
8
BLACK
6
CONTINUOUS
10
72.2806250000000006
20
-121.6876949999999908
11
72.1853869999999915
21
-122.0686469999999986
0
LINE
8
BLACK
6
CONTINUOUS
10
72.1853869999999915
20
-122.0686469999999986
11
72.0901489999999967
21
-122.2591229999999882
0
LINE
8
BLACK
6
CONTINUOUS
10
72.0901489999999967
20
-122.2591229999999882
11
71.8996729999999928
21
-122.4495999999999896
0
LINE
8
BLACK
6
CONTINUOUS
10
71.8996729999999928
20
-122.4495999999999896
11
71.6139579999999967
21
-122.5448379999999986
0
LINE
8
BLACK
6
CONTINUOUS
10
71.6139579999999967
20
-122.5448379999999986
11
71.1377679999999941
21
-122.5448379999999986
0
LINE
8
BLACK
6
CONTINUOUS
10
73.1377679999999941
20
-122.5448379999999986
11
73.1377679999999941
21
-121.2115039999999908
0
LINE
8
BLACK
6
CONTINUOUS
10
73.1377679999999941
20
-121.592456999999996
11
73.2330060000000032
21
-121.4019799999999947
0
LINE
8
BLACK
6
CONTINUOUS
10
73.2330060000000032
20
-121.4019799999999947
11
73.328243999999998
21
-121.3067419999999998
0
LINE
8
BLACK
6
CONTINUOUS
10
73.328243999999998
20
-121.3067419999999998
11
73.5187200000000018
21
-121.2115039999999908
0
LINE
8
BLACK
6
CONTINUOUS
10
73.5187200000000018
20
-121.2115039999999908
11
73.7091970000000032
21
-121.2115039999999908
0
LINE
8
BLACK
6
CONTINUOUS
10
74.3758629999999954
20
-122.5448379999999986
11
74.3758629999999954
21
-121.2115039999999908
0
LINE
8
BLACK
6
CONTINUOUS
10
74.3758629999999954
20
-120.5448379999999986
11
74.2806250000000006
21
-120.6400759999999934
0
LINE
8
BLACK
6
CONTINUOUS
10
74.2806250000000006
20
-120.6400759999999934
11
74.3758629999999954
21
-120.7353139999999883
0
LINE
8
BLACK
6
CONTINUOUS
10
74.3758629999999954
20
-120.7353139999999883
11
74.4711009999999902
21
-120.6400759999999934
0
LINE
8
BLACK
6
CONTINUOUS
10
74.4711009999999902
20
-120.6400759999999934
11
74.3758629999999954
21
-120.5448379999999986
0
LINE
8
BLACK
6
CONTINUOUS
10
74.3758629999999954
20
-120.5448379999999986
11
74.3758629999999954
21
-120.7353139999999883
0
LINE
8
BLACK
6
CONTINUOUS
10
75.6139579999999967
20
-122.5448379999999986
11
75.4234819999999928
21
-122.4495999999999896
0
LINE
8
BLACK
6
CONTINUOUS
10
75.4234819999999928
20
-122.4495999999999896
11
75.328243999999998
21
-122.2591229999999882
0
LINE
8
BLACK
6
CONTINUOUS
10
75.328243999999998
20
-122.2591229999999882
11
75.328243999999998
21
-120.5448379999999986
0
LINE
8
BLACK
6
CONTINUOUS
10
76.6615769999999941
20
-122.5448379999999986
11
76.4711009999999902
21
-122.4495999999999896
0
LINE
8
BLACK
6
CONTINUOUS
10
76.4711009999999902
20
-122.4495999999999896
11
76.3758629999999954
21
-122.2591229999999882
0
LINE
8
BLACK
6
CONTINUOUS
10
76.3758629999999954
20
-122.2591229999999882
11
76.3758629999999954
21
-120.5448379999999986
0
LINE
8
BLACK
6
CONTINUOUS
10
78.9472919999999903
20
-122.5448379999999986
11
78.9472919999999903
21
-120.5448379999999986
0
LINE
8
BLACK
6
CONTINUOUS
10
78.9472919999999903
20
-120.5448379999999986
11
79.6139589999999941
21
-121.9734089999999895
0
LINE
8
BLACK
6
CONTINUOUS
10
79.6139589999999941
20
-121.9734089999999895
11
80.2806250000000006
21
-120.5448379999999986
0
LINE
8
BLACK
6
CONTINUOUS
10
80.2806250000000006
20
-120.5448379999999986
11
80.2806250000000006
21
-122.5448379999999986
0
LINE
8
BLACK
6
CONTINUOUS
10
82.0901489999999967
20
-122.5448379999999986
11
82.0901489999999967
21
-121.4972190000000012
0
LINE
8
BLACK
6
CONTINUOUS
10
82.0901489999999967
20
-121.4972190000000012
11
81.9949110000000019
21
-121.3067419999999998
0
LINE
8
BLACK
6
CONTINUOUS
10
81.9949110000000019
20
-121.3067419999999998
11
81.804434999999998
21
-121.2115039999999908
0
LINE
8
BLACK
6
CONTINUOUS
10
81.804434999999998
20
-121.2115039999999908
11
81.4234819999999928
21
-121.2115039999999908
0
LINE
8
BLACK
6
CONTINUOUS
10
81.4234819999999928
20
-121.2115039999999908
11
81.2330060000000032
21
-121.3067419999999998
0
LINE
8
BLACK
6
CONTINUOUS
10
82.0901489999999967
20
-122.4495999999999896
11
81.8996729999999928
21
-122.5448379999999986
0
LINE
8
BLACK
6
CONTINUOUS
10
81.8996729999999928
20
-122.5448379999999986
11
81.4234819999999928
21
-122.5448379999999986
0
LINE
8
BLACK
6
CONTINUOUS
10
81.4234819999999928
20
-122.5448379999999986
11
81.2330060000000032
21
-122.4495999999999896
0
LINE
8
BLACK
6
CONTINUOUS
10
81.2330060000000032
20
-122.4495999999999896
11
81.1377679999999941
21
-122.2591229999999882
0
LINE
8
BLACK
6
CONTINUOUS
10
81.1377679999999941
20
-122.2591229999999882
11
81.1377679999999941
21
-122.0686469999999986
0
LINE
8
BLACK
6
CONTINUOUS
10
81.1377679999999941
20
-122.0686469999999986
11
81.2330060000000032
21
-121.8781709999999947
0
LINE
8
BLACK
6
CONTINUOUS
10
81.2330060000000032
20
-121.8781709999999947
11
81.4234819999999928
21
-121.7829329999999999
0
LINE
8
BLACK
6
CONTINUOUS
10
81.4234819999999928
20
-121.7829329999999999
11
81.8996729999999928
21
-121.7829329999999999
0
LINE
8
BLACK
6
CONTINUOUS
10
81.8996729999999928
20
-121.7829329999999999
11
82.0901489999999967
21
-121.6876949999999908
0
LINE
8
BLACK
6
CONTINUOUS
10
83.0425299999999993
20
-121.2115039999999908
11
83.0425299999999993
21
-123.2115039999999908
0
LINE
8
BLACK
6
CONTINUOUS
10
83.0425299999999993
20
-121.3067419999999998
11
83.2330060000000032
21
-121.2115039999999908
0
LINE
8
BLACK
6
CONTINUOUS
10
83.2330060000000032
20
-121.2115039999999908
11
83.6139589999999941
21
-121.2115039999999908
0
LINE
8
BLACK
6
CONTINUOUS
10
83.6139589999999941
20
-121.2115039999999908
11
83.804434999999998
21
-121.3067419999999998
0
LINE
8
BLACK
6
CONTINUOUS
10
83.804434999999998
20
-121.3067419999999998
11
83.8996729999999928
21
-121.4019799999999947
0
LINE
8
BLACK
6
CONTINUOUS
10
83.8996729999999928
20
-121.4019799999999947
11
83.9949110000000019
21
-121.592456999999996
0
LINE
8
BLACK
6
CONTINUOUS
10
83.9949110000000019
20
-121.592456999999996
11
83.9949110000000019
21
-122.1638849999999934
0
LINE
8
BLACK
6
CONTINUOUS
10
83.9949110000000019
20
-122.1638849999999934
11
83.8996729999999928
21
-122.3543609999999973
0
LINE
8
BLACK
6
CONTINUOUS
10
83.8996729999999928
20
-122.3543609999999973
11
83.804434999999998
21
-122.4495999999999896
0
LINE
8
BLACK
6
CONTINUOUS
10
83.804434999999998
20
-122.4495999999999896
11
83.6139589999999941
21
-122.5448379999999986
0
LINE
8
BLACK
6
CONTINUOUS
10
83.6139589999999941
20
-122.5448379999999986
11
83.2330060000000032
21
-122.5448379999999986
0
LINE
8
BLACK
6
CONTINUOUS
10
83.2330060000000032
20
-122.5448379999999986
11
83.0425299999999993
21
-122.4495999999999896
0
LINE
8
BLACK
6
CONTINUOUS
10
84.8520539999999954
20
-122.3543609999999973
11
84.9472919999999903
21
-122.4495999999999896
0
LINE
8
BLACK
6
CONTINUOUS
10
84.9472919999999903
20
-122.4495999999999896
11
84.8520539999999954
21
-122.5448379999999986
0
LINE
8
BLACK
6
CONTINUOUS
10
84.8520539999999954
20
-122.5448379999999986
11
84.7568160000000006
21
-122.4495999999999896
0
LINE
8
BLACK
6
CONTINUOUS
10
84.7568160000000006
20
-122.4495999999999896
11
84.8520539999999954
21
-122.3543609999999973
0
LINE
8
BLACK
6
CONTINUOUS
10
84.8520539999999954
20
-122.3543609999999973
11
84.8520539999999954
21
-122.5448379999999986
0
LINE
8
BLACK
6
CONTINUOUS
10
84.8520539999999954
20
-121.3067419999999998
11
84.9472919999999903
21
-121.4019799999999947
0
LINE
8
BLACK
6
CONTINUOUS
10
84.9472919999999903
20
-121.4019799999999947
11
84.8520539999999954
21
-121.4972190000000012
0
LINE
8
BLACK
6
CONTINUOUS
10
84.8520539999999954
20
-121.4972190000000012
11
84.7568160000000006
21
-121.4019799999999947
0
LINE
8
BLACK
6
CONTINUOUS
10
84.7568160000000006
20
-121.4019799999999947
11
84.8520539999999954
21
-121.3067419999999998
0
LINE
8
BLACK
6
CONTINUOUS
10
84.8520539999999954
20
-121.3067419999999998
11
84.8520539999999954
21
-121.4972190000000012
0
LINE
8
BLACK
6
CONTINUOUS
10
68.1299999999999955
20
-125.6299999999999955
11
68.5300000000000011
21
-126.0300000000000011
0
LINE
8
BLACK
6
CONTINUOUS
10
68.5300000000000011
20
-125.6299999999999955
11
68.1299999999999955
21
-126.0300000000000011
0
LINE
8
BLACK
6
CONTINUOUS
10
71.5187200000000018
20
-124.7448380000000014
11
71.7091970000000032
21
-124.7448380000000014
0
LINE
8
BLACK
6
CONTINUOUS
10
71.7091970000000032
20
-124.7448380000000014
11
71.8996729999999928
21
-124.8400759999999963
0
LINE
8
BLACK
6
CONTINUOUS
10
71.8996729999999928
20
-124.8400759999999963
11
71.9949110000000019
21
-124.9353139999999911
0
LINE
8
BLACK
6
CONTINUOUS
10
71.9949110000000019
20
-124.9353139999999911
11
72.0901489999999967
21
-125.125789999999995
0
LINE
8
BLACK
6
CONTINUOUS
10
72.0901489999999967
20
-125.125789999999995
11
72.1853869999999915
21
-125.5067419999999885
0
LINE
8
BLACK
6
CONTINUOUS
10
72.1853869999999915
20
-125.5067419999999885
11
72.1853869999999915
21
-125.9829329999999885
0
LINE
8
BLACK
6
CONTINUOUS
10
72.1853869999999915
20
-125.9829329999999885
11
72.0901489999999967
21
-126.3638849999999962
0
LINE
8
BLACK
6
CONTINUOUS
10
72.0901489999999967
20
-126.3638849999999962
11
71.9949110000000019
21
-126.5543610000000001
0
LINE
8
BLACK
6
CONTINUOUS
10
71.9949110000000019
20
-126.5543610000000001
11
71.8996729999999928
21
-126.6495999999999924
0
LINE
8
BLACK
6
CONTINUOUS
10
71.8996729999999928
20
-126.6495999999999924
11
71.7091970000000032
21
-126.7448379999999872
0
LINE
8
BLACK
6
CONTINUOUS
10
71.7091970000000032
20
-126.7448379999999872
11
71.5187200000000018
21
-126.7448379999999872
0
LINE
8
BLACK
6
CONTINUOUS
10
71.5187200000000018
20
-126.7448379999999872
11
71.328243999999998
21
-126.6495999999999924
0
LINE
8
BLACK
6
CONTINUOUS
10
71.328243999999998
20
-126.6495999999999924
11
71.2330060000000032
21
-126.5543610000000001
0
LINE
8
BLACK
6
CONTINUOUS
10
71.2330060000000032
20
-126.5543610000000001
11
71.1377679999999941
21
-126.3638849999999962
0
LINE
8
BLACK
6
CONTINUOUS
10
71.1377679999999941
20
-126.3638849999999962
11
71.0425299999999993
21
-125.9829329999999885
0
LINE
8
BLACK
6
CONTINUOUS
10
71.0425299999999993
20
-125.9829329999999885
11
71.0425299999999993
21
-125.5067419999999885
0
LINE
8
BLACK
6
CONTINUOUS
10
71.0425299999999993
20
-125.5067419999999885
11
71.1377679999999941
21
-125.125789999999995
0
LINE
8
BLACK
6
CONTINUOUS
10
71.1377679999999941
20
-125.125789999999995
11
71.2330060000000032
21
-124.9353139999999911
0
LINE
8
BLACK
6
CONTINUOUS
10
71.2330060000000032
20
-124.9353139999999911
11
71.328243999999998
21
-124.8400759999999963
0
LINE
8
BLACK
6
CONTINUOUS
10
71.328243999999998
20
-124.8400759999999963
11
71.5187200000000018
21
-124.7448380000000014
0
LINE
8
BLACK
6
CONTINUOUS
10
73.0425299999999993
20
-126.5543610000000001
11
73.1377679999999941
21
-126.6495999999999924
0
LINE
8
BLACK
6
CONTINUOUS
10
73.1377679999999941
20
-126.6495999999999924
11
73.0425299999999993
21
-126.7448379999999872
0
LINE
8
BLACK
6
CONTINUOUS
10
73.0425299999999993
20
-126.7448379999999872
11
72.9472919999999903
21
-126.6495999999999924
0
LINE
8
BLACK
6
CONTINUOUS
10
72.9472919999999903
20
-126.6495999999999924
11
73.0425299999999993
21
-126.5543610000000001
0
LINE
8
BLACK
6
CONTINUOUS
10
73.0425299999999993
20
-126.5543610000000001
11
73.0425299999999993
21
-126.7448379999999872
0
LINE
8
BLACK
6
CONTINUOUS
10
74.8520539999999954
20
-125.4115039999999937
11
74.8520539999999954
21
-126.7448379999999872
0
LINE
8
BLACK
6
CONTINUOUS
10
74.3758629999999954
20
-124.6495999999999924
11
73.8996729999999928
21
-126.0781709999999975
0
LINE
8
BLACK
6
CONTINUOUS
10
73.8996729999999928
20
-126.0781709999999975
11
75.1377679999999941
21
-126.0781709999999975
0
LINE
8
BLACK
6
CONTINUOUS
10
76.2806250000000006
20
-124.7448380000000014
11
76.4711020000000019
21
-124.7448380000000014
0
LINE
8
BLACK
6
CONTINUOUS
10
76.4711020000000019
20
-124.7448380000000014
11
76.6615779999999916
21
-124.8400759999999963
0
LINE
8
BLACK
6
CONTINUOUS
10
76.6615779999999916
20
-124.8400759999999963
11
76.7568160000000006
21
-124.9353139999999911
0
LINE
8
BLACK
6
CONTINUOUS
10
76.7568160000000006
20
-124.9353139999999911
11
76.8520539999999954
21
-125.125789999999995
0
LINE
8
BLACK
6
CONTINUOUS
10
76.8520539999999954
20
-125.125789999999995
11
76.9472919999999903
21
-125.5067419999999885
0
LINE
8
BLACK
6
CONTINUOUS
10
76.9472919999999903
20
-125.5067419999999885
11
76.9472919999999903
21
-125.9829329999999885
0
LINE
8
BLACK
6
CONTINUOUS
10
76.9472919999999903
20
-125.9829329999999885
11
76.8520539999999954
21
-126.3638849999999962
0
LINE
8
BLACK
6
CONTINUOUS
10
76.8520539999999954
20
-126.3638849999999962
11
76.7568160000000006
21
-126.5543610000000001
0
LINE
8
BLACK
6
CONTINUOUS
10
76.7568160000000006
20
-126.5543610000000001
11
76.6615779999999916
21
-126.6495999999999924
0
LINE
8
BLACK
6
CONTINUOUS
10
76.6615779999999916
20
-126.6495999999999924
11
76.4711020000000019
21
-126.7448379999999872
0
LINE
8
BLACK
6
CONTINUOUS
10
76.4711020000000019
20
-126.7448379999999872
11
76.2806250000000006
21
-126.7448379999999872
0
LINE
8
BLACK
6
CONTINUOUS
10
76.2806250000000006
20
-126.7448379999999872
11
76.0901489999999967
21
-126.6495999999999924
0
LINE
8
BLACK
6
CONTINUOUS
10
76.0901489999999967
20
-126.6495999999999924
11
75.9949110000000019
21
-126.5543610000000001
0
LINE
8
BLACK
6
CONTINUOUS
10
75.9949110000000019
20
-126.5543610000000001
11
75.8996729999999928
21
-126.3638849999999962
0
LINE
8
BLACK
6
CONTINUOUS
10
75.8996729999999928
20
-126.3638849999999962
11
75.804434999999998
21
-125.9829329999999885
0
LINE
8
BLACK
6
CONTINUOUS
10
75.804434999999998
20
-125.9829329999999885
11
75.804434999999998
21
-125.5067419999999885
0
LINE
8
BLACK
6
CONTINUOUS
10
75.804434999999998
20
-125.5067419999999885
11
75.8996729999999928
21
-125.125789999999995
0
LINE
8
BLACK
6
CONTINUOUS
10
75.8996729999999928
20
-125.125789999999995
11
75.9949110000000019
21
-124.9353139999999911
0
LINE
8
BLACK
6
CONTINUOUS
10
75.9949110000000019
20
-124.9353139999999911
11
76.0901489999999967
21
-124.8400759999999963
0
LINE
8
BLACK
6
CONTINUOUS
10
76.0901489999999967
20
-124.8400759999999963
11
76.2806250000000006
21
-124.7448380000000014
0
LINE
8
BLACK
6
CONTINUOUS
10
78.1853869999999915
20
-124.7448380000000014
11
78.3758639999999929
21
-124.7448380000000014
0
LINE
8
BLACK
6
CONTINUOUS
10
78.3758639999999929
20
-124.7448380000000014
11
78.5663399999999967
21
-124.8400759999999963
0
LINE
8
BLACK
6
CONTINUOUS
10
78.5663399999999967
20
-124.8400759999999963
11
78.6615779999999916
21
-124.9353139999999911
0
LINE
8
BLACK
6
CONTINUOUS
10
78.6615779999999916
20
-124.9353139999999911
11
78.7568160000000006
21
-125.125789999999995
0
LINE
8
BLACK
6
CONTINUOUS
10
78.7568160000000006
20
-125.125789999999995
11
78.8520539999999954
21
-125.5067419999999885
0
LINE
8
BLACK
6
CONTINUOUS
10
78.8520539999999954
20
-125.5067419999999885
11
78.8520539999999954
21
-125.9829329999999885
0
LINE
8
BLACK
6
CONTINUOUS
10
78.8520539999999954
20
-125.9829329999999885
11
78.7568160000000006
21
-126.3638849999999962
0
LINE
8
BLACK
6
CONTINUOUS
10
78.7568160000000006
20
-126.3638849999999962
11
78.6615779999999916
21
-126.5543610000000001
0
LINE
8
BLACK
6
CONTINUOUS
10
78.6615779999999916
20
-126.5543610000000001
11
78.5663399999999967
21
-126.6495999999999924
0
LINE
8
BLACK
6
CONTINUOUS
10
78.5663399999999967
20
-126.6495999999999924
11
78.3758639999999929
21
-126.7448379999999872
0
LINE
8
BLACK
6
CONTINUOUS
10
78.3758639999999929
20
-126.7448379999999872
11
78.1853869999999915
21
-126.7448379999999872
0
LINE
8
BLACK
6
CONTINUOUS
10
78.1853869999999915
20
-126.7448379999999872
11
77.9949110000000019
21
-126.6495999999999924
0
LINE
8
BLACK
6
CONTINUOUS
10
77.9949110000000019
20
-126.6495999999999924
11
77.8996729999999928
21
-126.5543610000000001
0
LINE
8
BLACK
6
CONTINUOUS
10
77.8996729999999928
20
-126.5543610000000001
11
77.804434999999998
21
-126.3638849999999962
0
LINE
8
BLACK
6
CONTINUOUS
10
77.804434999999998
20
-126.3638849999999962
11
77.7091970000000032
21
-125.9829329999999885
0
LINE
8
BLACK
6
CONTINUOUS
10
77.7091970000000032
20
-125.9829329999999885
11
77.7091970000000032
21
-125.5067419999999885
0
LINE
8
BLACK
6
CONTINUOUS
10
77.7091970000000032
20
-125.5067419999999885
11
77.804434999999998
21
-125.125789999999995
0
LINE
8
BLACK
6
CONTINUOUS
10
77.804434999999998
20
-125.125789999999995
11
77.8996729999999928
21
-124.9353139999999911
0
LINE
8
BLACK
6
CONTINUOUS
10
77.8996729999999928
20
-124.9353139999999911
11
77.9949110000000019
21
-124.8400759999999963
0
LINE
8
BLACK
6
CONTINUOUS
10
77.9949110000000019
20
-124.8400759999999963
11
78.1853869999999915
21
-124.7448380000000014
0
LINE
8
BLACK
6
CONTINUOUS
10
79.7091970000000032
20
-126.7448379999999872
11
79.7091970000000032
21
-125.4115039999999937
0
LINE
8
BLACK
6
CONTINUOUS
10
79.7091970000000032
20
-125.6019799999999975
11
79.804434999999998
21
-125.5067419999999885
0
LINE
8
BLACK
6
CONTINUOUS
10
79.804434999999998
20
-125.5067419999999885
11
79.9949110000000019
21
-125.4115039999999937
0
LINE
8
BLACK
6
CONTINUOUS
10
79.9949110000000019
20
-125.4115039999999937
11
80.280625999999998
21
-125.4115039999999937
0
LINE
8
BLACK
6
CONTINUOUS
10
80.280625999999998
20
-125.4115039999999937
11
80.4711020000000019
21
-125.5067419999999885
0
LINE
8
BLACK
6
CONTINUOUS
10
80.4711020000000019
20
-125.5067419999999885
11
80.5663399999999967
21
-125.6972189999999898
0
LINE
8
BLACK
6
CONTINUOUS
10
80.5663399999999967
20
-125.6972189999999898
11
80.5663399999999967
21
-126.7448379999999872
0
LINE
8
BLACK
6
CONTINUOUS
10
80.5663399999999967
20
-125.6972189999999898
11
80.6615779999999916
21
-125.5067419999999885
0
LINE
8
BLACK
6
CONTINUOUS
10
80.6615779999999916
20
-125.5067419999999885
11
80.8520539999999954
21
-125.4115039999999937
0
LINE
8
BLACK
6
CONTINUOUS
10
80.8520539999999954
20
-125.4115039999999937
11
81.1377679999999941
21
-125.4115039999999937
0
LINE
8
BLACK
6
CONTINUOUS
10
81.1377679999999941
20
-125.4115039999999937
11
81.3282449999999955
21
-125.5067419999999885
0
LINE
8
BLACK
6
CONTINUOUS
10
81.3282449999999955
20
-125.5067419999999885
11
81.4234829999999903
21
-125.6972189999999898
0
LINE
8
BLACK
6
CONTINUOUS
10
81.4234829999999903
20
-125.6972189999999898
11
81.4234829999999903
21
-126.7448379999999872
0
LINE
8
BLACK
6
CONTINUOUS
10
82.3758639999999929
20
-126.7448379999999872
11
82.3758639999999929
21
-125.4115039999999937
0
LINE
8
BLACK
6
CONTINUOUS
10
82.3758639999999929
20
-125.6019799999999975
11
82.4711020000000019
21
-125.5067419999999885
0
LINE
8
BLACK
6
CONTINUOUS
10
82.4711020000000019
20
-125.5067419999999885
11
82.6615779999999916
21
-125.4115039999999937
0
LINE
8
BLACK
6
CONTINUOUS
10
82.6615779999999916
20
-125.4115039999999937
11
82.9472930000000019
21
-125.4115039999999937
0
LINE
8
BLACK
6
CONTINUOUS
10
82.9472930000000019
20
-125.4115039999999937
11
83.1377689999999916
21
-125.5067419999999885
0
LINE
8
BLACK
6
CONTINUOUS
10
83.1377689999999916
20
-125.5067419999999885
11
83.2330070000000006
21
-125.6972189999999898
0
LINE
8
BLACK
6
CONTINUOUS
10
83.2330070000000006
20
-125.6972189999999898
11
83.2330070000000006
21
-126.7448379999999872
0
LINE
8
BLACK
6
CONTINUOUS
10
83.2330070000000006
20
-125.6972189999999898
11
83.3282449999999955
21
-125.5067419999999885
0
LINE
8
BLACK
6
CONTINUOUS
10
83.3282449999999955
20
-125.5067419999999885
11
83.5187209999999993
21
-125.4115039999999937
0
LINE
8
BLACK
6
CONTINUOUS
10
83.5187209999999993
20
-125.4115039999999937
11
83.804434999999998
21
-125.4115039999999937
0
LINE
8
BLACK
6
CONTINUOUS
10
83.804434999999998
20
-125.4115039999999937
11
83.9949119999999994
21
-125.5067419999999885
0
LINE
8
BLACK
6
CONTINUOUS
10
83.9949119999999994
20
-125.5067419999999885
11
84.0901499999999942
21
-125.6972189999999898
0
LINE
8
BLACK
6
CONTINUOUS
10
84.0901499999999942
20
-125.6972189999999898
11
84.0901499999999942
21
-126.7448379999999872
0
LINE
8
BLACK
6
CONTINUOUS
10
87.9949119999999994
20
-124.6495999999999924
11
86.2806269999999955
21
-127.2210279999999898
0
LINE
8
BLACK
6
CONTINUOUS
10
90.5663409999999942
20
-124.7448380000000014
11
90.7568179999999955
21
-124.7448380000000014
0
LINE
8
BLACK
6
CONTINUOUS
10
90.7568179999999955
20
-124.7448380000000014
11
90.9472939999999994
21
-124.8400759999999963
0
LINE
8
BLACK
6
CONTINUOUS
10
90.9472939999999994
20
-124.8400759999999963
11
91.0425319999999942
21
-124.9353139999999911
0
LINE
8
BLACK
6
CONTINUOUS
10
91.0425319999999942
20
-124.9353139999999911
11
91.1377699999999891
21
-125.125789999999995
0
LINE
8
BLACK
6
CONTINUOUS
10
91.1377699999999891
20
-125.125789999999995
11
91.2330079999999981
21
-125.5067419999999885
0
LINE
8
BLACK
6
CONTINUOUS
10
91.2330079999999981
20
-125.5067419999999885
11
91.2330079999999981
21
-125.9829329999999885
0
LINE
8
BLACK
6
CONTINUOUS
10
91.2330079999999981
20
-125.9829329999999885
11
91.1377699999999891
21
-126.3638849999999962
0
LINE
8
BLACK
6
CONTINUOUS
10
91.1377699999999891
20
-126.3638849999999962
11
91.0425319999999942
21
-126.5543610000000001
0
LINE
8
BLACK
6
CONTINUOUS
10
91.0425319999999942
20
-126.5543610000000001
11
90.9472939999999994
21
-126.6495999999999924
0
LINE
8
BLACK
6
CONTINUOUS
10
90.9472939999999994
20
-126.6495999999999924
11
90.7568179999999955
21
-126.7448379999999872
0
LINE
8
BLACK
6
CONTINUOUS
10
90.7568179999999955
20
-126.7448379999999872
11
90.5663409999999942
21
-126.7448379999999872
0
LINE
8
BLACK
6
CONTINUOUS
10
90.5663409999999942
20
-126.7448379999999872
11
90.3758649999999903
21
-126.6495999999999924
0
LINE
8
BLACK
6
CONTINUOUS
10
90.3758649999999903
20
-126.6495999999999924
11
90.2806269999999955
21
-126.5543610000000001
0
LINE
8
BLACK
6
CONTINUOUS
10
90.2806269999999955
20
-126.5543610000000001
11
90.1853890000000007
21
-126.3638849999999962
0
LINE
8
BLACK
6
CONTINUOUS
10
90.1853890000000007
20
-126.3638849999999962
11
90.0901509999999917
21
-125.9829329999999885
0
LINE
8
BLACK
6
CONTINUOUS
10
90.0901509999999917
20
-125.9829329999999885
11
90.0901509999999917
21
-125.5067419999999885
0
LINE
8
BLACK
6
CONTINUOUS
10
90.0901509999999917
20
-125.5067419999999885
11
90.1853890000000007
21
-125.125789999999995
0
LINE
8
BLACK
6
CONTINUOUS
10
90.1853890000000007
20
-125.125789999999995
11
90.2806269999999955
21
-124.9353139999999911
0
LINE
8
BLACK
6
CONTINUOUS
10
90.2806269999999955
20
-124.9353139999999911
11
90.3758649999999903
21
-124.8400759999999963
0
LINE
8
BLACK
6
CONTINUOUS
10
90.3758649999999903
20
-124.8400759999999963
11
90.5663409999999942
21
-124.7448380000000014
0
LINE
8
BLACK
6
CONTINUOUS
10
92.0901509999999917
20
-126.5543610000000001
11
92.1853890000000007
21
-126.6495999999999924
0
LINE
8
BLACK
6
CONTINUOUS
10
92.1853890000000007
20
-126.6495999999999924
11
92.0901509999999917
21
-126.7448379999999872
0
LINE
8
BLACK
6
CONTINUOUS
10
92.0901509999999917
20
-126.7448379999999872
11
91.9949129999999968
21
-126.6495999999999924
0
LINE
8
BLACK
6
CONTINUOUS
10
91.9949129999999968
20
-126.6495999999999924
11
92.0901509999999917
21
-126.5543610000000001
0
LINE
8
BLACK
6
CONTINUOUS
10
92.0901509999999917
20
-126.5543610000000001
11
92.0901509999999917
21
-126.7448379999999872
0
LINE
8
BLACK
6
CONTINUOUS
10
93.423484000000002
20
-124.7448380000000014
11
93.6139609999999891
21
-124.7448380000000014
0
LINE
8
BLACK
6
CONTINUOUS
10
93.6139609999999891
20
-124.7448380000000014
11
93.804436999999993
21
-124.8400759999999963
0
LINE
8
BLACK
6
CONTINUOUS
10
93.804436999999993
20
-124.8400759999999963
11
93.899675000000002
21
-124.9353139999999911
0
LINE
8
BLACK
6
CONTINUOUS
10
93.899675000000002
20
-124.9353139999999911
11
93.9949129999999968
21
-125.125789999999995
0
LINE
8
BLACK
6
CONTINUOUS
10
93.9949129999999968
20
-125.125789999999995
11
94.0901509999999917
21
-125.5067419999999885
0
LINE
8
BLACK
6
CONTINUOUS
10
94.0901509999999917
20
-125.5067419999999885
11
94.0901509999999917
21
-125.9829329999999885
0
LINE
8
BLACK
6
CONTINUOUS
10
94.0901509999999917
20
-125.9829329999999885
11
93.9949129999999968
21
-126.3638849999999962
0
LINE
8
BLACK
6
CONTINUOUS
10
93.9949129999999968
20
-126.3638849999999962
11
93.899675000000002
21
-126.5543610000000001
0
LINE
8
BLACK
6
CONTINUOUS
10
93.899675000000002
20
-126.5543610000000001
11
93.804436999999993
21
-126.6495999999999924
0
LINE
8
BLACK
6
CONTINUOUS
10
93.804436999999993
20
-126.6495999999999924
11
93.6139609999999891
21
-126.7448379999999872
0
LINE
8
BLACK
6
CONTINUOUS
10
93.6139609999999891
20
-126.7448379999999872
11
93.423484000000002
21
-126.7448379999999872
0
LINE
8
BLACK
6
CONTINUOUS
10
93.423484000000002
20
-126.7448379999999872
11
93.2330079999999981
21
-126.6495999999999924
0
LINE
8
BLACK
6
CONTINUOUS
10
93.2330079999999981
20
-126.6495999999999924
11
93.1377699999999891
21
-126.5543610000000001
0
LINE
8
BLACK
6
CONTINUOUS
10
93.1377699999999891
20
-126.5543610000000001
11
93.0425319999999942
21
-126.3638849999999962
0
LINE
8
BLACK
6
CONTINUOUS
10
93.0425319999999942
20
-126.3638849999999962
11
92.9472939999999994
21
-125.9829329999999885
0
LINE
8
BLACK
6
CONTINUOUS
10
92.9472939999999994
20
-125.9829329999999885
11
92.9472939999999994
21
-125.5067419999999885
0
LINE
8
BLACK
6
CONTINUOUS
10
92.9472939999999994
20
-125.5067419999999885
11
93.0425319999999942
21
-125.125789999999995
0
LINE
8
BLACK
6
CONTINUOUS
10
93.0425319999999942
20
-125.125789999999995
11
93.1377699999999891
21
-124.9353139999999911
0
LINE
8
BLACK
6
CONTINUOUS
10
93.1377699999999891
20
-124.9353139999999911
11
93.2330079999999981
21
-124.8400759999999963
0
LINE
8
BLACK
6
CONTINUOUS
10
93.2330079999999981
20
-124.8400759999999963
11
93.423484000000002
21
-124.7448380000000014
0
LINE
8
BLACK
6
CONTINUOUS
10
95.9949129999999968
20
-126.7448379999999872
11
94.8520559999999904
21
-126.7448379999999872
0
LINE
8
BLACK
6
CONTINUOUS
10
95.423484000000002
20
-126.7448379999999872
11
95.423484000000002
21
-124.7448380000000014
0
LINE
8
BLACK
6
CONTINUOUS
10
95.423484000000002
20
-124.7448380000000014
11
95.2330079999999981
21
-125.0305520000000001
0
LINE
8
BLACK
6
CONTINUOUS
10
95.2330079999999981
20
-125.0305520000000001
11
95.0425319999999942
21
-125.2210279999999898
0
LINE
8
BLACK
6
CONTINUOUS
10
95.0425319999999942
20
-125.2210279999999898
11
94.8520559999999904
21
-125.3162659999999988
0
LINE
8
BLACK
6
CONTINUOUS
10
97.804436999999993
20
-124.7448380000000014
11
96.8520559999999904
21
-124.7448380000000014
0
LINE
8
BLACK
6
CONTINUOUS
10
96.8520559999999904
20
-124.7448380000000014
11
96.7568179999999955
21
-125.6972189999999898
0
LINE
8
BLACK
6
CONTINUOUS
10
96.7568179999999955
20
-125.6972189999999898
11
96.8520559999999904
21
-125.6019799999999975
0
LINE
8
BLACK
6
CONTINUOUS
10
96.8520559999999904
20
-125.6019799999999975
11
97.0425319999999942
21
-125.5067419999999885
0
LINE
8
BLACK
6
CONTINUOUS
10
97.0425319999999942
20
-125.5067419999999885
11
97.5187229999999943
21
-125.5067419999999885
0
LINE
8
BLACK
6
CONTINUOUS
10
97.5187229999999943
20
-125.5067419999999885
11
97.7091989999999981
21
-125.6019799999999975
0
LINE
8
BLACK
6
CONTINUOUS
10
97.7091989999999981
20
-125.6019799999999975
11
97.804436999999993
21
-125.6972189999999898
0
LINE
8
BLACK
6
CONTINUOUS
10
97.804436999999993
20
-125.6972189999999898
11
97.899675000000002
21
-125.8876949999999937
0
LINE
8
BLACK
6
CONTINUOUS
10
97.899675000000002
20
-125.8876949999999937
11
97.899675000000002
21
-126.3638849999999962
0
LINE
8
BLACK
6
CONTINUOUS
10
97.899675000000002
20
-126.3638849999999962
11
97.804436999999993
21
-126.5543610000000001
0
LINE
8
BLACK
6
CONTINUOUS
10
97.804436999999993
20
-126.5543610000000001
11
97.7091989999999981
21
-126.6495999999999924
0
LINE
8
BLACK
6
CONTINUOUS
10
97.7091989999999981
20
-126.6495999999999924
11
97.5187229999999943
21
-126.7448379999999872
0
LINE
8
BLACK
6
CONTINUOUS
10
97.5187229999999943
20
-126.7448379999999872
11
97.0425319999999942
21
-126.7448379999999872
0
LINE
8
BLACK
6
CONTINUOUS
10
97.0425319999999942
20
-126.7448379999999872
11
96.8520559999999904
21
-126.6495999999999924
0
LINE
8
BLACK
6
CONTINUOUS
10
96.8520559999999904
20
-126.6495999999999924
11
96.7568179999999955
21
-126.5543610000000001
0
LINE
8
BLACK
6
CONTINUOUS
10
98.5663419999999917
20
-124.7448380000000014
11
99.899675000000002
21
-124.7448380000000014
0
LINE
8
BLACK
6
CONTINUOUS
10
99.899675000000002
20
-124.7448380000000014
11
99.0425319999999942
21
-126.7448379999999872
0
LINE
8
BLACK
6
CONTINUOUS
10
100.5663419999999917
20
-124.7448380000000014
11
100.5663419999999917
21
-125.125789999999995
0
LINE
8
BLACK
6
CONTINUOUS
10
101.3282469999999904
20
-124.7448380000000014
11
101.3282469999999904
21
-125.125789999999995
0
LINE
8
BLACK
6
CONTINUOUS
10
104.2806289999999905
20
-127.5067419999999885
11
104.1853899999999982
21
-127.4115039999999937
0
LINE
8
BLACK
6
CONTINUOUS
10
104.1853899999999982
20
-127.4115039999999937
11
103.9949139999999943
21
-127.125789999999995
0
LINE
8
BLACK
6
CONTINUOUS
10
103.9949139999999943
20
-127.125789999999995
11
103.8996759999999995
21
-126.9353139999999911
0
LINE
8
BLACK
6
CONTINUOUS
10
103.8996759999999995
20
-126.9353139999999911
11
103.8044379999999904
21
-126.6495999999999924
0
LINE
8
BLACK
6
CONTINUOUS
10
103.8044379999999904
20
-126.6495999999999924
11
103.7091999999999956
21
-126.1734089999999924
0
LINE
8
BLACK
6
CONTINUOUS
10
103.7091999999999956
20
-126.1734089999999924
11
103.7091999999999956
21
-125.7924569999999989
0
LINE
8
BLACK
6
CONTINUOUS
10
103.7091999999999956
20
-125.7924569999999989
11
103.8044379999999904
21
-125.3162659999999988
0
LINE
8
BLACK
6
CONTINUOUS
10
103.8044379999999904
20
-125.3162659999999988
11
103.8996759999999995
21
-125.0305520000000001
0
LINE
8
BLACK
6
CONTINUOUS
10
103.8996759999999995
20
-125.0305520000000001
11
103.9949139999999943
21
-124.8400759999999963
0
LINE
8
BLACK
6
CONTINUOUS
10
103.9949139999999943
20
-124.8400759999999963
11
104.1853899999999982
21
-124.5543610000000001
0
LINE
8
BLACK
6
CONTINUOUS
10
104.1853899999999982
20
-124.5543610000000001
11
104.2806289999999905
21
-124.4591229999999911
0
LINE
8
BLACK
6
CONTINUOUS
10
105.3282469999999904
20
-125.6019799999999975
11
105.1377710000000008
21
-125.5067419999999885
0
LINE
8
BLACK
6
CONTINUOUS
10
105.1377710000000008
20
-125.5067419999999885
11
105.0425329999999917
21
-125.4115039999999937
0
LINE
8
BLACK
6
CONTINUOUS
10
105.0425329999999917
20
-125.4115039999999937
11
104.9472949999999969
21
-125.2210279999999898
0
LINE
8
BLACK
6
CONTINUOUS
10
104.9472949999999969
20
-125.2210279999999898
11
104.9472949999999969
21
-125.125789999999995
0
LINE
8
BLACK
6
CONTINUOUS
10
104.9472949999999969
20
-125.125789999999995
11
105.0425329999999917
21
-124.9353139999999911
0
LINE
8
BLACK
6
CONTINUOUS
10
105.0425329999999917
20
-124.9353139999999911
11
105.1377710000000008
21
-124.8400759999999963
0
LINE
8
BLACK
6
CONTINUOUS
10
105.1377710000000008
20
-124.8400759999999963
11
105.3282469999999904
21
-124.7448380000000014
0
LINE
8
BLACK
6
CONTINUOUS
10
105.3282469999999904
20
-124.7448380000000014
11
105.7091999999999956
21
-124.7448380000000014
0
LINE
8
BLACK
6
CONTINUOUS
10
105.7091999999999956
20
-124.7448380000000014
11
105.8996759999999995
21
-124.8400759999999963
0
LINE
8
BLACK
6
CONTINUOUS
10
105.8996759999999995
20
-124.8400759999999963
11
105.9949139999999943
21
-124.9353139999999911
0
LINE
8
BLACK
6
CONTINUOUS
10
105.9949139999999943
20
-124.9353139999999911
11
106.0901519999999891
21
-125.125789999999995
0
LINE
8
BLACK
6
CONTINUOUS
10
106.0901519999999891
20
-125.125789999999995
11
106.0901519999999891
21
-125.2210279999999898
0
LINE
8
BLACK
6
CONTINUOUS
10
106.0901519999999891
20
-125.2210279999999898
11
105.9949139999999943
21
-125.4115039999999937
0
LINE
8
BLACK
6
CONTINUOUS
10
105.9949139999999943
20
-125.4115039999999937
11
105.8996759999999995
21
-125.5067419999999885
0
LINE
8
BLACK
6
CONTINUOUS
10
105.8996759999999995
20
-125.5067419999999885
11
105.7091999999999956
21
-125.6019799999999975
0
LINE
8
BLACK
6
CONTINUOUS
10
105.7091999999999956
20
-125.6019799999999975
11
105.3282469999999904
21
-125.6019799999999975
0
LINE
8
BLACK
6
CONTINUOUS
10
105.3282469999999904
20
-125.6019799999999975
11
105.1377710000000008
21
-125.6972189999999898
0
LINE
8
BLACK
6
CONTINUOUS
10
105.1377710000000008
20
-125.6972189999999898
11
105.0425329999999917
21
-125.7924569999999989
0
LINE
8
BLACK
6
CONTINUOUS
10
105.0425329999999917
20
-125.7924569999999989
11
104.9472949999999969
21
-125.9829329999999885
0
LINE
8
BLACK
6
CONTINUOUS
10
104.9472949999999969
20
-125.9829329999999885
11
104.9472949999999969
21
-126.3638849999999962
0
LINE
8
BLACK
6
CONTINUOUS
10
104.9472949999999969
20
-126.3638849999999962
11
105.0425329999999917
21
-126.5543610000000001
0
LINE
8
BLACK
6
CONTINUOUS
10
105.0425329999999917
20
-126.5543610000000001
11
105.1377710000000008
21
-126.6495999999999924
0
LINE
8
BLACK
6
CONTINUOUS
10
105.1377710000000008
20
-126.6495999999999924
11
105.3282469999999904
21
-126.7448379999999872
0
LINE
8
BLACK
6
CONTINUOUS
10
105.3282469999999904
20
-126.7448379999999872
11
105.7091999999999956
21
-126.7448379999999872
0
LINE
8
BLACK
6
CONTINUOUS
10
105.7091999999999956
20
-126.7448379999999872
11
105.8996759999999995
21
-126.6495999999999924
0
LINE
8
BLACK
6
CONTINUOUS
10
105.8996759999999995
20
-126.6495999999999924
11
105.9949139999999943
21
-126.5543610000000001
0
LINE
8
BLACK
6
CONTINUOUS
10
105.9949139999999943
20
-126.5543610000000001
11
106.0901519999999891
21
-126.3638849999999962
0
LINE
8
BLACK
6
CONTINUOUS
10
106.0901519999999891
20
-126.3638849999999962
11
106.0901519999999891
21
-125.9829329999999885
0
LINE
8
BLACK
6
CONTINUOUS
10
106.0901519999999891
20
-125.9829329999999885
11
105.9949139999999943
21
-125.7924569999999989
0
LINE
8
BLACK
6
CONTINUOUS
10
105.9949139999999943
20
-125.7924569999999989
11
105.8996759999999995
21
-125.6972189999999898
0
LINE
8
BLACK
6
CONTINUOUS
10
105.8996759999999995
20
-125.6972189999999898
11
105.7091999999999956
21
-125.6019799999999975
0
LINE
8
BLACK
6
CONTINUOUS
10
108.4711049999999943
20
-126.7448379999999872
11
108.4711049999999943
21
-124.7448380000000014
0
LINE
8
BLACK
6
CONTINUOUS
10
109.3282480000000021
20
-126.7448379999999872
11
109.3282480000000021
21
-125.6972189999999898
0
LINE
8
BLACK
6
CONTINUOUS
10
109.3282480000000021
20
-125.6972189999999898
11
109.2330099999999931
21
-125.5067419999999885
0
LINE
8
BLACK
6
CONTINUOUS
10
109.2330099999999931
20
-125.5067419999999885
11
109.0425339999999892
21
-125.4115039999999937
0
LINE
8
BLACK
6
CONTINUOUS
10
109.0425339999999892
20
-125.4115039999999937
11
108.756818999999993
21
-125.4115039999999937
0
LINE
8
BLACK
6
CONTINUOUS
10
108.756818999999993
20
-125.4115039999999937
11
108.5663429999999892
21
-125.5067419999999885
0
LINE
8
BLACK
6
CONTINUOUS
10
108.5663429999999892
20
-125.5067419999999885
11
108.4711049999999943
21
-125.6019799999999975
0
LINE
8
BLACK
6
CONTINUOUS
10
110.5663429999999892
20
-126.7448379999999872
11
110.3758669999999995
21
-126.6495999999999924
0
LINE
8
BLACK
6
CONTINUOUS
10
110.3758669999999995
20
-126.6495999999999924
11
110.2806289999999905
21
-126.5543610000000001
0
LINE
8
BLACK
6
CONTINUOUS
10
110.2806289999999905
20
-126.5543610000000001
11
110.1853909999999956
21
-126.3638849999999962
0
LINE
8
BLACK
6
CONTINUOUS
10
110.1853909999999956
20
-126.3638849999999962
11
110.1853909999999956
21
-125.7924569999999989
0
LINE
8
BLACK
6
CONTINUOUS
10
110.1853909999999956
20
-125.7924569999999989
11
110.2806289999999905
21
-125.6019799999999975
0
LINE
8
BLACK
6
CONTINUOUS
10
110.2806289999999905
20
-125.6019799999999975
11
110.3758669999999995
21
-125.5067419999999885
0
LINE
8
BLACK
6
CONTINUOUS
10
110.3758669999999995
20
-125.5067419999999885
11
110.5663429999999892
21
-125.4115039999999937
0
LINE
8
BLACK
6
CONTINUOUS
10
110.5663429999999892
20
-125.4115039999999937
11
110.8520579999999995
21
-125.4115039999999937
0
LINE
8
BLACK
6
CONTINUOUS
10
110.8520579999999995
20
-125.4115039999999937
11
111.0425339999999892
21
-125.5067419999999885
0
LINE
8
BLACK
6
CONTINUOUS
10
111.0425339999999892
20
-125.5067419999999885
11
111.1377719999999982
21
-125.6019799999999975
0
LINE
8
BLACK
6
CONTINUOUS
10
111.1377719999999982
20
-125.6019799999999975
11
111.2330099999999931
21
-125.7924569999999989
0
LINE
8
BLACK
6
CONTINUOUS
10
111.2330099999999931
20
-125.7924569999999989
11
111.2330099999999931
21
-126.3638849999999962
0
LINE
8
BLACK
6
CONTINUOUS
10
111.2330099999999931
20
-126.3638849999999962
11
111.1377719999999982
21
-126.5543610000000001
0
LINE
8
BLACK
6
CONTINUOUS
10
111.1377719999999982
20
-126.5543610000000001
11
111.0425339999999892
21
-126.6495999999999924
0
LINE
8
BLACK
6
CONTINUOUS
10
111.0425339999999892
20
-126.6495999999999924
11
110.8520579999999995
21
-126.7448379999999872
0
LINE
8
BLACK
6
CONTINUOUS
10
110.8520579999999995
20
-126.7448379999999872
11
110.5663429999999892
21
-126.7448379999999872
0
LINE
8
BLACK
6
CONTINUOUS
10
112.3758669999999995
20
-126.7448379999999872
11
112.1853909999999956
21
-126.6495999999999924
0
LINE
8
BLACK
6
CONTINUOUS
10
112.1853909999999956
20
-126.6495999999999924
11
112.0901530000000008
21
-126.4591229999999911
0
LINE
8
BLACK
6
CONTINUOUS
10
112.0901530000000008
20
-126.4591229999999911
11
112.0901530000000008
21
-124.7448380000000014
0
LINE
8
BLACK
6
CONTINUOUS
10
113.899676999999997
20
-126.6495999999999924
11
113.7092009999999931
21
-126.7448379999999872
0
LINE
8
BLACK
6
CONTINUOUS
10
113.7092009999999931
20
-126.7448379999999872
11
113.3282479999999879
21
-126.7448379999999872
0
LINE
8
BLACK
6
CONTINUOUS
10
113.3282479999999879
20
-126.7448379999999872
11
113.1377719999999982
21
-126.6495999999999924
0
LINE
8
BLACK
6
CONTINUOUS
10
113.1377719999999982
20
-126.6495999999999924
11
113.0425339999999892
21
-126.4591229999999911
0
LINE
8
BLACK
6
CONTINUOUS
10
113.0425339999999892
20
-126.4591229999999911
11
113.0425339999999892
21
-125.6972189999999898
0
LINE
8
BLACK
6
CONTINUOUS
10
113.0425339999999892
20
-125.6972189999999898
11
113.1377719999999982
21
-125.5067419999999885
0
LINE
8
BLACK
6
CONTINUOUS
10
113.1377719999999982
20
-125.5067419999999885
11
113.3282479999999879
21
-125.4115039999999937
0
LINE
8
BLACK
6
CONTINUOUS
10
113.3282479999999879
20
-125.4115039999999937
11
113.7092009999999931
21
-125.4115039999999937
0
LINE
8
BLACK
6
CONTINUOUS
10
113.7092009999999931
20
-125.4115039999999937
11
113.899676999999997
21
-125.5067419999999885
0
LINE
8
BLACK
6
CONTINUOUS
10
113.899676999999997
20
-125.5067419999999885
11
113.9949149999999918
21
-125.6972189999999898
0
LINE
8
BLACK
6
CONTINUOUS
10
113.9949149999999918
20
-125.6972189999999898
11
113.9949149999999918
21
-125.8876949999999937
0
LINE
8
BLACK
6
CONTINUOUS
10
113.9949149999999918
20
-125.8876949999999937
11
113.0425339999999892
21
-126.0781709999999975
0
LINE
8
BLACK
6
CONTINUOUS
10
114.7568199999999905
20
-126.6495999999999924
11
114.9472959999999944
21
-126.7448379999999872
0
LINE
8
BLACK
6
CONTINUOUS
10
114.9472959999999944
20
-126.7448379999999872
11
115.3282479999999879
21
-126.7448379999999872
0
LINE
8
BLACK
6
CONTINUOUS
10
115.3282479999999879
20
-126.7448379999999872
11
115.5187249999999892
21
-126.6495999999999924
0
LINE
8
BLACK
6
CONTINUOUS
10
115.5187249999999892
20
-126.6495999999999924
11
115.6139629999999983
21
-126.4591229999999911
0
LINE
8
BLACK
6
CONTINUOUS
10
115.6139629999999983
20
-126.4591229999999911
11
115.6139629999999983
21
-126.3638849999999962
0
LINE
8
BLACK
6
CONTINUOUS
10
115.6139629999999983
20
-126.3638849999999962
11
115.5187249999999892
21
-126.1734089999999924
0
LINE
8
BLACK
6
CONTINUOUS
10
115.5187249999999892
20
-126.1734089999999924
11
115.3282479999999879
21
-126.0781709999999975
0
LINE
8
BLACK
6
CONTINUOUS
10
115.3282479999999879
20
-126.0781709999999975
11
115.0425339999999892
21
-126.0781709999999975
0
LINE
8
BLACK
6
CONTINUOUS
10
115.0425339999999892
20
-126.0781709999999975
11
114.8520579999999995
21
-125.9829329999999885
0
LINE
8
BLACK
6
CONTINUOUS
10
114.8520579999999995
20
-125.9829329999999885
11
114.7568199999999905
21
-125.7924569999999989
0
LINE
8
BLACK
6
CONTINUOUS
10
114.7568199999999905
20
-125.7924569999999989
11
114.7568199999999905
21
-125.6972189999999898
0
LINE
8
BLACK
6
CONTINUOUS
10
114.7568199999999905
20
-125.6972189999999898
11
114.8520579999999995
21
-125.5067419999999885
0
LINE
8
BLACK
6
CONTINUOUS
10
114.8520579999999995
20
-125.5067419999999885
11
115.0425339999999892
21
-125.4115039999999937
0
LINE
8
BLACK
6
CONTINUOUS
10
115.0425339999999892
20
-125.4115039999999937
11
115.3282479999999879
21
-125.4115039999999937
0
LINE
8
BLACK
6
CONTINUOUS
10
115.3282479999999879
20
-125.4115039999999937
11
115.5187249999999892
21
-125.5067419999999885
0
LINE
8
BLACK
6
CONTINUOUS
10
116.2806299999999879
20
-127.5067419999999885
11
116.375867999999997
21
-127.4115039999999937
0
LINE
8
BLACK
6
CONTINUOUS
10
116.375867999999997
20
-127.4115039999999937
11
116.5663440000000008
21
-127.125789999999995
0
LINE
8
BLACK
6
CONTINUOUS
10
116.5663440000000008
20
-127.125789999999995
11
116.6615819999999957
21
-126.9353139999999911
0
LINE
8
BLACK
6
CONTINUOUS
10
116.6615819999999957
20
-126.9353139999999911
11
116.7568199999999905
21
-126.6495999999999924
0
LINE
8
BLACK
6
CONTINUOUS
10
116.7568199999999905
20
-126.6495999999999924
11
116.8520579999999995
21
-126.1734089999999924
0
LINE
8
BLACK
6
CONTINUOUS
10
116.8520579999999995
20
-126.1734089999999924
11
116.8520579999999995
21
-125.7924569999999989
0
LINE
8
BLACK
6
CONTINUOUS
10
116.8520579999999995
20
-125.7924569999999989
11
116.7568199999999905
21
-125.3162659999999988
0
LINE
8
BLACK
6
CONTINUOUS
10
116.7568199999999905
20
-125.3162659999999988
11
116.6615819999999957
21
-125.0305520000000001
0
LINE
8
BLACK
6
CONTINUOUS
10
116.6615819999999957
20
-125.0305520000000001
11
116.5663440000000008
21
-124.8400759999999963
0
LINE
8
BLACK
6
CONTINUOUS
10
116.5663440000000008
20
-124.8400759999999963
11
116.375867999999997
21
-124.5543610000000001
0
LINE
8
BLACK
6
CONTINUOUS
10
116.375867999999997
20
-124.5543610000000001
11
116.2806299999999879
21
-124.4591229999999911
0
CIRCLE
8
BLACK
10
67.9350000000000023
20
-128.4699999999999989
40
0.595
0
LINE
8
BLACK
6
CONTINUOUS
10
72.1853869999999915
20
-129.384838000000002
11
71.0425299999999993
21
-129.384838000000002
0
LINE
8
BLACK
6
CONTINUOUS
10
71.6139579999999967
20
-129.384838000000002
11
71.6139579999999967
21
-127.3848379999999878
0
LINE
8
BLACK
6
CONTINUOUS
10
71.6139579999999967
20
-127.3848379999999878
11
71.4234819999999928
21
-127.6705520000000007
0
LINE
8
BLACK
6
CONTINUOUS
10
71.4234819999999928
20
-127.6705520000000007
11
71.2330060000000032
21
-127.8610279999999904
0
LINE
8
BLACK
6
CONTINUOUS
10
71.2330060000000032
20
-127.8610279999999904
11
71.0425299999999993
21
-127.9562659999999994
0
LINE
8
BLACK
6
CONTINUOUS
10
73.0425299999999993
20
-129.1943609999999865
11
73.1377679999999941
21
-129.2896000000000072
0
LINE
8
BLACK
6
CONTINUOUS
10
73.1377679999999941
20
-129.2896000000000072
11
73.0425299999999993
21
-129.384838000000002
0
LINE
8
BLACK
6
CONTINUOUS
10
73.0425299999999993
20
-129.384838000000002
11
72.9472919999999903
21
-129.2896000000000072
0
LINE
8
BLACK
6
CONTINUOUS
10
72.9472919999999903
20
-129.2896000000000072
11
73.0425299999999993
21
-129.1943609999999865
0
LINE
8
BLACK
6
CONTINUOUS
10
73.0425299999999993
20
-129.1943609999999865
11
73.0425299999999993
21
-129.384838000000002
0
LINE
8
BLACK
6
CONTINUOUS
10
75.0425299999999993
20
-129.384838000000002
11
73.8996729999999928
21
-129.384838000000002
0
LINE
8
BLACK
6
CONTINUOUS
10
74.4711009999999902
20
-129.384838000000002
11
74.4711009999999902
21
-127.3848379999999878
0
LINE
8
BLACK
6
CONTINUOUS
10
74.4711009999999902
20
-127.3848379999999878
11
74.2806250000000006
21
-127.6705520000000007
0
LINE
8
BLACK
6
CONTINUOUS
10
74.2806250000000006
20
-127.6705520000000007
11
74.0901489999999967
21
-127.8610279999999904
0
LINE
8
BLACK
6
CONTINUOUS
10
74.0901489999999967
20
-127.8610279999999904
11
73.8996729999999928
21
-127.9562659999999994
0
LINE
8
BLACK
6
CONTINUOUS
10
75.9949110000000019
20
-129.384838000000002
11
76.3758629999999954
21
-129.384838000000002
0
LINE
8
BLACK
6
CONTINUOUS
10
76.3758629999999954
20
-129.384838000000002
11
76.5663399999999967
21
-129.2896000000000072
0
LINE
8
BLACK
6
CONTINUOUS
10
76.5663399999999967
20
-129.2896000000000072
11
76.6615779999999916
21
-129.1943609999999865
0
LINE
8
BLACK
6
CONTINUOUS
10
76.6615779999999916
20
-129.1943609999999865
11
76.8520539999999954
21
-128.908647000000002
0
LINE
8
BLACK
6
CONTINUOUS
10
76.8520539999999954
20
-128.908647000000002
11
76.9472919999999903
21
-128.5276949999999943
0
LINE
8
BLACK
6
CONTINUOUS
10
76.9472919999999903
20
-128.5276949999999943
11
76.9472919999999903
21
-127.7657899999999955
0
LINE
8
BLACK
6
CONTINUOUS
10
76.9472919999999903
20
-127.7657899999999955
11
76.8520539999999954
21
-127.5753139999999917
0
LINE
8
BLACK
6
CONTINUOUS
10
76.8520539999999954
20
-127.5753139999999917
11
76.7568160000000006
21
-127.4800759999999968
0
LINE
8
BLACK
6
CONTINUOUS
10
76.7568160000000006
20
-127.4800759999999968
11
76.5663399999999967
21
-127.3848379999999878
0
LINE
8
BLACK
6
CONTINUOUS
10
76.5663399999999967
20
-127.3848379999999878
11
76.1853869999999915
21
-127.3848379999999878
0
LINE
8
BLACK
6
CONTINUOUS
10
76.1853869999999915
20
-127.3848379999999878
11
75.9949110000000019
21
-127.4800759999999968
0
LINE
8
BLACK
6
CONTINUOUS
10
75.9949110000000019
20
-127.4800759999999968
11
75.8996729999999928
21
-127.5753139999999917
0
LINE
8
BLACK
6
CONTINUOUS
10
75.8996729999999928
20
-127.5753139999999917
11
75.804434999999998
21
-127.7657899999999955
0
LINE
8
BLACK
6
CONTINUOUS
10
75.804434999999998
20
-127.7657899999999955
11
75.804434999999998
21
-128.2419799999999839
0
LINE
8
BLACK
6
CONTINUOUS
10
75.804434999999998
20
-128.2419799999999839
11
75.8996729999999928
21
-128.4324569999999994
0
LINE
8
BLACK
6
CONTINUOUS
10
75.8996729999999928
20
-128.4324569999999994
11
75.9949110000000019
21
-128.5276949999999943
0
LINE
8
BLACK
6
CONTINUOUS
10
75.9949110000000019
20
-128.5276949999999943
11
76.1853869999999915
21
-128.6229329999999891
0
LINE
8
BLACK
6
CONTINUOUS
10
76.1853869999999915
20
-128.6229329999999891
11
76.5663399999999967
21
-128.6229329999999891
0
LINE
8
BLACK
6
CONTINUOUS
10
76.5663399999999967
20
-128.6229329999999891
11
76.7568160000000006
21
-128.5276949999999943
0
LINE
8
BLACK
6
CONTINUOUS
10
76.7568160000000006
20
-128.5276949999999943
11
76.8520539999999954
21
-128.4324569999999994
0
LINE
8
BLACK
6
CONTINUOUS
10
76.8520539999999954
20
-128.4324569999999994
11
76.9472919999999903
21
-128.2419799999999839
0
LINE
8
BLACK
6
CONTINUOUS
10
78.1853869999999915
20
-127.3848379999999878
11
78.3758639999999929
21
-127.3848379999999878
0
LINE
8
BLACK
6
CONTINUOUS
10
78.3758639999999929
20
-127.3848379999999878
11
78.5663399999999967
21
-127.4800759999999968
0
LINE
8
BLACK
6
CONTINUOUS
10
78.5663399999999967
20
-127.4800759999999968
11
78.6615779999999916
21
-127.5753139999999917
0
LINE
8
BLACK
6
CONTINUOUS
10
78.6615779999999916
20
-127.5753139999999917
11
78.7568160000000006
21
-127.7657899999999955
0
LINE
8
BLACK
6
CONTINUOUS
10
78.7568160000000006
20
-127.7657899999999955
11
78.8520539999999954
21
-128.146741999999989
0
LINE
8
BLACK
6
CONTINUOUS
10
78.8520539999999954
20
-128.146741999999989
11
78.8520539999999954
21
-128.6229329999999891
0
LINE
8
BLACK
6
CONTINUOUS
10
78.8520539999999954
20
-128.6229329999999891
11
78.7568160000000006
21
-129.0038849999999968
0
LINE
8
BLACK
6
CONTINUOUS
10
78.7568160000000006
20
-129.0038849999999968
11
78.6615779999999916
21
-129.1943609999999865
0
LINE
8
BLACK
6
CONTINUOUS
10
78.6615779999999916
20
-129.1943609999999865
11
78.5663399999999967
21
-129.2896000000000072
0
LINE
8
BLACK
6
CONTINUOUS
10
78.5663399999999967
20
-129.2896000000000072
11
78.3758639999999929
21
-129.384838000000002
0
LINE
8
BLACK
6
CONTINUOUS
10
78.3758639999999929
20
-129.384838000000002
11
78.1853869999999915
21
-129.384838000000002
0
LINE
8
BLACK
6
CONTINUOUS
10
78.1853869999999915
20
-129.384838000000002
11
77.9949110000000019
21
-129.2896000000000072
0
LINE
8
BLACK
6
CONTINUOUS
10
77.9949110000000019
20
-129.2896000000000072
11
77.8996729999999928
21
-129.1943609999999865
0
LINE
8
BLACK
6
CONTINUOUS
10
77.8996729999999928
20
-129.1943609999999865
11
77.804434999999998
21
-129.0038849999999968
0
LINE
8
BLACK
6
CONTINUOUS
10
77.804434999999998
20
-129.0038849999999968
11
77.7091970000000032
21
-128.6229329999999891
0
LINE
8
BLACK
6
CONTINUOUS
10
77.7091970000000032
20
-128.6229329999999891
11
77.7091970000000032
21
-128.146741999999989
0
LINE
8
BLACK
6
CONTINUOUS
10
77.7091970000000032
20
-128.146741999999989
11
77.804434999999998
21
-127.7657899999999955
0
LINE
8
BLACK
6
CONTINUOUS
10
77.804434999999998
20
-127.7657899999999955
11
77.8996729999999928
21
-127.5753139999999917
0
LINE
8
BLACK
6
CONTINUOUS
10
77.8996729999999928
20
-127.5753139999999917
11
77.9949110000000019
21
-127.4800759999999968
0
LINE
8
BLACK
6
CONTINUOUS
10
77.9949110000000019
20
-127.4800759999999968
11
78.1853869999999915
21
-127.3848379999999878
0
LINE
8
BLACK
6
CONTINUOUS
10
79.7091970000000032
20
-129.384838000000002
11
79.7091970000000032
21
-128.0515039999999942
0
LINE
8
BLACK
6
CONTINUOUS
10
79.7091970000000032
20
-128.2419799999999839
11
79.804434999999998
21
-128.146741999999989
0
LINE
8
BLACK
6
CONTINUOUS
10
79.804434999999998
20
-128.146741999999989
11
79.9949110000000019
21
-128.0515039999999942
0
LINE
8
BLACK
6
CONTINUOUS
10
79.9949110000000019
20
-128.0515039999999942
11
80.280625999999998
21
-128.0515039999999942
0
LINE
8
BLACK
6
CONTINUOUS
10
80.280625999999998
20
-128.0515039999999942
11
80.4711020000000019
21
-128.146741999999989
0
LINE
8
BLACK
6
CONTINUOUS
10
80.4711020000000019
20
-128.146741999999989
11
80.5663399999999967
21
-128.3372190000000046
0
LINE
8
BLACK
6
CONTINUOUS
10
80.5663399999999967
20
-128.3372190000000046
11
80.5663399999999967
21
-129.384838000000002
0
LINE
8
BLACK
6
CONTINUOUS
10
80.5663399999999967
20
-128.3372190000000046
11
80.6615779999999916
21
-128.146741999999989
0
LINE
8
BLACK
6
CONTINUOUS
10
80.6615779999999916
20
-128.146741999999989
11
80.8520539999999954
21
-128.0515039999999942
0
LINE
8
BLACK
6
CONTINUOUS
10
80.8520539999999954
20
-128.0515039999999942
11
81.1377679999999941
21
-128.0515039999999942
0
LINE
8
BLACK
6
CONTINUOUS
10
81.1377679999999941
20
-128.0515039999999942
11
81.3282449999999955
21
-128.146741999999989
0
LINE
8
BLACK
6
CONTINUOUS
10
81.3282449999999955
20
-128.146741999999989
11
81.4234829999999903
21
-128.3372190000000046
0
LINE
8
BLACK
6
CONTINUOUS
10
81.4234829999999903
20
-128.3372190000000046
11
81.4234829999999903
21
-129.384838000000002
0
LINE
8
BLACK
6
CONTINUOUS
10
82.3758639999999929
20
-129.384838000000002
11
82.3758639999999929
21
-128.0515039999999942
0
LINE
8
BLACK
6
CONTINUOUS
10
82.3758639999999929
20
-128.2419799999999839
11
82.4711020000000019
21
-128.146741999999989
0
LINE
8
BLACK
6
CONTINUOUS
10
82.4711020000000019
20
-128.146741999999989
11
82.6615779999999916
21
-128.0515039999999942
0
LINE
8
BLACK
6
CONTINUOUS
10
82.6615779999999916
20
-128.0515039999999942
11
82.9472930000000019
21
-128.0515039999999942
0
LINE
8
BLACK
6
CONTINUOUS
10
82.9472930000000019
20
-128.0515039999999942
11
83.1377689999999916
21
-128.146741999999989
0
LINE
8
BLACK
6
CONTINUOUS
10
83.1377689999999916
20
-128.146741999999989
11
83.2330070000000006
21
-128.3372190000000046
0
LINE
8
BLACK
6
CONTINUOUS
10
83.2330070000000006
20
-128.3372190000000046
11
83.2330070000000006
21
-129.384838000000002
0
LINE
8
BLACK
6
CONTINUOUS
10
83.2330070000000006
20
-128.3372190000000046
11
83.3282449999999955
21
-128.146741999999989
0
LINE
8
BLACK
6
CONTINUOUS
10
83.3282449999999955
20
-128.146741999999989
11
83.5187209999999993
21
-128.0515039999999942
0
LINE
8
BLACK
6
CONTINUOUS
10
83.5187209999999993
20
-128.0515039999999942
11
83.804434999999998
21
-128.0515039999999942
0
LINE
8
BLACK
6
CONTINUOUS
10
83.804434999999998
20
-128.0515039999999942
11
83.9949119999999994
21
-128.146741999999989
0
LINE
8
BLACK
6
CONTINUOUS
10
83.9949119999999994
20
-128.146741999999989
11
84.0901499999999942
21
-128.3372190000000046
0
LINE
8
BLACK
6
CONTINUOUS
10
84.0901499999999942
20
-128.3372190000000046
11
84.0901499999999942
21
-129.384838000000002
0
LINE
8
BLACK
6
CONTINUOUS
10
87.9949119999999994
20
-127.289599999999993
11
86.2806269999999955
21
-129.8610280000000046
0
LINE
8
BLACK
6
CONTINUOUS
10
90.5663409999999942
20
-127.3848379999999878
11
90.7568179999999955
21
-127.3848379999999878
0
LINE
8
BLACK
6
CONTINUOUS
10
90.7568179999999955
20
-127.3848379999999878
11
90.9472939999999994
21
-127.4800759999999968
0
LINE
8
BLACK
6
CONTINUOUS
10
90.9472939999999994
20
-127.4800759999999968
11
91.0425319999999942
21
-127.5753139999999917
0
LINE
8
BLACK
6
CONTINUOUS
10
91.0425319999999942
20
-127.5753139999999917
11
91.1377699999999891
21
-127.7657899999999955
0
LINE
8
BLACK
6
CONTINUOUS
10
91.1377699999999891
20
-127.7657899999999955
11
91.2330079999999981
21
-128.146741999999989
0
LINE
8
BLACK
6
CONTINUOUS
10
91.2330079999999981
20
-128.146741999999989
11
91.2330079999999981
21
-128.6229329999999891
0
LINE
8
BLACK
6
CONTINUOUS
10
91.2330079999999981
20
-128.6229329999999891
11
91.1377699999999891
21
-129.0038849999999968
0
LINE
8
BLACK
6
CONTINUOUS
10
91.1377699999999891
20
-129.0038849999999968
11
91.0425319999999942
21
-129.1943609999999865
0
LINE
8
BLACK
6
CONTINUOUS
10
91.0425319999999942
20
-129.1943609999999865
11
90.9472939999999994
21
-129.2896000000000072
0
LINE
8
BLACK
6
CONTINUOUS
10
90.9472939999999994
20
-129.2896000000000072
11
90.7568179999999955
21
-129.384838000000002
0
LINE
8
BLACK
6
CONTINUOUS
10
90.7568179999999955
20
-129.384838000000002
11
90.5663409999999942
21
-129.384838000000002
0
LINE
8
BLACK
6
CONTINUOUS
10
90.5663409999999942
20
-129.384838000000002
11
90.3758649999999903
21
-129.2896000000000072
0
LINE
8
BLACK
6
CONTINUOUS
10
90.3758649999999903
20
-129.2896000000000072
11
90.2806269999999955
21
-129.1943609999999865
0
LINE
8
BLACK
6
CONTINUOUS
10
90.2806269999999955
20
-129.1943609999999865
11
90.1853890000000007
21
-129.0038849999999968
0
LINE
8
BLACK
6
CONTINUOUS
10
90.1853890000000007
20
-129.0038849999999968
11
90.0901509999999917
21
-128.6229329999999891
0
LINE
8
BLACK
6
CONTINUOUS
10
90.0901509999999917
20
-128.6229329999999891
11
90.0901509999999917
21
-128.146741999999989
0
LINE
8
BLACK
6
CONTINUOUS
10
90.0901509999999917
20
-128.146741999999989
11
90.1853890000000007
21
-127.7657899999999955
0
LINE
8
BLACK
6
CONTINUOUS
10
90.1853890000000007
20
-127.7657899999999955
11
90.2806269999999955
21
-127.5753139999999917
0
LINE
8
BLACK
6
CONTINUOUS
10
90.2806269999999955
20
-127.5753139999999917
11
90.3758649999999903
21
-127.4800759999999968
0
LINE
8
BLACK
6
CONTINUOUS
10
90.3758649999999903
20
-127.4800759999999968
11
90.5663409999999942
21
-127.3848379999999878
0
LINE
8
BLACK
6
CONTINUOUS
10
92.0901509999999917
20
-129.1943609999999865
11
92.1853890000000007
21
-129.2896000000000072
0
LINE
8
BLACK
6
CONTINUOUS
10
92.1853890000000007
20
-129.2896000000000072
11
92.0901509999999917
21
-129.384838000000002
0
LINE
8
BLACK
6
CONTINUOUS
10
92.0901509999999917
20
-129.384838000000002
11
91.9949129999999968
21
-129.2896000000000072
0
LINE
8
BLACK
6
CONTINUOUS
10
91.9949129999999968
20
-129.2896000000000072
11
92.0901509999999917
21
-129.1943609999999865
0
LINE
8
BLACK
6
CONTINUOUS
10
92.0901509999999917
20
-129.1943609999999865
11
92.0901509999999917
21
-129.384838000000002
0
LINE
8
BLACK
6
CONTINUOUS
10
93.423484000000002
20
-127.3848379999999878
11
93.6139609999999891
21
-127.3848379999999878
0
LINE
8
BLACK
6
CONTINUOUS
10
93.6139609999999891
20
-127.3848379999999878
11
93.804436999999993
21
-127.4800759999999968
0
LINE
8
BLACK
6
CONTINUOUS
10
93.804436999999993
20
-127.4800759999999968
11
93.899675000000002
21
-127.5753139999999917
0
LINE
8
BLACK
6
CONTINUOUS
10
93.899675000000002
20
-127.5753139999999917
11
93.9949129999999968
21
-127.7657899999999955
0
LINE
8
BLACK
6
CONTINUOUS
10
93.9949129999999968
20
-127.7657899999999955
11
94.0901509999999917
21
-128.146741999999989
0
LINE
8
BLACK
6
CONTINUOUS
10
94.0901509999999917
20
-128.146741999999989
11
94.0901509999999917
21
-128.6229329999999891
0
LINE
8
BLACK
6
CONTINUOUS
10
94.0901509999999917
20
-128.6229329999999891
11
93.9949129999999968
21
-129.0038849999999968
0
LINE
8
BLACK
6
CONTINUOUS
10
93.9949129999999968
20
-129.0038849999999968
11
93.899675000000002
21
-129.1943609999999865
0
LINE
8
BLACK
6
CONTINUOUS
10
93.899675000000002
20
-129.1943609999999865
11
93.804436999999993
21
-129.2896000000000072
0
LINE
8
BLACK
6
CONTINUOUS
10
93.804436999999993
20
-129.2896000000000072
11
93.6139609999999891
21
-129.384838000000002
0
LINE
8
BLACK
6
CONTINUOUS
10
93.6139609999999891
20
-129.384838000000002
11
93.423484000000002
21
-129.384838000000002
0
LINE
8
BLACK
6
CONTINUOUS
10
93.423484000000002
20
-129.384838000000002
11
93.2330079999999981
21
-129.2896000000000072
0
LINE
8
BLACK
6
CONTINUOUS
10
93.2330079999999981
20
-129.2896000000000072
11
93.1377699999999891
21
-129.1943609999999865
0
LINE
8
BLACK
6
CONTINUOUS
10
93.1377699999999891
20
-129.1943609999999865
11
93.0425319999999942
21
-129.0038849999999968
0
LINE
8
BLACK
6
CONTINUOUS
10
93.0425319999999942
20
-129.0038849999999968
11
92.9472939999999994
21
-128.6229329999999891
0
LINE
8
BLACK
6
CONTINUOUS
10
92.9472939999999994
20
-128.6229329999999891
11
92.9472939999999994
21
-128.146741999999989
0
LINE
8
BLACK
6
CONTINUOUS
10
92.9472939999999994
20
-128.146741999999989
11
93.0425319999999942
21
-127.7657899999999955
0
LINE
8
BLACK
6
CONTINUOUS
10
93.0425319999999942
20
-127.7657899999999955
11
93.1377699999999891
21
-127.5753139999999917
0
LINE
8
BLACK
6
CONTINUOUS
10
93.1377699999999891
20
-127.5753139999999917
11
93.2330079999999981
21
-127.4800759999999968
0
LINE
8
BLACK
6
CONTINUOUS
10
93.2330079999999981
20
-127.4800759999999968
11
93.423484000000002
21
-127.3848379999999878
0
LINE
8
BLACK
6
CONTINUOUS
10
95.804436999999993
20
-128.0515039999999942
11
95.804436999999993
21
-129.384838000000002
0
LINE
8
BLACK
6
CONTINUOUS
10
95.3282459999999929
20
-127.289599999999993
11
94.8520559999999904
21
-128.7181709999999839
0
LINE
8
BLACK
6
CONTINUOUS
10
94.8520559999999904
20
-128.7181709999999839
11
96.0901509999999917
21
-128.7181709999999839
0
LINE
8
BLACK
6
CONTINUOUS
10
97.7091989999999981
20
-127.3848379999999878
11
97.3282459999999929
21
-127.3848379999999878
0
LINE
8
BLACK
6
CONTINUOUS
10
97.3282459999999929
20
-127.3848379999999878
11
97.1377699999999891
21
-127.4800759999999968
0
LINE
8
BLACK
6
CONTINUOUS
10
97.1377699999999891
20
-127.4800759999999968
11
97.0425319999999942
21
-127.5753139999999917
0
LINE
8
BLACK
6
CONTINUOUS
10
97.0425319999999942
20
-127.5753139999999917
11
96.8520559999999904
21
-127.8610279999999904
0
LINE
8
BLACK
6
CONTINUOUS
10
96.8520559999999904
20
-127.8610279999999904
11
96.7568179999999955
21
-128.2419799999999839
0
LINE
8
BLACK
6
CONTINUOUS
10
96.7568179999999955
20
-128.2419799999999839
11
96.7568179999999955
21
-129.0038849999999968
0
LINE
8
BLACK
6
CONTINUOUS
10
96.7568179999999955
20
-129.0038849999999968
11
96.8520559999999904
21
-129.1943609999999865
0
LINE
8
BLACK
6
CONTINUOUS
10
96.8520559999999904
20
-129.1943609999999865
11
96.9472939999999994
21
-129.2896000000000072
0
LINE
8
BLACK
6
CONTINUOUS
10
96.9472939999999994
20
-129.2896000000000072
11
97.1377699999999891
21
-129.384838000000002
0
LINE
8
BLACK
6
CONTINUOUS
10
97.1377699999999891
20
-129.384838000000002
11
97.5187229999999943
21
-129.384838000000002
0
LINE
8
BLACK
6
CONTINUOUS
10
97.5187229999999943
20
-129.384838000000002
11
97.7091989999999981
21
-129.2896000000000072
0
LINE
8
BLACK
6
CONTINUOUS
10
97.7091989999999981
20
-129.2896000000000072
11
97.804436999999993
21
-129.1943609999999865
0
LINE
8
BLACK
6
CONTINUOUS
10
97.804436999999993
20
-129.1943609999999865
11
97.899675000000002
21
-129.0038849999999968
0
LINE
8
BLACK
6
CONTINUOUS
10
97.899675000000002
20
-129.0038849999999968
11
97.899675000000002
21
-128.5276949999999943
0
LINE
8
BLACK
6
CONTINUOUS
10
97.899675000000002
20
-128.5276949999999943
11
97.804436999999993
21
-128.3372190000000046
0
LINE
8
BLACK
6
CONTINUOUS
10
97.804436999999993
20
-128.3372190000000046
11
97.7091989999999981
21
-128.2419799999999839
0
LINE
8
BLACK
6
CONTINUOUS
10
97.7091989999999981
20
-128.2419799999999839
11
97.5187229999999943
21
-128.146741999999989
0
LINE
8
BLACK
6
CONTINUOUS
10
97.5187229999999943
20
-128.146741999999989
11
97.1377699999999891
21
-128.146741999999989
0
LINE
8
BLACK
6
CONTINUOUS
10
97.1377699999999891
20
-128.146741999999989
11
96.9472939999999994
21
-128.2419799999999839
0
LINE
8
BLACK
6
CONTINUOUS
10
96.9472939999999994
20
-128.2419799999999839
11
96.8520559999999904
21
-128.3372190000000046
0
LINE
8
BLACK
6
CONTINUOUS
10
96.8520559999999904
20
-128.3372190000000046
11
96.7568179999999955
21
-128.5276949999999943
0
LINE
8
BLACK
6
CONTINUOUS
10
98.8520559999999904
20
-129.384838000000002
11
99.2330079999999981
21
-129.384838000000002
0
LINE
8
BLACK
6
CONTINUOUS
10
99.2330079999999981
20
-129.384838000000002
11
99.4234849999999994
21
-129.2896000000000072
0
LINE
8
BLACK
6
CONTINUOUS
10
99.4234849999999994
20
-129.2896000000000072
11
99.5187229999999943
21
-129.1943609999999865
0
LINE
8
BLACK
6
CONTINUOUS
10
99.5187229999999943
20
-129.1943609999999865
11
99.7091989999999981
21
-128.908647000000002
0
LINE
8
BLACK
6
CONTINUOUS
10
99.7091989999999981
20
-128.908647000000002
11
99.804436999999993
21
-128.5276949999999943
0
LINE
8
BLACK
6
CONTINUOUS
10
99.804436999999993
20
-128.5276949999999943
11
99.804436999999993
21
-127.7657899999999955
0
LINE
8
BLACK
6
CONTINUOUS
10
99.804436999999993
20
-127.7657899999999955
11
99.7091989999999981
21
-127.5753139999999917
0
LINE
8
BLACK
6
CONTINUOUS
10
99.7091989999999981
20
-127.5753139999999917
11
99.6139609999999891
21
-127.4800759999999968
0
LINE
8
BLACK
6
CONTINUOUS
10
99.6139609999999891
20
-127.4800759999999968
11
99.4234849999999994
21
-127.3848379999999878
0
LINE
8
BLACK
6
CONTINUOUS
10
99.4234849999999994
20
-127.3848379999999878
11
99.0425319999999942
21
-127.3848379999999878
0
LINE
8
BLACK
6
CONTINUOUS
10
99.0425319999999942
20
-127.3848379999999878
11
98.8520559999999904
21
-127.4800759999999968
0
LINE
8
BLACK
6
CONTINUOUS
10
98.8520559999999904
20
-127.4800759999999968
11
98.7568179999999955
21
-127.5753139999999917
0
LINE
8
BLACK
6
CONTINUOUS
10
98.7568179999999955
20
-127.5753139999999917
11
98.6615800000000007
21
-127.7657899999999955
0
LINE
8
BLACK
6
CONTINUOUS
10
98.6615800000000007
20
-127.7657899999999955
11
98.6615800000000007
21
-128.2419799999999839
0
LINE
8
BLACK
6
CONTINUOUS
10
98.6615800000000007
20
-128.2419799999999839
11
98.7568179999999955
21
-128.4324569999999994
0
LINE
8
BLACK
6
CONTINUOUS
10
98.7568179999999955
20
-128.4324569999999994
11
98.8520559999999904
21
-128.5276949999999943
0
LINE
8
BLACK
6
CONTINUOUS
10
98.8520559999999904
20
-128.5276949999999943
11
99.0425319999999942
21
-128.6229329999999891
0
LINE
8
BLACK
6
CONTINUOUS
10
99.0425319999999942
20
-128.6229329999999891
11
99.4234849999999994
21
-128.6229329999999891
0
LINE
8
BLACK
6
CONTINUOUS
10
99.4234849999999994
20
-128.6229329999999891
11
99.6139609999999891
21
-128.5276949999999943
0
LINE
8
BLACK
6
CONTINUOUS
10
99.6139609999999891
20
-128.5276949999999943
11
99.7091989999999981
21
-128.4324569999999994
0
LINE
8
BLACK
6
CONTINUOUS
10
99.7091989999999981
20
-128.4324569999999994
11
99.804436999999993
21
-128.2419799999999839
0
LINE
8
BLACK
6
CONTINUOUS
10
100.5663419999999917
20
-127.3848379999999878
11
100.5663419999999917
21
-127.7657899999999955
0
LINE
8
BLACK
6
CONTINUOUS
10
101.3282469999999904
20
-127.3848379999999878
11
101.3282469999999904
21
-127.7657899999999955
0
LINE
8
BLACK
6
CONTINUOUS
10
104.2806289999999905
20
-130.146741999999989
11
104.1853899999999982
21
-130.0515039999999942
0
LINE
8
BLACK
6
CONTINUOUS
10
104.1853899999999982
20
-130.0515039999999942
11
103.9949139999999943
21
-129.7657899999999813
0
LINE
8
BLACK
6
CONTINUOUS
10
103.9949139999999943
20
-129.7657899999999813
11
103.8996759999999995
21
-129.5753139999999917
0
LINE
8
BLACK
6
CONTINUOUS
10
103.8996759999999995
20
-129.5753139999999917
11
103.8044379999999904
21
-129.2896000000000072
0
LINE
8
BLACK
6
CONTINUOUS
10
103.8044379999999904
20
-129.2896000000000072
11
103.7091999999999956
21
-128.8134090000000072
0
LINE
8
BLACK
6
CONTINUOUS
10
103.7091999999999956
20
-128.8134090000000072
11
103.7091999999999956
21
-128.4324569999999994
0
LINE
8
BLACK
6
CONTINUOUS
10
103.7091999999999956
20
-128.4324569999999994
11
103.8044379999999904
21
-127.9562659999999994
0
LINE
8
BLACK
6
CONTINUOUS
10
103.8044379999999904
20
-127.9562659999999994
11
103.8996759999999995
21
-127.6705520000000007
0
LINE
8
BLACK
6
CONTINUOUS
10
103.8996759999999995
20
-127.6705520000000007
11
103.9949139999999943
21
-127.4800759999999968
0
LINE
8
BLACK
6
CONTINUOUS
10
103.9949139999999943
20
-127.4800759999999968
11
104.1853899999999982
21
-127.1943610000000007
0
LINE
8
BLACK
6
CONTINUOUS
10
104.1853899999999982
20
-127.1943610000000007
11
104.2806289999999905
21
-127.0991229999999916
0
LINE
8
BLACK
6
CONTINUOUS
10
104.9472949999999969
20
-127.5753139999999917
11
105.0425329999999917
21
-127.4800759999999968
0
LINE
8
BLACK
6
CONTINUOUS
10
105.0425329999999917
20
-127.4800759999999968
11
105.2330089999999956
21
-127.3848379999999878
0
LINE
8
BLACK
6
CONTINUOUS
10
105.2330089999999956
20
-127.3848379999999878
11
105.7091999999999956
21
-127.3848379999999878
0
LINE
8
BLACK
6
CONTINUOUS
10
105.7091999999999956
20
-127.3848379999999878
11
105.8996759999999995
21
-127.4800759999999968
0
LINE
8
BLACK
6
CONTINUOUS
10
105.8996759999999995
20
-127.4800759999999968
11
105.9949139999999943
21
-127.5753139999999917
0
LINE
8
BLACK
6
CONTINUOUS
10
105.9949139999999943
20
-127.5753139999999917
11
106.0901519999999891
21
-127.7657899999999955
0
LINE
8
BLACK
6
CONTINUOUS
10
106.0901519999999891
20
-127.7657899999999955
11
106.0901519999999891
21
-127.9562659999999994
0
LINE
8
BLACK
6
CONTINUOUS
10
106.0901519999999891
20
-127.9562659999999994
11
105.9949139999999943
21
-128.2419799999999839
0
LINE
8
BLACK
6
CONTINUOUS
10
105.9949139999999943
20
-128.2419799999999839
11
104.8520570000000021
21
-129.384838000000002
0
LINE
8
BLACK
6
CONTINUOUS
10
104.8520570000000021
20
-129.384838000000002
11
106.0901519999999891
21
-129.384838000000002
0
LINE
8
BLACK
6
CONTINUOUS
10
108.4711049999999943
20
-129.384838000000002
11
108.4711049999999943
21
-127.3848379999999878
0
LINE
8
BLACK
6
CONTINUOUS
10
109.3282480000000021
20
-129.384838000000002
11
109.3282480000000021
21
-128.3372190000000046
0
LINE
8
BLACK
6
CONTINUOUS
10
109.3282480000000021
20
-128.3372190000000046
11
109.2330099999999931
21
-128.146741999999989
0
LINE
8
BLACK
6
CONTINUOUS
10
109.2330099999999931
20
-128.146741999999989
11
109.0425339999999892
21
-128.0515039999999942
0
LINE
8
BLACK
6
CONTINUOUS
10
109.0425339999999892
20
-128.0515039999999942
11
108.756818999999993
21
-128.0515039999999942
0
LINE
8
BLACK
6
CONTINUOUS
10
108.756818999999993
20
-128.0515039999999942
11
108.5663429999999892
21
-128.146741999999989
0
LINE
8
BLACK
6
CONTINUOUS
10
108.5663429999999892
20
-128.146741999999989
11
108.4711049999999943
21
-128.2419799999999839
0
LINE
8
BLACK
6
CONTINUOUS
10
110.5663429999999892
20
-129.384838000000002
11
110.3758669999999995
21
-129.2896000000000072
0
LINE
8
BLACK
6
CONTINUOUS
10
110.3758669999999995
20
-129.2896000000000072
11
110.2806289999999905
21
-129.1943609999999865
0
LINE
8
BLACK
6
CONTINUOUS
10
110.2806289999999905
20
-129.1943609999999865
11
110.1853909999999956
21
-129.0038849999999968
0
LINE
8
BLACK
6
CONTINUOUS
10
110.1853909999999956
20
-129.0038849999999968
11
110.1853909999999956
21
-128.4324569999999994
0
LINE
8
BLACK
6
CONTINUOUS
10
110.1853909999999956
20
-128.4324569999999994
11
110.2806289999999905
21
-128.2419799999999839
0
LINE
8
BLACK
6
CONTINUOUS
10
110.2806289999999905
20
-128.2419799999999839
11
110.3758669999999995
21
-128.146741999999989
0
LINE
8
BLACK
6
CONTINUOUS
10
110.3758669999999995
20
-128.146741999999989
11
110.5663429999999892
21
-128.0515039999999942
0
LINE
8
BLACK
6
CONTINUOUS
10
110.5663429999999892
20
-128.0515039999999942
11
110.8520579999999995
21
-128.0515039999999942
0
LINE
8
BLACK
6
CONTINUOUS
10
110.8520579999999995
20
-128.0515039999999942
11
111.0425339999999892
21
-128.146741999999989
0
LINE
8
BLACK
6
CONTINUOUS
10
111.0425339999999892
20
-128.146741999999989
11
111.1377719999999982
21
-128.2419799999999839
0
LINE
8
BLACK
6
CONTINUOUS
10
111.1377719999999982
20
-128.2419799999999839
11
111.2330099999999931
21
-128.4324569999999994
0
LINE
8
BLACK
6
CONTINUOUS
10
111.2330099999999931
20
-128.4324569999999994
11
111.2330099999999931
21
-129.0038849999999968
0
LINE
8
BLACK
6
CONTINUOUS
10
111.2330099999999931
20
-129.0038849999999968
11
111.1377719999999982
21
-129.1943609999999865
0
LINE
8
BLACK
6
CONTINUOUS
10
111.1377719999999982
20
-129.1943609999999865
11
111.0425339999999892
21
-129.2896000000000072
0
LINE
8
BLACK
6
CONTINUOUS
10
111.0425339999999892
20
-129.2896000000000072
11
110.8520579999999995
21
-129.384838000000002
0
LINE
8
BLACK
6
CONTINUOUS
10
110.8520579999999995
20
-129.384838000000002
11
110.5663429999999892
21
-129.384838000000002
0
LINE
8
BLACK
6
CONTINUOUS
10
112.3758669999999995
20
-129.384838000000002
11
112.1853909999999956
21
-129.2896000000000072
0
LINE
8
BLACK
6
CONTINUOUS
10
112.1853909999999956
20
-129.2896000000000072
11
112.0901530000000008
21
-129.0991229999999916
0
LINE
8
BLACK
6
CONTINUOUS
10
112.0901530000000008
20
-129.0991229999999916
11
112.0901530000000008
21
-127.3848379999999878
0
LINE
8
BLACK
6
CONTINUOUS
10
113.899676999999997
20
-129.2896000000000072
11
113.7092009999999931
21
-129.384838000000002
0
LINE
8
BLACK
6
CONTINUOUS
10
113.7092009999999931
20
-129.384838000000002
11
113.3282479999999879
21
-129.384838000000002
0
LINE
8
BLACK
6
CONTINUOUS
10
113.3282479999999879
20
-129.384838000000002
11
113.1377719999999982
21
-129.2896000000000072
0
LINE
8
BLACK
6
CONTINUOUS
10
113.1377719999999982
20
-129.2896000000000072
11
113.0425339999999892
21
-129.0991229999999916
0
LINE
8
BLACK
6
CONTINUOUS
10
113.0425339999999892
20
-129.0991229999999916
11
113.0425339999999892
21
-128.3372190000000046
0
LINE
8
BLACK
6
CONTINUOUS
10
113.0425339999999892
20
-128.3372190000000046
11
113.1377719999999982
21
-128.146741999999989
0
LINE
8
BLACK
6
CONTINUOUS
10
113.1377719999999982
20
-128.146741999999989
11
113.3282479999999879
21
-128.0515039999999942
0
LINE
8
BLACK
6
CONTINUOUS
10
113.3282479999999879
20
-128.0515039999999942
11
113.7092009999999931
21
-128.0515039999999942
0
LINE
8
BLACK
6
CONTINUOUS
10
113.7092009999999931
20
-128.0515039999999942
11
113.899676999999997
21
-128.146741999999989
0
LINE
8
BLACK
6
CONTINUOUS
10
113.899676999999997
20
-128.146741999999989
11
113.9949149999999918
21
-128.3372190000000046
0
LINE
8
BLACK
6
CONTINUOUS
10
113.9949149999999918
20
-128.3372190000000046
11
113.9949149999999918
21
-128.5276949999999943
0
LINE
8
BLACK
6
CONTINUOUS
10
113.9949149999999918
20
-128.5276949999999943
11
113.0425339999999892
21
-128.7181709999999839
0
LINE
8
BLACK
6
CONTINUOUS
10
114.7568199999999905
20
-129.2896000000000072
11
114.9472959999999944
21
-129.384838000000002
0
LINE
8
BLACK
6
CONTINUOUS
10
114.9472959999999944
20
-129.384838000000002
11
115.3282479999999879
21
-129.384838000000002
0
LINE
8
BLACK
6
CONTINUOUS
10
115.3282479999999879
20
-129.384838000000002
11
115.5187249999999892
21
-129.2896000000000072
0
LINE
8
BLACK
6
CONTINUOUS
10
115.5187249999999892
20
-129.2896000000000072
11
115.6139629999999983
21
-129.0991229999999916
0
LINE
8
BLACK
6
CONTINUOUS
10
115.6139629999999983
20
-129.0991229999999916
11
115.6139629999999983
21
-129.0038849999999968
0
LINE
8
BLACK
6
CONTINUOUS
10
115.6139629999999983
20
-129.0038849999999968
11
115.5187249999999892
21
-128.8134090000000072
0
LINE
8
BLACK
6
CONTINUOUS
10
115.5187249999999892
20
-128.8134090000000072
11
115.3282479999999879
21
-128.7181709999999839
0
LINE
8
BLACK
6
CONTINUOUS
10
115.3282479999999879
20
-128.7181709999999839
11
115.0425339999999892
21
-128.7181709999999839
0
LINE
8
BLACK
6
CONTINUOUS
10
115.0425339999999892
20
-128.7181709999999839
11
114.8520579999999995
21
-128.6229329999999891
0
LINE
8
BLACK
6
CONTINUOUS
10
114.8520579999999995
20
-128.6229329999999891
11
114.7568199999999905
21
-128.4324569999999994
0
LINE
8
BLACK
6
CONTINUOUS
10
114.7568199999999905
20
-128.4324569999999994
11
114.7568199999999905
21
-128.3372190000000046
0
LINE
8
BLACK
6
CONTINUOUS
10
114.7568199999999905
20
-128.3372190000000046
11
114.8520579999999995
21
-128.146741999999989
0
LINE
8
BLACK
6
CONTINUOUS
10
114.8520579999999995
20
-128.146741999999989
11
115.0425339999999892
21
-128.0515039999999942
0
LINE
8
BLACK
6
CONTINUOUS
10
115.0425339999999892
20
-128.0515039999999942
11
115.3282479999999879
21
-128.0515039999999942
0
LINE
8
BLACK
6
CONTINUOUS
10
115.3282479999999879
20
-128.0515039999999942
11
115.5187249999999892
21
-128.146741999999989
0
LINE
8
BLACK
6
CONTINUOUS
10
116.2806299999999879
20
-130.146741999999989
11
116.375867999999997
21
-130.0515039999999942
0
LINE
8
BLACK
6
CONTINUOUS
10
116.375867999999997
20
-130.0515039999999942
11
116.5663440000000008
21
-129.7657899999999813
0
LINE
8
BLACK
6
CONTINUOUS
10
116.5663440000000008
20
-129.7657899999999813
11
116.6615819999999957
21
-129.5753139999999917
0
LINE
8
BLACK
6
CONTINUOUS
10
116.6615819999999957
20
-129.5753139999999917
11
116.7568199999999905
21
-129.2896000000000072
0
LINE
8
BLACK
6
CONTINUOUS
10
116.7568199999999905
20
-129.2896000000000072
11
116.8520579999999995
21
-128.8134090000000072
0
LINE
8
BLACK
6
CONTINUOUS
10
116.8520579999999995
20
-128.8134090000000072
11
116.8520579999999995
21
-128.4324569999999994
0
LINE
8
BLACK
6
CONTINUOUS
10
116.8520579999999995
20
-128.4324569999999994
11
116.7568199999999905
21
-127.9562659999999994
0
LINE
8
BLACK
6
CONTINUOUS
10
116.7568199999999905
20
-127.9562659999999994
11
116.6615819999999957
21
-127.6705520000000007
0
LINE
8
BLACK
6
CONTINUOUS
10
116.6615819999999957
20
-127.6705520000000007
11
116.5663440000000008
21
-127.4800759999999968
0
LINE
8
BLACK
6
CONTINUOUS
10
116.5663440000000008
20
-127.4800759999999968
11
116.375867999999997
21
-127.1943610000000007
0
LINE
8
BLACK
6
CONTINUOUS
10
116.375867999999997
20
-127.1943610000000007
11
116.2806299999999879
21
-127.0991229999999916
  0
ENDSEC
  0
EOF
