%TF.GenerationSoftware,KiCad,Pcbnew,7.0.9*%
%TF.CreationDate,2024-04-07T12:25:56+10:00*%
%TF.ProjectId,INT-LT-F18,494e542d-4c54-42d4-9631-382e6b696361,rev?*%
%TF.SameCoordinates,Original*%
%TF.FileFunction,Legend,Top*%
%TF.FilePolarity,Positive*%
%FSLAX46Y46*%
G04 Gerber Fmt 4.6, Leading zero omitted, Abs format (unit mm)*
G04 Created by KiCad (PCBNEW 7.0.9) date 2024-04-07 12:25:56*
%MOMM*%
%LPD*%
G01*
G04 APERTURE LIST*
%ADD10C,0.150000*%
%ADD11C,0.120000*%
G04 APERTURE END LIST*
D10*
X127812969Y-75636961D02*
X127396303Y-75636961D01*
X127396303Y-76291723D02*
X127396303Y-75041723D01*
X127396303Y-75041723D02*
X127991541Y-75041723D01*
X129360589Y-74982200D02*
X128289160Y-76589342D01*
X129717732Y-75934580D02*
X130312970Y-75934580D01*
X129598684Y-76291723D02*
X130015351Y-75041723D01*
X130015351Y-75041723D02*
X130432017Y-76291723D01*
X130848685Y-75815533D02*
X131801066Y-75815533D01*
X133051065Y-76291723D02*
X132336780Y-76291723D01*
X132693923Y-76291723D02*
X132693923Y-75041723D01*
X132693923Y-75041723D02*
X132574875Y-75220295D01*
X132574875Y-75220295D02*
X132455827Y-75339342D01*
X132455827Y-75339342D02*
X132336780Y-75398866D01*
X133765351Y-75577438D02*
X133646303Y-75517914D01*
X133646303Y-75517914D02*
X133586780Y-75458390D01*
X133586780Y-75458390D02*
X133527256Y-75339342D01*
X133527256Y-75339342D02*
X133527256Y-75279819D01*
X133527256Y-75279819D02*
X133586780Y-75160771D01*
X133586780Y-75160771D02*
X133646303Y-75101247D01*
X133646303Y-75101247D02*
X133765351Y-75041723D01*
X133765351Y-75041723D02*
X134003446Y-75041723D01*
X134003446Y-75041723D02*
X134122494Y-75101247D01*
X134122494Y-75101247D02*
X134182018Y-75160771D01*
X134182018Y-75160771D02*
X134241541Y-75279819D01*
X134241541Y-75279819D02*
X134241541Y-75339342D01*
X134241541Y-75339342D02*
X134182018Y-75458390D01*
X134182018Y-75458390D02*
X134122494Y-75517914D01*
X134122494Y-75517914D02*
X134003446Y-75577438D01*
X134003446Y-75577438D02*
X133765351Y-75577438D01*
X133765351Y-75577438D02*
X133646303Y-75636961D01*
X133646303Y-75636961D02*
X133586780Y-75696485D01*
X133586780Y-75696485D02*
X133527256Y-75815533D01*
X133527256Y-75815533D02*
X133527256Y-76053628D01*
X133527256Y-76053628D02*
X133586780Y-76172676D01*
X133586780Y-76172676D02*
X133646303Y-76232200D01*
X133646303Y-76232200D02*
X133765351Y-76291723D01*
X133765351Y-76291723D02*
X134003446Y-76291723D01*
X134003446Y-76291723D02*
X134122494Y-76232200D01*
X134122494Y-76232200D02*
X134182018Y-76172676D01*
X134182018Y-76172676D02*
X134241541Y-76053628D01*
X134241541Y-76053628D02*
X134241541Y-75815533D01*
X134241541Y-75815533D02*
X134182018Y-75696485D01*
X134182018Y-75696485D02*
X134122494Y-75636961D01*
X134122494Y-75636961D02*
X134003446Y-75577438D01*
X135729637Y-75815533D02*
X136682018Y-75815533D01*
X138646303Y-75636961D02*
X138824875Y-75696485D01*
X138824875Y-75696485D02*
X138884398Y-75756009D01*
X138884398Y-75756009D02*
X138943922Y-75875057D01*
X138943922Y-75875057D02*
X138943922Y-76053628D01*
X138943922Y-76053628D02*
X138884398Y-76172676D01*
X138884398Y-76172676D02*
X138824875Y-76232200D01*
X138824875Y-76232200D02*
X138705827Y-76291723D01*
X138705827Y-76291723D02*
X138229637Y-76291723D01*
X138229637Y-76291723D02*
X138229637Y-75041723D01*
X138229637Y-75041723D02*
X138646303Y-75041723D01*
X138646303Y-75041723D02*
X138765351Y-75101247D01*
X138765351Y-75101247D02*
X138824875Y-75160771D01*
X138824875Y-75160771D02*
X138884398Y-75279819D01*
X138884398Y-75279819D02*
X138884398Y-75398866D01*
X138884398Y-75398866D02*
X138824875Y-75517914D01*
X138824875Y-75517914D02*
X138765351Y-75577438D01*
X138765351Y-75577438D02*
X138646303Y-75636961D01*
X138646303Y-75636961D02*
X138229637Y-75636961D01*
X139420113Y-75934580D02*
X140015351Y-75934580D01*
X139301065Y-76291723D02*
X139717732Y-75041723D01*
X139717732Y-75041723D02*
X140134398Y-76291723D01*
X141265351Y-76172676D02*
X141205827Y-76232200D01*
X141205827Y-76232200D02*
X141027256Y-76291723D01*
X141027256Y-76291723D02*
X140908208Y-76291723D01*
X140908208Y-76291723D02*
X140729637Y-76232200D01*
X140729637Y-76232200D02*
X140610589Y-76113152D01*
X140610589Y-76113152D02*
X140551066Y-75994104D01*
X140551066Y-75994104D02*
X140491542Y-75756009D01*
X140491542Y-75756009D02*
X140491542Y-75577438D01*
X140491542Y-75577438D02*
X140551066Y-75339342D01*
X140551066Y-75339342D02*
X140610589Y-75220295D01*
X140610589Y-75220295D02*
X140729637Y-75101247D01*
X140729637Y-75101247D02*
X140908208Y-75041723D01*
X140908208Y-75041723D02*
X141027256Y-75041723D01*
X141027256Y-75041723D02*
X141205827Y-75101247D01*
X141205827Y-75101247D02*
X141265351Y-75160771D01*
X141801066Y-76291723D02*
X141801066Y-75041723D01*
X142515351Y-76291723D02*
X141979637Y-75577438D01*
X142515351Y-75041723D02*
X141801066Y-75756009D01*
X143646304Y-76291723D02*
X143051066Y-76291723D01*
X143051066Y-76291723D02*
X143051066Y-75041723D01*
X144062971Y-76291723D02*
X144062971Y-75041723D01*
X145312970Y-75101247D02*
X145193923Y-75041723D01*
X145193923Y-75041723D02*
X145015351Y-75041723D01*
X145015351Y-75041723D02*
X144836780Y-75101247D01*
X144836780Y-75101247D02*
X144717732Y-75220295D01*
X144717732Y-75220295D02*
X144658209Y-75339342D01*
X144658209Y-75339342D02*
X144598685Y-75577438D01*
X144598685Y-75577438D02*
X144598685Y-75756009D01*
X144598685Y-75756009D02*
X144658209Y-75994104D01*
X144658209Y-75994104D02*
X144717732Y-76113152D01*
X144717732Y-76113152D02*
X144836780Y-76232200D01*
X144836780Y-76232200D02*
X145015351Y-76291723D01*
X145015351Y-76291723D02*
X145134399Y-76291723D01*
X145134399Y-76291723D02*
X145312970Y-76232200D01*
X145312970Y-76232200D02*
X145372494Y-76172676D01*
X145372494Y-76172676D02*
X145372494Y-75756009D01*
X145372494Y-75756009D02*
X145134399Y-75756009D01*
X145908209Y-76291723D02*
X145908209Y-75041723D01*
X145908209Y-75636961D02*
X146622494Y-75636961D01*
X146622494Y-76291723D02*
X146622494Y-75041723D01*
X147039161Y-75041723D02*
X147753447Y-75041723D01*
X147396304Y-76291723D02*
X147396304Y-75041723D01*
X127396303Y-78304223D02*
X127396303Y-77054223D01*
X127991541Y-78304223D02*
X127991541Y-77054223D01*
X127991541Y-77054223D02*
X128705826Y-78304223D01*
X128705826Y-78304223D02*
X128705826Y-77054223D01*
X129122493Y-77054223D02*
X129836779Y-77054223D01*
X129479636Y-78304223D02*
X129479636Y-77054223D01*
X130967731Y-78304223D02*
X130551065Y-77708985D01*
X130253446Y-78304223D02*
X130253446Y-77054223D01*
X130253446Y-77054223D02*
X130729636Y-77054223D01*
X130729636Y-77054223D02*
X130848684Y-77113747D01*
X130848684Y-77113747D02*
X130908207Y-77173271D01*
X130908207Y-77173271D02*
X130967731Y-77292319D01*
X130967731Y-77292319D02*
X130967731Y-77470890D01*
X130967731Y-77470890D02*
X130908207Y-77589938D01*
X130908207Y-77589938D02*
X130848684Y-77649461D01*
X130848684Y-77649461D02*
X130729636Y-77708985D01*
X130729636Y-77708985D02*
X130253446Y-77708985D01*
X133051065Y-78304223D02*
X132455827Y-78304223D01*
X132455827Y-78304223D02*
X132455827Y-77054223D01*
X133289160Y-77054223D02*
X134003446Y-77054223D01*
X133646303Y-78304223D02*
X133646303Y-77054223D01*
X135372494Y-77828033D02*
X136324875Y-77828033D01*
X137872494Y-78304223D02*
X137872494Y-77054223D01*
X137872494Y-77054223D02*
X138348684Y-77054223D01*
X138348684Y-77054223D02*
X138467732Y-77113747D01*
X138467732Y-77113747D02*
X138527255Y-77173271D01*
X138527255Y-77173271D02*
X138586779Y-77292319D01*
X138586779Y-77292319D02*
X138586779Y-77470890D01*
X138586779Y-77470890D02*
X138527255Y-77589938D01*
X138527255Y-77589938D02*
X138467732Y-77649461D01*
X138467732Y-77649461D02*
X138348684Y-77708985D01*
X138348684Y-77708985D02*
X137872494Y-77708985D01*
X139062970Y-77947080D02*
X139658208Y-77947080D01*
X138943922Y-78304223D02*
X139360589Y-77054223D01*
X139360589Y-77054223D02*
X139777255Y-78304223D01*
X140193923Y-78304223D02*
X140193923Y-77054223D01*
X140193923Y-77054223D02*
X140908208Y-78304223D01*
X140908208Y-78304223D02*
X140908208Y-77054223D01*
X141503447Y-77649461D02*
X141920113Y-77649461D01*
X142098685Y-78304223D02*
X141503447Y-78304223D01*
X141503447Y-78304223D02*
X141503447Y-77054223D01*
X141503447Y-77054223D02*
X142098685Y-77054223D01*
X143229637Y-78304223D02*
X142634399Y-78304223D01*
X142634399Y-78304223D02*
X142634399Y-77054223D01*
X127634398Y-79066723D02*
X127872493Y-79066723D01*
X127872493Y-79066723D02*
X127991541Y-79126247D01*
X127991541Y-79126247D02*
X128110588Y-79245295D01*
X128110588Y-79245295D02*
X128170112Y-79483390D01*
X128170112Y-79483390D02*
X128170112Y-79900057D01*
X128170112Y-79900057D02*
X128110588Y-80138152D01*
X128110588Y-80138152D02*
X127991541Y-80257200D01*
X127991541Y-80257200D02*
X127872493Y-80316723D01*
X127872493Y-80316723D02*
X127634398Y-80316723D01*
X127634398Y-80316723D02*
X127515350Y-80257200D01*
X127515350Y-80257200D02*
X127396303Y-80138152D01*
X127396303Y-80138152D02*
X127336779Y-79900057D01*
X127336779Y-79900057D02*
X127336779Y-79483390D01*
X127336779Y-79483390D02*
X127396303Y-79245295D01*
X127396303Y-79245295D02*
X127515350Y-79126247D01*
X127515350Y-79126247D02*
X127634398Y-79066723D01*
X128586779Y-79066723D02*
X129420112Y-79066723D01*
X129420112Y-79066723D02*
X128586779Y-80316723D01*
X128586779Y-80316723D02*
X129420112Y-80316723D01*
X130848684Y-80316723D02*
X130848684Y-79066723D01*
X130848684Y-79661961D02*
X131562969Y-79661961D01*
X131562969Y-80316723D02*
X131562969Y-79066723D01*
X132396303Y-79066723D02*
X132634398Y-79066723D01*
X132634398Y-79066723D02*
X132753446Y-79126247D01*
X132753446Y-79126247D02*
X132872493Y-79245295D01*
X132872493Y-79245295D02*
X132932017Y-79483390D01*
X132932017Y-79483390D02*
X132932017Y-79900057D01*
X132932017Y-79900057D02*
X132872493Y-80138152D01*
X132872493Y-80138152D02*
X132753446Y-80257200D01*
X132753446Y-80257200D02*
X132634398Y-80316723D01*
X132634398Y-80316723D02*
X132396303Y-80316723D01*
X132396303Y-80316723D02*
X132277255Y-80257200D01*
X132277255Y-80257200D02*
X132158208Y-80138152D01*
X132158208Y-80138152D02*
X132098684Y-79900057D01*
X132098684Y-79900057D02*
X132098684Y-79483390D01*
X132098684Y-79483390D02*
X132158208Y-79245295D01*
X132158208Y-79245295D02*
X132277255Y-79126247D01*
X132277255Y-79126247D02*
X132396303Y-79066723D01*
X134182017Y-80316723D02*
X133765351Y-79721485D01*
X133467732Y-80316723D02*
X133467732Y-79066723D01*
X133467732Y-79066723D02*
X133943922Y-79066723D01*
X133943922Y-79066723D02*
X134062970Y-79126247D01*
X134062970Y-79126247D02*
X134122493Y-79185771D01*
X134122493Y-79185771D02*
X134182017Y-79304819D01*
X134182017Y-79304819D02*
X134182017Y-79483390D01*
X134182017Y-79483390D02*
X134122493Y-79602438D01*
X134122493Y-79602438D02*
X134062970Y-79661961D01*
X134062970Y-79661961D02*
X133943922Y-79721485D01*
X133943922Y-79721485D02*
X133467732Y-79721485D01*
X134717732Y-80316723D02*
X134717732Y-79066723D01*
X134717732Y-79066723D02*
X135432017Y-80316723D01*
X135432017Y-80316723D02*
X135432017Y-79066723D01*
X136027256Y-79661961D02*
X136443922Y-79661961D01*
X136622494Y-80316723D02*
X136027256Y-80316723D01*
X136027256Y-80316723D02*
X136027256Y-79066723D01*
X136027256Y-79066723D02*
X136622494Y-79066723D01*
X136979636Y-79066723D02*
X137693922Y-79066723D01*
X137336779Y-80316723D02*
X137336779Y-79066723D01*
X127753445Y-82805414D02*
X127693922Y-82745890D01*
X127693922Y-82745890D02*
X127574874Y-82567319D01*
X127574874Y-82567319D02*
X127515350Y-82448271D01*
X127515350Y-82448271D02*
X127455826Y-82269700D01*
X127455826Y-82269700D02*
X127396303Y-81972080D01*
X127396303Y-81972080D02*
X127396303Y-81733985D01*
X127396303Y-81733985D02*
X127455826Y-81436366D01*
X127455826Y-81436366D02*
X127515350Y-81257795D01*
X127515350Y-81257795D02*
X127574874Y-81138747D01*
X127574874Y-81138747D02*
X127693922Y-80960176D01*
X127693922Y-80960176D02*
X127753445Y-80900652D01*
X128765350Y-82269700D02*
X128646302Y-82329223D01*
X128646302Y-82329223D02*
X128408207Y-82329223D01*
X128408207Y-82329223D02*
X128289159Y-82269700D01*
X128289159Y-82269700D02*
X128229636Y-82210176D01*
X128229636Y-82210176D02*
X128170112Y-82091128D01*
X128170112Y-82091128D02*
X128170112Y-81733985D01*
X128170112Y-81733985D02*
X128229636Y-81614938D01*
X128229636Y-81614938D02*
X128289159Y-81555414D01*
X128289159Y-81555414D02*
X128408207Y-81495890D01*
X128408207Y-81495890D02*
X128646302Y-81495890D01*
X128646302Y-81495890D02*
X128765350Y-81555414D01*
X129182017Y-82805414D02*
X129241541Y-82745890D01*
X129241541Y-82745890D02*
X129360588Y-82567319D01*
X129360588Y-82567319D02*
X129420112Y-82448271D01*
X129420112Y-82448271D02*
X129479636Y-82269700D01*
X129479636Y-82269700D02*
X129539160Y-81972080D01*
X129539160Y-81972080D02*
X129539160Y-81733985D01*
X129539160Y-81733985D02*
X129479636Y-81436366D01*
X129479636Y-81436366D02*
X129420112Y-81257795D01*
X129420112Y-81257795D02*
X129360588Y-81138747D01*
X129360588Y-81138747D02*
X129241541Y-80960176D01*
X129241541Y-80960176D02*
X129182017Y-80900652D01*
X131503445Y-81674461D02*
X131682017Y-81733985D01*
X131682017Y-81733985D02*
X131741540Y-81793509D01*
X131741540Y-81793509D02*
X131801064Y-81912557D01*
X131801064Y-81912557D02*
X131801064Y-82091128D01*
X131801064Y-82091128D02*
X131741540Y-82210176D01*
X131741540Y-82210176D02*
X131682017Y-82269700D01*
X131682017Y-82269700D02*
X131562969Y-82329223D01*
X131562969Y-82329223D02*
X131086779Y-82329223D01*
X131086779Y-82329223D02*
X131086779Y-81079223D01*
X131086779Y-81079223D02*
X131503445Y-81079223D01*
X131503445Y-81079223D02*
X131622493Y-81138747D01*
X131622493Y-81138747D02*
X131682017Y-81198271D01*
X131682017Y-81198271D02*
X131741540Y-81317319D01*
X131741540Y-81317319D02*
X131741540Y-81436366D01*
X131741540Y-81436366D02*
X131682017Y-81555414D01*
X131682017Y-81555414D02*
X131622493Y-81614938D01*
X131622493Y-81614938D02*
X131503445Y-81674461D01*
X131503445Y-81674461D02*
X131086779Y-81674461D01*
X132336779Y-82329223D02*
X132336779Y-81079223D01*
X132336779Y-81079223D02*
X132753445Y-81972080D01*
X132753445Y-81972080D02*
X133170112Y-81079223D01*
X133170112Y-81079223D02*
X133170112Y-82329223D01*
X134717731Y-81853033D02*
X135670112Y-81853033D01*
X137217731Y-82329223D02*
X137217731Y-81079223D01*
X137217731Y-81079223D02*
X137693921Y-81079223D01*
X137693921Y-81079223D02*
X137812969Y-81138747D01*
X137812969Y-81138747D02*
X137872492Y-81198271D01*
X137872492Y-81198271D02*
X137932016Y-81317319D01*
X137932016Y-81317319D02*
X137932016Y-81495890D01*
X137932016Y-81495890D02*
X137872492Y-81614938D01*
X137872492Y-81614938D02*
X137812969Y-81674461D01*
X137812969Y-81674461D02*
X137693921Y-81733985D01*
X137693921Y-81733985D02*
X137217731Y-81733985D01*
X138289159Y-81079223D02*
X139003445Y-81079223D01*
X138646302Y-82329223D02*
X138646302Y-81079223D01*
X108648095Y-115014819D02*
X108981428Y-116014819D01*
X108981428Y-116014819D02*
X109314761Y-115014819D01*
X109838571Y-115014819D02*
X109933809Y-115014819D01*
X109933809Y-115014819D02*
X110029047Y-115062438D01*
X110029047Y-115062438D02*
X110076666Y-115110057D01*
X110076666Y-115110057D02*
X110124285Y-115205295D01*
X110124285Y-115205295D02*
X110171904Y-115395771D01*
X110171904Y-115395771D02*
X110171904Y-115633866D01*
X110171904Y-115633866D02*
X110124285Y-115824342D01*
X110124285Y-115824342D02*
X110076666Y-115919580D01*
X110076666Y-115919580D02*
X110029047Y-115967200D01*
X110029047Y-115967200D02*
X109933809Y-116014819D01*
X109933809Y-116014819D02*
X109838571Y-116014819D01*
X109838571Y-116014819D02*
X109743333Y-115967200D01*
X109743333Y-115967200D02*
X109695714Y-115919580D01*
X109695714Y-115919580D02*
X109648095Y-115824342D01*
X109648095Y-115824342D02*
X109600476Y-115633866D01*
X109600476Y-115633866D02*
X109600476Y-115395771D01*
X109600476Y-115395771D02*
X109648095Y-115205295D01*
X109648095Y-115205295D02*
X109695714Y-115110057D01*
X109695714Y-115110057D02*
X109743333Y-115062438D01*
X109743333Y-115062438D02*
X109838571Y-115014819D01*
X110790952Y-115014819D02*
X110886190Y-115014819D01*
X110886190Y-115014819D02*
X110981428Y-115062438D01*
X110981428Y-115062438D02*
X111029047Y-115110057D01*
X111029047Y-115110057D02*
X111076666Y-115205295D01*
X111076666Y-115205295D02*
X111124285Y-115395771D01*
X111124285Y-115395771D02*
X111124285Y-115633866D01*
X111124285Y-115633866D02*
X111076666Y-115824342D01*
X111076666Y-115824342D02*
X111029047Y-115919580D01*
X111029047Y-115919580D02*
X110981428Y-115967200D01*
X110981428Y-115967200D02*
X110886190Y-116014819D01*
X110886190Y-116014819D02*
X110790952Y-116014819D01*
X110790952Y-116014819D02*
X110695714Y-115967200D01*
X110695714Y-115967200D02*
X110648095Y-115919580D01*
X110648095Y-115919580D02*
X110600476Y-115824342D01*
X110600476Y-115824342D02*
X110552857Y-115633866D01*
X110552857Y-115633866D02*
X110552857Y-115395771D01*
X110552857Y-115395771D02*
X110600476Y-115205295D01*
X110600476Y-115205295D02*
X110648095Y-115110057D01*
X110648095Y-115110057D02*
X110695714Y-115062438D01*
X110695714Y-115062438D02*
X110790952Y-115014819D01*
X112076666Y-116014819D02*
X111505238Y-116014819D01*
X111790952Y-116014819D02*
X111790952Y-115014819D01*
X111790952Y-115014819D02*
X111695714Y-115157676D01*
X111695714Y-115157676D02*
X111600476Y-115252914D01*
X111600476Y-115252914D02*
X111505238Y-115300533D01*
X153613233Y-57335619D02*
X153279900Y-56859428D01*
X153041805Y-57335619D02*
X153041805Y-56335619D01*
X153041805Y-56335619D02*
X153422757Y-56335619D01*
X153422757Y-56335619D02*
X153517995Y-56383238D01*
X153517995Y-56383238D02*
X153565614Y-56430857D01*
X153565614Y-56430857D02*
X153613233Y-56526095D01*
X153613233Y-56526095D02*
X153613233Y-56668952D01*
X153613233Y-56668952D02*
X153565614Y-56764190D01*
X153565614Y-56764190D02*
X153517995Y-56811809D01*
X153517995Y-56811809D02*
X153422757Y-56859428D01*
X153422757Y-56859428D02*
X153041805Y-56859428D01*
X154565614Y-57335619D02*
X153994186Y-57335619D01*
X154279900Y-57335619D02*
X154279900Y-56335619D01*
X154279900Y-56335619D02*
X154184662Y-56478476D01*
X154184662Y-56478476D02*
X154089424Y-56573714D01*
X154089424Y-56573714D02*
X153994186Y-56621333D01*
X164631714Y-89298819D02*
X164631714Y-88298819D01*
X164631714Y-88298819D02*
X164869809Y-88298819D01*
X164869809Y-88298819D02*
X165012666Y-88346438D01*
X165012666Y-88346438D02*
X165107904Y-88441676D01*
X165107904Y-88441676D02*
X165155523Y-88536914D01*
X165155523Y-88536914D02*
X165203142Y-88727390D01*
X165203142Y-88727390D02*
X165203142Y-88870247D01*
X165203142Y-88870247D02*
X165155523Y-89060723D01*
X165155523Y-89060723D02*
X165107904Y-89155961D01*
X165107904Y-89155961D02*
X165012666Y-89251200D01*
X165012666Y-89251200D02*
X164869809Y-89298819D01*
X164869809Y-89298819D02*
X164631714Y-89298819D01*
X165584095Y-88394057D02*
X165631714Y-88346438D01*
X165631714Y-88346438D02*
X165726952Y-88298819D01*
X165726952Y-88298819D02*
X165965047Y-88298819D01*
X165965047Y-88298819D02*
X166060285Y-88346438D01*
X166060285Y-88346438D02*
X166107904Y-88394057D01*
X166107904Y-88394057D02*
X166155523Y-88489295D01*
X166155523Y-88489295D02*
X166155523Y-88584533D01*
X166155523Y-88584533D02*
X166107904Y-88727390D01*
X166107904Y-88727390D02*
X165536476Y-89298819D01*
X165536476Y-89298819D02*
X166155523Y-89298819D01*
X166536476Y-88394057D02*
X166584095Y-88346438D01*
X166584095Y-88346438D02*
X166679333Y-88298819D01*
X166679333Y-88298819D02*
X166917428Y-88298819D01*
X166917428Y-88298819D02*
X167012666Y-88346438D01*
X167012666Y-88346438D02*
X167060285Y-88394057D01*
X167060285Y-88394057D02*
X167107904Y-88489295D01*
X167107904Y-88489295D02*
X167107904Y-88584533D01*
X167107904Y-88584533D02*
X167060285Y-88727390D01*
X167060285Y-88727390D02*
X166488857Y-89298819D01*
X166488857Y-89298819D02*
X167107904Y-89298819D01*
X193349714Y-76654819D02*
X193349714Y-75654819D01*
X193349714Y-75654819D02*
X193587809Y-75654819D01*
X193587809Y-75654819D02*
X193730666Y-75702438D01*
X193730666Y-75702438D02*
X193825904Y-75797676D01*
X193825904Y-75797676D02*
X193873523Y-75892914D01*
X193873523Y-75892914D02*
X193921142Y-76083390D01*
X193921142Y-76083390D02*
X193921142Y-76226247D01*
X193921142Y-76226247D02*
X193873523Y-76416723D01*
X193873523Y-76416723D02*
X193825904Y-76511961D01*
X193825904Y-76511961D02*
X193730666Y-76607200D01*
X193730666Y-76607200D02*
X193587809Y-76654819D01*
X193587809Y-76654819D02*
X193349714Y-76654819D01*
X194873523Y-76654819D02*
X194302095Y-76654819D01*
X194587809Y-76654819D02*
X194587809Y-75654819D01*
X194587809Y-75654819D02*
X194492571Y-75797676D01*
X194492571Y-75797676D02*
X194397333Y-75892914D01*
X194397333Y-75892914D02*
X194302095Y-75940533D01*
X195206857Y-75654819D02*
X195873523Y-75654819D01*
X195873523Y-75654819D02*
X195444952Y-76654819D01*
X120165905Y-48714819D02*
X120165905Y-47714819D01*
X120165905Y-47714819D02*
X120404000Y-47714819D01*
X120404000Y-47714819D02*
X120546857Y-47762438D01*
X120546857Y-47762438D02*
X120642095Y-47857676D01*
X120642095Y-47857676D02*
X120689714Y-47952914D01*
X120689714Y-47952914D02*
X120737333Y-48143390D01*
X120737333Y-48143390D02*
X120737333Y-48286247D01*
X120737333Y-48286247D02*
X120689714Y-48476723D01*
X120689714Y-48476723D02*
X120642095Y-48571961D01*
X120642095Y-48571961D02*
X120546857Y-48667200D01*
X120546857Y-48667200D02*
X120404000Y-48714819D01*
X120404000Y-48714819D02*
X120165905Y-48714819D01*
X121070667Y-47714819D02*
X121689714Y-47714819D01*
X121689714Y-47714819D02*
X121356381Y-48095771D01*
X121356381Y-48095771D02*
X121499238Y-48095771D01*
X121499238Y-48095771D02*
X121594476Y-48143390D01*
X121594476Y-48143390D02*
X121642095Y-48191009D01*
X121642095Y-48191009D02*
X121689714Y-48286247D01*
X121689714Y-48286247D02*
X121689714Y-48524342D01*
X121689714Y-48524342D02*
X121642095Y-48619580D01*
X121642095Y-48619580D02*
X121594476Y-48667200D01*
X121594476Y-48667200D02*
X121499238Y-48714819D01*
X121499238Y-48714819D02*
X121213524Y-48714819D01*
X121213524Y-48714819D02*
X121118286Y-48667200D01*
X121118286Y-48667200D02*
X121070667Y-48619580D01*
X153613233Y-67285619D02*
X153279900Y-66809428D01*
X153041805Y-67285619D02*
X153041805Y-66285619D01*
X153041805Y-66285619D02*
X153422757Y-66285619D01*
X153422757Y-66285619D02*
X153517995Y-66333238D01*
X153517995Y-66333238D02*
X153565614Y-66380857D01*
X153565614Y-66380857D02*
X153613233Y-66476095D01*
X153613233Y-66476095D02*
X153613233Y-66618952D01*
X153613233Y-66618952D02*
X153565614Y-66714190D01*
X153565614Y-66714190D02*
X153517995Y-66761809D01*
X153517995Y-66761809D02*
X153422757Y-66809428D01*
X153422757Y-66809428D02*
X153041805Y-66809428D01*
X154470376Y-66285619D02*
X154279900Y-66285619D01*
X154279900Y-66285619D02*
X154184662Y-66333238D01*
X154184662Y-66333238D02*
X154137043Y-66380857D01*
X154137043Y-66380857D02*
X154041805Y-66523714D01*
X154041805Y-66523714D02*
X153994186Y-66714190D01*
X153994186Y-66714190D02*
X153994186Y-67095142D01*
X153994186Y-67095142D02*
X154041805Y-67190380D01*
X154041805Y-67190380D02*
X154089424Y-67238000D01*
X154089424Y-67238000D02*
X154184662Y-67285619D01*
X154184662Y-67285619D02*
X154375138Y-67285619D01*
X154375138Y-67285619D02*
X154470376Y-67238000D01*
X154470376Y-67238000D02*
X154517995Y-67190380D01*
X154517995Y-67190380D02*
X154565614Y-67095142D01*
X154565614Y-67095142D02*
X154565614Y-66857047D01*
X154565614Y-66857047D02*
X154517995Y-66761809D01*
X154517995Y-66761809D02*
X154470376Y-66714190D01*
X154470376Y-66714190D02*
X154375138Y-66666571D01*
X154375138Y-66666571D02*
X154184662Y-66666571D01*
X154184662Y-66666571D02*
X154089424Y-66714190D01*
X154089424Y-66714190D02*
X154041805Y-66761809D01*
X154041805Y-66761809D02*
X153994186Y-66857047D01*
X119689714Y-66494819D02*
X119689714Y-65494819D01*
X119689714Y-65494819D02*
X119927809Y-65494819D01*
X119927809Y-65494819D02*
X120070666Y-65542438D01*
X120070666Y-65542438D02*
X120165904Y-65637676D01*
X120165904Y-65637676D02*
X120213523Y-65732914D01*
X120213523Y-65732914D02*
X120261142Y-65923390D01*
X120261142Y-65923390D02*
X120261142Y-66066247D01*
X120261142Y-66066247D02*
X120213523Y-66256723D01*
X120213523Y-66256723D02*
X120165904Y-66351961D01*
X120165904Y-66351961D02*
X120070666Y-66447200D01*
X120070666Y-66447200D02*
X119927809Y-66494819D01*
X119927809Y-66494819D02*
X119689714Y-66494819D01*
X121213523Y-66494819D02*
X120642095Y-66494819D01*
X120927809Y-66494819D02*
X120927809Y-65494819D01*
X120927809Y-65494819D02*
X120832571Y-65637676D01*
X120832571Y-65637676D02*
X120737333Y-65732914D01*
X120737333Y-65732914D02*
X120642095Y-65780533D01*
X121832571Y-65494819D02*
X121927809Y-65494819D01*
X121927809Y-65494819D02*
X122023047Y-65542438D01*
X122023047Y-65542438D02*
X122070666Y-65590057D01*
X122070666Y-65590057D02*
X122118285Y-65685295D01*
X122118285Y-65685295D02*
X122165904Y-65875771D01*
X122165904Y-65875771D02*
X122165904Y-66113866D01*
X122165904Y-66113866D02*
X122118285Y-66304342D01*
X122118285Y-66304342D02*
X122070666Y-66399580D01*
X122070666Y-66399580D02*
X122023047Y-66447200D01*
X122023047Y-66447200D02*
X121927809Y-66494819D01*
X121927809Y-66494819D02*
X121832571Y-66494819D01*
X121832571Y-66494819D02*
X121737333Y-66447200D01*
X121737333Y-66447200D02*
X121689714Y-66399580D01*
X121689714Y-66399580D02*
X121642095Y-66304342D01*
X121642095Y-66304342D02*
X121594476Y-66113866D01*
X121594476Y-66113866D02*
X121594476Y-65875771D01*
X121594476Y-65875771D02*
X121642095Y-65685295D01*
X121642095Y-65685295D02*
X121689714Y-65590057D01*
X121689714Y-65590057D02*
X121737333Y-65542438D01*
X121737333Y-65542438D02*
X121832571Y-65494819D01*
X167949714Y-114754819D02*
X167949714Y-113754819D01*
X167949714Y-113754819D02*
X168187809Y-113754819D01*
X168187809Y-113754819D02*
X168330666Y-113802438D01*
X168330666Y-113802438D02*
X168425904Y-113897676D01*
X168425904Y-113897676D02*
X168473523Y-113992914D01*
X168473523Y-113992914D02*
X168521142Y-114183390D01*
X168521142Y-114183390D02*
X168521142Y-114326247D01*
X168521142Y-114326247D02*
X168473523Y-114516723D01*
X168473523Y-114516723D02*
X168425904Y-114611961D01*
X168425904Y-114611961D02*
X168330666Y-114707200D01*
X168330666Y-114707200D02*
X168187809Y-114754819D01*
X168187809Y-114754819D02*
X167949714Y-114754819D01*
X168902095Y-113850057D02*
X168949714Y-113802438D01*
X168949714Y-113802438D02*
X169044952Y-113754819D01*
X169044952Y-113754819D02*
X169283047Y-113754819D01*
X169283047Y-113754819D02*
X169378285Y-113802438D01*
X169378285Y-113802438D02*
X169425904Y-113850057D01*
X169425904Y-113850057D02*
X169473523Y-113945295D01*
X169473523Y-113945295D02*
X169473523Y-114040533D01*
X169473523Y-114040533D02*
X169425904Y-114183390D01*
X169425904Y-114183390D02*
X168854476Y-114754819D01*
X168854476Y-114754819D02*
X169473523Y-114754819D01*
X170330666Y-113754819D02*
X170140190Y-113754819D01*
X170140190Y-113754819D02*
X170044952Y-113802438D01*
X170044952Y-113802438D02*
X169997333Y-113850057D01*
X169997333Y-113850057D02*
X169902095Y-113992914D01*
X169902095Y-113992914D02*
X169854476Y-114183390D01*
X169854476Y-114183390D02*
X169854476Y-114564342D01*
X169854476Y-114564342D02*
X169902095Y-114659580D01*
X169902095Y-114659580D02*
X169949714Y-114707200D01*
X169949714Y-114707200D02*
X170044952Y-114754819D01*
X170044952Y-114754819D02*
X170235428Y-114754819D01*
X170235428Y-114754819D02*
X170330666Y-114707200D01*
X170330666Y-114707200D02*
X170378285Y-114659580D01*
X170378285Y-114659580D02*
X170425904Y-114564342D01*
X170425904Y-114564342D02*
X170425904Y-114326247D01*
X170425904Y-114326247D02*
X170378285Y-114231009D01*
X170378285Y-114231009D02*
X170330666Y-114183390D01*
X170330666Y-114183390D02*
X170235428Y-114135771D01*
X170235428Y-114135771D02*
X170044952Y-114135771D01*
X170044952Y-114135771D02*
X169949714Y-114183390D01*
X169949714Y-114183390D02*
X169902095Y-114231009D01*
X169902095Y-114231009D02*
X169854476Y-114326247D01*
X160805905Y-48714819D02*
X160805905Y-47714819D01*
X160805905Y-47714819D02*
X161044000Y-47714819D01*
X161044000Y-47714819D02*
X161186857Y-47762438D01*
X161186857Y-47762438D02*
X161282095Y-47857676D01*
X161282095Y-47857676D02*
X161329714Y-47952914D01*
X161329714Y-47952914D02*
X161377333Y-48143390D01*
X161377333Y-48143390D02*
X161377333Y-48286247D01*
X161377333Y-48286247D02*
X161329714Y-48476723D01*
X161329714Y-48476723D02*
X161282095Y-48571961D01*
X161282095Y-48571961D02*
X161186857Y-48667200D01*
X161186857Y-48667200D02*
X161044000Y-48714819D01*
X161044000Y-48714819D02*
X160805905Y-48714819D01*
X162282095Y-47714819D02*
X161805905Y-47714819D01*
X161805905Y-47714819D02*
X161758286Y-48191009D01*
X161758286Y-48191009D02*
X161805905Y-48143390D01*
X161805905Y-48143390D02*
X161901143Y-48095771D01*
X161901143Y-48095771D02*
X162139238Y-48095771D01*
X162139238Y-48095771D02*
X162234476Y-48143390D01*
X162234476Y-48143390D02*
X162282095Y-48191009D01*
X162282095Y-48191009D02*
X162329714Y-48286247D01*
X162329714Y-48286247D02*
X162329714Y-48524342D01*
X162329714Y-48524342D02*
X162282095Y-48619580D01*
X162282095Y-48619580D02*
X162234476Y-48667200D01*
X162234476Y-48667200D02*
X162139238Y-48714819D01*
X162139238Y-48714819D02*
X161901143Y-48714819D01*
X161901143Y-48714819D02*
X161805905Y-48667200D01*
X161805905Y-48667200D02*
X161758286Y-48619580D01*
X71905905Y-61414819D02*
X71905905Y-60414819D01*
X71905905Y-60414819D02*
X72144000Y-60414819D01*
X72144000Y-60414819D02*
X72286857Y-60462438D01*
X72286857Y-60462438D02*
X72382095Y-60557676D01*
X72382095Y-60557676D02*
X72429714Y-60652914D01*
X72429714Y-60652914D02*
X72477333Y-60843390D01*
X72477333Y-60843390D02*
X72477333Y-60986247D01*
X72477333Y-60986247D02*
X72429714Y-61176723D01*
X72429714Y-61176723D02*
X72382095Y-61271961D01*
X72382095Y-61271961D02*
X72286857Y-61367200D01*
X72286857Y-61367200D02*
X72144000Y-61414819D01*
X72144000Y-61414819D02*
X71905905Y-61414819D01*
X72810667Y-60414819D02*
X73477333Y-60414819D01*
X73477333Y-60414819D02*
X73048762Y-61414819D01*
X79525905Y-48714819D02*
X79525905Y-47714819D01*
X79525905Y-47714819D02*
X79764000Y-47714819D01*
X79764000Y-47714819D02*
X79906857Y-47762438D01*
X79906857Y-47762438D02*
X80002095Y-47857676D01*
X80002095Y-47857676D02*
X80049714Y-47952914D01*
X80049714Y-47952914D02*
X80097333Y-48143390D01*
X80097333Y-48143390D02*
X80097333Y-48286247D01*
X80097333Y-48286247D02*
X80049714Y-48476723D01*
X80049714Y-48476723D02*
X80002095Y-48571961D01*
X80002095Y-48571961D02*
X79906857Y-48667200D01*
X79906857Y-48667200D02*
X79764000Y-48714819D01*
X79764000Y-48714819D02*
X79525905Y-48714819D01*
X81049714Y-48714819D02*
X80478286Y-48714819D01*
X80764000Y-48714819D02*
X80764000Y-47714819D01*
X80764000Y-47714819D02*
X80668762Y-47857676D01*
X80668762Y-47857676D02*
X80573524Y-47952914D01*
X80573524Y-47952914D02*
X80478286Y-48000533D01*
X185729714Y-66494819D02*
X185729714Y-65494819D01*
X185729714Y-65494819D02*
X185967809Y-65494819D01*
X185967809Y-65494819D02*
X186110666Y-65542438D01*
X186110666Y-65542438D02*
X186205904Y-65637676D01*
X186205904Y-65637676D02*
X186253523Y-65732914D01*
X186253523Y-65732914D02*
X186301142Y-65923390D01*
X186301142Y-65923390D02*
X186301142Y-66066247D01*
X186301142Y-66066247D02*
X186253523Y-66256723D01*
X186253523Y-66256723D02*
X186205904Y-66351961D01*
X186205904Y-66351961D02*
X186110666Y-66447200D01*
X186110666Y-66447200D02*
X185967809Y-66494819D01*
X185967809Y-66494819D02*
X185729714Y-66494819D01*
X187253523Y-66494819D02*
X186682095Y-66494819D01*
X186967809Y-66494819D02*
X186967809Y-65494819D01*
X186967809Y-65494819D02*
X186872571Y-65637676D01*
X186872571Y-65637676D02*
X186777333Y-65732914D01*
X186777333Y-65732914D02*
X186682095Y-65780533D01*
X187586857Y-65494819D02*
X188205904Y-65494819D01*
X188205904Y-65494819D02*
X187872571Y-65875771D01*
X187872571Y-65875771D02*
X188015428Y-65875771D01*
X188015428Y-65875771D02*
X188110666Y-65923390D01*
X188110666Y-65923390D02*
X188158285Y-65971009D01*
X188158285Y-65971009D02*
X188205904Y-66066247D01*
X188205904Y-66066247D02*
X188205904Y-66304342D01*
X188205904Y-66304342D02*
X188158285Y-66399580D01*
X188158285Y-66399580D02*
X188110666Y-66447200D01*
X188110666Y-66447200D02*
X188015428Y-66494819D01*
X188015428Y-66494819D02*
X187729714Y-66494819D01*
X187729714Y-66494819D02*
X187634476Y-66447200D01*
X187634476Y-66447200D02*
X187586857Y-66399580D01*
X153613233Y-63305619D02*
X153279900Y-62829428D01*
X153041805Y-63305619D02*
X153041805Y-62305619D01*
X153041805Y-62305619D02*
X153422757Y-62305619D01*
X153422757Y-62305619D02*
X153517995Y-62353238D01*
X153517995Y-62353238D02*
X153565614Y-62400857D01*
X153565614Y-62400857D02*
X153613233Y-62496095D01*
X153613233Y-62496095D02*
X153613233Y-62638952D01*
X153613233Y-62638952D02*
X153565614Y-62734190D01*
X153565614Y-62734190D02*
X153517995Y-62781809D01*
X153517995Y-62781809D02*
X153422757Y-62829428D01*
X153422757Y-62829428D02*
X153041805Y-62829428D01*
X154470376Y-62638952D02*
X154470376Y-63305619D01*
X154232281Y-62258000D02*
X153994186Y-62972285D01*
X153994186Y-62972285D02*
X154613233Y-62972285D01*
X153648433Y-69737519D02*
X153315100Y-69261328D01*
X153077005Y-69737519D02*
X153077005Y-68737519D01*
X153077005Y-68737519D02*
X153457957Y-68737519D01*
X153457957Y-68737519D02*
X153553195Y-68785138D01*
X153553195Y-68785138D02*
X153600814Y-68832757D01*
X153600814Y-68832757D02*
X153648433Y-68927995D01*
X153648433Y-68927995D02*
X153648433Y-69070852D01*
X153648433Y-69070852D02*
X153600814Y-69166090D01*
X153600814Y-69166090D02*
X153553195Y-69213709D01*
X153553195Y-69213709D02*
X153457957Y-69261328D01*
X153457957Y-69261328D02*
X153077005Y-69261328D01*
X153981767Y-68737519D02*
X154648433Y-68737519D01*
X154648433Y-68737519D02*
X154219862Y-69737519D01*
X188269714Y-114754819D02*
X188269714Y-113754819D01*
X188269714Y-113754819D02*
X188507809Y-113754819D01*
X188507809Y-113754819D02*
X188650666Y-113802438D01*
X188650666Y-113802438D02*
X188745904Y-113897676D01*
X188745904Y-113897676D02*
X188793523Y-113992914D01*
X188793523Y-113992914D02*
X188841142Y-114183390D01*
X188841142Y-114183390D02*
X188841142Y-114326247D01*
X188841142Y-114326247D02*
X188793523Y-114516723D01*
X188793523Y-114516723D02*
X188745904Y-114611961D01*
X188745904Y-114611961D02*
X188650666Y-114707200D01*
X188650666Y-114707200D02*
X188507809Y-114754819D01*
X188507809Y-114754819D02*
X188269714Y-114754819D01*
X189222095Y-113850057D02*
X189269714Y-113802438D01*
X189269714Y-113802438D02*
X189364952Y-113754819D01*
X189364952Y-113754819D02*
X189603047Y-113754819D01*
X189603047Y-113754819D02*
X189698285Y-113802438D01*
X189698285Y-113802438D02*
X189745904Y-113850057D01*
X189745904Y-113850057D02*
X189793523Y-113945295D01*
X189793523Y-113945295D02*
X189793523Y-114040533D01*
X189793523Y-114040533D02*
X189745904Y-114183390D01*
X189745904Y-114183390D02*
X189174476Y-114754819D01*
X189174476Y-114754819D02*
X189793523Y-114754819D01*
X190126857Y-113754819D02*
X190793523Y-113754819D01*
X190793523Y-113754819D02*
X190364952Y-114754819D01*
X96051714Y-114698819D02*
X96051714Y-113698819D01*
X96051714Y-113698819D02*
X96289809Y-113698819D01*
X96289809Y-113698819D02*
X96432666Y-113746438D01*
X96432666Y-113746438D02*
X96527904Y-113841676D01*
X96527904Y-113841676D02*
X96575523Y-113936914D01*
X96575523Y-113936914D02*
X96623142Y-114127390D01*
X96623142Y-114127390D02*
X96623142Y-114270247D01*
X96623142Y-114270247D02*
X96575523Y-114460723D01*
X96575523Y-114460723D02*
X96527904Y-114555961D01*
X96527904Y-114555961D02*
X96432666Y-114651200D01*
X96432666Y-114651200D02*
X96289809Y-114698819D01*
X96289809Y-114698819D02*
X96051714Y-114698819D01*
X97004095Y-113794057D02*
X97051714Y-113746438D01*
X97051714Y-113746438D02*
X97146952Y-113698819D01*
X97146952Y-113698819D02*
X97385047Y-113698819D01*
X97385047Y-113698819D02*
X97480285Y-113746438D01*
X97480285Y-113746438D02*
X97527904Y-113794057D01*
X97527904Y-113794057D02*
X97575523Y-113889295D01*
X97575523Y-113889295D02*
X97575523Y-113984533D01*
X97575523Y-113984533D02*
X97527904Y-114127390D01*
X97527904Y-114127390D02*
X96956476Y-114698819D01*
X96956476Y-114698819D02*
X97575523Y-114698819D01*
X98432666Y-114032152D02*
X98432666Y-114698819D01*
X98194571Y-113651200D02*
X97956476Y-114365485D01*
X97956476Y-114365485D02*
X98575523Y-114365485D01*
X107465905Y-66494819D02*
X107465905Y-65494819D01*
X107465905Y-65494819D02*
X107704000Y-65494819D01*
X107704000Y-65494819D02*
X107846857Y-65542438D01*
X107846857Y-65542438D02*
X107942095Y-65637676D01*
X107942095Y-65637676D02*
X107989714Y-65732914D01*
X107989714Y-65732914D02*
X108037333Y-65923390D01*
X108037333Y-65923390D02*
X108037333Y-66066247D01*
X108037333Y-66066247D02*
X107989714Y-66256723D01*
X107989714Y-66256723D02*
X107942095Y-66351961D01*
X107942095Y-66351961D02*
X107846857Y-66447200D01*
X107846857Y-66447200D02*
X107704000Y-66494819D01*
X107704000Y-66494819D02*
X107465905Y-66494819D01*
X108513524Y-66494819D02*
X108704000Y-66494819D01*
X108704000Y-66494819D02*
X108799238Y-66447200D01*
X108799238Y-66447200D02*
X108846857Y-66399580D01*
X108846857Y-66399580D02*
X108942095Y-66256723D01*
X108942095Y-66256723D02*
X108989714Y-66066247D01*
X108989714Y-66066247D02*
X108989714Y-65685295D01*
X108989714Y-65685295D02*
X108942095Y-65590057D01*
X108942095Y-65590057D02*
X108894476Y-65542438D01*
X108894476Y-65542438D02*
X108799238Y-65494819D01*
X108799238Y-65494819D02*
X108608762Y-65494819D01*
X108608762Y-65494819D02*
X108513524Y-65542438D01*
X108513524Y-65542438D02*
X108465905Y-65590057D01*
X108465905Y-65590057D02*
X108418286Y-65685295D01*
X108418286Y-65685295D02*
X108418286Y-65923390D01*
X108418286Y-65923390D02*
X108465905Y-66018628D01*
X108465905Y-66018628D02*
X108513524Y-66066247D01*
X108513524Y-66066247D02*
X108608762Y-66113866D01*
X108608762Y-66113866D02*
X108799238Y-66113866D01*
X108799238Y-66113866D02*
X108894476Y-66066247D01*
X108894476Y-66066247D02*
X108942095Y-66018628D01*
X108942095Y-66018628D02*
X108989714Y-65923390D01*
X153613233Y-65295619D02*
X153279900Y-64819428D01*
X153041805Y-65295619D02*
X153041805Y-64295619D01*
X153041805Y-64295619D02*
X153422757Y-64295619D01*
X153422757Y-64295619D02*
X153517995Y-64343238D01*
X153517995Y-64343238D02*
X153565614Y-64390857D01*
X153565614Y-64390857D02*
X153613233Y-64486095D01*
X153613233Y-64486095D02*
X153613233Y-64628952D01*
X153613233Y-64628952D02*
X153565614Y-64724190D01*
X153565614Y-64724190D02*
X153517995Y-64771809D01*
X153517995Y-64771809D02*
X153422757Y-64819428D01*
X153422757Y-64819428D02*
X153041805Y-64819428D01*
X154517995Y-64295619D02*
X154041805Y-64295619D01*
X154041805Y-64295619D02*
X153994186Y-64771809D01*
X153994186Y-64771809D02*
X154041805Y-64724190D01*
X154041805Y-64724190D02*
X154137043Y-64676571D01*
X154137043Y-64676571D02*
X154375138Y-64676571D01*
X154375138Y-64676571D02*
X154470376Y-64724190D01*
X154470376Y-64724190D02*
X154517995Y-64771809D01*
X154517995Y-64771809D02*
X154565614Y-64867047D01*
X154565614Y-64867047D02*
X154565614Y-65105142D01*
X154565614Y-65105142D02*
X154517995Y-65200380D01*
X154517995Y-65200380D02*
X154470376Y-65248000D01*
X154470376Y-65248000D02*
X154375138Y-65295619D01*
X154375138Y-65295619D02*
X154137043Y-65295619D01*
X154137043Y-65295619D02*
X154041805Y-65248000D01*
X154041805Y-65248000D02*
X153994186Y-65200380D01*
X113831714Y-76598819D02*
X113831714Y-75598819D01*
X113831714Y-75598819D02*
X114069809Y-75598819D01*
X114069809Y-75598819D02*
X114212666Y-75646438D01*
X114212666Y-75646438D02*
X114307904Y-75741676D01*
X114307904Y-75741676D02*
X114355523Y-75836914D01*
X114355523Y-75836914D02*
X114403142Y-76027390D01*
X114403142Y-76027390D02*
X114403142Y-76170247D01*
X114403142Y-76170247D02*
X114355523Y-76360723D01*
X114355523Y-76360723D02*
X114307904Y-76455961D01*
X114307904Y-76455961D02*
X114212666Y-76551200D01*
X114212666Y-76551200D02*
X114069809Y-76598819D01*
X114069809Y-76598819D02*
X113831714Y-76598819D01*
X115355523Y-76598819D02*
X114784095Y-76598819D01*
X115069809Y-76598819D02*
X115069809Y-75598819D01*
X115069809Y-75598819D02*
X114974571Y-75741676D01*
X114974571Y-75741676D02*
X114879333Y-75836914D01*
X114879333Y-75836914D02*
X114784095Y-75884533D01*
X116260285Y-75598819D02*
X115784095Y-75598819D01*
X115784095Y-75598819D02*
X115736476Y-76075009D01*
X115736476Y-76075009D02*
X115784095Y-76027390D01*
X115784095Y-76027390D02*
X115879333Y-75979771D01*
X115879333Y-75979771D02*
X116117428Y-75979771D01*
X116117428Y-75979771D02*
X116212666Y-76027390D01*
X116212666Y-76027390D02*
X116260285Y-76075009D01*
X116260285Y-76075009D02*
X116307904Y-76170247D01*
X116307904Y-76170247D02*
X116307904Y-76408342D01*
X116307904Y-76408342D02*
X116260285Y-76503580D01*
X116260285Y-76503580D02*
X116212666Y-76551200D01*
X116212666Y-76551200D02*
X116117428Y-76598819D01*
X116117428Y-76598819D02*
X115879333Y-76598819D01*
X115879333Y-76598819D02*
X115784095Y-76551200D01*
X115784095Y-76551200D02*
X115736476Y-76503580D01*
X107465905Y-48714819D02*
X107465905Y-47714819D01*
X107465905Y-47714819D02*
X107704000Y-47714819D01*
X107704000Y-47714819D02*
X107846857Y-47762438D01*
X107846857Y-47762438D02*
X107942095Y-47857676D01*
X107942095Y-47857676D02*
X107989714Y-47952914D01*
X107989714Y-47952914D02*
X108037333Y-48143390D01*
X108037333Y-48143390D02*
X108037333Y-48286247D01*
X108037333Y-48286247D02*
X107989714Y-48476723D01*
X107989714Y-48476723D02*
X107942095Y-48571961D01*
X107942095Y-48571961D02*
X107846857Y-48667200D01*
X107846857Y-48667200D02*
X107704000Y-48714819D01*
X107704000Y-48714819D02*
X107465905Y-48714819D01*
X108418286Y-47810057D02*
X108465905Y-47762438D01*
X108465905Y-47762438D02*
X108561143Y-47714819D01*
X108561143Y-47714819D02*
X108799238Y-47714819D01*
X108799238Y-47714819D02*
X108894476Y-47762438D01*
X108894476Y-47762438D02*
X108942095Y-47810057D01*
X108942095Y-47810057D02*
X108989714Y-47905295D01*
X108989714Y-47905295D02*
X108989714Y-48000533D01*
X108989714Y-48000533D02*
X108942095Y-48143390D01*
X108942095Y-48143390D02*
X108370667Y-48714819D01*
X108370667Y-48714819D02*
X108989714Y-48714819D01*
X132549214Y-114698819D02*
X132549214Y-113698819D01*
X132549214Y-113698819D02*
X132787309Y-113698819D01*
X132787309Y-113698819D02*
X132930166Y-113746438D01*
X132930166Y-113746438D02*
X133025404Y-113841676D01*
X133025404Y-113841676D02*
X133073023Y-113936914D01*
X133073023Y-113936914D02*
X133120642Y-114127390D01*
X133120642Y-114127390D02*
X133120642Y-114270247D01*
X133120642Y-114270247D02*
X133073023Y-114460723D01*
X133073023Y-114460723D02*
X133025404Y-114555961D01*
X133025404Y-114555961D02*
X132930166Y-114651200D01*
X132930166Y-114651200D02*
X132787309Y-114698819D01*
X132787309Y-114698819D02*
X132549214Y-114698819D01*
X133501595Y-113794057D02*
X133549214Y-113746438D01*
X133549214Y-113746438D02*
X133644452Y-113698819D01*
X133644452Y-113698819D02*
X133882547Y-113698819D01*
X133882547Y-113698819D02*
X133977785Y-113746438D01*
X133977785Y-113746438D02*
X134025404Y-113794057D01*
X134025404Y-113794057D02*
X134073023Y-113889295D01*
X134073023Y-113889295D02*
X134073023Y-113984533D01*
X134073023Y-113984533D02*
X134025404Y-114127390D01*
X134025404Y-114127390D02*
X133453976Y-114698819D01*
X133453976Y-114698819D02*
X134073023Y-114698819D01*
X134977785Y-113698819D02*
X134501595Y-113698819D01*
X134501595Y-113698819D02*
X134453976Y-114175009D01*
X134453976Y-114175009D02*
X134501595Y-114127390D01*
X134501595Y-114127390D02*
X134596833Y-114079771D01*
X134596833Y-114079771D02*
X134834928Y-114079771D01*
X134834928Y-114079771D02*
X134930166Y-114127390D01*
X134930166Y-114127390D02*
X134977785Y-114175009D01*
X134977785Y-114175009D02*
X135025404Y-114270247D01*
X135025404Y-114270247D02*
X135025404Y-114508342D01*
X135025404Y-114508342D02*
X134977785Y-114603580D01*
X134977785Y-114603580D02*
X134930166Y-114651200D01*
X134930166Y-114651200D02*
X134834928Y-114698819D01*
X134834928Y-114698819D02*
X134596833Y-114698819D01*
X134596833Y-114698819D02*
X134501595Y-114651200D01*
X134501595Y-114651200D02*
X134453976Y-114603580D01*
X145089714Y-66494819D02*
X145089714Y-65494819D01*
X145089714Y-65494819D02*
X145327809Y-65494819D01*
X145327809Y-65494819D02*
X145470666Y-65542438D01*
X145470666Y-65542438D02*
X145565904Y-65637676D01*
X145565904Y-65637676D02*
X145613523Y-65732914D01*
X145613523Y-65732914D02*
X145661142Y-65923390D01*
X145661142Y-65923390D02*
X145661142Y-66066247D01*
X145661142Y-66066247D02*
X145613523Y-66256723D01*
X145613523Y-66256723D02*
X145565904Y-66351961D01*
X145565904Y-66351961D02*
X145470666Y-66447200D01*
X145470666Y-66447200D02*
X145327809Y-66494819D01*
X145327809Y-66494819D02*
X145089714Y-66494819D01*
X146613523Y-66494819D02*
X146042095Y-66494819D01*
X146327809Y-66494819D02*
X146327809Y-65494819D01*
X146327809Y-65494819D02*
X146232571Y-65637676D01*
X146232571Y-65637676D02*
X146137333Y-65732914D01*
X146137333Y-65732914D02*
X146042095Y-65780533D01*
X147565904Y-66494819D02*
X146994476Y-66494819D01*
X147280190Y-66494819D02*
X147280190Y-65494819D01*
X147280190Y-65494819D02*
X147184952Y-65637676D01*
X147184952Y-65637676D02*
X147089714Y-65732914D01*
X147089714Y-65732914D02*
X146994476Y-65780533D01*
X145565905Y-48714819D02*
X145565905Y-47714819D01*
X145565905Y-47714819D02*
X145804000Y-47714819D01*
X145804000Y-47714819D02*
X145946857Y-47762438D01*
X145946857Y-47762438D02*
X146042095Y-47857676D01*
X146042095Y-47857676D02*
X146089714Y-47952914D01*
X146089714Y-47952914D02*
X146137333Y-48143390D01*
X146137333Y-48143390D02*
X146137333Y-48286247D01*
X146137333Y-48286247D02*
X146089714Y-48476723D01*
X146089714Y-48476723D02*
X146042095Y-48571961D01*
X146042095Y-48571961D02*
X145946857Y-48667200D01*
X145946857Y-48667200D02*
X145804000Y-48714819D01*
X145804000Y-48714819D02*
X145565905Y-48714819D01*
X146994476Y-48048152D02*
X146994476Y-48714819D01*
X146756381Y-47667200D02*
X146518286Y-48381485D01*
X146518286Y-48381485D02*
X147137333Y-48381485D01*
X70651714Y-89298819D02*
X70651714Y-88298819D01*
X70651714Y-88298819D02*
X70889809Y-88298819D01*
X70889809Y-88298819D02*
X71032666Y-88346438D01*
X71032666Y-88346438D02*
X71127904Y-88441676D01*
X71127904Y-88441676D02*
X71175523Y-88536914D01*
X71175523Y-88536914D02*
X71223142Y-88727390D01*
X71223142Y-88727390D02*
X71223142Y-88870247D01*
X71223142Y-88870247D02*
X71175523Y-89060723D01*
X71175523Y-89060723D02*
X71127904Y-89155961D01*
X71127904Y-89155961D02*
X71032666Y-89251200D01*
X71032666Y-89251200D02*
X70889809Y-89298819D01*
X70889809Y-89298819D02*
X70651714Y-89298819D01*
X72175523Y-89298819D02*
X71604095Y-89298819D01*
X71889809Y-89298819D02*
X71889809Y-88298819D01*
X71889809Y-88298819D02*
X71794571Y-88441676D01*
X71794571Y-88441676D02*
X71699333Y-88536914D01*
X71699333Y-88536914D02*
X71604095Y-88584533D01*
X72746952Y-88727390D02*
X72651714Y-88679771D01*
X72651714Y-88679771D02*
X72604095Y-88632152D01*
X72604095Y-88632152D02*
X72556476Y-88536914D01*
X72556476Y-88536914D02*
X72556476Y-88489295D01*
X72556476Y-88489295D02*
X72604095Y-88394057D01*
X72604095Y-88394057D02*
X72651714Y-88346438D01*
X72651714Y-88346438D02*
X72746952Y-88298819D01*
X72746952Y-88298819D02*
X72937428Y-88298819D01*
X72937428Y-88298819D02*
X73032666Y-88346438D01*
X73032666Y-88346438D02*
X73080285Y-88394057D01*
X73080285Y-88394057D02*
X73127904Y-88489295D01*
X73127904Y-88489295D02*
X73127904Y-88536914D01*
X73127904Y-88536914D02*
X73080285Y-88632152D01*
X73080285Y-88632152D02*
X73032666Y-88679771D01*
X73032666Y-88679771D02*
X72937428Y-88727390D01*
X72937428Y-88727390D02*
X72746952Y-88727390D01*
X72746952Y-88727390D02*
X72651714Y-88775009D01*
X72651714Y-88775009D02*
X72604095Y-88822628D01*
X72604095Y-88822628D02*
X72556476Y-88917866D01*
X72556476Y-88917866D02*
X72556476Y-89108342D01*
X72556476Y-89108342D02*
X72604095Y-89203580D01*
X72604095Y-89203580D02*
X72651714Y-89251200D01*
X72651714Y-89251200D02*
X72746952Y-89298819D01*
X72746952Y-89298819D02*
X72937428Y-89298819D01*
X72937428Y-89298819D02*
X73032666Y-89251200D01*
X73032666Y-89251200D02*
X73080285Y-89203580D01*
X73080285Y-89203580D02*
X73127904Y-89108342D01*
X73127904Y-89108342D02*
X73127904Y-88917866D01*
X73127904Y-88917866D02*
X73080285Y-88822628D01*
X73080285Y-88822628D02*
X73032666Y-88775009D01*
X73032666Y-88775009D02*
X72937428Y-88727390D01*
X165409714Y-104594819D02*
X165409714Y-103594819D01*
X165409714Y-103594819D02*
X165647809Y-103594819D01*
X165647809Y-103594819D02*
X165790666Y-103642438D01*
X165790666Y-103642438D02*
X165885904Y-103737676D01*
X165885904Y-103737676D02*
X165933523Y-103832914D01*
X165933523Y-103832914D02*
X165981142Y-104023390D01*
X165981142Y-104023390D02*
X165981142Y-104166247D01*
X165981142Y-104166247D02*
X165933523Y-104356723D01*
X165933523Y-104356723D02*
X165885904Y-104451961D01*
X165885904Y-104451961D02*
X165790666Y-104547200D01*
X165790666Y-104547200D02*
X165647809Y-104594819D01*
X165647809Y-104594819D02*
X165409714Y-104594819D01*
X166362095Y-103690057D02*
X166409714Y-103642438D01*
X166409714Y-103642438D02*
X166504952Y-103594819D01*
X166504952Y-103594819D02*
X166743047Y-103594819D01*
X166743047Y-103594819D02*
X166838285Y-103642438D01*
X166838285Y-103642438D02*
X166885904Y-103690057D01*
X166885904Y-103690057D02*
X166933523Y-103785295D01*
X166933523Y-103785295D02*
X166933523Y-103880533D01*
X166933523Y-103880533D02*
X166885904Y-104023390D01*
X166885904Y-104023390D02*
X166314476Y-104594819D01*
X166314476Y-104594819D02*
X166933523Y-104594819D01*
X167504952Y-104023390D02*
X167409714Y-103975771D01*
X167409714Y-103975771D02*
X167362095Y-103928152D01*
X167362095Y-103928152D02*
X167314476Y-103832914D01*
X167314476Y-103832914D02*
X167314476Y-103785295D01*
X167314476Y-103785295D02*
X167362095Y-103690057D01*
X167362095Y-103690057D02*
X167409714Y-103642438D01*
X167409714Y-103642438D02*
X167504952Y-103594819D01*
X167504952Y-103594819D02*
X167695428Y-103594819D01*
X167695428Y-103594819D02*
X167790666Y-103642438D01*
X167790666Y-103642438D02*
X167838285Y-103690057D01*
X167838285Y-103690057D02*
X167885904Y-103785295D01*
X167885904Y-103785295D02*
X167885904Y-103832914D01*
X167885904Y-103832914D02*
X167838285Y-103928152D01*
X167838285Y-103928152D02*
X167790666Y-103975771D01*
X167790666Y-103975771D02*
X167695428Y-104023390D01*
X167695428Y-104023390D02*
X167504952Y-104023390D01*
X167504952Y-104023390D02*
X167409714Y-104071009D01*
X167409714Y-104071009D02*
X167362095Y-104118628D01*
X167362095Y-104118628D02*
X167314476Y-104213866D01*
X167314476Y-104213866D02*
X167314476Y-104404342D01*
X167314476Y-104404342D02*
X167362095Y-104499580D01*
X167362095Y-104499580D02*
X167409714Y-104547200D01*
X167409714Y-104547200D02*
X167504952Y-104594819D01*
X167504952Y-104594819D02*
X167695428Y-104594819D01*
X167695428Y-104594819D02*
X167790666Y-104547200D01*
X167790666Y-104547200D02*
X167838285Y-104499580D01*
X167838285Y-104499580D02*
X167885904Y-104404342D01*
X167885904Y-104404342D02*
X167885904Y-104213866D01*
X167885904Y-104213866D02*
X167838285Y-104118628D01*
X167838285Y-104118628D02*
X167790666Y-104071009D01*
X167790666Y-104071009D02*
X167695428Y-104023390D01*
X153613233Y-59325619D02*
X153279900Y-58849428D01*
X153041805Y-59325619D02*
X153041805Y-58325619D01*
X153041805Y-58325619D02*
X153422757Y-58325619D01*
X153422757Y-58325619D02*
X153517995Y-58373238D01*
X153517995Y-58373238D02*
X153565614Y-58420857D01*
X153565614Y-58420857D02*
X153613233Y-58516095D01*
X153613233Y-58516095D02*
X153613233Y-58658952D01*
X153613233Y-58658952D02*
X153565614Y-58754190D01*
X153565614Y-58754190D02*
X153517995Y-58801809D01*
X153517995Y-58801809D02*
X153422757Y-58849428D01*
X153422757Y-58849428D02*
X153041805Y-58849428D01*
X153994186Y-58420857D02*
X154041805Y-58373238D01*
X154041805Y-58373238D02*
X154137043Y-58325619D01*
X154137043Y-58325619D02*
X154375138Y-58325619D01*
X154375138Y-58325619D02*
X154470376Y-58373238D01*
X154470376Y-58373238D02*
X154517995Y-58420857D01*
X154517995Y-58420857D02*
X154565614Y-58516095D01*
X154565614Y-58516095D02*
X154565614Y-58611333D01*
X154565614Y-58611333D02*
X154517995Y-58754190D01*
X154517995Y-58754190D02*
X153946567Y-59325619D01*
X153946567Y-59325619D02*
X154565614Y-59325619D01*
X139231714Y-89298819D02*
X139231714Y-88298819D01*
X139231714Y-88298819D02*
X139469809Y-88298819D01*
X139469809Y-88298819D02*
X139612666Y-88346438D01*
X139612666Y-88346438D02*
X139707904Y-88441676D01*
X139707904Y-88441676D02*
X139755523Y-88536914D01*
X139755523Y-88536914D02*
X139803142Y-88727390D01*
X139803142Y-88727390D02*
X139803142Y-88870247D01*
X139803142Y-88870247D02*
X139755523Y-89060723D01*
X139755523Y-89060723D02*
X139707904Y-89155961D01*
X139707904Y-89155961D02*
X139612666Y-89251200D01*
X139612666Y-89251200D02*
X139469809Y-89298819D01*
X139469809Y-89298819D02*
X139231714Y-89298819D01*
X140184095Y-88394057D02*
X140231714Y-88346438D01*
X140231714Y-88346438D02*
X140326952Y-88298819D01*
X140326952Y-88298819D02*
X140565047Y-88298819D01*
X140565047Y-88298819D02*
X140660285Y-88346438D01*
X140660285Y-88346438D02*
X140707904Y-88394057D01*
X140707904Y-88394057D02*
X140755523Y-88489295D01*
X140755523Y-88489295D02*
X140755523Y-88584533D01*
X140755523Y-88584533D02*
X140707904Y-88727390D01*
X140707904Y-88727390D02*
X140136476Y-89298819D01*
X140136476Y-89298819D02*
X140755523Y-89298819D01*
X141707904Y-89298819D02*
X141136476Y-89298819D01*
X141422190Y-89298819D02*
X141422190Y-88298819D01*
X141422190Y-88298819D02*
X141326952Y-88441676D01*
X141326952Y-88441676D02*
X141231714Y-88536914D01*
X141231714Y-88536914D02*
X141136476Y-88584533D01*
X71429714Y-76598819D02*
X71429714Y-75598819D01*
X71429714Y-75598819D02*
X71667809Y-75598819D01*
X71667809Y-75598819D02*
X71810666Y-75646438D01*
X71810666Y-75646438D02*
X71905904Y-75741676D01*
X71905904Y-75741676D02*
X71953523Y-75836914D01*
X71953523Y-75836914D02*
X72001142Y-76027390D01*
X72001142Y-76027390D02*
X72001142Y-76170247D01*
X72001142Y-76170247D02*
X71953523Y-76360723D01*
X71953523Y-76360723D02*
X71905904Y-76455961D01*
X71905904Y-76455961D02*
X71810666Y-76551200D01*
X71810666Y-76551200D02*
X71667809Y-76598819D01*
X71667809Y-76598819D02*
X71429714Y-76598819D01*
X72953523Y-76598819D02*
X72382095Y-76598819D01*
X72667809Y-76598819D02*
X72667809Y-75598819D01*
X72667809Y-75598819D02*
X72572571Y-75741676D01*
X72572571Y-75741676D02*
X72477333Y-75836914D01*
X72477333Y-75836914D02*
X72382095Y-75884533D01*
X73810666Y-75932152D02*
X73810666Y-76598819D01*
X73572571Y-75551200D02*
X73334476Y-76265485D01*
X73334476Y-76265485D02*
X73953523Y-76265485D01*
X160329714Y-66494819D02*
X160329714Y-65494819D01*
X160329714Y-65494819D02*
X160567809Y-65494819D01*
X160567809Y-65494819D02*
X160710666Y-65542438D01*
X160710666Y-65542438D02*
X160805904Y-65637676D01*
X160805904Y-65637676D02*
X160853523Y-65732914D01*
X160853523Y-65732914D02*
X160901142Y-65923390D01*
X160901142Y-65923390D02*
X160901142Y-66066247D01*
X160901142Y-66066247D02*
X160853523Y-66256723D01*
X160853523Y-66256723D02*
X160805904Y-66351961D01*
X160805904Y-66351961D02*
X160710666Y-66447200D01*
X160710666Y-66447200D02*
X160567809Y-66494819D01*
X160567809Y-66494819D02*
X160329714Y-66494819D01*
X161853523Y-66494819D02*
X161282095Y-66494819D01*
X161567809Y-66494819D02*
X161567809Y-65494819D01*
X161567809Y-65494819D02*
X161472571Y-65637676D01*
X161472571Y-65637676D02*
X161377333Y-65732914D01*
X161377333Y-65732914D02*
X161282095Y-65780533D01*
X162234476Y-65590057D02*
X162282095Y-65542438D01*
X162282095Y-65542438D02*
X162377333Y-65494819D01*
X162377333Y-65494819D02*
X162615428Y-65494819D01*
X162615428Y-65494819D02*
X162710666Y-65542438D01*
X162710666Y-65542438D02*
X162758285Y-65590057D01*
X162758285Y-65590057D02*
X162805904Y-65685295D01*
X162805904Y-65685295D02*
X162805904Y-65780533D01*
X162805904Y-65780533D02*
X162758285Y-65923390D01*
X162758285Y-65923390D02*
X162186857Y-66494819D01*
X162186857Y-66494819D02*
X162805904Y-66494819D01*
X154471714Y-76598819D02*
X154471714Y-75598819D01*
X154471714Y-75598819D02*
X154709809Y-75598819D01*
X154709809Y-75598819D02*
X154852666Y-75646438D01*
X154852666Y-75646438D02*
X154947904Y-75741676D01*
X154947904Y-75741676D02*
X154995523Y-75836914D01*
X154995523Y-75836914D02*
X155043142Y-76027390D01*
X155043142Y-76027390D02*
X155043142Y-76170247D01*
X155043142Y-76170247D02*
X154995523Y-76360723D01*
X154995523Y-76360723D02*
X154947904Y-76455961D01*
X154947904Y-76455961D02*
X154852666Y-76551200D01*
X154852666Y-76551200D02*
X154709809Y-76598819D01*
X154709809Y-76598819D02*
X154471714Y-76598819D01*
X155995523Y-76598819D02*
X155424095Y-76598819D01*
X155709809Y-76598819D02*
X155709809Y-75598819D01*
X155709809Y-75598819D02*
X155614571Y-75741676D01*
X155614571Y-75741676D02*
X155519333Y-75836914D01*
X155519333Y-75836914D02*
X155424095Y-75884533D01*
X156852666Y-75598819D02*
X156662190Y-75598819D01*
X156662190Y-75598819D02*
X156566952Y-75646438D01*
X156566952Y-75646438D02*
X156519333Y-75694057D01*
X156519333Y-75694057D02*
X156424095Y-75836914D01*
X156424095Y-75836914D02*
X156376476Y-76027390D01*
X156376476Y-76027390D02*
X156376476Y-76408342D01*
X156376476Y-76408342D02*
X156424095Y-76503580D01*
X156424095Y-76503580D02*
X156471714Y-76551200D01*
X156471714Y-76551200D02*
X156566952Y-76598819D01*
X156566952Y-76598819D02*
X156757428Y-76598819D01*
X156757428Y-76598819D02*
X156852666Y-76551200D01*
X156852666Y-76551200D02*
X156900285Y-76503580D01*
X156900285Y-76503580D02*
X156947904Y-76408342D01*
X156947904Y-76408342D02*
X156947904Y-76170247D01*
X156947904Y-76170247D02*
X156900285Y-76075009D01*
X156900285Y-76075009D02*
X156852666Y-76027390D01*
X156852666Y-76027390D02*
X156757428Y-75979771D01*
X156757428Y-75979771D02*
X156566952Y-75979771D01*
X156566952Y-75979771D02*
X156471714Y-76027390D01*
X156471714Y-76027390D02*
X156424095Y-76075009D01*
X156424095Y-76075009D02*
X156376476Y-76170247D01*
X80811714Y-114698819D02*
X80811714Y-113698819D01*
X80811714Y-113698819D02*
X81049809Y-113698819D01*
X81049809Y-113698819D02*
X81192666Y-113746438D01*
X81192666Y-113746438D02*
X81287904Y-113841676D01*
X81287904Y-113841676D02*
X81335523Y-113936914D01*
X81335523Y-113936914D02*
X81383142Y-114127390D01*
X81383142Y-114127390D02*
X81383142Y-114270247D01*
X81383142Y-114270247D02*
X81335523Y-114460723D01*
X81335523Y-114460723D02*
X81287904Y-114555961D01*
X81287904Y-114555961D02*
X81192666Y-114651200D01*
X81192666Y-114651200D02*
X81049809Y-114698819D01*
X81049809Y-114698819D02*
X80811714Y-114698819D01*
X81764095Y-113794057D02*
X81811714Y-113746438D01*
X81811714Y-113746438D02*
X81906952Y-113698819D01*
X81906952Y-113698819D02*
X82145047Y-113698819D01*
X82145047Y-113698819D02*
X82240285Y-113746438D01*
X82240285Y-113746438D02*
X82287904Y-113794057D01*
X82287904Y-113794057D02*
X82335523Y-113889295D01*
X82335523Y-113889295D02*
X82335523Y-113984533D01*
X82335523Y-113984533D02*
X82287904Y-114127390D01*
X82287904Y-114127390D02*
X81716476Y-114698819D01*
X81716476Y-114698819D02*
X82335523Y-114698819D01*
X82668857Y-113698819D02*
X83287904Y-113698819D01*
X83287904Y-113698819D02*
X82954571Y-114079771D01*
X82954571Y-114079771D02*
X83097428Y-114079771D01*
X83097428Y-114079771D02*
X83192666Y-114127390D01*
X83192666Y-114127390D02*
X83240285Y-114175009D01*
X83240285Y-114175009D02*
X83287904Y-114270247D01*
X83287904Y-114270247D02*
X83287904Y-114508342D01*
X83287904Y-114508342D02*
X83240285Y-114603580D01*
X83240285Y-114603580D02*
X83192666Y-114651200D01*
X83192666Y-114651200D02*
X83097428Y-114698819D01*
X83097428Y-114698819D02*
X82811714Y-114698819D01*
X82811714Y-114698819D02*
X82716476Y-114651200D01*
X82716476Y-114651200D02*
X82668857Y-114603580D01*
X96051714Y-89298819D02*
X96051714Y-88298819D01*
X96051714Y-88298819D02*
X96289809Y-88298819D01*
X96289809Y-88298819D02*
X96432666Y-88346438D01*
X96432666Y-88346438D02*
X96527904Y-88441676D01*
X96527904Y-88441676D02*
X96575523Y-88536914D01*
X96575523Y-88536914D02*
X96623142Y-88727390D01*
X96623142Y-88727390D02*
X96623142Y-88870247D01*
X96623142Y-88870247D02*
X96575523Y-89060723D01*
X96575523Y-89060723D02*
X96527904Y-89155961D01*
X96527904Y-89155961D02*
X96432666Y-89251200D01*
X96432666Y-89251200D02*
X96289809Y-89298819D01*
X96289809Y-89298819D02*
X96051714Y-89298819D01*
X97575523Y-89298819D02*
X97004095Y-89298819D01*
X97289809Y-89298819D02*
X97289809Y-88298819D01*
X97289809Y-88298819D02*
X97194571Y-88441676D01*
X97194571Y-88441676D02*
X97099333Y-88536914D01*
X97099333Y-88536914D02*
X97004095Y-88584533D01*
X98051714Y-89298819D02*
X98242190Y-89298819D01*
X98242190Y-89298819D02*
X98337428Y-89251200D01*
X98337428Y-89251200D02*
X98385047Y-89203580D01*
X98385047Y-89203580D02*
X98480285Y-89060723D01*
X98480285Y-89060723D02*
X98527904Y-88870247D01*
X98527904Y-88870247D02*
X98527904Y-88489295D01*
X98527904Y-88489295D02*
X98480285Y-88394057D01*
X98480285Y-88394057D02*
X98432666Y-88346438D01*
X98432666Y-88346438D02*
X98337428Y-88298819D01*
X98337428Y-88298819D02*
X98146952Y-88298819D01*
X98146952Y-88298819D02*
X98051714Y-88346438D01*
X98051714Y-88346438D02*
X98004095Y-88394057D01*
X98004095Y-88394057D02*
X97956476Y-88489295D01*
X97956476Y-88489295D02*
X97956476Y-88727390D01*
X97956476Y-88727390D02*
X98004095Y-88822628D01*
X98004095Y-88822628D02*
X98051714Y-88870247D01*
X98051714Y-88870247D02*
X98146952Y-88917866D01*
X98146952Y-88917866D02*
X98337428Y-88917866D01*
X98337428Y-88917866D02*
X98432666Y-88870247D01*
X98432666Y-88870247D02*
X98480285Y-88822628D01*
X98480285Y-88822628D02*
X98527904Y-88727390D01*
X123991714Y-89298819D02*
X123991714Y-88298819D01*
X123991714Y-88298819D02*
X124229809Y-88298819D01*
X124229809Y-88298819D02*
X124372666Y-88346438D01*
X124372666Y-88346438D02*
X124467904Y-88441676D01*
X124467904Y-88441676D02*
X124515523Y-88536914D01*
X124515523Y-88536914D02*
X124563142Y-88727390D01*
X124563142Y-88727390D02*
X124563142Y-88870247D01*
X124563142Y-88870247D02*
X124515523Y-89060723D01*
X124515523Y-89060723D02*
X124467904Y-89155961D01*
X124467904Y-89155961D02*
X124372666Y-89251200D01*
X124372666Y-89251200D02*
X124229809Y-89298819D01*
X124229809Y-89298819D02*
X123991714Y-89298819D01*
X124944095Y-88394057D02*
X124991714Y-88346438D01*
X124991714Y-88346438D02*
X125086952Y-88298819D01*
X125086952Y-88298819D02*
X125325047Y-88298819D01*
X125325047Y-88298819D02*
X125420285Y-88346438D01*
X125420285Y-88346438D02*
X125467904Y-88394057D01*
X125467904Y-88394057D02*
X125515523Y-88489295D01*
X125515523Y-88489295D02*
X125515523Y-88584533D01*
X125515523Y-88584533D02*
X125467904Y-88727390D01*
X125467904Y-88727390D02*
X124896476Y-89298819D01*
X124896476Y-89298819D02*
X125515523Y-89298819D01*
X126134571Y-88298819D02*
X126229809Y-88298819D01*
X126229809Y-88298819D02*
X126325047Y-88346438D01*
X126325047Y-88346438D02*
X126372666Y-88394057D01*
X126372666Y-88394057D02*
X126420285Y-88489295D01*
X126420285Y-88489295D02*
X126467904Y-88679771D01*
X126467904Y-88679771D02*
X126467904Y-88917866D01*
X126467904Y-88917866D02*
X126420285Y-89108342D01*
X126420285Y-89108342D02*
X126372666Y-89203580D01*
X126372666Y-89203580D02*
X126325047Y-89251200D01*
X126325047Y-89251200D02*
X126229809Y-89298819D01*
X126229809Y-89298819D02*
X126134571Y-89298819D01*
X126134571Y-89298819D02*
X126039333Y-89251200D01*
X126039333Y-89251200D02*
X125991714Y-89203580D01*
X125991714Y-89203580D02*
X125944095Y-89108342D01*
X125944095Y-89108342D02*
X125896476Y-88917866D01*
X125896476Y-88917866D02*
X125896476Y-88679771D01*
X125896476Y-88679771D02*
X125944095Y-88489295D01*
X125944095Y-88489295D02*
X125991714Y-88394057D01*
X125991714Y-88394057D02*
X126039333Y-88346438D01*
X126039333Y-88346438D02*
X126134571Y-88298819D01*
X186205905Y-48714819D02*
X186205905Y-47714819D01*
X186205905Y-47714819D02*
X186444000Y-47714819D01*
X186444000Y-47714819D02*
X186586857Y-47762438D01*
X186586857Y-47762438D02*
X186682095Y-47857676D01*
X186682095Y-47857676D02*
X186729714Y-47952914D01*
X186729714Y-47952914D02*
X186777333Y-48143390D01*
X186777333Y-48143390D02*
X186777333Y-48286247D01*
X186777333Y-48286247D02*
X186729714Y-48476723D01*
X186729714Y-48476723D02*
X186682095Y-48571961D01*
X186682095Y-48571961D02*
X186586857Y-48667200D01*
X186586857Y-48667200D02*
X186444000Y-48714819D01*
X186444000Y-48714819D02*
X186205905Y-48714819D01*
X187634476Y-47714819D02*
X187444000Y-47714819D01*
X187444000Y-47714819D02*
X187348762Y-47762438D01*
X187348762Y-47762438D02*
X187301143Y-47810057D01*
X187301143Y-47810057D02*
X187205905Y-47952914D01*
X187205905Y-47952914D02*
X187158286Y-48143390D01*
X187158286Y-48143390D02*
X187158286Y-48524342D01*
X187158286Y-48524342D02*
X187205905Y-48619580D01*
X187205905Y-48619580D02*
X187253524Y-48667200D01*
X187253524Y-48667200D02*
X187348762Y-48714819D01*
X187348762Y-48714819D02*
X187539238Y-48714819D01*
X187539238Y-48714819D02*
X187634476Y-48667200D01*
X187634476Y-48667200D02*
X187682095Y-48619580D01*
X187682095Y-48619580D02*
X187729714Y-48524342D01*
X187729714Y-48524342D02*
X187729714Y-48286247D01*
X187729714Y-48286247D02*
X187682095Y-48191009D01*
X187682095Y-48191009D02*
X187634476Y-48143390D01*
X187634476Y-48143390D02*
X187539238Y-48095771D01*
X187539238Y-48095771D02*
X187348762Y-48095771D01*
X187348762Y-48095771D02*
X187253524Y-48143390D01*
X187253524Y-48143390D02*
X187205905Y-48191009D01*
X187205905Y-48191009D02*
X187158286Y-48286247D01*
X79525905Y-66494819D02*
X79525905Y-65494819D01*
X79525905Y-65494819D02*
X79764000Y-65494819D01*
X79764000Y-65494819D02*
X79906857Y-65542438D01*
X79906857Y-65542438D02*
X80002095Y-65637676D01*
X80002095Y-65637676D02*
X80049714Y-65732914D01*
X80049714Y-65732914D02*
X80097333Y-65923390D01*
X80097333Y-65923390D02*
X80097333Y-66066247D01*
X80097333Y-66066247D02*
X80049714Y-66256723D01*
X80049714Y-66256723D02*
X80002095Y-66351961D01*
X80002095Y-66351961D02*
X79906857Y-66447200D01*
X79906857Y-66447200D02*
X79764000Y-66494819D01*
X79764000Y-66494819D02*
X79525905Y-66494819D01*
X80668762Y-65923390D02*
X80573524Y-65875771D01*
X80573524Y-65875771D02*
X80525905Y-65828152D01*
X80525905Y-65828152D02*
X80478286Y-65732914D01*
X80478286Y-65732914D02*
X80478286Y-65685295D01*
X80478286Y-65685295D02*
X80525905Y-65590057D01*
X80525905Y-65590057D02*
X80573524Y-65542438D01*
X80573524Y-65542438D02*
X80668762Y-65494819D01*
X80668762Y-65494819D02*
X80859238Y-65494819D01*
X80859238Y-65494819D02*
X80954476Y-65542438D01*
X80954476Y-65542438D02*
X81002095Y-65590057D01*
X81002095Y-65590057D02*
X81049714Y-65685295D01*
X81049714Y-65685295D02*
X81049714Y-65732914D01*
X81049714Y-65732914D02*
X81002095Y-65828152D01*
X81002095Y-65828152D02*
X80954476Y-65875771D01*
X80954476Y-65875771D02*
X80859238Y-65923390D01*
X80859238Y-65923390D02*
X80668762Y-65923390D01*
X80668762Y-65923390D02*
X80573524Y-65971009D01*
X80573524Y-65971009D02*
X80525905Y-66018628D01*
X80525905Y-66018628D02*
X80478286Y-66113866D01*
X80478286Y-66113866D02*
X80478286Y-66304342D01*
X80478286Y-66304342D02*
X80525905Y-66399580D01*
X80525905Y-66399580D02*
X80573524Y-66447200D01*
X80573524Y-66447200D02*
X80668762Y-66494819D01*
X80668762Y-66494819D02*
X80859238Y-66494819D01*
X80859238Y-66494819D02*
X80954476Y-66447200D01*
X80954476Y-66447200D02*
X81002095Y-66399580D01*
X81002095Y-66399580D02*
X81049714Y-66304342D01*
X81049714Y-66304342D02*
X81049714Y-66113866D01*
X81049714Y-66113866D02*
X81002095Y-66018628D01*
X81002095Y-66018628D02*
X80954476Y-65971009D01*
X80954476Y-65971009D02*
X80859238Y-65923390D01*
X153613233Y-61315619D02*
X153279900Y-60839428D01*
X153041805Y-61315619D02*
X153041805Y-60315619D01*
X153041805Y-60315619D02*
X153422757Y-60315619D01*
X153422757Y-60315619D02*
X153517995Y-60363238D01*
X153517995Y-60363238D02*
X153565614Y-60410857D01*
X153565614Y-60410857D02*
X153613233Y-60506095D01*
X153613233Y-60506095D02*
X153613233Y-60648952D01*
X153613233Y-60648952D02*
X153565614Y-60744190D01*
X153565614Y-60744190D02*
X153517995Y-60791809D01*
X153517995Y-60791809D02*
X153422757Y-60839428D01*
X153422757Y-60839428D02*
X153041805Y-60839428D01*
X153946567Y-60315619D02*
X154565614Y-60315619D01*
X154565614Y-60315619D02*
X154232281Y-60696571D01*
X154232281Y-60696571D02*
X154375138Y-60696571D01*
X154375138Y-60696571D02*
X154470376Y-60744190D01*
X154470376Y-60744190D02*
X154517995Y-60791809D01*
X154517995Y-60791809D02*
X154565614Y-60887047D01*
X154565614Y-60887047D02*
X154565614Y-61125142D01*
X154565614Y-61125142D02*
X154517995Y-61220380D01*
X154517995Y-61220380D02*
X154470376Y-61268000D01*
X154470376Y-61268000D02*
X154375138Y-61315619D01*
X154375138Y-61315619D02*
X154089424Y-61315619D01*
X154089424Y-61315619D02*
X153994186Y-61268000D01*
X153994186Y-61268000D02*
X153946567Y-61220380D01*
D11*
%TO.C,R1*%
X153626259Y-57670800D02*
X153933541Y-57670800D01*
X153626259Y-58430800D02*
X153933541Y-58430800D01*
%TO.C,D22*%
X163415000Y-89860000D02*
X163415000Y-92908000D01*
X163415000Y-92908000D02*
X166100000Y-92908000D01*
X166100000Y-89860000D02*
X163415000Y-89860000D01*
%TO.C,D17*%
X192133000Y-77216000D02*
X192133000Y-80264000D01*
X192133000Y-80264000D02*
X194818000Y-80264000D01*
X194818000Y-77216000D02*
X192133000Y-77216000D01*
%TO.C,D3*%
X118473000Y-49276000D02*
X118473000Y-52324000D01*
X118473000Y-52324000D02*
X121158000Y-52324000D01*
X121158000Y-49276000D02*
X118473000Y-49276000D01*
%TO.C,R6*%
X153626259Y-67620800D02*
X153933541Y-67620800D01*
X153626259Y-68380800D02*
X153933541Y-68380800D01*
%TO.C,D10*%
X118473000Y-67056000D02*
X118473000Y-70104000D01*
X118473000Y-70104000D02*
X121158000Y-70104000D01*
X121158000Y-67056000D02*
X118473000Y-67056000D01*
%TO.C,D26*%
X166733000Y-115316000D02*
X166733000Y-118364000D01*
X166733000Y-118364000D02*
X169418000Y-118364000D01*
X169418000Y-115316000D02*
X166733000Y-115316000D01*
%TO.C,D5*%
X159113000Y-49276000D02*
X159113000Y-52324000D01*
X159113000Y-52324000D02*
X161798000Y-52324000D01*
X161798000Y-49276000D02*
X159113000Y-49276000D01*
%TO.C,D7*%
X70213000Y-61976000D02*
X70213000Y-65024000D01*
X70213000Y-65024000D02*
X72898000Y-65024000D01*
X72898000Y-61976000D02*
X70213000Y-61976000D01*
%TO.C,D1*%
X77833000Y-49276000D02*
X77833000Y-52324000D01*
X77833000Y-52324000D02*
X80518000Y-52324000D01*
X80518000Y-49276000D02*
X77833000Y-49276000D01*
%TO.C,D13*%
X184513000Y-67056000D02*
X184513000Y-70104000D01*
X184513000Y-70104000D02*
X187198000Y-70104000D01*
X187198000Y-67056000D02*
X184513000Y-67056000D01*
%TO.C,R4*%
X153626259Y-63640800D02*
X153933541Y-63640800D01*
X153626259Y-64400800D02*
X153933541Y-64400800D01*
%TO.C,R7*%
X153661459Y-70072700D02*
X153968741Y-70072700D01*
X153661459Y-70832700D02*
X153968741Y-70832700D01*
%TO.C,D27*%
X187053000Y-115316000D02*
X187053000Y-118364000D01*
X187053000Y-118364000D02*
X189738000Y-118364000D01*
X189738000Y-115316000D02*
X187053000Y-115316000D01*
%TO.C,D24*%
X94835000Y-115260000D02*
X94835000Y-118308000D01*
X94835000Y-118308000D02*
X97520000Y-118308000D01*
X97520000Y-115260000D02*
X94835000Y-115260000D01*
%TO.C,D9*%
X105773000Y-67056000D02*
X105773000Y-70104000D01*
X105773000Y-70104000D02*
X108458000Y-70104000D01*
X108458000Y-67056000D02*
X105773000Y-67056000D01*
%TO.C,R5*%
X153626259Y-65630800D02*
X153933541Y-65630800D01*
X153626259Y-66390800D02*
X153933541Y-66390800D01*
%TO.C,D15*%
X112615000Y-77160000D02*
X112615000Y-80208000D01*
X112615000Y-80208000D02*
X115300000Y-80208000D01*
X115300000Y-77160000D02*
X112615000Y-77160000D01*
%TO.C,D2*%
X105773000Y-49276000D02*
X105773000Y-52324000D01*
X105773000Y-52324000D02*
X108458000Y-52324000D01*
X108458000Y-49276000D02*
X105773000Y-49276000D01*
%TO.C,D25*%
X131332500Y-115260000D02*
X131332500Y-118308000D01*
X131332500Y-118308000D02*
X134017500Y-118308000D01*
X134017500Y-115260000D02*
X131332500Y-115260000D01*
%TO.C,D11*%
X143873000Y-67056000D02*
X143873000Y-70104000D01*
X143873000Y-70104000D02*
X146558000Y-70104000D01*
X146558000Y-67056000D02*
X143873000Y-67056000D01*
%TO.C,D4*%
X143873000Y-49276000D02*
X143873000Y-52324000D01*
X143873000Y-52324000D02*
X146558000Y-52324000D01*
X146558000Y-49276000D02*
X143873000Y-49276000D01*
%TO.C,D18*%
X69435000Y-89860000D02*
X69435000Y-92908000D01*
X69435000Y-92908000D02*
X72120000Y-92908000D01*
X72120000Y-89860000D02*
X69435000Y-89860000D01*
%TO.C,D28*%
X164193000Y-105156000D02*
X164193000Y-108204000D01*
X164193000Y-108204000D02*
X166878000Y-108204000D01*
X166878000Y-105156000D02*
X164193000Y-105156000D01*
%TO.C,R2*%
X153626259Y-59660800D02*
X153933541Y-59660800D01*
X153626259Y-60420800D02*
X153933541Y-60420800D01*
%TO.C,D21*%
X138015000Y-89860000D02*
X138015000Y-92908000D01*
X138015000Y-92908000D02*
X140700000Y-92908000D01*
X140700000Y-89860000D02*
X138015000Y-89860000D01*
%TO.C,D14*%
X70213000Y-77160000D02*
X70213000Y-80208000D01*
X70213000Y-80208000D02*
X72898000Y-80208000D01*
X72898000Y-77160000D02*
X70213000Y-77160000D01*
%TO.C,D12*%
X159113000Y-67056000D02*
X159113000Y-70104000D01*
X159113000Y-70104000D02*
X161798000Y-70104000D01*
X161798000Y-67056000D02*
X159113000Y-67056000D01*
%TO.C,D16*%
X153255000Y-77160000D02*
X153255000Y-80208000D01*
X153255000Y-80208000D02*
X155940000Y-80208000D01*
X155940000Y-77160000D02*
X153255000Y-77160000D01*
%TO.C,D23*%
X79595000Y-115260000D02*
X79595000Y-118308000D01*
X79595000Y-118308000D02*
X82280000Y-118308000D01*
X82280000Y-115260000D02*
X79595000Y-115260000D01*
%TO.C,D19*%
X94835000Y-89860000D02*
X94835000Y-92908000D01*
X94835000Y-92908000D02*
X97520000Y-92908000D01*
X97520000Y-89860000D02*
X94835000Y-89860000D01*
%TO.C,D20*%
X122775000Y-89860000D02*
X122775000Y-92908000D01*
X122775000Y-92908000D02*
X125460000Y-92908000D01*
X125460000Y-89860000D02*
X122775000Y-89860000D01*
%TO.C,D6*%
X184513000Y-49276000D02*
X184513000Y-52324000D01*
X184513000Y-52324000D02*
X187198000Y-52324000D01*
X187198000Y-49276000D02*
X184513000Y-49276000D01*
%TO.C,D8*%
X77833000Y-67056000D02*
X77833000Y-70104000D01*
X77833000Y-70104000D02*
X80518000Y-70104000D01*
X80518000Y-67056000D02*
X77833000Y-67056000D01*
%TO.C,R3*%
X153626259Y-61650800D02*
X153933541Y-61650800D01*
X153626259Y-62410800D02*
X153933541Y-62410800D01*
%TD*%
M02*
