G04 #@! TF.GenerationSoftware,KiCad,Pcbnew,(5.1.5-0-10_14)*
G04 #@! TF.CreationDate,2021-10-24T13:32:57+10:00*
G04 #@! TF.ProjectId,OH - Right Console - 1 - Electrical Power,4f48202d-2052-4696-9768-7420436f6e73,rev?*
G04 #@! TF.SameCoordinates,Original*
G04 #@! TF.FileFunction,Copper,L2,Bot*
G04 #@! TF.FilePolarity,Positive*
%FSLAX46Y46*%
G04 Gerber Fmt 4.6, Leading zero omitted, Abs format (unit mm)*
G04 Created by KiCad (PCBNEW (5.1.5-0-10_14)) date 2021-10-24 13:32:57*
%MOMM*%
%LPD*%
G04 APERTURE LIST*
%ADD10O,1.740000X2.200000*%
%ADD11C,0.100000*%
%ADD12O,1.600000X1.600000*%
%ADD13R,1.600000X1.600000*%
%ADD14C,0.250000*%
G04 APERTURE END LIST*
D10*
X132080000Y-98933000D03*
G04 #@! TA.AperFunction,ComponentPad*
D11*
G36*
X130184505Y-97834204D02*
G01*
X130208773Y-97837804D01*
X130232572Y-97843765D01*
X130255671Y-97852030D01*
X130277850Y-97862520D01*
X130298893Y-97875132D01*
X130318599Y-97889747D01*
X130336777Y-97906223D01*
X130353253Y-97924401D01*
X130367868Y-97944107D01*
X130380480Y-97965150D01*
X130390970Y-97987329D01*
X130399235Y-98010428D01*
X130405196Y-98034227D01*
X130408796Y-98058495D01*
X130410000Y-98082999D01*
X130410000Y-99783001D01*
X130408796Y-99807505D01*
X130405196Y-99831773D01*
X130399235Y-99855572D01*
X130390970Y-99878671D01*
X130380480Y-99900850D01*
X130367868Y-99921893D01*
X130353253Y-99941599D01*
X130336777Y-99959777D01*
X130318599Y-99976253D01*
X130298893Y-99990868D01*
X130277850Y-100003480D01*
X130255671Y-100013970D01*
X130232572Y-100022235D01*
X130208773Y-100028196D01*
X130184505Y-100031796D01*
X130160001Y-100033000D01*
X128919999Y-100033000D01*
X128895495Y-100031796D01*
X128871227Y-100028196D01*
X128847428Y-100022235D01*
X128824329Y-100013970D01*
X128802150Y-100003480D01*
X128781107Y-99990868D01*
X128761401Y-99976253D01*
X128743223Y-99959777D01*
X128726747Y-99941599D01*
X128712132Y-99921893D01*
X128699520Y-99900850D01*
X128689030Y-99878671D01*
X128680765Y-99855572D01*
X128674804Y-99831773D01*
X128671204Y-99807505D01*
X128670000Y-99783001D01*
X128670000Y-98082999D01*
X128671204Y-98058495D01*
X128674804Y-98034227D01*
X128680765Y-98010428D01*
X128689030Y-97987329D01*
X128699520Y-97965150D01*
X128712132Y-97944107D01*
X128726747Y-97924401D01*
X128743223Y-97906223D01*
X128761401Y-97889747D01*
X128781107Y-97875132D01*
X128802150Y-97862520D01*
X128824329Y-97852030D01*
X128847428Y-97843765D01*
X128871227Y-97837804D01*
X128895495Y-97834204D01*
X128919999Y-97833000D01*
X130160001Y-97833000D01*
X130184505Y-97834204D01*
G37*
G04 #@! TD.AperFunction*
D10*
X123740000Y-98933000D03*
G04 #@! TA.AperFunction,ComponentPad*
D11*
G36*
X121844505Y-97834204D02*
G01*
X121868773Y-97837804D01*
X121892572Y-97843765D01*
X121915671Y-97852030D01*
X121937850Y-97862520D01*
X121958893Y-97875132D01*
X121978599Y-97889747D01*
X121996777Y-97906223D01*
X122013253Y-97924401D01*
X122027868Y-97944107D01*
X122040480Y-97965150D01*
X122050970Y-97987329D01*
X122059235Y-98010428D01*
X122065196Y-98034227D01*
X122068796Y-98058495D01*
X122070000Y-98082999D01*
X122070000Y-99783001D01*
X122068796Y-99807505D01*
X122065196Y-99831773D01*
X122059235Y-99855572D01*
X122050970Y-99878671D01*
X122040480Y-99900850D01*
X122027868Y-99921893D01*
X122013253Y-99941599D01*
X121996777Y-99959777D01*
X121978599Y-99976253D01*
X121958893Y-99990868D01*
X121937850Y-100003480D01*
X121915671Y-100013970D01*
X121892572Y-100022235D01*
X121868773Y-100028196D01*
X121844505Y-100031796D01*
X121820001Y-100033000D01*
X120579999Y-100033000D01*
X120555495Y-100031796D01*
X120531227Y-100028196D01*
X120507428Y-100022235D01*
X120484329Y-100013970D01*
X120462150Y-100003480D01*
X120441107Y-99990868D01*
X120421401Y-99976253D01*
X120403223Y-99959777D01*
X120386747Y-99941599D01*
X120372132Y-99921893D01*
X120359520Y-99900850D01*
X120349030Y-99878671D01*
X120340765Y-99855572D01*
X120334804Y-99831773D01*
X120331204Y-99807505D01*
X120330000Y-99783001D01*
X120330000Y-98082999D01*
X120331204Y-98058495D01*
X120334804Y-98034227D01*
X120340765Y-98010428D01*
X120349030Y-97987329D01*
X120359520Y-97965150D01*
X120372132Y-97944107D01*
X120386747Y-97924401D01*
X120403223Y-97906223D01*
X120421401Y-97889747D01*
X120441107Y-97875132D01*
X120462150Y-97862520D01*
X120484329Y-97852030D01*
X120507428Y-97843765D01*
X120531227Y-97837804D01*
X120555495Y-97834204D01*
X120579999Y-97833000D01*
X121820001Y-97833000D01*
X121844505Y-97834204D01*
G37*
G04 #@! TD.AperFunction*
D10*
X115401000Y-98933000D03*
G04 #@! TA.AperFunction,ComponentPad*
D11*
G36*
X113505505Y-97834204D02*
G01*
X113529773Y-97837804D01*
X113553572Y-97843765D01*
X113576671Y-97852030D01*
X113598850Y-97862520D01*
X113619893Y-97875132D01*
X113639599Y-97889747D01*
X113657777Y-97906223D01*
X113674253Y-97924401D01*
X113688868Y-97944107D01*
X113701480Y-97965150D01*
X113711970Y-97987329D01*
X113720235Y-98010428D01*
X113726196Y-98034227D01*
X113729796Y-98058495D01*
X113731000Y-98082999D01*
X113731000Y-99783001D01*
X113729796Y-99807505D01*
X113726196Y-99831773D01*
X113720235Y-99855572D01*
X113711970Y-99878671D01*
X113701480Y-99900850D01*
X113688868Y-99921893D01*
X113674253Y-99941599D01*
X113657777Y-99959777D01*
X113639599Y-99976253D01*
X113619893Y-99990868D01*
X113598850Y-100003480D01*
X113576671Y-100013970D01*
X113553572Y-100022235D01*
X113529773Y-100028196D01*
X113505505Y-100031796D01*
X113481001Y-100033000D01*
X112240999Y-100033000D01*
X112216495Y-100031796D01*
X112192227Y-100028196D01*
X112168428Y-100022235D01*
X112145329Y-100013970D01*
X112123150Y-100003480D01*
X112102107Y-99990868D01*
X112082401Y-99976253D01*
X112064223Y-99959777D01*
X112047747Y-99941599D01*
X112033132Y-99921893D01*
X112020520Y-99900850D01*
X112010030Y-99878671D01*
X112001765Y-99855572D01*
X111995804Y-99831773D01*
X111992204Y-99807505D01*
X111991000Y-99783001D01*
X111991000Y-98082999D01*
X111992204Y-98058495D01*
X111995804Y-98034227D01*
X112001765Y-98010428D01*
X112010030Y-97987329D01*
X112020520Y-97965150D01*
X112033132Y-97944107D01*
X112047747Y-97924401D01*
X112064223Y-97906223D01*
X112082401Y-97889747D01*
X112102107Y-97875132D01*
X112123150Y-97862520D01*
X112145329Y-97852030D01*
X112168428Y-97843765D01*
X112192227Y-97837804D01*
X112216495Y-97834204D01*
X112240999Y-97833000D01*
X113481001Y-97833000D01*
X113505505Y-97834204D01*
G37*
G04 #@! TD.AperFunction*
D10*
X107061000Y-98933000D03*
G04 #@! TA.AperFunction,ComponentPad*
D11*
G36*
X105165505Y-97834204D02*
G01*
X105189773Y-97837804D01*
X105213572Y-97843765D01*
X105236671Y-97852030D01*
X105258850Y-97862520D01*
X105279893Y-97875132D01*
X105299599Y-97889747D01*
X105317777Y-97906223D01*
X105334253Y-97924401D01*
X105348868Y-97944107D01*
X105361480Y-97965150D01*
X105371970Y-97987329D01*
X105380235Y-98010428D01*
X105386196Y-98034227D01*
X105389796Y-98058495D01*
X105391000Y-98082999D01*
X105391000Y-99783001D01*
X105389796Y-99807505D01*
X105386196Y-99831773D01*
X105380235Y-99855572D01*
X105371970Y-99878671D01*
X105361480Y-99900850D01*
X105348868Y-99921893D01*
X105334253Y-99941599D01*
X105317777Y-99959777D01*
X105299599Y-99976253D01*
X105279893Y-99990868D01*
X105258850Y-100003480D01*
X105236671Y-100013970D01*
X105213572Y-100022235D01*
X105189773Y-100028196D01*
X105165505Y-100031796D01*
X105141001Y-100033000D01*
X103900999Y-100033000D01*
X103876495Y-100031796D01*
X103852227Y-100028196D01*
X103828428Y-100022235D01*
X103805329Y-100013970D01*
X103783150Y-100003480D01*
X103762107Y-99990868D01*
X103742401Y-99976253D01*
X103724223Y-99959777D01*
X103707747Y-99941599D01*
X103693132Y-99921893D01*
X103680520Y-99900850D01*
X103670030Y-99878671D01*
X103661765Y-99855572D01*
X103655804Y-99831773D01*
X103652204Y-99807505D01*
X103651000Y-99783001D01*
X103651000Y-98082999D01*
X103652204Y-98058495D01*
X103655804Y-98034227D01*
X103661765Y-98010428D01*
X103670030Y-97987329D01*
X103680520Y-97965150D01*
X103693132Y-97944107D01*
X103707747Y-97924401D01*
X103724223Y-97906223D01*
X103742401Y-97889747D01*
X103762107Y-97875132D01*
X103783150Y-97862520D01*
X103805329Y-97852030D01*
X103828428Y-97843765D01*
X103852227Y-97837804D01*
X103876495Y-97834204D01*
X103900999Y-97833000D01*
X105141001Y-97833000D01*
X105165505Y-97834204D01*
G37*
G04 #@! TD.AperFunction*
D10*
X138303000Y-82042000D03*
X135763000Y-82042000D03*
G04 #@! TA.AperFunction,ComponentPad*
D11*
G36*
X133867505Y-80943204D02*
G01*
X133891773Y-80946804D01*
X133915572Y-80952765D01*
X133938671Y-80961030D01*
X133960850Y-80971520D01*
X133981893Y-80984132D01*
X134001599Y-80998747D01*
X134019777Y-81015223D01*
X134036253Y-81033401D01*
X134050868Y-81053107D01*
X134063480Y-81074150D01*
X134073970Y-81096329D01*
X134082235Y-81119428D01*
X134088196Y-81143227D01*
X134091796Y-81167495D01*
X134093000Y-81191999D01*
X134093000Y-82892001D01*
X134091796Y-82916505D01*
X134088196Y-82940773D01*
X134082235Y-82964572D01*
X134073970Y-82987671D01*
X134063480Y-83009850D01*
X134050868Y-83030893D01*
X134036253Y-83050599D01*
X134019777Y-83068777D01*
X134001599Y-83085253D01*
X133981893Y-83099868D01*
X133960850Y-83112480D01*
X133938671Y-83122970D01*
X133915572Y-83131235D01*
X133891773Y-83137196D01*
X133867505Y-83140796D01*
X133843001Y-83142000D01*
X132602999Y-83142000D01*
X132578495Y-83140796D01*
X132554227Y-83137196D01*
X132530428Y-83131235D01*
X132507329Y-83122970D01*
X132485150Y-83112480D01*
X132464107Y-83099868D01*
X132444401Y-83085253D01*
X132426223Y-83068777D01*
X132409747Y-83050599D01*
X132395132Y-83030893D01*
X132382520Y-83009850D01*
X132372030Y-82987671D01*
X132363765Y-82964572D01*
X132357804Y-82940773D01*
X132354204Y-82916505D01*
X132353000Y-82892001D01*
X132353000Y-81191999D01*
X132354204Y-81167495D01*
X132357804Y-81143227D01*
X132363765Y-81119428D01*
X132372030Y-81096329D01*
X132382520Y-81074150D01*
X132395132Y-81053107D01*
X132409747Y-81033401D01*
X132426223Y-81015223D01*
X132444401Y-80998747D01*
X132464107Y-80984132D01*
X132485150Y-80971520D01*
X132507329Y-80961030D01*
X132530428Y-80952765D01*
X132554227Y-80946804D01*
X132578495Y-80943204D01*
X132602999Y-80942000D01*
X133843001Y-80942000D01*
X133867505Y-80943204D01*
G37*
G04 #@! TD.AperFunction*
D10*
X151892000Y-82042000D03*
X149352000Y-82042000D03*
G04 #@! TA.AperFunction,ComponentPad*
D11*
G36*
X147456505Y-80943204D02*
G01*
X147480773Y-80946804D01*
X147504572Y-80952765D01*
X147527671Y-80961030D01*
X147549850Y-80971520D01*
X147570893Y-80984132D01*
X147590599Y-80998747D01*
X147608777Y-81015223D01*
X147625253Y-81033401D01*
X147639868Y-81053107D01*
X147652480Y-81074150D01*
X147662970Y-81096329D01*
X147671235Y-81119428D01*
X147677196Y-81143227D01*
X147680796Y-81167495D01*
X147682000Y-81191999D01*
X147682000Y-82892001D01*
X147680796Y-82916505D01*
X147677196Y-82940773D01*
X147671235Y-82964572D01*
X147662970Y-82987671D01*
X147652480Y-83009850D01*
X147639868Y-83030893D01*
X147625253Y-83050599D01*
X147608777Y-83068777D01*
X147590599Y-83085253D01*
X147570893Y-83099868D01*
X147549850Y-83112480D01*
X147527671Y-83122970D01*
X147504572Y-83131235D01*
X147480773Y-83137196D01*
X147456505Y-83140796D01*
X147432001Y-83142000D01*
X146191999Y-83142000D01*
X146167495Y-83140796D01*
X146143227Y-83137196D01*
X146119428Y-83131235D01*
X146096329Y-83122970D01*
X146074150Y-83112480D01*
X146053107Y-83099868D01*
X146033401Y-83085253D01*
X146015223Y-83068777D01*
X145998747Y-83050599D01*
X145984132Y-83030893D01*
X145971520Y-83009850D01*
X145961030Y-82987671D01*
X145952765Y-82964572D01*
X145946804Y-82940773D01*
X145943204Y-82916505D01*
X145942000Y-82892001D01*
X145942000Y-81191999D01*
X145943204Y-81167495D01*
X145946804Y-81143227D01*
X145952765Y-81119428D01*
X145961030Y-81096329D01*
X145971520Y-81074150D01*
X145984132Y-81053107D01*
X145998747Y-81033401D01*
X146015223Y-81015223D01*
X146033401Y-80998747D01*
X146053107Y-80984132D01*
X146074150Y-80971520D01*
X146096329Y-80961030D01*
X146119428Y-80952765D01*
X146143227Y-80946804D01*
X146167495Y-80943204D01*
X146191999Y-80942000D01*
X147432001Y-80942000D01*
X147456505Y-80943204D01*
G37*
G04 #@! TD.AperFunction*
D10*
X138303000Y-90551000D03*
X135763000Y-90551000D03*
G04 #@! TA.AperFunction,ComponentPad*
D11*
G36*
X133867505Y-89452204D02*
G01*
X133891773Y-89455804D01*
X133915572Y-89461765D01*
X133938671Y-89470030D01*
X133960850Y-89480520D01*
X133981893Y-89493132D01*
X134001599Y-89507747D01*
X134019777Y-89524223D01*
X134036253Y-89542401D01*
X134050868Y-89562107D01*
X134063480Y-89583150D01*
X134073970Y-89605329D01*
X134082235Y-89628428D01*
X134088196Y-89652227D01*
X134091796Y-89676495D01*
X134093000Y-89700999D01*
X134093000Y-91401001D01*
X134091796Y-91425505D01*
X134088196Y-91449773D01*
X134082235Y-91473572D01*
X134073970Y-91496671D01*
X134063480Y-91518850D01*
X134050868Y-91539893D01*
X134036253Y-91559599D01*
X134019777Y-91577777D01*
X134001599Y-91594253D01*
X133981893Y-91608868D01*
X133960850Y-91621480D01*
X133938671Y-91631970D01*
X133915572Y-91640235D01*
X133891773Y-91646196D01*
X133867505Y-91649796D01*
X133843001Y-91651000D01*
X132602999Y-91651000D01*
X132578495Y-91649796D01*
X132554227Y-91646196D01*
X132530428Y-91640235D01*
X132507329Y-91631970D01*
X132485150Y-91621480D01*
X132464107Y-91608868D01*
X132444401Y-91594253D01*
X132426223Y-91577777D01*
X132409747Y-91559599D01*
X132395132Y-91539893D01*
X132382520Y-91518850D01*
X132372030Y-91496671D01*
X132363765Y-91473572D01*
X132357804Y-91449773D01*
X132354204Y-91425505D01*
X132353000Y-91401001D01*
X132353000Y-89700999D01*
X132354204Y-89676495D01*
X132357804Y-89652227D01*
X132363765Y-89628428D01*
X132372030Y-89605329D01*
X132382520Y-89583150D01*
X132395132Y-89562107D01*
X132409747Y-89542401D01*
X132426223Y-89524223D01*
X132444401Y-89507747D01*
X132464107Y-89493132D01*
X132485150Y-89480520D01*
X132507329Y-89470030D01*
X132530428Y-89461765D01*
X132554227Y-89455804D01*
X132578495Y-89452204D01*
X132602999Y-89451000D01*
X133843001Y-89451000D01*
X133867505Y-89452204D01*
G37*
G04 #@! TD.AperFunction*
D10*
X151892000Y-91059000D03*
X149352000Y-91059000D03*
G04 #@! TA.AperFunction,ComponentPad*
D11*
G36*
X147456505Y-89960204D02*
G01*
X147480773Y-89963804D01*
X147504572Y-89969765D01*
X147527671Y-89978030D01*
X147549850Y-89988520D01*
X147570893Y-90001132D01*
X147590599Y-90015747D01*
X147608777Y-90032223D01*
X147625253Y-90050401D01*
X147639868Y-90070107D01*
X147652480Y-90091150D01*
X147662970Y-90113329D01*
X147671235Y-90136428D01*
X147677196Y-90160227D01*
X147680796Y-90184495D01*
X147682000Y-90208999D01*
X147682000Y-91909001D01*
X147680796Y-91933505D01*
X147677196Y-91957773D01*
X147671235Y-91981572D01*
X147662970Y-92004671D01*
X147652480Y-92026850D01*
X147639868Y-92047893D01*
X147625253Y-92067599D01*
X147608777Y-92085777D01*
X147590599Y-92102253D01*
X147570893Y-92116868D01*
X147549850Y-92129480D01*
X147527671Y-92139970D01*
X147504572Y-92148235D01*
X147480773Y-92154196D01*
X147456505Y-92157796D01*
X147432001Y-92159000D01*
X146191999Y-92159000D01*
X146167495Y-92157796D01*
X146143227Y-92154196D01*
X146119428Y-92148235D01*
X146096329Y-92139970D01*
X146074150Y-92129480D01*
X146053107Y-92116868D01*
X146033401Y-92102253D01*
X146015223Y-92085777D01*
X145998747Y-92067599D01*
X145984132Y-92047893D01*
X145971520Y-92026850D01*
X145961030Y-92004671D01*
X145952765Y-91981572D01*
X145946804Y-91957773D01*
X145943204Y-91933505D01*
X145942000Y-91909001D01*
X145942000Y-90208999D01*
X145943204Y-90184495D01*
X145946804Y-90160227D01*
X145952765Y-90136428D01*
X145961030Y-90113329D01*
X145971520Y-90091150D01*
X145984132Y-90070107D01*
X145998747Y-90050401D01*
X146015223Y-90032223D01*
X146033401Y-90015747D01*
X146053107Y-90001132D01*
X146074150Y-89988520D01*
X146096329Y-89978030D01*
X146119428Y-89969765D01*
X146143227Y-89963804D01*
X146167495Y-89960204D01*
X146191999Y-89959000D01*
X147432001Y-89959000D01*
X147456505Y-89960204D01*
G37*
G04 #@! TD.AperFunction*
D10*
X112840000Y-81978500D03*
X110300000Y-81978500D03*
X107760000Y-81978500D03*
G04 #@! TA.AperFunction,ComponentPad*
D11*
G36*
X105864505Y-80879704D02*
G01*
X105888773Y-80883304D01*
X105912572Y-80889265D01*
X105935671Y-80897530D01*
X105957850Y-80908020D01*
X105978893Y-80920632D01*
X105998599Y-80935247D01*
X106016777Y-80951723D01*
X106033253Y-80969901D01*
X106047868Y-80989607D01*
X106060480Y-81010650D01*
X106070970Y-81032829D01*
X106079235Y-81055928D01*
X106085196Y-81079727D01*
X106088796Y-81103995D01*
X106090000Y-81128499D01*
X106090000Y-82828501D01*
X106088796Y-82853005D01*
X106085196Y-82877273D01*
X106079235Y-82901072D01*
X106070970Y-82924171D01*
X106060480Y-82946350D01*
X106047868Y-82967393D01*
X106033253Y-82987099D01*
X106016777Y-83005277D01*
X105998599Y-83021753D01*
X105978893Y-83036368D01*
X105957850Y-83048980D01*
X105935671Y-83059470D01*
X105912572Y-83067735D01*
X105888773Y-83073696D01*
X105864505Y-83077296D01*
X105840001Y-83078500D01*
X104599999Y-83078500D01*
X104575495Y-83077296D01*
X104551227Y-83073696D01*
X104527428Y-83067735D01*
X104504329Y-83059470D01*
X104482150Y-83048980D01*
X104461107Y-83036368D01*
X104441401Y-83021753D01*
X104423223Y-83005277D01*
X104406747Y-82987099D01*
X104392132Y-82967393D01*
X104379520Y-82946350D01*
X104369030Y-82924171D01*
X104360765Y-82901072D01*
X104354804Y-82877273D01*
X104351204Y-82853005D01*
X104350000Y-82828501D01*
X104350000Y-81128499D01*
X104351204Y-81103995D01*
X104354804Y-81079727D01*
X104360765Y-81055928D01*
X104369030Y-81032829D01*
X104379520Y-81010650D01*
X104392132Y-80989607D01*
X104406747Y-80969901D01*
X104423223Y-80951723D01*
X104441401Y-80935247D01*
X104461107Y-80920632D01*
X104482150Y-80908020D01*
X104504329Y-80897530D01*
X104527428Y-80889265D01*
X104551227Y-80883304D01*
X104575495Y-80879704D01*
X104599999Y-80878500D01*
X105840001Y-80878500D01*
X105864505Y-80879704D01*
G37*
G04 #@! TD.AperFunction*
D10*
X162814000Y-93345000D03*
G04 #@! TA.AperFunction,ComponentPad*
D11*
G36*
X160918505Y-92246204D02*
G01*
X160942773Y-92249804D01*
X160966572Y-92255765D01*
X160989671Y-92264030D01*
X161011850Y-92274520D01*
X161032893Y-92287132D01*
X161052599Y-92301747D01*
X161070777Y-92318223D01*
X161087253Y-92336401D01*
X161101868Y-92356107D01*
X161114480Y-92377150D01*
X161124970Y-92399329D01*
X161133235Y-92422428D01*
X161139196Y-92446227D01*
X161142796Y-92470495D01*
X161144000Y-92494999D01*
X161144000Y-94195001D01*
X161142796Y-94219505D01*
X161139196Y-94243773D01*
X161133235Y-94267572D01*
X161124970Y-94290671D01*
X161114480Y-94312850D01*
X161101868Y-94333893D01*
X161087253Y-94353599D01*
X161070777Y-94371777D01*
X161052599Y-94388253D01*
X161032893Y-94402868D01*
X161011850Y-94415480D01*
X160989671Y-94425970D01*
X160966572Y-94434235D01*
X160942773Y-94440196D01*
X160918505Y-94443796D01*
X160894001Y-94445000D01*
X159653999Y-94445000D01*
X159629495Y-94443796D01*
X159605227Y-94440196D01*
X159581428Y-94434235D01*
X159558329Y-94425970D01*
X159536150Y-94415480D01*
X159515107Y-94402868D01*
X159495401Y-94388253D01*
X159477223Y-94371777D01*
X159460747Y-94353599D01*
X159446132Y-94333893D01*
X159433520Y-94312850D01*
X159423030Y-94290671D01*
X159414765Y-94267572D01*
X159408804Y-94243773D01*
X159405204Y-94219505D01*
X159404000Y-94195001D01*
X159404000Y-92494999D01*
X159405204Y-92470495D01*
X159408804Y-92446227D01*
X159414765Y-92422428D01*
X159423030Y-92399329D01*
X159433520Y-92377150D01*
X159446132Y-92356107D01*
X159460747Y-92336401D01*
X159477223Y-92318223D01*
X159495401Y-92301747D01*
X159515107Y-92287132D01*
X159536150Y-92274520D01*
X159558329Y-92264030D01*
X159581428Y-92255765D01*
X159605227Y-92249804D01*
X159629495Y-92246204D01*
X159653999Y-92245000D01*
X160894001Y-92245000D01*
X160918505Y-92246204D01*
G37*
G04 #@! TD.AperFunction*
D10*
X95504000Y-100203000D03*
G04 #@! TA.AperFunction,ComponentPad*
D11*
G36*
X93608505Y-99104204D02*
G01*
X93632773Y-99107804D01*
X93656572Y-99113765D01*
X93679671Y-99122030D01*
X93701850Y-99132520D01*
X93722893Y-99145132D01*
X93742599Y-99159747D01*
X93760777Y-99176223D01*
X93777253Y-99194401D01*
X93791868Y-99214107D01*
X93804480Y-99235150D01*
X93814970Y-99257329D01*
X93823235Y-99280428D01*
X93829196Y-99304227D01*
X93832796Y-99328495D01*
X93834000Y-99352999D01*
X93834000Y-101053001D01*
X93832796Y-101077505D01*
X93829196Y-101101773D01*
X93823235Y-101125572D01*
X93814970Y-101148671D01*
X93804480Y-101170850D01*
X93791868Y-101191893D01*
X93777253Y-101211599D01*
X93760777Y-101229777D01*
X93742599Y-101246253D01*
X93722893Y-101260868D01*
X93701850Y-101273480D01*
X93679671Y-101283970D01*
X93656572Y-101292235D01*
X93632773Y-101298196D01*
X93608505Y-101301796D01*
X93584001Y-101303000D01*
X92343999Y-101303000D01*
X92319495Y-101301796D01*
X92295227Y-101298196D01*
X92271428Y-101292235D01*
X92248329Y-101283970D01*
X92226150Y-101273480D01*
X92205107Y-101260868D01*
X92185401Y-101246253D01*
X92167223Y-101229777D01*
X92150747Y-101211599D01*
X92136132Y-101191893D01*
X92123520Y-101170850D01*
X92113030Y-101148671D01*
X92104765Y-101125572D01*
X92098804Y-101101773D01*
X92095204Y-101077505D01*
X92094000Y-101053001D01*
X92094000Y-99352999D01*
X92095204Y-99328495D01*
X92098804Y-99304227D01*
X92104765Y-99280428D01*
X92113030Y-99257329D01*
X92123520Y-99235150D01*
X92136132Y-99214107D01*
X92150747Y-99194401D01*
X92167223Y-99176223D01*
X92185401Y-99159747D01*
X92205107Y-99145132D01*
X92226150Y-99132520D01*
X92248329Y-99122030D01*
X92271428Y-99113765D01*
X92295227Y-99107804D01*
X92319495Y-99104204D01*
X92343999Y-99103000D01*
X93584001Y-99103000D01*
X93608505Y-99104204D01*
G37*
G04 #@! TD.AperFunction*
D10*
X111506000Y-90678000D03*
X108966000Y-90678000D03*
G04 #@! TA.AperFunction,ComponentPad*
D11*
G36*
X107070505Y-89579204D02*
G01*
X107094773Y-89582804D01*
X107118572Y-89588765D01*
X107141671Y-89597030D01*
X107163850Y-89607520D01*
X107184893Y-89620132D01*
X107204599Y-89634747D01*
X107222777Y-89651223D01*
X107239253Y-89669401D01*
X107253868Y-89689107D01*
X107266480Y-89710150D01*
X107276970Y-89732329D01*
X107285235Y-89755428D01*
X107291196Y-89779227D01*
X107294796Y-89803495D01*
X107296000Y-89827999D01*
X107296000Y-91528001D01*
X107294796Y-91552505D01*
X107291196Y-91576773D01*
X107285235Y-91600572D01*
X107276970Y-91623671D01*
X107266480Y-91645850D01*
X107253868Y-91666893D01*
X107239253Y-91686599D01*
X107222777Y-91704777D01*
X107204599Y-91721253D01*
X107184893Y-91735868D01*
X107163850Y-91748480D01*
X107141671Y-91758970D01*
X107118572Y-91767235D01*
X107094773Y-91773196D01*
X107070505Y-91776796D01*
X107046001Y-91778000D01*
X105805999Y-91778000D01*
X105781495Y-91776796D01*
X105757227Y-91773196D01*
X105733428Y-91767235D01*
X105710329Y-91758970D01*
X105688150Y-91748480D01*
X105667107Y-91735868D01*
X105647401Y-91721253D01*
X105629223Y-91704777D01*
X105612747Y-91686599D01*
X105598132Y-91666893D01*
X105585520Y-91645850D01*
X105575030Y-91623671D01*
X105566765Y-91600572D01*
X105560804Y-91576773D01*
X105557204Y-91552505D01*
X105556000Y-91528001D01*
X105556000Y-89827999D01*
X105557204Y-89803495D01*
X105560804Y-89779227D01*
X105566765Y-89755428D01*
X105575030Y-89732329D01*
X105585520Y-89710150D01*
X105598132Y-89689107D01*
X105612747Y-89669401D01*
X105629223Y-89651223D01*
X105647401Y-89634747D01*
X105667107Y-89620132D01*
X105688150Y-89607520D01*
X105710329Y-89597030D01*
X105733428Y-89588765D01*
X105757227Y-89582804D01*
X105781495Y-89579204D01*
X105805999Y-89578000D01*
X107046001Y-89578000D01*
X107070505Y-89579204D01*
G37*
G04 #@! TD.AperFunction*
D12*
X101664000Y-87249000D03*
D13*
X101664000Y-79629000D03*
D12*
X116205000Y-87292000D03*
D13*
X116205000Y-79672000D03*
D12*
X120650000Y-87292000D03*
D13*
X120650000Y-79672000D03*
D14*
X120650000Y-79672000D02*
X120650000Y-80797300D01*
X160274000Y-93345000D02*
X133197700Y-93345000D01*
X133197700Y-93345000D02*
X120650000Y-80797300D01*
X108966000Y-90678000D02*
X110161300Y-90678000D01*
X116205000Y-79672000D02*
X116205000Y-80797300D01*
X116205000Y-80797300D02*
X117807000Y-82399300D01*
X117807000Y-82399300D02*
X117807000Y-87936400D01*
X117807000Y-87936400D02*
X113639300Y-92104100D01*
X113639300Y-92104100D02*
X110989700Y-92104100D01*
X110989700Y-92104100D02*
X110161300Y-91275700D01*
X110161300Y-91275700D02*
X110161300Y-90678000D01*
X112840000Y-81978500D02*
X114035300Y-81978500D01*
X114035300Y-81978500D02*
X117356600Y-85299800D01*
X117356600Y-85299800D02*
X117356600Y-87749900D01*
X117356600Y-87749900D02*
X114428500Y-90678000D01*
X114428500Y-90678000D02*
X111506000Y-90678000D01*
X110300000Y-81978500D02*
X108867000Y-80545500D01*
X108867000Y-80545500D02*
X107213800Y-80545500D01*
X107213800Y-80545500D02*
X106426000Y-81333300D01*
X106426000Y-81333300D02*
X106426000Y-90678000D01*
X151892000Y-91059000D02*
X151892000Y-82042000D01*
X149352000Y-91059000D02*
X149352000Y-82042000D01*
X146812000Y-91059000D02*
X146812000Y-82042000D01*
X138303000Y-90551000D02*
X138303000Y-82042000D01*
X135763000Y-90551000D02*
X135763000Y-82042000D01*
X133223000Y-90551000D02*
X133223000Y-82042000D01*
X107760000Y-81978500D02*
X108955300Y-81978500D01*
X116205000Y-87292000D02*
X113671100Y-87292000D01*
X113671100Y-87292000D02*
X108955300Y-82576200D01*
X108955300Y-82576200D02*
X108955300Y-81978500D01*
X123740000Y-98933000D02*
X122544700Y-98933000D01*
X115401000Y-98933000D02*
X116596300Y-98933000D01*
X116596300Y-98933000D02*
X118032000Y-97497300D01*
X118032000Y-97497300D02*
X122080200Y-97497300D01*
X122080200Y-97497300D02*
X122544700Y-97961800D01*
X122544700Y-97961800D02*
X122544700Y-98933000D01*
X132080000Y-98933000D02*
X130884700Y-98933000D01*
X123740000Y-98933000D02*
X124935300Y-98933000D01*
X124935300Y-98933000D02*
X126379700Y-97488600D01*
X126379700Y-97488600D02*
X130411500Y-97488600D01*
X130411500Y-97488600D02*
X130884700Y-97961800D01*
X130884700Y-97961800D02*
X130884700Y-98933000D01*
X104521000Y-98933000D02*
X105950300Y-97503700D01*
X105950300Y-97503700D02*
X111431700Y-97503700D01*
X111431700Y-97503700D02*
X112861000Y-98933000D01*
X121200000Y-98933000D02*
X122685700Y-100418700D01*
X122685700Y-100418700D02*
X128054300Y-100418700D01*
X128054300Y-100418700D02*
X129540000Y-98933000D01*
X112861000Y-98933000D02*
X114294100Y-100366100D01*
X114294100Y-100366100D02*
X119766900Y-100366100D01*
X119766900Y-100366100D02*
X121200000Y-98933000D01*
M02*
