G04 #@! TF.GenerationSoftware,KiCad,Pcbnew,(5.1.5-0-10_14)*
G04 #@! TF.CreationDate,2021-03-15T05:51:44+10:00*
G04 #@! TF.ProjectId,OH - Left Console - 14 - Auxiliary Power Unit Panel,4f48202d-204c-4656-9674-20436f6e736f,rev?*
G04 #@! TF.SameCoordinates,Original*
G04 #@! TF.FileFunction,Copper,L1,Top*
G04 #@! TF.FilePolarity,Positive*
%FSLAX46Y46*%
G04 Gerber Fmt 4.6, Leading zero omitted, Abs format (unit mm)*
G04 Created by KiCad (PCBNEW (5.1.5-0-10_14)) date 2021-03-15 05:51:44*
%MOMM*%
%LPD*%
G04 APERTURE LIST*
%ADD10O,1.740000X2.200000*%
%ADD11C,0.100000*%
%ADD12O,2.200000X2.200000*%
%ADD13R,2.200000X2.200000*%
%ADD14O,1.600000X1.600000*%
%ADD15R,1.600000X1.600000*%
G04 APERTURE END LIST*
D10*
X151765000Y-79375000D03*
G04 #@! TA.AperFunction,ComponentPad*
D11*
G36*
X149869505Y-78276204D02*
G01*
X149893773Y-78279804D01*
X149917572Y-78285765D01*
X149940671Y-78294030D01*
X149962850Y-78304520D01*
X149983893Y-78317132D01*
X150003599Y-78331747D01*
X150021777Y-78348223D01*
X150038253Y-78366401D01*
X150052868Y-78386107D01*
X150065480Y-78407150D01*
X150075970Y-78429329D01*
X150084235Y-78452428D01*
X150090196Y-78476227D01*
X150093796Y-78500495D01*
X150095000Y-78524999D01*
X150095000Y-80225001D01*
X150093796Y-80249505D01*
X150090196Y-80273773D01*
X150084235Y-80297572D01*
X150075970Y-80320671D01*
X150065480Y-80342850D01*
X150052868Y-80363893D01*
X150038253Y-80383599D01*
X150021777Y-80401777D01*
X150003599Y-80418253D01*
X149983893Y-80432868D01*
X149962850Y-80445480D01*
X149940671Y-80455970D01*
X149917572Y-80464235D01*
X149893773Y-80470196D01*
X149869505Y-80473796D01*
X149845001Y-80475000D01*
X148604999Y-80475000D01*
X148580495Y-80473796D01*
X148556227Y-80470196D01*
X148532428Y-80464235D01*
X148509329Y-80455970D01*
X148487150Y-80445480D01*
X148466107Y-80432868D01*
X148446401Y-80418253D01*
X148428223Y-80401777D01*
X148411747Y-80383599D01*
X148397132Y-80363893D01*
X148384520Y-80342850D01*
X148374030Y-80320671D01*
X148365765Y-80297572D01*
X148359804Y-80273773D01*
X148356204Y-80249505D01*
X148355000Y-80225001D01*
X148355000Y-78524999D01*
X148356204Y-78500495D01*
X148359804Y-78476227D01*
X148365765Y-78452428D01*
X148374030Y-78429329D01*
X148384520Y-78407150D01*
X148397132Y-78386107D01*
X148411747Y-78366401D01*
X148428223Y-78348223D01*
X148446401Y-78331747D01*
X148466107Y-78317132D01*
X148487150Y-78304520D01*
X148509329Y-78294030D01*
X148532428Y-78285765D01*
X148556227Y-78279804D01*
X148580495Y-78276204D01*
X148604999Y-78275000D01*
X149845001Y-78275000D01*
X149869505Y-78276204D01*
G37*
G04 #@! TD.AperFunction*
D10*
X165862000Y-65786000D03*
X163322000Y-65786000D03*
G04 #@! TA.AperFunction,ComponentPad*
D11*
G36*
X161426505Y-64687204D02*
G01*
X161450773Y-64690804D01*
X161474572Y-64696765D01*
X161497671Y-64705030D01*
X161519850Y-64715520D01*
X161540893Y-64728132D01*
X161560599Y-64742747D01*
X161578777Y-64759223D01*
X161595253Y-64777401D01*
X161609868Y-64797107D01*
X161622480Y-64818150D01*
X161632970Y-64840329D01*
X161641235Y-64863428D01*
X161647196Y-64887227D01*
X161650796Y-64911495D01*
X161652000Y-64935999D01*
X161652000Y-66636001D01*
X161650796Y-66660505D01*
X161647196Y-66684773D01*
X161641235Y-66708572D01*
X161632970Y-66731671D01*
X161622480Y-66753850D01*
X161609868Y-66774893D01*
X161595253Y-66794599D01*
X161578777Y-66812777D01*
X161560599Y-66829253D01*
X161540893Y-66843868D01*
X161519850Y-66856480D01*
X161497671Y-66866970D01*
X161474572Y-66875235D01*
X161450773Y-66881196D01*
X161426505Y-66884796D01*
X161402001Y-66886000D01*
X160161999Y-66886000D01*
X160137495Y-66884796D01*
X160113227Y-66881196D01*
X160089428Y-66875235D01*
X160066329Y-66866970D01*
X160044150Y-66856480D01*
X160023107Y-66843868D01*
X160003401Y-66829253D01*
X159985223Y-66812777D01*
X159968747Y-66794599D01*
X159954132Y-66774893D01*
X159941520Y-66753850D01*
X159931030Y-66731671D01*
X159922765Y-66708572D01*
X159916804Y-66684773D01*
X159913204Y-66660505D01*
X159912000Y-66636001D01*
X159912000Y-64935999D01*
X159913204Y-64911495D01*
X159916804Y-64887227D01*
X159922765Y-64863428D01*
X159931030Y-64840329D01*
X159941520Y-64818150D01*
X159954132Y-64797107D01*
X159968747Y-64777401D01*
X159985223Y-64759223D01*
X160003401Y-64742747D01*
X160023107Y-64728132D01*
X160044150Y-64715520D01*
X160066329Y-64705030D01*
X160089428Y-64696765D01*
X160113227Y-64690804D01*
X160137495Y-64687204D01*
X160161999Y-64686000D01*
X161402001Y-64686000D01*
X161426505Y-64687204D01*
G37*
G04 #@! TD.AperFunction*
D10*
X143637000Y-56515000D03*
G04 #@! TA.AperFunction,ComponentPad*
D11*
G36*
X141741505Y-55416204D02*
G01*
X141765773Y-55419804D01*
X141789572Y-55425765D01*
X141812671Y-55434030D01*
X141834850Y-55444520D01*
X141855893Y-55457132D01*
X141875599Y-55471747D01*
X141893777Y-55488223D01*
X141910253Y-55506401D01*
X141924868Y-55526107D01*
X141937480Y-55547150D01*
X141947970Y-55569329D01*
X141956235Y-55592428D01*
X141962196Y-55616227D01*
X141965796Y-55640495D01*
X141967000Y-55664999D01*
X141967000Y-57365001D01*
X141965796Y-57389505D01*
X141962196Y-57413773D01*
X141956235Y-57437572D01*
X141947970Y-57460671D01*
X141937480Y-57482850D01*
X141924868Y-57503893D01*
X141910253Y-57523599D01*
X141893777Y-57541777D01*
X141875599Y-57558253D01*
X141855893Y-57572868D01*
X141834850Y-57585480D01*
X141812671Y-57595970D01*
X141789572Y-57604235D01*
X141765773Y-57610196D01*
X141741505Y-57613796D01*
X141717001Y-57615000D01*
X140476999Y-57615000D01*
X140452495Y-57613796D01*
X140428227Y-57610196D01*
X140404428Y-57604235D01*
X140381329Y-57595970D01*
X140359150Y-57585480D01*
X140338107Y-57572868D01*
X140318401Y-57558253D01*
X140300223Y-57541777D01*
X140283747Y-57523599D01*
X140269132Y-57503893D01*
X140256520Y-57482850D01*
X140246030Y-57460671D01*
X140237765Y-57437572D01*
X140231804Y-57413773D01*
X140228204Y-57389505D01*
X140227000Y-57365001D01*
X140227000Y-55664999D01*
X140228204Y-55640495D01*
X140231804Y-55616227D01*
X140237765Y-55592428D01*
X140246030Y-55569329D01*
X140256520Y-55547150D01*
X140269132Y-55526107D01*
X140283747Y-55506401D01*
X140300223Y-55488223D01*
X140318401Y-55471747D01*
X140338107Y-55457132D01*
X140359150Y-55444520D01*
X140381329Y-55434030D01*
X140404428Y-55425765D01*
X140428227Y-55419804D01*
X140452495Y-55416204D01*
X140476999Y-55415000D01*
X141717001Y-55415000D01*
X141741505Y-55416204D01*
G37*
G04 #@! TD.AperFunction*
D10*
X169291000Y-48260000D03*
G04 #@! TA.AperFunction,ComponentPad*
D11*
G36*
X167395505Y-47161204D02*
G01*
X167419773Y-47164804D01*
X167443572Y-47170765D01*
X167466671Y-47179030D01*
X167488850Y-47189520D01*
X167509893Y-47202132D01*
X167529599Y-47216747D01*
X167547777Y-47233223D01*
X167564253Y-47251401D01*
X167578868Y-47271107D01*
X167591480Y-47292150D01*
X167601970Y-47314329D01*
X167610235Y-47337428D01*
X167616196Y-47361227D01*
X167619796Y-47385495D01*
X167621000Y-47409999D01*
X167621000Y-49110001D01*
X167619796Y-49134505D01*
X167616196Y-49158773D01*
X167610235Y-49182572D01*
X167601970Y-49205671D01*
X167591480Y-49227850D01*
X167578868Y-49248893D01*
X167564253Y-49268599D01*
X167547777Y-49286777D01*
X167529599Y-49303253D01*
X167509893Y-49317868D01*
X167488850Y-49330480D01*
X167466671Y-49340970D01*
X167443572Y-49349235D01*
X167419773Y-49355196D01*
X167395505Y-49358796D01*
X167371001Y-49360000D01*
X166130999Y-49360000D01*
X166106495Y-49358796D01*
X166082227Y-49355196D01*
X166058428Y-49349235D01*
X166035329Y-49340970D01*
X166013150Y-49330480D01*
X165992107Y-49317868D01*
X165972401Y-49303253D01*
X165954223Y-49286777D01*
X165937747Y-49268599D01*
X165923132Y-49248893D01*
X165910520Y-49227850D01*
X165900030Y-49205671D01*
X165891765Y-49182572D01*
X165885804Y-49158773D01*
X165882204Y-49134505D01*
X165881000Y-49110001D01*
X165881000Y-47409999D01*
X165882204Y-47385495D01*
X165885804Y-47361227D01*
X165891765Y-47337428D01*
X165900030Y-47314329D01*
X165910520Y-47292150D01*
X165923132Y-47271107D01*
X165937747Y-47251401D01*
X165954223Y-47233223D01*
X165972401Y-47216747D01*
X165992107Y-47202132D01*
X166013150Y-47189520D01*
X166035329Y-47179030D01*
X166058428Y-47170765D01*
X166082227Y-47164804D01*
X166106495Y-47161204D01*
X166130999Y-47160000D01*
X167371001Y-47160000D01*
X167395505Y-47161204D01*
G37*
G04 #@! TD.AperFunction*
D10*
X165354000Y-79756000D03*
X162814000Y-79756000D03*
X160274000Y-79756000D03*
G04 #@! TA.AperFunction,ComponentPad*
D11*
G36*
X158378505Y-78657204D02*
G01*
X158402773Y-78660804D01*
X158426572Y-78666765D01*
X158449671Y-78675030D01*
X158471850Y-78685520D01*
X158492893Y-78698132D01*
X158512599Y-78712747D01*
X158530777Y-78729223D01*
X158547253Y-78747401D01*
X158561868Y-78767107D01*
X158574480Y-78788150D01*
X158584970Y-78810329D01*
X158593235Y-78833428D01*
X158599196Y-78857227D01*
X158602796Y-78881495D01*
X158604000Y-78905999D01*
X158604000Y-80606001D01*
X158602796Y-80630505D01*
X158599196Y-80654773D01*
X158593235Y-80678572D01*
X158584970Y-80701671D01*
X158574480Y-80723850D01*
X158561868Y-80744893D01*
X158547253Y-80764599D01*
X158530777Y-80782777D01*
X158512599Y-80799253D01*
X158492893Y-80813868D01*
X158471850Y-80826480D01*
X158449671Y-80836970D01*
X158426572Y-80845235D01*
X158402773Y-80851196D01*
X158378505Y-80854796D01*
X158354001Y-80856000D01*
X157113999Y-80856000D01*
X157089495Y-80854796D01*
X157065227Y-80851196D01*
X157041428Y-80845235D01*
X157018329Y-80836970D01*
X156996150Y-80826480D01*
X156975107Y-80813868D01*
X156955401Y-80799253D01*
X156937223Y-80782777D01*
X156920747Y-80764599D01*
X156906132Y-80744893D01*
X156893520Y-80723850D01*
X156883030Y-80701671D01*
X156874765Y-80678572D01*
X156868804Y-80654773D01*
X156865204Y-80630505D01*
X156864000Y-80606001D01*
X156864000Y-78905999D01*
X156865204Y-78881495D01*
X156868804Y-78857227D01*
X156874765Y-78833428D01*
X156883030Y-78810329D01*
X156893520Y-78788150D01*
X156906132Y-78767107D01*
X156920747Y-78747401D01*
X156937223Y-78729223D01*
X156955401Y-78712747D01*
X156975107Y-78698132D01*
X156996150Y-78685520D01*
X157018329Y-78675030D01*
X157041428Y-78666765D01*
X157065227Y-78660804D01*
X157089495Y-78657204D01*
X157113999Y-78656000D01*
X158354001Y-78656000D01*
X158378505Y-78657204D01*
G37*
G04 #@! TD.AperFunction*
D10*
X156718000Y-65913000D03*
G04 #@! TA.AperFunction,ComponentPad*
D11*
G36*
X154822505Y-64814204D02*
G01*
X154846773Y-64817804D01*
X154870572Y-64823765D01*
X154893671Y-64832030D01*
X154915850Y-64842520D01*
X154936893Y-64855132D01*
X154956599Y-64869747D01*
X154974777Y-64886223D01*
X154991253Y-64904401D01*
X155005868Y-64924107D01*
X155018480Y-64945150D01*
X155028970Y-64967329D01*
X155037235Y-64990428D01*
X155043196Y-65014227D01*
X155046796Y-65038495D01*
X155048000Y-65062999D01*
X155048000Y-66763001D01*
X155046796Y-66787505D01*
X155043196Y-66811773D01*
X155037235Y-66835572D01*
X155028970Y-66858671D01*
X155018480Y-66880850D01*
X155005868Y-66901893D01*
X154991253Y-66921599D01*
X154974777Y-66939777D01*
X154956599Y-66956253D01*
X154936893Y-66970868D01*
X154915850Y-66983480D01*
X154893671Y-66993970D01*
X154870572Y-67002235D01*
X154846773Y-67008196D01*
X154822505Y-67011796D01*
X154798001Y-67013000D01*
X153557999Y-67013000D01*
X153533495Y-67011796D01*
X153509227Y-67008196D01*
X153485428Y-67002235D01*
X153462329Y-66993970D01*
X153440150Y-66983480D01*
X153419107Y-66970868D01*
X153399401Y-66956253D01*
X153381223Y-66939777D01*
X153364747Y-66921599D01*
X153350132Y-66901893D01*
X153337520Y-66880850D01*
X153327030Y-66858671D01*
X153318765Y-66835572D01*
X153312804Y-66811773D01*
X153309204Y-66787505D01*
X153308000Y-66763001D01*
X153308000Y-65062999D01*
X153309204Y-65038495D01*
X153312804Y-65014227D01*
X153318765Y-64990428D01*
X153327030Y-64967329D01*
X153337520Y-64945150D01*
X153350132Y-64924107D01*
X153364747Y-64904401D01*
X153381223Y-64886223D01*
X153399401Y-64869747D01*
X153419107Y-64855132D01*
X153440150Y-64842520D01*
X153462329Y-64832030D01*
X153485428Y-64823765D01*
X153509227Y-64817804D01*
X153533495Y-64814204D01*
X153557999Y-64813000D01*
X154798001Y-64813000D01*
X154822505Y-64814204D01*
G37*
G04 #@! TD.AperFunction*
D10*
X162179000Y-50800000D03*
X159639000Y-50800000D03*
X157099000Y-50800000D03*
G04 #@! TA.AperFunction,ComponentPad*
D11*
G36*
X155203505Y-49701204D02*
G01*
X155227773Y-49704804D01*
X155251572Y-49710765D01*
X155274671Y-49719030D01*
X155296850Y-49729520D01*
X155317893Y-49742132D01*
X155337599Y-49756747D01*
X155355777Y-49773223D01*
X155372253Y-49791401D01*
X155386868Y-49811107D01*
X155399480Y-49832150D01*
X155409970Y-49854329D01*
X155418235Y-49877428D01*
X155424196Y-49901227D01*
X155427796Y-49925495D01*
X155429000Y-49949999D01*
X155429000Y-51650001D01*
X155427796Y-51674505D01*
X155424196Y-51698773D01*
X155418235Y-51722572D01*
X155409970Y-51745671D01*
X155399480Y-51767850D01*
X155386868Y-51788893D01*
X155372253Y-51808599D01*
X155355777Y-51826777D01*
X155337599Y-51843253D01*
X155317893Y-51857868D01*
X155296850Y-51870480D01*
X155274671Y-51880970D01*
X155251572Y-51889235D01*
X155227773Y-51895196D01*
X155203505Y-51898796D01*
X155179001Y-51900000D01*
X153938999Y-51900000D01*
X153914495Y-51898796D01*
X153890227Y-51895196D01*
X153866428Y-51889235D01*
X153843329Y-51880970D01*
X153821150Y-51870480D01*
X153800107Y-51857868D01*
X153780401Y-51843253D01*
X153762223Y-51826777D01*
X153745747Y-51808599D01*
X153731132Y-51788893D01*
X153718520Y-51767850D01*
X153708030Y-51745671D01*
X153699765Y-51722572D01*
X153693804Y-51698773D01*
X153690204Y-51674505D01*
X153689000Y-51650001D01*
X153689000Y-49949999D01*
X153690204Y-49925495D01*
X153693804Y-49901227D01*
X153699765Y-49877428D01*
X153708030Y-49854329D01*
X153718520Y-49832150D01*
X153731132Y-49811107D01*
X153745747Y-49791401D01*
X153762223Y-49773223D01*
X153780401Y-49756747D01*
X153800107Y-49742132D01*
X153821150Y-49729520D01*
X153843329Y-49719030D01*
X153866428Y-49710765D01*
X153890227Y-49704804D01*
X153914495Y-49701204D01*
X153938999Y-49700000D01*
X155179001Y-49700000D01*
X155203505Y-49701204D01*
G37*
G04 #@! TD.AperFunction*
D12*
X149352000Y-58166000D03*
D13*
X149352000Y-48006000D03*
D10*
X148971000Y-65786000D03*
G04 #@! TA.AperFunction,ComponentPad*
D11*
G36*
X147075505Y-64687204D02*
G01*
X147099773Y-64690804D01*
X147123572Y-64696765D01*
X147146671Y-64705030D01*
X147168850Y-64715520D01*
X147189893Y-64728132D01*
X147209599Y-64742747D01*
X147227777Y-64759223D01*
X147244253Y-64777401D01*
X147258868Y-64797107D01*
X147271480Y-64818150D01*
X147281970Y-64840329D01*
X147290235Y-64863428D01*
X147296196Y-64887227D01*
X147299796Y-64911495D01*
X147301000Y-64935999D01*
X147301000Y-66636001D01*
X147299796Y-66660505D01*
X147296196Y-66684773D01*
X147290235Y-66708572D01*
X147281970Y-66731671D01*
X147271480Y-66753850D01*
X147258868Y-66774893D01*
X147244253Y-66794599D01*
X147227777Y-66812777D01*
X147209599Y-66829253D01*
X147189893Y-66843868D01*
X147168850Y-66856480D01*
X147146671Y-66866970D01*
X147123572Y-66875235D01*
X147099773Y-66881196D01*
X147075505Y-66884796D01*
X147051001Y-66886000D01*
X145810999Y-66886000D01*
X145786495Y-66884796D01*
X145762227Y-66881196D01*
X145738428Y-66875235D01*
X145715329Y-66866970D01*
X145693150Y-66856480D01*
X145672107Y-66843868D01*
X145652401Y-66829253D01*
X145634223Y-66812777D01*
X145617747Y-66794599D01*
X145603132Y-66774893D01*
X145590520Y-66753850D01*
X145580030Y-66731671D01*
X145571765Y-66708572D01*
X145565804Y-66684773D01*
X145562204Y-66660505D01*
X145561000Y-66636001D01*
X145561000Y-64935999D01*
X145562204Y-64911495D01*
X145565804Y-64887227D01*
X145571765Y-64863428D01*
X145580030Y-64840329D01*
X145590520Y-64818150D01*
X145603132Y-64797107D01*
X145617747Y-64777401D01*
X145634223Y-64759223D01*
X145652401Y-64742747D01*
X145672107Y-64728132D01*
X145693150Y-64715520D01*
X145715329Y-64705030D01*
X145738428Y-64696765D01*
X145762227Y-64690804D01*
X145786495Y-64687204D01*
X145810999Y-64686000D01*
X147051001Y-64686000D01*
X147075505Y-64687204D01*
G37*
G04 #@! TD.AperFunction*
D14*
X140970000Y-74930000D03*
D15*
X140970000Y-67310000D03*
D14*
X153162000Y-72898000D03*
D15*
X145542000Y-72898000D03*
D12*
X164973000Y-59055000D03*
D13*
X154813000Y-59055000D03*
M02*
