G04 #@! TF.GenerationSoftware,KiCad,Pcbnew,(5.1.5-0-10_14)*
G04 #@! TF.CreationDate,2021-04-18T15:00:39+10:00*
G04 #@! TF.ProjectId,OH - Right Console - 6 - KY-58 Control,4f48202d-2052-4696-9768-7420436f6e73,rev?*
G04 #@! TF.SameCoordinates,Original*
G04 #@! TF.FileFunction,Legend,Top*
G04 #@! TF.FilePolarity,Positive*
%FSLAX46Y46*%
G04 Gerber Fmt 4.6, Leading zero omitted, Abs format (unit mm)*
G04 Created by KiCad (PCBNEW (5.1.5-0-10_14)) date 2021-04-18 15:00:39*
%MOMM*%
%LPD*%
G04 APERTURE LIST*
%ADD10C,0.150000*%
%ADD11C,0.120000*%
G04 APERTURE END LIST*
D10*
X119435523Y-95226142D02*
X119387904Y-95273761D01*
X119245047Y-95321380D01*
X119149809Y-95321380D01*
X119006952Y-95273761D01*
X118911714Y-95178523D01*
X118864095Y-95083285D01*
X118816476Y-94892809D01*
X118816476Y-94749952D01*
X118864095Y-94559476D01*
X118911714Y-94464238D01*
X119006952Y-94369000D01*
X119149809Y-94321380D01*
X119245047Y-94321380D01*
X119387904Y-94369000D01*
X119435523Y-94416619D01*
X105592523Y-116435142D02*
X105544904Y-116482761D01*
X105402047Y-116530380D01*
X105306809Y-116530380D01*
X105163952Y-116482761D01*
X105068714Y-116387523D01*
X105021095Y-116292285D01*
X104973476Y-116101809D01*
X104973476Y-115958952D01*
X105021095Y-115768476D01*
X105068714Y-115673238D01*
X105163952Y-115578000D01*
X105306809Y-115530380D01*
X105402047Y-115530380D01*
X105544904Y-115578000D01*
X105592523Y-115625619D01*
X132651523Y-115530380D02*
X132175333Y-115530380D01*
X132127714Y-116006571D01*
X132175333Y-115958952D01*
X132270571Y-115911333D01*
X132508666Y-115911333D01*
X132603904Y-115958952D01*
X132651523Y-116006571D01*
X132699142Y-116101809D01*
X132699142Y-116339904D01*
X132651523Y-116435142D01*
X132603904Y-116482761D01*
X132508666Y-116530380D01*
X132270571Y-116530380D01*
X132175333Y-116482761D01*
X132127714Y-116435142D01*
X132984857Y-115530380D02*
X133318190Y-116530380D01*
X133651523Y-115530380D01*
X137541095Y-115578000D02*
X137445857Y-115530380D01*
X137303000Y-115530380D01*
X137160142Y-115578000D01*
X137064904Y-115673238D01*
X137017285Y-115768476D01*
X136969666Y-115958952D01*
X136969666Y-116101809D01*
X137017285Y-116292285D01*
X137064904Y-116387523D01*
X137160142Y-116482761D01*
X137303000Y-116530380D01*
X137398238Y-116530380D01*
X137541095Y-116482761D01*
X137588714Y-116435142D01*
X137588714Y-116101809D01*
X137398238Y-116101809D01*
X138017285Y-116530380D02*
X138017285Y-115530380D01*
X138588714Y-116530380D01*
X138588714Y-115530380D01*
X139064904Y-116530380D02*
X139064904Y-115530380D01*
X139303000Y-115530380D01*
X139445857Y-115578000D01*
X139541095Y-115673238D01*
X139588714Y-115768476D01*
X139636333Y-115958952D01*
X139636333Y-116101809D01*
X139588714Y-116292285D01*
X139541095Y-116387523D01*
X139445857Y-116482761D01*
X139303000Y-116530380D01*
X139064904Y-116530380D01*
X134120095Y-115530380D02*
X134453428Y-116530380D01*
X134786761Y-115530380D01*
X135310571Y-115530380D02*
X135501047Y-115530380D01*
X135596285Y-115578000D01*
X135691523Y-115673238D01*
X135739142Y-115863714D01*
X135739142Y-116197047D01*
X135691523Y-116387523D01*
X135596285Y-116482761D01*
X135501047Y-116530380D01*
X135310571Y-116530380D01*
X135215333Y-116482761D01*
X135120095Y-116387523D01*
X135072476Y-116197047D01*
X135072476Y-115863714D01*
X135120095Y-115673238D01*
X135215333Y-115578000D01*
X135310571Y-115530380D01*
X136643904Y-116530380D02*
X136167714Y-116530380D01*
X136167714Y-115530380D01*
X116332095Y-115705000D02*
X116236857Y-115657380D01*
X116094000Y-115657380D01*
X115951142Y-115705000D01*
X115855904Y-115800238D01*
X115808285Y-115895476D01*
X115760666Y-116085952D01*
X115760666Y-116228809D01*
X115808285Y-116419285D01*
X115855904Y-116514523D01*
X115951142Y-116609761D01*
X116094000Y-116657380D01*
X116189238Y-116657380D01*
X116332095Y-116609761D01*
X116379714Y-116562142D01*
X116379714Y-116228809D01*
X116189238Y-116228809D01*
X116808285Y-116657380D02*
X116808285Y-115657380D01*
X117379714Y-116657380D01*
X117379714Y-115657380D01*
X117855904Y-116657380D02*
X117855904Y-115657380D01*
X118094000Y-115657380D01*
X118236857Y-115705000D01*
X118332095Y-115800238D01*
X118379714Y-115895476D01*
X118427333Y-116085952D01*
X118427333Y-116228809D01*
X118379714Y-116419285D01*
X118332095Y-116514523D01*
X118236857Y-116609761D01*
X118094000Y-116657380D01*
X117855904Y-116657380D01*
X112911095Y-115657380D02*
X113244428Y-116657380D01*
X113577761Y-115657380D01*
X114101571Y-115657380D02*
X114292047Y-115657380D01*
X114387285Y-115705000D01*
X114482523Y-115800238D01*
X114530142Y-115990714D01*
X114530142Y-116324047D01*
X114482523Y-116514523D01*
X114387285Y-116609761D01*
X114292047Y-116657380D01*
X114101571Y-116657380D01*
X114006333Y-116609761D01*
X113911095Y-116514523D01*
X113863476Y-116324047D01*
X113863476Y-115990714D01*
X113911095Y-115800238D01*
X114006333Y-115705000D01*
X114101571Y-115657380D01*
X115434904Y-116657380D02*
X114958714Y-116657380D01*
X114958714Y-115657380D01*
X111442523Y-115657380D02*
X110966333Y-115657380D01*
X110918714Y-116133571D01*
X110966333Y-116085952D01*
X111061571Y-116038333D01*
X111299666Y-116038333D01*
X111394904Y-116085952D01*
X111442523Y-116133571D01*
X111490142Y-116228809D01*
X111490142Y-116466904D01*
X111442523Y-116562142D01*
X111394904Y-116609761D01*
X111299666Y-116657380D01*
X111061571Y-116657380D01*
X110966333Y-116609761D01*
X110918714Y-116562142D01*
X111775857Y-115657380D02*
X112109190Y-116657380D01*
X112442523Y-115657380D01*
X113950761Y-94876952D02*
X113855523Y-94829333D01*
X113807904Y-94781714D01*
X113760285Y-94686476D01*
X113760285Y-94638857D01*
X113807904Y-94543619D01*
X113855523Y-94496000D01*
X113950761Y-94448380D01*
X114141238Y-94448380D01*
X114236476Y-94496000D01*
X114284095Y-94543619D01*
X114331714Y-94638857D01*
X114331714Y-94686476D01*
X114284095Y-94781714D01*
X114236476Y-94829333D01*
X114141238Y-94876952D01*
X113950761Y-94876952D01*
X113855523Y-94924571D01*
X113807904Y-94972190D01*
X113760285Y-95067428D01*
X113760285Y-95257904D01*
X113807904Y-95353142D01*
X113855523Y-95400761D01*
X113950761Y-95448380D01*
X114141238Y-95448380D01*
X114236476Y-95400761D01*
X114284095Y-95353142D01*
X114331714Y-95257904D01*
X114331714Y-95067428D01*
X114284095Y-94972190D01*
X114236476Y-94924571D01*
X114141238Y-94876952D01*
X111172666Y-94448380D02*
X111839333Y-94448380D01*
X111410761Y-95448380D01*
X109156476Y-94448380D02*
X108966000Y-94448380D01*
X108870761Y-94496000D01*
X108823142Y-94543619D01*
X108727904Y-94686476D01*
X108680285Y-94876952D01*
X108680285Y-95257904D01*
X108727904Y-95353142D01*
X108775523Y-95400761D01*
X108870761Y-95448380D01*
X109061238Y-95448380D01*
X109156476Y-95400761D01*
X109204095Y-95353142D01*
X109251714Y-95257904D01*
X109251714Y-95019809D01*
X109204095Y-94924571D01*
X109156476Y-94876952D01*
X109061238Y-94829333D01*
X108870761Y-94829333D01*
X108775523Y-94876952D01*
X108727904Y-94924571D01*
X108680285Y-95019809D01*
X106791095Y-94448380D02*
X106314904Y-94448380D01*
X106267285Y-94924571D01*
X106314904Y-94876952D01*
X106410142Y-94829333D01*
X106648238Y-94829333D01*
X106743476Y-94876952D01*
X106791095Y-94924571D01*
X106838714Y-95019809D01*
X106838714Y-95257904D01*
X106791095Y-95353142D01*
X106743476Y-95400761D01*
X106648238Y-95448380D01*
X106410142Y-95448380D01*
X106314904Y-95400761D01*
X106267285Y-95353142D01*
X104076476Y-94781714D02*
X104076476Y-95448380D01*
X103838380Y-94400761D02*
X103600285Y-95115047D01*
X104219333Y-95115047D01*
X101012666Y-94448380D02*
X101631714Y-94448380D01*
X101298380Y-94829333D01*
X101441238Y-94829333D01*
X101536476Y-94876952D01*
X101584095Y-94924571D01*
X101631714Y-95019809D01*
X101631714Y-95257904D01*
X101584095Y-95353142D01*
X101536476Y-95400761D01*
X101441238Y-95448380D01*
X101155523Y-95448380D01*
X101060285Y-95400761D01*
X101012666Y-95353142D01*
X98647285Y-94543619D02*
X98694904Y-94496000D01*
X98790142Y-94448380D01*
X99028238Y-94448380D01*
X99123476Y-94496000D01*
X99171095Y-94543619D01*
X99218714Y-94638857D01*
X99218714Y-94734095D01*
X99171095Y-94876952D01*
X98599666Y-95448380D01*
X99218714Y-95448380D01*
X96805714Y-95448380D02*
X96234285Y-95448380D01*
X96520000Y-95448380D02*
X96520000Y-94448380D01*
X96424761Y-94591238D01*
X96329523Y-94686476D01*
X96234285Y-94734095D01*
X101139666Y-122642380D02*
X101758714Y-122642380D01*
X101425380Y-123023333D01*
X101568238Y-123023333D01*
X101663476Y-123070952D01*
X101711095Y-123118571D01*
X101758714Y-123213809D01*
X101758714Y-123451904D01*
X101711095Y-123547142D01*
X101663476Y-123594761D01*
X101568238Y-123642380D01*
X101282523Y-123642380D01*
X101187285Y-123594761D01*
X101139666Y-123547142D01*
X98647285Y-122737619D02*
X98694904Y-122690000D01*
X98790142Y-122642380D01*
X99028238Y-122642380D01*
X99123476Y-122690000D01*
X99171095Y-122737619D01*
X99218714Y-122832857D01*
X99218714Y-122928095D01*
X99171095Y-123070952D01*
X98599666Y-123642380D01*
X99218714Y-123642380D01*
X96805714Y-123642380D02*
X96234285Y-123642380D01*
X96520000Y-123642380D02*
X96520000Y-122642380D01*
X96424761Y-122785238D01*
X96329523Y-122880476D01*
X96234285Y-122928095D01*
X104322523Y-123547142D02*
X104274904Y-123594761D01*
X104132047Y-123642380D01*
X104036809Y-123642380D01*
X103893952Y-123594761D01*
X103798714Y-123499523D01*
X103751095Y-123404285D01*
X103703476Y-123213809D01*
X103703476Y-123070952D01*
X103751095Y-122880476D01*
X103798714Y-122785238D01*
X103893952Y-122690000D01*
X104036809Y-122642380D01*
X104132047Y-122642380D01*
X104274904Y-122690000D01*
X104322523Y-122737619D01*
X119943523Y-99671142D02*
X119895904Y-99718761D01*
X119753047Y-99766380D01*
X119657809Y-99766380D01*
X119514952Y-99718761D01*
X119419714Y-99623523D01*
X119372095Y-99528285D01*
X119324476Y-99337809D01*
X119324476Y-99194952D01*
X119372095Y-99004476D01*
X119419714Y-98909238D01*
X119514952Y-98814000D01*
X119657809Y-98766380D01*
X119753047Y-98766380D01*
X119895904Y-98814000D01*
X119943523Y-98861619D01*
X121269333Y-122213714D02*
X121507428Y-122880380D01*
X121745523Y-122213714D01*
X122316952Y-121880380D02*
X122412190Y-121880380D01*
X122507428Y-121928000D01*
X122555047Y-121975619D01*
X122602666Y-122070857D01*
X122650285Y-122261333D01*
X122650285Y-122499428D01*
X122602666Y-122689904D01*
X122555047Y-122785142D01*
X122507428Y-122832761D01*
X122412190Y-122880380D01*
X122316952Y-122880380D01*
X122221714Y-122832761D01*
X122174095Y-122785142D01*
X122126476Y-122689904D01*
X122078857Y-122499428D01*
X122078857Y-122261333D01*
X122126476Y-122070857D01*
X122174095Y-121975619D01*
X122221714Y-121928000D01*
X122316952Y-121880380D01*
X123269333Y-121880380D02*
X123364571Y-121880380D01*
X123459809Y-121928000D01*
X123507428Y-121975619D01*
X123555047Y-122070857D01*
X123602666Y-122261333D01*
X123602666Y-122499428D01*
X123555047Y-122689904D01*
X123507428Y-122785142D01*
X123459809Y-122832761D01*
X123364571Y-122880380D01*
X123269333Y-122880380D01*
X123174095Y-122832761D01*
X123126476Y-122785142D01*
X123078857Y-122689904D01*
X123031238Y-122499428D01*
X123031238Y-122261333D01*
X123078857Y-122070857D01*
X123126476Y-121975619D01*
X123174095Y-121928000D01*
X123269333Y-121880380D01*
X124555047Y-122880380D02*
X123983619Y-122880380D01*
X124269333Y-122880380D02*
X124269333Y-121880380D01*
X124174095Y-122023238D01*
X124078857Y-122118476D01*
X123983619Y-122166095D01*
X119904285Y-120284761D02*
X119904285Y-118284761D01*
X121047142Y-120284761D02*
X120190000Y-119141904D01*
X121047142Y-118284761D02*
X119904285Y-119427619D01*
X122285238Y-119332380D02*
X122285238Y-120284761D01*
X121618571Y-118284761D02*
X122285238Y-119332380D01*
X122951904Y-118284761D01*
X124570952Y-118284761D02*
X123618571Y-118284761D01*
X123523333Y-119237142D01*
X123618571Y-119141904D01*
X123809047Y-119046666D01*
X124285238Y-119046666D01*
X124475714Y-119141904D01*
X124570952Y-119237142D01*
X124666190Y-119427619D01*
X124666190Y-119903809D01*
X124570952Y-120094285D01*
X124475714Y-120189523D01*
X124285238Y-120284761D01*
X123809047Y-120284761D01*
X123618571Y-120189523D01*
X123523333Y-120094285D01*
X125809047Y-119141904D02*
X125618571Y-119046666D01*
X125523333Y-118951428D01*
X125428095Y-118760952D01*
X125428095Y-118665714D01*
X125523333Y-118475238D01*
X125618571Y-118380000D01*
X125809047Y-118284761D01*
X126190000Y-118284761D01*
X126380476Y-118380000D01*
X126475714Y-118475238D01*
X126570952Y-118665714D01*
X126570952Y-118760952D01*
X126475714Y-118951428D01*
X126380476Y-119046666D01*
X126190000Y-119141904D01*
X125809047Y-119141904D01*
X125618571Y-119237142D01*
X125523333Y-119332380D01*
X125428095Y-119522857D01*
X125428095Y-119903809D01*
X125523333Y-120094285D01*
X125618571Y-120189523D01*
X125809047Y-120284761D01*
X126190000Y-120284761D01*
X126380476Y-120189523D01*
X126475714Y-120094285D01*
X126570952Y-119903809D01*
X126570952Y-119522857D01*
X126475714Y-119332380D01*
X126380476Y-119237142D01*
X126190000Y-119141904D01*
D11*
X120053000Y-96630000D02*
X120053000Y-96030000D01*
X118453000Y-96630000D02*
X120053000Y-96630000D01*
X118453000Y-96030000D02*
X118453000Y-96630000D01*
X117513000Y-96630000D02*
X117513000Y-96030000D01*
X115913000Y-96630000D02*
X117513000Y-96630000D01*
X115913000Y-96030000D02*
X115913000Y-96630000D01*
X114973000Y-96630000D02*
X114973000Y-96030000D01*
X113373000Y-96630000D02*
X114973000Y-96630000D01*
X113373000Y-96030000D02*
X113373000Y-96630000D01*
X112433000Y-96630000D02*
X112433000Y-96030000D01*
X110833000Y-96630000D02*
X112433000Y-96630000D01*
X110833000Y-96030000D02*
X110833000Y-96630000D01*
X109893000Y-96630000D02*
X109893000Y-96030000D01*
X108293000Y-96630000D02*
X109893000Y-96630000D01*
X108293000Y-96030000D02*
X108293000Y-96630000D01*
X107353000Y-96630000D02*
X107353000Y-96030000D01*
X105753000Y-96630000D02*
X107353000Y-96630000D01*
X105753000Y-96030000D02*
X105753000Y-96630000D01*
X104813000Y-96630000D02*
X104813000Y-96030000D01*
X103213000Y-96630000D02*
X104813000Y-96630000D01*
X103213000Y-96030000D02*
X103213000Y-96630000D01*
X102273000Y-96630000D02*
X102273000Y-96030000D01*
X100673000Y-96630000D02*
X102273000Y-96630000D01*
X100673000Y-96030000D02*
X100673000Y-96630000D01*
X99733000Y-96630000D02*
X99733000Y-96030000D01*
X98133000Y-96630000D02*
X99733000Y-96630000D01*
X98133000Y-96030000D02*
X98133000Y-96630000D01*
X97193000Y-96630000D02*
X97193000Y-96030000D01*
X95593000Y-96630000D02*
X97193000Y-96630000D01*
X95593000Y-96030000D02*
X95593000Y-96630000D01*
X119003000Y-102050000D02*
X119003000Y-101050000D01*
X114173000Y-100520000D02*
X114173000Y-101050000D01*
X119003000Y-100520000D02*
X114173000Y-100520000D01*
X119253000Y-101050000D02*
X119003000Y-100520000D01*
X114173000Y-101050000D02*
X114173000Y-102050000D01*
X119253000Y-101050000D02*
X114173000Y-101050000D01*
X119253000Y-102050000D02*
X119253000Y-101050000D01*
X96643000Y-102050000D02*
X96643000Y-101050000D01*
X101473000Y-100520000D02*
X101473000Y-101050000D01*
X96643000Y-100520000D02*
X101473000Y-100520000D01*
X96393000Y-101050000D02*
X96643000Y-100520000D01*
X101473000Y-101050000D02*
X101473000Y-102050000D01*
X96393000Y-101050000D02*
X101473000Y-101050000D01*
X96393000Y-102050000D02*
X96393000Y-101050000D01*
X94723000Y-97060000D02*
X94723000Y-101060000D01*
X120633000Y-96030000D02*
X95013000Y-96030000D01*
X120633000Y-102050000D02*
X120633000Y-96030000D01*
X95013000Y-102050000D02*
X120633000Y-102050000D01*
X95013000Y-96030000D02*
X95013000Y-102050000D01*
X105956000Y-117966000D02*
X105956000Y-117366000D01*
X104356000Y-117966000D02*
X105956000Y-117966000D01*
X104356000Y-117366000D02*
X104356000Y-117966000D01*
X103416000Y-117966000D02*
X103416000Y-117366000D01*
X101816000Y-117966000D02*
X103416000Y-117966000D01*
X101816000Y-117366000D02*
X101816000Y-117966000D01*
X100876000Y-117966000D02*
X100876000Y-117366000D01*
X99276000Y-117966000D02*
X100876000Y-117966000D01*
X99276000Y-117366000D02*
X99276000Y-117966000D01*
X98336000Y-117966000D02*
X98336000Y-117366000D01*
X96736000Y-117966000D02*
X98336000Y-117966000D01*
X96736000Y-117366000D02*
X96736000Y-117966000D01*
X104906000Y-123386000D02*
X104906000Y-122386000D01*
X97786000Y-123386000D02*
X97786000Y-122386000D01*
X104906000Y-121856000D02*
X105156000Y-122386000D01*
X97786000Y-121856000D02*
X104906000Y-121856000D01*
X97536000Y-122386000D02*
X97786000Y-121856000D01*
X105156000Y-122386000D02*
X105156000Y-123386000D01*
X97536000Y-122386000D02*
X105156000Y-122386000D01*
X97536000Y-123386000D02*
X97536000Y-122386000D01*
X95866000Y-118396000D02*
X95866000Y-122396000D01*
X106536000Y-117366000D02*
X96156000Y-117366000D01*
X106536000Y-123386000D02*
X106536000Y-117366000D01*
X96156000Y-123386000D02*
X106536000Y-123386000D01*
X96156000Y-117366000D02*
X96156000Y-123386000D01*
X138087000Y-96757000D02*
X138087000Y-96157000D01*
X136487000Y-96757000D02*
X138087000Y-96757000D01*
X136487000Y-96157000D02*
X136487000Y-96757000D01*
X135547000Y-96757000D02*
X135547000Y-96157000D01*
X133947000Y-96757000D02*
X135547000Y-96757000D01*
X133947000Y-96157000D02*
X133947000Y-96757000D01*
X133007000Y-96757000D02*
X133007000Y-96157000D01*
X131407000Y-96757000D02*
X133007000Y-96757000D01*
X131407000Y-96157000D02*
X131407000Y-96757000D01*
X130467000Y-96757000D02*
X130467000Y-96157000D01*
X128867000Y-96757000D02*
X130467000Y-96757000D01*
X128867000Y-96157000D02*
X128867000Y-96757000D01*
X127927000Y-96757000D02*
X127927000Y-96157000D01*
X126327000Y-96757000D02*
X127927000Y-96757000D01*
X126327000Y-96157000D02*
X126327000Y-96757000D01*
X125387000Y-96757000D02*
X125387000Y-96157000D01*
X123787000Y-96757000D02*
X125387000Y-96757000D01*
X123787000Y-96157000D02*
X123787000Y-96757000D01*
X137037000Y-102177000D02*
X137037000Y-101177000D01*
X124837000Y-102177000D02*
X124837000Y-101177000D01*
X137037000Y-100647000D02*
X137287000Y-101177000D01*
X124837000Y-100647000D02*
X137037000Y-100647000D01*
X124587000Y-101177000D02*
X124837000Y-100647000D01*
X137287000Y-101177000D02*
X137287000Y-102177000D01*
X124587000Y-101177000D02*
X137287000Y-101177000D01*
X124587000Y-102177000D02*
X124587000Y-101177000D01*
X122917000Y-97187000D02*
X122917000Y-101187000D01*
X138667000Y-96157000D02*
X123207000Y-96157000D01*
X138667000Y-102177000D02*
X138667000Y-96157000D01*
X123207000Y-102177000D02*
X138667000Y-102177000D01*
X123207000Y-96157000D02*
X123207000Y-102177000D01*
X138976000Y-117966000D02*
X138976000Y-117366000D01*
X137376000Y-117966000D02*
X138976000Y-117966000D01*
X137376000Y-117366000D02*
X137376000Y-117966000D01*
X136436000Y-117966000D02*
X136436000Y-117366000D01*
X134836000Y-117966000D02*
X136436000Y-117966000D01*
X134836000Y-117366000D02*
X134836000Y-117966000D01*
X133896000Y-117966000D02*
X133896000Y-117366000D01*
X132296000Y-117966000D02*
X133896000Y-117966000D01*
X132296000Y-117366000D02*
X132296000Y-117966000D01*
X137926000Y-123386000D02*
X137926000Y-122386000D01*
X133346000Y-123386000D02*
X133346000Y-122386000D01*
X137926000Y-121856000D02*
X138176000Y-122386000D01*
X133346000Y-121856000D02*
X137926000Y-121856000D01*
X133096000Y-122386000D02*
X133346000Y-121856000D01*
X138176000Y-122386000D02*
X138176000Y-123386000D01*
X133096000Y-122386000D02*
X138176000Y-122386000D01*
X133096000Y-123386000D02*
X133096000Y-122386000D01*
X131426000Y-118396000D02*
X131426000Y-122396000D01*
X139556000Y-117366000D02*
X131716000Y-117366000D01*
X139556000Y-123386000D02*
X139556000Y-117366000D01*
X131716000Y-123386000D02*
X139556000Y-123386000D01*
X131716000Y-117366000D02*
X131716000Y-123386000D01*
X121196000Y-106409000D02*
X121196000Y-105809000D01*
X119596000Y-106409000D02*
X121196000Y-106409000D01*
X119596000Y-105809000D02*
X119596000Y-106409000D01*
X118656000Y-106409000D02*
X118656000Y-105809000D01*
X117056000Y-106409000D02*
X118656000Y-106409000D01*
X117056000Y-105809000D02*
X117056000Y-106409000D01*
X116116000Y-106409000D02*
X116116000Y-105809000D01*
X114516000Y-106409000D02*
X116116000Y-106409000D01*
X114516000Y-105809000D02*
X114516000Y-106409000D01*
X113576000Y-106409000D02*
X113576000Y-105809000D01*
X111976000Y-106409000D02*
X113576000Y-106409000D01*
X111976000Y-105809000D02*
X111976000Y-106409000D01*
X111036000Y-106409000D02*
X111036000Y-105809000D01*
X109436000Y-106409000D02*
X111036000Y-106409000D01*
X109436000Y-105809000D02*
X109436000Y-106409000D01*
X108496000Y-106409000D02*
X108496000Y-105809000D01*
X106896000Y-106409000D02*
X108496000Y-106409000D01*
X106896000Y-105809000D02*
X106896000Y-106409000D01*
X105956000Y-106409000D02*
X105956000Y-105809000D01*
X104356000Y-106409000D02*
X105956000Y-106409000D01*
X104356000Y-105809000D02*
X104356000Y-106409000D01*
X103416000Y-106409000D02*
X103416000Y-105809000D01*
X101816000Y-106409000D02*
X103416000Y-106409000D01*
X101816000Y-105809000D02*
X101816000Y-106409000D01*
X100876000Y-106409000D02*
X100876000Y-105809000D01*
X99276000Y-106409000D02*
X100876000Y-106409000D01*
X99276000Y-105809000D02*
X99276000Y-106409000D01*
X98336000Y-106409000D02*
X98336000Y-105809000D01*
X96736000Y-106409000D02*
X98336000Y-106409000D01*
X96736000Y-105809000D02*
X96736000Y-106409000D01*
X120146000Y-111829000D02*
X120146000Y-110829000D01*
X115316000Y-110299000D02*
X115316000Y-110829000D01*
X120146000Y-110299000D02*
X115316000Y-110299000D01*
X120396000Y-110829000D02*
X120146000Y-110299000D01*
X115316000Y-110829000D02*
X115316000Y-111829000D01*
X120396000Y-110829000D02*
X115316000Y-110829000D01*
X120396000Y-111829000D02*
X120396000Y-110829000D01*
X97786000Y-111829000D02*
X97786000Y-110829000D01*
X102616000Y-110299000D02*
X102616000Y-110829000D01*
X97786000Y-110299000D02*
X102616000Y-110299000D01*
X97536000Y-110829000D02*
X97786000Y-110299000D01*
X102616000Y-110829000D02*
X102616000Y-111829000D01*
X97536000Y-110829000D02*
X102616000Y-110829000D01*
X97536000Y-111829000D02*
X97536000Y-110829000D01*
X95866000Y-106839000D02*
X95866000Y-110839000D01*
X121776000Y-105809000D02*
X96156000Y-105809000D01*
X121776000Y-111829000D02*
X121776000Y-105809000D01*
X96156000Y-111829000D02*
X121776000Y-111829000D01*
X96156000Y-105809000D02*
X96156000Y-111829000D01*
X117513000Y-117966000D02*
X117513000Y-117366000D01*
X115913000Y-117966000D02*
X117513000Y-117966000D01*
X115913000Y-117366000D02*
X115913000Y-117966000D01*
X114973000Y-117966000D02*
X114973000Y-117366000D01*
X113373000Y-117966000D02*
X114973000Y-117966000D01*
X113373000Y-117366000D02*
X113373000Y-117966000D01*
X112433000Y-117966000D02*
X112433000Y-117366000D01*
X110833000Y-117966000D02*
X112433000Y-117966000D01*
X110833000Y-117366000D02*
X110833000Y-117966000D01*
X116463000Y-123386000D02*
X116463000Y-122386000D01*
X111883000Y-123386000D02*
X111883000Y-122386000D01*
X116463000Y-121856000D02*
X116713000Y-122386000D01*
X111883000Y-121856000D02*
X116463000Y-121856000D01*
X111633000Y-122386000D02*
X111883000Y-121856000D01*
X116713000Y-122386000D02*
X116713000Y-123386000D01*
X111633000Y-122386000D02*
X116713000Y-122386000D01*
X111633000Y-123386000D02*
X111633000Y-122386000D01*
X109963000Y-118396000D02*
X109963000Y-122396000D01*
X118093000Y-117366000D02*
X110253000Y-117366000D01*
X118093000Y-123386000D02*
X118093000Y-117366000D01*
X110253000Y-123386000D02*
X118093000Y-123386000D01*
X110253000Y-117366000D02*
X110253000Y-123386000D01*
X143421000Y-106536000D02*
X143421000Y-105936000D01*
X141821000Y-106536000D02*
X143421000Y-106536000D01*
X141821000Y-105936000D02*
X141821000Y-106536000D01*
X140881000Y-106536000D02*
X140881000Y-105936000D01*
X139281000Y-106536000D02*
X140881000Y-106536000D01*
X139281000Y-105936000D02*
X139281000Y-106536000D01*
X142371000Y-111956000D02*
X142371000Y-110956000D01*
X140331000Y-111956000D02*
X140331000Y-110956000D01*
X142371000Y-110426000D02*
X142621000Y-110956000D01*
X140331000Y-110426000D02*
X142371000Y-110426000D01*
X140081000Y-110956000D02*
X140331000Y-110426000D01*
X142621000Y-110956000D02*
X142621000Y-111956000D01*
X140081000Y-110956000D02*
X142621000Y-110956000D01*
X140081000Y-111956000D02*
X140081000Y-110956000D01*
X138411000Y-106966000D02*
X138411000Y-110966000D01*
X144001000Y-105936000D02*
X138701000Y-105936000D01*
X144001000Y-111956000D02*
X144001000Y-105936000D01*
X138701000Y-111956000D02*
X144001000Y-111956000D01*
X138701000Y-105936000D02*
X138701000Y-111956000D01*
X129390000Y-108335000D02*
X127150000Y-108335000D01*
X129390000Y-108575000D02*
X127150000Y-108575000D01*
X129390000Y-108455000D02*
X127150000Y-108455000D01*
X128270000Y-112625000D02*
X128270000Y-111975000D01*
X128270000Y-107085000D02*
X128270000Y-107735000D01*
X129390000Y-111975000D02*
X129390000Y-107735000D01*
X127150000Y-111975000D02*
X129390000Y-111975000D01*
X127150000Y-107735000D02*
X127150000Y-111975000D01*
X129390000Y-107735000D02*
X127150000Y-107735000D01*
X90782000Y-109732000D02*
X88542000Y-109732000D01*
X90782000Y-109972000D02*
X88542000Y-109972000D01*
X90782000Y-109852000D02*
X88542000Y-109852000D01*
X89662000Y-114022000D02*
X89662000Y-113372000D01*
X89662000Y-108482000D02*
X89662000Y-109132000D01*
X90782000Y-113372000D02*
X90782000Y-109132000D01*
X88542000Y-113372000D02*
X90782000Y-113372000D01*
X88542000Y-109132000D02*
X88542000Y-113372000D01*
X90782000Y-109132000D02*
X88542000Y-109132000D01*
X133962000Y-108208000D02*
X131722000Y-108208000D01*
X133962000Y-108448000D02*
X131722000Y-108448000D01*
X133962000Y-108328000D02*
X131722000Y-108328000D01*
X132842000Y-112498000D02*
X132842000Y-111848000D01*
X132842000Y-106958000D02*
X132842000Y-107608000D01*
X133962000Y-111848000D02*
X133962000Y-107608000D01*
X131722000Y-111848000D02*
X133962000Y-111848000D01*
X131722000Y-107608000D02*
X131722000Y-111848000D01*
X133962000Y-107608000D02*
X131722000Y-107608000D01*
D10*
X91122666Y-99337761D02*
X91265523Y-99385380D01*
X91503619Y-99385380D01*
X91598857Y-99337761D01*
X91646476Y-99290142D01*
X91694095Y-99194904D01*
X91694095Y-99099666D01*
X91646476Y-99004428D01*
X91598857Y-98956809D01*
X91503619Y-98909190D01*
X91313142Y-98861571D01*
X91217904Y-98813952D01*
X91170285Y-98766333D01*
X91122666Y-98671095D01*
X91122666Y-98575857D01*
X91170285Y-98480619D01*
X91217904Y-98433000D01*
X91313142Y-98385380D01*
X91551238Y-98385380D01*
X91694095Y-98433000D01*
X92027428Y-98385380D02*
X92265523Y-99385380D01*
X92456000Y-98671095D01*
X92646476Y-99385380D01*
X92884571Y-98385380D01*
X93170285Y-98385380D02*
X93789333Y-98385380D01*
X93456000Y-98766333D01*
X93598857Y-98766333D01*
X93694095Y-98813952D01*
X93741714Y-98861571D01*
X93789333Y-98956809D01*
X93789333Y-99194904D01*
X93741714Y-99290142D01*
X93694095Y-99337761D01*
X93598857Y-99385380D01*
X93313142Y-99385380D01*
X93217904Y-99337761D01*
X93170285Y-99290142D01*
X103989666Y-102592380D02*
X104561095Y-102592380D01*
X104275380Y-103592380D02*
X104275380Y-102592380D01*
X105084904Y-102592380D02*
X105275380Y-102592380D01*
X105370619Y-102640000D01*
X105465857Y-102735238D01*
X105513476Y-102925714D01*
X105513476Y-103259047D01*
X105465857Y-103449523D01*
X105370619Y-103544761D01*
X105275380Y-103592380D01*
X105084904Y-103592380D01*
X104989666Y-103544761D01*
X104894428Y-103449523D01*
X104846809Y-103259047D01*
X104846809Y-102925714D01*
X104894428Y-102735238D01*
X104989666Y-102640000D01*
X105084904Y-102592380D01*
X105942047Y-103592380D02*
X105942047Y-102592380D01*
X106323000Y-102592380D01*
X106418238Y-102640000D01*
X106465857Y-102687619D01*
X106513476Y-102782857D01*
X106513476Y-102925714D01*
X106465857Y-103020952D01*
X106418238Y-103068571D01*
X106323000Y-103116190D01*
X105942047Y-103116190D01*
X108275380Y-103592380D02*
X107942047Y-103116190D01*
X107703952Y-103592380D02*
X107703952Y-102592380D01*
X108084904Y-102592380D01*
X108180142Y-102640000D01*
X108227761Y-102687619D01*
X108275380Y-102782857D01*
X108275380Y-102925714D01*
X108227761Y-103020952D01*
X108180142Y-103068571D01*
X108084904Y-103116190D01*
X107703952Y-103116190D01*
X108703952Y-103592380D02*
X108703952Y-102592380D01*
X109703952Y-102640000D02*
X109608714Y-102592380D01*
X109465857Y-102592380D01*
X109323000Y-102640000D01*
X109227761Y-102735238D01*
X109180142Y-102830476D01*
X109132523Y-103020952D01*
X109132523Y-103163809D01*
X109180142Y-103354285D01*
X109227761Y-103449523D01*
X109323000Y-103544761D01*
X109465857Y-103592380D01*
X109561095Y-103592380D01*
X109703952Y-103544761D01*
X109751571Y-103497142D01*
X109751571Y-103163809D01*
X109561095Y-103163809D01*
X110180142Y-103592380D02*
X110180142Y-102592380D01*
X110180142Y-103068571D02*
X110751571Y-103068571D01*
X110751571Y-103592380D02*
X110751571Y-102592380D01*
X111084904Y-102592380D02*
X111656333Y-102592380D01*
X111370619Y-103592380D02*
X111370619Y-102592380D01*
X92265666Y-120673761D02*
X92408523Y-120721380D01*
X92646619Y-120721380D01*
X92741857Y-120673761D01*
X92789476Y-120626142D01*
X92837095Y-120530904D01*
X92837095Y-120435666D01*
X92789476Y-120340428D01*
X92741857Y-120292809D01*
X92646619Y-120245190D01*
X92456142Y-120197571D01*
X92360904Y-120149952D01*
X92313285Y-120102333D01*
X92265666Y-120007095D01*
X92265666Y-119911857D01*
X92313285Y-119816619D01*
X92360904Y-119769000D01*
X92456142Y-119721380D01*
X92694238Y-119721380D01*
X92837095Y-119769000D01*
X93170428Y-119721380D02*
X93408523Y-120721380D01*
X93599000Y-120007095D01*
X93789476Y-120721380D01*
X94027571Y-119721380D01*
X94360904Y-119816619D02*
X94408523Y-119769000D01*
X94503761Y-119721380D01*
X94741857Y-119721380D01*
X94837095Y-119769000D01*
X94884714Y-119816619D01*
X94932333Y-119911857D01*
X94932333Y-120007095D01*
X94884714Y-120149952D01*
X94313285Y-120721380D01*
X94932333Y-120721380D01*
X100560285Y-123928380D02*
X101131714Y-123928380D01*
X100846000Y-124928380D02*
X100846000Y-123928380D01*
X101465047Y-124928380D02*
X101465047Y-123928380D01*
X101703142Y-123928380D01*
X101846000Y-123976000D01*
X101941238Y-124071238D01*
X101988857Y-124166476D01*
X102036476Y-124356952D01*
X102036476Y-124499809D01*
X101988857Y-124690285D01*
X101941238Y-124785523D01*
X101846000Y-124880761D01*
X101703142Y-124928380D01*
X101465047Y-124928380D01*
X129603666Y-95471761D02*
X129746523Y-95519380D01*
X129984619Y-95519380D01*
X130079857Y-95471761D01*
X130127476Y-95424142D01*
X130175095Y-95328904D01*
X130175095Y-95233666D01*
X130127476Y-95138428D01*
X130079857Y-95090809D01*
X129984619Y-95043190D01*
X129794142Y-94995571D01*
X129698904Y-94947952D01*
X129651285Y-94900333D01*
X129603666Y-94805095D01*
X129603666Y-94709857D01*
X129651285Y-94614619D01*
X129698904Y-94567000D01*
X129794142Y-94519380D01*
X130032238Y-94519380D01*
X130175095Y-94567000D01*
X130508428Y-94519380D02*
X130746523Y-95519380D01*
X130937000Y-94805095D01*
X131127476Y-95519380D01*
X131365571Y-94519380D01*
X132270333Y-95519380D02*
X131698904Y-95519380D01*
X131984619Y-95519380D02*
X131984619Y-94519380D01*
X131889380Y-94662238D01*
X131794142Y-94757476D01*
X131698904Y-94805095D01*
X129127476Y-103719380D02*
X129127476Y-102719380D01*
X129460809Y-103433666D01*
X129794142Y-102719380D01*
X129794142Y-103719380D01*
X130460809Y-102719380D02*
X130651285Y-102719380D01*
X130746523Y-102767000D01*
X130841761Y-102862238D01*
X130889380Y-103052714D01*
X130889380Y-103386047D01*
X130841761Y-103576523D01*
X130746523Y-103671761D01*
X130651285Y-103719380D01*
X130460809Y-103719380D01*
X130365571Y-103671761D01*
X130270333Y-103576523D01*
X130222714Y-103386047D01*
X130222714Y-103052714D01*
X130270333Y-102862238D01*
X130365571Y-102767000D01*
X130460809Y-102719380D01*
X131317952Y-103719380D02*
X131317952Y-102719380D01*
X131556047Y-102719380D01*
X131698904Y-102767000D01*
X131794142Y-102862238D01*
X131841761Y-102957476D01*
X131889380Y-103147952D01*
X131889380Y-103290809D01*
X131841761Y-103481285D01*
X131794142Y-103576523D01*
X131698904Y-103671761D01*
X131556047Y-103719380D01*
X131317952Y-103719380D01*
X132317952Y-103195571D02*
X132651285Y-103195571D01*
X132794142Y-103719380D02*
X132317952Y-103719380D01*
X132317952Y-102719380D01*
X132794142Y-102719380D01*
X128817761Y-120975380D02*
X128484428Y-120499190D01*
X128246333Y-120975380D02*
X128246333Y-119975380D01*
X128627285Y-119975380D01*
X128722523Y-120023000D01*
X128770142Y-120070619D01*
X128817761Y-120165857D01*
X128817761Y-120308714D01*
X128770142Y-120403952D01*
X128722523Y-120451571D01*
X128627285Y-120499190D01*
X128246333Y-120499190D01*
X129103476Y-119975380D02*
X129436809Y-120975380D01*
X129770142Y-119975380D01*
X130627285Y-120975380D02*
X130055857Y-120975380D01*
X130341571Y-120975380D02*
X130341571Y-119975380D01*
X130246333Y-120118238D01*
X130151095Y-120213476D01*
X130055857Y-120261095D01*
X133040761Y-123928380D02*
X133374095Y-124928380D01*
X133707428Y-123928380D01*
X134183619Y-124928380D02*
X134088380Y-124880761D01*
X134040761Y-124833142D01*
X133993142Y-124737904D01*
X133993142Y-124452190D01*
X134040761Y-124356952D01*
X134088380Y-124309333D01*
X134183619Y-124261714D01*
X134326476Y-124261714D01*
X134421714Y-124309333D01*
X134469333Y-124356952D01*
X134516952Y-124452190D01*
X134516952Y-124737904D01*
X134469333Y-124833142D01*
X134421714Y-124880761D01*
X134326476Y-124928380D01*
X134183619Y-124928380D01*
X135088380Y-124928380D02*
X134993142Y-124880761D01*
X134945523Y-124785523D01*
X134945523Y-123928380D01*
X135897904Y-124261714D02*
X135897904Y-124928380D01*
X135469333Y-124261714D02*
X135469333Y-124785523D01*
X135516952Y-124880761D01*
X135612190Y-124928380D01*
X135755047Y-124928380D01*
X135850285Y-124880761D01*
X135897904Y-124833142D01*
X136374095Y-124928380D02*
X136374095Y-124261714D01*
X136374095Y-124356952D02*
X136421714Y-124309333D01*
X136516952Y-124261714D01*
X136659809Y-124261714D01*
X136755047Y-124309333D01*
X136802666Y-124404571D01*
X136802666Y-124928380D01*
X136802666Y-124404571D02*
X136850285Y-124309333D01*
X136945523Y-124261714D01*
X137088380Y-124261714D01*
X137183619Y-124309333D01*
X137231238Y-124404571D01*
X137231238Y-124928380D01*
X138088380Y-124880761D02*
X137993142Y-124928380D01*
X137802666Y-124928380D01*
X137707428Y-124880761D01*
X137659809Y-124785523D01*
X137659809Y-124404571D01*
X137707428Y-124309333D01*
X137802666Y-124261714D01*
X137993142Y-124261714D01*
X138088380Y-124309333D01*
X138136000Y-124404571D01*
X138136000Y-124499809D01*
X137659809Y-124595047D01*
X94281666Y-107910380D02*
X94281666Y-108624666D01*
X94234047Y-108767523D01*
X94138809Y-108862761D01*
X93995952Y-108910380D01*
X93900714Y-108910380D01*
X94662619Y-107910380D02*
X95281666Y-107910380D01*
X94948333Y-108291333D01*
X95091190Y-108291333D01*
X95186428Y-108338952D01*
X95234047Y-108386571D01*
X95281666Y-108481809D01*
X95281666Y-108719904D01*
X95234047Y-108815142D01*
X95186428Y-108862761D01*
X95091190Y-108910380D01*
X94805476Y-108910380D01*
X94710238Y-108862761D01*
X94662619Y-108815142D01*
X105061238Y-113371380D02*
X105061238Y-112371380D01*
X105537428Y-112704714D02*
X105537428Y-113371380D01*
X105537428Y-112799952D02*
X105585047Y-112752333D01*
X105680285Y-112704714D01*
X105823142Y-112704714D01*
X105918380Y-112752333D01*
X105966000Y-112847571D01*
X105966000Y-113371380D01*
X106442190Y-112704714D02*
X106442190Y-113704714D01*
X106442190Y-112752333D02*
X106537428Y-112704714D01*
X106727904Y-112704714D01*
X106823142Y-112752333D01*
X106870761Y-112799952D01*
X106918380Y-112895190D01*
X106918380Y-113180904D01*
X106870761Y-113276142D01*
X106823142Y-113323761D01*
X106727904Y-113371380D01*
X106537428Y-113371380D01*
X106442190Y-113323761D01*
X107775523Y-112704714D02*
X107775523Y-113371380D01*
X107346952Y-112704714D02*
X107346952Y-113228523D01*
X107394571Y-113323761D01*
X107489809Y-113371380D01*
X107632666Y-113371380D01*
X107727904Y-113323761D01*
X107775523Y-113276142D01*
X108108857Y-112704714D02*
X108489809Y-112704714D01*
X108251714Y-112371380D02*
X108251714Y-113228523D01*
X108299333Y-113323761D01*
X108394571Y-113371380D01*
X108489809Y-113371380D01*
X110156476Y-113371380D02*
X109823142Y-112895190D01*
X109585047Y-113371380D02*
X109585047Y-112371380D01*
X109966000Y-112371380D01*
X110061238Y-112419000D01*
X110108857Y-112466619D01*
X110156476Y-112561857D01*
X110156476Y-112704714D01*
X110108857Y-112799952D01*
X110061238Y-112847571D01*
X109966000Y-112895190D01*
X109585047Y-112895190D01*
X110727904Y-113371380D02*
X110632666Y-113323761D01*
X110585047Y-113276142D01*
X110537428Y-113180904D01*
X110537428Y-112895190D01*
X110585047Y-112799952D01*
X110632666Y-112752333D01*
X110727904Y-112704714D01*
X110870761Y-112704714D01*
X110966000Y-112752333D01*
X111013619Y-112799952D01*
X111061238Y-112895190D01*
X111061238Y-113180904D01*
X111013619Y-113276142D01*
X110966000Y-113323761D01*
X110870761Y-113371380D01*
X110727904Y-113371380D01*
X111394571Y-112704714D02*
X111585047Y-113371380D01*
X111775523Y-112895190D01*
X111966000Y-113371380D01*
X112156476Y-112704714D01*
X112489809Y-113323761D02*
X112585047Y-113371380D01*
X112775523Y-113371380D01*
X112870761Y-113323761D01*
X112918380Y-113228523D01*
X112918380Y-113180904D01*
X112870761Y-113085666D01*
X112775523Y-113038047D01*
X112632666Y-113038047D01*
X112537428Y-112990428D01*
X112489809Y-112895190D01*
X112489809Y-112847571D01*
X112537428Y-112752333D01*
X112632666Y-112704714D01*
X112775523Y-112704714D01*
X112870761Y-112752333D01*
X108124666Y-119594380D02*
X108124666Y-120308666D01*
X108077047Y-120451523D01*
X107981809Y-120546761D01*
X107838952Y-120594380D01*
X107743714Y-120594380D01*
X108553238Y-119689619D02*
X108600857Y-119642000D01*
X108696095Y-119594380D01*
X108934190Y-119594380D01*
X109029428Y-119642000D01*
X109077047Y-119689619D01*
X109124666Y-119784857D01*
X109124666Y-119880095D01*
X109077047Y-120022952D01*
X108505619Y-120594380D01*
X109124666Y-120594380D01*
X109649190Y-124928380D02*
X109649190Y-123928380D01*
X110220619Y-124928380D02*
X109792047Y-124356952D01*
X110220619Y-123928380D02*
X109649190Y-124499809D01*
X110839666Y-124452190D02*
X110839666Y-124928380D01*
X110506333Y-123928380D02*
X110839666Y-124452190D01*
X111173000Y-123928380D01*
X111982523Y-123928380D02*
X111506333Y-123928380D01*
X111458714Y-124404571D01*
X111506333Y-124356952D01*
X111601571Y-124309333D01*
X111839666Y-124309333D01*
X111934904Y-124356952D01*
X111982523Y-124404571D01*
X112030142Y-124499809D01*
X112030142Y-124737904D01*
X111982523Y-124833142D01*
X111934904Y-124880761D01*
X111839666Y-124928380D01*
X111601571Y-124928380D01*
X111506333Y-124880761D01*
X111458714Y-124833142D01*
X112601571Y-124356952D02*
X112506333Y-124309333D01*
X112458714Y-124261714D01*
X112411095Y-124166476D01*
X112411095Y-124118857D01*
X112458714Y-124023619D01*
X112506333Y-123976000D01*
X112601571Y-123928380D01*
X112792047Y-123928380D01*
X112887285Y-123976000D01*
X112934904Y-124023619D01*
X112982523Y-124118857D01*
X112982523Y-124166476D01*
X112934904Y-124261714D01*
X112887285Y-124309333D01*
X112792047Y-124356952D01*
X112601571Y-124356952D01*
X112506333Y-124404571D01*
X112458714Y-124452190D01*
X112411095Y-124547428D01*
X112411095Y-124737904D01*
X112458714Y-124833142D01*
X112506333Y-124880761D01*
X112601571Y-124928380D01*
X112792047Y-124928380D01*
X112887285Y-124880761D01*
X112934904Y-124833142D01*
X112982523Y-124737904D01*
X112982523Y-124547428D01*
X112934904Y-124452190D01*
X112887285Y-124404571D01*
X112792047Y-124356952D01*
X113173000Y-125023619D02*
X113934904Y-125023619D01*
X114125380Y-124642666D02*
X114601571Y-124642666D01*
X114030142Y-124928380D02*
X114363476Y-123928380D01*
X114696809Y-124928380D01*
X115030142Y-124261714D02*
X115030142Y-124928380D01*
X115030142Y-124356952D02*
X115077761Y-124309333D01*
X115173000Y-124261714D01*
X115315857Y-124261714D01*
X115411095Y-124309333D01*
X115458714Y-124404571D01*
X115458714Y-124928380D01*
X116363476Y-124928380D02*
X116363476Y-124404571D01*
X116315857Y-124309333D01*
X116220619Y-124261714D01*
X116030142Y-124261714D01*
X115934904Y-124309333D01*
X116363476Y-124880761D02*
X116268238Y-124928380D01*
X116030142Y-124928380D01*
X115934904Y-124880761D01*
X115887285Y-124785523D01*
X115887285Y-124690285D01*
X115934904Y-124595047D01*
X116030142Y-124547428D01*
X116268238Y-124547428D01*
X116363476Y-124499809D01*
X116982523Y-124928380D02*
X116887285Y-124880761D01*
X116839666Y-124785523D01*
X116839666Y-123928380D01*
X117506333Y-124928380D02*
X117411095Y-124880761D01*
X117363476Y-124833142D01*
X117315857Y-124737904D01*
X117315857Y-124452190D01*
X117363476Y-124356952D01*
X117411095Y-124309333D01*
X117506333Y-124261714D01*
X117649190Y-124261714D01*
X117744428Y-124309333D01*
X117792047Y-124356952D01*
X117839666Y-124452190D01*
X117839666Y-124737904D01*
X117792047Y-124833142D01*
X117744428Y-124880761D01*
X117649190Y-124928380D01*
X117506333Y-124928380D01*
X118696809Y-124261714D02*
X118696809Y-125071238D01*
X118649190Y-125166476D01*
X118601571Y-125214095D01*
X118506333Y-125261714D01*
X118363476Y-125261714D01*
X118268238Y-125214095D01*
X118696809Y-124880761D02*
X118601571Y-124928380D01*
X118411095Y-124928380D01*
X118315857Y-124880761D01*
X118268238Y-124833142D01*
X118220619Y-124737904D01*
X118220619Y-124452190D01*
X118268238Y-124356952D01*
X118315857Y-124309333D01*
X118411095Y-124261714D01*
X118601571Y-124261714D01*
X118696809Y-124309333D01*
X141017666Y-104298380D02*
X141017666Y-105012666D01*
X140970047Y-105155523D01*
X140874809Y-105250761D01*
X140731952Y-105298380D01*
X140636714Y-105298380D01*
X142017666Y-105298380D02*
X141446238Y-105298380D01*
X141731952Y-105298380D02*
X141731952Y-104298380D01*
X141636714Y-104441238D01*
X141541476Y-104536476D01*
X141446238Y-104584095D01*
X136136714Y-113498380D02*
X136136714Y-112498380D01*
X136612904Y-112831714D02*
X136612904Y-113498380D01*
X136612904Y-112926952D02*
X136660523Y-112879333D01*
X136755761Y-112831714D01*
X136898619Y-112831714D01*
X136993857Y-112879333D01*
X137041476Y-112974571D01*
X137041476Y-113498380D01*
X137517666Y-112831714D02*
X137517666Y-113831714D01*
X137517666Y-112879333D02*
X137612904Y-112831714D01*
X137803380Y-112831714D01*
X137898619Y-112879333D01*
X137946238Y-112926952D01*
X137993857Y-113022190D01*
X137993857Y-113307904D01*
X137946238Y-113403142D01*
X137898619Y-113450761D01*
X137803380Y-113498380D01*
X137612904Y-113498380D01*
X137517666Y-113450761D01*
X138851000Y-112831714D02*
X138851000Y-113498380D01*
X138422428Y-112831714D02*
X138422428Y-113355523D01*
X138470047Y-113450761D01*
X138565285Y-113498380D01*
X138708142Y-113498380D01*
X138803380Y-113450761D01*
X138851000Y-113403142D01*
X139184333Y-112831714D02*
X139565285Y-112831714D01*
X139327190Y-112498380D02*
X139327190Y-113355523D01*
X139374809Y-113450761D01*
X139470047Y-113498380D01*
X139565285Y-113498380D01*
X141231952Y-113403142D02*
X141184333Y-113450761D01*
X141041476Y-113498380D01*
X140946238Y-113498380D01*
X140803380Y-113450761D01*
X140708142Y-113355523D01*
X140660523Y-113260285D01*
X140612904Y-113069809D01*
X140612904Y-112926952D01*
X140660523Y-112736476D01*
X140708142Y-112641238D01*
X140803380Y-112546000D01*
X140946238Y-112498380D01*
X141041476Y-112498380D01*
X141184333Y-112546000D01*
X141231952Y-112593619D01*
X141803380Y-113498380D02*
X141708142Y-113450761D01*
X141660523Y-113403142D01*
X141612904Y-113307904D01*
X141612904Y-113022190D01*
X141660523Y-112926952D01*
X141708142Y-112879333D01*
X141803380Y-112831714D01*
X141946238Y-112831714D01*
X142041476Y-112879333D01*
X142089095Y-112926952D01*
X142136714Y-113022190D01*
X142136714Y-113307904D01*
X142089095Y-113403142D01*
X142041476Y-113450761D01*
X141946238Y-113498380D01*
X141803380Y-113498380D01*
X142708142Y-113498380D02*
X142612904Y-113450761D01*
X142565285Y-113355523D01*
X142565285Y-112498380D01*
X143517666Y-112831714D02*
X143517666Y-113498380D01*
X143089095Y-112831714D02*
X143089095Y-113355523D01*
X143136714Y-113450761D01*
X143231952Y-113498380D01*
X143374809Y-113498380D01*
X143470047Y-113450761D01*
X143517666Y-113403142D01*
X143993857Y-113498380D02*
X143993857Y-112831714D01*
X143993857Y-112926952D02*
X144041476Y-112879333D01*
X144136714Y-112831714D01*
X144279571Y-112831714D01*
X144374809Y-112879333D01*
X144422428Y-112974571D01*
X144422428Y-113498380D01*
X144422428Y-112974571D02*
X144470047Y-112879333D01*
X144565285Y-112831714D01*
X144708142Y-112831714D01*
X144803380Y-112879333D01*
X144851000Y-112974571D01*
X144851000Y-113498380D01*
X145327190Y-112831714D02*
X145327190Y-113498380D01*
X145327190Y-112926952D02*
X145374809Y-112879333D01*
X145470047Y-112831714D01*
X145612904Y-112831714D01*
X145708142Y-112879333D01*
X145755761Y-112974571D01*
X145755761Y-113498380D01*
X146184333Y-113450761D02*
X146279571Y-113498380D01*
X146470047Y-113498380D01*
X146565285Y-113450761D01*
X146612904Y-113355523D01*
X146612904Y-113307904D01*
X146565285Y-113212666D01*
X146470047Y-113165047D01*
X146327190Y-113165047D01*
X146231952Y-113117428D01*
X146184333Y-113022190D01*
X146184333Y-112974571D01*
X146231952Y-112879333D01*
X146327190Y-112831714D01*
X146470047Y-112831714D01*
X146565285Y-112879333D01*
X130842380Y-110593095D02*
X129842380Y-110593095D01*
X129842380Y-110355000D01*
X129890000Y-110212142D01*
X129985238Y-110116904D01*
X130080476Y-110069285D01*
X130270952Y-110021666D01*
X130413809Y-110021666D01*
X130604285Y-110069285D01*
X130699523Y-110116904D01*
X130794761Y-110212142D01*
X130842380Y-110355000D01*
X130842380Y-110593095D01*
X129842380Y-109688333D02*
X129842380Y-109069285D01*
X130223333Y-109402619D01*
X130223333Y-109259761D01*
X130270952Y-109164523D01*
X130318571Y-109116904D01*
X130413809Y-109069285D01*
X130651904Y-109069285D01*
X130747142Y-109116904D01*
X130794761Y-109164523D01*
X130842380Y-109259761D01*
X130842380Y-109545476D01*
X130794761Y-109640714D01*
X130747142Y-109688333D01*
X130522380Y-106306904D02*
X129522380Y-106306904D01*
X130522380Y-105735476D02*
X129950952Y-106164047D01*
X129522380Y-105735476D02*
X130093809Y-106306904D01*
X92234380Y-111990095D02*
X91234380Y-111990095D01*
X91234380Y-111752000D01*
X91282000Y-111609142D01*
X91377238Y-111513904D01*
X91472476Y-111466285D01*
X91662952Y-111418666D01*
X91805809Y-111418666D01*
X91996285Y-111466285D01*
X92091523Y-111513904D01*
X92186761Y-111609142D01*
X92234380Y-111752000D01*
X92234380Y-111990095D01*
X91329619Y-111037714D02*
X91282000Y-110990095D01*
X91234380Y-110894857D01*
X91234380Y-110656761D01*
X91282000Y-110561523D01*
X91329619Y-110513904D01*
X91424857Y-110466285D01*
X91520095Y-110466285D01*
X91662952Y-110513904D01*
X92234380Y-111085333D01*
X92234380Y-110466285D01*
X91914380Y-107703904D02*
X90914380Y-107703904D01*
X91914380Y-107132476D02*
X91342952Y-107561047D01*
X90914380Y-107132476D02*
X91485809Y-107703904D01*
X135414380Y-110466095D02*
X134414380Y-110466095D01*
X134414380Y-110228000D01*
X134462000Y-110085142D01*
X134557238Y-109989904D01*
X134652476Y-109942285D01*
X134842952Y-109894666D01*
X134985809Y-109894666D01*
X135176285Y-109942285D01*
X135271523Y-109989904D01*
X135366761Y-110085142D01*
X135414380Y-110228000D01*
X135414380Y-110466095D01*
X135414380Y-108942285D02*
X135414380Y-109513714D01*
X135414380Y-109228000D02*
X134414380Y-109228000D01*
X134557238Y-109323238D01*
X134652476Y-109418476D01*
X134700095Y-109513714D01*
X135094380Y-106179904D02*
X134094380Y-106179904D01*
X135094380Y-105608476D02*
X134522952Y-106037047D01*
X134094380Y-105608476D02*
X134665809Y-106179904D01*
M02*
