<?xml version="1.0" standalone="no"?>
 <!DOCTYPE svg PUBLIC "-//W3C//DTD SVG 1.1//EN" 
 "http://www.w3.org/Graphics/SVG/1.1/DTD/svg11.dtd"> 
<svg xmlns="http://www.w3.org/2000/svg" version="1.1" 
    width="29.7002cm" height="21.0007cm" viewBox="0 0 116930 82680 ">
<title>SVG Picture created as UFC-F_SilkS.svg date 2020/08/15 09:02:41 </title>
  <desc>Picture generated by PCBNEW </desc>
<g style="fill:#000000; fill-opacity:1;stroke:#000000; stroke-opacity:1;
stroke-linecap:round; stroke-linejoin:round; "
 transform="translate(0 0) scale(1 1)">
</g>
<g style="fill:#000000; fill-opacity:0.0; 
stroke:#000000; stroke-width:-0.000393701; stroke-opacity:1; 
stroke-linecap:round; stroke-linejoin:round;">
</g>
<g style="fill:#000000; fill-opacity:0.0; 
stroke:#000000; stroke-width:59.0551; stroke-opacity:1; 
stroke-linecap:round; stroke-linejoin:round;">
<text x="66200" y="51596.9"
textLength="564.211" font-size="524.934" lengthAdjust="spacingAndGlyphs"
text-anchor="middle" opacity="0">+</text>
<path d="M66050 51428
L66349 51428
" />
<path d="M66200 51578
L66200 51278
" />
<text x="66200" y="53496.9"
textLength="564.211" font-size="524.934" lengthAdjust="spacingAndGlyphs"
text-anchor="middle" opacity="0">+</text>
<path d="M66050 53328
L66349 53328
" />
<path d="M66200 53478
L66200 53178
" />
<text x="48600" y="41896.9"
textLength="2945.16" font-size="524.934" lengthAdjust="spacingAndGlyphs"
text-anchor="middle" opacity="0">UFC v001</text>
<path d="M47259 41484
L47259 41803
L47278 41840
L47297 41859
L47334 41878
L47409 41878
L47447 41859
L47465 41840
L47484 41803
L47484 41484
" />
<path d="M47803 41671
L47671 41671
" />
<path d="M47671 41878
L47671 41484
L47859 41484
" />
<path d="M48234 41840
L48215 41859
L48159 41878
L48121 41878
L48065 41859
L48028 41821
L48009 41784
L47990 41709
L47990 41653
L48009 41578
L48028 41540
L48065 41503
L48121 41484
L48159 41484
L48215 41503
L48234 41521
" />
<path d="M48665 41615
L48759 41878
L48853 41615
" />
<path d="M49078 41484
L49115 41484
L49153 41503
L49171 41521
L49190 41559
L49209 41634
L49209 41728
L49190 41803
L49171 41840
L49153 41859
L49115 41878
L49078 41878
L49040 41859
L49021 41840
L49003 41803
L48984 41728
L48984 41634
L49003 41559
L49021 41521
L49040 41503
L49078 41484
" />
<path d="M49453 41484
L49490 41484
L49528 41503
L49546 41521
L49565 41559
L49584 41634
L49584 41728
L49565 41803
L49546 41840
L49528 41859
L49490 41878
L49453 41878
L49415 41859
L49396 41840
L49378 41803
L49359 41728
L49359 41634
L49378 41559
L49396 41521
L49415 41503
L49453 41484
" />
<path d="M49959 41878
L49734 41878
" />
<path d="M49846 41878
L49846 41484
L49809 41540
L49771 41578
L49734 41596
" />
<text x="49000" y="28996.9"
textLength="1201.63" font-size="524.934" lengthAdjust="spacingAndGlyphs"
text-anchor="middle" opacity="0">470</text>
<path d="M48700 28715
L48700 28978
" />
<path d="M48606 28565
L48512 28846
L48756 28846
" />
<path d="M48868 28584
L49131 28584
L48962 28978
" />
<path d="M49356 28584
L49393 28584
L49431 28603
L49449 28621
L49468 28659
L49487 28734
L49487 28828
L49468 28903
L49449 28940
L49431 28959
L49393 28978
L49356 28978
L49318 28959
L49299 28940
L49281 28903
L49262 28828
L49262 28734
L49281 28659
L49299 28621
L49318 28603
L49356 28584
" />
<text x="41500" y="28896.9"
textLength="1201.63" font-size="524.934" lengthAdjust="spacingAndGlyphs"
text-anchor="middle" opacity="0">150</text>
<path d="M41237 28878
L41012 28878
" />
<path d="M41125 28878
L41125 28484
L41087 28540
L41050 28578
L41012 28596
" />
<path d="M41593 28484
L41406 28484
L41387 28671
L41406 28653
L41443 28634
L41537 28634
L41574 28653
L41593 28671
L41612 28709
L41612 28803
L41593 28840
L41574 28859
L41537 28878
L41443 28878
L41406 28859
L41387 28840
" />
<path d="M41856 28484
L41893 28484
L41931 28503
L41949 28521
L41968 28559
L41987 28634
L41987 28728
L41968 28803
L41949 28840
L41931 28859
L41893 28878
L41856 28878
L41818 28859
L41799 28840
L41781 28803
L41762 28728
L41762 28634
L41781 28559
L41799 28521
L41818 28503
L41856 28484
" />
<text x="33500" y="37596.9"
textLength="1201.63" font-size="524.934" lengthAdjust="spacingAndGlyphs"
text-anchor="middle" opacity="0">150</text>
<path d="M33237 37578
L33012 37578
" />
<path d="M33125 37578
L33125 37184
L33087 37240
L33050 37278
L33012 37296
" />
<path d="M33593 37184
L33406 37184
L33387 37371
L33406 37353
L33443 37334
L33537 37334
L33574 37353
L33593 37371
L33612 37409
L33612 37503
L33593 37540
L33574 37559
L33537 37578
L33443 37578
L33406 37559
L33387 37540
" />
<path d="M33856 37184
L33893 37184
L33931 37203
L33949 37221
L33968 37259
L33987 37334
L33987 37428
L33968 37503
L33949 37540
L33931 37559
L33893 37578
L33856 37578
L33818 37559
L33799 37540
L33781 37503
L33762 37428
L33762 37334
L33781 37259
L33799 37221
L33818 37203
L33856 37184
" />
<text x="33600" y="36096.9"
textLength="1201.63" font-size="524.934" lengthAdjust="spacingAndGlyphs"
text-anchor="middle" opacity="0">150</text>
<path d="M33337 36078
L33112 36078
" />
<path d="M33225 36078
L33225 35684
L33187 35740
L33150 35778
L33112 35796
" />
<path d="M33693 35684
L33506 35684
L33487 35871
L33506 35853
L33543 35834
L33637 35834
L33674 35853
L33693 35871
L33712 35909
L33712 36003
L33693 36040
L33674 36059
L33637 36078
L33543 36078
L33506 36059
L33487 36040
" />
<path d="M33956 35684
L33993 35684
L34031 35703
L34049 35721
L34068 35759
L34087 35834
L34087 35928
L34068 36003
L34049 36040
L34031 36059
L33993 36078
L33956 36078
L33918 36059
L33899 36040
L33881 36003
L33862 35928
L33862 35834
L33881 35759
L33899 35721
L33918 35703
L33956 35684
" />
<text x="37700" y="49296.9"
textLength="1201.63" font-size="524.934" lengthAdjust="spacingAndGlyphs"
text-anchor="middle" opacity="0">150</text>
<path d="M37437 49278
L37212 49278
" />
<path d="M37325 49278
L37325 48884
L37287 48940
L37250 48978
L37212 48996
" />
<path d="M37793 48884
L37606 48884
L37587 49071
L37606 49053
L37643 49034
L37737 49034
L37774 49053
L37793 49071
L37812 49109
L37812 49203
L37793 49240
L37774 49259
L37737 49278
L37643 49278
L37606 49259
L37587 49240
" />
<path d="M38056 48884
L38093 48884
L38131 48903
L38149 48921
L38168 48959
L38187 49034
L38187 49128
L38168 49203
L38149 49240
L38131 49259
L38093 49278
L38056 49278
L38018 49259
L37999 49240
L37981 49203
L37962 49128
L37962 49034
L37981 48959
L37999 48921
L38018 48903
L38056 48884
" />
<text x="58700" y="31496.9"
textLength="1201.63" font-size="524.934" lengthAdjust="spacingAndGlyphs"
text-anchor="middle" opacity="0">150</text>
<path d="M58437 31478
L58212 31478
" />
<path d="M58325 31478
L58325 31084
L58287 31140
L58250 31178
L58212 31196
" />
<path d="M58793 31084
L58606 31084
L58587 31271
L58606 31253
L58643 31234
L58737 31234
L58774 31253
L58793 31271
L58812 31309
L58812 31403
L58793 31440
L58774 31459
L58737 31478
L58643 31478
L58606 31459
L58587 31440
" />
<path d="M59056 31084
L59093 31084
L59131 31103
L59149 31121
L59168 31159
L59187 31234
L59187 31328
L59168 31403
L59149 31440
L59131 31459
L59093 31478
L59056 31478
L59018 31459
L58999 31440
L58981 31403
L58962 31328
L58962 31234
L58981 31159
L58999 31121
L59018 31103
L59056 31084
" />
<text x="56700" y="29196.9"
textLength="1201.63" font-size="524.934" lengthAdjust="spacingAndGlyphs"
text-anchor="middle" opacity="0">150</text>
<path d="M56437 29178
L56212 29178
" />
<path d="M56325 29178
L56325 28784
L56287 28840
L56250 28878
L56212 28896
" />
<path d="M56793 28784
L56606 28784
L56587 28971
L56606 28953
L56643 28934
L56737 28934
L56774 28953
L56793 28971
L56812 29009
L56812 29103
L56793 29140
L56774 29159
L56737 29178
L56643 29178
L56606 29159
L56587 29140
" />
<path d="M57056 28784
L57093 28784
L57131 28803
L57149 28821
L57168 28859
L57187 28934
L57187 29028
L57168 29103
L57149 29140
L57131 29159
L57093 29178
L57056 29178
L57018 29159
L56999 29140
L56981 29103
L56962 29028
L56962 28934
L56981 28859
L56999 28821
L57018 28803
L57056 28784
" />
<text x="35503.9" y="33488.2"
textLength="564.211" font-size="524.934" lengthAdjust="spacingAndGlyphs"
text-anchor="middle" opacity="0">-</text>
<path d="M35353 33319
L35653 33319
" />
<text x="32200.8" y="33456.7"
textLength="564.211" font-size="524.934" lengthAdjust="spacingAndGlyphs"
text-anchor="middle" opacity="0">+</text>
<path d="M32050 33287
L32350 33287
" />
<path d="M32200 33437
L32200 33137
" />
<text x="65252" y="23496.1"
textLength="564.211" font-size="524.934" lengthAdjust="spacingAndGlyphs"
text-anchor="middle" opacity="0">+</text>
<path d="M65101 23327
L65401 23327
" />
<path d="M65251 23477
L65251 23177
" />
<text x="64948.8" y="27027.6"
textLength="564.211" font-size="524.934" lengthAdjust="spacingAndGlyphs"
text-anchor="middle" opacity="0">-</text>
<path d="M64798 26858
L65098 26858
" />
<text x="64850.4" y="35047.2"
textLength="564.211" font-size="524.934" lengthAdjust="spacingAndGlyphs"
text-anchor="middle" opacity="0">-</text>
<path d="M64700 34878
L65000 34878
" />
<text x="64917.3" y="31405.5"
textLength="564.211" font-size="524.934" lengthAdjust="spacingAndGlyphs"
text-anchor="middle" opacity="0">+</text>
<path d="M64767 31236
L65067 31236
" />
<path d="M64917 31386
L64917 31086
" />
<text x="64948.8" y="39712.6"
textLength="564.211" font-size="524.934" lengthAdjust="spacingAndGlyphs"
text-anchor="middle" opacity="0">+</text>
<path d="M64798 39543
L65098 39543
" />
<path d="M64948 39693
L64948 39393
" />
<text x="64850.4" y="43019.7"
textLength="564.211" font-size="524.934" lengthAdjust="spacingAndGlyphs"
text-anchor="middle" opacity="0">-</text>
<path d="M64700 42850
L65000 42850
" />
<text x="64980.3" y="47590.6"
textLength="564.211" font-size="524.934" lengthAdjust="spacingAndGlyphs"
text-anchor="middle" opacity="0">+</text>
<path d="M64830 47421
L65130 47421
" />
<path d="M64980 47571
L64980 47271
" />
<text x="65090.6" y="55547.2"
textLength="564.211" font-size="524.934" lengthAdjust="spacingAndGlyphs"
text-anchor="middle" opacity="0">+</text>
<path d="M64940 55378
L65240 55378
" />
<path d="M65090 55528
L65090 55228
" />
<text x="65035.4" y="40935"
textLength="1389.11" font-size="524.934" lengthAdjust="spacingAndGlyphs"
text-anchor="middle" opacity="0">Led </text>
<path d="M64660 40916
L64473 40916
L64473 40522
" />
<path d="M64941 40897
L64904 40916
L64829 40916
L64791 40897
L64772 40860
L64772 40710
L64791 40672
L64829 40653
L64904 40653
L64941 40672
L64960 40710
L64960 40747
L64772 40785
" />
<path d="M65297 40916
L65297 40522
" />
<path d="M65297 40897
L65260 40916
L65185 40916
L65147 40897
L65129 40878
L65110 40841
L65110 40728
L65129 40691
L65147 40672
L65185 40653
L65260 40653
L65297 40672
" />
<text x="65035.4" y="41584.6"
textLength="1820.3" font-size="524.934" lengthAdjust="spacingAndGlyphs"
text-anchor="middle" opacity="0">Anode</text>
<path d="M64238 41453
L64426 41453
" />
<path d="M64201 41565
L64332 41172
L64463 41565
" />
<path d="M64594 41303
L64594 41565
" />
<path d="M64594 41340
L64613 41322
L64651 41303
L64707 41303
L64744 41322
L64763 41359
L64763 41565
" />
<path d="M65007 41565
L64969 41547
L64951 41528
L64932 41490
L64932 41378
L64951 41340
L64969 41322
L65007 41303
L65063 41303
L65101 41322
L65119 41340
L65138 41378
L65138 41490
L65119 41528
L65101 41547
L65063 41565
L65007 41565
" />
<path d="M65476 41565
L65476 41172
" />
<path d="M65476 41547
L65438 41565
L65363 41565
L65326 41547
L65307 41528
L65288 41490
L65288 41378
L65307 41340
L65326 41322
L65363 41303
L65438 41303
L65476 41322
" />
<path d="M65813 41547
L65775 41565
L65700 41565
L65663 41547
L65644 41509
L65644 41359
L65663 41322
L65700 41303
L65775 41303
L65813 41322
L65832 41359
L65832 41397
L65644 41434
" />
<text x="54252" y="40777.6"
textLength="1089.15" font-size="524.934" lengthAdjust="spacingAndGlyphs"
text-anchor="middle" opacity="0">Led</text>
<path d="M54026 40758
L53839 40758
L53839 40365
" />
<path d="M54308 40740
L54270 40758
L54195 40758
L54158 40740
L54139 40702
L54139 40552
L54158 40515
L54195 40496
L54270 40496
L54308 40515
L54326 40552
L54326 40590
L54139 40627
" />
<path d="M54664 40758
L54664 40365
" />
<path d="M54664 40740
L54626 40758
L54551 40758
L54514 40740
L54495 40721
L54476 40683
L54476 40571
L54495 40533
L54514 40515
L54551 40496
L54626 40496
L54664 40515
" />
<text x="54252" y="41427.2"
textLength="2457.72" font-size="524.934" lengthAdjust="spacingAndGlyphs"
text-anchor="middle" opacity="0">Cathode</text>
<path d="M53380 41370
L53361 41389
L53305 41408
L53267 41408
L53211 41389
L53173 41352
L53155 41314
L53136 41239
L53136 41183
L53155 41108
L53173 41070
L53211 41033
L53267 41014
L53305 41014
L53361 41033
L53380 41052
" />
<path d="M53717 41408
L53717 41202
L53698 41164
L53661 41145
L53586 41145
L53548 41164
" />
<path d="M53717 41389
L53680 41408
L53586 41408
L53548 41389
L53530 41352
L53530 41314
L53548 41277
L53586 41258
L53680 41258
L53717 41239
" />
<path d="M53848 41145
L53998 41145
" />
<path d="M53905 41014
L53905 41352
L53923 41389
L53961 41408
L53998 41408
" />
<path d="M54130 41408
L54130 41014
" />
<path d="M54298 41408
L54298 41202
L54280 41164
L54242 41145
L54186 41145
L54148 41164
L54130 41183
" />
<path d="M54542 41408
L54505 41389
L54486 41370
L54467 41333
L54467 41220
L54486 41183
L54505 41164
L54542 41145
L54598 41145
L54636 41164
L54655 41183
L54673 41220
L54673 41333
L54655 41370
L54636 41389
L54598 41408
L54542 41408
" />
<path d="M55011 41408
L55011 41014
" />
<path d="M55011 41389
L54973 41408
L54898 41408
L54861 41389
L54842 41370
L54823 41333
L54823 41220
L54842 41183
L54861 41164
L54898 41145
L54973 41145
L55011 41164
" />
<path d="M55348 41389
L55311 41408
L55236 41408
L55198 41389
L55179 41352
L55179 41202
L55198 41164
L55236 41145
L55311 41145
L55348 41164
L55367 41202
L55367 41239
L55179 41277
" />
<text x="49259.8" y="36133.9"
textLength="3020.15" font-size="524.934" lengthAdjust="spacingAndGlyphs"
text-anchor="middle" opacity="0">Input Row</text>
<path d="M47881 36115
L47881 35721
" />
<path d="M48069 35852
L48069 36115
" />
<path d="M48069 35890
L48088 35871
L48125 35852
L48181 35852
L48219 35871
L48238 35908
L48238 36115
" />
<path d="M48425 35852
L48425 36246
" />
<path d="M48425 35871
L48463 35852
L48538 35852
L48575 35871
L48594 35890
L48613 35927
L48613 36040
L48594 36077
L48575 36096
L48538 36115
L48463 36115
L48425 36096
" />
<path d="M48950 35852
L48950 36115
" />
<path d="M48781 35852
L48781 36058
L48800 36096
L48838 36115
L48894 36115
L48931 36096
L48950 36077
" />
<path d="M49081 35852
L49231 35852
" />
<path d="M49137 35721
L49137 36058
L49156 36096
L49194 36115
L49231 36115
" />
<path d="M49887 36115
L49756 35927
" />
<path d="M49662 36115
L49662 35721
L49812 35721
L49850 35740
L49869 35758
L49887 35796
L49887 35852
L49869 35890
L49850 35908
L49812 35927
L49662 35927
" />
<path d="M50112 36115
L50075 36096
L50056 36077
L50037 36040
L50037 35927
L50056 35890
L50075 35871
L50112 35852
L50169 35852
L50206 35871
L50225 35890
L50244 35927
L50244 36040
L50225 36077
L50206 36096
L50169 36115
L50112 36115
" />
<path d="M50375 35852
L50450 36115
L50525 35927
L50600 36115
L50675 35852
" />
<text x="41618.1" y="35468.5"
textLength="2813.93" font-size="524.934" lengthAdjust="spacingAndGlyphs"
text-anchor="middle" opacity="0">Input Col</text>
<path d="M40343 35449
L40343 35056
" />
<path d="M40530 35187
L40530 35449
" />
<path d="M40530 35224
L40549 35206
L40586 35187
L40643 35187
L40680 35206
L40699 35243
L40699 35449
" />
<path d="M40886 35187
L40886 35580
" />
<path d="M40886 35206
L40924 35187
L40999 35187
L41036 35206
L41055 35224
L41074 35262
L41074 35374
L41055 35412
L41036 35431
L40999 35449
L40924 35449
L40886 35431
" />
<path d="M41411 35187
L41411 35449
" />
<path d="M41243 35187
L41243 35393
L41261 35431
L41299 35449
L41355 35449
L41393 35431
L41411 35412
" />
<path d="M41543 35187
L41693 35187
" />
<path d="M41599 35056
L41599 35393
L41618 35431
L41655 35449
L41693 35449
" />
<path d="M42349 35412
L42330 35431
L42274 35449
L42236 35449
L42180 35431
L42143 35393
L42124 35356
L42105 35281
L42105 35224
L42124 35149
L42143 35112
L42180 35074
L42236 35056
L42274 35056
L42330 35074
L42349 35093
" />
<path d="M42574 35449
L42536 35431
L42517 35412
L42499 35374
L42499 35262
L42517 35224
L42536 35206
L42574 35187
L42630 35187
L42667 35206
L42686 35224
L42705 35262
L42705 35374
L42686 35412
L42667 35431
L42630 35449
L42574 35449
" />
<path d="M42930 35449
L42892 35431
L42874 35393
L42874 35056
" />
<text x="33602.4" y="31633.9"
textLength="2813.93" font-size="524.934" lengthAdjust="spacingAndGlyphs"
text-anchor="middle" opacity="0">Backlight</text>
<path d="M32458 31408
L32514 31427
L32533 31446
L32552 31483
L32552 31540
L32533 31577
L32514 31596
L32477 31615
L32327 31615
L32327 31221
L32458 31221
L32496 31240
L32514 31258
L32533 31296
L32533 31333
L32514 31371
L32496 31390
L32458 31408
L32327 31408
" />
<path d="M32889 31615
L32889 31408
L32871 31371
L32833 31352
L32758 31352
L32721 31371
" />
<path d="M32889 31596
L32852 31615
L32758 31615
L32721 31596
L32702 31558
L32702 31521
L32721 31483
L32758 31465
L32852 31465
L32889 31446
" />
<path d="M33246 31596
L33208 31615
L33133 31615
L33096 31596
L33077 31577
L33058 31540
L33058 31427
L33077 31390
L33096 31371
L33133 31352
L33208 31352
L33246 31371
" />
<path d="M33414 31615
L33414 31221
" />
<path d="M33452 31465
L33564 31615
" />
<path d="M33564 31352
L33414 31502
" />
<path d="M33789 31615
L33752 31596
L33733 31558
L33733 31221
" />
<path d="M33939 31615
L33939 31352
" />
<path d="M33939 31221
L33921 31240
L33939 31258
L33958 31240
L33939 31221
L33939 31258
" />
<path d="M34296 31352
L34296 31671
L34277 31708
L34258 31727
L34221 31746
L34164 31746
L34127 31727
" />
<path d="M34296 31596
L34258 31615
L34183 31615
L34146 31596
L34127 31577
L34108 31540
L34108 31427
L34127 31390
L34146 31371
L34183 31352
L34258 31352
L34296 31371
" />
<path d="M34483 31615
L34483 31221
" />
<path d="M34652 31615
L34652 31408
L34633 31371
L34595 31352
L34539 31352
L34502 31371
L34483 31390
" />
<path d="M34783 31352
L34933 31352
" />
<path d="M34839 31221
L34839 31558
L34858 31596
L34895 31615
L34933 31615
" />
<path d="M27039 28515
L28972 28515
" />
<path d="M27027 19893
L27039 28515
" />
<path d="M31488 27874
L31472 19877
" />
<path d="M58665 27877
L31488 27874
" />
<path d="M58649 18921
L58665 27877
" />
<path d="M66405 18937
L58649 18921
" />
<path d="M66405 18937
L66417 58346
" />
<path d="M66417 58346
L31468 58318
" />
<path d="M31468 58318
L31468 30996
" />
<path d="M28972 28515
L31468 30996
" />
<path d="M31472 19877
L27027 19893
" />
</g>
<g style="fill:#000000; fill-opacity:0.0; 
stroke:#000000; stroke-width:47.2441; stroke-opacity:1; 
stroke-linecap:round; stroke-linejoin:round;">
<path d="M62412 22550
L61912 22550
" />
<path d="M62413 19550
L62412 22550
" />
<path d="M59110 19550
L62410 19550
" />
<path d="M59112 22550
L59118 19550
" />
<path d="M62312 22550
L59112 22550
" />
<path d="M59212 21050
L59412 21050
" />
<path d="M59612 21450
L59612 21150
" />
<path d="M59212 21150
L59212 21050
" />
<path d="M59412 21350
L59412 20850
" />
<path d="M59612 20950
L59612 20650
" />
<path d="M59412 21150
L59212 21150
" />
<path d="M61512 21050
L61712 21050
" />
<path d="M61512 21150
L61512 21050
" />
<path d="M61712 21150
L61512 21150
" />
<path d="M61712 21350
L61712 20850
" />
<path d="M61912 20950
L61912 20650
" />
<path d="M61912 21450
L61912 21150
" />
<path d="M60112 21150
L60312 21050
" />
<path d="M60212 21150
L60112 21150
" />
<path d="M60012 21250
L60212 21150
" />
<path d="M60712 20950
L60712 20550
" />
<path d="M61012 20950
L60712 20950
" />
<path d="M60412 20950
L61012 20950
" />
<path d="M61012 21250
L60712 21250
" />
<path d="M60712 20950
L61012 21250
" />
<path d="M60412 21250
L60712 20950
" />
<path d="M60712 21250
L60412 21250
" />
<path d="M60712 21550
L60712 21250
" />
<path d="M62412 54550
L61912 54550
" />
<path d="M62413 51550
L62412 54550
" />
<path d="M59110 51550
L62410 51550
" />
<path d="M59112 54550
L59118 51550
" />
<path d="M62312 54550
L59112 54550
" />
<path d="M59212 53050
L59412 53050
" />
<path d="M59612 53450
L59612 53150
" />
<path d="M59212 53150
L59212 53050
" />
<path d="M59412 53350
L59412 52850
" />
<path d="M59612 52950
L59612 52650
" />
<path d="M59412 53150
L59212 53150
" />
<path d="M61512 53050
L61712 53050
" />
<path d="M61512 53150
L61512 53050
" />
<path d="M61712 53150
L61512 53150
" />
<path d="M61712 53350
L61712 52850
" />
<path d="M61912 52950
L61912 52650
" />
<path d="M61912 53450
L61912 53150
" />
<path d="M60112 53150
L60312 53050
" />
<path d="M60212 53150
L60112 53150
" />
<path d="M60012 53250
L60212 53150
" />
<path d="M60712 52950
L60712 52550
" />
<path d="M61012 52950
L60712 52950
" />
<path d="M60412 52950
L61012 52950
" />
<path d="M61012 53250
L60712 53250
" />
<path d="M60712 52950
L61012 53250
" />
<path d="M60412 53250
L60712 52950
" />
<path d="M60712 53250
L60412 53250
" />
<path d="M60712 53550
L60712 53250
" />
<path d="M62412 46550
L61912 46550
" />
<path d="M62413 43550
L62412 46550
" />
<path d="M59110 43550
L62410 43550
" />
<path d="M59112 46550
L59118 43550
" />
<path d="M62312 46550
L59112 46550
" />
<path d="M59212 45050
L59412 45050
" />
<path d="M59612 45450
L59612 45150
" />
<path d="M59212 45150
L59212 45050
" />
<path d="M59412 45350
L59412 44850
" />
<path d="M59612 44950
L59612 44650
" />
<path d="M59412 45150
L59212 45150
" />
<path d="M61512 45050
L61712 45050
" />
<path d="M61512 45150
L61512 45050
" />
<path d="M61712 45150
L61512 45150
" />
<path d="M61712 45350
L61712 44850
" />
<path d="M61912 44950
L61912 44650
" />
<path d="M61912 45450
L61912 45150
" />
<path d="M60112 45150
L60312 45050
" />
<path d="M60212 45150
L60112 45150
" />
<path d="M60012 45250
L60212 45150
" />
<path d="M60712 44950
L60712 44550
" />
<path d="M61012 44950
L60712 44950
" />
<path d="M60412 44950
L61012 44950
" />
<path d="M61012 45250
L60712 45250
" />
<path d="M60712 44950
L61012 45250
" />
<path d="M60412 45250
L60712 44950
" />
<path d="M60712 45250
L60412 45250
" />
<path d="M60712 45550
L60712 45250
" />
<path d="M62412 38550
L61912 38550
" />
<path d="M62413 35550
L62412 38550
" />
<path d="M59110 35550
L62410 35550
" />
<path d="M59112 38550
L59118 35550
" />
<path d="M62312 38550
L59112 38550
" />
<path d="M59212 37050
L59412 37050
" />
<path d="M59612 37450
L59612 37150
" />
<path d="M59212 37150
L59212 37050
" />
<path d="M59412 37350
L59412 36850
" />
<path d="M59612 36950
L59612 36650
" />
<path d="M59412 37150
L59212 37150
" />
<path d="M61512 37050
L61712 37050
" />
<path d="M61512 37150
L61512 37050
" />
<path d="M61712 37150
L61512 37150
" />
<path d="M61712 37350
L61712 36850
" />
<path d="M61912 36950
L61912 36650
" />
<path d="M61912 37450
L61912 37150
" />
<path d="M60112 37150
L60312 37050
" />
<path d="M60212 37150
L60112 37150
" />
<path d="M60012 37250
L60212 37150
" />
<path d="M60712 36950
L60712 36550
" />
<path d="M61012 36950
L60712 36950
" />
<path d="M60412 36950
L61012 36950
" />
<path d="M61012 37250
L60712 37250
" />
<path d="M60712 36950
L61012 37250
" />
<path d="M60412 37250
L60712 36950
" />
<path d="M60712 37250
L60412 37250
" />
<path d="M60712 37550
L60712 37250
" />
<path d="M62412 30550
L61912 30550
" />
<path d="M62413 27550
L62412 30550
" />
<path d="M59110 27550
L62410 27550
" />
<path d="M59112 30550
L59118 27550
" />
<path d="M62312 30550
L59112 30550
" />
<path d="M59212 29050
L59412 29050
" />
<path d="M59612 29450
L59612 29150
" />
<path d="M59212 29150
L59212 29050
" />
<path d="M59412 29350
L59412 28850
" />
<path d="M59612 28950
L59612 28650
" />
<path d="M59412 29150
L59212 29150
" />
<path d="M61512 29050
L61712 29050
" />
<path d="M61512 29150
L61512 29050
" />
<path d="M61712 29150
L61512 29150
" />
<path d="M61712 29350
L61712 28850
" />
<path d="M61912 28950
L61912 28650
" />
<path d="M61912 29450
L61912 29150
" />
<path d="M60112 29150
L60312 29050
" />
<path d="M60212 29150
L60112 29150
" />
<path d="M60012 29250
L60212 29150
" />
<path d="M60712 28950
L60712 28550
" />
<path d="M61012 28950
L60712 28950
" />
<path d="M60412 28950
L61012 28950
" />
<path d="M61012 29250
L60712 29250
" />
<path d="M60712 28950
L61012 29250
" />
<path d="M60412 29250
L60712 28950
" />
<path d="M60712 29250
L60412 29250
" />
<path d="M60712 29550
L60712 29250
" />
<path d="M54112 50300
L54112 50800
" />
<path d="M51112 50299
L54112 50300
" />
<path d="M51112 53602
L51112 50302
" />
<path d="M54112 53600
L51112 53594
" />
<path d="M54112 50400
L54112 53600
" />
<path d="M52612 53500
L52612 53300
" />
<path d="M53012 53100
L52712 53100
" />
<path d="M52712 53500
L52612 53500
" />
<path d="M52912 53300
L52412 53300
" />
<path d="M52512 53100
L52212 53100
" />
<path d="M52712 53300
L52712 53500
" />
<path d="M52612 51200
L52612 51000
" />
<path d="M52712 51200
L52612 51200
" />
<path d="M52712 51000
L52712 51200
" />
<path d="M52912 51000
L52412 51000
" />
<path d="M52512 50800
L52212 50800
" />
<path d="M53012 50800
L52712 50800
" />
<path d="M52712 52600
L52612 52400
" />
<path d="M52712 52500
L52712 52600
" />
<path d="M52812 52700
L52712 52500
" />
<path d="M52512 52000
L52112 52000
" />
<path d="M52512 51700
L52512 52000
" />
<path d="M52512 52300
L52512 51700
" />
<path d="M52812 51700
L52812 52000
" />
<path d="M52512 52000
L52812 51700
" />
<path d="M52812 52300
L52512 52000
" />
<path d="M52812 52000
L52812 52300
" />
<path d="M53112 52000
L52812 52000
" />
<path d="M54112 42900
L54112 43400
" />
<path d="M51112 42899
L54112 42900
" />
<path d="M51112 46202
L51112 42902
" />
<path d="M54112 46200
L51112 46194
" />
<path d="M54112 43000
L54112 46200
" />
<path d="M52612 46100
L52612 45900
" />
<path d="M53012 45700
L52712 45700
" />
<path d="M52712 46100
L52612 46100
" />
<path d="M52912 45900
L52412 45900
" />
<path d="M52512 45700
L52212 45700
" />
<path d="M52712 45900
L52712 46100
" />
<path d="M52612 43800
L52612 43600
" />
<path d="M52712 43800
L52612 43800
" />
<path d="M52712 43600
L52712 43800
" />
<path d="M52912 43600
L52412 43600
" />
<path d="M52512 43400
L52212 43400
" />
<path d="M53012 43400
L52712 43400
" />
<path d="M52712 45200
L52612 45000
" />
<path d="M52712 45100
L52712 45200
" />
<path d="M52812 45300
L52712 45100
" />
<path d="M52512 44600
L52112 44600
" />
<path d="M52512 44300
L52512 44600
" />
<path d="M52512 44900
L52512 44300
" />
<path d="M52812 44300
L52812 44600
" />
<path d="M52512 44600
L52812 44300
" />
<path d="M52812 44900
L52512 44600
" />
<path d="M52812 44600
L52812 44900
" />
<path d="M53112 44600
L52812 44600
" />
<path d="M54112 35500
L54112 36000
" />
<path d="M51112 35499
L54112 35500
" />
<path d="M51112 38802
L51112 35502
" />
<path d="M54112 38800
L51112 38794
" />
<path d="M54112 35600
L54112 38800
" />
<path d="M52612 38700
L52612 38500
" />
<path d="M53012 38300
L52712 38300
" />
<path d="M52712 38700
L52612 38700
" />
<path d="M52912 38500
L52412 38500
" />
<path d="M52512 38300
L52212 38300
" />
<path d="M52712 38500
L52712 38700
" />
<path d="M52612 36400
L52612 36200
" />
<path d="M52712 36400
L52612 36400
" />
<path d="M52712 36200
L52712 36400
" />
<path d="M52912 36200
L52412 36200
" />
<path d="M52512 36000
L52212 36000
" />
<path d="M53012 36000
L52712 36000
" />
<path d="M52712 37800
L52612 37600
" />
<path d="M52712 37700
L52712 37800
" />
<path d="M52812 37900
L52712 37700
" />
<path d="M52512 37200
L52112 37200
" />
<path d="M52512 36900
L52512 37200
" />
<path d="M52512 37500
L52512 36900
" />
<path d="M52812 36900
L52812 37200
" />
<path d="M52512 37200
L52812 36900
" />
<path d="M52812 37500
L52512 37200
" />
<path d="M52812 37200
L52812 37500
" />
<path d="M53112 37200
L52812 37200
" />
<path d="M54112 28100
L54112 28600
" />
<path d="M51112 28099
L54112 28100
" />
<path d="M51112 31402
L51112 28102
" />
<path d="M54112 31400
L51112 31394
" />
<path d="M54112 28200
L54112 31400
" />
<path d="M52612 31300
L52612 31100
" />
<path d="M53012 30900
L52712 30900
" />
<path d="M52712 31300
L52612 31300
" />
<path d="M52912 31100
L52412 31100
" />
<path d="M52512 30900
L52212 30900
" />
<path d="M52712 31100
L52712 31300
" />
<path d="M52612 29000
L52612 28800
" />
<path d="M52712 29000
L52612 29000
" />
<path d="M52712 28800
L52712 29000
" />
<path d="M52912 28800
L52412 28800
" />
<path d="M52512 28600
L52212 28600
" />
<path d="M53012 28600
L52712 28600
" />
<path d="M52712 30400
L52612 30200
" />
<path d="M52712 30300
L52712 30400
" />
<path d="M52812 30500
L52712 30300
" />
<path d="M52512 29800
L52112 29800
" />
<path d="M52512 29500
L52512 29800
" />
<path d="M52512 30100
L52512 29500
" />
<path d="M52812 29500
L52812 29800
" />
<path d="M52512 29800
L52812 29500
" />
<path d="M52812 30100
L52512 29800
" />
<path d="M52812 29800
L52812 30100
" />
<path d="M53112 29800
L52812 29800
" />
<path d="M30062 21800
L30062 22300
" />
<path d="M27062 21799
L30062 21800
" />
<path d="M27062 25102
L27062 21802
" />
<path d="M30062 25100
L27062 25094
" />
<path d="M30062 21900
L30062 25100
" />
<path d="M28562 25000
L28562 24800
" />
<path d="M28962 24600
L28662 24600
" />
<path d="M28662 25000
L28562 25000
" />
<path d="M28862 24800
L28362 24800
" />
<path d="M28462 24600
L28162 24600
" />
<path d="M28662 24800
L28662 25000
" />
<path d="M28562 22700
L28562 22500
" />
<path d="M28662 22700
L28562 22700
" />
<path d="M28662 22500
L28662 22700
" />
<path d="M28862 22500
L28362 22500
" />
<path d="M28462 22300
L28162 22300
" />
<path d="M28962 22300
L28662 22300
" />
<path d="M28662 24100
L28562 23900
" />
<path d="M28662 24000
L28662 24100
" />
<path d="M28762 24200
L28662 24000
" />
<path d="M28462 23500
L28062 23500
" />
<path d="M28462 23200
L28462 23500
" />
<path d="M28462 23800
L28462 23200
" />
<path d="M28762 23200
L28762 23500
" />
<path d="M28462 23500
L28762 23200
" />
<path d="M28762 23800
L28462 23500
" />
<path d="M28762 23500
L28762 23800
" />
<path d="M29062 23500
L28762 23500
" />
<path d="M46712 50300
L46712 50800
" />
<path d="M43712 50299
L46712 50300
" />
<path d="M43712 53602
L43712 50302
" />
<path d="M46712 53600
L43712 53594
" />
<path d="M46712 50400
L46712 53600
" />
<path d="M45212 53500
L45212 53300
" />
<path d="M45612 53100
L45312 53100
" />
<path d="M45312 53500
L45212 53500
" />
<path d="M45512 53300
L45012 53300
" />
<path d="M45112 53100
L44812 53100
" />
<path d="M45312 53300
L45312 53500
" />
<path d="M45212 51200
L45212 51000
" />
<path d="M45312 51200
L45212 51200
" />
<path d="M45312 51000
L45312 51200
" />
<path d="M45512 51000
L45012 51000
" />
<path d="M45112 50800
L44812 50800
" />
<path d="M45612 50800
L45312 50800
" />
<path d="M45312 52600
L45212 52400
" />
<path d="M45312 52500
L45312 52600
" />
<path d="M45412 52700
L45312 52500
" />
<path d="M45112 52000
L44712 52000
" />
<path d="M45112 51700
L45112 52000
" />
<path d="M45112 52300
L45112 51700
" />
<path d="M45412 51700
L45412 52000
" />
<path d="M45112 52000
L45412 51700
" />
<path d="M45412 52300
L45112 52000
" />
<path d="M45412 52000
L45412 52300
" />
<path d="M45712 52000
L45412 52000
" />
<path d="M46712 42900
L46712 43400
" />
<path d="M43712 42899
L46712 42900
" />
<path d="M43712 46202
L43712 42902
" />
<path d="M46712 46200
L43712 46194
" />
<path d="M46712 43000
L46712 46200
" />
<path d="M45212 46100
L45212 45900
" />
<path d="M45612 45700
L45312 45700
" />
<path d="M45312 46100
L45212 46100
" />
<path d="M45512 45900
L45012 45900
" />
<path d="M45112 45700
L44812 45700
" />
<path d="M45312 45900
L45312 46100
" />
<path d="M45212 43800
L45212 43600
" />
<path d="M45312 43800
L45212 43800
" />
<path d="M45312 43600
L45312 43800
" />
<path d="M45512 43600
L45012 43600
" />
<path d="M45112 43400
L44812 43400
" />
<path d="M45612 43400
L45312 43400
" />
<path d="M45312 45200
L45212 45000
" />
<path d="M45312 45100
L45312 45200
" />
<path d="M45412 45300
L45312 45100
" />
<path d="M45112 44600
L44712 44600
" />
<path d="M45112 44300
L45112 44600
" />
<path d="M45112 44900
L45112 44300
" />
<path d="M45412 44300
L45412 44600
" />
<path d="M45112 44600
L45412 44300
" />
<path d="M45412 44900
L45112 44600
" />
<path d="M45412 44600
L45412 44900
" />
<path d="M45712 44600
L45412 44600
" />
<path d="M46712 35500
L46712 36000
" />
<path d="M43712 35499
L46712 35500
" />
<path d="M43712 38802
L43712 35502
" />
<path d="M46712 38800
L43712 38794
" />
<path d="M46712 35600
L46712 38800
" />
<path d="M45212 38700
L45212 38500
" />
<path d="M45612 38300
L45312 38300
" />
<path d="M45312 38700
L45212 38700
" />
<path d="M45512 38500
L45012 38500
" />
<path d="M45112 38300
L44812 38300
" />
<path d="M45312 38500
L45312 38700
" />
<path d="M45212 36400
L45212 36200
" />
<path d="M45312 36400
L45212 36400
" />
<path d="M45312 36200
L45312 36400
" />
<path d="M45512 36200
L45012 36200
" />
<path d="M45112 36000
L44812 36000
" />
<path d="M45612 36000
L45312 36000
" />
<path d="M45312 37800
L45212 37600
" />
<path d="M45312 37700
L45312 37800
" />
<path d="M45412 37900
L45312 37700
" />
<path d="M45112 37200
L44712 37200
" />
<path d="M45112 36900
L45112 37200
" />
<path d="M45112 37500
L45112 36900
" />
<path d="M45412 36900
L45412 37200
" />
<path d="M45112 37200
L45412 36900
" />
<path d="M45412 37500
L45112 37200
" />
<path d="M45412 37200
L45412 37500
" />
<path d="M45712 37200
L45412 37200
" />
<path d="M46712 28100
L46712 28600
" />
<path d="M43712 28099
L46712 28100
" />
<path d="M43712 31402
L43712 28102
" />
<path d="M46712 31400
L43712 31394
" />
<path d="M46712 28200
L46712 31400
" />
<path d="M45212 31300
L45212 31100
" />
<path d="M45612 30900
L45312 30900
" />
<path d="M45312 31300
L45212 31300
" />
<path d="M45512 31100
L45012 31100
" />
<path d="M45112 30900
L44812 30900
" />
<path d="M45312 31100
L45312 31300
" />
<path d="M45212 29000
L45212 28800
" />
<path d="M45312 29000
L45212 29000
" />
<path d="M45312 28800
L45312 29000
" />
<path d="M45512 28800
L45012 28800
" />
<path d="M45112 28600
L44812 28600
" />
<path d="M45612 28600
L45312 28600
" />
<path d="M45312 30400
L45212 30200
" />
<path d="M45312 30300
L45312 30400
" />
<path d="M45412 30500
L45312 30300
" />
<path d="M45112 29800
L44712 29800
" />
<path d="M45112 29500
L45112 29800
" />
<path d="M45112 30100
L45112 29500
" />
<path d="M45412 29500
L45412 29800
" />
<path d="M45112 29800
L45412 29500
" />
<path d="M45412 30100
L45112 29800
" />
<path d="M45412 29800
L45412 30100
" />
<path d="M45712 29800
L45412 29800
" />
<path d="M39312 50300
L39312 50800
" />
<path d="M36312 50299
L39312 50300
" />
<path d="M36312 53602
L36312 50302
" />
<path d="M39312 53600
L36312 53594
" />
<path d="M39312 50400
L39312 53600
" />
<path d="M37812 53500
L37812 53300
" />
<path d="M38212 53100
L37912 53100
" />
<path d="M37912 53500
L37812 53500
" />
<path d="M38112 53300
L37612 53300
" />
<path d="M37712 53100
L37412 53100
" />
<path d="M37912 53300
L37912 53500
" />
<path d="M37812 51200
L37812 51000
" />
<path d="M37912 51200
L37812 51200
" />
<path d="M37912 51000
L37912 51200
" />
<path d="M38112 51000
L37612 51000
" />
<path d="M37712 50800
L37412 50800
" />
<path d="M38212 50800
L37912 50800
" />
<path d="M37912 52600
L37812 52400
" />
<path d="M37912 52500
L37912 52600
" />
<path d="M38012 52700
L37912 52500
" />
<path d="M37712 52000
L37312 52000
" />
<path d="M37712 51700
L37712 52000
" />
<path d="M37712 52300
L37712 51700
" />
<path d="M38012 51700
L38012 52000
" />
<path d="M37712 52000
L38012 51700
" />
<path d="M38012 52300
L37712 52000
" />
<path d="M38012 52000
L38012 52300
" />
<path d="M38312 52000
L38012 52000
" />
<path d="M39312 42900
L39312 43400
" />
<path d="M36312 42899
L39312 42900
" />
<path d="M36312 46202
L36312 42902
" />
<path d="M39312 46200
L36312 46194
" />
<path d="M39312 43000
L39312 46200
" />
<path d="M37812 46100
L37812 45900
" />
<path d="M38212 45700
L37912 45700
" />
<path d="M37912 46100
L37812 46100
" />
<path d="M38112 45900
L37612 45900
" />
<path d="M37712 45700
L37412 45700
" />
<path d="M37912 45900
L37912 46100
" />
<path d="M37812 43800
L37812 43600
" />
<path d="M37912 43800
L37812 43800
" />
<path d="M37912 43600
L37912 43800
" />
<path d="M38112 43600
L37612 43600
" />
<path d="M37712 43400
L37412 43400
" />
<path d="M38212 43400
L37912 43400
" />
<path d="M37912 45200
L37812 45000
" />
<path d="M37912 45100
L37912 45200
" />
<path d="M38012 45300
L37912 45100
" />
<path d="M37712 44600
L37312 44600
" />
<path d="M37712 44300
L37712 44600
" />
<path d="M37712 44900
L37712 44300
" />
<path d="M38012 44300
L38012 44600
" />
<path d="M37712 44600
L38012 44300
" />
<path d="M38012 44900
L37712 44600
" />
<path d="M38012 44600
L38012 44900
" />
<path d="M38312 44600
L38012 44600
" />
<path d="M39312 35500
L39312 36000
" />
<path d="M36312 35499
L39312 35500
" />
<path d="M36312 38802
L36312 35502
" />
<path d="M39312 38800
L36312 38794
" />
<path d="M39312 35600
L39312 38800
" />
<path d="M37812 38700
L37812 38500
" />
<path d="M38212 38300
L37912 38300
" />
<path d="M37912 38700
L37812 38700
" />
<path d="M38112 38500
L37612 38500
" />
<path d="M37712 38300
L37412 38300
" />
<path d="M37912 38500
L37912 38700
" />
<path d="M37812 36400
L37812 36200
" />
<path d="M37912 36400
L37812 36400
" />
<path d="M37912 36200
L37912 36400
" />
<path d="M38112 36200
L37612 36200
" />
<path d="M37712 36000
L37412 36000
" />
<path d="M38212 36000
L37912 36000
" />
<path d="M37912 37800
L37812 37600
" />
<path d="M37912 37700
L37912 37800
" />
<path d="M38012 37900
L37912 37700
" />
<path d="M37712 37200
L37312 37200
" />
<path d="M37712 36900
L37712 37200
" />
<path d="M37712 37500
L37712 36900
" />
<path d="M38012 36900
L38012 37200
" />
<path d="M37712 37200
L38012 36900
" />
<path d="M38012 37500
L37712 37200
" />
<path d="M38012 37200
L38012 37500
" />
<path d="M38312 37200
L38012 37200
" />
<path d="M39312 28100
L39312 28600
" />
<path d="M36312 28099
L39312 28100
" />
<path d="M36312 31402
L36312 28102
" />
<path d="M39312 31400
L36312 31394
" />
<path d="M39312 28200
L39312 31400
" />
<path d="M37812 31300
L37812 31100
" />
<path d="M38212 30900
L37912 30900
" />
<path d="M37912 31300
L37812 31300
" />
<path d="M38112 31100
L37612 31100
" />
<path d="M37712 30900
L37412 30900
" />
<path d="M37912 31100
L37912 31300
" />
<path d="M37812 29000
L37812 28800
" />
<path d="M37912 29000
L37812 29000
" />
<path d="M37912 28800
L37912 29000
" />
<path d="M38112 28800
L37612 28800
" />
<path d="M37712 28600
L37412 28600
" />
<path d="M38212 28600
L37912 28600
" />
<path d="M37912 30400
L37812 30200
" />
<path d="M37912 30300
L37912 30400
" />
<path d="M38012 30500
L37912 30300
" />
<path d="M37712 29800
L37312 29800
" />
<path d="M37712 29500
L37712 29800
" />
<path d="M37712 30100
L37712 29500
" />
<path d="M38012 29500
L38012 29800
" />
<path d="M37712 29800
L38012 29500
" />
<path d="M38012 30100
L37712 29800
" />
<path d="M38012 29800
L38012 30100
" />
<path d="M38312 29800
L38012 29800
" />
<path d="M65125 51562
L65064 51562
" />
<path d="M66037 51562
L65976 51562
" />
<path d="M65126 51767.3 A590.551 590.551 0.0 0 0 65126 52587.1 " />
<path d="M65976.3 52587.1 A590.551 590.551 0.0 0 0 65976.4 51767.3 " />
<path d="M65064.8 51563 A783.465 783.465 0.0 0 0 65126.5 52835.6 " />
<path d="M65975.8 52835.6 A783.465 783.465 0.0 0 0 66037.6 51563 " />
<path d="M65125 43519
L65064 43519
" />
<path d="M66037 43519
L65976 43519
" />
<path d="M65126 43724 A590.551 590.551 0.0 0 0 65126 44543.8 " />
<path d="M65976.3 44543.8 A590.551 590.551 0.0 0 0 65976.4 43724 " />
<path d="M65064.8 43519.7 A783.465 783.465 0.0 0 0 65126.5 44792.3 " />
<path d="M65975.8 44792.3 A783.465 783.465 0.0 0 0 66037.6 43519.7 " />
<path d="M65125 37500
L65064 37500
" />
<path d="M66037 37500
L65976 37500
" />
<path d="M65126 37704.3 A590.551 590.551 0.0 0 0 65126 38524.1 " />
<path d="M65976.3 38524.1 A590.551 590.551 0.0 0 0 65976.4 37704.3 " />
<path d="M65064.8 37500 A783.465 783.465 0.0 0 0 65126.5 38772.6 " />
<path d="M65975.8 38772.6 A783.465 783.465 0.0 0 0 66037.6 37500 " />
<path d="M65125 29405
L65064 29405
" />
<path d="M66037 29405
L65976 29405
" />
<path d="M65126 29609.9 A590.551 590.551 0.0 0 0 65126 30429.6 " />
<path d="M65976.3 30429.6 A590.551 590.551 0.0 0 0 65976.4 29609.9 " />
<path d="M65064.8 29405.5 A783.465 783.465 0.0 0 0 65126.5 30678.1 " />
<path d="M65975.8 30678.1 A783.465 783.465 0.0 0 0 66037.6 29405.5 " />
<path d="M65125 21448
L65064 21448
" />
<path d="M66037 21448
L65976 21448
" />
<path d="M65126 21653.2 A590.551 590.551 0.0 0 0 65126 22472.9 " />
<path d="M65976.3 22472.9 A590.551 590.551 0.0 0 0 65976.4 21653.2 " />
<path d="M65064.8 21448.8 A783.465 783.465 0.0 0 0 65126.5 22721.4 " />
<path d="M65975.8 22721.4 A783.465 783.465 0.0 0 0 66037.6 21448.8 " />
<path d="M65125 53472
L65064 53472
" />
<path d="M66037 53472
L65976 53472
" />
<path d="M65126 53676.8 A590.551 590.551 0.0 0 0 65126 54496.5 " />
<path d="M65976.3 54496.5 A590.551 590.551 0.0 0 0 65976.4 53676.8 " />
<path d="M65064.8 53472.4 A783.465 783.465 0.0 0 0 65126.5 54745 " />
<path d="M65975.8 54745 A783.465 783.465 0.0 0 0 66037.6 53472.4 " />
<path d="M65125 45444
L65064 45444
" />
<path d="M66037 45444
L65976 45444
" />
<path d="M65126 45649.2 A590.551 590.551 0.0 0 0 65126 46468.9 " />
<path d="M65976.3 46468.9 A590.551 590.551 0.0 0 0 65976.4 45649.2 " />
<path d="M65064.8 45444.9 A783.465 783.465 0.0 0 0 65126.5 46717.5 " />
<path d="M65975.8 46717.5 A783.465 783.465 0.0 0 0 66037.6 45444.9 " />
<path d="M65125 35570
L65064 35570
" />
<path d="M66037 35570
L65976 35570
" />
<path d="M65126 35775.2 A590.551 590.551 0.0 0 0 65126 36594.9 " />
<path d="M65976.3 36594.9 A590.551 590.551 0.0 0 0 65976.4 35775.2 " />
<path d="M65064.8 35570.9 A783.465 783.465 0.0 0 0 65126.5 36843.4 " />
<path d="M65975.8 36843.4 A783.465 783.465 0.0 0 0 66037.6 35570.9 " />
<path d="M65122 27476
L65060 27476
" />
<path d="M66033 27476
L65972 27476
" />
<path d="M65122 27680.7 A590.551 590.551 0.0 0 0 65122.1 28500.4 " />
<path d="M65972.4 28500.4 A590.551 590.551 0.0 0 0 65972.4 27680.7 " />
<path d="M65060.8 27476.4 A783.465 783.465 0.0 0 0 65122.6 28749 " />
<path d="M65971.9 28749 A783.465 783.465 0.0 0 0 66033.7 27476.4 " />
<path d="M65125 19519
L65064 19519
" />
<path d="M66037 19519
L65976 19519
" />
<path d="M65126 19724 A590.551 590.551 0.0 0 0 65126 20543.8 " />
<path d="M65976.3 20543.8 A590.551 590.551 0.0 0 0 65976.4 19724 " />
<path d="M65064.8 19519.7 A783.465 783.465 0.0 0 0 65126.5 20792.3 " />
<path d="M65975.8 20792.3 A783.465 783.465 0.0 0 0 66037.6 19519.7 " />
<g >
</g>
<g >
</g>
<g >
</g>
<g >
</g>
<g >
</g>
<g >
</g>
<g >
</g>
<g >
</g>
<g >
</g>
<g >
</g>
<g >
</g>
<g >
</g>
<g >
</g>
<g >
</g>
<g >
</g>
<g >
</g>
<g >
</g>
<g >
</g>
<g >
</g>
<g >
</g>
<g >
</g>
<g >
</g>
<g >
</g>
<g >
</g>
<g >
</g>
<g >
</g>
<g >
</g>
<g >
</g>
<g >
</g>
<g >
</g>
<g >
</g>
<g >
</g>
<g >
</g>
<g >
</g>
<g >
</g>
<g >
</g>
<g >
</g>
<g >
</g>
<g >
</g>
<g >
</g>
<g >
</g>
<g >
</g>
<g >
</g>
<g >
</g>
<g >
</g>
<g >
</g>
<g >
</g>
<g >
</g>
<g >
</g>
<g >
</g>
<g >
</g>
<g >
</g>
<g >
</g>
<g >
</g>
<g >
</g>
<g >
</g>
<g >
</g>
<g >
</g>
<g >
</g>
<g >
</g>
<g >
</g>
<g >
</g>
<g >
</g>
<g >
</g>
<g >
</g>
<g >
</g>
<g >
</g>
</g>
<g style="fill:#000000; fill-opacity:0.0; 
stroke:#000000; stroke-width:47.2441; stroke-opacity:1; 
stroke-linecap:round; stroke-linejoin:round;">
</g>
<g style="fill:#000000; fill-opacity:0.0; 
stroke:#000000; stroke-width:59.0551; stroke-opacity:1; 
stroke-linecap:round; stroke-linejoin:round;">
<text x="61271.7" y="20140.6"
textLength="564.211" font-size="524.934" lengthAdjust="spacingAndGlyphs"
text-anchor="middle" opacity="0">-</text>
<path d="M61121 19971
L61421 19971
" />
<text x="61312.6" y="22446.9"
textLength="564.211" font-size="524.934" lengthAdjust="spacingAndGlyphs"
text-anchor="middle" opacity="0">+</text>
<path d="M61162 22278
L61462 22278
" />
<path d="M61312 22428
L61312 22128
" />
<text x="61271.7" y="52140.6"
textLength="564.211" font-size="524.934" lengthAdjust="spacingAndGlyphs"
text-anchor="middle" opacity="0">-</text>
<path d="M61121 51971
L61421 51971
" />
<text x="61312.6" y="54446.9"
textLength="564.211" font-size="524.934" lengthAdjust="spacingAndGlyphs"
text-anchor="middle" opacity="0">+</text>
<path d="M61162 54278
L61462 54278
" />
<path d="M61312 54428
L61312 54128
" />
<text x="61271.7" y="44140.6"
textLength="564.211" font-size="524.934" lengthAdjust="spacingAndGlyphs"
text-anchor="middle" opacity="0">-</text>
<path d="M61121 43971
L61421 43971
" />
<text x="61312.6" y="46446.9"
textLength="564.211" font-size="524.934" lengthAdjust="spacingAndGlyphs"
text-anchor="middle" opacity="0">+</text>
<path d="M61162 46278
L61462 46278
" />
<path d="M61312 46428
L61312 46128
" />
<text x="61271.7" y="36140.6"
textLength="564.211" font-size="524.934" lengthAdjust="spacingAndGlyphs"
text-anchor="middle" opacity="0">-</text>
<path d="M61121 35971
L61421 35971
" />
<text x="61312.6" y="38446.9"
textLength="564.211" font-size="524.934" lengthAdjust="spacingAndGlyphs"
text-anchor="middle" opacity="0">+</text>
<path d="M61162 38278
L61462 38278
" />
<path d="M61312 38428
L61312 38128
" />
<text x="61271.7" y="28140.6"
textLength="564.211" font-size="524.934" lengthAdjust="spacingAndGlyphs"
text-anchor="middle" opacity="0">-</text>
<path d="M61121 27971
L61421 27971
" />
<text x="61312.6" y="30446.9"
textLength="564.211" font-size="524.934" lengthAdjust="spacingAndGlyphs"
text-anchor="middle" opacity="0">+</text>
<path d="M61162 30278
L61462 30278
" />
<path d="M61312 30428
L61312 30128
" />
<g transform="rotate(-90 51506.3 51440.9)">
<text x="51506.3" y="51637.8"
textLength="564.211" font-size="524.934" lengthAdjust="spacingAndGlyphs"
text-anchor="middle" opacity="0">-</text>
</g>
<path d="M51534 51590
L51534 51290
" />
<g transform="rotate(-90 53812.6 51400)">
<text x="53812.6" y="51596.9"
textLength="564.211" font-size="524.934" lengthAdjust="spacingAndGlyphs"
text-anchor="middle" opacity="0">+</text>
</g>
<path d="M53840 51549
L53840 51250
" />
<path d="M53990 51400
L53690 51400
" />
<g transform="rotate(-90 51506.3 44040.9)">
<text x="51506.3" y="44237.8"
textLength="564.211" font-size="524.934" lengthAdjust="spacingAndGlyphs"
text-anchor="middle" opacity="0">-</text>
</g>
<path d="M51534 44190
L51534 43890
" />
<g transform="rotate(-90 53812.6 44000)">
<text x="53812.6" y="44196.9"
textLength="564.211" font-size="524.934" lengthAdjust="spacingAndGlyphs"
text-anchor="middle" opacity="0">+</text>
</g>
<path d="M53840 44149
L53840 43850
" />
<path d="M53990 44000
L53690 44000
" />
<g transform="rotate(-90 51506.3 36640.9)">
<text x="51506.3" y="36837.8"
textLength="564.211" font-size="524.934" lengthAdjust="spacingAndGlyphs"
text-anchor="middle" opacity="0">-</text>
</g>
<path d="M51534 36790
L51534 36490
" />
<g transform="rotate(-90 53812.6 36600)">
<text x="53812.6" y="36796.9"
textLength="564.211" font-size="524.934" lengthAdjust="spacingAndGlyphs"
text-anchor="middle" opacity="0">+</text>
</g>
<path d="M53840 36749
L53840 36450
" />
<path d="M53990 36600
L53690 36600
" />
<g transform="rotate(-90 51506.3 29240.9)">
<text x="51506.3" y="29437.8"
textLength="564.211" font-size="524.934" lengthAdjust="spacingAndGlyphs"
text-anchor="middle" opacity="0">-</text>
</g>
<path d="M51534 29390
L51534 29090
" />
<g transform="rotate(-90 53812.6 29200)">
<text x="53812.6" y="29396.9"
textLength="564.211" font-size="524.934" lengthAdjust="spacingAndGlyphs"
text-anchor="middle" opacity="0">+</text>
</g>
<path d="M53840 29349
L53840 29050
" />
<path d="M53990 29200
L53690 29200
" />
<g transform="rotate(-90 27456.3 22940.9)">
<text x="27456.3" y="23137.8"
textLength="564.211" font-size="524.934" lengthAdjust="spacingAndGlyphs"
text-anchor="middle" opacity="0">-</text>
</g>
<path d="M27484 23090
L27484 22790
" />
<g transform="rotate(-90 29762.6 22900)">
<text x="29762.6" y="23096.9"
textLength="564.211" font-size="524.934" lengthAdjust="spacingAndGlyphs"
text-anchor="middle" opacity="0">+</text>
</g>
<path d="M29790 23049
L29790 22750
" />
<path d="M29940 22900
L29640 22900
" />
<g transform="rotate(-90 44106.3 51440.9)">
<text x="44106.3" y="51637.8"
textLength="564.211" font-size="524.934" lengthAdjust="spacingAndGlyphs"
text-anchor="middle" opacity="0">-</text>
</g>
<path d="M44134 51590
L44134 51290
" />
<g transform="rotate(-90 46412.6 51400)">
<text x="46412.6" y="51596.9"
textLength="564.211" font-size="524.934" lengthAdjust="spacingAndGlyphs"
text-anchor="middle" opacity="0">+</text>
</g>
<path d="M46440 51549
L46440 51250
" />
<path d="M46590 51400
L46290 51400
" />
<g transform="rotate(-90 44106.3 44040.9)">
<text x="44106.3" y="44237.8"
textLength="564.211" font-size="524.934" lengthAdjust="spacingAndGlyphs"
text-anchor="middle" opacity="0">-</text>
</g>
<path d="M44134 44190
L44134 43890
" />
<g transform="rotate(-90 46412.6 44000)">
<text x="46412.6" y="44196.9"
textLength="564.211" font-size="524.934" lengthAdjust="spacingAndGlyphs"
text-anchor="middle" opacity="0">+</text>
</g>
<path d="M46440 44149
L46440 43850
" />
<path d="M46590 44000
L46290 44000
" />
<g transform="rotate(-90 44106.3 36640.9)">
<text x="44106.3" y="36837.8"
textLength="564.211" font-size="524.934" lengthAdjust="spacingAndGlyphs"
text-anchor="middle" opacity="0">-</text>
</g>
<path d="M44134 36790
L44134 36490
" />
<g transform="rotate(-90 46412.6 36600)">
<text x="46412.6" y="36796.9"
textLength="564.211" font-size="524.934" lengthAdjust="spacingAndGlyphs"
text-anchor="middle" opacity="0">+</text>
</g>
<path d="M46440 36749
L46440 36450
" />
<path d="M46590 36600
L46290 36600
" />
<g transform="rotate(-90 44106.3 29240.9)">
<text x="44106.3" y="29437.8"
textLength="564.211" font-size="524.934" lengthAdjust="spacingAndGlyphs"
text-anchor="middle" opacity="0">-</text>
</g>
<path d="M44134 29390
L44134 29090
" />
<g transform="rotate(-90 46412.6 29200)">
<text x="46412.6" y="29396.9"
textLength="564.211" font-size="524.934" lengthAdjust="spacingAndGlyphs"
text-anchor="middle" opacity="0">+</text>
</g>
<path d="M46440 29349
L46440 29050
" />
<path d="M46590 29200
L46290 29200
" />
<g transform="rotate(-90 36706.3 51440.9)">
<text x="36706.3" y="51637.8"
textLength="564.211" font-size="524.934" lengthAdjust="spacingAndGlyphs"
text-anchor="middle" opacity="0">-</text>
</g>
<path d="M36734 51590
L36734 51290
" />
<g transform="rotate(-90 39012.6 51400)">
<text x="39012.6" y="51596.9"
textLength="564.211" font-size="524.934" lengthAdjust="spacingAndGlyphs"
text-anchor="middle" opacity="0">+</text>
</g>
<path d="M39040 51549
L39040 51250
" />
<path d="M39190 51400
L38890 51400
" />
<g transform="rotate(-90 36706.3 44040.9)">
<text x="36706.3" y="44237.8"
textLength="564.211" font-size="524.934" lengthAdjust="spacingAndGlyphs"
text-anchor="middle" opacity="0">-</text>
</g>
<path d="M36734 44190
L36734 43890
" />
<g transform="rotate(-90 39012.6 44000)">
<text x="39012.6" y="44196.9"
textLength="564.211" font-size="524.934" lengthAdjust="spacingAndGlyphs"
text-anchor="middle" opacity="0">+</text>
</g>
<path d="M39040 44149
L39040 43850
" />
<path d="M39190 44000
L38890 44000
" />
<g transform="rotate(-90 36706.3 36640.9)">
<text x="36706.3" y="36837.8"
textLength="564.211" font-size="524.934" lengthAdjust="spacingAndGlyphs"
text-anchor="middle" opacity="0">-</text>
</g>
<path d="M36734 36790
L36734 36490
" />
<g transform="rotate(-90 39012.6 36600)">
<text x="39012.6" y="36796.9"
textLength="564.211" font-size="524.934" lengthAdjust="spacingAndGlyphs"
text-anchor="middle" opacity="0">+</text>
</g>
<path d="M39040 36749
L39040 36450
" />
<path d="M39190 36600
L38890 36600
" />
<g transform="rotate(-90 36706.3 29240.9)">
<text x="36706.3" y="29437.8"
textLength="564.211" font-size="524.934" lengthAdjust="spacingAndGlyphs"
text-anchor="middle" opacity="0">-</text>
</g>
<path d="M36734 29390
L36734 29090
" />
<g transform="rotate(-90 39012.6 29200)">
<text x="39012.6" y="29396.9"
textLength="564.211" font-size="524.934" lengthAdjust="spacingAndGlyphs"
text-anchor="middle" opacity="0">+</text>
</g>
<path d="M39040 29349
L39040 29050
" />
<path d="M39190 29200
L38890 29200
" />
<g >
</g>
</g> 
</svg>
