  0
SECTION
  2
HEADER
  9
$ANGBASE
  50
0.0
  9
$ANGDIR
  70
1
  9
$MEASUREMENT
  70
0
  0
ENDSEC
  0
SECTION
  2
TABLES
  0
TABLE
  2
LTYPE
  70
4
  0
LTYPE
  5
40F
  2
CONTINUOUS
  70
0
  3
Solid line
  72
65
  73
0
  40
0.0
  0
LTYPE
  5
410
  2
DASHDOT
 70
0
  3
Dash Dot ____ _ ____ _
 72
65
 73
4
 40
2.0
 49
1.25
 49
-0.25
 49
0.25
 49
-0.25
  0
LTYPE
  5
411
  2
DASHED
 70
0
  3
Dashed __ __ __ __ __
 72
65
 73
2
 40
0.75
 49
0.5
 49
-0.25
  0
LTYPE
  5
43B
  2
DOTTED
 70
0
  3
Dotted .  .  .  .
 72
65
 73
2
 40
0.2
 49
0.0
 49
-0.2
  0
ENDTAB
  0
TABLE
  2
STYLE
  70
4
  0
STYLE
  2
KICAD
  70
0
  40
0
  41
1
  42
1
  50
0
  71
0
  3
isocp.shx
  0
STYLE
  2
KICADB
  70
0
  40
0
  41
1
  42
1
  50
0
  71
0
  3
isocp.shx
  0
STYLE
  2
KICADI
  70
0
  40
0
  41
1
  42
1
  50
15
  71
0
  3
isocp.shx
  0
STYLE
  2
KICADBI
  70
0
  40
0
  41
1
  42
1
  50
15
  71
0
  3
isocp.shx
  0
ENDTAB
  0
TABLE
  2
LAYER
  70
1
  0
LAYER
  2
BLACK
  70
0
  62
7
  6
CONTINUOUS
  0
ENDTAB
  0
ENDSEC
  0
SECTION
  2
ENTITIES
0
LINE
8
BLACK
6
CONTINUOUS
10
5.86511
20
-1.88917
11
6.64041
21
-1.89075
0
LINE
8
BLACK
6
CONTINUOUS
10
6.64041
20
-1.89075
11
6.64055
21
-1.89073
0
LINE
8
BLACK
6
CONTINUOUS
10
6.64055
20
-1.89073
11
6.6407
21
-1.89075
0
LINE
8
BLACK
6
CONTINUOUS
10
6.6407
20
-1.89075
11
6.6407
21
-1.89075
0
LINE
8
BLACK
6
CONTINUOUS
10
6.6407
20
-1.89075
11
6.64084
21
-1.89076
0
LINE
8
BLACK
6
CONTINUOUS
10
6.64084
20
-1.89076
11
6.64113
21
-1.89079
0
LINE
8
BLACK
6
CONTINUOUS
10
6.64113
20
-1.89079
11
6.64113
21
-1.89079
0
LINE
8
BLACK
6
CONTINUOUS
10
6.64113
20
-1.89079
11
6.64114
21
-1.89079
0
LINE
8
BLACK
6
CONTINUOUS
10
6.64114
20
-1.89079
11
6.64141
21
-1.89088
0
LINE
8
BLACK
6
CONTINUOUS
10
6.64141
20
-1.89088
11
6.64169
21
-1.89096
0
LINE
8
BLACK
6
CONTINUOUS
10
6.64169
20
-1.89096
11
6.64169
21
-1.89096
0
LINE
8
BLACK
6
CONTINUOUS
10
6.64169
20
-1.89096
11
6.64169
21
-1.89096
0
LINE
8
BLACK
6
CONTINUOUS
10
6.64169
20
-1.89096
11
6.64195
21
-1.8911
0
LINE
8
BLACK
6
CONTINUOUS
10
6.64195
20
-1.8911
11
6.6422
21
-1.89123
0
LINE
8
BLACK
6
CONTINUOUS
10
6.6422
20
-1.89123
11
6.6422
21
-1.89124
0
LINE
8
BLACK
6
CONTINUOUS
10
6.6422
20
-1.89124
11
6.6422
21
-1.89124
0
LINE
8
BLACK
6
CONTINUOUS
10
6.6422
20
-1.89124
11
6.64243
21
-1.89142
0
LINE
8
BLACK
6
CONTINUOUS
10
6.64243
20
-1.89142
11
6.64265
21
-1.8916
0
LINE
8
BLACK
6
CONTINUOUS
10
6.64265
20
-1.8916
11
6.64265
21
-1.8916
0
LINE
8
BLACK
6
CONTINUOUS
10
6.64265
20
-1.8916
11
6.64265
21
-1.89161
0
LINE
8
BLACK
6
CONTINUOUS
10
6.64265
20
-1.89161
11
6.64284
21
-1.89183
0
LINE
8
BLACK
6
CONTINUOUS
10
6.64284
20
-1.89183
11
6.64302
21
-1.89205
0
LINE
8
BLACK
6
CONTINUOUS
10
6.64302
20
-1.89205
11
6.64302
21
-1.89205
0
LINE
8
BLACK
6
CONTINUOUS
10
6.64302
20
-1.89205
11
6.64302
21
-1.89206
0
LINE
8
BLACK
6
CONTINUOUS
10
6.64302
20
-1.89206
11
6.64316
21
-1.89232
0
LINE
8
BLACK
6
CONTINUOUS
10
6.64316
20
-1.89232
11
6.64329
21
-1.89256
0
LINE
8
BLACK
6
CONTINUOUS
10
6.64329
20
-1.89256
11
6.64329
21
-1.89257
0
LINE
8
BLACK
6
CONTINUOUS
10
6.64329
20
-1.89257
11
6.64329
21
-1.89257
0
LINE
8
BLACK
6
CONTINUOUS
10
6.64329
20
-1.89257
11
6.64338
21
-1.89286
0
LINE
8
BLACK
6
CONTINUOUS
10
6.64338
20
-1.89286
11
6.64346
21
-1.89312
0
LINE
8
BLACK
6
CONTINUOUS
10
6.64346
20
-1.89312
11
6.64346
21
-1.89312
0
LINE
8
BLACK
6
CONTINUOUS
10
6.64346
20
-1.89312
11
6.64346
21
-1.89313
0
LINE
8
BLACK
6
CONTINUOUS
10
6.64346
20
-1.89313
11
6.64349
21
-1.89343
0
LINE
8
BLACK
6
CONTINUOUS
10
6.64349
20
-1.89343
11
6.6435
21
-1.89356
0
LINE
8
BLACK
6
CONTINUOUS
10
6.6435
20
-1.89356
11
6.6435
21
-1.89356
0
LINE
8
BLACK
6
CONTINUOUS
10
6.6435
20
-1.89356
11
6.64352
21
-1.89371
0
LINE
8
BLACK
6
CONTINUOUS
10
6.64352
20
-1.89371
11
6.6435
21
-1.89385
0
LINE
8
BLACK
6
CONTINUOUS
10
6.6435
20
-1.89385
11
6.64468
21
-5.8345
0
LINE
8
BLACK
6
CONTINUOUS
10
6.64468
20
-5.8345
11
6.6447
21
-5.83465
0
LINE
8
BLACK
6
CONTINUOUS
10
6.6447
20
-5.83465
11
6.64467
21
-5.83494
0
LINE
8
BLACK
6
CONTINUOUS
10
6.64467
20
-5.83494
11
6.64464
21
-5.83522
0
LINE
8
BLACK
6
CONTINUOUS
10
6.64464
20
-5.83522
11
6.64464
21
-5.83523
0
LINE
8
BLACK
6
CONTINUOUS
10
6.64464
20
-5.83523
11
6.64464
21
-5.83523
0
LINE
8
BLACK
6
CONTINUOUS
10
6.64464
20
-5.83523
11
6.64455
21
-5.83551
0
LINE
8
BLACK
6
CONTINUOUS
10
6.64455
20
-5.83551
11
6.64447
21
-5.83578
0
LINE
8
BLACK
6
CONTINUOUS
10
6.64447
20
-5.83578
11
6.64447
21
-5.83578
0
LINE
8
BLACK
6
CONTINUOUS
10
6.64447
20
-5.83578
11
6.64447
21
-5.83578
0
LINE
8
BLACK
6
CONTINUOUS
10
6.64447
20
-5.83578
11
6.64432
21
-5.83606
0
LINE
8
BLACK
6
CONTINUOUS
10
6.64432
20
-5.83606
11
6.6442
21
-5.83629
0
LINE
8
BLACK
6
CONTINUOUS
10
6.6442
20
-5.83629
11
6.6442
21
-5.83629
0
LINE
8
BLACK
6
CONTINUOUS
10
6.6442
20
-5.83629
11
6.6442
21
-5.8363
0
LINE
8
BLACK
6
CONTINUOUS
10
6.6442
20
-5.8363
11
6.64399
21
-5.83655
0
LINE
8
BLACK
6
CONTINUOUS
10
6.64399
20
-5.83655
11
6.64383
21
-5.83674
0
LINE
8
BLACK
6
CONTINUOUS
10
6.64383
20
-5.83674
11
6.64383
21
-5.83674
0
LINE
8
BLACK
6
CONTINUOUS
10
6.64383
20
-5.83674
11
6.64383
21
-5.83675
0
LINE
8
BLACK
6
CONTINUOUS
10
6.64383
20
-5.83675
11
6.64358
21
-5.83695
0
LINE
8
BLACK
6
CONTINUOUS
10
6.64358
20
-5.83695
11
6.64338
21
-5.83711
0
LINE
8
BLACK
6
CONTINUOUS
10
6.64338
20
-5.83711
11
6.64338
21
-5.83711
0
LINE
8
BLACK
6
CONTINUOUS
10
6.64338
20
-5.83711
11
6.64338
21
-5.83711
0
LINE
8
BLACK
6
CONTINUOUS
10
6.64338
20
-5.83711
11
6.6431
21
-5.83726
0
LINE
8
BLACK
6
CONTINUOUS
10
6.6431
20
-5.83726
11
6.64287
21
-5.83739
0
LINE
8
BLACK
6
CONTINUOUS
10
6.64287
20
-5.83739
11
6.64287
21
-5.83739
0
LINE
8
BLACK
6
CONTINUOUS
10
6.64287
20
-5.83739
11
6.64287
21
-5.83739
0
LINE
8
BLACK
6
CONTINUOUS
10
6.64287
20
-5.83739
11
6.64257
21
-5.83748
0
LINE
8
BLACK
6
CONTINUOUS
10
6.64257
20
-5.83748
11
6.64231
21
-5.83756
0
LINE
8
BLACK
6
CONTINUOUS
10
6.64231
20
-5.83756
11
6.64231
21
-5.83756
0
LINE
8
BLACK
6
CONTINUOUS
10
6.64231
20
-5.83756
11
6.64231
21
-5.83756
0
LINE
8
BLACK
6
CONTINUOUS
10
6.64231
20
-5.83756
11
6.64202
21
-5.83758
0
LINE
8
BLACK
6
CONTINUOUS
10
6.64202
20
-5.83758
11
6.64173
21
-5.83761
0
LINE
8
BLACK
6
CONTINUOUS
10
6.64173
20
-5.83761
11
6.64159
21
-5.8376
0
LINE
8
BLACK
6
CONTINUOUS
10
6.64159
20
-5.8376
11
3.14699
21
-5.83484
0
LINE
8
BLACK
6
CONTINUOUS
10
3.14699
20
-5.83484
11
3.14685
21
-5.83486
0
LINE
8
BLACK
6
CONTINUOUS
10
3.14685
20
-5.83486
11
3.1467
21
-5.83484
0
LINE
8
BLACK
6
CONTINUOUS
10
3.1467
20
-5.83484
11
3.1467
21
-5.83484
0
LINE
8
BLACK
6
CONTINUOUS
10
3.1467
20
-5.83484
11
3.14657
21
-5.83483
0
LINE
8
BLACK
6
CONTINUOUS
10
3.14657
20
-5.83483
11
3.14627
21
-5.8348
0
LINE
8
BLACK
6
CONTINUOUS
10
3.14627
20
-5.8348
11
3.14627
21
-5.8348
0
LINE
8
BLACK
6
CONTINUOUS
10
3.14627
20
-5.8348
11
3.14627
21
-5.8348
0
LINE
8
BLACK
6
CONTINUOUS
10
3.14627
20
-5.8348
11
3.14601
21
-5.83472
0
LINE
8
BLACK
6
CONTINUOUS
10
3.14601
20
-5.83472
11
3.14571
21
-5.83463
0
LINE
8
BLACK
6
CONTINUOUS
10
3.14571
20
-5.83463
11
3.14571
21
-5.83463
0
LINE
8
BLACK
6
CONTINUOUS
10
3.14571
20
-5.83463
11
3.14571
21
-5.83463
0
LINE
8
BLACK
6
CONTINUOUS
10
3.14571
20
-5.83463
11
3.14549
21
-5.83451
0
LINE
8
BLACK
6
CONTINUOUS
10
3.14549
20
-5.83451
11
3.1452
21
-5.83436
0
LINE
8
BLACK
6
CONTINUOUS
10
3.1452
20
-5.83436
11
3.1452
21
-5.83436
0
LINE
8
BLACK
6
CONTINUOUS
10
3.1452
20
-5.83436
11
3.1452
21
-5.83436
0
LINE
8
BLACK
6
CONTINUOUS
10
3.1452
20
-5.83436
11
3.14501
21
-5.8342
0
LINE
8
BLACK
6
CONTINUOUS
10
3.14501
20
-5.8342
11
3.14475
21
-5.83399
0
LINE
8
BLACK
6
CONTINUOUS
10
3.14475
20
-5.83399
11
3.14475
21
-5.83399
0
LINE
8
BLACK
6
CONTINUOUS
10
3.14475
20
-5.83399
11
3.14475
21
-5.83399
0
LINE
8
BLACK
6
CONTINUOUS
10
3.14475
20
-5.83399
11
3.14458
21
-5.83378
0
LINE
8
BLACK
6
CONTINUOUS
10
3.14458
20
-5.83378
11
3.14438
21
-5.83354
0
LINE
8
BLACK
6
CONTINUOUS
10
3.14438
20
-5.83354
11
3.14438
21
-5.83354
0
LINE
8
BLACK
6
CONTINUOUS
10
3.14438
20
-5.83354
11
3.14438
21
-5.83354
0
LINE
8
BLACK
6
CONTINUOUS
10
3.14438
20
-5.83354
11
3.14426
21
-5.8333
0
LINE
8
BLACK
6
CONTINUOUS
10
3.14426
20
-5.8333
11
3.14411
21
-5.83303
0
LINE
8
BLACK
6
CONTINUOUS
10
3.14411
20
-5.83303
11
3.14411
21
-5.83302
0
LINE
8
BLACK
6
CONTINUOUS
10
3.14411
20
-5.83302
11
3.14411
21
-5.83302
0
LINE
8
BLACK
6
CONTINUOUS
10
3.14411
20
-5.83302
11
3.14403
21
-5.83277
0
LINE
8
BLACK
6
CONTINUOUS
10
3.14403
20
-5.83277
11
3.14394
21
-5.83247
0
LINE
8
BLACK
6
CONTINUOUS
10
3.14394
20
-5.83247
11
3.14394
21
-5.83247
0
LINE
8
BLACK
6
CONTINUOUS
10
3.14394
20
-5.83247
11
3.14394
21
-5.83247
0
LINE
8
BLACK
6
CONTINUOUS
10
3.14394
20
-5.83247
11
3.14391
21
-5.83221
0
LINE
8
BLACK
6
CONTINUOUS
10
3.14391
20
-5.83221
11
3.1439
21
-5.83203
0
LINE
8
BLACK
6
CONTINUOUS
10
3.1439
20
-5.83203
11
3.1439
21
-5.83203
0
LINE
8
BLACK
6
CONTINUOUS
10
3.1439
20
-5.83203
11
3.14388
21
-5.83189
0
LINE
8
BLACK
6
CONTINUOUS
10
3.14388
20
-5.83189
11
3.1439
21
-5.83174
0
LINE
8
BLACK
6
CONTINUOUS
10
3.1439
20
-5.83174
11
3.1439
21
-3.10083
0
LINE
8
BLACK
6
CONTINUOUS
10
3.1439
20
-3.10083
11
2.89603
21
-2.85453
0
LINE
8
BLACK
6
CONTINUOUS
10
2.89603
20
-2.85453
11
2.70408
21
-2.85453
0
LINE
8
BLACK
6
CONTINUOUS
10
2.70408
20
-2.85453
11
2.70394
21
-2.85454
0
LINE
8
BLACK
6
CONTINUOUS
10
2.70394
20
-2.85454
11
2.70379
21
-2.85453
0
LINE
8
BLACK
6
CONTINUOUS
10
2.70379
20
-2.85453
11
2.70379
21
-2.85453
0
LINE
8
BLACK
6
CONTINUOUS
10
2.70379
20
-2.85453
11
2.70365
21
-2.85451
0
LINE
8
BLACK
6
CONTINUOUS
10
2.70365
20
-2.85451
11
2.70336
21
-2.85449
0
LINE
8
BLACK
6
CONTINUOUS
10
2.70336
20
-2.85449
11
2.70336
21
-2.85448
0
LINE
8
BLACK
6
CONTINUOUS
10
2.70336
20
-2.85448
11
2.70336
21
-2.85448
0
LINE
8
BLACK
6
CONTINUOUS
10
2.70336
20
-2.85448
11
2.70308
21
-2.8544
0
LINE
8
BLACK
6
CONTINUOUS
10
2.70308
20
-2.8544
11
2.70281
21
-2.85432
0
LINE
8
BLACK
6
CONTINUOUS
10
2.70281
20
-2.85432
11
2.7028
21
-2.85432
0
LINE
8
BLACK
6
CONTINUOUS
10
2.7028
20
-2.85432
11
2.7028
21
-2.85432
0
LINE
8
BLACK
6
CONTINUOUS
10
2.7028
20
-2.85432
11
2.70254
21
-2.85418
0
LINE
8
BLACK
6
CONTINUOUS
10
2.70254
20
-2.85418
11
2.70229
21
-2.85404
0
LINE
8
BLACK
6
CONTINUOUS
10
2.70229
20
-2.85404
11
2.70229
21
-2.85404
0
LINE
8
BLACK
6
CONTINUOUS
10
2.70229
20
-2.85404
11
2.70229
21
-2.85404
0
LINE
8
BLACK
6
CONTINUOUS
10
2.70229
20
-2.85404
11
2.70206
21
-2.85385
0
LINE
8
BLACK
6
CONTINUOUS
10
2.70206
20
-2.85385
11
2.70184
21
-2.85368
0
LINE
8
BLACK
6
CONTINUOUS
10
2.70184
20
-2.85368
11
2.70184
21
-2.85367
0
LINE
8
BLACK
6
CONTINUOUS
10
2.70184
20
-2.85367
11
2.70184
21
-2.85367
0
LINE
8
BLACK
6
CONTINUOUS
10
2.70184
20
-2.85367
11
2.70165
21
-2.85344
0
LINE
8
BLACK
6
CONTINUOUS
10
2.70165
20
-2.85344
11
2.70147
21
-2.85323
0
LINE
8
BLACK
6
CONTINUOUS
10
2.70147
20
-2.85323
11
2.70147
21
-2.85322
0
LINE
8
BLACK
6
CONTINUOUS
10
2.70147
20
-2.85322
11
2.70147
21
-2.85322
0
LINE
8
BLACK
6
CONTINUOUS
10
2.70147
20
-2.85322
11
2.70133
21
-2.85296
0
LINE
8
BLACK
6
CONTINUOUS
10
2.70133
20
-2.85296
11
2.7012
21
-2.85271
0
LINE
8
BLACK
6
CONTINUOUS
10
2.7012
20
-2.85271
11
2.7012
21
-2.85271
0
LINE
8
BLACK
6
CONTINUOUS
10
2.7012
20
-2.85271
11
2.7012
21
-2.85271
0
LINE
8
BLACK
6
CONTINUOUS
10
2.7012
20
-2.85271
11
2.70111
21
-2.85242
0
LINE
8
BLACK
6
CONTINUOUS
10
2.70111
20
-2.85242
11
2.70103
21
-2.85216
0
LINE
8
BLACK
6
CONTINUOUS
10
2.70103
20
-2.85216
11
2.70103
21
-2.85216
0
LINE
8
BLACK
6
CONTINUOUS
10
2.70103
20
-2.85216
11
2.70103
21
-2.85215
0
LINE
8
BLACK
6
CONTINUOUS
10
2.70103
20
-2.85215
11
2.701
21
-2.85184
0
LINE
8
BLACK
6
CONTINUOUS
10
2.701
20
-2.85184
11
2.70098
21
-2.85172
0
LINE
8
BLACK
6
CONTINUOUS
10
2.70098
20
-2.85172
11
2.70098
21
-2.85172
0
LINE
8
BLACK
6
CONTINUOUS
10
2.70098
20
-2.85172
11
2.70097
21
-2.85157
0
LINE
8
BLACK
6
CONTINUOUS
10
2.70097
20
-2.85157
11
2.70098
21
-2.85143
0
LINE
8
BLACK
6
CONTINUOUS
10
2.70098
20
-2.85143
11
2.6998
21
-1.98952
0
LINE
8
BLACK
6
CONTINUOUS
10
2.6998
20
-1.98952
11
2.69979
21
-1.98938
0
LINE
8
BLACK
6
CONTINUOUS
10
2.69979
20
-1.98938
11
2.6998
21
-1.98923
0
LINE
8
BLACK
6
CONTINUOUS
10
2.6998
20
-1.98923
11
2.6998
21
-1.98923
0
LINE
8
BLACK
6
CONTINUOUS
10
2.6998
20
-1.98923
11
2.69982
21
-1.98909
0
LINE
8
BLACK
6
CONTINUOUS
10
2.69982
20
-1.98909
11
2.69984
21
-1.9888
0
LINE
8
BLACK
6
CONTINUOUS
10
2.69984
20
-1.9888
11
2.69984
21
-1.9888
0
LINE
8
BLACK
6
CONTINUOUS
10
2.69984
20
-1.9888
11
2.69985
21
-1.9888
0
LINE
8
BLACK
6
CONTINUOUS
10
2.69985
20
-1.9888
11
2.69993
21
-1.98852
0
LINE
8
BLACK
6
CONTINUOUS
10
2.69993
20
-1.98852
11
2.70001
21
-1.98824
0
LINE
8
BLACK
6
CONTINUOUS
10
2.70001
20
-1.98824
11
2.70001
21
-1.98824
0
LINE
8
BLACK
6
CONTINUOUS
10
2.70001
20
-1.98824
11
2.70001
21
-1.98824
0
LINE
8
BLACK
6
CONTINUOUS
10
2.70001
20
-1.98824
11
2.70015
21
-1.98798
0
LINE
8
BLACK
6
CONTINUOUS
10
2.70015
20
-1.98798
11
2.70028
21
-1.98773
0
LINE
8
BLACK
6
CONTINUOUS
10
2.70028
20
-1.98773
11
2.70029
21
-1.98773
0
LINE
8
BLACK
6
CONTINUOUS
10
2.70029
20
-1.98773
11
2.70029
21
-1.98773
0
LINE
8
BLACK
6
CONTINUOUS
10
2.70029
20
-1.98773
11
2.70047
21
-1.9875
0
LINE
8
BLACK
6
CONTINUOUS
10
2.70047
20
-1.9875
11
2.70065
21
-1.98728
0
LINE
8
BLACK
6
CONTINUOUS
10
2.70065
20
-1.98728
11
2.70065
21
-1.98728
0
LINE
8
BLACK
6
CONTINUOUS
10
2.70065
20
-1.98728
11
2.70066
21
-1.98727
0
LINE
8
BLACK
6
CONTINUOUS
10
2.70066
20
-1.98727
11
2.70087
21
-1.9871
0
LINE
8
BLACK
6
CONTINUOUS
10
2.70087
20
-1.9871
11
2.7011
21
-1.98691
0
LINE
8
BLACK
6
CONTINUOUS
10
2.7011
20
-1.98691
11
2.7011
21
-1.98691
0
LINE
8
BLACK
6
CONTINUOUS
10
2.7011
20
-1.98691
11
2.7011
21
-1.98691
0
LINE
8
BLACK
6
CONTINUOUS
10
2.7011
20
-1.98691
11
2.70136
21
-1.98677
0
LINE
8
BLACK
6
CONTINUOUS
10
2.70136
20
-1.98677
11
2.70161
21
-1.98663
0
LINE
8
BLACK
6
CONTINUOUS
10
2.70161
20
-1.98663
11
2.70161
21
-1.98663
0
LINE
8
BLACK
6
CONTINUOUS
10
2.70161
20
-1.98663
11
2.70162
21
-1.98663
0
LINE
8
BLACK
6
CONTINUOUS
10
2.70162
20
-1.98663
11
2.70189
21
-1.98655
0
LINE
8
BLACK
6
CONTINUOUS
10
2.70189
20
-1.98655
11
2.70217
21
-1.98646
0
LINE
8
BLACK
6
CONTINUOUS
10
2.70217
20
-1.98646
11
2.70217
21
-1.98646
0
LINE
8
BLACK
6
CONTINUOUS
10
2.70217
20
-1.98646
11
2.70217
21
-1.98646
0
LINE
8
BLACK
6
CONTINUOUS
10
2.70217
20
-1.98646
11
2.70245
21
-1.98643
0
LINE
8
BLACK
6
CONTINUOUS
10
2.70245
20
-1.98643
11
2.7026
21
-1.98642
0
LINE
8
BLACK
6
CONTINUOUS
10
2.7026
20
-1.98642
11
2.7026
21
-1.98642
0
LINE
8
BLACK
6
CONTINUOUS
10
2.7026
20
-1.98642
11
2.70275
21
-1.9864
0
LINE
8
BLACK
6
CONTINUOUS
10
2.70275
20
-1.9864
11
2.70289
21
-1.98642
0
LINE
8
BLACK
6
CONTINUOUS
10
2.70289
20
-1.98642
11
3.14709
21
-1.98484
0
LINE
8
BLACK
6
CONTINUOUS
10
3.14709
20
-1.98484
11
3.14724
21
-1.98483
0
LINE
8
BLACK
6
CONTINUOUS
10
3.14724
20
-1.98483
11
3.14752
21
-1.98486
0
LINE
8
BLACK
6
CONTINUOUS
10
3.14752
20
-1.98486
11
3.14781
21
-1.98488
0
LINE
8
BLACK
6
CONTINUOUS
10
3.14781
20
-1.98488
11
3.14781
21
-1.98488
0
LINE
8
BLACK
6
CONTINUOUS
10
3.14781
20
-1.98488
11
3.14782
21
-1.98488
0
LINE
8
BLACK
6
CONTINUOUS
10
3.14782
20
-1.98488
11
3.14809
21
-1.98497
0
LINE
8
BLACK
6
CONTINUOUS
10
3.14809
20
-1.98497
11
3.14837
21
-1.98505
0
LINE
8
BLACK
6
CONTINUOUS
10
3.14837
20
-1.98505
11
3.14837
21
-1.98505
0
LINE
8
BLACK
6
CONTINUOUS
10
3.14837
20
-1.98505
11
3.14837
21
-1.98505
0
LINE
8
BLACK
6
CONTINUOUS
10
3.14837
20
-1.98505
11
3.14863
21
-1.98519
0
LINE
8
BLACK
6
CONTINUOUS
10
3.14863
20
-1.98519
11
3.14888
21
-1.98532
0
LINE
8
BLACK
6
CONTINUOUS
10
3.14888
20
-1.98532
11
3.14889
21
-1.98532
0
LINE
8
BLACK
6
CONTINUOUS
10
3.14889
20
-1.98532
11
3.14889
21
-1.98533
0
LINE
8
BLACK
6
CONTINUOUS
10
3.14889
20
-1.98533
11
3.14911
21
-1.9855
0
LINE
8
BLACK
6
CONTINUOUS
10
3.14911
20
-1.9855
11
3.14933
21
-1.98569
0
LINE
8
BLACK
6
CONTINUOUS
10
3.14933
20
-1.98569
11
3.14934
21
-1.98569
0
LINE
8
BLACK
6
CONTINUOUS
10
3.14934
20
-1.98569
11
3.14934
21
-1.98569
0
LINE
8
BLACK
6
CONTINUOUS
10
3.14934
20
-1.98569
11
3.14951
21
-1.98591
0
LINE
8
BLACK
6
CONTINUOUS
10
3.14951
20
-1.98591
11
3.14971
21
-1.98614
0
LINE
8
BLACK
6
CONTINUOUS
10
3.14971
20
-1.98614
11
3.14971
21
-1.98614
0
LINE
8
BLACK
6
CONTINUOUS
10
3.14971
20
-1.98614
11
3.14971
21
-1.98614
0
LINE
8
BLACK
6
CONTINUOUS
10
3.14971
20
-1.98614
11
3.14985
21
-1.9864
0
LINE
8
BLACK
6
CONTINUOUS
10
3.14985
20
-1.9864
11
3.14998
21
-1.98665
0
LINE
8
BLACK
6
CONTINUOUS
10
3.14998
20
-1.98665
11
3.14998
21
-1.98665
0
LINE
8
BLACK
6
CONTINUOUS
10
3.14998
20
-1.98665
11
3.14998
21
-1.98665
0
LINE
8
BLACK
6
CONTINUOUS
10
3.14998
20
-1.98665
11
3.15007
21
-1.98693
0
LINE
8
BLACK
6
CONTINUOUS
10
3.15007
20
-1.98693
11
3.15015
21
-1.98721
0
LINE
8
BLACK
6
CONTINUOUS
10
3.15015
20
-1.98721
11
3.15015
21
-1.98721
0
LINE
8
BLACK
6
CONTINUOUS
10
3.15015
20
-1.98721
11
3.15015
21
-1.98721
0
LINE
8
BLACK
6
CONTINUOUS
10
3.15015
20
-1.98721
11
3.15018
21
-1.98749
0
LINE
8
BLACK
6
CONTINUOUS
10
3.15018
20
-1.98749
11
3.15021
21
-1.98778
0
LINE
8
BLACK
6
CONTINUOUS
10
3.15021
20
-1.98778
11
3.1502
21
-1.98793
0
LINE
8
BLACK
6
CONTINUOUS
10
3.1502
20
-1.98793
11
3.15177
21
-2.78445
0
LINE
8
BLACK
6
CONTINUOUS
10
3.15177
20
-2.78445
11
5.86358
21
-2.78484
0
LINE
8
BLACK
6
CONTINUOUS
10
5.86358
20
-2.78484
11
5.86201
21
-1.89227
0
LINE
8
BLACK
6
CONTINUOUS
10
5.86201
20
-1.89227
11
5.86199
21
-1.89212
0
LINE
8
BLACK
6
CONTINUOUS
10
5.86199
20
-1.89212
11
5.86202
21
-1.89184
0
LINE
8
BLACK
6
CONTINUOUS
10
5.86202
20
-1.89184
11
5.86205
21
-1.89155
0
LINE
8
BLACK
6
CONTINUOUS
10
5.86205
20
-1.89155
11
5.86205
21
-1.89155
0
LINE
8
BLACK
6
CONTINUOUS
10
5.86205
20
-1.89155
11
5.86205
21
-1.89154
0
LINE
8
BLACK
6
CONTINUOUS
10
5.86205
20
-1.89154
11
5.86214
21
-1.89127
0
LINE
8
BLACK
6
CONTINUOUS
10
5.86214
20
-1.89127
11
5.86222
21
-1.891
0
LINE
8
BLACK
6
CONTINUOUS
10
5.86222
20
-1.891
11
5.86222
21
-1.89099
0
LINE
8
BLACK
6
CONTINUOUS
10
5.86222
20
-1.89099
11
5.86222
21
-1.89098
0
LINE
8
BLACK
6
CONTINUOUS
10
5.86222
20
-1.89098
11
5.86236
21
-1.89073
0
LINE
8
BLACK
6
CONTINUOUS
10
5.86236
20
-1.89073
11
5.86249
21
-1.89048
0
LINE
8
BLACK
6
CONTINUOUS
10
5.86249
20
-1.89048
11
5.86249
21
-1.89048
0
LINE
8
BLACK
6
CONTINUOUS
10
5.86249
20
-1.89048
11
5.8625
21
-1.89047
0
LINE
8
BLACK
6
CONTINUOUS
10
5.8625
20
-1.89047
11
5.86268
21
-1.89025
0
LINE
8
BLACK
6
CONTINUOUS
10
5.86268
20
-1.89025
11
5.86286
21
-1.89003
0
LINE
8
BLACK
6
CONTINUOUS
10
5.86286
20
-1.89003
11
5.86286
21
-1.89003
0
LINE
8
BLACK
6
CONTINUOUS
10
5.86286
20
-1.89003
11
5.86287
21
-1.89002
0
LINE
8
BLACK
6
CONTINUOUS
10
5.86287
20
-1.89002
11
5.86308
21
-1.88985
0
LINE
8
BLACK
6
CONTINUOUS
10
5.86308
20
-1.88985
11
5.86331
21
-1.88966
0
LINE
8
BLACK
6
CONTINUOUS
10
5.86331
20
-1.88966
11
5.86331
21
-1.88966
0
LINE
8
BLACK
6
CONTINUOUS
10
5.86331
20
-1.88966
11
5.86332
21
-1.88966
0
LINE
8
BLACK
6
CONTINUOUS
10
5.86332
20
-1.88966
11
5.86356
21
-1.88952
0
LINE
8
BLACK
6
CONTINUOUS
10
5.86356
20
-1.88952
11
5.86382
21
-1.88939
0
LINE
8
BLACK
6
CONTINUOUS
10
5.86382
20
-1.88939
11
5.86383
21
-1.88939
0
LINE
8
BLACK
6
CONTINUOUS
10
5.86383
20
-1.88939
11
5.86383
21
-1.88938
0
LINE
8
BLACK
6
CONTINUOUS
10
5.86383
20
-1.88938
11
5.8641
21
-1.8893
0
LINE
8
BLACK
6
CONTINUOUS
10
5.8641
20
-1.8893
11
5.86438
21
-1.88922
0
LINE
8
BLACK
6
CONTINUOUS
10
5.86438
20
-1.88922
11
5.86438
21
-1.88922
0
LINE
8
BLACK
6
CONTINUOUS
10
5.86438
20
-1.88922
11
5.86439
21
-1.88921
0
LINE
8
BLACK
6
CONTINUOUS
10
5.86439
20
-1.88921
11
5.86467
21
-1.88919
0
LINE
8
BLACK
6
CONTINUOUS
10
5.86467
20
-1.88919
11
5.86496
21
-1.88916
0
LINE
8
BLACK
6
CONTINUOUS
10
5.86496
20
-1.88916
11
5.86511
21
-1.88917
0
LINE
8
BLACK
6
CONTINUOUS
10
5.86949
20
-2.78765
11
5.8695
21
-2.7878
0
LINE
8
BLACK
6
CONTINUOUS
10
5.8695
20
-2.7878
11
5.86947
21
-2.78809
0
LINE
8
BLACK
6
CONTINUOUS
10
5.86947
20
-2.78809
11
5.86945
21
-2.78837
0
LINE
8
BLACK
6
CONTINUOUS
10
5.86945
20
-2.78837
11
5.86945
21
-2.78837
0
LINE
8
BLACK
6
CONTINUOUS
10
5.86945
20
-2.78837
11
5.86945
21
-2.78837
0
LINE
8
BLACK
6
CONTINUOUS
10
5.86945
20
-2.78837
11
5.86936
21
-2.78867
0
LINE
8
BLACK
6
CONTINUOUS
10
5.86936
20
-2.78867
11
5.86928
21
-2.78893
0
LINE
8
BLACK
6
CONTINUOUS
10
5.86928
20
-2.78893
11
5.86928
21
-2.78893
0
LINE
8
BLACK
6
CONTINUOUS
10
5.86928
20
-2.78893
11
5.86928
21
-2.78893
0
LINE
8
BLACK
6
CONTINUOUS
10
5.86928
20
-2.78893
11
5.86913
21
-2.7892
0
LINE
8
BLACK
6
CONTINUOUS
10
5.86913
20
-2.7892
11
5.86901
21
-2.78944
0
LINE
8
BLACK
6
CONTINUOUS
10
5.86901
20
-2.78944
11
5.869
21
-2.78944
0
LINE
8
BLACK
6
CONTINUOUS
10
5.869
20
-2.78944
11
5.869
21
-2.78944
0
LINE
8
BLACK
6
CONTINUOUS
10
5.869
20
-2.78944
11
5.86881
21
-2.78967
0
LINE
8
BLACK
6
CONTINUOUS
10
5.86881
20
-2.78967
11
5.86864
21
-2.78989
0
LINE
8
BLACK
6
CONTINUOUS
10
5.86864
20
-2.78989
11
5.86863
21
-2.78989
0
LINE
8
BLACK
6
CONTINUOUS
10
5.86863
20
-2.78989
11
5.86863
21
-2.78989
0
LINE
8
BLACK
6
CONTINUOUS
10
5.86863
20
-2.78989
11
5.86841
21
-2.79008
0
LINE
8
BLACK
6
CONTINUOUS
10
5.86841
20
-2.79008
11
5.86819
21
-2.79026
0
LINE
8
BLACK
6
CONTINUOUS
10
5.86819
20
-2.79026
11
5.86819
21
-2.79026
0
LINE
8
BLACK
6
CONTINUOUS
10
5.86819
20
-2.79026
11
5.86818
21
-2.79026
0
LINE
8
BLACK
6
CONTINUOUS
10
5.86818
20
-2.79026
11
5.86792
21
-2.7904
0
LINE
8
BLACK
6
CONTINUOUS
10
5.86792
20
-2.7904
11
5.86768
21
-2.79053
0
LINE
8
BLACK
6
CONTINUOUS
10
5.86768
20
-2.79053
11
5.86767
21
-2.79054
0
LINE
8
BLACK
6
CONTINUOUS
10
5.86767
20
-2.79054
11
5.86767
21
-2.79054
0
LINE
8
BLACK
6
CONTINUOUS
10
5.86767
20
-2.79054
11
5.86738
21
-2.79062
0
LINE
8
BLACK
6
CONTINUOUS
10
5.86738
20
-2.79062
11
5.86712
21
-2.7907
0
LINE
8
BLACK
6
CONTINUOUS
10
5.86712
20
-2.7907
11
5.86712
21
-2.7907
0
LINE
8
BLACK
6
CONTINUOUS
10
5.86712
20
-2.7907
11
5.86711
21
-2.79071
0
LINE
8
BLACK
6
CONTINUOUS
10
5.86711
20
-2.79071
11
5.86682
21
-2.79073
0
LINE
8
BLACK
6
CONTINUOUS
10
5.86682
20
-2.79073
11
5.86654
21
-2.79076
0
LINE
8
BLACK
6
CONTINUOUS
10
5.86654
20
-2.79076
11
5.86639
21
-2.79075
0
LINE
8
BLACK
6
CONTINUOUS
10
5.86639
20
-2.79075
11
3.14897
21
-2.79035
0
LINE
8
BLACK
6
CONTINUOUS
10
3.14897
20
-2.79035
11
3.14882
21
-2.79037
0
LINE
8
BLACK
6
CONTINUOUS
10
3.14882
20
-2.79037
11
3.14868
21
-2.79035
0
LINE
8
BLACK
6
CONTINUOUS
10
3.14868
20
-2.79035
11
3.14867
21
-2.79035
0
LINE
8
BLACK
6
CONTINUOUS
10
3.14867
20
-2.79035
11
3.14853
21
-2.79034
0
LINE
8
BLACK
6
CONTINUOUS
10
3.14853
20
-2.79034
11
3.14825
21
-2.79031
0
LINE
8
BLACK
6
CONTINUOUS
10
3.14825
20
-2.79031
11
3.14824
21
-2.79031
0
LINE
8
BLACK
6
CONTINUOUS
10
3.14824
20
-2.79031
11
3.14824
21
-2.79031
0
LINE
8
BLACK
6
CONTINUOUS
10
3.14824
20
-2.79031
11
3.14797
21
-2.79023
0
LINE
8
BLACK
6
CONTINUOUS
10
3.14797
20
-2.79023
11
3.14769
21
-2.79014
0
LINE
8
BLACK
6
CONTINUOUS
10
3.14769
20
-2.79014
11
3.14769
21
-2.79014
0
LINE
8
BLACK
6
CONTINUOUS
10
3.14769
20
-2.79014
11
3.14768
21
-2.79014
0
LINE
8
BLACK
6
CONTINUOUS
10
3.14768
20
-2.79014
11
3.14743
21
-2.79001
0
LINE
8
BLACK
6
CONTINUOUS
10
3.14743
20
-2.79001
11
3.14718
21
-2.78987
0
LINE
8
BLACK
6
CONTINUOUS
10
3.14718
20
-2.78987
11
3.14717
21
-2.78987
0
LINE
8
BLACK
6
CONTINUOUS
10
3.14717
20
-2.78987
11
3.14717
21
-2.78987
0
LINE
8
BLACK
6
CONTINUOUS
10
3.14717
20
-2.78987
11
3.14694
21
-2.78968
0
LINE
8
BLACK
6
CONTINUOUS
10
3.14694
20
-2.78968
11
3.14673
21
-2.7895
0
LINE
8
BLACK
6
CONTINUOUS
10
3.14673
20
-2.7895
11
3.14672
21
-2.7895
0
LINE
8
BLACK
6
CONTINUOUS
10
3.14672
20
-2.7895
11
3.14672
21
-2.7895
0
LINE
8
BLACK
6
CONTINUOUS
10
3.14672
20
-2.7895
11
3.14653
21
-2.78927
0
LINE
8
BLACK
6
CONTINUOUS
10
3.14653
20
-2.78927
11
3.14636
21
-2.78905
0
LINE
8
BLACK
6
CONTINUOUS
10
3.14636
20
-2.78905
11
3.14635
21
-2.78905
0
LINE
8
BLACK
6
CONTINUOUS
10
3.14635
20
-2.78905
11
3.14635
21
-2.78905
0
LINE
8
BLACK
6
CONTINUOUS
10
3.14635
20
-2.78905
11
3.14621
21
-2.78879
0
LINE
8
BLACK
6
CONTINUOUS
10
3.14621
20
-2.78879
11
3.14608
21
-2.78854
0
LINE
8
BLACK
6
CONTINUOUS
10
3.14608
20
-2.78854
11
3.14608
21
-2.78854
0
LINE
8
BLACK
6
CONTINUOUS
10
3.14608
20
-2.78854
11
3.14608
21
-2.78854
0
LINE
8
BLACK
6
CONTINUOUS
10
3.14608
20
-2.78854
11
3.14599
21
-2.78825
0
LINE
8
BLACK
6
CONTINUOUS
10
3.14599
20
-2.78825
11
3.14591
21
-2.78799
0
LINE
8
BLACK
6
CONTINUOUS
10
3.14591
20
-2.78799
11
3.14591
21
-2.78798
0
LINE
8
BLACK
6
CONTINUOUS
10
3.14591
20
-2.78798
11
3.14591
21
-2.78798
0
LINE
8
BLACK
6
CONTINUOUS
10
3.14591
20
-2.78798
11
3.14588
21
-2.78769
0
LINE
8
BLACK
6
CONTINUOUS
10
3.14588
20
-2.78769
11
3.14587
21
-2.78755
0
LINE
8
BLACK
6
CONTINUOUS
10
3.14587
20
-2.78755
11
3.14587
21
-2.78755
0
LINE
8
BLACK
6
CONTINUOUS
10
3.14587
20
-2.78755
11
3.14585
21
-2.7874
0
LINE
8
BLACK
6
CONTINUOUS
10
3.14585
20
-2.7874
11
3.14587
21
-2.78726
0
LINE
8
BLACK
6
CONTINUOUS
10
3.14587
20
-2.78726
11
3.1443
21
-1.99076
0
LINE
8
BLACK
6
CONTINUOUS
10
3.1443
20
-1.99076
11
2.70571
21
-1.99231
0
LINE
8
BLACK
6
CONTINUOUS
10
2.70571
20
-1.99231
11
2.70689
21
-2.84862
0
LINE
8
BLACK
6
CONTINUOUS
10
2.70689
20
-2.84862
11
2.89709
21
-2.84862
0
LINE
8
BLACK
6
CONTINUOUS
10
2.89709
20
-2.84862
11
2.89723
21
-2.84861
0
LINE
8
BLACK
6
CONTINUOUS
10
2.89723
20
-2.84861
11
2.89738
21
-2.84862
0
LINE
8
BLACK
6
CONTINUOUS
10
2.89738
20
-2.84862
11
2.89739
21
-2.84862
0
LINE
8
BLACK
6
CONTINUOUS
10
2.89739
20
-2.84862
11
2.89753
21
-2.84864
0
LINE
8
BLACK
6
CONTINUOUS
10
2.89753
20
-2.84864
11
2.89781
21
-2.84866
0
LINE
8
BLACK
6
CONTINUOUS
10
2.89781
20
-2.84866
11
2.89782
21
-2.84866
0
LINE
8
BLACK
6
CONTINUOUS
10
2.89782
20
-2.84866
11
2.89782
21
-2.84866
0
LINE
8
BLACK
6
CONTINUOUS
10
2.89782
20
-2.84866
11
2.8981
21
-2.84875
0
LINE
8
BLACK
6
CONTINUOUS
10
2.8981
20
-2.84875
11
2.89837
21
-2.84883
0
LINE
8
BLACK
6
CONTINUOUS
10
2.89837
20
-2.84883
11
2.89837
21
-2.84883
0
LINE
8
BLACK
6
CONTINUOUS
10
2.89837
20
-2.84883
11
2.89838
21
-2.84883
0
LINE
8
BLACK
6
CONTINUOUS
10
2.89838
20
-2.84883
11
2.89864
21
-2.84897
0
LINE
8
BLACK
6
CONTINUOUS
10
2.89864
20
-2.84897
11
2.89888
21
-2.8491
0
LINE
8
BLACK
6
CONTINUOUS
10
2.89888
20
-2.8491
11
2.89889
21
-2.84911
0
LINE
8
BLACK
6
CONTINUOUS
10
2.89889
20
-2.84911
11
2.89889
21
-2.84911
0
LINE
8
BLACK
6
CONTINUOUS
10
2.89889
20
-2.84911
11
2.89912
21
-2.8493
0
LINE
8
BLACK
6
CONTINUOUS
10
2.89912
20
-2.8493
11
2.89922
21
-2.84938
0
LINE
8
BLACK
6
CONTINUOUS
10
2.89922
20
-2.84938
11
2.89923
21
-2.84938
0
LINE
8
BLACK
6
CONTINUOUS
10
2.89923
20
-2.84938
11
2.89934
21
-2.84948
0
LINE
8
BLACK
6
CONTINUOUS
10
2.89934
20
-2.84948
11
2.89943
21
-2.84959
0
LINE
8
BLACK
6
CONTINUOUS
10
2.89943
20
-2.84959
11
3.14883
21
-3.09741
0
LINE
8
BLACK
6
CONTINUOUS
10
3.14883
20
-3.09741
11
3.14895
21
-3.09751
0
LINE
8
BLACK
6
CONTINUOUS
10
3.14895
20
-3.09751
11
3.14913
21
-3.09773
0
LINE
8
BLACK
6
CONTINUOUS
10
3.14913
20
-3.09773
11
3.14931
21
-3.09795
0
LINE
8
BLACK
6
CONTINUOUS
10
3.14931
20
-3.09795
11
3.14931
21
-3.09795
0
LINE
8
BLACK
6
CONTINUOUS
10
3.14931
20
-3.09795
11
3.14932
21
-3.09796
0
LINE
8
BLACK
6
CONTINUOUS
10
3.14932
20
-3.09796
11
3.14946
21
-3.09822
0
LINE
8
BLACK
6
CONTINUOUS
10
3.14946
20
-3.09822
11
3.14959
21
-3.09846
0
LINE
8
BLACK
6
CONTINUOUS
10
3.14959
20
-3.09846
11
3.14959
21
-3.09847
0
LINE
8
BLACK
6
CONTINUOUS
10
3.14959
20
-3.09847
11
3.14959
21
-3.09847
0
LINE
8
BLACK
6
CONTINUOUS
10
3.14959
20
-3.09847
11
3.14968
21
-3.09875
0
LINE
8
BLACK
6
CONTINUOUS
10
3.14968
20
-3.09875
11
3.14976
21
-3.09902
0
LINE
8
BLACK
6
CONTINUOUS
10
3.14976
20
-3.09902
11
3.14976
21
-3.09902
0
LINE
8
BLACK
6
CONTINUOUS
10
3.14976
20
-3.09902
11
3.14976
21
-3.09903
0
LINE
8
BLACK
6
CONTINUOUS
10
3.14976
20
-3.09903
11
3.14979
21
-3.09932
0
LINE
8
BLACK
6
CONTINUOUS
10
3.14979
20
-3.09932
11
3.14982
21
-3.0996
0
LINE
8
BLACK
6
CONTINUOUS
10
3.14982
20
-3.0996
11
3.1498
21
-3.09975
0
LINE
8
BLACK
6
CONTINUOUS
10
3.1498
20
-3.09975
11
3.1498
21
-5.82894
0
LINE
8
BLACK
6
CONTINUOUS
10
3.1498
20
-5.82894
11
6.63878
21
-5.83169
0
LINE
8
BLACK
6
CONTINUOUS
10
6.63878
20
-5.83169
11
6.6376
21
-1.89665
0
LINE
8
BLACK
6
CONTINUOUS
10
6.6376
20
-1.89665
11
5.86792
21
-1.89508
0
LINE
8
BLACK
6
CONTINUOUS
10
5.86792
20
-1.89508
11
5.86949
21
-2.78765
  0
ENDSEC
  0
EOF
