G04 #@! TF.GenerationSoftware,KiCad,Pcbnew,(5.1.5-0-10_14)*
G04 #@! TF.CreationDate,2020-06-21T14:01:29+10:00*
G04 #@! TF.ProjectId,UFC,5546432e-6b69-4636-9164-5f7063625858,A*
G04 #@! TF.SameCoordinates,Original*
G04 #@! TF.FileFunction,Soldermask,Bot*
G04 #@! TF.FilePolarity,Negative*
%FSLAX46Y46*%
G04 Gerber Fmt 4.6, Leading zero omitted, Abs format (unit mm)*
G04 Created by KiCad (PCBNEW (5.1.5-0-10_14)) date 2020-06-21 14:01:29*
%MOMM*%
%LPD*%
G04 APERTURE LIST*
%ADD10O,1.740000X2.200000*%
%ADD11C,0.100000*%
%ADD12C,3.200000*%
%ADD13C,3.000000*%
%ADD14O,1.600000X1.600000*%
%ADD15C,1.600000*%
%ADD16R,1.600000X1.600000*%
%ADD17C,1.524000*%
%ADD18C,1.700000*%
%ADD19C,1.800000*%
%ADD20R,1.800000X1.800000*%
G04 APERTURE END LIST*
D10*
X160250000Y-104460000D03*
X157710000Y-104460000D03*
X155170000Y-104460000D03*
D11*
G36*
X153274505Y-103361204D02*
G01*
X153298773Y-103364804D01*
X153322572Y-103370765D01*
X153345671Y-103379030D01*
X153367850Y-103389520D01*
X153388893Y-103402132D01*
X153408599Y-103416747D01*
X153426777Y-103433223D01*
X153443253Y-103451401D01*
X153457868Y-103471107D01*
X153470480Y-103492150D01*
X153480970Y-103514329D01*
X153489235Y-103537428D01*
X153495196Y-103561227D01*
X153498796Y-103585495D01*
X153500000Y-103609999D01*
X153500000Y-105310001D01*
X153498796Y-105334505D01*
X153495196Y-105358773D01*
X153489235Y-105382572D01*
X153480970Y-105405671D01*
X153470480Y-105427850D01*
X153457868Y-105448893D01*
X153443253Y-105468599D01*
X153426777Y-105486777D01*
X153408599Y-105503253D01*
X153388893Y-105517868D01*
X153367850Y-105530480D01*
X153345671Y-105540970D01*
X153322572Y-105549235D01*
X153298773Y-105555196D01*
X153274505Y-105558796D01*
X153250001Y-105560000D01*
X152009999Y-105560000D01*
X151985495Y-105558796D01*
X151961227Y-105555196D01*
X151937428Y-105549235D01*
X151914329Y-105540970D01*
X151892150Y-105530480D01*
X151871107Y-105517868D01*
X151851401Y-105503253D01*
X151833223Y-105486777D01*
X151816747Y-105468599D01*
X151802132Y-105448893D01*
X151789520Y-105427850D01*
X151779030Y-105405671D01*
X151770765Y-105382572D01*
X151764804Y-105358773D01*
X151761204Y-105334505D01*
X151760000Y-105310001D01*
X151760000Y-103609999D01*
X151761204Y-103585495D01*
X151764804Y-103561227D01*
X151770765Y-103537428D01*
X151779030Y-103514329D01*
X151789520Y-103492150D01*
X151802132Y-103471107D01*
X151816747Y-103451401D01*
X151833223Y-103433223D01*
X151851401Y-103416747D01*
X151871107Y-103402132D01*
X151892150Y-103389520D01*
X151914329Y-103379030D01*
X151937428Y-103370765D01*
X151961227Y-103364804D01*
X151985495Y-103361204D01*
X152009999Y-103360000D01*
X153250001Y-103360000D01*
X153274505Y-103361204D01*
G37*
D10*
X135860000Y-86650000D03*
X133320000Y-86650000D03*
X130780000Y-86650000D03*
X128240000Y-86650000D03*
X125700000Y-86650000D03*
D11*
G36*
X123804505Y-85551204D02*
G01*
X123828773Y-85554804D01*
X123852572Y-85560765D01*
X123875671Y-85569030D01*
X123897850Y-85579520D01*
X123918893Y-85592132D01*
X123938599Y-85606747D01*
X123956777Y-85623223D01*
X123973253Y-85641401D01*
X123987868Y-85661107D01*
X124000480Y-85682150D01*
X124010970Y-85704329D01*
X124019235Y-85727428D01*
X124025196Y-85751227D01*
X124028796Y-85775495D01*
X124030000Y-85799999D01*
X124030000Y-87500001D01*
X124028796Y-87524505D01*
X124025196Y-87548773D01*
X124019235Y-87572572D01*
X124010970Y-87595671D01*
X124000480Y-87617850D01*
X123987868Y-87638893D01*
X123973253Y-87658599D01*
X123956777Y-87676777D01*
X123938599Y-87693253D01*
X123918893Y-87707868D01*
X123897850Y-87720480D01*
X123875671Y-87730970D01*
X123852572Y-87739235D01*
X123828773Y-87745196D01*
X123804505Y-87748796D01*
X123780001Y-87750000D01*
X122539999Y-87750000D01*
X122515495Y-87748796D01*
X122491227Y-87745196D01*
X122467428Y-87739235D01*
X122444329Y-87730970D01*
X122422150Y-87720480D01*
X122401107Y-87707868D01*
X122381401Y-87693253D01*
X122363223Y-87676777D01*
X122346747Y-87658599D01*
X122332132Y-87638893D01*
X122319520Y-87617850D01*
X122309030Y-87595671D01*
X122300765Y-87572572D01*
X122294804Y-87548773D01*
X122291204Y-87524505D01*
X122290000Y-87500001D01*
X122290000Y-85799999D01*
X122291204Y-85775495D01*
X122294804Y-85751227D01*
X122300765Y-85727428D01*
X122309030Y-85704329D01*
X122319520Y-85682150D01*
X122332132Y-85661107D01*
X122346747Y-85641401D01*
X122363223Y-85623223D01*
X122381401Y-85606747D01*
X122401107Y-85592132D01*
X122422150Y-85579520D01*
X122444329Y-85569030D01*
X122467428Y-85560765D01*
X122491227Y-85554804D01*
X122515495Y-85551204D01*
X122539999Y-85550000D01*
X123780001Y-85550000D01*
X123804505Y-85551204D01*
G37*
D10*
X118740000Y-86680000D03*
X116200000Y-86680000D03*
X113660000Y-86680000D03*
D11*
G36*
X111764505Y-85581204D02*
G01*
X111788773Y-85584804D01*
X111812572Y-85590765D01*
X111835671Y-85599030D01*
X111857850Y-85609520D01*
X111878893Y-85622132D01*
X111898599Y-85636747D01*
X111916777Y-85653223D01*
X111933253Y-85671401D01*
X111947868Y-85691107D01*
X111960480Y-85712150D01*
X111970970Y-85734329D01*
X111979235Y-85757428D01*
X111985196Y-85781227D01*
X111988796Y-85805495D01*
X111990000Y-85829999D01*
X111990000Y-87530001D01*
X111988796Y-87554505D01*
X111985196Y-87578773D01*
X111979235Y-87602572D01*
X111970970Y-87625671D01*
X111960480Y-87647850D01*
X111947868Y-87668893D01*
X111933253Y-87688599D01*
X111916777Y-87706777D01*
X111898599Y-87723253D01*
X111878893Y-87737868D01*
X111857850Y-87750480D01*
X111835671Y-87760970D01*
X111812572Y-87769235D01*
X111788773Y-87775196D01*
X111764505Y-87778796D01*
X111740001Y-87780000D01*
X110499999Y-87780000D01*
X110475495Y-87778796D01*
X110451227Y-87775196D01*
X110427428Y-87769235D01*
X110404329Y-87760970D01*
X110382150Y-87750480D01*
X110361107Y-87737868D01*
X110341401Y-87723253D01*
X110323223Y-87706777D01*
X110306747Y-87688599D01*
X110292132Y-87668893D01*
X110279520Y-87647850D01*
X110269030Y-87625671D01*
X110260765Y-87602572D01*
X110254804Y-87578773D01*
X110251204Y-87554505D01*
X110250000Y-87530001D01*
X110250000Y-85829999D01*
X110251204Y-85805495D01*
X110254804Y-85781227D01*
X110260765Y-85757428D01*
X110269030Y-85734329D01*
X110279520Y-85712150D01*
X110292132Y-85691107D01*
X110306747Y-85671401D01*
X110323223Y-85653223D01*
X110341401Y-85636747D01*
X110361107Y-85622132D01*
X110382150Y-85609520D01*
X110404329Y-85599030D01*
X110427428Y-85590765D01*
X110451227Y-85584804D01*
X110475495Y-85581204D01*
X110499999Y-85580000D01*
X111740001Y-85580000D01*
X111764505Y-85581204D01*
G37*
D12*
X143660000Y-123490000D03*
X143660000Y-85110000D03*
X104970000Y-122730000D03*
X104970000Y-84210000D03*
D13*
X73130000Y-68330000D03*
X154220000Y-144790000D03*
D10*
X87160000Y-84390000D03*
D11*
G36*
X85264505Y-83291204D02*
G01*
X85288773Y-83294804D01*
X85312572Y-83300765D01*
X85335671Y-83309030D01*
X85357850Y-83319520D01*
X85378893Y-83332132D01*
X85398599Y-83346747D01*
X85416777Y-83363223D01*
X85433253Y-83381401D01*
X85447868Y-83401107D01*
X85460480Y-83422150D01*
X85470970Y-83444329D01*
X85479235Y-83467428D01*
X85485196Y-83491227D01*
X85488796Y-83515495D01*
X85490000Y-83539999D01*
X85490000Y-85240001D01*
X85488796Y-85264505D01*
X85485196Y-85288773D01*
X85479235Y-85312572D01*
X85470970Y-85335671D01*
X85460480Y-85357850D01*
X85447868Y-85378893D01*
X85433253Y-85398599D01*
X85416777Y-85416777D01*
X85398599Y-85433253D01*
X85378893Y-85447868D01*
X85357850Y-85460480D01*
X85335671Y-85470970D01*
X85312572Y-85479235D01*
X85288773Y-85485196D01*
X85264505Y-85488796D01*
X85240001Y-85490000D01*
X83999999Y-85490000D01*
X83975495Y-85488796D01*
X83951227Y-85485196D01*
X83927428Y-85479235D01*
X83904329Y-85470970D01*
X83882150Y-85460480D01*
X83861107Y-85447868D01*
X83841401Y-85433253D01*
X83823223Y-85416777D01*
X83806747Y-85398599D01*
X83792132Y-85378893D01*
X83779520Y-85357850D01*
X83769030Y-85335671D01*
X83760765Y-85312572D01*
X83754804Y-85288773D01*
X83751204Y-85264505D01*
X83750000Y-85240001D01*
X83750000Y-83539999D01*
X83751204Y-83515495D01*
X83754804Y-83491227D01*
X83760765Y-83467428D01*
X83769030Y-83444329D01*
X83779520Y-83422150D01*
X83792132Y-83401107D01*
X83806747Y-83381401D01*
X83823223Y-83363223D01*
X83841401Y-83346747D01*
X83861107Y-83332132D01*
X83882150Y-83319520D01*
X83904329Y-83309030D01*
X83927428Y-83300765D01*
X83951227Y-83294804D01*
X83975495Y-83291204D01*
X83999999Y-83290000D01*
X85240001Y-83290000D01*
X85264505Y-83291204D01*
G37*
D10*
X148030000Y-104390000D03*
X145490000Y-104390000D03*
D11*
G36*
X143594505Y-103291204D02*
G01*
X143618773Y-103294804D01*
X143642572Y-103300765D01*
X143665671Y-103309030D01*
X143687850Y-103319520D01*
X143708893Y-103332132D01*
X143728599Y-103346747D01*
X143746777Y-103363223D01*
X143763253Y-103381401D01*
X143777868Y-103401107D01*
X143790480Y-103422150D01*
X143800970Y-103444329D01*
X143809235Y-103467428D01*
X143815196Y-103491227D01*
X143818796Y-103515495D01*
X143820000Y-103539999D01*
X143820000Y-105240001D01*
X143818796Y-105264505D01*
X143815196Y-105288773D01*
X143809235Y-105312572D01*
X143800970Y-105335671D01*
X143790480Y-105357850D01*
X143777868Y-105378893D01*
X143763253Y-105398599D01*
X143746777Y-105416777D01*
X143728599Y-105433253D01*
X143708893Y-105447868D01*
X143687850Y-105460480D01*
X143665671Y-105470970D01*
X143642572Y-105479235D01*
X143618773Y-105485196D01*
X143594505Y-105488796D01*
X143570001Y-105490000D01*
X142329999Y-105490000D01*
X142305495Y-105488796D01*
X142281227Y-105485196D01*
X142257428Y-105479235D01*
X142234329Y-105470970D01*
X142212150Y-105460480D01*
X142191107Y-105447868D01*
X142171401Y-105433253D01*
X142153223Y-105416777D01*
X142136747Y-105398599D01*
X142122132Y-105378893D01*
X142109520Y-105357850D01*
X142099030Y-105335671D01*
X142090765Y-105312572D01*
X142084804Y-105288773D01*
X142081204Y-105264505D01*
X142080000Y-105240001D01*
X142080000Y-103539999D01*
X142081204Y-103515495D01*
X142084804Y-103491227D01*
X142090765Y-103467428D01*
X142099030Y-103444329D01*
X142109520Y-103422150D01*
X142122132Y-103401107D01*
X142136747Y-103381401D01*
X142153223Y-103363223D01*
X142171401Y-103346747D01*
X142191107Y-103332132D01*
X142212150Y-103319520D01*
X142234329Y-103309030D01*
X142257428Y-103300765D01*
X142281227Y-103294804D01*
X142305495Y-103291204D01*
X142329999Y-103290000D01*
X143570001Y-103290000D01*
X143594505Y-103291204D01*
G37*
D12*
X152870000Y-61300000D03*
D14*
X128270000Y-73130000D03*
D15*
X120650000Y-73130000D03*
D14*
X152910000Y-79590000D03*
D15*
X145290000Y-79590000D03*
D14*
X89060000Y-95060000D03*
D15*
X81440000Y-95060000D03*
D14*
X147800000Y-73430000D03*
D15*
X140180000Y-73430000D03*
D14*
X89060000Y-91150000D03*
D15*
X81440000Y-91150000D03*
D14*
X99750000Y-124690000D03*
D15*
X92130000Y-124690000D03*
D14*
X109190000Y-72980000D03*
D15*
X101570000Y-72980000D03*
D14*
X165670000Y-62760000D03*
D16*
X158050000Y-62760000D03*
D14*
X158760000Y-127810000D03*
D16*
X151140000Y-127810000D03*
D14*
X158610000Y-120560000D03*
D16*
X150990000Y-120560000D03*
D14*
X147200000Y-96710000D03*
D16*
X139580000Y-96710000D03*
D14*
X138160000Y-81580000D03*
D16*
X130540000Y-81580000D03*
D14*
X158460000Y-67620000D03*
D16*
X150840000Y-67620000D03*
D14*
X148100000Y-129910000D03*
D16*
X140480000Y-129910000D03*
D14*
X146900000Y-111880000D03*
D16*
X139280000Y-111880000D03*
D14*
X147200000Y-93110000D03*
D16*
X139580000Y-93110000D03*
D14*
X128120000Y-77030000D03*
D16*
X120500000Y-77030000D03*
D14*
X88910000Y-73730000D03*
D16*
X81290000Y-73730000D03*
D14*
X124360000Y-138550000D03*
D16*
X116740000Y-138550000D03*
D14*
X125120000Y-119840000D03*
D16*
X117500000Y-119840000D03*
D14*
X117760000Y-101210000D03*
D16*
X110140000Y-101210000D03*
D14*
X118470000Y-81550000D03*
D16*
X110850000Y-81550000D03*
D14*
X101530000Y-138400000D03*
D16*
X93910000Y-138400000D03*
D14*
X99580000Y-119630000D03*
D16*
X91960000Y-119630000D03*
D14*
X100780000Y-101300000D03*
D16*
X93160000Y-101300000D03*
D14*
X99430000Y-82370000D03*
D16*
X91810000Y-82370000D03*
D17*
X154170000Y-50597000D03*
X154210000Y-56388000D03*
D18*
X151035000Y-51308000D03*
X157385000Y-51308000D03*
X151035000Y-55753000D03*
X157385000Y-55753000D03*
D17*
X154170000Y-131877000D03*
X154210000Y-137668000D03*
D18*
X151035000Y-132588000D03*
X157385000Y-132588000D03*
X151035000Y-137033000D03*
X157385000Y-137033000D03*
D17*
X154170000Y-111557000D03*
X154210000Y-117348000D03*
D18*
X151035000Y-112268000D03*
X157385000Y-112268000D03*
X151035000Y-116713000D03*
X157385000Y-116713000D03*
D17*
X154170000Y-91237000D03*
X154210000Y-97028000D03*
D18*
X151035000Y-91948000D03*
X157385000Y-91948000D03*
X151035000Y-96393000D03*
X157385000Y-96393000D03*
D17*
X154170000Y-70917000D03*
X154210000Y-76708000D03*
D18*
X151035000Y-71628000D03*
X157385000Y-71628000D03*
X151035000Y-76073000D03*
X157385000Y-76073000D03*
D17*
X154360000Y-82420000D03*
X154320000Y-88211000D03*
D18*
X157495000Y-83131000D03*
X151145000Y-83131000D03*
X157495000Y-87576000D03*
X151145000Y-87576000D03*
D17*
X130766000Y-132120000D03*
X136557000Y-132080000D03*
D18*
X131477000Y-135255000D03*
X131477000Y-128905000D03*
X135922000Y-135255000D03*
X135922000Y-128905000D03*
D17*
X130766000Y-113324000D03*
X136557000Y-113284000D03*
D18*
X131477000Y-116459000D03*
X131477000Y-110109000D03*
X135922000Y-116459000D03*
X135922000Y-110109000D03*
D17*
X130766000Y-94528000D03*
X136557000Y-94488000D03*
D18*
X131477000Y-97663000D03*
X131477000Y-91313000D03*
X135922000Y-97663000D03*
X135922000Y-91313000D03*
D17*
X130766000Y-75732000D03*
X136557000Y-75692000D03*
D18*
X131477000Y-78867000D03*
X131477000Y-72517000D03*
X135922000Y-78867000D03*
X135922000Y-72517000D03*
D17*
X69679000Y-59730000D03*
X75470000Y-59690000D03*
D18*
X70390000Y-62865000D03*
X70390000Y-56515000D03*
X74835000Y-62865000D03*
X74835000Y-56515000D03*
D17*
X111970000Y-132120000D03*
X117761000Y-132080000D03*
D18*
X112681000Y-135255000D03*
X112681000Y-128905000D03*
X117126000Y-135255000D03*
X117126000Y-128905000D03*
D17*
X111970000Y-113324000D03*
X117761000Y-113284000D03*
D18*
X112681000Y-116459000D03*
X112681000Y-110109000D03*
X117126000Y-116459000D03*
X117126000Y-110109000D03*
D17*
X111970000Y-94528000D03*
X117761000Y-94488000D03*
D18*
X112681000Y-97663000D03*
X112681000Y-91313000D03*
X117126000Y-97663000D03*
X117126000Y-91313000D03*
D17*
X111970000Y-75732000D03*
X117761000Y-75692000D03*
D18*
X112681000Y-78867000D03*
X112681000Y-72517000D03*
X117126000Y-78867000D03*
X117126000Y-72517000D03*
D17*
X93174000Y-132120000D03*
X98965000Y-132080000D03*
D18*
X93885000Y-135255000D03*
X93885000Y-128905000D03*
X98330000Y-135255000D03*
X98330000Y-128905000D03*
D17*
X93174000Y-113324000D03*
X98965000Y-113284000D03*
D18*
X93885000Y-116459000D03*
X93885000Y-110109000D03*
X98330000Y-116459000D03*
X98330000Y-110109000D03*
D17*
X93174000Y-94528000D03*
X98965000Y-94488000D03*
D18*
X93885000Y-97663000D03*
X93885000Y-91313000D03*
X98330000Y-97663000D03*
X98330000Y-91313000D03*
D17*
X93174000Y-75732000D03*
X98965000Y-75692000D03*
D18*
X93885000Y-78867000D03*
X93885000Y-72517000D03*
X98330000Y-78867000D03*
X98330000Y-72517000D03*
D19*
X166500000Y-133800000D03*
D20*
X166500000Y-131260000D03*
D19*
X166500000Y-113370000D03*
D20*
X166500000Y-110830000D03*
D19*
X166500000Y-98080000D03*
D20*
X166500000Y-95540000D03*
D19*
X166500000Y-77520000D03*
D20*
X166500000Y-74980000D03*
D19*
X166500000Y-57310000D03*
D20*
X166500000Y-54770000D03*
D19*
X166500000Y-138650000D03*
D20*
X166500000Y-136110000D03*
D19*
X166500000Y-118260000D03*
D20*
X166500000Y-115720000D03*
D19*
X166500000Y-93180000D03*
D20*
X166500000Y-90640000D03*
D19*
X166490000Y-72620000D03*
D20*
X166490000Y-70080000D03*
D19*
X166500000Y-52410000D03*
D20*
X166500000Y-49870000D03*
M02*
