  0
SECTION
  2
HEADER
  9
$ANGBASE
  50
0.0
  9
$ANGDIR
  70
1
  9
$MEASUREMENT
  70
1
  0
ENDSEC
  0
SECTION
  2
TABLES
  0
TABLE
  2
LTYPE
  70
4
  0
LTYPE
  5
40F
  2
CONTINUOUS
  70
0
  3
Solid line
  72
65
  73
0
  40
0.0
  0
LTYPE
  5
410
  2
DASHDOT
 70
0
  3
Dash Dot ____ _ ____ _
 72
65
 73
4
 40
2.0
 49
1.25
 49
-0.25
 49
0.25
 49
-0.25
  0
LTYPE
  5
411
  2
DASHED
 70
0
  3
Dashed __ __ __ __ __
 72
65
 73
2
 40
0.75
 49
0.5
 49
-0.25
  0
LTYPE
  5
43B
  2
DOTTED
 70
0
  3
Dotted .  .  .  .
 72
65
 73
2
 40
0.2
 49
0.0
 49
-0.2
  0
ENDTAB
  0
TABLE
  2
STYLE
  70
4
  0
STYLE
  2
KICAD
  70
0
  40
0
  41
1
  42
1
  50
0
  71
0
  3
isocp.shx
  0
STYLE
  2
KICADB
  70
0
  40
0
  41
1
  42
1
  50
0
  71
0
  3
isocp.shx
  0
STYLE
  2
KICADI
  70
0
  40
0
  41
1
  42
1
  50
15
  71
0
  3
isocp.shx
  0
STYLE
  2
KICADBI
  70
0
  40
0
  41
1
  42
1
  50
15
  71
0
  3
isocp.shx
  0
ENDTAB
  0
TABLE
  2
LAYER
  70
1
  0
LAYER
  2
BLACK
  70
0
  62
7
  6
CONTINUOUS
  0
ENDTAB
  0
ENDSEC
  0
SECTION
  2
ENTITIES
0
LINE
8
BLACK
6
CONTINUOUS
10
38.862
20
-40.513
11
38.735
21
-140.462
0
LINE
8
BLACK
6
CONTINUOUS
10
138.176
20
-140.462
11
38.735
21
-140.462
0
LINE
8
BLACK
6
CONTINUOUS
10
138.176
20
-40.513
11
138.176
21
-140.462
0
LINE
8
BLACK
6
CONTINUOUS
10
38.862
20
-40.513
11
138.176
21
-40.513
0
LINE
8
BLACK
6
CONTINUOUS
10
83.319
20
-82.012
11
86.519
21
-85.212
0
LINE
8
BLACK
6
CONTINUOUS
10
86.519
20
-82.012
11
83.319
21
-85.212
0
LINE
8
BLACK
6
CONTINUOUS
10
66.319
20
-100.012
11
69.519
21
-103.212
0
LINE
8
BLACK
6
CONTINUOUS
10
69.519
20
-100.012
11
66.319
21
-103.212
0
LINE
8
BLACK
6
CONTINUOUS
10
40.767
20
-99.658
11
43.967
21
-102.858
0
LINE
8
BLACK
6
CONTINUOUS
10
43.967
20
-99.658
11
40.767
21
-102.858
0
LINE
8
BLACK
6
CONTINUOUS
10
68.012
20
-42.516
11
71.212
21
-45.716
0
LINE
8
BLACK
6
CONTINUOUS
10
71.212
20
-42.516
11
68.012
21
-45.716
0
LINE
8
BLACK
6
CONTINUOUS
10
132.893
20
-117.319
11
136.093
21
-120.519
0
LINE
8
BLACK
6
CONTINUOUS
10
136.093
20
-117.319
11
132.893
21
-120.519
0
LINE
8
BLACK
6
CONTINUOUS
10
133.082
20
-42.617
11
136.282
21
-45.817
0
LINE
8
BLACK
6
CONTINUOUS
10
136.282
20
-42.617
11
133.082
21
-45.817
0
LINE
8
BLACK
6
CONTINUOUS
10
57.767
20
-99.658
11
60.967
21
-102.858
0
LINE
8
BLACK
6
CONTINUOUS
10
60.967
20
-99.658
11
57.767
21
-102.858
0
LINE
8
BLACK
6
CONTINUOUS
10
67.771
20
-117.192
11
70.971
21
-120.392
0
LINE
8
BLACK
6
CONTINUOUS
10
70.971
20
-117.192
11
67.771
21
-120.392
0
LINE
8
BLACK
6
CONTINUOUS
10
121.082
20
-60.617
11
124.282
21
-63.817
0
LINE
8
BLACK
6
CONTINUOUS
10
124.282
20
-60.617
11
121.082
21
-63.817
0
LINE
8
BLACK
6
CONTINUOUS
10
40.767
20
-81.658
11
43.967
21
-84.858
0
LINE
8
BLACK
6
CONTINUOUS
10
43.967
20
-81.658
11
40.767
21
-84.858
0
LINE
8
BLACK
6
CONTINUOUS
10
133.082
20
-60.617
11
136.282
21
-63.817
0
LINE
8
BLACK
6
CONTINUOUS
10
136.282
20
-60.617
11
133.082
21
-63.817
0
LINE
8
BLACK
6
CONTINUOUS
10
105.893
20
-135.319
11
109.093
21
-138.519
0
LINE
8
BLACK
6
CONTINUOUS
10
109.093
20
-135.319
11
105.893
21
-138.519
0
LINE
8
BLACK
6
CONTINUOUS
10
57.767
20
-81.658
11
60.967
21
-84.858
0
LINE
8
BLACK
6
CONTINUOUS
10
60.967
20
-81.658
11
57.767
21
-84.858
0
LINE
8
BLACK
6
CONTINUOUS
10
121.082
20
-42.617
11
124.282
21
-45.817
0
LINE
8
BLACK
6
CONTINUOUS
10
124.282
20
-42.617
11
121.082
21
-45.817
0
LINE
8
BLACK
6
CONTINUOUS
10
68.012
20
-60.516
11
71.212
21
-63.716
0
LINE
8
BLACK
6
CONTINUOUS
10
71.212
20
-60.516
11
68.012
21
-63.716
0
LINE
8
BLACK
6
CONTINUOUS
10
41.012
20
-60.516
11
44.212
21
-63.716
0
LINE
8
BLACK
6
CONTINUOUS
10
44.212
20
-60.516
11
41.012
21
-63.716
0
LINE
8
BLACK
6
CONTINUOUS
10
83.319
20
-100.012
11
86.519
21
-103.212
0
LINE
8
BLACK
6
CONTINUOUS
10
86.519
20
-100.012
11
83.319
21
-103.212
0
LINE
8
BLACK
6
CONTINUOUS
10
105.893
20
-117.319
11
109.093
21
-120.519
0
LINE
8
BLACK
6
CONTINUOUS
10
109.093
20
-117.319
11
105.893
21
-120.519
0
LINE
8
BLACK
6
CONTINUOUS
10
41.012
20
-42.516
11
44.212
21
-45.716
0
LINE
8
BLACK
6
CONTINUOUS
10
44.212
20
-42.516
11
41.012
21
-45.716
0
LINE
8
BLACK
6
CONTINUOUS
10
66.319
20
-82.012
11
69.519
21
-85.212
0
LINE
8
BLACK
6
CONTINUOUS
10
69.519
20
-82.012
11
66.319
21
-85.212
0
LINE
8
BLACK
6
CONTINUOUS
10
132.878
20
-72.868
11
136.078
21
-76.068
0
LINE
8
BLACK
6
CONTINUOUS
10
136.078
20
-72.868
11
132.878
21
-76.068
0
LINE
8
BLACK
6
CONTINUOUS
10
40.771
20
-135.192
11
43.971
21
-138.392
0
LINE
8
BLACK
6
CONTINUOUS
10
43.971
20
-135.192
11
40.771
21
-138.392
0
LINE
8
BLACK
6
CONTINUOUS
10
40.771
20
-117.192
11
43.971
21
-120.392
0
LINE
8
BLACK
6
CONTINUOUS
10
43.971
20
-117.192
11
40.771
21
-120.392
0
LINE
8
BLACK
6
CONTINUOUS
10
132.893
20
-135.319
11
136.093
21
-138.519
0
LINE
8
BLACK
6
CONTINUOUS
10
136.093
20
-135.319
11
132.893
21
-138.519
0
LINE
8
BLACK
6
CONTINUOUS
10
81.03
20
-60.262
11
84.23
21
-63.462
0
LINE
8
BLACK
6
CONTINUOUS
10
84.23
20
-60.262
11
81.03
21
-63.462
0
LINE
8
BLACK
6
CONTINUOUS
10
108.03
20
-42.262
11
111.23
21
-45.462
0
LINE
8
BLACK
6
CONTINUOUS
10
111.23
20
-42.262
11
108.03
21
-45.462
0
LINE
8
BLACK
6
CONTINUOUS
10
67.771
20
-135.192
11
70.971
21
-138.392
0
LINE
8
BLACK
6
CONTINUOUS
10
70.971
20
-135.192
11
67.771
21
-138.392
0
LINE
8
BLACK
6
CONTINUOUS
10
120.878
20
-90.868
11
124.078
21
-94.068
0
LINE
8
BLACK
6
CONTINUOUS
10
124.078
20
-90.868
11
120.878
21
-94.068
0
LINE
8
BLACK
6
CONTINUOUS
10
120.878
20
-72.868
11
124.078
21
-76.068
0
LINE
8
BLACK
6
CONTINUOUS
10
124.078
20
-72.868
11
120.878
21
-76.068
0
LINE
8
BLACK
6
CONTINUOUS
10
108.03
20
-60.262
11
111.23
21
-63.462
0
LINE
8
BLACK
6
CONTINUOUS
10
111.23
20
-60.262
11
108.03
21
-63.462
0
LINE
8
BLACK
6
CONTINUOUS
10
132.878
20
-90.868
11
136.078
21
-94.068
0
LINE
8
BLACK
6
CONTINUOUS
10
136.078
20
-90.868
11
132.878
21
-94.068
0
LINE
8
BLACK
6
CONTINUOUS
10
81.03
20
-42.262
11
84.23
21
-45.462
0
LINE
8
BLACK
6
CONTINUOUS
10
84.23
20
-42.262
11
81.03
21
-45.462
0
LINE
8
BLACK
6
CONTINUOUS
10
41.5393
20
-145.179
11
41.5393
21
-142.179
0
LINE
8
BLACK
6
CONTINUOUS
10
41.5393
20
-142.179
11
42.2536
21
-142.179
0
LINE
8
BLACK
6
CONTINUOUS
10
42.2536
20
-142.179
11
42.6821
21
-142.322
0
LINE
8
BLACK
6
CONTINUOUS
10
42.6821
20
-142.322
11
42.9679
21
-142.608
0
LINE
8
BLACK
6
CONTINUOUS
10
42.9679
20
-142.608
11
43.1107
21
-142.893
0
LINE
8
BLACK
6
CONTINUOUS
10
43.1107
20
-142.893
11
43.2536
21
-143.465
0
LINE
8
BLACK
6
CONTINUOUS
10
43.2536
20
-143.465
11
43.2536
21
-143.893
0
LINE
8
BLACK
6
CONTINUOUS
10
43.2536
20
-143.893
11
43.1107
21
-144.465
0
LINE
8
BLACK
6
CONTINUOUS
10
43.1107
20
-144.465
11
42.9679
21
-144.751
0
LINE
8
BLACK
6
CONTINUOUS
10
42.9679
20
-144.751
11
42.6821
21
-145.036
0
LINE
8
BLACK
6
CONTINUOUS
10
42.6821
20
-145.036
11
42.2536
21
-145.179
0
LINE
8
BLACK
6
CONTINUOUS
10
42.2536
20
-145.179
11
41.5393
21
-145.179
0
LINE
8
BLACK
6
CONTINUOUS
10
44.5393
20
-145.179
11
44.5393
21
-143.179
0
LINE
8
BLACK
6
CONTINUOUS
10
44.5393
20
-143.751
11
44.6821
21
-143.465
0
LINE
8
BLACK
6
CONTINUOUS
10
44.6821
20
-143.465
11
44.825
21
-143.322
0
LINE
8
BLACK
6
CONTINUOUS
10
44.825
20
-143.322
11
45.1107
21
-143.179
0
LINE
8
BLACK
6
CONTINUOUS
10
45.1107
20
-143.179
11
45.3964
21
-143.179
0
LINE
8
BLACK
6
CONTINUOUS
10
46.3964
20
-145.179
11
46.3964
21
-143.179
0
LINE
8
BLACK
6
CONTINUOUS
10
46.3964
20
-142.179
11
46.2536
21
-142.322
0
LINE
8
BLACK
6
CONTINUOUS
10
46.2536
20
-142.322
11
46.3964
21
-142.465
0
LINE
8
BLACK
6
CONTINUOUS
10
46.3964
20
-142.465
11
46.5393
21
-142.322
0
LINE
8
BLACK
6
CONTINUOUS
10
46.5393
20
-142.322
11
46.3964
21
-142.179
0
LINE
8
BLACK
6
CONTINUOUS
10
46.3964
20
-142.179
11
46.3964
21
-142.465
0
LINE
8
BLACK
6
CONTINUOUS
10
48.2536
20
-145.179
11
47.9679
21
-145.036
0
LINE
8
BLACK
6
CONTINUOUS
10
47.9679
20
-145.036
11
47.825
21
-144.751
0
LINE
8
BLACK
6
CONTINUOUS
10
47.825
20
-144.751
11
47.825
21
-142.179
0
LINE
8
BLACK
6
CONTINUOUS
10
49.825
20
-145.179
11
49.5393
21
-145.036
0
LINE
8
BLACK
6
CONTINUOUS
10
49.5393
20
-145.036
11
49.3964
21
-144.751
0
LINE
8
BLACK
6
CONTINUOUS
10
49.3964
20
-144.751
11
49.3964
21
-142.179
0
LINE
8
BLACK
6
CONTINUOUS
10
53.2536
20
-145.179
11
53.2536
21
-142.179
0
LINE
8
BLACK
6
CONTINUOUS
10
53.2536
20
-142.179
11
54.2536
21
-144.322
0
LINE
8
BLACK
6
CONTINUOUS
10
54.2536
20
-144.322
11
55.2536
21
-142.179
0
LINE
8
BLACK
6
CONTINUOUS
10
55.2536
20
-142.179
11
55.2536
21
-145.179
0
LINE
8
BLACK
6
CONTINUOUS
10
57.9679
20
-145.179
11
57.9679
21
-143.608
0
LINE
8
BLACK
6
CONTINUOUS
10
57.9679
20
-143.608
11
57.825
21
-143.322
0
LINE
8
BLACK
6
CONTINUOUS
10
57.825
20
-143.322
11
57.5393
21
-143.179
0
LINE
8
BLACK
6
CONTINUOUS
10
57.5393
20
-143.179
11
56.9679
21
-143.179
0
LINE
8
BLACK
6
CONTINUOUS
10
56.9679
20
-143.179
11
56.6821
21
-143.322
0
LINE
8
BLACK
6
CONTINUOUS
10
57.9679
20
-145.036
11
57.6821
21
-145.179
0
LINE
8
BLACK
6
CONTINUOUS
10
57.6821
20
-145.179
11
56.9679
21
-145.179
0
LINE
8
BLACK
6
CONTINUOUS
10
56.9679
20
-145.179
11
56.6821
21
-145.036
0
LINE
8
BLACK
6
CONTINUOUS
10
56.6821
20
-145.036
11
56.5393
21
-144.751
0
LINE
8
BLACK
6
CONTINUOUS
10
56.5393
20
-144.751
11
56.5393
21
-144.465
0
LINE
8
BLACK
6
CONTINUOUS
10
56.5393
20
-144.465
11
56.6821
21
-144.179
0
LINE
8
BLACK
6
CONTINUOUS
10
56.6821
20
-144.179
11
56.9679
21
-144.036
0
LINE
8
BLACK
6
CONTINUOUS
10
56.9679
20
-144.036
11
57.6821
21
-144.036
0
LINE
8
BLACK
6
CONTINUOUS
10
57.6821
20
-144.036
11
57.9679
21
-143.893
0
LINE
8
BLACK
6
CONTINUOUS
10
59.3964
20
-143.179
11
59.3964
21
-146.179
0
LINE
8
BLACK
6
CONTINUOUS
10
59.3964
20
-143.322
11
59.6821
21
-143.179
0
LINE
8
BLACK
6
CONTINUOUS
10
59.6821
20
-143.179
11
60.2536
21
-143.179
0
LINE
8
BLACK
6
CONTINUOUS
10
60.2536
20
-143.179
11
60.5393
21
-143.322
0
LINE
8
BLACK
6
CONTINUOUS
10
60.5393
20
-143.322
11
60.6821
21
-143.465
0
LINE
8
BLACK
6
CONTINUOUS
10
60.6821
20
-143.465
11
60.825
21
-143.751
0
LINE
8
BLACK
6
CONTINUOUS
10
60.825
20
-143.751
11
60.825
21
-144.608
0
LINE
8
BLACK
6
CONTINUOUS
10
60.825
20
-144.608
11
60.6821
21
-144.893
0
LINE
8
BLACK
6
CONTINUOUS
10
60.6821
20
-144.893
11
60.5393
21
-145.036
0
LINE
8
BLACK
6
CONTINUOUS
10
60.5393
20
-145.036
11
60.2536
21
-145.179
0
LINE
8
BLACK
6
CONTINUOUS
10
60.2536
20
-145.179
11
59.6821
21
-145.179
0
LINE
8
BLACK
6
CONTINUOUS
10
59.6821
20
-145.179
11
59.3964
21
-145.036
0
LINE
8
BLACK
6
CONTINUOUS
10
62.1107
20
-144.893
11
62.2536
21
-145.036
0
LINE
8
BLACK
6
CONTINUOUS
10
62.2536
20
-145.036
11
62.1107
21
-145.179
0
LINE
8
BLACK
6
CONTINUOUS
10
62.1107
20
-145.179
11
61.9679
21
-145.036
0
LINE
8
BLACK
6
CONTINUOUS
10
61.9679
20
-145.036
11
62.1107
21
-144.893
0
LINE
8
BLACK
6
CONTINUOUS
10
62.1107
20
-144.893
11
62.1107
21
-145.179
0
LINE
8
BLACK
6
CONTINUOUS
10
62.1107
20
-143.322
11
62.2536
21
-143.465
0
LINE
8
BLACK
6
CONTINUOUS
10
62.2536
20
-143.465
11
62.1107
21
-143.608
0
LINE
8
BLACK
6
CONTINUOUS
10
62.1107
20
-143.608
11
61.9679
21
-143.465
0
LINE
8
BLACK
6
CONTINUOUS
10
61.9679
20
-143.465
11
62.1107
21
-143.322
0
LINE
8
BLACK
6
CONTINUOUS
10
62.1107
20
-143.322
11
62.1107
21
-143.608
0
LINE
8
BLACK
6
CONTINUOUS
10
35.475
20
-148.522
11
38.675
21
-151.722
0
LINE
8
BLACK
6
CONTINUOUS
10
38.675
20
-148.522
11
35.475
21
-151.722
0
LINE
8
BLACK
6
CONTINUOUS
10
41.2536
20
-148.479
11
43.1107
21
-148.479
0
LINE
8
BLACK
6
CONTINUOUS
10
43.1107
20
-148.479
11
42.1107
21
-149.622
0
LINE
8
BLACK
6
CONTINUOUS
10
42.1107
20
-149.622
11
42.5393
21
-149.622
0
LINE
8
BLACK
6
CONTINUOUS
10
42.5393
20
-149.622
11
42.825
21
-149.765
0
LINE
8
BLACK
6
CONTINUOUS
10
42.825
20
-149.765
11
42.9679
21
-149.908
0
LINE
8
BLACK
6
CONTINUOUS
10
42.9679
20
-149.908
11
43.1107
21
-150.193
0
LINE
8
BLACK
6
CONTINUOUS
10
43.1107
20
-150.193
11
43.1107
21
-150.908
0
LINE
8
BLACK
6
CONTINUOUS
10
43.1107
20
-150.908
11
42.9679
21
-151.193
0
LINE
8
BLACK
6
CONTINUOUS
10
42.9679
20
-151.193
11
42.825
21
-151.336
0
LINE
8
BLACK
6
CONTINUOUS
10
42.825
20
-151.336
11
42.5393
21
-151.479
0
LINE
8
BLACK
6
CONTINUOUS
10
42.5393
20
-151.479
11
41.6821
21
-151.479
0
LINE
8
BLACK
6
CONTINUOUS
10
41.6821
20
-151.479
11
41.3964
21
-151.336
0
LINE
8
BLACK
6
CONTINUOUS
10
41.3964
20
-151.336
11
41.2536
21
-151.193
0
LINE
8
BLACK
6
CONTINUOUS
10
44.3964
20
-151.193
11
44.5393
21
-151.336
0
LINE
8
BLACK
6
CONTINUOUS
10
44.5393
20
-151.336
11
44.3964
21
-151.479
0
LINE
8
BLACK
6
CONTINUOUS
10
44.3964
20
-151.479
11
44.2536
21
-151.336
0
LINE
8
BLACK
6
CONTINUOUS
10
44.2536
20
-151.336
11
44.3964
21
-151.193
0
LINE
8
BLACK
6
CONTINUOUS
10
44.3964
20
-151.193
11
44.3964
21
-151.479
0
LINE
8
BLACK
6
CONTINUOUS
10
45.6821
20
-148.765
11
45.825
21
-148.622
0
LINE
8
BLACK
6
CONTINUOUS
10
45.825
20
-148.622
11
46.1107
21
-148.479
0
LINE
8
BLACK
6
CONTINUOUS
10
46.1107
20
-148.479
11
46.825
21
-148.479
0
LINE
8
BLACK
6
CONTINUOUS
10
46.825
20
-148.479
11
47.1107
21
-148.622
0
LINE
8
BLACK
6
CONTINUOUS
10
47.1107
20
-148.622
11
47.2536
21
-148.765
0
LINE
8
BLACK
6
CONTINUOUS
10
47.2536
20
-148.765
11
47.3964
21
-149.051
0
LINE
8
BLACK
6
CONTINUOUS
10
47.3964
20
-149.051
11
47.3964
21
-149.336
0
LINE
8
BLACK
6
CONTINUOUS
10
47.3964
20
-149.336
11
47.2536
21
-149.765
0
LINE
8
BLACK
6
CONTINUOUS
10
47.2536
20
-149.765
11
45.5393
21
-151.479
0
LINE
8
BLACK
6
CONTINUOUS
10
45.5393
20
-151.479
11
47.3964
21
-151.479
0
LINE
8
BLACK
6
CONTINUOUS
10
49.2536
20
-148.479
11
49.5393
21
-148.479
0
LINE
8
BLACK
6
CONTINUOUS
10
49.5393
20
-148.479
11
49.825
21
-148.622
0
LINE
8
BLACK
6
CONTINUOUS
10
49.825
20
-148.622
11
49.9679
21
-148.765
0
LINE
8
BLACK
6
CONTINUOUS
10
49.9679
20
-148.765
11
50.1107
21
-149.051
0
LINE
8
BLACK
6
CONTINUOUS
10
50.1107
20
-149.051
11
50.2536
21
-149.622
0
LINE
8
BLACK
6
CONTINUOUS
10
50.2536
20
-149.622
11
50.2536
21
-150.336
0
LINE
8
BLACK
6
CONTINUOUS
10
50.2536
20
-150.336
11
50.1107
21
-150.908
0
LINE
8
BLACK
6
CONTINUOUS
10
50.1107
20
-150.908
11
49.9679
21
-151.193
0
LINE
8
BLACK
6
CONTINUOUS
10
49.9679
20
-151.193
11
49.825
21
-151.336
0
LINE
8
BLACK
6
CONTINUOUS
10
49.825
20
-151.336
11
49.5393
21
-151.479
0
LINE
8
BLACK
6
CONTINUOUS
10
49.5393
20
-151.479
11
49.2536
21
-151.479
0
LINE
8
BLACK
6
CONTINUOUS
10
49.2536
20
-151.479
11
48.9679
21
-151.336
0
LINE
8
BLACK
6
CONTINUOUS
10
48.9679
20
-151.336
11
48.825
21
-151.193
0
LINE
8
BLACK
6
CONTINUOUS
10
48.825
20
-151.193
11
48.6821
21
-150.908
0
LINE
8
BLACK
6
CONTINUOUS
10
48.6821
20
-150.908
11
48.5393
21
-150.336
0
LINE
8
BLACK
6
CONTINUOUS
10
48.5393
20
-150.336
11
48.5393
21
-149.622
0
LINE
8
BLACK
6
CONTINUOUS
10
48.5393
20
-149.622
11
48.6821
21
-149.051
0
LINE
8
BLACK
6
CONTINUOUS
10
48.6821
20
-149.051
11
48.825
21
-148.765
0
LINE
8
BLACK
6
CONTINUOUS
10
48.825
20
-148.765
11
48.9679
21
-148.622
0
LINE
8
BLACK
6
CONTINUOUS
10
48.9679
20
-148.622
11
49.2536
21
-148.479
0
LINE
8
BLACK
6
CONTINUOUS
10
51.5393
20
-151.479
11
51.5393
21
-149.479
0
LINE
8
BLACK
6
CONTINUOUS
10
51.5393
20
-149.765
11
51.6821
21
-149.622
0
LINE
8
BLACK
6
CONTINUOUS
10
51.6821
20
-149.622
11
51.9679
21
-149.479
0
LINE
8
BLACK
6
CONTINUOUS
10
51.9679
20
-149.479
11
52.3964
21
-149.479
0
LINE
8
BLACK
6
CONTINUOUS
10
52.3964
20
-149.479
11
52.6821
21
-149.622
0
LINE
8
BLACK
6
CONTINUOUS
10
52.6821
20
-149.622
11
52.825
21
-149.908
0
LINE
8
BLACK
6
CONTINUOUS
10
52.825
20
-149.908
11
52.825
21
-151.479
0
LINE
8
BLACK
6
CONTINUOUS
10
52.825
20
-149.908
11
52.9679
21
-149.622
0
LINE
8
BLACK
6
CONTINUOUS
10
52.9679
20
-149.622
11
53.2536
21
-149.479
0
LINE
8
BLACK
6
CONTINUOUS
10
53.2536
20
-149.479
11
53.6821
21
-149.479
0
LINE
8
BLACK
6
CONTINUOUS
10
53.6821
20
-149.479
11
53.9679
21
-149.622
0
LINE
8
BLACK
6
CONTINUOUS
10
53.9679
20
-149.622
11
54.1107
21
-149.908
0
LINE
8
BLACK
6
CONTINUOUS
10
54.1107
20
-149.908
11
54.1107
21
-151.479
0
LINE
8
BLACK
6
CONTINUOUS
10
55.5393
20
-151.479
11
55.5393
21
-149.479
0
LINE
8
BLACK
6
CONTINUOUS
10
55.5393
20
-149.765
11
55.6821
21
-149.622
0
LINE
8
BLACK
6
CONTINUOUS
10
55.6821
20
-149.622
11
55.9679
21
-149.479
0
LINE
8
BLACK
6
CONTINUOUS
10
55.9679
20
-149.479
11
56.3964
21
-149.479
0
LINE
8
BLACK
6
CONTINUOUS
10
56.3964
20
-149.479
11
56.6821
21
-149.622
0
LINE
8
BLACK
6
CONTINUOUS
10
56.6821
20
-149.622
11
56.825
21
-149.908
0
LINE
8
BLACK
6
CONTINUOUS
10
56.825
20
-149.908
11
56.825
21
-151.479
0
LINE
8
BLACK
6
CONTINUOUS
10
56.825
20
-149.908
11
56.9679
21
-149.622
0
LINE
8
BLACK
6
CONTINUOUS
10
56.9679
20
-149.622
11
57.2536
21
-149.479
0
LINE
8
BLACK
6
CONTINUOUS
10
57.2536
20
-149.479
11
57.6821
21
-149.479
0
LINE
8
BLACK
6
CONTINUOUS
10
57.6821
20
-149.479
11
57.9679
21
-149.622
0
LINE
8
BLACK
6
CONTINUOUS
10
57.9679
20
-149.622
11
58.1107
21
-149.908
0
LINE
8
BLACK
6
CONTINUOUS
10
58.1107
20
-149.908
11
58.1107
21
-151.479
0
LINE
8
BLACK
6
CONTINUOUS
10
63.9679
20
-148.336
11
61.3964
21
-152.193
0
LINE
8
BLACK
6
CONTINUOUS
10
67.825
20
-148.479
11
68.1107
21
-148.479
0
LINE
8
BLACK
6
CONTINUOUS
10
68.1107
20
-148.479
11
68.3964
21
-148.622
0
LINE
8
BLACK
6
CONTINUOUS
10
68.3964
20
-148.622
11
68.5393
21
-148.765
0
LINE
8
BLACK
6
CONTINUOUS
10
68.5393
20
-148.765
11
68.6821
21
-149.051
0
LINE
8
BLACK
6
CONTINUOUS
10
68.6821
20
-149.051
11
68.825
21
-149.622
0
LINE
8
BLACK
6
CONTINUOUS
10
68.825
20
-149.622
11
68.825
21
-150.336
0
LINE
8
BLACK
6
CONTINUOUS
10
68.825
20
-150.336
11
68.6821
21
-150.908
0
LINE
8
BLACK
6
CONTINUOUS
10
68.6821
20
-150.908
11
68.5393
21
-151.193
0
LINE
8
BLACK
6
CONTINUOUS
10
68.5393
20
-151.193
11
68.3964
21
-151.336
0
LINE
8
BLACK
6
CONTINUOUS
10
68.3964
20
-151.336
11
68.1107
21
-151.479
0
LINE
8
BLACK
6
CONTINUOUS
10
68.1107
20
-151.479
11
67.825
21
-151.479
0
LINE
8
BLACK
6
CONTINUOUS
10
67.825
20
-151.479
11
67.5393
21
-151.336
0
LINE
8
BLACK
6
CONTINUOUS
10
67.5393
20
-151.336
11
67.3964
21
-151.193
0
LINE
8
BLACK
6
CONTINUOUS
10
67.3964
20
-151.193
11
67.2536
21
-150.908
0
LINE
8
BLACK
6
CONTINUOUS
10
67.2536
20
-150.908
11
67.1107
21
-150.336
0
LINE
8
BLACK
6
CONTINUOUS
10
67.1107
20
-150.336
11
67.1107
21
-149.622
0
LINE
8
BLACK
6
CONTINUOUS
10
67.1107
20
-149.622
11
67.2536
21
-149.051
0
LINE
8
BLACK
6
CONTINUOUS
10
67.2536
20
-149.051
11
67.3964
21
-148.765
0
LINE
8
BLACK
6
CONTINUOUS
10
67.3964
20
-148.765
11
67.5393
21
-148.622
0
LINE
8
BLACK
6
CONTINUOUS
10
67.5393
20
-148.622
11
67.825
21
-148.479
0
LINE
8
BLACK
6
CONTINUOUS
10
70.1107
20
-151.193
11
70.2536
21
-151.336
0
LINE
8
BLACK
6
CONTINUOUS
10
70.2536
20
-151.336
11
70.1107
21
-151.479
0
LINE
8
BLACK
6
CONTINUOUS
10
70.1107
20
-151.479
11
69.9679
21
-151.336
0
LINE
8
BLACK
6
CONTINUOUS
10
69.9679
20
-151.336
11
70.1107
21
-151.193
0
LINE
8
BLACK
6
CONTINUOUS
10
70.1107
20
-151.193
11
70.1107
21
-151.479
0
LINE
8
BLACK
6
CONTINUOUS
10
73.1107
20
-151.479
11
71.3964
21
-151.479
0
LINE
8
BLACK
6
CONTINUOUS
10
72.2536
20
-151.479
11
72.2536
21
-148.479
0
LINE
8
BLACK
6
CONTINUOUS
10
72.2536
20
-148.479
11
71.9679
21
-148.908
0
LINE
8
BLACK
6
CONTINUOUS
10
71.9679
20
-148.908
11
71.6821
21
-149.193
0
LINE
8
BLACK
6
CONTINUOUS
10
71.6821
20
-149.193
11
71.3964
21
-149.336
0
LINE
8
BLACK
6
CONTINUOUS
10
74.2536
20
-148.765
11
74.3964
21
-148.622
0
LINE
8
BLACK
6
CONTINUOUS
10
74.3964
20
-148.622
11
74.6821
21
-148.479
0
LINE
8
BLACK
6
CONTINUOUS
10
74.6821
20
-148.479
11
75.3964
21
-148.479
0
LINE
8
BLACK
6
CONTINUOUS
10
75.3964
20
-148.479
11
75.6821
21
-148.622
0
LINE
8
BLACK
6
CONTINUOUS
10
75.6821
20
-148.622
11
75.825
21
-148.765
0
LINE
8
BLACK
6
CONTINUOUS
10
75.825
20
-148.765
11
75.9679
21
-149.051
0
LINE
8
BLACK
6
CONTINUOUS
10
75.9679
20
-149.051
11
75.9679
21
-149.336
0
LINE
8
BLACK
6
CONTINUOUS
10
75.9679
20
-149.336
11
75.825
21
-149.765
0
LINE
8
BLACK
6
CONTINUOUS
10
75.825
20
-149.765
11
74.1107
21
-151.479
0
LINE
8
BLACK
6
CONTINUOUS
10
74.1107
20
-151.479
11
75.9679
21
-151.479
0
LINE
8
BLACK
6
CONTINUOUS
10
78.5393
20
-148.479
11
77.9679
21
-148.479
0
LINE
8
BLACK
6
CONTINUOUS
10
77.9679
20
-148.479
11
77.6821
21
-148.622
0
LINE
8
BLACK
6
CONTINUOUS
10
77.6821
20
-148.622
11
77.5393
21
-148.765
0
LINE
8
BLACK
6
CONTINUOUS
10
77.5393
20
-148.765
11
77.2536
21
-149.193
0
LINE
8
BLACK
6
CONTINUOUS
10
77.2536
20
-149.193
11
77.1107
21
-149.765
0
LINE
8
BLACK
6
CONTINUOUS
10
77.1107
20
-149.765
11
77.1107
21
-150.908
0
LINE
8
BLACK
6
CONTINUOUS
10
77.1107
20
-150.908
11
77.2536
21
-151.193
0
LINE
8
BLACK
6
CONTINUOUS
10
77.2536
20
-151.193
11
77.3964
21
-151.336
0
LINE
8
BLACK
6
CONTINUOUS
10
77.3964
20
-151.336
11
77.6821
21
-151.479
0
LINE
8
BLACK
6
CONTINUOUS
10
77.6821
20
-151.479
11
78.2536
21
-151.479
0
LINE
8
BLACK
6
CONTINUOUS
10
78.2536
20
-151.479
11
78.5393
21
-151.336
0
LINE
8
BLACK
6
CONTINUOUS
10
78.5393
20
-151.336
11
78.6821
21
-151.193
0
LINE
8
BLACK
6
CONTINUOUS
10
78.6821
20
-151.193
11
78.825
21
-150.908
0
LINE
8
BLACK
6
CONTINUOUS
10
78.825
20
-150.908
11
78.825
21
-150.193
0
LINE
8
BLACK
6
CONTINUOUS
10
78.825
20
-150.193
11
78.6821
21
-149.908
0
LINE
8
BLACK
6
CONTINUOUS
10
78.6821
20
-149.908
11
78.5393
21
-149.765
0
LINE
8
BLACK
6
CONTINUOUS
10
78.5393
20
-149.765
11
78.2536
21
-149.622
0
LINE
8
BLACK
6
CONTINUOUS
10
78.2536
20
-149.622
11
77.6821
21
-149.622
0
LINE
8
BLACK
6
CONTINUOUS
10
77.6821
20
-149.622
11
77.3964
21
-149.765
0
LINE
8
BLACK
6
CONTINUOUS
10
77.3964
20
-149.765
11
77.2536
21
-149.908
0
LINE
8
BLACK
6
CONTINUOUS
10
77.2536
20
-149.908
11
77.1107
21
-150.193
0
LINE
8
BLACK
6
CONTINUOUS
10
79.9679
20
-148.479
11
79.9679
21
-149.051
0
LINE
8
BLACK
6
CONTINUOUS
10
81.1107
20
-148.479
11
81.1107
21
-149.051
0
LINE
8
BLACK
6
CONTINUOUS
10
85.5393
20
-152.622
11
85.3964
21
-152.479
0
LINE
8
BLACK
6
CONTINUOUS
10
85.3964
20
-152.479
11
85.1107
21
-152.051
0
LINE
8
BLACK
6
CONTINUOUS
10
85.1107
20
-152.051
11
84.9679
21
-151.765
0
LINE
8
BLACK
6
CONTINUOUS
10
84.9679
20
-151.765
11
84.825
21
-151.336
0
LINE
8
BLACK
6
CONTINUOUS
10
84.825
20
-151.336
11
84.6821
21
-150.622
0
LINE
8
BLACK
6
CONTINUOUS
10
84.6821
20
-150.622
11
84.6821
21
-150.051
0
LINE
8
BLACK
6
CONTINUOUS
10
84.6821
20
-150.051
11
84.825
21
-149.336
0
LINE
8
BLACK
6
CONTINUOUS
10
84.825
20
-149.336
11
84.9679
21
-148.908
0
LINE
8
BLACK
6
CONTINUOUS
10
84.9679
20
-148.908
11
85.1107
21
-148.622
0
LINE
8
BLACK
6
CONTINUOUS
10
85.1107
20
-148.622
11
85.3964
21
-148.193
0
LINE
8
BLACK
6
CONTINUOUS
10
85.3964
20
-148.193
11
85.5393
21
-148.051
0
LINE
8
BLACK
6
CONTINUOUS
10
86.3964
20
-148.479
11
88.2536
21
-148.479
0
LINE
8
BLACK
6
CONTINUOUS
10
88.2536
20
-148.479
11
87.2536
21
-149.622
0
LINE
8
BLACK
6
CONTINUOUS
10
87.2536
20
-149.622
11
87.6821
21
-149.622
0
LINE
8
BLACK
6
CONTINUOUS
10
87.6821
20
-149.622
11
87.9679
21
-149.765
0
LINE
8
BLACK
6
CONTINUOUS
10
87.9679
20
-149.765
11
88.1107
21
-149.908
0
LINE
8
BLACK
6
CONTINUOUS
10
88.1107
20
-149.908
11
88.2536
21
-150.193
0
LINE
8
BLACK
6
CONTINUOUS
10
88.2536
20
-150.193
11
88.2536
21
-150.908
0
LINE
8
BLACK
6
CONTINUOUS
10
88.2536
20
-150.908
11
88.1107
21
-151.193
0
LINE
8
BLACK
6
CONTINUOUS
10
88.1107
20
-151.193
11
87.9679
21
-151.336
0
LINE
8
BLACK
6
CONTINUOUS
10
87.9679
20
-151.336
11
87.6821
21
-151.479
0
LINE
8
BLACK
6
CONTINUOUS
10
87.6821
20
-151.479
11
86.825
21
-151.479
0
LINE
8
BLACK
6
CONTINUOUS
10
86.825
20
-151.479
11
86.5393
21
-151.336
0
LINE
8
BLACK
6
CONTINUOUS
10
86.5393
20
-151.336
11
86.3964
21
-151.193
0
LINE
8
BLACK
6
CONTINUOUS
10
89.3964
20
-148.765
11
89.5393
21
-148.622
0
LINE
8
BLACK
6
CONTINUOUS
10
89.5393
20
-148.622
11
89.825
21
-148.479
0
LINE
8
BLACK
6
CONTINUOUS
10
89.825
20
-148.479
11
90.5393
21
-148.479
0
LINE
8
BLACK
6
CONTINUOUS
10
90.5393
20
-148.479
11
90.825
21
-148.622
0
LINE
8
BLACK
6
CONTINUOUS
10
90.825
20
-148.622
11
90.9679
21
-148.765
0
LINE
8
BLACK
6
CONTINUOUS
10
90.9679
20
-148.765
11
91.1107
21
-149.051
0
LINE
8
BLACK
6
CONTINUOUS
10
91.1107
20
-149.051
11
91.1107
21
-149.336
0
LINE
8
BLACK
6
CONTINUOUS
10
91.1107
20
-149.336
11
90.9679
21
-149.765
0
LINE
8
BLACK
6
CONTINUOUS
10
90.9679
20
-149.765
11
89.2536
21
-151.479
0
LINE
8
BLACK
6
CONTINUOUS
10
89.2536
20
-151.479
11
91.1107
21
-151.479
0
LINE
8
BLACK
6
CONTINUOUS
10
94.6821
20
-151.479
11
94.6821
21
-148.479
0
LINE
8
BLACK
6
CONTINUOUS
10
95.9679
20
-151.479
11
95.9679
21
-149.908
0
LINE
8
BLACK
6
CONTINUOUS
10
95.9679
20
-149.908
11
95.825
21
-149.622
0
LINE
8
BLACK
6
CONTINUOUS
10
95.825
20
-149.622
11
95.5393
21
-149.479
0
LINE
8
BLACK
6
CONTINUOUS
10
95.5393
20
-149.479
11
95.1107
21
-149.479
0
LINE
8
BLACK
6
CONTINUOUS
10
95.1107
20
-149.479
11
94.825
21
-149.622
0
LINE
8
BLACK
6
CONTINUOUS
10
94.825
20
-149.622
11
94.6821
21
-149.765
0
LINE
8
BLACK
6
CONTINUOUS
10
97.825
20
-151.479
11
97.5393
21
-151.336
0
LINE
8
BLACK
6
CONTINUOUS
10
97.5393
20
-151.336
11
97.3964
21
-151.193
0
LINE
8
BLACK
6
CONTINUOUS
10
97.3964
20
-151.193
11
97.2536
21
-150.908
0
LINE
8
BLACK
6
CONTINUOUS
10
97.2536
20
-150.908
11
97.2536
21
-150.051
0
LINE
8
BLACK
6
CONTINUOUS
10
97.2536
20
-150.051
11
97.3964
21
-149.765
0
LINE
8
BLACK
6
CONTINUOUS
10
97.3964
20
-149.765
11
97.5393
21
-149.622
0
LINE
8
BLACK
6
CONTINUOUS
10
97.5393
20
-149.622
11
97.825
21
-149.479
0
LINE
8
BLACK
6
CONTINUOUS
10
97.825
20
-149.479
11
98.2536
21
-149.479
0
LINE
8
BLACK
6
CONTINUOUS
10
98.2536
20
-149.479
11
98.5393
21
-149.622
0
LINE
8
BLACK
6
CONTINUOUS
10
98.5393
20
-149.622
11
98.6821
21
-149.765
0
LINE
8
BLACK
6
CONTINUOUS
10
98.6821
20
-149.765
11
98.825
21
-150.051
0
LINE
8
BLACK
6
CONTINUOUS
10
98.825
20
-150.051
11
98.825
21
-150.908
0
LINE
8
BLACK
6
CONTINUOUS
10
98.825
20
-150.908
11
98.6821
21
-151.193
0
LINE
8
BLACK
6
CONTINUOUS
10
98.6821
20
-151.193
11
98.5393
21
-151.336
0
LINE
8
BLACK
6
CONTINUOUS
10
98.5393
20
-151.336
11
98.2536
21
-151.479
0
LINE
8
BLACK
6
CONTINUOUS
10
98.2536
20
-151.479
11
97.825
21
-151.479
0
LINE
8
BLACK
6
CONTINUOUS
10
100.539
20
-151.479
11
100.254
21
-151.336
0
LINE
8
BLACK
6
CONTINUOUS
10
100.254
20
-151.336
11
100.111
21
-151.051
0
LINE
8
BLACK
6
CONTINUOUS
10
100.111
20
-151.051
11
100.111
21
-148.479
0
LINE
8
BLACK
6
CONTINUOUS
10
102.825
20
-151.336
11
102.539
21
-151.479
0
LINE
8
BLACK
6
CONTINUOUS
10
102.539
20
-151.479
11
101.968
21
-151.479
0
LINE
8
BLACK
6
CONTINUOUS
10
101.968
20
-151.479
11
101.682
21
-151.336
0
LINE
8
BLACK
6
CONTINUOUS
10
101.682
20
-151.336
11
101.539
21
-151.051
0
LINE
8
BLACK
6
CONTINUOUS
10
101.539
20
-151.051
11
101.539
21
-149.908
0
LINE
8
BLACK
6
CONTINUOUS
10
101.539
20
-149.908
11
101.682
21
-149.622
0
LINE
8
BLACK
6
CONTINUOUS
10
101.682
20
-149.622
11
101.968
21
-149.479
0
LINE
8
BLACK
6
CONTINUOUS
10
101.968
20
-149.479
11
102.539
21
-149.479
0
LINE
8
BLACK
6
CONTINUOUS
10
102.539
20
-149.479
11
102.825
21
-149.622
0
LINE
8
BLACK
6
CONTINUOUS
10
102.825
20
-149.622
11
102.968
21
-149.908
0
LINE
8
BLACK
6
CONTINUOUS
10
102.968
20
-149.908
11
102.968
21
-150.193
0
LINE
8
BLACK
6
CONTINUOUS
10
102.968
20
-150.193
11
101.539
21
-150.479
0
LINE
8
BLACK
6
CONTINUOUS
10
104.111
20
-151.336
11
104.396
21
-151.479
0
LINE
8
BLACK
6
CONTINUOUS
10
104.396
20
-151.479
11
104.968
21
-151.479
0
LINE
8
BLACK
6
CONTINUOUS
10
104.968
20
-151.479
11
105.254
21
-151.336
0
LINE
8
BLACK
6
CONTINUOUS
10
105.254
20
-151.336
11
105.396
21
-151.051
0
LINE
8
BLACK
6
CONTINUOUS
10
105.396
20
-151.051
11
105.396
21
-150.908
0
LINE
8
BLACK
6
CONTINUOUS
10
105.396
20
-150.908
11
105.254
21
-150.622
0
LINE
8
BLACK
6
CONTINUOUS
10
105.254
20
-150.622
11
104.968
21
-150.479
0
LINE
8
BLACK
6
CONTINUOUS
10
104.968
20
-150.479
11
104.539
21
-150.479
0
LINE
8
BLACK
6
CONTINUOUS
10
104.539
20
-150.479
11
104.254
21
-150.336
0
LINE
8
BLACK
6
CONTINUOUS
10
104.254
20
-150.336
11
104.111
21
-150.051
0
LINE
8
BLACK
6
CONTINUOUS
10
104.111
20
-150.051
11
104.111
21
-149.908
0
LINE
8
BLACK
6
CONTINUOUS
10
104.111
20
-149.908
11
104.254
21
-149.622
0
LINE
8
BLACK
6
CONTINUOUS
10
104.254
20
-149.622
11
104.539
21
-149.479
0
LINE
8
BLACK
6
CONTINUOUS
10
104.539
20
-149.479
11
104.968
21
-149.479
0
LINE
8
BLACK
6
CONTINUOUS
10
104.968
20
-149.479
11
105.254
21
-149.622
0
LINE
8
BLACK
6
CONTINUOUS
10
106.396
20
-152.622
11
106.539
21
-152.479
0
LINE
8
BLACK
6
CONTINUOUS
10
106.539
20
-152.479
11
106.825
21
-152.051
0
LINE
8
BLACK
6
CONTINUOUS
10
106.825
20
-152.051
11
106.968
21
-151.765
0
LINE
8
BLACK
6
CONTINUOUS
10
106.968
20
-151.765
11
107.111
21
-151.336
0
LINE
8
BLACK
6
CONTINUOUS
10
107.111
20
-151.336
11
107.254
21
-150.622
0
LINE
8
BLACK
6
CONTINUOUS
10
107.254
20
-150.622
11
107.254
21
-150.051
0
LINE
8
BLACK
6
CONTINUOUS
10
107.254
20
-150.051
11
107.111
21
-149.336
0
LINE
8
BLACK
6
CONTINUOUS
10
107.111
20
-149.336
11
106.968
21
-148.908
0
LINE
8
BLACK
6
CONTINUOUS
10
106.968
20
-148.908
11
106.825
21
-148.622
0
LINE
8
BLACK
6
CONTINUOUS
10
106.825
20
-148.622
11
106.539
21
-148.193
0
LINE
8
BLACK
6
CONTINUOUS
10
106.539
20
-148.193
11
106.396
21
-148.051
0
LINE
8
BLACK
6
CONTINUOUS
10
111.825
20
-152.622
11
111.682
21
-152.479
0
LINE
8
BLACK
6
CONTINUOUS
10
111.682
20
-152.479
11
111.396
21
-152.051
0
LINE
8
BLACK
6
CONTINUOUS
10
111.396
20
-152.051
11
111.254
21
-151.765
0
LINE
8
BLACK
6
CONTINUOUS
10
111.254
20
-151.765
11
111.111
21
-151.336
0
LINE
8
BLACK
6
CONTINUOUS
10
111.111
20
-151.336
11
110.968
21
-150.622
0
LINE
8
BLACK
6
CONTINUOUS
10
110.968
20
-150.622
11
110.968
21
-150.051
0
LINE
8
BLACK
6
CONTINUOUS
10
110.968
20
-150.051
11
111.111
21
-149.336
0
LINE
8
BLACK
6
CONTINUOUS
10
111.111
20
-149.336
11
111.254
21
-148.908
0
LINE
8
BLACK
6
CONTINUOUS
10
111.254
20
-148.908
11
111.396
21
-148.622
0
LINE
8
BLACK
6
CONTINUOUS
10
111.396
20
-148.622
11
111.682
21
-148.193
0
LINE
8
BLACK
6
CONTINUOUS
10
111.682
20
-148.193
11
111.825
21
-148.051
0
LINE
8
BLACK
6
CONTINUOUS
10
112.968
20
-149.479
11
112.968
21
-151.479
0
LINE
8
BLACK
6
CONTINUOUS
10
112.968
20
-149.765
11
113.111
21
-149.622
0
LINE
8
BLACK
6
CONTINUOUS
10
113.111
20
-149.622
11
113.396
21
-149.479
0
LINE
8
BLACK
6
CONTINUOUS
10
113.396
20
-149.479
11
113.825
21
-149.479
0
LINE
8
BLACK
6
CONTINUOUS
10
113.825
20
-149.479
11
114.111
21
-149.622
0
LINE
8
BLACK
6
CONTINUOUS
10
114.111
20
-149.622
11
114.254
21
-149.908
0
LINE
8
BLACK
6
CONTINUOUS
10
114.254
20
-149.908
11
114.254
21
-151.479
0
LINE
8
BLACK
6
CONTINUOUS
10
116.111
20
-151.479
11
115.825
21
-151.336
0
LINE
8
BLACK
6
CONTINUOUS
10
115.825
20
-151.336
11
115.682
21
-151.193
0
LINE
8
BLACK
6
CONTINUOUS
10
115.682
20
-151.193
11
115.539
21
-150.908
0
LINE
8
BLACK
6
CONTINUOUS
10
115.539
20
-150.908
11
115.539
21
-150.051
0
LINE
8
BLACK
6
CONTINUOUS
10
115.539
20
-150.051
11
115.682
21
-149.765
0
LINE
8
BLACK
6
CONTINUOUS
10
115.682
20
-149.765
11
115.825
21
-149.622
0
LINE
8
BLACK
6
CONTINUOUS
10
115.825
20
-149.622
11
116.111
21
-149.479
0
LINE
8
BLACK
6
CONTINUOUS
10
116.111
20
-149.479
11
116.539
21
-149.479
0
LINE
8
BLACK
6
CONTINUOUS
10
116.539
20
-149.479
11
116.825
21
-149.622
0
LINE
8
BLACK
6
CONTINUOUS
10
116.825
20
-149.622
11
116.968
21
-149.765
0
LINE
8
BLACK
6
CONTINUOUS
10
116.968
20
-149.765
11
117.111
21
-150.051
0
LINE
8
BLACK
6
CONTINUOUS
10
117.111
20
-150.051
11
117.111
21
-150.908
0
LINE
8
BLACK
6
CONTINUOUS
10
117.111
20
-150.908
11
116.968
21
-151.193
0
LINE
8
BLACK
6
CONTINUOUS
10
116.968
20
-151.193
11
116.825
21
-151.336
0
LINE
8
BLACK
6
CONTINUOUS
10
116.825
20
-151.336
11
116.539
21
-151.479
0
LINE
8
BLACK
6
CONTINUOUS
10
116.539
20
-151.479
11
116.111
21
-151.479
0
LINE
8
BLACK
6
CONTINUOUS
10
117.968
20
-149.479
11
119.111
21
-149.479
0
LINE
8
BLACK
6
CONTINUOUS
10
118.396
20
-148.479
11
118.396
21
-151.051
0
LINE
8
BLACK
6
CONTINUOUS
10
118.396
20
-151.051
11
118.539
21
-151.336
0
LINE
8
BLACK
6
CONTINUOUS
10
118.539
20
-151.336
11
118.825
21
-151.479
0
LINE
8
BLACK
6
CONTINUOUS
10
118.825
20
-151.479
11
119.111
21
-151.479
0
LINE
8
BLACK
6
CONTINUOUS
10
122.396
20
-149.479
11
122.396
21
-152.479
0
LINE
8
BLACK
6
CONTINUOUS
10
122.396
20
-149.622
11
122.682
21
-149.479
0
LINE
8
BLACK
6
CONTINUOUS
10
122.682
20
-149.479
11
123.254
21
-149.479
0
LINE
8
BLACK
6
CONTINUOUS
10
123.254
20
-149.479
11
123.539
21
-149.622
0
LINE
8
BLACK
6
CONTINUOUS
10
123.539
20
-149.622
11
123.682
21
-149.765
0
LINE
8
BLACK
6
CONTINUOUS
10
123.682
20
-149.765
11
123.825
21
-150.051
0
LINE
8
BLACK
6
CONTINUOUS
10
123.825
20
-150.051
11
123.825
21
-150.908
0
LINE
8
BLACK
6
CONTINUOUS
10
123.825
20
-150.908
11
123.682
21
-151.193
0
LINE
8
BLACK
6
CONTINUOUS
10
123.682
20
-151.193
11
123.539
21
-151.336
0
LINE
8
BLACK
6
CONTINUOUS
10
123.539
20
-151.336
11
123.254
21
-151.479
0
LINE
8
BLACK
6
CONTINUOUS
10
123.254
20
-151.479
11
122.682
21
-151.479
0
LINE
8
BLACK
6
CONTINUOUS
10
122.682
20
-151.479
11
122.396
21
-151.336
0
LINE
8
BLACK
6
CONTINUOUS
10
125.539
20
-151.479
11
125.254
21
-151.336
0
LINE
8
BLACK
6
CONTINUOUS
10
125.254
20
-151.336
11
125.111
21
-151.051
0
LINE
8
BLACK
6
CONTINUOUS
10
125.111
20
-151.051
11
125.111
21
-148.479
0
LINE
8
BLACK
6
CONTINUOUS
10
127.968
20
-151.479
11
127.968
21
-149.908
0
LINE
8
BLACK
6
CONTINUOUS
10
127.968
20
-149.908
11
127.825
21
-149.622
0
LINE
8
BLACK
6
CONTINUOUS
10
127.825
20
-149.622
11
127.539
21
-149.479
0
LINE
8
BLACK
6
CONTINUOUS
10
127.539
20
-149.479
11
126.968
21
-149.479
0
LINE
8
BLACK
6
CONTINUOUS
10
126.968
20
-149.479
11
126.682
21
-149.622
0
LINE
8
BLACK
6
CONTINUOUS
10
127.968
20
-151.336
11
127.682
21
-151.479
0
LINE
8
BLACK
6
CONTINUOUS
10
127.682
20
-151.479
11
126.968
21
-151.479
0
LINE
8
BLACK
6
CONTINUOUS
10
126.968
20
-151.479
11
126.682
21
-151.336
0
LINE
8
BLACK
6
CONTINUOUS
10
126.682
20
-151.336
11
126.539
21
-151.051
0
LINE
8
BLACK
6
CONTINUOUS
10
126.539
20
-151.051
11
126.539
21
-150.765
0
LINE
8
BLACK
6
CONTINUOUS
10
126.539
20
-150.765
11
126.682
21
-150.479
0
LINE
8
BLACK
6
CONTINUOUS
10
126.682
20
-150.479
11
126.968
21
-150.336
0
LINE
8
BLACK
6
CONTINUOUS
10
126.968
20
-150.336
11
127.682
21
-150.336
0
LINE
8
BLACK
6
CONTINUOUS
10
127.682
20
-150.336
11
127.968
21
-150.193
0
LINE
8
BLACK
6
CONTINUOUS
10
128.968
20
-149.479
11
130.111
21
-149.479
0
LINE
8
BLACK
6
CONTINUOUS
10
129.396
20
-148.479
11
129.396
21
-151.051
0
LINE
8
BLACK
6
CONTINUOUS
10
129.396
20
-151.051
11
129.539
21
-151.336
0
LINE
8
BLACK
6
CONTINUOUS
10
129.539
20
-151.336
11
129.825
21
-151.479
0
LINE
8
BLACK
6
CONTINUOUS
10
129.825
20
-151.479
11
130.111
21
-151.479
0
LINE
8
BLACK
6
CONTINUOUS
10
132.254
20
-151.336
11
131.968
21
-151.479
0
LINE
8
BLACK
6
CONTINUOUS
10
131.968
20
-151.479
11
131.396
21
-151.479
0
LINE
8
BLACK
6
CONTINUOUS
10
131.396
20
-151.479
11
131.111
21
-151.336
0
LINE
8
BLACK
6
CONTINUOUS
10
131.111
20
-151.336
11
130.968
21
-151.051
0
LINE
8
BLACK
6
CONTINUOUS
10
130.968
20
-151.051
11
130.968
21
-149.908
0
LINE
8
BLACK
6
CONTINUOUS
10
130.968
20
-149.908
11
131.111
21
-149.622
0
LINE
8
BLACK
6
CONTINUOUS
10
131.111
20
-149.622
11
131.396
21
-149.479
0
LINE
8
BLACK
6
CONTINUOUS
10
131.396
20
-149.479
11
131.968
21
-149.479
0
LINE
8
BLACK
6
CONTINUOUS
10
131.968
20
-149.479
11
132.254
21
-149.622
0
LINE
8
BLACK
6
CONTINUOUS
10
132.254
20
-149.622
11
132.396
21
-149.908
0
LINE
8
BLACK
6
CONTINUOUS
10
132.396
20
-149.908
11
132.396
21
-150.193
0
LINE
8
BLACK
6
CONTINUOUS
10
132.396
20
-150.193
11
130.968
21
-150.479
0
LINE
8
BLACK
6
CONTINUOUS
10
134.968
20
-151.479
11
134.968
21
-148.479
0
LINE
8
BLACK
6
CONTINUOUS
10
134.968
20
-151.336
11
134.682
21
-151.479
0
LINE
8
BLACK
6
CONTINUOUS
10
134.682
20
-151.479
11
134.111
21
-151.479
0
LINE
8
BLACK
6
CONTINUOUS
10
134.111
20
-151.479
11
133.825
21
-151.336
0
LINE
8
BLACK
6
CONTINUOUS
10
133.825
20
-151.336
11
133.682
21
-151.193
0
LINE
8
BLACK
6
CONTINUOUS
10
133.682
20
-151.193
11
133.539
21
-150.908
0
LINE
8
BLACK
6
CONTINUOUS
10
133.539
20
-150.908
11
133.539
21
-150.051
0
LINE
8
BLACK
6
CONTINUOUS
10
133.539
20
-150.051
11
133.682
21
-149.765
0
LINE
8
BLACK
6
CONTINUOUS
10
133.682
20
-149.765
11
133.825
21
-149.622
0
LINE
8
BLACK
6
CONTINUOUS
10
133.825
20
-149.622
11
134.111
21
-149.479
0
LINE
8
BLACK
6
CONTINUOUS
10
134.111
20
-149.479
11
134.682
21
-149.479
0
LINE
8
BLACK
6
CONTINUOUS
10
134.682
20
-149.479
11
134.968
21
-149.622
0
LINE
8
BLACK
6
CONTINUOUS
10
136.111
20
-152.622
11
136.254
21
-152.479
0
LINE
8
BLACK
6
CONTINUOUS
10
136.254
20
-152.479
11
136.539
21
-152.051
0
LINE
8
BLACK
6
CONTINUOUS
10
136.539
20
-152.051
11
136.682
21
-151.765
0
LINE
8
BLACK
6
CONTINUOUS
10
136.682
20
-151.765
11
136.825
21
-151.336
0
LINE
8
BLACK
6
CONTINUOUS
10
136.825
20
-151.336
11
136.968
21
-150.622
0
LINE
8
BLACK
6
CONTINUOUS
10
136.968
20
-150.622
11
136.968
21
-150.051
0
LINE
8
BLACK
6
CONTINUOUS
10
136.968
20
-150.051
11
136.825
21
-149.336
0
LINE
8
BLACK
6
CONTINUOUS
10
136.825
20
-149.336
11
136.682
21
-148.908
0
LINE
8
BLACK
6
CONTINUOUS
10
136.682
20
-148.908
11
136.539
21
-148.622
0
LINE
8
BLACK
6
CONTINUOUS
10
136.539
20
-148.622
11
136.254
21
-148.193
0
LINE
8
BLACK
6
CONTINUOUS
10
136.254
20
-148.193
11
136.111
21
-148.051
  0
ENDSEC
  0
EOF
