  0
SECTION
  2
HEADER
  9
$ANGBASE
  50
0.0
  9
$ANGDIR
  70
1
  9
$MEASUREMENT
  70
1
  0
ENDSEC
  0
SECTION
  2
TABLES
  0
TABLE
  2
LTYPE
  70
4
  0
LTYPE
  5
40F
  2
CONTINUOUS
  70
0
  3
Solid line
  72
65
  73
0
  40
0.0
  0
LTYPE
  5
410
  2
DASHDOT
 70
0
  3
Dash Dot ____ _ ____ _
 72
65
 73
4
 40
2.0
 49
1.25
 49
-0.25
 49
0.25
 49
-0.25
  0
LTYPE
  5
411
  2
DASHED
 70
0
  3
Dashed __ __ __ __ __
 72
65
 73
2
 40
0.75
 49
0.5
 49
-0.25
  0
LTYPE
  5
43B
  2
DOTTED
 70
0
  3
Dotted .  .  .  .
 72
65
 73
2
 40
0.2
 49
0.0
 49
-0.2
  0
ENDTAB
  0
TABLE
  2
STYLE
  70
4
  0
STYLE
  2
KICAD
  70
0
  40
0
  41
1
  42
1
  50
0
  71
0
  3
isocp.shx
  0
STYLE
  2
KICADB
  70
0
  40
0
  41
1
  42
1
  50
0
  71
0
  3
isocp.shx
  0
STYLE
  2
KICADI
  70
0
  40
0
  41
1
  42
1
  50
15
  71
0
  3
isocp.shx
  0
STYLE
  2
KICADBI
  70
0
  40
0
  41
1
  42
1
  50
15
  71
0
  3
isocp.shx
  0
ENDTAB
  0
TABLE
  2
LAYER
  70
1
  0
LAYER
  2
BLACK
  70
0
  62
7
  6
CONTINUOUS
  0
ENDTAB
  0
ENDSEC
  0
SECTION
  2
ENTITIES
0
LINE
8
BLACK
6
CONTINUOUS
10
183.242
20
-94.4055
11
184.042
21
-95.2055
0
LINE
8
BLACK
6
CONTINUOUS
10
184.042
20
-94.4055
11
183.242
21
-95.2055
0
LINE
8
BLACK
6
CONTINUOUS
10
190.862
20
-94.4055
11
191.662
21
-95.2055
0
LINE
8
BLACK
6
CONTINUOUS
10
191.662
20
-94.4055
11
190.862
21
-95.2055
0
LINE
8
BLACK
6
CONTINUOUS
10
171.876
20
-94.4055
11
172.676
21
-95.2055
0
LINE
8
BLACK
6
CONTINUOUS
10
172.676
20
-94.4055
11
171.876
21
-95.2055
0
LINE
8
BLACK
6
CONTINUOUS
10
179.496
20
-94.4055
11
180.296
21
-95.2055
0
LINE
8
BLACK
6
CONTINUOUS
10
180.296
20
-94.4055
11
179.496
21
-95.2055
0
LINE
8
BLACK
6
CONTINUOUS
10
159.684
20
-94.5325
11
160.484
21
-95.3325
0
LINE
8
BLACK
6
CONTINUOUS
10
160.484
20
-94.5325
11
159.684
21
-95.3325
0
LINE
8
BLACK
6
CONTINUOUS
10
167.304
20
-94.5325
11
168.104
21
-95.3325
0
LINE
8
BLACK
6
CONTINUOUS
10
168.104
20
-94.5325
11
167.304
21
-95.3325
0
CIRCLE
8
BLACK
10
182.88
20
-105.854
40
0.6
0
CIRCLE
8
BLACK
10
185.42
20
-105.854
40
0.6
0
CIRCLE
8
BLACK
10
187.96
20
-105.854
40
0.6
0
CIRCLE
8
BLACK
10
157.036
20
-105.854
40
0.6
0
CIRCLE
8
BLACK
10
159.576
20
-105.854
40
0.6
0
CIRCLE
8
BLACK
10
162.116
20
-105.854
40
0.6
0
CIRCLE
8
BLACK
10
167.589
20
-76.962
40
0.6
0
CIRCLE
8
BLACK
10
170.129
20
-76.962
40
0.6
0
CIRCLE
8
BLACK
10
159.88
20
-76.962
40
0.6
0
CIRCLE
8
BLACK
10
162.42
20
-76.962
40
0.6
0
CIRCLE
8
BLACK
10
175.298
20
-76.962
40
0.6
0
CIRCLE
8
BLACK
10
177.838
20
-76.962
40
0.6
0
CIRCLE
8
BLACK
10
183.007
20
-76.962
40
0.6
0
CIRCLE
8
BLACK
10
185.547
20
-76.962
40
0.6
0
CIRCLE
8
BLACK
10
139.51
20
-86.233
40
0.6
0
CIRCLE
8
BLACK
10
142.05
20
-86.233
40
0.6
0
CIRCLE
8
BLACK
10
144.59
20
-86.233
40
0.6
0
CIRCLE
8
BLACK
10
147.13
20
-86.233
40
0.6
0
CIRCLE
8
BLACK
10
149.67
20
-86.233
40
0.6
0
CIRCLE
8
BLACK
10
152.21
20
-86.233
40
0.6
0
CIRCLE
8
BLACK
10
154.75
20
-86.233
40
0.6
0
CIRCLE
8
BLACK
10
157.29
20
-86.233
40
0.6
0
CIRCLE
8
BLACK
10
143.066
20
-105.854
40
0.6
0
CIRCLE
8
BLACK
10
145.606
20
-105.854
40
0.6
0
CIRCLE
8
BLACK
10
148.146
20
-105.854
40
0.6
0
CIRCLE
8
BLACK
10
152.171
20
-76.962
40
0.6
0
CIRCLE
8
BLACK
10
154.711
20
-76.962
40
0.6
0
CIRCLE
8
BLACK
10
166.243
20
-86.233
40
0.6
0
CIRCLE
8
BLACK
10
168.783
20
-86.233
40
0.6
0
CIRCLE
8
BLACK
10
171.323
20
-86.233
40
0.6
0
CIRCLE
8
BLACK
10
187.388
20
-86.233
40
0.6
0
CIRCLE
8
BLACK
10
189.928
20
-86.233
40
0.6
0
CIRCLE
8
BLACK
10
144.462
20
-76.962
40
0.6
0
CIRCLE
8
BLACK
10
147.002
20
-76.962
40
0.6
0
CIRCLE
8
BLACK
10
178.752
20
-86.233
40
0.6
0
CIRCLE
8
BLACK
10
181.292
20
-86.233
40
0.6
0
CIRCLE
8
BLACK
10
139.764
20
-96.139
40
0.6
0
CIRCLE
8
BLACK
10
142.304
20
-96.139
40
0.6
0
CIRCLE
8
BLACK
10
144.844
20
-96.139
40
0.6
0
CIRCLE
8
BLACK
10
147.384
20
-96.139
40
0.6
0
CIRCLE
8
BLACK
10
149.924
20
-96.139
40
0.6
0
CIRCLE
8
BLACK
10
152.464
20
-96.139
40
0.6
0
CIRCLE
8
BLACK
10
171.006
20
-105.854
40
0.6
0
CIRCLE
8
BLACK
10
173.546
20
-105.854
40
0.6
0
CIRCLE
8
BLACK
10
176.086
20
-105.854
40
0.6
0
LINE
8
BLACK
6
CONTINUOUS
10
2.86428
20
-4.65714
11
2.86428
21
-1.65714
0
LINE
8
BLACK
6
CONTINUOUS
10
2.86428
20
-1.65714
11
3.57857
21
-1.65714
0
LINE
8
BLACK
6
CONTINUOUS
10
3.57857
20
-1.65714
11
4.00714
21
-1.8
0
LINE
8
BLACK
6
CONTINUOUS
10
4.00714
20
-1.8
11
4.29286
21
-2.08571
0
LINE
8
BLACK
6
CONTINUOUS
10
4.29286
20
-2.08571
11
4.43571
21
-2.37143
0
LINE
8
BLACK
6
CONTINUOUS
10
4.43571
20
-2.37143
11
4.57857
21
-2.94286
0
LINE
8
BLACK
6
CONTINUOUS
10
4.57857
20
-2.94286
11
4.57857
21
-3.37143
0
LINE
8
BLACK
6
CONTINUOUS
10
4.57857
20
-3.37143
11
4.43571
21
-3.94286
0
LINE
8
BLACK
6
CONTINUOUS
10
4.43571
20
-3.94286
11
4.29286
21
-4.22857
0
LINE
8
BLACK
6
CONTINUOUS
10
4.29286
20
-4.22857
11
4.00714
21
-4.51429
0
LINE
8
BLACK
6
CONTINUOUS
10
4.00714
20
-4.51429
11
3.57857
21
-4.65714
0
LINE
8
BLACK
6
CONTINUOUS
10
3.57857
20
-4.65714
11
2.86428
21
-4.65714
0
LINE
8
BLACK
6
CONTINUOUS
10
5.86428
20
-4.65714
11
5.86428
21
-2.65714
0
LINE
8
BLACK
6
CONTINUOUS
10
5.86428
20
-3.22857
11
6.00714
21
-2.94286
0
LINE
8
BLACK
6
CONTINUOUS
10
6.00714
20
-2.94286
11
6.15
21
-2.8
0
LINE
8
BLACK
6
CONTINUOUS
10
6.15
20
-2.8
11
6.43571
21
-2.65714
0
LINE
8
BLACK
6
CONTINUOUS
10
6.43571
20
-2.65714
11
6.72143
21
-2.65714
0
LINE
8
BLACK
6
CONTINUOUS
10
7.72143
20
-4.65714
11
7.72143
21
-2.65714
0
LINE
8
BLACK
6
CONTINUOUS
10
7.72143
20
-1.65714
11
7.57857
21
-1.8
0
LINE
8
BLACK
6
CONTINUOUS
10
7.57857
20
-1.8
11
7.72143
21
-1.94286
0
LINE
8
BLACK
6
CONTINUOUS
10
7.72143
20
-1.94286
11
7.86428
21
-1.8
0
LINE
8
BLACK
6
CONTINUOUS
10
7.86428
20
-1.8
11
7.72143
21
-1.65714
0
LINE
8
BLACK
6
CONTINUOUS
10
7.72143
20
-1.65714
11
7.72143
21
-1.94286
0
LINE
8
BLACK
6
CONTINUOUS
10
9.57857
20
-4.65714
11
9.29286
21
-4.51429
0
LINE
8
BLACK
6
CONTINUOUS
10
9.29286
20
-4.51429
11
9.15
21
-4.22857
0
LINE
8
BLACK
6
CONTINUOUS
10
9.15
20
-4.22857
11
9.15
21
-1.65714
0
LINE
8
BLACK
6
CONTINUOUS
10
11.15
20
-4.65714
11
10.8643
21
-4.51429
0
LINE
8
BLACK
6
CONTINUOUS
10
10.8643
20
-4.51429
11
10.7214
21
-4.22857
0
LINE
8
BLACK
6
CONTINUOUS
10
10.7214
20
-4.22857
11
10.7214
21
-1.65714
0
LINE
8
BLACK
6
CONTINUOUS
10
14.5786
20
-4.65714
11
14.5786
21
-1.65714
0
LINE
8
BLACK
6
CONTINUOUS
10
14.5786
20
-1.65714
11
15.5786
21
-3.8
0
LINE
8
BLACK
6
CONTINUOUS
10
15.5786
20
-3.8
11
16.5786
21
-1.65714
0
LINE
8
BLACK
6
CONTINUOUS
10
16.5786
20
-1.65714
11
16.5786
21
-4.65714
0
LINE
8
BLACK
6
CONTINUOUS
10
19.2929
20
-4.65714
11
19.2929
21
-3.08571
0
LINE
8
BLACK
6
CONTINUOUS
10
19.2929
20
-3.08571
11
19.15
21
-2.8
0
LINE
8
BLACK
6
CONTINUOUS
10
19.15
20
-2.8
11
18.8643
21
-2.65714
0
LINE
8
BLACK
6
CONTINUOUS
10
18.8643
20
-2.65714
11
18.2929
21
-2.65714
0
LINE
8
BLACK
6
CONTINUOUS
10
18.2929
20
-2.65714
11
18.0071
21
-2.8
0
LINE
8
BLACK
6
CONTINUOUS
10
19.2929
20
-4.51429
11
19.0071
21
-4.65714
0
LINE
8
BLACK
6
CONTINUOUS
10
19.0071
20
-4.65714
11
18.2929
21
-4.65714
0
LINE
8
BLACK
6
CONTINUOUS
10
18.2929
20
-4.65714
11
18.0071
21
-4.51429
0
LINE
8
BLACK
6
CONTINUOUS
10
18.0071
20
-4.51429
11
17.8643
21
-4.22857
0
LINE
8
BLACK
6
CONTINUOUS
10
17.8643
20
-4.22857
11
17.8643
21
-3.94286
0
LINE
8
BLACK
6
CONTINUOUS
10
17.8643
20
-3.94286
11
18.0071
21
-3.65714
0
LINE
8
BLACK
6
CONTINUOUS
10
18.0071
20
-3.65714
11
18.2929
21
-3.51428
0
LINE
8
BLACK
6
CONTINUOUS
10
18.2929
20
-3.51428
11
19.0071
21
-3.51428
0
LINE
8
BLACK
6
CONTINUOUS
10
19.0071
20
-3.51428
11
19.2929
21
-3.37143
0
LINE
8
BLACK
6
CONTINUOUS
10
20.7214
20
-2.65714
11
20.7214
21
-5.65714
0
LINE
8
BLACK
6
CONTINUOUS
10
20.7214
20
-2.8
11
21.0071
21
-2.65714
0
LINE
8
BLACK
6
CONTINUOUS
10
21.0071
20
-2.65714
11
21.5786
21
-2.65714
0
LINE
8
BLACK
6
CONTINUOUS
10
21.5786
20
-2.65714
11
21.8643
21
-2.8
0
LINE
8
BLACK
6
CONTINUOUS
10
21.8643
20
-2.8
11
22.0071
21
-2.94286
0
LINE
8
BLACK
6
CONTINUOUS
10
22.0071
20
-2.94286
11
22.15
21
-3.22857
0
LINE
8
BLACK
6
CONTINUOUS
10
22.15
20
-3.22857
11
22.15
21
-4.08571
0
LINE
8
BLACK
6
CONTINUOUS
10
22.15
20
-4.08571
11
22.0071
21
-4.37143
0
LINE
8
BLACK
6
CONTINUOUS
10
22.0071
20
-4.37143
11
21.8643
21
-4.51429
0
LINE
8
BLACK
6
CONTINUOUS
10
21.8643
20
-4.51429
11
21.5786
21
-4.65714
0
LINE
8
BLACK
6
CONTINUOUS
10
21.5786
20
-4.65714
11
21.0071
21
-4.65714
0
LINE
8
BLACK
6
CONTINUOUS
10
21.0071
20
-4.65714
11
20.7214
21
-4.51429
0
LINE
8
BLACK
6
CONTINUOUS
10
23.4357
20
-4.37143
11
23.5786
21
-4.51429
0
LINE
8
BLACK
6
CONTINUOUS
10
23.5786
20
-4.51429
11
23.4357
21
-4.65714
0
LINE
8
BLACK
6
CONTINUOUS
10
23.4357
20
-4.65714
11
23.2929
21
-4.51429
0
LINE
8
BLACK
6
CONTINUOUS
10
23.2929
20
-4.51429
11
23.4357
21
-4.37143
0
LINE
8
BLACK
6
CONTINUOUS
10
23.4357
20
-4.37143
11
23.4357
21
-4.65714
0
LINE
8
BLACK
6
CONTINUOUS
10
23.4357
20
-2.8
11
23.5786
21
-2.94286
0
LINE
8
BLACK
6
CONTINUOUS
10
23.5786
20
-2.94286
11
23.4357
21
-3.08571
0
LINE
8
BLACK
6
CONTINUOUS
10
23.4357
20
-3.08571
11
23.2929
21
-2.94286
0
LINE
8
BLACK
6
CONTINUOUS
10
23.2929
20
-2.94286
11
23.4357
21
-2.8
0
LINE
8
BLACK
6
CONTINUOUS
10
23.4357
20
-2.8
11
23.4357
21
-3.08571
0
LINE
8
BLACK
6
CONTINUOUS
10
-0.8
20
-9.2
11
0
21
-10
0
LINE
8
BLACK
6
CONTINUOUS
10
0
20
-9.2
11
-0.8
21
-10
0
LINE
8
BLACK
6
CONTINUOUS
10
3.43571
20
-7.95714
11
3.72143
21
-7.95714
0
LINE
8
BLACK
6
CONTINUOUS
10
3.72143
20
-7.95714
11
4.00714
21
-8.1
0
LINE
8
BLACK
6
CONTINUOUS
10
4.00714
20
-8.1
11
4.15
21
-8.24286
0
LINE
8
BLACK
6
CONTINUOUS
10
4.15
20
-8.24286
11
4.29286
21
-8.52857
0
LINE
8
BLACK
6
CONTINUOUS
10
4.29286
20
-8.52857
11
4.43571
21
-9.1
0
LINE
8
BLACK
6
CONTINUOUS
10
4.43571
20
-9.1
11
4.43571
21
-9.81428
0
LINE
8
BLACK
6
CONTINUOUS
10
4.43571
20
-9.81428
11
4.29286
21
-10.3857
0
LINE
8
BLACK
6
CONTINUOUS
10
4.29286
20
-10.3857
11
4.15
21
-10.6714
0
LINE
8
BLACK
6
CONTINUOUS
10
4.15
20
-10.6714
11
4.00714
21
-10.8143
0
LINE
8
BLACK
6
CONTINUOUS
10
4.00714
20
-10.8143
11
3.72143
21
-10.9571
0
LINE
8
BLACK
6
CONTINUOUS
10
3.72143
20
-10.9571
11
3.43571
21
-10.9571
0
LINE
8
BLACK
6
CONTINUOUS
10
3.43571
20
-10.9571
11
3.15
21
-10.8143
0
LINE
8
BLACK
6
CONTINUOUS
10
3.15
20
-10.8143
11
3.00714
21
-10.6714
0
LINE
8
BLACK
6
CONTINUOUS
10
3.00714
20
-10.6714
11
2.86428
21
-10.3857
0
LINE
8
BLACK
6
CONTINUOUS
10
2.86428
20
-10.3857
11
2.72143
21
-9.81428
0
LINE
8
BLACK
6
CONTINUOUS
10
2.72143
20
-9.81428
11
2.72143
21
-9.1
0
LINE
8
BLACK
6
CONTINUOUS
10
2.72143
20
-9.1
11
2.86428
21
-8.52857
0
LINE
8
BLACK
6
CONTINUOUS
10
2.86428
20
-8.52857
11
3.00714
21
-8.24286
0
LINE
8
BLACK
6
CONTINUOUS
10
3.00714
20
-8.24286
11
3.15
21
-8.1
0
LINE
8
BLACK
6
CONTINUOUS
10
3.15
20
-8.1
11
3.43571
21
-7.95714
0
LINE
8
BLACK
6
CONTINUOUS
10
5.72143
20
-10.6714
11
5.86428
21
-10.8143
0
LINE
8
BLACK
6
CONTINUOUS
10
5.86428
20
-10.8143
11
5.72143
21
-10.9571
0
LINE
8
BLACK
6
CONTINUOUS
10
5.72143
20
-10.9571
11
5.57857
21
-10.8143
0
LINE
8
BLACK
6
CONTINUOUS
10
5.57857
20
-10.8143
11
5.72143
21
-10.6714
0
LINE
8
BLACK
6
CONTINUOUS
10
5.72143
20
-10.6714
11
5.72143
21
-10.9571
0
LINE
8
BLACK
6
CONTINUOUS
10
7.57857
20
-9.24286
11
7.29286
21
-9.1
0
LINE
8
BLACK
6
CONTINUOUS
10
7.29286
20
-9.1
11
7.15
21
-8.95714
0
LINE
8
BLACK
6
CONTINUOUS
10
7.15
20
-8.95714
11
7.00714
21
-8.67143
0
LINE
8
BLACK
6
CONTINUOUS
10
7.00714
20
-8.67143
11
7.00714
21
-8.52857
0
LINE
8
BLACK
6
CONTINUOUS
10
7.00714
20
-8.52857
11
7.15
21
-8.24286
0
LINE
8
BLACK
6
CONTINUOUS
10
7.15
20
-8.24286
11
7.29286
21
-8.1
0
LINE
8
BLACK
6
CONTINUOUS
10
7.29286
20
-8.1
11
7.57857
21
-7.95714
0
LINE
8
BLACK
6
CONTINUOUS
10
7.57857
20
-7.95714
11
8.15
21
-7.95714
0
LINE
8
BLACK
6
CONTINUOUS
10
8.15
20
-7.95714
11
8.43571
21
-8.1
0
LINE
8
BLACK
6
CONTINUOUS
10
8.43571
20
-8.1
11
8.57857
21
-8.24286
0
LINE
8
BLACK
6
CONTINUOUS
10
8.57857
20
-8.24286
11
8.72143
21
-8.52857
0
LINE
8
BLACK
6
CONTINUOUS
10
8.72143
20
-8.52857
11
8.72143
21
-8.67143
0
LINE
8
BLACK
6
CONTINUOUS
10
8.72143
20
-8.67143
11
8.57857
21
-8.95714
0
LINE
8
BLACK
6
CONTINUOUS
10
8.57857
20
-8.95714
11
8.43571
21
-9.1
0
LINE
8
BLACK
6
CONTINUOUS
10
8.43571
20
-9.1
11
8.15
21
-9.24286
0
LINE
8
BLACK
6
CONTINUOUS
10
8.15
20
-9.24286
11
7.57857
21
-9.24286
0
LINE
8
BLACK
6
CONTINUOUS
10
7.57857
20
-9.24286
11
7.29286
21
-9.38571
0
LINE
8
BLACK
6
CONTINUOUS
10
7.29286
20
-9.38571
11
7.15
21
-9.52857
0
LINE
8
BLACK
6
CONTINUOUS
10
7.15
20
-9.52857
11
7.00714
21
-9.81428
0
LINE
8
BLACK
6
CONTINUOUS
10
7.00714
20
-9.81428
11
7.00714
21
-10.3857
0
LINE
8
BLACK
6
CONTINUOUS
10
7.00714
20
-10.3857
11
7.15
21
-10.6714
0
LINE
8
BLACK
6
CONTINUOUS
10
7.15
20
-10.6714
11
7.29286
21
-10.8143
0
LINE
8
BLACK
6
CONTINUOUS
10
7.29286
20
-10.8143
11
7.57857
21
-10.9571
0
LINE
8
BLACK
6
CONTINUOUS
10
7.57857
20
-10.9571
11
8.15
21
-10.9571
0
LINE
8
BLACK
6
CONTINUOUS
10
8.15
20
-10.9571
11
8.43571
21
-10.8143
0
LINE
8
BLACK
6
CONTINUOUS
10
8.43571
20
-10.8143
11
8.57857
21
-10.6714
0
LINE
8
BLACK
6
CONTINUOUS
10
8.57857
20
-10.6714
11
8.72143
21
-10.3857
0
LINE
8
BLACK
6
CONTINUOUS
10
8.72143
20
-10.3857
11
8.72143
21
-9.81428
0
LINE
8
BLACK
6
CONTINUOUS
10
8.72143
20
-9.81428
11
8.57857
21
-9.52857
0
LINE
8
BLACK
6
CONTINUOUS
10
8.57857
20
-9.52857
11
8.43571
21
-9.38571
0
LINE
8
BLACK
6
CONTINUOUS
10
8.43571
20
-9.38571
11
8.15
21
-9.24286
0
LINE
8
BLACK
6
CONTINUOUS
10
10.5786
20
-7.95714
11
10.8643
21
-7.95714
0
LINE
8
BLACK
6
CONTINUOUS
10
10.8643
20
-7.95714
11
11.15
21
-8.1
0
LINE
8
BLACK
6
CONTINUOUS
10
11.15
20
-8.1
11
11.2929
21
-8.24286
0
LINE
8
BLACK
6
CONTINUOUS
10
11.2929
20
-8.24286
11
11.4357
21
-8.52857
0
LINE
8
BLACK
6
CONTINUOUS
10
11.4357
20
-8.52857
11
11.5786
21
-9.1
0
LINE
8
BLACK
6
CONTINUOUS
10
11.5786
20
-9.1
11
11.5786
21
-9.81428
0
LINE
8
BLACK
6
CONTINUOUS
10
11.5786
20
-9.81428
11
11.4357
21
-10.3857
0
LINE
8
BLACK
6
CONTINUOUS
10
11.4357
20
-10.3857
11
11.2929
21
-10.6714
0
LINE
8
BLACK
6
CONTINUOUS
10
11.2929
20
-10.6714
11
11.15
21
-10.8143
0
LINE
8
BLACK
6
CONTINUOUS
10
11.15
20
-10.8143
11
10.8643
21
-10.9571
0
LINE
8
BLACK
6
CONTINUOUS
10
10.8643
20
-10.9571
11
10.5786
21
-10.9571
0
LINE
8
BLACK
6
CONTINUOUS
10
10.5786
20
-10.9571
11
10.2929
21
-10.8143
0
LINE
8
BLACK
6
CONTINUOUS
10
10.2929
20
-10.8143
11
10.15
21
-10.6714
0
LINE
8
BLACK
6
CONTINUOUS
10
10.15
20
-10.6714
11
10.0071
21
-10.3857
0
LINE
8
BLACK
6
CONTINUOUS
10
10.0071
20
-10.3857
11
9.86428
21
-9.81428
0
LINE
8
BLACK
6
CONTINUOUS
10
9.86428
20
-9.81428
11
9.86428
21
-9.1
0
LINE
8
BLACK
6
CONTINUOUS
10
9.86428
20
-9.1
11
10.0071
21
-8.52857
0
LINE
8
BLACK
6
CONTINUOUS
10
10.0071
20
-8.52857
11
10.15
21
-8.24286
0
LINE
8
BLACK
6
CONTINUOUS
10
10.15
20
-8.24286
11
10.2929
21
-8.1
0
LINE
8
BLACK
6
CONTINUOUS
10
10.2929
20
-8.1
11
10.5786
21
-7.95714
0
LINE
8
BLACK
6
CONTINUOUS
10
12.8643
20
-10.9571
11
12.8643
21
-8.95714
0
LINE
8
BLACK
6
CONTINUOUS
10
12.8643
20
-9.24286
11
13.0071
21
-9.1
0
LINE
8
BLACK
6
CONTINUOUS
10
13.0071
20
-9.1
11
13.2929
21
-8.95714
0
LINE
8
BLACK
6
CONTINUOUS
10
13.2929
20
-8.95714
11
13.7214
21
-8.95714
0
LINE
8
BLACK
6
CONTINUOUS
10
13.7214
20
-8.95714
11
14.0071
21
-9.1
0
LINE
8
BLACK
6
CONTINUOUS
10
14.0071
20
-9.1
11
14.15
21
-9.38571
0
LINE
8
BLACK
6
CONTINUOUS
10
14.15
20
-9.38571
11
14.15
21
-10.9571
0
LINE
8
BLACK
6
CONTINUOUS
10
14.15
20
-9.38571
11
14.2929
21
-9.1
0
LINE
8
BLACK
6
CONTINUOUS
10
14.2929
20
-9.1
11
14.5786
21
-8.95714
0
LINE
8
BLACK
6
CONTINUOUS
10
14.5786
20
-8.95714
11
15.0071
21
-8.95714
0
LINE
8
BLACK
6
CONTINUOUS
10
15.0071
20
-8.95714
11
15.2929
21
-9.1
0
LINE
8
BLACK
6
CONTINUOUS
10
15.2929
20
-9.1
11
15.4357
21
-9.38571
0
LINE
8
BLACK
6
CONTINUOUS
10
15.4357
20
-9.38571
11
15.4357
21
-10.9571
0
LINE
8
BLACK
6
CONTINUOUS
10
16.8643
20
-10.9571
11
16.8643
21
-8.95714
0
LINE
8
BLACK
6
CONTINUOUS
10
16.8643
20
-9.24286
11
17.0071
21
-9.1
0
LINE
8
BLACK
6
CONTINUOUS
10
17.0071
20
-9.1
11
17.2929
21
-8.95714
0
LINE
8
BLACK
6
CONTINUOUS
10
17.2929
20
-8.95714
11
17.7214
21
-8.95714
0
LINE
8
BLACK
6
CONTINUOUS
10
17.7214
20
-8.95714
11
18.0071
21
-9.1
0
LINE
8
BLACK
6
CONTINUOUS
10
18.0071
20
-9.1
11
18.15
21
-9.38571
0
LINE
8
BLACK
6
CONTINUOUS
10
18.15
20
-9.38571
11
18.15
21
-10.9571
0
LINE
8
BLACK
6
CONTINUOUS
10
18.15
20
-9.38571
11
18.2929
21
-9.1
0
LINE
8
BLACK
6
CONTINUOUS
10
18.2929
20
-9.1
11
18.5786
21
-8.95714
0
LINE
8
BLACK
6
CONTINUOUS
10
18.5786
20
-8.95714
11
19.0071
21
-8.95714
0
LINE
8
BLACK
6
CONTINUOUS
10
19.0071
20
-8.95714
11
19.2929
21
-9.1
0
LINE
8
BLACK
6
CONTINUOUS
10
19.2929
20
-9.1
11
19.4357
21
-9.38571
0
LINE
8
BLACK
6
CONTINUOUS
10
19.4357
20
-9.38571
11
19.4357
21
-10.9571
0
LINE
8
BLACK
6
CONTINUOUS
10
25.2929
20
-7.81428
11
22.7214
21
-11.6714
0
LINE
8
BLACK
6
CONTINUOUS
10
29.15
20
-7.95714
11
29.4357
21
-7.95714
0
LINE
8
BLACK
6
CONTINUOUS
10
29.4357
20
-7.95714
11
29.7214
21
-8.1
0
LINE
8
BLACK
6
CONTINUOUS
10
29.7214
20
-8.1
11
29.8643
21
-8.24286
0
LINE
8
BLACK
6
CONTINUOUS
10
29.8643
20
-8.24286
11
30.0071
21
-8.52857
0
LINE
8
BLACK
6
CONTINUOUS
10
30.0071
20
-8.52857
11
30.15
21
-9.1
0
LINE
8
BLACK
6
CONTINUOUS
10
30.15
20
-9.1
11
30.15
21
-9.81428
0
LINE
8
BLACK
6
CONTINUOUS
10
30.15
20
-9.81428
11
30.0071
21
-10.3857
0
LINE
8
BLACK
6
CONTINUOUS
10
30.0071
20
-10.3857
11
29.8643
21
-10.6714
0
LINE
8
BLACK
6
CONTINUOUS
10
29.8643
20
-10.6714
11
29.7214
21
-10.8143
0
LINE
8
BLACK
6
CONTINUOUS
10
29.7214
20
-10.8143
11
29.4357
21
-10.9571
0
LINE
8
BLACK
6
CONTINUOUS
10
29.4357
20
-10.9571
11
29.15
21
-10.9571
0
LINE
8
BLACK
6
CONTINUOUS
10
29.15
20
-10.9571
11
28.8643
21
-10.8143
0
LINE
8
BLACK
6
CONTINUOUS
10
28.8643
20
-10.8143
11
28.7214
21
-10.6714
0
LINE
8
BLACK
6
CONTINUOUS
10
28.7214
20
-10.6714
11
28.5786
21
-10.3857
0
LINE
8
BLACK
6
CONTINUOUS
10
28.5786
20
-10.3857
11
28.4357
21
-9.81428
0
LINE
8
BLACK
6
CONTINUOUS
10
28.4357
20
-9.81428
11
28.4357
21
-9.1
0
LINE
8
BLACK
6
CONTINUOUS
10
28.4357
20
-9.1
11
28.5786
21
-8.52857
0
LINE
8
BLACK
6
CONTINUOUS
10
28.5786
20
-8.52857
11
28.7214
21
-8.24286
0
LINE
8
BLACK
6
CONTINUOUS
10
28.7214
20
-8.24286
11
28.8643
21
-8.1
0
LINE
8
BLACK
6
CONTINUOUS
10
28.8643
20
-8.1
11
29.15
21
-7.95714
0
LINE
8
BLACK
6
CONTINUOUS
10
31.4357
20
-10.6714
11
31.5786
21
-10.8143
0
LINE
8
BLACK
6
CONTINUOUS
10
31.5786
20
-10.8143
11
31.4357
21
-10.9571
0
LINE
8
BLACK
6
CONTINUOUS
10
31.4357
20
-10.9571
11
31.2929
21
-10.8143
0
LINE
8
BLACK
6
CONTINUOUS
10
31.2929
20
-10.8143
11
31.4357
21
-10.6714
0
LINE
8
BLACK
6
CONTINUOUS
10
31.4357
20
-10.6714
11
31.4357
21
-10.9571
0
LINE
8
BLACK
6
CONTINUOUS
10
33.4357
20
-7.95714
11
33.7214
21
-7.95714
0
LINE
8
BLACK
6
CONTINUOUS
10
33.7214
20
-7.95714
11
34.0071
21
-8.1
0
LINE
8
BLACK
6
CONTINUOUS
10
34.0071
20
-8.1
11
34.15
21
-8.24286
0
LINE
8
BLACK
6
CONTINUOUS
10
34.15
20
-8.24286
11
34.2929
21
-8.52857
0
LINE
8
BLACK
6
CONTINUOUS
10
34.2929
20
-8.52857
11
34.4357
21
-9.1
0
LINE
8
BLACK
6
CONTINUOUS
10
34.4357
20
-9.1
11
34.4357
21
-9.81428
0
LINE
8
BLACK
6
CONTINUOUS
10
34.4357
20
-9.81428
11
34.2929
21
-10.3857
0
LINE
8
BLACK
6
CONTINUOUS
10
34.2929
20
-10.3857
11
34.15
21
-10.6714
0
LINE
8
BLACK
6
CONTINUOUS
10
34.15
20
-10.6714
11
34.0071
21
-10.8143
0
LINE
8
BLACK
6
CONTINUOUS
10
34.0071
20
-10.8143
11
33.7214
21
-10.9571
0
LINE
8
BLACK
6
CONTINUOUS
10
33.7214
20
-10.9571
11
33.4357
21
-10.9571
0
LINE
8
BLACK
6
CONTINUOUS
10
33.4357
20
-10.9571
11
33.15
21
-10.8143
0
LINE
8
BLACK
6
CONTINUOUS
10
33.15
20
-10.8143
11
33.0071
21
-10.6714
0
LINE
8
BLACK
6
CONTINUOUS
10
33.0071
20
-10.6714
11
32.8643
21
-10.3857
0
LINE
8
BLACK
6
CONTINUOUS
10
32.8643
20
-10.3857
11
32.7214
21
-9.81428
0
LINE
8
BLACK
6
CONTINUOUS
10
32.7214
20
-9.81428
11
32.7214
21
-9.1
0
LINE
8
BLACK
6
CONTINUOUS
10
32.7214
20
-9.1
11
32.8643
21
-8.52857
0
LINE
8
BLACK
6
CONTINUOUS
10
32.8643
20
-8.52857
11
33.0071
21
-8.24286
0
LINE
8
BLACK
6
CONTINUOUS
10
33.0071
20
-8.24286
11
33.15
21
-8.1
0
LINE
8
BLACK
6
CONTINUOUS
10
33.15
20
-8.1
11
33.4357
21
-7.95714
0
LINE
8
BLACK
6
CONTINUOUS
10
35.4357
20
-7.95714
11
37.2929
21
-7.95714
0
LINE
8
BLACK
6
CONTINUOUS
10
37.2929
20
-7.95714
11
36.2929
21
-9.1
0
LINE
8
BLACK
6
CONTINUOUS
10
36.2929
20
-9.1
11
36.7214
21
-9.1
0
LINE
8
BLACK
6
CONTINUOUS
10
36.7214
20
-9.1
11
37.0071
21
-9.24286
0
LINE
8
BLACK
6
CONTINUOUS
10
37.0071
20
-9.24286
11
37.15
21
-9.38571
0
LINE
8
BLACK
6
CONTINUOUS
10
37.15
20
-9.38571
11
37.2929
21
-9.67143
0
LINE
8
BLACK
6
CONTINUOUS
10
37.2929
20
-9.67143
11
37.2929
21
-10.3857
0
LINE
8
BLACK
6
CONTINUOUS
10
37.2929
20
-10.3857
11
37.15
21
-10.6714
0
LINE
8
BLACK
6
CONTINUOUS
10
37.15
20
-10.6714
11
37.0071
21
-10.8143
0
LINE
8
BLACK
6
CONTINUOUS
10
37.0071
20
-10.8143
11
36.7214
21
-10.9571
0
LINE
8
BLACK
6
CONTINUOUS
10
36.7214
20
-10.9571
11
35.8643
21
-10.9571
0
LINE
8
BLACK
6
CONTINUOUS
10
35.8643
20
-10.9571
11
35.5786
21
-10.8143
0
LINE
8
BLACK
6
CONTINUOUS
10
35.5786
20
-10.8143
11
35.4357
21
-10.6714
0
LINE
8
BLACK
6
CONTINUOUS
10
40.15
20
-10.9571
11
38.4357
21
-10.9571
0
LINE
8
BLACK
6
CONTINUOUS
10
39.2929
20
-10.9571
11
39.2929
21
-7.95714
0
LINE
8
BLACK
6
CONTINUOUS
10
39.2929
20
-7.95714
11
39.0071
21
-8.38571
0
LINE
8
BLACK
6
CONTINUOUS
10
39.0071
20
-8.38571
11
38.7214
21
-8.67143
0
LINE
8
BLACK
6
CONTINUOUS
10
38.7214
20
-8.67143
11
38.4357
21
-8.81428
0
LINE
8
BLACK
6
CONTINUOUS
10
41.2929
20
-7.95714
11
41.2929
21
-8.52857
0
LINE
8
BLACK
6
CONTINUOUS
10
42.4357
20
-7.95714
11
42.4357
21
-8.52857
0
LINE
8
BLACK
6
CONTINUOUS
10
46.8643
20
-12.1
11
46.7214
21
-11.9571
0
LINE
8
BLACK
6
CONTINUOUS
10
46.7214
20
-11.9571
11
46.4357
21
-11.5286
0
LINE
8
BLACK
6
CONTINUOUS
10
46.4357
20
-11.5286
11
46.2929
21
-11.2429
0
LINE
8
BLACK
6
CONTINUOUS
10
46.2929
20
-11.2429
11
46.15
21
-10.8143
0
LINE
8
BLACK
6
CONTINUOUS
10
46.15
20
-10.8143
11
46.0071
21
-10.1
0
LINE
8
BLACK
6
CONTINUOUS
10
46.0071
20
-10.1
11
46.0071
21
-9.52857
0
LINE
8
BLACK
6
CONTINUOUS
10
46.0071
20
-9.52857
11
46.15
21
-8.81428
0
LINE
8
BLACK
6
CONTINUOUS
10
46.15
20
-8.81428
11
46.2929
21
-8.38571
0
LINE
8
BLACK
6
CONTINUOUS
10
46.2929
20
-8.38571
11
46.4357
21
-8.1
0
LINE
8
BLACK
6
CONTINUOUS
10
46.4357
20
-8.1
11
46.7214
21
-7.67143
0
LINE
8
BLACK
6
CONTINUOUS
10
46.7214
20
-7.67143
11
46.8643
21
-7.52857
0
LINE
8
BLACK
6
CONTINUOUS
10
49.2929
20
-7.95714
11
48.7214
21
-7.95714
0
LINE
8
BLACK
6
CONTINUOUS
10
48.7214
20
-7.95714
11
48.4357
21
-8.1
0
LINE
8
BLACK
6
CONTINUOUS
10
48.4357
20
-8.1
11
48.2929
21
-8.24286
0
LINE
8
BLACK
6
CONTINUOUS
10
48.2929
20
-8.24286
11
48.0071
21
-8.67143
0
LINE
8
BLACK
6
CONTINUOUS
10
48.0071
20
-8.67143
11
47.8643
21
-9.24286
0
LINE
8
BLACK
6
CONTINUOUS
10
47.8643
20
-9.24286
11
47.8643
21
-10.3857
0
LINE
8
BLACK
6
CONTINUOUS
10
47.8643
20
-10.3857
11
48.0071
21
-10.6714
0
LINE
8
BLACK
6
CONTINUOUS
10
48.0071
20
-10.6714
11
48.15
21
-10.8143
0
LINE
8
BLACK
6
CONTINUOUS
10
48.15
20
-10.8143
11
48.4357
21
-10.9571
0
LINE
8
BLACK
6
CONTINUOUS
10
48.4357
20
-10.9571
11
49.0071
21
-10.9571
0
LINE
8
BLACK
6
CONTINUOUS
10
49.0071
20
-10.9571
11
49.2929
21
-10.8143
0
LINE
8
BLACK
6
CONTINUOUS
10
49.2929
20
-10.8143
11
49.4357
21
-10.6714
0
LINE
8
BLACK
6
CONTINUOUS
10
49.4357
20
-10.6714
11
49.5786
21
-10.3857
0
LINE
8
BLACK
6
CONTINUOUS
10
49.5786
20
-10.3857
11
49.5786
21
-9.67143
0
LINE
8
BLACK
6
CONTINUOUS
10
49.5786
20
-9.67143
11
49.4357
21
-9.38571
0
LINE
8
BLACK
6
CONTINUOUS
10
49.4357
20
-9.38571
11
49.2929
21
-9.24286
0
LINE
8
BLACK
6
CONTINUOUS
10
49.2929
20
-9.24286
11
49.0071
21
-9.1
0
LINE
8
BLACK
6
CONTINUOUS
10
49.0071
20
-9.1
11
48.4357
21
-9.1
0
LINE
8
BLACK
6
CONTINUOUS
10
48.4357
20
-9.1
11
48.15
21
-9.24286
0
LINE
8
BLACK
6
CONTINUOUS
10
48.15
20
-9.24286
11
48.0071
21
-9.38571
0
LINE
8
BLACK
6
CONTINUOUS
10
48.0071
20
-9.38571
11
47.8643
21
-9.67143
0
LINE
8
BLACK
6
CONTINUOUS
10
53.15
20
-10.9571
11
53.15
21
-7.95714
0
LINE
8
BLACK
6
CONTINUOUS
10
54.4357
20
-10.9571
11
54.4357
21
-9.38571
0
LINE
8
BLACK
6
CONTINUOUS
10
54.4357
20
-9.38571
11
54.2929
21
-9.1
0
LINE
8
BLACK
6
CONTINUOUS
10
54.2929
20
-9.1
11
54.0071
21
-8.95714
0
LINE
8
BLACK
6
CONTINUOUS
10
54.0071
20
-8.95714
11
53.5786
21
-8.95714
0
LINE
8
BLACK
6
CONTINUOUS
10
53.5786
20
-8.95714
11
53.2929
21
-9.1
0
LINE
8
BLACK
6
CONTINUOUS
10
53.2929
20
-9.1
11
53.15
21
-9.24286
0
LINE
8
BLACK
6
CONTINUOUS
10
56.2929
20
-10.9571
11
56.0071
21
-10.8143
0
LINE
8
BLACK
6
CONTINUOUS
10
56.0071
20
-10.8143
11
55.8643
21
-10.6714
0
LINE
8
BLACK
6
CONTINUOUS
10
55.8643
20
-10.6714
11
55.7214
21
-10.3857
0
LINE
8
BLACK
6
CONTINUOUS
10
55.7214
20
-10.3857
11
55.7214
21
-9.52857
0
LINE
8
BLACK
6
CONTINUOUS
10
55.7214
20
-9.52857
11
55.8643
21
-9.24286
0
LINE
8
BLACK
6
CONTINUOUS
10
55.8643
20
-9.24286
11
56.0071
21
-9.1
0
LINE
8
BLACK
6
CONTINUOUS
10
56.0071
20
-9.1
11
56.2929
21
-8.95714
0
LINE
8
BLACK
6
CONTINUOUS
10
56.2929
20
-8.95714
11
56.7214
21
-8.95714
0
LINE
8
BLACK
6
CONTINUOUS
10
56.7214
20
-8.95714
11
57.0071
21
-9.1
0
LINE
8
BLACK
6
CONTINUOUS
10
57.0071
20
-9.1
11
57.15
21
-9.24286
0
LINE
8
BLACK
6
CONTINUOUS
10
57.15
20
-9.24286
11
57.2929
21
-9.52857
0
LINE
8
BLACK
6
CONTINUOUS
10
57.2929
20
-9.52857
11
57.2929
21
-10.3857
0
LINE
8
BLACK
6
CONTINUOUS
10
57.2929
20
-10.3857
11
57.15
21
-10.6714
0
LINE
8
BLACK
6
CONTINUOUS
10
57.15
20
-10.6714
11
57.0071
21
-10.8143
0
LINE
8
BLACK
6
CONTINUOUS
10
57.0071
20
-10.8143
11
56.7214
21
-10.9571
0
LINE
8
BLACK
6
CONTINUOUS
10
56.7214
20
-10.9571
11
56.2929
21
-10.9571
0
LINE
8
BLACK
6
CONTINUOUS
10
59.0071
20
-10.9571
11
58.7214
21
-10.8143
0
LINE
8
BLACK
6
CONTINUOUS
10
58.7214
20
-10.8143
11
58.5786
21
-10.5286
0
LINE
8
BLACK
6
CONTINUOUS
10
58.5786
20
-10.5286
11
58.5786
21
-7.95714
0
LINE
8
BLACK
6
CONTINUOUS
10
61.2929
20
-10.8143
11
61.0071
21
-10.9571
0
LINE
8
BLACK
6
CONTINUOUS
10
61.0071
20
-10.9571
11
60.4357
21
-10.9571
0
LINE
8
BLACK
6
CONTINUOUS
10
60.4357
20
-10.9571
11
60.15
21
-10.8143
0
LINE
8
BLACK
6
CONTINUOUS
10
60.15
20
-10.8143
11
60.0071
21
-10.5286
0
LINE
8
BLACK
6
CONTINUOUS
10
60.0071
20
-10.5286
11
60.0071
21
-9.38571
0
LINE
8
BLACK
6
CONTINUOUS
10
60.0071
20
-9.38571
11
60.15
21
-9.1
0
LINE
8
BLACK
6
CONTINUOUS
10
60.15
20
-9.1
11
60.4357
21
-8.95714
0
LINE
8
BLACK
6
CONTINUOUS
10
60.4357
20
-8.95714
11
61.0071
21
-8.95714
0
LINE
8
BLACK
6
CONTINUOUS
10
61.0071
20
-8.95714
11
61.2929
21
-9.1
0
LINE
8
BLACK
6
CONTINUOUS
10
61.2929
20
-9.1
11
61.4357
21
-9.38571
0
LINE
8
BLACK
6
CONTINUOUS
10
61.4357
20
-9.38571
11
61.4357
21
-9.67143
0
LINE
8
BLACK
6
CONTINUOUS
10
61.4357
20
-9.67143
11
60.0071
21
-9.95714
0
LINE
8
BLACK
6
CONTINUOUS
10
62.5786
20
-10.8143
11
62.8643
21
-10.9571
0
LINE
8
BLACK
6
CONTINUOUS
10
62.8643
20
-10.9571
11
63.4357
21
-10.9571
0
LINE
8
BLACK
6
CONTINUOUS
10
63.4357
20
-10.9571
11
63.7214
21
-10.8143
0
LINE
8
BLACK
6
CONTINUOUS
10
63.7214
20
-10.8143
11
63.8643
21
-10.5286
0
LINE
8
BLACK
6
CONTINUOUS
10
63.8643
20
-10.5286
11
63.8643
21
-10.3857
0
LINE
8
BLACK
6
CONTINUOUS
10
63.8643
20
-10.3857
11
63.7214
21
-10.1
0
LINE
8
BLACK
6
CONTINUOUS
10
63.7214
20
-10.1
11
63.4357
21
-9.95714
0
LINE
8
BLACK
6
CONTINUOUS
10
63.4357
20
-9.95714
11
63.0071
21
-9.95714
0
LINE
8
BLACK
6
CONTINUOUS
10
63.0071
20
-9.95714
11
62.7214
21
-9.81428
0
LINE
8
BLACK
6
CONTINUOUS
10
62.7214
20
-9.81428
11
62.5786
21
-9.52857
0
LINE
8
BLACK
6
CONTINUOUS
10
62.5786
20
-9.52857
11
62.5786
21
-9.38571
0
LINE
8
BLACK
6
CONTINUOUS
10
62.5786
20
-9.38571
11
62.7214
21
-9.1
0
LINE
8
BLACK
6
CONTINUOUS
10
62.7214
20
-9.1
11
63.0071
21
-8.95714
0
LINE
8
BLACK
6
CONTINUOUS
10
63.0071
20
-8.95714
11
63.4357
21
-8.95714
0
LINE
8
BLACK
6
CONTINUOUS
10
63.4357
20
-8.95714
11
63.7214
21
-9.1
0
LINE
8
BLACK
6
CONTINUOUS
10
64.8643
20
-12.1
11
65.0071
21
-11.9571
0
LINE
8
BLACK
6
CONTINUOUS
10
65.0071
20
-11.9571
11
65.2929
21
-11.5286
0
LINE
8
BLACK
6
CONTINUOUS
10
65.2929
20
-11.5286
11
65.4357
21
-11.2429
0
LINE
8
BLACK
6
CONTINUOUS
10
65.4357
20
-11.2429
11
65.5786
21
-10.8143
0
LINE
8
BLACK
6
CONTINUOUS
10
65.5786
20
-10.8143
11
65.7214
21
-10.1
0
LINE
8
BLACK
6
CONTINUOUS
10
65.7214
20
-10.1
11
65.7214
21
-9.52857
0
LINE
8
BLACK
6
CONTINUOUS
10
65.7214
20
-9.52857
11
65.5786
21
-8.81428
0
LINE
8
BLACK
6
CONTINUOUS
10
65.5786
20
-8.81428
11
65.4357
21
-8.38571
0
LINE
8
BLACK
6
CONTINUOUS
10
65.4357
20
-8.38571
11
65.2929
21
-8.1
0
LINE
8
BLACK
6
CONTINUOUS
10
65.2929
20
-8.1
11
65.0071
21
-7.67143
0
LINE
8
BLACK
6
CONTINUOUS
10
65.0071
20
-7.67143
11
64.8643
21
-7.52857
0
CIRCLE
8
BLACK
10
-0.6
20
-13.56
40
0.6
0
LINE
8
BLACK
6
CONTINUOUS
10
4.43571
20
-14.9171
11
2.72143
21
-14.9171
0
LINE
8
BLACK
6
CONTINUOUS
10
3.57857
20
-14.9171
11
3.57857
21
-11.9171
0
LINE
8
BLACK
6
CONTINUOUS
10
3.57857
20
-11.9171
11
3.29286
21
-12.3457
0
LINE
8
BLACK
6
CONTINUOUS
10
3.29286
20
-12.3457
11
3.00714
21
-12.6314
0
LINE
8
BLACK
6
CONTINUOUS
10
3.00714
20
-12.6314
11
2.72143
21
-12.7743
0
LINE
8
BLACK
6
CONTINUOUS
10
5.72143
20
-14.6314
11
5.86428
21
-14.7743
0
LINE
8
BLACK
6
CONTINUOUS
10
5.86428
20
-14.7743
11
5.72143
21
-14.9171
0
LINE
8
BLACK
6
CONTINUOUS
10
5.72143
20
-14.9171
11
5.57857
21
-14.7743
0
LINE
8
BLACK
6
CONTINUOUS
10
5.57857
20
-14.7743
11
5.72143
21
-14.6314
0
LINE
8
BLACK
6
CONTINUOUS
10
5.72143
20
-14.6314
11
5.72143
21
-14.9171
0
LINE
8
BLACK
6
CONTINUOUS
10
7.00714
20
-12.2029
11
7.15
21
-12.06
0
LINE
8
BLACK
6
CONTINUOUS
10
7.15
20
-12.06
11
7.43571
21
-11.9171
0
LINE
8
BLACK
6
CONTINUOUS
10
7.43571
20
-11.9171
11
8.15
21
-11.9171
0
LINE
8
BLACK
6
CONTINUOUS
10
8.15
20
-11.9171
11
8.43571
21
-12.06
0
LINE
8
BLACK
6
CONTINUOUS
10
8.43571
20
-12.06
11
8.57857
21
-12.2029
0
LINE
8
BLACK
6
CONTINUOUS
10
8.57857
20
-12.2029
11
8.72143
21
-12.4886
0
LINE
8
BLACK
6
CONTINUOUS
10
8.72143
20
-12.4886
11
8.72143
21
-12.7743
0
LINE
8
BLACK
6
CONTINUOUS
10
8.72143
20
-12.7743
11
8.57857
21
-13.2029
0
LINE
8
BLACK
6
CONTINUOUS
10
8.57857
20
-13.2029
11
6.86428
21
-14.9171
0
LINE
8
BLACK
6
CONTINUOUS
10
6.86428
20
-14.9171
11
8.72143
21
-14.9171
0
LINE
8
BLACK
6
CONTINUOUS
10
10.5786
20
-11.9171
11
10.8643
21
-11.9171
0
LINE
8
BLACK
6
CONTINUOUS
10
10.8643
20
-11.9171
11
11.15
21
-12.06
0
LINE
8
BLACK
6
CONTINUOUS
10
11.15
20
-12.06
11
11.2929
21
-12.2029
0
LINE
8
BLACK
6
CONTINUOUS
10
11.2929
20
-12.2029
11
11.4357
21
-12.4886
0
LINE
8
BLACK
6
CONTINUOUS
10
11.4357
20
-12.4886
11
11.5786
21
-13.06
0
LINE
8
BLACK
6
CONTINUOUS
10
11.5786
20
-13.06
11
11.5786
21
-13.7743
0
LINE
8
BLACK
6
CONTINUOUS
10
11.5786
20
-13.7743
11
11.4357
21
-14.3457
0
LINE
8
BLACK
6
CONTINUOUS
10
11.4357
20
-14.3457
11
11.2929
21
-14.6314
0
LINE
8
BLACK
6
CONTINUOUS
10
11.2929
20
-14.6314
11
11.15
21
-14.7743
0
LINE
8
BLACK
6
CONTINUOUS
10
11.15
20
-14.7743
11
10.8643
21
-14.9171
0
LINE
8
BLACK
6
CONTINUOUS
10
10.8643
20
-14.9171
11
10.5786
21
-14.9171
0
LINE
8
BLACK
6
CONTINUOUS
10
10.5786
20
-14.9171
11
10.2929
21
-14.7743
0
LINE
8
BLACK
6
CONTINUOUS
10
10.2929
20
-14.7743
11
10.15
21
-14.6314
0
LINE
8
BLACK
6
CONTINUOUS
10
10.15
20
-14.6314
11
10.0071
21
-14.3457
0
LINE
8
BLACK
6
CONTINUOUS
10
10.0071
20
-14.3457
11
9.86428
21
-13.7743
0
LINE
8
BLACK
6
CONTINUOUS
10
9.86428
20
-13.7743
11
9.86428
21
-13.06
0
LINE
8
BLACK
6
CONTINUOUS
10
9.86428
20
-13.06
11
10.0071
21
-12.4886
0
LINE
8
BLACK
6
CONTINUOUS
10
10.0071
20
-12.4886
11
10.15
21
-12.2029
0
LINE
8
BLACK
6
CONTINUOUS
10
10.15
20
-12.2029
11
10.2929
21
-12.06
0
LINE
8
BLACK
6
CONTINUOUS
10
10.2929
20
-12.06
11
10.5786
21
-11.9171
0
LINE
8
BLACK
6
CONTINUOUS
10
12.8643
20
-14.9171
11
12.8643
21
-12.9171
0
LINE
8
BLACK
6
CONTINUOUS
10
12.8643
20
-13.2029
11
13.0071
21
-13.06
0
LINE
8
BLACK
6
CONTINUOUS
10
13.0071
20
-13.06
11
13.2929
21
-12.9171
0
LINE
8
BLACK
6
CONTINUOUS
10
13.2929
20
-12.9171
11
13.7214
21
-12.9171
0
LINE
8
BLACK
6
CONTINUOUS
10
13.7214
20
-12.9171
11
14.0071
21
-13.06
0
LINE
8
BLACK
6
CONTINUOUS
10
14.0071
20
-13.06
11
14.15
21
-13.3457
0
LINE
8
BLACK
6
CONTINUOUS
10
14.15
20
-13.3457
11
14.15
21
-14.9171
0
LINE
8
BLACK
6
CONTINUOUS
10
14.15
20
-13.3457
11
14.2929
21
-13.06
0
LINE
8
BLACK
6
CONTINUOUS
10
14.2929
20
-13.06
11
14.5786
21
-12.9171
0
LINE
8
BLACK
6
CONTINUOUS
10
14.5786
20
-12.9171
11
15.0071
21
-12.9171
0
LINE
8
BLACK
6
CONTINUOUS
10
15.0071
20
-12.9171
11
15.2929
21
-13.06
0
LINE
8
BLACK
6
CONTINUOUS
10
15.2929
20
-13.06
11
15.4357
21
-13.3457
0
LINE
8
BLACK
6
CONTINUOUS
10
15.4357
20
-13.3457
11
15.4357
21
-14.9171
0
LINE
8
BLACK
6
CONTINUOUS
10
16.8643
20
-14.9171
11
16.8643
21
-12.9171
0
LINE
8
BLACK
6
CONTINUOUS
10
16.8643
20
-13.2029
11
17.0071
21
-13.06
0
LINE
8
BLACK
6
CONTINUOUS
10
17.0071
20
-13.06
11
17.2929
21
-12.9171
0
LINE
8
BLACK
6
CONTINUOUS
10
17.2929
20
-12.9171
11
17.7214
21
-12.9171
0
LINE
8
BLACK
6
CONTINUOUS
10
17.7214
20
-12.9171
11
18.0071
21
-13.06
0
LINE
8
BLACK
6
CONTINUOUS
10
18.0071
20
-13.06
11
18.15
21
-13.3457
0
LINE
8
BLACK
6
CONTINUOUS
10
18.15
20
-13.3457
11
18.15
21
-14.9171
0
LINE
8
BLACK
6
CONTINUOUS
10
18.15
20
-13.3457
11
18.2929
21
-13.06
0
LINE
8
BLACK
6
CONTINUOUS
10
18.2929
20
-13.06
11
18.5786
21
-12.9171
0
LINE
8
BLACK
6
CONTINUOUS
10
18.5786
20
-12.9171
11
19.0071
21
-12.9171
0
LINE
8
BLACK
6
CONTINUOUS
10
19.0071
20
-12.9171
11
19.2929
21
-13.06
0
LINE
8
BLACK
6
CONTINUOUS
10
19.2929
20
-13.06
11
19.4357
21
-13.3457
0
LINE
8
BLACK
6
CONTINUOUS
10
19.4357
20
-13.3457
11
19.4357
21
-14.9171
0
LINE
8
BLACK
6
CONTINUOUS
10
25.2929
20
-11.7743
11
22.7214
21
-15.6314
0
LINE
8
BLACK
6
CONTINUOUS
10
29.15
20
-11.9171
11
29.4357
21
-11.9171
0
LINE
8
BLACK
6
CONTINUOUS
10
29.4357
20
-11.9171
11
29.7214
21
-12.06
0
LINE
8
BLACK
6
CONTINUOUS
10
29.7214
20
-12.06
11
29.8643
21
-12.2029
0
LINE
8
BLACK
6
CONTINUOUS
10
29.8643
20
-12.2029
11
30.0071
21
-12.4886
0
LINE
8
BLACK
6
CONTINUOUS
10
30.0071
20
-12.4886
11
30.15
21
-13.06
0
LINE
8
BLACK
6
CONTINUOUS
10
30.15
20
-13.06
11
30.15
21
-13.7743
0
LINE
8
BLACK
6
CONTINUOUS
10
30.15
20
-13.7743
11
30.0071
21
-14.3457
0
LINE
8
BLACK
6
CONTINUOUS
10
30.0071
20
-14.3457
11
29.8643
21
-14.6314
0
LINE
8
BLACK
6
CONTINUOUS
10
29.8643
20
-14.6314
11
29.7214
21
-14.7743
0
LINE
8
BLACK
6
CONTINUOUS
10
29.7214
20
-14.7743
11
29.4357
21
-14.9171
0
LINE
8
BLACK
6
CONTINUOUS
10
29.4357
20
-14.9171
11
29.15
21
-14.9171
0
LINE
8
BLACK
6
CONTINUOUS
10
29.15
20
-14.9171
11
28.8643
21
-14.7743
0
LINE
8
BLACK
6
CONTINUOUS
10
28.8643
20
-14.7743
11
28.7214
21
-14.6314
0
LINE
8
BLACK
6
CONTINUOUS
10
28.7214
20
-14.6314
11
28.5786
21
-14.3457
0
LINE
8
BLACK
6
CONTINUOUS
10
28.5786
20
-14.3457
11
28.4357
21
-13.7743
0
LINE
8
BLACK
6
CONTINUOUS
10
28.4357
20
-13.7743
11
28.4357
21
-13.06
0
LINE
8
BLACK
6
CONTINUOUS
10
28.4357
20
-13.06
11
28.5786
21
-12.4886
0
LINE
8
BLACK
6
CONTINUOUS
10
28.5786
20
-12.4886
11
28.7214
21
-12.2029
0
LINE
8
BLACK
6
CONTINUOUS
10
28.7214
20
-12.2029
11
28.8643
21
-12.06
0
LINE
8
BLACK
6
CONTINUOUS
10
28.8643
20
-12.06
11
29.15
21
-11.9171
0
LINE
8
BLACK
6
CONTINUOUS
10
31.4357
20
-14.6314
11
31.5786
21
-14.7743
0
LINE
8
BLACK
6
CONTINUOUS
10
31.5786
20
-14.7743
11
31.4357
21
-14.9171
0
LINE
8
BLACK
6
CONTINUOUS
10
31.4357
20
-14.9171
11
31.2929
21
-14.7743
0
LINE
8
BLACK
6
CONTINUOUS
10
31.2929
20
-14.7743
11
31.4357
21
-14.6314
0
LINE
8
BLACK
6
CONTINUOUS
10
31.4357
20
-14.6314
11
31.4357
21
-14.9171
0
LINE
8
BLACK
6
CONTINUOUS
10
33.4357
20
-11.9171
11
33.7214
21
-11.9171
0
LINE
8
BLACK
6
CONTINUOUS
10
33.7214
20
-11.9171
11
34.0071
21
-12.06
0
LINE
8
BLACK
6
CONTINUOUS
10
34.0071
20
-12.06
11
34.15
21
-12.2029
0
LINE
8
BLACK
6
CONTINUOUS
10
34.15
20
-12.2029
11
34.2929
21
-12.4886
0
LINE
8
BLACK
6
CONTINUOUS
10
34.2929
20
-12.4886
11
34.4357
21
-13.06
0
LINE
8
BLACK
6
CONTINUOUS
10
34.4357
20
-13.06
11
34.4357
21
-13.7743
0
LINE
8
BLACK
6
CONTINUOUS
10
34.4357
20
-13.7743
11
34.2929
21
-14.3457
0
LINE
8
BLACK
6
CONTINUOUS
10
34.2929
20
-14.3457
11
34.15
21
-14.6314
0
LINE
8
BLACK
6
CONTINUOUS
10
34.15
20
-14.6314
11
34.0071
21
-14.7743
0
LINE
8
BLACK
6
CONTINUOUS
10
34.0071
20
-14.7743
11
33.7214
21
-14.9171
0
LINE
8
BLACK
6
CONTINUOUS
10
33.7214
20
-14.9171
11
33.4357
21
-14.9171
0
LINE
8
BLACK
6
CONTINUOUS
10
33.4357
20
-14.9171
11
33.15
21
-14.7743
0
LINE
8
BLACK
6
CONTINUOUS
10
33.15
20
-14.7743
11
33.0071
21
-14.6314
0
LINE
8
BLACK
6
CONTINUOUS
10
33.0071
20
-14.6314
11
32.8643
21
-14.3457
0
LINE
8
BLACK
6
CONTINUOUS
10
32.8643
20
-14.3457
11
32.7214
21
-13.7743
0
LINE
8
BLACK
6
CONTINUOUS
10
32.7214
20
-13.7743
11
32.7214
21
-13.06
0
LINE
8
BLACK
6
CONTINUOUS
10
32.7214
20
-13.06
11
32.8643
21
-12.4886
0
LINE
8
BLACK
6
CONTINUOUS
10
32.8643
20
-12.4886
11
33.0071
21
-12.2029
0
LINE
8
BLACK
6
CONTINUOUS
10
33.0071
20
-12.2029
11
33.15
21
-12.06
0
LINE
8
BLACK
6
CONTINUOUS
10
33.15
20
-12.06
11
33.4357
21
-11.9171
0
LINE
8
BLACK
6
CONTINUOUS
10
37.0071
20
-12.9171
11
37.0071
21
-14.9171
0
LINE
8
BLACK
6
CONTINUOUS
10
36.2929
20
-11.7743
11
35.5786
21
-13.9171
0
LINE
8
BLACK
6
CONTINUOUS
10
35.5786
20
-13.9171
11
37.4357
21
-13.9171
0
LINE
8
BLACK
6
CONTINUOUS
10
38.2929
20
-11.9171
11
40.2929
21
-11.9171
0
LINE
8
BLACK
6
CONTINUOUS
10
40.2929
20
-11.9171
11
39.0071
21
-14.9171
0
LINE
8
BLACK
6
CONTINUOUS
10
41.2929
20
-11.9171
11
41.2929
21
-12.4886
0
LINE
8
BLACK
6
CONTINUOUS
10
42.4357
20
-11.9171
11
42.4357
21
-12.4886
0
LINE
8
BLACK
6
CONTINUOUS
10
46.8643
20
-16.06
11
46.7214
21
-15.9171
0
LINE
8
BLACK
6
CONTINUOUS
10
46.7214
20
-15.9171
11
46.4357
21
-15.4886
0
LINE
8
BLACK
6
CONTINUOUS
10
46.4357
20
-15.4886
11
46.2929
21
-15.2029
0
LINE
8
BLACK
6
CONTINUOUS
10
46.2929
20
-15.2029
11
46.15
21
-14.7743
0
LINE
8
BLACK
6
CONTINUOUS
10
46.15
20
-14.7743
11
46.0071
21
-14.06
0
LINE
8
BLACK
6
CONTINUOUS
10
46.0071
20
-14.06
11
46.0071
21
-13.4886
0
LINE
8
BLACK
6
CONTINUOUS
10
46.0071
20
-13.4886
11
46.15
21
-12.7743
0
LINE
8
BLACK
6
CONTINUOUS
10
46.15
20
-12.7743
11
46.2929
21
-12.3457
0
LINE
8
BLACK
6
CONTINUOUS
10
46.2929
20
-12.3457
11
46.4357
21
-12.06
0
LINE
8
BLACK
6
CONTINUOUS
10
46.4357
20
-12.06
11
46.7214
21
-11.6314
0
LINE
8
BLACK
6
CONTINUOUS
10
46.7214
20
-11.6314
11
46.8643
21
-11.4886
0
LINE
8
BLACK
6
CONTINUOUS
10
49.2929
20
-12.9171
11
49.2929
21
-14.9171
0
LINE
8
BLACK
6
CONTINUOUS
10
48.5786
20
-11.7743
11
47.8643
21
-13.9171
0
LINE
8
BLACK
6
CONTINUOUS
10
47.8643
20
-13.9171
11
49.7214
21
-13.9171
0
LINE
8
BLACK
6
CONTINUOUS
10
52.2929
20
-11.9171
11
50.8643
21
-11.9171
0
LINE
8
BLACK
6
CONTINUOUS
10
50.8643
20
-11.9171
11
50.7214
21
-13.3457
0
LINE
8
BLACK
6
CONTINUOUS
10
50.7214
20
-13.3457
11
50.8643
21
-13.2029
0
LINE
8
BLACK
6
CONTINUOUS
10
50.8643
20
-13.2029
11
51.15
21
-13.06
0
LINE
8
BLACK
6
CONTINUOUS
10
51.15
20
-13.06
11
51.8643
21
-13.06
0
LINE
8
BLACK
6
CONTINUOUS
10
51.8643
20
-13.06
11
52.15
21
-13.2029
0
LINE
8
BLACK
6
CONTINUOUS
10
52.15
20
-13.2029
11
52.2929
21
-13.3457
0
LINE
8
BLACK
6
CONTINUOUS
10
52.2929
20
-13.3457
11
52.4357
21
-13.6314
0
LINE
8
BLACK
6
CONTINUOUS
10
52.4357
20
-13.6314
11
52.4357
21
-14.3457
0
LINE
8
BLACK
6
CONTINUOUS
10
52.4357
20
-14.3457
11
52.2929
21
-14.6314
0
LINE
8
BLACK
6
CONTINUOUS
10
52.2929
20
-14.6314
11
52.15
21
-14.7743
0
LINE
8
BLACK
6
CONTINUOUS
10
52.15
20
-14.7743
11
51.8643
21
-14.9171
0
LINE
8
BLACK
6
CONTINUOUS
10
51.8643
20
-14.9171
11
51.15
21
-14.9171
0
LINE
8
BLACK
6
CONTINUOUS
10
51.15
20
-14.9171
11
50.8643
21
-14.7743
0
LINE
8
BLACK
6
CONTINUOUS
10
50.8643
20
-14.7743
11
50.7214
21
-14.6314
0
LINE
8
BLACK
6
CONTINUOUS
10
56.0071
20
-14.9171
11
56.0071
21
-11.9171
0
LINE
8
BLACK
6
CONTINUOUS
10
57.2929
20
-14.9171
11
57.2929
21
-13.3457
0
LINE
8
BLACK
6
CONTINUOUS
10
57.2929
20
-13.3457
11
57.15
21
-13.06
0
LINE
8
BLACK
6
CONTINUOUS
10
57.15
20
-13.06
11
56.8643
21
-12.9171
0
LINE
8
BLACK
6
CONTINUOUS
10
56.8643
20
-12.9171
11
56.4357
21
-12.9171
0
LINE
8
BLACK
6
CONTINUOUS
10
56.4357
20
-12.9171
11
56.15
21
-13.06
0
LINE
8
BLACK
6
CONTINUOUS
10
56.15
20
-13.06
11
56.0071
21
-13.2029
0
LINE
8
BLACK
6
CONTINUOUS
10
59.15
20
-14.9171
11
58.8643
21
-14.7743
0
LINE
8
BLACK
6
CONTINUOUS
10
58.8643
20
-14.7743
11
58.7214
21
-14.6314
0
LINE
8
BLACK
6
CONTINUOUS
10
58.7214
20
-14.6314
11
58.5786
21
-14.3457
0
LINE
8
BLACK
6
CONTINUOUS
10
58.5786
20
-14.3457
11
58.5786
21
-13.4886
0
LINE
8
BLACK
6
CONTINUOUS
10
58.5786
20
-13.4886
11
58.7214
21
-13.2029
0
LINE
8
BLACK
6
CONTINUOUS
10
58.7214
20
-13.2029
11
58.8643
21
-13.06
0
LINE
8
BLACK
6
CONTINUOUS
10
58.8643
20
-13.06
11
59.15
21
-12.9171
0
LINE
8
BLACK
6
CONTINUOUS
10
59.15
20
-12.9171
11
59.5786
21
-12.9171
0
LINE
8
BLACK
6
CONTINUOUS
10
59.5786
20
-12.9171
11
59.8643
21
-13.06
0
LINE
8
BLACK
6
CONTINUOUS
10
59.8643
20
-13.06
11
60.0071
21
-13.2029
0
LINE
8
BLACK
6
CONTINUOUS
10
60.0071
20
-13.2029
11
60.15
21
-13.4886
0
LINE
8
BLACK
6
CONTINUOUS
10
60.15
20
-13.4886
11
60.15
21
-14.3457
0
LINE
8
BLACK
6
CONTINUOUS
10
60.15
20
-14.3457
11
60.0071
21
-14.6314
0
LINE
8
BLACK
6
CONTINUOUS
10
60.0071
20
-14.6314
11
59.8643
21
-14.7743
0
LINE
8
BLACK
6
CONTINUOUS
10
59.8643
20
-14.7743
11
59.5786
21
-14.9171
0
LINE
8
BLACK
6
CONTINUOUS
10
59.5786
20
-14.9171
11
59.15
21
-14.9171
0
LINE
8
BLACK
6
CONTINUOUS
10
61.8643
20
-14.9171
11
61.5786
21
-14.7743
0
LINE
8
BLACK
6
CONTINUOUS
10
61.5786
20
-14.7743
11
61.4357
21
-14.4886
0
LINE
8
BLACK
6
CONTINUOUS
10
61.4357
20
-14.4886
11
61.4357
21
-11.9171
0
LINE
8
BLACK
6
CONTINUOUS
10
64.15
20
-14.7743
11
63.8643
21
-14.9171
0
LINE
8
BLACK
6
CONTINUOUS
10
63.8643
20
-14.9171
11
63.2929
21
-14.9171
0
LINE
8
BLACK
6
CONTINUOUS
10
63.2929
20
-14.9171
11
63.0071
21
-14.7743
0
LINE
8
BLACK
6
CONTINUOUS
10
63.0071
20
-14.7743
11
62.8643
21
-14.4886
0
LINE
8
BLACK
6
CONTINUOUS
10
62.8643
20
-14.4886
11
62.8643
21
-13.3457
0
LINE
8
BLACK
6
CONTINUOUS
10
62.8643
20
-13.3457
11
63.0071
21
-13.06
0
LINE
8
BLACK
6
CONTINUOUS
10
63.0071
20
-13.06
11
63.2929
21
-12.9171
0
LINE
8
BLACK
6
CONTINUOUS
10
63.2929
20
-12.9171
11
63.8643
21
-12.9171
0
LINE
8
BLACK
6
CONTINUOUS
10
63.8643
20
-12.9171
11
64.15
21
-13.06
0
LINE
8
BLACK
6
CONTINUOUS
10
64.15
20
-13.06
11
64.2929
21
-13.3457
0
LINE
8
BLACK
6
CONTINUOUS
10
64.2929
20
-13.3457
11
64.2929
21
-13.6314
0
LINE
8
BLACK
6
CONTINUOUS
10
64.2929
20
-13.6314
11
62.8643
21
-13.9171
0
LINE
8
BLACK
6
CONTINUOUS
10
65.4357
20
-14.7743
11
65.7214
21
-14.9171
0
LINE
8
BLACK
6
CONTINUOUS
10
65.7214
20
-14.9171
11
66.2929
21
-14.9171
0
LINE
8
BLACK
6
CONTINUOUS
10
66.2929
20
-14.9171
11
66.5786
21
-14.7743
0
LINE
8
BLACK
6
CONTINUOUS
10
66.5786
20
-14.7743
11
66.7214
21
-14.4886
0
LINE
8
BLACK
6
CONTINUOUS
10
66.7214
20
-14.4886
11
66.7214
21
-14.3457
0
LINE
8
BLACK
6
CONTINUOUS
10
66.7214
20
-14.3457
11
66.5786
21
-14.06
0
LINE
8
BLACK
6
CONTINUOUS
10
66.5786
20
-14.06
11
66.2929
21
-13.9171
0
LINE
8
BLACK
6
CONTINUOUS
10
66.2929
20
-13.9171
11
65.8643
21
-13.9171
0
LINE
8
BLACK
6
CONTINUOUS
10
65.8643
20
-13.9171
11
65.5786
21
-13.7743
0
LINE
8
BLACK
6
CONTINUOUS
10
65.5786
20
-13.7743
11
65.4357
21
-13.4886
0
LINE
8
BLACK
6
CONTINUOUS
10
65.4357
20
-13.4886
11
65.4357
21
-13.3457
0
LINE
8
BLACK
6
CONTINUOUS
10
65.4357
20
-13.3457
11
65.5786
21
-13.06
0
LINE
8
BLACK
6
CONTINUOUS
10
65.5786
20
-13.06
11
65.8643
21
-12.9171
0
LINE
8
BLACK
6
CONTINUOUS
10
65.8643
20
-12.9171
11
66.2929
21
-12.9171
0
LINE
8
BLACK
6
CONTINUOUS
10
66.2929
20
-12.9171
11
66.5786
21
-13.06
0
LINE
8
BLACK
6
CONTINUOUS
10
67.7214
20
-16.06
11
67.8643
21
-15.9171
0
LINE
8
BLACK
6
CONTINUOUS
10
67.8643
20
-15.9171
11
68.15
21
-15.4886
0
LINE
8
BLACK
6
CONTINUOUS
10
68.15
20
-15.4886
11
68.2929
21
-15.2029
0
LINE
8
BLACK
6
CONTINUOUS
10
68.2929
20
-15.2029
11
68.4357
21
-14.7743
0
LINE
8
BLACK
6
CONTINUOUS
10
68.4357
20
-14.7743
11
68.5786
21
-14.06
0
LINE
8
BLACK
6
CONTINUOUS
10
68.5786
20
-14.06
11
68.5786
21
-13.4886
0
LINE
8
BLACK
6
CONTINUOUS
10
68.5786
20
-13.4886
11
68.4357
21
-12.7743
0
LINE
8
BLACK
6
CONTINUOUS
10
68.4357
20
-12.7743
11
68.2929
21
-12.3457
0
LINE
8
BLACK
6
CONTINUOUS
10
68.2929
20
-12.3457
11
68.15
21
-12.06
0
LINE
8
BLACK
6
CONTINUOUS
10
68.15
20
-12.06
11
67.8643
21
-11.6314
0
LINE
8
BLACK
6
CONTINUOUS
10
67.8643
20
-11.6314
11
67.7214
21
-11.4886
  0
ENDSEC
  0
EOF
