  0
SECTION
  2
HEADER
  9
$ANGBASE
  50
0.0
  9
$ANGDIR
  70
1
  9
$MEASUREMENT
  70
1
  0
ENDSEC
  0
SECTION
  2
TABLES
  0
TABLE
  2
LTYPE
  70
4
  0
LTYPE
  5
40F
  2
CONTINUOUS
  70
0
  3
Solid line
  72
65
  73
0
  40
0.0
  0
LTYPE
  5
410
  2
DASHDOT
 70
0
  3
Dash Dot ____ _ ____ _
 72
65
 73
4
 40
2.0
 49
1.25
 49
-0.25
 49
0.25
 49
-0.25
  0
LTYPE
  5
411
  2
DASHED
 70
0
  3
Dashed __ __ __ __ __
 72
65
 73
2
 40
0.75
 49
0.5
 49
-0.25
  0
LTYPE
  5
43B
  2
DOTTED
 70
0
  3
Dotted .  .  .  .
 72
65
 73
2
 40
0.2
 49
0.0
 49
-0.2
  0
ENDTAB
  0
TABLE
  2
STYLE
  70
4
  0
STYLE
  2
KICAD
  70
0
  40
0
  41
1
  42
1
  50
0
  71
0
  3
isocp.shx
  0
STYLE
  2
KICADB
  70
0
  40
0
  41
1
  42
1
  50
0
  71
0
  3
isocp.shx
  0
STYLE
  2
KICADI
  70
0
  40
0
  41
1
  42
1
  50
15
  71
0
  3
isocp.shx
  0
STYLE
  2
KICADBI
  70
0
  40
0
  41
1
  42
1
  50
15
  71
0
  3
isocp.shx
  0
ENDTAB
  0
TABLE
  2
LAYER
  70
1
  0
LAYER
  2
BLACK
  70
0
  62
7
  6
CONTINUOUS
  0
ENDTAB
  0
ENDSEC
  0
SECTION
  2
ENTITIES
0
LINE
8
BLACK
6
CONTINUOUS
10
78.5464
20
-63.8176
11
78.5464
21
-113.818
0
ARC
8
BLACK
10
81.5464
20
-63.8176
40
3
50
90
51
180
0
LINE
8
BLACK
6
CONTINUOUS
10
140.546
20
-60.8176
11
81.5464
21
-60.8176
0
ARC
8
BLACK
10
140.546
20
-63.8176
40
3
50
-0
51
90
0
LINE
8
BLACK
6
CONTINUOUS
10
143.546
20
-113.823
11
143.546
21
-63.8176
0
ARC
8
BLACK
10
81.5464
20
-113.818
40
3
50
180
51
270
0
LINE
8
BLACK
6
CONTINUOUS
10
81.5464
20
-116.818
11
140.546
21
-116.818
0
ARC
8
BLACK
10
140.546
20
-113.818
40
3
50
-90
51
-0.1
0
LINE
8
BLACK
6
CONTINUOUS
10
101.271
20
-86.6148
11
102.071
21
-87.4148
0
LINE
8
BLACK
6
CONTINUOUS
10
102.071
20
-86.6148
11
101.271
21
-87.4148
0
LINE
8
BLACK
6
CONTINUOUS
10
101.271
20
-89.1548
11
102.071
21
-89.9548
0
LINE
8
BLACK
6
CONTINUOUS
10
102.071
20
-89.1548
11
101.271
21
-89.9548
0
LINE
8
BLACK
6
CONTINUOUS
10
101.271
20
-91.6948
11
102.071
21
-92.4948
0
LINE
8
BLACK
6
CONTINUOUS
10
102.071
20
-91.6948
11
101.271
21
-92.4948
0
LINE
8
BLACK
6
CONTINUOUS
10
101.271
20
-94.2348
11
102.071
21
-95.0348
0
LINE
8
BLACK
6
CONTINUOUS
10
102.071
20
-94.2348
11
101.271
21
-95.0348
0
LINE
8
BLACK
6
CONTINUOUS
10
101.271
20
-96.7748
11
102.071
21
-97.5748
0
LINE
8
BLACK
6
CONTINUOUS
10
102.071
20
-96.7748
11
101.271
21
-97.5748
0
LINE
8
BLACK
6
CONTINUOUS
10
101.271
20
-99.3148
11
102.071
21
-100.115
0
LINE
8
BLACK
6
CONTINUOUS
10
102.071
20
-99.3148
11
101.271
21
-100.115
0
LINE
8
BLACK
6
CONTINUOUS
10
101.271
20
-101.855
11
102.071
21
-102.655
0
LINE
8
BLACK
6
CONTINUOUS
10
102.071
20
-101.855
11
101.271
21
-102.655
0
LINE
8
BLACK
6
CONTINUOUS
10
101.271
20
-104.395
11
102.071
21
-105.195
0
LINE
8
BLACK
6
CONTINUOUS
10
102.071
20
-104.395
11
101.271
21
-105.195
0
LINE
8
BLACK
6
CONTINUOUS
10
108.891
20
-86.6148
11
109.691
21
-87.4148
0
LINE
8
BLACK
6
CONTINUOUS
10
109.691
20
-86.6148
11
108.891
21
-87.4148
0
LINE
8
BLACK
6
CONTINUOUS
10
108.891
20
-89.1548
11
109.691
21
-89.9548
0
LINE
8
BLACK
6
CONTINUOUS
10
109.691
20
-89.1548
11
108.891
21
-89.9548
0
LINE
8
BLACK
6
CONTINUOUS
10
108.891
20
-91.6948
11
109.691
21
-92.4948
0
LINE
8
BLACK
6
CONTINUOUS
10
109.691
20
-91.6948
11
108.891
21
-92.4948
0
LINE
8
BLACK
6
CONTINUOUS
10
108.891
20
-94.2348
11
109.691
21
-95.0348
0
LINE
8
BLACK
6
CONTINUOUS
10
109.691
20
-94.2348
11
108.891
21
-95.0348
0
LINE
8
BLACK
6
CONTINUOUS
10
108.891
20
-96.7748
11
109.691
21
-97.5748
0
LINE
8
BLACK
6
CONTINUOUS
10
109.691
20
-96.7748
11
108.891
21
-97.5748
0
LINE
8
BLACK
6
CONTINUOUS
10
108.891
20
-99.3148
11
109.691
21
-100.115
0
LINE
8
BLACK
6
CONTINUOUS
10
109.691
20
-99.3148
11
108.891
21
-100.115
0
LINE
8
BLACK
6
CONTINUOUS
10
108.891
20
-101.855
11
109.691
21
-102.655
0
LINE
8
BLACK
6
CONTINUOUS
10
109.691
20
-101.855
11
108.891
21
-102.655
0
LINE
8
BLACK
6
CONTINUOUS
10
108.891
20
-104.395
11
109.691
21
-105.195
0
LINE
8
BLACK
6
CONTINUOUS
10
109.691
20
-104.395
11
108.891
21
-105.195
0
LINE
8
BLACK
6
CONTINUOUS
10
93.072
20
-86.6204
11
93.872
21
-87.4204
0
LINE
8
BLACK
6
CONTINUOUS
10
93.872
20
-86.6204
11
93.072
21
-87.4204
0
LINE
8
BLACK
6
CONTINUOUS
10
98.072
20
-86.6204
11
98.872
21
-87.4204
0
LINE
8
BLACK
6
CONTINUOUS
10
98.872
20
-86.6204
11
98.072
21
-87.4204
0
LINE
8
BLACK
6
CONTINUOUS
10
92.9704
20
-92.31
11
93.7704
21
-93.11
0
LINE
8
BLACK
6
CONTINUOUS
10
93.7704
20
-92.31
11
92.9704
21
-93.11
0
LINE
8
BLACK
6
CONTINUOUS
10
97.9704
20
-92.31
11
98.7704
21
-93.11
0
LINE
8
BLACK
6
CONTINUOUS
10
98.7704
20
-92.31
11
97.9704
21
-93.11
0
CIRCLE
8
BLACK
10
86.92
20
-63.05
40
0.5
0
CIRCLE
8
BLACK
10
86.92
20
-65.59
40
0.5
0
CIRCLE
8
BLACK
10
89.46
20
-63.05
40
0.5
0
CIRCLE
8
BLACK
10
89.46
20
-65.59
40
0.5
0
CIRCLE
8
BLACK
10
92
20
-63.05
40
0.5
0
CIRCLE
8
BLACK
10
92
20
-65.59
40
0.5
0
CIRCLE
8
BLACK
10
94.54
20
-63.05
40
0.5
0
CIRCLE
8
BLACK
10
94.54
20
-65.59
40
0.5
0
CIRCLE
8
BLACK
10
97.08
20
-63.05
40
0.5
0
CIRCLE
8
BLACK
10
97.08
20
-65.59
40
0.5
0
CIRCLE
8
BLACK
10
99.62
20
-63.05
40
0.5
0
CIRCLE
8
BLACK
10
99.62
20
-65.59
40
0.5
0
CIRCLE
8
BLACK
10
102.16
20
-63.05
40
0.5
0
CIRCLE
8
BLACK
10
102.16
20
-65.59
40
0.5
0
CIRCLE
8
BLACK
10
104.7
20
-63.05
40
0.5
0
CIRCLE
8
BLACK
10
104.7
20
-65.59
40
0.5
0
CIRCLE
8
BLACK
10
107.24
20
-63.05
40
0.5
0
CIRCLE
8
BLACK
10
107.24
20
-65.59
40
0.5
0
CIRCLE
8
BLACK
10
109.78
20
-63.05
40
0.5
0
CIRCLE
8
BLACK
10
109.78
20
-65.59
40
0.5
0
CIRCLE
8
BLACK
10
112.32
20
-63.05
40
0.5
0
CIRCLE
8
BLACK
10
112.32
20
-65.59
40
0.5
0
CIRCLE
8
BLACK
10
114.86
20
-63.05
40
0.5
0
CIRCLE
8
BLACK
10
114.86
20
-65.59
40
0.5
0
CIRCLE
8
BLACK
10
117.4
20
-63.05
40
0.5
0
CIRCLE
8
BLACK
10
117.4
20
-65.59
40
0.5
0
CIRCLE
8
BLACK
10
119.94
20
-63.05
40
0.5
0
CIRCLE
8
BLACK
10
119.94
20
-65.59
40
0.5
0
CIRCLE
8
BLACK
10
122.48
20
-63.05
40
0.5
0
CIRCLE
8
BLACK
10
122.48
20
-65.59
40
0.5
0
CIRCLE
8
BLACK
10
125.02
20
-63.05
40
0.5
0
CIRCLE
8
BLACK
10
125.02
20
-65.59
40
0.5
0
CIRCLE
8
BLACK
10
127.56
20
-63.05
40
0.5
0
CIRCLE
8
BLACK
10
127.56
20
-65.59
40
0.5
0
CIRCLE
8
BLACK
10
130.1
20
-63.05
40
0.5
0
CIRCLE
8
BLACK
10
130.1
20
-65.59
40
0.5
0
CIRCLE
8
BLACK
10
132.64
20
-63.05
40
0.5
0
CIRCLE
8
BLACK
10
132.64
20
-65.59
40
0.5
0
CIRCLE
8
BLACK
10
135.18
20
-63.05
40
0.5
0
CIRCLE
8
BLACK
10
135.18
20
-65.59
40
0.5
0
LINE
8
BLACK
6
CONTINUOUS
10
87.5792
20
-99.476
11
87.5792
21
-100.676
0
LINE
8
BLACK
6
CONTINUOUS
10
86.9792
20
-100.076
11
88.1792
21
-100.076
0
LINE
8
BLACK
6
CONTINUOUS
10
90.1192
20
-99.476
11
90.1192
21
-100.676
0
LINE
8
BLACK
6
CONTINUOUS
10
89.5192
20
-100.076
11
90.7192
21
-100.076
0
LINE
8
BLACK
6
CONTINUOUS
10
86.9696
20
-79.4608
11
86.9696
21
-80.6608
0
LINE
8
BLACK
6
CONTINUOUS
10
86.3696
20
-80.0608
11
87.5696
21
-80.0608
0
LINE
8
BLACK
6
CONTINUOUS
10
89.5096
20
-79.4608
11
89.5096
21
-80.6608
0
LINE
8
BLACK
6
CONTINUOUS
10
88.9096
20
-80.0608
11
90.1096
21
-80.0608
0
LINE
8
BLACK
6
CONTINUOUS
10
81.3606
20
-121.525
11
81.3606
21
-118.525
0
LINE
8
BLACK
6
CONTINUOUS
10
81.3606
20
-118.525
11
82.0749
21
-118.525
0
LINE
8
BLACK
6
CONTINUOUS
10
82.0749
20
-118.525
11
82.5035
21
-118.668
0
LINE
8
BLACK
6
CONTINUOUS
10
82.5035
20
-118.668
11
82.7892
21
-118.953
0
LINE
8
BLACK
6
CONTINUOUS
10
82.7892
20
-118.953
11
82.9321
21
-119.239
0
LINE
8
BLACK
6
CONTINUOUS
10
82.9321
20
-119.239
11
83.0749
21
-119.81
0
LINE
8
BLACK
6
CONTINUOUS
10
83.0749
20
-119.81
11
83.0749
21
-120.239
0
LINE
8
BLACK
6
CONTINUOUS
10
83.0749
20
-120.239
11
82.9321
21
-120.81
0
LINE
8
BLACK
6
CONTINUOUS
10
82.9321
20
-120.81
11
82.7892
21
-121.096
0
LINE
8
BLACK
6
CONTINUOUS
10
82.7892
20
-121.096
11
82.5035
21
-121.382
0
LINE
8
BLACK
6
CONTINUOUS
10
82.5035
20
-121.382
11
82.0749
21
-121.525
0
LINE
8
BLACK
6
CONTINUOUS
10
82.0749
20
-121.525
11
81.3606
21
-121.525
0
LINE
8
BLACK
6
CONTINUOUS
10
84.3606
20
-121.525
11
84.3606
21
-119.525
0
LINE
8
BLACK
6
CONTINUOUS
10
84.3606
20
-120.096
11
84.5035
21
-119.81
0
LINE
8
BLACK
6
CONTINUOUS
10
84.5035
20
-119.81
11
84.6464
21
-119.668
0
LINE
8
BLACK
6
CONTINUOUS
10
84.6464
20
-119.668
11
84.9321
21
-119.525
0
LINE
8
BLACK
6
CONTINUOUS
10
84.9321
20
-119.525
11
85.2178
21
-119.525
0
LINE
8
BLACK
6
CONTINUOUS
10
86.2178
20
-121.525
11
86.2178
21
-119.525
0
LINE
8
BLACK
6
CONTINUOUS
10
86.2178
20
-118.525
11
86.0749
21
-118.668
0
LINE
8
BLACK
6
CONTINUOUS
10
86.0749
20
-118.668
11
86.2178
21
-118.81
0
LINE
8
BLACK
6
CONTINUOUS
10
86.2178
20
-118.81
11
86.3606
21
-118.668
0
LINE
8
BLACK
6
CONTINUOUS
10
86.3606
20
-118.668
11
86.2178
21
-118.525
0
LINE
8
BLACK
6
CONTINUOUS
10
86.2178
20
-118.525
11
86.2178
21
-118.81
0
LINE
8
BLACK
6
CONTINUOUS
10
88.0749
20
-121.525
11
87.7892
21
-121.382
0
LINE
8
BLACK
6
CONTINUOUS
10
87.7892
20
-121.382
11
87.6464
21
-121.096
0
LINE
8
BLACK
6
CONTINUOUS
10
87.6464
20
-121.096
11
87.6464
21
-118.525
0
LINE
8
BLACK
6
CONTINUOUS
10
89.6464
20
-121.525
11
89.3606
21
-121.382
0
LINE
8
BLACK
6
CONTINUOUS
10
89.3606
20
-121.382
11
89.2178
21
-121.096
0
LINE
8
BLACK
6
CONTINUOUS
10
89.2178
20
-121.096
11
89.2178
21
-118.525
0
LINE
8
BLACK
6
CONTINUOUS
10
93.0749
20
-121.525
11
93.0749
21
-118.525
0
LINE
8
BLACK
6
CONTINUOUS
10
93.0749
20
-118.525
11
94.0749
21
-120.668
0
LINE
8
BLACK
6
CONTINUOUS
10
94.0749
20
-120.668
11
95.0749
21
-118.525
0
LINE
8
BLACK
6
CONTINUOUS
10
95.0749
20
-118.525
11
95.0749
21
-121.525
0
LINE
8
BLACK
6
CONTINUOUS
10
97.7892
20
-121.525
11
97.7892
21
-119.953
0
LINE
8
BLACK
6
CONTINUOUS
10
97.7892
20
-119.953
11
97.6464
21
-119.668
0
LINE
8
BLACK
6
CONTINUOUS
10
97.6464
20
-119.668
11
97.3606
21
-119.525
0
LINE
8
BLACK
6
CONTINUOUS
10
97.3606
20
-119.525
11
96.7892
21
-119.525
0
LINE
8
BLACK
6
CONTINUOUS
10
96.7892
20
-119.525
11
96.5035
21
-119.668
0
LINE
8
BLACK
6
CONTINUOUS
10
97.7892
20
-121.382
11
97.5035
21
-121.525
0
LINE
8
BLACK
6
CONTINUOUS
10
97.5035
20
-121.525
11
96.7892
21
-121.525
0
LINE
8
BLACK
6
CONTINUOUS
10
96.7892
20
-121.525
11
96.5035
21
-121.382
0
LINE
8
BLACK
6
CONTINUOUS
10
96.5035
20
-121.382
11
96.3606
21
-121.096
0
LINE
8
BLACK
6
CONTINUOUS
10
96.3606
20
-121.096
11
96.3606
21
-120.81
0
LINE
8
BLACK
6
CONTINUOUS
10
96.3606
20
-120.81
11
96.5035
21
-120.525
0
LINE
8
BLACK
6
CONTINUOUS
10
96.5035
20
-120.525
11
96.7892
21
-120.382
0
LINE
8
BLACK
6
CONTINUOUS
10
96.7892
20
-120.382
11
97.5035
21
-120.382
0
LINE
8
BLACK
6
CONTINUOUS
10
97.5035
20
-120.382
11
97.7892
21
-120.239
0
LINE
8
BLACK
6
CONTINUOUS
10
99.2178
20
-119.525
11
99.2178
21
-122.525
0
LINE
8
BLACK
6
CONTINUOUS
10
99.2178
20
-119.668
11
99.5035
21
-119.525
0
LINE
8
BLACK
6
CONTINUOUS
10
99.5035
20
-119.525
11
100.075
21
-119.525
0
LINE
8
BLACK
6
CONTINUOUS
10
100.075
20
-119.525
11
100.361
21
-119.668
0
LINE
8
BLACK
6
CONTINUOUS
10
100.361
20
-119.668
11
100.503
21
-119.81
0
LINE
8
BLACK
6
CONTINUOUS
10
100.503
20
-119.81
11
100.646
21
-120.096
0
LINE
8
BLACK
6
CONTINUOUS
10
100.646
20
-120.096
11
100.646
21
-120.953
0
LINE
8
BLACK
6
CONTINUOUS
10
100.646
20
-120.953
11
100.503
21
-121.239
0
LINE
8
BLACK
6
CONTINUOUS
10
100.503
20
-121.239
11
100.361
21
-121.382
0
LINE
8
BLACK
6
CONTINUOUS
10
100.361
20
-121.382
11
100.075
21
-121.525
0
LINE
8
BLACK
6
CONTINUOUS
10
100.075
20
-121.525
11
99.5035
21
-121.525
0
LINE
8
BLACK
6
CONTINUOUS
10
99.5035
20
-121.525
11
99.2178
21
-121.382
0
LINE
8
BLACK
6
CONTINUOUS
10
101.932
20
-121.239
11
102.075
21
-121.382
0
LINE
8
BLACK
6
CONTINUOUS
10
102.075
20
-121.382
11
101.932
21
-121.525
0
LINE
8
BLACK
6
CONTINUOUS
10
101.932
20
-121.525
11
101.789
21
-121.382
0
LINE
8
BLACK
6
CONTINUOUS
10
101.789
20
-121.382
11
101.932
21
-121.239
0
LINE
8
BLACK
6
CONTINUOUS
10
101.932
20
-121.239
11
101.932
21
-121.525
0
LINE
8
BLACK
6
CONTINUOUS
10
101.932
20
-119.668
11
102.075
21
-119.81
0
LINE
8
BLACK
6
CONTINUOUS
10
102.075
20
-119.81
11
101.932
21
-119.953
0
LINE
8
BLACK
6
CONTINUOUS
10
101.932
20
-119.953
11
101.789
21
-119.81
0
LINE
8
BLACK
6
CONTINUOUS
10
101.789
20
-119.81
11
101.932
21
-119.668
0
LINE
8
BLACK
6
CONTINUOUS
10
101.932
20
-119.668
11
101.932
21
-119.953
0
LINE
8
BLACK
6
CONTINUOUS
10
77.6964
20
-126.068
11
78.4964
21
-126.868
0
LINE
8
BLACK
6
CONTINUOUS
10
78.4964
20
-126.068
11
77.6964
21
-126.868
0
LINE
8
BLACK
6
CONTINUOUS
10
81.9321
20
-124.825
11
82.2178
21
-124.825
0
LINE
8
BLACK
6
CONTINUOUS
10
82.2178
20
-124.825
11
82.5035
21
-124.968
0
LINE
8
BLACK
6
CONTINUOUS
10
82.5035
20
-124.968
11
82.6464
21
-125.11
0
LINE
8
BLACK
6
CONTINUOUS
10
82.6464
20
-125.11
11
82.7892
21
-125.396
0
LINE
8
BLACK
6
CONTINUOUS
10
82.7892
20
-125.396
11
82.9321
21
-125.968
0
LINE
8
BLACK
6
CONTINUOUS
10
82.9321
20
-125.968
11
82.9321
21
-126.682
0
LINE
8
BLACK
6
CONTINUOUS
10
82.9321
20
-126.682
11
82.7892
21
-127.253
0
LINE
8
BLACK
6
CONTINUOUS
10
82.7892
20
-127.253
11
82.6464
21
-127.539
0
LINE
8
BLACK
6
CONTINUOUS
10
82.6464
20
-127.539
11
82.5035
21
-127.682
0
LINE
8
BLACK
6
CONTINUOUS
10
82.5035
20
-127.682
11
82.2178
21
-127.825
0
LINE
8
BLACK
6
CONTINUOUS
10
82.2178
20
-127.825
11
81.9321
21
-127.825
0
LINE
8
BLACK
6
CONTINUOUS
10
81.9321
20
-127.825
11
81.6464
21
-127.682
0
LINE
8
BLACK
6
CONTINUOUS
10
81.6464
20
-127.682
11
81.5035
21
-127.539
0
LINE
8
BLACK
6
CONTINUOUS
10
81.5035
20
-127.539
11
81.3606
21
-127.253
0
LINE
8
BLACK
6
CONTINUOUS
10
81.3606
20
-127.253
11
81.2178
21
-126.682
0
LINE
8
BLACK
6
CONTINUOUS
10
81.2178
20
-126.682
11
81.2178
21
-125.968
0
LINE
8
BLACK
6
CONTINUOUS
10
81.2178
20
-125.968
11
81.3606
21
-125.396
0
LINE
8
BLACK
6
CONTINUOUS
10
81.3606
20
-125.396
11
81.5035
21
-125.11
0
LINE
8
BLACK
6
CONTINUOUS
10
81.5035
20
-125.11
11
81.6464
21
-124.968
0
LINE
8
BLACK
6
CONTINUOUS
10
81.6464
20
-124.968
11
81.9321
21
-124.825
0
LINE
8
BLACK
6
CONTINUOUS
10
84.2178
20
-127.539
11
84.3606
21
-127.682
0
LINE
8
BLACK
6
CONTINUOUS
10
84.3606
20
-127.682
11
84.2178
21
-127.825
0
LINE
8
BLACK
6
CONTINUOUS
10
84.2178
20
-127.825
11
84.0749
21
-127.682
0
LINE
8
BLACK
6
CONTINUOUS
10
84.0749
20
-127.682
11
84.2178
21
-127.539
0
LINE
8
BLACK
6
CONTINUOUS
10
84.2178
20
-127.539
11
84.2178
21
-127.825
0
LINE
8
BLACK
6
CONTINUOUS
10
86.0749
20
-126.11
11
85.7892
21
-125.968
0
LINE
8
BLACK
6
CONTINUOUS
10
85.7892
20
-125.968
11
85.6464
21
-125.825
0
LINE
8
BLACK
6
CONTINUOUS
10
85.6464
20
-125.825
11
85.5035
21
-125.539
0
LINE
8
BLACK
6
CONTINUOUS
10
85.5035
20
-125.539
11
85.5035
21
-125.396
0
LINE
8
BLACK
6
CONTINUOUS
10
85.5035
20
-125.396
11
85.6464
21
-125.11
0
LINE
8
BLACK
6
CONTINUOUS
10
85.6464
20
-125.11
11
85.7892
21
-124.968
0
LINE
8
BLACK
6
CONTINUOUS
10
85.7892
20
-124.968
11
86.0749
21
-124.825
0
LINE
8
BLACK
6
CONTINUOUS
10
86.0749
20
-124.825
11
86.6464
21
-124.825
0
LINE
8
BLACK
6
CONTINUOUS
10
86.6464
20
-124.825
11
86.9321
21
-124.968
0
LINE
8
BLACK
6
CONTINUOUS
10
86.9321
20
-124.968
11
87.0749
21
-125.11
0
LINE
8
BLACK
6
CONTINUOUS
10
87.0749
20
-125.11
11
87.2178
21
-125.396
0
LINE
8
BLACK
6
CONTINUOUS
10
87.2178
20
-125.396
11
87.2178
21
-125.539
0
LINE
8
BLACK
6
CONTINUOUS
10
87.2178
20
-125.539
11
87.0749
21
-125.825
0
LINE
8
BLACK
6
CONTINUOUS
10
87.0749
20
-125.825
11
86.9321
21
-125.968
0
LINE
8
BLACK
6
CONTINUOUS
10
86.9321
20
-125.968
11
86.6464
21
-126.11
0
LINE
8
BLACK
6
CONTINUOUS
10
86.6464
20
-126.11
11
86.0749
21
-126.11
0
LINE
8
BLACK
6
CONTINUOUS
10
86.0749
20
-126.11
11
85.7892
21
-126.253
0
LINE
8
BLACK
6
CONTINUOUS
10
85.7892
20
-126.253
11
85.6464
21
-126.396
0
LINE
8
BLACK
6
CONTINUOUS
10
85.6464
20
-126.396
11
85.5035
21
-126.682
0
LINE
8
BLACK
6
CONTINUOUS
10
85.5035
20
-126.682
11
85.5035
21
-127.253
0
LINE
8
BLACK
6
CONTINUOUS
10
85.5035
20
-127.253
11
85.6464
21
-127.539
0
LINE
8
BLACK
6
CONTINUOUS
10
85.6464
20
-127.539
11
85.7892
21
-127.682
0
LINE
8
BLACK
6
CONTINUOUS
10
85.7892
20
-127.682
11
86.0749
21
-127.825
0
LINE
8
BLACK
6
CONTINUOUS
10
86.0749
20
-127.825
11
86.6464
21
-127.825
0
LINE
8
BLACK
6
CONTINUOUS
10
86.6464
20
-127.825
11
86.9321
21
-127.682
0
LINE
8
BLACK
6
CONTINUOUS
10
86.9321
20
-127.682
11
87.0749
21
-127.539
0
LINE
8
BLACK
6
CONTINUOUS
10
87.0749
20
-127.539
11
87.2178
21
-127.253
0
LINE
8
BLACK
6
CONTINUOUS
10
87.2178
20
-127.253
11
87.2178
21
-126.682
0
LINE
8
BLACK
6
CONTINUOUS
10
87.2178
20
-126.682
11
87.0749
21
-126.396
0
LINE
8
BLACK
6
CONTINUOUS
10
87.0749
20
-126.396
11
86.9321
21
-126.253
0
LINE
8
BLACK
6
CONTINUOUS
10
86.9321
20
-126.253
11
86.6464
21
-126.11
0
LINE
8
BLACK
6
CONTINUOUS
10
89.0749
20
-124.825
11
89.3606
21
-124.825
0
LINE
8
BLACK
6
CONTINUOUS
10
89.3606
20
-124.825
11
89.6464
21
-124.968
0
LINE
8
BLACK
6
CONTINUOUS
10
89.6464
20
-124.968
11
89.7892
21
-125.11
0
LINE
8
BLACK
6
CONTINUOUS
10
89.7892
20
-125.11
11
89.9321
21
-125.396
0
LINE
8
BLACK
6
CONTINUOUS
10
89.9321
20
-125.396
11
90.0749
21
-125.968
0
LINE
8
BLACK
6
CONTINUOUS
10
90.0749
20
-125.968
11
90.0749
21
-126.682
0
LINE
8
BLACK
6
CONTINUOUS
10
90.0749
20
-126.682
11
89.9321
21
-127.253
0
LINE
8
BLACK
6
CONTINUOUS
10
89.9321
20
-127.253
11
89.7892
21
-127.539
0
LINE
8
BLACK
6
CONTINUOUS
10
89.7892
20
-127.539
11
89.6464
21
-127.682
0
LINE
8
BLACK
6
CONTINUOUS
10
89.6464
20
-127.682
11
89.3606
21
-127.825
0
LINE
8
BLACK
6
CONTINUOUS
10
89.3606
20
-127.825
11
89.0749
21
-127.825
0
LINE
8
BLACK
6
CONTINUOUS
10
89.0749
20
-127.825
11
88.7892
21
-127.682
0
LINE
8
BLACK
6
CONTINUOUS
10
88.7892
20
-127.682
11
88.6464
21
-127.539
0
LINE
8
BLACK
6
CONTINUOUS
10
88.6464
20
-127.539
11
88.5035
21
-127.253
0
LINE
8
BLACK
6
CONTINUOUS
10
88.5035
20
-127.253
11
88.3606
21
-126.682
0
LINE
8
BLACK
6
CONTINUOUS
10
88.3606
20
-126.682
11
88.3606
21
-125.968
0
LINE
8
BLACK
6
CONTINUOUS
10
88.3606
20
-125.968
11
88.5035
21
-125.396
0
LINE
8
BLACK
6
CONTINUOUS
10
88.5035
20
-125.396
11
88.6464
21
-125.11
0
LINE
8
BLACK
6
CONTINUOUS
10
88.6464
20
-125.11
11
88.7892
21
-124.968
0
LINE
8
BLACK
6
CONTINUOUS
10
88.7892
20
-124.968
11
89.0749
21
-124.825
0
LINE
8
BLACK
6
CONTINUOUS
10
91.3606
20
-127.825
11
91.3606
21
-125.825
0
LINE
8
BLACK
6
CONTINUOUS
10
91.3606
20
-126.11
11
91.5035
21
-125.968
0
LINE
8
BLACK
6
CONTINUOUS
10
91.5035
20
-125.968
11
91.7892
21
-125.825
0
LINE
8
BLACK
6
CONTINUOUS
10
91.7892
20
-125.825
11
92.2178
21
-125.825
0
LINE
8
BLACK
6
CONTINUOUS
10
92.2178
20
-125.825
11
92.5035
21
-125.968
0
LINE
8
BLACK
6
CONTINUOUS
10
92.5035
20
-125.968
11
92.6464
21
-126.253
0
LINE
8
BLACK
6
CONTINUOUS
10
92.6464
20
-126.253
11
92.6464
21
-127.825
0
LINE
8
BLACK
6
CONTINUOUS
10
92.6464
20
-126.253
11
92.7892
21
-125.968
0
LINE
8
BLACK
6
CONTINUOUS
10
92.7892
20
-125.968
11
93.0749
21
-125.825
0
LINE
8
BLACK
6
CONTINUOUS
10
93.0749
20
-125.825
11
93.5035
21
-125.825
0
LINE
8
BLACK
6
CONTINUOUS
10
93.5035
20
-125.825
11
93.7892
21
-125.968
0
LINE
8
BLACK
6
CONTINUOUS
10
93.7892
20
-125.968
11
93.9321
21
-126.253
0
LINE
8
BLACK
6
CONTINUOUS
10
93.9321
20
-126.253
11
93.9321
21
-127.825
0
LINE
8
BLACK
6
CONTINUOUS
10
95.3606
20
-127.825
11
95.3606
21
-125.825
0
LINE
8
BLACK
6
CONTINUOUS
10
95.3606
20
-126.11
11
95.5035
21
-125.968
0
LINE
8
BLACK
6
CONTINUOUS
10
95.5035
20
-125.968
11
95.7892
21
-125.825
0
LINE
8
BLACK
6
CONTINUOUS
10
95.7892
20
-125.825
11
96.2178
21
-125.825
0
LINE
8
BLACK
6
CONTINUOUS
10
96.2178
20
-125.825
11
96.5035
21
-125.968
0
LINE
8
BLACK
6
CONTINUOUS
10
96.5035
20
-125.968
11
96.6464
21
-126.253
0
LINE
8
BLACK
6
CONTINUOUS
10
96.6464
20
-126.253
11
96.6464
21
-127.825
0
LINE
8
BLACK
6
CONTINUOUS
10
96.6464
20
-126.253
11
96.7892
21
-125.968
0
LINE
8
BLACK
6
CONTINUOUS
10
96.7892
20
-125.968
11
97.0749
21
-125.825
0
LINE
8
BLACK
6
CONTINUOUS
10
97.0749
20
-125.825
11
97.5035
21
-125.825
0
LINE
8
BLACK
6
CONTINUOUS
10
97.5035
20
-125.825
11
97.7892
21
-125.968
0
LINE
8
BLACK
6
CONTINUOUS
10
97.7892
20
-125.968
11
97.9321
21
-126.253
0
LINE
8
BLACK
6
CONTINUOUS
10
97.9321
20
-126.253
11
97.9321
21
-127.825
0
LINE
8
BLACK
6
CONTINUOUS
10
103.789
20
-124.682
11
101.218
21
-128.539
0
LINE
8
BLACK
6
CONTINUOUS
10
107.646
20
-124.825
11
107.932
21
-124.825
0
LINE
8
BLACK
6
CONTINUOUS
10
107.932
20
-124.825
11
108.218
21
-124.968
0
LINE
8
BLACK
6
CONTINUOUS
10
108.218
20
-124.968
11
108.361
21
-125.11
0
LINE
8
BLACK
6
CONTINUOUS
10
108.361
20
-125.11
11
108.503
21
-125.396
0
LINE
8
BLACK
6
CONTINUOUS
10
108.503
20
-125.396
11
108.646
21
-125.968
0
LINE
8
BLACK
6
CONTINUOUS
10
108.646
20
-125.968
11
108.646
21
-126.682
0
LINE
8
BLACK
6
CONTINUOUS
10
108.646
20
-126.682
11
108.503
21
-127.253
0
LINE
8
BLACK
6
CONTINUOUS
10
108.503
20
-127.253
11
108.361
21
-127.539
0
LINE
8
BLACK
6
CONTINUOUS
10
108.361
20
-127.539
11
108.218
21
-127.682
0
LINE
8
BLACK
6
CONTINUOUS
10
108.218
20
-127.682
11
107.932
21
-127.825
0
LINE
8
BLACK
6
CONTINUOUS
10
107.932
20
-127.825
11
107.646
21
-127.825
0
LINE
8
BLACK
6
CONTINUOUS
10
107.646
20
-127.825
11
107.361
21
-127.682
0
LINE
8
BLACK
6
CONTINUOUS
10
107.361
20
-127.682
11
107.218
21
-127.539
0
LINE
8
BLACK
6
CONTINUOUS
10
107.218
20
-127.539
11
107.075
21
-127.253
0
LINE
8
BLACK
6
CONTINUOUS
10
107.075
20
-127.253
11
106.932
21
-126.682
0
LINE
8
BLACK
6
CONTINUOUS
10
106.932
20
-126.682
11
106.932
21
-125.968
0
LINE
8
BLACK
6
CONTINUOUS
10
106.932
20
-125.968
11
107.075
21
-125.396
0
LINE
8
BLACK
6
CONTINUOUS
10
107.075
20
-125.396
11
107.218
21
-125.11
0
LINE
8
BLACK
6
CONTINUOUS
10
107.218
20
-125.11
11
107.361
21
-124.968
0
LINE
8
BLACK
6
CONTINUOUS
10
107.361
20
-124.968
11
107.646
21
-124.825
0
LINE
8
BLACK
6
CONTINUOUS
10
109.932
20
-127.539
11
110.075
21
-127.682
0
LINE
8
BLACK
6
CONTINUOUS
10
110.075
20
-127.682
11
109.932
21
-127.825
0
LINE
8
BLACK
6
CONTINUOUS
10
109.932
20
-127.825
11
109.789
21
-127.682
0
LINE
8
BLACK
6
CONTINUOUS
10
109.789
20
-127.682
11
109.932
21
-127.539
0
LINE
8
BLACK
6
CONTINUOUS
10
109.932
20
-127.539
11
109.932
21
-127.825
0
LINE
8
BLACK
6
CONTINUOUS
10
111.932
20
-124.825
11
112.218
21
-124.825
0
LINE
8
BLACK
6
CONTINUOUS
10
112.218
20
-124.825
11
112.503
21
-124.968
0
LINE
8
BLACK
6
CONTINUOUS
10
112.503
20
-124.968
11
112.646
21
-125.11
0
LINE
8
BLACK
6
CONTINUOUS
10
112.646
20
-125.11
11
112.789
21
-125.396
0
LINE
8
BLACK
6
CONTINUOUS
10
112.789
20
-125.396
11
112.932
21
-125.968
0
LINE
8
BLACK
6
CONTINUOUS
10
112.932
20
-125.968
11
112.932
21
-126.682
0
LINE
8
BLACK
6
CONTINUOUS
10
112.932
20
-126.682
11
112.789
21
-127.253
0
LINE
8
BLACK
6
CONTINUOUS
10
112.789
20
-127.253
11
112.646
21
-127.539
0
LINE
8
BLACK
6
CONTINUOUS
10
112.646
20
-127.539
11
112.503
21
-127.682
0
LINE
8
BLACK
6
CONTINUOUS
10
112.503
20
-127.682
11
112.218
21
-127.825
0
LINE
8
BLACK
6
CONTINUOUS
10
112.218
20
-127.825
11
111.932
21
-127.825
0
LINE
8
BLACK
6
CONTINUOUS
10
111.932
20
-127.825
11
111.646
21
-127.682
0
LINE
8
BLACK
6
CONTINUOUS
10
111.646
20
-127.682
11
111.503
21
-127.539
0
LINE
8
BLACK
6
CONTINUOUS
10
111.503
20
-127.539
11
111.361
21
-127.253
0
LINE
8
BLACK
6
CONTINUOUS
10
111.361
20
-127.253
11
111.218
21
-126.682
0
LINE
8
BLACK
6
CONTINUOUS
10
111.218
20
-126.682
11
111.218
21
-125.968
0
LINE
8
BLACK
6
CONTINUOUS
10
111.218
20
-125.968
11
111.361
21
-125.396
0
LINE
8
BLACK
6
CONTINUOUS
10
111.361
20
-125.396
11
111.503
21
-125.11
0
LINE
8
BLACK
6
CONTINUOUS
10
111.503
20
-125.11
11
111.646
21
-124.968
0
LINE
8
BLACK
6
CONTINUOUS
10
111.646
20
-124.968
11
111.932
21
-124.825
0
LINE
8
BLACK
6
CONTINUOUS
10
113.932
20
-124.825
11
115.789
21
-124.825
0
LINE
8
BLACK
6
CONTINUOUS
10
115.789
20
-124.825
11
114.789
21
-125.968
0
LINE
8
BLACK
6
CONTINUOUS
10
114.789
20
-125.968
11
115.218
21
-125.968
0
LINE
8
BLACK
6
CONTINUOUS
10
115.218
20
-125.968
11
115.503
21
-126.11
0
LINE
8
BLACK
6
CONTINUOUS
10
115.503
20
-126.11
11
115.646
21
-126.253
0
LINE
8
BLACK
6
CONTINUOUS
10
115.646
20
-126.253
11
115.789
21
-126.539
0
LINE
8
BLACK
6
CONTINUOUS
10
115.789
20
-126.539
11
115.789
21
-127.253
0
LINE
8
BLACK
6
CONTINUOUS
10
115.789
20
-127.253
11
115.646
21
-127.539
0
LINE
8
BLACK
6
CONTINUOUS
10
115.646
20
-127.539
11
115.503
21
-127.682
0
LINE
8
BLACK
6
CONTINUOUS
10
115.503
20
-127.682
11
115.218
21
-127.825
0
LINE
8
BLACK
6
CONTINUOUS
10
115.218
20
-127.825
11
114.361
21
-127.825
0
LINE
8
BLACK
6
CONTINUOUS
10
114.361
20
-127.825
11
114.075
21
-127.682
0
LINE
8
BLACK
6
CONTINUOUS
10
114.075
20
-127.682
11
113.932
21
-127.539
0
LINE
8
BLACK
6
CONTINUOUS
10
118.646
20
-127.825
11
116.932
21
-127.825
0
LINE
8
BLACK
6
CONTINUOUS
10
117.789
20
-127.825
11
117.789
21
-124.825
0
LINE
8
BLACK
6
CONTINUOUS
10
117.789
20
-124.825
11
117.503
21
-125.253
0
LINE
8
BLACK
6
CONTINUOUS
10
117.503
20
-125.253
11
117.218
21
-125.539
0
LINE
8
BLACK
6
CONTINUOUS
10
117.218
20
-125.539
11
116.932
21
-125.682
0
LINE
8
BLACK
6
CONTINUOUS
10
119.789
20
-124.825
11
119.789
21
-125.396
0
LINE
8
BLACK
6
CONTINUOUS
10
120.932
20
-124.825
11
120.932
21
-125.396
0
LINE
8
BLACK
6
CONTINUOUS
10
125.361
20
-128.968
11
125.218
21
-128.825
0
LINE
8
BLACK
6
CONTINUOUS
10
125.218
20
-128.825
11
124.932
21
-128.396
0
LINE
8
BLACK
6
CONTINUOUS
10
124.932
20
-128.396
11
124.789
21
-128.11
0
LINE
8
BLACK
6
CONTINUOUS
10
124.789
20
-128.11
11
124.646
21
-127.682
0
LINE
8
BLACK
6
CONTINUOUS
10
124.646
20
-127.682
11
124.503
21
-126.968
0
LINE
8
BLACK
6
CONTINUOUS
10
124.503
20
-126.968
11
124.503
21
-126.396
0
LINE
8
BLACK
6
CONTINUOUS
10
124.503
20
-126.396
11
124.646
21
-125.682
0
LINE
8
BLACK
6
CONTINUOUS
10
124.646
20
-125.682
11
124.789
21
-125.253
0
LINE
8
BLACK
6
CONTINUOUS
10
124.789
20
-125.253
11
124.932
21
-124.968
0
LINE
8
BLACK
6
CONTINUOUS
10
124.932
20
-124.968
11
125.218
21
-124.539
0
LINE
8
BLACK
6
CONTINUOUS
10
125.218
20
-124.539
11
125.361
21
-124.396
0
LINE
8
BLACK
6
CONTINUOUS
10
126.361
20
-125.11
11
126.503
21
-124.968
0
LINE
8
BLACK
6
CONTINUOUS
10
126.503
20
-124.968
11
126.789
21
-124.825
0
LINE
8
BLACK
6
CONTINUOUS
10
126.789
20
-124.825
11
127.503
21
-124.825
0
LINE
8
BLACK
6
CONTINUOUS
10
127.503
20
-124.825
11
127.789
21
-124.968
0
LINE
8
BLACK
6
CONTINUOUS
10
127.789
20
-124.968
11
127.932
21
-125.11
0
LINE
8
BLACK
6
CONTINUOUS
10
127.932
20
-125.11
11
128.075
21
-125.396
0
LINE
8
BLACK
6
CONTINUOUS
10
128.075
20
-125.396
11
128.075
21
-125.682
0
LINE
8
BLACK
6
CONTINUOUS
10
128.075
20
-125.682
11
127.932
21
-126.11
0
LINE
8
BLACK
6
CONTINUOUS
10
127.932
20
-126.11
11
126.218
21
-127.825
0
LINE
8
BLACK
6
CONTINUOUS
10
126.218
20
-127.825
11
128.075
21
-127.825
0
LINE
8
BLACK
6
CONTINUOUS
10
129.932
20
-124.825
11
130.218
21
-124.825
0
LINE
8
BLACK
6
CONTINUOUS
10
130.218
20
-124.825
11
130.503
21
-124.968
0
LINE
8
BLACK
6
CONTINUOUS
10
130.503
20
-124.968
11
130.646
21
-125.11
0
LINE
8
BLACK
6
CONTINUOUS
10
130.646
20
-125.11
11
130.789
21
-125.396
0
LINE
8
BLACK
6
CONTINUOUS
10
130.789
20
-125.396
11
130.932
21
-125.968
0
LINE
8
BLACK
6
CONTINUOUS
10
130.932
20
-125.968
11
130.932
21
-126.682
0
LINE
8
BLACK
6
CONTINUOUS
10
130.932
20
-126.682
11
130.789
21
-127.253
0
LINE
8
BLACK
6
CONTINUOUS
10
130.789
20
-127.253
11
130.646
21
-127.539
0
LINE
8
BLACK
6
CONTINUOUS
10
130.646
20
-127.539
11
130.503
21
-127.682
0
LINE
8
BLACK
6
CONTINUOUS
10
130.503
20
-127.682
11
130.218
21
-127.825
0
LINE
8
BLACK
6
CONTINUOUS
10
130.218
20
-127.825
11
129.932
21
-127.825
0
LINE
8
BLACK
6
CONTINUOUS
10
129.932
20
-127.825
11
129.646
21
-127.682
0
LINE
8
BLACK
6
CONTINUOUS
10
129.646
20
-127.682
11
129.503
21
-127.539
0
LINE
8
BLACK
6
CONTINUOUS
10
129.503
20
-127.539
11
129.361
21
-127.253
0
LINE
8
BLACK
6
CONTINUOUS
10
129.361
20
-127.253
11
129.218
21
-126.682
0
LINE
8
BLACK
6
CONTINUOUS
10
129.218
20
-126.682
11
129.218
21
-125.968
0
LINE
8
BLACK
6
CONTINUOUS
10
129.218
20
-125.968
11
129.361
21
-125.396
0
LINE
8
BLACK
6
CONTINUOUS
10
129.361
20
-125.396
11
129.503
21
-125.11
0
LINE
8
BLACK
6
CONTINUOUS
10
129.503
20
-125.11
11
129.646
21
-124.968
0
LINE
8
BLACK
6
CONTINUOUS
10
129.646
20
-124.968
11
129.932
21
-124.825
0
LINE
8
BLACK
6
CONTINUOUS
10
134.503
20
-127.825
11
134.503
21
-124.825
0
LINE
8
BLACK
6
CONTINUOUS
10
135.789
20
-127.825
11
135.789
21
-126.253
0
LINE
8
BLACK
6
CONTINUOUS
10
135.789
20
-126.253
11
135.646
21
-125.968
0
LINE
8
BLACK
6
CONTINUOUS
10
135.646
20
-125.968
11
135.361
21
-125.825
0
LINE
8
BLACK
6
CONTINUOUS
10
135.361
20
-125.825
11
134.932
21
-125.825
0
LINE
8
BLACK
6
CONTINUOUS
10
134.932
20
-125.825
11
134.646
21
-125.968
0
LINE
8
BLACK
6
CONTINUOUS
10
134.646
20
-125.968
11
134.503
21
-126.11
0
LINE
8
BLACK
6
CONTINUOUS
10
137.646
20
-127.825
11
137.361
21
-127.682
0
LINE
8
BLACK
6
CONTINUOUS
10
137.361
20
-127.682
11
137.218
21
-127.539
0
LINE
8
BLACK
6
CONTINUOUS
10
137.218
20
-127.539
11
137.075
21
-127.253
0
LINE
8
BLACK
6
CONTINUOUS
10
137.075
20
-127.253
11
137.075
21
-126.396
0
LINE
8
BLACK
6
CONTINUOUS
10
137.075
20
-126.396
11
137.218
21
-126.11
0
LINE
8
BLACK
6
CONTINUOUS
10
137.218
20
-126.11
11
137.361
21
-125.968
0
LINE
8
BLACK
6
CONTINUOUS
10
137.361
20
-125.968
11
137.646
21
-125.825
0
LINE
8
BLACK
6
CONTINUOUS
10
137.646
20
-125.825
11
138.075
21
-125.825
0
LINE
8
BLACK
6
CONTINUOUS
10
138.075
20
-125.825
11
138.361
21
-125.968
0
LINE
8
BLACK
6
CONTINUOUS
10
138.361
20
-125.968
11
138.503
21
-126.11
0
LINE
8
BLACK
6
CONTINUOUS
10
138.503
20
-126.11
11
138.646
21
-126.396
0
LINE
8
BLACK
6
CONTINUOUS
10
138.646
20
-126.396
11
138.646
21
-127.253
0
LINE
8
BLACK
6
CONTINUOUS
10
138.646
20
-127.253
11
138.503
21
-127.539
0
LINE
8
BLACK
6
CONTINUOUS
10
138.503
20
-127.539
11
138.361
21
-127.682
0
LINE
8
BLACK
6
CONTINUOUS
10
138.361
20
-127.682
11
138.075
21
-127.825
0
LINE
8
BLACK
6
CONTINUOUS
10
138.075
20
-127.825
11
137.646
21
-127.825
0
LINE
8
BLACK
6
CONTINUOUS
10
140.361
20
-127.825
11
140.075
21
-127.682
0
LINE
8
BLACK
6
CONTINUOUS
10
140.075
20
-127.682
11
139.932
21
-127.396
0
LINE
8
BLACK
6
CONTINUOUS
10
139.932
20
-127.396
11
139.932
21
-124.825
0
LINE
8
BLACK
6
CONTINUOUS
10
142.646
20
-127.682
11
142.361
21
-127.825
0
LINE
8
BLACK
6
CONTINUOUS
10
142.361
20
-127.825
11
141.789
21
-127.825
0
LINE
8
BLACK
6
CONTINUOUS
10
141.789
20
-127.825
11
141.503
21
-127.682
0
LINE
8
BLACK
6
CONTINUOUS
10
141.503
20
-127.682
11
141.361
21
-127.396
0
LINE
8
BLACK
6
CONTINUOUS
10
141.361
20
-127.396
11
141.361
21
-126.253
0
LINE
8
BLACK
6
CONTINUOUS
10
141.361
20
-126.253
11
141.503
21
-125.968
0
LINE
8
BLACK
6
CONTINUOUS
10
141.503
20
-125.968
11
141.789
21
-125.825
0
LINE
8
BLACK
6
CONTINUOUS
10
141.789
20
-125.825
11
142.361
21
-125.825
0
LINE
8
BLACK
6
CONTINUOUS
10
142.361
20
-125.825
11
142.646
21
-125.968
0
LINE
8
BLACK
6
CONTINUOUS
10
142.646
20
-125.968
11
142.789
21
-126.253
0
LINE
8
BLACK
6
CONTINUOUS
10
142.789
20
-126.253
11
142.789
21
-126.539
0
LINE
8
BLACK
6
CONTINUOUS
10
142.789
20
-126.539
11
141.361
21
-126.825
0
LINE
8
BLACK
6
CONTINUOUS
10
143.932
20
-127.682
11
144.218
21
-127.825
0
LINE
8
BLACK
6
CONTINUOUS
10
144.218
20
-127.825
11
144.789
21
-127.825
0
LINE
8
BLACK
6
CONTINUOUS
10
144.789
20
-127.825
11
145.075
21
-127.682
0
LINE
8
BLACK
6
CONTINUOUS
10
145.075
20
-127.682
11
145.218
21
-127.396
0
LINE
8
BLACK
6
CONTINUOUS
10
145.218
20
-127.396
11
145.218
21
-127.253
0
LINE
8
BLACK
6
CONTINUOUS
10
145.218
20
-127.253
11
145.075
21
-126.968
0
LINE
8
BLACK
6
CONTINUOUS
10
145.075
20
-126.968
11
144.789
21
-126.825
0
LINE
8
BLACK
6
CONTINUOUS
10
144.789
20
-126.825
11
144.361
21
-126.825
0
LINE
8
BLACK
6
CONTINUOUS
10
144.361
20
-126.825
11
144.075
21
-126.682
0
LINE
8
BLACK
6
CONTINUOUS
10
144.075
20
-126.682
11
143.932
21
-126.396
0
LINE
8
BLACK
6
CONTINUOUS
10
143.932
20
-126.396
11
143.932
21
-126.253
0
LINE
8
BLACK
6
CONTINUOUS
10
143.932
20
-126.253
11
144.075
21
-125.968
0
LINE
8
BLACK
6
CONTINUOUS
10
144.075
20
-125.968
11
144.361
21
-125.825
0
LINE
8
BLACK
6
CONTINUOUS
10
144.361
20
-125.825
11
144.789
21
-125.825
0
LINE
8
BLACK
6
CONTINUOUS
10
144.789
20
-125.825
11
145.075
21
-125.968
0
LINE
8
BLACK
6
CONTINUOUS
10
146.218
20
-128.968
11
146.361
21
-128.825
0
LINE
8
BLACK
6
CONTINUOUS
10
146.361
20
-128.825
11
146.646
21
-128.396
0
LINE
8
BLACK
6
CONTINUOUS
10
146.646
20
-128.396
11
146.789
21
-128.11
0
LINE
8
BLACK
6
CONTINUOUS
10
146.789
20
-128.11
11
146.932
21
-127.682
0
LINE
8
BLACK
6
CONTINUOUS
10
146.932
20
-127.682
11
147.075
21
-126.968
0
LINE
8
BLACK
6
CONTINUOUS
10
147.075
20
-126.968
11
147.075
21
-126.396
0
LINE
8
BLACK
6
CONTINUOUS
10
147.075
20
-126.396
11
146.932
21
-125.682
0
LINE
8
BLACK
6
CONTINUOUS
10
146.932
20
-125.682
11
146.789
21
-125.253
0
LINE
8
BLACK
6
CONTINUOUS
10
146.789
20
-125.253
11
146.646
21
-124.968
0
LINE
8
BLACK
6
CONTINUOUS
10
146.646
20
-124.968
11
146.361
21
-124.539
0
LINE
8
BLACK
6
CONTINUOUS
10
146.361
20
-124.539
11
146.218
21
-124.396
0
CIRCLE
8
BLACK
10
77.9964
20
-130.428
40
0.5
0
LINE
8
BLACK
6
CONTINUOUS
10
82.9321
20
-131.785
11
81.2178
21
-131.785
0
LINE
8
BLACK
6
CONTINUOUS
10
82.0749
20
-131.785
11
82.0749
21
-128.785
0
LINE
8
BLACK
6
CONTINUOUS
10
82.0749
20
-128.785
11
81.7892
21
-129.213
0
LINE
8
BLACK
6
CONTINUOUS
10
81.7892
20
-129.213
11
81.5035
21
-129.499
0
LINE
8
BLACK
6
CONTINUOUS
10
81.5035
20
-129.499
11
81.2178
21
-129.642
0
LINE
8
BLACK
6
CONTINUOUS
10
84.2178
20
-131.499
11
84.3606
21
-131.642
0
LINE
8
BLACK
6
CONTINUOUS
10
84.3606
20
-131.642
11
84.2178
21
-131.785
0
LINE
8
BLACK
6
CONTINUOUS
10
84.2178
20
-131.785
11
84.0749
21
-131.642
0
LINE
8
BLACK
6
CONTINUOUS
10
84.0749
20
-131.642
11
84.2178
21
-131.499
0
LINE
8
BLACK
6
CONTINUOUS
10
84.2178
20
-131.499
11
84.2178
21
-131.785
0
LINE
8
BLACK
6
CONTINUOUS
10
86.2178
20
-128.785
11
86.5035
21
-128.785
0
LINE
8
BLACK
6
CONTINUOUS
10
86.5035
20
-128.785
11
86.7892
21
-128.928
0
LINE
8
BLACK
6
CONTINUOUS
10
86.7892
20
-128.928
11
86.9321
21
-129.07
0
LINE
8
BLACK
6
CONTINUOUS
10
86.9321
20
-129.07
11
87.0749
21
-129.356
0
LINE
8
BLACK
6
CONTINUOUS
10
87.0749
20
-129.356
11
87.2178
21
-129.928
0
LINE
8
BLACK
6
CONTINUOUS
10
87.2178
20
-129.928
11
87.2178
21
-130.642
0
LINE
8
BLACK
6
CONTINUOUS
10
87.2178
20
-130.642
11
87.0749
21
-131.213
0
LINE
8
BLACK
6
CONTINUOUS
10
87.0749
20
-131.213
11
86.9321
21
-131.499
0
LINE
8
BLACK
6
CONTINUOUS
10
86.9321
20
-131.499
11
86.7892
21
-131.642
0
LINE
8
BLACK
6
CONTINUOUS
10
86.7892
20
-131.642
11
86.5035
21
-131.785
0
LINE
8
BLACK
6
CONTINUOUS
10
86.5035
20
-131.785
11
86.2178
21
-131.785
0
LINE
8
BLACK
6
CONTINUOUS
10
86.2178
20
-131.785
11
85.9321
21
-131.642
0
LINE
8
BLACK
6
CONTINUOUS
10
85.9321
20
-131.642
11
85.7892
21
-131.499
0
LINE
8
BLACK
6
CONTINUOUS
10
85.7892
20
-131.499
11
85.6464
21
-131.213
0
LINE
8
BLACK
6
CONTINUOUS
10
85.6464
20
-131.213
11
85.5035
21
-130.642
0
LINE
8
BLACK
6
CONTINUOUS
10
85.5035
20
-130.642
11
85.5035
21
-129.928
0
LINE
8
BLACK
6
CONTINUOUS
10
85.5035
20
-129.928
11
85.6464
21
-129.356
0
LINE
8
BLACK
6
CONTINUOUS
10
85.6464
20
-129.356
11
85.7892
21
-129.07
0
LINE
8
BLACK
6
CONTINUOUS
10
85.7892
20
-129.07
11
85.9321
21
-128.928
0
LINE
8
BLACK
6
CONTINUOUS
10
85.9321
20
-128.928
11
86.2178
21
-128.785
0
LINE
8
BLACK
6
CONTINUOUS
10
89.0749
20
-128.785
11
89.3606
21
-128.785
0
LINE
8
BLACK
6
CONTINUOUS
10
89.3606
20
-128.785
11
89.6464
21
-128.928
0
LINE
8
BLACK
6
CONTINUOUS
10
89.6464
20
-128.928
11
89.7892
21
-129.07
0
LINE
8
BLACK
6
CONTINUOUS
10
89.7892
20
-129.07
11
89.9321
21
-129.356
0
LINE
8
BLACK
6
CONTINUOUS
10
89.9321
20
-129.356
11
90.0749
21
-129.928
0
LINE
8
BLACK
6
CONTINUOUS
10
90.0749
20
-129.928
11
90.0749
21
-130.642
0
LINE
8
BLACK
6
CONTINUOUS
10
90.0749
20
-130.642
11
89.9321
21
-131.213
0
LINE
8
BLACK
6
CONTINUOUS
10
89.9321
20
-131.213
11
89.7892
21
-131.499
0
LINE
8
BLACK
6
CONTINUOUS
10
89.7892
20
-131.499
11
89.6464
21
-131.642
0
LINE
8
BLACK
6
CONTINUOUS
10
89.6464
20
-131.642
11
89.3606
21
-131.785
0
LINE
8
BLACK
6
CONTINUOUS
10
89.3606
20
-131.785
11
89.0749
21
-131.785
0
LINE
8
BLACK
6
CONTINUOUS
10
89.0749
20
-131.785
11
88.7892
21
-131.642
0
LINE
8
BLACK
6
CONTINUOUS
10
88.7892
20
-131.642
11
88.6464
21
-131.499
0
LINE
8
BLACK
6
CONTINUOUS
10
88.6464
20
-131.499
11
88.5035
21
-131.213
0
LINE
8
BLACK
6
CONTINUOUS
10
88.5035
20
-131.213
11
88.3606
21
-130.642
0
LINE
8
BLACK
6
CONTINUOUS
10
88.3606
20
-130.642
11
88.3606
21
-129.928
0
LINE
8
BLACK
6
CONTINUOUS
10
88.3606
20
-129.928
11
88.5035
21
-129.356
0
LINE
8
BLACK
6
CONTINUOUS
10
88.5035
20
-129.356
11
88.6464
21
-129.07
0
LINE
8
BLACK
6
CONTINUOUS
10
88.6464
20
-129.07
11
88.7892
21
-128.928
0
LINE
8
BLACK
6
CONTINUOUS
10
88.7892
20
-128.928
11
89.0749
21
-128.785
0
LINE
8
BLACK
6
CONTINUOUS
10
91.3606
20
-131.785
11
91.3606
21
-129.785
0
LINE
8
BLACK
6
CONTINUOUS
10
91.3606
20
-130.07
11
91.5035
21
-129.928
0
LINE
8
BLACK
6
CONTINUOUS
10
91.5035
20
-129.928
11
91.7892
21
-129.785
0
LINE
8
BLACK
6
CONTINUOUS
10
91.7892
20
-129.785
11
92.2178
21
-129.785
0
LINE
8
BLACK
6
CONTINUOUS
10
92.2178
20
-129.785
11
92.5035
21
-129.928
0
LINE
8
BLACK
6
CONTINUOUS
10
92.5035
20
-129.928
11
92.6464
21
-130.213
0
LINE
8
BLACK
6
CONTINUOUS
10
92.6464
20
-130.213
11
92.6464
21
-131.785
0
LINE
8
BLACK
6
CONTINUOUS
10
92.6464
20
-130.213
11
92.7892
21
-129.928
0
LINE
8
BLACK
6
CONTINUOUS
10
92.7892
20
-129.928
11
93.0749
21
-129.785
0
LINE
8
BLACK
6
CONTINUOUS
10
93.0749
20
-129.785
11
93.5035
21
-129.785
0
LINE
8
BLACK
6
CONTINUOUS
10
93.5035
20
-129.785
11
93.7892
21
-129.928
0
LINE
8
BLACK
6
CONTINUOUS
10
93.7892
20
-129.928
11
93.9321
21
-130.213
0
LINE
8
BLACK
6
CONTINUOUS
10
93.9321
20
-130.213
11
93.9321
21
-131.785
0
LINE
8
BLACK
6
CONTINUOUS
10
95.3606
20
-131.785
11
95.3606
21
-129.785
0
LINE
8
BLACK
6
CONTINUOUS
10
95.3606
20
-130.07
11
95.5035
21
-129.928
0
LINE
8
BLACK
6
CONTINUOUS
10
95.5035
20
-129.928
11
95.7892
21
-129.785
0
LINE
8
BLACK
6
CONTINUOUS
10
95.7892
20
-129.785
11
96.2178
21
-129.785
0
LINE
8
BLACK
6
CONTINUOUS
10
96.2178
20
-129.785
11
96.5035
21
-129.928
0
LINE
8
BLACK
6
CONTINUOUS
10
96.5035
20
-129.928
11
96.6464
21
-130.213
0
LINE
8
BLACK
6
CONTINUOUS
10
96.6464
20
-130.213
11
96.6464
21
-131.785
0
LINE
8
BLACK
6
CONTINUOUS
10
96.6464
20
-130.213
11
96.7892
21
-129.928
0
LINE
8
BLACK
6
CONTINUOUS
10
96.7892
20
-129.928
11
97.0749
21
-129.785
0
LINE
8
BLACK
6
CONTINUOUS
10
97.0749
20
-129.785
11
97.5035
21
-129.785
0
LINE
8
BLACK
6
CONTINUOUS
10
97.5035
20
-129.785
11
97.7892
21
-129.928
0
LINE
8
BLACK
6
CONTINUOUS
10
97.7892
20
-129.928
11
97.9321
21
-130.213
0
LINE
8
BLACK
6
CONTINUOUS
10
97.9321
20
-130.213
11
97.9321
21
-131.785
0
LINE
8
BLACK
6
CONTINUOUS
10
103.789
20
-128.642
11
101.218
21
-132.499
0
LINE
8
BLACK
6
CONTINUOUS
10
107.646
20
-128.785
11
107.932
21
-128.785
0
LINE
8
BLACK
6
CONTINUOUS
10
107.932
20
-128.785
11
108.218
21
-128.928
0
LINE
8
BLACK
6
CONTINUOUS
10
108.218
20
-128.928
11
108.361
21
-129.07
0
LINE
8
BLACK
6
CONTINUOUS
10
108.361
20
-129.07
11
108.503
21
-129.356
0
LINE
8
BLACK
6
CONTINUOUS
10
108.503
20
-129.356
11
108.646
21
-129.928
0
LINE
8
BLACK
6
CONTINUOUS
10
108.646
20
-129.928
11
108.646
21
-130.642
0
LINE
8
BLACK
6
CONTINUOUS
10
108.646
20
-130.642
11
108.503
21
-131.213
0
LINE
8
BLACK
6
CONTINUOUS
10
108.503
20
-131.213
11
108.361
21
-131.499
0
LINE
8
BLACK
6
CONTINUOUS
10
108.361
20
-131.499
11
108.218
21
-131.642
0
LINE
8
BLACK
6
CONTINUOUS
10
108.218
20
-131.642
11
107.932
21
-131.785
0
LINE
8
BLACK
6
CONTINUOUS
10
107.932
20
-131.785
11
107.646
21
-131.785
0
LINE
8
BLACK
6
CONTINUOUS
10
107.646
20
-131.785
11
107.361
21
-131.642
0
LINE
8
BLACK
6
CONTINUOUS
10
107.361
20
-131.642
11
107.218
21
-131.499
0
LINE
8
BLACK
6
CONTINUOUS
10
107.218
20
-131.499
11
107.075
21
-131.213
0
LINE
8
BLACK
6
CONTINUOUS
10
107.075
20
-131.213
11
106.932
21
-130.642
0
LINE
8
BLACK
6
CONTINUOUS
10
106.932
20
-130.642
11
106.932
21
-129.928
0
LINE
8
BLACK
6
CONTINUOUS
10
106.932
20
-129.928
11
107.075
21
-129.356
0
LINE
8
BLACK
6
CONTINUOUS
10
107.075
20
-129.356
11
107.218
21
-129.07
0
LINE
8
BLACK
6
CONTINUOUS
10
107.218
20
-129.07
11
107.361
21
-128.928
0
LINE
8
BLACK
6
CONTINUOUS
10
107.361
20
-128.928
11
107.646
21
-128.785
0
LINE
8
BLACK
6
CONTINUOUS
10
109.932
20
-131.499
11
110.075
21
-131.642
0
LINE
8
BLACK
6
CONTINUOUS
10
110.075
20
-131.642
11
109.932
21
-131.785
0
LINE
8
BLACK
6
CONTINUOUS
10
109.932
20
-131.785
11
109.789
21
-131.642
0
LINE
8
BLACK
6
CONTINUOUS
10
109.789
20
-131.642
11
109.932
21
-131.499
0
LINE
8
BLACK
6
CONTINUOUS
10
109.932
20
-131.499
11
109.932
21
-131.785
0
LINE
8
BLACK
6
CONTINUOUS
10
111.932
20
-128.785
11
112.218
21
-128.785
0
LINE
8
BLACK
6
CONTINUOUS
10
112.218
20
-128.785
11
112.503
21
-128.928
0
LINE
8
BLACK
6
CONTINUOUS
10
112.503
20
-128.928
11
112.646
21
-129.07
0
LINE
8
BLACK
6
CONTINUOUS
10
112.646
20
-129.07
11
112.789
21
-129.356
0
LINE
8
BLACK
6
CONTINUOUS
10
112.789
20
-129.356
11
112.932
21
-129.928
0
LINE
8
BLACK
6
CONTINUOUS
10
112.932
20
-129.928
11
112.932
21
-130.642
0
LINE
8
BLACK
6
CONTINUOUS
10
112.932
20
-130.642
11
112.789
21
-131.213
0
LINE
8
BLACK
6
CONTINUOUS
10
112.789
20
-131.213
11
112.646
21
-131.499
0
LINE
8
BLACK
6
CONTINUOUS
10
112.646
20
-131.499
11
112.503
21
-131.642
0
LINE
8
BLACK
6
CONTINUOUS
10
112.503
20
-131.642
11
112.218
21
-131.785
0
LINE
8
BLACK
6
CONTINUOUS
10
112.218
20
-131.785
11
111.932
21
-131.785
0
LINE
8
BLACK
6
CONTINUOUS
10
111.932
20
-131.785
11
111.646
21
-131.642
0
LINE
8
BLACK
6
CONTINUOUS
10
111.646
20
-131.642
11
111.503
21
-131.499
0
LINE
8
BLACK
6
CONTINUOUS
10
111.503
20
-131.499
11
111.361
21
-131.213
0
LINE
8
BLACK
6
CONTINUOUS
10
111.361
20
-131.213
11
111.218
21
-130.642
0
LINE
8
BLACK
6
CONTINUOUS
10
111.218
20
-130.642
11
111.218
21
-129.928
0
LINE
8
BLACK
6
CONTINUOUS
10
111.218
20
-129.928
11
111.361
21
-129.356
0
LINE
8
BLACK
6
CONTINUOUS
10
111.361
20
-129.356
11
111.503
21
-129.07
0
LINE
8
BLACK
6
CONTINUOUS
10
111.503
20
-129.07
11
111.646
21
-128.928
0
LINE
8
BLACK
6
CONTINUOUS
10
111.646
20
-128.928
11
111.932
21
-128.785
0
LINE
8
BLACK
6
CONTINUOUS
10
113.932
20
-128.785
11
115.789
21
-128.785
0
LINE
8
BLACK
6
CONTINUOUS
10
115.789
20
-128.785
11
114.789
21
-129.928
0
LINE
8
BLACK
6
CONTINUOUS
10
114.789
20
-129.928
11
115.218
21
-129.928
0
LINE
8
BLACK
6
CONTINUOUS
10
115.218
20
-129.928
11
115.503
21
-130.07
0
LINE
8
BLACK
6
CONTINUOUS
10
115.503
20
-130.07
11
115.646
21
-130.213
0
LINE
8
BLACK
6
CONTINUOUS
10
115.646
20
-130.213
11
115.789
21
-130.499
0
LINE
8
BLACK
6
CONTINUOUS
10
115.789
20
-130.499
11
115.789
21
-131.213
0
LINE
8
BLACK
6
CONTINUOUS
10
115.789
20
-131.213
11
115.646
21
-131.499
0
LINE
8
BLACK
6
CONTINUOUS
10
115.646
20
-131.499
11
115.503
21
-131.642
0
LINE
8
BLACK
6
CONTINUOUS
10
115.503
20
-131.642
11
115.218
21
-131.785
0
LINE
8
BLACK
6
CONTINUOUS
10
115.218
20
-131.785
11
114.361
21
-131.785
0
LINE
8
BLACK
6
CONTINUOUS
10
114.361
20
-131.785
11
114.075
21
-131.642
0
LINE
8
BLACK
6
CONTINUOUS
10
114.075
20
-131.642
11
113.932
21
-131.499
0
LINE
8
BLACK
6
CONTINUOUS
10
117.218
20
-131.785
11
117.789
21
-131.785
0
LINE
8
BLACK
6
CONTINUOUS
10
117.789
20
-131.785
11
118.075
21
-131.642
0
LINE
8
BLACK
6
CONTINUOUS
10
118.075
20
-131.642
11
118.218
21
-131.499
0
LINE
8
BLACK
6
CONTINUOUS
10
118.218
20
-131.499
11
118.503
21
-131.07
0
LINE
8
BLACK
6
CONTINUOUS
10
118.503
20
-131.07
11
118.646
21
-130.499
0
LINE
8
BLACK
6
CONTINUOUS
10
118.646
20
-130.499
11
118.646
21
-129.356
0
LINE
8
BLACK
6
CONTINUOUS
10
118.646
20
-129.356
11
118.503
21
-129.07
0
LINE
8
BLACK
6
CONTINUOUS
10
118.503
20
-129.07
11
118.361
21
-128.928
0
LINE
8
BLACK
6
CONTINUOUS
10
118.361
20
-128.928
11
118.075
21
-128.785
0
LINE
8
BLACK
6
CONTINUOUS
10
118.075
20
-128.785
11
117.503
21
-128.785
0
LINE
8
BLACK
6
CONTINUOUS
10
117.503
20
-128.785
11
117.218
21
-128.928
0
LINE
8
BLACK
6
CONTINUOUS
10
117.218
20
-128.928
11
117.075
21
-129.07
0
LINE
8
BLACK
6
CONTINUOUS
10
117.075
20
-129.07
11
116.932
21
-129.356
0
LINE
8
BLACK
6
CONTINUOUS
10
116.932
20
-129.356
11
116.932
21
-130.07
0
LINE
8
BLACK
6
CONTINUOUS
10
116.932
20
-130.07
11
117.075
21
-130.356
0
LINE
8
BLACK
6
CONTINUOUS
10
117.075
20
-130.356
11
117.218
21
-130.499
0
LINE
8
BLACK
6
CONTINUOUS
10
117.218
20
-130.499
11
117.503
21
-130.642
0
LINE
8
BLACK
6
CONTINUOUS
10
117.503
20
-130.642
11
118.075
21
-130.642
0
LINE
8
BLACK
6
CONTINUOUS
10
118.075
20
-130.642
11
118.361
21
-130.499
0
LINE
8
BLACK
6
CONTINUOUS
10
118.361
20
-130.499
11
118.503
21
-130.356
0
LINE
8
BLACK
6
CONTINUOUS
10
118.503
20
-130.356
11
118.646
21
-130.07
0
LINE
8
BLACK
6
CONTINUOUS
10
119.789
20
-128.785
11
119.789
21
-129.356
0
LINE
8
BLACK
6
CONTINUOUS
10
120.932
20
-128.785
11
120.932
21
-129.356
0
LINE
8
BLACK
6
CONTINUOUS
10
125.361
20
-132.928
11
125.218
21
-132.785
0
LINE
8
BLACK
6
CONTINUOUS
10
125.218
20
-132.785
11
124.932
21
-132.356
0
LINE
8
BLACK
6
CONTINUOUS
10
124.932
20
-132.356
11
124.789
21
-132.07
0
LINE
8
BLACK
6
CONTINUOUS
10
124.789
20
-132.07
11
124.646
21
-131.642
0
LINE
8
BLACK
6
CONTINUOUS
10
124.646
20
-131.642
11
124.503
21
-130.928
0
LINE
8
BLACK
6
CONTINUOUS
10
124.503
20
-130.928
11
124.503
21
-130.356
0
LINE
8
BLACK
6
CONTINUOUS
10
124.503
20
-130.356
11
124.646
21
-129.642
0
LINE
8
BLACK
6
CONTINUOUS
10
124.646
20
-129.642
11
124.789
21
-129.213
0
LINE
8
BLACK
6
CONTINUOUS
10
124.789
20
-129.213
11
124.932
21
-128.928
0
LINE
8
BLACK
6
CONTINUOUS
10
124.932
20
-128.928
11
125.218
21
-128.499
0
LINE
8
BLACK
6
CONTINUOUS
10
125.218
20
-128.499
11
125.361
21
-128.356
0
LINE
8
BLACK
6
CONTINUOUS
10
127.789
20
-129.785
11
127.789
21
-131.785
0
LINE
8
BLACK
6
CONTINUOUS
10
127.075
20
-128.642
11
126.361
21
-130.785
0
LINE
8
BLACK
6
CONTINUOUS
10
126.361
20
-130.785
11
128.218
21
-130.785
0
LINE
8
BLACK
6
CONTINUOUS
10
129.932
20
-128.785
11
130.218
21
-128.785
0
LINE
8
BLACK
6
CONTINUOUS
10
130.218
20
-128.785
11
130.503
21
-128.928
0
LINE
8
BLACK
6
CONTINUOUS
10
130.503
20
-128.928
11
130.646
21
-129.07
0
LINE
8
BLACK
6
CONTINUOUS
10
130.646
20
-129.07
11
130.789
21
-129.356
0
LINE
8
BLACK
6
CONTINUOUS
10
130.789
20
-129.356
11
130.932
21
-129.928
0
LINE
8
BLACK
6
CONTINUOUS
10
130.932
20
-129.928
11
130.932
21
-130.642
0
LINE
8
BLACK
6
CONTINUOUS
10
130.932
20
-130.642
11
130.789
21
-131.213
0
LINE
8
BLACK
6
CONTINUOUS
10
130.789
20
-131.213
11
130.646
21
-131.499
0
LINE
8
BLACK
6
CONTINUOUS
10
130.646
20
-131.499
11
130.503
21
-131.642
0
LINE
8
BLACK
6
CONTINUOUS
10
130.503
20
-131.642
11
130.218
21
-131.785
0
LINE
8
BLACK
6
CONTINUOUS
10
130.218
20
-131.785
11
129.932
21
-131.785
0
LINE
8
BLACK
6
CONTINUOUS
10
129.932
20
-131.785
11
129.646
21
-131.642
0
LINE
8
BLACK
6
CONTINUOUS
10
129.646
20
-131.642
11
129.503
21
-131.499
0
LINE
8
BLACK
6
CONTINUOUS
10
129.503
20
-131.499
11
129.361
21
-131.213
0
LINE
8
BLACK
6
CONTINUOUS
10
129.361
20
-131.213
11
129.218
21
-130.642
0
LINE
8
BLACK
6
CONTINUOUS
10
129.218
20
-130.642
11
129.218
21
-129.928
0
LINE
8
BLACK
6
CONTINUOUS
10
129.218
20
-129.928
11
129.361
21
-129.356
0
LINE
8
BLACK
6
CONTINUOUS
10
129.361
20
-129.356
11
129.503
21
-129.07
0
LINE
8
BLACK
6
CONTINUOUS
10
129.503
20
-129.07
11
129.646
21
-128.928
0
LINE
8
BLACK
6
CONTINUOUS
10
129.646
20
-128.928
11
129.932
21
-128.785
0
LINE
8
BLACK
6
CONTINUOUS
10
134.503
20
-131.785
11
134.503
21
-128.785
0
LINE
8
BLACK
6
CONTINUOUS
10
135.789
20
-131.785
11
135.789
21
-130.213
0
LINE
8
BLACK
6
CONTINUOUS
10
135.789
20
-130.213
11
135.646
21
-129.928
0
LINE
8
BLACK
6
CONTINUOUS
10
135.646
20
-129.928
11
135.361
21
-129.785
0
LINE
8
BLACK
6
CONTINUOUS
10
135.361
20
-129.785
11
134.932
21
-129.785
0
LINE
8
BLACK
6
CONTINUOUS
10
134.932
20
-129.785
11
134.646
21
-129.928
0
LINE
8
BLACK
6
CONTINUOUS
10
134.646
20
-129.928
11
134.503
21
-130.07
0
LINE
8
BLACK
6
CONTINUOUS
10
137.646
20
-131.785
11
137.361
21
-131.642
0
LINE
8
BLACK
6
CONTINUOUS
10
137.361
20
-131.642
11
137.218
21
-131.499
0
LINE
8
BLACK
6
CONTINUOUS
10
137.218
20
-131.499
11
137.075
21
-131.213
0
LINE
8
BLACK
6
CONTINUOUS
10
137.075
20
-131.213
11
137.075
21
-130.356
0
LINE
8
BLACK
6
CONTINUOUS
10
137.075
20
-130.356
11
137.218
21
-130.07
0
LINE
8
BLACK
6
CONTINUOUS
10
137.218
20
-130.07
11
137.361
21
-129.928
0
LINE
8
BLACK
6
CONTINUOUS
10
137.361
20
-129.928
11
137.646
21
-129.785
0
LINE
8
BLACK
6
CONTINUOUS
10
137.646
20
-129.785
11
138.075
21
-129.785
0
LINE
8
BLACK
6
CONTINUOUS
10
138.075
20
-129.785
11
138.361
21
-129.928
0
LINE
8
BLACK
6
CONTINUOUS
10
138.361
20
-129.928
11
138.503
21
-130.07
0
LINE
8
BLACK
6
CONTINUOUS
10
138.503
20
-130.07
11
138.646
21
-130.356
0
LINE
8
BLACK
6
CONTINUOUS
10
138.646
20
-130.356
11
138.646
21
-131.213
0
LINE
8
BLACK
6
CONTINUOUS
10
138.646
20
-131.213
11
138.503
21
-131.499
0
LINE
8
BLACK
6
CONTINUOUS
10
138.503
20
-131.499
11
138.361
21
-131.642
0
LINE
8
BLACK
6
CONTINUOUS
10
138.361
20
-131.642
11
138.075
21
-131.785
0
LINE
8
BLACK
6
CONTINUOUS
10
138.075
20
-131.785
11
137.646
21
-131.785
0
LINE
8
BLACK
6
CONTINUOUS
10
140.361
20
-131.785
11
140.075
21
-131.642
0
LINE
8
BLACK
6
CONTINUOUS
10
140.075
20
-131.642
11
139.932
21
-131.356
0
LINE
8
BLACK
6
CONTINUOUS
10
139.932
20
-131.356
11
139.932
21
-128.785
0
LINE
8
BLACK
6
CONTINUOUS
10
142.646
20
-131.642
11
142.361
21
-131.785
0
LINE
8
BLACK
6
CONTINUOUS
10
142.361
20
-131.785
11
141.789
21
-131.785
0
LINE
8
BLACK
6
CONTINUOUS
10
141.789
20
-131.785
11
141.503
21
-131.642
0
LINE
8
BLACK
6
CONTINUOUS
10
141.503
20
-131.642
11
141.361
21
-131.356
0
LINE
8
BLACK
6
CONTINUOUS
10
141.361
20
-131.356
11
141.361
21
-130.213
0
LINE
8
BLACK
6
CONTINUOUS
10
141.361
20
-130.213
11
141.503
21
-129.928
0
LINE
8
BLACK
6
CONTINUOUS
10
141.503
20
-129.928
11
141.789
21
-129.785
0
LINE
8
BLACK
6
CONTINUOUS
10
141.789
20
-129.785
11
142.361
21
-129.785
0
LINE
8
BLACK
6
CONTINUOUS
10
142.361
20
-129.785
11
142.646
21
-129.928
0
LINE
8
BLACK
6
CONTINUOUS
10
142.646
20
-129.928
11
142.789
21
-130.213
0
LINE
8
BLACK
6
CONTINUOUS
10
142.789
20
-130.213
11
142.789
21
-130.499
0
LINE
8
BLACK
6
CONTINUOUS
10
142.789
20
-130.499
11
141.361
21
-130.785
0
LINE
8
BLACK
6
CONTINUOUS
10
143.932
20
-131.642
11
144.218
21
-131.785
0
LINE
8
BLACK
6
CONTINUOUS
10
144.218
20
-131.785
11
144.789
21
-131.785
0
LINE
8
BLACK
6
CONTINUOUS
10
144.789
20
-131.785
11
145.075
21
-131.642
0
LINE
8
BLACK
6
CONTINUOUS
10
145.075
20
-131.642
11
145.218
21
-131.356
0
LINE
8
BLACK
6
CONTINUOUS
10
145.218
20
-131.356
11
145.218
21
-131.213
0
LINE
8
BLACK
6
CONTINUOUS
10
145.218
20
-131.213
11
145.075
21
-130.928
0
LINE
8
BLACK
6
CONTINUOUS
10
145.075
20
-130.928
11
144.789
21
-130.785
0
LINE
8
BLACK
6
CONTINUOUS
10
144.789
20
-130.785
11
144.361
21
-130.785
0
LINE
8
BLACK
6
CONTINUOUS
10
144.361
20
-130.785
11
144.075
21
-130.642
0
LINE
8
BLACK
6
CONTINUOUS
10
144.075
20
-130.642
11
143.932
21
-130.356
0
LINE
8
BLACK
6
CONTINUOUS
10
143.932
20
-130.356
11
143.932
21
-130.213
0
LINE
8
BLACK
6
CONTINUOUS
10
143.932
20
-130.213
11
144.075
21
-129.928
0
LINE
8
BLACK
6
CONTINUOUS
10
144.075
20
-129.928
11
144.361
21
-129.785
0
LINE
8
BLACK
6
CONTINUOUS
10
144.361
20
-129.785
11
144.789
21
-129.785
0
LINE
8
BLACK
6
CONTINUOUS
10
144.789
20
-129.785
11
145.075
21
-129.928
0
LINE
8
BLACK
6
CONTINUOUS
10
146.218
20
-132.928
11
146.361
21
-132.785
0
LINE
8
BLACK
6
CONTINUOUS
10
146.361
20
-132.785
11
146.646
21
-132.356
0
LINE
8
BLACK
6
CONTINUOUS
10
146.646
20
-132.356
11
146.789
21
-132.07
0
LINE
8
BLACK
6
CONTINUOUS
10
146.789
20
-132.07
11
146.932
21
-131.642
0
LINE
8
BLACK
6
CONTINUOUS
10
146.932
20
-131.642
11
147.075
21
-130.928
0
LINE
8
BLACK
6
CONTINUOUS
10
147.075
20
-130.928
11
147.075
21
-130.356
0
LINE
8
BLACK
6
CONTINUOUS
10
147.075
20
-130.356
11
146.932
21
-129.642
0
LINE
8
BLACK
6
CONTINUOUS
10
146.932
20
-129.642
11
146.789
21
-129.213
0
LINE
8
BLACK
6
CONTINUOUS
10
146.789
20
-129.213
11
146.646
21
-128.928
0
LINE
8
BLACK
6
CONTINUOUS
10
146.646
20
-128.928
11
146.361
21
-128.499
0
LINE
8
BLACK
6
CONTINUOUS
10
146.361
20
-128.499
11
146.218
21
-128.356
0
LINE
8
BLACK
6
CONTINUOUS
10
77.8964
20
-133.788
11
77.8964
21
-134.988
0
LINE
8
BLACK
6
CONTINUOUS
10
77.2964
20
-134.388
11
78.4964
21
-134.388
0
LINE
8
BLACK
6
CONTINUOUS
10
82.9321
20
-135.745
11
81.2178
21
-135.745
0
LINE
8
BLACK
6
CONTINUOUS
10
82.0749
20
-135.745
11
82.0749
21
-132.745
0
LINE
8
BLACK
6
CONTINUOUS
10
82.0749
20
-132.745
11
81.7892
21
-133.173
0
LINE
8
BLACK
6
CONTINUOUS
10
81.7892
20
-133.173
11
81.5035
21
-133.459
0
LINE
8
BLACK
6
CONTINUOUS
10
81.5035
20
-133.459
11
81.2178
21
-133.602
0
LINE
8
BLACK
6
CONTINUOUS
10
84.2178
20
-135.459
11
84.3606
21
-135.602
0
LINE
8
BLACK
6
CONTINUOUS
10
84.3606
20
-135.602
11
84.2178
21
-135.745
0
LINE
8
BLACK
6
CONTINUOUS
10
84.2178
20
-135.745
11
84.0749
21
-135.602
0
LINE
8
BLACK
6
CONTINUOUS
10
84.0749
20
-135.602
11
84.2178
21
-135.459
0
LINE
8
BLACK
6
CONTINUOUS
10
84.2178
20
-135.459
11
84.2178
21
-135.745
0
LINE
8
BLACK
6
CONTINUOUS
10
85.5035
20
-133.03
11
85.6464
21
-132.888
0
LINE
8
BLACK
6
CONTINUOUS
10
85.6464
20
-132.888
11
85.9321
21
-132.745
0
LINE
8
BLACK
6
CONTINUOUS
10
85.9321
20
-132.745
11
86.6464
21
-132.745
0
LINE
8
BLACK
6
CONTINUOUS
10
86.6464
20
-132.745
11
86.9321
21
-132.888
0
LINE
8
BLACK
6
CONTINUOUS
10
86.9321
20
-132.888
11
87.0749
21
-133.03
0
LINE
8
BLACK
6
CONTINUOUS
10
87.0749
20
-133.03
11
87.2178
21
-133.316
0
LINE
8
BLACK
6
CONTINUOUS
10
87.2178
20
-133.316
11
87.2178
21
-133.602
0
LINE
8
BLACK
6
CONTINUOUS
10
87.2178
20
-133.602
11
87.0749
21
-134.03
0
LINE
8
BLACK
6
CONTINUOUS
10
87.0749
20
-134.03
11
85.3606
21
-135.745
0
LINE
8
BLACK
6
CONTINUOUS
10
85.3606
20
-135.745
11
87.2178
21
-135.745
0
LINE
8
BLACK
6
CONTINUOUS
10
89.0749
20
-132.745
11
89.3606
21
-132.745
0
LINE
8
BLACK
6
CONTINUOUS
10
89.3606
20
-132.745
11
89.6464
21
-132.888
0
LINE
8
BLACK
6
CONTINUOUS
10
89.6464
20
-132.888
11
89.7892
21
-133.03
0
LINE
8
BLACK
6
CONTINUOUS
10
89.7892
20
-133.03
11
89.9321
21
-133.316
0
LINE
8
BLACK
6
CONTINUOUS
10
89.9321
20
-133.316
11
90.0749
21
-133.888
0
LINE
8
BLACK
6
CONTINUOUS
10
90.0749
20
-133.888
11
90.0749
21
-134.602
0
LINE
8
BLACK
6
CONTINUOUS
10
90.0749
20
-134.602
11
89.9321
21
-135.173
0
LINE
8
BLACK
6
CONTINUOUS
10
89.9321
20
-135.173
11
89.7892
21
-135.459
0
LINE
8
BLACK
6
CONTINUOUS
10
89.7892
20
-135.459
11
89.6464
21
-135.602
0
LINE
8
BLACK
6
CONTINUOUS
10
89.6464
20
-135.602
11
89.3606
21
-135.745
0
LINE
8
BLACK
6
CONTINUOUS
10
89.3606
20
-135.745
11
89.0749
21
-135.745
0
LINE
8
BLACK
6
CONTINUOUS
10
89.0749
20
-135.745
11
88.7892
21
-135.602
0
LINE
8
BLACK
6
CONTINUOUS
10
88.7892
20
-135.602
11
88.6464
21
-135.459
0
LINE
8
BLACK
6
CONTINUOUS
10
88.6464
20
-135.459
11
88.5035
21
-135.173
0
LINE
8
BLACK
6
CONTINUOUS
10
88.5035
20
-135.173
11
88.3606
21
-134.602
0
LINE
8
BLACK
6
CONTINUOUS
10
88.3606
20
-134.602
11
88.3606
21
-133.888
0
LINE
8
BLACK
6
CONTINUOUS
10
88.3606
20
-133.888
11
88.5035
21
-133.316
0
LINE
8
BLACK
6
CONTINUOUS
10
88.5035
20
-133.316
11
88.6464
21
-133.03
0
LINE
8
BLACK
6
CONTINUOUS
10
88.6464
20
-133.03
11
88.7892
21
-132.888
0
LINE
8
BLACK
6
CONTINUOUS
10
88.7892
20
-132.888
11
89.0749
21
-132.745
0
LINE
8
BLACK
6
CONTINUOUS
10
91.3606
20
-135.745
11
91.3606
21
-133.745
0
LINE
8
BLACK
6
CONTINUOUS
10
91.3606
20
-134.03
11
91.5035
21
-133.888
0
LINE
8
BLACK
6
CONTINUOUS
10
91.5035
20
-133.888
11
91.7892
21
-133.745
0
LINE
8
BLACK
6
CONTINUOUS
10
91.7892
20
-133.745
11
92.2178
21
-133.745
0
LINE
8
BLACK
6
CONTINUOUS
10
92.2178
20
-133.745
11
92.5035
21
-133.888
0
LINE
8
BLACK
6
CONTINUOUS
10
92.5035
20
-133.888
11
92.6464
21
-134.173
0
LINE
8
BLACK
6
CONTINUOUS
10
92.6464
20
-134.173
11
92.6464
21
-135.745
0
LINE
8
BLACK
6
CONTINUOUS
10
92.6464
20
-134.173
11
92.7892
21
-133.888
0
LINE
8
BLACK
6
CONTINUOUS
10
92.7892
20
-133.888
11
93.0749
21
-133.745
0
LINE
8
BLACK
6
CONTINUOUS
10
93.0749
20
-133.745
11
93.5035
21
-133.745
0
LINE
8
BLACK
6
CONTINUOUS
10
93.5035
20
-133.745
11
93.7892
21
-133.888
0
LINE
8
BLACK
6
CONTINUOUS
10
93.7892
20
-133.888
11
93.9321
21
-134.173
0
LINE
8
BLACK
6
CONTINUOUS
10
93.9321
20
-134.173
11
93.9321
21
-135.745
0
LINE
8
BLACK
6
CONTINUOUS
10
95.3606
20
-135.745
11
95.3606
21
-133.745
0
LINE
8
BLACK
6
CONTINUOUS
10
95.3606
20
-134.03
11
95.5035
21
-133.888
0
LINE
8
BLACK
6
CONTINUOUS
10
95.5035
20
-133.888
11
95.7892
21
-133.745
0
LINE
8
BLACK
6
CONTINUOUS
10
95.7892
20
-133.745
11
96.2178
21
-133.745
0
LINE
8
BLACK
6
CONTINUOUS
10
96.2178
20
-133.745
11
96.5035
21
-133.888
0
LINE
8
BLACK
6
CONTINUOUS
10
96.5035
20
-133.888
11
96.6464
21
-134.173
0
LINE
8
BLACK
6
CONTINUOUS
10
96.6464
20
-134.173
11
96.6464
21
-135.745
0
LINE
8
BLACK
6
CONTINUOUS
10
96.6464
20
-134.173
11
96.7892
21
-133.888
0
LINE
8
BLACK
6
CONTINUOUS
10
96.7892
20
-133.888
11
97.0749
21
-133.745
0
LINE
8
BLACK
6
CONTINUOUS
10
97.0749
20
-133.745
11
97.5035
21
-133.745
0
LINE
8
BLACK
6
CONTINUOUS
10
97.5035
20
-133.745
11
97.7892
21
-133.888
0
LINE
8
BLACK
6
CONTINUOUS
10
97.7892
20
-133.888
11
97.9321
21
-134.173
0
LINE
8
BLACK
6
CONTINUOUS
10
97.9321
20
-134.173
11
97.9321
21
-135.745
0
LINE
8
BLACK
6
CONTINUOUS
10
103.789
20
-132.602
11
101.218
21
-136.459
0
LINE
8
BLACK
6
CONTINUOUS
10
107.646
20
-132.745
11
107.932
21
-132.745
0
LINE
8
BLACK
6
CONTINUOUS
10
107.932
20
-132.745
11
108.218
21
-132.888
0
LINE
8
BLACK
6
CONTINUOUS
10
108.218
20
-132.888
11
108.361
21
-133.03
0
LINE
8
BLACK
6
CONTINUOUS
10
108.361
20
-133.03
11
108.503
21
-133.316
0
LINE
8
BLACK
6
CONTINUOUS
10
108.503
20
-133.316
11
108.646
21
-133.888
0
LINE
8
BLACK
6
CONTINUOUS
10
108.646
20
-133.888
11
108.646
21
-134.602
0
LINE
8
BLACK
6
CONTINUOUS
10
108.646
20
-134.602
11
108.503
21
-135.173
0
LINE
8
BLACK
6
CONTINUOUS
10
108.503
20
-135.173
11
108.361
21
-135.459
0
LINE
8
BLACK
6
CONTINUOUS
10
108.361
20
-135.459
11
108.218
21
-135.602
0
LINE
8
BLACK
6
CONTINUOUS
10
108.218
20
-135.602
11
107.932
21
-135.745
0
LINE
8
BLACK
6
CONTINUOUS
10
107.932
20
-135.745
11
107.646
21
-135.745
0
LINE
8
BLACK
6
CONTINUOUS
10
107.646
20
-135.745
11
107.361
21
-135.602
0
LINE
8
BLACK
6
CONTINUOUS
10
107.361
20
-135.602
11
107.218
21
-135.459
0
LINE
8
BLACK
6
CONTINUOUS
10
107.218
20
-135.459
11
107.075
21
-135.173
0
LINE
8
BLACK
6
CONTINUOUS
10
107.075
20
-135.173
11
106.932
21
-134.602
0
LINE
8
BLACK
6
CONTINUOUS
10
106.932
20
-134.602
11
106.932
21
-133.888
0
LINE
8
BLACK
6
CONTINUOUS
10
106.932
20
-133.888
11
107.075
21
-133.316
0
LINE
8
BLACK
6
CONTINUOUS
10
107.075
20
-133.316
11
107.218
21
-133.03
0
LINE
8
BLACK
6
CONTINUOUS
10
107.218
20
-133.03
11
107.361
21
-132.888
0
LINE
8
BLACK
6
CONTINUOUS
10
107.361
20
-132.888
11
107.646
21
-132.745
0
LINE
8
BLACK
6
CONTINUOUS
10
109.932
20
-135.459
11
110.075
21
-135.602
0
LINE
8
BLACK
6
CONTINUOUS
10
110.075
20
-135.602
11
109.932
21
-135.745
0
LINE
8
BLACK
6
CONTINUOUS
10
109.932
20
-135.745
11
109.789
21
-135.602
0
LINE
8
BLACK
6
CONTINUOUS
10
109.789
20
-135.602
11
109.932
21
-135.459
0
LINE
8
BLACK
6
CONTINUOUS
10
109.932
20
-135.459
11
109.932
21
-135.745
0
LINE
8
BLACK
6
CONTINUOUS
10
111.932
20
-132.745
11
112.218
21
-132.745
0
LINE
8
BLACK
6
CONTINUOUS
10
112.218
20
-132.745
11
112.503
21
-132.888
0
LINE
8
BLACK
6
CONTINUOUS
10
112.503
20
-132.888
11
112.646
21
-133.03
0
LINE
8
BLACK
6
CONTINUOUS
10
112.646
20
-133.03
11
112.789
21
-133.316
0
LINE
8
BLACK
6
CONTINUOUS
10
112.789
20
-133.316
11
112.932
21
-133.888
0
LINE
8
BLACK
6
CONTINUOUS
10
112.932
20
-133.888
11
112.932
21
-134.602
0
LINE
8
BLACK
6
CONTINUOUS
10
112.932
20
-134.602
11
112.789
21
-135.173
0
LINE
8
BLACK
6
CONTINUOUS
10
112.789
20
-135.173
11
112.646
21
-135.459
0
LINE
8
BLACK
6
CONTINUOUS
10
112.646
20
-135.459
11
112.503
21
-135.602
0
LINE
8
BLACK
6
CONTINUOUS
10
112.503
20
-135.602
11
112.218
21
-135.745
0
LINE
8
BLACK
6
CONTINUOUS
10
112.218
20
-135.745
11
111.932
21
-135.745
0
LINE
8
BLACK
6
CONTINUOUS
10
111.932
20
-135.745
11
111.646
21
-135.602
0
LINE
8
BLACK
6
CONTINUOUS
10
111.646
20
-135.602
11
111.503
21
-135.459
0
LINE
8
BLACK
6
CONTINUOUS
10
111.503
20
-135.459
11
111.361
21
-135.173
0
LINE
8
BLACK
6
CONTINUOUS
10
111.361
20
-135.173
11
111.218
21
-134.602
0
LINE
8
BLACK
6
CONTINUOUS
10
111.218
20
-134.602
11
111.218
21
-133.888
0
LINE
8
BLACK
6
CONTINUOUS
10
111.218
20
-133.888
11
111.361
21
-133.316
0
LINE
8
BLACK
6
CONTINUOUS
10
111.361
20
-133.316
11
111.503
21
-133.03
0
LINE
8
BLACK
6
CONTINUOUS
10
111.503
20
-133.03
11
111.646
21
-132.888
0
LINE
8
BLACK
6
CONTINUOUS
10
111.646
20
-132.888
11
111.932
21
-132.745
0
LINE
8
BLACK
6
CONTINUOUS
10
115.503
20
-133.745
11
115.503
21
-135.745
0
LINE
8
BLACK
6
CONTINUOUS
10
114.789
20
-132.602
11
114.075
21
-134.745
0
LINE
8
BLACK
6
CONTINUOUS
10
114.075
20
-134.745
11
115.932
21
-134.745
0
LINE
8
BLACK
6
CONTINUOUS
10
116.789
20
-132.745
11
118.789
21
-132.745
0
LINE
8
BLACK
6
CONTINUOUS
10
118.789
20
-132.745
11
117.503
21
-135.745
0
LINE
8
BLACK
6
CONTINUOUS
10
119.789
20
-132.745
11
119.789
21
-133.316
0
LINE
8
BLACK
6
CONTINUOUS
10
120.932
20
-132.745
11
120.932
21
-133.316
0
LINE
8
BLACK
6
CONTINUOUS
10
125.361
20
-136.888
11
125.218
21
-136.745
0
LINE
8
BLACK
6
CONTINUOUS
10
125.218
20
-136.745
11
124.932
21
-136.316
0
LINE
8
BLACK
6
CONTINUOUS
10
124.932
20
-136.316
11
124.789
21
-136.03
0
LINE
8
BLACK
6
CONTINUOUS
10
124.789
20
-136.03
11
124.646
21
-135.602
0
LINE
8
BLACK
6
CONTINUOUS
10
124.646
20
-135.602
11
124.503
21
-134.888
0
LINE
8
BLACK
6
CONTINUOUS
10
124.503
20
-134.888
11
124.503
21
-134.316
0
LINE
8
BLACK
6
CONTINUOUS
10
124.503
20
-134.316
11
124.646
21
-133.602
0
LINE
8
BLACK
6
CONTINUOUS
10
124.646
20
-133.602
11
124.789
21
-133.173
0
LINE
8
BLACK
6
CONTINUOUS
10
124.789
20
-133.173
11
124.932
21
-132.888
0
LINE
8
BLACK
6
CONTINUOUS
10
124.932
20
-132.888
11
125.218
21
-132.459
0
LINE
8
BLACK
6
CONTINUOUS
10
125.218
20
-132.459
11
125.361
21
-132.316
0
LINE
8
BLACK
6
CONTINUOUS
10
127.789
20
-133.745
11
127.789
21
-135.745
0
LINE
8
BLACK
6
CONTINUOUS
10
127.075
20
-132.602
11
126.361
21
-134.745
0
LINE
8
BLACK
6
CONTINUOUS
10
126.361
20
-134.745
11
128.218
21
-134.745
0
LINE
8
BLACK
6
CONTINUOUS
10
131.646
20
-135.745
11
131.646
21
-132.745
0
LINE
8
BLACK
6
CONTINUOUS
10
132.932
20
-135.745
11
132.932
21
-134.173
0
LINE
8
BLACK
6
CONTINUOUS
10
132.932
20
-134.173
11
132.789
21
-133.888
0
LINE
8
BLACK
6
CONTINUOUS
10
132.789
20
-133.888
11
132.503
21
-133.745
0
LINE
8
BLACK
6
CONTINUOUS
10
132.503
20
-133.745
11
132.075
21
-133.745
0
LINE
8
BLACK
6
CONTINUOUS
10
132.075
20
-133.745
11
131.789
21
-133.888
0
LINE
8
BLACK
6
CONTINUOUS
10
131.789
20
-133.888
11
131.646
21
-134.03
0
LINE
8
BLACK
6
CONTINUOUS
10
134.789
20
-135.745
11
134.503
21
-135.602
0
LINE
8
BLACK
6
CONTINUOUS
10
134.503
20
-135.602
11
134.361
21
-135.459
0
LINE
8
BLACK
6
CONTINUOUS
10
134.361
20
-135.459
11
134.218
21
-135.173
0
LINE
8
BLACK
6
CONTINUOUS
10
134.218
20
-135.173
11
134.218
21
-134.316
0
LINE
8
BLACK
6
CONTINUOUS
10
134.218
20
-134.316
11
134.361
21
-134.03
0
LINE
8
BLACK
6
CONTINUOUS
10
134.361
20
-134.03
11
134.503
21
-133.888
0
LINE
8
BLACK
6
CONTINUOUS
10
134.503
20
-133.888
11
134.789
21
-133.745
0
LINE
8
BLACK
6
CONTINUOUS
10
134.789
20
-133.745
11
135.218
21
-133.745
0
LINE
8
BLACK
6
CONTINUOUS
10
135.218
20
-133.745
11
135.503
21
-133.888
0
LINE
8
BLACK
6
CONTINUOUS
10
135.503
20
-133.888
11
135.646
21
-134.03
0
LINE
8
BLACK
6
CONTINUOUS
10
135.646
20
-134.03
11
135.789
21
-134.316
0
LINE
8
BLACK
6
CONTINUOUS
10
135.789
20
-134.316
11
135.789
21
-135.173
0
LINE
8
BLACK
6
CONTINUOUS
10
135.789
20
-135.173
11
135.646
21
-135.459
0
LINE
8
BLACK
6
CONTINUOUS
10
135.646
20
-135.459
11
135.503
21
-135.602
0
LINE
8
BLACK
6
CONTINUOUS
10
135.503
20
-135.602
11
135.218
21
-135.745
0
LINE
8
BLACK
6
CONTINUOUS
10
135.218
20
-135.745
11
134.789
21
-135.745
0
LINE
8
BLACK
6
CONTINUOUS
10
137.503
20
-135.745
11
137.218
21
-135.602
0
LINE
8
BLACK
6
CONTINUOUS
10
137.218
20
-135.602
11
137.075
21
-135.316
0
LINE
8
BLACK
6
CONTINUOUS
10
137.075
20
-135.316
11
137.075
21
-132.745
0
LINE
8
BLACK
6
CONTINUOUS
10
139.789
20
-135.602
11
139.503
21
-135.745
0
LINE
8
BLACK
6
CONTINUOUS
10
139.503
20
-135.745
11
138.932
21
-135.745
0
LINE
8
BLACK
6
CONTINUOUS
10
138.932
20
-135.745
11
138.646
21
-135.602
0
LINE
8
BLACK
6
CONTINUOUS
10
138.646
20
-135.602
11
138.503
21
-135.316
0
LINE
8
BLACK
6
CONTINUOUS
10
138.503
20
-135.316
11
138.503
21
-134.173
0
LINE
8
BLACK
6
CONTINUOUS
10
138.503
20
-134.173
11
138.646
21
-133.888
0
LINE
8
BLACK
6
CONTINUOUS
10
138.646
20
-133.888
11
138.932
21
-133.745
0
LINE
8
BLACK
6
CONTINUOUS
10
138.932
20
-133.745
11
139.503
21
-133.745
0
LINE
8
BLACK
6
CONTINUOUS
10
139.503
20
-133.745
11
139.789
21
-133.888
0
LINE
8
BLACK
6
CONTINUOUS
10
139.789
20
-133.888
11
139.932
21
-134.173
0
LINE
8
BLACK
6
CONTINUOUS
10
139.932
20
-134.173
11
139.932
21
-134.459
0
LINE
8
BLACK
6
CONTINUOUS
10
139.932
20
-134.459
11
138.503
21
-134.745
0
LINE
8
BLACK
6
CONTINUOUS
10
141.075
20
-135.602
11
141.361
21
-135.745
0
LINE
8
BLACK
6
CONTINUOUS
10
141.361
20
-135.745
11
141.932
21
-135.745
0
LINE
8
BLACK
6
CONTINUOUS
10
141.932
20
-135.745
11
142.218
21
-135.602
0
LINE
8
BLACK
6
CONTINUOUS
10
142.218
20
-135.602
11
142.361
21
-135.316
0
LINE
8
BLACK
6
CONTINUOUS
10
142.361
20
-135.316
11
142.361
21
-135.173
0
LINE
8
BLACK
6
CONTINUOUS
10
142.361
20
-135.173
11
142.218
21
-134.888
0
LINE
8
BLACK
6
CONTINUOUS
10
142.218
20
-134.888
11
141.932
21
-134.745
0
LINE
8
BLACK
6
CONTINUOUS
10
141.932
20
-134.745
11
141.503
21
-134.745
0
LINE
8
BLACK
6
CONTINUOUS
10
141.503
20
-134.745
11
141.218
21
-134.602
0
LINE
8
BLACK
6
CONTINUOUS
10
141.218
20
-134.602
11
141.075
21
-134.316
0
LINE
8
BLACK
6
CONTINUOUS
10
141.075
20
-134.316
11
141.075
21
-134.173
0
LINE
8
BLACK
6
CONTINUOUS
10
141.075
20
-134.173
11
141.218
21
-133.888
0
LINE
8
BLACK
6
CONTINUOUS
10
141.218
20
-133.888
11
141.503
21
-133.745
0
LINE
8
BLACK
6
CONTINUOUS
10
141.503
20
-133.745
11
141.932
21
-133.745
0
LINE
8
BLACK
6
CONTINUOUS
10
141.932
20
-133.745
11
142.218
21
-133.888
0
LINE
8
BLACK
6
CONTINUOUS
10
143.361
20
-136.888
11
143.503
21
-136.745
0
LINE
8
BLACK
6
CONTINUOUS
10
143.503
20
-136.745
11
143.789
21
-136.316
0
LINE
8
BLACK
6
CONTINUOUS
10
143.789
20
-136.316
11
143.932
21
-136.03
0
LINE
8
BLACK
6
CONTINUOUS
10
143.932
20
-136.03
11
144.075
21
-135.602
0
LINE
8
BLACK
6
CONTINUOUS
10
144.075
20
-135.602
11
144.218
21
-134.888
0
LINE
8
BLACK
6
CONTINUOUS
10
144.218
20
-134.888
11
144.218
21
-134.316
0
LINE
8
BLACK
6
CONTINUOUS
10
144.218
20
-134.316
11
144.075
21
-133.602
0
LINE
8
BLACK
6
CONTINUOUS
10
144.075
20
-133.602
11
143.932
21
-133.173
0
LINE
8
BLACK
6
CONTINUOUS
10
143.932
20
-133.173
11
143.789
21
-132.888
0
LINE
8
BLACK
6
CONTINUOUS
10
143.789
20
-132.888
11
143.503
21
-132.459
0
LINE
8
BLACK
6
CONTINUOUS
10
143.503
20
-132.459
11
143.361
21
-132.316
  0
ENDSEC
  0
EOF
