0
SECTION
2
HEADER
9
$INSUNITS
70
4
9
$ACADVER
1
AC1014
9
$HANDSEED
5
FFFF
0
ENDSEC
0
SECTION
2
TABLES
0
TABLE
2
VPORT
5
8
100
AcDbSymbolTable
0
ENDTAB
0
TABLE
2
LTYPE
5
5
100
AcDbSymbolTable
0
LTYPE
5
14
100
AcDbSymbolTableRecord
100
AcDbLinetypeTableRecord
2
BYBLOCK
70
0
0
LTYPE
5
15
100
AcDbSymbolTableRecord
100
AcDbLinetypeTableRecord
2
BYLAYER
70
0
0
ENDTAB
0
TABLE
2
LAYER
5
2
100
AcDbSymbolTable
70
2
0
LAYER
5
50
100
AcDbSymbolTableRecord
100
AcDbLayerTableRecord
2
0
70
0
6
CONTINUOUS
0
ENDTAB
0
TABLE
2
STYLE
5
3
100
AcDbSymbolTable
70
1
0
STYLE
5
11
100
AcDbSymbolTableRecord
100
AcDbTextStyleTableRecord
2
STANDARD
70
0
0
ENDTAB
0
TABLE
2
VIEW
5
6
100
AcDbSymbolTable
70
0
0
ENDTAB
0
TABLE
2
UCS
5
7
100
AcDbSymbolTable
70
0
0
ENDTAB
0
TABLE
2
APPID
5
9
100
AcDbSymbolTable
70
2
0
APPID
5
12
100
AcDbSymbolTableRecord
100
AcDbRegAppTableRecord
2
ACAD
70
0
0
ENDTAB
0
TABLE
2
DIMSTYLE
5
A
100
AcDbSymbolTable
70
1
0
ENDTAB
0
TABLE
2
BLOCK_RECORD
5
1
100
AcDbSymbolTable
70
1
0
BLOCK_RECORD
5
1F
100
AcDbSymbolTableRecord
100
AcDbBlockTableRecord
2
*MODEL_SPACE
0
BLOCK_RECORD
5
1B
100
AcDbSymbolTableRecord
100
AcDbBlockTableRecord
2
*PAPER_SPACE
0
ENDTAB
0
ENDSEC
0
SECTION
2
BLOCKS
0
BLOCK
5
20
100
AcDbEntity
100
AcDbBlockBegin
2
*MODEL_SPACE
0
ENDBLK
5
21
100
AcDbEntity
100
AcDbBlockEnd
0
BLOCK
5
1C
100
AcDbEntity
100
AcDbBlockBegin
2
*PAPER_SPACE
0
ENDBLK
5
1D
100
AcDbEntity
100
AcDbBlockEnd
0
ENDSEC
0
SECTION
2
ENTITIES
0
LINE
5
100
100
AcDbEntity
8
0
100
AcDbLine
10
-14.095156858437875
20
56.205400948401298
30
-3.3378615427182012e-07
11
-9.01977262631579
21
57.712454376737213
31
-1.907349589380658e-07
0
ARC
5
101
100
AcDbEntity
8
0
100
AcDbCircle
10
-8.9040429865918451
20
61.838331604732424
30
-1.907349589380658e-07
40
4.1275000000000084
210
0
220
0
230
1
100
AcDbArc
50
-91.606708431420415
51
95.000001074496282
0
LINE
5
102
100
AcDbEntity
8
0
100
AcDbLine
10
-9.2637783918933181
20
65.950125214359815
30
-1.907349589380658e-07
11
-16.519697759472841
21
65.31531452623841
31
-2.2204460492503131e-14
0
ARC
5
103
100
AcDbEntity
8
0
100
AcDbCircle
10
-31.992858030218695
20
59.818685475937706
30
-2.2204460492503131e-15
40
16.420463442936001
210
1.14680859277341e-15
220
4.0738810403784104e-16
230
1
100
AcDbArc
50
19.556887919026472
51
45.759852446082085
0
LINE
5
104
100
AcDbEntity
8
0
100
AcDbLine
10
-20.536838030218746
20
71.582665475937659
30
-1.9984014443252818e-14
11
-23.002786030218697
21
68.060916475937717
31
-1.5543122344752192e-14
0
LINE
5
105
100
AcDbEntity
8
0
100
AcDbLine
10
-23.002786030218697
20
68.060916475937717
30
-1.5543122344752192e-14
11
-26.2793940302187
21
70.355222475937722
31
-1.1102230246251565e-14
0
LINE
5
106
100
AcDbEntity
8
0
100
AcDbLine
10
-26.2793940302187
20
70.355222475937722
30
-1.1102230246251565e-14
11
-23.723617095579538
21
74.005249338702555
31
-1.5543122344752192e-14
0
ARC
5
107
100
AcDbEntity
8
0
100
AcDbCircle
10
-31.992858030218695
20
59.818685475937706
30
-2.2204460492503131e-15
40
16.42068633971849
210
4.0857756018430115e-16
220
7.0094845418845793e-16
230
1
100
AcDbArc
50
59.762413952895706
51
88.016736459623857
0
LINE
5
108
100
AcDbEntity
8
0
100
AcDbLine
10
-31.424578030218701
20
76.229535475937681
30
-6.6613381477509392e-15
11
-31.042996030218703
21
71.868061475937708
31
-6.6613381477509392e-15
0
LINE
5
109
100
AcDbEntity
8
0
100
AcDbLine
10
-31.042996030218703
20
71.868061475937708
30
-6.6613381477509392e-15
11
-35.027775030218699
21
71.519438475937704
31
0
0
LINE
5
110
100
AcDbEntity
8
0
100
AcDbLine
10
-35.027775030218699
20
71.519438475937704
30
0
11
-35.409276516477568
21
75.880023878439616
31
0
0
ARC
5
111
100
AcDbEntity
8
0
100
AcDbCircle
10
-31.993858030218693
20
59.818685475937706
30
-2.2204460492503131e-15
40
16.420465118746222
210
2.8126341210983328e-17
220
-1.3226686159582915e-16
230
1
100
AcDbArc
50
102.00503635098713
51
132.9867366963577
0
LINE
5
112
100
AcDbEntity
8
0
100
AcDbLine
10
-43.189808030218522
20
71.830445475937523
30
1.1102230246251565e-14
11
-39.836708030218702
21
69.016862475937714
31
4.4408920985006262e-15
0
LINE
5
113
100
AcDbEntity
8
0
100
AcDbLine
10
-39.836708030218702
20
69.016862475937714
30
4.4408920985006262e-15
11
-42.407858030218705
21
65.952685475937713
31
8.8817841970012523e-15
0
LINE
5
114
100
AcDbEntity
8
0
100
AcDbLine
10
-42.407858030218705
20
65.952685475937713
30
8.8817841970012523e-15
11
-45.761875782344845
21
68.7670394629246
31
1.3322676295501878e-14
0
ARC
5
115
100
AcDbEntity
8
0
100
AcDbCircle
10
-31.993358030218694
20
59.818285475937714
30
-2.2204460492503131e-15
40
16.421092503552455
210
7.9363599934222297e-16
220
-5.1581829222200313e-16
230
1
100
AcDbArc
50
146.97842176996258
51
170.44239733991839
0
LINE
5
116
100
AcDbEntity
8
0
100
AcDbLine
10
-48.186512165584773
20
62.544828740415696
30
1.7763568394002505e-14
11
-55.442384777810965
21
61.910022142857642
31
-6.198884472397026e-07
0
ARC
5
117
100
AcDbEntity
8
0
100
AcDbCircle
10
-55.082648216634723
20
57.798227149664385
30
6.2950761684053375e-06
40
4.1275014790419498
210
-9.0619725833250148e-09
220
1.0357850026345293e-07
230
0.99999999999999467
100
AcDbArc
50
95.000015384771274
51
272.28344010459807
0
LINE
5
118
100
AcDbEntity
8
0
100
AcDbLine
10
-54.918196238255909
20
53.674004580887988
30
-1.9073496559940395e-07
11
-54.918195030218712
21
52.65485647593772
31
2.6645352591003757e-14
0
LINE
5
119
100
AcDbEntity
8
0
100
AcDbLine
10
-54.918195030218712
20
52.65485647593772
30
2.6645352591003757e-14
11
-54.918195030218719
21
39.210847475937719
31
2.886579864025407e-14
0
LINE
5
120
100
AcDbEntity
8
0
100
AcDbLine
10
-54.918195030218719
20
39.210847475937719
30
2.886579864025407e-14
11
-36.150950030218716
21
39.210847475937719
31
6.6613381477509392e-15
0
LINE
5
121
100
AcDbEntity
8
0
100
AcDbLine
10
-36.150950030218716
20
39.210847475937719
30
6.6613381477509392e-15
11
-24.320417766974906
21
40.245885347778227
31
-8.8817841970012523e-15
0
ARC
5
122
100
AcDbEntity
8
0
100
AcDbCircle
10
-31.469858030218706
20
53.831685475937718
30
0
40
15.352148422940354
210
2.6942254713777202e-16
220
-5.1197306931167513e-16
230
1
100
AcDbArc
50
297.75530121853171
51
333.17236800608345
0
ARC
5
123
100
AcDbEntity
8
0
100
AcDbCircle
10
-16.877719626118804
20
46.451830811782685
30
-3.3378614983092803e-07
40
1.000000000000004
210
1.1024775851061075e-16
220
-2.2177073948956092e-15
230
1
100
AcDbArc
50
92.845973008312839
51
153.17236800607751
0
ARC
5
124
100
AcDbEntity
8
0
100
AcDbCircle
10
-16.9908580302187
20
48.727685475936028
30
-1.2924535148556701e-05
40
1.2786651247690384
210
1.2961074472528379e-08
220
-2.6072068123499114e-07
230
0.99999999999996603
100
AcDbArc
50
272.84597300831302
51
359.14316089068149
0
LINE
5
125
100
AcDbEntity
8
0
100
AcDbLine
10
-15.712335884374838
20
48.708564181856659
30
-2.2204460492503131e-14
11
-15.624109695301417
21
54.607701367877539
31
-1.9984014443252818e-14
0
ARC
5
126
100
AcDbEntity
8
0
100
AcDbCircle
10
-13.655579357277389
20
54.254305968531398
30
-3.3378615427182012e-07
40
2.0000000000000036
210
0
220
0
230
1
100
AcDbArc
50
102.69662560709523
51
169.82253110198019
0
LWPOLYLINE
5
127
100
AcDbEntity
8
0
100
AcDbPolyline
90
4
70
1
43
0.0
10
-48.228331138150516
20
52.654864405702227
10
-48.278893787929526
20
53.232798137242497
10
-47.236852611157062
20
53.323964927137304
42
0.067678551182490193
10
-47.325438030218848
20
52.654865475937711
0
CIRCLE
5
128
100
AcDbEntity
8
0
100
AcDbCircle
10
8.9040429865918451
20
61.838331604732424
30
1.9073495864444313e-07
40
2.1526499999999946
210
8.4038903175816527e-17
220
7.352451323036748e-18
230
-1
0
CIRCLE
5
129
100
AcDbEntity
8
0
100
AcDbCircle
10
52.907858030218705
20
40.792685475937731
30
3.1291020359324203e-14
40
0.5
210
-1.2256145246069011e-15
220
-1.6935061363937211e-16
230
-1
0
CIRCLE
5
130
100
AcDbEntity
8
0
100
AcDbCircle
10
50.367858030218706
20
40.792685475937731
30
3.0398405516072979e-14
40
0.5
210
-1.2256145246069011e-15
220
-1.6935061363937211e-16
230
-1
0
CIRCLE
5
131
100
AcDbEntity
8
0
100
AcDbCircle
10
52.907858030218705
20
43.332685475937708
30
3.0860869800680208e-14
40
0.5
210
-1.2256145246069011e-15
220
-1.6935061363937211e-16
230
-1
0
CIRCLE
5
132
100
AcDbEntity
8
0
100
AcDbCircle
10
50.367858030218706
20
43.332685475937708
30
3.2188701006679292e-14
40
0.5
210
-1.2256145246069011e-15
220
-1.6935061363937211e-16
230
-1
0
CIRCLE
5
133
100
AcDbEntity
8
0
100
AcDbCircle
10
47.407858030218712
20
40.372685475937715
30
2.9062159830215418e-14
40
0.34999999999999998
210
-1.2256145246069011e-15
220
-1.6935061363937211e-16
230
-1
0
CIRCLE
5
134
100
AcDbEntity
8
0
100
AcDbCircle
10
52.907858030218705
20
45.872685475937722
30
3.0430719242036194e-14
40
0.5
210
-1.2256145246069011e-15
220
-1.6935061363937211e-16
230
-1
0
CIRCLE
5
135
100
AcDbEntity
8
0
100
AcDbCircle
10
50.367858030218706
20
45.872685475937722
30
3.1758550448035284e-14
40
0.5
210
-1.2256145246069011e-15
220
-1.6935061363937211e-16
230
-1
0
CIRCLE
5
136
100
AcDbEntity
8
0
100
AcDbCircle
10
47.407858030218712
20
45.45268547593772
30
3.0422304762177723e-14
40
0.34999999999999998
210
-1.2256145246069011e-15
220
-1.6935061363937211e-16
230
-1
0
CIRCLE
5
137
100
AcDbEntity
8
0
100
AcDbCircle
10
44.800273279627703
20
46.39670679760772
30
3.1507432526097079e-14
40
0.40000000000000008
210
-1.2256145246069011e-15
220
-1.6935061363937211e-16
230
-1
0
CIRCLE
5
138
100
AcDbEntity
8
0
100
AcDbCircle
10
52.907858030218705
20
48.412685475937714
30
3.0000568683392187e-14
40
0.5
210
-1.2256145246069011e-15
220
-1.6935061363937211e-16
230
-1
0
CIRCLE
5
139
100
AcDbEntity
8
0
100
AcDbCircle
10
50.367858030218706
20
48.412685475937714
30
3.1328399889391277e-14
40
0.5
210
-1.2256145246069011e-15
220
-1.6935061363937211e-16
230
-1
0
CIRCLE
5
140
100
AcDbEntity
8
0
100
AcDbCircle
10
52.907858030218698
20
50.95268547593772
30
2.9570418124748174e-14
40
0.5
210
-1.2256145246069011e-15
220
-1.6935061363937211e-16
230
-1
0
CIRCLE
5
141
100
AcDbEntity
8
0
100
AcDbCircle
10
50.367858030218699
20
50.95268547593772
30
3.089824933074727e-14
40
0.5
210
-1.2256145246069011e-15
220
-1.6935061363937211e-16
230
-1
0
CIRCLE
5
142
100
AcDbEntity
8
0
100
AcDbCircle
10
44.856486454457702
20
52.776082948847723
30
3.0495976943794122e-14
40
0.90000000000000013
210
-1.2256145246069013e-15
220
-1.6935061363937211e-16
230
-1
0
CIRCLE
5
143
100
AcDbEntity
8
0
100
AcDbCircle
10
42.477988083233711
20
49.340308582267724
30
3.2603597389075517e-14
40
0.40000000000000008
210
-1.2256145246069011e-15
220
-1.6935061363937211e-16
230
-1
0
CIRCLE
5
144
100
AcDbEntity
8
0
100
AcDbCircle
10
30.470933795681695
20
43.243592471457724
30
3.0022290117310482e-14
40
1.5000000000000002
210
-1.2256145246069011e-15
220
-1.6935061363937211e-16
230
-1
0
CIRCLE
5
145
100
AcDbEntity
8
0
100
AcDbCircle
10
31.538332030218704
20
54.617445475937707
30
2.9404339911346102e-14
40
1.0436270000000001
210
-1.2256145246069011e-15
220
-1.6935061363937211e-16
230
-1
0
CIRCLE
5
146
100
AcDbEntity
8
0
100
AcDbCircle
10
16.906821733058703
20
48.837067594547719
30
3.2434673358745028e-14
40
0.40000000000000008
210
-1.2256145246069011e-15
220
-1.6935061363937211e-16
230
-1
0
CIRCLE
5
147
100
AcDbEntity
8
0
100
AcDbCircle
10
19.704977284858693
20
51.332688861477706
30
3.1000606353673852e-14
40
0.40000000000000008
210
-1.2256145246069011e-15
220
-1.6935061363937211e-16
230
-1
0
CIRCLE
5
148
100
AcDbEntity
8
0
100
AcDbCircle
10
17.95922960598871
20
55.129288003037715
30
3.0438482297036432e-14
40
0.90000000000000013
210
-1.2256145246069013e-15
220
-1.6935061363937211e-16
230
-1
0
CIRCLE
5
149
100
AcDbEntity
8
0
100
AcDbCircle
10
45.879008486435701
20
59.070918029617722
30
3.2903606663480184e-14
40
0.40000000000000008
210
-1.2256145246069011e-15
220
-1.6935061363937211e-16
230
-1
0
CIRCLE
5
150
100
AcDbEntity
8
0
100
AcDbCircle
10
43.110738775581709
20
56.572682090407717
30
3.2154298936399645e-14
40
0.40000000000000008
210
-1.2256145246069011e-15
220
-1.6935061363937211e-16
230
-1
0
CIRCLE
5
151
100
AcDbEntity
8
0
100
AcDbCircle
10
40.605503272945711
20
61.670426206817702
30
3.0440985871767883e-14
40
1.5000000000000002
210
-1.2256145246069011e-15
220
-1.6935061363937211e-16
230
-1
0
CIRCLE
5
152
100
AcDbEntity
8
0
100
AcDbCircle
10
40.727412030218701
20
65.475978475937708
30
3.2166372452596581e-14
40
0.45000000000000007
210
-1.2256145246069013e-15
220
-1.6935061363937211e-16
230
-1
0
CIRCLE
5
153
100
AcDbEntity
8
0
100
AcDbCircle
10
39.094731501614696
20
67.421731361467721
30
3.2056267086791866e-14
40
0.45000000000000007
210
-1.2256145246069013e-15
220
-1.6935061363937211e-16
230
-1
0
CIRCLE
5
154
100
AcDbEntity
8
0
100
AcDbCircle
10
31.930792486704703
20
59.929853664487709
30
3.1206131609765747e-14
40
2.2999999999999998
210
-1.2256145246069013e-15
220
-1.6935061363937211e-16
230
-1
0
CIRCLE
5
155
100
AcDbEntity
8
0
100
AcDbCircle
10
20.337727977208701
20
58.565062369617706
30
3.2771753950250766e-14
40
0.40000000000000008
210
-1.2256145246069011e-15
220
-1.6935061363937211e-16
230
-1
0
CIRCLE
5
156
100
AcDbEntity
8
0
100
AcDbCircle
10
18.015442780818688
20
61.50866415427771
30
3.1647472763983764e-14
40
0.40000000000000008
210
-1.2256145246069011e-15
220
-1.6935061363937211e-16
230
-1
0
CIRCLE
5
157
100
AcDbEntity
8
0
100
AcDbCircle
10
34.00259103021871
20
69.921281475937718
30
3.2053303565753388e-14
40
0.45000000000000007
210
-1.2256145246069013e-15
220
-1.6935061363937211e-16
230
-1
0
CIRCLE
5
158
100
AcDbEntity
8
0
100
AcDbCircle
10
31.472256497065704
20
70.142657062517713
30
2.8914598718374548e-14
40
0.45000000000000007
210
-1.2256145246069013e-15
220
-1.6935061363937211e-16
230
-1
0
CIRCLE
5
159
100
AcDbEntity
8
0
100
AcDbCircle
10
26.407858030218691
20
68.452685475937713
30
3.1875580321231607e-14
40
0.45000000000000007
210
-1.2256145246069013e-15
220
-1.6935061363937211e-16
230
-1
0
CIRCLE
5
160
100
AcDbEntity
8
0
100
AcDbCircle
10
23.690988856774705
20
63.160292665647717
30
3.1662462020095429e-14
40
1.5000000000000002
210
-1.2256145246069011e-15
220
-1.6935061363937211e-16
230
-1
0
CIRCLE
5
161
100
AcDbEntity
8
0
100
AcDbCircle
10
24.327211837724704
20
66.995801327607708
30
3.1792680400914397e-14
40
0.45000000000000007
210
-1.2256145246069013e-15
220
-1.6935061363937211e-16
230
-1
0
CIRCLE
5
162
100
AcDbEntity
8
0
100
AcDbCircle
10
55.082648216634723
20
57.798227149664719
30
1.9073496139527725e-07
40
2.1526499999999946
210
8.4038903175816527e-17
220
7.352451323036748e-18
230
-1
0
ENDSEC
0
SECTION
2
OBJECTS
0
DICTIONARY
5
C
100
AcDbDictionary
3
ACAD_GROUP
350
D
3
ACAD_MLINESTYLE
350
17
0
DICTIONARY
5
D
100
AcDbDictionary
0
DICTIONARY
5
1A
330
C
100
AcDbDictionary
0
DICTIONARY
5
17
100
AcDbDictionary
0
ENDSEC
0
EOF
