  0
SECTION
  2
HEADER
  9
$ANGBASE
  50
0.0
  9
$ANGDIR
  70
1
  9
$MEASUREMENT
  70
1
  0
ENDSEC
  0
SECTION
  2
TABLES
  0
TABLE
  2
LTYPE
  70
4
  0
LTYPE
  5
40F
  2
CONTINUOUS
  70
0
  3
Solid line
  72
65
  73
0
  40
0.0
  0
LTYPE
  5
410
  2
DASHDOT
 70
0
  3
Dash Dot ____ _ ____ _
 72
65
 73
4
 40
2.0
 49
1.25
 49
-0.25
 49
0.25
 49
-0.25
  0
LTYPE
  5
411
  2
DASHED
 70
0
  3
Dashed __ __ __ __ __
 72
65
 73
2
 40
0.75
 49
0.5
 49
-0.25
  0
LTYPE
  5
43B
  2
DOTTED
 70
0
  3
Dotted .  .  .  .
 72
65
 73
2
 40
0.2
 49
0.0
 49
-0.2
  0
ENDTAB
  0
TABLE
  2
STYLE
  70
4
  0
STYLE
  2
KICAD
  70
0
  40
0
  41
1
  42
1
  50
0
  71
0
  3
isocp.shx
  0
STYLE
  2
KICADB
  70
0
  40
0
  41
1
  42
1
  50
0
  71
0
  3
isocp.shx
  0
STYLE
  2
KICADI
  70
0
  40
0
  41
1
  42
1
  50
15
  71
0
  3
isocp.shx
  0
STYLE
  2
KICADBI
  70
0
  40
0
  41
1
  42
1
  50
15
  71
0
  3
isocp.shx
  0
ENDTAB
  0
TABLE
  2
LAYER
  70
1
  0
LAYER
  2
BLACK
  70
0
  62
7
  6
CONTINUOUS
  0
ENDTAB
  0
ENDSEC
  0
SECTION
  2
ENTITIES
0
LINE
8
BLACK
6
CONTINUOUS
10
149.479
20
-77.597
11
149.606
21
-77.597
0
LINE
8
BLACK
6
CONTINUOUS
10
149.479
20
-81.534
11
149.479
21
-77.597
0
LINE
8
BLACK
6
CONTINUOUS
10
162.052
20
-81.534
11
149.479
21
-81.534
0
LINE
8
BLACK
6
CONTINUOUS
10
162.052
20
-77.597
11
162.052
21
-81.534
0
LINE
8
BLACK
6
CONTINUOUS
10
149.606
20
-77.597
11
162.052
21
-77.597
0
LINE
8
BLACK
6
CONTINUOUS
10
222.631
20
-121.666
11
222.758
21
-68.326
0
LINE
8
BLACK
6
CONTINUOUS
10
124.841
20
-121.666
11
222.631
21
-121.666
0
LINE
8
BLACK
6
CONTINUOUS
10
124.841
20
-68.326
11
222.758
21
-68.326
0
LINE
8
BLACK
6
CONTINUOUS
10
124.841
20
-68.326
11
124.841
21
-121.666
0
LINE
8
BLACK
6
CONTINUOUS
10
142.388
20
-88.7997
11
142.788
21
-89.1997
0
LINE
8
BLACK
6
CONTINUOUS
10
142.788
20
-88.7997
11
142.388
21
-89.1997
0
CIRCLE
8
BLACK
10
216.027
20
-98.4926
40
0.35
0
CIRCLE
8
BLACK
10
218.567
20
-98.4926
40
0.35
0
CIRCLE
8
BLACK
10
216.027
20
-94.3115
40
0.35
0
CIRCLE
8
BLACK
10
218.567
20
-94.3115
40
0.35
0
CIRCLE
8
BLACK
10
216.027
20
-85.9493
40
0.35
0
CIRCLE
8
BLACK
10
218.567
20
-85.9493
40
0.35
0
CIRCLE
8
BLACK
10
216.027
20
-101.658
40
0.35
0
CIRCLE
8
BLACK
10
218.567
20
-101.658
40
0.35
0
CIRCLE
8
BLACK
10
164.846
20
-88.265
40
0.35
0
CIRCLE
8
BLACK
10
167.386
20
-88.265
40
0.35
0
CIRCLE
8
BLACK
10
164.973
20
-74.295
40
0.35
0
CIRCLE
8
BLACK
10
167.513
20
-74.295
40
0.35
0
CIRCLE
8
BLACK
10
216.027
20
-105.839
40
0.35
0
CIRCLE
8
BLACK
10
218.567
20
-105.839
40
0.35
0
CIRCLE
8
BLACK
10
216.027
20
-110.02
40
0.35
0
CIRCLE
8
BLACK
10
218.567
20
-110.02
40
0.35
0
CIRCLE
8
BLACK
10
216.027
20
-73.406
40
0.35
0
CIRCLE
8
BLACK
10
218.567
20
-73.406
40
0.35
0
CIRCLE
8
BLACK
10
216.027
20
-90.1304
40
0.35
0
CIRCLE
8
BLACK
10
218.567
20
-90.1304
40
0.35
0
CIRCLE
8
BLACK
10
216.027
20
-81.7682
40
0.35
0
CIRCLE
8
BLACK
10
218.567
20
-81.7682
40
0.35
0
CIRCLE
8
BLACK
10
216.027
20
-77.5871
40
0.35
0
CIRCLE
8
BLACK
10
218.567
20
-77.5871
40
0.35
0
CIRCLE
8
BLACK
10
216.027
20
-114.201
40
0.35
0
CIRCLE
8
BLACK
10
218.567
20
-114.201
40
0.35
0
LINE
8
BLACK
6
CONTINUOUS
10
148.272
20
-96.247
11
148.272
21
-97.047
0
LINE
8
BLACK
6
CONTINUOUS
10
147.872
20
-96.647
11
148.672
21
-96.647
0
LINE
8
BLACK
6
CONTINUOUS
10
153.272
20
-96.247
11
153.272
21
-97.047
0
LINE
8
BLACK
6
CONTINUOUS
10
152.872
20
-96.647
11
153.672
21
-96.647
0
LINE
8
BLACK
6
CONTINUOUS
10
148.272
20
-109.963
11
148.272
21
-110.763
0
LINE
8
BLACK
6
CONTINUOUS
10
147.872
20
-110.363
11
148.672
21
-110.363
0
LINE
8
BLACK
6
CONTINUOUS
10
153.272
20
-109.963
11
153.272
21
-110.763
0
LINE
8
BLACK
6
CONTINUOUS
10
152.872
20
-110.363
11
153.672
21
-110.363
0
LINE
8
BLACK
6
CONTINUOUS
10
189.04
20
-107.677
11
189.04
21
-108.477
0
LINE
8
BLACK
6
CONTINUOUS
10
188.64
20
-108.077
11
189.44
21
-108.077
0
LINE
8
BLACK
6
CONTINUOUS
10
194.04
20
-107.677
11
194.04
21
-108.477
0
LINE
8
BLACK
6
CONTINUOUS
10
193.64
20
-108.077
11
194.44
21
-108.077
0
LINE
8
BLACK
6
CONTINUOUS
10
148.272
20
-100.819
11
148.272
21
-101.619
0
LINE
8
BLACK
6
CONTINUOUS
10
147.872
20
-101.219
11
148.672
21
-101.219
0
LINE
8
BLACK
6
CONTINUOUS
10
153.272
20
-100.819
11
153.272
21
-101.619
0
LINE
8
BLACK
6
CONTINUOUS
10
152.872
20
-101.219
11
153.672
21
-101.219
0
LINE
8
BLACK
6
CONTINUOUS
10
174.308
20
-111.296
11
174.308
21
-112.096
0
LINE
8
BLACK
6
CONTINUOUS
10
173.908
20
-111.696
11
174.708
21
-111.696
0
LINE
8
BLACK
6
CONTINUOUS
10
179.308
20
-111.296
11
179.308
21
-112.096
0
LINE
8
BLACK
6
CONTINUOUS
10
178.908
20
-111.696
11
179.708
21
-111.696
0
LINE
8
BLACK
6
CONTINUOUS
10
174.308
20
-114.472
11
174.308
21
-115.272
0
LINE
8
BLACK
6
CONTINUOUS
10
173.908
20
-114.872
11
174.708
21
-114.872
0
LINE
8
BLACK
6
CONTINUOUS
10
179.308
20
-114.472
11
179.308
21
-115.272
0
LINE
8
BLACK
6
CONTINUOUS
10
178.908
20
-114.872
11
179.708
21
-114.872
0
LINE
8
BLACK
6
CONTINUOUS
10
174.18
20
-108.058
11
174.18
21
-108.858
0
LINE
8
BLACK
6
CONTINUOUS
10
173.78
20
-108.458
11
174.58
21
-108.458
0
LINE
8
BLACK
6
CONTINUOUS
10
179.18
20
-108.058
11
179.18
21
-108.858
0
LINE
8
BLACK
6
CONTINUOUS
10
178.78
20
-108.458
11
179.58
21
-108.458
0
LINE
8
BLACK
6
CONTINUOUS
10
148.272
20
-105.391
11
148.272
21
-106.191
0
LINE
8
BLACK
6
CONTINUOUS
10
147.872
20
-105.791
11
148.672
21
-105.791
0
LINE
8
BLACK
6
CONTINUOUS
10
153.272
20
-105.391
11
153.272
21
-106.191
0
LINE
8
BLACK
6
CONTINUOUS
10
152.872
20
-105.791
11
153.672
21
-105.791
0
LINE
8
BLACK
6
CONTINUOUS
10
189.103
20
-114.726
11
189.103
21
-115.526
0
LINE
8
BLACK
6
CONTINUOUS
10
188.703
20
-115.126
11
189.503
21
-115.126
0
LINE
8
BLACK
6
CONTINUOUS
10
194.103
20
-114.726
11
194.103
21
-115.526
0
LINE
8
BLACK
6
CONTINUOUS
10
193.703
20
-115.126
11
194.503
21
-115.126
0
LINE
8
BLACK
6
CONTINUOUS
10
181.61
20
-111.296
11
181.61
21
-112.096
0
LINE
8
BLACK
6
CONTINUOUS
10
181.21
20
-111.696
11
182.01
21
-111.696
0
LINE
8
BLACK
6
CONTINUOUS
10
186.61
20
-111.296
11
186.61
21
-112.096
0
LINE
8
BLACK
6
CONTINUOUS
10
186.21
20
-111.696
11
187.01
21
-111.696
0
LINE
8
BLACK
6
CONTINUOUS
10
148.272
20
-91.675
11
148.272
21
-92.475
0
LINE
8
BLACK
6
CONTINUOUS
10
147.872
20
-92.075
11
148.672
21
-92.075
0
LINE
8
BLACK
6
CONTINUOUS
10
153.272
20
-91.675
11
153.272
21
-92.475
0
LINE
8
BLACK
6
CONTINUOUS
10
152.872
20
-92.075
11
153.672
21
-92.075
0
LINE
8
BLACK
6
CONTINUOUS
10
181.674
20
-114.598
11
181.674
21
-115.398
0
LINE
8
BLACK
6
CONTINUOUS
10
181.274
20
-114.998
11
182.074
21
-114.998
0
LINE
8
BLACK
6
CONTINUOUS
10
186.674
20
-114.598
11
186.674
21
-115.398
0
LINE
8
BLACK
6
CONTINUOUS
10
186.274
20
-114.998
11
187.074
21
-114.998
0
LINE
8
BLACK
6
CONTINUOUS
10
189.103
20
-111.042
11
189.103
21
-111.842
0
LINE
8
BLACK
6
CONTINUOUS
10
188.703
20
-111.442
11
189.503
21
-111.442
0
LINE
8
BLACK
6
CONTINUOUS
10
194.103
20
-111.042
11
194.103
21
-111.842
0
LINE
8
BLACK
6
CONTINUOUS
10
193.703
20
-111.442
11
194.503
21
-111.442
0
LINE
8
BLACK
6
CONTINUOUS
10
148.272
20
-114.535
11
148.272
21
-115.335
0
LINE
8
BLACK
6
CONTINUOUS
10
147.872
20
-114.935
11
148.672
21
-114.935
0
LINE
8
BLACK
6
CONTINUOUS
10
153.272
20
-114.535
11
153.272
21
-115.335
0
LINE
8
BLACK
6
CONTINUOUS
10
152.872
20
-114.935
11
153.672
21
-114.935
0
LINE
8
BLACK
6
CONTINUOUS
10
165.037
20
-78.6772
11
165.037
21
-78.0408
0
LINE
8
BLACK
6
CONTINUOUS
10
165.037
20
-78.0408
11
164.401
21
-78.0408
0
LINE
8
BLACK
6
CONTINUOUS
10
164.401
20
-78.0408
11
164.401
21
-78.6772
0
LINE
8
BLACK
6
CONTINUOUS
10
164.401
20
-78.6772
11
165.037
21
-78.6772
0
LINE
8
BLACK
6
CONTINUOUS
10
167.577
20
-78.6772
11
167.577
21
-78.0408
0
LINE
8
BLACK
6
CONTINUOUS
10
167.577
20
-78.0408
11
166.941
21
-78.0408
0
LINE
8
BLACK
6
CONTINUOUS
10
166.941
20
-78.0408
11
166.941
21
-78.6772
0
LINE
8
BLACK
6
CONTINUOUS
10
166.941
20
-78.6772
11
167.577
21
-78.6772
0
LINE
8
BLACK
6
CONTINUOUS
10
165.164
20
-83.8842
11
165.164
21
-83.2478
0
LINE
8
BLACK
6
CONTINUOUS
10
165.164
20
-83.2478
11
164.528
21
-83.2478
0
LINE
8
BLACK
6
CONTINUOUS
10
164.528
20
-83.2478
11
164.528
21
-83.8842
0
LINE
8
BLACK
6
CONTINUOUS
10
164.528
20
-83.8842
11
165.164
21
-83.8842
0
LINE
8
BLACK
6
CONTINUOUS
10
167.704
20
-83.8842
11
167.704
21
-83.2478
0
LINE
8
BLACK
6
CONTINUOUS
10
167.704
20
-83.2478
11
167.068
21
-83.2478
0
LINE
8
BLACK
6
CONTINUOUS
10
167.068
20
-83.2478
11
167.068
21
-83.8842
0
LINE
8
BLACK
6
CONTINUOUS
10
167.068
20
-83.8842
11
167.704
21
-83.8842
0
LINE
8
BLACK
6
CONTINUOUS
10
154.178
20
-119.626
11
154.678
21
-119.126
0
LINE
8
BLACK
6
CONTINUOUS
10
154.678
20
-119.126
11
154.178
21
-118.626
0
LINE
8
BLACK
6
CONTINUOUS
10
154.178
20
-118.626
11
153.678
21
-119.126
0
LINE
8
BLACK
6
CONTINUOUS
10
153.678
20
-119.126
11
154.178
21
-119.626
0
LINE
8
BLACK
6
CONTINUOUS
10
156.718
20
-119.626
11
157.218
21
-119.126
0
LINE
8
BLACK
6
CONTINUOUS
10
157.218
20
-119.126
11
156.718
21
-118.626
0
LINE
8
BLACK
6
CONTINUOUS
10
156.718
20
-118.626
11
156.218
21
-119.126
0
LINE
8
BLACK
6
CONTINUOUS
10
156.218
20
-119.126
11
156.718
21
-119.626
0
LINE
8
BLACK
6
CONTINUOUS
10
159.258
20
-119.626
11
159.758
21
-119.126
0
LINE
8
BLACK
6
CONTINUOUS
10
159.758
20
-119.126
11
159.258
21
-118.626
0
LINE
8
BLACK
6
CONTINUOUS
10
159.258
20
-118.626
11
158.758
21
-119.126
0
LINE
8
BLACK
6
CONTINUOUS
10
158.758
20
-119.126
11
159.258
21
-119.626
0
LINE
8
BLACK
6
CONTINUOUS
10
161.798
20
-119.626
11
162.298
21
-119.126
0
LINE
8
BLACK
6
CONTINUOUS
10
162.298
20
-119.126
11
161.798
21
-118.626
0
LINE
8
BLACK
6
CONTINUOUS
10
161.798
20
-118.626
11
161.298
21
-119.126
0
LINE
8
BLACK
6
CONTINUOUS
10
161.298
20
-119.126
11
161.798
21
-119.626
0
LINE
8
BLACK
6
CONTINUOUS
10
164.338
20
-119.626
11
164.838
21
-119.126
0
LINE
8
BLACK
6
CONTINUOUS
10
164.838
20
-119.126
11
164.338
21
-118.626
0
LINE
8
BLACK
6
CONTINUOUS
10
164.338
20
-118.626
11
163.838
21
-119.126
0
LINE
8
BLACK
6
CONTINUOUS
10
163.838
20
-119.126
11
164.338
21
-119.626
0
LINE
8
BLACK
6
CONTINUOUS
10
166.878
20
-119.626
11
167.378
21
-119.126
0
LINE
8
BLACK
6
CONTINUOUS
10
167.378
20
-119.126
11
166.878
21
-118.626
0
LINE
8
BLACK
6
CONTINUOUS
10
166.878
20
-118.626
11
166.378
21
-119.126
0
LINE
8
BLACK
6
CONTINUOUS
10
166.378
20
-119.126
11
166.878
21
-119.626
0
LINE
8
BLACK
6
CONTINUOUS
10
127.254
20
-71.366
11
127.754
21
-70.866
0
LINE
8
BLACK
6
CONTINUOUS
10
127.754
20
-70.866
11
127.254
21
-70.366
0
LINE
8
BLACK
6
CONTINUOUS
10
127.254
20
-70.366
11
126.754
21
-70.866
0
LINE
8
BLACK
6
CONTINUOUS
10
126.754
20
-70.866
11
127.254
21
-71.366
0
LINE
8
BLACK
6
CONTINUOUS
10
129.794
20
-71.366
11
130.294
21
-70.866
0
LINE
8
BLACK
6
CONTINUOUS
10
130.294
20
-70.866
11
129.794
21
-70.366
0
LINE
8
BLACK
6
CONTINUOUS
10
129.794
20
-70.366
11
129.294
21
-70.866
0
LINE
8
BLACK
6
CONTINUOUS
10
129.294
20
-70.866
11
129.794
21
-71.366
0
LINE
8
BLACK
6
CONTINUOUS
10
132.334
20
-71.366
11
132.834
21
-70.866
0
LINE
8
BLACK
6
CONTINUOUS
10
132.834
20
-70.866
11
132.334
21
-70.366
0
LINE
8
BLACK
6
CONTINUOUS
10
132.334
20
-70.366
11
131.834
21
-70.866
0
LINE
8
BLACK
6
CONTINUOUS
10
131.834
20
-70.866
11
132.334
21
-71.366
0
LINE
8
BLACK
6
CONTINUOUS
10
134.874
20
-71.366
11
135.374
21
-70.866
0
LINE
8
BLACK
6
CONTINUOUS
10
135.374
20
-70.866
11
134.874
21
-70.366
0
LINE
8
BLACK
6
CONTINUOUS
10
134.874
20
-70.366
11
134.374
21
-70.866
0
LINE
8
BLACK
6
CONTINUOUS
10
134.374
20
-70.866
11
134.874
21
-71.366
0
LINE
8
BLACK
6
CONTINUOUS
10
137.414
20
-71.366
11
137.914
21
-70.866
0
LINE
8
BLACK
6
CONTINUOUS
10
137.914
20
-70.866
11
137.414
21
-70.366
0
LINE
8
BLACK
6
CONTINUOUS
10
137.414
20
-70.366
11
136.914
21
-70.866
0
LINE
8
BLACK
6
CONTINUOUS
10
136.914
20
-70.866
11
137.414
21
-71.366
0
LINE
8
BLACK
6
CONTINUOUS
10
139.954
20
-71.366
11
140.454
21
-70.866
0
LINE
8
BLACK
6
CONTINUOUS
10
140.454
20
-70.866
11
139.954
21
-70.366
0
LINE
8
BLACK
6
CONTINUOUS
10
139.954
20
-70.366
11
139.454
21
-70.866
0
LINE
8
BLACK
6
CONTINUOUS
10
139.454
20
-70.866
11
139.954
21
-71.366
0
LINE
8
BLACK
6
CONTINUOUS
10
142.494
20
-71.366
11
142.994
21
-70.866
0
LINE
8
BLACK
6
CONTINUOUS
10
142.994
20
-70.866
11
142.494
21
-70.366
0
LINE
8
BLACK
6
CONTINUOUS
10
142.494
20
-70.366
11
141.994
21
-70.866
0
LINE
8
BLACK
6
CONTINUOUS
10
141.994
20
-70.866
11
142.494
21
-71.366
0
LINE
8
BLACK
6
CONTINUOUS
10
145.034
20
-71.366
11
145.534
21
-70.866
0
LINE
8
BLACK
6
CONTINUOUS
10
145.534
20
-70.866
11
145.034
21
-70.366
0
LINE
8
BLACK
6
CONTINUOUS
10
145.034
20
-70.366
11
144.534
21
-70.866
0
LINE
8
BLACK
6
CONTINUOUS
10
144.534
20
-70.866
11
145.034
21
-71.366
0
LINE
8
BLACK
6
CONTINUOUS
10
130.81
20
-118.618
11
131.826
21
-119.634
0
LINE
8
BLACK
6
CONTINUOUS
10
131.826
20
-118.618
11
130.81
21
-119.634
0
CIRCLE
8
BLACK
10
131.318
20
-119.126
40
0.508
0
LINE
8
BLACK
6
CONTINUOUS
10
133.35
20
-118.618
11
134.366
21
-119.634
0
LINE
8
BLACK
6
CONTINUOUS
10
134.366
20
-118.618
11
133.35
21
-119.634
0
CIRCLE
8
BLACK
10
133.858
20
-119.126
40
0.508
0
LINE
8
BLACK
6
CONTINUOUS
10
135.89
20
-118.618
11
136.906
21
-119.634
0
LINE
8
BLACK
6
CONTINUOUS
10
136.906
20
-118.618
11
135.89
21
-119.634
0
CIRCLE
8
BLACK
10
136.398
20
-119.126
40
0.508
0
LINE
8
BLACK
6
CONTINUOUS
10
138.43
20
-118.618
11
139.446
21
-119.634
0
LINE
8
BLACK
6
CONTINUOUS
10
139.446
20
-118.618
11
138.43
21
-119.634
0
CIRCLE
8
BLACK
10
138.938
20
-119.126
40
0.508
0
LINE
8
BLACK
6
CONTINUOUS
10
140.97
20
-118.618
11
141.986
21
-119.634
0
LINE
8
BLACK
6
CONTINUOUS
10
141.986
20
-118.618
11
140.97
21
-119.634
0
CIRCLE
8
BLACK
10
141.478
20
-119.126
40
0.508
0
LINE
8
BLACK
6
CONTINUOUS
10
143.51
20
-118.618
11
144.526
21
-119.634
0
LINE
8
BLACK
6
CONTINUOUS
10
144.526
20
-118.618
11
143.51
21
-119.634
0
CIRCLE
8
BLACK
10
144.018
20
-119.126
40
0.508
0
LINE
8
BLACK
6
CONTINUOUS
10
146.05
20
-118.618
11
147.066
21
-119.634
0
LINE
8
BLACK
6
CONTINUOUS
10
147.066
20
-118.618
11
146.05
21
-119.634
0
CIRCLE
8
BLACK
10
146.558
20
-119.126
40
0.508
0
LINE
8
BLACK
6
CONTINUOUS
10
148.59
20
-118.618
11
149.606
21
-119.634
0
LINE
8
BLACK
6
CONTINUOUS
10
149.606
20
-118.618
11
148.59
21
-119.634
0
CIRCLE
8
BLACK
10
149.098
20
-119.126
40
0.508
0
LINE
8
BLACK
6
CONTINUOUS
10
206.502
20
-73.914
11
207.518
21
-74.93
0
LINE
8
BLACK
6
CONTINUOUS
10
207.518
20
-73.914
11
206.502
21
-74.93
0
CIRCLE
8
BLACK
10
207.01
20
-74.422
40
0.508
0
LINE
8
BLACK
6
CONTINUOUS
10
206.502
20
-76.454
11
207.518
21
-77.47
0
LINE
8
BLACK
6
CONTINUOUS
10
207.518
20
-76.454
11
206.502
21
-77.47
0
CIRCLE
8
BLACK
10
207.01
20
-76.962
40
0.508
0
LINE
8
BLACK
6
CONTINUOUS
10
206.502
20
-78.994
11
207.518
21
-80.01
0
LINE
8
BLACK
6
CONTINUOUS
10
207.518
20
-78.994
11
206.502
21
-80.01
0
CIRCLE
8
BLACK
10
207.01
20
-79.502
40
0.508
0
LINE
8
BLACK
6
CONTINUOUS
10
206.502
20
-81.534
11
207.518
21
-82.55
0
LINE
8
BLACK
6
CONTINUOUS
10
207.518
20
-81.534
11
206.502
21
-82.55
0
CIRCLE
8
BLACK
10
207.01
20
-82.042
40
0.508
0
LINE
8
BLACK
6
CONTINUOUS
10
206.502
20
-84.074
11
207.518
21
-85.09
0
LINE
8
BLACK
6
CONTINUOUS
10
207.518
20
-84.074
11
206.502
21
-85.09
0
CIRCLE
8
BLACK
10
207.01
20
-84.582
40
0.508
0
LINE
8
BLACK
6
CONTINUOUS
10
206.502
20
-86.614
11
207.518
21
-87.63
0
LINE
8
BLACK
6
CONTINUOUS
10
207.518
20
-86.614
11
206.502
21
-87.63
0
CIRCLE
8
BLACK
10
207.01
20
-87.122
40
0.508
0
LINE
8
BLACK
6
CONTINUOUS
10
206.502
20
-89.154
11
207.518
21
-90.17
0
LINE
8
BLACK
6
CONTINUOUS
10
207.518
20
-89.154
11
206.502
21
-90.17
0
CIRCLE
8
BLACK
10
207.01
20
-89.662
40
0.508
0
LINE
8
BLACK
6
CONTINUOUS
10
206.502
20
-91.694
11
207.518
21
-92.71
0
LINE
8
BLACK
6
CONTINUOUS
10
207.518
20
-91.694
11
206.502
21
-92.71
0
CIRCLE
8
BLACK
10
207.01
20
-92.202
40
0.508
0
LINE
8
BLACK
6
CONTINUOUS
10
206.502
20
-94.234
11
207.518
21
-95.25
0
LINE
8
BLACK
6
CONTINUOUS
10
207.518
20
-94.234
11
206.502
21
-95.25
0
CIRCLE
8
BLACK
10
207.01
20
-94.742
40
0.508
0
LINE
8
BLACK
6
CONTINUOUS
10
206.502
20
-96.774
11
207.518
21
-97.79
0
LINE
8
BLACK
6
CONTINUOUS
10
207.518
20
-96.774
11
206.502
21
-97.79
0
CIRCLE
8
BLACK
10
207.01
20
-97.282
40
0.508
0
LINE
8
BLACK
6
CONTINUOUS
10
206.502
20
-99.314
11
207.518
21
-100.33
0
LINE
8
BLACK
6
CONTINUOUS
10
207.518
20
-99.314
11
206.502
21
-100.33
0
CIRCLE
8
BLACK
10
207.01
20
-99.822
40
0.508
0
LINE
8
BLACK
6
CONTINUOUS
10
206.502
20
-101.854
11
207.518
21
-102.87
0
LINE
8
BLACK
6
CONTINUOUS
10
207.518
20
-101.854
11
206.502
21
-102.87
0
CIRCLE
8
BLACK
10
207.01
20
-102.362
40
0.508
0
LINE
8
BLACK
6
CONTINUOUS
10
206.502
20
-104.394
11
207.518
21
-105.41
0
LINE
8
BLACK
6
CONTINUOUS
10
207.518
20
-104.394
11
206.502
21
-105.41
0
CIRCLE
8
BLACK
10
207.01
20
-104.902
40
0.508
0
LINE
8
BLACK
6
CONTINUOUS
10
206.502
20
-106.934
11
207.518
21
-107.95
0
LINE
8
BLACK
6
CONTINUOUS
10
207.518
20
-106.934
11
206.502
21
-107.95
0
CIRCLE
8
BLACK
10
207.01
20
-107.442
40
0.508
0
LINE
8
BLACK
6
CONTINUOUS
10
206.502
20
-109.474
11
207.518
21
-110.49
0
LINE
8
BLACK
6
CONTINUOUS
10
207.518
20
-109.474
11
206.502
21
-110.49
0
CIRCLE
8
BLACK
10
207.01
20
-109.982
40
0.508
0
LINE
8
BLACK
6
CONTINUOUS
10
206.502
20
-112.014
11
207.518
21
-113.03
0
LINE
8
BLACK
6
CONTINUOUS
10
207.518
20
-112.014
11
206.502
21
-113.03
0
CIRCLE
8
BLACK
10
207.01
20
-112.522
40
0.508
0
LINE
8
BLACK
6
CONTINUOUS
10
206.502
20
-114.554
11
207.518
21
-115.57
0
LINE
8
BLACK
6
CONTINUOUS
10
207.518
20
-114.554
11
206.502
21
-115.57
0
CIRCLE
8
BLACK
10
207.01
20
-115.062
40
0.508
0
LINE
8
BLACK
6
CONTINUOUS
10
209.042
20
-73.914
11
210.058
21
-74.93
0
LINE
8
BLACK
6
CONTINUOUS
10
210.058
20
-73.914
11
209.042
21
-74.93
0
CIRCLE
8
BLACK
10
209.55
20
-74.422
40
0.508
0
LINE
8
BLACK
6
CONTINUOUS
10
209.042
20
-76.454
11
210.058
21
-77.47
0
LINE
8
BLACK
6
CONTINUOUS
10
210.058
20
-76.454
11
209.042
21
-77.47
0
CIRCLE
8
BLACK
10
209.55
20
-76.962
40
0.508
0
LINE
8
BLACK
6
CONTINUOUS
10
209.042
20
-78.994
11
210.058
21
-80.01
0
LINE
8
BLACK
6
CONTINUOUS
10
210.058
20
-78.994
11
209.042
21
-80.01
0
CIRCLE
8
BLACK
10
209.55
20
-79.502
40
0.508
0
LINE
8
BLACK
6
CONTINUOUS
10
209.042
20
-81.534
11
210.058
21
-82.55
0
LINE
8
BLACK
6
CONTINUOUS
10
210.058
20
-81.534
11
209.042
21
-82.55
0
CIRCLE
8
BLACK
10
209.55
20
-82.042
40
0.508
0
LINE
8
BLACK
6
CONTINUOUS
10
209.042
20
-84.074
11
210.058
21
-85.09
0
LINE
8
BLACK
6
CONTINUOUS
10
210.058
20
-84.074
11
209.042
21
-85.09
0
CIRCLE
8
BLACK
10
209.55
20
-84.582
40
0.508
0
LINE
8
BLACK
6
CONTINUOUS
10
209.042
20
-86.614
11
210.058
21
-87.63
0
LINE
8
BLACK
6
CONTINUOUS
10
210.058
20
-86.614
11
209.042
21
-87.63
0
CIRCLE
8
BLACK
10
209.55
20
-87.122
40
0.508
0
LINE
8
BLACK
6
CONTINUOUS
10
209.042
20
-89.154
11
210.058
21
-90.17
0
LINE
8
BLACK
6
CONTINUOUS
10
210.058
20
-89.154
11
209.042
21
-90.17
0
CIRCLE
8
BLACK
10
209.55
20
-89.662
40
0.508
0
LINE
8
BLACK
6
CONTINUOUS
10
209.042
20
-91.694
11
210.058
21
-92.71
0
LINE
8
BLACK
6
CONTINUOUS
10
210.058
20
-91.694
11
209.042
21
-92.71
0
CIRCLE
8
BLACK
10
209.55
20
-92.202
40
0.508
0
LINE
8
BLACK
6
CONTINUOUS
10
209.042
20
-94.234
11
210.058
21
-95.25
0
LINE
8
BLACK
6
CONTINUOUS
10
210.058
20
-94.234
11
209.042
21
-95.25
0
CIRCLE
8
BLACK
10
209.55
20
-94.742
40
0.508
0
LINE
8
BLACK
6
CONTINUOUS
10
209.042
20
-96.774
11
210.058
21
-97.79
0
LINE
8
BLACK
6
CONTINUOUS
10
210.058
20
-96.774
11
209.042
21
-97.79
0
CIRCLE
8
BLACK
10
209.55
20
-97.282
40
0.508
0
LINE
8
BLACK
6
CONTINUOUS
10
209.042
20
-99.314
11
210.058
21
-100.33
0
LINE
8
BLACK
6
CONTINUOUS
10
210.058
20
-99.314
11
209.042
21
-100.33
0
CIRCLE
8
BLACK
10
209.55
20
-99.822
40
0.508
0
LINE
8
BLACK
6
CONTINUOUS
10
209.042
20
-101.854
11
210.058
21
-102.87
0
LINE
8
BLACK
6
CONTINUOUS
10
210.058
20
-101.854
11
209.042
21
-102.87
0
CIRCLE
8
BLACK
10
209.55
20
-102.362
40
0.508
0
LINE
8
BLACK
6
CONTINUOUS
10
209.042
20
-104.394
11
210.058
21
-105.41
0
LINE
8
BLACK
6
CONTINUOUS
10
210.058
20
-104.394
11
209.042
21
-105.41
0
CIRCLE
8
BLACK
10
209.55
20
-104.902
40
0.508
0
LINE
8
BLACK
6
CONTINUOUS
10
209.042
20
-106.934
11
210.058
21
-107.95
0
LINE
8
BLACK
6
CONTINUOUS
10
210.058
20
-106.934
11
209.042
21
-107.95
0
CIRCLE
8
BLACK
10
209.55
20
-107.442
40
0.508
0
LINE
8
BLACK
6
CONTINUOUS
10
209.042
20
-109.474
11
210.058
21
-110.49
0
LINE
8
BLACK
6
CONTINUOUS
10
210.058
20
-109.474
11
209.042
21
-110.49
0
CIRCLE
8
BLACK
10
209.55
20
-109.982
40
0.508
0
LINE
8
BLACK
6
CONTINUOUS
10
209.042
20
-112.014
11
210.058
21
-113.03
0
LINE
8
BLACK
6
CONTINUOUS
10
210.058
20
-112.014
11
209.042
21
-113.03
0
CIRCLE
8
BLACK
10
209.55
20
-112.522
40
0.508
0
LINE
8
BLACK
6
CONTINUOUS
10
209.042
20
-114.554
11
210.058
21
-115.57
0
LINE
8
BLACK
6
CONTINUOUS
10
210.058
20
-114.554
11
209.042
21
-115.57
0
CIRCLE
8
BLACK
10
209.55
20
-115.062
40
0.508
0
LINE
8
BLACK
6
CONTINUOUS
10
176.53
20
-118.618
11
177.546
21
-119.634
0
LINE
8
BLACK
6
CONTINUOUS
10
177.546
20
-118.618
11
176.53
21
-119.634
0
CIRCLE
8
BLACK
10
177.038
20
-119.126
40
0.508
0
LINE
8
BLACK
6
CONTINUOUS
10
179.07
20
-118.618
11
180.086
21
-119.634
0
LINE
8
BLACK
6
CONTINUOUS
10
180.086
20
-118.618
11
179.07
21
-119.634
0
CIRCLE
8
BLACK
10
179.578
20
-119.126
40
0.508
0
LINE
8
BLACK
6
CONTINUOUS
10
181.61
20
-118.618
11
182.626
21
-119.634
0
LINE
8
BLACK
6
CONTINUOUS
10
182.626
20
-118.618
11
181.61
21
-119.634
0
CIRCLE
8
BLACK
10
182.118
20
-119.126
40
0.508
0
LINE
8
BLACK
6
CONTINUOUS
10
184.15
20
-118.618
11
185.166
21
-119.634
0
LINE
8
BLACK
6
CONTINUOUS
10
185.166
20
-118.618
11
184.15
21
-119.634
0
CIRCLE
8
BLACK
10
184.658
20
-119.126
40
0.508
0
LINE
8
BLACK
6
CONTINUOUS
10
186.69
20
-118.618
11
187.706
21
-119.634
0
LINE
8
BLACK
6
CONTINUOUS
10
187.706
20
-118.618
11
186.69
21
-119.634
0
CIRCLE
8
BLACK
10
187.198
20
-119.126
40
0.508
0
LINE
8
BLACK
6
CONTINUOUS
10
189.23
20
-118.618
11
190.246
21
-119.634
0
LINE
8
BLACK
6
CONTINUOUS
10
190.246
20
-118.618
11
189.23
21
-119.634
0
CIRCLE
8
BLACK
10
189.738
20
-119.126
40
0.508
0
LINE
8
BLACK
6
CONTINUOUS
10
191.77
20
-118.618
11
192.786
21
-119.634
0
LINE
8
BLACK
6
CONTINUOUS
10
192.786
20
-118.618
11
191.77
21
-119.634
0
CIRCLE
8
BLACK
10
192.278
20
-119.126
40
0.508
0
LINE
8
BLACK
6
CONTINUOUS
10
194.31
20
-118.618
11
195.326
21
-119.634
0
LINE
8
BLACK
6
CONTINUOUS
10
195.326
20
-118.618
11
194.31
21
-119.634
0
CIRCLE
8
BLACK
10
194.818
20
-119.126
40
0.508
0
LINE
8
BLACK
6
CONTINUOUS
10
171.45
20
-70.358
11
172.466
21
-71.374
0
LINE
8
BLACK
6
CONTINUOUS
10
172.466
20
-70.358
11
171.45
21
-71.374
0
CIRCLE
8
BLACK
10
171.958
20
-70.866
40
0.508
0
LINE
8
BLACK
6
CONTINUOUS
10
173.99
20
-70.358
11
175.006
21
-71.374
0
LINE
8
BLACK
6
CONTINUOUS
10
175.006
20
-70.358
11
173.99
21
-71.374
0
CIRCLE
8
BLACK
10
174.498
20
-70.866
40
0.508
0
LINE
8
BLACK
6
CONTINUOUS
10
176.53
20
-70.358
11
177.546
21
-71.374
0
LINE
8
BLACK
6
CONTINUOUS
10
177.546
20
-70.358
11
176.53
21
-71.374
0
CIRCLE
8
BLACK
10
177.038
20
-70.866
40
0.508
0
LINE
8
BLACK
6
CONTINUOUS
10
179.07
20
-70.358
11
180.086
21
-71.374
0
LINE
8
BLACK
6
CONTINUOUS
10
180.086
20
-70.358
11
179.07
21
-71.374
0
CIRCLE
8
BLACK
10
179.578
20
-70.866
40
0.508
0
LINE
8
BLACK
6
CONTINUOUS
10
181.61
20
-70.358
11
182.626
21
-71.374
0
LINE
8
BLACK
6
CONTINUOUS
10
182.626
20
-70.358
11
181.61
21
-71.374
0
CIRCLE
8
BLACK
10
182.118
20
-70.866
40
0.508
0
LINE
8
BLACK
6
CONTINUOUS
10
184.15
20
-70.358
11
185.166
21
-71.374
0
LINE
8
BLACK
6
CONTINUOUS
10
185.166
20
-70.358
11
184.15
21
-71.374
0
CIRCLE
8
BLACK
10
184.658
20
-70.866
40
0.508
0
LINE
8
BLACK
6
CONTINUOUS
10
186.69
20
-70.358
11
187.706
21
-71.374
0
LINE
8
BLACK
6
CONTINUOUS
10
187.706
20
-70.358
11
186.69
21
-71.374
0
CIRCLE
8
BLACK
10
187.198
20
-70.866
40
0.508
0
LINE
8
BLACK
6
CONTINUOUS
10
189.23
20
-70.358
11
190.246
21
-71.374
0
LINE
8
BLACK
6
CONTINUOUS
10
190.246
20
-70.358
11
189.23
21
-71.374
0
CIRCLE
8
BLACK
10
189.738
20
-70.866
40
0.508
0
LINE
8
BLACK
6
CONTINUOUS
10
148.59
20
-70.358
11
149.606
21
-71.374
0
LINE
8
BLACK
6
CONTINUOUS
10
149.606
20
-70.358
11
148.59
21
-71.374
0
CIRCLE
8
BLACK
10
149.098
20
-70.866
40
0.508
0
LINE
8
BLACK
6
CONTINUOUS
10
151.13
20
-70.358
11
152.146
21
-71.374
0
LINE
8
BLACK
6
CONTINUOUS
10
152.146
20
-70.358
11
151.13
21
-71.374
0
CIRCLE
8
BLACK
10
151.638
20
-70.866
40
0.508
0
LINE
8
BLACK
6
CONTINUOUS
10
153.67
20
-70.358
11
154.686
21
-71.374
0
LINE
8
BLACK
6
CONTINUOUS
10
154.686
20
-70.358
11
153.67
21
-71.374
0
CIRCLE
8
BLACK
10
154.178
20
-70.866
40
0.508
0
LINE
8
BLACK
6
CONTINUOUS
10
156.21
20
-70.358
11
157.226
21
-71.374
0
LINE
8
BLACK
6
CONTINUOUS
10
157.226
20
-70.358
11
156.21
21
-71.374
0
CIRCLE
8
BLACK
10
156.718
20
-70.866
40
0.508
0
LINE
8
BLACK
6
CONTINUOUS
10
158.75
20
-70.358
11
159.766
21
-71.374
0
LINE
8
BLACK
6
CONTINUOUS
10
159.766
20
-70.358
11
158.75
21
-71.374
0
CIRCLE
8
BLACK
10
159.258
20
-70.866
40
0.508
0
LINE
8
BLACK
6
CONTINUOUS
10
161.29
20
-70.358
11
162.306
21
-71.374
0
LINE
8
BLACK
6
CONTINUOUS
10
162.306
20
-70.358
11
161.29
21
-71.374
0
CIRCLE
8
BLACK
10
161.798
20
-70.866
40
0.508
0
LINE
8
BLACK
6
CONTINUOUS
10
163.83
20
-70.358
11
164.846
21
-71.374
0
LINE
8
BLACK
6
CONTINUOUS
10
164.846
20
-70.358
11
163.83
21
-71.374
0
CIRCLE
8
BLACK
10
164.338
20
-70.866
40
0.508
0
LINE
8
BLACK
6
CONTINUOUS
10
166.37
20
-70.358
11
167.386
21
-71.374
0
LINE
8
BLACK
6
CONTINUOUS
10
167.386
20
-70.358
11
166.37
21
-71.374
0
CIRCLE
8
BLACK
10
166.878
20
-70.866
40
0.508
0
LINE
8
BLACK
6
CONTINUOUS
10
196.85
20
-70.358
11
197.866
21
-71.374
0
LINE
8
BLACK
6
CONTINUOUS
10
197.866
20
-70.358
11
196.85
21
-71.374
0
CIRCLE
8
BLACK
10
197.358
20
-70.866
40
0.508
0
LINE
8
BLACK
6
CONTINUOUS
10
196.85
20
-72.898
11
197.866
21
-73.914
0
LINE
8
BLACK
6
CONTINUOUS
10
197.866
20
-72.898
11
196.85
21
-73.914
0
CIRCLE
8
BLACK
10
197.358
20
-73.406
40
0.508
0
LINE
8
BLACK
6
CONTINUOUS
10
196.85
20
-75.438
11
197.866
21
-76.454
0
LINE
8
BLACK
6
CONTINUOUS
10
197.866
20
-75.438
11
196.85
21
-76.454
0
CIRCLE
8
BLACK
10
197.358
20
-75.946
40
0.508
0
LINE
8
BLACK
6
CONTINUOUS
10
196.85
20
-77.978
11
197.866
21
-78.994
0
LINE
8
BLACK
6
CONTINUOUS
10
197.866
20
-77.978
11
196.85
21
-78.994
0
CIRCLE
8
BLACK
10
197.358
20
-78.486
40
0.508
0
LINE
8
BLACK
6
CONTINUOUS
10
196.85
20
-80.518
11
197.866
21
-81.534
0
LINE
8
BLACK
6
CONTINUOUS
10
197.866
20
-80.518
11
196.85
21
-81.534
0
CIRCLE
8
BLACK
10
197.358
20
-81.026
40
0.508
0
LINE
8
BLACK
6
CONTINUOUS
10
196.85
20
-83.058
11
197.866
21
-84.074
0
LINE
8
BLACK
6
CONTINUOUS
10
197.866
20
-83.058
11
196.85
21
-84.074
0
CIRCLE
8
BLACK
10
197.358
20
-83.566
40
0.508
0
LINE
8
BLACK
6
CONTINUOUS
10
196.85
20
-85.598
11
197.866
21
-86.614
0
LINE
8
BLACK
6
CONTINUOUS
10
197.866
20
-85.598
11
196.85
21
-86.614
0
CIRCLE
8
BLACK
10
197.358
20
-86.106
40
0.508
0
LINE
8
BLACK
6
CONTINUOUS
10
196.85
20
-88.138
11
197.866
21
-89.154
0
LINE
8
BLACK
6
CONTINUOUS
10
197.866
20
-88.138
11
196.85
21
-89.154
0
CIRCLE
8
BLACK
10
197.358
20
-88.646
40
0.508
0
LINE
8
BLACK
6
CONTINUOUS
10
196.85
20
-90.678
11
197.866
21
-91.694
0
LINE
8
BLACK
6
CONTINUOUS
10
197.866
20
-90.678
11
196.85
21
-91.694
0
CIRCLE
8
BLACK
10
197.358
20
-91.186
40
0.508
0
LINE
8
BLACK
6
CONTINUOUS
10
196.85
20
-93.218
11
197.866
21
-94.234
0
LINE
8
BLACK
6
CONTINUOUS
10
197.866
20
-93.218
11
196.85
21
-94.234
0
CIRCLE
8
BLACK
10
197.358
20
-93.726
40
0.508
0
LINE
8
BLACK
6
CONTINUOUS
10
196.85
20
-95.758
11
197.866
21
-96.774
0
LINE
8
BLACK
6
CONTINUOUS
10
197.866
20
-95.758
11
196.85
21
-96.774
0
CIRCLE
8
BLACK
10
197.358
20
-96.266
40
0.508
0
LINE
8
BLACK
6
CONTINUOUS
10
196.85
20
-98.298
11
197.866
21
-99.314
0
LINE
8
BLACK
6
CONTINUOUS
10
197.866
20
-98.298
11
196.85
21
-99.314
0
CIRCLE
8
BLACK
10
197.358
20
-98.806
40
0.508
0
LINE
8
BLACK
6
CONTINUOUS
10
196.85
20
-100.838
11
197.866
21
-101.854
0
LINE
8
BLACK
6
CONTINUOUS
10
197.866
20
-100.838
11
196.85
21
-101.854
0
CIRCLE
8
BLACK
10
197.358
20
-101.346
40
0.508
0
LINE
8
BLACK
6
CONTINUOUS
10
196.85
20
-103.378
11
197.866
21
-104.394
0
LINE
8
BLACK
6
CONTINUOUS
10
197.866
20
-103.378
11
196.85
21
-104.394
0
CIRCLE
8
BLACK
10
197.358
20
-103.886
40
0.508
0
LINE
8
BLACK
6
CONTINUOUS
10
196.85
20
-105.918
11
197.866
21
-106.934
0
LINE
8
BLACK
6
CONTINUOUS
10
197.866
20
-105.918
11
196.85
21
-106.934
0
CIRCLE
8
BLACK
10
197.358
20
-106.426
40
0.508
0
LINE
8
BLACK
6
CONTINUOUS
10
196.85
20
-108.458
11
197.866
21
-109.474
0
LINE
8
BLACK
6
CONTINUOUS
10
197.866
20
-108.458
11
196.85
21
-109.474
0
CIRCLE
8
BLACK
10
197.358
20
-108.966
40
0.508
0
LINE
8
BLACK
6
CONTINUOUS
10
196.85
20
-110.998
11
197.866
21
-112.014
0
LINE
8
BLACK
6
CONTINUOUS
10
197.866
20
-110.998
11
196.85
21
-112.014
0
CIRCLE
8
BLACK
10
197.358
20
-111.506
40
0.508
0
LINE
8
BLACK
6
CONTINUOUS
10
196.85
20
-113.538
11
197.866
21
-114.554
0
LINE
8
BLACK
6
CONTINUOUS
10
197.866
20
-113.538
11
196.85
21
-114.554
0
CIRCLE
8
BLACK
10
197.358
20
-114.046
40
0.508
0
LINE
8
BLACK
6
CONTINUOUS
10
199.39
20
-70.358
11
200.406
21
-71.374
0
LINE
8
BLACK
6
CONTINUOUS
10
200.406
20
-70.358
11
199.39
21
-71.374
0
CIRCLE
8
BLACK
10
199.898
20
-70.866
40
0.508
0
LINE
8
BLACK
6
CONTINUOUS
10
199.39
20
-72.898
11
200.406
21
-73.914
0
LINE
8
BLACK
6
CONTINUOUS
10
200.406
20
-72.898
11
199.39
21
-73.914
0
CIRCLE
8
BLACK
10
199.898
20
-73.406
40
0.508
0
LINE
8
BLACK
6
CONTINUOUS
10
199.39
20
-75.438
11
200.406
21
-76.454
0
LINE
8
BLACK
6
CONTINUOUS
10
200.406
20
-75.438
11
199.39
21
-76.454
0
CIRCLE
8
BLACK
10
199.898
20
-75.946
40
0.508
0
LINE
8
BLACK
6
CONTINUOUS
10
199.39
20
-77.978
11
200.406
21
-78.994
0
LINE
8
BLACK
6
CONTINUOUS
10
200.406
20
-77.978
11
199.39
21
-78.994
0
CIRCLE
8
BLACK
10
199.898
20
-78.486
40
0.508
0
LINE
8
BLACK
6
CONTINUOUS
10
199.39
20
-80.518
11
200.406
21
-81.534
0
LINE
8
BLACK
6
CONTINUOUS
10
200.406
20
-80.518
11
199.39
21
-81.534
0
CIRCLE
8
BLACK
10
199.898
20
-81.026
40
0.508
0
LINE
8
BLACK
6
CONTINUOUS
10
199.39
20
-83.058
11
200.406
21
-84.074
0
LINE
8
BLACK
6
CONTINUOUS
10
200.406
20
-83.058
11
199.39
21
-84.074
0
CIRCLE
8
BLACK
10
199.898
20
-83.566
40
0.508
0
LINE
8
BLACK
6
CONTINUOUS
10
199.39
20
-85.598
11
200.406
21
-86.614
0
LINE
8
BLACK
6
CONTINUOUS
10
200.406
20
-85.598
11
199.39
21
-86.614
0
CIRCLE
8
BLACK
10
199.898
20
-86.106
40
0.508
0
LINE
8
BLACK
6
CONTINUOUS
10
199.39
20
-88.138
11
200.406
21
-89.154
0
LINE
8
BLACK
6
CONTINUOUS
10
200.406
20
-88.138
11
199.39
21
-89.154
0
CIRCLE
8
BLACK
10
199.898
20
-88.646
40
0.508
0
LINE
8
BLACK
6
CONTINUOUS
10
199.39
20
-90.678
11
200.406
21
-91.694
0
LINE
8
BLACK
6
CONTINUOUS
10
200.406
20
-90.678
11
199.39
21
-91.694
0
CIRCLE
8
BLACK
10
199.898
20
-91.186
40
0.508
0
LINE
8
BLACK
6
CONTINUOUS
10
199.39
20
-93.218
11
200.406
21
-94.234
0
LINE
8
BLACK
6
CONTINUOUS
10
200.406
20
-93.218
11
199.39
21
-94.234
0
CIRCLE
8
BLACK
10
199.898
20
-93.726
40
0.508
0
LINE
8
BLACK
6
CONTINUOUS
10
199.39
20
-95.758
11
200.406
21
-96.774
0
LINE
8
BLACK
6
CONTINUOUS
10
200.406
20
-95.758
11
199.39
21
-96.774
0
CIRCLE
8
BLACK
10
199.898
20
-96.266
40
0.508
0
LINE
8
BLACK
6
CONTINUOUS
10
199.39
20
-98.298
11
200.406
21
-99.314
0
LINE
8
BLACK
6
CONTINUOUS
10
200.406
20
-98.298
11
199.39
21
-99.314
0
CIRCLE
8
BLACK
10
199.898
20
-98.806
40
0.508
0
LINE
8
BLACK
6
CONTINUOUS
10
199.39
20
-100.838
11
200.406
21
-101.854
0
LINE
8
BLACK
6
CONTINUOUS
10
200.406
20
-100.838
11
199.39
21
-101.854
0
CIRCLE
8
BLACK
10
199.898
20
-101.346
40
0.508
0
LINE
8
BLACK
6
CONTINUOUS
10
199.39
20
-103.378
11
200.406
21
-104.394
0
LINE
8
BLACK
6
CONTINUOUS
10
200.406
20
-103.378
11
199.39
21
-104.394
0
CIRCLE
8
BLACK
10
199.898
20
-103.886
40
0.508
0
LINE
8
BLACK
6
CONTINUOUS
10
199.39
20
-105.918
11
200.406
21
-106.934
0
LINE
8
BLACK
6
CONTINUOUS
10
200.406
20
-105.918
11
199.39
21
-106.934
0
CIRCLE
8
BLACK
10
199.898
20
-106.426
40
0.508
0
LINE
8
BLACK
6
CONTINUOUS
10
199.39
20
-108.458
11
200.406
21
-109.474
0
LINE
8
BLACK
6
CONTINUOUS
10
200.406
20
-108.458
11
199.39
21
-109.474
0
CIRCLE
8
BLACK
10
199.898
20
-108.966
40
0.508
0
LINE
8
BLACK
6
CONTINUOUS
10
199.39
20
-110.998
11
200.406
21
-112.014
0
LINE
8
BLACK
6
CONTINUOUS
10
200.406
20
-110.998
11
199.39
21
-112.014
0
CIRCLE
8
BLACK
10
199.898
20
-111.506
40
0.508
0
LINE
8
BLACK
6
CONTINUOUS
10
199.39
20
-113.538
11
200.406
21
-114.554
0
LINE
8
BLACK
6
CONTINUOUS
10
200.406
20
-113.538
11
199.39
21
-114.554
0
CIRCLE
8
BLACK
10
199.898
20
-114.046
40
0.508
0
LINE
8
BLACK
6
CONTINUOUS
10
132.877
20
-78.14
11
134.077
21
-79.34
0
LINE
8
BLACK
6
CONTINUOUS
10
134.077
20
-78.14
11
132.877
21
-79.34
0
LINE
8
BLACK
6
CONTINUOUS
10
133.477
20
-78.14
11
133.477
21
-79.34
0
LINE
8
BLACK
6
CONTINUOUS
10
132.877
20
-78.74
11
134.077
21
-78.74
0
LINE
8
BLACK
6
CONTINUOUS
10
135.417
20
-78.14
11
136.617
21
-79.34
0
LINE
8
BLACK
6
CONTINUOUS
10
136.617
20
-78.14
11
135.417
21
-79.34
0
LINE
8
BLACK
6
CONTINUOUS
10
136.017
20
-78.14
11
136.017
21
-79.34
0
LINE
8
BLACK
6
CONTINUOUS
10
135.417
20
-78.74
11
136.617
21
-78.74
0
LINE
8
BLACK
6
CONTINUOUS
10
137.957
20
-78.14
11
139.157
21
-79.34
0
LINE
8
BLACK
6
CONTINUOUS
10
139.157
20
-78.14
11
137.957
21
-79.34
0
LINE
8
BLACK
6
CONTINUOUS
10
138.557
20
-78.14
11
138.557
21
-79.34
0
LINE
8
BLACK
6
CONTINUOUS
10
137.957
20
-78.74
11
139.157
21
-78.74
0
LINE
8
BLACK
6
CONTINUOUS
10
140.497
20
-78.14
11
141.697
21
-79.34
0
LINE
8
BLACK
6
CONTINUOUS
10
141.697
20
-78.14
11
140.497
21
-79.34
0
LINE
8
BLACK
6
CONTINUOUS
10
141.097
20
-78.14
11
141.097
21
-79.34
0
LINE
8
BLACK
6
CONTINUOUS
10
140.497
20
-78.74
11
141.697
21
-78.74
0
LINE
8
BLACK
6
CONTINUOUS
10
143.037
20
-78.14
11
144.237
21
-79.34
0
LINE
8
BLACK
6
CONTINUOUS
10
144.237
20
-78.14
11
143.037
21
-79.34
0
LINE
8
BLACK
6
CONTINUOUS
10
143.637
20
-78.14
11
143.637
21
-79.34
0
LINE
8
BLACK
6
CONTINUOUS
10
143.037
20
-78.74
11
144.237
21
-78.74
0
LINE
8
BLACK
6
CONTINUOUS
10
145.577
20
-78.14
11
146.777
21
-79.34
0
LINE
8
BLACK
6
CONTINUOUS
10
146.777
20
-78.14
11
145.577
21
-79.34
0
LINE
8
BLACK
6
CONTINUOUS
10
146.177
20
-78.14
11
146.177
21
-79.34
0
LINE
8
BLACK
6
CONTINUOUS
10
145.577
20
-78.74
11
146.777
21
-78.74
0
LINE
8
BLACK
6
CONTINUOUS
10
126.4
20
-78.013
11
127.6
21
-79.213
0
LINE
8
BLACK
6
CONTINUOUS
10
127.6
20
-78.013
11
126.4
21
-79.213
0
LINE
8
BLACK
6
CONTINUOUS
10
127
20
-78.013
11
127
21
-79.213
0
LINE
8
BLACK
6
CONTINUOUS
10
126.4
20
-78.613
11
127.6
21
-78.613
0
LINE
8
BLACK
6
CONTINUOUS
10
128.94
20
-78.013
11
130.14
21
-79.213
0
LINE
8
BLACK
6
CONTINUOUS
10
130.14
20
-78.013
11
128.94
21
-79.213
0
LINE
8
BLACK
6
CONTINUOUS
10
129.54
20
-78.013
11
129.54
21
-79.213
0
LINE
8
BLACK
6
CONTINUOUS
10
128.94
20
-78.613
11
130.14
21
-78.613
0
LINE
8
BLACK
6
CONTINUOUS
10
129.702
20
-90.0145
11
130.902
21
-91.2145
0
LINE
8
BLACK
6
CONTINUOUS
10
130.902
20
-90.0145
11
129.702
21
-91.2145
0
LINE
8
BLACK
6
CONTINUOUS
10
130.302
20
-90.0145
11
130.302
21
-91.2145
0
LINE
8
BLACK
6
CONTINUOUS
10
129.702
20
-90.6145
11
130.902
21
-90.6145
0
LINE
8
BLACK
6
CONTINUOUS
10
132.242
20
-90.0145
11
133.442
21
-91.2145
0
LINE
8
BLACK
6
CONTINUOUS
10
133.442
20
-90.0145
11
132.242
21
-91.2145
0
LINE
8
BLACK
6
CONTINUOUS
10
132.842
20
-90.0145
11
132.842
21
-91.2145
0
LINE
8
BLACK
6
CONTINUOUS
10
132.242
20
-90.6145
11
133.442
21
-90.6145
0
LINE
8
BLACK
6
CONTINUOUS
10
134.782
20
-90.0145
11
135.982
21
-91.2145
0
LINE
8
BLACK
6
CONTINUOUS
10
135.982
20
-90.0145
11
134.782
21
-91.2145
0
LINE
8
BLACK
6
CONTINUOUS
10
135.382
20
-90.0145
11
135.382
21
-91.2145
0
LINE
8
BLACK
6
CONTINUOUS
10
134.782
20
-90.6145
11
135.982
21
-90.6145
0
LINE
8
BLACK
6
CONTINUOUS
10
137.322
20
-90.0145
11
138.522
21
-91.2145
0
LINE
8
BLACK
6
CONTINUOUS
10
138.522
20
-90.0145
11
137.322
21
-91.2145
0
LINE
8
BLACK
6
CONTINUOUS
10
137.922
20
-90.0145
11
137.922
21
-91.2145
0
LINE
8
BLACK
6
CONTINUOUS
10
137.322
20
-90.6145
11
138.522
21
-90.6145
0
LINE
8
BLACK
6
CONTINUOUS
10
139.862
20
-90.0145
11
141.062
21
-91.2145
0
LINE
8
BLACK
6
CONTINUOUS
10
141.062
20
-90.0145
11
139.862
21
-91.2145
0
LINE
8
BLACK
6
CONTINUOUS
10
140.462
20
-90.0145
11
140.462
21
-91.2145
0
LINE
8
BLACK
6
CONTINUOUS
10
139.862
20
-90.6145
11
141.062
21
-90.6145
0
LINE
8
BLACK
6
CONTINUOUS
10
142.402
20
-90.0145
11
143.602
21
-91.2145
0
LINE
8
BLACK
6
CONTINUOUS
10
143.602
20
-90.0145
11
142.402
21
-91.2145
0
LINE
8
BLACK
6
CONTINUOUS
10
143.002
20
-90.0145
11
143.002
21
-91.2145
0
LINE
8
BLACK
6
CONTINUOUS
10
142.402
20
-90.6145
11
143.602
21
-90.6145
0
LINE
8
BLACK
6
CONTINUOUS
10
158.023
20
-85.125
11
159.223
21
-86.325
0
LINE
8
BLACK
6
CONTINUOUS
10
159.223
20
-85.125
11
158.023
21
-86.325
0
LINE
8
BLACK
6
CONTINUOUS
10
158.623
20
-85.125
11
158.623
21
-86.325
0
LINE
8
BLACK
6
CONTINUOUS
10
158.023
20
-85.725
11
159.223
21
-85.725
0
LINE
8
BLACK
6
CONTINUOUS
10
160.563
20
-85.125
11
161.763
21
-86.325
0
LINE
8
BLACK
6
CONTINUOUS
10
161.763
20
-85.125
11
160.563
21
-86.325
0
LINE
8
BLACK
6
CONTINUOUS
10
161.163
20
-85.125
11
161.163
21
-86.325
0
LINE
8
BLACK
6
CONTINUOUS
10
160.563
20
-85.725
11
161.763
21
-85.725
0
LINE
8
BLACK
6
CONTINUOUS
10
129.702
20
-106.715
11
130.902
21
-107.915
0
LINE
8
BLACK
6
CONTINUOUS
10
130.902
20
-106.715
11
129.702
21
-107.915
0
LINE
8
BLACK
6
CONTINUOUS
10
130.302
20
-106.715
11
130.302
21
-107.915
0
LINE
8
BLACK
6
CONTINUOUS
10
129.702
20
-107.315
11
130.902
21
-107.315
0
LINE
8
BLACK
6
CONTINUOUS
10
132.242
20
-106.715
11
133.442
21
-107.915
0
LINE
8
BLACK
6
CONTINUOUS
10
133.442
20
-106.715
11
132.242
21
-107.915
0
LINE
8
BLACK
6
CONTINUOUS
10
132.842
20
-106.715
11
132.842
21
-107.915
0
LINE
8
BLACK
6
CONTINUOUS
10
132.242
20
-107.315
11
133.442
21
-107.315
0
LINE
8
BLACK
6
CONTINUOUS
10
134.782
20
-106.715
11
135.982
21
-107.915
0
LINE
8
BLACK
6
CONTINUOUS
10
135.982
20
-106.715
11
134.782
21
-107.915
0
LINE
8
BLACK
6
CONTINUOUS
10
135.382
20
-106.715
11
135.382
21
-107.915
0
LINE
8
BLACK
6
CONTINUOUS
10
134.782
20
-107.315
11
135.982
21
-107.315
0
LINE
8
BLACK
6
CONTINUOUS
10
137.322
20
-106.715
11
138.522
21
-107.915
0
LINE
8
BLACK
6
CONTINUOUS
10
138.522
20
-106.715
11
137.322
21
-107.915
0
LINE
8
BLACK
6
CONTINUOUS
10
137.922
20
-106.715
11
137.922
21
-107.915
0
LINE
8
BLACK
6
CONTINUOUS
10
137.322
20
-107.315
11
138.522
21
-107.315
0
LINE
8
BLACK
6
CONTINUOUS
10
139.862
20
-106.715
11
141.062
21
-107.915
0
LINE
8
BLACK
6
CONTINUOUS
10
141.062
20
-106.715
11
139.862
21
-107.915
0
LINE
8
BLACK
6
CONTINUOUS
10
140.462
20
-106.715
11
140.462
21
-107.915
0
LINE
8
BLACK
6
CONTINUOUS
10
139.862
20
-107.315
11
141.062
21
-107.315
0
LINE
8
BLACK
6
CONTINUOUS
10
142.402
20
-106.715
11
143.602
21
-107.915
0
LINE
8
BLACK
6
CONTINUOUS
10
143.602
20
-106.715
11
142.402
21
-107.915
0
LINE
8
BLACK
6
CONTINUOUS
10
143.002
20
-106.715
11
143.002
21
-107.915
0
LINE
8
BLACK
6
CONTINUOUS
10
142.402
20
-107.315
11
143.602
21
-107.315
0
LINE
8
BLACK
6
CONTINUOUS
10
186.534
20
-78.7115
11
187.734
21
-79.9115
0
LINE
8
BLACK
6
CONTINUOUS
10
187.734
20
-78.7115
11
186.534
21
-79.9115
0
LINE
8
BLACK
6
CONTINUOUS
10
187.134
20
-78.7115
11
187.134
21
-79.9115
0
LINE
8
BLACK
6
CONTINUOUS
10
186.534
20
-79.3115
11
187.734
21
-79.3115
0
LINE
8
BLACK
6
CONTINUOUS
10
186.534
20
-81.2515
11
187.734
21
-82.4515
0
LINE
8
BLACK
6
CONTINUOUS
10
187.734
20
-81.2515
11
186.534
21
-82.4515
0
LINE
8
BLACK
6
CONTINUOUS
10
187.134
20
-81.2515
11
187.134
21
-82.4515
0
LINE
8
BLACK
6
CONTINUOUS
10
186.534
20
-81.8515
11
187.734
21
-81.8515
0
LINE
8
BLACK
6
CONTINUOUS
10
186.534
20
-83.7915
11
187.734
21
-84.9915
0
LINE
8
BLACK
6
CONTINUOUS
10
187.734
20
-83.7915
11
186.534
21
-84.9915
0
LINE
8
BLACK
6
CONTINUOUS
10
187.134
20
-83.7915
11
187.134
21
-84.9915
0
LINE
8
BLACK
6
CONTINUOUS
10
186.534
20
-84.3915
11
187.734
21
-84.3915
0
LINE
8
BLACK
6
CONTINUOUS
10
186.534
20
-86.3315
11
187.734
21
-87.5315
0
LINE
8
BLACK
6
CONTINUOUS
10
187.734
20
-86.3315
11
186.534
21
-87.5315
0
LINE
8
BLACK
6
CONTINUOUS
10
187.134
20
-86.3315
11
187.134
21
-87.5315
0
LINE
8
BLACK
6
CONTINUOUS
10
186.534
20
-86.9315
11
187.734
21
-86.9315
0
LINE
8
BLACK
6
CONTINUOUS
10
186.534
20
-88.8715
11
187.734
21
-90.0715
0
LINE
8
BLACK
6
CONTINUOUS
10
187.734
20
-88.8715
11
186.534
21
-90.0715
0
LINE
8
BLACK
6
CONTINUOUS
10
187.134
20
-88.8715
11
187.134
21
-90.0715
0
LINE
8
BLACK
6
CONTINUOUS
10
186.534
20
-89.4715
11
187.734
21
-89.4715
0
LINE
8
BLACK
6
CONTINUOUS
10
186.534
20
-91.4115
11
187.734
21
-92.6115
0
LINE
8
BLACK
6
CONTINUOUS
10
187.734
20
-91.4115
11
186.534
21
-92.6115
0
LINE
8
BLACK
6
CONTINUOUS
10
187.134
20
-91.4115
11
187.134
21
-92.6115
0
LINE
8
BLACK
6
CONTINUOUS
10
186.534
20
-92.0115
11
187.734
21
-92.0115
0
LINE
8
BLACK
6
CONTINUOUS
10
186.534
20
-93.9515
11
187.734
21
-95.1515
0
LINE
8
BLACK
6
CONTINUOUS
10
187.734
20
-93.9515
11
186.534
21
-95.1515
0
LINE
8
BLACK
6
CONTINUOUS
10
187.134
20
-93.9515
11
187.134
21
-95.1515
0
LINE
8
BLACK
6
CONTINUOUS
10
186.534
20
-94.5515
11
187.734
21
-94.5515
0
LINE
8
BLACK
6
CONTINUOUS
10
186.534
20
-96.4915
11
187.734
21
-97.6915
0
LINE
8
BLACK
6
CONTINUOUS
10
187.734
20
-96.4915
11
186.534
21
-97.6915
0
LINE
8
BLACK
6
CONTINUOUS
10
187.134
20
-96.4915
11
187.134
21
-97.6915
0
LINE
8
BLACK
6
CONTINUOUS
10
186.534
20
-97.0915
11
187.734
21
-97.0915
0
LINE
8
BLACK
6
CONTINUOUS
10
186.534
20
-99.0315
11
187.734
21
-100.231
0
LINE
8
BLACK
6
CONTINUOUS
10
187.734
20
-99.0315
11
186.534
21
-100.231
0
LINE
8
BLACK
6
CONTINUOUS
10
187.134
20
-99.0315
11
187.134
21
-100.231
0
LINE
8
BLACK
6
CONTINUOUS
10
186.534
20
-99.6315
11
187.734
21
-99.6315
0
LINE
8
BLACK
6
CONTINUOUS
10
186.534
20
-101.572
11
187.734
21
-102.771
0
LINE
8
BLACK
6
CONTINUOUS
10
187.734
20
-101.572
11
186.534
21
-102.771
0
LINE
8
BLACK
6
CONTINUOUS
10
187.134
20
-101.572
11
187.134
21
-102.771
0
LINE
8
BLACK
6
CONTINUOUS
10
186.534
20
-102.171
11
187.734
21
-102.171
0
LINE
8
BLACK
6
CONTINUOUS
10
173.58
20
-78.7115
11
174.78
21
-79.9115
0
LINE
8
BLACK
6
CONTINUOUS
10
174.78
20
-78.7115
11
173.58
21
-79.9115
0
LINE
8
BLACK
6
CONTINUOUS
10
174.18
20
-78.7115
11
174.18
21
-79.9115
0
LINE
8
BLACK
6
CONTINUOUS
10
173.58
20
-79.3115
11
174.78
21
-79.3115
0
LINE
8
BLACK
6
CONTINUOUS
10
173.58
20
-81.2515
11
174.78
21
-82.4515
0
LINE
8
BLACK
6
CONTINUOUS
10
174.78
20
-81.2515
11
173.58
21
-82.4515
0
LINE
8
BLACK
6
CONTINUOUS
10
174.18
20
-81.2515
11
174.18
21
-82.4515
0
LINE
8
BLACK
6
CONTINUOUS
10
173.58
20
-81.8515
11
174.78
21
-81.8515
0
LINE
8
BLACK
6
CONTINUOUS
10
173.58
20
-83.7915
11
174.78
21
-84.9915
0
LINE
8
BLACK
6
CONTINUOUS
10
174.78
20
-83.7915
11
173.58
21
-84.9915
0
LINE
8
BLACK
6
CONTINUOUS
10
174.18
20
-83.7915
11
174.18
21
-84.9915
0
LINE
8
BLACK
6
CONTINUOUS
10
173.58
20
-84.3915
11
174.78
21
-84.3915
0
LINE
8
BLACK
6
CONTINUOUS
10
173.58
20
-86.3315
11
174.78
21
-87.5315
0
LINE
8
BLACK
6
CONTINUOUS
10
174.78
20
-86.3315
11
173.58
21
-87.5315
0
LINE
8
BLACK
6
CONTINUOUS
10
174.18
20
-86.3315
11
174.18
21
-87.5315
0
LINE
8
BLACK
6
CONTINUOUS
10
173.58
20
-86.9315
11
174.78
21
-86.9315
0
LINE
8
BLACK
6
CONTINUOUS
10
173.58
20
-88.8715
11
174.78
21
-90.0715
0
LINE
8
BLACK
6
CONTINUOUS
10
174.78
20
-88.8715
11
173.58
21
-90.0715
0
LINE
8
BLACK
6
CONTINUOUS
10
174.18
20
-88.8715
11
174.18
21
-90.0715
0
LINE
8
BLACK
6
CONTINUOUS
10
173.58
20
-89.4715
11
174.78
21
-89.4715
0
LINE
8
BLACK
6
CONTINUOUS
10
173.58
20
-91.4115
11
174.78
21
-92.6115
0
LINE
8
BLACK
6
CONTINUOUS
10
174.78
20
-91.4115
11
173.58
21
-92.6115
0
LINE
8
BLACK
6
CONTINUOUS
10
174.18
20
-91.4115
11
174.18
21
-92.6115
0
LINE
8
BLACK
6
CONTINUOUS
10
173.58
20
-92.0115
11
174.78
21
-92.0115
0
LINE
8
BLACK
6
CONTINUOUS
10
173.58
20
-93.9515
11
174.78
21
-95.1515
0
LINE
8
BLACK
6
CONTINUOUS
10
174.78
20
-93.9515
11
173.58
21
-95.1515
0
LINE
8
BLACK
6
CONTINUOUS
10
174.18
20
-93.9515
11
174.18
21
-95.1515
0
LINE
8
BLACK
6
CONTINUOUS
10
173.58
20
-94.5515
11
174.78
21
-94.5515
0
LINE
8
BLACK
6
CONTINUOUS
10
173.58
20
-96.4915
11
174.78
21
-97.6915
0
LINE
8
BLACK
6
CONTINUOUS
10
174.78
20
-96.4915
11
173.58
21
-97.6915
0
LINE
8
BLACK
6
CONTINUOUS
10
174.18
20
-96.4915
11
174.18
21
-97.6915
0
LINE
8
BLACK
6
CONTINUOUS
10
173.58
20
-97.0915
11
174.78
21
-97.0915
0
LINE
8
BLACK
6
CONTINUOUS
10
173.58
20
-99.0315
11
174.78
21
-100.231
0
LINE
8
BLACK
6
CONTINUOUS
10
174.78
20
-99.0315
11
173.58
21
-100.231
0
LINE
8
BLACK
6
CONTINUOUS
10
174.18
20
-99.0315
11
174.18
21
-100.231
0
LINE
8
BLACK
6
CONTINUOUS
10
173.58
20
-99.6315
11
174.78
21
-99.6315
0
LINE
8
BLACK
6
CONTINUOUS
10
173.58
20
-101.572
11
174.78
21
-102.771
0
LINE
8
BLACK
6
CONTINUOUS
10
174.78
20
-101.572
11
173.58
21
-102.771
0
LINE
8
BLACK
6
CONTINUOUS
10
174.18
20
-101.572
11
174.18
21
-102.771
0
LINE
8
BLACK
6
CONTINUOUS
10
173.58
20
-102.171
11
174.78
21
-102.171
0
LINE
8
BLACK
6
CONTINUOUS
10
129.766
20
-98.6505
11
130.966
21
-99.8505
0
LINE
8
BLACK
6
CONTINUOUS
10
130.966
20
-98.6505
11
129.766
21
-99.8505
0
LINE
8
BLACK
6
CONTINUOUS
10
130.366
20
-98.6505
11
130.366
21
-99.8505
0
LINE
8
BLACK
6
CONTINUOUS
10
129.766
20
-99.2505
11
130.966
21
-99.2505
0
LINE
8
BLACK
6
CONTINUOUS
10
132.306
20
-98.6505
11
133.506
21
-99.8505
0
LINE
8
BLACK
6
CONTINUOUS
10
133.506
20
-98.6505
11
132.306
21
-99.8505
0
LINE
8
BLACK
6
CONTINUOUS
10
132.906
20
-98.6505
11
132.906
21
-99.8505
0
LINE
8
BLACK
6
CONTINUOUS
10
132.306
20
-99.2505
11
133.506
21
-99.2505
0
LINE
8
BLACK
6
CONTINUOUS
10
134.846
20
-98.6505
11
136.046
21
-99.8505
0
LINE
8
BLACK
6
CONTINUOUS
10
136.046
20
-98.6505
11
134.846
21
-99.8505
0
LINE
8
BLACK
6
CONTINUOUS
10
135.446
20
-98.6505
11
135.446
21
-99.8505
0
LINE
8
BLACK
6
CONTINUOUS
10
134.846
20
-99.2505
11
136.046
21
-99.2505
0
LINE
8
BLACK
6
CONTINUOUS
10
137.386
20
-98.6505
11
138.586
21
-99.8505
0
LINE
8
BLACK
6
CONTINUOUS
10
138.586
20
-98.6505
11
137.386
21
-99.8505
0
LINE
8
BLACK
6
CONTINUOUS
10
137.986
20
-98.6505
11
137.986
21
-99.8505
0
LINE
8
BLACK
6
CONTINUOUS
10
137.386
20
-99.2505
11
138.586
21
-99.2505
0
LINE
8
BLACK
6
CONTINUOUS
10
139.926
20
-98.6505
11
141.126
21
-99.8505
0
LINE
8
BLACK
6
CONTINUOUS
10
141.126
20
-98.6505
11
139.926
21
-99.8505
0
LINE
8
BLACK
6
CONTINUOUS
10
140.526
20
-98.6505
11
140.526
21
-99.8505
0
LINE
8
BLACK
6
CONTINUOUS
10
139.926
20
-99.2505
11
141.126
21
-99.2505
0
LINE
8
BLACK
6
CONTINUOUS
10
142.466
20
-98.6505
11
143.666
21
-99.8505
0
LINE
8
BLACK
6
CONTINUOUS
10
143.666
20
-98.6505
11
142.466
21
-99.8505
0
LINE
8
BLACK
6
CONTINUOUS
10
143.066
20
-98.6505
11
143.066
21
-99.8505
0
LINE
8
BLACK
6
CONTINUOUS
10
142.466
20
-99.2505
11
143.666
21
-99.2505
0
LINE
8
BLACK
6
CONTINUOUS
10
150.53
20
-85.125
11
151.73
21
-86.325
0
LINE
8
BLACK
6
CONTINUOUS
10
151.73
20
-85.125
11
150.53
21
-86.325
0
LINE
8
BLACK
6
CONTINUOUS
10
151.13
20
-85.125
11
151.13
21
-86.325
0
LINE
8
BLACK
6
CONTINUOUS
10
150.53
20
-85.725
11
151.73
21
-85.725
0
LINE
8
BLACK
6
CONTINUOUS
10
153.07
20
-85.125
11
154.27
21
-86.325
0
LINE
8
BLACK
6
CONTINUOUS
10
154.27
20
-85.125
11
153.07
21
-86.325
0
LINE
8
BLACK
6
CONTINUOUS
10
153.67
20
-85.125
11
153.67
21
-86.325
0
LINE
8
BLACK
6
CONTINUOUS
10
153.07
20
-85.725
11
154.27
21
-85.725
0
LINE
8
BLACK
6
CONTINUOUS
10
164.119
20
-91.348
11
165.319
21
-92.548
0
LINE
8
BLACK
6
CONTINUOUS
10
165.319
20
-91.348
11
164.119
21
-92.548
0
LINE
8
BLACK
6
CONTINUOUS
10
164.719
20
-91.348
11
164.719
21
-92.548
0
LINE
8
BLACK
6
CONTINUOUS
10
164.119
20
-91.948
11
165.319
21
-91.948
0
LINE
8
BLACK
6
CONTINUOUS
10
164.119
20
-93.888
11
165.319
21
-95.088
0
LINE
8
BLACK
6
CONTINUOUS
10
165.319
20
-93.888
11
164.119
21
-95.088
0
LINE
8
BLACK
6
CONTINUOUS
10
164.719
20
-93.888
11
164.719
21
-95.088
0
LINE
8
BLACK
6
CONTINUOUS
10
164.119
20
-94.488
11
165.319
21
-94.488
0
LINE
8
BLACK
6
CONTINUOUS
10
164.119
20
-96.428
11
165.319
21
-97.628
0
LINE
8
BLACK
6
CONTINUOUS
10
165.319
20
-96.428
11
164.119
21
-97.628
0
LINE
8
BLACK
6
CONTINUOUS
10
164.719
20
-96.428
11
164.719
21
-97.628
0
LINE
8
BLACK
6
CONTINUOUS
10
164.119
20
-97.028
11
165.319
21
-97.028
0
LINE
8
BLACK
6
CONTINUOUS
10
164.119
20
-98.968
11
165.319
21
-100.168
0
LINE
8
BLACK
6
CONTINUOUS
10
165.319
20
-98.968
11
164.119
21
-100.168
0
LINE
8
BLACK
6
CONTINUOUS
10
164.719
20
-98.968
11
164.719
21
-100.168
0
LINE
8
BLACK
6
CONTINUOUS
10
164.119
20
-99.568
11
165.319
21
-99.568
0
LINE
8
BLACK
6
CONTINUOUS
10
164.119
20
-101.508
11
165.319
21
-102.708
0
LINE
8
BLACK
6
CONTINUOUS
10
165.319
20
-101.508
11
164.119
21
-102.708
0
LINE
8
BLACK
6
CONTINUOUS
10
164.719
20
-101.508
11
164.719
21
-102.708
0
LINE
8
BLACK
6
CONTINUOUS
10
164.119
20
-102.108
11
165.319
21
-102.108
0
LINE
8
BLACK
6
CONTINUOUS
10
164.119
20
-104.048
11
165.319
21
-105.248
0
LINE
8
BLACK
6
CONTINUOUS
10
165.319
20
-104.048
11
164.119
21
-105.248
0
LINE
8
BLACK
6
CONTINUOUS
10
164.719
20
-104.048
11
164.719
21
-105.248
0
LINE
8
BLACK
6
CONTINUOUS
10
164.119
20
-104.648
11
165.319
21
-104.648
0
LINE
8
BLACK
6
CONTINUOUS
10
164.119
20
-106.588
11
165.319
21
-107.788
0
LINE
8
BLACK
6
CONTINUOUS
10
165.319
20
-106.588
11
164.119
21
-107.788
0
LINE
8
BLACK
6
CONTINUOUS
10
164.719
20
-106.588
11
164.719
21
-107.788
0
LINE
8
BLACK
6
CONTINUOUS
10
164.119
20
-107.188
11
165.319
21
-107.188
0
LINE
8
BLACK
6
CONTINUOUS
10
164.119
20
-109.128
11
165.319
21
-110.328
0
LINE
8
BLACK
6
CONTINUOUS
10
165.319
20
-109.128
11
164.119
21
-110.328
0
LINE
8
BLACK
6
CONTINUOUS
10
164.719
20
-109.128
11
164.719
21
-110.328
0
LINE
8
BLACK
6
CONTINUOUS
10
164.119
20
-109.728
11
165.319
21
-109.728
0
LINE
8
BLACK
6
CONTINUOUS
10
127.63
20
-126.398
11
127.63
21
-123.398
0
LINE
8
BLACK
6
CONTINUOUS
10
127.63
20
-123.398
11
128.345
21
-123.398
0
LINE
8
BLACK
6
CONTINUOUS
10
128.345
20
-123.398
11
128.773
21
-123.541
0
LINE
8
BLACK
6
CONTINUOUS
10
128.773
20
-123.541
11
129.059
21
-123.827
0
LINE
8
BLACK
6
CONTINUOUS
10
129.059
20
-123.827
11
129.202
21
-124.112
0
LINE
8
BLACK
6
CONTINUOUS
10
129.202
20
-124.112
11
129.345
21
-124.684
0
LINE
8
BLACK
6
CONTINUOUS
10
129.345
20
-124.684
11
129.345
21
-125.112
0
LINE
8
BLACK
6
CONTINUOUS
10
129.345
20
-125.112
11
129.202
21
-125.684
0
LINE
8
BLACK
6
CONTINUOUS
10
129.202
20
-125.684
11
129.059
21
-125.97
0
LINE
8
BLACK
6
CONTINUOUS
10
129.059
20
-125.97
11
128.773
21
-126.255
0
LINE
8
BLACK
6
CONTINUOUS
10
128.773
20
-126.255
11
128.345
21
-126.398
0
LINE
8
BLACK
6
CONTINUOUS
10
128.345
20
-126.398
11
127.63
21
-126.398
0
LINE
8
BLACK
6
CONTINUOUS
10
130.63
20
-126.398
11
130.63
21
-124.398
0
LINE
8
BLACK
6
CONTINUOUS
10
130.63
20
-124.97
11
130.773
21
-124.684
0
LINE
8
BLACK
6
CONTINUOUS
10
130.773
20
-124.684
11
130.916
21
-124.541
0
LINE
8
BLACK
6
CONTINUOUS
10
130.916
20
-124.541
11
131.202
21
-124.398
0
LINE
8
BLACK
6
CONTINUOUS
10
131.202
20
-124.398
11
131.487
21
-124.398
0
LINE
8
BLACK
6
CONTINUOUS
10
132.487
20
-126.398
11
132.487
21
-124.398
0
LINE
8
BLACK
6
CONTINUOUS
10
132.487
20
-123.398
11
132.345
21
-123.541
0
LINE
8
BLACK
6
CONTINUOUS
10
132.345
20
-123.541
11
132.487
21
-123.684
0
LINE
8
BLACK
6
CONTINUOUS
10
132.487
20
-123.684
11
132.63
21
-123.541
0
LINE
8
BLACK
6
CONTINUOUS
10
132.63
20
-123.541
11
132.487
21
-123.398
0
LINE
8
BLACK
6
CONTINUOUS
10
132.487
20
-123.398
11
132.487
21
-123.684
0
LINE
8
BLACK
6
CONTINUOUS
10
134.345
20
-126.398
11
134.059
21
-126.255
0
LINE
8
BLACK
6
CONTINUOUS
10
134.059
20
-126.255
11
133.916
21
-125.97
0
LINE
8
BLACK
6
CONTINUOUS
10
133.916
20
-125.97
11
133.916
21
-123.398
0
LINE
8
BLACK
6
CONTINUOUS
10
135.916
20
-126.398
11
135.63
21
-126.255
0
LINE
8
BLACK
6
CONTINUOUS
10
135.63
20
-126.255
11
135.487
21
-125.97
0
LINE
8
BLACK
6
CONTINUOUS
10
135.487
20
-125.97
11
135.487
21
-123.398
0
LINE
8
BLACK
6
CONTINUOUS
10
139.345
20
-126.398
11
139.345
21
-123.398
0
LINE
8
BLACK
6
CONTINUOUS
10
139.345
20
-123.398
11
140.345
21
-125.541
0
LINE
8
BLACK
6
CONTINUOUS
10
140.345
20
-125.541
11
141.345
21
-123.398
0
LINE
8
BLACK
6
CONTINUOUS
10
141.345
20
-123.398
11
141.345
21
-126.398
0
LINE
8
BLACK
6
CONTINUOUS
10
144.059
20
-126.398
11
144.059
21
-124.827
0
LINE
8
BLACK
6
CONTINUOUS
10
144.059
20
-124.827
11
143.916
21
-124.541
0
LINE
8
BLACK
6
CONTINUOUS
10
143.916
20
-124.541
11
143.63
21
-124.398
0
LINE
8
BLACK
6
CONTINUOUS
10
143.63
20
-124.398
11
143.059
21
-124.398
0
LINE
8
BLACK
6
CONTINUOUS
10
143.059
20
-124.398
11
142.773
21
-124.541
0
LINE
8
BLACK
6
CONTINUOUS
10
144.059
20
-126.255
11
143.773
21
-126.398
0
LINE
8
BLACK
6
CONTINUOUS
10
143.773
20
-126.398
11
143.059
21
-126.398
0
LINE
8
BLACK
6
CONTINUOUS
10
143.059
20
-126.398
11
142.773
21
-126.255
0
LINE
8
BLACK
6
CONTINUOUS
10
142.773
20
-126.255
11
142.63
21
-125.97
0
LINE
8
BLACK
6
CONTINUOUS
10
142.63
20
-125.97
11
142.63
21
-125.684
0
LINE
8
BLACK
6
CONTINUOUS
10
142.63
20
-125.684
11
142.773
21
-125.398
0
LINE
8
BLACK
6
CONTINUOUS
10
142.773
20
-125.398
11
143.059
21
-125.255
0
LINE
8
BLACK
6
CONTINUOUS
10
143.059
20
-125.255
11
143.773
21
-125.255
0
LINE
8
BLACK
6
CONTINUOUS
10
143.773
20
-125.255
11
144.059
21
-125.112
0
LINE
8
BLACK
6
CONTINUOUS
10
145.487
20
-124.398
11
145.487
21
-127.398
0
LINE
8
BLACK
6
CONTINUOUS
10
145.487
20
-124.541
11
145.773
21
-124.398
0
LINE
8
BLACK
6
CONTINUOUS
10
145.773
20
-124.398
11
146.345
21
-124.398
0
LINE
8
BLACK
6
CONTINUOUS
10
146.345
20
-124.398
11
146.63
21
-124.541
0
LINE
8
BLACK
6
CONTINUOUS
10
146.63
20
-124.541
11
146.773
21
-124.684
0
LINE
8
BLACK
6
CONTINUOUS
10
146.773
20
-124.684
11
146.916
21
-124.97
0
LINE
8
BLACK
6
CONTINUOUS
10
146.916
20
-124.97
11
146.916
21
-125.827
0
LINE
8
BLACK
6
CONTINUOUS
10
146.916
20
-125.827
11
146.773
21
-126.112
0
LINE
8
BLACK
6
CONTINUOUS
10
146.773
20
-126.112
11
146.63
21
-126.255
0
LINE
8
BLACK
6
CONTINUOUS
10
146.63
20
-126.255
11
146.345
21
-126.398
0
LINE
8
BLACK
6
CONTINUOUS
10
146.345
20
-126.398
11
145.773
21
-126.398
0
LINE
8
BLACK
6
CONTINUOUS
10
145.773
20
-126.398
11
145.487
21
-126.255
0
LINE
8
BLACK
6
CONTINUOUS
10
148.202
20
-126.112
11
148.345
21
-126.255
0
LINE
8
BLACK
6
CONTINUOUS
10
148.345
20
-126.255
11
148.202
21
-126.398
0
LINE
8
BLACK
6
CONTINUOUS
10
148.202
20
-126.398
11
148.059
21
-126.255
0
LINE
8
BLACK
6
CONTINUOUS
10
148.059
20
-126.255
11
148.202
21
-126.112
0
LINE
8
BLACK
6
CONTINUOUS
10
148.202
20
-126.112
11
148.202
21
-126.398
0
LINE
8
BLACK
6
CONTINUOUS
10
148.202
20
-124.541
11
148.345
21
-124.684
0
LINE
8
BLACK
6
CONTINUOUS
10
148.345
20
-124.684
11
148.202
21
-124.827
0
LINE
8
BLACK
6
CONTINUOUS
10
148.202
20
-124.827
11
148.059
21
-124.684
0
LINE
8
BLACK
6
CONTINUOUS
10
148.059
20
-124.684
11
148.202
21
-124.541
0
LINE
8
BLACK
6
CONTINUOUS
10
148.202
20
-124.541
11
148.202
21
-124.827
0
LINE
8
BLACK
6
CONTINUOUS
10
124.366
20
-131.141
11
124.766
21
-131.541
0
LINE
8
BLACK
6
CONTINUOUS
10
124.766
20
-131.141
11
124.366
21
-131.541
0
LINE
8
BLACK
6
CONTINUOUS
10
128.202
20
-129.698
11
128.487
21
-129.698
0
LINE
8
BLACK
6
CONTINUOUS
10
128.487
20
-129.698
11
128.773
21
-129.841
0
LINE
8
BLACK
6
CONTINUOUS
10
128.773
20
-129.841
11
128.916
21
-129.984
0
LINE
8
BLACK
6
CONTINUOUS
10
128.916
20
-129.984
11
129.059
21
-130.27
0
LINE
8
BLACK
6
CONTINUOUS
10
129.059
20
-130.27
11
129.202
21
-130.841
0
LINE
8
BLACK
6
CONTINUOUS
10
129.202
20
-130.841
11
129.202
21
-131.555
0
LINE
8
BLACK
6
CONTINUOUS
10
129.202
20
-131.555
11
129.059
21
-132.127
0
LINE
8
BLACK
6
CONTINUOUS
10
129.059
20
-132.127
11
128.916
21
-132.412
0
LINE
8
BLACK
6
CONTINUOUS
10
128.916
20
-132.412
11
128.773
21
-132.555
0
LINE
8
BLACK
6
CONTINUOUS
10
128.773
20
-132.555
11
128.487
21
-132.698
0
LINE
8
BLACK
6
CONTINUOUS
10
128.487
20
-132.698
11
128.202
21
-132.698
0
LINE
8
BLACK
6
CONTINUOUS
10
128.202
20
-132.698
11
127.916
21
-132.555
0
LINE
8
BLACK
6
CONTINUOUS
10
127.916
20
-132.555
11
127.773
21
-132.412
0
LINE
8
BLACK
6
CONTINUOUS
10
127.773
20
-132.412
11
127.63
21
-132.127
0
LINE
8
BLACK
6
CONTINUOUS
10
127.63
20
-132.127
11
127.487
21
-131.555
0
LINE
8
BLACK
6
CONTINUOUS
10
127.487
20
-131.555
11
127.487
21
-130.841
0
LINE
8
BLACK
6
CONTINUOUS
10
127.487
20
-130.841
11
127.63
21
-130.27
0
LINE
8
BLACK
6
CONTINUOUS
10
127.63
20
-130.27
11
127.773
21
-129.984
0
LINE
8
BLACK
6
CONTINUOUS
10
127.773
20
-129.984
11
127.916
21
-129.841
0
LINE
8
BLACK
6
CONTINUOUS
10
127.916
20
-129.841
11
128.202
21
-129.698
0
LINE
8
BLACK
6
CONTINUOUS
10
130.487
20
-132.412
11
130.63
21
-132.555
0
LINE
8
BLACK
6
CONTINUOUS
10
130.63
20
-132.555
11
130.487
21
-132.698
0
LINE
8
BLACK
6
CONTINUOUS
10
130.487
20
-132.698
11
130.345
21
-132.555
0
LINE
8
BLACK
6
CONTINUOUS
10
130.345
20
-132.555
11
130.487
21
-132.412
0
LINE
8
BLACK
6
CONTINUOUS
10
130.487
20
-132.412
11
130.487
21
-132.698
0
LINE
8
BLACK
6
CONTINUOUS
10
133.202
20
-130.698
11
133.202
21
-132.698
0
LINE
8
BLACK
6
CONTINUOUS
10
132.487
20
-129.555
11
131.773
21
-131.698
0
LINE
8
BLACK
6
CONTINUOUS
10
131.773
20
-131.698
11
133.63
21
-131.698
0
LINE
8
BLACK
6
CONTINUOUS
10
135.345
20
-129.698
11
135.63
21
-129.698
0
LINE
8
BLACK
6
CONTINUOUS
10
135.63
20
-129.698
11
135.916
21
-129.841
0
LINE
8
BLACK
6
CONTINUOUS
10
135.916
20
-129.841
11
136.059
21
-129.984
0
LINE
8
BLACK
6
CONTINUOUS
10
136.059
20
-129.984
11
136.202
21
-130.27
0
LINE
8
BLACK
6
CONTINUOUS
10
136.202
20
-130.27
11
136.345
21
-130.841
0
LINE
8
BLACK
6
CONTINUOUS
10
136.345
20
-130.841
11
136.345
21
-131.555
0
LINE
8
BLACK
6
CONTINUOUS
10
136.345
20
-131.555
11
136.202
21
-132.127
0
LINE
8
BLACK
6
CONTINUOUS
10
136.202
20
-132.127
11
136.059
21
-132.412
0
LINE
8
BLACK
6
CONTINUOUS
10
136.059
20
-132.412
11
135.916
21
-132.555
0
LINE
8
BLACK
6
CONTINUOUS
10
135.916
20
-132.555
11
135.63
21
-132.698
0
LINE
8
BLACK
6
CONTINUOUS
10
135.63
20
-132.698
11
135.345
21
-132.698
0
LINE
8
BLACK
6
CONTINUOUS
10
135.345
20
-132.698
11
135.059
21
-132.555
0
LINE
8
BLACK
6
CONTINUOUS
10
135.059
20
-132.555
11
134.916
21
-132.412
0
LINE
8
BLACK
6
CONTINUOUS
10
134.916
20
-132.412
11
134.773
21
-132.127
0
LINE
8
BLACK
6
CONTINUOUS
10
134.773
20
-132.127
11
134.63
21
-131.555
0
LINE
8
BLACK
6
CONTINUOUS
10
134.63
20
-131.555
11
134.63
21
-130.841
0
LINE
8
BLACK
6
CONTINUOUS
10
134.63
20
-130.841
11
134.773
21
-130.27
0
LINE
8
BLACK
6
CONTINUOUS
10
134.773
20
-130.27
11
134.916
21
-129.984
0
LINE
8
BLACK
6
CONTINUOUS
10
134.916
20
-129.984
11
135.059
21
-129.841
0
LINE
8
BLACK
6
CONTINUOUS
10
135.059
20
-129.841
11
135.345
21
-129.698
0
LINE
8
BLACK
6
CONTINUOUS
10
137.63
20
-132.698
11
137.63
21
-130.698
0
LINE
8
BLACK
6
CONTINUOUS
10
137.63
20
-130.984
11
137.773
21
-130.841
0
LINE
8
BLACK
6
CONTINUOUS
10
137.773
20
-130.841
11
138.059
21
-130.698
0
LINE
8
BLACK
6
CONTINUOUS
10
138.059
20
-130.698
11
138.487
21
-130.698
0
LINE
8
BLACK
6
CONTINUOUS
10
138.487
20
-130.698
11
138.773
21
-130.841
0
LINE
8
BLACK
6
CONTINUOUS
10
138.773
20
-130.841
11
138.916
21
-131.127
0
LINE
8
BLACK
6
CONTINUOUS
10
138.916
20
-131.127
11
138.916
21
-132.698
0
LINE
8
BLACK
6
CONTINUOUS
10
138.916
20
-131.127
11
139.059
21
-130.841
0
LINE
8
BLACK
6
CONTINUOUS
10
139.059
20
-130.841
11
139.345
21
-130.698
0
LINE
8
BLACK
6
CONTINUOUS
10
139.345
20
-130.698
11
139.773
21
-130.698
0
LINE
8
BLACK
6
CONTINUOUS
10
139.773
20
-130.698
11
140.059
21
-130.841
0
LINE
8
BLACK
6
CONTINUOUS
10
140.059
20
-130.841
11
140.202
21
-131.127
0
LINE
8
BLACK
6
CONTINUOUS
10
140.202
20
-131.127
11
140.202
21
-132.698
0
LINE
8
BLACK
6
CONTINUOUS
10
141.63
20
-132.698
11
141.63
21
-130.698
0
LINE
8
BLACK
6
CONTINUOUS
10
141.63
20
-130.984
11
141.773
21
-130.841
0
LINE
8
BLACK
6
CONTINUOUS
10
141.773
20
-130.841
11
142.059
21
-130.698
0
LINE
8
BLACK
6
CONTINUOUS
10
142.059
20
-130.698
11
142.487
21
-130.698
0
LINE
8
BLACK
6
CONTINUOUS
10
142.487
20
-130.698
11
142.773
21
-130.841
0
LINE
8
BLACK
6
CONTINUOUS
10
142.773
20
-130.841
11
142.916
21
-131.127
0
LINE
8
BLACK
6
CONTINUOUS
10
142.916
20
-131.127
11
142.916
21
-132.698
0
LINE
8
BLACK
6
CONTINUOUS
10
142.916
20
-131.127
11
143.059
21
-130.841
0
LINE
8
BLACK
6
CONTINUOUS
10
143.059
20
-130.841
11
143.345
21
-130.698
0
LINE
8
BLACK
6
CONTINUOUS
10
143.345
20
-130.698
11
143.773
21
-130.698
0
LINE
8
BLACK
6
CONTINUOUS
10
143.773
20
-130.698
11
144.059
21
-130.841
0
LINE
8
BLACK
6
CONTINUOUS
10
144.059
20
-130.841
11
144.202
21
-131.127
0
LINE
8
BLACK
6
CONTINUOUS
10
144.202
20
-131.127
11
144.202
21
-132.698
0
LINE
8
BLACK
6
CONTINUOUS
10
150.059
20
-129.555
11
147.487
21
-133.412
0
LINE
8
BLACK
6
CONTINUOUS
10
153.916
20
-129.698
11
154.202
21
-129.698
0
LINE
8
BLACK
6
CONTINUOUS
10
154.202
20
-129.698
11
154.487
21
-129.841
0
LINE
8
BLACK
6
CONTINUOUS
10
154.487
20
-129.841
11
154.63
21
-129.984
0
LINE
8
BLACK
6
CONTINUOUS
10
154.63
20
-129.984
11
154.773
21
-130.27
0
LINE
8
BLACK
6
CONTINUOUS
10
154.773
20
-130.27
11
154.916
21
-130.841
0
LINE
8
BLACK
6
CONTINUOUS
10
154.916
20
-130.841
11
154.916
21
-131.555
0
LINE
8
BLACK
6
CONTINUOUS
10
154.916
20
-131.555
11
154.773
21
-132.127
0
LINE
8
BLACK
6
CONTINUOUS
10
154.773
20
-132.127
11
154.63
21
-132.412
0
LINE
8
BLACK
6
CONTINUOUS
10
154.63
20
-132.412
11
154.487
21
-132.555
0
LINE
8
BLACK
6
CONTINUOUS
10
154.487
20
-132.555
11
154.202
21
-132.698
0
LINE
8
BLACK
6
CONTINUOUS
10
154.202
20
-132.698
11
153.916
21
-132.698
0
LINE
8
BLACK
6
CONTINUOUS
10
153.916
20
-132.698
11
153.63
21
-132.555
0
LINE
8
BLACK
6
CONTINUOUS
10
153.63
20
-132.555
11
153.487
21
-132.412
0
LINE
8
BLACK
6
CONTINUOUS
10
153.487
20
-132.412
11
153.345
21
-132.127
0
LINE
8
BLACK
6
CONTINUOUS
10
153.345
20
-132.127
11
153.202
21
-131.555
0
LINE
8
BLACK
6
CONTINUOUS
10
153.202
20
-131.555
11
153.202
21
-130.841
0
LINE
8
BLACK
6
CONTINUOUS
10
153.202
20
-130.841
11
153.345
21
-130.27
0
LINE
8
BLACK
6
CONTINUOUS
10
153.345
20
-130.27
11
153.487
21
-129.984
0
LINE
8
BLACK
6
CONTINUOUS
10
153.487
20
-129.984
11
153.63
21
-129.841
0
LINE
8
BLACK
6
CONTINUOUS
10
153.63
20
-129.841
11
153.916
21
-129.698
0
LINE
8
BLACK
6
CONTINUOUS
10
156.202
20
-132.412
11
156.345
21
-132.555
0
LINE
8
BLACK
6
CONTINUOUS
10
156.345
20
-132.555
11
156.202
21
-132.698
0
LINE
8
BLACK
6
CONTINUOUS
10
156.202
20
-132.698
11
156.059
21
-132.555
0
LINE
8
BLACK
6
CONTINUOUS
10
156.059
20
-132.555
11
156.202
21
-132.412
0
LINE
8
BLACK
6
CONTINUOUS
10
156.202
20
-132.412
11
156.202
21
-132.698
0
LINE
8
BLACK
6
CONTINUOUS
10
158.202
20
-129.698
11
158.487
21
-129.698
0
LINE
8
BLACK
6
CONTINUOUS
10
158.487
20
-129.698
11
158.773
21
-129.841
0
LINE
8
BLACK
6
CONTINUOUS
10
158.773
20
-129.841
11
158.916
21
-129.984
0
LINE
8
BLACK
6
CONTINUOUS
10
158.916
20
-129.984
11
159.059
21
-130.27
0
LINE
8
BLACK
6
CONTINUOUS
10
159.059
20
-130.27
11
159.202
21
-130.841
0
LINE
8
BLACK
6
CONTINUOUS
10
159.202
20
-130.841
11
159.202
21
-131.555
0
LINE
8
BLACK
6
CONTINUOUS
10
159.202
20
-131.555
11
159.059
21
-132.127
0
LINE
8
BLACK
6
CONTINUOUS
10
159.059
20
-132.127
11
158.916
21
-132.412
0
LINE
8
BLACK
6
CONTINUOUS
10
158.916
20
-132.412
11
158.773
21
-132.555
0
LINE
8
BLACK
6
CONTINUOUS
10
158.773
20
-132.555
11
158.487
21
-132.698
0
LINE
8
BLACK
6
CONTINUOUS
10
158.487
20
-132.698
11
158.202
21
-132.698
0
LINE
8
BLACK
6
CONTINUOUS
10
158.202
20
-132.698
11
157.916
21
-132.555
0
LINE
8
BLACK
6
CONTINUOUS
10
157.916
20
-132.555
11
157.773
21
-132.412
0
LINE
8
BLACK
6
CONTINUOUS
10
157.773
20
-132.412
11
157.63
21
-132.127
0
LINE
8
BLACK
6
CONTINUOUS
10
157.63
20
-132.127
11
157.487
21
-131.555
0
LINE
8
BLACK
6
CONTINUOUS
10
157.487
20
-131.555
11
157.487
21
-130.841
0
LINE
8
BLACK
6
CONTINUOUS
10
157.487
20
-130.841
11
157.63
21
-130.27
0
LINE
8
BLACK
6
CONTINUOUS
10
157.63
20
-130.27
11
157.773
21
-129.984
0
LINE
8
BLACK
6
CONTINUOUS
10
157.773
20
-129.984
11
157.916
21
-129.841
0
LINE
8
BLACK
6
CONTINUOUS
10
157.916
20
-129.841
11
158.202
21
-129.698
0
LINE
8
BLACK
6
CONTINUOUS
10
162.059
20
-132.698
11
160.345
21
-132.698
0
LINE
8
BLACK
6
CONTINUOUS
10
161.202
20
-132.698
11
161.202
21
-129.698
0
LINE
8
BLACK
6
CONTINUOUS
10
161.202
20
-129.698
11
160.916
21
-130.127
0
LINE
8
BLACK
6
CONTINUOUS
10
160.916
20
-130.127
11
160.63
21
-130.412
0
LINE
8
BLACK
6
CONTINUOUS
10
160.63
20
-130.412
11
160.345
21
-130.555
0
LINE
8
BLACK
6
CONTINUOUS
10
164.63
20
-129.698
11
164.059
21
-129.698
0
LINE
8
BLACK
6
CONTINUOUS
10
164.059
20
-129.698
11
163.773
21
-129.841
0
LINE
8
BLACK
6
CONTINUOUS
10
163.773
20
-129.841
11
163.63
21
-129.984
0
LINE
8
BLACK
6
CONTINUOUS
10
163.63
20
-129.984
11
163.345
21
-130.412
0
LINE
8
BLACK
6
CONTINUOUS
10
163.345
20
-130.412
11
163.202
21
-130.984
0
LINE
8
BLACK
6
CONTINUOUS
10
163.202
20
-130.984
11
163.202
21
-132.127
0
LINE
8
BLACK
6
CONTINUOUS
10
163.202
20
-132.127
11
163.345
21
-132.412
0
LINE
8
BLACK
6
CONTINUOUS
10
163.345
20
-132.412
11
163.487
21
-132.555
0
LINE
8
BLACK
6
CONTINUOUS
10
163.487
20
-132.555
11
163.773
21
-132.698
0
LINE
8
BLACK
6
CONTINUOUS
10
163.773
20
-132.698
11
164.345
21
-132.698
0
LINE
8
BLACK
6
CONTINUOUS
10
164.345
20
-132.698
11
164.63
21
-132.555
0
LINE
8
BLACK
6
CONTINUOUS
10
164.63
20
-132.555
11
164.773
21
-132.412
0
LINE
8
BLACK
6
CONTINUOUS
10
164.773
20
-132.412
11
164.916
21
-132.127
0
LINE
8
BLACK
6
CONTINUOUS
10
164.916
20
-132.127
11
164.916
21
-131.412
0
LINE
8
BLACK
6
CONTINUOUS
10
164.916
20
-131.412
11
164.773
21
-131.127
0
LINE
8
BLACK
6
CONTINUOUS
10
164.773
20
-131.127
11
164.63
21
-130.984
0
LINE
8
BLACK
6
CONTINUOUS
10
164.63
20
-130.984
11
164.345
21
-130.841
0
LINE
8
BLACK
6
CONTINUOUS
10
164.345
20
-130.841
11
163.773
21
-130.841
0
LINE
8
BLACK
6
CONTINUOUS
10
163.773
20
-130.841
11
163.487
21
-130.984
0
LINE
8
BLACK
6
CONTINUOUS
10
163.487
20
-130.984
11
163.345
21
-131.127
0
LINE
8
BLACK
6
CONTINUOUS
10
163.345
20
-131.127
11
163.202
21
-131.412
0
LINE
8
BLACK
6
CONTINUOUS
10
166.059
20
-129.698
11
166.059
21
-130.27
0
LINE
8
BLACK
6
CONTINUOUS
10
167.202
20
-129.698
11
167.202
21
-130.27
0
LINE
8
BLACK
6
CONTINUOUS
10
171.63
20
-133.841
11
171.487
21
-133.698
0
LINE
8
BLACK
6
CONTINUOUS
10
171.487
20
-133.698
11
171.202
21
-133.27
0
LINE
8
BLACK
6
CONTINUOUS
10
171.202
20
-133.27
11
171.059
21
-132.984
0
LINE
8
BLACK
6
CONTINUOUS
10
171.059
20
-132.984
11
170.916
21
-132.555
0
LINE
8
BLACK
6
CONTINUOUS
10
170.916
20
-132.555
11
170.773
21
-131.841
0
LINE
8
BLACK
6
CONTINUOUS
10
170.773
20
-131.841
11
170.773
21
-131.27
0
LINE
8
BLACK
6
CONTINUOUS
10
170.773
20
-131.27
11
170.916
21
-130.555
0
LINE
8
BLACK
6
CONTINUOUS
10
170.916
20
-130.555
11
171.059
21
-130.127
0
LINE
8
BLACK
6
CONTINUOUS
10
171.059
20
-130.127
11
171.202
21
-129.841
0
LINE
8
BLACK
6
CONTINUOUS
10
171.202
20
-129.841
11
171.487
21
-129.412
0
LINE
8
BLACK
6
CONTINUOUS
10
171.487
20
-129.412
11
171.63
21
-129.27
0
LINE
8
BLACK
6
CONTINUOUS
10
174.345
20
-132.698
11
172.63
21
-132.698
0
LINE
8
BLACK
6
CONTINUOUS
10
173.487
20
-132.698
11
173.487
21
-129.698
0
LINE
8
BLACK
6
CONTINUOUS
10
173.487
20
-129.698
11
173.202
21
-130.127
0
LINE
8
BLACK
6
CONTINUOUS
10
173.202
20
-130.127
11
172.916
21
-130.412
0
LINE
8
BLACK
6
CONTINUOUS
10
172.916
20
-130.412
11
172.63
21
-130.555
0
LINE
8
BLACK
6
CONTINUOUS
10
177.916
20
-132.698
11
177.916
21
-129.698
0
LINE
8
BLACK
6
CONTINUOUS
10
179.202
20
-132.698
11
179.202
21
-131.127
0
LINE
8
BLACK
6
CONTINUOUS
10
179.202
20
-131.127
11
179.059
21
-130.841
0
LINE
8
BLACK
6
CONTINUOUS
10
179.059
20
-130.841
11
178.773
21
-130.698
0
LINE
8
BLACK
6
CONTINUOUS
10
178.773
20
-130.698
11
178.345
21
-130.698
0
LINE
8
BLACK
6
CONTINUOUS
10
178.345
20
-130.698
11
178.059
21
-130.841
0
LINE
8
BLACK
6
CONTINUOUS
10
178.059
20
-130.841
11
177.916
21
-130.984
0
LINE
8
BLACK
6
CONTINUOUS
10
181.059
20
-132.698
11
180.773
21
-132.555
0
LINE
8
BLACK
6
CONTINUOUS
10
180.773
20
-132.555
11
180.63
21
-132.412
0
LINE
8
BLACK
6
CONTINUOUS
10
180.63
20
-132.412
11
180.487
21
-132.127
0
LINE
8
BLACK
6
CONTINUOUS
10
180.487
20
-132.127
11
180.487
21
-131.27
0
LINE
8
BLACK
6
CONTINUOUS
10
180.487
20
-131.27
11
180.63
21
-130.984
0
LINE
8
BLACK
6
CONTINUOUS
10
180.63
20
-130.984
11
180.773
21
-130.841
0
LINE
8
BLACK
6
CONTINUOUS
10
180.773
20
-130.841
11
181.059
21
-130.698
0
LINE
8
BLACK
6
CONTINUOUS
10
181.059
20
-130.698
11
181.487
21
-130.698
0
LINE
8
BLACK
6
CONTINUOUS
10
181.487
20
-130.698
11
181.773
21
-130.841
0
LINE
8
BLACK
6
CONTINUOUS
10
181.773
20
-130.841
11
181.916
21
-130.984
0
LINE
8
BLACK
6
CONTINUOUS
10
181.916
20
-130.984
11
182.059
21
-131.27
0
LINE
8
BLACK
6
CONTINUOUS
10
182.059
20
-131.27
11
182.059
21
-132.127
0
LINE
8
BLACK
6
CONTINUOUS
10
182.059
20
-132.127
11
181.916
21
-132.412
0
LINE
8
BLACK
6
CONTINUOUS
10
181.916
20
-132.412
11
181.773
21
-132.555
0
LINE
8
BLACK
6
CONTINUOUS
10
181.773
20
-132.555
11
181.487
21
-132.698
0
LINE
8
BLACK
6
CONTINUOUS
10
181.487
20
-132.698
11
181.059
21
-132.698
0
LINE
8
BLACK
6
CONTINUOUS
10
183.773
20
-132.698
11
183.487
21
-132.555
0
LINE
8
BLACK
6
CONTINUOUS
10
183.487
20
-132.555
11
183.345
21
-132.27
0
LINE
8
BLACK
6
CONTINUOUS
10
183.345
20
-132.27
11
183.345
21
-129.698
0
LINE
8
BLACK
6
CONTINUOUS
10
186.059
20
-132.555
11
185.773
21
-132.698
0
LINE
8
BLACK
6
CONTINUOUS
10
185.773
20
-132.698
11
185.202
21
-132.698
0
LINE
8
BLACK
6
CONTINUOUS
10
185.202
20
-132.698
11
184.916
21
-132.555
0
LINE
8
BLACK
6
CONTINUOUS
10
184.916
20
-132.555
11
184.773
21
-132.27
0
LINE
8
BLACK
6
CONTINUOUS
10
184.773
20
-132.27
11
184.773
21
-131.127
0
LINE
8
BLACK
6
CONTINUOUS
10
184.773
20
-131.127
11
184.916
21
-130.841
0
LINE
8
BLACK
6
CONTINUOUS
10
184.916
20
-130.841
11
185.202
21
-130.698
0
LINE
8
BLACK
6
CONTINUOUS
10
185.202
20
-130.698
11
185.773
21
-130.698
0
LINE
8
BLACK
6
CONTINUOUS
10
185.773
20
-130.698
11
186.059
21
-130.841
0
LINE
8
BLACK
6
CONTINUOUS
10
186.059
20
-130.841
11
186.202
21
-131.127
0
LINE
8
BLACK
6
CONTINUOUS
10
186.202
20
-131.127
11
186.202
21
-131.412
0
LINE
8
BLACK
6
CONTINUOUS
10
186.202
20
-131.412
11
184.773
21
-131.698
0
LINE
8
BLACK
6
CONTINUOUS
10
187.202
20
-133.841
11
187.345
21
-133.698
0
LINE
8
BLACK
6
CONTINUOUS
10
187.345
20
-133.698
11
187.63
21
-133.27
0
LINE
8
BLACK
6
CONTINUOUS
10
187.63
20
-133.27
11
187.773
21
-132.984
0
LINE
8
BLACK
6
CONTINUOUS
10
187.773
20
-132.984
11
187.916
21
-132.555
0
LINE
8
BLACK
6
CONTINUOUS
10
187.916
20
-132.555
11
188.059
21
-131.841
0
LINE
8
BLACK
6
CONTINUOUS
10
188.059
20
-131.841
11
188.059
21
-131.27
0
LINE
8
BLACK
6
CONTINUOUS
10
188.059
20
-131.27
11
187.916
21
-130.555
0
LINE
8
BLACK
6
CONTINUOUS
10
187.916
20
-130.555
11
187.773
21
-130.127
0
LINE
8
BLACK
6
CONTINUOUS
10
187.773
20
-130.127
11
187.63
21
-129.841
0
LINE
8
BLACK
6
CONTINUOUS
10
187.63
20
-129.841
11
187.345
21
-129.412
0
LINE
8
BLACK
6
CONTINUOUS
10
187.345
20
-129.412
11
187.202
21
-129.27
0
CIRCLE
8
BLACK
10
124.416
20
-135.301
40
0.35
0
LINE
8
BLACK
6
CONTINUOUS
10
128.202
20
-133.658
11
128.487
21
-133.658
0
LINE
8
BLACK
6
CONTINUOUS
10
128.487
20
-133.658
11
128.773
21
-133.801
0
LINE
8
BLACK
6
CONTINUOUS
10
128.773
20
-133.801
11
128.916
21
-133.944
0
LINE
8
BLACK
6
CONTINUOUS
10
128.916
20
-133.944
11
129.059
21
-134.23
0
LINE
8
BLACK
6
CONTINUOUS
10
129.059
20
-134.23
11
129.202
21
-134.801
0
LINE
8
BLACK
6
CONTINUOUS
10
129.202
20
-134.801
11
129.202
21
-135.515
0
LINE
8
BLACK
6
CONTINUOUS
10
129.202
20
-135.515
11
129.059
21
-136.087
0
LINE
8
BLACK
6
CONTINUOUS
10
129.059
20
-136.087
11
128.916
21
-136.372
0
LINE
8
BLACK
6
CONTINUOUS
10
128.916
20
-136.372
11
128.773
21
-136.515
0
LINE
8
BLACK
6
CONTINUOUS
10
128.773
20
-136.515
11
128.487
21
-136.658
0
LINE
8
BLACK
6
CONTINUOUS
10
128.487
20
-136.658
11
128.202
21
-136.658
0
LINE
8
BLACK
6
CONTINUOUS
10
128.202
20
-136.658
11
127.916
21
-136.515
0
LINE
8
BLACK
6
CONTINUOUS
10
127.916
20
-136.515
11
127.773
21
-136.372
0
LINE
8
BLACK
6
CONTINUOUS
10
127.773
20
-136.372
11
127.63
21
-136.087
0
LINE
8
BLACK
6
CONTINUOUS
10
127.63
20
-136.087
11
127.487
21
-135.515
0
LINE
8
BLACK
6
CONTINUOUS
10
127.487
20
-135.515
11
127.487
21
-134.801
0
LINE
8
BLACK
6
CONTINUOUS
10
127.487
20
-134.801
11
127.63
21
-134.23
0
LINE
8
BLACK
6
CONTINUOUS
10
127.63
20
-134.23
11
127.773
21
-133.944
0
LINE
8
BLACK
6
CONTINUOUS
10
127.773
20
-133.944
11
127.916
21
-133.801
0
LINE
8
BLACK
6
CONTINUOUS
10
127.916
20
-133.801
11
128.202
21
-133.658
0
LINE
8
BLACK
6
CONTINUOUS
10
130.487
20
-136.372
11
130.63
21
-136.515
0
LINE
8
BLACK
6
CONTINUOUS
10
130.63
20
-136.515
11
130.487
21
-136.658
0
LINE
8
BLACK
6
CONTINUOUS
10
130.487
20
-136.658
11
130.345
21
-136.515
0
LINE
8
BLACK
6
CONTINUOUS
10
130.345
20
-136.515
11
130.487
21
-136.372
0
LINE
8
BLACK
6
CONTINUOUS
10
130.487
20
-136.372
11
130.487
21
-136.658
0
LINE
8
BLACK
6
CONTINUOUS
10
131.63
20
-133.658
11
133.63
21
-133.658
0
LINE
8
BLACK
6
CONTINUOUS
10
133.63
20
-133.658
11
132.345
21
-136.658
0
LINE
8
BLACK
6
CONTINUOUS
10
135.345
20
-133.658
11
135.63
21
-133.658
0
LINE
8
BLACK
6
CONTINUOUS
10
135.63
20
-133.658
11
135.916
21
-133.801
0
LINE
8
BLACK
6
CONTINUOUS
10
135.916
20
-133.801
11
136.059
21
-133.944
0
LINE
8
BLACK
6
CONTINUOUS
10
136.059
20
-133.944
11
136.202
21
-134.23
0
LINE
8
BLACK
6
CONTINUOUS
10
136.202
20
-134.23
11
136.345
21
-134.801
0
LINE
8
BLACK
6
CONTINUOUS
10
136.345
20
-134.801
11
136.345
21
-135.515
0
LINE
8
BLACK
6
CONTINUOUS
10
136.345
20
-135.515
11
136.202
21
-136.087
0
LINE
8
BLACK
6
CONTINUOUS
10
136.202
20
-136.087
11
136.059
21
-136.372
0
LINE
8
BLACK
6
CONTINUOUS
10
136.059
20
-136.372
11
135.916
21
-136.515
0
LINE
8
BLACK
6
CONTINUOUS
10
135.916
20
-136.515
11
135.63
21
-136.658
0
LINE
8
BLACK
6
CONTINUOUS
10
135.63
20
-136.658
11
135.345
21
-136.658
0
LINE
8
BLACK
6
CONTINUOUS
10
135.345
20
-136.658
11
135.059
21
-136.515
0
LINE
8
BLACK
6
CONTINUOUS
10
135.059
20
-136.515
11
134.916
21
-136.372
0
LINE
8
BLACK
6
CONTINUOUS
10
134.916
20
-136.372
11
134.773
21
-136.087
0
LINE
8
BLACK
6
CONTINUOUS
10
134.773
20
-136.087
11
134.63
21
-135.515
0
LINE
8
BLACK
6
CONTINUOUS
10
134.63
20
-135.515
11
134.63
21
-134.801
0
LINE
8
BLACK
6
CONTINUOUS
10
134.63
20
-134.801
11
134.773
21
-134.23
0
LINE
8
BLACK
6
CONTINUOUS
10
134.773
20
-134.23
11
134.916
21
-133.944
0
LINE
8
BLACK
6
CONTINUOUS
10
134.916
20
-133.944
11
135.059
21
-133.801
0
LINE
8
BLACK
6
CONTINUOUS
10
135.059
20
-133.801
11
135.345
21
-133.658
0
LINE
8
BLACK
6
CONTINUOUS
10
137.63
20
-136.658
11
137.63
21
-134.658
0
LINE
8
BLACK
6
CONTINUOUS
10
137.63
20
-134.944
11
137.773
21
-134.801
0
LINE
8
BLACK
6
CONTINUOUS
10
137.773
20
-134.801
11
138.059
21
-134.658
0
LINE
8
BLACK
6
CONTINUOUS
10
138.059
20
-134.658
11
138.487
21
-134.658
0
LINE
8
BLACK
6
CONTINUOUS
10
138.487
20
-134.658
11
138.773
21
-134.801
0
LINE
8
BLACK
6
CONTINUOUS
10
138.773
20
-134.801
11
138.916
21
-135.087
0
LINE
8
BLACK
6
CONTINUOUS
10
138.916
20
-135.087
11
138.916
21
-136.658
0
LINE
8
BLACK
6
CONTINUOUS
10
138.916
20
-135.087
11
139.059
21
-134.801
0
LINE
8
BLACK
6
CONTINUOUS
10
139.059
20
-134.801
11
139.345
21
-134.658
0
LINE
8
BLACK
6
CONTINUOUS
10
139.345
20
-134.658
11
139.773
21
-134.658
0
LINE
8
BLACK
6
CONTINUOUS
10
139.773
20
-134.658
11
140.059
21
-134.801
0
LINE
8
BLACK
6
CONTINUOUS
10
140.059
20
-134.801
11
140.202
21
-135.087
0
LINE
8
BLACK
6
CONTINUOUS
10
140.202
20
-135.087
11
140.202
21
-136.658
0
LINE
8
BLACK
6
CONTINUOUS
10
141.63
20
-136.658
11
141.63
21
-134.658
0
LINE
8
BLACK
6
CONTINUOUS
10
141.63
20
-134.944
11
141.773
21
-134.801
0
LINE
8
BLACK
6
CONTINUOUS
10
141.773
20
-134.801
11
142.059
21
-134.658
0
LINE
8
BLACK
6
CONTINUOUS
10
142.059
20
-134.658
11
142.487
21
-134.658
0
LINE
8
BLACK
6
CONTINUOUS
10
142.487
20
-134.658
11
142.773
21
-134.801
0
LINE
8
BLACK
6
CONTINUOUS
10
142.773
20
-134.801
11
142.916
21
-135.087
0
LINE
8
BLACK
6
CONTINUOUS
10
142.916
20
-135.087
11
142.916
21
-136.658
0
LINE
8
BLACK
6
CONTINUOUS
10
142.916
20
-135.087
11
143.059
21
-134.801
0
LINE
8
BLACK
6
CONTINUOUS
10
143.059
20
-134.801
11
143.345
21
-134.658
0
LINE
8
BLACK
6
CONTINUOUS
10
143.345
20
-134.658
11
143.773
21
-134.658
0
LINE
8
BLACK
6
CONTINUOUS
10
143.773
20
-134.658
11
144.059
21
-134.801
0
LINE
8
BLACK
6
CONTINUOUS
10
144.059
20
-134.801
11
144.202
21
-135.087
0
LINE
8
BLACK
6
CONTINUOUS
10
144.202
20
-135.087
11
144.202
21
-136.658
0
LINE
8
BLACK
6
CONTINUOUS
10
150.059
20
-133.515
11
147.487
21
-137.372
0
LINE
8
BLACK
6
CONTINUOUS
10
153.916
20
-133.658
11
154.202
21
-133.658
0
LINE
8
BLACK
6
CONTINUOUS
10
154.202
20
-133.658
11
154.487
21
-133.801
0
LINE
8
BLACK
6
CONTINUOUS
10
154.487
20
-133.801
11
154.63
21
-133.944
0
LINE
8
BLACK
6
CONTINUOUS
10
154.63
20
-133.944
11
154.773
21
-134.23
0
LINE
8
BLACK
6
CONTINUOUS
10
154.773
20
-134.23
11
154.916
21
-134.801
0
LINE
8
BLACK
6
CONTINUOUS
10
154.916
20
-134.801
11
154.916
21
-135.515
0
LINE
8
BLACK
6
CONTINUOUS
10
154.916
20
-135.515
11
154.773
21
-136.087
0
LINE
8
BLACK
6
CONTINUOUS
10
154.773
20
-136.087
11
154.63
21
-136.372
0
LINE
8
BLACK
6
CONTINUOUS
10
154.63
20
-136.372
11
154.487
21
-136.515
0
LINE
8
BLACK
6
CONTINUOUS
10
154.487
20
-136.515
11
154.202
21
-136.658
0
LINE
8
BLACK
6
CONTINUOUS
10
154.202
20
-136.658
11
153.916
21
-136.658
0
LINE
8
BLACK
6
CONTINUOUS
10
153.916
20
-136.658
11
153.63
21
-136.515
0
LINE
8
BLACK
6
CONTINUOUS
10
153.63
20
-136.515
11
153.487
21
-136.372
0
LINE
8
BLACK
6
CONTINUOUS
10
153.487
20
-136.372
11
153.345
21
-136.087
0
LINE
8
BLACK
6
CONTINUOUS
10
153.345
20
-136.087
11
153.202
21
-135.515
0
LINE
8
BLACK
6
CONTINUOUS
10
153.202
20
-135.515
11
153.202
21
-134.801
0
LINE
8
BLACK
6
CONTINUOUS
10
153.202
20
-134.801
11
153.345
21
-134.23
0
LINE
8
BLACK
6
CONTINUOUS
10
153.345
20
-134.23
11
153.487
21
-133.944
0
LINE
8
BLACK
6
CONTINUOUS
10
153.487
20
-133.944
11
153.63
21
-133.801
0
LINE
8
BLACK
6
CONTINUOUS
10
153.63
20
-133.801
11
153.916
21
-133.658
0
LINE
8
BLACK
6
CONTINUOUS
10
156.202
20
-136.372
11
156.345
21
-136.515
0
LINE
8
BLACK
6
CONTINUOUS
10
156.345
20
-136.515
11
156.202
21
-136.658
0
LINE
8
BLACK
6
CONTINUOUS
10
156.202
20
-136.658
11
156.059
21
-136.515
0
LINE
8
BLACK
6
CONTINUOUS
10
156.059
20
-136.515
11
156.202
21
-136.372
0
LINE
8
BLACK
6
CONTINUOUS
10
156.202
20
-136.372
11
156.202
21
-136.658
0
LINE
8
BLACK
6
CONTINUOUS
10
158.202
20
-133.658
11
158.487
21
-133.658
0
LINE
8
BLACK
6
CONTINUOUS
10
158.487
20
-133.658
11
158.773
21
-133.801
0
LINE
8
BLACK
6
CONTINUOUS
10
158.773
20
-133.801
11
158.916
21
-133.944
0
LINE
8
BLACK
6
CONTINUOUS
10
158.916
20
-133.944
11
159.059
21
-134.23
0
LINE
8
BLACK
6
CONTINUOUS
10
159.059
20
-134.23
11
159.202
21
-134.801
0
LINE
8
BLACK
6
CONTINUOUS
10
159.202
20
-134.801
11
159.202
21
-135.515
0
LINE
8
BLACK
6
CONTINUOUS
10
159.202
20
-135.515
11
159.059
21
-136.087
0
LINE
8
BLACK
6
CONTINUOUS
10
159.059
20
-136.087
11
158.916
21
-136.372
0
LINE
8
BLACK
6
CONTINUOUS
10
158.916
20
-136.372
11
158.773
21
-136.515
0
LINE
8
BLACK
6
CONTINUOUS
10
158.773
20
-136.515
11
158.487
21
-136.658
0
LINE
8
BLACK
6
CONTINUOUS
10
158.487
20
-136.658
11
158.202
21
-136.658
0
LINE
8
BLACK
6
CONTINUOUS
10
158.202
20
-136.658
11
157.916
21
-136.515
0
LINE
8
BLACK
6
CONTINUOUS
10
157.916
20
-136.515
11
157.773
21
-136.372
0
LINE
8
BLACK
6
CONTINUOUS
10
157.773
20
-136.372
11
157.63
21
-136.087
0
LINE
8
BLACK
6
CONTINUOUS
10
157.63
20
-136.087
11
157.487
21
-135.515
0
LINE
8
BLACK
6
CONTINUOUS
10
157.487
20
-135.515
11
157.487
21
-134.801
0
LINE
8
BLACK
6
CONTINUOUS
10
157.487
20
-134.801
11
157.63
21
-134.23
0
LINE
8
BLACK
6
CONTINUOUS
10
157.63
20
-134.23
11
157.773
21
-133.944
0
LINE
8
BLACK
6
CONTINUOUS
10
157.773
20
-133.944
11
157.916
21
-133.801
0
LINE
8
BLACK
6
CONTINUOUS
10
157.916
20
-133.801
11
158.202
21
-133.658
0
LINE
8
BLACK
6
CONTINUOUS
10
160.345
20
-133.944
11
160.487
21
-133.801
0
LINE
8
BLACK
6
CONTINUOUS
10
160.487
20
-133.801
11
160.773
21
-133.658
0
LINE
8
BLACK
6
CONTINUOUS
10
160.773
20
-133.658
11
161.487
21
-133.658
0
LINE
8
BLACK
6
CONTINUOUS
10
161.487
20
-133.658
11
161.773
21
-133.801
0
LINE
8
BLACK
6
CONTINUOUS
10
161.773
20
-133.801
11
161.916
21
-133.944
0
LINE
8
BLACK
6
CONTINUOUS
10
161.916
20
-133.944
11
162.059
21
-134.23
0
LINE
8
BLACK
6
CONTINUOUS
10
162.059
20
-134.23
11
162.059
21
-134.515
0
LINE
8
BLACK
6
CONTINUOUS
10
162.059
20
-134.515
11
161.916
21
-134.944
0
LINE
8
BLACK
6
CONTINUOUS
10
161.916
20
-134.944
11
160.202
21
-136.658
0
LINE
8
BLACK
6
CONTINUOUS
10
160.202
20
-136.658
11
162.059
21
-136.658
0
LINE
8
BLACK
6
CONTINUOUS
10
163.773
20
-134.944
11
163.487
21
-134.801
0
LINE
8
BLACK
6
CONTINUOUS
10
163.487
20
-134.801
11
163.345
21
-134.658
0
LINE
8
BLACK
6
CONTINUOUS
10
163.345
20
-134.658
11
163.202
21
-134.372
0
LINE
8
BLACK
6
CONTINUOUS
10
163.202
20
-134.372
11
163.202
21
-134.23
0
LINE
8
BLACK
6
CONTINUOUS
10
163.202
20
-134.23
11
163.345
21
-133.944
0
LINE
8
BLACK
6
CONTINUOUS
10
163.345
20
-133.944
11
163.487
21
-133.801
0
LINE
8
BLACK
6
CONTINUOUS
10
163.487
20
-133.801
11
163.773
21
-133.658
0
LINE
8
BLACK
6
CONTINUOUS
10
163.773
20
-133.658
11
164.345
21
-133.658
0
LINE
8
BLACK
6
CONTINUOUS
10
164.345
20
-133.658
11
164.63
21
-133.801
0
LINE
8
BLACK
6
CONTINUOUS
10
164.63
20
-133.801
11
164.773
21
-133.944
0
LINE
8
BLACK
6
CONTINUOUS
10
164.773
20
-133.944
11
164.916
21
-134.23
0
LINE
8
BLACK
6
CONTINUOUS
10
164.916
20
-134.23
11
164.916
21
-134.372
0
LINE
8
BLACK
6
CONTINUOUS
10
164.916
20
-134.372
11
164.773
21
-134.658
0
LINE
8
BLACK
6
CONTINUOUS
10
164.773
20
-134.658
11
164.63
21
-134.801
0
LINE
8
BLACK
6
CONTINUOUS
10
164.63
20
-134.801
11
164.345
21
-134.944
0
LINE
8
BLACK
6
CONTINUOUS
10
164.345
20
-134.944
11
163.773
21
-134.944
0
LINE
8
BLACK
6
CONTINUOUS
10
163.773
20
-134.944
11
163.487
21
-135.087
0
LINE
8
BLACK
6
CONTINUOUS
10
163.487
20
-135.087
11
163.345
21
-135.23
0
LINE
8
BLACK
6
CONTINUOUS
10
163.345
20
-135.23
11
163.202
21
-135.515
0
LINE
8
BLACK
6
CONTINUOUS
10
163.202
20
-135.515
11
163.202
21
-136.087
0
LINE
8
BLACK
6
CONTINUOUS
10
163.202
20
-136.087
11
163.345
21
-136.372
0
LINE
8
BLACK
6
CONTINUOUS
10
163.345
20
-136.372
11
163.487
21
-136.515
0
LINE
8
BLACK
6
CONTINUOUS
10
163.487
20
-136.515
11
163.773
21
-136.658
0
LINE
8
BLACK
6
CONTINUOUS
10
163.773
20
-136.658
11
164.345
21
-136.658
0
LINE
8
BLACK
6
CONTINUOUS
10
164.345
20
-136.658
11
164.63
21
-136.515
0
LINE
8
BLACK
6
CONTINUOUS
10
164.63
20
-136.515
11
164.773
21
-136.372
0
LINE
8
BLACK
6
CONTINUOUS
10
164.773
20
-136.372
11
164.916
21
-136.087
0
LINE
8
BLACK
6
CONTINUOUS
10
164.916
20
-136.087
11
164.916
21
-135.515
0
LINE
8
BLACK
6
CONTINUOUS
10
164.916
20
-135.515
11
164.773
21
-135.23
0
LINE
8
BLACK
6
CONTINUOUS
10
164.773
20
-135.23
11
164.63
21
-135.087
0
LINE
8
BLACK
6
CONTINUOUS
10
164.63
20
-135.087
11
164.345
21
-134.944
0
LINE
8
BLACK
6
CONTINUOUS
10
166.059
20
-133.658
11
166.059
21
-134.23
0
LINE
8
BLACK
6
CONTINUOUS
10
167.202
20
-133.658
11
167.202
21
-134.23
0
LINE
8
BLACK
6
CONTINUOUS
10
171.63
20
-137.801
11
171.487
21
-137.658
0
LINE
8
BLACK
6
CONTINUOUS
10
171.487
20
-137.658
11
171.202
21
-137.23
0
LINE
8
BLACK
6
CONTINUOUS
10
171.202
20
-137.23
11
171.059
21
-136.944
0
LINE
8
BLACK
6
CONTINUOUS
10
171.059
20
-136.944
11
170.916
21
-136.515
0
LINE
8
BLACK
6
CONTINUOUS
10
170.916
20
-136.515
11
170.773
21
-135.801
0
LINE
8
BLACK
6
CONTINUOUS
10
170.773
20
-135.801
11
170.773
21
-135.23
0
LINE
8
BLACK
6
CONTINUOUS
10
170.773
20
-135.23
11
170.916
21
-134.515
0
LINE
8
BLACK
6
CONTINUOUS
10
170.916
20
-134.515
11
171.059
21
-134.087
0
LINE
8
BLACK
6
CONTINUOUS
10
171.059
20
-134.087
11
171.202
21
-133.801
0
LINE
8
BLACK
6
CONTINUOUS
10
171.202
20
-133.801
11
171.487
21
-133.372
0
LINE
8
BLACK
6
CONTINUOUS
10
171.487
20
-133.372
11
171.63
21
-133.23
0
LINE
8
BLACK
6
CONTINUOUS
10
172.63
20
-133.944
11
172.773
21
-133.801
0
LINE
8
BLACK
6
CONTINUOUS
10
172.773
20
-133.801
11
173.059
21
-133.658
0
LINE
8
BLACK
6
CONTINUOUS
10
173.059
20
-133.658
11
173.773
21
-133.658
0
LINE
8
BLACK
6
CONTINUOUS
10
173.773
20
-133.658
11
174.059
21
-133.801
0
LINE
8
BLACK
6
CONTINUOUS
10
174.059
20
-133.801
11
174.202
21
-133.944
0
LINE
8
BLACK
6
CONTINUOUS
10
174.202
20
-133.944
11
174.345
21
-134.23
0
LINE
8
BLACK
6
CONTINUOUS
10
174.345
20
-134.23
11
174.345
21
-134.515
0
LINE
8
BLACK
6
CONTINUOUS
10
174.345
20
-134.515
11
174.202
21
-134.944
0
LINE
8
BLACK
6
CONTINUOUS
10
174.202
20
-134.944
11
172.487
21
-136.658
0
LINE
8
BLACK
6
CONTINUOUS
10
172.487
20
-136.658
11
174.345
21
-136.658
0
LINE
8
BLACK
6
CONTINUOUS
10
176.916
20
-133.658
11
176.345
21
-133.658
0
LINE
8
BLACK
6
CONTINUOUS
10
176.345
20
-133.658
11
176.059
21
-133.801
0
LINE
8
BLACK
6
CONTINUOUS
10
176.059
20
-133.801
11
175.916
21
-133.944
0
LINE
8
BLACK
6
CONTINUOUS
10
175.916
20
-133.944
11
175.63
21
-134.372
0
LINE
8
BLACK
6
CONTINUOUS
10
175.63
20
-134.372
11
175.487
21
-134.944
0
LINE
8
BLACK
6
CONTINUOUS
10
175.487
20
-134.944
11
175.487
21
-136.087
0
LINE
8
BLACK
6
CONTINUOUS
10
175.487
20
-136.087
11
175.63
21
-136.372
0
LINE
8
BLACK
6
CONTINUOUS
10
175.63
20
-136.372
11
175.773
21
-136.515
0
LINE
8
BLACK
6
CONTINUOUS
10
175.773
20
-136.515
11
176.059
21
-136.658
0
LINE
8
BLACK
6
CONTINUOUS
10
176.059
20
-136.658
11
176.63
21
-136.658
0
LINE
8
BLACK
6
CONTINUOUS
10
176.63
20
-136.658
11
176.916
21
-136.515
0
LINE
8
BLACK
6
CONTINUOUS
10
176.916
20
-136.515
11
177.059
21
-136.372
0
LINE
8
BLACK
6
CONTINUOUS
10
177.059
20
-136.372
11
177.202
21
-136.087
0
LINE
8
BLACK
6
CONTINUOUS
10
177.202
20
-136.087
11
177.202
21
-135.372
0
LINE
8
BLACK
6
CONTINUOUS
10
177.202
20
-135.372
11
177.059
21
-135.087
0
LINE
8
BLACK
6
CONTINUOUS
10
177.059
20
-135.087
11
176.916
21
-134.944
0
LINE
8
BLACK
6
CONTINUOUS
10
176.916
20
-134.944
11
176.63
21
-134.801
0
LINE
8
BLACK
6
CONTINUOUS
10
176.63
20
-134.801
11
176.059
21
-134.801
0
LINE
8
BLACK
6
CONTINUOUS
10
176.059
20
-134.801
11
175.773
21
-134.944
0
LINE
8
BLACK
6
CONTINUOUS
10
175.773
20
-134.944
11
175.63
21
-135.087
0
LINE
8
BLACK
6
CONTINUOUS
10
175.63
20
-135.087
11
175.487
21
-135.372
0
LINE
8
BLACK
6
CONTINUOUS
10
180.773
20
-136.658
11
180.773
21
-133.658
0
LINE
8
BLACK
6
CONTINUOUS
10
182.059
20
-136.658
11
182.059
21
-135.087
0
LINE
8
BLACK
6
CONTINUOUS
10
182.059
20
-135.087
11
181.916
21
-134.801
0
LINE
8
BLACK
6
CONTINUOUS
10
181.916
20
-134.801
11
181.63
21
-134.658
0
LINE
8
BLACK
6
CONTINUOUS
10
181.63
20
-134.658
11
181.202
21
-134.658
0
LINE
8
BLACK
6
CONTINUOUS
10
181.202
20
-134.658
11
180.916
21
-134.801
0
LINE
8
BLACK
6
CONTINUOUS
10
180.916
20
-134.801
11
180.773
21
-134.944
0
LINE
8
BLACK
6
CONTINUOUS
10
183.916
20
-136.658
11
183.63
21
-136.515
0
LINE
8
BLACK
6
CONTINUOUS
10
183.63
20
-136.515
11
183.487
21
-136.372
0
LINE
8
BLACK
6
CONTINUOUS
10
183.487
20
-136.372
11
183.345
21
-136.087
0
LINE
8
BLACK
6
CONTINUOUS
10
183.345
20
-136.087
11
183.345
21
-135.23
0
LINE
8
BLACK
6
CONTINUOUS
10
183.345
20
-135.23
11
183.487
21
-134.944
0
LINE
8
BLACK
6
CONTINUOUS
10
183.487
20
-134.944
11
183.63
21
-134.801
0
LINE
8
BLACK
6
CONTINUOUS
10
183.63
20
-134.801
11
183.916
21
-134.658
0
LINE
8
BLACK
6
CONTINUOUS
10
183.916
20
-134.658
11
184.345
21
-134.658
0
LINE
8
BLACK
6
CONTINUOUS
10
184.345
20
-134.658
11
184.63
21
-134.801
0
LINE
8
BLACK
6
CONTINUOUS
10
184.63
20
-134.801
11
184.773
21
-134.944
0
LINE
8
BLACK
6
CONTINUOUS
10
184.773
20
-134.944
11
184.916
21
-135.23
0
LINE
8
BLACK
6
CONTINUOUS
10
184.916
20
-135.23
11
184.916
21
-136.087
0
LINE
8
BLACK
6
CONTINUOUS
10
184.916
20
-136.087
11
184.773
21
-136.372
0
LINE
8
BLACK
6
CONTINUOUS
10
184.773
20
-136.372
11
184.63
21
-136.515
0
LINE
8
BLACK
6
CONTINUOUS
10
184.63
20
-136.515
11
184.345
21
-136.658
0
LINE
8
BLACK
6
CONTINUOUS
10
184.345
20
-136.658
11
183.916
21
-136.658
0
LINE
8
BLACK
6
CONTINUOUS
10
186.63
20
-136.658
11
186.345
21
-136.515
0
LINE
8
BLACK
6
CONTINUOUS
10
186.345
20
-136.515
11
186.202
21
-136.23
0
LINE
8
BLACK
6
CONTINUOUS
10
186.202
20
-136.23
11
186.202
21
-133.658
0
LINE
8
BLACK
6
CONTINUOUS
10
188.916
20
-136.515
11
188.63
21
-136.658
0
LINE
8
BLACK
6
CONTINUOUS
10
188.63
20
-136.658
11
188.059
21
-136.658
0
LINE
8
BLACK
6
CONTINUOUS
10
188.059
20
-136.658
11
187.773
21
-136.515
0
LINE
8
BLACK
6
CONTINUOUS
10
187.773
20
-136.515
11
187.63
21
-136.23
0
LINE
8
BLACK
6
CONTINUOUS
10
187.63
20
-136.23
11
187.63
21
-135.087
0
LINE
8
BLACK
6
CONTINUOUS
10
187.63
20
-135.087
11
187.773
21
-134.801
0
LINE
8
BLACK
6
CONTINUOUS
10
187.773
20
-134.801
11
188.059
21
-134.658
0
LINE
8
BLACK
6
CONTINUOUS
10
188.059
20
-134.658
11
188.63
21
-134.658
0
LINE
8
BLACK
6
CONTINUOUS
10
188.63
20
-134.658
11
188.916
21
-134.801
0
LINE
8
BLACK
6
CONTINUOUS
10
188.916
20
-134.801
11
189.059
21
-135.087
0
LINE
8
BLACK
6
CONTINUOUS
10
189.059
20
-135.087
11
189.059
21
-135.372
0
LINE
8
BLACK
6
CONTINUOUS
10
189.059
20
-135.372
11
187.63
21
-135.658
0
LINE
8
BLACK
6
CONTINUOUS
10
190.202
20
-136.515
11
190.487
21
-136.658
0
LINE
8
BLACK
6
CONTINUOUS
10
190.487
20
-136.658
11
191.059
21
-136.658
0
LINE
8
BLACK
6
CONTINUOUS
10
191.059
20
-136.658
11
191.345
21
-136.515
0
LINE
8
BLACK
6
CONTINUOUS
10
191.345
20
-136.515
11
191.487
21
-136.23
0
LINE
8
BLACK
6
CONTINUOUS
10
191.487
20
-136.23
11
191.487
21
-136.087
0
LINE
8
BLACK
6
CONTINUOUS
10
191.487
20
-136.087
11
191.345
21
-135.801
0
LINE
8
BLACK
6
CONTINUOUS
10
191.345
20
-135.801
11
191.059
21
-135.658
0
LINE
8
BLACK
6
CONTINUOUS
10
191.059
20
-135.658
11
190.63
21
-135.658
0
LINE
8
BLACK
6
CONTINUOUS
10
190.63
20
-135.658
11
190.345
21
-135.515
0
LINE
8
BLACK
6
CONTINUOUS
10
190.345
20
-135.515
11
190.202
21
-135.23
0
LINE
8
BLACK
6
CONTINUOUS
10
190.202
20
-135.23
11
190.202
21
-135.087
0
LINE
8
BLACK
6
CONTINUOUS
10
190.202
20
-135.087
11
190.345
21
-134.801
0
LINE
8
BLACK
6
CONTINUOUS
10
190.345
20
-134.801
11
190.63
21
-134.658
0
LINE
8
BLACK
6
CONTINUOUS
10
190.63
20
-134.658
11
191.059
21
-134.658
0
LINE
8
BLACK
6
CONTINUOUS
10
191.059
20
-134.658
11
191.345
21
-134.801
0
LINE
8
BLACK
6
CONTINUOUS
10
192.487
20
-137.801
11
192.63
21
-137.658
0
LINE
8
BLACK
6
CONTINUOUS
10
192.63
20
-137.658
11
192.916
21
-137.23
0
LINE
8
BLACK
6
CONTINUOUS
10
192.916
20
-137.23
11
193.059
21
-136.944
0
LINE
8
BLACK
6
CONTINUOUS
10
193.059
20
-136.944
11
193.202
21
-136.515
0
LINE
8
BLACK
6
CONTINUOUS
10
193.202
20
-136.515
11
193.345
21
-135.801
0
LINE
8
BLACK
6
CONTINUOUS
10
193.345
20
-135.801
11
193.345
21
-135.23
0
LINE
8
BLACK
6
CONTINUOUS
10
193.345
20
-135.23
11
193.202
21
-134.515
0
LINE
8
BLACK
6
CONTINUOUS
10
193.202
20
-134.515
11
193.059
21
-134.087
0
LINE
8
BLACK
6
CONTINUOUS
10
193.059
20
-134.087
11
192.916
21
-133.801
0
LINE
8
BLACK
6
CONTINUOUS
10
192.916
20
-133.801
11
192.63
21
-133.372
0
LINE
8
BLACK
6
CONTINUOUS
10
192.63
20
-133.372
11
192.487
21
-133.23
0
LINE
8
BLACK
6
CONTINUOUS
10
124.366
20
-138.861
11
124.366
21
-139.661
0
LINE
8
BLACK
6
CONTINUOUS
10
123.966
20
-139.261
11
124.766
21
-139.261
0
LINE
8
BLACK
6
CONTINUOUS
10
128.202
20
-137.618
11
128.487
21
-137.618
0
LINE
8
BLACK
6
CONTINUOUS
10
128.487
20
-137.618
11
128.773
21
-137.761
0
LINE
8
BLACK
6
CONTINUOUS
10
128.773
20
-137.761
11
128.916
21
-137.904
0
LINE
8
BLACK
6
CONTINUOUS
10
128.916
20
-137.904
11
129.059
21
-138.19
0
LINE
8
BLACK
6
CONTINUOUS
10
129.059
20
-138.19
11
129.202
21
-138.761
0
LINE
8
BLACK
6
CONTINUOUS
10
129.202
20
-138.761
11
129.202
21
-139.475
0
LINE
8
BLACK
6
CONTINUOUS
10
129.202
20
-139.475
11
129.059
21
-140.047
0
LINE
8
BLACK
6
CONTINUOUS
10
129.059
20
-140.047
11
128.916
21
-140.332
0
LINE
8
BLACK
6
CONTINUOUS
10
128.916
20
-140.332
11
128.773
21
-140.475
0
LINE
8
BLACK
6
CONTINUOUS
10
128.773
20
-140.475
11
128.487
21
-140.618
0
LINE
8
BLACK
6
CONTINUOUS
10
128.487
20
-140.618
11
128.202
21
-140.618
0
LINE
8
BLACK
6
CONTINUOUS
10
128.202
20
-140.618
11
127.916
21
-140.475
0
LINE
8
BLACK
6
CONTINUOUS
10
127.916
20
-140.475
11
127.773
21
-140.332
0
LINE
8
BLACK
6
CONTINUOUS
10
127.773
20
-140.332
11
127.63
21
-140.047
0
LINE
8
BLACK
6
CONTINUOUS
10
127.63
20
-140.047
11
127.487
21
-139.475
0
LINE
8
BLACK
6
CONTINUOUS
10
127.487
20
-139.475
11
127.487
21
-138.761
0
LINE
8
BLACK
6
CONTINUOUS
10
127.487
20
-138.761
11
127.63
21
-138.19
0
LINE
8
BLACK
6
CONTINUOUS
10
127.63
20
-138.19
11
127.773
21
-137.904
0
LINE
8
BLACK
6
CONTINUOUS
10
127.773
20
-137.904
11
127.916
21
-137.761
0
LINE
8
BLACK
6
CONTINUOUS
10
127.916
20
-137.761
11
128.202
21
-137.618
0
LINE
8
BLACK
6
CONTINUOUS
10
130.487
20
-140.332
11
130.63
21
-140.475
0
LINE
8
BLACK
6
CONTINUOUS
10
130.63
20
-140.475
11
130.487
21
-140.618
0
LINE
8
BLACK
6
CONTINUOUS
10
130.487
20
-140.618
11
130.345
21
-140.475
0
LINE
8
BLACK
6
CONTINUOUS
10
130.345
20
-140.475
11
130.487
21
-140.332
0
LINE
8
BLACK
6
CONTINUOUS
10
130.487
20
-140.332
11
130.487
21
-140.618
0
LINE
8
BLACK
6
CONTINUOUS
10
132.345
20
-138.904
11
132.059
21
-138.761
0
LINE
8
BLACK
6
CONTINUOUS
10
132.059
20
-138.761
11
131.916
21
-138.618
0
LINE
8
BLACK
6
CONTINUOUS
10
131.916
20
-138.618
11
131.773
21
-138.332
0
LINE
8
BLACK
6
CONTINUOUS
10
131.773
20
-138.332
11
131.773
21
-138.19
0
LINE
8
BLACK
6
CONTINUOUS
10
131.773
20
-138.19
11
131.916
21
-137.904
0
LINE
8
BLACK
6
CONTINUOUS
10
131.916
20
-137.904
11
132.059
21
-137.761
0
LINE
8
BLACK
6
CONTINUOUS
10
132.059
20
-137.761
11
132.345
21
-137.618
0
LINE
8
BLACK
6
CONTINUOUS
10
132.345
20
-137.618
11
132.916
21
-137.618
0
LINE
8
BLACK
6
CONTINUOUS
10
132.916
20
-137.618
11
133.202
21
-137.761
0
LINE
8
BLACK
6
CONTINUOUS
10
133.202
20
-137.761
11
133.345
21
-137.904
0
LINE
8
BLACK
6
CONTINUOUS
10
133.345
20
-137.904
11
133.487
21
-138.19
0
LINE
8
BLACK
6
CONTINUOUS
10
133.487
20
-138.19
11
133.487
21
-138.332
0
LINE
8
BLACK
6
CONTINUOUS
10
133.487
20
-138.332
11
133.345
21
-138.618
0
LINE
8
BLACK
6
CONTINUOUS
10
133.345
20
-138.618
11
133.202
21
-138.761
0
LINE
8
BLACK
6
CONTINUOUS
10
133.202
20
-138.761
11
132.916
21
-138.904
0
LINE
8
BLACK
6
CONTINUOUS
10
132.916
20
-138.904
11
132.345
21
-138.904
0
LINE
8
BLACK
6
CONTINUOUS
10
132.345
20
-138.904
11
132.059
21
-139.047
0
LINE
8
BLACK
6
CONTINUOUS
10
132.059
20
-139.047
11
131.916
21
-139.19
0
LINE
8
BLACK
6
CONTINUOUS
10
131.916
20
-139.19
11
131.773
21
-139.475
0
LINE
8
BLACK
6
CONTINUOUS
10
131.773
20
-139.475
11
131.773
21
-140.047
0
LINE
8
BLACK
6
CONTINUOUS
10
131.773
20
-140.047
11
131.916
21
-140.332
0
LINE
8
BLACK
6
CONTINUOUS
10
131.916
20
-140.332
11
132.059
21
-140.475
0
LINE
8
BLACK
6
CONTINUOUS
10
132.059
20
-140.475
11
132.345
21
-140.618
0
LINE
8
BLACK
6
CONTINUOUS
10
132.345
20
-140.618
11
132.916
21
-140.618
0
LINE
8
BLACK
6
CONTINUOUS
10
132.916
20
-140.618
11
133.202
21
-140.475
0
LINE
8
BLACK
6
CONTINUOUS
10
133.202
20
-140.475
11
133.345
21
-140.332
0
LINE
8
BLACK
6
CONTINUOUS
10
133.345
20
-140.332
11
133.487
21
-140.047
0
LINE
8
BLACK
6
CONTINUOUS
10
133.487
20
-140.047
11
133.487
21
-139.475
0
LINE
8
BLACK
6
CONTINUOUS
10
133.487
20
-139.475
11
133.345
21
-139.19
0
LINE
8
BLACK
6
CONTINUOUS
10
133.345
20
-139.19
11
133.202
21
-139.047
0
LINE
8
BLACK
6
CONTINUOUS
10
133.202
20
-139.047
11
132.916
21
-138.904
0
LINE
8
BLACK
6
CONTINUOUS
10
135.345
20
-137.618
11
135.63
21
-137.618
0
LINE
8
BLACK
6
CONTINUOUS
10
135.63
20
-137.618
11
135.916
21
-137.761
0
LINE
8
BLACK
6
CONTINUOUS
10
135.916
20
-137.761
11
136.059
21
-137.904
0
LINE
8
BLACK
6
CONTINUOUS
10
136.059
20
-137.904
11
136.202
21
-138.19
0
LINE
8
BLACK
6
CONTINUOUS
10
136.202
20
-138.19
11
136.345
21
-138.761
0
LINE
8
BLACK
6
CONTINUOUS
10
136.345
20
-138.761
11
136.345
21
-139.475
0
LINE
8
BLACK
6
CONTINUOUS
10
136.345
20
-139.475
11
136.202
21
-140.047
0
LINE
8
BLACK
6
CONTINUOUS
10
136.202
20
-140.047
11
136.059
21
-140.332
0
LINE
8
BLACK
6
CONTINUOUS
10
136.059
20
-140.332
11
135.916
21
-140.475
0
LINE
8
BLACK
6
CONTINUOUS
10
135.916
20
-140.475
11
135.63
21
-140.618
0
LINE
8
BLACK
6
CONTINUOUS
10
135.63
20
-140.618
11
135.345
21
-140.618
0
LINE
8
BLACK
6
CONTINUOUS
10
135.345
20
-140.618
11
135.059
21
-140.475
0
LINE
8
BLACK
6
CONTINUOUS
10
135.059
20
-140.475
11
134.916
21
-140.332
0
LINE
8
BLACK
6
CONTINUOUS
10
134.916
20
-140.332
11
134.773
21
-140.047
0
LINE
8
BLACK
6
CONTINUOUS
10
134.773
20
-140.047
11
134.63
21
-139.475
0
LINE
8
BLACK
6
CONTINUOUS
10
134.63
20
-139.475
11
134.63
21
-138.761
0
LINE
8
BLACK
6
CONTINUOUS
10
134.63
20
-138.761
11
134.773
21
-138.19
0
LINE
8
BLACK
6
CONTINUOUS
10
134.773
20
-138.19
11
134.916
21
-137.904
0
LINE
8
BLACK
6
CONTINUOUS
10
134.916
20
-137.904
11
135.059
21
-137.761
0
LINE
8
BLACK
6
CONTINUOUS
10
135.059
20
-137.761
11
135.345
21
-137.618
0
LINE
8
BLACK
6
CONTINUOUS
10
137.63
20
-140.618
11
137.63
21
-138.618
0
LINE
8
BLACK
6
CONTINUOUS
10
137.63
20
-138.904
11
137.773
21
-138.761
0
LINE
8
BLACK
6
CONTINUOUS
10
137.773
20
-138.761
11
138.059
21
-138.618
0
LINE
8
BLACK
6
CONTINUOUS
10
138.059
20
-138.618
11
138.487
21
-138.618
0
LINE
8
BLACK
6
CONTINUOUS
10
138.487
20
-138.618
11
138.773
21
-138.761
0
LINE
8
BLACK
6
CONTINUOUS
10
138.773
20
-138.761
11
138.916
21
-139.047
0
LINE
8
BLACK
6
CONTINUOUS
10
138.916
20
-139.047
11
138.916
21
-140.618
0
LINE
8
BLACK
6
CONTINUOUS
10
138.916
20
-139.047
11
139.059
21
-138.761
0
LINE
8
BLACK
6
CONTINUOUS
10
139.059
20
-138.761
11
139.345
21
-138.618
0
LINE
8
BLACK
6
CONTINUOUS
10
139.345
20
-138.618
11
139.773
21
-138.618
0
LINE
8
BLACK
6
CONTINUOUS
10
139.773
20
-138.618
11
140.059
21
-138.761
0
LINE
8
BLACK
6
CONTINUOUS
10
140.059
20
-138.761
11
140.202
21
-139.047
0
LINE
8
BLACK
6
CONTINUOUS
10
140.202
20
-139.047
11
140.202
21
-140.618
0
LINE
8
BLACK
6
CONTINUOUS
10
141.63
20
-140.618
11
141.63
21
-138.618
0
LINE
8
BLACK
6
CONTINUOUS
10
141.63
20
-138.904
11
141.773
21
-138.761
0
LINE
8
BLACK
6
CONTINUOUS
10
141.773
20
-138.761
11
142.059
21
-138.618
0
LINE
8
BLACK
6
CONTINUOUS
10
142.059
20
-138.618
11
142.487
21
-138.618
0
LINE
8
BLACK
6
CONTINUOUS
10
142.487
20
-138.618
11
142.773
21
-138.761
0
LINE
8
BLACK
6
CONTINUOUS
10
142.773
20
-138.761
11
142.916
21
-139.047
0
LINE
8
BLACK
6
CONTINUOUS
10
142.916
20
-139.047
11
142.916
21
-140.618
0
LINE
8
BLACK
6
CONTINUOUS
10
142.916
20
-139.047
11
143.059
21
-138.761
0
LINE
8
BLACK
6
CONTINUOUS
10
143.059
20
-138.761
11
143.345
21
-138.618
0
LINE
8
BLACK
6
CONTINUOUS
10
143.345
20
-138.618
11
143.773
21
-138.618
0
LINE
8
BLACK
6
CONTINUOUS
10
143.773
20
-138.618
11
144.059
21
-138.761
0
LINE
8
BLACK
6
CONTINUOUS
10
144.059
20
-138.761
11
144.202
21
-139.047
0
LINE
8
BLACK
6
CONTINUOUS
10
144.202
20
-139.047
11
144.202
21
-140.618
0
LINE
8
BLACK
6
CONTINUOUS
10
150.059
20
-137.475
11
147.487
21
-141.332
0
LINE
8
BLACK
6
CONTINUOUS
10
153.916
20
-137.618
11
154.202
21
-137.618
0
LINE
8
BLACK
6
CONTINUOUS
10
154.202
20
-137.618
11
154.487
21
-137.761
0
LINE
8
BLACK
6
CONTINUOUS
10
154.487
20
-137.761
11
154.63
21
-137.904
0
LINE
8
BLACK
6
CONTINUOUS
10
154.63
20
-137.904
11
154.773
21
-138.19
0
LINE
8
BLACK
6
CONTINUOUS
10
154.773
20
-138.19
11
154.916
21
-138.761
0
LINE
8
BLACK
6
CONTINUOUS
10
154.916
20
-138.761
11
154.916
21
-139.475
0
LINE
8
BLACK
6
CONTINUOUS
10
154.916
20
-139.475
11
154.773
21
-140.047
0
LINE
8
BLACK
6
CONTINUOUS
10
154.773
20
-140.047
11
154.63
21
-140.332
0
LINE
8
BLACK
6
CONTINUOUS
10
154.63
20
-140.332
11
154.487
21
-140.475
0
LINE
8
BLACK
6
CONTINUOUS
10
154.487
20
-140.475
11
154.202
21
-140.618
0
LINE
8
BLACK
6
CONTINUOUS
10
154.202
20
-140.618
11
153.916
21
-140.618
0
LINE
8
BLACK
6
CONTINUOUS
10
153.916
20
-140.618
11
153.63
21
-140.475
0
LINE
8
BLACK
6
CONTINUOUS
10
153.63
20
-140.475
11
153.487
21
-140.332
0
LINE
8
BLACK
6
CONTINUOUS
10
153.487
20
-140.332
11
153.345
21
-140.047
0
LINE
8
BLACK
6
CONTINUOUS
10
153.345
20
-140.047
11
153.202
21
-139.475
0
LINE
8
BLACK
6
CONTINUOUS
10
153.202
20
-139.475
11
153.202
21
-138.761
0
LINE
8
BLACK
6
CONTINUOUS
10
153.202
20
-138.761
11
153.345
21
-138.19
0
LINE
8
BLACK
6
CONTINUOUS
10
153.345
20
-138.19
11
153.487
21
-137.904
0
LINE
8
BLACK
6
CONTINUOUS
10
153.487
20
-137.904
11
153.63
21
-137.761
0
LINE
8
BLACK
6
CONTINUOUS
10
153.63
20
-137.761
11
153.916
21
-137.618
0
LINE
8
BLACK
6
CONTINUOUS
10
156.202
20
-140.332
11
156.345
21
-140.475
0
LINE
8
BLACK
6
CONTINUOUS
10
156.345
20
-140.475
11
156.202
21
-140.618
0
LINE
8
BLACK
6
CONTINUOUS
10
156.202
20
-140.618
11
156.059
21
-140.475
0
LINE
8
BLACK
6
CONTINUOUS
10
156.059
20
-140.475
11
156.202
21
-140.332
0
LINE
8
BLACK
6
CONTINUOUS
10
156.202
20
-140.332
11
156.202
21
-140.618
0
LINE
8
BLACK
6
CONTINUOUS
10
158.202
20
-137.618
11
158.487
21
-137.618
0
LINE
8
BLACK
6
CONTINUOUS
10
158.487
20
-137.618
11
158.773
21
-137.761
0
LINE
8
BLACK
6
CONTINUOUS
10
158.773
20
-137.761
11
158.916
21
-137.904
0
LINE
8
BLACK
6
CONTINUOUS
10
158.916
20
-137.904
11
159.059
21
-138.19
0
LINE
8
BLACK
6
CONTINUOUS
10
159.059
20
-138.19
11
159.202
21
-138.761
0
LINE
8
BLACK
6
CONTINUOUS
10
159.202
20
-138.761
11
159.202
21
-139.475
0
LINE
8
BLACK
6
CONTINUOUS
10
159.202
20
-139.475
11
159.059
21
-140.047
0
LINE
8
BLACK
6
CONTINUOUS
10
159.059
20
-140.047
11
158.916
21
-140.332
0
LINE
8
BLACK
6
CONTINUOUS
10
158.916
20
-140.332
11
158.773
21
-140.475
0
LINE
8
BLACK
6
CONTINUOUS
10
158.773
20
-140.475
11
158.487
21
-140.618
0
LINE
8
BLACK
6
CONTINUOUS
10
158.487
20
-140.618
11
158.202
21
-140.618
0
LINE
8
BLACK
6
CONTINUOUS
10
158.202
20
-140.618
11
157.916
21
-140.475
0
LINE
8
BLACK
6
CONTINUOUS
10
157.916
20
-140.475
11
157.773
21
-140.332
0
LINE
8
BLACK
6
CONTINUOUS
10
157.773
20
-140.332
11
157.63
21
-140.047
0
LINE
8
BLACK
6
CONTINUOUS
10
157.63
20
-140.047
11
157.487
21
-139.475
0
LINE
8
BLACK
6
CONTINUOUS
10
157.487
20
-139.475
11
157.487
21
-138.761
0
LINE
8
BLACK
6
CONTINUOUS
10
157.487
20
-138.761
11
157.63
21
-138.19
0
LINE
8
BLACK
6
CONTINUOUS
10
157.63
20
-138.19
11
157.773
21
-137.904
0
LINE
8
BLACK
6
CONTINUOUS
10
157.773
20
-137.904
11
157.916
21
-137.761
0
LINE
8
BLACK
6
CONTINUOUS
10
157.916
20
-137.761
11
158.202
21
-137.618
0
LINE
8
BLACK
6
CONTINUOUS
10
160.202
20
-137.618
11
162.059
21
-137.618
0
LINE
8
BLACK
6
CONTINUOUS
10
162.059
20
-137.618
11
161.059
21
-138.761
0
LINE
8
BLACK
6
CONTINUOUS
10
161.059
20
-138.761
11
161.487
21
-138.761
0
LINE
8
BLACK
6
CONTINUOUS
10
161.487
20
-138.761
11
161.773
21
-138.904
0
LINE
8
BLACK
6
CONTINUOUS
10
161.773
20
-138.904
11
161.916
21
-139.047
0
LINE
8
BLACK
6
CONTINUOUS
10
161.916
20
-139.047
11
162.059
21
-139.332
0
LINE
8
BLACK
6
CONTINUOUS
10
162.059
20
-139.332
11
162.059
21
-140.047
0
LINE
8
BLACK
6
CONTINUOUS
10
162.059
20
-140.047
11
161.916
21
-140.332
0
LINE
8
BLACK
6
CONTINUOUS
10
161.916
20
-140.332
11
161.773
21
-140.475
0
LINE
8
BLACK
6
CONTINUOUS
10
161.773
20
-140.475
11
161.487
21
-140.618
0
LINE
8
BLACK
6
CONTINUOUS
10
161.487
20
-140.618
11
160.63
21
-140.618
0
LINE
8
BLACK
6
CONTINUOUS
10
160.63
20
-140.618
11
160.345
21
-140.475
0
LINE
8
BLACK
6
CONTINUOUS
10
160.345
20
-140.475
11
160.202
21
-140.332
0
LINE
8
BLACK
6
CONTINUOUS
10
164.916
20
-140.618
11
163.202
21
-140.618
0
LINE
8
BLACK
6
CONTINUOUS
10
164.059
20
-140.618
11
164.059
21
-137.618
0
LINE
8
BLACK
6
CONTINUOUS
10
164.059
20
-137.618
11
163.773
21
-138.047
0
LINE
8
BLACK
6
CONTINUOUS
10
163.773
20
-138.047
11
163.487
21
-138.332
0
LINE
8
BLACK
6
CONTINUOUS
10
163.487
20
-138.332
11
163.202
21
-138.475
0
LINE
8
BLACK
6
CONTINUOUS
10
166.059
20
-137.618
11
166.059
21
-138.19
0
LINE
8
BLACK
6
CONTINUOUS
10
167.202
20
-137.618
11
167.202
21
-138.19
0
LINE
8
BLACK
6
CONTINUOUS
10
171.63
20
-141.761
11
171.487
21
-141.618
0
LINE
8
BLACK
6
CONTINUOUS
10
171.487
20
-141.618
11
171.202
21
-141.19
0
LINE
8
BLACK
6
CONTINUOUS
10
171.202
20
-141.19
11
171.059
21
-140.904
0
LINE
8
BLACK
6
CONTINUOUS
10
171.059
20
-140.904
11
170.916
21
-140.475
0
LINE
8
BLACK
6
CONTINUOUS
10
170.916
20
-140.475
11
170.773
21
-139.761
0
LINE
8
BLACK
6
CONTINUOUS
10
170.773
20
-139.761
11
170.773
21
-139.19
0
LINE
8
BLACK
6
CONTINUOUS
10
170.773
20
-139.19
11
170.916
21
-138.475
0
LINE
8
BLACK
6
CONTINUOUS
10
170.916
20
-138.475
11
171.059
21
-138.047
0
LINE
8
BLACK
6
CONTINUOUS
10
171.059
20
-138.047
11
171.202
21
-137.761
0
LINE
8
BLACK
6
CONTINUOUS
10
171.202
20
-137.761
11
171.487
21
-137.332
0
LINE
8
BLACK
6
CONTINUOUS
10
171.487
20
-137.332
11
171.63
21
-137.19
0
LINE
8
BLACK
6
CONTINUOUS
10
172.63
20
-137.904
11
172.773
21
-137.761
0
LINE
8
BLACK
6
CONTINUOUS
10
172.773
20
-137.761
11
173.059
21
-137.618
0
LINE
8
BLACK
6
CONTINUOUS
10
173.059
20
-137.618
11
173.773
21
-137.618
0
LINE
8
BLACK
6
CONTINUOUS
10
173.773
20
-137.618
11
174.059
21
-137.761
0
LINE
8
BLACK
6
CONTINUOUS
10
174.059
20
-137.761
11
174.202
21
-137.904
0
LINE
8
BLACK
6
CONTINUOUS
10
174.202
20
-137.904
11
174.345
21
-138.19
0
LINE
8
BLACK
6
CONTINUOUS
10
174.345
20
-138.19
11
174.345
21
-138.475
0
LINE
8
BLACK
6
CONTINUOUS
10
174.345
20
-138.475
11
174.202
21
-138.904
0
LINE
8
BLACK
6
CONTINUOUS
10
174.202
20
-138.904
11
172.487
21
-140.618
0
LINE
8
BLACK
6
CONTINUOUS
10
172.487
20
-140.618
11
174.345
21
-140.618
0
LINE
8
BLACK
6
CONTINUOUS
10
176.059
20
-138.904
11
175.773
21
-138.761
0
LINE
8
BLACK
6
CONTINUOUS
10
175.773
20
-138.761
11
175.63
21
-138.618
0
LINE
8
BLACK
6
CONTINUOUS
10
175.63
20
-138.618
11
175.487
21
-138.332
0
LINE
8
BLACK
6
CONTINUOUS
10
175.487
20
-138.332
11
175.487
21
-138.19
0
LINE
8
BLACK
6
CONTINUOUS
10
175.487
20
-138.19
11
175.63
21
-137.904
0
LINE
8
BLACK
6
CONTINUOUS
10
175.63
20
-137.904
11
175.773
21
-137.761
0
LINE
8
BLACK
6
CONTINUOUS
10
175.773
20
-137.761
11
176.059
21
-137.618
0
LINE
8
BLACK
6
CONTINUOUS
10
176.059
20
-137.618
11
176.63
21
-137.618
0
LINE
8
BLACK
6
CONTINUOUS
10
176.63
20
-137.618
11
176.916
21
-137.761
0
LINE
8
BLACK
6
CONTINUOUS
10
176.916
20
-137.761
11
177.059
21
-137.904
0
LINE
8
BLACK
6
CONTINUOUS
10
177.059
20
-137.904
11
177.202
21
-138.19
0
LINE
8
BLACK
6
CONTINUOUS
10
177.202
20
-138.19
11
177.202
21
-138.332
0
LINE
8
BLACK
6
CONTINUOUS
10
177.202
20
-138.332
11
177.059
21
-138.618
0
LINE
8
BLACK
6
CONTINUOUS
10
177.059
20
-138.618
11
176.916
21
-138.761
0
LINE
8
BLACK
6
CONTINUOUS
10
176.916
20
-138.761
11
176.63
21
-138.904
0
LINE
8
BLACK
6
CONTINUOUS
10
176.63
20
-138.904
11
176.059
21
-138.904
0
LINE
8
BLACK
6
CONTINUOUS
10
176.059
20
-138.904
11
175.773
21
-139.047
0
LINE
8
BLACK
6
CONTINUOUS
10
175.773
20
-139.047
11
175.63
21
-139.19
0
LINE
8
BLACK
6
CONTINUOUS
10
175.63
20
-139.19
11
175.487
21
-139.475
0
LINE
8
BLACK
6
CONTINUOUS
10
175.487
20
-139.475
11
175.487
21
-140.047
0
LINE
8
BLACK
6
CONTINUOUS
10
175.487
20
-140.047
11
175.63
21
-140.332
0
LINE
8
BLACK
6
CONTINUOUS
10
175.63
20
-140.332
11
175.773
21
-140.475
0
LINE
8
BLACK
6
CONTINUOUS
10
175.773
20
-140.475
11
176.059
21
-140.618
0
LINE
8
BLACK
6
CONTINUOUS
10
176.059
20
-140.618
11
176.63
21
-140.618
0
LINE
8
BLACK
6
CONTINUOUS
10
176.63
20
-140.618
11
176.916
21
-140.475
0
LINE
8
BLACK
6
CONTINUOUS
10
176.916
20
-140.475
11
177.059
21
-140.332
0
LINE
8
BLACK
6
CONTINUOUS
10
177.059
20
-140.332
11
177.202
21
-140.047
0
LINE
8
BLACK
6
CONTINUOUS
10
177.202
20
-140.047
11
177.202
21
-139.475
0
LINE
8
BLACK
6
CONTINUOUS
10
177.202
20
-139.475
11
177.059
21
-139.19
0
LINE
8
BLACK
6
CONTINUOUS
10
177.059
20
-139.19
11
176.916
21
-139.047
0
LINE
8
BLACK
6
CONTINUOUS
10
176.916
20
-139.047
11
176.63
21
-138.904
0
LINE
8
BLACK
6
CONTINUOUS
10
180.773
20
-140.618
11
180.773
21
-137.618
0
LINE
8
BLACK
6
CONTINUOUS
10
182.059
20
-140.618
11
182.059
21
-139.047
0
LINE
8
BLACK
6
CONTINUOUS
10
182.059
20
-139.047
11
181.916
21
-138.761
0
LINE
8
BLACK
6
CONTINUOUS
10
181.916
20
-138.761
11
181.63
21
-138.618
0
LINE
8
BLACK
6
CONTINUOUS
10
181.63
20
-138.618
11
181.202
21
-138.618
0
LINE
8
BLACK
6
CONTINUOUS
10
181.202
20
-138.618
11
180.916
21
-138.761
0
LINE
8
BLACK
6
CONTINUOUS
10
180.916
20
-138.761
11
180.773
21
-138.904
0
LINE
8
BLACK
6
CONTINUOUS
10
183.916
20
-140.618
11
183.63
21
-140.475
0
LINE
8
BLACK
6
CONTINUOUS
10
183.63
20
-140.475
11
183.487
21
-140.332
0
LINE
8
BLACK
6
CONTINUOUS
10
183.487
20
-140.332
11
183.345
21
-140.047
0
LINE
8
BLACK
6
CONTINUOUS
10
183.345
20
-140.047
11
183.345
21
-139.19
0
LINE
8
BLACK
6
CONTINUOUS
10
183.345
20
-139.19
11
183.487
21
-138.904
0
LINE
8
BLACK
6
CONTINUOUS
10
183.487
20
-138.904
11
183.63
21
-138.761
0
LINE
8
BLACK
6
CONTINUOUS
10
183.63
20
-138.761
11
183.916
21
-138.618
0
LINE
8
BLACK
6
CONTINUOUS
10
183.916
20
-138.618
11
184.345
21
-138.618
0
LINE
8
BLACK
6
CONTINUOUS
10
184.345
20
-138.618
11
184.63
21
-138.761
0
LINE
8
BLACK
6
CONTINUOUS
10
184.63
20
-138.761
11
184.773
21
-138.904
0
LINE
8
BLACK
6
CONTINUOUS
10
184.773
20
-138.904
11
184.916
21
-139.19
0
LINE
8
BLACK
6
CONTINUOUS
10
184.916
20
-139.19
11
184.916
21
-140.047
0
LINE
8
BLACK
6
CONTINUOUS
10
184.916
20
-140.047
11
184.773
21
-140.332
0
LINE
8
BLACK
6
CONTINUOUS
10
184.773
20
-140.332
11
184.63
21
-140.475
0
LINE
8
BLACK
6
CONTINUOUS
10
184.63
20
-140.475
11
184.345
21
-140.618
0
LINE
8
BLACK
6
CONTINUOUS
10
184.345
20
-140.618
11
183.916
21
-140.618
0
LINE
8
BLACK
6
CONTINUOUS
10
186.63
20
-140.618
11
186.345
21
-140.475
0
LINE
8
BLACK
6
CONTINUOUS
10
186.345
20
-140.475
11
186.202
21
-140.19
0
LINE
8
BLACK
6
CONTINUOUS
10
186.202
20
-140.19
11
186.202
21
-137.618
0
LINE
8
BLACK
6
CONTINUOUS
10
188.916
20
-140.475
11
188.63
21
-140.618
0
LINE
8
BLACK
6
CONTINUOUS
10
188.63
20
-140.618
11
188.059
21
-140.618
0
LINE
8
BLACK
6
CONTINUOUS
10
188.059
20
-140.618
11
187.773
21
-140.475
0
LINE
8
BLACK
6
CONTINUOUS
10
187.773
20
-140.475
11
187.63
21
-140.19
0
LINE
8
BLACK
6
CONTINUOUS
10
187.63
20
-140.19
11
187.63
21
-139.047
0
LINE
8
BLACK
6
CONTINUOUS
10
187.63
20
-139.047
11
187.773
21
-138.761
0
LINE
8
BLACK
6
CONTINUOUS
10
187.773
20
-138.761
11
188.059
21
-138.618
0
LINE
8
BLACK
6
CONTINUOUS
10
188.059
20
-138.618
11
188.63
21
-138.618
0
LINE
8
BLACK
6
CONTINUOUS
10
188.63
20
-138.618
11
188.916
21
-138.761
0
LINE
8
BLACK
6
CONTINUOUS
10
188.916
20
-138.761
11
189.059
21
-139.047
0
LINE
8
BLACK
6
CONTINUOUS
10
189.059
20
-139.047
11
189.059
21
-139.332
0
LINE
8
BLACK
6
CONTINUOUS
10
189.059
20
-139.332
11
187.63
21
-139.618
0
LINE
8
BLACK
6
CONTINUOUS
10
190.202
20
-140.475
11
190.487
21
-140.618
0
LINE
8
BLACK
6
CONTINUOUS
10
190.487
20
-140.618
11
191.059
21
-140.618
0
LINE
8
BLACK
6
CONTINUOUS
10
191.059
20
-140.618
11
191.345
21
-140.475
0
LINE
8
BLACK
6
CONTINUOUS
10
191.345
20
-140.475
11
191.487
21
-140.19
0
LINE
8
BLACK
6
CONTINUOUS
10
191.487
20
-140.19
11
191.487
21
-140.047
0
LINE
8
BLACK
6
CONTINUOUS
10
191.487
20
-140.047
11
191.345
21
-139.761
0
LINE
8
BLACK
6
CONTINUOUS
10
191.345
20
-139.761
11
191.059
21
-139.618
0
LINE
8
BLACK
6
CONTINUOUS
10
191.059
20
-139.618
11
190.63
21
-139.618
0
LINE
8
BLACK
6
CONTINUOUS
10
190.63
20
-139.618
11
190.345
21
-139.475
0
LINE
8
BLACK
6
CONTINUOUS
10
190.345
20
-139.475
11
190.202
21
-139.19
0
LINE
8
BLACK
6
CONTINUOUS
10
190.202
20
-139.19
11
190.202
21
-139.047
0
LINE
8
BLACK
6
CONTINUOUS
10
190.202
20
-139.047
11
190.345
21
-138.761
0
LINE
8
BLACK
6
CONTINUOUS
10
190.345
20
-138.761
11
190.63
21
-138.618
0
LINE
8
BLACK
6
CONTINUOUS
10
190.63
20
-138.618
11
191.059
21
-138.618
0
LINE
8
BLACK
6
CONTINUOUS
10
191.059
20
-138.618
11
191.345
21
-138.761
0
LINE
8
BLACK
6
CONTINUOUS
10
192.487
20
-141.761
11
192.63
21
-141.618
0
LINE
8
BLACK
6
CONTINUOUS
10
192.63
20
-141.618
11
192.916
21
-141.19
0
LINE
8
BLACK
6
CONTINUOUS
10
192.916
20
-141.19
11
193.059
21
-140.904
0
LINE
8
BLACK
6
CONTINUOUS
10
193.059
20
-140.904
11
193.202
21
-140.475
0
LINE
8
BLACK
6
CONTINUOUS
10
193.202
20
-140.475
11
193.345
21
-139.761
0
LINE
8
BLACK
6
CONTINUOUS
10
193.345
20
-139.761
11
193.345
21
-139.19
0
LINE
8
BLACK
6
CONTINUOUS
10
193.345
20
-139.19
11
193.202
21
-138.475
0
LINE
8
BLACK
6
CONTINUOUS
10
193.202
20
-138.475
11
193.059
21
-138.047
0
LINE
8
BLACK
6
CONTINUOUS
10
193.059
20
-138.047
11
192.916
21
-137.761
0
LINE
8
BLACK
6
CONTINUOUS
10
192.916
20
-137.761
11
192.63
21
-137.332
0
LINE
8
BLACK
6
CONTINUOUS
10
192.63
20
-137.332
11
192.487
21
-137.19
0
LINE
8
BLACK
6
CONTINUOUS
10
124.634
20
-143.539
11
124.634
21
-142.903
0
LINE
8
BLACK
6
CONTINUOUS
10
124.634
20
-142.903
11
123.998
21
-142.903
0
LINE
8
BLACK
6
CONTINUOUS
10
123.998
20
-142.903
11
123.998
21
-143.539
0
LINE
8
BLACK
6
CONTINUOUS
10
123.998
20
-143.539
11
124.634
21
-143.539
0
LINE
8
BLACK
6
CONTINUOUS
10
128.202
20
-141.578
11
128.487
21
-141.578
0
LINE
8
BLACK
6
CONTINUOUS
10
128.487
20
-141.578
11
128.773
21
-141.721
0
LINE
8
BLACK
6
CONTINUOUS
10
128.773
20
-141.721
11
128.916
21
-141.864
0
LINE
8
BLACK
6
CONTINUOUS
10
128.916
20
-141.864
11
129.059
21
-142.15
0
LINE
8
BLACK
6
CONTINUOUS
10
129.059
20
-142.15
11
129.202
21
-142.721
0
LINE
8
BLACK
6
CONTINUOUS
10
129.202
20
-142.721
11
129.202
21
-143.435
0
LINE
8
BLACK
6
CONTINUOUS
10
129.202
20
-143.435
11
129.059
21
-144.007
0
LINE
8
BLACK
6
CONTINUOUS
10
129.059
20
-144.007
11
128.916
21
-144.292
0
LINE
8
BLACK
6
CONTINUOUS
10
128.916
20
-144.292
11
128.773
21
-144.435
0
LINE
8
BLACK
6
CONTINUOUS
10
128.773
20
-144.435
11
128.487
21
-144.578
0
LINE
8
BLACK
6
CONTINUOUS
10
128.487
20
-144.578
11
128.202
21
-144.578
0
LINE
8
BLACK
6
CONTINUOUS
10
128.202
20
-144.578
11
127.916
21
-144.435
0
LINE
8
BLACK
6
CONTINUOUS
10
127.916
20
-144.435
11
127.773
21
-144.292
0
LINE
8
BLACK
6
CONTINUOUS
10
127.773
20
-144.292
11
127.63
21
-144.007
0
LINE
8
BLACK
6
CONTINUOUS
10
127.63
20
-144.007
11
127.487
21
-143.435
0
LINE
8
BLACK
6
CONTINUOUS
10
127.487
20
-143.435
11
127.487
21
-142.721
0
LINE
8
BLACK
6
CONTINUOUS
10
127.487
20
-142.721
11
127.63
21
-142.15
0
LINE
8
BLACK
6
CONTINUOUS
10
127.63
20
-142.15
11
127.773
21
-141.864
0
LINE
8
BLACK
6
CONTINUOUS
10
127.773
20
-141.864
11
127.916
21
-141.721
0
LINE
8
BLACK
6
CONTINUOUS
10
127.916
20
-141.721
11
128.202
21
-141.578
0
LINE
8
BLACK
6
CONTINUOUS
10
130.487
20
-144.292
11
130.63
21
-144.435
0
LINE
8
BLACK
6
CONTINUOUS
10
130.63
20
-144.435
11
130.487
21
-144.578
0
LINE
8
BLACK
6
CONTINUOUS
10
130.487
20
-144.578
11
130.345
21
-144.435
0
LINE
8
BLACK
6
CONTINUOUS
10
130.345
20
-144.435
11
130.487
21
-144.292
0
LINE
8
BLACK
6
CONTINUOUS
10
130.487
20
-144.292
11
130.487
21
-144.578
0
LINE
8
BLACK
6
CONTINUOUS
10
132.059
20
-144.578
11
132.63
21
-144.578
0
LINE
8
BLACK
6
CONTINUOUS
10
132.63
20
-144.578
11
132.916
21
-144.435
0
LINE
8
BLACK
6
CONTINUOUS
10
132.916
20
-144.435
11
133.059
21
-144.292
0
LINE
8
BLACK
6
CONTINUOUS
10
133.059
20
-144.292
11
133.345
21
-143.864
0
LINE
8
BLACK
6
CONTINUOUS
10
133.345
20
-143.864
11
133.487
21
-143.292
0
LINE
8
BLACK
6
CONTINUOUS
10
133.487
20
-143.292
11
133.487
21
-142.15
0
LINE
8
BLACK
6
CONTINUOUS
10
133.487
20
-142.15
11
133.345
21
-141.864
0
LINE
8
BLACK
6
CONTINUOUS
10
133.345
20
-141.864
11
133.202
21
-141.721
0
LINE
8
BLACK
6
CONTINUOUS
10
133.202
20
-141.721
11
132.916
21
-141.578
0
LINE
8
BLACK
6
CONTINUOUS
10
132.916
20
-141.578
11
132.345
21
-141.578
0
LINE
8
BLACK
6
CONTINUOUS
10
132.345
20
-141.578
11
132.059
21
-141.721
0
LINE
8
BLACK
6
CONTINUOUS
10
132.059
20
-141.721
11
131.916
21
-141.864
0
LINE
8
BLACK
6
CONTINUOUS
10
131.916
20
-141.864
11
131.773
21
-142.15
0
LINE
8
BLACK
6
CONTINUOUS
10
131.773
20
-142.15
11
131.773
21
-142.864
0
LINE
8
BLACK
6
CONTINUOUS
10
131.773
20
-142.864
11
131.916
21
-143.15
0
LINE
8
BLACK
6
CONTINUOUS
10
131.916
20
-143.15
11
132.059
21
-143.292
0
LINE
8
BLACK
6
CONTINUOUS
10
132.059
20
-143.292
11
132.345
21
-143.435
0
LINE
8
BLACK
6
CONTINUOUS
10
132.345
20
-143.435
11
132.916
21
-143.435
0
LINE
8
BLACK
6
CONTINUOUS
10
132.916
20
-143.435
11
133.202
21
-143.292
0
LINE
8
BLACK
6
CONTINUOUS
10
133.202
20
-143.292
11
133.345
21
-143.15
0
LINE
8
BLACK
6
CONTINUOUS
10
133.345
20
-143.15
11
133.487
21
-142.864
0
LINE
8
BLACK
6
CONTINUOUS
10
135.345
20
-141.578
11
135.63
21
-141.578
0
LINE
8
BLACK
6
CONTINUOUS
10
135.63
20
-141.578
11
135.916
21
-141.721
0
LINE
8
BLACK
6
CONTINUOUS
10
135.916
20
-141.721
11
136.059
21
-141.864
0
LINE
8
BLACK
6
CONTINUOUS
10
136.059
20
-141.864
11
136.202
21
-142.15
0
LINE
8
BLACK
6
CONTINUOUS
10
136.202
20
-142.15
11
136.345
21
-142.721
0
LINE
8
BLACK
6
CONTINUOUS
10
136.345
20
-142.721
11
136.345
21
-143.435
0
LINE
8
BLACK
6
CONTINUOUS
10
136.345
20
-143.435
11
136.202
21
-144.007
0
LINE
8
BLACK
6
CONTINUOUS
10
136.202
20
-144.007
11
136.059
21
-144.292
0
LINE
8
BLACK
6
CONTINUOUS
10
136.059
20
-144.292
11
135.916
21
-144.435
0
LINE
8
BLACK
6
CONTINUOUS
10
135.916
20
-144.435
11
135.63
21
-144.578
0
LINE
8
BLACK
6
CONTINUOUS
10
135.63
20
-144.578
11
135.345
21
-144.578
0
LINE
8
BLACK
6
CONTINUOUS
10
135.345
20
-144.578
11
135.059
21
-144.435
0
LINE
8
BLACK
6
CONTINUOUS
10
135.059
20
-144.435
11
134.916
21
-144.292
0
LINE
8
BLACK
6
CONTINUOUS
10
134.916
20
-144.292
11
134.773
21
-144.007
0
LINE
8
BLACK
6
CONTINUOUS
10
134.773
20
-144.007
11
134.63
21
-143.435
0
LINE
8
BLACK
6
CONTINUOUS
10
134.63
20
-143.435
11
134.63
21
-142.721
0
LINE
8
BLACK
6
CONTINUOUS
10
134.63
20
-142.721
11
134.773
21
-142.15
0
LINE
8
BLACK
6
CONTINUOUS
10
134.773
20
-142.15
11
134.916
21
-141.864
0
LINE
8
BLACK
6
CONTINUOUS
10
134.916
20
-141.864
11
135.059
21
-141.721
0
LINE
8
BLACK
6
CONTINUOUS
10
135.059
20
-141.721
11
135.345
21
-141.578
0
LINE
8
BLACK
6
CONTINUOUS
10
137.63
20
-144.578
11
137.63
21
-142.578
0
LINE
8
BLACK
6
CONTINUOUS
10
137.63
20
-142.864
11
137.773
21
-142.721
0
LINE
8
BLACK
6
CONTINUOUS
10
137.773
20
-142.721
11
138.059
21
-142.578
0
LINE
8
BLACK
6
CONTINUOUS
10
138.059
20
-142.578
11
138.487
21
-142.578
0
LINE
8
BLACK
6
CONTINUOUS
10
138.487
20
-142.578
11
138.773
21
-142.721
0
LINE
8
BLACK
6
CONTINUOUS
10
138.773
20
-142.721
11
138.916
21
-143.007
0
LINE
8
BLACK
6
CONTINUOUS
10
138.916
20
-143.007
11
138.916
21
-144.578
0
LINE
8
BLACK
6
CONTINUOUS
10
138.916
20
-143.007
11
139.059
21
-142.721
0
LINE
8
BLACK
6
CONTINUOUS
10
139.059
20
-142.721
11
139.345
21
-142.578
0
LINE
8
BLACK
6
CONTINUOUS
10
139.345
20
-142.578
11
139.773
21
-142.578
0
LINE
8
BLACK
6
CONTINUOUS
10
139.773
20
-142.578
11
140.059
21
-142.721
0
LINE
8
BLACK
6
CONTINUOUS
10
140.059
20
-142.721
11
140.202
21
-143.007
0
LINE
8
BLACK
6
CONTINUOUS
10
140.202
20
-143.007
11
140.202
21
-144.578
0
LINE
8
BLACK
6
CONTINUOUS
10
141.63
20
-144.578
11
141.63
21
-142.578
0
LINE
8
BLACK
6
CONTINUOUS
10
141.63
20
-142.864
11
141.773
21
-142.721
0
LINE
8
BLACK
6
CONTINUOUS
10
141.773
20
-142.721
11
142.059
21
-142.578
0
LINE
8
BLACK
6
CONTINUOUS
10
142.059
20
-142.578
11
142.487
21
-142.578
0
LINE
8
BLACK
6
CONTINUOUS
10
142.487
20
-142.578
11
142.773
21
-142.721
0
LINE
8
BLACK
6
CONTINUOUS
10
142.773
20
-142.721
11
142.916
21
-143.007
0
LINE
8
BLACK
6
CONTINUOUS
10
142.916
20
-143.007
11
142.916
21
-144.578
0
LINE
8
BLACK
6
CONTINUOUS
10
142.916
20
-143.007
11
143.059
21
-142.721
0
LINE
8
BLACK
6
CONTINUOUS
10
143.059
20
-142.721
11
143.345
21
-142.578
0
LINE
8
BLACK
6
CONTINUOUS
10
143.345
20
-142.578
11
143.773
21
-142.578
0
LINE
8
BLACK
6
CONTINUOUS
10
143.773
20
-142.578
11
144.059
21
-142.721
0
LINE
8
BLACK
6
CONTINUOUS
10
144.059
20
-142.721
11
144.202
21
-143.007
0
LINE
8
BLACK
6
CONTINUOUS
10
144.202
20
-143.007
11
144.202
21
-144.578
0
LINE
8
BLACK
6
CONTINUOUS
10
150.059
20
-141.435
11
147.487
21
-145.292
0
LINE
8
BLACK
6
CONTINUOUS
10
153.916
20
-141.578
11
154.202
21
-141.578
0
LINE
8
BLACK
6
CONTINUOUS
10
154.202
20
-141.578
11
154.487
21
-141.721
0
LINE
8
BLACK
6
CONTINUOUS
10
154.487
20
-141.721
11
154.63
21
-141.864
0
LINE
8
BLACK
6
CONTINUOUS
10
154.63
20
-141.864
11
154.773
21
-142.15
0
LINE
8
BLACK
6
CONTINUOUS
10
154.773
20
-142.15
11
154.916
21
-142.721
0
LINE
8
BLACK
6
CONTINUOUS
10
154.916
20
-142.721
11
154.916
21
-143.435
0
LINE
8
BLACK
6
CONTINUOUS
10
154.916
20
-143.435
11
154.773
21
-144.007
0
LINE
8
BLACK
6
CONTINUOUS
10
154.773
20
-144.007
11
154.63
21
-144.292
0
LINE
8
BLACK
6
CONTINUOUS
10
154.63
20
-144.292
11
154.487
21
-144.435
0
LINE
8
BLACK
6
CONTINUOUS
10
154.487
20
-144.435
11
154.202
21
-144.578
0
LINE
8
BLACK
6
CONTINUOUS
10
154.202
20
-144.578
11
153.916
21
-144.578
0
LINE
8
BLACK
6
CONTINUOUS
10
153.916
20
-144.578
11
153.63
21
-144.435
0
LINE
8
BLACK
6
CONTINUOUS
10
153.63
20
-144.435
11
153.487
21
-144.292
0
LINE
8
BLACK
6
CONTINUOUS
10
153.487
20
-144.292
11
153.345
21
-144.007
0
LINE
8
BLACK
6
CONTINUOUS
10
153.345
20
-144.007
11
153.202
21
-143.435
0
LINE
8
BLACK
6
CONTINUOUS
10
153.202
20
-143.435
11
153.202
21
-142.721
0
LINE
8
BLACK
6
CONTINUOUS
10
153.202
20
-142.721
11
153.345
21
-142.15
0
LINE
8
BLACK
6
CONTINUOUS
10
153.345
20
-142.15
11
153.487
21
-141.864
0
LINE
8
BLACK
6
CONTINUOUS
10
153.487
20
-141.864
11
153.63
21
-141.721
0
LINE
8
BLACK
6
CONTINUOUS
10
153.63
20
-141.721
11
153.916
21
-141.578
0
LINE
8
BLACK
6
CONTINUOUS
10
156.202
20
-144.292
11
156.345
21
-144.435
0
LINE
8
BLACK
6
CONTINUOUS
10
156.345
20
-144.435
11
156.202
21
-144.578
0
LINE
8
BLACK
6
CONTINUOUS
10
156.202
20
-144.578
11
156.059
21
-144.435
0
LINE
8
BLACK
6
CONTINUOUS
10
156.059
20
-144.435
11
156.202
21
-144.292
0
LINE
8
BLACK
6
CONTINUOUS
10
156.202
20
-144.292
11
156.202
21
-144.578
0
LINE
8
BLACK
6
CONTINUOUS
10
158.202
20
-141.578
11
158.487
21
-141.578
0
LINE
8
BLACK
6
CONTINUOUS
10
158.487
20
-141.578
11
158.773
21
-141.721
0
LINE
8
BLACK
6
CONTINUOUS
10
158.773
20
-141.721
11
158.916
21
-141.864
0
LINE
8
BLACK
6
CONTINUOUS
10
158.916
20
-141.864
11
159.059
21
-142.15
0
LINE
8
BLACK
6
CONTINUOUS
10
159.059
20
-142.15
11
159.202
21
-142.721
0
LINE
8
BLACK
6
CONTINUOUS
10
159.202
20
-142.721
11
159.202
21
-143.435
0
LINE
8
BLACK
6
CONTINUOUS
10
159.202
20
-143.435
11
159.059
21
-144.007
0
LINE
8
BLACK
6
CONTINUOUS
10
159.059
20
-144.007
11
158.916
21
-144.292
0
LINE
8
BLACK
6
CONTINUOUS
10
158.916
20
-144.292
11
158.773
21
-144.435
0
LINE
8
BLACK
6
CONTINUOUS
10
158.773
20
-144.435
11
158.487
21
-144.578
0
LINE
8
BLACK
6
CONTINUOUS
10
158.487
20
-144.578
11
158.202
21
-144.578
0
LINE
8
BLACK
6
CONTINUOUS
10
158.202
20
-144.578
11
157.916
21
-144.435
0
LINE
8
BLACK
6
CONTINUOUS
10
157.916
20
-144.435
11
157.773
21
-144.292
0
LINE
8
BLACK
6
CONTINUOUS
10
157.773
20
-144.292
11
157.63
21
-144.007
0
LINE
8
BLACK
6
CONTINUOUS
10
157.63
20
-144.007
11
157.487
21
-143.435
0
LINE
8
BLACK
6
CONTINUOUS
10
157.487
20
-143.435
11
157.487
21
-142.721
0
LINE
8
BLACK
6
CONTINUOUS
10
157.487
20
-142.721
11
157.63
21
-142.15
0
LINE
8
BLACK
6
CONTINUOUS
10
157.63
20
-142.15
11
157.773
21
-141.864
0
LINE
8
BLACK
6
CONTINUOUS
10
157.773
20
-141.864
11
157.916
21
-141.721
0
LINE
8
BLACK
6
CONTINUOUS
10
157.916
20
-141.721
11
158.202
21
-141.578
0
LINE
8
BLACK
6
CONTINUOUS
10
160.202
20
-141.578
11
162.059
21
-141.578
0
LINE
8
BLACK
6
CONTINUOUS
10
162.059
20
-141.578
11
161.059
21
-142.721
0
LINE
8
BLACK
6
CONTINUOUS
10
161.059
20
-142.721
11
161.487
21
-142.721
0
LINE
8
BLACK
6
CONTINUOUS
10
161.487
20
-142.721
11
161.773
21
-142.864
0
LINE
8
BLACK
6
CONTINUOUS
10
161.773
20
-142.864
11
161.916
21
-143.007
0
LINE
8
BLACK
6
CONTINUOUS
10
161.916
20
-143.007
11
162.059
21
-143.292
0
LINE
8
BLACK
6
CONTINUOUS
10
162.059
20
-143.292
11
162.059
21
-144.007
0
LINE
8
BLACK
6
CONTINUOUS
10
162.059
20
-144.007
11
161.916
21
-144.292
0
LINE
8
BLACK
6
CONTINUOUS
10
161.916
20
-144.292
11
161.773
21
-144.435
0
LINE
8
BLACK
6
CONTINUOUS
10
161.773
20
-144.435
11
161.487
21
-144.578
0
LINE
8
BLACK
6
CONTINUOUS
10
161.487
20
-144.578
11
160.63
21
-144.578
0
LINE
8
BLACK
6
CONTINUOUS
10
160.63
20
-144.578
11
160.345
21
-144.435
0
LINE
8
BLACK
6
CONTINUOUS
10
160.345
20
-144.435
11
160.202
21
-144.292
0
LINE
8
BLACK
6
CONTINUOUS
10
164.773
20
-141.578
11
163.345
21
-141.578
0
LINE
8
BLACK
6
CONTINUOUS
10
163.345
20
-141.578
11
163.202
21
-143.007
0
LINE
8
BLACK
6
CONTINUOUS
10
163.202
20
-143.007
11
163.345
21
-142.864
0
LINE
8
BLACK
6
CONTINUOUS
10
163.345
20
-142.864
11
163.63
21
-142.721
0
LINE
8
BLACK
6
CONTINUOUS
10
163.63
20
-142.721
11
164.345
21
-142.721
0
LINE
8
BLACK
6
CONTINUOUS
10
164.345
20
-142.721
11
164.63
21
-142.864
0
LINE
8
BLACK
6
CONTINUOUS
10
164.63
20
-142.864
11
164.773
21
-143.007
0
LINE
8
BLACK
6
CONTINUOUS
10
164.773
20
-143.007
11
164.916
21
-143.292
0
LINE
8
BLACK
6
CONTINUOUS
10
164.916
20
-143.292
11
164.916
21
-144.007
0
LINE
8
BLACK
6
CONTINUOUS
10
164.916
20
-144.007
11
164.773
21
-144.292
0
LINE
8
BLACK
6
CONTINUOUS
10
164.773
20
-144.292
11
164.63
21
-144.435
0
LINE
8
BLACK
6
CONTINUOUS
10
164.63
20
-144.435
11
164.345
21
-144.578
0
LINE
8
BLACK
6
CONTINUOUS
10
164.345
20
-144.578
11
163.63
21
-144.578
0
LINE
8
BLACK
6
CONTINUOUS
10
163.63
20
-144.578
11
163.345
21
-144.435
0
LINE
8
BLACK
6
CONTINUOUS
10
163.345
20
-144.435
11
163.202
21
-144.292
0
LINE
8
BLACK
6
CONTINUOUS
10
166.059
20
-141.578
11
166.059
21
-142.15
0
LINE
8
BLACK
6
CONTINUOUS
10
167.202
20
-141.578
11
167.202
21
-142.15
0
LINE
8
BLACK
6
CONTINUOUS
10
171.63
20
-145.721
11
171.487
21
-145.578
0
LINE
8
BLACK
6
CONTINUOUS
10
171.487
20
-145.578
11
171.202
21
-145.15
0
LINE
8
BLACK
6
CONTINUOUS
10
171.202
20
-145.15
11
171.059
21
-144.864
0
LINE
8
BLACK
6
CONTINUOUS
10
171.059
20
-144.864
11
170.916
21
-144.435
0
LINE
8
BLACK
6
CONTINUOUS
10
170.916
20
-144.435
11
170.773
21
-143.721
0
LINE
8
BLACK
6
CONTINUOUS
10
170.773
20
-143.721
11
170.773
21
-143.15
0
LINE
8
BLACK
6
CONTINUOUS
10
170.773
20
-143.15
11
170.916
21
-142.435
0
LINE
8
BLACK
6
CONTINUOUS
10
170.916
20
-142.435
11
171.059
21
-142.007
0
LINE
8
BLACK
6
CONTINUOUS
10
171.059
20
-142.007
11
171.202
21
-141.721
0
LINE
8
BLACK
6
CONTINUOUS
10
171.202
20
-141.721
11
171.487
21
-141.292
0
LINE
8
BLACK
6
CONTINUOUS
10
171.487
20
-141.292
11
171.63
21
-141.15
0
LINE
8
BLACK
6
CONTINUOUS
10
174.059
20
-142.578
11
174.059
21
-144.578
0
LINE
8
BLACK
6
CONTINUOUS
10
173.345
20
-141.435
11
172.63
21
-143.578
0
LINE
8
BLACK
6
CONTINUOUS
10
172.63
20
-143.578
11
174.487
21
-143.578
0
LINE
8
BLACK
6
CONTINUOUS
10
177.916
20
-144.578
11
177.916
21
-141.578
0
LINE
8
BLACK
6
CONTINUOUS
10
179.202
20
-144.578
11
179.202
21
-143.007
0
LINE
8
BLACK
6
CONTINUOUS
10
179.202
20
-143.007
11
179.059
21
-142.721
0
LINE
8
BLACK
6
CONTINUOUS
10
179.059
20
-142.721
11
178.773
21
-142.578
0
LINE
8
BLACK
6
CONTINUOUS
10
178.773
20
-142.578
11
178.345
21
-142.578
0
LINE
8
BLACK
6
CONTINUOUS
10
178.345
20
-142.578
11
178.059
21
-142.721
0
LINE
8
BLACK
6
CONTINUOUS
10
178.059
20
-142.721
11
177.916
21
-142.864
0
LINE
8
BLACK
6
CONTINUOUS
10
181.059
20
-144.578
11
180.773
21
-144.435
0
LINE
8
BLACK
6
CONTINUOUS
10
180.773
20
-144.435
11
180.63
21
-144.292
0
LINE
8
BLACK
6
CONTINUOUS
10
180.63
20
-144.292
11
180.487
21
-144.007
0
LINE
8
BLACK
6
CONTINUOUS
10
180.487
20
-144.007
11
180.487
21
-143.15
0
LINE
8
BLACK
6
CONTINUOUS
10
180.487
20
-143.15
11
180.63
21
-142.864
0
LINE
8
BLACK
6
CONTINUOUS
10
180.63
20
-142.864
11
180.773
21
-142.721
0
LINE
8
BLACK
6
CONTINUOUS
10
180.773
20
-142.721
11
181.059
21
-142.578
0
LINE
8
BLACK
6
CONTINUOUS
10
181.059
20
-142.578
11
181.487
21
-142.578
0
LINE
8
BLACK
6
CONTINUOUS
10
181.487
20
-142.578
11
181.773
21
-142.721
0
LINE
8
BLACK
6
CONTINUOUS
10
181.773
20
-142.721
11
181.916
21
-142.864
0
LINE
8
BLACK
6
CONTINUOUS
10
181.916
20
-142.864
11
182.059
21
-143.15
0
LINE
8
BLACK
6
CONTINUOUS
10
182.059
20
-143.15
11
182.059
21
-144.007
0
LINE
8
BLACK
6
CONTINUOUS
10
182.059
20
-144.007
11
181.916
21
-144.292
0
LINE
8
BLACK
6
CONTINUOUS
10
181.916
20
-144.292
11
181.773
21
-144.435
0
LINE
8
BLACK
6
CONTINUOUS
10
181.773
20
-144.435
11
181.487
21
-144.578
0
LINE
8
BLACK
6
CONTINUOUS
10
181.487
20
-144.578
11
181.059
21
-144.578
0
LINE
8
BLACK
6
CONTINUOUS
10
183.773
20
-144.578
11
183.487
21
-144.435
0
LINE
8
BLACK
6
CONTINUOUS
10
183.487
20
-144.435
11
183.345
21
-144.15
0
LINE
8
BLACK
6
CONTINUOUS
10
183.345
20
-144.15
11
183.345
21
-141.578
0
LINE
8
BLACK
6
CONTINUOUS
10
186.059
20
-144.435
11
185.773
21
-144.578
0
LINE
8
BLACK
6
CONTINUOUS
10
185.773
20
-144.578
11
185.202
21
-144.578
0
LINE
8
BLACK
6
CONTINUOUS
10
185.202
20
-144.578
11
184.916
21
-144.435
0
LINE
8
BLACK
6
CONTINUOUS
10
184.916
20
-144.435
11
184.773
21
-144.15
0
LINE
8
BLACK
6
CONTINUOUS
10
184.773
20
-144.15
11
184.773
21
-143.007
0
LINE
8
BLACK
6
CONTINUOUS
10
184.773
20
-143.007
11
184.916
21
-142.721
0
LINE
8
BLACK
6
CONTINUOUS
10
184.916
20
-142.721
11
185.202
21
-142.578
0
LINE
8
BLACK
6
CONTINUOUS
10
185.202
20
-142.578
11
185.773
21
-142.578
0
LINE
8
BLACK
6
CONTINUOUS
10
185.773
20
-142.578
11
186.059
21
-142.721
0
LINE
8
BLACK
6
CONTINUOUS
10
186.059
20
-142.721
11
186.202
21
-143.007
0
LINE
8
BLACK
6
CONTINUOUS
10
186.202
20
-143.007
11
186.202
21
-143.292
0
LINE
8
BLACK
6
CONTINUOUS
10
186.202
20
-143.292
11
184.773
21
-143.578
0
LINE
8
BLACK
6
CONTINUOUS
10
187.345
20
-144.435
11
187.63
21
-144.578
0
LINE
8
BLACK
6
CONTINUOUS
10
187.63
20
-144.578
11
188.202
21
-144.578
0
LINE
8
BLACK
6
CONTINUOUS
10
188.202
20
-144.578
11
188.487
21
-144.435
0
LINE
8
BLACK
6
CONTINUOUS
10
188.487
20
-144.435
11
188.63
21
-144.15
0
LINE
8
BLACK
6
CONTINUOUS
10
188.63
20
-144.15
11
188.63
21
-144.007
0
LINE
8
BLACK
6
CONTINUOUS
10
188.63
20
-144.007
11
188.487
21
-143.721
0
LINE
8
BLACK
6
CONTINUOUS
10
188.487
20
-143.721
11
188.202
21
-143.578
0
LINE
8
BLACK
6
CONTINUOUS
10
188.202
20
-143.578
11
187.773
21
-143.578
0
LINE
8
BLACK
6
CONTINUOUS
10
187.773
20
-143.578
11
187.487
21
-143.435
0
LINE
8
BLACK
6
CONTINUOUS
10
187.487
20
-143.435
11
187.345
21
-143.15
0
LINE
8
BLACK
6
CONTINUOUS
10
187.345
20
-143.15
11
187.345
21
-143.007
0
LINE
8
BLACK
6
CONTINUOUS
10
187.345
20
-143.007
11
187.487
21
-142.721
0
LINE
8
BLACK
6
CONTINUOUS
10
187.487
20
-142.721
11
187.773
21
-142.578
0
LINE
8
BLACK
6
CONTINUOUS
10
187.773
20
-142.578
11
188.202
21
-142.578
0
LINE
8
BLACK
6
CONTINUOUS
10
188.202
20
-142.578
11
188.487
21
-142.721
0
LINE
8
BLACK
6
CONTINUOUS
10
189.63
20
-145.721
11
189.773
21
-145.578
0
LINE
8
BLACK
6
CONTINUOUS
10
189.773
20
-145.578
11
190.059
21
-145.15
0
LINE
8
BLACK
6
CONTINUOUS
10
190.059
20
-145.15
11
190.202
21
-144.864
0
LINE
8
BLACK
6
CONTINUOUS
10
190.202
20
-144.864
11
190.345
21
-144.435
0
LINE
8
BLACK
6
CONTINUOUS
10
190.345
20
-144.435
11
190.487
21
-143.721
0
LINE
8
BLACK
6
CONTINUOUS
10
190.487
20
-143.721
11
190.487
21
-143.15
0
LINE
8
BLACK
6
CONTINUOUS
10
190.487
20
-143.15
11
190.345
21
-142.435
0
LINE
8
BLACK
6
CONTINUOUS
10
190.345
20
-142.435
11
190.202
21
-142.007
0
LINE
8
BLACK
6
CONTINUOUS
10
190.202
20
-142.007
11
190.059
21
-141.721
0
LINE
8
BLACK
6
CONTINUOUS
10
190.059
20
-141.721
11
189.773
21
-141.292
0
LINE
8
BLACK
6
CONTINUOUS
10
189.773
20
-141.292
11
189.63
21
-141.15
0
LINE
8
BLACK
6
CONTINUOUS
10
124.266
20
-147.681
11
124.766
21
-147.181
0
LINE
8
BLACK
6
CONTINUOUS
10
124.766
20
-147.181
11
124.266
21
-146.681
0
LINE
8
BLACK
6
CONTINUOUS
10
124.266
20
-146.681
11
123.766
21
-147.181
0
LINE
8
BLACK
6
CONTINUOUS
10
123.766
20
-147.181
11
124.266
21
-147.681
0
LINE
8
BLACK
6
CONTINUOUS
10
129.202
20
-148.538
11
127.487
21
-148.538
0
LINE
8
BLACK
6
CONTINUOUS
10
128.345
20
-148.538
11
128.345
21
-145.538
0
LINE
8
BLACK
6
CONTINUOUS
10
128.345
20
-145.538
11
128.059
21
-145.967
0
LINE
8
BLACK
6
CONTINUOUS
10
128.059
20
-145.967
11
127.773
21
-146.252
0
LINE
8
BLACK
6
CONTINUOUS
10
127.773
20
-146.252
11
127.487
21
-146.395
0
LINE
8
BLACK
6
CONTINUOUS
10
130.487
20
-148.252
11
130.63
21
-148.395
0
LINE
8
BLACK
6
CONTINUOUS
10
130.63
20
-148.395
11
130.487
21
-148.538
0
LINE
8
BLACK
6
CONTINUOUS
10
130.487
20
-148.538
11
130.345
21
-148.395
0
LINE
8
BLACK
6
CONTINUOUS
10
130.345
20
-148.395
11
130.487
21
-148.252
0
LINE
8
BLACK
6
CONTINUOUS
10
130.487
20
-148.252
11
130.487
21
-148.538
0
LINE
8
BLACK
6
CONTINUOUS
10
132.487
20
-145.538
11
132.773
21
-145.538
0
LINE
8
BLACK
6
CONTINUOUS
10
132.773
20
-145.538
11
133.059
21
-145.681
0
LINE
8
BLACK
6
CONTINUOUS
10
133.059
20
-145.681
11
133.202
21
-145.824
0
LINE
8
BLACK
6
CONTINUOUS
10
133.202
20
-145.824
11
133.345
21
-146.11
0
LINE
8
BLACK
6
CONTINUOUS
10
133.345
20
-146.11
11
133.487
21
-146.681
0
LINE
8
BLACK
6
CONTINUOUS
10
133.487
20
-146.681
11
133.487
21
-147.395
0
LINE
8
BLACK
6
CONTINUOUS
10
133.487
20
-147.395
11
133.345
21
-147.967
0
LINE
8
BLACK
6
CONTINUOUS
10
133.345
20
-147.967
11
133.202
21
-148.252
0
LINE
8
BLACK
6
CONTINUOUS
10
133.202
20
-148.252
11
133.059
21
-148.395
0
LINE
8
BLACK
6
CONTINUOUS
10
133.059
20
-148.395
11
132.773
21
-148.538
0
LINE
8
BLACK
6
CONTINUOUS
10
132.773
20
-148.538
11
132.487
21
-148.538
0
LINE
8
BLACK
6
CONTINUOUS
10
132.487
20
-148.538
11
132.202
21
-148.395
0
LINE
8
BLACK
6
CONTINUOUS
10
132.202
20
-148.395
11
132.059
21
-148.252
0
LINE
8
BLACK
6
CONTINUOUS
10
132.059
20
-148.252
11
131.916
21
-147.967
0
LINE
8
BLACK
6
CONTINUOUS
10
131.916
20
-147.967
11
131.773
21
-147.395
0
LINE
8
BLACK
6
CONTINUOUS
10
131.773
20
-147.395
11
131.773
21
-146.681
0
LINE
8
BLACK
6
CONTINUOUS
10
131.773
20
-146.681
11
131.916
21
-146.11
0
LINE
8
BLACK
6
CONTINUOUS
10
131.916
20
-146.11
11
132.059
21
-145.824
0
LINE
8
BLACK
6
CONTINUOUS
10
132.059
20
-145.824
11
132.202
21
-145.681
0
LINE
8
BLACK
6
CONTINUOUS
10
132.202
20
-145.681
11
132.487
21
-145.538
0
LINE
8
BLACK
6
CONTINUOUS
10
135.345
20
-145.538
11
135.63
21
-145.538
0
LINE
8
BLACK
6
CONTINUOUS
10
135.63
20
-145.538
11
135.916
21
-145.681
0
LINE
8
BLACK
6
CONTINUOUS
10
135.916
20
-145.681
11
136.059
21
-145.824
0
LINE
8
BLACK
6
CONTINUOUS
10
136.059
20
-145.824
11
136.202
21
-146.11
0
LINE
8
BLACK
6
CONTINUOUS
10
136.202
20
-146.11
11
136.345
21
-146.681
0
LINE
8
BLACK
6
CONTINUOUS
10
136.345
20
-146.681
11
136.345
21
-147.395
0
LINE
8
BLACK
6
CONTINUOUS
10
136.345
20
-147.395
11
136.202
21
-147.967
0
LINE
8
BLACK
6
CONTINUOUS
10
136.202
20
-147.967
11
136.059
21
-148.252
0
LINE
8
BLACK
6
CONTINUOUS
10
136.059
20
-148.252
11
135.916
21
-148.395
0
LINE
8
BLACK
6
CONTINUOUS
10
135.916
20
-148.395
11
135.63
21
-148.538
0
LINE
8
BLACK
6
CONTINUOUS
10
135.63
20
-148.538
11
135.345
21
-148.538
0
LINE
8
BLACK
6
CONTINUOUS
10
135.345
20
-148.538
11
135.059
21
-148.395
0
LINE
8
BLACK
6
CONTINUOUS
10
135.059
20
-148.395
11
134.916
21
-148.252
0
LINE
8
BLACK
6
CONTINUOUS
10
134.916
20
-148.252
11
134.773
21
-147.967
0
LINE
8
BLACK
6
CONTINUOUS
10
134.773
20
-147.967
11
134.63
21
-147.395
0
LINE
8
BLACK
6
CONTINUOUS
10
134.63
20
-147.395
11
134.63
21
-146.681
0
LINE
8
BLACK
6
CONTINUOUS
10
134.63
20
-146.681
11
134.773
21
-146.11
0
LINE
8
BLACK
6
CONTINUOUS
10
134.773
20
-146.11
11
134.916
21
-145.824
0
LINE
8
BLACK
6
CONTINUOUS
10
134.916
20
-145.824
11
135.059
21
-145.681
0
LINE
8
BLACK
6
CONTINUOUS
10
135.059
20
-145.681
11
135.345
21
-145.538
0
LINE
8
BLACK
6
CONTINUOUS
10
137.63
20
-148.538
11
137.63
21
-146.538
0
LINE
8
BLACK
6
CONTINUOUS
10
137.63
20
-146.824
11
137.773
21
-146.681
0
LINE
8
BLACK
6
CONTINUOUS
10
137.773
20
-146.681
11
138.059
21
-146.538
0
LINE
8
BLACK
6
CONTINUOUS
10
138.059
20
-146.538
11
138.487
21
-146.538
0
LINE
8
BLACK
6
CONTINUOUS
10
138.487
20
-146.538
11
138.773
21
-146.681
0
LINE
8
BLACK
6
CONTINUOUS
10
138.773
20
-146.681
11
138.916
21
-146.967
0
LINE
8
BLACK
6
CONTINUOUS
10
138.916
20
-146.967
11
138.916
21
-148.538
0
LINE
8
BLACK
6
CONTINUOUS
10
138.916
20
-146.967
11
139.059
21
-146.681
0
LINE
8
BLACK
6
CONTINUOUS
10
139.059
20
-146.681
11
139.345
21
-146.538
0
LINE
8
BLACK
6
CONTINUOUS
10
139.345
20
-146.538
11
139.773
21
-146.538
0
LINE
8
BLACK
6
CONTINUOUS
10
139.773
20
-146.538
11
140.059
21
-146.681
0
LINE
8
BLACK
6
CONTINUOUS
10
140.059
20
-146.681
11
140.202
21
-146.967
0
LINE
8
BLACK
6
CONTINUOUS
10
140.202
20
-146.967
11
140.202
21
-148.538
0
LINE
8
BLACK
6
CONTINUOUS
10
141.63
20
-148.538
11
141.63
21
-146.538
0
LINE
8
BLACK
6
CONTINUOUS
10
141.63
20
-146.824
11
141.773
21
-146.681
0
LINE
8
BLACK
6
CONTINUOUS
10
141.773
20
-146.681
11
142.059
21
-146.538
0
LINE
8
BLACK
6
CONTINUOUS
10
142.059
20
-146.538
11
142.487
21
-146.538
0
LINE
8
BLACK
6
CONTINUOUS
10
142.487
20
-146.538
11
142.773
21
-146.681
0
LINE
8
BLACK
6
CONTINUOUS
10
142.773
20
-146.681
11
142.916
21
-146.967
0
LINE
8
BLACK
6
CONTINUOUS
10
142.916
20
-146.967
11
142.916
21
-148.538
0
LINE
8
BLACK
6
CONTINUOUS
10
142.916
20
-146.967
11
143.059
21
-146.681
0
LINE
8
BLACK
6
CONTINUOUS
10
143.059
20
-146.681
11
143.345
21
-146.538
0
LINE
8
BLACK
6
CONTINUOUS
10
143.345
20
-146.538
11
143.773
21
-146.538
0
LINE
8
BLACK
6
CONTINUOUS
10
143.773
20
-146.538
11
144.059
21
-146.681
0
LINE
8
BLACK
6
CONTINUOUS
10
144.059
20
-146.681
11
144.202
21
-146.967
0
LINE
8
BLACK
6
CONTINUOUS
10
144.202
20
-146.967
11
144.202
21
-148.538
0
LINE
8
BLACK
6
CONTINUOUS
10
150.059
20
-145.395
11
147.487
21
-149.252
0
LINE
8
BLACK
6
CONTINUOUS
10
153.916
20
-145.538
11
154.202
21
-145.538
0
LINE
8
BLACK
6
CONTINUOUS
10
154.202
20
-145.538
11
154.487
21
-145.681
0
LINE
8
BLACK
6
CONTINUOUS
10
154.487
20
-145.681
11
154.63
21
-145.824
0
LINE
8
BLACK
6
CONTINUOUS
10
154.63
20
-145.824
11
154.773
21
-146.11
0
LINE
8
BLACK
6
CONTINUOUS
10
154.773
20
-146.11
11
154.916
21
-146.681
0
LINE
8
BLACK
6
CONTINUOUS
10
154.916
20
-146.681
11
154.916
21
-147.395
0
LINE
8
BLACK
6
CONTINUOUS
10
154.916
20
-147.395
11
154.773
21
-147.967
0
LINE
8
BLACK
6
CONTINUOUS
10
154.773
20
-147.967
11
154.63
21
-148.252
0
LINE
8
BLACK
6
CONTINUOUS
10
154.63
20
-148.252
11
154.487
21
-148.395
0
LINE
8
BLACK
6
CONTINUOUS
10
154.487
20
-148.395
11
154.202
21
-148.538
0
LINE
8
BLACK
6
CONTINUOUS
10
154.202
20
-148.538
11
153.916
21
-148.538
0
LINE
8
BLACK
6
CONTINUOUS
10
153.916
20
-148.538
11
153.63
21
-148.395
0
LINE
8
BLACK
6
CONTINUOUS
10
153.63
20
-148.395
11
153.487
21
-148.252
0
LINE
8
BLACK
6
CONTINUOUS
10
153.487
20
-148.252
11
153.345
21
-147.967
0
LINE
8
BLACK
6
CONTINUOUS
10
153.345
20
-147.967
11
153.202
21
-147.395
0
LINE
8
BLACK
6
CONTINUOUS
10
153.202
20
-147.395
11
153.202
21
-146.681
0
LINE
8
BLACK
6
CONTINUOUS
10
153.202
20
-146.681
11
153.345
21
-146.11
0
LINE
8
BLACK
6
CONTINUOUS
10
153.345
20
-146.11
11
153.487
21
-145.824
0
LINE
8
BLACK
6
CONTINUOUS
10
153.487
20
-145.824
11
153.63
21
-145.681
0
LINE
8
BLACK
6
CONTINUOUS
10
153.63
20
-145.681
11
153.916
21
-145.538
0
LINE
8
BLACK
6
CONTINUOUS
10
156.202
20
-148.252
11
156.345
21
-148.395
0
LINE
8
BLACK
6
CONTINUOUS
10
156.345
20
-148.395
11
156.202
21
-148.538
0
LINE
8
BLACK
6
CONTINUOUS
10
156.202
20
-148.538
11
156.059
21
-148.395
0
LINE
8
BLACK
6
CONTINUOUS
10
156.059
20
-148.395
11
156.202
21
-148.252
0
LINE
8
BLACK
6
CONTINUOUS
10
156.202
20
-148.252
11
156.202
21
-148.538
0
LINE
8
BLACK
6
CONTINUOUS
10
158.202
20
-145.538
11
158.487
21
-145.538
0
LINE
8
BLACK
6
CONTINUOUS
10
158.487
20
-145.538
11
158.773
21
-145.681
0
LINE
8
BLACK
6
CONTINUOUS
10
158.773
20
-145.681
11
158.916
21
-145.824
0
LINE
8
BLACK
6
CONTINUOUS
10
158.916
20
-145.824
11
159.059
21
-146.11
0
LINE
8
BLACK
6
CONTINUOUS
10
159.059
20
-146.11
11
159.202
21
-146.681
0
LINE
8
BLACK
6
CONTINUOUS
10
159.202
20
-146.681
11
159.202
21
-147.395
0
LINE
8
BLACK
6
CONTINUOUS
10
159.202
20
-147.395
11
159.059
21
-147.967
0
LINE
8
BLACK
6
CONTINUOUS
10
159.059
20
-147.967
11
158.916
21
-148.252
0
LINE
8
BLACK
6
CONTINUOUS
10
158.916
20
-148.252
11
158.773
21
-148.395
0
LINE
8
BLACK
6
CONTINUOUS
10
158.773
20
-148.395
11
158.487
21
-148.538
0
LINE
8
BLACK
6
CONTINUOUS
10
158.487
20
-148.538
11
158.202
21
-148.538
0
LINE
8
BLACK
6
CONTINUOUS
10
158.202
20
-148.538
11
157.916
21
-148.395
0
LINE
8
BLACK
6
CONTINUOUS
10
157.916
20
-148.395
11
157.773
21
-148.252
0
LINE
8
BLACK
6
CONTINUOUS
10
157.773
20
-148.252
11
157.63
21
-147.967
0
LINE
8
BLACK
6
CONTINUOUS
10
157.63
20
-147.967
11
157.487
21
-147.395
0
LINE
8
BLACK
6
CONTINUOUS
10
157.487
20
-147.395
11
157.487
21
-146.681
0
LINE
8
BLACK
6
CONTINUOUS
10
157.487
20
-146.681
11
157.63
21
-146.11
0
LINE
8
BLACK
6
CONTINUOUS
10
157.63
20
-146.11
11
157.773
21
-145.824
0
LINE
8
BLACK
6
CONTINUOUS
10
157.773
20
-145.824
11
157.916
21
-145.681
0
LINE
8
BLACK
6
CONTINUOUS
10
157.916
20
-145.681
11
158.202
21
-145.538
0
LINE
8
BLACK
6
CONTINUOUS
10
160.202
20
-145.538
11
162.059
21
-145.538
0
LINE
8
BLACK
6
CONTINUOUS
10
162.059
20
-145.538
11
161.059
21
-146.681
0
LINE
8
BLACK
6
CONTINUOUS
10
161.059
20
-146.681
11
161.487
21
-146.681
0
LINE
8
BLACK
6
CONTINUOUS
10
161.487
20
-146.681
11
161.773
21
-146.824
0
LINE
8
BLACK
6
CONTINUOUS
10
161.773
20
-146.824
11
161.916
21
-146.967
0
LINE
8
BLACK
6
CONTINUOUS
10
161.916
20
-146.967
11
162.059
21
-147.252
0
LINE
8
BLACK
6
CONTINUOUS
10
162.059
20
-147.252
11
162.059
21
-147.967
0
LINE
8
BLACK
6
CONTINUOUS
10
162.059
20
-147.967
11
161.916
21
-148.252
0
LINE
8
BLACK
6
CONTINUOUS
10
161.916
20
-148.252
11
161.773
21
-148.395
0
LINE
8
BLACK
6
CONTINUOUS
10
161.773
20
-148.395
11
161.487
21
-148.538
0
LINE
8
BLACK
6
CONTINUOUS
10
161.487
20
-148.538
11
160.63
21
-148.538
0
LINE
8
BLACK
6
CONTINUOUS
10
160.63
20
-148.538
11
160.345
21
-148.395
0
LINE
8
BLACK
6
CONTINUOUS
10
160.345
20
-148.395
11
160.202
21
-148.252
0
LINE
8
BLACK
6
CONTINUOUS
10
163.487
20
-148.538
11
164.059
21
-148.538
0
LINE
8
BLACK
6
CONTINUOUS
10
164.059
20
-148.538
11
164.345
21
-148.395
0
LINE
8
BLACK
6
CONTINUOUS
10
164.345
20
-148.395
11
164.487
21
-148.252
0
LINE
8
BLACK
6
CONTINUOUS
10
164.487
20
-148.252
11
164.773
21
-147.824
0
LINE
8
BLACK
6
CONTINUOUS
10
164.773
20
-147.824
11
164.916
21
-147.252
0
LINE
8
BLACK
6
CONTINUOUS
10
164.916
20
-147.252
11
164.916
21
-146.11
0
LINE
8
BLACK
6
CONTINUOUS
10
164.916
20
-146.11
11
164.773
21
-145.824
0
LINE
8
BLACK
6
CONTINUOUS
10
164.773
20
-145.824
11
164.63
21
-145.681
0
LINE
8
BLACK
6
CONTINUOUS
10
164.63
20
-145.681
11
164.345
21
-145.538
0
LINE
8
BLACK
6
CONTINUOUS
10
164.345
20
-145.538
11
163.773
21
-145.538
0
LINE
8
BLACK
6
CONTINUOUS
10
163.773
20
-145.538
11
163.487
21
-145.681
0
LINE
8
BLACK
6
CONTINUOUS
10
163.487
20
-145.681
11
163.345
21
-145.824
0
LINE
8
BLACK
6
CONTINUOUS
10
163.345
20
-145.824
11
163.202
21
-146.11
0
LINE
8
BLACK
6
CONTINUOUS
10
163.202
20
-146.11
11
163.202
21
-146.824
0
LINE
8
BLACK
6
CONTINUOUS
10
163.202
20
-146.824
11
163.345
21
-147.11
0
LINE
8
BLACK
6
CONTINUOUS
10
163.345
20
-147.11
11
163.487
21
-147.252
0
LINE
8
BLACK
6
CONTINUOUS
10
163.487
20
-147.252
11
163.773
21
-147.395
0
LINE
8
BLACK
6
CONTINUOUS
10
163.773
20
-147.395
11
164.345
21
-147.395
0
LINE
8
BLACK
6
CONTINUOUS
10
164.345
20
-147.395
11
164.63
21
-147.252
0
LINE
8
BLACK
6
CONTINUOUS
10
164.63
20
-147.252
11
164.773
21
-147.11
0
LINE
8
BLACK
6
CONTINUOUS
10
164.773
20
-147.11
11
164.916
21
-146.824
0
LINE
8
BLACK
6
CONTINUOUS
10
166.059
20
-145.538
11
166.059
21
-146.11
0
LINE
8
BLACK
6
CONTINUOUS
10
167.202
20
-145.538
11
167.202
21
-146.11
0
LINE
8
BLACK
6
CONTINUOUS
10
171.63
20
-149.681
11
171.487
21
-149.538
0
LINE
8
BLACK
6
CONTINUOUS
10
171.487
20
-149.538
11
171.202
21
-149.11
0
LINE
8
BLACK
6
CONTINUOUS
10
171.202
20
-149.11
11
171.059
21
-148.824
0
LINE
8
BLACK
6
CONTINUOUS
10
171.059
20
-148.824
11
170.916
21
-148.395
0
LINE
8
BLACK
6
CONTINUOUS
10
170.916
20
-148.395
11
170.773
21
-147.681
0
LINE
8
BLACK
6
CONTINUOUS
10
170.773
20
-147.681
11
170.773
21
-147.11
0
LINE
8
BLACK
6
CONTINUOUS
10
170.773
20
-147.11
11
170.916
21
-146.395
0
LINE
8
BLACK
6
CONTINUOUS
10
170.916
20
-146.395
11
171.059
21
-145.967
0
LINE
8
BLACK
6
CONTINUOUS
10
171.059
20
-145.967
11
171.202
21
-145.681
0
LINE
8
BLACK
6
CONTINUOUS
10
171.202
20
-145.681
11
171.487
21
-145.252
0
LINE
8
BLACK
6
CONTINUOUS
10
171.487
20
-145.252
11
171.63
21
-145.11
0
LINE
8
BLACK
6
CONTINUOUS
10
174.345
20
-148.538
11
172.63
21
-148.538
0
LINE
8
BLACK
6
CONTINUOUS
10
173.487
20
-148.538
11
173.487
21
-145.538
0
LINE
8
BLACK
6
CONTINUOUS
10
173.487
20
-145.538
11
173.202
21
-145.967
0
LINE
8
BLACK
6
CONTINUOUS
10
173.202
20
-145.967
11
172.916
21
-146.252
0
LINE
8
BLACK
6
CONTINUOUS
10
172.916
20
-146.252
11
172.63
21
-146.395
0
LINE
8
BLACK
6
CONTINUOUS
10
176.916
20
-146.538
11
176.916
21
-148.538
0
LINE
8
BLACK
6
CONTINUOUS
10
176.202
20
-145.395
11
175.487
21
-147.538
0
LINE
8
BLACK
6
CONTINUOUS
10
175.487
20
-147.538
11
177.345
21
-147.538
0
LINE
8
BLACK
6
CONTINUOUS
10
180.773
20
-148.538
11
180.773
21
-145.538
0
LINE
8
BLACK
6
CONTINUOUS
10
182.059
20
-148.538
11
182.059
21
-146.967
0
LINE
8
BLACK
6
CONTINUOUS
10
182.059
20
-146.967
11
181.916
21
-146.681
0
LINE
8
BLACK
6
CONTINUOUS
10
181.916
20
-146.681
11
181.63
21
-146.538
0
LINE
8
BLACK
6
CONTINUOUS
10
181.63
20
-146.538
11
181.202
21
-146.538
0
LINE
8
BLACK
6
CONTINUOUS
10
181.202
20
-146.538
11
180.916
21
-146.681
0
LINE
8
BLACK
6
CONTINUOUS
10
180.916
20
-146.681
11
180.773
21
-146.824
0
LINE
8
BLACK
6
CONTINUOUS
10
183.916
20
-148.538
11
183.63
21
-148.395
0
LINE
8
BLACK
6
CONTINUOUS
10
183.63
20
-148.395
11
183.487
21
-148.252
0
LINE
8
BLACK
6
CONTINUOUS
10
183.487
20
-148.252
11
183.345
21
-147.967
0
LINE
8
BLACK
6
CONTINUOUS
10
183.345
20
-147.967
11
183.345
21
-147.11
0
LINE
8
BLACK
6
CONTINUOUS
10
183.345
20
-147.11
11
183.487
21
-146.824
0
LINE
8
BLACK
6
CONTINUOUS
10
183.487
20
-146.824
11
183.63
21
-146.681
0
LINE
8
BLACK
6
CONTINUOUS
10
183.63
20
-146.681
11
183.916
21
-146.538
0
LINE
8
BLACK
6
CONTINUOUS
10
183.916
20
-146.538
11
184.345
21
-146.538
0
LINE
8
BLACK
6
CONTINUOUS
10
184.345
20
-146.538
11
184.63
21
-146.681
0
LINE
8
BLACK
6
CONTINUOUS
10
184.63
20
-146.681
11
184.773
21
-146.824
0
LINE
8
BLACK
6
CONTINUOUS
10
184.773
20
-146.824
11
184.916
21
-147.11
0
LINE
8
BLACK
6
CONTINUOUS
10
184.916
20
-147.11
11
184.916
21
-147.967
0
LINE
8
BLACK
6
CONTINUOUS
10
184.916
20
-147.967
11
184.773
21
-148.252
0
LINE
8
BLACK
6
CONTINUOUS
10
184.773
20
-148.252
11
184.63
21
-148.395
0
LINE
8
BLACK
6
CONTINUOUS
10
184.63
20
-148.395
11
184.345
21
-148.538
0
LINE
8
BLACK
6
CONTINUOUS
10
184.345
20
-148.538
11
183.916
21
-148.538
0
LINE
8
BLACK
6
CONTINUOUS
10
186.63
20
-148.538
11
186.345
21
-148.395
0
LINE
8
BLACK
6
CONTINUOUS
10
186.345
20
-148.395
11
186.202
21
-148.11
0
LINE
8
BLACK
6
CONTINUOUS
10
186.202
20
-148.11
11
186.202
21
-145.538
0
LINE
8
BLACK
6
CONTINUOUS
10
188.916
20
-148.395
11
188.63
21
-148.538
0
LINE
8
BLACK
6
CONTINUOUS
10
188.63
20
-148.538
11
188.059
21
-148.538
0
LINE
8
BLACK
6
CONTINUOUS
10
188.059
20
-148.538
11
187.773
21
-148.395
0
LINE
8
BLACK
6
CONTINUOUS
10
187.773
20
-148.395
11
187.63
21
-148.11
0
LINE
8
BLACK
6
CONTINUOUS
10
187.63
20
-148.11
11
187.63
21
-146.967
0
LINE
8
BLACK
6
CONTINUOUS
10
187.63
20
-146.967
11
187.773
21
-146.681
0
LINE
8
BLACK
6
CONTINUOUS
10
187.773
20
-146.681
11
188.059
21
-146.538
0
LINE
8
BLACK
6
CONTINUOUS
10
188.059
20
-146.538
11
188.63
21
-146.538
0
LINE
8
BLACK
6
CONTINUOUS
10
188.63
20
-146.538
11
188.916
21
-146.681
0
LINE
8
BLACK
6
CONTINUOUS
10
188.916
20
-146.681
11
189.059
21
-146.967
0
LINE
8
BLACK
6
CONTINUOUS
10
189.059
20
-146.967
11
189.059
21
-147.252
0
LINE
8
BLACK
6
CONTINUOUS
10
189.059
20
-147.252
11
187.63
21
-147.538
0
LINE
8
BLACK
6
CONTINUOUS
10
190.202
20
-148.395
11
190.487
21
-148.538
0
LINE
8
BLACK
6
CONTINUOUS
10
190.487
20
-148.538
11
191.059
21
-148.538
0
LINE
8
BLACK
6
CONTINUOUS
10
191.059
20
-148.538
11
191.345
21
-148.395
0
LINE
8
BLACK
6
CONTINUOUS
10
191.345
20
-148.395
11
191.487
21
-148.11
0
LINE
8
BLACK
6
CONTINUOUS
10
191.487
20
-148.11
11
191.487
21
-147.967
0
LINE
8
BLACK
6
CONTINUOUS
10
191.487
20
-147.967
11
191.345
21
-147.681
0
LINE
8
BLACK
6
CONTINUOUS
10
191.345
20
-147.681
11
191.059
21
-147.538
0
LINE
8
BLACK
6
CONTINUOUS
10
191.059
20
-147.538
11
190.63
21
-147.538
0
LINE
8
BLACK
6
CONTINUOUS
10
190.63
20
-147.538
11
190.345
21
-147.395
0
LINE
8
BLACK
6
CONTINUOUS
10
190.345
20
-147.395
11
190.202
21
-147.11
0
LINE
8
BLACK
6
CONTINUOUS
10
190.202
20
-147.11
11
190.202
21
-146.967
0
LINE
8
BLACK
6
CONTINUOUS
10
190.202
20
-146.967
11
190.345
21
-146.681
0
LINE
8
BLACK
6
CONTINUOUS
10
190.345
20
-146.681
11
190.63
21
-146.538
0
LINE
8
BLACK
6
CONTINUOUS
10
190.63
20
-146.538
11
191.059
21
-146.538
0
LINE
8
BLACK
6
CONTINUOUS
10
191.059
20
-146.538
11
191.345
21
-146.681
0
LINE
8
BLACK
6
CONTINUOUS
10
192.487
20
-149.681
11
192.63
21
-149.538
0
LINE
8
BLACK
6
CONTINUOUS
10
192.63
20
-149.538
11
192.916
21
-149.11
0
LINE
8
BLACK
6
CONTINUOUS
10
192.916
20
-149.11
11
193.059
21
-148.824
0
LINE
8
BLACK
6
CONTINUOUS
10
193.059
20
-148.824
11
193.202
21
-148.395
0
LINE
8
BLACK
6
CONTINUOUS
10
193.202
20
-148.395
11
193.345
21
-147.681
0
LINE
8
BLACK
6
CONTINUOUS
10
193.345
20
-147.681
11
193.345
21
-147.11
0
LINE
8
BLACK
6
CONTINUOUS
10
193.345
20
-147.11
11
193.202
21
-146.395
0
LINE
8
BLACK
6
CONTINUOUS
10
193.202
20
-146.395
11
193.059
21
-145.967
0
LINE
8
BLACK
6
CONTINUOUS
10
193.059
20
-145.967
11
192.916
21
-145.681
0
LINE
8
BLACK
6
CONTINUOUS
10
192.916
20
-145.681
11
192.63
21
-145.252
0
LINE
8
BLACK
6
CONTINUOUS
10
192.63
20
-145.252
11
192.487
21
-145.11
0
LINE
8
BLACK
6
CONTINUOUS
10
123.75
20
-150.633
11
124.766
21
-151.649
0
LINE
8
BLACK
6
CONTINUOUS
10
124.766
20
-150.633
11
123.75
21
-151.649
0
CIRCLE
8
BLACK
10
124.258
20
-151.141
40
0.508
0
LINE
8
BLACK
6
CONTINUOUS
10
129.202
20
-152.498
11
127.487
21
-152.498
0
LINE
8
BLACK
6
CONTINUOUS
10
128.345
20
-152.498
11
128.345
21
-149.498
0
LINE
8
BLACK
6
CONTINUOUS
10
128.345
20
-149.498
11
128.059
21
-149.927
0
LINE
8
BLACK
6
CONTINUOUS
10
128.059
20
-149.927
11
127.773
21
-150.212
0
LINE
8
BLACK
6
CONTINUOUS
10
127.773
20
-150.212
11
127.487
21
-150.355
0
LINE
8
BLACK
6
CONTINUOUS
10
130.487
20
-152.212
11
130.63
21
-152.355
0
LINE
8
BLACK
6
CONTINUOUS
10
130.63
20
-152.355
11
130.487
21
-152.498
0
LINE
8
BLACK
6
CONTINUOUS
10
130.487
20
-152.498
11
130.345
21
-152.355
0
LINE
8
BLACK
6
CONTINUOUS
10
130.345
20
-152.355
11
130.487
21
-152.212
0
LINE
8
BLACK
6
CONTINUOUS
10
130.487
20
-152.212
11
130.487
21
-152.498
0
LINE
8
BLACK
6
CONTINUOUS
10
132.487
20
-149.498
11
132.773
21
-149.498
0
LINE
8
BLACK
6
CONTINUOUS
10
132.773
20
-149.498
11
133.059
21
-149.641
0
LINE
8
BLACK
6
CONTINUOUS
10
133.059
20
-149.641
11
133.202
21
-149.784
0
LINE
8
BLACK
6
CONTINUOUS
10
133.202
20
-149.784
11
133.345
21
-150.07
0
LINE
8
BLACK
6
CONTINUOUS
10
133.345
20
-150.07
11
133.487
21
-150.641
0
LINE
8
BLACK
6
CONTINUOUS
10
133.487
20
-150.641
11
133.487
21
-151.355
0
LINE
8
BLACK
6
CONTINUOUS
10
133.487
20
-151.355
11
133.345
21
-151.927
0
LINE
8
BLACK
6
CONTINUOUS
10
133.345
20
-151.927
11
133.202
21
-152.212
0
LINE
8
BLACK
6
CONTINUOUS
10
133.202
20
-152.212
11
133.059
21
-152.355
0
LINE
8
BLACK
6
CONTINUOUS
10
133.059
20
-152.355
11
132.773
21
-152.498
0
LINE
8
BLACK
6
CONTINUOUS
10
132.773
20
-152.498
11
132.487
21
-152.498
0
LINE
8
BLACK
6
CONTINUOUS
10
132.487
20
-152.498
11
132.202
21
-152.355
0
LINE
8
BLACK
6
CONTINUOUS
10
132.202
20
-152.355
11
132.059
21
-152.212
0
LINE
8
BLACK
6
CONTINUOUS
10
132.059
20
-152.212
11
131.916
21
-151.927
0
LINE
8
BLACK
6
CONTINUOUS
10
131.916
20
-151.927
11
131.773
21
-151.355
0
LINE
8
BLACK
6
CONTINUOUS
10
131.773
20
-151.355
11
131.773
21
-150.641
0
LINE
8
BLACK
6
CONTINUOUS
10
131.773
20
-150.641
11
131.916
21
-150.07
0
LINE
8
BLACK
6
CONTINUOUS
10
131.916
20
-150.07
11
132.059
21
-149.784
0
LINE
8
BLACK
6
CONTINUOUS
10
132.059
20
-149.784
11
132.202
21
-149.641
0
LINE
8
BLACK
6
CONTINUOUS
10
132.202
20
-149.641
11
132.487
21
-149.498
0
LINE
8
BLACK
6
CONTINUOUS
10
134.63
20
-149.784
11
134.773
21
-149.641
0
LINE
8
BLACK
6
CONTINUOUS
10
134.773
20
-149.641
11
135.059
21
-149.498
0
LINE
8
BLACK
6
CONTINUOUS
10
135.059
20
-149.498
11
135.773
21
-149.498
0
LINE
8
BLACK
6
CONTINUOUS
10
135.773
20
-149.498
11
136.059
21
-149.641
0
LINE
8
BLACK
6
CONTINUOUS
10
136.059
20
-149.641
11
136.202
21
-149.784
0
LINE
8
BLACK
6
CONTINUOUS
10
136.202
20
-149.784
11
136.345
21
-150.07
0
LINE
8
BLACK
6
CONTINUOUS
10
136.345
20
-150.07
11
136.345
21
-150.355
0
LINE
8
BLACK
6
CONTINUOUS
10
136.345
20
-150.355
11
136.202
21
-150.784
0
LINE
8
BLACK
6
CONTINUOUS
10
136.202
20
-150.784
11
134.487
21
-152.498
0
LINE
8
BLACK
6
CONTINUOUS
10
134.487
20
-152.498
11
136.345
21
-152.498
0
LINE
8
BLACK
6
CONTINUOUS
10
137.63
20
-152.498
11
137.63
21
-150.498
0
LINE
8
BLACK
6
CONTINUOUS
10
137.63
20
-150.784
11
137.773
21
-150.641
0
LINE
8
BLACK
6
CONTINUOUS
10
137.773
20
-150.641
11
138.059
21
-150.498
0
LINE
8
BLACK
6
CONTINUOUS
10
138.059
20
-150.498
11
138.487
21
-150.498
0
LINE
8
BLACK
6
CONTINUOUS
10
138.487
20
-150.498
11
138.773
21
-150.641
0
LINE
8
BLACK
6
CONTINUOUS
10
138.773
20
-150.641
11
138.916
21
-150.927
0
LINE
8
BLACK
6
CONTINUOUS
10
138.916
20
-150.927
11
138.916
21
-152.498
0
LINE
8
BLACK
6
CONTINUOUS
10
138.916
20
-150.927
11
139.059
21
-150.641
0
LINE
8
BLACK
6
CONTINUOUS
10
139.059
20
-150.641
11
139.345
21
-150.498
0
LINE
8
BLACK
6
CONTINUOUS
10
139.345
20
-150.498
11
139.773
21
-150.498
0
LINE
8
BLACK
6
CONTINUOUS
10
139.773
20
-150.498
11
140.059
21
-150.641
0
LINE
8
BLACK
6
CONTINUOUS
10
140.059
20
-150.641
11
140.202
21
-150.927
0
LINE
8
BLACK
6
CONTINUOUS
10
140.202
20
-150.927
11
140.202
21
-152.498
0
LINE
8
BLACK
6
CONTINUOUS
10
141.63
20
-152.498
11
141.63
21
-150.498
0
LINE
8
BLACK
6
CONTINUOUS
10
141.63
20
-150.784
11
141.773
21
-150.641
0
LINE
8
BLACK
6
CONTINUOUS
10
141.773
20
-150.641
11
142.059
21
-150.498
0
LINE
8
BLACK
6
CONTINUOUS
10
142.059
20
-150.498
11
142.487
21
-150.498
0
LINE
8
BLACK
6
CONTINUOUS
10
142.487
20
-150.498
11
142.773
21
-150.641
0
LINE
8
BLACK
6
CONTINUOUS
10
142.773
20
-150.641
11
142.916
21
-150.927
0
LINE
8
BLACK
6
CONTINUOUS
10
142.916
20
-150.927
11
142.916
21
-152.498
0
LINE
8
BLACK
6
CONTINUOUS
10
142.916
20
-150.927
11
143.059
21
-150.641
0
LINE
8
BLACK
6
CONTINUOUS
10
143.059
20
-150.641
11
143.345
21
-150.498
0
LINE
8
BLACK
6
CONTINUOUS
10
143.345
20
-150.498
11
143.773
21
-150.498
0
LINE
8
BLACK
6
CONTINUOUS
10
143.773
20
-150.498
11
144.059
21
-150.641
0
LINE
8
BLACK
6
CONTINUOUS
10
144.059
20
-150.641
11
144.202
21
-150.927
0
LINE
8
BLACK
6
CONTINUOUS
10
144.202
20
-150.927
11
144.202
21
-152.498
0
LINE
8
BLACK
6
CONTINUOUS
10
150.059
20
-149.355
11
147.487
21
-153.212
0
LINE
8
BLACK
6
CONTINUOUS
10
153.916
20
-149.498
11
154.202
21
-149.498
0
LINE
8
BLACK
6
CONTINUOUS
10
154.202
20
-149.498
11
154.487
21
-149.641
0
LINE
8
BLACK
6
CONTINUOUS
10
154.487
20
-149.641
11
154.63
21
-149.784
0
LINE
8
BLACK
6
CONTINUOUS
10
154.63
20
-149.784
11
154.773
21
-150.07
0
LINE
8
BLACK
6
CONTINUOUS
10
154.773
20
-150.07
11
154.916
21
-150.641
0
LINE
8
BLACK
6
CONTINUOUS
10
154.916
20
-150.641
11
154.916
21
-151.355
0
LINE
8
BLACK
6
CONTINUOUS
10
154.916
20
-151.355
11
154.773
21
-151.927
0
LINE
8
BLACK
6
CONTINUOUS
10
154.773
20
-151.927
11
154.63
21
-152.212
0
LINE
8
BLACK
6
CONTINUOUS
10
154.63
20
-152.212
11
154.487
21
-152.355
0
LINE
8
BLACK
6
CONTINUOUS
10
154.487
20
-152.355
11
154.202
21
-152.498
0
LINE
8
BLACK
6
CONTINUOUS
10
154.202
20
-152.498
11
153.916
21
-152.498
0
LINE
8
BLACK
6
CONTINUOUS
10
153.916
20
-152.498
11
153.63
21
-152.355
0
LINE
8
BLACK
6
CONTINUOUS
10
153.63
20
-152.355
11
153.487
21
-152.212
0
LINE
8
BLACK
6
CONTINUOUS
10
153.487
20
-152.212
11
153.345
21
-151.927
0
LINE
8
BLACK
6
CONTINUOUS
10
153.345
20
-151.927
11
153.202
21
-151.355
0
LINE
8
BLACK
6
CONTINUOUS
10
153.202
20
-151.355
11
153.202
21
-150.641
0
LINE
8
BLACK
6
CONTINUOUS
10
153.202
20
-150.641
11
153.345
21
-150.07
0
LINE
8
BLACK
6
CONTINUOUS
10
153.345
20
-150.07
11
153.487
21
-149.784
0
LINE
8
BLACK
6
CONTINUOUS
10
153.487
20
-149.784
11
153.63
21
-149.641
0
LINE
8
BLACK
6
CONTINUOUS
10
153.63
20
-149.641
11
153.916
21
-149.498
0
LINE
8
BLACK
6
CONTINUOUS
10
156.202
20
-152.212
11
156.345
21
-152.355
0
LINE
8
BLACK
6
CONTINUOUS
10
156.345
20
-152.355
11
156.202
21
-152.498
0
LINE
8
BLACK
6
CONTINUOUS
10
156.202
20
-152.498
11
156.059
21
-152.355
0
LINE
8
BLACK
6
CONTINUOUS
10
156.059
20
-152.355
11
156.202
21
-152.212
0
LINE
8
BLACK
6
CONTINUOUS
10
156.202
20
-152.212
11
156.202
21
-152.498
0
LINE
8
BLACK
6
CONTINUOUS
10
158.202
20
-149.498
11
158.487
21
-149.498
0
LINE
8
BLACK
6
CONTINUOUS
10
158.487
20
-149.498
11
158.773
21
-149.641
0
LINE
8
BLACK
6
CONTINUOUS
10
158.773
20
-149.641
11
158.916
21
-149.784
0
LINE
8
BLACK
6
CONTINUOUS
10
158.916
20
-149.784
11
159.059
21
-150.07
0
LINE
8
BLACK
6
CONTINUOUS
10
159.059
20
-150.07
11
159.202
21
-150.641
0
LINE
8
BLACK
6
CONTINUOUS
10
159.202
20
-150.641
11
159.202
21
-151.355
0
LINE
8
BLACK
6
CONTINUOUS
10
159.202
20
-151.355
11
159.059
21
-151.927
0
LINE
8
BLACK
6
CONTINUOUS
10
159.059
20
-151.927
11
158.916
21
-152.212
0
LINE
8
BLACK
6
CONTINUOUS
10
158.916
20
-152.212
11
158.773
21
-152.355
0
LINE
8
BLACK
6
CONTINUOUS
10
158.773
20
-152.355
11
158.487
21
-152.498
0
LINE
8
BLACK
6
CONTINUOUS
10
158.487
20
-152.498
11
158.202
21
-152.498
0
LINE
8
BLACK
6
CONTINUOUS
10
158.202
20
-152.498
11
157.916
21
-152.355
0
LINE
8
BLACK
6
CONTINUOUS
10
157.916
20
-152.355
11
157.773
21
-152.212
0
LINE
8
BLACK
6
CONTINUOUS
10
157.773
20
-152.212
11
157.63
21
-151.927
0
LINE
8
BLACK
6
CONTINUOUS
10
157.63
20
-151.927
11
157.487
21
-151.355
0
LINE
8
BLACK
6
CONTINUOUS
10
157.487
20
-151.355
11
157.487
21
-150.641
0
LINE
8
BLACK
6
CONTINUOUS
10
157.487
20
-150.641
11
157.63
21
-150.07
0
LINE
8
BLACK
6
CONTINUOUS
10
157.63
20
-150.07
11
157.773
21
-149.784
0
LINE
8
BLACK
6
CONTINUOUS
10
157.773
20
-149.784
11
157.916
21
-149.641
0
LINE
8
BLACK
6
CONTINUOUS
10
157.916
20
-149.641
11
158.202
21
-149.498
0
LINE
8
BLACK
6
CONTINUOUS
10
161.773
20
-150.498
11
161.773
21
-152.498
0
LINE
8
BLACK
6
CONTINUOUS
10
161.059
20
-149.355
11
160.345
21
-151.498
0
LINE
8
BLACK
6
CONTINUOUS
10
160.345
20
-151.498
11
162.202
21
-151.498
0
LINE
8
BLACK
6
CONTINUOUS
10
163.916
20
-149.498
11
164.202
21
-149.498
0
LINE
8
BLACK
6
CONTINUOUS
10
164.202
20
-149.498
11
164.487
21
-149.641
0
LINE
8
BLACK
6
CONTINUOUS
10
164.487
20
-149.641
11
164.63
21
-149.784
0
LINE
8
BLACK
6
CONTINUOUS
10
164.63
20
-149.784
11
164.773
21
-150.07
0
LINE
8
BLACK
6
CONTINUOUS
10
164.773
20
-150.07
11
164.916
21
-150.641
0
LINE
8
BLACK
6
CONTINUOUS
10
164.916
20
-150.641
11
164.916
21
-151.355
0
LINE
8
BLACK
6
CONTINUOUS
10
164.916
20
-151.355
11
164.773
21
-151.927
0
LINE
8
BLACK
6
CONTINUOUS
10
164.773
20
-151.927
11
164.63
21
-152.212
0
LINE
8
BLACK
6
CONTINUOUS
10
164.63
20
-152.212
11
164.487
21
-152.355
0
LINE
8
BLACK
6
CONTINUOUS
10
164.487
20
-152.355
11
164.202
21
-152.498
0
LINE
8
BLACK
6
CONTINUOUS
10
164.202
20
-152.498
11
163.916
21
-152.498
0
LINE
8
BLACK
6
CONTINUOUS
10
163.916
20
-152.498
11
163.63
21
-152.355
0
LINE
8
BLACK
6
CONTINUOUS
10
163.63
20
-152.355
11
163.487
21
-152.212
0
LINE
8
BLACK
6
CONTINUOUS
10
163.487
20
-152.212
11
163.345
21
-151.927
0
LINE
8
BLACK
6
CONTINUOUS
10
163.345
20
-151.927
11
163.202
21
-151.355
0
LINE
8
BLACK
6
CONTINUOUS
10
163.202
20
-151.355
11
163.202
21
-150.641
0
LINE
8
BLACK
6
CONTINUOUS
10
163.202
20
-150.641
11
163.345
21
-150.07
0
LINE
8
BLACK
6
CONTINUOUS
10
163.345
20
-150.07
11
163.487
21
-149.784
0
LINE
8
BLACK
6
CONTINUOUS
10
163.487
20
-149.784
11
163.63
21
-149.641
0
LINE
8
BLACK
6
CONTINUOUS
10
163.63
20
-149.641
11
163.916
21
-149.498
0
LINE
8
BLACK
6
CONTINUOUS
10
166.059
20
-149.498
11
166.059
21
-150.07
0
LINE
8
BLACK
6
CONTINUOUS
10
167.202
20
-149.498
11
167.202
21
-150.07
0
LINE
8
BLACK
6
CONTINUOUS
10
171.63
20
-153.641
11
171.487
21
-153.498
0
LINE
8
BLACK
6
CONTINUOUS
10
171.487
20
-153.498
11
171.202
21
-153.07
0
LINE
8
BLACK
6
CONTINUOUS
10
171.202
20
-153.07
11
171.059
21
-152.784
0
LINE
8
BLACK
6
CONTINUOUS
10
171.059
20
-152.784
11
170.916
21
-152.355
0
LINE
8
BLACK
6
CONTINUOUS
10
170.916
20
-152.355
11
170.773
21
-151.641
0
LINE
8
BLACK
6
CONTINUOUS
10
170.773
20
-151.641
11
170.773
21
-151.07
0
LINE
8
BLACK
6
CONTINUOUS
10
170.773
20
-151.07
11
170.916
21
-150.355
0
LINE
8
BLACK
6
CONTINUOUS
10
170.916
20
-150.355
11
171.059
21
-149.927
0
LINE
8
BLACK
6
CONTINUOUS
10
171.059
20
-149.927
11
171.202
21
-149.641
0
LINE
8
BLACK
6
CONTINUOUS
10
171.202
20
-149.641
11
171.487
21
-149.212
0
LINE
8
BLACK
6
CONTINUOUS
10
171.487
20
-149.212
11
171.63
21
-149.07
0
LINE
8
BLACK
6
CONTINUOUS
10
174.345
20
-152.498
11
172.63
21
-152.498
0
LINE
8
BLACK
6
CONTINUOUS
10
173.487
20
-152.498
11
173.487
21
-149.498
0
LINE
8
BLACK
6
CONTINUOUS
10
173.487
20
-149.498
11
173.202
21
-149.927
0
LINE
8
BLACK
6
CONTINUOUS
10
173.202
20
-149.927
11
172.916
21
-150.212
0
LINE
8
BLACK
6
CONTINUOUS
10
172.916
20
-150.212
11
172.63
21
-150.355
0
LINE
8
BLACK
6
CONTINUOUS
10
176.202
20
-149.498
11
176.487
21
-149.498
0
LINE
8
BLACK
6
CONTINUOUS
10
176.487
20
-149.498
11
176.773
21
-149.641
0
LINE
8
BLACK
6
CONTINUOUS
10
176.773
20
-149.641
11
176.916
21
-149.784
0
LINE
8
BLACK
6
CONTINUOUS
10
176.916
20
-149.784
11
177.059
21
-150.07
0
LINE
8
BLACK
6
CONTINUOUS
10
177.059
20
-150.07
11
177.202
21
-150.641
0
LINE
8
BLACK
6
CONTINUOUS
10
177.202
20
-150.641
11
177.202
21
-151.355
0
LINE
8
BLACK
6
CONTINUOUS
10
177.202
20
-151.355
11
177.059
21
-151.927
0
LINE
8
BLACK
6
CONTINUOUS
10
177.059
20
-151.927
11
176.916
21
-152.212
0
LINE
8
BLACK
6
CONTINUOUS
10
176.916
20
-152.212
11
176.773
21
-152.355
0
LINE
8
BLACK
6
CONTINUOUS
10
176.773
20
-152.355
11
176.487
21
-152.498
0
LINE
8
BLACK
6
CONTINUOUS
10
176.487
20
-152.498
11
176.202
21
-152.498
0
LINE
8
BLACK
6
CONTINUOUS
10
176.202
20
-152.498
11
175.916
21
-152.355
0
LINE
8
BLACK
6
CONTINUOUS
10
175.916
20
-152.355
11
175.773
21
-152.212
0
LINE
8
BLACK
6
CONTINUOUS
10
175.773
20
-152.212
11
175.63
21
-151.927
0
LINE
8
BLACK
6
CONTINUOUS
10
175.63
20
-151.927
11
175.487
21
-151.355
0
LINE
8
BLACK
6
CONTINUOUS
10
175.487
20
-151.355
11
175.487
21
-150.641
0
LINE
8
BLACK
6
CONTINUOUS
10
175.487
20
-150.641
11
175.63
21
-150.07
0
LINE
8
BLACK
6
CONTINUOUS
10
175.63
20
-150.07
11
175.773
21
-149.784
0
LINE
8
BLACK
6
CONTINUOUS
10
175.773
20
-149.784
11
175.916
21
-149.641
0
LINE
8
BLACK
6
CONTINUOUS
10
175.916
20
-149.641
11
176.202
21
-149.498
0
LINE
8
BLACK
6
CONTINUOUS
10
178.345
20
-149.784
11
178.487
21
-149.641
0
LINE
8
BLACK
6
CONTINUOUS
10
178.487
20
-149.641
11
178.773
21
-149.498
0
LINE
8
BLACK
6
CONTINUOUS
10
178.773
20
-149.498
11
179.487
21
-149.498
0
LINE
8
BLACK
6
CONTINUOUS
10
179.487
20
-149.498
11
179.773
21
-149.641
0
LINE
8
BLACK
6
CONTINUOUS
10
179.773
20
-149.641
11
179.916
21
-149.784
0
LINE
8
BLACK
6
CONTINUOUS
10
179.916
20
-149.784
11
180.059
21
-150.07
0
LINE
8
BLACK
6
CONTINUOUS
10
180.059
20
-150.07
11
180.059
21
-150.355
0
LINE
8
BLACK
6
CONTINUOUS
10
180.059
20
-150.355
11
179.916
21
-150.784
0
LINE
8
BLACK
6
CONTINUOUS
10
179.916
20
-150.784
11
178.202
21
-152.498
0
LINE
8
BLACK
6
CONTINUOUS
10
178.202
20
-152.498
11
180.059
21
-152.498
0
LINE
8
BLACK
6
CONTINUOUS
10
183.63
20
-152.498
11
183.63
21
-149.498
0
LINE
8
BLACK
6
CONTINUOUS
10
184.916
20
-152.498
11
184.916
21
-150.927
0
LINE
8
BLACK
6
CONTINUOUS
10
184.916
20
-150.927
11
184.773
21
-150.641
0
LINE
8
BLACK
6
CONTINUOUS
10
184.773
20
-150.641
11
184.487
21
-150.498
0
LINE
8
BLACK
6
CONTINUOUS
10
184.487
20
-150.498
11
184.059
21
-150.498
0
LINE
8
BLACK
6
CONTINUOUS
10
184.059
20
-150.498
11
183.773
21
-150.641
0
LINE
8
BLACK
6
CONTINUOUS
10
183.773
20
-150.641
11
183.63
21
-150.784
0
LINE
8
BLACK
6
CONTINUOUS
10
186.773
20
-152.498
11
186.487
21
-152.355
0
LINE
8
BLACK
6
CONTINUOUS
10
186.487
20
-152.355
11
186.345
21
-152.212
0
LINE
8
BLACK
6
CONTINUOUS
10
186.345
20
-152.212
11
186.202
21
-151.927
0
LINE
8
BLACK
6
CONTINUOUS
10
186.202
20
-151.927
11
186.202
21
-151.07
0
LINE
8
BLACK
6
CONTINUOUS
10
186.202
20
-151.07
11
186.345
21
-150.784
0
LINE
8
BLACK
6
CONTINUOUS
10
186.345
20
-150.784
11
186.487
21
-150.641
0
LINE
8
BLACK
6
CONTINUOUS
10
186.487
20
-150.641
11
186.773
21
-150.498
0
LINE
8
BLACK
6
CONTINUOUS
10
186.773
20
-150.498
11
187.202
21
-150.498
0
LINE
8
BLACK
6
CONTINUOUS
10
187.202
20
-150.498
11
187.487
21
-150.641
0
LINE
8
BLACK
6
CONTINUOUS
10
187.487
20
-150.641
11
187.63
21
-150.784
0
LINE
8
BLACK
6
CONTINUOUS
10
187.63
20
-150.784
11
187.773
21
-151.07
0
LINE
8
BLACK
6
CONTINUOUS
10
187.773
20
-151.07
11
187.773
21
-151.927
0
LINE
8
BLACK
6
CONTINUOUS
10
187.773
20
-151.927
11
187.63
21
-152.212
0
LINE
8
BLACK
6
CONTINUOUS
10
187.63
20
-152.212
11
187.487
21
-152.355
0
LINE
8
BLACK
6
CONTINUOUS
10
187.487
20
-152.355
11
187.202
21
-152.498
0
LINE
8
BLACK
6
CONTINUOUS
10
187.202
20
-152.498
11
186.773
21
-152.498
0
LINE
8
BLACK
6
CONTINUOUS
10
189.487
20
-152.498
11
189.202
21
-152.355
0
LINE
8
BLACK
6
CONTINUOUS
10
189.202
20
-152.355
11
189.059
21
-152.07
0
LINE
8
BLACK
6
CONTINUOUS
10
189.059
20
-152.07
11
189.059
21
-149.498
0
LINE
8
BLACK
6
CONTINUOUS
10
191.773
20
-152.355
11
191.487
21
-152.498
0
LINE
8
BLACK
6
CONTINUOUS
10
191.487
20
-152.498
11
190.916
21
-152.498
0
LINE
8
BLACK
6
CONTINUOUS
10
190.916
20
-152.498
11
190.63
21
-152.355
0
LINE
8
BLACK
6
CONTINUOUS
10
190.63
20
-152.355
11
190.487
21
-152.07
0
LINE
8
BLACK
6
CONTINUOUS
10
190.487
20
-152.07
11
190.487
21
-150.927
0
LINE
8
BLACK
6
CONTINUOUS
10
190.487
20
-150.927
11
190.63
21
-150.641
0
LINE
8
BLACK
6
CONTINUOUS
10
190.63
20
-150.641
11
190.916
21
-150.498
0
LINE
8
BLACK
6
CONTINUOUS
10
190.916
20
-150.498
11
191.487
21
-150.498
0
LINE
8
BLACK
6
CONTINUOUS
10
191.487
20
-150.498
11
191.773
21
-150.641
0
LINE
8
BLACK
6
CONTINUOUS
10
191.773
20
-150.641
11
191.916
21
-150.927
0
LINE
8
BLACK
6
CONTINUOUS
10
191.916
20
-150.927
11
191.916
21
-151.212
0
LINE
8
BLACK
6
CONTINUOUS
10
191.916
20
-151.212
11
190.487
21
-151.498
0
LINE
8
BLACK
6
CONTINUOUS
10
193.059
20
-152.355
11
193.345
21
-152.498
0
LINE
8
BLACK
6
CONTINUOUS
10
193.345
20
-152.498
11
193.916
21
-152.498
0
LINE
8
BLACK
6
CONTINUOUS
10
193.916
20
-152.498
11
194.202
21
-152.355
0
LINE
8
BLACK
6
CONTINUOUS
10
194.202
20
-152.355
11
194.345
21
-152.07
0
LINE
8
BLACK
6
CONTINUOUS
10
194.345
20
-152.07
11
194.345
21
-151.927
0
LINE
8
BLACK
6
CONTINUOUS
10
194.345
20
-151.927
11
194.202
21
-151.641
0
LINE
8
BLACK
6
CONTINUOUS
10
194.202
20
-151.641
11
193.916
21
-151.498
0
LINE
8
BLACK
6
CONTINUOUS
10
193.916
20
-151.498
11
193.487
21
-151.498
0
LINE
8
BLACK
6
CONTINUOUS
10
193.487
20
-151.498
11
193.202
21
-151.355
0
LINE
8
BLACK
6
CONTINUOUS
10
193.202
20
-151.355
11
193.059
21
-151.07
0
LINE
8
BLACK
6
CONTINUOUS
10
193.059
20
-151.07
11
193.059
21
-150.927
0
LINE
8
BLACK
6
CONTINUOUS
10
193.059
20
-150.927
11
193.202
21
-150.641
0
LINE
8
BLACK
6
CONTINUOUS
10
193.202
20
-150.641
11
193.487
21
-150.498
0
LINE
8
BLACK
6
CONTINUOUS
10
193.487
20
-150.498
11
193.916
21
-150.498
0
LINE
8
BLACK
6
CONTINUOUS
10
193.916
20
-150.498
11
194.202
21
-150.641
0
LINE
8
BLACK
6
CONTINUOUS
10
195.345
20
-153.641
11
195.487
21
-153.498
0
LINE
8
BLACK
6
CONTINUOUS
10
195.487
20
-153.498
11
195.773
21
-153.07
0
LINE
8
BLACK
6
CONTINUOUS
10
195.773
20
-153.07
11
195.916
21
-152.784
0
LINE
8
BLACK
6
CONTINUOUS
10
195.916
20
-152.784
11
196.059
21
-152.355
0
LINE
8
BLACK
6
CONTINUOUS
10
196.059
20
-152.355
11
196.202
21
-151.641
0
LINE
8
BLACK
6
CONTINUOUS
10
196.202
20
-151.641
11
196.202
21
-151.07
0
LINE
8
BLACK
6
CONTINUOUS
10
196.202
20
-151.07
11
196.059
21
-150.355
0
LINE
8
BLACK
6
CONTINUOUS
10
196.059
20
-150.355
11
195.916
21
-149.927
0
LINE
8
BLACK
6
CONTINUOUS
10
195.916
20
-149.927
11
195.773
21
-149.641
0
LINE
8
BLACK
6
CONTINUOUS
10
195.773
20
-149.641
11
195.487
21
-149.212
0
LINE
8
BLACK
6
CONTINUOUS
10
195.487
20
-149.212
11
195.345
21
-149.07
0
LINE
8
BLACK
6
CONTINUOUS
10
123.566
20
-154.501
11
124.766
21
-155.701
0
LINE
8
BLACK
6
CONTINUOUS
10
124.766
20
-154.501
11
123.566
21
-155.701
0
LINE
8
BLACK
6
CONTINUOUS
10
124.166
20
-154.501
11
124.166
21
-155.701
0
LINE
8
BLACK
6
CONTINUOUS
10
123.566
20
-155.101
11
124.766
21
-155.101
0
LINE
8
BLACK
6
CONTINUOUS
10
129.202
20
-156.458
11
127.487
21
-156.458
0
LINE
8
BLACK
6
CONTINUOUS
10
128.345
20
-156.458
11
128.345
21
-153.458
0
LINE
8
BLACK
6
CONTINUOUS
10
128.345
20
-153.458
11
128.059
21
-153.887
0
LINE
8
BLACK
6
CONTINUOUS
10
128.059
20
-153.887
11
127.773
21
-154.172
0
LINE
8
BLACK
6
CONTINUOUS
10
127.773
20
-154.172
11
127.487
21
-154.315
0
LINE
8
BLACK
6
CONTINUOUS
10
130.487
20
-156.172
11
130.63
21
-156.315
0
LINE
8
BLACK
6
CONTINUOUS
10
130.63
20
-156.315
11
130.487
21
-156.458
0
LINE
8
BLACK
6
CONTINUOUS
10
130.487
20
-156.458
11
130.345
21
-156.315
0
LINE
8
BLACK
6
CONTINUOUS
10
130.345
20
-156.315
11
130.487
21
-156.172
0
LINE
8
BLACK
6
CONTINUOUS
10
130.487
20
-156.172
11
130.487
21
-156.458
0
LINE
8
BLACK
6
CONTINUOUS
10
131.773
20
-153.744
11
131.916
21
-153.601
0
LINE
8
BLACK
6
CONTINUOUS
10
131.916
20
-153.601
11
132.202
21
-153.458
0
LINE
8
BLACK
6
CONTINUOUS
10
132.202
20
-153.458
11
132.916
21
-153.458
0
LINE
8
BLACK
6
CONTINUOUS
10
132.916
20
-153.458
11
133.202
21
-153.601
0
LINE
8
BLACK
6
CONTINUOUS
10
133.202
20
-153.601
11
133.345
21
-153.744
0
LINE
8
BLACK
6
CONTINUOUS
10
133.345
20
-153.744
11
133.487
21
-154.03
0
LINE
8
BLACK
6
CONTINUOUS
10
133.487
20
-154.03
11
133.487
21
-154.315
0
LINE
8
BLACK
6
CONTINUOUS
10
133.487
20
-154.315
11
133.345
21
-154.744
0
LINE
8
BLACK
6
CONTINUOUS
10
133.345
20
-154.744
11
131.63
21
-156.458
0
LINE
8
BLACK
6
CONTINUOUS
10
131.63
20
-156.458
11
133.487
21
-156.458
0
LINE
8
BLACK
6
CONTINUOUS
10
135.345
20
-153.458
11
135.63
21
-153.458
0
LINE
8
BLACK
6
CONTINUOUS
10
135.63
20
-153.458
11
135.916
21
-153.601
0
LINE
8
BLACK
6
CONTINUOUS
10
135.916
20
-153.601
11
136.059
21
-153.744
0
LINE
8
BLACK
6
CONTINUOUS
10
136.059
20
-153.744
11
136.202
21
-154.03
0
LINE
8
BLACK
6
CONTINUOUS
10
136.202
20
-154.03
11
136.345
21
-154.601
0
LINE
8
BLACK
6
CONTINUOUS
10
136.345
20
-154.601
11
136.345
21
-155.315
0
LINE
8
BLACK
6
CONTINUOUS
10
136.345
20
-155.315
11
136.202
21
-155.887
0
LINE
8
BLACK
6
CONTINUOUS
10
136.202
20
-155.887
11
136.059
21
-156.172
0
LINE
8
BLACK
6
CONTINUOUS
10
136.059
20
-156.172
11
135.916
21
-156.315
0
LINE
8
BLACK
6
CONTINUOUS
10
135.916
20
-156.315
11
135.63
21
-156.458
0
LINE
8
BLACK
6
CONTINUOUS
10
135.63
20
-156.458
11
135.345
21
-156.458
0
LINE
8
BLACK
6
CONTINUOUS
10
135.345
20
-156.458
11
135.059
21
-156.315
0
LINE
8
BLACK
6
CONTINUOUS
10
135.059
20
-156.315
11
134.916
21
-156.172
0
LINE
8
BLACK
6
CONTINUOUS
10
134.916
20
-156.172
11
134.773
21
-155.887
0
LINE
8
BLACK
6
CONTINUOUS
10
134.773
20
-155.887
11
134.63
21
-155.315
0
LINE
8
BLACK
6
CONTINUOUS
10
134.63
20
-155.315
11
134.63
21
-154.601
0
LINE
8
BLACK
6
CONTINUOUS
10
134.63
20
-154.601
11
134.773
21
-154.03
0
LINE
8
BLACK
6
CONTINUOUS
10
134.773
20
-154.03
11
134.916
21
-153.744
0
LINE
8
BLACK
6
CONTINUOUS
10
134.916
20
-153.744
11
135.059
21
-153.601
0
LINE
8
BLACK
6
CONTINUOUS
10
135.059
20
-153.601
11
135.345
21
-153.458
0
LINE
8
BLACK
6
CONTINUOUS
10
137.63
20
-156.458
11
137.63
21
-154.458
0
LINE
8
BLACK
6
CONTINUOUS
10
137.63
20
-154.744
11
137.773
21
-154.601
0
LINE
8
BLACK
6
CONTINUOUS
10
137.773
20
-154.601
11
138.059
21
-154.458
0
LINE
8
BLACK
6
CONTINUOUS
10
138.059
20
-154.458
11
138.487
21
-154.458
0
LINE
8
BLACK
6
CONTINUOUS
10
138.487
20
-154.458
11
138.773
21
-154.601
0
LINE
8
BLACK
6
CONTINUOUS
10
138.773
20
-154.601
11
138.916
21
-154.887
0
LINE
8
BLACK
6
CONTINUOUS
10
138.916
20
-154.887
11
138.916
21
-156.458
0
LINE
8
BLACK
6
CONTINUOUS
10
138.916
20
-154.887
11
139.059
21
-154.601
0
LINE
8
BLACK
6
CONTINUOUS
10
139.059
20
-154.601
11
139.345
21
-154.458
0
LINE
8
BLACK
6
CONTINUOUS
10
139.345
20
-154.458
11
139.773
21
-154.458
0
LINE
8
BLACK
6
CONTINUOUS
10
139.773
20
-154.458
11
140.059
21
-154.601
0
LINE
8
BLACK
6
CONTINUOUS
10
140.059
20
-154.601
11
140.202
21
-154.887
0
LINE
8
BLACK
6
CONTINUOUS
10
140.202
20
-154.887
11
140.202
21
-156.458
0
LINE
8
BLACK
6
CONTINUOUS
10
141.63
20
-156.458
11
141.63
21
-154.458
0
LINE
8
BLACK
6
CONTINUOUS
10
141.63
20
-154.744
11
141.773
21
-154.601
0
LINE
8
BLACK
6
CONTINUOUS
10
141.773
20
-154.601
11
142.059
21
-154.458
0
LINE
8
BLACK
6
CONTINUOUS
10
142.059
20
-154.458
11
142.487
21
-154.458
0
LINE
8
BLACK
6
CONTINUOUS
10
142.487
20
-154.458
11
142.773
21
-154.601
0
LINE
8
BLACK
6
CONTINUOUS
10
142.773
20
-154.601
11
142.916
21
-154.887
0
LINE
8
BLACK
6
CONTINUOUS
10
142.916
20
-154.887
11
142.916
21
-156.458
0
LINE
8
BLACK
6
CONTINUOUS
10
142.916
20
-154.887
11
143.059
21
-154.601
0
LINE
8
BLACK
6
CONTINUOUS
10
143.059
20
-154.601
11
143.345
21
-154.458
0
LINE
8
BLACK
6
CONTINUOUS
10
143.345
20
-154.458
11
143.773
21
-154.458
0
LINE
8
BLACK
6
CONTINUOUS
10
143.773
20
-154.458
11
144.059
21
-154.601
0
LINE
8
BLACK
6
CONTINUOUS
10
144.059
20
-154.601
11
144.202
21
-154.887
0
LINE
8
BLACK
6
CONTINUOUS
10
144.202
20
-154.887
11
144.202
21
-156.458
0
LINE
8
BLACK
6
CONTINUOUS
10
150.059
20
-153.315
11
147.487
21
-157.172
0
LINE
8
BLACK
6
CONTINUOUS
10
153.916
20
-153.458
11
154.202
21
-153.458
0
LINE
8
BLACK
6
CONTINUOUS
10
154.202
20
-153.458
11
154.487
21
-153.601
0
LINE
8
BLACK
6
CONTINUOUS
10
154.487
20
-153.601
11
154.63
21
-153.744
0
LINE
8
BLACK
6
CONTINUOUS
10
154.63
20
-153.744
11
154.773
21
-154.03
0
LINE
8
BLACK
6
CONTINUOUS
10
154.773
20
-154.03
11
154.916
21
-154.601
0
LINE
8
BLACK
6
CONTINUOUS
10
154.916
20
-154.601
11
154.916
21
-155.315
0
LINE
8
BLACK
6
CONTINUOUS
10
154.916
20
-155.315
11
154.773
21
-155.887
0
LINE
8
BLACK
6
CONTINUOUS
10
154.773
20
-155.887
11
154.63
21
-156.172
0
LINE
8
BLACK
6
CONTINUOUS
10
154.63
20
-156.172
11
154.487
21
-156.315
0
LINE
8
BLACK
6
CONTINUOUS
10
154.487
20
-156.315
11
154.202
21
-156.458
0
LINE
8
BLACK
6
CONTINUOUS
10
154.202
20
-156.458
11
153.916
21
-156.458
0
LINE
8
BLACK
6
CONTINUOUS
10
153.916
20
-156.458
11
153.63
21
-156.315
0
LINE
8
BLACK
6
CONTINUOUS
10
153.63
20
-156.315
11
153.487
21
-156.172
0
LINE
8
BLACK
6
CONTINUOUS
10
153.487
20
-156.172
11
153.345
21
-155.887
0
LINE
8
BLACK
6
CONTINUOUS
10
153.345
20
-155.887
11
153.202
21
-155.315
0
LINE
8
BLACK
6
CONTINUOUS
10
153.202
20
-155.315
11
153.202
21
-154.601
0
LINE
8
BLACK
6
CONTINUOUS
10
153.202
20
-154.601
11
153.345
21
-154.03
0
LINE
8
BLACK
6
CONTINUOUS
10
153.345
20
-154.03
11
153.487
21
-153.744
0
LINE
8
BLACK
6
CONTINUOUS
10
153.487
20
-153.744
11
153.63
21
-153.601
0
LINE
8
BLACK
6
CONTINUOUS
10
153.63
20
-153.601
11
153.916
21
-153.458
0
LINE
8
BLACK
6
CONTINUOUS
10
156.202
20
-156.172
11
156.345
21
-156.315
0
LINE
8
BLACK
6
CONTINUOUS
10
156.345
20
-156.315
11
156.202
21
-156.458
0
LINE
8
BLACK
6
CONTINUOUS
10
156.202
20
-156.458
11
156.059
21
-156.315
0
LINE
8
BLACK
6
CONTINUOUS
10
156.059
20
-156.315
11
156.202
21
-156.172
0
LINE
8
BLACK
6
CONTINUOUS
10
156.202
20
-156.172
11
156.202
21
-156.458
0
LINE
8
BLACK
6
CONTINUOUS
10
158.202
20
-153.458
11
158.487
21
-153.458
0
LINE
8
BLACK
6
CONTINUOUS
10
158.487
20
-153.458
11
158.773
21
-153.601
0
LINE
8
BLACK
6
CONTINUOUS
10
158.773
20
-153.601
11
158.916
21
-153.744
0
LINE
8
BLACK
6
CONTINUOUS
10
158.916
20
-153.744
11
159.059
21
-154.03
0
LINE
8
BLACK
6
CONTINUOUS
10
159.059
20
-154.03
11
159.202
21
-154.601
0
LINE
8
BLACK
6
CONTINUOUS
10
159.202
20
-154.601
11
159.202
21
-155.315
0
LINE
8
BLACK
6
CONTINUOUS
10
159.202
20
-155.315
11
159.059
21
-155.887
0
LINE
8
BLACK
6
CONTINUOUS
10
159.059
20
-155.887
11
158.916
21
-156.172
0
LINE
8
BLACK
6
CONTINUOUS
10
158.916
20
-156.172
11
158.773
21
-156.315
0
LINE
8
BLACK
6
CONTINUOUS
10
158.773
20
-156.315
11
158.487
21
-156.458
0
LINE
8
BLACK
6
CONTINUOUS
10
158.487
20
-156.458
11
158.202
21
-156.458
0
LINE
8
BLACK
6
CONTINUOUS
10
158.202
20
-156.458
11
157.916
21
-156.315
0
LINE
8
BLACK
6
CONTINUOUS
10
157.916
20
-156.315
11
157.773
21
-156.172
0
LINE
8
BLACK
6
CONTINUOUS
10
157.773
20
-156.172
11
157.63
21
-155.887
0
LINE
8
BLACK
6
CONTINUOUS
10
157.63
20
-155.887
11
157.487
21
-155.315
0
LINE
8
BLACK
6
CONTINUOUS
10
157.487
20
-155.315
11
157.487
21
-154.601
0
LINE
8
BLACK
6
CONTINUOUS
10
157.487
20
-154.601
11
157.63
21
-154.03
0
LINE
8
BLACK
6
CONTINUOUS
10
157.63
20
-154.03
11
157.773
21
-153.744
0
LINE
8
BLACK
6
CONTINUOUS
10
157.773
20
-153.744
11
157.916
21
-153.601
0
LINE
8
BLACK
6
CONTINUOUS
10
157.916
20
-153.601
11
158.202
21
-153.458
0
LINE
8
BLACK
6
CONTINUOUS
10
161.773
20
-154.458
11
161.773
21
-156.458
0
LINE
8
BLACK
6
CONTINUOUS
10
161.059
20
-153.315
11
160.345
21
-155.458
0
LINE
8
BLACK
6
CONTINUOUS
10
160.345
20
-155.458
11
162.202
21
-155.458
0
LINE
8
BLACK
6
CONTINUOUS
10
163.059
20
-153.458
11
165.059
21
-153.458
0
LINE
8
BLACK
6
CONTINUOUS
10
165.059
20
-153.458
11
163.773
21
-156.458
0
LINE
8
BLACK
6
CONTINUOUS
10
166.059
20
-153.458
11
166.059
21
-154.03
0
LINE
8
BLACK
6
CONTINUOUS
10
167.202
20
-153.458
11
167.202
21
-154.03
0
LINE
8
BLACK
6
CONTINUOUS
10
171.63
20
-157.601
11
171.487
21
-157.458
0
LINE
8
BLACK
6
CONTINUOUS
10
171.487
20
-157.458
11
171.202
21
-157.03
0
LINE
8
BLACK
6
CONTINUOUS
10
171.202
20
-157.03
11
171.059
21
-156.744
0
LINE
8
BLACK
6
CONTINUOUS
10
171.059
20
-156.744
11
170.916
21
-156.315
0
LINE
8
BLACK
6
CONTINUOUS
10
170.916
20
-156.315
11
170.773
21
-155.601
0
LINE
8
BLACK
6
CONTINUOUS
10
170.773
20
-155.601
11
170.773
21
-155.03
0
LINE
8
BLACK
6
CONTINUOUS
10
170.773
20
-155.03
11
170.916
21
-154.315
0
LINE
8
BLACK
6
CONTINUOUS
10
170.916
20
-154.315
11
171.059
21
-153.887
0
LINE
8
BLACK
6
CONTINUOUS
10
171.059
20
-153.887
11
171.202
21
-153.601
0
LINE
8
BLACK
6
CONTINUOUS
10
171.202
20
-153.601
11
171.487
21
-153.172
0
LINE
8
BLACK
6
CONTINUOUS
10
171.487
20
-153.172
11
171.63
21
-153.03
0
LINE
8
BLACK
6
CONTINUOUS
10
174.202
20
-153.458
11
172.773
21
-153.458
0
LINE
8
BLACK
6
CONTINUOUS
10
172.773
20
-153.458
11
172.63
21
-154.887
0
LINE
8
BLACK
6
CONTINUOUS
10
172.63
20
-154.887
11
172.773
21
-154.744
0
LINE
8
BLACK
6
CONTINUOUS
10
172.773
20
-154.744
11
173.059
21
-154.601
0
LINE
8
BLACK
6
CONTINUOUS
10
173.059
20
-154.601
11
173.773
21
-154.601
0
LINE
8
BLACK
6
CONTINUOUS
10
173.773
20
-154.601
11
174.059
21
-154.744
0
LINE
8
BLACK
6
CONTINUOUS
10
174.059
20
-154.744
11
174.202
21
-154.887
0
LINE
8
BLACK
6
CONTINUOUS
10
174.202
20
-154.887
11
174.345
21
-155.172
0
LINE
8
BLACK
6
CONTINUOUS
10
174.345
20
-155.172
11
174.345
21
-155.887
0
LINE
8
BLACK
6
CONTINUOUS
10
174.345
20
-155.887
11
174.202
21
-156.172
0
LINE
8
BLACK
6
CONTINUOUS
10
174.202
20
-156.172
11
174.059
21
-156.315
0
LINE
8
BLACK
6
CONTINUOUS
10
174.059
20
-156.315
11
173.773
21
-156.458
0
LINE
8
BLACK
6
CONTINUOUS
10
173.773
20
-156.458
11
173.059
21
-156.458
0
LINE
8
BLACK
6
CONTINUOUS
10
173.059
20
-156.458
11
172.773
21
-156.315
0
LINE
8
BLACK
6
CONTINUOUS
10
172.773
20
-156.315
11
172.63
21
-156.172
0
LINE
8
BLACK
6
CONTINUOUS
10
176.059
20
-154.744
11
175.773
21
-154.601
0
LINE
8
BLACK
6
CONTINUOUS
10
175.773
20
-154.601
11
175.63
21
-154.458
0
LINE
8
BLACK
6
CONTINUOUS
10
175.63
20
-154.458
11
175.487
21
-154.172
0
LINE
8
BLACK
6
CONTINUOUS
10
175.487
20
-154.172
11
175.487
21
-154.03
0
LINE
8
BLACK
6
CONTINUOUS
10
175.487
20
-154.03
11
175.63
21
-153.744
0
LINE
8
BLACK
6
CONTINUOUS
10
175.63
20
-153.744
11
175.773
21
-153.601
0
LINE
8
BLACK
6
CONTINUOUS
10
175.773
20
-153.601
11
176.059
21
-153.458
0
LINE
8
BLACK
6
CONTINUOUS
10
176.059
20
-153.458
11
176.63
21
-153.458
0
LINE
8
BLACK
6
CONTINUOUS
10
176.63
20
-153.458
11
176.916
21
-153.601
0
LINE
8
BLACK
6
CONTINUOUS
10
176.916
20
-153.601
11
177.059
21
-153.744
0
LINE
8
BLACK
6
CONTINUOUS
10
177.059
20
-153.744
11
177.202
21
-154.03
0
LINE
8
BLACK
6
CONTINUOUS
10
177.202
20
-154.03
11
177.202
21
-154.172
0
LINE
8
BLACK
6
CONTINUOUS
10
177.202
20
-154.172
11
177.059
21
-154.458
0
LINE
8
BLACK
6
CONTINUOUS
10
177.059
20
-154.458
11
176.916
21
-154.601
0
LINE
8
BLACK
6
CONTINUOUS
10
176.916
20
-154.601
11
176.63
21
-154.744
0
LINE
8
BLACK
6
CONTINUOUS
10
176.63
20
-154.744
11
176.059
21
-154.744
0
LINE
8
BLACK
6
CONTINUOUS
10
176.059
20
-154.744
11
175.773
21
-154.887
0
LINE
8
BLACK
6
CONTINUOUS
10
175.773
20
-154.887
11
175.63
21
-155.03
0
LINE
8
BLACK
6
CONTINUOUS
10
175.63
20
-155.03
11
175.487
21
-155.315
0
LINE
8
BLACK
6
CONTINUOUS
10
175.487
20
-155.315
11
175.487
21
-155.887
0
LINE
8
BLACK
6
CONTINUOUS
10
175.487
20
-155.887
11
175.63
21
-156.172
0
LINE
8
BLACK
6
CONTINUOUS
10
175.63
20
-156.172
11
175.773
21
-156.315
0
LINE
8
BLACK
6
CONTINUOUS
10
175.773
20
-156.315
11
176.059
21
-156.458
0
LINE
8
BLACK
6
CONTINUOUS
10
176.059
20
-156.458
11
176.63
21
-156.458
0
LINE
8
BLACK
6
CONTINUOUS
10
176.63
20
-156.458
11
176.916
21
-156.315
0
LINE
8
BLACK
6
CONTINUOUS
10
176.916
20
-156.315
11
177.059
21
-156.172
0
LINE
8
BLACK
6
CONTINUOUS
10
177.059
20
-156.172
11
177.202
21
-155.887
0
LINE
8
BLACK
6
CONTINUOUS
10
177.202
20
-155.887
11
177.202
21
-155.315
0
LINE
8
BLACK
6
CONTINUOUS
10
177.202
20
-155.315
11
177.059
21
-155.03
0
LINE
8
BLACK
6
CONTINUOUS
10
177.059
20
-155.03
11
176.916
21
-154.887
0
LINE
8
BLACK
6
CONTINUOUS
10
176.916
20
-154.887
11
176.63
21
-154.744
0
LINE
8
BLACK
6
CONTINUOUS
10
180.773
20
-156.458
11
180.773
21
-153.458
0
LINE
8
BLACK
6
CONTINUOUS
10
182.059
20
-156.458
11
182.059
21
-154.887
0
LINE
8
BLACK
6
CONTINUOUS
10
182.059
20
-154.887
11
181.916
21
-154.601
0
LINE
8
BLACK
6
CONTINUOUS
10
181.916
20
-154.601
11
181.63
21
-154.458
0
LINE
8
BLACK
6
CONTINUOUS
10
181.63
20
-154.458
11
181.202
21
-154.458
0
LINE
8
BLACK
6
CONTINUOUS
10
181.202
20
-154.458
11
180.916
21
-154.601
0
LINE
8
BLACK
6
CONTINUOUS
10
180.916
20
-154.601
11
180.773
21
-154.744
0
LINE
8
BLACK
6
CONTINUOUS
10
183.916
20
-156.458
11
183.63
21
-156.315
0
LINE
8
BLACK
6
CONTINUOUS
10
183.63
20
-156.315
11
183.487
21
-156.172
0
LINE
8
BLACK
6
CONTINUOUS
10
183.487
20
-156.172
11
183.345
21
-155.887
0
LINE
8
BLACK
6
CONTINUOUS
10
183.345
20
-155.887
11
183.345
21
-155.03
0
LINE
8
BLACK
6
CONTINUOUS
10
183.345
20
-155.03
11
183.487
21
-154.744
0
LINE
8
BLACK
6
CONTINUOUS
10
183.487
20
-154.744
11
183.63
21
-154.601
0
LINE
8
BLACK
6
CONTINUOUS
10
183.63
20
-154.601
11
183.916
21
-154.458
0
LINE
8
BLACK
6
CONTINUOUS
10
183.916
20
-154.458
11
184.345
21
-154.458
0
LINE
8
BLACK
6
CONTINUOUS
10
184.345
20
-154.458
11
184.63
21
-154.601
0
LINE
8
BLACK
6
CONTINUOUS
10
184.63
20
-154.601
11
184.773
21
-154.744
0
LINE
8
BLACK
6
CONTINUOUS
10
184.773
20
-154.744
11
184.916
21
-155.03
0
LINE
8
BLACK
6
CONTINUOUS
10
184.916
20
-155.03
11
184.916
21
-155.887
0
LINE
8
BLACK
6
CONTINUOUS
10
184.916
20
-155.887
11
184.773
21
-156.172
0
LINE
8
BLACK
6
CONTINUOUS
10
184.773
20
-156.172
11
184.63
21
-156.315
0
LINE
8
BLACK
6
CONTINUOUS
10
184.63
20
-156.315
11
184.345
21
-156.458
0
LINE
8
BLACK
6
CONTINUOUS
10
184.345
20
-156.458
11
183.916
21
-156.458
0
LINE
8
BLACK
6
CONTINUOUS
10
186.63
20
-156.458
11
186.345
21
-156.315
0
LINE
8
BLACK
6
CONTINUOUS
10
186.345
20
-156.315
11
186.202
21
-156.03
0
LINE
8
BLACK
6
CONTINUOUS
10
186.202
20
-156.03
11
186.202
21
-153.458
0
LINE
8
BLACK
6
CONTINUOUS
10
188.916
20
-156.315
11
188.63
21
-156.458
0
LINE
8
BLACK
6
CONTINUOUS
10
188.63
20
-156.458
11
188.059
21
-156.458
0
LINE
8
BLACK
6
CONTINUOUS
10
188.059
20
-156.458
11
187.773
21
-156.315
0
LINE
8
BLACK
6
CONTINUOUS
10
187.773
20
-156.315
11
187.63
21
-156.03
0
LINE
8
BLACK
6
CONTINUOUS
10
187.63
20
-156.03
11
187.63
21
-154.887
0
LINE
8
BLACK
6
CONTINUOUS
10
187.63
20
-154.887
11
187.773
21
-154.601
0
LINE
8
BLACK
6
CONTINUOUS
10
187.773
20
-154.601
11
188.059
21
-154.458
0
LINE
8
BLACK
6
CONTINUOUS
10
188.059
20
-154.458
11
188.63
21
-154.458
0
LINE
8
BLACK
6
CONTINUOUS
10
188.63
20
-154.458
11
188.916
21
-154.601
0
LINE
8
BLACK
6
CONTINUOUS
10
188.916
20
-154.601
11
189.059
21
-154.887
0
LINE
8
BLACK
6
CONTINUOUS
10
189.059
20
-154.887
11
189.059
21
-155.172
0
LINE
8
BLACK
6
CONTINUOUS
10
189.059
20
-155.172
11
187.63
21
-155.458
0
LINE
8
BLACK
6
CONTINUOUS
10
190.202
20
-156.315
11
190.487
21
-156.458
0
LINE
8
BLACK
6
CONTINUOUS
10
190.487
20
-156.458
11
191.059
21
-156.458
0
LINE
8
BLACK
6
CONTINUOUS
10
191.059
20
-156.458
11
191.345
21
-156.315
0
LINE
8
BLACK
6
CONTINUOUS
10
191.345
20
-156.315
11
191.487
21
-156.03
0
LINE
8
BLACK
6
CONTINUOUS
10
191.487
20
-156.03
11
191.487
21
-155.887
0
LINE
8
BLACK
6
CONTINUOUS
10
191.487
20
-155.887
11
191.345
21
-155.601
0
LINE
8
BLACK
6
CONTINUOUS
10
191.345
20
-155.601
11
191.059
21
-155.458
0
LINE
8
BLACK
6
CONTINUOUS
10
191.059
20
-155.458
11
190.63
21
-155.458
0
LINE
8
BLACK
6
CONTINUOUS
10
190.63
20
-155.458
11
190.345
21
-155.315
0
LINE
8
BLACK
6
CONTINUOUS
10
190.345
20
-155.315
11
190.202
21
-155.03
0
LINE
8
BLACK
6
CONTINUOUS
10
190.202
20
-155.03
11
190.202
21
-154.887
0
LINE
8
BLACK
6
CONTINUOUS
10
190.202
20
-154.887
11
190.345
21
-154.601
0
LINE
8
BLACK
6
CONTINUOUS
10
190.345
20
-154.601
11
190.63
21
-154.458
0
LINE
8
BLACK
6
CONTINUOUS
10
190.63
20
-154.458
11
191.059
21
-154.458
0
LINE
8
BLACK
6
CONTINUOUS
10
191.059
20
-154.458
11
191.345
21
-154.601
0
LINE
8
BLACK
6
CONTINUOUS
10
192.487
20
-157.601
11
192.63
21
-157.458
0
LINE
8
BLACK
6
CONTINUOUS
10
192.63
20
-157.458
11
192.916
21
-157.03
0
LINE
8
BLACK
6
CONTINUOUS
10
192.916
20
-157.03
11
193.059
21
-156.744
0
LINE
8
BLACK
6
CONTINUOUS
10
193.059
20
-156.744
11
193.202
21
-156.315
0
LINE
8
BLACK
6
CONTINUOUS
10
193.202
20
-156.315
11
193.345
21
-155.601
0
LINE
8
BLACK
6
CONTINUOUS
10
193.345
20
-155.601
11
193.345
21
-155.03
0
LINE
8
BLACK
6
CONTINUOUS
10
193.345
20
-155.03
11
193.202
21
-154.315
0
LINE
8
BLACK
6
CONTINUOUS
10
193.202
20
-154.315
11
193.059
21
-153.887
0
LINE
8
BLACK
6
CONTINUOUS
10
193.059
20
-153.887
11
192.916
21
-153.601
0
LINE
8
BLACK
6
CONTINUOUS
10
192.916
20
-153.601
11
192.63
21
-153.172
0
LINE
8
BLACK
6
CONTINUOUS
10
192.63
20
-153.172
11
192.487
21
-153.03
  0
ENDSEC
  0
EOF
