G04 #@! TF.GenerationSoftware,KiCad,Pcbnew,(5.1.5-0-10_14)*
G04 #@! TF.CreationDate,2021-10-24T15:57:11+10:00*
G04 #@! TF.ProjectId,Hornet Forward Input Shield,486f726e-6574-4204-966f-727761726420,rev?*
G04 #@! TF.SameCoordinates,Original*
G04 #@! TF.FileFunction,Soldermask,Top*
G04 #@! TF.FilePolarity,Negative*
%FSLAX46Y46*%
G04 Gerber Fmt 4.6, Leading zero omitted, Abs format (unit mm)*
G04 Created by KiCad (PCBNEW (5.1.5-0-10_14)) date 2021-10-24 15:57:11*
%MOMM*%
%LPD*%
G04 APERTURE LIST*
%ADD10O,2.200000X1.740000*%
%ADD11C,0.100000*%
%ADD12O,1.740000X2.200000*%
%ADD13C,1.400000*%
%ADD14O,1.400000X1.400000*%
%ADD15C,1.800000*%
%ADD16R,1.800000X1.800000*%
%ADD17C,1.600000*%
%ADD18O,1.700000X1.700000*%
%ADD19R,1.700000X1.700000*%
%ADD20O,1.727200X1.727200*%
%ADD21R,1.727200X1.727200*%
%ADD22C,1.727200*%
%ADD23O,1.727200X2.032000*%
G04 APERTURE END LIST*
D10*
X164719000Y-109728000D03*
X164719000Y-107188000D03*
X164719000Y-104648000D03*
X164719000Y-102108000D03*
X164719000Y-99568000D03*
X164719000Y-97028000D03*
X164719000Y-94488000D03*
D11*
G36*
X165593505Y-91079204D02*
G01*
X165617773Y-91082804D01*
X165641572Y-91088765D01*
X165664671Y-91097030D01*
X165686850Y-91107520D01*
X165707893Y-91120132D01*
X165727599Y-91134747D01*
X165745777Y-91151223D01*
X165762253Y-91169401D01*
X165776868Y-91189107D01*
X165789480Y-91210150D01*
X165799970Y-91232329D01*
X165808235Y-91255428D01*
X165814196Y-91279227D01*
X165817796Y-91303495D01*
X165819000Y-91327999D01*
X165819000Y-92568001D01*
X165817796Y-92592505D01*
X165814196Y-92616773D01*
X165808235Y-92640572D01*
X165799970Y-92663671D01*
X165789480Y-92685850D01*
X165776868Y-92706893D01*
X165762253Y-92726599D01*
X165745777Y-92744777D01*
X165727599Y-92761253D01*
X165707893Y-92775868D01*
X165686850Y-92788480D01*
X165664671Y-92798970D01*
X165641572Y-92807235D01*
X165617773Y-92813196D01*
X165593505Y-92816796D01*
X165569001Y-92818000D01*
X163868999Y-92818000D01*
X163844495Y-92816796D01*
X163820227Y-92813196D01*
X163796428Y-92807235D01*
X163773329Y-92798970D01*
X163751150Y-92788480D01*
X163730107Y-92775868D01*
X163710401Y-92761253D01*
X163692223Y-92744777D01*
X163675747Y-92726599D01*
X163661132Y-92706893D01*
X163648520Y-92685850D01*
X163638030Y-92663671D01*
X163629765Y-92640572D01*
X163623804Y-92616773D01*
X163620204Y-92592505D01*
X163619000Y-92568001D01*
X163619000Y-91327999D01*
X163620204Y-91303495D01*
X163623804Y-91279227D01*
X163629765Y-91255428D01*
X163638030Y-91232329D01*
X163648520Y-91210150D01*
X163661132Y-91189107D01*
X163675747Y-91169401D01*
X163692223Y-91151223D01*
X163710401Y-91134747D01*
X163730107Y-91120132D01*
X163751150Y-91107520D01*
X163773329Y-91097030D01*
X163796428Y-91088765D01*
X163820227Y-91082804D01*
X163844495Y-91079204D01*
X163868999Y-91078000D01*
X165569001Y-91078000D01*
X165593505Y-91079204D01*
G37*
D12*
X153670000Y-85725000D03*
D11*
G36*
X151774505Y-84626204D02*
G01*
X151798773Y-84629804D01*
X151822572Y-84635765D01*
X151845671Y-84644030D01*
X151867850Y-84654520D01*
X151888893Y-84667132D01*
X151908599Y-84681747D01*
X151926777Y-84698223D01*
X151943253Y-84716401D01*
X151957868Y-84736107D01*
X151970480Y-84757150D01*
X151980970Y-84779329D01*
X151989235Y-84802428D01*
X151995196Y-84826227D01*
X151998796Y-84850495D01*
X152000000Y-84874999D01*
X152000000Y-86575001D01*
X151998796Y-86599505D01*
X151995196Y-86623773D01*
X151989235Y-86647572D01*
X151980970Y-86670671D01*
X151970480Y-86692850D01*
X151957868Y-86713893D01*
X151943253Y-86733599D01*
X151926777Y-86751777D01*
X151908599Y-86768253D01*
X151888893Y-86782868D01*
X151867850Y-86795480D01*
X151845671Y-86805970D01*
X151822572Y-86814235D01*
X151798773Y-86820196D01*
X151774505Y-86823796D01*
X151750001Y-86825000D01*
X150509999Y-86825000D01*
X150485495Y-86823796D01*
X150461227Y-86820196D01*
X150437428Y-86814235D01*
X150414329Y-86805970D01*
X150392150Y-86795480D01*
X150371107Y-86782868D01*
X150351401Y-86768253D01*
X150333223Y-86751777D01*
X150316747Y-86733599D01*
X150302132Y-86713893D01*
X150289520Y-86692850D01*
X150279030Y-86670671D01*
X150270765Y-86647572D01*
X150264804Y-86623773D01*
X150261204Y-86599505D01*
X150260000Y-86575001D01*
X150260000Y-84874999D01*
X150261204Y-84850495D01*
X150264804Y-84826227D01*
X150270765Y-84802428D01*
X150279030Y-84779329D01*
X150289520Y-84757150D01*
X150302132Y-84736107D01*
X150316747Y-84716401D01*
X150333223Y-84698223D01*
X150351401Y-84681747D01*
X150371107Y-84667132D01*
X150392150Y-84654520D01*
X150414329Y-84644030D01*
X150437428Y-84635765D01*
X150461227Y-84629804D01*
X150485495Y-84626204D01*
X150509999Y-84625000D01*
X151750001Y-84625000D01*
X151774505Y-84626204D01*
G37*
D13*
X164846000Y-88265000D03*
D14*
X167386000Y-88265000D03*
D13*
X164973000Y-74295000D03*
D14*
X167513000Y-74295000D03*
D12*
X161163000Y-85725000D03*
D11*
G36*
X159267505Y-84626204D02*
G01*
X159291773Y-84629804D01*
X159315572Y-84635765D01*
X159338671Y-84644030D01*
X159360850Y-84654520D01*
X159381893Y-84667132D01*
X159401599Y-84681747D01*
X159419777Y-84698223D01*
X159436253Y-84716401D01*
X159450868Y-84736107D01*
X159463480Y-84757150D01*
X159473970Y-84779329D01*
X159482235Y-84802428D01*
X159488196Y-84826227D01*
X159491796Y-84850495D01*
X159493000Y-84874999D01*
X159493000Y-86575001D01*
X159491796Y-86599505D01*
X159488196Y-86623773D01*
X159482235Y-86647572D01*
X159473970Y-86670671D01*
X159463480Y-86692850D01*
X159450868Y-86713893D01*
X159436253Y-86733599D01*
X159419777Y-86751777D01*
X159401599Y-86768253D01*
X159381893Y-86782868D01*
X159360850Y-86795480D01*
X159338671Y-86805970D01*
X159315572Y-86814235D01*
X159291773Y-86820196D01*
X159267505Y-86823796D01*
X159243001Y-86825000D01*
X158002999Y-86825000D01*
X157978495Y-86823796D01*
X157954227Y-86820196D01*
X157930428Y-86814235D01*
X157907329Y-86805970D01*
X157885150Y-86795480D01*
X157864107Y-86782868D01*
X157844401Y-86768253D01*
X157826223Y-86751777D01*
X157809747Y-86733599D01*
X157795132Y-86713893D01*
X157782520Y-86692850D01*
X157772030Y-86670671D01*
X157763765Y-86647572D01*
X157757804Y-86623773D01*
X157754204Y-86599505D01*
X157753000Y-86575001D01*
X157753000Y-84874999D01*
X157754204Y-84850495D01*
X157757804Y-84826227D01*
X157763765Y-84802428D01*
X157772030Y-84779329D01*
X157782520Y-84757150D01*
X157795132Y-84736107D01*
X157809747Y-84716401D01*
X157826223Y-84698223D01*
X157844401Y-84681747D01*
X157864107Y-84667132D01*
X157885150Y-84654520D01*
X157907329Y-84644030D01*
X157930428Y-84635765D01*
X157954227Y-84629804D01*
X157978495Y-84626204D01*
X158002999Y-84625000D01*
X159243001Y-84625000D01*
X159267505Y-84626204D01*
G37*
D12*
X146177000Y-78740000D03*
X143637000Y-78740000D03*
X141097000Y-78740000D03*
X138557000Y-78740000D03*
X136017000Y-78740000D03*
D11*
G36*
X134121505Y-77641204D02*
G01*
X134145773Y-77644804D01*
X134169572Y-77650765D01*
X134192671Y-77659030D01*
X134214850Y-77669520D01*
X134235893Y-77682132D01*
X134255599Y-77696747D01*
X134273777Y-77713223D01*
X134290253Y-77731401D01*
X134304868Y-77751107D01*
X134317480Y-77772150D01*
X134327970Y-77794329D01*
X134336235Y-77817428D01*
X134342196Y-77841227D01*
X134345796Y-77865495D01*
X134347000Y-77889999D01*
X134347000Y-79590001D01*
X134345796Y-79614505D01*
X134342196Y-79638773D01*
X134336235Y-79662572D01*
X134327970Y-79685671D01*
X134317480Y-79707850D01*
X134304868Y-79728893D01*
X134290253Y-79748599D01*
X134273777Y-79766777D01*
X134255599Y-79783253D01*
X134235893Y-79797868D01*
X134214850Y-79810480D01*
X134192671Y-79820970D01*
X134169572Y-79829235D01*
X134145773Y-79835196D01*
X134121505Y-79838796D01*
X134097001Y-79840000D01*
X132856999Y-79840000D01*
X132832495Y-79838796D01*
X132808227Y-79835196D01*
X132784428Y-79829235D01*
X132761329Y-79820970D01*
X132739150Y-79810480D01*
X132718107Y-79797868D01*
X132698401Y-79783253D01*
X132680223Y-79766777D01*
X132663747Y-79748599D01*
X132649132Y-79728893D01*
X132636520Y-79707850D01*
X132626030Y-79685671D01*
X132617765Y-79662572D01*
X132611804Y-79638773D01*
X132608204Y-79614505D01*
X132607000Y-79590001D01*
X132607000Y-77889999D01*
X132608204Y-77865495D01*
X132611804Y-77841227D01*
X132617765Y-77817428D01*
X132626030Y-77794329D01*
X132636520Y-77772150D01*
X132649132Y-77751107D01*
X132663747Y-77731401D01*
X132680223Y-77713223D01*
X132698401Y-77696747D01*
X132718107Y-77682132D01*
X132739150Y-77669520D01*
X132761329Y-77659030D01*
X132784428Y-77650765D01*
X132808227Y-77644804D01*
X132832495Y-77641204D01*
X132856999Y-77640000D01*
X134097001Y-77640000D01*
X134121505Y-77641204D01*
G37*
D12*
X129540000Y-78613000D03*
D11*
G36*
X127644505Y-77514204D02*
G01*
X127668773Y-77517804D01*
X127692572Y-77523765D01*
X127715671Y-77532030D01*
X127737850Y-77542520D01*
X127758893Y-77555132D01*
X127778599Y-77569747D01*
X127796777Y-77586223D01*
X127813253Y-77604401D01*
X127827868Y-77624107D01*
X127840480Y-77645150D01*
X127850970Y-77667329D01*
X127859235Y-77690428D01*
X127865196Y-77714227D01*
X127868796Y-77738495D01*
X127870000Y-77762999D01*
X127870000Y-79463001D01*
X127868796Y-79487505D01*
X127865196Y-79511773D01*
X127859235Y-79535572D01*
X127850970Y-79558671D01*
X127840480Y-79580850D01*
X127827868Y-79601893D01*
X127813253Y-79621599D01*
X127796777Y-79639777D01*
X127778599Y-79656253D01*
X127758893Y-79670868D01*
X127737850Y-79683480D01*
X127715671Y-79693970D01*
X127692572Y-79702235D01*
X127668773Y-79708196D01*
X127644505Y-79711796D01*
X127620001Y-79713000D01*
X126379999Y-79713000D01*
X126355495Y-79711796D01*
X126331227Y-79708196D01*
X126307428Y-79702235D01*
X126284329Y-79693970D01*
X126262150Y-79683480D01*
X126241107Y-79670868D01*
X126221401Y-79656253D01*
X126203223Y-79639777D01*
X126186747Y-79621599D01*
X126172132Y-79601893D01*
X126159520Y-79580850D01*
X126149030Y-79558671D01*
X126140765Y-79535572D01*
X126134804Y-79511773D01*
X126131204Y-79487505D01*
X126130000Y-79463001D01*
X126130000Y-77762999D01*
X126131204Y-77738495D01*
X126134804Y-77714227D01*
X126140765Y-77690428D01*
X126149030Y-77667329D01*
X126159520Y-77645150D01*
X126172132Y-77624107D01*
X126186747Y-77604401D01*
X126203223Y-77586223D01*
X126221401Y-77569747D01*
X126241107Y-77555132D01*
X126262150Y-77542520D01*
X126284329Y-77532030D01*
X126307428Y-77523765D01*
X126331227Y-77517804D01*
X126355495Y-77514204D01*
X126379999Y-77513000D01*
X127620001Y-77513000D01*
X127644505Y-77514204D01*
G37*
D15*
X167386000Y-83566000D03*
D16*
X164846000Y-83566000D03*
D15*
X167259000Y-78359000D03*
D16*
X164719000Y-78359000D03*
D12*
X143002000Y-107315000D03*
X140462000Y-107315000D03*
X137922000Y-107315000D03*
X135382000Y-107315000D03*
X132842000Y-107315000D03*
D11*
G36*
X130946505Y-106216204D02*
G01*
X130970773Y-106219804D01*
X130994572Y-106225765D01*
X131017671Y-106234030D01*
X131039850Y-106244520D01*
X131060893Y-106257132D01*
X131080599Y-106271747D01*
X131098777Y-106288223D01*
X131115253Y-106306401D01*
X131129868Y-106326107D01*
X131142480Y-106347150D01*
X131152970Y-106369329D01*
X131161235Y-106392428D01*
X131167196Y-106416227D01*
X131170796Y-106440495D01*
X131172000Y-106464999D01*
X131172000Y-108165001D01*
X131170796Y-108189505D01*
X131167196Y-108213773D01*
X131161235Y-108237572D01*
X131152970Y-108260671D01*
X131142480Y-108282850D01*
X131129868Y-108303893D01*
X131115253Y-108323599D01*
X131098777Y-108341777D01*
X131080599Y-108358253D01*
X131060893Y-108372868D01*
X131039850Y-108385480D01*
X131017671Y-108395970D01*
X130994572Y-108404235D01*
X130970773Y-108410196D01*
X130946505Y-108413796D01*
X130922001Y-108415000D01*
X129681999Y-108415000D01*
X129657495Y-108413796D01*
X129633227Y-108410196D01*
X129609428Y-108404235D01*
X129586329Y-108395970D01*
X129564150Y-108385480D01*
X129543107Y-108372868D01*
X129523401Y-108358253D01*
X129505223Y-108341777D01*
X129488747Y-108323599D01*
X129474132Y-108303893D01*
X129461520Y-108282850D01*
X129451030Y-108260671D01*
X129442765Y-108237572D01*
X129436804Y-108213773D01*
X129433204Y-108189505D01*
X129432000Y-108165001D01*
X129432000Y-106464999D01*
X129433204Y-106440495D01*
X129436804Y-106416227D01*
X129442765Y-106392428D01*
X129451030Y-106369329D01*
X129461520Y-106347150D01*
X129474132Y-106326107D01*
X129488747Y-106306401D01*
X129505223Y-106288223D01*
X129523401Y-106271747D01*
X129543107Y-106257132D01*
X129564150Y-106244520D01*
X129586329Y-106234030D01*
X129609428Y-106225765D01*
X129633227Y-106219804D01*
X129657495Y-106216204D01*
X129681999Y-106215000D01*
X130922001Y-106215000D01*
X130946505Y-106216204D01*
G37*
D12*
X143066000Y-99250500D03*
X140526000Y-99250500D03*
X137986000Y-99250500D03*
X135446000Y-99250500D03*
X132906000Y-99250500D03*
D11*
G36*
X131010505Y-98151704D02*
G01*
X131034773Y-98155304D01*
X131058572Y-98161265D01*
X131081671Y-98169530D01*
X131103850Y-98180020D01*
X131124893Y-98192632D01*
X131144599Y-98207247D01*
X131162777Y-98223723D01*
X131179253Y-98241901D01*
X131193868Y-98261607D01*
X131206480Y-98282650D01*
X131216970Y-98304829D01*
X131225235Y-98327928D01*
X131231196Y-98351727D01*
X131234796Y-98375995D01*
X131236000Y-98400499D01*
X131236000Y-100100501D01*
X131234796Y-100125005D01*
X131231196Y-100149273D01*
X131225235Y-100173072D01*
X131216970Y-100196171D01*
X131206480Y-100218350D01*
X131193868Y-100239393D01*
X131179253Y-100259099D01*
X131162777Y-100277277D01*
X131144599Y-100293753D01*
X131124893Y-100308368D01*
X131103850Y-100320980D01*
X131081671Y-100331470D01*
X131058572Y-100339735D01*
X131034773Y-100345696D01*
X131010505Y-100349296D01*
X130986001Y-100350500D01*
X129745999Y-100350500D01*
X129721495Y-100349296D01*
X129697227Y-100345696D01*
X129673428Y-100339735D01*
X129650329Y-100331470D01*
X129628150Y-100320980D01*
X129607107Y-100308368D01*
X129587401Y-100293753D01*
X129569223Y-100277277D01*
X129552747Y-100259099D01*
X129538132Y-100239393D01*
X129525520Y-100218350D01*
X129515030Y-100196171D01*
X129506765Y-100173072D01*
X129500804Y-100149273D01*
X129497204Y-100125005D01*
X129496000Y-100100501D01*
X129496000Y-98400499D01*
X129497204Y-98375995D01*
X129500804Y-98351727D01*
X129506765Y-98327928D01*
X129515030Y-98304829D01*
X129525520Y-98282650D01*
X129538132Y-98261607D01*
X129552747Y-98241901D01*
X129569223Y-98223723D01*
X129587401Y-98207247D01*
X129607107Y-98192632D01*
X129628150Y-98180020D01*
X129650329Y-98169530D01*
X129673428Y-98161265D01*
X129697227Y-98155304D01*
X129721495Y-98151704D01*
X129745999Y-98150500D01*
X130986001Y-98150500D01*
X131010505Y-98151704D01*
G37*
D12*
X143002000Y-90614500D03*
X140462000Y-90614500D03*
X137922000Y-90614500D03*
X135382000Y-90614500D03*
X132842000Y-90614500D03*
D11*
G36*
X130946505Y-89515704D02*
G01*
X130970773Y-89519304D01*
X130994572Y-89525265D01*
X131017671Y-89533530D01*
X131039850Y-89544020D01*
X131060893Y-89556632D01*
X131080599Y-89571247D01*
X131098777Y-89587723D01*
X131115253Y-89605901D01*
X131129868Y-89625607D01*
X131142480Y-89646650D01*
X131152970Y-89668829D01*
X131161235Y-89691928D01*
X131167196Y-89715727D01*
X131170796Y-89739995D01*
X131172000Y-89764499D01*
X131172000Y-91464501D01*
X131170796Y-91489005D01*
X131167196Y-91513273D01*
X131161235Y-91537072D01*
X131152970Y-91560171D01*
X131142480Y-91582350D01*
X131129868Y-91603393D01*
X131115253Y-91623099D01*
X131098777Y-91641277D01*
X131080599Y-91657753D01*
X131060893Y-91672368D01*
X131039850Y-91684980D01*
X131017671Y-91695470D01*
X130994572Y-91703735D01*
X130970773Y-91709696D01*
X130946505Y-91713296D01*
X130922001Y-91714500D01*
X129681999Y-91714500D01*
X129657495Y-91713296D01*
X129633227Y-91709696D01*
X129609428Y-91703735D01*
X129586329Y-91695470D01*
X129564150Y-91684980D01*
X129543107Y-91672368D01*
X129523401Y-91657753D01*
X129505223Y-91641277D01*
X129488747Y-91623099D01*
X129474132Y-91603393D01*
X129461520Y-91582350D01*
X129451030Y-91560171D01*
X129442765Y-91537072D01*
X129436804Y-91513273D01*
X129433204Y-91489005D01*
X129432000Y-91464501D01*
X129432000Y-89764499D01*
X129433204Y-89739995D01*
X129436804Y-89715727D01*
X129442765Y-89691928D01*
X129451030Y-89668829D01*
X129461520Y-89646650D01*
X129474132Y-89625607D01*
X129488747Y-89605901D01*
X129505223Y-89587723D01*
X129523401Y-89571247D01*
X129543107Y-89556632D01*
X129564150Y-89544020D01*
X129586329Y-89533530D01*
X129609428Y-89525265D01*
X129633227Y-89519304D01*
X129657495Y-89515704D01*
X129681999Y-89514500D01*
X130922001Y-89514500D01*
X130946505Y-89515704D01*
G37*
D17*
X194040000Y-108077000D03*
X189040000Y-108077000D03*
X179180000Y-108458000D03*
X174180000Y-108458000D03*
X179308000Y-111696000D03*
X174308000Y-111696000D03*
X153272000Y-96647000D03*
X148272000Y-96647000D03*
X179308000Y-114872000D03*
X174308000Y-114872000D03*
X153272000Y-92075000D03*
X148272000Y-92075000D03*
X186610000Y-111696000D03*
X181610000Y-111696000D03*
X153272000Y-101219000D03*
X148272000Y-101219000D03*
X186674000Y-114998000D03*
X181674000Y-114998000D03*
X153272000Y-105791000D03*
X148272000Y-105791000D03*
X194103000Y-111442000D03*
X189103000Y-111442000D03*
X153272000Y-110363000D03*
X148272000Y-110363000D03*
X194103000Y-115126000D03*
X189103000Y-115126000D03*
X153272000Y-114935000D03*
X148272000Y-114935000D03*
D18*
X145034000Y-70866000D03*
X142494000Y-70866000D03*
X139954000Y-70866000D03*
X137414000Y-70866000D03*
X134874000Y-70866000D03*
X132334000Y-70866000D03*
X129794000Y-70866000D03*
D19*
X127254000Y-70866000D03*
D18*
X166878000Y-119126000D03*
X164338000Y-119126000D03*
X161798000Y-119126000D03*
X159258000Y-119126000D03*
X156718000Y-119126000D03*
D19*
X154178000Y-119126000D03*
D13*
X216027000Y-114201000D03*
D14*
X218567000Y-114201000D03*
D13*
X216027000Y-110020000D03*
D14*
X218567000Y-110020000D03*
D13*
X216027000Y-105839000D03*
D14*
X218567000Y-105839000D03*
D13*
X216027000Y-101658000D03*
D14*
X218567000Y-101658000D03*
D13*
X216027000Y-98492600D03*
D14*
X218567000Y-98492600D03*
D13*
X216027000Y-94311500D03*
D14*
X218567000Y-94311500D03*
D13*
X216027000Y-90130400D03*
D14*
X218567000Y-90130400D03*
D13*
X216027000Y-85949300D03*
D14*
X218567000Y-85949300D03*
D13*
X216027000Y-81768200D03*
D14*
X218567000Y-81768200D03*
D13*
X216027000Y-77587100D03*
D14*
X218567000Y-77587100D03*
D13*
X216027000Y-73406000D03*
D14*
X218567000Y-73406000D03*
D10*
X187134000Y-102171500D03*
X187134000Y-99631500D03*
X187134000Y-97091500D03*
X187134000Y-94551500D03*
X187134000Y-92011500D03*
X187134000Y-89471500D03*
X187134000Y-86931500D03*
X187134000Y-84391500D03*
X187134000Y-81851500D03*
D11*
G36*
X188008505Y-78442704D02*
G01*
X188032773Y-78446304D01*
X188056572Y-78452265D01*
X188079671Y-78460530D01*
X188101850Y-78471020D01*
X188122893Y-78483632D01*
X188142599Y-78498247D01*
X188160777Y-78514723D01*
X188177253Y-78532901D01*
X188191868Y-78552607D01*
X188204480Y-78573650D01*
X188214970Y-78595829D01*
X188223235Y-78618928D01*
X188229196Y-78642727D01*
X188232796Y-78666995D01*
X188234000Y-78691499D01*
X188234000Y-79931501D01*
X188232796Y-79956005D01*
X188229196Y-79980273D01*
X188223235Y-80004072D01*
X188214970Y-80027171D01*
X188204480Y-80049350D01*
X188191868Y-80070393D01*
X188177253Y-80090099D01*
X188160777Y-80108277D01*
X188142599Y-80124753D01*
X188122893Y-80139368D01*
X188101850Y-80151980D01*
X188079671Y-80162470D01*
X188056572Y-80170735D01*
X188032773Y-80176696D01*
X188008505Y-80180296D01*
X187984001Y-80181500D01*
X186283999Y-80181500D01*
X186259495Y-80180296D01*
X186235227Y-80176696D01*
X186211428Y-80170735D01*
X186188329Y-80162470D01*
X186166150Y-80151980D01*
X186145107Y-80139368D01*
X186125401Y-80124753D01*
X186107223Y-80108277D01*
X186090747Y-80090099D01*
X186076132Y-80070393D01*
X186063520Y-80049350D01*
X186053030Y-80027171D01*
X186044765Y-80004072D01*
X186038804Y-79980273D01*
X186035204Y-79956005D01*
X186034000Y-79931501D01*
X186034000Y-78691499D01*
X186035204Y-78666995D01*
X186038804Y-78642727D01*
X186044765Y-78618928D01*
X186053030Y-78595829D01*
X186063520Y-78573650D01*
X186076132Y-78552607D01*
X186090747Y-78532901D01*
X186107223Y-78514723D01*
X186125401Y-78498247D01*
X186145107Y-78483632D01*
X186166150Y-78471020D01*
X186188329Y-78460530D01*
X186211428Y-78452265D01*
X186235227Y-78446304D01*
X186259495Y-78442704D01*
X186283999Y-78441500D01*
X187984001Y-78441500D01*
X188008505Y-78442704D01*
G37*
D10*
X174180000Y-102171500D03*
X174180000Y-99631500D03*
X174180000Y-97091500D03*
X174180000Y-94551500D03*
X174180000Y-92011500D03*
X174180000Y-89471500D03*
X174180000Y-86931500D03*
X174180000Y-84391500D03*
X174180000Y-81851500D03*
D11*
G36*
X175054505Y-78442704D02*
G01*
X175078773Y-78446304D01*
X175102572Y-78452265D01*
X175125671Y-78460530D01*
X175147850Y-78471020D01*
X175168893Y-78483632D01*
X175188599Y-78498247D01*
X175206777Y-78514723D01*
X175223253Y-78532901D01*
X175237868Y-78552607D01*
X175250480Y-78573650D01*
X175260970Y-78595829D01*
X175269235Y-78618928D01*
X175275196Y-78642727D01*
X175278796Y-78666995D01*
X175280000Y-78691499D01*
X175280000Y-79931501D01*
X175278796Y-79956005D01*
X175275196Y-79980273D01*
X175269235Y-80004072D01*
X175260970Y-80027171D01*
X175250480Y-80049350D01*
X175237868Y-80070393D01*
X175223253Y-80090099D01*
X175206777Y-80108277D01*
X175188599Y-80124753D01*
X175168893Y-80139368D01*
X175147850Y-80151980D01*
X175125671Y-80162470D01*
X175102572Y-80170735D01*
X175078773Y-80176696D01*
X175054505Y-80180296D01*
X175030001Y-80181500D01*
X173329999Y-80181500D01*
X173305495Y-80180296D01*
X173281227Y-80176696D01*
X173257428Y-80170735D01*
X173234329Y-80162470D01*
X173212150Y-80151980D01*
X173191107Y-80139368D01*
X173171401Y-80124753D01*
X173153223Y-80108277D01*
X173136747Y-80090099D01*
X173122132Y-80070393D01*
X173109520Y-80049350D01*
X173099030Y-80027171D01*
X173090765Y-80004072D01*
X173084804Y-79980273D01*
X173081204Y-79956005D01*
X173080000Y-79931501D01*
X173080000Y-78691499D01*
X173081204Y-78666995D01*
X173084804Y-78642727D01*
X173090765Y-78618928D01*
X173099030Y-78595829D01*
X173109520Y-78573650D01*
X173122132Y-78552607D01*
X173136747Y-78532901D01*
X173153223Y-78514723D01*
X173171401Y-78498247D01*
X173191107Y-78483632D01*
X173212150Y-78471020D01*
X173234329Y-78460530D01*
X173257428Y-78452265D01*
X173281227Y-78446304D01*
X173305495Y-78442704D01*
X173329999Y-78441500D01*
X175030001Y-78441500D01*
X175054505Y-78442704D01*
G37*
D20*
X209550000Y-115062000D03*
X207010000Y-115062000D03*
X209550000Y-112522000D03*
X207010000Y-112522000D03*
X209550000Y-109982000D03*
X207010000Y-109982000D03*
X209550000Y-107442000D03*
X207010000Y-107442000D03*
X209550000Y-104902000D03*
X207010000Y-104902000D03*
X209550000Y-102362000D03*
X207010000Y-102362000D03*
X209550000Y-99822000D03*
X207010000Y-99822000D03*
X209550000Y-97282000D03*
X207010000Y-97282000D03*
X209550000Y-94742000D03*
X207010000Y-94742000D03*
X209550000Y-92202000D03*
X207010000Y-92202000D03*
X209550000Y-89662000D03*
X207010000Y-89662000D03*
X209550000Y-87122000D03*
X207010000Y-87122000D03*
X209550000Y-84582000D03*
X207010000Y-84582000D03*
X209550000Y-82042000D03*
X207010000Y-82042000D03*
X209550000Y-79502000D03*
X207010000Y-79502000D03*
X209550000Y-76962000D03*
X207010000Y-76962000D03*
X209550000Y-74422000D03*
D21*
X207010000Y-74422000D03*
D22*
X197358000Y-114046000D03*
D20*
X199898000Y-114046000D03*
X197358000Y-111506000D03*
X199898000Y-111506000D03*
X197358000Y-108966000D03*
X199898000Y-108966000D03*
X197358000Y-106426000D03*
X199898000Y-106426000D03*
X197358000Y-103886000D03*
X199898000Y-103886000D03*
X197358000Y-101346000D03*
X199898000Y-101346000D03*
X197358000Y-98806000D03*
X199898000Y-98806000D03*
X197358000Y-96266000D03*
X199898000Y-96266000D03*
X197358000Y-93726000D03*
X199898000Y-93726000D03*
X197358000Y-91186000D03*
X199898000Y-91186000D03*
X197358000Y-88646000D03*
X199898000Y-88646000D03*
X197358000Y-86106000D03*
X199898000Y-86106000D03*
X197358000Y-83566000D03*
X199898000Y-83566000D03*
X197358000Y-81026000D03*
X199898000Y-81026000D03*
X197358000Y-78486000D03*
X199898000Y-78486000D03*
X197358000Y-75946000D03*
X199898000Y-75946000D03*
X197358000Y-73406000D03*
X199898000Y-73406000D03*
X197358000Y-70866000D03*
X199898000Y-70866000D03*
D23*
X131318000Y-119126000D03*
X133858000Y-119126000D03*
X136398000Y-119126000D03*
X138938000Y-119126000D03*
X141478000Y-119126000D03*
X144018000Y-119126000D03*
X146558000Y-119126000D03*
X149098000Y-119126000D03*
X177038000Y-119126000D03*
X179578000Y-119126000D03*
X182118000Y-119126000D03*
X184658000Y-119126000D03*
X187198000Y-119126000D03*
X189738000Y-119126000D03*
X192278000Y-119126000D03*
X194818000Y-119126000D03*
X149098000Y-70866000D03*
X151638000Y-70866000D03*
X154178000Y-70866000D03*
X156718000Y-70866000D03*
X159258000Y-70866000D03*
X161798000Y-70866000D03*
X164338000Y-70866000D03*
X166878000Y-70866000D03*
X171958000Y-70866000D03*
X174498000Y-70866000D03*
X177038000Y-70866000D03*
X179578000Y-70866000D03*
X182118000Y-70866000D03*
X184658000Y-70866000D03*
X187198000Y-70866000D03*
X189738000Y-70866000D03*
M02*
