M48
; DRILL file {KiCad (5.1.5-0-10_14)} date Sunday, 28 November 2021 at 08:32:55 am
; FORMAT={-:-/ absolute / metric / decimal}
; #@! TF.CreationDate,2021-11-28T08:32:55+10:00
; #@! TF.GenerationSoftware,Kicad,Pcbnew,(5.1.5-0-10_14)
; #@! TF.FileFunction,Plated,1,2,PTH
FMAT,2
METRIC
T1C0.800
T2C1.000
T3C1.200
%
G90
G05
T1
X157.988Y-91.186
X157.988Y-93.726
X157.988Y-96.266
X157.988Y-98.806
X157.988Y-101.346
X157.988Y-103.886
X157.988Y-106.426
X157.988Y-108.966
X165.608Y-91.186
X165.608Y-93.726
X165.608Y-96.266
X165.608Y-98.806
X165.608Y-101.346
X165.608Y-103.886
X165.608Y-106.426
X165.608Y-108.966
X187.452Y-82.804
X187.452Y-85.344
X187.452Y-87.884
X187.452Y-90.424
X187.452Y-92.964
X187.452Y-95.504
X187.452Y-98.044
X187.452Y-100.584
X195.072Y-82.804
X195.072Y-85.344
X195.072Y-87.884
X195.072Y-90.424
X195.072Y-92.964
X195.072Y-95.504
X195.072Y-98.044
X195.072Y-100.584
T3
X239.395Y-91.186
X241.935Y-91.186
X244.475Y-91.186
X240.284Y-100.076
X242.824Y-100.076
X245.364Y-100.076
X199.136Y-105.537
X201.676Y-105.537
X227.33Y-96.647
X229.87Y-96.647
X232.41Y-96.647
X214.63Y-96.52
X217.17Y-96.52
X219.71Y-96.52
X218.948Y-106.934
X221.488Y-106.934
X224.028Y-106.934
X226.568Y-106.934
X217.424Y-88.392
X219.964Y-88.392
X222.504Y-88.392
X225.044Y-88.392
X227.584Y-88.392
X230.124Y-88.392
X232.664Y-88.392
X235.204Y-88.392
X234.823Y-115.062
X237.363Y-115.062
X171.831Y-95.758
X171.831Y-98.298
X171.831Y-100.838
X171.831Y-103.378
X219.075Y-115.062
X221.615Y-115.062
X206.248Y-107.569
X208.788Y-107.569
X211.328Y-107.569
X213.868Y-107.569
X232.029Y-106.934
X234.569Y-106.934
X180.721Y-96.012
X183.261Y-96.012
X167.767Y-116.332
X170.307Y-116.332
X172.847Y-116.332
X175.387Y-116.332
X177.927Y-116.332
X180.467Y-116.332
X226.441Y-115.062
X228.981Y-115.062
X180.848Y-104.648
X183.388Y-104.648
X240.411Y-108.204
X242.951Y-108.204
X245.491Y-108.204
X206.248Y-114.808
X208.788Y-114.808
X211.328Y-114.808
X213.868Y-114.808
X185.928Y-115.189
X188.468Y-115.189
X191.008Y-115.189
X193.548Y-115.189
X200.406Y-91.948
X200.406Y-94.488
X200.406Y-97.028
X200.406Y-99.568
X199.136Y-85.09
X201.676Y-85.09
T2
G00X171.322Y-86.805
M15
G01X171.322Y-88.805
M16
G05
G00X177.022Y-84.805
M15
G01X175.022Y-84.805
M16
G05
G00X177.022Y-90.805
M15
G01X175.022Y-90.805
M16
G05
T0
M30
