%TF.GenerationSoftware,KiCad,Pcbnew,8.0.8*%
%TF.CreationDate,2025-03-24T05:48:31+10:00*%
%TF.ProjectId,Cable Tester,4361626c-6520-4546-9573-7465722e6b69,rev?*%
%TF.SameCoordinates,Original*%
%TF.FileFunction,Legend,Top*%
%TF.FilePolarity,Positive*%
%FSLAX46Y46*%
G04 Gerber Fmt 4.6, Leading zero omitted, Abs format (unit mm)*
G04 Created by KiCad (PCBNEW 8.0.8) date 2025-03-24 05:48:31*
%MOMM*%
%LPD*%
G01*
G04 APERTURE LIST*
%ADD10C,0.100000*%
%ADD11C,0.500000*%
%ADD12C,0.000000*%
%ADD13C,0.250000*%
%ADD14C,0.400000*%
%ADD15C,0.200000*%
%ADD16C,0.150000*%
%ADD17C,0.120000*%
G04 APERTURE END LIST*
D10*
X117256265Y-71950038D02*
X117922931Y-73950038D01*
X117922931Y-73950038D02*
X118589598Y-71950038D01*
X119637217Y-71950038D02*
X119827694Y-71950038D01*
X119827694Y-71950038D02*
X120018170Y-72045276D01*
X120018170Y-72045276D02*
X120113408Y-72140514D01*
X120113408Y-72140514D02*
X120208646Y-72330990D01*
X120208646Y-72330990D02*
X120303884Y-72711942D01*
X120303884Y-72711942D02*
X120303884Y-73188133D01*
X120303884Y-73188133D02*
X120208646Y-73569085D01*
X120208646Y-73569085D02*
X120113408Y-73759561D01*
X120113408Y-73759561D02*
X120018170Y-73854800D01*
X120018170Y-73854800D02*
X119827694Y-73950038D01*
X119827694Y-73950038D02*
X119637217Y-73950038D01*
X119637217Y-73950038D02*
X119446741Y-73854800D01*
X119446741Y-73854800D02*
X119351503Y-73759561D01*
X119351503Y-73759561D02*
X119256265Y-73569085D01*
X119256265Y-73569085D02*
X119161027Y-73188133D01*
X119161027Y-73188133D02*
X119161027Y-72711942D01*
X119161027Y-72711942D02*
X119256265Y-72330990D01*
X119256265Y-72330990D02*
X119351503Y-72140514D01*
X119351503Y-72140514D02*
X119446741Y-72045276D01*
X119446741Y-72045276D02*
X119637217Y-71950038D01*
X122208646Y-73950038D02*
X121065789Y-73950038D01*
X121637217Y-73950038D02*
X121637217Y-71950038D01*
X121637217Y-71950038D02*
X121446741Y-72235752D01*
X121446741Y-72235752D02*
X121256265Y-72426228D01*
X121256265Y-72426228D02*
X121065789Y-72521466D01*
D11*
X67902000Y-82537000D02*
X67902000Y-80765000D01*
D12*
G36*
X119254266Y-82106892D02*
G01*
X119277288Y-82108449D01*
X119300128Y-82110957D01*
X119322793Y-82114379D01*
X119345287Y-82118678D01*
X119367617Y-82123817D01*
X119389788Y-82129760D01*
X119411806Y-82136469D01*
X119433678Y-82143908D01*
X119455409Y-82152041D01*
X119477004Y-82160829D01*
X119498470Y-82170237D01*
X119519813Y-82180227D01*
X119532415Y-82186559D01*
X119544716Y-82193257D01*
X119556706Y-82200324D01*
X119568376Y-82207768D01*
X119579716Y-82215594D01*
X119590715Y-82223806D01*
X119601365Y-82232410D01*
X119611656Y-82241412D01*
X119621578Y-82250817D01*
X119631121Y-82260630D01*
X119640276Y-82270858D01*
X119649032Y-82281504D01*
X119657381Y-82292576D01*
X119665313Y-82304078D01*
X119672818Y-82316015D01*
X119679885Y-82328394D01*
X119685649Y-82339449D01*
X119690935Y-82350485D01*
X119695745Y-82361496D01*
X119700082Y-82372479D01*
X119703946Y-82383427D01*
X119707340Y-82394335D01*
X119710265Y-82405199D01*
X119712723Y-82416012D01*
X119714715Y-82426771D01*
X119716243Y-82437469D01*
X119717310Y-82448102D01*
X119717916Y-82458665D01*
X119718063Y-82469152D01*
X119717753Y-82479558D01*
X119716988Y-82489879D01*
X119715770Y-82500108D01*
X119714099Y-82510242D01*
X119711978Y-82520274D01*
X119709409Y-82530200D01*
X119706393Y-82540014D01*
X119702932Y-82549712D01*
X119699027Y-82559287D01*
X119694681Y-82568736D01*
X119689894Y-82578053D01*
X119684669Y-82587233D01*
X119679008Y-82596270D01*
X119672911Y-82605160D01*
X119666382Y-82613897D01*
X119659420Y-82622476D01*
X119652029Y-82630893D01*
X119644210Y-82639141D01*
X119635964Y-82647217D01*
X119635964Y-82646952D01*
X119623479Y-82658974D01*
X119611189Y-82671194D01*
X119586984Y-82696032D01*
X119562927Y-82721068D01*
X119550823Y-82733537D01*
X119538598Y-82745906D01*
X119511623Y-82772509D01*
X119484127Y-82799385D01*
X119426679Y-82855444D01*
X119438153Y-82823910D01*
X119447577Y-82792706D01*
X119454961Y-82761826D01*
X119460314Y-82731267D01*
X119463646Y-82701022D01*
X119464965Y-82671087D01*
X119464282Y-82641457D01*
X119461604Y-82612126D01*
X119456943Y-82583090D01*
X119450306Y-82554343D01*
X119441703Y-82525881D01*
X119431144Y-82497698D01*
X119418638Y-82469789D01*
X119404194Y-82442150D01*
X119387821Y-82414776D01*
X119369529Y-82387660D01*
X119349339Y-82361226D01*
X119328084Y-82337032D01*
X119305804Y-82314994D01*
X119282539Y-82295027D01*
X119258329Y-82277046D01*
X119233212Y-82260966D01*
X119207229Y-82246702D01*
X119180419Y-82234169D01*
X119152821Y-82223282D01*
X119124475Y-82213958D01*
X119095420Y-82206109D01*
X119065697Y-82199653D01*
X119035344Y-82194504D01*
X119004401Y-82190576D01*
X118972908Y-82187786D01*
X118940904Y-82186048D01*
X118967432Y-82173367D01*
X118994077Y-82161247D01*
X119020909Y-82149878D01*
X119047994Y-82139448D01*
X119061654Y-82134644D01*
X119075403Y-82130147D01*
X119089249Y-82125979D01*
X119103201Y-82122163D01*
X119117269Y-82118725D01*
X119131459Y-82115687D01*
X119145781Y-82113073D01*
X119160244Y-82110906D01*
X119184051Y-82108292D01*
X119207653Y-82106777D01*
X119231056Y-82106322D01*
X119254266Y-82106892D01*
G37*
G36*
X114517600Y-88356395D02*
G01*
X115003904Y-88356395D01*
X115097831Y-87762935D01*
X115408717Y-87762935D01*
X115173502Y-89252275D01*
X114862617Y-89252275D01*
X114956544Y-88656697D01*
X114470240Y-88656697D01*
X114376313Y-89252275D01*
X114065427Y-89252275D01*
X114300642Y-87762935D01*
X114611527Y-87762935D01*
X114517600Y-88356395D01*
G37*
G36*
X119794649Y-78718551D02*
G01*
X119906441Y-78732347D01*
X120018455Y-78751554D01*
X120129242Y-78774825D01*
X120237355Y-78800811D01*
X120614130Y-78904950D01*
X120473404Y-79193147D01*
X120404170Y-79333277D01*
X120333672Y-79471423D01*
X120316441Y-79506980D01*
X120301951Y-79542304D01*
X120290195Y-79577378D01*
X120281168Y-79612185D01*
X120274864Y-79646708D01*
X120271275Y-79680931D01*
X120270397Y-79714836D01*
X120272222Y-79748408D01*
X120276745Y-79781630D01*
X120283959Y-79814484D01*
X120293858Y-79846955D01*
X120306436Y-79879026D01*
X120321687Y-79910679D01*
X120339604Y-79941899D01*
X120360181Y-79972668D01*
X120383413Y-80002970D01*
X120401661Y-80023901D01*
X120420257Y-80045006D01*
X120458290Y-80087637D01*
X120439637Y-80088001D01*
X120430311Y-80088121D01*
X120420984Y-80088166D01*
X120420406Y-80088185D01*
X120419814Y-80088242D01*
X120419210Y-80088335D01*
X120418595Y-80088462D01*
X120417970Y-80088622D01*
X120417338Y-80088815D01*
X120416699Y-80089038D01*
X120416056Y-80089291D01*
X120414762Y-80089878D01*
X120413468Y-80090566D01*
X120412187Y-80091344D01*
X120410930Y-80092201D01*
X120409711Y-80093126D01*
X120408541Y-80094109D01*
X120407433Y-80095138D01*
X120406399Y-80096203D01*
X120405452Y-80097293D01*
X120404605Y-80098396D01*
X120403869Y-80099503D01*
X120403547Y-80100054D01*
X120403257Y-80100602D01*
X120161692Y-80586641D01*
X120018553Y-80876889D01*
X119860596Y-81197300D01*
X119813567Y-81293740D01*
X119766140Y-81391768D01*
X119753444Y-81380999D01*
X119741169Y-81370701D01*
X119735198Y-81365628D01*
X119729342Y-81360552D01*
X119723603Y-81355432D01*
X119717986Y-81350229D01*
X119689659Y-81323308D01*
X119661431Y-81296188D01*
X119605273Y-81241750D01*
X119511115Y-81151097D01*
X119487691Y-81128333D01*
X119464444Y-81105386D01*
X119441440Y-81082185D01*
X119418742Y-81058658D01*
X119401434Y-81041094D01*
X119383667Y-81024184D01*
X119365476Y-81007875D01*
X119346899Y-80992115D01*
X119327971Y-80976852D01*
X119308730Y-80962032D01*
X119269451Y-80933510D01*
X119229353Y-80906130D01*
X119188728Y-80879469D01*
X119107063Y-80826619D01*
X119104606Y-80825014D01*
X119102103Y-80823466D01*
X119097000Y-80820496D01*
X119086690Y-80814746D01*
X119081643Y-80811785D01*
X119079182Y-80810244D01*
X119076776Y-80808648D01*
X119074436Y-80806985D01*
X119072170Y-80805244D01*
X119069989Y-80803414D01*
X119067904Y-80801483D01*
X119065843Y-80799568D01*
X119063777Y-80797789D01*
X119061705Y-80796143D01*
X119059627Y-80794627D01*
X119057543Y-80793238D01*
X119055452Y-80791972D01*
X119053354Y-80790825D01*
X119051248Y-80789796D01*
X119049134Y-80788880D01*
X119047011Y-80788075D01*
X119044880Y-80787376D01*
X119042738Y-80786782D01*
X119040587Y-80786288D01*
X119038426Y-80785891D01*
X119034071Y-80785377D01*
X119029669Y-80785213D01*
X119025217Y-80785373D01*
X119020712Y-80785832D01*
X119016149Y-80786563D01*
X119011527Y-80787541D01*
X119006840Y-80788739D01*
X119002086Y-80790132D01*
X118997261Y-80791694D01*
X118982740Y-80796340D01*
X118968161Y-80800785D01*
X118938887Y-80809255D01*
X118880315Y-80825825D01*
X118879526Y-80826088D01*
X118878744Y-80826382D01*
X118877960Y-80826707D01*
X118877169Y-80827061D01*
X118875539Y-80827857D01*
X118873800Y-80828768D01*
X118869785Y-80830922D01*
X118867405Y-80832159D01*
X118864705Y-80833498D01*
X119389638Y-81610579D01*
X119385404Y-81615342D01*
X119303913Y-81555017D01*
X118805173Y-81183542D01*
X118377342Y-80865777D01*
X117881248Y-80498271D01*
X117503423Y-80217283D01*
X117035904Y-79870944D01*
X117036434Y-79870943D01*
X117020923Y-79859302D01*
X117013105Y-79853456D01*
X117005213Y-79847660D01*
X117040667Y-79813496D01*
X117076121Y-79779133D01*
X117107239Y-79750782D01*
X117138045Y-79725576D01*
X117168633Y-79703538D01*
X117199095Y-79684693D01*
X117214307Y-79676476D01*
X117229522Y-79669067D01*
X117244752Y-79662469D01*
X117260008Y-79656685D01*
X117275301Y-79651717D01*
X117290644Y-79647570D01*
X117306047Y-79644246D01*
X117321522Y-79641748D01*
X117337081Y-79640080D01*
X117352736Y-79639244D01*
X117368497Y-79639244D01*
X117384376Y-79640082D01*
X117400386Y-79641762D01*
X117416536Y-79644287D01*
X117432840Y-79647661D01*
X117449308Y-79651885D01*
X117465952Y-79656963D01*
X117482783Y-79662899D01*
X117499814Y-79669695D01*
X117517055Y-79677355D01*
X117552214Y-79695278D01*
X117588355Y-79716691D01*
X117633344Y-79746502D01*
X117675424Y-79776190D01*
X117751621Y-79834511D01*
X117818481Y-79890288D01*
X117877540Y-79942149D01*
X117930335Y-79988728D01*
X117978401Y-80028654D01*
X118001140Y-80045694D01*
X118023274Y-80060558D01*
X118044993Y-80073075D01*
X118066490Y-80083073D01*
X118087957Y-80090381D01*
X118109585Y-80094829D01*
X118131567Y-80096244D01*
X118154095Y-80094456D01*
X118177361Y-80089294D01*
X118201557Y-80080587D01*
X118226874Y-80068163D01*
X118253505Y-80051852D01*
X118281641Y-80031482D01*
X118311476Y-80006883D01*
X118343200Y-79977882D01*
X118377006Y-79944309D01*
X118413085Y-79905994D01*
X118451631Y-79862764D01*
X118536886Y-79760877D01*
X118677301Y-79564746D01*
X118814864Y-79366581D01*
X118949698Y-79166532D01*
X119081928Y-78964745D01*
X119109325Y-78923626D01*
X119139853Y-78886724D01*
X119173331Y-78853871D01*
X119209578Y-78824898D01*
X119248412Y-78799636D01*
X119289653Y-78777919D01*
X119333121Y-78759575D01*
X119378633Y-78744439D01*
X119426010Y-78732339D01*
X119475070Y-78723110D01*
X119525632Y-78716581D01*
X119577516Y-78712584D01*
X119684525Y-78711514D01*
X119794649Y-78718551D01*
G37*
D11*
X117446000Y-123850000D02*
X117446000Y-125622000D01*
X102486000Y-81149000D02*
X102486000Y-82921000D01*
D13*
X93206000Y-64125000D02*
X112510000Y-64125000D01*
X112510000Y-93589000D01*
X93206000Y-93589000D01*
X93206000Y-64125000D01*
D11*
X65266000Y-82537000D02*
X65266000Y-75177000D01*
X102350000Y-75561000D02*
X102350000Y-77333000D01*
X80546000Y-76949000D02*
X80546000Y-75177000D01*
D13*
X56050000Y-64125000D02*
X92626000Y-64125000D01*
X92626000Y-93589000D01*
X56050000Y-93589000D01*
X56050000Y-64125000D01*
D11*
X92182000Y-124736000D02*
X92182000Y-122964000D01*
X80682000Y-82537000D02*
X80682000Y-80765000D01*
D13*
X107794000Y-107086000D02*
X136750000Y-107086000D01*
X136750000Y-136550000D01*
X107794000Y-136550000D01*
X107794000Y-107086000D01*
D11*
X50254000Y-117884000D02*
X50254000Y-119656000D01*
X97770000Y-124736000D02*
X97770000Y-122964000D01*
X128114000Y-118014000D02*
X128114000Y-119786000D01*
X71218000Y-119656000D02*
X71218000Y-117884000D01*
X83046000Y-82537000D02*
X83046000Y-75177000D01*
D12*
G36*
X116542652Y-87763330D02*
G01*
X116556280Y-87763902D01*
X116569783Y-87764796D01*
X116583116Y-87766066D01*
X116596232Y-87767764D01*
X116609086Y-87769944D01*
X116621633Y-87772660D01*
X116633826Y-87775964D01*
X116645620Y-87779912D01*
X116656969Y-87784555D01*
X116667828Y-87789948D01*
X116678150Y-87796145D01*
X116687889Y-87803197D01*
X116697001Y-87811160D01*
X116701308Y-87815499D01*
X116705440Y-87820086D01*
X116705440Y-87820085D01*
X116711638Y-87827949D01*
X116717238Y-87836275D01*
X116722243Y-87845086D01*
X116726656Y-87854403D01*
X116730479Y-87864248D01*
X116733717Y-87874645D01*
X116736371Y-87885614D01*
X116738446Y-87897178D01*
X116739944Y-87909360D01*
X116740869Y-87922180D01*
X116741223Y-87935662D01*
X116741009Y-87949826D01*
X116740232Y-87964697D01*
X116738893Y-87980294D01*
X116736996Y-87996642D01*
X116734544Y-88013761D01*
X116575794Y-89012828D01*
X116572652Y-89031112D01*
X116569132Y-89048477D01*
X116565233Y-89064943D01*
X116560958Y-89080534D01*
X116556306Y-89095271D01*
X116551280Y-89109177D01*
X116545878Y-89122275D01*
X116540104Y-89134585D01*
X116533957Y-89146132D01*
X116527438Y-89156936D01*
X116520549Y-89167021D01*
X116513291Y-89176408D01*
X116505663Y-89185120D01*
X116497668Y-89193179D01*
X116489305Y-89200608D01*
X116480577Y-89207428D01*
X116471483Y-89213663D01*
X116462026Y-89219333D01*
X116452205Y-89224462D01*
X116442022Y-89229072D01*
X116431477Y-89233186D01*
X116420572Y-89236824D01*
X116409307Y-89240010D01*
X116397684Y-89242767D01*
X116373365Y-89247078D01*
X116347622Y-89249937D01*
X116320464Y-89251522D01*
X116291896Y-89252011D01*
X115688646Y-89252011D01*
X115660989Y-89251616D01*
X115647250Y-89251041D01*
X115633633Y-89250142D01*
X115620185Y-89248865D01*
X115606953Y-89247155D01*
X115593984Y-89244959D01*
X115581324Y-89242221D01*
X115569021Y-89238888D01*
X115557122Y-89234906D01*
X115545672Y-89230219D01*
X115534720Y-89224775D01*
X115524313Y-89218518D01*
X115514496Y-89211395D01*
X115505317Y-89203351D01*
X115500982Y-89198967D01*
X115496823Y-89194332D01*
X115490665Y-89186541D01*
X115485089Y-89178241D01*
X115480093Y-89169418D01*
X115475677Y-89160060D01*
X115471839Y-89150153D01*
X115468578Y-89139684D01*
X115465893Y-89128640D01*
X115463783Y-89117008D01*
X115462247Y-89104774D01*
X115461283Y-89091925D01*
X115460890Y-89078448D01*
X115461067Y-89064331D01*
X115461813Y-89049559D01*
X115463127Y-89034120D01*
X115465008Y-89018000D01*
X115467454Y-89001187D01*
X115475358Y-88951445D01*
X115786542Y-88951445D01*
X116246652Y-88951445D01*
X116252994Y-88951432D01*
X116260278Y-88951345D01*
X116263980Y-88951251D01*
X116267563Y-88951110D01*
X116270910Y-88950913D01*
X116273905Y-88950651D01*
X116274314Y-88948998D01*
X116274752Y-88947005D01*
X116275221Y-88944651D01*
X116275723Y-88941920D01*
X116276263Y-88938791D01*
X116276844Y-88935247D01*
X116277468Y-88931269D01*
X116278138Y-88926838D01*
X116413340Y-88078320D01*
X116414365Y-88069522D01*
X116414791Y-88065893D01*
X116415192Y-88062709D01*
X116399582Y-88062709D01*
X116399581Y-88063237D01*
X115956933Y-88063237D01*
X115950319Y-88063254D01*
X115942514Y-88063370D01*
X115938599Y-88063496D01*
X115934907Y-88063684D01*
X115931612Y-88063947D01*
X115930168Y-88064110D01*
X115928887Y-88064296D01*
X115928443Y-88065582D01*
X115927908Y-88067293D01*
X115927292Y-88069482D01*
X115926606Y-88072200D01*
X115926238Y-88073775D01*
X115925857Y-88075502D01*
X115925462Y-88077388D01*
X115925055Y-88079440D01*
X115924638Y-88081663D01*
X115924210Y-88084065D01*
X115923775Y-88086653D01*
X115923331Y-88089432D01*
X115788129Y-88936364D01*
X115787584Y-88940989D01*
X115787137Y-88944995D01*
X115786790Y-88948455D01*
X115786542Y-88951445D01*
X115475358Y-88951445D01*
X115626204Y-88002120D01*
X115629348Y-87983835D01*
X115632875Y-87966470D01*
X115636785Y-87950004D01*
X115641076Y-87934413D01*
X115645748Y-87919676D01*
X115650799Y-87905770D01*
X115656228Y-87892672D01*
X115662035Y-87880362D01*
X115668218Y-87868815D01*
X115674776Y-87858011D01*
X115681708Y-87847926D01*
X115689014Y-87838539D01*
X115696692Y-87829827D01*
X115704742Y-87821767D01*
X115713161Y-87814339D01*
X115721950Y-87807518D01*
X115731107Y-87801284D01*
X115740632Y-87795613D01*
X115750522Y-87790484D01*
X115760777Y-87785874D01*
X115771397Y-87781761D01*
X115782380Y-87778122D01*
X115793725Y-87774936D01*
X115805431Y-87772180D01*
X115829921Y-87767868D01*
X115855844Y-87765009D01*
X115883191Y-87763425D01*
X115911954Y-87762936D01*
X116515204Y-87762936D01*
X116542652Y-87763330D01*
G37*
G36*
X121702625Y-88063237D02*
G01*
X121336177Y-88063237D01*
X121148058Y-89252274D01*
X120837174Y-89252274D01*
X121025292Y-88063237D01*
X120659109Y-88063237D01*
X120706204Y-87762934D01*
X121749721Y-87762934D01*
X121702625Y-88063237D01*
G37*
G36*
X118174867Y-85934529D02*
G01*
X118188495Y-85935101D01*
X118201998Y-85935995D01*
X118215330Y-85937265D01*
X118228447Y-85938963D01*
X118241301Y-85941143D01*
X118253848Y-85943858D01*
X118266041Y-85947163D01*
X118277835Y-85951111D01*
X118289184Y-85955754D01*
X118300042Y-85961147D01*
X118310364Y-85967343D01*
X118320104Y-85974396D01*
X118329216Y-85982358D01*
X118333522Y-85986698D01*
X118337655Y-85991285D01*
X118343853Y-85999148D01*
X118349453Y-86007474D01*
X118354458Y-86016285D01*
X118358871Y-86025602D01*
X118362694Y-86035448D01*
X118365932Y-86045844D01*
X118368587Y-86056814D01*
X118370661Y-86068378D01*
X118372160Y-86080559D01*
X118373084Y-86093380D01*
X118373438Y-86106861D01*
X118373225Y-86121026D01*
X118372447Y-86135896D01*
X118371108Y-86151494D01*
X118369211Y-86167841D01*
X118366759Y-86184960D01*
X118208009Y-87184027D01*
X118204868Y-87202311D01*
X118201347Y-87219676D01*
X118197449Y-87236142D01*
X118193173Y-87251733D01*
X118188522Y-87266471D01*
X118183495Y-87280377D01*
X118178094Y-87293474D01*
X118172319Y-87305785D01*
X118166172Y-87317331D01*
X118159654Y-87328136D01*
X118152765Y-87338220D01*
X118145506Y-87347608D01*
X118137878Y-87356320D01*
X118129883Y-87364379D01*
X118121521Y-87371808D01*
X118112792Y-87378628D01*
X118103699Y-87384862D01*
X118094241Y-87390533D01*
X118084420Y-87395662D01*
X118074237Y-87400272D01*
X118063692Y-87404385D01*
X118052787Y-87408024D01*
X118041522Y-87411210D01*
X118029899Y-87413967D01*
X118005580Y-87418278D01*
X117979838Y-87421137D01*
X117952679Y-87422722D01*
X117924111Y-87423210D01*
X117320861Y-87423210D01*
X117293205Y-87422816D01*
X117279466Y-87422241D01*
X117265849Y-87421342D01*
X117252401Y-87420065D01*
X117239169Y-87418355D01*
X117226199Y-87416158D01*
X117213540Y-87413421D01*
X117201237Y-87410088D01*
X117189337Y-87406106D01*
X117177888Y-87401419D01*
X117166936Y-87395975D01*
X117156528Y-87389718D01*
X117146711Y-87382595D01*
X117137532Y-87374551D01*
X117133197Y-87370166D01*
X117129038Y-87365531D01*
X117122880Y-87357740D01*
X117117304Y-87349440D01*
X117112308Y-87340617D01*
X117107892Y-87331259D01*
X117104054Y-87321352D01*
X117100793Y-87310883D01*
X117098108Y-87299839D01*
X117095998Y-87288206D01*
X117094461Y-87275972D01*
X117093497Y-87263124D01*
X117093105Y-87249647D01*
X117093282Y-87235529D01*
X117094028Y-87220758D01*
X117095342Y-87205318D01*
X117097223Y-87189199D01*
X117099669Y-87172385D01*
X117107615Y-87122379D01*
X117419021Y-87122379D01*
X117436484Y-87122379D01*
X117436484Y-87122908D01*
X117879131Y-87122908D01*
X117885473Y-87122895D01*
X117892757Y-87122808D01*
X117896458Y-87122714D01*
X117900042Y-87122573D01*
X117903389Y-87122376D01*
X117906384Y-87122113D01*
X117906793Y-87120461D01*
X117907231Y-87118467D01*
X117907700Y-87116114D01*
X117908202Y-87113382D01*
X117908742Y-87110254D01*
X117909323Y-87106710D01*
X117909947Y-87102732D01*
X117910617Y-87098301D01*
X118045819Y-86249782D01*
X118046844Y-86240985D01*
X118047270Y-86237355D01*
X118047671Y-86234172D01*
X117589413Y-86234172D01*
X117582799Y-86234189D01*
X117574993Y-86234305D01*
X117571078Y-86234431D01*
X117567387Y-86234619D01*
X117564092Y-86234881D01*
X117562648Y-86235044D01*
X117561368Y-86235231D01*
X117560923Y-86236517D01*
X117560388Y-86238228D01*
X117559772Y-86240416D01*
X117559086Y-86243135D01*
X117558718Y-86244709D01*
X117558337Y-86246436D01*
X117557942Y-86248322D01*
X117557535Y-86250374D01*
X117557118Y-86252597D01*
X117556690Y-86255000D01*
X117556254Y-86257587D01*
X117555811Y-86260366D01*
X117420609Y-87107298D01*
X117420063Y-87111924D01*
X117419617Y-87115930D01*
X117419269Y-87119390D01*
X117419021Y-87122379D01*
X117107615Y-87122379D01*
X117258419Y-86173318D01*
X117261563Y-86155033D01*
X117265090Y-86137669D01*
X117269000Y-86121202D01*
X117273291Y-86105612D01*
X117277963Y-86090874D01*
X117283014Y-86076968D01*
X117288443Y-86063871D01*
X117294250Y-86051560D01*
X117300432Y-86040014D01*
X117306991Y-86029210D01*
X117313923Y-86019125D01*
X117321229Y-86009738D01*
X117328907Y-86001026D01*
X117336957Y-85992966D01*
X117345376Y-85985538D01*
X117354165Y-85978717D01*
X117363322Y-85972483D01*
X117372846Y-85966812D01*
X117382737Y-85961683D01*
X117392992Y-85957073D01*
X117403612Y-85952960D01*
X117414595Y-85949321D01*
X117425940Y-85946135D01*
X117437645Y-85943379D01*
X117462136Y-85939067D01*
X117488059Y-85936208D01*
X117515407Y-85934624D01*
X117544169Y-85934135D01*
X118147419Y-85934135D01*
X118174867Y-85934529D01*
G37*
D11*
X117310000Y-118262000D02*
X117310000Y-120034000D01*
D13*
X83410000Y-107086000D02*
X107286000Y-107086000D01*
X107286000Y-136550000D01*
X83410000Y-136550000D01*
X83410000Y-107086000D01*
D11*
X97634000Y-119148000D02*
X97634000Y-117376000D01*
X67766000Y-76949000D02*
X67766000Y-75177000D01*
D12*
G36*
X123566462Y-87730970D02*
G01*
X123580992Y-87732262D01*
X123594810Y-87734259D01*
X123607918Y-87736970D01*
X123620317Y-87740404D01*
X123632012Y-87744570D01*
X123643004Y-87749476D01*
X123653296Y-87755132D01*
X123662890Y-87761546D01*
X123671789Y-87768728D01*
X123679995Y-87776686D01*
X123687510Y-87785429D01*
X123694338Y-87794966D01*
X123700480Y-87805307D01*
X123705939Y-87816459D01*
X123710718Y-87828432D01*
X123714819Y-87841235D01*
X123718244Y-87854877D01*
X123720996Y-87869367D01*
X123723077Y-87884712D01*
X123724491Y-87900924D01*
X123725239Y-87918010D01*
X123725323Y-87935979D01*
X123724747Y-87954840D01*
X123723512Y-87974602D01*
X123715358Y-88059255D01*
X123704079Y-88142736D01*
X123689659Y-88225013D01*
X123672080Y-88306055D01*
X123651324Y-88385830D01*
X123627374Y-88464307D01*
X123600213Y-88541455D01*
X123569822Y-88617242D01*
X123536186Y-88691637D01*
X123499286Y-88764608D01*
X123459104Y-88836124D01*
X123415624Y-88906154D01*
X123368828Y-88974666D01*
X123318698Y-89041630D01*
X123265218Y-89107012D01*
X123208369Y-89170783D01*
X123194976Y-89184799D01*
X123181728Y-89197879D01*
X123168616Y-89210024D01*
X123155631Y-89221238D01*
X123142761Y-89231522D01*
X123129999Y-89240880D01*
X123117333Y-89249314D01*
X123104756Y-89256826D01*
X123092256Y-89263419D01*
X123079824Y-89269096D01*
X123067451Y-89273859D01*
X123055127Y-89277711D01*
X123042843Y-89280654D01*
X123030588Y-89282691D01*
X123018353Y-89283825D01*
X123006128Y-89284057D01*
X122993905Y-89283392D01*
X122981672Y-89281830D01*
X122969421Y-89279375D01*
X122957142Y-89276029D01*
X122944825Y-89271796D01*
X122932460Y-89266676D01*
X122920039Y-89260674D01*
X122907550Y-89253792D01*
X122894986Y-89246031D01*
X122882335Y-89237395D01*
X122869589Y-89227887D01*
X122856737Y-89217508D01*
X122843771Y-89206262D01*
X122830680Y-89194151D01*
X122804086Y-89167343D01*
X122737396Y-89094163D01*
X122672082Y-89017829D01*
X122608315Y-88938990D01*
X122546270Y-88858294D01*
X122486117Y-88776388D01*
X122428029Y-88693921D01*
X122318740Y-88529896D01*
X122219783Y-88371402D01*
X122132536Y-88223624D01*
X122058380Y-88091746D01*
X121998694Y-87980951D01*
X121995523Y-87974390D01*
X121992851Y-87967766D01*
X121990665Y-87961098D01*
X121988955Y-87954401D01*
X121987712Y-87947696D01*
X121986923Y-87940998D01*
X121986579Y-87934327D01*
X121986668Y-87927700D01*
X121987180Y-87921134D01*
X121988104Y-87914648D01*
X121989429Y-87908258D01*
X121991145Y-87901984D01*
X121993242Y-87895843D01*
X121995707Y-87889852D01*
X121998531Y-87884029D01*
X122001703Y-87878392D01*
X122005213Y-87872960D01*
X122009048Y-87867748D01*
X122013200Y-87862777D01*
X122017656Y-87858062D01*
X122022407Y-87853623D01*
X122027442Y-87849476D01*
X122032749Y-87845640D01*
X122038319Y-87842132D01*
X122044141Y-87838970D01*
X122050203Y-87836172D01*
X122056495Y-87833756D01*
X122063007Y-87831739D01*
X122069727Y-87830140D01*
X122076645Y-87828975D01*
X122083751Y-87828264D01*
X122091033Y-87828022D01*
X122381616Y-87825604D01*
X122557084Y-87821441D01*
X122742272Y-87814430D01*
X122929382Y-87803908D01*
X123110617Y-87789216D01*
X123278179Y-87769693D01*
X123354395Y-87757913D01*
X123424268Y-87744679D01*
X123424269Y-87744944D01*
X123464177Y-87737523D01*
X123501165Y-87732674D01*
X123518571Y-87731235D01*
X123535254Y-87730465D01*
X123551216Y-87730374D01*
X123566462Y-87730970D01*
G37*
G36*
X122275764Y-78636648D02*
G01*
X122320298Y-78655647D01*
X122369354Y-78686523D01*
X122423129Y-78729970D01*
X122481822Y-78786682D01*
X122790195Y-79251171D01*
X123084481Y-79724964D01*
X123368554Y-80205511D01*
X123646287Y-80690259D01*
X124198220Y-81662153D01*
X124480166Y-82144194D01*
X124771262Y-82620229D01*
X124770734Y-82619173D01*
X124839744Y-82740170D01*
X124901000Y-82861677D01*
X124954616Y-82983714D01*
X125000706Y-83106299D01*
X125039387Y-83229454D01*
X125070771Y-83353197D01*
X125094975Y-83477549D01*
X125112112Y-83602529D01*
X125122298Y-83728158D01*
X125125647Y-83854454D01*
X125122275Y-83981437D01*
X125112294Y-84109128D01*
X125095821Y-84237546D01*
X125072970Y-84366711D01*
X125043856Y-84496642D01*
X125008594Y-84627360D01*
X124954591Y-84800202D01*
X124895252Y-84967743D01*
X124830688Y-85130357D01*
X124761014Y-85288417D01*
X124686344Y-85442295D01*
X124606791Y-85592366D01*
X124522468Y-85739001D01*
X124433489Y-85882576D01*
X124339968Y-86023462D01*
X124242018Y-86162033D01*
X124139753Y-86298663D01*
X124033286Y-86433724D01*
X123922731Y-86567589D01*
X123808202Y-86700633D01*
X123689811Y-86833228D01*
X123567674Y-86965747D01*
X123482225Y-87048798D01*
X123389269Y-87123663D01*
X123289515Y-87190258D01*
X123183673Y-87248496D01*
X123072450Y-87298291D01*
X122956558Y-87339557D01*
X122836704Y-87372208D01*
X122713599Y-87396158D01*
X122587951Y-87411321D01*
X122460470Y-87417611D01*
X122331865Y-87414942D01*
X122202846Y-87403227D01*
X122074120Y-87382382D01*
X121946399Y-87352319D01*
X121820391Y-87312953D01*
X121696805Y-87264197D01*
X121660425Y-87247886D01*
X121624150Y-87230810D01*
X121588031Y-87212975D01*
X121552124Y-87194393D01*
X121516481Y-87175071D01*
X121481158Y-87155018D01*
X121446208Y-87134244D01*
X121411684Y-87112756D01*
X121377641Y-87090565D01*
X121344132Y-87067680D01*
X121311212Y-87044108D01*
X121278934Y-87019859D01*
X121247352Y-86994942D01*
X121216519Y-86969365D01*
X121186491Y-86943138D01*
X121157321Y-86916270D01*
X121005263Y-86772136D01*
X120856006Y-86632947D01*
X120563099Y-86361803D01*
X120418056Y-86226047D01*
X120273021Y-86087633D01*
X120127298Y-85944661D01*
X119980189Y-85795231D01*
X119891679Y-85703692D01*
X119800249Y-85621834D01*
X119706082Y-85549328D01*
X119609362Y-85485843D01*
X119510270Y-85431050D01*
X119408991Y-85384618D01*
X119305706Y-85346217D01*
X119200599Y-85315517D01*
X119093851Y-85292187D01*
X118985647Y-85275899D01*
X118876168Y-85266321D01*
X118765598Y-85263124D01*
X118654120Y-85265977D01*
X118541915Y-85274550D01*
X118429167Y-85288514D01*
X118316059Y-85307538D01*
X118089494Y-85359445D01*
X117863680Y-85427631D01*
X117640082Y-85509454D01*
X117420160Y-85602275D01*
X117205377Y-85703452D01*
X116997196Y-85810344D01*
X116797078Y-85920311D01*
X116606487Y-86030710D01*
X116076428Y-86355188D01*
X115941099Y-86431355D01*
X115872397Y-86467149D01*
X115802853Y-86501044D01*
X115732355Y-86532757D01*
X115660793Y-86562008D01*
X115588052Y-86588516D01*
X115514023Y-86611999D01*
X115471438Y-86622736D01*
X115451067Y-86627103D01*
X115431285Y-86630789D01*
X115412071Y-86633785D01*
X115393405Y-86636081D01*
X115375267Y-86637670D01*
X115357638Y-86638540D01*
X115340496Y-86638684D01*
X115323824Y-86638091D01*
X115307600Y-86636752D01*
X115291804Y-86634658D01*
X115276417Y-86631800D01*
X115261418Y-86628169D01*
X115246788Y-86623754D01*
X115232506Y-86618548D01*
X115218553Y-86612539D01*
X115204909Y-86605720D01*
X115191554Y-86598081D01*
X115178467Y-86589613D01*
X115165629Y-86580306D01*
X115153020Y-86570151D01*
X115140620Y-86559138D01*
X115128409Y-86547259D01*
X115116367Y-86534504D01*
X115104474Y-86520864D01*
X115092710Y-86506329D01*
X115081055Y-86490890D01*
X115069489Y-86474538D01*
X115057993Y-86457264D01*
X115046545Y-86439058D01*
X115035127Y-86419912D01*
X114992427Y-86345535D01*
X114950502Y-86270637D01*
X114909432Y-86195218D01*
X114869299Y-86119279D01*
X114830183Y-86042818D01*
X114792165Y-85965837D01*
X114755325Y-85888335D01*
X114719744Y-85810311D01*
X114589618Y-85511662D01*
X114464950Y-85211026D01*
X114345739Y-84908399D01*
X114231984Y-84603778D01*
X114123687Y-84297161D01*
X114020847Y-83988543D01*
X113923464Y-83677923D01*
X113831537Y-83365296D01*
X113815428Y-83301706D01*
X113809053Y-83270539D01*
X113803793Y-83239780D01*
X113799644Y-83209423D01*
X113796603Y-83179460D01*
X113794666Y-83149883D01*
X113793830Y-83120685D01*
X113794091Y-83091859D01*
X113795446Y-83063397D01*
X113797891Y-83035292D01*
X113801423Y-83007537D01*
X113806038Y-82980123D01*
X113811732Y-82953045D01*
X113818502Y-82926293D01*
X113826345Y-82899861D01*
X113835257Y-82873742D01*
X113845234Y-82847928D01*
X113856273Y-82822411D01*
X113868370Y-82797184D01*
X113881522Y-82772240D01*
X113895725Y-82747571D01*
X113910976Y-82723171D01*
X113927271Y-82699030D01*
X113962980Y-82651502D01*
X114002823Y-82604926D01*
X114046771Y-82559244D01*
X114094798Y-82514397D01*
X115395489Y-81347584D01*
X116040651Y-80758522D01*
X116360482Y-80461015D01*
X116677925Y-80160928D01*
X116748271Y-80233324D01*
X116818418Y-80305919D01*
X116851500Y-80340551D01*
X116884432Y-80375406D01*
X116917166Y-80410508D01*
X116949652Y-80445884D01*
X116952440Y-80448819D01*
X116955256Y-80451570D01*
X116958106Y-80454129D01*
X116961000Y-80456492D01*
X116963945Y-80458654D01*
X116966948Y-80460609D01*
X116970020Y-80462351D01*
X116973167Y-80463876D01*
X116976397Y-80465177D01*
X116979720Y-80466250D01*
X116983142Y-80467088D01*
X116986673Y-80467687D01*
X116990320Y-80468041D01*
X116994091Y-80468145D01*
X116997995Y-80467993D01*
X117002039Y-80467580D01*
X117006577Y-80467054D01*
X117010971Y-80466770D01*
X117015230Y-80466733D01*
X117019365Y-80466952D01*
X117023388Y-80467430D01*
X117027307Y-80468175D01*
X117031135Y-80469193D01*
X117034881Y-80470490D01*
X117038555Y-80472073D01*
X117042168Y-80473946D01*
X117045732Y-80476118D01*
X117049255Y-80478593D01*
X117052749Y-80481379D01*
X117056223Y-80484480D01*
X117059690Y-80487904D01*
X117063158Y-80491657D01*
X117090087Y-80521867D01*
X117117261Y-80551813D01*
X117172133Y-80611150D01*
X117282498Y-80729253D01*
X117374672Y-80829299D01*
X117466648Y-80929542D01*
X117655296Y-81134595D01*
X117842091Y-81337795D01*
X118082068Y-81598409D01*
X118162303Y-81686780D01*
X118242935Y-81775944D01*
X118236019Y-81787666D01*
X118232519Y-81793274D01*
X118228933Y-81798678D01*
X118225218Y-81803851D01*
X118221332Y-81808766D01*
X118217231Y-81813396D01*
X118212872Y-81817715D01*
X118208212Y-81821697D01*
X118205756Y-81823552D01*
X118203209Y-81825313D01*
X118200565Y-81826977D01*
X118197819Y-81828539D01*
X118194965Y-81829996D01*
X118191999Y-81831346D01*
X118188914Y-81832584D01*
X118185706Y-81833708D01*
X118182369Y-81834714D01*
X118178897Y-81835598D01*
X118175286Y-81836358D01*
X118171530Y-81836990D01*
X118167623Y-81837491D01*
X118163560Y-81837857D01*
X118158250Y-81838441D01*
X118152937Y-81839381D01*
X118147627Y-81840649D01*
X118142323Y-81842214D01*
X118137030Y-81844050D01*
X118131753Y-81846126D01*
X118126494Y-81848415D01*
X118121260Y-81850888D01*
X118116053Y-81853515D01*
X118110878Y-81856269D01*
X118100643Y-81862042D01*
X118080745Y-81873840D01*
X118060900Y-81886379D01*
X118042111Y-81899759D01*
X118024331Y-81913941D01*
X118007514Y-81928886D01*
X117991611Y-81944555D01*
X117976575Y-81960909D01*
X117962359Y-81977909D01*
X117948917Y-81995516D01*
X117936200Y-82013689D01*
X117924161Y-82032391D01*
X117912753Y-82051582D01*
X117901928Y-82071224D01*
X117891640Y-82091276D01*
X117881842Y-82111699D01*
X117872485Y-82132455D01*
X117863522Y-82153505D01*
X117851004Y-82185646D01*
X117839772Y-82218146D01*
X117829724Y-82250969D01*
X117820759Y-82284077D01*
X117812773Y-82317433D01*
X117805665Y-82351000D01*
X117799332Y-82384741D01*
X117793672Y-82418618D01*
X117790890Y-82437813D01*
X117788629Y-82457090D01*
X117786789Y-82476428D01*
X117785272Y-82495810D01*
X117780443Y-82573399D01*
X117778637Y-82601817D01*
X117777103Y-82630285D01*
X117776586Y-82644521D01*
X117776313Y-82658752D01*
X117776345Y-82672970D01*
X117776739Y-82687170D01*
X117778912Y-82729303D01*
X117781874Y-82771324D01*
X117785939Y-82813171D01*
X117791423Y-82854783D01*
X117794797Y-82875482D01*
X117798645Y-82896098D01*
X117803005Y-82916624D01*
X117807919Y-82937052D01*
X117813424Y-82957375D01*
X117819561Y-82977585D01*
X117826370Y-82997674D01*
X117833889Y-83017635D01*
X117835957Y-83022466D01*
X117838180Y-83027263D01*
X117840540Y-83032066D01*
X117843017Y-83036916D01*
X117848251Y-83046916D01*
X117850970Y-83052147D01*
X117853733Y-83057586D01*
X117796947Y-83097604D01*
X117739168Y-83138020D01*
X117511296Y-83296869D01*
X117283820Y-83456313D01*
X117126526Y-83568364D01*
X117048374Y-83625159D01*
X116970818Y-83682796D01*
X116906000Y-83732224D01*
X116841801Y-83782544D01*
X116778346Y-83833857D01*
X116746937Y-83859917D01*
X116715760Y-83886261D01*
X116639618Y-83952134D01*
X116564220Y-84018950D01*
X116414664Y-84154020D01*
X116378131Y-84187774D01*
X116360031Y-84204839D01*
X116342069Y-84222050D01*
X116324269Y-84239422D01*
X116306652Y-84256971D01*
X116289240Y-84274712D01*
X116272054Y-84292661D01*
X116216466Y-84352198D01*
X116161917Y-84412613D01*
X116108552Y-84474013D01*
X116056518Y-84536508D01*
X116005959Y-84600206D01*
X115957022Y-84665215D01*
X115909852Y-84731645D01*
X115864596Y-84799603D01*
X115828148Y-84858051D01*
X115793481Y-84917342D01*
X115760686Y-84977527D01*
X115729857Y-85038654D01*
X115701086Y-85100773D01*
X115674468Y-85163934D01*
X115650094Y-85228187D01*
X115628058Y-85293580D01*
X115625459Y-85302033D01*
X115622990Y-85310551D01*
X115618269Y-85327943D01*
X115608479Y-85365282D01*
X115652598Y-85365646D01*
X115673443Y-85365617D01*
X115683713Y-85365409D01*
X115693940Y-85365018D01*
X115717748Y-85363629D01*
X115741531Y-85361843D01*
X115765265Y-85359660D01*
X115788925Y-85357080D01*
X115900116Y-85344909D01*
X115955612Y-85338179D01*
X115983292Y-85334436D01*
X116010910Y-85330358D01*
X116068458Y-85320731D01*
X116125615Y-85309551D01*
X116182388Y-85296876D01*
X116238783Y-85282766D01*
X116294805Y-85267279D01*
X116350462Y-85250474D01*
X116405759Y-85232411D01*
X116460702Y-85213147D01*
X116534541Y-85185684D01*
X116571295Y-85171415D01*
X116607909Y-85156758D01*
X116644362Y-85141692D01*
X116680633Y-85126195D01*
X116716698Y-85110245D01*
X116752537Y-85093821D01*
X116837940Y-85053359D01*
X116880464Y-85032610D01*
X116922796Y-85011435D01*
X116964881Y-84989777D01*
X117006661Y-84967577D01*
X117048082Y-84944774D01*
X117089087Y-84921312D01*
X117138824Y-84891938D01*
X117188231Y-84861991D01*
X117237329Y-84831517D01*
X117286136Y-84800563D01*
X117382948Y-84737397D01*
X117478818Y-84672868D01*
X117526730Y-84639723D01*
X117574275Y-84606048D01*
X117668591Y-84537567D01*
X117856379Y-84399289D01*
X118186844Y-84158783D01*
X118491644Y-83935739D01*
X118624167Y-83838703D01*
X118756491Y-83741270D01*
X118758762Y-83739693D01*
X118761013Y-83738329D01*
X118763250Y-83737167D01*
X118765479Y-83736197D01*
X118767704Y-83735409D01*
X118769932Y-83734791D01*
X118772168Y-83734334D01*
X118774417Y-83734027D01*
X118776684Y-83733859D01*
X118778976Y-83733821D01*
X118781297Y-83733901D01*
X118783652Y-83734089D01*
X118786049Y-83734375D01*
X118788490Y-83734748D01*
X118790983Y-83735198D01*
X118793533Y-83735714D01*
X119096117Y-83797428D01*
X119398900Y-83857951D01*
X119415715Y-83861109D01*
X119432613Y-83863871D01*
X119449580Y-83866285D01*
X119466600Y-83868402D01*
X119483657Y-83870271D01*
X119500735Y-83871941D01*
X119534895Y-83874884D01*
X119599193Y-83879866D01*
X119663516Y-83884376D01*
X119727888Y-83888241D01*
X119792335Y-83891288D01*
X119810999Y-83891749D01*
X119829682Y-83891797D01*
X119848378Y-83891516D01*
X119867080Y-83890991D01*
X119941824Y-83888113D01*
X119994080Y-83886658D01*
X120007174Y-83886155D01*
X120020257Y-83885509D01*
X120033314Y-83884677D01*
X120046335Y-83883615D01*
X120088625Y-83879406D01*
X120130712Y-83874301D01*
X120172513Y-83867974D01*
X120193281Y-83864251D01*
X120213948Y-83860101D01*
X120234503Y-83855482D01*
X120254937Y-83850354D01*
X120275238Y-83844677D01*
X120295398Y-83838409D01*
X120315406Y-83831510D01*
X120335252Y-83823940D01*
X120354926Y-83815658D01*
X120374418Y-83806622D01*
X120376250Y-83805704D01*
X120378074Y-83804739D01*
X120379886Y-83803728D01*
X120381686Y-83802674D01*
X120383470Y-83801577D01*
X120385236Y-83800441D01*
X120386982Y-83799266D01*
X120388706Y-83798056D01*
X120390404Y-83796811D01*
X120392076Y-83795534D01*
X120393718Y-83794228D01*
X120395328Y-83792892D01*
X120396905Y-83791531D01*
X120398444Y-83790145D01*
X120399945Y-83788736D01*
X120401405Y-83787307D01*
X120427744Y-83761415D01*
X120453958Y-83735350D01*
X120480024Y-83709135D01*
X120505916Y-83682797D01*
X120507428Y-83681273D01*
X120508897Y-83679881D01*
X120510334Y-83678631D01*
X120511753Y-83677530D01*
X120513166Y-83676587D01*
X120513874Y-83676178D01*
X120514585Y-83675811D01*
X120515301Y-83675488D01*
X120516023Y-83675210D01*
X120516752Y-83674978D01*
X120517491Y-83674793D01*
X120518241Y-83674656D01*
X120519003Y-83674568D01*
X120519779Y-83674531D01*
X120520571Y-83674544D01*
X120521380Y-83674610D01*
X120522207Y-83674729D01*
X120523055Y-83674903D01*
X120523924Y-83675132D01*
X120524816Y-83675418D01*
X120525733Y-83675762D01*
X120526677Y-83676164D01*
X120527649Y-83676626D01*
X120528649Y-83677149D01*
X120529681Y-83677733D01*
X120530746Y-83678381D01*
X120531844Y-83679093D01*
X120946182Y-83951614D01*
X121435133Y-84272288D01*
X121795760Y-84509090D01*
X122171732Y-84754888D01*
X122225641Y-84790475D01*
X122252695Y-84808094D01*
X122266290Y-84816752D01*
X122279947Y-84825267D01*
X122283178Y-84827316D01*
X122286212Y-84829401D01*
X122289033Y-84831535D01*
X122291622Y-84833730D01*
X122293963Y-84835998D01*
X122295036Y-84837163D01*
X122296039Y-84838350D01*
X122296973Y-84839562D01*
X122297833Y-84840800D01*
X122298619Y-84842065D01*
X122299328Y-84843358D01*
X122299958Y-84844682D01*
X122300507Y-84846038D01*
X122300972Y-84847427D01*
X122301352Y-84848850D01*
X122301644Y-84850310D01*
X122301847Y-84851807D01*
X122301957Y-84853344D01*
X122301974Y-84854921D01*
X122301895Y-84856541D01*
X122301717Y-84858205D01*
X122301439Y-84859913D01*
X122301058Y-84861669D01*
X122300573Y-84863473D01*
X122299981Y-84865326D01*
X122299280Y-84867231D01*
X122298468Y-84869188D01*
X122297887Y-84870581D01*
X122297384Y-84871934D01*
X122296957Y-84873248D01*
X122296605Y-84874523D01*
X122296327Y-84875763D01*
X122296120Y-84876967D01*
X122295984Y-84878137D01*
X122295917Y-84879275D01*
X122295918Y-84880383D01*
X122295986Y-84881460D01*
X122296118Y-84882509D01*
X122296315Y-84883531D01*
X122296573Y-84884528D01*
X122296892Y-84885501D01*
X122297271Y-84886450D01*
X122297707Y-84887378D01*
X122298200Y-84888286D01*
X122298749Y-84889175D01*
X122299351Y-84890047D01*
X122300005Y-84890903D01*
X122300711Y-84891743D01*
X122301466Y-84892571D01*
X122302269Y-84893386D01*
X122303119Y-84894191D01*
X122304953Y-84895774D01*
X122306958Y-84897331D01*
X122309122Y-84898872D01*
X122311433Y-84900409D01*
X122845097Y-85250453D01*
X123185087Y-85474025D01*
X123219235Y-85496974D01*
X123253284Y-85520096D01*
X123270395Y-85531497D01*
X123287630Y-85542672D01*
X123305039Y-85553531D01*
X123322671Y-85563983D01*
X123324864Y-85565283D01*
X123326932Y-85566604D01*
X123328878Y-85567945D01*
X123330705Y-85569307D01*
X123332416Y-85570691D01*
X123334015Y-85572096D01*
X123335504Y-85573523D01*
X123336888Y-85574972D01*
X123338169Y-85576444D01*
X123339350Y-85577938D01*
X123340435Y-85579456D01*
X123341428Y-85580997D01*
X123342330Y-85582561D01*
X123343146Y-85584150D01*
X123343879Y-85585762D01*
X123344532Y-85587400D01*
X123345610Y-85590749D01*
X123346408Y-85594199D01*
X123346951Y-85597754D01*
X123347264Y-85601414D01*
X123347375Y-85605183D01*
X123347308Y-85609063D01*
X123347091Y-85613056D01*
X123346748Y-85617165D01*
X123345777Y-85626789D01*
X123344689Y-85636413D01*
X123342382Y-85655662D01*
X123341275Y-85665286D01*
X123340274Y-85674911D01*
X123339434Y-85684535D01*
X123338811Y-85694159D01*
X123336930Y-85727183D01*
X123335272Y-85760305D01*
X123334720Y-85776872D01*
X123334457Y-85793427D01*
X123334560Y-85809958D01*
X123335106Y-85826451D01*
X123335381Y-85831274D01*
X123335805Y-85836117D01*
X123336371Y-85840974D01*
X123337074Y-85845840D01*
X123337907Y-85850708D01*
X123338864Y-85855575D01*
X123339939Y-85860433D01*
X123341125Y-85865278D01*
X123342417Y-85870105D01*
X123343808Y-85874908D01*
X123346863Y-85884420D01*
X123350241Y-85893770D01*
X123353891Y-85902916D01*
X123355130Y-85905729D01*
X123356415Y-85908366D01*
X123357743Y-85910826D01*
X123359112Y-85913109D01*
X123360520Y-85915215D01*
X123361963Y-85917144D01*
X123363441Y-85918895D01*
X123364950Y-85920469D01*
X123366488Y-85921866D01*
X123368053Y-85923085D01*
X123369642Y-85924126D01*
X123371253Y-85924989D01*
X123372884Y-85925674D01*
X123374531Y-85926182D01*
X123376194Y-85926511D01*
X123377869Y-85926662D01*
X123379554Y-85926635D01*
X123381247Y-85926430D01*
X123382945Y-85926046D01*
X123384647Y-85925483D01*
X123386348Y-85924742D01*
X123388048Y-85923822D01*
X123389744Y-85922723D01*
X123391433Y-85921445D01*
X123393114Y-85919988D01*
X123394783Y-85918352D01*
X123396438Y-85916537D01*
X123398077Y-85914542D01*
X123399698Y-85912368D01*
X123401298Y-85910014D01*
X123402875Y-85907481D01*
X123404427Y-85904768D01*
X123406808Y-85900316D01*
X123409093Y-85895796D01*
X123411282Y-85891212D01*
X123413378Y-85886569D01*
X123417296Y-85877132D01*
X123420865Y-85867527D01*
X123424098Y-85857799D01*
X123427012Y-85847990D01*
X123429622Y-85838143D01*
X123431944Y-85828303D01*
X123434023Y-85817826D01*
X123435731Y-85807244D01*
X123437116Y-85796575D01*
X123438228Y-85785838D01*
X123439117Y-85775051D01*
X123439832Y-85764233D01*
X123440939Y-85742578D01*
X123449671Y-85533293D01*
X123455326Y-85415421D01*
X123461577Y-85297549D01*
X123464331Y-85253140D01*
X123467332Y-85208781D01*
X123473483Y-85120013D01*
X123473530Y-85118358D01*
X123473473Y-85116720D01*
X123473315Y-85115099D01*
X123473057Y-85113497D01*
X123472700Y-85111917D01*
X123472247Y-85110361D01*
X123471700Y-85108830D01*
X123471061Y-85107326D01*
X123470330Y-85105851D01*
X123469511Y-85104407D01*
X123468605Y-85102995D01*
X123467614Y-85101619D01*
X123466539Y-85100279D01*
X123465383Y-85098978D01*
X123464147Y-85097717D01*
X123462834Y-85096498D01*
X123459981Y-85094196D01*
X123456838Y-85092085D01*
X123453422Y-85090181D01*
X123449745Y-85088499D01*
X123445824Y-85087054D01*
X123441673Y-85085862D01*
X123437306Y-85084937D01*
X123432738Y-85084294D01*
X123429894Y-85083948D01*
X123426958Y-85083555D01*
X123423985Y-85083192D01*
X123422501Y-85083047D01*
X123421030Y-85082938D01*
X123419577Y-85082876D01*
X123418149Y-85082871D01*
X123416754Y-85082931D01*
X123415399Y-85083066D01*
X123414090Y-85083287D01*
X123412835Y-85083603D01*
X123412229Y-85083800D01*
X123411640Y-85084024D01*
X123411068Y-85084276D01*
X123410513Y-85084558D01*
X123408236Y-85085686D01*
X123406020Y-85086641D01*
X123403862Y-85087431D01*
X123401759Y-85088062D01*
X123399711Y-85088540D01*
X123397714Y-85088872D01*
X123395767Y-85089064D01*
X123393868Y-85089123D01*
X123392015Y-85089054D01*
X123390205Y-85088864D01*
X123388437Y-85088561D01*
X123386709Y-85088149D01*
X123385018Y-85087636D01*
X123383363Y-85087027D01*
X123381741Y-85086330D01*
X123380151Y-85085551D01*
X123378590Y-85084695D01*
X123377057Y-85083770D01*
X123374065Y-85081737D01*
X123371158Y-85079502D01*
X123368319Y-85077117D01*
X123357331Y-85067096D01*
X123204402Y-84927132D01*
X123013902Y-84756476D01*
X122873673Y-84628946D01*
X122665446Y-84441092D01*
X122523894Y-84311975D01*
X122321752Y-84129942D01*
X122223062Y-84039719D01*
X122018010Y-83854775D01*
X121970253Y-83811019D01*
X121946424Y-83789179D01*
X121922495Y-83767462D01*
X121715856Y-83581196D01*
X121580390Y-83458429D01*
X121370310Y-83268987D01*
X121301816Y-83206910D01*
X121233521Y-83144633D01*
X120982960Y-82917091D01*
X120982919Y-82917032D01*
X120982896Y-82916954D01*
X120982888Y-82916857D01*
X120982894Y-82916740D01*
X120982912Y-82916603D01*
X120982941Y-82916445D01*
X120983026Y-82916066D01*
X120983135Y-82915600D01*
X120983257Y-82915045D01*
X120983379Y-82914396D01*
X120983436Y-82914036D01*
X120983489Y-82913652D01*
X122056374Y-83465573D01*
X122069603Y-83435939D01*
X122092754Y-83381898D01*
X122104131Y-83354754D01*
X122115112Y-83327460D01*
X122115521Y-83326161D01*
X122115855Y-83324755D01*
X122116113Y-83323261D01*
X122116294Y-83321697D01*
X122116398Y-83320080D01*
X122116424Y-83318428D01*
X122116370Y-83316759D01*
X122116236Y-83315091D01*
X122116022Y-83313441D01*
X122115727Y-83311828D01*
X122115349Y-83310269D01*
X122114889Y-83308782D01*
X122114344Y-83307385D01*
X122113715Y-83306096D01*
X122113369Y-83305498D01*
X122113001Y-83304933D01*
X122112612Y-83304403D01*
X122112201Y-83303912D01*
X121946308Y-83112089D01*
X121937278Y-83101986D01*
X121927875Y-83092382D01*
X121918133Y-83083231D01*
X121908088Y-83074485D01*
X121897774Y-83066100D01*
X121887228Y-83058028D01*
X121876483Y-83050222D01*
X121865577Y-83042636D01*
X121843417Y-83027939D01*
X121821032Y-83013565D01*
X121798702Y-82999141D01*
X121776710Y-82984296D01*
X121514640Y-82802825D01*
X121251776Y-82622346D01*
X121004391Y-82452219D01*
X121007298Y-82449852D01*
X121010084Y-82447523D01*
X121015404Y-82443025D01*
X121017995Y-82440881D01*
X121020576Y-82438824D01*
X121023176Y-82436867D01*
X121024492Y-82435929D01*
X121025823Y-82435021D01*
X121425343Y-82164617D01*
X121848412Y-81877544D01*
X122054125Y-81737249D01*
X122157155Y-81667399D01*
X122260632Y-81598144D01*
X122264087Y-81595767D01*
X122267410Y-81593304D01*
X122273690Y-81588134D01*
X122279526Y-81582672D01*
X122284974Y-81576953D01*
X122290086Y-81571013D01*
X122294918Y-81564890D01*
X122299524Y-81558620D01*
X122303957Y-81552239D01*
X122321056Y-81526335D01*
X122325443Y-81519946D01*
X122329984Y-81513665D01*
X122334732Y-81507528D01*
X122339742Y-81501571D01*
X122336038Y-81496544D01*
X120942477Y-82314371D01*
X120936913Y-82287971D01*
X120931696Y-82262314D01*
X120929016Y-82249750D01*
X120926181Y-82237352D01*
X120923110Y-82225117D01*
X120919724Y-82213036D01*
X120913228Y-82193631D01*
X120905663Y-82175399D01*
X120897050Y-82158334D01*
X120887411Y-82142429D01*
X120876767Y-82127679D01*
X120865141Y-82114079D01*
X120852553Y-82101622D01*
X120839025Y-82090302D01*
X120824580Y-82080114D01*
X120809239Y-82071052D01*
X120793023Y-82063110D01*
X120775955Y-82056283D01*
X120758056Y-82050563D01*
X120739348Y-82045947D01*
X120719852Y-82042427D01*
X120699590Y-82039998D01*
X120689490Y-82039221D01*
X120679431Y-82038669D01*
X120659414Y-82038192D01*
X120639510Y-82038477D01*
X120619686Y-82039436D01*
X120599911Y-82040978D01*
X120580156Y-82043012D01*
X120560387Y-82045450D01*
X120540576Y-82048201D01*
X120538713Y-82048382D01*
X120536804Y-82048433D01*
X120534856Y-82048362D01*
X120532878Y-82048176D01*
X120530878Y-82047881D01*
X120528864Y-82047484D01*
X120526847Y-82046993D01*
X120524833Y-82046415D01*
X120522831Y-82045755D01*
X120520850Y-82045022D01*
X120518899Y-82044223D01*
X120516986Y-82043364D01*
X120515119Y-82042452D01*
X120513308Y-82041494D01*
X120511559Y-82040497D01*
X120509883Y-82039469D01*
X120507491Y-82037820D01*
X120505169Y-82036058D01*
X120502906Y-82034201D01*
X120500693Y-82032268D01*
X120498519Y-82030275D01*
X120496373Y-82028242D01*
X120492123Y-82024123D01*
X120487862Y-82020054D01*
X120485700Y-82018083D01*
X120483504Y-82016178D01*
X120481263Y-82014356D01*
X120478966Y-82012636D01*
X120476604Y-82011035D01*
X120474165Y-82009571D01*
X120472463Y-82008619D01*
X120470877Y-82007646D01*
X120469404Y-82006653D01*
X120468040Y-82005640D01*
X120466782Y-82004606D01*
X120465626Y-82003553D01*
X120464570Y-82002479D01*
X120463610Y-82001386D01*
X120462743Y-82000272D01*
X120461965Y-81999138D01*
X120461273Y-81997984D01*
X120460663Y-81996809D01*
X120460133Y-81995615D01*
X120459679Y-81994400D01*
X120459297Y-81993165D01*
X120458984Y-81991910D01*
X120458738Y-81990635D01*
X120458554Y-81989340D01*
X120458360Y-81986689D01*
X120458376Y-81983957D01*
X120458575Y-81981145D01*
X120458931Y-81978252D01*
X120459417Y-81975279D01*
X120460671Y-81969090D01*
X120462701Y-81959419D01*
X120464419Y-81949757D01*
X120465819Y-81940105D01*
X120466893Y-81930465D01*
X120467634Y-81920839D01*
X120468034Y-81911228D01*
X120468086Y-81901636D01*
X120467782Y-81892063D01*
X120467116Y-81882512D01*
X120466079Y-81872985D01*
X120464665Y-81863483D01*
X120462867Y-81854009D01*
X120460676Y-81844564D01*
X120458085Y-81835150D01*
X120455087Y-81825770D01*
X120451676Y-81816425D01*
X120447442Y-81806303D01*
X120442788Y-81796565D01*
X120437726Y-81787198D01*
X120432270Y-81778189D01*
X120426432Y-81769526D01*
X120420226Y-81761196D01*
X120413665Y-81753186D01*
X120406762Y-81745484D01*
X120399531Y-81738076D01*
X120391984Y-81730950D01*
X120384135Y-81724093D01*
X120375996Y-81717492D01*
X120367582Y-81711134D01*
X120358905Y-81705007D01*
X120349978Y-81699098D01*
X120340815Y-81693394D01*
X120324431Y-81683934D01*
X120307829Y-81675171D01*
X120291023Y-81667066D01*
X120274024Y-81659577D01*
X120256846Y-81652665D01*
X120239500Y-81646290D01*
X120221999Y-81640411D01*
X120204356Y-81634987D01*
X120186582Y-81629979D01*
X120168691Y-81625347D01*
X120132604Y-81617045D01*
X120096195Y-81609761D01*
X120059563Y-81603171D01*
X120056982Y-81602651D01*
X120054391Y-81602088D01*
X120049145Y-81600856D01*
X120038131Y-81598144D01*
X120558831Y-80196646D01*
X120675410Y-80314466D01*
X120736382Y-80372608D01*
X120799015Y-80429790D01*
X120863214Y-80485673D01*
X120928883Y-80539923D01*
X120995927Y-80592201D01*
X121064251Y-80642171D01*
X121133760Y-80689497D01*
X121204358Y-80733841D01*
X121275949Y-80774866D01*
X121348439Y-80812237D01*
X121421732Y-80845615D01*
X121495732Y-80874664D01*
X121570345Y-80899048D01*
X121645475Y-80918430D01*
X121662945Y-80920800D01*
X121680172Y-80922553D01*
X121697144Y-80923689D01*
X121713848Y-80924206D01*
X121730270Y-80924106D01*
X121746399Y-80923388D01*
X121762220Y-80922051D01*
X121777721Y-80920096D01*
X121792890Y-80917521D01*
X121807712Y-80914327D01*
X121822176Y-80910514D01*
X121836268Y-80906081D01*
X121849976Y-80901029D01*
X121863285Y-80895356D01*
X121876185Y-80889062D01*
X121888660Y-80882148D01*
X121900700Y-80874614D01*
X121912290Y-80866458D01*
X121923418Y-80857680D01*
X121934070Y-80848281D01*
X121944234Y-80838260D01*
X121953898Y-80827618D01*
X121963047Y-80816352D01*
X121971669Y-80804464D01*
X121979752Y-80791954D01*
X121987281Y-80778820D01*
X121994245Y-80765063D01*
X122000630Y-80750682D01*
X122006424Y-80735678D01*
X122011613Y-80720049D01*
X122016184Y-80703796D01*
X122020125Y-80686919D01*
X122033572Y-80616573D01*
X122044553Y-80545379D01*
X122053086Y-80473560D01*
X122059184Y-80401334D01*
X122062864Y-80328923D01*
X122064141Y-80256545D01*
X122063030Y-80184422D01*
X122059548Y-80112773D01*
X122029236Y-79683520D01*
X122016332Y-79382418D01*
X122015993Y-79229657D01*
X122021844Y-79082817D01*
X122035472Y-78947442D01*
X122045698Y-78885788D01*
X122058462Y-78829079D01*
X122073964Y-78778010D01*
X122092400Y-78733273D01*
X122113971Y-78695561D01*
X122138873Y-78665569D01*
X122167305Y-78643988D01*
X122199465Y-78631512D01*
X122235552Y-78628835D01*
X122275764Y-78636648D01*
G37*
G36*
X118404813Y-82655423D02*
G01*
X118423888Y-82658333D01*
X118462042Y-82664050D01*
X118481015Y-82667211D01*
X118499848Y-82670809D01*
X118518490Y-82675021D01*
X118527722Y-82677413D01*
X118536886Y-82680024D01*
X118536885Y-82680024D01*
X118560353Y-82687893D01*
X118583198Y-82697172D01*
X118605371Y-82707801D01*
X118626823Y-82719721D01*
X118647505Y-82732873D01*
X118667367Y-82747196D01*
X118686361Y-82762631D01*
X118704437Y-82779119D01*
X118721546Y-82796600D01*
X118737638Y-82815014D01*
X118752665Y-82834302D01*
X118766578Y-82854404D01*
X118779327Y-82875261D01*
X118790864Y-82896813D01*
X118801138Y-82919000D01*
X118810101Y-82941763D01*
X118817703Y-82965043D01*
X118823896Y-82988779D01*
X118828631Y-83012912D01*
X118831857Y-83037382D01*
X118833526Y-83062131D01*
X118833589Y-83087097D01*
X118831997Y-83112223D01*
X118828700Y-83137447D01*
X118823649Y-83162712D01*
X118816796Y-83187956D01*
X118808090Y-83213120D01*
X118797483Y-83238145D01*
X118784925Y-83262971D01*
X118770368Y-83287539D01*
X118753762Y-83311789D01*
X118735058Y-83335662D01*
X118733843Y-83337096D01*
X118732581Y-83338521D01*
X118731274Y-83339931D01*
X118729924Y-83341321D01*
X118728534Y-83342689D01*
X118727105Y-83344029D01*
X118725642Y-83345337D01*
X118724144Y-83346609D01*
X118722616Y-83347840D01*
X118721059Y-83349028D01*
X118719476Y-83350166D01*
X118717869Y-83351251D01*
X118716240Y-83352279D01*
X118714591Y-83353246D01*
X118712926Y-83354146D01*
X118711246Y-83354976D01*
X118678731Y-83370256D01*
X118646191Y-83385337D01*
X118613503Y-83399922D01*
X118597064Y-83406936D01*
X118580542Y-83413714D01*
X118568552Y-83418365D01*
X118556495Y-83422693D01*
X118544372Y-83426699D01*
X118532185Y-83430383D01*
X118519934Y-83433744D01*
X118507621Y-83436782D01*
X118495246Y-83439498D01*
X118482811Y-83441892D01*
X118470318Y-83443963D01*
X118457766Y-83445712D01*
X118445158Y-83447138D01*
X118432495Y-83448242D01*
X118419777Y-83449023D01*
X118407007Y-83449482D01*
X118394184Y-83449619D01*
X118381310Y-83449433D01*
X118353545Y-83447968D01*
X118326392Y-83445092D01*
X118299833Y-83440854D01*
X118273848Y-83435298D01*
X118248419Y-83428473D01*
X118223525Y-83420425D01*
X118199147Y-83411201D01*
X118175266Y-83400849D01*
X118151863Y-83389414D01*
X118128917Y-83376944D01*
X118106411Y-83363485D01*
X118084324Y-83349085D01*
X118062637Y-83333791D01*
X118041330Y-83317649D01*
X118020385Y-83300707D01*
X117999781Y-83283010D01*
X117990514Y-83274569D01*
X117981577Y-83265907D01*
X117972992Y-83257016D01*
X117964778Y-83247886D01*
X117956956Y-83238509D01*
X117949547Y-83228874D01*
X117942572Y-83218972D01*
X117936050Y-83208794D01*
X117930003Y-83198331D01*
X117924450Y-83187574D01*
X117919413Y-83176513D01*
X117914912Y-83165138D01*
X117910968Y-83153441D01*
X117907600Y-83141412D01*
X117904831Y-83129042D01*
X117902679Y-83116322D01*
X117902333Y-83113236D01*
X117902095Y-83110227D01*
X117901974Y-83107288D01*
X117901977Y-83104416D01*
X117902113Y-83101606D01*
X117902391Y-83098854D01*
X117902820Y-83096154D01*
X117903407Y-83093502D01*
X117904162Y-83090894D01*
X117905093Y-83088324D01*
X117906208Y-83085789D01*
X117907516Y-83083283D01*
X117909026Y-83080801D01*
X117910746Y-83078340D01*
X117912685Y-83075895D01*
X117914850Y-83073460D01*
X118080413Y-82895660D01*
X118162649Y-82806313D01*
X118243992Y-82716272D01*
X118251390Y-82708300D01*
X118258908Y-82700862D01*
X118266564Y-82693974D01*
X118274374Y-82687648D01*
X118282352Y-82681898D01*
X118290515Y-82676740D01*
X118298879Y-82672186D01*
X118307459Y-82668250D01*
X118316272Y-82664947D01*
X118325333Y-82662291D01*
X118334659Y-82660295D01*
X118344265Y-82658973D01*
X118354167Y-82658340D01*
X118364381Y-82658409D01*
X118374923Y-82659194D01*
X118385809Y-82660710D01*
X118385809Y-82652243D01*
X118404813Y-82655423D01*
G37*
D11*
X128250000Y-123602000D02*
X128250000Y-125374000D01*
X73718000Y-125244000D02*
X73718000Y-117884000D01*
D13*
X38706000Y-107086000D02*
X82902000Y-107086000D01*
X82902000Y-136550000D01*
X38706000Y-136550000D01*
X38706000Y-107086000D01*
D12*
G36*
X120527875Y-88063237D02*
G01*
X119881233Y-88063237D01*
X119834402Y-88356395D01*
X120353250Y-88356395D01*
X120306154Y-88656697D01*
X119787042Y-88656697D01*
X119740210Y-88951972D01*
X120386588Y-88951972D01*
X120339492Y-89252274D01*
X119382494Y-89252274D01*
X119617709Y-87762934D01*
X120574971Y-87762934D01*
X120527875Y-88063237D01*
G37*
D11*
X71354000Y-125244000D02*
X71354000Y-123472000D01*
X92046000Y-119148000D02*
X92046000Y-117376000D01*
D12*
G36*
X117829321Y-87763065D02*
G01*
X117842948Y-87763637D01*
X117856452Y-87764532D01*
X117869784Y-87765801D01*
X117882901Y-87767499D01*
X117895755Y-87769679D01*
X117908302Y-87772395D01*
X117920495Y-87775700D01*
X117932289Y-87779647D01*
X117943638Y-87784291D01*
X117954496Y-87789684D01*
X117964818Y-87795880D01*
X117974558Y-87802933D01*
X117983670Y-87810895D01*
X117987977Y-87815235D01*
X117992109Y-87819821D01*
X117991579Y-87820085D01*
X117997778Y-87827949D01*
X118003378Y-87836275D01*
X118008383Y-87845086D01*
X118012795Y-87854403D01*
X118016619Y-87864248D01*
X118019856Y-87874645D01*
X118022511Y-87885614D01*
X118024586Y-87897178D01*
X118026084Y-87909360D01*
X118027009Y-87922180D01*
X118027363Y-87935662D01*
X118027149Y-87949826D01*
X118026372Y-87964697D01*
X118025033Y-87980294D01*
X118023136Y-87996642D01*
X118020684Y-88013761D01*
X117948188Y-88470167D01*
X117945044Y-88488452D01*
X117941517Y-88505816D01*
X117937607Y-88522283D01*
X117933316Y-88537873D01*
X117928644Y-88552611D01*
X117923593Y-88566517D01*
X117918164Y-88579614D01*
X117912357Y-88591925D01*
X117906174Y-88603471D01*
X117899616Y-88614276D01*
X117892683Y-88624360D01*
X117885377Y-88633747D01*
X117877699Y-88642460D01*
X117869650Y-88650519D01*
X117861230Y-88657947D01*
X117852441Y-88664768D01*
X117843284Y-88671002D01*
X117833760Y-88676673D01*
X117823870Y-88681802D01*
X117813614Y-88686412D01*
X117802995Y-88690525D01*
X117792012Y-88694164D01*
X117780667Y-88697350D01*
X117768961Y-88700106D01*
X117744470Y-88704418D01*
X117718547Y-88707277D01*
X117691200Y-88708862D01*
X117662438Y-88709350D01*
X117624073Y-88709350D01*
X117843413Y-89252011D01*
X117517711Y-89252011D01*
X117298371Y-88709350D01*
X117189363Y-88709350D01*
X117105226Y-89252011D01*
X116794075Y-89252011D01*
X116927164Y-88409312D01*
X117238311Y-88409312D01*
X117619311Y-88409312D01*
X117625653Y-88409300D01*
X117632937Y-88409213D01*
X117636638Y-88409118D01*
X117640221Y-88408977D01*
X117643569Y-88408780D01*
X117646563Y-88408519D01*
X117646972Y-88406866D01*
X117647410Y-88404872D01*
X117647879Y-88402519D01*
X117648382Y-88399787D01*
X117648922Y-88396659D01*
X117649502Y-88393115D01*
X117650126Y-88389137D01*
X117650796Y-88384706D01*
X117699745Y-88078848D01*
X117700770Y-88070050D01*
X117701196Y-88066421D01*
X117701597Y-88063237D01*
X117293080Y-88063237D01*
X117238311Y-88409312D01*
X116927164Y-88409312D01*
X117029290Y-87762671D01*
X117801873Y-87762671D01*
X117829321Y-87763065D01*
G37*
G36*
X118907038Y-88639764D02*
G01*
X119046473Y-87762934D01*
X119357359Y-87762934D01*
X119122144Y-89252274D01*
X118781096Y-89252274D01*
X118492171Y-88387352D01*
X118356440Y-89252274D01*
X118045554Y-89252274D01*
X118280769Y-87762934D01*
X118615996Y-87762934D01*
X118907038Y-88639764D01*
G37*
D11*
X50390000Y-123472000D02*
X50390000Y-125244000D01*
X47890000Y-117884000D02*
X47890000Y-125244000D01*
D12*
G36*
X118917621Y-82224676D02*
G01*
X118927146Y-82224987D01*
X118936671Y-82225173D01*
X118955721Y-82225470D01*
X118970870Y-82226063D01*
X118985949Y-82226961D01*
X119000952Y-82228184D01*
X119015873Y-82229753D01*
X119030703Y-82231688D01*
X119045437Y-82234009D01*
X119060067Y-82236737D01*
X119074585Y-82239890D01*
X119088986Y-82243490D01*
X119103263Y-82247557D01*
X119117407Y-82252110D01*
X119131413Y-82257171D01*
X119145273Y-82262758D01*
X119158980Y-82268893D01*
X119172528Y-82275595D01*
X119185909Y-82282885D01*
X119203068Y-82293237D01*
X119219533Y-82304236D01*
X119235327Y-82315857D01*
X119250467Y-82328079D01*
X119264975Y-82340877D01*
X119278870Y-82354229D01*
X119292174Y-82368111D01*
X119304905Y-82382500D01*
X119317085Y-82397373D01*
X119328732Y-82412706D01*
X119339868Y-82428477D01*
X119350513Y-82444661D01*
X119360686Y-82461236D01*
X119370408Y-82478178D01*
X119379699Y-82495465D01*
X119388580Y-82513072D01*
X119396472Y-82530204D01*
X119403444Y-82547359D01*
X119409513Y-82564522D01*
X119414699Y-82581677D01*
X119419021Y-82598809D01*
X119422496Y-82615901D01*
X119425143Y-82632939D01*
X119426981Y-82649907D01*
X119428030Y-82666790D01*
X119428306Y-82683571D01*
X119427830Y-82700235D01*
X119426619Y-82716767D01*
X119424693Y-82733151D01*
X119422069Y-82749372D01*
X119418768Y-82765413D01*
X119414806Y-82781260D01*
X119410204Y-82796898D01*
X119404979Y-82812309D01*
X119399151Y-82827480D01*
X119392737Y-82842393D01*
X119385757Y-82857035D01*
X119378229Y-82871388D01*
X119370172Y-82885438D01*
X119361605Y-82899170D01*
X119343013Y-82925613D01*
X119322603Y-82950594D01*
X119300524Y-82973989D01*
X119276925Y-82995672D01*
X119276660Y-82995937D01*
X119252601Y-83016129D01*
X119228161Y-83035845D01*
X119178235Y-83073956D01*
X119127070Y-83110479D01*
X119074849Y-83145625D01*
X119021761Y-83179605D01*
X118967991Y-83212631D01*
X118913724Y-83244912D01*
X118859148Y-83276660D01*
X118851012Y-83281178D01*
X118842876Y-83285622D01*
X118826604Y-83294387D01*
X118826932Y-83292786D01*
X118827318Y-83291255D01*
X118827759Y-83289789D01*
X118828250Y-83288384D01*
X118828787Y-83287035D01*
X118829367Y-83285736D01*
X118829985Y-83284484D01*
X118830639Y-83283274D01*
X118831324Y-83282102D01*
X118832035Y-83280961D01*
X118832770Y-83279849D01*
X118833525Y-83278760D01*
X118835076Y-83276633D01*
X118836659Y-83274543D01*
X118844987Y-83263857D01*
X118852992Y-83253028D01*
X118860655Y-83242048D01*
X118867958Y-83230912D01*
X118874881Y-83219610D01*
X118881405Y-83208138D01*
X118887511Y-83196487D01*
X118893180Y-83184651D01*
X118898394Y-83172623D01*
X118903132Y-83160395D01*
X118907377Y-83147961D01*
X118911110Y-83135314D01*
X118914310Y-83122447D01*
X118916960Y-83109353D01*
X118919040Y-83096025D01*
X118920531Y-83082456D01*
X118922115Y-83055990D01*
X118922215Y-83030072D01*
X118920846Y-83004707D01*
X118918026Y-82979897D01*
X118913770Y-82955644D01*
X118908095Y-82931953D01*
X118901017Y-82908827D01*
X118892552Y-82886267D01*
X118882716Y-82864278D01*
X118871527Y-82842863D01*
X118858999Y-82822025D01*
X118845150Y-82801766D01*
X118829996Y-82782090D01*
X118813552Y-82763000D01*
X118795836Y-82744500D01*
X118776863Y-82726591D01*
X118755583Y-82708327D01*
X118733812Y-82691343D01*
X118711548Y-82675647D01*
X118688790Y-82661247D01*
X118665535Y-82648154D01*
X118641783Y-82636374D01*
X118617531Y-82625916D01*
X118592779Y-82616789D01*
X118567524Y-82609002D01*
X118541766Y-82602563D01*
X118515502Y-82597480D01*
X118488731Y-82593762D01*
X118461452Y-82591418D01*
X118433663Y-82590456D01*
X118405362Y-82590884D01*
X118376548Y-82592712D01*
X118377843Y-82591023D01*
X118378971Y-82589516D01*
X118380848Y-82586990D01*
X118381659Y-82585940D01*
X118382046Y-82585461D01*
X118382427Y-82585010D01*
X118382804Y-82584586D01*
X118383182Y-82584186D01*
X118383565Y-82583808D01*
X118383956Y-82583451D01*
X118433767Y-82538622D01*
X118484242Y-82494692D01*
X118535473Y-82451767D01*
X118587553Y-82409951D01*
X118640577Y-82369351D01*
X118694635Y-82330071D01*
X118749823Y-82292218D01*
X118806231Y-82255897D01*
X118812837Y-82251907D01*
X118819461Y-82248175D01*
X118826109Y-82244703D01*
X118832789Y-82241494D01*
X118839506Y-82238552D01*
X118846266Y-82235880D01*
X118853076Y-82233481D01*
X118859942Y-82231357D01*
X118866870Y-82229513D01*
X118873866Y-82227951D01*
X118880936Y-82226674D01*
X118888087Y-82225685D01*
X118895325Y-82224988D01*
X118902656Y-82224586D01*
X118910086Y-82224481D01*
X118917621Y-82224676D01*
G37*
G36*
X119517696Y-86226499D02*
G01*
X118752521Y-87122908D01*
X119373234Y-87122908D01*
X119326138Y-87423210D01*
X118311990Y-87423210D01*
X118357499Y-87130316D01*
X119131669Y-86234172D01*
X118499844Y-86234172D01*
X118546940Y-85933869D01*
X119563204Y-85933869D01*
X119517696Y-86226499D01*
G37*
D10*
X50381265Y-52465136D02*
X50524122Y-52512755D01*
X50524122Y-52512755D02*
X50762217Y-52512755D01*
X50762217Y-52512755D02*
X50857455Y-52465136D01*
X50857455Y-52465136D02*
X50905074Y-52417516D01*
X50905074Y-52417516D02*
X50952693Y-52322278D01*
X50952693Y-52322278D02*
X50952693Y-52227040D01*
X50952693Y-52227040D02*
X50905074Y-52131802D01*
X50905074Y-52131802D02*
X50857455Y-52084183D01*
X50857455Y-52084183D02*
X50762217Y-52036564D01*
X50762217Y-52036564D02*
X50571741Y-51988945D01*
X50571741Y-51988945D02*
X50476503Y-51941326D01*
X50476503Y-51941326D02*
X50428884Y-51893707D01*
X50428884Y-51893707D02*
X50381265Y-51798469D01*
X50381265Y-51798469D02*
X50381265Y-51703231D01*
X50381265Y-51703231D02*
X50428884Y-51607993D01*
X50428884Y-51607993D02*
X50476503Y-51560374D01*
X50476503Y-51560374D02*
X50571741Y-51512755D01*
X50571741Y-51512755D02*
X50809836Y-51512755D01*
X50809836Y-51512755D02*
X50952693Y-51560374D01*
X51381265Y-52512755D02*
X51381265Y-51512755D01*
X51381265Y-51512755D02*
X51619360Y-51512755D01*
X51619360Y-51512755D02*
X51762217Y-51560374D01*
X51762217Y-51560374D02*
X51857455Y-51655612D01*
X51857455Y-51655612D02*
X51905074Y-51750850D01*
X51905074Y-51750850D02*
X51952693Y-51941326D01*
X51952693Y-51941326D02*
X51952693Y-52084183D01*
X51952693Y-52084183D02*
X51905074Y-52274659D01*
X51905074Y-52274659D02*
X51857455Y-52369897D01*
X51857455Y-52369897D02*
X51762217Y-52465136D01*
X51762217Y-52465136D02*
X51619360Y-52512755D01*
X51619360Y-52512755D02*
X51381265Y-52512755D01*
X52333646Y-52227040D02*
X52809836Y-52227040D01*
X52238408Y-52512755D02*
X52571741Y-51512755D01*
X52571741Y-51512755D02*
X52905074Y-52512755D01*
X50381265Y-55685024D02*
X50524122Y-55732643D01*
X50524122Y-55732643D02*
X50762217Y-55732643D01*
X50762217Y-55732643D02*
X50857455Y-55685024D01*
X50857455Y-55685024D02*
X50905074Y-55637404D01*
X50905074Y-55637404D02*
X50952693Y-55542166D01*
X50952693Y-55542166D02*
X50952693Y-55446928D01*
X50952693Y-55446928D02*
X50905074Y-55351690D01*
X50905074Y-55351690D02*
X50857455Y-55304071D01*
X50857455Y-55304071D02*
X50762217Y-55256452D01*
X50762217Y-55256452D02*
X50571741Y-55208833D01*
X50571741Y-55208833D02*
X50476503Y-55161214D01*
X50476503Y-55161214D02*
X50428884Y-55113595D01*
X50428884Y-55113595D02*
X50381265Y-55018357D01*
X50381265Y-55018357D02*
X50381265Y-54923119D01*
X50381265Y-54923119D02*
X50428884Y-54827881D01*
X50428884Y-54827881D02*
X50476503Y-54780262D01*
X50476503Y-54780262D02*
X50571741Y-54732643D01*
X50571741Y-54732643D02*
X50809836Y-54732643D01*
X50809836Y-54732643D02*
X50952693Y-54780262D01*
X51952693Y-55637404D02*
X51905074Y-55685024D01*
X51905074Y-55685024D02*
X51762217Y-55732643D01*
X51762217Y-55732643D02*
X51666979Y-55732643D01*
X51666979Y-55732643D02*
X51524122Y-55685024D01*
X51524122Y-55685024D02*
X51428884Y-55589785D01*
X51428884Y-55589785D02*
X51381265Y-55494547D01*
X51381265Y-55494547D02*
X51333646Y-55304071D01*
X51333646Y-55304071D02*
X51333646Y-55161214D01*
X51333646Y-55161214D02*
X51381265Y-54970738D01*
X51381265Y-54970738D02*
X51428884Y-54875500D01*
X51428884Y-54875500D02*
X51524122Y-54780262D01*
X51524122Y-54780262D02*
X51666979Y-54732643D01*
X51666979Y-54732643D02*
X51762217Y-54732643D01*
X51762217Y-54732643D02*
X51905074Y-54780262D01*
X51905074Y-54780262D02*
X51952693Y-54827881D01*
X52857455Y-55732643D02*
X52381265Y-55732643D01*
X52381265Y-55732643D02*
X52381265Y-54732643D01*
X50428884Y-58571578D02*
X51190789Y-58571578D01*
X50809836Y-58952531D02*
X50809836Y-58190626D01*
X52143169Y-57952531D02*
X51666979Y-57952531D01*
X51666979Y-57952531D02*
X51619360Y-58428721D01*
X51619360Y-58428721D02*
X51666979Y-58381102D01*
X51666979Y-58381102D02*
X51762217Y-58333483D01*
X51762217Y-58333483D02*
X52000312Y-58333483D01*
X52000312Y-58333483D02*
X52095550Y-58381102D01*
X52095550Y-58381102D02*
X52143169Y-58428721D01*
X52143169Y-58428721D02*
X52190788Y-58523959D01*
X52190788Y-58523959D02*
X52190788Y-58762054D01*
X52190788Y-58762054D02*
X52143169Y-58857292D01*
X52143169Y-58857292D02*
X52095550Y-58904912D01*
X52095550Y-58904912D02*
X52000312Y-58952531D01*
X52000312Y-58952531D02*
X51762217Y-58952531D01*
X51762217Y-58952531D02*
X51666979Y-58904912D01*
X51666979Y-58904912D02*
X51619360Y-58857292D01*
X52476503Y-57952531D02*
X52809836Y-58952531D01*
X52809836Y-58952531D02*
X53143169Y-57952531D01*
X50952693Y-61220038D02*
X50857455Y-61172419D01*
X50857455Y-61172419D02*
X50714598Y-61172419D01*
X50714598Y-61172419D02*
X50571741Y-61220038D01*
X50571741Y-61220038D02*
X50476503Y-61315276D01*
X50476503Y-61315276D02*
X50428884Y-61410514D01*
X50428884Y-61410514D02*
X50381265Y-61600990D01*
X50381265Y-61600990D02*
X50381265Y-61743847D01*
X50381265Y-61743847D02*
X50428884Y-61934323D01*
X50428884Y-61934323D02*
X50476503Y-62029561D01*
X50476503Y-62029561D02*
X50571741Y-62124800D01*
X50571741Y-62124800D02*
X50714598Y-62172419D01*
X50714598Y-62172419D02*
X50809836Y-62172419D01*
X50809836Y-62172419D02*
X50952693Y-62124800D01*
X50952693Y-62124800D02*
X51000312Y-62077180D01*
X51000312Y-62077180D02*
X51000312Y-61743847D01*
X51000312Y-61743847D02*
X50809836Y-61743847D01*
X51428884Y-62172419D02*
X51428884Y-61172419D01*
X51428884Y-61172419D02*
X52000312Y-62172419D01*
X52000312Y-62172419D02*
X52000312Y-61172419D01*
X52476503Y-62172419D02*
X52476503Y-61172419D01*
X52476503Y-61172419D02*
X52714598Y-61172419D01*
X52714598Y-61172419D02*
X52857455Y-61220038D01*
X52857455Y-61220038D02*
X52952693Y-61315276D01*
X52952693Y-61315276D02*
X53000312Y-61410514D01*
X53000312Y-61410514D02*
X53047931Y-61600990D01*
X53047931Y-61600990D02*
X53047931Y-61743847D01*
X53047931Y-61743847D02*
X53000312Y-61934323D01*
X53000312Y-61934323D02*
X52952693Y-62029561D01*
X52952693Y-62029561D02*
X52857455Y-62124800D01*
X52857455Y-62124800D02*
X52714598Y-62172419D01*
X52714598Y-62172419D02*
X52476503Y-62172419D01*
X130377693Y-67170038D02*
X130282455Y-67122419D01*
X130282455Y-67122419D02*
X130139598Y-67122419D01*
X130139598Y-67122419D02*
X129996741Y-67170038D01*
X129996741Y-67170038D02*
X129901503Y-67265276D01*
X129901503Y-67265276D02*
X129853884Y-67360514D01*
X129853884Y-67360514D02*
X129806265Y-67550990D01*
X129806265Y-67550990D02*
X129806265Y-67693847D01*
X129806265Y-67693847D02*
X129853884Y-67884323D01*
X129853884Y-67884323D02*
X129901503Y-67979561D01*
X129901503Y-67979561D02*
X129996741Y-68074800D01*
X129996741Y-68074800D02*
X130139598Y-68122419D01*
X130139598Y-68122419D02*
X130234836Y-68122419D01*
X130234836Y-68122419D02*
X130377693Y-68074800D01*
X130377693Y-68074800D02*
X130425312Y-68027180D01*
X130425312Y-68027180D02*
X130425312Y-67693847D01*
X130425312Y-67693847D02*
X130234836Y-67693847D01*
X130853884Y-68122419D02*
X130853884Y-67122419D01*
X130853884Y-67122419D02*
X131425312Y-68122419D01*
X131425312Y-68122419D02*
X131425312Y-67122419D01*
X131901503Y-68122419D02*
X131901503Y-67122419D01*
X131901503Y-67122419D02*
X132139598Y-67122419D01*
X132139598Y-67122419D02*
X132282455Y-67170038D01*
X132282455Y-67170038D02*
X132377693Y-67265276D01*
X132377693Y-67265276D02*
X132425312Y-67360514D01*
X132425312Y-67360514D02*
X132472931Y-67550990D01*
X132472931Y-67550990D02*
X132472931Y-67693847D01*
X132472931Y-67693847D02*
X132425312Y-67884323D01*
X132425312Y-67884323D02*
X132377693Y-67979561D01*
X132377693Y-67979561D02*
X132282455Y-68074800D01*
X132282455Y-68074800D02*
X132139598Y-68122419D01*
X132139598Y-68122419D02*
X131901503Y-68122419D01*
D14*
X112597347Y-122568438D02*
X112597347Y-120568438D01*
X113549728Y-122568438D02*
X113549728Y-120568438D01*
X113549728Y-120568438D02*
X114025918Y-120568438D01*
X114025918Y-120568438D02*
X114311633Y-120663676D01*
X114311633Y-120663676D02*
X114502109Y-120854152D01*
X114502109Y-120854152D02*
X114597347Y-121044628D01*
X114597347Y-121044628D02*
X114692585Y-121425580D01*
X114692585Y-121425580D02*
X114692585Y-121711295D01*
X114692585Y-121711295D02*
X114597347Y-122092247D01*
X114597347Y-122092247D02*
X114502109Y-122282723D01*
X114502109Y-122282723D02*
X114311633Y-122473200D01*
X114311633Y-122473200D02*
X114025918Y-122568438D01*
X114025918Y-122568438D02*
X113549728Y-122568438D01*
X116692585Y-122377961D02*
X116597347Y-122473200D01*
X116597347Y-122473200D02*
X116311633Y-122568438D01*
X116311633Y-122568438D02*
X116121157Y-122568438D01*
X116121157Y-122568438D02*
X115835442Y-122473200D01*
X115835442Y-122473200D02*
X115644966Y-122282723D01*
X115644966Y-122282723D02*
X115549728Y-122092247D01*
X115549728Y-122092247D02*
X115454490Y-121711295D01*
X115454490Y-121711295D02*
X115454490Y-121425580D01*
X115454490Y-121425580D02*
X115549728Y-121044628D01*
X115549728Y-121044628D02*
X115644966Y-120854152D01*
X115644966Y-120854152D02*
X115835442Y-120663676D01*
X115835442Y-120663676D02*
X116121157Y-120568438D01*
X116121157Y-120568438D02*
X116311633Y-120568438D01*
X116311633Y-120568438D02*
X116597347Y-120663676D01*
X116597347Y-120663676D02*
X116692585Y-120758914D01*
X120121157Y-122568438D02*
X118978300Y-122568438D01*
X119549728Y-122568438D02*
X119549728Y-120568438D01*
X119549728Y-120568438D02*
X119359252Y-120854152D01*
X119359252Y-120854152D02*
X119168776Y-121044628D01*
X119168776Y-121044628D02*
X118978300Y-121139866D01*
X121835443Y-121235104D02*
X121835443Y-122568438D01*
X121359252Y-120473200D02*
X120883062Y-121901771D01*
X120883062Y-121901771D02*
X122121157Y-121901771D01*
X124406872Y-122568438D02*
X124406872Y-120568438D01*
X124406872Y-120568438D02*
X125168777Y-120568438D01*
X125168777Y-120568438D02*
X125359253Y-120663676D01*
X125359253Y-120663676D02*
X125454491Y-120758914D01*
X125454491Y-120758914D02*
X125549729Y-120949390D01*
X125549729Y-120949390D02*
X125549729Y-121235104D01*
X125549729Y-121235104D02*
X125454491Y-121425580D01*
X125454491Y-121425580D02*
X125359253Y-121520819D01*
X125359253Y-121520819D02*
X125168777Y-121616057D01*
X125168777Y-121616057D02*
X124406872Y-121616057D01*
X126406872Y-122568438D02*
X126406872Y-120568438D01*
X127359253Y-122568438D02*
X127359253Y-120568438D01*
X127359253Y-120568438D02*
X128502110Y-122568438D01*
X128502110Y-122568438D02*
X128502110Y-120568438D01*
D15*
X104922054Y-54019600D02*
X105064911Y-54067219D01*
X105064911Y-54067219D02*
X105303006Y-54067219D01*
X105303006Y-54067219D02*
X105398244Y-54019600D01*
X105398244Y-54019600D02*
X105445863Y-53971980D01*
X105445863Y-53971980D02*
X105493482Y-53876742D01*
X105493482Y-53876742D02*
X105493482Y-53781504D01*
X105493482Y-53781504D02*
X105445863Y-53686266D01*
X105445863Y-53686266D02*
X105398244Y-53638647D01*
X105398244Y-53638647D02*
X105303006Y-53591028D01*
X105303006Y-53591028D02*
X105112530Y-53543409D01*
X105112530Y-53543409D02*
X105017292Y-53495790D01*
X105017292Y-53495790D02*
X104969673Y-53448171D01*
X104969673Y-53448171D02*
X104922054Y-53352933D01*
X104922054Y-53352933D02*
X104922054Y-53257695D01*
X104922054Y-53257695D02*
X104969673Y-53162457D01*
X104969673Y-53162457D02*
X105017292Y-53114838D01*
X105017292Y-53114838D02*
X105112530Y-53067219D01*
X105112530Y-53067219D02*
X105350625Y-53067219D01*
X105350625Y-53067219D02*
X105493482Y-53114838D01*
X105779197Y-53067219D02*
X106350625Y-53067219D01*
X106064911Y-54067219D02*
X106064911Y-53067219D01*
X106636340Y-53781504D02*
X107112530Y-53781504D01*
X106541102Y-54067219D02*
X106874435Y-53067219D01*
X106874435Y-53067219D02*
X107207768Y-54067219D01*
X108112530Y-54067219D02*
X107779197Y-53591028D01*
X107541102Y-54067219D02*
X107541102Y-53067219D01*
X107541102Y-53067219D02*
X107922054Y-53067219D01*
X107922054Y-53067219D02*
X108017292Y-53114838D01*
X108017292Y-53114838D02*
X108064911Y-53162457D01*
X108064911Y-53162457D02*
X108112530Y-53257695D01*
X108112530Y-53257695D02*
X108112530Y-53400552D01*
X108112530Y-53400552D02*
X108064911Y-53495790D01*
X108064911Y-53495790D02*
X108017292Y-53543409D01*
X108017292Y-53543409D02*
X107922054Y-53591028D01*
X107922054Y-53591028D02*
X107541102Y-53591028D01*
X108398245Y-53067219D02*
X108969673Y-53067219D01*
X108683959Y-54067219D02*
X108683959Y-53067219D01*
X109922055Y-53067219D02*
X110493483Y-53067219D01*
X110207769Y-54067219D02*
X110207769Y-53067219D01*
X110826817Y-53543409D02*
X111160150Y-53543409D01*
X111303007Y-54067219D02*
X110826817Y-54067219D01*
X110826817Y-54067219D02*
X110826817Y-53067219D01*
X110826817Y-53067219D02*
X111303007Y-53067219D01*
X111683960Y-54019600D02*
X111826817Y-54067219D01*
X111826817Y-54067219D02*
X112064912Y-54067219D01*
X112064912Y-54067219D02*
X112160150Y-54019600D01*
X112160150Y-54019600D02*
X112207769Y-53971980D01*
X112207769Y-53971980D02*
X112255388Y-53876742D01*
X112255388Y-53876742D02*
X112255388Y-53781504D01*
X112255388Y-53781504D02*
X112207769Y-53686266D01*
X112207769Y-53686266D02*
X112160150Y-53638647D01*
X112160150Y-53638647D02*
X112064912Y-53591028D01*
X112064912Y-53591028D02*
X111874436Y-53543409D01*
X111874436Y-53543409D02*
X111779198Y-53495790D01*
X111779198Y-53495790D02*
X111731579Y-53448171D01*
X111731579Y-53448171D02*
X111683960Y-53352933D01*
X111683960Y-53352933D02*
X111683960Y-53257695D01*
X111683960Y-53257695D02*
X111731579Y-53162457D01*
X111731579Y-53162457D02*
X111779198Y-53114838D01*
X111779198Y-53114838D02*
X111874436Y-53067219D01*
X111874436Y-53067219D02*
X112112531Y-53067219D01*
X112112531Y-53067219D02*
X112255388Y-53114838D01*
X112541103Y-53067219D02*
X113112531Y-53067219D01*
X112826817Y-54067219D02*
X112826817Y-53067219D01*
D14*
X65933347Y-79607438D02*
X65933347Y-77607438D01*
X66885728Y-79607438D02*
X66885728Y-77607438D01*
X66885728Y-77607438D02*
X67361918Y-77607438D01*
X67361918Y-77607438D02*
X67647633Y-77702676D01*
X67647633Y-77702676D02*
X67838109Y-77893152D01*
X67838109Y-77893152D02*
X67933347Y-78083628D01*
X67933347Y-78083628D02*
X68028585Y-78464580D01*
X68028585Y-78464580D02*
X68028585Y-78750295D01*
X68028585Y-78750295D02*
X67933347Y-79131247D01*
X67933347Y-79131247D02*
X67838109Y-79321723D01*
X67838109Y-79321723D02*
X67647633Y-79512200D01*
X67647633Y-79512200D02*
X67361918Y-79607438D01*
X67361918Y-79607438D02*
X66885728Y-79607438D01*
X70028585Y-79416961D02*
X69933347Y-79512200D01*
X69933347Y-79512200D02*
X69647633Y-79607438D01*
X69647633Y-79607438D02*
X69457157Y-79607438D01*
X69457157Y-79607438D02*
X69171442Y-79512200D01*
X69171442Y-79512200D02*
X68980966Y-79321723D01*
X68980966Y-79321723D02*
X68885728Y-79131247D01*
X68885728Y-79131247D02*
X68790490Y-78750295D01*
X68790490Y-78750295D02*
X68790490Y-78464580D01*
X68790490Y-78464580D02*
X68885728Y-78083628D01*
X68885728Y-78083628D02*
X68980966Y-77893152D01*
X68980966Y-77893152D02*
X69171442Y-77702676D01*
X69171442Y-77702676D02*
X69457157Y-77607438D01*
X69457157Y-77607438D02*
X69647633Y-77607438D01*
X69647633Y-77607438D02*
X69933347Y-77702676D01*
X69933347Y-77702676D02*
X70028585Y-77797914D01*
X72314300Y-77797914D02*
X72409538Y-77702676D01*
X72409538Y-77702676D02*
X72600014Y-77607438D01*
X72600014Y-77607438D02*
X73076205Y-77607438D01*
X73076205Y-77607438D02*
X73266681Y-77702676D01*
X73266681Y-77702676D02*
X73361919Y-77797914D01*
X73361919Y-77797914D02*
X73457157Y-77988390D01*
X73457157Y-77988390D02*
X73457157Y-78178866D01*
X73457157Y-78178866D02*
X73361919Y-78464580D01*
X73361919Y-78464580D02*
X72219062Y-79607438D01*
X72219062Y-79607438D02*
X73457157Y-79607438D01*
X74695252Y-77607438D02*
X74885729Y-77607438D01*
X74885729Y-77607438D02*
X75076205Y-77702676D01*
X75076205Y-77702676D02*
X75171443Y-77797914D01*
X75171443Y-77797914D02*
X75266681Y-77988390D01*
X75266681Y-77988390D02*
X75361919Y-78369342D01*
X75361919Y-78369342D02*
X75361919Y-78845533D01*
X75361919Y-78845533D02*
X75266681Y-79226485D01*
X75266681Y-79226485D02*
X75171443Y-79416961D01*
X75171443Y-79416961D02*
X75076205Y-79512200D01*
X75076205Y-79512200D02*
X74885729Y-79607438D01*
X74885729Y-79607438D02*
X74695252Y-79607438D01*
X74695252Y-79607438D02*
X74504776Y-79512200D01*
X74504776Y-79512200D02*
X74409538Y-79416961D01*
X74409538Y-79416961D02*
X74314300Y-79226485D01*
X74314300Y-79226485D02*
X74219062Y-78845533D01*
X74219062Y-78845533D02*
X74219062Y-78369342D01*
X74219062Y-78369342D02*
X74314300Y-77988390D01*
X74314300Y-77988390D02*
X74409538Y-77797914D01*
X74409538Y-77797914D02*
X74504776Y-77702676D01*
X74504776Y-77702676D02*
X74695252Y-77607438D01*
X77742872Y-79607438D02*
X77742872Y-77607438D01*
X77742872Y-77607438D02*
X78504777Y-77607438D01*
X78504777Y-77607438D02*
X78695253Y-77702676D01*
X78695253Y-77702676D02*
X78790491Y-77797914D01*
X78790491Y-77797914D02*
X78885729Y-77988390D01*
X78885729Y-77988390D02*
X78885729Y-78274104D01*
X78885729Y-78274104D02*
X78790491Y-78464580D01*
X78790491Y-78464580D02*
X78695253Y-78559819D01*
X78695253Y-78559819D02*
X78504777Y-78655057D01*
X78504777Y-78655057D02*
X77742872Y-78655057D01*
X79742872Y-79607438D02*
X79742872Y-77607438D01*
X80695253Y-79607438D02*
X80695253Y-77607438D01*
X80695253Y-77607438D02*
X81838110Y-79607438D01*
X81838110Y-79607438D02*
X81838110Y-77607438D01*
X53669347Y-122568438D02*
X53669347Y-120568438D01*
X54621728Y-122568438D02*
X54621728Y-120568438D01*
X54621728Y-120568438D02*
X55097918Y-120568438D01*
X55097918Y-120568438D02*
X55383633Y-120663676D01*
X55383633Y-120663676D02*
X55574109Y-120854152D01*
X55574109Y-120854152D02*
X55669347Y-121044628D01*
X55669347Y-121044628D02*
X55764585Y-121425580D01*
X55764585Y-121425580D02*
X55764585Y-121711295D01*
X55764585Y-121711295D02*
X55669347Y-122092247D01*
X55669347Y-122092247D02*
X55574109Y-122282723D01*
X55574109Y-122282723D02*
X55383633Y-122473200D01*
X55383633Y-122473200D02*
X55097918Y-122568438D01*
X55097918Y-122568438D02*
X54621728Y-122568438D01*
X57764585Y-122377961D02*
X57669347Y-122473200D01*
X57669347Y-122473200D02*
X57383633Y-122568438D01*
X57383633Y-122568438D02*
X57193157Y-122568438D01*
X57193157Y-122568438D02*
X56907442Y-122473200D01*
X56907442Y-122473200D02*
X56716966Y-122282723D01*
X56716966Y-122282723D02*
X56621728Y-122092247D01*
X56621728Y-122092247D02*
X56526490Y-121711295D01*
X56526490Y-121711295D02*
X56526490Y-121425580D01*
X56526490Y-121425580D02*
X56621728Y-121044628D01*
X56621728Y-121044628D02*
X56716966Y-120854152D01*
X56716966Y-120854152D02*
X56907442Y-120663676D01*
X56907442Y-120663676D02*
X57193157Y-120568438D01*
X57193157Y-120568438D02*
X57383633Y-120568438D01*
X57383633Y-120568438D02*
X57669347Y-120663676D01*
X57669347Y-120663676D02*
X57764585Y-120758914D01*
X60050300Y-120758914D02*
X60145538Y-120663676D01*
X60145538Y-120663676D02*
X60336014Y-120568438D01*
X60336014Y-120568438D02*
X60812205Y-120568438D01*
X60812205Y-120568438D02*
X61002681Y-120663676D01*
X61002681Y-120663676D02*
X61097919Y-120758914D01*
X61097919Y-120758914D02*
X61193157Y-120949390D01*
X61193157Y-120949390D02*
X61193157Y-121139866D01*
X61193157Y-121139866D02*
X61097919Y-121425580D01*
X61097919Y-121425580D02*
X59955062Y-122568438D01*
X59955062Y-122568438D02*
X61193157Y-122568438D01*
X62907443Y-120568438D02*
X62526490Y-120568438D01*
X62526490Y-120568438D02*
X62336014Y-120663676D01*
X62336014Y-120663676D02*
X62240776Y-120758914D01*
X62240776Y-120758914D02*
X62050300Y-121044628D01*
X62050300Y-121044628D02*
X61955062Y-121425580D01*
X61955062Y-121425580D02*
X61955062Y-122187485D01*
X61955062Y-122187485D02*
X62050300Y-122377961D01*
X62050300Y-122377961D02*
X62145538Y-122473200D01*
X62145538Y-122473200D02*
X62336014Y-122568438D01*
X62336014Y-122568438D02*
X62716967Y-122568438D01*
X62716967Y-122568438D02*
X62907443Y-122473200D01*
X62907443Y-122473200D02*
X63002681Y-122377961D01*
X63002681Y-122377961D02*
X63097919Y-122187485D01*
X63097919Y-122187485D02*
X63097919Y-121711295D01*
X63097919Y-121711295D02*
X63002681Y-121520819D01*
X63002681Y-121520819D02*
X62907443Y-121425580D01*
X62907443Y-121425580D02*
X62716967Y-121330342D01*
X62716967Y-121330342D02*
X62336014Y-121330342D01*
X62336014Y-121330342D02*
X62145538Y-121425580D01*
X62145538Y-121425580D02*
X62050300Y-121520819D01*
X62050300Y-121520819D02*
X61955062Y-121711295D01*
X65478872Y-122568438D02*
X65478872Y-120568438D01*
X65478872Y-120568438D02*
X66240777Y-120568438D01*
X66240777Y-120568438D02*
X66431253Y-120663676D01*
X66431253Y-120663676D02*
X66526491Y-120758914D01*
X66526491Y-120758914D02*
X66621729Y-120949390D01*
X66621729Y-120949390D02*
X66621729Y-121235104D01*
X66621729Y-121235104D02*
X66526491Y-121425580D01*
X66526491Y-121425580D02*
X66431253Y-121520819D01*
X66431253Y-121520819D02*
X66240777Y-121616057D01*
X66240777Y-121616057D02*
X65478872Y-121616057D01*
X67478872Y-122568438D02*
X67478872Y-120568438D01*
X68431253Y-122568438D02*
X68431253Y-120568438D01*
X68431253Y-120568438D02*
X69574110Y-122568438D01*
X69574110Y-122568438D02*
X69574110Y-120568438D01*
D10*
X133428884Y-67691466D02*
X134190789Y-67691466D01*
X133809836Y-68072419D02*
X133809836Y-67310514D01*
X134524122Y-67072419D02*
X134857455Y-68072419D01*
X134857455Y-68072419D02*
X135190788Y-67072419D01*
D14*
X95977347Y-80115438D02*
X95977347Y-78115438D01*
X96929728Y-80115438D02*
X96929728Y-78115438D01*
X96929728Y-78115438D02*
X97405918Y-78115438D01*
X97405918Y-78115438D02*
X97691633Y-78210676D01*
X97691633Y-78210676D02*
X97882109Y-78401152D01*
X97882109Y-78401152D02*
X97977347Y-78591628D01*
X97977347Y-78591628D02*
X98072585Y-78972580D01*
X98072585Y-78972580D02*
X98072585Y-79258295D01*
X98072585Y-79258295D02*
X97977347Y-79639247D01*
X97977347Y-79639247D02*
X97882109Y-79829723D01*
X97882109Y-79829723D02*
X97691633Y-80020200D01*
X97691633Y-80020200D02*
X97405918Y-80115438D01*
X97405918Y-80115438D02*
X96929728Y-80115438D01*
X100072585Y-79924961D02*
X99977347Y-80020200D01*
X99977347Y-80020200D02*
X99691633Y-80115438D01*
X99691633Y-80115438D02*
X99501157Y-80115438D01*
X99501157Y-80115438D02*
X99215442Y-80020200D01*
X99215442Y-80020200D02*
X99024966Y-79829723D01*
X99024966Y-79829723D02*
X98929728Y-79639247D01*
X98929728Y-79639247D02*
X98834490Y-79258295D01*
X98834490Y-79258295D02*
X98834490Y-78972580D01*
X98834490Y-78972580D02*
X98929728Y-78591628D01*
X98929728Y-78591628D02*
X99024966Y-78401152D01*
X99024966Y-78401152D02*
X99215442Y-78210676D01*
X99215442Y-78210676D02*
X99501157Y-78115438D01*
X99501157Y-78115438D02*
X99691633Y-78115438D01*
X99691633Y-78115438D02*
X99977347Y-78210676D01*
X99977347Y-78210676D02*
X100072585Y-78305914D01*
X103310681Y-78115438D02*
X102929728Y-78115438D01*
X102929728Y-78115438D02*
X102739252Y-78210676D01*
X102739252Y-78210676D02*
X102644014Y-78305914D01*
X102644014Y-78305914D02*
X102453538Y-78591628D01*
X102453538Y-78591628D02*
X102358300Y-78972580D01*
X102358300Y-78972580D02*
X102358300Y-79734485D01*
X102358300Y-79734485D02*
X102453538Y-79924961D01*
X102453538Y-79924961D02*
X102548776Y-80020200D01*
X102548776Y-80020200D02*
X102739252Y-80115438D01*
X102739252Y-80115438D02*
X103120205Y-80115438D01*
X103120205Y-80115438D02*
X103310681Y-80020200D01*
X103310681Y-80020200D02*
X103405919Y-79924961D01*
X103405919Y-79924961D02*
X103501157Y-79734485D01*
X103501157Y-79734485D02*
X103501157Y-79258295D01*
X103501157Y-79258295D02*
X103405919Y-79067819D01*
X103405919Y-79067819D02*
X103310681Y-78972580D01*
X103310681Y-78972580D02*
X103120205Y-78877342D01*
X103120205Y-78877342D02*
X102739252Y-78877342D01*
X102739252Y-78877342D02*
X102548776Y-78972580D01*
X102548776Y-78972580D02*
X102453538Y-79067819D01*
X102453538Y-79067819D02*
X102358300Y-79258295D01*
X105882110Y-80115438D02*
X105882110Y-78115438D01*
X105882110Y-78115438D02*
X106644015Y-78115438D01*
X106644015Y-78115438D02*
X106834491Y-78210676D01*
X106834491Y-78210676D02*
X106929729Y-78305914D01*
X106929729Y-78305914D02*
X107024967Y-78496390D01*
X107024967Y-78496390D02*
X107024967Y-78782104D01*
X107024967Y-78782104D02*
X106929729Y-78972580D01*
X106929729Y-78972580D02*
X106834491Y-79067819D01*
X106834491Y-79067819D02*
X106644015Y-79163057D01*
X106644015Y-79163057D02*
X105882110Y-79163057D01*
X107882110Y-80115438D02*
X107882110Y-78115438D01*
X108834491Y-80115438D02*
X108834491Y-78115438D01*
X108834491Y-78115438D02*
X109977348Y-80115438D01*
X109977348Y-80115438D02*
X109977348Y-78115438D01*
X87197347Y-121552438D02*
X87197347Y-119552438D01*
X88149728Y-121552438D02*
X88149728Y-119552438D01*
X88149728Y-119552438D02*
X88625918Y-119552438D01*
X88625918Y-119552438D02*
X88911633Y-119647676D01*
X88911633Y-119647676D02*
X89102109Y-119838152D01*
X89102109Y-119838152D02*
X89197347Y-120028628D01*
X89197347Y-120028628D02*
X89292585Y-120409580D01*
X89292585Y-120409580D02*
X89292585Y-120695295D01*
X89292585Y-120695295D02*
X89197347Y-121076247D01*
X89197347Y-121076247D02*
X89102109Y-121266723D01*
X89102109Y-121266723D02*
X88911633Y-121457200D01*
X88911633Y-121457200D02*
X88625918Y-121552438D01*
X88625918Y-121552438D02*
X88149728Y-121552438D01*
X91292585Y-121361961D02*
X91197347Y-121457200D01*
X91197347Y-121457200D02*
X90911633Y-121552438D01*
X90911633Y-121552438D02*
X90721157Y-121552438D01*
X90721157Y-121552438D02*
X90435442Y-121457200D01*
X90435442Y-121457200D02*
X90244966Y-121266723D01*
X90244966Y-121266723D02*
X90149728Y-121076247D01*
X90149728Y-121076247D02*
X90054490Y-120695295D01*
X90054490Y-120695295D02*
X90054490Y-120409580D01*
X90054490Y-120409580D02*
X90149728Y-120028628D01*
X90149728Y-120028628D02*
X90244966Y-119838152D01*
X90244966Y-119838152D02*
X90435442Y-119647676D01*
X90435442Y-119647676D02*
X90721157Y-119552438D01*
X90721157Y-119552438D02*
X90911633Y-119552438D01*
X90911633Y-119552438D02*
X91197347Y-119647676D01*
X91197347Y-119647676D02*
X91292585Y-119742914D01*
X94721157Y-121552438D02*
X93578300Y-121552438D01*
X94149728Y-121552438D02*
X94149728Y-119552438D01*
X94149728Y-119552438D02*
X93959252Y-119838152D01*
X93959252Y-119838152D02*
X93768776Y-120028628D01*
X93768776Y-120028628D02*
X93578300Y-120123866D01*
X95959252Y-119552438D02*
X96149729Y-119552438D01*
X96149729Y-119552438D02*
X96340205Y-119647676D01*
X96340205Y-119647676D02*
X96435443Y-119742914D01*
X96435443Y-119742914D02*
X96530681Y-119933390D01*
X96530681Y-119933390D02*
X96625919Y-120314342D01*
X96625919Y-120314342D02*
X96625919Y-120790533D01*
X96625919Y-120790533D02*
X96530681Y-121171485D01*
X96530681Y-121171485D02*
X96435443Y-121361961D01*
X96435443Y-121361961D02*
X96340205Y-121457200D01*
X96340205Y-121457200D02*
X96149729Y-121552438D01*
X96149729Y-121552438D02*
X95959252Y-121552438D01*
X95959252Y-121552438D02*
X95768776Y-121457200D01*
X95768776Y-121457200D02*
X95673538Y-121361961D01*
X95673538Y-121361961D02*
X95578300Y-121171485D01*
X95578300Y-121171485D02*
X95483062Y-120790533D01*
X95483062Y-120790533D02*
X95483062Y-120314342D01*
X95483062Y-120314342D02*
X95578300Y-119933390D01*
X95578300Y-119933390D02*
X95673538Y-119742914D01*
X95673538Y-119742914D02*
X95768776Y-119647676D01*
X95768776Y-119647676D02*
X95959252Y-119552438D01*
X99006872Y-121552438D02*
X99006872Y-119552438D01*
X99006872Y-119552438D02*
X99768777Y-119552438D01*
X99768777Y-119552438D02*
X99959253Y-119647676D01*
X99959253Y-119647676D02*
X100054491Y-119742914D01*
X100054491Y-119742914D02*
X100149729Y-119933390D01*
X100149729Y-119933390D02*
X100149729Y-120219104D01*
X100149729Y-120219104D02*
X100054491Y-120409580D01*
X100054491Y-120409580D02*
X99959253Y-120504819D01*
X99959253Y-120504819D02*
X99768777Y-120600057D01*
X99768777Y-120600057D02*
X99006872Y-120600057D01*
X101006872Y-121552438D02*
X101006872Y-119552438D01*
X101959253Y-121552438D02*
X101959253Y-119552438D01*
X101959253Y-119552438D02*
X103102110Y-121552438D01*
X103102110Y-121552438D02*
X103102110Y-119552438D01*
D15*
X71275000Y-83967856D02*
X71215476Y-84027380D01*
X71215476Y-84027380D02*
X71036905Y-84086903D01*
X71036905Y-84086903D02*
X70917857Y-84086903D01*
X70917857Y-84086903D02*
X70739286Y-84027380D01*
X70739286Y-84027380D02*
X70620238Y-83908332D01*
X70620238Y-83908332D02*
X70560715Y-83789284D01*
X70560715Y-83789284D02*
X70501191Y-83551189D01*
X70501191Y-83551189D02*
X70501191Y-83372618D01*
X70501191Y-83372618D02*
X70560715Y-83134522D01*
X70560715Y-83134522D02*
X70620238Y-83015475D01*
X70620238Y-83015475D02*
X70739286Y-82896427D01*
X70739286Y-82896427D02*
X70917857Y-82836903D01*
X70917857Y-82836903D02*
X71036905Y-82836903D01*
X71036905Y-82836903D02*
X71215476Y-82896427D01*
X71215476Y-82896427D02*
X71275000Y-82955951D01*
X71751191Y-83729760D02*
X72346429Y-83729760D01*
X71632143Y-84086903D02*
X72048810Y-82836903D01*
X72048810Y-82836903D02*
X72465476Y-84086903D01*
X73298810Y-83432141D02*
X73477382Y-83491665D01*
X73477382Y-83491665D02*
X73536905Y-83551189D01*
X73536905Y-83551189D02*
X73596429Y-83670237D01*
X73596429Y-83670237D02*
X73596429Y-83848808D01*
X73596429Y-83848808D02*
X73536905Y-83967856D01*
X73536905Y-83967856D02*
X73477382Y-84027380D01*
X73477382Y-84027380D02*
X73358334Y-84086903D01*
X73358334Y-84086903D02*
X72882144Y-84086903D01*
X72882144Y-84086903D02*
X72882144Y-82836903D01*
X72882144Y-82836903D02*
X73298810Y-82836903D01*
X73298810Y-82836903D02*
X73417858Y-82896427D01*
X73417858Y-82896427D02*
X73477382Y-82955951D01*
X73477382Y-82955951D02*
X73536905Y-83074999D01*
X73536905Y-83074999D02*
X73536905Y-83194046D01*
X73536905Y-83194046D02*
X73477382Y-83313094D01*
X73477382Y-83313094D02*
X73417858Y-83372618D01*
X73417858Y-83372618D02*
X73298810Y-83432141D01*
X73298810Y-83432141D02*
X72882144Y-83432141D01*
X74727382Y-84086903D02*
X74132144Y-84086903D01*
X74132144Y-84086903D02*
X74132144Y-82836903D01*
X75144049Y-83432141D02*
X75560715Y-83432141D01*
X75739287Y-84086903D02*
X75144049Y-84086903D01*
X75144049Y-84086903D02*
X75144049Y-82836903D01*
X75144049Y-82836903D02*
X75739287Y-82836903D01*
X77048810Y-82836903D02*
X77763096Y-82836903D01*
X77405953Y-84086903D02*
X77405953Y-82836903D01*
X78179763Y-83432141D02*
X78596429Y-83432141D01*
X78775001Y-84086903D02*
X78179763Y-84086903D01*
X78179763Y-84086903D02*
X78179763Y-82836903D01*
X78179763Y-82836903D02*
X78775001Y-82836903D01*
X79251191Y-84027380D02*
X79429762Y-84086903D01*
X79429762Y-84086903D02*
X79727381Y-84086903D01*
X79727381Y-84086903D02*
X79846429Y-84027380D01*
X79846429Y-84027380D02*
X79905953Y-83967856D01*
X79905953Y-83967856D02*
X79965476Y-83848808D01*
X79965476Y-83848808D02*
X79965476Y-83729760D01*
X79965476Y-83729760D02*
X79905953Y-83610713D01*
X79905953Y-83610713D02*
X79846429Y-83551189D01*
X79846429Y-83551189D02*
X79727381Y-83491665D01*
X79727381Y-83491665D02*
X79489286Y-83432141D01*
X79489286Y-83432141D02*
X79370238Y-83372618D01*
X79370238Y-83372618D02*
X79310715Y-83313094D01*
X79310715Y-83313094D02*
X79251191Y-83194046D01*
X79251191Y-83194046D02*
X79251191Y-83074999D01*
X79251191Y-83074999D02*
X79310715Y-82955951D01*
X79310715Y-82955951D02*
X79370238Y-82896427D01*
X79370238Y-82896427D02*
X79489286Y-82836903D01*
X79489286Y-82836903D02*
X79786905Y-82836903D01*
X79786905Y-82836903D02*
X79965476Y-82896427D01*
X80322619Y-82836903D02*
X81036905Y-82836903D01*
X80679762Y-84086903D02*
X80679762Y-82836903D01*
X81453572Y-83432141D02*
X81870238Y-83432141D01*
X82048810Y-84086903D02*
X81453572Y-84086903D01*
X81453572Y-84086903D02*
X81453572Y-82836903D01*
X81453572Y-82836903D02*
X82048810Y-82836903D01*
X83298809Y-84086903D02*
X82882143Y-83491665D01*
X82584524Y-84086903D02*
X82584524Y-82836903D01*
X82584524Y-82836903D02*
X83060714Y-82836903D01*
X83060714Y-82836903D02*
X83179762Y-82896427D01*
X83179762Y-82896427D02*
X83239285Y-82955951D01*
X83239285Y-82955951D02*
X83298809Y-83074999D01*
X83298809Y-83074999D02*
X83298809Y-83253570D01*
X83298809Y-83253570D02*
X83239285Y-83372618D01*
X83239285Y-83372618D02*
X83179762Y-83432141D01*
X83179762Y-83432141D02*
X83060714Y-83491665D01*
X83060714Y-83491665D02*
X82584524Y-83491665D01*
X68150000Y-84849333D02*
X67911905Y-84849333D01*
X67911905Y-84849333D02*
X67792857Y-84908857D01*
X67792857Y-84908857D02*
X67733333Y-84968381D01*
X67733333Y-84968381D02*
X67614286Y-85146952D01*
X67614286Y-85146952D02*
X67554762Y-85385048D01*
X67554762Y-85385048D02*
X67554762Y-85861238D01*
X67554762Y-85861238D02*
X67614286Y-85980286D01*
X67614286Y-85980286D02*
X67673809Y-86039810D01*
X67673809Y-86039810D02*
X67792857Y-86099333D01*
X67792857Y-86099333D02*
X68030952Y-86099333D01*
X68030952Y-86099333D02*
X68150000Y-86039810D01*
X68150000Y-86039810D02*
X68209524Y-85980286D01*
X68209524Y-85980286D02*
X68269047Y-85861238D01*
X68269047Y-85861238D02*
X68269047Y-85563619D01*
X68269047Y-85563619D02*
X68209524Y-85444571D01*
X68209524Y-85444571D02*
X68150000Y-85385048D01*
X68150000Y-85385048D02*
X68030952Y-85325524D01*
X68030952Y-85325524D02*
X67792857Y-85325524D01*
X67792857Y-85325524D02*
X67673809Y-85385048D01*
X67673809Y-85385048D02*
X67614286Y-85444571D01*
X67614286Y-85444571D02*
X67554762Y-85563619D01*
X68626190Y-84849333D02*
X69042857Y-86099333D01*
X69042857Y-86099333D02*
X69459523Y-84849333D01*
X70828572Y-85623143D02*
X71780953Y-85623143D01*
X73983333Y-86099333D02*
X73269048Y-86099333D01*
X73626191Y-86099333D02*
X73626191Y-84849333D01*
X73626191Y-84849333D02*
X73507143Y-85027905D01*
X73507143Y-85027905D02*
X73388095Y-85146952D01*
X73388095Y-85146952D02*
X73269048Y-85206476D01*
X74459524Y-84968381D02*
X74519048Y-84908857D01*
X74519048Y-84908857D02*
X74638095Y-84849333D01*
X74638095Y-84849333D02*
X74935714Y-84849333D01*
X74935714Y-84849333D02*
X75054762Y-84908857D01*
X75054762Y-84908857D02*
X75114286Y-84968381D01*
X75114286Y-84968381D02*
X75173809Y-85087429D01*
X75173809Y-85087429D02*
X75173809Y-85206476D01*
X75173809Y-85206476D02*
X75114286Y-85385048D01*
X75114286Y-85385048D02*
X74400000Y-86099333D01*
X74400000Y-86099333D02*
X75173809Y-86099333D01*
X75530952Y-84849333D02*
X75947619Y-86099333D01*
X75947619Y-86099333D02*
X76364285Y-84849333D01*
X77733334Y-85444571D02*
X78150000Y-85444571D01*
X78328572Y-86099333D02*
X77733334Y-86099333D01*
X77733334Y-86099333D02*
X77733334Y-84849333D01*
X77733334Y-84849333D02*
X78328572Y-84849333D01*
X78745238Y-84849333D02*
X79578571Y-86099333D01*
X79578571Y-84849333D02*
X78745238Y-86099333D01*
X79876190Y-84849333D02*
X80590476Y-84849333D01*
X80233333Y-86099333D02*
X80233333Y-84849333D01*
X81007143Y-85444571D02*
X81423809Y-85444571D01*
X81602381Y-86099333D02*
X81007143Y-86099333D01*
X81007143Y-86099333D02*
X81007143Y-84849333D01*
X81007143Y-84849333D02*
X81602381Y-84849333D01*
X82852380Y-86099333D02*
X82435714Y-85504095D01*
X82138095Y-86099333D02*
X82138095Y-84849333D01*
X82138095Y-84849333D02*
X82614285Y-84849333D01*
X82614285Y-84849333D02*
X82733333Y-84908857D01*
X82733333Y-84908857D02*
X82792856Y-84968381D01*
X82792856Y-84968381D02*
X82852380Y-85087429D01*
X82852380Y-85087429D02*
X82852380Y-85266000D01*
X82852380Y-85266000D02*
X82792856Y-85385048D01*
X82792856Y-85385048D02*
X82733333Y-85444571D01*
X82733333Y-85444571D02*
X82614285Y-85504095D01*
X82614285Y-85504095D02*
X82138095Y-85504095D01*
X83388095Y-86099333D02*
X83388095Y-84849333D01*
X83388095Y-84849333D02*
X84102380Y-86099333D01*
X84102380Y-86099333D02*
X84102380Y-84849333D01*
X84638095Y-85742190D02*
X85233333Y-85742190D01*
X84519047Y-86099333D02*
X84935714Y-84849333D01*
X84935714Y-84849333D02*
X85352380Y-86099333D01*
X86364286Y-86099333D02*
X85769048Y-86099333D01*
X85769048Y-86099333D02*
X85769048Y-84849333D01*
X66126191Y-86861763D02*
X66542858Y-88111763D01*
X66542858Y-88111763D02*
X66959524Y-86861763D01*
X67376192Y-87457001D02*
X67792858Y-87457001D01*
X67971430Y-88111763D02*
X67376192Y-88111763D01*
X67376192Y-88111763D02*
X67376192Y-86861763D01*
X67376192Y-86861763D02*
X67971430Y-86861763D01*
X69221429Y-88111763D02*
X68804763Y-87516525D01*
X68507144Y-88111763D02*
X68507144Y-86861763D01*
X68507144Y-86861763D02*
X68983334Y-86861763D01*
X68983334Y-86861763D02*
X69102382Y-86921287D01*
X69102382Y-86921287D02*
X69161905Y-86980811D01*
X69161905Y-86980811D02*
X69221429Y-87099859D01*
X69221429Y-87099859D02*
X69221429Y-87278430D01*
X69221429Y-87278430D02*
X69161905Y-87397478D01*
X69161905Y-87397478D02*
X69102382Y-87457001D01*
X69102382Y-87457001D02*
X68983334Y-87516525D01*
X68983334Y-87516525D02*
X68507144Y-87516525D01*
X69697620Y-88052240D02*
X69876191Y-88111763D01*
X69876191Y-88111763D02*
X70173810Y-88111763D01*
X70173810Y-88111763D02*
X70292858Y-88052240D01*
X70292858Y-88052240D02*
X70352382Y-87992716D01*
X70352382Y-87992716D02*
X70411905Y-87873668D01*
X70411905Y-87873668D02*
X70411905Y-87754620D01*
X70411905Y-87754620D02*
X70352382Y-87635573D01*
X70352382Y-87635573D02*
X70292858Y-87576049D01*
X70292858Y-87576049D02*
X70173810Y-87516525D01*
X70173810Y-87516525D02*
X69935715Y-87457001D01*
X69935715Y-87457001D02*
X69816667Y-87397478D01*
X69816667Y-87397478D02*
X69757144Y-87337954D01*
X69757144Y-87337954D02*
X69697620Y-87218906D01*
X69697620Y-87218906D02*
X69697620Y-87099859D01*
X69697620Y-87099859D02*
X69757144Y-86980811D01*
X69757144Y-86980811D02*
X69816667Y-86921287D01*
X69816667Y-86921287D02*
X69935715Y-86861763D01*
X69935715Y-86861763D02*
X70233334Y-86861763D01*
X70233334Y-86861763D02*
X70411905Y-86921287D01*
X70947620Y-88111763D02*
X70947620Y-86861763D01*
X71780953Y-86861763D02*
X72019048Y-86861763D01*
X72019048Y-86861763D02*
X72138096Y-86921287D01*
X72138096Y-86921287D02*
X72257143Y-87040335D01*
X72257143Y-87040335D02*
X72316667Y-87278430D01*
X72316667Y-87278430D02*
X72316667Y-87695097D01*
X72316667Y-87695097D02*
X72257143Y-87933192D01*
X72257143Y-87933192D02*
X72138096Y-88052240D01*
X72138096Y-88052240D02*
X72019048Y-88111763D01*
X72019048Y-88111763D02*
X71780953Y-88111763D01*
X71780953Y-88111763D02*
X71661905Y-88052240D01*
X71661905Y-88052240D02*
X71542858Y-87933192D01*
X71542858Y-87933192D02*
X71483334Y-87695097D01*
X71483334Y-87695097D02*
X71483334Y-87278430D01*
X71483334Y-87278430D02*
X71542858Y-87040335D01*
X71542858Y-87040335D02*
X71661905Y-86921287D01*
X71661905Y-86921287D02*
X71780953Y-86861763D01*
X72852382Y-88111763D02*
X72852382Y-86861763D01*
X72852382Y-86861763D02*
X73566667Y-88111763D01*
X73566667Y-88111763D02*
X73566667Y-86861763D01*
X75352382Y-86861763D02*
X75471429Y-86861763D01*
X75471429Y-86861763D02*
X75590477Y-86921287D01*
X75590477Y-86921287D02*
X75650001Y-86980811D01*
X75650001Y-86980811D02*
X75709525Y-87099859D01*
X75709525Y-87099859D02*
X75769048Y-87337954D01*
X75769048Y-87337954D02*
X75769048Y-87635573D01*
X75769048Y-87635573D02*
X75709525Y-87873668D01*
X75709525Y-87873668D02*
X75650001Y-87992716D01*
X75650001Y-87992716D02*
X75590477Y-88052240D01*
X75590477Y-88052240D02*
X75471429Y-88111763D01*
X75471429Y-88111763D02*
X75352382Y-88111763D01*
X75352382Y-88111763D02*
X75233334Y-88052240D01*
X75233334Y-88052240D02*
X75173810Y-87992716D01*
X75173810Y-87992716D02*
X75114287Y-87873668D01*
X75114287Y-87873668D02*
X75054763Y-87635573D01*
X75054763Y-87635573D02*
X75054763Y-87337954D01*
X75054763Y-87337954D02*
X75114287Y-87099859D01*
X75114287Y-87099859D02*
X75173810Y-86980811D01*
X75173810Y-86980811D02*
X75233334Y-86921287D01*
X75233334Y-86921287D02*
X75352382Y-86861763D01*
X76542858Y-86861763D02*
X76661905Y-86861763D01*
X76661905Y-86861763D02*
X76780953Y-86921287D01*
X76780953Y-86921287D02*
X76840477Y-86980811D01*
X76840477Y-86980811D02*
X76900001Y-87099859D01*
X76900001Y-87099859D02*
X76959524Y-87337954D01*
X76959524Y-87337954D02*
X76959524Y-87635573D01*
X76959524Y-87635573D02*
X76900001Y-87873668D01*
X76900001Y-87873668D02*
X76840477Y-87992716D01*
X76840477Y-87992716D02*
X76780953Y-88052240D01*
X76780953Y-88052240D02*
X76661905Y-88111763D01*
X76661905Y-88111763D02*
X76542858Y-88111763D01*
X76542858Y-88111763D02*
X76423810Y-88052240D01*
X76423810Y-88052240D02*
X76364286Y-87992716D01*
X76364286Y-87992716D02*
X76304763Y-87873668D01*
X76304763Y-87873668D02*
X76245239Y-87635573D01*
X76245239Y-87635573D02*
X76245239Y-87337954D01*
X76245239Y-87337954D02*
X76304763Y-87099859D01*
X76304763Y-87099859D02*
X76364286Y-86980811D01*
X76364286Y-86980811D02*
X76423810Y-86921287D01*
X76423810Y-86921287D02*
X76542858Y-86861763D01*
X78150000Y-88111763D02*
X77435715Y-88111763D01*
X77792858Y-88111763D02*
X77792858Y-86861763D01*
X77792858Y-86861763D02*
X77673810Y-87040335D01*
X77673810Y-87040335D02*
X77554762Y-87159382D01*
X77554762Y-87159382D02*
X77435715Y-87218906D01*
X79876191Y-86861763D02*
X79995238Y-86861763D01*
X79995238Y-86861763D02*
X80114286Y-86921287D01*
X80114286Y-86921287D02*
X80173810Y-86980811D01*
X80173810Y-86980811D02*
X80233334Y-87099859D01*
X80233334Y-87099859D02*
X80292857Y-87337954D01*
X80292857Y-87337954D02*
X80292857Y-87635573D01*
X80292857Y-87635573D02*
X80233334Y-87873668D01*
X80233334Y-87873668D02*
X80173810Y-87992716D01*
X80173810Y-87992716D02*
X80114286Y-88052240D01*
X80114286Y-88052240D02*
X79995238Y-88111763D01*
X79995238Y-88111763D02*
X79876191Y-88111763D01*
X79876191Y-88111763D02*
X79757143Y-88052240D01*
X79757143Y-88052240D02*
X79697619Y-87992716D01*
X79697619Y-87992716D02*
X79638096Y-87873668D01*
X79638096Y-87873668D02*
X79578572Y-87635573D01*
X79578572Y-87635573D02*
X79578572Y-87337954D01*
X79578572Y-87337954D02*
X79638096Y-87099859D01*
X79638096Y-87099859D02*
X79697619Y-86980811D01*
X79697619Y-86980811D02*
X79757143Y-86921287D01*
X79757143Y-86921287D02*
X79876191Y-86861763D01*
X81483333Y-88111763D02*
X80769048Y-88111763D01*
X81126191Y-88111763D02*
X81126191Y-86861763D01*
X81126191Y-86861763D02*
X81007143Y-87040335D01*
X81007143Y-87040335D02*
X80888095Y-87159382D01*
X80888095Y-87159382D02*
X80769048Y-87218906D01*
X82911905Y-86802240D02*
X81840476Y-88409382D01*
X83269048Y-86980811D02*
X83328572Y-86921287D01*
X83328572Y-86921287D02*
X83447619Y-86861763D01*
X83447619Y-86861763D02*
X83745238Y-86861763D01*
X83745238Y-86861763D02*
X83864286Y-86921287D01*
X83864286Y-86921287D02*
X83923810Y-86980811D01*
X83923810Y-86980811D02*
X83983333Y-87099859D01*
X83983333Y-87099859D02*
X83983333Y-87218906D01*
X83983333Y-87218906D02*
X83923810Y-87397478D01*
X83923810Y-87397478D02*
X83209524Y-88111763D01*
X83209524Y-88111763D02*
X83983333Y-88111763D01*
X84757143Y-86861763D02*
X84876190Y-86861763D01*
X84876190Y-86861763D02*
X84995238Y-86921287D01*
X84995238Y-86921287D02*
X85054762Y-86980811D01*
X85054762Y-86980811D02*
X85114286Y-87099859D01*
X85114286Y-87099859D02*
X85173809Y-87337954D01*
X85173809Y-87337954D02*
X85173809Y-87635573D01*
X85173809Y-87635573D02*
X85114286Y-87873668D01*
X85114286Y-87873668D02*
X85054762Y-87992716D01*
X85054762Y-87992716D02*
X84995238Y-88052240D01*
X84995238Y-88052240D02*
X84876190Y-88111763D01*
X84876190Y-88111763D02*
X84757143Y-88111763D01*
X84757143Y-88111763D02*
X84638095Y-88052240D01*
X84638095Y-88052240D02*
X84578571Y-87992716D01*
X84578571Y-87992716D02*
X84519048Y-87873668D01*
X84519048Y-87873668D02*
X84459524Y-87635573D01*
X84459524Y-87635573D02*
X84459524Y-87337954D01*
X84459524Y-87337954D02*
X84519048Y-87099859D01*
X84519048Y-87099859D02*
X84578571Y-86980811D01*
X84578571Y-86980811D02*
X84638095Y-86921287D01*
X84638095Y-86921287D02*
X84757143Y-86861763D01*
X85650000Y-86980811D02*
X85709524Y-86921287D01*
X85709524Y-86921287D02*
X85828571Y-86861763D01*
X85828571Y-86861763D02*
X86126190Y-86861763D01*
X86126190Y-86861763D02*
X86245238Y-86921287D01*
X86245238Y-86921287D02*
X86304762Y-86980811D01*
X86304762Y-86980811D02*
X86364285Y-87099859D01*
X86364285Y-87099859D02*
X86364285Y-87218906D01*
X86364285Y-87218906D02*
X86304762Y-87397478D01*
X86304762Y-87397478D02*
X85590476Y-88111763D01*
X85590476Y-88111763D02*
X86364285Y-88111763D01*
X87495238Y-86861763D02*
X86900000Y-86861763D01*
X86900000Y-86861763D02*
X86840476Y-87457001D01*
X86840476Y-87457001D02*
X86900000Y-87397478D01*
X86900000Y-87397478D02*
X87019047Y-87337954D01*
X87019047Y-87337954D02*
X87316666Y-87337954D01*
X87316666Y-87337954D02*
X87435714Y-87397478D01*
X87435714Y-87397478D02*
X87495238Y-87457001D01*
X87495238Y-87457001D02*
X87554761Y-87576049D01*
X87554761Y-87576049D02*
X87554761Y-87873668D01*
X87554761Y-87873668D02*
X87495238Y-87992716D01*
X87495238Y-87992716D02*
X87435714Y-88052240D01*
X87435714Y-88052240D02*
X87316666Y-88111763D01*
X87316666Y-88111763D02*
X87019047Y-88111763D01*
X87019047Y-88111763D02*
X86900000Y-88052240D01*
X86900000Y-88052240D02*
X86840476Y-87992716D01*
X70828571Y-89171812D02*
X70709524Y-89112289D01*
X70709524Y-89112289D02*
X70471428Y-89112289D01*
X70471428Y-89112289D02*
X70352381Y-89171812D01*
X70352381Y-89171812D02*
X70233333Y-89290860D01*
X70233333Y-89290860D02*
X70173809Y-89409908D01*
X70173809Y-89409908D02*
X70173809Y-89648003D01*
X70173809Y-89648003D02*
X70233333Y-89767050D01*
X70233333Y-89767050D02*
X70352381Y-89886098D01*
X70352381Y-89886098D02*
X70471428Y-89945622D01*
X70471428Y-89945622D02*
X70709524Y-89945622D01*
X70709524Y-89945622D02*
X70828571Y-89886098D01*
X70590476Y-88695622D02*
X70292857Y-88755146D01*
X70292857Y-88755146D02*
X69995238Y-88933717D01*
X69995238Y-88933717D02*
X69816667Y-89231336D01*
X69816667Y-89231336D02*
X69757143Y-89528955D01*
X69757143Y-89528955D02*
X69816667Y-89826574D01*
X69816667Y-89826574D02*
X69995238Y-90124193D01*
X69995238Y-90124193D02*
X70292857Y-90302765D01*
X70292857Y-90302765D02*
X70590476Y-90362289D01*
X70590476Y-90362289D02*
X70888095Y-90302765D01*
X70888095Y-90302765D02*
X71185714Y-90124193D01*
X71185714Y-90124193D02*
X71364286Y-89826574D01*
X71364286Y-89826574D02*
X71423809Y-89528955D01*
X71423809Y-89528955D02*
X71364286Y-89231336D01*
X71364286Y-89231336D02*
X71185714Y-88933717D01*
X71185714Y-88933717D02*
X70888095Y-88755146D01*
X70888095Y-88755146D02*
X70590476Y-88695622D01*
X73150000Y-88874193D02*
X73388095Y-88874193D01*
X73388095Y-88874193D02*
X73507143Y-88933717D01*
X73507143Y-88933717D02*
X73626190Y-89052765D01*
X73626190Y-89052765D02*
X73685714Y-89290860D01*
X73685714Y-89290860D02*
X73685714Y-89707527D01*
X73685714Y-89707527D02*
X73626190Y-89945622D01*
X73626190Y-89945622D02*
X73507143Y-90064670D01*
X73507143Y-90064670D02*
X73388095Y-90124193D01*
X73388095Y-90124193D02*
X73150000Y-90124193D01*
X73150000Y-90124193D02*
X73030952Y-90064670D01*
X73030952Y-90064670D02*
X72911905Y-89945622D01*
X72911905Y-89945622D02*
X72852381Y-89707527D01*
X72852381Y-89707527D02*
X72852381Y-89290860D01*
X72852381Y-89290860D02*
X72911905Y-89052765D01*
X72911905Y-89052765D02*
X73030952Y-88933717D01*
X73030952Y-88933717D02*
X73150000Y-88874193D01*
X74102381Y-88874193D02*
X74935714Y-88874193D01*
X74935714Y-88874193D02*
X74102381Y-90124193D01*
X74102381Y-90124193D02*
X74935714Y-90124193D01*
X76364286Y-90124193D02*
X76364286Y-88874193D01*
X76364286Y-89469431D02*
X77078571Y-89469431D01*
X77078571Y-90124193D02*
X77078571Y-88874193D01*
X77911905Y-88874193D02*
X78150000Y-88874193D01*
X78150000Y-88874193D02*
X78269048Y-88933717D01*
X78269048Y-88933717D02*
X78388095Y-89052765D01*
X78388095Y-89052765D02*
X78447619Y-89290860D01*
X78447619Y-89290860D02*
X78447619Y-89707527D01*
X78447619Y-89707527D02*
X78388095Y-89945622D01*
X78388095Y-89945622D02*
X78269048Y-90064670D01*
X78269048Y-90064670D02*
X78150000Y-90124193D01*
X78150000Y-90124193D02*
X77911905Y-90124193D01*
X77911905Y-90124193D02*
X77792857Y-90064670D01*
X77792857Y-90064670D02*
X77673810Y-89945622D01*
X77673810Y-89945622D02*
X77614286Y-89707527D01*
X77614286Y-89707527D02*
X77614286Y-89290860D01*
X77614286Y-89290860D02*
X77673810Y-89052765D01*
X77673810Y-89052765D02*
X77792857Y-88933717D01*
X77792857Y-88933717D02*
X77911905Y-88874193D01*
X79697619Y-90124193D02*
X79280953Y-89528955D01*
X78983334Y-90124193D02*
X78983334Y-88874193D01*
X78983334Y-88874193D02*
X79459524Y-88874193D01*
X79459524Y-88874193D02*
X79578572Y-88933717D01*
X79578572Y-88933717D02*
X79638095Y-88993241D01*
X79638095Y-88993241D02*
X79697619Y-89112289D01*
X79697619Y-89112289D02*
X79697619Y-89290860D01*
X79697619Y-89290860D02*
X79638095Y-89409908D01*
X79638095Y-89409908D02*
X79578572Y-89469431D01*
X79578572Y-89469431D02*
X79459524Y-89528955D01*
X79459524Y-89528955D02*
X78983334Y-89528955D01*
X80233334Y-90124193D02*
X80233334Y-88874193D01*
X80233334Y-88874193D02*
X80947619Y-90124193D01*
X80947619Y-90124193D02*
X80947619Y-88874193D01*
X81542858Y-89469431D02*
X81959524Y-89469431D01*
X82138096Y-90124193D02*
X81542858Y-90124193D01*
X81542858Y-90124193D02*
X81542858Y-88874193D01*
X81542858Y-88874193D02*
X82138096Y-88874193D01*
X82495238Y-88874193D02*
X83209524Y-88874193D01*
X82852381Y-90124193D02*
X82852381Y-88874193D01*
X121911905Y-61292219D02*
X121911905Y-60292219D01*
X121911905Y-60292219D02*
X122292857Y-60292219D01*
X122292857Y-60292219D02*
X122388095Y-60339838D01*
X122388095Y-60339838D02*
X122435714Y-60387457D01*
X122435714Y-60387457D02*
X122483333Y-60482695D01*
X122483333Y-60482695D02*
X122483333Y-60625552D01*
X122483333Y-60625552D02*
X122435714Y-60720790D01*
X122435714Y-60720790D02*
X122388095Y-60768409D01*
X122388095Y-60768409D02*
X122292857Y-60816028D01*
X122292857Y-60816028D02*
X121911905Y-60816028D01*
X123102381Y-60292219D02*
X123292857Y-60292219D01*
X123292857Y-60292219D02*
X123388095Y-60339838D01*
X123388095Y-60339838D02*
X123483333Y-60435076D01*
X123483333Y-60435076D02*
X123530952Y-60625552D01*
X123530952Y-60625552D02*
X123530952Y-60958885D01*
X123530952Y-60958885D02*
X123483333Y-61149361D01*
X123483333Y-61149361D02*
X123388095Y-61244600D01*
X123388095Y-61244600D02*
X123292857Y-61292219D01*
X123292857Y-61292219D02*
X123102381Y-61292219D01*
X123102381Y-61292219D02*
X123007143Y-61244600D01*
X123007143Y-61244600D02*
X122911905Y-61149361D01*
X122911905Y-61149361D02*
X122864286Y-60958885D01*
X122864286Y-60958885D02*
X122864286Y-60625552D01*
X122864286Y-60625552D02*
X122911905Y-60435076D01*
X122911905Y-60435076D02*
X123007143Y-60339838D01*
X123007143Y-60339838D02*
X123102381Y-60292219D01*
X123864286Y-60292219D02*
X124102381Y-61292219D01*
X124102381Y-61292219D02*
X124292857Y-60577933D01*
X124292857Y-60577933D02*
X124483333Y-61292219D01*
X124483333Y-61292219D02*
X124721429Y-60292219D01*
X125102381Y-60768409D02*
X125435714Y-60768409D01*
X125578571Y-61292219D02*
X125102381Y-61292219D01*
X125102381Y-61292219D02*
X125102381Y-60292219D01*
X125102381Y-60292219D02*
X125578571Y-60292219D01*
X126578571Y-61292219D02*
X126245238Y-60816028D01*
X126007143Y-61292219D02*
X126007143Y-60292219D01*
X126007143Y-60292219D02*
X126388095Y-60292219D01*
X126388095Y-60292219D02*
X126483333Y-60339838D01*
X126483333Y-60339838D02*
X126530952Y-60387457D01*
X126530952Y-60387457D02*
X126578571Y-60482695D01*
X126578571Y-60482695D02*
X126578571Y-60625552D01*
X126578571Y-60625552D02*
X126530952Y-60720790D01*
X126530952Y-60720790D02*
X126483333Y-60768409D01*
X126483333Y-60768409D02*
X126388095Y-60816028D01*
X126388095Y-60816028D02*
X126007143Y-60816028D01*
X127959524Y-60292219D02*
X128150000Y-60292219D01*
X128150000Y-60292219D02*
X128245238Y-60339838D01*
X128245238Y-60339838D02*
X128340476Y-60435076D01*
X128340476Y-60435076D02*
X128388095Y-60625552D01*
X128388095Y-60625552D02*
X128388095Y-60958885D01*
X128388095Y-60958885D02*
X128340476Y-61149361D01*
X128340476Y-61149361D02*
X128245238Y-61244600D01*
X128245238Y-61244600D02*
X128150000Y-61292219D01*
X128150000Y-61292219D02*
X127959524Y-61292219D01*
X127959524Y-61292219D02*
X127864286Y-61244600D01*
X127864286Y-61244600D02*
X127769048Y-61149361D01*
X127769048Y-61149361D02*
X127721429Y-60958885D01*
X127721429Y-60958885D02*
X127721429Y-60625552D01*
X127721429Y-60625552D02*
X127769048Y-60435076D01*
X127769048Y-60435076D02*
X127864286Y-60339838D01*
X127864286Y-60339838D02*
X127959524Y-60292219D01*
X128816667Y-61292219D02*
X128816667Y-60292219D01*
X128816667Y-60292219D02*
X129388095Y-61292219D01*
X129388095Y-61292219D02*
X129388095Y-60292219D01*
D16*
X120809819Y-103834523D02*
X121524104Y-103834523D01*
X121524104Y-103834523D02*
X121666961Y-103882142D01*
X121666961Y-103882142D02*
X121762200Y-103977380D01*
X121762200Y-103977380D02*
X121809819Y-104120237D01*
X121809819Y-104120237D02*
X121809819Y-104215475D01*
X121809819Y-102834523D02*
X121809819Y-103405951D01*
X121809819Y-103120237D02*
X120809819Y-103120237D01*
X120809819Y-103120237D02*
X120952676Y-103215475D01*
X120952676Y-103215475D02*
X121047914Y-103310713D01*
X121047914Y-103310713D02*
X121095533Y-103405951D01*
X121143152Y-101977380D02*
X121809819Y-101977380D01*
X120762200Y-102215475D02*
X121476485Y-102453570D01*
X121476485Y-102453570D02*
X121476485Y-101834523D01*
X91020819Y-70784333D02*
X91735104Y-70784333D01*
X91735104Y-70784333D02*
X91877961Y-70831952D01*
X91877961Y-70831952D02*
X91973200Y-70927190D01*
X91973200Y-70927190D02*
X92020819Y-71070047D01*
X92020819Y-71070047D02*
X92020819Y-71165285D01*
X91020819Y-69879571D02*
X91020819Y-70070047D01*
X91020819Y-70070047D02*
X91068438Y-70165285D01*
X91068438Y-70165285D02*
X91116057Y-70212904D01*
X91116057Y-70212904D02*
X91258914Y-70308142D01*
X91258914Y-70308142D02*
X91449390Y-70355761D01*
X91449390Y-70355761D02*
X91830342Y-70355761D01*
X91830342Y-70355761D02*
X91925580Y-70308142D01*
X91925580Y-70308142D02*
X91973200Y-70260523D01*
X91973200Y-70260523D02*
X92020819Y-70165285D01*
X92020819Y-70165285D02*
X92020819Y-69974809D01*
X92020819Y-69974809D02*
X91973200Y-69879571D01*
X91973200Y-69879571D02*
X91925580Y-69831952D01*
X91925580Y-69831952D02*
X91830342Y-69784333D01*
X91830342Y-69784333D02*
X91592247Y-69784333D01*
X91592247Y-69784333D02*
X91497009Y-69831952D01*
X91497009Y-69831952D02*
X91449390Y-69879571D01*
X91449390Y-69879571D02*
X91401771Y-69974809D01*
X91401771Y-69974809D02*
X91401771Y-70165285D01*
X91401771Y-70165285D02*
X91449390Y-70260523D01*
X91449390Y-70260523D02*
X91497009Y-70308142D01*
X91497009Y-70308142D02*
X91592247Y-70355761D01*
X91140819Y-88720523D02*
X91855104Y-88720523D01*
X91855104Y-88720523D02*
X91997961Y-88768142D01*
X91997961Y-88768142D02*
X92093200Y-88863380D01*
X92093200Y-88863380D02*
X92140819Y-89006237D01*
X92140819Y-89006237D02*
X92140819Y-89101475D01*
X92140819Y-87720523D02*
X92140819Y-88291951D01*
X92140819Y-88006237D02*
X91140819Y-88006237D01*
X91140819Y-88006237D02*
X91283676Y-88101475D01*
X91283676Y-88101475D02*
X91378914Y-88196713D01*
X91378914Y-88196713D02*
X91426533Y-88291951D01*
X91140819Y-87101475D02*
X91140819Y-87006237D01*
X91140819Y-87006237D02*
X91188438Y-86910999D01*
X91188438Y-86910999D02*
X91236057Y-86863380D01*
X91236057Y-86863380D02*
X91331295Y-86815761D01*
X91331295Y-86815761D02*
X91521771Y-86768142D01*
X91521771Y-86768142D02*
X91759866Y-86768142D01*
X91759866Y-86768142D02*
X91950342Y-86815761D01*
X91950342Y-86815761D02*
X92045580Y-86863380D01*
X92045580Y-86863380D02*
X92093200Y-86910999D01*
X92093200Y-86910999D02*
X92140819Y-87006237D01*
X92140819Y-87006237D02*
X92140819Y-87101475D01*
X92140819Y-87101475D02*
X92093200Y-87196713D01*
X92093200Y-87196713D02*
X92045580Y-87244332D01*
X92045580Y-87244332D02*
X91950342Y-87291951D01*
X91950342Y-87291951D02*
X91759866Y-87339570D01*
X91759866Y-87339570D02*
X91521771Y-87339570D01*
X91521771Y-87339570D02*
X91331295Y-87291951D01*
X91331295Y-87291951D02*
X91236057Y-87244332D01*
X91236057Y-87244332D02*
X91188438Y-87196713D01*
X91188438Y-87196713D02*
X91140819Y-87101475D01*
X121166666Y-49829819D02*
X121166666Y-50544104D01*
X121166666Y-50544104D02*
X121119047Y-50686961D01*
X121119047Y-50686961D02*
X121023809Y-50782200D01*
X121023809Y-50782200D02*
X120880952Y-50829819D01*
X120880952Y-50829819D02*
X120785714Y-50829819D01*
X121547619Y-49829819D02*
X122166666Y-49829819D01*
X122166666Y-49829819D02*
X121833333Y-50210771D01*
X121833333Y-50210771D02*
X121976190Y-50210771D01*
X121976190Y-50210771D02*
X122071428Y-50258390D01*
X122071428Y-50258390D02*
X122119047Y-50306009D01*
X122119047Y-50306009D02*
X122166666Y-50401247D01*
X122166666Y-50401247D02*
X122166666Y-50639342D01*
X122166666Y-50639342D02*
X122119047Y-50734580D01*
X122119047Y-50734580D02*
X122071428Y-50782200D01*
X122071428Y-50782200D02*
X121976190Y-50829819D01*
X121976190Y-50829819D02*
X121690476Y-50829819D01*
X121690476Y-50829819D02*
X121595238Y-50782200D01*
X121595238Y-50782200D02*
X121547619Y-50734580D01*
X106136819Y-130169333D02*
X106851104Y-130169333D01*
X106851104Y-130169333D02*
X106993961Y-130216952D01*
X106993961Y-130216952D02*
X107089200Y-130312190D01*
X107089200Y-130312190D02*
X107136819Y-130455047D01*
X107136819Y-130455047D02*
X107136819Y-130550285D01*
X106565390Y-129550285D02*
X106517771Y-129645523D01*
X106517771Y-129645523D02*
X106470152Y-129693142D01*
X106470152Y-129693142D02*
X106374914Y-129740761D01*
X106374914Y-129740761D02*
X106327295Y-129740761D01*
X106327295Y-129740761D02*
X106232057Y-129693142D01*
X106232057Y-129693142D02*
X106184438Y-129645523D01*
X106184438Y-129645523D02*
X106136819Y-129550285D01*
X106136819Y-129550285D02*
X106136819Y-129359809D01*
X106136819Y-129359809D02*
X106184438Y-129264571D01*
X106184438Y-129264571D02*
X106232057Y-129216952D01*
X106232057Y-129216952D02*
X106327295Y-129169333D01*
X106327295Y-129169333D02*
X106374914Y-129169333D01*
X106374914Y-129169333D02*
X106470152Y-129216952D01*
X106470152Y-129216952D02*
X106517771Y-129264571D01*
X106517771Y-129264571D02*
X106565390Y-129359809D01*
X106565390Y-129359809D02*
X106565390Y-129550285D01*
X106565390Y-129550285D02*
X106613009Y-129645523D01*
X106613009Y-129645523D02*
X106660628Y-129693142D01*
X106660628Y-129693142D02*
X106755866Y-129740761D01*
X106755866Y-129740761D02*
X106946342Y-129740761D01*
X106946342Y-129740761D02*
X107041580Y-129693142D01*
X107041580Y-129693142D02*
X107089200Y-129645523D01*
X107089200Y-129645523D02*
X107136819Y-129550285D01*
X107136819Y-129550285D02*
X107136819Y-129359809D01*
X107136819Y-129359809D02*
X107089200Y-129264571D01*
X107089200Y-129264571D02*
X107041580Y-129216952D01*
X107041580Y-129216952D02*
X106946342Y-129169333D01*
X106946342Y-129169333D02*
X106755866Y-129169333D01*
X106755866Y-129169333D02*
X106660628Y-129216952D01*
X106660628Y-129216952D02*
X106613009Y-129264571D01*
X106613009Y-129264571D02*
X106565390Y-129359809D01*
X105296819Y-113669333D02*
X106011104Y-113669333D01*
X106011104Y-113669333D02*
X106153961Y-113716952D01*
X106153961Y-113716952D02*
X106249200Y-113812190D01*
X106249200Y-113812190D02*
X106296819Y-113955047D01*
X106296819Y-113955047D02*
X106296819Y-114050285D01*
X105630152Y-112764571D02*
X106296819Y-112764571D01*
X105249200Y-113002666D02*
X105963485Y-113240761D01*
X105963485Y-113240761D02*
X105963485Y-112621714D01*
X110444819Y-88588333D02*
X111159104Y-88588333D01*
X111159104Y-88588333D02*
X111301961Y-88635952D01*
X111301961Y-88635952D02*
X111397200Y-88731190D01*
X111397200Y-88731190D02*
X111444819Y-88874047D01*
X111444819Y-88874047D02*
X111444819Y-88969285D01*
X111444819Y-87588333D02*
X111444819Y-88159761D01*
X111444819Y-87874047D02*
X110444819Y-87874047D01*
X110444819Y-87874047D02*
X110587676Y-87969285D01*
X110587676Y-87969285D02*
X110682914Y-88064523D01*
X110682914Y-88064523D02*
X110730533Y-88159761D01*
X68159580Y-17076499D02*
X68207200Y-17028880D01*
X68207200Y-17028880D02*
X68254819Y-17076499D01*
X68254819Y-17076499D02*
X68207200Y-17124118D01*
X68207200Y-17124118D02*
X68159580Y-17076499D01*
X68159580Y-17076499D02*
X68254819Y-17076499D01*
X77534094Y-94240180D02*
X77534094Y-95240180D01*
X77534094Y-95240180D02*
X77295999Y-95240180D01*
X77295999Y-95240180D02*
X77153142Y-95192561D01*
X77153142Y-95192561D02*
X77057904Y-95097323D01*
X77057904Y-95097323D02*
X77010285Y-95002085D01*
X77010285Y-95002085D02*
X76962666Y-94811609D01*
X76962666Y-94811609D02*
X76962666Y-94668752D01*
X76962666Y-94668752D02*
X77010285Y-94478276D01*
X77010285Y-94478276D02*
X77057904Y-94383038D01*
X77057904Y-94383038D02*
X77153142Y-94287800D01*
X77153142Y-94287800D02*
X77295999Y-94240180D01*
X77295999Y-94240180D02*
X77534094Y-94240180D01*
X76343618Y-95240180D02*
X76248380Y-95240180D01*
X76248380Y-95240180D02*
X76153142Y-95192561D01*
X76153142Y-95192561D02*
X76105523Y-95144942D01*
X76105523Y-95144942D02*
X76057904Y-95049704D01*
X76057904Y-95049704D02*
X76010285Y-94859228D01*
X76010285Y-94859228D02*
X76010285Y-94621133D01*
X76010285Y-94621133D02*
X76057904Y-94430657D01*
X76057904Y-94430657D02*
X76105523Y-94335419D01*
X76105523Y-94335419D02*
X76153142Y-94287800D01*
X76153142Y-94287800D02*
X76248380Y-94240180D01*
X76248380Y-94240180D02*
X76343618Y-94240180D01*
X76343618Y-94240180D02*
X76438856Y-94287800D01*
X76438856Y-94287800D02*
X76486475Y-94335419D01*
X76486475Y-94335419D02*
X76534094Y-94430657D01*
X76534094Y-94430657D02*
X76581713Y-94621133D01*
X76581713Y-94621133D02*
X76581713Y-94859228D01*
X76581713Y-94859228D02*
X76534094Y-95049704D01*
X76534094Y-95049704D02*
X76486475Y-95144942D01*
X76486475Y-95144942D02*
X76438856Y-95192561D01*
X76438856Y-95192561D02*
X76343618Y-95240180D01*
X135676819Y-130209333D02*
X136391104Y-130209333D01*
X136391104Y-130209333D02*
X136533961Y-130256952D01*
X136533961Y-130256952D02*
X136629200Y-130352190D01*
X136629200Y-130352190D02*
X136676819Y-130495047D01*
X136676819Y-130495047D02*
X136676819Y-130590285D01*
X136676819Y-129685523D02*
X136676819Y-129495047D01*
X136676819Y-129495047D02*
X136629200Y-129399809D01*
X136629200Y-129399809D02*
X136581580Y-129352190D01*
X136581580Y-129352190D02*
X136438723Y-129256952D01*
X136438723Y-129256952D02*
X136248247Y-129209333D01*
X136248247Y-129209333D02*
X135867295Y-129209333D01*
X135867295Y-129209333D02*
X135772057Y-129256952D01*
X135772057Y-129256952D02*
X135724438Y-129304571D01*
X135724438Y-129304571D02*
X135676819Y-129399809D01*
X135676819Y-129399809D02*
X135676819Y-129590285D01*
X135676819Y-129590285D02*
X135724438Y-129685523D01*
X135724438Y-129685523D02*
X135772057Y-129733142D01*
X135772057Y-129733142D02*
X135867295Y-129780761D01*
X135867295Y-129780761D02*
X136105390Y-129780761D01*
X136105390Y-129780761D02*
X136200628Y-129733142D01*
X136200628Y-129733142D02*
X136248247Y-129685523D01*
X136248247Y-129685523D02*
X136295866Y-129590285D01*
X136295866Y-129590285D02*
X136295866Y-129399809D01*
X136295866Y-129399809D02*
X136248247Y-129304571D01*
X136248247Y-129304571D02*
X136200628Y-129256952D01*
X136200628Y-129256952D02*
X136105390Y-129209333D01*
X110260819Y-70628333D02*
X110975104Y-70628333D01*
X110975104Y-70628333D02*
X111117961Y-70675952D01*
X111117961Y-70675952D02*
X111213200Y-70771190D01*
X111213200Y-70771190D02*
X111260819Y-70914047D01*
X111260819Y-70914047D02*
X111260819Y-71009285D01*
X110356057Y-70199761D02*
X110308438Y-70152142D01*
X110308438Y-70152142D02*
X110260819Y-70056904D01*
X110260819Y-70056904D02*
X110260819Y-69818809D01*
X110260819Y-69818809D02*
X110308438Y-69723571D01*
X110308438Y-69723571D02*
X110356057Y-69675952D01*
X110356057Y-69675952D02*
X110451295Y-69628333D01*
X110451295Y-69628333D02*
X110546533Y-69628333D01*
X110546533Y-69628333D02*
X110689390Y-69675952D01*
X110689390Y-69675952D02*
X111260819Y-70247380D01*
X111260819Y-70247380D02*
X111260819Y-69628333D01*
X81876819Y-130669333D02*
X82591104Y-130669333D01*
X82591104Y-130669333D02*
X82733961Y-130716952D01*
X82733961Y-130716952D02*
X82829200Y-130812190D01*
X82829200Y-130812190D02*
X82876819Y-130955047D01*
X82876819Y-130955047D02*
X82876819Y-131050285D01*
X81876819Y-130288380D02*
X81876819Y-129621714D01*
X81876819Y-129621714D02*
X82876819Y-130050285D01*
X52609819Y-57749523D02*
X53324104Y-57749523D01*
X53324104Y-57749523D02*
X53466961Y-57797142D01*
X53466961Y-57797142D02*
X53562200Y-57892380D01*
X53562200Y-57892380D02*
X53609819Y-58035237D01*
X53609819Y-58035237D02*
X53609819Y-58130475D01*
X53609819Y-56749523D02*
X53609819Y-57320951D01*
X53609819Y-57035237D02*
X52609819Y-57035237D01*
X52609819Y-57035237D02*
X52752676Y-57130475D01*
X52752676Y-57130475D02*
X52847914Y-57225713D01*
X52847914Y-57225713D02*
X52895533Y-57320951D01*
X52609819Y-55844761D02*
X52609819Y-56320951D01*
X52609819Y-56320951D02*
X53086009Y-56368570D01*
X53086009Y-56368570D02*
X53038390Y-56320951D01*
X53038390Y-56320951D02*
X52990771Y-56225713D01*
X52990771Y-56225713D02*
X52990771Y-55987618D01*
X52990771Y-55987618D02*
X53038390Y-55892380D01*
X53038390Y-55892380D02*
X53086009Y-55844761D01*
X53086009Y-55844761D02*
X53181247Y-55797142D01*
X53181247Y-55797142D02*
X53419342Y-55797142D01*
X53419342Y-55797142D02*
X53514580Y-55844761D01*
X53514580Y-55844761D02*
X53562200Y-55892380D01*
X53562200Y-55892380D02*
X53609819Y-55987618D01*
X53609819Y-55987618D02*
X53609819Y-56225713D01*
X53609819Y-56225713D02*
X53562200Y-56320951D01*
X53562200Y-56320951D02*
X53514580Y-56368570D01*
X135876819Y-114209333D02*
X136591104Y-114209333D01*
X136591104Y-114209333D02*
X136733961Y-114256952D01*
X136733961Y-114256952D02*
X136829200Y-114352190D01*
X136829200Y-114352190D02*
X136876819Y-114495047D01*
X136876819Y-114495047D02*
X136876819Y-114590285D01*
X135876819Y-113256952D02*
X135876819Y-113733142D01*
X135876819Y-113733142D02*
X136353009Y-113780761D01*
X136353009Y-113780761D02*
X136305390Y-113733142D01*
X136305390Y-113733142D02*
X136257771Y-113637904D01*
X136257771Y-113637904D02*
X136257771Y-113399809D01*
X136257771Y-113399809D02*
X136305390Y-113304571D01*
X136305390Y-113304571D02*
X136353009Y-113256952D01*
X136353009Y-113256952D02*
X136448247Y-113209333D01*
X136448247Y-113209333D02*
X136686342Y-113209333D01*
X136686342Y-113209333D02*
X136781580Y-113256952D01*
X136781580Y-113256952D02*
X136829200Y-113304571D01*
X136829200Y-113304571D02*
X136876819Y-113399809D01*
X136876819Y-113399809D02*
X136876819Y-113637904D01*
X136876819Y-113637904D02*
X136829200Y-113733142D01*
X136829200Y-113733142D02*
X136781580Y-113780761D01*
X131715714Y-61919819D02*
X131715714Y-60919819D01*
X131715714Y-60919819D02*
X131953809Y-60919819D01*
X131953809Y-60919819D02*
X132096666Y-60967438D01*
X132096666Y-60967438D02*
X132191904Y-61062676D01*
X132191904Y-61062676D02*
X132239523Y-61157914D01*
X132239523Y-61157914D02*
X132287142Y-61348390D01*
X132287142Y-61348390D02*
X132287142Y-61491247D01*
X132287142Y-61491247D02*
X132239523Y-61681723D01*
X132239523Y-61681723D02*
X132191904Y-61776961D01*
X132191904Y-61776961D02*
X132096666Y-61872200D01*
X132096666Y-61872200D02*
X131953809Y-61919819D01*
X131953809Y-61919819D02*
X131715714Y-61919819D01*
X133239523Y-61919819D02*
X132668095Y-61919819D01*
X132953809Y-61919819D02*
X132953809Y-60919819D01*
X132953809Y-60919819D02*
X132858571Y-61062676D01*
X132858571Y-61062676D02*
X132763333Y-61157914D01*
X132763333Y-61157914D02*
X132668095Y-61205533D01*
X134144285Y-60919819D02*
X133668095Y-60919819D01*
X133668095Y-60919819D02*
X133620476Y-61396009D01*
X133620476Y-61396009D02*
X133668095Y-61348390D01*
X133668095Y-61348390D02*
X133763333Y-61300771D01*
X133763333Y-61300771D02*
X134001428Y-61300771D01*
X134001428Y-61300771D02*
X134096666Y-61348390D01*
X134096666Y-61348390D02*
X134144285Y-61396009D01*
X134144285Y-61396009D02*
X134191904Y-61491247D01*
X134191904Y-61491247D02*
X134191904Y-61729342D01*
X134191904Y-61729342D02*
X134144285Y-61824580D01*
X134144285Y-61824580D02*
X134096666Y-61872200D01*
X134096666Y-61872200D02*
X134001428Y-61919819D01*
X134001428Y-61919819D02*
X133763333Y-61919819D01*
X133763333Y-61919819D02*
X133668095Y-61872200D01*
X133668095Y-61872200D02*
X133620476Y-61824580D01*
X83374819Y-103984523D02*
X84089104Y-103984523D01*
X84089104Y-103984523D02*
X84231961Y-104032142D01*
X84231961Y-104032142D02*
X84327200Y-104127380D01*
X84327200Y-104127380D02*
X84374819Y-104270237D01*
X84374819Y-104270237D02*
X84374819Y-104365475D01*
X84374819Y-102984523D02*
X84374819Y-103555951D01*
X84374819Y-103270237D02*
X83374819Y-103270237D01*
X83374819Y-103270237D02*
X83517676Y-103365475D01*
X83517676Y-103365475D02*
X83612914Y-103460713D01*
X83612914Y-103460713D02*
X83660533Y-103555951D01*
X83374819Y-102651189D02*
X83374819Y-102032142D01*
X83374819Y-102032142D02*
X83755771Y-102365475D01*
X83755771Y-102365475D02*
X83755771Y-102222618D01*
X83755771Y-102222618D02*
X83803390Y-102127380D01*
X83803390Y-102127380D02*
X83851009Y-102079761D01*
X83851009Y-102079761D02*
X83946247Y-102032142D01*
X83946247Y-102032142D02*
X84184342Y-102032142D01*
X84184342Y-102032142D02*
X84279580Y-102079761D01*
X84279580Y-102079761D02*
X84327200Y-102127380D01*
X84327200Y-102127380D02*
X84374819Y-102222618D01*
X84374819Y-102222618D02*
X84374819Y-102508332D01*
X84374819Y-102508332D02*
X84327200Y-102603570D01*
X84327200Y-102603570D02*
X84279580Y-102651189D01*
X81536819Y-114145523D02*
X82251104Y-114145523D01*
X82251104Y-114145523D02*
X82393961Y-114193142D01*
X82393961Y-114193142D02*
X82489200Y-114288380D01*
X82489200Y-114288380D02*
X82536819Y-114431237D01*
X82536819Y-114431237D02*
X82536819Y-114526475D01*
X82536819Y-113145523D02*
X82536819Y-113716951D01*
X82536819Y-113431237D02*
X81536819Y-113431237D01*
X81536819Y-113431237D02*
X81679676Y-113526475D01*
X81679676Y-113526475D02*
X81774914Y-113621713D01*
X81774914Y-113621713D02*
X81822533Y-113716951D01*
X82536819Y-112193142D02*
X82536819Y-112764570D01*
X82536819Y-112478856D02*
X81536819Y-112478856D01*
X81536819Y-112478856D02*
X81679676Y-112574094D01*
X81679676Y-112574094D02*
X81774914Y-112669332D01*
X81774914Y-112669332D02*
X81822533Y-112764570D01*
X124761042Y-62838219D02*
X124427709Y-62362028D01*
X124189614Y-62838219D02*
X124189614Y-61838219D01*
X124189614Y-61838219D02*
X124570566Y-61838219D01*
X124570566Y-61838219D02*
X124665804Y-61885838D01*
X124665804Y-61885838D02*
X124713423Y-61933457D01*
X124713423Y-61933457D02*
X124761042Y-62028695D01*
X124761042Y-62028695D02*
X124761042Y-62171552D01*
X124761042Y-62171552D02*
X124713423Y-62266790D01*
X124713423Y-62266790D02*
X124665804Y-62314409D01*
X124665804Y-62314409D02*
X124570566Y-62362028D01*
X124570566Y-62362028D02*
X124189614Y-62362028D01*
X125713423Y-62838219D02*
X125141995Y-62838219D01*
X125427709Y-62838219D02*
X125427709Y-61838219D01*
X125427709Y-61838219D02*
X125332471Y-61981076D01*
X125332471Y-61981076D02*
X125237233Y-62076314D01*
X125237233Y-62076314D02*
X125141995Y-62123933D01*
X126618185Y-61838219D02*
X126141995Y-61838219D01*
X126141995Y-61838219D02*
X126094376Y-62314409D01*
X126094376Y-62314409D02*
X126141995Y-62266790D01*
X126141995Y-62266790D02*
X126237233Y-62219171D01*
X126237233Y-62219171D02*
X126475328Y-62219171D01*
X126475328Y-62219171D02*
X126570566Y-62266790D01*
X126570566Y-62266790D02*
X126618185Y-62314409D01*
X126618185Y-62314409D02*
X126665804Y-62409647D01*
X126665804Y-62409647D02*
X126665804Y-62647742D01*
X126665804Y-62647742D02*
X126618185Y-62742980D01*
X126618185Y-62742980D02*
X126570566Y-62790600D01*
X126570566Y-62790600D02*
X126475328Y-62838219D01*
X126475328Y-62838219D02*
X126237233Y-62838219D01*
X126237233Y-62838219D02*
X126141995Y-62790600D01*
X126141995Y-62790600D02*
X126094376Y-62742980D01*
D17*
%TO.C,J14*%
X94835000Y-101695000D02*
X94835000Y-104355000D01*
X117755000Y-101695000D02*
X94835000Y-101695000D01*
X117755000Y-101695000D02*
X117755000Y-104355000D01*
X117755000Y-104355000D02*
X94835000Y-104355000D01*
X119025000Y-101695000D02*
X120355000Y-101695000D01*
X120355000Y-101695000D02*
X120355000Y-103025000D01*
%TO.C,J6*%
X57396000Y-65891000D02*
X90676000Y-65891000D01*
X57396000Y-75011000D02*
X57396000Y-65891000D01*
X58696000Y-67201000D02*
X71986000Y-67201000D01*
X58696000Y-73701000D02*
X58696000Y-67201000D01*
X71986000Y-67201000D02*
X71986000Y-65891000D01*
X71986000Y-67201000D02*
X71986000Y-67201000D01*
X76086000Y-65891000D02*
X76086000Y-67201000D01*
X76086000Y-67201000D02*
X89376000Y-67201000D01*
X84966000Y-64501000D02*
X85466000Y-65501000D01*
X85466000Y-65501000D02*
X85966000Y-64501000D01*
X85966000Y-64501000D02*
X84966000Y-64501000D01*
X89376000Y-67201000D02*
X89376000Y-73701000D01*
X89376000Y-73701000D02*
X58696000Y-73701000D01*
X90676000Y-65891000D02*
X90676000Y-75011000D01*
X90676000Y-75011000D02*
X57396000Y-75011000D01*
%TO.C,J10*%
X57516000Y-83351000D02*
X90796000Y-83351000D01*
X57516000Y-92471000D02*
X57516000Y-83351000D01*
X58816000Y-84661000D02*
X72106000Y-84661000D01*
X58816000Y-91161000D02*
X58816000Y-84661000D01*
X72106000Y-84661000D02*
X72106000Y-83351000D01*
X72106000Y-84661000D02*
X72106000Y-84661000D01*
X76206000Y-83351000D02*
X76206000Y-84661000D01*
X76206000Y-84661000D02*
X89496000Y-84661000D01*
X85086000Y-81961000D02*
X85586000Y-82961000D01*
X85586000Y-82961000D02*
X86086000Y-81961000D01*
X86086000Y-81961000D02*
X85086000Y-81961000D01*
X89496000Y-84661000D02*
X89496000Y-91161000D01*
X89496000Y-91161000D02*
X58816000Y-91161000D01*
X90796000Y-83351000D02*
X90796000Y-92471000D01*
X90796000Y-92471000D02*
X57516000Y-92471000D01*
%TO.C,J3*%
X117340000Y-51165000D02*
X117340000Y-52415000D01*
X117640000Y-51465000D02*
X117640000Y-58085000D01*
X117640000Y-54775000D02*
X118650000Y-54775000D01*
X117640000Y-58085000D02*
X125360000Y-58085000D01*
X118590000Y-51165000D02*
X117340000Y-51165000D01*
X118650000Y-53075000D02*
X118650000Y-57375000D01*
X118650000Y-57375000D02*
X124350000Y-57375000D01*
X119900000Y-51465000D02*
X117640000Y-51465000D01*
X119900000Y-52465000D02*
X119900000Y-51465000D01*
X121100000Y-51865000D02*
X121100000Y-52465000D01*
X121100000Y-52465000D02*
X119900000Y-52465000D01*
X121900000Y-51865000D02*
X121100000Y-51865000D01*
X121900000Y-52465000D02*
X121900000Y-51865000D01*
X123100000Y-51465000D02*
X123100000Y-52465000D01*
X123100000Y-52465000D02*
X121900000Y-52465000D01*
X124350000Y-53075000D02*
X118650000Y-53075000D01*
X124350000Y-57375000D02*
X124350000Y-53075000D01*
X125360000Y-51465000D02*
X123100000Y-51465000D01*
X125360000Y-54775000D02*
X124350000Y-54775000D01*
X125360000Y-58085000D02*
X125360000Y-51465000D01*
%TO.C,J8*%
X85212000Y-125276000D02*
X105792000Y-125276000D01*
X85212000Y-134396000D02*
X85212000Y-125276000D01*
X86512000Y-126586000D02*
X93452000Y-126586000D01*
X86512000Y-133086000D02*
X86512000Y-126586000D01*
X93452000Y-126586000D02*
X93452000Y-125276000D01*
X93452000Y-126586000D02*
X93452000Y-126586000D01*
X97552000Y-125276000D02*
X97552000Y-126586000D01*
X97552000Y-126586000D02*
X104492000Y-126586000D01*
X100082000Y-123886000D02*
X100582000Y-124886000D01*
X100582000Y-124886000D02*
X101082000Y-123886000D01*
X101082000Y-123886000D02*
X100082000Y-123886000D01*
X104492000Y-126586000D02*
X104492000Y-133086000D01*
X104492000Y-133086000D02*
X86512000Y-133086000D01*
X105792000Y-125276000D02*
X105792000Y-134396000D01*
X105792000Y-134396000D02*
X85212000Y-134396000D01*
%TO.C,J4*%
X84372000Y-108776000D02*
X104952000Y-108776000D01*
X84372000Y-117896000D02*
X84372000Y-108776000D01*
X85672000Y-110086000D02*
X92612000Y-110086000D01*
X85672000Y-116586000D02*
X85672000Y-110086000D01*
X92612000Y-110086000D02*
X92612000Y-108776000D01*
X92612000Y-110086000D02*
X92612000Y-110086000D01*
X96712000Y-108776000D02*
X96712000Y-110086000D01*
X96712000Y-110086000D02*
X103652000Y-110086000D01*
X99242000Y-107386000D02*
X99742000Y-108386000D01*
X99742000Y-108386000D02*
X100242000Y-107386000D01*
X100242000Y-107386000D02*
X99242000Y-107386000D01*
X103652000Y-110086000D02*
X103652000Y-116586000D01*
X103652000Y-116586000D02*
X85672000Y-116586000D01*
X104952000Y-108776000D02*
X104952000Y-117896000D01*
X104952000Y-117896000D02*
X84372000Y-117896000D01*
%TO.C,J1*%
X94600000Y-83695000D02*
X110100000Y-83695000D01*
X94600000Y-92815000D02*
X94600000Y-83695000D01*
X95900000Y-85005000D02*
X100300000Y-85005000D01*
X95900000Y-91505000D02*
X95900000Y-85005000D01*
X100300000Y-85005000D02*
X100300000Y-83695000D01*
X100300000Y-85005000D02*
X100300000Y-85005000D01*
X104390000Y-82305000D02*
X104890000Y-83305000D01*
X104400000Y-83695000D02*
X104400000Y-85005000D01*
X104400000Y-85005000D02*
X108800000Y-85005000D01*
X104890000Y-83305000D02*
X105390000Y-82305000D01*
X105390000Y-82305000D02*
X104390000Y-82305000D01*
X108800000Y-85005000D02*
X108800000Y-91505000D01*
X108800000Y-91505000D02*
X95900000Y-91505000D01*
X110100000Y-83695000D02*
X110100000Y-92815000D01*
X110100000Y-92815000D02*
X94600000Y-92815000D01*
%TO.C,J9*%
X109672000Y-125316000D02*
X135332000Y-125316000D01*
X109672000Y-134436000D02*
X109672000Y-125316000D01*
X110972000Y-126626000D02*
X120452000Y-126626000D01*
X110972000Y-133126000D02*
X110972000Y-126626000D01*
X120452000Y-126626000D02*
X120452000Y-125316000D01*
X120452000Y-126626000D02*
X120452000Y-126626000D01*
X124552000Y-125316000D02*
X124552000Y-126626000D01*
X124552000Y-126626000D02*
X134032000Y-126626000D01*
X129622000Y-123926000D02*
X130122000Y-124926000D01*
X130122000Y-124926000D02*
X130622000Y-123926000D01*
X130622000Y-123926000D02*
X129622000Y-123926000D01*
X134032000Y-126626000D02*
X134032000Y-133126000D01*
X134032000Y-133126000D02*
X110972000Y-133126000D01*
X135332000Y-125316000D02*
X135332000Y-134436000D01*
X135332000Y-134436000D02*
X109672000Y-134436000D01*
%TO.C,J2*%
X94416000Y-65735000D02*
X109916000Y-65735000D01*
X94416000Y-74855000D02*
X94416000Y-65735000D01*
X95716000Y-67045000D02*
X100116000Y-67045000D01*
X95716000Y-73545000D02*
X95716000Y-67045000D01*
X100116000Y-67045000D02*
X100116000Y-65735000D01*
X100116000Y-67045000D02*
X100116000Y-67045000D01*
X104206000Y-64345000D02*
X104706000Y-65345000D01*
X104216000Y-65735000D02*
X104216000Y-67045000D01*
X104216000Y-67045000D02*
X108616000Y-67045000D01*
X104706000Y-65345000D02*
X105206000Y-64345000D01*
X105206000Y-64345000D02*
X104206000Y-64345000D01*
X108616000Y-67045000D02*
X108616000Y-73545000D01*
X108616000Y-73545000D02*
X95716000Y-73545000D01*
X109916000Y-65735000D02*
X109916000Y-74855000D01*
X109916000Y-74855000D02*
X94416000Y-74855000D01*
%TO.C,J7*%
X40632000Y-125776000D02*
X81532000Y-125776000D01*
X40632000Y-134896000D02*
X40632000Y-125776000D01*
X41932000Y-127086000D02*
X59032000Y-127086000D01*
X41932000Y-133586000D02*
X41932000Y-127086000D01*
X59032000Y-127086000D02*
X59032000Y-125776000D01*
X59032000Y-127086000D02*
X59032000Y-127086000D01*
X63132000Y-125776000D02*
X63132000Y-127086000D01*
X63132000Y-127086000D02*
X80232000Y-127086000D01*
X75822000Y-124386000D02*
X76322000Y-125386000D01*
X76322000Y-125386000D02*
X76822000Y-124386000D01*
X76822000Y-124386000D02*
X75822000Y-124386000D01*
X80232000Y-127086000D02*
X80232000Y-133586000D01*
X80232000Y-133586000D02*
X41932000Y-133586000D01*
X81532000Y-125776000D02*
X81532000Y-134896000D01*
X81532000Y-134896000D02*
X40632000Y-134896000D01*
%TO.C,J15*%
X54245000Y-51750000D02*
X54245000Y-62130000D01*
X54245000Y-53930000D02*
X54845000Y-53930000D01*
X54245000Y-56470000D02*
X54845000Y-56470000D01*
X54245000Y-59010000D02*
X54845000Y-59010000D01*
X54245000Y-61550000D02*
X54845000Y-61550000D01*
X54245000Y-62130000D02*
X60265000Y-62130000D01*
X54845000Y-52330000D02*
X54245000Y-52330000D01*
X54845000Y-53930000D02*
X54845000Y-52330000D01*
X54845000Y-54870000D02*
X54245000Y-54870000D01*
X54845000Y-56470000D02*
X54845000Y-54870000D01*
X54845000Y-57410000D02*
X54245000Y-57410000D01*
X54845000Y-59010000D02*
X54845000Y-57410000D01*
X54845000Y-59950000D02*
X54245000Y-59950000D01*
X54845000Y-61550000D02*
X54845000Y-59950000D01*
X55275000Y-62420000D02*
X59275000Y-62420000D01*
X58735000Y-53380000D02*
X59265000Y-53130000D01*
X58735000Y-60500000D02*
X58735000Y-53380000D01*
X59265000Y-53130000D02*
X60265000Y-53130000D01*
X59265000Y-60750000D02*
X58735000Y-60500000D01*
X59265000Y-60750000D02*
X59265000Y-53130000D01*
X60265000Y-51750000D02*
X54245000Y-51750000D01*
X60265000Y-53380000D02*
X59265000Y-53380000D01*
X60265000Y-60500000D02*
X59265000Y-60500000D01*
X60265000Y-60750000D02*
X59265000Y-60750000D01*
X60265000Y-62130000D02*
X60265000Y-51750000D01*
%TO.C,J5*%
X109872000Y-109316000D02*
X135532000Y-109316000D01*
X109872000Y-118436000D02*
X109872000Y-109316000D01*
X111172000Y-110626000D02*
X120652000Y-110626000D01*
X111172000Y-117126000D02*
X111172000Y-110626000D01*
X120652000Y-110626000D02*
X120652000Y-109316000D01*
X120652000Y-110626000D02*
X120652000Y-110626000D01*
X124752000Y-109316000D02*
X124752000Y-110626000D01*
X124752000Y-110626000D02*
X134232000Y-110626000D01*
X129822000Y-107926000D02*
X130322000Y-108926000D01*
X130322000Y-108926000D02*
X130822000Y-107926000D01*
X130822000Y-107926000D02*
X129822000Y-107926000D01*
X134232000Y-110626000D02*
X134232000Y-117126000D01*
X134232000Y-117126000D02*
X111172000Y-117126000D01*
X135532000Y-109316000D02*
X135532000Y-118436000D01*
X135532000Y-118436000D02*
X109872000Y-118436000D01*
%TO.C,D15*%
X131370000Y-63189000D02*
X131370000Y-63345000D01*
X131370000Y-65505000D02*
X131370000Y-65661000D01*
X131370000Y-63189484D02*
G75*
G02*
X134601397Y-63344939I1560000J-1235516D01*
G01*
X131889039Y-63345000D02*
G75*
G02*
X133970910Y-63344951I1040961J-1080000D01*
G01*
X133970910Y-65505049D02*
G75*
G02*
X131889039Y-65505000I-1040910J1080049D01*
G01*
X134601397Y-65505061D02*
G75*
G02*
X131370000Y-65660516I-1671397J1080061D01*
G01*
%TO.C,J13*%
X57400000Y-101845000D02*
X57400000Y-104505000D01*
X80320000Y-101845000D02*
X57400000Y-101845000D01*
X80320000Y-101845000D02*
X80320000Y-104505000D01*
X80320000Y-104505000D02*
X57400000Y-104505000D01*
X81590000Y-101845000D02*
X82920000Y-101845000D01*
X82920000Y-101845000D02*
X82920000Y-103175000D01*
%TO.C,J11*%
X40292000Y-108776000D02*
X81192000Y-108776000D01*
X40292000Y-117896000D02*
X40292000Y-108776000D01*
X41592000Y-110086000D02*
X58692000Y-110086000D01*
X41592000Y-116586000D02*
X41592000Y-110086000D01*
X58692000Y-110086000D02*
X58692000Y-108776000D01*
X58692000Y-110086000D02*
X58692000Y-110086000D01*
X62792000Y-108776000D02*
X62792000Y-110086000D01*
X62792000Y-110086000D02*
X79892000Y-110086000D01*
X75482000Y-107386000D02*
X75982000Y-108386000D01*
X75982000Y-108386000D02*
X76482000Y-107386000D01*
X76482000Y-107386000D02*
X75482000Y-107386000D01*
X79892000Y-110086000D02*
X79892000Y-116586000D01*
X79892000Y-116586000D02*
X41592000Y-116586000D01*
X81192000Y-108776000D02*
X81192000Y-117896000D01*
X81192000Y-117896000D02*
X40292000Y-117896000D01*
%TO.C,R15*%
X125053900Y-64303400D02*
X125673900Y-64303400D01*
X125053900Y-64303400D02*
G75*
G02*
X123213900Y-64303400I-920000J0D01*
G01*
X123213900Y-64303400D02*
G75*
G02*
X125053900Y-64303400I920000J0D01*
G01*
%TD*%
M02*
