%TF.GenerationSoftware,KiCad,Pcbnew,9.0.0*%
%TF.CreationDate,2025-04-11T05:48:34+10:00*%
%TF.ProjectId,Cable Tester,4361626c-6520-4546-9573-7465722e6b69,rev?*%
%TF.SameCoordinates,Original*%
%TF.FileFunction,Copper,L1,Top*%
%TF.FilePolarity,Positive*%
%FSLAX46Y46*%
G04 Gerber Fmt 4.6, Leading zero omitted, Abs format (unit mm)*
G04 Created by KiCad (PCBNEW 9.0.0) date 2025-04-11 05:48:34*
%MOMM*%
%LPD*%
G01*
G04 APERTURE LIST*
G04 Aperture macros list*
%AMRoundRect*
0 Rectangle with rounded corners*
0 $1 Rounding radius*
0 $2 $3 $4 $5 $6 $7 $8 $9 X,Y pos of 4 corners*
0 Add a 4 corners polygon primitive as box body*
4,1,4,$2,$3,$4,$5,$6,$7,$8,$9,$2,$3,0*
0 Add four circle primitives for the rounded corners*
1,1,$1+$1,$2,$3*
1,1,$1+$1,$4,$5*
1,1,$1+$1,$6,$7*
1,1,$1+$1,$8,$9*
0 Add four rect primitives between the rounded corners*
20,1,$1+$1,$2,$3,$4,$5,0*
20,1,$1+$1,$4,$5,$6,$7,0*
20,1,$1+$1,$6,$7,$8,$9,0*
20,1,$1+$1,$8,$9,$2,$3,0*%
G04 Aperture macros list end*
%TA.AperFunction,ComponentPad*%
%ADD10R,1.700000X1.700000*%
%TD*%
%TA.AperFunction,ComponentPad*%
%ADD11O,1.700000X1.700000*%
%TD*%
%TA.AperFunction,ComponentPad*%
%ADD12RoundRect,0.250000X-0.600000X0.600000X-0.600000X-0.600000X0.600000X-0.600000X0.600000X0.600000X0*%
%TD*%
%TA.AperFunction,ComponentPad*%
%ADD13C,1.700000*%
%TD*%
%TA.AperFunction,ComponentPad*%
%ADD14RoundRect,0.250000X-0.600000X-0.725000X0.600000X-0.725000X0.600000X0.725000X-0.600000X0.725000X0*%
%TD*%
%TA.AperFunction,ComponentPad*%
%ADD15O,1.700000X1.950000*%
%TD*%
%TA.AperFunction,ComponentPad*%
%ADD16O,1.727200X1.727200*%
%TD*%
%TA.AperFunction,ComponentPad*%
%ADD17R,1.727200X1.727200*%
%TD*%
%TA.AperFunction,ComponentPad*%
%ADD18RoundRect,0.250000X0.845000X-0.620000X0.845000X0.620000X-0.845000X0.620000X-0.845000X-0.620000X0*%
%TD*%
%TA.AperFunction,ComponentPad*%
%ADD19O,2.190000X1.740000*%
%TD*%
%TA.AperFunction,ComponentPad*%
%ADD20R,1.800000X1.800000*%
%TD*%
%TA.AperFunction,ComponentPad*%
%ADD21C,1.800000*%
%TD*%
%TA.AperFunction,ComponentPad*%
%ADD22C,1.400000*%
%TD*%
%TA.AperFunction,ComponentPad*%
%ADD23O,1.400000X1.400000*%
%TD*%
%TA.AperFunction,ViaPad*%
%ADD24C,0.600000*%
%TD*%
%TA.AperFunction,Conductor*%
%ADD25C,0.200000*%
%TD*%
G04 APERTURE END LIST*
D10*
%TO.P,J14,1,Pin_1*%
%TO.N,/PIN_R_01*%
X119025000Y-103025000D03*
D11*
%TO.P,J14,2,Pin_2*%
%TO.N,/PIN_R_02*%
X116485000Y-103025000D03*
%TO.P,J14,3,Pin_3*%
%TO.N,/PIN_R_03*%
X113945000Y-103025000D03*
%TO.P,J14,4,Pin_4*%
%TO.N,/PIN_R_04*%
X111405000Y-103025000D03*
%TO.P,J14,5,Pin_5*%
%TO.N,/PIN_R_05*%
X108865000Y-103025000D03*
%TO.P,J14,6,Pin_6*%
%TO.N,/PIN_R_06*%
X106325000Y-103025000D03*
%TO.P,J14,7,Pin_7*%
%TO.N,/PIN_R_07*%
X103785000Y-103025000D03*
%TO.P,J14,8,Pin_8*%
%TO.N,/PIN_R_08*%
X101245000Y-103025000D03*
%TO.P,J14,9,Pin_9*%
%TO.N,/PIN_R_09*%
X98705000Y-103025000D03*
%TO.P,J14,10,Pin_10*%
%TO.N,/PIN_R_10*%
X96165000Y-103025000D03*
%TD*%
D12*
%TO.P,J6,1,Pin_1*%
%TO.N,/PIN_01*%
X85466000Y-69181000D03*
D13*
%TO.P,J6,2,Pin_2*%
%TO.N,/PIN_02*%
X85466000Y-71721000D03*
%TO.P,J6,3,Pin_3*%
%TO.N,/PIN_03*%
X82926000Y-69181000D03*
%TO.P,J6,4,Pin_4*%
%TO.N,/PIN_04*%
X82926000Y-71721000D03*
%TO.P,J6,5,Pin_5*%
%TO.N,/PIN_05*%
X80386000Y-69181000D03*
%TO.P,J6,6,Pin_6*%
%TO.N,/PIN_06*%
X80386000Y-71721000D03*
%TO.P,J6,7,Pin_7*%
%TO.N,/PIN_07*%
X77846000Y-69181000D03*
%TO.P,J6,8,Pin_8*%
%TO.N,/PIN_08*%
X77846000Y-71721000D03*
%TO.P,J6,9,Pin_9*%
%TO.N,/PIN_09*%
X75306000Y-69181000D03*
%TO.P,J6,10,Pin_10*%
%TO.N,/PIN_10*%
X75306000Y-71721000D03*
%TO.P,J6,11,Pin_11*%
%TO.N,/PIN_11*%
X72766000Y-69181000D03*
%TO.P,J6,12,Pin_12*%
%TO.N,/PIN_12*%
X72766000Y-71721000D03*
%TO.P,J6,13,Pin_13*%
%TO.N,/PIN_13*%
X70226000Y-69181000D03*
%TO.P,J6,14,Pin_14*%
%TO.N,/PIN_14*%
X70226000Y-71721000D03*
%TO.P,J6,15,Pin_15*%
%TO.N,/PIN_15*%
X67686000Y-69181000D03*
%TO.P,J6,16,Pin_16*%
%TO.N,/PIN_16*%
X67686000Y-71721000D03*
%TO.P,J6,17,Pin_17*%
%TO.N,/PIN_17*%
X65146000Y-69181000D03*
%TO.P,J6,18,Pin_18*%
%TO.N,/PIN_18*%
X65146000Y-71721000D03*
%TO.P,J6,19,Pin_19*%
%TO.N,/PIN_19*%
X62606000Y-69181000D03*
%TO.P,J6,20,Pin_20*%
%TO.N,/PIN_20*%
X62606000Y-71721000D03*
%TD*%
D12*
%TO.P,J10,1,Pin_1*%
%TO.N,/PIN_R_01*%
X85586000Y-86641000D03*
D13*
%TO.P,J10,2,Pin_2*%
%TO.N,/PIN_R_02*%
X85586000Y-89181000D03*
%TO.P,J10,3,Pin_3*%
%TO.N,/PIN_R_03*%
X83046000Y-86641000D03*
%TO.P,J10,4,Pin_4*%
%TO.N,/PIN_R_04*%
X83046000Y-89181000D03*
%TO.P,J10,5,Pin_5*%
%TO.N,/PIN_R_05*%
X80506000Y-86641000D03*
%TO.P,J10,6,Pin_6*%
%TO.N,/PIN_R_06*%
X80506000Y-89181000D03*
%TO.P,J10,7,Pin_7*%
%TO.N,/PIN_R_07*%
X77966000Y-86641000D03*
%TO.P,J10,8,Pin_8*%
%TO.N,/PIN_R_08*%
X77966000Y-89181000D03*
%TO.P,J10,9,Pin_9*%
%TO.N,/PIN_R_09*%
X75426000Y-86641000D03*
%TO.P,J10,10,Pin_10*%
%TO.N,/PIN_R_10*%
X75426000Y-89181000D03*
%TO.P,J10,11,Pin_11*%
%TO.N,/PIN_R_11*%
X72886000Y-86641000D03*
%TO.P,J10,12,Pin_12*%
%TO.N,/PIN_R_12*%
X72886000Y-89181000D03*
%TO.P,J10,13,Pin_13*%
%TO.N,/PIN_R_13*%
X70346000Y-86641000D03*
%TO.P,J10,14,Pin_14*%
%TO.N,/PIN_R_14*%
X70346000Y-89181000D03*
%TO.P,J10,15,Pin_15*%
%TO.N,/PIN_R_15*%
X67806000Y-86641000D03*
%TO.P,J10,16,Pin_16*%
%TO.N,/PIN_R_16*%
X67806000Y-89181000D03*
%TO.P,J10,17,Pin_17*%
%TO.N,/PIN_R_17*%
X65266000Y-86641000D03*
%TO.P,J10,18,Pin_18*%
%TO.N,/PIN_R_18*%
X65266000Y-89181000D03*
%TO.P,J10,19,Pin_19*%
%TO.N,/PIN_R_19*%
X62726000Y-86641000D03*
%TO.P,J10,20,Pin_20*%
%TO.N,/PIN_R_20*%
X62726000Y-89181000D03*
%TD*%
D14*
%TO.P,J3,1,Pin_1*%
%TO.N,/GND*%
X120250000Y-54775000D03*
D15*
%TO.P,J3,2,Pin_2*%
%TO.N,/START TEST*%
X122750000Y-54775000D03*
%TD*%
D12*
%TO.P,J8,1,Pin_1*%
%TO.N,/PIN_R_01*%
X100582000Y-128566000D03*
D13*
%TO.P,J8,2,Pin_2*%
%TO.N,/PIN_R_02*%
X100582000Y-131106000D03*
%TO.P,J8,3,Pin_3*%
%TO.N,/PIN_R_03*%
X98042000Y-128566000D03*
%TO.P,J8,4,Pin_4*%
%TO.N,/PIN_R_04*%
X98042000Y-131106000D03*
%TO.P,J8,5,Pin_5*%
%TO.N,/PIN_R_05*%
X95502000Y-128566000D03*
%TO.P,J8,6,Pin_6*%
%TO.N,/PIN_R_06*%
X95502000Y-131106000D03*
%TO.P,J8,7,Pin_7*%
%TO.N,/PIN_R_07*%
X92962000Y-128566000D03*
%TO.P,J8,8,Pin_8*%
%TO.N,/PIN_R_08*%
X92962000Y-131106000D03*
%TO.P,J8,9,Pin_9*%
%TO.N,/PIN_R_09*%
X90422000Y-128566000D03*
%TO.P,J8,10,Pin_10*%
%TO.N,/PIN_R_10*%
X90422000Y-131106000D03*
%TD*%
D12*
%TO.P,J4,1,Pin_1*%
%TO.N,/PIN_01*%
X99742000Y-112066000D03*
D13*
%TO.P,J4,2,Pin_2*%
%TO.N,/PIN_02*%
X99742000Y-114606000D03*
%TO.P,J4,3,Pin_3*%
%TO.N,/PIN_03*%
X97202000Y-112066000D03*
%TO.P,J4,4,Pin_4*%
%TO.N,/PIN_04*%
X97202000Y-114606000D03*
%TO.P,J4,5,Pin_5*%
%TO.N,/PIN_05*%
X94662000Y-112066000D03*
%TO.P,J4,6,Pin_6*%
%TO.N,/PIN_06*%
X94662000Y-114606000D03*
%TO.P,J4,7,Pin_7*%
%TO.N,/PIN_07*%
X92122000Y-112066000D03*
%TO.P,J4,8,Pin_8*%
%TO.N,/PIN_08*%
X92122000Y-114606000D03*
%TO.P,J4,9,Pin_9*%
%TO.N,/PIN_09*%
X89582000Y-112066000D03*
%TO.P,J4,10,Pin_10*%
%TO.N,/PIN_10*%
X89582000Y-114606000D03*
%TD*%
D12*
%TO.P,J1,1,Pin_1*%
%TO.N,/PIN_01*%
X104890000Y-86985000D03*
D13*
%TO.P,J1,2,Pin_2*%
%TO.N,/PIN_02*%
X104890000Y-89525000D03*
%TO.P,J1,3,Pin_3*%
%TO.N,/PIN_03*%
X102350000Y-86985000D03*
%TO.P,J1,4,Pin_4*%
%TO.N,/PIN_04*%
X102350000Y-89525000D03*
%TO.P,J1,5,Pin_5*%
%TO.N,/PIN_05*%
X99810000Y-86985000D03*
%TO.P,J1,6,Pin_6*%
%TO.N,/PIN_06*%
X99810000Y-89525000D03*
%TD*%
D16*
%TO.P,A1,*%
%TO.N,*%
X112356000Y-48340000D03*
%TO.P,A1,3V3,3.3V*%
%TO.N,unconnected-(A1-3.3V-Pad3V3)*%
X104736000Y-48340000D03*
%TO.P,A1,5V1,5V*%
%TO.N,/+5V*%
X102196000Y-48340000D03*
%TO.P,A1,5V3,5V*%
X46316000Y-96600000D03*
%TO.P,A1,5V4,5V*%
X43776000Y-96600000D03*
%TO.P,A1,A0,A0*%
%TO.N,/START TEST*%
X89496000Y-48340000D03*
%TO.P,A1,A1,A1*%
%TO.N,/PIN_20*%
X86956000Y-48340000D03*
%TO.P,A1,A2,A2*%
%TO.N,/PIN_21*%
X84416000Y-48340000D03*
%TO.P,A1,A3,A3*%
%TO.N,unconnected-(A1-PadA3)*%
X81876000Y-48340000D03*
%TO.P,A1,A4,A4*%
%TO.N,unconnected-(A1-PadA4)*%
X79336000Y-48340000D03*
%TO.P,A1,A5,A5*%
%TO.N,unconnected-(A1-PadA5)*%
X76796000Y-48340000D03*
%TO.P,A1,A6,A6*%
%TO.N,unconnected-(A1-PadA6)*%
X74256000Y-48340000D03*
%TO.P,A1,A7,A7*%
%TO.N,unconnected-(A1-PadA7)*%
X71716000Y-48340000D03*
%TO.P,A1,A8,A8*%
%TO.N,unconnected-(A1-PadA8)*%
X66636000Y-48340000D03*
%TO.P,A1,A9,A9*%
%TO.N,unconnected-(A1-PadA9)*%
X64096000Y-48340000D03*
%TO.P,A1,A10,A10*%
%TO.N,unconnected-(A1-PadA10)*%
X61556000Y-48340000D03*
%TO.P,A1,A11,A11*%
%TO.N,unconnected-(A1-PadA11)*%
X59016000Y-48340000D03*
%TO.P,A1,A12,A12*%
%TO.N,unconnected-(A1-PadA12)*%
X56476000Y-48340000D03*
%TO.P,A1,A13,A13*%
%TO.N,unconnected-(A1-PadA13)*%
X53936000Y-48340000D03*
%TO.P,A1,A14,A14*%
%TO.N,/PIN_17*%
X51396000Y-48340000D03*
%TO.P,A1,A15,A15*%
%TO.N,/PIN_16*%
X48856000Y-48340000D03*
%TO.P,A1,AREF,AREF*%
%TO.N,unconnected-(A1-PadAREF)*%
X116420000Y-96600000D03*
%TO.P,A1,D0,D0/RX0*%
%TO.N,unconnected-(A1-D0{slash}RX0-PadD0)*%
X76796000Y-96600000D03*
%TO.P,A1,D1,D1/TX0*%
%TO.N,/PIN_01*%
X79336000Y-96600000D03*
%TO.P,A1,D2,D2_INT0*%
%TO.N,/PIN_02*%
X81876000Y-96600000D03*
%TO.P,A1,D3,D3_INT1*%
%TO.N,/PIN_03*%
X84416000Y-96600000D03*
%TO.P,A1,D4,D4*%
%TO.N,/PIN_04*%
X86956000Y-96600000D03*
%TO.P,A1,D5,D5*%
%TO.N,/PIN_05*%
X89496000Y-96600000D03*
%TO.P,A1,D6,D6*%
%TO.N,/PIN_06*%
X92036000Y-96600000D03*
%TO.P,A1,D7,D7*%
%TO.N,/PIN_07*%
X94576000Y-96600000D03*
%TO.P,A1,D8,D8*%
%TO.N,/PIN_08*%
X98640000Y-96600000D03*
%TO.P,A1,D9,D9*%
%TO.N,/PIN_09*%
X101180000Y-96600000D03*
%TO.P,A1,D10,D10*%
%TO.N,/PIN_10*%
X103720000Y-96600000D03*
%TO.P,A1,D11,D11*%
%TO.N,/PIN_11*%
X106260000Y-96600000D03*
%TO.P,A1,D12,D12*%
%TO.N,/PIN_12*%
X108800000Y-96600000D03*
%TO.P,A1,D13,D13*%
%TO.N,/PIN_13*%
X111340000Y-96600000D03*
%TO.P,A1,D14,D14/TX3*%
%TO.N,/PIN_14*%
X71716000Y-96600000D03*
%TO.P,A1,D15,D15/RX3*%
%TO.N,/PIN_15*%
X69176000Y-96600000D03*
%TO.P,A1,D16,D16/TX2*%
%TO.N,unconnected-(A1-D16{slash}TX2-PadD16)*%
X66636000Y-96600000D03*
%TO.P,A1,D17,D17/RX2*%
%TO.N,unconnected-(A1-D17{slash}RX2-PadD17)*%
X64096000Y-96600000D03*
%TO.P,A1,D18,D18/TX1*%
%TO.N,/PIN_18*%
X61556000Y-96600000D03*
%TO.P,A1,D19,D19/RX1*%
%TO.N,/PIN_19*%
X59016000Y-96600000D03*
%TO.P,A1,D20,D20/SDA*%
%TO.N,/SDA*%
X56476000Y-96600000D03*
%TO.P,A1,D21,D21/SCL*%
%TO.N,/SCL*%
X53936000Y-96600000D03*
%TO.P,A1,D22,D22*%
%TO.N,/PIN_22*%
X46316000Y-94060000D03*
%TO.P,A1,D23,D23*%
%TO.N,/PIN_23*%
X43776000Y-94060000D03*
%TO.P,A1,D24,D24*%
%TO.N,/PIN_24*%
X46316000Y-91520000D03*
%TO.P,A1,D25,D25*%
%TO.N,/PIN_25*%
X43776000Y-91520000D03*
%TO.P,A1,D26,D26*%
%TO.N,/PIN_26*%
X46316000Y-88980000D03*
%TO.P,A1,D27,D27*%
%TO.N,/PIN_R_01*%
X43776000Y-88980000D03*
%TO.P,A1,D28,D28*%
%TO.N,/PIN_R_02*%
X46316000Y-86440000D03*
%TO.P,A1,D29,D29*%
%TO.N,/PIN_R_03*%
X43776000Y-86440000D03*
%TO.P,A1,D30,D30*%
%TO.N,/PIN_R_04*%
X46316000Y-83900000D03*
%TO.P,A1,D31,D31*%
%TO.N,/PIN_R_05*%
X43776000Y-83900000D03*
%TO.P,A1,D32,D32*%
%TO.N,/PIN_R_06*%
X46316000Y-81360000D03*
%TO.P,A1,D33,D33*%
%TO.N,/PIN_R_07*%
X43776000Y-81360000D03*
%TO.P,A1,D34,D34*%
%TO.N,/PIN_R_08*%
X46316000Y-78820000D03*
%TO.P,A1,D35,D35*%
%TO.N,/PIN_R_09*%
X43776000Y-78820000D03*
%TO.P,A1,D36,D36*%
%TO.N,/PIN_R_10*%
X46316000Y-76280000D03*
%TO.P,A1,D37,D37*%
%TO.N,/PIN_R_11*%
X43776000Y-76280000D03*
%TO.P,A1,D38,D38*%
%TO.N,/PIN_R_12*%
X46316000Y-73740000D03*
%TO.P,A1,D39,D39*%
%TO.N,/PIN_R_13*%
X43776000Y-73740000D03*
%TO.P,A1,D40,D40*%
%TO.N,/PIN_R_14*%
X46316000Y-71200000D03*
%TO.P,A1,D41,D41*%
%TO.N,/PIN_R_15*%
X43776000Y-71200000D03*
%TO.P,A1,D42,D42*%
%TO.N,/PIN_R_16*%
X46316000Y-68660000D03*
%TO.P,A1,D43,D43*%
%TO.N,/PIN_R_17*%
X43776000Y-68660000D03*
%TO.P,A1,D44,D44*%
%TO.N,/PIN_R_18*%
X46316000Y-66120000D03*
%TO.P,A1,D45,D45*%
%TO.N,/PIN_R_19*%
X43776000Y-66120000D03*
%TO.P,A1,D46,D46*%
%TO.N,/PIN_R_20*%
X46316000Y-63580000D03*
%TO.P,A1,D47,D47*%
%TO.N,/PIN_R_21*%
X43776000Y-63580000D03*
%TO.P,A1,D48,D48*%
%TO.N,/PIN_R_22*%
X46316000Y-61040000D03*
%TO.P,A1,D49,D49*%
%TO.N,/PIN_R_23*%
X43776000Y-61040000D03*
%TO.P,A1,D50,D50_MISO*%
%TO.N,/PIN_R_24*%
X46316000Y-58500000D03*
%TO.P,A1,D51,D51_MOSI*%
%TO.N,/PIN_R_25*%
X43776000Y-58500000D03*
%TO.P,A1,D52,D52_SCK*%
%TO.N,/PIN_R_26*%
X46316000Y-55960000D03*
%TO.P,A1,D53,D53_CS*%
%TO.N,unconnected-(A1-D53_CS-PadD53)*%
X43776000Y-55960000D03*
D17*
%TO.P,A1,GND1,GND*%
%TO.N,/GND*%
X113880000Y-96600000D03*
%TO.P,A1,GND2,GND*%
X99656000Y-48340000D03*
%TO.P,A1,GND3,GND*%
X97116000Y-48340000D03*
%TO.P,A1,GND5,GND*%
X46316000Y-53420000D03*
%TO.P,A1,GND6,GND*%
X43776000Y-53420000D03*
D16*
%TO.P,A1,IORF,IOREF*%
%TO.N,unconnected-(A1-IOREF-PadIORF)*%
X109816000Y-48340000D03*
%TO.P,A1,RST1,RESET*%
%TO.N,unconnected-(A1-RESET-PadRST1)*%
X107276000Y-48340000D03*
%TO.P,A1,SCL,SCL*%
%TO.N,unconnected-(A1-PadSCL)*%
X121500000Y-96600000D03*
%TO.P,A1,SDA,SDA*%
%TO.N,unconnected-(A1-PadSDA)*%
X118960000Y-96600000D03*
%TO.P,A1,VIN,VIN*%
%TO.N,unconnected-(A1-PadVIN)*%
X94576000Y-48340000D03*
%TD*%
D12*
%TO.P,J9,1,Pin_1*%
%TO.N,/PIN_R_01*%
X130122000Y-128606000D03*
D13*
%TO.P,J9,2,Pin_2*%
%TO.N,/PIN_R_02*%
X130122000Y-131146000D03*
%TO.P,J9,3,Pin_3*%
%TO.N,/PIN_R_03*%
X127582000Y-128606000D03*
%TO.P,J9,4,Pin_4*%
%TO.N,/PIN_R_04*%
X127582000Y-131146000D03*
%TO.P,J9,5,Pin_5*%
%TO.N,/PIN_R_05*%
X125042000Y-128606000D03*
%TO.P,J9,6,Pin_6*%
%TO.N,/PIN_R_06*%
X125042000Y-131146000D03*
%TO.P,J9,7,Pin_7*%
%TO.N,/PIN_R_07*%
X122502000Y-128606000D03*
%TO.P,J9,8,Pin_8*%
%TO.N,/PIN_R_08*%
X122502000Y-131146000D03*
%TO.P,J9,9,Pin_9*%
%TO.N,/PIN_R_09*%
X119962000Y-128606000D03*
%TO.P,J9,10,Pin_10*%
%TO.N,/PIN_R_10*%
X119962000Y-131146000D03*
%TO.P,J9,11,Pin_11*%
%TO.N,/PIN_R_11*%
X117422000Y-128606000D03*
%TO.P,J9,12,Pin_12*%
%TO.N,/PIN_R_12*%
X117422000Y-131146000D03*
%TO.P,J9,13,Pin_13*%
%TO.N,/PIN_R_13*%
X114882000Y-128606000D03*
%TO.P,J9,14,Pin_14*%
%TO.N,/PIN_R_14*%
X114882000Y-131146000D03*
%TD*%
D12*
%TO.P,J2,1,Pin_1*%
%TO.N,/PIN_R_01*%
X104706000Y-69025000D03*
D13*
%TO.P,J2,2,Pin_2*%
%TO.N,/PIN_R_02*%
X104706000Y-71565000D03*
%TO.P,J2,3,Pin_3*%
%TO.N,/PIN_R_03*%
X102166000Y-69025000D03*
%TO.P,J2,4,Pin_4*%
%TO.N,/PIN_R_04*%
X102166000Y-71565000D03*
%TO.P,J2,5,Pin_5*%
%TO.N,/PIN_R_05*%
X99626000Y-69025000D03*
%TO.P,J2,6,Pin_6*%
%TO.N,/PIN_R_06*%
X99626000Y-71565000D03*
%TD*%
D12*
%TO.P,J7,1,Pin_1*%
%TO.N,/PIN_01*%
X76322000Y-129066000D03*
D13*
%TO.P,J7,2,Pin_2*%
%TO.N,/PIN_02*%
X76322000Y-131606000D03*
%TO.P,J7,3,Pin_3*%
%TO.N,/PIN_03*%
X73782000Y-129066000D03*
%TO.P,J7,4,Pin_4*%
%TO.N,/PIN_04*%
X73782000Y-131606000D03*
%TO.P,J7,5,Pin_5*%
%TO.N,/PIN_05*%
X71242000Y-129066000D03*
%TO.P,J7,6,Pin_6*%
%TO.N,/PIN_06*%
X71242000Y-131606000D03*
%TO.P,J7,7,Pin_7*%
%TO.N,/PIN_07*%
X68702000Y-129066000D03*
%TO.P,J7,8,Pin_8*%
%TO.N,/PIN_08*%
X68702000Y-131606000D03*
%TO.P,J7,9,Pin_9*%
%TO.N,/PIN_09*%
X66162000Y-129066000D03*
%TO.P,J7,10,Pin_10*%
%TO.N,/PIN_10*%
X66162000Y-131606000D03*
%TO.P,J7,11,Pin_11*%
%TO.N,/PIN_11*%
X63622000Y-129066000D03*
%TO.P,J7,12,Pin_12*%
%TO.N,/PIN_12*%
X63622000Y-131606000D03*
%TO.P,J7,13,Pin_13*%
%TO.N,/PIN_13*%
X61082000Y-129066000D03*
%TO.P,J7,14,Pin_14*%
%TO.N,/PIN_14*%
X61082000Y-131606000D03*
%TO.P,J7,15,Pin_15*%
%TO.N,/PIN_15*%
X58542000Y-129066000D03*
%TO.P,J7,16,Pin_16*%
%TO.N,/PIN_16*%
X58542000Y-131606000D03*
%TO.P,J7,17,Pin_17*%
%TO.N,/PIN_17*%
X56002000Y-129066000D03*
%TO.P,J7,18,Pin_18*%
%TO.N,/PIN_18*%
X56002000Y-131606000D03*
%TO.P,J7,19,Pin_19*%
%TO.N,/PIN_19*%
X53462000Y-129066000D03*
%TO.P,J7,20,Pin_20*%
%TO.N,/PIN_20*%
X53462000Y-131606000D03*
%TO.P,J7,21,Pin_21*%
%TO.N,/PIN_21*%
X50922000Y-129066000D03*
%TO.P,J7,22,Pin_22*%
%TO.N,/PIN_22*%
X50922000Y-131606000D03*
%TO.P,J7,23,Pin_23*%
%TO.N,/PIN_23*%
X48382000Y-129066000D03*
%TO.P,J7,24,Pin_24*%
%TO.N,/PIN_24*%
X48382000Y-131606000D03*
%TO.P,J7,25,Pin_25*%
%TO.N,/PIN_25*%
X45842000Y-129066000D03*
%TO.P,J7,26,Pin_26*%
%TO.N,/PIN_26*%
X45842000Y-131606000D03*
%TD*%
D18*
%TO.P,J15,1,Pin_1*%
%TO.N,/GND*%
X57275000Y-60750000D03*
D19*
%TO.P,J15,2,Pin_2*%
%TO.N,/+5V*%
X57275000Y-58210000D03*
%TO.P,J15,3,Pin_3*%
%TO.N,/SCL*%
X57275000Y-55670000D03*
%TO.P,J15,4,Pin_4*%
%TO.N,/SDA*%
X57275000Y-53130000D03*
%TD*%
D12*
%TO.P,J5,1,Pin_1*%
%TO.N,/PIN_01*%
X130322000Y-112606000D03*
D13*
%TO.P,J5,2,Pin_2*%
%TO.N,/PIN_02*%
X130322000Y-115146000D03*
%TO.P,J5,3,Pin_3*%
%TO.N,/PIN_03*%
X127782000Y-112606000D03*
%TO.P,J5,4,Pin_4*%
%TO.N,/PIN_04*%
X127782000Y-115146000D03*
%TO.P,J5,5,Pin_5*%
%TO.N,/PIN_05*%
X125242000Y-112606000D03*
%TO.P,J5,6,Pin_6*%
%TO.N,/PIN_06*%
X125242000Y-115146000D03*
%TO.P,J5,7,Pin_7*%
%TO.N,/PIN_07*%
X122702000Y-112606000D03*
%TO.P,J5,8,Pin_8*%
%TO.N,/PIN_08*%
X122702000Y-115146000D03*
%TO.P,J5,9,Pin_9*%
%TO.N,/PIN_09*%
X120162000Y-112606000D03*
%TO.P,J5,10,Pin_10*%
%TO.N,/PIN_10*%
X120162000Y-115146000D03*
%TO.P,J5,11,Pin_11*%
%TO.N,/PIN_11*%
X117622000Y-112606000D03*
%TO.P,J5,12,Pin_12*%
%TO.N,/PIN_12*%
X117622000Y-115146000D03*
%TO.P,J5,13,Pin_13*%
%TO.N,/PIN_13*%
X115082000Y-112606000D03*
%TO.P,J5,14,Pin_14*%
%TO.N,/PIN_14*%
X115082000Y-115146000D03*
%TD*%
D20*
%TO.P,D15,1,K*%
%TO.N,/GND*%
X131660000Y-64425000D03*
D21*
%TO.P,D15,2,A*%
%TO.N,Net-(D15-A)*%
X134200000Y-64425000D03*
%TD*%
D10*
%TO.P,J13,1,Pin_1*%
%TO.N,/PIN_01*%
X81590000Y-103175000D03*
D11*
%TO.P,J13,2,Pin_2*%
%TO.N,/PIN_02*%
X79050000Y-103175000D03*
%TO.P,J13,3,Pin_3*%
%TO.N,/PIN_03*%
X76510000Y-103175000D03*
%TO.P,J13,4,Pin_4*%
%TO.N,/PIN_04*%
X73970000Y-103175000D03*
%TO.P,J13,5,Pin_5*%
%TO.N,/PIN_05*%
X71430000Y-103175000D03*
%TO.P,J13,6,Pin_6*%
%TO.N,/PIN_06*%
X68890000Y-103175000D03*
%TO.P,J13,7,Pin_7*%
%TO.N,/PIN_07*%
X66350000Y-103175000D03*
%TO.P,J13,8,Pin_8*%
%TO.N,/PIN_08*%
X63810000Y-103175000D03*
%TO.P,J13,9,Pin_9*%
%TO.N,/PIN_09*%
X61270000Y-103175000D03*
%TO.P,J13,10,Pin_10*%
%TO.N,/PIN_10*%
X58730000Y-103175000D03*
%TD*%
D12*
%TO.P,J11,1,Pin_1*%
%TO.N,/PIN_R_01*%
X75982000Y-112066000D03*
D13*
%TO.P,J11,2,Pin_2*%
%TO.N,/PIN_R_02*%
X75982000Y-114606000D03*
%TO.P,J11,3,Pin_3*%
%TO.N,/PIN_R_03*%
X73442000Y-112066000D03*
%TO.P,J11,4,Pin_4*%
%TO.N,/PIN_R_04*%
X73442000Y-114606000D03*
%TO.P,J11,5,Pin_5*%
%TO.N,/PIN_R_05*%
X70902000Y-112066000D03*
%TO.P,J11,6,Pin_6*%
%TO.N,/PIN_R_06*%
X70902000Y-114606000D03*
%TO.P,J11,7,Pin_7*%
%TO.N,/PIN_R_07*%
X68362000Y-112066000D03*
%TO.P,J11,8,Pin_8*%
%TO.N,/PIN_R_08*%
X68362000Y-114606000D03*
%TO.P,J11,9,Pin_9*%
%TO.N,/PIN_R_09*%
X65822000Y-112066000D03*
%TO.P,J11,10,Pin_10*%
%TO.N,/PIN_R_10*%
X65822000Y-114606000D03*
%TO.P,J11,11,Pin_11*%
%TO.N,/PIN_R_11*%
X63282000Y-112066000D03*
%TO.P,J11,12,Pin_12*%
%TO.N,/PIN_R_12*%
X63282000Y-114606000D03*
%TO.P,J11,13,Pin_13*%
%TO.N,/PIN_R_13*%
X60742000Y-112066000D03*
%TO.P,J11,14,Pin_14*%
%TO.N,/PIN_R_14*%
X60742000Y-114606000D03*
%TO.P,J11,15,Pin_15*%
%TO.N,/PIN_R_15*%
X58202000Y-112066000D03*
%TO.P,J11,16,Pin_16*%
%TO.N,/PIN_R_16*%
X58202000Y-114606000D03*
%TO.P,J11,17,Pin_17*%
%TO.N,/PIN_R_17*%
X55662000Y-112066000D03*
%TO.P,J11,18,Pin_18*%
%TO.N,/PIN_R_18*%
X55662000Y-114606000D03*
%TO.P,J11,19,Pin_19*%
%TO.N,/PIN_R_19*%
X53122000Y-112066000D03*
%TO.P,J11,20,Pin_20*%
%TO.N,/PIN_R_20*%
X53122000Y-114606000D03*
%TO.P,J11,21,Pin_21*%
%TO.N,/PIN_R_21*%
X50582000Y-112066000D03*
%TO.P,J11,22,Pin_22*%
%TO.N,/PIN_R_22*%
X50582000Y-114606000D03*
%TO.P,J11,23,Pin_23*%
%TO.N,/PIN_R_23*%
X48042000Y-112066000D03*
%TO.P,J11,24,Pin_24*%
%TO.N,/PIN_R_24*%
X48042000Y-114606000D03*
%TO.P,J11,25,Pin_25*%
%TO.N,/PIN_R_25*%
X45502000Y-112066000D03*
%TO.P,J11,26,Pin_26*%
%TO.N,/PIN_R_26*%
X45502000Y-114606000D03*
%TD*%
D22*
%TO.P,R15,1*%
%TO.N,/+5V*%
X124133900Y-64303400D03*
D23*
%TO.P,R15,2*%
%TO.N,Net-(D15-A)*%
X126673900Y-64303400D03*
%TD*%
D24*
%TO.N,/+5V*%
X54381500Y-92226800D03*
%TO.N,/PIN_R_24*%
X47419400Y-109544000D03*
%TO.N,/PIN_R_23*%
X52138500Y-109002000D03*
X52360300Y-62323900D03*
%TO.N,/PIN_R_21*%
X51129500Y-64850000D03*
%TO.N,/PIN_R_22*%
X49896500Y-61040000D03*
%TO.N,/PIN_R_16*%
X67826000Y-75657400D03*
X67826000Y-85071400D03*
%TO.N,/PIN_R_20*%
X50499700Y-63580000D03*
X50900000Y-89116900D03*
X50527800Y-106530000D03*
%TO.N,/PIN_R_18*%
X64078300Y-75022300D03*
X55121900Y-109155000D03*
X56407900Y-98253500D03*
X62273800Y-94264900D03*
%TO.N,/PIN_R_17*%
X52959400Y-109364000D03*
X52918700Y-82724900D03*
%TO.N,/PIN_R_19*%
X55206000Y-86641000D03*
X55206000Y-67390000D03*
%TO.N,/PIN_R_12*%
X121125000Y-118319000D03*
X83005000Y-119053000D03*
X83227300Y-98023200D03*
X73764200Y-97960100D03*
X48481800Y-96145500D03*
X72886000Y-93977700D03*
%TO.N,/PIN_R_11*%
X72125700Y-76855200D03*
X70230900Y-106515000D03*
X114256000Y-117517000D03*
%TO.N,/PIN_R_13*%
X108776000Y-118750000D03*
X70346000Y-76428900D03*
X53349400Y-75914700D03*
X54242700Y-108333000D03*
%TO.N,/PIN_R_14*%
X107741000Y-119805000D03*
X48239100Y-79455000D03*
X59007900Y-79455000D03*
X54097500Y-111066000D03*
%TO.N,/PIN_R_08*%
X97427900Y-118208000D03*
X122502000Y-133971000D03*
X67948100Y-121464000D03*
X41563200Y-115260000D03*
%TO.N,/PIN_R_10*%
X74163800Y-77468200D03*
X95062700Y-117272000D03*
X93806600Y-103025000D03*
X94828800Y-78477500D03*
%TO.N,/PIN_R_07*%
X89012600Y-106104000D03*
X75312500Y-106228000D03*
X47546800Y-90601600D03*
X76342100Y-92188300D03*
%TO.N,/PIN_R_09*%
X88927900Y-105212000D03*
X94066700Y-105212000D03*
X96176600Y-79219700D03*
%TO.N,/PIN_R_02*%
X79791300Y-101326000D03*
X81165600Y-90989100D03*
X110796000Y-95137700D03*
%TO.N,/PIN_R_04*%
X99276000Y-118162000D03*
X107853000Y-115609000D03*
X86513200Y-74113500D03*
X83227200Y-92790000D03*
X48076000Y-91442700D03*
%TO.N,/PIN_R_05*%
X81656000Y-70399800D03*
X95502000Y-124213000D03*
X107562000Y-124279000D03*
X41546500Y-105408000D03*
X71074500Y-106104000D03*
%TO.N,/PIN_R_03*%
X101469000Y-108450000D03*
X83046000Y-73488100D03*
%TO.N,/PIN_R_06*%
X98037600Y-80006500D03*
X101017000Y-132614000D03*
X99524600Y-107104000D03*
%TO.N,/PIN_R_01*%
X85586000Y-76398300D03*
X103316000Y-109052000D03*
X115106000Y-74973600D03*
%TO.N,/PIN_23*%
X46235200Y-126951000D03*
%TO.N,/PIN_21*%
X51746800Y-51940000D03*
%TO.N,/PIN_20*%
X76683600Y-70487000D03*
X50258000Y-127447000D03*
X48101200Y-100037000D03*
X58829400Y-100037000D03*
%TO.N,/PIN_17*%
X42617900Y-117447000D03*
%TO.N,/PIN_16*%
X66416000Y-50606300D03*
X44026600Y-125093000D03*
%TO.N,/PIN_14*%
X110067000Y-122389000D03*
X85408500Y-122389000D03*
X85355300Y-98248500D03*
%TO.N,/PIN_13*%
X111398000Y-117001000D03*
X111340000Y-67400100D03*
%TO.N,/PIN_12*%
X106331000Y-77310700D03*
X117622000Y-125916000D03*
X104262200Y-125916000D03*
X104262200Y-107003500D03*
X109957600Y-102148000D03*
%TO.N,/PIN_11*%
X105130000Y-111863000D03*
X105130000Y-121622000D03*
X91195400Y-95434700D03*
X91195400Y-68429400D03*
%TO.N,/PIN_10*%
X87156100Y-116382000D03*
X87156100Y-130336000D03*
X102497000Y-75282000D03*
X87040000Y-105007000D03*
X102491000Y-113840000D03*
X102491000Y-115774000D03*
%TO.N,/PIN_09*%
X90317700Y-100302000D03*
X120162000Y-109454000D03*
X86871400Y-69397500D03*
X87794500Y-93637300D03*
X65628100Y-101144000D03*
%TO.N,/PIN_08*%
X89326000Y-99469100D03*
X124480000Y-118104000D03*
X91846400Y-120920000D03*
X72182100Y-104346000D03*
X91610200Y-126674000D03*
%TO.N,/PIN_06*%
X92036000Y-74650300D03*
X73343600Y-96506600D03*
X92863500Y-89864900D03*
X93219300Y-109453000D03*
X126579000Y-108830000D03*
%TO.N,/PIN_05*%
X89496000Y-86985000D03*
X91527500Y-110555000D03*
X72080500Y-113278000D03*
%TO.N,/PIN_04*%
X86956000Y-98803600D03*
X96993200Y-94589500D03*
X92066400Y-72870100D03*
%TO.N,/PIN_03*%
X80900300Y-99830100D03*
X127782000Y-88255500D03*
X76510000Y-106864000D03*
X97202000Y-106864000D03*
%TO.N,/PIN_02*%
X102491000Y-101331000D03*
X81876000Y-101544000D03*
X79050000Y-118752000D03*
%TO.N,/PIN_01*%
X99935100Y-103713000D03*
X87775900Y-82953600D03*
%TD*%
D25*
%TO.N,/START TEST*%
X90661300Y-48340000D02*
X89496000Y-48340000D01*
X92257600Y-46743700D02*
X90661300Y-48340000D01*
X107362000Y-46743700D02*
X92257600Y-46743700D01*
X108546000Y-47927700D02*
X107362000Y-46743700D01*
X108546000Y-48814300D02*
X108546000Y-47927700D01*
X111841000Y-52109500D02*
X108546000Y-48814300D01*
X119700000Y-52109500D02*
X111841000Y-52109500D01*
X121598000Y-54007600D02*
X119700000Y-52109500D01*
X121598000Y-54775000D02*
X121598000Y-54007600D01*
X122750000Y-54775000D02*
X121598000Y-54775000D01*
%TO.N,/+5V*%
X93853500Y-58210000D02*
X103361000Y-48702200D01*
X57275000Y-58210000D02*
X93853500Y-58210000D01*
X118962000Y-64303400D02*
X103361000Y-48702200D01*
X124133900Y-64303400D02*
X118962000Y-64303400D01*
X103361000Y-48340000D02*
X102196000Y-48340000D01*
X103361000Y-48702200D02*
X103361000Y-48340000D01*
X47481300Y-96600000D02*
X46316000Y-96600000D01*
X47481300Y-96289300D02*
X47481300Y-96600000D01*
X51543800Y-92226800D02*
X47481300Y-96289300D01*
X54381500Y-92226800D02*
X51543800Y-92226800D01*
X46316000Y-96600000D02*
X43776000Y-96600000D01*
X124134000Y-64303400D02*
X124133900Y-64303400D01*
%TO.N,/PIN_R_24*%
X49194500Y-111319000D02*
X47419400Y-109544000D01*
X49194500Y-113454000D02*
X49194500Y-111319000D01*
X48042000Y-114606000D02*
X49194500Y-113454000D01*
%TO.N,/PIN_R_23*%
X44941300Y-61040000D02*
X43776000Y-61040000D01*
X44941300Y-61402200D02*
X44941300Y-61040000D01*
X45863000Y-62323900D02*
X44941300Y-61402200D01*
X52360300Y-62323900D02*
X45863000Y-62323900D01*
X52068500Y-108932000D02*
X52138500Y-109002000D01*
X47168800Y-108932000D02*
X52068500Y-108932000D01*
X46817600Y-109283000D02*
X47168800Y-108932000D01*
X46817600Y-110842000D02*
X46817600Y-109283000D01*
X48042000Y-112066000D02*
X46817600Y-110842000D01*
%TO.N,/PIN_R_21*%
X45920000Y-64850000D02*
X51129500Y-64850000D01*
X44941300Y-63871300D02*
X45920000Y-64850000D01*
X44941300Y-63580000D02*
X44941300Y-63871300D01*
X43776000Y-63580000D02*
X44941300Y-63580000D01*
%TO.N,/PIN_R_22*%
X46316000Y-61040000D02*
X49896500Y-61040000D01*
%TO.N,/PIN_R_16*%
X67899800Y-85071400D02*
X67826000Y-85071400D01*
X69007100Y-86178700D02*
X67899800Y-85071400D01*
X69007100Y-87979900D02*
X69007100Y-86178700D01*
X67806000Y-89181000D02*
X69007100Y-87979900D01*
X54478700Y-75657400D02*
X67826000Y-75657400D01*
X47481300Y-68660000D02*
X54478700Y-75657400D01*
X46316000Y-68660000D02*
X47481300Y-68660000D01*
%TO.N,/PIN_R_20*%
X46316000Y-63580000D02*
X50499700Y-63580000D01*
X62661900Y-89116900D02*
X50900000Y-89116900D01*
X62726000Y-89181000D02*
X62661900Y-89116900D01*
X51549200Y-106530000D02*
X50527800Y-106530000D01*
X55108400Y-110090000D02*
X51549200Y-106530000D01*
X55343600Y-110090000D02*
X55108400Y-110090000D01*
X56872100Y-111618000D02*
X55343600Y-110090000D01*
X56872100Y-112544000D02*
X56872100Y-111618000D01*
X56080400Y-113336000D02*
X56872100Y-112544000D01*
X54392000Y-113336000D02*
X56080400Y-113336000D01*
X53122000Y-114606000D02*
X54392000Y-113336000D01*
%TO.N,/PIN_R_18*%
X55176000Y-66120000D02*
X64078300Y-75022300D01*
X46316000Y-66120000D02*
X55176000Y-66120000D01*
X55406000Y-109439000D02*
X55121900Y-109155000D01*
X55406000Y-109440000D02*
X55406000Y-109439000D01*
X57277500Y-109440000D02*
X55406000Y-109440000D01*
X59367100Y-111529000D02*
X57277500Y-109440000D01*
X59367100Y-112565000D02*
X59367100Y-111529000D01*
X58714400Y-113218000D02*
X59367100Y-112565000D01*
X57050300Y-113218000D02*
X58714400Y-113218000D01*
X55662000Y-114606000D02*
X57050300Y-113218000D01*
X57085300Y-94264900D02*
X62273800Y-94264900D01*
X55296000Y-96054200D02*
X57085300Y-94264900D01*
X55296000Y-97141600D02*
X55296000Y-96054200D01*
X56407900Y-98253500D02*
X55296000Y-97141600D01*
%TO.N,/PIN_R_15*%
X43776000Y-72365300D02*
X43776000Y-71200000D01*
X43484700Y-72365300D02*
X43776000Y-72365300D01*
X42590500Y-73259500D02*
X43484700Y-72365300D01*
X42590500Y-79335000D02*
X42590500Y-73259500D01*
X43345500Y-80090000D02*
X42590500Y-79335000D01*
X61255000Y-80090000D02*
X43345500Y-80090000D01*
X67806000Y-86641000D02*
X61255000Y-80090000D01*
%TO.N,/PIN_R_17*%
X61349900Y-82724900D02*
X52918700Y-82724900D01*
X65266000Y-86641000D02*
X61349900Y-82724900D01*
X53257100Y-109364000D02*
X52959400Y-109364000D01*
X55662000Y-111768000D02*
X53257100Y-109364000D01*
X55662000Y-112066000D02*
X55662000Y-111768000D01*
X43492400Y-82724900D02*
X52918700Y-82724900D01*
X42154700Y-81387200D02*
X43492400Y-82724900D01*
X42154700Y-71084400D02*
X42154700Y-81387200D01*
X43413800Y-69825300D02*
X42154700Y-71084400D01*
X43776000Y-69825300D02*
X43413800Y-69825300D01*
X43776000Y-68660000D02*
X43776000Y-69825300D01*
%TO.N,/PIN_R_19*%
X62726000Y-86641000D02*
X55206000Y-86641000D01*
X45849100Y-67390000D02*
X55206000Y-67390000D01*
X44941300Y-66482200D02*
X45849100Y-67390000D01*
X44941300Y-66120000D02*
X44941300Y-66482200D01*
X43776000Y-66120000D02*
X44941300Y-66120000D01*
%TO.N,/PIN_R_12*%
X73827300Y-98023200D02*
X73764200Y-97960100D01*
X83227300Y-98023200D02*
X73827300Y-98023200D01*
X80565500Y-119053000D02*
X83005000Y-119053000D01*
X79863000Y-119755000D02*
X80565500Y-119053000D01*
X68431400Y-119755000D02*
X79863000Y-119755000D01*
X63282000Y-114606000D02*
X68431400Y-119755000D01*
X113784000Y-118319000D02*
X121125000Y-118319000D01*
X111865000Y-116400000D02*
X113784000Y-118319000D01*
X109717000Y-116400000D02*
X111865000Y-116400000D01*
X107768000Y-118349000D02*
X109717000Y-116400000D01*
X107200000Y-118349000D02*
X107768000Y-118349000D01*
X106338000Y-119211000D02*
X107200000Y-118349000D01*
X100450000Y-119211000D02*
X106338000Y-119211000D01*
X100048000Y-119613000D02*
X100450000Y-119211000D01*
X94842200Y-119613000D02*
X100048000Y-119613000D01*
X94282000Y-119053000D02*
X94842200Y-119613000D01*
X83005000Y-119053000D02*
X94282000Y-119053000D01*
X51013900Y-93613400D02*
X48481800Y-96145500D01*
X72521700Y-93613400D02*
X51013900Y-93613400D01*
X72886000Y-93977700D02*
X72521700Y-93613400D01*
%TO.N,/PIN_R_11*%
X71914400Y-77066500D02*
X72125700Y-76855200D01*
X53082000Y-77066500D02*
X71914400Y-77066500D01*
X51103800Y-75088300D02*
X53082000Y-77066500D01*
X45770800Y-75088300D02*
X51103800Y-75088300D01*
X44941300Y-75917800D02*
X45770800Y-75088300D01*
X44941300Y-76280000D02*
X44941300Y-75917800D01*
X43776000Y-76280000D02*
X44941300Y-76280000D01*
X63282000Y-112066000D02*
X64552000Y-112066000D01*
X64552000Y-111669000D02*
X64552000Y-112066000D01*
X69705700Y-106515000D02*
X64552000Y-111669000D01*
X70230900Y-106515000D02*
X69705700Y-106515000D01*
X113550000Y-117517000D02*
X114256000Y-117517000D01*
X112031000Y-115998000D02*
X113550000Y-117517000D01*
X109468000Y-115998000D02*
X112031000Y-115998000D01*
X107661000Y-117806000D02*
X109468000Y-115998000D01*
X107074000Y-117806000D02*
X107661000Y-117806000D01*
X106122000Y-118758000D02*
X107074000Y-117806000D01*
X100136000Y-118758000D02*
X106122000Y-118758000D01*
X99681900Y-119211000D02*
X100136000Y-118758000D01*
X95015000Y-119211000D02*
X99681900Y-119211000D01*
X94394300Y-118591000D02*
X95015000Y-119211000D01*
X83393800Y-118591000D02*
X94394300Y-118591000D01*
X83254300Y-118451000D02*
X83393800Y-118591000D01*
X80599100Y-118451000D02*
X83254300Y-118451000D01*
X79696600Y-119354000D02*
X80599100Y-118451000D01*
X68924600Y-119354000D02*
X79696600Y-119354000D01*
X64552000Y-114981000D02*
X68924600Y-119354000D01*
X64552000Y-112066000D02*
X64552000Y-114981000D01*
%TO.N,/PIN_R_13*%
X49984100Y-72549400D02*
X53349400Y-75914700D01*
X45840600Y-72549400D02*
X49984100Y-72549400D01*
X44941300Y-73448700D02*
X45840600Y-72549400D01*
X44941300Y-73740000D02*
X44941300Y-73448700D01*
X43776000Y-73740000D02*
X44941300Y-73740000D01*
X53863600Y-76428900D02*
X70346000Y-76428900D01*
X53349400Y-75914700D02*
X53863600Y-76428900D01*
X57008600Y-108333000D02*
X54242700Y-108333000D01*
X60742000Y-112066000D02*
X57008600Y-108333000D01*
X107407000Y-118750000D02*
X108776000Y-118750000D01*
X106544000Y-119613000D02*
X107407000Y-118750000D01*
X100616000Y-119613000D02*
X106544000Y-119613000D01*
X100215000Y-120015000D02*
X100616000Y-119613000D01*
X94675800Y-120015000D02*
X100215000Y-120015000D01*
X94176200Y-119515000D02*
X94675800Y-120015000D01*
X83393700Y-119515000D02*
X94176200Y-119515000D01*
X83254200Y-119655000D02*
X83393700Y-119515000D01*
X80713300Y-119655000D02*
X83254200Y-119655000D01*
X80210800Y-120157000D02*
X80713300Y-119655000D01*
X67119700Y-120157000D02*
X80210800Y-120157000D01*
X62012000Y-115049000D02*
X67119700Y-120157000D01*
X62012000Y-113336000D02*
X62012000Y-115049000D01*
X60742000Y-112066000D02*
X62012000Y-113336000D01*
%TO.N,/PIN_R_14*%
X48239100Y-79455000D02*
X59007900Y-79455000D01*
X71536600Y-87990400D02*
X70346000Y-89181000D01*
X71536600Y-86178100D02*
X71536600Y-87990400D01*
X64813500Y-79455000D02*
X71536600Y-86178100D01*
X59007900Y-79455000D02*
X64813500Y-79455000D01*
X54324500Y-111292000D02*
X54097500Y-111066000D01*
X54324500Y-112494000D02*
X54324500Y-111292000D01*
X53424000Y-113394000D02*
X54324500Y-112494000D01*
X52667400Y-113394000D02*
X53424000Y-113394000D01*
X51950300Y-114111000D02*
X52667400Y-113394000D01*
X51950300Y-115080000D02*
X51950300Y-114111000D01*
X52628300Y-115758000D02*
X51950300Y-115080000D01*
X59590300Y-115758000D02*
X52628300Y-115758000D01*
X60742000Y-114606000D02*
X59590300Y-115758000D01*
X66694800Y-120559000D02*
X60742000Y-114606000D01*
X80377100Y-120559000D02*
X66694800Y-120559000D01*
X80879600Y-120056000D02*
X80377100Y-120559000D01*
X83420500Y-120056000D02*
X80879600Y-120056000D01*
X83560000Y-119917000D02*
X83420500Y-120056000D01*
X92261900Y-119917000D02*
X83560000Y-119917000D01*
X92359800Y-120015000D02*
X92261900Y-119917000D01*
X94107800Y-120015000D02*
X92359800Y-120015000D01*
X94509500Y-120416000D02*
X94107800Y-120015000D01*
X100381000Y-120416000D02*
X94509500Y-120416000D01*
X100783000Y-120015000D02*
X100381000Y-120416000D01*
X107531000Y-120015000D02*
X100783000Y-120015000D01*
X107741000Y-119805000D02*
X107531000Y-120015000D01*
%TO.N,/PIN_R_08*%
X95826600Y-133971000D02*
X122502000Y-133971000D01*
X92962000Y-131106000D02*
X95826600Y-133971000D01*
X76799700Y-88014700D02*
X77966000Y-89181000D01*
X75156800Y-88014700D02*
X76799700Y-88014700D01*
X74037700Y-86895600D02*
X75156800Y-88014700D01*
X74037700Y-86163900D02*
X74037700Y-86895600D01*
X66693800Y-78820000D02*
X74037700Y-86163900D01*
X46316000Y-78820000D02*
X66693800Y-78820000D01*
X71403800Y-117648000D02*
X68362000Y-114606000D01*
X83586900Y-117648000D02*
X71403800Y-117648000D01*
X83726400Y-117787000D02*
X83586900Y-117648000D01*
X94726900Y-117787000D02*
X83726400Y-117787000D01*
X95278700Y-118339000D02*
X94726900Y-117787000D01*
X97296700Y-118339000D02*
X95278700Y-118339000D01*
X97427900Y-118208000D02*
X97296700Y-118339000D01*
X47767400Y-121464000D02*
X41563200Y-115260000D01*
X67948100Y-121464000D02*
X47767400Y-121464000D01*
%TO.N,/PIN_R_10*%
X91612600Y-129915000D02*
X90422000Y-131106000D01*
X108482000Y-129915000D02*
X91612600Y-129915000D01*
X110896000Y-132329000D02*
X108482000Y-129915000D01*
X115341000Y-132329000D02*
X110896000Y-132329000D01*
X116270000Y-131400000D02*
X115341000Y-132329000D01*
X116270000Y-130669000D02*
X116270000Y-131400000D01*
X116945000Y-129994000D02*
X116270000Y-130669000D01*
X117899000Y-129994000D02*
X116945000Y-129994000D01*
X119051000Y-131146000D02*
X117899000Y-129994000D01*
X119962000Y-131146000D02*
X119051000Y-131146000D01*
X52915700Y-77468200D02*
X74163800Y-77468200D01*
X52524800Y-77077300D02*
X52915700Y-77468200D01*
X48278600Y-77077300D02*
X52524800Y-77077300D01*
X47481300Y-76280000D02*
X48278600Y-77077300D01*
X46316000Y-76280000D02*
X47481300Y-76280000D01*
X96165000Y-103025000D02*
X93806600Y-103025000D01*
X75173100Y-78477500D02*
X94828800Y-78477500D01*
X74163800Y-77468200D02*
X75173100Y-78477500D01*
X67006100Y-113422000D02*
X65822000Y-114606000D01*
X68884000Y-113422000D02*
X67006100Y-113422000D01*
X69513700Y-114052000D02*
X68884000Y-113422000D01*
X69513700Y-114931000D02*
X69513700Y-114052000D01*
X71828700Y-117246000D02*
X69513700Y-114931000D01*
X83753200Y-117246000D02*
X71828700Y-117246000D01*
X83892700Y-117386000D02*
X83753200Y-117246000D01*
X94949000Y-117386000D02*
X83892700Y-117386000D01*
X95062700Y-117272000D02*
X94949000Y-117386000D01*
%TO.N,/PIN_R_07*%
X121322000Y-129786000D02*
X122502000Y-128606000D01*
X119429000Y-129786000D02*
X121322000Y-129786000D01*
X118574000Y-128930000D02*
X119429000Y-129786000D01*
X118574000Y-128129000D02*
X118574000Y-128930000D01*
X117826000Y-127381000D02*
X118574000Y-128129000D01*
X94147000Y-127381000D02*
X117826000Y-127381000D01*
X92962000Y-128566000D02*
X94147000Y-127381000D01*
X99820600Y-106104000D02*
X89012600Y-106104000D01*
X102633000Y-103291000D02*
X99820600Y-106104000D01*
X102633000Y-103025000D02*
X102633000Y-103291000D01*
X103785000Y-103025000D02*
X102633000Y-103025000D01*
X75436100Y-106104000D02*
X89012600Y-106104000D01*
X75312500Y-106228000D02*
X75436100Y-106104000D01*
X74200300Y-106228000D02*
X75312500Y-106228000D01*
X68362000Y-112066000D02*
X74200300Y-106228000D01*
X56541200Y-92188300D02*
X76342100Y-92188300D01*
X55174500Y-90821600D02*
X56541200Y-92188300D01*
X47766800Y-90821600D02*
X55174500Y-90821600D01*
X47546800Y-90601600D02*
X47766800Y-90821600D01*
%TO.N,/PIN_R_09*%
X88927900Y-105212000D02*
X94066700Y-105212000D01*
X97553300Y-103025000D02*
X98705000Y-103025000D01*
X97553300Y-103294000D02*
X97553300Y-103025000D01*
X95635000Y-105212000D02*
X97553300Y-103294000D01*
X94066700Y-105212000D02*
X95635000Y-105212000D01*
X118335000Y-126979000D02*
X119962000Y-128606000D01*
X92155800Y-126979000D02*
X118335000Y-126979000D01*
X90569100Y-128566000D02*
X92155800Y-126979000D01*
X90422000Y-128566000D02*
X90569100Y-128566000D01*
X66654900Y-77869900D02*
X75426000Y-86641000D01*
X52749400Y-77869900D02*
X66654900Y-77869900D01*
X52496600Y-77617100D02*
X52749400Y-77869900D01*
X45852900Y-77617100D02*
X52496600Y-77617100D01*
X44941300Y-78528700D02*
X45852900Y-77617100D01*
X44941300Y-78820000D02*
X44941300Y-78528700D01*
X43776000Y-78820000D02*
X44941300Y-78820000D01*
X65963200Y-112066000D02*
X65822000Y-112066000D01*
X72415800Y-105613000D02*
X65963200Y-112066000D01*
X88526300Y-105613000D02*
X72415800Y-105613000D01*
X88927900Y-105212000D02*
X88526300Y-105613000D01*
X82847300Y-79219700D02*
X96176600Y-79219700D01*
X75426000Y-86641000D02*
X82847300Y-79219700D01*
%TO.N,/PIN_R_02*%
X102209000Y-132733000D02*
X100582000Y-131106000D01*
X120074000Y-132733000D02*
X102209000Y-132733000D01*
X121114000Y-131693000D02*
X120074000Y-132733000D01*
X121114000Y-130836000D02*
X121114000Y-131693000D01*
X121963000Y-129987000D02*
X121114000Y-130836000D01*
X128963000Y-129987000D02*
X121963000Y-129987000D01*
X130122000Y-131146000D02*
X128963000Y-129987000D01*
X83777900Y-90989100D02*
X85586000Y-89181000D01*
X81165600Y-90989100D02*
X83777900Y-90989100D01*
X113300000Y-100704000D02*
X110161000Y-100704000D01*
X115333000Y-102737000D02*
X113300000Y-100704000D01*
X115333000Y-103025000D02*
X115333000Y-102737000D01*
X116485000Y-103025000D02*
X115333000Y-103025000D01*
X80200200Y-100917000D02*
X79791300Y-101326000D01*
X96505800Y-100917000D02*
X80200200Y-100917000D01*
X96719300Y-100704000D02*
X96505800Y-100917000D01*
X110161000Y-100704000D02*
X96719300Y-100704000D01*
X110161000Y-95773000D02*
X110796000Y-95137700D01*
X110161000Y-100704000D02*
X110161000Y-95773000D01*
X46316000Y-87605300D02*
X46316000Y-86440000D01*
X46832300Y-87605300D02*
X46316000Y-87605300D01*
X49245200Y-90018200D02*
X46832300Y-87605300D01*
X61043500Y-90018200D02*
X49245200Y-90018200D01*
X62210200Y-91184900D02*
X61043500Y-90018200D01*
X80969800Y-91184900D02*
X62210200Y-91184900D01*
X81165600Y-90989100D02*
X80969800Y-91184900D01*
%TO.N,/PIN_R_04*%
X125561000Y-133167000D02*
X127582000Y-131146000D01*
X121422000Y-133167000D02*
X125561000Y-133167000D01*
X121021000Y-133569000D02*
X121422000Y-133167000D01*
X100505000Y-133569000D02*
X121021000Y-133569000D01*
X98042000Y-131106000D02*
X100505000Y-133569000D01*
X86665600Y-73961100D02*
X86513200Y-74113500D01*
X99769900Y-73961100D02*
X86665600Y-73961100D01*
X102166000Y-71565000D02*
X99769900Y-73961100D01*
X75680400Y-116844000D02*
X73442000Y-114606000D01*
X83919500Y-116844000D02*
X75680400Y-116844000D01*
X84059000Y-116984000D02*
X83919500Y-116844000D01*
X94499900Y-116984000D02*
X84059000Y-116984000D01*
X94813600Y-116670000D02*
X94499900Y-116984000D01*
X97784700Y-116670000D02*
X94813600Y-116670000D01*
X99276000Y-118162000D02*
X97784700Y-116670000D01*
X99483100Y-117954000D02*
X99276000Y-118162000D01*
X105223000Y-117954000D02*
X99483100Y-117954000D01*
X107568000Y-115609000D02*
X105223000Y-117954000D01*
X107853000Y-115609000D02*
X107568000Y-115609000D01*
X56455700Y-92790000D02*
X83227200Y-92790000D01*
X55108400Y-91442700D02*
X56455700Y-92790000D01*
X48076000Y-91442700D02*
X55108400Y-91442700D01*
%TO.N,/PIN_R_05*%
X97683300Y-70399800D02*
X81656000Y-70399800D01*
X99058100Y-69025000D02*
X97683300Y-70399800D01*
X99626000Y-69025000D02*
X99058100Y-69025000D01*
X74920000Y-108048000D02*
X70902000Y-112066000D01*
X100985000Y-108048000D02*
X74920000Y-108048000D01*
X102920000Y-106113000D02*
X100985000Y-108048000D01*
X104894000Y-106113000D02*
X102920000Y-106113000D01*
X107713000Y-103294000D02*
X104894000Y-106113000D01*
X107713000Y-103025000D02*
X107713000Y-103294000D01*
X108865000Y-103025000D02*
X107713000Y-103025000D01*
X107496000Y-124213000D02*
X107562000Y-124279000D01*
X95502000Y-124213000D02*
X107496000Y-124213000D01*
X120715000Y-124279000D02*
X107562000Y-124279000D01*
X125042000Y-128606000D02*
X120715000Y-124279000D01*
X70379000Y-105408000D02*
X41546500Y-105408000D01*
X71074500Y-106104000D02*
X70379000Y-105408000D01*
%TO.N,/PIN_R_03*%
X44941300Y-86440000D02*
X43776000Y-86440000D01*
X44941300Y-86148700D02*
X44941300Y-86440000D01*
X45827400Y-85262600D02*
X44941300Y-86148700D01*
X48489300Y-85262600D02*
X45827400Y-85262600D01*
X51195300Y-87968600D02*
X48489300Y-85262600D01*
X63193300Y-87968600D02*
X51195300Y-87968600D01*
X63996000Y-88771300D02*
X63193300Y-87968600D01*
X63996000Y-89574200D02*
X63996000Y-88771300D01*
X65204200Y-90782400D02*
X63996000Y-89574200D01*
X80521500Y-90782400D02*
X65204200Y-90782400D01*
X80916500Y-90387400D02*
X80521500Y-90782400D01*
X81013100Y-90387400D02*
X80916500Y-90387400D01*
X81894300Y-89506200D02*
X81013100Y-90387400D01*
X81894300Y-88421100D02*
X81894300Y-89506200D01*
X83046000Y-87269400D02*
X81894300Y-88421100D01*
X83046000Y-86641000D02*
X83046000Y-87269400D01*
X77058300Y-108450000D02*
X101469000Y-108450000D01*
X73442000Y-112066000D02*
X77058300Y-108450000D01*
X107637000Y-108450000D02*
X101469000Y-108450000D01*
X112793000Y-103294000D02*
X107637000Y-108450000D01*
X112793000Y-103025000D02*
X112793000Y-103294000D01*
X113945000Y-103025000D02*
X112793000Y-103025000D01*
X95245600Y-73488100D02*
X83046000Y-73488100D01*
X98378800Y-70354900D02*
X95245600Y-73488100D01*
X100836000Y-70354900D02*
X98378800Y-70354900D01*
X102166000Y-69025000D02*
X100836000Y-70354900D01*
%TO.N,/PIN_R_06*%
X79309600Y-90377400D02*
X80506000Y-89181000D01*
X67336900Y-90377400D02*
X79309600Y-90377400D01*
X66536000Y-89576500D02*
X67336900Y-90377400D01*
X66536000Y-86197500D02*
X66536000Y-89576500D01*
X61698500Y-81360000D02*
X66536000Y-86197500D01*
X46316000Y-81360000D02*
X61698500Y-81360000D01*
X101570000Y-133167000D02*
X101017000Y-132614000D01*
X120640000Y-133167000D02*
X101570000Y-133167000D01*
X121509000Y-132298000D02*
X120640000Y-133167000D01*
X123890000Y-132298000D02*
X121509000Y-132298000D01*
X125042000Y-131146000D02*
X123890000Y-132298000D01*
X87994400Y-80006500D02*
X98037600Y-80006500D01*
X81776000Y-86224900D02*
X87994400Y-80006500D01*
X81776000Y-87911000D02*
X81776000Y-86224900D01*
X80506000Y-89181000D02*
X81776000Y-87911000D01*
X101361000Y-107104000D02*
X99524600Y-107104000D01*
X105173000Y-103291000D02*
X101361000Y-107104000D01*
X105173000Y-103025000D02*
X105173000Y-103291000D01*
X106325000Y-103025000D02*
X105173000Y-103025000D01*
X99122900Y-107506000D02*
X99524600Y-107104000D01*
X73778600Y-107506000D02*
X99122900Y-107506000D01*
X69750300Y-111534000D02*
X73778600Y-107506000D01*
X69750300Y-113454000D02*
X69750300Y-111534000D01*
X70902000Y-114606000D02*
X69750300Y-113454000D01*
%TO.N,/PIN_R_01*%
X103515000Y-70215600D02*
X104706000Y-69025000D01*
X103515000Y-74973600D02*
X103515000Y-70215600D01*
X103515000Y-74973600D02*
X115106000Y-74973600D01*
X103515000Y-75114800D02*
X103515000Y-74973600D01*
X102232000Y-76398300D02*
X103515000Y-75114800D01*
X85586000Y-76398300D02*
X102232000Y-76398300D01*
X78795700Y-109252000D02*
X75982000Y-112066000D01*
X92569400Y-109252000D02*
X78795700Y-109252000D01*
X92970200Y-108851000D02*
X92569400Y-109252000D01*
X93468500Y-108851000D02*
X92970200Y-108851000D01*
X93668500Y-109051000D02*
X93468500Y-108851000D01*
X103315000Y-109051000D02*
X93668500Y-109051000D01*
X103316000Y-109052000D02*
X103315000Y-109051000D01*
X112134000Y-109052000D02*
X103316000Y-109052000D01*
X117873000Y-103313000D02*
X112134000Y-109052000D01*
X117873000Y-103025000D02*
X117873000Y-103313000D01*
X119025000Y-103025000D02*
X117873000Y-103025000D01*
X44941300Y-88980000D02*
X43776000Y-88980000D01*
X44941300Y-89271400D02*
X44941300Y-88980000D01*
X45815200Y-90145300D02*
X44941300Y-89271400D01*
X47152300Y-90145300D02*
X45815200Y-90145300D01*
X47297700Y-89999900D02*
X47152300Y-90145300D01*
X47797700Y-89999900D02*
X47297700Y-89999900D01*
X48217700Y-90419900D02*
X47797700Y-89999900D01*
X55423400Y-90419900D02*
X48217700Y-90419900D01*
X56590100Y-91586600D02*
X55423400Y-90419900D01*
X76591300Y-91586600D02*
X56590100Y-91586600D01*
X76621200Y-91616500D02*
X76591300Y-91586600D01*
X84853700Y-91616500D02*
X76621200Y-91616500D01*
X86737700Y-89732500D02*
X84853700Y-91616500D01*
X86737700Y-87792700D02*
X86737700Y-89732500D01*
X85586000Y-86641000D02*
X86737700Y-87792700D01*
%TO.N,/PIN_23*%
X46267300Y-126951000D02*
X46235200Y-126951000D01*
X48382000Y-129066000D02*
X46267300Y-126951000D01*
%TO.N,/PIN_21*%
X80012900Y-51940000D02*
X51746800Y-51940000D01*
X83250700Y-48702200D02*
X80012900Y-51940000D01*
X83250700Y-48340000D02*
X83250700Y-48702200D01*
X84416000Y-48340000D02*
X83250700Y-48340000D01*
%TO.N,/PIN_20*%
X63840000Y-70487000D02*
X76683600Y-70487000D01*
X62606000Y-71721000D02*
X63840000Y-70487000D01*
X49727700Y-127977000D02*
X50258000Y-127447000D01*
X49727700Y-129527000D02*
X49727700Y-127977000D01*
X50536600Y-130336000D02*
X49727700Y-129527000D01*
X52192000Y-130336000D02*
X50536600Y-130336000D01*
X53462000Y-131606000D02*
X52192000Y-130336000D01*
X58829400Y-100037000D02*
X48101200Y-100037000D01*
%TO.N,/PIN_17*%
X53085600Y-127914000D02*
X42617900Y-117447000D01*
X54850300Y-127914000D02*
X53085600Y-127914000D01*
X56002000Y-129066000D02*
X54850300Y-127914000D01*
%TO.N,/PIN_16*%
X51996300Y-50606300D02*
X66416000Y-50606300D01*
X50021300Y-48631300D02*
X51996300Y-50606300D01*
X50021300Y-48340000D02*
X50021300Y-48631300D01*
X48856000Y-48340000D02*
X50021300Y-48340000D01*
X48754600Y-125093000D02*
X44026600Y-125093000D01*
X52097000Y-128435000D02*
X48754600Y-125093000D01*
X52097000Y-129346000D02*
X52097000Y-128435000D01*
X53086800Y-130336000D02*
X52097000Y-129346000D01*
X57272000Y-130336000D02*
X53086800Y-130336000D01*
X58542000Y-131606000D02*
X57272000Y-130336000D01*
%TO.N,Net-(D15-A)*%
X132998000Y-63223300D02*
X134200000Y-64425000D01*
X128756000Y-63223300D02*
X132998000Y-63223300D01*
X127676000Y-64303400D02*
X128756000Y-63223300D01*
X126674000Y-64303400D02*
X127676000Y-64303400D01*
X126674000Y-64303400D02*
X126673900Y-64303400D01*
%TO.N,/PIN_14*%
X62352000Y-130336000D02*
X61082000Y-131606000D01*
X64073200Y-130336000D02*
X62352000Y-130336000D01*
X64773700Y-129636000D02*
X64073200Y-130336000D01*
X64773700Y-128743000D02*
X64773700Y-129636000D01*
X71127300Y-122389000D02*
X64773700Y-128743000D01*
X85408500Y-122389000D02*
X71127300Y-122389000D01*
X83852800Y-98248500D02*
X85355300Y-98248500D01*
X83852800Y-98248600D02*
X83852800Y-98248500D01*
X83476500Y-98624900D02*
X83852800Y-98248600D01*
X82978200Y-98624900D02*
X83476500Y-98624900D01*
X82778200Y-98424900D02*
X82978200Y-98624900D01*
X76494100Y-98424900D02*
X82778200Y-98424900D01*
X76268800Y-98650200D02*
X76494100Y-98424900D01*
X72600900Y-98650200D02*
X76268800Y-98650200D01*
X71716000Y-97765300D02*
X72600900Y-98650200D01*
X71716000Y-96600000D02*
X71716000Y-97765300D01*
X85408500Y-122389000D02*
X110067000Y-122389000D01*
%TO.N,/PIN_13*%
X72208500Y-67198500D02*
X70226000Y-69181000D01*
X111138000Y-67198500D02*
X72208500Y-67198500D01*
X111340000Y-67400100D02*
X111138000Y-67198500D01*
X107970000Y-120429000D02*
X111398000Y-117001000D01*
X100936000Y-120429000D02*
X107970000Y-120429000D01*
X100547000Y-120818000D02*
X100936000Y-120429000D01*
X94343200Y-120818000D02*
X100547000Y-120818000D01*
X93954200Y-120429000D02*
X94343200Y-120818000D01*
X92206200Y-120429000D02*
X93954200Y-120429000D01*
X92095600Y-120319000D02*
X92206200Y-120429000D01*
X83726300Y-120319000D02*
X92095600Y-120319000D01*
X83586800Y-120458000D02*
X83726300Y-120319000D01*
X81045900Y-120458000D02*
X83586800Y-120458000D01*
X80543400Y-120960000D02*
X81045900Y-120458000D01*
X69302800Y-120960000D02*
X80543400Y-120960000D01*
X61197300Y-129066000D02*
X69302800Y-120960000D01*
X61082000Y-129066000D02*
X61197300Y-129066000D01*
%TO.N,/PIN_12*%
X76849600Y-75804600D02*
X72766000Y-71721000D01*
X76967300Y-75686900D02*
X76849600Y-75804600D01*
X77299900Y-75686900D02*
X76967300Y-75686900D01*
X78874800Y-77261800D02*
X77299900Y-75686900D01*
X78874800Y-77309200D02*
X78874800Y-77261800D01*
X92705100Y-77309200D02*
X78874800Y-77309200D01*
X92706600Y-77310700D02*
X92705100Y-77309200D01*
X106331000Y-77310700D02*
X92706600Y-77310700D01*
X64892000Y-130336000D02*
X63622000Y-131606000D01*
X66580400Y-130336000D02*
X64892000Y-130336000D01*
X67432000Y-129484000D02*
X66580400Y-130336000D01*
X67432000Y-128700000D02*
X67432000Y-129484000D01*
X70215800Y-125916000D02*
X67432000Y-128700000D01*
X104126200Y-125916000D02*
X70215800Y-125916000D01*
X106568600Y-107003500D02*
X104262200Y-107003500D01*
X110016700Y-103555400D02*
X106568600Y-107003500D01*
X110016700Y-102207100D02*
X110016700Y-103555400D01*
X109957600Y-102148000D02*
X110016700Y-102207100D01*
X104126200Y-125916000D02*
X104262200Y-125916000D01*
X117622000Y-125916000D02*
X104262200Y-125916000D01*
X104262200Y-125916000D02*
X104126200Y-125916000D01*
%TO.N,/PIN_11*%
X116425000Y-111409000D02*
X117622000Y-112606000D01*
X114198000Y-111409000D02*
X116425000Y-111409000D01*
X113744000Y-111863000D02*
X114198000Y-111409000D01*
X105130000Y-111863000D02*
X113744000Y-111863000D01*
X90366200Y-67600200D02*
X91195400Y-68429400D01*
X74346800Y-67600200D02*
X90366200Y-67600200D01*
X72766000Y-69181000D02*
X74346800Y-67600200D01*
X104221000Y-95434700D02*
X91195400Y-95434700D01*
X105095000Y-96308600D02*
X104221000Y-95434700D01*
X105095000Y-96600000D02*
X105095000Y-96308600D01*
X106260000Y-96600000D02*
X105095000Y-96600000D01*
X71066400Y-121622000D02*
X105130000Y-121622000D01*
X63622000Y-129066000D02*
X71066400Y-121622000D01*
%TO.N,/PIN_10*%
X67432000Y-130336000D02*
X87156100Y-130336000D01*
X66162000Y-131606000D02*
X67432000Y-130336000D01*
X89582000Y-115774000D02*
X89582000Y-114606000D01*
X78867000Y-75282000D02*
X102497000Y-75282000D01*
X75306000Y-71721000D02*
X78867000Y-75282000D01*
X118856000Y-113840000D02*
X102491000Y-113840000D01*
X120162000Y-115146000D02*
X118856000Y-113840000D01*
X61425400Y-105007000D02*
X87040000Y-105007000D01*
X59881700Y-103463000D02*
X61425400Y-105007000D01*
X59881700Y-103175000D02*
X59881700Y-103463000D01*
X58730000Y-103175000D02*
X59881700Y-103175000D01*
X89582000Y-115774000D02*
X102491000Y-115774000D01*
X87764100Y-115774000D02*
X87156100Y-116382000D01*
X89582000Y-115774000D02*
X87764100Y-115774000D01*
%TO.N,/PIN_09*%
X86871400Y-68599200D02*
X86871400Y-69397500D01*
X86298900Y-68026700D02*
X86871400Y-68599200D01*
X76460300Y-68026700D02*
X86298900Y-68026700D01*
X75306000Y-69181000D02*
X76460300Y-68026700D01*
X96604200Y-100302000D02*
X90317700Y-100302000D01*
X100015000Y-96891300D02*
X96604200Y-100302000D01*
X100015000Y-96600000D02*
X100015000Y-96891300D01*
X101180000Y-96600000D02*
X100015000Y-96600000D01*
X62421700Y-103175000D02*
X61270000Y-103175000D01*
X62421700Y-102906000D02*
X62421700Y-103175000D01*
X64184300Y-101144000D02*
X62421700Y-102906000D01*
X65628100Y-101144000D02*
X64184300Y-101144000D01*
X79015100Y-93637300D02*
X87794500Y-93637300D01*
X77715500Y-94936900D02*
X79015100Y-93637300D01*
X71686900Y-94936900D02*
X77715500Y-94936900D01*
X70446000Y-96177800D02*
X71686900Y-94936900D01*
X70446000Y-97069900D02*
X70446000Y-96177800D01*
X66372100Y-101144000D02*
X70446000Y-97069900D01*
X65628100Y-101144000D02*
X66372100Y-101144000D01*
X89582000Y-111648000D02*
X89582000Y-112066000D01*
X91325400Y-109904000D02*
X89582000Y-111648000D01*
X91826200Y-109904000D02*
X91325400Y-109904000D01*
X91977500Y-110056000D02*
X91826200Y-109904000D01*
X113079000Y-110056000D02*
X91977500Y-110056000D01*
X113681000Y-109454000D02*
X113079000Y-110056000D01*
X120162000Y-109454000D02*
X113681000Y-109454000D01*
%TO.N,/PIN_08*%
X94605600Y-99469100D02*
X89326000Y-99469100D01*
X97474700Y-96600000D02*
X94605600Y-99469100D01*
X98640000Y-96600000D02*
X97474700Y-96600000D01*
X64961700Y-103175000D02*
X63810000Y-103175000D01*
X64961700Y-103444000D02*
X64961700Y-103175000D01*
X65864700Y-104346000D02*
X64961700Y-103444000D01*
X72182100Y-104346000D02*
X65864700Y-104346000D01*
X90646700Y-126674000D02*
X91610200Y-126674000D01*
X88352100Y-128969000D02*
X90646700Y-126674000D01*
X88352100Y-130041000D02*
X88352100Y-128969000D01*
X85622300Y-132770000D02*
X88352100Y-130041000D01*
X69866400Y-132770000D02*
X85622300Y-132770000D01*
X68702000Y-131606000D02*
X69866400Y-132770000D01*
X88363300Y-100432000D02*
X89326000Y-99469100D01*
X79871900Y-100432000D02*
X88363300Y-100432000D01*
X79615000Y-100689000D02*
X79871900Y-100432000D01*
X79542200Y-100689000D02*
X79615000Y-100689000D01*
X79189600Y-101041000D02*
X79542200Y-100689000D01*
X79189600Y-101114000D02*
X79189600Y-101041000D01*
X77780000Y-102524000D02*
X79189600Y-101114000D01*
X77780000Y-103565000D02*
X77780000Y-102524000D01*
X76998400Y-104346000D02*
X77780000Y-103565000D01*
X72182100Y-104346000D02*
X76998400Y-104346000D01*
X121604000Y-120979000D02*
X124480000Y-118104000D01*
X104393000Y-120979000D02*
X121604000Y-120979000D01*
X104152000Y-121220000D02*
X104393000Y-120979000D01*
X92146000Y-121220000D02*
X104152000Y-121220000D01*
X91846400Y-120920000D02*
X92146000Y-121220000D01*
%TO.N,/PIN_07*%
X120553000Y-110457000D02*
X122702000Y-112606000D01*
X114013000Y-110457000D02*
X120553000Y-110457000D01*
X113812000Y-110659000D02*
X114013000Y-110457000D01*
X113612000Y-110659000D02*
X113812000Y-110659000D01*
X113412000Y-110859000D02*
X113612000Y-110659000D01*
X96736000Y-110859000D02*
X113412000Y-110859000D01*
X95932100Y-111663000D02*
X96736000Y-110859000D01*
X95932100Y-112484000D02*
X95932100Y-111663000D01*
X95140300Y-113276000D02*
X95932100Y-112484000D01*
X93332100Y-113276000D02*
X95140300Y-113276000D01*
X92122000Y-112066000D02*
X93332100Y-113276000D01*
X93410700Y-96600000D02*
X94576000Y-96600000D01*
X93410700Y-96962200D02*
X93410700Y-96600000D01*
X92172100Y-98200800D02*
X93410700Y-96962200D01*
X86253800Y-98200800D02*
X92172100Y-98200800D01*
X86253800Y-98200900D02*
X86253800Y-98200800D01*
X85428100Y-99026600D02*
X86253800Y-98200900D01*
X82811900Y-99026600D02*
X85428100Y-99026600D01*
X82611900Y-98826600D02*
X82811900Y-99026600D01*
X76660400Y-98826600D02*
X82611900Y-98826600D01*
X76435100Y-99051900D02*
X76660400Y-98826600D01*
X71336900Y-99051900D02*
X76435100Y-99051900D01*
X67501700Y-102887000D02*
X71336900Y-99051900D01*
X67501700Y-103175000D02*
X67501700Y-102887000D01*
X66350000Y-103175000D02*
X67501700Y-103175000D01*
%TO.N,/GND*%
X43776000Y-53420000D02*
X46316000Y-53420000D01*
X57275000Y-60750000D02*
X53770800Y-57245800D01*
X49945000Y-53420000D02*
X46316000Y-53420000D01*
X53770800Y-57245800D02*
X49945000Y-53420000D01*
X95950700Y-48340000D02*
X97116000Y-48340000D01*
X95950700Y-48631300D02*
X95950700Y-48340000D01*
X90094200Y-54487800D02*
X95950700Y-48631300D01*
X56528800Y-54487800D02*
X90094200Y-54487800D01*
X53770800Y-57245800D02*
X56528800Y-54487800D01*
X97116000Y-48340000D02*
X99656000Y-48340000D01*
X112059000Y-54775000D02*
X120250000Y-54775000D01*
X106006000Y-48722000D02*
X112059000Y-54775000D01*
X106006000Y-47940300D02*
X106006000Y-48722000D01*
X105212000Y-47146000D02*
X106006000Y-47940300D01*
X101724000Y-47146000D02*
X105212000Y-47146000D01*
X100821000Y-48048700D02*
X101724000Y-47146000D01*
X100821000Y-48340000D02*
X100821000Y-48048700D01*
X99656000Y-48340000D02*
X100821000Y-48340000D01*
%TO.N,/PIN_06*%
X99470100Y-89864900D02*
X99810000Y-89525000D01*
X92863500Y-89864900D02*
X99470100Y-89864900D01*
X91957800Y-74728500D02*
X92036000Y-74650300D01*
X83393500Y-74728500D02*
X91957800Y-74728500D01*
X80386000Y-71721000D02*
X83393500Y-74728500D01*
X113727000Y-108830000D02*
X126579000Y-108830000D01*
X112904000Y-109654000D02*
X113727000Y-108830000D01*
X93420100Y-109654000D02*
X112904000Y-109654000D01*
X93219300Y-109453000D02*
X93420100Y-109654000D01*
X74415500Y-95434700D02*
X73343600Y-96506600D01*
X82358700Y-95434700D02*
X74415500Y-95434700D01*
X83041300Y-96117300D02*
X82358700Y-95434700D01*
X83041300Y-96877700D02*
X83041300Y-96117300D01*
X83961600Y-97798000D02*
X83041300Y-96877700D01*
X84955000Y-97798000D02*
X83961600Y-97798000D01*
X85155200Y-97597800D02*
X84955000Y-97798000D01*
X86053700Y-97597800D02*
X85155200Y-97597800D01*
X86254000Y-97798100D02*
X86053700Y-97597800D01*
X90034800Y-97798100D02*
X86254000Y-97798100D01*
X90870700Y-96962200D02*
X90034800Y-97798100D01*
X90870700Y-96600000D02*
X90870700Y-96962200D01*
X92036000Y-96600000D02*
X90870700Y-96600000D01*
%TO.N,/PIN_05*%
X99810000Y-86985000D02*
X89496000Y-86985000D01*
X94662000Y-112066000D02*
X94662000Y-110555000D01*
X91527500Y-110555000D02*
X94662000Y-110555000D01*
X90058900Y-113278000D02*
X72080500Y-113278000D01*
X90852000Y-112484000D02*
X90058900Y-113278000D01*
X90852000Y-111231000D02*
X90852000Y-112484000D01*
X91527500Y-110555000D02*
X90852000Y-111231000D01*
X122692000Y-110056000D02*
X125242000Y-112606000D01*
X113847000Y-110056000D02*
X122692000Y-110056000D01*
X113645000Y-110257000D02*
X113847000Y-110056000D01*
X113445000Y-110257000D02*
X113645000Y-110257000D01*
X113245000Y-110457000D02*
X113445000Y-110257000D01*
X94759800Y-110457000D02*
X113245000Y-110457000D01*
X94662000Y-110555000D02*
X94759800Y-110457000D01*
%TO.N,/PIN_04*%
X84157900Y-72952900D02*
X82926000Y-71721000D01*
X91983600Y-72952900D02*
X84157900Y-72952900D01*
X92066400Y-72870100D02*
X91983600Y-72952900D01*
X98383800Y-113424000D02*
X97202000Y-114606000D01*
X100741000Y-113424000D02*
X98383800Y-113424000D01*
X101923000Y-114606000D02*
X100741000Y-113424000D01*
X112036000Y-114606000D02*
X101923000Y-114606000D01*
X113742000Y-116313000D02*
X112036000Y-114606000D01*
X126615000Y-116313000D02*
X113742000Y-116313000D01*
X127782000Y-115146000D02*
X126615000Y-116313000D01*
X86331300Y-99428300D02*
X86956000Y-98803600D01*
X82645600Y-99428300D02*
X86331300Y-99428300D01*
X82445600Y-99228300D02*
X82645600Y-99428300D01*
X78799900Y-99228300D02*
X82445600Y-99228300D01*
X75121700Y-102906000D02*
X78799900Y-99228300D01*
X75121700Y-103175000D02*
X75121700Y-102906000D01*
X73970000Y-103175000D02*
X75121700Y-103175000D01*
X88121300Y-96600000D02*
X86956000Y-96600000D01*
X88121300Y-96237800D02*
X88121300Y-96600000D01*
X89769600Y-94589500D02*
X88121300Y-96237800D01*
X96993200Y-94589500D02*
X89769600Y-94589500D01*
X97285500Y-94589500D02*
X96993200Y-94589500D01*
X102350000Y-89525000D02*
X97285500Y-94589500D01*
%TO.N,/PIN_03*%
X85581300Y-96600000D02*
X84416000Y-96600000D01*
X85581300Y-96237800D02*
X85581300Y-96600000D01*
X87580100Y-94239000D02*
X85581300Y-96237800D01*
X88043700Y-94239000D02*
X87580100Y-94239000D01*
X92261800Y-90020900D02*
X88043700Y-94239000D01*
X92261800Y-89615800D02*
X92261800Y-90020900D01*
X93622100Y-88255500D02*
X92261800Y-89615800D01*
X102350000Y-88255500D02*
X93622100Y-88255500D01*
X79832800Y-99830100D02*
X80900300Y-99830100D01*
X76510000Y-103153000D02*
X79832800Y-99830100D01*
X76510000Y-103175000D02*
X76510000Y-103153000D01*
X97202000Y-106864000D02*
X76510000Y-106864000D01*
X102350000Y-86985000D02*
X102350000Y-88255500D01*
X102350000Y-88255500D02*
X127782000Y-88255500D01*
%TO.N,/PIN_02*%
X82089000Y-101331000D02*
X102491000Y-101331000D01*
X81876000Y-101544000D02*
X82089000Y-101331000D01*
X81062200Y-101544000D02*
X81876000Y-101544000D01*
X80035400Y-102571000D02*
X81062200Y-101544000D01*
X80035400Y-103175000D02*
X80035400Y-102571000D01*
X79050000Y-103175000D02*
X80035400Y-103175000D01*
X128754000Y-116714000D02*
X130322000Y-115146000D01*
X113493000Y-116714000D02*
X128754000Y-116714000D01*
X112310000Y-115531000D02*
X113493000Y-116714000D01*
X108467000Y-115531000D02*
X112310000Y-115531000D01*
X100144000Y-115008000D02*
X99742000Y-114606000D01*
X108205000Y-115008000D02*
X100144000Y-115008000D01*
X108467000Y-115269000D02*
X108205000Y-115008000D01*
X108467000Y-115531000D02*
X108467000Y-115269000D01*
X79752500Y-118050000D02*
X79050000Y-118752000D01*
X83420600Y-118050000D02*
X79752500Y-118050000D01*
X83560100Y-118189000D02*
X83420600Y-118050000D01*
X94560600Y-118189000D02*
X83560100Y-118189000D01*
X95181300Y-118810000D02*
X94560600Y-118189000D01*
X99515600Y-118810000D02*
X95181300Y-118810000D01*
X99969200Y-118356000D02*
X99515600Y-118810000D01*
X105390000Y-118356000D02*
X99969200Y-118356000D01*
X105788000Y-117957000D02*
X105390000Y-118356000D01*
X106354000Y-117957000D02*
X105788000Y-117957000D01*
X106908000Y-117404000D02*
X106354000Y-117957000D01*
X106910000Y-117404000D02*
X106908000Y-117404000D01*
X108467000Y-115847000D02*
X106910000Y-117404000D01*
X108467000Y-115531000D02*
X108467000Y-115847000D01*
%TO.N,/PIN_01*%
X99935100Y-102609000D02*
X99935100Y-103713000D01*
X99170600Y-101844000D02*
X99935100Y-102609000D01*
X84072500Y-101844000D02*
X99170600Y-101844000D01*
X82741700Y-103175000D02*
X84072500Y-101844000D01*
X81590000Y-103175000D02*
X82741700Y-103175000D01*
X100859000Y-82953600D02*
X87775900Y-82953600D01*
X104890000Y-86985000D02*
X100859000Y-82953600D01*
X129170000Y-113758000D02*
X130322000Y-112606000D01*
X122162000Y-113758000D02*
X129170000Y-113758000D01*
X121338000Y-112934000D02*
X122162000Y-113758000D01*
X121338000Y-112129000D02*
X121338000Y-112934000D01*
X120068000Y-110859000D02*
X121338000Y-112129000D01*
X114180000Y-110859000D02*
X120068000Y-110859000D01*
X113978000Y-111061000D02*
X114180000Y-110859000D01*
X113778000Y-111061000D02*
X113978000Y-111061000D01*
X113578000Y-111261000D02*
X113778000Y-111061000D01*
X100547000Y-111261000D02*
X113578000Y-111261000D01*
X99742000Y-112066000D02*
X100547000Y-111261000D01*
%TD*%
M02*
