0
SECTION
2
HEADER
9
$INSUNITS
70
4
9
$ACADVER
1
AC1014
9
$HANDSEED
5
FFFF
0
ENDSEC
0
SECTION
2
TABLES
0
TABLE
2
VPORT
5
8
100
AcDbSymbolTable
0
ENDTAB
0
TABLE
2
LTYPE
5
5
100
AcDbSymbolTable
0
LTYPE
5
14
100
AcDbSymbolTableRecord
100
AcDbLinetypeTableRecord
2
BYBLOCK
70
0
0
LTYPE
5
15
100
AcDbSymbolTableRecord
100
AcDbLinetypeTableRecord
2
BYLAYER
70
0
0
ENDTAB
0
TABLE
2
LAYER
5
2
100
AcDbSymbolTable
70
2
0
LAYER
5
50
100
AcDbSymbolTableRecord
100
AcDbLayerTableRecord
2
0
70
0
6
CONTINUOUS
0
ENDTAB
0
TABLE
2
STYLE
5
3
100
AcDbSymbolTable
70
1
0
STYLE
5
11
100
AcDbSymbolTableRecord
100
AcDbTextStyleTableRecord
2
STANDARD
70
0
0
ENDTAB
0
TABLE
2
VIEW
5
6
100
AcDbSymbolTable
70
0
0
ENDTAB
0
TABLE
2
UCS
5
7
100
AcDbSymbolTable
70
0
0
ENDTAB
0
TABLE
2
APPID
5
9
100
AcDbSymbolTable
70
2
0
APPID
5
12
100
AcDbSymbolTableRecord
100
AcDbRegAppTableRecord
2
ACAD
70
0
0
ENDTAB
0
TABLE
2
DIMSTYLE
5
A
100
AcDbSymbolTable
70
1
0
ENDTAB
0
TABLE
2
BLOCK_RECORD
5
1
100
AcDbSymbolTable
70
1
0
BLOCK_RECORD
5
1F
100
AcDbSymbolTableRecord
100
AcDbBlockTableRecord
2
*MODEL_SPACE
0
BLOCK_RECORD
5
1B
100
AcDbSymbolTableRecord
100
AcDbBlockTableRecord
2
*PAPER_SPACE
0
ENDTAB
0
ENDSEC
0
SECTION
2
BLOCKS
0
BLOCK
5
20
100
AcDbEntity
100
AcDbBlockBegin
2
*MODEL_SPACE
0
ENDBLK
5
21
100
AcDbEntity
100
AcDbBlockEnd
0
BLOCK
5
1C
100
AcDbEntity
100
AcDbBlockBegin
2
*PAPER_SPACE
0
ENDBLK
5
1D
100
AcDbEntity
100
AcDbBlockEnd
0
ENDSEC
0
SECTION
2
ENTITIES
0
LINE
5
100
100
AcDbEntity
8
0
100
AcDbLine
10
-358.36667441825313
20
-432.70716494185785
30
-3.1784884177432637e-06
11
-360.90301152769933
21
-432.84352779871148
31
-3.1789794005532279e-06
0
ELLIPSE
5
101
100
AcDbEntity
8
0
100
AcDbEllipse
10
-360.98354076925324
20
-431.34569099280623
30
-3.1782689360881911e-06
11
1.5000000438765122
21
-3.1225022567582238e-17
31
0.0
40
0.99999998320490791
41
3.195304832993922
42
4.7661009640879808
0
LINE
5
102
100
AcDbEntity
8
0
100
AcDbLine
10
-362.48137758468857
20
-431.42622052861788
30
-3.1781398202035405e-06
11
-363.29955471818658
21
-416.20819810060249
31
-3.1681151069218316e-06
0
ELLIPSE
5
103
100
AcDbEntity
8
0
100
AcDbEllipse
10
-361.80171788706281
20
-416.12766885659363
30
-3.1681142301231979e-06
11
1.5000000438765835
21
-1.0408340855861239e-17
31
0.0
40
0.99999998320490768
41
1.6245083112299081
42
3.1953046381777952
0
LINE
5
104
100
AcDbEntity
8
0
100
AcDbLine
10
-361.88224712971271
20
-414.62983205074721
30
-3.1671147512901676e-06
11
-359.34591002136256
21
-414.49346919395259
31
-3.1683337242682796e-06
0
ELLIPSE
5
105
100
AcDbEntity
8
0
100
AcDbEllipse
10
-359.2653807787126
20
-415.9913059997989
30
-3.1683328666209931e-06
11
1.5000000438765122
21
-3.1225022567582238e-17
31
0.0
40
0.99999998320490791
41
0.053711984588000528
42
1.6245083112299681
0
LINE
5
106
100
AcDbEntity
8
0
100
AcDbLine
10
-357.76754394758882
20
-415.91077675579004
30
-3.1684619825056437e-06
11
-356.94936682977925
21
-431.12879889200264
31
-3.1784883988694723e-06
0
ELLIPSE
5
107
100
AcDbEntity
8
0
100
AcDbEllipse
10
-358.44720366090314
20
-431.20932813601166
30
-3.1784875723084305e-06
11
1.5000000438765122
21
-3.1225022567582238e-17
31
0.0
40
0.99999998320490791
41
-1.5170843423598221
42
0.053711984588107997
0
LINE
5
108
100
AcDbEntity
8
0
100
AcDbLine
10
-380.46009234268763
20
-445.52199036315176
30
-3.1862628041556817e-06
11
-377.06177425624344
21
-445.39937087821471
31
-3.186595517457036e-06
0
ELLIPSE
5
109
100
AcDbEntity
8
0
100
AcDbEllipse
10
-377.00768584922884
20
-446.89839539439447
30
-3.186594642046181e-06
11
1.5000000438765122
21
-3.1225022567582238e-17
31
0.0
40
0.99999998320490791
41
-1.5347295693532179
42
1.6068630842366032
0
LINE
5
110
100
AcDbEntity
8
0
100
AcDbLine
10
-376.95359744221429
20
-448.39741991057423
30
-3.1875916869927856e-06
11
-380.35191552865854
21
-448.52003939551111
31
-3.1862628271928095e-06
0
ELLIPSE
5
111
100
AcDbEntity
8
0
100
AcDbEllipse
10
-380.4060039356732
20
-447.02101487933135
30
-3.1862619997991004e-06
11
1.5000000438765122
21
-3.1225022567582238e-17
31
0.0
40
0.99999998320490791
41
1.6068630842365486
42
4.748455737826399
0
LINE
5
112
100
AcDbEntity
8
0
100
AcDbLine
10
-356.79541406889689
20
-443.00766504536864
30
-3.1854856030744116e-06
11
-361.78820365226335
21
-443.27609586583071
31
-3.1850552875689608e-06
0
ELLIPSE
5
113
100
AcDbEntity
8
0
100
AcDbEllipse
10
-361.86873289491331
20
-441.77825905998424
30
-3.1850543713574098e-06
11
1.5000000438765835
21
-1.0408340855861239e-17
31
0.0
40
0.99999998320490768
41
1.624508311229965
42
4.7661009648197554
0
LINE
5
114
100
AcDbEntity
8
0
100
AcDbLine
10
-361.94926213756332
20
-440.28042225413787
30
-3.1840548922468237e-06
11
-356.95647255419681
21
-440.01199143367603
31
-3.1854856155644207e-06
0
ELLIPSE
5
115
100
AcDbEntity
8
0
100
AcDbEllipse
10
-356.87594331154691
20
-441.50982823952239
30
-3.1854847579171341e-06
11
1.5000000438765122
21
-3.1225022567582238e-17
31
0.0
40
0.99999998320490791
41
-1.5170843423597968
42
1.6245083112298482
0
LINE
5
116
100
AcDbEntity
8
0
100
AcDbLine
10
-365.68788202519613
20
-384.74975830517076
30
-3.14678041540839e-06
11
-365.34797927475472
21
-391.07191944581024
31
-3.1509990058853354e-06
0
ELLIPSE
5
117
100
AcDbEntity
8
0
100
AcDbEllipse
10
-366.8458161058785
20
-391.15244868981915
30
-3.1509981796018494e-06
11
1.5000000438765835
21
-1.0408340855861239e-17
31
0.0
40
0.99999998320490768
41
2.9363830961714141
42
6.3368972917676469
0
LINE
5
118
100
AcDbEntity
8
0
100
AcDbLine
10
-368.31434360434878
20
-390.84679019862313
30
-3.1506174624773564e-06
11
-368.68746243432099
21
-383.90681291209597
31
-3.1467387587302831e-06
0
ELLIPSE
5
119
100
AcDbEntity
8
0
100
AcDbEllipse
10
-367.21893493585071
20
-384.21247140329166
30
-3.1463672606202309e-06
11
1.5000000438765122
21
-3.1225022567582238e-17
31
0.0
40
0.99999998320490791
41
2.6718024194890262
42
2.9363830961716539
0
LINE
5
120
100
AcDbEntity
8
0
100
AcDbLine
10
-368.55642987686576
20
-383.53342251264422
30
-3.1457557805869563e-06
11
-366.40350386205796
21
-381.12145149237477
31
-3.1451947143934511e-06
0
LINE
5
121
100
AcDbEntity
8
0
100
AcDbLine
10
-366.40350386205796
20
-381.12145149237477
30
-3.1451947143934511e-06
11
-366.52837639986376
21
-378.79883331696016
31
-3.1437795930400192e-06
0
ELLIPSE
5
122
100
AcDbEntity
8
0
100
AcDbEllipse
10
-365.05984890139348
20
-379.10449180815579
30
-3.1432550440246843e-06
11
1.5000000438765122
21
-3.1225022567582238e-17
31
0.0
40
0.99999998320490791
41
1.8834306628552366
42
2.9363830961717037
0
LINE
5
123
100
AcDbEntity
8
0
100
AcDbLine
10
-365.52119842506585
20
-377.67720183130251
30
-3.1422558224858399e-06
11
-364.7541915913539
21
-377.63596408642314
31
-3.1430398350629218e-06
0
ELLIPSE
5
124
100
AcDbEntity
8
0
100
AcDbEllipse
10
-365.05984890139348
20
-379.10449180815579
30
-3.1432550440246843e-06
11
1.5000000438765122
21
-3.1225022567582238e-17
31
0.0
40
0.99999998320490791
41
0.053712794054275204
42
1.3655875788429692
0
LINE
5
125
100
AcDbEntity
8
0
100
AcDbLine
10
-363.56201213545592
20
-379.02396135169852
30
-3.1433841590766676e-06
11
-363.42564921638075
21
-381.56029960397404
31
-3.1449483212098173e-06
0
ELLIPSE
5
126
100
AcDbEntity
8
0
100
AcDbEllipse
10
-364.92348604842516
20
-381.6408288308578
30
-3.1449474949263312e-06
11
1.5000000438765122
21
-3.1225022567582238e-17
31
0.0
40
0.99999998320490791
41
-0.72871177543640631
42
0.053711973154821679
0
LINE
5
127
100
AcDbEntity
8
0
100
AcDbLine
10
-363.8044367248948
20
-382.63969253823581
30
-3.1457436980297793e-06
11
-365.68788202519613
21
-384.74975830517076
31
-3.14678041540839e-06
0
LINE
5
128
100
AcDbEntity
8
0
100
AcDbLine
10
-361.39075565466783
20
-380.40939123668227
30
-3.1435652983469176e-06
11
-361.48500029280945
21
-378.91229183232298
31
-3.143693121376856e-06
0
ELLIPSE
5
129
100
AcDbEntity
8
0
100
AcDbEllipse
10
-359.98716352687188
20
-378.83176137586582
30
-3.1436923150773843e-06
11
1.5000000438765122
21
-3.1225022567582238e-17
31
0.0
40
0.99999998320490791
41
1.8834306628552637
42
3.1953054476440119
0
LINE
5
130
100
AcDbEntity
8
0
100
AcDbLine
10
-360.44851305054431
20
-377.40447139901255
30
-3.14269309353854e-06
11
-359.68150621683236
21
-377.3632336541333
31
-3.1427871691191989e-06
0
ELLIPSE
5
131
100
AcDbEntity
8
0
100
AcDbEllipse
10
-359.98716352687188
20
-378.83176137586582
30
-3.1436923150773843e-06
11
1.5000000438765122
21
-3.1225022567582238e-17
31
0.0
40
0.99999998320490791
41
0.32183237300171608
42
1.365587578842991
0
LINE
5
132
100
AcDbEntity
8
0
100
AcDbLine
10
-358.56417735212113
20
-378.35730329260241
30
-3.1435520364553327e-06
11
-357.81381860607729
21
-390.26890203617251
31
-3.1513987366893481e-06
0
ELLIPSE
5
133
100
AcDbEntity
8
0
100
AcDbEllipse
10
-359.23680478082821
20
-390.74336011943529
30
-3.1516540888176792e-06
11
1.5000000438765122
21
-3.1225022567582238e-17
31
0.0
40
0.99999998320490791
41
3.2045034845850902
42
6.6050176801809162
0
LINE
5
134
100
AcDbEntity
8
0
100
AcDbLine
10
-360.73383747415045
20
-390.83766413272798
30
-3.1515341722410106e-06
11
-361.39075565466783
21
-380.40939123668227
31
-3.1435652983469176e-06
0
ELLIPSE
5
135
100
AcDbEntity
8
0
100
AcDbEllipse
10
-366.00723890532578
20
-404.14216203137005
30
-3.1596830421531941e-06
11
1.5000000438765122
21
-3.1225022567582238e-17
31
0.0
40
0.99999998320490791
41
-1.5170843423598281
42
1.6245083112298544
0
LINE
5
136
100
AcDbEntity
8
0
100
AcDbLine
10
-365.92670966267582
20
-405.63999883721635
30
-3.1606825209862244e-06
11
-368.42310445435908
21
-405.77421424744728
31
-3.1594686938918315e-06
0
ELLIPSE
5
137
100
AcDbEntity
8
0
100
AcDbEllipse
10
-368.50363369700904
20
-404.27637744160097
30
-3.159467848734554e-06
11
1.5000000438765122
21
-3.1225022567582238e-17
31
0.0
40
0.99999998320490791
41
1.6245083112299081
42
4.7661009648197012
0
LINE
5
138
100
AcDbEntity
8
0
100
AcDbLine
10
-368.58416293965888
20
-402.77854063575461
30
-3.1584683699015237e-06
11
-366.08776814797568
21
-402.64432522552374
31
-3.158683563042608e-06
0
LINE
5
139
100
AcDbEntity
8
0
100
AcDbLine
10
-380.86918090159236
20
-437.91297929504537
30
-3.1811855225050145e-06
11
-377.47086281514811
21
-437.7903598101085
31
-3.1815181644745394e-06
0
ELLIPSE
5
140
100
AcDbEntity
8
0
100
AcDbEllipse
10
-377.41677440813362
20
-439.28938432628843
30
-3.1815172890636845e-06
11
1.5000000438765122
21
-3.1225022567582238e-17
31
0.0
40
0.99999998320490791
41
-1.5347295693531875
42
1.6068630842364855
0
LINE
5
141
100
AcDbEntity
8
0
100
AcDbLine
10
-377.36268600111907
20
-440.78840884246807
30
-3.1825143342878448e-06
11
-380.76100408756332
21
-440.91102832740484
31
-3.1811854742103129e-06
0
ELLIPSE
5
142
100
AcDbEntity
8
0
100
AcDbEllipse
10
-380.81509249457781
20
-439.41200381122513
30
-3.1811846470941596e-06
11
1.5000000438765122
21
-3.1225022567582238e-17
31
0.0
40
0.99999998320490791
41
1.6068630842365468
42
4.7484557378263421
0
LINE
5
143
100
AcDbEntity
8
0
100
AcDbLine
10
-371.12001804429053
20
-440.77347598516235
30
-3.1842647657542855e-06
11
-368.62362325260733
21
-440.63926057493131
31
-3.1844798878410963e-06
0
ELLIPSE
5
144
100
AcDbEntity
8
0
100
AcDbEllipse
10
-368.54309400995749
20
-442.13709738077785
30
-3.1844790304713655e-06
11
1.5000000438765122
21
-3.1225022567582238e-17
31
0.0
40
0.99999998320490791
41
-1.5170843423598535
42
1.6245083112298735
0
LINE
5
145
100
AcDbEntity
8
0
100
AcDbLine
10
-368.46256476730753
20
-443.63493418662415
30
-3.1854785093043958e-06
11
-370.95895955899067
21
-443.76914959685507
31
-3.1842646822100029e-06
0
ELLIPSE
5
146
100
AcDbEntity
8
0
100
AcDbEllipse
10
-371.03948880164069
20
-442.27131279100865
30
-3.1842638370527254e-06
11
1.5000000438765122
21
-3.1225022567582238e-17
31
0.0
40
0.99999998320490791
41
1.6245083112298797
42
4.7661009648197554
0
LINE
5
147
100
AcDbEntity
8
0
100
AcDbLine
10
-366.30852565098701
20
-398.53825517365055
30
-3.1549450246748378e-06
11
-368.80492044267032
21
-398.67247058388148
31
-3.1547298312561978e-06
0
ELLIPSE
5
148
100
AcDbEntity
8
0
100
AcDbEllipse
10
-368.88544968532017
20
-397.17463377803512
30
-3.1547289860989203e-06
11
1.5000000438765122
21
-3.1225022567582238e-17
31
0.0
40
0.99999998320490791
41
1.6245083112299081
42
4.7661009648196728
0
LINE
5
149
100
AcDbEntity
8
0
100
AcDbLine
10
-368.96597892797001
20
-395.67679697218875
30
-3.1537295069883342e-06
11
-366.46958413628681
21
-395.54258156195777
31
-3.1549450368872911e-06
0
ELLIPSE
5
150
100
AcDbEntity
8
0
100
AcDbEllipse
10
-366.38905489363697
20
-397.04041836780414
30
-3.1549441792400046e-06
11
1.5000000438765122
21
-3.1225022567582238e-17
31
0.0
40
0.99999998320490791
41
-1.5170843423598597
42
1.6245083112298797
0
LWPOLYLINE
5
151
100
AcDbEntity
8
0
100
AcDbPolyline
90
8
70
1
43
0.0
10
-361.60298126515471
20
-477.54456752242788
10
-344.91934411363275
20
-452.88973101138299
10
-350.10658584518433
20
-361.13869495854425
10
-381.44752981341378
20
-362.97632006699877
10
-396.01755477586914
20
-379.63214905050756
10
-395.83755340261393
20
-392.44256005671957
10
-392.68484182997094
20
-460.54511746912272
10
-379.56024746540521
20
-478.51001653650837
0
CIRCLE
5
152
100
AcDbEntity
8
0
100
AcDbCircle
10
-352.31730845404354
20
-452.7613141204323
30
-4.1539378943070145e-06
40
0.45000000000000007
210
-2.291609384891901e-12
220
2.1231304526157267e-09
230
1
0
CIRCLE
5
153
100
AcDbEntity
8
0
100
AcDbCircle
10
-354.85364548797725
20
-452.89767697552833
30
-4.1540029616457292e-06
40
0.45000000000000007
210
-2.291609384891901e-12
220
2.1231304526157267e-09
230
1
0
CIRCLE
5
154
100
AcDbEntity
8
0
100
AcDbCircle
10
-351.27022355881263
20
-432.84137252311382
30
-4.098613270073404e-06
40
0.45000000000000007
210
-2.291609384891901e-12
220
2.1231304526157267e-09
230
1
0
CIRCLE
5
155
100
AcDbEntity
8
0
100
AcDbCircle
10
-353.80656059274634
20
-432.9777353782099
30
-4.0986783374121187e-06
40
0.45000000000000007
210
-2.291609384891901e-12
220
2.1231304526157267e-09
230
1
0
CIRCLE
5
156
100
AcDbEntity
8
0
100
AcDbCircle
10
-367.26722807366974
20
-434.53763656039553
30
-4.101351545172755e-06
40
0.45000000000000007
210
-2.291609384891901e-12
220
2.1231304526157267e-09
230
1
0
CIRCLE
5
157
100
AcDbEntity
8
0
100
AcDbCircle
10
-369.38754501191977
20
-462.15629860874617
30
-4.1779752891042114e-06
40
6.3499999999999996
210
-2.291609384891901e-12
220
2.1231304526157267e-09
230
1
0
CIRCLE
5
158
100
AcDbEntity
8
0
100
AcDbCircle
10
-378.67628003271585
20
-469.60071112558217
30
-4.197547587792246e-06
40
0.45000000000000007
210
-2.291609384891901e-12
220
2.1231304526157267e-09
230
1
0
CIRCLE
5
159
100
AcDbEntity
8
0
100
AcDbCircle
10
-381.2126170666495
20
-469.7370739806783
30
-4.1976126554085165e-06
40
0.45000000000000007
210
-2.291609384891901e-12
220
2.1231304526157267e-09
230
1
0
CIRCLE
5
160
100
AcDbEntity
8
0
100
AcDbCircle
10
-379.07752922996764
20
-462.64972926648295
30
-4.1781472129876163e-06
40
1.786
210
-2.291609384891901e-12
220
2.1231304526157267e-09
230
1
0
CIRCLE
5
161
100
AcDbEntity
8
0
100
AcDbCircle
10
-386.10700371752489
20
-456.09616351402258
30
-4.1590311796280631e-06
40
2.15265
210
-2.291609384891901e-12
220
2.1231304526157267e-09
230
1
0
CIRCLE
5
162
100
AcDbEntity
8
0
100
AcDbCircle
10
-369.80356510760345
20
-434.67399941549166
30
-4.1014166127890255e-06
40
0.45000000000000007
210
-2.291609384891901e-12
220
2.1231304526157267e-09
230
1
0
CIRCLE
5
163
100
AcDbEntity
8
0
100
AcDbCircle
10
-384.56724347244972
20
-435.46774934171054
30
-4.1017953614736708e-06
40
0.45000000000000007
210
-2.291609384891901e-12
220
2.1231304526157267e-09
230
1
0
CIRCLE
5
164
100
AcDbEntity
8
0
100
AcDbCircle
10
-387.10358050638348
20
-435.60411219680668
30
-4.1018604290899413e-06
40
0.45000000000000007
210
-2.291609384891901e-12
220
2.1231304526157267e-09
230
1
0
CIRCLE
5
165
100
AcDbEntity
8
0
100
AcDbCircle
10
-356.1115803075586
20
-402.66646951662142
30
-4.0140099241606788e-06
40
0.45000000000000007
210
-2.291609384891901e-12
220
2.1231304526157267e-09
230
1
0
CIRCLE
5
166
100
AcDbEntity
8
0
100
AcDbCircle
10
-358.64791734149236
20
-402.80283237171744
30
-4.0140749917769493e-06
40
0.45000000000000007
210
-2.291609384891901e-12
220
2.1231304526157267e-09
230
1
0
CIRCLE
5
167
100
AcDbEntity
8
0
100
AcDbCircle
10
-369.28335400951323
20
-413.61570196501452
30
-4.0428576153180922e-06
40
0.45000000000000007
210
-2.291609384891901e-12
220
2.1231304526157267e-09
230
1
0
CIRCLE
5
168
100
AcDbEntity
8
0
100
AcDbCircle
10
-352.05023815565033
20
-385.55004712556723
30
-3.9668637452827999e-06
40
0.45000000000000007
210
-2.291609384891901e-12
220
2.1231304526157267e-09
230
1
0
CIRCLE
5
169
100
AcDbEntity
8
0
100
AcDbCircle
10
-354.58657518958404
20
-385.68640998066337
30
-3.9669288126215138e-06
40
0.45000000000000007
210
-2.291609384891901e-12
220
2.1231304526157267e-09
230
1
0
CIRCLE
5
170
100
AcDbEntity
8
0
100
AcDbCircle
10
-371.57714468392237
20
-387.90176331442694
30
-3.9709889450374988e-06
40
0.45000000000000007
210
-2.291609384891901e-12
220
2.1231304526157267e-09
230
1
0
CIRCLE
5
171
100
AcDbEntity
8
0
100
AcDbCircle
10
-367.76630828184
20
-371.42341081064899
30
-3.9255880012453094e-06
40
2.15265
210
-2.291609384891901e-12
220
2.1231304526157267e-09
230
1
0
CIRCLE
5
172
100
AcDbEntity
8
0
100
AcDbCircle
10
-371.81969104344694
20
-413.75206482011066
30
-4.0429226826568069e-06
40
0.45000000000000007
210
-2.291609384891901e-12
220
2.1231304526157267e-09
230
1
0
CIRCLE
5
173
100
AcDbEntity
8
0
100
AcDbCircle
10
-383.57835603244087
20
-404.03432792825902
30
-4.0144115160384001e-06
40
6.3499999999999996
210
-2.291609384891901e-12
220
2.1231304526157267e-09
230
1
0
CIRCLE
5
174
100
AcDbEntity
8
0
100
AcDbCircle
10
-374.11348171785608
20
-388.03812616952308
30
-3.9710540123762135e-06
40
0.45000000000000007
210
-2.291609384891901e-12
220
2.1231304526157267e-09
230
1
0
CIRCLE
5
175
100
AcDbEntity
8
0
100
AcDbCircle
10
-383.91349591253311
20
-394.70126057893867
30
-3.9883879290086401e-06
40
1.786
210
-2.291609384891901e-12
220
2.1231304526157267e-09
230
1
0
CIRCLE
5
176
100
AcDbEntity
8
0
100
AcDbCircle
10
-389.12518920658079
20
-387.94391124496264
30
-3.9689300248193662e-06
40
0.45000000000000007
210
-2.291609384891901e-12
220
2.1231304526157267e-09
230
1
0
CIRCLE
5
177
100
AcDbEntity
8
0
100
AcDbCircle
10
-391.66152624051449
20
-388.08027410005877
30
-3.9689950924356367e-06
40
0.45000000000000007
210
-2.291609384891901e-12
220
2.1231304526157267e-09
230
1
0
ENDSEC
0
SECTION
2
OBJECTS
0
DICTIONARY
5
C
100
AcDbDictionary
3
ACAD_GROUP
350
D
3
ACAD_MLINESTYLE
350
17
0
DICTIONARY
5
D
100
AcDbDictionary
0
DICTIONARY
5
1A
330
C
100
AcDbDictionary
0
DICTIONARY
5
17
100
AcDbDictionary
0
ENDSEC
0
EOF
