0
SECTION
2
HEADER
9
$INSUNITS
70
4
9
$ACADVER
1
AC1014
9
$HANDSEED
5
FFFF
0
ENDSEC
0
SECTION
2
TABLES
0
TABLE
2
VPORT
5
8
100
AcDbSymbolTable
0
ENDTAB
0
TABLE
2
LTYPE
5
5
100
AcDbSymbolTable
0
LTYPE
5
14
100
AcDbSymbolTableRecord
100
AcDbLinetypeTableRecord
2
BYBLOCK
70
0
0
LTYPE
5
15
100
AcDbSymbolTableRecord
100
AcDbLinetypeTableRecord
2
BYLAYER
70
0
0
ENDTAB
0
TABLE
2
LAYER
5
2
100
AcDbSymbolTable
70
2
0
LAYER
5
50
100
AcDbSymbolTableRecord
100
AcDbLayerTableRecord
2
0
70
0
6
CONTINUOUS
0
ENDTAB
0
TABLE
2
STYLE
5
3
100
AcDbSymbolTable
70
1
0
STYLE
5
11
100
AcDbSymbolTableRecord
100
AcDbTextStyleTableRecord
2
STANDARD
70
0
0
ENDTAB
0
TABLE
2
VIEW
5
6
100
AcDbSymbolTable
70
0
0
ENDTAB
0
TABLE
2
UCS
5
7
100
AcDbSymbolTable
70
0
0
ENDTAB
0
TABLE
2
APPID
5
9
100
AcDbSymbolTable
70
2
0
APPID
5
12
100
AcDbSymbolTableRecord
100
AcDbRegAppTableRecord
2
ACAD
70
0
0
ENDTAB
0
TABLE
2
DIMSTYLE
5
A
100
AcDbSymbolTable
70
1
0
ENDTAB
0
TABLE
2
BLOCK_RECORD
5
1
100
AcDbSymbolTable
70
1
0
BLOCK_RECORD
5
1F
100
AcDbSymbolTableRecord
100
AcDbBlockTableRecord
2
*MODEL_SPACE
0
BLOCK_RECORD
5
1B
100
AcDbSymbolTableRecord
100
AcDbBlockTableRecord
2
*PAPER_SPACE
0
ENDTAB
0
ENDSEC
0
SECTION
2
BLOCKS
0
BLOCK
5
20
100
AcDbEntity
100
AcDbBlockBegin
2
*MODEL_SPACE
0
ENDBLK
5
21
100
AcDbEntity
100
AcDbBlockEnd
0
BLOCK
5
1C
100
AcDbEntity
100
AcDbBlockBegin
2
*PAPER_SPACE
0
ENDBLK
5
1D
100
AcDbEntity
100
AcDbBlockEnd
0
ENDSEC
0
SECTION
2
ENTITIES
0
LWPOLYLINE
5
100
100
AcDbEntity
8
0
100
AcDbPolyline
90
7
70
1
43
0.0
10
-369.72144183345762
20
-336.0635746509339
10
-423.56944077710347
20
-336.05290857799963
10
-429.15840602415801
20
-463.05180402156009
10
-403.71909699939982
20
-463.05684297436778
42
-0.41421356237309503
10
-398.9575404365421
20
-467.82028622465486
10
-398.95785488444693
20
-469.40778619351227
10
-369.74785545746931
20
-469.4135720349625
0
ELLIPSE
5
101
100
AcDbEntity
8
0
100
AcDbEllipse
10
-386.75368260387438
20
-393.77330972562851
30
4.2632564145606011e-13
11
-1.4981020135506615
21
-0.075500970813853888
31
0.0
40
0.99999778164626707
41
4.655884151573555
42
6.2266804818170458
0
LINE
5
102
100
AcDbEntity
8
0
100
AcDbLine
10
-386.74445794996331
20
-392.27333806103894
30
4.2632564145606011e-13
11
-384.20450025656379
21
-392.28895786623048
31
4.2632564145606011e-13
0
ELLIPSE
5
103
100
AcDbEntity
8
0
100
AcDbEllipse
10
-384.2137249080024
20
-393.78892953070215
30
4.2632564145606011e-13
11
-1.4981020135497334
21
-0.075500970830849445
31
0.0
40
0.99999778164626729
41
3.0850878298635704
42
4.6558841532100654
0
LINE
5
104
100
AcDbEntity
8
0
100
AcDbLine
10
-382.71374993480839
20
-393.79815382206471
30
4.2632564145606011e-13
11
-382.80747239213918
21
-409.03786612479081
31
4.2632564145606011e-13
0
ELLIPSE
5
105
100
AcDbEntity
8
0
100
AcDbEllipse
10
-384.30744736545125
20
-409.02864183095596
30
4.9737991503207013e-13
11
-1.4981020135497334
21
-0.075500970830849445
31
0.0
40
0.99999778164626729
41
1.5142914979724267
42
3.0850878282159093
0
LINE
5
106
100
AcDbEntity
8
0
100
AcDbLine
10
-384.31667201936227
20
-410.52861349554541
30
4.2632564145606011e-13
11
-386.85662971633167
21
-410.51299369046524
31
4.2632564145606011e-13
0
ELLIPSE
5
107
100
AcDbEntity
8
0
100
AcDbEllipse
10
-386.847405061323
20
-409.01302202588249
30
4.9737991503207013e-13
11
-1.4981020135497334
21
-0.075500970830849445
31
0.0
40
0.99999778164626729
41
6.226680678269398
42
7.7974768044202403
0
LINE
5
108
100
AcDbEntity
8
0
100
AcDbLine
10
-388.34738003631412
20
-409.00379802673848
30
4.9737991503207013e-13
11
-388.25365757705327
21
-393.76408543179451
31
4.2632564145606011e-13
0
ELLIPSE
5
109
100
AcDbEntity
8
0
100
AcDbEllipse
10
-382.71110343917439
20
-356.65276243381328
30
4.2632564145606011e-13
11
-1.4981020135502974
21
-0.075500970819666585
31
0.0
40
0.99999778164626729
41
3.353208217801535
42
4.3969634208945543
0
LINE
5
110
100
AcDbEntity
8
0
100
AcDbLine
10
-381.26227796572141
20
-356.26428547610374
30
3.5527136788005009e-13
11
-381.22588684415359
21
-368.19943943639601
31
4.2632564145606011e-13
0
ELLIPSE
5
111
100
AcDbEntity
8
0
100
AcDbEllipse
10
-382.67471231884235
20
-368.58791639237774
30
3.5527136788005009e-13
11
-1.4981020135502974
21
-0.075500970819666585
31
0.0
40
0.99999778164626729
41
6.2358793298627919
42
9.6363935236551725
0
LINE
5
112
100
AcDbEntity
8
0
100
AcDbLine
10
-384.1747086843688
20
-368.5924903056424
30
4.2632564145606011e-13
11
-384.20656809668901
21
-358.14359547254583
31
4.2632564145606011e-13
0
LINE
5
113
100
AcDbEntity
8
0
100
AcDbLine
10
-384.20656809668901
20
-358.14359547254583
30
4.2632564145606011e-13
11
-384.21107841983508
21
-356.64353935662689
31
4.2632564145606011e-13
0
ELLIPSE
5
114
100
AcDbEntity
8
0
100
AcDbEllipse
10
-382.71110343917439
20
-356.65276243381328
30
4.2632564145606011e-13
11
-1.4981020135502974
21
-0.075500970819666585
31
0.0
40
0.99999778164626729
41
4.9148065036511666
42
6.2266812929269344
0
LINE
5
115
100
AcDbEntity
8
0
100
AcDbLine
10
-383.08623832979293
20
-355.20042835576015
30
4.2632564145606011e-13
11
-382.31813656865813
21
-355.20515127872073
31
4.2632564145606011e-13
0
ELLIPSE
5
116
100
AcDbEntity
8
0
100
AcDbEllipse
10
-388.35515410074402
20
-419.37394634100548
30
4.2632564145606011e-13
11
-1.4981020135506746
21
-0.075500970813599674
31
0.0
40
0.99999778164626707
41
5.6295213654564789
42
6.9385169765207371
0
ELLIPSE
5
117
100
AcDbEntity
8
0
100
AcDbEllipse
10
-388.3551593279679
20
-419.3739466088158
30
0.0024941301762027024
11
-1.4973100038411788
21
0.089739048795072718
31
-0.0031284418226624928
40
0.99999998320490724
41
5.7380630771856822
42
5.7397381754022199
0
ELLIPSE
5
118
100
AcDbEntity
8
0
100
AcDbEllipse
10
-388.35515410074402
20
-419.37394634100548
30
4.2632564145606011e-13
11
-1.4981020135512257
21
-0.075500970802667988
31
0.0
40
0.99999778164626674
41
4.6558841515811888
42
5.6278462672472696
0
LINE
5
119
100
AcDbEntity
8
0
100
AcDbLine
10
-388.34592944683322
20
-417.87397467641586
30
4.2632564145606011e-13
11
-383.34601272514811
21
-417.90472232431631
31
4.9737991503207013e-13
0
ELLIPSE
5
120
100
AcDbEntity
8
0
100
AcDbEllipse
10
-383.35523737658684
20
-419.4046939887877
30
4.9737991503207013e-13
11
-1.4981020135502974
21
-0.075500970819666585
31
0.0
40
0.99999778164626729
41
1.5142914979799469
42
4.6558841532174009
0
LINE
5
121
100
AcDbEntity
8
0
100
AcDbLine
10
-383.36446203049786
20
-420.90466565337721
30
4.9737991503207013e-13
11
-388.36437875465504
21
-420.87391800559516
31
4.2632564145606011e-13
0
ELLIPSE
5
122
100
AcDbEntity
8
0
100
AcDbEllipse
10
-388.35515410074402
20
-419.37394634100548
30
4.2632564145606011e-13
11
-1.4981020135512257
21
-0.075500970802667988
31
0.0
40
0.99999778164626674
41
0.65700740624701104
42
1.5142914979912792
0
ELLIPSE
5
123
100
AcDbEntity
8
0
100
AcDbEllipse
10
-388.3551593279679
20
-419.3739466088158
30
0.0024941301762027024
11
-1.4973100038411788
21
0.089739048795072718
31
-0.0031284418226624928
40
0.99999998320490724
41
0.7655484792869558
42
0.76722421618542314
0
ELLIPSE
5
124
100
AcDbEntity
8
0
100
AcDbEllipse
10
-390.25184452199147
20
-361.59118817881347
30
4.2632564145606011e-13
11
-1.4981020135502974
21
-0.075500970819666585
31
0.0
40
0.99999778164626729
41
5.7031782637673327
42
5.9677589397426329
0
LINE
5
125
100
AcDbEntity
8
0
100
AcDbLine
10
-391.54632181173503
20
-360.83333886147676
30
3.5527136788005009e-13
11
-389.25294838580203
21
-358.5544886070457
31
4.2632564145606011e-13
0
LINE
5
126
100
AcDbEntity
8
0
100
AcDbLine
10
-389.25294838580203
20
-358.5544886070457
30
4.2632564145606011e-13
11
-389.2386441956013
21
-356.22856001659966
31
4.2632564145606011e-13
0
ELLIPSE
5
127
100
AcDbEntity
8
0
100
AcDbEllipse
10
-387.79103025107997
20
-356.62152686638956
30
4.2632564145606011e-13
11
-1.4981020135502974
21
-0.075500970819666585
31
0.0
40
0.99999778164626729
41
4.9148065036510493
42
5.9677589397429722
0
LINE
5
128
100
AcDbEntity
8
0
100
AcDbLine
10
-388.16616514169846
20
-355.16919278833649
30
4.2632564145606011e-13
11
-387.39806338043377
21
-355.17391571081839
31
4.2632564145606011e-13
0
ELLIPSE
5
129
100
AcDbEntity
8
0
100
AcDbEllipse
10
-387.79103025107997
20
-356.62152686638956
30
4.2632564145606011e-13
11
-1.4981020135502974
21
-0.075500970819666585
31
0.0
40
0.99999778164626729
41
3.085088639337255
42
4.3969634208945481
0
LINE
5
130
100
AcDbEntity
8
0
100
AcDbLine
10
-386.29105527041935
20
-356.63074994357578
30
4.2632564145606011e-13
11
-386.30667568744809
21
-359.17070322741637
31
3.5527136788005009e-13
0
ELLIPSE
5
131
100
AcDbEntity
8
0
100
AcDbEllipse
10
-387.80665066065478
20
-359.16147891643175
30
3.5527136788005009e-13
11
-1.4981020135502974
21
-0.075500970819666585
31
0.0
40
0.99999778164626729
41
2.3026640676561381
42
3.085087816789998
0
LINE
5
132
100
AcDbEntity
8
0
100
AcDbLine
10
-386.74936148535073
20
-360.22550152649058
30
3.5527136788005009e-13
11
-388.75567446149432
21
-362.21910918852302
31
4.2632564145606011e-13
0
LINE
5
133
100
AcDbEntity
8
0
100
AcDbLine
10
-388.75567446149432
20
-362.21910918852302
30
4.2632564145606011e-13
11
-388.79461043326364
21
-368.55028126852011
31
4.2632564145606011e-13
0
ELLIPSE
5
134
100
AcDbEntity
8
0
100
AcDbEllipse
10
-390.29458540645777
20
-368.5410569771575
30
4.2632564145606011e-13
11
-1.4981020135512257
21
-0.075500970802667988
31
0.0
40
0.99999778164626674
41
5.9677589412736971
42
9.3682731370619781
0
LINE
5
135
100
AcDbEntity
8
0
100
AcDbLine
10
-391.74219935205497
20
-368.14809012943715
30
4.2632564145606011e-13
11
-391.69945846699136
21
-361.19822132889311
31
4.2632564145606011e-13
0
ELLIPSE
5
136
100
AcDbEntity
8
0
100
AcDbEllipse
10
-407.1260549025003
20
-415.8784481890047
30
4.2632564145606011e-13
11
-1.4981020135503118
21
-0.075500970819371974
31
0.0
40
0.99999778164626762
41
4.6382389245687357
42
7.7798315798114732
0
LINE
5
137
100
AcDbEntity
8
0
100
AcDbLine
10
-407.09036565915517
20
-414.37887278587601
30
4.2632564145606011e-13
11
-403.69079127278127
21
-414.45978005369193
31
4.9737991503207013e-13
0
ELLIPSE
5
138
100
AcDbEntity
8
0
100
AcDbEllipse
10
-403.72648051612651
20
-415.95935545682062
30
4.2632564145606011e-13
11
-1.4981020135503118
21
-0.075500970819371974
31
0.0
40
0.99999778164626762
41
1.4966462709789432
42
4.6382389245686753
0
LINE
5
139
100
AcDbEntity
8
0
100
AcDbLine
10
-403.76216975947153
20
-417.45893085994931
30
4.2632564145606011e-13
11
-407.1617441433666
21
-417.37802359219239
31
4.2632564145606011e-13
0
ELLIPSE
5
140
100
AcDbEntity
8
0
100
AcDbEllipse
10
-397.53900113967597
20
-419.31746906155911
30
4.9737991503207013e-13
11
-1.4981020135503118
21
-0.075500970819371974
31
0.0
40
0.99999778164626762
41
4.6558841515699161
42
7.7974768068075555
0
LINE
5
141
100
AcDbEntity
8
0
100
AcDbLine
10
-397.5297764857649
20
-417.81749739696949
30
5.6843418860808015e-13
11
-395.02981812368631
21
-417.83287122086057
31
4.9737991503207013e-13
0
ELLIPSE
5
142
100
AcDbEntity
8
0
100
AcDbEllipse
10
-395.03904277759744
20
-419.3328428854503
30
4.9737991503207013e-13
11
-1.4981020135503118
21
-0.075500970819371974
31
0.0
40
0.99999778164626762
41
1.5142914979801771
42
4.6558841515698566
0
LINE
5
143
100
AcDbEntity
8
0
100
AcDbLine
10
-395.04826743150841
20
-420.83281455003987
30
4.9737991503207013e-13
11
-397.54822579111533
21
-420.8174407261638
31
4.9737991503207013e-13
0
ELLIPSE
5
144
100
AcDbEntity
8
0
100
AcDbEllipse
10
-407.17291613122461
20
-423.49830433913161
30
4.2632564145606011e-13
11
-1.4981020135488776
21
-0.075500970847826879
31
0.0
40
0.99999778164626729
41
4.6382389245498103
42
7.7798315797923774
0
LINE
5
145
100
AcDbEntity
8
0
100
AcDbLine
10
-407.13722688787959
20
-421.99872893600292
30
3.5527136788005009e-13
11
-403.73765250150569
21
-422.07963620381867
31
4.2632564145606011e-13
0
ELLIPSE
5
146
100
AcDbEntity
8
0
100
AcDbEllipse
10
-403.77334174485054
20
-423.57921160694735
30
4.2632564145606011e-13
11
-1.4981020135488776
21
-0.075500970847826879
31
0.0
40
0.99999778164626729
41
1.4966462709597868
42
4.6382389245499285
0
LINE
5
147
100
AcDbEntity
8
0
100
AcDbLine
10
-403.8090309881959
20
-425.07878701007604
30
4.9737991503207013e-13
11
-407.20860537209114
21
-424.9978797423193
31
4.9737991503207013e-13
0
LINE
5
148
100
AcDbEntity
8
0
100
AcDbLine
10
-392.68162967395892
20
-372.9304609674798
30
4.2632564145606011e-13
11
-391.92598492388697
21
-372.93510790435045
31
-3.1828696478441998e-06
0
LINE
5
149
100
AcDbEntity
8
0
100
AcDbLine
10
-391.92598492388697
20
-372.93510790435045
30
-3.1828696478441998e-06
11
-391.92446576291763
21
-372.93511724701409
31
4.2632564145606011e-13
0
LINE
5
150
100
AcDbEntity
8
0
100
AcDbLine
10
-391.92446576291763
20
-372.93511724701409
30
4.2632564145606011e-13
11
-390.18167131435285
21
-372.94583479148901
31
4.2632564145606011e-13
0
ELLIPSE
5
151
100
AcDbEntity
8
0
100
AcDbEllipse
10
-390.19089596579158
20
-374.44580645596045
30
4.2632564145606011e-13
11
-1.4981020135497334
21
-0.075500970830849445
31
0.0
40
0.99999778164626729
41
1.5142914979724347
42
4.6558841532099473
0
LINE
5
152
100
AcDbEntity
8
0
100
AcDbLine
10
-390.2001206197026
20
-375.94577812055007
30
4.2632564145606011e-13
11
-391.77071214275315
21
-375.9361195605598
31
4.2632564145606011e-13
0
LINE
5
153
100
AcDbEntity
8
0
100
AcDbLine
10
-391.77071214275315
20
-375.9361195605598
30
4.2632564145606011e-13
11
-391.77223226491799
21
-375.93611021198478
31
-3.1848833970116175e-06
0
LINE
5
154
100
AcDbEntity
8
0
100
AcDbLine
10
-391.77223226491799
20
-375.93611021198478
30
-3.1848833970116175e-06
11
-392.70007898178119
21
-375.93040429665905
31
3.5527136788005009e-13
0
ELLIPSE
5
155
100
AcDbEntity
8
0
100
AcDbEllipse
10
-392.69085432787017
20
-374.43043263206926
30
4.2632564145606011e-13
11
-1.4981020135488776
21
-0.075500970847826879
31
0.0
40
0.99999778164626729
41
4.6558841515507803
42
7.7974768051406969
0
LINE
5
156
100
AcDbEntity
8
0
100
AcDbLine
10
-392.7253668207685
20
-380.04232670759814
30
4.2632564145606011e-13
11
-391.56148861583233
21
-380.04948412997749
31
-3.1876437134314983e-06
0
LINE
5
157
100
AcDbEntity
8
0
100
AcDbLine
10
-391.56148861583233
20
-380.04948412997749
30
-3.1876437134314983e-06
11
-391.55996717625266
21
-380.04949348665428
31
4.2632564145606011e-13
0
LINE
5
158
100
AcDbEntity
8
0
100
AcDbLine
10
-391.55996717625266
20
-380.04949348665428
30
4.2632564145606011e-13
11
-390.2254084611622
21
-380.0577005316074
31
4.2632564145606011e-13
0
ELLIPSE
5
159
100
AcDbEntity
8
0
100
AcDbEllipse
10
-390.2346331126007
20
-381.55767219607895
30
4.2632564145606011e-13
11
-1.4981020135497334
21
-0.075500970830849445
31
0.0
40
0.99999778164626729
41
1.5142914996202279
42
4.6558841532100637
0
LINE
5
160
100
AcDbEntity
8
0
100
AcDbLine
10
-390.24385776404017
20
-383.05764386068381
30
4.2632564145606011e-13
11
-391.40621355611927
21
-383.05049580019966
31
4.2632564145606011e-13
0
LINE
5
161
100
AcDbEntity
8
0
100
AcDbLine
10
-391.40621355611927
20
-383.05049580019966
30
4.2632564145606011e-13
11
-391.40773595686335
21
-383.05048643761177
31
-3.1896573915446425e-06
0
LINE
5
162
100
AcDbEntity
8
0
100
AcDbLine
10
-391.40773595686335
20
-383.05048643761177
30
-3.1896573915446425e-06
11
-392.74381612611813
21
-383.0422700366592
31
4.9737991503207013e-13
0
ELLIPSE
5
163
100
AcDbEntity
8
0
100
AcDbEllipse
10
-392.73459147467929
20
-381.54229837218782
30
4.2632564145606011e-13
11
-1.4981020135488776
21
-0.075500970847826879
31
0.0
40
0.99999778164626729
41
4.6558841515510725
42
7.7974768067883495
0
CIRCLE
5
164
100
AcDbEntity
8
0
100
AcDbCircle
10
376.09458507468833
20
-452.90231456722529
30
-4.9008393346976433e-13
40
2.1526499999999889
210
-2.7755312323491158e-17
220
6.9388939039072268e-18
230
-1
0
CIRCLE
5
165
100
AcDbEntity
8
0
100
AcDbCircle
10
420.29058420768058
20
-452.89356033755269
30
-6.2600044589489065e-13
40
2.1526499999999853
210
-3.2092121013433176e-17
220
0
230
-1
0
CIRCLE
5
166
100
AcDbEntity
8
0
100
AcDbCircle
10
417.34738424289674
20
-340.81664112035895
30
-6.5595916950902857e-13
40
2.1526499999999924
210
3.9465222370610104e-17
220
0
230
-1
0
CIRCLE
5
167
100
AcDbEntity
8
0
100
AcDbCircle
10
390.04395701807249
20
-348.75954946861106
30
-4.8897412869688033e-13
40
2.1526499999999889
210
-2.7755312323491158e-17
220
6.9388939039072268e-18
230
-1
0
CIRCLE
5
168
100
AcDbEntity
8
0
100
AcDbCircle
10
412.92050910733445
20
-432.3210197794383
30
-7.2683873547340663e-13
40
2.1526499999999924
210
3.9465222370610104e-17
220
0
230
-1
0
CIRCLE
5
169
100
AcDbEntity
8
0
100
AcDbCircle
10
407.82835893994496
20
-370.98102721608086
30
-3.5138039340172837e-13
40
1.786000999999996
210
-9.5407158257346883e-18
220
0
230
-1
0
CIRCLE
5
170
100
AcDbEntity
8
0
100
AcDbCircle
10
381.41424614558582
20
-380.51125944236338
30
-5.6661475635258541e-13
40
5.9531250000000018
210
-4.7702262667984703e-18
220
0
230
-1
0
CIRCLE
5
171
100
AcDbEntity
8
0
100
AcDbCircle
10
396.72938041785335
20
-439.24572701228715
30
-5.6327267479015251e-13
40
6.3499999999999961
210
-1.3010162777688301e-17
220
0
230
-1
0
CIRCLE
5
172
100
AcDbEntity
8
0
100
AcDbCircle
10
407.83024562737444
20
-380.50602702922583
30
-5.6312825072680342e-13
40
6.3499999999999961
210
-1.3010162777688301e-17
220
0
230
-1
0
ELLIPSE
5
173
100
AcDbEntity
8
0
100
AcDbEllipse
10
-376.62119764968224
20
-363.56467351107284
30
4.2632564145606011e-13
11
-0.01317266399961483
21
-1.999957786742397
31
0.0
40
0.99999941652196234
41
0
42
6.2831853071795862
0
ELLIPSE
5
174
100
AcDbEntity
8
0
100
AcDbEllipse
10
-407.74059033374715
20
-446.05740787211715
30
4.9737991503207013e-13
11
-0.013172663999602431
21
-1.9999577867424012
31
0.0
40
0.99999941652196289
41
0
42
6.2831853071795862
0
ELLIPSE
5
175
100
AcDbEntity
8
0
100
AcDbEllipse
10
-411.78250355173583
20
-411.65643690792774
30
4.2632564145606011e-13
11
-0.013172663999632617
21
-1.9999577867423985
31
0.0
40
0.99999941652196245
41
0
42
6.2831853071795862
0
ELLIPSE
5
176
100
AcDbEntity
8
0
100
AcDbEllipse
10
-380.5119711469481
20
-430.66379943606307
30
4.9737991503207013e-13
11
-0.013172663999607186
21
-1.9999577867423874
31
0.0
40
0.99999941652196289
41
0
42
6.2831853071795862
0
ELLIPSE
5
177
100
AcDbEntity
8
0
100
AcDbEllipse
10
-395.34256754271826
20
-390.66028889482965
30
4.9737991503207013e-13
11
-0.013172663999602431
21
-1.9999577867424012
31
0.0
40
0.99999941652196289
41
0
42
6.2831853071795862
0
ELLIPSE
5
178
100
AcDbEntity
8
0
100
AcDbEllipse
10
-413.77129032594326
20
-363.95594055022917
30
4.2632564145606011e-13
11
-0.013172663999593024
21
-1.9999577867423903
31
0.0
40
0.99999941652196278
41
0
42
6.2831853071795862
0
ELLIPSE
5
179
100
AcDbEntity
8
0
100
AcDbEllipse
10
-394.45750418335035
20
-411.6605096495972
30
4.9737991503207013e-13
11
-0.013172663999607186
21
-1.9999577867423874
31
0.0
40
0.99999941652196289
41
0
42
6.2831853071795862
0
ELLIPSE
5
180
100
AcDbEntity
8
0
100
AcDbEllipse
10
-378.39230748008492
20
-410.82928573347124
30
4.2632564145606011e-13
11
-0.01317266399961483
21
-1.999957786742397
31
0.0
40
0.99999941652196234
41
0
42
6.2831853071795862
0
ELLIPSE
5
181
100
AcDbEntity
8
0
100
AcDbEllipse
10
-396.24650253377155
20
-364.86006080201378
30
4.2632564145606011e-13
11
-0.013172663997424974
21
-1.9999577867423979
31
0.0
40
0.99999941652196245
41
0
42
6.2831853071795862
0
ENDSEC
0
SECTION
2
OBJECTS
0
DICTIONARY
5
C
100
AcDbDictionary
3
ACAD_GROUP
350
D
3
ACAD_MLINESTYLE
350
17
0
DICTIONARY
5
D
100
AcDbDictionary
0
DICTIONARY
5
1A
330
C
100
AcDbDictionary
0
DICTIONARY
5
17
100
AcDbDictionary
0
ENDSEC
0
EOF
