0
SECTION
2
HEADER
9
$INSUNITS
70
4
9
$ACADVER
1
AC1014
9
$HANDSEED
5
FFFF
0
ENDSEC
0
SECTION
2
TABLES
0
TABLE
2
VPORT
5
8
100
AcDbSymbolTable
0
ENDTAB
0
TABLE
2
LTYPE
5
5
100
AcDbSymbolTable
0
LTYPE
5
14
100
AcDbSymbolTableRecord
100
AcDbLinetypeTableRecord
2
BYBLOCK
70
0
0
LTYPE
5
15
100
AcDbSymbolTableRecord
100
AcDbLinetypeTableRecord
2
BYLAYER
70
0
0
ENDTAB
0
TABLE
2
LAYER
5
2
100
AcDbSymbolTable
70
2
0
LAYER
5
50
100
AcDbSymbolTableRecord
100
AcDbLayerTableRecord
2
0
70
0
6
CONTINUOUS
0
ENDTAB
0
TABLE
2
STYLE
5
3
100
AcDbSymbolTable
70
1
0
STYLE
5
11
100
AcDbSymbolTableRecord
100
AcDbTextStyleTableRecord
2
STANDARD
70
0
0
ENDTAB
0
TABLE
2
VIEW
5
6
100
AcDbSymbolTable
70
0
0
ENDTAB
0
TABLE
2
UCS
5
7
100
AcDbSymbolTable
70
0
0
ENDTAB
0
TABLE
2
APPID
5
9
100
AcDbSymbolTable
70
2
0
APPID
5
12
100
AcDbSymbolTableRecord
100
AcDbRegAppTableRecord
2
ACAD
70
0
0
ENDTAB
0
TABLE
2
DIMSTYLE
5
A
100
AcDbSymbolTable
70
1
0
ENDTAB
0
TABLE
2
BLOCK_RECORD
5
1
100
AcDbSymbolTable
70
1
0
BLOCK_RECORD
5
1F
100
AcDbSymbolTableRecord
100
AcDbBlockTableRecord
2
*MODEL_SPACE
0
BLOCK_RECORD
5
1B
100
AcDbSymbolTableRecord
100
AcDbBlockTableRecord
2
*PAPER_SPACE
0
ENDTAB
0
ENDSEC
0
SECTION
2
BLOCKS
0
BLOCK
5
20
100
AcDbEntity
100
AcDbBlockBegin
2
*MODEL_SPACE
0
ENDBLK
5
21
100
AcDbEntity
100
AcDbBlockEnd
0
BLOCK
5
1C
100
AcDbEntity
100
AcDbBlockBegin
2
*PAPER_SPACE
0
ENDBLK
5
1D
100
AcDbEntity
100
AcDbBlockEnd
0
ENDSEC
0
SECTION
2
ENTITIES
0
LWPOLYLINE
5
100
100
AcDbEntity
8
0
100
AcDbPolyline
90
7
70
1
43
0.0
10
-143.31060000000008
20
52.143700000000024
10
-89.462600000000094
20
52.143700000000024
10
-83.898790476190399
20
179.14370000000002
10
-109.33809999999997
20
179.14370000000002
42
-0.41421356237309287
10
-114.10059999999994
20
183.90620000000001
10
-114.10059999999994
20
185.49370000000005
10
-143.31059999999994
20
185.49370000000005
0
LWPOLYLINE
5
101
100
AcDbEntity
8
0
100
AcDbPolyline
90
4
70
1
43
0.0
10
-138.53276649052415
20
64.491666467479817
10
-138.47276649052418
20
67.891666467479837
42
-0.99999999999999989
10
-135.47323350947585
20
67.83873353252018
10
-135.53323350947582
20
64.438733532520175
42
-0.99999999999999989
0
LWPOLYLINE
5
102
100
AcDbEntity
8
0
100
AcDbPolyline
90
4
70
1
43
0.0
10
-130.91276649052418
20
64.491666467479831
10
-130.85276649052417
20
67.891666467479837
42
-0.99999999999999989
10
-127.85323350947586
20
67.838733532520166
10
-127.91323350947586
20
64.43873353252016
42
-0.99999999999999989
0
LWPOLYLINE
5
103
100
AcDbEntity
8
0
100
AcDbPolyline
90
4
70
1
43
0.0
10
-131.80613652315074
20
72.571500488471258
10
-131.91593652315075
20
84.506200488471265
42
-0.99999999999999989
10
-128.91606347684925
20
84.533799511528741
10
-128.80626347684924
20
72.599099511528749
42
-0.99999999999999989
0
LWPOLYLINE
5
104
100
AcDbEntity
8
0
100
AcDbPolyline
90
4
70
1
43
0.0
10
-120.43600000000001
20
88.924000000000007
10
-122.93600000000001
20
88.924000000000007
42
-0.99999999999999989
10
-122.93600000000001
20
91.924000000000007
10
-120.43600000000001
20
91.924000000000007
42
-0.99999999999999989
0
LWPOLYLINE
5
105
100
AcDbEntity
8
0
100
AcDbPolyline
90
4
70
1
43
0.0
10
-122.849
20
132.86600000000001
10
-137.03299999999999
20
132.86600000000001
42
-0.99999999999999989
10
-137.03299999999999
20
135.86600000000001
10
-122.849
20
135.86600000000001
42
-0.99999999999999989
0
LWPOLYLINE
5
106
100
AcDbEntity
8
0
100
AcDbPolyline
90
4
70
1
43
0.0
10
-120.43600000000001
20
96.036000000000001
10
-122.93600000000001
20
96.036000000000001
42
-0.99999999999999989
10
-122.93600000000001
20
99.036000000000001
10
-120.43600000000001
20
99.036000000000001
42
-0.99999999999999989
0
LWPOLYLINE
5
107
100
AcDbEntity
8
0
100
AcDbPolyline
90
4
70
1
43
0.0
10
-126.72620000000002
20
72.585300000000004
10
-126.72620000000002
20
75.125299999999996
42
-0.99999999999999989
10
-123.72620000000001
20
75.125299999999996
10
-123.72620000000001
20
72.585300000000004
42
-0.99999999999999989
0
LWPOLYLINE
5
108
100
AcDbEntity
8
0
100
AcDbPolyline
90
4
70
1
43
0.0
10
-124.29600000000002
20
77.569999999999993
10
-124.29600000000002
20
84.519999999999996
42
-0.99999999999999989
10
-121.29600000000002
20
84.519999999999996
10
-121.29600000000002
20
77.569999999999993
42
-0.99999999999999989
0
LWPOLYLINE
5
109
100
AcDbEntity
8
0
100
AcDbPolyline
90
4
70
1
43
0.0
10
-130.73241633987544
20
108.83140678024616
10
-130.73241633987544
20
125.66519434670477
42
-0.99999999999999989
10
-124.73241633987541
20
125.66519434670477
10
-124.73241633987541
20
108.83140678024616
42
-0.99999999999999989
0
CIRCLE
5
110
100
AcDbEntity
8
0
100
AcDbCircle
10
-134.84100000000001
20
126.98500000000001
30
-4.7683486048555324e-08
40
1.9999999999999929
210
-1.2855355349367166e-18
220
2.0127337036251426e-23
230
1
0
CIRCLE
5
111
100
AcDbEntity
8
0
100
AcDbCircle
10
-101.45100000000001
20
127.81999999999999
30
-4.7683486048555324e-08
40
1.9999999999999929
210
-1.2855355349367166e-18
220
2.0127337036251426e-23
230
1
0
CIRCLE
5
112
100
AcDbEntity
8
0
100
AcDbCircle
10
-117.88600000000001
20
106.82000000000001
30
-4.7683486048555324e-08
40
2.0000000000000107
210
-1.2855355349367166e-18
220
2.0127337036251426e-23
230
1
0
CIRCLE
5
113
100
AcDbEntity
8
0
100
AcDbCircle
10
-116.97600000000001
20
81.02000000000001
30
-4.7683486048555324e-08
40
2.0000000000000107
210
-1.2855355349367166e-18
220
2.0127337036251426e-23
230
1
0
CIRCLE
5
114
100
AcDbEntity
8
0
100
AcDbCircle
10
-105.501
20
162.22000000000003
30
-4.7683486048555324e-08
40
2.0000000000000107
210
-1.2855355349367166e-18
220
2.0127337036251426e-23
230
1
0
CIRCLE
5
115
100
AcDbEntity
8
0
100
AcDbCircle
10
-99.585287831586427
20
80.120000000000005
30
-4.7683486048555324e-08
40
2.0000000000000107
210
-1.2855355349367166e-18
220
2.0127337036251426e-23
230
1
0
CIRCLE
5
116
100
AcDbEntity
8
0
100
AcDbCircle
10
-136.601
20
79.719999999999999
30
-4.7683486048555324e-08
40
2.0000000000000107
210
-1.2855355349367166e-18
220
2.0127337036251426e-23
230
1
0
CIRCLE
5
117
100
AcDbEntity
8
0
100
AcDbCircle
10
-131.6266
20
96.593700000000013
30
-4.7683486048555324e-08
40
5.600000000000005
210
-1.2855355349367166e-18
220
2.0127337036251426e-23
230
1
0
CIRCLE
5
118
100
AcDbEntity
8
0
100
AcDbCircle
10
-118.77600000000001
20
127.81999999999999
30
-4.7683486048555324e-08
40
1.9999999999999929
210
-1.2855355349367166e-18
220
2.0127337036251426e-23
230
1
0
CIRCLE
5
119
100
AcDbEntity
8
0
100
AcDbCircle
10
-132.68884534811195
20
146.78535735072509
30
-4.7683486048555324e-08
40
1.9999999999999929
210
-1.2855355349367166e-18
220
2.0127337036251426e-23
230
1
0
CIRCLE
5
120
100
AcDbEntity
8
0
100
AcDbCircle
10
-116.446001
20
155.28500000000003
30
-4.7683486048555324e-08
40
6.3499999999999996
210
-1.2855355349367166e-18
220
2.0127337036251426e-23
230
1
0
CIRCLE
5
121
100
AcDbEntity
8
0
100
AcDbCircle
10
-106.74350099999999
20
155.25750099999999
30
-4.7683486048555324e-08
40
1.786
210
-1.2855355349367166e-18
220
2.0127337036251426e-23
230
1
0
CIRCLE
5
122
100
AcDbEntity
8
0
100
AcDbCircle
10
-100.07599999999999
20
148.33600100000001
30
-4.7683486048555324e-08
40
2.15265
210
-1.2855355349367166e-18
220
2.0127337036251426e-23
230
1
0
CIRCLE
5
123
100
AcDbEntity
8
0
100
AcDbCircle
10
-122.93600000000001
20
64.770000999999993
30
-4.7683486048555324e-08
40
2.15265
210
-1.2855355349367166e-18
220
2.0127337036251426e-23
230
1
0
CIRCLE
5
124
100
AcDbEntity
8
0
100
AcDbCircle
10
-105.39600100000001
20
96.484999999999999
30
-4.7683486048555324e-08
40
6.3499999999999996
210
-1.2855355349367166e-18
220
2.0127337036251426e-23
230
1
0
CIRCLE
5
125
100
AcDbEntity
8
0
100
AcDbCircle
10
-105.56240099999999
20
87.147400000000005
30
-4.7683486048555324e-08
40
1.786
210
-1.2855355349367166e-18
220
2.0127337036251426e-23
230
1
0
ENDSEC
0
SECTION
2
OBJECTS
0
DICTIONARY
5
C
100
AcDbDictionary
3
ACAD_GROUP
350
D
3
ACAD_MLINESTYLE
350
17
0
DICTIONARY
5
D
100
AcDbDictionary
0
DICTIONARY
5
1A
330
C
100
AcDbDictionary
0
DICTIONARY
5
17
100
AcDbDictionary
0
ENDSEC
0
EOF
