  0
SECTION
  2
HEADER
  9
$ANGBASE
  50
0.0
  9
$ANGDIR
  70
1
  9
$MEASUREMENT
  70
1
  0
ENDSEC
  0
SECTION
  2
TABLES
  0
TABLE
  2
LTYPE
  70
4
  0
LTYPE
  5
40F
  2
CONTINUOUS
  70
0
  3
Solid line
  72
65
  73
0
  40
0.0
  0
LTYPE
  5
410
  2
DASHDOT
 70
0
  3
Dash Dot ____ _ ____ _
 72
65
 73
4
 40
2.0
 49
1.25
 49
-0.25
 49
0.25
 49
-0.25
  0
LTYPE
  5
411
  2
DASHED
 70
0
  3
Dashed __ __ __ __ __
 72
65
 73
2
 40
0.75
 49
0.5
 49
-0.25
  0
LTYPE
  5
43B
  2
DOTTED
 70
0
  3
Dotted .  .  .  .
 72
65
 73
2
 40
0.2
 49
0.0
 49
-0.2
  0
ENDTAB
  0
TABLE
  2
STYLE
  70
4
  0
STYLE
  2
KICAD
  70
0
  40
0
  41
1
  42
1
  50
0
  71
0
  3
isocp.shx
  0
STYLE
  2
KICADB
  70
0
  40
0
  41
1
  42
1
  50
0
  71
0
  3
isocp.shx
  0
STYLE
  2
KICADI
  70
0
  40
0
  41
1
  42
1
  50
15
  71
0
  3
isocp.shx
  0
STYLE
  2
KICADBI
  70
0
  40
0
  41
1
  42
1
  50
15
  71
0
  3
isocp.shx
  0
ENDTAB
  0
TABLE
  2
LAYER
  70
1
  0
LAYER
  2
BLACK
  70
0
  62
7
  6
CONTINUOUS
  0
ENDTAB
  0
ENDSEC
  0
SECTION
  2
ENTITIES
0
LINE
8
BLACK
6
CONTINUOUS
10
106.045
20
-87.757
11
106.045
21
-115.697
0
LINE
8
BLACK
6
CONTINUOUS
10
172.212
20
-115.697
11
106.045
21
-115.697
0
LINE
8
BLACK
6
CONTINUOUS
10
172.212
20
-87.757
11
172.212
21
-115.697
0
LINE
8
BLACK
6
CONTINUOUS
10
106.045
20
-87.757
11
172.212
21
-87.757
0
LINE
8
BLACK
6
CONTINUOUS
10
124.504
20
-102.47
11
125.304
21
-103.27
0
LINE
8
BLACK
6
CONTINUOUS
10
125.304
20
-102.47
11
124.504
21
-103.27
0
LINE
8
BLACK
6
CONTINUOUS
10
132.124
20
-102.47
11
132.924
21
-103.27
0
LINE
8
BLACK
6
CONTINUOUS
10
132.924
20
-102.47
11
132.124
21
-103.27
0
LINE
8
BLACK
6
CONTINUOUS
10
146.73
20
-102.47
11
147.53
21
-103.27
0
LINE
8
BLACK
6
CONTINUOUS
10
147.53
20
-102.47
11
146.73
21
-103.27
0
LINE
8
BLACK
6
CONTINUOUS
10
154.35
20
-102.47
11
155.15
21
-103.27
0
LINE
8
BLACK
6
CONTINUOUS
10
155.15
20
-102.47
11
154.35
21
-103.27
0
LINE
8
BLACK
6
CONTINUOUS
10
113.392
20
-102.47
11
114.192
21
-103.27
0
LINE
8
BLACK
6
CONTINUOUS
10
114.192
20
-102.47
11
113.392
21
-103.27
0
LINE
8
BLACK
6
CONTINUOUS
10
121.012
20
-102.47
11
121.812
21
-103.27
0
LINE
8
BLACK
6
CONTINUOUS
10
121.812
20
-102.47
11
121.012
21
-103.27
0
LINE
8
BLACK
6
CONTINUOUS
10
135.617
20
-102.47
11
136.417
21
-103.27
0
LINE
8
BLACK
6
CONTINUOUS
10
136.417
20
-102.47
11
135.617
21
-103.27
0
LINE
8
BLACK
6
CONTINUOUS
10
143.237
20
-102.47
11
144.037
21
-103.27
0
LINE
8
BLACK
6
CONTINUOUS
10
144.037
20
-102.47
11
143.237
21
-103.27
0
LINE
8
BLACK
6
CONTINUOUS
10
157.842
20
-102.47
11
158.642
21
-103.27
0
LINE
8
BLACK
6
CONTINUOUS
10
158.642
20
-102.47
11
157.842
21
-103.27
0
LINE
8
BLACK
6
CONTINUOUS
10
165.462
20
-102.47
11
166.262
21
-103.27
0
LINE
8
BLACK
6
CONTINUOUS
10
166.262
20
-102.47
11
165.462
21
-103.27
0
CIRCLE
8
BLACK
10
121.539
20
-96.393
40
0.6
0
CIRCLE
8
BLACK
10
124.079
20
-96.393
40
0.6
0
CIRCLE
8
BLACK
10
126.619
20
-96.393
40
0.6
0
CIRCLE
8
BLACK
10
129.159
20
-96.393
40
0.6
0
CIRCLE
8
BLACK
10
131.699
20
-96.393
40
0.6
0
CIRCLE
8
BLACK
10
134.239
20
-96.393
40
0.6
0
CIRCLE
8
BLACK
10
155.194
20
-92.837
40
0.6
0
CIRCLE
8
BLACK
10
157.734
20
-92.837
40
0.6
0
CIRCLE
8
BLACK
10
158.496
20
-109.855
40
0.6
0
CIRCLE
8
BLACK
10
161.036
20
-109.855
40
0.6
0
CIRCLE
8
BLACK
10
117.729
20
-109.855
40
0.6
0
CIRCLE
8
BLACK
10
120.269
20
-109.855
40
0.6
0
CIRCLE
8
BLACK
10
131.318
20
-109.855
40
0.6
0
CIRCLE
8
BLACK
10
133.858
20
-109.855
40
0.6
0
CIRCLE
8
BLACK
10
144.907
20
-109.855
40
0.6
0
CIRCLE
8
BLACK
10
147.447
20
-109.855
40
0.6
0
LINE
8
BLACK
6
CONTINUOUS
10
108.884
20
-120.379
11
108.884
21
-117.379
0
LINE
8
BLACK
6
CONTINUOUS
10
108.884
20
-117.379
11
109.599
21
-117.379
0
LINE
8
BLACK
6
CONTINUOUS
10
109.599
20
-117.379
11
110.027
21
-117.522
0
LINE
8
BLACK
6
CONTINUOUS
10
110.027
20
-117.522
11
110.313
21
-117.808
0
LINE
8
BLACK
6
CONTINUOUS
10
110.313
20
-117.808
11
110.456
21
-118.093
0
LINE
8
BLACK
6
CONTINUOUS
10
110.456
20
-118.093
11
110.599
21
-118.665
0
LINE
8
BLACK
6
CONTINUOUS
10
110.599
20
-118.665
11
110.599
21
-119.093
0
LINE
8
BLACK
6
CONTINUOUS
10
110.599
20
-119.093
11
110.456
21
-119.665
0
LINE
8
BLACK
6
CONTINUOUS
10
110.456
20
-119.665
11
110.313
21
-119.951
0
LINE
8
BLACK
6
CONTINUOUS
10
110.313
20
-119.951
11
110.027
21
-120.236
0
LINE
8
BLACK
6
CONTINUOUS
10
110.027
20
-120.236
11
109.599
21
-120.379
0
LINE
8
BLACK
6
CONTINUOUS
10
109.599
20
-120.379
11
108.884
21
-120.379
0
LINE
8
BLACK
6
CONTINUOUS
10
111.884
20
-120.379
11
111.884
21
-118.379
0
LINE
8
BLACK
6
CONTINUOUS
10
111.884
20
-118.951
11
112.027
21
-118.665
0
LINE
8
BLACK
6
CONTINUOUS
10
112.027
20
-118.665
11
112.17
21
-118.522
0
LINE
8
BLACK
6
CONTINUOUS
10
112.17
20
-118.522
11
112.456
21
-118.379
0
LINE
8
BLACK
6
CONTINUOUS
10
112.456
20
-118.379
11
112.741
21
-118.379
0
LINE
8
BLACK
6
CONTINUOUS
10
113.741
20
-120.379
11
113.741
21
-118.379
0
LINE
8
BLACK
6
CONTINUOUS
10
113.741
20
-117.379
11
113.599
21
-117.522
0
LINE
8
BLACK
6
CONTINUOUS
10
113.599
20
-117.522
11
113.741
21
-117.665
0
LINE
8
BLACK
6
CONTINUOUS
10
113.741
20
-117.665
11
113.884
21
-117.522
0
LINE
8
BLACK
6
CONTINUOUS
10
113.884
20
-117.522
11
113.741
21
-117.379
0
LINE
8
BLACK
6
CONTINUOUS
10
113.741
20
-117.379
11
113.741
21
-117.665
0
LINE
8
BLACK
6
CONTINUOUS
10
115.599
20
-120.379
11
115.313
21
-120.236
0
LINE
8
BLACK
6
CONTINUOUS
10
115.313
20
-120.236
11
115.17
21
-119.951
0
LINE
8
BLACK
6
CONTINUOUS
10
115.17
20
-119.951
11
115.17
21
-117.379
0
LINE
8
BLACK
6
CONTINUOUS
10
117.17
20
-120.379
11
116.884
21
-120.236
0
LINE
8
BLACK
6
CONTINUOUS
10
116.884
20
-120.236
11
116.741
21
-119.951
0
LINE
8
BLACK
6
CONTINUOUS
10
116.741
20
-119.951
11
116.741
21
-117.379
0
LINE
8
BLACK
6
CONTINUOUS
10
120.599
20
-120.379
11
120.599
21
-117.379
0
LINE
8
BLACK
6
CONTINUOUS
10
120.599
20
-117.379
11
121.599
21
-119.522
0
LINE
8
BLACK
6
CONTINUOUS
10
121.599
20
-119.522
11
122.599
21
-117.379
0
LINE
8
BLACK
6
CONTINUOUS
10
122.599
20
-117.379
11
122.599
21
-120.379
0
LINE
8
BLACK
6
CONTINUOUS
10
125.313
20
-120.379
11
125.313
21
-118.808
0
LINE
8
BLACK
6
CONTINUOUS
10
125.313
20
-118.808
11
125.17
21
-118.522
0
LINE
8
BLACK
6
CONTINUOUS
10
125.17
20
-118.522
11
124.884
21
-118.379
0
LINE
8
BLACK
6
CONTINUOUS
10
124.884
20
-118.379
11
124.313
21
-118.379
0
LINE
8
BLACK
6
CONTINUOUS
10
124.313
20
-118.379
11
124.027
21
-118.522
0
LINE
8
BLACK
6
CONTINUOUS
10
125.313
20
-120.236
11
125.027
21
-120.379
0
LINE
8
BLACK
6
CONTINUOUS
10
125.027
20
-120.379
11
124.313
21
-120.379
0
LINE
8
BLACK
6
CONTINUOUS
10
124.313
20
-120.379
11
124.027
21
-120.236
0
LINE
8
BLACK
6
CONTINUOUS
10
124.027
20
-120.236
11
123.884
21
-119.951
0
LINE
8
BLACK
6
CONTINUOUS
10
123.884
20
-119.951
11
123.884
21
-119.665
0
LINE
8
BLACK
6
CONTINUOUS
10
123.884
20
-119.665
11
124.027
21
-119.379
0
LINE
8
BLACK
6
CONTINUOUS
10
124.027
20
-119.379
11
124.313
21
-119.236
0
LINE
8
BLACK
6
CONTINUOUS
10
124.313
20
-119.236
11
125.027
21
-119.236
0
LINE
8
BLACK
6
CONTINUOUS
10
125.027
20
-119.236
11
125.313
21
-119.093
0
LINE
8
BLACK
6
CONTINUOUS
10
126.741
20
-118.379
11
126.741
21
-121.379
0
LINE
8
BLACK
6
CONTINUOUS
10
126.741
20
-118.522
11
127.027
21
-118.379
0
LINE
8
BLACK
6
CONTINUOUS
10
127.027
20
-118.379
11
127.599
21
-118.379
0
LINE
8
BLACK
6
CONTINUOUS
10
127.599
20
-118.379
11
127.884
21
-118.522
0
LINE
8
BLACK
6
CONTINUOUS
10
127.884
20
-118.522
11
128.027
21
-118.665
0
LINE
8
BLACK
6
CONTINUOUS
10
128.027
20
-118.665
11
128.17
21
-118.951
0
LINE
8
BLACK
6
CONTINUOUS
10
128.17
20
-118.951
11
128.17
21
-119.808
0
LINE
8
BLACK
6
CONTINUOUS
10
128.17
20
-119.808
11
128.027
21
-120.093
0
LINE
8
BLACK
6
CONTINUOUS
10
128.027
20
-120.093
11
127.884
21
-120.236
0
LINE
8
BLACK
6
CONTINUOUS
10
127.884
20
-120.236
11
127.599
21
-120.379
0
LINE
8
BLACK
6
CONTINUOUS
10
127.599
20
-120.379
11
127.027
21
-120.379
0
LINE
8
BLACK
6
CONTINUOUS
10
127.027
20
-120.379
11
126.741
21
-120.236
0
LINE
8
BLACK
6
CONTINUOUS
10
129.456
20
-120.093
11
129.599
21
-120.236
0
LINE
8
BLACK
6
CONTINUOUS
10
129.599
20
-120.236
11
129.456
21
-120.379
0
LINE
8
BLACK
6
CONTINUOUS
10
129.456
20
-120.379
11
129.313
21
-120.236
0
LINE
8
BLACK
6
CONTINUOUS
10
129.313
20
-120.236
11
129.456
21
-120.093
0
LINE
8
BLACK
6
CONTINUOUS
10
129.456
20
-120.093
11
129.456
21
-120.379
0
LINE
8
BLACK
6
CONTINUOUS
10
129.456
20
-118.522
11
129.599
21
-118.665
0
LINE
8
BLACK
6
CONTINUOUS
10
129.599
20
-118.665
11
129.456
21
-118.808
0
LINE
8
BLACK
6
CONTINUOUS
10
129.456
20
-118.808
11
129.313
21
-118.665
0
LINE
8
BLACK
6
CONTINUOUS
10
129.313
20
-118.665
11
129.456
21
-118.522
0
LINE
8
BLACK
6
CONTINUOUS
10
129.456
20
-118.522
11
129.456
21
-118.808
0
LINE
8
BLACK
6
CONTINUOUS
10
105.22
20
-124.922
11
106.02
21
-125.722
0
LINE
8
BLACK
6
CONTINUOUS
10
106.02
20
-124.922
11
105.22
21
-125.722
0
LINE
8
BLACK
6
CONTINUOUS
10
109.456
20
-123.679
11
109.741
21
-123.679
0
LINE
8
BLACK
6
CONTINUOUS
10
109.741
20
-123.679
11
110.027
21
-123.822
0
LINE
8
BLACK
6
CONTINUOUS
10
110.027
20
-123.822
11
110.17
21
-123.965
0
LINE
8
BLACK
6
CONTINUOUS
10
110.17
20
-123.965
11
110.313
21
-124.251
0
LINE
8
BLACK
6
CONTINUOUS
10
110.313
20
-124.251
11
110.456
21
-124.822
0
LINE
8
BLACK
6
CONTINUOUS
10
110.456
20
-124.822
11
110.456
21
-125.536
0
LINE
8
BLACK
6
CONTINUOUS
10
110.456
20
-125.536
11
110.313
21
-126.108
0
LINE
8
BLACK
6
CONTINUOUS
10
110.313
20
-126.108
11
110.17
21
-126.393
0
LINE
8
BLACK
6
CONTINUOUS
10
110.17
20
-126.393
11
110.027
21
-126.536
0
LINE
8
BLACK
6
CONTINUOUS
10
110.027
20
-126.536
11
109.741
21
-126.679
0
LINE
8
BLACK
6
CONTINUOUS
10
109.741
20
-126.679
11
109.456
21
-126.679
0
LINE
8
BLACK
6
CONTINUOUS
10
109.456
20
-126.679
11
109.17
21
-126.536
0
LINE
8
BLACK
6
CONTINUOUS
10
109.17
20
-126.536
11
109.027
21
-126.393
0
LINE
8
BLACK
6
CONTINUOUS
10
109.027
20
-126.393
11
108.884
21
-126.108
0
LINE
8
BLACK
6
CONTINUOUS
10
108.884
20
-126.108
11
108.741
21
-125.536
0
LINE
8
BLACK
6
CONTINUOUS
10
108.741
20
-125.536
11
108.741
21
-124.822
0
LINE
8
BLACK
6
CONTINUOUS
10
108.741
20
-124.822
11
108.884
21
-124.251
0
LINE
8
BLACK
6
CONTINUOUS
10
108.884
20
-124.251
11
109.027
21
-123.965
0
LINE
8
BLACK
6
CONTINUOUS
10
109.027
20
-123.965
11
109.17
21
-123.822
0
LINE
8
BLACK
6
CONTINUOUS
10
109.17
20
-123.822
11
109.456
21
-123.679
0
LINE
8
BLACK
6
CONTINUOUS
10
111.741
20
-126.393
11
111.884
21
-126.536
0
LINE
8
BLACK
6
CONTINUOUS
10
111.884
20
-126.536
11
111.741
21
-126.679
0
LINE
8
BLACK
6
CONTINUOUS
10
111.741
20
-126.679
11
111.599
21
-126.536
0
LINE
8
BLACK
6
CONTINUOUS
10
111.599
20
-126.536
11
111.741
21
-126.393
0
LINE
8
BLACK
6
CONTINUOUS
10
111.741
20
-126.393
11
111.741
21
-126.679
0
LINE
8
BLACK
6
CONTINUOUS
10
113.599
20
-124.965
11
113.313
21
-124.822
0
LINE
8
BLACK
6
CONTINUOUS
10
113.313
20
-124.822
11
113.17
21
-124.679
0
LINE
8
BLACK
6
CONTINUOUS
10
113.17
20
-124.679
11
113.027
21
-124.393
0
LINE
8
BLACK
6
CONTINUOUS
10
113.027
20
-124.393
11
113.027
21
-124.251
0
LINE
8
BLACK
6
CONTINUOUS
10
113.027
20
-124.251
11
113.17
21
-123.965
0
LINE
8
BLACK
6
CONTINUOUS
10
113.17
20
-123.965
11
113.313
21
-123.822
0
LINE
8
BLACK
6
CONTINUOUS
10
113.313
20
-123.822
11
113.599
21
-123.679
0
LINE
8
BLACK
6
CONTINUOUS
10
113.599
20
-123.679
11
114.17
21
-123.679
0
LINE
8
BLACK
6
CONTINUOUS
10
114.17
20
-123.679
11
114.456
21
-123.822
0
LINE
8
BLACK
6
CONTINUOUS
10
114.456
20
-123.822
11
114.599
21
-123.965
0
LINE
8
BLACK
6
CONTINUOUS
10
114.599
20
-123.965
11
114.741
21
-124.251
0
LINE
8
BLACK
6
CONTINUOUS
10
114.741
20
-124.251
11
114.741
21
-124.393
0
LINE
8
BLACK
6
CONTINUOUS
10
114.741
20
-124.393
11
114.599
21
-124.679
0
LINE
8
BLACK
6
CONTINUOUS
10
114.599
20
-124.679
11
114.456
21
-124.822
0
LINE
8
BLACK
6
CONTINUOUS
10
114.456
20
-124.822
11
114.17
21
-124.965
0
LINE
8
BLACK
6
CONTINUOUS
10
114.17
20
-124.965
11
113.599
21
-124.965
0
LINE
8
BLACK
6
CONTINUOUS
10
113.599
20
-124.965
11
113.313
21
-125.108
0
LINE
8
BLACK
6
CONTINUOUS
10
113.313
20
-125.108
11
113.17
21
-125.251
0
LINE
8
BLACK
6
CONTINUOUS
10
113.17
20
-125.251
11
113.027
21
-125.536
0
LINE
8
BLACK
6
CONTINUOUS
10
113.027
20
-125.536
11
113.027
21
-126.108
0
LINE
8
BLACK
6
CONTINUOUS
10
113.027
20
-126.108
11
113.17
21
-126.393
0
LINE
8
BLACK
6
CONTINUOUS
10
113.17
20
-126.393
11
113.313
21
-126.536
0
LINE
8
BLACK
6
CONTINUOUS
10
113.313
20
-126.536
11
113.599
21
-126.679
0
LINE
8
BLACK
6
CONTINUOUS
10
113.599
20
-126.679
11
114.17
21
-126.679
0
LINE
8
BLACK
6
CONTINUOUS
10
114.17
20
-126.679
11
114.456
21
-126.536
0
LINE
8
BLACK
6
CONTINUOUS
10
114.456
20
-126.536
11
114.599
21
-126.393
0
LINE
8
BLACK
6
CONTINUOUS
10
114.599
20
-126.393
11
114.741
21
-126.108
0
LINE
8
BLACK
6
CONTINUOUS
10
114.741
20
-126.108
11
114.741
21
-125.536
0
LINE
8
BLACK
6
CONTINUOUS
10
114.741
20
-125.536
11
114.599
21
-125.251
0
LINE
8
BLACK
6
CONTINUOUS
10
114.599
20
-125.251
11
114.456
21
-125.108
0
LINE
8
BLACK
6
CONTINUOUS
10
114.456
20
-125.108
11
114.17
21
-124.965
0
LINE
8
BLACK
6
CONTINUOUS
10
116.599
20
-123.679
11
116.884
21
-123.679
0
LINE
8
BLACK
6
CONTINUOUS
10
116.884
20
-123.679
11
117.17
21
-123.822
0
LINE
8
BLACK
6
CONTINUOUS
10
117.17
20
-123.822
11
117.313
21
-123.965
0
LINE
8
BLACK
6
CONTINUOUS
10
117.313
20
-123.965
11
117.456
21
-124.251
0
LINE
8
BLACK
6
CONTINUOUS
10
117.456
20
-124.251
11
117.599
21
-124.822
0
LINE
8
BLACK
6
CONTINUOUS
10
117.599
20
-124.822
11
117.599
21
-125.536
0
LINE
8
BLACK
6
CONTINUOUS
10
117.599
20
-125.536
11
117.456
21
-126.108
0
LINE
8
BLACK
6
CONTINUOUS
10
117.456
20
-126.108
11
117.313
21
-126.393
0
LINE
8
BLACK
6
CONTINUOUS
10
117.313
20
-126.393
11
117.17
21
-126.536
0
LINE
8
BLACK
6
CONTINUOUS
10
117.17
20
-126.536
11
116.884
21
-126.679
0
LINE
8
BLACK
6
CONTINUOUS
10
116.884
20
-126.679
11
116.599
21
-126.679
0
LINE
8
BLACK
6
CONTINUOUS
10
116.599
20
-126.679
11
116.313
21
-126.536
0
LINE
8
BLACK
6
CONTINUOUS
10
116.313
20
-126.536
11
116.17
21
-126.393
0
LINE
8
BLACK
6
CONTINUOUS
10
116.17
20
-126.393
11
116.027
21
-126.108
0
LINE
8
BLACK
6
CONTINUOUS
10
116.027
20
-126.108
11
115.884
21
-125.536
0
LINE
8
BLACK
6
CONTINUOUS
10
115.884
20
-125.536
11
115.884
21
-124.822
0
LINE
8
BLACK
6
CONTINUOUS
10
115.884
20
-124.822
11
116.027
21
-124.251
0
LINE
8
BLACK
6
CONTINUOUS
10
116.027
20
-124.251
11
116.17
21
-123.965
0
LINE
8
BLACK
6
CONTINUOUS
10
116.17
20
-123.965
11
116.313
21
-123.822
0
LINE
8
BLACK
6
CONTINUOUS
10
116.313
20
-123.822
11
116.599
21
-123.679
0
LINE
8
BLACK
6
CONTINUOUS
10
118.884
20
-126.679
11
118.884
21
-124.679
0
LINE
8
BLACK
6
CONTINUOUS
10
118.884
20
-124.965
11
119.027
21
-124.822
0
LINE
8
BLACK
6
CONTINUOUS
10
119.027
20
-124.822
11
119.313
21
-124.679
0
LINE
8
BLACK
6
CONTINUOUS
10
119.313
20
-124.679
11
119.741
21
-124.679
0
LINE
8
BLACK
6
CONTINUOUS
10
119.741
20
-124.679
11
120.027
21
-124.822
0
LINE
8
BLACK
6
CONTINUOUS
10
120.027
20
-124.822
11
120.17
21
-125.108
0
LINE
8
BLACK
6
CONTINUOUS
10
120.17
20
-125.108
11
120.17
21
-126.679
0
LINE
8
BLACK
6
CONTINUOUS
10
120.17
20
-125.108
11
120.313
21
-124.822
0
LINE
8
BLACK
6
CONTINUOUS
10
120.313
20
-124.822
11
120.599
21
-124.679
0
LINE
8
BLACK
6
CONTINUOUS
10
120.599
20
-124.679
11
121.027
21
-124.679
0
LINE
8
BLACK
6
CONTINUOUS
10
121.027
20
-124.679
11
121.313
21
-124.822
0
LINE
8
BLACK
6
CONTINUOUS
10
121.313
20
-124.822
11
121.456
21
-125.108
0
LINE
8
BLACK
6
CONTINUOUS
10
121.456
20
-125.108
11
121.456
21
-126.679
0
LINE
8
BLACK
6
CONTINUOUS
10
122.884
20
-126.679
11
122.884
21
-124.679
0
LINE
8
BLACK
6
CONTINUOUS
10
122.884
20
-124.965
11
123.027
21
-124.822
0
LINE
8
BLACK
6
CONTINUOUS
10
123.027
20
-124.822
11
123.313
21
-124.679
0
LINE
8
BLACK
6
CONTINUOUS
10
123.313
20
-124.679
11
123.741
21
-124.679
0
LINE
8
BLACK
6
CONTINUOUS
10
123.741
20
-124.679
11
124.027
21
-124.822
0
LINE
8
BLACK
6
CONTINUOUS
10
124.027
20
-124.822
11
124.17
21
-125.108
0
LINE
8
BLACK
6
CONTINUOUS
10
124.17
20
-125.108
11
124.17
21
-126.679
0
LINE
8
BLACK
6
CONTINUOUS
10
124.17
20
-125.108
11
124.313
21
-124.822
0
LINE
8
BLACK
6
CONTINUOUS
10
124.313
20
-124.822
11
124.599
21
-124.679
0
LINE
8
BLACK
6
CONTINUOUS
10
124.599
20
-124.679
11
125.027
21
-124.679
0
LINE
8
BLACK
6
CONTINUOUS
10
125.027
20
-124.679
11
125.313
21
-124.822
0
LINE
8
BLACK
6
CONTINUOUS
10
125.313
20
-124.822
11
125.456
21
-125.108
0
LINE
8
BLACK
6
CONTINUOUS
10
125.456
20
-125.108
11
125.456
21
-126.679
0
LINE
8
BLACK
6
CONTINUOUS
10
131.313
20
-123.536
11
128.741
21
-127.393
0
LINE
8
BLACK
6
CONTINUOUS
10
135.17
20
-123.679
11
135.456
21
-123.679
0
LINE
8
BLACK
6
CONTINUOUS
10
135.456
20
-123.679
11
135.741
21
-123.822
0
LINE
8
BLACK
6
CONTINUOUS
10
135.741
20
-123.822
11
135.884
21
-123.965
0
LINE
8
BLACK
6
CONTINUOUS
10
135.884
20
-123.965
11
136.027
21
-124.251
0
LINE
8
BLACK
6
CONTINUOUS
10
136.027
20
-124.251
11
136.17
21
-124.822
0
LINE
8
BLACK
6
CONTINUOUS
10
136.17
20
-124.822
11
136.17
21
-125.536
0
LINE
8
BLACK
6
CONTINUOUS
10
136.17
20
-125.536
11
136.027
21
-126.108
0
LINE
8
BLACK
6
CONTINUOUS
10
136.027
20
-126.108
11
135.884
21
-126.393
0
LINE
8
BLACK
6
CONTINUOUS
10
135.884
20
-126.393
11
135.741
21
-126.536
0
LINE
8
BLACK
6
CONTINUOUS
10
135.741
20
-126.536
11
135.456
21
-126.679
0
LINE
8
BLACK
6
CONTINUOUS
10
135.456
20
-126.679
11
135.17
21
-126.679
0
LINE
8
BLACK
6
CONTINUOUS
10
135.17
20
-126.679
11
134.884
21
-126.536
0
LINE
8
BLACK
6
CONTINUOUS
10
134.884
20
-126.536
11
134.741
21
-126.393
0
LINE
8
BLACK
6
CONTINUOUS
10
134.741
20
-126.393
11
134.599
21
-126.108
0
LINE
8
BLACK
6
CONTINUOUS
10
134.599
20
-126.108
11
134.456
21
-125.536
0
LINE
8
BLACK
6
CONTINUOUS
10
134.456
20
-125.536
11
134.456
21
-124.822
0
LINE
8
BLACK
6
CONTINUOUS
10
134.456
20
-124.822
11
134.599
21
-124.251
0
LINE
8
BLACK
6
CONTINUOUS
10
134.599
20
-124.251
11
134.741
21
-123.965
0
LINE
8
BLACK
6
CONTINUOUS
10
134.741
20
-123.965
11
134.884
21
-123.822
0
LINE
8
BLACK
6
CONTINUOUS
10
134.884
20
-123.822
11
135.17
21
-123.679
0
LINE
8
BLACK
6
CONTINUOUS
10
137.456
20
-126.393
11
137.599
21
-126.536
0
LINE
8
BLACK
6
CONTINUOUS
10
137.599
20
-126.536
11
137.456
21
-126.679
0
LINE
8
BLACK
6
CONTINUOUS
10
137.456
20
-126.679
11
137.313
21
-126.536
0
LINE
8
BLACK
6
CONTINUOUS
10
137.313
20
-126.536
11
137.456
21
-126.393
0
LINE
8
BLACK
6
CONTINUOUS
10
137.456
20
-126.393
11
137.456
21
-126.679
0
LINE
8
BLACK
6
CONTINUOUS
10
139.456
20
-123.679
11
139.741
21
-123.679
0
LINE
8
BLACK
6
CONTINUOUS
10
139.741
20
-123.679
11
140.027
21
-123.822
0
LINE
8
BLACK
6
CONTINUOUS
10
140.027
20
-123.822
11
140.17
21
-123.965
0
LINE
8
BLACK
6
CONTINUOUS
10
140.17
20
-123.965
11
140.313
21
-124.251
0
LINE
8
BLACK
6
CONTINUOUS
10
140.313
20
-124.251
11
140.456
21
-124.822
0
LINE
8
BLACK
6
CONTINUOUS
10
140.456
20
-124.822
11
140.456
21
-125.536
0
LINE
8
BLACK
6
CONTINUOUS
10
140.456
20
-125.536
11
140.313
21
-126.108
0
LINE
8
BLACK
6
CONTINUOUS
10
140.313
20
-126.108
11
140.17
21
-126.393
0
LINE
8
BLACK
6
CONTINUOUS
10
140.17
20
-126.393
11
140.027
21
-126.536
0
LINE
8
BLACK
6
CONTINUOUS
10
140.027
20
-126.536
11
139.741
21
-126.679
0
LINE
8
BLACK
6
CONTINUOUS
10
139.741
20
-126.679
11
139.456
21
-126.679
0
LINE
8
BLACK
6
CONTINUOUS
10
139.456
20
-126.679
11
139.17
21
-126.536
0
LINE
8
BLACK
6
CONTINUOUS
10
139.17
20
-126.536
11
139.027
21
-126.393
0
LINE
8
BLACK
6
CONTINUOUS
10
139.027
20
-126.393
11
138.884
21
-126.108
0
LINE
8
BLACK
6
CONTINUOUS
10
138.884
20
-126.108
11
138.741
21
-125.536
0
LINE
8
BLACK
6
CONTINUOUS
10
138.741
20
-125.536
11
138.741
21
-124.822
0
LINE
8
BLACK
6
CONTINUOUS
10
138.741
20
-124.822
11
138.884
21
-124.251
0
LINE
8
BLACK
6
CONTINUOUS
10
138.884
20
-124.251
11
139.027
21
-123.965
0
LINE
8
BLACK
6
CONTINUOUS
10
139.027
20
-123.965
11
139.17
21
-123.822
0
LINE
8
BLACK
6
CONTINUOUS
10
139.17
20
-123.822
11
139.456
21
-123.679
0
LINE
8
BLACK
6
CONTINUOUS
10
141.456
20
-123.679
11
143.313
21
-123.679
0
LINE
8
BLACK
6
CONTINUOUS
10
143.313
20
-123.679
11
142.313
21
-124.822
0
LINE
8
BLACK
6
CONTINUOUS
10
142.313
20
-124.822
11
142.741
21
-124.822
0
LINE
8
BLACK
6
CONTINUOUS
10
142.741
20
-124.822
11
143.027
21
-124.965
0
LINE
8
BLACK
6
CONTINUOUS
10
143.027
20
-124.965
11
143.17
21
-125.108
0
LINE
8
BLACK
6
CONTINUOUS
10
143.17
20
-125.108
11
143.313
21
-125.393
0
LINE
8
BLACK
6
CONTINUOUS
10
143.313
20
-125.393
11
143.313
21
-126.108
0
LINE
8
BLACK
6
CONTINUOUS
10
143.313
20
-126.108
11
143.17
21
-126.393
0
LINE
8
BLACK
6
CONTINUOUS
10
143.17
20
-126.393
11
143.027
21
-126.536
0
LINE
8
BLACK
6
CONTINUOUS
10
143.027
20
-126.536
11
142.741
21
-126.679
0
LINE
8
BLACK
6
CONTINUOUS
10
142.741
20
-126.679
11
141.884
21
-126.679
0
LINE
8
BLACK
6
CONTINUOUS
10
141.884
20
-126.679
11
141.599
21
-126.536
0
LINE
8
BLACK
6
CONTINUOUS
10
141.599
20
-126.536
11
141.456
21
-126.393
0
LINE
8
BLACK
6
CONTINUOUS
10
146.17
20
-126.679
11
144.456
21
-126.679
0
LINE
8
BLACK
6
CONTINUOUS
10
145.313
20
-126.679
11
145.313
21
-123.679
0
LINE
8
BLACK
6
CONTINUOUS
10
145.313
20
-123.679
11
145.027
21
-124.108
0
LINE
8
BLACK
6
CONTINUOUS
10
145.027
20
-124.108
11
144.741
21
-124.393
0
LINE
8
BLACK
6
CONTINUOUS
10
144.741
20
-124.393
11
144.456
21
-124.536
0
LINE
8
BLACK
6
CONTINUOUS
10
147.313
20
-123.679
11
147.313
21
-124.251
0
LINE
8
BLACK
6
CONTINUOUS
10
148.456
20
-123.679
11
148.456
21
-124.251
0
LINE
8
BLACK
6
CONTINUOUS
10
152.884
20
-127.822
11
152.741
21
-127.679
0
LINE
8
BLACK
6
CONTINUOUS
10
152.741
20
-127.679
11
152.456
21
-127.251
0
LINE
8
BLACK
6
CONTINUOUS
10
152.456
20
-127.251
11
152.313
21
-126.965
0
LINE
8
BLACK
6
CONTINUOUS
10
152.313
20
-126.965
11
152.17
21
-126.536
0
LINE
8
BLACK
6
CONTINUOUS
10
152.17
20
-126.536
11
152.027
21
-125.822
0
LINE
8
BLACK
6
CONTINUOUS
10
152.027
20
-125.822
11
152.027
21
-125.251
0
LINE
8
BLACK
6
CONTINUOUS
10
152.027
20
-125.251
11
152.17
21
-124.536
0
LINE
8
BLACK
6
CONTINUOUS
10
152.17
20
-124.536
11
152.313
21
-124.108
0
LINE
8
BLACK
6
CONTINUOUS
10
152.313
20
-124.108
11
152.456
21
-123.822
0
LINE
8
BLACK
6
CONTINUOUS
10
152.456
20
-123.822
11
152.741
21
-123.393
0
LINE
8
BLACK
6
CONTINUOUS
10
152.741
20
-123.393
11
152.884
21
-123.251
0
LINE
8
BLACK
6
CONTINUOUS
10
155.599
20
-126.679
11
153.884
21
-126.679
0
LINE
8
BLACK
6
CONTINUOUS
10
154.741
20
-126.679
11
154.741
21
-123.679
0
LINE
8
BLACK
6
CONTINUOUS
10
154.741
20
-123.679
11
154.456
21
-124.108
0
LINE
8
BLACK
6
CONTINUOUS
10
154.456
20
-124.108
11
154.17
21
-124.393
0
LINE
8
BLACK
6
CONTINUOUS
10
154.17
20
-124.393
11
153.884
21
-124.536
0
LINE
8
BLACK
6
CONTINUOUS
10
157.456
20
-123.679
11
157.741
21
-123.679
0
LINE
8
BLACK
6
CONTINUOUS
10
157.741
20
-123.679
11
158.027
21
-123.822
0
LINE
8
BLACK
6
CONTINUOUS
10
158.027
20
-123.822
11
158.17
21
-123.965
0
LINE
8
BLACK
6
CONTINUOUS
10
158.17
20
-123.965
11
158.313
21
-124.251
0
LINE
8
BLACK
6
CONTINUOUS
10
158.313
20
-124.251
11
158.456
21
-124.822
0
LINE
8
BLACK
6
CONTINUOUS
10
158.456
20
-124.822
11
158.456
21
-125.536
0
LINE
8
BLACK
6
CONTINUOUS
10
158.456
20
-125.536
11
158.313
21
-126.108
0
LINE
8
BLACK
6
CONTINUOUS
10
158.313
20
-126.108
11
158.17
21
-126.393
0
LINE
8
BLACK
6
CONTINUOUS
10
158.17
20
-126.393
11
158.027
21
-126.536
0
LINE
8
BLACK
6
CONTINUOUS
10
158.027
20
-126.536
11
157.741
21
-126.679
0
LINE
8
BLACK
6
CONTINUOUS
10
157.741
20
-126.679
11
157.456
21
-126.679
0
LINE
8
BLACK
6
CONTINUOUS
10
157.456
20
-126.679
11
157.17
21
-126.536
0
LINE
8
BLACK
6
CONTINUOUS
10
157.17
20
-126.536
11
157.027
21
-126.393
0
LINE
8
BLACK
6
CONTINUOUS
10
157.027
20
-126.393
11
156.884
21
-126.108
0
LINE
8
BLACK
6
CONTINUOUS
10
156.884
20
-126.108
11
156.741
21
-125.536
0
LINE
8
BLACK
6
CONTINUOUS
10
156.741
20
-125.536
11
156.741
21
-124.822
0
LINE
8
BLACK
6
CONTINUOUS
10
156.741
20
-124.822
11
156.884
21
-124.251
0
LINE
8
BLACK
6
CONTINUOUS
10
156.884
20
-124.251
11
157.027
21
-123.965
0
LINE
8
BLACK
6
CONTINUOUS
10
157.027
20
-123.965
11
157.17
21
-123.822
0
LINE
8
BLACK
6
CONTINUOUS
10
157.17
20
-123.822
11
157.456
21
-123.679
0
LINE
8
BLACK
6
CONTINUOUS
10
162.027
20
-126.679
11
162.027
21
-123.679
0
LINE
8
BLACK
6
CONTINUOUS
10
163.313
20
-126.679
11
163.313
21
-125.108
0
LINE
8
BLACK
6
CONTINUOUS
10
163.313
20
-125.108
11
163.17
21
-124.822
0
LINE
8
BLACK
6
CONTINUOUS
10
163.17
20
-124.822
11
162.884
21
-124.679
0
LINE
8
BLACK
6
CONTINUOUS
10
162.884
20
-124.679
11
162.456
21
-124.679
0
LINE
8
BLACK
6
CONTINUOUS
10
162.456
20
-124.679
11
162.17
21
-124.822
0
LINE
8
BLACK
6
CONTINUOUS
10
162.17
20
-124.822
11
162.027
21
-124.965
0
LINE
8
BLACK
6
CONTINUOUS
10
165.17
20
-126.679
11
164.884
21
-126.536
0
LINE
8
BLACK
6
CONTINUOUS
10
164.884
20
-126.536
11
164.741
21
-126.393
0
LINE
8
BLACK
6
CONTINUOUS
10
164.741
20
-126.393
11
164.599
21
-126.108
0
LINE
8
BLACK
6
CONTINUOUS
10
164.599
20
-126.108
11
164.599
21
-125.251
0
LINE
8
BLACK
6
CONTINUOUS
10
164.599
20
-125.251
11
164.741
21
-124.965
0
LINE
8
BLACK
6
CONTINUOUS
10
164.741
20
-124.965
11
164.884
21
-124.822
0
LINE
8
BLACK
6
CONTINUOUS
10
164.884
20
-124.822
11
165.17
21
-124.679
0
LINE
8
BLACK
6
CONTINUOUS
10
165.17
20
-124.679
11
165.599
21
-124.679
0
LINE
8
BLACK
6
CONTINUOUS
10
165.599
20
-124.679
11
165.884
21
-124.822
0
LINE
8
BLACK
6
CONTINUOUS
10
165.884
20
-124.822
11
166.027
21
-124.965
0
LINE
8
BLACK
6
CONTINUOUS
10
166.027
20
-124.965
11
166.17
21
-125.251
0
LINE
8
BLACK
6
CONTINUOUS
10
166.17
20
-125.251
11
166.17
21
-126.108
0
LINE
8
BLACK
6
CONTINUOUS
10
166.17
20
-126.108
11
166.027
21
-126.393
0
LINE
8
BLACK
6
CONTINUOUS
10
166.027
20
-126.393
11
165.884
21
-126.536
0
LINE
8
BLACK
6
CONTINUOUS
10
165.884
20
-126.536
11
165.599
21
-126.679
0
LINE
8
BLACK
6
CONTINUOUS
10
165.599
20
-126.679
11
165.17
21
-126.679
0
LINE
8
BLACK
6
CONTINUOUS
10
167.884
20
-126.679
11
167.599
21
-126.536
0
LINE
8
BLACK
6
CONTINUOUS
10
167.599
20
-126.536
11
167.456
21
-126.251
0
LINE
8
BLACK
6
CONTINUOUS
10
167.456
20
-126.251
11
167.456
21
-123.679
0
LINE
8
BLACK
6
CONTINUOUS
10
170.17
20
-126.536
11
169.884
21
-126.679
0
LINE
8
BLACK
6
CONTINUOUS
10
169.884
20
-126.679
11
169.313
21
-126.679
0
LINE
8
BLACK
6
CONTINUOUS
10
169.313
20
-126.679
11
169.027
21
-126.536
0
LINE
8
BLACK
6
CONTINUOUS
10
169.027
20
-126.536
11
168.884
21
-126.251
0
LINE
8
BLACK
6
CONTINUOUS
10
168.884
20
-126.251
11
168.884
21
-125.108
0
LINE
8
BLACK
6
CONTINUOUS
10
168.884
20
-125.108
11
169.027
21
-124.822
0
LINE
8
BLACK
6
CONTINUOUS
10
169.027
20
-124.822
11
169.313
21
-124.679
0
LINE
8
BLACK
6
CONTINUOUS
10
169.313
20
-124.679
11
169.884
21
-124.679
0
LINE
8
BLACK
6
CONTINUOUS
10
169.884
20
-124.679
11
170.17
21
-124.822
0
LINE
8
BLACK
6
CONTINUOUS
10
170.17
20
-124.822
11
170.313
21
-125.108
0
LINE
8
BLACK
6
CONTINUOUS
10
170.313
20
-125.108
11
170.313
21
-125.393
0
LINE
8
BLACK
6
CONTINUOUS
10
170.313
20
-125.393
11
168.884
21
-125.679
0
LINE
8
BLACK
6
CONTINUOUS
10
171.456
20
-126.536
11
171.741
21
-126.679
0
LINE
8
BLACK
6
CONTINUOUS
10
171.741
20
-126.679
11
172.313
21
-126.679
0
LINE
8
BLACK
6
CONTINUOUS
10
172.313
20
-126.679
11
172.599
21
-126.536
0
LINE
8
BLACK
6
CONTINUOUS
10
172.599
20
-126.536
11
172.741
21
-126.251
0
LINE
8
BLACK
6
CONTINUOUS
10
172.741
20
-126.251
11
172.741
21
-126.108
0
LINE
8
BLACK
6
CONTINUOUS
10
172.741
20
-126.108
11
172.599
21
-125.822
0
LINE
8
BLACK
6
CONTINUOUS
10
172.599
20
-125.822
11
172.313
21
-125.679
0
LINE
8
BLACK
6
CONTINUOUS
10
172.313
20
-125.679
11
171.884
21
-125.679
0
LINE
8
BLACK
6
CONTINUOUS
10
171.884
20
-125.679
11
171.599
21
-125.536
0
LINE
8
BLACK
6
CONTINUOUS
10
171.599
20
-125.536
11
171.456
21
-125.251
0
LINE
8
BLACK
6
CONTINUOUS
10
171.456
20
-125.251
11
171.456
21
-125.108
0
LINE
8
BLACK
6
CONTINUOUS
10
171.456
20
-125.108
11
171.599
21
-124.822
0
LINE
8
BLACK
6
CONTINUOUS
10
171.599
20
-124.822
11
171.884
21
-124.679
0
LINE
8
BLACK
6
CONTINUOUS
10
171.884
20
-124.679
11
172.313
21
-124.679
0
LINE
8
BLACK
6
CONTINUOUS
10
172.313
20
-124.679
11
172.599
21
-124.822
0
LINE
8
BLACK
6
CONTINUOUS
10
173.741
20
-127.822
11
173.884
21
-127.679
0
LINE
8
BLACK
6
CONTINUOUS
10
173.884
20
-127.679
11
174.17
21
-127.251
0
LINE
8
BLACK
6
CONTINUOUS
10
174.17
20
-127.251
11
174.313
21
-126.965
0
LINE
8
BLACK
6
CONTINUOUS
10
174.313
20
-126.965
11
174.456
21
-126.536
0
LINE
8
BLACK
6
CONTINUOUS
10
174.456
20
-126.536
11
174.599
21
-125.822
0
LINE
8
BLACK
6
CONTINUOUS
10
174.599
20
-125.822
11
174.599
21
-125.251
0
LINE
8
BLACK
6
CONTINUOUS
10
174.599
20
-125.251
11
174.456
21
-124.536
0
LINE
8
BLACK
6
CONTINUOUS
10
174.456
20
-124.536
11
174.313
21
-124.108
0
LINE
8
BLACK
6
CONTINUOUS
10
174.313
20
-124.108
11
174.17
21
-123.822
0
LINE
8
BLACK
6
CONTINUOUS
10
174.17
20
-123.822
11
173.884
21
-123.393
0
LINE
8
BLACK
6
CONTINUOUS
10
173.884
20
-123.393
11
173.741
21
-123.251
0
CIRCLE
8
BLACK
10
105.42
20
-129.282
40
0.6
0
LINE
8
BLACK
6
CONTINUOUS
10
110.456
20
-130.639
11
108.741
21
-130.639
0
LINE
8
BLACK
6
CONTINUOUS
10
109.599
20
-130.639
11
109.599
21
-127.639
0
LINE
8
BLACK
6
CONTINUOUS
10
109.599
20
-127.639
11
109.313
21
-128.068
0
LINE
8
BLACK
6
CONTINUOUS
10
109.313
20
-128.068
11
109.027
21
-128.353
0
LINE
8
BLACK
6
CONTINUOUS
10
109.027
20
-128.353
11
108.741
21
-128.496
0
LINE
8
BLACK
6
CONTINUOUS
10
111.741
20
-130.353
11
111.884
21
-130.496
0
LINE
8
BLACK
6
CONTINUOUS
10
111.884
20
-130.496
11
111.741
21
-130.639
0
LINE
8
BLACK
6
CONTINUOUS
10
111.741
20
-130.639
11
111.599
21
-130.496
0
LINE
8
BLACK
6
CONTINUOUS
10
111.599
20
-130.496
11
111.741
21
-130.353
0
LINE
8
BLACK
6
CONTINUOUS
10
111.741
20
-130.353
11
111.741
21
-130.639
0
LINE
8
BLACK
6
CONTINUOUS
10
113.027
20
-127.925
11
113.17
21
-127.782
0
LINE
8
BLACK
6
CONTINUOUS
10
113.17
20
-127.782
11
113.456
21
-127.639
0
LINE
8
BLACK
6
CONTINUOUS
10
113.456
20
-127.639
11
114.17
21
-127.639
0
LINE
8
BLACK
6
CONTINUOUS
10
114.17
20
-127.639
11
114.456
21
-127.782
0
LINE
8
BLACK
6
CONTINUOUS
10
114.456
20
-127.782
11
114.599
21
-127.925
0
LINE
8
BLACK
6
CONTINUOUS
10
114.599
20
-127.925
11
114.741
21
-128.211
0
LINE
8
BLACK
6
CONTINUOUS
10
114.741
20
-128.211
11
114.741
21
-128.496
0
LINE
8
BLACK
6
CONTINUOUS
10
114.741
20
-128.496
11
114.599
21
-128.925
0
LINE
8
BLACK
6
CONTINUOUS
10
114.599
20
-128.925
11
112.884
21
-130.639
0
LINE
8
BLACK
6
CONTINUOUS
10
112.884
20
-130.639
11
114.741
21
-130.639
0
LINE
8
BLACK
6
CONTINUOUS
10
116.599
20
-127.639
11
116.884
21
-127.639
0
LINE
8
BLACK
6
CONTINUOUS
10
116.884
20
-127.639
11
117.17
21
-127.782
0
LINE
8
BLACK
6
CONTINUOUS
10
117.17
20
-127.782
11
117.313
21
-127.925
0
LINE
8
BLACK
6
CONTINUOUS
10
117.313
20
-127.925
11
117.456
21
-128.211
0
LINE
8
BLACK
6
CONTINUOUS
10
117.456
20
-128.211
11
117.599
21
-128.782
0
LINE
8
BLACK
6
CONTINUOUS
10
117.599
20
-128.782
11
117.599
21
-129.496
0
LINE
8
BLACK
6
CONTINUOUS
10
117.599
20
-129.496
11
117.456
21
-130.068
0
LINE
8
BLACK
6
CONTINUOUS
10
117.456
20
-130.068
11
117.313
21
-130.353
0
LINE
8
BLACK
6
CONTINUOUS
10
117.313
20
-130.353
11
117.17
21
-130.496
0
LINE
8
BLACK
6
CONTINUOUS
10
117.17
20
-130.496
11
116.884
21
-130.639
0
LINE
8
BLACK
6
CONTINUOUS
10
116.884
20
-130.639
11
116.599
21
-130.639
0
LINE
8
BLACK
6
CONTINUOUS
10
116.599
20
-130.639
11
116.313
21
-130.496
0
LINE
8
BLACK
6
CONTINUOUS
10
116.313
20
-130.496
11
116.17
21
-130.353
0
LINE
8
BLACK
6
CONTINUOUS
10
116.17
20
-130.353
11
116.027
21
-130.068
0
LINE
8
BLACK
6
CONTINUOUS
10
116.027
20
-130.068
11
115.884
21
-129.496
0
LINE
8
BLACK
6
CONTINUOUS
10
115.884
20
-129.496
11
115.884
21
-128.782
0
LINE
8
BLACK
6
CONTINUOUS
10
115.884
20
-128.782
11
116.027
21
-128.211
0
LINE
8
BLACK
6
CONTINUOUS
10
116.027
20
-128.211
11
116.17
21
-127.925
0
LINE
8
BLACK
6
CONTINUOUS
10
116.17
20
-127.925
11
116.313
21
-127.782
0
LINE
8
BLACK
6
CONTINUOUS
10
116.313
20
-127.782
11
116.599
21
-127.639
0
LINE
8
BLACK
6
CONTINUOUS
10
118.884
20
-130.639
11
118.884
21
-128.639
0
LINE
8
BLACK
6
CONTINUOUS
10
118.884
20
-128.925
11
119.027
21
-128.782
0
LINE
8
BLACK
6
CONTINUOUS
10
119.027
20
-128.782
11
119.313
21
-128.639
0
LINE
8
BLACK
6
CONTINUOUS
10
119.313
20
-128.639
11
119.741
21
-128.639
0
LINE
8
BLACK
6
CONTINUOUS
10
119.741
20
-128.639
11
120.027
21
-128.782
0
LINE
8
BLACK
6
CONTINUOUS
10
120.027
20
-128.782
11
120.17
21
-129.068
0
LINE
8
BLACK
6
CONTINUOUS
10
120.17
20
-129.068
11
120.17
21
-130.639
0
LINE
8
BLACK
6
CONTINUOUS
10
120.17
20
-129.068
11
120.313
21
-128.782
0
LINE
8
BLACK
6
CONTINUOUS
10
120.313
20
-128.782
11
120.599
21
-128.639
0
LINE
8
BLACK
6
CONTINUOUS
10
120.599
20
-128.639
11
121.027
21
-128.639
0
LINE
8
BLACK
6
CONTINUOUS
10
121.027
20
-128.639
11
121.313
21
-128.782
0
LINE
8
BLACK
6
CONTINUOUS
10
121.313
20
-128.782
11
121.456
21
-129.068
0
LINE
8
BLACK
6
CONTINUOUS
10
121.456
20
-129.068
11
121.456
21
-130.639
0
LINE
8
BLACK
6
CONTINUOUS
10
122.884
20
-130.639
11
122.884
21
-128.639
0
LINE
8
BLACK
6
CONTINUOUS
10
122.884
20
-128.925
11
123.027
21
-128.782
0
LINE
8
BLACK
6
CONTINUOUS
10
123.027
20
-128.782
11
123.313
21
-128.639
0
LINE
8
BLACK
6
CONTINUOUS
10
123.313
20
-128.639
11
123.741
21
-128.639
0
LINE
8
BLACK
6
CONTINUOUS
10
123.741
20
-128.639
11
124.027
21
-128.782
0
LINE
8
BLACK
6
CONTINUOUS
10
124.027
20
-128.782
11
124.17
21
-129.068
0
LINE
8
BLACK
6
CONTINUOUS
10
124.17
20
-129.068
11
124.17
21
-130.639
0
LINE
8
BLACK
6
CONTINUOUS
10
124.17
20
-129.068
11
124.313
21
-128.782
0
LINE
8
BLACK
6
CONTINUOUS
10
124.313
20
-128.782
11
124.599
21
-128.639
0
LINE
8
BLACK
6
CONTINUOUS
10
124.599
20
-128.639
11
125.027
21
-128.639
0
LINE
8
BLACK
6
CONTINUOUS
10
125.027
20
-128.639
11
125.313
21
-128.782
0
LINE
8
BLACK
6
CONTINUOUS
10
125.313
20
-128.782
11
125.456
21
-129.068
0
LINE
8
BLACK
6
CONTINUOUS
10
125.456
20
-129.068
11
125.456
21
-130.639
0
LINE
8
BLACK
6
CONTINUOUS
10
131.313
20
-127.496
11
128.741
21
-131.353
0
LINE
8
BLACK
6
CONTINUOUS
10
135.17
20
-127.639
11
135.456
21
-127.639
0
LINE
8
BLACK
6
CONTINUOUS
10
135.456
20
-127.639
11
135.741
21
-127.782
0
LINE
8
BLACK
6
CONTINUOUS
10
135.741
20
-127.782
11
135.884
21
-127.925
0
LINE
8
BLACK
6
CONTINUOUS
10
135.884
20
-127.925
11
136.027
21
-128.211
0
LINE
8
BLACK
6
CONTINUOUS
10
136.027
20
-128.211
11
136.17
21
-128.782
0
LINE
8
BLACK
6
CONTINUOUS
10
136.17
20
-128.782
11
136.17
21
-129.496
0
LINE
8
BLACK
6
CONTINUOUS
10
136.17
20
-129.496
11
136.027
21
-130.068
0
LINE
8
BLACK
6
CONTINUOUS
10
136.027
20
-130.068
11
135.884
21
-130.353
0
LINE
8
BLACK
6
CONTINUOUS
10
135.884
20
-130.353
11
135.741
21
-130.496
0
LINE
8
BLACK
6
CONTINUOUS
10
135.741
20
-130.496
11
135.456
21
-130.639
0
LINE
8
BLACK
6
CONTINUOUS
10
135.456
20
-130.639
11
135.17
21
-130.639
0
LINE
8
BLACK
6
CONTINUOUS
10
135.17
20
-130.639
11
134.884
21
-130.496
0
LINE
8
BLACK
6
CONTINUOUS
10
134.884
20
-130.496
11
134.741
21
-130.353
0
LINE
8
BLACK
6
CONTINUOUS
10
134.741
20
-130.353
11
134.599
21
-130.068
0
LINE
8
BLACK
6
CONTINUOUS
10
134.599
20
-130.068
11
134.456
21
-129.496
0
LINE
8
BLACK
6
CONTINUOUS
10
134.456
20
-129.496
11
134.456
21
-128.782
0
LINE
8
BLACK
6
CONTINUOUS
10
134.456
20
-128.782
11
134.599
21
-128.211
0
LINE
8
BLACK
6
CONTINUOUS
10
134.599
20
-128.211
11
134.741
21
-127.925
0
LINE
8
BLACK
6
CONTINUOUS
10
134.741
20
-127.925
11
134.884
21
-127.782
0
LINE
8
BLACK
6
CONTINUOUS
10
134.884
20
-127.782
11
135.17
21
-127.639
0
LINE
8
BLACK
6
CONTINUOUS
10
137.456
20
-130.353
11
137.599
21
-130.496
0
LINE
8
BLACK
6
CONTINUOUS
10
137.599
20
-130.496
11
137.456
21
-130.639
0
LINE
8
BLACK
6
CONTINUOUS
10
137.456
20
-130.639
11
137.313
21
-130.496
0
LINE
8
BLACK
6
CONTINUOUS
10
137.313
20
-130.496
11
137.456
21
-130.353
0
LINE
8
BLACK
6
CONTINUOUS
10
137.456
20
-130.353
11
137.456
21
-130.639
0
LINE
8
BLACK
6
CONTINUOUS
10
139.456
20
-127.639
11
139.741
21
-127.639
0
LINE
8
BLACK
6
CONTINUOUS
10
139.741
20
-127.639
11
140.027
21
-127.782
0
LINE
8
BLACK
6
CONTINUOUS
10
140.027
20
-127.782
11
140.17
21
-127.925
0
LINE
8
BLACK
6
CONTINUOUS
10
140.17
20
-127.925
11
140.313
21
-128.211
0
LINE
8
BLACK
6
CONTINUOUS
10
140.313
20
-128.211
11
140.456
21
-128.782
0
LINE
8
BLACK
6
CONTINUOUS
10
140.456
20
-128.782
11
140.456
21
-129.496
0
LINE
8
BLACK
6
CONTINUOUS
10
140.456
20
-129.496
11
140.313
21
-130.068
0
LINE
8
BLACK
6
CONTINUOUS
10
140.313
20
-130.068
11
140.17
21
-130.353
0
LINE
8
BLACK
6
CONTINUOUS
10
140.17
20
-130.353
11
140.027
21
-130.496
0
LINE
8
BLACK
6
CONTINUOUS
10
140.027
20
-130.496
11
139.741
21
-130.639
0
LINE
8
BLACK
6
CONTINUOUS
10
139.741
20
-130.639
11
139.456
21
-130.639
0
LINE
8
BLACK
6
CONTINUOUS
10
139.456
20
-130.639
11
139.17
21
-130.496
0
LINE
8
BLACK
6
CONTINUOUS
10
139.17
20
-130.496
11
139.027
21
-130.353
0
LINE
8
BLACK
6
CONTINUOUS
10
139.027
20
-130.353
11
138.884
21
-130.068
0
LINE
8
BLACK
6
CONTINUOUS
10
138.884
20
-130.068
11
138.741
21
-129.496
0
LINE
8
BLACK
6
CONTINUOUS
10
138.741
20
-129.496
11
138.741
21
-128.782
0
LINE
8
BLACK
6
CONTINUOUS
10
138.741
20
-128.782
11
138.884
21
-128.211
0
LINE
8
BLACK
6
CONTINUOUS
10
138.884
20
-128.211
11
139.027
21
-127.925
0
LINE
8
BLACK
6
CONTINUOUS
10
139.027
20
-127.925
11
139.17
21
-127.782
0
LINE
8
BLACK
6
CONTINUOUS
10
139.17
20
-127.782
11
139.456
21
-127.639
0
LINE
8
BLACK
6
CONTINUOUS
10
143.027
20
-128.639
11
143.027
21
-130.639
0
LINE
8
BLACK
6
CONTINUOUS
10
142.313
20
-127.496
11
141.599
21
-129.639
0
LINE
8
BLACK
6
CONTINUOUS
10
141.599
20
-129.639
11
143.456
21
-129.639
0
LINE
8
BLACK
6
CONTINUOUS
10
144.313
20
-127.639
11
146.313
21
-127.639
0
LINE
8
BLACK
6
CONTINUOUS
10
146.313
20
-127.639
11
145.027
21
-130.639
0
LINE
8
BLACK
6
CONTINUOUS
10
147.313
20
-127.639
11
147.313
21
-128.211
0
LINE
8
BLACK
6
CONTINUOUS
10
148.456
20
-127.639
11
148.456
21
-128.211
0
LINE
8
BLACK
6
CONTINUOUS
10
152.884
20
-131.782
11
152.741
21
-131.639
0
LINE
8
BLACK
6
CONTINUOUS
10
152.741
20
-131.639
11
152.456
21
-131.211
0
LINE
8
BLACK
6
CONTINUOUS
10
152.456
20
-131.211
11
152.313
21
-130.925
0
LINE
8
BLACK
6
CONTINUOUS
10
152.313
20
-130.925
11
152.17
21
-130.496
0
LINE
8
BLACK
6
CONTINUOUS
10
152.17
20
-130.496
11
152.027
21
-129.782
0
LINE
8
BLACK
6
CONTINUOUS
10
152.027
20
-129.782
11
152.027
21
-129.211
0
LINE
8
BLACK
6
CONTINUOUS
10
152.027
20
-129.211
11
152.17
21
-128.496
0
LINE
8
BLACK
6
CONTINUOUS
10
152.17
20
-128.496
11
152.313
21
-128.068
0
LINE
8
BLACK
6
CONTINUOUS
10
152.313
20
-128.068
11
152.456
21
-127.782
0
LINE
8
BLACK
6
CONTINUOUS
10
152.456
20
-127.782
11
152.741
21
-127.353
0
LINE
8
BLACK
6
CONTINUOUS
10
152.741
20
-127.353
11
152.884
21
-127.211
0
LINE
8
BLACK
6
CONTINUOUS
10
155.599
20
-130.639
11
153.884
21
-130.639
0
LINE
8
BLACK
6
CONTINUOUS
10
154.741
20
-130.639
11
154.741
21
-127.639
0
LINE
8
BLACK
6
CONTINUOUS
10
154.741
20
-127.639
11
154.456
21
-128.068
0
LINE
8
BLACK
6
CONTINUOUS
10
154.456
20
-128.068
11
154.17
21
-128.353
0
LINE
8
BLACK
6
CONTINUOUS
10
154.17
20
-128.353
11
153.884
21
-128.496
0
LINE
8
BLACK
6
CONTINUOUS
10
158.17
20
-127.639
11
157.599
21
-127.639
0
LINE
8
BLACK
6
CONTINUOUS
10
157.599
20
-127.639
11
157.313
21
-127.782
0
LINE
8
BLACK
6
CONTINUOUS
10
157.313
20
-127.782
11
157.17
21
-127.925
0
LINE
8
BLACK
6
CONTINUOUS
10
157.17
20
-127.925
11
156.884
21
-128.353
0
LINE
8
BLACK
6
CONTINUOUS
10
156.884
20
-128.353
11
156.741
21
-128.925
0
LINE
8
BLACK
6
CONTINUOUS
10
156.741
20
-128.925
11
156.741
21
-130.068
0
LINE
8
BLACK
6
CONTINUOUS
10
156.741
20
-130.068
11
156.884
21
-130.353
0
LINE
8
BLACK
6
CONTINUOUS
10
156.884
20
-130.353
11
157.027
21
-130.496
0
LINE
8
BLACK
6
CONTINUOUS
10
157.027
20
-130.496
11
157.313
21
-130.639
0
LINE
8
BLACK
6
CONTINUOUS
10
157.313
20
-130.639
11
157.884
21
-130.639
0
LINE
8
BLACK
6
CONTINUOUS
10
157.884
20
-130.639
11
158.17
21
-130.496
0
LINE
8
BLACK
6
CONTINUOUS
10
158.17
20
-130.496
11
158.313
21
-130.353
0
LINE
8
BLACK
6
CONTINUOUS
10
158.313
20
-130.353
11
158.456
21
-130.068
0
LINE
8
BLACK
6
CONTINUOUS
10
158.456
20
-130.068
11
158.456
21
-129.353
0
LINE
8
BLACK
6
CONTINUOUS
10
158.456
20
-129.353
11
158.313
21
-129.068
0
LINE
8
BLACK
6
CONTINUOUS
10
158.313
20
-129.068
11
158.17
21
-128.925
0
LINE
8
BLACK
6
CONTINUOUS
10
158.17
20
-128.925
11
157.884
21
-128.782
0
LINE
8
BLACK
6
CONTINUOUS
10
157.884
20
-128.782
11
157.313
21
-128.782
0
LINE
8
BLACK
6
CONTINUOUS
10
157.313
20
-128.782
11
157.027
21
-128.925
0
LINE
8
BLACK
6
CONTINUOUS
10
157.027
20
-128.925
11
156.884
21
-129.068
0
LINE
8
BLACK
6
CONTINUOUS
10
156.884
20
-129.068
11
156.741
21
-129.353
0
LINE
8
BLACK
6
CONTINUOUS
10
162.027
20
-130.639
11
162.027
21
-127.639
0
LINE
8
BLACK
6
CONTINUOUS
10
163.313
20
-130.639
11
163.313
21
-129.068
0
LINE
8
BLACK
6
CONTINUOUS
10
163.313
20
-129.068
11
163.17
21
-128.782
0
LINE
8
BLACK
6
CONTINUOUS
10
163.17
20
-128.782
11
162.884
21
-128.639
0
LINE
8
BLACK
6
CONTINUOUS
10
162.884
20
-128.639
11
162.456
21
-128.639
0
LINE
8
BLACK
6
CONTINUOUS
10
162.456
20
-128.639
11
162.17
21
-128.782
0
LINE
8
BLACK
6
CONTINUOUS
10
162.17
20
-128.782
11
162.027
21
-128.925
0
LINE
8
BLACK
6
CONTINUOUS
10
165.17
20
-130.639
11
164.884
21
-130.496
0
LINE
8
BLACK
6
CONTINUOUS
10
164.884
20
-130.496
11
164.741
21
-130.353
0
LINE
8
BLACK
6
CONTINUOUS
10
164.741
20
-130.353
11
164.599
21
-130.068
0
LINE
8
BLACK
6
CONTINUOUS
10
164.599
20
-130.068
11
164.599
21
-129.211
0
LINE
8
BLACK
6
CONTINUOUS
10
164.599
20
-129.211
11
164.741
21
-128.925
0
LINE
8
BLACK
6
CONTINUOUS
10
164.741
20
-128.925
11
164.884
21
-128.782
0
LINE
8
BLACK
6
CONTINUOUS
10
164.884
20
-128.782
11
165.17
21
-128.639
0
LINE
8
BLACK
6
CONTINUOUS
10
165.17
20
-128.639
11
165.599
21
-128.639
0
LINE
8
BLACK
6
CONTINUOUS
10
165.599
20
-128.639
11
165.884
21
-128.782
0
LINE
8
BLACK
6
CONTINUOUS
10
165.884
20
-128.782
11
166.027
21
-128.925
0
LINE
8
BLACK
6
CONTINUOUS
10
166.027
20
-128.925
11
166.17
21
-129.211
0
LINE
8
BLACK
6
CONTINUOUS
10
166.17
20
-129.211
11
166.17
21
-130.068
0
LINE
8
BLACK
6
CONTINUOUS
10
166.17
20
-130.068
11
166.027
21
-130.353
0
LINE
8
BLACK
6
CONTINUOUS
10
166.027
20
-130.353
11
165.884
21
-130.496
0
LINE
8
BLACK
6
CONTINUOUS
10
165.884
20
-130.496
11
165.599
21
-130.639
0
LINE
8
BLACK
6
CONTINUOUS
10
165.599
20
-130.639
11
165.17
21
-130.639
0
LINE
8
BLACK
6
CONTINUOUS
10
167.884
20
-130.639
11
167.599
21
-130.496
0
LINE
8
BLACK
6
CONTINUOUS
10
167.599
20
-130.496
11
167.456
21
-130.211
0
LINE
8
BLACK
6
CONTINUOUS
10
167.456
20
-130.211
11
167.456
21
-127.639
0
LINE
8
BLACK
6
CONTINUOUS
10
170.17
20
-130.496
11
169.884
21
-130.639
0
LINE
8
BLACK
6
CONTINUOUS
10
169.884
20
-130.639
11
169.313
21
-130.639
0
LINE
8
BLACK
6
CONTINUOUS
10
169.313
20
-130.639
11
169.027
21
-130.496
0
LINE
8
BLACK
6
CONTINUOUS
10
169.027
20
-130.496
11
168.884
21
-130.211
0
LINE
8
BLACK
6
CONTINUOUS
10
168.884
20
-130.211
11
168.884
21
-129.068
0
LINE
8
BLACK
6
CONTINUOUS
10
168.884
20
-129.068
11
169.027
21
-128.782
0
LINE
8
BLACK
6
CONTINUOUS
10
169.027
20
-128.782
11
169.313
21
-128.639
0
LINE
8
BLACK
6
CONTINUOUS
10
169.313
20
-128.639
11
169.884
21
-128.639
0
LINE
8
BLACK
6
CONTINUOUS
10
169.884
20
-128.639
11
170.17
21
-128.782
0
LINE
8
BLACK
6
CONTINUOUS
10
170.17
20
-128.782
11
170.313
21
-129.068
0
LINE
8
BLACK
6
CONTINUOUS
10
170.313
20
-129.068
11
170.313
21
-129.353
0
LINE
8
BLACK
6
CONTINUOUS
10
170.313
20
-129.353
11
168.884
21
-129.639
0
LINE
8
BLACK
6
CONTINUOUS
10
171.456
20
-130.496
11
171.741
21
-130.639
0
LINE
8
BLACK
6
CONTINUOUS
10
171.741
20
-130.639
11
172.313
21
-130.639
0
LINE
8
BLACK
6
CONTINUOUS
10
172.313
20
-130.639
11
172.599
21
-130.496
0
LINE
8
BLACK
6
CONTINUOUS
10
172.599
20
-130.496
11
172.741
21
-130.211
0
LINE
8
BLACK
6
CONTINUOUS
10
172.741
20
-130.211
11
172.741
21
-130.068
0
LINE
8
BLACK
6
CONTINUOUS
10
172.741
20
-130.068
11
172.599
21
-129.782
0
LINE
8
BLACK
6
CONTINUOUS
10
172.599
20
-129.782
11
172.313
21
-129.639
0
LINE
8
BLACK
6
CONTINUOUS
10
172.313
20
-129.639
11
171.884
21
-129.639
0
LINE
8
BLACK
6
CONTINUOUS
10
171.884
20
-129.639
11
171.599
21
-129.496
0
LINE
8
BLACK
6
CONTINUOUS
10
171.599
20
-129.496
11
171.456
21
-129.211
0
LINE
8
BLACK
6
CONTINUOUS
10
171.456
20
-129.211
11
171.456
21
-129.068
0
LINE
8
BLACK
6
CONTINUOUS
10
171.456
20
-129.068
11
171.599
21
-128.782
0
LINE
8
BLACK
6
CONTINUOUS
10
171.599
20
-128.782
11
171.884
21
-128.639
0
LINE
8
BLACK
6
CONTINUOUS
10
171.884
20
-128.639
11
172.313
21
-128.639
0
LINE
8
BLACK
6
CONTINUOUS
10
172.313
20
-128.639
11
172.599
21
-128.782
0
LINE
8
BLACK
6
CONTINUOUS
10
173.741
20
-131.782
11
173.884
21
-131.639
0
LINE
8
BLACK
6
CONTINUOUS
10
173.884
20
-131.639
11
174.17
21
-131.211
0
LINE
8
BLACK
6
CONTINUOUS
10
174.17
20
-131.211
11
174.313
21
-130.925
0
LINE
8
BLACK
6
CONTINUOUS
10
174.313
20
-130.925
11
174.456
21
-130.496
0
LINE
8
BLACK
6
CONTINUOUS
10
174.456
20
-130.496
11
174.599
21
-129.782
0
LINE
8
BLACK
6
CONTINUOUS
10
174.599
20
-129.782
11
174.599
21
-129.211
0
LINE
8
BLACK
6
CONTINUOUS
10
174.599
20
-129.211
11
174.456
21
-128.496
0
LINE
8
BLACK
6
CONTINUOUS
10
174.456
20
-128.496
11
174.313
21
-128.068
0
LINE
8
BLACK
6
CONTINUOUS
10
174.313
20
-128.068
11
174.17
21
-127.782
0
LINE
8
BLACK
6
CONTINUOUS
10
174.17
20
-127.782
11
173.884
21
-127.353
0
LINE
8
BLACK
6
CONTINUOUS
10
173.884
20
-127.353
11
173.741
21
-127.211
  0
ENDSEC
  0
EOF
