0
SECTION
2
HEADER
9
$INSUNITS
70
1
9
$ACADVER
1
AC1014
9
$HANDSEED
5
FFFF
0
ENDSEC
0
SECTION
2
TABLES
0
TABLE
2
VPORT
5
8
100
AcDbSymbolTable
0
ENDTAB
0
TABLE
2
LTYPE
5
5
100
AcDbSymbolTable
0
LTYPE
5
14
100
AcDbSymbolTableRecord
100
AcDbLinetypeTableRecord
2
BYBLOCK
70
0
0
LTYPE
5
15
100
AcDbSymbolTableRecord
100
AcDbLinetypeTableRecord
2
BYLAYER
70
0
0
ENDTAB
0
TABLE
2
LAYER
5
2
100
AcDbSymbolTable
70
2
0
LAYER
5
50
100
AcDbSymbolTableRecord
100
AcDbLayerTableRecord
2
0
70
0
6
CONTINUOUS
0
ENDTAB
0
TABLE
2
STYLE
5
3
100
AcDbSymbolTable
70
1
0
STYLE
5
11
100
AcDbSymbolTableRecord
100
AcDbTextStyleTableRecord
2
STANDARD
70
0
0
ENDTAB
0
TABLE
2
VIEW
5
6
100
AcDbSymbolTable
70
0
0
ENDTAB
0
TABLE
2
UCS
5
7
100
AcDbSymbolTable
70
0
0
ENDTAB
0
TABLE
2
APPID
5
9
100
AcDbSymbolTable
70
2
0
APPID
5
12
100
AcDbSymbolTableRecord
100
AcDbRegAppTableRecord
2
ACAD
70
0
0
ENDTAB
0
TABLE
2
DIMSTYLE
5
A
100
AcDbSymbolTable
70
1
0
ENDTAB
0
TABLE
2
BLOCK_RECORD
5
1
100
AcDbSymbolTable
70
1
0
BLOCK_RECORD
5
1F
100
AcDbSymbolTableRecord
100
AcDbBlockTableRecord
2
*MODEL_SPACE
0
BLOCK_RECORD
5
1B
100
AcDbSymbolTableRecord
100
AcDbBlockTableRecord
2
*PAPER_SPACE
0
ENDTAB
0
ENDSEC
0
SECTION
2
BLOCKS
0
BLOCK
5
20
100
AcDbEntity
100
AcDbBlockBegin
2
*MODEL_SPACE
0
ENDBLK
5
21
100
AcDbEntity
100
AcDbBlockEnd
0
BLOCK
5
1C
100
AcDbEntity
100
AcDbBlockBegin
2
*PAPER_SPACE
0
ENDBLK
5
1D
100
AcDbEntity
100
AcDbBlockEnd
0
ENDSEC
0
SECTION
2
ENTITIES
0
SPLINE
5
100
100
AcDbEntity
8
0
100
AcDbSpline
70
0
71
3
72
10
73
6
74
0
42
0.000000001
43
0.0000000001
44
0.0000000001
40
-12.922302746896168
40
-12.922302746896168
40
-12.922302746896168
40
-12.922302746896168
40
-6.5521448976974757
40
-6.5521448976974757
40
0
40
0
40
0
40
0
10
-125.94751464682756
20
-42.50514005715921
30
0
10
-126.1328586001072
20
-43.321386512650292
30
0
10
-126.30039426658089
20
-44.140180292335408
30
0
10
-126.60660693680568
20
-45.812563423590241
30
0
10
-126.7437019667786
20
-46.663433171351926
30
0
10
-126.86358164112922
20
-47.51489704215048
30
0
0
LINE
5
101
100
AcDbEntity
8
0
100
AcDbLine
10
-126.86358164112922
20
-47.51489704215048
30
0
11
-118.06786445528145
21
-46.33742892568339
31
0
0
LINE
5
102
100
AcDbEntity
8
0
100
AcDbLine
10
-118.06786445528145
20
-46.33742892568339
30
0
11
-118.06786445528151
21
-40.937098467034836
31
0
0
LINE
5
103
100
AcDbEntity
8
0
100
AcDbLine
10
-118.06786445528151
20
-40.937098467034836
30
0
11
-120.11868897806471
21
-41.4866152417328
31
0
0
ARC
5
104
100
AcDbEntity
8
0
100
AcDbCircle
10
-120.21574611997819
20
-41.124393056874318
30
0
40
0.3750000000000841
210
0
220
0
230
1
100
AcDbArc
50
180
51
285.0000000000021
0
LINE
5
105
100
AcDbEntity
8
0
100
AcDbLine
10
-120.59074611997828
20
-41.12439305687446
30
0
11
-120.59074611997805
21
-36.562466685922679
31
0
0
LINE
5
106
100
AcDbEntity
8
0
100
AcDbLine
10
-120.59074611997805
20
-36.562466685922679
30
0
11
-124.56759404657092
21
-37.480261463152736
31
0
0
SPLINE
5
107
100
AcDbEntity
8
0
100
AcDbSpline
70
0
71
3
72
10
73
6
74
0
42
0.000000001
43
0.0000000001
44
0.0000000001
40
-8.440094328928792
40
-8.440094328928792
40
-8.440094328928792
40
-8.440094328928792
40
-4.2334569680935168
40
-4.2334569680935168
40
0
40
0
40
0
40
0
10
-124.56759404657092
20
-37.480261463152694
30
0
10
-124.73724753995091
20
-38.005556838636302
30
0
10
-124.89939149546818
20
-38.532424132616754
30
0
10
-125.20991423660915
20
-39.594624678979237
30
0
10
-125.3580570633253
20
-40.12953607827852
30
0
10
-125.49862887862942
20
-40.667029862549292
30
0
0
LINE
5
108
100
AcDbEntity
8
0
100
AcDbLine
10
-125.49862887862942
20
-40.667029862549299
30
0
11
-124.20837182903574
21
-41.38554379208572
31
0
0
ARC
5
109
100
AcDbEntity
8
0
100
AcDbCircle
10
-124.29959519448822
20
-41.549356330053747
30
0
40
0.18750000000000766
210
-0
220
0
230
1
100
AcDbArc
50
-11.241714652702413
51
60.887590542810848
0
LINE
5
110
100
AcDbEntity
8
0
100
AcDbLine
10
-124.11569266670794
20
-41.58590917229661
30
0
11
-124.4125526095667
21
-43.079453601091679
31
0
0
ARC
5
111
100
AcDbEntity
8
0
100
AcDbCircle
10
-124.59645513734699
20
-43.042900758848823
30
0
40
0.18750000000000122
210
0
220
0
230
1
100
AcDbArc
50
240.88759054666065
51
348.75828534730061
0
LINE
5
112
100
AcDbEntity
8
0
100
AcDbLine
10
-124.68767850278846
20
-43.206713296822969
30
0
11
-125.94751464682756
21
-42.50514005715921
31
0
0
CIRCLE
5
113
100
AcDbEntity
8
0
100
AcDbCircle
10
-118.34828488408368
20
-41.334181778361028
30
0
40
0.096750000000003264
210
0
220
-0
230
1
0
CIRCLE
5
114
100
AcDbEntity
8
0
100
AcDbCircle
10
-125.1891782368677
20
-43.30887696010624
30
0
40
0.096750000000003264
210
0
220
-0
230
1
0
CIRCLE
5
115
100
AcDbEntity
8
0
100
AcDbCircle
10
-123.20397672641553
20
-37.422131070155388
30
0
40
0.096750000000003264
210
0
220
-0
230
1
0
CIRCLE
5
116
100
AcDbEntity
8
0
100
AcDbCircle
10
-124.09286445528151
20
-44.53242892568322
30
0
40
0.084750000000007875
210
0
220
0
230
1
0
CIRCLE
5
117
100
AcDbEntity
8
0
100
AcDbCircle
10
-124.09286445528151
20
-46.112428925683226
30
0
40
0.084750000000007875
210
0
220
0
230
1
0
CIRCLE
5
118
100
AcDbEntity
8
0
100
AcDbCircle
10
-120.49286445528149
20
-46.112428925683226
30
0
40
0.084750000000007875
210
0
220
0
230
1
0
CIRCLE
5
119
100
AcDbEntity
8
0
100
AcDbCircle
10
-120.49286445528149
20
-44.53242892568322
30
0
40
0.084750000000007875
210
0
220
0
230
1
0
CIRCLE
5
120
100
AcDbEntity
8
0
100
AcDbCircle
10
-118.45586445528056
20
-43.949428925705398
30
0
40
0.084750000000007875
210
0
220
0
230
1
0
CIRCLE
5
121
100
AcDbEntity
8
0
100
AcDbCircle
10
-120.57986445528074
20
-41.82542892570536
30
0
40
0.084750000000007875
210
0
220
0
230
1
0
CIRCLE
5
122
100
AcDbEntity
8
0
100
AcDbCircle
10
-118.45586445528062
20
-41.825428925705268
30
0
40
0.084750000000007875
210
0
220
0
230
1
0
CIRCLE
5
123
100
AcDbEntity
8
0
100
AcDbCircle
10
-125.23036445581678
20
-46.332428925717792
30
0
40
0.084750000000007875
210
0
220
0
230
1
0
CIRCLE
5
124
100
AcDbEntity
8
0
100
AcDbCircle
10
-124.79286445581681
20
-44.362428925717794
30
0
40
0.084750000000007875
210
0
220
0
230
1
0
CIRCLE
5
125
100
AcDbEntity
8
0
100
AcDbCircle
10
-121.81786445528205
20
-43.812428925684394
30
0
40
0.084750000000007875
210
0
220
0
230
1
0
CIRCLE
5
126
100
AcDbEntity
8
0
100
AcDbCircle
10
-121.11786445528206
20
-42.662428925701697
30
0
40
0.084750000000007875
210
0
220
0
230
1
0
CIRCLE
5
127
100
AcDbEntity
8
0
100
AcDbCircle
10
-122.48036445581666
20
-42.399928925700671
30
0
40
0.084750000000007875
210
0
220
0
230
1
0
CIRCLE
5
128
100
AcDbEntity
8
0
100
AcDbCircle
10
-122.94286445581665
20
-39.762428925700668
30
0
40
0.084750000000007875
210
0
220
0
230
1
0
CIRCLE
5
129
100
AcDbEntity
8
0
100
AcDbCircle
10
-123.29286445581515
20
-43.462428925704742
30
0
40
0.31250000000000688
210
0
220
-0
230
1
0
LWPOLYLINE
5
130
100
AcDbEntity
8
0
100
AcDbPolyline
90
4
70
1
43
0.0
10
-122.0907461199928
20
-39.23484181579807
10
-122.0907461199928
20
-41.74541308438905
42
0.99999999999999989
10
-121.09074611999279
20
-41.74541308438905
10
-121.09074611999277
20
-39.23484181579807
42
0.99999999999999989
0
LWPOLYLINE
5
131
100
AcDbEntity
8
0
100
AcDbPolyline
90
8
70
1
43
0.0
10
-123.95459673874608
20
-44.520381681588731
10
-123.95459673874608
20
-45.987940736706854
42
0.41421356237307866
10
-123.85459673874607
20
-46.087940736706855
10
-120.73113217181692
20
-46.087940736706855
42
0.41421356237294754
10
-120.63113217181692
20
-45.987940736706854
10
-120.63113217181692
20
-44.520381681588731
42
0.41421356237294754
10
-120.73113217181692
20
-44.420381681588729
10
-123.85459673874607
20
-44.420381681588729
42
0.41421356237307866
0
CIRCLE
5
132
100
AcDbEntity
8
0
100
AcDbCircle
10
-121.15324604842142
20
-37.441944772846163
30
0
40
0.084750000000007875
210
0
220
0
230
1
0
CIRCLE
5
133
100
AcDbEntity
8
0
100
AcDbCircle
10
-122.02824604166736
20
-37.441944760995675
30
0
40
0.084750000000007875
210
0
220
0
230
1
0
CIRCLE
5
134
100
AcDbEntity
8
0
100
AcDbCircle
10
-122.02824612215406
20
-42.566944766920933
30
0
40
0.084750000000007875
210
0
220
0
230
1
0
CIRCLE
5
135
100
AcDbEntity
8
0
100
AcDbCircle
10
-119.26786445527993
20
-45.337428925704579
30
0
40
0.77500000000000124
210
0
220
-0
230
1
0
CIRCLE
5
136
100
AcDbEntity
8
0
100
AcDbCircle
10
-119.91309939311253
20
-45.982663863537176
30
0
40
0.084750000000007875
210
0
220
0
230
1
0
CIRCLE
5
137
100
AcDbEntity
8
0
100
AcDbCircle
10
-118.62262951744712
20
-44.692193987871676
30
0
40
0.084750000000007875
210
0
220
0
230
1
0
CIRCLE
5
138
100
AcDbEntity
8
0
100
AcDbCircle
10
-118.32869368107202
20
-45.987851667092684
30
0
40
0.096750000000003264
210
0
220
0
230
1
0
LWPOLYLINE
5
139
100
AcDbEntity
8
0
100
AcDbPolyline
90
10
70
1
43
0.0
10
-120.165602080799
20
-44.092836389842972
42
-0.86892485817918752
10
-120.75330685006759
20
-43.57505846174206
10
-120.7324572891568
20
-43.506903916614917
10
-120.73245728915681
20
-42.148433976339156
10
-120.29645223852297
20
-41.712428925705325
10
-118.73927667203833
20
-41.712428925705325
10
-118.30327162140449
20
-42.148433976339163
10
-118.30327162140446
20
-43.626423875071517
10
-118.73927667203823
20
-44.062428925705277
10
-120.08514112744653
20
-44.062428925705284
0
LWPOLYLINE
5
140
100
AcDbEntity
8
0
100
AcDbPolyline
90
24
70
1
43
0.0
10
-124.53856368465959
20
-44.095476921061852
10
-124.53856368465959
20
-43.945761957323192
42
-0.41421356237309509
10
-124.47606368465959
20
-43.883261957323192
10
-124.14272670831342
20
-43.883261957323185
42
0.41421356237291151
10
-124.08022670831342
20
-43.820761957323185
10
-124.08022670831342
20
-43.54147664603196
42
0.41421356237291151
10
-124.14272670831342
20
-43.47897664603196
10
-125.20960560330191
20
-43.478976646031946
42
0.27047344374444093
10
-125.26402399653422
20
-43.510737607692853
10
-125.70584316937331
20
-44.292905521337332
42
0.12925877134214775
10
-125.71392477614098
20
-44.323644559676438
10
-125.71392477614097
20
-45.8498246369481
42
0.26677112983280737
10
-125.68291251556225
20
-45.903813267845145
10
-125.38176872599132
20
-46.07944908258591
42
0.13277118714769251
10
-125.35028098657006
20
-46.087960451688851
10
-124.8131582103203
20
-46.087960451688851
42
0.27918629738495415
10
-124.75777249811965
20
-46.054420301205511
10
-124.54567797245895
20
-45.648789520879347
42
0.12103091683286139
10
-124.53856368465959
20
-45.619829671362695
10
-124.53856368465959
20
-44.630491307958067
42
0.41421356237306883
10
-124.60106368465959
20
-44.56799130795806
10
-124.79336376443267
20
-44.56799130795806
42
-0.99999999999999989
10
-124.79336376443267
20
-44.157976921061859
10
-124.60106368465959
20
-44.157976921061852
42
0.41421356237306883
0
LWPOLYLINE
5
141
100
AcDbEntity
8
0
100
AcDbPolyline
90
22
70
1
43
0.0
10
-124.01772670831342
20
-41.209352029081614
10
-124.01772670831345
20
-42.08016952213373
42
-0.078404138683731486
10
-124.02076287022041
20
-42.099412753651471
10
-124.22593793782569
20
-42.733427731310151
42
0.35233104364958884
10
-124.19800373098727
20
-42.806635139398573
10
-124.0340334401488
20
-42.902438005955432
42
0.30430850690733663
10
-123.96453817717133
20
-42.898121193946096
10
-123.72883481269176
20
-42.717877444640635
42
-0.071627015312301784
10
-123.71328514198972
20
-42.7091829315195
10
-123.47369510700591
20
-42.617128285722757
42
-0.091964715613699871
10
-123.4512791459851
20
-42.612970163405201
10
-122.85789740588582
20
-42.612970163405194
42
0.41421356237285911
10
-122.79539740588582
20
-42.550470163405201
10
-122.79539740588582
20
-42.256033138669885
42
-0.41421356237309509
10
-122.73289740588582
20
-42.193533138669878
10
-122.37884908006839
20
-42.193533138669885
42
0.41421356237333096
10
-122.31634908006838
20
-42.131033138669885
10
-122.31634908006839
20
-40.016401253270836
42
0.41421356237333096
10
-122.37884908006839
20
-39.953901253270843
10
-123.26596561350524
20
-39.953901253270914
42
0.26786318837027601
10
-123.32008216787789
20
-39.985133881414107
10
-124.00934326268606
20
-41.178084657224815
42
0.13173413388657063
0
LWPOLYLINE
5
142
100
AcDbEntity
8
0
100
AcDbPolyline
90
4
70
1
43
0.0
10
-121.22391840638042
20
-37.719982208603106
10
-121.96100617485872
20
-37.719982208603106
10
-121.96100617485872
20
-38.165400277288065
10
-121.22391840638042
20
-38.165400277288065
0
CIRCLE
5
143
100
AcDbEntity
8
0
100
AcDbCircle
10
-123.29286445581515
20
-43.024928925704735
30
0
40
0.053250000000000304
210
0
220
0
230
1
0
ENDSEC
0
SECTION
2
OBJECTS
0
DICTIONARY
5
C
100
AcDbDictionary
3
ACAD_GROUP
350
D
3
ACAD_MLINESTYLE
350
17
0
DICTIONARY
5
D
100
AcDbDictionary
0
DICTIONARY
5
1A
330
C
100
AcDbDictionary
0
DICTIONARY
5
17
100
AcDbDictionary
0
ENDSEC
0
EOF
