G04 #@! TF.GenerationSoftware,KiCad,Pcbnew,(5.1.2-1)-1*
G04 #@! TF.CreationDate,2019-08-12T18:50:58+10:00*
G04 #@! TF.ProjectId,SmallPCB,536d616c-6c50-4434-922e-6b696361645f,rev?*
G04 #@! TF.SameCoordinates,Original*
G04 #@! TF.FileFunction,Legend,Top*
G04 #@! TF.FilePolarity,Positive*
%FSLAX46Y46*%
G04 Gerber Fmt 4.6, Leading zero omitted, Abs format (unit mm)*
G04 Created by KiCad (PCBNEW (5.1.2-1)-1) date 2019-08-12 18:50:58*
%MOMM*%
%LPD*%
G04 APERTURE LIST*
%ADD10C,0.150000*%
%ADD11C,0.120000*%
G04 APERTURE END LIST*
D10*
X50347619Y-71318571D02*
X50823809Y-70985238D01*
X50347619Y-70747142D02*
X51347619Y-70747142D01*
X51347619Y-71128095D01*
X51300000Y-71223333D01*
X51252380Y-71270952D01*
X51157142Y-71318571D01*
X51014285Y-71318571D01*
X50919047Y-71270952D01*
X50871428Y-71223333D01*
X50823809Y-71128095D01*
X50823809Y-70747142D01*
X50347619Y-71890000D02*
X50395238Y-71794761D01*
X50442857Y-71747142D01*
X50538095Y-71699523D01*
X50823809Y-71699523D01*
X50919047Y-71747142D01*
X50966666Y-71794761D01*
X51014285Y-71890000D01*
X51014285Y-72032857D01*
X50966666Y-72128095D01*
X50919047Y-72175714D01*
X50823809Y-72223333D01*
X50538095Y-72223333D01*
X50442857Y-72175714D01*
X50395238Y-72128095D01*
X50347619Y-72032857D01*
X50347619Y-71890000D01*
X51014285Y-72556666D02*
X50347619Y-72747142D01*
X50823809Y-72937619D01*
X50347619Y-73128095D01*
X51014285Y-73318571D01*
X50395238Y-73651904D02*
X50347619Y-73747142D01*
X50347619Y-73937619D01*
X50395238Y-74032857D01*
X50490476Y-74080476D01*
X50538095Y-74080476D01*
X50633333Y-74032857D01*
X50680952Y-73937619D01*
X50680952Y-73794761D01*
X50728571Y-73699523D01*
X50823809Y-73651904D01*
X50871428Y-73651904D01*
X50966666Y-73699523D01*
X51014285Y-73794761D01*
X51014285Y-73937619D01*
X50966666Y-74032857D01*
X50442857Y-54769047D02*
X50395238Y-54721428D01*
X50347619Y-54578571D01*
X50347619Y-54483333D01*
X50395238Y-54340476D01*
X50490476Y-54245238D01*
X50585714Y-54197619D01*
X50776190Y-54150000D01*
X50919047Y-54150000D01*
X51109523Y-54197619D01*
X51204761Y-54245238D01*
X51300000Y-54340476D01*
X51347619Y-54483333D01*
X51347619Y-54578571D01*
X51300000Y-54721428D01*
X51252380Y-54769047D01*
X50347619Y-55340476D02*
X50395238Y-55245238D01*
X50442857Y-55197619D01*
X50538095Y-55150000D01*
X50823809Y-55150000D01*
X50919047Y-55197619D01*
X50966666Y-55245238D01*
X51014285Y-55340476D01*
X51014285Y-55483333D01*
X50966666Y-55578571D01*
X50919047Y-55626190D01*
X50823809Y-55673809D01*
X50538095Y-55673809D01*
X50442857Y-55626190D01*
X50395238Y-55578571D01*
X50347619Y-55483333D01*
X50347619Y-55340476D01*
X50347619Y-56245238D02*
X50395238Y-56150000D01*
X50490476Y-56102380D01*
X51347619Y-56102380D01*
X51014285Y-57054761D02*
X50347619Y-57054761D01*
X51014285Y-56626190D02*
X50490476Y-56626190D01*
X50395238Y-56673809D01*
X50347619Y-56769047D01*
X50347619Y-56911904D01*
X50395238Y-57007142D01*
X50442857Y-57054761D01*
X50347619Y-57530952D02*
X51014285Y-57530952D01*
X50919047Y-57530952D02*
X50966666Y-57578571D01*
X51014285Y-57673809D01*
X51014285Y-57816666D01*
X50966666Y-57911904D01*
X50871428Y-57959523D01*
X50347619Y-57959523D01*
X50871428Y-57959523D02*
X50966666Y-58007142D01*
X51014285Y-58102380D01*
X51014285Y-58245238D01*
X50966666Y-58340476D01*
X50871428Y-58388095D01*
X50347619Y-58388095D01*
X51014285Y-58864285D02*
X50347619Y-58864285D01*
X50919047Y-58864285D02*
X50966666Y-58911904D01*
X51014285Y-59007142D01*
X51014285Y-59149999D01*
X50966666Y-59245238D01*
X50871428Y-59292857D01*
X50347619Y-59292857D01*
X50395238Y-59721428D02*
X50347619Y-59816666D01*
X50347619Y-60007142D01*
X50395238Y-60102380D01*
X50490476Y-60150000D01*
X50538095Y-60150000D01*
X50633333Y-60102380D01*
X50680952Y-60007142D01*
X50680952Y-59864285D01*
X50728571Y-59769047D01*
X50823809Y-59721428D01*
X50871428Y-59721428D01*
X50966666Y-59769047D01*
X51014285Y-59864285D01*
X51014285Y-60007142D01*
X50966666Y-60102380D01*
X112633333Y-72175714D02*
X112871428Y-72842380D01*
X113109523Y-72175714D01*
X113680952Y-71842380D02*
X113776190Y-71842380D01*
X113871428Y-71890000D01*
X113919047Y-71937619D01*
X113966666Y-72032857D01*
X114014285Y-72223333D01*
X114014285Y-72461428D01*
X113966666Y-72651904D01*
X113919047Y-72747142D01*
X113871428Y-72794761D01*
X113776190Y-72842380D01*
X113680952Y-72842380D01*
X113585714Y-72794761D01*
X113538095Y-72747142D01*
X113490476Y-72651904D01*
X113442857Y-72461428D01*
X113442857Y-72223333D01*
X113490476Y-72032857D01*
X113538095Y-71937619D01*
X113585714Y-71890000D01*
X113680952Y-71842380D01*
X114633333Y-71842380D02*
X114728571Y-71842380D01*
X114823809Y-71890000D01*
X114871428Y-71937619D01*
X114919047Y-72032857D01*
X114966666Y-72223333D01*
X114966666Y-72461428D01*
X114919047Y-72651904D01*
X114871428Y-72747142D01*
X114823809Y-72794761D01*
X114728571Y-72842380D01*
X114633333Y-72842380D01*
X114538095Y-72794761D01*
X114490476Y-72747142D01*
X114442857Y-72651904D01*
X114395238Y-72461428D01*
X114395238Y-72223333D01*
X114442857Y-72032857D01*
X114490476Y-71937619D01*
X114538095Y-71890000D01*
X114633333Y-71842380D01*
X115347619Y-71937619D02*
X115395238Y-71890000D01*
X115490476Y-71842380D01*
X115728571Y-71842380D01*
X115823809Y-71890000D01*
X115871428Y-71937619D01*
X115919047Y-72032857D01*
X115919047Y-72128095D01*
X115871428Y-72270952D01*
X115300000Y-72842380D01*
X115919047Y-72842380D01*
X98806190Y-43632380D02*
X98472857Y-43156190D01*
X98234761Y-43632380D02*
X98234761Y-42632380D01*
X98615714Y-42632380D01*
X98710952Y-42680000D01*
X98758571Y-42727619D01*
X98806190Y-42822857D01*
X98806190Y-42965714D01*
X98758571Y-43060952D01*
X98710952Y-43108571D01*
X98615714Y-43156190D01*
X98234761Y-43156190D01*
X99377619Y-43632380D02*
X99282380Y-43584761D01*
X99234761Y-43537142D01*
X99187142Y-43441904D01*
X99187142Y-43156190D01*
X99234761Y-43060952D01*
X99282380Y-43013333D01*
X99377619Y-42965714D01*
X99520476Y-42965714D01*
X99615714Y-43013333D01*
X99663333Y-43060952D01*
X99710952Y-43156190D01*
X99710952Y-43441904D01*
X99663333Y-43537142D01*
X99615714Y-43584761D01*
X99520476Y-43632380D01*
X99377619Y-43632380D01*
X100044285Y-42965714D02*
X100234761Y-43632380D01*
X100425238Y-43156190D01*
X100615714Y-43632380D01*
X100806190Y-42965714D01*
X101901428Y-42727619D02*
X101949047Y-42680000D01*
X102044285Y-42632380D01*
X102282380Y-42632380D01*
X102377619Y-42680000D01*
X102425238Y-42727619D01*
X102472857Y-42822857D01*
X102472857Y-42918095D01*
X102425238Y-43060952D01*
X101853809Y-43632380D01*
X102472857Y-43632380D01*
X83566190Y-43632380D02*
X83232857Y-43156190D01*
X82994761Y-43632380D02*
X82994761Y-42632380D01*
X83375714Y-42632380D01*
X83470952Y-42680000D01*
X83518571Y-42727619D01*
X83566190Y-42822857D01*
X83566190Y-42965714D01*
X83518571Y-43060952D01*
X83470952Y-43108571D01*
X83375714Y-43156190D01*
X82994761Y-43156190D01*
X84137619Y-43632380D02*
X84042380Y-43584761D01*
X83994761Y-43537142D01*
X83947142Y-43441904D01*
X83947142Y-43156190D01*
X83994761Y-43060952D01*
X84042380Y-43013333D01*
X84137619Y-42965714D01*
X84280476Y-42965714D01*
X84375714Y-43013333D01*
X84423333Y-43060952D01*
X84470952Y-43156190D01*
X84470952Y-43441904D01*
X84423333Y-43537142D01*
X84375714Y-43584761D01*
X84280476Y-43632380D01*
X84137619Y-43632380D01*
X84804285Y-42965714D02*
X84994761Y-43632380D01*
X85185238Y-43156190D01*
X85375714Y-43632380D01*
X85566190Y-42965714D01*
X87232857Y-43632380D02*
X86661428Y-43632380D01*
X86947142Y-43632380D02*
X86947142Y-42632380D01*
X86851904Y-42775238D01*
X86756666Y-42870476D01*
X86661428Y-42918095D01*
X68326190Y-43632380D02*
X67992857Y-43156190D01*
X67754761Y-43632380D02*
X67754761Y-42632380D01*
X68135714Y-42632380D01*
X68230952Y-42680000D01*
X68278571Y-42727619D01*
X68326190Y-42822857D01*
X68326190Y-42965714D01*
X68278571Y-43060952D01*
X68230952Y-43108571D01*
X68135714Y-43156190D01*
X67754761Y-43156190D01*
X68897619Y-43632380D02*
X68802380Y-43584761D01*
X68754761Y-43537142D01*
X68707142Y-43441904D01*
X68707142Y-43156190D01*
X68754761Y-43060952D01*
X68802380Y-43013333D01*
X68897619Y-42965714D01*
X69040476Y-42965714D01*
X69135714Y-43013333D01*
X69183333Y-43060952D01*
X69230952Y-43156190D01*
X69230952Y-43441904D01*
X69183333Y-43537142D01*
X69135714Y-43584761D01*
X69040476Y-43632380D01*
X68897619Y-43632380D01*
X69564285Y-42965714D02*
X69754761Y-43632380D01*
X69945238Y-43156190D01*
X70135714Y-43632380D01*
X70326190Y-42965714D01*
X71659523Y-42632380D02*
X71754761Y-42632380D01*
X71850000Y-42680000D01*
X71897619Y-42727619D01*
X71945238Y-42822857D01*
X71992857Y-43013333D01*
X71992857Y-43251428D01*
X71945238Y-43441904D01*
X71897619Y-43537142D01*
X71850000Y-43584761D01*
X71754761Y-43632380D01*
X71659523Y-43632380D01*
X71564285Y-43584761D01*
X71516666Y-43537142D01*
X71469047Y-43441904D01*
X71421428Y-43251428D01*
X71421428Y-43013333D01*
X71469047Y-42822857D01*
X71516666Y-42727619D01*
X71564285Y-42680000D01*
X71659523Y-42632380D01*
X107664285Y-52887619D02*
X107711904Y-52840000D01*
X107807142Y-52792380D01*
X108045238Y-52792380D01*
X108140476Y-52840000D01*
X108188095Y-52887619D01*
X108235714Y-52982857D01*
X108235714Y-53078095D01*
X108188095Y-53220952D01*
X107616666Y-53792380D01*
X108235714Y-53792380D01*
X107902380Y-45172380D02*
X107997619Y-45172380D01*
X108092857Y-45220000D01*
X108140476Y-45267619D01*
X108188095Y-45362857D01*
X108235714Y-45553333D01*
X108235714Y-45791428D01*
X108188095Y-45981904D01*
X108140476Y-46077142D01*
X108092857Y-46124761D01*
X107997619Y-46172380D01*
X107902380Y-46172380D01*
X107807142Y-46124761D01*
X107759523Y-46077142D01*
X107711904Y-45981904D01*
X107664285Y-45791428D01*
X107664285Y-45553333D01*
X107711904Y-45362857D01*
X107759523Y-45267619D01*
X107807142Y-45220000D01*
X107902380Y-45172380D01*
X107616666Y-71842380D02*
X108283333Y-71842380D01*
X107854761Y-72842380D01*
X108235714Y-49982380D02*
X107664285Y-49982380D01*
X107950000Y-49982380D02*
X107950000Y-48982380D01*
X107854761Y-49125238D01*
X107759523Y-49220476D01*
X107664285Y-49268095D01*
X108140476Y-68032380D02*
X107950000Y-68032380D01*
X107854761Y-68080000D01*
X107807142Y-68127619D01*
X107711904Y-68270476D01*
X107664285Y-68460952D01*
X107664285Y-68841904D01*
X107711904Y-68937142D01*
X107759523Y-68984761D01*
X107854761Y-69032380D01*
X108045238Y-69032380D01*
X108140476Y-68984761D01*
X108188095Y-68937142D01*
X108235714Y-68841904D01*
X108235714Y-68603809D01*
X108188095Y-68508571D01*
X108140476Y-68460952D01*
X108045238Y-68413333D01*
X107854761Y-68413333D01*
X107759523Y-68460952D01*
X107711904Y-68508571D01*
X107664285Y-68603809D01*
X108188095Y-64222380D02*
X107711904Y-64222380D01*
X107664285Y-64698571D01*
X107711904Y-64650952D01*
X107807142Y-64603333D01*
X108045238Y-64603333D01*
X108140476Y-64650952D01*
X108188095Y-64698571D01*
X108235714Y-64793809D01*
X108235714Y-65031904D01*
X108188095Y-65127142D01*
X108140476Y-65174761D01*
X108045238Y-65222380D01*
X107807142Y-65222380D01*
X107711904Y-65174761D01*
X107664285Y-65127142D01*
X108140476Y-60745714D02*
X108140476Y-61412380D01*
X107902380Y-60364761D02*
X107664285Y-61079047D01*
X108283333Y-61079047D01*
X107616666Y-56602380D02*
X108235714Y-56602380D01*
X107902380Y-56983333D01*
X108045238Y-56983333D01*
X108140476Y-57030952D01*
X108188095Y-57078571D01*
X108235714Y-57173809D01*
X108235714Y-57411904D01*
X108188095Y-57507142D01*
X108140476Y-57554761D01*
X108045238Y-57602380D01*
X107759523Y-57602380D01*
X107664285Y-57554761D01*
X107616666Y-57507142D01*
X59356666Y-71842380D02*
X60023333Y-71842380D01*
X59594761Y-72842380D01*
X59880476Y-68032380D02*
X59690000Y-68032380D01*
X59594761Y-68080000D01*
X59547142Y-68127619D01*
X59451904Y-68270476D01*
X59404285Y-68460952D01*
X59404285Y-68841904D01*
X59451904Y-68937142D01*
X59499523Y-68984761D01*
X59594761Y-69032380D01*
X59785238Y-69032380D01*
X59880476Y-68984761D01*
X59928095Y-68937142D01*
X59975714Y-68841904D01*
X59975714Y-68603809D01*
X59928095Y-68508571D01*
X59880476Y-68460952D01*
X59785238Y-68413333D01*
X59594761Y-68413333D01*
X59499523Y-68460952D01*
X59451904Y-68508571D01*
X59404285Y-68603809D01*
X59928095Y-64222380D02*
X59451904Y-64222380D01*
X59404285Y-64698571D01*
X59451904Y-64650952D01*
X59547142Y-64603333D01*
X59785238Y-64603333D01*
X59880476Y-64650952D01*
X59928095Y-64698571D01*
X59975714Y-64793809D01*
X59975714Y-65031904D01*
X59928095Y-65127142D01*
X59880476Y-65174761D01*
X59785238Y-65222380D01*
X59547142Y-65222380D01*
X59451904Y-65174761D01*
X59404285Y-65127142D01*
X59880476Y-60745714D02*
X59880476Y-61412380D01*
X59642380Y-60364761D02*
X59404285Y-61079047D01*
X60023333Y-61079047D01*
X59356666Y-56602380D02*
X59975714Y-56602380D01*
X59642380Y-56983333D01*
X59785238Y-56983333D01*
X59880476Y-57030952D01*
X59928095Y-57078571D01*
X59975714Y-57173809D01*
X59975714Y-57411904D01*
X59928095Y-57507142D01*
X59880476Y-57554761D01*
X59785238Y-57602380D01*
X59499523Y-57602380D01*
X59404285Y-57554761D01*
X59356666Y-57507142D01*
X59404285Y-52887619D02*
X59451904Y-52840000D01*
X59547142Y-52792380D01*
X59785238Y-52792380D01*
X59880476Y-52840000D01*
X59928095Y-52887619D01*
X59975714Y-52982857D01*
X59975714Y-53078095D01*
X59928095Y-53220952D01*
X59356666Y-53792380D01*
X59975714Y-53792380D01*
X59975714Y-49982380D02*
X59404285Y-49982380D01*
X59690000Y-49982380D02*
X59690000Y-48982380D01*
X59594761Y-49125238D01*
X59499523Y-49220476D01*
X59404285Y-49268095D01*
X59642380Y-45172380D02*
X59737619Y-45172380D01*
X59832857Y-45220000D01*
X59880476Y-45267619D01*
X59928095Y-45362857D01*
X59975714Y-45553333D01*
X59975714Y-45791428D01*
X59928095Y-45981904D01*
X59880476Y-46077142D01*
X59832857Y-46124761D01*
X59737619Y-46172380D01*
X59642380Y-46172380D01*
X59547142Y-46124761D01*
X59499523Y-46077142D01*
X59451904Y-45981904D01*
X59404285Y-45791428D01*
X59404285Y-45553333D01*
X59451904Y-45362857D01*
X59499523Y-45267619D01*
X59547142Y-45220000D01*
X59642380Y-45172380D01*
X92329047Y-76271428D02*
X93090952Y-76271428D01*
X89789047Y-76271428D02*
X90550952Y-76271428D01*
X90170000Y-76652380D02*
X90170000Y-75890476D01*
X78359047Y-76271428D02*
X79120952Y-76271428D01*
X75819047Y-76271428D02*
X76580952Y-76271428D01*
X76200000Y-76652380D02*
X76200000Y-75890476D01*
X63119047Y-77541428D02*
X63880952Y-77541428D01*
X60579047Y-77541428D02*
X61340952Y-77541428D01*
X60960000Y-77922380D02*
X60960000Y-77160476D01*
X71501428Y-85542380D02*
X71025238Y-85542380D01*
X71025238Y-84542380D01*
X72215714Y-85494761D02*
X72120476Y-85542380D01*
X71930000Y-85542380D01*
X71834761Y-85494761D01*
X71787142Y-85399523D01*
X71787142Y-85018571D01*
X71834761Y-84923333D01*
X71930000Y-84875714D01*
X72120476Y-84875714D01*
X72215714Y-84923333D01*
X72263333Y-85018571D01*
X72263333Y-85113809D01*
X71787142Y-85209047D01*
X73120476Y-85542380D02*
X73120476Y-84542380D01*
X73120476Y-85494761D02*
X73025238Y-85542380D01*
X72834761Y-85542380D01*
X72739523Y-85494761D01*
X72691904Y-85447142D01*
X72644285Y-85351904D01*
X72644285Y-85066190D01*
X72691904Y-84970952D01*
X72739523Y-84923333D01*
X72834761Y-84875714D01*
X73025238Y-84875714D01*
X73120476Y-84923333D01*
X74930000Y-85542380D02*
X74596666Y-85066190D01*
X74358571Y-85542380D02*
X74358571Y-84542380D01*
X74739523Y-84542380D01*
X74834761Y-84590000D01*
X74882380Y-84637619D01*
X74930000Y-84732857D01*
X74930000Y-84875714D01*
X74882380Y-84970952D01*
X74834761Y-85018571D01*
X74739523Y-85066190D01*
X74358571Y-85066190D01*
X75501428Y-85542380D02*
X75406190Y-85494761D01*
X75358571Y-85447142D01*
X75310952Y-85351904D01*
X75310952Y-85066190D01*
X75358571Y-84970952D01*
X75406190Y-84923333D01*
X75501428Y-84875714D01*
X75644285Y-84875714D01*
X75739523Y-84923333D01*
X75787142Y-84970952D01*
X75834761Y-85066190D01*
X75834761Y-85351904D01*
X75787142Y-85447142D01*
X75739523Y-85494761D01*
X75644285Y-85542380D01*
X75501428Y-85542380D01*
X76168095Y-84875714D02*
X76358571Y-85542380D01*
X76549047Y-85066190D01*
X76739523Y-85542380D01*
X76930000Y-84875714D01*
X78072857Y-85161428D02*
X78834761Y-85161428D01*
X78453809Y-85542380D02*
X78453809Y-84780476D01*
X57491904Y-85542380D02*
X57015714Y-85542380D01*
X57015714Y-84542380D01*
X58206190Y-85494761D02*
X58110952Y-85542380D01*
X57920476Y-85542380D01*
X57825238Y-85494761D01*
X57777619Y-85399523D01*
X57777619Y-85018571D01*
X57825238Y-84923333D01*
X57920476Y-84875714D01*
X58110952Y-84875714D01*
X58206190Y-84923333D01*
X58253809Y-85018571D01*
X58253809Y-85113809D01*
X57777619Y-85209047D01*
X59110952Y-85542380D02*
X59110952Y-84542380D01*
X59110952Y-85494761D02*
X59015714Y-85542380D01*
X58825238Y-85542380D01*
X58730000Y-85494761D01*
X58682380Y-85447142D01*
X58634761Y-85351904D01*
X58634761Y-85066190D01*
X58682380Y-84970952D01*
X58730000Y-84923333D01*
X58825238Y-84875714D01*
X59015714Y-84875714D01*
X59110952Y-84923333D01*
X60920476Y-85447142D02*
X60872857Y-85494761D01*
X60730000Y-85542380D01*
X60634761Y-85542380D01*
X60491904Y-85494761D01*
X60396666Y-85399523D01*
X60349047Y-85304285D01*
X60301428Y-85113809D01*
X60301428Y-84970952D01*
X60349047Y-84780476D01*
X60396666Y-84685238D01*
X60491904Y-84590000D01*
X60634761Y-84542380D01*
X60730000Y-84542380D01*
X60872857Y-84590000D01*
X60920476Y-84637619D01*
X61491904Y-85542380D02*
X61396666Y-85494761D01*
X61349047Y-85447142D01*
X61301428Y-85351904D01*
X61301428Y-85066190D01*
X61349047Y-84970952D01*
X61396666Y-84923333D01*
X61491904Y-84875714D01*
X61634761Y-84875714D01*
X61730000Y-84923333D01*
X61777619Y-84970952D01*
X61825238Y-85066190D01*
X61825238Y-85351904D01*
X61777619Y-85447142D01*
X61730000Y-85494761D01*
X61634761Y-85542380D01*
X61491904Y-85542380D01*
X62396666Y-85542380D02*
X62301428Y-85494761D01*
X62253809Y-85399523D01*
X62253809Y-84542380D01*
X63206190Y-84875714D02*
X63206190Y-85542380D01*
X62777619Y-84875714D02*
X62777619Y-85399523D01*
X62825238Y-85494761D01*
X62920476Y-85542380D01*
X63063333Y-85542380D01*
X63158571Y-85494761D01*
X63206190Y-85447142D01*
X63682380Y-85542380D02*
X63682380Y-84875714D01*
X63682380Y-84970952D02*
X63730000Y-84923333D01*
X63825238Y-84875714D01*
X63968095Y-84875714D01*
X64063333Y-84923333D01*
X64110952Y-85018571D01*
X64110952Y-85542380D01*
X64110952Y-85018571D02*
X64158571Y-84923333D01*
X64253809Y-84875714D01*
X64396666Y-84875714D01*
X64491904Y-84923333D01*
X64539523Y-85018571D01*
X64539523Y-85542380D01*
X65015714Y-84875714D02*
X65015714Y-85542380D01*
X65015714Y-84970952D02*
X65063333Y-84923333D01*
X65158571Y-84875714D01*
X65301428Y-84875714D01*
X65396666Y-84923333D01*
X65444285Y-85018571D01*
X65444285Y-85542380D01*
X66682380Y-85161428D02*
X67444285Y-85161428D01*
X135128095Y-87177619D02*
X135175714Y-87130000D01*
X135270952Y-87082380D01*
X135509047Y-87082380D01*
X135604285Y-87130000D01*
X135651904Y-87177619D01*
X135699523Y-87272857D01*
X135699523Y-87368095D01*
X135651904Y-87510952D01*
X135080476Y-88082380D01*
X135699523Y-88082380D01*
X136604285Y-87082380D02*
X136128095Y-87082380D01*
X136080476Y-87558571D01*
X136128095Y-87510952D01*
X136223333Y-87463333D01*
X136461428Y-87463333D01*
X136556666Y-87510952D01*
X136604285Y-87558571D01*
X136651904Y-87653809D01*
X136651904Y-87891904D01*
X136604285Y-87987142D01*
X136556666Y-88034761D01*
X136461428Y-88082380D01*
X136223333Y-88082380D01*
X136128095Y-88034761D01*
X136080476Y-87987142D01*
X128079523Y-88082380D02*
X127508095Y-88082380D01*
X127793809Y-88082380D02*
X127793809Y-87082380D01*
X127698571Y-87225238D01*
X127603333Y-87320476D01*
X127508095Y-87368095D01*
X128412857Y-87082380D02*
X129079523Y-87082380D01*
X128650952Y-88082380D01*
X120459523Y-88082380D02*
X120650000Y-88082380D01*
X120745238Y-88034761D01*
X120792857Y-87987142D01*
X120888095Y-87844285D01*
X120935714Y-87653809D01*
X120935714Y-87272857D01*
X120888095Y-87177619D01*
X120840476Y-87130000D01*
X120745238Y-87082380D01*
X120554761Y-87082380D01*
X120459523Y-87130000D01*
X120411904Y-87177619D01*
X120364285Y-87272857D01*
X120364285Y-87510952D01*
X120411904Y-87606190D01*
X120459523Y-87653809D01*
X120554761Y-87701428D01*
X120745238Y-87701428D01*
X120840476Y-87653809D01*
X120888095Y-87606190D01*
X120935714Y-87510952D01*
X113315714Y-88082380D02*
X112744285Y-88082380D01*
X113030000Y-88082380D02*
X113030000Y-87082380D01*
X112934761Y-87225238D01*
X112839523Y-87320476D01*
X112744285Y-87368095D01*
X104648095Y-87177619D02*
X104695714Y-87130000D01*
X104790952Y-87082380D01*
X105029047Y-87082380D01*
X105124285Y-87130000D01*
X105171904Y-87177619D01*
X105219523Y-87272857D01*
X105219523Y-87368095D01*
X105171904Y-87510952D01*
X104600476Y-88082380D01*
X105219523Y-88082380D01*
X106076666Y-87415714D02*
X106076666Y-88082380D01*
X105838571Y-87034761D02*
X105600476Y-87749047D01*
X106219523Y-87749047D01*
X97599523Y-88082380D02*
X97028095Y-88082380D01*
X97313809Y-88082380D02*
X97313809Y-87082380D01*
X97218571Y-87225238D01*
X97123333Y-87320476D01*
X97028095Y-87368095D01*
X98456666Y-87082380D02*
X98266190Y-87082380D01*
X98170952Y-87130000D01*
X98123333Y-87177619D01*
X98028095Y-87320476D01*
X97980476Y-87510952D01*
X97980476Y-87891904D01*
X98028095Y-87987142D01*
X98075714Y-88034761D01*
X98170952Y-88082380D01*
X98361428Y-88082380D01*
X98456666Y-88034761D01*
X98504285Y-87987142D01*
X98551904Y-87891904D01*
X98551904Y-87653809D01*
X98504285Y-87558571D01*
X98456666Y-87510952D01*
X98361428Y-87463333D01*
X98170952Y-87463333D01*
X98075714Y-87510952D01*
X98028095Y-87558571D01*
X97980476Y-87653809D01*
X90074761Y-87510952D02*
X89979523Y-87463333D01*
X89931904Y-87415714D01*
X89884285Y-87320476D01*
X89884285Y-87272857D01*
X89931904Y-87177619D01*
X89979523Y-87130000D01*
X90074761Y-87082380D01*
X90265238Y-87082380D01*
X90360476Y-87130000D01*
X90408095Y-87177619D01*
X90455714Y-87272857D01*
X90455714Y-87320476D01*
X90408095Y-87415714D01*
X90360476Y-87463333D01*
X90265238Y-87510952D01*
X90074761Y-87510952D01*
X89979523Y-87558571D01*
X89931904Y-87606190D01*
X89884285Y-87701428D01*
X89884285Y-87891904D01*
X89931904Y-87987142D01*
X89979523Y-88034761D01*
X90074761Y-88082380D01*
X90265238Y-88082380D01*
X90360476Y-88034761D01*
X90408095Y-87987142D01*
X90455714Y-87891904D01*
X90455714Y-87701428D01*
X90408095Y-87606190D01*
X90360476Y-87558571D01*
X90265238Y-87510952D01*
X82502380Y-87082380D02*
X82597619Y-87082380D01*
X82692857Y-87130000D01*
X82740476Y-87177619D01*
X82788095Y-87272857D01*
X82835714Y-87463333D01*
X82835714Y-87701428D01*
X82788095Y-87891904D01*
X82740476Y-87987142D01*
X82692857Y-88034761D01*
X82597619Y-88082380D01*
X82502380Y-88082380D01*
X82407142Y-88034761D01*
X82359523Y-87987142D01*
X82311904Y-87891904D01*
X82264285Y-87701428D01*
X82264285Y-87463333D01*
X82311904Y-87272857D01*
X82359523Y-87177619D01*
X82407142Y-87130000D01*
X82502380Y-87082380D01*
X135525238Y-71048571D02*
X135668095Y-71096190D01*
X135715714Y-71143809D01*
X135763333Y-71239047D01*
X135763333Y-71381904D01*
X135715714Y-71477142D01*
X135668095Y-71524761D01*
X135572857Y-71572380D01*
X135191904Y-71572380D01*
X135191904Y-70572380D01*
X135525238Y-70572380D01*
X135620476Y-70620000D01*
X135668095Y-70667619D01*
X135715714Y-70762857D01*
X135715714Y-70858095D01*
X135668095Y-70953333D01*
X135620476Y-71000952D01*
X135525238Y-71048571D01*
X135191904Y-71048571D01*
X136620476Y-71572380D02*
X136620476Y-71048571D01*
X136572857Y-70953333D01*
X136477619Y-70905714D01*
X136287142Y-70905714D01*
X136191904Y-70953333D01*
X136620476Y-71524761D02*
X136525238Y-71572380D01*
X136287142Y-71572380D01*
X136191904Y-71524761D01*
X136144285Y-71429523D01*
X136144285Y-71334285D01*
X136191904Y-71239047D01*
X136287142Y-71191428D01*
X136525238Y-71191428D01*
X136620476Y-71143809D01*
X137525238Y-71524761D02*
X137430000Y-71572380D01*
X137239523Y-71572380D01*
X137144285Y-71524761D01*
X137096666Y-71477142D01*
X137049047Y-71381904D01*
X137049047Y-71096190D01*
X137096666Y-71000952D01*
X137144285Y-70953333D01*
X137239523Y-70905714D01*
X137430000Y-70905714D01*
X137525238Y-70953333D01*
X137953809Y-71572380D02*
X137953809Y-70572380D01*
X138049047Y-71191428D02*
X138334761Y-71572380D01*
X138334761Y-70905714D02*
X137953809Y-71286666D01*
X138906190Y-71572380D02*
X138810952Y-71524761D01*
X138763333Y-71429523D01*
X138763333Y-70572380D01*
X139287142Y-71572380D02*
X139287142Y-70905714D01*
X139287142Y-70572380D02*
X139239523Y-70620000D01*
X139287142Y-70667619D01*
X139334761Y-70620000D01*
X139287142Y-70572380D01*
X139287142Y-70667619D01*
X140191904Y-70905714D02*
X140191904Y-71715238D01*
X140144285Y-71810476D01*
X140096666Y-71858095D01*
X140001428Y-71905714D01*
X139858571Y-71905714D01*
X139763333Y-71858095D01*
X140191904Y-71524761D02*
X140096666Y-71572380D01*
X139906190Y-71572380D01*
X139810952Y-71524761D01*
X139763333Y-71477142D01*
X139715714Y-71381904D01*
X139715714Y-71096190D01*
X139763333Y-71000952D01*
X139810952Y-70953333D01*
X139906190Y-70905714D01*
X140096666Y-70905714D01*
X140191904Y-70953333D01*
X140668095Y-71572380D02*
X140668095Y-70572380D01*
X141096666Y-71572380D02*
X141096666Y-71048571D01*
X141049047Y-70953333D01*
X140953809Y-70905714D01*
X140810952Y-70905714D01*
X140715714Y-70953333D01*
X140668095Y-71000952D01*
X141430000Y-70905714D02*
X141810952Y-70905714D01*
X141572857Y-70572380D02*
X141572857Y-71429523D01*
X141620476Y-71524761D01*
X141715714Y-71572380D01*
X141810952Y-71572380D01*
X134239047Y-86431428D02*
X135000952Y-86431428D01*
X136779047Y-86431428D02*
X137540952Y-86431428D01*
X137160000Y-86812380D02*
X137160000Y-86050476D01*
X129159047Y-86431428D02*
X129920952Y-86431428D01*
X129540000Y-86812380D02*
X129540000Y-86050476D01*
X126619047Y-86431428D02*
X127380952Y-86431428D01*
X121539047Y-86431428D02*
X122300952Y-86431428D01*
X121920000Y-86812380D02*
X121920000Y-86050476D01*
X118999047Y-86431428D02*
X119760952Y-86431428D01*
X113919047Y-86431428D02*
X114680952Y-86431428D01*
X114300000Y-86812380D02*
X114300000Y-86050476D01*
X111379047Y-86431428D02*
X112140952Y-86431428D01*
X106299047Y-86431428D02*
X107060952Y-86431428D01*
X106680000Y-86812380D02*
X106680000Y-86050476D01*
X103759047Y-86431428D02*
X104520952Y-86431428D01*
X98679047Y-86431428D02*
X99440952Y-86431428D01*
X99060000Y-86812380D02*
X99060000Y-86050476D01*
X96139047Y-86431428D02*
X96900952Y-86431428D01*
X88519047Y-86431428D02*
X89280952Y-86431428D01*
X91059047Y-86431428D02*
X91820952Y-86431428D01*
X91440000Y-86812380D02*
X91440000Y-86050476D01*
X83439047Y-86431428D02*
X84200952Y-86431428D01*
X83820000Y-86812380D02*
X83820000Y-86050476D01*
X80899047Y-86431428D02*
X81660952Y-86431428D01*
X132969047Y-72461428D02*
X133730952Y-72461428D01*
X125349047Y-72461428D02*
X126110952Y-72461428D01*
X118999047Y-72461428D02*
X119760952Y-72461428D01*
X132969047Y-69921428D02*
X133730952Y-69921428D01*
X133350000Y-70302380D02*
X133350000Y-69540476D01*
X125349047Y-69921428D02*
X126110952Y-69921428D01*
X125730000Y-70302380D02*
X125730000Y-69540476D01*
X118999047Y-69921428D02*
X119760952Y-69921428D01*
X119380000Y-70302380D02*
X119380000Y-69540476D01*
D11*
X134950000Y-44390000D02*
X136280000Y-44390000D01*
X134950000Y-45720000D02*
X134950000Y-44390000D01*
X134950000Y-46990000D02*
X137610000Y-46990000D01*
X137610000Y-46990000D02*
X137610000Y-64830000D01*
X134950000Y-46990000D02*
X134950000Y-64830000D01*
X134950000Y-64830000D02*
X137610000Y-64830000D01*
X130300000Y-44390000D02*
X131630000Y-44390000D01*
X130300000Y-45720000D02*
X130300000Y-44390000D01*
X130300000Y-46990000D02*
X132960000Y-46990000D01*
X132960000Y-46990000D02*
X132960000Y-64830000D01*
X130300000Y-46990000D02*
X130300000Y-64830000D01*
X130300000Y-64830000D02*
X132960000Y-64830000D01*
X125650000Y-44390000D02*
X126980000Y-44390000D01*
X125650000Y-45720000D02*
X125650000Y-44390000D01*
X125650000Y-46990000D02*
X128310000Y-46990000D01*
X128310000Y-46990000D02*
X128310000Y-64830000D01*
X125650000Y-46990000D02*
X125650000Y-64830000D01*
X125650000Y-64830000D02*
X128310000Y-64830000D01*
X121000000Y-44390000D02*
X122330000Y-44390000D01*
X121000000Y-45720000D02*
X121000000Y-44390000D01*
X121000000Y-46990000D02*
X123660000Y-46990000D01*
X123660000Y-46990000D02*
X123660000Y-64830000D01*
X121000000Y-46990000D02*
X121000000Y-64830000D01*
X121000000Y-64830000D02*
X123660000Y-64830000D01*
X116350000Y-44390000D02*
X117680000Y-44390000D01*
X116350000Y-45720000D02*
X116350000Y-44390000D01*
X116350000Y-46990000D02*
X119010000Y-46990000D01*
X119010000Y-46990000D02*
X119010000Y-64830000D01*
X116350000Y-46990000D02*
X116350000Y-64830000D01*
X116350000Y-64830000D02*
X119010000Y-64830000D01*
X111700000Y-44390000D02*
X113030000Y-44390000D01*
X111700000Y-45720000D02*
X111700000Y-44390000D01*
X111700000Y-46990000D02*
X114360000Y-46990000D01*
X114360000Y-46990000D02*
X114360000Y-64830000D01*
X111700000Y-46990000D02*
X111700000Y-64830000D01*
X111700000Y-64830000D02*
X114360000Y-64830000D01*
X54550000Y-68520000D02*
X55880000Y-68520000D01*
X54550000Y-69850000D02*
X54550000Y-68520000D01*
X54550000Y-71120000D02*
X57210000Y-71120000D01*
X57210000Y-71120000D02*
X57210000Y-76260000D01*
X54550000Y-71120000D02*
X54550000Y-76260000D01*
X54550000Y-76260000D02*
X57210000Y-76260000D01*
X57090000Y-82610000D02*
X57090000Y-81280000D01*
X58420000Y-82610000D02*
X57090000Y-82610000D01*
X59690000Y-82610000D02*
X59690000Y-79950000D01*
X59690000Y-79950000D02*
X67370000Y-79950000D01*
X59690000Y-82610000D02*
X67370000Y-82610000D01*
X67370000Y-82610000D02*
X67370000Y-79950000D01*
X71060000Y-82610000D02*
X71060000Y-81280000D01*
X72390000Y-82610000D02*
X71060000Y-82610000D01*
X73660000Y-82610000D02*
X73660000Y-79950000D01*
X73660000Y-79950000D02*
X76260000Y-79950000D01*
X73660000Y-82610000D02*
X76260000Y-82610000D01*
X76260000Y-82610000D02*
X76260000Y-79950000D01*
X138880000Y-81279538D02*
G75*
G02X133330000Y-82824830I-2990000J-462D01*
G01*
X138880000Y-81280462D02*
G75*
G03X133330000Y-79735170I-2990000J462D01*
G01*
X138390000Y-81280000D02*
G75*
G03X138390000Y-81280000I-2500000J0D01*
G01*
X133330000Y-79735000D02*
X133330000Y-82825000D01*
X108400000Y-81279538D02*
G75*
G02X102850000Y-82824830I-2990000J-462D01*
G01*
X108400000Y-81280462D02*
G75*
G03X102850000Y-79735170I-2990000J462D01*
G01*
X107910000Y-81280000D02*
G75*
G03X107910000Y-81280000I-2500000J0D01*
G01*
X102850000Y-79735000D02*
X102850000Y-82825000D01*
X131260000Y-81279538D02*
G75*
G02X125710000Y-82824830I-2990000J-462D01*
G01*
X131260000Y-81280462D02*
G75*
G03X125710000Y-79735170I-2990000J462D01*
G01*
X130770000Y-81280000D02*
G75*
G03X130770000Y-81280000I-2500000J0D01*
G01*
X125710000Y-79735000D02*
X125710000Y-82825000D01*
X100780000Y-81279538D02*
G75*
G02X95230000Y-82824830I-2990000J-462D01*
G01*
X100780000Y-81280462D02*
G75*
G03X95230000Y-79735170I-2990000J462D01*
G01*
X100290000Y-81280000D02*
G75*
G03X100290000Y-81280000I-2500000J0D01*
G01*
X95230000Y-79735000D02*
X95230000Y-82825000D01*
X123640000Y-81279538D02*
G75*
G02X118090000Y-82824830I-2990000J-462D01*
G01*
X123640000Y-81280462D02*
G75*
G03X118090000Y-79735170I-2990000J462D01*
G01*
X123150000Y-81280000D02*
G75*
G03X123150000Y-81280000I-2500000J0D01*
G01*
X118090000Y-79735000D02*
X118090000Y-82825000D01*
X93160000Y-81279538D02*
G75*
G02X87610000Y-82824830I-2990000J-462D01*
G01*
X93160000Y-81280462D02*
G75*
G03X87610000Y-79735170I-2990000J462D01*
G01*
X92670000Y-81280000D02*
G75*
G03X92670000Y-81280000I-2500000J0D01*
G01*
X87610000Y-79735000D02*
X87610000Y-82825000D01*
X116020000Y-81279538D02*
G75*
G02X110470000Y-82824830I-2990000J-462D01*
G01*
X116020000Y-81280462D02*
G75*
G03X110470000Y-79735170I-2990000J462D01*
G01*
X115530000Y-81280000D02*
G75*
G03X115530000Y-81280000I-2500000J0D01*
G01*
X110470000Y-79735000D02*
X110470000Y-82825000D01*
X85540000Y-81279538D02*
G75*
G02X79990000Y-82824830I-2990000J-462D01*
G01*
X85540000Y-81280462D02*
G75*
G03X79990000Y-79735170I-2990000J462D01*
G01*
X85050000Y-81280000D02*
G75*
G03X85050000Y-81280000I-2500000J0D01*
G01*
X79990000Y-79735000D02*
X79990000Y-82825000D01*
X105470000Y-71060000D02*
X105470000Y-72390000D01*
X104140000Y-71060000D02*
X105470000Y-71060000D01*
X102870000Y-71060000D02*
X102870000Y-73720000D01*
X102870000Y-73720000D02*
X100270000Y-73720000D01*
X102870000Y-71060000D02*
X100270000Y-71060000D01*
X100270000Y-71060000D02*
X100270000Y-73720000D01*
X105470000Y-67250000D02*
X105470000Y-68580000D01*
X104140000Y-67250000D02*
X105470000Y-67250000D01*
X102870000Y-67250000D02*
X102870000Y-69910000D01*
X102870000Y-69910000D02*
X100270000Y-69910000D01*
X102870000Y-67250000D02*
X100270000Y-67250000D01*
X100270000Y-67250000D02*
X100270000Y-69910000D01*
X105470000Y-63440000D02*
X105470000Y-64770000D01*
X104140000Y-63440000D02*
X105470000Y-63440000D01*
X102870000Y-63440000D02*
X102870000Y-66100000D01*
X102870000Y-66100000D02*
X100270000Y-66100000D01*
X102870000Y-63440000D02*
X100270000Y-63440000D01*
X100270000Y-63440000D02*
X100270000Y-66100000D01*
X105470000Y-59630000D02*
X105470000Y-60960000D01*
X104140000Y-59630000D02*
X105470000Y-59630000D01*
X102870000Y-59630000D02*
X102870000Y-62290000D01*
X102870000Y-62290000D02*
X100270000Y-62290000D01*
X102870000Y-59630000D02*
X100270000Y-59630000D01*
X100270000Y-59630000D02*
X100270000Y-62290000D01*
X105470000Y-55820000D02*
X105470000Y-57150000D01*
X104140000Y-55820000D02*
X105470000Y-55820000D01*
X102870000Y-55820000D02*
X102870000Y-58480000D01*
X102870000Y-58480000D02*
X100270000Y-58480000D01*
X102870000Y-55820000D02*
X100270000Y-55820000D01*
X100270000Y-55820000D02*
X100270000Y-58480000D01*
X105470000Y-52010000D02*
X105470000Y-53340000D01*
X104140000Y-52010000D02*
X105470000Y-52010000D01*
X102870000Y-52010000D02*
X102870000Y-54670000D01*
X102870000Y-54670000D02*
X100270000Y-54670000D01*
X102870000Y-52010000D02*
X100270000Y-52010000D01*
X100270000Y-52010000D02*
X100270000Y-54670000D01*
X105470000Y-48200000D02*
X105470000Y-49530000D01*
X104140000Y-48200000D02*
X105470000Y-48200000D01*
X102870000Y-48200000D02*
X102870000Y-50860000D01*
X102870000Y-50860000D02*
X100270000Y-50860000D01*
X102870000Y-48200000D02*
X100270000Y-48200000D01*
X100270000Y-48200000D02*
X100270000Y-50860000D01*
X105470000Y-44390000D02*
X105470000Y-45720000D01*
X104140000Y-44390000D02*
X105470000Y-44390000D01*
X102870000Y-44390000D02*
X102870000Y-47050000D01*
X102870000Y-47050000D02*
X100270000Y-47050000D01*
X102870000Y-44390000D02*
X100270000Y-44390000D01*
X100270000Y-44390000D02*
X100270000Y-47050000D01*
X95268449Y-73557366D02*
G75*
G03X95208847Y-71290000I1251551J1167366D01*
G01*
X95268449Y-69747366D02*
G75*
G03X95208847Y-67480000I1251551J1167366D01*
G01*
X95268449Y-65937366D02*
G75*
G03X95208847Y-63670000I1251551J1167366D01*
G01*
X95268449Y-62127366D02*
G75*
G03X95208847Y-59860000I1251551J1167366D01*
G01*
X95268449Y-58317366D02*
G75*
G03X95208847Y-56050000I1251551J1167366D01*
G01*
X95268449Y-54507366D02*
G75*
G03X95208847Y-52240000I1251551J1167366D01*
G01*
X95268449Y-50697366D02*
G75*
G03X95208847Y-48430000I1251551J1167366D01*
G01*
X95268449Y-46887366D02*
G75*
G03X95208847Y-44620000I1251551J1167366D01*
G01*
X90230000Y-71060000D02*
X90230000Y-72390000D01*
X88900000Y-71060000D02*
X90230000Y-71060000D01*
X87630000Y-71060000D02*
X87630000Y-73720000D01*
X87630000Y-73720000D02*
X85030000Y-73720000D01*
X87630000Y-71060000D02*
X85030000Y-71060000D01*
X85030000Y-71060000D02*
X85030000Y-73720000D01*
X90230000Y-67250000D02*
X90230000Y-68580000D01*
X88900000Y-67250000D02*
X90230000Y-67250000D01*
X87630000Y-67250000D02*
X87630000Y-69910000D01*
X87630000Y-69910000D02*
X85030000Y-69910000D01*
X87630000Y-67250000D02*
X85030000Y-67250000D01*
X85030000Y-67250000D02*
X85030000Y-69910000D01*
X90230000Y-63440000D02*
X90230000Y-64770000D01*
X88900000Y-63440000D02*
X90230000Y-63440000D01*
X87630000Y-63440000D02*
X87630000Y-66100000D01*
X87630000Y-66100000D02*
X85030000Y-66100000D01*
X87630000Y-63440000D02*
X85030000Y-63440000D01*
X85030000Y-63440000D02*
X85030000Y-66100000D01*
X90230000Y-59630000D02*
X90230000Y-60960000D01*
X88900000Y-59630000D02*
X90230000Y-59630000D01*
X87630000Y-59630000D02*
X87630000Y-62290000D01*
X87630000Y-62290000D02*
X85030000Y-62290000D01*
X87630000Y-59630000D02*
X85030000Y-59630000D01*
X85030000Y-59630000D02*
X85030000Y-62290000D01*
X90230000Y-55820000D02*
X90230000Y-57150000D01*
X88900000Y-55820000D02*
X90230000Y-55820000D01*
X87630000Y-55820000D02*
X87630000Y-58480000D01*
X87630000Y-58480000D02*
X85030000Y-58480000D01*
X87630000Y-55820000D02*
X85030000Y-55820000D01*
X85030000Y-55820000D02*
X85030000Y-58480000D01*
X90230000Y-52010000D02*
X90230000Y-53340000D01*
X88900000Y-52010000D02*
X90230000Y-52010000D01*
X87630000Y-52010000D02*
X87630000Y-54670000D01*
X87630000Y-54670000D02*
X85030000Y-54670000D01*
X87630000Y-52010000D02*
X85030000Y-52010000D01*
X85030000Y-52010000D02*
X85030000Y-54670000D01*
X90230000Y-48200000D02*
X90230000Y-49530000D01*
X88900000Y-48200000D02*
X90230000Y-48200000D01*
X87630000Y-48200000D02*
X87630000Y-50860000D01*
X87630000Y-50860000D02*
X85030000Y-50860000D01*
X87630000Y-48200000D02*
X85030000Y-48200000D01*
X85030000Y-48200000D02*
X85030000Y-50860000D01*
X90230000Y-44390000D02*
X90230000Y-45720000D01*
X88900000Y-44390000D02*
X90230000Y-44390000D01*
X87630000Y-44390000D02*
X87630000Y-47050000D01*
X87630000Y-47050000D02*
X85030000Y-47050000D01*
X87630000Y-44390000D02*
X85030000Y-44390000D01*
X85030000Y-44390000D02*
X85030000Y-47050000D01*
X80028449Y-73557366D02*
G75*
G03X79968847Y-71290000I1251551J1167366D01*
G01*
X80028449Y-69747366D02*
G75*
G03X79968847Y-67480000I1251551J1167366D01*
G01*
X80028449Y-65937366D02*
G75*
G03X79968847Y-63670000I1251551J1167366D01*
G01*
X80028449Y-62127366D02*
G75*
G03X79968847Y-59860000I1251551J1167366D01*
G01*
X80028449Y-58317366D02*
G75*
G03X79968847Y-56050000I1251551J1167366D01*
G01*
X80028449Y-54507366D02*
G75*
G03X79968847Y-52240000I1251551J1167366D01*
G01*
X80028449Y-50697366D02*
G75*
G03X79968847Y-48430000I1251551J1167366D01*
G01*
X80028449Y-46887366D02*
G75*
G03X79968847Y-44620000I1251551J1167366D01*
G01*
X130870000Y-73720000D02*
X129540000Y-73720000D01*
X130870000Y-72390000D02*
X130870000Y-73720000D01*
X130870000Y-71120000D02*
X128210000Y-71120000D01*
X128210000Y-71120000D02*
X128210000Y-68520000D01*
X130870000Y-71120000D02*
X130870000Y-68520000D01*
X130870000Y-68520000D02*
X128210000Y-68520000D01*
X124520000Y-73720000D02*
X123190000Y-73720000D01*
X124520000Y-72390000D02*
X124520000Y-73720000D01*
X124520000Y-71120000D02*
X121860000Y-71120000D01*
X121860000Y-71120000D02*
X121860000Y-68520000D01*
X124520000Y-71120000D02*
X124520000Y-68520000D01*
X124520000Y-68520000D02*
X121860000Y-68520000D01*
X54550000Y-45660000D02*
X55880000Y-45660000D01*
X54550000Y-46990000D02*
X54550000Y-45660000D01*
X54550000Y-48260000D02*
X57210000Y-48260000D01*
X57210000Y-48260000D02*
X57210000Y-66100000D01*
X54550000Y-48260000D02*
X54550000Y-66100000D01*
X54550000Y-66100000D02*
X57210000Y-66100000D01*
X74990000Y-71060000D02*
X74990000Y-72390000D01*
X73660000Y-71060000D02*
X74990000Y-71060000D01*
X72390000Y-71060000D02*
X72390000Y-73720000D01*
X72390000Y-73720000D02*
X69790000Y-73720000D01*
X72390000Y-71060000D02*
X69790000Y-71060000D01*
X69790000Y-71060000D02*
X69790000Y-73720000D01*
X74990000Y-67250000D02*
X74990000Y-68580000D01*
X73660000Y-67250000D02*
X74990000Y-67250000D01*
X72390000Y-67250000D02*
X72390000Y-69910000D01*
X72390000Y-69910000D02*
X69790000Y-69910000D01*
X72390000Y-67250000D02*
X69790000Y-67250000D01*
X69790000Y-67250000D02*
X69790000Y-69910000D01*
X74990000Y-63440000D02*
X74990000Y-64770000D01*
X73660000Y-63440000D02*
X74990000Y-63440000D01*
X72390000Y-63440000D02*
X72390000Y-66100000D01*
X72390000Y-66100000D02*
X69790000Y-66100000D01*
X72390000Y-63440000D02*
X69790000Y-63440000D01*
X69790000Y-63440000D02*
X69790000Y-66100000D01*
X74990000Y-59630000D02*
X74990000Y-60960000D01*
X73660000Y-59630000D02*
X74990000Y-59630000D01*
X72390000Y-59630000D02*
X72390000Y-62290000D01*
X72390000Y-62290000D02*
X69790000Y-62290000D01*
X72390000Y-59630000D02*
X69790000Y-59630000D01*
X69790000Y-59630000D02*
X69790000Y-62290000D01*
X74990000Y-55820000D02*
X74990000Y-57150000D01*
X73660000Y-55820000D02*
X74990000Y-55820000D01*
X72390000Y-55820000D02*
X72390000Y-58480000D01*
X72390000Y-58480000D02*
X69790000Y-58480000D01*
X72390000Y-55820000D02*
X69790000Y-55820000D01*
X69790000Y-55820000D02*
X69790000Y-58480000D01*
X74990000Y-52010000D02*
X74990000Y-53340000D01*
X73660000Y-52010000D02*
X74990000Y-52010000D01*
X72390000Y-52010000D02*
X72390000Y-54670000D01*
X72390000Y-54670000D02*
X69790000Y-54670000D01*
X72390000Y-52010000D02*
X69790000Y-52010000D01*
X69790000Y-52010000D02*
X69790000Y-54670000D01*
X74990000Y-48200000D02*
X74990000Y-49530000D01*
X73660000Y-48200000D02*
X74990000Y-48200000D01*
X72390000Y-48200000D02*
X72390000Y-50860000D01*
X72390000Y-50860000D02*
X69790000Y-50860000D01*
X72390000Y-48200000D02*
X69790000Y-48200000D01*
X69790000Y-48200000D02*
X69790000Y-50860000D01*
X74990000Y-44390000D02*
X74990000Y-45720000D01*
X73660000Y-44390000D02*
X74990000Y-44390000D01*
X72390000Y-44390000D02*
X72390000Y-47050000D01*
X72390000Y-47050000D02*
X69790000Y-47050000D01*
X72390000Y-44390000D02*
X69790000Y-44390000D01*
X69790000Y-44390000D02*
X69790000Y-47050000D01*
X64788449Y-73557366D02*
G75*
G03X64728847Y-71290000I1251551J1167366D01*
G01*
X64788449Y-69747366D02*
G75*
G03X64728847Y-67480000I1251551J1167366D01*
G01*
X64788449Y-65937366D02*
G75*
G03X64728847Y-63670000I1251551J1167366D01*
G01*
X64788449Y-62127366D02*
G75*
G03X64728847Y-59860000I1251551J1167366D01*
G01*
X64788449Y-58317366D02*
G75*
G03X64728847Y-56050000I1251551J1167366D01*
G01*
X64788449Y-54507366D02*
G75*
G03X64728847Y-52240000I1251551J1167366D01*
G01*
X64788449Y-50697366D02*
G75*
G03X64728847Y-48430000I1251551J1167366D01*
G01*
X64788449Y-46887366D02*
G75*
G03X64728847Y-44620000I1251551J1167366D01*
G01*
D10*
X135470476Y-42842380D02*
X135470476Y-43556666D01*
X135422857Y-43699523D01*
X135327619Y-43794761D01*
X135184761Y-43842380D01*
X135089523Y-43842380D01*
X135851428Y-42842380D02*
X136470476Y-42842380D01*
X136137142Y-43223333D01*
X136280000Y-43223333D01*
X136375238Y-43270952D01*
X136422857Y-43318571D01*
X136470476Y-43413809D01*
X136470476Y-43651904D01*
X136422857Y-43747142D01*
X136375238Y-43794761D01*
X136280000Y-43842380D01*
X135994285Y-43842380D01*
X135899047Y-43794761D01*
X135851428Y-43747142D01*
X137327619Y-42842380D02*
X137137142Y-42842380D01*
X137041904Y-42890000D01*
X136994285Y-42937619D01*
X136899047Y-43080476D01*
X136851428Y-43270952D01*
X136851428Y-43651904D01*
X136899047Y-43747142D01*
X136946666Y-43794761D01*
X137041904Y-43842380D01*
X137232380Y-43842380D01*
X137327619Y-43794761D01*
X137375238Y-43747142D01*
X137422857Y-43651904D01*
X137422857Y-43413809D01*
X137375238Y-43318571D01*
X137327619Y-43270952D01*
X137232380Y-43223333D01*
X137041904Y-43223333D01*
X136946666Y-43270952D01*
X136899047Y-43318571D01*
X136851428Y-43413809D01*
X130820476Y-42842380D02*
X130820476Y-43556666D01*
X130772857Y-43699523D01*
X130677619Y-43794761D01*
X130534761Y-43842380D01*
X130439523Y-43842380D01*
X131201428Y-42842380D02*
X131820476Y-42842380D01*
X131487142Y-43223333D01*
X131630000Y-43223333D01*
X131725238Y-43270952D01*
X131772857Y-43318571D01*
X131820476Y-43413809D01*
X131820476Y-43651904D01*
X131772857Y-43747142D01*
X131725238Y-43794761D01*
X131630000Y-43842380D01*
X131344285Y-43842380D01*
X131249047Y-43794761D01*
X131201428Y-43747142D01*
X132725238Y-42842380D02*
X132249047Y-42842380D01*
X132201428Y-43318571D01*
X132249047Y-43270952D01*
X132344285Y-43223333D01*
X132582380Y-43223333D01*
X132677619Y-43270952D01*
X132725238Y-43318571D01*
X132772857Y-43413809D01*
X132772857Y-43651904D01*
X132725238Y-43747142D01*
X132677619Y-43794761D01*
X132582380Y-43842380D01*
X132344285Y-43842380D01*
X132249047Y-43794761D01*
X132201428Y-43747142D01*
X126170476Y-42842380D02*
X126170476Y-43556666D01*
X126122857Y-43699523D01*
X126027619Y-43794761D01*
X125884761Y-43842380D01*
X125789523Y-43842380D01*
X126551428Y-42842380D02*
X127170476Y-42842380D01*
X126837142Y-43223333D01*
X126980000Y-43223333D01*
X127075238Y-43270952D01*
X127122857Y-43318571D01*
X127170476Y-43413809D01*
X127170476Y-43651904D01*
X127122857Y-43747142D01*
X127075238Y-43794761D01*
X126980000Y-43842380D01*
X126694285Y-43842380D01*
X126599047Y-43794761D01*
X126551428Y-43747142D01*
X128027619Y-43175714D02*
X128027619Y-43842380D01*
X127789523Y-42794761D02*
X127551428Y-43509047D01*
X128170476Y-43509047D01*
X121520476Y-42842380D02*
X121520476Y-43556666D01*
X121472857Y-43699523D01*
X121377619Y-43794761D01*
X121234761Y-43842380D01*
X121139523Y-43842380D01*
X121901428Y-42842380D02*
X122520476Y-42842380D01*
X122187142Y-43223333D01*
X122330000Y-43223333D01*
X122425238Y-43270952D01*
X122472857Y-43318571D01*
X122520476Y-43413809D01*
X122520476Y-43651904D01*
X122472857Y-43747142D01*
X122425238Y-43794761D01*
X122330000Y-43842380D01*
X122044285Y-43842380D01*
X121949047Y-43794761D01*
X121901428Y-43747142D01*
X122901428Y-42937619D02*
X122949047Y-42890000D01*
X123044285Y-42842380D01*
X123282380Y-42842380D01*
X123377619Y-42890000D01*
X123425238Y-42937619D01*
X123472857Y-43032857D01*
X123472857Y-43128095D01*
X123425238Y-43270952D01*
X122853809Y-43842380D01*
X123472857Y-43842380D01*
X116870476Y-42842380D02*
X116870476Y-43556666D01*
X116822857Y-43699523D01*
X116727619Y-43794761D01*
X116584761Y-43842380D01*
X116489523Y-43842380D01*
X117251428Y-42842380D02*
X117870476Y-42842380D01*
X117537142Y-43223333D01*
X117680000Y-43223333D01*
X117775238Y-43270952D01*
X117822857Y-43318571D01*
X117870476Y-43413809D01*
X117870476Y-43651904D01*
X117822857Y-43747142D01*
X117775238Y-43794761D01*
X117680000Y-43842380D01*
X117394285Y-43842380D01*
X117299047Y-43794761D01*
X117251428Y-43747142D01*
X118822857Y-43842380D02*
X118251428Y-43842380D01*
X118537142Y-43842380D02*
X118537142Y-42842380D01*
X118441904Y-42985238D01*
X118346666Y-43080476D01*
X118251428Y-43128095D01*
X112220476Y-42842380D02*
X112220476Y-43556666D01*
X112172857Y-43699523D01*
X112077619Y-43794761D01*
X111934761Y-43842380D01*
X111839523Y-43842380D01*
X112649047Y-42937619D02*
X112696666Y-42890000D01*
X112791904Y-42842380D01*
X113030000Y-42842380D01*
X113125238Y-42890000D01*
X113172857Y-42937619D01*
X113220476Y-43032857D01*
X113220476Y-43128095D01*
X113172857Y-43270952D01*
X112601428Y-43842380D01*
X113220476Y-43842380D01*
X113696666Y-43842380D02*
X113887142Y-43842380D01*
X113982380Y-43794761D01*
X114030000Y-43747142D01*
X114125238Y-43604285D01*
X114172857Y-43413809D01*
X114172857Y-43032857D01*
X114125238Y-42937619D01*
X114077619Y-42890000D01*
X113982380Y-42842380D01*
X113791904Y-42842380D01*
X113696666Y-42890000D01*
X113649047Y-42937619D01*
X113601428Y-43032857D01*
X113601428Y-43270952D01*
X113649047Y-43366190D01*
X113696666Y-43413809D01*
X113791904Y-43461428D01*
X113982380Y-43461428D01*
X114077619Y-43413809D01*
X114125238Y-43366190D01*
X114172857Y-43270952D01*
X55070476Y-66762380D02*
X55070476Y-67476666D01*
X55022857Y-67619523D01*
X54927619Y-67714761D01*
X54784761Y-67762380D01*
X54689523Y-67762380D01*
X55499047Y-66857619D02*
X55546666Y-66810000D01*
X55641904Y-66762380D01*
X55880000Y-66762380D01*
X55975238Y-66810000D01*
X56022857Y-66857619D01*
X56070476Y-66952857D01*
X56070476Y-67048095D01*
X56022857Y-67190952D01*
X55451428Y-67762380D01*
X56070476Y-67762380D01*
X56975238Y-66762380D02*
X56499047Y-66762380D01*
X56451428Y-67238571D01*
X56499047Y-67190952D01*
X56594285Y-67143333D01*
X56832380Y-67143333D01*
X56927619Y-67190952D01*
X56975238Y-67238571D01*
X57022857Y-67333809D01*
X57022857Y-67571904D01*
X56975238Y-67667142D01*
X56927619Y-67714761D01*
X56832380Y-67762380D01*
X56594285Y-67762380D01*
X56499047Y-67714761D01*
X56451428Y-67667142D01*
X55542380Y-82089523D02*
X56256666Y-82089523D01*
X56399523Y-82137142D01*
X56494761Y-82232380D01*
X56542380Y-82375238D01*
X56542380Y-82470476D01*
X55542380Y-81708571D02*
X55542380Y-81089523D01*
X55923333Y-81422857D01*
X55923333Y-81280000D01*
X55970952Y-81184761D01*
X56018571Y-81137142D01*
X56113809Y-81089523D01*
X56351904Y-81089523D01*
X56447142Y-81137142D01*
X56494761Y-81184761D01*
X56542380Y-81280000D01*
X56542380Y-81565714D01*
X56494761Y-81660952D01*
X56447142Y-81708571D01*
X55542380Y-80756190D02*
X55542380Y-80137142D01*
X55923333Y-80470476D01*
X55923333Y-80327619D01*
X55970952Y-80232380D01*
X56018571Y-80184761D01*
X56113809Y-80137142D01*
X56351904Y-80137142D01*
X56447142Y-80184761D01*
X56494761Y-80232380D01*
X56542380Y-80327619D01*
X56542380Y-80613333D01*
X56494761Y-80708571D01*
X56447142Y-80756190D01*
X69512380Y-82089523D02*
X70226666Y-82089523D01*
X70369523Y-82137142D01*
X70464761Y-82232380D01*
X70512380Y-82375238D01*
X70512380Y-82470476D01*
X69607619Y-81660952D02*
X69560000Y-81613333D01*
X69512380Y-81518095D01*
X69512380Y-81280000D01*
X69560000Y-81184761D01*
X69607619Y-81137142D01*
X69702857Y-81089523D01*
X69798095Y-81089523D01*
X69940952Y-81137142D01*
X70512380Y-81708571D01*
X70512380Y-81089523D01*
X69512380Y-80756190D02*
X69512380Y-80089523D01*
X70512380Y-80518095D01*
X134675714Y-77772380D02*
X134675714Y-76772380D01*
X134913809Y-76772380D01*
X135056666Y-76820000D01*
X135151904Y-76915238D01*
X135199523Y-77010476D01*
X135247142Y-77200952D01*
X135247142Y-77343809D01*
X135199523Y-77534285D01*
X135151904Y-77629523D01*
X135056666Y-77724761D01*
X134913809Y-77772380D01*
X134675714Y-77772380D01*
X135580476Y-76772380D02*
X136199523Y-76772380D01*
X135866190Y-77153333D01*
X136009047Y-77153333D01*
X136104285Y-77200952D01*
X136151904Y-77248571D01*
X136199523Y-77343809D01*
X136199523Y-77581904D01*
X136151904Y-77677142D01*
X136104285Y-77724761D01*
X136009047Y-77772380D01*
X135723333Y-77772380D01*
X135628095Y-77724761D01*
X135580476Y-77677142D01*
X136580476Y-76867619D02*
X136628095Y-76820000D01*
X136723333Y-76772380D01*
X136961428Y-76772380D01*
X137056666Y-76820000D01*
X137104285Y-76867619D01*
X137151904Y-76962857D01*
X137151904Y-77058095D01*
X137104285Y-77200952D01*
X136532857Y-77772380D01*
X137151904Y-77772380D01*
X104195714Y-77772380D02*
X104195714Y-76772380D01*
X104433809Y-76772380D01*
X104576666Y-76820000D01*
X104671904Y-76915238D01*
X104719523Y-77010476D01*
X104767142Y-77200952D01*
X104767142Y-77343809D01*
X104719523Y-77534285D01*
X104671904Y-77629523D01*
X104576666Y-77724761D01*
X104433809Y-77772380D01*
X104195714Y-77772380D01*
X105100476Y-76772380D02*
X105719523Y-76772380D01*
X105386190Y-77153333D01*
X105529047Y-77153333D01*
X105624285Y-77200952D01*
X105671904Y-77248571D01*
X105719523Y-77343809D01*
X105719523Y-77581904D01*
X105671904Y-77677142D01*
X105624285Y-77724761D01*
X105529047Y-77772380D01*
X105243333Y-77772380D01*
X105148095Y-77724761D01*
X105100476Y-77677142D01*
X106671904Y-77772380D02*
X106100476Y-77772380D01*
X106386190Y-77772380D02*
X106386190Y-76772380D01*
X106290952Y-76915238D01*
X106195714Y-77010476D01*
X106100476Y-77058095D01*
X127055714Y-77772380D02*
X127055714Y-76772380D01*
X127293809Y-76772380D01*
X127436666Y-76820000D01*
X127531904Y-76915238D01*
X127579523Y-77010476D01*
X127627142Y-77200952D01*
X127627142Y-77343809D01*
X127579523Y-77534285D01*
X127531904Y-77629523D01*
X127436666Y-77724761D01*
X127293809Y-77772380D01*
X127055714Y-77772380D01*
X127960476Y-76772380D02*
X128579523Y-76772380D01*
X128246190Y-77153333D01*
X128389047Y-77153333D01*
X128484285Y-77200952D01*
X128531904Y-77248571D01*
X128579523Y-77343809D01*
X128579523Y-77581904D01*
X128531904Y-77677142D01*
X128484285Y-77724761D01*
X128389047Y-77772380D01*
X128103333Y-77772380D01*
X128008095Y-77724761D01*
X127960476Y-77677142D01*
X129198571Y-76772380D02*
X129293809Y-76772380D01*
X129389047Y-76820000D01*
X129436666Y-76867619D01*
X129484285Y-76962857D01*
X129531904Y-77153333D01*
X129531904Y-77391428D01*
X129484285Y-77581904D01*
X129436666Y-77677142D01*
X129389047Y-77724761D01*
X129293809Y-77772380D01*
X129198571Y-77772380D01*
X129103333Y-77724761D01*
X129055714Y-77677142D01*
X129008095Y-77581904D01*
X128960476Y-77391428D01*
X128960476Y-77153333D01*
X129008095Y-76962857D01*
X129055714Y-76867619D01*
X129103333Y-76820000D01*
X129198571Y-76772380D01*
X96575714Y-77772380D02*
X96575714Y-76772380D01*
X96813809Y-76772380D01*
X96956666Y-76820000D01*
X97051904Y-76915238D01*
X97099523Y-77010476D01*
X97147142Y-77200952D01*
X97147142Y-77343809D01*
X97099523Y-77534285D01*
X97051904Y-77629523D01*
X96956666Y-77724761D01*
X96813809Y-77772380D01*
X96575714Y-77772380D01*
X97528095Y-76867619D02*
X97575714Y-76820000D01*
X97670952Y-76772380D01*
X97909047Y-76772380D01*
X98004285Y-76820000D01*
X98051904Y-76867619D01*
X98099523Y-76962857D01*
X98099523Y-77058095D01*
X98051904Y-77200952D01*
X97480476Y-77772380D01*
X98099523Y-77772380D01*
X98575714Y-77772380D02*
X98766190Y-77772380D01*
X98861428Y-77724761D01*
X98909047Y-77677142D01*
X99004285Y-77534285D01*
X99051904Y-77343809D01*
X99051904Y-76962857D01*
X99004285Y-76867619D01*
X98956666Y-76820000D01*
X98861428Y-76772380D01*
X98670952Y-76772380D01*
X98575714Y-76820000D01*
X98528095Y-76867619D01*
X98480476Y-76962857D01*
X98480476Y-77200952D01*
X98528095Y-77296190D01*
X98575714Y-77343809D01*
X98670952Y-77391428D01*
X98861428Y-77391428D01*
X98956666Y-77343809D01*
X99004285Y-77296190D01*
X99051904Y-77200952D01*
X119435714Y-77772380D02*
X119435714Y-76772380D01*
X119673809Y-76772380D01*
X119816666Y-76820000D01*
X119911904Y-76915238D01*
X119959523Y-77010476D01*
X120007142Y-77200952D01*
X120007142Y-77343809D01*
X119959523Y-77534285D01*
X119911904Y-77629523D01*
X119816666Y-77724761D01*
X119673809Y-77772380D01*
X119435714Y-77772380D01*
X120388095Y-76867619D02*
X120435714Y-76820000D01*
X120530952Y-76772380D01*
X120769047Y-76772380D01*
X120864285Y-76820000D01*
X120911904Y-76867619D01*
X120959523Y-76962857D01*
X120959523Y-77058095D01*
X120911904Y-77200952D01*
X120340476Y-77772380D01*
X120959523Y-77772380D01*
X121530952Y-77200952D02*
X121435714Y-77153333D01*
X121388095Y-77105714D01*
X121340476Y-77010476D01*
X121340476Y-76962857D01*
X121388095Y-76867619D01*
X121435714Y-76820000D01*
X121530952Y-76772380D01*
X121721428Y-76772380D01*
X121816666Y-76820000D01*
X121864285Y-76867619D01*
X121911904Y-76962857D01*
X121911904Y-77010476D01*
X121864285Y-77105714D01*
X121816666Y-77153333D01*
X121721428Y-77200952D01*
X121530952Y-77200952D01*
X121435714Y-77248571D01*
X121388095Y-77296190D01*
X121340476Y-77391428D01*
X121340476Y-77581904D01*
X121388095Y-77677142D01*
X121435714Y-77724761D01*
X121530952Y-77772380D01*
X121721428Y-77772380D01*
X121816666Y-77724761D01*
X121864285Y-77677142D01*
X121911904Y-77581904D01*
X121911904Y-77391428D01*
X121864285Y-77296190D01*
X121816666Y-77248571D01*
X121721428Y-77200952D01*
X88955714Y-77772380D02*
X88955714Y-76772380D01*
X89193809Y-76772380D01*
X89336666Y-76820000D01*
X89431904Y-76915238D01*
X89479523Y-77010476D01*
X89527142Y-77200952D01*
X89527142Y-77343809D01*
X89479523Y-77534285D01*
X89431904Y-77629523D01*
X89336666Y-77724761D01*
X89193809Y-77772380D01*
X88955714Y-77772380D01*
X89908095Y-76867619D02*
X89955714Y-76820000D01*
X90050952Y-76772380D01*
X90289047Y-76772380D01*
X90384285Y-76820000D01*
X90431904Y-76867619D01*
X90479523Y-76962857D01*
X90479523Y-77058095D01*
X90431904Y-77200952D01*
X89860476Y-77772380D01*
X90479523Y-77772380D01*
X90812857Y-76772380D02*
X91479523Y-76772380D01*
X91050952Y-77772380D01*
X111815714Y-77772380D02*
X111815714Y-76772380D01*
X112053809Y-76772380D01*
X112196666Y-76820000D01*
X112291904Y-76915238D01*
X112339523Y-77010476D01*
X112387142Y-77200952D01*
X112387142Y-77343809D01*
X112339523Y-77534285D01*
X112291904Y-77629523D01*
X112196666Y-77724761D01*
X112053809Y-77772380D01*
X111815714Y-77772380D01*
X112768095Y-76867619D02*
X112815714Y-76820000D01*
X112910952Y-76772380D01*
X113149047Y-76772380D01*
X113244285Y-76820000D01*
X113291904Y-76867619D01*
X113339523Y-76962857D01*
X113339523Y-77058095D01*
X113291904Y-77200952D01*
X112720476Y-77772380D01*
X113339523Y-77772380D01*
X114196666Y-76772380D02*
X114006190Y-76772380D01*
X113910952Y-76820000D01*
X113863333Y-76867619D01*
X113768095Y-77010476D01*
X113720476Y-77200952D01*
X113720476Y-77581904D01*
X113768095Y-77677142D01*
X113815714Y-77724761D01*
X113910952Y-77772380D01*
X114101428Y-77772380D01*
X114196666Y-77724761D01*
X114244285Y-77677142D01*
X114291904Y-77581904D01*
X114291904Y-77343809D01*
X114244285Y-77248571D01*
X114196666Y-77200952D01*
X114101428Y-77153333D01*
X113910952Y-77153333D01*
X113815714Y-77200952D01*
X113768095Y-77248571D01*
X113720476Y-77343809D01*
X81335714Y-77772380D02*
X81335714Y-76772380D01*
X81573809Y-76772380D01*
X81716666Y-76820000D01*
X81811904Y-76915238D01*
X81859523Y-77010476D01*
X81907142Y-77200952D01*
X81907142Y-77343809D01*
X81859523Y-77534285D01*
X81811904Y-77629523D01*
X81716666Y-77724761D01*
X81573809Y-77772380D01*
X81335714Y-77772380D01*
X82288095Y-76867619D02*
X82335714Y-76820000D01*
X82430952Y-76772380D01*
X82669047Y-76772380D01*
X82764285Y-76820000D01*
X82811904Y-76867619D01*
X82859523Y-76962857D01*
X82859523Y-77058095D01*
X82811904Y-77200952D01*
X82240476Y-77772380D01*
X82859523Y-77772380D01*
X83764285Y-76772380D02*
X83288095Y-76772380D01*
X83240476Y-77248571D01*
X83288095Y-77200952D01*
X83383333Y-77153333D01*
X83621428Y-77153333D01*
X83716666Y-77200952D01*
X83764285Y-77248571D01*
X83811904Y-77343809D01*
X83811904Y-77581904D01*
X83764285Y-77677142D01*
X83716666Y-77724761D01*
X83621428Y-77772380D01*
X83383333Y-77772380D01*
X83288095Y-77724761D01*
X83240476Y-77677142D01*
X105922380Y-73199523D02*
X106636666Y-73199523D01*
X106779523Y-73247142D01*
X106874761Y-73342380D01*
X106922380Y-73485238D01*
X106922380Y-73580476D01*
X106017619Y-72770952D02*
X105970000Y-72723333D01*
X105922380Y-72628095D01*
X105922380Y-72390000D01*
X105970000Y-72294761D01*
X106017619Y-72247142D01*
X106112857Y-72199523D01*
X106208095Y-72199523D01*
X106350952Y-72247142D01*
X106922380Y-72818571D01*
X106922380Y-72199523D01*
X106255714Y-71342380D02*
X106922380Y-71342380D01*
X105874761Y-71580476D02*
X106589047Y-71818571D01*
X106589047Y-71199523D01*
X105922380Y-69389523D02*
X106636666Y-69389523D01*
X106779523Y-69437142D01*
X106874761Y-69532380D01*
X106922380Y-69675238D01*
X106922380Y-69770476D01*
X106017619Y-68960952D02*
X105970000Y-68913333D01*
X105922380Y-68818095D01*
X105922380Y-68580000D01*
X105970000Y-68484761D01*
X106017619Y-68437142D01*
X106112857Y-68389523D01*
X106208095Y-68389523D01*
X106350952Y-68437142D01*
X106922380Y-69008571D01*
X106922380Y-68389523D01*
X105922380Y-68056190D02*
X105922380Y-67437142D01*
X106303333Y-67770476D01*
X106303333Y-67627619D01*
X106350952Y-67532380D01*
X106398571Y-67484761D01*
X106493809Y-67437142D01*
X106731904Y-67437142D01*
X106827142Y-67484761D01*
X106874761Y-67532380D01*
X106922380Y-67627619D01*
X106922380Y-67913333D01*
X106874761Y-68008571D01*
X106827142Y-68056190D01*
X105922380Y-65579523D02*
X106636666Y-65579523D01*
X106779523Y-65627142D01*
X106874761Y-65722380D01*
X106922380Y-65865238D01*
X106922380Y-65960476D01*
X106017619Y-65150952D02*
X105970000Y-65103333D01*
X105922380Y-65008095D01*
X105922380Y-64770000D01*
X105970000Y-64674761D01*
X106017619Y-64627142D01*
X106112857Y-64579523D01*
X106208095Y-64579523D01*
X106350952Y-64627142D01*
X106922380Y-65198571D01*
X106922380Y-64579523D01*
X106017619Y-64198571D02*
X105970000Y-64150952D01*
X105922380Y-64055714D01*
X105922380Y-63817619D01*
X105970000Y-63722380D01*
X106017619Y-63674761D01*
X106112857Y-63627142D01*
X106208095Y-63627142D01*
X106350952Y-63674761D01*
X106922380Y-64246190D01*
X106922380Y-63627142D01*
X105922380Y-61769523D02*
X106636666Y-61769523D01*
X106779523Y-61817142D01*
X106874761Y-61912380D01*
X106922380Y-62055238D01*
X106922380Y-62150476D01*
X106017619Y-61340952D02*
X105970000Y-61293333D01*
X105922380Y-61198095D01*
X105922380Y-60960000D01*
X105970000Y-60864761D01*
X106017619Y-60817142D01*
X106112857Y-60769523D01*
X106208095Y-60769523D01*
X106350952Y-60817142D01*
X106922380Y-61388571D01*
X106922380Y-60769523D01*
X106922380Y-59817142D02*
X106922380Y-60388571D01*
X106922380Y-60102857D02*
X105922380Y-60102857D01*
X106065238Y-60198095D01*
X106160476Y-60293333D01*
X106208095Y-60388571D01*
X105922380Y-57959523D02*
X106636666Y-57959523D01*
X106779523Y-58007142D01*
X106874761Y-58102380D01*
X106922380Y-58245238D01*
X106922380Y-58340476D01*
X106017619Y-57530952D02*
X105970000Y-57483333D01*
X105922380Y-57388095D01*
X105922380Y-57150000D01*
X105970000Y-57054761D01*
X106017619Y-57007142D01*
X106112857Y-56959523D01*
X106208095Y-56959523D01*
X106350952Y-57007142D01*
X106922380Y-57578571D01*
X106922380Y-56959523D01*
X105922380Y-56340476D02*
X105922380Y-56245238D01*
X105970000Y-56150000D01*
X106017619Y-56102380D01*
X106112857Y-56054761D01*
X106303333Y-56007142D01*
X106541428Y-56007142D01*
X106731904Y-56054761D01*
X106827142Y-56102380D01*
X106874761Y-56150000D01*
X106922380Y-56245238D01*
X106922380Y-56340476D01*
X106874761Y-56435714D01*
X106827142Y-56483333D01*
X106731904Y-56530952D01*
X106541428Y-56578571D01*
X106303333Y-56578571D01*
X106112857Y-56530952D01*
X106017619Y-56483333D01*
X105970000Y-56435714D01*
X105922380Y-56340476D01*
X105922380Y-54149523D02*
X106636666Y-54149523D01*
X106779523Y-54197142D01*
X106874761Y-54292380D01*
X106922380Y-54435238D01*
X106922380Y-54530476D01*
X106922380Y-53149523D02*
X106922380Y-53720952D01*
X106922380Y-53435238D02*
X105922380Y-53435238D01*
X106065238Y-53530476D01*
X106160476Y-53625714D01*
X106208095Y-53720952D01*
X106922380Y-52673333D02*
X106922380Y-52482857D01*
X106874761Y-52387619D01*
X106827142Y-52340000D01*
X106684285Y-52244761D01*
X106493809Y-52197142D01*
X106112857Y-52197142D01*
X106017619Y-52244761D01*
X105970000Y-52292380D01*
X105922380Y-52387619D01*
X105922380Y-52578095D01*
X105970000Y-52673333D01*
X106017619Y-52720952D01*
X106112857Y-52768571D01*
X106350952Y-52768571D01*
X106446190Y-52720952D01*
X106493809Y-52673333D01*
X106541428Y-52578095D01*
X106541428Y-52387619D01*
X106493809Y-52292380D01*
X106446190Y-52244761D01*
X106350952Y-52197142D01*
X105922380Y-50339523D02*
X106636666Y-50339523D01*
X106779523Y-50387142D01*
X106874761Y-50482380D01*
X106922380Y-50625238D01*
X106922380Y-50720476D01*
X106922380Y-49339523D02*
X106922380Y-49910952D01*
X106922380Y-49625238D02*
X105922380Y-49625238D01*
X106065238Y-49720476D01*
X106160476Y-49815714D01*
X106208095Y-49910952D01*
X106350952Y-48768095D02*
X106303333Y-48863333D01*
X106255714Y-48910952D01*
X106160476Y-48958571D01*
X106112857Y-48958571D01*
X106017619Y-48910952D01*
X105970000Y-48863333D01*
X105922380Y-48768095D01*
X105922380Y-48577619D01*
X105970000Y-48482380D01*
X106017619Y-48434761D01*
X106112857Y-48387142D01*
X106160476Y-48387142D01*
X106255714Y-48434761D01*
X106303333Y-48482380D01*
X106350952Y-48577619D01*
X106350952Y-48768095D01*
X106398571Y-48863333D01*
X106446190Y-48910952D01*
X106541428Y-48958571D01*
X106731904Y-48958571D01*
X106827142Y-48910952D01*
X106874761Y-48863333D01*
X106922380Y-48768095D01*
X106922380Y-48577619D01*
X106874761Y-48482380D01*
X106827142Y-48434761D01*
X106731904Y-48387142D01*
X106541428Y-48387142D01*
X106446190Y-48434761D01*
X106398571Y-48482380D01*
X106350952Y-48577619D01*
X105922380Y-46529523D02*
X106636666Y-46529523D01*
X106779523Y-46577142D01*
X106874761Y-46672380D01*
X106922380Y-46815238D01*
X106922380Y-46910476D01*
X106922380Y-45529523D02*
X106922380Y-46100952D01*
X106922380Y-45815238D02*
X105922380Y-45815238D01*
X106065238Y-45910476D01*
X106160476Y-46005714D01*
X106208095Y-46100952D01*
X105922380Y-45196190D02*
X105922380Y-44529523D01*
X106922380Y-44958095D01*
X94035714Y-70091745D02*
X94035714Y-69091745D01*
X94273809Y-69091745D01*
X94416666Y-69139365D01*
X94511904Y-69234603D01*
X94559523Y-69329841D01*
X94607142Y-69520317D01*
X94607142Y-69663174D01*
X94559523Y-69853650D01*
X94511904Y-69948888D01*
X94416666Y-70044126D01*
X94273809Y-70091745D01*
X94035714Y-70091745D01*
X94988095Y-69186984D02*
X95035714Y-69139365D01*
X95130952Y-69091745D01*
X95369047Y-69091745D01*
X95464285Y-69139365D01*
X95511904Y-69186984D01*
X95559523Y-69282222D01*
X95559523Y-69377460D01*
X95511904Y-69520317D01*
X94940476Y-70091745D01*
X95559523Y-70091745D01*
X96416666Y-69425079D02*
X96416666Y-70091745D01*
X96178571Y-69044126D02*
X95940476Y-69758412D01*
X96559523Y-69758412D01*
X91641904Y-72556666D02*
X92118095Y-72556666D01*
X91546666Y-72842380D02*
X91880000Y-71842380D01*
X92213333Y-72842380D01*
X94035714Y-66281745D02*
X94035714Y-65281745D01*
X94273809Y-65281745D01*
X94416666Y-65329365D01*
X94511904Y-65424603D01*
X94559523Y-65519841D01*
X94607142Y-65710317D01*
X94607142Y-65853174D01*
X94559523Y-66043650D01*
X94511904Y-66138888D01*
X94416666Y-66234126D01*
X94273809Y-66281745D01*
X94035714Y-66281745D01*
X94988095Y-65376984D02*
X95035714Y-65329365D01*
X95130952Y-65281745D01*
X95369047Y-65281745D01*
X95464285Y-65329365D01*
X95511904Y-65376984D01*
X95559523Y-65472222D01*
X95559523Y-65567460D01*
X95511904Y-65710317D01*
X94940476Y-66281745D01*
X95559523Y-66281745D01*
X95892857Y-65281745D02*
X96511904Y-65281745D01*
X96178571Y-65662698D01*
X96321428Y-65662698D01*
X96416666Y-65710317D01*
X96464285Y-65757936D01*
X96511904Y-65853174D01*
X96511904Y-66091269D01*
X96464285Y-66186507D01*
X96416666Y-66234126D01*
X96321428Y-66281745D01*
X96035714Y-66281745D01*
X95940476Y-66234126D01*
X95892857Y-66186507D01*
X91641904Y-68746666D02*
X92118095Y-68746666D01*
X91546666Y-69032380D02*
X91880000Y-68032380D01*
X92213333Y-69032380D01*
X94035714Y-62471745D02*
X94035714Y-61471745D01*
X94273809Y-61471745D01*
X94416666Y-61519365D01*
X94511904Y-61614603D01*
X94559523Y-61709841D01*
X94607142Y-61900317D01*
X94607142Y-62043174D01*
X94559523Y-62233650D01*
X94511904Y-62328888D01*
X94416666Y-62424126D01*
X94273809Y-62471745D01*
X94035714Y-62471745D01*
X94988095Y-61566984D02*
X95035714Y-61519365D01*
X95130952Y-61471745D01*
X95369047Y-61471745D01*
X95464285Y-61519365D01*
X95511904Y-61566984D01*
X95559523Y-61662222D01*
X95559523Y-61757460D01*
X95511904Y-61900317D01*
X94940476Y-62471745D01*
X95559523Y-62471745D01*
X95940476Y-61566984D02*
X95988095Y-61519365D01*
X96083333Y-61471745D01*
X96321428Y-61471745D01*
X96416666Y-61519365D01*
X96464285Y-61566984D01*
X96511904Y-61662222D01*
X96511904Y-61757460D01*
X96464285Y-61900317D01*
X95892857Y-62471745D01*
X96511904Y-62471745D01*
X91641904Y-64936666D02*
X92118095Y-64936666D01*
X91546666Y-65222380D02*
X91880000Y-64222380D01*
X92213333Y-65222380D01*
X94035714Y-58661745D02*
X94035714Y-57661745D01*
X94273809Y-57661745D01*
X94416666Y-57709365D01*
X94511904Y-57804603D01*
X94559523Y-57899841D01*
X94607142Y-58090317D01*
X94607142Y-58233174D01*
X94559523Y-58423650D01*
X94511904Y-58518888D01*
X94416666Y-58614126D01*
X94273809Y-58661745D01*
X94035714Y-58661745D01*
X94988095Y-57756984D02*
X95035714Y-57709365D01*
X95130952Y-57661745D01*
X95369047Y-57661745D01*
X95464285Y-57709365D01*
X95511904Y-57756984D01*
X95559523Y-57852222D01*
X95559523Y-57947460D01*
X95511904Y-58090317D01*
X94940476Y-58661745D01*
X95559523Y-58661745D01*
X96511904Y-58661745D02*
X95940476Y-58661745D01*
X96226190Y-58661745D02*
X96226190Y-57661745D01*
X96130952Y-57804603D01*
X96035714Y-57899841D01*
X95940476Y-57947460D01*
X91641904Y-61126666D02*
X92118095Y-61126666D01*
X91546666Y-61412380D02*
X91880000Y-60412380D01*
X92213333Y-61412380D01*
X94035714Y-54851745D02*
X94035714Y-53851745D01*
X94273809Y-53851745D01*
X94416666Y-53899365D01*
X94511904Y-53994603D01*
X94559523Y-54089841D01*
X94607142Y-54280317D01*
X94607142Y-54423174D01*
X94559523Y-54613650D01*
X94511904Y-54708888D01*
X94416666Y-54804126D01*
X94273809Y-54851745D01*
X94035714Y-54851745D01*
X94988095Y-53946984D02*
X95035714Y-53899365D01*
X95130952Y-53851745D01*
X95369047Y-53851745D01*
X95464285Y-53899365D01*
X95511904Y-53946984D01*
X95559523Y-54042222D01*
X95559523Y-54137460D01*
X95511904Y-54280317D01*
X94940476Y-54851745D01*
X95559523Y-54851745D01*
X96178571Y-53851745D02*
X96273809Y-53851745D01*
X96369047Y-53899365D01*
X96416666Y-53946984D01*
X96464285Y-54042222D01*
X96511904Y-54232698D01*
X96511904Y-54470793D01*
X96464285Y-54661269D01*
X96416666Y-54756507D01*
X96369047Y-54804126D01*
X96273809Y-54851745D01*
X96178571Y-54851745D01*
X96083333Y-54804126D01*
X96035714Y-54756507D01*
X95988095Y-54661269D01*
X95940476Y-54470793D01*
X95940476Y-54232698D01*
X95988095Y-54042222D01*
X96035714Y-53946984D01*
X96083333Y-53899365D01*
X96178571Y-53851745D01*
X91641904Y-57316666D02*
X92118095Y-57316666D01*
X91546666Y-57602380D02*
X91880000Y-56602380D01*
X92213333Y-57602380D01*
X94035714Y-51041745D02*
X94035714Y-50041745D01*
X94273809Y-50041745D01*
X94416666Y-50089365D01*
X94511904Y-50184603D01*
X94559523Y-50279841D01*
X94607142Y-50470317D01*
X94607142Y-50613174D01*
X94559523Y-50803650D01*
X94511904Y-50898888D01*
X94416666Y-50994126D01*
X94273809Y-51041745D01*
X94035714Y-51041745D01*
X95559523Y-51041745D02*
X94988095Y-51041745D01*
X95273809Y-51041745D02*
X95273809Y-50041745D01*
X95178571Y-50184603D01*
X95083333Y-50279841D01*
X94988095Y-50327460D01*
X96035714Y-51041745D02*
X96226190Y-51041745D01*
X96321428Y-50994126D01*
X96369047Y-50946507D01*
X96464285Y-50803650D01*
X96511904Y-50613174D01*
X96511904Y-50232222D01*
X96464285Y-50136984D01*
X96416666Y-50089365D01*
X96321428Y-50041745D01*
X96130952Y-50041745D01*
X96035714Y-50089365D01*
X95988095Y-50136984D01*
X95940476Y-50232222D01*
X95940476Y-50470317D01*
X95988095Y-50565555D01*
X96035714Y-50613174D01*
X96130952Y-50660793D01*
X96321428Y-50660793D01*
X96416666Y-50613174D01*
X96464285Y-50565555D01*
X96511904Y-50470317D01*
X91641904Y-53506666D02*
X92118095Y-53506666D01*
X91546666Y-53792380D02*
X91880000Y-52792380D01*
X92213333Y-53792380D01*
X94035714Y-47231745D02*
X94035714Y-46231745D01*
X94273809Y-46231745D01*
X94416666Y-46279365D01*
X94511904Y-46374603D01*
X94559523Y-46469841D01*
X94607142Y-46660317D01*
X94607142Y-46803174D01*
X94559523Y-46993650D01*
X94511904Y-47088888D01*
X94416666Y-47184126D01*
X94273809Y-47231745D01*
X94035714Y-47231745D01*
X95559523Y-47231745D02*
X94988095Y-47231745D01*
X95273809Y-47231745D02*
X95273809Y-46231745D01*
X95178571Y-46374603D01*
X95083333Y-46469841D01*
X94988095Y-46517460D01*
X96130952Y-46660317D02*
X96035714Y-46612698D01*
X95988095Y-46565079D01*
X95940476Y-46469841D01*
X95940476Y-46422222D01*
X95988095Y-46326984D01*
X96035714Y-46279365D01*
X96130952Y-46231745D01*
X96321428Y-46231745D01*
X96416666Y-46279365D01*
X96464285Y-46326984D01*
X96511904Y-46422222D01*
X96511904Y-46469841D01*
X96464285Y-46565079D01*
X96416666Y-46612698D01*
X96321428Y-46660317D01*
X96130952Y-46660317D01*
X96035714Y-46707936D01*
X95988095Y-46755555D01*
X95940476Y-46850793D01*
X95940476Y-47041269D01*
X95988095Y-47136507D01*
X96035714Y-47184126D01*
X96130952Y-47231745D01*
X96321428Y-47231745D01*
X96416666Y-47184126D01*
X96464285Y-47136507D01*
X96511904Y-47041269D01*
X96511904Y-46850793D01*
X96464285Y-46755555D01*
X96416666Y-46707936D01*
X96321428Y-46660317D01*
X91641904Y-49696666D02*
X92118095Y-49696666D01*
X91546666Y-49982380D02*
X91880000Y-48982380D01*
X92213333Y-49982380D01*
X94035714Y-43421745D02*
X94035714Y-42421745D01*
X94273809Y-42421745D01*
X94416666Y-42469365D01*
X94511904Y-42564603D01*
X94559523Y-42659841D01*
X94607142Y-42850317D01*
X94607142Y-42993174D01*
X94559523Y-43183650D01*
X94511904Y-43278888D01*
X94416666Y-43374126D01*
X94273809Y-43421745D01*
X94035714Y-43421745D01*
X95559523Y-43421745D02*
X94988095Y-43421745D01*
X95273809Y-43421745D02*
X95273809Y-42421745D01*
X95178571Y-42564603D01*
X95083333Y-42659841D01*
X94988095Y-42707460D01*
X95892857Y-42421745D02*
X96559523Y-42421745D01*
X96130952Y-43421745D01*
X91641904Y-45886666D02*
X92118095Y-45886666D01*
X91546666Y-46172380D02*
X91880000Y-45172380D01*
X92213333Y-46172380D01*
X90682380Y-73199523D02*
X91396666Y-73199523D01*
X91539523Y-73247142D01*
X91634761Y-73342380D01*
X91682380Y-73485238D01*
X91682380Y-73580476D01*
X91682380Y-72199523D02*
X91682380Y-72770952D01*
X91682380Y-72485238D02*
X90682380Y-72485238D01*
X90825238Y-72580476D01*
X90920476Y-72675714D01*
X90968095Y-72770952D01*
X90682380Y-71342380D02*
X90682380Y-71532857D01*
X90730000Y-71628095D01*
X90777619Y-71675714D01*
X90920476Y-71770952D01*
X91110952Y-71818571D01*
X91491904Y-71818571D01*
X91587142Y-71770952D01*
X91634761Y-71723333D01*
X91682380Y-71628095D01*
X91682380Y-71437619D01*
X91634761Y-71342380D01*
X91587142Y-71294761D01*
X91491904Y-71247142D01*
X91253809Y-71247142D01*
X91158571Y-71294761D01*
X91110952Y-71342380D01*
X91063333Y-71437619D01*
X91063333Y-71628095D01*
X91110952Y-71723333D01*
X91158571Y-71770952D01*
X91253809Y-71818571D01*
X90682380Y-69389523D02*
X91396666Y-69389523D01*
X91539523Y-69437142D01*
X91634761Y-69532380D01*
X91682380Y-69675238D01*
X91682380Y-69770476D01*
X91682380Y-68389523D02*
X91682380Y-68960952D01*
X91682380Y-68675238D02*
X90682380Y-68675238D01*
X90825238Y-68770476D01*
X90920476Y-68865714D01*
X90968095Y-68960952D01*
X90682380Y-67484761D02*
X90682380Y-67960952D01*
X91158571Y-68008571D01*
X91110952Y-67960952D01*
X91063333Y-67865714D01*
X91063333Y-67627619D01*
X91110952Y-67532380D01*
X91158571Y-67484761D01*
X91253809Y-67437142D01*
X91491904Y-67437142D01*
X91587142Y-67484761D01*
X91634761Y-67532380D01*
X91682380Y-67627619D01*
X91682380Y-67865714D01*
X91634761Y-67960952D01*
X91587142Y-68008571D01*
X90682380Y-65579523D02*
X91396666Y-65579523D01*
X91539523Y-65627142D01*
X91634761Y-65722380D01*
X91682380Y-65865238D01*
X91682380Y-65960476D01*
X91682380Y-64579523D02*
X91682380Y-65150952D01*
X91682380Y-64865238D02*
X90682380Y-64865238D01*
X90825238Y-64960476D01*
X90920476Y-65055714D01*
X90968095Y-65150952D01*
X91015714Y-63722380D02*
X91682380Y-63722380D01*
X90634761Y-63960476D02*
X91349047Y-64198571D01*
X91349047Y-63579523D01*
X90682380Y-61769523D02*
X91396666Y-61769523D01*
X91539523Y-61817142D01*
X91634761Y-61912380D01*
X91682380Y-62055238D01*
X91682380Y-62150476D01*
X91682380Y-60769523D02*
X91682380Y-61340952D01*
X91682380Y-61055238D02*
X90682380Y-61055238D01*
X90825238Y-61150476D01*
X90920476Y-61245714D01*
X90968095Y-61340952D01*
X90682380Y-60436190D02*
X90682380Y-59817142D01*
X91063333Y-60150476D01*
X91063333Y-60007619D01*
X91110952Y-59912380D01*
X91158571Y-59864761D01*
X91253809Y-59817142D01*
X91491904Y-59817142D01*
X91587142Y-59864761D01*
X91634761Y-59912380D01*
X91682380Y-60007619D01*
X91682380Y-60293333D01*
X91634761Y-60388571D01*
X91587142Y-60436190D01*
X90682380Y-57959523D02*
X91396666Y-57959523D01*
X91539523Y-58007142D01*
X91634761Y-58102380D01*
X91682380Y-58245238D01*
X91682380Y-58340476D01*
X91682380Y-56959523D02*
X91682380Y-57530952D01*
X91682380Y-57245238D02*
X90682380Y-57245238D01*
X90825238Y-57340476D01*
X90920476Y-57435714D01*
X90968095Y-57530952D01*
X90777619Y-56578571D02*
X90730000Y-56530952D01*
X90682380Y-56435714D01*
X90682380Y-56197619D01*
X90730000Y-56102380D01*
X90777619Y-56054761D01*
X90872857Y-56007142D01*
X90968095Y-56007142D01*
X91110952Y-56054761D01*
X91682380Y-56626190D01*
X91682380Y-56007142D01*
X90682380Y-54149523D02*
X91396666Y-54149523D01*
X91539523Y-54197142D01*
X91634761Y-54292380D01*
X91682380Y-54435238D01*
X91682380Y-54530476D01*
X91682380Y-53149523D02*
X91682380Y-53720952D01*
X91682380Y-53435238D02*
X90682380Y-53435238D01*
X90825238Y-53530476D01*
X90920476Y-53625714D01*
X90968095Y-53720952D01*
X91682380Y-52197142D02*
X91682380Y-52768571D01*
X91682380Y-52482857D02*
X90682380Y-52482857D01*
X90825238Y-52578095D01*
X90920476Y-52673333D01*
X90968095Y-52768571D01*
X90682380Y-50339523D02*
X91396666Y-50339523D01*
X91539523Y-50387142D01*
X91634761Y-50482380D01*
X91682380Y-50625238D01*
X91682380Y-50720476D01*
X91682380Y-49339523D02*
X91682380Y-49910952D01*
X91682380Y-49625238D02*
X90682380Y-49625238D01*
X90825238Y-49720476D01*
X90920476Y-49815714D01*
X90968095Y-49910952D01*
X90682380Y-48720476D02*
X90682380Y-48625238D01*
X90730000Y-48530000D01*
X90777619Y-48482380D01*
X90872857Y-48434761D01*
X91063333Y-48387142D01*
X91301428Y-48387142D01*
X91491904Y-48434761D01*
X91587142Y-48482380D01*
X91634761Y-48530000D01*
X91682380Y-48625238D01*
X91682380Y-48720476D01*
X91634761Y-48815714D01*
X91587142Y-48863333D01*
X91491904Y-48910952D01*
X91301428Y-48958571D01*
X91063333Y-48958571D01*
X90872857Y-48910952D01*
X90777619Y-48863333D01*
X90730000Y-48815714D01*
X90682380Y-48720476D01*
X90682380Y-46053333D02*
X91396666Y-46053333D01*
X91539523Y-46100952D01*
X91634761Y-46196190D01*
X91682380Y-46339047D01*
X91682380Y-46434285D01*
X91682380Y-45529523D02*
X91682380Y-45339047D01*
X91634761Y-45243809D01*
X91587142Y-45196190D01*
X91444285Y-45100952D01*
X91253809Y-45053333D01*
X90872857Y-45053333D01*
X90777619Y-45100952D01*
X90730000Y-45148571D01*
X90682380Y-45243809D01*
X90682380Y-45434285D01*
X90730000Y-45529523D01*
X90777619Y-45577142D01*
X90872857Y-45624761D01*
X91110952Y-45624761D01*
X91206190Y-45577142D01*
X91253809Y-45529523D01*
X91301428Y-45434285D01*
X91301428Y-45243809D01*
X91253809Y-45148571D01*
X91206190Y-45100952D01*
X91110952Y-45053333D01*
X78795714Y-70091745D02*
X78795714Y-69091745D01*
X79033809Y-69091745D01*
X79176666Y-69139365D01*
X79271904Y-69234603D01*
X79319523Y-69329841D01*
X79367142Y-69520317D01*
X79367142Y-69663174D01*
X79319523Y-69853650D01*
X79271904Y-69948888D01*
X79176666Y-70044126D01*
X79033809Y-70091745D01*
X78795714Y-70091745D01*
X80319523Y-70091745D02*
X79748095Y-70091745D01*
X80033809Y-70091745D02*
X80033809Y-69091745D01*
X79938571Y-69234603D01*
X79843333Y-69329841D01*
X79748095Y-69377460D01*
X81176666Y-69091745D02*
X80986190Y-69091745D01*
X80890952Y-69139365D01*
X80843333Y-69186984D01*
X80748095Y-69329841D01*
X80700476Y-69520317D01*
X80700476Y-69901269D01*
X80748095Y-69996507D01*
X80795714Y-70044126D01*
X80890952Y-70091745D01*
X81081428Y-70091745D01*
X81176666Y-70044126D01*
X81224285Y-69996507D01*
X81271904Y-69901269D01*
X81271904Y-69663174D01*
X81224285Y-69567936D01*
X81176666Y-69520317D01*
X81081428Y-69472698D01*
X80890952Y-69472698D01*
X80795714Y-69520317D01*
X80748095Y-69567936D01*
X80700476Y-69663174D01*
X76401904Y-72556666D02*
X76878095Y-72556666D01*
X76306666Y-72842380D02*
X76640000Y-71842380D01*
X76973333Y-72842380D01*
X78795714Y-66281745D02*
X78795714Y-65281745D01*
X79033809Y-65281745D01*
X79176666Y-65329365D01*
X79271904Y-65424603D01*
X79319523Y-65519841D01*
X79367142Y-65710317D01*
X79367142Y-65853174D01*
X79319523Y-66043650D01*
X79271904Y-66138888D01*
X79176666Y-66234126D01*
X79033809Y-66281745D01*
X78795714Y-66281745D01*
X80319523Y-66281745D02*
X79748095Y-66281745D01*
X80033809Y-66281745D02*
X80033809Y-65281745D01*
X79938571Y-65424603D01*
X79843333Y-65519841D01*
X79748095Y-65567460D01*
X81224285Y-65281745D02*
X80748095Y-65281745D01*
X80700476Y-65757936D01*
X80748095Y-65710317D01*
X80843333Y-65662698D01*
X81081428Y-65662698D01*
X81176666Y-65710317D01*
X81224285Y-65757936D01*
X81271904Y-65853174D01*
X81271904Y-66091269D01*
X81224285Y-66186507D01*
X81176666Y-66234126D01*
X81081428Y-66281745D01*
X80843333Y-66281745D01*
X80748095Y-66234126D01*
X80700476Y-66186507D01*
X76401904Y-68746666D02*
X76878095Y-68746666D01*
X76306666Y-69032380D02*
X76640000Y-68032380D01*
X76973333Y-69032380D01*
X78795714Y-62471745D02*
X78795714Y-61471745D01*
X79033809Y-61471745D01*
X79176666Y-61519365D01*
X79271904Y-61614603D01*
X79319523Y-61709841D01*
X79367142Y-61900317D01*
X79367142Y-62043174D01*
X79319523Y-62233650D01*
X79271904Y-62328888D01*
X79176666Y-62424126D01*
X79033809Y-62471745D01*
X78795714Y-62471745D01*
X80319523Y-62471745D02*
X79748095Y-62471745D01*
X80033809Y-62471745D02*
X80033809Y-61471745D01*
X79938571Y-61614603D01*
X79843333Y-61709841D01*
X79748095Y-61757460D01*
X81176666Y-61805079D02*
X81176666Y-62471745D01*
X80938571Y-61424126D02*
X80700476Y-62138412D01*
X81319523Y-62138412D01*
X76401904Y-64936666D02*
X76878095Y-64936666D01*
X76306666Y-65222380D02*
X76640000Y-64222380D01*
X76973333Y-65222380D01*
X78795714Y-58661745D02*
X78795714Y-57661745D01*
X79033809Y-57661745D01*
X79176666Y-57709365D01*
X79271904Y-57804603D01*
X79319523Y-57899841D01*
X79367142Y-58090317D01*
X79367142Y-58233174D01*
X79319523Y-58423650D01*
X79271904Y-58518888D01*
X79176666Y-58614126D01*
X79033809Y-58661745D01*
X78795714Y-58661745D01*
X80319523Y-58661745D02*
X79748095Y-58661745D01*
X80033809Y-58661745D02*
X80033809Y-57661745D01*
X79938571Y-57804603D01*
X79843333Y-57899841D01*
X79748095Y-57947460D01*
X80652857Y-57661745D02*
X81271904Y-57661745D01*
X80938571Y-58042698D01*
X81081428Y-58042698D01*
X81176666Y-58090317D01*
X81224285Y-58137936D01*
X81271904Y-58233174D01*
X81271904Y-58471269D01*
X81224285Y-58566507D01*
X81176666Y-58614126D01*
X81081428Y-58661745D01*
X80795714Y-58661745D01*
X80700476Y-58614126D01*
X80652857Y-58566507D01*
X76401904Y-61126666D02*
X76878095Y-61126666D01*
X76306666Y-61412380D02*
X76640000Y-60412380D01*
X76973333Y-61412380D01*
X78795714Y-54851745D02*
X78795714Y-53851745D01*
X79033809Y-53851745D01*
X79176666Y-53899365D01*
X79271904Y-53994603D01*
X79319523Y-54089841D01*
X79367142Y-54280317D01*
X79367142Y-54423174D01*
X79319523Y-54613650D01*
X79271904Y-54708888D01*
X79176666Y-54804126D01*
X79033809Y-54851745D01*
X78795714Y-54851745D01*
X80319523Y-54851745D02*
X79748095Y-54851745D01*
X80033809Y-54851745D02*
X80033809Y-53851745D01*
X79938571Y-53994603D01*
X79843333Y-54089841D01*
X79748095Y-54137460D01*
X80700476Y-53946984D02*
X80748095Y-53899365D01*
X80843333Y-53851745D01*
X81081428Y-53851745D01*
X81176666Y-53899365D01*
X81224285Y-53946984D01*
X81271904Y-54042222D01*
X81271904Y-54137460D01*
X81224285Y-54280317D01*
X80652857Y-54851745D01*
X81271904Y-54851745D01*
X76401904Y-57316666D02*
X76878095Y-57316666D01*
X76306666Y-57602380D02*
X76640000Y-56602380D01*
X76973333Y-57602380D01*
X78795714Y-51041745D02*
X78795714Y-50041745D01*
X79033809Y-50041745D01*
X79176666Y-50089365D01*
X79271904Y-50184603D01*
X79319523Y-50279841D01*
X79367142Y-50470317D01*
X79367142Y-50613174D01*
X79319523Y-50803650D01*
X79271904Y-50898888D01*
X79176666Y-50994126D01*
X79033809Y-51041745D01*
X78795714Y-51041745D01*
X80319523Y-51041745D02*
X79748095Y-51041745D01*
X80033809Y-51041745D02*
X80033809Y-50041745D01*
X79938571Y-50184603D01*
X79843333Y-50279841D01*
X79748095Y-50327460D01*
X81271904Y-51041745D02*
X80700476Y-51041745D01*
X80986190Y-51041745D02*
X80986190Y-50041745D01*
X80890952Y-50184603D01*
X80795714Y-50279841D01*
X80700476Y-50327460D01*
X76401904Y-53506666D02*
X76878095Y-53506666D01*
X76306666Y-53792380D02*
X76640000Y-52792380D01*
X76973333Y-53792380D01*
X78795714Y-47231745D02*
X78795714Y-46231745D01*
X79033809Y-46231745D01*
X79176666Y-46279365D01*
X79271904Y-46374603D01*
X79319523Y-46469841D01*
X79367142Y-46660317D01*
X79367142Y-46803174D01*
X79319523Y-46993650D01*
X79271904Y-47088888D01*
X79176666Y-47184126D01*
X79033809Y-47231745D01*
X78795714Y-47231745D01*
X80319523Y-47231745D02*
X79748095Y-47231745D01*
X80033809Y-47231745D02*
X80033809Y-46231745D01*
X79938571Y-46374603D01*
X79843333Y-46469841D01*
X79748095Y-46517460D01*
X80938571Y-46231745D02*
X81033809Y-46231745D01*
X81129047Y-46279365D01*
X81176666Y-46326984D01*
X81224285Y-46422222D01*
X81271904Y-46612698D01*
X81271904Y-46850793D01*
X81224285Y-47041269D01*
X81176666Y-47136507D01*
X81129047Y-47184126D01*
X81033809Y-47231745D01*
X80938571Y-47231745D01*
X80843333Y-47184126D01*
X80795714Y-47136507D01*
X80748095Y-47041269D01*
X80700476Y-46850793D01*
X80700476Y-46612698D01*
X80748095Y-46422222D01*
X80795714Y-46326984D01*
X80843333Y-46279365D01*
X80938571Y-46231745D01*
X76401904Y-49696666D02*
X76878095Y-49696666D01*
X76306666Y-49982380D02*
X76640000Y-48982380D01*
X76973333Y-49982380D01*
X79271904Y-43421745D02*
X79271904Y-42421745D01*
X79510000Y-42421745D01*
X79652857Y-42469365D01*
X79748095Y-42564603D01*
X79795714Y-42659841D01*
X79843333Y-42850317D01*
X79843333Y-42993174D01*
X79795714Y-43183650D01*
X79748095Y-43278888D01*
X79652857Y-43374126D01*
X79510000Y-43421745D01*
X79271904Y-43421745D01*
X80319523Y-43421745D02*
X80510000Y-43421745D01*
X80605238Y-43374126D01*
X80652857Y-43326507D01*
X80748095Y-43183650D01*
X80795714Y-42993174D01*
X80795714Y-42612222D01*
X80748095Y-42516984D01*
X80700476Y-42469365D01*
X80605238Y-42421745D01*
X80414761Y-42421745D01*
X80319523Y-42469365D01*
X80271904Y-42516984D01*
X80224285Y-42612222D01*
X80224285Y-42850317D01*
X80271904Y-42945555D01*
X80319523Y-42993174D01*
X80414761Y-43040793D01*
X80605238Y-43040793D01*
X80700476Y-42993174D01*
X80748095Y-42945555D01*
X80795714Y-42850317D01*
X76401904Y-45886666D02*
X76878095Y-45886666D01*
X76306666Y-46172380D02*
X76640000Y-45172380D01*
X76973333Y-46172380D01*
X128730476Y-74172380D02*
X128730476Y-74886666D01*
X128682857Y-75029523D01*
X128587619Y-75124761D01*
X128444761Y-75172380D01*
X128349523Y-75172380D01*
X129111428Y-74172380D02*
X129730476Y-74172380D01*
X129397142Y-74553333D01*
X129540000Y-74553333D01*
X129635238Y-74600952D01*
X129682857Y-74648571D01*
X129730476Y-74743809D01*
X129730476Y-74981904D01*
X129682857Y-75077142D01*
X129635238Y-75124761D01*
X129540000Y-75172380D01*
X129254285Y-75172380D01*
X129159047Y-75124761D01*
X129111428Y-75077142D01*
X130349523Y-74172380D02*
X130444761Y-74172380D01*
X130540000Y-74220000D01*
X130587619Y-74267619D01*
X130635238Y-74362857D01*
X130682857Y-74553333D01*
X130682857Y-74791428D01*
X130635238Y-74981904D01*
X130587619Y-75077142D01*
X130540000Y-75124761D01*
X130444761Y-75172380D01*
X130349523Y-75172380D01*
X130254285Y-75124761D01*
X130206666Y-75077142D01*
X130159047Y-74981904D01*
X130111428Y-74791428D01*
X130111428Y-74553333D01*
X130159047Y-74362857D01*
X130206666Y-74267619D01*
X130254285Y-74220000D01*
X130349523Y-74172380D01*
X122380476Y-74172380D02*
X122380476Y-74886666D01*
X122332857Y-75029523D01*
X122237619Y-75124761D01*
X122094761Y-75172380D01*
X121999523Y-75172380D01*
X122809047Y-74267619D02*
X122856666Y-74220000D01*
X122951904Y-74172380D01*
X123190000Y-74172380D01*
X123285238Y-74220000D01*
X123332857Y-74267619D01*
X123380476Y-74362857D01*
X123380476Y-74458095D01*
X123332857Y-74600952D01*
X122761428Y-75172380D01*
X123380476Y-75172380D01*
X123951904Y-74600952D02*
X123856666Y-74553333D01*
X123809047Y-74505714D01*
X123761428Y-74410476D01*
X123761428Y-74362857D01*
X123809047Y-74267619D01*
X123856666Y-74220000D01*
X123951904Y-74172380D01*
X124142380Y-74172380D01*
X124237619Y-74220000D01*
X124285238Y-74267619D01*
X124332857Y-74362857D01*
X124332857Y-74410476D01*
X124285238Y-74505714D01*
X124237619Y-74553333D01*
X124142380Y-74600952D01*
X123951904Y-74600952D01*
X123856666Y-74648571D01*
X123809047Y-74696190D01*
X123761428Y-74791428D01*
X123761428Y-74981904D01*
X123809047Y-75077142D01*
X123856666Y-75124761D01*
X123951904Y-75172380D01*
X124142380Y-75172380D01*
X124237619Y-75124761D01*
X124285238Y-75077142D01*
X124332857Y-74981904D01*
X124332857Y-74791428D01*
X124285238Y-74696190D01*
X124237619Y-74648571D01*
X124142380Y-74600952D01*
X55070476Y-44112380D02*
X55070476Y-44826666D01*
X55022857Y-44969523D01*
X54927619Y-45064761D01*
X54784761Y-45112380D01*
X54689523Y-45112380D01*
X55499047Y-44207619D02*
X55546666Y-44160000D01*
X55641904Y-44112380D01*
X55880000Y-44112380D01*
X55975238Y-44160000D01*
X56022857Y-44207619D01*
X56070476Y-44302857D01*
X56070476Y-44398095D01*
X56022857Y-44540952D01*
X55451428Y-45112380D01*
X56070476Y-45112380D01*
X56927619Y-44112380D02*
X56737142Y-44112380D01*
X56641904Y-44160000D01*
X56594285Y-44207619D01*
X56499047Y-44350476D01*
X56451428Y-44540952D01*
X56451428Y-44921904D01*
X56499047Y-45017142D01*
X56546666Y-45064761D01*
X56641904Y-45112380D01*
X56832380Y-45112380D01*
X56927619Y-45064761D01*
X56975238Y-45017142D01*
X57022857Y-44921904D01*
X57022857Y-44683809D01*
X56975238Y-44588571D01*
X56927619Y-44540952D01*
X56832380Y-44493333D01*
X56641904Y-44493333D01*
X56546666Y-44540952D01*
X56499047Y-44588571D01*
X56451428Y-44683809D01*
X75442380Y-72723333D02*
X76156666Y-72723333D01*
X76299523Y-72770952D01*
X76394761Y-72866190D01*
X76442380Y-73009047D01*
X76442380Y-73104285D01*
X75870952Y-72104285D02*
X75823333Y-72199523D01*
X75775714Y-72247142D01*
X75680476Y-72294761D01*
X75632857Y-72294761D01*
X75537619Y-72247142D01*
X75490000Y-72199523D01*
X75442380Y-72104285D01*
X75442380Y-71913809D01*
X75490000Y-71818571D01*
X75537619Y-71770952D01*
X75632857Y-71723333D01*
X75680476Y-71723333D01*
X75775714Y-71770952D01*
X75823333Y-71818571D01*
X75870952Y-71913809D01*
X75870952Y-72104285D01*
X75918571Y-72199523D01*
X75966190Y-72247142D01*
X76061428Y-72294761D01*
X76251904Y-72294761D01*
X76347142Y-72247142D01*
X76394761Y-72199523D01*
X76442380Y-72104285D01*
X76442380Y-71913809D01*
X76394761Y-71818571D01*
X76347142Y-71770952D01*
X76251904Y-71723333D01*
X76061428Y-71723333D01*
X75966190Y-71770952D01*
X75918571Y-71818571D01*
X75870952Y-71913809D01*
X75442380Y-68913333D02*
X76156666Y-68913333D01*
X76299523Y-68960952D01*
X76394761Y-69056190D01*
X76442380Y-69199047D01*
X76442380Y-69294285D01*
X75442380Y-68532380D02*
X75442380Y-67865714D01*
X76442380Y-68294285D01*
X75442380Y-65103333D02*
X76156666Y-65103333D01*
X76299523Y-65150952D01*
X76394761Y-65246190D01*
X76442380Y-65389047D01*
X76442380Y-65484285D01*
X75442380Y-64198571D02*
X75442380Y-64389047D01*
X75490000Y-64484285D01*
X75537619Y-64531904D01*
X75680476Y-64627142D01*
X75870952Y-64674761D01*
X76251904Y-64674761D01*
X76347142Y-64627142D01*
X76394761Y-64579523D01*
X76442380Y-64484285D01*
X76442380Y-64293809D01*
X76394761Y-64198571D01*
X76347142Y-64150952D01*
X76251904Y-64103333D01*
X76013809Y-64103333D01*
X75918571Y-64150952D01*
X75870952Y-64198571D01*
X75823333Y-64293809D01*
X75823333Y-64484285D01*
X75870952Y-64579523D01*
X75918571Y-64627142D01*
X76013809Y-64674761D01*
X75442380Y-61293333D02*
X76156666Y-61293333D01*
X76299523Y-61340952D01*
X76394761Y-61436190D01*
X76442380Y-61579047D01*
X76442380Y-61674285D01*
X75442380Y-60340952D02*
X75442380Y-60817142D01*
X75918571Y-60864761D01*
X75870952Y-60817142D01*
X75823333Y-60721904D01*
X75823333Y-60483809D01*
X75870952Y-60388571D01*
X75918571Y-60340952D01*
X76013809Y-60293333D01*
X76251904Y-60293333D01*
X76347142Y-60340952D01*
X76394761Y-60388571D01*
X76442380Y-60483809D01*
X76442380Y-60721904D01*
X76394761Y-60817142D01*
X76347142Y-60864761D01*
X75442380Y-57483333D02*
X76156666Y-57483333D01*
X76299523Y-57530952D01*
X76394761Y-57626190D01*
X76442380Y-57769047D01*
X76442380Y-57864285D01*
X75775714Y-56578571D02*
X76442380Y-56578571D01*
X75394761Y-56816666D02*
X76109047Y-57054761D01*
X76109047Y-56435714D01*
X75442380Y-53673333D02*
X76156666Y-53673333D01*
X76299523Y-53720952D01*
X76394761Y-53816190D01*
X76442380Y-53959047D01*
X76442380Y-54054285D01*
X75442380Y-53292380D02*
X75442380Y-52673333D01*
X75823333Y-53006666D01*
X75823333Y-52863809D01*
X75870952Y-52768571D01*
X75918571Y-52720952D01*
X76013809Y-52673333D01*
X76251904Y-52673333D01*
X76347142Y-52720952D01*
X76394761Y-52768571D01*
X76442380Y-52863809D01*
X76442380Y-53149523D01*
X76394761Y-53244761D01*
X76347142Y-53292380D01*
X75442380Y-49863333D02*
X76156666Y-49863333D01*
X76299523Y-49910952D01*
X76394761Y-50006190D01*
X76442380Y-50149047D01*
X76442380Y-50244285D01*
X75537619Y-49434761D02*
X75490000Y-49387142D01*
X75442380Y-49291904D01*
X75442380Y-49053809D01*
X75490000Y-48958571D01*
X75537619Y-48910952D01*
X75632857Y-48863333D01*
X75728095Y-48863333D01*
X75870952Y-48910952D01*
X76442380Y-49482380D01*
X76442380Y-48863333D01*
X75442380Y-46053333D02*
X76156666Y-46053333D01*
X76299523Y-46100952D01*
X76394761Y-46196190D01*
X76442380Y-46339047D01*
X76442380Y-46434285D01*
X76442380Y-45053333D02*
X76442380Y-45624761D01*
X76442380Y-45339047D02*
X75442380Y-45339047D01*
X75585238Y-45434285D01*
X75680476Y-45529523D01*
X75728095Y-45624761D01*
X64031904Y-70091745D02*
X64031904Y-69091745D01*
X64270000Y-69091745D01*
X64412857Y-69139365D01*
X64508095Y-69234603D01*
X64555714Y-69329841D01*
X64603333Y-69520317D01*
X64603333Y-69663174D01*
X64555714Y-69853650D01*
X64508095Y-69948888D01*
X64412857Y-70044126D01*
X64270000Y-70091745D01*
X64031904Y-70091745D01*
X65174761Y-69520317D02*
X65079523Y-69472698D01*
X65031904Y-69425079D01*
X64984285Y-69329841D01*
X64984285Y-69282222D01*
X65031904Y-69186984D01*
X65079523Y-69139365D01*
X65174761Y-69091745D01*
X65365238Y-69091745D01*
X65460476Y-69139365D01*
X65508095Y-69186984D01*
X65555714Y-69282222D01*
X65555714Y-69329841D01*
X65508095Y-69425079D01*
X65460476Y-69472698D01*
X65365238Y-69520317D01*
X65174761Y-69520317D01*
X65079523Y-69567936D01*
X65031904Y-69615555D01*
X64984285Y-69710793D01*
X64984285Y-69901269D01*
X65031904Y-69996507D01*
X65079523Y-70044126D01*
X65174761Y-70091745D01*
X65365238Y-70091745D01*
X65460476Y-70044126D01*
X65508095Y-69996507D01*
X65555714Y-69901269D01*
X65555714Y-69710793D01*
X65508095Y-69615555D01*
X65460476Y-69567936D01*
X65365238Y-69520317D01*
X61161904Y-72556666D02*
X61638095Y-72556666D01*
X61066666Y-72842380D02*
X61400000Y-71842380D01*
X61733333Y-72842380D01*
X64031904Y-66281745D02*
X64031904Y-65281745D01*
X64270000Y-65281745D01*
X64412857Y-65329365D01*
X64508095Y-65424603D01*
X64555714Y-65519841D01*
X64603333Y-65710317D01*
X64603333Y-65853174D01*
X64555714Y-66043650D01*
X64508095Y-66138888D01*
X64412857Y-66234126D01*
X64270000Y-66281745D01*
X64031904Y-66281745D01*
X64936666Y-65281745D02*
X65603333Y-65281745D01*
X65174761Y-66281745D01*
X61161904Y-68746666D02*
X61638095Y-68746666D01*
X61066666Y-69032380D02*
X61400000Y-68032380D01*
X61733333Y-69032380D01*
X64031904Y-62471745D02*
X64031904Y-61471745D01*
X64270000Y-61471745D01*
X64412857Y-61519365D01*
X64508095Y-61614603D01*
X64555714Y-61709841D01*
X64603333Y-61900317D01*
X64603333Y-62043174D01*
X64555714Y-62233650D01*
X64508095Y-62328888D01*
X64412857Y-62424126D01*
X64270000Y-62471745D01*
X64031904Y-62471745D01*
X65460476Y-61471745D02*
X65270000Y-61471745D01*
X65174761Y-61519365D01*
X65127142Y-61566984D01*
X65031904Y-61709841D01*
X64984285Y-61900317D01*
X64984285Y-62281269D01*
X65031904Y-62376507D01*
X65079523Y-62424126D01*
X65174761Y-62471745D01*
X65365238Y-62471745D01*
X65460476Y-62424126D01*
X65508095Y-62376507D01*
X65555714Y-62281269D01*
X65555714Y-62043174D01*
X65508095Y-61947936D01*
X65460476Y-61900317D01*
X65365238Y-61852698D01*
X65174761Y-61852698D01*
X65079523Y-61900317D01*
X65031904Y-61947936D01*
X64984285Y-62043174D01*
X61161904Y-64936666D02*
X61638095Y-64936666D01*
X61066666Y-65222380D02*
X61400000Y-64222380D01*
X61733333Y-65222380D01*
X64031904Y-58661745D02*
X64031904Y-57661745D01*
X64270000Y-57661745D01*
X64412857Y-57709365D01*
X64508095Y-57804603D01*
X64555714Y-57899841D01*
X64603333Y-58090317D01*
X64603333Y-58233174D01*
X64555714Y-58423650D01*
X64508095Y-58518888D01*
X64412857Y-58614126D01*
X64270000Y-58661745D01*
X64031904Y-58661745D01*
X65508095Y-57661745D02*
X65031904Y-57661745D01*
X64984285Y-58137936D01*
X65031904Y-58090317D01*
X65127142Y-58042698D01*
X65365238Y-58042698D01*
X65460476Y-58090317D01*
X65508095Y-58137936D01*
X65555714Y-58233174D01*
X65555714Y-58471269D01*
X65508095Y-58566507D01*
X65460476Y-58614126D01*
X65365238Y-58661745D01*
X65127142Y-58661745D01*
X65031904Y-58614126D01*
X64984285Y-58566507D01*
X61161904Y-61126666D02*
X61638095Y-61126666D01*
X61066666Y-61412380D02*
X61400000Y-60412380D01*
X61733333Y-61412380D01*
X64031904Y-54851745D02*
X64031904Y-53851745D01*
X64270000Y-53851745D01*
X64412857Y-53899365D01*
X64508095Y-53994603D01*
X64555714Y-54089841D01*
X64603333Y-54280317D01*
X64603333Y-54423174D01*
X64555714Y-54613650D01*
X64508095Y-54708888D01*
X64412857Y-54804126D01*
X64270000Y-54851745D01*
X64031904Y-54851745D01*
X65460476Y-54185079D02*
X65460476Y-54851745D01*
X65222380Y-53804126D02*
X64984285Y-54518412D01*
X65603333Y-54518412D01*
X61161904Y-57316666D02*
X61638095Y-57316666D01*
X61066666Y-57602380D02*
X61400000Y-56602380D01*
X61733333Y-57602380D01*
X64031904Y-51041745D02*
X64031904Y-50041745D01*
X64270000Y-50041745D01*
X64412857Y-50089365D01*
X64508095Y-50184603D01*
X64555714Y-50279841D01*
X64603333Y-50470317D01*
X64603333Y-50613174D01*
X64555714Y-50803650D01*
X64508095Y-50898888D01*
X64412857Y-50994126D01*
X64270000Y-51041745D01*
X64031904Y-51041745D01*
X64936666Y-50041745D02*
X65555714Y-50041745D01*
X65222380Y-50422698D01*
X65365238Y-50422698D01*
X65460476Y-50470317D01*
X65508095Y-50517936D01*
X65555714Y-50613174D01*
X65555714Y-50851269D01*
X65508095Y-50946507D01*
X65460476Y-50994126D01*
X65365238Y-51041745D01*
X65079523Y-51041745D01*
X64984285Y-50994126D01*
X64936666Y-50946507D01*
X61161904Y-53506666D02*
X61638095Y-53506666D01*
X61066666Y-53792380D02*
X61400000Y-52792380D01*
X61733333Y-53792380D01*
X64031904Y-47231745D02*
X64031904Y-46231745D01*
X64270000Y-46231745D01*
X64412857Y-46279365D01*
X64508095Y-46374603D01*
X64555714Y-46469841D01*
X64603333Y-46660317D01*
X64603333Y-46803174D01*
X64555714Y-46993650D01*
X64508095Y-47088888D01*
X64412857Y-47184126D01*
X64270000Y-47231745D01*
X64031904Y-47231745D01*
X64984285Y-46326984D02*
X65031904Y-46279365D01*
X65127142Y-46231745D01*
X65365238Y-46231745D01*
X65460476Y-46279365D01*
X65508095Y-46326984D01*
X65555714Y-46422222D01*
X65555714Y-46517460D01*
X65508095Y-46660317D01*
X64936666Y-47231745D01*
X65555714Y-47231745D01*
X61161904Y-49696666D02*
X61638095Y-49696666D01*
X61066666Y-49982380D02*
X61400000Y-48982380D01*
X61733333Y-49982380D01*
X64031904Y-43421745D02*
X64031904Y-42421745D01*
X64270000Y-42421745D01*
X64412857Y-42469365D01*
X64508095Y-42564603D01*
X64555714Y-42659841D01*
X64603333Y-42850317D01*
X64603333Y-42993174D01*
X64555714Y-43183650D01*
X64508095Y-43278888D01*
X64412857Y-43374126D01*
X64270000Y-43421745D01*
X64031904Y-43421745D01*
X65555714Y-43421745D02*
X64984285Y-43421745D01*
X65270000Y-43421745D02*
X65270000Y-42421745D01*
X65174761Y-42564603D01*
X65079523Y-42659841D01*
X64984285Y-42707460D01*
X61161904Y-45886666D02*
X61638095Y-45886666D01*
X61066666Y-46172380D02*
X61400000Y-45172380D01*
X61733333Y-46172380D01*
M02*
