%TF.GenerationSoftware,KiCad,Pcbnew,(6.0.7-1)-1*%
%TF.CreationDate,2023-10-30T20:01:34+10:00*%
%TF.ProjectId,GAUGE_Analog Instruments-12v,47415547-455f-4416-9e61-6c6f6720496e,rev?*%
%TF.SameCoordinates,Original*%
%TF.FileFunction,Copper,L2,Bot*%
%TF.FilePolarity,Positive*%
%FSLAX46Y46*%
G04 Gerber Fmt 4.6, Leading zero omitted, Abs format (unit mm)*
G04 Created by KiCad (PCBNEW (6.0.7-1)-1) date 2023-10-30 20:01:34*
%MOMM*%
%LPD*%
G01*
G04 APERTURE LIST*
%TA.AperFunction,ComponentPad*%
%ADD10C,1.524000*%
%TD*%
%TA.AperFunction,ComponentPad*%
%ADD11R,1.700000X1.700000*%
%TD*%
%TA.AperFunction,ComponentPad*%
%ADD12O,1.700000X1.700000*%
%TD*%
%TA.AperFunction,ComponentPad*%
%ADD13C,1.400000*%
%TD*%
%TA.AperFunction,ComponentPad*%
%ADD14O,1.400000X1.400000*%
%TD*%
%TA.AperFunction,ComponentPad*%
%ADD15R,1.800000X1.800000*%
%TD*%
%TA.AperFunction,ComponentPad*%
%ADD16C,1.800000*%
%TD*%
%TA.AperFunction,Conductor*%
%ADD17C,0.250000*%
%TD*%
G04 APERTURE END LIST*
D10*
%TO.P,M1,1*%
%TO.N,/COIL1*%
X168512800Y-93018000D03*
%TO.P,M1,2,-*%
%TO.N,/COIL2*%
X168512800Y-100718000D03*
%TO.P,M1,3*%
%TO.N,/COIL3*%
X191362800Y-100718000D03*
%TO.P,M1,4*%
%TO.N,/COIL4*%
X191362800Y-93018000D03*
%TD*%
D11*
%TO.P,J2,1,Pin_1*%
%TO.N,/COIL1*%
X185530500Y-77717600D03*
D12*
%TO.P,J2,2,Pin_2*%
%TO.N,/COIL4*%
X188070500Y-77717600D03*
%TO.P,J2,3,Pin_3*%
%TO.N,/COIL2*%
X185530500Y-80257600D03*
%TO.P,J2,4,Pin_4*%
%TO.N,/COIL3*%
X188070500Y-80257600D03*
%TD*%
D11*
%TO.P,J1,1,Pin_1*%
%TO.N,/LED+12V*%
X195690500Y-105789600D03*
D12*
%TO.P,J1,2,Pin_2*%
%TO.N,/LED-12V*%
X195690500Y-108329600D03*
%TD*%
D13*
%TO.P,R1,1*%
%TO.N,/LED-12V*%
X169775500Y-79934600D03*
D14*
%TO.P,R1,2*%
%TO.N,Net-(D1-Pad1)*%
X174855500Y-79934600D03*
%TD*%
D15*
%TO.P,D1,1,K*%
%TO.N,Net-(D1-Pad1)*%
X160715500Y-78584600D03*
D16*
%TO.P,D1,2,A*%
%TO.N,Net-(D1-Pad2)*%
X158175500Y-78584600D03*
%TD*%
D15*
%TO.P,D2,1,K*%
%TO.N,Net-(D1-Pad2)*%
X202426500Y-78684600D03*
D16*
%TO.P,D2,2,A*%
%TO.N,/LED+12V*%
X199886500Y-78684600D03*
%TD*%
D17*
%TO.N,/LED-12V*%
X194882500Y-107154300D02*
X195690500Y-107154300D01*
X178033400Y-90305200D02*
X194882500Y-107154300D01*
X178033400Y-87082100D02*
X178033400Y-90305200D01*
X170885900Y-79934600D02*
X178033400Y-87082100D01*
X169775500Y-79934600D02*
X170885900Y-79934600D01*
X195690500Y-108329600D02*
X195690500Y-107154300D01*
%TO.N,/COIL3*%
X188070500Y-97425700D02*
X191362800Y-100718000D01*
X188070500Y-80257600D02*
X188070500Y-97425700D01*
%TO.N,/COIL4*%
X191362800Y-81817900D02*
X191362800Y-93018000D01*
X188437800Y-78892900D02*
X191362800Y-81817900D01*
X188070500Y-78892900D02*
X188437800Y-78892900D01*
X188070500Y-77717600D02*
X188070500Y-78892900D01*
%TD*%
M02*
