  0
SECTION
  2
HEADER
  9
$ANGBASE
  50
0.0
  9
$ANGDIR
  70
1
  9
$MEASUREMENT
  70
1
  0
ENDSEC
  0
SECTION
  2
TABLES
  0
TABLE
  2
LTYPE
  70
4
  0
LTYPE
  5
40F
  2
CONTINUOUS
  70
0
  3
Solid line
  72
65
  73
0
  40
0.0
  0
LTYPE
  5
410
  2
DASHDOT
 70
0
  3
Dash Dot ____ _ ____ _
 72
65
 73
4
 40
2.0
 49
1.25
 49
-0.25
 49
0.25
 49
-0.25
  0
LTYPE
  5
411
  2
DASHED
 70
0
  3
Dashed __ __ __ __ __
 72
65
 73
2
 40
0.75
 49
0.5
 49
-0.25
  0
LTYPE
  5
43B
  2
DOTTED
 70
0
  3
Dotted .  .  .  .
 72
65
 73
2
 40
0.2
 49
0.0
 49
-0.2
  0
ENDTAB
  0
TABLE
  2
STYLE
  70
4
  0
STYLE
  2
KICAD
  70
0
  40
0
  41
1
  42
1
  50
0
  71
0
  3
isocp.shx
  0
STYLE
  2
KICADB
  70
0
  40
0
  41
1
  42
1
  50
0
  71
0
  3
isocp.shx
  0
STYLE
  2
KICADI
  70
0
  40
0
  41
1
  42
1
  50
15
  71
0
  3
isocp.shx
  0
STYLE
  2
KICADBI
  70
0
  40
0
  41
1
  42
1
  50
15
  71
0
  3
isocp.shx
  0
ENDTAB
  0
TABLE
  2
LAYER
  70
1
  0
LAYER
  2
BLACK
  70
0
  62
7
  6
CONTINUOUS
  0
ENDTAB
  0
ENDSEC
  0
SECTION
  2
ENTITIES
0
LINE
8
BLACK
6
CONTINUOUS
10
160.384
20
-111.868
11
199.491
21
-111.868
0
LINE
8
BLACK
6
CONTINUOUS
10
197.516
20
-81.6846
11
197.516
21
-98.868
0
LINE
8
BLACK
6
CONTINUOUS
10
201.004
20
-75.7055
11
158.855
21
-75.7055
0
ARC
8
BLACK
10
201.029
20
-78.6916
40
2.98625
50
-0.277726
51
90.4766
0
LINE
8
BLACK
6
CONTINUOUS
10
204.016
20
-81.6846
11
204.016
21
-78.7061
0
ARC
8
BLACK
10
160.384
20
-108.868
40
3.00005
50
-179.999
51
-90.0004
0
LINE
8
BLACK
6
CONTINUOUS
10
159.36
20
-101.868
11
158.384
21
-101.868
0
LINE
8
BLACK
6
CONTINUOUS
10
197.516
20
-81.6846
11
204.016
21
-81.6846
0
ARC
8
BLACK
10
200.516
20
-98.868
40
2.99995
50
-180.001
51
-89.9997
0
ARC
8
BLACK
10
158.855
20
-78.6947
40
2.9892
50
-270.001
51
-179.793
0
LINE
8
BLACK
6
CONTINUOUS
10
157.384
20
-108.868
11
157.384
21
-102.867
0
LINE
8
BLACK
6
CONTINUOUS
10
155.866
20
-81.6846
11
155.866
21
-78.7055
0
LINE
8
BLACK
6
CONTINUOUS
10
162.366
20
-81.6846
11
162.366
21
-98.868
0
ARC
8
BLACK
10
158.384
20
-102.868
40
1.00001
50
90.0009
51
179.963
0
ARC
8
BLACK
10
199.491
20
-108.868
40
3.00005
50
-89.999
51
-0.000974012
0
LINE
8
BLACK
6
CONTINUOUS
10
200.516
20
-101.868
11
201.491
21
-101.868
0
LINE
8
BLACK
6
CONTINUOUS
10
162.366
20
-81.6846
11
155.866
21
-81.6846
0
ARC
8
BLACK
10
159.366
20
-98.868
40
2.99996
50
-90.1058
51
0.000897646
0
ARC
8
BLACK
10
201.491
20
-102.868
40
1.00005
50
0.00280763
51
90.0029
0
LINE
8
BLACK
6
CONTINUOUS
10
202.491
20
-108.868
11
202.491
21
-102.868
0
LINE
8
BLACK
6
CONTINUOUS
10
169.425
20
-79.5846
11
170.125
21
-80.2846
0
LINE
8
BLACK
6
CONTINUOUS
10
170.125
20
-79.5846
11
169.425
21
-80.2846
0
LINE
8
BLACK
6
CONTINUOUS
10
174.505
20
-79.5846
11
175.206
21
-80.2846
0
LINE
8
BLACK
6
CONTINUOUS
10
175.206
20
-79.5846
11
174.505
21
-80.2846
0
CIRCLE
8
BLACK
10
168.513
20
-93.018
40
0.381
0
CIRCLE
8
BLACK
10
168.513
20
-100.718
40
0.381
0
CIRCLE
8
BLACK
10
191.363
20
-93.018
40
0.381
0
CIRCLE
8
BLACK
10
191.363
20
-100.718
40
0.381
0
LINE
8
BLACK
6
CONTINUOUS
10
158.175
20
-78.1346
11
158.175
21
-79.0346
0
LINE
8
BLACK
6
CONTINUOUS
10
157.725
20
-78.5846
11
158.625
21
-78.5846
0
LINE
8
BLACK
6
CONTINUOUS
10
160.715
20
-78.1346
11
160.715
21
-79.0346
0
LINE
8
BLACK
6
CONTINUOUS
10
160.266
20
-78.5846
11
161.165
21
-78.5846
0
LINE
8
BLACK
6
CONTINUOUS
10
199.886
20
-78.2346
11
199.886
21
-79.1346
0
LINE
8
BLACK
6
CONTINUOUS
10
199.436
20
-78.6846
11
200.337
21
-78.6846
0
LINE
8
BLACK
6
CONTINUOUS
10
202.427
20
-78.2346
11
202.427
21
-79.1346
0
LINE
8
BLACK
6
CONTINUOUS
10
201.976
20
-78.6846
11
202.876
21
-78.6846
0
LINE
8
BLACK
6
CONTINUOUS
10
185.884
20
-78.0712
11
185.884
21
-77.364
0
LINE
8
BLACK
6
CONTINUOUS
10
185.884
20
-77.364
11
185.177
21
-77.364
0
LINE
8
BLACK
6
CONTINUOUS
10
185.177
20
-77.364
11
185.177
21
-78.0712
0
LINE
8
BLACK
6
CONTINUOUS
10
185.177
20
-78.0712
11
185.884
21
-78.0712
0
LINE
8
BLACK
6
CONTINUOUS
10
185.884
20
-80.6112
11
185.884
21
-79.904
0
LINE
8
BLACK
6
CONTINUOUS
10
185.884
20
-79.904
11
185.177
21
-79.904
0
LINE
8
BLACK
6
CONTINUOUS
10
185.177
20
-79.904
11
185.177
21
-80.6112
0
LINE
8
BLACK
6
CONTINUOUS
10
185.177
20
-80.6112
11
185.884
21
-80.6112
0
LINE
8
BLACK
6
CONTINUOUS
10
188.424
20
-78.0712
11
188.424
21
-77.364
0
LINE
8
BLACK
6
CONTINUOUS
10
188.424
20
-77.364
11
187.717
21
-77.364
0
LINE
8
BLACK
6
CONTINUOUS
10
187.717
20
-77.364
11
187.717
21
-78.0712
0
LINE
8
BLACK
6
CONTINUOUS
10
187.717
20
-78.0712
11
188.424
21
-78.0712
0
LINE
8
BLACK
6
CONTINUOUS
10
188.424
20
-80.6112
11
188.424
21
-79.904
0
LINE
8
BLACK
6
CONTINUOUS
10
188.424
20
-79.904
11
187.717
21
-79.904
0
LINE
8
BLACK
6
CONTINUOUS
10
187.717
20
-79.904
11
187.717
21
-80.6112
0
LINE
8
BLACK
6
CONTINUOUS
10
187.717
20
-80.6112
11
188.424
21
-80.6112
0
LINE
8
BLACK
6
CONTINUOUS
10
196.044
20
-106.143
11
196.044
21
-105.436
0
LINE
8
BLACK
6
CONTINUOUS
10
196.044
20
-105.436
11
195.337
21
-105.436
0
LINE
8
BLACK
6
CONTINUOUS
10
195.337
20
-105.436
11
195.337
21
-106.143
0
LINE
8
BLACK
6
CONTINUOUS
10
195.337
20
-106.143
11
196.044
21
-106.143
0
LINE
8
BLACK
6
CONTINUOUS
10
196.044
20
-108.683
11
196.044
21
-107.976
0
LINE
8
BLACK
6
CONTINUOUS
10
196.044
20
-107.976
11
195.337
21
-107.976
0
LINE
8
BLACK
6
CONTINUOUS
10
195.337
20
-107.976
11
195.337
21
-108.683
0
LINE
8
BLACK
6
CONTINUOUS
10
195.337
20
-108.683
11
196.044
21
-108.683
0
LINE
8
BLACK
6
CONTINUOUS
10
158.417
20
-114.998
11
158.417
21
-112.998
0
LINE
8
BLACK
6
CONTINUOUS
10
158.417
20
-112.998
11
158.893
21
-112.998
0
LINE
8
BLACK
6
CONTINUOUS
10
158.893
20
-112.998
11
159.179
21
-113.093
0
LINE
8
BLACK
6
CONTINUOUS
10
159.179
20
-113.093
11
159.369
21
-113.283
0
LINE
8
BLACK
6
CONTINUOUS
10
159.369
20
-113.283
11
159.464
21
-113.474
0
LINE
8
BLACK
6
CONTINUOUS
10
159.464
20
-113.474
11
159.56
21
-113.855
0
LINE
8
BLACK
6
CONTINUOUS
10
159.56
20
-113.855
11
159.56
21
-114.141
0
LINE
8
BLACK
6
CONTINUOUS
10
159.56
20
-114.141
11
159.464
21
-114.522
0
LINE
8
BLACK
6
CONTINUOUS
10
159.464
20
-114.522
11
159.369
21
-114.712
0
LINE
8
BLACK
6
CONTINUOUS
10
159.369
20
-114.712
11
159.179
21
-114.902
0
LINE
8
BLACK
6
CONTINUOUS
10
159.179
20
-114.902
11
158.893
21
-114.998
0
LINE
8
BLACK
6
CONTINUOUS
10
158.893
20
-114.998
11
158.417
21
-114.998
0
LINE
8
BLACK
6
CONTINUOUS
10
160.417
20
-114.998
11
160.417
21
-113.664
0
LINE
8
BLACK
6
CONTINUOUS
10
160.417
20
-114.045
11
160.512
21
-113.855
0
LINE
8
BLACK
6
CONTINUOUS
10
160.512
20
-113.855
11
160.607
21
-113.76
0
LINE
8
BLACK
6
CONTINUOUS
10
160.607
20
-113.76
11
160.798
21
-113.664
0
LINE
8
BLACK
6
CONTINUOUS
10
160.798
20
-113.664
11
160.988
21
-113.664
0
LINE
8
BLACK
6
CONTINUOUS
10
161.655
20
-114.998
11
161.655
21
-113.664
0
LINE
8
BLACK
6
CONTINUOUS
10
161.655
20
-112.998
11
161.56
21
-113.093
0
LINE
8
BLACK
6
CONTINUOUS
10
161.56
20
-113.093
11
161.655
21
-113.188
0
LINE
8
BLACK
6
CONTINUOUS
10
161.655
20
-113.188
11
161.75
21
-113.093
0
LINE
8
BLACK
6
CONTINUOUS
10
161.75
20
-113.093
11
161.655
21
-112.998
0
LINE
8
BLACK
6
CONTINUOUS
10
161.655
20
-112.998
11
161.655
21
-113.188
0
LINE
8
BLACK
6
CONTINUOUS
10
162.893
20
-114.998
11
162.702
21
-114.902
0
LINE
8
BLACK
6
CONTINUOUS
10
162.702
20
-114.902
11
162.607
21
-114.712
0
LINE
8
BLACK
6
CONTINUOUS
10
162.607
20
-114.712
11
162.607
21
-112.998
0
LINE
8
BLACK
6
CONTINUOUS
10
163.94
20
-114.998
11
163.75
21
-114.902
0
LINE
8
BLACK
6
CONTINUOUS
10
163.75
20
-114.902
11
163.655
21
-114.712
0
LINE
8
BLACK
6
CONTINUOUS
10
163.655
20
-114.712
11
163.655
21
-112.998
0
LINE
8
BLACK
6
CONTINUOUS
10
166.226
20
-114.998
11
166.226
21
-112.998
0
LINE
8
BLACK
6
CONTINUOUS
10
166.226
20
-112.998
11
166.893
21
-114.426
0
LINE
8
BLACK
6
CONTINUOUS
10
166.893
20
-114.426
11
167.56
21
-112.998
0
LINE
8
BLACK
6
CONTINUOUS
10
167.56
20
-112.998
11
167.56
21
-114.998
0
LINE
8
BLACK
6
CONTINUOUS
10
169.369
20
-114.998
11
169.369
21
-113.95
0
LINE
8
BLACK
6
CONTINUOUS
10
169.369
20
-113.95
11
169.274
21
-113.76
0
LINE
8
BLACK
6
CONTINUOUS
10
169.274
20
-113.76
11
169.083
21
-113.664
0
LINE
8
BLACK
6
CONTINUOUS
10
169.083
20
-113.664
11
168.702
21
-113.664
0
LINE
8
BLACK
6
CONTINUOUS
10
168.702
20
-113.664
11
168.512
21
-113.76
0
LINE
8
BLACK
6
CONTINUOUS
10
169.369
20
-114.902
11
169.179
21
-114.998
0
LINE
8
BLACK
6
CONTINUOUS
10
169.179
20
-114.998
11
168.702
21
-114.998
0
LINE
8
BLACK
6
CONTINUOUS
10
168.702
20
-114.998
11
168.512
21
-114.902
0
LINE
8
BLACK
6
CONTINUOUS
10
168.512
20
-114.902
11
168.417
21
-114.712
0
LINE
8
BLACK
6
CONTINUOUS
10
168.417
20
-114.712
11
168.417
21
-114.522
0
LINE
8
BLACK
6
CONTINUOUS
10
168.417
20
-114.522
11
168.512
21
-114.331
0
LINE
8
BLACK
6
CONTINUOUS
10
168.512
20
-114.331
11
168.702
21
-114.236
0
LINE
8
BLACK
6
CONTINUOUS
10
168.702
20
-114.236
11
169.179
21
-114.236
0
LINE
8
BLACK
6
CONTINUOUS
10
169.179
20
-114.236
11
169.369
21
-114.141
0
LINE
8
BLACK
6
CONTINUOUS
10
170.321
20
-113.664
11
170.321
21
-115.664
0
LINE
8
BLACK
6
CONTINUOUS
10
170.321
20
-113.76
11
170.512
21
-113.664
0
LINE
8
BLACK
6
CONTINUOUS
10
170.512
20
-113.664
11
170.893
21
-113.664
0
LINE
8
BLACK
6
CONTINUOUS
10
170.893
20
-113.664
11
171.083
21
-113.76
0
LINE
8
BLACK
6
CONTINUOUS
10
171.083
20
-113.76
11
171.179
21
-113.855
0
LINE
8
BLACK
6
CONTINUOUS
10
171.179
20
-113.855
11
171.274
21
-114.045
0
LINE
8
BLACK
6
CONTINUOUS
10
171.274
20
-114.045
11
171.274
21
-114.617
0
LINE
8
BLACK
6
CONTINUOUS
10
171.274
20
-114.617
11
171.179
21
-114.807
0
LINE
8
BLACK
6
CONTINUOUS
10
171.179
20
-114.807
11
171.083
21
-114.902
0
LINE
8
BLACK
6
CONTINUOUS
10
171.083
20
-114.902
11
170.893
21
-114.998
0
LINE
8
BLACK
6
CONTINUOUS
10
170.893
20
-114.998
11
170.512
21
-114.998
0
LINE
8
BLACK
6
CONTINUOUS
10
170.512
20
-114.998
11
170.321
21
-114.902
0
LINE
8
BLACK
6
CONTINUOUS
10
172.131
20
-114.807
11
172.226
21
-114.902
0
LINE
8
BLACK
6
CONTINUOUS
10
172.226
20
-114.902
11
172.131
21
-114.998
0
LINE
8
BLACK
6
CONTINUOUS
10
172.131
20
-114.998
11
172.036
21
-114.902
0
LINE
8
BLACK
6
CONTINUOUS
10
172.036
20
-114.902
11
172.131
21
-114.807
0
LINE
8
BLACK
6
CONTINUOUS
10
172.131
20
-114.807
11
172.131
21
-114.998
0
LINE
8
BLACK
6
CONTINUOUS
10
172.131
20
-113.76
11
172.226
21
-113.855
0
LINE
8
BLACK
6
CONTINUOUS
10
172.226
20
-113.855
11
172.131
21
-113.95
0
LINE
8
BLACK
6
CONTINUOUS
10
172.131
20
-113.95
11
172.036
21
-113.855
0
LINE
8
BLACK
6
CONTINUOUS
10
172.036
20
-113.855
11
172.131
21
-113.76
0
LINE
8
BLACK
6
CONTINUOUS
10
172.131
20
-113.76
11
172.131
21
-113.95
0
LINE
8
BLACK
6
CONTINUOUS
10
155.14
20
-117.943
11
155.84
21
-118.643
0
LINE
8
BLACK
6
CONTINUOUS
10
155.84
20
-117.943
11
155.14
21
-118.643
0
LINE
8
BLACK
6
CONTINUOUS
10
158.798
20
-117.198
11
158.988
21
-117.198
0
LINE
8
BLACK
6
CONTINUOUS
10
158.988
20
-117.198
11
159.179
21
-117.293
0
LINE
8
BLACK
6
CONTINUOUS
10
159.179
20
-117.293
11
159.274
21
-117.388
0
LINE
8
BLACK
6
CONTINUOUS
10
159.274
20
-117.388
11
159.369
21
-117.579
0
LINE
8
BLACK
6
CONTINUOUS
10
159.369
20
-117.579
11
159.464
21
-117.96
0
LINE
8
BLACK
6
CONTINUOUS
10
159.464
20
-117.96
11
159.464
21
-118.436
0
LINE
8
BLACK
6
CONTINUOUS
10
159.464
20
-118.436
11
159.369
21
-118.817
0
LINE
8
BLACK
6
CONTINUOUS
10
159.369
20
-118.817
11
159.274
21
-119.007
0
LINE
8
BLACK
6
CONTINUOUS
10
159.274
20
-119.007
11
159.179
21
-119.102
0
LINE
8
BLACK
6
CONTINUOUS
10
159.179
20
-119.102
11
158.988
21
-119.198
0
LINE
8
BLACK
6
CONTINUOUS
10
158.988
20
-119.198
11
158.798
21
-119.198
0
LINE
8
BLACK
6
CONTINUOUS
10
158.798
20
-119.198
11
158.607
21
-119.102
0
LINE
8
BLACK
6
CONTINUOUS
10
158.607
20
-119.102
11
158.512
21
-119.007
0
LINE
8
BLACK
6
CONTINUOUS
10
158.512
20
-119.007
11
158.417
21
-118.817
0
LINE
8
BLACK
6
CONTINUOUS
10
158.417
20
-118.817
11
158.321
21
-118.436
0
LINE
8
BLACK
6
CONTINUOUS
10
158.321
20
-118.436
11
158.321
21
-117.96
0
LINE
8
BLACK
6
CONTINUOUS
10
158.321
20
-117.96
11
158.417
21
-117.579
0
LINE
8
BLACK
6
CONTINUOUS
10
158.417
20
-117.579
11
158.512
21
-117.388
0
LINE
8
BLACK
6
CONTINUOUS
10
158.512
20
-117.388
11
158.607
21
-117.293
0
LINE
8
BLACK
6
CONTINUOUS
10
158.607
20
-117.293
11
158.798
21
-117.198
0
LINE
8
BLACK
6
CONTINUOUS
10
160.321
20
-119.007
11
160.417
21
-119.102
0
LINE
8
BLACK
6
CONTINUOUS
10
160.417
20
-119.102
11
160.321
21
-119.198
0
LINE
8
BLACK
6
CONTINUOUS
10
160.321
20
-119.198
11
160.226
21
-119.102
0
LINE
8
BLACK
6
CONTINUOUS
10
160.226
20
-119.102
11
160.321
21
-119.007
0
LINE
8
BLACK
6
CONTINUOUS
10
160.321
20
-119.007
11
160.321
21
-119.198
0
LINE
8
BLACK
6
CONTINUOUS
10
161.083
20
-117.198
11
162.417
21
-117.198
0
LINE
8
BLACK
6
CONTINUOUS
10
162.417
20
-117.198
11
161.56
21
-119.198
0
LINE
8
BLACK
6
CONTINUOUS
10
163.56
20
-117.198
11
163.75
21
-117.198
0
LINE
8
BLACK
6
CONTINUOUS
10
163.75
20
-117.198
11
163.94
21
-117.293
0
LINE
8
BLACK
6
CONTINUOUS
10
163.94
20
-117.293
11
164.036
21
-117.388
0
LINE
8
BLACK
6
CONTINUOUS
10
164.036
20
-117.388
11
164.131
21
-117.579
0
LINE
8
BLACK
6
CONTINUOUS
10
164.131
20
-117.579
11
164.226
21
-117.96
0
LINE
8
BLACK
6
CONTINUOUS
10
164.226
20
-117.96
11
164.226
21
-118.436
0
LINE
8
BLACK
6
CONTINUOUS
10
164.226
20
-118.436
11
164.131
21
-118.817
0
LINE
8
BLACK
6
CONTINUOUS
10
164.131
20
-118.817
11
164.036
21
-119.007
0
LINE
8
BLACK
6
CONTINUOUS
10
164.036
20
-119.007
11
163.94
21
-119.102
0
LINE
8
BLACK
6
CONTINUOUS
10
163.94
20
-119.102
11
163.75
21
-119.198
0
LINE
8
BLACK
6
CONTINUOUS
10
163.75
20
-119.198
11
163.56
21
-119.198
0
LINE
8
BLACK
6
CONTINUOUS
10
163.56
20
-119.198
11
163.369
21
-119.102
0
LINE
8
BLACK
6
CONTINUOUS
10
163.369
20
-119.102
11
163.274
21
-119.007
0
LINE
8
BLACK
6
CONTINUOUS
10
163.274
20
-119.007
11
163.179
21
-118.817
0
LINE
8
BLACK
6
CONTINUOUS
10
163.179
20
-118.817
11
163.083
21
-118.436
0
LINE
8
BLACK
6
CONTINUOUS
10
163.083
20
-118.436
11
163.083
21
-117.96
0
LINE
8
BLACK
6
CONTINUOUS
10
163.083
20
-117.96
11
163.179
21
-117.579
0
LINE
8
BLACK
6
CONTINUOUS
10
163.179
20
-117.579
11
163.274
21
-117.388
0
LINE
8
BLACK
6
CONTINUOUS
10
163.274
20
-117.388
11
163.369
21
-117.293
0
LINE
8
BLACK
6
CONTINUOUS
10
163.369
20
-117.293
11
163.56
21
-117.198
0
LINE
8
BLACK
6
CONTINUOUS
10
165.464
20
-117.198
11
165.655
21
-117.198
0
LINE
8
BLACK
6
CONTINUOUS
10
165.655
20
-117.198
11
165.845
21
-117.293
0
LINE
8
BLACK
6
CONTINUOUS
10
165.845
20
-117.293
11
165.94
21
-117.388
0
LINE
8
BLACK
6
CONTINUOUS
10
165.94
20
-117.388
11
166.036
21
-117.579
0
LINE
8
BLACK
6
CONTINUOUS
10
166.036
20
-117.579
11
166.131
21
-117.96
0
LINE
8
BLACK
6
CONTINUOUS
10
166.131
20
-117.96
11
166.131
21
-118.436
0
LINE
8
BLACK
6
CONTINUOUS
10
166.131
20
-118.436
11
166.036
21
-118.817
0
LINE
8
BLACK
6
CONTINUOUS
10
166.036
20
-118.817
11
165.94
21
-119.007
0
LINE
8
BLACK
6
CONTINUOUS
10
165.94
20
-119.007
11
165.845
21
-119.102
0
LINE
8
BLACK
6
CONTINUOUS
10
165.845
20
-119.102
11
165.655
21
-119.198
0
LINE
8
BLACK
6
CONTINUOUS
10
165.655
20
-119.198
11
165.464
21
-119.198
0
LINE
8
BLACK
6
CONTINUOUS
10
165.464
20
-119.198
11
165.274
21
-119.102
0
LINE
8
BLACK
6
CONTINUOUS
10
165.274
20
-119.102
11
165.179
21
-119.007
0
LINE
8
BLACK
6
CONTINUOUS
10
165.179
20
-119.007
11
165.083
21
-118.817
0
LINE
8
BLACK
6
CONTINUOUS
10
165.083
20
-118.817
11
164.988
21
-118.436
0
LINE
8
BLACK
6
CONTINUOUS
10
164.988
20
-118.436
11
164.988
21
-117.96
0
LINE
8
BLACK
6
CONTINUOUS
10
164.988
20
-117.96
11
165.083
21
-117.579
0
LINE
8
BLACK
6
CONTINUOUS
10
165.083
20
-117.579
11
165.179
21
-117.388
0
LINE
8
BLACK
6
CONTINUOUS
10
165.179
20
-117.388
11
165.274
21
-117.293
0
LINE
8
BLACK
6
CONTINUOUS
10
165.274
20
-117.293
11
165.464
21
-117.198
0
LINE
8
BLACK
6
CONTINUOUS
10
166.988
20
-119.198
11
166.988
21
-117.864
0
LINE
8
BLACK
6
CONTINUOUS
10
166.988
20
-118.055
11
167.083
21
-117.96
0
LINE
8
BLACK
6
CONTINUOUS
10
167.083
20
-117.96
11
167.274
21
-117.864
0
LINE
8
BLACK
6
CONTINUOUS
10
167.274
20
-117.864
11
167.56
21
-117.864
0
LINE
8
BLACK
6
CONTINUOUS
10
167.56
20
-117.864
11
167.75
21
-117.96
0
LINE
8
BLACK
6
CONTINUOUS
10
167.75
20
-117.96
11
167.845
21
-118.15
0
LINE
8
BLACK
6
CONTINUOUS
10
167.845
20
-118.15
11
167.845
21
-119.198
0
LINE
8
BLACK
6
CONTINUOUS
10
167.845
20
-118.15
11
167.94
21
-117.96
0
LINE
8
BLACK
6
CONTINUOUS
10
167.94
20
-117.96
11
168.131
21
-117.864
0
LINE
8
BLACK
6
CONTINUOUS
10
168.131
20
-117.864
11
168.417
21
-117.864
0
LINE
8
BLACK
6
CONTINUOUS
10
168.417
20
-117.864
11
168.607
21
-117.96
0
LINE
8
BLACK
6
CONTINUOUS
10
168.607
20
-117.96
11
168.702
21
-118.15
0
LINE
8
BLACK
6
CONTINUOUS
10
168.702
20
-118.15
11
168.702
21
-119.198
0
LINE
8
BLACK
6
CONTINUOUS
10
169.655
20
-119.198
11
169.655
21
-117.864
0
LINE
8
BLACK
6
CONTINUOUS
10
169.655
20
-118.055
11
169.75
21
-117.96
0
LINE
8
BLACK
6
CONTINUOUS
10
169.75
20
-117.96
11
169.94
21
-117.864
0
LINE
8
BLACK
6
CONTINUOUS
10
169.94
20
-117.864
11
170.226
21
-117.864
0
LINE
8
BLACK
6
CONTINUOUS
10
170.226
20
-117.864
11
170.417
21
-117.96
0
LINE
8
BLACK
6
CONTINUOUS
10
170.417
20
-117.96
11
170.512
21
-118.15
0
LINE
8
BLACK
6
CONTINUOUS
10
170.512
20
-118.15
11
170.512
21
-119.198
0
LINE
8
BLACK
6
CONTINUOUS
10
170.512
20
-118.15
11
170.607
21
-117.96
0
LINE
8
BLACK
6
CONTINUOUS
10
170.607
20
-117.96
11
170.798
21
-117.864
0
LINE
8
BLACK
6
CONTINUOUS
10
170.798
20
-117.864
11
171.083
21
-117.864
0
LINE
8
BLACK
6
CONTINUOUS
10
171.083
20
-117.864
11
171.274
21
-117.96
0
LINE
8
BLACK
6
CONTINUOUS
10
171.274
20
-117.96
11
171.369
21
-118.15
0
LINE
8
BLACK
6
CONTINUOUS
10
171.369
20
-118.15
11
171.369
21
-119.198
0
LINE
8
BLACK
6
CONTINUOUS
10
175.274
20
-117.102
11
173.56
21
-119.674
0
LINE
8
BLACK
6
CONTINUOUS
10
177.845
20
-117.198
11
178.036
21
-117.198
0
LINE
8
BLACK
6
CONTINUOUS
10
178.036
20
-117.198
11
178.226
21
-117.293
0
LINE
8
BLACK
6
CONTINUOUS
10
178.226
20
-117.293
11
178.321
21
-117.388
0
LINE
8
BLACK
6
CONTINUOUS
10
178.321
20
-117.388
11
178.417
21
-117.579
0
LINE
8
BLACK
6
CONTINUOUS
10
178.417
20
-117.579
11
178.512
21
-117.96
0
LINE
8
BLACK
6
CONTINUOUS
10
178.512
20
-117.96
11
178.512
21
-118.436
0
LINE
8
BLACK
6
CONTINUOUS
10
178.512
20
-118.436
11
178.417
21
-118.817
0
LINE
8
BLACK
6
CONTINUOUS
10
178.417
20
-118.817
11
178.321
21
-119.007
0
LINE
8
BLACK
6
CONTINUOUS
10
178.321
20
-119.007
11
178.226
21
-119.102
0
LINE
8
BLACK
6
CONTINUOUS
10
178.226
20
-119.102
11
178.036
21
-119.198
0
LINE
8
BLACK
6
CONTINUOUS
10
178.036
20
-119.198
11
177.845
21
-119.198
0
LINE
8
BLACK
6
CONTINUOUS
10
177.845
20
-119.198
11
177.655
21
-119.102
0
LINE
8
BLACK
6
CONTINUOUS
10
177.655
20
-119.102
11
177.56
21
-119.007
0
LINE
8
BLACK
6
CONTINUOUS
10
177.56
20
-119.007
11
177.464
21
-118.817
0
LINE
8
BLACK
6
CONTINUOUS
10
177.464
20
-118.817
11
177.369
21
-118.436
0
LINE
8
BLACK
6
CONTINUOUS
10
177.369
20
-118.436
11
177.369
21
-117.96
0
LINE
8
BLACK
6
CONTINUOUS
10
177.369
20
-117.96
11
177.464
21
-117.579
0
LINE
8
BLACK
6
CONTINUOUS
10
177.464
20
-117.579
11
177.56
21
-117.388
0
LINE
8
BLACK
6
CONTINUOUS
10
177.56
20
-117.388
11
177.655
21
-117.293
0
LINE
8
BLACK
6
CONTINUOUS
10
177.655
20
-117.293
11
177.845
21
-117.198
0
LINE
8
BLACK
6
CONTINUOUS
10
179.369
20
-119.007
11
179.464
21
-119.102
0
LINE
8
BLACK
6
CONTINUOUS
10
179.464
20
-119.102
11
179.369
21
-119.198
0
LINE
8
BLACK
6
CONTINUOUS
10
179.369
20
-119.198
11
179.274
21
-119.102
0
LINE
8
BLACK
6
CONTINUOUS
10
179.274
20
-119.102
11
179.369
21
-119.007
0
LINE
8
BLACK
6
CONTINUOUS
10
179.369
20
-119.007
11
179.369
21
-119.198
0
LINE
8
BLACK
6
CONTINUOUS
10
180.702
20
-117.198
11
180.893
21
-117.198
0
LINE
8
BLACK
6
CONTINUOUS
10
180.893
20
-117.198
11
181.083
21
-117.293
0
LINE
8
BLACK
6
CONTINUOUS
10
181.083
20
-117.293
11
181.179
21
-117.388
0
LINE
8
BLACK
6
CONTINUOUS
10
181.179
20
-117.388
11
181.274
21
-117.579
0
LINE
8
BLACK
6
CONTINUOUS
10
181.274
20
-117.579
11
181.369
21
-117.96
0
LINE
8
BLACK
6
CONTINUOUS
10
181.369
20
-117.96
11
181.369
21
-118.436
0
LINE
8
BLACK
6
CONTINUOUS
10
181.369
20
-118.436
11
181.274
21
-118.817
0
LINE
8
BLACK
6
CONTINUOUS
10
181.274
20
-118.817
11
181.179
21
-119.007
0
LINE
8
BLACK
6
CONTINUOUS
10
181.179
20
-119.007
11
181.083
21
-119.102
0
LINE
8
BLACK
6
CONTINUOUS
10
181.083
20
-119.102
11
180.893
21
-119.198
0
LINE
8
BLACK
6
CONTINUOUS
10
180.893
20
-119.198
11
180.702
21
-119.198
0
LINE
8
BLACK
6
CONTINUOUS
10
180.702
20
-119.198
11
180.512
21
-119.102
0
LINE
8
BLACK
6
CONTINUOUS
10
180.512
20
-119.102
11
180.417
21
-119.007
0
LINE
8
BLACK
6
CONTINUOUS
10
180.417
20
-119.007
11
180.321
21
-118.817
0
LINE
8
BLACK
6
CONTINUOUS
10
180.321
20
-118.817
11
180.226
21
-118.436
0
LINE
8
BLACK
6
CONTINUOUS
10
180.226
20
-118.436
11
180.226
21
-117.96
0
LINE
8
BLACK
6
CONTINUOUS
10
180.226
20
-117.96
11
180.321
21
-117.579
0
LINE
8
BLACK
6
CONTINUOUS
10
180.321
20
-117.579
11
180.417
21
-117.388
0
LINE
8
BLACK
6
CONTINUOUS
10
180.417
20
-117.388
11
180.512
21
-117.293
0
LINE
8
BLACK
6
CONTINUOUS
10
180.512
20
-117.293
11
180.702
21
-117.198
0
LINE
8
BLACK
6
CONTINUOUS
10
182.131
20
-117.388
11
182.226
21
-117.293
0
LINE
8
BLACK
6
CONTINUOUS
10
182.226
20
-117.293
11
182.417
21
-117.198
0
LINE
8
BLACK
6
CONTINUOUS
10
182.417
20
-117.198
11
182.893
21
-117.198
0
LINE
8
BLACK
6
CONTINUOUS
10
182.893
20
-117.198
11
183.083
21
-117.293
0
LINE
8
BLACK
6
CONTINUOUS
10
183.083
20
-117.293
11
183.179
21
-117.388
0
LINE
8
BLACK
6
CONTINUOUS
10
183.179
20
-117.388
11
183.274
21
-117.579
0
LINE
8
BLACK
6
CONTINUOUS
10
183.274
20
-117.579
11
183.274
21
-117.769
0
LINE
8
BLACK
6
CONTINUOUS
10
183.274
20
-117.769
11
183.179
21
-118.055
0
LINE
8
BLACK
6
CONTINUOUS
10
183.179
20
-118.055
11
182.036
21
-119.198
0
LINE
8
BLACK
6
CONTINUOUS
10
182.036
20
-119.198
11
183.274
21
-119.198
0
LINE
8
BLACK
6
CONTINUOUS
10
183.94
20
-117.198
11
185.274
21
-117.198
0
LINE
8
BLACK
6
CONTINUOUS
10
185.274
20
-117.198
11
184.417
21
-119.198
0
LINE
8
BLACK
6
CONTINUOUS
10
186.893
20
-117.198
11
186.512
21
-117.198
0
LINE
8
BLACK
6
CONTINUOUS
10
186.512
20
-117.198
11
186.321
21
-117.293
0
LINE
8
BLACK
6
CONTINUOUS
10
186.321
20
-117.293
11
186.226
21
-117.388
0
LINE
8
BLACK
6
CONTINUOUS
10
186.226
20
-117.388
11
186.036
21
-117.674
0
LINE
8
BLACK
6
CONTINUOUS
10
186.036
20
-117.674
11
185.94
21
-118.055
0
LINE
8
BLACK
6
CONTINUOUS
10
185.94
20
-118.055
11
185.94
21
-118.817
0
LINE
8
BLACK
6
CONTINUOUS
10
185.94
20
-118.817
11
186.036
21
-119.007
0
LINE
8
BLACK
6
CONTINUOUS
10
186.036
20
-119.007
11
186.131
21
-119.102
0
LINE
8
BLACK
6
CONTINUOUS
10
186.131
20
-119.102
11
186.321
21
-119.198
0
LINE
8
BLACK
6
CONTINUOUS
10
186.321
20
-119.198
11
186.702
21
-119.198
0
LINE
8
BLACK
6
CONTINUOUS
10
186.702
20
-119.198
11
186.893
21
-119.102
0
LINE
8
BLACK
6
CONTINUOUS
10
186.893
20
-119.102
11
186.988
21
-119.007
0
LINE
8
BLACK
6
CONTINUOUS
10
186.988
20
-119.007
11
187.083
21
-118.817
0
LINE
8
BLACK
6
CONTINUOUS
10
187.083
20
-118.817
11
187.083
21
-118.341
0
LINE
8
BLACK
6
CONTINUOUS
10
187.083
20
-118.341
11
186.988
21
-118.15
0
LINE
8
BLACK
6
CONTINUOUS
10
186.988
20
-118.15
11
186.893
21
-118.055
0
LINE
8
BLACK
6
CONTINUOUS
10
186.893
20
-118.055
11
186.702
21
-117.96
0
LINE
8
BLACK
6
CONTINUOUS
10
186.702
20
-117.96
11
186.321
21
-117.96
0
LINE
8
BLACK
6
CONTINUOUS
10
186.321
20
-117.96
11
186.131
21
-118.055
0
LINE
8
BLACK
6
CONTINUOUS
10
186.131
20
-118.055
11
186.036
21
-118.15
0
LINE
8
BLACK
6
CONTINUOUS
10
186.036
20
-118.15
11
185.94
21
-118.341
0
LINE
8
BLACK
6
CONTINUOUS
10
187.845
20
-117.198
11
187.845
21
-117.579
0
LINE
8
BLACK
6
CONTINUOUS
10
188.607
20
-117.198
11
188.607
21
-117.579
0
LINE
8
BLACK
6
CONTINUOUS
10
191.56
20
-119.96
11
191.464
21
-119.864
0
LINE
8
BLACK
6
CONTINUOUS
10
191.464
20
-119.864
11
191.274
21
-119.579
0
LINE
8
BLACK
6
CONTINUOUS
10
191.274
20
-119.579
11
191.179
21
-119.388
0
LINE
8
BLACK
6
CONTINUOUS
10
191.179
20
-119.388
11
191.083
21
-119.102
0
LINE
8
BLACK
6
CONTINUOUS
10
191.083
20
-119.102
11
190.988
21
-118.626
0
LINE
8
BLACK
6
CONTINUOUS
10
190.988
20
-118.626
11
190.988
21
-118.245
0
LINE
8
BLACK
6
CONTINUOUS
10
190.988
20
-118.245
11
191.083
21
-117.769
0
LINE
8
BLACK
6
CONTINUOUS
10
191.083
20
-117.769
11
191.179
21
-117.483
0
LINE
8
BLACK
6
CONTINUOUS
10
191.179
20
-117.483
11
191.274
21
-117.293
0
LINE
8
BLACK
6
CONTINUOUS
10
191.274
20
-117.293
11
191.464
21
-117.007
0
LINE
8
BLACK
6
CONTINUOUS
10
191.464
20
-117.007
11
191.56
21
-116.912
0
LINE
8
BLACK
6
CONTINUOUS
10
192.226
20
-117.388
11
192.321
21
-117.293
0
LINE
8
BLACK
6
CONTINUOUS
10
192.321
20
-117.293
11
192.512
21
-117.198
0
LINE
8
BLACK
6
CONTINUOUS
10
192.512
20
-117.198
11
192.988
21
-117.198
0
LINE
8
BLACK
6
CONTINUOUS
10
192.988
20
-117.198
11
193.179
21
-117.293
0
LINE
8
BLACK
6
CONTINUOUS
10
193.179
20
-117.293
11
193.274
21
-117.388
0
LINE
8
BLACK
6
CONTINUOUS
10
193.274
20
-117.388
11
193.369
21
-117.579
0
LINE
8
BLACK
6
CONTINUOUS
10
193.369
20
-117.579
11
193.369
21
-117.769
0
LINE
8
BLACK
6
CONTINUOUS
10
193.369
20
-117.769
11
193.274
21
-118.055
0
LINE
8
BLACK
6
CONTINUOUS
10
193.274
20
-118.055
11
192.131
21
-119.198
0
LINE
8
BLACK
6
CONTINUOUS
10
192.131
20
-119.198
11
193.369
21
-119.198
0
LINE
8
BLACK
6
CONTINUOUS
10
195.75
20
-119.198
11
195.75
21
-117.198
0
LINE
8
BLACK
6
CONTINUOUS
10
196.607
20
-119.198
11
196.607
21
-118.15
0
LINE
8
BLACK
6
CONTINUOUS
10
196.607
20
-118.15
11
196.512
21
-117.96
0
LINE
8
BLACK
6
CONTINUOUS
10
196.512
20
-117.96
11
196.321
21
-117.864
0
LINE
8
BLACK
6
CONTINUOUS
10
196.321
20
-117.864
11
196.036
21
-117.864
0
LINE
8
BLACK
6
CONTINUOUS
10
196.036
20
-117.864
11
195.845
21
-117.96
0
LINE
8
BLACK
6
CONTINUOUS
10
195.845
20
-117.96
11
195.75
21
-118.055
0
LINE
8
BLACK
6
CONTINUOUS
10
197.845
20
-119.198
11
197.655
21
-119.102
0
LINE
8
BLACK
6
CONTINUOUS
10
197.655
20
-119.102
11
197.56
21
-119.007
0
LINE
8
BLACK
6
CONTINUOUS
10
197.56
20
-119.007
11
197.464
21
-118.817
0
LINE
8
BLACK
6
CONTINUOUS
10
197.464
20
-118.817
11
197.464
21
-118.245
0
LINE
8
BLACK
6
CONTINUOUS
10
197.464
20
-118.245
11
197.56
21
-118.055
0
LINE
8
BLACK
6
CONTINUOUS
10
197.56
20
-118.055
11
197.655
21
-117.96
0
LINE
8
BLACK
6
CONTINUOUS
10
197.655
20
-117.96
11
197.845
21
-117.864
0
LINE
8
BLACK
6
CONTINUOUS
10
197.845
20
-117.864
11
198.131
21
-117.864
0
LINE
8
BLACK
6
CONTINUOUS
10
198.131
20
-117.864
11
198.321
21
-117.96
0
LINE
8
BLACK
6
CONTINUOUS
10
198.321
20
-117.96
11
198.417
21
-118.055
0
LINE
8
BLACK
6
CONTINUOUS
10
198.417
20
-118.055
11
198.512
21
-118.245
0
LINE
8
BLACK
6
CONTINUOUS
10
198.512
20
-118.245
11
198.512
21
-118.817
0
LINE
8
BLACK
6
CONTINUOUS
10
198.512
20
-118.817
11
198.417
21
-119.007
0
LINE
8
BLACK
6
CONTINUOUS
10
198.417
20
-119.007
11
198.321
21
-119.102
0
LINE
8
BLACK
6
CONTINUOUS
10
198.321
20
-119.102
11
198.131
21
-119.198
0
LINE
8
BLACK
6
CONTINUOUS
10
198.131
20
-119.198
11
197.845
21
-119.198
0
LINE
8
BLACK
6
CONTINUOUS
10
199.655
20
-119.198
11
199.464
21
-119.102
0
LINE
8
BLACK
6
CONTINUOUS
10
199.464
20
-119.102
11
199.369
21
-118.912
0
LINE
8
BLACK
6
CONTINUOUS
10
199.369
20
-118.912
11
199.369
21
-117.198
0
LINE
8
BLACK
6
CONTINUOUS
10
201.179
20
-119.102
11
200.988
21
-119.198
0
LINE
8
BLACK
6
CONTINUOUS
10
200.988
20
-119.198
11
200.607
21
-119.198
0
LINE
8
BLACK
6
CONTINUOUS
10
200.607
20
-119.198
11
200.417
21
-119.102
0
LINE
8
BLACK
6
CONTINUOUS
10
200.417
20
-119.102
11
200.321
21
-118.912
0
LINE
8
BLACK
6
CONTINUOUS
10
200.321
20
-118.912
11
200.321
21
-118.15
0
LINE
8
BLACK
6
CONTINUOUS
10
200.321
20
-118.15
11
200.417
21
-117.96
0
LINE
8
BLACK
6
CONTINUOUS
10
200.417
20
-117.96
11
200.607
21
-117.864
0
LINE
8
BLACK
6
CONTINUOUS
10
200.607
20
-117.864
11
200.988
21
-117.864
0
LINE
8
BLACK
6
CONTINUOUS
10
200.988
20
-117.864
11
201.179
21
-117.96
0
LINE
8
BLACK
6
CONTINUOUS
10
201.179
20
-117.96
11
201.274
21
-118.15
0
LINE
8
BLACK
6
CONTINUOUS
10
201.274
20
-118.15
11
201.274
21
-118.341
0
LINE
8
BLACK
6
CONTINUOUS
10
201.274
20
-118.341
11
200.321
21
-118.531
0
LINE
8
BLACK
6
CONTINUOUS
10
202.036
20
-119.102
11
202.226
21
-119.198
0
LINE
8
BLACK
6
CONTINUOUS
10
202.226
20
-119.198
11
202.607
21
-119.198
0
LINE
8
BLACK
6
CONTINUOUS
10
202.607
20
-119.198
11
202.798
21
-119.102
0
LINE
8
BLACK
6
CONTINUOUS
10
202.798
20
-119.102
11
202.893
21
-118.912
0
LINE
8
BLACK
6
CONTINUOUS
10
202.893
20
-118.912
11
202.893
21
-118.817
0
LINE
8
BLACK
6
CONTINUOUS
10
202.893
20
-118.817
11
202.798
21
-118.626
0
LINE
8
BLACK
6
CONTINUOUS
10
202.798
20
-118.626
11
202.607
21
-118.531
0
LINE
8
BLACK
6
CONTINUOUS
10
202.607
20
-118.531
11
202.321
21
-118.531
0
LINE
8
BLACK
6
CONTINUOUS
10
202.321
20
-118.531
11
202.131
21
-118.436
0
LINE
8
BLACK
6
CONTINUOUS
10
202.131
20
-118.436
11
202.036
21
-118.245
0
LINE
8
BLACK
6
CONTINUOUS
10
202.036
20
-118.245
11
202.036
21
-118.15
0
LINE
8
BLACK
6
CONTINUOUS
10
202.036
20
-118.15
11
202.131
21
-117.96
0
LINE
8
BLACK
6
CONTINUOUS
10
202.131
20
-117.96
11
202.321
21
-117.864
0
LINE
8
BLACK
6
CONTINUOUS
10
202.321
20
-117.864
11
202.607
21
-117.864
0
LINE
8
BLACK
6
CONTINUOUS
10
202.607
20
-117.864
11
202.798
21
-117.96
0
LINE
8
BLACK
6
CONTINUOUS
10
203.56
20
-119.96
11
203.655
21
-119.864
0
LINE
8
BLACK
6
CONTINUOUS
10
203.655
20
-119.864
11
203.845
21
-119.579
0
LINE
8
BLACK
6
CONTINUOUS
10
203.845
20
-119.579
11
203.94
21
-119.388
0
LINE
8
BLACK
6
CONTINUOUS
10
203.94
20
-119.388
11
204.036
21
-119.102
0
LINE
8
BLACK
6
CONTINUOUS
10
204.036
20
-119.102
11
204.131
21
-118.626
0
LINE
8
BLACK
6
CONTINUOUS
10
204.131
20
-118.626
11
204.131
21
-118.245
0
LINE
8
BLACK
6
CONTINUOUS
10
204.131
20
-118.245
11
204.036
21
-117.769
0
LINE
8
BLACK
6
CONTINUOUS
10
204.036
20
-117.769
11
203.94
21
-117.483
0
LINE
8
BLACK
6
CONTINUOUS
10
203.94
20
-117.483
11
203.845
21
-117.293
0
LINE
8
BLACK
6
CONTINUOUS
10
203.845
20
-117.293
11
203.655
21
-117.007
0
LINE
8
BLACK
6
CONTINUOUS
10
203.655
20
-117.007
11
203.56
21
-116.912
0
CIRCLE
8
BLACK
10
155.459
20
-120.933
40
0.381
0
LINE
8
BLACK
6
CONTINUOUS
10
158.798
20
-119.838
11
158.988
21
-119.838
0
LINE
8
BLACK
6
CONTINUOUS
10
158.988
20
-119.838
11
159.179
21
-119.933
0
LINE
8
BLACK
6
CONTINUOUS
10
159.179
20
-119.933
11
159.274
21
-120.028
0
LINE
8
BLACK
6
CONTINUOUS
10
159.274
20
-120.028
11
159.369
21
-120.219
0
LINE
8
BLACK
6
CONTINUOUS
10
159.369
20
-120.219
11
159.464
21
-120.6
0
LINE
8
BLACK
6
CONTINUOUS
10
159.464
20
-120.6
11
159.464
21
-121.076
0
LINE
8
BLACK
6
CONTINUOUS
10
159.464
20
-121.076
11
159.369
21
-121.457
0
LINE
8
BLACK
6
CONTINUOUS
10
159.369
20
-121.457
11
159.274
21
-121.647
0
LINE
8
BLACK
6
CONTINUOUS
10
159.274
20
-121.647
11
159.179
21
-121.742
0
LINE
8
BLACK
6
CONTINUOUS
10
159.179
20
-121.742
11
158.988
21
-121.838
0
LINE
8
BLACK
6
CONTINUOUS
10
158.988
20
-121.838
11
158.798
21
-121.838
0
LINE
8
BLACK
6
CONTINUOUS
10
158.798
20
-121.838
11
158.607
21
-121.742
0
LINE
8
BLACK
6
CONTINUOUS
10
158.607
20
-121.742
11
158.512
21
-121.647
0
LINE
8
BLACK
6
CONTINUOUS
10
158.512
20
-121.647
11
158.417
21
-121.457
0
LINE
8
BLACK
6
CONTINUOUS
10
158.417
20
-121.457
11
158.321
21
-121.076
0
LINE
8
BLACK
6
CONTINUOUS
10
158.321
20
-121.076
11
158.321
21
-120.6
0
LINE
8
BLACK
6
CONTINUOUS
10
158.321
20
-120.6
11
158.417
21
-120.219
0
LINE
8
BLACK
6
CONTINUOUS
10
158.417
20
-120.219
11
158.512
21
-120.028
0
LINE
8
BLACK
6
CONTINUOUS
10
158.512
20
-120.028
11
158.607
21
-119.933
0
LINE
8
BLACK
6
CONTINUOUS
10
158.607
20
-119.933
11
158.798
21
-119.838
0
LINE
8
BLACK
6
CONTINUOUS
10
160.321
20
-121.647
11
160.417
21
-121.742
0
LINE
8
BLACK
6
CONTINUOUS
10
160.417
20
-121.742
11
160.321
21
-121.838
0
LINE
8
BLACK
6
CONTINUOUS
10
160.321
20
-121.838
11
160.226
21
-121.742
0
LINE
8
BLACK
6
CONTINUOUS
10
160.226
20
-121.742
11
160.321
21
-121.647
0
LINE
8
BLACK
6
CONTINUOUS
10
160.321
20
-121.647
11
160.321
21
-121.838
0
LINE
8
BLACK
6
CONTINUOUS
10
161.083
20
-119.838
11
162.417
21
-119.838
0
LINE
8
BLACK
6
CONTINUOUS
10
162.417
20
-119.838
11
161.56
21
-121.838
0
LINE
8
BLACK
6
CONTINUOUS
10
164.036
20
-119.838
11
163.655
21
-119.838
0
LINE
8
BLACK
6
CONTINUOUS
10
163.655
20
-119.838
11
163.464
21
-119.933
0
LINE
8
BLACK
6
CONTINUOUS
10
163.464
20
-119.933
11
163.369
21
-120.028
0
LINE
8
BLACK
6
CONTINUOUS
10
163.369
20
-120.028
11
163.179
21
-120.314
0
LINE
8
BLACK
6
CONTINUOUS
10
163.179
20
-120.314
11
163.083
21
-120.695
0
LINE
8
BLACK
6
CONTINUOUS
10
163.083
20
-120.695
11
163.083
21
-121.457
0
LINE
8
BLACK
6
CONTINUOUS
10
163.083
20
-121.457
11
163.179
21
-121.647
0
LINE
8
BLACK
6
CONTINUOUS
10
163.179
20
-121.647
11
163.274
21
-121.742
0
LINE
8
BLACK
6
CONTINUOUS
10
163.274
20
-121.742
11
163.464
21
-121.838
0
LINE
8
BLACK
6
CONTINUOUS
10
163.464
20
-121.838
11
163.845
21
-121.838
0
LINE
8
BLACK
6
CONTINUOUS
10
163.845
20
-121.838
11
164.036
21
-121.742
0
LINE
8
BLACK
6
CONTINUOUS
10
164.036
20
-121.742
11
164.131
21
-121.647
0
LINE
8
BLACK
6
CONTINUOUS
10
164.131
20
-121.647
11
164.226
21
-121.457
0
LINE
8
BLACK
6
CONTINUOUS
10
164.226
20
-121.457
11
164.226
21
-120.981
0
LINE
8
BLACK
6
CONTINUOUS
10
164.226
20
-120.981
11
164.131
21
-120.79
0
LINE
8
BLACK
6
CONTINUOUS
10
164.131
20
-120.79
11
164.036
21
-120.695
0
LINE
8
BLACK
6
CONTINUOUS
10
164.036
20
-120.695
11
163.845
21
-120.6
0
LINE
8
BLACK
6
CONTINUOUS
10
163.845
20
-120.6
11
163.464
21
-120.6
0
LINE
8
BLACK
6
CONTINUOUS
10
163.464
20
-120.6
11
163.274
21
-120.695
0
LINE
8
BLACK
6
CONTINUOUS
10
163.274
20
-120.695
11
163.179
21
-120.79
0
LINE
8
BLACK
6
CONTINUOUS
10
163.179
20
-120.79
11
163.083
21
-120.981
0
LINE
8
BLACK
6
CONTINUOUS
10
164.988
20
-120.028
11
165.083
21
-119.933
0
LINE
8
BLACK
6
CONTINUOUS
10
165.083
20
-119.933
11
165.274
21
-119.838
0
LINE
8
BLACK
6
CONTINUOUS
10
165.274
20
-119.838
11
165.75
21
-119.838
0
LINE
8
BLACK
6
CONTINUOUS
10
165.75
20
-119.838
11
165.94
21
-119.933
0
LINE
8
BLACK
6
CONTINUOUS
10
165.94
20
-119.933
11
166.036
21
-120.028
0
LINE
8
BLACK
6
CONTINUOUS
10
166.036
20
-120.028
11
166.131
21
-120.219
0
LINE
8
BLACK
6
CONTINUOUS
10
166.131
20
-120.219
11
166.131
21
-120.409
0
LINE
8
BLACK
6
CONTINUOUS
10
166.131
20
-120.409
11
166.036
21
-120.695
0
LINE
8
BLACK
6
CONTINUOUS
10
166.036
20
-120.695
11
164.893
21
-121.838
0
LINE
8
BLACK
6
CONTINUOUS
10
164.893
20
-121.838
11
166.131
21
-121.838
0
LINE
8
BLACK
6
CONTINUOUS
10
166.988
20
-121.838
11
166.988
21
-120.504
0
LINE
8
BLACK
6
CONTINUOUS
10
166.988
20
-120.695
11
167.083
21
-120.6
0
LINE
8
BLACK
6
CONTINUOUS
10
167.083
20
-120.6
11
167.274
21
-120.504
0
LINE
8
BLACK
6
CONTINUOUS
10
167.274
20
-120.504
11
167.56
21
-120.504
0
LINE
8
BLACK
6
CONTINUOUS
10
167.56
20
-120.504
11
167.75
21
-120.6
0
LINE
8
BLACK
6
CONTINUOUS
10
167.75
20
-120.6
11
167.845
21
-120.79
0
LINE
8
BLACK
6
CONTINUOUS
10
167.845
20
-120.79
11
167.845
21
-121.838
0
LINE
8
BLACK
6
CONTINUOUS
10
167.845
20
-120.79
11
167.94
21
-120.6
0
LINE
8
BLACK
6
CONTINUOUS
10
167.94
20
-120.6
11
168.131
21
-120.504
0
LINE
8
BLACK
6
CONTINUOUS
10
168.131
20
-120.504
11
168.417
21
-120.504
0
LINE
8
BLACK
6
CONTINUOUS
10
168.417
20
-120.504
11
168.607
21
-120.6
0
LINE
8
BLACK
6
CONTINUOUS
10
168.607
20
-120.6
11
168.702
21
-120.79
0
LINE
8
BLACK
6
CONTINUOUS
10
168.702
20
-120.79
11
168.702
21
-121.838
0
LINE
8
BLACK
6
CONTINUOUS
10
169.655
20
-121.838
11
169.655
21
-120.504
0
LINE
8
BLACK
6
CONTINUOUS
10
169.655
20
-120.695
11
169.75
21
-120.6
0
LINE
8
BLACK
6
CONTINUOUS
10
169.75
20
-120.6
11
169.94
21
-120.504
0
LINE
8
BLACK
6
CONTINUOUS
10
169.94
20
-120.504
11
170.226
21
-120.504
0
LINE
8
BLACK
6
CONTINUOUS
10
170.226
20
-120.504
11
170.417
21
-120.6
0
LINE
8
BLACK
6
CONTINUOUS
10
170.417
20
-120.6
11
170.512
21
-120.79
0
LINE
8
BLACK
6
CONTINUOUS
10
170.512
20
-120.79
11
170.512
21
-121.838
0
LINE
8
BLACK
6
CONTINUOUS
10
170.512
20
-120.79
11
170.607
21
-120.6
0
LINE
8
BLACK
6
CONTINUOUS
10
170.607
20
-120.6
11
170.798
21
-120.504
0
LINE
8
BLACK
6
CONTINUOUS
10
170.798
20
-120.504
11
171.083
21
-120.504
0
LINE
8
BLACK
6
CONTINUOUS
10
171.083
20
-120.504
11
171.274
21
-120.6
0
LINE
8
BLACK
6
CONTINUOUS
10
171.274
20
-120.6
11
171.369
21
-120.79
0
LINE
8
BLACK
6
CONTINUOUS
10
171.369
20
-120.79
11
171.369
21
-121.838
0
LINE
8
BLACK
6
CONTINUOUS
10
175.274
20
-119.742
11
173.56
21
-122.314
0
LINE
8
BLACK
6
CONTINUOUS
10
177.845
20
-119.838
11
178.036
21
-119.838
0
LINE
8
BLACK
6
CONTINUOUS
10
178.036
20
-119.838
11
178.226
21
-119.933
0
LINE
8
BLACK
6
CONTINUOUS
10
178.226
20
-119.933
11
178.321
21
-120.028
0
LINE
8
BLACK
6
CONTINUOUS
10
178.321
20
-120.028
11
178.417
21
-120.219
0
LINE
8
BLACK
6
CONTINUOUS
10
178.417
20
-120.219
11
178.512
21
-120.6
0
LINE
8
BLACK
6
CONTINUOUS
10
178.512
20
-120.6
11
178.512
21
-121.076
0
LINE
8
BLACK
6
CONTINUOUS
10
178.512
20
-121.076
11
178.417
21
-121.457
0
LINE
8
BLACK
6
CONTINUOUS
10
178.417
20
-121.457
11
178.321
21
-121.647
0
LINE
8
BLACK
6
CONTINUOUS
10
178.321
20
-121.647
11
178.226
21
-121.742
0
LINE
8
BLACK
6
CONTINUOUS
10
178.226
20
-121.742
11
178.036
21
-121.838
0
LINE
8
BLACK
6
CONTINUOUS
10
178.036
20
-121.838
11
177.845
21
-121.838
0
LINE
8
BLACK
6
CONTINUOUS
10
177.845
20
-121.838
11
177.655
21
-121.742
0
LINE
8
BLACK
6
CONTINUOUS
10
177.655
20
-121.742
11
177.56
21
-121.647
0
LINE
8
BLACK
6
CONTINUOUS
10
177.56
20
-121.647
11
177.464
21
-121.457
0
LINE
8
BLACK
6
CONTINUOUS
10
177.464
20
-121.457
11
177.369
21
-121.076
0
LINE
8
BLACK
6
CONTINUOUS
10
177.369
20
-121.076
11
177.369
21
-120.6
0
LINE
8
BLACK
6
CONTINUOUS
10
177.369
20
-120.6
11
177.464
21
-120.219
0
LINE
8
BLACK
6
CONTINUOUS
10
177.464
20
-120.219
11
177.56
21
-120.028
0
LINE
8
BLACK
6
CONTINUOUS
10
177.56
20
-120.028
11
177.655
21
-119.933
0
LINE
8
BLACK
6
CONTINUOUS
10
177.655
20
-119.933
11
177.845
21
-119.838
0
LINE
8
BLACK
6
CONTINUOUS
10
179.369
20
-121.647
11
179.464
21
-121.742
0
LINE
8
BLACK
6
CONTINUOUS
10
179.464
20
-121.742
11
179.369
21
-121.838
0
LINE
8
BLACK
6
CONTINUOUS
10
179.369
20
-121.838
11
179.274
21
-121.742
0
LINE
8
BLACK
6
CONTINUOUS
10
179.274
20
-121.742
11
179.369
21
-121.647
0
LINE
8
BLACK
6
CONTINUOUS
10
179.369
20
-121.647
11
179.369
21
-121.838
0
LINE
8
BLACK
6
CONTINUOUS
10
180.702
20
-119.838
11
180.893
21
-119.838
0
LINE
8
BLACK
6
CONTINUOUS
10
180.893
20
-119.838
11
181.083
21
-119.933
0
LINE
8
BLACK
6
CONTINUOUS
10
181.083
20
-119.933
11
181.179
21
-120.028
0
LINE
8
BLACK
6
CONTINUOUS
10
181.179
20
-120.028
11
181.274
21
-120.219
0
LINE
8
BLACK
6
CONTINUOUS
10
181.274
20
-120.219
11
181.369
21
-120.6
0
LINE
8
BLACK
6
CONTINUOUS
10
181.369
20
-120.6
11
181.369
21
-121.076
0
LINE
8
BLACK
6
CONTINUOUS
10
181.369
20
-121.076
11
181.274
21
-121.457
0
LINE
8
BLACK
6
CONTINUOUS
10
181.274
20
-121.457
11
181.179
21
-121.647
0
LINE
8
BLACK
6
CONTINUOUS
10
181.179
20
-121.647
11
181.083
21
-121.742
0
LINE
8
BLACK
6
CONTINUOUS
10
181.083
20
-121.742
11
180.893
21
-121.838
0
LINE
8
BLACK
6
CONTINUOUS
10
180.893
20
-121.838
11
180.702
21
-121.838
0
LINE
8
BLACK
6
CONTINUOUS
10
180.702
20
-121.838
11
180.512
21
-121.742
0
LINE
8
BLACK
6
CONTINUOUS
10
180.512
20
-121.742
11
180.417
21
-121.647
0
LINE
8
BLACK
6
CONTINUOUS
10
180.417
20
-121.647
11
180.321
21
-121.457
0
LINE
8
BLACK
6
CONTINUOUS
10
180.321
20
-121.457
11
180.226
21
-121.076
0
LINE
8
BLACK
6
CONTINUOUS
10
180.226
20
-121.076
11
180.226
21
-120.6
0
LINE
8
BLACK
6
CONTINUOUS
10
180.226
20
-120.6
11
180.321
21
-120.219
0
LINE
8
BLACK
6
CONTINUOUS
10
180.321
20
-120.219
11
180.417
21
-120.028
0
LINE
8
BLACK
6
CONTINUOUS
10
180.417
20
-120.028
11
180.512
21
-119.933
0
LINE
8
BLACK
6
CONTINUOUS
10
180.512
20
-119.933
11
180.702
21
-119.838
0
LINE
8
BLACK
6
CONTINUOUS
10
182.036
20
-119.838
11
183.274
21
-119.838
0
LINE
8
BLACK
6
CONTINUOUS
10
183.274
20
-119.838
11
182.607
21
-120.6
0
LINE
8
BLACK
6
CONTINUOUS
10
182.607
20
-120.6
11
182.893
21
-120.6
0
LINE
8
BLACK
6
CONTINUOUS
10
182.893
20
-120.6
11
183.083
21
-120.695
0
LINE
8
BLACK
6
CONTINUOUS
10
183.083
20
-120.695
11
183.179
21
-120.79
0
LINE
8
BLACK
6
CONTINUOUS
10
183.179
20
-120.79
11
183.274
21
-120.981
0
LINE
8
BLACK
6
CONTINUOUS
10
183.274
20
-120.981
11
183.274
21
-121.457
0
LINE
8
BLACK
6
CONTINUOUS
10
183.274
20
-121.457
11
183.179
21
-121.647
0
LINE
8
BLACK
6
CONTINUOUS
10
183.179
20
-121.647
11
183.083
21
-121.742
0
LINE
8
BLACK
6
CONTINUOUS
10
183.083
20
-121.742
11
182.893
21
-121.838
0
LINE
8
BLACK
6
CONTINUOUS
10
182.893
20
-121.838
11
182.321
21
-121.838
0
LINE
8
BLACK
6
CONTINUOUS
10
182.321
20
-121.838
11
182.131
21
-121.742
0
LINE
8
BLACK
6
CONTINUOUS
10
182.131
20
-121.742
11
182.036
21
-121.647
0
LINE
8
BLACK
6
CONTINUOUS
10
184.512
20
-119.838
11
184.702
21
-119.838
0
LINE
8
BLACK
6
CONTINUOUS
10
184.702
20
-119.838
11
184.893
21
-119.933
0
LINE
8
BLACK
6
CONTINUOUS
10
184.893
20
-119.933
11
184.988
21
-120.028
0
LINE
8
BLACK
6
CONTINUOUS
10
184.988
20
-120.028
11
185.083
21
-120.219
0
LINE
8
BLACK
6
CONTINUOUS
10
185.083
20
-120.219
11
185.179
21
-120.6
0
LINE
8
BLACK
6
CONTINUOUS
10
185.179
20
-120.6
11
185.179
21
-121.076
0
LINE
8
BLACK
6
CONTINUOUS
10
185.179
20
-121.076
11
185.083
21
-121.457
0
LINE
8
BLACK
6
CONTINUOUS
10
185.083
20
-121.457
11
184.988
21
-121.647
0
LINE
8
BLACK
6
CONTINUOUS
10
184.988
20
-121.647
11
184.893
21
-121.742
0
LINE
8
BLACK
6
CONTINUOUS
10
184.893
20
-121.742
11
184.702
21
-121.838
0
LINE
8
BLACK
6
CONTINUOUS
10
184.702
20
-121.838
11
184.512
21
-121.838
0
LINE
8
BLACK
6
CONTINUOUS
10
184.512
20
-121.838
11
184.321
21
-121.742
0
LINE
8
BLACK
6
CONTINUOUS
10
184.321
20
-121.742
11
184.226
21
-121.647
0
LINE
8
BLACK
6
CONTINUOUS
10
184.226
20
-121.647
11
184.131
21
-121.457
0
LINE
8
BLACK
6
CONTINUOUS
10
184.131
20
-121.457
11
184.036
21
-121.076
0
LINE
8
BLACK
6
CONTINUOUS
10
184.036
20
-121.076
11
184.036
21
-120.6
0
LINE
8
BLACK
6
CONTINUOUS
10
184.036
20
-120.6
11
184.131
21
-120.219
0
LINE
8
BLACK
6
CONTINUOUS
10
184.131
20
-120.219
11
184.226
21
-120.028
0
LINE
8
BLACK
6
CONTINUOUS
10
184.226
20
-120.028
11
184.321
21
-119.933
0
LINE
8
BLACK
6
CONTINUOUS
10
184.321
20
-119.933
11
184.512
21
-119.838
0
LINE
8
BLACK
6
CONTINUOUS
10
186.417
20
-119.838
11
186.607
21
-119.838
0
LINE
8
BLACK
6
CONTINUOUS
10
186.607
20
-119.838
11
186.798
21
-119.933
0
LINE
8
BLACK
6
CONTINUOUS
10
186.798
20
-119.933
11
186.893
21
-120.028
0
LINE
8
BLACK
6
CONTINUOUS
10
186.893
20
-120.028
11
186.988
21
-120.219
0
LINE
8
BLACK
6
CONTINUOUS
10
186.988
20
-120.219
11
187.083
21
-120.6
0
LINE
8
BLACK
6
CONTINUOUS
10
187.083
20
-120.6
11
187.083
21
-121.076
0
LINE
8
BLACK
6
CONTINUOUS
10
187.083
20
-121.076
11
186.988
21
-121.457
0
LINE
8
BLACK
6
CONTINUOUS
10
186.988
20
-121.457
11
186.893
21
-121.647
0
LINE
8
BLACK
6
CONTINUOUS
10
186.893
20
-121.647
11
186.798
21
-121.742
0
LINE
8
BLACK
6
CONTINUOUS
10
186.798
20
-121.742
11
186.607
21
-121.838
0
LINE
8
BLACK
6
CONTINUOUS
10
186.607
20
-121.838
11
186.417
21
-121.838
0
LINE
8
BLACK
6
CONTINUOUS
10
186.417
20
-121.838
11
186.226
21
-121.742
0
LINE
8
BLACK
6
CONTINUOUS
10
186.226
20
-121.742
11
186.131
21
-121.647
0
LINE
8
BLACK
6
CONTINUOUS
10
186.131
20
-121.647
11
186.036
21
-121.457
0
LINE
8
BLACK
6
CONTINUOUS
10
186.036
20
-121.457
11
185.94
21
-121.076
0
LINE
8
BLACK
6
CONTINUOUS
10
185.94
20
-121.076
11
185.94
21
-120.6
0
LINE
8
BLACK
6
CONTINUOUS
10
185.94
20
-120.6
11
186.036
21
-120.219
0
LINE
8
BLACK
6
CONTINUOUS
10
186.036
20
-120.219
11
186.131
21
-120.028
0
LINE
8
BLACK
6
CONTINUOUS
10
186.131
20
-120.028
11
186.226
21
-119.933
0
LINE
8
BLACK
6
CONTINUOUS
10
186.226
20
-119.933
11
186.417
21
-119.838
0
LINE
8
BLACK
6
CONTINUOUS
10
187.845
20
-119.838
11
187.845
21
-120.219
0
LINE
8
BLACK
6
CONTINUOUS
10
188.607
20
-119.838
11
188.607
21
-120.219
0
LINE
8
BLACK
6
CONTINUOUS
10
191.56
20
-122.6
11
191.464
21
-122.504
0
LINE
8
BLACK
6
CONTINUOUS
10
191.464
20
-122.504
11
191.274
21
-122.219
0
LINE
8
BLACK
6
CONTINUOUS
10
191.274
20
-122.219
11
191.179
21
-122.028
0
LINE
8
BLACK
6
CONTINUOUS
10
191.179
20
-122.028
11
191.083
21
-121.742
0
LINE
8
BLACK
6
CONTINUOUS
10
191.083
20
-121.742
11
190.988
21
-121.266
0
LINE
8
BLACK
6
CONTINUOUS
10
190.988
20
-121.266
11
190.988
21
-120.885
0
LINE
8
BLACK
6
CONTINUOUS
10
190.988
20
-120.885
11
191.083
21
-120.409
0
LINE
8
BLACK
6
CONTINUOUS
10
191.083
20
-120.409
11
191.179
21
-120.123
0
LINE
8
BLACK
6
CONTINUOUS
10
191.179
20
-120.123
11
191.274
21
-119.933
0
LINE
8
BLACK
6
CONTINUOUS
10
191.274
20
-119.933
11
191.464
21
-119.647
0
LINE
8
BLACK
6
CONTINUOUS
10
191.464
20
-119.647
11
191.56
21
-119.552
0
LINE
8
BLACK
6
CONTINUOUS
10
193.179
20
-120.504
11
193.179
21
-121.838
0
LINE
8
BLACK
6
CONTINUOUS
10
192.702
20
-119.742
11
192.226
21
-121.171
0
LINE
8
BLACK
6
CONTINUOUS
10
192.226
20
-121.171
11
193.464
21
-121.171
0
LINE
8
BLACK
6
CONTINUOUS
10
195.75
20
-121.838
11
195.75
21
-119.838
0
LINE
8
BLACK
6
CONTINUOUS
10
196.607
20
-121.838
11
196.607
21
-120.79
0
LINE
8
BLACK
6
CONTINUOUS
10
196.607
20
-120.79
11
196.512
21
-120.6
0
LINE
8
BLACK
6
CONTINUOUS
10
196.512
20
-120.6
11
196.321
21
-120.504
0
LINE
8
BLACK
6
CONTINUOUS
10
196.321
20
-120.504
11
196.036
21
-120.504
0
LINE
8
BLACK
6
CONTINUOUS
10
196.036
20
-120.504
11
195.845
21
-120.6
0
LINE
8
BLACK
6
CONTINUOUS
10
195.845
20
-120.6
11
195.75
21
-120.695
0
LINE
8
BLACK
6
CONTINUOUS
10
197.845
20
-121.838
11
197.655
21
-121.742
0
LINE
8
BLACK
6
CONTINUOUS
10
197.655
20
-121.742
11
197.56
21
-121.647
0
LINE
8
BLACK
6
CONTINUOUS
10
197.56
20
-121.647
11
197.464
21
-121.457
0
LINE
8
BLACK
6
CONTINUOUS
10
197.464
20
-121.457
11
197.464
21
-120.885
0
LINE
8
BLACK
6
CONTINUOUS
10
197.464
20
-120.885
11
197.56
21
-120.695
0
LINE
8
BLACK
6
CONTINUOUS
10
197.56
20
-120.695
11
197.655
21
-120.6
0
LINE
8
BLACK
6
CONTINUOUS
10
197.655
20
-120.6
11
197.845
21
-120.504
0
LINE
8
BLACK
6
CONTINUOUS
10
197.845
20
-120.504
11
198.131
21
-120.504
0
LINE
8
BLACK
6
CONTINUOUS
10
198.131
20
-120.504
11
198.321
21
-120.6
0
LINE
8
BLACK
6
CONTINUOUS
10
198.321
20
-120.6
11
198.417
21
-120.695
0
LINE
8
BLACK
6
CONTINUOUS
10
198.417
20
-120.695
11
198.512
21
-120.885
0
LINE
8
BLACK
6
CONTINUOUS
10
198.512
20
-120.885
11
198.512
21
-121.457
0
LINE
8
BLACK
6
CONTINUOUS
10
198.512
20
-121.457
11
198.417
21
-121.647
0
LINE
8
BLACK
6
CONTINUOUS
10
198.417
20
-121.647
11
198.321
21
-121.742
0
LINE
8
BLACK
6
CONTINUOUS
10
198.321
20
-121.742
11
198.131
21
-121.838
0
LINE
8
BLACK
6
CONTINUOUS
10
198.131
20
-121.838
11
197.845
21
-121.838
0
LINE
8
BLACK
6
CONTINUOUS
10
199.655
20
-121.838
11
199.464
21
-121.742
0
LINE
8
BLACK
6
CONTINUOUS
10
199.464
20
-121.742
11
199.369
21
-121.552
0
LINE
8
BLACK
6
CONTINUOUS
10
199.369
20
-121.552
11
199.369
21
-119.838
0
LINE
8
BLACK
6
CONTINUOUS
10
201.179
20
-121.742
11
200.988
21
-121.838
0
LINE
8
BLACK
6
CONTINUOUS
10
200.988
20
-121.838
11
200.607
21
-121.838
0
LINE
8
BLACK
6
CONTINUOUS
10
200.607
20
-121.838
11
200.417
21
-121.742
0
LINE
8
BLACK
6
CONTINUOUS
10
200.417
20
-121.742
11
200.321
21
-121.552
0
LINE
8
BLACK
6
CONTINUOUS
10
200.321
20
-121.552
11
200.321
21
-120.79
0
LINE
8
BLACK
6
CONTINUOUS
10
200.321
20
-120.79
11
200.417
21
-120.6
0
LINE
8
BLACK
6
CONTINUOUS
10
200.417
20
-120.6
11
200.607
21
-120.504
0
LINE
8
BLACK
6
CONTINUOUS
10
200.607
20
-120.504
11
200.988
21
-120.504
0
LINE
8
BLACK
6
CONTINUOUS
10
200.988
20
-120.504
11
201.179
21
-120.6
0
LINE
8
BLACK
6
CONTINUOUS
10
201.179
20
-120.6
11
201.274
21
-120.79
0
LINE
8
BLACK
6
CONTINUOUS
10
201.274
20
-120.79
11
201.274
21
-120.981
0
LINE
8
BLACK
6
CONTINUOUS
10
201.274
20
-120.981
11
200.321
21
-121.171
0
LINE
8
BLACK
6
CONTINUOUS
10
202.036
20
-121.742
11
202.226
21
-121.838
0
LINE
8
BLACK
6
CONTINUOUS
10
202.226
20
-121.838
11
202.607
21
-121.838
0
LINE
8
BLACK
6
CONTINUOUS
10
202.607
20
-121.838
11
202.798
21
-121.742
0
LINE
8
BLACK
6
CONTINUOUS
10
202.798
20
-121.742
11
202.893
21
-121.552
0
LINE
8
BLACK
6
CONTINUOUS
10
202.893
20
-121.552
11
202.893
21
-121.457
0
LINE
8
BLACK
6
CONTINUOUS
10
202.893
20
-121.457
11
202.798
21
-121.266
0
LINE
8
BLACK
6
CONTINUOUS
10
202.798
20
-121.266
11
202.607
21
-121.171
0
LINE
8
BLACK
6
CONTINUOUS
10
202.607
20
-121.171
11
202.321
21
-121.171
0
LINE
8
BLACK
6
CONTINUOUS
10
202.321
20
-121.171
11
202.131
21
-121.076
0
LINE
8
BLACK
6
CONTINUOUS
10
202.131
20
-121.076
11
202.036
21
-120.885
0
LINE
8
BLACK
6
CONTINUOUS
10
202.036
20
-120.885
11
202.036
21
-120.79
0
LINE
8
BLACK
6
CONTINUOUS
10
202.036
20
-120.79
11
202.131
21
-120.6
0
LINE
8
BLACK
6
CONTINUOUS
10
202.131
20
-120.6
11
202.321
21
-120.504
0
LINE
8
BLACK
6
CONTINUOUS
10
202.321
20
-120.504
11
202.607
21
-120.504
0
LINE
8
BLACK
6
CONTINUOUS
10
202.607
20
-120.504
11
202.798
21
-120.6
0
LINE
8
BLACK
6
CONTINUOUS
10
203.56
20
-122.6
11
203.655
21
-122.504
0
LINE
8
BLACK
6
CONTINUOUS
10
203.655
20
-122.504
11
203.845
21
-122.219
0
LINE
8
BLACK
6
CONTINUOUS
10
203.845
20
-122.219
11
203.94
21
-122.028
0
LINE
8
BLACK
6
CONTINUOUS
10
203.94
20
-122.028
11
204.036
21
-121.742
0
LINE
8
BLACK
6
CONTINUOUS
10
204.036
20
-121.742
11
204.131
21
-121.266
0
LINE
8
BLACK
6
CONTINUOUS
10
204.131
20
-121.266
11
204.131
21
-120.885
0
LINE
8
BLACK
6
CONTINUOUS
10
204.131
20
-120.885
11
204.036
21
-120.409
0
LINE
8
BLACK
6
CONTINUOUS
10
204.036
20
-120.409
11
203.94
21
-120.123
0
LINE
8
BLACK
6
CONTINUOUS
10
203.94
20
-120.123
11
203.845
21
-119.933
0
LINE
8
BLACK
6
CONTINUOUS
10
203.845
20
-119.933
11
203.655
21
-119.647
0
LINE
8
BLACK
6
CONTINUOUS
10
203.655
20
-119.647
11
203.56
21
-119.552
0
LINE
8
BLACK
6
CONTINUOUS
10
155.39
20
-123.123
11
155.39
21
-124.023
0
LINE
8
BLACK
6
CONTINUOUS
10
154.94
20
-123.573
11
155.84
21
-123.573
0
LINE
8
BLACK
6
CONTINUOUS
10
158.798
20
-122.478
11
158.988
21
-122.478
0
LINE
8
BLACK
6
CONTINUOUS
10
158.988
20
-122.478
11
159.179
21
-122.573
0
LINE
8
BLACK
6
CONTINUOUS
10
159.179
20
-122.573
11
159.274
21
-122.668
0
LINE
8
BLACK
6
CONTINUOUS
10
159.274
20
-122.668
11
159.369
21
-122.859
0
LINE
8
BLACK
6
CONTINUOUS
10
159.369
20
-122.859
11
159.464
21
-123.24
0
LINE
8
BLACK
6
CONTINUOUS
10
159.464
20
-123.24
11
159.464
21
-123.716
0
LINE
8
BLACK
6
CONTINUOUS
10
159.464
20
-123.716
11
159.369
21
-124.097
0
LINE
8
BLACK
6
CONTINUOUS
10
159.369
20
-124.097
11
159.274
21
-124.287
0
LINE
8
BLACK
6
CONTINUOUS
10
159.274
20
-124.287
11
159.179
21
-124.382
0
LINE
8
BLACK
6
CONTINUOUS
10
159.179
20
-124.382
11
158.988
21
-124.478
0
LINE
8
BLACK
6
CONTINUOUS
10
158.988
20
-124.478
11
158.798
21
-124.478
0
LINE
8
BLACK
6
CONTINUOUS
10
158.798
20
-124.478
11
158.607
21
-124.382
0
LINE
8
BLACK
6
CONTINUOUS
10
158.607
20
-124.382
11
158.512
21
-124.287
0
LINE
8
BLACK
6
CONTINUOUS
10
158.512
20
-124.287
11
158.417
21
-124.097
0
LINE
8
BLACK
6
CONTINUOUS
10
158.417
20
-124.097
11
158.321
21
-123.716
0
LINE
8
BLACK
6
CONTINUOUS
10
158.321
20
-123.716
11
158.321
21
-123.24
0
LINE
8
BLACK
6
CONTINUOUS
10
158.321
20
-123.24
11
158.417
21
-122.859
0
LINE
8
BLACK
6
CONTINUOUS
10
158.417
20
-122.859
11
158.512
21
-122.668
0
LINE
8
BLACK
6
CONTINUOUS
10
158.512
20
-122.668
11
158.607
21
-122.573
0
LINE
8
BLACK
6
CONTINUOUS
10
158.607
20
-122.573
11
158.798
21
-122.478
0
LINE
8
BLACK
6
CONTINUOUS
10
160.321
20
-124.287
11
160.417
21
-124.382
0
LINE
8
BLACK
6
CONTINUOUS
10
160.417
20
-124.382
11
160.321
21
-124.478
0
LINE
8
BLACK
6
CONTINUOUS
10
160.321
20
-124.478
11
160.226
21
-124.382
0
LINE
8
BLACK
6
CONTINUOUS
10
160.226
20
-124.382
11
160.321
21
-124.287
0
LINE
8
BLACK
6
CONTINUOUS
10
160.321
20
-124.287
11
160.321
21
-124.478
0
LINE
8
BLACK
6
CONTINUOUS
10
161.369
20
-124.478
11
161.75
21
-124.478
0
LINE
8
BLACK
6
CONTINUOUS
10
161.75
20
-124.478
11
161.94
21
-124.382
0
LINE
8
BLACK
6
CONTINUOUS
10
161.94
20
-124.382
11
162.036
21
-124.287
0
LINE
8
BLACK
6
CONTINUOUS
10
162.036
20
-124.287
11
162.226
21
-124.002
0
LINE
8
BLACK
6
CONTINUOUS
10
162.226
20
-124.002
11
162.321
21
-123.621
0
LINE
8
BLACK
6
CONTINUOUS
10
162.321
20
-123.621
11
162.321
21
-122.859
0
LINE
8
BLACK
6
CONTINUOUS
10
162.321
20
-122.859
11
162.226
21
-122.668
0
LINE
8
BLACK
6
CONTINUOUS
10
162.226
20
-122.668
11
162.131
21
-122.573
0
LINE
8
BLACK
6
CONTINUOUS
10
162.131
20
-122.573
11
161.94
21
-122.478
0
LINE
8
BLACK
6
CONTINUOUS
10
161.94
20
-122.478
11
161.56
21
-122.478
0
LINE
8
BLACK
6
CONTINUOUS
10
161.56
20
-122.478
11
161.369
21
-122.573
0
LINE
8
BLACK
6
CONTINUOUS
10
161.369
20
-122.573
11
161.274
21
-122.668
0
LINE
8
BLACK
6
CONTINUOUS
10
161.274
20
-122.668
11
161.179
21
-122.859
0
LINE
8
BLACK
6
CONTINUOUS
10
161.179
20
-122.859
11
161.179
21
-123.335
0
LINE
8
BLACK
6
CONTINUOUS
10
161.179
20
-123.335
11
161.274
21
-123.525
0
LINE
8
BLACK
6
CONTINUOUS
10
161.274
20
-123.525
11
161.369
21
-123.621
0
LINE
8
BLACK
6
CONTINUOUS
10
161.369
20
-123.621
11
161.56
21
-123.716
0
LINE
8
BLACK
6
CONTINUOUS
10
161.56
20
-123.716
11
161.94
21
-123.716
0
LINE
8
BLACK
6
CONTINUOUS
10
161.94
20
-123.716
11
162.131
21
-123.621
0
LINE
8
BLACK
6
CONTINUOUS
10
162.131
20
-123.621
11
162.226
21
-123.525
0
LINE
8
BLACK
6
CONTINUOUS
10
162.226
20
-123.525
11
162.321
21
-123.335
0
LINE
8
BLACK
6
CONTINUOUS
10
163.56
20
-122.478
11
163.75
21
-122.478
0
LINE
8
BLACK
6
CONTINUOUS
10
163.75
20
-122.478
11
163.94
21
-122.573
0
LINE
8
BLACK
6
CONTINUOUS
10
163.94
20
-122.573
11
164.036
21
-122.668
0
LINE
8
BLACK
6
CONTINUOUS
10
164.036
20
-122.668
11
164.131
21
-122.859
0
LINE
8
BLACK
6
CONTINUOUS
10
164.131
20
-122.859
11
164.226
21
-123.24
0
LINE
8
BLACK
6
CONTINUOUS
10
164.226
20
-123.24
11
164.226
21
-123.716
0
LINE
8
BLACK
6
CONTINUOUS
10
164.226
20
-123.716
11
164.131
21
-124.097
0
LINE
8
BLACK
6
CONTINUOUS
10
164.131
20
-124.097
11
164.036
21
-124.287
0
LINE
8
BLACK
6
CONTINUOUS
10
164.036
20
-124.287
11
163.94
21
-124.382
0
LINE
8
BLACK
6
CONTINUOUS
10
163.94
20
-124.382
11
163.75
21
-124.478
0
LINE
8
BLACK
6
CONTINUOUS
10
163.75
20
-124.478
11
163.56
21
-124.478
0
LINE
8
BLACK
6
CONTINUOUS
10
163.56
20
-124.478
11
163.369
21
-124.382
0
LINE
8
BLACK
6
CONTINUOUS
10
163.369
20
-124.382
11
163.274
21
-124.287
0
LINE
8
BLACK
6
CONTINUOUS
10
163.274
20
-124.287
11
163.179
21
-124.097
0
LINE
8
BLACK
6
CONTINUOUS
10
163.179
20
-124.097
11
163.083
21
-123.716
0
LINE
8
BLACK
6
CONTINUOUS
10
163.083
20
-123.716
11
163.083
21
-123.24
0
LINE
8
BLACK
6
CONTINUOUS
10
163.083
20
-123.24
11
163.179
21
-122.859
0
LINE
8
BLACK
6
CONTINUOUS
10
163.179
20
-122.859
11
163.274
21
-122.668
0
LINE
8
BLACK
6
CONTINUOUS
10
163.274
20
-122.668
11
163.369
21
-122.573
0
LINE
8
BLACK
6
CONTINUOUS
10
163.369
20
-122.573
11
163.56
21
-122.478
0
LINE
8
BLACK
6
CONTINUOUS
10
165.464
20
-122.478
11
165.655
21
-122.478
0
LINE
8
BLACK
6
CONTINUOUS
10
165.655
20
-122.478
11
165.845
21
-122.573
0
LINE
8
BLACK
6
CONTINUOUS
10
165.845
20
-122.573
11
165.94
21
-122.668
0
LINE
8
BLACK
6
CONTINUOUS
10
165.94
20
-122.668
11
166.036
21
-122.859
0
LINE
8
BLACK
6
CONTINUOUS
10
166.036
20
-122.859
11
166.131
21
-123.24
0
LINE
8
BLACK
6
CONTINUOUS
10
166.131
20
-123.24
11
166.131
21
-123.716
0
LINE
8
BLACK
6
CONTINUOUS
10
166.131
20
-123.716
11
166.036
21
-124.097
0
LINE
8
BLACK
6
CONTINUOUS
10
166.036
20
-124.097
11
165.94
21
-124.287
0
LINE
8
BLACK
6
CONTINUOUS
10
165.94
20
-124.287
11
165.845
21
-124.382
0
LINE
8
BLACK
6
CONTINUOUS
10
165.845
20
-124.382
11
165.655
21
-124.478
0
LINE
8
BLACK
6
CONTINUOUS
10
165.655
20
-124.478
11
165.464
21
-124.478
0
LINE
8
BLACK
6
CONTINUOUS
10
165.464
20
-124.478
11
165.274
21
-124.382
0
LINE
8
BLACK
6
CONTINUOUS
10
165.274
20
-124.382
11
165.179
21
-124.287
0
LINE
8
BLACK
6
CONTINUOUS
10
165.179
20
-124.287
11
165.083
21
-124.097
0
LINE
8
BLACK
6
CONTINUOUS
10
165.083
20
-124.097
11
164.988
21
-123.716
0
LINE
8
BLACK
6
CONTINUOUS
10
164.988
20
-123.716
11
164.988
21
-123.24
0
LINE
8
BLACK
6
CONTINUOUS
10
164.988
20
-123.24
11
165.083
21
-122.859
0
LINE
8
BLACK
6
CONTINUOUS
10
165.083
20
-122.859
11
165.179
21
-122.668
0
LINE
8
BLACK
6
CONTINUOUS
10
165.179
20
-122.668
11
165.274
21
-122.573
0
LINE
8
BLACK
6
CONTINUOUS
10
165.274
20
-122.573
11
165.464
21
-122.478
0
LINE
8
BLACK
6
CONTINUOUS
10
166.988
20
-124.478
11
166.988
21
-123.144
0
LINE
8
BLACK
6
CONTINUOUS
10
166.988
20
-123.335
11
167.083
21
-123.24
0
LINE
8
BLACK
6
CONTINUOUS
10
167.083
20
-123.24
11
167.274
21
-123.144
0
LINE
8
BLACK
6
CONTINUOUS
10
167.274
20
-123.144
11
167.56
21
-123.144
0
LINE
8
BLACK
6
CONTINUOUS
10
167.56
20
-123.144
11
167.75
21
-123.24
0
LINE
8
BLACK
6
CONTINUOUS
10
167.75
20
-123.24
11
167.845
21
-123.43
0
LINE
8
BLACK
6
CONTINUOUS
10
167.845
20
-123.43
11
167.845
21
-124.478
0
LINE
8
BLACK
6
CONTINUOUS
10
167.845
20
-123.43
11
167.94
21
-123.24
0
LINE
8
BLACK
6
CONTINUOUS
10
167.94
20
-123.24
11
168.131
21
-123.144
0
LINE
8
BLACK
6
CONTINUOUS
10
168.131
20
-123.144
11
168.417
21
-123.144
0
LINE
8
BLACK
6
CONTINUOUS
10
168.417
20
-123.144
11
168.607
21
-123.24
0
LINE
8
BLACK
6
CONTINUOUS
10
168.607
20
-123.24
11
168.702
21
-123.43
0
LINE
8
BLACK
6
CONTINUOUS
10
168.702
20
-123.43
11
168.702
21
-124.478
0
LINE
8
BLACK
6
CONTINUOUS
10
169.655
20
-124.478
11
169.655
21
-123.144
0
LINE
8
BLACK
6
CONTINUOUS
10
169.655
20
-123.335
11
169.75
21
-123.24
0
LINE
8
BLACK
6
CONTINUOUS
10
169.75
20
-123.24
11
169.94
21
-123.144
0
LINE
8
BLACK
6
CONTINUOUS
10
169.94
20
-123.144
11
170.226
21
-123.144
0
LINE
8
BLACK
6
CONTINUOUS
10
170.226
20
-123.144
11
170.417
21
-123.24
0
LINE
8
BLACK
6
CONTINUOUS
10
170.417
20
-123.24
11
170.512
21
-123.43
0
LINE
8
BLACK
6
CONTINUOUS
10
170.512
20
-123.43
11
170.512
21
-124.478
0
LINE
8
BLACK
6
CONTINUOUS
10
170.512
20
-123.43
11
170.607
21
-123.24
0
LINE
8
BLACK
6
CONTINUOUS
10
170.607
20
-123.24
11
170.798
21
-123.144
0
LINE
8
BLACK
6
CONTINUOUS
10
170.798
20
-123.144
11
171.083
21
-123.144
0
LINE
8
BLACK
6
CONTINUOUS
10
171.083
20
-123.144
11
171.274
21
-123.24
0
LINE
8
BLACK
6
CONTINUOUS
10
171.274
20
-123.24
11
171.369
21
-123.43
0
LINE
8
BLACK
6
CONTINUOUS
10
171.369
20
-123.43
11
171.369
21
-124.478
0
LINE
8
BLACK
6
CONTINUOUS
10
175.274
20
-122.382
11
173.56
21
-124.954
0
LINE
8
BLACK
6
CONTINUOUS
10
177.845
20
-122.478
11
178.036
21
-122.478
0
LINE
8
BLACK
6
CONTINUOUS
10
178.036
20
-122.478
11
178.226
21
-122.573
0
LINE
8
BLACK
6
CONTINUOUS
10
178.226
20
-122.573
11
178.321
21
-122.668
0
LINE
8
BLACK
6
CONTINUOUS
10
178.321
20
-122.668
11
178.417
21
-122.859
0
LINE
8
BLACK
6
CONTINUOUS
10
178.417
20
-122.859
11
178.512
21
-123.24
0
LINE
8
BLACK
6
CONTINUOUS
10
178.512
20
-123.24
11
178.512
21
-123.716
0
LINE
8
BLACK
6
CONTINUOUS
10
178.512
20
-123.716
11
178.417
21
-124.097
0
LINE
8
BLACK
6
CONTINUOUS
10
178.417
20
-124.097
11
178.321
21
-124.287
0
LINE
8
BLACK
6
CONTINUOUS
10
178.321
20
-124.287
11
178.226
21
-124.382
0
LINE
8
BLACK
6
CONTINUOUS
10
178.226
20
-124.382
11
178.036
21
-124.478
0
LINE
8
BLACK
6
CONTINUOUS
10
178.036
20
-124.478
11
177.845
21
-124.478
0
LINE
8
BLACK
6
CONTINUOUS
10
177.845
20
-124.478
11
177.655
21
-124.382
0
LINE
8
BLACK
6
CONTINUOUS
10
177.655
20
-124.382
11
177.56
21
-124.287
0
LINE
8
BLACK
6
CONTINUOUS
10
177.56
20
-124.287
11
177.464
21
-124.097
0
LINE
8
BLACK
6
CONTINUOUS
10
177.464
20
-124.097
11
177.369
21
-123.716
0
LINE
8
BLACK
6
CONTINUOUS
10
177.369
20
-123.716
11
177.369
21
-123.24
0
LINE
8
BLACK
6
CONTINUOUS
10
177.369
20
-123.24
11
177.464
21
-122.859
0
LINE
8
BLACK
6
CONTINUOUS
10
177.464
20
-122.859
11
177.56
21
-122.668
0
LINE
8
BLACK
6
CONTINUOUS
10
177.56
20
-122.668
11
177.655
21
-122.573
0
LINE
8
BLACK
6
CONTINUOUS
10
177.655
20
-122.573
11
177.845
21
-122.478
0
LINE
8
BLACK
6
CONTINUOUS
10
179.369
20
-124.287
11
179.464
21
-124.382
0
LINE
8
BLACK
6
CONTINUOUS
10
179.464
20
-124.382
11
179.369
21
-124.478
0
LINE
8
BLACK
6
CONTINUOUS
10
179.369
20
-124.478
11
179.274
21
-124.382
0
LINE
8
BLACK
6
CONTINUOUS
10
179.274
20
-124.382
11
179.369
21
-124.287
0
LINE
8
BLACK
6
CONTINUOUS
10
179.369
20
-124.287
11
179.369
21
-124.478
0
LINE
8
BLACK
6
CONTINUOUS
10
180.702
20
-122.478
11
180.893
21
-122.478
0
LINE
8
BLACK
6
CONTINUOUS
10
180.893
20
-122.478
11
181.083
21
-122.573
0
LINE
8
BLACK
6
CONTINUOUS
10
181.083
20
-122.573
11
181.179
21
-122.668
0
LINE
8
BLACK
6
CONTINUOUS
10
181.179
20
-122.668
11
181.274
21
-122.859
0
LINE
8
BLACK
6
CONTINUOUS
10
181.274
20
-122.859
11
181.369
21
-123.24
0
LINE
8
BLACK
6
CONTINUOUS
10
181.369
20
-123.24
11
181.369
21
-123.716
0
LINE
8
BLACK
6
CONTINUOUS
10
181.369
20
-123.716
11
181.274
21
-124.097
0
LINE
8
BLACK
6
CONTINUOUS
10
181.274
20
-124.097
11
181.179
21
-124.287
0
LINE
8
BLACK
6
CONTINUOUS
10
181.179
20
-124.287
11
181.083
21
-124.382
0
LINE
8
BLACK
6
CONTINUOUS
10
181.083
20
-124.382
11
180.893
21
-124.478
0
LINE
8
BLACK
6
CONTINUOUS
10
180.893
20
-124.478
11
180.702
21
-124.478
0
LINE
8
BLACK
6
CONTINUOUS
10
180.702
20
-124.478
11
180.512
21
-124.382
0
LINE
8
BLACK
6
CONTINUOUS
10
180.512
20
-124.382
11
180.417
21
-124.287
0
LINE
8
BLACK
6
CONTINUOUS
10
180.417
20
-124.287
11
180.321
21
-124.097
0
LINE
8
BLACK
6
CONTINUOUS
10
180.321
20
-124.097
11
180.226
21
-123.716
0
LINE
8
BLACK
6
CONTINUOUS
10
180.226
20
-123.716
11
180.226
21
-123.24
0
LINE
8
BLACK
6
CONTINUOUS
10
180.226
20
-123.24
11
180.321
21
-122.859
0
LINE
8
BLACK
6
CONTINUOUS
10
180.321
20
-122.859
11
180.417
21
-122.668
0
LINE
8
BLACK
6
CONTINUOUS
10
180.417
20
-122.668
11
180.512
21
-122.573
0
LINE
8
BLACK
6
CONTINUOUS
10
180.512
20
-122.573
11
180.702
21
-122.478
0
LINE
8
BLACK
6
CONTINUOUS
10
182.036
20
-122.478
11
183.274
21
-122.478
0
LINE
8
BLACK
6
CONTINUOUS
10
183.274
20
-122.478
11
182.607
21
-123.24
0
LINE
8
BLACK
6
CONTINUOUS
10
182.607
20
-123.24
11
182.893
21
-123.24
0
LINE
8
BLACK
6
CONTINUOUS
10
182.893
20
-123.24
11
183.083
21
-123.335
0
LINE
8
BLACK
6
CONTINUOUS
10
183.083
20
-123.335
11
183.179
21
-123.43
0
LINE
8
BLACK
6
CONTINUOUS
10
183.179
20
-123.43
11
183.274
21
-123.621
0
LINE
8
BLACK
6
CONTINUOUS
10
183.274
20
-123.621
11
183.274
21
-124.097
0
LINE
8
BLACK
6
CONTINUOUS
10
183.274
20
-124.097
11
183.179
21
-124.287
0
LINE
8
BLACK
6
CONTINUOUS
10
183.179
20
-124.287
11
183.083
21
-124.382
0
LINE
8
BLACK
6
CONTINUOUS
10
183.083
20
-124.382
11
182.893
21
-124.478
0
LINE
8
BLACK
6
CONTINUOUS
10
182.893
20
-124.478
11
182.321
21
-124.478
0
LINE
8
BLACK
6
CONTINUOUS
10
182.321
20
-124.478
11
182.131
21
-124.382
0
LINE
8
BLACK
6
CONTINUOUS
10
182.131
20
-124.382
11
182.036
21
-124.287
0
LINE
8
BLACK
6
CONTINUOUS
10
185.083
20
-122.478
11
184.131
21
-122.478
0
LINE
8
BLACK
6
CONTINUOUS
10
184.131
20
-122.478
11
184.036
21
-123.43
0
LINE
8
BLACK
6
CONTINUOUS
10
184.036
20
-123.43
11
184.131
21
-123.335
0
LINE
8
BLACK
6
CONTINUOUS
10
184.131
20
-123.335
11
184.321
21
-123.24
0
LINE
8
BLACK
6
CONTINUOUS
10
184.321
20
-123.24
11
184.798
21
-123.24
0
LINE
8
BLACK
6
CONTINUOUS
10
184.798
20
-123.24
11
184.988
21
-123.335
0
LINE
8
BLACK
6
CONTINUOUS
10
184.988
20
-123.335
11
185.083
21
-123.43
0
LINE
8
BLACK
6
CONTINUOUS
10
185.083
20
-123.43
11
185.179
21
-123.621
0
LINE
8
BLACK
6
CONTINUOUS
10
185.179
20
-123.621
11
185.179
21
-124.097
0
LINE
8
BLACK
6
CONTINUOUS
10
185.179
20
-124.097
11
185.083
21
-124.287
0
LINE
8
BLACK
6
CONTINUOUS
10
185.083
20
-124.287
11
184.988
21
-124.382
0
LINE
8
BLACK
6
CONTINUOUS
10
184.988
20
-124.382
11
184.798
21
-124.478
0
LINE
8
BLACK
6
CONTINUOUS
10
184.798
20
-124.478
11
184.321
21
-124.478
0
LINE
8
BLACK
6
CONTINUOUS
10
184.321
20
-124.478
11
184.131
21
-124.382
0
LINE
8
BLACK
6
CONTINUOUS
10
184.131
20
-124.382
11
184.036
21
-124.287
0
LINE
8
BLACK
6
CONTINUOUS
10
186.893
20
-123.144
11
186.893
21
-124.478
0
LINE
8
BLACK
6
CONTINUOUS
10
186.417
20
-122.382
11
185.94
21
-123.811
0
LINE
8
BLACK
6
CONTINUOUS
10
185.94
20
-123.811
11
187.179
21
-123.811
0
LINE
8
BLACK
6
CONTINUOUS
10
187.845
20
-122.478
11
187.845
21
-122.859
0
LINE
8
BLACK
6
CONTINUOUS
10
188.607
20
-122.478
11
188.607
21
-122.859
0
LINE
8
BLACK
6
CONTINUOUS
10
191.56
20
-125.24
11
191.464
21
-125.144
0
LINE
8
BLACK
6
CONTINUOUS
10
191.464
20
-125.144
11
191.274
21
-124.859
0
LINE
8
BLACK
6
CONTINUOUS
10
191.274
20
-124.859
11
191.179
21
-124.668
0
LINE
8
BLACK
6
CONTINUOUS
10
191.179
20
-124.668
11
191.083
21
-124.382
0
LINE
8
BLACK
6
CONTINUOUS
10
191.083
20
-124.382
11
190.988
21
-123.906
0
LINE
8
BLACK
6
CONTINUOUS
10
190.988
20
-123.906
11
190.988
21
-123.525
0
LINE
8
BLACK
6
CONTINUOUS
10
190.988
20
-123.525
11
191.083
21
-123.049
0
LINE
8
BLACK
6
CONTINUOUS
10
191.083
20
-123.049
11
191.179
21
-122.763
0
LINE
8
BLACK
6
CONTINUOUS
10
191.179
20
-122.763
11
191.274
21
-122.573
0
LINE
8
BLACK
6
CONTINUOUS
10
191.274
20
-122.573
11
191.464
21
-122.287
0
LINE
8
BLACK
6
CONTINUOUS
10
191.464
20
-122.287
11
191.56
21
-122.192
0
LINE
8
BLACK
6
CONTINUOUS
10
193.179
20
-123.144
11
193.179
21
-124.478
0
LINE
8
BLACK
6
CONTINUOUS
10
192.702
20
-122.382
11
192.226
21
-123.811
0
LINE
8
BLACK
6
CONTINUOUS
10
192.226
20
-123.811
11
193.464
21
-123.811
0
LINE
8
BLACK
6
CONTINUOUS
10
195.75
20
-124.478
11
195.75
21
-122.478
0
LINE
8
BLACK
6
CONTINUOUS
10
196.607
20
-124.478
11
196.607
21
-123.43
0
LINE
8
BLACK
6
CONTINUOUS
10
196.607
20
-123.43
11
196.512
21
-123.24
0
LINE
8
BLACK
6
CONTINUOUS
10
196.512
20
-123.24
11
196.321
21
-123.144
0
LINE
8
BLACK
6
CONTINUOUS
10
196.321
20
-123.144
11
196.036
21
-123.144
0
LINE
8
BLACK
6
CONTINUOUS
10
196.036
20
-123.144
11
195.845
21
-123.24
0
LINE
8
BLACK
6
CONTINUOUS
10
195.845
20
-123.24
11
195.75
21
-123.335
0
LINE
8
BLACK
6
CONTINUOUS
10
197.845
20
-124.478
11
197.655
21
-124.382
0
LINE
8
BLACK
6
CONTINUOUS
10
197.655
20
-124.382
11
197.56
21
-124.287
0
LINE
8
BLACK
6
CONTINUOUS
10
197.56
20
-124.287
11
197.464
21
-124.097
0
LINE
8
BLACK
6
CONTINUOUS
10
197.464
20
-124.097
11
197.464
21
-123.525
0
LINE
8
BLACK
6
CONTINUOUS
10
197.464
20
-123.525
11
197.56
21
-123.335
0
LINE
8
BLACK
6
CONTINUOUS
10
197.56
20
-123.335
11
197.655
21
-123.24
0
LINE
8
BLACK
6
CONTINUOUS
10
197.655
20
-123.24
11
197.845
21
-123.144
0
LINE
8
BLACK
6
CONTINUOUS
10
197.845
20
-123.144
11
198.131
21
-123.144
0
LINE
8
BLACK
6
CONTINUOUS
10
198.131
20
-123.144
11
198.321
21
-123.24
0
LINE
8
BLACK
6
CONTINUOUS
10
198.321
20
-123.24
11
198.417
21
-123.335
0
LINE
8
BLACK
6
CONTINUOUS
10
198.417
20
-123.335
11
198.512
21
-123.525
0
LINE
8
BLACK
6
CONTINUOUS
10
198.512
20
-123.525
11
198.512
21
-124.097
0
LINE
8
BLACK
6
CONTINUOUS
10
198.512
20
-124.097
11
198.417
21
-124.287
0
LINE
8
BLACK
6
CONTINUOUS
10
198.417
20
-124.287
11
198.321
21
-124.382
0
LINE
8
BLACK
6
CONTINUOUS
10
198.321
20
-124.382
11
198.131
21
-124.478
0
LINE
8
BLACK
6
CONTINUOUS
10
198.131
20
-124.478
11
197.845
21
-124.478
0
LINE
8
BLACK
6
CONTINUOUS
10
199.655
20
-124.478
11
199.464
21
-124.382
0
LINE
8
BLACK
6
CONTINUOUS
10
199.464
20
-124.382
11
199.369
21
-124.192
0
LINE
8
BLACK
6
CONTINUOUS
10
199.369
20
-124.192
11
199.369
21
-122.478
0
LINE
8
BLACK
6
CONTINUOUS
10
201.179
20
-124.382
11
200.988
21
-124.478
0
LINE
8
BLACK
6
CONTINUOUS
10
200.988
20
-124.478
11
200.607
21
-124.478
0
LINE
8
BLACK
6
CONTINUOUS
10
200.607
20
-124.478
11
200.417
21
-124.382
0
LINE
8
BLACK
6
CONTINUOUS
10
200.417
20
-124.382
11
200.321
21
-124.192
0
LINE
8
BLACK
6
CONTINUOUS
10
200.321
20
-124.192
11
200.321
21
-123.43
0
LINE
8
BLACK
6
CONTINUOUS
10
200.321
20
-123.43
11
200.417
21
-123.24
0
LINE
8
BLACK
6
CONTINUOUS
10
200.417
20
-123.24
11
200.607
21
-123.144
0
LINE
8
BLACK
6
CONTINUOUS
10
200.607
20
-123.144
11
200.988
21
-123.144
0
LINE
8
BLACK
6
CONTINUOUS
10
200.988
20
-123.144
11
201.179
21
-123.24
0
LINE
8
BLACK
6
CONTINUOUS
10
201.179
20
-123.24
11
201.274
21
-123.43
0
LINE
8
BLACK
6
CONTINUOUS
10
201.274
20
-123.43
11
201.274
21
-123.621
0
LINE
8
BLACK
6
CONTINUOUS
10
201.274
20
-123.621
11
200.321
21
-123.811
0
LINE
8
BLACK
6
CONTINUOUS
10
202.036
20
-124.382
11
202.226
21
-124.478
0
LINE
8
BLACK
6
CONTINUOUS
10
202.226
20
-124.478
11
202.607
21
-124.478
0
LINE
8
BLACK
6
CONTINUOUS
10
202.607
20
-124.478
11
202.798
21
-124.382
0
LINE
8
BLACK
6
CONTINUOUS
10
202.798
20
-124.382
11
202.893
21
-124.192
0
LINE
8
BLACK
6
CONTINUOUS
10
202.893
20
-124.192
11
202.893
21
-124.097
0
LINE
8
BLACK
6
CONTINUOUS
10
202.893
20
-124.097
11
202.798
21
-123.906
0
LINE
8
BLACK
6
CONTINUOUS
10
202.798
20
-123.906
11
202.607
21
-123.811
0
LINE
8
BLACK
6
CONTINUOUS
10
202.607
20
-123.811
11
202.321
21
-123.811
0
LINE
8
BLACK
6
CONTINUOUS
10
202.321
20
-123.811
11
202.131
21
-123.716
0
LINE
8
BLACK
6
CONTINUOUS
10
202.131
20
-123.716
11
202.036
21
-123.525
0
LINE
8
BLACK
6
CONTINUOUS
10
202.036
20
-123.525
11
202.036
21
-123.43
0
LINE
8
BLACK
6
CONTINUOUS
10
202.036
20
-123.43
11
202.131
21
-123.24
0
LINE
8
BLACK
6
CONTINUOUS
10
202.131
20
-123.24
11
202.321
21
-123.144
0
LINE
8
BLACK
6
CONTINUOUS
10
202.321
20
-123.144
11
202.607
21
-123.144
0
LINE
8
BLACK
6
CONTINUOUS
10
202.607
20
-123.144
11
202.798
21
-123.24
0
LINE
8
BLACK
6
CONTINUOUS
10
203.56
20
-125.24
11
203.655
21
-125.144
0
LINE
8
BLACK
6
CONTINUOUS
10
203.655
20
-125.144
11
203.845
21
-124.859
0
LINE
8
BLACK
6
CONTINUOUS
10
203.845
20
-124.859
11
203.94
21
-124.668
0
LINE
8
BLACK
6
CONTINUOUS
10
203.94
20
-124.668
11
204.036
21
-124.382
0
LINE
8
BLACK
6
CONTINUOUS
10
204.036
20
-124.382
11
204.131
21
-123.906
0
LINE
8
BLACK
6
CONTINUOUS
10
204.131
20
-123.906
11
204.131
21
-123.525
0
LINE
8
BLACK
6
CONTINUOUS
10
204.131
20
-123.525
11
204.036
21
-123.049
0
LINE
8
BLACK
6
CONTINUOUS
10
204.036
20
-123.049
11
203.94
21
-122.763
0
LINE
8
BLACK
6
CONTINUOUS
10
203.94
20
-122.763
11
203.845
21
-122.573
0
LINE
8
BLACK
6
CONTINUOUS
10
203.845
20
-122.573
11
203.655
21
-122.287
0
LINE
8
BLACK
6
CONTINUOUS
10
203.655
20
-122.287
11
203.56
21
-122.192
0
LINE
8
BLACK
6
CONTINUOUS
10
155.694
20
-126.567
11
155.694
21
-125.859
0
LINE
8
BLACK
6
CONTINUOUS
10
155.694
20
-125.859
11
154.987
21
-125.859
0
LINE
8
BLACK
6
CONTINUOUS
10
154.987
20
-125.859
11
154.987
21
-126.567
0
LINE
8
BLACK
6
CONTINUOUS
10
154.987
20
-126.567
11
155.694
21
-126.567
0
LINE
8
BLACK
6
CONTINUOUS
10
159.464
20
-127.118
11
158.321
21
-127.118
0
LINE
8
BLACK
6
CONTINUOUS
10
158.893
20
-127.118
11
158.893
21
-125.118
0
LINE
8
BLACK
6
CONTINUOUS
10
158.893
20
-125.118
11
158.702
21
-125.403
0
LINE
8
BLACK
6
CONTINUOUS
10
158.702
20
-125.403
11
158.512
21
-125.594
0
LINE
8
BLACK
6
CONTINUOUS
10
158.512
20
-125.594
11
158.321
21
-125.689
0
LINE
8
BLACK
6
CONTINUOUS
10
160.321
20
-126.927
11
160.417
21
-127.022
0
LINE
8
BLACK
6
CONTINUOUS
10
160.417
20
-127.022
11
160.321
21
-127.118
0
LINE
8
BLACK
6
CONTINUOUS
10
160.321
20
-127.118
11
160.226
21
-127.022
0
LINE
8
BLACK
6
CONTINUOUS
10
160.226
20
-127.022
11
160.321
21
-126.927
0
LINE
8
BLACK
6
CONTINUOUS
10
160.321
20
-126.927
11
160.321
21
-127.118
0
LINE
8
BLACK
6
CONTINUOUS
10
161.655
20
-125.118
11
161.845
21
-125.118
0
LINE
8
BLACK
6
CONTINUOUS
10
161.845
20
-125.118
11
162.036
21
-125.213
0
LINE
8
BLACK
6
CONTINUOUS
10
162.036
20
-125.213
11
162.131
21
-125.308
0
LINE
8
BLACK
6
CONTINUOUS
10
162.131
20
-125.308
11
162.226
21
-125.499
0
LINE
8
BLACK
6
CONTINUOUS
10
162.226
20
-125.499
11
162.321
21
-125.88
0
LINE
8
BLACK
6
CONTINUOUS
10
162.321
20
-125.88
11
162.321
21
-126.356
0
LINE
8
BLACK
6
CONTINUOUS
10
162.321
20
-126.356
11
162.226
21
-126.737
0
LINE
8
BLACK
6
CONTINUOUS
10
162.226
20
-126.737
11
162.131
21
-126.927
0
LINE
8
BLACK
6
CONTINUOUS
10
162.131
20
-126.927
11
162.036
21
-127.022
0
LINE
8
BLACK
6
CONTINUOUS
10
162.036
20
-127.022
11
161.845
21
-127.118
0
LINE
8
BLACK
6
CONTINUOUS
10
161.845
20
-127.118
11
161.655
21
-127.118
0
LINE
8
BLACK
6
CONTINUOUS
10
161.655
20
-127.118
11
161.464
21
-127.022
0
LINE
8
BLACK
6
CONTINUOUS
10
161.464
20
-127.022
11
161.369
21
-126.927
0
LINE
8
BLACK
6
CONTINUOUS
10
161.369
20
-126.927
11
161.274
21
-126.737
0
LINE
8
BLACK
6
CONTINUOUS
10
161.274
20
-126.737
11
161.179
21
-126.356
0
LINE
8
BLACK
6
CONTINUOUS
10
161.179
20
-126.356
11
161.179
21
-125.88
0
LINE
8
BLACK
6
CONTINUOUS
10
161.179
20
-125.88
11
161.274
21
-125.499
0
LINE
8
BLACK
6
CONTINUOUS
10
161.274
20
-125.499
11
161.369
21
-125.308
0
LINE
8
BLACK
6
CONTINUOUS
10
161.369
20
-125.308
11
161.464
21
-125.213
0
LINE
8
BLACK
6
CONTINUOUS
10
161.464
20
-125.213
11
161.655
21
-125.118
0
LINE
8
BLACK
6
CONTINUOUS
10
163.56
20
-125.118
11
163.75
21
-125.118
0
LINE
8
BLACK
6
CONTINUOUS
10
163.75
20
-125.118
11
163.94
21
-125.213
0
LINE
8
BLACK
6
CONTINUOUS
10
163.94
20
-125.213
11
164.036
21
-125.308
0
LINE
8
BLACK
6
CONTINUOUS
10
164.036
20
-125.308
11
164.131
21
-125.499
0
LINE
8
BLACK
6
CONTINUOUS
10
164.131
20
-125.499
11
164.226
21
-125.88
0
LINE
8
BLACK
6
CONTINUOUS
10
164.226
20
-125.88
11
164.226
21
-126.356
0
LINE
8
BLACK
6
CONTINUOUS
10
164.226
20
-126.356
11
164.131
21
-126.737
0
LINE
8
BLACK
6
CONTINUOUS
10
164.131
20
-126.737
11
164.036
21
-126.927
0
LINE
8
BLACK
6
CONTINUOUS
10
164.036
20
-126.927
11
163.94
21
-127.022
0
LINE
8
BLACK
6
CONTINUOUS
10
163.94
20
-127.022
11
163.75
21
-127.118
0
LINE
8
BLACK
6
CONTINUOUS
10
163.75
20
-127.118
11
163.56
21
-127.118
0
LINE
8
BLACK
6
CONTINUOUS
10
163.56
20
-127.118
11
163.369
21
-127.022
0
LINE
8
BLACK
6
CONTINUOUS
10
163.369
20
-127.022
11
163.274
21
-126.927
0
LINE
8
BLACK
6
CONTINUOUS
10
163.274
20
-126.927
11
163.179
21
-126.737
0
LINE
8
BLACK
6
CONTINUOUS
10
163.179
20
-126.737
11
163.083
21
-126.356
0
LINE
8
BLACK
6
CONTINUOUS
10
163.083
20
-126.356
11
163.083
21
-125.88
0
LINE
8
BLACK
6
CONTINUOUS
10
163.083
20
-125.88
11
163.179
21
-125.499
0
LINE
8
BLACK
6
CONTINUOUS
10
163.179
20
-125.499
11
163.274
21
-125.308
0
LINE
8
BLACK
6
CONTINUOUS
10
163.274
20
-125.308
11
163.369
21
-125.213
0
LINE
8
BLACK
6
CONTINUOUS
10
163.369
20
-125.213
11
163.56
21
-125.118
0
LINE
8
BLACK
6
CONTINUOUS
10
165.464
20
-125.118
11
165.655
21
-125.118
0
LINE
8
BLACK
6
CONTINUOUS
10
165.655
20
-125.118
11
165.845
21
-125.213
0
LINE
8
BLACK
6
CONTINUOUS
10
165.845
20
-125.213
11
165.94
21
-125.308
0
LINE
8
BLACK
6
CONTINUOUS
10
165.94
20
-125.308
11
166.036
21
-125.499
0
LINE
8
BLACK
6
CONTINUOUS
10
166.036
20
-125.499
11
166.131
21
-125.88
0
LINE
8
BLACK
6
CONTINUOUS
10
166.131
20
-125.88
11
166.131
21
-126.356
0
LINE
8
BLACK
6
CONTINUOUS
10
166.131
20
-126.356
11
166.036
21
-126.737
0
LINE
8
BLACK
6
CONTINUOUS
10
166.036
20
-126.737
11
165.94
21
-126.927
0
LINE
8
BLACK
6
CONTINUOUS
10
165.94
20
-126.927
11
165.845
21
-127.022
0
LINE
8
BLACK
6
CONTINUOUS
10
165.845
20
-127.022
11
165.655
21
-127.118
0
LINE
8
BLACK
6
CONTINUOUS
10
165.655
20
-127.118
11
165.464
21
-127.118
0
LINE
8
BLACK
6
CONTINUOUS
10
165.464
20
-127.118
11
165.274
21
-127.022
0
LINE
8
BLACK
6
CONTINUOUS
10
165.274
20
-127.022
11
165.179
21
-126.927
0
LINE
8
BLACK
6
CONTINUOUS
10
165.179
20
-126.927
11
165.083
21
-126.737
0
LINE
8
BLACK
6
CONTINUOUS
10
165.083
20
-126.737
11
164.988
21
-126.356
0
LINE
8
BLACK
6
CONTINUOUS
10
164.988
20
-126.356
11
164.988
21
-125.88
0
LINE
8
BLACK
6
CONTINUOUS
10
164.988
20
-125.88
11
165.083
21
-125.499
0
LINE
8
BLACK
6
CONTINUOUS
10
165.083
20
-125.499
11
165.179
21
-125.308
0
LINE
8
BLACK
6
CONTINUOUS
10
165.179
20
-125.308
11
165.274
21
-125.213
0
LINE
8
BLACK
6
CONTINUOUS
10
165.274
20
-125.213
11
165.464
21
-125.118
0
LINE
8
BLACK
6
CONTINUOUS
10
166.988
20
-127.118
11
166.988
21
-125.784
0
LINE
8
BLACK
6
CONTINUOUS
10
166.988
20
-125.975
11
167.083
21
-125.88
0
LINE
8
BLACK
6
CONTINUOUS
10
167.083
20
-125.88
11
167.274
21
-125.784
0
LINE
8
BLACK
6
CONTINUOUS
10
167.274
20
-125.784
11
167.56
21
-125.784
0
LINE
8
BLACK
6
CONTINUOUS
10
167.56
20
-125.784
11
167.75
21
-125.88
0
LINE
8
BLACK
6
CONTINUOUS
10
167.75
20
-125.88
11
167.845
21
-126.07
0
LINE
8
BLACK
6
CONTINUOUS
10
167.845
20
-126.07
11
167.845
21
-127.118
0
LINE
8
BLACK
6
CONTINUOUS
10
167.845
20
-126.07
11
167.94
21
-125.88
0
LINE
8
BLACK
6
CONTINUOUS
10
167.94
20
-125.88
11
168.131
21
-125.784
0
LINE
8
BLACK
6
CONTINUOUS
10
168.131
20
-125.784
11
168.417
21
-125.784
0
LINE
8
BLACK
6
CONTINUOUS
10
168.417
20
-125.784
11
168.607
21
-125.88
0
LINE
8
BLACK
6
CONTINUOUS
10
168.607
20
-125.88
11
168.702
21
-126.07
0
LINE
8
BLACK
6
CONTINUOUS
10
168.702
20
-126.07
11
168.702
21
-127.118
0
LINE
8
BLACK
6
CONTINUOUS
10
169.655
20
-127.118
11
169.655
21
-125.784
0
LINE
8
BLACK
6
CONTINUOUS
10
169.655
20
-125.975
11
169.75
21
-125.88
0
LINE
8
BLACK
6
CONTINUOUS
10
169.75
20
-125.88
11
169.94
21
-125.784
0
LINE
8
BLACK
6
CONTINUOUS
10
169.94
20
-125.784
11
170.226
21
-125.784
0
LINE
8
BLACK
6
CONTINUOUS
10
170.226
20
-125.784
11
170.417
21
-125.88
0
LINE
8
BLACK
6
CONTINUOUS
10
170.417
20
-125.88
11
170.512
21
-126.07
0
LINE
8
BLACK
6
CONTINUOUS
10
170.512
20
-126.07
11
170.512
21
-127.118
0
LINE
8
BLACK
6
CONTINUOUS
10
170.512
20
-126.07
11
170.607
21
-125.88
0
LINE
8
BLACK
6
CONTINUOUS
10
170.607
20
-125.88
11
170.798
21
-125.784
0
LINE
8
BLACK
6
CONTINUOUS
10
170.798
20
-125.784
11
171.083
21
-125.784
0
LINE
8
BLACK
6
CONTINUOUS
10
171.083
20
-125.784
11
171.274
21
-125.88
0
LINE
8
BLACK
6
CONTINUOUS
10
171.274
20
-125.88
11
171.369
21
-126.07
0
LINE
8
BLACK
6
CONTINUOUS
10
171.369
20
-126.07
11
171.369
21
-127.118
0
LINE
8
BLACK
6
CONTINUOUS
10
175.274
20
-125.022
11
173.56
21
-127.594
0
LINE
8
BLACK
6
CONTINUOUS
10
177.845
20
-125.118
11
178.036
21
-125.118
0
LINE
8
BLACK
6
CONTINUOUS
10
178.036
20
-125.118
11
178.226
21
-125.213
0
LINE
8
BLACK
6
CONTINUOUS
10
178.226
20
-125.213
11
178.321
21
-125.308
0
LINE
8
BLACK
6
CONTINUOUS
10
178.321
20
-125.308
11
178.417
21
-125.499
0
LINE
8
BLACK
6
CONTINUOUS
10
178.417
20
-125.499
11
178.512
21
-125.88
0
LINE
8
BLACK
6
CONTINUOUS
10
178.512
20
-125.88
11
178.512
21
-126.356
0
LINE
8
BLACK
6
CONTINUOUS
10
178.512
20
-126.356
11
178.417
21
-126.737
0
LINE
8
BLACK
6
CONTINUOUS
10
178.417
20
-126.737
11
178.321
21
-126.927
0
LINE
8
BLACK
6
CONTINUOUS
10
178.321
20
-126.927
11
178.226
21
-127.022
0
LINE
8
BLACK
6
CONTINUOUS
10
178.226
20
-127.022
11
178.036
21
-127.118
0
LINE
8
BLACK
6
CONTINUOUS
10
178.036
20
-127.118
11
177.845
21
-127.118
0
LINE
8
BLACK
6
CONTINUOUS
10
177.845
20
-127.118
11
177.655
21
-127.022
0
LINE
8
BLACK
6
CONTINUOUS
10
177.655
20
-127.022
11
177.56
21
-126.927
0
LINE
8
BLACK
6
CONTINUOUS
10
177.56
20
-126.927
11
177.464
21
-126.737
0
LINE
8
BLACK
6
CONTINUOUS
10
177.464
20
-126.737
11
177.369
21
-126.356
0
LINE
8
BLACK
6
CONTINUOUS
10
177.369
20
-126.356
11
177.369
21
-125.88
0
LINE
8
BLACK
6
CONTINUOUS
10
177.369
20
-125.88
11
177.464
21
-125.499
0
LINE
8
BLACK
6
CONTINUOUS
10
177.464
20
-125.499
11
177.56
21
-125.308
0
LINE
8
BLACK
6
CONTINUOUS
10
177.56
20
-125.308
11
177.655
21
-125.213
0
LINE
8
BLACK
6
CONTINUOUS
10
177.655
20
-125.213
11
177.845
21
-125.118
0
LINE
8
BLACK
6
CONTINUOUS
10
179.369
20
-126.927
11
179.464
21
-127.022
0
LINE
8
BLACK
6
CONTINUOUS
10
179.464
20
-127.022
11
179.369
21
-127.118
0
LINE
8
BLACK
6
CONTINUOUS
10
179.369
20
-127.118
11
179.274
21
-127.022
0
LINE
8
BLACK
6
CONTINUOUS
10
179.274
20
-127.022
11
179.369
21
-126.927
0
LINE
8
BLACK
6
CONTINUOUS
10
179.369
20
-126.927
11
179.369
21
-127.118
0
LINE
8
BLACK
6
CONTINUOUS
10
180.702
20
-125.118
11
180.893
21
-125.118
0
LINE
8
BLACK
6
CONTINUOUS
10
180.893
20
-125.118
11
181.083
21
-125.213
0
LINE
8
BLACK
6
CONTINUOUS
10
181.083
20
-125.213
11
181.179
21
-125.308
0
LINE
8
BLACK
6
CONTINUOUS
10
181.179
20
-125.308
11
181.274
21
-125.499
0
LINE
8
BLACK
6
CONTINUOUS
10
181.274
20
-125.499
11
181.369
21
-125.88
0
LINE
8
BLACK
6
CONTINUOUS
10
181.369
20
-125.88
11
181.369
21
-126.356
0
LINE
8
BLACK
6
CONTINUOUS
10
181.369
20
-126.356
11
181.274
21
-126.737
0
LINE
8
BLACK
6
CONTINUOUS
10
181.274
20
-126.737
11
181.179
21
-126.927
0
LINE
8
BLACK
6
CONTINUOUS
10
181.179
20
-126.927
11
181.083
21
-127.022
0
LINE
8
BLACK
6
CONTINUOUS
10
181.083
20
-127.022
11
180.893
21
-127.118
0
LINE
8
BLACK
6
CONTINUOUS
10
180.893
20
-127.118
11
180.702
21
-127.118
0
LINE
8
BLACK
6
CONTINUOUS
10
180.702
20
-127.118
11
180.512
21
-127.022
0
LINE
8
BLACK
6
CONTINUOUS
10
180.512
20
-127.022
11
180.417
21
-126.927
0
LINE
8
BLACK
6
CONTINUOUS
10
180.417
20
-126.927
11
180.321
21
-126.737
0
LINE
8
BLACK
6
CONTINUOUS
10
180.321
20
-126.737
11
180.226
21
-126.356
0
LINE
8
BLACK
6
CONTINUOUS
10
180.226
20
-126.356
11
180.226
21
-125.88
0
LINE
8
BLACK
6
CONTINUOUS
10
180.226
20
-125.88
11
180.321
21
-125.499
0
LINE
8
BLACK
6
CONTINUOUS
10
180.321
20
-125.499
11
180.417
21
-125.308
0
LINE
8
BLACK
6
CONTINUOUS
10
180.417
20
-125.308
11
180.512
21
-125.213
0
LINE
8
BLACK
6
CONTINUOUS
10
180.512
20
-125.213
11
180.702
21
-125.118
0
LINE
8
BLACK
6
CONTINUOUS
10
182.036
20
-125.118
11
183.274
21
-125.118
0
LINE
8
BLACK
6
CONTINUOUS
10
183.274
20
-125.118
11
182.607
21
-125.88
0
LINE
8
BLACK
6
CONTINUOUS
10
182.607
20
-125.88
11
182.893
21
-125.88
0
LINE
8
BLACK
6
CONTINUOUS
10
182.893
20
-125.88
11
183.083
21
-125.975
0
LINE
8
BLACK
6
CONTINUOUS
10
183.083
20
-125.975
11
183.179
21
-126.07
0
LINE
8
BLACK
6
CONTINUOUS
10
183.179
20
-126.07
11
183.274
21
-126.261
0
LINE
8
BLACK
6
CONTINUOUS
10
183.274
20
-126.261
11
183.274
21
-126.737
0
LINE
8
BLACK
6
CONTINUOUS
10
183.274
20
-126.737
11
183.179
21
-126.927
0
LINE
8
BLACK
6
CONTINUOUS
10
183.179
20
-126.927
11
183.083
21
-127.022
0
LINE
8
BLACK
6
CONTINUOUS
10
183.083
20
-127.022
11
182.893
21
-127.118
0
LINE
8
BLACK
6
CONTINUOUS
10
182.893
20
-127.118
11
182.321
21
-127.118
0
LINE
8
BLACK
6
CONTINUOUS
10
182.321
20
-127.118
11
182.131
21
-127.022
0
LINE
8
BLACK
6
CONTINUOUS
10
182.131
20
-127.022
11
182.036
21
-126.927
0
LINE
8
BLACK
6
CONTINUOUS
10
184.226
20
-127.118
11
184.607
21
-127.118
0
LINE
8
BLACK
6
CONTINUOUS
10
184.607
20
-127.118
11
184.798
21
-127.022
0
LINE
8
BLACK
6
CONTINUOUS
10
184.798
20
-127.022
11
184.893
21
-126.927
0
LINE
8
BLACK
6
CONTINUOUS
10
184.893
20
-126.927
11
185.083
21
-126.642
0
LINE
8
BLACK
6
CONTINUOUS
10
185.083
20
-126.642
11
185.179
21
-126.261
0
LINE
8
BLACK
6
CONTINUOUS
10
185.179
20
-126.261
11
185.179
21
-125.499
0
LINE
8
BLACK
6
CONTINUOUS
10
185.179
20
-125.499
11
185.083
21
-125.308
0
LINE
8
BLACK
6
CONTINUOUS
10
185.083
20
-125.308
11
184.988
21
-125.213
0
LINE
8
BLACK
6
CONTINUOUS
10
184.988
20
-125.213
11
184.798
21
-125.118
0
LINE
8
BLACK
6
CONTINUOUS
10
184.798
20
-125.118
11
184.417
21
-125.118
0
LINE
8
BLACK
6
CONTINUOUS
10
184.417
20
-125.118
11
184.226
21
-125.213
0
LINE
8
BLACK
6
CONTINUOUS
10
184.226
20
-125.213
11
184.131
21
-125.308
0
LINE
8
BLACK
6
CONTINUOUS
10
184.131
20
-125.308
11
184.036
21
-125.499
0
LINE
8
BLACK
6
CONTINUOUS
10
184.036
20
-125.499
11
184.036
21
-125.975
0
LINE
8
BLACK
6
CONTINUOUS
10
184.036
20
-125.975
11
184.131
21
-126.165
0
LINE
8
BLACK
6
CONTINUOUS
10
184.131
20
-126.165
11
184.226
21
-126.261
0
LINE
8
BLACK
6
CONTINUOUS
10
184.226
20
-126.261
11
184.417
21
-126.356
0
LINE
8
BLACK
6
CONTINUOUS
10
184.417
20
-126.356
11
184.798
21
-126.356
0
LINE
8
BLACK
6
CONTINUOUS
10
184.798
20
-126.356
11
184.988
21
-126.261
0
LINE
8
BLACK
6
CONTINUOUS
10
184.988
20
-126.261
11
185.083
21
-126.165
0
LINE
8
BLACK
6
CONTINUOUS
10
185.083
20
-126.165
11
185.179
21
-125.975
0
LINE
8
BLACK
6
CONTINUOUS
10
186.893
20
-125.784
11
186.893
21
-127.118
0
LINE
8
BLACK
6
CONTINUOUS
10
186.417
20
-125.022
11
185.94
21
-126.451
0
LINE
8
BLACK
6
CONTINUOUS
10
185.94
20
-126.451
11
187.179
21
-126.451
0
LINE
8
BLACK
6
CONTINUOUS
10
187.845
20
-125.118
11
187.845
21
-125.499
0
LINE
8
BLACK
6
CONTINUOUS
10
188.607
20
-125.118
11
188.607
21
-125.499
0
LINE
8
BLACK
6
CONTINUOUS
10
191.56
20
-127.88
11
191.464
21
-127.784
0
LINE
8
BLACK
6
CONTINUOUS
10
191.464
20
-127.784
11
191.274
21
-127.499
0
LINE
8
BLACK
6
CONTINUOUS
10
191.274
20
-127.499
11
191.179
21
-127.308
0
LINE
8
BLACK
6
CONTINUOUS
10
191.179
20
-127.308
11
191.083
21
-127.022
0
LINE
8
BLACK
6
CONTINUOUS
10
191.083
20
-127.022
11
190.988
21
-126.546
0
LINE
8
BLACK
6
CONTINUOUS
10
190.988
20
-126.546
11
190.988
21
-126.165
0
LINE
8
BLACK
6
CONTINUOUS
10
190.988
20
-126.165
11
191.083
21
-125.689
0
LINE
8
BLACK
6
CONTINUOUS
10
191.083
20
-125.689
11
191.179
21
-125.403
0
LINE
8
BLACK
6
CONTINUOUS
10
191.179
20
-125.403
11
191.274
21
-125.213
0
LINE
8
BLACK
6
CONTINUOUS
10
191.274
20
-125.213
11
191.464
21
-124.927
0
LINE
8
BLACK
6
CONTINUOUS
10
191.464
20
-124.927
11
191.56
21
-124.832
0
LINE
8
BLACK
6
CONTINUOUS
10
193.179
20
-125.118
11
192.798
21
-125.118
0
LINE
8
BLACK
6
CONTINUOUS
10
192.798
20
-125.118
11
192.607
21
-125.213
0
LINE
8
BLACK
6
CONTINUOUS
10
192.607
20
-125.213
11
192.512
21
-125.308
0
LINE
8
BLACK
6
CONTINUOUS
10
192.512
20
-125.308
11
192.321
21
-125.594
0
LINE
8
BLACK
6
CONTINUOUS
10
192.321
20
-125.594
11
192.226
21
-125.975
0
LINE
8
BLACK
6
CONTINUOUS
10
192.226
20
-125.975
11
192.226
21
-126.737
0
LINE
8
BLACK
6
CONTINUOUS
10
192.226
20
-126.737
11
192.321
21
-126.927
0
LINE
8
BLACK
6
CONTINUOUS
10
192.321
20
-126.927
11
192.417
21
-127.022
0
LINE
8
BLACK
6
CONTINUOUS
10
192.417
20
-127.022
11
192.607
21
-127.118
0
LINE
8
BLACK
6
CONTINUOUS
10
192.607
20
-127.118
11
192.988
21
-127.118
0
LINE
8
BLACK
6
CONTINUOUS
10
192.988
20
-127.118
11
193.179
21
-127.022
0
LINE
8
BLACK
6
CONTINUOUS
10
193.179
20
-127.022
11
193.274
21
-126.927
0
LINE
8
BLACK
6
CONTINUOUS
10
193.274
20
-126.927
11
193.369
21
-126.737
0
LINE
8
BLACK
6
CONTINUOUS
10
193.369
20
-126.737
11
193.369
21
-126.261
0
LINE
8
BLACK
6
CONTINUOUS
10
193.369
20
-126.261
11
193.274
21
-126.07
0
LINE
8
BLACK
6
CONTINUOUS
10
193.274
20
-126.07
11
193.179
21
-125.975
0
LINE
8
BLACK
6
CONTINUOUS
10
193.179
20
-125.975
11
192.988
21
-125.88
0
LINE
8
BLACK
6
CONTINUOUS
10
192.988
20
-125.88
11
192.607
21
-125.88
0
LINE
8
BLACK
6
CONTINUOUS
10
192.607
20
-125.88
11
192.417
21
-125.975
0
LINE
8
BLACK
6
CONTINUOUS
10
192.417
20
-125.975
11
192.321
21
-126.07
0
LINE
8
BLACK
6
CONTINUOUS
10
192.321
20
-126.07
11
192.226
21
-126.261
0
LINE
8
BLACK
6
CONTINUOUS
10
195.75
20
-127.118
11
195.75
21
-125.118
0
LINE
8
BLACK
6
CONTINUOUS
10
196.607
20
-127.118
11
196.607
21
-126.07
0
LINE
8
BLACK
6
CONTINUOUS
10
196.607
20
-126.07
11
196.512
21
-125.88
0
LINE
8
BLACK
6
CONTINUOUS
10
196.512
20
-125.88
11
196.321
21
-125.784
0
LINE
8
BLACK
6
CONTINUOUS
10
196.321
20
-125.784
11
196.036
21
-125.784
0
LINE
8
BLACK
6
CONTINUOUS
10
196.036
20
-125.784
11
195.845
21
-125.88
0
LINE
8
BLACK
6
CONTINUOUS
10
195.845
20
-125.88
11
195.75
21
-125.975
0
LINE
8
BLACK
6
CONTINUOUS
10
197.845
20
-127.118
11
197.655
21
-127.022
0
LINE
8
BLACK
6
CONTINUOUS
10
197.655
20
-127.022
11
197.56
21
-126.927
0
LINE
8
BLACK
6
CONTINUOUS
10
197.56
20
-126.927
11
197.464
21
-126.737
0
LINE
8
BLACK
6
CONTINUOUS
10
197.464
20
-126.737
11
197.464
21
-126.165
0
LINE
8
BLACK
6
CONTINUOUS
10
197.464
20
-126.165
11
197.56
21
-125.975
0
LINE
8
BLACK
6
CONTINUOUS
10
197.56
20
-125.975
11
197.655
21
-125.88
0
LINE
8
BLACK
6
CONTINUOUS
10
197.655
20
-125.88
11
197.845
21
-125.784
0
LINE
8
BLACK
6
CONTINUOUS
10
197.845
20
-125.784
11
198.131
21
-125.784
0
LINE
8
BLACK
6
CONTINUOUS
10
198.131
20
-125.784
11
198.321
21
-125.88
0
LINE
8
BLACK
6
CONTINUOUS
10
198.321
20
-125.88
11
198.417
21
-125.975
0
LINE
8
BLACK
6
CONTINUOUS
10
198.417
20
-125.975
11
198.512
21
-126.165
0
LINE
8
BLACK
6
CONTINUOUS
10
198.512
20
-126.165
11
198.512
21
-126.737
0
LINE
8
BLACK
6
CONTINUOUS
10
198.512
20
-126.737
11
198.417
21
-126.927
0
LINE
8
BLACK
6
CONTINUOUS
10
198.417
20
-126.927
11
198.321
21
-127.022
0
LINE
8
BLACK
6
CONTINUOUS
10
198.321
20
-127.022
11
198.131
21
-127.118
0
LINE
8
BLACK
6
CONTINUOUS
10
198.131
20
-127.118
11
197.845
21
-127.118
0
LINE
8
BLACK
6
CONTINUOUS
10
199.655
20
-127.118
11
199.464
21
-127.022
0
LINE
8
BLACK
6
CONTINUOUS
10
199.464
20
-127.022
11
199.369
21
-126.832
0
LINE
8
BLACK
6
CONTINUOUS
10
199.369
20
-126.832
11
199.369
21
-125.118
0
LINE
8
BLACK
6
CONTINUOUS
10
201.179
20
-127.022
11
200.988
21
-127.118
0
LINE
8
BLACK
6
CONTINUOUS
10
200.988
20
-127.118
11
200.607
21
-127.118
0
LINE
8
BLACK
6
CONTINUOUS
10
200.607
20
-127.118
11
200.417
21
-127.022
0
LINE
8
BLACK
6
CONTINUOUS
10
200.417
20
-127.022
11
200.321
21
-126.832
0
LINE
8
BLACK
6
CONTINUOUS
10
200.321
20
-126.832
11
200.321
21
-126.07
0
LINE
8
BLACK
6
CONTINUOUS
10
200.321
20
-126.07
11
200.417
21
-125.88
0
LINE
8
BLACK
6
CONTINUOUS
10
200.417
20
-125.88
11
200.607
21
-125.784
0
LINE
8
BLACK
6
CONTINUOUS
10
200.607
20
-125.784
11
200.988
21
-125.784
0
LINE
8
BLACK
6
CONTINUOUS
10
200.988
20
-125.784
11
201.179
21
-125.88
0
LINE
8
BLACK
6
CONTINUOUS
10
201.179
20
-125.88
11
201.274
21
-126.07
0
LINE
8
BLACK
6
CONTINUOUS
10
201.274
20
-126.07
11
201.274
21
-126.261
0
LINE
8
BLACK
6
CONTINUOUS
10
201.274
20
-126.261
11
200.321
21
-126.451
0
LINE
8
BLACK
6
CONTINUOUS
10
202.036
20
-127.022
11
202.226
21
-127.118
0
LINE
8
BLACK
6
CONTINUOUS
10
202.226
20
-127.118
11
202.607
21
-127.118
0
LINE
8
BLACK
6
CONTINUOUS
10
202.607
20
-127.118
11
202.798
21
-127.022
0
LINE
8
BLACK
6
CONTINUOUS
10
202.798
20
-127.022
11
202.893
21
-126.832
0
LINE
8
BLACK
6
CONTINUOUS
10
202.893
20
-126.832
11
202.893
21
-126.737
0
LINE
8
BLACK
6
CONTINUOUS
10
202.893
20
-126.737
11
202.798
21
-126.546
0
LINE
8
BLACK
6
CONTINUOUS
10
202.798
20
-126.546
11
202.607
21
-126.451
0
LINE
8
BLACK
6
CONTINUOUS
10
202.607
20
-126.451
11
202.321
21
-126.451
0
LINE
8
BLACK
6
CONTINUOUS
10
202.321
20
-126.451
11
202.131
21
-126.356
0
LINE
8
BLACK
6
CONTINUOUS
10
202.131
20
-126.356
11
202.036
21
-126.165
0
LINE
8
BLACK
6
CONTINUOUS
10
202.036
20
-126.165
11
202.036
21
-126.07
0
LINE
8
BLACK
6
CONTINUOUS
10
202.036
20
-126.07
11
202.131
21
-125.88
0
LINE
8
BLACK
6
CONTINUOUS
10
202.131
20
-125.88
11
202.321
21
-125.784
0
LINE
8
BLACK
6
CONTINUOUS
10
202.321
20
-125.784
11
202.607
21
-125.784
0
LINE
8
BLACK
6
CONTINUOUS
10
202.607
20
-125.784
11
202.798
21
-125.88
0
LINE
8
BLACK
6
CONTINUOUS
10
203.56
20
-127.88
11
203.655
21
-127.784
0
LINE
8
BLACK
6
CONTINUOUS
10
203.655
20
-127.784
11
203.845
21
-127.499
0
LINE
8
BLACK
6
CONTINUOUS
10
203.845
20
-127.499
11
203.94
21
-127.308
0
LINE
8
BLACK
6
CONTINUOUS
10
203.94
20
-127.308
11
204.036
21
-127.022
0
LINE
8
BLACK
6
CONTINUOUS
10
204.036
20
-127.022
11
204.131
21
-126.546
0
LINE
8
BLACK
6
CONTINUOUS
10
204.131
20
-126.546
11
204.131
21
-126.165
0
LINE
8
BLACK
6
CONTINUOUS
10
204.131
20
-126.165
11
204.036
21
-125.689
0
LINE
8
BLACK
6
CONTINUOUS
10
204.036
20
-125.689
11
203.94
21
-125.403
0
LINE
8
BLACK
6
CONTINUOUS
10
203.94
20
-125.403
11
203.845
21
-125.213
0
LINE
8
BLACK
6
CONTINUOUS
10
203.845
20
-125.213
11
203.655
21
-124.927
0
LINE
8
BLACK
6
CONTINUOUS
10
203.655
20
-124.927
11
203.56
21
-124.832
  0
ENDSEC
  0
EOF
