G04 #@! TF.GenerationSoftware,KiCad,Pcbnew,(5.1.9-0-10_14)*
G04 #@! TF.CreationDate,2023-01-06T07:48:33+10:00*
G04 #@! TF.ProjectId,OH - Relay and Backlight Distribution,4f48202d-2052-4656-9c61-7920616e6420,rev?*
G04 #@! TF.SameCoordinates,Original*
G04 #@! TF.FileFunction,Soldermask,Bot*
G04 #@! TF.FilePolarity,Negative*
%FSLAX46Y46*%
G04 Gerber Fmt 4.6, Leading zero omitted, Abs format (unit mm)*
G04 Created by KiCad (PCBNEW (5.1.9-0-10_14)) date 2023-01-06 07:48:33*
%MOMM*%
%LPD*%
G01*
G04 APERTURE LIST*
%ADD10O,2.292000X1.842000*%
%ADD11O,1.842000X2.292000*%
%ADD12O,1.702000X1.702000*%
%ADD13C,1.702000*%
%ADD14C,1.902000*%
%ADD15C,3.302000*%
%ADD16C,0.100000*%
G04 APERTURE END LIST*
D10*
X151130000Y-89190000D03*
G36*
G01*
X150248654Y-85729000D02*
X152011346Y-85729000D01*
G75*
G02*
X152276000Y-85993654I0J-264654D01*
G01*
X152276000Y-87306346D01*
G75*
G02*
X152011346Y-87571000I-264654J0D01*
G01*
X150248654Y-87571000D01*
G75*
G02*
X149984000Y-87306346I0J264654D01*
G01*
X149984000Y-85993654D01*
G75*
G02*
X150248654Y-85729000I264654J0D01*
G01*
G37*
X151130000Y-82060000D03*
G36*
G01*
X150248654Y-78599000D02*
X152011346Y-78599000D01*
G75*
G02*
X152276000Y-78863654I0J-264654D01*
G01*
X152276000Y-80176346D01*
G75*
G02*
X152011346Y-80441000I-264654J0D01*
G01*
X150248654Y-80441000D01*
G75*
G02*
X149984000Y-80176346I0J264654D01*
G01*
X149984000Y-78863654D01*
G75*
G02*
X150248654Y-78599000I264654J0D01*
G01*
G37*
X151130000Y-74930000D03*
G36*
G01*
X150248654Y-71469000D02*
X152011346Y-71469000D01*
G75*
G02*
X152276000Y-71733654I0J-264654D01*
G01*
X152276000Y-73046346D01*
G75*
G02*
X152011346Y-73311000I-264654J0D01*
G01*
X150248654Y-73311000D01*
G75*
G02*
X149984000Y-73046346I0J264654D01*
G01*
X149984000Y-71733654D01*
G75*
G02*
X150248654Y-71469000I264654J0D01*
G01*
G37*
D11*
X130810000Y-74930000D03*
G36*
G01*
X127349000Y-75811346D02*
X127349000Y-74048654D01*
G75*
G02*
X127613654Y-73784000I264654J0D01*
G01*
X128926346Y-73784000D01*
G75*
G02*
X129191000Y-74048654I0J-264654D01*
G01*
X129191000Y-75811346D01*
G75*
G02*
X128926346Y-76076000I-264654J0D01*
G01*
X127613654Y-76076000D01*
G75*
G02*
X127349000Y-75811346I0J264654D01*
G01*
G37*
X130810000Y-87630000D03*
G36*
G01*
X127349000Y-88511346D02*
X127349000Y-86748654D01*
G75*
G02*
X127613654Y-86484000I264654J0D01*
G01*
X128926346Y-86484000D01*
G75*
G02*
X129191000Y-86748654I0J-264654D01*
G01*
X129191000Y-88511346D01*
G75*
G02*
X128926346Y-88776000I-264654J0D01*
G01*
X127613654Y-88776000D01*
G75*
G02*
X127349000Y-88511346I0J264654D01*
G01*
G37*
G36*
G01*
X118389000Y-104660500D02*
X118389000Y-102859500D01*
G75*
G02*
X119289500Y-101959000I900500J0D01*
G01*
X121090500Y-101959000D01*
G75*
G02*
X121991000Y-102859500I0J-900500D01*
G01*
X121991000Y-104660500D01*
G75*
G02*
X121090500Y-105561000I-900500J0D01*
G01*
X119289500Y-105561000D01*
G75*
G02*
X118389000Y-104660500I0J900500D01*
G01*
G37*
G36*
G01*
X115639000Y-100085500D02*
X115639000Y-98034500D01*
G75*
G02*
X116414500Y-97259000I775500J0D01*
G01*
X117965500Y-97259000D01*
G75*
G02*
X118741000Y-98034500I0J-775500D01*
G01*
X118741000Y-100085500D01*
G75*
G02*
X117965500Y-100861000I-775500J0D01*
G01*
X116414500Y-100861000D01*
G75*
G02*
X115639000Y-100085500I0J775500D01*
G01*
G37*
G36*
G01*
X121389000Y-100810000D02*
X121389000Y-97310000D01*
G75*
G02*
X121440000Y-97259000I51000J0D01*
G01*
X124940000Y-97259000D01*
G75*
G02*
X124991000Y-97310000I0J-51000D01*
G01*
X124991000Y-100810000D01*
G75*
G02*
X124940000Y-100861000I-51000J0D01*
G01*
X121440000Y-100861000D01*
G75*
G02*
X121389000Y-100810000I0J51000D01*
G01*
G37*
X149860000Y-59690000D03*
X147320000Y-59690000D03*
X144780000Y-59690000D03*
X142240000Y-59690000D03*
X139700000Y-59690000D03*
X137160000Y-59690000D03*
X134620000Y-59690000D03*
G36*
G01*
X131159000Y-60571346D02*
X131159000Y-58808654D01*
G75*
G02*
X131423654Y-58544000I264654J0D01*
G01*
X132736346Y-58544000D01*
G75*
G02*
X133001000Y-58808654I0J-264654D01*
G01*
X133001000Y-60571346D01*
G75*
G02*
X132736346Y-60836000I-264654J0D01*
G01*
X131423654Y-60836000D01*
G75*
G02*
X131159000Y-60571346I0J264654D01*
G01*
G37*
D10*
X139700000Y-100330000D03*
G36*
G01*
X138818654Y-96869000D02*
X140581346Y-96869000D01*
G75*
G02*
X140846000Y-97133654I0J-264654D01*
G01*
X140846000Y-98446346D01*
G75*
G02*
X140581346Y-98711000I-264654J0D01*
G01*
X138818654Y-98711000D01*
G75*
G02*
X138554000Y-98446346I0J264654D01*
G01*
X138554000Y-97133654D01*
G75*
G02*
X138818654Y-96869000I264654J0D01*
G01*
G37*
X139700000Y-89535000D03*
G36*
G01*
X138818654Y-86074000D02*
X140581346Y-86074000D01*
G75*
G02*
X140846000Y-86338654I0J-264654D01*
G01*
X140846000Y-87651346D01*
G75*
G02*
X140581346Y-87916000I-264654J0D01*
G01*
X138818654Y-87916000D01*
G75*
G02*
X138554000Y-87651346I0J264654D01*
G01*
X138554000Y-86338654D01*
G75*
G02*
X138818654Y-86074000I264654J0D01*
G01*
G37*
G36*
G01*
X118389000Y-80107200D02*
X118389000Y-78306200D01*
G75*
G02*
X119289500Y-77405700I900500J0D01*
G01*
X121090500Y-77405700D01*
G75*
G02*
X121991000Y-78306200I0J-900500D01*
G01*
X121991000Y-80107200D01*
G75*
G02*
X121090500Y-81007700I-900500J0D01*
G01*
X119289500Y-81007700D01*
G75*
G02*
X118389000Y-80107200I0J900500D01*
G01*
G37*
G36*
G01*
X115639000Y-75532200D02*
X115639000Y-73481200D01*
G75*
G02*
X116414500Y-72705700I775500J0D01*
G01*
X117965500Y-72705700D01*
G75*
G02*
X118741000Y-73481200I0J-775500D01*
G01*
X118741000Y-75532200D01*
G75*
G02*
X117965500Y-76307700I-775500J0D01*
G01*
X116414500Y-76307700D01*
G75*
G02*
X115639000Y-75532200I0J775500D01*
G01*
G37*
G36*
G01*
X121389000Y-76256700D02*
X121389000Y-72756700D01*
G75*
G02*
X121440000Y-72705700I51000J0D01*
G01*
X124940000Y-72705700D01*
G75*
G02*
X124991000Y-72756700I0J-51000D01*
G01*
X124991000Y-76256700D01*
G75*
G02*
X124940000Y-76307700I-51000J0D01*
G01*
X121440000Y-76307700D01*
G75*
G02*
X121389000Y-76256700I0J51000D01*
G01*
G37*
G36*
G01*
X118389000Y-67830500D02*
X118389000Y-66029500D01*
G75*
G02*
X119289500Y-65129000I900500J0D01*
G01*
X121090500Y-65129000D01*
G75*
G02*
X121991000Y-66029500I0J-900500D01*
G01*
X121991000Y-67830500D01*
G75*
G02*
X121090500Y-68731000I-900500J0D01*
G01*
X119289500Y-68731000D01*
G75*
G02*
X118389000Y-67830500I0J900500D01*
G01*
G37*
G36*
G01*
X115639000Y-63255500D02*
X115639000Y-61204500D01*
G75*
G02*
X116414500Y-60429000I775500J0D01*
G01*
X117965500Y-60429000D01*
G75*
G02*
X118741000Y-61204500I0J-775500D01*
G01*
X118741000Y-63255500D01*
G75*
G02*
X117965500Y-64031000I-775500J0D01*
G01*
X116414500Y-64031000D01*
G75*
G02*
X115639000Y-63255500I0J775500D01*
G01*
G37*
G36*
G01*
X121389000Y-63980000D02*
X121389000Y-60480000D01*
G75*
G02*
X121440000Y-60429000I51000J0D01*
G01*
X124940000Y-60429000D01*
G75*
G02*
X124991000Y-60480000I0J-51000D01*
G01*
X124991000Y-63980000D01*
G75*
G02*
X124940000Y-64031000I-51000J0D01*
G01*
X121440000Y-64031000D01*
G75*
G02*
X121389000Y-63980000I0J51000D01*
G01*
G37*
X139700000Y-78740000D03*
G36*
G01*
X138818654Y-75279000D02*
X140581346Y-75279000D01*
G75*
G02*
X140846000Y-75543654I0J-264654D01*
G01*
X140846000Y-76856346D01*
G75*
G02*
X140581346Y-77121000I-264654J0D01*
G01*
X138818654Y-77121000D01*
G75*
G02*
X138554000Y-76856346I0J264654D01*
G01*
X138554000Y-75543654D01*
G75*
G02*
X138818654Y-75279000I264654J0D01*
G01*
G37*
D11*
X168910000Y-92710000D03*
G36*
G01*
X165449000Y-93591346D02*
X165449000Y-91828654D01*
G75*
G02*
X165713654Y-91564000I264654J0D01*
G01*
X167026346Y-91564000D01*
G75*
G02*
X167291000Y-91828654I0J-264654D01*
G01*
X167291000Y-93591346D01*
G75*
G02*
X167026346Y-93856000I-264654J0D01*
G01*
X165713654Y-93856000D01*
G75*
G02*
X165449000Y-93591346I0J264654D01*
G01*
G37*
X168910000Y-82550000D03*
G36*
G01*
X165449000Y-83431346D02*
X165449000Y-81668654D01*
G75*
G02*
X165713654Y-81404000I264654J0D01*
G01*
X167026346Y-81404000D01*
G75*
G02*
X167291000Y-81668654I0J-264654D01*
G01*
X167291000Y-83431346D01*
G75*
G02*
X167026346Y-83696000I-264654J0D01*
G01*
X165713654Y-83696000D01*
G75*
G02*
X165449000Y-83431346I0J264654D01*
G01*
G37*
X168910000Y-71120000D03*
G36*
G01*
X165449000Y-72001346D02*
X165449000Y-70238654D01*
G75*
G02*
X165713654Y-69974000I264654J0D01*
G01*
X167026346Y-69974000D01*
G75*
G02*
X167291000Y-70238654I0J-264654D01*
G01*
X167291000Y-72001346D01*
G75*
G02*
X167026346Y-72266000I-264654J0D01*
G01*
X165713654Y-72266000D01*
G75*
G02*
X165449000Y-72001346I0J264654D01*
G01*
G37*
G36*
G01*
X118389000Y-92383800D02*
X118389000Y-90582800D01*
G75*
G02*
X119289500Y-89682300I900500J0D01*
G01*
X121090500Y-89682300D01*
G75*
G02*
X121991000Y-90582800I0J-900500D01*
G01*
X121991000Y-92383800D01*
G75*
G02*
X121090500Y-93284300I-900500J0D01*
G01*
X119289500Y-93284300D01*
G75*
G02*
X118389000Y-92383800I0J900500D01*
G01*
G37*
G36*
G01*
X115639000Y-87808800D02*
X115639000Y-85757800D01*
G75*
G02*
X116414500Y-84982300I775500J0D01*
G01*
X117965500Y-84982300D01*
G75*
G02*
X118741000Y-85757800I0J-775500D01*
G01*
X118741000Y-87808800D01*
G75*
G02*
X117965500Y-88584300I-775500J0D01*
G01*
X116414500Y-88584300D01*
G75*
G02*
X115639000Y-87808800I0J775500D01*
G01*
G37*
G36*
G01*
X121389000Y-88533300D02*
X121389000Y-85033300D01*
G75*
G02*
X121440000Y-84982300I51000J0D01*
G01*
X124940000Y-84982300D01*
G75*
G02*
X124991000Y-85033300I0J-51000D01*
G01*
X124991000Y-88533300D01*
G75*
G02*
X124940000Y-88584300I-51000J0D01*
G01*
X121440000Y-88584300D01*
G75*
G02*
X121389000Y-88533300I0J51000D01*
G01*
G37*
D12*
X158750000Y-87630000D03*
D13*
X158750000Y-95250000D03*
D12*
X158750000Y-76200000D03*
D13*
X158750000Y-68580000D03*
D14*
X157480000Y-101600000D03*
G36*
G01*
X160971000Y-100700000D02*
X160971000Y-102500000D01*
G75*
G02*
X160920000Y-102551000I-51000J0D01*
G01*
X159120000Y-102551000D01*
G75*
G02*
X159069000Y-102500000I0J51000D01*
G01*
X159069000Y-100700000D01*
G75*
G02*
X159120000Y-100649000I51000J0D01*
G01*
X160920000Y-100649000D01*
G75*
G02*
X160971000Y-100700000I0J-51000D01*
G01*
G37*
X157480000Y-63500000D03*
G36*
G01*
X160971000Y-62600000D02*
X160971000Y-64400000D01*
G75*
G02*
X160920000Y-64451000I-51000J0D01*
G01*
X159120000Y-64451000D01*
G75*
G02*
X159069000Y-64400000I0J51000D01*
G01*
X159069000Y-62600000D01*
G75*
G02*
X159120000Y-62549000I51000J0D01*
G01*
X160920000Y-62549000D01*
G75*
G02*
X160971000Y-62600000I0J-51000D01*
G01*
G37*
D15*
X168420000Y-103720000D03*
X168420000Y-58650000D03*
X104580000Y-103720000D03*
X104580000Y-58650000D03*
D16*
G36*
X118390990Y-104660304D02*
G01*
X118408273Y-104835784D01*
X118459403Y-105004337D01*
X118542433Y-105159675D01*
X118654171Y-105295829D01*
X118790325Y-105407567D01*
X118945663Y-105490597D01*
X119114216Y-105541727D01*
X119289696Y-105559010D01*
X119291322Y-105560175D01*
X119291126Y-105562165D01*
X119289500Y-105563000D01*
X119233140Y-105563000D01*
X119232944Y-105562990D01*
X119063438Y-105546295D01*
X119063053Y-105546219D01*
X118905959Y-105498565D01*
X118905597Y-105498415D01*
X118760826Y-105421033D01*
X118760500Y-105420815D01*
X118633603Y-105316674D01*
X118633326Y-105316397D01*
X118529185Y-105189500D01*
X118528967Y-105189174D01*
X118451585Y-105044403D01*
X118451435Y-105044041D01*
X118403781Y-104886947D01*
X118403705Y-104886562D01*
X118387010Y-104717056D01*
X118387000Y-104716860D01*
X118387000Y-104660500D01*
X118388000Y-104658768D01*
X118390000Y-104658768D01*
X118390990Y-104660304D01*
G37*
G36*
X121992165Y-104658874D02*
G01*
X121993000Y-104660500D01*
X121993000Y-104716860D01*
X121992990Y-104717056D01*
X121976295Y-104886562D01*
X121976219Y-104886947D01*
X121928565Y-105044041D01*
X121928415Y-105044403D01*
X121851033Y-105189174D01*
X121850815Y-105189500D01*
X121746674Y-105316397D01*
X121746397Y-105316674D01*
X121619500Y-105420815D01*
X121619174Y-105421033D01*
X121474403Y-105498415D01*
X121474041Y-105498565D01*
X121316947Y-105546219D01*
X121316562Y-105546295D01*
X121147056Y-105562990D01*
X121146860Y-105563000D01*
X121090500Y-105563000D01*
X121088768Y-105562000D01*
X121088768Y-105560000D01*
X121090304Y-105559010D01*
X121265784Y-105541727D01*
X121434337Y-105490597D01*
X121589675Y-105407567D01*
X121725829Y-105295829D01*
X121837567Y-105159675D01*
X121920597Y-105004337D01*
X121971727Y-104835784D01*
X121989010Y-104660304D01*
X121990175Y-104658678D01*
X121992165Y-104658874D01*
G37*
G36*
X119291232Y-101958000D02*
G01*
X119291232Y-101960000D01*
X119289696Y-101960990D01*
X119114216Y-101978273D01*
X118945663Y-102029403D01*
X118790325Y-102112433D01*
X118654171Y-102224171D01*
X118542433Y-102360325D01*
X118459403Y-102515663D01*
X118408273Y-102684216D01*
X118390990Y-102859696D01*
X118389825Y-102861322D01*
X118387835Y-102861126D01*
X118387000Y-102859500D01*
X118387000Y-102803140D01*
X118387010Y-102802944D01*
X118403705Y-102633438D01*
X118403781Y-102633053D01*
X118451435Y-102475959D01*
X118451585Y-102475597D01*
X118528967Y-102330826D01*
X118529185Y-102330500D01*
X118633326Y-102203603D01*
X118633603Y-102203326D01*
X118760500Y-102099185D01*
X118760826Y-102098967D01*
X118905597Y-102021585D01*
X118905959Y-102021435D01*
X119063053Y-101973781D01*
X119063438Y-101973705D01*
X119232944Y-101957010D01*
X119233140Y-101957000D01*
X119289500Y-101957000D01*
X119291232Y-101958000D01*
G37*
G36*
X121147056Y-101957010D02*
G01*
X121316562Y-101973705D01*
X121316947Y-101973781D01*
X121474041Y-102021435D01*
X121474403Y-102021585D01*
X121619174Y-102098967D01*
X121619500Y-102099185D01*
X121746397Y-102203326D01*
X121746674Y-102203603D01*
X121850815Y-102330500D01*
X121851033Y-102330826D01*
X121928415Y-102475597D01*
X121928565Y-102475959D01*
X121976219Y-102633053D01*
X121976295Y-102633438D01*
X121992990Y-102802944D01*
X121993000Y-102803140D01*
X121993000Y-102859500D01*
X121992000Y-102861232D01*
X121990000Y-102861232D01*
X121989010Y-102859696D01*
X121971727Y-102684216D01*
X121920597Y-102515663D01*
X121837567Y-102360325D01*
X121725829Y-102224171D01*
X121589675Y-102112433D01*
X121434337Y-102029403D01*
X121265784Y-101978273D01*
X121090304Y-101960990D01*
X121088678Y-101959825D01*
X121088874Y-101957835D01*
X121090500Y-101957000D01*
X121146860Y-101957000D01*
X121147056Y-101957010D01*
G37*
G36*
X115640990Y-100085304D02*
G01*
X115655871Y-100236398D01*
X115699888Y-100381502D01*
X115771366Y-100515229D01*
X115867560Y-100632440D01*
X115984771Y-100728634D01*
X116118498Y-100800112D01*
X116263602Y-100844129D01*
X116414696Y-100859010D01*
X116416322Y-100860175D01*
X116416126Y-100862165D01*
X116414500Y-100863000D01*
X116358140Y-100863000D01*
X116357944Y-100862990D01*
X116212825Y-100848697D01*
X116212440Y-100848621D01*
X116078794Y-100808080D01*
X116078432Y-100807930D01*
X115955273Y-100742100D01*
X115954947Y-100741882D01*
X115846991Y-100653286D01*
X115846714Y-100653009D01*
X115758118Y-100545053D01*
X115757900Y-100544727D01*
X115692070Y-100421568D01*
X115691920Y-100421206D01*
X115651379Y-100287560D01*
X115651303Y-100287175D01*
X115637010Y-100142056D01*
X115637000Y-100141860D01*
X115637000Y-100085500D01*
X115638000Y-100083768D01*
X115640000Y-100083768D01*
X115640990Y-100085304D01*
G37*
G36*
X118742165Y-100083874D02*
G01*
X118743000Y-100085500D01*
X118743000Y-100141860D01*
X118742990Y-100142056D01*
X118728697Y-100287175D01*
X118728621Y-100287560D01*
X118688080Y-100421206D01*
X118687930Y-100421568D01*
X118622100Y-100544727D01*
X118621882Y-100545053D01*
X118533286Y-100653009D01*
X118533009Y-100653286D01*
X118425053Y-100741882D01*
X118424727Y-100742100D01*
X118301568Y-100807930D01*
X118301206Y-100808080D01*
X118167560Y-100848621D01*
X118167175Y-100848697D01*
X118022056Y-100862990D01*
X118021860Y-100863000D01*
X117965500Y-100863000D01*
X117963768Y-100862000D01*
X117963768Y-100860000D01*
X117965304Y-100859010D01*
X118116398Y-100844129D01*
X118261502Y-100800112D01*
X118395229Y-100728634D01*
X118512440Y-100632440D01*
X118608634Y-100515229D01*
X118680112Y-100381502D01*
X118724129Y-100236398D01*
X118739010Y-100085304D01*
X118740175Y-100083678D01*
X118742165Y-100083874D01*
G37*
G36*
X138555990Y-98446150D02*
G01*
X138561055Y-98497582D01*
X138576003Y-98546856D01*
X138600273Y-98592264D01*
X138632936Y-98632064D01*
X138672736Y-98664727D01*
X138718144Y-98688997D01*
X138767418Y-98703945D01*
X138818850Y-98709010D01*
X138820476Y-98710175D01*
X138820280Y-98712165D01*
X138818654Y-98713000D01*
X138735712Y-98713000D01*
X138735516Y-98712990D01*
X138695244Y-98709024D01*
X138694859Y-98708948D01*
X138662035Y-98698990D01*
X138661673Y-98698840D01*
X138631425Y-98682672D01*
X138631099Y-98682454D01*
X138604583Y-98660694D01*
X138604306Y-98660417D01*
X138582546Y-98633901D01*
X138582328Y-98633575D01*
X138566160Y-98603327D01*
X138566010Y-98602965D01*
X138556052Y-98570141D01*
X138555976Y-98569756D01*
X138552010Y-98529484D01*
X138552000Y-98529288D01*
X138552000Y-98446346D01*
X138553000Y-98444614D01*
X138555000Y-98444614D01*
X138555990Y-98446150D01*
G37*
G36*
X140847165Y-98444720D02*
G01*
X140848000Y-98446346D01*
X140848000Y-98529288D01*
X140847990Y-98529484D01*
X140844024Y-98569756D01*
X140843948Y-98570141D01*
X140833990Y-98602965D01*
X140833840Y-98603327D01*
X140817672Y-98633575D01*
X140817454Y-98633901D01*
X140795694Y-98660417D01*
X140795417Y-98660694D01*
X140768901Y-98682454D01*
X140768575Y-98682672D01*
X140738327Y-98698840D01*
X140737965Y-98698990D01*
X140705141Y-98708948D01*
X140704756Y-98709024D01*
X140664484Y-98712990D01*
X140664288Y-98713000D01*
X140581346Y-98713000D01*
X140579614Y-98712000D01*
X140579614Y-98710000D01*
X140581150Y-98709010D01*
X140632582Y-98703945D01*
X140681856Y-98688997D01*
X140727264Y-98664727D01*
X140767064Y-98632064D01*
X140799727Y-98592264D01*
X140823997Y-98546856D01*
X140838945Y-98497582D01*
X140844010Y-98446150D01*
X140845175Y-98444524D01*
X140847165Y-98444720D01*
G37*
G36*
X116416232Y-97258000D02*
G01*
X116416232Y-97260000D01*
X116414696Y-97260990D01*
X116263602Y-97275871D01*
X116118498Y-97319888D01*
X115984771Y-97391366D01*
X115867560Y-97487560D01*
X115771366Y-97604771D01*
X115699888Y-97738498D01*
X115655871Y-97883602D01*
X115640990Y-98034696D01*
X115639825Y-98036322D01*
X115637835Y-98036126D01*
X115637000Y-98034500D01*
X115637000Y-97978140D01*
X115637010Y-97977944D01*
X115651303Y-97832825D01*
X115651379Y-97832440D01*
X115691920Y-97698794D01*
X115692070Y-97698432D01*
X115757900Y-97575273D01*
X115758118Y-97574947D01*
X115846714Y-97466991D01*
X115846991Y-97466714D01*
X115954947Y-97378118D01*
X115955273Y-97377900D01*
X116078432Y-97312070D01*
X116078794Y-97311920D01*
X116212440Y-97271379D01*
X116212825Y-97271303D01*
X116357944Y-97257010D01*
X116358140Y-97257000D01*
X116414500Y-97257000D01*
X116416232Y-97258000D01*
G37*
G36*
X118022056Y-97257010D02*
G01*
X118167175Y-97271303D01*
X118167560Y-97271379D01*
X118301206Y-97311920D01*
X118301568Y-97312070D01*
X118424727Y-97377900D01*
X118425053Y-97378118D01*
X118533009Y-97466714D01*
X118533286Y-97466991D01*
X118621882Y-97574947D01*
X118622100Y-97575273D01*
X118687930Y-97698432D01*
X118688080Y-97698794D01*
X118728621Y-97832440D01*
X118728697Y-97832825D01*
X118742990Y-97977944D01*
X118743000Y-97978140D01*
X118743000Y-98034500D01*
X118742000Y-98036232D01*
X118740000Y-98036232D01*
X118739010Y-98034696D01*
X118724129Y-97883602D01*
X118680112Y-97738498D01*
X118608634Y-97604771D01*
X118512440Y-97487560D01*
X118395229Y-97391366D01*
X118261502Y-97319888D01*
X118116398Y-97275871D01*
X117965304Y-97260990D01*
X117963678Y-97259825D01*
X117963874Y-97257835D01*
X117965500Y-97257000D01*
X118021860Y-97257000D01*
X118022056Y-97257010D01*
G37*
G36*
X138820386Y-96868000D02*
G01*
X138820386Y-96870000D01*
X138818850Y-96870990D01*
X138767418Y-96876055D01*
X138718144Y-96891003D01*
X138672736Y-96915273D01*
X138632936Y-96947936D01*
X138600273Y-96987736D01*
X138576003Y-97033144D01*
X138561055Y-97082418D01*
X138555990Y-97133850D01*
X138554825Y-97135476D01*
X138552835Y-97135280D01*
X138552000Y-97133654D01*
X138552000Y-97050712D01*
X138552010Y-97050516D01*
X138555976Y-97010244D01*
X138556052Y-97009859D01*
X138566010Y-96977035D01*
X138566160Y-96976673D01*
X138582328Y-96946425D01*
X138582546Y-96946099D01*
X138604306Y-96919583D01*
X138604583Y-96919306D01*
X138631099Y-96897546D01*
X138631425Y-96897328D01*
X138661673Y-96881160D01*
X138662035Y-96881010D01*
X138694859Y-96871052D01*
X138695244Y-96870976D01*
X138735516Y-96867010D01*
X138735712Y-96867000D01*
X138818654Y-96867000D01*
X138820386Y-96868000D01*
G37*
G36*
X140664484Y-96867010D02*
G01*
X140704756Y-96870976D01*
X140705141Y-96871052D01*
X140737965Y-96881010D01*
X140738327Y-96881160D01*
X140768575Y-96897328D01*
X140768901Y-96897546D01*
X140795417Y-96919306D01*
X140795694Y-96919583D01*
X140817454Y-96946099D01*
X140817672Y-96946425D01*
X140833840Y-96976673D01*
X140833990Y-96977035D01*
X140843948Y-97009859D01*
X140844024Y-97010244D01*
X140847990Y-97050516D01*
X140848000Y-97050712D01*
X140848000Y-97133654D01*
X140847000Y-97135386D01*
X140845000Y-97135386D01*
X140844010Y-97133850D01*
X140838945Y-97082418D01*
X140823997Y-97033144D01*
X140799727Y-96987736D01*
X140767064Y-96947936D01*
X140727264Y-96915273D01*
X140681856Y-96891003D01*
X140632582Y-96876055D01*
X140581150Y-96870990D01*
X140579524Y-96869825D01*
X140579720Y-96867835D01*
X140581346Y-96867000D01*
X140664288Y-96867000D01*
X140664484Y-96867010D01*
G37*
G36*
X165450990Y-93591150D02*
G01*
X165456055Y-93642582D01*
X165471003Y-93691856D01*
X165495273Y-93737264D01*
X165527936Y-93777064D01*
X165567736Y-93809727D01*
X165613144Y-93833997D01*
X165662418Y-93848945D01*
X165713850Y-93854010D01*
X165715476Y-93855175D01*
X165715280Y-93857165D01*
X165713654Y-93858000D01*
X165630712Y-93858000D01*
X165630516Y-93857990D01*
X165590244Y-93854024D01*
X165589859Y-93853948D01*
X165557035Y-93843990D01*
X165556673Y-93843840D01*
X165526425Y-93827672D01*
X165526099Y-93827454D01*
X165499583Y-93805694D01*
X165499306Y-93805417D01*
X165477546Y-93778901D01*
X165477328Y-93778575D01*
X165461160Y-93748327D01*
X165461010Y-93747965D01*
X165451052Y-93715141D01*
X165450976Y-93714756D01*
X165447010Y-93674484D01*
X165447000Y-93674288D01*
X165447000Y-93591346D01*
X165448000Y-93589614D01*
X165450000Y-93589614D01*
X165450990Y-93591150D01*
G37*
G36*
X167292165Y-93589720D02*
G01*
X167293000Y-93591346D01*
X167293000Y-93674288D01*
X167292990Y-93674484D01*
X167289024Y-93714756D01*
X167288948Y-93715141D01*
X167278990Y-93747965D01*
X167278840Y-93748327D01*
X167262672Y-93778575D01*
X167262454Y-93778901D01*
X167240694Y-93805417D01*
X167240417Y-93805694D01*
X167213901Y-93827454D01*
X167213575Y-93827672D01*
X167183327Y-93843840D01*
X167182965Y-93843990D01*
X167150141Y-93853948D01*
X167149756Y-93854024D01*
X167109484Y-93857990D01*
X167109288Y-93858000D01*
X167026346Y-93858000D01*
X167024614Y-93857000D01*
X167024614Y-93855000D01*
X167026150Y-93854010D01*
X167077582Y-93848945D01*
X167126856Y-93833997D01*
X167172264Y-93809727D01*
X167212064Y-93777064D01*
X167244727Y-93737264D01*
X167268997Y-93691856D01*
X167283945Y-93642582D01*
X167289010Y-93591150D01*
X167290175Y-93589524D01*
X167292165Y-93589720D01*
G37*
G36*
X118390990Y-92383604D02*
G01*
X118408273Y-92559084D01*
X118459403Y-92727637D01*
X118542433Y-92882975D01*
X118654171Y-93019129D01*
X118790325Y-93130867D01*
X118945663Y-93213897D01*
X119114216Y-93265027D01*
X119289696Y-93282310D01*
X119291322Y-93283475D01*
X119291126Y-93285465D01*
X119289500Y-93286300D01*
X119233140Y-93286300D01*
X119232944Y-93286290D01*
X119063438Y-93269595D01*
X119063053Y-93269519D01*
X118905959Y-93221865D01*
X118905597Y-93221715D01*
X118760826Y-93144333D01*
X118760500Y-93144115D01*
X118633603Y-93039974D01*
X118633326Y-93039697D01*
X118529185Y-92912800D01*
X118528967Y-92912474D01*
X118451585Y-92767703D01*
X118451435Y-92767341D01*
X118403781Y-92610247D01*
X118403705Y-92609862D01*
X118387010Y-92440356D01*
X118387000Y-92440160D01*
X118387000Y-92383800D01*
X118388000Y-92382068D01*
X118390000Y-92382068D01*
X118390990Y-92383604D01*
G37*
G36*
X121992165Y-92382174D02*
G01*
X121993000Y-92383800D01*
X121993000Y-92440160D01*
X121992990Y-92440356D01*
X121976295Y-92609862D01*
X121976219Y-92610247D01*
X121928565Y-92767341D01*
X121928415Y-92767703D01*
X121851033Y-92912474D01*
X121850815Y-92912800D01*
X121746674Y-93039697D01*
X121746397Y-93039974D01*
X121619500Y-93144115D01*
X121619174Y-93144333D01*
X121474403Y-93221715D01*
X121474041Y-93221865D01*
X121316947Y-93269519D01*
X121316562Y-93269595D01*
X121147056Y-93286290D01*
X121146860Y-93286300D01*
X121090500Y-93286300D01*
X121088768Y-93285300D01*
X121088768Y-93283300D01*
X121090304Y-93282310D01*
X121265784Y-93265027D01*
X121434337Y-93213897D01*
X121589675Y-93130867D01*
X121725829Y-93019129D01*
X121837567Y-92882975D01*
X121920597Y-92727637D01*
X121971727Y-92559084D01*
X121989010Y-92383604D01*
X121990175Y-92381978D01*
X121992165Y-92382174D01*
G37*
G36*
X165715386Y-91563000D02*
G01*
X165715386Y-91565000D01*
X165713850Y-91565990D01*
X165662418Y-91571055D01*
X165613144Y-91586003D01*
X165567736Y-91610273D01*
X165527936Y-91642936D01*
X165495273Y-91682736D01*
X165471003Y-91728144D01*
X165456055Y-91777418D01*
X165450990Y-91828850D01*
X165449825Y-91830476D01*
X165447835Y-91830280D01*
X165447000Y-91828654D01*
X165447000Y-91745712D01*
X165447010Y-91745516D01*
X165450976Y-91705244D01*
X165451052Y-91704859D01*
X165461010Y-91672035D01*
X165461160Y-91671673D01*
X165477328Y-91641425D01*
X165477546Y-91641099D01*
X165499306Y-91614583D01*
X165499583Y-91614306D01*
X165526099Y-91592546D01*
X165526425Y-91592328D01*
X165556673Y-91576160D01*
X165557035Y-91576010D01*
X165589859Y-91566052D01*
X165590244Y-91565976D01*
X165630516Y-91562010D01*
X165630712Y-91562000D01*
X165713654Y-91562000D01*
X165715386Y-91563000D01*
G37*
G36*
X167109484Y-91562010D02*
G01*
X167149756Y-91565976D01*
X167150141Y-91566052D01*
X167182965Y-91576010D01*
X167183327Y-91576160D01*
X167213575Y-91592328D01*
X167213901Y-91592546D01*
X167240417Y-91614306D01*
X167240694Y-91614583D01*
X167262454Y-91641099D01*
X167262672Y-91641425D01*
X167278840Y-91671673D01*
X167278990Y-91672035D01*
X167288948Y-91704859D01*
X167289024Y-91705244D01*
X167292990Y-91745516D01*
X167293000Y-91745712D01*
X167293000Y-91828654D01*
X167292000Y-91830386D01*
X167290000Y-91830386D01*
X167289010Y-91828850D01*
X167283945Y-91777418D01*
X167268997Y-91728144D01*
X167244727Y-91682736D01*
X167212064Y-91642936D01*
X167172264Y-91610273D01*
X167126856Y-91586003D01*
X167077582Y-91571055D01*
X167026150Y-91565990D01*
X167024524Y-91564825D01*
X167024720Y-91562835D01*
X167026346Y-91562000D01*
X167109288Y-91562000D01*
X167109484Y-91562010D01*
G37*
G36*
X119291232Y-89681300D02*
G01*
X119291232Y-89683300D01*
X119289696Y-89684290D01*
X119114216Y-89701573D01*
X118945663Y-89752703D01*
X118790325Y-89835733D01*
X118654171Y-89947471D01*
X118542433Y-90083625D01*
X118459403Y-90238963D01*
X118408273Y-90407516D01*
X118390990Y-90582996D01*
X118389825Y-90584622D01*
X118387835Y-90584426D01*
X118387000Y-90582800D01*
X118387000Y-90526440D01*
X118387010Y-90526244D01*
X118403705Y-90356738D01*
X118403781Y-90356353D01*
X118451435Y-90199259D01*
X118451585Y-90198897D01*
X118528967Y-90054126D01*
X118529185Y-90053800D01*
X118633326Y-89926903D01*
X118633603Y-89926626D01*
X118760500Y-89822485D01*
X118760826Y-89822267D01*
X118905597Y-89744885D01*
X118905959Y-89744735D01*
X119063053Y-89697081D01*
X119063438Y-89697005D01*
X119232944Y-89680310D01*
X119233140Y-89680300D01*
X119289500Y-89680300D01*
X119291232Y-89681300D01*
G37*
G36*
X121147056Y-89680310D02*
G01*
X121316562Y-89697005D01*
X121316947Y-89697081D01*
X121474041Y-89744735D01*
X121474403Y-89744885D01*
X121619174Y-89822267D01*
X121619500Y-89822485D01*
X121746397Y-89926626D01*
X121746674Y-89926903D01*
X121850815Y-90053800D01*
X121851033Y-90054126D01*
X121928415Y-90198897D01*
X121928565Y-90199259D01*
X121976219Y-90356353D01*
X121976295Y-90356738D01*
X121992990Y-90526244D01*
X121993000Y-90526440D01*
X121993000Y-90582800D01*
X121992000Y-90584532D01*
X121990000Y-90584532D01*
X121989010Y-90582996D01*
X121971727Y-90407516D01*
X121920597Y-90238963D01*
X121837567Y-90083625D01*
X121725829Y-89947471D01*
X121589675Y-89835733D01*
X121434337Y-89752703D01*
X121265784Y-89701573D01*
X121090304Y-89684290D01*
X121088678Y-89683125D01*
X121088874Y-89681135D01*
X121090500Y-89680300D01*
X121146860Y-89680300D01*
X121147056Y-89680310D01*
G37*
G36*
X127350990Y-88511150D02*
G01*
X127356055Y-88562582D01*
X127371003Y-88611856D01*
X127395273Y-88657264D01*
X127427936Y-88697064D01*
X127467736Y-88729727D01*
X127513144Y-88753997D01*
X127562418Y-88768945D01*
X127613850Y-88774010D01*
X127615476Y-88775175D01*
X127615280Y-88777165D01*
X127613654Y-88778000D01*
X127530712Y-88778000D01*
X127530516Y-88777990D01*
X127490244Y-88774024D01*
X127489859Y-88773948D01*
X127457035Y-88763990D01*
X127456673Y-88763840D01*
X127426425Y-88747672D01*
X127426099Y-88747454D01*
X127399583Y-88725694D01*
X127399306Y-88725417D01*
X127377546Y-88698901D01*
X127377328Y-88698575D01*
X127361160Y-88668327D01*
X127361010Y-88667965D01*
X127351052Y-88635141D01*
X127350976Y-88634756D01*
X127347010Y-88594484D01*
X127347000Y-88594288D01*
X127347000Y-88511346D01*
X127348000Y-88509614D01*
X127350000Y-88509614D01*
X127350990Y-88511150D01*
G37*
G36*
X129192165Y-88509720D02*
G01*
X129193000Y-88511346D01*
X129193000Y-88594288D01*
X129192990Y-88594484D01*
X129189024Y-88634756D01*
X129188948Y-88635141D01*
X129178990Y-88667965D01*
X129178840Y-88668327D01*
X129162672Y-88698575D01*
X129162454Y-88698901D01*
X129140694Y-88725417D01*
X129140417Y-88725694D01*
X129113901Y-88747454D01*
X129113575Y-88747672D01*
X129083327Y-88763840D01*
X129082965Y-88763990D01*
X129050141Y-88773948D01*
X129049756Y-88774024D01*
X129009484Y-88777990D01*
X129009288Y-88778000D01*
X128926346Y-88778000D01*
X128924614Y-88777000D01*
X128924614Y-88775000D01*
X128926150Y-88774010D01*
X128977582Y-88768945D01*
X129026856Y-88753997D01*
X129072264Y-88729727D01*
X129112064Y-88697064D01*
X129144727Y-88657264D01*
X129168997Y-88611856D01*
X129183945Y-88562582D01*
X129189010Y-88511150D01*
X129190175Y-88509524D01*
X129192165Y-88509720D01*
G37*
G36*
X118742165Y-87807174D02*
G01*
X118743000Y-87808800D01*
X118743000Y-87865160D01*
X118742990Y-87865356D01*
X118728697Y-88010475D01*
X118728621Y-88010860D01*
X118688080Y-88144506D01*
X118687930Y-88144868D01*
X118622100Y-88268027D01*
X118621882Y-88268353D01*
X118533286Y-88376309D01*
X118533009Y-88376586D01*
X118425053Y-88465182D01*
X118424727Y-88465400D01*
X118301568Y-88531230D01*
X118301206Y-88531380D01*
X118167560Y-88571921D01*
X118167175Y-88571997D01*
X118022056Y-88586290D01*
X118021860Y-88586300D01*
X117965500Y-88586300D01*
X117963768Y-88585300D01*
X117963768Y-88583300D01*
X117965304Y-88582310D01*
X118116398Y-88567429D01*
X118261502Y-88523412D01*
X118395229Y-88451934D01*
X118512440Y-88355740D01*
X118608634Y-88238529D01*
X118680112Y-88104802D01*
X118724129Y-87959698D01*
X118739010Y-87808604D01*
X118740175Y-87806978D01*
X118742165Y-87807174D01*
G37*
G36*
X115640990Y-87808604D02*
G01*
X115655871Y-87959698D01*
X115699888Y-88104802D01*
X115771366Y-88238529D01*
X115867560Y-88355740D01*
X115984771Y-88451934D01*
X116118498Y-88523412D01*
X116263602Y-88567429D01*
X116414696Y-88582310D01*
X116416322Y-88583475D01*
X116416126Y-88585465D01*
X116414500Y-88586300D01*
X116358140Y-88586300D01*
X116357944Y-88586290D01*
X116212825Y-88571997D01*
X116212440Y-88571921D01*
X116078794Y-88531380D01*
X116078432Y-88531230D01*
X115955273Y-88465400D01*
X115954947Y-88465182D01*
X115846991Y-88376586D01*
X115846714Y-88376309D01*
X115758118Y-88268353D01*
X115757900Y-88268027D01*
X115692070Y-88144868D01*
X115691920Y-88144506D01*
X115651379Y-88010860D01*
X115651303Y-88010475D01*
X115637010Y-87865356D01*
X115637000Y-87865160D01*
X115637000Y-87808800D01*
X115638000Y-87807068D01*
X115640000Y-87807068D01*
X115640990Y-87808604D01*
G37*
G36*
X138555990Y-87651150D02*
G01*
X138561055Y-87702582D01*
X138576003Y-87751856D01*
X138600273Y-87797264D01*
X138632936Y-87837064D01*
X138672736Y-87869727D01*
X138718144Y-87893997D01*
X138767418Y-87908945D01*
X138818850Y-87914010D01*
X138820476Y-87915175D01*
X138820280Y-87917165D01*
X138818654Y-87918000D01*
X138735712Y-87918000D01*
X138735516Y-87917990D01*
X138695244Y-87914024D01*
X138694859Y-87913948D01*
X138662035Y-87903990D01*
X138661673Y-87903840D01*
X138631425Y-87887672D01*
X138631099Y-87887454D01*
X138604583Y-87865694D01*
X138604306Y-87865417D01*
X138582546Y-87838901D01*
X138582328Y-87838575D01*
X138566160Y-87808327D01*
X138566010Y-87807965D01*
X138556052Y-87775141D01*
X138555976Y-87774756D01*
X138552010Y-87734484D01*
X138552000Y-87734288D01*
X138552000Y-87651346D01*
X138553000Y-87649614D01*
X138555000Y-87649614D01*
X138555990Y-87651150D01*
G37*
G36*
X140847165Y-87649720D02*
G01*
X140848000Y-87651346D01*
X140848000Y-87734288D01*
X140847990Y-87734484D01*
X140844024Y-87774756D01*
X140843948Y-87775141D01*
X140833990Y-87807965D01*
X140833840Y-87808327D01*
X140817672Y-87838575D01*
X140817454Y-87838901D01*
X140795694Y-87865417D01*
X140795417Y-87865694D01*
X140768901Y-87887454D01*
X140768575Y-87887672D01*
X140738327Y-87903840D01*
X140737965Y-87903990D01*
X140705141Y-87913948D01*
X140704756Y-87914024D01*
X140664484Y-87917990D01*
X140664288Y-87918000D01*
X140581346Y-87918000D01*
X140579614Y-87917000D01*
X140579614Y-87915000D01*
X140581150Y-87914010D01*
X140632582Y-87908945D01*
X140681856Y-87893997D01*
X140727264Y-87869727D01*
X140767064Y-87837064D01*
X140799727Y-87797264D01*
X140823997Y-87751856D01*
X140838945Y-87702582D01*
X140844010Y-87651150D01*
X140845175Y-87649524D01*
X140847165Y-87649720D01*
G37*
G36*
X149985990Y-87306150D02*
G01*
X149991055Y-87357582D01*
X150006003Y-87406856D01*
X150030273Y-87452264D01*
X150062936Y-87492064D01*
X150102736Y-87524727D01*
X150148144Y-87548997D01*
X150197418Y-87563945D01*
X150248850Y-87569010D01*
X150250476Y-87570175D01*
X150250280Y-87572165D01*
X150248654Y-87573000D01*
X150165712Y-87573000D01*
X150165516Y-87572990D01*
X150125244Y-87569024D01*
X150124859Y-87568948D01*
X150092035Y-87558990D01*
X150091673Y-87558840D01*
X150061425Y-87542672D01*
X150061099Y-87542454D01*
X150034583Y-87520694D01*
X150034306Y-87520417D01*
X150012546Y-87493901D01*
X150012328Y-87493575D01*
X149996160Y-87463327D01*
X149996010Y-87462965D01*
X149986052Y-87430141D01*
X149985976Y-87429756D01*
X149982010Y-87389484D01*
X149982000Y-87389288D01*
X149982000Y-87306346D01*
X149983000Y-87304614D01*
X149985000Y-87304614D01*
X149985990Y-87306150D01*
G37*
G36*
X152277165Y-87304720D02*
G01*
X152278000Y-87306346D01*
X152278000Y-87389288D01*
X152277990Y-87389484D01*
X152274024Y-87429756D01*
X152273948Y-87430141D01*
X152263990Y-87462965D01*
X152263840Y-87463327D01*
X152247672Y-87493575D01*
X152247454Y-87493901D01*
X152225694Y-87520417D01*
X152225417Y-87520694D01*
X152198901Y-87542454D01*
X152198575Y-87542672D01*
X152168327Y-87558840D01*
X152167965Y-87558990D01*
X152135141Y-87568948D01*
X152134756Y-87569024D01*
X152094484Y-87572990D01*
X152094288Y-87573000D01*
X152011346Y-87573000D01*
X152009614Y-87572000D01*
X152009614Y-87570000D01*
X152011150Y-87569010D01*
X152062582Y-87563945D01*
X152111856Y-87548997D01*
X152157264Y-87524727D01*
X152197064Y-87492064D01*
X152229727Y-87452264D01*
X152253997Y-87406856D01*
X152268945Y-87357582D01*
X152274010Y-87306150D01*
X152275175Y-87304524D01*
X152277165Y-87304720D01*
G37*
G36*
X127615386Y-86483000D02*
G01*
X127615386Y-86485000D01*
X127613850Y-86485990D01*
X127562418Y-86491055D01*
X127513144Y-86506003D01*
X127467736Y-86530273D01*
X127427936Y-86562936D01*
X127395273Y-86602736D01*
X127371003Y-86648144D01*
X127356055Y-86697418D01*
X127350990Y-86748850D01*
X127349825Y-86750476D01*
X127347835Y-86750280D01*
X127347000Y-86748654D01*
X127347000Y-86665712D01*
X127347010Y-86665516D01*
X127350976Y-86625244D01*
X127351052Y-86624859D01*
X127361010Y-86592035D01*
X127361160Y-86591673D01*
X127377328Y-86561425D01*
X127377546Y-86561099D01*
X127399306Y-86534583D01*
X127399583Y-86534306D01*
X127426099Y-86512546D01*
X127426425Y-86512328D01*
X127456673Y-86496160D01*
X127457035Y-86496010D01*
X127489859Y-86486052D01*
X127490244Y-86485976D01*
X127530516Y-86482010D01*
X127530712Y-86482000D01*
X127613654Y-86482000D01*
X127615386Y-86483000D01*
G37*
G36*
X129009484Y-86482010D02*
G01*
X129049756Y-86485976D01*
X129050141Y-86486052D01*
X129082965Y-86496010D01*
X129083327Y-86496160D01*
X129113575Y-86512328D01*
X129113901Y-86512546D01*
X129140417Y-86534306D01*
X129140694Y-86534583D01*
X129162454Y-86561099D01*
X129162672Y-86561425D01*
X129178840Y-86591673D01*
X129178990Y-86592035D01*
X129188948Y-86624859D01*
X129189024Y-86625244D01*
X129192990Y-86665516D01*
X129193000Y-86665712D01*
X129193000Y-86748654D01*
X129192000Y-86750386D01*
X129190000Y-86750386D01*
X129189010Y-86748850D01*
X129183945Y-86697418D01*
X129168997Y-86648144D01*
X129144727Y-86602736D01*
X129112064Y-86562936D01*
X129072264Y-86530273D01*
X129026856Y-86506003D01*
X128977582Y-86491055D01*
X128926150Y-86485990D01*
X128924524Y-86484825D01*
X128924720Y-86482835D01*
X128926346Y-86482000D01*
X129009288Y-86482000D01*
X129009484Y-86482010D01*
G37*
G36*
X138820386Y-86073000D02*
G01*
X138820386Y-86075000D01*
X138818850Y-86075990D01*
X138767418Y-86081055D01*
X138718144Y-86096003D01*
X138672736Y-86120273D01*
X138632936Y-86152936D01*
X138600273Y-86192736D01*
X138576003Y-86238144D01*
X138561055Y-86287418D01*
X138555990Y-86338850D01*
X138554825Y-86340476D01*
X138552835Y-86340280D01*
X138552000Y-86338654D01*
X138552000Y-86255712D01*
X138552010Y-86255516D01*
X138555976Y-86215244D01*
X138556052Y-86214859D01*
X138566010Y-86182035D01*
X138566160Y-86181673D01*
X138582328Y-86151425D01*
X138582546Y-86151099D01*
X138604306Y-86124583D01*
X138604583Y-86124306D01*
X138631099Y-86102546D01*
X138631425Y-86102328D01*
X138661673Y-86086160D01*
X138662035Y-86086010D01*
X138694859Y-86076052D01*
X138695244Y-86075976D01*
X138735516Y-86072010D01*
X138735712Y-86072000D01*
X138818654Y-86072000D01*
X138820386Y-86073000D01*
G37*
G36*
X140664484Y-86072010D02*
G01*
X140704756Y-86075976D01*
X140705141Y-86076052D01*
X140737965Y-86086010D01*
X140738327Y-86086160D01*
X140768575Y-86102328D01*
X140768901Y-86102546D01*
X140795417Y-86124306D01*
X140795694Y-86124583D01*
X140817454Y-86151099D01*
X140817672Y-86151425D01*
X140833840Y-86181673D01*
X140833990Y-86182035D01*
X140843948Y-86214859D01*
X140844024Y-86215244D01*
X140847990Y-86255516D01*
X140848000Y-86255712D01*
X140848000Y-86338654D01*
X140847000Y-86340386D01*
X140845000Y-86340386D01*
X140844010Y-86338850D01*
X140838945Y-86287418D01*
X140823997Y-86238144D01*
X140799727Y-86192736D01*
X140767064Y-86152936D01*
X140727264Y-86120273D01*
X140681856Y-86096003D01*
X140632582Y-86081055D01*
X140581150Y-86075990D01*
X140579524Y-86074825D01*
X140579720Y-86072835D01*
X140581346Y-86072000D01*
X140664288Y-86072000D01*
X140664484Y-86072010D01*
G37*
G36*
X150250386Y-85728000D02*
G01*
X150250386Y-85730000D01*
X150248850Y-85730990D01*
X150197418Y-85736055D01*
X150148144Y-85751003D01*
X150102736Y-85775273D01*
X150062936Y-85807936D01*
X150030273Y-85847736D01*
X150006003Y-85893144D01*
X149991055Y-85942418D01*
X149985990Y-85993850D01*
X149984825Y-85995476D01*
X149982835Y-85995280D01*
X149982000Y-85993654D01*
X149982000Y-85910712D01*
X149982010Y-85910516D01*
X149985976Y-85870244D01*
X149986052Y-85869859D01*
X149996010Y-85837035D01*
X149996160Y-85836673D01*
X150012328Y-85806425D01*
X150012546Y-85806099D01*
X150034306Y-85779583D01*
X150034583Y-85779306D01*
X150061099Y-85757546D01*
X150061425Y-85757328D01*
X150091673Y-85741160D01*
X150092035Y-85741010D01*
X150124859Y-85731052D01*
X150125244Y-85730976D01*
X150165516Y-85727010D01*
X150165712Y-85727000D01*
X150248654Y-85727000D01*
X150250386Y-85728000D01*
G37*
G36*
X152094484Y-85727010D02*
G01*
X152134756Y-85730976D01*
X152135141Y-85731052D01*
X152167965Y-85741010D01*
X152168327Y-85741160D01*
X152198575Y-85757328D01*
X152198901Y-85757546D01*
X152225417Y-85779306D01*
X152225694Y-85779583D01*
X152247454Y-85806099D01*
X152247672Y-85806425D01*
X152263840Y-85836673D01*
X152263990Y-85837035D01*
X152273948Y-85869859D01*
X152274024Y-85870244D01*
X152277990Y-85910516D01*
X152278000Y-85910712D01*
X152278000Y-85993654D01*
X152277000Y-85995386D01*
X152275000Y-85995386D01*
X152274010Y-85993850D01*
X152268945Y-85942418D01*
X152253997Y-85893144D01*
X152229727Y-85847736D01*
X152197064Y-85807936D01*
X152157264Y-85775273D01*
X152111856Y-85751003D01*
X152062582Y-85736055D01*
X152011150Y-85730990D01*
X152009524Y-85729825D01*
X152009720Y-85727835D01*
X152011346Y-85727000D01*
X152094288Y-85727000D01*
X152094484Y-85727010D01*
G37*
G36*
X116416232Y-84981300D02*
G01*
X116416232Y-84983300D01*
X116414696Y-84984290D01*
X116263602Y-84999171D01*
X116118498Y-85043188D01*
X115984771Y-85114666D01*
X115867560Y-85210860D01*
X115771366Y-85328071D01*
X115699888Y-85461798D01*
X115655871Y-85606902D01*
X115640990Y-85757996D01*
X115639825Y-85759622D01*
X115637835Y-85759426D01*
X115637000Y-85757800D01*
X115637000Y-85701440D01*
X115637010Y-85701244D01*
X115651303Y-85556125D01*
X115651379Y-85555740D01*
X115691920Y-85422094D01*
X115692070Y-85421732D01*
X115757900Y-85298573D01*
X115758118Y-85298247D01*
X115846714Y-85190291D01*
X115846991Y-85190014D01*
X115954947Y-85101418D01*
X115955273Y-85101200D01*
X116078432Y-85035370D01*
X116078794Y-85035220D01*
X116212440Y-84994679D01*
X116212825Y-84994603D01*
X116357944Y-84980310D01*
X116358140Y-84980300D01*
X116414500Y-84980300D01*
X116416232Y-84981300D01*
G37*
G36*
X118022056Y-84980310D02*
G01*
X118167175Y-84994603D01*
X118167560Y-84994679D01*
X118301206Y-85035220D01*
X118301568Y-85035370D01*
X118424727Y-85101200D01*
X118425053Y-85101418D01*
X118533009Y-85190014D01*
X118533286Y-85190291D01*
X118621882Y-85298247D01*
X118622100Y-85298573D01*
X118687930Y-85421732D01*
X118688080Y-85422094D01*
X118728621Y-85555740D01*
X118728697Y-85556125D01*
X118742990Y-85701244D01*
X118743000Y-85701440D01*
X118743000Y-85757800D01*
X118742000Y-85759532D01*
X118740000Y-85759532D01*
X118739010Y-85757996D01*
X118724129Y-85606902D01*
X118680112Y-85461798D01*
X118608634Y-85328071D01*
X118512440Y-85210860D01*
X118395229Y-85114666D01*
X118261502Y-85043188D01*
X118116398Y-84999171D01*
X117965304Y-84984290D01*
X117963678Y-84983125D01*
X117963874Y-84981135D01*
X117965500Y-84980300D01*
X118021860Y-84980300D01*
X118022056Y-84980310D01*
G37*
G36*
X167292165Y-83429720D02*
G01*
X167293000Y-83431346D01*
X167293000Y-83514288D01*
X167292990Y-83514484D01*
X167289024Y-83554756D01*
X167288948Y-83555141D01*
X167278990Y-83587965D01*
X167278840Y-83588327D01*
X167262672Y-83618575D01*
X167262454Y-83618901D01*
X167240694Y-83645417D01*
X167240417Y-83645694D01*
X167213901Y-83667454D01*
X167213575Y-83667672D01*
X167183327Y-83683840D01*
X167182965Y-83683990D01*
X167150141Y-83693948D01*
X167149756Y-83694024D01*
X167109484Y-83697990D01*
X167109288Y-83698000D01*
X167026346Y-83698000D01*
X167024614Y-83697000D01*
X167024614Y-83695000D01*
X167026150Y-83694010D01*
X167077582Y-83688945D01*
X167126856Y-83673997D01*
X167172264Y-83649727D01*
X167212064Y-83617064D01*
X167244727Y-83577264D01*
X167268997Y-83531856D01*
X167283945Y-83482582D01*
X167289010Y-83431150D01*
X167290175Y-83429524D01*
X167292165Y-83429720D01*
G37*
G36*
X165450990Y-83431150D02*
G01*
X165456055Y-83482582D01*
X165471003Y-83531856D01*
X165495273Y-83577264D01*
X165527936Y-83617064D01*
X165567736Y-83649727D01*
X165613144Y-83673997D01*
X165662418Y-83688945D01*
X165713850Y-83694010D01*
X165715476Y-83695175D01*
X165715280Y-83697165D01*
X165713654Y-83698000D01*
X165630712Y-83698000D01*
X165630516Y-83697990D01*
X165590244Y-83694024D01*
X165589859Y-83693948D01*
X165557035Y-83683990D01*
X165556673Y-83683840D01*
X165526425Y-83667672D01*
X165526099Y-83667454D01*
X165499583Y-83645694D01*
X165499306Y-83645417D01*
X165477546Y-83618901D01*
X165477328Y-83618575D01*
X165461160Y-83588327D01*
X165461010Y-83587965D01*
X165451052Y-83555141D01*
X165450976Y-83554756D01*
X165447010Y-83514484D01*
X165447000Y-83514288D01*
X165447000Y-83431346D01*
X165448000Y-83429614D01*
X165450000Y-83429614D01*
X165450990Y-83431150D01*
G37*
G36*
X165715386Y-81403000D02*
G01*
X165715386Y-81405000D01*
X165713850Y-81405990D01*
X165662418Y-81411055D01*
X165613144Y-81426003D01*
X165567736Y-81450273D01*
X165527936Y-81482936D01*
X165495273Y-81522736D01*
X165471003Y-81568144D01*
X165456055Y-81617418D01*
X165450990Y-81668850D01*
X165449825Y-81670476D01*
X165447835Y-81670280D01*
X165447000Y-81668654D01*
X165447000Y-81585712D01*
X165447010Y-81585516D01*
X165450976Y-81545244D01*
X165451052Y-81544859D01*
X165461010Y-81512035D01*
X165461160Y-81511673D01*
X165477328Y-81481425D01*
X165477546Y-81481099D01*
X165499306Y-81454583D01*
X165499583Y-81454306D01*
X165526099Y-81432546D01*
X165526425Y-81432328D01*
X165556673Y-81416160D01*
X165557035Y-81416010D01*
X165589859Y-81406052D01*
X165590244Y-81405976D01*
X165630516Y-81402010D01*
X165630712Y-81402000D01*
X165713654Y-81402000D01*
X165715386Y-81403000D01*
G37*
G36*
X167109484Y-81402010D02*
G01*
X167149756Y-81405976D01*
X167150141Y-81406052D01*
X167182965Y-81416010D01*
X167183327Y-81416160D01*
X167213575Y-81432328D01*
X167213901Y-81432546D01*
X167240417Y-81454306D01*
X167240694Y-81454583D01*
X167262454Y-81481099D01*
X167262672Y-81481425D01*
X167278840Y-81511673D01*
X167278990Y-81512035D01*
X167288948Y-81544859D01*
X167289024Y-81545244D01*
X167292990Y-81585516D01*
X167293000Y-81585712D01*
X167293000Y-81668654D01*
X167292000Y-81670386D01*
X167290000Y-81670386D01*
X167289010Y-81668850D01*
X167283945Y-81617418D01*
X167268997Y-81568144D01*
X167244727Y-81522736D01*
X167212064Y-81482936D01*
X167172264Y-81450273D01*
X167126856Y-81426003D01*
X167077582Y-81411055D01*
X167026150Y-81405990D01*
X167024524Y-81404825D01*
X167024720Y-81402835D01*
X167026346Y-81402000D01*
X167109288Y-81402000D01*
X167109484Y-81402010D01*
G37*
G36*
X121992165Y-80105574D02*
G01*
X121993000Y-80107200D01*
X121993000Y-80163560D01*
X121992990Y-80163756D01*
X121976295Y-80333262D01*
X121976219Y-80333647D01*
X121928565Y-80490741D01*
X121928415Y-80491103D01*
X121851033Y-80635874D01*
X121850815Y-80636200D01*
X121746674Y-80763097D01*
X121746397Y-80763374D01*
X121619500Y-80867515D01*
X121619174Y-80867733D01*
X121474403Y-80945115D01*
X121474041Y-80945265D01*
X121316947Y-80992919D01*
X121316562Y-80992995D01*
X121147056Y-81009690D01*
X121146860Y-81009700D01*
X121090500Y-81009700D01*
X121088768Y-81008700D01*
X121088768Y-81006700D01*
X121090304Y-81005710D01*
X121265784Y-80988427D01*
X121434337Y-80937297D01*
X121589675Y-80854267D01*
X121725829Y-80742529D01*
X121837567Y-80606375D01*
X121920597Y-80451037D01*
X121971727Y-80282484D01*
X121989010Y-80107004D01*
X121990175Y-80105378D01*
X121992165Y-80105574D01*
G37*
G36*
X118390990Y-80107004D02*
G01*
X118408273Y-80282484D01*
X118459403Y-80451037D01*
X118542433Y-80606375D01*
X118654171Y-80742529D01*
X118790325Y-80854267D01*
X118945663Y-80937297D01*
X119114216Y-80988427D01*
X119289696Y-81005710D01*
X119291322Y-81006875D01*
X119291126Y-81008865D01*
X119289500Y-81009700D01*
X119233140Y-81009700D01*
X119232944Y-81009690D01*
X119063438Y-80992995D01*
X119063053Y-80992919D01*
X118905959Y-80945265D01*
X118905597Y-80945115D01*
X118760826Y-80867733D01*
X118760500Y-80867515D01*
X118633603Y-80763374D01*
X118633326Y-80763097D01*
X118529185Y-80636200D01*
X118528967Y-80635874D01*
X118451585Y-80491103D01*
X118451435Y-80490741D01*
X118403781Y-80333647D01*
X118403705Y-80333262D01*
X118387010Y-80163756D01*
X118387000Y-80163560D01*
X118387000Y-80107200D01*
X118388000Y-80105468D01*
X118390000Y-80105468D01*
X118390990Y-80107004D01*
G37*
G36*
X152277165Y-80174720D02*
G01*
X152278000Y-80176346D01*
X152278000Y-80259288D01*
X152277990Y-80259484D01*
X152274024Y-80299756D01*
X152273948Y-80300141D01*
X152263990Y-80332965D01*
X152263840Y-80333327D01*
X152247672Y-80363575D01*
X152247454Y-80363901D01*
X152225694Y-80390417D01*
X152225417Y-80390694D01*
X152198901Y-80412454D01*
X152198575Y-80412672D01*
X152168327Y-80428840D01*
X152167965Y-80428990D01*
X152135141Y-80438948D01*
X152134756Y-80439024D01*
X152094484Y-80442990D01*
X152094288Y-80443000D01*
X152011346Y-80443000D01*
X152009614Y-80442000D01*
X152009614Y-80440000D01*
X152011150Y-80439010D01*
X152062582Y-80433945D01*
X152111856Y-80418997D01*
X152157264Y-80394727D01*
X152197064Y-80362064D01*
X152229727Y-80322264D01*
X152253997Y-80276856D01*
X152268945Y-80227582D01*
X152274010Y-80176150D01*
X152275175Y-80174524D01*
X152277165Y-80174720D01*
G37*
G36*
X149985990Y-80176150D02*
G01*
X149991055Y-80227582D01*
X150006003Y-80276856D01*
X150030273Y-80322264D01*
X150062936Y-80362064D01*
X150102736Y-80394727D01*
X150148144Y-80418997D01*
X150197418Y-80433945D01*
X150248850Y-80439010D01*
X150250476Y-80440175D01*
X150250280Y-80442165D01*
X150248654Y-80443000D01*
X150165712Y-80443000D01*
X150165516Y-80442990D01*
X150125244Y-80439024D01*
X150124859Y-80438948D01*
X150092035Y-80428990D01*
X150091673Y-80428840D01*
X150061425Y-80412672D01*
X150061099Y-80412454D01*
X150034583Y-80390694D01*
X150034306Y-80390417D01*
X150012546Y-80363901D01*
X150012328Y-80363575D01*
X149996160Y-80333327D01*
X149996010Y-80332965D01*
X149986052Y-80300141D01*
X149985976Y-80299756D01*
X149982010Y-80259484D01*
X149982000Y-80259288D01*
X149982000Y-80176346D01*
X149983000Y-80174614D01*
X149985000Y-80174614D01*
X149985990Y-80176150D01*
G37*
G36*
X150250386Y-78598000D02*
G01*
X150250386Y-78600000D01*
X150248850Y-78600990D01*
X150197418Y-78606055D01*
X150148144Y-78621003D01*
X150102736Y-78645273D01*
X150062936Y-78677936D01*
X150030273Y-78717736D01*
X150006003Y-78763144D01*
X149991055Y-78812418D01*
X149985990Y-78863850D01*
X149984825Y-78865476D01*
X149982835Y-78865280D01*
X149982000Y-78863654D01*
X149982000Y-78780712D01*
X149982010Y-78780516D01*
X149985976Y-78740244D01*
X149986052Y-78739859D01*
X149996010Y-78707035D01*
X149996160Y-78706673D01*
X150012328Y-78676425D01*
X150012546Y-78676099D01*
X150034306Y-78649583D01*
X150034583Y-78649306D01*
X150061099Y-78627546D01*
X150061425Y-78627328D01*
X150091673Y-78611160D01*
X150092035Y-78611010D01*
X150124859Y-78601052D01*
X150125244Y-78600976D01*
X150165516Y-78597010D01*
X150165712Y-78597000D01*
X150248654Y-78597000D01*
X150250386Y-78598000D01*
G37*
G36*
X152094484Y-78597010D02*
G01*
X152134756Y-78600976D01*
X152135141Y-78601052D01*
X152167965Y-78611010D01*
X152168327Y-78611160D01*
X152198575Y-78627328D01*
X152198901Y-78627546D01*
X152225417Y-78649306D01*
X152225694Y-78649583D01*
X152247454Y-78676099D01*
X152247672Y-78676425D01*
X152263840Y-78706673D01*
X152263990Y-78707035D01*
X152273948Y-78739859D01*
X152274024Y-78740244D01*
X152277990Y-78780516D01*
X152278000Y-78780712D01*
X152278000Y-78863654D01*
X152277000Y-78865386D01*
X152275000Y-78865386D01*
X152274010Y-78863850D01*
X152268945Y-78812418D01*
X152253997Y-78763144D01*
X152229727Y-78717736D01*
X152197064Y-78677936D01*
X152157264Y-78645273D01*
X152111856Y-78621003D01*
X152062582Y-78606055D01*
X152011150Y-78600990D01*
X152009524Y-78599825D01*
X152009720Y-78597835D01*
X152011346Y-78597000D01*
X152094288Y-78597000D01*
X152094484Y-78597010D01*
G37*
G36*
X119291232Y-77404700D02*
G01*
X119291232Y-77406700D01*
X119289696Y-77407690D01*
X119114216Y-77424973D01*
X118945663Y-77476103D01*
X118790325Y-77559133D01*
X118654171Y-77670871D01*
X118542433Y-77807025D01*
X118459403Y-77962363D01*
X118408273Y-78130916D01*
X118390990Y-78306396D01*
X118389825Y-78308022D01*
X118387835Y-78307826D01*
X118387000Y-78306200D01*
X118387000Y-78249840D01*
X118387010Y-78249644D01*
X118403705Y-78080138D01*
X118403781Y-78079753D01*
X118451435Y-77922659D01*
X118451585Y-77922297D01*
X118528967Y-77777526D01*
X118529185Y-77777200D01*
X118633326Y-77650303D01*
X118633603Y-77650026D01*
X118760500Y-77545885D01*
X118760826Y-77545667D01*
X118905597Y-77468285D01*
X118905959Y-77468135D01*
X119063053Y-77420481D01*
X119063438Y-77420405D01*
X119232944Y-77403710D01*
X119233140Y-77403700D01*
X119289500Y-77403700D01*
X119291232Y-77404700D01*
G37*
G36*
X121147056Y-77403710D02*
G01*
X121316562Y-77420405D01*
X121316947Y-77420481D01*
X121474041Y-77468135D01*
X121474403Y-77468285D01*
X121619174Y-77545667D01*
X121619500Y-77545885D01*
X121746397Y-77650026D01*
X121746674Y-77650303D01*
X121850815Y-77777200D01*
X121851033Y-77777526D01*
X121928415Y-77922297D01*
X121928565Y-77922659D01*
X121976219Y-78079753D01*
X121976295Y-78080138D01*
X121992990Y-78249644D01*
X121993000Y-78249840D01*
X121993000Y-78306200D01*
X121992000Y-78307932D01*
X121990000Y-78307932D01*
X121989010Y-78306396D01*
X121971727Y-78130916D01*
X121920597Y-77962363D01*
X121837567Y-77807025D01*
X121725829Y-77670871D01*
X121589675Y-77559133D01*
X121434337Y-77476103D01*
X121265784Y-77424973D01*
X121090304Y-77407690D01*
X121088678Y-77406525D01*
X121088874Y-77404535D01*
X121090500Y-77403700D01*
X121146860Y-77403700D01*
X121147056Y-77403710D01*
G37*
G36*
X138555990Y-76856150D02*
G01*
X138561055Y-76907582D01*
X138576003Y-76956856D01*
X138600273Y-77002264D01*
X138632936Y-77042064D01*
X138672736Y-77074727D01*
X138718144Y-77098997D01*
X138767418Y-77113945D01*
X138818850Y-77119010D01*
X138820476Y-77120175D01*
X138820280Y-77122165D01*
X138818654Y-77123000D01*
X138735712Y-77123000D01*
X138735516Y-77122990D01*
X138695244Y-77119024D01*
X138694859Y-77118948D01*
X138662035Y-77108990D01*
X138661673Y-77108840D01*
X138631425Y-77092672D01*
X138631099Y-77092454D01*
X138604583Y-77070694D01*
X138604306Y-77070417D01*
X138582546Y-77043901D01*
X138582328Y-77043575D01*
X138566160Y-77013327D01*
X138566010Y-77012965D01*
X138556052Y-76980141D01*
X138555976Y-76979756D01*
X138552010Y-76939484D01*
X138552000Y-76939288D01*
X138552000Y-76856346D01*
X138553000Y-76854614D01*
X138555000Y-76854614D01*
X138555990Y-76856150D01*
G37*
G36*
X140847165Y-76854720D02*
G01*
X140848000Y-76856346D01*
X140848000Y-76939288D01*
X140847990Y-76939484D01*
X140844024Y-76979756D01*
X140843948Y-76980141D01*
X140833990Y-77012965D01*
X140833840Y-77013327D01*
X140817672Y-77043575D01*
X140817454Y-77043901D01*
X140795694Y-77070417D01*
X140795417Y-77070694D01*
X140768901Y-77092454D01*
X140768575Y-77092672D01*
X140738327Y-77108840D01*
X140737965Y-77108990D01*
X140705141Y-77118948D01*
X140704756Y-77119024D01*
X140664484Y-77122990D01*
X140664288Y-77123000D01*
X140581346Y-77123000D01*
X140579614Y-77122000D01*
X140579614Y-77120000D01*
X140581150Y-77119010D01*
X140632582Y-77113945D01*
X140681856Y-77098997D01*
X140727264Y-77074727D01*
X140767064Y-77042064D01*
X140799727Y-77002264D01*
X140823997Y-76956856D01*
X140838945Y-76907582D01*
X140844010Y-76856150D01*
X140845175Y-76854524D01*
X140847165Y-76854720D01*
G37*
G36*
X115640990Y-75532004D02*
G01*
X115655871Y-75683098D01*
X115699888Y-75828202D01*
X115771366Y-75961929D01*
X115867560Y-76079140D01*
X115984771Y-76175334D01*
X116118498Y-76246812D01*
X116263602Y-76290829D01*
X116414696Y-76305710D01*
X116416322Y-76306875D01*
X116416126Y-76308865D01*
X116414500Y-76309700D01*
X116358140Y-76309700D01*
X116357944Y-76309690D01*
X116212825Y-76295397D01*
X116212440Y-76295321D01*
X116078794Y-76254780D01*
X116078432Y-76254630D01*
X115955273Y-76188800D01*
X115954947Y-76188582D01*
X115846991Y-76099986D01*
X115846714Y-76099709D01*
X115758118Y-75991753D01*
X115757900Y-75991427D01*
X115692070Y-75868268D01*
X115691920Y-75867906D01*
X115651379Y-75734260D01*
X115651303Y-75733875D01*
X115637010Y-75588756D01*
X115637000Y-75588560D01*
X115637000Y-75532200D01*
X115638000Y-75530468D01*
X115640000Y-75530468D01*
X115640990Y-75532004D01*
G37*
G36*
X118742165Y-75530574D02*
G01*
X118743000Y-75532200D01*
X118743000Y-75588560D01*
X118742990Y-75588756D01*
X118728697Y-75733875D01*
X118728621Y-75734260D01*
X118688080Y-75867906D01*
X118687930Y-75868268D01*
X118622100Y-75991427D01*
X118621882Y-75991753D01*
X118533286Y-76099709D01*
X118533009Y-76099986D01*
X118425053Y-76188582D01*
X118424727Y-76188800D01*
X118301568Y-76254630D01*
X118301206Y-76254780D01*
X118167560Y-76295321D01*
X118167175Y-76295397D01*
X118022056Y-76309690D01*
X118021860Y-76309700D01*
X117965500Y-76309700D01*
X117963768Y-76308700D01*
X117963768Y-76306700D01*
X117965304Y-76305710D01*
X118116398Y-76290829D01*
X118261502Y-76246812D01*
X118395229Y-76175334D01*
X118512440Y-76079140D01*
X118608634Y-75961929D01*
X118680112Y-75828202D01*
X118724129Y-75683098D01*
X118739010Y-75532004D01*
X118740175Y-75530378D01*
X118742165Y-75530574D01*
G37*
G36*
X129192165Y-75809720D02*
G01*
X129193000Y-75811346D01*
X129193000Y-75894288D01*
X129192990Y-75894484D01*
X129189024Y-75934756D01*
X129188948Y-75935141D01*
X129178990Y-75967965D01*
X129178840Y-75968327D01*
X129162672Y-75998575D01*
X129162454Y-75998901D01*
X129140694Y-76025417D01*
X129140417Y-76025694D01*
X129113901Y-76047454D01*
X129113575Y-76047672D01*
X129083327Y-76063840D01*
X129082965Y-76063990D01*
X129050141Y-76073948D01*
X129049756Y-76074024D01*
X129009484Y-76077990D01*
X129009288Y-76078000D01*
X128926346Y-76078000D01*
X128924614Y-76077000D01*
X128924614Y-76075000D01*
X128926150Y-76074010D01*
X128977582Y-76068945D01*
X129026856Y-76053997D01*
X129072264Y-76029727D01*
X129112064Y-75997064D01*
X129144727Y-75957264D01*
X129168997Y-75911856D01*
X129183945Y-75862582D01*
X129189010Y-75811150D01*
X129190175Y-75809524D01*
X129192165Y-75809720D01*
G37*
G36*
X127350990Y-75811150D02*
G01*
X127356055Y-75862582D01*
X127371003Y-75911856D01*
X127395273Y-75957264D01*
X127427936Y-75997064D01*
X127467736Y-76029727D01*
X127513144Y-76053997D01*
X127562418Y-76068945D01*
X127613850Y-76074010D01*
X127615476Y-76075175D01*
X127615280Y-76077165D01*
X127613654Y-76078000D01*
X127530712Y-76078000D01*
X127530516Y-76077990D01*
X127490244Y-76074024D01*
X127489859Y-76073948D01*
X127457035Y-76063990D01*
X127456673Y-76063840D01*
X127426425Y-76047672D01*
X127426099Y-76047454D01*
X127399583Y-76025694D01*
X127399306Y-76025417D01*
X127377546Y-75998901D01*
X127377328Y-75998575D01*
X127361160Y-75968327D01*
X127361010Y-75967965D01*
X127351052Y-75935141D01*
X127350976Y-75934756D01*
X127347010Y-75894484D01*
X127347000Y-75894288D01*
X127347000Y-75811346D01*
X127348000Y-75809614D01*
X127350000Y-75809614D01*
X127350990Y-75811150D01*
G37*
G36*
X138820386Y-75278000D02*
G01*
X138820386Y-75280000D01*
X138818850Y-75280990D01*
X138767418Y-75286055D01*
X138718144Y-75301003D01*
X138672736Y-75325273D01*
X138632936Y-75357936D01*
X138600273Y-75397736D01*
X138576003Y-75443144D01*
X138561055Y-75492418D01*
X138555990Y-75543850D01*
X138554825Y-75545476D01*
X138552835Y-75545280D01*
X138552000Y-75543654D01*
X138552000Y-75460712D01*
X138552010Y-75460516D01*
X138555976Y-75420244D01*
X138556052Y-75419859D01*
X138566010Y-75387035D01*
X138566160Y-75386673D01*
X138582328Y-75356425D01*
X138582546Y-75356099D01*
X138604306Y-75329583D01*
X138604583Y-75329306D01*
X138631099Y-75307546D01*
X138631425Y-75307328D01*
X138661673Y-75291160D01*
X138662035Y-75291010D01*
X138694859Y-75281052D01*
X138695244Y-75280976D01*
X138735516Y-75277010D01*
X138735712Y-75277000D01*
X138818654Y-75277000D01*
X138820386Y-75278000D01*
G37*
G36*
X140664484Y-75277010D02*
G01*
X140704756Y-75280976D01*
X140705141Y-75281052D01*
X140737965Y-75291010D01*
X140738327Y-75291160D01*
X140768575Y-75307328D01*
X140768901Y-75307546D01*
X140795417Y-75329306D01*
X140795694Y-75329583D01*
X140817454Y-75356099D01*
X140817672Y-75356425D01*
X140833840Y-75386673D01*
X140833990Y-75387035D01*
X140843948Y-75419859D01*
X140844024Y-75420244D01*
X140847990Y-75460516D01*
X140848000Y-75460712D01*
X140848000Y-75543654D01*
X140847000Y-75545386D01*
X140845000Y-75545386D01*
X140844010Y-75543850D01*
X140838945Y-75492418D01*
X140823997Y-75443144D01*
X140799727Y-75397736D01*
X140767064Y-75357936D01*
X140727264Y-75325273D01*
X140681856Y-75301003D01*
X140632582Y-75286055D01*
X140581150Y-75280990D01*
X140579524Y-75279825D01*
X140579720Y-75277835D01*
X140581346Y-75277000D01*
X140664288Y-75277000D01*
X140664484Y-75277010D01*
G37*
G36*
X127615386Y-73783000D02*
G01*
X127615386Y-73785000D01*
X127613850Y-73785990D01*
X127562418Y-73791055D01*
X127513144Y-73806003D01*
X127467736Y-73830273D01*
X127427936Y-73862936D01*
X127395273Y-73902736D01*
X127371003Y-73948144D01*
X127356055Y-73997418D01*
X127350990Y-74048850D01*
X127349825Y-74050476D01*
X127347835Y-74050280D01*
X127347000Y-74048654D01*
X127347000Y-73965712D01*
X127347010Y-73965516D01*
X127350976Y-73925244D01*
X127351052Y-73924859D01*
X127361010Y-73892035D01*
X127361160Y-73891673D01*
X127377328Y-73861425D01*
X127377546Y-73861099D01*
X127399306Y-73834583D01*
X127399583Y-73834306D01*
X127426099Y-73812546D01*
X127426425Y-73812328D01*
X127456673Y-73796160D01*
X127457035Y-73796010D01*
X127489859Y-73786052D01*
X127490244Y-73785976D01*
X127530516Y-73782010D01*
X127530712Y-73782000D01*
X127613654Y-73782000D01*
X127615386Y-73783000D01*
G37*
G36*
X129009484Y-73782010D02*
G01*
X129049756Y-73785976D01*
X129050141Y-73786052D01*
X129082965Y-73796010D01*
X129083327Y-73796160D01*
X129113575Y-73812328D01*
X129113901Y-73812546D01*
X129140417Y-73834306D01*
X129140694Y-73834583D01*
X129162454Y-73861099D01*
X129162672Y-73861425D01*
X129178840Y-73891673D01*
X129178990Y-73892035D01*
X129188948Y-73924859D01*
X129189024Y-73925244D01*
X129192990Y-73965516D01*
X129193000Y-73965712D01*
X129193000Y-74048654D01*
X129192000Y-74050386D01*
X129190000Y-74050386D01*
X129189010Y-74048850D01*
X129183945Y-73997418D01*
X129168997Y-73948144D01*
X129144727Y-73902736D01*
X129112064Y-73862936D01*
X129072264Y-73830273D01*
X129026856Y-73806003D01*
X128977582Y-73791055D01*
X128926150Y-73785990D01*
X128924524Y-73784825D01*
X128924720Y-73782835D01*
X128926346Y-73782000D01*
X129009288Y-73782000D01*
X129009484Y-73782010D01*
G37*
G36*
X116416232Y-72704700D02*
G01*
X116416232Y-72706700D01*
X116414696Y-72707690D01*
X116263602Y-72722571D01*
X116118498Y-72766588D01*
X115984771Y-72838066D01*
X115867560Y-72934260D01*
X115771366Y-73051471D01*
X115699888Y-73185198D01*
X115655871Y-73330302D01*
X115640990Y-73481396D01*
X115639825Y-73483022D01*
X115637835Y-73482826D01*
X115637000Y-73481200D01*
X115637000Y-73424840D01*
X115637010Y-73424644D01*
X115651303Y-73279525D01*
X115651379Y-73279140D01*
X115691920Y-73145494D01*
X115692070Y-73145132D01*
X115757900Y-73021973D01*
X115758118Y-73021647D01*
X115846714Y-72913691D01*
X115846991Y-72913414D01*
X115954947Y-72824818D01*
X115955273Y-72824600D01*
X116078432Y-72758770D01*
X116078794Y-72758620D01*
X116212440Y-72718079D01*
X116212825Y-72718003D01*
X116357944Y-72703710D01*
X116358140Y-72703700D01*
X116414500Y-72703700D01*
X116416232Y-72704700D01*
G37*
G36*
X118022056Y-72703710D02*
G01*
X118167175Y-72718003D01*
X118167560Y-72718079D01*
X118301206Y-72758620D01*
X118301568Y-72758770D01*
X118424727Y-72824600D01*
X118425053Y-72824818D01*
X118533009Y-72913414D01*
X118533286Y-72913691D01*
X118621882Y-73021647D01*
X118622100Y-73021973D01*
X118687930Y-73145132D01*
X118688080Y-73145494D01*
X118728621Y-73279140D01*
X118728697Y-73279525D01*
X118742990Y-73424644D01*
X118743000Y-73424840D01*
X118743000Y-73481200D01*
X118742000Y-73482932D01*
X118740000Y-73482932D01*
X118739010Y-73481396D01*
X118724129Y-73330302D01*
X118680112Y-73185198D01*
X118608634Y-73051471D01*
X118512440Y-72934260D01*
X118395229Y-72838066D01*
X118261502Y-72766588D01*
X118116398Y-72722571D01*
X117965304Y-72707690D01*
X117963678Y-72706525D01*
X117963874Y-72704535D01*
X117965500Y-72703700D01*
X118021860Y-72703700D01*
X118022056Y-72703710D01*
G37*
G36*
X152277165Y-73044720D02*
G01*
X152278000Y-73046346D01*
X152278000Y-73129288D01*
X152277990Y-73129484D01*
X152274024Y-73169756D01*
X152273948Y-73170141D01*
X152263990Y-73202965D01*
X152263840Y-73203327D01*
X152247672Y-73233575D01*
X152247454Y-73233901D01*
X152225694Y-73260417D01*
X152225417Y-73260694D01*
X152198901Y-73282454D01*
X152198575Y-73282672D01*
X152168327Y-73298840D01*
X152167965Y-73298990D01*
X152135141Y-73308948D01*
X152134756Y-73309024D01*
X152094484Y-73312990D01*
X152094288Y-73313000D01*
X152011346Y-73313000D01*
X152009614Y-73312000D01*
X152009614Y-73310000D01*
X152011150Y-73309010D01*
X152062582Y-73303945D01*
X152111856Y-73288997D01*
X152157264Y-73264727D01*
X152197064Y-73232064D01*
X152229727Y-73192264D01*
X152253997Y-73146856D01*
X152268945Y-73097582D01*
X152274010Y-73046150D01*
X152275175Y-73044524D01*
X152277165Y-73044720D01*
G37*
G36*
X149985990Y-73046150D02*
G01*
X149991055Y-73097582D01*
X150006003Y-73146856D01*
X150030273Y-73192264D01*
X150062936Y-73232064D01*
X150102736Y-73264727D01*
X150148144Y-73288997D01*
X150197418Y-73303945D01*
X150248850Y-73309010D01*
X150250476Y-73310175D01*
X150250280Y-73312165D01*
X150248654Y-73313000D01*
X150165712Y-73313000D01*
X150165516Y-73312990D01*
X150125244Y-73309024D01*
X150124859Y-73308948D01*
X150092035Y-73298990D01*
X150091673Y-73298840D01*
X150061425Y-73282672D01*
X150061099Y-73282454D01*
X150034583Y-73260694D01*
X150034306Y-73260417D01*
X150012546Y-73233901D01*
X150012328Y-73233575D01*
X149996160Y-73203327D01*
X149996010Y-73202965D01*
X149986052Y-73170141D01*
X149985976Y-73169756D01*
X149982010Y-73129484D01*
X149982000Y-73129288D01*
X149982000Y-73046346D01*
X149983000Y-73044614D01*
X149985000Y-73044614D01*
X149985990Y-73046150D01*
G37*
G36*
X165450990Y-72001150D02*
G01*
X165456055Y-72052582D01*
X165471003Y-72101856D01*
X165495273Y-72147264D01*
X165527936Y-72187064D01*
X165567736Y-72219727D01*
X165613144Y-72243997D01*
X165662418Y-72258945D01*
X165713850Y-72264010D01*
X165715476Y-72265175D01*
X165715280Y-72267165D01*
X165713654Y-72268000D01*
X165630712Y-72268000D01*
X165630516Y-72267990D01*
X165590244Y-72264024D01*
X165589859Y-72263948D01*
X165557035Y-72253990D01*
X165556673Y-72253840D01*
X165526425Y-72237672D01*
X165526099Y-72237454D01*
X165499583Y-72215694D01*
X165499306Y-72215417D01*
X165477546Y-72188901D01*
X165477328Y-72188575D01*
X165461160Y-72158327D01*
X165461010Y-72157965D01*
X165451052Y-72125141D01*
X165450976Y-72124756D01*
X165447010Y-72084484D01*
X165447000Y-72084288D01*
X165447000Y-72001346D01*
X165448000Y-71999614D01*
X165450000Y-71999614D01*
X165450990Y-72001150D01*
G37*
G36*
X167292165Y-71999720D02*
G01*
X167293000Y-72001346D01*
X167293000Y-72084288D01*
X167292990Y-72084484D01*
X167289024Y-72124756D01*
X167288948Y-72125141D01*
X167278990Y-72157965D01*
X167278840Y-72158327D01*
X167262672Y-72188575D01*
X167262454Y-72188901D01*
X167240694Y-72215417D01*
X167240417Y-72215694D01*
X167213901Y-72237454D01*
X167213575Y-72237672D01*
X167183327Y-72253840D01*
X167182965Y-72253990D01*
X167150141Y-72263948D01*
X167149756Y-72264024D01*
X167109484Y-72267990D01*
X167109288Y-72268000D01*
X167026346Y-72268000D01*
X167024614Y-72267000D01*
X167024614Y-72265000D01*
X167026150Y-72264010D01*
X167077582Y-72258945D01*
X167126856Y-72243997D01*
X167172264Y-72219727D01*
X167212064Y-72187064D01*
X167244727Y-72147264D01*
X167268997Y-72101856D01*
X167283945Y-72052582D01*
X167289010Y-72001150D01*
X167290175Y-71999524D01*
X167292165Y-71999720D01*
G37*
G36*
X150250386Y-71468000D02*
G01*
X150250386Y-71470000D01*
X150248850Y-71470990D01*
X150197418Y-71476055D01*
X150148144Y-71491003D01*
X150102736Y-71515273D01*
X150062936Y-71547936D01*
X150030273Y-71587736D01*
X150006003Y-71633144D01*
X149991055Y-71682418D01*
X149985990Y-71733850D01*
X149984825Y-71735476D01*
X149982835Y-71735280D01*
X149982000Y-71733654D01*
X149982000Y-71650712D01*
X149982010Y-71650516D01*
X149985976Y-71610244D01*
X149986052Y-71609859D01*
X149996010Y-71577035D01*
X149996160Y-71576673D01*
X150012328Y-71546425D01*
X150012546Y-71546099D01*
X150034306Y-71519583D01*
X150034583Y-71519306D01*
X150061099Y-71497546D01*
X150061425Y-71497328D01*
X150091673Y-71481160D01*
X150092035Y-71481010D01*
X150124859Y-71471052D01*
X150125244Y-71470976D01*
X150165516Y-71467010D01*
X150165712Y-71467000D01*
X150248654Y-71467000D01*
X150250386Y-71468000D01*
G37*
G36*
X152094484Y-71467010D02*
G01*
X152134756Y-71470976D01*
X152135141Y-71471052D01*
X152167965Y-71481010D01*
X152168327Y-71481160D01*
X152198575Y-71497328D01*
X152198901Y-71497546D01*
X152225417Y-71519306D01*
X152225694Y-71519583D01*
X152247454Y-71546099D01*
X152247672Y-71546425D01*
X152263840Y-71576673D01*
X152263990Y-71577035D01*
X152273948Y-71609859D01*
X152274024Y-71610244D01*
X152277990Y-71650516D01*
X152278000Y-71650712D01*
X152278000Y-71733654D01*
X152277000Y-71735386D01*
X152275000Y-71735386D01*
X152274010Y-71733850D01*
X152268945Y-71682418D01*
X152253997Y-71633144D01*
X152229727Y-71587736D01*
X152197064Y-71547936D01*
X152157264Y-71515273D01*
X152111856Y-71491003D01*
X152062582Y-71476055D01*
X152011150Y-71470990D01*
X152009524Y-71469825D01*
X152009720Y-71467835D01*
X152011346Y-71467000D01*
X152094288Y-71467000D01*
X152094484Y-71467010D01*
G37*
G36*
X165715386Y-69973000D02*
G01*
X165715386Y-69975000D01*
X165713850Y-69975990D01*
X165662418Y-69981055D01*
X165613144Y-69996003D01*
X165567736Y-70020273D01*
X165527936Y-70052936D01*
X165495273Y-70092736D01*
X165471003Y-70138144D01*
X165456055Y-70187418D01*
X165450990Y-70238850D01*
X165449825Y-70240476D01*
X165447835Y-70240280D01*
X165447000Y-70238654D01*
X165447000Y-70155712D01*
X165447010Y-70155516D01*
X165450976Y-70115244D01*
X165451052Y-70114859D01*
X165461010Y-70082035D01*
X165461160Y-70081673D01*
X165477328Y-70051425D01*
X165477546Y-70051099D01*
X165499306Y-70024583D01*
X165499583Y-70024306D01*
X165526099Y-70002546D01*
X165526425Y-70002328D01*
X165556673Y-69986160D01*
X165557035Y-69986010D01*
X165589859Y-69976052D01*
X165590244Y-69975976D01*
X165630516Y-69972010D01*
X165630712Y-69972000D01*
X165713654Y-69972000D01*
X165715386Y-69973000D01*
G37*
G36*
X167109484Y-69972010D02*
G01*
X167149756Y-69975976D01*
X167150141Y-69976052D01*
X167182965Y-69986010D01*
X167183327Y-69986160D01*
X167213575Y-70002328D01*
X167213901Y-70002546D01*
X167240417Y-70024306D01*
X167240694Y-70024583D01*
X167262454Y-70051099D01*
X167262672Y-70051425D01*
X167278840Y-70081673D01*
X167278990Y-70082035D01*
X167288948Y-70114859D01*
X167289024Y-70115244D01*
X167292990Y-70155516D01*
X167293000Y-70155712D01*
X167293000Y-70238654D01*
X167292000Y-70240386D01*
X167290000Y-70240386D01*
X167289010Y-70238850D01*
X167283945Y-70187418D01*
X167268997Y-70138144D01*
X167244727Y-70092736D01*
X167212064Y-70052936D01*
X167172264Y-70020273D01*
X167126856Y-69996003D01*
X167077582Y-69981055D01*
X167026150Y-69975990D01*
X167024524Y-69974825D01*
X167024720Y-69972835D01*
X167026346Y-69972000D01*
X167109288Y-69972000D01*
X167109484Y-69972010D01*
G37*
G36*
X118390990Y-67830304D02*
G01*
X118408273Y-68005784D01*
X118459403Y-68174337D01*
X118542433Y-68329675D01*
X118654171Y-68465829D01*
X118790325Y-68577567D01*
X118945663Y-68660597D01*
X119114216Y-68711727D01*
X119289696Y-68729010D01*
X119291322Y-68730175D01*
X119291126Y-68732165D01*
X119289500Y-68733000D01*
X119233140Y-68733000D01*
X119232944Y-68732990D01*
X119063438Y-68716295D01*
X119063053Y-68716219D01*
X118905959Y-68668565D01*
X118905597Y-68668415D01*
X118760826Y-68591033D01*
X118760500Y-68590815D01*
X118633603Y-68486674D01*
X118633326Y-68486397D01*
X118529185Y-68359500D01*
X118528967Y-68359174D01*
X118451585Y-68214403D01*
X118451435Y-68214041D01*
X118403781Y-68056947D01*
X118403705Y-68056562D01*
X118387010Y-67887056D01*
X118387000Y-67886860D01*
X118387000Y-67830500D01*
X118388000Y-67828768D01*
X118390000Y-67828768D01*
X118390990Y-67830304D01*
G37*
G36*
X121992165Y-67828874D02*
G01*
X121993000Y-67830500D01*
X121993000Y-67886860D01*
X121992990Y-67887056D01*
X121976295Y-68056562D01*
X121976219Y-68056947D01*
X121928565Y-68214041D01*
X121928415Y-68214403D01*
X121851033Y-68359174D01*
X121850815Y-68359500D01*
X121746674Y-68486397D01*
X121746397Y-68486674D01*
X121619500Y-68590815D01*
X121619174Y-68591033D01*
X121474403Y-68668415D01*
X121474041Y-68668565D01*
X121316947Y-68716219D01*
X121316562Y-68716295D01*
X121147056Y-68732990D01*
X121146860Y-68733000D01*
X121090500Y-68733000D01*
X121088768Y-68732000D01*
X121088768Y-68730000D01*
X121090304Y-68729010D01*
X121265784Y-68711727D01*
X121434337Y-68660597D01*
X121589675Y-68577567D01*
X121725829Y-68465829D01*
X121837567Y-68329675D01*
X121920597Y-68174337D01*
X121971727Y-68005784D01*
X121989010Y-67830304D01*
X121990175Y-67828678D01*
X121992165Y-67828874D01*
G37*
G36*
X119291232Y-65128000D02*
G01*
X119291232Y-65130000D01*
X119289696Y-65130990D01*
X119114216Y-65148273D01*
X118945663Y-65199403D01*
X118790325Y-65282433D01*
X118654171Y-65394171D01*
X118542433Y-65530325D01*
X118459403Y-65685663D01*
X118408273Y-65854216D01*
X118390990Y-66029696D01*
X118389825Y-66031322D01*
X118387835Y-66031126D01*
X118387000Y-66029500D01*
X118387000Y-65973140D01*
X118387010Y-65972944D01*
X118403705Y-65803438D01*
X118403781Y-65803053D01*
X118451435Y-65645959D01*
X118451585Y-65645597D01*
X118528967Y-65500826D01*
X118529185Y-65500500D01*
X118633326Y-65373603D01*
X118633603Y-65373326D01*
X118760500Y-65269185D01*
X118760826Y-65268967D01*
X118905597Y-65191585D01*
X118905959Y-65191435D01*
X119063053Y-65143781D01*
X119063438Y-65143705D01*
X119232944Y-65127010D01*
X119233140Y-65127000D01*
X119289500Y-65127000D01*
X119291232Y-65128000D01*
G37*
G36*
X121147056Y-65127010D02*
G01*
X121316562Y-65143705D01*
X121316947Y-65143781D01*
X121474041Y-65191435D01*
X121474403Y-65191585D01*
X121619174Y-65268967D01*
X121619500Y-65269185D01*
X121746397Y-65373326D01*
X121746674Y-65373603D01*
X121850815Y-65500500D01*
X121851033Y-65500826D01*
X121928415Y-65645597D01*
X121928565Y-65645959D01*
X121976219Y-65803053D01*
X121976295Y-65803438D01*
X121992990Y-65972944D01*
X121993000Y-65973140D01*
X121993000Y-66029500D01*
X121992000Y-66031232D01*
X121990000Y-66031232D01*
X121989010Y-66029696D01*
X121971727Y-65854216D01*
X121920597Y-65685663D01*
X121837567Y-65530325D01*
X121725829Y-65394171D01*
X121589675Y-65282433D01*
X121434337Y-65199403D01*
X121265784Y-65148273D01*
X121090304Y-65130990D01*
X121088678Y-65129825D01*
X121088874Y-65127835D01*
X121090500Y-65127000D01*
X121146860Y-65127000D01*
X121147056Y-65127010D01*
G37*
G36*
X115640990Y-63255304D02*
G01*
X115655871Y-63406398D01*
X115699888Y-63551502D01*
X115771366Y-63685229D01*
X115867560Y-63802440D01*
X115984771Y-63898634D01*
X116118498Y-63970112D01*
X116263602Y-64014129D01*
X116414696Y-64029010D01*
X116416322Y-64030175D01*
X116416126Y-64032165D01*
X116414500Y-64033000D01*
X116358140Y-64033000D01*
X116357944Y-64032990D01*
X116212825Y-64018697D01*
X116212440Y-64018621D01*
X116078794Y-63978080D01*
X116078432Y-63977930D01*
X115955273Y-63912100D01*
X115954947Y-63911882D01*
X115846991Y-63823286D01*
X115846714Y-63823009D01*
X115758118Y-63715053D01*
X115757900Y-63714727D01*
X115692070Y-63591568D01*
X115691920Y-63591206D01*
X115651379Y-63457560D01*
X115651303Y-63457175D01*
X115637010Y-63312056D01*
X115637000Y-63311860D01*
X115637000Y-63255500D01*
X115638000Y-63253768D01*
X115640000Y-63253768D01*
X115640990Y-63255304D01*
G37*
G36*
X118742165Y-63253874D02*
G01*
X118743000Y-63255500D01*
X118743000Y-63311860D01*
X118742990Y-63312056D01*
X118728697Y-63457175D01*
X118728621Y-63457560D01*
X118688080Y-63591206D01*
X118687930Y-63591568D01*
X118622100Y-63714727D01*
X118621882Y-63715053D01*
X118533286Y-63823009D01*
X118533009Y-63823286D01*
X118425053Y-63911882D01*
X118424727Y-63912100D01*
X118301568Y-63977930D01*
X118301206Y-63978080D01*
X118167560Y-64018621D01*
X118167175Y-64018697D01*
X118022056Y-64032990D01*
X118021860Y-64033000D01*
X117965500Y-64033000D01*
X117963768Y-64032000D01*
X117963768Y-64030000D01*
X117965304Y-64029010D01*
X118116398Y-64014129D01*
X118261502Y-63970112D01*
X118395229Y-63898634D01*
X118512440Y-63802440D01*
X118608634Y-63685229D01*
X118680112Y-63551502D01*
X118724129Y-63406398D01*
X118739010Y-63255304D01*
X118740175Y-63253678D01*
X118742165Y-63253874D01*
G37*
G36*
X116416232Y-60428000D02*
G01*
X116416232Y-60430000D01*
X116414696Y-60430990D01*
X116263602Y-60445871D01*
X116118498Y-60489888D01*
X115984771Y-60561366D01*
X115867560Y-60657560D01*
X115771366Y-60774771D01*
X115699888Y-60908498D01*
X115655871Y-61053602D01*
X115640990Y-61204696D01*
X115639825Y-61206322D01*
X115637835Y-61206126D01*
X115637000Y-61204500D01*
X115637000Y-61148140D01*
X115637010Y-61147944D01*
X115651303Y-61002825D01*
X115651379Y-61002440D01*
X115691920Y-60868794D01*
X115692070Y-60868432D01*
X115757900Y-60745273D01*
X115758118Y-60744947D01*
X115846714Y-60636991D01*
X115846991Y-60636714D01*
X115954947Y-60548118D01*
X115955273Y-60547900D01*
X116078432Y-60482070D01*
X116078794Y-60481920D01*
X116212440Y-60441379D01*
X116212825Y-60441303D01*
X116357944Y-60427010D01*
X116358140Y-60427000D01*
X116414500Y-60427000D01*
X116416232Y-60428000D01*
G37*
G36*
X118022056Y-60427010D02*
G01*
X118167175Y-60441303D01*
X118167560Y-60441379D01*
X118301206Y-60481920D01*
X118301568Y-60482070D01*
X118424727Y-60547900D01*
X118425053Y-60548118D01*
X118533009Y-60636714D01*
X118533286Y-60636991D01*
X118621882Y-60744947D01*
X118622100Y-60745273D01*
X118687930Y-60868432D01*
X118688080Y-60868794D01*
X118728621Y-61002440D01*
X118728697Y-61002825D01*
X118742990Y-61147944D01*
X118743000Y-61148140D01*
X118743000Y-61204500D01*
X118742000Y-61206232D01*
X118740000Y-61206232D01*
X118739010Y-61204696D01*
X118724129Y-61053602D01*
X118680112Y-60908498D01*
X118608634Y-60774771D01*
X118512440Y-60657560D01*
X118395229Y-60561366D01*
X118261502Y-60489888D01*
X118116398Y-60445871D01*
X117965304Y-60430990D01*
X117963678Y-60429825D01*
X117963874Y-60427835D01*
X117965500Y-60427000D01*
X118021860Y-60427000D01*
X118022056Y-60427010D01*
G37*
G36*
X131160990Y-60571150D02*
G01*
X131166055Y-60622582D01*
X131181003Y-60671856D01*
X131205273Y-60717264D01*
X131237936Y-60757064D01*
X131277736Y-60789727D01*
X131323144Y-60813997D01*
X131372418Y-60828945D01*
X131423850Y-60834010D01*
X131425476Y-60835175D01*
X131425280Y-60837165D01*
X131423654Y-60838000D01*
X131340712Y-60838000D01*
X131340516Y-60837990D01*
X131300244Y-60834024D01*
X131299859Y-60833948D01*
X131267035Y-60823990D01*
X131266673Y-60823840D01*
X131236425Y-60807672D01*
X131236099Y-60807454D01*
X131209583Y-60785694D01*
X131209306Y-60785417D01*
X131187546Y-60758901D01*
X131187328Y-60758575D01*
X131171160Y-60728327D01*
X131171010Y-60727965D01*
X131161052Y-60695141D01*
X131160976Y-60694756D01*
X131157010Y-60654484D01*
X131157000Y-60654288D01*
X131157000Y-60571346D01*
X131158000Y-60569614D01*
X131160000Y-60569614D01*
X131160990Y-60571150D01*
G37*
G36*
X133002165Y-60569720D02*
G01*
X133003000Y-60571346D01*
X133003000Y-60654288D01*
X133002990Y-60654484D01*
X132999024Y-60694756D01*
X132998948Y-60695141D01*
X132988990Y-60727965D01*
X132988840Y-60728327D01*
X132972672Y-60758575D01*
X132972454Y-60758901D01*
X132950694Y-60785417D01*
X132950417Y-60785694D01*
X132923901Y-60807454D01*
X132923575Y-60807672D01*
X132893327Y-60823840D01*
X132892965Y-60823990D01*
X132860141Y-60833948D01*
X132859756Y-60834024D01*
X132819484Y-60837990D01*
X132819288Y-60838000D01*
X132736346Y-60838000D01*
X132734614Y-60837000D01*
X132734614Y-60835000D01*
X132736150Y-60834010D01*
X132787582Y-60828945D01*
X132836856Y-60813997D01*
X132882264Y-60789727D01*
X132922064Y-60757064D01*
X132954727Y-60717264D01*
X132978997Y-60671856D01*
X132993945Y-60622582D01*
X132999010Y-60571150D01*
X133000175Y-60569524D01*
X133002165Y-60569720D01*
G37*
G36*
X131425386Y-58543000D02*
G01*
X131425386Y-58545000D01*
X131423850Y-58545990D01*
X131372418Y-58551055D01*
X131323144Y-58566003D01*
X131277736Y-58590273D01*
X131237936Y-58622936D01*
X131205273Y-58662736D01*
X131181003Y-58708144D01*
X131166055Y-58757418D01*
X131160990Y-58808850D01*
X131159825Y-58810476D01*
X131157835Y-58810280D01*
X131157000Y-58808654D01*
X131157000Y-58725712D01*
X131157010Y-58725516D01*
X131160976Y-58685244D01*
X131161052Y-58684859D01*
X131171010Y-58652035D01*
X131171160Y-58651673D01*
X131187328Y-58621425D01*
X131187546Y-58621099D01*
X131209306Y-58594583D01*
X131209583Y-58594306D01*
X131236099Y-58572546D01*
X131236425Y-58572328D01*
X131266673Y-58556160D01*
X131267035Y-58556010D01*
X131299859Y-58546052D01*
X131300244Y-58545976D01*
X131340516Y-58542010D01*
X131340712Y-58542000D01*
X131423654Y-58542000D01*
X131425386Y-58543000D01*
G37*
G36*
X132819484Y-58542010D02*
G01*
X132859756Y-58545976D01*
X132860141Y-58546052D01*
X132892965Y-58556010D01*
X132893327Y-58556160D01*
X132923575Y-58572328D01*
X132923901Y-58572546D01*
X132950417Y-58594306D01*
X132950694Y-58594583D01*
X132972454Y-58621099D01*
X132972672Y-58621425D01*
X132988840Y-58651673D01*
X132988990Y-58652035D01*
X132998948Y-58684859D01*
X132999024Y-58685244D01*
X133002990Y-58725516D01*
X133003000Y-58725712D01*
X133003000Y-58808654D01*
X133002000Y-58810386D01*
X133000000Y-58810386D01*
X132999010Y-58808850D01*
X132993945Y-58757418D01*
X132978997Y-58708144D01*
X132954727Y-58662736D01*
X132922064Y-58622936D01*
X132882264Y-58590273D01*
X132836856Y-58566003D01*
X132787582Y-58551055D01*
X132736150Y-58545990D01*
X132734524Y-58544825D01*
X132734720Y-58542835D01*
X132736346Y-58542000D01*
X132819288Y-58542000D01*
X132819484Y-58542010D01*
G37*
M02*
