M48
; DRILL file {KiCad (5.1.5-0-10_14)} date Sunday, 21 June 2020 at 02:07:43 pm
; FORMAT={-:-/ absolute / inch / decimal}
; #@! TF.CreationDate,2020-06-21T14:07:43+10:00
; #@! TF.GenerationSoftware,Kicad,Pcbnew,(5.1.5-0-10_14)
; #@! TF.FileFunction,Plated,1,2,PTH
FMAT,2
INCH
T1C0.0300
T2C0.0315
T3C0.0354
T4C0.0394
%
G90
G05
T1
X6.4843Y-3.6385
X6.7122Y-3.6369
T2
X6.6227Y-3.3302
X6.9227Y-3.3302
T3
X6.3758Y-3.4707
X6.3758Y-3.5707
X6.3778Y-3.6628
X6.3778Y-3.7628
X6.8219Y-3.6628
X6.8219Y-3.7628
X6.8183Y-3.4707
X6.8183Y-3.5707
T4
X6.4027Y-3.3502
X6.5027Y-3.3502
X6.5122Y-3.5119
X6.5122Y-3.7619
X6.6872Y-3.5119
X6.6872Y-3.7619
X6.5427Y-3.8802
X6.5427Y-3.9802
X6.6927Y-3.9002
X6.7927Y-3.9002
X6.3927Y-3.8802
X6.3927Y-3.9802
T0
M30
