M48
INCH
T01C0.0191
T02C0.0354
T03C0.0394
T04C0.1
%
T01
X+011264Y+023430
X+010869Y+024430
X+017926Y+024430
X+018099Y+023430
X+016714Y+019940
X+018764Y+019430
X+021079Y+019035
X+021474Y+020940
X+017484Y+015750
X+020029Y+014520
X+021869Y+012940
X+027474Y+010940
X+028974Y+021430
X+035339Y+019285
X+035734Y+019940
X+010426Y+014430
T02
X+009984Y+020940
X+009984Y+019940
X+009984Y+018940
X+009984Y+017940
X+009984Y+016940
X+009984Y+015940
X+009984Y+014940
X+009984Y+013940
X+009984Y+012940
X+009984Y+011940
X+009984Y+010940
X+009984Y+009940
X+012984Y+009940
X+012984Y+010940
X+012984Y+011940
X+012984Y+012940
X+012984Y+013940
X+012984Y+014940
X+012984Y+015940
X+012984Y+016940
X+012984Y+017940
X+012984Y+018940
X+012984Y+019940
X+012984Y+020940
X+017484Y+020940
X+017484Y+021940
X+017484Y+022940
X+017484Y+023940
X+017484Y+024940
X+017484Y+025940
X+017484Y+026940
X+013984Y+025940
X+012984Y+025940
X+011984Y+025940
X+010984Y+025940
X+009984Y+025940
X+008984Y+025940
X+005984Y+017940
X+005984Y+015940
X+005984Y+011940
X+005984Y+009940
X+008484Y+006440
X+009484Y+006440
X+010484Y+006440
X+011484Y+006440
X+012484Y+006440
X+013484Y+006440
X+017484Y+005940
X+017484Y+006940
X+017484Y+007940
X+017484Y+008940
X+017484Y+009940
X+017484Y+010940
X+017484Y+011940
X+017484Y+012940
X+023484Y+012940
X+023484Y+011940
X+023484Y+010940
X+023484Y+009940
X+023484Y+008940
X+023484Y+007940
X+023484Y+006940
X+023484Y+005940
X+028484Y+005940
X+028484Y+006940
X+028484Y+007940
X+028484Y+008940
X+028484Y+009940
X+028484Y+010940
X+028484Y+014940
X+028484Y+015940
X+028484Y+019940
X+028484Y+020940
X+028484Y+021940
X+028484Y+022940
X+028484Y+023940
X+028484Y+024940
X+028484Y+025940
X+028484Y+026940
X+023484Y+026940
X+023484Y+025940
X+023484Y+024940
X+023484Y+023940
X+023484Y+022940
X+023484Y+021940
X+023484Y+020940
X+023484Y+019940
X+017484Y+019940
X+034984Y+020940
X+034984Y+021940
X+034984Y+022940
X+034984Y+023940
X+034984Y+024940
X+034984Y+025940
X+034984Y+017440
X+034984Y+016440
X+034984Y+015440
X+034984Y+014440
X+034984Y+009440
X+034984Y+008440
X+034984Y+007440
T03
X+005984Y+020940
X+005984Y+021940
T04
X+037484Y+027940
X+037484Y+004940
X+004984Y+004940
X+004984Y+027940
T00
M30
