G04 #@! TF.GenerationSoftware,KiCad,Pcbnew,(6.0.7-1)-1*
G04 #@! TF.CreationDate,2023-05-21T10:58:46+10:00*
G04 #@! TF.ProjectId,F16 Input Shield with Ethernet,46313620-496e-4707-9574-20536869656c,rev?*
G04 #@! TF.SameCoordinates,Original*
G04 #@! TF.FileFunction,Soldermask,Bot*
G04 #@! TF.FilePolarity,Negative*
%FSLAX46Y46*%
G04 Gerber Fmt 4.6, Leading zero omitted, Abs format (unit mm)*
G04 Created by KiCad (PCBNEW (6.0.7-1)-1) date 2023-05-21 10:58:46*
%MOMM*%
%LPD*%
G01*
G04 APERTURE LIST*
G04 Aperture macros list*
%AMRoundRect*
0 Rectangle with rounded corners*
0 $1 Rounding radius*
0 $2 $3 $4 $5 $6 $7 $8 $9 X,Y pos of 4 corners*
0 Add a 4 corners polygon primitive as box body*
4,1,4,$2,$3,$4,$5,$6,$7,$8,$9,$2,$3,0*
0 Add four circle primitives for the rounded corners*
1,1,$1+$1,$2,$3*
1,1,$1+$1,$4,$5*
1,1,$1+$1,$6,$7*
1,1,$1+$1,$8,$9*
0 Add four rect primitives between the rounded corners*
20,1,$1+$1,$2,$3,$4,$5,0*
20,1,$1+$1,$4,$5,$6,$7,0*
20,1,$1+$1,$6,$7,$8,$9,0*
20,1,$1+$1,$8,$9,$2,$3,0*%
G04 Aperture macros list end*
%ADD10C,1.727200*%
%ADD11O,1.727200X1.727200*%
%ADD12O,1.727200X2.032000*%
%ADD13R,1.700000X1.700000*%
%ADD14O,1.700000X1.700000*%
%ADD15R,1.727200X1.727200*%
%ADD16C,1.400000*%
%ADD17O,1.400000X1.400000*%
%ADD18RoundRect,0.250000X-0.620000X-0.850000X0.620000X-0.850000X0.620000X0.850000X-0.620000X0.850000X0*%
%ADD19O,1.740000X2.200000*%
%ADD20C,1.600000*%
%ADD21R,1.800000X1.800000*%
%ADD22C,1.800000*%
%ADD23RoundRect,0.250000X-0.850000X0.620000X-0.850000X-0.620000X0.850000X-0.620000X0.850000X0.620000X0*%
%ADD24O,2.200000X1.740000*%
%ADD25R,1.665000X1.665000*%
%ADD26C,1.665000*%
G04 APERTURE END LIST*
D10*
X197358000Y-114046000D03*
D11*
X199898000Y-114046000D03*
X197358000Y-111506000D03*
X199898000Y-111506000D03*
X197358000Y-108966000D03*
X199898000Y-108966000D03*
X197358000Y-106426000D03*
X199898000Y-106426000D03*
X197358000Y-103886000D03*
X199898000Y-103886000D03*
X197358000Y-101346000D03*
X199898000Y-101346000D03*
X197358000Y-98806000D03*
X199898000Y-98806000D03*
X197358000Y-96266000D03*
X199898000Y-96266000D03*
X197358000Y-93726000D03*
X199898000Y-93726000D03*
X197358000Y-91186000D03*
X199898000Y-91186000D03*
X197358000Y-88646000D03*
X199898000Y-88646000D03*
X197358000Y-86106000D03*
X199898000Y-86106000D03*
X197358000Y-83566000D03*
X199898000Y-83566000D03*
X197358000Y-81026000D03*
X199898000Y-81026000D03*
X197358000Y-78486000D03*
X199898000Y-78486000D03*
X197358000Y-75946000D03*
X199898000Y-75946000D03*
X197358000Y-73406000D03*
X199898000Y-73406000D03*
X197358000Y-70866000D03*
X199898000Y-70866000D03*
D12*
X131318000Y-119126000D03*
X133858000Y-119126000D03*
X136398000Y-119126000D03*
X138938000Y-119126000D03*
X141478000Y-119126000D03*
X144018000Y-119126000D03*
X146558000Y-119126000D03*
X149098000Y-119126000D03*
D13*
X154178000Y-119126000D03*
D14*
X156718000Y-119126000D03*
X159258000Y-119126000D03*
X161798000Y-119126000D03*
X164338000Y-119126000D03*
X166878000Y-119126000D03*
D12*
X177038000Y-119126000D03*
X179578000Y-119126000D03*
X182118000Y-119126000D03*
X184658000Y-119126000D03*
X187198000Y-119126000D03*
X189738000Y-119126000D03*
X192278000Y-119126000D03*
X194818000Y-119126000D03*
X127254000Y-70866000D03*
X129794000Y-70866000D03*
X132334000Y-70866000D03*
X134874000Y-70866000D03*
X137414000Y-70866000D03*
X139954000Y-70866000D03*
X142494000Y-70866000D03*
X145034000Y-70866000D03*
X149098000Y-70866000D03*
X151638000Y-70866000D03*
X154178000Y-70866000D03*
X156718000Y-70866000D03*
X159258000Y-70866000D03*
X161798000Y-70866000D03*
X164338000Y-70866000D03*
X166878000Y-70866000D03*
X171958000Y-70866000D03*
X174498000Y-70866000D03*
X177038000Y-70866000D03*
X179578000Y-70866000D03*
X182118000Y-70866000D03*
X184658000Y-70866000D03*
X187198000Y-70866000D03*
X189738000Y-70866000D03*
D15*
X147320000Y-91440000D03*
D11*
X147320000Y-88900000D03*
X149860000Y-91440000D03*
X149860000Y-88900000D03*
X152400000Y-91440000D03*
X152400000Y-88900000D03*
X154940000Y-91440000D03*
X154940000Y-88900000D03*
X157480000Y-91440000D03*
X157480000Y-88900000D03*
X160020000Y-91440000D03*
X160020000Y-88900000D03*
X162560000Y-91440000D03*
X162560000Y-88900000D03*
X165100000Y-91440000D03*
X165100000Y-88900000D03*
X167640000Y-91440000D03*
X167640000Y-88900000D03*
X170180000Y-91440000D03*
X170180000Y-88900000D03*
X172720000Y-91440000D03*
X172720000Y-88900000D03*
X175260000Y-91440000D03*
X175260000Y-88900000D03*
X177800000Y-91440000D03*
X177800000Y-88900000D03*
X180340000Y-91440000D03*
X180340000Y-88900000D03*
X182880000Y-91440000D03*
X182880000Y-88900000D03*
X185420000Y-91440000D03*
X185420000Y-88900000D03*
X187960000Y-91440000D03*
X187960000Y-88900000D03*
D16*
X138430000Y-101600000D03*
D17*
X138430000Y-99060000D03*
D16*
X140970000Y-101600000D03*
D17*
X140970000Y-99060000D03*
D16*
X143510000Y-101600000D03*
D17*
X143510000Y-99060000D03*
D16*
X146050000Y-101600000D03*
D17*
X146050000Y-99060000D03*
D16*
X148590000Y-101600000D03*
D17*
X148590000Y-99060000D03*
D16*
X151130000Y-101600000D03*
D17*
X151130000Y-99060000D03*
D16*
X153670000Y-101600000D03*
D17*
X153670000Y-99060000D03*
D16*
X156210000Y-101600000D03*
D17*
X156210000Y-99060000D03*
D16*
X158750000Y-101600000D03*
D17*
X158750000Y-99060000D03*
D16*
X161290000Y-101600000D03*
D17*
X161290000Y-99060000D03*
D18*
X168910000Y-101600000D03*
D19*
X171450000Y-101600000D03*
X173990000Y-101600000D03*
X176530000Y-101600000D03*
X179070000Y-101600000D03*
X181610000Y-101600000D03*
X184150000Y-101600000D03*
X186690000Y-101600000D03*
X189230000Y-101600000D03*
X191770000Y-101600000D03*
D18*
X168757600Y-80683400D03*
D19*
X171297600Y-80683400D03*
X173837600Y-80683400D03*
X176377600Y-80683400D03*
X178917600Y-80683400D03*
X181457600Y-80683400D03*
X183997600Y-80683400D03*
X186537600Y-80683400D03*
X189077600Y-80683400D03*
X191617600Y-80683400D03*
D18*
X130810000Y-107315000D03*
D19*
X133350000Y-107315000D03*
X135890000Y-107315000D03*
X138430000Y-107315000D03*
X140970000Y-107315000D03*
X143510000Y-107315000D03*
X146050000Y-107315000D03*
X148590000Y-107315000D03*
D20*
X193675000Y-116165000D03*
X193675000Y-111165000D03*
X165100000Y-116165000D03*
X165100000Y-111165000D03*
X190500000Y-116165000D03*
X190500000Y-111165000D03*
X187325000Y-116165000D03*
X187325000Y-111165000D03*
X158750000Y-116165000D03*
X158750000Y-111165000D03*
X184150000Y-116165000D03*
X184150000Y-111165000D03*
X152400000Y-116165000D03*
X152400000Y-111165000D03*
X180975000Y-116165000D03*
X180975000Y-111165000D03*
X155575000Y-116165000D03*
X155575000Y-111165000D03*
X177800000Y-116165000D03*
X177800000Y-111165000D03*
X171450000Y-116165000D03*
X171450000Y-111165000D03*
X174625000Y-116165000D03*
X174625000Y-111165000D03*
X161925000Y-116165000D03*
X161925000Y-111165000D03*
D16*
X163830000Y-101600000D03*
D17*
X163830000Y-99060000D03*
D18*
X105410000Y-83205000D03*
D19*
X107950000Y-83205000D03*
X110490000Y-83205000D03*
X113030000Y-83205000D03*
X115570000Y-83205000D03*
X118110000Y-83205000D03*
D18*
X129540000Y-76855000D03*
D19*
X132080000Y-76855000D03*
X134620000Y-76855000D03*
X137160000Y-76855000D03*
X139700000Y-76855000D03*
X142240000Y-76855000D03*
D18*
X105410000Y-73680000D03*
D19*
X107950000Y-73680000D03*
X110490000Y-73680000D03*
X113030000Y-73680000D03*
X115570000Y-73680000D03*
X118110000Y-73680000D03*
D21*
X161285000Y-78105000D03*
D22*
X163825000Y-78105000D03*
D21*
X156210000Y-78105000D03*
D22*
X158750000Y-78105000D03*
D23*
X132187000Y-82423000D03*
D24*
X132187000Y-84963000D03*
D23*
X132060000Y-88900000D03*
D24*
X132060000Y-91440000D03*
X132060000Y-93980000D03*
X132060000Y-96520000D03*
X132060000Y-99060000D03*
X132060000Y-101600000D03*
D13*
X152400000Y-75565000D03*
D14*
X152400000Y-78105000D03*
D13*
X147320000Y-75560000D03*
D14*
X147320000Y-78100000D03*
D16*
X163957000Y-74345800D03*
D17*
X166497000Y-74345800D03*
D16*
X158165000Y-74295000D03*
D17*
X160705000Y-74295000D03*
D20*
X168275000Y-116165000D03*
X168275000Y-111165000D03*
D25*
X107665000Y-110490000D03*
D26*
X110205000Y-110490000D03*
X112745000Y-110490000D03*
X115285000Y-110490000D03*
X117825000Y-110490000D03*
X120365000Y-110490000D03*
D25*
X107665000Y-90170000D03*
D26*
X110205000Y-90170000D03*
X112745000Y-90170000D03*
X115285000Y-90170000D03*
X117825000Y-90170000D03*
X120365000Y-90170000D03*
D13*
X118110000Y-116840000D03*
D14*
X120650000Y-116840000D03*
D16*
X110490000Y-115620000D03*
D17*
X110490000Y-118160000D03*
M02*
