  0
SECTION
  2
HEADER
  9
$ANGBASE
  50
0.0
  9
$ANGDIR
  70
1
  9
$MEASUREMENT
  70
1
  0
ENDSEC
  0
SECTION
  2
TABLES
  0
TABLE
  2
LTYPE
  70
4
  0
LTYPE
  5
40F
  2
CONTINUOUS
  70
0
  3
Solid line
  72
65
  73
0
  40
0.0
  0
LTYPE
  5
410
  2
DASHDOT
 70
0
  3
Dash Dot ____ _ ____ _
 72
65
 73
4
 40
2.0
 49
1.25
 49
-0.25
 49
0.25
 49
-0.25
  0
LTYPE
  5
411
  2
DASHED
 70
0
  3
Dashed __ __ __ __ __
 72
65
 73
2
 40
0.75
 49
0.5
 49
-0.25
  0
LTYPE
  5
43B
  2
DOTTED
 70
0
  3
Dotted .  .  .  .
 72
65
 73
2
 40
0.2
 49
0.0
 49
-0.2
  0
ENDTAB
  0
TABLE
  2
STYLE
  70
4
  0
STYLE
  2
KICAD
  70
0
  40
0
  41
1
  42
1
  50
0
  71
0
  3
isocp.shx
  0
STYLE
  2
KICADB
  70
0
  40
0
  41
1
  42
1
  50
0
  71
0
  3
isocp.shx
  0
STYLE
  2
KICADI
  70
0
  40
0
  41
1
  42
1
  50
15
  71
0
  3
isocp.shx
  0
STYLE
  2
KICADBI
  70
0
  40
0
  41
1
  42
1
  50
15
  71
0
  3
isocp.shx
  0
ENDTAB
  0
TABLE
  2
LAYER
  70
1
  0
LAYER
  2
BLACK
  70
0
  62
7
  6
CONTINUOUS
  0
ENDTAB
  0
ENDSEC
  0
SECTION
  2
ENTITIES
0
LINE
8
BLACK
6
CONTINUOUS
10
176.006
20
-77.804
11
176.006
21
-86.487
0
LINE
8
BLACK
6
CONTINUOUS
10
164.719
20
-104.013
11
176.006
21
-86.487
0
LINE
8
BLACK
6
CONTINUOUS
10
80.645
20
-104.013
11
164.719
21
-104.013
0
LINE
8
BLACK
6
CONTINUOUS
10
80.645
20
-96.139
11
80.645
21
-104.013
0
LINE
8
BLACK
6
CONTINUOUS
10
100.076
20
-96.139
11
80.645
21
-96.139
0
LINE
8
BLACK
6
CONTINUOUS
10
100.076
20
-77.804
11
100.076
21
-96.139
0
LINE
8
BLACK
6
CONTINUOUS
10
176.006
20
-77.804
11
100.076
21
-77.804
0
LINE
8
BLACK
6
CONTINUOUS
10
169.935
20
-83.321
11
174.235
21
-87.621
0
LINE
8
BLACK
6
CONTINUOUS
10
174.235
20
-83.321
11
169.935
21
-87.621
0
LINE
8
BLACK
6
CONTINUOUS
10
124.596
20
-80.654
11
128.896
21
-84.954
0
LINE
8
BLACK
6
CONTINUOUS
10
128.896
20
-80.654
11
124.596
21
-84.954
0
LINE
8
BLACK
6
CONTINUOUS
10
82.051
20
-97.545
11
86.351
21
-101.845
0
LINE
8
BLACK
6
CONTINUOUS
10
86.351
20
-97.545
11
82.051
21
-101.845
0
LINE
8
BLACK
6
CONTINUOUS
10
136.788
20
-97.164
11
141.088
21
-101.464
0
LINE
8
BLACK
6
CONTINUOUS
10
141.088
20
-97.164
11
136.788
21
-101.464
0
LINE
8
BLACK
6
CONTINUOUS
10
83.4843
20
-108.695
11
83.4843
21
-105.695
0
LINE
8
BLACK
6
CONTINUOUS
10
83.4843
20
-105.695
11
84.1986
21
-105.695
0
LINE
8
BLACK
6
CONTINUOUS
10
84.1986
20
-105.695
11
84.6271
21
-105.838
0
LINE
8
BLACK
6
CONTINUOUS
10
84.6271
20
-105.838
11
84.9129
21
-106.124
0
LINE
8
BLACK
6
CONTINUOUS
10
84.9129
20
-106.124
11
85.0557
21
-106.409
0
LINE
8
BLACK
6
CONTINUOUS
10
85.0557
20
-106.409
11
85.1986
21
-106.981
0
LINE
8
BLACK
6
CONTINUOUS
10
85.1986
20
-106.981
11
85.1986
21
-107.409
0
LINE
8
BLACK
6
CONTINUOUS
10
85.1986
20
-107.409
11
85.0557
21
-107.981
0
LINE
8
BLACK
6
CONTINUOUS
10
85.0557
20
-107.981
11
84.9129
21
-108.267
0
LINE
8
BLACK
6
CONTINUOUS
10
84.9129
20
-108.267
11
84.6271
21
-108.552
0
LINE
8
BLACK
6
CONTINUOUS
10
84.6271
20
-108.552
11
84.1986
21
-108.695
0
LINE
8
BLACK
6
CONTINUOUS
10
84.1986
20
-108.695
11
83.4843
21
-108.695
0
LINE
8
BLACK
6
CONTINUOUS
10
86.4843
20
-108.695
11
86.4843
21
-106.695
0
LINE
8
BLACK
6
CONTINUOUS
10
86.4843
20
-107.267
11
86.6271
21
-106.981
0
LINE
8
BLACK
6
CONTINUOUS
10
86.6271
20
-106.981
11
86.77
21
-106.838
0
LINE
8
BLACK
6
CONTINUOUS
10
86.77
20
-106.838
11
87.0557
21
-106.695
0
LINE
8
BLACK
6
CONTINUOUS
10
87.0557
20
-106.695
11
87.3414
21
-106.695
0
LINE
8
BLACK
6
CONTINUOUS
10
88.3414
20
-108.695
11
88.3414
21
-106.695
0
LINE
8
BLACK
6
CONTINUOUS
10
88.3414
20
-105.695
11
88.1986
21
-105.838
0
LINE
8
BLACK
6
CONTINUOUS
10
88.1986
20
-105.838
11
88.3414
21
-105.981
0
LINE
8
BLACK
6
CONTINUOUS
10
88.3414
20
-105.981
11
88.4843
21
-105.838
0
LINE
8
BLACK
6
CONTINUOUS
10
88.4843
20
-105.838
11
88.3414
21
-105.695
0
LINE
8
BLACK
6
CONTINUOUS
10
88.3414
20
-105.695
11
88.3414
21
-105.981
0
LINE
8
BLACK
6
CONTINUOUS
10
90.1986
20
-108.695
11
89.9129
21
-108.552
0
LINE
8
BLACK
6
CONTINUOUS
10
89.9129
20
-108.552
11
89.77
21
-108.267
0
LINE
8
BLACK
6
CONTINUOUS
10
89.77
20
-108.267
11
89.77
21
-105.695
0
LINE
8
BLACK
6
CONTINUOUS
10
91.77
20
-108.695
11
91.4843
21
-108.552
0
LINE
8
BLACK
6
CONTINUOUS
10
91.4843
20
-108.552
11
91.3414
21
-108.267
0
LINE
8
BLACK
6
CONTINUOUS
10
91.3414
20
-108.267
11
91.3414
21
-105.695
0
LINE
8
BLACK
6
CONTINUOUS
10
95.1986
20
-108.695
11
95.1986
21
-105.695
0
LINE
8
BLACK
6
CONTINUOUS
10
95.1986
20
-105.695
11
96.1986
21
-107.838
0
LINE
8
BLACK
6
CONTINUOUS
10
96.1986
20
-107.838
11
97.1986
21
-105.695
0
LINE
8
BLACK
6
CONTINUOUS
10
97.1986
20
-105.695
11
97.1986
21
-108.695
0
LINE
8
BLACK
6
CONTINUOUS
10
99.9129
20
-108.695
11
99.9129
21
-107.124
0
LINE
8
BLACK
6
CONTINUOUS
10
99.9129
20
-107.124
11
99.77
21
-106.838
0
LINE
8
BLACK
6
CONTINUOUS
10
99.77
20
-106.838
11
99.4843
21
-106.695
0
LINE
8
BLACK
6
CONTINUOUS
10
99.4843
20
-106.695
11
98.9129
21
-106.695
0
LINE
8
BLACK
6
CONTINUOUS
10
98.9129
20
-106.695
11
98.6271
21
-106.838
0
LINE
8
BLACK
6
CONTINUOUS
10
99.9129
20
-108.552
11
99.6271
21
-108.695
0
LINE
8
BLACK
6
CONTINUOUS
10
99.6271
20
-108.695
11
98.9129
21
-108.695
0
LINE
8
BLACK
6
CONTINUOUS
10
98.9129
20
-108.695
11
98.6271
21
-108.552
0
LINE
8
BLACK
6
CONTINUOUS
10
98.6271
20
-108.552
11
98.4843
21
-108.267
0
LINE
8
BLACK
6
CONTINUOUS
10
98.4843
20
-108.267
11
98.4843
21
-107.981
0
LINE
8
BLACK
6
CONTINUOUS
10
98.4843
20
-107.981
11
98.6271
21
-107.695
0
LINE
8
BLACK
6
CONTINUOUS
10
98.6271
20
-107.695
11
98.9129
21
-107.552
0
LINE
8
BLACK
6
CONTINUOUS
10
98.9129
20
-107.552
11
99.6271
21
-107.552
0
LINE
8
BLACK
6
CONTINUOUS
10
99.6271
20
-107.552
11
99.9129
21
-107.409
0
LINE
8
BLACK
6
CONTINUOUS
10
101.341
20
-106.695
11
101.341
21
-109.695
0
LINE
8
BLACK
6
CONTINUOUS
10
101.341
20
-106.838
11
101.627
21
-106.695
0
LINE
8
BLACK
6
CONTINUOUS
10
101.627
20
-106.695
11
102.199
21
-106.695
0
LINE
8
BLACK
6
CONTINUOUS
10
102.199
20
-106.695
11
102.484
21
-106.838
0
LINE
8
BLACK
6
CONTINUOUS
10
102.484
20
-106.838
11
102.627
21
-106.981
0
LINE
8
BLACK
6
CONTINUOUS
10
102.627
20
-106.981
11
102.77
21
-107.267
0
LINE
8
BLACK
6
CONTINUOUS
10
102.77
20
-107.267
11
102.77
21
-108.124
0
LINE
8
BLACK
6
CONTINUOUS
10
102.77
20
-108.124
11
102.627
21
-108.409
0
LINE
8
BLACK
6
CONTINUOUS
10
102.627
20
-108.409
11
102.484
21
-108.552
0
LINE
8
BLACK
6
CONTINUOUS
10
102.484
20
-108.552
11
102.199
21
-108.695
0
LINE
8
BLACK
6
CONTINUOUS
10
102.199
20
-108.695
11
101.627
21
-108.695
0
LINE
8
BLACK
6
CONTINUOUS
10
101.627
20
-108.695
11
101.341
21
-108.552
0
LINE
8
BLACK
6
CONTINUOUS
10
104.056
20
-108.409
11
104.199
21
-108.552
0
LINE
8
BLACK
6
CONTINUOUS
10
104.199
20
-108.552
11
104.056
21
-108.695
0
LINE
8
BLACK
6
CONTINUOUS
10
104.056
20
-108.695
11
103.913
21
-108.552
0
LINE
8
BLACK
6
CONTINUOUS
10
103.913
20
-108.552
11
104.056
21
-108.409
0
LINE
8
BLACK
6
CONTINUOUS
10
104.056
20
-108.409
11
104.056
21
-108.695
0
LINE
8
BLACK
6
CONTINUOUS
10
104.056
20
-106.838
11
104.199
21
-106.981
0
LINE
8
BLACK
6
CONTINUOUS
10
104.199
20
-106.981
11
104.056
21
-107.124
0
LINE
8
BLACK
6
CONTINUOUS
10
104.056
20
-107.124
11
103.913
21
-106.981
0
LINE
8
BLACK
6
CONTINUOUS
10
103.913
20
-106.981
11
104.056
21
-106.838
0
LINE
8
BLACK
6
CONTINUOUS
10
104.056
20
-106.838
11
104.056
21
-107.124
0
LINE
8
BLACK
6
CONTINUOUS
10
76.32
20
-111.488
11
80.62
21
-115.788
0
LINE
8
BLACK
6
CONTINUOUS
10
80.62
20
-111.488
11
76.32
21
-115.788
0
LINE
8
BLACK
6
CONTINUOUS
10
84.77
20
-112.995
11
84.77
21
-114.995
0
LINE
8
BLACK
6
CONTINUOUS
10
84.0557
20
-111.852
11
83.3414
21
-113.995
0
LINE
8
BLACK
6
CONTINUOUS
10
83.3414
20
-113.995
11
85.1986
21
-113.995
0
LINE
8
BLACK
6
CONTINUOUS
10
86.3414
20
-114.709
11
86.4843
21
-114.852
0
LINE
8
BLACK
6
CONTINUOUS
10
86.4843
20
-114.852
11
86.3414
21
-114.995
0
LINE
8
BLACK
6
CONTINUOUS
10
86.3414
20
-114.995
11
86.1986
21
-114.852
0
LINE
8
BLACK
6
CONTINUOUS
10
86.1986
20
-114.852
11
86.3414
21
-114.709
0
LINE
8
BLACK
6
CONTINUOUS
10
86.3414
20
-114.709
11
86.3414
21
-114.995
0
LINE
8
BLACK
6
CONTINUOUS
10
87.4843
20
-111.995
11
89.3414
21
-111.995
0
LINE
8
BLACK
6
CONTINUOUS
10
89.3414
20
-111.995
11
88.3414
21
-113.138
0
LINE
8
BLACK
6
CONTINUOUS
10
88.3414
20
-113.138
11
88.77
21
-113.138
0
LINE
8
BLACK
6
CONTINUOUS
10
88.77
20
-113.138
11
89.0557
21
-113.281
0
LINE
8
BLACK
6
CONTINUOUS
10
89.0557
20
-113.281
11
89.1986
21
-113.424
0
LINE
8
BLACK
6
CONTINUOUS
10
89.1986
20
-113.424
11
89.3414
21
-113.709
0
LINE
8
BLACK
6
CONTINUOUS
10
89.3414
20
-113.709
11
89.3414
21
-114.424
0
LINE
8
BLACK
6
CONTINUOUS
10
89.3414
20
-114.424
11
89.1986
21
-114.709
0
LINE
8
BLACK
6
CONTINUOUS
10
89.1986
20
-114.709
11
89.0557
21
-114.852
0
LINE
8
BLACK
6
CONTINUOUS
10
89.0557
20
-114.852
11
88.77
21
-114.995
0
LINE
8
BLACK
6
CONTINUOUS
10
88.77
20
-114.995
11
87.9129
21
-114.995
0
LINE
8
BLACK
6
CONTINUOUS
10
87.9129
20
-114.995
11
87.6271
21
-114.852
0
LINE
8
BLACK
6
CONTINUOUS
10
87.6271
20
-114.852
11
87.4843
21
-114.709
0
LINE
8
BLACK
6
CONTINUOUS
10
91.1986
20
-111.995
11
91.4843
21
-111.995
0
LINE
8
BLACK
6
CONTINUOUS
10
91.4843
20
-111.995
11
91.77
21
-112.138
0
LINE
8
BLACK
6
CONTINUOUS
10
91.77
20
-112.138
11
91.9129
21
-112.281
0
LINE
8
BLACK
6
CONTINUOUS
10
91.9129
20
-112.281
11
92.0557
21
-112.567
0
LINE
8
BLACK
6
CONTINUOUS
10
92.0557
20
-112.567
11
92.1986
21
-113.138
0
LINE
8
BLACK
6
CONTINUOUS
10
92.1986
20
-113.138
11
92.1986
21
-113.852
0
LINE
8
BLACK
6
CONTINUOUS
10
92.1986
20
-113.852
11
92.0557
21
-114.424
0
LINE
8
BLACK
6
CONTINUOUS
10
92.0557
20
-114.424
11
91.9129
21
-114.709
0
LINE
8
BLACK
6
CONTINUOUS
10
91.9129
20
-114.709
11
91.77
21
-114.852
0
LINE
8
BLACK
6
CONTINUOUS
10
91.77
20
-114.852
11
91.4843
21
-114.995
0
LINE
8
BLACK
6
CONTINUOUS
10
91.4843
20
-114.995
11
91.1986
21
-114.995
0
LINE
8
BLACK
6
CONTINUOUS
10
91.1986
20
-114.995
11
90.9129
21
-114.852
0
LINE
8
BLACK
6
CONTINUOUS
10
90.9129
20
-114.852
11
90.77
21
-114.709
0
LINE
8
BLACK
6
CONTINUOUS
10
90.77
20
-114.709
11
90.6271
21
-114.424
0
LINE
8
BLACK
6
CONTINUOUS
10
90.6271
20
-114.424
11
90.4843
21
-113.852
0
LINE
8
BLACK
6
CONTINUOUS
10
90.4843
20
-113.852
11
90.4843
21
-113.138
0
LINE
8
BLACK
6
CONTINUOUS
10
90.4843
20
-113.138
11
90.6271
21
-112.567
0
LINE
8
BLACK
6
CONTINUOUS
10
90.6271
20
-112.567
11
90.77
21
-112.281
0
LINE
8
BLACK
6
CONTINUOUS
10
90.77
20
-112.281
11
90.9129
21
-112.138
0
LINE
8
BLACK
6
CONTINUOUS
10
90.9129
20
-112.138
11
91.1986
21
-111.995
0
LINE
8
BLACK
6
CONTINUOUS
10
93.4843
20
-114.995
11
93.4843
21
-112.995
0
LINE
8
BLACK
6
CONTINUOUS
10
93.4843
20
-113.281
11
93.6271
21
-113.138
0
LINE
8
BLACK
6
CONTINUOUS
10
93.6271
20
-113.138
11
93.9129
21
-112.995
0
LINE
8
BLACK
6
CONTINUOUS
10
93.9129
20
-112.995
11
94.3414
21
-112.995
0
LINE
8
BLACK
6
CONTINUOUS
10
94.3414
20
-112.995
11
94.6271
21
-113.138
0
LINE
8
BLACK
6
CONTINUOUS
10
94.6271
20
-113.138
11
94.77
21
-113.424
0
LINE
8
BLACK
6
CONTINUOUS
10
94.77
20
-113.424
11
94.77
21
-114.995
0
LINE
8
BLACK
6
CONTINUOUS
10
94.77
20
-113.424
11
94.9129
21
-113.138
0
LINE
8
BLACK
6
CONTINUOUS
10
94.9129
20
-113.138
11
95.1986
21
-112.995
0
LINE
8
BLACK
6
CONTINUOUS
10
95.1986
20
-112.995
11
95.6271
21
-112.995
0
LINE
8
BLACK
6
CONTINUOUS
10
95.6271
20
-112.995
11
95.9129
21
-113.138
0
LINE
8
BLACK
6
CONTINUOUS
10
95.9129
20
-113.138
11
96.0557
21
-113.424
0
LINE
8
BLACK
6
CONTINUOUS
10
96.0557
20
-113.424
11
96.0557
21
-114.995
0
LINE
8
BLACK
6
CONTINUOUS
10
97.4843
20
-114.995
11
97.4843
21
-112.995
0
LINE
8
BLACK
6
CONTINUOUS
10
97.4843
20
-113.281
11
97.6271
21
-113.138
0
LINE
8
BLACK
6
CONTINUOUS
10
97.6271
20
-113.138
11
97.9129
21
-112.995
0
LINE
8
BLACK
6
CONTINUOUS
10
97.9129
20
-112.995
11
98.3414
21
-112.995
0
LINE
8
BLACK
6
CONTINUOUS
10
98.3414
20
-112.995
11
98.6271
21
-113.138
0
LINE
8
BLACK
6
CONTINUOUS
10
98.6271
20
-113.138
11
98.77
21
-113.424
0
LINE
8
BLACK
6
CONTINUOUS
10
98.77
20
-113.424
11
98.77
21
-114.995
0
LINE
8
BLACK
6
CONTINUOUS
10
98.77
20
-113.424
11
98.9129
21
-113.138
0
LINE
8
BLACK
6
CONTINUOUS
10
98.9129
20
-113.138
11
99.1986
21
-112.995
0
LINE
8
BLACK
6
CONTINUOUS
10
99.1986
20
-112.995
11
99.6271
21
-112.995
0
LINE
8
BLACK
6
CONTINUOUS
10
99.6271
20
-112.995
11
99.9129
21
-113.138
0
LINE
8
BLACK
6
CONTINUOUS
10
99.9129
20
-113.138
11
100.056
21
-113.424
0
LINE
8
BLACK
6
CONTINUOUS
10
100.056
20
-113.424
11
100.056
21
-114.995
0
LINE
8
BLACK
6
CONTINUOUS
10
105.913
20
-111.852
11
103.341
21
-115.709
0
LINE
8
BLACK
6
CONTINUOUS
10
109.77
20
-111.995
11
110.056
21
-111.995
0
LINE
8
BLACK
6
CONTINUOUS
10
110.056
20
-111.995
11
110.341
21
-112.138
0
LINE
8
BLACK
6
CONTINUOUS
10
110.341
20
-112.138
11
110.484
21
-112.281
0
LINE
8
BLACK
6
CONTINUOUS
10
110.484
20
-112.281
11
110.627
21
-112.567
0
LINE
8
BLACK
6
CONTINUOUS
10
110.627
20
-112.567
11
110.77
21
-113.138
0
LINE
8
BLACK
6
CONTINUOUS
10
110.77
20
-113.138
11
110.77
21
-113.852
0
LINE
8
BLACK
6
CONTINUOUS
10
110.77
20
-113.852
11
110.627
21
-114.424
0
LINE
8
BLACK
6
CONTINUOUS
10
110.627
20
-114.424
11
110.484
21
-114.709
0
LINE
8
BLACK
6
CONTINUOUS
10
110.484
20
-114.709
11
110.341
21
-114.852
0
LINE
8
BLACK
6
CONTINUOUS
10
110.341
20
-114.852
11
110.056
21
-114.995
0
LINE
8
BLACK
6
CONTINUOUS
10
110.056
20
-114.995
11
109.77
21
-114.995
0
LINE
8
BLACK
6
CONTINUOUS
10
109.77
20
-114.995
11
109.484
21
-114.852
0
LINE
8
BLACK
6
CONTINUOUS
10
109.484
20
-114.852
11
109.341
21
-114.709
0
LINE
8
BLACK
6
CONTINUOUS
10
109.341
20
-114.709
11
109.199
21
-114.424
0
LINE
8
BLACK
6
CONTINUOUS
10
109.199
20
-114.424
11
109.056
21
-113.852
0
LINE
8
BLACK
6
CONTINUOUS
10
109.056
20
-113.852
11
109.056
21
-113.138
0
LINE
8
BLACK
6
CONTINUOUS
10
109.056
20
-113.138
11
109.199
21
-112.567
0
LINE
8
BLACK
6
CONTINUOUS
10
109.199
20
-112.567
11
109.341
21
-112.281
0
LINE
8
BLACK
6
CONTINUOUS
10
109.341
20
-112.281
11
109.484
21
-112.138
0
LINE
8
BLACK
6
CONTINUOUS
10
109.484
20
-112.138
11
109.77
21
-111.995
0
LINE
8
BLACK
6
CONTINUOUS
10
112.056
20
-114.709
11
112.199
21
-114.852
0
LINE
8
BLACK
6
CONTINUOUS
10
112.199
20
-114.852
11
112.056
21
-114.995
0
LINE
8
BLACK
6
CONTINUOUS
10
112.056
20
-114.995
11
111.913
21
-114.852
0
LINE
8
BLACK
6
CONTINUOUS
10
111.913
20
-114.852
11
112.056
21
-114.709
0
LINE
8
BLACK
6
CONTINUOUS
10
112.056
20
-114.709
11
112.056
21
-114.995
0
LINE
8
BLACK
6
CONTINUOUS
10
115.056
20
-114.995
11
113.341
21
-114.995
0
LINE
8
BLACK
6
CONTINUOUS
10
114.199
20
-114.995
11
114.199
21
-111.995
0
LINE
8
BLACK
6
CONTINUOUS
10
114.199
20
-111.995
11
113.913
21
-112.424
0
LINE
8
BLACK
6
CONTINUOUS
10
113.913
20
-112.424
11
113.627
21
-112.709
0
LINE
8
BLACK
6
CONTINUOUS
10
113.627
20
-112.709
11
113.341
21
-112.852
0
LINE
8
BLACK
6
CONTINUOUS
10
117.627
20
-111.995
11
117.056
21
-111.995
0
LINE
8
BLACK
6
CONTINUOUS
10
117.056
20
-111.995
11
116.77
21
-112.138
0
LINE
8
BLACK
6
CONTINUOUS
10
116.77
20
-112.138
11
116.627
21
-112.281
0
LINE
8
BLACK
6
CONTINUOUS
10
116.627
20
-112.281
11
116.341
21
-112.709
0
LINE
8
BLACK
6
CONTINUOUS
10
116.341
20
-112.709
11
116.199
21
-113.281
0
LINE
8
BLACK
6
CONTINUOUS
10
116.199
20
-113.281
11
116.199
21
-114.424
0
LINE
8
BLACK
6
CONTINUOUS
10
116.199
20
-114.424
11
116.341
21
-114.709
0
LINE
8
BLACK
6
CONTINUOUS
10
116.341
20
-114.709
11
116.484
21
-114.852
0
LINE
8
BLACK
6
CONTINUOUS
10
116.484
20
-114.852
11
116.77
21
-114.995
0
LINE
8
BLACK
6
CONTINUOUS
10
116.77
20
-114.995
11
117.341
21
-114.995
0
LINE
8
BLACK
6
CONTINUOUS
10
117.341
20
-114.995
11
117.627
21
-114.852
0
LINE
8
BLACK
6
CONTINUOUS
10
117.627
20
-114.852
11
117.77
21
-114.709
0
LINE
8
BLACK
6
CONTINUOUS
10
117.77
20
-114.709
11
117.913
21
-114.424
0
LINE
8
BLACK
6
CONTINUOUS
10
117.913
20
-114.424
11
117.913
21
-113.709
0
LINE
8
BLACK
6
CONTINUOUS
10
117.913
20
-113.709
11
117.77
21
-113.424
0
LINE
8
BLACK
6
CONTINUOUS
10
117.77
20
-113.424
11
117.627
21
-113.281
0
LINE
8
BLACK
6
CONTINUOUS
10
117.627
20
-113.281
11
117.341
21
-113.138
0
LINE
8
BLACK
6
CONTINUOUS
10
117.341
20
-113.138
11
116.77
21
-113.138
0
LINE
8
BLACK
6
CONTINUOUS
10
116.77
20
-113.138
11
116.484
21
-113.281
0
LINE
8
BLACK
6
CONTINUOUS
10
116.484
20
-113.281
11
116.341
21
-113.424
0
LINE
8
BLACK
6
CONTINUOUS
10
116.341
20
-113.424
11
116.199
21
-113.709
0
LINE
8
BLACK
6
CONTINUOUS
10
119.341
20
-114.995
11
119.913
21
-114.995
0
LINE
8
BLACK
6
CONTINUOUS
10
119.913
20
-114.995
11
120.199
21
-114.852
0
LINE
8
BLACK
6
CONTINUOUS
10
120.199
20
-114.852
11
120.341
21
-114.709
0
LINE
8
BLACK
6
CONTINUOUS
10
120.341
20
-114.709
11
120.627
21
-114.281
0
LINE
8
BLACK
6
CONTINUOUS
10
120.627
20
-114.281
11
120.77
21
-113.709
0
LINE
8
BLACK
6
CONTINUOUS
10
120.77
20
-113.709
11
120.77
21
-112.567
0
LINE
8
BLACK
6
CONTINUOUS
10
120.77
20
-112.567
11
120.627
21
-112.281
0
LINE
8
BLACK
6
CONTINUOUS
10
120.627
20
-112.281
11
120.484
21
-112.138
0
LINE
8
BLACK
6
CONTINUOUS
10
120.484
20
-112.138
11
120.199
21
-111.995
0
LINE
8
BLACK
6
CONTINUOUS
10
120.199
20
-111.995
11
119.627
21
-111.995
0
LINE
8
BLACK
6
CONTINUOUS
10
119.627
20
-111.995
11
119.341
21
-112.138
0
LINE
8
BLACK
6
CONTINUOUS
10
119.341
20
-112.138
11
119.199
21
-112.281
0
LINE
8
BLACK
6
CONTINUOUS
10
119.199
20
-112.281
11
119.056
21
-112.567
0
LINE
8
BLACK
6
CONTINUOUS
10
119.056
20
-112.567
11
119.056
21
-113.281
0
LINE
8
BLACK
6
CONTINUOUS
10
119.056
20
-113.281
11
119.199
21
-113.567
0
LINE
8
BLACK
6
CONTINUOUS
10
119.199
20
-113.567
11
119.341
21
-113.709
0
LINE
8
BLACK
6
CONTINUOUS
10
119.341
20
-113.709
11
119.627
21
-113.852
0
LINE
8
BLACK
6
CONTINUOUS
10
119.627
20
-113.852
11
120.199
21
-113.852
0
LINE
8
BLACK
6
CONTINUOUS
10
120.199
20
-113.852
11
120.484
21
-113.709
0
LINE
8
BLACK
6
CONTINUOUS
10
120.484
20
-113.709
11
120.627
21
-113.567
0
LINE
8
BLACK
6
CONTINUOUS
10
120.627
20
-113.567
11
120.77
21
-113.281
0
LINE
8
BLACK
6
CONTINUOUS
10
121.913
20
-111.995
11
121.913
21
-112.567
0
LINE
8
BLACK
6
CONTINUOUS
10
123.056
20
-111.995
11
123.056
21
-112.567
0
LINE
8
BLACK
6
CONTINUOUS
10
127.484
20
-116.138
11
127.341
21
-115.995
0
LINE
8
BLACK
6
CONTINUOUS
10
127.341
20
-115.995
11
127.056
21
-115.567
0
LINE
8
BLACK
6
CONTINUOUS
10
127.056
20
-115.567
11
126.913
21
-115.281
0
LINE
8
BLACK
6
CONTINUOUS
10
126.913
20
-115.281
11
126.77
21
-114.852
0
LINE
8
BLACK
6
CONTINUOUS
10
126.77
20
-114.852
11
126.627
21
-114.138
0
LINE
8
BLACK
6
CONTINUOUS
10
126.627
20
-114.138
11
126.627
21
-113.567
0
LINE
8
BLACK
6
CONTINUOUS
10
126.627
20
-113.567
11
126.77
21
-112.852
0
LINE
8
BLACK
6
CONTINUOUS
10
126.77
20
-112.852
11
126.913
21
-112.424
0
LINE
8
BLACK
6
CONTINUOUS
10
126.913
20
-112.424
11
127.056
21
-112.138
0
LINE
8
BLACK
6
CONTINUOUS
10
127.056
20
-112.138
11
127.341
21
-111.709
0
LINE
8
BLACK
6
CONTINUOUS
10
127.341
20
-111.709
11
127.484
21
-111.567
0
LINE
8
BLACK
6
CONTINUOUS
10
129.913
20
-112.995
11
129.913
21
-114.995
0
LINE
8
BLACK
6
CONTINUOUS
10
129.199
20
-111.852
11
128.484
21
-113.995
0
LINE
8
BLACK
6
CONTINUOUS
10
128.484
20
-113.995
11
130.341
21
-113.995
0
LINE
8
BLACK
6
CONTINUOUS
10
133.77
20
-114.995
11
133.77
21
-111.995
0
LINE
8
BLACK
6
CONTINUOUS
10
135.056
20
-114.995
11
135.056
21
-113.424
0
LINE
8
BLACK
6
CONTINUOUS
10
135.056
20
-113.424
11
134.913
21
-113.138
0
LINE
8
BLACK
6
CONTINUOUS
10
134.913
20
-113.138
11
134.627
21
-112.995
0
LINE
8
BLACK
6
CONTINUOUS
10
134.627
20
-112.995
11
134.199
21
-112.995
0
LINE
8
BLACK
6
CONTINUOUS
10
134.199
20
-112.995
11
133.913
21
-113.138
0
LINE
8
BLACK
6
CONTINUOUS
10
133.913
20
-113.138
11
133.77
21
-113.281
0
LINE
8
BLACK
6
CONTINUOUS
10
136.913
20
-114.995
11
136.627
21
-114.852
0
LINE
8
BLACK
6
CONTINUOUS
10
136.627
20
-114.852
11
136.484
21
-114.709
0
LINE
8
BLACK
6
CONTINUOUS
10
136.484
20
-114.709
11
136.341
21
-114.424
0
LINE
8
BLACK
6
CONTINUOUS
10
136.341
20
-114.424
11
136.341
21
-113.567
0
LINE
8
BLACK
6
CONTINUOUS
10
136.341
20
-113.567
11
136.484
21
-113.281
0
LINE
8
BLACK
6
CONTINUOUS
10
136.484
20
-113.281
11
136.627
21
-113.138
0
LINE
8
BLACK
6
CONTINUOUS
10
136.627
20
-113.138
11
136.913
21
-112.995
0
LINE
8
BLACK
6
CONTINUOUS
10
136.913
20
-112.995
11
137.341
21
-112.995
0
LINE
8
BLACK
6
CONTINUOUS
10
137.341
20
-112.995
11
137.627
21
-113.138
0
LINE
8
BLACK
6
CONTINUOUS
10
137.627
20
-113.138
11
137.77
21
-113.281
0
LINE
8
BLACK
6
CONTINUOUS
10
137.77
20
-113.281
11
137.913
21
-113.567
0
LINE
8
BLACK
6
CONTINUOUS
10
137.913
20
-113.567
11
137.913
21
-114.424
0
LINE
8
BLACK
6
CONTINUOUS
10
137.913
20
-114.424
11
137.77
21
-114.709
0
LINE
8
BLACK
6
CONTINUOUS
10
137.77
20
-114.709
11
137.627
21
-114.852
0
LINE
8
BLACK
6
CONTINUOUS
10
137.627
20
-114.852
11
137.341
21
-114.995
0
LINE
8
BLACK
6
CONTINUOUS
10
137.341
20
-114.995
11
136.913
21
-114.995
0
LINE
8
BLACK
6
CONTINUOUS
10
139.627
20
-114.995
11
139.341
21
-114.852
0
LINE
8
BLACK
6
CONTINUOUS
10
139.341
20
-114.852
11
139.199
21
-114.567
0
LINE
8
BLACK
6
CONTINUOUS
10
139.199
20
-114.567
11
139.199
21
-111.995
0
LINE
8
BLACK
6
CONTINUOUS
10
141.913
20
-114.852
11
141.627
21
-114.995
0
LINE
8
BLACK
6
CONTINUOUS
10
141.627
20
-114.995
11
141.056
21
-114.995
0
LINE
8
BLACK
6
CONTINUOUS
10
141.056
20
-114.995
11
140.77
21
-114.852
0
LINE
8
BLACK
6
CONTINUOUS
10
140.77
20
-114.852
11
140.627
21
-114.567
0
LINE
8
BLACK
6
CONTINUOUS
10
140.627
20
-114.567
11
140.627
21
-113.424
0
LINE
8
BLACK
6
CONTINUOUS
10
140.627
20
-113.424
11
140.77
21
-113.138
0
LINE
8
BLACK
6
CONTINUOUS
10
140.77
20
-113.138
11
141.056
21
-112.995
0
LINE
8
BLACK
6
CONTINUOUS
10
141.056
20
-112.995
11
141.627
21
-112.995
0
LINE
8
BLACK
6
CONTINUOUS
10
141.627
20
-112.995
11
141.913
21
-113.138
0
LINE
8
BLACK
6
CONTINUOUS
10
141.913
20
-113.138
11
142.056
21
-113.424
0
LINE
8
BLACK
6
CONTINUOUS
10
142.056
20
-113.424
11
142.056
21
-113.709
0
LINE
8
BLACK
6
CONTINUOUS
10
142.056
20
-113.709
11
140.627
21
-113.995
0
LINE
8
BLACK
6
CONTINUOUS
10
143.199
20
-114.852
11
143.484
21
-114.995
0
LINE
8
BLACK
6
CONTINUOUS
10
143.484
20
-114.995
11
144.056
21
-114.995
0
LINE
8
BLACK
6
CONTINUOUS
10
144.056
20
-114.995
11
144.341
21
-114.852
0
LINE
8
BLACK
6
CONTINUOUS
10
144.341
20
-114.852
11
144.484
21
-114.567
0
LINE
8
BLACK
6
CONTINUOUS
10
144.484
20
-114.567
11
144.484
21
-114.424
0
LINE
8
BLACK
6
CONTINUOUS
10
144.484
20
-114.424
11
144.341
21
-114.138
0
LINE
8
BLACK
6
CONTINUOUS
10
144.341
20
-114.138
11
144.056
21
-113.995
0
LINE
8
BLACK
6
CONTINUOUS
10
144.056
20
-113.995
11
143.627
21
-113.995
0
LINE
8
BLACK
6
CONTINUOUS
10
143.627
20
-113.995
11
143.341
21
-113.852
0
LINE
8
BLACK
6
CONTINUOUS
10
143.341
20
-113.852
11
143.199
21
-113.567
0
LINE
8
BLACK
6
CONTINUOUS
10
143.199
20
-113.567
11
143.199
21
-113.424
0
LINE
8
BLACK
6
CONTINUOUS
10
143.199
20
-113.424
11
143.341
21
-113.138
0
LINE
8
BLACK
6
CONTINUOUS
10
143.341
20
-113.138
11
143.627
21
-112.995
0
LINE
8
BLACK
6
CONTINUOUS
10
143.627
20
-112.995
11
144.056
21
-112.995
0
LINE
8
BLACK
6
CONTINUOUS
10
144.056
20
-112.995
11
144.341
21
-113.138
0
LINE
8
BLACK
6
CONTINUOUS
10
145.484
20
-116.138
11
145.627
21
-115.995
0
LINE
8
BLACK
6
CONTINUOUS
10
145.627
20
-115.995
11
145.913
21
-115.567
0
LINE
8
BLACK
6
CONTINUOUS
10
145.913
20
-115.567
11
146.056
21
-115.281
0
LINE
8
BLACK
6
CONTINUOUS
10
146.056
20
-115.281
11
146.199
21
-114.852
0
LINE
8
BLACK
6
CONTINUOUS
10
146.199
20
-114.852
11
146.341
21
-114.138
0
LINE
8
BLACK
6
CONTINUOUS
10
146.341
20
-114.138
11
146.341
21
-113.567
0
LINE
8
BLACK
6
CONTINUOUS
10
146.341
20
-113.567
11
146.199
21
-112.852
0
LINE
8
BLACK
6
CONTINUOUS
10
146.199
20
-112.852
11
146.056
21
-112.424
0
LINE
8
BLACK
6
CONTINUOUS
10
146.056
20
-112.424
11
145.913
21
-112.138
0
LINE
8
BLACK
6
CONTINUOUS
10
145.913
20
-112.138
11
145.627
21
-111.709
0
LINE
8
BLACK
6
CONTINUOUS
10
145.627
20
-111.709
11
145.484
21
-111.567
0
LINE
8
BLACK
6
CONTINUOUS
10
150.913
20
-116.138
11
150.77
21
-115.995
0
LINE
8
BLACK
6
CONTINUOUS
10
150.77
20
-115.995
11
150.484
21
-115.567
0
LINE
8
BLACK
6
CONTINUOUS
10
150.484
20
-115.567
11
150.341
21
-115.281
0
LINE
8
BLACK
6
CONTINUOUS
10
150.341
20
-115.281
11
150.199
21
-114.852
0
LINE
8
BLACK
6
CONTINUOUS
10
150.199
20
-114.852
11
150.056
21
-114.138
0
LINE
8
BLACK
6
CONTINUOUS
10
150.056
20
-114.138
11
150.056
21
-113.567
0
LINE
8
BLACK
6
CONTINUOUS
10
150.056
20
-113.567
11
150.199
21
-112.852
0
LINE
8
BLACK
6
CONTINUOUS
10
150.199
20
-112.852
11
150.341
21
-112.424
0
LINE
8
BLACK
6
CONTINUOUS
10
150.341
20
-112.424
11
150.484
21
-112.138
0
LINE
8
BLACK
6
CONTINUOUS
10
150.484
20
-112.138
11
150.77
21
-111.709
0
LINE
8
BLACK
6
CONTINUOUS
10
150.77
20
-111.709
11
150.913
21
-111.567
0
LINE
8
BLACK
6
CONTINUOUS
10
152.056
20
-112.995
11
152.056
21
-114.995
0
LINE
8
BLACK
6
CONTINUOUS
10
152.056
20
-113.281
11
152.199
21
-113.138
0
LINE
8
BLACK
6
CONTINUOUS
10
152.199
20
-113.138
11
152.484
21
-112.995
0
LINE
8
BLACK
6
CONTINUOUS
10
152.484
20
-112.995
11
152.913
21
-112.995
0
LINE
8
BLACK
6
CONTINUOUS
10
152.913
20
-112.995
11
153.199
21
-113.138
0
LINE
8
BLACK
6
CONTINUOUS
10
153.199
20
-113.138
11
153.341
21
-113.424
0
LINE
8
BLACK
6
CONTINUOUS
10
153.341
20
-113.424
11
153.341
21
-114.995
0
LINE
8
BLACK
6
CONTINUOUS
10
155.199
20
-114.995
11
154.913
21
-114.852
0
LINE
8
BLACK
6
CONTINUOUS
10
154.913
20
-114.852
11
154.77
21
-114.709
0
LINE
8
BLACK
6
CONTINUOUS
10
154.77
20
-114.709
11
154.627
21
-114.424
0
LINE
8
BLACK
6
CONTINUOUS
10
154.627
20
-114.424
11
154.627
21
-113.567
0
LINE
8
BLACK
6
CONTINUOUS
10
154.627
20
-113.567
11
154.77
21
-113.281
0
LINE
8
BLACK
6
CONTINUOUS
10
154.77
20
-113.281
11
154.913
21
-113.138
0
LINE
8
BLACK
6
CONTINUOUS
10
154.913
20
-113.138
11
155.199
21
-112.995
0
LINE
8
BLACK
6
CONTINUOUS
10
155.199
20
-112.995
11
155.627
21
-112.995
0
LINE
8
BLACK
6
CONTINUOUS
10
155.627
20
-112.995
11
155.913
21
-113.138
0
LINE
8
BLACK
6
CONTINUOUS
10
155.913
20
-113.138
11
156.056
21
-113.281
0
LINE
8
BLACK
6
CONTINUOUS
10
156.056
20
-113.281
11
156.199
21
-113.567
0
LINE
8
BLACK
6
CONTINUOUS
10
156.199
20
-113.567
11
156.199
21
-114.424
0
LINE
8
BLACK
6
CONTINUOUS
10
156.199
20
-114.424
11
156.056
21
-114.709
0
LINE
8
BLACK
6
CONTINUOUS
10
156.056
20
-114.709
11
155.913
21
-114.852
0
LINE
8
BLACK
6
CONTINUOUS
10
155.913
20
-114.852
11
155.627
21
-114.995
0
LINE
8
BLACK
6
CONTINUOUS
10
155.627
20
-114.995
11
155.199
21
-114.995
0
LINE
8
BLACK
6
CONTINUOUS
10
157.056
20
-112.995
11
158.199
21
-112.995
0
LINE
8
BLACK
6
CONTINUOUS
10
157.484
20
-111.995
11
157.484
21
-114.567
0
LINE
8
BLACK
6
CONTINUOUS
10
157.484
20
-114.567
11
157.627
21
-114.852
0
LINE
8
BLACK
6
CONTINUOUS
10
157.627
20
-114.852
11
157.913
21
-114.995
0
LINE
8
BLACK
6
CONTINUOUS
10
157.913
20
-114.995
11
158.199
21
-114.995
0
LINE
8
BLACK
6
CONTINUOUS
10
161.484
20
-112.995
11
161.484
21
-115.995
0
LINE
8
BLACK
6
CONTINUOUS
10
161.484
20
-113.138
11
161.77
21
-112.995
0
LINE
8
BLACK
6
CONTINUOUS
10
161.77
20
-112.995
11
162.341
21
-112.995
0
LINE
8
BLACK
6
CONTINUOUS
10
162.341
20
-112.995
11
162.627
21
-113.138
0
LINE
8
BLACK
6
CONTINUOUS
10
162.627
20
-113.138
11
162.77
21
-113.281
0
LINE
8
BLACK
6
CONTINUOUS
10
162.77
20
-113.281
11
162.913
21
-113.567
0
LINE
8
BLACK
6
CONTINUOUS
10
162.913
20
-113.567
11
162.913
21
-114.424
0
LINE
8
BLACK
6
CONTINUOUS
10
162.913
20
-114.424
11
162.77
21
-114.709
0
LINE
8
BLACK
6
CONTINUOUS
10
162.77
20
-114.709
11
162.627
21
-114.852
0
LINE
8
BLACK
6
CONTINUOUS
10
162.627
20
-114.852
11
162.341
21
-114.995
0
LINE
8
BLACK
6
CONTINUOUS
10
162.341
20
-114.995
11
161.77
21
-114.995
0
LINE
8
BLACK
6
CONTINUOUS
10
161.77
20
-114.995
11
161.484
21
-114.852
0
LINE
8
BLACK
6
CONTINUOUS
10
164.627
20
-114.995
11
164.341
21
-114.852
0
LINE
8
BLACK
6
CONTINUOUS
10
164.341
20
-114.852
11
164.199
21
-114.567
0
LINE
8
BLACK
6
CONTINUOUS
10
164.199
20
-114.567
11
164.199
21
-111.995
0
LINE
8
BLACK
6
CONTINUOUS
10
167.056
20
-114.995
11
167.056
21
-113.424
0
LINE
8
BLACK
6
CONTINUOUS
10
167.056
20
-113.424
11
166.913
21
-113.138
0
LINE
8
BLACK
6
CONTINUOUS
10
166.913
20
-113.138
11
166.627
21
-112.995
0
LINE
8
BLACK
6
CONTINUOUS
10
166.627
20
-112.995
11
166.056
21
-112.995
0
LINE
8
BLACK
6
CONTINUOUS
10
166.056
20
-112.995
11
165.77
21
-113.138
0
LINE
8
BLACK
6
CONTINUOUS
10
167.056
20
-114.852
11
166.77
21
-114.995
0
LINE
8
BLACK
6
CONTINUOUS
10
166.77
20
-114.995
11
166.056
21
-114.995
0
LINE
8
BLACK
6
CONTINUOUS
10
166.056
20
-114.995
11
165.77
21
-114.852
0
LINE
8
BLACK
6
CONTINUOUS
10
165.77
20
-114.852
11
165.627
21
-114.567
0
LINE
8
BLACK
6
CONTINUOUS
10
165.627
20
-114.567
11
165.627
21
-114.281
0
LINE
8
BLACK
6
CONTINUOUS
10
165.627
20
-114.281
11
165.77
21
-113.995
0
LINE
8
BLACK
6
CONTINUOUS
10
165.77
20
-113.995
11
166.056
21
-113.852
0
LINE
8
BLACK
6
CONTINUOUS
10
166.056
20
-113.852
11
166.77
21
-113.852
0
LINE
8
BLACK
6
CONTINUOUS
10
166.77
20
-113.852
11
167.056
21
-113.709
0
LINE
8
BLACK
6
CONTINUOUS
10
168.056
20
-112.995
11
169.199
21
-112.995
0
LINE
8
BLACK
6
CONTINUOUS
10
168.484
20
-111.995
11
168.484
21
-114.567
0
LINE
8
BLACK
6
CONTINUOUS
10
168.484
20
-114.567
11
168.627
21
-114.852
0
LINE
8
BLACK
6
CONTINUOUS
10
168.627
20
-114.852
11
168.913
21
-114.995
0
LINE
8
BLACK
6
CONTINUOUS
10
168.913
20
-114.995
11
169.199
21
-114.995
0
LINE
8
BLACK
6
CONTINUOUS
10
171.341
20
-114.852
11
171.056
21
-114.995
0
LINE
8
BLACK
6
CONTINUOUS
10
171.056
20
-114.995
11
170.484
21
-114.995
0
LINE
8
BLACK
6
CONTINUOUS
10
170.484
20
-114.995
11
170.199
21
-114.852
0
LINE
8
BLACK
6
CONTINUOUS
10
170.199
20
-114.852
11
170.056
21
-114.567
0
LINE
8
BLACK
6
CONTINUOUS
10
170.056
20
-114.567
11
170.056
21
-113.424
0
LINE
8
BLACK
6
CONTINUOUS
10
170.056
20
-113.424
11
170.199
21
-113.138
0
LINE
8
BLACK
6
CONTINUOUS
10
170.199
20
-113.138
11
170.484
21
-112.995
0
LINE
8
BLACK
6
CONTINUOUS
10
170.484
20
-112.995
11
171.056
21
-112.995
0
LINE
8
BLACK
6
CONTINUOUS
10
171.056
20
-112.995
11
171.341
21
-113.138
0
LINE
8
BLACK
6
CONTINUOUS
10
171.341
20
-113.138
11
171.484
21
-113.424
0
LINE
8
BLACK
6
CONTINUOUS
10
171.484
20
-113.424
11
171.484
21
-113.709
0
LINE
8
BLACK
6
CONTINUOUS
10
171.484
20
-113.709
11
170.056
21
-113.995
0
LINE
8
BLACK
6
CONTINUOUS
10
174.056
20
-114.995
11
174.056
21
-111.995
0
LINE
8
BLACK
6
CONTINUOUS
10
174.056
20
-114.852
11
173.77
21
-114.995
0
LINE
8
BLACK
6
CONTINUOUS
10
173.77
20
-114.995
11
173.199
21
-114.995
0
LINE
8
BLACK
6
CONTINUOUS
10
173.199
20
-114.995
11
172.913
21
-114.852
0
LINE
8
BLACK
6
CONTINUOUS
10
172.913
20
-114.852
11
172.77
21
-114.709
0
LINE
8
BLACK
6
CONTINUOUS
10
172.77
20
-114.709
11
172.627
21
-114.424
0
LINE
8
BLACK
6
CONTINUOUS
10
172.627
20
-114.424
11
172.627
21
-113.567
0
LINE
8
BLACK
6
CONTINUOUS
10
172.627
20
-113.567
11
172.77
21
-113.281
0
LINE
8
BLACK
6
CONTINUOUS
10
172.77
20
-113.281
11
172.913
21
-113.138
0
LINE
8
BLACK
6
CONTINUOUS
10
172.913
20
-113.138
11
173.199
21
-112.995
0
LINE
8
BLACK
6
CONTINUOUS
10
173.199
20
-112.995
11
173.77
21
-112.995
0
LINE
8
BLACK
6
CONTINUOUS
10
173.77
20
-112.995
11
174.056
21
-113.138
0
LINE
8
BLACK
6
CONTINUOUS
10
175.199
20
-116.138
11
175.341
21
-115.995
0
LINE
8
BLACK
6
CONTINUOUS
10
175.341
20
-115.995
11
175.627
21
-115.567
0
LINE
8
BLACK
6
CONTINUOUS
10
175.627
20
-115.567
11
175.77
21
-115.281
0
LINE
8
BLACK
6
CONTINUOUS
10
175.77
20
-115.281
11
175.913
21
-114.852
0
LINE
8
BLACK
6
CONTINUOUS
10
175.913
20
-114.852
11
176.056
21
-114.138
0
LINE
8
BLACK
6
CONTINUOUS
10
176.056
20
-114.138
11
176.056
21
-113.567
0
LINE
8
BLACK
6
CONTINUOUS
10
176.056
20
-113.567
11
175.913
21
-112.852
0
LINE
8
BLACK
6
CONTINUOUS
10
175.913
20
-112.852
11
175.77
21
-112.424
0
LINE
8
BLACK
6
CONTINUOUS
10
175.77
20
-112.424
11
175.627
21
-112.138
0
LINE
8
BLACK
6
CONTINUOUS
10
175.627
20
-112.138
11
175.341
21
-111.709
0
LINE
8
BLACK
6
CONTINUOUS
10
175.341
20
-111.709
11
175.199
21
-111.567
  0
ENDSEC
  0
EOF
