  0
SECTION
  2
HEADER
  9
$ANGBASE
  50
0.0
  9
$ANGDIR
  70
1
  9
$MEASUREMENT
  70
1
  0
ENDSEC
  0
SECTION
  2
TABLES
  0
TABLE
  2
LTYPE
  70
4
  0
LTYPE
  5
40F
  2
CONTINUOUS
  70
0
  3
Solid line
  72
65
  73
0
  40
0.0
  0
LTYPE
  5
410
  2
DASHDOT
 70
0
  3
Dash Dot ____ _ ____ _
 72
65
 73
4
 40
2.0
 49
1.25
 49
-0.25
 49
0.25
 49
-0.25
  0
LTYPE
  5
411
  2
DASHED
 70
0
  3
Dashed __ __ __ __ __
 72
65
 73
2
 40
0.75
 49
0.5
 49
-0.25
  0
LTYPE
  5
43B
  2
DOTTED
 70
0
  3
Dotted .  .  .  .
 72
65
 73
2
 40
0.2
 49
0.0
 49
-0.2
  0
ENDTAB
  0
TABLE
  2
STYLE
  70
4
  0
STYLE
  2
KICAD
  70
0
  40
0
  41
1
  42
1
  50
0
  71
0
  3
isocp.shx
  0
STYLE
  2
KICADB
  70
0
  40
0
  41
1
  42
1
  50
0
  71
0
  3
isocp.shx
  0
STYLE
  2
KICADI
  70
0
  40
0
  41
1
  42
1
  50
15
  71
0
  3
isocp.shx
  0
STYLE
  2
KICADBI
  70
0
  40
0
  41
1
  42
1
  50
15
  71
0
  3
isocp.shx
  0
ENDTAB
  0
TABLE
  2
LAYER
  70
1
  0
LAYER
  2
BLACK
  70
0
  62
7
  6
CONTINUOUS
  0
ENDTAB
  0
ENDSEC
  0
SECTION
  2
ENTITIES
0
LINE
8
BLACK
6
CONTINUOUS
10
125.832
20
-126.594
11
125.882
21
-126.594
0
LINE
8
BLACK
6
CONTINUOUS
10
125.832
20
-57.658
11
108.915
21
-39.1668
0
LINE
8
BLACK
6
CONTINUOUS
10
63.9064
20
-110.541
11
80.1624
21
-126.797
0
CIRCLE
8
BLACK
10
79.1972
20
-99.441
40
6.35
0
ARC
8
BLACK
10
108.407
20
-98.806
40
15.24
50
-257.487
51
77.5133
0
LINE
8
BLACK
6
CONTINUOUS
10
125.882
20
-126.594
11
125.832
21
-57.658
0
CIRCLE
8
BLACK
10
119.52
20
-60.071
40
2.15265
0
CIRCLE
8
BLACK
10
122.568
20
-74.2891
40
2.15265
0
CIRCLE
8
BLACK
10
85.5472
20
-114.681
40
2.15265
0
CIRCLE
8
BLACK
10
121.107
20
-121.031
40
2.15265
0
CIRCLE
8
BLACK
10
71.5772
20
-62.2935
40
3.57124
0
ARC
8
BLACK
10
108.407
20
-76.581
40
3.302
50
-0
51
180
0
LINE
8
BLACK
6
CONTINUOUS
10
105.105
20
-76.581
11
105.105
21
-83.928
0
LINE
8
BLACK
6
CONTINUOUS
10
80.1624
20
-126.797
11
125.832
21
-126.594
0
CIRCLE
8
BLACK
10
70.6907
20
-74.2891
40
2.15265
0
LINE
8
BLACK
6
CONTINUOUS
10
63.9572
20
-56.4896
11
63.9064
21
-110.541
0
CIRCLE
8
BLACK
10
94.2467
20
-74.2891
40
2.15265
0
LINE
8
BLACK
6
CONTINUOUS
10
108.915
20
-39.1668
11
80.7212
21
-39.1668
0
CIRCLE
8
BLACK
10
79.1972
20
-108.433
40
1.651
0
LINE
8
BLACK
6
CONTINUOUS
10
111.702
20
-83.9265
11
111.709
21
-76.581
0
LINE
8
BLACK
6
CONTINUOUS
10
80.7212
20
-39.1668
11
63.9572
21
-56.4896
0
LINE
8
BLACK
6
CONTINUOUS
10
81.75
20
-69.78
11
82.45
21
-70.48
0
LINE
8
BLACK
6
CONTINUOUS
10
82.45
20
-69.78
11
81.75
21
-70.48
0
LINE
8
BLACK
6
CONTINUOUS
10
81.75
20
-72.32
11
82.45
21
-73.02
0
LINE
8
BLACK
6
CONTINUOUS
10
82.45
20
-72.32
11
81.75
21
-73.02
0
LINE
8
BLACK
6
CONTINUOUS
10
81.75
20
-74.33
11
82.45
21
-75.03
0
LINE
8
BLACK
6
CONTINUOUS
10
82.45
20
-74.33
11
81.75
21
-75.03
0
LINE
8
BLACK
6
CONTINUOUS
10
81.75
20
-76.87
11
82.45
21
-77.57
0
LINE
8
BLACK
6
CONTINUOUS
10
82.45
20
-76.87
11
81.75
21
-77.57
0
LINE
8
BLACK
6
CONTINUOUS
10
81.75
20
-78.88
11
82.45
21
-79.58
0
LINE
8
BLACK
6
CONTINUOUS
10
82.45
20
-78.88
11
81.75
21
-79.58
0
LINE
8
BLACK
6
CONTINUOUS
10
81.75
20
-81.42
11
82.45
21
-82.12
0
LINE
8
BLACK
6
CONTINUOUS
10
82.45
20
-81.42
11
81.75
21
-82.12
0
LINE
8
BLACK
6
CONTINUOUS
10
83.9
20
-69.77
11
84.6
21
-70.47
0
LINE
8
BLACK
6
CONTINUOUS
10
84.6
20
-69.77
11
83.9
21
-70.47
0
LINE
8
BLACK
6
CONTINUOUS
10
83.9
20
-72.31
11
84.6
21
-73.01
0
LINE
8
BLACK
6
CONTINUOUS
10
84.6
20
-72.31
11
83.9
21
-73.01
0
LINE
8
BLACK
6
CONTINUOUS
10
83.9
20
-74.33
11
84.6
21
-75.03
0
LINE
8
BLACK
6
CONTINUOUS
10
84.6
20
-74.33
11
83.9
21
-75.03
0
LINE
8
BLACK
6
CONTINUOUS
10
83.9
20
-76.87
11
84.6
21
-77.57
0
LINE
8
BLACK
6
CONTINUOUS
10
84.6
20
-76.87
11
83.9
21
-77.57
0
LINE
8
BLACK
6
CONTINUOUS
10
83.9
20
-78.88
11
84.6
21
-79.58
0
LINE
8
BLACK
6
CONTINUOUS
10
84.6
20
-78.88
11
83.9
21
-79.58
0
LINE
8
BLACK
6
CONTINUOUS
10
83.9
20
-81.42
11
84.6
21
-82.12
0
LINE
8
BLACK
6
CONTINUOUS
10
84.6
20
-81.42
11
83.9
21
-82.12
0
LINE
8
BLACK
6
CONTINUOUS
10
86.05
20
-69.77
11
86.75
21
-70.47
0
LINE
8
BLACK
6
CONTINUOUS
10
86.75
20
-69.77
11
86.05
21
-70.47
0
LINE
8
BLACK
6
CONTINUOUS
10
86.05
20
-72.31
11
86.75
21
-73.01
0
LINE
8
BLACK
6
CONTINUOUS
10
86.75
20
-72.31
11
86.05
21
-73.01
0
LINE
8
BLACK
6
CONTINUOUS
10
86.05
20
-74.33
11
86.75
21
-75.03
0
LINE
8
BLACK
6
CONTINUOUS
10
86.75
20
-74.33
11
86.05
21
-75.03
0
LINE
8
BLACK
6
CONTINUOUS
10
86.05
20
-76.87
11
86.75
21
-77.57
0
LINE
8
BLACK
6
CONTINUOUS
10
86.75
20
-76.87
11
86.05
21
-77.57
0
CIRCLE
8
BLACK
10
69.7082
20
-106.265
40
0.45
0
CIRCLE
8
BLACK
10
70.1984
20
-92.6516
40
0.45
0
CIRCLE
8
BLACK
10
71.5043
20
-108.061
40
0.45
0
CIRCLE
8
BLACK
10
71.9945
20
-90.8555
40
0.45
0
CIRCLE
8
BLACK
10
75.2222
20
-52.3768
40
0.45
0
CIRCLE
8
BLACK
10
77.3306
20
-80.166
40
0.45
0
CIRCLE
8
BLACK
10
77.4806
20
-87.6212
40
0.45
0
CIRCLE
8
BLACK
10
77.7622
20
-52.3768
40
0.45
0
CIRCLE
8
BLACK
10
79.8706
20
-80.166
40
0.45
0
CIRCLE
8
BLACK
10
80.0206
20
-87.6212
40
0.45
0
CIRCLE
8
BLACK
10
82.2834
20
-59.4888
40
0.45
0
CIRCLE
8
BLACK
10
82.385
20
-53.088
40
0.45
0
CIRCLE
8
BLACK
10
84.225
20
-42.85
40
0.45
0
CIRCLE
8
BLACK
10
84.8234
20
-59.4888
40
0.45
0
CIRCLE
8
BLACK
10
84.925
20
-53.088
40
0.45
0
CIRCLE
8
BLACK
10
86.4984
20
-90.4484
40
0.45
0
CIRCLE
8
BLACK
10
86.765
20
-42.85
40
0.45
0
CIRCLE
8
BLACK
10
87.0539
20
-106.946
40
0.45
0
CIRCLE
8
BLACK
10
88.2945
20
-92.2445
40
0.45
0
CIRCLE
8
BLACK
10
88.85
20
-105.15
40
0.45
0
CIRCLE
8
BLACK
10
91.225
20
-68.85
40
0.45
0
CIRCLE
8
BLACK
10
91.275
20
-53.85
40
0.45
0
CIRCLE
8
BLACK
10
91.275
20
-116.4
40
0.45
0
CIRCLE
8
BLACK
10
91.4158
20
-61.394
40
0.45
0
CIRCLE
8
BLACK
10
91.5806
20
-81.266
40
0.45
0
CIRCLE
8
BLACK
10
93.765
20
-68.85
40
0.45
0
CIRCLE
8
BLACK
10
93.815
20
-53.85
40
0.45
0
CIRCLE
8
BLACK
10
93.815
20
-116.4
40
0.45
0
CIRCLE
8
BLACK
10
93.9558
20
-61.394
40
0.45
0
CIRCLE
8
BLACK
10
94.1206
20
-81.266
40
0.45
0
CIRCLE
8
BLACK
10
94.975
20
-42.95
40
0.45
0
CIRCLE
8
BLACK
10
97.515
20
-42.95
40
0.45
0
CIRCLE
8
BLACK
10
100.267
20
-53.85
40
0.45
0
CIRCLE
8
BLACK
10
100.368
20
-61.47
40
0.45
0
CIRCLE
8
BLACK
10
100.368
20
-69.09
40
0.45
0
CIRCLE
8
BLACK
10
102.807
20
-53.85
40
0.45
0
CIRCLE
8
BLACK
10
102.908
20
-61.47
40
0.45
0
CIRCLE
8
BLACK
10
102.908
20
-69.09
40
0.45
0
CIRCLE
8
BLACK
10
102.975
20
-43
40
0.45
0
CIRCLE
8
BLACK
10
105.515
20
-43
40
0.45
0
CIRCLE
8
BLACK
10
108.739
20
-53.8248
40
0.45
0
CIRCLE
8
BLACK
10
108.852
20
-69.0392
40
0.45
0
CIRCLE
8
BLACK
10
108.891
20
-61.394
40
0.45
0
CIRCLE
8
BLACK
10
111.279
20
-53.8248
40
0.45
0
CIRCLE
8
BLACK
10
111.392
20
-69.0392
40
0.45
0
CIRCLE
8
BLACK
10
111.431
20
-61.394
40
0.45
0
LINE
8
BLACK
6
CONTINUOUS
10
78.41
20
-64.957
11
78.41
21
-66.147
0
LINE
8
BLACK
6
CONTINUOUS
10
77.815
20
-65.552
11
79.005
21
-65.552
0
LINE
8
BLACK
6
CONTINUOUS
10
80.95
20
-64.957
11
80.95
21
-66.147
0
LINE
8
BLACK
6
CONTINUOUS
10
80.355
20
-65.552
11
81.545
21
-65.552
0
LINE
8
BLACK
6
CONTINUOUS
10
85.09
20
-64.957
11
85.09
21
-66.147
0
LINE
8
BLACK
6
CONTINUOUS
10
84.495
20
-65.552
11
85.685
21
-65.552
0
LINE
8
BLACK
6
CONTINUOUS
10
87.63
20
-64.957
11
87.63
21
-66.147
0
LINE
8
BLACK
6
CONTINUOUS
10
87.035
20
-65.552
11
88.225
21
-65.552
0
LINE
8
BLACK
6
CONTINUOUS
10
66.4576
20
-129.927
11
66.4576
21
-127.927
0
LINE
8
BLACK
6
CONTINUOUS
10
66.4576
20
-127.927
11
66.9338
21
-127.927
0
LINE
8
BLACK
6
CONTINUOUS
10
66.9338
20
-127.927
11
67.2195
21
-128.022
0
LINE
8
BLACK
6
CONTINUOUS
10
67.2195
20
-128.022
11
67.41
21
-128.212
0
LINE
8
BLACK
6
CONTINUOUS
10
67.41
20
-128.212
11
67.5052
21
-128.403
0
LINE
8
BLACK
6
CONTINUOUS
10
67.5052
20
-128.403
11
67.6004
21
-128.784
0
LINE
8
BLACK
6
CONTINUOUS
10
67.6004
20
-128.784
11
67.6004
21
-129.069
0
LINE
8
BLACK
6
CONTINUOUS
10
67.6004
20
-129.069
11
67.5052
21
-129.45
0
LINE
8
BLACK
6
CONTINUOUS
10
67.5052
20
-129.45
11
67.41
21
-129.641
0
LINE
8
BLACK
6
CONTINUOUS
10
67.41
20
-129.641
11
67.2195
21
-129.831
0
LINE
8
BLACK
6
CONTINUOUS
10
67.2195
20
-129.831
11
66.9338
21
-129.927
0
LINE
8
BLACK
6
CONTINUOUS
10
66.9338
20
-129.927
11
66.4576
21
-129.927
0
LINE
8
BLACK
6
CONTINUOUS
10
68.4576
20
-129.927
11
68.4576
21
-128.593
0
LINE
8
BLACK
6
CONTINUOUS
10
68.4576
20
-128.974
11
68.5528
21
-128.784
0
LINE
8
BLACK
6
CONTINUOUS
10
68.5528
20
-128.784
11
68.6481
21
-128.688
0
LINE
8
BLACK
6
CONTINUOUS
10
68.6481
20
-128.688
11
68.8385
21
-128.593
0
LINE
8
BLACK
6
CONTINUOUS
10
68.8385
20
-128.593
11
69.029
21
-128.593
0
LINE
8
BLACK
6
CONTINUOUS
10
69.6957
20
-129.927
11
69.6957
21
-128.593
0
LINE
8
BLACK
6
CONTINUOUS
10
69.6957
20
-127.927
11
69.6004
21
-128.022
0
LINE
8
BLACK
6
CONTINUOUS
10
69.6004
20
-128.022
11
69.6957
21
-128.117
0
LINE
8
BLACK
6
CONTINUOUS
10
69.6957
20
-128.117
11
69.7909
21
-128.022
0
LINE
8
BLACK
6
CONTINUOUS
10
69.7909
20
-128.022
11
69.6957
21
-127.927
0
LINE
8
BLACK
6
CONTINUOUS
10
69.6957
20
-127.927
11
69.6957
21
-128.117
0
LINE
8
BLACK
6
CONTINUOUS
10
70.9338
20
-129.927
11
70.7433
21
-129.831
0
LINE
8
BLACK
6
CONTINUOUS
10
70.7433
20
-129.831
11
70.6481
21
-129.641
0
LINE
8
BLACK
6
CONTINUOUS
10
70.6481
20
-129.641
11
70.6481
21
-127.927
0
LINE
8
BLACK
6
CONTINUOUS
10
71.9814
20
-129.927
11
71.7909
21
-129.831
0
LINE
8
BLACK
6
CONTINUOUS
10
71.7909
20
-129.831
11
71.6957
21
-129.641
0
LINE
8
BLACK
6
CONTINUOUS
10
71.6957
20
-129.641
11
71.6957
21
-127.927
0
LINE
8
BLACK
6
CONTINUOUS
10
74.2671
20
-129.927
11
74.2671
21
-127.927
0
LINE
8
BLACK
6
CONTINUOUS
10
74.2671
20
-127.927
11
74.9338
21
-129.355
0
LINE
8
BLACK
6
CONTINUOUS
10
74.9338
20
-129.355
11
75.6004
21
-127.927
0
LINE
8
BLACK
6
CONTINUOUS
10
75.6004
20
-127.927
11
75.6004
21
-129.927
0
LINE
8
BLACK
6
CONTINUOUS
10
77.41
20
-129.927
11
77.41
21
-128.879
0
LINE
8
BLACK
6
CONTINUOUS
10
77.41
20
-128.879
11
77.3147
21
-128.688
0
LINE
8
BLACK
6
CONTINUOUS
10
77.3147
20
-128.688
11
77.1243
21
-128.593
0
LINE
8
BLACK
6
CONTINUOUS
10
77.1243
20
-128.593
11
76.7433
21
-128.593
0
LINE
8
BLACK
6
CONTINUOUS
10
76.7433
20
-128.593
11
76.5528
21
-128.688
0
LINE
8
BLACK
6
CONTINUOUS
10
77.41
20
-129.831
11
77.2195
21
-129.927
0
LINE
8
BLACK
6
CONTINUOUS
10
77.2195
20
-129.927
11
76.7433
21
-129.927
0
LINE
8
BLACK
6
CONTINUOUS
10
76.7433
20
-129.927
11
76.5528
21
-129.831
0
LINE
8
BLACK
6
CONTINUOUS
10
76.5528
20
-129.831
11
76.4576
21
-129.641
0
LINE
8
BLACK
6
CONTINUOUS
10
76.4576
20
-129.641
11
76.4576
21
-129.45
0
LINE
8
BLACK
6
CONTINUOUS
10
76.4576
20
-129.45
11
76.5528
21
-129.26
0
LINE
8
BLACK
6
CONTINUOUS
10
76.5528
20
-129.26
11
76.7433
21
-129.165
0
LINE
8
BLACK
6
CONTINUOUS
10
76.7433
20
-129.165
11
77.2195
21
-129.165
0
LINE
8
BLACK
6
CONTINUOUS
10
77.2195
20
-129.165
11
77.41
21
-129.069
0
LINE
8
BLACK
6
CONTINUOUS
10
78.3624
20
-128.593
11
78.3624
21
-130.593
0
LINE
8
BLACK
6
CONTINUOUS
10
78.3624
20
-128.688
11
78.5528
21
-128.593
0
LINE
8
BLACK
6
CONTINUOUS
10
78.5528
20
-128.593
11
78.9338
21
-128.593
0
LINE
8
BLACK
6
CONTINUOUS
10
78.9338
20
-128.593
11
79.1243
21
-128.688
0
LINE
8
BLACK
6
CONTINUOUS
10
79.1243
20
-128.688
11
79.2195
21
-128.784
0
LINE
8
BLACK
6
CONTINUOUS
10
79.2195
20
-128.784
11
79.3147
21
-128.974
0
LINE
8
BLACK
6
CONTINUOUS
10
79.3147
20
-128.974
11
79.3147
21
-129.546
0
LINE
8
BLACK
6
CONTINUOUS
10
79.3147
20
-129.546
11
79.2195
21
-129.736
0
LINE
8
BLACK
6
CONTINUOUS
10
79.2195
20
-129.736
11
79.1243
21
-129.831
0
LINE
8
BLACK
6
CONTINUOUS
10
79.1243
20
-129.831
11
78.9338
21
-129.927
0
LINE
8
BLACK
6
CONTINUOUS
10
78.9338
20
-129.927
11
78.5528
21
-129.927
0
LINE
8
BLACK
6
CONTINUOUS
10
78.5528
20
-129.927
11
78.3624
21
-129.831
0
LINE
8
BLACK
6
CONTINUOUS
10
80.1719
20
-129.736
11
80.2671
21
-129.831
0
LINE
8
BLACK
6
CONTINUOUS
10
80.2671
20
-129.831
11
80.1719
21
-129.927
0
LINE
8
BLACK
6
CONTINUOUS
10
80.1719
20
-129.927
11
80.0766
21
-129.831
0
LINE
8
BLACK
6
CONTINUOUS
10
80.0766
20
-129.831
11
80.1719
21
-129.736
0
LINE
8
BLACK
6
CONTINUOUS
10
80.1719
20
-129.736
11
80.1719
21
-129.927
0
LINE
8
BLACK
6
CONTINUOUS
10
80.1719
20
-128.688
11
80.2671
21
-128.784
0
LINE
8
BLACK
6
CONTINUOUS
10
80.2671
20
-128.784
11
80.1719
21
-128.879
0
LINE
8
BLACK
6
CONTINUOUS
10
80.1719
20
-128.879
11
80.0766
21
-128.784
0
LINE
8
BLACK
6
CONTINUOUS
10
80.0766
20
-128.784
11
80.1719
21
-128.688
0
LINE
8
BLACK
6
CONTINUOUS
10
80.1719
20
-128.688
11
80.1719
21
-128.879
0
LINE
8
BLACK
6
CONTINUOUS
10
63.1814
20
-132.872
11
63.8814
21
-133.572
0
LINE
8
BLACK
6
CONTINUOUS
10
63.8814
20
-132.872
11
63.1814
21
-133.572
0
LINE
8
BLACK
6
CONTINUOUS
10
66.8385
20
-132.127
11
67.029
21
-132.127
0
LINE
8
BLACK
6
CONTINUOUS
10
67.029
20
-132.127
11
67.2195
21
-132.222
0
LINE
8
BLACK
6
CONTINUOUS
10
67.2195
20
-132.222
11
67.3147
21
-132.317
0
LINE
8
BLACK
6
CONTINUOUS
10
67.3147
20
-132.317
11
67.41
21
-132.508
0
LINE
8
BLACK
6
CONTINUOUS
10
67.41
20
-132.508
11
67.5052
21
-132.888
0
LINE
8
BLACK
6
CONTINUOUS
10
67.5052
20
-132.888
11
67.5052
21
-133.365
0
LINE
8
BLACK
6
CONTINUOUS
10
67.5052
20
-133.365
11
67.41
21
-133.746
0
LINE
8
BLACK
6
CONTINUOUS
10
67.41
20
-133.746
11
67.3147
21
-133.936
0
LINE
8
BLACK
6
CONTINUOUS
10
67.3147
20
-133.936
11
67.2195
21
-134.031
0
LINE
8
BLACK
6
CONTINUOUS
10
67.2195
20
-134.031
11
67.029
21
-134.127
0
LINE
8
BLACK
6
CONTINUOUS
10
67.029
20
-134.127
11
66.8385
21
-134.127
0
LINE
8
BLACK
6
CONTINUOUS
10
66.8385
20
-134.127
11
66.6481
21
-134.031
0
LINE
8
BLACK
6
CONTINUOUS
10
66.6481
20
-134.031
11
66.5528
21
-133.936
0
LINE
8
BLACK
6
CONTINUOUS
10
66.5528
20
-133.936
11
66.4576
21
-133.746
0
LINE
8
BLACK
6
CONTINUOUS
10
66.4576
20
-133.746
11
66.3624
21
-133.365
0
LINE
8
BLACK
6
CONTINUOUS
10
66.3624
20
-133.365
11
66.3624
21
-132.888
0
LINE
8
BLACK
6
CONTINUOUS
10
66.3624
20
-132.888
11
66.4576
21
-132.508
0
LINE
8
BLACK
6
CONTINUOUS
10
66.4576
20
-132.508
11
66.5528
21
-132.317
0
LINE
8
BLACK
6
CONTINUOUS
10
66.5528
20
-132.317
11
66.6481
21
-132.222
0
LINE
8
BLACK
6
CONTINUOUS
10
66.6481
20
-132.222
11
66.8385
21
-132.127
0
LINE
8
BLACK
6
CONTINUOUS
10
68.3624
20
-133.936
11
68.4576
21
-134.031
0
LINE
8
BLACK
6
CONTINUOUS
10
68.4576
20
-134.031
11
68.3624
21
-134.127
0
LINE
8
BLACK
6
CONTINUOUS
10
68.3624
20
-134.127
11
68.2671
21
-134.031
0
LINE
8
BLACK
6
CONTINUOUS
10
68.2671
20
-134.031
11
68.3624
21
-133.936
0
LINE
8
BLACK
6
CONTINUOUS
10
68.3624
20
-133.936
11
68.3624
21
-134.127
0
LINE
8
BLACK
6
CONTINUOUS
10
69.1243
20
-132.127
11
70.4576
21
-132.127
0
LINE
8
BLACK
6
CONTINUOUS
10
70.4576
20
-132.127
11
69.6004
21
-134.127
0
LINE
8
BLACK
6
CONTINUOUS
10
71.6004
20
-132.127
11
71.7909
21
-132.127
0
LINE
8
BLACK
6
CONTINUOUS
10
71.7909
20
-132.127
11
71.9814
21
-132.222
0
LINE
8
BLACK
6
CONTINUOUS
10
71.9814
20
-132.222
11
72.0766
21
-132.317
0
LINE
8
BLACK
6
CONTINUOUS
10
72.0766
20
-132.317
11
72.1719
21
-132.508
0
LINE
8
BLACK
6
CONTINUOUS
10
72.1719
20
-132.508
11
72.2671
21
-132.888
0
LINE
8
BLACK
6
CONTINUOUS
10
72.2671
20
-132.888
11
72.2671
21
-133.365
0
LINE
8
BLACK
6
CONTINUOUS
10
72.2671
20
-133.365
11
72.1719
21
-133.746
0
LINE
8
BLACK
6
CONTINUOUS
10
72.1719
20
-133.746
11
72.0766
21
-133.936
0
LINE
8
BLACK
6
CONTINUOUS
10
72.0766
20
-133.936
11
71.9814
21
-134.031
0
LINE
8
BLACK
6
CONTINUOUS
10
71.9814
20
-134.031
11
71.7909
21
-134.127
0
LINE
8
BLACK
6
CONTINUOUS
10
71.7909
20
-134.127
11
71.6004
21
-134.127
0
LINE
8
BLACK
6
CONTINUOUS
10
71.6004
20
-134.127
11
71.41
21
-134.031
0
LINE
8
BLACK
6
CONTINUOUS
10
71.41
20
-134.031
11
71.3147
21
-133.936
0
LINE
8
BLACK
6
CONTINUOUS
10
71.3147
20
-133.936
11
71.2195
21
-133.746
0
LINE
8
BLACK
6
CONTINUOUS
10
71.2195
20
-133.746
11
71.1243
21
-133.365
0
LINE
8
BLACK
6
CONTINUOUS
10
71.1243
20
-133.365
11
71.1243
21
-132.888
0
LINE
8
BLACK
6
CONTINUOUS
10
71.1243
20
-132.888
11
71.2195
21
-132.508
0
LINE
8
BLACK
6
CONTINUOUS
10
71.2195
20
-132.508
11
71.3147
21
-132.317
0
LINE
8
BLACK
6
CONTINUOUS
10
71.3147
20
-132.317
11
71.41
21
-132.222
0
LINE
8
BLACK
6
CONTINUOUS
10
71.41
20
-132.222
11
71.6004
21
-132.127
0
LINE
8
BLACK
6
CONTINUOUS
10
73.5052
20
-132.127
11
73.6957
21
-132.127
0
LINE
8
BLACK
6
CONTINUOUS
10
73.6957
20
-132.127
11
73.8862
21
-132.222
0
LINE
8
BLACK
6
CONTINUOUS
10
73.8862
20
-132.222
11
73.9814
21
-132.317
0
LINE
8
BLACK
6
CONTINUOUS
10
73.9814
20
-132.317
11
74.0766
21
-132.508
0
LINE
8
BLACK
6
CONTINUOUS
10
74.0766
20
-132.508
11
74.1719
21
-132.888
0
LINE
8
BLACK
6
CONTINUOUS
10
74.1719
20
-132.888
11
74.1719
21
-133.365
0
LINE
8
BLACK
6
CONTINUOUS
10
74.1719
20
-133.365
11
74.0766
21
-133.746
0
LINE
8
BLACK
6
CONTINUOUS
10
74.0766
20
-133.746
11
73.9814
21
-133.936
0
LINE
8
BLACK
6
CONTINUOUS
10
73.9814
20
-133.936
11
73.8862
21
-134.031
0
LINE
8
BLACK
6
CONTINUOUS
10
73.8862
20
-134.031
11
73.6957
21
-134.127
0
LINE
8
BLACK
6
CONTINUOUS
10
73.6957
20
-134.127
11
73.5052
21
-134.127
0
LINE
8
BLACK
6
CONTINUOUS
10
73.5052
20
-134.127
11
73.3147
21
-134.031
0
LINE
8
BLACK
6
CONTINUOUS
10
73.3147
20
-134.031
11
73.2195
21
-133.936
0
LINE
8
BLACK
6
CONTINUOUS
10
73.2195
20
-133.936
11
73.1243
21
-133.746
0
LINE
8
BLACK
6
CONTINUOUS
10
73.1243
20
-133.746
11
73.029
21
-133.365
0
LINE
8
BLACK
6
CONTINUOUS
10
73.029
20
-133.365
11
73.029
21
-132.888
0
LINE
8
BLACK
6
CONTINUOUS
10
73.029
20
-132.888
11
73.1243
21
-132.508
0
LINE
8
BLACK
6
CONTINUOUS
10
73.1243
20
-132.508
11
73.2195
21
-132.317
0
LINE
8
BLACK
6
CONTINUOUS
10
73.2195
20
-132.317
11
73.3147
21
-132.222
0
LINE
8
BLACK
6
CONTINUOUS
10
73.3147
20
-132.222
11
73.5052
21
-132.127
0
LINE
8
BLACK
6
CONTINUOUS
10
75.029
20
-134.127
11
75.029
21
-132.793
0
LINE
8
BLACK
6
CONTINUOUS
10
75.029
20
-132.984
11
75.1243
21
-132.888
0
LINE
8
BLACK
6
CONTINUOUS
10
75.1243
20
-132.888
11
75.3147
21
-132.793
0
LINE
8
BLACK
6
CONTINUOUS
10
75.3147
20
-132.793
11
75.6004
21
-132.793
0
LINE
8
BLACK
6
CONTINUOUS
10
75.6004
20
-132.793
11
75.7909
21
-132.888
0
LINE
8
BLACK
6
CONTINUOUS
10
75.7909
20
-132.888
11
75.8862
21
-133.079
0
LINE
8
BLACK
6
CONTINUOUS
10
75.8862
20
-133.079
11
75.8862
21
-134.127
0
LINE
8
BLACK
6
CONTINUOUS
10
75.8862
20
-133.079
11
75.9814
21
-132.888
0
LINE
8
BLACK
6
CONTINUOUS
10
75.9814
20
-132.888
11
76.1719
21
-132.793
0
LINE
8
BLACK
6
CONTINUOUS
10
76.1719
20
-132.793
11
76.4576
21
-132.793
0
LINE
8
BLACK
6
CONTINUOUS
10
76.4576
20
-132.793
11
76.6481
21
-132.888
0
LINE
8
BLACK
6
CONTINUOUS
10
76.6481
20
-132.888
11
76.7433
21
-133.079
0
LINE
8
BLACK
6
CONTINUOUS
10
76.7433
20
-133.079
11
76.7433
21
-134.127
0
LINE
8
BLACK
6
CONTINUOUS
10
77.6957
20
-134.127
11
77.6957
21
-132.793
0
LINE
8
BLACK
6
CONTINUOUS
10
77.6957
20
-132.984
11
77.7909
21
-132.888
0
LINE
8
BLACK
6
CONTINUOUS
10
77.7909
20
-132.888
11
77.9814
21
-132.793
0
LINE
8
BLACK
6
CONTINUOUS
10
77.9814
20
-132.793
11
78.2671
21
-132.793
0
LINE
8
BLACK
6
CONTINUOUS
10
78.2671
20
-132.793
11
78.4576
21
-132.888
0
LINE
8
BLACK
6
CONTINUOUS
10
78.4576
20
-132.888
11
78.5528
21
-133.079
0
LINE
8
BLACK
6
CONTINUOUS
10
78.5528
20
-133.079
11
78.5528
21
-134.127
0
LINE
8
BLACK
6
CONTINUOUS
10
78.5528
20
-133.079
11
78.6481
21
-132.888
0
LINE
8
BLACK
6
CONTINUOUS
10
78.6481
20
-132.888
11
78.8385
21
-132.793
0
LINE
8
BLACK
6
CONTINUOUS
10
78.8385
20
-132.793
11
79.1243
21
-132.793
0
LINE
8
BLACK
6
CONTINUOUS
10
79.1243
20
-132.793
11
79.3147
21
-132.888
0
LINE
8
BLACK
6
CONTINUOUS
10
79.3147
20
-132.888
11
79.41
21
-133.079
0
LINE
8
BLACK
6
CONTINUOUS
10
79.41
20
-133.079
11
79.41
21
-134.127
0
LINE
8
BLACK
6
CONTINUOUS
10
83.3147
20
-132.031
11
81.6004
21
-134.603
0
LINE
8
BLACK
6
CONTINUOUS
10
85.8862
20
-132.127
11
86.0766
21
-132.127
0
LINE
8
BLACK
6
CONTINUOUS
10
86.0766
20
-132.127
11
86.2671
21
-132.222
0
LINE
8
BLACK
6
CONTINUOUS
10
86.2671
20
-132.222
11
86.3624
21
-132.317
0
LINE
8
BLACK
6
CONTINUOUS
10
86.3624
20
-132.317
11
86.4576
21
-132.508
0
LINE
8
BLACK
6
CONTINUOUS
10
86.4576
20
-132.508
11
86.5528
21
-132.888
0
LINE
8
BLACK
6
CONTINUOUS
10
86.5528
20
-132.888
11
86.5528
21
-133.365
0
LINE
8
BLACK
6
CONTINUOUS
10
86.5528
20
-133.365
11
86.4576
21
-133.746
0
LINE
8
BLACK
6
CONTINUOUS
10
86.4576
20
-133.746
11
86.3624
21
-133.936
0
LINE
8
BLACK
6
CONTINUOUS
10
86.3624
20
-133.936
11
86.2671
21
-134.031
0
LINE
8
BLACK
6
CONTINUOUS
10
86.2671
20
-134.031
11
86.0766
21
-134.127
0
LINE
8
BLACK
6
CONTINUOUS
10
86.0766
20
-134.127
11
85.8862
21
-134.127
0
LINE
8
BLACK
6
CONTINUOUS
10
85.8862
20
-134.127
11
85.6957
21
-134.031
0
LINE
8
BLACK
6
CONTINUOUS
10
85.6957
20
-134.031
11
85.6004
21
-133.936
0
LINE
8
BLACK
6
CONTINUOUS
10
85.6004
20
-133.936
11
85.5052
21
-133.746
0
LINE
8
BLACK
6
CONTINUOUS
10
85.5052
20
-133.746
11
85.41
21
-133.365
0
LINE
8
BLACK
6
CONTINUOUS
10
85.41
20
-133.365
11
85.41
21
-132.888
0
LINE
8
BLACK
6
CONTINUOUS
10
85.41
20
-132.888
11
85.5052
21
-132.508
0
LINE
8
BLACK
6
CONTINUOUS
10
85.5052
20
-132.508
11
85.6004
21
-132.317
0
LINE
8
BLACK
6
CONTINUOUS
10
85.6004
20
-132.317
11
85.6957
21
-132.222
0
LINE
8
BLACK
6
CONTINUOUS
10
85.6957
20
-132.222
11
85.8862
21
-132.127
0
LINE
8
BLACK
6
CONTINUOUS
10
87.41
20
-133.936
11
87.5052
21
-134.031
0
LINE
8
BLACK
6
CONTINUOUS
10
87.5052
20
-134.031
11
87.41
21
-134.127
0
LINE
8
BLACK
6
CONTINUOUS
10
87.41
20
-134.127
11
87.3147
21
-134.031
0
LINE
8
BLACK
6
CONTINUOUS
10
87.3147
20
-134.031
11
87.41
21
-133.936
0
LINE
8
BLACK
6
CONTINUOUS
10
87.41
20
-133.936
11
87.41
21
-134.127
0
LINE
8
BLACK
6
CONTINUOUS
10
88.7433
20
-132.127
11
88.9338
21
-132.127
0
LINE
8
BLACK
6
CONTINUOUS
10
88.9338
20
-132.127
11
89.1243
21
-132.222
0
LINE
8
BLACK
6
CONTINUOUS
10
89.1243
20
-132.222
11
89.2195
21
-132.317
0
LINE
8
BLACK
6
CONTINUOUS
10
89.2195
20
-132.317
11
89.3147
21
-132.508
0
LINE
8
BLACK
6
CONTINUOUS
10
89.3147
20
-132.508
11
89.41
21
-132.888
0
LINE
8
BLACK
6
CONTINUOUS
10
89.41
20
-132.888
11
89.41
21
-133.365
0
LINE
8
BLACK
6
CONTINUOUS
10
89.41
20
-133.365
11
89.3147
21
-133.746
0
LINE
8
BLACK
6
CONTINUOUS
10
89.3147
20
-133.746
11
89.2195
21
-133.936
0
LINE
8
BLACK
6
CONTINUOUS
10
89.2195
20
-133.936
11
89.1243
21
-134.031
0
LINE
8
BLACK
6
CONTINUOUS
10
89.1243
20
-134.031
11
88.9338
21
-134.127
0
LINE
8
BLACK
6
CONTINUOUS
10
88.9338
20
-134.127
11
88.7433
21
-134.127
0
LINE
8
BLACK
6
CONTINUOUS
10
88.7433
20
-134.127
11
88.5528
21
-134.031
0
LINE
8
BLACK
6
CONTINUOUS
10
88.5528
20
-134.031
11
88.4576
21
-133.936
0
LINE
8
BLACK
6
CONTINUOUS
10
88.4576
20
-133.936
11
88.3624
21
-133.746
0
LINE
8
BLACK
6
CONTINUOUS
10
88.3624
20
-133.746
11
88.2671
21
-133.365
0
LINE
8
BLACK
6
CONTINUOUS
10
88.2671
20
-133.365
11
88.2671
21
-132.888
0
LINE
8
BLACK
6
CONTINUOUS
10
88.2671
20
-132.888
11
88.3624
21
-132.508
0
LINE
8
BLACK
6
CONTINUOUS
10
88.3624
20
-132.508
11
88.4576
21
-132.317
0
LINE
8
BLACK
6
CONTINUOUS
10
88.4576
20
-132.317
11
88.5528
21
-132.222
0
LINE
8
BLACK
6
CONTINUOUS
10
88.5528
20
-132.222
11
88.7433
21
-132.127
0
LINE
8
BLACK
6
CONTINUOUS
10
90.1719
20
-132.317
11
90.2671
21
-132.222
0
LINE
8
BLACK
6
CONTINUOUS
10
90.2671
20
-132.222
11
90.4576
21
-132.127
0
LINE
8
BLACK
6
CONTINUOUS
10
90.4576
20
-132.127
11
90.9338
21
-132.127
0
LINE
8
BLACK
6
CONTINUOUS
10
90.9338
20
-132.127
11
91.1243
21
-132.222
0
LINE
8
BLACK
6
CONTINUOUS
10
91.1243
20
-132.222
11
91.2195
21
-132.317
0
LINE
8
BLACK
6
CONTINUOUS
10
91.2195
20
-132.317
11
91.3147
21
-132.508
0
LINE
8
BLACK
6
CONTINUOUS
10
91.3147
20
-132.508
11
91.3147
21
-132.698
0
LINE
8
BLACK
6
CONTINUOUS
10
91.3147
20
-132.698
11
91.2195
21
-132.984
0
LINE
8
BLACK
6
CONTINUOUS
10
91.2195
20
-132.984
11
90.0766
21
-134.127
0
LINE
8
BLACK
6
CONTINUOUS
10
90.0766
20
-134.127
11
91.3147
21
-134.127
0
LINE
8
BLACK
6
CONTINUOUS
10
91.9814
20
-132.127
11
93.3147
21
-132.127
0
LINE
8
BLACK
6
CONTINUOUS
10
93.3147
20
-132.127
11
92.4576
21
-134.127
0
LINE
8
BLACK
6
CONTINUOUS
10
94.9338
20
-132.127
11
94.5528
21
-132.127
0
LINE
8
BLACK
6
CONTINUOUS
10
94.5528
20
-132.127
11
94.3624
21
-132.222
0
LINE
8
BLACK
6
CONTINUOUS
10
94.3624
20
-132.222
11
94.2671
21
-132.317
0
LINE
8
BLACK
6
CONTINUOUS
10
94.2671
20
-132.317
11
94.0766
21
-132.603
0
LINE
8
BLACK
6
CONTINUOUS
10
94.0766
20
-132.603
11
93.9814
21
-132.984
0
LINE
8
BLACK
6
CONTINUOUS
10
93.9814
20
-132.984
11
93.9814
21
-133.746
0
LINE
8
BLACK
6
CONTINUOUS
10
93.9814
20
-133.746
11
94.0766
21
-133.936
0
LINE
8
BLACK
6
CONTINUOUS
10
94.0766
20
-133.936
11
94.1719
21
-134.031
0
LINE
8
BLACK
6
CONTINUOUS
10
94.1719
20
-134.031
11
94.3624
21
-134.127
0
LINE
8
BLACK
6
CONTINUOUS
10
94.3624
20
-134.127
11
94.7433
21
-134.127
0
LINE
8
BLACK
6
CONTINUOUS
10
94.7433
20
-134.127
11
94.9338
21
-134.031
0
LINE
8
BLACK
6
CONTINUOUS
10
94.9338
20
-134.031
11
95.029
21
-133.936
0
LINE
8
BLACK
6
CONTINUOUS
10
95.029
20
-133.936
11
95.1243
21
-133.746
0
LINE
8
BLACK
6
CONTINUOUS
10
95.1243
20
-133.746
11
95.1243
21
-133.269
0
LINE
8
BLACK
6
CONTINUOUS
10
95.1243
20
-133.269
11
95.029
21
-133.079
0
LINE
8
BLACK
6
CONTINUOUS
10
95.029
20
-133.079
11
94.9338
21
-132.984
0
LINE
8
BLACK
6
CONTINUOUS
10
94.9338
20
-132.984
11
94.7433
21
-132.888
0
LINE
8
BLACK
6
CONTINUOUS
10
94.7433
20
-132.888
11
94.3624
21
-132.888
0
LINE
8
BLACK
6
CONTINUOUS
10
94.3624
20
-132.888
11
94.1719
21
-132.984
0
LINE
8
BLACK
6
CONTINUOUS
10
94.1719
20
-132.984
11
94.0766
21
-133.079
0
LINE
8
BLACK
6
CONTINUOUS
10
94.0766
20
-133.079
11
93.9814
21
-133.269
0
LINE
8
BLACK
6
CONTINUOUS
10
95.8862
20
-132.127
11
95.8862
21
-132.508
0
LINE
8
BLACK
6
CONTINUOUS
10
96.6481
20
-132.127
11
96.6481
21
-132.508
0
LINE
8
BLACK
6
CONTINUOUS
10
99.6004
20
-134.888
11
99.5052
21
-134.793
0
LINE
8
BLACK
6
CONTINUOUS
10
99.5052
20
-134.793
11
99.3147
21
-134.508
0
LINE
8
BLACK
6
CONTINUOUS
10
99.3147
20
-134.508
11
99.2195
21
-134.317
0
LINE
8
BLACK
6
CONTINUOUS
10
99.2195
20
-134.317
11
99.1243
21
-134.031
0
LINE
8
BLACK
6
CONTINUOUS
10
99.1243
20
-134.031
11
99.029
21
-133.555
0
LINE
8
BLACK
6
CONTINUOUS
10
99.029
20
-133.555
11
99.029
21
-133.174
0
LINE
8
BLACK
6
CONTINUOUS
10
99.029
20
-133.174
11
99.1243
21
-132.698
0
LINE
8
BLACK
6
CONTINUOUS
10
99.1243
20
-132.698
11
99.2195
21
-132.412
0
LINE
8
BLACK
6
CONTINUOUS
10
99.2195
20
-132.412
11
99.3147
21
-132.222
0
LINE
8
BLACK
6
CONTINUOUS
10
99.3147
20
-132.222
11
99.5052
21
-131.936
0
LINE
8
BLACK
6
CONTINUOUS
10
99.5052
20
-131.936
11
99.6004
21
-131.841
0
LINE
8
BLACK
6
CONTINUOUS
10
101.41
20
-134.127
11
100.267
21
-134.127
0
LINE
8
BLACK
6
CONTINUOUS
10
100.839
20
-134.127
11
100.839
21
-132.127
0
LINE
8
BLACK
6
CONTINUOUS
10
100.839
20
-132.127
11
100.648
21
-132.412
0
LINE
8
BLACK
6
CONTINUOUS
10
100.648
20
-132.412
11
100.458
21
-132.603
0
LINE
8
BLACK
6
CONTINUOUS
10
100.458
20
-132.603
11
100.267
21
-132.698
0
LINE
8
BLACK
6
CONTINUOUS
10
103.124
20
-132.127
11
102.743
21
-132.127
0
LINE
8
BLACK
6
CONTINUOUS
10
102.743
20
-132.127
11
102.553
21
-132.222
0
LINE
8
BLACK
6
CONTINUOUS
10
102.553
20
-132.222
11
102.458
21
-132.317
0
LINE
8
BLACK
6
CONTINUOUS
10
102.458
20
-132.317
11
102.267
21
-132.603
0
LINE
8
BLACK
6
CONTINUOUS
10
102.267
20
-132.603
11
102.172
21
-132.984
0
LINE
8
BLACK
6
CONTINUOUS
10
102.172
20
-132.984
11
102.172
21
-133.746
0
LINE
8
BLACK
6
CONTINUOUS
10
102.172
20
-133.746
11
102.267
21
-133.936
0
LINE
8
BLACK
6
CONTINUOUS
10
102.267
20
-133.936
11
102.362
21
-134.031
0
LINE
8
BLACK
6
CONTINUOUS
10
102.362
20
-134.031
11
102.553
21
-134.127
0
LINE
8
BLACK
6
CONTINUOUS
10
102.553
20
-134.127
11
102.934
21
-134.127
0
LINE
8
BLACK
6
CONTINUOUS
10
102.934
20
-134.127
11
103.124
21
-134.031
0
LINE
8
BLACK
6
CONTINUOUS
10
103.124
20
-134.031
11
103.219
21
-133.936
0
LINE
8
BLACK
6
CONTINUOUS
10
103.219
20
-133.936
11
103.315
21
-133.746
0
LINE
8
BLACK
6
CONTINUOUS
10
103.315
20
-133.746
11
103.315
21
-133.269
0
LINE
8
BLACK
6
CONTINUOUS
10
103.315
20
-133.269
11
103.219
21
-133.079
0
LINE
8
BLACK
6
CONTINUOUS
10
103.219
20
-133.079
11
103.124
21
-132.984
0
LINE
8
BLACK
6
CONTINUOUS
10
103.124
20
-132.984
11
102.934
21
-132.888
0
LINE
8
BLACK
6
CONTINUOUS
10
102.934
20
-132.888
11
102.553
21
-132.888
0
LINE
8
BLACK
6
CONTINUOUS
10
102.553
20
-132.888
11
102.362
21
-132.984
0
LINE
8
BLACK
6
CONTINUOUS
10
102.362
20
-132.984
11
102.267
21
-133.079
0
LINE
8
BLACK
6
CONTINUOUS
10
102.267
20
-133.079
11
102.172
21
-133.269
0
LINE
8
BLACK
6
CONTINUOUS
10
105.696
20
-134.127
11
105.696
21
-132.127
0
LINE
8
BLACK
6
CONTINUOUS
10
106.553
20
-134.127
11
106.553
21
-133.079
0
LINE
8
BLACK
6
CONTINUOUS
10
106.553
20
-133.079
11
106.458
21
-132.888
0
LINE
8
BLACK
6
CONTINUOUS
10
106.458
20
-132.888
11
106.267
21
-132.793
0
LINE
8
BLACK
6
CONTINUOUS
10
106.267
20
-132.793
11
105.981
21
-132.793
0
LINE
8
BLACK
6
CONTINUOUS
10
105.981
20
-132.793
11
105.791
21
-132.888
0
LINE
8
BLACK
6
CONTINUOUS
10
105.791
20
-132.888
11
105.696
21
-132.984
0
LINE
8
BLACK
6
CONTINUOUS
10
107.791
20
-134.127
11
107.6
21
-134.031
0
LINE
8
BLACK
6
CONTINUOUS
10
107.6
20
-134.031
11
107.505
21
-133.936
0
LINE
8
BLACK
6
CONTINUOUS
10
107.505
20
-133.936
11
107.41
21
-133.746
0
LINE
8
BLACK
6
CONTINUOUS
10
107.41
20
-133.746
11
107.41
21
-133.174
0
LINE
8
BLACK
6
CONTINUOUS
10
107.41
20
-133.174
11
107.505
21
-132.984
0
LINE
8
BLACK
6
CONTINUOUS
10
107.505
20
-132.984
11
107.6
21
-132.888
0
LINE
8
BLACK
6
CONTINUOUS
10
107.6
20
-132.888
11
107.791
21
-132.793
0
LINE
8
BLACK
6
CONTINUOUS
10
107.791
20
-132.793
11
108.077
21
-132.793
0
LINE
8
BLACK
6
CONTINUOUS
10
108.077
20
-132.793
11
108.267
21
-132.888
0
LINE
8
BLACK
6
CONTINUOUS
10
108.267
20
-132.888
11
108.362
21
-132.984
0
LINE
8
BLACK
6
CONTINUOUS
10
108.362
20
-132.984
11
108.458
21
-133.174
0
LINE
8
BLACK
6
CONTINUOUS
10
108.458
20
-133.174
11
108.458
21
-133.746
0
LINE
8
BLACK
6
CONTINUOUS
10
108.458
20
-133.746
11
108.362
21
-133.936
0
LINE
8
BLACK
6
CONTINUOUS
10
108.362
20
-133.936
11
108.267
21
-134.031
0
LINE
8
BLACK
6
CONTINUOUS
10
108.267
20
-134.031
11
108.077
21
-134.127
0
LINE
8
BLACK
6
CONTINUOUS
10
108.077
20
-134.127
11
107.791
21
-134.127
0
LINE
8
BLACK
6
CONTINUOUS
10
109.6
20
-134.127
11
109.41
21
-134.031
0
LINE
8
BLACK
6
CONTINUOUS
10
109.41
20
-134.031
11
109.315
21
-133.841
0
LINE
8
BLACK
6
CONTINUOUS
10
109.315
20
-133.841
11
109.315
21
-132.127
0
LINE
8
BLACK
6
CONTINUOUS
10
111.124
20
-134.031
11
110.934
21
-134.127
0
LINE
8
BLACK
6
CONTINUOUS
10
110.934
20
-134.127
11
110.553
21
-134.127
0
LINE
8
BLACK
6
CONTINUOUS
10
110.553
20
-134.127
11
110.362
21
-134.031
0
LINE
8
BLACK
6
CONTINUOUS
10
110.362
20
-134.031
11
110.267
21
-133.841
0
LINE
8
BLACK
6
CONTINUOUS
10
110.267
20
-133.841
11
110.267
21
-133.079
0
LINE
8
BLACK
6
CONTINUOUS
10
110.267
20
-133.079
11
110.362
21
-132.888
0
LINE
8
BLACK
6
CONTINUOUS
10
110.362
20
-132.888
11
110.553
21
-132.793
0
LINE
8
BLACK
6
CONTINUOUS
10
110.553
20
-132.793
11
110.934
21
-132.793
0
LINE
8
BLACK
6
CONTINUOUS
10
110.934
20
-132.793
11
111.124
21
-132.888
0
LINE
8
BLACK
6
CONTINUOUS
10
111.124
20
-132.888
11
111.219
21
-133.079
0
LINE
8
BLACK
6
CONTINUOUS
10
111.219
20
-133.079
11
111.219
21
-133.269
0
LINE
8
BLACK
6
CONTINUOUS
10
111.219
20
-133.269
11
110.267
21
-133.46
0
LINE
8
BLACK
6
CONTINUOUS
10
111.981
20
-134.031
11
112.172
21
-134.127
0
LINE
8
BLACK
6
CONTINUOUS
10
112.172
20
-134.127
11
112.553
21
-134.127
0
LINE
8
BLACK
6
CONTINUOUS
10
112.553
20
-134.127
11
112.743
21
-134.031
0
LINE
8
BLACK
6
CONTINUOUS
10
112.743
20
-134.031
11
112.839
21
-133.841
0
LINE
8
BLACK
6
CONTINUOUS
10
112.839
20
-133.841
11
112.839
21
-133.746
0
LINE
8
BLACK
6
CONTINUOUS
10
112.839
20
-133.746
11
112.743
21
-133.555
0
LINE
8
BLACK
6
CONTINUOUS
10
112.743
20
-133.555
11
112.553
21
-133.46
0
LINE
8
BLACK
6
CONTINUOUS
10
112.553
20
-133.46
11
112.267
21
-133.46
0
LINE
8
BLACK
6
CONTINUOUS
10
112.267
20
-133.46
11
112.077
21
-133.365
0
LINE
8
BLACK
6
CONTINUOUS
10
112.077
20
-133.365
11
111.981
21
-133.174
0
LINE
8
BLACK
6
CONTINUOUS
10
111.981
20
-133.174
11
111.981
21
-133.079
0
LINE
8
BLACK
6
CONTINUOUS
10
111.981
20
-133.079
11
112.077
21
-132.888
0
LINE
8
BLACK
6
CONTINUOUS
10
112.077
20
-132.888
11
112.267
21
-132.793
0
LINE
8
BLACK
6
CONTINUOUS
10
112.267
20
-132.793
11
112.553
21
-132.793
0
LINE
8
BLACK
6
CONTINUOUS
10
112.553
20
-132.793
11
112.743
21
-132.888
0
LINE
8
BLACK
6
CONTINUOUS
10
113.505
20
-134.888
11
113.6
21
-134.793
0
LINE
8
BLACK
6
CONTINUOUS
10
113.6
20
-134.793
11
113.791
21
-134.508
0
LINE
8
BLACK
6
CONTINUOUS
10
113.791
20
-134.508
11
113.886
21
-134.317
0
LINE
8
BLACK
6
CONTINUOUS
10
113.886
20
-134.317
11
113.981
21
-134.031
0
LINE
8
BLACK
6
CONTINUOUS
10
113.981
20
-134.031
11
114.077
21
-133.555
0
LINE
8
BLACK
6
CONTINUOUS
10
114.077
20
-133.555
11
114.077
21
-133.174
0
LINE
8
BLACK
6
CONTINUOUS
10
114.077
20
-133.174
11
113.981
21
-132.698
0
LINE
8
BLACK
6
CONTINUOUS
10
113.981
20
-132.698
11
113.886
21
-132.412
0
LINE
8
BLACK
6
CONTINUOUS
10
113.886
20
-132.412
11
113.791
21
-132.222
0
LINE
8
BLACK
6
CONTINUOUS
10
113.791
20
-132.222
11
113.6
21
-131.936
0
LINE
8
BLACK
6
CONTINUOUS
10
113.6
20
-131.936
11
113.505
21
-131.841
0
CIRCLE
8
BLACK
10
63.4314
20
-135.862
40
0.45
0
LINE
8
BLACK
6
CONTINUOUS
10
66.8385
20
-134.767
11
67.029
21
-134.767
0
LINE
8
BLACK
6
CONTINUOUS
10
67.029
20
-134.767
11
67.2195
21
-134.862
0
LINE
8
BLACK
6
CONTINUOUS
10
67.2195
20
-134.862
11
67.3147
21
-134.957
0
LINE
8
BLACK
6
CONTINUOUS
10
67.3147
20
-134.957
11
67.41
21
-135.148
0
LINE
8
BLACK
6
CONTINUOUS
10
67.41
20
-135.148
11
67.5052
21
-135.528
0
LINE
8
BLACK
6
CONTINUOUS
10
67.5052
20
-135.528
11
67.5052
21
-136.005
0
LINE
8
BLACK
6
CONTINUOUS
10
67.5052
20
-136.005
11
67.41
21
-136.386
0
LINE
8
BLACK
6
CONTINUOUS
10
67.41
20
-136.386
11
67.3147
21
-136.576
0
LINE
8
BLACK
6
CONTINUOUS
10
67.3147
20
-136.576
11
67.2195
21
-136.671
0
LINE
8
BLACK
6
CONTINUOUS
10
67.2195
20
-136.671
11
67.029
21
-136.767
0
LINE
8
BLACK
6
CONTINUOUS
10
67.029
20
-136.767
11
66.8385
21
-136.767
0
LINE
8
BLACK
6
CONTINUOUS
10
66.8385
20
-136.767
11
66.6481
21
-136.671
0
LINE
8
BLACK
6
CONTINUOUS
10
66.6481
20
-136.671
11
66.5528
21
-136.576
0
LINE
8
BLACK
6
CONTINUOUS
10
66.5528
20
-136.576
11
66.4576
21
-136.386
0
LINE
8
BLACK
6
CONTINUOUS
10
66.4576
20
-136.386
11
66.3624
21
-136.005
0
LINE
8
BLACK
6
CONTINUOUS
10
66.3624
20
-136.005
11
66.3624
21
-135.528
0
LINE
8
BLACK
6
CONTINUOUS
10
66.3624
20
-135.528
11
66.4576
21
-135.148
0
LINE
8
BLACK
6
CONTINUOUS
10
66.4576
20
-135.148
11
66.5528
21
-134.957
0
LINE
8
BLACK
6
CONTINUOUS
10
66.5528
20
-134.957
11
66.6481
21
-134.862
0
LINE
8
BLACK
6
CONTINUOUS
10
66.6481
20
-134.862
11
66.8385
21
-134.767
0
LINE
8
BLACK
6
CONTINUOUS
10
68.3624
20
-136.576
11
68.4576
21
-136.671
0
LINE
8
BLACK
6
CONTINUOUS
10
68.4576
20
-136.671
11
68.3624
21
-136.767
0
LINE
8
BLACK
6
CONTINUOUS
10
68.3624
20
-136.767
11
68.2671
21
-136.671
0
LINE
8
BLACK
6
CONTINUOUS
10
68.2671
20
-136.671
11
68.3624
21
-136.576
0
LINE
8
BLACK
6
CONTINUOUS
10
68.3624
20
-136.576
11
68.3624
21
-136.767
0
LINE
8
BLACK
6
CONTINUOUS
10
69.41
20
-136.767
11
69.7909
21
-136.767
0
LINE
8
BLACK
6
CONTINUOUS
10
69.7909
20
-136.767
11
69.9814
21
-136.671
0
LINE
8
BLACK
6
CONTINUOUS
10
69.9814
20
-136.671
11
70.0766
21
-136.576
0
LINE
8
BLACK
6
CONTINUOUS
10
70.0766
20
-136.576
11
70.2671
21
-136.29
0
LINE
8
BLACK
6
CONTINUOUS
10
70.2671
20
-136.29
11
70.3624
21
-135.909
0
LINE
8
BLACK
6
CONTINUOUS
10
70.3624
20
-135.909
11
70.3624
21
-135.148
0
LINE
8
BLACK
6
CONTINUOUS
10
70.3624
20
-135.148
11
70.2671
21
-134.957
0
LINE
8
BLACK
6
CONTINUOUS
10
70.2671
20
-134.957
11
70.1719
21
-134.862
0
LINE
8
BLACK
6
CONTINUOUS
10
70.1719
20
-134.862
11
69.9814
21
-134.767
0
LINE
8
BLACK
6
CONTINUOUS
10
69.9814
20
-134.767
11
69.6004
21
-134.767
0
LINE
8
BLACK
6
CONTINUOUS
10
69.6004
20
-134.767
11
69.41
21
-134.862
0
LINE
8
BLACK
6
CONTINUOUS
10
69.41
20
-134.862
11
69.3147
21
-134.957
0
LINE
8
BLACK
6
CONTINUOUS
10
69.3147
20
-134.957
11
69.2195
21
-135.148
0
LINE
8
BLACK
6
CONTINUOUS
10
69.2195
20
-135.148
11
69.2195
21
-135.624
0
LINE
8
BLACK
6
CONTINUOUS
10
69.2195
20
-135.624
11
69.3147
21
-135.814
0
LINE
8
BLACK
6
CONTINUOUS
10
69.3147
20
-135.814
11
69.41
21
-135.909
0
LINE
8
BLACK
6
CONTINUOUS
10
69.41
20
-135.909
11
69.6004
21
-136.005
0
LINE
8
BLACK
6
CONTINUOUS
10
69.6004
20
-136.005
11
69.9814
21
-136.005
0
LINE
8
BLACK
6
CONTINUOUS
10
69.9814
20
-136.005
11
70.1719
21
-135.909
0
LINE
8
BLACK
6
CONTINUOUS
10
70.1719
20
-135.909
11
70.2671
21
-135.814
0
LINE
8
BLACK
6
CONTINUOUS
10
70.2671
20
-135.814
11
70.3624
21
-135.624
0
LINE
8
BLACK
6
CONTINUOUS
10
71.6004
20
-134.767
11
71.7909
21
-134.767
0
LINE
8
BLACK
6
CONTINUOUS
10
71.7909
20
-134.767
11
71.9814
21
-134.862
0
LINE
8
BLACK
6
CONTINUOUS
10
71.9814
20
-134.862
11
72.0766
21
-134.957
0
LINE
8
BLACK
6
CONTINUOUS
10
72.0766
20
-134.957
11
72.1719
21
-135.148
0
LINE
8
BLACK
6
CONTINUOUS
10
72.1719
20
-135.148
11
72.2671
21
-135.528
0
LINE
8
BLACK
6
CONTINUOUS
10
72.2671
20
-135.528
11
72.2671
21
-136.005
0
LINE
8
BLACK
6
CONTINUOUS
10
72.2671
20
-136.005
11
72.1719
21
-136.386
0
LINE
8
BLACK
6
CONTINUOUS
10
72.1719
20
-136.386
11
72.0766
21
-136.576
0
LINE
8
BLACK
6
CONTINUOUS
10
72.0766
20
-136.576
11
71.9814
21
-136.671
0
LINE
8
BLACK
6
CONTINUOUS
10
71.9814
20
-136.671
11
71.7909
21
-136.767
0
LINE
8
BLACK
6
CONTINUOUS
10
71.7909
20
-136.767
11
71.6004
21
-136.767
0
LINE
8
BLACK
6
CONTINUOUS
10
71.6004
20
-136.767
11
71.41
21
-136.671
0
LINE
8
BLACK
6
CONTINUOUS
10
71.41
20
-136.671
11
71.3147
21
-136.576
0
LINE
8
BLACK
6
CONTINUOUS
10
71.3147
20
-136.576
11
71.2195
21
-136.386
0
LINE
8
BLACK
6
CONTINUOUS
10
71.2195
20
-136.386
11
71.1243
21
-136.005
0
LINE
8
BLACK
6
CONTINUOUS
10
71.1243
20
-136.005
11
71.1243
21
-135.528
0
LINE
8
BLACK
6
CONTINUOUS
10
71.1243
20
-135.528
11
71.2195
21
-135.148
0
LINE
8
BLACK
6
CONTINUOUS
10
71.2195
20
-135.148
11
71.3147
21
-134.957
0
LINE
8
BLACK
6
CONTINUOUS
10
71.3147
20
-134.957
11
71.41
21
-134.862
0
LINE
8
BLACK
6
CONTINUOUS
10
71.41
20
-134.862
11
71.6004
21
-134.767
0
LINE
8
BLACK
6
CONTINUOUS
10
73.5052
20
-134.767
11
73.6957
21
-134.767
0
LINE
8
BLACK
6
CONTINUOUS
10
73.6957
20
-134.767
11
73.8862
21
-134.862
0
LINE
8
BLACK
6
CONTINUOUS
10
73.8862
20
-134.862
11
73.9814
21
-134.957
0
LINE
8
BLACK
6
CONTINUOUS
10
73.9814
20
-134.957
11
74.0766
21
-135.148
0
LINE
8
BLACK
6
CONTINUOUS
10
74.0766
20
-135.148
11
74.1719
21
-135.528
0
LINE
8
BLACK
6
CONTINUOUS
10
74.1719
20
-135.528
11
74.1719
21
-136.005
0
LINE
8
BLACK
6
CONTINUOUS
10
74.1719
20
-136.005
11
74.0766
21
-136.386
0
LINE
8
BLACK
6
CONTINUOUS
10
74.0766
20
-136.386
11
73.9814
21
-136.576
0
LINE
8
BLACK
6
CONTINUOUS
10
73.9814
20
-136.576
11
73.8862
21
-136.671
0
LINE
8
BLACK
6
CONTINUOUS
10
73.8862
20
-136.671
11
73.6957
21
-136.767
0
LINE
8
BLACK
6
CONTINUOUS
10
73.6957
20
-136.767
11
73.5052
21
-136.767
0
LINE
8
BLACK
6
CONTINUOUS
10
73.5052
20
-136.767
11
73.3147
21
-136.671
0
LINE
8
BLACK
6
CONTINUOUS
10
73.3147
20
-136.671
11
73.2195
21
-136.576
0
LINE
8
BLACK
6
CONTINUOUS
10
73.2195
20
-136.576
11
73.1243
21
-136.386
0
LINE
8
BLACK
6
CONTINUOUS
10
73.1243
20
-136.386
11
73.029
21
-136.005
0
LINE
8
BLACK
6
CONTINUOUS
10
73.029
20
-136.005
11
73.029
21
-135.528
0
LINE
8
BLACK
6
CONTINUOUS
10
73.029
20
-135.528
11
73.1243
21
-135.148
0
LINE
8
BLACK
6
CONTINUOUS
10
73.1243
20
-135.148
11
73.2195
21
-134.957
0
LINE
8
BLACK
6
CONTINUOUS
10
73.2195
20
-134.957
11
73.3147
21
-134.862
0
LINE
8
BLACK
6
CONTINUOUS
10
73.3147
20
-134.862
11
73.5052
21
-134.767
0
LINE
8
BLACK
6
CONTINUOUS
10
75.029
20
-136.767
11
75.029
21
-135.433
0
LINE
8
BLACK
6
CONTINUOUS
10
75.029
20
-135.624
11
75.1243
21
-135.528
0
LINE
8
BLACK
6
CONTINUOUS
10
75.1243
20
-135.528
11
75.3147
21
-135.433
0
LINE
8
BLACK
6
CONTINUOUS
10
75.3147
20
-135.433
11
75.6004
21
-135.433
0
LINE
8
BLACK
6
CONTINUOUS
10
75.6004
20
-135.433
11
75.7909
21
-135.528
0
LINE
8
BLACK
6
CONTINUOUS
10
75.7909
20
-135.528
11
75.8862
21
-135.719
0
LINE
8
BLACK
6
CONTINUOUS
10
75.8862
20
-135.719
11
75.8862
21
-136.767
0
LINE
8
BLACK
6
CONTINUOUS
10
75.8862
20
-135.719
11
75.9814
21
-135.528
0
LINE
8
BLACK
6
CONTINUOUS
10
75.9814
20
-135.528
11
76.1719
21
-135.433
0
LINE
8
BLACK
6
CONTINUOUS
10
76.1719
20
-135.433
11
76.4576
21
-135.433
0
LINE
8
BLACK
6
CONTINUOUS
10
76.4576
20
-135.433
11
76.6481
21
-135.528
0
LINE
8
BLACK
6
CONTINUOUS
10
76.6481
20
-135.528
11
76.7433
21
-135.719
0
LINE
8
BLACK
6
CONTINUOUS
10
76.7433
20
-135.719
11
76.7433
21
-136.767
0
LINE
8
BLACK
6
CONTINUOUS
10
77.6957
20
-136.767
11
77.6957
21
-135.433
0
LINE
8
BLACK
6
CONTINUOUS
10
77.6957
20
-135.624
11
77.7909
21
-135.528
0
LINE
8
BLACK
6
CONTINUOUS
10
77.7909
20
-135.528
11
77.9814
21
-135.433
0
LINE
8
BLACK
6
CONTINUOUS
10
77.9814
20
-135.433
11
78.2671
21
-135.433
0
LINE
8
BLACK
6
CONTINUOUS
10
78.2671
20
-135.433
11
78.4576
21
-135.528
0
LINE
8
BLACK
6
CONTINUOUS
10
78.4576
20
-135.528
11
78.5528
21
-135.719
0
LINE
8
BLACK
6
CONTINUOUS
10
78.5528
20
-135.719
11
78.5528
21
-136.767
0
LINE
8
BLACK
6
CONTINUOUS
10
78.5528
20
-135.719
11
78.6481
21
-135.528
0
LINE
8
BLACK
6
CONTINUOUS
10
78.6481
20
-135.528
11
78.8385
21
-135.433
0
LINE
8
BLACK
6
CONTINUOUS
10
78.8385
20
-135.433
11
79.1243
21
-135.433
0
LINE
8
BLACK
6
CONTINUOUS
10
79.1243
20
-135.433
11
79.3147
21
-135.528
0
LINE
8
BLACK
6
CONTINUOUS
10
79.3147
20
-135.528
11
79.41
21
-135.719
0
LINE
8
BLACK
6
CONTINUOUS
10
79.41
20
-135.719
11
79.41
21
-136.767
0
LINE
8
BLACK
6
CONTINUOUS
10
83.3147
20
-134.671
11
81.6004
21
-137.243
0
LINE
8
BLACK
6
CONTINUOUS
10
85.8862
20
-134.767
11
86.0766
21
-134.767
0
LINE
8
BLACK
6
CONTINUOUS
10
86.0766
20
-134.767
11
86.2671
21
-134.862
0
LINE
8
BLACK
6
CONTINUOUS
10
86.2671
20
-134.862
11
86.3624
21
-134.957
0
LINE
8
BLACK
6
CONTINUOUS
10
86.3624
20
-134.957
11
86.4576
21
-135.148
0
LINE
8
BLACK
6
CONTINUOUS
10
86.4576
20
-135.148
11
86.5528
21
-135.528
0
LINE
8
BLACK
6
CONTINUOUS
10
86.5528
20
-135.528
11
86.5528
21
-136.005
0
LINE
8
BLACK
6
CONTINUOUS
10
86.5528
20
-136.005
11
86.4576
21
-136.386
0
LINE
8
BLACK
6
CONTINUOUS
10
86.4576
20
-136.386
11
86.3624
21
-136.576
0
LINE
8
BLACK
6
CONTINUOUS
10
86.3624
20
-136.576
11
86.2671
21
-136.671
0
LINE
8
BLACK
6
CONTINUOUS
10
86.2671
20
-136.671
11
86.0766
21
-136.767
0
LINE
8
BLACK
6
CONTINUOUS
10
86.0766
20
-136.767
11
85.8862
21
-136.767
0
LINE
8
BLACK
6
CONTINUOUS
10
85.8862
20
-136.767
11
85.6957
21
-136.671
0
LINE
8
BLACK
6
CONTINUOUS
10
85.6957
20
-136.671
11
85.6004
21
-136.576
0
LINE
8
BLACK
6
CONTINUOUS
10
85.6004
20
-136.576
11
85.5052
21
-136.386
0
LINE
8
BLACK
6
CONTINUOUS
10
85.5052
20
-136.386
11
85.41
21
-136.005
0
LINE
8
BLACK
6
CONTINUOUS
10
85.41
20
-136.005
11
85.41
21
-135.528
0
LINE
8
BLACK
6
CONTINUOUS
10
85.41
20
-135.528
11
85.5052
21
-135.148
0
LINE
8
BLACK
6
CONTINUOUS
10
85.5052
20
-135.148
11
85.6004
21
-134.957
0
LINE
8
BLACK
6
CONTINUOUS
10
85.6004
20
-134.957
11
85.6957
21
-134.862
0
LINE
8
BLACK
6
CONTINUOUS
10
85.6957
20
-134.862
11
85.8862
21
-134.767
0
LINE
8
BLACK
6
CONTINUOUS
10
87.41
20
-136.576
11
87.5052
21
-136.671
0
LINE
8
BLACK
6
CONTINUOUS
10
87.5052
20
-136.671
11
87.41
21
-136.767
0
LINE
8
BLACK
6
CONTINUOUS
10
87.41
20
-136.767
11
87.3147
21
-136.671
0
LINE
8
BLACK
6
CONTINUOUS
10
87.3147
20
-136.671
11
87.41
21
-136.576
0
LINE
8
BLACK
6
CONTINUOUS
10
87.41
20
-136.576
11
87.41
21
-136.767
0
LINE
8
BLACK
6
CONTINUOUS
10
88.7433
20
-134.767
11
88.9338
21
-134.767
0
LINE
8
BLACK
6
CONTINUOUS
10
88.9338
20
-134.767
11
89.1243
21
-134.862
0
LINE
8
BLACK
6
CONTINUOUS
10
89.1243
20
-134.862
11
89.2195
21
-134.957
0
LINE
8
BLACK
6
CONTINUOUS
10
89.2195
20
-134.957
11
89.3147
21
-135.148
0
LINE
8
BLACK
6
CONTINUOUS
10
89.3147
20
-135.148
11
89.41
21
-135.528
0
LINE
8
BLACK
6
CONTINUOUS
10
89.41
20
-135.528
11
89.41
21
-136.005
0
LINE
8
BLACK
6
CONTINUOUS
10
89.41
20
-136.005
11
89.3147
21
-136.386
0
LINE
8
BLACK
6
CONTINUOUS
10
89.3147
20
-136.386
11
89.2195
21
-136.576
0
LINE
8
BLACK
6
CONTINUOUS
10
89.2195
20
-136.576
11
89.1243
21
-136.671
0
LINE
8
BLACK
6
CONTINUOUS
10
89.1243
20
-136.671
11
88.9338
21
-136.767
0
LINE
8
BLACK
6
CONTINUOUS
10
88.9338
20
-136.767
11
88.7433
21
-136.767
0
LINE
8
BLACK
6
CONTINUOUS
10
88.7433
20
-136.767
11
88.5528
21
-136.671
0
LINE
8
BLACK
6
CONTINUOUS
10
88.5528
20
-136.671
11
88.4576
21
-136.576
0
LINE
8
BLACK
6
CONTINUOUS
10
88.4576
20
-136.576
11
88.3624
21
-136.386
0
LINE
8
BLACK
6
CONTINUOUS
10
88.3624
20
-136.386
11
88.2671
21
-136.005
0
LINE
8
BLACK
6
CONTINUOUS
10
88.2671
20
-136.005
11
88.2671
21
-135.528
0
LINE
8
BLACK
6
CONTINUOUS
10
88.2671
20
-135.528
11
88.3624
21
-135.148
0
LINE
8
BLACK
6
CONTINUOUS
10
88.3624
20
-135.148
11
88.4576
21
-134.957
0
LINE
8
BLACK
6
CONTINUOUS
10
88.4576
20
-134.957
11
88.5528
21
-134.862
0
LINE
8
BLACK
6
CONTINUOUS
10
88.5528
20
-134.862
11
88.7433
21
-134.767
0
LINE
8
BLACK
6
CONTINUOUS
10
90.0766
20
-134.767
11
91.3147
21
-134.767
0
LINE
8
BLACK
6
CONTINUOUS
10
91.3147
20
-134.767
11
90.6481
21
-135.528
0
LINE
8
BLACK
6
CONTINUOUS
10
90.6481
20
-135.528
11
90.9338
21
-135.528
0
LINE
8
BLACK
6
CONTINUOUS
10
90.9338
20
-135.528
11
91.1243
21
-135.624
0
LINE
8
BLACK
6
CONTINUOUS
10
91.1243
20
-135.624
11
91.2195
21
-135.719
0
LINE
8
BLACK
6
CONTINUOUS
10
91.2195
20
-135.719
11
91.3147
21
-135.909
0
LINE
8
BLACK
6
CONTINUOUS
10
91.3147
20
-135.909
11
91.3147
21
-136.386
0
LINE
8
BLACK
6
CONTINUOUS
10
91.3147
20
-136.386
11
91.2195
21
-136.576
0
LINE
8
BLACK
6
CONTINUOUS
10
91.2195
20
-136.576
11
91.1243
21
-136.671
0
LINE
8
BLACK
6
CONTINUOUS
10
91.1243
20
-136.671
11
90.9338
21
-136.767
0
LINE
8
BLACK
6
CONTINUOUS
10
90.9338
20
-136.767
11
90.3624
21
-136.767
0
LINE
8
BLACK
6
CONTINUOUS
10
90.3624
20
-136.767
11
90.1719
21
-136.671
0
LINE
8
BLACK
6
CONTINUOUS
10
90.1719
20
-136.671
11
90.0766
21
-136.576
0
LINE
8
BLACK
6
CONTINUOUS
10
93.1243
20
-134.767
11
92.1719
21
-134.767
0
LINE
8
BLACK
6
CONTINUOUS
10
92.1719
20
-134.767
11
92.0766
21
-135.719
0
LINE
8
BLACK
6
CONTINUOUS
10
92.0766
20
-135.719
11
92.1719
21
-135.624
0
LINE
8
BLACK
6
CONTINUOUS
10
92.1719
20
-135.624
11
92.3624
21
-135.528
0
LINE
8
BLACK
6
CONTINUOUS
10
92.3624
20
-135.528
11
92.8385
21
-135.528
0
LINE
8
BLACK
6
CONTINUOUS
10
92.8385
20
-135.528
11
93.029
21
-135.624
0
LINE
8
BLACK
6
CONTINUOUS
10
93.029
20
-135.624
11
93.1243
21
-135.719
0
LINE
8
BLACK
6
CONTINUOUS
10
93.1243
20
-135.719
11
93.2195
21
-135.909
0
LINE
8
BLACK
6
CONTINUOUS
10
93.2195
20
-135.909
11
93.2195
21
-136.386
0
LINE
8
BLACK
6
CONTINUOUS
10
93.2195
20
-136.386
11
93.1243
21
-136.576
0
LINE
8
BLACK
6
CONTINUOUS
10
93.1243
20
-136.576
11
93.029
21
-136.671
0
LINE
8
BLACK
6
CONTINUOUS
10
93.029
20
-136.671
11
92.8385
21
-136.767
0
LINE
8
BLACK
6
CONTINUOUS
10
92.8385
20
-136.767
11
92.3624
21
-136.767
0
LINE
8
BLACK
6
CONTINUOUS
10
92.3624
20
-136.767
11
92.1719
21
-136.671
0
LINE
8
BLACK
6
CONTINUOUS
10
92.1719
20
-136.671
11
92.0766
21
-136.576
0
LINE
8
BLACK
6
CONTINUOUS
10
94.9338
20
-135.433
11
94.9338
21
-136.767
0
LINE
8
BLACK
6
CONTINUOUS
10
94.4576
20
-134.671
11
93.9814
21
-136.1
0
LINE
8
BLACK
6
CONTINUOUS
10
93.9814
20
-136.1
11
95.2195
21
-136.1
0
LINE
8
BLACK
6
CONTINUOUS
10
95.8862
20
-134.767
11
95.8862
21
-135.148
0
LINE
8
BLACK
6
CONTINUOUS
10
96.6481
20
-134.767
11
96.6481
21
-135.148
0
LINE
8
BLACK
6
CONTINUOUS
10
99.6004
20
-137.528
11
99.5052
21
-137.433
0
LINE
8
BLACK
6
CONTINUOUS
10
99.5052
20
-137.433
11
99.3147
21
-137.148
0
LINE
8
BLACK
6
CONTINUOUS
10
99.3147
20
-137.148
11
99.2195
21
-136.957
0
LINE
8
BLACK
6
CONTINUOUS
10
99.2195
20
-136.957
11
99.1243
21
-136.671
0
LINE
8
BLACK
6
CONTINUOUS
10
99.1243
20
-136.671
11
99.029
21
-136.195
0
LINE
8
BLACK
6
CONTINUOUS
10
99.029
20
-136.195
11
99.029
21
-135.814
0
LINE
8
BLACK
6
CONTINUOUS
10
99.029
20
-135.814
11
99.1243
21
-135.338
0
LINE
8
BLACK
6
CONTINUOUS
10
99.1243
20
-135.338
11
99.2195
21
-135.052
0
LINE
8
BLACK
6
CONTINUOUS
10
99.2195
20
-135.052
11
99.3147
21
-134.862
0
LINE
8
BLACK
6
CONTINUOUS
10
99.3147
20
-134.862
11
99.5052
21
-134.576
0
LINE
8
BLACK
6
CONTINUOUS
10
99.5052
20
-134.576
11
99.6004
21
-134.481
0
LINE
8
BLACK
6
CONTINUOUS
10
101.219
20
-135.433
11
101.219
21
-136.767
0
LINE
8
BLACK
6
CONTINUOUS
10
100.743
20
-134.671
11
100.267
21
-136.1
0
LINE
8
BLACK
6
CONTINUOUS
10
100.267
20
-136.1
11
101.505
21
-136.1
0
LINE
8
BLACK
6
CONTINUOUS
10
103.124
20
-134.767
11
102.743
21
-134.767
0
LINE
8
BLACK
6
CONTINUOUS
10
102.743
20
-134.767
11
102.553
21
-134.862
0
LINE
8
BLACK
6
CONTINUOUS
10
102.553
20
-134.862
11
102.458
21
-134.957
0
LINE
8
BLACK
6
CONTINUOUS
10
102.458
20
-134.957
11
102.267
21
-135.243
0
LINE
8
BLACK
6
CONTINUOUS
10
102.267
20
-135.243
11
102.172
21
-135.624
0
LINE
8
BLACK
6
CONTINUOUS
10
102.172
20
-135.624
11
102.172
21
-136.386
0
LINE
8
BLACK
6
CONTINUOUS
10
102.172
20
-136.386
11
102.267
21
-136.576
0
LINE
8
BLACK
6
CONTINUOUS
10
102.267
20
-136.576
11
102.362
21
-136.671
0
LINE
8
BLACK
6
CONTINUOUS
10
102.362
20
-136.671
11
102.553
21
-136.767
0
LINE
8
BLACK
6
CONTINUOUS
10
102.553
20
-136.767
11
102.934
21
-136.767
0
LINE
8
BLACK
6
CONTINUOUS
10
102.934
20
-136.767
11
103.124
21
-136.671
0
LINE
8
BLACK
6
CONTINUOUS
10
103.124
20
-136.671
11
103.219
21
-136.576
0
LINE
8
BLACK
6
CONTINUOUS
10
103.219
20
-136.576
11
103.315
21
-136.386
0
LINE
8
BLACK
6
CONTINUOUS
10
103.315
20
-136.386
11
103.315
21
-135.909
0
LINE
8
BLACK
6
CONTINUOUS
10
103.315
20
-135.909
11
103.219
21
-135.719
0
LINE
8
BLACK
6
CONTINUOUS
10
103.219
20
-135.719
11
103.124
21
-135.624
0
LINE
8
BLACK
6
CONTINUOUS
10
103.124
20
-135.624
11
102.934
21
-135.528
0
LINE
8
BLACK
6
CONTINUOUS
10
102.934
20
-135.528
11
102.553
21
-135.528
0
LINE
8
BLACK
6
CONTINUOUS
10
102.553
20
-135.528
11
102.362
21
-135.624
0
LINE
8
BLACK
6
CONTINUOUS
10
102.362
20
-135.624
11
102.267
21
-135.719
0
LINE
8
BLACK
6
CONTINUOUS
10
102.267
20
-135.719
11
102.172
21
-135.909
0
LINE
8
BLACK
6
CONTINUOUS
10
105.696
20
-136.767
11
105.696
21
-134.767
0
LINE
8
BLACK
6
CONTINUOUS
10
106.553
20
-136.767
11
106.553
21
-135.719
0
LINE
8
BLACK
6
CONTINUOUS
10
106.553
20
-135.719
11
106.458
21
-135.528
0
LINE
8
BLACK
6
CONTINUOUS
10
106.458
20
-135.528
11
106.267
21
-135.433
0
LINE
8
BLACK
6
CONTINUOUS
10
106.267
20
-135.433
11
105.981
21
-135.433
0
LINE
8
BLACK
6
CONTINUOUS
10
105.981
20
-135.433
11
105.791
21
-135.528
0
LINE
8
BLACK
6
CONTINUOUS
10
105.791
20
-135.528
11
105.696
21
-135.624
0
LINE
8
BLACK
6
CONTINUOUS
10
107.791
20
-136.767
11
107.6
21
-136.671
0
LINE
8
BLACK
6
CONTINUOUS
10
107.6
20
-136.671
11
107.505
21
-136.576
0
LINE
8
BLACK
6
CONTINUOUS
10
107.505
20
-136.576
11
107.41
21
-136.386
0
LINE
8
BLACK
6
CONTINUOUS
10
107.41
20
-136.386
11
107.41
21
-135.814
0
LINE
8
BLACK
6
CONTINUOUS
10
107.41
20
-135.814
11
107.505
21
-135.624
0
LINE
8
BLACK
6
CONTINUOUS
10
107.505
20
-135.624
11
107.6
21
-135.528
0
LINE
8
BLACK
6
CONTINUOUS
10
107.6
20
-135.528
11
107.791
21
-135.433
0
LINE
8
BLACK
6
CONTINUOUS
10
107.791
20
-135.433
11
108.077
21
-135.433
0
LINE
8
BLACK
6
CONTINUOUS
10
108.077
20
-135.433
11
108.267
21
-135.528
0
LINE
8
BLACK
6
CONTINUOUS
10
108.267
20
-135.528
11
108.362
21
-135.624
0
LINE
8
BLACK
6
CONTINUOUS
10
108.362
20
-135.624
11
108.458
21
-135.814
0
LINE
8
BLACK
6
CONTINUOUS
10
108.458
20
-135.814
11
108.458
21
-136.386
0
LINE
8
BLACK
6
CONTINUOUS
10
108.458
20
-136.386
11
108.362
21
-136.576
0
LINE
8
BLACK
6
CONTINUOUS
10
108.362
20
-136.576
11
108.267
21
-136.671
0
LINE
8
BLACK
6
CONTINUOUS
10
108.267
20
-136.671
11
108.077
21
-136.767
0
LINE
8
BLACK
6
CONTINUOUS
10
108.077
20
-136.767
11
107.791
21
-136.767
0
LINE
8
BLACK
6
CONTINUOUS
10
109.6
20
-136.767
11
109.41
21
-136.671
0
LINE
8
BLACK
6
CONTINUOUS
10
109.41
20
-136.671
11
109.315
21
-136.481
0
LINE
8
BLACK
6
CONTINUOUS
10
109.315
20
-136.481
11
109.315
21
-134.767
0
LINE
8
BLACK
6
CONTINUOUS
10
111.124
20
-136.671
11
110.934
21
-136.767
0
LINE
8
BLACK
6
CONTINUOUS
10
110.934
20
-136.767
11
110.553
21
-136.767
0
LINE
8
BLACK
6
CONTINUOUS
10
110.553
20
-136.767
11
110.362
21
-136.671
0
LINE
8
BLACK
6
CONTINUOUS
10
110.362
20
-136.671
11
110.267
21
-136.481
0
LINE
8
BLACK
6
CONTINUOUS
10
110.267
20
-136.481
11
110.267
21
-135.719
0
LINE
8
BLACK
6
CONTINUOUS
10
110.267
20
-135.719
11
110.362
21
-135.528
0
LINE
8
BLACK
6
CONTINUOUS
10
110.362
20
-135.528
11
110.553
21
-135.433
0
LINE
8
BLACK
6
CONTINUOUS
10
110.553
20
-135.433
11
110.934
21
-135.433
0
LINE
8
BLACK
6
CONTINUOUS
10
110.934
20
-135.433
11
111.124
21
-135.528
0
LINE
8
BLACK
6
CONTINUOUS
10
111.124
20
-135.528
11
111.219
21
-135.719
0
LINE
8
BLACK
6
CONTINUOUS
10
111.219
20
-135.719
11
111.219
21
-135.909
0
LINE
8
BLACK
6
CONTINUOUS
10
111.219
20
-135.909
11
110.267
21
-136.1
0
LINE
8
BLACK
6
CONTINUOUS
10
111.981
20
-136.671
11
112.172
21
-136.767
0
LINE
8
BLACK
6
CONTINUOUS
10
112.172
20
-136.767
11
112.553
21
-136.767
0
LINE
8
BLACK
6
CONTINUOUS
10
112.553
20
-136.767
11
112.743
21
-136.671
0
LINE
8
BLACK
6
CONTINUOUS
10
112.743
20
-136.671
11
112.839
21
-136.481
0
LINE
8
BLACK
6
CONTINUOUS
10
112.839
20
-136.481
11
112.839
21
-136.386
0
LINE
8
BLACK
6
CONTINUOUS
10
112.839
20
-136.386
11
112.743
21
-136.195
0
LINE
8
BLACK
6
CONTINUOUS
10
112.743
20
-136.195
11
112.553
21
-136.1
0
LINE
8
BLACK
6
CONTINUOUS
10
112.553
20
-136.1
11
112.267
21
-136.1
0
LINE
8
BLACK
6
CONTINUOUS
10
112.267
20
-136.1
11
112.077
21
-136.005
0
LINE
8
BLACK
6
CONTINUOUS
10
112.077
20
-136.005
11
111.981
21
-135.814
0
LINE
8
BLACK
6
CONTINUOUS
10
111.981
20
-135.814
11
111.981
21
-135.719
0
LINE
8
BLACK
6
CONTINUOUS
10
111.981
20
-135.719
11
112.077
21
-135.528
0
LINE
8
BLACK
6
CONTINUOUS
10
112.077
20
-135.528
11
112.267
21
-135.433
0
LINE
8
BLACK
6
CONTINUOUS
10
112.267
20
-135.433
11
112.553
21
-135.433
0
LINE
8
BLACK
6
CONTINUOUS
10
112.553
20
-135.433
11
112.743
21
-135.528
0
LINE
8
BLACK
6
CONTINUOUS
10
113.505
20
-137.528
11
113.6
21
-137.433
0
LINE
8
BLACK
6
CONTINUOUS
10
113.6
20
-137.433
11
113.791
21
-137.148
0
LINE
8
BLACK
6
CONTINUOUS
10
113.791
20
-137.148
11
113.886
21
-136.957
0
LINE
8
BLACK
6
CONTINUOUS
10
113.886
20
-136.957
11
113.981
21
-136.671
0
LINE
8
BLACK
6
CONTINUOUS
10
113.981
20
-136.671
11
114.077
21
-136.195
0
LINE
8
BLACK
6
CONTINUOUS
10
114.077
20
-136.195
11
114.077
21
-135.814
0
LINE
8
BLACK
6
CONTINUOUS
10
114.077
20
-135.814
11
113.981
21
-135.338
0
LINE
8
BLACK
6
CONTINUOUS
10
113.981
20
-135.338
11
113.886
21
-135.052
0
LINE
8
BLACK
6
CONTINUOUS
10
113.886
20
-135.052
11
113.791
21
-134.862
0
LINE
8
BLACK
6
CONTINUOUS
10
113.791
20
-134.862
11
113.6
21
-134.576
0
LINE
8
BLACK
6
CONTINUOUS
10
113.6
20
-134.576
11
113.505
21
-134.481
0
LINE
8
BLACK
6
CONTINUOUS
10
63.2864
20
-137.907
11
63.2864
21
-139.097
0
LINE
8
BLACK
6
CONTINUOUS
10
62.6914
20
-138.502
11
63.8814
21
-138.502
0
LINE
8
BLACK
6
CONTINUOUS
10
67.5052
20
-139.407
11
66.3624
21
-139.407
0
LINE
8
BLACK
6
CONTINUOUS
10
66.9338
20
-139.407
11
66.9338
21
-137.407
0
LINE
8
BLACK
6
CONTINUOUS
10
66.9338
20
-137.407
11
66.7433
21
-137.692
0
LINE
8
BLACK
6
CONTINUOUS
10
66.7433
20
-137.692
11
66.5528
21
-137.883
0
LINE
8
BLACK
6
CONTINUOUS
10
66.5528
20
-137.883
11
66.3624
21
-137.978
0
LINE
8
BLACK
6
CONTINUOUS
10
68.3624
20
-139.216
11
68.4576
21
-139.311
0
LINE
8
BLACK
6
CONTINUOUS
10
68.4576
20
-139.311
11
68.3624
21
-139.407
0
LINE
8
BLACK
6
CONTINUOUS
10
68.3624
20
-139.407
11
68.2671
21
-139.311
0
LINE
8
BLACK
6
CONTINUOUS
10
68.2671
20
-139.311
11
68.3624
21
-139.216
0
LINE
8
BLACK
6
CONTINUOUS
10
68.3624
20
-139.216
11
68.3624
21
-139.407
0
LINE
8
BLACK
6
CONTINUOUS
10
70.3624
20
-139.407
11
69.2195
21
-139.407
0
LINE
8
BLACK
6
CONTINUOUS
10
69.7909
20
-139.407
11
69.7909
21
-137.407
0
LINE
8
BLACK
6
CONTINUOUS
10
69.7909
20
-137.407
11
69.6004
21
-137.692
0
LINE
8
BLACK
6
CONTINUOUS
10
69.6004
20
-137.692
11
69.41
21
-137.883
0
LINE
8
BLACK
6
CONTINUOUS
10
69.41
20
-137.883
11
69.2195
21
-137.978
0
LINE
8
BLACK
6
CONTINUOUS
10
71.3147
20
-139.407
11
71.6957
21
-139.407
0
LINE
8
BLACK
6
CONTINUOUS
10
71.6957
20
-139.407
11
71.8862
21
-139.311
0
LINE
8
BLACK
6
CONTINUOUS
10
71.8862
20
-139.311
11
71.9814
21
-139.216
0
LINE
8
BLACK
6
CONTINUOUS
10
71.9814
20
-139.216
11
72.1719
21
-138.93
0
LINE
8
BLACK
6
CONTINUOUS
10
72.1719
20
-138.93
11
72.2671
21
-138.549
0
LINE
8
BLACK
6
CONTINUOUS
10
72.2671
20
-138.549
11
72.2671
21
-137.788
0
LINE
8
BLACK
6
CONTINUOUS
10
72.2671
20
-137.788
11
72.1719
21
-137.597
0
LINE
8
BLACK
6
CONTINUOUS
10
72.1719
20
-137.597
11
72.0766
21
-137.502
0
LINE
8
BLACK
6
CONTINUOUS
10
72.0766
20
-137.502
11
71.8862
21
-137.407
0
LINE
8
BLACK
6
CONTINUOUS
10
71.8862
20
-137.407
11
71.5052
21
-137.407
0
LINE
8
BLACK
6
CONTINUOUS
10
71.5052
20
-137.407
11
71.3147
21
-137.502
0
LINE
8
BLACK
6
CONTINUOUS
10
71.3147
20
-137.502
11
71.2195
21
-137.597
0
LINE
8
BLACK
6
CONTINUOUS
10
71.2195
20
-137.597
11
71.1243
21
-137.788
0
LINE
8
BLACK
6
CONTINUOUS
10
71.1243
20
-137.788
11
71.1243
21
-138.264
0
LINE
8
BLACK
6
CONTINUOUS
10
71.1243
20
-138.264
11
71.2195
21
-138.454
0
LINE
8
BLACK
6
CONTINUOUS
10
71.2195
20
-138.454
11
71.3147
21
-138.549
0
LINE
8
BLACK
6
CONTINUOUS
10
71.3147
20
-138.549
11
71.5052
21
-138.645
0
LINE
8
BLACK
6
CONTINUOUS
10
71.5052
20
-138.645
11
71.8862
21
-138.645
0
LINE
8
BLACK
6
CONTINUOUS
10
71.8862
20
-138.645
11
72.0766
21
-138.549
0
LINE
8
BLACK
6
CONTINUOUS
10
72.0766
20
-138.549
11
72.1719
21
-138.454
0
LINE
8
BLACK
6
CONTINUOUS
10
72.1719
20
-138.454
11
72.2671
21
-138.264
0
LINE
8
BLACK
6
CONTINUOUS
10
73.5052
20
-137.407
11
73.6957
21
-137.407
0
LINE
8
BLACK
6
CONTINUOUS
10
73.6957
20
-137.407
11
73.8862
21
-137.502
0
LINE
8
BLACK
6
CONTINUOUS
10
73.8862
20
-137.502
11
73.9814
21
-137.597
0
LINE
8
BLACK
6
CONTINUOUS
10
73.9814
20
-137.597
11
74.0766
21
-137.788
0
LINE
8
BLACK
6
CONTINUOUS
10
74.0766
20
-137.788
11
74.1719
21
-138.168
0
LINE
8
BLACK
6
CONTINUOUS
10
74.1719
20
-138.168
11
74.1719
21
-138.645
0
LINE
8
BLACK
6
CONTINUOUS
10
74.1719
20
-138.645
11
74.0766
21
-139.026
0
LINE
8
BLACK
6
CONTINUOUS
10
74.0766
20
-139.026
11
73.9814
21
-139.216
0
LINE
8
BLACK
6
CONTINUOUS
10
73.9814
20
-139.216
11
73.8862
21
-139.311
0
LINE
8
BLACK
6
CONTINUOUS
10
73.8862
20
-139.311
11
73.6957
21
-139.407
0
LINE
8
BLACK
6
CONTINUOUS
10
73.6957
20
-139.407
11
73.5052
21
-139.407
0
LINE
8
BLACK
6
CONTINUOUS
10
73.5052
20
-139.407
11
73.3147
21
-139.311
0
LINE
8
BLACK
6
CONTINUOUS
10
73.3147
20
-139.311
11
73.2195
21
-139.216
0
LINE
8
BLACK
6
CONTINUOUS
10
73.2195
20
-139.216
11
73.1243
21
-139.026
0
LINE
8
BLACK
6
CONTINUOUS
10
73.1243
20
-139.026
11
73.029
21
-138.645
0
LINE
8
BLACK
6
CONTINUOUS
10
73.029
20
-138.645
11
73.029
21
-138.168
0
LINE
8
BLACK
6
CONTINUOUS
10
73.029
20
-138.168
11
73.1243
21
-137.788
0
LINE
8
BLACK
6
CONTINUOUS
10
73.1243
20
-137.788
11
73.2195
21
-137.597
0
LINE
8
BLACK
6
CONTINUOUS
10
73.2195
20
-137.597
11
73.3147
21
-137.502
0
LINE
8
BLACK
6
CONTINUOUS
10
73.3147
20
-137.502
11
73.5052
21
-137.407
0
LINE
8
BLACK
6
CONTINUOUS
10
75.029
20
-139.407
11
75.029
21
-138.073
0
LINE
8
BLACK
6
CONTINUOUS
10
75.029
20
-138.264
11
75.1243
21
-138.168
0
LINE
8
BLACK
6
CONTINUOUS
10
75.1243
20
-138.168
11
75.3147
21
-138.073
0
LINE
8
BLACK
6
CONTINUOUS
10
75.3147
20
-138.073
11
75.6004
21
-138.073
0
LINE
8
BLACK
6
CONTINUOUS
10
75.6004
20
-138.073
11
75.7909
21
-138.168
0
LINE
8
BLACK
6
CONTINUOUS
10
75.7909
20
-138.168
11
75.8862
21
-138.359
0
LINE
8
BLACK
6
CONTINUOUS
10
75.8862
20
-138.359
11
75.8862
21
-139.407
0
LINE
8
BLACK
6
CONTINUOUS
10
75.8862
20
-138.359
11
75.9814
21
-138.168
0
LINE
8
BLACK
6
CONTINUOUS
10
75.9814
20
-138.168
11
76.1719
21
-138.073
0
LINE
8
BLACK
6
CONTINUOUS
10
76.1719
20
-138.073
11
76.4576
21
-138.073
0
LINE
8
BLACK
6
CONTINUOUS
10
76.4576
20
-138.073
11
76.6481
21
-138.168
0
LINE
8
BLACK
6
CONTINUOUS
10
76.6481
20
-138.168
11
76.7433
21
-138.359
0
LINE
8
BLACK
6
CONTINUOUS
10
76.7433
20
-138.359
11
76.7433
21
-139.407
0
LINE
8
BLACK
6
CONTINUOUS
10
77.6957
20
-139.407
11
77.6957
21
-138.073
0
LINE
8
BLACK
6
CONTINUOUS
10
77.6957
20
-138.264
11
77.7909
21
-138.168
0
LINE
8
BLACK
6
CONTINUOUS
10
77.7909
20
-138.168
11
77.9814
21
-138.073
0
LINE
8
BLACK
6
CONTINUOUS
10
77.9814
20
-138.073
11
78.2671
21
-138.073
0
LINE
8
BLACK
6
CONTINUOUS
10
78.2671
20
-138.073
11
78.4576
21
-138.168
0
LINE
8
BLACK
6
CONTINUOUS
10
78.4576
20
-138.168
11
78.5528
21
-138.359
0
LINE
8
BLACK
6
CONTINUOUS
10
78.5528
20
-138.359
11
78.5528
21
-139.407
0
LINE
8
BLACK
6
CONTINUOUS
10
78.5528
20
-138.359
11
78.6481
21
-138.168
0
LINE
8
BLACK
6
CONTINUOUS
10
78.6481
20
-138.168
11
78.8385
21
-138.073
0
LINE
8
BLACK
6
CONTINUOUS
10
78.8385
20
-138.073
11
79.1243
21
-138.073
0
LINE
8
BLACK
6
CONTINUOUS
10
79.1243
20
-138.073
11
79.3147
21
-138.168
0
LINE
8
BLACK
6
CONTINUOUS
10
79.3147
20
-138.168
11
79.41
21
-138.359
0
LINE
8
BLACK
6
CONTINUOUS
10
79.41
20
-138.359
11
79.41
21
-139.407
0
LINE
8
BLACK
6
CONTINUOUS
10
83.3147
20
-137.311
11
81.6004
21
-139.883
0
LINE
8
BLACK
6
CONTINUOUS
10
85.8862
20
-137.407
11
86.0766
21
-137.407
0
LINE
8
BLACK
6
CONTINUOUS
10
86.0766
20
-137.407
11
86.2671
21
-137.502
0
LINE
8
BLACK
6
CONTINUOUS
10
86.2671
20
-137.502
11
86.3624
21
-137.597
0
LINE
8
BLACK
6
CONTINUOUS
10
86.3624
20
-137.597
11
86.4576
21
-137.788
0
LINE
8
BLACK
6
CONTINUOUS
10
86.4576
20
-137.788
11
86.5528
21
-138.168
0
LINE
8
BLACK
6
CONTINUOUS
10
86.5528
20
-138.168
11
86.5528
21
-138.645
0
LINE
8
BLACK
6
CONTINUOUS
10
86.5528
20
-138.645
11
86.4576
21
-139.026
0
LINE
8
BLACK
6
CONTINUOUS
10
86.4576
20
-139.026
11
86.3624
21
-139.216
0
LINE
8
BLACK
6
CONTINUOUS
10
86.3624
20
-139.216
11
86.2671
21
-139.311
0
LINE
8
BLACK
6
CONTINUOUS
10
86.2671
20
-139.311
11
86.0766
21
-139.407
0
LINE
8
BLACK
6
CONTINUOUS
10
86.0766
20
-139.407
11
85.8862
21
-139.407
0
LINE
8
BLACK
6
CONTINUOUS
10
85.8862
20
-139.407
11
85.6957
21
-139.311
0
LINE
8
BLACK
6
CONTINUOUS
10
85.6957
20
-139.311
11
85.6004
21
-139.216
0
LINE
8
BLACK
6
CONTINUOUS
10
85.6004
20
-139.216
11
85.5052
21
-139.026
0
LINE
8
BLACK
6
CONTINUOUS
10
85.5052
20
-139.026
11
85.41
21
-138.645
0
LINE
8
BLACK
6
CONTINUOUS
10
85.41
20
-138.645
11
85.41
21
-138.168
0
LINE
8
BLACK
6
CONTINUOUS
10
85.41
20
-138.168
11
85.5052
21
-137.788
0
LINE
8
BLACK
6
CONTINUOUS
10
85.5052
20
-137.788
11
85.6004
21
-137.597
0
LINE
8
BLACK
6
CONTINUOUS
10
85.6004
20
-137.597
11
85.6957
21
-137.502
0
LINE
8
BLACK
6
CONTINUOUS
10
85.6957
20
-137.502
11
85.8862
21
-137.407
0
LINE
8
BLACK
6
CONTINUOUS
10
87.41
20
-139.216
11
87.5052
21
-139.311
0
LINE
8
BLACK
6
CONTINUOUS
10
87.5052
20
-139.311
11
87.41
21
-139.407
0
LINE
8
BLACK
6
CONTINUOUS
10
87.41
20
-139.407
11
87.3147
21
-139.311
0
LINE
8
BLACK
6
CONTINUOUS
10
87.3147
20
-139.311
11
87.41
21
-139.216
0
LINE
8
BLACK
6
CONTINUOUS
10
87.41
20
-139.216
11
87.41
21
-139.407
0
LINE
8
BLACK
6
CONTINUOUS
10
88.7433
20
-137.407
11
88.9338
21
-137.407
0
LINE
8
BLACK
6
CONTINUOUS
10
88.9338
20
-137.407
11
89.1243
21
-137.502
0
LINE
8
BLACK
6
CONTINUOUS
10
89.1243
20
-137.502
11
89.2195
21
-137.597
0
LINE
8
BLACK
6
CONTINUOUS
10
89.2195
20
-137.597
11
89.3147
21
-137.788
0
LINE
8
BLACK
6
CONTINUOUS
10
89.3147
20
-137.788
11
89.41
21
-138.168
0
LINE
8
BLACK
6
CONTINUOUS
10
89.41
20
-138.168
11
89.41
21
-138.645
0
LINE
8
BLACK
6
CONTINUOUS
10
89.41
20
-138.645
11
89.3147
21
-139.026
0
LINE
8
BLACK
6
CONTINUOUS
10
89.3147
20
-139.026
11
89.2195
21
-139.216
0
LINE
8
BLACK
6
CONTINUOUS
10
89.2195
20
-139.216
11
89.1243
21
-139.311
0
LINE
8
BLACK
6
CONTINUOUS
10
89.1243
20
-139.311
11
88.9338
21
-139.407
0
LINE
8
BLACK
6
CONTINUOUS
10
88.9338
20
-139.407
11
88.7433
21
-139.407
0
LINE
8
BLACK
6
CONTINUOUS
10
88.7433
20
-139.407
11
88.5528
21
-139.311
0
LINE
8
BLACK
6
CONTINUOUS
10
88.5528
20
-139.311
11
88.4576
21
-139.216
0
LINE
8
BLACK
6
CONTINUOUS
10
88.4576
20
-139.216
11
88.3624
21
-139.026
0
LINE
8
BLACK
6
CONTINUOUS
10
88.3624
20
-139.026
11
88.2671
21
-138.645
0
LINE
8
BLACK
6
CONTINUOUS
10
88.2671
20
-138.645
11
88.2671
21
-138.168
0
LINE
8
BLACK
6
CONTINUOUS
10
88.2671
20
-138.168
11
88.3624
21
-137.788
0
LINE
8
BLACK
6
CONTINUOUS
10
88.3624
20
-137.788
11
88.4576
21
-137.597
0
LINE
8
BLACK
6
CONTINUOUS
10
88.4576
20
-137.597
11
88.5528
21
-137.502
0
LINE
8
BLACK
6
CONTINUOUS
10
88.5528
20
-137.502
11
88.7433
21
-137.407
0
LINE
8
BLACK
6
CONTINUOUS
10
91.1243
20
-138.073
11
91.1243
21
-139.407
0
LINE
8
BLACK
6
CONTINUOUS
10
90.6481
20
-137.311
11
90.1719
21
-138.74
0
LINE
8
BLACK
6
CONTINUOUS
10
90.1719
20
-138.74
11
91.41
21
-138.74
0
LINE
8
BLACK
6
CONTINUOUS
10
93.029
20
-137.407
11
92.6481
21
-137.407
0
LINE
8
BLACK
6
CONTINUOUS
10
92.6481
20
-137.407
11
92.4576
21
-137.502
0
LINE
8
BLACK
6
CONTINUOUS
10
92.4576
20
-137.502
11
92.3624
21
-137.597
0
LINE
8
BLACK
6
CONTINUOUS
10
92.3624
20
-137.597
11
92.1719
21
-137.883
0
LINE
8
BLACK
6
CONTINUOUS
10
92.1719
20
-137.883
11
92.0766
21
-138.264
0
LINE
8
BLACK
6
CONTINUOUS
10
92.0766
20
-138.264
11
92.0766
21
-139.026
0
LINE
8
BLACK
6
CONTINUOUS
10
92.0766
20
-139.026
11
92.1719
21
-139.216
0
LINE
8
BLACK
6
CONTINUOUS
10
92.1719
20
-139.216
11
92.2671
21
-139.311
0
LINE
8
BLACK
6
CONTINUOUS
10
92.2671
20
-139.311
11
92.4576
21
-139.407
0
LINE
8
BLACK
6
CONTINUOUS
10
92.4576
20
-139.407
11
92.8385
21
-139.407
0
LINE
8
BLACK
6
CONTINUOUS
10
92.8385
20
-139.407
11
93.029
21
-139.311
0
LINE
8
BLACK
6
CONTINUOUS
10
93.029
20
-139.311
11
93.1243
21
-139.216
0
LINE
8
BLACK
6
CONTINUOUS
10
93.1243
20
-139.216
11
93.2195
21
-139.026
0
LINE
8
BLACK
6
CONTINUOUS
10
93.2195
20
-139.026
11
93.2195
21
-138.549
0
LINE
8
BLACK
6
CONTINUOUS
10
93.2195
20
-138.549
11
93.1243
21
-138.359
0
LINE
8
BLACK
6
CONTINUOUS
10
93.1243
20
-138.359
11
93.029
21
-138.264
0
LINE
8
BLACK
6
CONTINUOUS
10
93.029
20
-138.264
11
92.8385
21
-138.168
0
LINE
8
BLACK
6
CONTINUOUS
10
92.8385
20
-138.168
11
92.4576
21
-138.168
0
LINE
8
BLACK
6
CONTINUOUS
10
92.4576
20
-138.168
11
92.2671
21
-138.264
0
LINE
8
BLACK
6
CONTINUOUS
10
92.2671
20
-138.264
11
92.1719
21
-138.359
0
LINE
8
BLACK
6
CONTINUOUS
10
92.1719
20
-138.359
11
92.0766
21
-138.549
0
LINE
8
BLACK
6
CONTINUOUS
10
94.1719
20
-139.407
11
94.5528
21
-139.407
0
LINE
8
BLACK
6
CONTINUOUS
10
94.5528
20
-139.407
11
94.7433
21
-139.311
0
LINE
8
BLACK
6
CONTINUOUS
10
94.7433
20
-139.311
11
94.8385
21
-139.216
0
LINE
8
BLACK
6
CONTINUOUS
10
94.8385
20
-139.216
11
95.029
21
-138.93
0
LINE
8
BLACK
6
CONTINUOUS
10
95.029
20
-138.93
11
95.1243
21
-138.549
0
LINE
8
BLACK
6
CONTINUOUS
10
95.1243
20
-138.549
11
95.1243
21
-137.788
0
LINE
8
BLACK
6
CONTINUOUS
10
95.1243
20
-137.788
11
95.029
21
-137.597
0
LINE
8
BLACK
6
CONTINUOUS
10
95.029
20
-137.597
11
94.9338
21
-137.502
0
LINE
8
BLACK
6
CONTINUOUS
10
94.9338
20
-137.502
11
94.7433
21
-137.407
0
LINE
8
BLACK
6
CONTINUOUS
10
94.7433
20
-137.407
11
94.3624
21
-137.407
0
LINE
8
BLACK
6
CONTINUOUS
10
94.3624
20
-137.407
11
94.1719
21
-137.502
0
LINE
8
BLACK
6
CONTINUOUS
10
94.1719
20
-137.502
11
94.0766
21
-137.597
0
LINE
8
BLACK
6
CONTINUOUS
10
94.0766
20
-137.597
11
93.9814
21
-137.788
0
LINE
8
BLACK
6
CONTINUOUS
10
93.9814
20
-137.788
11
93.9814
21
-138.264
0
LINE
8
BLACK
6
CONTINUOUS
10
93.9814
20
-138.264
11
94.0766
21
-138.454
0
LINE
8
BLACK
6
CONTINUOUS
10
94.0766
20
-138.454
11
94.1719
21
-138.549
0
LINE
8
BLACK
6
CONTINUOUS
10
94.1719
20
-138.549
11
94.3624
21
-138.645
0
LINE
8
BLACK
6
CONTINUOUS
10
94.3624
20
-138.645
11
94.7433
21
-138.645
0
LINE
8
BLACK
6
CONTINUOUS
10
94.7433
20
-138.645
11
94.9338
21
-138.549
0
LINE
8
BLACK
6
CONTINUOUS
10
94.9338
20
-138.549
11
95.029
21
-138.454
0
LINE
8
BLACK
6
CONTINUOUS
10
95.029
20
-138.454
11
95.1243
21
-138.264
0
LINE
8
BLACK
6
CONTINUOUS
10
95.8862
20
-137.407
11
95.8862
21
-137.788
0
LINE
8
BLACK
6
CONTINUOUS
10
96.6481
20
-137.407
11
96.6481
21
-137.788
0
LINE
8
BLACK
6
CONTINUOUS
10
99.6004
20
-140.168
11
99.5052
21
-140.073
0
LINE
8
BLACK
6
CONTINUOUS
10
99.5052
20
-140.073
11
99.3147
21
-139.788
0
LINE
8
BLACK
6
CONTINUOUS
10
99.3147
20
-139.788
11
99.2195
21
-139.597
0
LINE
8
BLACK
6
CONTINUOUS
10
99.2195
20
-139.597
11
99.1243
21
-139.311
0
LINE
8
BLACK
6
CONTINUOUS
10
99.1243
20
-139.311
11
99.029
21
-138.835
0
LINE
8
BLACK
6
CONTINUOUS
10
99.029
20
-138.835
11
99.029
21
-138.454
0
LINE
8
BLACK
6
CONTINUOUS
10
99.029
20
-138.454
11
99.1243
21
-137.978
0
LINE
8
BLACK
6
CONTINUOUS
10
99.1243
20
-137.978
11
99.2195
21
-137.692
0
LINE
8
BLACK
6
CONTINUOUS
10
99.2195
20
-137.692
11
99.3147
21
-137.502
0
LINE
8
BLACK
6
CONTINUOUS
10
99.3147
20
-137.502
11
99.5052
21
-137.216
0
LINE
8
BLACK
6
CONTINUOUS
10
99.5052
20
-137.216
11
99.6004
21
-137.121
0
LINE
8
BLACK
6
CONTINUOUS
10
101.219
20
-138.073
11
101.219
21
-139.407
0
LINE
8
BLACK
6
CONTINUOUS
10
100.743
20
-137.311
11
100.267
21
-138.74
0
LINE
8
BLACK
6
CONTINUOUS
10
100.267
20
-138.74
11
101.505
21
-138.74
0
LINE
8
BLACK
6
CONTINUOUS
10
103.791
20
-139.407
11
103.791
21
-137.407
0
LINE
8
BLACK
6
CONTINUOUS
10
104.648
20
-139.407
11
104.648
21
-138.359
0
LINE
8
BLACK
6
CONTINUOUS
10
104.648
20
-138.359
11
104.553
21
-138.168
0
LINE
8
BLACK
6
CONTINUOUS
10
104.553
20
-138.168
11
104.362
21
-138.073
0
LINE
8
BLACK
6
CONTINUOUS
10
104.362
20
-138.073
11
104.077
21
-138.073
0
LINE
8
BLACK
6
CONTINUOUS
10
104.077
20
-138.073
11
103.886
21
-138.168
0
LINE
8
BLACK
6
CONTINUOUS
10
103.886
20
-138.168
11
103.791
21
-138.264
0
LINE
8
BLACK
6
CONTINUOUS
10
105.886
20
-139.407
11
105.696
21
-139.311
0
LINE
8
BLACK
6
CONTINUOUS
10
105.696
20
-139.311
11
105.6
21
-139.216
0
LINE
8
BLACK
6
CONTINUOUS
10
105.6
20
-139.216
11
105.505
21
-139.026
0
LINE
8
BLACK
6
CONTINUOUS
10
105.505
20
-139.026
11
105.505
21
-138.454
0
LINE
8
BLACK
6
CONTINUOUS
10
105.505
20
-138.454
11
105.6
21
-138.264
0
LINE
8
BLACK
6
CONTINUOUS
10
105.6
20
-138.264
11
105.696
21
-138.168
0
LINE
8
BLACK
6
CONTINUOUS
10
105.696
20
-138.168
11
105.886
21
-138.073
0
LINE
8
BLACK
6
CONTINUOUS
10
105.886
20
-138.073
11
106.172
21
-138.073
0
LINE
8
BLACK
6
CONTINUOUS
10
106.172
20
-138.073
11
106.362
21
-138.168
0
LINE
8
BLACK
6
CONTINUOUS
10
106.362
20
-138.168
11
106.458
21
-138.264
0
LINE
8
BLACK
6
CONTINUOUS
10
106.458
20
-138.264
11
106.553
21
-138.454
0
LINE
8
BLACK
6
CONTINUOUS
10
106.553
20
-138.454
11
106.553
21
-139.026
0
LINE
8
BLACK
6
CONTINUOUS
10
106.553
20
-139.026
11
106.458
21
-139.216
0
LINE
8
BLACK
6
CONTINUOUS
10
106.458
20
-139.216
11
106.362
21
-139.311
0
LINE
8
BLACK
6
CONTINUOUS
10
106.362
20
-139.311
11
106.172
21
-139.407
0
LINE
8
BLACK
6
CONTINUOUS
10
106.172
20
-139.407
11
105.886
21
-139.407
0
LINE
8
BLACK
6
CONTINUOUS
10
107.696
20
-139.407
11
107.505
21
-139.311
0
LINE
8
BLACK
6
CONTINUOUS
10
107.505
20
-139.311
11
107.41
21
-139.121
0
LINE
8
BLACK
6
CONTINUOUS
10
107.41
20
-139.121
11
107.41
21
-137.407
0
LINE
8
BLACK
6
CONTINUOUS
10
109.219
20
-139.311
11
109.029
21
-139.407
0
LINE
8
BLACK
6
CONTINUOUS
10
109.029
20
-139.407
11
108.648
21
-139.407
0
LINE
8
BLACK
6
CONTINUOUS
10
108.648
20
-139.407
11
108.458
21
-139.311
0
LINE
8
BLACK
6
CONTINUOUS
10
108.458
20
-139.311
11
108.362
21
-139.121
0
LINE
8
BLACK
6
CONTINUOUS
10
108.362
20
-139.121
11
108.362
21
-138.359
0
LINE
8
BLACK
6
CONTINUOUS
10
108.362
20
-138.359
11
108.458
21
-138.168
0
LINE
8
BLACK
6
CONTINUOUS
10
108.458
20
-138.168
11
108.648
21
-138.073
0
LINE
8
BLACK
6
CONTINUOUS
10
108.648
20
-138.073
11
109.029
21
-138.073
0
LINE
8
BLACK
6
CONTINUOUS
10
109.029
20
-138.073
11
109.219
21
-138.168
0
LINE
8
BLACK
6
CONTINUOUS
10
109.219
20
-138.168
11
109.315
21
-138.359
0
LINE
8
BLACK
6
CONTINUOUS
10
109.315
20
-138.359
11
109.315
21
-138.549
0
LINE
8
BLACK
6
CONTINUOUS
10
109.315
20
-138.549
11
108.362
21
-138.74
0
LINE
8
BLACK
6
CONTINUOUS
10
110.077
20
-139.311
11
110.267
21
-139.407
0
LINE
8
BLACK
6
CONTINUOUS
10
110.267
20
-139.407
11
110.648
21
-139.407
0
LINE
8
BLACK
6
CONTINUOUS
10
110.648
20
-139.407
11
110.839
21
-139.311
0
LINE
8
BLACK
6
CONTINUOUS
10
110.839
20
-139.311
11
110.934
21
-139.121
0
LINE
8
BLACK
6
CONTINUOUS
10
110.934
20
-139.121
11
110.934
21
-139.026
0
LINE
8
BLACK
6
CONTINUOUS
10
110.934
20
-139.026
11
110.839
21
-138.835
0
LINE
8
BLACK
6
CONTINUOUS
10
110.839
20
-138.835
11
110.648
21
-138.74
0
LINE
8
BLACK
6
CONTINUOUS
10
110.648
20
-138.74
11
110.362
21
-138.74
0
LINE
8
BLACK
6
CONTINUOUS
10
110.362
20
-138.74
11
110.172
21
-138.645
0
LINE
8
BLACK
6
CONTINUOUS
10
110.172
20
-138.645
11
110.077
21
-138.454
0
LINE
8
BLACK
6
CONTINUOUS
10
110.077
20
-138.454
11
110.077
21
-138.359
0
LINE
8
BLACK
6
CONTINUOUS
10
110.077
20
-138.359
11
110.172
21
-138.168
0
LINE
8
BLACK
6
CONTINUOUS
10
110.172
20
-138.168
11
110.362
21
-138.073
0
LINE
8
BLACK
6
CONTINUOUS
10
110.362
20
-138.073
11
110.648
21
-138.073
0
LINE
8
BLACK
6
CONTINUOUS
10
110.648
20
-138.073
11
110.839
21
-138.168
0
LINE
8
BLACK
6
CONTINUOUS
10
111.6
20
-140.168
11
111.696
21
-140.073
0
LINE
8
BLACK
6
CONTINUOUS
10
111.696
20
-140.073
11
111.886
21
-139.788
0
LINE
8
BLACK
6
CONTINUOUS
10
111.886
20
-139.788
11
111.981
21
-139.597
0
LINE
8
BLACK
6
CONTINUOUS
10
111.981
20
-139.597
11
112.077
21
-139.311
0
LINE
8
BLACK
6
CONTINUOUS
10
112.077
20
-139.311
11
112.172
21
-138.835
0
LINE
8
BLACK
6
CONTINUOUS
10
112.172
20
-138.835
11
112.172
21
-138.454
0
LINE
8
BLACK
6
CONTINUOUS
10
112.172
20
-138.454
11
112.077
21
-137.978
0
LINE
8
BLACK
6
CONTINUOUS
10
112.077
20
-137.978
11
111.981
21
-137.692
0
LINE
8
BLACK
6
CONTINUOUS
10
111.981
20
-137.692
11
111.886
21
-137.502
0
LINE
8
BLACK
6
CONTINUOUS
10
111.886
20
-137.502
11
111.696
21
-137.216
0
LINE
8
BLACK
6
CONTINUOUS
10
111.696
20
-137.216
11
111.6
21
-137.121
  0
ENDSEC
  0
EOF
