%TF.GenerationSoftware,KiCad,Pcbnew,(6.0.7-1)-1*%
%TF.CreationDate,2023-10-30T16:26:36+10:00*%
%TF.ProjectId,Landing Gear Panel PCB V2,4c616e64-696e-4672-9047-656172205061,rev?*%
%TF.SameCoordinates,Original*%
%TF.FileFunction,Soldermask,Bot*%
%TF.FilePolarity,Negative*%
%FSLAX46Y46*%
G04 Gerber Fmt 4.6, Leading zero omitted, Abs format (unit mm)*
G04 Created by KiCad (PCBNEW (6.0.7-1)-1) date 2023-10-30 16:26:36*
%MOMM*%
%LPD*%
G01*
G04 APERTURE LIST*
G04 Aperture macros list*
%AMRoundRect*
0 Rectangle with rounded corners*
0 $1 Rounding radius*
0 $2 $3 $4 $5 $6 $7 $8 $9 X,Y pos of 4 corners*
0 Add a 4 corners polygon primitive as box body*
4,1,4,$2,$3,$4,$5,$6,$7,$8,$9,$2,$3,0*
0 Add four circle primitives for the rounded corners*
1,1,$1+$1,$2,$3*
1,1,$1+$1,$4,$5*
1,1,$1+$1,$6,$7*
1,1,$1+$1,$8,$9*
0 Add four rect primitives between the rounded corners*
20,1,$1+$1,$2,$3,$4,$5,0*
20,1,$1+$1,$4,$5,$6,$7,0*
20,1,$1+$1,$6,$7,$8,$9,0*
20,1,$1+$1,$8,$9,$2,$3,0*%
%AMRotRect*
0 Rectangle, with rotation*
0 The origin of the aperture is its center*
0 $1 length*
0 $2 width*
0 $3 Rotation angle, in degrees counterclockwise*
0 Add horizontal line*
21,1,$1,$2,0,0,$3*%
G04 Aperture macros list end*
%ADD10R,1.800000X1.800000*%
%ADD11C,1.800000*%
%ADD12RotRect,1.800000X1.800000X45.000000*%
%ADD13RotRect,1.800000X1.800000X315.000000*%
%ADD14RotRect,1.800000X1.800000X225.000000*%
%ADD15C,1.400000*%
%ADD16O,1.400000X1.400000*%
%ADD17RoundRect,0.250000X0.620000X0.845000X-0.620000X0.845000X-0.620000X-0.845000X0.620000X-0.845000X0*%
%ADD18O,1.740000X2.190000*%
G04 APERTURE END LIST*
D10*
%TO.C,D1*%
X84225000Y-42850000D03*
D11*
X86765000Y-42850000D03*
%TD*%
D10*
%TO.C,D2*%
X94975000Y-42950000D03*
D11*
X97515000Y-42950000D03*
%TD*%
D10*
%TO.C,D3*%
X102975000Y-43000000D03*
D11*
X105515000Y-43000000D03*
%TD*%
D10*
%TO.C,D4*%
X75222200Y-52376800D03*
D11*
X77762200Y-52376800D03*
%TD*%
D10*
%TO.C,D5*%
X82385000Y-53088000D03*
D11*
X84925000Y-53088000D03*
%TD*%
D10*
%TO.C,D6*%
X91275000Y-53850000D03*
D11*
X93815000Y-53850000D03*
%TD*%
D10*
%TO.C,D7*%
X100267000Y-53850000D03*
D11*
X102807000Y-53850000D03*
%TD*%
D10*
%TO.C,D8*%
X108739000Y-53824800D03*
D11*
X111279000Y-53824800D03*
%TD*%
D10*
%TO.C,D9*%
X82283400Y-59488800D03*
D11*
X84823400Y-59488800D03*
%TD*%
D10*
%TO.C,D10*%
X91415800Y-61394000D03*
D11*
X93955800Y-61394000D03*
%TD*%
D10*
%TO.C,D11*%
X100368000Y-61470000D03*
D11*
X102908000Y-61470000D03*
%TD*%
D10*
%TO.C,D12*%
X108891000Y-61394000D03*
D11*
X111431000Y-61394000D03*
%TD*%
D10*
%TO.C,D13*%
X91225000Y-68850000D03*
D11*
X93765000Y-68850000D03*
%TD*%
D10*
%TO.C,D14*%
X100368000Y-69090000D03*
D11*
X102908000Y-69090000D03*
%TD*%
D10*
%TO.C,D15*%
X108852000Y-69039200D03*
D11*
X111392000Y-69039200D03*
%TD*%
D10*
%TO.C,D16*%
X77330600Y-80166000D03*
D11*
X79870600Y-80166000D03*
%TD*%
D10*
%TO.C,D17*%
X91580600Y-81266000D03*
D11*
X94120600Y-81266000D03*
%TD*%
D10*
%TO.C,D18*%
X77480600Y-87621200D03*
D11*
X80020600Y-87621200D03*
%TD*%
D12*
%TO.C,D19*%
X70198400Y-92651600D03*
D11*
X71994451Y-90855549D03*
%TD*%
D13*
%TO.C,D20*%
X86498400Y-90448400D03*
D11*
X88294451Y-92244451D03*
%TD*%
D13*
%TO.C,D21*%
X69708200Y-106265000D03*
D11*
X71504251Y-108061051D03*
%TD*%
D14*
%TO.C,D22*%
X88850000Y-105150000D03*
D11*
X87053949Y-106946051D03*
%TD*%
D10*
%TO.C,D23*%
X91275000Y-116400000D03*
D11*
X93815000Y-116400000D03*
%TD*%
D15*
%TO.C,R1*%
X86400000Y-77220000D03*
D16*
X86400000Y-74680000D03*
%TD*%
D15*
%TO.C,R5*%
X82100000Y-81770000D03*
D16*
X82100000Y-79230000D03*
%TD*%
D15*
%TO.C,R3*%
X82100000Y-72670000D03*
D16*
X82100000Y-70130000D03*
%TD*%
D15*
%TO.C,R8*%
X86400000Y-72660000D03*
D16*
X86400000Y-70120000D03*
%TD*%
D15*
%TO.C,R7*%
X84250000Y-81770000D03*
D16*
X84250000Y-79230000D03*
%TD*%
D15*
%TO.C,R2*%
X82100000Y-77220000D03*
D16*
X82100000Y-74680000D03*
%TD*%
D15*
%TO.C,R4*%
X84250000Y-72660000D03*
D16*
X84250000Y-70120000D03*
%TD*%
D17*
%TO.C,J3*%
X87630000Y-65552000D03*
D18*
X85090000Y-65552000D03*
%TD*%
D15*
%TO.C,R6*%
X84250000Y-77220000D03*
D16*
X84250000Y-74680000D03*
%TD*%
D17*
%TO.C,J4*%
X80950000Y-65552000D03*
D18*
X78410000Y-65552000D03*
%TD*%
M02*
