G04 #@! TF.GenerationSoftware,KiCad,Pcbnew,(5.1.9-0-10_14)*
G04 #@! TF.CreationDate,2022-06-30T07:20:20+10:00*
G04 #@! TF.ProjectId,OH - Sim Control,4f48202d-2053-4696-9d20-436f6e74726f,rev?*
G04 #@! TF.SameCoordinates,Original*
G04 #@! TF.FileFunction,Soldermask,Bot*
G04 #@! TF.FilePolarity,Negative*
%FSLAX46Y46*%
G04 Gerber Fmt 4.6, Leading zero omitted, Abs format (unit mm)*
G04 Created by KiCad (PCBNEW (5.1.9-0-10_14)) date 2022-06-30 07:20:20*
%MOMM*%
%LPD*%
G01*
G04 APERTURE LIST*
%ADD10O,1.740000X2.200000*%
%ADD11O,2.200000X1.740000*%
%ADD12C,1.400000*%
%ADD13O,1.400000X1.400000*%
%ADD14R,3.500000X3.500000*%
%ADD15C,1.800000*%
%ADD16R,1.800000X1.800000*%
%ADD17R,1.600000X1.600000*%
%ADD18C,1.600000*%
%ADD19O,1.727200X2.032000*%
%ADD20C,4.064000*%
G04 APERTURE END LIST*
D10*
X159004000Y-90906600D03*
X156464000Y-90906600D03*
G36*
G01*
X153054000Y-91756601D02*
X153054000Y-90056599D01*
G75*
G02*
X153303999Y-89806600I249999J0D01*
G01*
X154544001Y-89806600D01*
G75*
G02*
X154794000Y-90056599I0J-249999D01*
G01*
X154794000Y-91756601D01*
G75*
G02*
X154544001Y-92006600I-249999J0D01*
G01*
X153303999Y-92006600D01*
G75*
G02*
X153054000Y-91756601I0J249999D01*
G01*
G37*
D11*
X125832000Y-95783400D03*
G36*
G01*
X126682001Y-99193400D02*
X124981999Y-99193400D01*
G75*
G02*
X124732000Y-98943401I0J249999D01*
G01*
X124732000Y-97703399D01*
G75*
G02*
X124981999Y-97453400I249999J0D01*
G01*
X126682001Y-97453400D01*
G75*
G02*
X126932000Y-97703399I0J-249999D01*
G01*
X126932000Y-98943401D01*
G75*
G02*
X126682001Y-99193400I-249999J0D01*
G01*
G37*
D10*
X139446000Y-102286000D03*
X136906000Y-102286000D03*
G36*
G01*
X133496000Y-103136001D02*
X133496000Y-101435999D01*
G75*
G02*
X133745999Y-101186000I249999J0D01*
G01*
X134986001Y-101186000D01*
G75*
G02*
X135236000Y-101435999I0J-249999D01*
G01*
X135236000Y-103136001D01*
G75*
G02*
X134986001Y-103386000I-249999J0D01*
G01*
X133745999Y-103386000D01*
G75*
G02*
X133496000Y-103136001I0J249999D01*
G01*
G37*
D12*
X130150000Y-123825000D03*
D13*
X132690000Y-123825000D03*
D12*
X144932000Y-80137000D03*
D13*
X147472000Y-80137000D03*
D12*
X150520000Y-80137000D03*
D13*
X153060000Y-80137000D03*
D10*
X136550000Y-88468200D03*
X134010000Y-88468200D03*
X131470000Y-88468200D03*
X128930000Y-88468200D03*
X126390000Y-88468200D03*
G36*
G01*
X122980000Y-89318201D02*
X122980000Y-87618199D01*
G75*
G02*
X123229999Y-87368200I249999J0D01*
G01*
X124470001Y-87368200D01*
G75*
G02*
X124720000Y-87618199I0J-249999D01*
G01*
X124720000Y-89318201D01*
G75*
G02*
X124470001Y-89568200I-249999J0D01*
G01*
X123229999Y-89568200D01*
G75*
G02*
X122980000Y-89318201I0J249999D01*
G01*
G37*
X154838000Y-111683000D03*
X152298000Y-111683000D03*
G36*
G01*
X148888000Y-112533001D02*
X148888000Y-110832999D01*
G75*
G02*
X149137999Y-110583000I249999J0D01*
G01*
X150378001Y-110583000D01*
G75*
G02*
X150628000Y-110832999I0J-249999D01*
G01*
X150628000Y-112533001D01*
G75*
G02*
X150378001Y-112783000I-249999J0D01*
G01*
X149137999Y-112783000D01*
G75*
G02*
X148888000Y-112533001I0J249999D01*
G01*
G37*
X172314000Y-117526000D03*
X169774000Y-117526000D03*
X167234000Y-117526000D03*
X164694000Y-117526000D03*
X162154000Y-117526000D03*
G36*
G01*
X158744000Y-118376001D02*
X158744000Y-116675999D01*
G75*
G02*
X158993999Y-116426000I249999J0D01*
G01*
X160234001Y-116426000D01*
G75*
G02*
X160484000Y-116675999I0J-249999D01*
G01*
X160484000Y-118376001D01*
G75*
G02*
X160234001Y-118626000I-249999J0D01*
G01*
X158993999Y-118626000D01*
G75*
G02*
X158744000Y-118376001I0J249999D01*
G01*
G37*
X171755000Y-88976200D03*
X169215000Y-88976200D03*
X166675000Y-88976200D03*
G36*
G01*
X163265000Y-89826201D02*
X163265000Y-88126199D01*
G75*
G02*
X163514999Y-87876200I249999J0D01*
G01*
X164755001Y-87876200D01*
G75*
G02*
X165005000Y-88126199I0J-249999D01*
G01*
X165005000Y-89826201D01*
G75*
G02*
X164755001Y-90076200I-249999J0D01*
G01*
X163514999Y-90076200D01*
G75*
G02*
X163265000Y-89826201I0J249999D01*
G01*
G37*
X169012000Y-102184000D03*
X166472000Y-102184000D03*
X163932000Y-102184000D03*
X161392000Y-102184000D03*
X158852000Y-102184000D03*
G36*
G01*
X155442000Y-103034001D02*
X155442000Y-101333999D01*
G75*
G02*
X155691999Y-101084000I249999J0D01*
G01*
X156932001Y-101084000D01*
G75*
G02*
X157182000Y-101333999I0J-249999D01*
G01*
X157182000Y-103034001D01*
G75*
G02*
X156932001Y-103284000I-249999J0D01*
G01*
X155691999Y-103284000D01*
G75*
G02*
X155442000Y-103034001I0J249999D01*
G01*
G37*
X142240000Y-111683000D03*
X139700000Y-111683000D03*
G36*
G01*
X136290000Y-112533001D02*
X136290000Y-110832999D01*
G75*
G02*
X136539999Y-110583000I249999J0D01*
G01*
X137780001Y-110583000D01*
G75*
G02*
X138030000Y-110832999I0J-249999D01*
G01*
X138030000Y-112533001D01*
G75*
G02*
X137780001Y-112783000I-249999J0D01*
G01*
X136539999Y-112783000D01*
G75*
G02*
X136290000Y-112533001I0J249999D01*
G01*
G37*
G36*
G01*
X121082000Y-112026000D02*
X121082000Y-110276000D01*
G75*
G02*
X121957000Y-109401000I875000J0D01*
G01*
X123707000Y-109401000D01*
G75*
G02*
X124582000Y-110276000I0J-875000D01*
G01*
X124582000Y-112026000D01*
G75*
G02*
X123707000Y-112901000I-875000J0D01*
G01*
X121957000Y-112901000D01*
G75*
G02*
X121082000Y-112026000I0J875000D01*
G01*
G37*
G36*
G01*
X118332000Y-107451000D02*
X118332000Y-105451000D01*
G75*
G02*
X119082000Y-104701000I750000J0D01*
G01*
X120582000Y-104701000D01*
G75*
G02*
X121332000Y-105451000I0J-750000D01*
G01*
X121332000Y-107451000D01*
G75*
G02*
X120582000Y-108201000I-750000J0D01*
G01*
X119082000Y-108201000D01*
G75*
G02*
X118332000Y-107451000I0J750000D01*
G01*
G37*
D14*
X125832000Y-106451000D03*
D15*
X142545000Y-87706200D03*
D16*
X140005000Y-87706200D03*
D15*
X148793000Y-87706200D03*
D16*
X146253000Y-87706200D03*
D17*
X127965000Y-116561000D03*
D18*
X130465000Y-116561000D03*
D19*
X138938000Y-123825000D03*
X141478000Y-123825000D03*
X144018000Y-123825000D03*
X146558000Y-123825000D03*
X149098000Y-123825000D03*
X151638000Y-123825000D03*
X154178000Y-123825000D03*
X156718000Y-123825000D03*
X161798000Y-123825000D03*
X164338000Y-123825000D03*
X166878000Y-123825000D03*
X169418000Y-123825000D03*
X171958000Y-123825000D03*
X174498000Y-123825000D03*
X129794000Y-75565000D03*
X132334000Y-75565000D03*
X134874000Y-75565000D03*
X137414000Y-75565000D03*
X139954000Y-75565000D03*
X142494000Y-75565000D03*
X145034000Y-75565000D03*
X147574000Y-75565000D03*
X150114000Y-75565000D03*
X152654000Y-75565000D03*
X156718000Y-75565000D03*
X159258000Y-75565000D03*
X161798000Y-75565000D03*
X164338000Y-75565000D03*
X166878000Y-75565000D03*
X169418000Y-75565000D03*
X171958000Y-75565000D03*
X174498000Y-75565000D03*
D20*
X124968000Y-123825000D03*
X177038000Y-118745000D03*
X126238000Y-75565000D03*
X177038000Y-90805000D03*
M02*
