<?xml version="1.0" standalone="no"?>
 <!DOCTYPE svg PUBLIC "-//W3C//DTD SVG 1.1//EN" 
 "http://www.w3.org/Graphics/SVG/1.1/DTD/svg11.dtd"> 
<svg xmlns="http://www.w3.org/2000/svg" version="1.1" 
    width="29.7002cm" height="21.0007cm" viewBox="0 0 116930 82680 ">
<title>SVG Picture created as OH - Left Console - 4 - Exterior Lights Panel-PTH-drl_map.svg date 2021/02/07 06:05:17 </title>
  <desc>Picture generated by PCBNEW </desc>
<g style="fill:#000000; fill-opacity:1;stroke:#000000; stroke-opacity:1;
stroke-linecap:round; stroke-linejoin:round; "
 transform="translate(0 0) scale(1 1)">
</g>
<g style="fill:#000000; fill-opacity:0.0; 
stroke:#000000; stroke-width:-0.000393701; stroke-opacity:1; 
stroke-linecap:round; stroke-linejoin:round;">
</g>
<g style="fill:#000000; fill-opacity:0.0; 
stroke:#000000; stroke-width:19.685; stroke-opacity:1; 
stroke-linecap:round; stroke-linejoin:round;">
<path d="M56300 50787
L58267 50787
" />
<path d="M56299 38188
L56300 50787
" />
<path d="M38188 58267
L38188 38188
" />
<path d="M58267 50787
L58267 58267
" />
</g>
<g style="fill:#000000; fill-opacity:0.0; 
stroke:#000000; stroke-width:47.2441; stroke-opacity:1; 
stroke-linecap:round; stroke-linejoin:round;">
<path d="M38188 58267
L58267 58267
" />
<path d="M38188 38188
L56299 38188
" />
</g>
<g style="fill:#000000; fill-opacity:0.0; 
stroke:#000000; stroke-width:78.7402; stroke-opacity:1; 
stroke-linecap:round; stroke-linejoin:round;">
<path d="M40892 45292
L41207 45607
" />
<path d="M41207 45292
L40892 45607
" />
<path d="M43892 45292
L44207 45607
" />
<path d="M44207 45292
L43892 45607
" />
<path d="M46392 45342
L46707 45657
" />
<path d="M46707 45342
L46392 45657
" />
<path d="M49392 45342
L49707 45657
" />
<path d="M49707 45342
L49392 45657
" />
<path d="M51542 45392
L51857 45707
" />
<path d="M51857 45392
L51542 45707
" />
<path d="M54542 45392
L54857 45707
" />
<path d="M54857 45392
L54542 45707
" />
<circle cx="53850" cy="53150" r="236.22" /> 
<circle cx="54850" cy="53150" r="236.22" /> 
<circle cx="55850" cy="53150" r="236.22" /> 
<circle cx="47450" cy="48100" r="236.22" /> 
<circle cx="48450" cy="48100" r="236.22" /> 
<circle cx="49450" cy="48100" r="236.22" /> 
<circle cx="49350" cy="41500" r="236.22" /> 
<circle cx="50350" cy="41500" r="236.22" /> 
<circle cx="40500" cy="42350" r="236.22" /> 
<circle cx="41500" cy="42350" r="236.22" /> 
<circle cx="47800" cy="53150" r="236.22" /> 
<circle cx="48800" cy="53150" r="236.22" /> 
<circle cx="49800" cy="53150" r="236.22" /> 
<circle cx="44700" cy="42350" r="236.22" /> 
<circle cx="45700" cy="42350" r="236.22" /> 
<circle cx="53200" cy="41500" r="236.22" /> 
<circle cx="54200" cy="41500" r="236.22" /> 
<circle cx="41350" cy="48100" r="236.22" /> 
<circle cx="42350" cy="48100" r="236.22" /> 
<circle cx="53100" cy="48100" r="236.22" /> 
<circle cx="54100" cy="48100" r="236.22" /> 
<circle cx="40750" cy="53000" r="236.22" /> 
<circle cx="41750" cy="53000" r="236.22" /> 
<circle cx="42750" cy="53000" r="236.22" /> 
<circle cx="43750" cy="53000" r="236.22" /> 
</g>
<g style="fill:#000000; fill-opacity:0.0; 
stroke:#000000; stroke-width:118.11; stroke-opacity:1; 
stroke-linecap:round; stroke-linejoin:round;">
<text x="38952.8" y="60181.1"
textLength="8661.42" font-size="1574.8" lengthAdjust="spacingAndGlyphs"
text-anchor="start" opacity="0">Drill Map:</text>
<path d="M39293 60124
L39293 58943
L39574 58943
L39742 59000
L39855 59112
L39911 59224
L39967 59449
L39967 59618
L39911 59843
L39855 59956
L39742 60068
L39574 60124
L39293 60124
" />
<path d="M40474 60124
L40474 59337
" />
<path d="M40474 59562
L40530 59449
L40586 59393
L40699 59337
L40811 59337
" />
<path d="M41205 60124
L41205 59337
" />
<path d="M41205 58943
L41149 59000
L41205 59056
L41261 59000
L41205 58943
L41205 59056
" />
<path d="M41936 60124
L41823 60068
L41767 59956
L41767 58943
" />
<path d="M42555 60124
L42442 60068
L42386 59956
L42386 58943
" />
<path d="M43904 60124
L43904 58943
L44298 59787
L44692 58943
L44692 60124
" />
<path d="M45760 60124
L45760 59506
L45704 59393
L45592 59337
L45367 59337
L45254 59393
" />
<path d="M45760 60068
L45648 60124
L45367 60124
L45254 60068
L45198 59956
L45198 59843
L45254 59731
L45367 59674
L45648 59674
L45760 59618
" />
<path d="M46323 59337
L46323 60518
" />
<path d="M46323 59393
L46435 59337
L46660 59337
L46773 59393
L46829 59449
L46885 59562
L46885 59899
L46829 60012
L46773 60068
L46660 60124
L46435 60124
L46323 60068
" />
<path d="M47392 60012
L47448 60068
L47392 60124
L47335 60068
L47392 60012
L47392 60124
" />
<path d="M47392 59393
L47448 59449
L47392 59506
L47335 59449
L47392 59393
L47392 59506
" />
<path d="M37850 61913
L38165 62228
" />
<path d="M38165 61913
L37850 62228
" />
<text x="38952.8" y="62661.4"
textLength="25427.4" font-size="1574.8" lengthAdjust="spacingAndGlyphs"
text-anchor="start" opacity="0">0.80mm / 0.031" (6 holes)</text>
<path d="M39517 61424
L39630 61424
L39742 61480
L39799 61536
L39855 61649
L39911 61874
L39911 62155
L39855 62380
L39799 62492
L39742 62548
L39630 62605
L39517 62605
L39405 62548
L39349 62492
L39293 62380
L39236 62155
L39236 61874
L39293 61649
L39349 61536
L39405 61480
L39517 61424
" />
<path d="M40417 62492
L40474 62548
L40417 62605
L40361 62548
L40417 62492
L40417 62605
" />
<path d="M41149 61930
L41036 61874
L40980 61817
L40924 61705
L40924 61649
L40980 61536
L41036 61480
L41149 61424
L41374 61424
L41486 61480
L41542 61536
L41598 61649
L41598 61705
L41542 61817
L41486 61874
L41374 61930
L41149 61930
L41036 61986
L40980 62042
L40924 62155
L40924 62380
L40980 62492
L41036 62548
L41149 62605
L41374 62605
L41486 62548
L41542 62492
L41598 62380
L41598 62155
L41542 62042
L41486 61986
L41374 61930
" />
<path d="M42330 61424
L42442 61424
L42555 61480
L42611 61536
L42667 61649
L42723 61874
L42723 62155
L42667 62380
L42611 62492
L42555 62548
L42442 62605
L42330 62605
L42217 62548
L42161 62492
L42105 62380
L42048 62155
L42048 61874
L42105 61649
L42161 61536
L42217 61480
L42330 61424
" />
<path d="M43230 62605
L43230 61817
" />
<path d="M43230 61930
L43286 61874
L43398 61817
L43567 61817
L43679 61874
L43736 61986
L43736 62605
" />
<path d="M43736 61986
L43792 61874
L43904 61817
L44073 61817
L44186 61874
L44242 61986
L44242 62605
" />
<path d="M44804 62605
L44804 61817
" />
<path d="M44804 61930
L44861 61874
L44973 61817
L45142 61817
L45254 61874
L45311 61986
L45311 62605
" />
<path d="M45311 61986
L45367 61874
L45479 61817
L45648 61817
L45760 61874
L45817 61986
L45817 62605
" />
<path d="M48123 61367
L47110 62886
" />
<path d="M49641 61424
L49754 61424
L49866 61480
L49922 61536
L49979 61649
L50035 61874
L50035 62155
L49979 62380
L49922 62492
L49866 62548
L49754 62605
L49641 62605
L49529 62548
L49473 62492
L49416 62380
L49360 62155
L49360 61874
L49416 61649
L49473 61536
L49529 61480
L49641 61424
" />
<path d="M50541 62492
L50597 62548
L50541 62605
L50485 62548
L50541 62492
L50541 62605
" />
<path d="M51329 61424
L51441 61424
L51553 61480
L51610 61536
L51666 61649
L51722 61874
L51722 62155
L51666 62380
L51610 62492
L51553 62548
L51441 62605
L51329 62605
L51216 62548
L51160 62492
L51104 62380
L51047 62155
L51047 61874
L51104 61649
L51160 61536
L51216 61480
L51329 61424
" />
<path d="M52116 61424
L52847 61424
L52453 61874
L52622 61874
L52735 61930
L52791 61986
L52847 62098
L52847 62380
L52791 62492
L52735 62548
L52622 62605
L52285 62605
L52172 62548
L52116 62492
" />
<path d="M53972 62605
L53297 62605
" />
<path d="M53634 62605
L53634 61424
L53522 61592
L53410 61705
L53297 61761
" />
<path d="M54422 61424
L54422 61649
" />
<path d="M54872 61424
L54872 61649
" />
<path d="M56615 63055
L56559 62998
L56447 62830
L56390 62717
L56334 62548
L56278 62267
L56278 62042
L56334 61761
L56390 61592
L56447 61480
L56559 61311
L56615 61255
" />
<path d="M57571 61424
L57347 61424
L57234 61480
L57178 61536
L57065 61705
L57009 61930
L57009 62380
L57065 62492
L57122 62548
L57234 62605
L57459 62605
L57571 62548
L57628 62492
L57684 62380
L57684 62098
L57628 61986
L57571 61930
L57459 61874
L57234 61874
L57122 61930
L57065 61986
L57009 62098
" />
<path d="M59090 62605
L59090 61424
" />
<path d="M59596 62605
L59596 61986
L59540 61874
L59428 61817
L59259 61817
L59146 61874
L59090 61930
" />
<path d="M60327 62605
L60215 62548
L60159 62492
L60102 62380
L60102 62042
L60159 61930
L60215 61874
L60327 61817
L60496 61817
L60609 61874
L60665 61930
L60721 62042
L60721 62380
L60665 62492
L60609 62548
L60496 62605
L60327 62605
" />
<path d="M61396 62605
L61284 62548
L61227 62436
L61227 61424
" />
<path d="M62296 62548
L62183 62605
L61958 62605
L61846 62548
L61790 62436
L61790 61986
L61846 61874
L61958 61817
L62183 61817
L62296 61874
L62352 61986
L62352 62098
L61790 62211
" />
<path d="M62802 62548
L62915 62605
L63140 62605
L63252 62548
L63308 62436
L63308 62380
L63252 62267
L63140 62211
L62971 62211
L62858 62155
L62802 62042
L62802 61986
L62858 61874
L62971 61817
L63140 61817
L63252 61874
" />
<path d="M63702 63055
L63758 62998
L63871 62830
L63927 62717
L63983 62548
L64039 62267
L64039 62042
L63983 61761
L63927 61592
L63871 61480
L63758 61311
L63702 61255
" />
<circle cx="37929.1" cy="63629.9" r="236.22" /> 
<text x="38952.8" y="64220.5"
textLength="26552.3" font-size="1574.8" lengthAdjust="spacingAndGlyphs"
text-anchor="start" opacity="0">1.20mm / 0.047" (25 holes)</text>
<path d="M39911 64164
L39236 64164
" />
<path d="M39574 64164
L39574 62983
L39461 63151
L39349 63264
L39236 63320
" />
<path d="M40417 64051
L40474 64107
L40417 64164
L40361 64107
L40417 64051
L40417 64164
" />
<path d="M40924 63095
L40980 63039
L41092 62983
L41374 62983
L41486 63039
L41542 63095
L41598 63208
L41598 63320
L41542 63489
L40867 64164
L41598 64164
" />
<path d="M42330 62983
L42442 62983
L42555 63039
L42611 63095
L42667 63208
L42723 63433
L42723 63714
L42667 63939
L42611 64051
L42555 64107
L42442 64164
L42330 64164
L42217 64107
L42161 64051
L42105 63939
L42048 63714
L42048 63433
L42105 63208
L42161 63095
L42217 63039
L42330 62983
" />
<path d="M43230 64164
L43230 63376
" />
<path d="M43230 63489
L43286 63433
L43398 63376
L43567 63376
L43679 63433
L43736 63545
L43736 64164
" />
<path d="M43736 63545
L43792 63433
L43904 63376
L44073 63376
L44186 63433
L44242 63545
L44242 64164
" />
<path d="M44804 64164
L44804 63376
" />
<path d="M44804 63489
L44861 63433
L44973 63376
L45142 63376
L45254 63433
L45311 63545
L45311 64164
" />
<path d="M45311 63545
L45367 63433
L45479 63376
L45648 63376
L45760 63433
L45817 63545
L45817 64164
" />
<path d="M48123 62926
L47110 64445
" />
<path d="M49641 62983
L49754 62983
L49866 63039
L49922 63095
L49979 63208
L50035 63433
L50035 63714
L49979 63939
L49922 64051
L49866 64107
L49754 64164
L49641 64164
L49529 64107
L49473 64051
L49416 63939
L49360 63714
L49360 63433
L49416 63208
L49473 63095
L49529 63039
L49641 62983
" />
<path d="M50541 64051
L50597 64107
L50541 64164
L50485 64107
L50541 64051
L50541 64164
" />
<path d="M51329 62983
L51441 62983
L51553 63039
L51610 63095
L51666 63208
L51722 63433
L51722 63714
L51666 63939
L51610 64051
L51553 64107
L51441 64164
L51329 64164
L51216 64107
L51160 64051
L51104 63939
L51047 63714
L51047 63433
L51104 63208
L51160 63095
L51216 63039
L51329 62983
" />
<path d="M52735 63376
L52735 64164
" />
<path d="M52453 62926
L52172 63770
L52903 63770
" />
<path d="M53241 62983
L54028 62983
L53522 64164
" />
<path d="M54422 62983
L54422 63208
" />
<path d="M54872 62983
L54872 63208
" />
<path d="M56615 64614
L56559 64557
L56447 64389
L56390 64276
L56334 64107
L56278 63826
L56278 63601
L56334 63320
L56390 63151
L56447 63039
L56559 62870
L56615 62814
" />
<path d="M57009 63095
L57065 63039
L57178 62983
L57459 62983
L57571 63039
L57628 63095
L57684 63208
L57684 63320
L57628 63489
L56953 64164
L57684 64164
" />
<path d="M58753 62983
L58190 62983
L58134 63545
L58190 63489
L58303 63433
L58584 63433
L58696 63489
L58753 63545
L58809 63658
L58809 63939
L58753 64051
L58696 64107
L58584 64164
L58303 64164
L58190 64107
L58134 64051
" />
<path d="M60215 64164
L60215 62983
" />
<path d="M60721 64164
L60721 63545
L60665 63433
L60552 63376
L60384 63376
L60271 63433
L60215 63489
" />
<path d="M61452 64164
L61340 64107
L61284 64051
L61227 63939
L61227 63601
L61284 63489
L61340 63433
L61452 63376
L61621 63376
L61733 63433
L61790 63489
L61846 63601
L61846 63939
L61790 64051
L61733 64107
L61621 64164
L61452 64164
" />
<path d="M62521 64164
L62408 64107
L62352 63995
L62352 62983
" />
<path d="M63421 64107
L63308 64164
L63083 64164
L62971 64107
L62915 63995
L62915 63545
L62971 63433
L63083 63376
L63308 63376
L63421 63433
L63477 63545
L63477 63658
L62915 63770
" />
<path d="M63927 64107
L64039 64164
L64264 64164
L64377 64107
L64433 63995
L64433 63939
L64377 63826
L64264 63770
L64096 63770
L63983 63714
L63927 63601
L63927 63545
L63983 63433
L64096 63376
L64264 63376
L64377 63433
" />
<path d="M64827 64614
L64883 64557
L64996 64389
L65052 64276
L65108 64107
L65164 63826
L65164 63601
L65108 63320
L65052 63151
L64996 63039
L64883 62870
L64827 62814
" />
</g> 
</svg>
