<?xml version="1.0" standalone="no"?>
 <!DOCTYPE svg PUBLIC "-//W3C//DTD SVG 1.1//EN" 
 "http://www.w3.org/Graphics/SVG/1.1/DTD/svg11.dtd"> 
<svg xmlns="http://www.w3.org/2000/svg" version="1.1" 
    width="29.7002cm" height="21.0007cm" viewBox="0 0 116930 82680 ">
<title>SVG Picture created as OH - Left Console - 4 - Exterior Lights Panel-NPTH-drl_map.svg date 2021/02/07 06:05:17 </title>
  <desc>Picture generated by PCBNEW </desc>
<g style="fill:#000000; fill-opacity:1;stroke:#000000; stroke-opacity:1;
stroke-linecap:round; stroke-linejoin:round; "
 transform="translate(0 0) scale(1 1)">
</g>
<g style="fill:#000000; fill-opacity:0.0; 
stroke:#000000; stroke-width:-0.000393701; stroke-opacity:1; 
stroke-linecap:round; stroke-linejoin:round;">
</g>
<g style="fill:#000000; fill-opacity:0.0; 
stroke:#000000; stroke-width:19.685; stroke-opacity:1; 
stroke-linecap:round; stroke-linejoin:round;">
<path d="M56300 50787
L58267 50787
" />
<path d="M56299 38188
L56300 50787
" />
<path d="M38188 58267
L38188 38188
" />
<path d="M58267 50787
L58267 58267
" />
</g>
<g style="fill:#000000; fill-opacity:0.0; 
stroke:#000000; stroke-width:47.2441; stroke-opacity:1; 
stroke-linecap:round; stroke-linejoin:round;">
<path d="M38188 58267
L58267 58267
" />
<path d="M38188 38188
L56299 38188
" />
</g>
<g style="fill:#000000; fill-opacity:0.0; 
stroke:#000000; stroke-width:78.7402; stroke-opacity:1; 
stroke-linecap:round; stroke-linejoin:round;">
<path d="M56456 56456
L57716 57716
" />
<path d="M57716 56456
L56456 57716
" />
<path d="M38740 38740
L40000 40000
" />
<path d="M40000 38740
L38740 40000
" />
<path d="M38740 56456
L40000 57716
" />
<path d="M40000 56456
L38740 57716
" />
</g>
<g style="fill:#000000; fill-opacity:0.0; 
stroke:#000000; stroke-width:118.11; stroke-opacity:1; 
stroke-linecap:round; stroke-linejoin:round;">
<text x="38952.8" y="60181.1"
textLength="8779.53" font-size="1574.8" lengthAdjust="spacingAndGlyphs"
text-anchor="start" opacity="0">Drill Map:</text>
<path d="M39293 60124
L39293 58943
L39574 58943
L39742 59000
L39855 59112
L39911 59224
L39967 59449
L39967 59618
L39911 59843
L39855 59956
L39742 60068
L39574 60124
L39293 60124
" />
<path d="M40474 60124
L40474 59337
" />
<path d="M40474 59562
L40530 59449
L40586 59393
L40699 59337
L40811 59337
" />
<path d="M41205 60124
L41205 59337
" />
<path d="M41205 58943
L41149 59000
L41205 59056
L41261 59000
L41205 58943
L41205 59056
" />
<path d="M41936 60124
L41823 60068
L41767 59956
L41767 58943
" />
<path d="M42555 60124
L42442 60068
L42386 59956
L42386 58943
" />
<path d="M43904 60124
L43904 58943
L44298 59787
L44692 58943
L44692 60124
" />
<path d="M45760 60124
L45760 59506
L45704 59393
L45592 59337
L45367 59337
L45254 59393
" />
<path d="M45760 60068
L45648 60124
L45367 60124
L45254 60068
L45198 59956
L45198 59843
L45254 59731
L45367 59674
L45648 59674
L45760 59618
" />
<path d="M46323 59337
L46323 60518
" />
<path d="M46323 59393
L46435 59337
L46660 59337
L46773 59393
L46829 59449
L46885 59562
L46885 59899
L46829 60012
L46773 60068
L46660 60124
L46435 60124
L46323 60068
" />
<path d="M47392 60012
L47448 60068
L47392 60124
L47335 60068
L47392 60012
L47392 60124
" />
<path d="M47392 59393
L47448 59449
L47392 59506
L47335 59449
L47392 59393
L47392 59506
" />
<path d="M36905 61440
L38165 62700
" />
<path d="M38165 61440
L36905 62700
" />
<text x="38952.8" y="62661.4"
textLength="37126" font-size="1574.8" lengthAdjust="spacingAndGlyphs"
text-anchor="start" opacity="0">3.20mm / 0.126" (3 holes) (not plated)</text>
<path d="M39180 61424
L39911 61424
L39517 61874
L39686 61874
L39799 61930
L39855 61986
L39911 62098
L39911 62380
L39855 62492
L39799 62548
L39686 62605
L39349 62605
L39236 62548
L39180 62492
" />
<path d="M40417 62492
L40474 62548
L40417 62605
L40361 62548
L40417 62492
L40417 62605
" />
<path d="M40924 61536
L40980 61480
L41092 61424
L41374 61424
L41486 61480
L41542 61536
L41598 61649
L41598 61761
L41542 61930
L40867 62605
L41598 62605
" />
<path d="M42330 61424
L42442 61424
L42555 61480
L42611 61536
L42667 61649
L42723 61874
L42723 62155
L42667 62380
L42611 62492
L42555 62548
L42442 62605
L42330 62605
L42217 62548
L42161 62492
L42105 62380
L42048 62155
L42048 61874
L42105 61649
L42161 61536
L42217 61480
L42330 61424
" />
<path d="M43230 62605
L43230 61817
" />
<path d="M43230 61930
L43286 61874
L43398 61817
L43567 61817
L43679 61874
L43736 61986
L43736 62605
" />
<path d="M43736 61986
L43792 61874
L43904 61817
L44073 61817
L44186 61874
L44242 61986
L44242 62605
" />
<path d="M44804 62605
L44804 61817
" />
<path d="M44804 61930
L44861 61874
L44973 61817
L45142 61817
L45254 61874
L45311 61986
L45311 62605
" />
<path d="M45311 61986
L45367 61874
L45479 61817
L45648 61817
L45760 61874
L45817 61986
L45817 62605
" />
<path d="M48123 61367
L47110 62886
" />
<path d="M49641 61424
L49754 61424
L49866 61480
L49922 61536
L49979 61649
L50035 61874
L50035 62155
L49979 62380
L49922 62492
L49866 62548
L49754 62605
L49641 62605
L49529 62548
L49473 62492
L49416 62380
L49360 62155
L49360 61874
L49416 61649
L49473 61536
L49529 61480
L49641 61424
" />
<path d="M50541 62492
L50597 62548
L50541 62605
L50485 62548
L50541 62492
L50541 62605
" />
<path d="M51722 62605
L51047 62605
" />
<path d="M51385 62605
L51385 61424
L51272 61592
L51160 61705
L51047 61761
" />
<path d="M52172 61536
L52228 61480
L52341 61424
L52622 61424
L52735 61480
L52791 61536
L52847 61649
L52847 61761
L52791 61930
L52116 62605
L52847 62605
" />
<path d="M53859 61424
L53634 61424
L53522 61480
L53466 61536
L53353 61705
L53297 61930
L53297 62380
L53353 62492
L53410 62548
L53522 62605
L53747 62605
L53859 62548
L53916 62492
L53972 62380
L53972 62098
L53916 61986
L53859 61930
L53747 61874
L53522 61874
L53410 61930
L53353 61986
L53297 62098
" />
<path d="M54422 61424
L54422 61649
" />
<path d="M54872 61424
L54872 61649
" />
<path d="M56615 63055
L56559 62998
L56447 62830
L56390 62717
L56334 62548
L56278 62267
L56278 62042
L56334 61761
L56390 61592
L56447 61480
L56559 61311
L56615 61255
" />
<path d="M56953 61424
L57684 61424
L57290 61874
L57459 61874
L57571 61930
L57628 61986
L57684 62098
L57684 62380
L57628 62492
L57571 62548
L57459 62605
L57122 62605
L57009 62548
L56953 62492
" />
<path d="M59090 62605
L59090 61424
" />
<path d="M59596 62605
L59596 61986
L59540 61874
L59428 61817
L59259 61817
L59146 61874
L59090 61930
" />
<path d="M60327 62605
L60215 62548
L60159 62492
L60102 62380
L60102 62042
L60159 61930
L60215 61874
L60327 61817
L60496 61817
L60609 61874
L60665 61930
L60721 62042
L60721 62380
L60665 62492
L60609 62548
L60496 62605
L60327 62605
" />
<path d="M61396 62605
L61284 62548
L61227 62436
L61227 61424
" />
<path d="M62296 62548
L62183 62605
L61958 62605
L61846 62548
L61790 62436
L61790 61986
L61846 61874
L61958 61817
L62183 61817
L62296 61874
L62352 61986
L62352 62098
L61790 62211
" />
<path d="M62802 62548
L62915 62605
L63140 62605
L63252 62548
L63308 62436
L63308 62380
L63252 62267
L63140 62211
L62971 62211
L62858 62155
L62802 62042
L62802 61986
L62858 61874
L62971 61817
L63140 61817
L63252 61874
" />
<path d="M63702 63055
L63758 62998
L63871 62830
L63927 62717
L63983 62548
L64039 62267
L64039 62042
L63983 61761
L63927 61592
L63871 61480
L63758 61311
L63702 61255
" />
<path d="M65839 63055
L65783 62998
L65670 62830
L65614 62717
L65558 62548
L65502 62267
L65502 62042
L65558 61761
L65614 61592
L65670 61480
L65783 61311
L65839 61255
" />
<path d="M66289 61817
L66289 62605
" />
<path d="M66289 61930
L66345 61874
L66458 61817
L66627 61817
L66739 61874
L66795 61986
L66795 62605
" />
<path d="M67526 62605
L67414 62548
L67358 62492
L67302 62380
L67302 62042
L67358 61930
L67414 61874
L67526 61817
L67695 61817
L67808 61874
L67864 61930
L67920 62042
L67920 62380
L67864 62492
L67808 62548
L67695 62605
L67526 62605
" />
<path d="M68258 61817
L68708 61817
" />
<path d="M68426 61424
L68426 62436
L68483 62548
L68595 62605
L68708 62605
" />
<path d="M70001 61817
L70001 62998
" />
<path d="M70001 61874
L70114 61817
L70339 61817
L70451 61874
L70507 61930
L70564 62042
L70564 62380
L70507 62492
L70451 62548
L70339 62605
L70114 62605
L70001 62548
" />
<path d="M71239 62605
L71126 62548
L71070 62436
L71070 61424
" />
<path d="M72195 62605
L72195 61986
L72138 61874
L72026 61817
L71801 61817
L71688 61874
" />
<path d="M72195 62548
L72082 62605
L71801 62605
L71688 62548
L71632 62436
L71632 62323
L71688 62211
L71801 62155
L72082 62155
L72195 62098
" />
<path d="M72588 61817
L73038 61817
" />
<path d="M72757 61424
L72757 62436
L72813 62548
L72926 62605
L73038 62605
" />
<path d="M73882 62548
L73769 62605
L73544 62605
L73432 62548
L73376 62436
L73376 61986
L73432 61874
L73544 61817
L73769 61817
L73882 61874
L73938 61986
L73938 62098
L73376 62211
" />
<path d="M74951 62605
L74951 61424
" />
<path d="M74951 62548
L74838 62605
L74613 62605
L74501 62548
L74444 62492
L74388 62380
L74388 62042
L74444 61930
L74501 61874
L74613 61817
L74838 61817
L74951 61874
" />
<path d="M75401 63055
L75457 62998
L75569 62830
L75625 62717
L75682 62548
L75738 62267
L75738 62042
L75682 61761
L75625 61592
L75569 61480
L75457 61311
L75401 61255
" />
</g> 
</svg>
