  0
SECTION
  2
HEADER
  9
$ANGBASE
  50
0.0
  9
$ANGDIR
  70
1
  9
$MEASUREMENT
  70
1
  0
ENDSEC
  0
SECTION
  2
TABLES
  0
TABLE
  2
LTYPE
  70
4
  0
LTYPE
  5
40F
  2
CONTINUOUS
  70
0
  3
Solid line
  72
65
  73
0
  40
0.0
  0
LTYPE
  5
410
  2
DASHDOT
 70
0
  3
Dash Dot ____ _ ____ _
 72
65
 73
4
 40
2.0
 49
1.25
 49
-0.25
 49
0.25
 49
-0.25
  0
LTYPE
  5
411
  2
DASHED
 70
0
  3
Dashed __ __ __ __ __
 72
65
 73
2
 40
0.75
 49
0.5
 49
-0.25
  0
LTYPE
  5
43B
  2
DOTTED
 70
0
  3
Dotted .  .  .  .
 72
65
 73
2
 40
0.2
 49
0.0
 49
-0.2
  0
ENDTAB
  0
TABLE
  2
STYLE
  70
4
  0
STYLE
  2
KICAD
  70
0
  40
0
  41
1
  42
1
  50
0
  71
0
  3
isocp.shx
  0
STYLE
  2
KICADB
  70
0
  40
0
  41
1
  42
1
  50
0
  71
0
  3
isocp.shx
  0
STYLE
  2
KICADI
  70
0
  40
0
  41
1
  42
1
  50
15
  71
0
  3
isocp.shx
  0
STYLE
  2
KICADBI
  70
0
  40
0
  41
1
  42
1
  50
15
  71
0
  3
isocp.shx
  0
ENDTAB
  0
TABLE
  2
LAYER
  70
1
  0
LAYER
  2
BLACK
  70
0
  62
7
  6
CONTINUOUS
  0
ENDTAB
  0
ENDSEC
  0
SECTION
  2
ENTITIES
0
ARC
8
BLACK
10
255.9975000000000023
20
-98.215999999999994
40
1.75
50
-0.00000000
51
180.00000000
0
ARC
8
BLACK
10
37.2474999999999952
20
-53.7459999999999951
40
1.75
50
-180.00000000
51
-0.00000000
0
ARC
8
BLACK
10
37.2474999999999952
20
-98.215999999999994
40
1.75
50
-0.00000000
51
180.00000000
0
ARC
8
BLACK
10
233.6174999999999784
20
-100.7560000000000002
40
1.75
50
-180.00000000
51
-0.00000000
0
ARC
8
BLACK
10
233.6174999999999784
20
-100.7560000000000002
40
1.75
50
-0.00000000
51
180.00000000
0
ARC
8
BLACK
10
93.9599999999999937
20
-33.9260000000000019
40
1.75
50
-0.00000000
51
180.00000000
0
ARC
8
BLACK
10
255.9975000000000023
20
-53.7459999999999951
40
1.75
50
-0.00000000
51
180.00000000
0
ARC
8
BLACK
10
255.9975000000000023
20
-98.215999999999994
40
1.75
50
-180.00000000
51
-0.00000000
0
ARC
8
BLACK
10
140.5124999999999886
20
-100.7560000000000002
40
1.75
50
-180.00000000
51
-0.00000000
0
ARC
8
BLACK
10
93.9599999999999937
20
-33.9260000000000019
40
1.75
50
-180.00000000
51
-0.00000000
0
LINE
8
BLACK
6
CONTINUOUS
10
32.8305000000000007
20
-105.0459999999999923
11
258.8904999999999745
21
-105.0459999999999923
0
ARC
8
BLACK
10
187.0649999999999977
20
-100.7560000000000002
40
1.75
50
-0.00000000
51
180.00000000
0
ARC
8
BLACK
10
140.5124999999999886
20
-100.7560000000000002
40
1.75
50
-0.00000000
51
180.00000000
0
ARC
8
BLACK
10
233.6174999999999784
20
-33.9260000000000019
40
1.75
50
-0.00000000
51
180.00000000
0
ARC
8
BLACK
10
187.0649999999999977
20
-100.7560000000000002
40
1.75
50
-180.00000000
51
-0.00000000
0
ARC
8
BLACK
10
140.5124999999999886
20
-33.9260000000000019
40
1.75
50
-0.00000000
51
180.00000000
0
LINE
8
BLACK
6
CONTINUOUS
10
258.8904999999999745
20
-105.0459999999999923
11
258.8904999999999745
21
-29.5659999999999989
0
ARC
8
BLACK
10
47.4074999999999989
20
-33.9260000000000019
40
1.75
50
-180.00000000
51
-0.00000000
0
ARC
8
BLACK
10
140.5124999999999886
20
-33.9260000000000019
40
1.75
50
-180.00000000
51
-0.00000000
0
ARC
8
BLACK
10
47.4074999999999989
20
-33.9260000000000019
40
1.75
50
-0.00000000
51
180.00000000
0
CIRCLE
8
BLACK
10
173.9474999999999909
20
-51.3659999999999997
40
8.
0
LINE
8
BLACK
6
CONTINUOUS
10
32.8305000000000007
20
-29.5659999999999989
11
32.8305000000000007
21
-105.0459999999999923
0
ARC
8
BLACK
10
187.0649999999999977
20
-33.9260000000000019
40
1.75
50
-0.00000000
51
180.00000000
0
ARC
8
BLACK
10
233.6174999999999784
20
-33.9260000000000019
40
1.75
50
-180.00000000
51
-0.00000000
0
ARC
8
BLACK
10
37.2474999999999952
20
-98.215999999999994
40
1.75
50
-180.00000000
51
-0.00000000
0
ARC
8
BLACK
10
47.4074999999999989
20
-100.7560000000000002
40
1.75
50
-0.00000000
51
180.00000000
0
ARC
8
BLACK
10
47.4074999999999989
20
-100.7560000000000002
40
1.75
50
-180.00000000
51
-0.00000000
0
ARC
8
BLACK
10
37.2474999999999952
20
-53.7459999999999951
40
1.75
50
-0.00000000
51
180.00000000
0
ARC
8
BLACK
10
93.9599999999999937
20
-100.7560000000000002
40
1.75
50
-180.00000000
51
-0.00000000
0
LINE
8
BLACK
6
CONTINUOUS
10
258.8904999999999745
20
-29.5659999999999989
11
32.8305000000000007
21
-29.5659999999999989
0
ARC
8
BLACK
10
93.9599999999999937
20
-100.7560000000000002
40
1.75
50
-0.00000000
51
180.00000000
0
ARC
8
BLACK
10
255.9975000000000023
20
-53.7459999999999951
40
1.75
50
-180.00000000
51
-0.00000000
0
ARC
8
BLACK
10
187.0649999999999977
20
-33.9260000000000019
40
1.75
50
-180.00000000
51
-0.00000000
0
LINE
8
BLACK
6
CONTINUOUS
10
35.3882679999999965
20
-108.2108379999999954
11
35.3882679999999965
21
-106.2108379999999954
0
LINE
8
BLACK
6
CONTINUOUS
10
35.3882679999999965
20
-106.2108379999999954
11
35.8644579999999991
21
-106.2108379999999954
0
LINE
8
BLACK
6
CONTINUOUS
10
35.8644579999999991
20
-106.2108379999999954
11
36.1501729999999952
21
-106.3060759999999902
0
LINE
8
BLACK
6
CONTINUOUS
10
36.1501729999999952
20
-106.3060759999999902
11
36.3406489999999991
21
-106.4965519999999941
0
LINE
8
BLACK
6
CONTINUOUS
10
36.3406489999999991
20
-106.4965519999999941
11
36.435887000000001
21
-106.687027999999998
0
LINE
8
BLACK
6
CONTINUOUS
10
36.435887000000001
20
-106.687027999999998
11
36.5311249999999959
21
-107.0679799999999915
0
LINE
8
BLACK
6
CONTINUOUS
10
36.5311249999999959
20
-107.0679799999999915
11
36.5311249999999959
21
-107.3536950000000019
0
LINE
8
BLACK
6
CONTINUOUS
10
36.5311249999999959
20
-107.3536950000000019
11
36.435887000000001
21
-107.7346469999999954
0
LINE
8
BLACK
6
CONTINUOUS
10
36.435887000000001
20
-107.7346469999999954
11
36.3406489999999991
21
-107.9251229999999993
0
LINE
8
BLACK
6
CONTINUOUS
10
36.3406489999999991
20
-107.9251229999999993
11
36.1501729999999952
21
-108.1156000000000006
0
LINE
8
BLACK
6
CONTINUOUS
10
36.1501729999999952
20
-108.1156000000000006
11
35.8644579999999991
21
-108.2108379999999954
0
LINE
8
BLACK
6
CONTINUOUS
10
35.8644579999999991
20
-108.2108379999999954
11
35.3882679999999965
21
-108.2108379999999954
0
LINE
8
BLACK
6
CONTINUOUS
10
37.3882679999999965
20
-108.2108379999999954
11
37.3882679999999965
21
-106.8775040000000018
0
LINE
8
BLACK
6
CONTINUOUS
10
37.3882679999999965
20
-107.2584569999999928
11
37.4835059999999984
21
-107.0679799999999915
0
LINE
8
BLACK
6
CONTINUOUS
10
37.4835059999999984
20
-107.0679799999999915
11
37.5787440000000004
21
-106.9727419999999967
0
LINE
8
BLACK
6
CONTINUOUS
10
37.5787440000000004
20
-106.9727419999999967
11
37.7692199999999971
21
-106.8775040000000018
0
LINE
8
BLACK
6
CONTINUOUS
10
37.7692199999999971
20
-106.8775040000000018
11
37.9596969999999985
21
-106.8775040000000018
0
LINE
8
BLACK
6
CONTINUOUS
10
38.6263629999999978
20
-108.2108379999999954
11
38.6263629999999978
21
-106.8775040000000018
0
LINE
8
BLACK
6
CONTINUOUS
10
38.6263629999999978
20
-106.2108379999999954
11
38.5311249999999959
21
-106.3060759999999902
0
LINE
8
BLACK
6
CONTINUOUS
10
38.5311249999999959
20
-106.3060759999999902
11
38.6263629999999978
21
-106.4013139999999993
0
LINE
8
BLACK
6
CONTINUOUS
10
38.6263629999999978
20
-106.4013139999999993
11
38.7216009999999997
21
-106.3060759999999902
0
LINE
8
BLACK
6
CONTINUOUS
10
38.7216009999999997
20
-106.3060759999999902
11
38.6263629999999978
21
-106.2108379999999954
0
LINE
8
BLACK
6
CONTINUOUS
10
38.6263629999999978
20
-106.2108379999999954
11
38.6263629999999978
21
-106.4013139999999993
0
LINE
8
BLACK
6
CONTINUOUS
10
39.8644579999999991
20
-108.2108379999999954
11
39.6739819999999952
21
-108.1156000000000006
0
LINE
8
BLACK
6
CONTINUOUS
10
39.6739819999999952
20
-108.1156000000000006
11
39.5787440000000004
21
-107.9251229999999993
0
LINE
8
BLACK
6
CONTINUOUS
10
39.5787440000000004
20
-107.9251229999999993
11
39.5787440000000004
21
-106.2108379999999954
0
LINE
8
BLACK
6
CONTINUOUS
10
40.9120769999999965
20
-108.2108379999999954
11
40.7216009999999997
21
-108.1156000000000006
0
LINE
8
BLACK
6
CONTINUOUS
10
40.7216009999999997
20
-108.1156000000000006
11
40.6263629999999978
21
-107.9251229999999993
0
LINE
8
BLACK
6
CONTINUOUS
10
40.6263629999999978
20
-107.9251229999999993
11
40.6263629999999978
21
-106.2108379999999954
0
LINE
8
BLACK
6
CONTINUOUS
10
43.1977919999999997
20
-108.2108379999999954
11
43.1977919999999997
21
-106.2108379999999954
0
LINE
8
BLACK
6
CONTINUOUS
10
43.1977919999999997
20
-106.2108379999999954
11
43.8644589999999965
21
-107.6394090000000006
0
LINE
8
BLACK
6
CONTINUOUS
10
43.8644589999999965
20
-107.6394090000000006
11
44.5311249999999959
21
-106.2108379999999954
0
LINE
8
BLACK
6
CONTINUOUS
10
44.5311249999999959
20
-106.2108379999999954
11
44.5311249999999959
21
-108.2108379999999954
0
LINE
8
BLACK
6
CONTINUOUS
10
46.3406489999999991
20
-108.2108379999999954
11
46.3406489999999991
21
-107.163218999999998
0
LINE
8
BLACK
6
CONTINUOUS
10
46.3406489999999991
20
-107.163218999999998
11
46.2454109999999972
21
-106.9727419999999967
0
LINE
8
BLACK
6
CONTINUOUS
10
46.2454109999999972
20
-106.9727419999999967
11
46.0549350000000004
21
-106.8775040000000018
0
LINE
8
BLACK
6
CONTINUOUS
10
46.0549350000000004
20
-106.8775040000000018
11
45.6739819999999952
21
-106.8775040000000018
0
LINE
8
BLACK
6
CONTINUOUS
10
45.6739819999999952
20
-106.8775040000000018
11
45.4835059999999984
21
-106.9727419999999967
0
LINE
8
BLACK
6
CONTINUOUS
10
46.3406489999999991
20
-108.1156000000000006
11
46.1501729999999952
21
-108.2108379999999954
0
LINE
8
BLACK
6
CONTINUOUS
10
46.1501729999999952
20
-108.2108379999999954
11
45.6739819999999952
21
-108.2108379999999954
0
LINE
8
BLACK
6
CONTINUOUS
10
45.6739819999999952
20
-108.2108379999999954
11
45.4835059999999984
21
-108.1156000000000006
0
LINE
8
BLACK
6
CONTINUOUS
10
45.4835059999999984
20
-108.1156000000000006
11
45.3882679999999965
21
-107.9251229999999993
0
LINE
8
BLACK
6
CONTINUOUS
10
45.3882679999999965
20
-107.9251229999999993
11
45.3882679999999965
21
-107.7346469999999954
0
LINE
8
BLACK
6
CONTINUOUS
10
45.3882679999999965
20
-107.7346469999999954
11
45.4835059999999984
21
-107.5441709999999915
0
LINE
8
BLACK
6
CONTINUOUS
10
45.4835059999999984
20
-107.5441709999999915
11
45.6739819999999952
21
-107.4489329999999967
0
LINE
8
BLACK
6
CONTINUOUS
10
45.6739819999999952
20
-107.4489329999999967
11
46.1501729999999952
21
-107.4489329999999967
0
LINE
8
BLACK
6
CONTINUOUS
10
46.1501729999999952
20
-107.4489329999999967
11
46.3406489999999991
21
-107.3536950000000019
0
LINE
8
BLACK
6
CONTINUOUS
10
47.2930299999999946
20
-106.8775040000000018
11
47.2930299999999946
21
-108.8775040000000018
0
LINE
8
BLACK
6
CONTINUOUS
10
47.2930299999999946
20
-106.9727419999999967
11
47.4835059999999984
21
-106.8775040000000018
0
LINE
8
BLACK
6
CONTINUOUS
10
47.4835059999999984
20
-106.8775040000000018
11
47.8644589999999965
21
-106.8775040000000018
0
LINE
8
BLACK
6
CONTINUOUS
10
47.8644589999999965
20
-106.8775040000000018
11
48.0549350000000004
21
-106.9727419999999967
0
LINE
8
BLACK
6
CONTINUOUS
10
48.0549350000000004
20
-106.9727419999999967
11
48.1501729999999952
21
-107.0679799999999915
0
LINE
8
BLACK
6
CONTINUOUS
10
48.1501729999999952
20
-107.0679799999999915
11
48.2454109999999972
21
-107.2584569999999928
0
LINE
8
BLACK
6
CONTINUOUS
10
48.2454109999999972
20
-107.2584569999999928
11
48.2454109999999972
21
-107.8298849999999902
0
LINE
8
BLACK
6
CONTINUOUS
10
48.2454109999999972
20
-107.8298849999999902
11
48.1501729999999952
21
-108.0203609999999941
0
LINE
8
BLACK
6
CONTINUOUS
10
48.1501729999999952
20
-108.0203609999999941
11
48.0549350000000004
21
-108.1156000000000006
0
LINE
8
BLACK
6
CONTINUOUS
10
48.0549350000000004
20
-108.1156000000000006
11
47.8644589999999965
21
-108.2108379999999954
0
LINE
8
BLACK
6
CONTINUOUS
10
47.8644589999999965
20
-108.2108379999999954
11
47.4835059999999984
21
-108.2108379999999954
0
LINE
8
BLACK
6
CONTINUOUS
10
47.4835059999999984
20
-108.2108379999999954
11
47.2930299999999946
21
-108.1156000000000006
0
LINE
8
BLACK
6
CONTINUOUS
10
49.1025539999999978
20
-108.0203609999999941
11
49.1977919999999997
21
-108.1156000000000006
0
LINE
8
BLACK
6
CONTINUOUS
10
49.1977919999999997
20
-108.1156000000000006
11
49.1025539999999978
21
-108.2108379999999954
0
LINE
8
BLACK
6
CONTINUOUS
10
49.1025539999999978
20
-108.2108379999999954
11
49.0073159999999959
21
-108.1156000000000006
0
LINE
8
BLACK
6
CONTINUOUS
10
49.0073159999999959
20
-108.1156000000000006
11
49.1025539999999978
21
-108.0203609999999941
0
LINE
8
BLACK
6
CONTINUOUS
10
49.1025539999999978
20
-108.0203609999999941
11
49.1025539999999978
21
-108.2108379999999954
0
LINE
8
BLACK
6
CONTINUOUS
10
49.1025539999999978
20
-106.9727419999999967
11
49.1977919999999997
21
-107.0679799999999915
0
LINE
8
BLACK
6
CONTINUOUS
10
49.1977919999999997
20
-107.0679799999999915
11
49.1025539999999978
21
-107.163218999999998
0
LINE
8
BLACK
6
CONTINUOUS
10
49.1025539999999978
20
-107.163218999999998
11
49.0073159999999959
21
-107.0679799999999915
0
LINE
8
BLACK
6
CONTINUOUS
10
49.0073159999999959
20
-107.0679799999999915
11
49.1025539999999978
21
-106.9727419999999967
0
LINE
8
BLACK
6
CONTINUOUS
10
49.1025539999999978
20
-106.9727419999999967
11
49.1025539999999978
21
-107.163218999999998
  0
ENDSEC
  0
EOF
