%TF.GenerationSoftware,KiCad,Pcbnew,7.0.9*%
%TF.CreationDate,2023-12-03T09:41:02+10:00*%
%TF.ProjectId,UFC,5546432e-6b69-4636-9164-5f7063625858,rev?*%
%TF.SameCoordinates,Original*%
%TF.FileFunction,Soldermask,Top*%
%TF.FilePolarity,Negative*%
%FSLAX46Y46*%
G04 Gerber Fmt 4.6, Leading zero omitted, Abs format (unit mm)*
G04 Created by KiCad (PCBNEW 7.0.9) date 2023-12-03 09:41:02*
%MOMM*%
%LPD*%
G01*
G04 APERTURE LIST*
G04 Aperture macros list*
%AMRoundRect*
0 Rectangle with rounded corners*
0 $1 Rounding radius*
0 $2 $3 $4 $5 $6 $7 $8 $9 X,Y pos of 4 corners*
0 Add a 4 corners polygon primitive as box body*
4,1,4,$2,$3,$4,$5,$6,$7,$8,$9,$2,$3,0*
0 Add four circle primitives for the rounded corners*
1,1,$1+$1,$2,$3*
1,1,$1+$1,$4,$5*
1,1,$1+$1,$6,$7*
1,1,$1+$1,$8,$9*
0 Add four rect primitives between the rounded corners*
20,1,$1+$1,$2,$3,$4,$5,0*
20,1,$1+$1,$4,$5,$6,$7,0*
20,1,$1+$1,$6,$7,$8,$9,0*
20,1,$1+$1,$8,$9,$2,$3,0*%
G04 Aperture macros list end*
%ADD10C,1.600000*%
%ADD11O,1.600000X1.600000*%
%ADD12R,1.800000X1.800000*%
%ADD13C,1.800000*%
%ADD14O,1.800000X1.800000*%
%ADD15RoundRect,0.250000X0.845000X-0.620000X0.845000X0.620000X-0.845000X0.620000X-0.845000X-0.620000X0*%
%ADD16O,2.190000X1.740000*%
%ADD17O,1.850000X3.048000*%
%ADD18O,3.048000X1.850000*%
%ADD19RoundRect,0.250000X0.620000X0.845000X-0.620000X0.845000X-0.620000X-0.845000X0.620000X-0.845000X0*%
%ADD20O,1.740000X2.190000*%
G04 APERTURE END LIST*
D10*
%TO.C,R8*%
X56700000Y-88010000D03*
D11*
X54160000Y-88010000D03*
%TD*%
D12*
%TO.C,D57*%
X46925000Y-87260000D03*
D13*
X49465000Y-87260000D03*
%TD*%
D12*
%TO.C,D56*%
X36785000Y-70070000D03*
D13*
X39325000Y-70070000D03*
%TD*%
D12*
%TO.C,D55*%
X47045000Y-53950000D03*
D13*
X49585000Y-53950000D03*
%TD*%
D12*
%TO.C,D51*%
X186800000Y-83280000D03*
D14*
X186800000Y-85820000D03*
%TD*%
D12*
%TO.C,D32*%
X244010000Y-75600000D03*
D14*
X244010000Y-78140000D03*
%TD*%
D12*
%TO.C,D31*%
X238200000Y-48980000D03*
D14*
X238200000Y-51520000D03*
%TD*%
D12*
%TO.C,D30*%
X212700000Y-78050000D03*
D14*
X215240000Y-78050000D03*
%TD*%
D12*
%TO.C,D29*%
X227670000Y-48880000D03*
D14*
X227670000Y-51420000D03*
%TD*%
D12*
%TO.C,D28*%
X208760000Y-75020000D03*
D14*
X208760000Y-77560000D03*
%TD*%
D12*
%TO.C,D27*%
X196110000Y-78460000D03*
D14*
X198650000Y-78460000D03*
%TD*%
D12*
%TO.C,D26*%
X231130000Y-48950000D03*
D14*
X231130000Y-51490000D03*
%TD*%
D12*
%TO.C,D25*%
X191020000Y-80640000D03*
D14*
X191020000Y-83180000D03*
%TD*%
D12*
%TO.C,D24*%
X155770000Y-80420000D03*
D14*
X155770000Y-82960000D03*
%TD*%
D12*
%TO.C,D23*%
X120130000Y-79450000D03*
D14*
X120130000Y-81990000D03*
%TD*%
D12*
%TO.C,D22*%
X103890000Y-61920000D03*
D14*
X103890000Y-64460000D03*
%TD*%
D12*
%TO.C,D21*%
X121020000Y-43640000D03*
D14*
X121020000Y-46180000D03*
%TD*%
D12*
%TO.C,D19*%
X208630000Y-85200000D03*
D14*
X208630000Y-87740000D03*
%TD*%
D12*
%TO.C,D18*%
X234590000Y-48880000D03*
D14*
X234590000Y-51420000D03*
%TD*%
D12*
%TO.C,D17*%
X160280000Y-80480000D03*
D14*
X160280000Y-83020000D03*
%TD*%
D12*
%TO.C,D16*%
X103830000Y-79170000D03*
D14*
X103830000Y-81710000D03*
%TD*%
D12*
%TO.C,D15*%
X120540000Y-62050000D03*
D14*
X120540000Y-64590000D03*
%TD*%
D12*
%TO.C,D14*%
X104020000Y-44100000D03*
D14*
X104020000Y-46640000D03*
%TD*%
D12*
%TO.C,D13*%
X155370000Y-67530000D03*
D14*
X155370000Y-70070000D03*
%TD*%
D12*
%TO.C,D12*%
X138330000Y-40110000D03*
D14*
X138330000Y-42650000D03*
%TD*%
D12*
%TO.C,D11*%
X88650000Y-79150000D03*
D14*
X88650000Y-81690000D03*
%TD*%
D12*
%TO.C,D10*%
X88780000Y-61940000D03*
D14*
X88780000Y-64480000D03*
%TD*%
D12*
%TO.C,D9*%
X88760000Y-43970000D03*
D14*
X88760000Y-46510000D03*
%TD*%
D12*
%TO.C,D8*%
X138140000Y-78960000D03*
D14*
X138140000Y-81500000D03*
%TD*%
D12*
%TO.C,D7*%
X138150000Y-61960000D03*
D14*
X138150000Y-64500000D03*
%TD*%
D12*
%TO.C,D6*%
X138400000Y-50630000D03*
D14*
X138400000Y-53170000D03*
%TD*%
D12*
%TO.C,D5*%
X73430000Y-79170000D03*
D14*
X73430000Y-81710000D03*
%TD*%
D12*
%TO.C,D4*%
X73530000Y-61880000D03*
D14*
X73530000Y-64420000D03*
%TD*%
D12*
%TO.C,D3*%
X73530000Y-44030000D03*
D14*
X73530000Y-46570000D03*
%TD*%
D12*
%TO.C,D2*%
X57840000Y-73910000D03*
D14*
X57840000Y-76450000D03*
%TD*%
D12*
%TO.C,D1*%
X57790000Y-59110000D03*
D14*
X57790000Y-61650000D03*
%TD*%
D10*
%TO.C,R7*%
X191190000Y-90360000D03*
D11*
X188650000Y-90360000D03*
%TD*%
D12*
%TO.C,D54*%
X240535000Y-72300000D03*
D13*
X243075000Y-72300000D03*
%TD*%
D12*
%TO.C,D53*%
X207500000Y-98930000D03*
D13*
X210040000Y-98930000D03*
%TD*%
D12*
%TO.C,D52*%
X190520000Y-63880000D03*
D13*
X193060000Y-63880000D03*
%TD*%
D10*
%TO.C,R6*%
X142015000Y-92500000D03*
D11*
X139475000Y-92500000D03*
%TD*%
D10*
%TO.C,R5*%
X136730000Y-92400000D03*
D11*
X134190000Y-92400000D03*
%TD*%
D10*
%TO.C,R4*%
X121240000Y-92460000D03*
D11*
X118700000Y-92460000D03*
%TD*%
D10*
%TO.C,R3*%
X103950000Y-92590000D03*
D11*
X101410000Y-92590000D03*
%TD*%
D10*
%TO.C,R2*%
X90240000Y-92740000D03*
D11*
X87700000Y-92740000D03*
%TD*%
D10*
%TO.C,R1*%
X74755000Y-92800000D03*
D11*
X72215000Y-92800000D03*
%TD*%
D15*
%TO.C,J5*%
X180430000Y-96080000D03*
D16*
X180430000Y-93540000D03*
%TD*%
D12*
%TO.C,D50*%
X147310000Y-57305000D03*
D13*
X147310000Y-54765000D03*
%TD*%
D12*
%TO.C,D49*%
X129360000Y-57400000D03*
D13*
X129360000Y-54860000D03*
%TD*%
D12*
%TO.C,D48*%
X111390000Y-57245000D03*
D13*
X111390000Y-54705000D03*
%TD*%
D12*
%TO.C,D47*%
X96430000Y-57430000D03*
D13*
X96430000Y-54890000D03*
%TD*%
D12*
%TO.C,D46*%
X81140000Y-57375000D03*
D13*
X81140000Y-54835000D03*
%TD*%
D12*
%TO.C,D45*%
X65910000Y-57235000D03*
D13*
X65910000Y-54695000D03*
%TD*%
D12*
%TO.C,D44*%
X147350000Y-75225000D03*
D13*
X147350000Y-72685000D03*
%TD*%
D12*
%TO.C,D43*%
X129320000Y-75185000D03*
D13*
X129320000Y-72645000D03*
%TD*%
%TO.C,D42*%
X111050000Y-72670000D03*
D12*
X111050000Y-75210000D03*
%TD*%
%TO.C,D41*%
X96400000Y-75250000D03*
D13*
X96400000Y-72710000D03*
%TD*%
D12*
%TO.C,D40*%
X81140000Y-75185000D03*
D13*
X81140000Y-72645000D03*
%TD*%
D12*
%TO.C,D39*%
X65720000Y-75225000D03*
D13*
X65720000Y-72685000D03*
%TD*%
D12*
%TO.C,D38*%
X147390000Y-93445000D03*
D13*
X147390000Y-90905000D03*
%TD*%
D12*
%TO.C,D37*%
X129580000Y-93375000D03*
D13*
X129580000Y-90835000D03*
%TD*%
D12*
%TO.C,D36*%
X111180000Y-93360000D03*
D13*
X111180000Y-90820000D03*
%TD*%
D12*
%TO.C,D35*%
X96370000Y-93380000D03*
D13*
X96370000Y-90840000D03*
%TD*%
D12*
%TO.C,D34*%
X81120000Y-93345000D03*
D13*
X81120000Y-90805000D03*
%TD*%
D12*
%TO.C,D33*%
X65610000Y-93540000D03*
D13*
X65610000Y-91000000D03*
%TD*%
D17*
%TO.C,SW10*%
X78640000Y-71300000D03*
X78640000Y-58800000D03*
X83640000Y-71300000D03*
X83640000Y-58800000D03*
%TD*%
%TO.C,SW8*%
X126870000Y-89060000D03*
X126870000Y-76560000D03*
X131870000Y-89060000D03*
X131870000Y-76560000D03*
%TD*%
D18*
%TO.C,SW32*%
X169040000Y-82850000D03*
X181540000Y-82850000D03*
X169040000Y-87850000D03*
X181540000Y-87850000D03*
%TD*%
D17*
%TO.C,SW19*%
X198180000Y-94190000D03*
X198180000Y-81690000D03*
X203180000Y-94190000D03*
X203180000Y-81690000D03*
%TD*%
D18*
%TO.C,SW30*%
X239330000Y-67920000D03*
X226830000Y-67920000D03*
X239330000Y-62920000D03*
X226830000Y-62920000D03*
%TD*%
D17*
%TO.C,SW11*%
X78640000Y-89080000D03*
X78640000Y-76580000D03*
X83640000Y-89080000D03*
X83640000Y-76580000D03*
%TD*%
D18*
%TO.C,SW26*%
X206940000Y-72640000D03*
X194440000Y-72640000D03*
X206940000Y-67640000D03*
X194440000Y-67640000D03*
%TD*%
%TO.C,SW24*%
X177280000Y-70160000D03*
X189780000Y-70160000D03*
X177280000Y-75160000D03*
X189780000Y-75160000D03*
%TD*%
D17*
%TO.C,SW21*%
X93920000Y-71310000D03*
X93920000Y-58810000D03*
X98920000Y-71310000D03*
X98920000Y-58810000D03*
%TD*%
%TO.C,SW13*%
X144850000Y-71300000D03*
X144850000Y-58800000D03*
X149850000Y-71300000D03*
X149850000Y-58800000D03*
%TD*%
%TO.C,SW22*%
X108560000Y-89060000D03*
X108560000Y-76560000D03*
X113560000Y-89060000D03*
X113560000Y-76560000D03*
%TD*%
%TO.C,SW16*%
X93900000Y-89090000D03*
X93900000Y-76590000D03*
X98900000Y-89090000D03*
X98900000Y-76590000D03*
%TD*%
%TO.C,SW23*%
X144840000Y-89060000D03*
X144840000Y-76560000D03*
X149840000Y-89060000D03*
X149840000Y-76560000D03*
%TD*%
D18*
%TO.C,SW31*%
X239330000Y-80560000D03*
X226830000Y-80560000D03*
X239330000Y-75560000D03*
X226830000Y-75560000D03*
%TD*%
D17*
%TO.C,SW4*%
X63210000Y-71320000D03*
X63210000Y-58820000D03*
X68210000Y-71320000D03*
X68210000Y-58820000D03*
%TD*%
%TO.C,SW6*%
X126880000Y-53490000D03*
X126880000Y-40990000D03*
X131880000Y-53490000D03*
X131880000Y-40990000D03*
%TD*%
D18*
%TO.C,SW1*%
X41840000Y-59990000D03*
X54340000Y-59990000D03*
X41840000Y-64990000D03*
X54340000Y-64990000D03*
%TD*%
D17*
%TO.C,SW27*%
X213640000Y-94150000D03*
X213640000Y-81650000D03*
X218640000Y-94150000D03*
X218640000Y-81650000D03*
%TD*%
%TO.C,SW15*%
X108540000Y-71300000D03*
X108540000Y-58800000D03*
X113540000Y-71300000D03*
X113540000Y-58800000D03*
%TD*%
%TO.C,SW20*%
X109130000Y-53310000D03*
X109130000Y-40810000D03*
X114130000Y-53310000D03*
X114130000Y-40810000D03*
%TD*%
%TO.C,SW5*%
X63220000Y-89090000D03*
X63220000Y-76590000D03*
X68220000Y-89090000D03*
X68220000Y-76590000D03*
%TD*%
D18*
%TO.C,SW25*%
X194440000Y-54910000D03*
X206940000Y-54910000D03*
X194440000Y-59910000D03*
X206940000Y-59910000D03*
%TD*%
D17*
%TO.C,SW14*%
X93880000Y-53320000D03*
X93880000Y-40820000D03*
X98880000Y-53320000D03*
X98880000Y-40820000D03*
%TD*%
D18*
%TO.C,SW17*%
X171310000Y-75140000D03*
X158810000Y-75140000D03*
X171310000Y-70140000D03*
X158810000Y-70140000D03*
%TD*%
D17*
%TO.C,SW9*%
X78630000Y-53330000D03*
X78630000Y-40830000D03*
X83630000Y-53330000D03*
X83630000Y-40830000D03*
%TD*%
D18*
%TO.C,SW2*%
X41830000Y-75260000D03*
X54330000Y-75260000D03*
X41830000Y-80260000D03*
X54330000Y-80260000D03*
%TD*%
%TO.C,SW28*%
X223150000Y-59930000D03*
X210650000Y-59930000D03*
X223150000Y-54930000D03*
X210650000Y-54930000D03*
%TD*%
D17*
%TO.C,SW7*%
X126790000Y-71260000D03*
X126790000Y-58760000D03*
X131790000Y-71260000D03*
X131790000Y-58760000D03*
%TD*%
%TO.C,SW12*%
X144820000Y-53330000D03*
X144820000Y-40830000D03*
X149820000Y-53330000D03*
X149820000Y-40830000D03*
%TD*%
D18*
%TO.C,SW29*%
X210670000Y-67660000D03*
X223170000Y-67660000D03*
X210670000Y-72660000D03*
X223170000Y-72660000D03*
%TD*%
D17*
%TO.C,SW3*%
X63480000Y-53330000D03*
X63480000Y-40830000D03*
X68480000Y-53330000D03*
X68480000Y-40830000D03*
%TD*%
D19*
%TO.C,D20*%
X209200000Y-45730000D03*
D20*
X206660000Y-45730000D03*
%TD*%
D19*
%TO.C,SW18*%
X199460000Y-44220000D03*
D20*
X196920000Y-44220000D03*
%TD*%
D19*
%TO.C,J1*%
X246280000Y-91160000D03*
D20*
X243740000Y-91160000D03*
%TD*%
D19*
%TO.C,J3*%
X167610000Y-92720000D03*
D20*
X165070000Y-92720000D03*
X162530000Y-92720000D03*
X159990000Y-92720000D03*
X157450000Y-92720000D03*
X154910000Y-92720000D03*
%TD*%
D19*
%TO.C,J2*%
X239070000Y-91140000D03*
D20*
X236530000Y-91140000D03*
X233990000Y-91140000D03*
X231450000Y-91140000D03*
X228910000Y-91140000D03*
X226370000Y-91140000D03*
%TD*%
M02*
