<?xml version="1.0" standalone="no"?>
 <!DOCTYPE svg PUBLIC "-//W3C//DTD SVG 1.1//EN" 
 "http://www.w3.org/Graphics/SVG/1.1/DTD/svg11.dtd"> 
<svg
  xmlns:svg="http://www.w3.org/2000/svg"
  xmlns="http://www.w3.org/2000/svg"
  xmlns:xlink="http://www.w3.org/1999/xlink"
  version="1.1"
  width="297.0022mm" height="210.0072mm" viewBox="0.0000 0.0000 297.0022 210.0072">
<title>SVG Image created as UFC-Edge_Cuts.svg date 2023/12/13 06:31:23 </title>
  <desc>Image generated by PCBNEW </desc>
<g style="fill:#000000; fill-opacity:1.0000;stroke:#000000; stroke-opacity:1.0000;
stroke-linecap:round; stroke-linejoin:round;"
 transform="translate(0 0) scale(1 1)">
</g>
<g style="fill:#000000; fill-opacity:0.0; 
stroke:#000000; stroke-width:0.0000; stroke-opacity:1; 
stroke-linecap:round; stroke-linejoin:round;">
</g>
<g style="fill:#000000; fill-opacity:0.0; 
stroke:#000000; stroke-width:0.1000; stroke-opacity:1; 
stroke-linecap:round; stroke-linejoin:round;">
<path d="M257.7475 98.2160 A1.7500 1.7500 0.0 0 0 254.2475 98.2160" />
<path d="M35.4975 53.7460 A1.7500 1.7500 0.0 0 0 38.9975 53.7460" />
<path d="M38.9975 98.2160 A1.7500 1.7500 0.0 0 0 35.4975 98.2160" />
<path d="M231.8675 100.7560 A1.7500 1.7500 0.0 0 0 235.3675 100.7560" />
<path d="M235.3675 100.7560 A1.7500 1.7500 0.0 0 0 231.8675 100.7560" />
<path d="M95.7100 33.9260 A1.7500 1.7500 0.0 0 0 92.2100 33.9260" />
<path d="M257.7475 53.7460 A1.7500 1.7500 0.0 0 0 254.2475 53.7460" />
<path d="M254.2475 98.2160 A1.7500 1.7500 0.0 0 0 257.7475 98.2160" />
<path d="M138.7625 100.7560 A1.7500 1.7500 0.0 0 0 142.2625 100.7560" />
<path d="M92.2100 33.9260 A1.7500 1.7500 0.0 0 0 95.7100 33.9260" />
<path d="M32.8305 105.0460
L258.8905 105.0460
" />
<path d="M188.8150 100.7560 A1.7500 1.7500 0.0 0 0 185.3150 100.7560" />
<path d="M142.2625 100.7560 A1.7500 1.7500 0.0 0 0 138.7625 100.7560" />
<path d="M235.3675 33.9260 A1.7500 1.7500 0.0 0 0 231.8675 33.9260" />
<path d="M185.3150 100.7560 A1.7500 1.7500 0.0 0 0 188.8150 100.7560" />
<path d="M142.2625 33.9260 A1.7500 1.7500 0.0 0 0 138.7625 33.9260" />
<path d="M258.8905 105.0460
L258.8905 29.5660
" />
<path d="M45.6575 33.9260 A1.7500 1.7500 0.0 0 0 49.1575 33.9260" />
<path d="M138.7625 33.9260 A1.7500 1.7500 0.0 0 0 142.2625 33.9260" />
<path d="M49.1575 33.9260 A1.7500 1.7500 0.0 0 0 45.6575 33.9260" />
<circle cx="173.9475" cy="51.3660" r="8.0000" /> 
<path d="M32.8305 29.5660
L32.8305 105.0460
" />
<path d="M188.8150 33.9260 A1.7500 1.7500 0.0 0 0 185.3150 33.9260" />
<path d="M231.8675 33.9260 A1.7500 1.7500 0.0 0 0 235.3675 33.9260" />
<path d="M35.4975 98.2160 A1.7500 1.7500 0.0 0 0 38.9975 98.2160" />
<path d="M49.1575 100.7560 A1.7500 1.7500 0.0 0 0 45.6575 100.7560" />
<path d="M45.6575 100.7560 A1.7500 1.7500 0.0 0 0 49.1575 100.7560" />
<path d="M38.9975 53.7460 A1.7500 1.7500 0.0 0 0 35.4975 53.7460" />
<path d="M92.2100 100.7560 A1.7500 1.7500 0.0 0 0 95.7100 100.7560" />
<path d="M258.8905 29.5660
L32.8305 29.5660
" />
<path d="M95.7100 100.7560 A1.7500 1.7500 0.0 0 0 92.2100 100.7560" />
<path d="M254.2475 53.7460 A1.7500 1.7500 0.0 0 0 257.7475 53.7460" />
<path d="M185.3150 33.9260 A1.7500 1.7500 0.0 0 0 188.8150 33.9260" />
<g >
</g>
<g >
</g>
<g >
</g>
<g >
</g>
<g >
</g>
<g >
</g>
<g >
</g>
<g >
</g>
<g >
</g>
<g >
</g>
<g >
</g>
<g >
</g>
<g >
</g>
<g >
</g>
<g >
</g>
<g >
</g>
<g >
</g>
<g >
</g>
<g >
</g>
<g >
</g>
<g >
</g>
<g >
</g>
<g >
</g>
<g >
</g>
<g >
</g>
<g >
</g>
<g >
</g>
<g >
</g>
<g >
</g>
<g >
</g>
<g >
</g>
<g >
</g>
<g >
</g>
<g >
</g>
<g >
</g>
<g >
</g>
<g >
</g>
<g >
</g>
<g >
</g>
<g >
</g>
<g >
</g>
<g >
</g>
<g >
</g>
<g >
</g>
<g >
</g>
<g >
</g>
<g >
</g>
<g >
</g>
<g >
</g>
<g >
</g>
<g >
</g>
<g >
</g>
<g >
</g>
<g >
</g>
<g >
</g>
<g >
</g>
<g >
</g>
<g >
</g>
<g >
</g>
<g >
</g>
<g >
</g>
<g >
</g>
<g >
</g>
<g >
</g>
<g >
</g>
<g >
</g>
<g >
</g>
<g >
</g>
<g >
</g>
<g >
</g>
<g >
</g>
<g >
</g>
<g >
</g>
<g >
</g>
<g >
</g>
<g >
</g>
<g >
</g>
<g >
</g>
<g >
</g>
<g >
</g>
<g >
</g>
<g >
</g>
<g >
</g>
<g >
</g>
<g >
</g>
<g >
</g>
<g >
</g>
<g >
</g>
<g >
</g>
<g >
</g>
<g >
</g>
<g >
</g>
<g >
</g>
<g >
</g>
<g >
</g>
<g >
</g>
<g >
</g>
<g >
</g>
<g >
</g>
<g >
</g>
<g >
</g>
<g >
</g>
<g >
</g>
<g >
</g>
</g> 
</svg>
