%TF.GenerationSoftware,KiCad,Pcbnew,8.0.2*%
%TF.CreationDate,2024-05-14T06:17:59+10:00*%
%TF.ProjectId,KORRY-INSERT,4b4f5252-592d-4494-9e53-4552542e6b69,rev?*%
%TF.SameCoordinates,Original*%
%TF.FileFunction,Legend,Bot*%
%TF.FilePolarity,Positive*%
%FSLAX46Y46*%
G04 Gerber Fmt 4.6, Leading zero omitted, Abs format (unit mm)*
G04 Created by KiCad (PCBNEW 8.0.2) date 2024-05-14 06:17:59*
%MOMM*%
%LPD*%
G01*
G04 APERTURE LIST*
%ADD10C,0.200000*%
%ADD11C,0.100000*%
%ADD12C,0.120000*%
G04 APERTURE END LIST*
D10*
X187143141Y-78283873D02*
X189143141Y-78283873D01*
X189143141Y-80783873D01*
X187143141Y-80783873D01*
X187143141Y-78283873D01*
G36*
X187143141Y-78283873D02*
G01*
X189143141Y-78283873D01*
X189143141Y-80783873D01*
X187143141Y-80783873D01*
X187143141Y-78283873D01*
G37*
D11*
X191386795Y-77658486D02*
X191279652Y-77694200D01*
X191279652Y-77694200D02*
X191243938Y-77729914D01*
X191243938Y-77729914D02*
X191208224Y-77801343D01*
X191208224Y-77801343D02*
X191208224Y-77908486D01*
X191208224Y-77908486D02*
X191243938Y-77979914D01*
X191243938Y-77979914D02*
X191279652Y-78015629D01*
X191279652Y-78015629D02*
X191351081Y-78051343D01*
X191351081Y-78051343D02*
X191636795Y-78051343D01*
X191636795Y-78051343D02*
X191636795Y-77301343D01*
X191636795Y-77301343D02*
X191386795Y-77301343D01*
X191386795Y-77301343D02*
X191315367Y-77337057D01*
X191315367Y-77337057D02*
X191279652Y-77372771D01*
X191279652Y-77372771D02*
X191243938Y-77444200D01*
X191243938Y-77444200D02*
X191243938Y-77515629D01*
X191243938Y-77515629D02*
X191279652Y-77587057D01*
X191279652Y-77587057D02*
X191315367Y-77622771D01*
X191315367Y-77622771D02*
X191386795Y-77658486D01*
X191386795Y-77658486D02*
X191636795Y-77658486D01*
X189315366Y-77979914D02*
X189351080Y-78015629D01*
X189351080Y-78015629D02*
X189458223Y-78051343D01*
X189458223Y-78051343D02*
X189529651Y-78051343D01*
X189529651Y-78051343D02*
X189636794Y-78015629D01*
X189636794Y-78015629D02*
X189708223Y-77944200D01*
X189708223Y-77944200D02*
X189743937Y-77872771D01*
X189743937Y-77872771D02*
X189779651Y-77729914D01*
X189779651Y-77729914D02*
X189779651Y-77622771D01*
X189779651Y-77622771D02*
X189743937Y-77479914D01*
X189743937Y-77479914D02*
X189708223Y-77408486D01*
X189708223Y-77408486D02*
X189636794Y-77337057D01*
X189636794Y-77337057D02*
X189529651Y-77301343D01*
X189529651Y-77301343D02*
X189458223Y-77301343D01*
X189458223Y-77301343D02*
X189351080Y-77337057D01*
X189351080Y-77337057D02*
X189315366Y-77372771D01*
X187958222Y-77301343D02*
X187529651Y-77301343D01*
X187743936Y-78051343D02*
X187743936Y-77301343D01*
X189749999Y-81591764D02*
X189749999Y-82127478D01*
X189749999Y-82127478D02*
X189785714Y-82234621D01*
X189785714Y-82234621D02*
X189857142Y-82306050D01*
X189857142Y-82306050D02*
X189964285Y-82341764D01*
X189964285Y-82341764D02*
X190035714Y-82341764D01*
X188999999Y-82341764D02*
X189428570Y-82341764D01*
X189214285Y-82341764D02*
X189214285Y-81591764D01*
X189214285Y-81591764D02*
X189285713Y-81698907D01*
X189285713Y-81698907D02*
X189357142Y-81770335D01*
X189357142Y-81770335D02*
X189428570Y-81806050D01*
D12*
%TO.C,J1*%
X187740000Y-78390000D02*
X188500000Y-78390000D01*
X187740000Y-79500000D02*
X187740000Y-78390000D01*
X189260000Y-78936529D02*
X189260000Y-78390000D01*
X189260000Y-80610000D02*
X189260000Y-80063471D01*
X191735000Y-78390000D02*
X189260000Y-78390000D01*
X191735000Y-79192470D02*
X191735000Y-78390000D01*
X191735000Y-80610000D02*
X189260000Y-80610000D01*
X191735000Y-80610000D02*
X191735000Y-79807530D01*
%TD*%
M02*
