M48
; DRILL file {KiCad (5.1.9-0-10_14)} date Thursday, June 30, 2022 at 11:53:09 AM
; FORMAT={-:-/ absolute / inch / decimal}
; #@! TF.CreationDate,2022-06-30T11:53:09+10:00
; #@! TF.GenerationSoftware,Kicad,Pcbnew,(5.1.9-0-10_14)
; #@! TF.FileFunction,Plated,1,2,PTH
FMAT,2
INCH
T1C0.0276
T2C0.0315
T3C0.0354
T4C0.0394
T5C0.0400
T6C0.0433
T7C0.0472
%
G90
G05
T1
X5.7025Y-3.16
X5.7075Y-2.9925
X5.7125Y-3.325
X5.7125Y-3.775
X5.7175Y-3.6275
X5.72Y-3.4825
X5.8025Y-3.16
X5.8075Y-2.9925
X5.8125Y-3.325
X5.8125Y-3.775
X5.8175Y-3.6275
X5.82Y-3.4825
X6.03Y-2.9775
X6.13Y-2.9775
X6.2525Y-2.975
X6.3525Y-2.975
X8.0425Y-2.8275
X8.0425Y-2.9275
X8.0425Y-3.0575
X8.0425Y-3.1575
X8.05Y-3.4225
X8.05Y-3.5225
X8.05Y-3.6525
X8.05Y-3.7525
X8.0625Y-4.025
X8.0625Y-4.125
X8.0625Y-4.255
X8.0625Y-4.355
T2
X8.0872Y-4.572
X8.284Y-4.572
X8.504Y-4.52
X8.6024Y-4.52
T3
X6.0325Y-3.5975
X6.035Y-3.345
X6.1325Y-3.5975
X6.135Y-3.345
T4
X5.01Y-2.79
X5.11Y-2.79
X5.21Y-2.79
X5.31Y-2.79
X5.41Y-2.79
X5.51Y-2.79
X5.61Y-2.79
X5.71Y-2.79
X6.07Y-4.69
X6.17Y-4.69
X6.27Y-4.69
X6.37Y-4.69
X6.47Y-4.69
X6.57Y-4.69
T5
X5.17Y-4.69
X5.27Y-4.69
X5.37Y-4.69
X5.47Y-4.69
X5.57Y-4.69
X5.67Y-4.69
X5.77Y-4.69
X5.87Y-2.79
X5.87Y-4.69
X5.97Y-2.79
X6.07Y-2.79
X6.17Y-2.79
X6.27Y-2.79
X6.37Y-2.79
X6.47Y-2.79
X6.57Y-2.79
X6.77Y-2.79
X6.87Y-2.79
X6.97Y-2.79
X6.97Y-4.69
X7.07Y-2.79
X7.07Y-4.69
X7.17Y-2.79
X7.17Y-4.69
X7.27Y-2.79
X7.27Y-4.69
X7.37Y-2.79
X7.37Y-4.69
X7.47Y-2.79
X7.47Y-4.69
X7.57Y-4.69
X7.67Y-4.69
X7.77Y-2.79
X7.77Y-2.89
X7.77Y-2.99
X7.77Y-3.09
X7.77Y-3.19
X7.77Y-3.29
X7.77Y-3.39
X7.77Y-3.49
X7.77Y-3.59
X7.77Y-3.69
X7.77Y-3.79
X7.77Y-3.89
X7.77Y-3.99
X7.77Y-4.09
X7.77Y-4.19
X7.77Y-4.29
X7.77Y-4.39
X7.77Y-4.49
X7.87Y-2.79
X7.87Y-2.89
X7.87Y-2.99
X7.87Y-3.09
X7.87Y-3.19
X7.87Y-3.29
X7.87Y-3.39
X7.87Y-3.49
X7.87Y-3.59
X7.87Y-3.69
X7.87Y-3.79
X7.87Y-3.89
X7.87Y-3.99
X7.87Y-4.09
X7.87Y-4.19
X7.87Y-4.29
X7.87Y-4.39
X7.87Y-4.49
T6
X5.3375Y-3.065
X5.345Y-3.335
X5.3525Y-3.59
X5.4375Y-3.065
X5.445Y-3.335
X5.4525Y-3.59
X5.5375Y-3.065
X5.545Y-3.335
X5.5525Y-3.59
X8.2575Y-2.8625
X8.2575Y-2.9625
X8.2575Y-3.0625
X8.2575Y-3.4687
X8.2575Y-3.5687
X8.2575Y-3.6687
X8.2575Y-4.075
X8.2575Y-4.175
X8.2575Y-4.275
T7
X5.02Y-3.4275
X5.025Y-3.0675
X5.04Y-3.8025
X5.12Y-3.4275
X5.125Y-3.0675
X5.14Y-3.8025
X5.435Y-3.815
X5.535Y-3.815
X5.678Y-4.426
X5.778Y-4.426
X5.87Y-3.996
X5.878Y-4.426
X5.97Y-3.996
X6.07Y-3.996
X6.17Y-3.996
X6.27Y-3.996
X6.37Y-3.996
X6.4655Y-4.38
X6.47Y-3.4675
X6.47Y-3.996
X6.5655Y-4.38
X6.57Y-3.4675
X6.57Y-3.996
X6.9255Y-4.38
X6.9275Y-3.47
X6.932Y-3.98
X7.0255Y-4.38
X7.0275Y-3.47
X7.032Y-3.98
X7.068Y-3.13
X7.132Y-3.98
X7.168Y-3.13
X7.203Y-4.38
X7.232Y-3.98
X7.268Y-3.13
X7.3015Y-3.523
X7.303Y-4.38
X7.332Y-3.98
X7.368Y-3.13
X7.4015Y-3.523
X7.432Y-3.98
X7.468Y-3.13
X7.5015Y-3.523
X7.568Y-3.13
X7.6015Y-3.523
X8.555Y-2.8325
X8.555Y-2.9325
X8.555Y-3.0325
X8.555Y-3.1325
X8.555Y-3.43
X8.555Y-3.53
X8.555Y-3.63
X8.555Y-3.73
X8.555Y-4.1
X8.555Y-4.2
T4
G00X5.2888Y-4.1656
M15
G01X5.2888Y-4.2444
M16
G05
G00X5.3675Y-4.39
M15
G01X5.4463Y-4.39
M16
G05
G00X5.525Y-4.1656
M15
G01X5.525Y-4.2444
M16
G05
T0
M30
