0
SECTION
2
HEADER
9
$INSUNITS
70
4
9
$ACADVER
1
AC1014
9
$HANDSEED
5
FFFF
0
ENDSEC
0
SECTION
2
TABLES
0
TABLE
2
VPORT
5
8
100
AcDbSymbolTable
0
ENDTAB
0
TABLE
2
LTYPE
5
5
100
AcDbSymbolTable
0
LTYPE
5
14
100
AcDbSymbolTableRecord
100
AcDbLinetypeTableRecord
2
BYBLOCK
70
0
0
LTYPE
5
15
100
AcDbSymbolTableRecord
100
AcDbLinetypeTableRecord
2
BYLAYER
70
0
0
ENDTAB
0
TABLE
2
LAYER
5
2
100
AcDbSymbolTable
70
2
0
LAYER
5
50
100
AcDbSymbolTableRecord
100
AcDbLayerTableRecord
2
0
70
0
6
CONTINUOUS
0
ENDTAB
0
TABLE
2
STYLE
5
3
100
AcDbSymbolTable
70
1
0
STYLE
5
11
100
AcDbSymbolTableRecord
100
AcDbTextStyleTableRecord
2
STANDARD
70
0
0
ENDTAB
0
TABLE
2
VIEW
5
6
100
AcDbSymbolTable
70
0
0
ENDTAB
0
TABLE
2
UCS
5
7
100
AcDbSymbolTable
70
0
0
ENDTAB
0
TABLE
2
APPID
5
9
100
AcDbSymbolTable
70
2
0
APPID
5
12
100
AcDbSymbolTableRecord
100
AcDbRegAppTableRecord
2
ACAD
70
0
0
ENDTAB
0
TABLE
2
DIMSTYLE
5
A
100
AcDbSymbolTable
70
1
0
ENDTAB
0
TABLE
2
BLOCK_RECORD
5
1
100
AcDbSymbolTable
70
1
0
BLOCK_RECORD
5
1F
100
AcDbSymbolTableRecord
100
AcDbBlockTableRecord
2
*MODEL_SPACE
0
BLOCK_RECORD
5
1B
100
AcDbSymbolTableRecord
100
AcDbBlockTableRecord
2
*PAPER_SPACE
0
ENDTAB
0
ENDSEC
0
SECTION
2
BLOCKS
0
BLOCK
5
20
100
AcDbEntity
100
AcDbBlockBegin
2
*MODEL_SPACE
0
ENDBLK
5
21
100
AcDbEntity
100
AcDbBlockEnd
0
BLOCK
5
1C
100
AcDbEntity
100
AcDbBlockBegin
2
*PAPER_SPACE
0
ENDBLK
5
1D
100
AcDbEntity
100
AcDbBlockEnd
0
ENDSEC
0
SECTION
2
ENTITIES
0
LWPOLYLINE
5
100
100
AcDbEntity
8
0
100
AcDbPolyline
90
4
70
1
43
0.0
10
-1047.3218049243451
20
-425.99474748242443
10
-1047.3331028688922
20
-483.14474636568286
10
-901.28310572278724
20
-483.17361889063659
10
-901.27180777823992
20
-426.02362000737799
0
LINE
5
101
100
AcDbEntity
8
0
100
AcDbLine
10
-955.12710118112045
20
-438.41344169513843
30
1.4210854715202004e-12
11
-957.62710001131381
21
-438.411068111443
31
1.4210854715202004e-12
0
ELLIPSE
5
102
100
AcDbEntity
8
0
100
AcDbEllipse
10
-957.62567672565569
20
-436.91015755347757
30
1.4210854715202004e-12
11
-1.4059796142546604e-15
21
-1.5009112336231831
31
0.0
40
0.9993928896648665
41
3.140643796376446
42
6.2822364499411139
0
LINE
5
103
100
AcDbEntity
8
0
100
AcDbLine
10
-957.62425344003509
20
-435.40924699551198
30
1.3500311979441904e-12
11
-955.1242546098398
21
-435.41162057920747
31
1.4210854715202004e-12
0
ELLIPSE
5
104
100
AcDbEntity
8
0
100
AcDbEllipse
10
-955.12567789548007
20
-436.91253113717289
30
1.4210854715202004e-12
11
-1.4059796142546604e-15
21
-1.5009112336231831
31
0.0
40
0.9993928896648665
41
6.2822364499529382
42
9.4238291035430723
0
LINE
5
105
100
AcDbEntity
8
0
100
AcDbLine
10
-971.30736718317758
20
-479.18085682949811
30
1.5631940186722204e-12
11
-971.30247392728165
21
-474.02072647414263
31
1.5631940186722204e-12
0
ELLIPSE
5
106
100
AcDbEntity
8
0
100
AcDbEllipse
10
-969.95247452010346
20
-474.02200820937503
30
1.4921397450962104e-12
11
1.7059219338452894e-15
21
-1.350820111751877
31
0.0
40
0.99939288966486728
41
1.5698474695683617
42
4.7114401231582113
0
LINE
5
107
100
AcDbEntity
8
0
100
AcDbLine
10
-968.60247511292505
20
-474.02328994460743
30
1.4921397450962104e-12
11
-968.60736836882086
21
-479.1834202999629
31
1.5631940186722204e-12
0
ELLIPSE
5
108
100
AcDbEntity
8
0
100
AcDbEllipse
10
-969.95736777599916
20
-479.18213856473045
30
1.5631940186722204e-12
11
1.7059219338452894e-15
21
-1.350820111751877
31
0.0
40
0.99939288966486728
41
4.711440123158269
42
7.8530327767478916
0
LINE
5
109
100
AcDbEntity
8
0
100
AcDbLine
10
-928.04771436363922
20
-479.14488220214866
30
1.5631940186722204e-12
11
-928.04289416973711
21
-474.06179858662261
31
1.4921397450962104e-12
0
ELLIPSE
5
110
100
AcDbEntity
8
0
100
AcDbEllipse
10
-926.69289476255904
20
-474.06308032186706
30
1.5631940186722204e-12
11
1.7059219338452894e-15
21
-1.350820111751877
31
0.0
40
0.99939288966486728
41
1.5698474695683049
42
4.7114401231492868
0
LINE
5
111
100
AcDbEntity
8
0
100
AcDbLine
10
-925.34289535538062
20
-474.06436205709957
30
1.5631940186722204e-12
11
-925.34771554928261
21
-479.14744567261346
31
1.5631940186722204e-12
0
ELLIPSE
5
112
100
AcDbEntity
8
0
100
AcDbEllipse
10
-926.69771495646091
20
-479.14616393738106
30
1.4921397450962104e-12
11
1.7059219338452894e-15
21
-1.350820111751877
31
0.0
40
0.99939288966486728
41
4.7114401231582681
42
7.8530327767479484
0
ELLIPSE
5
113
100
AcDbEntity
8
0
100
AcDbEllipse
10
-941.68163526068713
20
-476.94620977260632
30
1.5631940186722204e-12
11
-1.4059796142546604e-15
21
-1.5009112336231831
31
0.0
40
0.9993928896648665
41
6.2822364499530519
42
8.8627222432405226
0
LINE
5
114
100
AcDbEntity
8
0
100
AcDbLine
10
-941.68305854632752
20
-478.44712033057186
30
1.5631940186722204e-12
11
-956.92305141507745
21
-478.43265096436454
31
1.5631940186722204e-12
0
ELLIPSE
5
115
100
AcDbEntity
8
0
100
AcDbEllipse
10
-956.92162812943707
20
-476.93174040639906
30
1.5631940186722204e-12
11
-1.4059796142546604e-15
21
-1.5009112336231831
31
0.0
40
0.9993928896648665
41
3.7017506566657121
42
6.2822364499530519
0
ELLIPSE
5
116
100
AcDbEntity
8
0
100
AcDbEllipse
10
-956.91921803248624
20
-474.39019859864209
30
1.4921397450962104e-12
11
-1.4059796142546604e-15
21
-1.5009112336231831
31
0.0
40
0.9993928896648665
41
3.1406437963631446
42
5.7211295896505732
0
LINE
5
117
100
AcDbEntity
8
0
100
AcDbLine
10
-956.91779474684586
20
-472.8892880406766
30
1.4921397450962104e-12
11
-941.67780187809569
21
-472.90375740688376
31
1.4921397450962104e-12
0
ELLIPSE
5
118
100
AcDbEntity
8
0
100
AcDbEllipse
10
-941.67922516373619
20
-474.4046679648493
30
1.4921397450962104e-12
11
-1.4059796142546604e-15
21
-1.5009112336231831
31
0.0
40
0.9993928896648665
41
0.56015800307582275
42
3.1406437963631446
0
LINE
5
119
100
AcDbEntity
8
0
100
AcDbLine
10
-986.32214665874869
20
-452.15619127568732
30
1.4921397450962104e-12
11
-983.82214782855363
21
-452.15856485938275
31
1.4921397450962104e-12
0
ELLIPSE
5
120
100
AcDbEntity
8
0
100
AcDbEllipse
10
-983.82357111419367
20
-453.65947541734835
30
1.4210854715202004e-12
11
-1.4059796142546604e-15
21
-1.5009112336231831
31
0.0
40
0.9993928896648665
41
6.2822364499530519
42
9.423829103543186
0
LINE
5
121
100
AcDbEntity
8
0
100
AcDbLine
10
-983.82499439983405
20
-455.16038597531372
30
1.4921397450962104e-12
11
-986.32499323002764
21
-455.1580123916184
31
1.4921397450962104e-12
0
ELLIPSE
5
122
100
AcDbEntity
8
0
100
AcDbEllipse
10
-986.3235699443693
20
-453.65710183365286
30
1.4921397450962104e-12
11
-1.4059796142546604e-15
21
-1.5009112336231831
31
0.0
40
0.9993928896648665
41
3.1406437963765597
42
6.2822364499410011
0
LINE
5
123
100
AcDbEntity
8
0
100
AcDbLine
10
-944.96710593528701
20
-438.42308793927668
30
1.4210854715202004e-12
11
-947.4671047654806
21
-438.42071435558125
31
1.3500311979441904e-12
0
ELLIPSE
5
124
100
AcDbEntity
8
0
100
AcDbEllipse
10
-947.46568147982225
20
-436.91980379761566
30
1.4210854715202004e-12
11
-1.4059796142546604e-15
21
-1.5009112336231831
31
0.0
40
0.9993928896648665
41
3.140643796376446
42
6.2822364499411147
0
LINE
5
125
100
AcDbEntity
8
0
100
AcDbLine
10
-947.46425819420165
20
-435.41889323965023
30
1.3500311979441904e-12
11
-944.96425936400658
21
-435.4212668233456
31
1.4210854715202004e-12
0
ELLIPSE
5
126
100
AcDbEntity
8
0
100
AcDbEllipse
10
-944.96568264964685
20
-436.92217738131114
30
1.4921397450962104e-12
11
-1.4059796142546604e-15
21
-1.5009112336231831
31
0.0
40
0.9993928896648665
41
6.2822364499531655
42
9.4238291035429587
0
LINE
5
127
100
AcDbEntity
8
0
100
AcDbLine
10
-983.83510921617108
20
-465.8268567113613
30
1.5631940186722204e-12
11
-988.83510687652733
21
-465.82210954397056
31
1.4210854715202004e-12
0
ELLIPSE
5
128
100
AcDbEntity
8
0
100
AcDbEllipse
10
-988.83370731230889
20
-464.34621416172263
30
1.4921397450962104e-12
11
-3.0006382216929694e-15
21
-1.4758960466446553
31
0.0
40
0.99939288966486717
41
3.1406437963632583
42
6.2822364499495276
0
LINE
5
129
100
AcDbEntity
8
0
100
AcDbLine
10
-988.83230774809545
20
-462.8703187794747
30
1.4921397450962104e-12
11
-983.83231008775613
21
-462.87506594686545
31
1.5631940186722204e-12
0
ELLIPSE
5
130
100
AcDbEntity
8
0
100
AcDbEllipse
10
-983.83370965195786
20
-464.35096132911355
30
1.4921397450962104e-12
11
-3.0006382216929694e-15
21
-1.4758960466446553
31
0.0
40
0.99939288966486717
41
6.2822364499531647
42
9.4238291035506894
0
LINE
5
131
100
AcDbEntity
8
0
100
AcDbLine
10
-932.96289178975576
20
-474.05712737399597
30
1.5631940186722204e-12
11
-932.96771198365741
21
-479.14021098950991
31
1.4921397450962104e-12
0
ELLIPSE
5
132
100
AcDbEntity
8
0
100
AcDbEllipse
10
-934.31771139083583
20
-479.13892925427746
30
1.5631940186722204e-12
11
1.7059219338452894e-15
21
-1.350820111751877
31
0.0
40
0.99939288966486728
41
4.7083098510851888
42
7.8530327767479484
0
LINE
5
133
100
AcDbEntity
8
0
100
AcDbLine
10
-935.66770017422755
20
-479.13341909966209
30
1.5631940186722204e-12
11
-935.66289060411236
21
-474.05456390353106
31
1.5631940186722204e-12
0
ELLIPSE
5
134
100
AcDbEntity
8
0
100
AcDbEllipse
10
-934.31289119693406
20
-474.05584563876346
30
1.4921397450962104e-12
11
1.7059219338452894e-15
21
-1.350820111751877
31
0.0
40
0.99939288966486728
41
1.5698474695683049
42
4.7114401231582681
0
LINE
5
135
100
AcDbEntity
8
0
100
AcDbLine
10
-963.52247749000821
20
-474.0281130666765
30
1.4921397450962104e-12
11
-963.52737074590436
21
-479.18824342203203
31
1.5631940186722204e-12
0
ELLIPSE
5
136
100
AcDbEntity
8
0
100
AcDbEllipse
10
-964.87737015308267
20
-479.18696168679958
30
1.5631940186722204e-12
11
1.7059219338452894e-15
21
-1.350820111751877
31
0.0
40
0.99939288966486728
41
4.7114401231582121
42
7.8530327767479484
0
LINE
5
137
100
AcDbEntity
8
0
100
AcDbLine
10
-966.22736956026097
20
-479.18567995156712
30
1.5631940186722204e-12
11
-966.22247630436493
21
-474.02554959621165
31
1.5631940186722204e-12
0
ELLIPSE
5
138
100
AcDbEntity
8
0
100
AcDbEllipse
10
-964.87247689718652
20
-474.0268313314441
30
1.5631940186722204e-12
11
1.7059219338452894e-15
21
-1.350820111751877
31
0.0
40
0.99939288966486728
41
1.5698474695683617
42
4.7114401231581553
0
LINE
5
139
100
AcDbEntity
8
0
100
AcDbLine
10
-986.3130044209056
20
-442.51534272539658
30
1.4210854715202004e-12
11
-983.81300559071019
21
-442.51771630909207
31
1.4210854715202004e-12
0
ELLIPSE
5
140
100
AcDbEntity
8
0
100
AcDbEllipse
10
-983.81442887635058
20
-444.01862686705755
30
1.4921397450962104e-12
11
-1.4059796142546604e-15
21
-1.5009112336231831
31
0.0
40
0.9993928896648665
41
6.2822364499530519
42
9.4238291035429587
0
LINE
5
141
100
AcDbEntity
8
0
100
AcDbLine
10
-983.81585216199085
20
-445.51953742502303
30
1.4921397450962104e-12
11
-986.31585099218444
21
-445.51716384132766
31
1.4210854715202004e-12
0
ELLIPSE
5
142
100
AcDbEntity
8
0
100
AcDbEllipse
10
-986.31442770652609
20
-444.016253283362
30
1.4210854715202004e-12
11
-1.4059796142546604e-15
21
-1.5009112336231831
31
0.0
40
0.9993928896648665
41
3.1406437963765597
42
6.2822364499410011
0
CIRCLE
5
143
100
AcDbEntity
8
0
100
AcDbCircle
10
1008.3813461719553
20
-474.26244653835045
30
-1.4361633356900797e-12
40
2.1526499999999955
210
-5.5511151231257827e-17
220
0
230
-1
0
CIRCLE
5
144
100
AcDbEntity
8
0
100
AcDbCircle
10
992.21592502463341
20
-436.66235454390625
30
-1.4370606968281056e-12
40
2.1526499999999955
210
-5.5511151231257827e-17
220
0
230
-1
0
CIRCLE
5
145
100
AcDbEntity
8
0
100
AcDbCircle
10
971.12933837636501
20
-464.10981066399279
30
-1.4525506848511648e-12
40
1.5875000000000061
210
-4.0766001685454967e-17
220
0
230
-1
0
CIRCLE
5
146
100
AcDbEntity
8
0
100
AcDbCircle
10
1015.5783332460509
20
-459.02102347305549
30
-1.5783128066983141e-12
40
4.7625000000000011
210
-5.5077470362263625e-17
220
0
230
-1
0
CIRCLE
5
147
100
AcDbEntity
8
0
100
AcDbCircle
10
971.12745538560705
20
-454.58481085011607
30
-1.2805398971494904e-12
40
6.3499999999999961
210
-7.1557343384043293e-17
220
0
230
-1
0
CIRCLE
5
148
100
AcDbEntity
8
0
100
AcDbCircle
10
926.67745625418388
20
-454.59359814031973
30
-1.3547748945767679e-12
40
6.3499999999999961
210
-7.1557343384043293e-17
220
0
230
-1
0
CIRCLE
5
149
100
AcDbEntity
8
0
100
AcDbCircle
10
1042.4351295060253
20
-440.28321380516132
30
-1.4383417285289339e-12
40
2.1526499999999995
210
-5.1608023410310011e-17
220
0
230
-1
0
CIRCLE
5
150
100
AcDbEntity
8
0
100
AcDbCircle
10
906.16413216883325
20
-440.31015312627028
30
-1.4512691960740133e-12
40
2.1526500000000066
210
-4.5102810375396984e-17
220
0
230
-1
0
CIRCLE
5
151
100
AcDbEntity
8
0
100
AcDbCircle
10
906.16978114110691
20
-468.88515256789964
30
-1.451268941289488e-12
40
2.1526500000000066
210
-4.5102810375396984e-17
220
0
230
-1
0
CIRCLE
5
152
100
AcDbEntity
8
0
100
AcDbCircle
10
1042.4407784782989
20
-468.85821324679057
30
-1.4383414369966405e-12
40
2.1526499999999995
210
-5.1608023410310011e-17
220
0
230
-1
0
CIRCLE
5
153
100
AcDbEntity
8
0
100
AcDbCircle
10
1028.2736631808066
20
-435.39651328029811
30
-1.2969640266625501e-12
40
2.1526499999999995
210
-5.1608023410310011e-17
220
0
230
-1
0
CIRCLE
5
154
100
AcDbEntity
8
0
100
AcDbCircle
10
1028.2812453569247
20
-473.75051253084052
30
-1.5101264560894574e-12
40
2.1526499999999995
210
-5.1608023410310011e-17
220
0
230
-1
0
CIRCLE
5
155
100
AcDbEntity
8
0
100
AcDbCircle
10
920.33124746632552
20
-473.77185309276291
30
-1.450630219359184e-12
40
2.1526500000000066
210
-4.5102810375396984e-17
220
0
230
-1
0
CIRCLE
5
156
100
AcDbEntity
8
0
100
AcDbCircle
10
920.32366529020715
20
-435.41785384222061
30
-1.3085220141846156e-12
40
2.1526500000000066
210
-4.5102810375396984e-17
220
0
230
-1
0
CIRCLE
5
157
100
AcDbEntity
8
0
100
AcDbCircle
10
983.8313466516754
20
-474.26729981111714
30
-1.4375261344261771e-12
40
2.1526499999999955
210
-5.5511151231257827e-17
220
0
230
-1
0
CIRCLE
5
158
100
AcDbEntity
8
0
100
AcDbCircle
10
1031.452453218378
20
-454.56788524208122
30
-1.3987423616624557e-12
40
2.1526499999999942
210
-2.4719809532669501e-17
220
6.9388939039072284e-18
230
-1
0
ELLIPSE
5
159
100
AcDbEntity
8
0
100
AcDbEllipse
10
-913.74421754605896
20
-456.56343820537154
30
1.4921397450962104e-12
11
1.3606758131671582e-14
21
-2.2513668280694961
31
0.0
40
0.99939288966486706
41
0
42
6.2831853071795862
0
ELLIPSE
5
160
100
AcDbEntity
8
0
100
AcDbEllipse
10
-937.11901996775964
20
-468.94045478459884
30
1.4921397450962104e-12
11
1.3606758131671582e-14
21
-2.2513668280694961
31
0.0
40
0.99939288966486706
41
0
42
6.2831853071795862
0
ELLIPSE
5
161
100
AcDbEntity
8
0
100
AcDbEllipse
10
-951.08268701058921
20
-455.39199944143684
30
1.4921397450962104e-12
11
1.3606758131671582e-14
21
-2.2513668280694961
31
0.0
40
0.99939288966486706
41
0
42
6.2831853071795862
0
ELLIPSE
5
162
100
AcDbEntity
8
0
100
AcDbEllipse
10
-995.71009775566222
20
-452.77472199172331
30
1.4921397450962104e-12
11
1.3606758131671582e-14
21
-2.2513668280694961
31
0.0
40
0.99939288966486706
41
0
42
6.2831853071795862
0
ELLIPSE
5
163
100
AcDbEntity
8
0
100
AcDbEllipse
10
-996.45136485955936
20
-474.11684878754966
30
1.4921397450962104e-12
11
1.3606758131671582e-14
21
-2.2513668280694961
31
0.0
40
0.99939288966486706
41
0
42
6.2831853071795862
0
ELLIPSE
5
164
100
AcDbEntity
8
0
100
AcDbEllipse
10
-1032.3405025379827
20
-461.31924746174428
30
1.4921397450962104e-12
11
1.3606758131671582e-14
21
-2.2513668280694961
31
0.0
40
0.99939288966486706
41
0
42
6.2831853071795862
0
ELLIPSE
5
165
100
AcDbEntity
8
0
100
AcDbEllipse
10
-1009.2514708819095
20
-432.10245318345466
30
1.3500311979441904e-12
11
1.3606758131671582e-14
21
-2.2513668280694961
31
0.0
40
0.99939288966486706
41
0
42
6.2831853071795862
0
ELLIPSE
5
166
100
AcDbEntity
8
0
100
AcDbEllipse
10
-936.23096041303927
20
-436.40495595800536
30
1.4210854715202004e-12
11
1.3481782167201581e-14
21
-2.2513668280694961
31
0.0
40
0.99939288966486706
41
0
42
6.2831853071795862
0
ELLIPSE
5
167
100
AcDbEntity
8
0
100
AcDbEllipse
10
-1032.0704797095591
20
-439.42025600889838
30
1.3500311979441904e-12
11
1.3606758131671582e-14
21
-2.2513668280694961
31
0.0
40
0.99939288966486706
41
0
42
6.2831853071795862
0
ENDSEC
0
SECTION
2
OBJECTS
0
DICTIONARY
5
C
100
AcDbDictionary
3
ACAD_GROUP
350
D
3
ACAD_MLINESTYLE
350
17
0
DICTIONARY
5
D
100
AcDbDictionary
0
DICTIONARY
5
1A
330
C
100
AcDbDictionary
0
DICTIONARY
5
17
100
AcDbDictionary
0
ENDSEC
0
EOF
