0
SECTION
2
HEADER
9
$INSUNITS
70
4
9
$ACADVER
1
AC1014
9
$HANDSEED
5
FFFF
0
ENDSEC
0
SECTION
2
TABLES
0
TABLE
2
VPORT
5
8
100
AcDbSymbolTable
0
ENDTAB
0
TABLE
2
LTYPE
5
5
100
AcDbSymbolTable
0
LTYPE
5
14
100
AcDbSymbolTableRecord
100
AcDbLinetypeTableRecord
2
BYBLOCK
70
0
0
LTYPE
5
15
100
AcDbSymbolTableRecord
100
AcDbLinetypeTableRecord
2
BYLAYER
70
0
0
ENDTAB
0
TABLE
2
LAYER
5
2
100
AcDbSymbolTable
70
2
0
LAYER
5
50
100
AcDbSymbolTableRecord
100
AcDbLayerTableRecord
2
0
70
0
6
CONTINUOUS
0
ENDTAB
0
TABLE
2
STYLE
5
3
100
AcDbSymbolTable
70
1
0
STYLE
5
11
100
AcDbSymbolTableRecord
100
AcDbTextStyleTableRecord
2
STANDARD
70
0
0
ENDTAB
0
TABLE
2
VIEW
5
6
100
AcDbSymbolTable
70
0
0
ENDTAB
0
TABLE
2
UCS
5
7
100
AcDbSymbolTable
70
0
0
ENDTAB
0
TABLE
2
APPID
5
9
100
AcDbSymbolTable
70
2
0
APPID
5
12
100
AcDbSymbolTableRecord
100
AcDbRegAppTableRecord
2
ACAD
70
0
0
ENDTAB
0
TABLE
2
DIMSTYLE
5
A
100
AcDbSymbolTable
70
1
0
ENDTAB
0
TABLE
2
BLOCK_RECORD
5
1
100
AcDbSymbolTable
70
1
0
BLOCK_RECORD
5
1F
100
AcDbSymbolTableRecord
100
AcDbBlockTableRecord
2
*MODEL_SPACE
0
BLOCK_RECORD
5
1B
100
AcDbSymbolTableRecord
100
AcDbBlockTableRecord
2
*PAPER_SPACE
0
ENDTAB
0
ENDSEC
0
SECTION
2
BLOCKS
0
BLOCK
5
20
100
AcDbEntity
100
AcDbBlockBegin
2
*MODEL_SPACE
0
ENDBLK
5
21
100
AcDbEntity
100
AcDbBlockEnd
0
BLOCK
5
1C
100
AcDbEntity
100
AcDbBlockBegin
2
*PAPER_SPACE
0
ENDBLK
5
1D
100
AcDbEntity
100
AcDbBlockEnd
0
ENDSEC
0
SECTION
2
ENTITIES
0
LWPOLYLINE
5
100
100
AcDbEntity
8
0
100
AcDbPolyline
90
16
70
1
43
0.0
10
-129.6107056985102
20
-52.930146255644964
10
-17.342705689636226
20
-52.422145242157001
42
0.4169031405836805
10
-11.754474676148314
20
-46.884945251030999
10
-11.703906689636234
20
-7.6165462421570007
42
0.41690314058389244
10
-17.241106680766237
20
-2.028315228669082
10
-129.20430568963624
20
-1.9777472421569697
42
0.41690314058389177
10
-134.79253670312414
20
-7.5149472332869705
10
-134.89367467614835
20
-15.693746242113731
42
-0.41690314105624188
10
-140.48190568963622
20
-21.230946242156946
10
-143.07270568963622
20
-21.230946242156968
42
0.41421356237309503
10
-144.08870568963624
20
-22.246946242156966
10
-144.08870568963624
20
-35.708946242156962
42
0.41421356237309631
10
-143.07270568963622
20
-36.724946242156967
10
-140.63430568963588
20
-36.724715228669048
42
-0.41690314105393433
10
-135.09710568963624
20
-42.312946242156968
10
-135.14790568963622
20
-47.341915242156965
42
0.416903140583681
0
CIRCLE
5
101
100
AcDbEntity
8
0
100
AcDbCircle
10
-120.64999968963622
20
-28.575000242156975
30
3.576280827033429e-08
40
6.3499990000000004
210
-1.3001109836206258e-23
220
-2.4733808440404669e-39
230
1
0
CIRCLE
5
102
100
AcDbEntity
8
0
100
AcDbCircle
10
-116.59610568963623
20
-7.1949462421569743
30
3.5762810213224583e-08
40
0.69999999999999996
210
-1.3001109836206258e-23
220
-2.4733808440404669e-39
230
1
0
CIRCLE
5
103
100
AcDbEntity
8
0
100
AcDbCircle
10
-116.59610568963623
20
-12.694946242156973
30
3.5762809380557314e-08
40
0.69999999999999996
210
-1.3001109836206258e-23
220
-2.4733808440404669e-39
230
1
0
CIRCLE
5
104
100
AcDbEntity
8
0
100
AcDbCircle
10
-126.99999968963624
20
-9.3980002421569715
30
3.5762813821449413e-08
40
2.1526490000000003
210
-1.3001109836206258e-23
220
-2.4733808440404669e-39
230
1
0
CIRCLE
5
105
100
AcDbEntity
8
0
100
AcDbCircle
10
-112.39610568963624
20
-12.694946242156973
30
3.5762807715222777e-08
40
0.69999999999999996
210
-1.3001109836206258e-23
220
-2.4733808440404669e-39
230
1
0
CIRCLE
5
106
100
AcDbEntity
8
0
100
AcDbCircle
10
-112.39610568963624
20
-7.1949462421569743
30
3.5762808547890046e-08
40
0.69999999999999996
210
-1.3001109836206258e-23
220
-2.4733808440404669e-39
230
1
0
CIRCLE
5
107
100
AcDbEntity
8
0
100
AcDbCircle
10
-105.47310568963624
20
-12.623746242156974
30
3.5762804939665216e-08
40
0.69999999999999996
210
-1.3001109836206258e-23
220
-2.4733808440404669e-39
230
1
0
CIRCLE
5
108
100
AcDbEntity
8
0
100
AcDbCircle
10
-105.47310568963624
20
-7.1237462421569742
30
3.5762805772332484e-08
40
0.69999999999999996
210
-1.3001109836206258e-23
220
-2.4733808440404669e-39
230
1
0
CIRCLE
5
109
100
AcDbEntity
8
0
100
AcDbCircle
10
-108.47310568963623
20
-23.796346242156975
30
3.5762804384553704e-08
40
0.44999999999999996
210
-1.3001109836206258e-23
220
-2.4733808440404669e-39
230
1
0
CIRCLE
5
110
100
AcDbEntity
8
0
100
AcDbCircle
10
-108.47310568963623
20
-21.256346242156976
30
3.576280466210946e-08
40
0.44999999999999996
210
-1.3001109836206258e-23
220
-2.4733808440404669e-39
230
1
0
CIRCLE
5
111
100
AcDbEntity
8
0
100
AcDbCircle
10
-101.27310568963624
20
-7.1237462421569786
30
3.5762804106997947e-08
40
0.69999999999999996
210
-1.3001109836206258e-23
220
-2.4733808440404669e-39
230
1
0
CIRCLE
5
112
100
AcDbEntity
8
0
100
AcDbCircle
10
-101.27310568963624
20
-12.623746242156974
30
3.5762803274330679e-08
40
0.69999999999999996
210
-1.3001109836206258e-23
220
-2.4733808440404669e-39
230
1
0
CIRCLE
5
113
100
AcDbEntity
8
0
100
AcDbCircle
10
-76.199999689636229
20
-28.575000242156982
30
3.5762790784321652e-08
40
6.3499999999999996
210
-1.3001109836206258e-23
220
-2.4733808440404669e-39
230
1
0
CIRCLE
5
114
100
AcDbEntity
8
0
100
AcDbCircle
10
-76.199999689636229
20
-19.050000242156983
30
3.5762792172100433e-08
40
1.786
210
-1.3001109836206258e-23
220
-2.4733808440404669e-39
230
1
0
CIRCLE
5
115
100
AcDbEntity
8
0
100
AcDbCircle
10
-19.049999689636241
20
-9.3980002421569964
30
3.5762771355418721e-08
40
2.15265
210
-1.3001109836206258e-23
220
-2.4733808440404669e-39
230
1
0
CIRCLE
5
116
100
AcDbEntity
8
0
100
AcDbCircle
10
-38.949999689636236
20
-8.8900002421569919
30
3.5762779126979893e-08
40
2.15265
210
-1.3001109836206258e-23
220
-2.4733808440404669e-39
230
1
0
CIRCLE
5
117
100
AcDbEntity
8
0
100
AcDbCircle
10
-63.49999968963624
20
-8.8900002421569884
30
3.5762788841431359e-08
40
2.1526490000000003
210
-1.3001109836206258e-23
220
-2.4733808440404669e-39
230
1
0
CIRCLE
5
118
100
AcDbEntity
8
0
100
AcDbCircle
10
-15.874999689636233
20
-28.580000242156999
30
3.5762766914526622e-08
40
2.1526490000000003
210
-1.3001109836206258e-23
220
-2.4733808440404669e-39
230
1
0
CIRCLE
5
119
100
AcDbEntity
8
0
100
AcDbCircle
10
-31.749999689636237
20
-24.130000242156996
30
3.5762773853420526e-08
40
4.7625000000000002
210
-1.3001109836206258e-23
220
-2.4733808440404669e-39
230
1
0
CIRCLE
5
120
100
AcDbEntity
8
0
100
AcDbCircle
10
-19.049999689636223
20
-47.752000242156996
30
3.5762765249192086e-08
40
2.1499999999999999
210
-1.3001109836206258e-23
220
-2.4733808440404669e-39
230
1
0
CIRCLE
5
121
100
AcDbEntity
8
0
100
AcDbCircle
10
-55.10798668963622
20
-46.493286242156984
30
3.5762779682091406e-08
40
2.15265
210
-1.3001109836206258e-23
220
-2.4733808440404669e-39
230
1
0
CIRCLE
5
122
100
AcDbEntity
8
0
100
AcDbCircle
10
-126.99999968963623
20
-47.752000242156967
30
3.5762807715222777e-08
40
2.1499999999999999
210
-1.3001109836206258e-23
220
-2.4733808440404669e-39
230
1
0
ENDSEC
0
SECTION
2
OBJECTS
0
DICTIONARY
5
C
100
AcDbDictionary
3
ACAD_GROUP
350
D
3
ACAD_MLINESTYLE
350
17
0
DICTIONARY
5
D
100
AcDbDictionary
0
DICTIONARY
5
1A
330
C
100
AcDbDictionary
0
DICTIONARY
5
17
100
AcDbDictionary
0
ENDSEC
0
EOF
