0
SECTION
2
HEADER
9
$INSUNITS
70
4
9
$ACADVER
1
AC1014
9
$HANDSEED
5
FFFF
0
ENDSEC
0
SECTION
2
TABLES
0
TABLE
2
VPORT
5
8
100
AcDbSymbolTable
0
ENDTAB
0
TABLE
2
LTYPE
5
5
100
AcDbSymbolTable
0
LTYPE
5
14
100
AcDbSymbolTableRecord
100
AcDbLinetypeTableRecord
2
BYBLOCK
70
0
0
LTYPE
5
15
100
AcDbSymbolTableRecord
100
AcDbLinetypeTableRecord
2
BYLAYER
70
0
0
ENDTAB
0
TABLE
2
LAYER
5
2
100
AcDbSymbolTable
70
2
0
LAYER
5
50
100
AcDbSymbolTableRecord
100
AcDbLayerTableRecord
2
0
70
0
6
CONTINUOUS
0
ENDTAB
0
TABLE
2
STYLE
5
3
100
AcDbSymbolTable
70
1
0
STYLE
5
11
100
AcDbSymbolTableRecord
100
AcDbTextStyleTableRecord
2
STANDARD
70
0
0
ENDTAB
0
TABLE
2
VIEW
5
6
100
AcDbSymbolTable
70
0
0
ENDTAB
0
TABLE
2
UCS
5
7
100
AcDbSymbolTable
70
0
0
ENDTAB
0
TABLE
2
APPID
5
9
100
AcDbSymbolTable
70
2
0
APPID
5
12
100
AcDbSymbolTableRecord
100
AcDbRegAppTableRecord
2
ACAD
70
0
0
ENDTAB
0
TABLE
2
DIMSTYLE
5
A
100
AcDbSymbolTable
70
1
0
ENDTAB
0
TABLE
2
BLOCK_RECORD
5
1
100
AcDbSymbolTable
70
1
0
BLOCK_RECORD
5
1F
100
AcDbSymbolTableRecord
100
AcDbBlockTableRecord
2
*MODEL_SPACE
0
BLOCK_RECORD
5
1B
100
AcDbSymbolTableRecord
100
AcDbBlockTableRecord
2
*PAPER_SPACE
0
ENDTAB
0
ENDSEC
0
SECTION
2
BLOCKS
0
BLOCK
5
20
100
AcDbEntity
100
AcDbBlockBegin
2
*MODEL_SPACE
0
ENDBLK
5
21
100
AcDbEntity
100
AcDbBlockEnd
0
BLOCK
5
1C
100
AcDbEntity
100
AcDbBlockBegin
2
*PAPER_SPACE
0
ENDBLK
5
1D
100
AcDbEntity
100
AcDbBlockEnd
0
ENDSEC
0
SECTION
2
ENTITIES
0
LINE
5
100
100
AcDbEntity
8
0
100
AcDbLine
10
178.12788529249417
20
-408.62916939443829
30
-5.6843418860808015e-13
11
175.63437139022457
21
-408.63550356393796
31
-5.6843418860808015e-13
0
ELLIPSE
5
101
100
AcDbEntity
8
0
100
AcDbEllipse
10
175.62818989891369
20
-407.13552003159242
30
-4.9737991503207013e-13
11
1.2487061198958882
21
-0.83110354131510489
31
0.0
40
0.9999999943225677
41
2.1498121961148531
42
5.303754208326394
0
LINE
5
102
100
AcDbEntity
8
0
100
AcDbLine
10
175.64053227357368
20
-405.63557079307088
30
-5.6843418860808015e-13
11
178.10821865078438
21
-405.62930223729012
31
-6.3948846218409017e-13
0
ELLIPSE
5
103
100
AcDbEntity
8
0
100
AcDbEllipse
10
178.12818182647564
20
-407.12916940623495
30
-5.6843418860808015e-13
11
1.2487061198958882
21
-0.83110354131510489
31
0.0
40
0.9999999943225677
41
1.7706897231701022
42
2.1713497151490877
0
ARC
5
104
100
AcDbEntity
8
0
100
AcDbCircle
10
180.04255053303609
20
-406.50582824891933
30
-4.2632564145606011e-13
40
1.5500000000000416
210
-1.8887562462213514e-14
220
-4.1769606949807112e-14
230
1
100
AcDbArc
50
-114.33173827630249
51
150.40346620052193
0
ELLIPSE
5
105
100
AcDbEntity
8
0
100
AcDbEllipse
10
178.12818182647564
20
-407.12916940623495
30
-5.6843418860808015e-13
11
1.2487061198958882
21
-0.83110354131510489
31
0.0
40
0.9999999943225677
41
5.2994355028948918
42
6.3165544265436999
0
LINE
5
106
100
AcDbEntity
8
0
100
AcDbLine
10
159.6056586513939
20
-410.52903223746284
30
-5.6843418860808015e-13
11
159.62571661243268
21
-417.08660247550029
31
-6.3948846218409017e-13
0
ELLIPSE
5
107
100
AcDbEntity
8
0
100
AcDbEllipse
10
158.27572094792569
20
-417.09003181044534
30
-5.6843418860808015e-13
11
1.1238355174044703
21
-0.74799317560229606
31
0.0
40
0.99999999432256792
41
3.7313771104240816
42
6.8729697640138747
0
LINE
5
108
100
AcDbEntity
8
0
100
AcDbLine
10
156.92572528341867
20
-417.09346114539045
30
-6.3948846218409017e-13
11
156.90566732237986
21
-410.53589090735295
31
-5.6843418860808015e-13
0
ELLIPSE
5
109
100
AcDbEntity
8
0
100
AcDbEllipse
10
158.25566298688688
20
-410.53246157240784
30
-5.6843418860808015e-13
11
1.1238355174044703
21
-0.74799317560229606
31
0.0
40
0.99999999432256792
41
0.5897844568342413
42
3.7313771104240971
0
LINE
5
110
100
AcDbEntity
8
0
100
AcDbLine
10
131.2880332117731
20
-369.78483349356372
30
-4.9737991503207013e-13
11
126.28470717255328
21
-369.79754322388266
31
-5.6843418860808015e-13
0
ELLIPSE
5
111
100
AcDbEntity
8
0
100
AcDbEllipse
10
126.28263598313526
20
-368.32254466057867
30
-5.6843418860808015e-13
11
1.2278943523878589
21
-0.81725181433652372
31
0.0
40
0.9999999943225677
41
2.2129084046191099
42
5.3010373877090951
0
LINE
5
112
100
AcDbEntity
8
0
100
AcDbLine
10
126.20174647827963
20
-366.84976431686698
30
-4.9737991503207013e-13
11
131.20173013486354
21
-366.83706307705677
31
-4.9737991503207013e-13
0
ELLIPSE
5
113
100
AcDbEntity
8
0
100
AcDbEllipse
10
131.28261983825908
20
-368.30984340986379
30
-5.6843418860808015e-13
11
1.2278943523878589
21
-0.81725181433652372
31
0.0
40
0.9999999943225677
41
5.303303282977688
42
8.4960938466048415
0
ELLIPSE
5
114
100
AcDbEntity
8
0
100
AcDbEllipse
10
140.03086103470014
20
-412.4837634335388
30
-5.6843418860808015e-13
11
1.2487061355461369
21
-0.83110351780111347
31
0.0
40
0.99999999432256748
41
2.1602347320650335
42
3.731377102633179
0
LINE
5
115
100
AcDbEntity
8
0
100
AcDbLine
10
140.02756971888886
20
-410.98376702693031
30
-5.6843418860808015e-13
11
150.18608421094555
21
-410.95796197646473
31
-4.9737991503207013e-13
0
ELLIPSE
5
116
100
AcDbEntity
8
0
100
AcDbEllipse
10
150.19082822831169
20
-412.45795449208623
30
-5.6843418860808015e-13
11
1.2487061355461369
21
-0.83110351780111347
31
0.0
40
0.99999999432256748
41
0.58978444904329907
42
2.1612032032666368
0
LINE
5
117
100
AcDbEntity
8
0
100
AcDbLine
10
151.69082340944163
20
-412.45414411992942
30
-5.6843418860808015e-13
11
151.69727565552617
21
-414.99413593739541
31
-6.3948846218409017e-13
0
ELLIPSE
5
118
100
AcDbEntity
8
0
100
AcDbEllipse
10
150.19728047439631
20
-414.99794630955222
30
-5.6843418860808015e-13
11
1.2487061355461369
21
-0.83110351780111347
31
0.0
40
0.99999999432256748
41
5.3021605184056106
42
6.8729697562228536
0
LINE
5
119
100
AcDbEntity
8
0
100
AcDbLine
10
150.20107148794585
20
-416.49794153648554
30
-5.6843418860808015e-13
11
140.04137767539106
21
-416.52374976209728
31
-5.6843418860808015e-13
0
ELLIPSE
5
120
100
AcDbEntity
8
0
100
AcDbEllipse
10
140.03731328078464
20
-415.02375525100501
30
-5.6843418860808015e-13
11
1.2487061355461369
21
-0.83110351780111347
31
0.0
40
0.99999999432256748
41
3.731377102633108
42
5.3023427730660586
0
LINE
5
121
100
AcDbEntity
8
0
100
AcDbLine
10
138.5373180996547
20
-415.02756562316193
30
-5.6843418860808015e-13
11
138.53086585357022
21
-412.48757380569577
31
-5.6843418860808015e-13
0
ELLIPSE
5
122
100
AcDbEntity
8
0
100
AcDbEllipse
10
164.25494296600192
20
-375.24490787164774
30
-5.6843418860808015e-13
11
1.2278943523878589
21
-0.81725181433652372
31
0.0
40
0.9999999943225677
41
5.303303282977617
42
8.4960938466048699
0
LINE
5
123
100
AcDbEntity
8
0
100
AcDbLine
10
164.26035633951588
20
-376.71989795534779
30
-4.9737991503207013e-13
11
159.25703030029612
21
-376.73260768566672
31
-4.9737991503207013e-13
0
ELLIPSE
5
124
100
AcDbEntity
8
0
100
AcDbEllipse
10
159.2549591108781
20
-375.25760912236279
30
-4.9737991503207013e-13
11
1.2278943523878589
21
-0.81725181433652372
31
0.0
40
0.9999999943225677
41
2.212908404619121
42
5.3010373877090951
0
LINE
5
125
100
AcDbEntity
8
0
100
AcDbLine
10
159.17406960602247
20
-373.78482877865116
30
-4.9737991503207013e-13
11
164.17405326260638
21
-373.77212753884066
31
-4.9737991503207013e-13
0
LINE
5
126
100
AcDbEntity
8
0
100
AcDbLine
10
159.32724397690916
20
-384.08847297285593
30
-4.9737991503207013e-13
11
164.32722763349304
21
-384.07577173304554
31
-5.6843418860808015e-13
0
ELLIPSE
5
127
100
AcDbEntity
8
0
100
AcDbEllipse
10
164.40811733688858
20
-385.54855206585262
30
-4.9737991503207013e-13
11
1.2278943526613835
21
-0.81725181392556112
31
0.0
40
0.99999999432256792
41
5.303303282642938
42
8.4960938462701812
0
LINE
5
128
100
AcDbEntity
8
0
100
AcDbLine
10
164.41353071040257
20
-387.02354214955255
30
-5.6843418860808015e-13
11
159.41020467118281
21
-387.03625187987149
31
-4.9737991503207013e-13
0
ELLIPSE
5
129
100
AcDbEntity
8
0
100
AcDbEllipse
10
159.40813348176479
20
-385.56125331656756
30
-4.9737991503207013e-13
11
1.2278943526613835
21
-0.81725181392556112
31
0.0
40
0.99999999432256792
41
2.2129084042843927
42
5.3010373873744081
0
LINE
5
130
100
AcDbEntity
8
0
100
AcDbLine
10
113.03084440731038
20
-372.59422139976459
30
-5.6843418860808015e-13
11
121.7434162743892
21
-372.57208915668889
31
-5.6843418860808015e-13
0
ELLIPSE
5
131
100
AcDbEntity
8
0
100
AcDbEllipse
10
121.74684561635857
20
-373.9220847971547
30
-4.9737991503207013e-13
11
1.1238355174044703
21
-0.74799317560229606
31
0.0
40
0.99999999432256792
41
5.3021734372189542
42
8.4437660908087011
0
LINE
5
132
100
AcDbEntity
8
0
100
AcDbLine
10
121.75027495838154
20
-375.27208045872112
30
-5.6843418860808015e-13
11
113.03813409444687
21
-375.29421147845596
31
-4.9737991503207013e-13
0
ELLIPSE
5
133
100
AcDbEntity
8
0
100
AcDbEllipse
10
113.03427374912815
20
-373.94421698055049
30
-5.6843418860808015e-13
11
1.1238355174044703
21
-0.74799317560229606
31
0.0
40
0.99999999432256792
41
2.160580783629098
42
5.3024927000797142
0
LINE
5
134
100
AcDbEntity
8
0
100
AcDbLine
10
121.72840835214741
20
-367.6521043841293
30
-4.9737991503207013e-13
11
113.02126402482536
21
-367.67422031758144
31
-4.9737991503207013e-13
0
ELLIPSE
5
135
100
AcDbEntity
8
0
100
AcDbEllipse
10
113.01491701087456
20
-366.32424152815219
30
-4.9737991503207013e-13
11
1.1238355292961195
21
-0.74799315773547814
31
0.0
40
0.99999999432256792
41
2.0299029513872928
42
5.3043346963088132
0
LINE
5
136
100
AcDbEntity
8
0
100
AcDbLine
10
113.18742972619604
20
-364.98530933892459
30
-4.9737991503207013e-13
11
121.54817581942177
21
-364.96407090127798
31
-4.9737991503207013e-13
0
ELLIPSE
5
137
100
AcDbEntity
8
0
100
AcDbEllipse
10
121.72748887810496
20
-366.3021093447565
30
-5.6843418860808015e-13
11
1.1238355292961195
21
-0.74799315773547814
31
0.0
40
0.99999999432256792
41
5.3003142595557211
42
8.5744439942728654
0
LINE
5
138
100
AcDbEntity
8
0
100
AcDbLine
10
164.68564224819966
20
-410.5161277667363
30
-5.6843418860808015e-13
11
164.70570020923844
21
-417.07369800477397
31
-5.6843418860808015e-13
0
ELLIPSE
5
139
100
AcDbEntity
8
0
100
AcDbEllipse
10
163.35570454473151
20
-417.07712733971903
30
-5.6843418860808015e-13
11
1.1238355174044703
21
-0.74799317560229606
31
0.0
40
0.99999999432256792
41
3.7313771104240265
42
6.8729697640139067
0
LINE
5
140
100
AcDbEntity
8
0
100
AcDbLine
10
162.00570888022452
20
-417.08055667466402
30
-6.3948846218409017e-13
11
161.98565091918564
21
-410.52298643662641
31
-4.9737991503207013e-13
0
ELLIPSE
5
141
100
AcDbEntity
8
0
100
AcDbEllipse
10
163.33564658369266
20
-410.51955710168153
30
-5.6843418860808015e-13
11
1.1238355174044703
21
-0.74799317560229606
31
0.0
40
0.99999999432256792
41
0.58978445683436742
42
3.7313771104239475
0
ELLIPSE
5
142
100
AcDbEntity
8
0
100
AcDbEllipse
10
175.61058898447655
20
-400.20674235251408
30
-5.6843418860808015e-13
11
1.2487061198958882
21
-0.83110354131510489
31
0.0
40
0.9999999943225677
41
2.1498121961149006
42
5.3075576042058934
0
LINE
5
143
100
AcDbEntity
8
0
100
AcDbLine
10
175.62293135913649
20
-398.70679311399249
30
-5.6843418860808015e-13
11
178.09061773634716
21
-398.7005245582119
31
-5.6843418860808015e-13
0
ELLIPSE
5
144
100
AcDbEntity
8
0
100
AcDbEllipse
10
178.11058091203847
20
-400.20039172715656
30
-6.3948846218409017e-13
11
1.2487061198958882
21
-0.83110354131510489
31
0.0
40
0.9999999943225677
41
5.3021734482587277
42
8.4545350223286899
0
LINE
5
145
100
AcDbEntity
8
0
100
AcDbLine
10
178.11439129205979
20
-401.70038690501906
30
-5.6843418860808015e-13
11
175.62247562234353
21
-401.70671345963336
31
-5.6843418860808015e-13
0
LINE
5
146
100
AcDbEntity
8
0
100
AcDbLine
10
175.62247562234353
20
-401.70671345963336
30
-5.6843418860808015e-13
11
175.62247547822301
21
-401.70669527310861
31
-4.9737991503207013e-13
0
ELLIPSE
5
147
100
AcDbEntity
8
0
100
AcDbEllipse
10
140.77092225967343
20
-403.84585426754654
30
-5.6843418860808015e-13
11
1.8730720413556301
21
-1.2466359474101325
31
0.0
40
0.99999999432263686
41
5.6269257875279006
42
10.713895513555091
0
ARC
5
148
100
AcDbEntity
8
0
100
AcDbCircle
10
140.03464317253415
20
-406.49791911281636
30
-4.9737991503207013e-13
40
1.5499999999999963
210
-5.80786201476464e-14
220
7.0941061479001419e-14
230
1
100
AcDbArc
50
-230.69321311023734
51
19.661261124076717
0
LWPOLYLINE
5
149
100
AcDbEntity
8
0
100
AcDbPolyline
90
4
70
1
43
0.0
10
82.737369743682692
20
-349.7947747149143
10
82.72230581759797
20
-425.99477322592548
10
228.77230296370314
20
-426.02364575092122
10
228.78736688978793
20
-349.82364723990997
0
ELLIPSE
5
150
100
AcDbEntity
8
0
100
AcDbEllipse
10
170.15929320125275
20
-414.03283468531004
30
-6.3948846218409017e-13
11
1.2903296506471644
21
-0.85880700167990087
31
0.0
40
0.99999999432256825
41
0
42
6.2831853071795862
0
ELLIPSE
5
151
100
AcDbEntity
8
0
100
AcDbEllipse
10
170.139936462999
20
-406.41285923291179
30
-4.9737991503207013e-13
11
1.2903296506471644
21
-0.85880700167990087
31
0.0
40
0.99999999432256825
41
0
42
6.2831853071795862
0
ELLIPSE
5
152
100
AcDbEntity
8
0
100
AcDbEllipse
10
151.14762747285906
20
-391.11945375729829
30
-5.6843418860808015e-13
11
1.8730720413556301
21
-1.2466359474101325
31
0.0
40
0.99999999432263686
41
0
42
6.2831853071795862
0
CIRCLE
5
153
100
AcDbEntity
8
0
100
AcDbCircle
10
-116.06736223575132
20
-387.77436444056355
30
4.9154088590855938e-13
40
1.587499999999985
210
-5.0307244095465124e-17
220
0
230
-1
0
CIRCLE
5
154
100
AcDbEntity
8
0
100
AcDbCircle
10
-144.96320084145853
20
-370.88907650926325
30
4.900872159024789e-13
40
1.587499999999985
210
-5.0307244095465124e-17
220
0
230
-1
0
CIRCLE
5
155
100
AcDbEntity
8
0
100
AcDbCircle
10
-201.78854436603098
20
-407.09531098019846
30
4.1363637279203126e-13
40
1.5874999999999924
210
-6.2883989296296969e-17
220
0
230
-1
0
CIRCLE
5
156
100
AcDbEntity
8
0
100
AcDbCircle
10
-177.98320019623017
20
-370.89560421056666
30
4.151333477999997e-13
40
1.5874999999999924
210
-6.2883989296296969e-17
220
0
230
-1
0
CIRCLE
5
157
100
AcDbEntity
8
0
100
AcDbCircle
10
-116.06545413844725
20
-397.42636425195849
30
5.5962546882203915e-13
40
6.3499999999999979
210
-7.5894415366123023e-17
220
0
230
-1
0
CIRCLE
5
158
100
AcDbEntity
8
0
100
AcDbCircle
10
-144.96129274415443
20
-380.54107632065808
30
4.8656676328675849e-13
40
6.3500000000000014
210
-7.4593372759140417e-17
220
0
230
-1
0
CIRCLE
5
159
100
AcDbEntity
8
0
100
AcDbCircle
10
-201.79045246333499
20
-397.44331116880375
30
4.8189012129834187e-13
40
6.3499999999999961
210
-7.6761777104111414e-17
220
0
230
-1
0
CIRCLE
5
160
100
AcDbEntity
8
0
100
AcDbCircle
10
-177.98129209892608
20
-380.54760402196132
30
5.5477202833528061e-13
40
6.3499999999999961
210
-7.6761777104111414e-17
220
0
230
-1
0
CIRCLE
5
161
100
AcDbEntity
8
0
100
AcDbCircle
10
-117.6603605377516
20
-359.96167881583807
30
4.8901403770276574e-13
40
2.1526499999999986
210
-4.987356322647091e-17
220
6.9388939039072268e-18
230
-1
0
CIRCLE
5
162
100
AcDbEntity
8
0
100
AcDbCircle
10
-182.73935238672874
20
-415.85454532957436
30
4.8937556024284145e-13
40
2.1526500000000062
210
-4.3802031060552085e-17
220
0
230
-1
0
CIRCLE
5
163
100
AcDbEntity
8
0
100
AcDbCircle
10
-193.86035904876303
20
-359.97674274192269
30
5.5994271113961645e-13
40
2.1526500000000062
210
-4.3802031060552085e-17
220
0
230
-1
0
CIRCLE
5
164
100
AcDbEntity
8
0
100
AcDbCircle
10
-87.614630208195365
20
-411.7082401070349
30
5.6120773501136078e-13
40
2.1526499999999986
210
-4.987356322647091e-17
220
6.9388939039072268e-18
230
-1
0
CIRCLE
5
165
100
AcDbEntity
8
0
100
AcDbCircle
10
-87.624045161998353
20
-364.08324103765261
30
4.1942918311776311e-13
40
2.1526499999999986
210
-4.987356322647091e-17
220
6.9388939039072268e-18
230
-1
0
CIRCLE
5
166
100
AcDbEntity
8
0
100
AcDbCircle
10
-223.88562754538742
20
-411.73517942818302
30
5.5862754339632587e-13
40
2.1526500000000062
210
-4.3802031060552085e-17
220
0
230
-1
0
CIRCLE
5
167
100
AcDbEntity
8
0
100
AcDbCircle
10
-223.89504249919037
20
-364.11018035880068
30
4.8757285742621695e-13
40
2.1526500000000062
210
-4.3802031060552085e-17
220
0
230
-1
0
CIRCLE
5
168
100
AcDbEntity
8
0
100
AcDbCircle
10
-116.06256688594766
20
-412.03136396656902
30
5.6034036818413387e-13
40
1.7271999999999981
210
-4.510307366753469e-17
220
6.9388939039072268e-18
230
-1
0
CIRCLE
5
169
100
AcDbEntity
8
0
100
AcDbCircle
10
-116.06834139094684
20
-382.82136453734773
30
4.8948851924717202e-13
40
1.7271999999999981
210
-4.510307366753469e-17
220
6.9388939039072268e-18
230
-1
0
CIRCLE
5
170
100
AcDbEntity
8
0
100
AcDbCircle
10
-140.04452648771758
20
-356.50374109936752
30
4.2073801844449045e-13
40
1.5500000000000003
210
-3.9898903239604275e-17
220
0
230
-1
0
CIRCLE
5
171
100
AcDbEntity
8
0
100
AcDbCircle
10
-180.05243384821938
20
-356.5116502354706
30
4.8233433845708261e-13
40
1.5499999999999936
210
-6.9822883200204185e-17
220
6.9388939039072268e-18
230
-1
0
ELLIPSE
5
172
100
AcDbEntity
8
0
100
AcDbEllipse
10
190.72117224371792
20
-371.20686277269078
30
-4.9737991503207013e-13
11
1.8730720413556301
21
-1.2466359474101325
31
0.0
40
0.99999999432263686
41
0
42
6.2831853071795862
0
ELLIPSE
5
173
100
AcDbEntity
8
0
100
AcDbEllipse
10
186.11821618321162
20
-359.02651611193551
30
-4.9737991503207013e-13
11
1.8730720413556301
21
-1.2466359474101325
31
0.0
40
0.99999999432263686
41
0
42
6.2831853071795862
0
ELLIPSE
5
174
100
AcDbEntity
8
0
100
AcDbEllipse
10
129.7897585828793
20
-382.53768038319129
30
-4.9737991503207013e-13
11
1.8730720413556301
21
-1.2466359474101325
31
0.0
40
0.99999999432263686
41
0
42
6.2831853071795862
0
ELLIPSE
5
175
100
AcDbEntity
8
0
100
AcDbEllipse
10
129.73039789463778
20
-359.16975573792911
30
-4.2632564145606011e-13
11
1.8730720413556301
21
-1.2466359474101325
31
0.0
40
0.99999999432263686
41
0
42
6.2831853071795862
0
ELLIPSE
5
176
100
AcDbEntity
8
0
100
AcDbEllipse
10
105.34647647255173
20
-359.23169719781822
30
-4.9737991503207013e-13
11
1.8730720413556301
21
-1.2466359474101325
31
0.0
40
0.99999999432263686
41
0
42
6.2831853071795862
0
ELLIPSE
5
177
100
AcDbEntity
8
0
100
AcDbEllipse
10
103.63155242457589
20
-382.09612734475968
30
-5.6843418860808015e-13
11
1.8730720413556301
21
-1.2466359474101325
31
0.0
40
0.99999999432263686
41
0
42
6.2831853071795862
0
ELLIPSE
5
178
100
AcDbEntity
8
0
100
AcDbEllipse
10
104.72626658490339
20
-413.08144652366281
30
-5.6843418860808015e-13
11
1.8730720413556301
21
-1.2466359474101325
31
0.0
40
0.99999999432263686
41
0
42
6.2831853071795862
0
ELLIPSE
5
179
100
AcDbEntity
8
0
100
AcDbEllipse
10
127.83519211570167
20
-413.0227438827269
30
-5.6843418860808015e-13
11
1.8730720413556301
21
-1.2466359474101325
31
0.0
40
0.99999999432263686
41
0
42
6.2831853071795862
0
ELLIPSE
5
180
100
AcDbEntity
8
0
100
AcDbEllipse
10
162.01136022291448
20
-366.19977671298273
30
-4.2632564145606011e-13
11
1.8730720413556301
21
-1.2466359474101325
31
0.0
40
0.99999999432263686
41
0
42
6.2831853071795862
0
ELLIPSE
5
181
100
AcDbEntity
8
0
100
AcDbEllipse
10
162.08749675783295
20
-396.17168006234073
30
-5.6843418860808015e-13
11
1.8730720413556301
21
-1.2466359474101325
31
0.0
40
0.99999999432263686
41
0
42
6.2831853071795862
0
ELLIPSE
5
182
100
AcDbEntity
8
0
100
AcDbEllipse
10
214.88835571182082
20
-383.84551288142961
30
-4.9737991503207013e-13
11
1.8730720413556301
21
-1.2466359474101325
31
0.0
40
0.99999999432263686
41
0
42
6.2831853071795862
0
ELLIPSE
5
183
100
AcDbEntity
8
0
100
AcDbEllipse
10
212.90927069949987
20
-404.67860750574835
30
-5.6843418860808015e-13
11
1.8730720413556301
21
-1.2466359474101325
31
0.0
40
0.99999999432263686
41
0
42
6.2831853071795862
0
ELLIPSE
5
184
100
AcDbEntity
8
0
100
AcDbEllipse
10
189.78776430143807
20
-403.7213388254786
30
-4.9737991503207013e-13
11
1.8730720413556301
21
-1.2466359474101325
31
0.0
40
0.99999999432263686
41
0
42
6.2831853071795862
0
ENDSEC
0
SECTION
2
OBJECTS
0
DICTIONARY
5
C
100
AcDbDictionary
3
ACAD_GROUP
350
D
3
ACAD_MLINESTYLE
350
17
0
DICTIONARY
5
D
100
AcDbDictionary
0
DICTIONARY
5
1A
330
C
100
AcDbDictionary
0
DICTIONARY
5
17
100
AcDbDictionary
0
ENDSEC
0
EOF
