M48
; DRILL file {KiCad 8.0.7} date 2025-03-12T18:52:18+1000
; FORMAT={-:-/ absolute / inch / decimal}
; #@! TF.CreationDate,2025-03-12T18:52:18+10:00
; #@! TF.GenerationSoftware,Kicad,Pcbnew,8.0.7
; #@! TF.FileFunction,NonPlated,1,2,NPTH
FMAT,2
INCH
; #@! TA.AperFunction,NonPlated,NPTH,ComponentDrill
T1C0.1693
%
G90
G05
T1
X4.0675Y-2.15
X4.07Y-2.935
X4.07Y-3.5375
X4.07Y-5.65
X5.2525Y-2.94
X5.2675Y-2.1382
X5.65Y-2.1382
X5.65Y-3.15
X5.74Y-3.5375
X5.74Y-5.6725
X6.16Y-4.605
X6.16Y-5.66
X6.43Y-2.1382
X6.43Y-3.15
X6.815Y-2.1382
X6.815Y-2.82
X6.815Y-3.215
X6.815Y-4.205
X7.5856Y-2.1382
X7.5856Y-2.82
X7.5856Y-3.215
X7.5856Y-4.205
X7.5856Y-4.605
X7.5856Y-5.675
M30
