  0
SECTION
  2
HEADER
  9
$ANGBASE
  50
0.0
  9
$ANGDIR
  70
1
  9
$MEASUREMENT
  70
1
  0
ENDSEC
  0
SECTION
  2
TABLES
  0
TABLE
  2
LTYPE
  70
4
  0
LTYPE
  5
40F
  2
CONTINUOUS
  70
0
  3
Solid line
  72
65
  73
0
  40
0.0
  0
LTYPE
  5
410
  2
DASHDOT
 70
0
  3
Dash Dot ____ _ ____ _
 72
65
 73
4
 40
2.0
 49
1.25
 49
-0.25
 49
0.25
 49
-0.25
  0
LTYPE
  5
411
  2
DASHED
 70
0
  3
Dashed __ __ __ __ __
 72
65
 73
2
 40
0.75
 49
0.5
 49
-0.25
  0
LTYPE
  5
43B
  2
DOTTED
 70
0
  3
Dotted .  .  .  .
 72
65
 73
2
 40
0.2
 49
0.0
 49
-0.2
  0
ENDTAB
  0
TABLE
  2
STYLE
  70
4
  0
STYLE
  2
KICAD
  70
0
  40
0
  41
1
  42
1
  50
0
  71
0
  3
isocp.shx
  0
STYLE
  2
KICADB
  70
0
  40
0
  41
1
  42
1
  50
0
  71
0
  3
isocp.shx
  0
STYLE
  2
KICADI
  70
0
  40
0
  41
1
  42
1
  50
15
  71
0
  3
isocp.shx
  0
STYLE
  2
KICADBI
  70
0
  40
0
  41
1
  42
1
  50
15
  71
0
  3
isocp.shx
  0
ENDTAB
  0
TABLE
  2
LAYER
  70
1
  0
LAYER
  2
BLACK
  70
0
  62
7
  6
CONTINUOUS
  0
ENDTAB
  0
ENDSEC
  0
SECTION
  2
ENTITIES
0
LINE
8
BLACK
6
CONTINUOUS
10
106.5
20
-70.25
11
106.5
21
-54.6099999999999994
0
LINE
8
BLACK
6
CONTINUOUS
10
106.5
20
-54.6099999999999994
11
87.8840000000000003
21
-54.6099999999999994
0
LINE
8
BLACK
6
CONTINUOUS
10
87.8840000000000003
20
-70.25
11
106.5
21
-70.25
0
LINE
8
BLACK
6
CONTINUOUS
10
87.8840000000000003
20
-70.25
11
87.8840000000000003
21
-54.6099999999999994
0
LINE
8
BLACK
6
CONTINUOUS
10
90.4667680000000018
20
-73.3898379999999975
11
90.4667680000000018
21
-71.3898379999999975
0
LINE
8
BLACK
6
CONTINUOUS
10
90.4667680000000018
20
-71.3898379999999975
11
90.9429579999999902
21
-71.3898379999999975
0
LINE
8
BLACK
6
CONTINUOUS
10
90.9429579999999902
20
-71.3898379999999975
11
91.2286730000000006
21
-71.4850759999999923
0
LINE
8
BLACK
6
CONTINUOUS
10
91.2286730000000006
20
-71.4850759999999923
11
91.4191489999999902
21
-71.6755519999999962
0
LINE
8
BLACK
6
CONTINUOUS
10
91.4191489999999902
20
-71.6755519999999962
11
91.5143869999999993
21
-71.866028
0
LINE
8
BLACK
6
CONTINUOUS
10
91.5143869999999993
20
-71.866028
11
91.6096249999999941
21
-72.2469799999999935
0
LINE
8
BLACK
6
CONTINUOUS
10
91.6096249999999941
20
-72.2469799999999935
11
91.6096249999999941
21
-72.5326949999999897
0
LINE
8
BLACK
6
CONTINUOUS
10
91.6096249999999941
20
-72.5326949999999897
11
91.5143869999999993
21
-72.9136469999999974
0
LINE
8
BLACK
6
CONTINUOUS
10
91.5143869999999993
20
-72.9136469999999974
11
91.4191489999999902
21
-73.1041230000000013
0
LINE
8
BLACK
6
CONTINUOUS
10
91.4191489999999902
20
-73.1041230000000013
11
91.2286730000000006
21
-73.2946000000000026
0
LINE
8
BLACK
6
CONTINUOUS
10
91.2286730000000006
20
-73.2946000000000026
11
90.9429579999999902
21
-73.3898379999999975
0
LINE
8
BLACK
6
CONTINUOUS
10
90.9429579999999902
20
-73.3898379999999975
11
90.4667680000000018
21
-73.3898379999999975
0
LINE
8
BLACK
6
CONTINUOUS
10
92.4667680000000018
20
-73.3898379999999975
11
92.4667680000000018
21
-72.0565039999999897
0
LINE
8
BLACK
6
CONTINUOUS
10
92.4667680000000018
20
-72.4374569999999949
11
92.5620059999999967
21
-72.2469799999999935
0
LINE
8
BLACK
6
CONTINUOUS
10
92.5620059999999967
20
-72.2469799999999935
11
92.6572439999999915
21
-72.1517419999999987
0
LINE
8
BLACK
6
CONTINUOUS
10
92.6572439999999915
20
-72.1517419999999987
11
92.8477199999999954
21
-72.0565039999999897
0
LINE
8
BLACK
6
CONTINUOUS
10
92.8477199999999954
20
-72.0565039999999897
11
93.0381969999999967
21
-72.0565039999999897
0
LINE
8
BLACK
6
CONTINUOUS
10
93.7048629999999889
20
-73.3898379999999975
11
93.7048629999999889
21
-72.0565039999999897
0
LINE
8
BLACK
6
CONTINUOUS
10
93.7048629999999889
20
-71.3898379999999975
11
93.6096249999999941
21
-71.4850759999999923
0
LINE
8
BLACK
6
CONTINUOUS
10
93.6096249999999941
20
-71.4850759999999923
11
93.7048629999999889
21
-71.5803140000000013
0
LINE
8
BLACK
6
CONTINUOUS
10
93.7048629999999889
20
-71.5803140000000013
11
93.800100999999998
21
-71.4850759999999923
0
LINE
8
BLACK
6
CONTINUOUS
10
93.800100999999998
20
-71.4850759999999923
11
93.7048629999999889
21
-71.3898379999999975
0
LINE
8
BLACK
6
CONTINUOUS
10
93.7048629999999889
20
-71.3898379999999975
11
93.7048629999999889
21
-71.5803140000000013
0
LINE
8
BLACK
6
CONTINUOUS
10
94.9429579999999902
20
-73.3898379999999975
11
94.7524820000000005
21
-73.2946000000000026
0
LINE
8
BLACK
6
CONTINUOUS
10
94.7524820000000005
20
-73.2946000000000026
11
94.6572439999999915
21
-73.1041230000000013
0
LINE
8
BLACK
6
CONTINUOUS
10
94.6572439999999915
20
-73.1041230000000013
11
94.6572439999999915
21
-71.3898379999999975
0
LINE
8
BLACK
6
CONTINUOUS
10
95.9905770000000018
20
-73.3898379999999975
11
95.800100999999998
21
-73.2946000000000026
0
LINE
8
BLACK
6
CONTINUOUS
10
95.800100999999998
20
-73.2946000000000026
11
95.7048629999999889
21
-73.1041230000000013
0
LINE
8
BLACK
6
CONTINUOUS
10
95.7048629999999889
20
-73.1041230000000013
11
95.7048629999999889
21
-71.3898379999999975
0
LINE
8
BLACK
6
CONTINUOUS
10
98.276291999999998
20
-73.3898379999999975
11
98.276291999999998
21
-71.3898379999999975
0
LINE
8
BLACK
6
CONTINUOUS
10
98.276291999999998
20
-71.3898379999999975
11
98.9429590000000019
21
-72.8184090000000026
0
LINE
8
BLACK
6
CONTINUOUS
10
98.9429590000000019
20
-72.8184090000000026
11
99.6096249999999941
21
-71.3898379999999975
0
LINE
8
BLACK
6
CONTINUOUS
10
99.6096249999999941
20
-71.3898379999999975
11
99.6096249999999941
21
-73.3898379999999975
0
LINE
8
BLACK
6
CONTINUOUS
10
101.4191489999999902
20
-73.3898379999999975
11
101.4191489999999902
21
-72.3422190000000001
0
LINE
8
BLACK
6
CONTINUOUS
10
101.4191489999999902
20
-72.3422190000000001
11
101.3239109999999954
21
-72.1517419999999987
0
LINE
8
BLACK
6
CONTINUOUS
10
101.3239109999999954
20
-72.1517419999999987
11
101.1334349999999915
21
-72.0565039999999897
0
LINE
8
BLACK
6
CONTINUOUS
10
101.1334349999999915
20
-72.0565039999999897
11
100.7524820000000005
21
-72.0565039999999897
0
LINE
8
BLACK
6
CONTINUOUS
10
100.7524820000000005
20
-72.0565039999999897
11
100.5620059999999967
21
-72.1517419999999987
0
LINE
8
BLACK
6
CONTINUOUS
10
101.4191489999999902
20
-73.2946000000000026
11
101.2286730000000006
21
-73.3898379999999975
0
LINE
8
BLACK
6
CONTINUOUS
10
101.2286730000000006
20
-73.3898379999999975
11
100.7524820000000005
21
-73.3898379999999975
0
LINE
8
BLACK
6
CONTINUOUS
10
100.7524820000000005
20
-73.3898379999999975
11
100.5620059999999967
21
-73.2946000000000026
0
LINE
8
BLACK
6
CONTINUOUS
10
100.5620059999999967
20
-73.2946000000000026
11
100.4667680000000018
21
-73.1041230000000013
0
LINE
8
BLACK
6
CONTINUOUS
10
100.4667680000000018
20
-73.1041230000000013
11
100.4667680000000018
21
-72.9136469999999974
0
LINE
8
BLACK
6
CONTINUOUS
10
100.4667680000000018
20
-72.9136469999999974
11
100.5620059999999967
21
-72.7231709999999936
0
LINE
8
BLACK
6
CONTINUOUS
10
100.5620059999999967
20
-72.7231709999999936
11
100.7524820000000005
21
-72.6279329999999987
0
LINE
8
BLACK
6
CONTINUOUS
10
100.7524820000000005
20
-72.6279329999999987
11
101.2286730000000006
21
-72.6279329999999987
0
LINE
8
BLACK
6
CONTINUOUS
10
101.2286730000000006
20
-72.6279329999999987
11
101.4191489999999902
21
-72.5326949999999897
0
LINE
8
BLACK
6
CONTINUOUS
10
102.3715299999999928
20
-72.0565039999999897
11
102.3715299999999928
21
-74.0565039999999897
0
LINE
8
BLACK
6
CONTINUOUS
10
102.3715299999999928
20
-72.1517419999999987
11
102.5620059999999967
21
-72.0565039999999897
0
LINE
8
BLACK
6
CONTINUOUS
10
102.5620059999999967
20
-72.0565039999999897
11
102.9429590000000019
21
-72.0565039999999897
0
LINE
8
BLACK
6
CONTINUOUS
10
102.9429590000000019
20
-72.0565039999999897
11
103.1334349999999915
21
-72.1517419999999987
0
LINE
8
BLACK
6
CONTINUOUS
10
103.1334349999999915
20
-72.1517419999999987
11
103.2286730000000006
21
-72.2469799999999935
0
LINE
8
BLACK
6
CONTINUOUS
10
103.2286730000000006
20
-72.2469799999999935
11
103.3239109999999954
21
-72.4374569999999949
0
LINE
8
BLACK
6
CONTINUOUS
10
103.3239109999999954
20
-72.4374569999999949
11
103.3239109999999954
21
-73.0088849999999923
0
LINE
8
BLACK
6
CONTINUOUS
10
103.3239109999999954
20
-73.0088849999999923
11
103.2286730000000006
21
-73.1993609999999961
0
LINE
8
BLACK
6
CONTINUOUS
10
103.2286730000000006
20
-73.1993609999999961
11
103.1334349999999915
21
-73.2946000000000026
0
LINE
8
BLACK
6
CONTINUOUS
10
103.1334349999999915
20
-73.2946000000000026
11
102.9429590000000019
21
-73.3898379999999975
0
LINE
8
BLACK
6
CONTINUOUS
10
102.9429590000000019
20
-73.3898379999999975
11
102.5620059999999967
21
-73.3898379999999975
0
LINE
8
BLACK
6
CONTINUOUS
10
102.5620059999999967
20
-73.3898379999999975
11
102.3715299999999928
21
-73.2946000000000026
0
LINE
8
BLACK
6
CONTINUOUS
10
104.1810539999999889
20
-73.1993609999999961
11
104.276291999999998
21
-73.2946000000000026
0
LINE
8
BLACK
6
CONTINUOUS
10
104.276291999999998
20
-73.2946000000000026
11
104.1810539999999889
21
-73.3898379999999975
0
LINE
8
BLACK
6
CONTINUOUS
10
104.1810539999999889
20
-73.3898379999999975
11
104.0858159999999941
21
-73.2946000000000026
0
LINE
8
BLACK
6
CONTINUOUS
10
104.0858159999999941
20
-73.2946000000000026
11
104.1810539999999889
21
-73.1993609999999961
0
LINE
8
BLACK
6
CONTINUOUS
10
104.1810539999999889
20
-73.1993609999999961
11
104.1810539999999889
21
-73.3898379999999975
0
LINE
8
BLACK
6
CONTINUOUS
10
104.1810539999999889
20
-72.1517419999999987
11
104.276291999999998
21
-72.2469799999999935
0
LINE
8
BLACK
6
CONTINUOUS
10
104.276291999999998
20
-72.2469799999999935
11
104.1810539999999889
21
-72.3422190000000001
0
LINE
8
BLACK
6
CONTINUOUS
10
104.1810539999999889
20
-72.3422190000000001
11
104.0858159999999941
21
-72.2469799999999935
0
LINE
8
BLACK
6
CONTINUOUS
10
104.0858159999999941
20
-72.2469799999999935
11
104.1810539999999889
21
-72.1517419999999987
0
LINE
8
BLACK
6
CONTINUOUS
10
104.1810539999999889
20
-72.1517419999999987
11
104.1810539999999889
21
-72.3422190000000001
  0
ENDSEC
  0
EOF
