%TF.GenerationSoftware,KiCad,Pcbnew,7.0.9*%
%TF.CreationDate,2023-11-25T09:20:38+10:00*%
%TF.ProjectId,util_photoswitch,7574696c-5f70-4686-9f74-6f7377697463,rev?*%
%TF.SameCoordinates,Original*%
%TF.FileFunction,Copper,L1,Top*%
%TF.FilePolarity,Positive*%
%FSLAX46Y46*%
G04 Gerber Fmt 4.6, Leading zero omitted, Abs format (unit mm)*
G04 Created by KiCad (PCBNEW 7.0.9) date 2023-11-25 09:20:38*
%MOMM*%
%LPD*%
G01*
G04 APERTURE LIST*
%TA.AperFunction,ComponentPad*%
%ADD10R,1.700000X1.700000*%
%TD*%
%TA.AperFunction,ComponentPad*%
%ADD11O,1.700000X1.700000*%
%TD*%
%TA.AperFunction,ComponentPad*%
%ADD12C,1.600000*%
%TD*%
%TA.AperFunction,ComponentPad*%
%ADD13O,1.600000X1.600000*%
%TD*%
%TA.AperFunction,ComponentPad*%
%ADD14C,1.200000*%
%TD*%
%TA.AperFunction,Conductor*%
%ADD15C,0.250000*%
%TD*%
G04 APERTURE END LIST*
D10*
%TO.P,J1,1,Pin_1*%
%TO.N,+5V*%
X144430000Y-100700000D03*
D11*
%TO.P,J1,2,Pin_2*%
%TO.N,Net-(J1-Pin_2)*%
X144430000Y-103240000D03*
%TO.P,J1,3,Pin_3*%
%TO.N,GND*%
X144430000Y-105780000D03*
%TD*%
D12*
%TO.P,R1,1*%
%TO.N,Net-(U1-A)*%
X140270000Y-106190000D03*
D13*
%TO.P,R1,2*%
%TO.N,+5V*%
X140270000Y-98570000D03*
%TD*%
D10*
%TO.P,J2,1,Pin_1*%
%TO.N,+5V*%
X135270000Y-100350000D03*
D11*
%TO.P,J2,2,Pin_2*%
%TO.N,Net-(J1-Pin_2)*%
X135270000Y-102890000D03*
%TO.P,J2,3,Pin_3*%
%TO.N,GND*%
X135270000Y-105430000D03*
%TD*%
D14*
%TO.P,U1,1,A*%
%TO.N,Net-(U1-A)*%
X134289980Y-95330000D03*
%TO.P,U1,2,K*%
%TO.N,GND*%
X134289980Y-92790000D03*
%TO.P,U1,3,VCC*%
%TO.N,+5V*%
X141274980Y-92155000D03*
%TO.P,U1,4,VOUT*%
%TO.N,Net-(J1-Pin_2)*%
X141274980Y-94060000D03*
%TO.P,U1,5,GND*%
%TO.N,GND*%
X141274980Y-95965000D03*
%TD*%
D15*
%TO.N,+5V*%
X140270000Y-98570000D02*
X140270000Y-97444700D01*
X139744600Y-97050700D02*
X139876000Y-97050700D01*
X136445300Y-100350000D02*
X139744600Y-97050700D01*
X139876000Y-93554000D02*
X139876000Y-97050700D01*
X141275000Y-92155000D02*
X139876000Y-93554000D01*
X139876000Y-97050700D02*
X140270000Y-97444700D01*
X135270000Y-100350000D02*
X136445300Y-100350000D01*
%TO.N,Net-(J1-Pin_2)*%
X144430000Y-103240000D02*
X144430000Y-102064700D01*
X142062200Y-102890000D02*
X135270000Y-102890000D01*
X143254700Y-101697500D02*
X142062200Y-102890000D01*
X143254700Y-96039700D02*
X143254700Y-101697500D01*
X141275000Y-94060000D02*
X143254700Y-96039700D01*
X143621900Y-102064700D02*
X144430000Y-102064700D01*
X143254700Y-101697500D02*
X143621900Y-102064700D01*
%TO.N,GND*%
X136818400Y-105056900D02*
X136445300Y-105430000D01*
X142531600Y-105056900D02*
X136818400Y-105056900D01*
X143254700Y-105780000D02*
X142531600Y-105056900D01*
X144430000Y-105780000D02*
X143254700Y-105780000D01*
X135270000Y-105430000D02*
X136445300Y-105430000D01*
%TD*%
M02*
