  0
SECTION
  2
HEADER
  9
$ANGBASE
  50
0.0
  9
$ANGDIR
  70
1
  9
$MEASUREMENT
  70
1
  0
ENDSEC
  0
SECTION
  2
TABLES
  0
TABLE
  2
LTYPE
  70
4
  0
LTYPE
  5
40F
  2
CONTINUOUS
  70
0
  3
Solid line
  72
65
  73
0
  40
0.0
  0
LTYPE
  5
410
  2
DASHDOT
 70
0
  3
Dash Dot ____ _ ____ _
 72
65
 73
4
 40
2.0
 49
1.25
 49
-0.25
 49
0.25
 49
-0.25
  0
LTYPE
  5
411
  2
DASHED
 70
0
  3
Dashed __ __ __ __ __
 72
65
 73
2
 40
0.75
 49
0.5
 49
-0.25
  0
LTYPE
  5
43B
  2
DOTTED
 70
0
  3
Dotted .  .  .  .
 72
65
 73
2
 40
0.2
 49
0.0
 49
-0.2
  0
ENDTAB
  0
TABLE
  2
STYLE
  70
4
  0
STYLE
  2
KICAD
  70
0
  40
0
  41
1
  42
1
  50
0
  71
0
  3
isocp.shx
  0
STYLE
  2
KICADB
  70
0
  40
0
  41
1
  42
1
  50
0
  71
0
  3
isocp.shx
  0
STYLE
  2
KICADI
  70
0
  40
0
  41
1
  42
1
  50
15
  71
0
  3
isocp.shx
  0
STYLE
  2
KICADBI
  70
0
  40
0
  41
1
  42
1
  50
15
  71
0
  3
isocp.shx
  0
ENDTAB
  0
TABLE
  2
LAYER
  70
1
  0
LAYER
  2
BLACK
  70
0
  62
7
  6
CONTINUOUS
  0
ENDTAB
  0
ENDSEC
  0
SECTION
  2
ENTITIES
0
LINE
8
BLACK
6
CONTINUOUS
10
106.5
20
-70.25
11
106.5
21
-54.6099999999999994
0
LINE
8
BLACK
6
CONTINUOUS
10
106.5
20
-54.6099999999999994
11
87.8840000000000003
21
-54.6099999999999994
0
LINE
8
BLACK
6
CONTINUOUS
10
87.8840000000000003
20
-70.25
11
106.5
21
-70.25
0
LINE
8
BLACK
6
CONTINUOUS
10
87.8840000000000003
20
-70.25
11
87.8840000000000003
21
-54.6099999999999994
0
LINE
8
BLACK
6
CONTINUOUS
10
89.0079799999999892
20
-65.3498000000000019
11
89.8079800000000006
21
-66.149799999999999
0
LINE
8
BLACK
6
CONTINUOUS
10
89.8079800000000006
20
-65.3498000000000019
11
89.0079799999999892
21
-66.149799999999999
0
LINE
8
BLACK
6
CONTINUOUS
10
89.0079799999999892
20
-67.8897999999999939
11
89.8079800000000006
21
-68.6897999999999911
0
LINE
8
BLACK
6
CONTINUOUS
10
89.8079800000000006
20
-67.8897999999999939
11
89.0079799999999892
21
-68.6897999999999911
0
LINE
8
BLACK
6
CONTINUOUS
10
89.0079999999999956
20
-60.5599999999999952
11
89.8079999999999927
21
-61.3599999999999994
0
LINE
8
BLACK
6
CONTINUOUS
10
89.8079999999999927
20
-60.5599999999999952
11
89.0079999999999956
21
-61.3599999999999994
0
LINE
8
BLACK
6
CONTINUOUS
10
95.9929799999999886
20
-64.7147999999999968
11
96.79298
21
-65.5147999999999939
0
LINE
8
BLACK
6
CONTINUOUS
10
96.79298
20
-64.7147999999999968
11
95.9929799999999886
21
-65.5147999999999939
0
LINE
8
BLACK
6
CONTINUOUS
10
95.9929799999999886
20
-66.6197999999999979
11
96.79298
21
-67.4197999999999951
0
LINE
8
BLACK
6
CONTINUOUS
10
96.79298
20
-66.6197999999999979
11
95.9929799999999886
21
-67.4197999999999951
0
LINE
8
BLACK
6
CONTINUOUS
10
95.9929799999999886
20
-68.524799999999999
11
96.79298
21
-69.3247999999999962
0
LINE
8
BLACK
6
CONTINUOUS
10
96.79298
20
-68.524799999999999
11
95.9929799999999886
21
-69.3247999999999962
0
LINE
8
BLACK
6
CONTINUOUS
10
96.6280000000000001
20
-60.5599999999999952
11
97.4279999999999973
21
-61.3599999999999994
0
LINE
8
BLACK
6
CONTINUOUS
10
97.4279999999999973
20
-60.5599999999999952
11
96.6280000000000001
21
-61.3599999999999994
0
CIRCLE
8
BLACK
10
90.6779999999999973
20
-56.6419999999999959
40
0.5
0
CIRCLE
8
BLACK
10
93.2179999999999893
20
-56.6419999999999959
40
0.5
0
CIRCLE
8
BLACK
10
95.7579999999999956
20
-56.6419999999999959
40
0.5
0
CIRCLE
8
BLACK
10
101.796999999999997
20
-56.6569999999999965
40
0.5
0
CIRCLE
8
BLACK
10
101.796999999999997
20
-59.1969999999999956
40
0.5
0
CIRCLE
8
BLACK
10
101.796999999999997
20
-61.7369999999999948
40
0.5
0
LINE
8
BLACK
6
CONTINUOUS
10
90.4667680000000018
20
-73.3898379999999975
11
90.4667680000000018
21
-71.3898379999999975
0
LINE
8
BLACK
6
CONTINUOUS
10
90.4667680000000018
20
-71.3898379999999975
11
90.9429579999999902
21
-71.3898379999999975
0
LINE
8
BLACK
6
CONTINUOUS
10
90.9429579999999902
20
-71.3898379999999975
11
91.2286730000000006
21
-71.4850759999999923
0
LINE
8
BLACK
6
CONTINUOUS
10
91.2286730000000006
20
-71.4850759999999923
11
91.4191489999999902
21
-71.6755519999999962
0
LINE
8
BLACK
6
CONTINUOUS
10
91.4191489999999902
20
-71.6755519999999962
11
91.5143869999999993
21
-71.866028
0
LINE
8
BLACK
6
CONTINUOUS
10
91.5143869999999993
20
-71.866028
11
91.6096249999999941
21
-72.2469799999999935
0
LINE
8
BLACK
6
CONTINUOUS
10
91.6096249999999941
20
-72.2469799999999935
11
91.6096249999999941
21
-72.5326949999999897
0
LINE
8
BLACK
6
CONTINUOUS
10
91.6096249999999941
20
-72.5326949999999897
11
91.5143869999999993
21
-72.9136469999999974
0
LINE
8
BLACK
6
CONTINUOUS
10
91.5143869999999993
20
-72.9136469999999974
11
91.4191489999999902
21
-73.1041230000000013
0
LINE
8
BLACK
6
CONTINUOUS
10
91.4191489999999902
20
-73.1041230000000013
11
91.2286730000000006
21
-73.2946000000000026
0
LINE
8
BLACK
6
CONTINUOUS
10
91.2286730000000006
20
-73.2946000000000026
11
90.9429579999999902
21
-73.3898379999999975
0
LINE
8
BLACK
6
CONTINUOUS
10
90.9429579999999902
20
-73.3898379999999975
11
90.4667680000000018
21
-73.3898379999999975
0
LINE
8
BLACK
6
CONTINUOUS
10
92.4667680000000018
20
-73.3898379999999975
11
92.4667680000000018
21
-72.0565039999999897
0
LINE
8
BLACK
6
CONTINUOUS
10
92.4667680000000018
20
-72.4374569999999949
11
92.5620059999999967
21
-72.2469799999999935
0
LINE
8
BLACK
6
CONTINUOUS
10
92.5620059999999967
20
-72.2469799999999935
11
92.6572439999999915
21
-72.1517419999999987
0
LINE
8
BLACK
6
CONTINUOUS
10
92.6572439999999915
20
-72.1517419999999987
11
92.8477199999999954
21
-72.0565039999999897
0
LINE
8
BLACK
6
CONTINUOUS
10
92.8477199999999954
20
-72.0565039999999897
11
93.0381969999999967
21
-72.0565039999999897
0
LINE
8
BLACK
6
CONTINUOUS
10
93.7048629999999889
20
-73.3898379999999975
11
93.7048629999999889
21
-72.0565039999999897
0
LINE
8
BLACK
6
CONTINUOUS
10
93.7048629999999889
20
-71.3898379999999975
11
93.6096249999999941
21
-71.4850759999999923
0
LINE
8
BLACK
6
CONTINUOUS
10
93.6096249999999941
20
-71.4850759999999923
11
93.7048629999999889
21
-71.5803140000000013
0
LINE
8
BLACK
6
CONTINUOUS
10
93.7048629999999889
20
-71.5803140000000013
11
93.800100999999998
21
-71.4850759999999923
0
LINE
8
BLACK
6
CONTINUOUS
10
93.800100999999998
20
-71.4850759999999923
11
93.7048629999999889
21
-71.3898379999999975
0
LINE
8
BLACK
6
CONTINUOUS
10
93.7048629999999889
20
-71.3898379999999975
11
93.7048629999999889
21
-71.5803140000000013
0
LINE
8
BLACK
6
CONTINUOUS
10
94.9429579999999902
20
-73.3898379999999975
11
94.7524820000000005
21
-73.2946000000000026
0
LINE
8
BLACK
6
CONTINUOUS
10
94.7524820000000005
20
-73.2946000000000026
11
94.6572439999999915
21
-73.1041230000000013
0
LINE
8
BLACK
6
CONTINUOUS
10
94.6572439999999915
20
-73.1041230000000013
11
94.6572439999999915
21
-71.3898379999999975
0
LINE
8
BLACK
6
CONTINUOUS
10
95.9905770000000018
20
-73.3898379999999975
11
95.800100999999998
21
-73.2946000000000026
0
LINE
8
BLACK
6
CONTINUOUS
10
95.800100999999998
20
-73.2946000000000026
11
95.7048629999999889
21
-73.1041230000000013
0
LINE
8
BLACK
6
CONTINUOUS
10
95.7048629999999889
20
-73.1041230000000013
11
95.7048629999999889
21
-71.3898379999999975
0
LINE
8
BLACK
6
CONTINUOUS
10
98.276291999999998
20
-73.3898379999999975
11
98.276291999999998
21
-71.3898379999999975
0
LINE
8
BLACK
6
CONTINUOUS
10
98.276291999999998
20
-71.3898379999999975
11
98.9429590000000019
21
-72.8184090000000026
0
LINE
8
BLACK
6
CONTINUOUS
10
98.9429590000000019
20
-72.8184090000000026
11
99.6096249999999941
21
-71.3898379999999975
0
LINE
8
BLACK
6
CONTINUOUS
10
99.6096249999999941
20
-71.3898379999999975
11
99.6096249999999941
21
-73.3898379999999975
0
LINE
8
BLACK
6
CONTINUOUS
10
101.4191489999999902
20
-73.3898379999999975
11
101.4191489999999902
21
-72.3422190000000001
0
LINE
8
BLACK
6
CONTINUOUS
10
101.4191489999999902
20
-72.3422190000000001
11
101.3239109999999954
21
-72.1517419999999987
0
LINE
8
BLACK
6
CONTINUOUS
10
101.3239109999999954
20
-72.1517419999999987
11
101.1334349999999915
21
-72.0565039999999897
0
LINE
8
BLACK
6
CONTINUOUS
10
101.1334349999999915
20
-72.0565039999999897
11
100.7524820000000005
21
-72.0565039999999897
0
LINE
8
BLACK
6
CONTINUOUS
10
100.7524820000000005
20
-72.0565039999999897
11
100.5620059999999967
21
-72.1517419999999987
0
LINE
8
BLACK
6
CONTINUOUS
10
101.4191489999999902
20
-73.2946000000000026
11
101.2286730000000006
21
-73.3898379999999975
0
LINE
8
BLACK
6
CONTINUOUS
10
101.2286730000000006
20
-73.3898379999999975
11
100.7524820000000005
21
-73.3898379999999975
0
LINE
8
BLACK
6
CONTINUOUS
10
100.7524820000000005
20
-73.3898379999999975
11
100.5620059999999967
21
-73.2946000000000026
0
LINE
8
BLACK
6
CONTINUOUS
10
100.5620059999999967
20
-73.2946000000000026
11
100.4667680000000018
21
-73.1041230000000013
0
LINE
8
BLACK
6
CONTINUOUS
10
100.4667680000000018
20
-73.1041230000000013
11
100.4667680000000018
21
-72.9136469999999974
0
LINE
8
BLACK
6
CONTINUOUS
10
100.4667680000000018
20
-72.9136469999999974
11
100.5620059999999967
21
-72.7231709999999936
0
LINE
8
BLACK
6
CONTINUOUS
10
100.5620059999999967
20
-72.7231709999999936
11
100.7524820000000005
21
-72.6279329999999987
0
LINE
8
BLACK
6
CONTINUOUS
10
100.7524820000000005
20
-72.6279329999999987
11
101.2286730000000006
21
-72.6279329999999987
0
LINE
8
BLACK
6
CONTINUOUS
10
101.2286730000000006
20
-72.6279329999999987
11
101.4191489999999902
21
-72.5326949999999897
0
LINE
8
BLACK
6
CONTINUOUS
10
102.3715299999999928
20
-72.0565039999999897
11
102.3715299999999928
21
-74.0565039999999897
0
LINE
8
BLACK
6
CONTINUOUS
10
102.3715299999999928
20
-72.1517419999999987
11
102.5620059999999967
21
-72.0565039999999897
0
LINE
8
BLACK
6
CONTINUOUS
10
102.5620059999999967
20
-72.0565039999999897
11
102.9429590000000019
21
-72.0565039999999897
0
LINE
8
BLACK
6
CONTINUOUS
10
102.9429590000000019
20
-72.0565039999999897
11
103.1334349999999915
21
-72.1517419999999987
0
LINE
8
BLACK
6
CONTINUOUS
10
103.1334349999999915
20
-72.1517419999999987
11
103.2286730000000006
21
-72.2469799999999935
0
LINE
8
BLACK
6
CONTINUOUS
10
103.2286730000000006
20
-72.2469799999999935
11
103.3239109999999954
21
-72.4374569999999949
0
LINE
8
BLACK
6
CONTINUOUS
10
103.3239109999999954
20
-72.4374569999999949
11
103.3239109999999954
21
-73.0088849999999923
0
LINE
8
BLACK
6
CONTINUOUS
10
103.3239109999999954
20
-73.0088849999999923
11
103.2286730000000006
21
-73.1993609999999961
0
LINE
8
BLACK
6
CONTINUOUS
10
103.2286730000000006
20
-73.1993609999999961
11
103.1334349999999915
21
-73.2946000000000026
0
LINE
8
BLACK
6
CONTINUOUS
10
103.1334349999999915
20
-73.2946000000000026
11
102.9429590000000019
21
-73.3898379999999975
0
LINE
8
BLACK
6
CONTINUOUS
10
102.9429590000000019
20
-73.3898379999999975
11
102.5620059999999967
21
-73.3898379999999975
0
LINE
8
BLACK
6
CONTINUOUS
10
102.5620059999999967
20
-73.3898379999999975
11
102.3715299999999928
21
-73.2946000000000026
0
LINE
8
BLACK
6
CONTINUOUS
10
104.1810539999999889
20
-73.1993609999999961
11
104.276291999999998
21
-73.2946000000000026
0
LINE
8
BLACK
6
CONTINUOUS
10
104.276291999999998
20
-73.2946000000000026
11
104.1810539999999889
21
-73.3898379999999975
0
LINE
8
BLACK
6
CONTINUOUS
10
104.1810539999999889
20
-73.3898379999999975
11
104.0858159999999941
21
-73.2946000000000026
0
LINE
8
BLACK
6
CONTINUOUS
10
104.0858159999999941
20
-73.2946000000000026
11
104.1810539999999889
21
-73.1993609999999961
0
LINE
8
BLACK
6
CONTINUOUS
10
104.1810539999999889
20
-73.1993609999999961
11
104.1810539999999889
21
-73.3898379999999975
0
LINE
8
BLACK
6
CONTINUOUS
10
104.1810539999999889
20
-72.1517419999999987
11
104.276291999999998
21
-72.2469799999999935
0
LINE
8
BLACK
6
CONTINUOUS
10
104.276291999999998
20
-72.2469799999999935
11
104.1810539999999889
21
-72.3422190000000001
0
LINE
8
BLACK
6
CONTINUOUS
10
104.1810539999999889
20
-72.3422190000000001
11
104.0858159999999941
21
-72.2469799999999935
0
LINE
8
BLACK
6
CONTINUOUS
10
104.0858159999999941
20
-72.2469799999999935
11
104.1810539999999889
21
-72.1517419999999987
0
LINE
8
BLACK
6
CONTINUOUS
10
104.1810539999999889
20
-72.1517419999999987
11
104.1810539999999889
21
-72.3422190000000001
0
LINE
8
BLACK
6
CONTINUOUS
10
87.0589999999999975
20
-76.2749999999999915
11
87.8589999999999947
21
-77.0750000000000028
0
LINE
8
BLACK
6
CONTINUOUS
10
87.8589999999999947
20
-76.2749999999999915
11
87.0589999999999975
21
-77.0750000000000028
0
LINE
8
BLACK
6
CONTINUOUS
10
90.8477199999999954
20
-75.5898380000000003
11
91.0381969999999967
21
-75.5898380000000003
0
LINE
8
BLACK
6
CONTINUOUS
10
91.0381969999999967
20
-75.5898380000000003
11
91.2286730000000006
21
-75.6850759999999951
0
LINE
8
BLACK
6
CONTINUOUS
10
91.2286730000000006
20
-75.6850759999999951
11
91.3239109999999954
21
-75.78031399999999
0
LINE
8
BLACK
6
CONTINUOUS
10
91.3239109999999954
20
-75.78031399999999
11
91.4191489999999902
21
-75.9707899999999938
0
LINE
8
BLACK
6
CONTINUOUS
10
91.4191489999999902
20
-75.9707899999999938
11
91.5143869999999993
21
-76.3517420000000016
0
LINE
8
BLACK
6
CONTINUOUS
10
91.5143869999999993
20
-76.3517420000000016
11
91.5143869999999993
21
-76.8279330000000016
0
LINE
8
BLACK
6
CONTINUOUS
10
91.5143869999999993
20
-76.8279330000000016
11
91.4191489999999902
21
-77.2088849999999951
0
LINE
8
BLACK
6
CONTINUOUS
10
91.4191489999999902
20
-77.2088849999999951
11
91.3239109999999954
21
-77.399360999999999
0
LINE
8
BLACK
6
CONTINUOUS
10
91.3239109999999954
20
-77.399360999999999
11
91.2286730000000006
21
-77.4945999999999913
0
LINE
8
BLACK
6
CONTINUOUS
10
91.2286730000000006
20
-77.4945999999999913
11
91.0381969999999967
21
-77.5898380000000003
0
LINE
8
BLACK
6
CONTINUOUS
10
91.0381969999999967
20
-77.5898380000000003
11
90.8477199999999954
21
-77.5898380000000003
0
LINE
8
BLACK
6
CONTINUOUS
10
90.8477199999999954
20
-77.5898380000000003
11
90.6572439999999915
21
-77.4945999999999913
0
LINE
8
BLACK
6
CONTINUOUS
10
90.6572439999999915
20
-77.4945999999999913
11
90.5620059999999967
21
-77.399360999999999
0
LINE
8
BLACK
6
CONTINUOUS
10
90.5620059999999967
20
-77.399360999999999
11
90.4667680000000018
21
-77.2088849999999951
0
LINE
8
BLACK
6
CONTINUOUS
10
90.4667680000000018
20
-77.2088849999999951
11
90.3715299999999928
21
-76.8279330000000016
0
LINE
8
BLACK
6
CONTINUOUS
10
90.3715299999999928
20
-76.8279330000000016
11
90.3715299999999928
21
-76.3517420000000016
0
LINE
8
BLACK
6
CONTINUOUS
10
90.3715299999999928
20
-76.3517420000000016
11
90.4667680000000018
21
-75.9707899999999938
0
LINE
8
BLACK
6
CONTINUOUS
10
90.4667680000000018
20
-75.9707899999999938
11
90.5620059999999967
21
-75.78031399999999
0
LINE
8
BLACK
6
CONTINUOUS
10
90.5620059999999967
20
-75.78031399999999
11
90.6572439999999915
21
-75.6850759999999951
0
LINE
8
BLACK
6
CONTINUOUS
10
90.6572439999999915
20
-75.6850759999999951
11
90.8477199999999954
21
-75.5898380000000003
0
LINE
8
BLACK
6
CONTINUOUS
10
92.3715299999999928
20
-77.399360999999999
11
92.4667680000000018
21
-77.4945999999999913
0
LINE
8
BLACK
6
CONTINUOUS
10
92.4667680000000018
20
-77.4945999999999913
11
92.3715299999999928
21
-77.5898380000000003
0
LINE
8
BLACK
6
CONTINUOUS
10
92.3715299999999928
20
-77.5898380000000003
11
92.276291999999998
21
-77.4945999999999913
0
LINE
8
BLACK
6
CONTINUOUS
10
92.276291999999998
20
-77.4945999999999913
11
92.3715299999999928
21
-77.399360999999999
0
LINE
8
BLACK
6
CONTINUOUS
10
92.3715299999999928
20
-77.399360999999999
11
92.3715299999999928
21
-77.5898380000000003
0
LINE
8
BLACK
6
CONTINUOUS
10
93.6096249999999941
20
-76.4469799999999964
11
93.4191489999999902
21
-76.3517420000000016
0
LINE
8
BLACK
6
CONTINUOUS
10
93.4191489999999902
20
-76.3517420000000016
11
93.3239109999999954
21
-76.2565039999999925
0
LINE
8
BLACK
6
CONTINUOUS
10
93.3239109999999954
20
-76.2565039999999925
11
93.2286730000000006
21
-76.0660280000000029
0
LINE
8
BLACK
6
CONTINUOUS
10
93.2286730000000006
20
-76.0660280000000029
11
93.2286730000000006
21
-75.9707899999999938
0
LINE
8
BLACK
6
CONTINUOUS
10
93.2286730000000006
20
-75.9707899999999938
11
93.3239109999999954
21
-75.78031399999999
0
LINE
8
BLACK
6
CONTINUOUS
10
93.3239109999999954
20
-75.78031399999999
11
93.4191489999999902
21
-75.6850759999999951
0
LINE
8
BLACK
6
CONTINUOUS
10
93.4191489999999902
20
-75.6850759999999951
11
93.6096249999999941
21
-75.5898380000000003
0
LINE
8
BLACK
6
CONTINUOUS
10
93.6096249999999941
20
-75.5898380000000003
11
93.9905779999999993
21
-75.5898380000000003
0
LINE
8
BLACK
6
CONTINUOUS
10
93.9905779999999993
20
-75.5898380000000003
11
94.1810539999999889
21
-75.6850759999999951
0
LINE
8
BLACK
6
CONTINUOUS
10
94.1810539999999889
20
-75.6850759999999951
11
94.276291999999998
21
-75.78031399999999
0
LINE
8
BLACK
6
CONTINUOUS
10
94.276291999999998
20
-75.78031399999999
11
94.3715299999999928
21
-75.9707899999999938
0
LINE
8
BLACK
6
CONTINUOUS
10
94.3715299999999928
20
-75.9707899999999938
11
94.3715299999999928
21
-76.0660280000000029
0
LINE
8
BLACK
6
CONTINUOUS
10
94.3715299999999928
20
-76.0660280000000029
11
94.276291999999998
21
-76.2565039999999925
0
LINE
8
BLACK
6
CONTINUOUS
10
94.276291999999998
20
-76.2565039999999925
11
94.1810539999999889
21
-76.3517420000000016
0
LINE
8
BLACK
6
CONTINUOUS
10
94.1810539999999889
20
-76.3517420000000016
11
93.9905779999999993
21
-76.4469799999999964
0
LINE
8
BLACK
6
CONTINUOUS
10
93.9905779999999993
20
-76.4469799999999964
11
93.6096249999999941
21
-76.4469799999999964
0
LINE
8
BLACK
6
CONTINUOUS
10
93.6096249999999941
20
-76.4469799999999964
11
93.4191489999999902
21
-76.5422190000000029
0
LINE
8
BLACK
6
CONTINUOUS
10
93.4191489999999902
20
-76.5422190000000029
11
93.3239109999999954
21
-76.6374569999999977
0
LINE
8
BLACK
6
CONTINUOUS
10
93.3239109999999954
20
-76.6374569999999977
11
93.2286730000000006
21
-76.8279330000000016
0
LINE
8
BLACK
6
CONTINUOUS
10
93.2286730000000006
20
-76.8279330000000016
11
93.2286730000000006
21
-77.2088849999999951
0
LINE
8
BLACK
6
CONTINUOUS
10
93.2286730000000006
20
-77.2088849999999951
11
93.3239109999999954
21
-77.399360999999999
0
LINE
8
BLACK
6
CONTINUOUS
10
93.3239109999999954
20
-77.399360999999999
11
93.4191489999999902
21
-77.4945999999999913
0
LINE
8
BLACK
6
CONTINUOUS
10
93.4191489999999902
20
-77.4945999999999913
11
93.6096249999999941
21
-77.5898380000000003
0
LINE
8
BLACK
6
CONTINUOUS
10
93.6096249999999941
20
-77.5898380000000003
11
93.9905779999999993
21
-77.5898380000000003
0
LINE
8
BLACK
6
CONTINUOUS
10
93.9905779999999993
20
-77.5898380000000003
11
94.1810539999999889
21
-77.4945999999999913
0
LINE
8
BLACK
6
CONTINUOUS
10
94.1810539999999889
20
-77.4945999999999913
11
94.276291999999998
21
-77.399360999999999
0
LINE
8
BLACK
6
CONTINUOUS
10
94.276291999999998
20
-77.399360999999999
11
94.3715299999999928
21
-77.2088849999999951
0
LINE
8
BLACK
6
CONTINUOUS
10
94.3715299999999928
20
-77.2088849999999951
11
94.3715299999999928
21
-76.8279330000000016
0
LINE
8
BLACK
6
CONTINUOUS
10
94.3715299999999928
20
-76.8279330000000016
11
94.276291999999998
21
-76.6374569999999977
0
LINE
8
BLACK
6
CONTINUOUS
10
94.276291999999998
20
-76.6374569999999977
11
94.1810539999999889
21
-76.5422190000000029
0
LINE
8
BLACK
6
CONTINUOUS
10
94.1810539999999889
20
-76.5422190000000029
11
93.9905779999999993
21
-76.4469799999999964
0
LINE
8
BLACK
6
CONTINUOUS
10
95.6096249999999941
20
-75.5898380000000003
11
95.8001019999999954
21
-75.5898380000000003
0
LINE
8
BLACK
6
CONTINUOUS
10
95.8001019999999954
20
-75.5898380000000003
11
95.9905779999999993
21
-75.6850759999999951
0
LINE
8
BLACK
6
CONTINUOUS
10
95.9905779999999993
20
-75.6850759999999951
11
96.0858159999999941
21
-75.78031399999999
0
LINE
8
BLACK
6
CONTINUOUS
10
96.0858159999999941
20
-75.78031399999999
11
96.1810539999999889
21
-75.9707899999999938
0
LINE
8
BLACK
6
CONTINUOUS
10
96.1810539999999889
20
-75.9707899999999938
11
96.276291999999998
21
-76.3517420000000016
0
LINE
8
BLACK
6
CONTINUOUS
10
96.276291999999998
20
-76.3517420000000016
11
96.276291999999998
21
-76.8279330000000016
0
LINE
8
BLACK
6
CONTINUOUS
10
96.276291999999998
20
-76.8279330000000016
11
96.1810539999999889
21
-77.2088849999999951
0
LINE
8
BLACK
6
CONTINUOUS
10
96.1810539999999889
20
-77.2088849999999951
11
96.0858159999999941
21
-77.399360999999999
0
LINE
8
BLACK
6
CONTINUOUS
10
96.0858159999999941
20
-77.399360999999999
11
95.9905779999999993
21
-77.4945999999999913
0
LINE
8
BLACK
6
CONTINUOUS
10
95.9905779999999993
20
-77.4945999999999913
11
95.8001019999999954
21
-77.5898380000000003
0
LINE
8
BLACK
6
CONTINUOUS
10
95.8001019999999954
20
-77.5898380000000003
11
95.6096249999999941
21
-77.5898380000000003
0
LINE
8
BLACK
6
CONTINUOUS
10
95.6096249999999941
20
-77.5898380000000003
11
95.4191489999999902
21
-77.4945999999999913
0
LINE
8
BLACK
6
CONTINUOUS
10
95.4191489999999902
20
-77.4945999999999913
11
95.3239109999999954
21
-77.399360999999999
0
LINE
8
BLACK
6
CONTINUOUS
10
95.3239109999999954
20
-77.399360999999999
11
95.2286730000000006
21
-77.2088849999999951
0
LINE
8
BLACK
6
CONTINUOUS
10
95.2286730000000006
20
-77.2088849999999951
11
95.1334349999999915
21
-76.8279330000000016
0
LINE
8
BLACK
6
CONTINUOUS
10
95.1334349999999915
20
-76.8279330000000016
11
95.1334349999999915
21
-76.3517420000000016
0
LINE
8
BLACK
6
CONTINUOUS
10
95.1334349999999915
20
-76.3517420000000016
11
95.2286730000000006
21
-75.9707899999999938
0
LINE
8
BLACK
6
CONTINUOUS
10
95.2286730000000006
20
-75.9707899999999938
11
95.3239109999999954
21
-75.78031399999999
0
LINE
8
BLACK
6
CONTINUOUS
10
95.3239109999999954
20
-75.78031399999999
11
95.4191489999999902
21
-75.6850759999999951
0
LINE
8
BLACK
6
CONTINUOUS
10
95.4191489999999902
20
-75.6850759999999951
11
95.6096249999999941
21
-75.5898380000000003
0
LINE
8
BLACK
6
CONTINUOUS
10
97.5143869999999993
20
-75.5898380000000003
11
97.7048640000000006
21
-75.5898380000000003
0
LINE
8
BLACK
6
CONTINUOUS
10
97.7048640000000006
20
-75.5898380000000003
11
97.8953399999999903
21
-75.6850759999999951
0
LINE
8
BLACK
6
CONTINUOUS
10
97.8953399999999903
20
-75.6850759999999951
11
97.9905779999999993
21
-75.78031399999999
0
LINE
8
BLACK
6
CONTINUOUS
10
97.9905779999999993
20
-75.78031399999999
11
98.0858159999999941
21
-75.9707899999999938
0
LINE
8
BLACK
6
CONTINUOUS
10
98.0858159999999941
20
-75.9707899999999938
11
98.1810539999999889
21
-76.3517420000000016
0
LINE
8
BLACK
6
CONTINUOUS
10
98.1810539999999889
20
-76.3517420000000016
11
98.1810539999999889
21
-76.8279330000000016
0
LINE
8
BLACK
6
CONTINUOUS
10
98.1810539999999889
20
-76.8279330000000016
11
98.0858159999999941
21
-77.2088849999999951
0
LINE
8
BLACK
6
CONTINUOUS
10
98.0858159999999941
20
-77.2088849999999951
11
97.9905779999999993
21
-77.399360999999999
0
LINE
8
BLACK
6
CONTINUOUS
10
97.9905779999999993
20
-77.399360999999999
11
97.8953399999999903
21
-77.4945999999999913
0
LINE
8
BLACK
6
CONTINUOUS
10
97.8953399999999903
20
-77.4945999999999913
11
97.7048640000000006
21
-77.5898380000000003
0
LINE
8
BLACK
6
CONTINUOUS
10
97.7048640000000006
20
-77.5898380000000003
11
97.5143869999999993
21
-77.5898380000000003
0
LINE
8
BLACK
6
CONTINUOUS
10
97.5143869999999993
20
-77.5898380000000003
11
97.3239109999999954
21
-77.4945999999999913
0
LINE
8
BLACK
6
CONTINUOUS
10
97.3239109999999954
20
-77.4945999999999913
11
97.2286730000000006
21
-77.399360999999999
0
LINE
8
BLACK
6
CONTINUOUS
10
97.2286730000000006
20
-77.399360999999999
11
97.1334349999999915
21
-77.2088849999999951
0
LINE
8
BLACK
6
CONTINUOUS
10
97.1334349999999915
20
-77.2088849999999951
11
97.0381969999999967
21
-76.8279330000000016
0
LINE
8
BLACK
6
CONTINUOUS
10
97.0381969999999967
20
-76.8279330000000016
11
97.0381969999999967
21
-76.3517420000000016
0
LINE
8
BLACK
6
CONTINUOUS
10
97.0381969999999967
20
-76.3517420000000016
11
97.1334349999999915
21
-75.9707899999999938
0
LINE
8
BLACK
6
CONTINUOUS
10
97.1334349999999915
20
-75.9707899999999938
11
97.2286730000000006
21
-75.78031399999999
0
LINE
8
BLACK
6
CONTINUOUS
10
97.2286730000000006
20
-75.78031399999999
11
97.3239109999999954
21
-75.6850759999999951
0
LINE
8
BLACK
6
CONTINUOUS
10
97.3239109999999954
20
-75.6850759999999951
11
97.5143869999999993
21
-75.5898380000000003
0
LINE
8
BLACK
6
CONTINUOUS
10
99.0381969999999967
20
-77.5898380000000003
11
99.0381969999999967
21
-76.2565039999999925
0
LINE
8
BLACK
6
CONTINUOUS
10
99.0381969999999967
20
-76.4469799999999964
11
99.1334349999999915
21
-76.3517420000000016
0
LINE
8
BLACK
6
CONTINUOUS
10
99.1334349999999915
20
-76.3517420000000016
11
99.3239109999999954
21
-76.2565039999999925
0
LINE
8
BLACK
6
CONTINUOUS
10
99.3239109999999954
20
-76.2565039999999925
11
99.6096259999999916
21
-76.2565039999999925
0
LINE
8
BLACK
6
CONTINUOUS
10
99.6096259999999916
20
-76.2565039999999925
11
99.8001019999999954
21
-76.3517420000000016
0
LINE
8
BLACK
6
CONTINUOUS
10
99.8001019999999954
20
-76.3517420000000016
11
99.8953399999999903
21
-76.5422190000000029
0
LINE
8
BLACK
6
CONTINUOUS
10
99.8953399999999903
20
-76.5422190000000029
11
99.8953399999999903
21
-77.5898380000000003
0
LINE
8
BLACK
6
CONTINUOUS
10
99.8953399999999903
20
-76.5422190000000029
11
99.9905779999999993
21
-76.3517420000000016
0
LINE
8
BLACK
6
CONTINUOUS
10
99.9905779999999993
20
-76.3517420000000016
11
100.1810539999999889
21
-76.2565039999999925
0
LINE
8
BLACK
6
CONTINUOUS
10
100.1810539999999889
20
-76.2565039999999925
11
100.4667680000000018
21
-76.2565039999999925
0
LINE
8
BLACK
6
CONTINUOUS
10
100.4667680000000018
20
-76.2565039999999925
11
100.657244999999989
21
-76.3517420000000016
0
LINE
8
BLACK
6
CONTINUOUS
10
100.657244999999989
20
-76.3517420000000016
11
100.752482999999998
21
-76.5422190000000029
0
LINE
8
BLACK
6
CONTINUOUS
10
100.752482999999998
20
-76.5422190000000029
11
100.752482999999998
21
-77.5898380000000003
0
LINE
8
BLACK
6
CONTINUOUS
10
101.7048640000000006
20
-77.5898380000000003
11
101.7048640000000006
21
-76.2565039999999925
0
LINE
8
BLACK
6
CONTINUOUS
10
101.7048640000000006
20
-76.4469799999999964
11
101.8001019999999954
21
-76.3517420000000016
0
LINE
8
BLACK
6
CONTINUOUS
10
101.8001019999999954
20
-76.3517420000000016
11
101.9905779999999993
21
-76.2565039999999925
0
LINE
8
BLACK
6
CONTINUOUS
10
101.9905779999999993
20
-76.2565039999999925
11
102.2762929999999955
21
-76.2565039999999925
0
LINE
8
BLACK
6
CONTINUOUS
10
102.2762929999999955
20
-76.2565039999999925
11
102.4667689999999993
21
-76.3517420000000016
0
LINE
8
BLACK
6
CONTINUOUS
10
102.4667689999999993
20
-76.3517420000000016
11
102.5620069999999942
21
-76.5422190000000029
0
LINE
8
BLACK
6
CONTINUOUS
10
102.5620069999999942
20
-76.5422190000000029
11
102.5620069999999942
21
-77.5898380000000003
0
LINE
8
BLACK
6
CONTINUOUS
10
102.5620069999999942
20
-76.5422190000000029
11
102.657244999999989
21
-76.3517420000000016
0
LINE
8
BLACK
6
CONTINUOUS
10
102.657244999999989
20
-76.3517420000000016
11
102.8477209999999928
21
-76.2565039999999925
0
LINE
8
BLACK
6
CONTINUOUS
10
102.8477209999999928
20
-76.2565039999999925
11
103.1334349999999915
21
-76.2565039999999925
0
LINE
8
BLACK
6
CONTINUOUS
10
103.1334349999999915
20
-76.2565039999999925
11
103.3239119999999929
21
-76.3517420000000016
0
LINE
8
BLACK
6
CONTINUOUS
10
103.3239119999999929
20
-76.3517420000000016
11
103.4191500000000019
21
-76.5422190000000029
0
LINE
8
BLACK
6
CONTINUOUS
10
103.4191500000000019
20
-76.5422190000000029
11
103.4191500000000019
21
-77.5898380000000003
0
LINE
8
BLACK
6
CONTINUOUS
10
107.3239119999999929
20
-75.4945999999999913
11
105.609626999999989
21
-78.0660280000000029
0
LINE
8
BLACK
6
CONTINUOUS
10
109.8953410000000019
20
-75.5898380000000003
11
110.0858179999999891
21
-75.5898380000000003
0
LINE
8
BLACK
6
CONTINUOUS
10
110.0858179999999891
20
-75.5898380000000003
11
110.2762939999999929
21
-75.6850759999999951
0
LINE
8
BLACK
6
CONTINUOUS
10
110.2762939999999929
20
-75.6850759999999951
11
110.371532000000002
21
-75.78031399999999
0
LINE
8
BLACK
6
CONTINUOUS
10
110.371532000000002
20
-75.78031399999999
11
110.4667699999999968
21
-75.9707899999999938
0
LINE
8
BLACK
6
CONTINUOUS
10
110.4667699999999968
20
-75.9707899999999938
11
110.5620079999999916
21
-76.3517420000000016
0
LINE
8
BLACK
6
CONTINUOUS
10
110.5620079999999916
20
-76.3517420000000016
11
110.5620079999999916
21
-76.8279330000000016
0
LINE
8
BLACK
6
CONTINUOUS
10
110.5620079999999916
20
-76.8279330000000016
11
110.4667699999999968
21
-77.2088849999999951
0
LINE
8
BLACK
6
CONTINUOUS
10
110.4667699999999968
20
-77.2088849999999951
11
110.371532000000002
21
-77.399360999999999
0
LINE
8
BLACK
6
CONTINUOUS
10
110.371532000000002
20
-77.399360999999999
11
110.2762939999999929
21
-77.4945999999999913
0
LINE
8
BLACK
6
CONTINUOUS
10
110.2762939999999929
20
-77.4945999999999913
11
110.0858179999999891
21
-77.5898380000000003
0
LINE
8
BLACK
6
CONTINUOUS
10
110.0858179999999891
20
-77.5898380000000003
11
109.8953410000000019
21
-77.5898380000000003
0
LINE
8
BLACK
6
CONTINUOUS
10
109.8953410000000019
20
-77.5898380000000003
11
109.7048649999999981
21
-77.4945999999999913
0
LINE
8
BLACK
6
CONTINUOUS
10
109.7048649999999981
20
-77.4945999999999913
11
109.609626999999989
21
-77.399360999999999
0
LINE
8
BLACK
6
CONTINUOUS
10
109.609626999999989
20
-77.399360999999999
11
109.5143889999999942
21
-77.2088849999999951
0
LINE
8
BLACK
6
CONTINUOUS
10
109.5143889999999942
20
-77.2088849999999951
11
109.4191509999999994
21
-76.8279330000000016
0
LINE
8
BLACK
6
CONTINUOUS
10
109.4191509999999994
20
-76.8279330000000016
11
109.4191509999999994
21
-76.3517420000000016
0
LINE
8
BLACK
6
CONTINUOUS
10
109.4191509999999994
20
-76.3517420000000016
11
109.5143889999999942
21
-75.9707899999999938
0
LINE
8
BLACK
6
CONTINUOUS
10
109.5143889999999942
20
-75.9707899999999938
11
109.609626999999989
21
-75.78031399999999
0
LINE
8
BLACK
6
CONTINUOUS
10
109.609626999999989
20
-75.78031399999999
11
109.7048649999999981
21
-75.6850759999999951
0
LINE
8
BLACK
6
CONTINUOUS
10
109.7048649999999981
20
-75.6850759999999951
11
109.8953410000000019
21
-75.5898380000000003
0
LINE
8
BLACK
6
CONTINUOUS
10
111.4191509999999994
20
-77.399360999999999
11
111.5143889999999942
21
-77.4945999999999913
0
LINE
8
BLACK
6
CONTINUOUS
10
111.5143889999999942
20
-77.4945999999999913
11
111.4191509999999994
21
-77.5898380000000003
0
LINE
8
BLACK
6
CONTINUOUS
10
111.4191509999999994
20
-77.5898380000000003
11
111.3239129999999903
21
-77.4945999999999913
0
LINE
8
BLACK
6
CONTINUOUS
10
111.3239129999999903
20
-77.4945999999999913
11
111.4191509999999994
21
-77.399360999999999
0
LINE
8
BLACK
6
CONTINUOUS
10
111.4191509999999994
20
-77.399360999999999
11
111.4191509999999994
21
-77.5898380000000003
0
LINE
8
BLACK
6
CONTINUOUS
10
112.7524839999999955
20
-75.5898380000000003
11
112.9429609999999968
21
-75.5898380000000003
0
LINE
8
BLACK
6
CONTINUOUS
10
112.9429609999999968
20
-75.5898380000000003
11
113.1334370000000007
21
-75.6850759999999951
0
LINE
8
BLACK
6
CONTINUOUS
10
113.1334370000000007
20
-75.6850759999999951
11
113.2286749999999955
21
-75.78031399999999
0
LINE
8
BLACK
6
CONTINUOUS
10
113.2286749999999955
20
-75.78031399999999
11
113.3239129999999903
21
-75.9707899999999938
0
LINE
8
BLACK
6
CONTINUOUS
10
113.3239129999999903
20
-75.9707899999999938
11
113.4191509999999994
21
-76.3517420000000016
0
LINE
8
BLACK
6
CONTINUOUS
10
113.4191509999999994
20
-76.3517420000000016
11
113.4191509999999994
21
-76.8279330000000016
0
LINE
8
BLACK
6
CONTINUOUS
10
113.4191509999999994
20
-76.8279330000000016
11
113.3239129999999903
21
-77.2088849999999951
0
LINE
8
BLACK
6
CONTINUOUS
10
113.3239129999999903
20
-77.2088849999999951
11
113.2286749999999955
21
-77.399360999999999
0
LINE
8
BLACK
6
CONTINUOUS
10
113.2286749999999955
20
-77.399360999999999
11
113.1334370000000007
21
-77.4945999999999913
0
LINE
8
BLACK
6
CONTINUOUS
10
113.1334370000000007
20
-77.4945999999999913
11
112.9429609999999968
21
-77.5898380000000003
0
LINE
8
BLACK
6
CONTINUOUS
10
112.9429609999999968
20
-77.5898380000000003
11
112.7524839999999955
21
-77.5898380000000003
0
LINE
8
BLACK
6
CONTINUOUS
10
112.7524839999999955
20
-77.5898380000000003
11
112.5620079999999916
21
-77.4945999999999913
0
LINE
8
BLACK
6
CONTINUOUS
10
112.5620079999999916
20
-77.4945999999999913
11
112.4667699999999968
21
-77.399360999999999
0
LINE
8
BLACK
6
CONTINUOUS
10
112.4667699999999968
20
-77.399360999999999
11
112.371532000000002
21
-77.2088849999999951
0
LINE
8
BLACK
6
CONTINUOUS
10
112.371532000000002
20
-77.2088849999999951
11
112.2762939999999929
21
-76.8279330000000016
0
LINE
8
BLACK
6
CONTINUOUS
10
112.2762939999999929
20
-76.8279330000000016
11
112.2762939999999929
21
-76.3517420000000016
0
LINE
8
BLACK
6
CONTINUOUS
10
112.2762939999999929
20
-76.3517420000000016
11
112.371532000000002
21
-75.9707899999999938
0
LINE
8
BLACK
6
CONTINUOUS
10
112.371532000000002
20
-75.9707899999999938
11
112.4667699999999968
21
-75.78031399999999
0
LINE
8
BLACK
6
CONTINUOUS
10
112.4667699999999968
20
-75.78031399999999
11
112.5620079999999916
21
-75.6850759999999951
0
LINE
8
BLACK
6
CONTINUOUS
10
112.5620079999999916
20
-75.6850759999999951
11
112.7524839999999955
21
-75.5898380000000003
0
LINE
8
BLACK
6
CONTINUOUS
10
114.0858179999999891
20
-75.5898380000000003
11
115.3239129999999903
21
-75.5898380000000003
0
LINE
8
BLACK
6
CONTINUOUS
10
115.3239129999999903
20
-75.5898380000000003
11
114.6572460000000007
21
-76.3517420000000016
0
LINE
8
BLACK
6
CONTINUOUS
10
114.6572460000000007
20
-76.3517420000000016
11
114.9429609999999968
21
-76.3517420000000016
0
LINE
8
BLACK
6
CONTINUOUS
10
114.9429609999999968
20
-76.3517420000000016
11
115.1334370000000007
21
-76.4469799999999964
0
LINE
8
BLACK
6
CONTINUOUS
10
115.1334370000000007
20
-76.4469799999999964
11
115.2286749999999955
21
-76.5422190000000029
0
LINE
8
BLACK
6
CONTINUOUS
10
115.2286749999999955
20
-76.5422190000000029
11
115.3239129999999903
21
-76.7326949999999925
0
LINE
8
BLACK
6
CONTINUOUS
10
115.3239129999999903
20
-76.7326949999999925
11
115.3239129999999903
21
-77.2088849999999951
0
LINE
8
BLACK
6
CONTINUOUS
10
115.3239129999999903
20
-77.2088849999999951
11
115.2286749999999955
21
-77.399360999999999
0
LINE
8
BLACK
6
CONTINUOUS
10
115.2286749999999955
20
-77.399360999999999
11
115.1334370000000007
21
-77.4945999999999913
0
LINE
8
BLACK
6
CONTINUOUS
10
115.1334370000000007
20
-77.4945999999999913
11
114.9429609999999968
21
-77.5898380000000003
0
LINE
8
BLACK
6
CONTINUOUS
10
114.9429609999999968
20
-77.5898380000000003
11
114.3715319999999878
21
-77.5898380000000003
0
LINE
8
BLACK
6
CONTINUOUS
10
114.3715319999999878
20
-77.5898380000000003
11
114.1810559999999981
21
-77.4945999999999913
0
LINE
8
BLACK
6
CONTINUOUS
10
114.1810559999999981
20
-77.4945999999999913
11
114.0858179999999891
21
-77.399360999999999
0
LINE
8
BLACK
6
CONTINUOUS
10
117.2286749999999955
20
-77.5898380000000003
11
116.0858179999999891
21
-77.5898380000000003
0
LINE
8
BLACK
6
CONTINUOUS
10
116.6572460000000007
20
-77.5898380000000003
11
116.6572460000000007
21
-75.5898380000000003
0
LINE
8
BLACK
6
CONTINUOUS
10
116.6572460000000007
20
-75.5898380000000003
11
116.4667699999999968
21
-75.875551999999999
0
LINE
8
BLACK
6
CONTINUOUS
10
116.4667699999999968
20
-75.875551999999999
11
116.2762939999999929
21
-76.0660280000000029
0
LINE
8
BLACK
6
CONTINUOUS
10
116.2762939999999929
20
-76.0660280000000029
11
116.0858179999999891
21
-76.1612659999999977
0
LINE
8
BLACK
6
CONTINUOUS
10
119.0381989999999917
20
-75.5898380000000003
11
118.0858179999999891
21
-75.5898380000000003
0
LINE
8
BLACK
6
CONTINUOUS
10
118.0858179999999891
20
-75.5898380000000003
11
117.9905799999999942
21
-76.5422190000000029
0
LINE
8
BLACK
6
CONTINUOUS
10
117.9905799999999942
20
-76.5422190000000029
11
118.0858179999999891
21
-76.4469799999999964
0
LINE
8
BLACK
6
CONTINUOUS
10
118.0858179999999891
20
-76.4469799999999964
11
118.2762939999999929
21
-76.3517420000000016
0
LINE
8
BLACK
6
CONTINUOUS
10
118.2762939999999929
20
-76.3517420000000016
11
118.752484999999993
21
-76.3517420000000016
0
LINE
8
BLACK
6
CONTINUOUS
10
118.752484999999993
20
-76.3517420000000016
11
118.9429609999999968
21
-76.4469799999999964
0
LINE
8
BLACK
6
CONTINUOUS
10
118.9429609999999968
20
-76.4469799999999964
11
119.0381989999999917
21
-76.5422190000000029
0
LINE
8
BLACK
6
CONTINUOUS
10
119.0381989999999917
20
-76.5422190000000029
11
119.1334370000000007
21
-76.7326949999999925
0
LINE
8
BLACK
6
CONTINUOUS
10
119.1334370000000007
20
-76.7326949999999925
11
119.1334370000000007
21
-77.2088849999999951
0
LINE
8
BLACK
6
CONTINUOUS
10
119.1334370000000007
20
-77.2088849999999951
11
119.0381989999999917
21
-77.399360999999999
0
LINE
8
BLACK
6
CONTINUOUS
10
119.0381989999999917
20
-77.399360999999999
11
118.9429609999999968
21
-77.4945999999999913
0
LINE
8
BLACK
6
CONTINUOUS
10
118.9429609999999968
20
-77.4945999999999913
11
118.752484999999993
21
-77.5898380000000003
0
LINE
8
BLACK
6
CONTINUOUS
10
118.752484999999993
20
-77.5898380000000003
11
118.2762939999999929
21
-77.5898380000000003
0
LINE
8
BLACK
6
CONTINUOUS
10
118.2762939999999929
20
-77.5898380000000003
11
118.0858179999999891
21
-77.4945999999999913
0
LINE
8
BLACK
6
CONTINUOUS
10
118.0858179999999891
20
-77.4945999999999913
11
117.9905799999999942
21
-77.399360999999999
0
LINE
8
BLACK
6
CONTINUOUS
10
119.8953419999999994
20
-75.5898380000000003
11
119.8953419999999994
21
-75.9707899999999938
0
LINE
8
BLACK
6
CONTINUOUS
10
120.6572469999999981
20
-75.5898380000000003
11
120.6572469999999981
21
-75.9707899999999938
0
LINE
8
BLACK
6
CONTINUOUS
10
123.6096289999999982
20
-78.3517420000000016
11
123.5143899999999917
21
-78.2565039999999925
0
LINE
8
BLACK
6
CONTINUOUS
10
123.5143899999999917
20
-78.2565039999999925
11
123.3239139999999878
21
-77.9707899999999938
0
LINE
8
BLACK
6
CONTINUOUS
10
123.3239139999999878
20
-77.9707899999999938
11
123.228675999999993
21
-77.78031399999999
0
LINE
8
BLACK
6
CONTINUOUS
10
123.228675999999993
20
-77.78031399999999
11
123.1334379999999982
21
-77.4945999999999913
0
LINE
8
BLACK
6
CONTINUOUS
10
123.1334379999999982
20
-77.4945999999999913
11
123.0381999999999891
21
-77.0184089999999912
0
LINE
8
BLACK
6
CONTINUOUS
10
123.0381999999999891
20
-77.0184089999999912
11
123.0381999999999891
21
-76.6374569999999977
0
LINE
8
BLACK
6
CONTINUOUS
10
123.0381999999999891
20
-76.6374569999999977
11
123.1334379999999982
21
-76.1612659999999977
0
LINE
8
BLACK
6
CONTINUOUS
10
123.1334379999999982
20
-76.1612659999999977
11
123.228675999999993
21
-75.875551999999999
0
LINE
8
BLACK
6
CONTINUOUS
10
123.228675999999993
20
-75.875551999999999
11
123.3239139999999878
21
-75.6850759999999951
0
LINE
8
BLACK
6
CONTINUOUS
10
123.3239139999999878
20
-75.6850759999999951
11
123.5143899999999917
21
-75.399360999999999
0
LINE
8
BLACK
6
CONTINUOUS
10
123.5143899999999917
20
-75.399360999999999
11
123.6096289999999982
21
-75.3041229999999899
0
LINE
8
BLACK
6
CONTINUOUS
10
124.1810569999999956
20
-75.5898380000000003
11
125.5143899999999917
21
-75.5898380000000003
0
LINE
8
BLACK
6
CONTINUOUS
10
125.5143899999999917
20
-75.5898380000000003
11
124.6572469999999981
21
-77.5898380000000003
0
LINE
8
BLACK
6
CONTINUOUS
10
127.8001049999999879
20
-77.5898380000000003
11
127.8001049999999879
21
-75.5898380000000003
0
LINE
8
BLACK
6
CONTINUOUS
10
128.6572479999999814
20
-77.5898380000000003
11
128.6572479999999814
21
-76.5422190000000029
0
LINE
8
BLACK
6
CONTINUOUS
10
128.6572479999999814
20
-76.5422190000000029
11
128.5620099999999866
21
-76.3517420000000016
0
LINE
8
BLACK
6
CONTINUOUS
10
128.5620099999999866
20
-76.3517420000000016
11
128.3715339999999969
21
-76.2565039999999925
0
LINE
8
BLACK
6
CONTINUOUS
10
128.3715339999999969
20
-76.2565039999999925
11
128.0858189999999865
21
-76.2565039999999925
0
LINE
8
BLACK
6
CONTINUOUS
10
128.0858189999999865
20
-76.2565039999999925
11
127.8953429999999969
21
-76.3517420000000016
0
LINE
8
BLACK
6
CONTINUOUS
10
127.8953429999999969
20
-76.3517420000000016
11
127.8001049999999879
21
-76.4469799999999964
0
LINE
8
BLACK
6
CONTINUOUS
10
129.8953429999999969
20
-77.5898380000000003
11
129.7048670000000072
21
-77.4945999999999913
0
LINE
8
BLACK
6
CONTINUOUS
10
129.7048670000000072
20
-77.4945999999999913
11
129.609628999999984
21
-77.399360999999999
0
LINE
8
BLACK
6
CONTINUOUS
10
129.609628999999984
20
-77.399360999999999
11
129.5143909999999892
21
-77.2088849999999951
0
LINE
8
BLACK
6
CONTINUOUS
10
129.5143909999999892
20
-77.2088849999999951
11
129.5143909999999892
21
-76.6374569999999977
0
LINE
8
BLACK
6
CONTINUOUS
10
129.5143909999999892
20
-76.6374569999999977
11
129.609628999999984
21
-76.4469799999999964
0
LINE
8
BLACK
6
CONTINUOUS
10
129.609628999999984
20
-76.4469799999999964
11
129.7048670000000072
21
-76.3517420000000016
0
LINE
8
BLACK
6
CONTINUOUS
10
129.7048670000000072
20
-76.3517420000000016
11
129.8953429999999969
21
-76.2565039999999925
0
LINE
8
BLACK
6
CONTINUOUS
10
129.8953429999999969
20
-76.2565039999999925
11
130.1810580000000073
21
-76.2565039999999925
0
LINE
8
BLACK
6
CONTINUOUS
10
130.1810580000000073
20
-76.2565039999999925
11
130.3715339999999969
21
-76.3517420000000016
0
LINE
8
BLACK
6
CONTINUOUS
10
130.3715339999999969
20
-76.3517420000000016
11
130.4667719999999917
21
-76.4469799999999964
0
LINE
8
BLACK
6
CONTINUOUS
10
130.4667719999999917
20
-76.4469799999999964
11
130.5620099999999866
21
-76.6374569999999977
0
LINE
8
BLACK
6
CONTINUOUS
10
130.5620099999999866
20
-76.6374569999999977
11
130.5620099999999866
21
-77.2088849999999951
0
LINE
8
BLACK
6
CONTINUOUS
10
130.5620099999999866
20
-77.2088849999999951
11
130.4667719999999917
21
-77.399360999999999
0
LINE
8
BLACK
6
CONTINUOUS
10
130.4667719999999917
20
-77.399360999999999
11
130.3715339999999969
21
-77.4945999999999913
0
LINE
8
BLACK
6
CONTINUOUS
10
130.3715339999999969
20
-77.4945999999999913
11
130.1810580000000073
21
-77.5898380000000003
0
LINE
8
BLACK
6
CONTINUOUS
10
130.1810580000000073
20
-77.5898380000000003
11
129.8953429999999969
21
-77.5898380000000003
0
LINE
8
BLACK
6
CONTINUOUS
10
131.7048670000000072
20
-77.5898380000000003
11
131.5143909999999892
21
-77.4945999999999913
0
LINE
8
BLACK
6
CONTINUOUS
10
131.5143909999999892
20
-77.4945999999999913
11
131.4191529999999943
21
-77.3041229999999899
0
LINE
8
BLACK
6
CONTINUOUS
10
131.4191529999999943
20
-77.3041229999999899
11
131.4191529999999943
21
-75.5898380000000003
0
LINE
8
BLACK
6
CONTINUOUS
10
133.2286770000000047
20
-77.4945999999999913
11
133.0382009999999866
21
-77.5898380000000003
0
LINE
8
BLACK
6
CONTINUOUS
10
133.0382009999999866
20
-77.5898380000000003
11
132.6572479999999814
21
-77.5898380000000003
0
LINE
8
BLACK
6
CONTINUOUS
10
132.6572479999999814
20
-77.5898380000000003
11
132.4667719999999917
21
-77.4945999999999913
0
LINE
8
BLACK
6
CONTINUOUS
10
132.4667719999999917
20
-77.4945999999999913
11
132.3715339999999969
21
-77.3041229999999899
0
LINE
8
BLACK
6
CONTINUOUS
10
132.3715339999999969
20
-77.3041229999999899
11
132.3715339999999969
21
-76.5422190000000029
0
LINE
8
BLACK
6
CONTINUOUS
10
132.3715339999999969
20
-76.5422190000000029
11
132.4667719999999917
21
-76.3517420000000016
0
LINE
8
BLACK
6
CONTINUOUS
10
132.4667719999999917
20
-76.3517420000000016
11
132.6572479999999814
21
-76.2565039999999925
0
LINE
8
BLACK
6
CONTINUOUS
10
132.6572479999999814
20
-76.2565039999999925
11
133.0382009999999866
21
-76.2565039999999925
0
LINE
8
BLACK
6
CONTINUOUS
10
133.0382009999999866
20
-76.2565039999999925
11
133.2286770000000047
21
-76.3517420000000016
0
LINE
8
BLACK
6
CONTINUOUS
10
133.2286770000000047
20
-76.3517420000000016
11
133.3239149999999995
21
-76.5422190000000029
0
LINE
8
BLACK
6
CONTINUOUS
10
133.3239149999999995
20
-76.5422190000000029
11
133.3239149999999995
21
-76.7326949999999925
0
LINE
8
BLACK
6
CONTINUOUS
10
133.3239149999999995
20
-76.7326949999999925
11
132.3715339999999969
21
-76.9231709999999964
0
LINE
8
BLACK
6
CONTINUOUS
10
134.085819999999984
20
-77.4945999999999913
11
134.2762960000000021
21
-77.5898380000000003
0
LINE
8
BLACK
6
CONTINUOUS
10
134.2762960000000021
20
-77.5898380000000003
11
134.6572479999999814
21
-77.5898380000000003
0
LINE
8
BLACK
6
CONTINUOUS
10
134.6572479999999814
20
-77.5898380000000003
11
134.847724999999997
21
-77.4945999999999913
0
LINE
8
BLACK
6
CONTINUOUS
10
134.847724999999997
20
-77.4945999999999913
11
134.9429629999999918
21
-77.3041229999999899
0
LINE
8
BLACK
6
CONTINUOUS
10
134.9429629999999918
20
-77.3041229999999899
11
134.9429629999999918
21
-77.2088849999999951
0
LINE
8
BLACK
6
CONTINUOUS
10
134.9429629999999918
20
-77.2088849999999951
11
134.847724999999997
21
-77.0184089999999912
0
LINE
8
BLACK
6
CONTINUOUS
10
134.847724999999997
20
-77.0184089999999912
11
134.6572479999999814
21
-76.9231709999999964
0
LINE
8
BLACK
6
CONTINUOUS
10
134.6572479999999814
20
-76.9231709999999964
11
134.3715339999999969
21
-76.9231709999999964
0
LINE
8
BLACK
6
CONTINUOUS
10
134.3715339999999969
20
-76.9231709999999964
11
134.1810580000000073
21
-76.8279330000000016
0
LINE
8
BLACK
6
CONTINUOUS
10
134.1810580000000073
20
-76.8279330000000016
11
134.085819999999984
21
-76.6374569999999977
0
LINE
8
BLACK
6
CONTINUOUS
10
134.085819999999984
20
-76.6374569999999977
11
134.085819999999984
21
-76.5422190000000029
0
LINE
8
BLACK
6
CONTINUOUS
10
134.085819999999984
20
-76.5422190000000029
11
134.1810580000000073
21
-76.3517420000000016
0
LINE
8
BLACK
6
CONTINUOUS
10
134.1810580000000073
20
-76.3517420000000016
11
134.3715339999999969
21
-76.2565039999999925
0
LINE
8
BLACK
6
CONTINUOUS
10
134.3715339999999969
20
-76.2565039999999925
11
134.6572479999999814
21
-76.2565039999999925
0
LINE
8
BLACK
6
CONTINUOUS
10
134.6572479999999814
20
-76.2565039999999925
11
134.847724999999997
21
-76.3517420000000016
0
LINE
8
BLACK
6
CONTINUOUS
10
135.6096299999999815
20
-78.3517420000000016
11
135.7048680000000047
21
-78.2565039999999925
0
LINE
8
BLACK
6
CONTINUOUS
10
135.7048680000000047
20
-78.2565039999999925
11
135.8953439999999944
21
-77.9707899999999938
0
LINE
8
BLACK
6
CONTINUOUS
10
135.8953439999999944
20
-77.9707899999999938
11
135.9905819999999892
21
-77.78031399999999
0
LINE
8
BLACK
6
CONTINUOUS
10
135.9905819999999892
20
-77.78031399999999
11
136.085819999999984
21
-77.4945999999999913
0
LINE
8
BLACK
6
CONTINUOUS
10
136.085819999999984
20
-77.4945999999999913
11
136.1810580000000073
21
-77.0184089999999912
0
LINE
8
BLACK
6
CONTINUOUS
10
136.1810580000000073
20
-77.0184089999999912
11
136.1810580000000073
21
-76.6374569999999977
0
LINE
8
BLACK
6
CONTINUOUS
10
136.1810580000000073
20
-76.6374569999999977
11
136.085819999999984
21
-76.1612659999999977
0
LINE
8
BLACK
6
CONTINUOUS
10
136.085819999999984
20
-76.1612659999999977
11
135.9905819999999892
21
-75.875551999999999
0
LINE
8
BLACK
6
CONTINUOUS
10
135.9905819999999892
20
-75.875551999999999
11
135.8953439999999944
21
-75.6850759999999951
0
LINE
8
BLACK
6
CONTINUOUS
10
135.8953439999999944
20
-75.6850759999999951
11
135.7048680000000047
21
-75.399360999999999
0
LINE
8
BLACK
6
CONTINUOUS
10
135.7048680000000047
20
-75.399360999999999
11
135.6096299999999815
21
-75.3041229999999899
0
CIRCLE
8
BLACK
10
87.3589999999999947
20
-79.3149999999999977
40
0.5
0
LINE
8
BLACK
6
CONTINUOUS
10
91.5143869999999993
20
-80.2298380000000009
11
90.3715299999999928
21
-80.2298380000000009
0
LINE
8
BLACK
6
CONTINUOUS
10
90.9429579999999902
20
-80.2298380000000009
11
90.9429579999999902
21
-78.2298380000000009
0
LINE
8
BLACK
6
CONTINUOUS
10
90.9429579999999902
20
-78.2298380000000009
11
90.7524820000000005
21
-78.5155519999999996
0
LINE
8
BLACK
6
CONTINUOUS
10
90.7524820000000005
20
-78.5155519999999996
11
90.5620059999999967
21
-78.7060280000000034
0
LINE
8
BLACK
6
CONTINUOUS
10
90.5620059999999967
20
-78.7060280000000034
11
90.3715299999999928
21
-78.8012659999999983
0
LINE
8
BLACK
6
CONTINUOUS
10
92.3715299999999928
20
-80.0393609999999995
11
92.4667680000000018
21
-80.1345999999999918
0
LINE
8
BLACK
6
CONTINUOUS
10
92.4667680000000018
20
-80.1345999999999918
11
92.3715299999999928
21
-80.2298380000000009
0
LINE
8
BLACK
6
CONTINUOUS
10
92.3715299999999928
20
-80.2298380000000009
11
92.276291999999998
21
-80.1345999999999918
0
LINE
8
BLACK
6
CONTINUOUS
10
92.276291999999998
20
-80.1345999999999918
11
92.3715299999999928
21
-80.0393609999999995
0
LINE
8
BLACK
6
CONTINUOUS
10
92.3715299999999928
20
-80.0393609999999995
11
92.3715299999999928
21
-80.2298380000000009
0
LINE
8
BLACK
6
CONTINUOUS
10
93.7048629999999889
20
-78.2298380000000009
11
93.8953399999999903
21
-78.2298380000000009
0
LINE
8
BLACK
6
CONTINUOUS
10
93.8953399999999903
20
-78.2298380000000009
11
94.0858159999999941
21
-78.3250759999999957
0
LINE
8
BLACK
6
CONTINUOUS
10
94.0858159999999941
20
-78.3250759999999957
11
94.1810539999999889
21
-78.4203139999999905
0
LINE
8
BLACK
6
CONTINUOUS
10
94.1810539999999889
20
-78.4203139999999905
11
94.276291999999998
21
-78.6107899999999944
0
LINE
8
BLACK
6
CONTINUOUS
10
94.276291999999998
20
-78.6107899999999944
11
94.3715299999999928
21
-78.9917420000000021
0
LINE
8
BLACK
6
CONTINUOUS
10
94.3715299999999928
20
-78.9917420000000021
11
94.3715299999999928
21
-79.4679330000000022
0
LINE
8
BLACK
6
CONTINUOUS
10
94.3715299999999928
20
-79.4679330000000022
11
94.276291999999998
21
-79.8488849999999957
0
LINE
8
BLACK
6
CONTINUOUS
10
94.276291999999998
20
-79.8488849999999957
11
94.1810539999999889
21
-80.0393609999999995
0
LINE
8
BLACK
6
CONTINUOUS
10
94.1810539999999889
20
-80.0393609999999995
11
94.0858159999999941
21
-80.1345999999999918
0
LINE
8
BLACK
6
CONTINUOUS
10
94.0858159999999941
20
-80.1345999999999918
11
93.8953399999999903
21
-80.2298380000000009
0
LINE
8
BLACK
6
CONTINUOUS
10
93.8953399999999903
20
-80.2298380000000009
11
93.7048629999999889
21
-80.2298380000000009
0
LINE
8
BLACK
6
CONTINUOUS
10
93.7048629999999889
20
-80.2298380000000009
11
93.5143869999999993
21
-80.1345999999999918
0
LINE
8
BLACK
6
CONTINUOUS
10
93.5143869999999993
20
-80.1345999999999918
11
93.4191489999999902
21
-80.0393609999999995
0
LINE
8
BLACK
6
CONTINUOUS
10
93.4191489999999902
20
-80.0393609999999995
11
93.3239109999999954
21
-79.8488849999999957
0
LINE
8
BLACK
6
CONTINUOUS
10
93.3239109999999954
20
-79.8488849999999957
11
93.2286730000000006
21
-79.4679330000000022
0
LINE
8
BLACK
6
CONTINUOUS
10
93.2286730000000006
20
-79.4679330000000022
11
93.2286730000000006
21
-78.9917420000000021
0
LINE
8
BLACK
6
CONTINUOUS
10
93.2286730000000006
20
-78.9917420000000021
11
93.3239109999999954
21
-78.6107899999999944
0
LINE
8
BLACK
6
CONTINUOUS
10
93.3239109999999954
20
-78.6107899999999944
11
93.4191489999999902
21
-78.4203139999999905
0
LINE
8
BLACK
6
CONTINUOUS
10
93.4191489999999902
20
-78.4203139999999905
11
93.5143869999999993
21
-78.3250759999999957
0
LINE
8
BLACK
6
CONTINUOUS
10
93.5143869999999993
20
-78.3250759999999957
11
93.7048629999999889
21
-78.2298380000000009
0
LINE
8
BLACK
6
CONTINUOUS
10
95.6096249999999941
20
-78.2298380000000009
11
95.8001019999999954
21
-78.2298380000000009
0
LINE
8
BLACK
6
CONTINUOUS
10
95.8001019999999954
20
-78.2298380000000009
11
95.9905779999999993
21
-78.3250759999999957
0
LINE
8
BLACK
6
CONTINUOUS
10
95.9905779999999993
20
-78.3250759999999957
11
96.0858159999999941
21
-78.4203139999999905
0
LINE
8
BLACK
6
CONTINUOUS
10
96.0858159999999941
20
-78.4203139999999905
11
96.1810539999999889
21
-78.6107899999999944
0
LINE
8
BLACK
6
CONTINUOUS
10
96.1810539999999889
20
-78.6107899999999944
11
96.276291999999998
21
-78.9917420000000021
0
LINE
8
BLACK
6
CONTINUOUS
10
96.276291999999998
20
-78.9917420000000021
11
96.276291999999998
21
-79.4679330000000022
0
LINE
8
BLACK
6
CONTINUOUS
10
96.276291999999998
20
-79.4679330000000022
11
96.1810539999999889
21
-79.8488849999999957
0
LINE
8
BLACK
6
CONTINUOUS
10
96.1810539999999889
20
-79.8488849999999957
11
96.0858159999999941
21
-80.0393609999999995
0
LINE
8
BLACK
6
CONTINUOUS
10
96.0858159999999941
20
-80.0393609999999995
11
95.9905779999999993
21
-80.1345999999999918
0
LINE
8
BLACK
6
CONTINUOUS
10
95.9905779999999993
20
-80.1345999999999918
11
95.8001019999999954
21
-80.2298380000000009
0
LINE
8
BLACK
6
CONTINUOUS
10
95.8001019999999954
20
-80.2298380000000009
11
95.6096249999999941
21
-80.2298380000000009
0
LINE
8
BLACK
6
CONTINUOUS
10
95.6096249999999941
20
-80.2298380000000009
11
95.4191489999999902
21
-80.1345999999999918
0
LINE
8
BLACK
6
CONTINUOUS
10
95.4191489999999902
20
-80.1345999999999918
11
95.3239109999999954
21
-80.0393609999999995
0
LINE
8
BLACK
6
CONTINUOUS
10
95.3239109999999954
20
-80.0393609999999995
11
95.2286730000000006
21
-79.8488849999999957
0
LINE
8
BLACK
6
CONTINUOUS
10
95.2286730000000006
20
-79.8488849999999957
11
95.1334349999999915
21
-79.4679330000000022
0
LINE
8
BLACK
6
CONTINUOUS
10
95.1334349999999915
20
-79.4679330000000022
11
95.1334349999999915
21
-78.9917420000000021
0
LINE
8
BLACK
6
CONTINUOUS
10
95.1334349999999915
20
-78.9917420000000021
11
95.2286730000000006
21
-78.6107899999999944
0
LINE
8
BLACK
6
CONTINUOUS
10
95.2286730000000006
20
-78.6107899999999944
11
95.3239109999999954
21
-78.4203139999999905
0
LINE
8
BLACK
6
CONTINUOUS
10
95.3239109999999954
20
-78.4203139999999905
11
95.4191489999999902
21
-78.3250759999999957
0
LINE
8
BLACK
6
CONTINUOUS
10
95.4191489999999902
20
-78.3250759999999957
11
95.6096249999999941
21
-78.2298380000000009
0
LINE
8
BLACK
6
CONTINUOUS
10
97.5143869999999993
20
-78.2298380000000009
11
97.7048640000000006
21
-78.2298380000000009
0
LINE
8
BLACK
6
CONTINUOUS
10
97.7048640000000006
20
-78.2298380000000009
11
97.8953399999999903
21
-78.3250759999999957
0
LINE
8
BLACK
6
CONTINUOUS
10
97.8953399999999903
20
-78.3250759999999957
11
97.9905779999999993
21
-78.4203139999999905
0
LINE
8
BLACK
6
CONTINUOUS
10
97.9905779999999993
20
-78.4203139999999905
11
98.0858159999999941
21
-78.6107899999999944
0
LINE
8
BLACK
6
CONTINUOUS
10
98.0858159999999941
20
-78.6107899999999944
11
98.1810539999999889
21
-78.9917420000000021
0
LINE
8
BLACK
6
CONTINUOUS
10
98.1810539999999889
20
-78.9917420000000021
11
98.1810539999999889
21
-79.4679330000000022
0
LINE
8
BLACK
6
CONTINUOUS
10
98.1810539999999889
20
-79.4679330000000022
11
98.0858159999999941
21
-79.8488849999999957
0
LINE
8
BLACK
6
CONTINUOUS
10
98.0858159999999941
20
-79.8488849999999957
11
97.9905779999999993
21
-80.0393609999999995
0
LINE
8
BLACK
6
CONTINUOUS
10
97.9905779999999993
20
-80.0393609999999995
11
97.8953399999999903
21
-80.1345999999999918
0
LINE
8
BLACK
6
CONTINUOUS
10
97.8953399999999903
20
-80.1345999999999918
11
97.7048640000000006
21
-80.2298380000000009
0
LINE
8
BLACK
6
CONTINUOUS
10
97.7048640000000006
20
-80.2298380000000009
11
97.5143869999999993
21
-80.2298380000000009
0
LINE
8
BLACK
6
CONTINUOUS
10
97.5143869999999993
20
-80.2298380000000009
11
97.3239109999999954
21
-80.1345999999999918
0
LINE
8
BLACK
6
CONTINUOUS
10
97.3239109999999954
20
-80.1345999999999918
11
97.2286730000000006
21
-80.0393609999999995
0
LINE
8
BLACK
6
CONTINUOUS
10
97.2286730000000006
20
-80.0393609999999995
11
97.1334349999999915
21
-79.8488849999999957
0
LINE
8
BLACK
6
CONTINUOUS
10
97.1334349999999915
20
-79.8488849999999957
11
97.0381969999999967
21
-79.4679330000000022
0
LINE
8
BLACK
6
CONTINUOUS
10
97.0381969999999967
20
-79.4679330000000022
11
97.0381969999999967
21
-78.9917420000000021
0
LINE
8
BLACK
6
CONTINUOUS
10
97.0381969999999967
20
-78.9917420000000021
11
97.1334349999999915
21
-78.6107899999999944
0
LINE
8
BLACK
6
CONTINUOUS
10
97.1334349999999915
20
-78.6107899999999944
11
97.2286730000000006
21
-78.4203139999999905
0
LINE
8
BLACK
6
CONTINUOUS
10
97.2286730000000006
20
-78.4203139999999905
11
97.3239109999999954
21
-78.3250759999999957
0
LINE
8
BLACK
6
CONTINUOUS
10
97.3239109999999954
20
-78.3250759999999957
11
97.5143869999999993
21
-78.2298380000000009
0
LINE
8
BLACK
6
CONTINUOUS
10
99.0381969999999967
20
-80.2298380000000009
11
99.0381969999999967
21
-78.8965039999999931
0
LINE
8
BLACK
6
CONTINUOUS
10
99.0381969999999967
20
-79.0869799999999969
11
99.1334349999999915
21
-78.9917420000000021
0
LINE
8
BLACK
6
CONTINUOUS
10
99.1334349999999915
20
-78.9917420000000021
11
99.3239109999999954
21
-78.8965039999999931
0
LINE
8
BLACK
6
CONTINUOUS
10
99.3239109999999954
20
-78.8965039999999931
11
99.6096259999999916
21
-78.8965039999999931
0
LINE
8
BLACK
6
CONTINUOUS
10
99.6096259999999916
20
-78.8965039999999931
11
99.8001019999999954
21
-78.9917420000000021
0
LINE
8
BLACK
6
CONTINUOUS
10
99.8001019999999954
20
-78.9917420000000021
11
99.8953399999999903
21
-79.1822190000000035
0
LINE
8
BLACK
6
CONTINUOUS
10
99.8953399999999903
20
-79.1822190000000035
11
99.8953399999999903
21
-80.2298380000000009
0
LINE
8
BLACK
6
CONTINUOUS
10
99.8953399999999903
20
-79.1822190000000035
11
99.9905779999999993
21
-78.9917420000000021
0
LINE
8
BLACK
6
CONTINUOUS
10
99.9905779999999993
20
-78.9917420000000021
11
100.1810539999999889
21
-78.8965039999999931
0
LINE
8
BLACK
6
CONTINUOUS
10
100.1810539999999889
20
-78.8965039999999931
11
100.4667680000000018
21
-78.8965039999999931
0
LINE
8
BLACK
6
CONTINUOUS
10
100.4667680000000018
20
-78.8965039999999931
11
100.657244999999989
21
-78.9917420000000021
0
LINE
8
BLACK
6
CONTINUOUS
10
100.657244999999989
20
-78.9917420000000021
11
100.752482999999998
21
-79.1822190000000035
0
LINE
8
BLACK
6
CONTINUOUS
10
100.752482999999998
20
-79.1822190000000035
11
100.752482999999998
21
-80.2298380000000009
0
LINE
8
BLACK
6
CONTINUOUS
10
101.7048640000000006
20
-80.2298380000000009
11
101.7048640000000006
21
-78.8965039999999931
0
LINE
8
BLACK
6
CONTINUOUS
10
101.7048640000000006
20
-79.0869799999999969
11
101.8001019999999954
21
-78.9917420000000021
0
LINE
8
BLACK
6
CONTINUOUS
10
101.8001019999999954
20
-78.9917420000000021
11
101.9905779999999993
21
-78.8965039999999931
0
LINE
8
BLACK
6
CONTINUOUS
10
101.9905779999999993
20
-78.8965039999999931
11
102.2762929999999955
21
-78.8965039999999931
0
LINE
8
BLACK
6
CONTINUOUS
10
102.2762929999999955
20
-78.8965039999999931
11
102.4667689999999993
21
-78.9917420000000021
0
LINE
8
BLACK
6
CONTINUOUS
10
102.4667689999999993
20
-78.9917420000000021
11
102.5620069999999942
21
-79.1822190000000035
0
LINE
8
BLACK
6
CONTINUOUS
10
102.5620069999999942
20
-79.1822190000000035
11
102.5620069999999942
21
-80.2298380000000009
0
LINE
8
BLACK
6
CONTINUOUS
10
102.5620069999999942
20
-79.1822190000000035
11
102.657244999999989
21
-78.9917420000000021
0
LINE
8
BLACK
6
CONTINUOUS
10
102.657244999999989
20
-78.9917420000000021
11
102.8477209999999928
21
-78.8965039999999931
0
LINE
8
BLACK
6
CONTINUOUS
10
102.8477209999999928
20
-78.8965039999999931
11
103.1334349999999915
21
-78.8965039999999931
0
LINE
8
BLACK
6
CONTINUOUS
10
103.1334349999999915
20
-78.8965039999999931
11
103.3239119999999929
21
-78.9917420000000021
0
LINE
8
BLACK
6
CONTINUOUS
10
103.3239119999999929
20
-78.9917420000000021
11
103.4191500000000019
21
-79.1822190000000035
0
LINE
8
BLACK
6
CONTINUOUS
10
103.4191500000000019
20
-79.1822190000000035
11
103.4191500000000019
21
-80.2298380000000009
0
LINE
8
BLACK
6
CONTINUOUS
10
107.3239119999999929
20
-78.1345999999999918
11
105.609626999999989
21
-80.7060280000000034
0
LINE
8
BLACK
6
CONTINUOUS
10
109.8953410000000019
20
-78.2298380000000009
11
110.0858179999999891
21
-78.2298380000000009
0
LINE
8
BLACK
6
CONTINUOUS
10
110.0858179999999891
20
-78.2298380000000009
11
110.2762939999999929
21
-78.3250759999999957
0
LINE
8
BLACK
6
CONTINUOUS
10
110.2762939999999929
20
-78.3250759999999957
11
110.371532000000002
21
-78.4203139999999905
0
LINE
8
BLACK
6
CONTINUOUS
10
110.371532000000002
20
-78.4203139999999905
11
110.4667699999999968
21
-78.6107899999999944
0
LINE
8
BLACK
6
CONTINUOUS
10
110.4667699999999968
20
-78.6107899999999944
11
110.5620079999999916
21
-78.9917420000000021
0
LINE
8
BLACK
6
CONTINUOUS
10
110.5620079999999916
20
-78.9917420000000021
11
110.5620079999999916
21
-79.4679330000000022
0
LINE
8
BLACK
6
CONTINUOUS
10
110.5620079999999916
20
-79.4679330000000022
11
110.4667699999999968
21
-79.8488849999999957
0
LINE
8
BLACK
6
CONTINUOUS
10
110.4667699999999968
20
-79.8488849999999957
11
110.371532000000002
21
-80.0393609999999995
0
LINE
8
BLACK
6
CONTINUOUS
10
110.371532000000002
20
-80.0393609999999995
11
110.2762939999999929
21
-80.1345999999999918
0
LINE
8
BLACK
6
CONTINUOUS
10
110.2762939999999929
20
-80.1345999999999918
11
110.0858179999999891
21
-80.2298380000000009
0
LINE
8
BLACK
6
CONTINUOUS
10
110.0858179999999891
20
-80.2298380000000009
11
109.8953410000000019
21
-80.2298380000000009
0
LINE
8
BLACK
6
CONTINUOUS
10
109.8953410000000019
20
-80.2298380000000009
11
109.7048649999999981
21
-80.1345999999999918
0
LINE
8
BLACK
6
CONTINUOUS
10
109.7048649999999981
20
-80.1345999999999918
11
109.609626999999989
21
-80.0393609999999995
0
LINE
8
BLACK
6
CONTINUOUS
10
109.609626999999989
20
-80.0393609999999995
11
109.5143889999999942
21
-79.8488849999999957
0
LINE
8
BLACK
6
CONTINUOUS
10
109.5143889999999942
20
-79.8488849999999957
11
109.4191509999999994
21
-79.4679330000000022
0
LINE
8
BLACK
6
CONTINUOUS
10
109.4191509999999994
20
-79.4679330000000022
11
109.4191509999999994
21
-78.9917420000000021
0
LINE
8
BLACK
6
CONTINUOUS
10
109.4191509999999994
20
-78.9917420000000021
11
109.5143889999999942
21
-78.6107899999999944
0
LINE
8
BLACK
6
CONTINUOUS
10
109.5143889999999942
20
-78.6107899999999944
11
109.609626999999989
21
-78.4203139999999905
0
LINE
8
BLACK
6
CONTINUOUS
10
109.609626999999989
20
-78.4203139999999905
11
109.7048649999999981
21
-78.3250759999999957
0
LINE
8
BLACK
6
CONTINUOUS
10
109.7048649999999981
20
-78.3250759999999957
11
109.8953410000000019
21
-78.2298380000000009
0
LINE
8
BLACK
6
CONTINUOUS
10
111.4191509999999994
20
-80.0393609999999995
11
111.5143889999999942
21
-80.1345999999999918
0
LINE
8
BLACK
6
CONTINUOUS
10
111.5143889999999942
20
-80.1345999999999918
11
111.4191509999999994
21
-80.2298380000000009
0
LINE
8
BLACK
6
CONTINUOUS
10
111.4191509999999994
20
-80.2298380000000009
11
111.3239129999999903
21
-80.1345999999999918
0
LINE
8
BLACK
6
CONTINUOUS
10
111.3239129999999903
20
-80.1345999999999918
11
111.4191509999999994
21
-80.0393609999999995
0
LINE
8
BLACK
6
CONTINUOUS
10
111.4191509999999994
20
-80.0393609999999995
11
111.4191509999999994
21
-80.2298380000000009
0
LINE
8
BLACK
6
CONTINUOUS
10
112.7524839999999955
20
-78.2298380000000009
11
112.9429609999999968
21
-78.2298380000000009
0
LINE
8
BLACK
6
CONTINUOUS
10
112.9429609999999968
20
-78.2298380000000009
11
113.1334370000000007
21
-78.3250759999999957
0
LINE
8
BLACK
6
CONTINUOUS
10
113.1334370000000007
20
-78.3250759999999957
11
113.2286749999999955
21
-78.4203139999999905
0
LINE
8
BLACK
6
CONTINUOUS
10
113.2286749999999955
20
-78.4203139999999905
11
113.3239129999999903
21
-78.6107899999999944
0
LINE
8
BLACK
6
CONTINUOUS
10
113.3239129999999903
20
-78.6107899999999944
11
113.4191509999999994
21
-78.9917420000000021
0
LINE
8
BLACK
6
CONTINUOUS
10
113.4191509999999994
20
-78.9917420000000021
11
113.4191509999999994
21
-79.4679330000000022
0
LINE
8
BLACK
6
CONTINUOUS
10
113.4191509999999994
20
-79.4679330000000022
11
113.3239129999999903
21
-79.8488849999999957
0
LINE
8
BLACK
6
CONTINUOUS
10
113.3239129999999903
20
-79.8488849999999957
11
113.2286749999999955
21
-80.0393609999999995
0
LINE
8
BLACK
6
CONTINUOUS
10
113.2286749999999955
20
-80.0393609999999995
11
113.1334370000000007
21
-80.1345999999999918
0
LINE
8
BLACK
6
CONTINUOUS
10
113.1334370000000007
20
-80.1345999999999918
11
112.9429609999999968
21
-80.2298380000000009
0
LINE
8
BLACK
6
CONTINUOUS
10
112.9429609999999968
20
-80.2298380000000009
11
112.7524839999999955
21
-80.2298380000000009
0
LINE
8
BLACK
6
CONTINUOUS
10
112.7524839999999955
20
-80.2298380000000009
11
112.5620079999999916
21
-80.1345999999999918
0
LINE
8
BLACK
6
CONTINUOUS
10
112.5620079999999916
20
-80.1345999999999918
11
112.4667699999999968
21
-80.0393609999999995
0
LINE
8
BLACK
6
CONTINUOUS
10
112.4667699999999968
20
-80.0393609999999995
11
112.371532000000002
21
-79.8488849999999957
0
LINE
8
BLACK
6
CONTINUOUS
10
112.371532000000002
20
-79.8488849999999957
11
112.2762939999999929
21
-79.4679330000000022
0
LINE
8
BLACK
6
CONTINUOUS
10
112.2762939999999929
20
-79.4679330000000022
11
112.2762939999999929
21
-78.9917420000000021
0
LINE
8
BLACK
6
CONTINUOUS
10
112.2762939999999929
20
-78.9917420000000021
11
112.371532000000002
21
-78.6107899999999944
0
LINE
8
BLACK
6
CONTINUOUS
10
112.371532000000002
20
-78.6107899999999944
11
112.4667699999999968
21
-78.4203139999999905
0
LINE
8
BLACK
6
CONTINUOUS
10
112.4667699999999968
20
-78.4203139999999905
11
112.5620079999999916
21
-78.3250759999999957
0
LINE
8
BLACK
6
CONTINUOUS
10
112.5620079999999916
20
-78.3250759999999957
11
112.7524839999999955
21
-78.2298380000000009
0
LINE
8
BLACK
6
CONTINUOUS
10
114.0858179999999891
20
-78.2298380000000009
11
115.3239129999999903
21
-78.2298380000000009
0
LINE
8
BLACK
6
CONTINUOUS
10
115.3239129999999903
20
-78.2298380000000009
11
114.6572460000000007
21
-78.9917420000000021
0
LINE
8
BLACK
6
CONTINUOUS
10
114.6572460000000007
20
-78.9917420000000021
11
114.9429609999999968
21
-78.9917420000000021
0
LINE
8
BLACK
6
CONTINUOUS
10
114.9429609999999968
20
-78.9917420000000021
11
115.1334370000000007
21
-79.0869799999999969
0
LINE
8
BLACK
6
CONTINUOUS
10
115.1334370000000007
20
-79.0869799999999969
11
115.2286749999999955
21
-79.1822190000000035
0
LINE
8
BLACK
6
CONTINUOUS
10
115.2286749999999955
20
-79.1822190000000035
11
115.3239129999999903
21
-79.3726949999999931
0
LINE
8
BLACK
6
CONTINUOUS
10
115.3239129999999903
20
-79.3726949999999931
11
115.3239129999999903
21
-79.8488849999999957
0
LINE
8
BLACK
6
CONTINUOUS
10
115.3239129999999903
20
-79.8488849999999957
11
115.2286749999999955
21
-80.0393609999999995
0
LINE
8
BLACK
6
CONTINUOUS
10
115.2286749999999955
20
-80.0393609999999995
11
115.1334370000000007
21
-80.1345999999999918
0
LINE
8
BLACK
6
CONTINUOUS
10
115.1334370000000007
20
-80.1345999999999918
11
114.9429609999999968
21
-80.2298380000000009
0
LINE
8
BLACK
6
CONTINUOUS
10
114.9429609999999968
20
-80.2298380000000009
11
114.3715319999999878
21
-80.2298380000000009
0
LINE
8
BLACK
6
CONTINUOUS
10
114.3715319999999878
20
-80.2298380000000009
11
114.1810559999999981
21
-80.1345999999999918
0
LINE
8
BLACK
6
CONTINUOUS
10
114.1810559999999981
20
-80.1345999999999918
11
114.0858179999999891
21
-80.0393609999999995
0
LINE
8
BLACK
6
CONTINUOUS
10
116.2762939999999929
20
-80.2298380000000009
11
116.6572460000000007
21
-80.2298380000000009
0
LINE
8
BLACK
6
CONTINUOUS
10
116.6572460000000007
20
-80.2298380000000009
11
116.8477229999999878
21
-80.1345999999999918
0
LINE
8
BLACK
6
CONTINUOUS
10
116.8477229999999878
20
-80.1345999999999918
11
116.9429609999999968
21
-80.0393609999999995
0
LINE
8
BLACK
6
CONTINUOUS
10
116.9429609999999968
20
-80.0393609999999995
11
117.1334370000000007
21
-79.7536470000000008
0
LINE
8
BLACK
6
CONTINUOUS
10
117.1334370000000007
20
-79.7536470000000008
11
117.2286749999999955
21
-79.3726949999999931
0
LINE
8
BLACK
6
CONTINUOUS
10
117.2286749999999955
20
-79.3726949999999931
11
117.2286749999999955
21
-78.6107899999999944
0
LINE
8
BLACK
6
CONTINUOUS
10
117.2286749999999955
20
-78.6107899999999944
11
117.1334370000000007
21
-78.4203139999999905
0
LINE
8
BLACK
6
CONTINUOUS
10
117.1334370000000007
20
-78.4203139999999905
11
117.0381989999999917
21
-78.3250759999999957
0
LINE
8
BLACK
6
CONTINUOUS
10
117.0381989999999917
20
-78.3250759999999957
11
116.8477229999999878
21
-78.2298380000000009
0
LINE
8
BLACK
6
CONTINUOUS
10
116.8477229999999878
20
-78.2298380000000009
11
116.4667699999999968
21
-78.2298380000000009
0
LINE
8
BLACK
6
CONTINUOUS
10
116.4667699999999968
20
-78.2298380000000009
11
116.2762939999999929
21
-78.3250759999999957
0
LINE
8
BLACK
6
CONTINUOUS
10
116.2762939999999929
20
-78.3250759999999957
11
116.1810559999999981
21
-78.4203139999999905
0
LINE
8
BLACK
6
CONTINUOUS
10
116.1810559999999981
20
-78.4203139999999905
11
116.0858179999999891
21
-78.6107899999999944
0
LINE
8
BLACK
6
CONTINUOUS
10
116.0858179999999891
20
-78.6107899999999944
11
116.0858179999999891
21
-79.0869799999999969
0
LINE
8
BLACK
6
CONTINUOUS
10
116.0858179999999891
20
-79.0869799999999969
11
116.1810559999999981
21
-79.2774569999999983
0
LINE
8
BLACK
6
CONTINUOUS
10
116.1810559999999981
20
-79.2774569999999983
11
116.2762939999999929
21
-79.3726949999999931
0
LINE
8
BLACK
6
CONTINUOUS
10
116.2762939999999929
20
-79.3726949999999931
11
116.4667699999999968
21
-79.4679330000000022
0
LINE
8
BLACK
6
CONTINUOUS
10
116.4667699999999968
20
-79.4679330000000022
11
116.8477229999999878
21
-79.4679330000000022
0
LINE
8
BLACK
6
CONTINUOUS
10
116.8477229999999878
20
-79.4679330000000022
11
117.0381989999999917
21
-79.3726949999999931
0
LINE
8
BLACK
6
CONTINUOUS
10
117.0381989999999917
20
-79.3726949999999931
11
117.1334370000000007
21
-79.2774569999999983
0
LINE
8
BLACK
6
CONTINUOUS
10
117.1334370000000007
20
-79.2774569999999983
11
117.2286749999999955
21
-79.0869799999999969
0
LINE
8
BLACK
6
CONTINUOUS
10
118.9429609999999968
20
-78.8965039999999931
11
118.9429609999999968
21
-80.2298380000000009
0
LINE
8
BLACK
6
CONTINUOUS
10
118.4667699999999968
20
-78.1345999999999918
11
117.9905799999999942
21
-79.563170999999997
0
LINE
8
BLACK
6
CONTINUOUS
10
117.9905799999999942
20
-79.563170999999997
11
119.2286749999999955
21
-79.563170999999997
0
LINE
8
BLACK
6
CONTINUOUS
10
119.8953419999999994
20
-78.2298380000000009
11
119.8953419999999994
21
-78.6107899999999944
0
LINE
8
BLACK
6
CONTINUOUS
10
120.6572469999999981
20
-78.2298380000000009
11
120.6572469999999981
21
-78.6107899999999944
0
LINE
8
BLACK
6
CONTINUOUS
10
123.6096289999999982
20
-80.9917420000000021
11
123.5143899999999917
21
-80.8965039999999931
0
LINE
8
BLACK
6
CONTINUOUS
10
123.5143899999999917
20
-80.8965039999999931
11
123.3239139999999878
21
-80.6107899999999944
0
LINE
8
BLACK
6
CONTINUOUS
10
123.3239139999999878
20
-80.6107899999999944
11
123.228675999999993
21
-80.4203139999999905
0
LINE
8
BLACK
6
CONTINUOUS
10
123.228675999999993
20
-80.4203139999999905
11
123.1334379999999982
21
-80.1345999999999918
0
LINE
8
BLACK
6
CONTINUOUS
10
123.1334379999999982
20
-80.1345999999999918
11
123.0381999999999891
21
-79.6584089999999918
0
LINE
8
BLACK
6
CONTINUOUS
10
123.0381999999999891
20
-79.6584089999999918
11
123.0381999999999891
21
-79.2774569999999983
0
LINE
8
BLACK
6
CONTINUOUS
10
123.0381999999999891
20
-79.2774569999999983
11
123.1334379999999982
21
-78.8012659999999983
0
LINE
8
BLACK
6
CONTINUOUS
10
123.1334379999999982
20
-78.8012659999999983
11
123.228675999999993
21
-78.5155519999999996
0
LINE
8
BLACK
6
CONTINUOUS
10
123.228675999999993
20
-78.5155519999999996
11
123.3239139999999878
21
-78.3250759999999957
0
LINE
8
BLACK
6
CONTINUOUS
10
123.3239139999999878
20
-78.3250759999999957
11
123.5143899999999917
21
-78.0393609999999995
0
LINE
8
BLACK
6
CONTINUOUS
10
123.5143899999999917
20
-78.0393609999999995
11
123.6096289999999982
21
-77.9441229999999905
0
LINE
8
BLACK
6
CONTINUOUS
10
125.228675999999993
20
-78.2298380000000009
11
124.8477229999999878
21
-78.2298380000000009
0
LINE
8
BLACK
6
CONTINUOUS
10
124.8477229999999878
20
-78.2298380000000009
11
124.6572469999999981
21
-78.3250759999999957
0
LINE
8
BLACK
6
CONTINUOUS
10
124.6572469999999981
20
-78.3250759999999957
11
124.5620089999999891
21
-78.4203139999999905
0
LINE
8
BLACK
6
CONTINUOUS
10
124.5620089999999891
20
-78.4203139999999905
11
124.3715329999999994
21
-78.7060280000000034
0
LINE
8
BLACK
6
CONTINUOUS
10
124.3715329999999994
20
-78.7060280000000034
11
124.2762949999999904
21
-79.0869799999999969
0
LINE
8
BLACK
6
CONTINUOUS
10
124.2762949999999904
20
-79.0869799999999969
11
124.2762949999999904
21
-79.8488849999999957
0
LINE
8
BLACK
6
CONTINUOUS
10
124.2762949999999904
20
-79.8488849999999957
11
124.3715329999999994
21
-80.0393609999999995
0
LINE
8
BLACK
6
CONTINUOUS
10
124.3715329999999994
20
-80.0393609999999995
11
124.4667709999999943
21
-80.1345999999999918
0
LINE
8
BLACK
6
CONTINUOUS
10
124.4667709999999943
20
-80.1345999999999918
11
124.6572469999999981
21
-80.2298380000000009
0
LINE
8
BLACK
6
CONTINUOUS
10
124.6572469999999981
20
-80.2298380000000009
11
125.0381999999999891
21
-80.2298380000000009
0
LINE
8
BLACK
6
CONTINUOUS
10
125.0381999999999891
20
-80.2298380000000009
11
125.228675999999993
21
-80.1345999999999918
0
LINE
8
BLACK
6
CONTINUOUS
10
125.228675999999993
20
-80.1345999999999918
11
125.3239139999999878
21
-80.0393609999999995
0
LINE
8
BLACK
6
CONTINUOUS
10
125.3239139999999878
20
-80.0393609999999995
11
125.4191519999999969
21
-79.8488849999999957
0
LINE
8
BLACK
6
CONTINUOUS
10
125.4191519999999969
20
-79.8488849999999957
11
125.4191519999999969
21
-79.3726949999999931
0
LINE
8
BLACK
6
CONTINUOUS
10
125.4191519999999969
20
-79.3726949999999931
11
125.3239139999999878
21
-79.1822190000000035
0
LINE
8
BLACK
6
CONTINUOUS
10
125.3239139999999878
20
-79.1822190000000035
11
125.228675999999993
21
-79.0869799999999969
0
LINE
8
BLACK
6
CONTINUOUS
10
125.228675999999993
20
-79.0869799999999969
11
125.0381999999999891
21
-78.9917420000000021
0
LINE
8
BLACK
6
CONTINUOUS
10
125.0381999999999891
20
-78.9917420000000021
11
124.6572469999999981
21
-78.9917420000000021
0
LINE
8
BLACK
6
CONTINUOUS
10
124.6572469999999981
20
-78.9917420000000021
11
124.4667709999999943
21
-79.0869799999999969
0
LINE
8
BLACK
6
CONTINUOUS
10
124.4667709999999943
20
-79.0869799999999969
11
124.3715329999999994
21
-79.1822190000000035
0
LINE
8
BLACK
6
CONTINUOUS
10
124.3715329999999994
20
-79.1822190000000035
11
124.2762949999999904
21
-79.3726949999999931
0
LINE
8
BLACK
6
CONTINUOUS
10
127.8001049999999879
20
-80.2298380000000009
11
127.8001049999999879
21
-78.2298380000000009
0
LINE
8
BLACK
6
CONTINUOUS
10
128.6572479999999814
20
-80.2298380000000009
11
128.6572479999999814
21
-79.1822190000000035
0
LINE
8
BLACK
6
CONTINUOUS
10
128.6572479999999814
20
-79.1822190000000035
11
128.5620099999999866
21
-78.9917420000000021
0
LINE
8
BLACK
6
CONTINUOUS
10
128.5620099999999866
20
-78.9917420000000021
11
128.3715339999999969
21
-78.8965039999999931
0
LINE
8
BLACK
6
CONTINUOUS
10
128.3715339999999969
20
-78.8965039999999931
11
128.0858189999999865
21
-78.8965039999999931
0
LINE
8
BLACK
6
CONTINUOUS
10
128.0858189999999865
20
-78.8965039999999931
11
127.8953429999999969
21
-78.9917420000000021
0
LINE
8
BLACK
6
CONTINUOUS
10
127.8953429999999969
20
-78.9917420000000021
11
127.8001049999999879
21
-79.0869799999999969
0
LINE
8
BLACK
6
CONTINUOUS
10
129.8953429999999969
20
-80.2298380000000009
11
129.7048670000000072
21
-80.1345999999999918
0
LINE
8
BLACK
6
CONTINUOUS
10
129.7048670000000072
20
-80.1345999999999918
11
129.609628999999984
21
-80.0393609999999995
0
LINE
8
BLACK
6
CONTINUOUS
10
129.609628999999984
20
-80.0393609999999995
11
129.5143909999999892
21
-79.8488849999999957
0
LINE
8
BLACK
6
CONTINUOUS
10
129.5143909999999892
20
-79.8488849999999957
11
129.5143909999999892
21
-79.2774569999999983
0
LINE
8
BLACK
6
CONTINUOUS
10
129.5143909999999892
20
-79.2774569999999983
11
129.609628999999984
21
-79.0869799999999969
0
LINE
8
BLACK
6
CONTINUOUS
10
129.609628999999984
20
-79.0869799999999969
11
129.7048670000000072
21
-78.9917420000000021
0
LINE
8
BLACK
6
CONTINUOUS
10
129.7048670000000072
20
-78.9917420000000021
11
129.8953429999999969
21
-78.8965039999999931
0
LINE
8
BLACK
6
CONTINUOUS
10
129.8953429999999969
20
-78.8965039999999931
11
130.1810580000000073
21
-78.8965039999999931
0
LINE
8
BLACK
6
CONTINUOUS
10
130.1810580000000073
20
-78.8965039999999931
11
130.3715339999999969
21
-78.9917420000000021
0
LINE
8
BLACK
6
CONTINUOUS
10
130.3715339999999969
20
-78.9917420000000021
11
130.4667719999999917
21
-79.0869799999999969
0
LINE
8
BLACK
6
CONTINUOUS
10
130.4667719999999917
20
-79.0869799999999969
11
130.5620099999999866
21
-79.2774569999999983
0
LINE
8
BLACK
6
CONTINUOUS
10
130.5620099999999866
20
-79.2774569999999983
11
130.5620099999999866
21
-79.8488849999999957
0
LINE
8
BLACK
6
CONTINUOUS
10
130.5620099999999866
20
-79.8488849999999957
11
130.4667719999999917
21
-80.0393609999999995
0
LINE
8
BLACK
6
CONTINUOUS
10
130.4667719999999917
20
-80.0393609999999995
11
130.3715339999999969
21
-80.1345999999999918
0
LINE
8
BLACK
6
CONTINUOUS
10
130.3715339999999969
20
-80.1345999999999918
11
130.1810580000000073
21
-80.2298380000000009
0
LINE
8
BLACK
6
CONTINUOUS
10
130.1810580000000073
20
-80.2298380000000009
11
129.8953429999999969
21
-80.2298380000000009
0
LINE
8
BLACK
6
CONTINUOUS
10
131.7048670000000072
20
-80.2298380000000009
11
131.5143909999999892
21
-80.1345999999999918
0
LINE
8
BLACK
6
CONTINUOUS
10
131.5143909999999892
20
-80.1345999999999918
11
131.4191529999999943
21
-79.9441229999999905
0
LINE
8
BLACK
6
CONTINUOUS
10
131.4191529999999943
20
-79.9441229999999905
11
131.4191529999999943
21
-78.2298380000000009
0
LINE
8
BLACK
6
CONTINUOUS
10
133.2286770000000047
20
-80.1345999999999918
11
133.0382009999999866
21
-80.2298380000000009
0
LINE
8
BLACK
6
CONTINUOUS
10
133.0382009999999866
20
-80.2298380000000009
11
132.6572479999999814
21
-80.2298380000000009
0
LINE
8
BLACK
6
CONTINUOUS
10
132.6572479999999814
20
-80.2298380000000009
11
132.4667719999999917
21
-80.1345999999999918
0
LINE
8
BLACK
6
CONTINUOUS
10
132.4667719999999917
20
-80.1345999999999918
11
132.3715339999999969
21
-79.9441229999999905
0
LINE
8
BLACK
6
CONTINUOUS
10
132.3715339999999969
20
-79.9441229999999905
11
132.3715339999999969
21
-79.1822190000000035
0
LINE
8
BLACK
6
CONTINUOUS
10
132.3715339999999969
20
-79.1822190000000035
11
132.4667719999999917
21
-78.9917420000000021
0
LINE
8
BLACK
6
CONTINUOUS
10
132.4667719999999917
20
-78.9917420000000021
11
132.6572479999999814
21
-78.8965039999999931
0
LINE
8
BLACK
6
CONTINUOUS
10
132.6572479999999814
20
-78.8965039999999931
11
133.0382009999999866
21
-78.8965039999999931
0
LINE
8
BLACK
6
CONTINUOUS
10
133.0382009999999866
20
-78.8965039999999931
11
133.2286770000000047
21
-78.9917420000000021
0
LINE
8
BLACK
6
CONTINUOUS
10
133.2286770000000047
20
-78.9917420000000021
11
133.3239149999999995
21
-79.1822190000000035
0
LINE
8
BLACK
6
CONTINUOUS
10
133.3239149999999995
20
-79.1822190000000035
11
133.3239149999999995
21
-79.3726949999999931
0
LINE
8
BLACK
6
CONTINUOUS
10
133.3239149999999995
20
-79.3726949999999931
11
132.3715339999999969
21
-79.563170999999997
0
LINE
8
BLACK
6
CONTINUOUS
10
134.085819999999984
20
-80.1345999999999918
11
134.2762960000000021
21
-80.2298380000000009
0
LINE
8
BLACK
6
CONTINUOUS
10
134.2762960000000021
20
-80.2298380000000009
11
134.6572479999999814
21
-80.2298380000000009
0
LINE
8
BLACK
6
CONTINUOUS
10
134.6572479999999814
20
-80.2298380000000009
11
134.847724999999997
21
-80.1345999999999918
0
LINE
8
BLACK
6
CONTINUOUS
10
134.847724999999997
20
-80.1345999999999918
11
134.9429629999999918
21
-79.9441229999999905
0
LINE
8
BLACK
6
CONTINUOUS
10
134.9429629999999918
20
-79.9441229999999905
11
134.9429629999999918
21
-79.8488849999999957
0
LINE
8
BLACK
6
CONTINUOUS
10
134.9429629999999918
20
-79.8488849999999957
11
134.847724999999997
21
-79.6584089999999918
0
LINE
8
BLACK
6
CONTINUOUS
10
134.847724999999997
20
-79.6584089999999918
11
134.6572479999999814
21
-79.563170999999997
0
LINE
8
BLACK
6
CONTINUOUS
10
134.6572479999999814
20
-79.563170999999997
11
134.3715339999999969
21
-79.563170999999997
0
LINE
8
BLACK
6
CONTINUOUS
10
134.3715339999999969
20
-79.563170999999997
11
134.1810580000000073
21
-79.4679330000000022
0
LINE
8
BLACK
6
CONTINUOUS
10
134.1810580000000073
20
-79.4679330000000022
11
134.085819999999984
21
-79.2774569999999983
0
LINE
8
BLACK
6
CONTINUOUS
10
134.085819999999984
20
-79.2774569999999983
11
134.085819999999984
21
-79.1822190000000035
0
LINE
8
BLACK
6
CONTINUOUS
10
134.085819999999984
20
-79.1822190000000035
11
134.1810580000000073
21
-78.9917420000000021
0
LINE
8
BLACK
6
CONTINUOUS
10
134.1810580000000073
20
-78.9917420000000021
11
134.3715339999999969
21
-78.8965039999999931
0
LINE
8
BLACK
6
CONTINUOUS
10
134.3715339999999969
20
-78.8965039999999931
11
134.6572479999999814
21
-78.8965039999999931
0
LINE
8
BLACK
6
CONTINUOUS
10
134.6572479999999814
20
-78.8965039999999931
11
134.847724999999997
21
-78.9917420000000021
0
LINE
8
BLACK
6
CONTINUOUS
10
135.6096299999999815
20
-80.9917420000000021
11
135.7048680000000047
21
-80.8965039999999931
0
LINE
8
BLACK
6
CONTINUOUS
10
135.7048680000000047
20
-80.8965039999999931
11
135.8953439999999944
21
-80.6107899999999944
0
LINE
8
BLACK
6
CONTINUOUS
10
135.8953439999999944
20
-80.6107899999999944
11
135.9905819999999892
21
-80.4203139999999905
0
LINE
8
BLACK
6
CONTINUOUS
10
135.9905819999999892
20
-80.4203139999999905
11
136.085819999999984
21
-80.1345999999999918
0
LINE
8
BLACK
6
CONTINUOUS
10
136.085819999999984
20
-80.1345999999999918
11
136.1810580000000073
21
-79.6584089999999918
0
LINE
8
BLACK
6
CONTINUOUS
10
136.1810580000000073
20
-79.6584089999999918
11
136.1810580000000073
21
-79.2774569999999983
0
LINE
8
BLACK
6
CONTINUOUS
10
136.1810580000000073
20
-79.2774569999999983
11
136.085819999999984
21
-78.8012659999999983
0
LINE
8
BLACK
6
CONTINUOUS
10
136.085819999999984
20
-78.8012659999999983
11
135.9905819999999892
21
-78.5155519999999996
0
LINE
8
BLACK
6
CONTINUOUS
10
135.9905819999999892
20
-78.5155519999999996
11
135.8953439999999944
21
-78.3250759999999957
0
LINE
8
BLACK
6
CONTINUOUS
10
135.8953439999999944
20
-78.3250759999999957
11
135.7048680000000047
21
-78.0393609999999995
0
LINE
8
BLACK
6
CONTINUOUS
10
135.7048680000000047
20
-78.0393609999999995
11
135.6096299999999815
21
-77.9441229999999905
  0
ENDSEC
  0
EOF
