%TF.GenerationSoftware,KiCad,Pcbnew,7.0.9*%
%TF.CreationDate,2023-11-24T16:16:38+10:00*%
%TF.ProjectId,util_photoswitch,7574696c-5f70-4686-9f74-6f7377697463,rev?*%
%TF.SameCoordinates,Original*%
%TF.FileFunction,Copper,L2,Bot*%
%TF.FilePolarity,Positive*%
%FSLAX46Y46*%
G04 Gerber Fmt 4.6, Leading zero omitted, Abs format (unit mm)*
G04 Created by KiCad (PCBNEW 7.0.9) date 2023-11-24 16:16:38*
%MOMM*%
%LPD*%
G01*
G04 APERTURE LIST*
%TA.AperFunction,ComponentPad*%
%ADD10R,1.700000X1.700000*%
%TD*%
%TA.AperFunction,ComponentPad*%
%ADD11O,1.700000X1.700000*%
%TD*%
%TA.AperFunction,ComponentPad*%
%ADD12C,1.600000*%
%TD*%
%TA.AperFunction,ComponentPad*%
%ADD13O,1.600000X1.600000*%
%TD*%
%TA.AperFunction,ComponentPad*%
%ADD14C,1.200000*%
%TD*%
%TA.AperFunction,Conductor*%
%ADD15C,0.250000*%
%TD*%
G04 APERTURE END LIST*
D10*
%TO.P,J2,1,Pin_1*%
%TO.N,+5V*%
X90678000Y-56642000D03*
D11*
%TO.P,J2,2,Pin_2*%
%TO.N,Net-(J1-Pin_2)*%
X93218000Y-56642000D03*
%TO.P,J2,3,Pin_3*%
%TO.N,GND*%
X95758000Y-56642000D03*
%TD*%
D10*
%TO.P,J1,1,Pin_1*%
%TO.N,+5V*%
X101797000Y-56657000D03*
D11*
%TO.P,J1,2,Pin_2*%
%TO.N,Net-(J1-Pin_2)*%
X101797000Y-59197000D03*
%TO.P,J1,3,Pin_3*%
%TO.N,GND*%
X101797000Y-61737000D03*
%TD*%
D12*
%TO.P,R1,1*%
%TO.N,Net-(U1-A)*%
X89408000Y-60960000D03*
D13*
%TO.P,R1,2*%
%TO.N,+5V*%
X97028000Y-60960000D03*
%TD*%
D14*
%TO.P,U1,1,A*%
%TO.N,Net-(U1-A)*%
X89407980Y-65749800D03*
%TO.P,U1,2,K*%
%TO.N,GND*%
X89407980Y-68289800D03*
%TO.P,U1,3,VCC*%
%TO.N,+5V*%
X96392980Y-68924800D03*
%TO.P,U1,4,VOUT*%
%TO.N,Net-(J1-Pin_2)*%
X96392980Y-67019800D03*
%TO.P,U1,5,GND*%
%TO.N,GND*%
X96392980Y-65114800D03*
%TD*%
D15*
%TO.N,+5V*%
X101281000Y-57832300D02*
X101797000Y-57832300D01*
X98153300Y-60960000D02*
X101281000Y-57832300D01*
X101797000Y-56657000D02*
X101797000Y-57832300D01*
X97590700Y-60960000D02*
X98153300Y-60960000D01*
X97590700Y-60960000D02*
X97028000Y-60960000D01*
X91853300Y-57009300D02*
X91853300Y-56642000D01*
X95804000Y-60960000D02*
X91853300Y-57009300D01*
X97028000Y-60960000D02*
X95804000Y-60960000D01*
X90678000Y-56642000D02*
X91853300Y-56642000D01*
%TO.N,Net-(J1-Pin_2)*%
X95461200Y-64357500D02*
X100621700Y-59197000D01*
X95461200Y-66088000D02*
X95461200Y-64357500D01*
X96393000Y-67019800D02*
X95461200Y-66088000D01*
X101797000Y-59197000D02*
X100621700Y-59197000D01*
%TO.N,GND*%
X99770800Y-61737000D02*
X101797000Y-61737000D01*
X96393000Y-65114800D02*
X99770800Y-61737000D01*
%TD*%
M02*
