%TF.GenerationSoftware,KiCad,Pcbnew,(6.0.7-1)-1*%
%TF.CreationDate,2023-11-11T10:51:09+10:00*%
%TF.ProjectId,Simmeters Small Engine Replacement,53696d6d-6574-4657-9273-20536d616c6c,rev?*%
%TF.SameCoordinates,Original*%
%TF.FileFunction,Legend,Top*%
%TF.FilePolarity,Positive*%
%FSLAX46Y46*%
G04 Gerber Fmt 4.6, Leading zero omitted, Abs format (unit mm)*
G04 Created by KiCad (PCBNEW (6.0.7-1)-1) date 2023-11-11 10:51:09*
%MOMM*%
%LPD*%
G01*
G04 APERTURE LIST*
%ADD10C,0.150000*%
%ADD11C,0.100000*%
%ADD12C,0.120000*%
G04 APERTURE END LIST*
D10*
X152690276Y-109889335D02*
X152833134Y-109936954D01*
X153071229Y-109936954D01*
X153166467Y-109889335D01*
X153214086Y-109841716D01*
X153261705Y-109746478D01*
X153261705Y-109651240D01*
X153214086Y-109556002D01*
X153166467Y-109508383D01*
X153071229Y-109460764D01*
X152880753Y-109413145D01*
X152785515Y-109365526D01*
X152737895Y-109317907D01*
X152690276Y-109222669D01*
X152690276Y-109127431D01*
X152737895Y-109032193D01*
X152785515Y-108984574D01*
X152880753Y-108936954D01*
X153118848Y-108936954D01*
X153261705Y-108984574D01*
X153690276Y-109936954D02*
X153690276Y-108936954D01*
X154166467Y-109936954D02*
X154166467Y-108936954D01*
X154499800Y-109651240D01*
X154833134Y-108936954D01*
X154833134Y-109936954D01*
X155309324Y-109936954D02*
X155309324Y-108936954D01*
X155642657Y-109651240D01*
X155975991Y-108936954D01*
X155975991Y-109936954D01*
X156452181Y-109413145D02*
X156785515Y-109413145D01*
X156928372Y-109936954D02*
X156452181Y-109936954D01*
X156452181Y-108936954D01*
X156928372Y-108936954D01*
X157214086Y-108936954D02*
X157785515Y-108936954D01*
X157499800Y-109936954D02*
X157499800Y-108936954D01*
X158118848Y-109413145D02*
X158452181Y-109413145D01*
X158595038Y-109936954D02*
X158118848Y-109936954D01*
X158118848Y-108936954D01*
X158595038Y-108936954D01*
X159595038Y-109936954D02*
X159261705Y-109460764D01*
X159023610Y-109936954D02*
X159023610Y-108936954D01*
X159404562Y-108936954D01*
X159499800Y-108984574D01*
X159547419Y-109032193D01*
X159595038Y-109127431D01*
X159595038Y-109270288D01*
X159547419Y-109365526D01*
X159499800Y-109413145D01*
X159404562Y-109460764D01*
X159023610Y-109460764D01*
X159975991Y-109889335D02*
X160118848Y-109936954D01*
X160356943Y-109936954D01*
X160452181Y-109889335D01*
X160499800Y-109841716D01*
X160547419Y-109746478D01*
X160547419Y-109651240D01*
X160499800Y-109556002D01*
X160452181Y-109508383D01*
X160356943Y-109460764D01*
X160166467Y-109413145D01*
X160071229Y-109365526D01*
X160023610Y-109317907D01*
X159975991Y-109222669D01*
X159975991Y-109127431D01*
X160023610Y-109032193D01*
X160071229Y-108984574D01*
X160166467Y-108936954D01*
X160404562Y-108936954D01*
X160547419Y-108984574D01*
X161690276Y-109889335D02*
X161833134Y-109936954D01*
X162071229Y-109936954D01*
X162166467Y-109889335D01*
X162214086Y-109841716D01*
X162261705Y-109746478D01*
X162261705Y-109651240D01*
X162214086Y-109556002D01*
X162166467Y-109508383D01*
X162071229Y-109460764D01*
X161880753Y-109413145D01*
X161785515Y-109365526D01*
X161737895Y-109317907D01*
X161690276Y-109222669D01*
X161690276Y-109127431D01*
X161737895Y-109032193D01*
X161785515Y-108984574D01*
X161880753Y-108936954D01*
X162118848Y-108936954D01*
X162261705Y-108984574D01*
X162690276Y-109936954D02*
X162690276Y-108936954D01*
X163023610Y-109651240D01*
X163356943Y-108936954D01*
X163356943Y-109936954D01*
X163785515Y-109651240D02*
X164261705Y-109651240D01*
X163690276Y-109936954D02*
X164023610Y-108936954D01*
X164356943Y-109936954D01*
X165166467Y-109936954D02*
X164690276Y-109936954D01*
X164690276Y-108936954D01*
X165975991Y-109936954D02*
X165499800Y-109936954D01*
X165499800Y-108936954D01*
X156833134Y-111023145D02*
X157166467Y-111023145D01*
X157309324Y-111546954D02*
X156833134Y-111546954D01*
X156833134Y-110546954D01*
X157309324Y-110546954D01*
X157737895Y-111546954D02*
X157737895Y-110546954D01*
X158309324Y-111546954D01*
X158309324Y-110546954D01*
X159309324Y-110594574D02*
X159214086Y-110546954D01*
X159071229Y-110546954D01*
X158928372Y-110594574D01*
X158833134Y-110689812D01*
X158785515Y-110785050D01*
X158737895Y-110975526D01*
X158737895Y-111118383D01*
X158785515Y-111308859D01*
X158833134Y-111404097D01*
X158928372Y-111499335D01*
X159071229Y-111546954D01*
X159166467Y-111546954D01*
X159309324Y-111499335D01*
X159356943Y-111451716D01*
X159356943Y-111118383D01*
X159166467Y-111118383D01*
X159785515Y-111546954D02*
X159785515Y-110546954D01*
X160261705Y-111546954D02*
X160261705Y-110546954D01*
X160833134Y-111546954D01*
X160833134Y-110546954D01*
X161309324Y-111023145D02*
X161642657Y-111023145D01*
X161785515Y-111546954D02*
X161309324Y-111546954D01*
X161309324Y-110546954D01*
X161785515Y-110546954D01*
X154928372Y-113156954D02*
X154595038Y-112680764D01*
X154356943Y-113156954D02*
X154356943Y-112156954D01*
X154737895Y-112156954D01*
X154833134Y-112204574D01*
X154880753Y-112252193D01*
X154928372Y-112347431D01*
X154928372Y-112490288D01*
X154880753Y-112585526D01*
X154833134Y-112633145D01*
X154737895Y-112680764D01*
X154356943Y-112680764D01*
X155356943Y-112633145D02*
X155690276Y-112633145D01*
X155833134Y-113156954D02*
X155356943Y-113156954D01*
X155356943Y-112156954D01*
X155833134Y-112156954D01*
X156261705Y-113156954D02*
X156261705Y-112156954D01*
X156642657Y-112156954D01*
X156737895Y-112204574D01*
X156785515Y-112252193D01*
X156833134Y-112347431D01*
X156833134Y-112490288D01*
X156785515Y-112585526D01*
X156737895Y-112633145D01*
X156642657Y-112680764D01*
X156261705Y-112680764D01*
X157737895Y-113156954D02*
X157261705Y-113156954D01*
X157261705Y-112156954D01*
X158023610Y-112871240D02*
X158499800Y-112871240D01*
X157928372Y-113156954D02*
X158261705Y-112156954D01*
X158595038Y-113156954D01*
X159499800Y-113061716D02*
X159452181Y-113109335D01*
X159309324Y-113156954D01*
X159214086Y-113156954D01*
X159071229Y-113109335D01*
X158975991Y-113014097D01*
X158928372Y-112918859D01*
X158880753Y-112728383D01*
X158880753Y-112585526D01*
X158928372Y-112395050D01*
X158975991Y-112299812D01*
X159071229Y-112204574D01*
X159214086Y-112156954D01*
X159309324Y-112156954D01*
X159452181Y-112204574D01*
X159499800Y-112252193D01*
X159928372Y-112633145D02*
X160261705Y-112633145D01*
X160404562Y-113156954D02*
X159928372Y-113156954D01*
X159928372Y-112156954D01*
X160404562Y-112156954D01*
X160833134Y-113156954D02*
X160833134Y-112156954D01*
X161166467Y-112871240D01*
X161499800Y-112156954D01*
X161499800Y-113156954D01*
X161975991Y-112633145D02*
X162309324Y-112633145D01*
X162452181Y-113156954D02*
X161975991Y-113156954D01*
X161975991Y-112156954D01*
X162452181Y-112156954D01*
X162880753Y-113156954D02*
X162880753Y-112156954D01*
X163452181Y-113156954D01*
X163452181Y-112156954D01*
X163785515Y-112156954D02*
X164356943Y-112156954D01*
X164071229Y-113156954D02*
X164071229Y-112156954D01*
X196792181Y-90441716D02*
X196744562Y-90489335D01*
X196601705Y-90536954D01*
X196506467Y-90536954D01*
X196363610Y-90489335D01*
X196268372Y-90394097D01*
X196220753Y-90298859D01*
X196173134Y-90108383D01*
X196173134Y-89965526D01*
X196220753Y-89775050D01*
X196268372Y-89679812D01*
X196363610Y-89584574D01*
X196506467Y-89536954D01*
X196601705Y-89536954D01*
X196744562Y-89584574D01*
X196792181Y-89632193D01*
X197411229Y-89536954D02*
X197601705Y-89536954D01*
X197696943Y-89584574D01*
X197792181Y-89679812D01*
X197839800Y-89870288D01*
X197839800Y-90203621D01*
X197792181Y-90394097D01*
X197696943Y-90489335D01*
X197601705Y-90536954D01*
X197411229Y-90536954D01*
X197315991Y-90489335D01*
X197220753Y-90394097D01*
X197173134Y-90203621D01*
X197173134Y-89870288D01*
X197220753Y-89679812D01*
X197315991Y-89584574D01*
X197411229Y-89536954D01*
X198268372Y-90536954D02*
X198268372Y-89536954D01*
X199220753Y-90536954D02*
X198744562Y-90536954D01*
X198744562Y-89536954D01*
X199982657Y-89870288D02*
X199982657Y-90536954D01*
X199744562Y-89489335D02*
X199506467Y-90203621D01*
X200125515Y-90203621D01*
X161552181Y-103001716D02*
X161504562Y-103049335D01*
X161361705Y-103096954D01*
X161266467Y-103096954D01*
X161123610Y-103049335D01*
X161028372Y-102954097D01*
X160980753Y-102858859D01*
X160933134Y-102668383D01*
X160933134Y-102525526D01*
X160980753Y-102335050D01*
X161028372Y-102239812D01*
X161123610Y-102144574D01*
X161266467Y-102096954D01*
X161361705Y-102096954D01*
X161504562Y-102144574D01*
X161552181Y-102192193D01*
X162171229Y-102096954D02*
X162361705Y-102096954D01*
X162456943Y-102144574D01*
X162552181Y-102239812D01*
X162599800Y-102430288D01*
X162599800Y-102763621D01*
X162552181Y-102954097D01*
X162456943Y-103049335D01*
X162361705Y-103096954D01*
X162171229Y-103096954D01*
X162075991Y-103049335D01*
X161980753Y-102954097D01*
X161933134Y-102763621D01*
X161933134Y-102430288D01*
X161980753Y-102239812D01*
X162075991Y-102144574D01*
X162171229Y-102096954D01*
X163028372Y-103096954D02*
X163028372Y-102096954D01*
X163980753Y-103096954D02*
X163504562Y-103096954D01*
X163504562Y-102096954D01*
X164266467Y-102192193D02*
X164314086Y-102144574D01*
X164409324Y-102096954D01*
X164647419Y-102096954D01*
X164742657Y-102144574D01*
X164790276Y-102192193D01*
X164837895Y-102287431D01*
X164837895Y-102382669D01*
X164790276Y-102525526D01*
X164218848Y-103096954D01*
X164837895Y-103096954D01*
X161022181Y-90541716D02*
X160974562Y-90589335D01*
X160831705Y-90636954D01*
X160736467Y-90636954D01*
X160593610Y-90589335D01*
X160498372Y-90494097D01*
X160450753Y-90398859D01*
X160403134Y-90208383D01*
X160403134Y-90065526D01*
X160450753Y-89875050D01*
X160498372Y-89779812D01*
X160593610Y-89684574D01*
X160736467Y-89636954D01*
X160831705Y-89636954D01*
X160974562Y-89684574D01*
X161022181Y-89732193D01*
X161641229Y-89636954D02*
X161831705Y-89636954D01*
X161926943Y-89684574D01*
X162022181Y-89779812D01*
X162069800Y-89970288D01*
X162069800Y-90303621D01*
X162022181Y-90494097D01*
X161926943Y-90589335D01*
X161831705Y-90636954D01*
X161641229Y-90636954D01*
X161545991Y-90589335D01*
X161450753Y-90494097D01*
X161403134Y-90303621D01*
X161403134Y-89970288D01*
X161450753Y-89779812D01*
X161545991Y-89684574D01*
X161641229Y-89636954D01*
X162498372Y-90636954D02*
X162498372Y-89636954D01*
X163450753Y-90636954D02*
X162974562Y-90636954D01*
X162974562Y-89636954D01*
X164307895Y-90636954D02*
X163736467Y-90636954D01*
X164022181Y-90636954D02*
X164022181Y-89636954D01*
X163926943Y-89779812D01*
X163831705Y-89875050D01*
X163736467Y-89922669D01*
X196332181Y-98301716D02*
X196284562Y-98349335D01*
X196141705Y-98396954D01*
X196046467Y-98396954D01*
X195903610Y-98349335D01*
X195808372Y-98254097D01*
X195760753Y-98158859D01*
X195713134Y-97968383D01*
X195713134Y-97825526D01*
X195760753Y-97635050D01*
X195808372Y-97539812D01*
X195903610Y-97444574D01*
X196046467Y-97396954D01*
X196141705Y-97396954D01*
X196284562Y-97444574D01*
X196332181Y-97492193D01*
X196951229Y-97396954D02*
X197141705Y-97396954D01*
X197236943Y-97444574D01*
X197332181Y-97539812D01*
X197379800Y-97730288D01*
X197379800Y-98063621D01*
X197332181Y-98254097D01*
X197236943Y-98349335D01*
X197141705Y-98396954D01*
X196951229Y-98396954D01*
X196855991Y-98349335D01*
X196760753Y-98254097D01*
X196713134Y-98063621D01*
X196713134Y-97730288D01*
X196760753Y-97539812D01*
X196855991Y-97444574D01*
X196951229Y-97396954D01*
X197808372Y-98396954D02*
X197808372Y-97396954D01*
X198760753Y-98396954D02*
X198284562Y-98396954D01*
X198284562Y-97396954D01*
X198998848Y-97396954D02*
X199617895Y-97396954D01*
X199284562Y-97777907D01*
X199427419Y-97777907D01*
X199522657Y-97825526D01*
X199570276Y-97873145D01*
X199617895Y-97968383D01*
X199617895Y-98206478D01*
X199570276Y-98301716D01*
X199522657Y-98349335D01*
X199427419Y-98396954D01*
X199141705Y-98396954D01*
X199046467Y-98349335D01*
X198998848Y-98301716D01*
X186476943Y-123263502D02*
X186429324Y-123406359D01*
X186381705Y-123453978D01*
X186286467Y-123501597D01*
X186143610Y-123501597D01*
X186048372Y-123453978D01*
X186000753Y-123406359D01*
X185953134Y-123311121D01*
X185953134Y-122930169D01*
X186953134Y-122930169D01*
X186953134Y-123263502D01*
X186905515Y-123358740D01*
X186857895Y-123406359D01*
X186762657Y-123453978D01*
X186667419Y-123453978D01*
X186572181Y-123406359D01*
X186524562Y-123358740D01*
X186476943Y-123263502D01*
X186476943Y-122930169D01*
X185953134Y-123930169D02*
X186953134Y-123930169D01*
X185953134Y-124501597D02*
X186524562Y-124073026D01*
X186953134Y-124501597D02*
X186381705Y-123930169D01*
X185953134Y-125406359D02*
X185953134Y-124930169D01*
X186953134Y-124930169D01*
X186905515Y-126263502D02*
X186953134Y-126168264D01*
X186953134Y-126025407D01*
X186905515Y-125882550D01*
X186810276Y-125787312D01*
X186715038Y-125739693D01*
X186524562Y-125692074D01*
X186381705Y-125692074D01*
X186191229Y-125739693D01*
X186095991Y-125787312D01*
X186000753Y-125882550D01*
X185953134Y-126025407D01*
X185953134Y-126120645D01*
X186000753Y-126263502D01*
X186048372Y-126311121D01*
X186381705Y-126311121D01*
X186381705Y-126120645D01*
X186953134Y-126596835D02*
X186953134Y-127168264D01*
X185953134Y-126882550D02*
X186953134Y-126882550D01*
X186905515Y-128787312D02*
X186953134Y-128692074D01*
X186953134Y-128549216D01*
X186905515Y-128406359D01*
X186810276Y-128311121D01*
X186715038Y-128263502D01*
X186524562Y-128215883D01*
X186381705Y-128215883D01*
X186191229Y-128263502D01*
X186095991Y-128311121D01*
X186000753Y-128406359D01*
X185953134Y-128549216D01*
X185953134Y-128644454D01*
X186000753Y-128787312D01*
X186048372Y-128834931D01*
X186381705Y-128834931D01*
X186381705Y-128644454D01*
X185953134Y-129263502D02*
X186953134Y-129263502D01*
X185953134Y-129834931D01*
X186953134Y-129834931D01*
X185953134Y-130311121D02*
X186953134Y-130311121D01*
X186953134Y-130549216D01*
X186905515Y-130692074D01*
X186810276Y-130787312D01*
X186715038Y-130834931D01*
X186524562Y-130882550D01*
X186381705Y-130882550D01*
X186191229Y-130834931D01*
X186095991Y-130787312D01*
X186000753Y-130692074D01*
X185953134Y-130549216D01*
X185953134Y-130311121D01*
X184661943Y-124150288D02*
X184614324Y-124293145D01*
X184566705Y-124340764D01*
X184471467Y-124388383D01*
X184328610Y-124388383D01*
X184233372Y-124340764D01*
X184185753Y-124293145D01*
X184138134Y-124197907D01*
X184138134Y-123816954D01*
X185138134Y-123816954D01*
X185138134Y-124150288D01*
X185090515Y-124245526D01*
X185042895Y-124293145D01*
X184947657Y-124340764D01*
X184852419Y-124340764D01*
X184757181Y-124293145D01*
X184709562Y-124245526D01*
X184661943Y-124150288D01*
X184661943Y-123816954D01*
X184138134Y-124816954D02*
X185138134Y-124816954D01*
X184138134Y-125388383D02*
X184709562Y-124959812D01*
X185138134Y-125388383D02*
X184566705Y-124816954D01*
X184138134Y-126293145D02*
X184138134Y-125816954D01*
X185138134Y-125816954D01*
X185090515Y-127150288D02*
X185138134Y-127055050D01*
X185138134Y-126912193D01*
X185090515Y-126769335D01*
X184995276Y-126674097D01*
X184900038Y-126626478D01*
X184709562Y-126578859D01*
X184566705Y-126578859D01*
X184376229Y-126626478D01*
X184280991Y-126674097D01*
X184185753Y-126769335D01*
X184138134Y-126912193D01*
X184138134Y-127007431D01*
X184185753Y-127150288D01*
X184233372Y-127197907D01*
X184566705Y-127197907D01*
X184566705Y-127007431D01*
X185138134Y-127483621D02*
X185138134Y-128055050D01*
X184138134Y-127769335D02*
X185138134Y-127769335D01*
X182909086Y-124102669D02*
X182909086Y-124864574D01*
X182528134Y-124483621D02*
X183290038Y-124483621D01*
X182528134Y-125864574D02*
X182528134Y-125293145D01*
X182528134Y-125578859D02*
X183528134Y-125578859D01*
X183385276Y-125483621D01*
X183290038Y-125388383D01*
X183242419Y-125293145D01*
X183432895Y-126245526D02*
X183480515Y-126293145D01*
X183528134Y-126388383D01*
X183528134Y-126626478D01*
X183480515Y-126721716D01*
X183432895Y-126769335D01*
X183337657Y-126816954D01*
X183242419Y-126816954D01*
X183099562Y-126769335D01*
X182528134Y-126197907D01*
X182528134Y-126816954D01*
X183528134Y-127102669D02*
X182528134Y-127436002D01*
X183528134Y-127769335D01*
X180918372Y-123551240D02*
X180870753Y-123503621D01*
X180823134Y-123360764D01*
X180823134Y-123265526D01*
X180870753Y-123122669D01*
X180965991Y-123027431D01*
X181061229Y-122979812D01*
X181251705Y-122932193D01*
X181394562Y-122932193D01*
X181585038Y-122979812D01*
X181680276Y-123027431D01*
X181775515Y-123122669D01*
X181823134Y-123265526D01*
X181823134Y-123360764D01*
X181775515Y-123503621D01*
X181727895Y-123551240D01*
X181823134Y-124170288D02*
X181823134Y-124360764D01*
X181775515Y-124456002D01*
X181680276Y-124551240D01*
X181489800Y-124598859D01*
X181156467Y-124598859D01*
X180965991Y-124551240D01*
X180870753Y-124456002D01*
X180823134Y-124360764D01*
X180823134Y-124170288D01*
X180870753Y-124075050D01*
X180965991Y-123979812D01*
X181156467Y-123932193D01*
X181489800Y-123932193D01*
X181680276Y-123979812D01*
X181775515Y-124075050D01*
X181823134Y-124170288D01*
X180823134Y-125027431D02*
X181823134Y-125027431D01*
X180823134Y-125979812D02*
X180823134Y-125503621D01*
X181823134Y-125503621D01*
X181489800Y-126741716D02*
X180823134Y-126741716D01*
X181870753Y-126503621D02*
X181156467Y-126265526D01*
X181156467Y-126884574D01*
X178388372Y-123621240D02*
X178340753Y-123573621D01*
X178293134Y-123430764D01*
X178293134Y-123335526D01*
X178340753Y-123192669D01*
X178435991Y-123097431D01*
X178531229Y-123049812D01*
X178721705Y-123002193D01*
X178864562Y-123002193D01*
X179055038Y-123049812D01*
X179150276Y-123097431D01*
X179245515Y-123192669D01*
X179293134Y-123335526D01*
X179293134Y-123430764D01*
X179245515Y-123573621D01*
X179197895Y-123621240D01*
X179293134Y-124240288D02*
X179293134Y-124430764D01*
X179245515Y-124526002D01*
X179150276Y-124621240D01*
X178959800Y-124668859D01*
X178626467Y-124668859D01*
X178435991Y-124621240D01*
X178340753Y-124526002D01*
X178293134Y-124430764D01*
X178293134Y-124240288D01*
X178340753Y-124145050D01*
X178435991Y-124049812D01*
X178626467Y-124002193D01*
X178959800Y-124002193D01*
X179150276Y-124049812D01*
X179245515Y-124145050D01*
X179293134Y-124240288D01*
X178293134Y-125097431D02*
X179293134Y-125097431D01*
X178293134Y-126049812D02*
X178293134Y-125573621D01*
X179293134Y-125573621D01*
X179293134Y-126287907D02*
X179293134Y-126906954D01*
X178912181Y-126573621D01*
X178912181Y-126716478D01*
X178864562Y-126811716D01*
X178816943Y-126859335D01*
X178721705Y-126906954D01*
X178483610Y-126906954D01*
X178388372Y-126859335D01*
X178340753Y-126811716D01*
X178293134Y-126716478D01*
X178293134Y-126430764D01*
X178340753Y-126335526D01*
X178388372Y-126287907D01*
X175808372Y-123621240D02*
X175760753Y-123573621D01*
X175713134Y-123430764D01*
X175713134Y-123335526D01*
X175760753Y-123192669D01*
X175855991Y-123097431D01*
X175951229Y-123049812D01*
X176141705Y-123002193D01*
X176284562Y-123002193D01*
X176475038Y-123049812D01*
X176570276Y-123097431D01*
X176665515Y-123192669D01*
X176713134Y-123335526D01*
X176713134Y-123430764D01*
X176665515Y-123573621D01*
X176617895Y-123621240D01*
X176713134Y-124240288D02*
X176713134Y-124430764D01*
X176665515Y-124526002D01*
X176570276Y-124621240D01*
X176379800Y-124668859D01*
X176046467Y-124668859D01*
X175855991Y-124621240D01*
X175760753Y-124526002D01*
X175713134Y-124430764D01*
X175713134Y-124240288D01*
X175760753Y-124145050D01*
X175855991Y-124049812D01*
X176046467Y-124002193D01*
X176379800Y-124002193D01*
X176570276Y-124049812D01*
X176665515Y-124145050D01*
X176713134Y-124240288D01*
X175713134Y-125097431D02*
X176713134Y-125097431D01*
X175713134Y-126049812D02*
X175713134Y-125573621D01*
X176713134Y-125573621D01*
X176617895Y-126335526D02*
X176665515Y-126383145D01*
X176713134Y-126478383D01*
X176713134Y-126716478D01*
X176665515Y-126811716D01*
X176617895Y-126859335D01*
X176522657Y-126906954D01*
X176427419Y-126906954D01*
X176284562Y-126859335D01*
X175713134Y-126287907D01*
X175713134Y-126906954D01*
X173418372Y-123581240D02*
X173370753Y-123533621D01*
X173323134Y-123390764D01*
X173323134Y-123295526D01*
X173370753Y-123152669D01*
X173465991Y-123057431D01*
X173561229Y-123009812D01*
X173751705Y-122962193D01*
X173894562Y-122962193D01*
X174085038Y-123009812D01*
X174180276Y-123057431D01*
X174275515Y-123152669D01*
X174323134Y-123295526D01*
X174323134Y-123390764D01*
X174275515Y-123533621D01*
X174227895Y-123581240D01*
X174323134Y-124200288D02*
X174323134Y-124390764D01*
X174275515Y-124486002D01*
X174180276Y-124581240D01*
X173989800Y-124628859D01*
X173656467Y-124628859D01*
X173465991Y-124581240D01*
X173370753Y-124486002D01*
X173323134Y-124390764D01*
X173323134Y-124200288D01*
X173370753Y-124105050D01*
X173465991Y-124009812D01*
X173656467Y-123962193D01*
X173989800Y-123962193D01*
X174180276Y-124009812D01*
X174275515Y-124105050D01*
X174323134Y-124200288D01*
X173323134Y-125057431D02*
X174323134Y-125057431D01*
X173323134Y-126009812D02*
X173323134Y-125533621D01*
X174323134Y-125533621D01*
X173323134Y-126866954D02*
X173323134Y-126295526D01*
X173323134Y-126581240D02*
X174323134Y-126581240D01*
X174180276Y-126486002D01*
X174085038Y-126390764D01*
X174037419Y-126295526D01*
X159458848Y-116646954D02*
X159125515Y-116170764D01*
X158887419Y-116646954D02*
X158887419Y-115646954D01*
X159268372Y-115646954D01*
X159363610Y-115694574D01*
X159411229Y-115742193D01*
X159458848Y-115837431D01*
X159458848Y-115980288D01*
X159411229Y-116075526D01*
X159363610Y-116123145D01*
X159268372Y-116170764D01*
X158887419Y-116170764D01*
X159887419Y-116123145D02*
X160220753Y-116123145D01*
X160363610Y-116646954D02*
X159887419Y-116646954D01*
X159887419Y-115646954D01*
X160363610Y-115646954D01*
X160649324Y-115646954D02*
X160982657Y-116646954D01*
X161315991Y-115646954D01*
X161649324Y-116551716D02*
X161696943Y-116599335D01*
X161649324Y-116646954D01*
X161601705Y-116599335D01*
X161649324Y-116551716D01*
X161649324Y-116646954D01*
X161649324Y-116027907D02*
X161696943Y-116075526D01*
X161649324Y-116123145D01*
X161601705Y-116075526D01*
X161649324Y-116027907D01*
X161649324Y-116123145D01*
X163411229Y-116646954D02*
X162839800Y-116646954D01*
X163125515Y-116646954D02*
X163125515Y-115646954D01*
X163030276Y-115789812D01*
X162935038Y-115885050D01*
X162839800Y-115932669D01*
%TO.C,M1*%
X179355976Y-79064280D02*
X179355976Y-78064280D01*
X179689309Y-78778566D01*
X180022642Y-78064280D01*
X180022642Y-79064280D01*
X181022642Y-79064280D02*
X180451214Y-79064280D01*
X180736928Y-79064280D02*
X180736928Y-78064280D01*
X180641690Y-78207138D01*
X180546452Y-78302376D01*
X180451214Y-78349995D01*
%TO.C,R1*%
X194387880Y-118556266D02*
X193911690Y-118889600D01*
X194387880Y-119127695D02*
X193387880Y-119127695D01*
X193387880Y-118746742D01*
X193435500Y-118651504D01*
X193483119Y-118603885D01*
X193578357Y-118556266D01*
X193721214Y-118556266D01*
X193816452Y-118603885D01*
X193864071Y-118651504D01*
X193911690Y-118746742D01*
X193911690Y-119127695D01*
X194387880Y-117603885D02*
X194387880Y-118175314D01*
X194387880Y-117889600D02*
X193387880Y-117889600D01*
X193530738Y-117984838D01*
X193625976Y-118080076D01*
X193673595Y-118175314D01*
X189881214Y-119151504D02*
X190547880Y-119151504D01*
X189500261Y-119389600D02*
X190214547Y-119627695D01*
X190214547Y-119008647D01*
X189547880Y-118722933D02*
X189547880Y-118056266D01*
X190547880Y-118484838D01*
X189547880Y-117484838D02*
X189547880Y-117389600D01*
X189595500Y-117294361D01*
X189643119Y-117246742D01*
X189738357Y-117199123D01*
X189928833Y-117151504D01*
X190166928Y-117151504D01*
X190357404Y-117199123D01*
X190452642Y-117246742D01*
X190500261Y-117294361D01*
X190547880Y-117389600D01*
X190547880Y-117484838D01*
X190500261Y-117580076D01*
X190452642Y-117627695D01*
X190357404Y-117675314D01*
X190166928Y-117722933D01*
X189928833Y-117722933D01*
X189738357Y-117675314D01*
X189643119Y-117627695D01*
X189595500Y-117580076D01*
X189547880Y-117484838D01*
%TO.C,J1*%
X179652166Y-113996980D02*
X179652166Y-114711266D01*
X179604547Y-114854123D01*
X179509309Y-114949361D01*
X179366452Y-114996980D01*
X179271214Y-114996980D01*
X180652166Y-114996980D02*
X180080738Y-114996980D01*
X180366452Y-114996980D02*
X180366452Y-113996980D01*
X180271214Y-114139838D01*
X180175976Y-114235076D01*
X180080738Y-114282695D01*
D11*
%TO.C,M1*%
X175471704Y-79711900D02*
X184529296Y-79711900D01*
X165121704Y-92108897D02*
G75*
G03*
X165123346Y-95916092I1378795J-1903003D01*
G01*
X165121704Y-95914903D02*
G75*
G03*
X194878536Y-95920835I14878796J1903003D01*
G01*
X194879296Y-92108897D02*
G75*
G03*
X184538898Y-79714945I-14878797J-1903004D01*
G01*
X194879296Y-95914903D02*
G75*
G03*
X194877654Y-92107708I-1378796J1903003D01*
G01*
X175471704Y-79711900D02*
G75*
G03*
X165122986Y-92098906I4528794J-14299998D01*
G01*
D12*
%TO.C,R1*%
X192715500Y-117856733D02*
G75*
G03*
X191266141Y-117759695I-700000J417133D01*
G01*
%TO.C,J1*%
X180455500Y-116234600D02*
X182055500Y-116234600D01*
X176975500Y-116234600D02*
X176975500Y-115634600D01*
X179515500Y-116234600D02*
X179515500Y-115634600D01*
X172255500Y-121654600D02*
X187715500Y-121654600D01*
X186085500Y-120124600D02*
X186335500Y-120654600D01*
X180455500Y-115634600D02*
X180455500Y-116234600D01*
X187715500Y-115634600D02*
X172255500Y-115634600D01*
X185535500Y-115634600D02*
X185535500Y-116234600D01*
X172835500Y-116234600D02*
X174435500Y-116234600D01*
X173635500Y-120654600D02*
X186335500Y-120654600D01*
X185535500Y-116234600D02*
X187135500Y-116234600D01*
X182995500Y-116234600D02*
X184595500Y-116234600D01*
X187135500Y-116234600D02*
X187135500Y-115634600D01*
X175375500Y-115634600D02*
X175375500Y-116234600D01*
X172835500Y-115634600D02*
X172835500Y-116234600D01*
X184595500Y-116234600D02*
X184595500Y-115634600D01*
X174435500Y-116234600D02*
X174435500Y-115634600D01*
X171965500Y-116664600D02*
X171965500Y-120664600D01*
X187715500Y-121654600D02*
X187715500Y-115634600D01*
X177915500Y-116234600D02*
X179515500Y-116234600D01*
X173885500Y-121654600D02*
X173885500Y-120654600D01*
X186335500Y-120654600D02*
X186335500Y-121654600D01*
X175375500Y-116234600D02*
X176975500Y-116234600D01*
X173885500Y-120124600D02*
X186085500Y-120124600D01*
X172255500Y-115634600D02*
X172255500Y-121654600D01*
X173635500Y-120654600D02*
X173885500Y-120124600D01*
X177915500Y-115634600D02*
X177915500Y-116234600D01*
X186085500Y-121654600D02*
X186085500Y-120654600D01*
X173635500Y-121654600D02*
X173635500Y-120654600D01*
X182055500Y-116234600D02*
X182055500Y-115634600D01*
X182995500Y-115634600D02*
X182995500Y-116234600D01*
%TD*%
M02*
