  0
SECTION
  2
HEADER
  9
$ANGBASE
  50
0.0
  9
$ANGDIR
  70
1
  9
$MEASUREMENT
  70
1
  0
ENDSEC
  0
SECTION
  2
TABLES
  0
TABLE
  2
LTYPE
  70
4
  0
LTYPE
  5
40F
  2
CONTINUOUS
  70
0
  3
Solid line
  72
65
  73
0
  40
0.0
  0
LTYPE
  5
410
  2
DASHDOT
 70
0
  3
Dash Dot ____ _ ____ _
 72
65
 73
4
 40
2.0
 49
1.25
 49
-0.25
 49
0.25
 49
-0.25
  0
LTYPE
  5
411
  2
DASHED
 70
0
  3
Dashed __ __ __ __ __
 72
65
 73
2
 40
0.75
 49
0.5
 49
-0.25
  0
LTYPE
  5
43B
  2
DOTTED
 70
0
  3
Dotted .  .  .  .
 72
65
 73
2
 40
0.2
 49
0.0
 49
-0.2
  0
ENDTAB
  0
TABLE
  2
STYLE
  70
4
  0
STYLE
  2
KICAD
  70
0
  40
0
  41
1
  42
1
  50
0
  71
0
  3
isocp.shx
  0
STYLE
  2
KICADB
  70
0
  40
0
  41
1
  42
1
  50
0
  71
0
  3
isocp.shx
  0
STYLE
  2
KICADI
  70
0
  40
0
  41
1
  42
1
  50
15
  71
0
  3
isocp.shx
  0
STYLE
  2
KICADBI
  70
0
  40
0
  41
1
  42
1
  50
15
  71
0
  3
isocp.shx
  0
ENDTAB
  0
TABLE
  2
LAYER
  70
1
  0
LAYER
  2
BLACK
  70
0
  62
7
  6
CONTINUOUS
  0
ENDTAB
  0
ENDSEC
  0
SECTION
  2
ENTITIES
0
LINE
8
BLACK
6
CONTINUOUS
10
199.916
20
-131.045
11
210.036
21
-120.865
0
LINE
8
BLACK
6
CONTINUOUS
10
210.026
20
-81.3646
11
210.036
21
-120.865
0
CIRCLE
8
BLACK
10
198.666
20
-127.755
40
1.85
0
CIRCLE
8
BLACK
10
161.076
20
-74.4346
40
1.85
0
LINE
8
BLACK
6
CONTINUOUS
10
150.096
20
-119.995
11
160.076
21
-131.035
0
LINE
8
BLACK
6
CONTINUOUS
10
199.916
20
-131.045
11
160.076
21
-131.035
0
CIRCLE
8
BLACK
10
153.326
20
-82.3746
40
1.85
0
CIRCLE
8
BLACK
10
152.916
20
-119.145
40
1.85
0
CIRCLE
8
BLACK
10
162.236
20
-127.705
40
1.85
0
CIRCLE
8
BLACK
10
206.896
20
-82.4946
40
1.85
0
LINE
8
BLACK
6
CONTINUOUS
10
200.046
20
-70.9546
11
210.026
21
-81.3646
0
CIRCLE
8
BLACK
10
198.766
20
-74.4546
40
1.85
0
LINE
8
BLACK
6
CONTINUOUS
10
160.026
20
-70.9846
11
200.046
21
-70.9546
0
LINE
8
BLACK
6
CONTINUOUS
10
150.056
20
-81.1146
11
160.026
21
-70.9846
0
LINE
8
BLACK
6
CONTINUOUS
10
150.056
20
-81.1146
11
150.096
21
-119.995
0
CIRCLE
8
BLACK
10
206.766
20
-119.645
40
1.85
0
LINE
8
BLACK
6
CONTINUOUS
10
152.607
20
-134.174
11
152.607
21
-132.174
0
LINE
8
BLACK
6
CONTINUOUS
10
152.607
20
-132.174
11
153.083
21
-132.174
0
LINE
8
BLACK
6
CONTINUOUS
10
153.083
20
-132.174
11
153.369
21
-132.27
0
LINE
8
BLACK
6
CONTINUOUS
10
153.369
20
-132.27
11
153.559
21
-132.46
0
LINE
8
BLACK
6
CONTINUOUS
10
153.559
20
-132.46
11
153.654
21
-132.651
0
LINE
8
BLACK
6
CONTINUOUS
10
153.654
20
-132.651
11
153.75
21
-133.031
0
LINE
8
BLACK
6
CONTINUOUS
10
153.75
20
-133.031
11
153.75
21
-133.317
0
LINE
8
BLACK
6
CONTINUOUS
10
153.75
20
-133.317
11
153.654
21
-133.698
0
LINE
8
BLACK
6
CONTINUOUS
10
153.654
20
-133.698
11
153.559
21
-133.889
0
LINE
8
BLACK
6
CONTINUOUS
10
153.559
20
-133.889
11
153.369
21
-134.079
0
LINE
8
BLACK
6
CONTINUOUS
10
153.369
20
-134.079
11
153.083
21
-134.174
0
LINE
8
BLACK
6
CONTINUOUS
10
153.083
20
-134.174
11
152.607
21
-134.174
0
LINE
8
BLACK
6
CONTINUOUS
10
154.607
20
-134.174
11
154.607
21
-132.841
0
LINE
8
BLACK
6
CONTINUOUS
10
154.607
20
-133.222
11
154.702
21
-133.031
0
LINE
8
BLACK
6
CONTINUOUS
10
154.702
20
-133.031
11
154.797
21
-132.936
0
LINE
8
BLACK
6
CONTINUOUS
10
154.797
20
-132.936
11
154.988
21
-132.841
0
LINE
8
BLACK
6
CONTINUOUS
10
154.988
20
-132.841
11
155.178
21
-132.841
0
LINE
8
BLACK
6
CONTINUOUS
10
155.845
20
-134.174
11
155.845
21
-132.841
0
LINE
8
BLACK
6
CONTINUOUS
10
155.845
20
-132.174
11
155.75
21
-132.27
0
LINE
8
BLACK
6
CONTINUOUS
10
155.75
20
-132.27
11
155.845
21
-132.365
0
LINE
8
BLACK
6
CONTINUOUS
10
155.845
20
-132.365
11
155.94
21
-132.27
0
LINE
8
BLACK
6
CONTINUOUS
10
155.94
20
-132.27
11
155.845
21
-132.174
0
LINE
8
BLACK
6
CONTINUOUS
10
155.845
20
-132.174
11
155.845
21
-132.365
0
LINE
8
BLACK
6
CONTINUOUS
10
157.083
20
-134.174
11
156.892
21
-134.079
0
LINE
8
BLACK
6
CONTINUOUS
10
156.892
20
-134.079
11
156.797
21
-133.889
0
LINE
8
BLACK
6
CONTINUOUS
10
156.797
20
-133.889
11
156.797
21
-132.174
0
LINE
8
BLACK
6
CONTINUOUS
10
158.131
20
-134.174
11
157.94
21
-134.079
0
LINE
8
BLACK
6
CONTINUOUS
10
157.94
20
-134.079
11
157.845
21
-133.889
0
LINE
8
BLACK
6
CONTINUOUS
10
157.845
20
-133.889
11
157.845
21
-132.174
0
LINE
8
BLACK
6
CONTINUOUS
10
160.416
20
-134.174
11
160.416
21
-132.174
0
LINE
8
BLACK
6
CONTINUOUS
10
160.416
20
-132.174
11
161.083
21
-133.603
0
LINE
8
BLACK
6
CONTINUOUS
10
161.083
20
-133.603
11
161.75
21
-132.174
0
LINE
8
BLACK
6
CONTINUOUS
10
161.75
20
-132.174
11
161.75
21
-134.174
0
LINE
8
BLACK
6
CONTINUOUS
10
163.559
20
-134.174
11
163.559
21
-133.127
0
LINE
8
BLACK
6
CONTINUOUS
10
163.559
20
-133.127
11
163.464
21
-132.936
0
LINE
8
BLACK
6
CONTINUOUS
10
163.464
20
-132.936
11
163.273
21
-132.841
0
LINE
8
BLACK
6
CONTINUOUS
10
163.273
20
-132.841
11
162.892
21
-132.841
0
LINE
8
BLACK
6
CONTINUOUS
10
162.892
20
-132.841
11
162.702
21
-132.936
0
LINE
8
BLACK
6
CONTINUOUS
10
163.559
20
-134.079
11
163.369
21
-134.174
0
LINE
8
BLACK
6
CONTINUOUS
10
163.369
20
-134.174
11
162.892
21
-134.174
0
LINE
8
BLACK
6
CONTINUOUS
10
162.892
20
-134.174
11
162.702
21
-134.079
0
LINE
8
BLACK
6
CONTINUOUS
10
162.702
20
-134.079
11
162.607
21
-133.889
0
LINE
8
BLACK
6
CONTINUOUS
10
162.607
20
-133.889
11
162.607
21
-133.698
0
LINE
8
BLACK
6
CONTINUOUS
10
162.607
20
-133.698
11
162.702
21
-133.508
0
LINE
8
BLACK
6
CONTINUOUS
10
162.702
20
-133.508
11
162.892
21
-133.412
0
LINE
8
BLACK
6
CONTINUOUS
10
162.892
20
-133.412
11
163.369
21
-133.412
0
LINE
8
BLACK
6
CONTINUOUS
10
163.369
20
-133.412
11
163.559
21
-133.317
0
LINE
8
BLACK
6
CONTINUOUS
10
164.511
20
-132.841
11
164.511
21
-134.841
0
LINE
8
BLACK
6
CONTINUOUS
10
164.511
20
-132.936
11
164.702
21
-132.841
0
LINE
8
BLACK
6
CONTINUOUS
10
164.702
20
-132.841
11
165.083
21
-132.841
0
LINE
8
BLACK
6
CONTINUOUS
10
165.083
20
-132.841
11
165.273
21
-132.936
0
LINE
8
BLACK
6
CONTINUOUS
10
165.273
20
-132.936
11
165.369
21
-133.031
0
LINE
8
BLACK
6
CONTINUOUS
10
165.369
20
-133.031
11
165.464
21
-133.222
0
LINE
8
BLACK
6
CONTINUOUS
10
165.464
20
-133.222
11
165.464
21
-133.793
0
LINE
8
BLACK
6
CONTINUOUS
10
165.464
20
-133.793
11
165.369
21
-133.984
0
LINE
8
BLACK
6
CONTINUOUS
10
165.369
20
-133.984
11
165.273
21
-134.079
0
LINE
8
BLACK
6
CONTINUOUS
10
165.273
20
-134.079
11
165.083
21
-134.174
0
LINE
8
BLACK
6
CONTINUOUS
10
165.083
20
-134.174
11
164.702
21
-134.174
0
LINE
8
BLACK
6
CONTINUOUS
10
164.702
20
-134.174
11
164.511
21
-134.079
0
LINE
8
BLACK
6
CONTINUOUS
10
166.321
20
-133.984
11
166.416
21
-134.079
0
LINE
8
BLACK
6
CONTINUOUS
10
166.416
20
-134.079
11
166.321
21
-134.174
0
LINE
8
BLACK
6
CONTINUOUS
10
166.321
20
-134.174
11
166.226
21
-134.079
0
LINE
8
BLACK
6
CONTINUOUS
10
166.226
20
-134.079
11
166.321
21
-133.984
0
LINE
8
BLACK
6
CONTINUOUS
10
166.321
20
-133.984
11
166.321
21
-134.174
0
LINE
8
BLACK
6
CONTINUOUS
10
166.321
20
-132.936
11
166.416
21
-133.031
0
LINE
8
BLACK
6
CONTINUOUS
10
166.416
20
-133.031
11
166.321
21
-133.127
0
LINE
8
BLACK
6
CONTINUOUS
10
166.321
20
-133.127
11
166.226
21
-133.031
0
LINE
8
BLACK
6
CONTINUOUS
10
166.226
20
-133.031
11
166.321
21
-132.936
0
LINE
8
BLACK
6
CONTINUOUS
10
166.321
20
-132.936
11
166.321
21
-133.127
  0
ENDSEC
  0
EOF
