  0
SECTION
  2
HEADER
  9
$ANGBASE
  50
0.0
  9
$ANGDIR
  70
1
  9
$MEASUREMENT
  70
1
  0
ENDSEC
  0
SECTION
  2
TABLES
  0
TABLE
  2
LTYPE
  70
4
  0
LTYPE
  5
40F
  2
CONTINUOUS
  70
0
  3
Solid line
  72
65
  73
0
  40
0.0
  0
LTYPE
  5
410
  2
DASHDOT
 70
0
  3
Dash Dot ____ _ ____ _
 72
65
 73
4
 40
2.0
 49
1.25
 49
-0.25
 49
0.25
 49
-0.25
  0
LTYPE
  5
411
  2
DASHED
 70
0
  3
Dashed __ __ __ __ __
 72
65
 73
2
 40
0.75
 49
0.5
 49
-0.25
  0
LTYPE
  5
43B
  2
DOTTED
 70
0
  3
Dotted .  .  .  .
 72
65
 73
2
 40
0.2
 49
0.0
 49
-0.2
  0
ENDTAB
  0
TABLE
  2
STYLE
  70
4
  0
STYLE
  2
KICAD
  70
0
  40
0
  41
1
  42
1
  50
0
  71
0
  3
isocp.shx
  0
STYLE
  2
KICADB
  70
0
  40
0
  41
1
  42
1
  50
0
  71
0
  3
isocp.shx
  0
STYLE
  2
KICADI
  70
0
  40
0
  41
1
  42
1
  50
15
  71
0
  3
isocp.shx
  0
STYLE
  2
KICADBI
  70
0
  40
0
  41
1
  42
1
  50
15
  71
0
  3
isocp.shx
  0
ENDTAB
  0
TABLE
  2
LAYER
  70
1
  0
LAYER
  2
BLACK
  70
0
  62
7
  6
CONTINUOUS
  0
ENDTAB
  0
ENDSEC
  0
SECTION
  2
ENTITIES
0
LINE
8
BLACK
6
CONTINUOUS
10
113.03
20
-107.442
11
68.58
21
-107.442
0
LINE
8
BLACK
6
CONTINUOUS
10
113.03
20
-143.002
11
113.03
21
-107.442
0
LINE
8
BLACK
6
CONTINUOUS
10
78.994
20
-143.002
11
113.03
21
-143.002
0
LINE
8
BLACK
6
CONTINUOUS
10
78.994
20
-152.146
11
78.994
21
-143.002
0
LINE
8
BLACK
6
CONTINUOUS
10
68.58
20
-152.146
11
78.994
21
-152.146
0
LINE
8
BLACK
6
CONTINUOUS
10
68.58
20
-107.442
11
68.58
21
-152.146
0
LINE
8
BLACK
6
CONTINUOUS
10
92.056
20
-109.963
11
92.856
21
-110.763
0
LINE
8
BLACK
6
CONTINUOUS
10
92.856
20
-109.963
11
92.056
21
-110.763
0
LINE
8
BLACK
6
CONTINUOUS
10
99.676
20
-109.963
11
100.476
21
-110.763
0
LINE
8
BLACK
6
CONTINUOUS
10
100.476
20
-109.963
11
99.676
21
-110.763
0
LINE
8
BLACK
6
CONTINUOUS
10
92.056
20
-116.44
11
92.856
21
-117.24
0
LINE
8
BLACK
6
CONTINUOUS
10
92.856
20
-116.44
11
92.056
21
-117.24
0
LINE
8
BLACK
6
CONTINUOUS
10
99.676
20
-116.44
11
100.476
21
-117.24
0
LINE
8
BLACK
6
CONTINUOUS
10
100.476
20
-116.44
11
99.676
21
-117.24
0
LINE
8
BLACK
6
CONTINUOUS
10
92.056
20
-113.265
11
92.856
21
-114.065
0
LINE
8
BLACK
6
CONTINUOUS
10
92.856
20
-113.265
11
92.056
21
-114.065
0
LINE
8
BLACK
6
CONTINUOUS
10
99.676
20
-113.265
11
100.476
21
-114.065
0
LINE
8
BLACK
6
CONTINUOUS
10
100.476
20
-113.265
11
99.676
21
-114.065
0
CIRCLE
8
BLACK
10
104.902
20
-118.999
40
0.6
0
CIRCLE
8
BLACK
10
107.442
20
-118.999
40
0.6
0
CIRCLE
8
BLACK
10
73.279
20
-126.365
40
0.6
0
CIRCLE
8
BLACK
10
75.819
20
-126.365
40
0.6
0
CIRCLE
8
BLACK
10
104.775
20
-126.619
40
0.6
0
CIRCLE
8
BLACK
10
107.315
20
-126.619
40
0.6
0
CIRCLE
8
BLACK
10
83.312
20
-126.365
40
0.6
0
CIRCLE
8
BLACK
10
85.852
20
-126.365
40
0.6
0
CIRCLE
8
BLACK
10
94.107
20
-126.365
40
0.6
0
CIRCLE
8
BLACK
10
96.647
20
-126.365
40
0.6
0
CIRCLE
8
BLACK
10
84.074
20
-136.398
40
0.6
0
CIRCLE
8
BLACK
10
86.614
20
-136.398
40
0.6
0
CIRCLE
8
BLACK
10
89.154
20
-136.398
40
0.6
0
CIRCLE
8
BLACK
10
79.502
20
-116.332
40
0.6
0
CIRCLE
8
BLACK
10
82.042
20
-116.332
40
0.6
0
CIRCLE
8
BLACK
10
84.582
20
-116.332
40
0.6
0
CIRCLE
8
BLACK
10
87.122
20
-116.332
40
0.6
0
CIRCLE
8
BLACK
10
71.755
20
-136.017
40
0.6
0
CIRCLE
8
BLACK
10
74.295
20
-136.017
40
0.6
0
CIRCLE
8
BLACK
10
76.835
20
-136.017
40
0.6
0
LINE
8
BLACK
6
CONTINUOUS
10
71.3843
20
-156.863
11
71.3843
21
-153.863
0
LINE
8
BLACK
6
CONTINUOUS
10
71.3843
20
-153.863
11
72.0986
21
-153.863
0
LINE
8
BLACK
6
CONTINUOUS
10
72.0986
20
-153.863
11
72.5271
21
-154.006
0
LINE
8
BLACK
6
CONTINUOUS
10
72.5271
20
-154.006
11
72.8129
21
-154.292
0
LINE
8
BLACK
6
CONTINUOUS
10
72.8129
20
-154.292
11
72.9557
21
-154.577
0
LINE
8
BLACK
6
CONTINUOUS
10
72.9557
20
-154.577
11
73.0986
21
-155.149
0
LINE
8
BLACK
6
CONTINUOUS
10
73.0986
20
-155.149
11
73.0986
21
-155.577
0
LINE
8
BLACK
6
CONTINUOUS
10
73.0986
20
-155.577
11
72.9557
21
-156.149
0
LINE
8
BLACK
6
CONTINUOUS
10
72.9557
20
-156.149
11
72.8129
21
-156.435
0
LINE
8
BLACK
6
CONTINUOUS
10
72.8129
20
-156.435
11
72.5271
21
-156.72
0
LINE
8
BLACK
6
CONTINUOUS
10
72.5271
20
-156.72
11
72.0986
21
-156.863
0
LINE
8
BLACK
6
CONTINUOUS
10
72.0986
20
-156.863
11
71.3843
21
-156.863
0
LINE
8
BLACK
6
CONTINUOUS
10
74.3843
20
-156.863
11
74.3843
21
-154.863
0
LINE
8
BLACK
6
CONTINUOUS
10
74.3843
20
-155.435
11
74.5271
21
-155.149
0
LINE
8
BLACK
6
CONTINUOUS
10
74.5271
20
-155.149
11
74.67
21
-155.006
0
LINE
8
BLACK
6
CONTINUOUS
10
74.67
20
-155.006
11
74.9557
21
-154.863
0
LINE
8
BLACK
6
CONTINUOUS
10
74.9557
20
-154.863
11
75.2414
21
-154.863
0
LINE
8
BLACK
6
CONTINUOUS
10
76.2414
20
-156.863
11
76.2414
21
-154.863
0
LINE
8
BLACK
6
CONTINUOUS
10
76.2414
20
-153.863
11
76.0986
21
-154.006
0
LINE
8
BLACK
6
CONTINUOUS
10
76.0986
20
-154.006
11
76.2414
21
-154.149
0
LINE
8
BLACK
6
CONTINUOUS
10
76.2414
20
-154.149
11
76.3843
21
-154.006
0
LINE
8
BLACK
6
CONTINUOUS
10
76.3843
20
-154.006
11
76.2414
21
-153.863
0
LINE
8
BLACK
6
CONTINUOUS
10
76.2414
20
-153.863
11
76.2414
21
-154.149
0
LINE
8
BLACK
6
CONTINUOUS
10
78.0986
20
-156.863
11
77.8129
21
-156.72
0
LINE
8
BLACK
6
CONTINUOUS
10
77.8129
20
-156.72
11
77.67
21
-156.435
0
LINE
8
BLACK
6
CONTINUOUS
10
77.67
20
-156.435
11
77.67
21
-153.863
0
LINE
8
BLACK
6
CONTINUOUS
10
79.67
20
-156.863
11
79.3843
21
-156.72
0
LINE
8
BLACK
6
CONTINUOUS
10
79.3843
20
-156.72
11
79.2414
21
-156.435
0
LINE
8
BLACK
6
CONTINUOUS
10
79.2414
20
-156.435
11
79.2414
21
-153.863
0
LINE
8
BLACK
6
CONTINUOUS
10
83.0986
20
-156.863
11
83.0986
21
-153.863
0
LINE
8
BLACK
6
CONTINUOUS
10
83.0986
20
-153.863
11
84.0986
21
-156.006
0
LINE
8
BLACK
6
CONTINUOUS
10
84.0986
20
-156.006
11
85.0986
21
-153.863
0
LINE
8
BLACK
6
CONTINUOUS
10
85.0986
20
-153.863
11
85.0986
21
-156.863
0
LINE
8
BLACK
6
CONTINUOUS
10
87.8129
20
-156.863
11
87.8129
21
-155.292
0
LINE
8
BLACK
6
CONTINUOUS
10
87.8129
20
-155.292
11
87.67
21
-155.006
0
LINE
8
BLACK
6
CONTINUOUS
10
87.67
20
-155.006
11
87.3843
21
-154.863
0
LINE
8
BLACK
6
CONTINUOUS
10
87.3843
20
-154.863
11
86.8129
21
-154.863
0
LINE
8
BLACK
6
CONTINUOUS
10
86.8129
20
-154.863
11
86.5271
21
-155.006
0
LINE
8
BLACK
6
CONTINUOUS
10
87.8129
20
-156.72
11
87.5271
21
-156.863
0
LINE
8
BLACK
6
CONTINUOUS
10
87.5271
20
-156.863
11
86.8129
21
-156.863
0
LINE
8
BLACK
6
CONTINUOUS
10
86.8129
20
-156.863
11
86.5271
21
-156.72
0
LINE
8
BLACK
6
CONTINUOUS
10
86.5271
20
-156.72
11
86.3843
21
-156.435
0
LINE
8
BLACK
6
CONTINUOUS
10
86.3843
20
-156.435
11
86.3843
21
-156.149
0
LINE
8
BLACK
6
CONTINUOUS
10
86.3843
20
-156.149
11
86.5271
21
-155.863
0
LINE
8
BLACK
6
CONTINUOUS
10
86.5271
20
-155.863
11
86.8129
21
-155.72
0
LINE
8
BLACK
6
CONTINUOUS
10
86.8129
20
-155.72
11
87.5271
21
-155.72
0
LINE
8
BLACK
6
CONTINUOUS
10
87.5271
20
-155.72
11
87.8129
21
-155.577
0
LINE
8
BLACK
6
CONTINUOUS
10
89.2414
20
-154.863
11
89.2414
21
-157.863
0
LINE
8
BLACK
6
CONTINUOUS
10
89.2414
20
-155.006
11
89.5271
21
-154.863
0
LINE
8
BLACK
6
CONTINUOUS
10
89.5271
20
-154.863
11
90.0986
21
-154.863
0
LINE
8
BLACK
6
CONTINUOUS
10
90.0986
20
-154.863
11
90.3843
21
-155.006
0
LINE
8
BLACK
6
CONTINUOUS
10
90.3843
20
-155.006
11
90.5271
21
-155.149
0
LINE
8
BLACK
6
CONTINUOUS
10
90.5271
20
-155.149
11
90.67
21
-155.435
0
LINE
8
BLACK
6
CONTINUOUS
10
90.67
20
-155.435
11
90.67
21
-156.292
0
LINE
8
BLACK
6
CONTINUOUS
10
90.67
20
-156.292
11
90.5271
21
-156.577
0
LINE
8
BLACK
6
CONTINUOUS
10
90.5271
20
-156.577
11
90.3843
21
-156.72
0
LINE
8
BLACK
6
CONTINUOUS
10
90.3843
20
-156.72
11
90.0986
21
-156.863
0
LINE
8
BLACK
6
CONTINUOUS
10
90.0986
20
-156.863
11
89.5271
21
-156.863
0
LINE
8
BLACK
6
CONTINUOUS
10
89.5271
20
-156.863
11
89.2414
21
-156.72
0
LINE
8
BLACK
6
CONTINUOUS
10
91.9557
20
-156.577
11
92.0986
21
-156.72
0
LINE
8
BLACK
6
CONTINUOUS
10
92.0986
20
-156.72
11
91.9557
21
-156.863
0
LINE
8
BLACK
6
CONTINUOUS
10
91.9557
20
-156.863
11
91.8129
21
-156.72
0
LINE
8
BLACK
6
CONTINUOUS
10
91.8129
20
-156.72
11
91.9557
21
-156.577
0
LINE
8
BLACK
6
CONTINUOUS
10
91.9557
20
-156.577
11
91.9557
21
-156.863
0
LINE
8
BLACK
6
CONTINUOUS
10
91.9557
20
-155.006
11
92.0986
21
-155.149
0
LINE
8
BLACK
6
CONTINUOUS
10
92.0986
20
-155.149
11
91.9557
21
-155.292
0
LINE
8
BLACK
6
CONTINUOUS
10
91.9557
20
-155.292
11
91.8129
21
-155.149
0
LINE
8
BLACK
6
CONTINUOUS
10
91.8129
20
-155.149
11
91.9557
21
-155.006
0
LINE
8
BLACK
6
CONTINUOUS
10
91.9557
20
-155.006
11
91.9557
21
-155.292
0
LINE
8
BLACK
6
CONTINUOUS
10
67.72
20
-161.406
11
68.52
21
-162.206
0
LINE
8
BLACK
6
CONTINUOUS
10
68.52
20
-161.406
11
67.72
21
-162.206
0
LINE
8
BLACK
6
CONTINUOUS
10
71.9557
20
-160.163
11
72.2414
21
-160.163
0
LINE
8
BLACK
6
CONTINUOUS
10
72.2414
20
-160.163
11
72.5271
21
-160.306
0
LINE
8
BLACK
6
CONTINUOUS
10
72.5271
20
-160.306
11
72.67
21
-160.449
0
LINE
8
BLACK
6
CONTINUOUS
10
72.67
20
-160.449
11
72.8129
21
-160.735
0
LINE
8
BLACK
6
CONTINUOUS
10
72.8129
20
-160.735
11
72.9557
21
-161.306
0
LINE
8
BLACK
6
CONTINUOUS
10
72.9557
20
-161.306
11
72.9557
21
-162.02
0
LINE
8
BLACK
6
CONTINUOUS
10
72.9557
20
-162.02
11
72.8129
21
-162.592
0
LINE
8
BLACK
6
CONTINUOUS
10
72.8129
20
-162.592
11
72.67
21
-162.877
0
LINE
8
BLACK
6
CONTINUOUS
10
72.67
20
-162.877
11
72.5271
21
-163.02
0
LINE
8
BLACK
6
CONTINUOUS
10
72.5271
20
-163.02
11
72.2414
21
-163.163
0
LINE
8
BLACK
6
CONTINUOUS
10
72.2414
20
-163.163
11
71.9557
21
-163.163
0
LINE
8
BLACK
6
CONTINUOUS
10
71.9557
20
-163.163
11
71.67
21
-163.02
0
LINE
8
BLACK
6
CONTINUOUS
10
71.67
20
-163.02
11
71.5271
21
-162.877
0
LINE
8
BLACK
6
CONTINUOUS
10
71.5271
20
-162.877
11
71.3843
21
-162.592
0
LINE
8
BLACK
6
CONTINUOUS
10
71.3843
20
-162.592
11
71.2414
21
-162.02
0
LINE
8
BLACK
6
CONTINUOUS
10
71.2414
20
-162.02
11
71.2414
21
-161.306
0
LINE
8
BLACK
6
CONTINUOUS
10
71.2414
20
-161.306
11
71.3843
21
-160.735
0
LINE
8
BLACK
6
CONTINUOUS
10
71.3843
20
-160.735
11
71.5271
21
-160.449
0
LINE
8
BLACK
6
CONTINUOUS
10
71.5271
20
-160.449
11
71.67
21
-160.306
0
LINE
8
BLACK
6
CONTINUOUS
10
71.67
20
-160.306
11
71.9557
21
-160.163
0
LINE
8
BLACK
6
CONTINUOUS
10
74.2414
20
-162.877
11
74.3843
21
-163.02
0
LINE
8
BLACK
6
CONTINUOUS
10
74.3843
20
-163.02
11
74.2414
21
-163.163
0
LINE
8
BLACK
6
CONTINUOUS
10
74.2414
20
-163.163
11
74.0986
21
-163.02
0
LINE
8
BLACK
6
CONTINUOUS
10
74.0986
20
-163.02
11
74.2414
21
-162.877
0
LINE
8
BLACK
6
CONTINUOUS
10
74.2414
20
-162.877
11
74.2414
21
-163.163
0
LINE
8
BLACK
6
CONTINUOUS
10
76.0986
20
-161.449
11
75.8129
21
-161.306
0
LINE
8
BLACK
6
CONTINUOUS
10
75.8129
20
-161.306
11
75.67
21
-161.163
0
LINE
8
BLACK
6
CONTINUOUS
10
75.67
20
-161.163
11
75.5271
21
-160.877
0
LINE
8
BLACK
6
CONTINUOUS
10
75.5271
20
-160.877
11
75.5271
21
-160.735
0
LINE
8
BLACK
6
CONTINUOUS
10
75.5271
20
-160.735
11
75.67
21
-160.449
0
LINE
8
BLACK
6
CONTINUOUS
10
75.67
20
-160.449
11
75.8129
21
-160.306
0
LINE
8
BLACK
6
CONTINUOUS
10
75.8129
20
-160.306
11
76.0986
21
-160.163
0
LINE
8
BLACK
6
CONTINUOUS
10
76.0986
20
-160.163
11
76.67
21
-160.163
0
LINE
8
BLACK
6
CONTINUOUS
10
76.67
20
-160.163
11
76.9557
21
-160.306
0
LINE
8
BLACK
6
CONTINUOUS
10
76.9557
20
-160.306
11
77.0986
21
-160.449
0
LINE
8
BLACK
6
CONTINUOUS
10
77.0986
20
-160.449
11
77.2414
21
-160.735
0
LINE
8
BLACK
6
CONTINUOUS
10
77.2414
20
-160.735
11
77.2414
21
-160.877
0
LINE
8
BLACK
6
CONTINUOUS
10
77.2414
20
-160.877
11
77.0986
21
-161.163
0
LINE
8
BLACK
6
CONTINUOUS
10
77.0986
20
-161.163
11
76.9557
21
-161.306
0
LINE
8
BLACK
6
CONTINUOUS
10
76.9557
20
-161.306
11
76.67
21
-161.449
0
LINE
8
BLACK
6
CONTINUOUS
10
76.67
20
-161.449
11
76.0986
21
-161.449
0
LINE
8
BLACK
6
CONTINUOUS
10
76.0986
20
-161.449
11
75.8129
21
-161.592
0
LINE
8
BLACK
6
CONTINUOUS
10
75.8129
20
-161.592
11
75.67
21
-161.735
0
LINE
8
BLACK
6
CONTINUOUS
10
75.67
20
-161.735
11
75.5271
21
-162.02
0
LINE
8
BLACK
6
CONTINUOUS
10
75.5271
20
-162.02
11
75.5271
21
-162.592
0
LINE
8
BLACK
6
CONTINUOUS
10
75.5271
20
-162.592
11
75.67
21
-162.877
0
LINE
8
BLACK
6
CONTINUOUS
10
75.67
20
-162.877
11
75.8129
21
-163.02
0
LINE
8
BLACK
6
CONTINUOUS
10
75.8129
20
-163.02
11
76.0986
21
-163.163
0
LINE
8
BLACK
6
CONTINUOUS
10
76.0986
20
-163.163
11
76.67
21
-163.163
0
LINE
8
BLACK
6
CONTINUOUS
10
76.67
20
-163.163
11
76.9557
21
-163.02
0
LINE
8
BLACK
6
CONTINUOUS
10
76.9557
20
-163.02
11
77.0986
21
-162.877
0
LINE
8
BLACK
6
CONTINUOUS
10
77.0986
20
-162.877
11
77.2414
21
-162.592
0
LINE
8
BLACK
6
CONTINUOUS
10
77.2414
20
-162.592
11
77.2414
21
-162.02
0
LINE
8
BLACK
6
CONTINUOUS
10
77.2414
20
-162.02
11
77.0986
21
-161.735
0
LINE
8
BLACK
6
CONTINUOUS
10
77.0986
20
-161.735
11
76.9557
21
-161.592
0
LINE
8
BLACK
6
CONTINUOUS
10
76.9557
20
-161.592
11
76.67
21
-161.449
0
LINE
8
BLACK
6
CONTINUOUS
10
79.0986
20
-160.163
11
79.3843
21
-160.163
0
LINE
8
BLACK
6
CONTINUOUS
10
79.3843
20
-160.163
11
79.67
21
-160.306
0
LINE
8
BLACK
6
CONTINUOUS
10
79.67
20
-160.306
11
79.8129
21
-160.449
0
LINE
8
BLACK
6
CONTINUOUS
10
79.8129
20
-160.449
11
79.9557
21
-160.735
0
LINE
8
BLACK
6
CONTINUOUS
10
79.9557
20
-160.735
11
80.0986
21
-161.306
0
LINE
8
BLACK
6
CONTINUOUS
10
80.0986
20
-161.306
11
80.0986
21
-162.02
0
LINE
8
BLACK
6
CONTINUOUS
10
80.0986
20
-162.02
11
79.9557
21
-162.592
0
LINE
8
BLACK
6
CONTINUOUS
10
79.9557
20
-162.592
11
79.8129
21
-162.877
0
LINE
8
BLACK
6
CONTINUOUS
10
79.8129
20
-162.877
11
79.67
21
-163.02
0
LINE
8
BLACK
6
CONTINUOUS
10
79.67
20
-163.02
11
79.3843
21
-163.163
0
LINE
8
BLACK
6
CONTINUOUS
10
79.3843
20
-163.163
11
79.0986
21
-163.163
0
LINE
8
BLACK
6
CONTINUOUS
10
79.0986
20
-163.163
11
78.8129
21
-163.02
0
LINE
8
BLACK
6
CONTINUOUS
10
78.8129
20
-163.02
11
78.67
21
-162.877
0
LINE
8
BLACK
6
CONTINUOUS
10
78.67
20
-162.877
11
78.5271
21
-162.592
0
LINE
8
BLACK
6
CONTINUOUS
10
78.5271
20
-162.592
11
78.3843
21
-162.02
0
LINE
8
BLACK
6
CONTINUOUS
10
78.3843
20
-162.02
11
78.3843
21
-161.306
0
LINE
8
BLACK
6
CONTINUOUS
10
78.3843
20
-161.306
11
78.5271
21
-160.735
0
LINE
8
BLACK
6
CONTINUOUS
10
78.5271
20
-160.735
11
78.67
21
-160.449
0
LINE
8
BLACK
6
CONTINUOUS
10
78.67
20
-160.449
11
78.8129
21
-160.306
0
LINE
8
BLACK
6
CONTINUOUS
10
78.8129
20
-160.306
11
79.0986
21
-160.163
0
LINE
8
BLACK
6
CONTINUOUS
10
81.3843
20
-163.163
11
81.3843
21
-161.163
0
LINE
8
BLACK
6
CONTINUOUS
10
81.3843
20
-161.449
11
81.5271
21
-161.306
0
LINE
8
BLACK
6
CONTINUOUS
10
81.5271
20
-161.306
11
81.8129
21
-161.163
0
LINE
8
BLACK
6
CONTINUOUS
10
81.8129
20
-161.163
11
82.2414
21
-161.163
0
LINE
8
BLACK
6
CONTINUOUS
10
82.2414
20
-161.163
11
82.5271
21
-161.306
0
LINE
8
BLACK
6
CONTINUOUS
10
82.5271
20
-161.306
11
82.67
21
-161.592
0
LINE
8
BLACK
6
CONTINUOUS
10
82.67
20
-161.592
11
82.67
21
-163.163
0
LINE
8
BLACK
6
CONTINUOUS
10
82.67
20
-161.592
11
82.8129
21
-161.306
0
LINE
8
BLACK
6
CONTINUOUS
10
82.8129
20
-161.306
11
83.0986
21
-161.163
0
LINE
8
BLACK
6
CONTINUOUS
10
83.0986
20
-161.163
11
83.5271
21
-161.163
0
LINE
8
BLACK
6
CONTINUOUS
10
83.5271
20
-161.163
11
83.8129
21
-161.306
0
LINE
8
BLACK
6
CONTINUOUS
10
83.8129
20
-161.306
11
83.9557
21
-161.592
0
LINE
8
BLACK
6
CONTINUOUS
10
83.9557
20
-161.592
11
83.9557
21
-163.163
0
LINE
8
BLACK
6
CONTINUOUS
10
85.3843
20
-163.163
11
85.3843
21
-161.163
0
LINE
8
BLACK
6
CONTINUOUS
10
85.3843
20
-161.449
11
85.5271
21
-161.306
0
LINE
8
BLACK
6
CONTINUOUS
10
85.5271
20
-161.306
11
85.8129
21
-161.163
0
LINE
8
BLACK
6
CONTINUOUS
10
85.8129
20
-161.163
11
86.2414
21
-161.163
0
LINE
8
BLACK
6
CONTINUOUS
10
86.2414
20
-161.163
11
86.5271
21
-161.306
0
LINE
8
BLACK
6
CONTINUOUS
10
86.5271
20
-161.306
11
86.67
21
-161.592
0
LINE
8
BLACK
6
CONTINUOUS
10
86.67
20
-161.592
11
86.67
21
-163.163
0
LINE
8
BLACK
6
CONTINUOUS
10
86.67
20
-161.592
11
86.8129
21
-161.306
0
LINE
8
BLACK
6
CONTINUOUS
10
86.8129
20
-161.306
11
87.0986
21
-161.163
0
LINE
8
BLACK
6
CONTINUOUS
10
87.0986
20
-161.163
11
87.5271
21
-161.163
0
LINE
8
BLACK
6
CONTINUOUS
10
87.5271
20
-161.163
11
87.8129
21
-161.306
0
LINE
8
BLACK
6
CONTINUOUS
10
87.8129
20
-161.306
11
87.9557
21
-161.592
0
LINE
8
BLACK
6
CONTINUOUS
10
87.9557
20
-161.592
11
87.9557
21
-163.163
0
LINE
8
BLACK
6
CONTINUOUS
10
93.8129
20
-160.02
11
91.2414
21
-163.877
0
LINE
8
BLACK
6
CONTINUOUS
10
97.67
20
-160.163
11
97.9557
21
-160.163
0
LINE
8
BLACK
6
CONTINUOUS
10
97.9557
20
-160.163
11
98.2414
21
-160.306
0
LINE
8
BLACK
6
CONTINUOUS
10
98.2414
20
-160.306
11
98.3843
21
-160.449
0
LINE
8
BLACK
6
CONTINUOUS
10
98.3843
20
-160.449
11
98.5271
21
-160.735
0
LINE
8
BLACK
6
CONTINUOUS
10
98.5271
20
-160.735
11
98.67
21
-161.306
0
LINE
8
BLACK
6
CONTINUOUS
10
98.67
20
-161.306
11
98.67
21
-162.02
0
LINE
8
BLACK
6
CONTINUOUS
10
98.67
20
-162.02
11
98.5271
21
-162.592
0
LINE
8
BLACK
6
CONTINUOUS
10
98.5271
20
-162.592
11
98.3843
21
-162.877
0
LINE
8
BLACK
6
CONTINUOUS
10
98.3843
20
-162.877
11
98.2414
21
-163.02
0
LINE
8
BLACK
6
CONTINUOUS
10
98.2414
20
-163.02
11
97.9557
21
-163.163
0
LINE
8
BLACK
6
CONTINUOUS
10
97.9557
20
-163.163
11
97.67
21
-163.163
0
LINE
8
BLACK
6
CONTINUOUS
10
97.67
20
-163.163
11
97.3843
21
-163.02
0
LINE
8
BLACK
6
CONTINUOUS
10
97.3843
20
-163.02
11
97.2414
21
-162.877
0
LINE
8
BLACK
6
CONTINUOUS
10
97.2414
20
-162.877
11
97.0986
21
-162.592
0
LINE
8
BLACK
6
CONTINUOUS
10
97.0986
20
-162.592
11
96.9557
21
-162.02
0
LINE
8
BLACK
6
CONTINUOUS
10
96.9557
20
-162.02
11
96.9557
21
-161.306
0
LINE
8
BLACK
6
CONTINUOUS
10
96.9557
20
-161.306
11
97.0986
21
-160.735
0
LINE
8
BLACK
6
CONTINUOUS
10
97.0986
20
-160.735
11
97.2414
21
-160.449
0
LINE
8
BLACK
6
CONTINUOUS
10
97.2414
20
-160.449
11
97.3843
21
-160.306
0
LINE
8
BLACK
6
CONTINUOUS
10
97.3843
20
-160.306
11
97.67
21
-160.163
0
LINE
8
BLACK
6
CONTINUOUS
10
99.9557
20
-162.877
11
100.099
21
-163.02
0
LINE
8
BLACK
6
CONTINUOUS
10
100.099
20
-163.02
11
99.9557
21
-163.163
0
LINE
8
BLACK
6
CONTINUOUS
10
99.9557
20
-163.163
11
99.8129
21
-163.02
0
LINE
8
BLACK
6
CONTINUOUS
10
99.8129
20
-163.02
11
99.9557
21
-162.877
0
LINE
8
BLACK
6
CONTINUOUS
10
99.9557
20
-162.877
11
99.9557
21
-163.163
0
LINE
8
BLACK
6
CONTINUOUS
10
101.956
20
-160.163
11
102.241
21
-160.163
0
LINE
8
BLACK
6
CONTINUOUS
10
102.241
20
-160.163
11
102.527
21
-160.306
0
LINE
8
BLACK
6
CONTINUOUS
10
102.527
20
-160.306
11
102.67
21
-160.449
0
LINE
8
BLACK
6
CONTINUOUS
10
102.67
20
-160.449
11
102.813
21
-160.735
0
LINE
8
BLACK
6
CONTINUOUS
10
102.813
20
-160.735
11
102.956
21
-161.306
0
LINE
8
BLACK
6
CONTINUOUS
10
102.956
20
-161.306
11
102.956
21
-162.02
0
LINE
8
BLACK
6
CONTINUOUS
10
102.956
20
-162.02
11
102.813
21
-162.592
0
LINE
8
BLACK
6
CONTINUOUS
10
102.813
20
-162.592
11
102.67
21
-162.877
0
LINE
8
BLACK
6
CONTINUOUS
10
102.67
20
-162.877
11
102.527
21
-163.02
0
LINE
8
BLACK
6
CONTINUOUS
10
102.527
20
-163.02
11
102.241
21
-163.163
0
LINE
8
BLACK
6
CONTINUOUS
10
102.241
20
-163.163
11
101.956
21
-163.163
0
LINE
8
BLACK
6
CONTINUOUS
10
101.956
20
-163.163
11
101.67
21
-163.02
0
LINE
8
BLACK
6
CONTINUOUS
10
101.67
20
-163.02
11
101.527
21
-162.877
0
LINE
8
BLACK
6
CONTINUOUS
10
101.527
20
-162.877
11
101.384
21
-162.592
0
LINE
8
BLACK
6
CONTINUOUS
10
101.384
20
-162.592
11
101.241
21
-162.02
0
LINE
8
BLACK
6
CONTINUOUS
10
101.241
20
-162.02
11
101.241
21
-161.306
0
LINE
8
BLACK
6
CONTINUOUS
10
101.241
20
-161.306
11
101.384
21
-160.735
0
LINE
8
BLACK
6
CONTINUOUS
10
101.384
20
-160.735
11
101.527
21
-160.449
0
LINE
8
BLACK
6
CONTINUOUS
10
101.527
20
-160.449
11
101.67
21
-160.306
0
LINE
8
BLACK
6
CONTINUOUS
10
101.67
20
-160.306
11
101.956
21
-160.163
0
LINE
8
BLACK
6
CONTINUOUS
10
103.956
20
-160.163
11
105.813
21
-160.163
0
LINE
8
BLACK
6
CONTINUOUS
10
105.813
20
-160.163
11
104.813
21
-161.306
0
LINE
8
BLACK
6
CONTINUOUS
10
104.813
20
-161.306
11
105.241
21
-161.306
0
LINE
8
BLACK
6
CONTINUOUS
10
105.241
20
-161.306
11
105.527
21
-161.449
0
LINE
8
BLACK
6
CONTINUOUS
10
105.527
20
-161.449
11
105.67
21
-161.592
0
LINE
8
BLACK
6
CONTINUOUS
10
105.67
20
-161.592
11
105.813
21
-161.877
0
LINE
8
BLACK
6
CONTINUOUS
10
105.813
20
-161.877
11
105.813
21
-162.592
0
LINE
8
BLACK
6
CONTINUOUS
10
105.813
20
-162.592
11
105.67
21
-162.877
0
LINE
8
BLACK
6
CONTINUOUS
10
105.67
20
-162.877
11
105.527
21
-163.02
0
LINE
8
BLACK
6
CONTINUOUS
10
105.527
20
-163.02
11
105.241
21
-163.163
0
LINE
8
BLACK
6
CONTINUOUS
10
105.241
20
-163.163
11
104.384
21
-163.163
0
LINE
8
BLACK
6
CONTINUOUS
10
104.384
20
-163.163
11
104.099
21
-163.02
0
LINE
8
BLACK
6
CONTINUOUS
10
104.099
20
-163.02
11
103.956
21
-162.877
0
LINE
8
BLACK
6
CONTINUOUS
10
108.67
20
-163.163
11
106.956
21
-163.163
0
LINE
8
BLACK
6
CONTINUOUS
10
107.813
20
-163.163
11
107.813
21
-160.163
0
LINE
8
BLACK
6
CONTINUOUS
10
107.813
20
-160.163
11
107.527
21
-160.592
0
LINE
8
BLACK
6
CONTINUOUS
10
107.527
20
-160.592
11
107.241
21
-160.877
0
LINE
8
BLACK
6
CONTINUOUS
10
107.241
20
-160.877
11
106.956
21
-161.02
0
LINE
8
BLACK
6
CONTINUOUS
10
109.813
20
-160.163
11
109.813
21
-160.735
0
LINE
8
BLACK
6
CONTINUOUS
10
110.956
20
-160.163
11
110.956
21
-160.735
0
LINE
8
BLACK
6
CONTINUOUS
10
115.384
20
-164.306
11
115.241
21
-164.163
0
LINE
8
BLACK
6
CONTINUOUS
10
115.241
20
-164.163
11
114.956
21
-163.735
0
LINE
8
BLACK
6
CONTINUOUS
10
114.956
20
-163.735
11
114.813
21
-163.449
0
LINE
8
BLACK
6
CONTINUOUS
10
114.813
20
-163.449
11
114.67
21
-163.02
0
LINE
8
BLACK
6
CONTINUOUS
10
114.67
20
-163.02
11
114.527
21
-162.306
0
LINE
8
BLACK
6
CONTINUOUS
10
114.527
20
-162.306
11
114.527
21
-161.735
0
LINE
8
BLACK
6
CONTINUOUS
10
114.527
20
-161.735
11
114.67
21
-161.02
0
LINE
8
BLACK
6
CONTINUOUS
10
114.67
20
-161.02
11
114.813
21
-160.592
0
LINE
8
BLACK
6
CONTINUOUS
10
114.813
20
-160.592
11
114.956
21
-160.306
0
LINE
8
BLACK
6
CONTINUOUS
10
114.956
20
-160.306
11
115.241
21
-159.877
0
LINE
8
BLACK
6
CONTINUOUS
10
115.241
20
-159.877
11
115.384
21
-159.735
0
LINE
8
BLACK
6
CONTINUOUS
10
117.813
20
-160.163
11
117.241
21
-160.163
0
LINE
8
BLACK
6
CONTINUOUS
10
117.241
20
-160.163
11
116.956
21
-160.306
0
LINE
8
BLACK
6
CONTINUOUS
10
116.956
20
-160.306
11
116.813
21
-160.449
0
LINE
8
BLACK
6
CONTINUOUS
10
116.813
20
-160.449
11
116.527
21
-160.877
0
LINE
8
BLACK
6
CONTINUOUS
10
116.527
20
-160.877
11
116.384
21
-161.449
0
LINE
8
BLACK
6
CONTINUOUS
10
116.384
20
-161.449
11
116.384
21
-162.592
0
LINE
8
BLACK
6
CONTINUOUS
10
116.384
20
-162.592
11
116.527
21
-162.877
0
LINE
8
BLACK
6
CONTINUOUS
10
116.527
20
-162.877
11
116.67
21
-163.02
0
LINE
8
BLACK
6
CONTINUOUS
10
116.67
20
-163.02
11
116.956
21
-163.163
0
LINE
8
BLACK
6
CONTINUOUS
10
116.956
20
-163.163
11
117.527
21
-163.163
0
LINE
8
BLACK
6
CONTINUOUS
10
117.527
20
-163.163
11
117.813
21
-163.02
0
LINE
8
BLACK
6
CONTINUOUS
10
117.813
20
-163.02
11
117.956
21
-162.877
0
LINE
8
BLACK
6
CONTINUOUS
10
117.956
20
-162.877
11
118.099
21
-162.592
0
LINE
8
BLACK
6
CONTINUOUS
10
118.099
20
-162.592
11
118.099
21
-161.877
0
LINE
8
BLACK
6
CONTINUOUS
10
118.099
20
-161.877
11
117.956
21
-161.592
0
LINE
8
BLACK
6
CONTINUOUS
10
117.956
20
-161.592
11
117.813
21
-161.449
0
LINE
8
BLACK
6
CONTINUOUS
10
117.813
20
-161.449
11
117.527
21
-161.306
0
LINE
8
BLACK
6
CONTINUOUS
10
117.527
20
-161.306
11
116.956
21
-161.306
0
LINE
8
BLACK
6
CONTINUOUS
10
116.956
20
-161.306
11
116.67
21
-161.449
0
LINE
8
BLACK
6
CONTINUOUS
10
116.67
20
-161.449
11
116.527
21
-161.592
0
LINE
8
BLACK
6
CONTINUOUS
10
116.527
20
-161.592
11
116.384
21
-161.877
0
LINE
8
BLACK
6
CONTINUOUS
10
121.67
20
-163.163
11
121.67
21
-160.163
0
LINE
8
BLACK
6
CONTINUOUS
10
122.956
20
-163.163
11
122.956
21
-161.592
0
LINE
8
BLACK
6
CONTINUOUS
10
122.956
20
-161.592
11
122.813
21
-161.306
0
LINE
8
BLACK
6
CONTINUOUS
10
122.813
20
-161.306
11
122.527
21
-161.163
0
LINE
8
BLACK
6
CONTINUOUS
10
122.527
20
-161.163
11
122.099
21
-161.163
0
LINE
8
BLACK
6
CONTINUOUS
10
122.099
20
-161.163
11
121.813
21
-161.306
0
LINE
8
BLACK
6
CONTINUOUS
10
121.813
20
-161.306
11
121.67
21
-161.449
0
LINE
8
BLACK
6
CONTINUOUS
10
124.813
20
-163.163
11
124.527
21
-163.02
0
LINE
8
BLACK
6
CONTINUOUS
10
124.527
20
-163.02
11
124.384
21
-162.877
0
LINE
8
BLACK
6
CONTINUOUS
10
124.384
20
-162.877
11
124.241
21
-162.592
0
LINE
8
BLACK
6
CONTINUOUS
10
124.241
20
-162.592
11
124.241
21
-161.735
0
LINE
8
BLACK
6
CONTINUOUS
10
124.241
20
-161.735
11
124.384
21
-161.449
0
LINE
8
BLACK
6
CONTINUOUS
10
124.384
20
-161.449
11
124.527
21
-161.306
0
LINE
8
BLACK
6
CONTINUOUS
10
124.527
20
-161.306
11
124.813
21
-161.163
0
LINE
8
BLACK
6
CONTINUOUS
10
124.813
20
-161.163
11
125.241
21
-161.163
0
LINE
8
BLACK
6
CONTINUOUS
10
125.241
20
-161.163
11
125.527
21
-161.306
0
LINE
8
BLACK
6
CONTINUOUS
10
125.527
20
-161.306
11
125.67
21
-161.449
0
LINE
8
BLACK
6
CONTINUOUS
10
125.67
20
-161.449
11
125.813
21
-161.735
0
LINE
8
BLACK
6
CONTINUOUS
10
125.813
20
-161.735
11
125.813
21
-162.592
0
LINE
8
BLACK
6
CONTINUOUS
10
125.813
20
-162.592
11
125.67
21
-162.877
0
LINE
8
BLACK
6
CONTINUOUS
10
125.67
20
-162.877
11
125.527
21
-163.02
0
LINE
8
BLACK
6
CONTINUOUS
10
125.527
20
-163.02
11
125.241
21
-163.163
0
LINE
8
BLACK
6
CONTINUOUS
10
125.241
20
-163.163
11
124.813
21
-163.163
0
LINE
8
BLACK
6
CONTINUOUS
10
127.527
20
-163.163
11
127.241
21
-163.02
0
LINE
8
BLACK
6
CONTINUOUS
10
127.241
20
-163.02
11
127.099
21
-162.735
0
LINE
8
BLACK
6
CONTINUOUS
10
127.099
20
-162.735
11
127.099
21
-160.163
0
LINE
8
BLACK
6
CONTINUOUS
10
129.813
20
-163.02
11
129.527
21
-163.163
0
LINE
8
BLACK
6
CONTINUOUS
10
129.527
20
-163.163
11
128.956
21
-163.163
0
LINE
8
BLACK
6
CONTINUOUS
10
128.956
20
-163.163
11
128.67
21
-163.02
0
LINE
8
BLACK
6
CONTINUOUS
10
128.67
20
-163.02
11
128.527
21
-162.735
0
LINE
8
BLACK
6
CONTINUOUS
10
128.527
20
-162.735
11
128.527
21
-161.592
0
LINE
8
BLACK
6
CONTINUOUS
10
128.527
20
-161.592
11
128.67
21
-161.306
0
LINE
8
BLACK
6
CONTINUOUS
10
128.67
20
-161.306
11
128.956
21
-161.163
0
LINE
8
BLACK
6
CONTINUOUS
10
128.956
20
-161.163
11
129.527
21
-161.163
0
LINE
8
BLACK
6
CONTINUOUS
10
129.527
20
-161.163
11
129.813
21
-161.306
0
LINE
8
BLACK
6
CONTINUOUS
10
129.813
20
-161.306
11
129.956
21
-161.592
0
LINE
8
BLACK
6
CONTINUOUS
10
129.956
20
-161.592
11
129.956
21
-161.877
0
LINE
8
BLACK
6
CONTINUOUS
10
129.956
20
-161.877
11
128.527
21
-162.163
0
LINE
8
BLACK
6
CONTINUOUS
10
131.099
20
-163.02
11
131.384
21
-163.163
0
LINE
8
BLACK
6
CONTINUOUS
10
131.384
20
-163.163
11
131.956
21
-163.163
0
LINE
8
BLACK
6
CONTINUOUS
10
131.956
20
-163.163
11
132.241
21
-163.02
0
LINE
8
BLACK
6
CONTINUOUS
10
132.241
20
-163.02
11
132.384
21
-162.735
0
LINE
8
BLACK
6
CONTINUOUS
10
132.384
20
-162.735
11
132.384
21
-162.592
0
LINE
8
BLACK
6
CONTINUOUS
10
132.384
20
-162.592
11
132.241
21
-162.306
0
LINE
8
BLACK
6
CONTINUOUS
10
132.241
20
-162.306
11
131.956
21
-162.163
0
LINE
8
BLACK
6
CONTINUOUS
10
131.956
20
-162.163
11
131.527
21
-162.163
0
LINE
8
BLACK
6
CONTINUOUS
10
131.527
20
-162.163
11
131.241
21
-162.02
0
LINE
8
BLACK
6
CONTINUOUS
10
131.241
20
-162.02
11
131.099
21
-161.735
0
LINE
8
BLACK
6
CONTINUOUS
10
131.099
20
-161.735
11
131.099
21
-161.592
0
LINE
8
BLACK
6
CONTINUOUS
10
131.099
20
-161.592
11
131.241
21
-161.306
0
LINE
8
BLACK
6
CONTINUOUS
10
131.241
20
-161.306
11
131.527
21
-161.163
0
LINE
8
BLACK
6
CONTINUOUS
10
131.527
20
-161.163
11
131.956
21
-161.163
0
LINE
8
BLACK
6
CONTINUOUS
10
131.956
20
-161.163
11
132.241
21
-161.306
0
LINE
8
BLACK
6
CONTINUOUS
10
133.384
20
-164.306
11
133.527
21
-164.163
0
LINE
8
BLACK
6
CONTINUOUS
10
133.527
20
-164.163
11
133.813
21
-163.735
0
LINE
8
BLACK
6
CONTINUOUS
10
133.813
20
-163.735
11
133.956
21
-163.449
0
LINE
8
BLACK
6
CONTINUOUS
10
133.956
20
-163.449
11
134.099
21
-163.02
0
LINE
8
BLACK
6
CONTINUOUS
10
134.099
20
-163.02
11
134.241
21
-162.306
0
LINE
8
BLACK
6
CONTINUOUS
10
134.241
20
-162.306
11
134.241
21
-161.735
0
LINE
8
BLACK
6
CONTINUOUS
10
134.241
20
-161.735
11
134.099
21
-161.02
0
LINE
8
BLACK
6
CONTINUOUS
10
134.099
20
-161.02
11
133.956
21
-160.592
0
LINE
8
BLACK
6
CONTINUOUS
10
133.956
20
-160.592
11
133.813
21
-160.306
0
LINE
8
BLACK
6
CONTINUOUS
10
133.813
20
-160.306
11
133.527
21
-159.877
0
LINE
8
BLACK
6
CONTINUOUS
10
133.527
20
-159.877
11
133.384
21
-159.735
0
CIRCLE
8
BLACK
10
67.92
20
-165.766
40
0.6
0
LINE
8
BLACK
6
CONTINUOUS
10
72.9557
20
-167.123
11
71.2414
21
-167.123
0
LINE
8
BLACK
6
CONTINUOUS
10
72.0986
20
-167.123
11
72.0986
21
-164.123
0
LINE
8
BLACK
6
CONTINUOUS
10
72.0986
20
-164.123
11
71.8129
21
-164.552
0
LINE
8
BLACK
6
CONTINUOUS
10
71.8129
20
-164.552
11
71.5271
21
-164.837
0
LINE
8
BLACK
6
CONTINUOUS
10
71.5271
20
-164.837
11
71.2414
21
-164.98
0
LINE
8
BLACK
6
CONTINUOUS
10
74.2414
20
-166.837
11
74.3843
21
-166.98
0
LINE
8
BLACK
6
CONTINUOUS
10
74.3843
20
-166.98
11
74.2414
21
-167.123
0
LINE
8
BLACK
6
CONTINUOUS
10
74.2414
20
-167.123
11
74.0986
21
-166.98
0
LINE
8
BLACK
6
CONTINUOUS
10
74.0986
20
-166.98
11
74.2414
21
-166.837
0
LINE
8
BLACK
6
CONTINUOUS
10
74.2414
20
-166.837
11
74.2414
21
-167.123
0
LINE
8
BLACK
6
CONTINUOUS
10
75.5271
20
-164.409
11
75.67
21
-164.266
0
LINE
8
BLACK
6
CONTINUOUS
10
75.67
20
-164.266
11
75.9557
21
-164.123
0
LINE
8
BLACK
6
CONTINUOUS
10
75.9557
20
-164.123
11
76.67
21
-164.123
0
LINE
8
BLACK
6
CONTINUOUS
10
76.67
20
-164.123
11
76.9557
21
-164.266
0
LINE
8
BLACK
6
CONTINUOUS
10
76.9557
20
-164.266
11
77.0986
21
-164.409
0
LINE
8
BLACK
6
CONTINUOUS
10
77.0986
20
-164.409
11
77.2414
21
-164.695
0
LINE
8
BLACK
6
CONTINUOUS
10
77.2414
20
-164.695
11
77.2414
21
-164.98
0
LINE
8
BLACK
6
CONTINUOUS
10
77.2414
20
-164.98
11
77.0986
21
-165.409
0
LINE
8
BLACK
6
CONTINUOUS
10
77.0986
20
-165.409
11
75.3843
21
-167.123
0
LINE
8
BLACK
6
CONTINUOUS
10
75.3843
20
-167.123
11
77.2414
21
-167.123
0
LINE
8
BLACK
6
CONTINUOUS
10
79.0986
20
-164.123
11
79.3843
21
-164.123
0
LINE
8
BLACK
6
CONTINUOUS
10
79.3843
20
-164.123
11
79.67
21
-164.266
0
LINE
8
BLACK
6
CONTINUOUS
10
79.67
20
-164.266
11
79.8129
21
-164.409
0
LINE
8
BLACK
6
CONTINUOUS
10
79.8129
20
-164.409
11
79.9557
21
-164.695
0
LINE
8
BLACK
6
CONTINUOUS
10
79.9557
20
-164.695
11
80.0986
21
-165.266
0
LINE
8
BLACK
6
CONTINUOUS
10
80.0986
20
-165.266
11
80.0986
21
-165.98
0
LINE
8
BLACK
6
CONTINUOUS
10
80.0986
20
-165.98
11
79.9557
21
-166.552
0
LINE
8
BLACK
6
CONTINUOUS
10
79.9557
20
-166.552
11
79.8129
21
-166.837
0
LINE
8
BLACK
6
CONTINUOUS
10
79.8129
20
-166.837
11
79.67
21
-166.98
0
LINE
8
BLACK
6
CONTINUOUS
10
79.67
20
-166.98
11
79.3843
21
-167.123
0
LINE
8
BLACK
6
CONTINUOUS
10
79.3843
20
-167.123
11
79.0986
21
-167.123
0
LINE
8
BLACK
6
CONTINUOUS
10
79.0986
20
-167.123
11
78.8129
21
-166.98
0
LINE
8
BLACK
6
CONTINUOUS
10
78.8129
20
-166.98
11
78.67
21
-166.837
0
LINE
8
BLACK
6
CONTINUOUS
10
78.67
20
-166.837
11
78.5271
21
-166.552
0
LINE
8
BLACK
6
CONTINUOUS
10
78.5271
20
-166.552
11
78.3843
21
-165.98
0
LINE
8
BLACK
6
CONTINUOUS
10
78.3843
20
-165.98
11
78.3843
21
-165.266
0
LINE
8
BLACK
6
CONTINUOUS
10
78.3843
20
-165.266
11
78.5271
21
-164.695
0
LINE
8
BLACK
6
CONTINUOUS
10
78.5271
20
-164.695
11
78.67
21
-164.409
0
LINE
8
BLACK
6
CONTINUOUS
10
78.67
20
-164.409
11
78.8129
21
-164.266
0
LINE
8
BLACK
6
CONTINUOUS
10
78.8129
20
-164.266
11
79.0986
21
-164.123
0
LINE
8
BLACK
6
CONTINUOUS
10
81.3843
20
-167.123
11
81.3843
21
-165.123
0
LINE
8
BLACK
6
CONTINUOUS
10
81.3843
20
-165.409
11
81.5271
21
-165.266
0
LINE
8
BLACK
6
CONTINUOUS
10
81.5271
20
-165.266
11
81.8129
21
-165.123
0
LINE
8
BLACK
6
CONTINUOUS
10
81.8129
20
-165.123
11
82.2414
21
-165.123
0
LINE
8
BLACK
6
CONTINUOUS
10
82.2414
20
-165.123
11
82.5271
21
-165.266
0
LINE
8
BLACK
6
CONTINUOUS
10
82.5271
20
-165.266
11
82.67
21
-165.552
0
LINE
8
BLACK
6
CONTINUOUS
10
82.67
20
-165.552
11
82.67
21
-167.123
0
LINE
8
BLACK
6
CONTINUOUS
10
82.67
20
-165.552
11
82.8129
21
-165.266
0
LINE
8
BLACK
6
CONTINUOUS
10
82.8129
20
-165.266
11
83.0986
21
-165.123
0
LINE
8
BLACK
6
CONTINUOUS
10
83.0986
20
-165.123
11
83.5271
21
-165.123
0
LINE
8
BLACK
6
CONTINUOUS
10
83.5271
20
-165.123
11
83.8129
21
-165.266
0
LINE
8
BLACK
6
CONTINUOUS
10
83.8129
20
-165.266
11
83.9557
21
-165.552
0
LINE
8
BLACK
6
CONTINUOUS
10
83.9557
20
-165.552
11
83.9557
21
-167.123
0
LINE
8
BLACK
6
CONTINUOUS
10
85.3843
20
-167.123
11
85.3843
21
-165.123
0
LINE
8
BLACK
6
CONTINUOUS
10
85.3843
20
-165.409
11
85.5271
21
-165.266
0
LINE
8
BLACK
6
CONTINUOUS
10
85.5271
20
-165.266
11
85.8129
21
-165.123
0
LINE
8
BLACK
6
CONTINUOUS
10
85.8129
20
-165.123
11
86.2414
21
-165.123
0
LINE
8
BLACK
6
CONTINUOUS
10
86.2414
20
-165.123
11
86.5271
21
-165.266
0
LINE
8
BLACK
6
CONTINUOUS
10
86.5271
20
-165.266
11
86.67
21
-165.552
0
LINE
8
BLACK
6
CONTINUOUS
10
86.67
20
-165.552
11
86.67
21
-167.123
0
LINE
8
BLACK
6
CONTINUOUS
10
86.67
20
-165.552
11
86.8129
21
-165.266
0
LINE
8
BLACK
6
CONTINUOUS
10
86.8129
20
-165.266
11
87.0986
21
-165.123
0
LINE
8
BLACK
6
CONTINUOUS
10
87.0986
20
-165.123
11
87.5271
21
-165.123
0
LINE
8
BLACK
6
CONTINUOUS
10
87.5271
20
-165.123
11
87.8129
21
-165.266
0
LINE
8
BLACK
6
CONTINUOUS
10
87.8129
20
-165.266
11
87.9557
21
-165.552
0
LINE
8
BLACK
6
CONTINUOUS
10
87.9557
20
-165.552
11
87.9557
21
-167.123
0
LINE
8
BLACK
6
CONTINUOUS
10
93.8129
20
-163.98
11
91.2414
21
-167.837
0
LINE
8
BLACK
6
CONTINUOUS
10
97.67
20
-164.123
11
97.9557
21
-164.123
0
LINE
8
BLACK
6
CONTINUOUS
10
97.9557
20
-164.123
11
98.2414
21
-164.266
0
LINE
8
BLACK
6
CONTINUOUS
10
98.2414
20
-164.266
11
98.3843
21
-164.409
0
LINE
8
BLACK
6
CONTINUOUS
10
98.3843
20
-164.409
11
98.5271
21
-164.695
0
LINE
8
BLACK
6
CONTINUOUS
10
98.5271
20
-164.695
11
98.67
21
-165.266
0
LINE
8
BLACK
6
CONTINUOUS
10
98.67
20
-165.266
11
98.67
21
-165.98
0
LINE
8
BLACK
6
CONTINUOUS
10
98.67
20
-165.98
11
98.5271
21
-166.552
0
LINE
8
BLACK
6
CONTINUOUS
10
98.5271
20
-166.552
11
98.3843
21
-166.837
0
LINE
8
BLACK
6
CONTINUOUS
10
98.3843
20
-166.837
11
98.2414
21
-166.98
0
LINE
8
BLACK
6
CONTINUOUS
10
98.2414
20
-166.98
11
97.9557
21
-167.123
0
LINE
8
BLACK
6
CONTINUOUS
10
97.9557
20
-167.123
11
97.67
21
-167.123
0
LINE
8
BLACK
6
CONTINUOUS
10
97.67
20
-167.123
11
97.3843
21
-166.98
0
LINE
8
BLACK
6
CONTINUOUS
10
97.3843
20
-166.98
11
97.2414
21
-166.837
0
LINE
8
BLACK
6
CONTINUOUS
10
97.2414
20
-166.837
11
97.0986
21
-166.552
0
LINE
8
BLACK
6
CONTINUOUS
10
97.0986
20
-166.552
11
96.9557
21
-165.98
0
LINE
8
BLACK
6
CONTINUOUS
10
96.9557
20
-165.98
11
96.9557
21
-165.266
0
LINE
8
BLACK
6
CONTINUOUS
10
96.9557
20
-165.266
11
97.0986
21
-164.695
0
LINE
8
BLACK
6
CONTINUOUS
10
97.0986
20
-164.695
11
97.2414
21
-164.409
0
LINE
8
BLACK
6
CONTINUOUS
10
97.2414
20
-164.409
11
97.3843
21
-164.266
0
LINE
8
BLACK
6
CONTINUOUS
10
97.3843
20
-164.266
11
97.67
21
-164.123
0
LINE
8
BLACK
6
CONTINUOUS
10
99.9557
20
-166.837
11
100.099
21
-166.98
0
LINE
8
BLACK
6
CONTINUOUS
10
100.099
20
-166.98
11
99.9557
21
-167.123
0
LINE
8
BLACK
6
CONTINUOUS
10
99.9557
20
-167.123
11
99.8129
21
-166.98
0
LINE
8
BLACK
6
CONTINUOUS
10
99.8129
20
-166.98
11
99.9557
21
-166.837
0
LINE
8
BLACK
6
CONTINUOUS
10
99.9557
20
-166.837
11
99.9557
21
-167.123
0
LINE
8
BLACK
6
CONTINUOUS
10
101.956
20
-164.123
11
102.241
21
-164.123
0
LINE
8
BLACK
6
CONTINUOUS
10
102.241
20
-164.123
11
102.527
21
-164.266
0
LINE
8
BLACK
6
CONTINUOUS
10
102.527
20
-164.266
11
102.67
21
-164.409
0
LINE
8
BLACK
6
CONTINUOUS
10
102.67
20
-164.409
11
102.813
21
-164.695
0
LINE
8
BLACK
6
CONTINUOUS
10
102.813
20
-164.695
11
102.956
21
-165.266
0
LINE
8
BLACK
6
CONTINUOUS
10
102.956
20
-165.266
11
102.956
21
-165.98
0
LINE
8
BLACK
6
CONTINUOUS
10
102.956
20
-165.98
11
102.813
21
-166.552
0
LINE
8
BLACK
6
CONTINUOUS
10
102.813
20
-166.552
11
102.67
21
-166.837
0
LINE
8
BLACK
6
CONTINUOUS
10
102.67
20
-166.837
11
102.527
21
-166.98
0
LINE
8
BLACK
6
CONTINUOUS
10
102.527
20
-166.98
11
102.241
21
-167.123
0
LINE
8
BLACK
6
CONTINUOUS
10
102.241
20
-167.123
11
101.956
21
-167.123
0
LINE
8
BLACK
6
CONTINUOUS
10
101.956
20
-167.123
11
101.67
21
-166.98
0
LINE
8
BLACK
6
CONTINUOUS
10
101.67
20
-166.98
11
101.527
21
-166.837
0
LINE
8
BLACK
6
CONTINUOUS
10
101.527
20
-166.837
11
101.384
21
-166.552
0
LINE
8
BLACK
6
CONTINUOUS
10
101.384
20
-166.552
11
101.241
21
-165.98
0
LINE
8
BLACK
6
CONTINUOUS
10
101.241
20
-165.98
11
101.241
21
-165.266
0
LINE
8
BLACK
6
CONTINUOUS
10
101.241
20
-165.266
11
101.384
21
-164.695
0
LINE
8
BLACK
6
CONTINUOUS
10
101.384
20
-164.695
11
101.527
21
-164.409
0
LINE
8
BLACK
6
CONTINUOUS
10
101.527
20
-164.409
11
101.67
21
-164.266
0
LINE
8
BLACK
6
CONTINUOUS
10
101.67
20
-164.266
11
101.956
21
-164.123
0
LINE
8
BLACK
6
CONTINUOUS
10
105.527
20
-165.123
11
105.527
21
-167.123
0
LINE
8
BLACK
6
CONTINUOUS
10
104.813
20
-163.98
11
104.099
21
-166.123
0
LINE
8
BLACK
6
CONTINUOUS
10
104.099
20
-166.123
11
105.956
21
-166.123
0
LINE
8
BLACK
6
CONTINUOUS
10
106.813
20
-164.123
11
108.813
21
-164.123
0
LINE
8
BLACK
6
CONTINUOUS
10
108.813
20
-164.123
11
107.527
21
-167.123
0
LINE
8
BLACK
6
CONTINUOUS
10
109.813
20
-164.123
11
109.813
21
-164.695
0
LINE
8
BLACK
6
CONTINUOUS
10
110.956
20
-164.123
11
110.956
21
-164.695
0
LINE
8
BLACK
6
CONTINUOUS
10
115.384
20
-168.266
11
115.241
21
-168.123
0
LINE
8
BLACK
6
CONTINUOUS
10
115.241
20
-168.123
11
114.956
21
-167.695
0
LINE
8
BLACK
6
CONTINUOUS
10
114.956
20
-167.695
11
114.813
21
-167.409
0
LINE
8
BLACK
6
CONTINUOUS
10
114.813
20
-167.409
11
114.67
21
-166.98
0
LINE
8
BLACK
6
CONTINUOUS
10
114.67
20
-166.98
11
114.527
21
-166.266
0
LINE
8
BLACK
6
CONTINUOUS
10
114.527
20
-166.266
11
114.527
21
-165.695
0
LINE
8
BLACK
6
CONTINUOUS
10
114.527
20
-165.695
11
114.67
21
-164.98
0
LINE
8
BLACK
6
CONTINUOUS
10
114.67
20
-164.98
11
114.813
21
-164.552
0
LINE
8
BLACK
6
CONTINUOUS
10
114.813
20
-164.552
11
114.956
21
-164.266
0
LINE
8
BLACK
6
CONTINUOUS
10
114.956
20
-164.266
11
115.241
21
-163.837
0
LINE
8
BLACK
6
CONTINUOUS
10
115.241
20
-163.837
11
115.384
21
-163.695
0
LINE
8
BLACK
6
CONTINUOUS
10
116.384
20
-164.409
11
116.527
21
-164.266
0
LINE
8
BLACK
6
CONTINUOUS
10
116.527
20
-164.266
11
116.813
21
-164.123
0
LINE
8
BLACK
6
CONTINUOUS
10
116.813
20
-164.123
11
117.527
21
-164.123
0
LINE
8
BLACK
6
CONTINUOUS
10
117.527
20
-164.123
11
117.813
21
-164.266
0
LINE
8
BLACK
6
CONTINUOUS
10
117.813
20
-164.266
11
117.956
21
-164.409
0
LINE
8
BLACK
6
CONTINUOUS
10
117.956
20
-164.409
11
118.099
21
-164.695
0
LINE
8
BLACK
6
CONTINUOUS
10
118.099
20
-164.695
11
118.099
21
-164.98
0
LINE
8
BLACK
6
CONTINUOUS
10
118.099
20
-164.98
11
117.956
21
-165.409
0
LINE
8
BLACK
6
CONTINUOUS
10
117.956
20
-165.409
11
116.241
21
-167.123
0
LINE
8
BLACK
6
CONTINUOUS
10
116.241
20
-167.123
11
118.099
21
-167.123
0
LINE
8
BLACK
6
CONTINUOUS
10
119.956
20
-164.123
11
120.241
21
-164.123
0
LINE
8
BLACK
6
CONTINUOUS
10
120.241
20
-164.123
11
120.527
21
-164.266
0
LINE
8
BLACK
6
CONTINUOUS
10
120.527
20
-164.266
11
120.67
21
-164.409
0
LINE
8
BLACK
6
CONTINUOUS
10
120.67
20
-164.409
11
120.813
21
-164.695
0
LINE
8
BLACK
6
CONTINUOUS
10
120.813
20
-164.695
11
120.956
21
-165.266
0
LINE
8
BLACK
6
CONTINUOUS
10
120.956
20
-165.266
11
120.956
21
-165.98
0
LINE
8
BLACK
6
CONTINUOUS
10
120.956
20
-165.98
11
120.813
21
-166.552
0
LINE
8
BLACK
6
CONTINUOUS
10
120.813
20
-166.552
11
120.67
21
-166.837
0
LINE
8
BLACK
6
CONTINUOUS
10
120.67
20
-166.837
11
120.527
21
-166.98
0
LINE
8
BLACK
6
CONTINUOUS
10
120.527
20
-166.98
11
120.241
21
-167.123
0
LINE
8
BLACK
6
CONTINUOUS
10
120.241
20
-167.123
11
119.956
21
-167.123
0
LINE
8
BLACK
6
CONTINUOUS
10
119.956
20
-167.123
11
119.67
21
-166.98
0
LINE
8
BLACK
6
CONTINUOUS
10
119.67
20
-166.98
11
119.527
21
-166.837
0
LINE
8
BLACK
6
CONTINUOUS
10
119.527
20
-166.837
11
119.384
21
-166.552
0
LINE
8
BLACK
6
CONTINUOUS
10
119.384
20
-166.552
11
119.241
21
-165.98
0
LINE
8
BLACK
6
CONTINUOUS
10
119.241
20
-165.98
11
119.241
21
-165.266
0
LINE
8
BLACK
6
CONTINUOUS
10
119.241
20
-165.266
11
119.384
21
-164.695
0
LINE
8
BLACK
6
CONTINUOUS
10
119.384
20
-164.695
11
119.527
21
-164.409
0
LINE
8
BLACK
6
CONTINUOUS
10
119.527
20
-164.409
11
119.67
21
-164.266
0
LINE
8
BLACK
6
CONTINUOUS
10
119.67
20
-164.266
11
119.956
21
-164.123
0
LINE
8
BLACK
6
CONTINUOUS
10
124.527
20
-167.123
11
124.527
21
-164.123
0
LINE
8
BLACK
6
CONTINUOUS
10
125.813
20
-167.123
11
125.813
21
-165.552
0
LINE
8
BLACK
6
CONTINUOUS
10
125.813
20
-165.552
11
125.67
21
-165.266
0
LINE
8
BLACK
6
CONTINUOUS
10
125.67
20
-165.266
11
125.384
21
-165.123
0
LINE
8
BLACK
6
CONTINUOUS
10
125.384
20
-165.123
11
124.956
21
-165.123
0
LINE
8
BLACK
6
CONTINUOUS
10
124.956
20
-165.123
11
124.67
21
-165.266
0
LINE
8
BLACK
6
CONTINUOUS
10
124.67
20
-165.266
11
124.527
21
-165.409
0
LINE
8
BLACK
6
CONTINUOUS
10
127.67
20
-167.123
11
127.384
21
-166.98
0
LINE
8
BLACK
6
CONTINUOUS
10
127.384
20
-166.98
11
127.241
21
-166.837
0
LINE
8
BLACK
6
CONTINUOUS
10
127.241
20
-166.837
11
127.099
21
-166.552
0
LINE
8
BLACK
6
CONTINUOUS
10
127.099
20
-166.552
11
127.099
21
-165.695
0
LINE
8
BLACK
6
CONTINUOUS
10
127.099
20
-165.695
11
127.241
21
-165.409
0
LINE
8
BLACK
6
CONTINUOUS
10
127.241
20
-165.409
11
127.384
21
-165.266
0
LINE
8
BLACK
6
CONTINUOUS
10
127.384
20
-165.266
11
127.67
21
-165.123
0
LINE
8
BLACK
6
CONTINUOUS
10
127.67
20
-165.123
11
128.099
21
-165.123
0
LINE
8
BLACK
6
CONTINUOUS
10
128.099
20
-165.123
11
128.384
21
-165.266
0
LINE
8
BLACK
6
CONTINUOUS
10
128.384
20
-165.266
11
128.527
21
-165.409
0
LINE
8
BLACK
6
CONTINUOUS
10
128.527
20
-165.409
11
128.67
21
-165.695
0
LINE
8
BLACK
6
CONTINUOUS
10
128.67
20
-165.695
11
128.67
21
-166.552
0
LINE
8
BLACK
6
CONTINUOUS
10
128.67
20
-166.552
11
128.527
21
-166.837
0
LINE
8
BLACK
6
CONTINUOUS
10
128.527
20
-166.837
11
128.384
21
-166.98
0
LINE
8
BLACK
6
CONTINUOUS
10
128.384
20
-166.98
11
128.099
21
-167.123
0
LINE
8
BLACK
6
CONTINUOUS
10
128.099
20
-167.123
11
127.67
21
-167.123
0
LINE
8
BLACK
6
CONTINUOUS
10
130.384
20
-167.123
11
130.099
21
-166.98
0
LINE
8
BLACK
6
CONTINUOUS
10
130.099
20
-166.98
11
129.956
21
-166.695
0
LINE
8
BLACK
6
CONTINUOUS
10
129.956
20
-166.695
11
129.956
21
-164.123
0
LINE
8
BLACK
6
CONTINUOUS
10
132.67
20
-166.98
11
132.384
21
-167.123
0
LINE
8
BLACK
6
CONTINUOUS
10
132.384
20
-167.123
11
131.813
21
-167.123
0
LINE
8
BLACK
6
CONTINUOUS
10
131.813
20
-167.123
11
131.527
21
-166.98
0
LINE
8
BLACK
6
CONTINUOUS
10
131.527
20
-166.98
11
131.384
21
-166.695
0
LINE
8
BLACK
6
CONTINUOUS
10
131.384
20
-166.695
11
131.384
21
-165.552
0
LINE
8
BLACK
6
CONTINUOUS
10
131.384
20
-165.552
11
131.527
21
-165.266
0
LINE
8
BLACK
6
CONTINUOUS
10
131.527
20
-165.266
11
131.813
21
-165.123
0
LINE
8
BLACK
6
CONTINUOUS
10
131.813
20
-165.123
11
132.384
21
-165.123
0
LINE
8
BLACK
6
CONTINUOUS
10
132.384
20
-165.123
11
132.67
21
-165.266
0
LINE
8
BLACK
6
CONTINUOUS
10
132.67
20
-165.266
11
132.813
21
-165.552
0
LINE
8
BLACK
6
CONTINUOUS
10
132.813
20
-165.552
11
132.813
21
-165.837
0
LINE
8
BLACK
6
CONTINUOUS
10
132.813
20
-165.837
11
131.384
21
-166.123
0
LINE
8
BLACK
6
CONTINUOUS
10
133.956
20
-166.98
11
134.241
21
-167.123
0
LINE
8
BLACK
6
CONTINUOUS
10
134.241
20
-167.123
11
134.813
21
-167.123
0
LINE
8
BLACK
6
CONTINUOUS
10
134.813
20
-167.123
11
135.099
21
-166.98
0
LINE
8
BLACK
6
CONTINUOUS
10
135.099
20
-166.98
11
135.241
21
-166.695
0
LINE
8
BLACK
6
CONTINUOUS
10
135.241
20
-166.695
11
135.241
21
-166.552
0
LINE
8
BLACK
6
CONTINUOUS
10
135.241
20
-166.552
11
135.099
21
-166.266
0
LINE
8
BLACK
6
CONTINUOUS
10
135.099
20
-166.266
11
134.813
21
-166.123
0
LINE
8
BLACK
6
CONTINUOUS
10
134.813
20
-166.123
11
134.384
21
-166.123
0
LINE
8
BLACK
6
CONTINUOUS
10
134.384
20
-166.123
11
134.099
21
-165.98
0
LINE
8
BLACK
6
CONTINUOUS
10
134.099
20
-165.98
11
133.956
21
-165.695
0
LINE
8
BLACK
6
CONTINUOUS
10
133.956
20
-165.695
11
133.956
21
-165.552
0
LINE
8
BLACK
6
CONTINUOUS
10
133.956
20
-165.552
11
134.099
21
-165.266
0
LINE
8
BLACK
6
CONTINUOUS
10
134.099
20
-165.266
11
134.384
21
-165.123
0
LINE
8
BLACK
6
CONTINUOUS
10
134.384
20
-165.123
11
134.813
21
-165.123
0
LINE
8
BLACK
6
CONTINUOUS
10
134.813
20
-165.123
11
135.099
21
-165.266
0
LINE
8
BLACK
6
CONTINUOUS
10
136.241
20
-168.266
11
136.384
21
-168.123
0
LINE
8
BLACK
6
CONTINUOUS
10
136.384
20
-168.123
11
136.67
21
-167.695
0
LINE
8
BLACK
6
CONTINUOUS
10
136.67
20
-167.695
11
136.813
21
-167.409
0
LINE
8
BLACK
6
CONTINUOUS
10
136.813
20
-167.409
11
136.956
21
-166.98
0
LINE
8
BLACK
6
CONTINUOUS
10
136.956
20
-166.98
11
137.099
21
-166.266
0
LINE
8
BLACK
6
CONTINUOUS
10
137.099
20
-166.266
11
137.099
21
-165.695
0
LINE
8
BLACK
6
CONTINUOUS
10
137.099
20
-165.695
11
136.956
21
-164.98
0
LINE
8
BLACK
6
CONTINUOUS
10
136.956
20
-164.98
11
136.813
21
-164.552
0
LINE
8
BLACK
6
CONTINUOUS
10
136.813
20
-164.552
11
136.67
21
-164.266
0
LINE
8
BLACK
6
CONTINUOUS
10
136.67
20
-164.266
11
136.384
21
-163.837
0
LINE
8
BLACK
6
CONTINUOUS
10
136.384
20
-163.837
11
136.241
21
-163.695
  0
ENDSEC
  0
EOF
