G04 #@! TF.GenerationSoftware,KiCad,Pcbnew,(5.1.5-0-10_14)*
G04 #@! TF.CreationDate,2021-03-15T05:57:46+10:00*
G04 #@! TF.ProjectId,OH - Left Console - 6 - Flight Control Systems Panel ,4f48202d-204c-4656-9674-20436f6e736f,rev?*
G04 #@! TF.SameCoordinates,Original*
G04 #@! TF.FileFunction,Soldermask,Top*
G04 #@! TF.FilePolarity,Negative*
%FSLAX46Y46*%
G04 Gerber Fmt 4.6, Leading zero omitted, Abs format (unit mm)*
G04 Created by KiCad (PCBNEW (5.1.5-0-10_14)) date 2021-03-15 05:57:46*
%MOMM*%
%LPD*%
G04 APERTURE LIST*
%ADD10C,0.100000*%
G04 APERTURE END LIST*
D10*
G36*
X72651007Y-146727582D02*
G01*
X73051563Y-146893498D01*
X73051565Y-146893499D01*
X73412056Y-147134371D01*
X73718629Y-147440944D01*
X73959501Y-147801435D01*
X73959502Y-147801437D01*
X74125418Y-148201993D01*
X74210000Y-148627219D01*
X74210000Y-149060781D01*
X74125418Y-149486007D01*
X73959502Y-149886563D01*
X73959501Y-149886565D01*
X73718629Y-150247056D01*
X73412056Y-150553629D01*
X73051565Y-150794501D01*
X73051564Y-150794502D01*
X73051563Y-150794502D01*
X72651007Y-150960418D01*
X72225781Y-151045000D01*
X71792219Y-151045000D01*
X71366993Y-150960418D01*
X70966437Y-150794502D01*
X70966436Y-150794502D01*
X70966435Y-150794501D01*
X70605944Y-150553629D01*
X70299371Y-150247056D01*
X70058499Y-149886565D01*
X70058498Y-149886563D01*
X69892582Y-149486007D01*
X69808000Y-149060781D01*
X69808000Y-148627219D01*
X69892582Y-148201993D01*
X70058498Y-147801437D01*
X70058499Y-147801435D01*
X70299371Y-147440944D01*
X70605944Y-147134371D01*
X70966435Y-146893499D01*
X70966437Y-146893498D01*
X71366993Y-146727582D01*
X71792219Y-146643000D01*
X72225781Y-146643000D01*
X72651007Y-146727582D01*
G37*
G36*
X106814007Y-133392582D02*
G01*
X107214563Y-133558498D01*
X107214565Y-133558499D01*
X107575056Y-133799371D01*
X107881629Y-134105944D01*
X108122501Y-134466435D01*
X108122502Y-134466437D01*
X108288418Y-134866993D01*
X108373000Y-135292219D01*
X108373000Y-135725781D01*
X108288418Y-136151007D01*
X108122502Y-136551563D01*
X108122501Y-136551565D01*
X107881629Y-136912056D01*
X107575056Y-137218629D01*
X107214565Y-137459501D01*
X107214564Y-137459502D01*
X107214563Y-137459502D01*
X106814007Y-137625418D01*
X106388781Y-137710000D01*
X105955219Y-137710000D01*
X105529993Y-137625418D01*
X105129437Y-137459502D01*
X105129436Y-137459502D01*
X105129435Y-137459501D01*
X104768944Y-137218629D01*
X104462371Y-136912056D01*
X104221499Y-136551565D01*
X104221498Y-136551563D01*
X104055582Y-136151007D01*
X103971000Y-135725781D01*
X103971000Y-135292219D01*
X104055582Y-134866993D01*
X104221498Y-134466437D01*
X104221499Y-134466435D01*
X104462371Y-134105944D01*
X104768944Y-133799371D01*
X105129435Y-133558499D01*
X105129437Y-133558498D01*
X105529993Y-133392582D01*
X105955219Y-133308000D01*
X106388781Y-133308000D01*
X106814007Y-133392582D01*
G37*
G36*
X86794547Y-135260326D02*
G01*
X86968156Y-135312990D01*
X86968158Y-135312991D01*
X87128155Y-135398511D01*
X87268397Y-135513603D01*
X87344595Y-135606452D01*
X87383489Y-135653844D01*
X87469010Y-135813843D01*
X87521674Y-135987452D01*
X87535000Y-136122756D01*
X87535000Y-136673243D01*
X87521674Y-136808548D01*
X87469010Y-136982157D01*
X87383489Y-137142156D01*
X87366452Y-137162915D01*
X87268397Y-137282397D01*
X87171729Y-137361729D01*
X87128156Y-137397489D01*
X86968157Y-137483010D01*
X86794548Y-137535674D01*
X86614000Y-137553456D01*
X86433453Y-137535674D01*
X86259844Y-137483010D01*
X86099845Y-137397489D01*
X86056272Y-137361729D01*
X85959604Y-137282397D01*
X85844513Y-137142157D01*
X85844512Y-137142155D01*
X85758990Y-136982157D01*
X85706326Y-136808548D01*
X85693000Y-136673244D01*
X85693000Y-136122757D01*
X85706326Y-135987453D01*
X85758990Y-135813844D01*
X85806061Y-135725781D01*
X85844511Y-135653845D01*
X85959603Y-135513603D01*
X86056271Y-135434271D01*
X86099844Y-135398511D01*
X86259843Y-135312990D01*
X86433452Y-135260326D01*
X86614000Y-135242544D01*
X86794547Y-135260326D01*
G37*
G36*
X89334547Y-135260326D02*
G01*
X89508156Y-135312990D01*
X89508158Y-135312991D01*
X89668155Y-135398511D01*
X89808397Y-135513603D01*
X89884595Y-135606452D01*
X89923489Y-135653844D01*
X90009010Y-135813843D01*
X90061674Y-135987452D01*
X90075000Y-136122756D01*
X90075000Y-136673243D01*
X90061674Y-136808548D01*
X90009010Y-136982157D01*
X89923489Y-137142156D01*
X89906452Y-137162915D01*
X89808397Y-137282397D01*
X89711729Y-137361729D01*
X89668156Y-137397489D01*
X89508157Y-137483010D01*
X89334548Y-137535674D01*
X89154000Y-137553456D01*
X88973453Y-137535674D01*
X88799844Y-137483010D01*
X88639845Y-137397489D01*
X88596272Y-137361729D01*
X88499604Y-137282397D01*
X88384513Y-137142157D01*
X88384512Y-137142155D01*
X88298990Y-136982157D01*
X88246326Y-136808548D01*
X88233000Y-136673244D01*
X88233000Y-136122757D01*
X88246326Y-135987453D01*
X88298990Y-135813844D01*
X88346061Y-135725781D01*
X88384511Y-135653845D01*
X88499603Y-135513603D01*
X88596271Y-135434271D01*
X88639844Y-135398511D01*
X88799843Y-135312990D01*
X88973452Y-135260326D01*
X89154000Y-135242544D01*
X89334547Y-135260326D01*
G37*
G36*
X84853561Y-135250966D02*
G01*
X84886383Y-135260923D01*
X84916632Y-135277092D01*
X84943148Y-135298852D01*
X84964908Y-135325368D01*
X84981077Y-135355617D01*
X84991034Y-135388439D01*
X84995000Y-135428713D01*
X84995000Y-137367287D01*
X84991034Y-137407561D01*
X84981077Y-137440383D01*
X84964908Y-137470632D01*
X84943148Y-137497148D01*
X84916632Y-137518908D01*
X84886383Y-137535077D01*
X84853561Y-137545034D01*
X84813287Y-137549000D01*
X83334713Y-137549000D01*
X83294439Y-137545034D01*
X83261617Y-137535077D01*
X83231368Y-137518908D01*
X83204852Y-137497148D01*
X83183092Y-137470632D01*
X83166923Y-137440383D01*
X83156966Y-137407561D01*
X83153000Y-137367287D01*
X83153000Y-135428713D01*
X83156966Y-135388439D01*
X83166923Y-135355617D01*
X83183092Y-135325368D01*
X83204852Y-135298852D01*
X83231368Y-135277092D01*
X83261617Y-135260923D01*
X83294439Y-135250966D01*
X83334713Y-135247000D01*
X84813287Y-135247000D01*
X84853561Y-135250966D01*
G37*
G36*
X74475547Y-134879326D02*
G01*
X74649156Y-134931990D01*
X74649158Y-134931991D01*
X74809155Y-135017511D01*
X74949397Y-135132603D01*
X75028729Y-135229271D01*
X75064489Y-135272844D01*
X75108732Y-135355617D01*
X75147803Y-135428713D01*
X75150010Y-135432843D01*
X75202674Y-135606452D01*
X75216000Y-135741756D01*
X75216000Y-136292243D01*
X75202674Y-136427548D01*
X75150010Y-136601157D01*
X75064489Y-136761156D01*
X75028729Y-136804729D01*
X74949397Y-136901397D01*
X74852729Y-136980729D01*
X74809156Y-137016489D01*
X74649157Y-137102010D01*
X74475548Y-137154674D01*
X74295000Y-137172456D01*
X74114453Y-137154674D01*
X73940844Y-137102010D01*
X73780845Y-137016489D01*
X73737272Y-136980729D01*
X73640604Y-136901397D01*
X73525513Y-136761157D01*
X73525512Y-136761155D01*
X73439990Y-136601157D01*
X73387326Y-136427548D01*
X73374000Y-136292244D01*
X73374000Y-135741757D01*
X73387326Y-135606453D01*
X73439990Y-135432844D01*
X73525511Y-135272845D01*
X73542548Y-135252085D01*
X73640603Y-135132603D01*
X73766388Y-135029375D01*
X73780844Y-135017511D01*
X73940843Y-134931990D01*
X74114452Y-134879326D01*
X74295000Y-134861544D01*
X74475547Y-134879326D01*
G37*
G36*
X77015547Y-134879326D02*
G01*
X77189156Y-134931990D01*
X77189158Y-134931991D01*
X77349155Y-135017511D01*
X77489397Y-135132603D01*
X77568729Y-135229271D01*
X77604489Y-135272844D01*
X77648732Y-135355617D01*
X77687803Y-135428713D01*
X77690010Y-135432843D01*
X77742674Y-135606452D01*
X77756000Y-135741756D01*
X77756000Y-136292243D01*
X77742674Y-136427548D01*
X77690010Y-136601157D01*
X77604489Y-136761156D01*
X77568729Y-136804729D01*
X77489397Y-136901397D01*
X77392729Y-136980729D01*
X77349156Y-137016489D01*
X77189157Y-137102010D01*
X77015548Y-137154674D01*
X76835000Y-137172456D01*
X76654453Y-137154674D01*
X76480844Y-137102010D01*
X76320845Y-137016489D01*
X76277272Y-136980729D01*
X76180604Y-136901397D01*
X76065513Y-136761157D01*
X76065512Y-136761155D01*
X75979990Y-136601157D01*
X75927326Y-136427548D01*
X75914000Y-136292244D01*
X75914000Y-135741757D01*
X75927326Y-135606453D01*
X75979990Y-135432844D01*
X76065511Y-135272845D01*
X76082548Y-135252085D01*
X76180603Y-135132603D01*
X76306388Y-135029375D01*
X76320844Y-135017511D01*
X76480843Y-134931990D01*
X76654452Y-134879326D01*
X76835000Y-134861544D01*
X77015547Y-134879326D01*
G37*
G36*
X72534561Y-134869966D02*
G01*
X72567383Y-134879923D01*
X72597632Y-134896092D01*
X72624148Y-134917852D01*
X72645908Y-134944368D01*
X72662077Y-134974617D01*
X72672034Y-135007439D01*
X72676000Y-135047713D01*
X72676000Y-136986287D01*
X72672034Y-137026561D01*
X72662077Y-137059383D01*
X72645908Y-137089632D01*
X72624148Y-137116148D01*
X72597632Y-137137908D01*
X72567383Y-137154077D01*
X72534561Y-137164034D01*
X72494287Y-137168000D01*
X71015713Y-137168000D01*
X70975439Y-137164034D01*
X70942617Y-137154077D01*
X70912368Y-137137908D01*
X70885852Y-137116148D01*
X70864092Y-137089632D01*
X70847923Y-137059383D01*
X70837966Y-137026561D01*
X70834000Y-136986287D01*
X70834000Y-135047713D01*
X70837966Y-135007439D01*
X70847923Y-134974617D01*
X70864092Y-134944368D01*
X70885852Y-134917852D01*
X70912368Y-134896092D01*
X70942617Y-134879923D01*
X70975439Y-134869966D01*
X71015713Y-134866000D01*
X72494287Y-134866000D01*
X72534561Y-134869966D01*
G37*
G36*
X107495547Y-125481326D02*
G01*
X107669156Y-125533990D01*
X107669158Y-125533991D01*
X107829155Y-125619511D01*
X107969397Y-125734603D01*
X108007345Y-125780844D01*
X108084489Y-125874844D01*
X108170010Y-126034843D01*
X108222674Y-126208452D01*
X108236000Y-126343756D01*
X108236000Y-126894243D01*
X108222674Y-127029548D01*
X108170010Y-127203157D01*
X108084489Y-127363156D01*
X108055581Y-127398380D01*
X107969397Y-127503397D01*
X107872729Y-127582729D01*
X107829156Y-127618489D01*
X107669157Y-127704010D01*
X107495548Y-127756674D01*
X107315000Y-127774456D01*
X107134453Y-127756674D01*
X106960844Y-127704010D01*
X106800845Y-127618489D01*
X106757272Y-127582729D01*
X106660604Y-127503397D01*
X106545513Y-127363157D01*
X106545512Y-127363155D01*
X106459990Y-127203157D01*
X106407326Y-127029548D01*
X106394000Y-126894244D01*
X106394000Y-126343757D01*
X106407326Y-126208453D01*
X106459990Y-126034844D01*
X106545511Y-125874845D01*
X106545512Y-125874844D01*
X106660603Y-125734603D01*
X106799219Y-125620845D01*
X106800844Y-125619511D01*
X106960843Y-125533990D01*
X107134452Y-125481326D01*
X107315000Y-125463544D01*
X107495547Y-125481326D01*
G37*
G36*
X105554561Y-125471966D02*
G01*
X105587383Y-125481923D01*
X105617632Y-125498092D01*
X105644148Y-125519852D01*
X105665908Y-125546368D01*
X105682077Y-125576617D01*
X105692034Y-125609439D01*
X105696000Y-125649713D01*
X105696000Y-127588287D01*
X105692034Y-127628561D01*
X105682077Y-127661383D01*
X105665908Y-127691632D01*
X105644148Y-127718148D01*
X105617632Y-127739908D01*
X105587383Y-127756077D01*
X105554561Y-127766034D01*
X105514287Y-127770000D01*
X104035713Y-127770000D01*
X103995439Y-127766034D01*
X103962617Y-127756077D01*
X103932368Y-127739908D01*
X103905852Y-127718148D01*
X103884092Y-127691632D01*
X103867923Y-127661383D01*
X103857966Y-127628561D01*
X103854000Y-127588287D01*
X103854000Y-125649713D01*
X103857966Y-125609439D01*
X103867923Y-125576617D01*
X103884092Y-125546368D01*
X103905852Y-125519852D01*
X103932368Y-125498092D01*
X103962617Y-125481923D01*
X103995439Y-125471966D01*
X104035713Y-125468000D01*
X105514287Y-125468000D01*
X105554561Y-125471966D01*
G37*
G36*
X75999547Y-125227326D02*
G01*
X76173156Y-125279990D01*
X76173158Y-125279991D01*
X76333155Y-125365511D01*
X76473397Y-125480603D01*
X76526668Y-125545515D01*
X76588489Y-125620844D01*
X76674010Y-125780843D01*
X76726674Y-125954452D01*
X76740000Y-126089756D01*
X76740000Y-126640243D01*
X76726674Y-126775548D01*
X76674010Y-126949157D01*
X76588489Y-127109156D01*
X76552729Y-127152729D01*
X76473397Y-127249397D01*
X76376729Y-127328729D01*
X76333156Y-127364489D01*
X76173157Y-127450010D01*
X75999548Y-127502674D01*
X75819000Y-127520456D01*
X75638453Y-127502674D01*
X75464844Y-127450010D01*
X75304845Y-127364489D01*
X75261272Y-127328729D01*
X75164604Y-127249397D01*
X75049513Y-127109157D01*
X75049512Y-127109155D01*
X74963990Y-126949157D01*
X74911326Y-126775548D01*
X74898000Y-126640244D01*
X74898000Y-126089757D01*
X74911326Y-125954453D01*
X74963990Y-125780844D01*
X75049511Y-125620845D01*
X75078419Y-125585620D01*
X75164603Y-125480603D01*
X75290388Y-125377375D01*
X75304844Y-125365511D01*
X75464843Y-125279990D01*
X75638452Y-125227326D01*
X75819000Y-125209544D01*
X75999547Y-125227326D01*
G37*
G36*
X86032547Y-125227326D02*
G01*
X86206156Y-125279990D01*
X86206158Y-125279991D01*
X86366155Y-125365511D01*
X86506397Y-125480603D01*
X86559668Y-125545515D01*
X86621489Y-125620844D01*
X86707010Y-125780843D01*
X86759674Y-125954452D01*
X86773000Y-126089756D01*
X86773000Y-126640243D01*
X86759674Y-126775548D01*
X86707010Y-126949157D01*
X86621489Y-127109156D01*
X86585729Y-127152729D01*
X86506397Y-127249397D01*
X86409729Y-127328729D01*
X86366156Y-127364489D01*
X86206157Y-127450010D01*
X86032548Y-127502674D01*
X85852000Y-127520456D01*
X85671453Y-127502674D01*
X85497844Y-127450010D01*
X85337845Y-127364489D01*
X85294272Y-127328729D01*
X85197604Y-127249397D01*
X85082513Y-127109157D01*
X85082512Y-127109155D01*
X84996990Y-126949157D01*
X84944326Y-126775548D01*
X84931000Y-126640244D01*
X84931000Y-126089757D01*
X84944326Y-125954453D01*
X84996990Y-125780844D01*
X85082511Y-125620845D01*
X85111419Y-125585620D01*
X85197603Y-125480603D01*
X85323388Y-125377375D01*
X85337844Y-125365511D01*
X85497843Y-125279990D01*
X85671452Y-125227326D01*
X85852000Y-125209544D01*
X86032547Y-125227326D01*
G37*
G36*
X96827547Y-125227326D02*
G01*
X97001156Y-125279990D01*
X97001158Y-125279991D01*
X97161155Y-125365511D01*
X97301397Y-125480603D01*
X97354668Y-125545515D01*
X97416489Y-125620844D01*
X97502010Y-125780843D01*
X97554674Y-125954452D01*
X97568000Y-126089756D01*
X97568000Y-126640243D01*
X97554674Y-126775548D01*
X97502010Y-126949157D01*
X97416489Y-127109156D01*
X97380729Y-127152729D01*
X97301397Y-127249397D01*
X97204729Y-127328729D01*
X97161156Y-127364489D01*
X97001157Y-127450010D01*
X96827548Y-127502674D01*
X96647000Y-127520456D01*
X96466453Y-127502674D01*
X96292844Y-127450010D01*
X96132845Y-127364489D01*
X96089272Y-127328729D01*
X95992604Y-127249397D01*
X95877513Y-127109157D01*
X95877512Y-127109155D01*
X95791990Y-126949157D01*
X95739326Y-126775548D01*
X95726000Y-126640244D01*
X95726000Y-126089757D01*
X95739326Y-125954453D01*
X95791990Y-125780844D01*
X95877511Y-125620845D01*
X95906419Y-125585620D01*
X95992603Y-125480603D01*
X96118388Y-125377375D01*
X96132844Y-125365511D01*
X96292843Y-125279990D01*
X96466452Y-125227326D01*
X96647000Y-125209544D01*
X96827547Y-125227326D01*
G37*
G36*
X94886561Y-125217966D02*
G01*
X94919383Y-125227923D01*
X94949632Y-125244092D01*
X94976148Y-125265852D01*
X94997908Y-125292368D01*
X95014077Y-125322617D01*
X95024034Y-125355439D01*
X95028000Y-125395713D01*
X95028000Y-127334287D01*
X95024034Y-127374561D01*
X95014077Y-127407383D01*
X94997908Y-127437632D01*
X94976148Y-127464148D01*
X94949632Y-127485908D01*
X94919383Y-127502077D01*
X94886561Y-127512034D01*
X94846287Y-127516000D01*
X93367713Y-127516000D01*
X93327439Y-127512034D01*
X93294617Y-127502077D01*
X93264368Y-127485908D01*
X93237852Y-127464148D01*
X93216092Y-127437632D01*
X93199923Y-127407383D01*
X93189966Y-127374561D01*
X93186000Y-127334287D01*
X93186000Y-125395713D01*
X93189966Y-125355439D01*
X93199923Y-125322617D01*
X93216092Y-125292368D01*
X93237852Y-125265852D01*
X93264368Y-125244092D01*
X93294617Y-125227923D01*
X93327439Y-125217966D01*
X93367713Y-125214000D01*
X94846287Y-125214000D01*
X94886561Y-125217966D01*
G37*
G36*
X84091561Y-125217966D02*
G01*
X84124383Y-125227923D01*
X84154632Y-125244092D01*
X84181148Y-125265852D01*
X84202908Y-125292368D01*
X84219077Y-125322617D01*
X84229034Y-125355439D01*
X84233000Y-125395713D01*
X84233000Y-127334287D01*
X84229034Y-127374561D01*
X84219077Y-127407383D01*
X84202908Y-127437632D01*
X84181148Y-127464148D01*
X84154632Y-127485908D01*
X84124383Y-127502077D01*
X84091561Y-127512034D01*
X84051287Y-127516000D01*
X82572713Y-127516000D01*
X82532439Y-127512034D01*
X82499617Y-127502077D01*
X82469368Y-127485908D01*
X82442852Y-127464148D01*
X82421092Y-127437632D01*
X82404923Y-127407383D01*
X82394966Y-127374561D01*
X82391000Y-127334287D01*
X82391000Y-125395713D01*
X82394966Y-125355439D01*
X82404923Y-125322617D01*
X82421092Y-125292368D01*
X82442852Y-125265852D01*
X82469368Y-125244092D01*
X82499617Y-125227923D01*
X82532439Y-125217966D01*
X82572713Y-125214000D01*
X84051287Y-125214000D01*
X84091561Y-125217966D01*
G37*
G36*
X74058561Y-125217966D02*
G01*
X74091383Y-125227923D01*
X74121632Y-125244092D01*
X74148148Y-125265852D01*
X74169908Y-125292368D01*
X74186077Y-125322617D01*
X74196034Y-125355439D01*
X74200000Y-125395713D01*
X74200000Y-127334287D01*
X74196034Y-127374561D01*
X74186077Y-127407383D01*
X74169908Y-127437632D01*
X74148148Y-127464148D01*
X74121632Y-127485908D01*
X74091383Y-127502077D01*
X74058561Y-127512034D01*
X74018287Y-127516000D01*
X72539713Y-127516000D01*
X72499439Y-127512034D01*
X72466617Y-127502077D01*
X72436368Y-127485908D01*
X72409852Y-127464148D01*
X72388092Y-127437632D01*
X72371923Y-127407383D01*
X72361966Y-127374561D01*
X72358000Y-127334287D01*
X72358000Y-125395713D01*
X72361966Y-125355439D01*
X72371923Y-125322617D01*
X72388092Y-125292368D01*
X72409852Y-125265852D01*
X72436368Y-125244092D01*
X72466617Y-125227923D01*
X72499439Y-125217966D01*
X72539713Y-125214000D01*
X74018287Y-125214000D01*
X74058561Y-125217966D01*
G37*
G36*
X107622547Y-117861326D02*
G01*
X107796156Y-117913990D01*
X107796158Y-117913991D01*
X107956155Y-117999511D01*
X108096397Y-118114603D01*
X108175729Y-118211271D01*
X108211489Y-118254844D01*
X108297010Y-118414843D01*
X108349674Y-118588452D01*
X108363000Y-118723756D01*
X108363000Y-119274243D01*
X108349674Y-119409548D01*
X108297010Y-119583157D01*
X108211489Y-119743156D01*
X108175729Y-119786729D01*
X108096397Y-119883397D01*
X107999729Y-119962729D01*
X107956156Y-119998489D01*
X107796157Y-120084010D01*
X107622548Y-120136674D01*
X107442000Y-120154456D01*
X107261453Y-120136674D01*
X107087844Y-120084010D01*
X106927845Y-119998489D01*
X106884272Y-119962729D01*
X106787604Y-119883397D01*
X106672513Y-119743157D01*
X106672512Y-119743155D01*
X106586990Y-119583157D01*
X106534326Y-119409548D01*
X106521000Y-119274244D01*
X106521000Y-118723757D01*
X106534326Y-118588453D01*
X106586990Y-118414844D01*
X106672511Y-118254845D01*
X106672512Y-118254844D01*
X106787603Y-118114603D01*
X106913388Y-118011375D01*
X106927844Y-117999511D01*
X107087843Y-117913990D01*
X107261452Y-117861326D01*
X107442000Y-117843544D01*
X107622547Y-117861326D01*
G37*
G36*
X105681561Y-117851966D02*
G01*
X105714383Y-117861923D01*
X105744632Y-117878092D01*
X105771148Y-117899852D01*
X105792908Y-117926368D01*
X105809077Y-117956617D01*
X105819034Y-117989439D01*
X105823000Y-118029713D01*
X105823000Y-119968287D01*
X105819034Y-120008561D01*
X105809077Y-120041383D01*
X105792908Y-120071632D01*
X105771148Y-120098148D01*
X105744632Y-120119908D01*
X105714383Y-120136077D01*
X105681561Y-120146034D01*
X105641287Y-120150000D01*
X104162713Y-120150000D01*
X104122439Y-120146034D01*
X104089617Y-120136077D01*
X104059368Y-120119908D01*
X104032852Y-120098148D01*
X104011092Y-120071632D01*
X103994923Y-120041383D01*
X103984966Y-120008561D01*
X103981000Y-119968287D01*
X103981000Y-118029713D01*
X103984966Y-117989439D01*
X103994923Y-117956617D01*
X104011092Y-117926368D01*
X104032852Y-117899852D01*
X104059368Y-117878092D01*
X104089617Y-117861923D01*
X104122439Y-117851966D01*
X104162713Y-117848000D01*
X105641287Y-117848000D01*
X105681561Y-117851966D01*
G37*
G36*
X93307000Y-117691000D02*
G01*
X91605000Y-117691000D01*
X91605000Y-115989000D01*
X93307000Y-115989000D01*
X93307000Y-117691000D01*
G37*
G36*
X100324228Y-116021703D02*
G01*
X100479100Y-116085853D01*
X100618481Y-116178985D01*
X100737015Y-116297519D01*
X100830147Y-116436900D01*
X100894297Y-116591772D01*
X100927000Y-116756184D01*
X100927000Y-116923816D01*
X100894297Y-117088228D01*
X100830147Y-117243100D01*
X100737015Y-117382481D01*
X100618481Y-117501015D01*
X100479100Y-117594147D01*
X100324228Y-117658297D01*
X100159816Y-117691000D01*
X99992184Y-117691000D01*
X99827772Y-117658297D01*
X99672900Y-117594147D01*
X99533519Y-117501015D01*
X99414985Y-117382481D01*
X99321853Y-117243100D01*
X99257703Y-117088228D01*
X99225000Y-116923816D01*
X99225000Y-116756184D01*
X99257703Y-116591772D01*
X99321853Y-116436900D01*
X99414985Y-116297519D01*
X99533519Y-116178985D01*
X99672900Y-116085853D01*
X99827772Y-116021703D01*
X99992184Y-115989000D01*
X100159816Y-115989000D01*
X100324228Y-116021703D01*
G37*
G36*
X87302547Y-115194326D02*
G01*
X87476156Y-115246990D01*
X87476158Y-115246991D01*
X87636155Y-115332511D01*
X87776397Y-115447603D01*
X87855729Y-115544271D01*
X87891489Y-115587844D01*
X87977010Y-115747843D01*
X88029674Y-115921452D01*
X88043000Y-116056756D01*
X88043000Y-116607243D01*
X88029674Y-116742548D01*
X87977010Y-116916157D01*
X87891489Y-117076156D01*
X87855729Y-117119729D01*
X87776397Y-117216397D01*
X87679729Y-117295729D01*
X87636156Y-117331489D01*
X87476157Y-117417010D01*
X87302548Y-117469674D01*
X87122000Y-117487456D01*
X86941453Y-117469674D01*
X86767844Y-117417010D01*
X86607845Y-117331489D01*
X86564272Y-117295729D01*
X86467604Y-117216397D01*
X86352513Y-117076157D01*
X86352512Y-117076155D01*
X86266990Y-116916157D01*
X86214326Y-116742548D01*
X86201000Y-116607244D01*
X86201000Y-116056757D01*
X86214326Y-115921453D01*
X86266990Y-115747844D01*
X86352511Y-115587845D01*
X86352512Y-115587844D01*
X86467603Y-115447603D01*
X86593388Y-115344375D01*
X86607844Y-115332511D01*
X86767843Y-115246990D01*
X86941452Y-115194326D01*
X87122000Y-115176544D01*
X87302547Y-115194326D01*
G37*
G36*
X84762547Y-115194326D02*
G01*
X84936156Y-115246990D01*
X84936158Y-115246991D01*
X85096155Y-115332511D01*
X85236397Y-115447603D01*
X85315729Y-115544271D01*
X85351489Y-115587844D01*
X85437010Y-115747843D01*
X85489674Y-115921452D01*
X85503000Y-116056756D01*
X85503000Y-116607243D01*
X85489674Y-116742548D01*
X85437010Y-116916157D01*
X85351489Y-117076156D01*
X85315729Y-117119729D01*
X85236397Y-117216397D01*
X85139729Y-117295729D01*
X85096156Y-117331489D01*
X84936157Y-117417010D01*
X84762548Y-117469674D01*
X84582000Y-117487456D01*
X84401453Y-117469674D01*
X84227844Y-117417010D01*
X84067845Y-117331489D01*
X84024272Y-117295729D01*
X83927604Y-117216397D01*
X83812513Y-117076157D01*
X83812512Y-117076155D01*
X83726990Y-116916157D01*
X83674326Y-116742548D01*
X83661000Y-116607244D01*
X83661000Y-116056757D01*
X83674326Y-115921453D01*
X83726990Y-115747844D01*
X83812511Y-115587845D01*
X83812512Y-115587844D01*
X83927603Y-115447603D01*
X84053388Y-115344375D01*
X84067844Y-115332511D01*
X84227843Y-115246990D01*
X84401452Y-115194326D01*
X84582000Y-115176544D01*
X84762547Y-115194326D01*
G37*
G36*
X82222547Y-115194326D02*
G01*
X82396156Y-115246990D01*
X82396158Y-115246991D01*
X82556155Y-115332511D01*
X82696397Y-115447603D01*
X82775729Y-115544271D01*
X82811489Y-115587844D01*
X82897010Y-115747843D01*
X82949674Y-115921452D01*
X82963000Y-116056756D01*
X82963000Y-116607243D01*
X82949674Y-116742548D01*
X82897010Y-116916157D01*
X82811489Y-117076156D01*
X82775729Y-117119729D01*
X82696397Y-117216397D01*
X82599729Y-117295729D01*
X82556156Y-117331489D01*
X82396157Y-117417010D01*
X82222548Y-117469674D01*
X82042000Y-117487456D01*
X81861453Y-117469674D01*
X81687844Y-117417010D01*
X81527845Y-117331489D01*
X81484272Y-117295729D01*
X81387604Y-117216397D01*
X81272513Y-117076157D01*
X81272512Y-117076155D01*
X81186990Y-116916157D01*
X81134326Y-116742548D01*
X81121000Y-116607244D01*
X81121000Y-116056757D01*
X81134326Y-115921453D01*
X81186990Y-115747844D01*
X81272511Y-115587845D01*
X81272512Y-115587844D01*
X81387603Y-115447603D01*
X81513388Y-115344375D01*
X81527844Y-115332511D01*
X81687843Y-115246990D01*
X81861452Y-115194326D01*
X82042000Y-115176544D01*
X82222547Y-115194326D01*
G37*
G36*
X80281561Y-115184966D02*
G01*
X80314383Y-115194923D01*
X80344632Y-115211092D01*
X80371148Y-115232852D01*
X80392908Y-115259368D01*
X80409077Y-115289617D01*
X80419034Y-115322439D01*
X80423000Y-115362713D01*
X80423000Y-117301287D01*
X80419034Y-117341561D01*
X80409077Y-117374383D01*
X80392908Y-117404632D01*
X80371148Y-117431148D01*
X80344632Y-117452908D01*
X80314383Y-117469077D01*
X80281561Y-117479034D01*
X80241287Y-117483000D01*
X78762713Y-117483000D01*
X78722439Y-117479034D01*
X78689617Y-117469077D01*
X78659368Y-117452908D01*
X78632852Y-117431148D01*
X78611092Y-117404632D01*
X78594923Y-117374383D01*
X78584966Y-117341561D01*
X78581000Y-117301287D01*
X78581000Y-115362713D01*
X78584966Y-115322439D01*
X78594923Y-115289617D01*
X78611092Y-115259368D01*
X78632852Y-115232852D01*
X78659368Y-115211092D01*
X78689617Y-115194923D01*
X78722439Y-115184966D01*
X78762713Y-115181000D01*
X80241287Y-115181000D01*
X80281561Y-115184966D01*
G37*
G36*
X93307000Y-114516000D02*
G01*
X91605000Y-114516000D01*
X91605000Y-112814000D01*
X93307000Y-112814000D01*
X93307000Y-114516000D01*
G37*
G36*
X100324228Y-112846703D02*
G01*
X100479100Y-112910853D01*
X100618481Y-113003985D01*
X100737015Y-113122519D01*
X100830147Y-113261900D01*
X100894297Y-113416772D01*
X100927000Y-113581184D01*
X100927000Y-113748816D01*
X100894297Y-113913228D01*
X100830147Y-114068100D01*
X100737015Y-114207481D01*
X100618481Y-114326015D01*
X100479100Y-114419147D01*
X100324228Y-114483297D01*
X100159816Y-114516000D01*
X99992184Y-114516000D01*
X99827772Y-114483297D01*
X99672900Y-114419147D01*
X99533519Y-114326015D01*
X99414985Y-114207481D01*
X99321853Y-114068100D01*
X99257703Y-113913228D01*
X99225000Y-113748816D01*
X99225000Y-113581184D01*
X99257703Y-113416772D01*
X99321853Y-113261900D01*
X99414985Y-113122519D01*
X99533519Y-113003985D01*
X99672900Y-112910853D01*
X99827772Y-112846703D01*
X99992184Y-112814000D01*
X100159816Y-112814000D01*
X100324228Y-112846703D01*
G37*
G36*
X106814007Y-108373582D02*
G01*
X107214563Y-108539498D01*
X107214565Y-108539499D01*
X107575056Y-108780371D01*
X107881629Y-109086944D01*
X108122501Y-109447435D01*
X108122502Y-109447437D01*
X108288418Y-109847993D01*
X108373000Y-110273219D01*
X108373000Y-110706781D01*
X108288418Y-111132007D01*
X108268002Y-111181295D01*
X108122501Y-111532565D01*
X107881629Y-111893056D01*
X107575056Y-112199629D01*
X107214565Y-112440501D01*
X107214564Y-112440502D01*
X107214563Y-112440502D01*
X106814007Y-112606418D01*
X106388781Y-112691000D01*
X105955219Y-112691000D01*
X105529993Y-112606418D01*
X105129437Y-112440502D01*
X105129436Y-112440502D01*
X105129435Y-112440501D01*
X104768944Y-112199629D01*
X104462371Y-111893056D01*
X104221499Y-111532565D01*
X104075998Y-111181295D01*
X104055582Y-111132007D01*
X103971000Y-110706781D01*
X103971000Y-110273219D01*
X104055582Y-109847993D01*
X104221498Y-109447437D01*
X104221499Y-109447435D01*
X104462371Y-109086944D01*
X104768944Y-108780371D01*
X105129435Y-108539499D01*
X105129437Y-108539498D01*
X105529993Y-108373582D01*
X105955219Y-108289000D01*
X106388781Y-108289000D01*
X106814007Y-108373582D01*
G37*
G36*
X72778007Y-108246582D02*
G01*
X73178563Y-108412498D01*
X73178565Y-108412499D01*
X73539056Y-108653371D01*
X73845629Y-108959944D01*
X73930488Y-109086945D01*
X74086502Y-109320437D01*
X74252418Y-109720993D01*
X74337000Y-110146219D01*
X74337000Y-110579781D01*
X74252418Y-111005007D01*
X74199812Y-111132008D01*
X74086501Y-111405565D01*
X73845629Y-111766056D01*
X73539056Y-112072629D01*
X73178565Y-112313501D01*
X73178564Y-112313502D01*
X73178563Y-112313502D01*
X72778007Y-112479418D01*
X72352781Y-112564000D01*
X71919219Y-112564000D01*
X71493993Y-112479418D01*
X71093437Y-112313502D01*
X71093436Y-112313502D01*
X71093435Y-112313501D01*
X70732944Y-112072629D01*
X70426371Y-111766056D01*
X70185499Y-111405565D01*
X70072188Y-111132008D01*
X70019582Y-111005007D01*
X69935000Y-110579781D01*
X69935000Y-110146219D01*
X70019582Y-109720993D01*
X70185498Y-109320437D01*
X70341512Y-109086945D01*
X70426371Y-108959944D01*
X70732944Y-108653371D01*
X71093435Y-108412499D01*
X71093437Y-108412498D01*
X71493993Y-108246582D01*
X71919219Y-108162000D01*
X72352781Y-108162000D01*
X72778007Y-108246582D01*
G37*
G36*
X93307000Y-111214000D02*
G01*
X91605000Y-111214000D01*
X91605000Y-109512000D01*
X93307000Y-109512000D01*
X93307000Y-111214000D01*
G37*
G36*
X100324228Y-109544703D02*
G01*
X100479100Y-109608853D01*
X100618481Y-109701985D01*
X100737015Y-109820519D01*
X100830147Y-109959900D01*
X100894297Y-110114772D01*
X100927000Y-110279184D01*
X100927000Y-110446816D01*
X100894297Y-110611228D01*
X100830147Y-110766100D01*
X100737015Y-110905481D01*
X100618481Y-111024015D01*
X100479100Y-111117147D01*
X100324228Y-111181297D01*
X100159816Y-111214000D01*
X99992184Y-111214000D01*
X99827772Y-111181297D01*
X99672900Y-111117147D01*
X99533519Y-111024015D01*
X99414985Y-110905481D01*
X99321853Y-110766100D01*
X99257703Y-110611228D01*
X99225000Y-110446816D01*
X99225000Y-110279184D01*
X99257703Y-110114772D01*
X99321853Y-109959900D01*
X99414985Y-109820519D01*
X99533519Y-109701985D01*
X99672900Y-109608853D01*
X99827772Y-109544703D01*
X99992184Y-109512000D01*
X100159816Y-109512000D01*
X100324228Y-109544703D01*
G37*
M02*
