G04 #@! TF.GenerationSoftware,KiCad,Pcbnew,(6.0.7-1)-1*
G04 #@! TF.CreationDate,2023-05-21T11:06:03+10:00*
G04 #@! TF.ProjectId,Arduino to Dual Serial,41726475-696e-46f2-9074-6f204475616c,rev?*
G04 #@! TF.SameCoordinates,Original*
G04 #@! TF.FileFunction,Soldermask,Top*
G04 #@! TF.FilePolarity,Negative*
%FSLAX46Y46*%
G04 Gerber Fmt 4.6, Leading zero omitted, Abs format (unit mm)*
G04 Created by KiCad (PCBNEW (6.0.7-1)-1) date 2023-05-21 11:06:03*
%MOMM*%
%LPD*%
G01*
G04 APERTURE LIST*
G04 Aperture macros list*
%AMRoundRect*
0 Rectangle with rounded corners*
0 $1 Rounding radius*
0 $2 $3 $4 $5 $6 $7 $8 $9 X,Y pos of 4 corners*
0 Add a 4 corners polygon primitive as box body*
4,1,4,$2,$3,$4,$5,$6,$7,$8,$9,$2,$3,0*
0 Add four circle primitives for the rounded corners*
1,1,$1+$1,$2,$3*
1,1,$1+$1,$4,$5*
1,1,$1+$1,$6,$7*
1,1,$1+$1,$8,$9*
0 Add four rect primitives between the rounded corners*
20,1,$1+$1,$2,$3,$4,$5,0*
20,1,$1+$1,$4,$5,$6,$7,0*
20,1,$1+$1,$6,$7,$8,$9,0*
20,1,$1+$1,$8,$9,$2,$3,0*%
G04 Aperture macros list end*
%ADD10C,1.727200*%
%ADD11O,1.727200X1.727200*%
%ADD12O,1.727200X2.032000*%
%ADD13R,1.700000X1.700000*%
%ADD14O,1.700000X1.700000*%
%ADD15R,1.800000X1.800000*%
%ADD16C,1.800000*%
%ADD17C,1.400000*%
%ADD18O,1.400000X1.400000*%
%ADD19C,1.600000*%
%ADD20RoundRect,0.250000X-0.620000X-0.845000X0.620000X-0.845000X0.620000X0.845000X-0.620000X0.845000X0*%
%ADD21O,1.740000X2.190000*%
%ADD22R,1.665000X1.665000*%
%ADD23C,1.665000*%
%ADD24R,1.600000X1.600000*%
%ADD25O,1.600000X1.600000*%
G04 APERTURE END LIST*
D10*
X197358000Y-114046000D03*
D11*
X199898000Y-114046000D03*
X197358000Y-111506000D03*
X199898000Y-111506000D03*
X197358000Y-108966000D03*
X199898000Y-108966000D03*
X197358000Y-106426000D03*
X199898000Y-106426000D03*
X197358000Y-103886000D03*
X199898000Y-103886000D03*
X197358000Y-101346000D03*
X199898000Y-101346000D03*
X197358000Y-98806000D03*
X199898000Y-98806000D03*
X197358000Y-96266000D03*
X199898000Y-96266000D03*
X197358000Y-93726000D03*
X199898000Y-93726000D03*
X197358000Y-91186000D03*
X199898000Y-91186000D03*
X197358000Y-88646000D03*
X199898000Y-88646000D03*
X197358000Y-86106000D03*
X199898000Y-86106000D03*
X197358000Y-83566000D03*
X199898000Y-83566000D03*
X197358000Y-81026000D03*
X199898000Y-81026000D03*
X197358000Y-78486000D03*
X199898000Y-78486000D03*
X197358000Y-75946000D03*
X199898000Y-75946000D03*
X197358000Y-73406000D03*
X199898000Y-73406000D03*
X197358000Y-70866000D03*
X199898000Y-70866000D03*
D12*
X131318000Y-119126000D03*
X133858000Y-119126000D03*
X136398000Y-119126000D03*
X138938000Y-119126000D03*
X141478000Y-119126000D03*
X144018000Y-119126000D03*
X146558000Y-119126000D03*
X149098000Y-119126000D03*
D13*
X154178000Y-119126000D03*
D14*
X156718000Y-119126000D03*
X159258000Y-119126000D03*
X161798000Y-119126000D03*
X164338000Y-119126000D03*
X166878000Y-119126000D03*
D12*
X177038000Y-119126000D03*
X179578000Y-119126000D03*
X182118000Y-119126000D03*
X184658000Y-119126000D03*
X187198000Y-119126000D03*
X189738000Y-119126000D03*
X192278000Y-119126000D03*
X194818000Y-119126000D03*
D13*
X127254000Y-70866000D03*
D14*
X129794000Y-70866000D03*
X132334000Y-70866000D03*
X134874000Y-70866000D03*
X137414000Y-70866000D03*
X139954000Y-70866000D03*
X142494000Y-70866000D03*
X145034000Y-70866000D03*
D12*
X149098000Y-70866000D03*
X151638000Y-70866000D03*
X154178000Y-70866000D03*
X156718000Y-70866000D03*
X159258000Y-70866000D03*
X161798000Y-70866000D03*
X164338000Y-70866000D03*
X166878000Y-70866000D03*
X171958000Y-70866000D03*
X174498000Y-70866000D03*
X177038000Y-70866000D03*
X179578000Y-70866000D03*
X182118000Y-70866000D03*
X184658000Y-70866000D03*
X187198000Y-70866000D03*
X189738000Y-70866000D03*
D15*
X165227000Y-76073000D03*
D16*
X167767000Y-76073000D03*
D15*
X165100000Y-82423000D03*
D16*
X167640000Y-82423000D03*
D13*
X154300000Y-77470000D03*
D14*
X156840000Y-77470000D03*
D13*
X146426000Y-77597000D03*
D14*
X148966000Y-77597000D03*
D17*
X146050000Y-73977500D03*
D18*
X148590000Y-73977500D03*
D17*
X156260000Y-74295000D03*
D18*
X158800000Y-74295000D03*
D19*
X176530000Y-91099000D03*
X176530000Y-96099000D03*
D20*
X125095000Y-78105000D03*
D21*
X127635000Y-78105000D03*
D22*
X107915000Y-113620000D03*
D23*
X110455000Y-113620000D03*
X112995000Y-113620000D03*
X115535000Y-113620000D03*
X118075000Y-113620000D03*
X120615000Y-113620000D03*
D22*
X107915000Y-93300000D03*
D23*
X110455000Y-93300000D03*
X112995000Y-93300000D03*
X115535000Y-93300000D03*
X118075000Y-93300000D03*
X120615000Y-93300000D03*
D19*
X163830000Y-90805000D03*
X168830000Y-90805000D03*
D20*
X189230000Y-100985000D03*
D21*
X191770000Y-100985000D03*
D19*
X191135000Y-83399000D03*
X191135000Y-78399000D03*
D20*
X177800000Y-111760000D03*
D21*
X180340000Y-111760000D03*
X182880000Y-111760000D03*
D20*
X111760000Y-87015000D03*
D21*
X114300000Y-87015000D03*
X116840000Y-87015000D03*
D20*
X187325000Y-111780000D03*
D21*
X189865000Y-111780000D03*
X192405000Y-111780000D03*
D20*
X154880000Y-93025000D03*
D21*
X157420000Y-93025000D03*
X159960000Y-93025000D03*
D19*
X154160000Y-98655000D03*
X159160000Y-98655000D03*
D20*
X179705000Y-100985000D03*
D21*
X182245000Y-100985000D03*
D24*
X143360000Y-91155000D03*
D25*
X143360000Y-93695000D03*
X143360000Y-96235000D03*
X143360000Y-98775000D03*
X143360000Y-101315000D03*
X143360000Y-103855000D03*
X143360000Y-106395000D03*
X143360000Y-108935000D03*
X150980000Y-108935000D03*
X150980000Y-106395000D03*
X150980000Y-103855000D03*
X150980000Y-101315000D03*
X150980000Y-98775000D03*
X150980000Y-96235000D03*
X150980000Y-93695000D03*
X150980000Y-91155000D03*
D20*
X111760000Y-76835000D03*
D21*
X114300000Y-76835000D03*
X116840000Y-76835000D03*
D19*
X176530000Y-75184000D03*
X176530000Y-80184000D03*
D24*
X179705000Y-75819000D03*
D25*
X179705000Y-78359000D03*
X179705000Y-80899000D03*
X179705000Y-83439000D03*
X179705000Y-85979000D03*
X179705000Y-88519000D03*
X179705000Y-91059000D03*
X179705000Y-93599000D03*
X187325000Y-93599000D03*
X187325000Y-91059000D03*
X187325000Y-88519000D03*
X187325000Y-85979000D03*
X187325000Y-83439000D03*
X187325000Y-80899000D03*
X187325000Y-78359000D03*
X187325000Y-75819000D03*
D19*
X163830000Y-94255000D03*
X168830000Y-94255000D03*
D20*
X134620000Y-78125000D03*
D21*
X137160000Y-78125000D03*
D19*
X154160000Y-102105000D03*
X159160000Y-102105000D03*
D17*
X129540000Y-114935000D03*
D18*
X129540000Y-112395000D03*
D19*
X176530000Y-83439000D03*
X176530000Y-88439000D03*
M02*
