%TF.GenerationSoftware,KiCad,Pcbnew,8.0.2-1*%
%TF.CreationDate,2024-08-10T18:42:25+10:00*%
%TF.ProjectId,UHF-ROTARIES,5548462d-524f-4544-9152-4945532e6b69,rev?*%
%TF.SameCoordinates,Original*%
%TF.FileFunction,Copper,L1,Top*%
%TF.FilePolarity,Positive*%
%FSLAX46Y46*%
G04 Gerber Fmt 4.6, Leading zero omitted, Abs format (unit mm)*
G04 Created by KiCad (PCBNEW 8.0.2-1) date 2024-08-10 18:42:25*
%MOMM*%
%LPD*%
G01*
G04 APERTURE LIST*
G04 Aperture macros list*
%AMRoundRect*
0 Rectangle with rounded corners*
0 $1 Rounding radius*
0 $2 $3 $4 $5 $6 $7 $8 $9 X,Y pos of 4 corners*
0 Add a 4 corners polygon primitive as box body*
4,1,4,$2,$3,$4,$5,$6,$7,$8,$9,$2,$3,0*
0 Add four circle primitives for the rounded corners*
1,1,$1+$1,$2,$3*
1,1,$1+$1,$4,$5*
1,1,$1+$1,$6,$7*
1,1,$1+$1,$8,$9*
0 Add four rect primitives between the rounded corners*
20,1,$1+$1,$2,$3,$4,$5,0*
20,1,$1+$1,$4,$5,$6,$7,0*
20,1,$1+$1,$6,$7,$8,$9,0*
20,1,$1+$1,$8,$9,$2,$3,0*%
G04 Aperture macros list end*
%TA.AperFunction,ComponentPad*%
%ADD10C,2.100000*%
%TD*%
%TA.AperFunction,ComponentPad*%
%ADD11R,1.800000X1.800000*%
%TD*%
%TA.AperFunction,ComponentPad*%
%ADD12O,1.800000X1.800000*%
%TD*%
%TA.AperFunction,ComponentPad*%
%ADD13RoundRect,0.250000X-0.620000X-0.845000X0.620000X-0.845000X0.620000X0.845000X-0.620000X0.845000X0*%
%TD*%
%TA.AperFunction,ComponentPad*%
%ADD14O,1.740000X2.190000*%
%TD*%
%TA.AperFunction,ComponentPad*%
%ADD15RoundRect,0.250000X0.620000X0.845000X-0.620000X0.845000X-0.620000X-0.845000X0.620000X-0.845000X0*%
%TD*%
%TA.AperFunction,ComponentPad*%
%ADD16RoundRect,0.250000X-0.845000X0.620000X-0.845000X-0.620000X0.845000X-0.620000X0.845000X0.620000X0*%
%TD*%
%TA.AperFunction,ComponentPad*%
%ADD17O,2.190000X1.740000*%
%TD*%
%TA.AperFunction,ComponentPad*%
%ADD18RoundRect,0.250000X0.845000X-0.620000X0.845000X0.620000X-0.845000X0.620000X-0.845000X-0.620000X0*%
%TD*%
%TA.AperFunction,ComponentPad*%
%ADD19RoundRect,0.250000X-0.600000X0.600000X-0.600000X-0.600000X0.600000X-0.600000X0.600000X0.600000X0*%
%TD*%
%TA.AperFunction,ComponentPad*%
%ADD20C,1.700000*%
%TD*%
%TA.AperFunction,ViaPad*%
%ADD21C,0.800000*%
%TD*%
%TA.AperFunction,Conductor*%
%ADD22C,0.250000*%
%TD*%
G04 APERTURE END LIST*
D10*
%TO.P,SW9,1,1*%
%TO.N,ROW0*%
X107472000Y17778000D03*
%TO.P,SW9,2,2*%
%TO.N,ROW1*%
X112403000Y14931000D03*
%TO.P,SW9,3,3*%
%TO.N,ROW2*%
X115250000Y10000000D03*
%TO.P,SW9,4,4*%
%TO.N,ROW3*%
X115250000Y4306000D03*
%TO.P,SW9,5,5*%
%TO.N,ROW4*%
X112403000Y-625000D03*
%TO.P,SW9,6,6*%
%TO.N,ROW5*%
X107472000Y-3472000D03*
%TO.P,SW9,7,7*%
%TO.N,ROW6*%
X101778000Y-3472000D03*
%TO.P,SW9,8,8*%
%TO.N,ROW7*%
X96847000Y-625000D03*
%TO.P,SW9,9,9*%
%TO.N,ROW8*%
X94000000Y4306000D03*
%TO.P,SW9,10,10*%
%TO.N,ROW9*%
X94000000Y10000000D03*
%TO.P,SW9,11,11*%
%TO.N,unconnected-(SW9-Pad11)*%
X96847000Y14931000D03*
%TO.P,SW9,12,12*%
%TO.N,unconnected-(SW9-Pad12)*%
X101778000Y17778000D03*
%TO.P,SW9,A1,A1*%
%TO.N,Net-(D10-K)*%
X107453000Y9981000D03*
%TD*%
%TO.P,J10,1,1*%
%TO.N,ROW10*%
X134472000Y-30397000D03*
%TO.P,J10,2,2*%
%TO.N,ROW11*%
X139403001Y-33244000D03*
%TO.P,J10,3,3*%
%TO.N,ROW12*%
X142250001Y-38174999D03*
%TO.P,J10,4,4*%
%TO.N,unconnected-(J10-Pad4)*%
X142250000Y-43869000D03*
%TO.P,J10,5,5*%
%TO.N,unconnected-(J10-Pad5)*%
X139403001Y-48800000D03*
%TO.P,J10,6,6*%
%TO.N,unconnected-(J10-Pad6)*%
X134472000Y-51647000D03*
%TO.P,J10,7,7*%
%TO.N,unconnected-(J10-Pad7)*%
X128778000Y-51647000D03*
%TO.P,J10,8,8*%
%TO.N,unconnected-(J10-Pad8)*%
X123847000Y-48800001D03*
%TO.P,J10,9,9*%
%TO.N,unconnected-(J10-Pad9)*%
X121000000Y-43869000D03*
%TO.P,J10,10,10*%
%TO.N,unconnected-(J10-Pad10)*%
X121000000Y-38175000D03*
%TO.P,J10,11,11*%
%TO.N,unconnected-(J10-Pad11)*%
X123846999Y-33244000D03*
%TO.P,J10,12,12*%
%TO.N,unconnected-(J10-Pad12)*%
X128778000Y-30397000D03*
%TO.P,J10,A1,A1*%
%TO.N,Net-(D2-K)*%
X134453000Y-38193999D03*
%TD*%
%TO.P,SW2,1,1*%
%TO.N,ROW0*%
X80472000Y17778000D03*
%TO.P,SW2,2,2*%
%TO.N,ROW1*%
X85403000Y14931000D03*
%TO.P,SW2,3,3*%
%TO.N,ROW2*%
X88250000Y10000000D03*
%TO.P,SW2,4,4*%
%TO.N,ROW3*%
X88250000Y4306000D03*
%TO.P,SW2,5,5*%
%TO.N,ROW4*%
X85403000Y-625000D03*
%TO.P,SW2,6,6*%
%TO.N,ROW5*%
X80472000Y-3472000D03*
%TO.P,SW2,7,7*%
%TO.N,ROW6*%
X74778000Y-3472000D03*
%TO.P,SW2,8,8*%
%TO.N,ROW7*%
X69847000Y-625000D03*
%TO.P,SW2,9,9*%
%TO.N,ROW8*%
X67000000Y4306000D03*
%TO.P,SW2,10,10*%
%TO.N,ROW9*%
X67000000Y10000000D03*
%TO.P,SW2,11,11*%
%TO.N,unconnected-(SW2-Pad11)*%
X69847000Y14931000D03*
%TO.P,SW2,12,12*%
%TO.N,unconnected-(SW2-Pad12)*%
X74778000Y17778000D03*
%TO.P,SW2,A1,A1*%
%TO.N,Net-(D7-K)*%
X80453000Y9981000D03*
%TD*%
%TO.P,J9,1,1*%
%TO.N,ROW7*%
X36022000Y-30428000D03*
%TO.P,J9,2,2*%
%TO.N,ROW8*%
X40953000Y-33275000D03*
%TO.P,J9,3,3*%
%TO.N,ROW9*%
X43800000Y-38206000D03*
%TO.P,J9,4,4*%
%TO.N,ROW10*%
X43800000Y-43900000D03*
%TO.P,J9,5,5*%
%TO.N,unconnected-(J9-Pad5)*%
X40953000Y-48831000D03*
%TO.P,J9,6,6*%
%TO.N,unconnected-(J9-Pad6)*%
X36022000Y-51678000D03*
%TO.P,J9,7,7*%
%TO.N,unconnected-(J9-Pad7)*%
X30328000Y-51678000D03*
%TO.P,J9,8,8*%
%TO.N,unconnected-(J9-Pad8)*%
X25397000Y-48831000D03*
%TO.P,J9,9,9*%
%TO.N,unconnected-(J9-Pad9)*%
X22550000Y-43900000D03*
%TO.P,J9,10,10*%
%TO.N,unconnected-(J9-Pad10)*%
X22550000Y-38206000D03*
%TO.P,J9,11,11*%
%TO.N,unconnected-(J9-Pad11)*%
X25397000Y-33275000D03*
%TO.P,J9,12,12*%
%TO.N,unconnected-(J9-Pad12)*%
X30328000Y-30428000D03*
%TO.P,J9,A1,A1*%
%TO.N,Net-(D1-K)*%
X36003000Y-38225000D03*
%TD*%
%TO.P,SW5,1,1*%
%TO.N,ROW0*%
X22553000Y-11275000D03*
%TO.P,SW5,2,2*%
%TO.N,ROW1*%
X25400000Y-6344000D03*
%TO.P,SW5,3,3*%
%TO.N,ROW2*%
X30331000Y-3497000D03*
%TO.P,SW5,4,4*%
%TO.N,unconnected-(SW5-Pad4)*%
X36025000Y-3497000D03*
%TO.P,SW5,5,5*%
%TO.N,unconnected-(SW5-Pad5)*%
X40956000Y-6344000D03*
%TO.P,SW5,6,6*%
%TO.N,unconnected-(SW5-Pad6)*%
X43803000Y-11275000D03*
%TO.P,SW5,7,7*%
%TO.N,unconnected-(SW5-Pad7)*%
X43803000Y-16969000D03*
%TO.P,SW5,8,8*%
%TO.N,unconnected-(SW5-Pad8)*%
X40956000Y-21900000D03*
%TO.P,SW5,9,9*%
%TO.N,unconnected-(SW5-Pad9)*%
X36025000Y-24747000D03*
%TO.P,SW5,10,10*%
%TO.N,unconnected-(SW5-Pad10)*%
X30331000Y-24747000D03*
%TO.P,SW5,11,11*%
%TO.N,unconnected-(SW5-Pad11)*%
X25400000Y-21900000D03*
%TO.P,SW5,12,12*%
%TO.N,unconnected-(SW5-Pad12)*%
X22553000Y-16969000D03*
%TO.P,SW5,A1,A1*%
%TO.N,Net-(D5-K)*%
X30350000Y-11294000D03*
%TD*%
%TO.P,SW3,1,1*%
%TO.N,ROW3*%
X134472000Y17778000D03*
%TO.P,SW3,2,2*%
%TO.N,ROW4*%
X139403000Y14931000D03*
%TO.P,SW3,3,3*%
%TO.N,ROW5*%
X142250000Y10000000D03*
%TO.P,SW3,4,4*%
%TO.N,ROW6*%
X142250000Y4306000D03*
%TO.P,SW3,5,5*%
%TO.N,unconnected-(SW3-Pad5)*%
X139403000Y-625000D03*
%TO.P,SW3,6,6*%
%TO.N,unconnected-(SW3-Pad6)*%
X134472000Y-3472000D03*
%TO.P,SW3,7,7*%
%TO.N,unconnected-(SW3-Pad7)*%
X128778000Y-3472000D03*
%TO.P,SW3,8,8*%
%TO.N,unconnected-(SW3-Pad8)*%
X123847000Y-625000D03*
%TO.P,SW3,9,9*%
%TO.N,unconnected-(SW3-Pad9)*%
X121000000Y4306000D03*
%TO.P,SW3,10,10*%
%TO.N,unconnected-(SW3-Pad10)*%
X121000000Y10000000D03*
%TO.P,SW3,11,11*%
%TO.N,unconnected-(SW3-Pad11)*%
X123847000Y14931000D03*
%TO.P,SW3,12,12*%
%TO.N,unconnected-(SW3-Pad12)*%
X128778000Y17778000D03*
%TO.P,SW3,A1,A1*%
%TO.N,Net-(D8-K)*%
X134453000Y9981000D03*
%TD*%
%TO.P,SW1,1,1*%
%TO.N,ROW0*%
X53472000Y17778000D03*
%TO.P,SW1,2,2*%
%TO.N,ROW1*%
X58403000Y14931000D03*
%TO.P,SW1,3,3*%
%TO.N,ROW2*%
X61250000Y10000000D03*
%TO.P,SW1,4,4*%
%TO.N,ROW3*%
X61250000Y4306000D03*
%TO.P,SW1,5,5*%
%TO.N,ROW4*%
X58403000Y-625000D03*
%TO.P,SW1,6,6*%
%TO.N,ROW5*%
X53472000Y-3472000D03*
%TO.P,SW1,7,7*%
%TO.N,ROW6*%
X47778000Y-3472000D03*
%TO.P,SW1,8,8*%
%TO.N,ROW7*%
X42847000Y-625000D03*
%TO.P,SW1,9,9*%
%TO.N,ROW8*%
X40000000Y4306000D03*
%TO.P,SW1,10,10*%
%TO.N,ROW9*%
X40000000Y10000000D03*
%TO.P,SW1,11,11*%
%TO.N,unconnected-(SW1-Pad11)*%
X42847000Y14931000D03*
%TO.P,SW1,12,12*%
%TO.N,unconnected-(SW1-Pad12)*%
X47778000Y17778000D03*
%TO.P,SW1,A1,A1*%
%TO.N,Net-(D6-K)*%
X53453000Y9981000D03*
%TD*%
%TO.P,SW4,1,1*%
%TO.N,ROW10*%
X132425000Y74647000D03*
%TO.P,SW4,2,2*%
%TO.N,ROW11*%
X137356000Y71800000D03*
%TO.P,SW4,3,3*%
%TO.N,ROW12*%
X140203000Y66869000D03*
%TO.P,SW4,4,4*%
%TO.N,ROW13*%
X140203000Y61175000D03*
%TO.P,SW4,5,5*%
%TO.N,ROW14*%
X137356000Y56244000D03*
%TO.P,SW4,6,6*%
%TO.N,ROW15*%
X132425000Y53397000D03*
%TO.P,SW4,7,7*%
%TO.N,ROW10*%
X126731000Y53397000D03*
%TO.P,SW4,8,8*%
%TO.N,ROW11*%
X121800000Y56244000D03*
%TO.P,SW4,9,9*%
%TO.N,ROW12*%
X118953000Y61175000D03*
%TO.P,SW4,10,10*%
%TO.N,ROW13*%
X118953000Y66869000D03*
%TO.P,SW4,11,11*%
%TO.N,ROW14*%
X121800000Y71800000D03*
%TO.P,SW4,12,12*%
%TO.N,ROW15*%
X126731000Y74647000D03*
%TO.P,SW4,A1,A1*%
%TO.N,Net-(D9-K)*%
X132406000Y66850000D03*
%TD*%
D11*
%TO.P,D13,1,K*%
%TO.N,Net-(D13-K)*%
X62680000Y44450000D03*
D12*
%TO.P,D13,2,A*%
%TO.N,COL9*%
X70300000Y44450000D03*
%TD*%
D13*
%TO.P,SW7,1,1*%
%TO.N,Net-(D4-K)*%
X132700000Y35400000D03*
D14*
%TO.P,SW7,2,2*%
%TO.N,ROW14*%
X135240000Y35400000D03*
%TD*%
D11*
%TO.P,D6,1,K*%
%TO.N,Net-(D6-K)*%
X50790000Y-19150000D03*
D12*
%TO.P,D6,2,A*%
%TO.N,COL8*%
X58410000Y-19150000D03*
%TD*%
D15*
%TO.P,RV1,1,1*%
%TO.N,ANALOG_5V*%
X81400000Y-38200000D03*
D14*
%TO.P,RV1,2,2*%
%TO.N,UHF_VOL*%
X78860000Y-38200000D03*
%TO.P,RV1,3,3*%
%TO.N,ANALOG_GND*%
X76320000Y-38200000D03*
%TD*%
D16*
%TO.P,J2,1,Pin_1*%
%TO.N,+12V*%
X95920000Y38520000D03*
D17*
%TO.P,J2,2,Pin_2*%
%TO.N,BACKLIGHT_-V*%
X95920000Y35980000D03*
%TD*%
D11*
%TO.P,D4,1,K*%
%TO.N,Net-(D4-K)*%
X121040000Y34550000D03*
D12*
%TO.P,D4,2,A*%
%TO.N,COL8*%
X128660000Y34550000D03*
%TD*%
D11*
%TO.P,D7,1,K*%
%TO.N,Net-(D7-K)*%
X50790000Y-14900000D03*
D12*
%TO.P,D7,2,A*%
%TO.N,COL9*%
X58410000Y-14900000D03*
%TD*%
D11*
%TO.P,D9,1,K*%
%TO.N,Net-(D9-K)*%
X127890000Y45800000D03*
D12*
%TO.P,D9,2,A*%
%TO.N,COL10*%
X135510000Y45800000D03*
%TD*%
D11*
%TO.P,D12,1,K*%
%TO.N,Net-(D12-K)*%
X49230000Y-40400000D03*
D12*
%TO.P,D12,2,A*%
%TO.N,COL9*%
X56850000Y-40400000D03*
%TD*%
D15*
%TO.P,SW8,1,1*%
%TO.N,UHF_PRESET_A*%
X81500000Y-29400000D03*
D14*
%TO.P,SW8,2,2*%
%TO.N,GND*%
X78960000Y-29400000D03*
%TO.P,SW8,3,3*%
%TO.N,UHF_PRESET_B*%
X76420000Y-29400000D03*
%TD*%
D15*
%TO.P,SW12,1,1*%
%TO.N,Net-(D13-K)*%
X81920000Y40030000D03*
D14*
%TO.P,SW12,2,2*%
%TO.N,ROW12*%
X79380000Y40030000D03*
%TD*%
D15*
%TO.P,SW10,1,A*%
%TO.N,ROW10*%
X66100000Y-38200000D03*
D14*
%TO.P,SW10,2,B*%
%TO.N,Net-(D12-K)*%
X63560000Y-38200000D03*
%TD*%
D15*
%TO.P,SW13,1,A*%
%TO.N,Net-(D11-K)*%
X72440000Y-38200000D03*
D14*
%TO.P,SW13,2,B*%
%TO.N,ROW15*%
X69900000Y-38200000D03*
%TD*%
D15*
%TO.P,J3,1,Pin_1*%
%TO.N,+5V*%
X70500000Y34600000D03*
D14*
%TO.P,J3,2,Pin_2*%
%TO.N,GND*%
X67960000Y34600000D03*
%TO.P,J3,3,Pin_3*%
%TO.N,UHF_OLED_SC*%
X65420000Y34600000D03*
%TO.P,J3,4,Pin_4*%
%TO.N,UHF_OLED_SD*%
X62880000Y34600000D03*
%TD*%
D11*
%TO.P,D2,1,K*%
%TO.N,Net-(D2-K)*%
X107290000Y-45450000D03*
D12*
%TO.P,D2,2,A*%
%TO.N,COL8*%
X114910000Y-45450000D03*
%TD*%
D18*
%TO.P,J4,1,Pin_1*%
%TO.N,+12V*%
X65030000Y-27685000D03*
D17*
%TO.P,J4,2,Pin_2*%
%TO.N,BACKLIGHT_-V*%
X65030000Y-25145000D03*
%TD*%
D11*
%TO.P,D8,1,K*%
%TO.N,Net-(D8-K)*%
X121320000Y-14000000D03*
D12*
%TO.P,D8,2,A*%
%TO.N,COL7*%
X128940000Y-14000000D03*
%TD*%
D11*
%TO.P,D1,1,K*%
%TO.N,Net-(D1-K)*%
X49240000Y-45750000D03*
D12*
%TO.P,D1,2,A*%
%TO.N,COL7*%
X56860000Y-45750000D03*
%TD*%
D11*
%TO.P,D5,1,K*%
%TO.N,Net-(D5-K)*%
X50800000Y-11250000D03*
D12*
%TO.P,D5,2,A*%
%TO.N,COL7*%
X58420000Y-11250000D03*
%TD*%
D11*
%TO.P,D10,1,K*%
%TO.N,Net-(D10-K)*%
X121320000Y-10800000D03*
D12*
%TO.P,D10,2,A*%
%TO.N,COL10*%
X128940000Y-10800000D03*
%TD*%
D11*
%TO.P,D3,1,K*%
%TO.N,Net-(D3-K)*%
X43200000Y34500000D03*
D12*
%TO.P,D3,2,A*%
%TO.N,COL8*%
X50820000Y34500000D03*
%TD*%
D11*
%TO.P,D11,1,K*%
%TO.N,Net-(D11-K)*%
X68390000Y-45400000D03*
D12*
%TO.P,D11,2,A*%
%TO.N,COL8*%
X76010000Y-45400000D03*
%TD*%
D19*
%TO.P,J1,1,Pin_1*%
%TO.N,COL7*%
X68760000Y-11800000D03*
D20*
%TO.P,J1,2,Pin_2*%
%TO.N,COL8*%
X68760000Y-14340000D03*
%TO.P,J1,3,Pin_3*%
%TO.N,COL9*%
X71300000Y-11800000D03*
%TO.P,J1,4,Pin_4*%
%TO.N,COL10*%
X71300000Y-14340000D03*
%TO.P,J1,5,Pin_5*%
%TO.N,ROW0*%
X73840000Y-11800000D03*
%TO.P,J1,6,Pin_6*%
%TO.N,ROW1*%
X73840000Y-14340000D03*
%TO.P,J1,7,Pin_7*%
%TO.N,ROW2*%
X76380000Y-11800000D03*
%TO.P,J1,8,Pin_8*%
%TO.N,ROW3*%
X76380000Y-14340000D03*
%TO.P,J1,9,Pin_9*%
%TO.N,ROW4*%
X78920000Y-11800000D03*
%TO.P,J1,10,Pin_10*%
%TO.N,ROW5*%
X78920000Y-14340000D03*
%TO.P,J1,11,Pin_11*%
%TO.N,ROW6*%
X81460000Y-11800000D03*
%TO.P,J1,12,Pin_12*%
%TO.N,ROW7*%
X81460000Y-14340000D03*
%TO.P,J1,13,Pin_13*%
%TO.N,ROW8*%
X84000000Y-11800000D03*
%TO.P,J1,14,Pin_14*%
%TO.N,ROW9*%
X84000000Y-14340000D03*
%TO.P,J1,15,Pin_15*%
%TO.N,ROW10*%
X86540000Y-11800000D03*
%TO.P,J1,16,Pin_16*%
%TO.N,ROW11*%
X86540000Y-14340000D03*
%TO.P,J1,17,Pin_17*%
%TO.N,ROW12*%
X89080000Y-11800000D03*
%TO.P,J1,18,Pin_18*%
%TO.N,ROW13*%
X89080000Y-14340000D03*
%TO.P,J1,19,Pin_19*%
%TO.N,ROW14*%
X91620000Y-11800000D03*
%TO.P,J1,20,Pin_20*%
%TO.N,ROW15*%
X91620000Y-14340000D03*
%TO.P,J1,21,Pin_21*%
%TO.N,unconnected-(J1-Pin_21-Pad21)*%
X94160000Y-11800000D03*
%TO.P,J1,22,Pin_22*%
%TO.N,ANALOG_5V*%
X94160000Y-14340000D03*
%TO.P,J1,23,Pin_23*%
%TO.N,UHF_VOL*%
X96700000Y-11800000D03*
%TO.P,J1,24,Pin_24*%
%TO.N,ANALOG_GND*%
X96700000Y-14340000D03*
%TO.P,J1,25,Pin_25*%
%TO.N,UHF_PRESET_A*%
X99240000Y-11800000D03*
%TO.P,J1,26,Pin_26*%
%TO.N,GND*%
X99240000Y-14340000D03*
%TO.P,J1,27,Pin_27*%
%TO.N,UHF_PRESET_B*%
X101780000Y-11800000D03*
%TO.P,J1,28,Pin_28*%
%TO.N,unconnected-(J1-Pin_28-Pad28)*%
X101780000Y-14340000D03*
%TO.P,J1,29,Pin_29*%
%TO.N,+5V*%
X104320000Y-11800000D03*
%TO.P,J1,30,Pin_30*%
%TO.N,GND*%
X104320000Y-14340000D03*
%TO.P,J1,31,Pin_31*%
%TO.N,UHF_OLED_SC*%
X106860000Y-11800000D03*
%TO.P,J1,32,Pin_32*%
%TO.N,UHF_OLED_SD*%
X106860000Y-14340000D03*
%TO.P,J1,33,Pin_33*%
%TO.N,+12V*%
X109400000Y-11800000D03*
%TO.P,J1,34,Pin_34*%
%TO.N,BACKLIGHT_-V*%
X109400000Y-14340000D03*
%TD*%
D15*
%TO.P,SW6,1,1*%
%TO.N,Net-(D3-K)*%
X58180000Y34600000D03*
D14*
%TO.P,SW6,2,2*%
%TO.N,ROW13*%
X55640000Y34600000D03*
%TD*%
D21*
%TO.N,COL7*%
X107624700Y-47419800D03*
%TO.N,ROW14*%
X102075000Y9338400D03*
%TO.N,ROW5*%
X111541800Y3084600D03*
%TO.N,ROW12*%
X112028900Y-10743200D03*
X106074800Y37271300D03*
%TO.N,Net-(D7-K)*%
X72969100Y-6184900D03*
%TO.N,ROW4*%
X84127600Y-4776300D03*
%TO.N,ROW13*%
X61118200Y-10646500D03*
%TO.N,ROW10*%
X113148700Y-10082000D03*
X89760300Y-10373100D03*
%TO.N,ROW7*%
X78588700Y-1631500D03*
%TO.N,UHF_OLED_SD*%
X93996100Y20118800D03*
%TD*%
D22*
%TO.N,COL7*%
X58420000Y-11250000D02*
X58420000Y-12476700D01*
X128940000Y-26104500D02*
X107624700Y-47419800D01*
X56860000Y-44523300D02*
X60097300Y-41286000D01*
X128940000Y-14000000D02*
X128940000Y-26104500D01*
X56860000Y-45750000D02*
X56860000Y-44523300D01*
X60097300Y-41286000D02*
X60097300Y-14154000D01*
X60097300Y-14154000D02*
X58420000Y-12476700D01*
%TO.N,Net-(D3-K)*%
X44426700Y34500000D02*
X45997800Y36071100D01*
X45997800Y36071100D02*
X56708900Y36071100D01*
X56708900Y36071100D02*
X58180000Y34600000D01*
X43200000Y34500000D02*
X44426700Y34500000D01*
%TO.N,COL8*%
X50820000Y34500000D02*
X50820000Y33273300D01*
X55681900Y-15195200D02*
X58410000Y-17923300D01*
X58410000Y-19150000D02*
X58410000Y-17923300D01*
X50820000Y33273300D02*
X55681900Y28411400D01*
X55681900Y28411400D02*
X55681900Y-15195200D01*
%TO.N,Net-(D9-K)*%
X129116700Y63560700D02*
X132406000Y66850000D01*
X127890000Y45800000D02*
X127890000Y47026700D01*
X127890000Y47026700D02*
X129116700Y48253400D01*
X129116700Y48253400D02*
X129116700Y63560700D01*
%TO.N,COL9*%
X59636700Y-17353400D02*
X58410000Y-16126700D01*
X71300000Y22206800D02*
X69296500Y24210300D01*
X56850000Y-40400000D02*
X56850000Y-39173300D01*
X58410000Y-14900000D02*
X58410000Y-16126700D01*
X70300000Y44450000D02*
X70300000Y43223300D01*
X69296500Y24210300D02*
X69296500Y42219800D01*
X69296500Y42219800D02*
X70300000Y43223300D01*
X59636700Y-36386600D02*
X59636700Y-17353400D01*
X71300000Y-11800000D02*
X71300000Y22206800D01*
X56850000Y-39173300D02*
X59636700Y-36386600D01*
%TO.N,COL10*%
X130165200Y-8348100D02*
X130165200Y32911000D01*
X130616800Y33362600D02*
X130616800Y39680100D01*
X135510000Y45800000D02*
X135510000Y44573300D01*
X130165200Y32911000D02*
X130616800Y33362600D01*
X128940000Y-10800000D02*
X128940000Y-9573300D01*
X130616800Y39680100D02*
X135510000Y44573300D01*
X128940000Y-9573300D02*
X130165200Y-8348100D01*
%TO.N,+5V*%
X101951900Y10538300D02*
X103205100Y9285100D01*
X88525600Y19839900D02*
X97827200Y10538300D01*
X79487000Y19839900D02*
X88525600Y19839900D01*
X97827200Y10538300D02*
X101951900Y10538300D01*
X103205100Y9285100D02*
X103205100Y-10685100D01*
X70500000Y34600000D02*
X70500000Y28826900D01*
X103205100Y-10685100D02*
X104320000Y-11800000D01*
X70500000Y28826900D02*
X79487000Y19839900D01*
%TO.N,Net-(D10-K)*%
X121320000Y-3886000D02*
X107453000Y9981000D01*
X121320000Y-10800000D02*
X121320000Y-3886000D01*
%TO.N,GND*%
X56979200Y23619200D02*
X66763300Y33403300D01*
X64771800Y-37336200D02*
X62470000Y-35034400D01*
X64771800Y-39215600D02*
X64771800Y-37336200D01*
X68182200Y-38466300D02*
X67011900Y-39636600D01*
X65192800Y-39636600D02*
X64771800Y-39215600D01*
X100430600Y-13149400D02*
X99240000Y-14340000D01*
X62470000Y-35034400D02*
X62470000Y-2294600D01*
X77452200Y-30907800D02*
X75221600Y-30907800D01*
X62470000Y-2294600D02*
X56979200Y3196200D01*
X75221600Y-30907800D02*
X68182200Y-37947200D01*
X66763300Y33403300D02*
X66763300Y34600000D01*
X67960000Y34600000D02*
X66763300Y34600000D01*
X104320000Y-14340000D02*
X103129400Y-13149400D01*
X67011900Y-39636600D02*
X65192800Y-39636600D01*
X78960000Y-29400000D02*
X77452200Y-30907800D01*
X56979200Y3196200D02*
X56979200Y23619200D01*
X68182200Y-37947200D02*
X68182200Y-38466300D01*
X103129400Y-13149400D02*
X100430600Y-13149400D01*
%TO.N,Net-(D11-K)*%
X68390000Y-44173300D02*
X72440000Y-40123300D01*
X72440000Y-40123300D02*
X72440000Y-38200000D01*
X68390000Y-45400000D02*
X68390000Y-44173300D01*
%TO.N,ROW0*%
X81883400Y16366600D02*
X81883400Y7758900D01*
X76239700Y2115200D02*
X76239700Y-9400300D01*
X80472000Y17778000D02*
X81883400Y16366600D01*
X81883400Y7758900D02*
X76239700Y2115200D01*
X76239700Y-9400300D02*
X73840000Y-11800000D01*
%TO.N,ROW1*%
X70030000Y-14760600D02*
X70810000Y-15540600D01*
X72639400Y-15540600D02*
X73840000Y-14340000D01*
X66166500Y-11224200D02*
X67920000Y-12977700D01*
X70030000Y-13931100D02*
X70030000Y-14760600D01*
X67920000Y-12977700D02*
X69076600Y-12977700D01*
X70810000Y-15540600D02*
X72639400Y-15540600D01*
X58403000Y14931000D02*
X58403000Y5206000D01*
X66166500Y-2557500D02*
X66166500Y-11224200D01*
X58403000Y5206000D02*
X66166500Y-2557500D01*
X69076600Y-12977700D02*
X70030000Y-13931100D01*
%TO.N,ROW15*%
X78819500Y-40136000D02*
X94826100Y-40136000D01*
X91620000Y-15693200D02*
X80229500Y-27083700D01*
X133809700Y54781700D02*
X132425000Y53397000D01*
X69900000Y-38200000D02*
X71096700Y-38200000D01*
X126731000Y74647000D02*
X128142500Y76058500D01*
X71096700Y-37227700D02*
X71096700Y-38200000D01*
X71589900Y-36734500D02*
X71096700Y-37227700D01*
X130006200Y33616000D02*
X130006200Y50978200D01*
X132986500Y76058500D02*
X133809700Y75235300D01*
X80229500Y-27083700D02*
X80229500Y-34095000D01*
X122415600Y-12027900D02*
X126471700Y-7971800D01*
X77590000Y-36734500D02*
X77590000Y-38906500D01*
X126471700Y30081500D02*
X130006200Y33616000D01*
X133809700Y75235300D02*
X133809700Y54781700D01*
X126471700Y-7971800D02*
X126471700Y30081500D01*
X77590000Y-36734500D02*
X71589900Y-36734500D01*
X128142500Y76058500D02*
X132986500Y76058500D01*
X94826100Y-40136000D02*
X120070000Y-14892100D01*
X80229500Y-34095000D02*
X77590000Y-36734500D01*
X77590000Y-38906500D02*
X78819500Y-40136000D01*
X91620000Y-14340000D02*
X91620000Y-15693200D01*
X120070000Y-12907100D02*
X120949200Y-12027900D01*
X120949200Y-12027900D02*
X122415600Y-12027900D01*
X130006200Y50978200D02*
X132425000Y53397000D01*
X120070000Y-14892100D02*
X120070000Y-12907100D01*
%TO.N,ROW14*%
X135240000Y35400000D02*
X136436700Y35400000D01*
X91620000Y-11800000D02*
X95375200Y-8044800D01*
X95375200Y-8044800D02*
X95375200Y2638600D01*
X95375200Y2638600D02*
X102075000Y9338400D01*
X137356000Y36319300D02*
X136436700Y35400000D01*
X137356000Y56244000D02*
X137356000Y36319300D01*
%TO.N,ROW5*%
X111541800Y597800D02*
X111541800Y3084600D01*
X107472000Y-3472000D02*
X111541800Y597800D01*
%TO.N,UHF_PRESET_B*%
X92983300Y-12115600D02*
X91935600Y-13163300D01*
X77616700Y-28125500D02*
X77616700Y-29400000D01*
X91125700Y-13163300D02*
X90350000Y-13939000D01*
X101780000Y-11800000D02*
X100090500Y-10110500D01*
X76420000Y-29400000D02*
X77616700Y-29400000D01*
X91935600Y-13163300D02*
X91125700Y-13163300D01*
X92983300Y-11309300D02*
X92983300Y-12115600D01*
X100090500Y-10110500D02*
X94182100Y-10110500D01*
X94182100Y-10110500D02*
X92983300Y-11309300D01*
X90350000Y-13939000D02*
X90350000Y-15392200D01*
X90350000Y-15392200D02*
X77616700Y-28125500D01*
%TO.N,ROW8*%
X94000000Y4306000D02*
X94000000Y-1800000D01*
X40000000Y4306000D02*
X39572600Y3878600D01*
X39572600Y-31894600D02*
X40953000Y-33275000D01*
X94000000Y-1800000D02*
X84000000Y-11800000D01*
X39572600Y3878600D02*
X39572600Y-31894600D01*
%TO.N,ROW2*%
X77081700Y-11098300D02*
X76380000Y-11800000D01*
X77081700Y-1168300D02*
X77081700Y-11098300D01*
X88250000Y10000000D02*
X77081700Y-1168300D01*
%TO.N,Net-(D6-K)*%
X50790000Y-19150000D02*
X50790000Y-17923300D01*
X50790000Y-17923300D02*
X52046700Y-16666600D01*
X52046700Y-16666600D02*
X52046700Y8574700D01*
X52046700Y8574700D02*
X53453000Y9981000D01*
%TO.N,ROW12*%
X112028900Y-10627300D02*
X112028900Y-10743200D01*
X106074800Y37271300D02*
X105623100Y36819600D01*
X105623100Y36819600D02*
X105623100Y-4221500D01*
X105623100Y-4221500D02*
X112028900Y-10627300D01*
%TO.N,Net-(D7-K)*%
X72969100Y2497100D02*
X80453000Y9981000D01*
X72969100Y-6184900D02*
X72969100Y2497100D01*
%TO.N,Net-(D8-K)*%
X131043600Y6571600D02*
X134453000Y9981000D01*
X128733600Y-12773300D02*
X131043600Y-10463300D01*
X123773400Y-12773300D02*
X128733600Y-12773300D01*
X121320000Y-14000000D02*
X122546700Y-14000000D01*
X131043600Y-10463300D02*
X131043600Y6571600D01*
X122546700Y-14000000D02*
X123773400Y-12773300D01*
%TO.N,ROW9*%
X45184600Y4815400D02*
X45184600Y-36821400D01*
X91125000Y7125000D02*
X94000000Y10000000D01*
X45184600Y-36821400D02*
X43800000Y-38206000D01*
X82823300Y-13163300D02*
X82823300Y-7108300D01*
X91125000Y1193400D02*
X91125000Y7125000D01*
X82823300Y-7108300D02*
X91125000Y1193400D01*
X84000000Y-14340000D02*
X82823300Y-13163300D01*
X40000000Y10000000D02*
X45184600Y4815400D01*
%TO.N,UHF_OLED_SC*%
X106860000Y-11800000D02*
X104211100Y-9151100D01*
X65420000Y41355400D02*
X65420000Y34600000D01*
X104211100Y-9151100D02*
X104211100Y20048300D01*
X69793100Y45728500D02*
X65420000Y41355400D01*
X78530900Y45728500D02*
X69793100Y45728500D01*
X104211100Y20048300D02*
X78530900Y45728500D01*
%TO.N,ROW4*%
X77859200Y-1313200D02*
X78311600Y-860800D01*
X77859200Y-10739200D02*
X77859200Y-1313200D01*
X84127600Y-1900400D02*
X84127600Y-4776300D01*
X78311600Y-860800D02*
X83088000Y-860800D01*
X78920000Y-11800000D02*
X77859200Y-10739200D01*
X85403000Y-625000D02*
X84127600Y-1900400D01*
X83088000Y-860800D02*
X84127600Y-1900400D01*
%TO.N,ROW11*%
X138772900Y54984700D02*
X138772900Y70383100D01*
X137356000Y72372700D02*
X133213700Y76515000D01*
X138022400Y-31863400D02*
X138022400Y54234200D01*
X139403000Y-33244000D02*
X138022400Y-31863400D01*
X137356000Y71800000D02*
X137356000Y72372700D01*
X123176700Y73102600D02*
X123176700Y57620700D01*
X123176700Y57620700D02*
X121800000Y56244000D01*
X138022400Y54234200D02*
X138772900Y54984700D01*
X138772900Y70383100D02*
X137356000Y71800000D01*
X133213700Y76515000D02*
X126589100Y76515000D01*
X126589100Y76515000D02*
X123176700Y73102600D01*
%TO.N,ANALOG_5V*%
X82979900Y-36620100D02*
X81400000Y-38200000D01*
X94160000Y-16789600D02*
X82979900Y-27969700D01*
X94160000Y-14340000D02*
X94160000Y-16789600D01*
X82979900Y-27969700D02*
X82979900Y-36620100D01*
%TO.N,ROW13*%
X61118200Y-10646500D02*
X56135900Y-5664200D01*
X55640000Y34600000D02*
X55640000Y33178300D01*
X56135900Y32682400D02*
X55640000Y33178300D01*
X56135900Y-5664200D02*
X56135900Y32682400D01*
%TO.N,BACKLIGHT_-V*%
X108130000Y-13070000D02*
X109400000Y-14340000D01*
X108130000Y-9007900D02*
X108130000Y-13070000D01*
X104719700Y25983600D02*
X104719700Y-5597600D01*
X95920000Y34783300D02*
X104719700Y25983600D01*
X104719700Y-5597600D02*
X108130000Y-9007900D01*
X95920000Y35980000D02*
X95920000Y34783300D01*
%TO.N,ROW3*%
X75103200Y-13063200D02*
X70869600Y-13063200D01*
X70083300Y-4527300D02*
X61250000Y4306000D01*
X70083300Y-12276900D02*
X70083300Y-4527300D01*
X76380000Y-14340000D02*
X75103200Y-13063200D01*
X70869600Y-13063200D02*
X70083300Y-12276900D01*
%TO.N,ROW10*%
X126731000Y68953000D02*
X132425000Y74647000D01*
X85270000Y-16953100D02*
X85270000Y-13070000D01*
X106074800Y-4034400D02*
X106074800Y32740800D01*
X87966900Y-10373100D02*
X89760300Y-10373100D01*
X126731000Y53397000D02*
X126731000Y68953000D01*
X113148700Y-10082000D02*
X111392700Y-8326000D01*
X86540000Y-11800000D02*
X87966900Y-10373100D01*
X106074800Y32740800D02*
X126731000Y53397000D01*
X110366400Y-8326000D02*
X106074800Y-4034400D01*
X111392700Y-8326000D02*
X110366400Y-8326000D01*
X85270000Y-13070000D02*
X86540000Y-11800000D01*
X66100000Y-36123100D02*
X85270000Y-16953100D01*
X66100000Y-38200000D02*
X66100000Y-36123100D01*
%TO.N,ROW7*%
X41590400Y-34665100D02*
X42426300Y-33829200D01*
X36022000Y-30428000D02*
X40259100Y-34665100D01*
X78588800Y-6892300D02*
X78588800Y-1631500D01*
X78588800Y-1631500D02*
X78588700Y-1631500D01*
X80190000Y-13070000D02*
X80190000Y-8493500D01*
X42426300Y-1045700D02*
X42847000Y-625000D01*
X81460000Y-14340000D02*
X80190000Y-13070000D01*
X80190000Y-8493500D02*
X78588800Y-6892300D01*
X40259100Y-34665100D02*
X41590400Y-34665100D01*
X42426300Y-33829200D02*
X42426300Y-1045700D01*
%TO.N,+12V*%
X95920000Y38520000D02*
X105171400Y29268600D01*
X105171400Y29268600D02*
X105171400Y-4408600D01*
X109400000Y-8637200D02*
X109400000Y-11800000D01*
X105171400Y-4408600D02*
X109400000Y-8637200D01*
%TO.N,UHF_OLED_SD*%
X103708500Y10406400D02*
X93996100Y20118800D01*
X105590000Y-11287300D02*
X103708500Y-9405800D01*
X106860000Y-14340000D02*
X105590000Y-13070000D01*
X103708500Y-9405800D02*
X103708500Y10406400D01*
X105590000Y-13070000D02*
X105590000Y-11287300D01*
%TO.N,UHF_VOL*%
X78860000Y-38200000D02*
X80056700Y-38200000D01*
X84083900Y-37808600D02*
X84083900Y-27908900D01*
X82240600Y-39651900D02*
X84083900Y-37808600D01*
X80056700Y-39172300D02*
X80536300Y-39651900D01*
X84083900Y-27908900D02*
X95429900Y-16562900D01*
X80536300Y-39651900D02*
X82240600Y-39651900D01*
X95429900Y-13070100D02*
X96700000Y-11800000D01*
X95429900Y-16562900D02*
X95429900Y-13070100D01*
X80056700Y-38200000D02*
X80056700Y-39172300D01*
%TO.N,UHF_PRESET_A*%
X94512700Y-13163300D02*
X93672600Y-13163300D01*
X95523300Y-11312600D02*
X95523300Y-12152700D01*
X98063300Y-10623300D02*
X96212600Y-10623300D01*
X93672600Y-13163300D02*
X92983300Y-13852600D01*
X92983300Y-13852600D02*
X92983300Y-17273700D01*
X96212600Y-10623300D02*
X95523300Y-11312600D01*
X92983300Y-17273700D02*
X81500000Y-28757000D01*
X95523300Y-12152700D02*
X94512700Y-13163300D01*
X81500000Y-28757000D02*
X81500000Y-29400000D01*
X99240000Y-11800000D02*
X98063300Y-10623300D01*
%TD*%
M02*
