M48
; DRILL file {KiCad 8.0.2-1} date 2024-08-11T12:42:34+1000
; FORMAT={-:-/ absolute / metric / decimal}
; #@! TF.CreationDate,2024-08-11T12:42:34+10:00
; #@! TF.GenerationSoftware,Kicad,Pcbnew,8.0.2-1
; #@! TF.FileFunction,Plated,1,2,PTH
FMAT,2
METRIC
; #@! TA.AperFunction,Plated,PTH,ViaDrill
T1C0.400
; #@! TA.AperFunction,Plated,PTH,ComponentDrill
T2C0.900
; #@! TA.AperFunction,Plated,PTH,ComponentDrill
T3C0.950
; #@! TA.AperFunction,Plated,PTH,ComponentDrill
T4C1.000
; #@! TA.AperFunction,Plated,PTH,ComponentDrill
T5C1.400
%
G90
G05
T1
X51.376Y7.52
X68.589Y-6.619
X75.625Y-6.019
X76.118Y21.968
X95.707Y1.442
X104.092Y-16.459
X108.057Y2.722
X108.819Y-10.103
X112.551Y-10.554
X136.671Y-14.237
T2
X45.54Y43.05
X49.23Y-40.4
X49.24Y-45.75
X50.79Y-14.9
X50.79Y-19.15
X50.8Y-11.25
X53.16Y43.05
X56.85Y-40.4
X56.86Y-45.75
X58.41Y-14.9
X58.41Y-19.15
X58.42Y-11.25
X62.68Y44.45
X68.39Y-45.4
X70.3Y44.45
X76.01Y-45.4
X107.29Y-45.45
X114.91Y-45.45
X121.32Y-10.8
X121.32Y-14.0
X128.94Y-10.8
X128.94Y-14.0
X133.88Y46.2
X133.88Y41.7
X141.5Y46.2
X141.5Y41.7
T3
X61.1Y-38.2
X63.0Y34.6
X63.6Y-38.2
X65.5Y34.6
X66.1Y-38.2
X68.0Y34.6
X70.5Y34.6
X95.3Y-39.35
X97.8Y-39.35
X100.3Y-39.35
X119.76Y44.68
X122.26Y44.68
X124.76Y44.68
X127.26Y44.68
X134.79Y33.78
X137.29Y33.78
X139.79Y33.78
T4
X54.0Y34.6
X56.5Y34.6
X65.03Y-25.185
X65.03Y-27.685
X68.76Y-11.8
X68.76Y-14.34
X71.3Y-11.8
X71.3Y-14.34
X73.84Y-11.8
X73.84Y-14.34
X76.38Y-11.8
X76.38Y-14.34
X78.92Y-11.8
X78.92Y-14.34
X79.42Y40.03
X81.46Y-11.8
X81.46Y-14.34
X81.92Y40.03
X84.0Y-11.8
X84.0Y-14.34
X86.54Y-11.8
X86.54Y-14.34
X86.6Y-39.35
X89.08Y-11.8
X89.08Y-14.34
X89.1Y-39.35
X91.62Y-11.8
X91.62Y-14.34
X94.16Y-11.8
X94.16Y-14.34
X95.92Y38.52
X95.92Y36.02
X96.7Y-11.8
X96.7Y-14.34
X99.24Y-11.8
X99.24Y-14.34
X101.78Y-11.8
X101.78Y-14.34
X104.32Y-11.8
X104.32Y-14.34
X106.86Y-11.8
X106.86Y-14.34
X109.4Y-11.8
X109.4Y-14.34
X125.45Y33.825
X127.95Y33.825
T5
X22.55Y-38.206
X22.55Y-43.9
X22.553Y-11.275
X22.553Y-16.969
X25.397Y-33.275
X25.397Y-48.831
X25.4Y-6.344
X25.4Y-21.9
X30.328Y-30.428
X30.328Y-51.678
X30.331Y-3.497
X30.331Y-24.747
X30.35Y-11.294
X36.003Y-38.225
X36.022Y-30.428
X36.022Y-51.678
X36.025Y-3.497
X36.025Y-24.747
X40.0Y10.0
X40.0Y4.306
X40.953Y-33.275
X40.953Y-48.831
X40.956Y-6.344
X40.956Y-21.9
X42.847Y14.931
X42.847Y-0.625
X43.8Y-38.206
X43.8Y-43.9
X43.803Y-11.275
X43.803Y-16.969
X47.778Y17.778
X47.778Y-3.472
X53.453Y9.981
X53.472Y17.778
X53.472Y-3.472
X58.403Y14.931
X58.403Y-0.625
X61.25Y10.0
X61.25Y4.306
X67.0Y10.0
X67.0Y4.306
X69.847Y14.931
X69.847Y-0.625
X74.778Y17.778
X74.778Y-3.472
X80.453Y9.981
X80.472Y17.778
X80.472Y-3.472
X85.403Y14.931
X85.403Y-0.625
X88.25Y10.0
X88.25Y4.306
X94.0Y10.0
X94.0Y4.306
X96.847Y14.931
X96.847Y-0.625
X101.778Y17.778
X101.778Y-3.472
X107.453Y9.981
X107.472Y17.778
X107.472Y-3.472
X112.403Y14.931
X112.403Y-0.625
X115.25Y10.0
X115.25Y4.306
X118.953Y66.869
X118.953Y61.175
X121.0Y10.0
X121.0Y4.306
X121.0Y-38.175
X121.0Y-43.869
X121.8Y71.8
X121.8Y56.244
X123.847Y14.931
X123.847Y-0.625
X123.847Y-33.244
X123.847Y-48.8
X126.731Y74.647
X126.731Y53.397
X128.778Y17.778
X128.778Y-3.472
X128.778Y-30.397
X128.778Y-51.647
X132.406Y66.85
X132.425Y74.647
X132.425Y53.397
X134.453Y9.981
X134.453Y-38.194
X134.472Y17.778
X134.472Y-3.472
X134.472Y-30.397
X134.472Y-51.647
X137.356Y71.8
X137.356Y56.244
X139.403Y14.931
X139.403Y-0.625
X139.403Y-33.244
X139.403Y-48.8
X140.203Y66.869
X140.203Y61.175
X142.25Y10.0
X142.25Y4.306
X142.25Y-38.175
X142.25Y-43.869
M30
