%TF.GenerationSoftware,KiCad,Pcbnew,9.0.0*%
%TF.CreationDate,2025-04-12T15:14:54+10:00*%
%TF.ProjectId,Cable Pass Through,4361626c-6520-4506-9173-73205468726f,rev?*%
%TF.SameCoordinates,Original*%
%TF.FileFunction,Soldermask,Top*%
%TF.FilePolarity,Negative*%
%FSLAX46Y46*%
G04 Gerber Fmt 4.6, Leading zero omitted, Abs format (unit mm)*
G04 Created by KiCad (PCBNEW 9.0.0) date 2025-04-12 15:14:54*
%MOMM*%
%LPD*%
G01*
G04 APERTURE LIST*
G04 Aperture macros list*
%AMRoundRect*
0 Rectangle with rounded corners*
0 $1 Rounding radius*
0 $2 $3 $4 $5 $6 $7 $8 $9 X,Y pos of 4 corners*
0 Add a 4 corners polygon primitive as box body*
4,1,4,$2,$3,$4,$5,$6,$7,$8,$9,$2,$3,0*
0 Add four circle primitives for the rounded corners*
1,1,$1+$1,$2,$3*
1,1,$1+$1,$4,$5*
1,1,$1+$1,$6,$7*
1,1,$1+$1,$8,$9*
0 Add four rect primitives between the rounded corners*
20,1,$1+$1,$2,$3,$4,$5,0*
20,1,$1+$1,$4,$5,$6,$7,0*
20,1,$1+$1,$6,$7,$8,$9,0*
20,1,$1+$1,$8,$9,$2,$3,0*%
G04 Aperture macros list end*
%ADD10R,1.700000X1.700000*%
%ADD11O,1.700000X1.700000*%
%ADD12RoundRect,0.250000X-0.600000X0.600000X-0.600000X-0.600000X0.600000X-0.600000X0.600000X0.600000X0*%
%ADD13C,1.700000*%
G04 APERTURE END LIST*
D10*
%TO.C,J14*%
X131000000Y-45240000D03*
D11*
X131000000Y-47780000D03*
X131000000Y-50320000D03*
X131000000Y-52860000D03*
X131000000Y-55400000D03*
X131000000Y-57940000D03*
X131000000Y-60480000D03*
X131000000Y-63020000D03*
X131000000Y-65560000D03*
X131000000Y-68100000D03*
X131000000Y-70640000D03*
X131000000Y-73180000D03*
X131000000Y-75720000D03*
X131000000Y-78260000D03*
X131000000Y-80800000D03*
X131000000Y-83340000D03*
X131000000Y-85880000D03*
X131000000Y-88420000D03*
X131000000Y-90960000D03*
X131000000Y-93500000D03*
X131000000Y-96040000D03*
X131000000Y-98580000D03*
X131000000Y-101120000D03*
X131000000Y-103660000D03*
X131000000Y-106200000D03*
X131000000Y-108740000D03*
%TD*%
D10*
%TO.C,J13*%
X119500000Y-45240000D03*
D11*
X119500000Y-47780000D03*
X119500000Y-50320000D03*
X119500000Y-52860000D03*
X119500000Y-55400000D03*
X119500000Y-57940000D03*
X119500000Y-60480000D03*
X119500000Y-63020000D03*
X119500000Y-65560000D03*
X119500000Y-68100000D03*
X119500000Y-70640000D03*
X119500000Y-73180000D03*
X119500000Y-75720000D03*
X119500000Y-78260000D03*
X119500000Y-80800000D03*
X119500000Y-83340000D03*
X119500000Y-85880000D03*
X119500000Y-88420000D03*
X119500000Y-90960000D03*
X119500000Y-93500000D03*
X119500000Y-96040000D03*
X119500000Y-98580000D03*
X119500000Y-101120000D03*
X119500000Y-103660000D03*
X119500000Y-106200000D03*
X119500000Y-108740000D03*
%TD*%
D10*
%TO.C,J12*%
X108000000Y-45240000D03*
D11*
X108000000Y-47780000D03*
X108000000Y-50320000D03*
X108000000Y-52860000D03*
X108000000Y-55400000D03*
X108000000Y-57940000D03*
X108000000Y-60480000D03*
X108000000Y-63020000D03*
X108000000Y-65560000D03*
X108000000Y-68100000D03*
X108000000Y-70640000D03*
X108000000Y-73180000D03*
X108000000Y-75720000D03*
X108000000Y-78260000D03*
X108000000Y-80800000D03*
X108000000Y-83340000D03*
X108000000Y-85880000D03*
X108000000Y-88420000D03*
X108000000Y-90960000D03*
X108000000Y-93500000D03*
X108000000Y-96040000D03*
X108000000Y-98580000D03*
X108000000Y-101120000D03*
X108000000Y-103660000D03*
X108000000Y-106200000D03*
X108000000Y-108740000D03*
%TD*%
D10*
%TO.C,J3*%
X96500000Y-45240000D03*
D11*
X96500000Y-47780000D03*
X96500000Y-50320000D03*
X96500000Y-52860000D03*
X96500000Y-55400000D03*
X96500000Y-57940000D03*
X96500000Y-60480000D03*
X96500000Y-63020000D03*
X96500000Y-65560000D03*
X96500000Y-68100000D03*
X96500000Y-70640000D03*
X96500000Y-73180000D03*
X96500000Y-75720000D03*
X96500000Y-78260000D03*
X96500000Y-80800000D03*
X96500000Y-83340000D03*
X96500000Y-85880000D03*
X96500000Y-88420000D03*
X96500000Y-90960000D03*
X96500000Y-93500000D03*
X96500000Y-96040000D03*
X96500000Y-98580000D03*
X96500000Y-101120000D03*
X96500000Y-103660000D03*
X96500000Y-106200000D03*
X96500000Y-108740000D03*
%TD*%
D12*
%TO.C,J6*%
X78350000Y-79862600D03*
D13*
X78350000Y-82402600D03*
X75810000Y-79862600D03*
X75810000Y-82402600D03*
X73270000Y-79862600D03*
X73270000Y-82402600D03*
X70730000Y-79862600D03*
X70730000Y-82402600D03*
X68190000Y-79862600D03*
X68190000Y-82402600D03*
X65650000Y-79862600D03*
X65650000Y-82402600D03*
X63110000Y-79862600D03*
X63110000Y-82402600D03*
X60570000Y-79862600D03*
X60570000Y-82402600D03*
X58030000Y-79862600D03*
X58030000Y-82402600D03*
X55490000Y-79862600D03*
X55490000Y-82402600D03*
%TD*%
D12*
%TO.C,J10*%
X78350000Y-116765100D03*
D13*
X78350000Y-119305100D03*
X75810000Y-116765100D03*
X75810000Y-119305100D03*
X73270000Y-116765100D03*
X73270000Y-119305100D03*
X70730000Y-116765100D03*
X70730000Y-119305100D03*
X68190000Y-116765100D03*
X68190000Y-119305100D03*
X65650000Y-116765100D03*
X65650000Y-119305100D03*
X63110000Y-116765100D03*
X63110000Y-119305100D03*
X60570000Y-116765100D03*
X60570000Y-119305100D03*
X58030000Y-116765100D03*
X58030000Y-119305100D03*
X55490000Y-116765100D03*
X55490000Y-119305100D03*
%TD*%
D12*
%TO.C,J8*%
X86620000Y-104464300D03*
D13*
X86620000Y-107004300D03*
X84080000Y-104464300D03*
X84080000Y-107004300D03*
X81540000Y-104464300D03*
X81540000Y-107004300D03*
X79000000Y-104464300D03*
X79000000Y-107004300D03*
X76460000Y-104464300D03*
X76460000Y-107004300D03*
%TD*%
D12*
%TO.C,J4*%
X65650000Y-55260900D03*
D13*
X65650000Y-57800900D03*
X63110000Y-55260900D03*
X63110000Y-57800900D03*
X60570000Y-55260900D03*
X60570000Y-57800900D03*
X58030000Y-55260900D03*
X58030000Y-57800900D03*
X55490000Y-55260900D03*
X55490000Y-57800900D03*
%TD*%
D12*
%TO.C,J1*%
X60580000Y-104464300D03*
D13*
X60580000Y-107004300D03*
X58040000Y-104464300D03*
X58040000Y-107004300D03*
X55500000Y-104464300D03*
X55500000Y-107004300D03*
%TD*%
D12*
%TO.C,J9*%
X107740000Y-116765100D03*
D13*
X107740000Y-119305100D03*
X105200000Y-116765100D03*
X105200000Y-119305100D03*
X102660000Y-116765100D03*
X102660000Y-119305100D03*
X100120000Y-116765100D03*
X100120000Y-119305100D03*
X97580000Y-116765100D03*
X97580000Y-119305100D03*
X95040000Y-116765100D03*
X95040000Y-119305100D03*
X92500000Y-116765100D03*
X92500000Y-119305100D03*
%TD*%
D12*
%TO.C,J2*%
X60580000Y-42960000D03*
D13*
X60580000Y-45500000D03*
X58040000Y-42960000D03*
X58040000Y-45500000D03*
X55500000Y-42960000D03*
X55500000Y-45500000D03*
%TD*%
D12*
%TO.C,J7*%
X85970000Y-129066000D03*
D13*
X85970000Y-131606000D03*
X83430000Y-129066000D03*
X83430000Y-131606000D03*
X80890000Y-129066000D03*
X80890000Y-131606000D03*
X78350000Y-129066000D03*
X78350000Y-131606000D03*
X75810000Y-129066000D03*
X75810000Y-131606000D03*
X73270000Y-129066000D03*
X73270000Y-131606000D03*
X70730000Y-129066000D03*
X70730000Y-131606000D03*
X68190000Y-129066000D03*
X68190000Y-131606000D03*
X65650000Y-129066000D03*
X65650000Y-131606000D03*
X63110000Y-129066000D03*
X63110000Y-131606000D03*
X60570000Y-129066000D03*
X60570000Y-131606000D03*
X58030000Y-129066000D03*
X58030000Y-131606000D03*
X55490000Y-129066000D03*
X55490000Y-131606000D03*
%TD*%
D12*
%TO.C,J5*%
X70730000Y-67561700D03*
D13*
X70730000Y-70101700D03*
X68190000Y-67561700D03*
X68190000Y-70101700D03*
X65650000Y-67561700D03*
X65650000Y-70101700D03*
X63110000Y-67561700D03*
X63110000Y-70101700D03*
X60570000Y-67561700D03*
X60570000Y-70101700D03*
X58030000Y-67561700D03*
X58030000Y-70101700D03*
X55490000Y-67561700D03*
X55490000Y-70101700D03*
%TD*%
D12*
%TO.C,J11*%
X85970000Y-92163400D03*
D13*
X85970000Y-94703400D03*
X83430000Y-92163400D03*
X83430000Y-94703400D03*
X80890000Y-92163400D03*
X80890000Y-94703400D03*
X78350000Y-92163400D03*
X78350000Y-94703400D03*
X75810000Y-92163400D03*
X75810000Y-94703400D03*
X73270000Y-92163400D03*
X73270000Y-94703400D03*
X70730000Y-92163400D03*
X70730000Y-94703400D03*
X68190000Y-92163400D03*
X68190000Y-94703400D03*
X65650000Y-92163400D03*
X65650000Y-94703400D03*
X63110000Y-92163400D03*
X63110000Y-94703400D03*
X60570000Y-92163400D03*
X60570000Y-94703400D03*
X58030000Y-92163400D03*
X58030000Y-94703400D03*
X55490000Y-92163400D03*
X55490000Y-94703400D03*
%TD*%
M02*
