%TF.GenerationSoftware,KiCad,Pcbnew,9.0.0*%
%TF.CreationDate,2025-04-12T15:14:54+10:00*%
%TF.ProjectId,Cable Pass Through,4361626c-6520-4506-9173-73205468726f,rev?*%
%TF.SameCoordinates,Original*%
%TF.FileFunction,Copper,L2,Bot*%
%TF.FilePolarity,Positive*%
%FSLAX46Y46*%
G04 Gerber Fmt 4.6, Leading zero omitted, Abs format (unit mm)*
G04 Created by KiCad (PCBNEW 9.0.0) date 2025-04-12 15:14:54*
%MOMM*%
%LPD*%
G01*
G04 APERTURE LIST*
G04 Aperture macros list*
%AMRoundRect*
0 Rectangle with rounded corners*
0 $1 Rounding radius*
0 $2 $3 $4 $5 $6 $7 $8 $9 X,Y pos of 4 corners*
0 Add a 4 corners polygon primitive as box body*
4,1,4,$2,$3,$4,$5,$6,$7,$8,$9,$2,$3,0*
0 Add four circle primitives for the rounded corners*
1,1,$1+$1,$2,$3*
1,1,$1+$1,$4,$5*
1,1,$1+$1,$6,$7*
1,1,$1+$1,$8,$9*
0 Add four rect primitives between the rounded corners*
20,1,$1+$1,$2,$3,$4,$5,0*
20,1,$1+$1,$4,$5,$6,$7,0*
20,1,$1+$1,$6,$7,$8,$9,0*
20,1,$1+$1,$8,$9,$2,$3,0*%
G04 Aperture macros list end*
%TA.AperFunction,ComponentPad*%
%ADD10R,1.700000X1.700000*%
%TD*%
%TA.AperFunction,ComponentPad*%
%ADD11O,1.700000X1.700000*%
%TD*%
%TA.AperFunction,ComponentPad*%
%ADD12RoundRect,0.250000X-0.600000X0.600000X-0.600000X-0.600000X0.600000X-0.600000X0.600000X0.600000X0*%
%TD*%
%TA.AperFunction,ComponentPad*%
%ADD13C,1.700000*%
%TD*%
%TA.AperFunction,ViaPad*%
%ADD14C,0.600000*%
%TD*%
%TA.AperFunction,Conductor*%
%ADD15C,0.200000*%
%TD*%
G04 APERTURE END LIST*
D10*
%TO.P,J14,1,Pin_1*%
%TO.N,/PIN_01*%
X131000000Y-45240000D03*
D11*
%TO.P,J14,2,Pin_2*%
%TO.N,/PIN_02*%
X131000000Y-47780000D03*
%TO.P,J14,3,Pin_3*%
%TO.N,/PIN_03*%
X131000000Y-50320000D03*
%TO.P,J14,4,Pin_4*%
%TO.N,/PIN_04*%
X131000000Y-52860000D03*
%TO.P,J14,5,Pin_5*%
%TO.N,/PIN_05*%
X131000000Y-55400000D03*
%TO.P,J14,6,Pin_6*%
%TO.N,/PIN_06*%
X131000000Y-57940000D03*
%TO.P,J14,7,Pin_7*%
%TO.N,/PIN_07*%
X131000000Y-60480000D03*
%TO.P,J14,8,Pin_8*%
%TO.N,/PIN_08*%
X131000000Y-63020000D03*
%TO.P,J14,9,Pin_9*%
%TO.N,/PIN_09*%
X131000000Y-65560000D03*
%TO.P,J14,10,Pin_10*%
%TO.N,/PIN_10*%
X131000000Y-68100000D03*
%TO.P,J14,11,Pin_11*%
%TO.N,/PIN_11*%
X131000000Y-70640000D03*
%TO.P,J14,12,Pin_12*%
%TO.N,/PIN_12*%
X131000000Y-73180000D03*
%TO.P,J14,13,Pin_13*%
%TO.N,/PIN_13*%
X131000000Y-75720000D03*
%TO.P,J14,14,Pin_14*%
%TO.N,/PIN_14*%
X131000000Y-78260000D03*
%TO.P,J14,15,Pin_15*%
%TO.N,/PIN_15*%
X131000000Y-80800000D03*
%TO.P,J14,16,Pin_16*%
%TO.N,/PIN_16*%
X131000000Y-83340000D03*
%TO.P,J14,17,Pin_17*%
%TO.N,/PIN_17*%
X131000000Y-85880000D03*
%TO.P,J14,18,Pin_18*%
%TO.N,/PIN_18*%
X131000000Y-88420000D03*
%TO.P,J14,19,Pin_19*%
%TO.N,/PIN_19*%
X131000000Y-90960000D03*
%TO.P,J14,20,Pin_20*%
%TO.N,/PIN_20*%
X131000000Y-93500000D03*
%TO.P,J14,21,Pin_21*%
%TO.N,/PIN_21*%
X131000000Y-96040000D03*
%TO.P,J14,22,Pin_22*%
%TO.N,/PIN_22*%
X131000000Y-98580000D03*
%TO.P,J14,23,Pin_23*%
%TO.N,/PIN_23*%
X131000000Y-101120000D03*
%TO.P,J14,24,Pin_24*%
%TO.N,/PIN_24*%
X131000000Y-103660000D03*
%TO.P,J14,25,Pin_25*%
%TO.N,/PIN_25*%
X131000000Y-106200000D03*
%TO.P,J14,26,Pin_26*%
%TO.N,/PIN_26*%
X131000000Y-108740000D03*
%TD*%
D10*
%TO.P,J13,1,Pin_1*%
%TO.N,/PIN_01*%
X119500000Y-45240000D03*
D11*
%TO.P,J13,2,Pin_2*%
%TO.N,/PIN_02*%
X119500000Y-47780000D03*
%TO.P,J13,3,Pin_3*%
%TO.N,/PIN_03*%
X119500000Y-50320000D03*
%TO.P,J13,4,Pin_4*%
%TO.N,/PIN_04*%
X119500000Y-52860000D03*
%TO.P,J13,5,Pin_5*%
%TO.N,/PIN_05*%
X119500000Y-55400000D03*
%TO.P,J13,6,Pin_6*%
%TO.N,/PIN_06*%
X119500000Y-57940000D03*
%TO.P,J13,7,Pin_7*%
%TO.N,/PIN_07*%
X119500000Y-60480000D03*
%TO.P,J13,8,Pin_8*%
%TO.N,/PIN_08*%
X119500000Y-63020000D03*
%TO.P,J13,9,Pin_9*%
%TO.N,/PIN_09*%
X119500000Y-65560000D03*
%TO.P,J13,10,Pin_10*%
%TO.N,/PIN_10*%
X119500000Y-68100000D03*
%TO.P,J13,11,Pin_11*%
%TO.N,/PIN_11*%
X119500000Y-70640000D03*
%TO.P,J13,12,Pin_12*%
%TO.N,/PIN_12*%
X119500000Y-73180000D03*
%TO.P,J13,13,Pin_13*%
%TO.N,/PIN_13*%
X119500000Y-75720000D03*
%TO.P,J13,14,Pin_14*%
%TO.N,/PIN_14*%
X119500000Y-78260000D03*
%TO.P,J13,15,Pin_15*%
%TO.N,/PIN_15*%
X119500000Y-80800000D03*
%TO.P,J13,16,Pin_16*%
%TO.N,/PIN_16*%
X119500000Y-83340000D03*
%TO.P,J13,17,Pin_17*%
%TO.N,/PIN_17*%
X119500000Y-85880000D03*
%TO.P,J13,18,Pin_18*%
%TO.N,/PIN_18*%
X119500000Y-88420000D03*
%TO.P,J13,19,Pin_19*%
%TO.N,/PIN_19*%
X119500000Y-90960000D03*
%TO.P,J13,20,Pin_20*%
%TO.N,/PIN_20*%
X119500000Y-93500000D03*
%TO.P,J13,21,Pin_21*%
%TO.N,/PIN_21*%
X119500000Y-96040000D03*
%TO.P,J13,22,Pin_22*%
%TO.N,/PIN_22*%
X119500000Y-98580000D03*
%TO.P,J13,23,Pin_23*%
%TO.N,/PIN_23*%
X119500000Y-101120000D03*
%TO.P,J13,24,Pin_24*%
%TO.N,/PIN_24*%
X119500000Y-103660000D03*
%TO.P,J13,25,Pin_25*%
%TO.N,/PIN_25*%
X119500000Y-106200000D03*
%TO.P,J13,26,Pin_26*%
%TO.N,/PIN_26*%
X119500000Y-108740000D03*
%TD*%
D10*
%TO.P,J12,1,Pin_1*%
%TO.N,/PIN_01*%
X108000000Y-45240000D03*
D11*
%TO.P,J12,2,Pin_2*%
%TO.N,/PIN_02*%
X108000000Y-47780000D03*
%TO.P,J12,3,Pin_3*%
%TO.N,/PIN_03*%
X108000000Y-50320000D03*
%TO.P,J12,4,Pin_4*%
%TO.N,/PIN_04*%
X108000000Y-52860000D03*
%TO.P,J12,5,Pin_5*%
%TO.N,/PIN_05*%
X108000000Y-55400000D03*
%TO.P,J12,6,Pin_6*%
%TO.N,/PIN_06*%
X108000000Y-57940000D03*
%TO.P,J12,7,Pin_7*%
%TO.N,/PIN_07*%
X108000000Y-60480000D03*
%TO.P,J12,8,Pin_8*%
%TO.N,/PIN_08*%
X108000000Y-63020000D03*
%TO.P,J12,9,Pin_9*%
%TO.N,/PIN_09*%
X108000000Y-65560000D03*
%TO.P,J12,10,Pin_10*%
%TO.N,/PIN_10*%
X108000000Y-68100000D03*
%TO.P,J12,11,Pin_11*%
%TO.N,/PIN_11*%
X108000000Y-70640000D03*
%TO.P,J12,12,Pin_12*%
%TO.N,/PIN_12*%
X108000000Y-73180000D03*
%TO.P,J12,13,Pin_13*%
%TO.N,/PIN_13*%
X108000000Y-75720000D03*
%TO.P,J12,14,Pin_14*%
%TO.N,/PIN_14*%
X108000000Y-78260000D03*
%TO.P,J12,15,Pin_15*%
%TO.N,/PIN_15*%
X108000000Y-80800000D03*
%TO.P,J12,16,Pin_16*%
%TO.N,/PIN_16*%
X108000000Y-83340000D03*
%TO.P,J12,17,Pin_17*%
%TO.N,/PIN_17*%
X108000000Y-85880000D03*
%TO.P,J12,18,Pin_18*%
%TO.N,/PIN_18*%
X108000000Y-88420000D03*
%TO.P,J12,19,Pin_19*%
%TO.N,/PIN_19*%
X108000000Y-90960000D03*
%TO.P,J12,20,Pin_20*%
%TO.N,/PIN_20*%
X108000000Y-93500000D03*
%TO.P,J12,21,Pin_21*%
%TO.N,/PIN_21*%
X108000000Y-96040000D03*
%TO.P,J12,22,Pin_22*%
%TO.N,/PIN_22*%
X108000000Y-98580000D03*
%TO.P,J12,23,Pin_23*%
%TO.N,/PIN_23*%
X108000000Y-101120000D03*
%TO.P,J12,24,Pin_24*%
%TO.N,/PIN_24*%
X108000000Y-103660000D03*
%TO.P,J12,25,Pin_25*%
%TO.N,/PIN_25*%
X108000000Y-106200000D03*
%TO.P,J12,26,Pin_26*%
%TO.N,/PIN_26*%
X108000000Y-108740000D03*
%TD*%
D10*
%TO.P,J3,1,Pin_1*%
%TO.N,/PIN_01*%
X96500000Y-45240000D03*
D11*
%TO.P,J3,2,Pin_2*%
%TO.N,/PIN_02*%
X96500000Y-47780000D03*
%TO.P,J3,3,Pin_3*%
%TO.N,/PIN_03*%
X96500000Y-50320000D03*
%TO.P,J3,4,Pin_4*%
%TO.N,/PIN_04*%
X96500000Y-52860000D03*
%TO.P,J3,5,Pin_5*%
%TO.N,/PIN_05*%
X96500000Y-55400000D03*
%TO.P,J3,6,Pin_6*%
%TO.N,/PIN_06*%
X96500000Y-57940000D03*
%TO.P,J3,7,Pin_7*%
%TO.N,/PIN_07*%
X96500000Y-60480000D03*
%TO.P,J3,8,Pin_8*%
%TO.N,/PIN_08*%
X96500000Y-63020000D03*
%TO.P,J3,9,Pin_9*%
%TO.N,/PIN_09*%
X96500000Y-65560000D03*
%TO.P,J3,10,Pin_10*%
%TO.N,/PIN_10*%
X96500000Y-68100000D03*
%TO.P,J3,11,Pin_11*%
%TO.N,/PIN_11*%
X96500000Y-70640000D03*
%TO.P,J3,12,Pin_12*%
%TO.N,/PIN_12*%
X96500000Y-73180000D03*
%TO.P,J3,13,Pin_13*%
%TO.N,/PIN_13*%
X96500000Y-75720000D03*
%TO.P,J3,14,Pin_14*%
%TO.N,/PIN_14*%
X96500000Y-78260000D03*
%TO.P,J3,15,Pin_15*%
%TO.N,/PIN_15*%
X96500000Y-80800000D03*
%TO.P,J3,16,Pin_16*%
%TO.N,/PIN_16*%
X96500000Y-83340000D03*
%TO.P,J3,17,Pin_17*%
%TO.N,/PIN_17*%
X96500000Y-85880000D03*
%TO.P,J3,18,Pin_18*%
%TO.N,/PIN_18*%
X96500000Y-88420000D03*
%TO.P,J3,19,Pin_19*%
%TO.N,/PIN_19*%
X96500000Y-90960000D03*
%TO.P,J3,20,Pin_20*%
%TO.N,/PIN_20*%
X96500000Y-93500000D03*
%TO.P,J3,21,Pin_21*%
%TO.N,/PIN_21*%
X96500000Y-96040000D03*
%TO.P,J3,22,Pin_22*%
%TO.N,/PIN_22*%
X96500000Y-98580000D03*
%TO.P,J3,23,Pin_23*%
%TO.N,/PIN_23*%
X96500000Y-101120000D03*
%TO.P,J3,24,Pin_24*%
%TO.N,/PIN_24*%
X96500000Y-103660000D03*
%TO.P,J3,25,Pin_25*%
%TO.N,/PIN_25*%
X96500000Y-106200000D03*
%TO.P,J3,26,Pin_26*%
%TO.N,/PIN_26*%
X96500000Y-108740000D03*
%TD*%
D12*
%TO.P,J6,1,Pin_1*%
%TO.N,/PIN_01*%
X78350000Y-79862600D03*
D13*
%TO.P,J6,2,Pin_2*%
%TO.N,/PIN_02*%
X78350000Y-82402600D03*
%TO.P,J6,3,Pin_3*%
%TO.N,/PIN_03*%
X75810000Y-79862600D03*
%TO.P,J6,4,Pin_4*%
%TO.N,/PIN_04*%
X75810000Y-82402600D03*
%TO.P,J6,5,Pin_5*%
%TO.N,/PIN_05*%
X73270000Y-79862600D03*
%TO.P,J6,6,Pin_6*%
%TO.N,/PIN_06*%
X73270000Y-82402600D03*
%TO.P,J6,7,Pin_7*%
%TO.N,/PIN_07*%
X70730000Y-79862600D03*
%TO.P,J6,8,Pin_8*%
%TO.N,/PIN_08*%
X70730000Y-82402600D03*
%TO.P,J6,9,Pin_9*%
%TO.N,/PIN_09*%
X68190000Y-79862600D03*
%TO.P,J6,10,Pin_10*%
%TO.N,/PIN_10*%
X68190000Y-82402600D03*
%TO.P,J6,11,Pin_11*%
%TO.N,/PIN_11*%
X65650000Y-79862600D03*
%TO.P,J6,12,Pin_12*%
%TO.N,/PIN_12*%
X65650000Y-82402600D03*
%TO.P,J6,13,Pin_13*%
%TO.N,/PIN_13*%
X63110000Y-79862600D03*
%TO.P,J6,14,Pin_14*%
%TO.N,/PIN_14*%
X63110000Y-82402600D03*
%TO.P,J6,15,Pin_15*%
%TO.N,/PIN_15*%
X60570000Y-79862600D03*
%TO.P,J6,16,Pin_16*%
%TO.N,/PIN_16*%
X60570000Y-82402600D03*
%TO.P,J6,17,Pin_17*%
%TO.N,/PIN_17*%
X58030000Y-79862600D03*
%TO.P,J6,18,Pin_18*%
%TO.N,/PIN_18*%
X58030000Y-82402600D03*
%TO.P,J6,19,Pin_19*%
%TO.N,/PIN_19*%
X55490000Y-79862600D03*
%TO.P,J6,20,Pin_20*%
%TO.N,/PIN_20*%
X55490000Y-82402600D03*
%TD*%
D12*
%TO.P,J10,1,Pin_1*%
%TO.N,/PIN_01*%
X78350000Y-116765100D03*
D13*
%TO.P,J10,2,Pin_2*%
%TO.N,/PIN_02*%
X78350000Y-119305100D03*
%TO.P,J10,3,Pin_3*%
%TO.N,/PIN_03*%
X75810000Y-116765100D03*
%TO.P,J10,4,Pin_4*%
%TO.N,/PIN_04*%
X75810000Y-119305100D03*
%TO.P,J10,5,Pin_5*%
%TO.N,/PIN_05*%
X73270000Y-116765100D03*
%TO.P,J10,6,Pin_6*%
%TO.N,/PIN_06*%
X73270000Y-119305100D03*
%TO.P,J10,7,Pin_7*%
%TO.N,/PIN_07*%
X70730000Y-116765100D03*
%TO.P,J10,8,Pin_8*%
%TO.N,/PIN_08*%
X70730000Y-119305100D03*
%TO.P,J10,9,Pin_9*%
%TO.N,/PIN_09*%
X68190000Y-116765100D03*
%TO.P,J10,10,Pin_10*%
%TO.N,/PIN_10*%
X68190000Y-119305100D03*
%TO.P,J10,11,Pin_11*%
%TO.N,/PIN_11*%
X65650000Y-116765100D03*
%TO.P,J10,12,Pin_12*%
%TO.N,/PIN_12*%
X65650000Y-119305100D03*
%TO.P,J10,13,Pin_13*%
%TO.N,/PIN_13*%
X63110000Y-116765100D03*
%TO.P,J10,14,Pin_14*%
%TO.N,/PIN_14*%
X63110000Y-119305100D03*
%TO.P,J10,15,Pin_15*%
%TO.N,/PIN_15*%
X60570000Y-116765100D03*
%TO.P,J10,16,Pin_16*%
%TO.N,/PIN_16*%
X60570000Y-119305100D03*
%TO.P,J10,17,Pin_17*%
%TO.N,/PIN_17*%
X58030000Y-116765100D03*
%TO.P,J10,18,Pin_18*%
%TO.N,/PIN_18*%
X58030000Y-119305100D03*
%TO.P,J10,19,Pin_19*%
%TO.N,/PIN_19*%
X55490000Y-116765100D03*
%TO.P,J10,20,Pin_20*%
%TO.N,/PIN_20*%
X55490000Y-119305100D03*
%TD*%
D12*
%TO.P,J8,1,Pin_1*%
%TO.N,/PIN_01*%
X86620000Y-104464300D03*
D13*
%TO.P,J8,2,Pin_2*%
%TO.N,/PIN_02*%
X86620000Y-107004300D03*
%TO.P,J8,3,Pin_3*%
%TO.N,/PIN_03*%
X84080000Y-104464300D03*
%TO.P,J8,4,Pin_4*%
%TO.N,/PIN_04*%
X84080000Y-107004300D03*
%TO.P,J8,5,Pin_5*%
%TO.N,/PIN_05*%
X81540000Y-104464300D03*
%TO.P,J8,6,Pin_6*%
%TO.N,/PIN_06*%
X81540000Y-107004300D03*
%TO.P,J8,7,Pin_7*%
%TO.N,/PIN_07*%
X79000000Y-104464300D03*
%TO.P,J8,8,Pin_8*%
%TO.N,/PIN_08*%
X79000000Y-107004300D03*
%TO.P,J8,9,Pin_9*%
%TO.N,/PIN_09*%
X76460000Y-104464300D03*
%TO.P,J8,10,Pin_10*%
%TO.N,/PIN_10*%
X76460000Y-107004300D03*
%TD*%
D12*
%TO.P,J4,1,Pin_1*%
%TO.N,/PIN_01*%
X65650000Y-55260900D03*
D13*
%TO.P,J4,2,Pin_2*%
%TO.N,/PIN_02*%
X65650000Y-57800900D03*
%TO.P,J4,3,Pin_3*%
%TO.N,/PIN_03*%
X63110000Y-55260900D03*
%TO.P,J4,4,Pin_4*%
%TO.N,/PIN_04*%
X63110000Y-57800900D03*
%TO.P,J4,5,Pin_5*%
%TO.N,/PIN_05*%
X60570000Y-55260900D03*
%TO.P,J4,6,Pin_6*%
%TO.N,/PIN_06*%
X60570000Y-57800900D03*
%TO.P,J4,7,Pin_7*%
%TO.N,/PIN_07*%
X58030000Y-55260900D03*
%TO.P,J4,8,Pin_8*%
%TO.N,/PIN_08*%
X58030000Y-57800900D03*
%TO.P,J4,9,Pin_9*%
%TO.N,/PIN_09*%
X55490000Y-55260900D03*
%TO.P,J4,10,Pin_10*%
%TO.N,/PIN_10*%
X55490000Y-57800900D03*
%TD*%
D12*
%TO.P,J1,1,Pin_1*%
%TO.N,/PIN_01*%
X60580000Y-104464300D03*
D13*
%TO.P,J1,2,Pin_2*%
%TO.N,/PIN_02*%
X60580000Y-107004300D03*
%TO.P,J1,3,Pin_3*%
%TO.N,/PIN_03*%
X58040000Y-104464300D03*
%TO.P,J1,4,Pin_4*%
%TO.N,/PIN_04*%
X58040000Y-107004300D03*
%TO.P,J1,5,Pin_5*%
%TO.N,/PIN_05*%
X55500000Y-104464300D03*
%TO.P,J1,6,Pin_6*%
%TO.N,/PIN_06*%
X55500000Y-107004300D03*
%TD*%
D12*
%TO.P,J9,1,Pin_1*%
%TO.N,/PIN_01*%
X107740000Y-116765100D03*
D13*
%TO.P,J9,2,Pin_2*%
%TO.N,/PIN_02*%
X107740000Y-119305100D03*
%TO.P,J9,3,Pin_3*%
%TO.N,/PIN_03*%
X105200000Y-116765100D03*
%TO.P,J9,4,Pin_4*%
%TO.N,/PIN_04*%
X105200000Y-119305100D03*
%TO.P,J9,5,Pin_5*%
%TO.N,/PIN_05*%
X102660000Y-116765100D03*
%TO.P,J9,6,Pin_6*%
%TO.N,/PIN_06*%
X102660000Y-119305100D03*
%TO.P,J9,7,Pin_7*%
%TO.N,/PIN_07*%
X100120000Y-116765100D03*
%TO.P,J9,8,Pin_8*%
%TO.N,/PIN_08*%
X100120000Y-119305100D03*
%TO.P,J9,9,Pin_9*%
%TO.N,/PIN_09*%
X97580000Y-116765100D03*
%TO.P,J9,10,Pin_10*%
%TO.N,/PIN_10*%
X97580000Y-119305100D03*
%TO.P,J9,11,Pin_11*%
%TO.N,/PIN_11*%
X95040000Y-116765100D03*
%TO.P,J9,12,Pin_12*%
%TO.N,/PIN_12*%
X95040000Y-119305100D03*
%TO.P,J9,13,Pin_13*%
%TO.N,/PIN_13*%
X92500000Y-116765100D03*
%TO.P,J9,14,Pin_14*%
%TO.N,/PIN_14*%
X92500000Y-119305100D03*
%TD*%
D12*
%TO.P,J2,1,Pin_1*%
%TO.N,/PIN_01*%
X60580000Y-42960000D03*
D13*
%TO.P,J2,2,Pin_2*%
%TO.N,/PIN_02*%
X60580000Y-45500000D03*
%TO.P,J2,3,Pin_3*%
%TO.N,/PIN_03*%
X58040000Y-42960000D03*
%TO.P,J2,4,Pin_4*%
%TO.N,/PIN_04*%
X58040000Y-45500000D03*
%TO.P,J2,5,Pin_5*%
%TO.N,/PIN_05*%
X55500000Y-42960000D03*
%TO.P,J2,6,Pin_6*%
%TO.N,/PIN_06*%
X55500000Y-45500000D03*
%TD*%
D12*
%TO.P,J7,1,Pin_1*%
%TO.N,/PIN_01*%
X85970000Y-129066000D03*
D13*
%TO.P,J7,2,Pin_2*%
%TO.N,/PIN_02*%
X85970000Y-131606000D03*
%TO.P,J7,3,Pin_3*%
%TO.N,/PIN_03*%
X83430000Y-129066000D03*
%TO.P,J7,4,Pin_4*%
%TO.N,/PIN_04*%
X83430000Y-131606000D03*
%TO.P,J7,5,Pin_5*%
%TO.N,/PIN_05*%
X80890000Y-129066000D03*
%TO.P,J7,6,Pin_6*%
%TO.N,/PIN_06*%
X80890000Y-131606000D03*
%TO.P,J7,7,Pin_7*%
%TO.N,/PIN_07*%
X78350000Y-129066000D03*
%TO.P,J7,8,Pin_8*%
%TO.N,/PIN_08*%
X78350000Y-131606000D03*
%TO.P,J7,9,Pin_9*%
%TO.N,/PIN_09*%
X75810000Y-129066000D03*
%TO.P,J7,10,Pin_10*%
%TO.N,/PIN_10*%
X75810000Y-131606000D03*
%TO.P,J7,11,Pin_11*%
%TO.N,/PIN_11*%
X73270000Y-129066000D03*
%TO.P,J7,12,Pin_12*%
%TO.N,/PIN_12*%
X73270000Y-131606000D03*
%TO.P,J7,13,Pin_13*%
%TO.N,/PIN_13*%
X70730000Y-129066000D03*
%TO.P,J7,14,Pin_14*%
%TO.N,/PIN_14*%
X70730000Y-131606000D03*
%TO.P,J7,15,Pin_15*%
%TO.N,/PIN_15*%
X68190000Y-129066000D03*
%TO.P,J7,16,Pin_16*%
%TO.N,/PIN_16*%
X68190000Y-131606000D03*
%TO.P,J7,17,Pin_17*%
%TO.N,/PIN_17*%
X65650000Y-129066000D03*
%TO.P,J7,18,Pin_18*%
%TO.N,/PIN_18*%
X65650000Y-131606000D03*
%TO.P,J7,19,Pin_19*%
%TO.N,/PIN_19*%
X63110000Y-129066000D03*
%TO.P,J7,20,Pin_20*%
%TO.N,/PIN_20*%
X63110000Y-131606000D03*
%TO.P,J7,21,Pin_21*%
%TO.N,/PIN_21*%
X60570000Y-129066000D03*
%TO.P,J7,22,Pin_22*%
%TO.N,/PIN_22*%
X60570000Y-131606000D03*
%TO.P,J7,23,Pin_23*%
%TO.N,/PIN_23*%
X58030000Y-129066000D03*
%TO.P,J7,24,Pin_24*%
%TO.N,/PIN_24*%
X58030000Y-131606000D03*
%TO.P,J7,25,Pin_25*%
%TO.N,/PIN_25*%
X55490000Y-129066000D03*
%TO.P,J7,26,Pin_26*%
%TO.N,/PIN_26*%
X55490000Y-131606000D03*
%TD*%
D12*
%TO.P,J5,1,Pin_1*%
%TO.N,/PIN_01*%
X70730000Y-67561700D03*
D13*
%TO.P,J5,2,Pin_2*%
%TO.N,/PIN_02*%
X70730000Y-70101700D03*
%TO.P,J5,3,Pin_3*%
%TO.N,/PIN_03*%
X68190000Y-67561700D03*
%TO.P,J5,4,Pin_4*%
%TO.N,/PIN_04*%
X68190000Y-70101700D03*
%TO.P,J5,5,Pin_5*%
%TO.N,/PIN_05*%
X65650000Y-67561700D03*
%TO.P,J5,6,Pin_6*%
%TO.N,/PIN_06*%
X65650000Y-70101700D03*
%TO.P,J5,7,Pin_7*%
%TO.N,/PIN_07*%
X63110000Y-67561700D03*
%TO.P,J5,8,Pin_8*%
%TO.N,/PIN_08*%
X63110000Y-70101700D03*
%TO.P,J5,9,Pin_9*%
%TO.N,/PIN_09*%
X60570000Y-67561700D03*
%TO.P,J5,10,Pin_10*%
%TO.N,/PIN_10*%
X60570000Y-70101700D03*
%TO.P,J5,11,Pin_11*%
%TO.N,/PIN_11*%
X58030000Y-67561700D03*
%TO.P,J5,12,Pin_12*%
%TO.N,/PIN_12*%
X58030000Y-70101700D03*
%TO.P,J5,13,Pin_13*%
%TO.N,/PIN_13*%
X55490000Y-67561700D03*
%TO.P,J5,14,Pin_14*%
%TO.N,/PIN_14*%
X55490000Y-70101700D03*
%TD*%
D12*
%TO.P,J11,1,Pin_1*%
%TO.N,/PIN_01*%
X85970000Y-92163400D03*
D13*
%TO.P,J11,2,Pin_2*%
%TO.N,/PIN_02*%
X85970000Y-94703400D03*
%TO.P,J11,3,Pin_3*%
%TO.N,/PIN_03*%
X83430000Y-92163400D03*
%TO.P,J11,4,Pin_4*%
%TO.N,/PIN_04*%
X83430000Y-94703400D03*
%TO.P,J11,5,Pin_5*%
%TO.N,/PIN_05*%
X80890000Y-92163400D03*
%TO.P,J11,6,Pin_6*%
%TO.N,/PIN_06*%
X80890000Y-94703400D03*
%TO.P,J11,7,Pin_7*%
%TO.N,/PIN_07*%
X78350000Y-92163400D03*
%TO.P,J11,8,Pin_8*%
%TO.N,/PIN_08*%
X78350000Y-94703400D03*
%TO.P,J11,9,Pin_9*%
%TO.N,/PIN_09*%
X75810000Y-92163400D03*
%TO.P,J11,10,Pin_10*%
%TO.N,/PIN_10*%
X75810000Y-94703400D03*
%TO.P,J11,11,Pin_11*%
%TO.N,/PIN_11*%
X73270000Y-92163400D03*
%TO.P,J11,12,Pin_12*%
%TO.N,/PIN_12*%
X73270000Y-94703400D03*
%TO.P,J11,13,Pin_13*%
%TO.N,/PIN_13*%
X70730000Y-92163400D03*
%TO.P,J11,14,Pin_14*%
%TO.N,/PIN_14*%
X70730000Y-94703400D03*
%TO.P,J11,15,Pin_15*%
%TO.N,/PIN_15*%
X68190000Y-92163400D03*
%TO.P,J11,16,Pin_16*%
%TO.N,/PIN_16*%
X68190000Y-94703400D03*
%TO.P,J11,17,Pin_17*%
%TO.N,/PIN_17*%
X65650000Y-92163400D03*
%TO.P,J11,18,Pin_18*%
%TO.N,/PIN_18*%
X65650000Y-94703400D03*
%TO.P,J11,19,Pin_19*%
%TO.N,/PIN_19*%
X63110000Y-92163400D03*
%TO.P,J11,20,Pin_20*%
%TO.N,/PIN_20*%
X63110000Y-94703400D03*
%TO.P,J11,21,Pin_21*%
%TO.N,/PIN_21*%
X60570000Y-92163400D03*
%TO.P,J11,22,Pin_22*%
%TO.N,/PIN_22*%
X60570000Y-94703400D03*
%TO.P,J11,23,Pin_23*%
%TO.N,/PIN_23*%
X58030000Y-92163400D03*
%TO.P,J11,24,Pin_24*%
%TO.N,/PIN_24*%
X58030000Y-94703400D03*
%TO.P,J11,25,Pin_25*%
%TO.N,/PIN_25*%
X55490000Y-92163400D03*
%TO.P,J11,26,Pin_26*%
%TO.N,/PIN_26*%
X55490000Y-94703400D03*
%TD*%
D14*
%TO.N,/PIN_26*%
X56680500Y-109999100D03*
%TO.N,/PIN_25*%
X53790100Y-108694600D03*
%TO.N,/PIN_24*%
X52916900Y-102077800D03*
%TO.N,/PIN_23*%
X61376100Y-97222100D03*
X60198700Y-110600800D03*
X53395100Y-109925900D03*
%TO.N,/PIN_17*%
X65324600Y-89426700D03*
X56780700Y-93419600D03*
%TO.N,/PIN_15*%
X52258700Y-115371700D03*
%TO.N,/PIN_14*%
X92724200Y-133116900D03*
%TO.N,/PIN_13*%
X70040600Y-114222200D03*
%TO.N,/PIN_12*%
X72380000Y-120493000D03*
%TO.N,/PIN_10*%
X77018700Y-122169400D03*
X97047000Y-122554700D03*
%TO.N,/PIN_09*%
X74954200Y-113879800D03*
%TO.N,/PIN_08*%
X79642100Y-121898200D03*
X91386400Y-94770000D03*
%TO.N,/PIN_07*%
X79697800Y-115095500D03*
%TO.N,/PIN_06*%
X82082500Y-120273900D03*
X82082500Y-124213000D03*
X81757000Y-102677300D03*
%TO.N,/PIN_05*%
X80952500Y-116673000D03*
%TO.N,/PIN_04*%
X84617300Y-118972700D03*
%TO.N,/PIN_03*%
X85231700Y-114495100D03*
X75808400Y-114092100D03*
X83430000Y-114161600D03*
%TO.N,/PIN_02*%
X76278000Y-108442400D03*
%TO.N,/PIN_01*%
X87782400Y-114095000D03*
X87782400Y-117399200D03*
X85970000Y-117399200D03*
%TD*%
D15*
%TO.N,/PIN_26*%
X56680500Y-130415500D02*
X56680500Y-109999100D01*
X55490000Y-131606000D02*
X56680500Y-130415500D01*
X54275000Y-107593600D02*
X56680500Y-109999100D01*
X54275000Y-103636700D02*
X54275000Y-107593600D01*
X55490000Y-102421700D02*
X54275000Y-103636700D01*
X55490000Y-94703400D02*
X55490000Y-102421700D01*
%TO.N,/PIN_25*%
X53746600Y-93906800D02*
X55490000Y-92163400D01*
X53746600Y-102929200D02*
X53746600Y-93906800D01*
X53471600Y-103204200D02*
X53746600Y-102929200D01*
X53471600Y-108376100D02*
X53471600Y-103204200D01*
X53790100Y-108694600D02*
X53471600Y-108376100D01*
X53996800Y-108901300D02*
X53790100Y-108694600D01*
X53996800Y-110175100D02*
X53996800Y-108901300D01*
X53873300Y-110298600D02*
X53996800Y-110175100D01*
X53873300Y-127449300D02*
X53873300Y-110298600D01*
X55490000Y-129066000D02*
X53873300Y-127449300D01*
%TO.N,/PIN_24*%
X56441200Y-133194800D02*
X58030000Y-131606000D01*
X54860700Y-133194800D02*
X56441200Y-133194800D01*
X52916900Y-131251000D02*
X54860700Y-133194800D01*
X52916900Y-110298500D02*
X52916900Y-131251000D01*
X52793400Y-110175000D02*
X52916900Y-110298500D01*
X52793400Y-102201300D02*
X52793400Y-110175000D01*
X52916900Y-102077800D02*
X52793400Y-102201300D01*
%TO.N,/PIN_23*%
X58030000Y-129664600D02*
X58030000Y-129066000D01*
X56878300Y-130816300D02*
X58030000Y-129664600D01*
X56878300Y-131858000D02*
X56878300Y-130816300D01*
X55943200Y-132793100D02*
X56878300Y-131858000D01*
X55027000Y-132793100D02*
X55943200Y-132793100D01*
X54022600Y-131788700D02*
X55027000Y-132793100D01*
X54022600Y-131010500D02*
X54022600Y-131788700D01*
X53395100Y-130383000D02*
X54022600Y-131010500D01*
X53395100Y-109925900D02*
X53395100Y-130383000D01*
X60198700Y-109022600D02*
X60198700Y-110600800D01*
X61760600Y-107460700D02*
X60198700Y-109022600D01*
X61760600Y-101729000D02*
X61760600Y-107460700D01*
X61360400Y-101328800D02*
X61760600Y-101729000D01*
X61360400Y-97237800D02*
X61360400Y-101328800D01*
X61376100Y-97222100D02*
X61360400Y-97237800D01*
%TO.N,/PIN_22*%
X62162300Y-96295700D02*
X60570000Y-94703400D01*
X62162300Y-107627000D02*
X62162300Y-96295700D01*
X61762100Y-108027200D02*
X62162300Y-107627000D01*
X61762100Y-130413900D02*
X61762100Y-108027200D01*
X60570000Y-131606000D02*
X61762100Y-130413900D01*
%TO.N,/PIN_21*%
X59395600Y-127891600D02*
X60570000Y-129066000D01*
X59395600Y-93337800D02*
X59395600Y-127891600D01*
X60570000Y-92163400D02*
X59395600Y-93337800D01*
%TO.N,/PIN_20*%
X55490000Y-85415100D02*
X59299000Y-89224100D01*
X55490000Y-82402600D02*
X55490000Y-85415100D01*
X61857900Y-91783000D02*
X59299000Y-89224100D01*
X61857900Y-93451300D02*
X61857900Y-91783000D01*
X63110000Y-94703400D02*
X61857900Y-93451300D01*
X56760000Y-91763100D02*
X59299000Y-89224100D01*
X56760000Y-92581800D02*
X56760000Y-91763100D01*
X55790100Y-93551700D02*
X56760000Y-92581800D01*
X55013000Y-93551700D02*
X55790100Y-93551700D01*
X54275000Y-94289700D02*
X55013000Y-93551700D01*
X54275000Y-103008400D02*
X54275000Y-94289700D01*
X53873300Y-103410100D02*
X54275000Y-103008400D01*
X53873300Y-107920600D02*
X53873300Y-103410100D01*
X54398500Y-108445800D02*
X53873300Y-107920600D01*
X54398500Y-110341400D02*
X54398500Y-108445800D01*
X54275000Y-110464900D02*
X54398500Y-110341400D01*
X54275000Y-118090100D02*
X54275000Y-110464900D01*
X55490000Y-119305100D02*
X54275000Y-118090100D01*
%TO.N,/PIN_19*%
X56760000Y-85813400D02*
X63110000Y-92163400D01*
X56760000Y-81132600D02*
X56760000Y-85813400D01*
X55490000Y-79862600D02*
X56760000Y-81132600D01*
X64275100Y-127900900D02*
X63110000Y-129066000D01*
X64275100Y-93328500D02*
X64275100Y-127900900D01*
X63110000Y-92163400D02*
X64275100Y-93328500D01*
%TO.N,/PIN_18*%
X65650000Y-94108100D02*
X65650000Y-94703400D01*
X64380000Y-92838100D02*
X65650000Y-94108100D01*
X64380000Y-90493700D02*
X64380000Y-92838100D01*
X58030000Y-84143700D02*
X64380000Y-90493700D01*
X58030000Y-82402600D02*
X58030000Y-84143700D01*
X66840600Y-130415400D02*
X65650000Y-131606000D01*
X66840600Y-95894000D02*
X66840600Y-130415400D01*
X65650000Y-94703400D02*
X66840600Y-95894000D01*
%TO.N,/PIN_17*%
X56780700Y-107471400D02*
X56780700Y-93419600D01*
X58030000Y-108720700D02*
X56780700Y-107471400D01*
X58030000Y-116765100D02*
X58030000Y-108720700D01*
X65650000Y-89752100D02*
X65650000Y-92163400D01*
X65324600Y-89426700D02*
X65650000Y-89752100D01*
X59300000Y-83402100D02*
X65324600Y-89426700D01*
X59300000Y-81132600D02*
X59300000Y-83402100D01*
X58030000Y-79862600D02*
X59300000Y-81132600D01*
%TO.N,/PIN_16*%
X66937900Y-88770500D02*
X60570000Y-82402600D01*
X66937900Y-93451300D02*
X66937900Y-88770500D01*
X68190000Y-94703400D02*
X66937900Y-93451300D01*
X69388900Y-95902300D02*
X68190000Y-94703400D01*
X69388900Y-130407100D02*
X69388900Y-95902300D01*
X68190000Y-131606000D02*
X69388900Y-130407100D01*
%TO.N,/PIN_15*%
X68190000Y-89369800D02*
X68190000Y-92163400D01*
X61840000Y-83019800D02*
X68190000Y-89369800D01*
X61840000Y-81700500D02*
X61840000Y-83019800D01*
X60570000Y-80430500D02*
X61840000Y-81700500D01*
X60570000Y-79862600D02*
X60570000Y-80430500D01*
X52258700Y-81352500D02*
X52258700Y-115371700D01*
X54928600Y-78682600D02*
X52258700Y-81352500D01*
X59390000Y-78682600D02*
X54928600Y-78682600D01*
X60570000Y-79862600D02*
X59390000Y-78682600D01*
%TO.N,/PIN_14*%
X63110000Y-82315700D02*
X63110000Y-82402600D01*
X61881300Y-81087000D02*
X63110000Y-82315700D01*
X61881300Y-78703700D02*
X61881300Y-81087000D01*
X55490000Y-72312400D02*
X61881300Y-78703700D01*
X55490000Y-70101700D02*
X55490000Y-72312400D01*
X96500000Y-78260000D02*
X96500000Y-79411700D01*
X69477900Y-88770500D02*
X63110000Y-82402600D01*
X69477900Y-93451300D02*
X69477900Y-88770500D01*
X70730000Y-94703400D02*
X69477900Y-93451300D01*
X92724200Y-119305100D02*
X92500000Y-119305100D01*
X93770000Y-118259300D02*
X92724200Y-119305100D01*
X93770000Y-81853800D02*
X93770000Y-118259300D01*
X96212100Y-79411700D02*
X93770000Y-81853800D01*
X96500000Y-79411700D02*
X96212100Y-79411700D01*
X92724200Y-119305100D02*
X92724200Y-133116900D01*
%TO.N,/PIN_13*%
X63110000Y-78206900D02*
X63110000Y-79862600D01*
X56878300Y-71975200D02*
X63110000Y-78206900D01*
X56878300Y-68950000D02*
X56878300Y-71975200D01*
X55490000Y-67561700D02*
X56878300Y-68950000D01*
X96500000Y-75720000D02*
X96500000Y-76871700D01*
X70730000Y-89369800D02*
X70730000Y-92163400D01*
X64380000Y-83019800D02*
X70730000Y-89369800D01*
X64380000Y-81700500D02*
X64380000Y-83019800D01*
X63110000Y-80430500D02*
X64380000Y-81700500D01*
X63110000Y-79862600D02*
X63110000Y-80430500D01*
X70040600Y-97932600D02*
X70040600Y-114222200D01*
X71944800Y-96028400D02*
X70040600Y-97932600D01*
X71944800Y-93991100D02*
X71944800Y-96028400D01*
X70730000Y-92776300D02*
X71944800Y-93991100D01*
X70730000Y-92163400D02*
X70730000Y-92776300D01*
X96212100Y-76871700D02*
X96500000Y-76871700D01*
X92500000Y-80583800D02*
X96212100Y-76871700D01*
X92500000Y-116765100D02*
X92500000Y-80583800D01*
%TO.N,/PIN_12*%
X65650000Y-82315700D02*
X65650000Y-82402600D01*
X64421300Y-81087000D02*
X65650000Y-82315700D01*
X64421300Y-77060900D02*
X64421300Y-81087000D01*
X58030000Y-70669600D02*
X64421300Y-77060900D01*
X58030000Y-70101700D02*
X58030000Y-70669600D01*
X72098700Y-120493000D02*
X72380000Y-120493000D01*
X72098700Y-130434700D02*
X73270000Y-131606000D01*
X72098700Y-120493000D02*
X72098700Y-130434700D01*
X71881700Y-93315100D02*
X73270000Y-94703400D01*
X71881700Y-88634300D02*
X71881700Y-93315100D01*
X65650000Y-82402600D02*
X71881700Y-88634300D01*
X73270000Y-95271400D02*
X73270000Y-94703400D01*
X72098700Y-96442700D02*
X73270000Y-95271400D01*
X72098700Y-120493000D02*
X72098700Y-96442700D01*
%TO.N,/PIN_11*%
X65650000Y-77580300D02*
X65650000Y-79862600D01*
X59282000Y-71212300D02*
X65650000Y-77580300D01*
X59282000Y-68813700D02*
X59282000Y-71212300D01*
X58030000Y-67561700D02*
X59282000Y-68813700D01*
X73270000Y-89369800D02*
X73270000Y-92163400D01*
X66920000Y-83019800D02*
X73270000Y-89369800D01*
X66920000Y-81132600D02*
X66920000Y-83019800D01*
X65650000Y-79862600D02*
X66920000Y-81132600D01*
X95040000Y-83146400D02*
X95040000Y-116765100D01*
X96116400Y-82070000D02*
X95040000Y-83146400D01*
X96883000Y-82070000D02*
X96116400Y-82070000D01*
X97681000Y-81272000D02*
X96883000Y-82070000D01*
X97681000Y-72684800D02*
X97681000Y-81272000D01*
X96787900Y-71791700D02*
X97681000Y-72684800D01*
X96500000Y-71791700D02*
X96787900Y-71791700D01*
X96500000Y-70640000D02*
X96500000Y-71791700D01*
%TO.N,/PIN_10*%
X60570000Y-69449100D02*
X60570000Y-70101700D01*
X59300000Y-68179100D02*
X60570000Y-69449100D01*
X59300000Y-61610900D02*
X59300000Y-68179100D01*
X55490000Y-57800900D02*
X59300000Y-61610900D01*
X68190000Y-81774200D02*
X68190000Y-82402600D01*
X67038300Y-80622500D02*
X68190000Y-81774200D01*
X67038300Y-77137900D02*
X67038300Y-80622500D01*
X60570000Y-70669600D02*
X67038300Y-77137900D01*
X60570000Y-70101700D02*
X60570000Y-70669600D01*
X77018700Y-130397300D02*
X75810000Y-131606000D01*
X77018700Y-122169400D02*
X77018700Y-130397300D01*
X76460000Y-106436300D02*
X76460000Y-107004300D01*
X77650500Y-105245800D02*
X76460000Y-106436300D01*
X77650500Y-96543900D02*
X77650500Y-105245800D01*
X75810000Y-94703400D02*
X77650500Y-96543900D01*
X97047000Y-119838100D02*
X97580000Y-119305100D01*
X97047000Y-122554700D02*
X97047000Y-119838100D01*
X107731500Y-69251700D02*
X108000000Y-69251700D01*
X98850000Y-78133200D02*
X107731500Y-69251700D01*
X98850000Y-118035100D02*
X98850000Y-78133200D01*
X97580000Y-119305100D02*
X98850000Y-118035100D01*
X108000000Y-68100000D02*
X108000000Y-69251700D01*
X77018700Y-114982500D02*
X77018700Y-122169400D01*
X76410200Y-114374000D02*
X77018700Y-114982500D01*
X76410200Y-113409700D02*
X76410200Y-114374000D01*
X75638400Y-112637900D02*
X76410200Y-113409700D01*
X75638400Y-107825900D02*
X75638400Y-112637900D01*
X76460000Y-107004300D02*
X75638400Y-107825900D01*
%TO.N,/PIN_09*%
X60570000Y-62228100D02*
X60570000Y-67561700D01*
X56760000Y-58418100D02*
X60570000Y-62228100D01*
X56760000Y-56530900D02*
X56760000Y-58418100D01*
X55490000Y-55260900D02*
X56760000Y-56530900D01*
X68190000Y-77580300D02*
X68190000Y-79862600D01*
X61958300Y-71348600D02*
X68190000Y-77580300D01*
X61958300Y-69587700D02*
X61958300Y-71348600D01*
X60570000Y-68199400D02*
X61958300Y-69587700D01*
X60570000Y-67561700D02*
X60570000Y-68199400D01*
X74658300Y-114175700D02*
X74954200Y-113879800D01*
X74658300Y-127914300D02*
X74658300Y-114175700D01*
X75810000Y-129066000D02*
X74658300Y-127914300D01*
X74954200Y-105970100D02*
X74954200Y-113879800D01*
X76460000Y-104464300D02*
X74954200Y-105970100D01*
X74643500Y-102647800D02*
X76460000Y-104464300D01*
X74643500Y-93329900D02*
X74643500Y-102647800D01*
X75810000Y-92163400D02*
X74643500Y-93329900D01*
X75809900Y-92163400D02*
X75810000Y-92163400D01*
X75809900Y-90996400D02*
X75809900Y-92163400D01*
X69508000Y-84694500D02*
X75809900Y-90996400D01*
X69508000Y-81809000D02*
X69508000Y-84694500D01*
X68190000Y-80491000D02*
X69508000Y-81809000D01*
X68190000Y-79862600D02*
X68190000Y-80491000D01*
%TO.N,/PIN_08*%
X61857900Y-61628800D02*
X58030000Y-57800900D01*
X61857900Y-68849600D02*
X61857900Y-61628800D01*
X63110000Y-70101700D02*
X61857900Y-68849600D01*
X79547300Y-130408700D02*
X79547300Y-121524700D01*
X78350000Y-131606000D02*
X79547300Y-130408700D01*
X79642100Y-121751300D02*
X79642100Y-121898200D01*
X79589000Y-121698200D02*
X79642100Y-121751300D01*
X79589000Y-121566400D02*
X79589000Y-121698200D01*
X79547300Y-121524700D02*
X79589000Y-121566400D01*
X80190600Y-96544000D02*
X78350000Y-94703400D01*
X80190600Y-105644300D02*
X80190600Y-96544000D01*
X79000000Y-106834900D02*
X80190600Y-105644300D01*
X79000000Y-107004300D02*
X79000000Y-106834900D01*
X69460000Y-81132600D02*
X70730000Y-82402600D01*
X69460000Y-78016300D02*
X69460000Y-81132600D01*
X63110000Y-71666300D02*
X69460000Y-78016300D01*
X63110000Y-70101700D02*
X63110000Y-71666300D01*
X79949000Y-107953300D02*
X79000000Y-107004300D01*
X79949000Y-114495800D02*
X79949000Y-107953300D01*
X80299500Y-114846300D02*
X79949000Y-114495800D01*
X80299500Y-115313500D02*
X80299500Y-114846300D01*
X80350700Y-115364700D02*
X80299500Y-115313500D01*
X80350700Y-120721300D02*
X80350700Y-115364700D01*
X79547300Y-121524700D02*
X80350700Y-120721300D01*
X96231500Y-64171700D02*
X96500000Y-64171700D01*
X91386400Y-69016800D02*
X96231500Y-64171700D01*
X91386400Y-94770000D02*
X91386400Y-69016800D01*
X96500000Y-63020000D02*
X96500000Y-64171700D01*
%TO.N,/PIN_07*%
X63110000Y-62228100D02*
X63110000Y-67561700D01*
X59300000Y-58418100D02*
X63110000Y-62228100D01*
X59300000Y-57098800D02*
X59300000Y-58418100D01*
X58030000Y-55828800D02*
X59300000Y-57098800D01*
X58030000Y-55260900D02*
X58030000Y-55828800D01*
X70730000Y-78101700D02*
X70730000Y-79862600D01*
X64498300Y-71870000D02*
X70730000Y-78101700D01*
X64498300Y-69587700D02*
X64498300Y-71870000D01*
X63110000Y-68199400D02*
X64498300Y-69587700D01*
X63110000Y-67561700D02*
X63110000Y-68199400D01*
X77103100Y-90916500D02*
X78350000Y-92163400D01*
X79000000Y-96993800D02*
X79000000Y-104464300D01*
X77080000Y-95073800D02*
X79000000Y-96993800D01*
X77080000Y-94776800D02*
X77080000Y-95073800D01*
X77103100Y-94753700D02*
X77080000Y-94776800D01*
X77103100Y-90916500D02*
X77103100Y-94753700D01*
X71979900Y-85793300D02*
X77103100Y-90916500D01*
X71979900Y-81112500D02*
X71979900Y-85793300D01*
X70730000Y-79862600D02*
X71979900Y-81112500D01*
X79697800Y-115279900D02*
X79697800Y-115095500D01*
X79949000Y-115531100D02*
X79697800Y-115279900D01*
X79949000Y-119656700D02*
X79949000Y-115531100D01*
X78350000Y-121255700D02*
X79949000Y-119656700D01*
X78350000Y-129066000D02*
X78350000Y-121255700D01*
X79000000Y-104785500D02*
X79000000Y-104464300D01*
X77848300Y-105937200D02*
X79000000Y-104785500D01*
X77848300Y-113246000D02*
X77848300Y-105937200D01*
X79697800Y-115095500D02*
X77848300Y-113246000D01*
%TO.N,/PIN_06*%
X60570000Y-57714000D02*
X60570000Y-57800900D01*
X59341300Y-56485300D02*
X60570000Y-57714000D01*
X59341300Y-50335900D02*
X59341300Y-56485300D01*
X55500000Y-46494600D02*
X59341300Y-50335900D01*
X55500000Y-45500000D02*
X55500000Y-46494600D01*
X64397900Y-61628800D02*
X60570000Y-57800900D01*
X64397900Y-68849600D02*
X64397900Y-61628800D01*
X65650000Y-70101700D02*
X64397900Y-68849600D01*
X82082500Y-107546800D02*
X81540000Y-107004300D01*
X82082500Y-120273900D02*
X82082500Y-107546800D01*
X65650000Y-71628500D02*
X65650000Y-70101700D01*
X71881700Y-77860200D02*
X65650000Y-71628500D01*
X71881700Y-80309100D02*
X71881700Y-77860200D01*
X73270000Y-81697400D02*
X71881700Y-80309100D01*
X73270000Y-82402600D02*
X73270000Y-81697400D01*
X82082500Y-130413500D02*
X82082500Y-124213000D01*
X80890000Y-131606000D02*
X82082500Y-130413500D01*
X82082500Y-124213000D02*
X82082500Y-120273900D01*
X79511100Y-93324500D02*
X80890000Y-94703400D01*
X79511100Y-88643700D02*
X79511100Y-93324500D01*
X73270000Y-82402600D02*
X79511100Y-88643700D01*
X80890000Y-101810300D02*
X81757000Y-102677300D01*
X80890000Y-94703400D02*
X80890000Y-101810300D01*
%TO.N,/PIN_05*%
X60570000Y-50428600D02*
X60570000Y-55260900D01*
X56888300Y-46746900D02*
X60570000Y-50428600D01*
X56888300Y-44348300D02*
X56888300Y-46746900D01*
X55500000Y-42960000D02*
X56888300Y-44348300D01*
X65650000Y-62228100D02*
X65650000Y-67561700D01*
X61840000Y-58418100D02*
X65650000Y-62228100D01*
X61840000Y-57098800D02*
X61840000Y-58418100D01*
X60570000Y-55828800D02*
X61840000Y-57098800D01*
X60570000Y-55260900D02*
X60570000Y-55828800D01*
X80890000Y-89111300D02*
X80890000Y-92163400D01*
X74658300Y-82879600D02*
X80890000Y-89111300D01*
X74658300Y-81888600D02*
X74658300Y-82879600D01*
X73270000Y-80500300D02*
X74658300Y-81888600D01*
X73270000Y-79862600D02*
X73270000Y-80500300D01*
X65650000Y-68199400D02*
X65650000Y-67561700D01*
X66920000Y-69469400D02*
X65650000Y-68199400D01*
X66920000Y-71458200D02*
X66920000Y-69469400D01*
X73270000Y-77808200D02*
X66920000Y-71458200D01*
X73270000Y-79862600D02*
X73270000Y-77808200D01*
X80890000Y-92773500D02*
X80890000Y-92163400D01*
X82082500Y-93966000D02*
X80890000Y-92773500D01*
X82082500Y-102151900D02*
X82082500Y-93966000D01*
X82358700Y-102428100D02*
X82082500Y-102151900D01*
X82358700Y-103645600D02*
X82358700Y-102428100D01*
X81540000Y-104464300D02*
X82358700Y-103645600D01*
X80752400Y-116673000D02*
X80952500Y-116673000D01*
X80752400Y-128928400D02*
X80752400Y-116673000D01*
X80890000Y-129066000D02*
X80752400Y-128928400D01*
X81540000Y-104863000D02*
X81540000Y-104464300D01*
X80540400Y-105862600D02*
X81540000Y-104863000D01*
X80540300Y-105862600D02*
X80540400Y-105862600D01*
X80540300Y-105862700D02*
X80540300Y-105862600D01*
X80382200Y-106020800D02*
X80540300Y-105862700D01*
X80382200Y-114361000D02*
X80382200Y-106020800D01*
X80752400Y-114731200D02*
X80382200Y-114361000D01*
X80752400Y-116673000D02*
X80752400Y-114731200D01*
%TO.N,/PIN_04*%
X63110000Y-57716100D02*
X63110000Y-57800900D01*
X61832400Y-56438500D02*
X63110000Y-57716100D01*
X61832400Y-49292400D02*
X61832400Y-56438500D01*
X58040000Y-45500000D02*
X61832400Y-49292400D01*
X66937900Y-68849600D02*
X68190000Y-70101700D01*
X66937900Y-61628800D02*
X66937900Y-68849600D01*
X63110000Y-57800900D02*
X66937900Y-61628800D01*
X68190000Y-70669600D02*
X68190000Y-70101700D01*
X74557900Y-77037500D02*
X68190000Y-70669600D01*
X74557900Y-81150500D02*
X74557900Y-77037500D01*
X75810000Y-82402600D02*
X74557900Y-81150500D01*
X82111200Y-93384600D02*
X83430000Y-94703400D01*
X82111100Y-93384600D02*
X82111200Y-93384600D01*
X82111100Y-88703700D02*
X82111100Y-93384600D01*
X75810000Y-82402600D02*
X82111100Y-88703700D01*
X82910600Y-105834900D02*
X84080000Y-107004300D01*
X82910600Y-95222800D02*
X82910600Y-105834900D01*
X83430000Y-94703400D02*
X82910600Y-95222800D01*
X84617300Y-107541600D02*
X84617300Y-118972700D01*
X84080000Y-107004300D02*
X84617300Y-107541600D01*
X84617300Y-130418700D02*
X83430000Y-131606000D01*
X84617300Y-118972700D02*
X84617300Y-130418700D01*
%TO.N,/PIN_03*%
X84380000Y-104464300D02*
X84080000Y-104464300D01*
X84380000Y-105414300D02*
X84380000Y-104464300D01*
X85231700Y-106266000D02*
X84380000Y-105414300D01*
X85231700Y-114495100D02*
X85231700Y-106266000D01*
X63110000Y-49658700D02*
X63110000Y-55260900D01*
X59428300Y-45977000D02*
X63110000Y-49658700D01*
X59428300Y-44348300D02*
X59428300Y-45977000D01*
X58040000Y-42960000D02*
X59428300Y-44348300D01*
X68190000Y-62230100D02*
X68190000Y-67561700D01*
X64380000Y-58420100D02*
X68190000Y-62230100D01*
X64380000Y-57098800D02*
X64380000Y-58420100D01*
X63110000Y-55828800D02*
X64380000Y-57098800D01*
X63110000Y-55260900D02*
X63110000Y-55828800D01*
X84622500Y-104221800D02*
X84380000Y-104464300D01*
X84622500Y-93409700D02*
X84622500Y-104221800D01*
X83430000Y-92217200D02*
X84622500Y-93409700D01*
X83430000Y-92163400D02*
X83430000Y-92217200D01*
X83430000Y-129066000D02*
X83430000Y-114161600D01*
X83430000Y-89111500D02*
X83430000Y-92163400D01*
X76982200Y-82663700D02*
X83430000Y-89111500D01*
X76982200Y-81093700D02*
X76982200Y-82663700D01*
X75810000Y-79921500D02*
X76982200Y-81093700D01*
X75810000Y-79862600D02*
X75810000Y-79921500D01*
X75810000Y-77588300D02*
X75810000Y-79862600D01*
X69578300Y-71356600D02*
X75810000Y-77588300D01*
X69578300Y-69598800D02*
X69578300Y-71356600D01*
X68190000Y-68210500D02*
X69578300Y-69598800D01*
X68190000Y-67561700D02*
X68190000Y-68210500D01*
X75810000Y-114093700D02*
X75808400Y-114092100D01*
X75810000Y-116765100D02*
X75810000Y-114093700D01*
%TO.N,/PIN_02*%
X65650000Y-57518100D02*
X65650000Y-57800900D01*
X64266000Y-56134100D02*
X65650000Y-57518100D01*
X64266000Y-49186000D02*
X64266000Y-56134100D01*
X60580000Y-45500000D02*
X64266000Y-49186000D01*
X85438800Y-95234600D02*
X85438800Y-99373900D01*
X85970000Y-94703400D02*
X85438800Y-95234600D01*
X85438800Y-105823100D02*
X86620000Y-107004300D01*
X85438800Y-99373900D02*
X85438800Y-105823100D01*
X87122700Y-130453300D02*
X85970000Y-131606000D01*
X87122700Y-107506900D02*
X87122700Y-130453300D01*
X87122600Y-107506900D02*
X87122700Y-107506900D01*
X86620000Y-107004300D02*
X87122600Y-107506900D01*
X85438800Y-93658000D02*
X85438800Y-99373900D01*
X84818800Y-93038000D02*
X85438800Y-93658000D01*
X84818800Y-92993700D02*
X84818800Y-93038000D01*
X84817300Y-92992200D02*
X84818800Y-92993700D01*
X84817300Y-88869900D02*
X84817300Y-92992200D01*
X78350000Y-82402600D02*
X84817300Y-88869900D01*
X69477900Y-61628800D02*
X65650000Y-57800900D01*
X69477900Y-68849600D02*
X69477900Y-61628800D01*
X70730000Y-70101700D02*
X69477900Y-68849600D01*
X77197300Y-76569000D02*
X70730000Y-70101700D01*
X77197300Y-80691400D02*
X77197300Y-76569000D01*
X78350000Y-81844100D02*
X77197300Y-80691400D01*
X78350000Y-82402600D02*
X78350000Y-81844100D01*
X76886700Y-109051100D02*
X76278000Y-108442400D01*
X76886700Y-113320300D02*
X76886700Y-109051100D01*
X79547300Y-115980900D02*
X76886700Y-113320300D01*
X79547300Y-118107800D02*
X79547300Y-115980900D01*
X78350000Y-119305100D02*
X79547300Y-118107800D01*
%TO.N,/PIN_01*%
X65650000Y-48030000D02*
X65650000Y-55260900D01*
X60580000Y-42960000D02*
X65650000Y-48030000D01*
X70730000Y-60340900D02*
X70730000Y-67561700D01*
X65650000Y-55260900D02*
X70730000Y-60340900D01*
X78350000Y-75181700D02*
X78350000Y-79862600D01*
X70730000Y-67561700D02*
X78350000Y-75181700D01*
X85970000Y-87482600D02*
X78350000Y-79862600D01*
X85970000Y-92163400D02*
X85970000Y-87482600D01*
X87151500Y-103932800D02*
X86620000Y-104464300D01*
X87151500Y-93344900D02*
X87151500Y-103932800D01*
X85970000Y-92163400D02*
X87151500Y-93344900D01*
X87782400Y-105626700D02*
X87782400Y-114095000D01*
X86620000Y-104464300D02*
X87782400Y-105626700D01*
X87782400Y-114095000D02*
X87782400Y-117399200D01*
X85970000Y-117399200D02*
X85970000Y-129066000D01*
%TD*%
M02*
