G04 #@! TF.GenerationSoftware,KiCad,Pcbnew,(5.1.5-0-10_14)*
G04 #@! TF.CreationDate,2021-11-28T08:00:54+10:00*
G04 #@! TF.ProjectId,AP,41502e6b-6963-4616-945f-706362585858,rev?*
G04 #@! TF.SameCoordinates,Original*
G04 #@! TF.FileFunction,Copper,L2,Bot*
G04 #@! TF.FilePolarity,Positive*
%FSLAX46Y46*%
G04 Gerber Fmt 4.6, Leading zero omitted, Abs format (unit mm)*
G04 Created by KiCad (PCBNEW (5.1.5-0-10_14)) date 2021-11-28 08:00:54*
%MOMM*%
%LPD*%
G04 APERTURE LIST*
%ADD10O,1.700000X1.700000*%
%ADD11R,1.700000X1.700000*%
%ADD12O,1.600000X1.600000*%
%ADD13R,1.600000X1.600000*%
%ADD14C,1.600000*%
%ADD15C,1.524000*%
%ADD16C,1.700000*%
%ADD17C,0.250000*%
G04 APERTURE END LIST*
D10*
X131978000Y-101955600D03*
X131978000Y-99415600D03*
D11*
X131978000Y-96875600D03*
D10*
X165760000Y-99771200D03*
X165760000Y-97231200D03*
D11*
X165760000Y-94691200D03*
D12*
X170840000Y-103124000D03*
D13*
X170840000Y-95504000D03*
D12*
X182570000Y-103190000D03*
D13*
X182570000Y-95570000D03*
D12*
X186810000Y-103380000D03*
D13*
X186810000Y-95760000D03*
D12*
X135810000Y-103190000D03*
D13*
X135810000Y-95570000D03*
D12*
X114700000Y-103090000D03*
D13*
X114700000Y-95470000D03*
D12*
X101690000Y-103090000D03*
D13*
X101690000Y-95470000D03*
D12*
X148340000Y-103380000D03*
D13*
X148340000Y-95760000D03*
D12*
X152590000Y-103290000D03*
D14*
X152590000Y-95670000D03*
D12*
X97540000Y-103000000D03*
D14*
X97540000Y-95380000D03*
D12*
X118750000Y-103190000D03*
D14*
X118750000Y-95570000D03*
D10*
X167691000Y-103530000D03*
D11*
X165151000Y-103530000D03*
D15*
X190300000Y-99605000D03*
X196091000Y-99565000D03*
D16*
X191011000Y-102740000D03*
X191011000Y-96390000D03*
X195456000Y-102740000D03*
X195456000Y-96390000D03*
D15*
X173360000Y-99605000D03*
X179151000Y-99565000D03*
D16*
X174071000Y-102740000D03*
X174071000Y-96390000D03*
X178516000Y-102740000D03*
X178516000Y-96390000D03*
D15*
X156430000Y-99605000D03*
X162221000Y-99565000D03*
D16*
X157141000Y-102740000D03*
X157141000Y-96390000D03*
X161586000Y-102740000D03*
X161586000Y-96390000D03*
D15*
X139500000Y-99605000D03*
X145291000Y-99565000D03*
D16*
X140211000Y-102740000D03*
X140211000Y-96390000D03*
X144656000Y-102740000D03*
X144656000Y-96390000D03*
D15*
X122560000Y-99605000D03*
X128351000Y-99565000D03*
D16*
X123271000Y-102740000D03*
X123271000Y-96390000D03*
X127716000Y-102740000D03*
X127716000Y-96390000D03*
D15*
X105630000Y-99605000D03*
X111421000Y-99565000D03*
D16*
X106341000Y-102740000D03*
X106341000Y-96390000D03*
X110786000Y-102740000D03*
X110786000Y-96390000D03*
D15*
X88700000Y-99605000D03*
X94491000Y-99565000D03*
D16*
X89411000Y-102740000D03*
X89411000Y-96390000D03*
X93856000Y-102740000D03*
X93856000Y-96390000D03*
D17*
X93856000Y-96506800D02*
X93388800Y-96974000D01*
X93388800Y-96974000D02*
X93388800Y-102272800D01*
X93388800Y-102272800D02*
X93856000Y-102740000D01*
X93856000Y-96390000D02*
X93856000Y-96506800D01*
X93856000Y-96506800D02*
X99527900Y-96506800D01*
X99527900Y-96506800D02*
X100564700Y-95470000D01*
X101690000Y-95470000D02*
X100564700Y-95470000D01*
X112537900Y-96390000D02*
X112654700Y-96390000D01*
X112654700Y-96390000D02*
X113574700Y-95470000D01*
X110786000Y-96390000D02*
X112537900Y-96390000D01*
X110786000Y-102740000D02*
X112537900Y-100988100D01*
X112537900Y-100988100D02*
X112537900Y-96390000D01*
X114700000Y-95470000D02*
X113574700Y-95470000D01*
X127716000Y-96390000D02*
X127216900Y-96889100D01*
X127216900Y-96889100D02*
X127216900Y-102240900D01*
X127216900Y-102240900D02*
X127716000Y-102740000D01*
X144656000Y-96390000D02*
X143478300Y-95212300D01*
X143478300Y-95212300D02*
X137293000Y-95212300D01*
X137293000Y-95212300D02*
X136935300Y-95570000D01*
X135810000Y-95570000D02*
X136935300Y-95570000D01*
X144656000Y-102740000D02*
X149465400Y-97930600D01*
X149465400Y-97930600D02*
X149465400Y-94761200D01*
X149465400Y-94761200D02*
X149338800Y-94634600D01*
X149338800Y-94634600D02*
X146411400Y-94634600D01*
X146411400Y-94634600D02*
X144656000Y-96390000D01*
X194967200Y-96878800D02*
X194967200Y-102251200D01*
X194967200Y-102251200D02*
X195456000Y-102740000D01*
X195456000Y-96390000D02*
X194967200Y-96878800D01*
X194967200Y-96878800D02*
X193291300Y-95202900D01*
X193291300Y-95202900D02*
X188492400Y-95202900D01*
X188492400Y-95202900D02*
X187935300Y-95760000D01*
X186810000Y-95760000D02*
X187935300Y-95760000D01*
X178516000Y-96390000D02*
X180624700Y-96390000D01*
X180624700Y-96390000D02*
X181444700Y-95570000D01*
X178516000Y-102740000D02*
X178041600Y-102265600D01*
X178041600Y-102265600D02*
X178041600Y-96864400D01*
X178041600Y-96864400D02*
X178516000Y-96390000D01*
X182570000Y-95570000D02*
X181444700Y-95570000D01*
X170840000Y-95504000D02*
X169714700Y-95504000D01*
X161586000Y-96390000D02*
X162109400Y-95866600D01*
X162109400Y-95866600D02*
X169352100Y-95866600D01*
X169352100Y-95866600D02*
X169714700Y-95504000D01*
X161586000Y-102740000D02*
X161103700Y-102257700D01*
X161103700Y-102257700D02*
X161103700Y-96872300D01*
X161103700Y-96872300D02*
X161586000Y-96390000D01*
X111421000Y-99565000D02*
X106200600Y-94344600D01*
X106200600Y-94344600D02*
X98575400Y-94344600D01*
X98575400Y-94344600D02*
X97540000Y-95380000D01*
X88700000Y-99605000D02*
X93461400Y-104366400D01*
X93461400Y-104366400D02*
X127819200Y-104366400D01*
X127819200Y-104366400D02*
X131415800Y-100769800D01*
X131415800Y-100769800D02*
X138335200Y-100769800D01*
X138335200Y-100769800D02*
X139500000Y-99605000D01*
X156430000Y-99605000D02*
X155933300Y-100101700D01*
X155933300Y-100101700D02*
X155933300Y-103205900D01*
X155933300Y-103205900D02*
X157432700Y-104705300D01*
X157432700Y-104705300D02*
X166148500Y-104705300D01*
X166148500Y-104705300D02*
X166515700Y-104338100D01*
X166515700Y-104338100D02*
X166515700Y-103530000D01*
X167691000Y-103530000D02*
X166515700Y-103530000D01*
X131978000Y-96875600D02*
X130802700Y-96875600D01*
X101690000Y-103090000D02*
X102815300Y-103090000D01*
X102815300Y-103090000D02*
X103641300Y-103916000D01*
X103641300Y-103916000D02*
X111995600Y-103916000D01*
X111995600Y-103916000D02*
X120733900Y-95177700D01*
X120733900Y-95177700D02*
X129104800Y-95177700D01*
X129104800Y-95177700D02*
X130802700Y-96875600D01*
X149465300Y-103380000D02*
X151274400Y-105189100D01*
X151274400Y-105189100D02*
X167741400Y-105189100D01*
X167741400Y-105189100D02*
X169714700Y-103215800D01*
X169714700Y-103215800D02*
X169714700Y-103124000D01*
X148340000Y-103380000D02*
X149465300Y-103380000D01*
X170840000Y-103124000D02*
X169714700Y-103124000D01*
X131978000Y-101955600D02*
X133153300Y-101955600D01*
X135810000Y-103190000D02*
X134387700Y-103190000D01*
X134387700Y-103190000D02*
X133153300Y-101955600D01*
X172952100Y-101621100D02*
X174071000Y-102740000D01*
X165760000Y-100358800D02*
X171689800Y-100358800D01*
X171689800Y-100358800D02*
X172952100Y-101621100D01*
X174071000Y-96390000D02*
X174460700Y-96779700D01*
X174460700Y-96779700D02*
X174460700Y-100112500D01*
X174460700Y-100112500D02*
X172952100Y-101621100D01*
X165760000Y-100358800D02*
X165760000Y-100946500D01*
X165760000Y-99771200D02*
X165760000Y-100358800D01*
X157567900Y-102313100D02*
X157141000Y-102740000D01*
X157141000Y-96390000D02*
X157567900Y-96816900D01*
X157567900Y-96816900D02*
X157567900Y-102313100D01*
X157567900Y-102313100D02*
X159184500Y-103929700D01*
X159184500Y-103929700D02*
X162069100Y-103929700D01*
X162069100Y-103929700D02*
X165052300Y-100946500D01*
X165052300Y-100946500D02*
X165760000Y-100946500D01*
X123271000Y-102740000D02*
X123694700Y-102316300D01*
X123694700Y-102316300D02*
X123694700Y-96813700D01*
X123694700Y-96813700D02*
X123271000Y-96390000D01*
X140211000Y-96390000D02*
X140594900Y-96773900D01*
X140594900Y-96773900D02*
X140594900Y-102356100D01*
X140594900Y-102356100D02*
X140211000Y-102740000D01*
X179151000Y-99565000D02*
X190260000Y-99565000D01*
X190260000Y-99565000D02*
X190300000Y-99605000D01*
X162221000Y-99565000D02*
X163218300Y-98567700D01*
X163218300Y-98567700D02*
X172322700Y-98567700D01*
X172322700Y-98567700D02*
X173360000Y-99605000D01*
M02*
