  0
SECTION
  2
HEADER
  9
$ANGBASE
  50
0.0
  9
$ANGDIR
  70
1
  9
$MEASUREMENT
  70
1
  0
ENDSEC
  0
SECTION
  2
TABLES
  0
TABLE
  2
LTYPE
  70
4
  0
LTYPE
  5
40F
  2
CONTINUOUS
  70
0
  3
Solid line
  72
65
  73
0
  40
0.0
  0
LTYPE
  5
410
  2
DASHDOT
 70
0
  3
Dash Dot ____ _ ____ _
 72
65
 73
4
 40
2.0
 49
1.25
 49
-0.25
 49
0.25
 49
-0.25
  0
LTYPE
  5
411
  2
DASHED
 70
0
  3
Dashed __ __ __ __ __
 72
65
 73
2
 40
0.75
 49
0.5
 49
-0.25
  0
LTYPE
  5
43B
  2
DOTTED
 70
0
  3
Dotted .  .  .  .
 72
65
 73
2
 40
0.2
 49
0.0
 49
-0.2
  0
ENDTAB
  0
TABLE
  2
STYLE
  70
4
  0
STYLE
  2
KICAD
  70
0
  40
0
  41
1
  42
1
  50
0
  71
0
  3
isocp.shx
  0
STYLE
  2
KICADB
  70
0
  40
0
  41
1
  42
1
  50
0
  71
0
  3
isocp.shx
  0
STYLE
  2
KICADI
  70
0
  40
0
  41
1
  42
1
  50
15
  71
0
  3
isocp.shx
  0
STYLE
  2
KICADBI
  70
0
  40
0
  41
1
  42
1
  50
15
  71
0
  3
isocp.shx
  0
ENDTAB
  0
TABLE
  2
LAYER
  70
1
  0
LAYER
  2
BLACK
  70
0
  62
7
  6
CONTINUOUS
  0
ENDTAB
  0
ENDSEC
  0
SECTION
  2
ENTITIES
0
LINE
8
BLACK
6
CONTINUOUS
10
85.09
20
-95.2279
11
85.09
21
-103.102
0
LINE
8
BLACK
6
CONTINUOUS
10
87.63
20
-105.642
11
197.104
21
-105.642
0
LINE
8
BLACK
6
CONTINUOUS
10
199.644
20
-103.102
11
199.644
21
-95.2279
0
LINE
8
BLACK
6
CONTINUOUS
10
197.104
20
-92.6879
11
87.63
21
-92.6879
0
LINE
8
BLACK
6
CONTINUOUS
10
87.63
20
-92.6879
11
85.09
21
-95.2279
0
LINE
8
BLACK
6
CONTINUOUS
10
85.09
20
-103.102
11
87.63
21
-105.642
0
LINE
8
BLACK
6
CONTINUOUS
10
197.104
20
-105.642
11
199.644
21
-103.102
0
LINE
8
BLACK
6
CONTINUOUS
10
199.644
20
-95.2279
11
197.104
21
-92.6879
0
LINE
8
BLACK
6
CONTINUOUS
10
87.9043
20
-110.349
11
87.9043
21
-107.349
0
LINE
8
BLACK
6
CONTINUOUS
10
87.9043
20
-107.349
11
88.6186
21
-107.349
0
LINE
8
BLACK
6
CONTINUOUS
10
88.6186
20
-107.349
11
89.0471
21
-107.492
0
LINE
8
BLACK
6
CONTINUOUS
10
89.0471
20
-107.492
11
89.3329
21
-107.778
0
LINE
8
BLACK
6
CONTINUOUS
10
89.3329
20
-107.778
11
89.4757
21
-108.063
0
LINE
8
BLACK
6
CONTINUOUS
10
89.4757
20
-108.063
11
89.6186
21
-108.635
0
LINE
8
BLACK
6
CONTINUOUS
10
89.6186
20
-108.635
11
89.6186
21
-109.063
0
LINE
8
BLACK
6
CONTINUOUS
10
89.6186
20
-109.063
11
89.4757
21
-109.635
0
LINE
8
BLACK
6
CONTINUOUS
10
89.4757
20
-109.635
11
89.3329
21
-109.92
0
LINE
8
BLACK
6
CONTINUOUS
10
89.3329
20
-109.92
11
89.0471
21
-110.206
0
LINE
8
BLACK
6
CONTINUOUS
10
89.0471
20
-110.206
11
88.6186
21
-110.349
0
LINE
8
BLACK
6
CONTINUOUS
10
88.6186
20
-110.349
11
87.9043
21
-110.349
0
LINE
8
BLACK
6
CONTINUOUS
10
90.9043
20
-110.349
11
90.9043
21
-108.349
0
LINE
8
BLACK
6
CONTINUOUS
10
90.9043
20
-108.92
11
91.0471
21
-108.635
0
LINE
8
BLACK
6
CONTINUOUS
10
91.0471
20
-108.635
11
91.19
21
-108.492
0
LINE
8
BLACK
6
CONTINUOUS
10
91.19
20
-108.492
11
91.4757
21
-108.349
0
LINE
8
BLACK
6
CONTINUOUS
10
91.4757
20
-108.349
11
91.7614
21
-108.349
0
LINE
8
BLACK
6
CONTINUOUS
10
92.7614
20
-110.349
11
92.7614
21
-108.349
0
LINE
8
BLACK
6
CONTINUOUS
10
92.7614
20
-107.349
11
92.6186
21
-107.492
0
LINE
8
BLACK
6
CONTINUOUS
10
92.6186
20
-107.492
11
92.7614
21
-107.635
0
LINE
8
BLACK
6
CONTINUOUS
10
92.7614
20
-107.635
11
92.9043
21
-107.492
0
LINE
8
BLACK
6
CONTINUOUS
10
92.9043
20
-107.492
11
92.7614
21
-107.349
0
LINE
8
BLACK
6
CONTINUOUS
10
92.7614
20
-107.349
11
92.7614
21
-107.635
0
LINE
8
BLACK
6
CONTINUOUS
10
94.6186
20
-110.349
11
94.3329
21
-110.206
0
LINE
8
BLACK
6
CONTINUOUS
10
94.3329
20
-110.206
11
94.19
21
-109.92
0
LINE
8
BLACK
6
CONTINUOUS
10
94.19
20
-109.92
11
94.19
21
-107.349
0
LINE
8
BLACK
6
CONTINUOUS
10
96.19
20
-110.349
11
95.9043
21
-110.206
0
LINE
8
BLACK
6
CONTINUOUS
10
95.9043
20
-110.206
11
95.7614
21
-109.92
0
LINE
8
BLACK
6
CONTINUOUS
10
95.7614
20
-109.92
11
95.7614
21
-107.349
0
LINE
8
BLACK
6
CONTINUOUS
10
99.6186
20
-110.349
11
99.6186
21
-107.349
0
LINE
8
BLACK
6
CONTINUOUS
10
99.6186
20
-107.349
11
100.619
21
-109.492
0
LINE
8
BLACK
6
CONTINUOUS
10
100.619
20
-109.492
11
101.619
21
-107.349
0
LINE
8
BLACK
6
CONTINUOUS
10
101.619
20
-107.349
11
101.619
21
-110.349
0
LINE
8
BLACK
6
CONTINUOUS
10
104.333
20
-110.349
11
104.333
21
-108.778
0
LINE
8
BLACK
6
CONTINUOUS
10
104.333
20
-108.778
11
104.19
21
-108.492
0
LINE
8
BLACK
6
CONTINUOUS
10
104.19
20
-108.492
11
103.904
21
-108.349
0
LINE
8
BLACK
6
CONTINUOUS
10
103.904
20
-108.349
11
103.333
21
-108.349
0
LINE
8
BLACK
6
CONTINUOUS
10
103.333
20
-108.349
11
103.047
21
-108.492
0
LINE
8
BLACK
6
CONTINUOUS
10
104.333
20
-110.206
11
104.047
21
-110.349
0
LINE
8
BLACK
6
CONTINUOUS
10
104.047
20
-110.349
11
103.333
21
-110.349
0
LINE
8
BLACK
6
CONTINUOUS
10
103.333
20
-110.349
11
103.047
21
-110.206
0
LINE
8
BLACK
6
CONTINUOUS
10
103.047
20
-110.206
11
102.904
21
-109.92
0
LINE
8
BLACK
6
CONTINUOUS
10
102.904
20
-109.92
11
102.904
21
-109.635
0
LINE
8
BLACK
6
CONTINUOUS
10
102.904
20
-109.635
11
103.047
21
-109.349
0
LINE
8
BLACK
6
CONTINUOUS
10
103.047
20
-109.349
11
103.333
21
-109.206
0
LINE
8
BLACK
6
CONTINUOUS
10
103.333
20
-109.206
11
104.047
21
-109.206
0
LINE
8
BLACK
6
CONTINUOUS
10
104.047
20
-109.206
11
104.333
21
-109.063
0
LINE
8
BLACK
6
CONTINUOUS
10
105.761
20
-108.349
11
105.761
21
-111.349
0
LINE
8
BLACK
6
CONTINUOUS
10
105.761
20
-108.492
11
106.047
21
-108.349
0
LINE
8
BLACK
6
CONTINUOUS
10
106.047
20
-108.349
11
106.619
21
-108.349
0
LINE
8
BLACK
6
CONTINUOUS
10
106.619
20
-108.349
11
106.904
21
-108.492
0
LINE
8
BLACK
6
CONTINUOUS
10
106.904
20
-108.492
11
107.047
21
-108.635
0
LINE
8
BLACK
6
CONTINUOUS
10
107.047
20
-108.635
11
107.19
21
-108.92
0
LINE
8
BLACK
6
CONTINUOUS
10
107.19
20
-108.92
11
107.19
21
-109.778
0
LINE
8
BLACK
6
CONTINUOUS
10
107.19
20
-109.778
11
107.047
21
-110.063
0
LINE
8
BLACK
6
CONTINUOUS
10
107.047
20
-110.063
11
106.904
21
-110.206
0
LINE
8
BLACK
6
CONTINUOUS
10
106.904
20
-110.206
11
106.619
21
-110.349
0
LINE
8
BLACK
6
CONTINUOUS
10
106.619
20
-110.349
11
106.047
21
-110.349
0
LINE
8
BLACK
6
CONTINUOUS
10
106.047
20
-110.349
11
105.761
21
-110.206
0
LINE
8
BLACK
6
CONTINUOUS
10
108.476
20
-110.063
11
108.619
21
-110.206
0
LINE
8
BLACK
6
CONTINUOUS
10
108.619
20
-110.206
11
108.476
21
-110.349
0
LINE
8
BLACK
6
CONTINUOUS
10
108.476
20
-110.349
11
108.333
21
-110.206
0
LINE
8
BLACK
6
CONTINUOUS
10
108.333
20
-110.206
11
108.476
21
-110.063
0
LINE
8
BLACK
6
CONTINUOUS
10
108.476
20
-110.063
11
108.476
21
-110.349
0
LINE
8
BLACK
6
CONTINUOUS
10
108.476
20
-108.492
11
108.619
21
-108.635
0
LINE
8
BLACK
6
CONTINUOUS
10
108.619
20
-108.635
11
108.476
21
-108.778
0
LINE
8
BLACK
6
CONTINUOUS
10
108.476
20
-108.778
11
108.333
21
-108.635
0
LINE
8
BLACK
6
CONTINUOUS
10
108.333
20
-108.635
11
108.476
21
-108.492
0
LINE
8
BLACK
6
CONTINUOUS
10
108.476
20
-108.492
11
108.476
21
-108.778
  0
ENDSEC
  0
EOF
