0
SECTION
2
HEADER
9
$INSUNITS
70
1
9
$ACADVER
1
AC1014
9
$HANDSEED
5
FFFF
0
ENDSEC
0
SECTION
2
TABLES
0
TABLE
2
VPORT
5
8
100
AcDbSymbolTable
0
ENDTAB
0
TABLE
2
LTYPE
5
5
100
AcDbSymbolTable
0
LTYPE
5
14
100
AcDbSymbolTableRecord
100
AcDbLinetypeTableRecord
2
BYBLOCK
70
0
0
LTYPE
5
15
100
AcDbSymbolTableRecord
100
AcDbLinetypeTableRecord
2
BYLAYER
70
0
0
ENDTAB
0
TABLE
2
LAYER
5
2
100
AcDbSymbolTable
70
2
0
LAYER
5
50
100
AcDbSymbolTableRecord
100
AcDbLayerTableRecord
2
0
70
0
6
CONTINUOUS
0
ENDTAB
0
TABLE
2
STYLE
5
3
100
AcDbSymbolTable
70
1
0
STYLE
5
11
100
AcDbSymbolTableRecord
100
AcDbTextStyleTableRecord
2
STANDARD
70
0
0
ENDTAB
0
TABLE
2
VIEW
5
6
100
AcDbSymbolTable
70
0
0
ENDTAB
0
TABLE
2
UCS
5
7
100
AcDbSymbolTable
70
0
0
ENDTAB
0
TABLE
2
APPID
5
9
100
AcDbSymbolTable
70
2
0
APPID
5
12
100
AcDbSymbolTableRecord
100
AcDbRegAppTableRecord
2
ACAD
70
0
0
ENDTAB
0
TABLE
2
DIMSTYLE
5
A
100
AcDbSymbolTable
70
1
0
ENDTAB
0
TABLE
2
BLOCK_RECORD
5
1
100
AcDbSymbolTable
70
1
0
BLOCK_RECORD
5
1F
100
AcDbSymbolTableRecord
100
AcDbBlockTableRecord
2
*MODEL_SPACE
0
BLOCK_RECORD
5
1B
100
AcDbSymbolTableRecord
100
AcDbBlockTableRecord
2
*PAPER_SPACE
0
ENDTAB
0
ENDSEC
0
SECTION
2
BLOCKS
0
BLOCK
5
20
100
AcDbEntity
100
AcDbBlockBegin
2
*MODEL_SPACE
0
ENDBLK
5
21
100
AcDbEntity
100
AcDbBlockEnd
0
BLOCK
5
1C
100
AcDbEntity
100
AcDbBlockBegin
2
*PAPER_SPACE
0
ENDBLK
5
1D
100
AcDbEntity
100
AcDbBlockEnd
0
ENDSEC
0
SECTION
2
ENTITIES
0
LWPOLYLINE
5
100
100
AcDbEntity
8
0
100
AcDbPolyline
90
4
70
1
43
0.0
10
0
20
0
10
-2.4999999812268823
20
9.011095911443418e-08
10
-2.4999999812268823
20
-5.9999999098890386
10
1.8773117443784281e-08
20
-5.9999999098890386
0
LWPOLYLINE
5
101
100
AcDbEntity
8
0
100
AcDbPolyline
90
24
70
1
43
0.0
10
-1.2652064567631192
20
-5.1740747778718728
42
3.2511905366503862
10
-1.3894159653450953
20
-5.4087372736543227
42
-0.56527500396666752
10
-1.2976572778097055
20
-5.4639657011505536
10
-1.2976572778097057
20
-5.6440450521854322
42
-0.41421356237309503
10
-1.3601572778097055
20
-5.7065450521854322
10
-1.6664909600373909
20
-5.7065450521854322
42
-0.41421356237309503
10
-1.7289909600373912
20
-5.6440450521854322
10
-1.7289909600373912
20
-5.3963969508496827
42
0.41421356237309503
10
-1.7914909600373909
20
-5.3338969508496836
10
-1.9139153201276946
20
-5.3338969508496827
42
0.41421356237309503
10
-1.9764153201276944
20
-5.3963969508496827
10
-1.9764153201277035
20
-5.8914215990929781
42
0.41421356237309503
10
-1.9139153201277037
20
-5.9539215990929781
10
-0.7422471439857139
20
-5.9539215990929781
42
0.41421356237309503
10
-0.6797471439857139
20
-5.8914215990929781
10
-0.6797471439857139
20
-5.7532517295174879
42
0.19891236737966367
10
-0.69805297016155565
20
-5.7090575556933274
10
-0.76388809053061968
20
-5.6432224353242662
42
0.19891236737965259
10
-0.80808226435477792
20
-5.6249166091484266
10
-0.99013254055370792
20
-5.6249166091484266
42
-0.41421356237309503
10
-1.0526325405537078
20
-5.5624166091484266
10
-1.0526325405537067
20
-5.2922154200256637
42
0.41421356237309503
10
-1.1151325405537067
20
-5.2297154200256637
10
-1.2030840034154151
20
-5.2297154200256637
42
-0.38235846488094133
0
LWPOLYLINE
5
102
100
AcDbEntity
8
0
100
AcDbPolyline
90
10
70
1
43
0.0
10
-1.524894608541405
20
-0.86455086821823002
42
0.41421356237309503
10
-1.4623946085414052
20
-0.9270508682182298
10
-1.0401354171434358
20
-0.92705086821822913
42
0.41421356237309503
10
-0.97763541714343594
20
-0.86455086821822935
10
-0.97763541714343627
20
-0.7534147883068556
42
0.30984215300956675
10
-1.0175956663485368
20
-0.69512062364088067
10
-1.1711802440158037
20
-0.63573632460518881
42
0.14949672562781829
10
-1.207642278257681
20
-0.63310085753403678
10
-1.4763168919883836
20
-0.69449240087216868
42
0.34984732122724488
10
-1.5248946085414052
20
-0.7554220326092963
0
LWPOLYLINE
5
103
100
AcDbEntity
8
0
100
AcDbPolyline
90
8
70
1
43
0.0
10
-2.0872069791774428
20
-4.1769814626198469
42
0.41421356237309837
10
-2.1497069791774432
20
-4.239481462619846
10
-2.1497069791774432
20
-4.380850341221354
42
0.41421356237309837
10
-2.0872069791774428
20
-4.443350341221354
10
-1.8659274369954837
20
-4.443350341221354
42
0.41421356237309664
10
-1.8034274369954832
20
-4.380850341221354
10
-1.8034274369954832
20
-4.2394814626198469
42
0.41421356237309997
10
-1.8659274369954837
20
-4.176981462619846
0
LWPOLYLINE
5
104
100
AcDbEntity
8
0
100
AcDbPolyline
90
8
70
1
43
0.0
10
-2.0911842703178913
20
-3.6656022596792592
42
0.41421356237309503
10
-2.1536842703178918
20
-3.7281022596792592
10
-2.1536842703178918
20
-3.8694711382807667
42
0.41421356237309503
10
-2.0911842703178913
20
-3.9319711382807663
10
-1.8699047281359316
20
-3.9319711382807663
42
0.41421356237309503
10
-1.8074047281359316
20
-3.8694711382807667
10
-1.8074047281359316
20
-3.7281022596792592
42
0.41421356237309503
10
-1.8699047281359316
20
-3.6656022596792592
0
LWPOLYLINE
5
105
100
AcDbEntity
8
0
100
AcDbPolyline
90
8
70
1
43
0.0
10
-0.89778419000827336
20
-5.0059022198443559
42
0.41421356237309426
10
-0.96028419000827314
20
-4.9434022198443559
10
-1.0739142837292808
20
-4.9434022198443568
42
0.41421356237310158
10
-1.1364142837292808
20
-5.0059022198443559
10
-1.1364142837292814
20
-5.1255052132831782
42
0.41421356237309503
10
-1.0739142837292821
20
-5.1880052132831773
10
-0.96028419000827314
20
-5.1880052132831782
42
0.41421356237309503
10
-0.89778419000827336
20
-5.1255052132831782
0
LWPOLYLINE
5
106
100
AcDbEntity
8
0
100
AcDbPolyline
90
10
70
1
43
0.0
10
-2.0142048523562814
20
-4.9710558344270259
42
2.3870885102523514
10
-2.2072245942101327
20
-5.0188916386076343
42
0.37296299729281807
10
-2.1932227928181787
20
-5.0995398483462537
10
-2.1034088208469441
20
-5.1729037371148046
42
0.17292509683099183
10
-2.0638702983466573
20
-5.1869996542447172
10
-1.8582402297846148
20
-5.1869996542447172
42
0.41421356237309503
10
-1.795740229784615
20
-5.1244996542447163
10
-1.795740229784615
20
-5.0436560159305301
42
0.41421356237309503
10
-1.8624478866170695
20
-4.9769483590980759
10
-1.9877125188070792
20
-4.976948359098075
42
-0.10986941368365176
0
LWPOLYLINE
5
107
100
AcDbEntity
8
0
100
AcDbPolyline
90
16
70
1
43
0.0
10
-0.16865428373419825
20
-3.8321596960494677
42
0.41421356237309837
10
-0.23115428373419841
20
-3.7696596960494673
10
-0.36227987231408915
20
-3.7696596960494673
42
0.26019744671363326
10
-0.41547805167183904
20
-3.7993541521121887
10
-0.49826448592626282
20
-3.9336024238761231
42
-0.26019744671363154
10
-0.55146266528401289
20
-3.9632968799388459
10
-0.73930514072930786
20
-3.9632968799388384
42
-0.18516123223507014
10
-0.78109385466802206
20
-3.9472721786183511
10
-0.93926460549353552
20
-3.8050514194727127
42
0.18516123223505182
10
-0.98105331943224483
20
-3.789026718152213
10
-1.1027756111320843
20
-3.7890267181522126
42
0.41421356237309503
10
-1.1652756111320841
20
-3.8515267181522121
10
-1.1652756111321045
20
-4.3689465188665455
42
0.41421356237309503
10
-1.1027756111321045
20
-4.4314465188665464
10
-0.23115428373419841
20
-4.4314465188665464
42
0.41421356237309503
10
-0.16865428373419844
20
-4.3689465188665455
0
LWPOLYLINE
5
108
100
AcDbEntity
8
0
100
AcDbPolyline
90
16
70
1
43
0.0
10
-1.8850560846654367
20
-4.7212314630155516
42
0.41421356237309503
10
-1.8225560846654369
20
-4.7837314630155507
10
-1.1890082606725279
20
-4.7837314630155516
42
0.41421356237309503
10
-1.1265082606725279
20
-4.7212314630155516
10
-1.1265082606725279
20
-4.5919754620258733
42
0.41421356237309748
10
-1.1890082606725283
20
-4.5294754620258724
10
-1.3427309581995917
20
-4.5294754620258724
42
-0.41421356237309503
10
-1.4052309581995917
20
-4.4669754620258733
10
-1.4052309581995917
20
-4.2394814626198469
42
0.41421356237310075
10
-1.4677309581995921
20
-4.176981462619846
10
-1.4825330710325471
20
-4.1769814626198469
42
0.41421356237309664
10
-1.5450330710325473
20
-4.239481462619846
10
-1.5450330710325471
20
-4.4056514227619186
42
-0.41421356237309503
10
-1.6075330710325475
20
-4.4681514227619186
10
-1.8346230730367314
20
-4.4681514227619186
42
0.35838609362064067
10
-1.8850560846654367
20
-4.5294754620258724
0
LWPOLYLINE
5
109
100
AcDbEntity
8
0
100
AcDbPolyline
90
9
70
1
43
0.0
10
-0.27799361717782534
20
-3.0596150839332577
42
0.33120193141904558
10
-0.23345377364835848
20
-2.9997512152013259
10
-0.23345377364835884
20
-2.9035889420714542
42
0.41421356237309503
10
-0.29595377364835862
20
-2.8410889420714551
10
-0.57915183946063675
20
-2.8410889420714542
42
0.41421356237309342
10
-0.64165183946063686
20
-2.9035889420714542
10
-0.64165183946063697
20
-2.9997512152013259
42
0.41421356237309748
10
-0.57915183946063631
20
-3.0622512152013259
10
-0.49269740413349444
20
-3.0622512152013259
42
2.129037871228892
0
LWPOLYLINE
5
110
100
AcDbEntity
8
0
100
AcDbPolyline
90
8
70
1
43
0.0
10
-1.0859337121955472
20
-3.1133371532930338
42
0.41421356237309503
10
-1.023433712195547
20
-3.1758371532930343
10
-0.89030293715265385
20
-3.1758371532930334
42
0.41421356237309426
10
-0.82780293715265385
20
-3.1133371532930338
10
-0.82780293715265418
20
-2.8792338580487464
42
0.41421356237309426
10
-0.89030293715265385
20
-2.8167338580487473
10
-1.023433712195547
20
-2.8167338580487464
42
0.41421356237309503
10
-1.085933712195547
20
-2.8792338580487464
0
LWPOLYLINE
5
111
100
AcDbEntity
8
0
100
AcDbPolyline
90
22
70
1
43
0.0
10
-1.9969718908425047
20
-2.9531021198791634
42
0.41421356237309503
10
-2.0594718908425045
20
-2.8906021198791638
10
-2.2784957248386424
20
-2.8906021198791638
42
0.41421356237309503
10
-2.3498504128411808
20
-2.9619568078817018
10
-2.3498504128411875
20
-3.5488161174721635
42
0.41421356237309503
10
-2.278495724838649
20
-3.6201708054747019
10
-1.0372203427655495
20
-3.6201708054747019
42
0.41421356237309503
10
-0.96586565476301167
20
-3.5488161174721635
10
-0.965865654763012
20
-3.4768415253681049
42
0.24971420915121489
10
-0.99740537877926416
20
-3.4176278433114189
10
-1.395155797157279
20
-3.1501825834795727
42
0.14907933082683408
10
-1.4349707611435643
20
-3.1380415775337207
10
-1.5560165660081307
20
-3.1380415775337203
42
0.41421356237309215
10
-1.6273712540106691
20
-3.2093962655362582
10
-1.6273712540106737
20
-3.3266873511485122
42
-0.41421356237313522
10
-1.6987259420132066
20
-3.3980420391510546
10
-1.7292781659444634
20
-3.3980420391510506
42
-0.41421356237309503
10
-1.8006328539469962
20
-3.3266873511485175
10
-1.8006328539470011
20
-3.207271105480074
42
0.41421356237309503
10
-1.8631328539470009
20
-3.1447711054800744
10
-1.9344718908425043
20
-3.144771105480074
42
-0.41421356237309503
10
-1.996971890842504
20
-3.0822711054800744
0
LWPOLYLINE
5
112
100
AcDbEntity
8
0
100
AcDbPolyline
90
8
70
1
43
0.0
10
-0.07932889701390386
20
-3.4778002651210582
42
0.41421356237309503
10
-0.141828897013904
20
-3.4153002651210582
10
-0.28534263176683128
20
-3.4153002651210582
42
0.41421356237309503
10
-0.34784263176683161
20
-3.4778002651210582
10
-0.34784263176683128
20
-3.575225821520871
42
0.41421356237309503
10
-0.28534263176683111
20
-3.637725821520871
10
-0.141828897013904
20
-3.637725821520871
42
0.41421356237309503
10
-0.079328897013904207
20
-3.575225821520871
0
LWPOLYLINE
5
113
100
AcDbEntity
8
0
100
AcDbPolyline
90
8
70
1
43
0.0
10
-1.525538329005508
20
-1.1848364134577369
42
0.27330354966560755
10
-1.5578746218715991
20
-1.1300970238745516
10
-1.6714631524154708
20
-1.0675049636563867
42
0.57071736784620886
10
-1.7641268595493809
20
-1.1222443532395736
10
-1.7641268595493809
20
-1.3096170565041561
42
0.41421356237310158
10
-1.7016268595493793
20
-1.3721170565041567
10
-1.5880383290055082
20
-1.3721170565041558
42
0.41421356237309503
10
-1.5255383290055082
20
-1.3096170565041561
0
LWPOLYLINE
5
114
100
AcDbEntity
8
0
100
AcDbPolyline
90
8
70
1
43
0.0
10
-0.98170579890078846
20
-1.3077112246500875
42
0.41421356237309503
10
-0.91920579890078813
20
-1.3702112246500879
10
-0.80029620878099927
20
-1.3702112246500879
42
0.41421356237309503
10
-0.73779620878099883
20
-1.3077112246500875
10
-0.73779620878099961
20
-1.1887647473294076
42
0.41421356237309503
10
-0.80029620878099927
20
-1.1262647473294078
10
-0.91920579890078813
20
-1.1262647473294078
42
0.41421356237309837
10
-0.98170579890078813
20
-1.1887647473294083
0
LWPOLYLINE
5
115
100
AcDbEntity
8
0
100
AcDbPolyline
90
20
70
1
43
0.0
10
-0.92297953456681991
20
-1.5289197551518683
42
0.18896955364872095
10
-0.9654477316908453
20
-1.5122749864023484
10
-1.0977800317692803
20
-1.5122749864023477
42
0.41421356237309837
10
-1.1602800317692803
20
-1.5747749864023481
10
-1.1602800317692723
20
-1.6897574793103858
42
-0.41421356237302459
10
-1.2227800317692803
20
-1.7522574793103791
10
-1.2817105661424515
20
-1.7522574793103765
42
-0.41421356237304424
10
-1.3442105661424608
20
-1.6897574793103858
10
-1.3442105661424557
20
-1.5698748381329217
42
0.41421356237307699
10
-1.4067105661424517
20
-1.5073748381329219
10
-1.5255383290055082
20
-1.5073748381329206
42
0.14697084957296577
10
-1.5599832609930004
20
-1.5177231683573804
10
-1.9003701685941203
20
-1.7425405890117058
42
0.25190727332172991
10
-1.9284252366066259
20
-1.7946922587872478
10
-1.9284252366066266
20
-1.9192091906134527
42
0.41421356237309503
10
-1.8659252366066263
20
-1.9817091906134532
10
-0.70042422624836431
20
-1.9817091906134525
42
0.41421356237309503
10
-0.63792422624836431
20
-1.9192091906134527
10
-0.6379242262483642
20
-1.8202228920110113
42
0.20889315751890164
10
-0.65795602912434026
20
-1.7743676607605308
0
LWPOLYLINE
5
116
100
AcDbEntity
8
0
100
AcDbPolyline
90
8
70
1
43
0.0
10
-0.9192057989007878
20
-2.1191121718407806
42
0.41421356237309503
10
-0.98170579890078813
20
-2.0566121718407797
10
-1.1027756111321334
20
-2.0566121718407806
42
0.41421356237309503
10
-1.1652756111321334
20
-2.1191121718407806
10
-1.1652756111321334
20
-2.2589294015233037
42
0.41421356237309503
10
-1.1027756111321334
20
-2.3214294015233032
10
-0.98170579890078813
20
-2.3214294015233032
42
0.41421356237309503
10
-0.91920579890078802
20
-2.2589294015233037
0
LWPOLYLINE
5
117
100
AcDbEntity
8
0
100
AcDbPolyline
90
8
70
1
43
0.0
10
-1.4349707611435645
20
-2.9460022847592375
42
0.41421356237309503
10
-1.3724707611435647
20
-3.008502284759238
10
-1.263479953828504
20
-3.008502284759238
42
0.41421356237309503
10
-1.2009799538285038
20
-2.9460022847592375
10
-1.200979953828504
20
-2.821261718215478
42
0.41421356237309503
10
-1.2634799538285038
20
-2.7587617182154789
10
-1.3724707611435647
20
-2.7587617182154784
42
0.41421356237309503
10
-1.4349707611435647
20
-2.821261718215478
0
LWPOLYLINE
5
118
100
AcDbEntity
8
0
100
AcDbPolyline
90
8
70
1
43
0.0
10
-2.1711403038422032
20
-2.5174044794937096
42
0.58687371050685477
10
-2.2664174850730694
20
-2.5706201387544856
10
-2.2664174850730694
20
-2.7785889420714538
42
0.41421356237309503
10
-2.2039174850730694
20
-2.8410889420714542
10
-2.0530334184637833
20
-2.8410889420714542
42
0.41421356237309837
10
-1.9905334184637831
20
-2.7785889420714538
10
-1.9905334184637828
20
-2.66355433265158
42
0.26033974018083228
10
-2.0202562372329171
20
-2.6103386733908036
0
LWPOLYLINE
5
119
100
AcDbEntity
8
0
100
AcDbPolyline
90
12
70
1
43
0.0
10
-1.911152780711127
20
-2.0697189177850115
42
0.28081809355784182
10
-1.9667127611230315
20
-2.1035948269413041
10
-2.0986820695335564
20
-2.3597501134199805
42
0.32021522423257204
10
-2.0882575854942571
20
-2.4316065644490679
10
-1.9735607329792317
20
-2.5513524989398668
42
0.20451471481047426
10
-1.9284252366066266
20
-2.5706201387544856
10
-1.4946903075391182
20
-2.5706201387544851
42
0.3044163763950532
10
-1.4368545929856962
20
-2.5318114899632089
10
-1.3442105661424553
20
-2.3056473744436081
42
0.097502735373651575
10
-1.3395462806958773
20
-2.2819560232348839
10
-1.3395462806958771
20
-2.1322189177850124
42
0.41421356237309503
10
-1.4020462806958773
20
-2.0697189177850115
0
LWPOLYLINE
5
120
100
AcDbEntity
8
0
100
AcDbPolyline
90
8
70
1
43
0.0
10
-0.48028221379163427
20
-2.0737567347128354
42
0.41421356237309503
10
-0.54278221379163427
20
-2.0112567347128354
10
-0.67680514072932907
20
-2.0112567347128354
42
0.41421356237309503
10
-0.73930514072932896
20
-2.0737567347128354
10
-0.73930514072932918
20
-2.2486878512040889
42
0.41421356237309503
10
-0.67680514072932907
20
-2.3111878512040898
10
-0.5427822137916346
20
-2.3111878512040898
42
0.41421356237309503
10
-0.48028221379163433
20
-2.2486878512040889
0
CIRCLE
5
121
100
AcDbEntity
8
0
100
AcDbCircle
10
-0.38425194973082039
20
-4.8999999098890399
30
-1.8773116045078106e-09
40
0.13949999999999996
210
0
220
0
230
1
0
CIRCLE
5
122
100
AcDbEntity
8
0
100
AcDbCircle
10
-0.64999998122688141
20
-3.6249999098890395
30
-1.8773116093292549e-09
40
0.23622047244094485
210
0
220
0
230
1
0
CIRCLE
5
123
100
AcDbEntity
8
0
100
AcDbCircle
10
-1.2499999812268823
20
-1.6249999098890406
30
-1.8773115825027446e-09
40
0.070314999999999947
210
0
220
0
230
1
0
CIRCLE
5
124
100
AcDbEntity
8
0
100
AcDbCircle
10
-1.7099999812268825
20
-3.2499999098890395
30
-1.8773115825027446e-09
40
0.070314999999999947
210
0
220
0
230
1
0
CIRCLE
5
125
100
AcDbEntity
8
0
100
AcDbCircle
10
-1.7099999812268825
20
-2.87499990988904
30
-1.8773116341669195e-09
40
0.25
210
0
220
0
230
1
0
CIRCLE
5
126
100
AcDbEntity
8
0
100
AcDbCircle
10
-1.2499999812268823
20
-1.2499999098890404
30
-1.8773116341669195e-09
40
0.24999999999999997
210
0
220
0
230
1
0
CIRCLE
5
127
100
AcDbEntity
8
0
100
AcDbCircle
10
-0.32499998122688234
20
-2.1874999098890409
30
-1.8773116060692352e-09
40
0.08474999999999995
210
0
220
0
230
1
0
CIRCLE
5
128
100
AcDbEntity
8
0
100
AcDbCircle
10
-2.1749999812268821
20
-2.1874999098890409
30
-1.8773116060692352e-09
40
0.08474999999999995
210
0
220
0
230
1
0
CIRCLE
5
129
100
AcDbEntity
8
0
100
AcDbCircle
10
-0.67499998122688243
20
-5.4799999098890408
30
-1.8773116060692352e-09
40
0.08474999999999995
210
0
220
0
230
1
0
CIRCLE
5
130
100
AcDbEntity
8
0
100
AcDbCircle
10
-0.19249998122687256
20
-5.4374999098890404
30
-1.8773116060692352e-09
40
0.08474999999999995
210
0
220
0
230
1
0
CIRCLE
5
131
100
AcDbEntity
8
0
100
AcDbCircle
10
-2.3074999812268824
20
-5.4374999098890404
30
-1.8773116060692352e-09
40
0.08474999999999995
210
0
220
0
230
1
0
CIRCLE
5
132
100
AcDbEntity
8
0
100
AcDbCircle
10
-2.3074999812268824
20
-0.93749990988904208
30
-1.8773116060692352e-09
40
0.08474999999999995
210
0
220
0
230
1
0
CIRCLE
5
133
100
AcDbEntity
8
0
100
AcDbCircle
10
-0.19249998122686943
20
-0.93749990988904142
30
-1.8773116060692352e-09
40
0.08474999999999995
210
0
220
0
230
1
0
ENDSEC
0
SECTION
2
OBJECTS
0
DICTIONARY
5
C
100
AcDbDictionary
3
ACAD_GROUP
350
D
3
ACAD_MLINESTYLE
350
17
0
DICTIONARY
5
D
100
AcDbDictionary
0
DICTIONARY
5
1A
330
C
100
AcDbDictionary
0
DICTIONARY
5
17
100
AcDbDictionary
0
ENDSEC
0
EOF
