0
SECTION
2
HEADER
9
$INSUNITS
70
4
9
$ACADVER
1
AC1014
9
$HANDSEED
5
FFFF
0
ENDSEC
0
SECTION
2
TABLES
0
TABLE
2
VPORT
5
8
100
AcDbSymbolTable
0
ENDTAB
0
TABLE
2
LTYPE
5
5
100
AcDbSymbolTable
0
LTYPE
5
14
100
AcDbSymbolTableRecord
100
AcDbLinetypeTableRecord
2
BYBLOCK
70
0
0
LTYPE
5
15
100
AcDbSymbolTableRecord
100
AcDbLinetypeTableRecord
2
BYLAYER
70
0
0
ENDTAB
0
TABLE
2
LAYER
5
2
100
AcDbSymbolTable
70
2
0
LAYER
5
50
100
AcDbSymbolTableRecord
100
AcDbLayerTableRecord
2
0
70
0
6
CONTINUOUS
0
ENDTAB
0
TABLE
2
STYLE
5
3
100
AcDbSymbolTable
70
1
0
STYLE
5
11
100
AcDbSymbolTableRecord
100
AcDbTextStyleTableRecord
2
STANDARD
70
0
0
ENDTAB
0
TABLE
2
VIEW
5
6
100
AcDbSymbolTable
70
0
0
ENDTAB
0
TABLE
2
UCS
5
7
100
AcDbSymbolTable
70
0
0
ENDTAB
0
TABLE
2
APPID
5
9
100
AcDbSymbolTable
70
2
0
APPID
5
12
100
AcDbSymbolTableRecord
100
AcDbRegAppTableRecord
2
ACAD
70
0
0
ENDTAB
0
TABLE
2
DIMSTYLE
5
A
100
AcDbSymbolTable
70
1
0
ENDTAB
0
TABLE
2
BLOCK_RECORD
5
1
100
AcDbSymbolTable
70
1
0
BLOCK_RECORD
5
1F
100
AcDbSymbolTableRecord
100
AcDbBlockTableRecord
2
*MODEL_SPACE
0
BLOCK_RECORD
5
1B
100
AcDbSymbolTableRecord
100
AcDbBlockTableRecord
2
*PAPER_SPACE
0
ENDTAB
0
ENDSEC
0
SECTION
2
BLOCKS
0
BLOCK
5
20
100
AcDbEntity
100
AcDbBlockBegin
2
*MODEL_SPACE
0
ENDBLK
5
21
100
AcDbEntity
100
AcDbBlockEnd
0
BLOCK
5
1C
100
AcDbEntity
100
AcDbBlockBegin
2
*PAPER_SPACE
0
ENDBLK
5
1D
100
AcDbEntity
100
AcDbBlockEnd
0
ENDSEC
0
SECTION
2
ENTITIES
0
LWPOLYLINE
5
100
100
AcDbEntity
8
0
100
AcDbPolyline
90
4
70
1
43
0.0
10
-129.28000046193628
20
103.73399771118139
10
-129.28000046193623
20
91.133997711181593
42
-0.99999999999999989
10
-131.98000049173854
20
91.133997711181479
10
-131.98000049173859
20
103.73399771118167
42
-0.99999999999999989
0
LWPOLYLINE
5
101
100
AcDbEntity
8
0
100
AcDbPolyline
90
4
70
1
43
0.0
10
-150.18800047683777
20
114.85699769628026
10
-155.18800047683717
20
114.8569976962802
42
-0.99999999999999989
10
-155.18800047683786
20
117.80699772608256
10
-150.18800047683726
20
117.80699772608257
42
-0.99999999999999989
0
LWPOLYLINE
5
102
100
AcDbEntity
8
0
100
AcDbPolyline
90
8
70
1
43
0.0
10
-139.01950047683752
20
110.7139976962803
10
-144.09950047683756
20
110.71399769628029
42
-0.41421356237321066
10
-145.44950049173866
20
112.06399771118201
10
-145.44950049173872
20
118.36399771118141
42
-0.4142135623730912
10
-144.09950047683753
20
119.7139977260826
10
-139.01950047683724
20
119.71399772608264
42
-0.41421356237302182
10
-137.66950046193637
20
118.36399771118147
10
-137.66950046193637
20
112.06399771118201
42
-0.41421356237322221
0
LWPOLYLINE
5
103
100
AcDbEntity
8
0
100
AcDbPolyline
90
4
70
1
43
0.0
10
-159.794516975942
20
79.223987703121807
10
-146.12130441772618
20
79.198995262102741
42
-0.99817383077722088
10
-146.12130441772624
20
76.249000160260209
10
-159.79725844697688
20
76.224000202524877
42
-1.0027456138864812
0
LWPOLYLINE
5
104
100
AcDbEntity
8
0
100
AcDbPolyline
90
4
70
1
43
0.0
10
-136.90000046193629
20
103.73399771118166
10
-136.90000046193626
20
91.133997711181507
42
-0.99999999999999989
10
-139.60000049173854
20
91.133997711181465
10
-139.6000004917386
20
103.7339977111813
42
-0.99999999999999989
0
LWPOLYLINE
5
105
100
AcDbEntity
8
0
100
AcDbPolyline
90
4
70
1
43
0.0
10
-155.18800047683757
20
131.01499772608253
10
-150.1880004768378
20
131.01499772608258
42
-0.99999999999999989
10
-150.18800047683737
20
128.06499769628027
10
-155.18800047683757
20
128.06499769628022
42
-0.99999999999999989
0
LWPOLYLINE
5
106
100
AcDbEntity
8
0
100
AcDbPolyline
90
8
70
1
43
0.0
10
-118.18400047683753
20
117.32399772608275
10
-115.64400047683775
20
117.32399772608277
42
-0.41421356237315055
10
-114.14400046193633
20
115.8239977111816
10
-114.14400046193627
20
105.66399771118174
42
-0.41421356237313323
10
-115.64400047683749
20
104.16399769628043
10
-118.18400047683735
20
104.16399769628042
42
-0.41421356237311935
10
-119.68400049173864
20
105.66399771118158
10
-119.68400049173867
20
115.82399771118165
42
-0.41421356237309159
0
LWPOLYLINE
5
107
100
AcDbEntity
8
0
100
AcDbPolyline
90
4
70
1
43
0.0
10
-146.12400047683718
20
58.443997696280277
10
-148.62400047683701
20
58.443997696280263
42
-0.99999999999999989
10
-148.62400047683738
20
61.4439977260826
10
-146.12400047683718
20
61.443997726082614
42
-0.99999999999999989
0
CIRCLE
5
108
100
AcDbEntity
8
0
100
AcDbCircle
10
-159.33700047683709
20
44.703997711181444
30
0
40
2.0000000000000009
210
-0
220
0
230
1
0
CIRCLE
5
109
100
AcDbEntity
8
0
100
AcDbCircle
10
-151.71700047683703
20
30.987997711181489
30
0
40
2.0000000000000009
210
-0
220
0
230
1
0
CIRCLE
5
110
100
AcDbEntity
8
0
100
AcDbCircle
10
-124.79300047683705
20
30.987997711181631
30
0
40
2.0000000000000009
210
-0
220
0
230
1
0
CIRCLE
5
111
100
AcDbEntity
8
0
100
AcDbCircle
10
-117.68100047683714
20
47.751997711181609
30
0
40
2.0000000000000009
210
-0
220
0
230
1
0
CIRCLE
5
112
100
AcDbEntity
8
0
100
AcDbCircle
10
-165.94100047683727
20
69.595997711181369
30
0
40
2.0000000000000009
210
-0
220
0
230
1
0
CIRCLE
5
113
100
AcDbEntity
8
0
100
AcDbCircle
10
-147.90200047683726
20
69.087997711181472
30
0
40
2.0000000000000009
210
-0
220
0
230
1
0
CIRCLE
5
114
100
AcDbEntity
8
0
100
AcDbCircle
10
-138.75800047683722
20
61.975997711181527
30
0
40
2.0000000000000009
210
-0
220
0
230
1
0
CIRCLE
5
115
100
AcDbEntity
8
0
100
AcDbCircle
10
-125.80900047683743
20
97.535997711181579
30
0
40
2.0000000000000009
210
-0
220
0
230
1
0
CIRCLE
5
116
100
AcDbEntity
8
0
100
AcDbCircle
10
-132.92100047683749
20
108.20399771118156
30
0
40
2.0000000000000009
210
-0
220
0
230
1
0
CIRCLE
5
117
100
AcDbEntity
8
0
100
AcDbCircle
10
-164.92500047683751
20
116.83999771118137
30
0
40
2.0000000000000009
210
-0
220
0
230
1
0
CIRCLE
5
118
100
AcDbEntity
8
0
100
AcDbCircle
10
-147.90200047683751
20
122.42799771118145
30
0
40
2.0000000000000009
210
-0
220
0
230
1
0
CIRCLE
5
119
100
AcDbEntity
8
0
100
AcDbCircle
10
-115.64900047683756
20
125.47599771118163
30
0
40
2.0000000000000009
210
-0
220
0
230
1
0
CIRCLE
5
120
100
AcDbEntity
8
0
100
AcDbCircle
10
-146.37800047683766
20
142.74799771118148
30
0
40
2.0000000000000009
210
-0
220
0
230
1
0
CIRCLE
5
121
100
AcDbEntity
8
0
100
AcDbCircle
10
-121.74500047683767
20
147.31999771118157
30
0
40
2.0000000000000009
210
-0
220
0
230
1
0
CIRCLE
5
122
100
AcDbEntity
8
0
100
AcDbCircle
10
-113.10900047683732
20
82.803997711181623
30
0
40
1.5000000000000002
210
-0
220
0
230
1
0
CIRCLE
5
123
100
AcDbEntity
8
0
100
AcDbCircle
10
-114.75500047683721
20
55.562497711181642
30
0
40
2.1526500000000044
210
0
220
-0
230
1
0
CIRCLE
5
124
100
AcDbEntity
8
0
100
AcDbCircle
10
-131.90000047683719
20
132.07999771118165
30
0
40
5.9999999999999964
210
0
220
-0
230
1
0
CIRCLE
5
125
100
AcDbEntity
8
0
100
AcDbCircle
10
-138.25000047683719
20
31.749997711181628
30
0
40
6.3499999999999979
210
0
220
-0
230
1
0
CIRCLE
5
126
100
AcDbEntity
8
0
100
AcDbCircle
10
-165.11050047683742
20
138.11249771118162
30
0
40
2.1526499999999866
210
0
220
-0
230
1
0
CIRCLE
5
127
100
AcDbEntity
8
0
100
AcDbCircle
10
-111.38950047683718
20
138.11249771118162
30
0
40
2.1526500000000044
210
0
220
-0
230
1
0
CIRCLE
5
128
100
AcDbEntity
8
0
100
AcDbCircle
10
-111.38950047683718
20
23.812497711181667
30
0
40
2.1526500000000044
210
0
220
-0
230
1
0
CIRCLE
5
129
100
AcDbEntity
8
0
100
AcDbCircle
10
-165.11050047683753
20
23.812497711181653
30
0
40
2.1526499999999866
210
0
220
-0
230
1
0
CIRCLE
5
130
100
AcDbEntity
8
0
100
AcDbCircle
10
-152.85500047683718
20
139.19199771118164
30
0
40
2.1526500000000044
210
0
220
-0
230
1
0
CIRCLE
5
131
100
AcDbEntity
8
0
100
AcDbCircle
10
-126.56600047683717
20
73.024997711181612
30
0
40
6.3499999999999979
210
0
220
-0
230
1
0
CIRCLE
5
132
100
AcDbEntity
8
0
100
AcDbCircle
10
-153.4900004768372
20
92.074997711181624
30
0
40
5.9999999999999964
210
0
220
-0
230
1
0
CIRCLE
5
133
100
AcDbEntity
8
0
100
AcDbCircle
10
-161.74500047683719
20
55.562497711181642
30
0
40
2.1526499999999866
210
0
220
-0
230
1
0
CIRCLE
5
134
100
AcDbEntity
8
0
100
AcDbCircle
10
-126.56600047683717
20
82.549997711181618
30
0
40
1.7860010000000059
210
0
220
-0
230
1
0
CIRCLE
5
135
100
AcDbEntity
8
0
100
AcDbCircle
10
-138.25000047683719
20
41.274997711181634
30
0
40
1.7860010000000059
210
0
220
-0
230
1
0
LWPOLYLINE
5
136
100
AcDbEntity
8
0
100
AcDbPolyline
90
4
70
1
43
0.0
10
-170.00000047683722
20
152.39999771118161
10
-170
20
0
10
-106.50000047683719
20
-2.2888183615066282e-06
10
-106.50000047683719
20
152.39999771118161
0
ENDSEC
0
SECTION
2
OBJECTS
0
DICTIONARY
5
C
100
AcDbDictionary
3
ACAD_GROUP
350
D
3
ACAD_MLINESTYLE
350
17
0
DICTIONARY
5
D
100
AcDbDictionary
0
DICTIONARY
5
1A
330
C
100
AcDbDictionary
0
DICTIONARY
5
17
100
AcDbDictionary
0
ENDSEC
0
EOF
