G04 #@! TF.GenerationSoftware,KiCad,Pcbnew,(6.0.7-1)-1*
G04 #@! TF.CreationDate,2023-10-30T20:06:16+10:00*
G04 #@! TF.ProjectId,CONTROLLER_Radar Altimeter,434f4e54-524f-44c4-9c45-525f52616461,1*
G04 #@! TF.SameCoordinates,Original*
G04 #@! TF.FileFunction,Other,User*
%FSLAX46Y46*%
G04 Gerber Fmt 4.6, Leading zero omitted, Abs format (unit mm)*
G04 Created by KiCad (PCBNEW (6.0.7-1)-1) date 2023-10-30 20:06:16*
%MOMM*%
%LPD*%
G01*
G04 APERTURE LIST*
%ADD10C,0.050000*%
G04 APERTURE END LIST*
D10*
X48670000Y-85390000D02*
X48670000Y-92190000D01*
X37510000Y-92190000D02*
X37510000Y-85390000D01*
X48670000Y-92190000D02*
X37510000Y-92190000D01*
X37510000Y-85390000D02*
X48670000Y-85390000D01*
X55380000Y-92140000D02*
X49300000Y-92140000D01*
X55380000Y-85340000D02*
X55380000Y-92140000D01*
X49300000Y-92140000D02*
X49300000Y-85340000D01*
X49300000Y-85340000D02*
X55380000Y-85340000D01*
X44390000Y-68210000D02*
X44390000Y-61410000D01*
X60630000Y-61410000D02*
X60630000Y-68210000D01*
X44390000Y-61410000D02*
X60630000Y-61410000D01*
X60630000Y-68210000D02*
X44390000Y-68210000D01*
X42370000Y-68060000D02*
X33750000Y-68060000D01*
X33750000Y-61260000D02*
X42370000Y-61260000D01*
X42370000Y-61260000D02*
X42370000Y-68060000D01*
X33750000Y-68060000D02*
X33750000Y-61260000D01*
X56180000Y-92170000D02*
X56180000Y-85370000D01*
X62260000Y-92170000D02*
X56180000Y-92170000D01*
X56180000Y-85370000D02*
X62260000Y-85370000D01*
X62260000Y-85370000D02*
X62260000Y-92170000D01*
M02*
