G04 #@! TF.GenerationSoftware,KiCad,Pcbnew,(6.0.7-1)-1*
G04 #@! TF.CreationDate,2023-10-30T20:06:15+10:00*
G04 #@! TF.ProjectId,CONTROLLER_Radar Altimeter,434f4e54-524f-44c4-9c45-525f52616461,1*
G04 #@! TF.SameCoordinates,Original*
G04 #@! TF.FileFunction,Legend,Top*
G04 #@! TF.FilePolarity,Positive*
%FSLAX46Y46*%
G04 Gerber Fmt 4.6, Leading zero omitted, Abs format (unit mm)*
G04 Created by KiCad (PCBNEW (6.0.7-1)-1) date 2023-10-30 20:06:15*
%MOMM*%
%LPD*%
G01*
G04 APERTURE LIST*
%ADD10C,0.250000*%
%ADD11C,0.150000*%
%ADD12C,0.120000*%
G04 APERTURE END LIST*
D10*
X65688571Y-87294761D02*
X65021904Y-86342380D01*
X64545714Y-87294761D02*
X64545714Y-85294761D01*
X65307619Y-85294761D01*
X65498095Y-85390000D01*
X65593333Y-85485238D01*
X65688571Y-85675714D01*
X65688571Y-85961428D01*
X65593333Y-86151904D01*
X65498095Y-86247142D01*
X65307619Y-86342380D01*
X64545714Y-86342380D01*
X66450476Y-86723333D02*
X67402857Y-86723333D01*
X66260000Y-87294761D02*
X66926666Y-85294761D01*
X67593333Y-87294761D01*
X69212380Y-87294761D02*
X68260000Y-87294761D01*
X68260000Y-85294761D01*
X69593333Y-85294761D02*
X70736190Y-85294761D01*
X70164761Y-87294761D02*
X70164761Y-85294761D01*
X64260000Y-90324285D02*
X64164761Y-90419523D01*
X63879047Y-90514761D01*
X63688571Y-90514761D01*
X63402857Y-90419523D01*
X63212380Y-90229047D01*
X63117142Y-90038571D01*
X63021904Y-89657619D01*
X63021904Y-89371904D01*
X63117142Y-88990952D01*
X63212380Y-88800476D01*
X63402857Y-88610000D01*
X63688571Y-88514761D01*
X63879047Y-88514761D01*
X64164761Y-88610000D01*
X64260000Y-88705238D01*
X65117142Y-90514761D02*
X65117142Y-88514761D01*
X66260000Y-90514761D01*
X66260000Y-88514761D01*
X66926666Y-88514761D02*
X68069523Y-88514761D01*
X67498095Y-90514761D02*
X67498095Y-88514761D01*
X69879047Y-90514761D02*
X69212380Y-89562380D01*
X68736190Y-90514761D02*
X68736190Y-88514761D01*
X69498095Y-88514761D01*
X69688571Y-88610000D01*
X69783809Y-88705238D01*
X69879047Y-88895714D01*
X69879047Y-89181428D01*
X69783809Y-89371904D01*
X69688571Y-89467142D01*
X69498095Y-89562380D01*
X68736190Y-89562380D01*
X71688571Y-90514761D02*
X70736190Y-90514761D01*
X70736190Y-88514761D01*
X73498095Y-90514761D02*
X72831428Y-89562380D01*
X72355238Y-90514761D02*
X72355238Y-88514761D01*
X73117142Y-88514761D01*
X73307619Y-88610000D01*
X73402857Y-88705238D01*
X73498095Y-88895714D01*
X73498095Y-89181428D01*
X73402857Y-89371904D01*
X73307619Y-89467142D01*
X73117142Y-89562380D01*
X72355238Y-89562380D01*
X63879047Y-93734761D02*
X63879047Y-91734761D01*
X64831428Y-93734761D02*
X64831428Y-91734761D01*
X65974285Y-93734761D01*
X65974285Y-91734761D01*
X66831428Y-93639523D02*
X67117142Y-93734761D01*
X67593333Y-93734761D01*
X67783809Y-93639523D01*
X67879047Y-93544285D01*
X67974285Y-93353809D01*
X67974285Y-93163333D01*
X67879047Y-92972857D01*
X67783809Y-92877619D01*
X67593333Y-92782380D01*
X67212380Y-92687142D01*
X67021904Y-92591904D01*
X66926666Y-92496666D01*
X66831428Y-92306190D01*
X66831428Y-92115714D01*
X66926666Y-91925238D01*
X67021904Y-91830000D01*
X67212380Y-91734761D01*
X67688571Y-91734761D01*
X67974285Y-91830000D01*
X68831428Y-93734761D02*
X68831428Y-91734761D01*
X69783809Y-93734761D02*
X69783809Y-91734761D01*
X70260000Y-91734761D01*
X70545714Y-91830000D01*
X70736190Y-92020476D01*
X70831428Y-92210952D01*
X70926666Y-92591904D01*
X70926666Y-92877619D01*
X70831428Y-93258571D01*
X70736190Y-93449047D01*
X70545714Y-93639523D01*
X70260000Y-93734761D01*
X69783809Y-93734761D01*
X71783809Y-92687142D02*
X72450476Y-92687142D01*
X72736190Y-93734761D02*
X71783809Y-93734761D01*
X71783809Y-91734761D01*
X72736190Y-91734761D01*
D11*
X38783809Y-82102380D02*
X38450476Y-81626190D01*
X38212380Y-82102380D02*
X38212380Y-81102380D01*
X38593333Y-81102380D01*
X38688571Y-81150000D01*
X38736190Y-81197619D01*
X38783809Y-81292857D01*
X38783809Y-81435714D01*
X38736190Y-81530952D01*
X38688571Y-81578571D01*
X38593333Y-81626190D01*
X38212380Y-81626190D01*
X39164761Y-81816666D02*
X39640952Y-81816666D01*
X39069523Y-82102380D02*
X39402857Y-81102380D01*
X39736190Y-82102380D01*
X40069523Y-82102380D02*
X40069523Y-81102380D01*
X40307619Y-81102380D01*
X40450476Y-81150000D01*
X40545714Y-81245238D01*
X40593333Y-81340476D01*
X40640952Y-81530952D01*
X40640952Y-81673809D01*
X40593333Y-81864285D01*
X40545714Y-81959523D01*
X40450476Y-82054761D01*
X40307619Y-82102380D01*
X40069523Y-82102380D01*
X41783809Y-81816666D02*
X42260000Y-81816666D01*
X41688571Y-82102380D02*
X42021904Y-81102380D01*
X42355238Y-82102380D01*
X43164761Y-82102380D02*
X42688571Y-82102380D01*
X42688571Y-81102380D01*
X43355238Y-81102380D02*
X43926666Y-81102380D01*
X43640952Y-82102380D02*
X43640952Y-81102380D01*
X45593333Y-82007142D02*
X45545714Y-82054761D01*
X45402857Y-82102380D01*
X45307619Y-82102380D01*
X45164761Y-82054761D01*
X45069523Y-81959523D01*
X45021904Y-81864285D01*
X44974285Y-81673809D01*
X44974285Y-81530952D01*
X45021904Y-81340476D01*
X45069523Y-81245238D01*
X45164761Y-81150000D01*
X45307619Y-81102380D01*
X45402857Y-81102380D01*
X45545714Y-81150000D01*
X45593333Y-81197619D01*
X46212380Y-81102380D02*
X46402857Y-81102380D01*
X46498095Y-81150000D01*
X46593333Y-81245238D01*
X46640952Y-81435714D01*
X46640952Y-81769047D01*
X46593333Y-81959523D01*
X46498095Y-82054761D01*
X46402857Y-82102380D01*
X46212380Y-82102380D01*
X46117142Y-82054761D01*
X46021904Y-81959523D01*
X45974285Y-81769047D01*
X45974285Y-81435714D01*
X46021904Y-81245238D01*
X46117142Y-81150000D01*
X46212380Y-81102380D01*
X47069523Y-82102380D02*
X47069523Y-81102380D01*
X47640952Y-82102380D01*
X47640952Y-81102380D01*
X47974285Y-81102380D02*
X48545714Y-81102380D01*
X48260000Y-82102380D02*
X48260000Y-81102380D01*
X49450476Y-82102380D02*
X49117142Y-81626190D01*
X48879047Y-82102380D02*
X48879047Y-81102380D01*
X49260000Y-81102380D01*
X49355238Y-81150000D01*
X49402857Y-81197619D01*
X49450476Y-81292857D01*
X49450476Y-81435714D01*
X49402857Y-81530952D01*
X49355238Y-81578571D01*
X49260000Y-81626190D01*
X48879047Y-81626190D01*
X50069523Y-81102380D02*
X50260000Y-81102380D01*
X50355238Y-81150000D01*
X50450476Y-81245238D01*
X50498095Y-81435714D01*
X50498095Y-81769047D01*
X50450476Y-81959523D01*
X50355238Y-82054761D01*
X50260000Y-82102380D01*
X50069523Y-82102380D01*
X49974285Y-82054761D01*
X49879047Y-81959523D01*
X49831428Y-81769047D01*
X49831428Y-81435714D01*
X49879047Y-81245238D01*
X49974285Y-81150000D01*
X50069523Y-81102380D01*
X51402857Y-82102380D02*
X50926666Y-82102380D01*
X50926666Y-81102380D01*
X52212380Y-82102380D02*
X51736190Y-82102380D01*
X51736190Y-81102380D01*
X52545714Y-81578571D02*
X52879047Y-81578571D01*
X53021904Y-82102380D02*
X52545714Y-82102380D01*
X52545714Y-81102380D01*
X53021904Y-81102380D01*
X54021904Y-82102380D02*
X53688571Y-81626190D01*
X53450476Y-82102380D02*
X53450476Y-81102380D01*
X53831428Y-81102380D01*
X53926666Y-81150000D01*
X53974285Y-81197619D01*
X54021904Y-81292857D01*
X54021904Y-81435714D01*
X53974285Y-81530952D01*
X53926666Y-81578571D01*
X53831428Y-81626190D01*
X53450476Y-81626190D01*
X55402857Y-81102380D02*
X55593333Y-81102380D01*
X55688571Y-81150000D01*
X55783809Y-81245238D01*
X55831428Y-81435714D01*
X55831428Y-81769047D01*
X55783809Y-81959523D01*
X55688571Y-82054761D01*
X55593333Y-82102380D01*
X55402857Y-82102380D01*
X55307619Y-82054761D01*
X55212380Y-81959523D01*
X55164761Y-81769047D01*
X55164761Y-81435714D01*
X55212380Y-81245238D01*
X55307619Y-81150000D01*
X55402857Y-81102380D01*
X56164761Y-81102380D02*
X56831428Y-81102380D01*
X56164761Y-82102380D01*
X56831428Y-82102380D01*
X57974285Y-82102380D02*
X57974285Y-81102380D01*
X57974285Y-81578571D02*
X58545714Y-81578571D01*
X58545714Y-82102380D02*
X58545714Y-81102380D01*
X59212380Y-81102380D02*
X59402857Y-81102380D01*
X59498095Y-81150000D01*
X59593333Y-81245238D01*
X59640952Y-81435714D01*
X59640952Y-81769047D01*
X59593333Y-81959523D01*
X59498095Y-82054761D01*
X59402857Y-82102380D01*
X59212380Y-82102380D01*
X59117142Y-82054761D01*
X59021904Y-81959523D01*
X58974285Y-81769047D01*
X58974285Y-81435714D01*
X59021904Y-81245238D01*
X59117142Y-81150000D01*
X59212380Y-81102380D01*
X60640952Y-82102380D02*
X60307619Y-81626190D01*
X60069523Y-82102380D02*
X60069523Y-81102380D01*
X60450476Y-81102380D01*
X60545714Y-81150000D01*
X60593333Y-81197619D01*
X60640952Y-81292857D01*
X60640952Y-81435714D01*
X60593333Y-81530952D01*
X60545714Y-81578571D01*
X60450476Y-81626190D01*
X60069523Y-81626190D01*
X61069523Y-82102380D02*
X61069523Y-81102380D01*
X61640952Y-82102380D01*
X61640952Y-81102380D01*
X62117142Y-81578571D02*
X62450476Y-81578571D01*
X62593333Y-82102380D02*
X62117142Y-82102380D01*
X62117142Y-81102380D01*
X62593333Y-81102380D01*
X62879047Y-81102380D02*
X63450476Y-81102380D01*
X63164761Y-82102380D02*
X63164761Y-81102380D01*
X47664761Y-83712380D02*
X47664761Y-82712380D01*
X48045714Y-82712380D01*
X48140952Y-82760000D01*
X48188571Y-82807619D01*
X48236190Y-82902857D01*
X48236190Y-83045714D01*
X48188571Y-83140952D01*
X48140952Y-83188571D01*
X48045714Y-83236190D01*
X47664761Y-83236190D01*
X48521904Y-82712380D02*
X49093333Y-82712380D01*
X48807619Y-83712380D02*
X48807619Y-82712380D01*
X50998095Y-83712380D02*
X50950476Y-83712380D01*
X50855238Y-83664761D01*
X50712380Y-83521904D01*
X50474285Y-83236190D01*
X50379047Y-83093333D01*
X50331428Y-82950476D01*
X50331428Y-82855238D01*
X50379047Y-82760000D01*
X50474285Y-82712380D01*
X50521904Y-82712380D01*
X50617142Y-82760000D01*
X50664761Y-82855238D01*
X50664761Y-82902857D01*
X50617142Y-82998095D01*
X50569523Y-83045714D01*
X50283809Y-83236190D01*
X50236190Y-83283809D01*
X50188571Y-83379047D01*
X50188571Y-83521904D01*
X50236190Y-83617142D01*
X50283809Y-83664761D01*
X50379047Y-83712380D01*
X50521904Y-83712380D01*
X50617142Y-83664761D01*
X50664761Y-83617142D01*
X50807619Y-83426666D01*
X50855238Y-83283809D01*
X50855238Y-83188571D01*
X52521904Y-83188571D02*
X52664761Y-83236190D01*
X52712380Y-83283809D01*
X52760000Y-83379047D01*
X52760000Y-83521904D01*
X52712380Y-83617142D01*
X52664761Y-83664761D01*
X52569523Y-83712380D01*
X52188571Y-83712380D01*
X52188571Y-82712380D01*
X52521904Y-82712380D01*
X52617142Y-82760000D01*
X52664761Y-82807619D01*
X52712380Y-82902857D01*
X52712380Y-82998095D01*
X52664761Y-83093333D01*
X52617142Y-83140952D01*
X52521904Y-83188571D01*
X52188571Y-83188571D01*
X53188571Y-83712380D02*
X53188571Y-82712380D01*
X53521904Y-83426666D01*
X53855238Y-82712380D01*
X53855238Y-83712380D01*
X49236190Y-84322380D02*
X49569523Y-85322380D01*
X49902857Y-84322380D01*
X50760000Y-85322380D02*
X50188571Y-85322380D01*
X50474285Y-85322380D02*
X50474285Y-84322380D01*
X50379047Y-84465238D01*
X50283809Y-84560476D01*
X50188571Y-84608095D01*
X51188571Y-85227142D02*
X51236190Y-85274761D01*
X51188571Y-85322380D01*
X51140952Y-85274761D01*
X51188571Y-85227142D01*
X51188571Y-85322380D01*
X51855238Y-84322380D02*
X51950476Y-84322380D01*
X52045714Y-84370000D01*
X52093333Y-84417619D01*
X52140952Y-84512857D01*
X52188571Y-84703333D01*
X52188571Y-84941428D01*
X52140952Y-85131904D01*
X52093333Y-85227142D01*
X52045714Y-85274761D01*
X51950476Y-85322380D01*
X51855238Y-85322380D01*
X51760000Y-85274761D01*
X51712380Y-85227142D01*
X51664761Y-85131904D01*
X51617142Y-84941428D01*
X51617142Y-84703333D01*
X51664761Y-84512857D01*
X51712380Y-84417619D01*
X51760000Y-84370000D01*
X51855238Y-84322380D01*
X65596666Y-70542380D02*
X65596666Y-71256666D01*
X65549047Y-71399523D01*
X65453809Y-71494761D01*
X65310952Y-71542380D01*
X65215714Y-71542380D01*
X65977619Y-70542380D02*
X66644285Y-70542380D01*
X66215714Y-71542380D01*
X60787142Y-79742380D02*
X60787142Y-78742380D01*
X61168095Y-78742380D01*
X61263333Y-78790000D01*
X61310952Y-78837619D01*
X61358571Y-78932857D01*
X61358571Y-79075714D01*
X61310952Y-79170952D01*
X61263333Y-79218571D01*
X61168095Y-79266190D01*
X60787142Y-79266190D01*
X61787142Y-78742380D02*
X61787142Y-79551904D01*
X61834761Y-79647142D01*
X61882380Y-79694761D01*
X61977619Y-79742380D01*
X62168095Y-79742380D01*
X62263333Y-79694761D01*
X62310952Y-79647142D01*
X62358571Y-79551904D01*
X62358571Y-78742380D01*
X62787142Y-79694761D02*
X62930000Y-79742380D01*
X63168095Y-79742380D01*
X63263333Y-79694761D01*
X63310952Y-79647142D01*
X63358571Y-79551904D01*
X63358571Y-79456666D01*
X63310952Y-79361428D01*
X63263333Y-79313809D01*
X63168095Y-79266190D01*
X62977619Y-79218571D01*
X62882380Y-79170952D01*
X62834761Y-79123333D01*
X62787142Y-79028095D01*
X62787142Y-78932857D01*
X62834761Y-78837619D01*
X62882380Y-78790000D01*
X62977619Y-78742380D01*
X63215714Y-78742380D01*
X63358571Y-78790000D01*
X63787142Y-79742380D02*
X63787142Y-78742380D01*
X63787142Y-79218571D02*
X64358571Y-79218571D01*
X64358571Y-79742380D02*
X64358571Y-78742380D01*
X65453809Y-78742380D02*
X66025238Y-78742380D01*
X65739523Y-79742380D02*
X65739523Y-78742380D01*
X66549047Y-78742380D02*
X66739523Y-78742380D01*
X66834761Y-78790000D01*
X66930000Y-78885238D01*
X66977619Y-79075714D01*
X66977619Y-79409047D01*
X66930000Y-79599523D01*
X66834761Y-79694761D01*
X66739523Y-79742380D01*
X66549047Y-79742380D01*
X66453809Y-79694761D01*
X66358571Y-79599523D01*
X66310952Y-79409047D01*
X66310952Y-79075714D01*
X66358571Y-78885238D01*
X66453809Y-78790000D01*
X66549047Y-78742380D01*
X68025238Y-78742380D02*
X68596666Y-78742380D01*
X68310952Y-79742380D02*
X68310952Y-78742380D01*
X68930000Y-79218571D02*
X69263333Y-79218571D01*
X69406190Y-79742380D02*
X68930000Y-79742380D01*
X68930000Y-78742380D01*
X69406190Y-78742380D01*
X69787142Y-79694761D02*
X69930000Y-79742380D01*
X70168095Y-79742380D01*
X70263333Y-79694761D01*
X70310952Y-79647142D01*
X70358571Y-79551904D01*
X70358571Y-79456666D01*
X70310952Y-79361428D01*
X70263333Y-79313809D01*
X70168095Y-79266190D01*
X69977619Y-79218571D01*
X69882380Y-79170952D01*
X69834761Y-79123333D01*
X69787142Y-79028095D01*
X69787142Y-78932857D01*
X69834761Y-78837619D01*
X69882380Y-78790000D01*
X69977619Y-78742380D01*
X70215714Y-78742380D01*
X70358571Y-78790000D01*
X70644285Y-78742380D02*
X71215714Y-78742380D01*
X70930000Y-79742380D02*
X70930000Y-78742380D01*
X32926666Y-70542380D02*
X32926666Y-71256666D01*
X32879047Y-71399523D01*
X32783809Y-71494761D01*
X32640952Y-71542380D01*
X32545714Y-71542380D01*
X33831428Y-70875714D02*
X33831428Y-71542380D01*
X33593333Y-70494761D02*
X33355238Y-71209047D01*
X33974285Y-71209047D01*
X29855238Y-78790000D02*
X29760000Y-78742380D01*
X29617142Y-78742380D01*
X29474285Y-78790000D01*
X29379047Y-78885238D01*
X29331428Y-78980476D01*
X29283809Y-79170952D01*
X29283809Y-79313809D01*
X29331428Y-79504285D01*
X29379047Y-79599523D01*
X29474285Y-79694761D01*
X29617142Y-79742380D01*
X29712380Y-79742380D01*
X29855238Y-79694761D01*
X29902857Y-79647142D01*
X29902857Y-79313809D01*
X29712380Y-79313809D01*
X30902857Y-79742380D02*
X30569523Y-79266190D01*
X30331428Y-79742380D02*
X30331428Y-78742380D01*
X30712380Y-78742380D01*
X30807619Y-78790000D01*
X30855238Y-78837619D01*
X30902857Y-78932857D01*
X30902857Y-79075714D01*
X30855238Y-79170952D01*
X30807619Y-79218571D01*
X30712380Y-79266190D01*
X30331428Y-79266190D01*
X31331428Y-79218571D02*
X31664761Y-79218571D01*
X31807619Y-79742380D02*
X31331428Y-79742380D01*
X31331428Y-78742380D01*
X31807619Y-78742380D01*
X32236190Y-79218571D02*
X32569523Y-79218571D01*
X32712380Y-79742380D02*
X32236190Y-79742380D01*
X32236190Y-78742380D01*
X32712380Y-78742380D01*
X33140952Y-79742380D02*
X33140952Y-78742380D01*
X33712380Y-79742380D01*
X33712380Y-78742380D01*
X35426666Y-79742380D02*
X34950476Y-79742380D01*
X34950476Y-78742380D01*
X35760000Y-79218571D02*
X36093333Y-79218571D01*
X36236190Y-79742380D02*
X35760000Y-79742380D01*
X35760000Y-78742380D01*
X36236190Y-78742380D01*
X36664761Y-79742380D02*
X36664761Y-78742380D01*
X36902857Y-78742380D01*
X37045714Y-78790000D01*
X37140952Y-78885238D01*
X37188571Y-78980476D01*
X37236190Y-79170952D01*
X37236190Y-79313809D01*
X37188571Y-79504285D01*
X37140952Y-79599523D01*
X37045714Y-79694761D01*
X36902857Y-79742380D01*
X36664761Y-79742380D01*
X47250476Y-70542380D02*
X47250476Y-71256666D01*
X47202857Y-71399523D01*
X47107619Y-71494761D01*
X46964761Y-71542380D01*
X46869523Y-71542380D01*
X48250476Y-71542380D02*
X47679047Y-71542380D01*
X47964761Y-71542380D02*
X47964761Y-70542380D01*
X47869523Y-70685238D01*
X47774285Y-70780476D01*
X47679047Y-70828095D01*
X49202857Y-71542380D02*
X48631428Y-71542380D01*
X48917142Y-71542380D02*
X48917142Y-70542380D01*
X48821904Y-70685238D01*
X48726666Y-70780476D01*
X48631428Y-70828095D01*
X46893333Y-79742380D02*
X46893333Y-78742380D01*
X47274285Y-78742380D01*
X47369523Y-78790000D01*
X47417142Y-78837619D01*
X47464761Y-78932857D01*
X47464761Y-79075714D01*
X47417142Y-79170952D01*
X47369523Y-79218571D01*
X47274285Y-79266190D01*
X46893333Y-79266190D01*
X48083809Y-78742380D02*
X48274285Y-78742380D01*
X48369523Y-78790000D01*
X48464761Y-78885238D01*
X48512380Y-79075714D01*
X48512380Y-79409047D01*
X48464761Y-79599523D01*
X48369523Y-79694761D01*
X48274285Y-79742380D01*
X48083809Y-79742380D01*
X47988571Y-79694761D01*
X47893333Y-79599523D01*
X47845714Y-79409047D01*
X47845714Y-79075714D01*
X47893333Y-78885238D01*
X47988571Y-78790000D01*
X48083809Y-78742380D01*
X48798095Y-78742380D02*
X49369523Y-78742380D01*
X49083809Y-79742380D02*
X49083809Y-78742380D01*
X52176666Y-53162380D02*
X52176666Y-53876666D01*
X52129047Y-54019523D01*
X52033809Y-54114761D01*
X51890952Y-54162380D01*
X51795714Y-54162380D01*
X52605238Y-53257619D02*
X52652857Y-53210000D01*
X52748095Y-53162380D01*
X52986190Y-53162380D01*
X53081428Y-53210000D01*
X53129047Y-53257619D01*
X53176666Y-53352857D01*
X53176666Y-53448095D01*
X53129047Y-53590952D01*
X52557619Y-54162380D01*
X53176666Y-54162380D01*
X48914761Y-61362380D02*
X49486190Y-61362380D01*
X49200476Y-62362380D02*
X49200476Y-61362380D01*
X50010000Y-61362380D02*
X50200476Y-61362380D01*
X50295714Y-61410000D01*
X50390952Y-61505238D01*
X50438571Y-61695714D01*
X50438571Y-62029047D01*
X50390952Y-62219523D01*
X50295714Y-62314761D01*
X50200476Y-62362380D01*
X50010000Y-62362380D01*
X49914761Y-62314761D01*
X49819523Y-62219523D01*
X49771904Y-62029047D01*
X49771904Y-61695714D01*
X49819523Y-61505238D01*
X49914761Y-61410000D01*
X50010000Y-61362380D01*
X52152857Y-61410000D02*
X52057619Y-61362380D01*
X51914761Y-61362380D01*
X51771904Y-61410000D01*
X51676666Y-61505238D01*
X51629047Y-61600476D01*
X51581428Y-61790952D01*
X51581428Y-61933809D01*
X51629047Y-62124285D01*
X51676666Y-62219523D01*
X51771904Y-62314761D01*
X51914761Y-62362380D01*
X52010000Y-62362380D01*
X52152857Y-62314761D01*
X52200476Y-62267142D01*
X52200476Y-61933809D01*
X52010000Y-61933809D01*
X52581428Y-62076666D02*
X53057619Y-62076666D01*
X52486190Y-62362380D02*
X52819523Y-61362380D01*
X53152857Y-62362380D01*
X53486190Y-61362380D02*
X53486190Y-62171904D01*
X53533809Y-62267142D01*
X53581428Y-62314761D01*
X53676666Y-62362380D01*
X53867142Y-62362380D01*
X53962380Y-62314761D01*
X54010000Y-62267142D01*
X54057619Y-62171904D01*
X54057619Y-61362380D01*
X55057619Y-61410000D02*
X54962380Y-61362380D01*
X54819523Y-61362380D01*
X54676666Y-61410000D01*
X54581428Y-61505238D01*
X54533809Y-61600476D01*
X54486190Y-61790952D01*
X54486190Y-61933809D01*
X54533809Y-62124285D01*
X54581428Y-62219523D01*
X54676666Y-62314761D01*
X54819523Y-62362380D01*
X54914761Y-62362380D01*
X55057619Y-62314761D01*
X55105238Y-62267142D01*
X55105238Y-61933809D01*
X54914761Y-61933809D01*
X55533809Y-61838571D02*
X55867142Y-61838571D01*
X56010000Y-62362380D02*
X55533809Y-62362380D01*
X55533809Y-61362380D01*
X56010000Y-61362380D01*
X33763333Y-81342380D02*
X33430000Y-80866190D01*
X33191904Y-81342380D02*
X33191904Y-80342380D01*
X33572857Y-80342380D01*
X33668095Y-80390000D01*
X33715714Y-80437619D01*
X33763333Y-80532857D01*
X33763333Y-80675714D01*
X33715714Y-80770952D01*
X33668095Y-80818571D01*
X33572857Y-80866190D01*
X33191904Y-80866190D01*
X34715714Y-81342380D02*
X34144285Y-81342380D01*
X34430000Y-81342380D02*
X34430000Y-80342380D01*
X34334761Y-80485238D01*
X34239523Y-80580476D01*
X34144285Y-80628095D01*
X56800476Y-70562380D02*
X56800476Y-71276666D01*
X56752857Y-71419523D01*
X56657619Y-71514761D01*
X56514761Y-71562380D01*
X56419523Y-71562380D01*
X57800476Y-71562380D02*
X57229047Y-71562380D01*
X57514761Y-71562380D02*
X57514761Y-70562380D01*
X57419523Y-70705238D01*
X57324285Y-70800476D01*
X57229047Y-70848095D01*
X58419523Y-70562380D02*
X58514761Y-70562380D01*
X58610000Y-70610000D01*
X58657619Y-70657619D01*
X58705238Y-70752857D01*
X58752857Y-70943333D01*
X58752857Y-71181428D01*
X58705238Y-71371904D01*
X58657619Y-71467142D01*
X58610000Y-71514761D01*
X58514761Y-71562380D01*
X58419523Y-71562380D01*
X58324285Y-71514761D01*
X58276666Y-71467142D01*
X58229047Y-71371904D01*
X58181428Y-71181428D01*
X58181428Y-70943333D01*
X58229047Y-70752857D01*
X58276666Y-70657619D01*
X58324285Y-70610000D01*
X58419523Y-70562380D01*
X53276666Y-79714761D02*
X53419523Y-79762380D01*
X53657619Y-79762380D01*
X53752857Y-79714761D01*
X53800476Y-79667142D01*
X53848095Y-79571904D01*
X53848095Y-79476666D01*
X53800476Y-79381428D01*
X53752857Y-79333809D01*
X53657619Y-79286190D01*
X53467142Y-79238571D01*
X53371904Y-79190952D01*
X53324285Y-79143333D01*
X53276666Y-79048095D01*
X53276666Y-78952857D01*
X53324285Y-78857619D01*
X53371904Y-78810000D01*
X53467142Y-78762380D01*
X53705238Y-78762380D01*
X53848095Y-78810000D01*
X54276666Y-79238571D02*
X54610000Y-79238571D01*
X54752857Y-79762380D02*
X54276666Y-79762380D01*
X54276666Y-78762380D01*
X54752857Y-78762380D01*
X55752857Y-79762380D02*
X55419523Y-79286190D01*
X55181428Y-79762380D02*
X55181428Y-78762380D01*
X55562380Y-78762380D01*
X55657619Y-78810000D01*
X55705238Y-78857619D01*
X55752857Y-78952857D01*
X55752857Y-79095714D01*
X55705238Y-79190952D01*
X55657619Y-79238571D01*
X55562380Y-79286190D01*
X55181428Y-79286190D01*
X56038571Y-78762380D02*
X56371904Y-79762380D01*
X56705238Y-78762380D01*
X57229047Y-78762380D02*
X57419523Y-78762380D01*
X57514761Y-78810000D01*
X57610000Y-78905238D01*
X57657619Y-79095714D01*
X57657619Y-79429047D01*
X57610000Y-79619523D01*
X57514761Y-79714761D01*
X57419523Y-79762380D01*
X57229047Y-79762380D01*
X57133809Y-79714761D01*
X57038571Y-79619523D01*
X56990952Y-79429047D01*
X56990952Y-79095714D01*
X57038571Y-78905238D01*
X57133809Y-78810000D01*
X57229047Y-78762380D01*
X59181428Y-79238571D02*
X58848095Y-79238571D01*
X58848095Y-79762380D02*
X58848095Y-78762380D01*
X59324285Y-78762380D01*
X60181428Y-79762380D02*
X59705238Y-79762380D01*
X59705238Y-78762380D01*
X60467142Y-79476666D02*
X60943333Y-79476666D01*
X60371904Y-79762380D02*
X60705238Y-78762380D01*
X61038571Y-79762380D01*
X61895714Y-78810000D02*
X61800476Y-78762380D01*
X61657619Y-78762380D01*
X61514761Y-78810000D01*
X61419523Y-78905238D01*
X61371904Y-79000476D01*
X61324285Y-79190952D01*
X61324285Y-79333809D01*
X61371904Y-79524285D01*
X61419523Y-79619523D01*
X61514761Y-79714761D01*
X61657619Y-79762380D01*
X61752857Y-79762380D01*
X61895714Y-79714761D01*
X61943333Y-79667142D01*
X61943333Y-79333809D01*
X61752857Y-79333809D01*
X39546666Y-70542380D02*
X39546666Y-71256666D01*
X39499047Y-71399523D01*
X39403809Y-71494761D01*
X39260952Y-71542380D01*
X39165714Y-71542380D01*
X40451428Y-70542380D02*
X40260952Y-70542380D01*
X40165714Y-70590000D01*
X40118095Y-70637619D01*
X40022857Y-70780476D01*
X39975238Y-70970952D01*
X39975238Y-71351904D01*
X40022857Y-71447142D01*
X40070476Y-71494761D01*
X40165714Y-71542380D01*
X40356190Y-71542380D01*
X40451428Y-71494761D01*
X40499047Y-71447142D01*
X40546666Y-71351904D01*
X40546666Y-71113809D01*
X40499047Y-71018571D01*
X40451428Y-70970952D01*
X40356190Y-70923333D01*
X40165714Y-70923333D01*
X40070476Y-70970952D01*
X40022857Y-71018571D01*
X39975238Y-71113809D01*
X37499047Y-79742380D02*
X37165714Y-79266190D01*
X36927619Y-79742380D02*
X36927619Y-78742380D01*
X37308571Y-78742380D01*
X37403809Y-78790000D01*
X37451428Y-78837619D01*
X37499047Y-78932857D01*
X37499047Y-79075714D01*
X37451428Y-79170952D01*
X37403809Y-79218571D01*
X37308571Y-79266190D01*
X36927619Y-79266190D01*
X37927619Y-79218571D02*
X38260952Y-79218571D01*
X38403809Y-79742380D02*
X37927619Y-79742380D01*
X37927619Y-78742380D01*
X38403809Y-78742380D01*
X38832380Y-79742380D02*
X38832380Y-78742380D01*
X39070476Y-78742380D01*
X39213333Y-78790000D01*
X39308571Y-78885238D01*
X39356190Y-78980476D01*
X39403809Y-79170952D01*
X39403809Y-79313809D01*
X39356190Y-79504285D01*
X39308571Y-79599523D01*
X39213333Y-79694761D01*
X39070476Y-79742380D01*
X38832380Y-79742380D01*
X41070476Y-79742380D02*
X40594285Y-79742380D01*
X40594285Y-78742380D01*
X41403809Y-79218571D02*
X41737142Y-79218571D01*
X41880000Y-79742380D02*
X41403809Y-79742380D01*
X41403809Y-78742380D01*
X41880000Y-78742380D01*
X42308571Y-79742380D02*
X42308571Y-78742380D01*
X42546666Y-78742380D01*
X42689523Y-78790000D01*
X42784761Y-78885238D01*
X42832380Y-78980476D01*
X42880000Y-79170952D01*
X42880000Y-79313809D01*
X42832380Y-79504285D01*
X42784761Y-79599523D01*
X42689523Y-79694761D01*
X42546666Y-79742380D01*
X42308571Y-79742380D01*
D12*
X68580000Y-78200000D02*
X68580000Y-72180000D01*
X68580000Y-72180000D02*
X63280000Y-72180000D01*
X62990000Y-73210000D02*
X62990000Y-77210000D01*
X64660000Y-77200000D02*
X67200000Y-77200000D01*
X68000000Y-72780000D02*
X68000000Y-72180000D01*
X66950000Y-78200000D02*
X66950000Y-77200000D01*
X64660000Y-77200000D02*
X64910000Y-76670000D01*
X64910000Y-78200000D02*
X64910000Y-77200000D01*
X66400000Y-72180000D02*
X66400000Y-72780000D01*
X64660000Y-78200000D02*
X64660000Y-77200000D01*
X67200000Y-77200000D02*
X67200000Y-78200000D01*
X66950000Y-76670000D02*
X67200000Y-77200000D01*
X63860000Y-72180000D02*
X63860000Y-72780000D01*
X63280000Y-78200000D02*
X68580000Y-78200000D01*
X66400000Y-72780000D02*
X68000000Y-72780000D01*
X63860000Y-72780000D02*
X65460000Y-72780000D01*
X64910000Y-76670000D02*
X66950000Y-76670000D01*
X65460000Y-72780000D02*
X65460000Y-72180000D01*
X63280000Y-72180000D02*
X63280000Y-78200000D01*
X32240000Y-78200000D02*
X32240000Y-77200000D01*
X35910000Y-78200000D02*
X35910000Y-72180000D01*
X34530000Y-77200000D02*
X34530000Y-78200000D01*
X30320000Y-73210000D02*
X30320000Y-77210000D01*
X31190000Y-72180000D02*
X31190000Y-72780000D01*
X31990000Y-77200000D02*
X34530000Y-77200000D01*
X33730000Y-72780000D02*
X35330000Y-72780000D01*
X32240000Y-76670000D02*
X34280000Y-76670000D01*
X35910000Y-72180000D02*
X30610000Y-72180000D01*
X33730000Y-72180000D02*
X33730000Y-72780000D01*
X32790000Y-72780000D02*
X32790000Y-72180000D01*
X31990000Y-78200000D02*
X31990000Y-77200000D01*
X34280000Y-76670000D02*
X34530000Y-77200000D01*
X30610000Y-72180000D02*
X30610000Y-78200000D01*
X31190000Y-72780000D02*
X32790000Y-72780000D01*
X34280000Y-78200000D02*
X34280000Y-77200000D01*
X30610000Y-78200000D02*
X35910000Y-78200000D01*
X31990000Y-77200000D02*
X32240000Y-76670000D01*
X35330000Y-72780000D02*
X35330000Y-72180000D01*
X45770000Y-78200000D02*
X45770000Y-77200000D01*
X51980000Y-72180000D02*
X44140000Y-72180000D01*
X49800000Y-72180000D02*
X49800000Y-72780000D01*
X44140000Y-78200000D02*
X51980000Y-78200000D01*
X51400000Y-72780000D02*
X51400000Y-72180000D01*
X44140000Y-72180000D02*
X44140000Y-78200000D01*
X44720000Y-72780000D02*
X46320000Y-72780000D01*
X47260000Y-72780000D02*
X48860000Y-72780000D01*
X46320000Y-72780000D02*
X46320000Y-72180000D01*
X45520000Y-77200000D02*
X50600000Y-77200000D01*
X50350000Y-78200000D02*
X50350000Y-77200000D01*
X47260000Y-72180000D02*
X47260000Y-72780000D01*
X51980000Y-78200000D02*
X51980000Y-72180000D01*
X50350000Y-76670000D02*
X50600000Y-77200000D01*
X45520000Y-78200000D02*
X45520000Y-77200000D01*
X49800000Y-72780000D02*
X51400000Y-72780000D01*
X45770000Y-76670000D02*
X50350000Y-76670000D01*
X45520000Y-77200000D02*
X45770000Y-76670000D01*
X48860000Y-72780000D02*
X48860000Y-72180000D01*
X43850000Y-73210000D02*
X43850000Y-77210000D01*
X50600000Y-77200000D02*
X50600000Y-78200000D01*
X44720000Y-72180000D02*
X44720000Y-72780000D01*
X58860000Y-59820000D02*
X58860000Y-60820000D01*
X60240000Y-60820000D02*
X60240000Y-54800000D01*
X44780000Y-54800000D02*
X44780000Y-60820000D01*
X47900000Y-55400000D02*
X49500000Y-55400000D01*
X54580000Y-55400000D02*
X54580000Y-54800000D01*
X52040000Y-55400000D02*
X52040000Y-54800000D01*
X50440000Y-55400000D02*
X52040000Y-55400000D01*
X47900000Y-54800000D02*
X47900000Y-55400000D01*
X44490000Y-55830000D02*
X44490000Y-59830000D01*
X60240000Y-54800000D02*
X44780000Y-54800000D01*
X55520000Y-55400000D02*
X57120000Y-55400000D01*
X45360000Y-54800000D02*
X45360000Y-55400000D01*
X58610000Y-60820000D02*
X58610000Y-59820000D01*
X46410000Y-59290000D02*
X58610000Y-59290000D01*
X55520000Y-54800000D02*
X55520000Y-55400000D01*
X46960000Y-55400000D02*
X46960000Y-54800000D01*
X45360000Y-55400000D02*
X46960000Y-55400000D01*
X46160000Y-60820000D02*
X46160000Y-59820000D01*
X58060000Y-55400000D02*
X59660000Y-55400000D01*
X58610000Y-59290000D02*
X58860000Y-59820000D01*
X50440000Y-54800000D02*
X50440000Y-55400000D01*
X46410000Y-60820000D02*
X46410000Y-59820000D01*
X52980000Y-55400000D02*
X54580000Y-55400000D01*
X59660000Y-55400000D02*
X59660000Y-54800000D01*
X57120000Y-55400000D02*
X57120000Y-54800000D01*
X46160000Y-59820000D02*
X46410000Y-59290000D01*
X46160000Y-59820000D02*
X58860000Y-59820000D01*
X58060000Y-54800000D02*
X58060000Y-55400000D01*
X49500000Y-55400000D02*
X49500000Y-54800000D01*
X52980000Y-54800000D02*
X52980000Y-55400000D01*
X44780000Y-60820000D02*
X60240000Y-60820000D01*
X33580000Y-82810000D02*
X34200000Y-82810000D01*
X33580000Y-82810000D02*
G75*
G03*
X33580000Y-82810000I-920000J0D01*
G01*
X55070000Y-77220000D02*
X55320000Y-76690000D01*
X59900000Y-78220000D02*
X59900000Y-77220000D01*
X59900000Y-76690000D02*
X60150000Y-77220000D01*
X55320000Y-76690000D02*
X59900000Y-76690000D01*
X60950000Y-72800000D02*
X60950000Y-72200000D01*
X60150000Y-77220000D02*
X60150000Y-78220000D01*
X54270000Y-72800000D02*
X55870000Y-72800000D01*
X53690000Y-78220000D02*
X61530000Y-78220000D01*
X59350000Y-72800000D02*
X60950000Y-72800000D01*
X61530000Y-78220000D02*
X61530000Y-72200000D01*
X56810000Y-72200000D02*
X56810000Y-72800000D01*
X58410000Y-72800000D02*
X58410000Y-72200000D01*
X59350000Y-72200000D02*
X59350000Y-72800000D01*
X55070000Y-77220000D02*
X60150000Y-77220000D01*
X53400000Y-73230000D02*
X53400000Y-77230000D01*
X56810000Y-72800000D02*
X58410000Y-72800000D01*
X54270000Y-72200000D02*
X54270000Y-72800000D01*
X55070000Y-78220000D02*
X55070000Y-77220000D01*
X53690000Y-72200000D02*
X53690000Y-78220000D01*
X55320000Y-78220000D02*
X55320000Y-77220000D01*
X55870000Y-72800000D02*
X55870000Y-72200000D01*
X61530000Y-72200000D02*
X53690000Y-72200000D01*
X40350000Y-72780000D02*
X41950000Y-72780000D01*
X41950000Y-72780000D02*
X41950000Y-72180000D01*
X38610000Y-77200000D02*
X41150000Y-77200000D01*
X38860000Y-78200000D02*
X38860000Y-77200000D01*
X40350000Y-72180000D02*
X40350000Y-72780000D01*
X37230000Y-78200000D02*
X42530000Y-78200000D01*
X39410000Y-72780000D02*
X39410000Y-72180000D01*
X41150000Y-77200000D02*
X41150000Y-78200000D01*
X38610000Y-77200000D02*
X38860000Y-76670000D01*
X42530000Y-78200000D02*
X42530000Y-72180000D01*
X37230000Y-72180000D02*
X37230000Y-78200000D01*
X40900000Y-78200000D02*
X40900000Y-77200000D01*
X37810000Y-72180000D02*
X37810000Y-72780000D01*
X37810000Y-72780000D02*
X39410000Y-72780000D01*
X40900000Y-76670000D02*
X41150000Y-77200000D01*
X38860000Y-76670000D02*
X40900000Y-76670000D01*
X36940000Y-73210000D02*
X36940000Y-77210000D01*
X42530000Y-72180000D02*
X37230000Y-72180000D01*
X38610000Y-78200000D02*
X38610000Y-77200000D01*
M02*
