  0
SECTION
  2
HEADER
  9
$ANGBASE
  50
0.0
  9
$ANGDIR
  70
1
  9
$MEASUREMENT
  70
1
  0
ENDSEC
  0
SECTION
  2
TABLES
  0
TABLE
  2
LTYPE
  70
4
  0
LTYPE
  5
40F
  2
CONTINUOUS
  70
0
  3
Solid line
  72
65
  73
0
  40
0.0
  0
LTYPE
  5
410
  2
DASHDOT
 70
0
  3
Dash Dot ____ _ ____ _
 72
65
 73
4
 40
2.0
 49
1.25
 49
-0.25
 49
0.25
 49
-0.25
  0
LTYPE
  5
411
  2
DASHED
 70
0
  3
Dashed __ __ __ __ __
 72
65
 73
2
 40
0.75
 49
0.5
 49
-0.25
  0
LTYPE
  5
43B
  2
DOTTED
 70
0
  3
Dotted .  .  .  .
 72
65
 73
2
 40
0.2
 49
0.0
 49
-0.2
  0
ENDTAB
  0
TABLE
  2
STYLE
  70
4
  0
STYLE
  2
KICAD
  70
0
  40
0
  41
1
  42
1
  50
0
  71
0
  3
isocp.shx
  0
STYLE
  2
KICADB
  70
0
  40
0
  41
1
  42
1
  50
0
  71
0
  3
isocp.shx
  0
STYLE
  2
KICADI
  70
0
  40
0
  41
1
  42
1
  50
15
  71
0
  3
isocp.shx
  0
STYLE
  2
KICADBI
  70
0
  40
0
  41
1
  42
1
  50
15
  71
0
  3
isocp.shx
  0
ENDTAB
  0
TABLE
  2
LAYER
  70
1
  0
LAYER
  2
BLACK
  70
0
  62
7
  6
CONTINUOUS
  0
ENDTAB
  0
ENDSEC
  0
SECTION
  2
ENTITIES
0
LINE
8
BLACK
6
CONTINUOUS
10
26.1274
20
-90.7466
11
32.2983
21
-96.9175
0
LINE
8
BLACK
6
CONTINUOUS
10
76.46
20
-97.01
11
76.4532
21
-75.8482
0
ARC
8
BLACK
10
26.3183
20
-90.5557
40
0.269996
50
-179.996
51
-134.993
0
ARC
8
BLACK
10
68.9964
20
-47.857
40
0.269993
50
45.0057
51
90.0095
0
LINE
8
BLACK
6
CONTINUOUS
10
32.4892
20
-96.9966
11
76.46
21
-97.01
0
LINE
8
BLACK
6
CONTINUOUS
10
33.3143
20
-47.6661
11
26.06
21
-54.853
0
ARC
8
BLACK
10
32.4892
20
-96.7266
40
0.270007
50
-134.997
51
-89.9977
0
ARC
8
BLACK
10
33.5052
20
-47.857
40
0.269987
50
89.9975
51
134.999
0
LINE
8
BLACK
6
CONTINUOUS
10
26.06
20
-54.853
11
26.0483
21
-90.5557
0
ARC
8
BLACK
10
76.1832
20
-55.0439
40
0.270033
50
0.00127305
51
44.9949
0
LINE
8
BLACK
6
CONTINUOUS
10
76.4532
20
-75.8482
11
76.4532
21
-55.0439
0
LINE
8
BLACK
6
CONTINUOUS
10
68.9964
20
-47.587
11
33.5052
21
-47.587
0
LINE
8
BLACK
6
CONTINUOUS
10
76.3742
20
-54.853
11
69.1873
21
-47.6661
0
LINE
8
BLACK
6
CONTINUOUS
10
32.31
20
-82.46
11
33.01
21
-83.16
0
LINE
8
BLACK
6
CONTINUOUS
10
33.01
20
-82.46
11
32.31
21
-83.16
0
LINE
8
BLACK
6
CONTINUOUS
10
34.85
20
-82.46
11
35.55
21
-83.16
0
LINE
8
BLACK
6
CONTINUOUS
10
35.55
20
-82.46
11
34.85
21
-83.16
0
CIRCLE
8
BLACK
10
31.99
20
-75.21
40
0.595
0
CIRCLE
8
BLACK
10
34.53
20
-75.21
40
0.595
0
CIRCLE
8
BLACK
10
35.52
20
-64.68
40
0.595
0
CIRCLE
8
BLACK
10
38.06
20
-64.68
40
0.595
0
CIRCLE
8
BLACK
10
38.61
20
-75.21
40
0.595
0
CIRCLE
8
BLACK
10
39.28
20
-88.81
40
0.595
0
CIRCLE
8
BLACK
10
40.6
20
-64.68
40
0.595
0
CIRCLE
8
BLACK
10
41.15
20
-75.21
40
0.595
0
CIRCLE
8
BLACK
10
41.82
20
-88.81
40
0.595
0
CIRCLE
8
BLACK
10
44.36
20
-88.81
40
0.595
0
CIRCLE
8
BLACK
10
45.52
20
-75.21
40
0.595
0
CIRCLE
8
BLACK
10
46.16
20
-57.83
40
0.595
0
CIRCLE
8
BLACK
10
46.16
20
-64.83
40
0.595
0
CIRCLE
8
BLACK
10
46.9
20
-88.81
40
0.595
0
CIRCLE
8
BLACK
10
48.06
20
-75.21
40
0.595
0
CIRCLE
8
BLACK
10
48.7
20
-57.83
40
0.595
0
CIRCLE
8
BLACK
10
48.7
20
-64.83
40
0.595
0
CIRCLE
8
BLACK
10
50.6
20
-75.21
40
0.595
0
CIRCLE
8
BLACK
10
51.07
20
-88.76
40
0.595
0
CIRCLE
8
BLACK
10
51.24
20
-57.83
40
0.595
0
CIRCLE
8
BLACK
10
51.24
20
-64.83
40
0.595
0
CIRCLE
8
BLACK
10
53.61
20
-88.76
40
0.595
0
CIRCLE
8
BLACK
10
53.78
20
-57.83
40
0.595
0
CIRCLE
8
BLACK
10
53.78
20
-64.83
40
0.595
0
CIRCLE
8
BLACK
10
55.07
20
-75.23
40
0.595
0
CIRCLE
8
BLACK
10
56.32
20
-57.83
40
0.595
0
CIRCLE
8
BLACK
10
56.32
20
-64.83
40
0.595
0
CIRCLE
8
BLACK
10
57.61
20
-75.23
40
0.595
0
CIRCLE
8
BLACK
10
57.95
20
-88.79
40
0.595
0
CIRCLE
8
BLACK
10
58.86
20
-57.83
40
0.595
0
CIRCLE
8
BLACK
10
58.86
20
-64.83
40
0.595
0
CIRCLE
8
BLACK
10
60.15
20
-75.23
40
0.595
0
CIRCLE
8
BLACK
10
60.49
20
-88.79
40
0.595
0
CIRCLE
8
BLACK
10
64.66
20
-75.21
40
0.595
0
CIRCLE
8
BLACK
10
67.2
20
-75.21
40
0.595
0
LINE
8
BLACK
6
CONTINUOUS
10
28.5995
20
-100.14
11
28.5995
21
-98.1398
0
LINE
8
BLACK
6
CONTINUOUS
10
28.5995
20
-98.1398
11
29.0757
21
-98.1398
0
LINE
8
BLACK
6
CONTINUOUS
10
29.0757
20
-98.1398
11
29.3614
21
-98.235
0
LINE
8
BLACK
6
CONTINUOUS
10
29.3614
20
-98.235
11
29.5519
21
-98.4255
0
LINE
8
BLACK
6
CONTINUOUS
10
29.5519
20
-98.4255
11
29.6471
21
-98.616
0
LINE
8
BLACK
6
CONTINUOUS
10
29.6471
20
-98.616
11
29.7424
21
-98.9969
0
LINE
8
BLACK
6
CONTINUOUS
10
29.7424
20
-98.9969
11
29.7424
21
-99.2826
0
LINE
8
BLACK
6
CONTINUOUS
10
29.7424
20
-99.2826
11
29.6471
21
-99.6636
0
LINE
8
BLACK
6
CONTINUOUS
10
29.6471
20
-99.6636
11
29.5519
21
-99.854
0
LINE
8
BLACK
6
CONTINUOUS
10
29.5519
20
-99.854
11
29.3614
21
-100.045
0
LINE
8
BLACK
6
CONTINUOUS
10
29.3614
20
-100.045
11
29.0757
21
-100.14
0
LINE
8
BLACK
6
CONTINUOUS
10
29.0757
20
-100.14
11
28.5995
21
-100.14
0
LINE
8
BLACK
6
CONTINUOUS
10
30.5995
20
-100.14
11
30.5995
21
-98.8064
0
LINE
8
BLACK
6
CONTINUOUS
10
30.5995
20
-99.1874
11
30.6948
21
-98.9969
0
LINE
8
BLACK
6
CONTINUOUS
10
30.6948
20
-98.9969
11
30.79
21
-98.9017
0
LINE
8
BLACK
6
CONTINUOUS
10
30.79
20
-98.9017
11
30.9805
21
-98.8064
0
LINE
8
BLACK
6
CONTINUOUS
10
30.9805
20
-98.8064
11
31.1709
21
-98.8064
0
LINE
8
BLACK
6
CONTINUOUS
10
31.8376
20
-100.14
11
31.8376
21
-98.8064
0
LINE
8
BLACK
6
CONTINUOUS
10
31.8376
20
-98.1398
11
31.7424
21
-98.235
0
LINE
8
BLACK
6
CONTINUOUS
10
31.7424
20
-98.235
11
31.8376
21
-98.3302
0
LINE
8
BLACK
6
CONTINUOUS
10
31.8376
20
-98.3302
11
31.9328
21
-98.235
0
LINE
8
BLACK
6
CONTINUOUS
10
31.9328
20
-98.235
11
31.8376
21
-98.1398
0
LINE
8
BLACK
6
CONTINUOUS
10
31.8376
20
-98.1398
11
31.8376
21
-98.3302
0
LINE
8
BLACK
6
CONTINUOUS
10
33.0757
20
-100.14
11
32.8852
21
-100.045
0
LINE
8
BLACK
6
CONTINUOUS
10
32.8852
20
-100.045
11
32.79
21
-99.854
0
LINE
8
BLACK
6
CONTINUOUS
10
32.79
20
-99.854
11
32.79
21
-98.1398
0
LINE
8
BLACK
6
CONTINUOUS
10
34.1233
20
-100.14
11
33.9328
21
-100.045
0
LINE
8
BLACK
6
CONTINUOUS
10
33.9328
20
-100.045
11
33.8376
21
-99.854
0
LINE
8
BLACK
6
CONTINUOUS
10
33.8376
20
-99.854
11
33.8376
21
-98.1398
0
LINE
8
BLACK
6
CONTINUOUS
10
36.409
20
-100.14
11
36.409
21
-98.1398
0
LINE
8
BLACK
6
CONTINUOUS
10
36.409
20
-98.1398
11
37.0757
21
-99.5683
0
LINE
8
BLACK
6
CONTINUOUS
10
37.0757
20
-99.5683
11
37.7424
21
-98.1398
0
LINE
8
BLACK
6
CONTINUOUS
10
37.7424
20
-98.1398
11
37.7424
21
-100.14
0
LINE
8
BLACK
6
CONTINUOUS
10
39.5519
20
-100.14
11
39.5519
21
-99.0921
0
LINE
8
BLACK
6
CONTINUOUS
10
39.5519
20
-99.0921
11
39.4567
21
-98.9017
0
LINE
8
BLACK
6
CONTINUOUS
10
39.4567
20
-98.9017
11
39.2662
21
-98.8064
0
LINE
8
BLACK
6
CONTINUOUS
10
39.2662
20
-98.8064
11
38.8852
21
-98.8064
0
LINE
8
BLACK
6
CONTINUOUS
10
38.8852
20
-98.8064
11
38.6948
21
-98.9017
0
LINE
8
BLACK
6
CONTINUOUS
10
39.5519
20
-100.045
11
39.3614
21
-100.14
0
LINE
8
BLACK
6
CONTINUOUS
10
39.3614
20
-100.14
11
38.8852
21
-100.14
0
LINE
8
BLACK
6
CONTINUOUS
10
38.8852
20
-100.14
11
38.6948
21
-100.045
0
LINE
8
BLACK
6
CONTINUOUS
10
38.6948
20
-100.045
11
38.5995
21
-99.854
0
LINE
8
BLACK
6
CONTINUOUS
10
38.5995
20
-99.854
11
38.5995
21
-99.6636
0
LINE
8
BLACK
6
CONTINUOUS
10
38.5995
20
-99.6636
11
38.6948
21
-99.4731
0
LINE
8
BLACK
6
CONTINUOUS
10
38.6948
20
-99.4731
11
38.8852
21
-99.3779
0
LINE
8
BLACK
6
CONTINUOUS
10
38.8852
20
-99.3779
11
39.3614
21
-99.3779
0
LINE
8
BLACK
6
CONTINUOUS
10
39.3614
20
-99.3779
11
39.5519
21
-99.2826
0
LINE
8
BLACK
6
CONTINUOUS
10
40.5043
20
-98.8064
11
40.5043
21
-100.806
0
LINE
8
BLACK
6
CONTINUOUS
10
40.5043
20
-98.9017
11
40.6948
21
-98.8064
0
LINE
8
BLACK
6
CONTINUOUS
10
40.6948
20
-98.8064
11
41.0757
21
-98.8064
0
LINE
8
BLACK
6
CONTINUOUS
10
41.0757
20
-98.8064
11
41.2662
21
-98.9017
0
LINE
8
BLACK
6
CONTINUOUS
10
41.2662
20
-98.9017
11
41.3614
21
-98.9969
0
LINE
8
BLACK
6
CONTINUOUS
10
41.3614
20
-98.9969
11
41.4567
21
-99.1874
0
LINE
8
BLACK
6
CONTINUOUS
10
41.4567
20
-99.1874
11
41.4567
21
-99.7588
0
LINE
8
BLACK
6
CONTINUOUS
10
41.4567
20
-99.7588
11
41.3614
21
-99.9493
0
LINE
8
BLACK
6
CONTINUOUS
10
41.3614
20
-99.9493
11
41.2662
21
-100.045
0
LINE
8
BLACK
6
CONTINUOUS
10
41.2662
20
-100.045
11
41.0757
21
-100.14
0
LINE
8
BLACK
6
CONTINUOUS
10
41.0757
20
-100.14
11
40.6948
21
-100.14
0
LINE
8
BLACK
6
CONTINUOUS
10
40.6948
20
-100.14
11
40.5043
21
-100.045
0
LINE
8
BLACK
6
CONTINUOUS
10
42.3138
20
-99.9493
11
42.409
21
-100.045
0
LINE
8
BLACK
6
CONTINUOUS
10
42.409
20
-100.045
11
42.3138
21
-100.14
0
LINE
8
BLACK
6
CONTINUOUS
10
42.3138
20
-100.14
11
42.2186
21
-100.045
0
LINE
8
BLACK
6
CONTINUOUS
10
42.2186
20
-100.045
11
42.3138
21
-99.9493
0
LINE
8
BLACK
6
CONTINUOUS
10
42.3138
20
-99.9493
11
42.3138
21
-100.14
0
LINE
8
BLACK
6
CONTINUOUS
10
42.3138
20
-98.9017
11
42.409
21
-98.9969
0
LINE
8
BLACK
6
CONTINUOUS
10
42.409
20
-98.9969
11
42.3138
21
-99.0921
0
LINE
8
BLACK
6
CONTINUOUS
10
42.3138
20
-99.0921
11
42.2186
21
-98.9969
0
LINE
8
BLACK
6
CONTINUOUS
10
42.2186
20
-98.9969
11
42.3138
21
-98.9017
0
LINE
8
BLACK
6
CONTINUOUS
10
42.3138
20
-98.9017
11
42.3138
21
-99.0921
0
LINE
8
BLACK
6
CONTINUOUS
10
25.3233
20
-103.085
11
26.0233
21
-103.785
0
LINE
8
BLACK
6
CONTINUOUS
10
26.0233
20
-103.085
11
25.3233
21
-103.785
0
LINE
8
BLACK
6
CONTINUOUS
10
28.9805
20
-102.34
11
29.1709
21
-102.34
0
LINE
8
BLACK
6
CONTINUOUS
10
29.1709
20
-102.34
11
29.3614
21
-102.435
0
LINE
8
BLACK
6
CONTINUOUS
10
29.3614
20
-102.435
11
29.4567
21
-102.53
0
LINE
8
BLACK
6
CONTINUOUS
10
29.4567
20
-102.53
11
29.5519
21
-102.721
0
LINE
8
BLACK
6
CONTINUOUS
10
29.5519
20
-102.721
11
29.6471
21
-103.102
0
LINE
8
BLACK
6
CONTINUOUS
10
29.6471
20
-103.102
11
29.6471
21
-103.578
0
LINE
8
BLACK
6
CONTINUOUS
10
29.6471
20
-103.578
11
29.5519
21
-103.959
0
LINE
8
BLACK
6
CONTINUOUS
10
29.5519
20
-103.959
11
29.4567
21
-104.149
0
LINE
8
BLACK
6
CONTINUOUS
10
29.4567
20
-104.149
11
29.3614
21
-104.245
0
LINE
8
BLACK
6
CONTINUOUS
10
29.3614
20
-104.245
11
29.1709
21
-104.34
0
LINE
8
BLACK
6
CONTINUOUS
10
29.1709
20
-104.34
11
28.9805
21
-104.34
0
LINE
8
BLACK
6
CONTINUOUS
10
28.9805
20
-104.34
11
28.79
21
-104.245
0
LINE
8
BLACK
6
CONTINUOUS
10
28.79
20
-104.245
11
28.6948
21
-104.149
0
LINE
8
BLACK
6
CONTINUOUS
10
28.6948
20
-104.149
11
28.5995
21
-103.959
0
LINE
8
BLACK
6
CONTINUOUS
10
28.5995
20
-103.959
11
28.5043
21
-103.578
0
LINE
8
BLACK
6
CONTINUOUS
10
28.5043
20
-103.578
11
28.5043
21
-103.102
0
LINE
8
BLACK
6
CONTINUOUS
10
28.5043
20
-103.102
11
28.5995
21
-102.721
0
LINE
8
BLACK
6
CONTINUOUS
10
28.5995
20
-102.721
11
28.6948
21
-102.53
0
LINE
8
BLACK
6
CONTINUOUS
10
28.6948
20
-102.53
11
28.79
21
-102.435
0
LINE
8
BLACK
6
CONTINUOUS
10
28.79
20
-102.435
11
28.9805
21
-102.34
0
LINE
8
BLACK
6
CONTINUOUS
10
30.5043
20
-104.149
11
30.5995
21
-104.245
0
LINE
8
BLACK
6
CONTINUOUS
10
30.5995
20
-104.245
11
30.5043
21
-104.34
0
LINE
8
BLACK
6
CONTINUOUS
10
30.5043
20
-104.34
11
30.409
21
-104.245
0
LINE
8
BLACK
6
CONTINUOUS
10
30.409
20
-104.245
11
30.5043
21
-104.149
0
LINE
8
BLACK
6
CONTINUOUS
10
30.5043
20
-104.149
11
30.5043
21
-104.34
0
LINE
8
BLACK
6
CONTINUOUS
10
31.2662
20
-102.34
11
32.5995
21
-102.34
0
LINE
8
BLACK
6
CONTINUOUS
10
32.5995
20
-102.34
11
31.7424
21
-104.34
0
LINE
8
BLACK
6
CONTINUOUS
10
33.7424
20
-102.34
11
33.9328
21
-102.34
0
LINE
8
BLACK
6
CONTINUOUS
10
33.9328
20
-102.34
11
34.1233
21
-102.435
0
LINE
8
BLACK
6
CONTINUOUS
10
34.1233
20
-102.435
11
34.2186
21
-102.53
0
LINE
8
BLACK
6
CONTINUOUS
10
34.2186
20
-102.53
11
34.3138
21
-102.721
0
LINE
8
BLACK
6
CONTINUOUS
10
34.3138
20
-102.721
11
34.409
21
-103.102
0
LINE
8
BLACK
6
CONTINUOUS
10
34.409
20
-103.102
11
34.409
21
-103.578
0
LINE
8
BLACK
6
CONTINUOUS
10
34.409
20
-103.578
11
34.3138
21
-103.959
0
LINE
8
BLACK
6
CONTINUOUS
10
34.3138
20
-103.959
11
34.2186
21
-104.149
0
LINE
8
BLACK
6
CONTINUOUS
10
34.2186
20
-104.149
11
34.1233
21
-104.245
0
LINE
8
BLACK
6
CONTINUOUS
10
34.1233
20
-104.245
11
33.9328
21
-104.34
0
LINE
8
BLACK
6
CONTINUOUS
10
33.9328
20
-104.34
11
33.7424
21
-104.34
0
LINE
8
BLACK
6
CONTINUOUS
10
33.7424
20
-104.34
11
33.5519
21
-104.245
0
LINE
8
BLACK
6
CONTINUOUS
10
33.5519
20
-104.245
11
33.4567
21
-104.149
0
LINE
8
BLACK
6
CONTINUOUS
10
33.4567
20
-104.149
11
33.3614
21
-103.959
0
LINE
8
BLACK
6
CONTINUOUS
10
33.3614
20
-103.959
11
33.2662
21
-103.578
0
LINE
8
BLACK
6
CONTINUOUS
10
33.2662
20
-103.578
11
33.2662
21
-103.102
0
LINE
8
BLACK
6
CONTINUOUS
10
33.2662
20
-103.102
11
33.3614
21
-102.721
0
LINE
8
BLACK
6
CONTINUOUS
10
33.3614
20
-102.721
11
33.4567
21
-102.53
0
LINE
8
BLACK
6
CONTINUOUS
10
33.4567
20
-102.53
11
33.5519
21
-102.435
0
LINE
8
BLACK
6
CONTINUOUS
10
33.5519
20
-102.435
11
33.7424
21
-102.34
0
LINE
8
BLACK
6
CONTINUOUS
10
35.6471
20
-102.34
11
35.8376
21
-102.34
0
LINE
8
BLACK
6
CONTINUOUS
10
35.8376
20
-102.34
11
36.0281
21
-102.435
0
LINE
8
BLACK
6
CONTINUOUS
10
36.0281
20
-102.435
11
36.1233
21
-102.53
0
LINE
8
BLACK
6
CONTINUOUS
10
36.1233
20
-102.53
11
36.2186
21
-102.721
0
LINE
8
BLACK
6
CONTINUOUS
10
36.2186
20
-102.721
11
36.3138
21
-103.102
0
LINE
8
BLACK
6
CONTINUOUS
10
36.3138
20
-103.102
11
36.3138
21
-103.578
0
LINE
8
BLACK
6
CONTINUOUS
10
36.3138
20
-103.578
11
36.2186
21
-103.959
0
LINE
8
BLACK
6
CONTINUOUS
10
36.2186
20
-103.959
11
36.1233
21
-104.149
0
LINE
8
BLACK
6
CONTINUOUS
10
36.1233
20
-104.149
11
36.0281
21
-104.245
0
LINE
8
BLACK
6
CONTINUOUS
10
36.0281
20
-104.245
11
35.8376
21
-104.34
0
LINE
8
BLACK
6
CONTINUOUS
10
35.8376
20
-104.34
11
35.6471
21
-104.34
0
LINE
8
BLACK
6
CONTINUOUS
10
35.6471
20
-104.34
11
35.4567
21
-104.245
0
LINE
8
BLACK
6
CONTINUOUS
10
35.4567
20
-104.245
11
35.3614
21
-104.149
0
LINE
8
BLACK
6
CONTINUOUS
10
35.3614
20
-104.149
11
35.2662
21
-103.959
0
LINE
8
BLACK
6
CONTINUOUS
10
35.2662
20
-103.959
11
35.1709
21
-103.578
0
LINE
8
BLACK
6
CONTINUOUS
10
35.1709
20
-103.578
11
35.1709
21
-103.102
0
LINE
8
BLACK
6
CONTINUOUS
10
35.1709
20
-103.102
11
35.2662
21
-102.721
0
LINE
8
BLACK
6
CONTINUOUS
10
35.2662
20
-102.721
11
35.3614
21
-102.53
0
LINE
8
BLACK
6
CONTINUOUS
10
35.3614
20
-102.53
11
35.4567
21
-102.435
0
LINE
8
BLACK
6
CONTINUOUS
10
35.4567
20
-102.435
11
35.6471
21
-102.34
0
LINE
8
BLACK
6
CONTINUOUS
10
37.1709
20
-104.34
11
37.1709
21
-103.006
0
LINE
8
BLACK
6
CONTINUOUS
10
37.1709
20
-103.197
11
37.2662
21
-103.102
0
LINE
8
BLACK
6
CONTINUOUS
10
37.2662
20
-103.102
11
37.4567
21
-103.006
0
LINE
8
BLACK
6
CONTINUOUS
10
37.4567
20
-103.006
11
37.7424
21
-103.006
0
LINE
8
BLACK
6
CONTINUOUS
10
37.7424
20
-103.006
11
37.9328
21
-103.102
0
LINE
8
BLACK
6
CONTINUOUS
10
37.9328
20
-103.102
11
38.0281
21
-103.292
0
LINE
8
BLACK
6
CONTINUOUS
10
38.0281
20
-103.292
11
38.0281
21
-104.34
0
LINE
8
BLACK
6
CONTINUOUS
10
38.0281
20
-103.292
11
38.1233
21
-103.102
0
LINE
8
BLACK
6
CONTINUOUS
10
38.1233
20
-103.102
11
38.3138
21
-103.006
0
LINE
8
BLACK
6
CONTINUOUS
10
38.3138
20
-103.006
11
38.5995
21
-103.006
0
LINE
8
BLACK
6
CONTINUOUS
10
38.5995
20
-103.006
11
38.79
21
-103.102
0
LINE
8
BLACK
6
CONTINUOUS
10
38.79
20
-103.102
11
38.8852
21
-103.292
0
LINE
8
BLACK
6
CONTINUOUS
10
38.8852
20
-103.292
11
38.8852
21
-104.34
0
LINE
8
BLACK
6
CONTINUOUS
10
39.8376
20
-104.34
11
39.8376
21
-103.006
0
LINE
8
BLACK
6
CONTINUOUS
10
39.8376
20
-103.197
11
39.9328
21
-103.102
0
LINE
8
BLACK
6
CONTINUOUS
10
39.9328
20
-103.102
11
40.1233
21
-103.006
0
LINE
8
BLACK
6
CONTINUOUS
10
40.1233
20
-103.006
11
40.409
21
-103.006
0
LINE
8
BLACK
6
CONTINUOUS
10
40.409
20
-103.006
11
40.5995
21
-103.102
0
LINE
8
BLACK
6
CONTINUOUS
10
40.5995
20
-103.102
11
40.6948
21
-103.292
0
LINE
8
BLACK
6
CONTINUOUS
10
40.6948
20
-103.292
11
40.6948
21
-104.34
0
LINE
8
BLACK
6
CONTINUOUS
10
40.6948
20
-103.292
11
40.79
21
-103.102
0
LINE
8
BLACK
6
CONTINUOUS
10
40.79
20
-103.102
11
40.9805
21
-103.006
0
LINE
8
BLACK
6
CONTINUOUS
10
40.9805
20
-103.006
11
41.2662
21
-103.006
0
LINE
8
BLACK
6
CONTINUOUS
10
41.2662
20
-103.006
11
41.4567
21
-103.102
0
LINE
8
BLACK
6
CONTINUOUS
10
41.4567
20
-103.102
11
41.5519
21
-103.292
0
LINE
8
BLACK
6
CONTINUOUS
10
41.5519
20
-103.292
11
41.5519
21
-104.34
0
LINE
8
BLACK
6
CONTINUOUS
10
45.4567
20
-102.245
11
43.7424
21
-104.816
0
LINE
8
BLACK
6
CONTINUOUS
10
48.0281
20
-102.34
11
48.2186
21
-102.34
0
LINE
8
BLACK
6
CONTINUOUS
10
48.2186
20
-102.34
11
48.409
21
-102.435
0
LINE
8
BLACK
6
CONTINUOUS
10
48.409
20
-102.435
11
48.5043
21
-102.53
0
LINE
8
BLACK
6
CONTINUOUS
10
48.5043
20
-102.53
11
48.5995
21
-102.721
0
LINE
8
BLACK
6
CONTINUOUS
10
48.5995
20
-102.721
11
48.6948
21
-103.102
0
LINE
8
BLACK
6
CONTINUOUS
10
48.6948
20
-103.102
11
48.6948
21
-103.578
0
LINE
8
BLACK
6
CONTINUOUS
10
48.6948
20
-103.578
11
48.5995
21
-103.959
0
LINE
8
BLACK
6
CONTINUOUS
10
48.5995
20
-103.959
11
48.5043
21
-104.149
0
LINE
8
BLACK
6
CONTINUOUS
10
48.5043
20
-104.149
11
48.409
21
-104.245
0
LINE
8
BLACK
6
CONTINUOUS
10
48.409
20
-104.245
11
48.2186
21
-104.34
0
LINE
8
BLACK
6
CONTINUOUS
10
48.2186
20
-104.34
11
48.0281
21
-104.34
0
LINE
8
BLACK
6
CONTINUOUS
10
48.0281
20
-104.34
11
47.8376
21
-104.245
0
LINE
8
BLACK
6
CONTINUOUS
10
47.8376
20
-104.245
11
47.7424
21
-104.149
0
LINE
8
BLACK
6
CONTINUOUS
10
47.7424
20
-104.149
11
47.6471
21
-103.959
0
LINE
8
BLACK
6
CONTINUOUS
10
47.6471
20
-103.959
11
47.5519
21
-103.578
0
LINE
8
BLACK
6
CONTINUOUS
10
47.5519
20
-103.578
11
47.5519
21
-103.102
0
LINE
8
BLACK
6
CONTINUOUS
10
47.5519
20
-103.102
11
47.6471
21
-102.721
0
LINE
8
BLACK
6
CONTINUOUS
10
47.6471
20
-102.721
11
47.7424
21
-102.53
0
LINE
8
BLACK
6
CONTINUOUS
10
47.7424
20
-102.53
11
47.8376
21
-102.435
0
LINE
8
BLACK
6
CONTINUOUS
10
47.8376
20
-102.435
11
48.0281
21
-102.34
0
LINE
8
BLACK
6
CONTINUOUS
10
49.5519
20
-104.149
11
49.6471
21
-104.245
0
LINE
8
BLACK
6
CONTINUOUS
10
49.6471
20
-104.245
11
49.5519
21
-104.34
0
LINE
8
BLACK
6
CONTINUOUS
10
49.5519
20
-104.34
11
49.4567
21
-104.245
0
LINE
8
BLACK
6
CONTINUOUS
10
49.4567
20
-104.245
11
49.5519
21
-104.149
0
LINE
8
BLACK
6
CONTINUOUS
10
49.5519
20
-104.149
11
49.5519
21
-104.34
0
LINE
8
BLACK
6
CONTINUOUS
10
50.8852
20
-102.34
11
51.0757
21
-102.34
0
LINE
8
BLACK
6
CONTINUOUS
10
51.0757
20
-102.34
11
51.2662
21
-102.435
0
LINE
8
BLACK
6
CONTINUOUS
10
51.2662
20
-102.435
11
51.3614
21
-102.53
0
LINE
8
BLACK
6
CONTINUOUS
10
51.3614
20
-102.53
11
51.4567
21
-102.721
0
LINE
8
BLACK
6
CONTINUOUS
10
51.4567
20
-102.721
11
51.5519
21
-103.102
0
LINE
8
BLACK
6
CONTINUOUS
10
51.5519
20
-103.102
11
51.5519
21
-103.578
0
LINE
8
BLACK
6
CONTINUOUS
10
51.5519
20
-103.578
11
51.4567
21
-103.959
0
LINE
8
BLACK
6
CONTINUOUS
10
51.4567
20
-103.959
11
51.3614
21
-104.149
0
LINE
8
BLACK
6
CONTINUOUS
10
51.3614
20
-104.149
11
51.2662
21
-104.245
0
LINE
8
BLACK
6
CONTINUOUS
10
51.2662
20
-104.245
11
51.0757
21
-104.34
0
LINE
8
BLACK
6
CONTINUOUS
10
51.0757
20
-104.34
11
50.8852
21
-104.34
0
LINE
8
BLACK
6
CONTINUOUS
10
50.8852
20
-104.34
11
50.6948
21
-104.245
0
LINE
8
BLACK
6
CONTINUOUS
10
50.6948
20
-104.245
11
50.5995
21
-104.149
0
LINE
8
BLACK
6
CONTINUOUS
10
50.5995
20
-104.149
11
50.5043
21
-103.959
0
LINE
8
BLACK
6
CONTINUOUS
10
50.5043
20
-103.959
11
50.409
21
-103.578
0
LINE
8
BLACK
6
CONTINUOUS
10
50.409
20
-103.578
11
50.409
21
-103.102
0
LINE
8
BLACK
6
CONTINUOUS
10
50.409
20
-103.102
11
50.5043
21
-102.721
0
LINE
8
BLACK
6
CONTINUOUS
10
50.5043
20
-102.721
11
50.5995
21
-102.53
0
LINE
8
BLACK
6
CONTINUOUS
10
50.5995
20
-102.53
11
50.6948
21
-102.435
0
LINE
8
BLACK
6
CONTINUOUS
10
50.6948
20
-102.435
11
50.8852
21
-102.34
0
LINE
8
BLACK
6
CONTINUOUS
10
52.3138
20
-102.53
11
52.409
21
-102.435
0
LINE
8
BLACK
6
CONTINUOUS
10
52.409
20
-102.435
11
52.5995
21
-102.34
0
LINE
8
BLACK
6
CONTINUOUS
10
52.5995
20
-102.34
11
53.0757
21
-102.34
0
LINE
8
BLACK
6
CONTINUOUS
10
53.0757
20
-102.34
11
53.2662
21
-102.435
0
LINE
8
BLACK
6
CONTINUOUS
10
53.2662
20
-102.435
11
53.3614
21
-102.53
0
LINE
8
BLACK
6
CONTINUOUS
10
53.3614
20
-102.53
11
53.4567
21
-102.721
0
LINE
8
BLACK
6
CONTINUOUS
10
53.4567
20
-102.721
11
53.4567
21
-102.911
0
LINE
8
BLACK
6
CONTINUOUS
10
53.4567
20
-102.911
11
53.3614
21
-103.197
0
LINE
8
BLACK
6
CONTINUOUS
10
53.3614
20
-103.197
11
52.2186
21
-104.34
0
LINE
8
BLACK
6
CONTINUOUS
10
52.2186
20
-104.34
11
53.4567
21
-104.34
0
LINE
8
BLACK
6
CONTINUOUS
10
54.1233
20
-102.34
11
55.4567
21
-102.34
0
LINE
8
BLACK
6
CONTINUOUS
10
55.4567
20
-102.34
11
54.5995
21
-104.34
0
LINE
8
BLACK
6
CONTINUOUS
10
57.0757
20
-102.34
11
56.6948
21
-102.34
0
LINE
8
BLACK
6
CONTINUOUS
10
56.6948
20
-102.34
11
56.5043
21
-102.435
0
LINE
8
BLACK
6
CONTINUOUS
10
56.5043
20
-102.435
11
56.409
21
-102.53
0
LINE
8
BLACK
6
CONTINUOUS
10
56.409
20
-102.53
11
56.2186
21
-102.816
0
LINE
8
BLACK
6
CONTINUOUS
10
56.2186
20
-102.816
11
56.1233
21
-103.197
0
LINE
8
BLACK
6
CONTINUOUS
10
56.1233
20
-103.197
11
56.1233
21
-103.959
0
LINE
8
BLACK
6
CONTINUOUS
10
56.1233
20
-103.959
11
56.2186
21
-104.149
0
LINE
8
BLACK
6
CONTINUOUS
10
56.2186
20
-104.149
11
56.3138
21
-104.245
0
LINE
8
BLACK
6
CONTINUOUS
10
56.3138
20
-104.245
11
56.5043
21
-104.34
0
LINE
8
BLACK
6
CONTINUOUS
10
56.5043
20
-104.34
11
56.8852
21
-104.34
0
LINE
8
BLACK
6
CONTINUOUS
10
56.8852
20
-104.34
11
57.0757
21
-104.245
0
LINE
8
BLACK
6
CONTINUOUS
10
57.0757
20
-104.245
11
57.1709
21
-104.149
0
LINE
8
BLACK
6
CONTINUOUS
10
57.1709
20
-104.149
11
57.2662
21
-103.959
0
LINE
8
BLACK
6
CONTINUOUS
10
57.2662
20
-103.959
11
57.2662
21
-103.483
0
LINE
8
BLACK
6
CONTINUOUS
10
57.2662
20
-103.483
11
57.1709
21
-103.292
0
LINE
8
BLACK
6
CONTINUOUS
10
57.1709
20
-103.292
11
57.0757
21
-103.197
0
LINE
8
BLACK
6
CONTINUOUS
10
57.0757
20
-103.197
11
56.8852
21
-103.102
0
LINE
8
BLACK
6
CONTINUOUS
10
56.8852
20
-103.102
11
56.5043
21
-103.102
0
LINE
8
BLACK
6
CONTINUOUS
10
56.5043
20
-103.102
11
56.3138
21
-103.197
0
LINE
8
BLACK
6
CONTINUOUS
10
56.3138
20
-103.197
11
56.2186
21
-103.292
0
LINE
8
BLACK
6
CONTINUOUS
10
56.2186
20
-103.292
11
56.1233
21
-103.483
0
LINE
8
BLACK
6
CONTINUOUS
10
58.0281
20
-102.34
11
58.0281
21
-102.721
0
LINE
8
BLACK
6
CONTINUOUS
10
58.79
20
-102.34
11
58.79
21
-102.721
0
LINE
8
BLACK
6
CONTINUOUS
10
61.7424
20
-105.102
11
61.6471
21
-105.006
0
LINE
8
BLACK
6
CONTINUOUS
10
61.6471
20
-105.006
11
61.4567
21
-104.721
0
LINE
8
BLACK
6
CONTINUOUS
10
61.4567
20
-104.721
11
61.3614
21
-104.53
0
LINE
8
BLACK
6
CONTINUOUS
10
61.3614
20
-104.53
11
61.2662
21
-104.245
0
LINE
8
BLACK
6
CONTINUOUS
10
61.2662
20
-104.245
11
61.1709
21
-103.768
0
LINE
8
BLACK
6
CONTINUOUS
10
61.1709
20
-103.768
11
61.1709
21
-103.387
0
LINE
8
BLACK
6
CONTINUOUS
10
61.1709
20
-103.387
11
61.2662
21
-102.911
0
LINE
8
BLACK
6
CONTINUOUS
10
61.2662
20
-102.911
11
61.3614
21
-102.625
0
LINE
8
BLACK
6
CONTINUOUS
10
61.3614
20
-102.625
11
61.4567
21
-102.435
0
LINE
8
BLACK
6
CONTINUOUS
10
61.4567
20
-102.435
11
61.6471
21
-102.149
0
LINE
8
BLACK
6
CONTINUOUS
10
61.6471
20
-102.149
11
61.7424
21
-102.054
0
LINE
8
BLACK
6
CONTINUOUS
10
62.409
20
-102.53
11
62.5043
21
-102.435
0
LINE
8
BLACK
6
CONTINUOUS
10
62.5043
20
-102.435
11
62.6948
21
-102.34
0
LINE
8
BLACK
6
CONTINUOUS
10
62.6948
20
-102.34
11
63.1709
21
-102.34
0
LINE
8
BLACK
6
CONTINUOUS
10
63.1709
20
-102.34
11
63.3614
21
-102.435
0
LINE
8
BLACK
6
CONTINUOUS
10
63.3614
20
-102.435
11
63.4567
21
-102.53
0
LINE
8
BLACK
6
CONTINUOUS
10
63.4567
20
-102.53
11
63.5519
21
-102.721
0
LINE
8
BLACK
6
CONTINUOUS
10
63.5519
20
-102.721
11
63.5519
21
-102.911
0
LINE
8
BLACK
6
CONTINUOUS
10
63.5519
20
-102.911
11
63.4567
21
-103.197
0
LINE
8
BLACK
6
CONTINUOUS
10
63.4567
20
-103.197
11
62.3138
21
-104.34
0
LINE
8
BLACK
6
CONTINUOUS
10
62.3138
20
-104.34
11
63.5519
21
-104.34
0
LINE
8
BLACK
6
CONTINUOUS
10
65.9328
20
-104.34
11
65.9328
21
-102.34
0
LINE
8
BLACK
6
CONTINUOUS
10
66.79
20
-104.34
11
66.79
21
-103.292
0
LINE
8
BLACK
6
CONTINUOUS
10
66.79
20
-103.292
11
66.6948
21
-103.102
0
LINE
8
BLACK
6
CONTINUOUS
10
66.6948
20
-103.102
11
66.5043
21
-103.006
0
LINE
8
BLACK
6
CONTINUOUS
10
66.5043
20
-103.006
11
66.2186
21
-103.006
0
LINE
8
BLACK
6
CONTINUOUS
10
66.2186
20
-103.006
11
66.0281
21
-103.102
0
LINE
8
BLACK
6
CONTINUOUS
10
66.0281
20
-103.102
11
65.9328
21
-103.197
0
LINE
8
BLACK
6
CONTINUOUS
10
68.0281
20
-104.34
11
67.8376
21
-104.245
0
LINE
8
BLACK
6
CONTINUOUS
10
67.8376
20
-104.245
11
67.7424
21
-104.149
0
LINE
8
BLACK
6
CONTINUOUS
10
67.7424
20
-104.149
11
67.6471
21
-103.959
0
LINE
8
BLACK
6
CONTINUOUS
10
67.6471
20
-103.959
11
67.6471
21
-103.387
0
LINE
8
BLACK
6
CONTINUOUS
10
67.6471
20
-103.387
11
67.7424
21
-103.197
0
LINE
8
BLACK
6
CONTINUOUS
10
67.7424
20
-103.197
11
67.8376
21
-103.102
0
LINE
8
BLACK
6
CONTINUOUS
10
67.8376
20
-103.102
11
68.0281
21
-103.006
0
LINE
8
BLACK
6
CONTINUOUS
10
68.0281
20
-103.006
11
68.3138
21
-103.006
0
LINE
8
BLACK
6
CONTINUOUS
10
68.3138
20
-103.006
11
68.5043
21
-103.102
0
LINE
8
BLACK
6
CONTINUOUS
10
68.5043
20
-103.102
11
68.5995
21
-103.197
0
LINE
8
BLACK
6
CONTINUOUS
10
68.5995
20
-103.197
11
68.6948
21
-103.387
0
LINE
8
BLACK
6
CONTINUOUS
10
68.6948
20
-103.387
11
68.6948
21
-103.959
0
LINE
8
BLACK
6
CONTINUOUS
10
68.6948
20
-103.959
11
68.5995
21
-104.149
0
LINE
8
BLACK
6
CONTINUOUS
10
68.5995
20
-104.149
11
68.5043
21
-104.245
0
LINE
8
BLACK
6
CONTINUOUS
10
68.5043
20
-104.245
11
68.3138
21
-104.34
0
LINE
8
BLACK
6
CONTINUOUS
10
68.3138
20
-104.34
11
68.0281
21
-104.34
0
LINE
8
BLACK
6
CONTINUOUS
10
69.8376
20
-104.34
11
69.6471
21
-104.245
0
LINE
8
BLACK
6
CONTINUOUS
10
69.6471
20
-104.245
11
69.5519
21
-104.054
0
LINE
8
BLACK
6
CONTINUOUS
10
69.5519
20
-104.054
11
69.5519
21
-102.34
0
LINE
8
BLACK
6
CONTINUOUS
10
71.3614
20
-104.245
11
71.1709
21
-104.34
0
LINE
8
BLACK
6
CONTINUOUS
10
71.1709
20
-104.34
11
70.79
21
-104.34
0
LINE
8
BLACK
6
CONTINUOUS
10
70.79
20
-104.34
11
70.5995
21
-104.245
0
LINE
8
BLACK
6
CONTINUOUS
10
70.5995
20
-104.245
11
70.5043
21
-104.054
0
LINE
8
BLACK
6
CONTINUOUS
10
70.5043
20
-104.054
11
70.5043
21
-103.292
0
LINE
8
BLACK
6
CONTINUOUS
10
70.5043
20
-103.292
11
70.5995
21
-103.102
0
LINE
8
BLACK
6
CONTINUOUS
10
70.5995
20
-103.102
11
70.79
21
-103.006
0
LINE
8
BLACK
6
CONTINUOUS
10
70.79
20
-103.006
11
71.1709
21
-103.006
0
LINE
8
BLACK
6
CONTINUOUS
10
71.1709
20
-103.006
11
71.3614
21
-103.102
0
LINE
8
BLACK
6
CONTINUOUS
10
71.3614
20
-103.102
11
71.4567
21
-103.292
0
LINE
8
BLACK
6
CONTINUOUS
10
71.4567
20
-103.292
11
71.4567
21
-103.483
0
LINE
8
BLACK
6
CONTINUOUS
10
71.4567
20
-103.483
11
70.5043
21
-103.673
0
LINE
8
BLACK
6
CONTINUOUS
10
72.2186
20
-104.245
11
72.409
21
-104.34
0
LINE
8
BLACK
6
CONTINUOUS
10
72.409
20
-104.34
11
72.79
21
-104.34
0
LINE
8
BLACK
6
CONTINUOUS
10
72.79
20
-104.34
11
72.9805
21
-104.245
0
LINE
8
BLACK
6
CONTINUOUS
10
72.9805
20
-104.245
11
73.0757
21
-104.054
0
LINE
8
BLACK
6
CONTINUOUS
10
73.0757
20
-104.054
11
73.0757
21
-103.959
0
LINE
8
BLACK
6
CONTINUOUS
10
73.0757
20
-103.959
11
72.9805
21
-103.768
0
LINE
8
BLACK
6
CONTINUOUS
10
72.9805
20
-103.768
11
72.79
21
-103.673
0
LINE
8
BLACK
6
CONTINUOUS
10
72.79
20
-103.673
11
72.5043
21
-103.673
0
LINE
8
BLACK
6
CONTINUOUS
10
72.5043
20
-103.673
11
72.3138
21
-103.578
0
LINE
8
BLACK
6
CONTINUOUS
10
72.3138
20
-103.578
11
72.2186
21
-103.387
0
LINE
8
BLACK
6
CONTINUOUS
10
72.2186
20
-103.387
11
72.2186
21
-103.292
0
LINE
8
BLACK
6
CONTINUOUS
10
72.2186
20
-103.292
11
72.3138
21
-103.102
0
LINE
8
BLACK
6
CONTINUOUS
10
72.3138
20
-103.102
11
72.5043
21
-103.006
0
LINE
8
BLACK
6
CONTINUOUS
10
72.5043
20
-103.006
11
72.79
21
-103.006
0
LINE
8
BLACK
6
CONTINUOUS
10
72.79
20
-103.006
11
72.9805
21
-103.102
0
LINE
8
BLACK
6
CONTINUOUS
10
73.7424
20
-105.102
11
73.8376
21
-105.006
0
LINE
8
BLACK
6
CONTINUOUS
10
73.8376
20
-105.006
11
74.0281
21
-104.721
0
LINE
8
BLACK
6
CONTINUOUS
10
74.0281
20
-104.721
11
74.1233
21
-104.53
0
LINE
8
BLACK
6
CONTINUOUS
10
74.1233
20
-104.53
11
74.2186
21
-104.245
0
LINE
8
BLACK
6
CONTINUOUS
10
74.2186
20
-104.245
11
74.3138
21
-103.768
0
LINE
8
BLACK
6
CONTINUOUS
10
74.3138
20
-103.768
11
74.3138
21
-103.387
0
LINE
8
BLACK
6
CONTINUOUS
10
74.3138
20
-103.387
11
74.2186
21
-102.911
0
LINE
8
BLACK
6
CONTINUOUS
10
74.2186
20
-102.911
11
74.1233
21
-102.625
0
LINE
8
BLACK
6
CONTINUOUS
10
74.1233
20
-102.625
11
74.0281
21
-102.435
0
LINE
8
BLACK
6
CONTINUOUS
10
74.0281
20
-102.435
11
73.8376
21
-102.149
0
LINE
8
BLACK
6
CONTINUOUS
10
73.8376
20
-102.149
11
73.7424
21
-102.054
0
CIRCLE
8
BLACK
10
25.4283
20
-106.075
40
0.595
0
LINE
8
BLACK
6
CONTINUOUS
10
29.6471
20
-106.98
11
28.5043
21
-106.98
0
LINE
8
BLACK
6
CONTINUOUS
10
29.0757
20
-106.98
11
29.0757
21
-104.98
0
LINE
8
BLACK
6
CONTINUOUS
10
29.0757
20
-104.98
11
28.8852
21
-105.265
0
LINE
8
BLACK
6
CONTINUOUS
10
28.8852
20
-105.265
11
28.6948
21
-105.456
0
LINE
8
BLACK
6
CONTINUOUS
10
28.6948
20
-105.456
11
28.5043
21
-105.551
0
LINE
8
BLACK
6
CONTINUOUS
10
30.5043
20
-106.789
11
30.5995
21
-106.885
0
LINE
8
BLACK
6
CONTINUOUS
10
30.5995
20
-106.885
11
30.5043
21
-106.98
0
LINE
8
BLACK
6
CONTINUOUS
10
30.5043
20
-106.98
11
30.409
21
-106.885
0
LINE
8
BLACK
6
CONTINUOUS
10
30.409
20
-106.885
11
30.5043
21
-106.789
0
LINE
8
BLACK
6
CONTINUOUS
10
30.5043
20
-106.789
11
30.5043
21
-106.98
0
LINE
8
BLACK
6
CONTINUOUS
10
32.5043
20
-106.98
11
31.3614
21
-106.98
0
LINE
8
BLACK
6
CONTINUOUS
10
31.9328
20
-106.98
11
31.9328
21
-104.98
0
LINE
8
BLACK
6
CONTINUOUS
10
31.9328
20
-104.98
11
31.7424
21
-105.265
0
LINE
8
BLACK
6
CONTINUOUS
10
31.7424
20
-105.265
11
31.5519
21
-105.456
0
LINE
8
BLACK
6
CONTINUOUS
10
31.5519
20
-105.456
11
31.3614
21
-105.551
0
LINE
8
BLACK
6
CONTINUOUS
10
33.4567
20
-106.98
11
33.8376
21
-106.98
0
LINE
8
BLACK
6
CONTINUOUS
10
33.8376
20
-106.98
11
34.0281
21
-106.885
0
LINE
8
BLACK
6
CONTINUOUS
10
34.0281
20
-106.885
11
34.1233
21
-106.789
0
LINE
8
BLACK
6
CONTINUOUS
10
34.1233
20
-106.789
11
34.3138
21
-106.504
0
LINE
8
BLACK
6
CONTINUOUS
10
34.3138
20
-106.504
11
34.409
21
-106.123
0
LINE
8
BLACK
6
CONTINUOUS
10
34.409
20
-106.123
11
34.409
21
-105.361
0
LINE
8
BLACK
6
CONTINUOUS
10
34.409
20
-105.361
11
34.3138
21
-105.17
0
LINE
8
BLACK
6
CONTINUOUS
10
34.3138
20
-105.17
11
34.2186
21
-105.075
0
LINE
8
BLACK
6
CONTINUOUS
10
34.2186
20
-105.075
11
34.0281
21
-104.98
0
LINE
8
BLACK
6
CONTINUOUS
10
34.0281
20
-104.98
11
33.6471
21
-104.98
0
LINE
8
BLACK
6
CONTINUOUS
10
33.6471
20
-104.98
11
33.4567
21
-105.075
0
LINE
8
BLACK
6
CONTINUOUS
10
33.4567
20
-105.075
11
33.3614
21
-105.17
0
LINE
8
BLACK
6
CONTINUOUS
10
33.3614
20
-105.17
11
33.2662
21
-105.361
0
LINE
8
BLACK
6
CONTINUOUS
10
33.2662
20
-105.361
11
33.2662
21
-105.837
0
LINE
8
BLACK
6
CONTINUOUS
10
33.2662
20
-105.837
11
33.3614
21
-106.027
0
LINE
8
BLACK
6
CONTINUOUS
10
33.3614
20
-106.027
11
33.4567
21
-106.123
0
LINE
8
BLACK
6
CONTINUOUS
10
33.4567
20
-106.123
11
33.6471
21
-106.218
0
LINE
8
BLACK
6
CONTINUOUS
10
33.6471
20
-106.218
11
34.0281
21
-106.218
0
LINE
8
BLACK
6
CONTINUOUS
10
34.0281
20
-106.218
11
34.2186
21
-106.123
0
LINE
8
BLACK
6
CONTINUOUS
10
34.2186
20
-106.123
11
34.3138
21
-106.027
0
LINE
8
BLACK
6
CONTINUOUS
10
34.3138
20
-106.027
11
34.409
21
-105.837
0
LINE
8
BLACK
6
CONTINUOUS
10
35.6471
20
-104.98
11
35.8376
21
-104.98
0
LINE
8
BLACK
6
CONTINUOUS
10
35.8376
20
-104.98
11
36.0281
21
-105.075
0
LINE
8
BLACK
6
CONTINUOUS
10
36.0281
20
-105.075
11
36.1233
21
-105.17
0
LINE
8
BLACK
6
CONTINUOUS
10
36.1233
20
-105.17
11
36.2186
21
-105.361
0
LINE
8
BLACK
6
CONTINUOUS
10
36.2186
20
-105.361
11
36.3138
21
-105.742
0
LINE
8
BLACK
6
CONTINUOUS
10
36.3138
20
-105.742
11
36.3138
21
-106.218
0
LINE
8
BLACK
6
CONTINUOUS
10
36.3138
20
-106.218
11
36.2186
21
-106.599
0
LINE
8
BLACK
6
CONTINUOUS
10
36.2186
20
-106.599
11
36.1233
21
-106.789
0
LINE
8
BLACK
6
CONTINUOUS
10
36.1233
20
-106.789
11
36.0281
21
-106.885
0
LINE
8
BLACK
6
CONTINUOUS
10
36.0281
20
-106.885
11
35.8376
21
-106.98
0
LINE
8
BLACK
6
CONTINUOUS
10
35.8376
20
-106.98
11
35.6471
21
-106.98
0
LINE
8
BLACK
6
CONTINUOUS
10
35.6471
20
-106.98
11
35.4567
21
-106.885
0
LINE
8
BLACK
6
CONTINUOUS
10
35.4567
20
-106.885
11
35.3614
21
-106.789
0
LINE
8
BLACK
6
CONTINUOUS
10
35.3614
20
-106.789
11
35.2662
21
-106.599
0
LINE
8
BLACK
6
CONTINUOUS
10
35.2662
20
-106.599
11
35.1709
21
-106.218
0
LINE
8
BLACK
6
CONTINUOUS
10
35.1709
20
-106.218
11
35.1709
21
-105.742
0
LINE
8
BLACK
6
CONTINUOUS
10
35.1709
20
-105.742
11
35.2662
21
-105.361
0
LINE
8
BLACK
6
CONTINUOUS
10
35.2662
20
-105.361
11
35.3614
21
-105.17
0
LINE
8
BLACK
6
CONTINUOUS
10
35.3614
20
-105.17
11
35.4567
21
-105.075
0
LINE
8
BLACK
6
CONTINUOUS
10
35.4567
20
-105.075
11
35.6471
21
-104.98
0
LINE
8
BLACK
6
CONTINUOUS
10
37.1709
20
-106.98
11
37.1709
21
-105.646
0
LINE
8
BLACK
6
CONTINUOUS
10
37.1709
20
-105.837
11
37.2662
21
-105.742
0
LINE
8
BLACK
6
CONTINUOUS
10
37.2662
20
-105.742
11
37.4567
21
-105.646
0
LINE
8
BLACK
6
CONTINUOUS
10
37.4567
20
-105.646
11
37.7424
21
-105.646
0
LINE
8
BLACK
6
CONTINUOUS
10
37.7424
20
-105.646
11
37.9328
21
-105.742
0
LINE
8
BLACK
6
CONTINUOUS
10
37.9328
20
-105.742
11
38.0281
21
-105.932
0
LINE
8
BLACK
6
CONTINUOUS
10
38.0281
20
-105.932
11
38.0281
21
-106.98
0
LINE
8
BLACK
6
CONTINUOUS
10
38.0281
20
-105.932
11
38.1233
21
-105.742
0
LINE
8
BLACK
6
CONTINUOUS
10
38.1233
20
-105.742
11
38.3138
21
-105.646
0
LINE
8
BLACK
6
CONTINUOUS
10
38.3138
20
-105.646
11
38.5995
21
-105.646
0
LINE
8
BLACK
6
CONTINUOUS
10
38.5995
20
-105.646
11
38.79
21
-105.742
0
LINE
8
BLACK
6
CONTINUOUS
10
38.79
20
-105.742
11
38.8852
21
-105.932
0
LINE
8
BLACK
6
CONTINUOUS
10
38.8852
20
-105.932
11
38.8852
21
-106.98
0
LINE
8
BLACK
6
CONTINUOUS
10
39.8376
20
-106.98
11
39.8376
21
-105.646
0
LINE
8
BLACK
6
CONTINUOUS
10
39.8376
20
-105.837
11
39.9328
21
-105.742
0
LINE
8
BLACK
6
CONTINUOUS
10
39.9328
20
-105.742
11
40.1233
21
-105.646
0
LINE
8
BLACK
6
CONTINUOUS
10
40.1233
20
-105.646
11
40.409
21
-105.646
0
LINE
8
BLACK
6
CONTINUOUS
10
40.409
20
-105.646
11
40.5995
21
-105.742
0
LINE
8
BLACK
6
CONTINUOUS
10
40.5995
20
-105.742
11
40.6948
21
-105.932
0
LINE
8
BLACK
6
CONTINUOUS
10
40.6948
20
-105.932
11
40.6948
21
-106.98
0
LINE
8
BLACK
6
CONTINUOUS
10
40.6948
20
-105.932
11
40.79
21
-105.742
0
LINE
8
BLACK
6
CONTINUOUS
10
40.79
20
-105.742
11
40.9805
21
-105.646
0
LINE
8
BLACK
6
CONTINUOUS
10
40.9805
20
-105.646
11
41.2662
21
-105.646
0
LINE
8
BLACK
6
CONTINUOUS
10
41.2662
20
-105.646
11
41.4567
21
-105.742
0
LINE
8
BLACK
6
CONTINUOUS
10
41.4567
20
-105.742
11
41.5519
21
-105.932
0
LINE
8
BLACK
6
CONTINUOUS
10
41.5519
20
-105.932
11
41.5519
21
-106.98
0
LINE
8
BLACK
6
CONTINUOUS
10
45.4567
20
-104.885
11
43.7424
21
-107.456
0
LINE
8
BLACK
6
CONTINUOUS
10
48.0281
20
-104.98
11
48.2186
21
-104.98
0
LINE
8
BLACK
6
CONTINUOUS
10
48.2186
20
-104.98
11
48.409
21
-105.075
0
LINE
8
BLACK
6
CONTINUOUS
10
48.409
20
-105.075
11
48.5043
21
-105.17
0
LINE
8
BLACK
6
CONTINUOUS
10
48.5043
20
-105.17
11
48.5995
21
-105.361
0
LINE
8
BLACK
6
CONTINUOUS
10
48.5995
20
-105.361
11
48.6948
21
-105.742
0
LINE
8
BLACK
6
CONTINUOUS
10
48.6948
20
-105.742
11
48.6948
21
-106.218
0
LINE
8
BLACK
6
CONTINUOUS
10
48.6948
20
-106.218
11
48.5995
21
-106.599
0
LINE
8
BLACK
6
CONTINUOUS
10
48.5995
20
-106.599
11
48.5043
21
-106.789
0
LINE
8
BLACK
6
CONTINUOUS
10
48.5043
20
-106.789
11
48.409
21
-106.885
0
LINE
8
BLACK
6
CONTINUOUS
10
48.409
20
-106.885
11
48.2186
21
-106.98
0
LINE
8
BLACK
6
CONTINUOUS
10
48.2186
20
-106.98
11
48.0281
21
-106.98
0
LINE
8
BLACK
6
CONTINUOUS
10
48.0281
20
-106.98
11
47.8376
21
-106.885
0
LINE
8
BLACK
6
CONTINUOUS
10
47.8376
20
-106.885
11
47.7424
21
-106.789
0
LINE
8
BLACK
6
CONTINUOUS
10
47.7424
20
-106.789
11
47.6471
21
-106.599
0
LINE
8
BLACK
6
CONTINUOUS
10
47.6471
20
-106.599
11
47.5519
21
-106.218
0
LINE
8
BLACK
6
CONTINUOUS
10
47.5519
20
-106.218
11
47.5519
21
-105.742
0
LINE
8
BLACK
6
CONTINUOUS
10
47.5519
20
-105.742
11
47.6471
21
-105.361
0
LINE
8
BLACK
6
CONTINUOUS
10
47.6471
20
-105.361
11
47.7424
21
-105.17
0
LINE
8
BLACK
6
CONTINUOUS
10
47.7424
20
-105.17
11
47.8376
21
-105.075
0
LINE
8
BLACK
6
CONTINUOUS
10
47.8376
20
-105.075
11
48.0281
21
-104.98
0
LINE
8
BLACK
6
CONTINUOUS
10
49.5519
20
-106.789
11
49.6471
21
-106.885
0
LINE
8
BLACK
6
CONTINUOUS
10
49.6471
20
-106.885
11
49.5519
21
-106.98
0
LINE
8
BLACK
6
CONTINUOUS
10
49.5519
20
-106.98
11
49.4567
21
-106.885
0
LINE
8
BLACK
6
CONTINUOUS
10
49.4567
20
-106.885
11
49.5519
21
-106.789
0
LINE
8
BLACK
6
CONTINUOUS
10
49.5519
20
-106.789
11
49.5519
21
-106.98
0
LINE
8
BLACK
6
CONTINUOUS
10
50.8852
20
-104.98
11
51.0757
21
-104.98
0
LINE
8
BLACK
6
CONTINUOUS
10
51.0757
20
-104.98
11
51.2662
21
-105.075
0
LINE
8
BLACK
6
CONTINUOUS
10
51.2662
20
-105.075
11
51.3614
21
-105.17
0
LINE
8
BLACK
6
CONTINUOUS
10
51.3614
20
-105.17
11
51.4567
21
-105.361
0
LINE
8
BLACK
6
CONTINUOUS
10
51.4567
20
-105.361
11
51.5519
21
-105.742
0
LINE
8
BLACK
6
CONTINUOUS
10
51.5519
20
-105.742
11
51.5519
21
-106.218
0
LINE
8
BLACK
6
CONTINUOUS
10
51.5519
20
-106.218
11
51.4567
21
-106.599
0
LINE
8
BLACK
6
CONTINUOUS
10
51.4567
20
-106.599
11
51.3614
21
-106.789
0
LINE
8
BLACK
6
CONTINUOUS
10
51.3614
20
-106.789
11
51.2662
21
-106.885
0
LINE
8
BLACK
6
CONTINUOUS
10
51.2662
20
-106.885
11
51.0757
21
-106.98
0
LINE
8
BLACK
6
CONTINUOUS
10
51.0757
20
-106.98
11
50.8852
21
-106.98
0
LINE
8
BLACK
6
CONTINUOUS
10
50.8852
20
-106.98
11
50.6948
21
-106.885
0
LINE
8
BLACK
6
CONTINUOUS
10
50.6948
20
-106.885
11
50.5995
21
-106.789
0
LINE
8
BLACK
6
CONTINUOUS
10
50.5995
20
-106.789
11
50.5043
21
-106.599
0
LINE
8
BLACK
6
CONTINUOUS
10
50.5043
20
-106.599
11
50.409
21
-106.218
0
LINE
8
BLACK
6
CONTINUOUS
10
50.409
20
-106.218
11
50.409
21
-105.742
0
LINE
8
BLACK
6
CONTINUOUS
10
50.409
20
-105.742
11
50.5043
21
-105.361
0
LINE
8
BLACK
6
CONTINUOUS
10
50.5043
20
-105.361
11
50.5995
21
-105.17
0
LINE
8
BLACK
6
CONTINUOUS
10
50.5995
20
-105.17
11
50.6948
21
-105.075
0
LINE
8
BLACK
6
CONTINUOUS
10
50.6948
20
-105.075
11
50.8852
21
-104.98
0
LINE
8
BLACK
6
CONTINUOUS
10
53.2662
20
-105.646
11
53.2662
21
-106.98
0
LINE
8
BLACK
6
CONTINUOUS
10
52.79
20
-104.885
11
52.3138
21
-106.313
0
LINE
8
BLACK
6
CONTINUOUS
10
52.3138
20
-106.313
11
53.5519
21
-106.313
0
LINE
8
BLACK
6
CONTINUOUS
10
55.1709
20
-104.98
11
54.79
21
-104.98
0
LINE
8
BLACK
6
CONTINUOUS
10
54.79
20
-104.98
11
54.5995
21
-105.075
0
LINE
8
BLACK
6
CONTINUOUS
10
54.5995
20
-105.075
11
54.5043
21
-105.17
0
LINE
8
BLACK
6
CONTINUOUS
10
54.5043
20
-105.17
11
54.3138
21
-105.456
0
LINE
8
BLACK
6
CONTINUOUS
10
54.3138
20
-105.456
11
54.2186
21
-105.837
0
LINE
8
BLACK
6
CONTINUOUS
10
54.2186
20
-105.837
11
54.2186
21
-106.599
0
LINE
8
BLACK
6
CONTINUOUS
10
54.2186
20
-106.599
11
54.3138
21
-106.789
0
LINE
8
BLACK
6
CONTINUOUS
10
54.3138
20
-106.789
11
54.409
21
-106.885
0
LINE
8
BLACK
6
CONTINUOUS
10
54.409
20
-106.885
11
54.5995
21
-106.98
0
LINE
8
BLACK
6
CONTINUOUS
10
54.5995
20
-106.98
11
54.9805
21
-106.98
0
LINE
8
BLACK
6
CONTINUOUS
10
54.9805
20
-106.98
11
55.1709
21
-106.885
0
LINE
8
BLACK
6
CONTINUOUS
10
55.1709
20
-106.885
11
55.2662
21
-106.789
0
LINE
8
BLACK
6
CONTINUOUS
10
55.2662
20
-106.789
11
55.3614
21
-106.599
0
LINE
8
BLACK
6
CONTINUOUS
10
55.3614
20
-106.599
11
55.3614
21
-106.123
0
LINE
8
BLACK
6
CONTINUOUS
10
55.3614
20
-106.123
11
55.2662
21
-105.932
0
LINE
8
BLACK
6
CONTINUOUS
10
55.2662
20
-105.932
11
55.1709
21
-105.837
0
LINE
8
BLACK
6
CONTINUOUS
10
55.1709
20
-105.837
11
54.9805
21
-105.742
0
LINE
8
BLACK
6
CONTINUOUS
10
54.9805
20
-105.742
11
54.5995
21
-105.742
0
LINE
8
BLACK
6
CONTINUOUS
10
54.5995
20
-105.742
11
54.409
21
-105.837
0
LINE
8
BLACK
6
CONTINUOUS
10
54.409
20
-105.837
11
54.3138
21
-105.932
0
LINE
8
BLACK
6
CONTINUOUS
10
54.3138
20
-105.932
11
54.2186
21
-106.123
0
LINE
8
BLACK
6
CONTINUOUS
10
56.3138
20
-106.98
11
56.6948
21
-106.98
0
LINE
8
BLACK
6
CONTINUOUS
10
56.6948
20
-106.98
11
56.8852
21
-106.885
0
LINE
8
BLACK
6
CONTINUOUS
10
56.8852
20
-106.885
11
56.9805
21
-106.789
0
LINE
8
BLACK
6
CONTINUOUS
10
56.9805
20
-106.789
11
57.1709
21
-106.504
0
LINE
8
BLACK
6
CONTINUOUS
10
57.1709
20
-106.504
11
57.2662
21
-106.123
0
LINE
8
BLACK
6
CONTINUOUS
10
57.2662
20
-106.123
11
57.2662
21
-105.361
0
LINE
8
BLACK
6
CONTINUOUS
10
57.2662
20
-105.361
11
57.1709
21
-105.17
0
LINE
8
BLACK
6
CONTINUOUS
10
57.1709
20
-105.17
11
57.0757
21
-105.075
0
LINE
8
BLACK
6
CONTINUOUS
10
57.0757
20
-105.075
11
56.8852
21
-104.98
0
LINE
8
BLACK
6
CONTINUOUS
10
56.8852
20
-104.98
11
56.5043
21
-104.98
0
LINE
8
BLACK
6
CONTINUOUS
10
56.5043
20
-104.98
11
56.3138
21
-105.075
0
LINE
8
BLACK
6
CONTINUOUS
10
56.3138
20
-105.075
11
56.2186
21
-105.17
0
LINE
8
BLACK
6
CONTINUOUS
10
56.2186
20
-105.17
11
56.1233
21
-105.361
0
LINE
8
BLACK
6
CONTINUOUS
10
56.1233
20
-105.361
11
56.1233
21
-105.837
0
LINE
8
BLACK
6
CONTINUOUS
10
56.1233
20
-105.837
11
56.2186
21
-106.027
0
LINE
8
BLACK
6
CONTINUOUS
10
56.2186
20
-106.027
11
56.3138
21
-106.123
0
LINE
8
BLACK
6
CONTINUOUS
10
56.3138
20
-106.123
11
56.5043
21
-106.218
0
LINE
8
BLACK
6
CONTINUOUS
10
56.5043
20
-106.218
11
56.8852
21
-106.218
0
LINE
8
BLACK
6
CONTINUOUS
10
56.8852
20
-106.218
11
57.0757
21
-106.123
0
LINE
8
BLACK
6
CONTINUOUS
10
57.0757
20
-106.123
11
57.1709
21
-106.027
0
LINE
8
BLACK
6
CONTINUOUS
10
57.1709
20
-106.027
11
57.2662
21
-105.837
0
LINE
8
BLACK
6
CONTINUOUS
10
58.0281
20
-104.98
11
58.0281
21
-105.361
0
LINE
8
BLACK
6
CONTINUOUS
10
58.79
20
-104.98
11
58.79
21
-105.361
0
LINE
8
BLACK
6
CONTINUOUS
10
61.7424
20
-107.742
11
61.6471
21
-107.646
0
LINE
8
BLACK
6
CONTINUOUS
10
61.6471
20
-107.646
11
61.4567
21
-107.361
0
LINE
8
BLACK
6
CONTINUOUS
10
61.4567
20
-107.361
11
61.3614
21
-107.17
0
LINE
8
BLACK
6
CONTINUOUS
10
61.3614
20
-107.17
11
61.2662
21
-106.885
0
LINE
8
BLACK
6
CONTINUOUS
10
61.2662
20
-106.885
11
61.1709
21
-106.408
0
LINE
8
BLACK
6
CONTINUOUS
10
61.1709
20
-106.408
11
61.1709
21
-106.027
0
LINE
8
BLACK
6
CONTINUOUS
10
61.1709
20
-106.027
11
61.2662
21
-105.551
0
LINE
8
BLACK
6
CONTINUOUS
10
61.2662
20
-105.551
11
61.3614
21
-105.265
0
LINE
8
BLACK
6
CONTINUOUS
10
61.3614
20
-105.265
11
61.4567
21
-105.075
0
LINE
8
BLACK
6
CONTINUOUS
10
61.4567
20
-105.075
11
61.6471
21
-104.789
0
LINE
8
BLACK
6
CONTINUOUS
10
61.6471
20
-104.789
11
61.7424
21
-104.694
0
LINE
8
BLACK
6
CONTINUOUS
10
62.3138
20
-104.98
11
63.5519
21
-104.98
0
LINE
8
BLACK
6
CONTINUOUS
10
63.5519
20
-104.98
11
62.8852
21
-105.742
0
LINE
8
BLACK
6
CONTINUOUS
10
62.8852
20
-105.742
11
63.1709
21
-105.742
0
LINE
8
BLACK
6
CONTINUOUS
10
63.1709
20
-105.742
11
63.3614
21
-105.837
0
LINE
8
BLACK
6
CONTINUOUS
10
63.3614
20
-105.837
11
63.4567
21
-105.932
0
LINE
8
BLACK
6
CONTINUOUS
10
63.4567
20
-105.932
11
63.5519
21
-106.123
0
LINE
8
BLACK
6
CONTINUOUS
10
63.5519
20
-106.123
11
63.5519
21
-106.599
0
LINE
8
BLACK
6
CONTINUOUS
10
63.5519
20
-106.599
11
63.4567
21
-106.789
0
LINE
8
BLACK
6
CONTINUOUS
10
63.4567
20
-106.789
11
63.3614
21
-106.885
0
LINE
8
BLACK
6
CONTINUOUS
10
63.3614
20
-106.885
11
63.1709
21
-106.98
0
LINE
8
BLACK
6
CONTINUOUS
10
63.1709
20
-106.98
11
62.5995
21
-106.98
0
LINE
8
BLACK
6
CONTINUOUS
10
62.5995
20
-106.98
11
62.409
21
-106.885
0
LINE
8
BLACK
6
CONTINUOUS
10
62.409
20
-106.885
11
62.3138
21
-106.789
0
LINE
8
BLACK
6
CONTINUOUS
10
65.3614
20
-104.98
11
64.409
21
-104.98
0
LINE
8
BLACK
6
CONTINUOUS
10
64.409
20
-104.98
11
64.3138
21
-105.932
0
LINE
8
BLACK
6
CONTINUOUS
10
64.3138
20
-105.932
11
64.409
21
-105.837
0
LINE
8
BLACK
6
CONTINUOUS
10
64.409
20
-105.837
11
64.5995
21
-105.742
0
LINE
8
BLACK
6
CONTINUOUS
10
64.5995
20
-105.742
11
65.0757
21
-105.742
0
LINE
8
BLACK
6
CONTINUOUS
10
65.0757
20
-105.742
11
65.2662
21
-105.837
0
LINE
8
BLACK
6
CONTINUOUS
10
65.2662
20
-105.837
11
65.3614
21
-105.932
0
LINE
8
BLACK
6
CONTINUOUS
10
65.3614
20
-105.932
11
65.4567
21
-106.123
0
LINE
8
BLACK
6
CONTINUOUS
10
65.4567
20
-106.123
11
65.4567
21
-106.599
0
LINE
8
BLACK
6
CONTINUOUS
10
65.4567
20
-106.599
11
65.3614
21
-106.789
0
LINE
8
BLACK
6
CONTINUOUS
10
65.3614
20
-106.789
11
65.2662
21
-106.885
0
LINE
8
BLACK
6
CONTINUOUS
10
65.2662
20
-106.885
11
65.0757
21
-106.98
0
LINE
8
BLACK
6
CONTINUOUS
10
65.0757
20
-106.98
11
64.5995
21
-106.98
0
LINE
8
BLACK
6
CONTINUOUS
10
64.5995
20
-106.98
11
64.409
21
-106.885
0
LINE
8
BLACK
6
CONTINUOUS
10
64.409
20
-106.885
11
64.3138
21
-106.789
0
LINE
8
BLACK
6
CONTINUOUS
10
67.8376
20
-106.98
11
67.8376
21
-104.98
0
LINE
8
BLACK
6
CONTINUOUS
10
68.6948
20
-106.98
11
68.6948
21
-105.932
0
LINE
8
BLACK
6
CONTINUOUS
10
68.6948
20
-105.932
11
68.5995
21
-105.742
0
LINE
8
BLACK
6
CONTINUOUS
10
68.5995
20
-105.742
11
68.409
21
-105.646
0
LINE
8
BLACK
6
CONTINUOUS
10
68.409
20
-105.646
11
68.1233
21
-105.646
0
LINE
8
BLACK
6
CONTINUOUS
10
68.1233
20
-105.646
11
67.9328
21
-105.742
0
LINE
8
BLACK
6
CONTINUOUS
10
67.9328
20
-105.742
11
67.8376
21
-105.837
0
LINE
8
BLACK
6
CONTINUOUS
10
69.9328
20
-106.98
11
69.7424
21
-106.885
0
LINE
8
BLACK
6
CONTINUOUS
10
69.7424
20
-106.885
11
69.6471
21
-106.789
0
LINE
8
BLACK
6
CONTINUOUS
10
69.6471
20
-106.789
11
69.5519
21
-106.599
0
LINE
8
BLACK
6
CONTINUOUS
10
69.5519
20
-106.599
11
69.5519
21
-106.027
0
LINE
8
BLACK
6
CONTINUOUS
10
69.5519
20
-106.027
11
69.6471
21
-105.837
0
LINE
8
BLACK
6
CONTINUOUS
10
69.6471
20
-105.837
11
69.7424
21
-105.742
0
LINE
8
BLACK
6
CONTINUOUS
10
69.7424
20
-105.742
11
69.9328
21
-105.646
0
LINE
8
BLACK
6
CONTINUOUS
10
69.9328
20
-105.646
11
70.2186
21
-105.646
0
LINE
8
BLACK
6
CONTINUOUS
10
70.2186
20
-105.646
11
70.409
21
-105.742
0
LINE
8
BLACK
6
CONTINUOUS
10
70.409
20
-105.742
11
70.5043
21
-105.837
0
LINE
8
BLACK
6
CONTINUOUS
10
70.5043
20
-105.837
11
70.5995
21
-106.027
0
LINE
8
BLACK
6
CONTINUOUS
10
70.5995
20
-106.027
11
70.5995
21
-106.599
0
LINE
8
BLACK
6
CONTINUOUS
10
70.5995
20
-106.599
11
70.5043
21
-106.789
0
LINE
8
BLACK
6
CONTINUOUS
10
70.5043
20
-106.789
11
70.409
21
-106.885
0
LINE
8
BLACK
6
CONTINUOUS
10
70.409
20
-106.885
11
70.2186
21
-106.98
0
LINE
8
BLACK
6
CONTINUOUS
10
70.2186
20
-106.98
11
69.9328
21
-106.98
0
LINE
8
BLACK
6
CONTINUOUS
10
71.7424
20
-106.98
11
71.5519
21
-106.885
0
LINE
8
BLACK
6
CONTINUOUS
10
71.5519
20
-106.885
11
71.4567
21
-106.694
0
LINE
8
BLACK
6
CONTINUOUS
10
71.4567
20
-106.694
11
71.4567
21
-104.98
0
LINE
8
BLACK
6
CONTINUOUS
10
73.2662
20
-106.885
11
73.0757
21
-106.98
0
LINE
8
BLACK
6
CONTINUOUS
10
73.0757
20
-106.98
11
72.6948
21
-106.98
0
LINE
8
BLACK
6
CONTINUOUS
10
72.6948
20
-106.98
11
72.5043
21
-106.885
0
LINE
8
BLACK
6
CONTINUOUS
10
72.5043
20
-106.885
11
72.409
21
-106.694
0
LINE
8
BLACK
6
CONTINUOUS
10
72.409
20
-106.694
11
72.409
21
-105.932
0
LINE
8
BLACK
6
CONTINUOUS
10
72.409
20
-105.932
11
72.5043
21
-105.742
0
LINE
8
BLACK
6
CONTINUOUS
10
72.5043
20
-105.742
11
72.6948
21
-105.646
0
LINE
8
BLACK
6
CONTINUOUS
10
72.6948
20
-105.646
11
73.0757
21
-105.646
0
LINE
8
BLACK
6
CONTINUOUS
10
73.0757
20
-105.646
11
73.2662
21
-105.742
0
LINE
8
BLACK
6
CONTINUOUS
10
73.2662
20
-105.742
11
73.3614
21
-105.932
0
LINE
8
BLACK
6
CONTINUOUS
10
73.3614
20
-105.932
11
73.3614
21
-106.123
0
LINE
8
BLACK
6
CONTINUOUS
10
73.3614
20
-106.123
11
72.409
21
-106.313
0
LINE
8
BLACK
6
CONTINUOUS
10
74.1233
20
-106.885
11
74.3138
21
-106.98
0
LINE
8
BLACK
6
CONTINUOUS
10
74.3138
20
-106.98
11
74.6948
21
-106.98
0
LINE
8
BLACK
6
CONTINUOUS
10
74.6948
20
-106.98
11
74.8852
21
-106.885
0
LINE
8
BLACK
6
CONTINUOUS
10
74.8852
20
-106.885
11
74.9805
21
-106.694
0
LINE
8
BLACK
6
CONTINUOUS
10
74.9805
20
-106.694
11
74.9805
21
-106.599
0
LINE
8
BLACK
6
CONTINUOUS
10
74.9805
20
-106.599
11
74.8852
21
-106.408
0
LINE
8
BLACK
6
CONTINUOUS
10
74.8852
20
-106.408
11
74.6948
21
-106.313
0
LINE
8
BLACK
6
CONTINUOUS
10
74.6948
20
-106.313
11
74.409
21
-106.313
0
LINE
8
BLACK
6
CONTINUOUS
10
74.409
20
-106.313
11
74.2186
21
-106.218
0
LINE
8
BLACK
6
CONTINUOUS
10
74.2186
20
-106.218
11
74.1233
21
-106.027
0
LINE
8
BLACK
6
CONTINUOUS
10
74.1233
20
-106.027
11
74.1233
21
-105.932
0
LINE
8
BLACK
6
CONTINUOUS
10
74.1233
20
-105.932
11
74.2186
21
-105.742
0
LINE
8
BLACK
6
CONTINUOUS
10
74.2186
20
-105.742
11
74.409
21
-105.646
0
LINE
8
BLACK
6
CONTINUOUS
10
74.409
20
-105.646
11
74.6948
21
-105.646
0
LINE
8
BLACK
6
CONTINUOUS
10
74.6948
20
-105.646
11
74.8852
21
-105.742
0
LINE
8
BLACK
6
CONTINUOUS
10
75.6471
20
-107.742
11
75.7424
21
-107.646
0
LINE
8
BLACK
6
CONTINUOUS
10
75.7424
20
-107.646
11
75.9328
21
-107.361
0
LINE
8
BLACK
6
CONTINUOUS
10
75.9328
20
-107.361
11
76.0281
21
-107.17
0
LINE
8
BLACK
6
CONTINUOUS
10
76.0281
20
-107.17
11
76.1233
21
-106.885
0
LINE
8
BLACK
6
CONTINUOUS
10
76.1233
20
-106.885
11
76.2186
21
-106.408
0
LINE
8
BLACK
6
CONTINUOUS
10
76.2186
20
-106.408
11
76.2186
21
-106.027
0
LINE
8
BLACK
6
CONTINUOUS
10
76.2186
20
-106.027
11
76.1233
21
-105.551
0
LINE
8
BLACK
6
CONTINUOUS
10
76.1233
20
-105.551
11
76.0281
21
-105.265
0
LINE
8
BLACK
6
CONTINUOUS
10
76.0281
20
-105.265
11
75.9328
21
-105.075
0
LINE
8
BLACK
6
CONTINUOUS
10
75.9328
20
-105.075
11
75.7424
21
-104.789
0
LINE
8
BLACK
6
CONTINUOUS
10
75.7424
20
-104.789
11
75.6471
21
-104.694
  0
ENDSEC
  0
EOF
