M48
INCH
T01C0.0191
T02C0.0236
T03C0.028
T04C0.0354
T05C0.0394
T06C0.046
T07C0.046
%
T01
X+020450Y+030690
X+020845Y+031190
X+021634Y+032190
X+022029Y+031690
X+021240Y+032690
X+021747Y+035690
X+021353Y+036190
X+018170Y+036190
X+028468Y+039845
X+032825Y+036760
X+034940Y+038295
X+035440Y+033690
X+034440Y+033190
X+026585Y+010940
X+020565Y+010940
T02
X+005940Y+017440
X+005940Y+016940
X+006440Y+016940
X+006440Y+017440
X+006440Y+016440
X+005940Y+016440
X+005940Y+015940
X+005940Y+015440
X+006440Y+015440
X+006440Y+015940
X+006440Y+014940
X+005940Y+014940
X+005940Y+014440
X+006440Y+014440
X+006440Y+013940
X+005940Y+013940
X+005940Y+013440
X+006440Y+013440
X+006440Y+012940
X+005940Y+012940
X+005940Y+012440
X+006440Y+012440
X+006440Y+011940
X+005940Y+011940
X+005940Y+011440
X+006440Y+011440
X+006440Y+010940
X+006440Y+010440
X+005940Y+010440
X+005940Y+010940
X+005940Y+009940
X+006440Y+009940
X+006440Y+009440
X+005940Y+009440
X+005940Y+008940
X+006440Y+008940
T03
X+017440Y+041440
X+016440Y+041440
T04
X+023440Y+042440
X+022940Y+038940
X+018940Y+038940
X+019440Y+042440
X+013440Y+042440
X+012440Y+042440
X+013440Y+036440
X+013440Y+035440
X+013440Y+034440
X+013440Y+033440
X+013440Y+032440
X+013440Y+031440
X+013440Y+030440
X+013440Y+029440
X+013940Y+027440
X+012940Y+027440
X+011940Y+027440
X+016440Y+029440
X+016440Y+030440
X+016440Y+031440
X+016440Y+032440
X+016440Y+033440
X+016440Y+034440
X+016440Y+035440
X+016440Y+036440
X+019940Y+027940
X+023940Y+027940
X+025440Y+023440
X+025440Y+022440
X+025440Y+021440
X+025440Y+020440
X+025440Y+019440
X+025440Y+018440
X+025440Y+017440
X+025440Y+016440
X+025440Y+014440
X+025440Y+013440
X+025440Y+012440
X+025440Y+011440
X+025440Y+010440
X+025440Y+009440
X+025440Y+008440
X+025440Y+007440
X+027940Y+007940
X+027940Y+006940
X+027940Y+005940
X+027940Y+008940
X+027940Y+009940
X+027940Y+010940
X+027940Y+011940
X+027940Y+012940
X+027940Y+014940
X+027940Y+015940
X+027940Y+016940
X+027940Y+017940
X+027940Y+018940
X+027940Y+019940
X+027940Y+020940
X+027940Y+021940
X+030940Y+022440
X+030940Y+021440
X+030940Y+020440
X+030940Y+019440
X+030940Y+018440
X+030940Y+017440
X+030940Y+016440
X+030940Y+014440
X+030940Y+013440
X+030940Y+012440
X+030940Y+011440
X+030940Y+010440
X+030940Y+009440
X+030940Y+008440
X+030940Y+007440
X+033940Y+007940
X+033940Y+006940
X+033940Y+005940
X+033940Y+008940
X+033940Y+009940
X+033940Y+010940
X+033940Y+011940
X+033940Y+012940
X+033940Y+014940
X+033940Y+015940
X+033940Y+016940
X+033940Y+017940
X+033940Y+018940
X+033940Y+019940
X+033940Y+020940
X+033940Y+021940
X+030940Y+023440
X+037440Y+023440
X+037440Y+022440
X+037440Y+021440
X+037440Y+020440
X+037440Y+019440
X+037440Y+018440
X+037440Y+017440
X+037440Y+016440
X+037440Y+014440
X+037440Y+013440
X+037440Y+012440
X+037440Y+011440
X+037440Y+010440
X+037440Y+009440
X+037440Y+008440
X+037440Y+007440
X+040440Y+007940
X+040440Y+006940
X+040440Y+005940
X+040440Y+008940
X+040440Y+009940
X+040440Y+010940
X+040440Y+011940
X+040440Y+012940
X+040440Y+014940
X+040440Y+015940
X+040440Y+016940
X+040440Y+017940
X+040440Y+018940
X+040440Y+019940
X+040440Y+020940
X+040440Y+021940
X+039440Y+029440
X+038440Y+029440
X+037440Y+029440
X+036440Y+029440
X+035440Y+029440
X+034440Y+029440
X+034440Y+032440
X+035440Y+032440
X+036440Y+032440
X+037440Y+032440
X+038440Y+032440
X+039440Y+032440
X+039440Y+036440
X+038440Y+036440
X+037440Y+036440
X+036440Y+036440
X+035440Y+036440
X+034440Y+036440
X+034940Y+040440
X+033940Y+040440
X+035940Y+040440
X+036940Y+040440
X+037940Y+040440
X+038940Y+040440
X+029440Y+042940
X+028440Y+042940
X+019940Y+022940
X+018940Y+022940
X+018940Y+021940
X+018940Y+020940
X+019940Y+020940
X+019940Y+021940
X+019940Y+019940
X+019940Y+018940
X+019940Y+017940
X+019940Y+016940
X+018940Y+016940
X+018940Y+015940
X+018940Y+014940
X+019940Y+014940
X+019940Y+015940
X+019940Y+013940
X+019940Y+012940
X+019940Y+011940
X+019940Y+010940
X+018940Y+010940
X+018940Y+009940
X+018940Y+008940
X+018940Y+007940
X+019940Y+007940
X+019940Y+008940
X+019940Y+009940
X+018940Y+011940
X+018940Y+012940
X+018940Y+013940
X+016440Y+015440
X+016440Y+016440
X+018940Y+017940
X+018940Y+018940
X+018940Y+019940
X+012440Y+016940
X+012440Y+015940
X+012440Y+014940
X+012440Y+013940
X+012440Y+012940
X+009940Y+012940
X+009940Y+013940
X+009940Y+014940
X+009940Y+015940
X+009940Y+016940
X+008440Y+012940
X+008440Y+011940
X+008440Y+010940
X+008440Y+009940
X+008440Y+008940
X+018940Y+006940
X+019940Y+006940
X+019940Y+005940
X+018940Y+005940
T05
X+009940Y+042940
X+010440Y+026940
X+039940Y+026940
X+039940Y+043440
T06
X+025940Y+040440
X+025940Y+037440
X+025940Y+034940
X+025940Y+030940
X+009940Y+038940
T07
X+031940Y+040440
X+031940Y+037440
X+031940Y+034940
X+031940Y+030940
X+015940Y+038940
T00
M30
