  0
SECTION
  2
HEADER
  9
$ANGBASE
  50
0.0
  9
$ANGDIR
  70
1
  9
$MEASUREMENT
  70
1
  0
ENDSEC
  0
SECTION
  2
TABLES
  0
TABLE
  2
LTYPE
  70
4
  0
LTYPE
  5
40F
  2
CONTINUOUS
  70
0
  3
Solid line
  72
65
  73
0
  40
0.0
  0
LTYPE
  5
410
  2
DASHDOT
 70
0
  3
Dash Dot ____ _ ____ _
 72
65
 73
4
 40
2.0
 49
1.25
 49
-0.25
 49
0.25
 49
-0.25
  0
LTYPE
  5
411
  2
DASHED
 70
0
  3
Dashed __ __ __ __ __
 72
65
 73
2
 40
0.75
 49
0.5
 49
-0.25
  0
LTYPE
  5
43B
  2
DOTTED
 70
0
  3
Dotted .  .  .  .
 72
65
 73
2
 40
0.2
 49
0.0
 49
-0.2
  0
ENDTAB
  0
TABLE
  2
STYLE
  70
4
  0
STYLE
  2
KICAD
  70
0
  40
0
  41
1
  42
1
  50
0
  71
0
  3
isocp.shx
  0
STYLE
  2
KICADB
  70
0
  40
0
  41
1
  42
1
  50
0
  71
0
  3
isocp.shx
  0
STYLE
  2
KICADI
  70
0
  40
0
  41
1
  42
1
  50
15
  71
0
  3
isocp.shx
  0
STYLE
  2
KICADBI
  70
0
  40
0
  41
1
  42
1
  50
15
  71
0
  3
isocp.shx
  0
ENDTAB
  0
TABLE
  2
LAYER
  70
1
  0
LAYER
  2
BLACK
  70
0
  62
7
  6
CONTINUOUS
  0
ENDTAB
  0
ENDSEC
  0
SECTION
  2
ENTITIES
0
LINE
8
BLACK
6
CONTINUOUS
10
137.5499999999999829
20
-91.2000000000000028
11
133.5499999999999829
21
-91.2000000000000028
0
LINE
8
BLACK
6
CONTINUOUS
10
159.4150349999999889
20
-96.692032999999995
11
159.5032609999999806
21
-90.7928959999999989
0
ARC
8
BLACK
10
120.0557009999999991
20
-87.6692159999999916
40
4.1275018831507984
50
-264.99974108
51
-87.71679783
0
LINE
8
BLACK
6
CONTINUOUS
10
146.5499999999999829
20
-98.1999999999999886
11
142.5499999999999829
21
-98.1999999999999886
0
LINE
8
BLACK
6
CONTINUOUS
10
165.8635929999999803
20
-79.4504719999999907
11
158.6076730000000055
21
-80.0852819999999923
0
LINE
8
BLACK
6
CONTINUOUS
10
152.5499999999999829
20
-79.7000000000000028
11
148.5499999999999829
21
-79.7000000000000028
0
CIRCLE
8
BLACK
10
166.2233279999999809
20
-83.5622649999999965
40
2.15265
0
LINE
8
BLACK
6
CONTINUOUS
10
161.032213999999982
20
-89.1951959999999957
11
166.1075979999999959
21
-87.6881429999999966
0
LINE
8
BLACK
6
CONTINUOUS
10
137.0499999999999829
20
-80.7000000000000028
11
133.0499999999999829
21
-80.7000000000000028
0
LINE
8
BLACK
6
CONTINUOUS
10
140.5499999999999829
20
-75.2000000000000028
11
144.5499999999999829
21
-75.2000000000000028
0
ARC
8
BLACK
10
143.118758999999983
20
-85.5651829999999904
40
16.4120966224962075
50
59.75814183
51
75.95820264
0
CIRCLE
8
BLACK
10
143.1775570000000073
20
-85.4620529999999974
40
2.2999999999999998
0
LINE
8
BLACK
6
CONTINUOUS
10
144.5499999999999829
20
-79.7000000000000028
11
140.5499999999999829
21
-79.7000000000000028
0
LINE
8
BLACK
6
CONTINUOUS
10
133.0499999999999829
20
-80.7000000000000028
11
133.0499999999999829
21
-76.2000000000000028
0
ARC
8
BLACK
10
143.6525069999999857
20
-91.5733919999999983
40
15.3339663825974331
50
-62.26812759
51
-24.16812844
0
LINE
8
BLACK
6
CONTINUOUS
10
146.5499999999999829
20
-93.7000000000000028
11
146.5499999999999829
21
-98.1999999999999886
0
LINE
8
BLACK
6
CONTINUOUS
10
120.220136999999994
20
-92.8125890000000027
11
120.1901539999999926
21
-106.1810589999999905
0
LINE
8
BLACK
6
CONTINUOUS
10
126.9518199999999979
20
-82.9226159999999908
11
119.6959469999999897
21
-83.557423
0
ARC
8
BLACK
10
158.1366009999999847
20
-96.6729969999999952
40
1.2785747659598456
50
-87.15782622
51
-0.85303238
0
LINE
8
BLACK
6
CONTINUOUS
10
149.5499999999999829
20
-85.7000000000000028
11
153.5499999999999829
21
-85.7000000000000028
0
LINE
8
BLACK
6
CONTINUOUS
10
120.2201359999999966
20
-91.7934399999999897
11
120.220136999999994
21
-92.8125890000000027
0
LINE
8
BLACK
6
CONTINUOUS
10
140.5499999999999829
20
-79.7000000000000028
11
140.5499999999999829
21
-75.2000000000000028
0
LINE
8
BLACK
6
CONTINUOUS
10
120.1901539999999926
20
-106.1810589999999905
11
138.957398999999981
21
-106.1810589999999905
0
CIRCLE
8
BLACK
10
151.4173600000000022
20
-82.2316139999999933
40
1.5
0
LINE
8
BLACK
6
CONTINUOUS
10
152.5499999999999829
20
-75.2000000000000028
11
152.5499999999999829
21
-79.7000000000000028
0
CIRCLE
8
BLACK
10
120.0556839999999994
20
-87.6692180000000008
40
2.15265
0
CIRCLE
8
BLACK
10
143.5700170000000071
20
-90.7744610000000023
40
1.0436269999999999
0
LINE
8
BLACK
6
CONTINUOUS
10
148.5499999999999829
20
-75.2000000000000028
11
152.5499999999999829
21
-75.2000000000000028
0
LINE
8
BLACK
6
CONTINUOUS
10
133.0499999999999829
20
-76.2000000000000028
11
137.0499999999999829
21
-76.2000000000000028
0
LINE
8
BLACK
6
CONTINUOUS
10
133.5499999999999829
20
-86.7000000000000028
11
137.5499999999999829
21
-86.7000000000000028
0
CIRCLE
8
BLACK
10
157.1491189999999847
20
-90.2626179999999891
40
0.8999999999999999
0
LINE
8
BLACK
6
CONTINUOUS
10
153.5499999999999829
20
-90.2000000000000028
11
149.5499999999999829
21
-90.2000000000000028
0
CIRCLE
8
BLACK
10
144.6374150000000043
20
-102.1483139999999992
40
1.5
0
LINE
8
BLACK
6
CONTINUOUS
10
142.5499999999999829
20
-98.1999999999999886
11
142.5499999999999829
21
-93.7000000000000028
0
LINE
8
BLACK
6
CONTINUOUS
10
144.5499999999999829
20
-75.2000000000000028
11
144.5499999999999829
21
-79.7000000000000028
0
CIRCLE
8
BLACK
10
130.251862999999986
20
-92.6158229999999918
40
0.8999999999999999
0
LINE
8
BLACK
6
CONTINUOUS
10
142.5499999999999829
20
-93.7000000000000028
11
146.5499999999999829
21
-93.7000000000000028
0
LINE
8
BLACK
6
CONTINUOUS
10
137.0499999999999829
20
-76.2000000000000028
11
137.0499999999999829
21
-80.7000000000000028
0
CIRCLE
8
BLACK
10
134.5028460000000052
20
-83.7214799999999997
40
1.5
0
ARC
8
BLACK
10
166.2233289999999784
20
-83.5622649999999965
40
4.1275001762500425
50
-91.60673935
51
95.00002129
0
LINE
8
BLACK
6
CONTINUOUS
10
137.5499999999999829
20
-86.7000000000000028
11
137.5499999999999829
21
-91.2000000000000028
0
ARC
8
BLACK
10
143.1432719999999961
20
-85.5782669999999968
40
16.4109891119179814
50
19.55513706
51
59.85511063
0
LINE
8
BLACK
6
CONTINUOUS
10
153.5499999999999829
20
-85.7000000000000028
11
153.5499999999999829
21
-90.2000000000000028
0
LINE
8
BLACK
6
CONTINUOUS
10
138.957398999999981
20
-106.1810589999999905
11
150.7879309999999862
21
-105.1460209999999904
0
LINE
8
BLACK
6
CONTINUOUS
10
133.5499999999999829
20
-91.2000000000000028
11
133.5499999999999829
21
-86.7000000000000028
0
ARC
8
BLACK
10
161.4716980000000035
20
-91.1462009999999907
40
1.9998925427802292
50
102.69458035
51
169.82458528
0
LINE
8
BLACK
6
CONTINUOUS
10
151.3846810000000005
20
-71.3867290000000025
11
151.3847319999999854
21
-71.3866569999999996
0
LINE
8
BLACK
6
CONTINUOUS
10
149.5499999999999829
20
-90.2000000000000028
11
149.5499999999999829
21
-85.7000000000000028
0
LINE
8
BLACK
6
CONTINUOUS
10
148.5499999999999829
20
-79.7000000000000028
11
148.5499999999999829
21
-75.2000000000000028
0
LINE
8
BLACK
6
CONTINUOUS
10
157.6424209999999846
20
-97.851356999999993
11
158.1999999999999886
21
-97.9499999999999886
0
ARC
8
BLACK
10
143.1210209999999847
20
-85.5308179999999965
40
16.3782112095848191
50
75.93671124
51
170.83673007
0
LINE
8
BLACK
6
CONTINUOUS
10
129.3742719999999906
20
-91.7038029999999935
11
131.174272000000002
21
-93.5038029999999907
0
LINE
8
BLACK
6
CONTINUOUS
10
131.174272000000002
20
-91.7038029999999935
11
129.3742719999999906
21
-93.5038029999999907
0
LINE
8
BLACK
6
CONTINUOUS
10
156.2715279999999893
20
-89.3505969999999934
11
158.0715280000000007
21
-91.1505969999999905
0
LINE
8
BLACK
6
CONTINUOUS
10
158.0715280000000007
20
-89.3505969999999934
11
156.2715279999999893
21
-91.1505969999999905
0
CIRCLE
8
BLACK
10
134.5243830000000003
20
-83.6994969999999938
40
1.5
0
CIRCLE
8
BLACK
10
144.6598239999999862
20
-102.1362929999999949
40
1.5
0
CIRCLE
8
BLACK
10
151.4406409999999994
20
-82.2295549999999906
40
1.5
0
LINE
8
BLACK
6
CONTINUOUS
10
143.1999659999999892
20
-83.1500319999999959
11
143.1999659999999892
21
-87.7500319999999903
0
LINE
8
BLACK
6
CONTINUOUS
10
140.8999660000000063
20
-85.4500319999999931
11
145.4999660000000006
21
-85.4500319999999931
0
LINE
8
BLACK
6
CONTINUOUS
10
118.5309489999999926
20
-109.300896999999992
11
118.5309489999999926
21
-107.300896999999992
0
LINE
8
BLACK
6
CONTINUOUS
10
118.5309489999999926
20
-107.300896999999992
11
119.0071389999999951
21
-107.300896999999992
0
LINE
8
BLACK
6
CONTINUOUS
10
119.0071389999999951
20
-107.300896999999992
11
119.2928539999999913
21
-107.396135000000001
0
LINE
8
BLACK
6
CONTINUOUS
10
119.2928539999999913
20
-107.396135000000001
11
119.4833299999999952
21
-107.5866109999999907
0
LINE
8
BLACK
6
CONTINUOUS
10
119.4833299999999952
20
-107.5866109999999907
11
119.57856799999999
21
-107.7770869999999945
0
LINE
8
BLACK
6
CONTINUOUS
10
119.57856799999999
20
-107.7770869999999945
11
119.673805999999999
21
-108.1580389999999881
0
LINE
8
BLACK
6
CONTINUOUS
10
119.673805999999999
20
-108.1580389999999881
11
119.673805999999999
21
-108.4437539999999984
0
LINE
8
BLACK
6
CONTINUOUS
10
119.673805999999999
20
-108.4437539999999984
11
119.57856799999999
21
-108.8247059999999919
0
LINE
8
BLACK
6
CONTINUOUS
10
119.57856799999999
20
-108.8247059999999919
11
119.4833299999999952
21
-109.0151819999999958
0
LINE
8
BLACK
6
CONTINUOUS
10
119.4833299999999952
20
-109.0151819999999958
11
119.2928539999999913
21
-109.2056589999999971
0
LINE
8
BLACK
6
CONTINUOUS
10
119.2928539999999913
20
-109.2056589999999971
11
119.0071389999999951
21
-109.300896999999992
0
LINE
8
BLACK
6
CONTINUOUS
10
119.0071389999999951
20
-109.300896999999992
11
118.5309489999999926
21
-109.300896999999992
0
LINE
8
BLACK
6
CONTINUOUS
10
120.5309489999999926
20
-109.300896999999992
11
120.5309489999999926
21
-107.9675629999999984
0
LINE
8
BLACK
6
CONTINUOUS
10
120.5309489999999926
20
-108.3485159999999894
11
120.6261870000000016
21
-108.1580389999999881
0
LINE
8
BLACK
6
CONTINUOUS
10
120.6261870000000016
20
-108.1580389999999881
11
120.7214249999999964
21
-108.0628009999999932
0
LINE
8
BLACK
6
CONTINUOUS
10
120.7214249999999964
20
-108.0628009999999932
11
120.9119010000000003
21
-107.9675629999999984
0
LINE
8
BLACK
6
CONTINUOUS
10
120.9119010000000003
20
-107.9675629999999984
11
121.1023779999999874
21
-107.9675629999999984
0
LINE
8
BLACK
6
CONTINUOUS
10
121.7690439999999938
20
-109.300896999999992
11
121.7690439999999938
21
-107.9675629999999984
0
LINE
8
BLACK
6
CONTINUOUS
10
121.7690439999999938
20
-107.300896999999992
11
121.673805999999999
21
-107.396135000000001
0
LINE
8
BLACK
6
CONTINUOUS
10
121.673805999999999
20
-107.396135000000001
11
121.7690439999999938
21
-107.4913729999999958
0
LINE
8
BLACK
6
CONTINUOUS
10
121.7690439999999938
20
-107.4913729999999958
11
121.8642819999999887
21
-107.396135000000001
0
LINE
8
BLACK
6
CONTINUOUS
10
121.8642819999999887
20
-107.396135000000001
11
121.7690439999999938
21
-107.300896999999992
0
LINE
8
BLACK
6
CONTINUOUS
10
121.7690439999999938
20
-107.300896999999992
11
121.7690439999999938
21
-107.4913729999999958
0
LINE
8
BLACK
6
CONTINUOUS
10
123.0071389999999951
20
-109.300896999999992
11
122.8166629999999913
21
-109.2056589999999971
0
LINE
8
BLACK
6
CONTINUOUS
10
122.8166629999999913
20
-109.2056589999999971
11
122.7214249999999964
21
-109.0151819999999958
0
LINE
8
BLACK
6
CONTINUOUS
10
122.7214249999999964
20
-109.0151819999999958
11
122.7214249999999964
21
-107.300896999999992
0
LINE
8
BLACK
6
CONTINUOUS
10
124.0547579999999925
20
-109.300896999999992
11
123.8642819999999887
21
-109.2056589999999971
0
LINE
8
BLACK
6
CONTINUOUS
10
123.8642819999999887
20
-109.2056589999999971
11
123.7690439999999938
21
-109.0151819999999958
0
LINE
8
BLACK
6
CONTINUOUS
10
123.7690439999999938
20
-109.0151819999999958
11
123.7690439999999938
21
-107.300896999999992
0
LINE
8
BLACK
6
CONTINUOUS
10
126.3404729999999887
20
-109.300896999999992
11
126.3404729999999887
21
-107.300896999999992
0
LINE
8
BLACK
6
CONTINUOUS
10
126.3404729999999887
20
-107.300896999999992
11
127.0071399999999926
21
-108.7294679999999971
0
LINE
8
BLACK
6
CONTINUOUS
10
127.0071399999999926
20
-108.7294679999999971
11
127.673805999999999
21
-107.300896999999992
0
LINE
8
BLACK
6
CONTINUOUS
10
127.673805999999999
20
-107.300896999999992
11
127.673805999999999
21
-109.300896999999992
0
LINE
8
BLACK
6
CONTINUOUS
10
129.4833299999999952
20
-109.300896999999992
11
129.4833299999999952
21
-108.2532779999999946
0
LINE
8
BLACK
6
CONTINUOUS
10
129.4833299999999952
20
-108.2532779999999946
11
129.3880920000000003
21
-108.0628009999999932
0
LINE
8
BLACK
6
CONTINUOUS
10
129.3880920000000003
20
-108.0628009999999932
11
129.1976159999999823
21
-107.9675629999999984
0
LINE
8
BLACK
6
CONTINUOUS
10
129.1976159999999823
20
-107.9675629999999984
11
128.8166630000000055
21
-107.9675629999999984
0
LINE
8
BLACK
6
CONTINUOUS
10
128.8166630000000055
20
-107.9675629999999984
11
128.6261869999999874
21
-108.0628009999999932
0
LINE
8
BLACK
6
CONTINUOUS
10
129.4833299999999952
20
-109.2056589999999971
11
129.2928540000000055
21
-109.300896999999992
0
LINE
8
BLACK
6
CONTINUOUS
10
129.2928540000000055
20
-109.300896999999992
11
128.8166630000000055
21
-109.300896999999992
0
LINE
8
BLACK
6
CONTINUOUS
10
128.8166630000000055
20
-109.300896999999992
11
128.6261869999999874
21
-109.2056589999999971
0
LINE
8
BLACK
6
CONTINUOUS
10
128.6261869999999874
20
-109.2056589999999971
11
128.5309489999999926
21
-109.0151819999999958
0
LINE
8
BLACK
6
CONTINUOUS
10
128.5309489999999926
20
-109.0151819999999958
11
128.5309489999999926
21
-108.8247059999999919
0
LINE
8
BLACK
6
CONTINUOUS
10
128.5309489999999926
20
-108.8247059999999919
11
128.6261869999999874
21
-108.6342299999999881
0
LINE
8
BLACK
6
CONTINUOUS
10
128.6261869999999874
20
-108.6342299999999881
11
128.8166630000000055
21
-108.5389919999999933
0
LINE
8
BLACK
6
CONTINUOUS
10
128.8166630000000055
20
-108.5389919999999933
11
129.2928540000000055
21
-108.5389919999999933
0
LINE
8
BLACK
6
CONTINUOUS
10
129.2928540000000055
20
-108.5389919999999933
11
129.4833299999999952
21
-108.4437539999999984
0
LINE
8
BLACK
6
CONTINUOUS
10
130.4357109999999977
20
-107.9675629999999984
11
130.4357109999999977
21
-109.9675629999999984
0
LINE
8
BLACK
6
CONTINUOUS
10
130.4357109999999977
20
-108.0628009999999932
11
130.6261869999999874
21
-107.9675629999999984
0
LINE
8
BLACK
6
CONTINUOUS
10
130.6261869999999874
20
-107.9675629999999984
11
131.0071399999999926
21
-107.9675629999999984
0
LINE
8
BLACK
6
CONTINUOUS
10
131.0071399999999926
20
-107.9675629999999984
11
131.1976159999999823
21
-108.0628009999999932
0
LINE
8
BLACK
6
CONTINUOUS
10
131.1976159999999823
20
-108.0628009999999932
11
131.2928540000000055
21
-108.1580389999999881
0
LINE
8
BLACK
6
CONTINUOUS
10
131.2928540000000055
20
-108.1580389999999881
11
131.3880920000000003
21
-108.3485159999999894
0
LINE
8
BLACK
6
CONTINUOUS
10
131.3880920000000003
20
-108.3485159999999894
11
131.3880920000000003
21
-108.919944000000001
0
LINE
8
BLACK
6
CONTINUOUS
10
131.3880920000000003
20
-108.919944000000001
11
131.2928540000000055
21
-109.1104199999999906
0
LINE
8
BLACK
6
CONTINUOUS
10
131.2928540000000055
20
-109.1104199999999906
11
131.1976159999999823
21
-109.2056589999999971
0
LINE
8
BLACK
6
CONTINUOUS
10
131.1976159999999823
20
-109.2056589999999971
11
131.0071399999999926
21
-109.300896999999992
0
LINE
8
BLACK
6
CONTINUOUS
10
131.0071399999999926
20
-109.300896999999992
11
130.6261869999999874
21
-109.300896999999992
0
LINE
8
BLACK
6
CONTINUOUS
10
130.6261869999999874
20
-109.300896999999992
11
130.4357109999999977
21
-109.2056589999999971
0
LINE
8
BLACK
6
CONTINUOUS
10
132.2452350000000081
20
-109.1104199999999906
11
132.3404730000000029
21
-109.2056589999999971
0
LINE
8
BLACK
6
CONTINUOUS
10
132.3404730000000029
20
-109.2056589999999971
11
132.2452350000000081
21
-109.300896999999992
0
LINE
8
BLACK
6
CONTINUOUS
10
132.2452350000000081
20
-109.300896999999992
11
132.1499969999999848
21
-109.2056589999999971
0
LINE
8
BLACK
6
CONTINUOUS
10
132.1499969999999848
20
-109.2056589999999971
11
132.2452350000000081
21
-109.1104199999999906
0
LINE
8
BLACK
6
CONTINUOUS
10
132.2452350000000081
20
-109.1104199999999906
11
132.2452350000000081
21
-109.300896999999992
0
LINE
8
BLACK
6
CONTINUOUS
10
132.2452350000000081
20
-108.0628009999999932
11
132.3404730000000029
21
-108.1580389999999881
0
LINE
8
BLACK
6
CONTINUOUS
10
132.3404730000000029
20
-108.1580389999999881
11
132.2452350000000081
21
-108.2532779999999946
0
LINE
8
BLACK
6
CONTINUOUS
10
132.2452350000000081
20
-108.2532779999999946
11
132.1499969999999848
21
-108.1580389999999881
0
LINE
8
BLACK
6
CONTINUOUS
10
132.1499969999999848
20
-108.1580389999999881
11
132.2452350000000081
21
-108.0628009999999932
0
LINE
8
BLACK
6
CONTINUOUS
10
132.2452350000000081
20
-108.0628009999999932
11
132.2452350000000081
21
-108.2532779999999946
0
LINE
8
BLACK
6
CONTINUOUS
10
114.1231809999999882
20
-111.6860590000000002
11
115.9231809999999996
21
-113.4860589999999974
0
LINE
8
BLACK
6
CONTINUOUS
10
115.9231809999999996
20
-111.6860590000000002
11
114.1231809999999882
21
-113.4860589999999974
0
LINE
8
BLACK
6
CONTINUOUS
10
119.57856799999999
20
-113.5008969999999948
11
118.4357109999999977
21
-113.5008969999999948
0
LINE
8
BLACK
6
CONTINUOUS
10
119.0071389999999951
20
-113.5008969999999948
11
119.0071389999999951
21
-111.5008969999999948
0
LINE
8
BLACK
6
CONTINUOUS
10
119.0071389999999951
20
-111.5008969999999948
11
118.8166629999999913
21
-111.7866109999999935
0
LINE
8
BLACK
6
CONTINUOUS
10
118.8166629999999913
20
-111.7866109999999935
11
118.6261870000000016
21
-111.9770869999999974
0
LINE
8
BLACK
6
CONTINUOUS
10
118.6261870000000016
20
-111.9770869999999974
11
118.4357109999999977
21
-112.0723249999999922
0
LINE
8
BLACK
6
CONTINUOUS
10
120.4357109999999977
20
-113.3104199999999935
11
120.5309489999999926
21
-113.405659
0
LINE
8
BLACK
6
CONTINUOUS
10
120.5309489999999926
20
-113.405659
11
120.4357109999999977
21
-113.5008969999999948
0
LINE
8
BLACK
6
CONTINUOUS
10
120.4357109999999977
20
-113.5008969999999948
11
120.3404729999999887
21
-113.405659
0
LINE
8
BLACK
6
CONTINUOUS
10
120.3404729999999887
20
-113.405659
11
120.4357109999999977
21
-113.3104199999999935
0
LINE
8
BLACK
6
CONTINUOUS
10
120.4357109999999977
20
-113.3104199999999935
11
120.4357109999999977
21
-113.5008969999999948
0
LINE
8
BLACK
6
CONTINUOUS
10
121.673805999999999
20
-112.3580389999999909
11
121.4833299999999952
21
-112.2628009999999961
0
LINE
8
BLACK
6
CONTINUOUS
10
121.4833299999999952
20
-112.2628009999999961
11
121.3880920000000003
21
-112.1675630000000012
0
LINE
8
BLACK
6
CONTINUOUS
10
121.3880920000000003
20
-112.1675630000000012
11
121.2928539999999913
21
-111.9770869999999974
0
LINE
8
BLACK
6
CONTINUOUS
10
121.2928539999999913
20
-111.9770869999999974
11
121.2928539999999913
21
-111.8818489999999883
0
LINE
8
BLACK
6
CONTINUOUS
10
121.2928539999999913
20
-111.8818489999999883
11
121.3880920000000003
21
-111.6913729999999987
0
LINE
8
BLACK
6
CONTINUOUS
10
121.3880920000000003
20
-111.6913729999999987
11
121.4833299999999952
21
-111.5961349999999896
0
LINE
8
BLACK
6
CONTINUOUS
10
121.4833299999999952
20
-111.5961349999999896
11
121.673805999999999
21
-111.5008969999999948
0
LINE
8
BLACK
6
CONTINUOUS
10
121.673805999999999
20
-111.5008969999999948
11
122.05475899999999
21
-111.5008969999999948
0
LINE
8
BLACK
6
CONTINUOUS
10
122.05475899999999
20
-111.5008969999999948
11
122.2452349999999939
21
-111.5961349999999896
0
LINE
8
BLACK
6
CONTINUOUS
10
122.2452349999999939
20
-111.5961349999999896
11
122.3404729999999887
21
-111.6913729999999987
0
LINE
8
BLACK
6
CONTINUOUS
10
122.3404729999999887
20
-111.6913729999999987
11
122.4357109999999977
21
-111.8818489999999883
0
LINE
8
BLACK
6
CONTINUOUS
10
122.4357109999999977
20
-111.8818489999999883
11
122.4357109999999977
21
-111.9770869999999974
0
LINE
8
BLACK
6
CONTINUOUS
10
122.4357109999999977
20
-111.9770869999999974
11
122.3404729999999887
21
-112.1675630000000012
0
LINE
8
BLACK
6
CONTINUOUS
10
122.3404729999999887
20
-112.1675630000000012
11
122.2452349999999939
21
-112.2628009999999961
0
LINE
8
BLACK
6
CONTINUOUS
10
122.2452349999999939
20
-112.2628009999999961
11
122.05475899999999
21
-112.3580389999999909
0
LINE
8
BLACK
6
CONTINUOUS
10
122.05475899999999
20
-112.3580389999999909
11
121.673805999999999
21
-112.3580389999999909
0
LINE
8
BLACK
6
CONTINUOUS
10
121.673805999999999
20
-112.3580389999999909
11
121.4833299999999952
21
-112.4532779999999974
0
LINE
8
BLACK
6
CONTINUOUS
10
121.4833299999999952
20
-112.4532779999999974
11
121.3880920000000003
21
-112.5485159999999922
0
LINE
8
BLACK
6
CONTINUOUS
10
121.3880920000000003
20
-112.5485159999999922
11
121.2928539999999913
21
-112.7389919999999961
0
LINE
8
BLACK
6
CONTINUOUS
10
121.2928539999999913
20
-112.7389919999999961
11
121.2928539999999913
21
-113.1199439999999896
0
LINE
8
BLACK
6
CONTINUOUS
10
121.2928539999999913
20
-113.1199439999999896
11
121.3880920000000003
21
-113.3104199999999935
0
LINE
8
BLACK
6
CONTINUOUS
10
121.3880920000000003
20
-113.3104199999999935
11
121.4833299999999952
21
-113.405659
0
LINE
8
BLACK
6
CONTINUOUS
10
121.4833299999999952
20
-113.405659
11
121.673805999999999
21
-113.5008969999999948
0
LINE
8
BLACK
6
CONTINUOUS
10
121.673805999999999
20
-113.5008969999999948
11
122.05475899999999
21
-113.5008969999999948
0
LINE
8
BLACK
6
CONTINUOUS
10
122.05475899999999
20
-113.5008969999999948
11
122.2452349999999939
21
-113.405659
0
LINE
8
BLACK
6
CONTINUOUS
10
122.2452349999999939
20
-113.405659
11
122.3404729999999887
21
-113.3104199999999935
0
LINE
8
BLACK
6
CONTINUOUS
10
122.3404729999999887
20
-113.3104199999999935
11
122.4357109999999977
21
-113.1199439999999896
0
LINE
8
BLACK
6
CONTINUOUS
10
122.4357109999999977
20
-113.1199439999999896
11
122.4357109999999977
21
-112.7389919999999961
0
LINE
8
BLACK
6
CONTINUOUS
10
122.4357109999999977
20
-112.7389919999999961
11
122.3404729999999887
21
-112.5485159999999922
0
LINE
8
BLACK
6
CONTINUOUS
10
122.3404729999999887
20
-112.5485159999999922
11
122.2452349999999939
21
-112.4532779999999974
0
LINE
8
BLACK
6
CONTINUOUS
10
122.2452349999999939
20
-112.4532779999999974
11
122.05475899999999
21
-112.3580389999999909
0
LINE
8
BLACK
6
CONTINUOUS
10
123.673805999999999
20
-111.5008969999999948
11
123.8642830000000004
21
-111.5008969999999948
0
LINE
8
BLACK
6
CONTINUOUS
10
123.8642830000000004
20
-111.5008969999999948
11
124.05475899999999
21
-111.5961349999999896
0
LINE
8
BLACK
6
CONTINUOUS
10
124.05475899999999
20
-111.5961349999999896
11
124.149996999999999
21
-111.6913729999999987
0
LINE
8
BLACK
6
CONTINUOUS
10
124.149996999999999
20
-111.6913729999999987
11
124.2452349999999939
21
-111.8818489999999883
0
LINE
8
BLACK
6
CONTINUOUS
10
124.2452349999999939
20
-111.8818489999999883
11
124.3404729999999887
21
-112.2628009999999961
0
LINE
8
BLACK
6
CONTINUOUS
10
124.3404729999999887
20
-112.2628009999999961
11
124.3404729999999887
21
-112.7389919999999961
0
LINE
8
BLACK
6
CONTINUOUS
10
124.3404729999999887
20
-112.7389919999999961
11
124.2452349999999939
21
-113.1199439999999896
0
LINE
8
BLACK
6
CONTINUOUS
10
124.2452349999999939
20
-113.1199439999999896
11
124.149996999999999
21
-113.3104199999999935
0
LINE
8
BLACK
6
CONTINUOUS
10
124.149996999999999
20
-113.3104199999999935
11
124.05475899999999
21
-113.405659
0
LINE
8
BLACK
6
CONTINUOUS
10
124.05475899999999
20
-113.405659
11
123.8642830000000004
21
-113.5008969999999948
0
LINE
8
BLACK
6
CONTINUOUS
10
123.8642830000000004
20
-113.5008969999999948
11
123.673805999999999
21
-113.5008969999999948
0
LINE
8
BLACK
6
CONTINUOUS
10
123.673805999999999
20
-113.5008969999999948
11
123.4833299999999952
21
-113.405659
0
LINE
8
BLACK
6
CONTINUOUS
10
123.4833299999999952
20
-113.405659
11
123.3880920000000003
21
-113.3104199999999935
0
LINE
8
BLACK
6
CONTINUOUS
10
123.3880920000000003
20
-113.3104199999999935
11
123.2928539999999913
21
-113.1199439999999896
0
LINE
8
BLACK
6
CONTINUOUS
10
123.2928539999999913
20
-113.1199439999999896
11
123.1976159999999965
21
-112.7389919999999961
0
LINE
8
BLACK
6
CONTINUOUS
10
123.1976159999999965
20
-112.7389919999999961
11
123.1976159999999965
21
-112.2628009999999961
0
LINE
8
BLACK
6
CONTINUOUS
10
123.1976159999999965
20
-112.2628009999999961
11
123.2928539999999913
21
-111.8818489999999883
0
LINE
8
BLACK
6
CONTINUOUS
10
123.2928539999999913
20
-111.8818489999999883
11
123.3880920000000003
21
-111.6913729999999987
0
LINE
8
BLACK
6
CONTINUOUS
10
123.3880920000000003
20
-111.6913729999999987
11
123.4833299999999952
21
-111.5961349999999896
0
LINE
8
BLACK
6
CONTINUOUS
10
123.4833299999999952
20
-111.5961349999999896
11
123.673805999999999
21
-111.5008969999999948
0
LINE
8
BLACK
6
CONTINUOUS
10
125.57856799999999
20
-111.5008969999999948
11
125.7690449999999913
21
-111.5008969999999948
0
LINE
8
BLACK
6
CONTINUOUS
10
125.7690449999999913
20
-111.5008969999999948
11
125.9595209999999952
21
-111.5961349999999896
0
LINE
8
BLACK
6
CONTINUOUS
10
125.9595209999999952
20
-111.5961349999999896
11
126.05475899999999
21
-111.6913729999999987
0
LINE
8
BLACK
6
CONTINUOUS
10
126.05475899999999
20
-111.6913729999999987
11
126.149996999999999
21
-111.8818489999999883
0
LINE
8
BLACK
6
CONTINUOUS
10
126.149996999999999
20
-111.8818489999999883
11
126.2452349999999939
21
-112.2628009999999961
0
LINE
8
BLACK
6
CONTINUOUS
10
126.2452349999999939
20
-112.2628009999999961
11
126.2452349999999939
21
-112.7389919999999961
0
LINE
8
BLACK
6
CONTINUOUS
10
126.2452349999999939
20
-112.7389919999999961
11
126.149996999999999
21
-113.1199439999999896
0
LINE
8
BLACK
6
CONTINUOUS
10
126.149996999999999
20
-113.1199439999999896
11
126.05475899999999
21
-113.3104199999999935
0
LINE
8
BLACK
6
CONTINUOUS
10
126.05475899999999
20
-113.3104199999999935
11
125.9595209999999952
21
-113.405659
0
LINE
8
BLACK
6
CONTINUOUS
10
125.9595209999999952
20
-113.405659
11
125.7690449999999913
21
-113.5008969999999948
0
LINE
8
BLACK
6
CONTINUOUS
10
125.7690449999999913
20
-113.5008969999999948
11
125.57856799999999
21
-113.5008969999999948
0
LINE
8
BLACK
6
CONTINUOUS
10
125.57856799999999
20
-113.5008969999999948
11
125.3880920000000003
21
-113.405659
0
LINE
8
BLACK
6
CONTINUOUS
10
125.3880920000000003
20
-113.405659
11
125.2928539999999913
21
-113.3104199999999935
0
LINE
8
BLACK
6
CONTINUOUS
10
125.2928539999999913
20
-113.3104199999999935
11
125.1976159999999965
21
-113.1199439999999896
0
LINE
8
BLACK
6
CONTINUOUS
10
125.1976159999999965
20
-113.1199439999999896
11
125.1023779999999874
21
-112.7389919999999961
0
LINE
8
BLACK
6
CONTINUOUS
10
125.1023779999999874
20
-112.7389919999999961
11
125.1023779999999874
21
-112.2628009999999961
0
LINE
8
BLACK
6
CONTINUOUS
10
125.1023779999999874
20
-112.2628009999999961
11
125.1976159999999965
21
-111.8818489999999883
0
LINE
8
BLACK
6
CONTINUOUS
10
125.1976159999999965
20
-111.8818489999999883
11
125.2928539999999913
21
-111.6913729999999987
0
LINE
8
BLACK
6
CONTINUOUS
10
125.2928539999999913
20
-111.6913729999999987
11
125.3880920000000003
21
-111.5961349999999896
0
LINE
8
BLACK
6
CONTINUOUS
10
125.3880920000000003
20
-111.5961349999999896
11
125.57856799999999
21
-111.5008969999999948
0
LINE
8
BLACK
6
CONTINUOUS
10
127.1023779999999874
20
-113.5008969999999948
11
127.1023779999999874
21
-112.1675630000000012
0
LINE
8
BLACK
6
CONTINUOUS
10
127.1023779999999874
20
-112.3580389999999909
11
127.1976159999999965
21
-112.2628009999999961
0
LINE
8
BLACK
6
CONTINUOUS
10
127.1976159999999965
20
-112.2628009999999961
11
127.3880920000000003
21
-112.1675630000000012
0
LINE
8
BLACK
6
CONTINUOUS
10
127.3880920000000003
20
-112.1675630000000012
11
127.6738069999999965
21
-112.1675630000000012
0
LINE
8
BLACK
6
CONTINUOUS
10
127.6738069999999965
20
-112.1675630000000012
11
127.8642830000000004
21
-112.2628009999999961
0
LINE
8
BLACK
6
CONTINUOUS
10
127.8642830000000004
20
-112.2628009999999961
11
127.9595209999999952
21
-112.4532779999999974
0
LINE
8
BLACK
6
CONTINUOUS
10
127.9595209999999952
20
-112.4532779999999974
11
127.9595209999999952
21
-113.5008969999999948
0
LINE
8
BLACK
6
CONTINUOUS
10
127.9595209999999952
20
-112.4532779999999974
11
128.05475899999999
21
-112.2628009999999961
0
LINE
8
BLACK
6
CONTINUOUS
10
128.05475899999999
20
-112.2628009999999961
11
128.2452350000000081
21
-112.1675630000000012
0
LINE
8
BLACK
6
CONTINUOUS
10
128.2452350000000081
20
-112.1675630000000012
11
128.5309489999999926
21
-112.1675630000000012
0
LINE
8
BLACK
6
CONTINUOUS
10
128.5309489999999926
20
-112.1675630000000012
11
128.7214260000000081
21
-112.2628009999999961
0
LINE
8
BLACK
6
CONTINUOUS
10
128.7214260000000081
20
-112.2628009999999961
11
128.8166640000000029
21
-112.4532779999999974
0
LINE
8
BLACK
6
CONTINUOUS
10
128.8166640000000029
20
-112.4532779999999974
11
128.8166640000000029
21
-113.5008969999999948
0
LINE
8
BLACK
6
CONTINUOUS
10
129.7690450000000055
20
-113.5008969999999948
11
129.7690450000000055
21
-112.1675630000000012
0
LINE
8
BLACK
6
CONTINUOUS
10
129.7690450000000055
20
-112.3580389999999909
11
129.8642830000000004
21
-112.2628009999999961
0
LINE
8
BLACK
6
CONTINUOUS
10
129.8642830000000004
20
-112.2628009999999961
11
130.05475899999999
21
-112.1675630000000012
0
LINE
8
BLACK
6
CONTINUOUS
10
130.05475899999999
20
-112.1675630000000012
11
130.3404740000000004
21
-112.1675630000000012
0
LINE
8
BLACK
6
CONTINUOUS
10
130.3404740000000004
20
-112.1675630000000012
11
130.53094999999999
21
-112.2628009999999961
0
LINE
8
BLACK
6
CONTINUOUS
10
130.53094999999999
20
-112.2628009999999961
11
130.6261879999999849
21
-112.4532779999999974
0
LINE
8
BLACK
6
CONTINUOUS
10
130.6261879999999849
20
-112.4532779999999974
11
130.6261879999999849
21
-113.5008969999999948
0
LINE
8
BLACK
6
CONTINUOUS
10
130.6261879999999849
20
-112.4532779999999974
11
130.7214260000000081
21
-112.2628009999999961
0
LINE
8
BLACK
6
CONTINUOUS
10
130.7214260000000081
20
-112.2628009999999961
11
130.9119019999999978
21
-112.1675630000000012
0
LINE
8
BLACK
6
CONTINUOUS
10
130.9119019999999978
20
-112.1675630000000012
11
131.1976159999999823
21
-112.1675630000000012
0
LINE
8
BLACK
6
CONTINUOUS
10
131.1976159999999823
20
-112.1675630000000012
11
131.3880929999999978
21
-112.2628009999999961
0
LINE
8
BLACK
6
CONTINUOUS
10
131.3880929999999978
20
-112.2628009999999961
11
131.4833309999999926
21
-112.4532779999999974
0
LINE
8
BLACK
6
CONTINUOUS
10
131.4833309999999926
20
-112.4532779999999974
11
131.4833309999999926
21
-113.5008969999999948
0
LINE
8
BLACK
6
CONTINUOUS
10
135.3880929999999978
20
-111.405659
11
133.6738079999999798
21
-113.9770869999999974
0
LINE
8
BLACK
6
CONTINUOUS
10
137.9595219999999927
20
-111.5008969999999948
11
138.1499989999999798
21
-111.5008969999999948
0
LINE
8
BLACK
6
CONTINUOUS
10
138.1499989999999798
20
-111.5008969999999948
11
138.3404749999999979
21
-111.5961349999999896
0
LINE
8
BLACK
6
CONTINUOUS
10
138.3404749999999979
20
-111.5961349999999896
11
138.4357129999999927
21
-111.6913729999999987
0
LINE
8
BLACK
6
CONTINUOUS
10
138.4357129999999927
20
-111.6913729999999987
11
138.5309509999999875
21
-111.8818489999999883
0
LINE
8
BLACK
6
CONTINUOUS
10
138.5309509999999875
20
-111.8818489999999883
11
138.6261889999999823
21
-112.2628009999999961
0
LINE
8
BLACK
6
CONTINUOUS
10
138.6261889999999823
20
-112.2628009999999961
11
138.6261889999999823
21
-112.7389919999999961
0
LINE
8
BLACK
6
CONTINUOUS
10
138.6261889999999823
20
-112.7389919999999961
11
138.5309509999999875
21
-113.1199439999999896
0
LINE
8
BLACK
6
CONTINUOUS
10
138.5309509999999875
20
-113.1199439999999896
11
138.4357129999999927
21
-113.3104199999999935
0
LINE
8
BLACK
6
CONTINUOUS
10
138.4357129999999927
20
-113.3104199999999935
11
138.3404749999999979
21
-113.405659
0
LINE
8
BLACK
6
CONTINUOUS
10
138.3404749999999979
20
-113.405659
11
138.1499989999999798
21
-113.5008969999999948
0
LINE
8
BLACK
6
CONTINUOUS
10
138.1499989999999798
20
-113.5008969999999948
11
137.9595219999999927
21
-113.5008969999999948
0
LINE
8
BLACK
6
CONTINUOUS
10
137.9595219999999927
20
-113.5008969999999948
11
137.769046000000003
21
-113.405659
0
LINE
8
BLACK
6
CONTINUOUS
10
137.769046000000003
20
-113.405659
11
137.6738079999999798
21
-113.3104199999999935
0
LINE
8
BLACK
6
CONTINUOUS
10
137.6738079999999798
20
-113.3104199999999935
11
137.5785699999999849
21
-113.1199439999999896
0
LINE
8
BLACK
6
CONTINUOUS
10
137.5785699999999849
20
-113.1199439999999896
11
137.4833319999999901
21
-112.7389919999999961
0
LINE
8
BLACK
6
CONTINUOUS
10
137.4833319999999901
20
-112.7389919999999961
11
137.4833319999999901
21
-112.2628009999999961
0
LINE
8
BLACK
6
CONTINUOUS
10
137.4833319999999901
20
-112.2628009999999961
11
137.5785699999999849
21
-111.8818489999999883
0
LINE
8
BLACK
6
CONTINUOUS
10
137.5785699999999849
20
-111.8818489999999883
11
137.6738079999999798
21
-111.6913729999999987
0
LINE
8
BLACK
6
CONTINUOUS
10
137.6738079999999798
20
-111.6913729999999987
11
137.769046000000003
21
-111.5961349999999896
0
LINE
8
BLACK
6
CONTINUOUS
10
137.769046000000003
20
-111.5961349999999896
11
137.9595219999999927
21
-111.5008969999999948
0
LINE
8
BLACK
6
CONTINUOUS
10
139.4833319999999901
20
-113.3104199999999935
11
139.5785699999999849
21
-113.405659
0
LINE
8
BLACK
6
CONTINUOUS
10
139.5785699999999849
20
-113.405659
11
139.4833319999999901
21
-113.5008969999999948
0
LINE
8
BLACK
6
CONTINUOUS
10
139.4833319999999901
20
-113.5008969999999948
11
139.3880939999999953
21
-113.405659
0
LINE
8
BLACK
6
CONTINUOUS
10
139.3880939999999953
20
-113.405659
11
139.4833319999999901
21
-113.3104199999999935
0
LINE
8
BLACK
6
CONTINUOUS
10
139.4833319999999901
20
-113.3104199999999935
11
139.4833319999999901
21
-113.5008969999999948
0
LINE
8
BLACK
6
CONTINUOUS
10
140.8166650000000004
20
-111.5008969999999948
11
141.0071419999999875
21
-111.5008969999999948
0
LINE
8
BLACK
6
CONTINUOUS
10
141.0071419999999875
20
-111.5008969999999948
11
141.1976180000000056
21
-111.5961349999999896
0
LINE
8
BLACK
6
CONTINUOUS
10
141.1976180000000056
20
-111.5961349999999896
11
141.2928560000000004
21
-111.6913729999999987
0
LINE
8
BLACK
6
CONTINUOUS
10
141.2928560000000004
20
-111.6913729999999987
11
141.3880939999999953
21
-111.8818489999999883
0
LINE
8
BLACK
6
CONTINUOUS
10
141.3880939999999953
20
-111.8818489999999883
11
141.4833319999999901
21
-112.2628009999999961
0
LINE
8
BLACK
6
CONTINUOUS
10
141.4833319999999901
20
-112.2628009999999961
11
141.4833319999999901
21
-112.7389919999999961
0
LINE
8
BLACK
6
CONTINUOUS
10
141.4833319999999901
20
-112.7389919999999961
11
141.3880939999999953
21
-113.1199439999999896
0
LINE
8
BLACK
6
CONTINUOUS
10
141.3880939999999953
20
-113.1199439999999896
11
141.2928560000000004
21
-113.3104199999999935
0
LINE
8
BLACK
6
CONTINUOUS
10
141.2928560000000004
20
-113.3104199999999935
11
141.1976180000000056
21
-113.405659
0
LINE
8
BLACK
6
CONTINUOUS
10
141.1976180000000056
20
-113.405659
11
141.0071419999999875
21
-113.5008969999999948
0
LINE
8
BLACK
6
CONTINUOUS
10
141.0071419999999875
20
-113.5008969999999948
11
140.8166650000000004
21
-113.5008969999999948
0
LINE
8
BLACK
6
CONTINUOUS
10
140.8166650000000004
20
-113.5008969999999948
11
140.6261889999999823
21
-113.405659
0
LINE
8
BLACK
6
CONTINUOUS
10
140.6261889999999823
20
-113.405659
11
140.5309509999999875
21
-113.3104199999999935
0
LINE
8
BLACK
6
CONTINUOUS
10
140.5309509999999875
20
-113.3104199999999935
11
140.4357129999999927
21
-113.1199439999999896
0
LINE
8
BLACK
6
CONTINUOUS
10
140.4357129999999927
20
-113.1199439999999896
11
140.3404749999999979
21
-112.7389919999999961
0
LINE
8
BLACK
6
CONTINUOUS
10
140.3404749999999979
20
-112.7389919999999961
11
140.3404749999999979
21
-112.2628009999999961
0
LINE
8
BLACK
6
CONTINUOUS
10
140.3404749999999979
20
-112.2628009999999961
11
140.4357129999999927
21
-111.8818489999999883
0
LINE
8
BLACK
6
CONTINUOUS
10
140.4357129999999927
20
-111.8818489999999883
11
140.5309509999999875
21
-111.6913729999999987
0
LINE
8
BLACK
6
CONTINUOUS
10
140.5309509999999875
20
-111.6913729999999987
11
140.6261889999999823
21
-111.5961349999999896
0
LINE
8
BLACK
6
CONTINUOUS
10
140.6261889999999823
20
-111.5961349999999896
11
140.8166650000000004
21
-111.5008969999999948
0
LINE
8
BLACK
6
CONTINUOUS
10
142.1499989999999798
20
-111.5008969999999948
11
143.4833319999999901
21
-111.5008969999999948
0
LINE
8
BLACK
6
CONTINUOUS
10
143.4833319999999901
20
-111.5008969999999948
11
142.6261889999999823
21
-113.5008969999999948
0
LINE
8
BLACK
6
CONTINUOUS
10
144.6261889999999823
20
-111.5008969999999948
11
144.8166659999999979
21
-111.5008969999999948
0
LINE
8
BLACK
6
CONTINUOUS
10
144.8166659999999979
20
-111.5008969999999948
11
145.0071419999999875
21
-111.5961349999999896
0
LINE
8
BLACK
6
CONTINUOUS
10
145.0071419999999875
20
-111.5961349999999896
11
145.1023799999999824
21
-111.6913729999999987
0
LINE
8
BLACK
6
CONTINUOUS
10
145.1023799999999824
20
-111.6913729999999987
11
145.1976180000000056
21
-111.8818489999999883
0
LINE
8
BLACK
6
CONTINUOUS
10
145.1976180000000056
20
-111.8818489999999883
11
145.2928560000000004
21
-112.2628009999999961
0
LINE
8
BLACK
6
CONTINUOUS
10
145.2928560000000004
20
-112.2628009999999961
11
145.2928560000000004
21
-112.7389919999999961
0
LINE
8
BLACK
6
CONTINUOUS
10
145.2928560000000004
20
-112.7389919999999961
11
145.1976180000000056
21
-113.1199439999999896
0
LINE
8
BLACK
6
CONTINUOUS
10
145.1976180000000056
20
-113.1199439999999896
11
145.1023799999999824
21
-113.3104199999999935
0
LINE
8
BLACK
6
CONTINUOUS
10
145.1023799999999824
20
-113.3104199999999935
11
145.0071419999999875
21
-113.405659
0
LINE
8
BLACK
6
CONTINUOUS
10
145.0071419999999875
20
-113.405659
11
144.8166659999999979
21
-113.5008969999999948
0
LINE
8
BLACK
6
CONTINUOUS
10
144.8166659999999979
20
-113.5008969999999948
11
144.6261889999999823
21
-113.5008969999999948
0
LINE
8
BLACK
6
CONTINUOUS
10
144.6261889999999823
20
-113.5008969999999948
11
144.4357129999999927
21
-113.405659
0
LINE
8
BLACK
6
CONTINUOUS
10
144.4357129999999927
20
-113.405659
11
144.3404749999999979
21
-113.3104199999999935
0
LINE
8
BLACK
6
CONTINUOUS
10
144.3404749999999979
20
-113.3104199999999935
11
144.245237000000003
21
-113.1199439999999896
0
LINE
8
BLACK
6
CONTINUOUS
10
144.245237000000003
20
-113.1199439999999896
11
144.1499989999999798
21
-112.7389919999999961
0
LINE
8
BLACK
6
CONTINUOUS
10
144.1499989999999798
20
-112.7389919999999961
11
144.1499989999999798
21
-112.2628009999999961
0
LINE
8
BLACK
6
CONTINUOUS
10
144.1499989999999798
20
-112.2628009999999961
11
144.245237000000003
21
-111.8818489999999883
0
LINE
8
BLACK
6
CONTINUOUS
10
144.245237000000003
20
-111.8818489999999883
11
144.3404749999999979
21
-111.6913729999999987
0
LINE
8
BLACK
6
CONTINUOUS
10
144.3404749999999979
20
-111.6913729999999987
11
144.4357129999999927
21
-111.5961349999999896
0
LINE
8
BLACK
6
CONTINUOUS
10
144.4357129999999927
20
-111.5961349999999896
11
144.6261889999999823
21
-111.5008969999999948
0
LINE
8
BLACK
6
CONTINUOUS
10
146.245237000000003
20
-113.5008969999999948
11
146.6261889999999823
21
-113.5008969999999948
0
LINE
8
BLACK
6
CONTINUOUS
10
146.6261889999999823
20
-113.5008969999999948
11
146.8166659999999979
21
-113.405659
0
LINE
8
BLACK
6
CONTINUOUS
10
146.8166659999999979
20
-113.405659
11
146.9119039999999927
21
-113.3104199999999935
0
LINE
8
BLACK
6
CONTINUOUS
10
146.9119039999999927
20
-113.3104199999999935
11
147.1023799999999824
21
-113.0247059999999948
0
LINE
8
BLACK
6
CONTINUOUS
10
147.1023799999999824
20
-113.0247059999999948
11
147.1976180000000056
21
-112.6437540000000013
0
LINE
8
BLACK
6
CONTINUOUS
10
147.1976180000000056
20
-112.6437540000000013
11
147.1976180000000056
21
-111.8818489999999883
0
LINE
8
BLACK
6
CONTINUOUS
10
147.1976180000000056
20
-111.8818489999999883
11
147.1023799999999824
21
-111.6913729999999987
0
LINE
8
BLACK
6
CONTINUOUS
10
147.1023799999999824
20
-111.6913729999999987
11
147.0071419999999875
21
-111.5961349999999896
0
LINE
8
BLACK
6
CONTINUOUS
10
147.0071419999999875
20
-111.5961349999999896
11
146.8166659999999979
21
-111.5008969999999948
0
LINE
8
BLACK
6
CONTINUOUS
10
146.8166659999999979
20
-111.5008969999999948
11
146.4357129999999927
21
-111.5008969999999948
0
LINE
8
BLACK
6
CONTINUOUS
10
146.4357129999999927
20
-111.5008969999999948
11
146.245237000000003
21
-111.5961349999999896
0
LINE
8
BLACK
6
CONTINUOUS
10
146.245237000000003
20
-111.5961349999999896
11
146.1499989999999798
21
-111.6913729999999987
0
LINE
8
BLACK
6
CONTINUOUS
10
146.1499989999999798
20
-111.6913729999999987
11
146.054760999999985
21
-111.8818489999999883
0
LINE
8
BLACK
6
CONTINUOUS
10
146.054760999999985
20
-111.8818489999999883
11
146.054760999999985
21
-112.3580389999999909
0
LINE
8
BLACK
6
CONTINUOUS
10
146.054760999999985
20
-112.3580389999999909
11
146.1499989999999798
21
-112.5485159999999922
0
LINE
8
BLACK
6
CONTINUOUS
10
146.1499989999999798
20
-112.5485159999999922
11
146.245237000000003
21
-112.6437540000000013
0
LINE
8
BLACK
6
CONTINUOUS
10
146.245237000000003
20
-112.6437540000000013
11
146.4357129999999927
21
-112.7389919999999961
0
LINE
8
BLACK
6
CONTINUOUS
10
146.4357129999999927
20
-112.7389919999999961
11
146.8166659999999979
21
-112.7389919999999961
0
LINE
8
BLACK
6
CONTINUOUS
10
146.8166659999999979
20
-112.7389919999999961
11
147.0071419999999875
21
-112.6437540000000013
0
LINE
8
BLACK
6
CONTINUOUS
10
147.0071419999999875
20
-112.6437540000000013
11
147.1023799999999824
21
-112.5485159999999922
0
LINE
8
BLACK
6
CONTINUOUS
10
147.1023799999999824
20
-112.5485159999999922
11
147.1976180000000056
21
-112.3580389999999909
0
LINE
8
BLACK
6
CONTINUOUS
10
147.9595229999999901
20
-111.5008969999999948
11
147.9595229999999901
21
-111.8818489999999883
0
LINE
8
BLACK
6
CONTINUOUS
10
148.7214280000000031
20
-111.5008969999999948
11
148.7214280000000031
21
-111.8818489999999883
0
LINE
8
BLACK
6
CONTINUOUS
10
151.6738100000000031
20
-114.2628009999999961
11
151.5785709999999824
21
-114.1675630000000012
0
LINE
8
BLACK
6
CONTINUOUS
10
151.5785709999999824
20
-114.1675630000000012
11
151.3880949999999928
21
-113.8818489999999883
0
LINE
8
BLACK
6
CONTINUOUS
10
151.3880949999999928
20
-113.8818489999999883
11
151.2928569999999979
21
-113.6913729999999987
0
LINE
8
BLACK
6
CONTINUOUS
10
151.2928569999999979
20
-113.6913729999999987
11
151.1976190000000031
21
-113.405659
0
LINE
8
BLACK
6
CONTINUOUS
10
151.1976190000000031
20
-113.405659
11
151.1023809999999798
21
-112.929468
0
LINE
8
BLACK
6
CONTINUOUS
10
151.1023809999999798
20
-112.929468
11
151.1023809999999798
21
-112.5485159999999922
0
LINE
8
BLACK
6
CONTINUOUS
10
151.1023809999999798
20
-112.5485159999999922
11
151.1976190000000031
21
-112.0723249999999922
0
LINE
8
BLACK
6
CONTINUOUS
10
151.1976190000000031
20
-112.0723249999999922
11
151.2928569999999979
21
-111.7866109999999935
0
LINE
8
BLACK
6
CONTINUOUS
10
151.2928569999999979
20
-111.7866109999999935
11
151.3880949999999928
21
-111.5961349999999896
0
LINE
8
BLACK
6
CONTINUOUS
10
151.3880949999999928
20
-111.5961349999999896
11
151.5785709999999824
21
-111.3104199999999935
0
LINE
8
BLACK
6
CONTINUOUS
10
151.5785709999999824
20
-111.3104199999999935
11
151.6738100000000031
21
-111.2151819999999987
0
LINE
8
BLACK
6
CONTINUOUS
10
152.3404759999999953
20
-111.6913729999999987
11
152.4357139999999902
21
-111.5961349999999896
0
LINE
8
BLACK
6
CONTINUOUS
10
152.4357139999999902
20
-111.5961349999999896
11
152.6261899999999798
21
-111.5008969999999948
0
LINE
8
BLACK
6
CONTINUOUS
10
152.6261899999999798
20
-111.5008969999999948
11
153.1023809999999798
21
-111.5008969999999948
0
LINE
8
BLACK
6
CONTINUOUS
10
153.1023809999999798
20
-111.5008969999999948
11
153.2928569999999979
21
-111.5961349999999896
0
LINE
8
BLACK
6
CONTINUOUS
10
153.2928569999999979
20
-111.5961349999999896
11
153.3880949999999928
21
-111.6913729999999987
0
LINE
8
BLACK
6
CONTINUOUS
10
153.3880949999999928
20
-111.6913729999999987
11
153.4833329999999876
21
-111.8818489999999883
0
LINE
8
BLACK
6
CONTINUOUS
10
153.4833329999999876
20
-111.8818489999999883
11
153.4833329999999876
21
-112.0723249999999922
0
LINE
8
BLACK
6
CONTINUOUS
10
153.4833329999999876
20
-112.0723249999999922
11
153.3880949999999928
21
-112.3580389999999909
0
LINE
8
BLACK
6
CONTINUOUS
10
153.3880949999999928
20
-112.3580389999999909
11
152.2452380000000005
21
-113.5008969999999948
0
LINE
8
BLACK
6
CONTINUOUS
10
152.2452380000000005
20
-113.5008969999999948
11
153.4833329999999876
21
-113.5008969999999948
0
LINE
8
BLACK
6
CONTINUOUS
10
155.8642859999999928
20
-113.5008969999999948
11
155.8642859999999928
21
-111.5008969999999948
0
LINE
8
BLACK
6
CONTINUOUS
10
156.7214290000000005
20
-113.5008969999999948
11
156.7214290000000005
21
-112.4532779999999974
0
LINE
8
BLACK
6
CONTINUOUS
10
156.7214290000000005
20
-112.4532779999999974
11
156.6261910000000057
21
-112.2628009999999961
0
LINE
8
BLACK
6
CONTINUOUS
10
156.6261910000000057
20
-112.2628009999999961
11
156.4357149999999876
21
-112.1675630000000012
0
LINE
8
BLACK
6
CONTINUOUS
10
156.4357149999999876
20
-112.1675630000000012
11
156.1500000000000057
21
-112.1675630000000012
0
LINE
8
BLACK
6
CONTINUOUS
10
156.1500000000000057
20
-112.1675630000000012
11
155.9595239999999876
21
-112.2628009999999961
0
LINE
8
BLACK
6
CONTINUOUS
10
155.9595239999999876
20
-112.2628009999999961
11
155.8642859999999928
21
-112.3580389999999909
0
LINE
8
BLACK
6
CONTINUOUS
10
157.9595239999999876
20
-113.5008969999999948
11
157.769047999999998
21
-113.405659
0
LINE
8
BLACK
6
CONTINUOUS
10
157.769047999999998
20
-113.405659
11
157.6738100000000031
21
-113.3104199999999935
0
LINE
8
BLACK
6
CONTINUOUS
10
157.6738100000000031
20
-113.3104199999999935
11
157.5785719999999799
21
-113.1199439999999896
0
LINE
8
BLACK
6
CONTINUOUS
10
157.5785719999999799
20
-113.1199439999999896
11
157.5785719999999799
21
-112.5485159999999922
0
LINE
8
BLACK
6
CONTINUOUS
10
157.5785719999999799
20
-112.5485159999999922
11
157.6738100000000031
21
-112.3580389999999909
0
LINE
8
BLACK
6
CONTINUOUS
10
157.6738100000000031
20
-112.3580389999999909
11
157.769047999999998
21
-112.2628009999999961
0
LINE
8
BLACK
6
CONTINUOUS
10
157.769047999999998
20
-112.2628009999999961
11
157.9595239999999876
21
-112.1675630000000012
0
LINE
8
BLACK
6
CONTINUOUS
10
157.9595239999999876
20
-112.1675630000000012
11
158.245238999999998
21
-112.1675630000000012
0
LINE
8
BLACK
6
CONTINUOUS
10
158.245238999999998
20
-112.1675630000000012
11
158.4357149999999876
21
-112.2628009999999961
0
LINE
8
BLACK
6
CONTINUOUS
10
158.4357149999999876
20
-112.2628009999999961
11
158.5309529999999825
21
-112.3580389999999909
0
LINE
8
BLACK
6
CONTINUOUS
10
158.5309529999999825
20
-112.3580389999999909
11
158.6261910000000057
21
-112.5485159999999922
0
LINE
8
BLACK
6
CONTINUOUS
10
158.6261910000000057
20
-112.5485159999999922
11
158.6261910000000057
21
-113.1199439999999896
0
LINE
8
BLACK
6
CONTINUOUS
10
158.6261910000000057
20
-113.1199439999999896
11
158.5309529999999825
21
-113.3104199999999935
0
LINE
8
BLACK
6
CONTINUOUS
10
158.5309529999999825
20
-113.3104199999999935
11
158.4357149999999876
21
-113.405659
0
LINE
8
BLACK
6
CONTINUOUS
10
158.4357149999999876
20
-113.405659
11
158.245238999999998
21
-113.5008969999999948
0
LINE
8
BLACK
6
CONTINUOUS
10
158.245238999999998
20
-113.5008969999999948
11
157.9595239999999876
21
-113.5008969999999948
0
LINE
8
BLACK
6
CONTINUOUS
10
159.769047999999998
20
-113.5008969999999948
11
159.5785719999999799
21
-113.405659
0
LINE
8
BLACK
6
CONTINUOUS
10
159.5785719999999799
20
-113.405659
11
159.4833339999999851
21
-113.2151819999999987
0
LINE
8
BLACK
6
CONTINUOUS
10
159.4833339999999851
20
-113.2151819999999987
11
159.4833339999999851
21
-111.5008969999999948
0
LINE
8
BLACK
6
CONTINUOUS
10
161.2928579999999954
20
-113.405659
11
161.1023820000000057
21
-113.5008969999999948
0
LINE
8
BLACK
6
CONTINUOUS
10
161.1023820000000057
20
-113.5008969999999948
11
160.7214290000000005
21
-113.5008969999999948
0
LINE
8
BLACK
6
CONTINUOUS
10
160.7214290000000005
20
-113.5008969999999948
11
160.5309529999999825
21
-113.405659
0
LINE
8
BLACK
6
CONTINUOUS
10
160.5309529999999825
20
-113.405659
11
160.4357149999999876
21
-113.2151819999999987
0
LINE
8
BLACK
6
CONTINUOUS
10
160.4357149999999876
20
-113.2151819999999987
11
160.4357149999999876
21
-112.4532779999999974
0
LINE
8
BLACK
6
CONTINUOUS
10
160.4357149999999876
20
-112.4532779999999974
11
160.5309529999999825
21
-112.2628009999999961
0
LINE
8
BLACK
6
CONTINUOUS
10
160.5309529999999825
20
-112.2628009999999961
11
160.7214290000000005
21
-112.1675630000000012
0
LINE
8
BLACK
6
CONTINUOUS
10
160.7214290000000005
20
-112.1675630000000012
11
161.1023820000000057
21
-112.1675630000000012
0
LINE
8
BLACK
6
CONTINUOUS
10
161.1023820000000057
20
-112.1675630000000012
11
161.2928579999999954
21
-112.2628009999999961
0
LINE
8
BLACK
6
CONTINUOUS
10
161.2928579999999954
20
-112.2628009999999961
11
161.3880959999999902
21
-112.4532779999999974
0
LINE
8
BLACK
6
CONTINUOUS
10
161.3880959999999902
20
-112.4532779999999974
11
161.3880959999999902
21
-112.6437540000000013
0
LINE
8
BLACK
6
CONTINUOUS
10
161.3880959999999902
20
-112.6437540000000013
11
160.4357149999999876
21
-112.8342299999999909
0
LINE
8
BLACK
6
CONTINUOUS
10
162.1500010000000032
20
-113.405659
11
162.3404769999999928
21
-113.5008969999999948
0
LINE
8
BLACK
6
CONTINUOUS
10
162.3404769999999928
20
-113.5008969999999948
11
162.7214290000000005
21
-113.5008969999999948
0
LINE
8
BLACK
6
CONTINUOUS
10
162.7214290000000005
20
-113.5008969999999948
11
162.9119059999999877
21
-113.405659
0
LINE
8
BLACK
6
CONTINUOUS
10
162.9119059999999877
20
-113.405659
11
163.0071439999999825
21
-113.2151819999999987
0
LINE
8
BLACK
6
CONTINUOUS
10
163.0071439999999825
20
-113.2151819999999987
11
163.0071439999999825
21
-113.1199439999999896
0
LINE
8
BLACK
6
CONTINUOUS
10
163.0071439999999825
20
-113.1199439999999896
11
162.9119059999999877
21
-112.929468
0
LINE
8
BLACK
6
CONTINUOUS
10
162.9119059999999877
20
-112.929468
11
162.7214290000000005
21
-112.8342299999999909
0
LINE
8
BLACK
6
CONTINUOUS
10
162.7214290000000005
20
-112.8342299999999909
11
162.4357149999999876
21
-112.8342299999999909
0
LINE
8
BLACK
6
CONTINUOUS
10
162.4357149999999876
20
-112.8342299999999909
11
162.245238999999998
21
-112.7389919999999961
0
LINE
8
BLACK
6
CONTINUOUS
10
162.245238999999998
20
-112.7389919999999961
11
162.1500010000000032
21
-112.5485159999999922
0
LINE
8
BLACK
6
CONTINUOUS
10
162.1500010000000032
20
-112.5485159999999922
11
162.1500010000000032
21
-112.4532779999999974
0
LINE
8
BLACK
6
CONTINUOUS
10
162.1500010000000032
20
-112.4532779999999974
11
162.245238999999998
21
-112.2628009999999961
0
LINE
8
BLACK
6
CONTINUOUS
10
162.245238999999998
20
-112.2628009999999961
11
162.4357149999999876
21
-112.1675630000000012
0
LINE
8
BLACK
6
CONTINUOUS
10
162.4357149999999876
20
-112.1675630000000012
11
162.7214290000000005
21
-112.1675630000000012
0
LINE
8
BLACK
6
CONTINUOUS
10
162.7214290000000005
20
-112.1675630000000012
11
162.9119059999999877
21
-112.2628009999999961
0
LINE
8
BLACK
6
CONTINUOUS
10
163.6738110000000006
20
-114.2628009999999961
11
163.7690489999999954
21
-114.1675630000000012
0
LINE
8
BLACK
6
CONTINUOUS
10
163.7690489999999954
20
-114.1675630000000012
11
163.9595249999999851
21
-113.8818489999999883
0
LINE
8
BLACK
6
CONTINUOUS
10
163.9595249999999851
20
-113.8818489999999883
11
164.0547629999999799
21
-113.6913729999999987
0
LINE
8
BLACK
6
CONTINUOUS
10
164.0547629999999799
20
-113.6913729999999987
11
164.1500010000000032
21
-113.405659
0
LINE
8
BLACK
6
CONTINUOUS
10
164.1500010000000032
20
-113.405659
11
164.245238999999998
21
-112.929468
0
LINE
8
BLACK
6
CONTINUOUS
10
164.245238999999998
20
-112.929468
11
164.245238999999998
21
-112.5485159999999922
0
LINE
8
BLACK
6
CONTINUOUS
10
164.245238999999998
20
-112.5485159999999922
11
164.1500010000000032
21
-112.0723249999999922
0
LINE
8
BLACK
6
CONTINUOUS
10
164.1500010000000032
20
-112.0723249999999922
11
164.0547629999999799
21
-111.7866109999999935
0
LINE
8
BLACK
6
CONTINUOUS
10
164.0547629999999799
20
-111.7866109999999935
11
163.9595249999999851
21
-111.5961349999999896
0
LINE
8
BLACK
6
CONTINUOUS
10
163.9595249999999851
20
-111.5961349999999896
11
163.7690489999999954
21
-111.3104199999999935
0
LINE
8
BLACK
6
CONTINUOUS
10
163.7690489999999954
20
-111.3104199999999935
11
163.6738110000000006
21
-111.2151819999999987
0
LINE
8
BLACK
6
CONTINUOUS
10
167.2928589999999929
20
-114.2628009999999961
11
167.1976200000000006
21
-114.1675630000000012
0
LINE
8
BLACK
6
CONTINUOUS
10
167.1976200000000006
20
-114.1675630000000012
11
167.0071439999999825
21
-113.8818489999999883
0
LINE
8
BLACK
6
CONTINUOUS
10
167.0071439999999825
20
-113.8818489999999883
11
166.9119059999999877
21
-113.6913729999999987
0
LINE
8
BLACK
6
CONTINUOUS
10
166.9119059999999877
20
-113.6913729999999987
11
166.8166679999999928
21
-113.405659
0
LINE
8
BLACK
6
CONTINUOUS
10
166.8166679999999928
20
-113.405659
11
166.721429999999998
21
-112.929468
0
LINE
8
BLACK
6
CONTINUOUS
10
166.721429999999998
20
-112.929468
11
166.721429999999998
21
-112.5485159999999922
0
LINE
8
BLACK
6
CONTINUOUS
10
166.721429999999998
20
-112.5485159999999922
11
166.8166679999999928
21
-112.0723249999999922
0
LINE
8
BLACK
6
CONTINUOUS
10
166.8166679999999928
20
-112.0723249999999922
11
166.9119059999999877
21
-111.7866109999999935
0
LINE
8
BLACK
6
CONTINUOUS
10
166.9119059999999877
20
-111.7866109999999935
11
167.0071439999999825
21
-111.5961349999999896
0
LINE
8
BLACK
6
CONTINUOUS
10
167.0071439999999825
20
-111.5961349999999896
11
167.1976200000000006
21
-111.3104199999999935
0
LINE
8
BLACK
6
CONTINUOUS
10
167.1976200000000006
20
-111.3104199999999935
11
167.2928589999999929
21
-111.2151819999999987
0
LINE
8
BLACK
6
CONTINUOUS
10
168.0547629999999799
20
-112.1675630000000012
11
168.0547629999999799
21
-113.5008969999999948
0
LINE
8
BLACK
6
CONTINUOUS
10
168.0547629999999799
20
-112.3580389999999909
11
168.1500010000000032
21
-112.2628009999999961
0
LINE
8
BLACK
6
CONTINUOUS
10
168.1500010000000032
20
-112.2628009999999961
11
168.3404769999999928
21
-112.1675630000000012
0
LINE
8
BLACK
6
CONTINUOUS
10
168.3404769999999928
20
-112.1675630000000012
11
168.6261920000000032
21
-112.1675630000000012
0
LINE
8
BLACK
6
CONTINUOUS
10
168.6261920000000032
20
-112.1675630000000012
11
168.8166679999999928
21
-112.2628009999999961
0
LINE
8
BLACK
6
CONTINUOUS
10
168.8166679999999928
20
-112.2628009999999961
11
168.9119059999999877
21
-112.4532779999999974
0
LINE
8
BLACK
6
CONTINUOUS
10
168.9119059999999877
20
-112.4532779999999974
11
168.9119059999999877
21
-113.5008969999999948
0
LINE
8
BLACK
6
CONTINUOUS
10
170.1500010000000032
20
-113.5008969999999948
11
169.9595249999999851
21
-113.405659
0
LINE
8
BLACK
6
CONTINUOUS
10
169.9595249999999851
20
-113.405659
11
169.8642869999999903
21
-113.3104199999999935
0
LINE
8
BLACK
6
CONTINUOUS
10
169.8642869999999903
20
-113.3104199999999935
11
169.7690489999999954
21
-113.1199439999999896
0
LINE
8
BLACK
6
CONTINUOUS
10
169.7690489999999954
20
-113.1199439999999896
11
169.7690489999999954
21
-112.5485159999999922
0
LINE
8
BLACK
6
CONTINUOUS
10
169.7690489999999954
20
-112.5485159999999922
11
169.8642869999999903
21
-112.3580389999999909
0
LINE
8
BLACK
6
CONTINUOUS
10
169.8642869999999903
20
-112.3580389999999909
11
169.9595249999999851
21
-112.2628009999999961
0
LINE
8
BLACK
6
CONTINUOUS
10
169.9595249999999851
20
-112.2628009999999961
11
170.1500010000000032
21
-112.1675630000000012
0
LINE
8
BLACK
6
CONTINUOUS
10
170.1500010000000032
20
-112.1675630000000012
11
170.4357159999999851
21
-112.1675630000000012
0
LINE
8
BLACK
6
CONTINUOUS
10
170.4357159999999851
20
-112.1675630000000012
11
170.6261920000000032
21
-112.2628009999999961
0
LINE
8
BLACK
6
CONTINUOUS
10
170.6261920000000032
20
-112.2628009999999961
11
170.721429999999998
21
-112.3580389999999909
0
LINE
8
BLACK
6
CONTINUOUS
10
170.721429999999998
20
-112.3580389999999909
11
170.8166679999999928
21
-112.5485159999999922
0
LINE
8
BLACK
6
CONTINUOUS
10
170.8166679999999928
20
-112.5485159999999922
11
170.8166679999999928
21
-113.1199439999999896
0
LINE
8
BLACK
6
CONTINUOUS
10
170.8166679999999928
20
-113.1199439999999896
11
170.721429999999998
21
-113.3104199999999935
0
LINE
8
BLACK
6
CONTINUOUS
10
170.721429999999998
20
-113.3104199999999935
11
170.6261920000000032
21
-113.405659
0
LINE
8
BLACK
6
CONTINUOUS
10
170.6261920000000032
20
-113.405659
11
170.4357159999999851
21
-113.5008969999999948
0
LINE
8
BLACK
6
CONTINUOUS
10
170.4357159999999851
20
-113.5008969999999948
11
170.1500010000000032
21
-113.5008969999999948
0
LINE
8
BLACK
6
CONTINUOUS
10
171.3880969999999877
20
-112.1675630000000012
11
172.1500010000000032
21
-112.1675630000000012
0
LINE
8
BLACK
6
CONTINUOUS
10
171.6738110000000006
20
-111.5008969999999948
11
171.6738110000000006
21
-113.2151819999999987
0
LINE
8
BLACK
6
CONTINUOUS
10
171.6738110000000006
20
-113.2151819999999987
11
171.7690489999999954
21
-113.405659
0
LINE
8
BLACK
6
CONTINUOUS
10
171.7690489999999954
20
-113.405659
11
171.9595249999999851
21
-113.5008969999999948
0
LINE
8
BLACK
6
CONTINUOUS
10
171.9595249999999851
20
-113.5008969999999948
11
172.1500010000000032
21
-113.5008969999999948
0
LINE
8
BLACK
6
CONTINUOUS
10
174.3404779999999903
20
-112.1675630000000012
11
174.3404779999999903
21
-114.1675630000000012
0
LINE
8
BLACK
6
CONTINUOUS
10
174.3404779999999903
20
-112.2628009999999961
11
174.5309539999999799
21
-112.1675630000000012
0
LINE
8
BLACK
6
CONTINUOUS
10
174.5309539999999799
20
-112.1675630000000012
11
174.9119069999999851
21
-112.1675630000000012
0
LINE
8
BLACK
6
CONTINUOUS
10
174.9119069999999851
20
-112.1675630000000012
11
175.1023830000000032
21
-112.2628009999999961
0
LINE
8
BLACK
6
CONTINUOUS
10
175.1023830000000032
20
-112.2628009999999961
11
175.197620999999998
21
-112.3580389999999909
0
LINE
8
BLACK
6
CONTINUOUS
10
175.197620999999998
20
-112.3580389999999909
11
175.2928589999999929
21
-112.5485159999999922
0
LINE
8
BLACK
6
CONTINUOUS
10
175.2928589999999929
20
-112.5485159999999922
11
175.2928589999999929
21
-113.1199439999999896
0
LINE
8
BLACK
6
CONTINUOUS
10
175.2928589999999929
20
-113.1199439999999896
11
175.197620999999998
21
-113.3104199999999935
0
LINE
8
BLACK
6
CONTINUOUS
10
175.197620999999998
20
-113.3104199999999935
11
175.1023830000000032
21
-113.405659
0
LINE
8
BLACK
6
CONTINUOUS
10
175.1023830000000032
20
-113.405659
11
174.9119069999999851
21
-113.5008969999999948
0
LINE
8
BLACK
6
CONTINUOUS
10
174.9119069999999851
20
-113.5008969999999948
11
174.5309539999999799
21
-113.5008969999999948
0
LINE
8
BLACK
6
CONTINUOUS
10
174.5309539999999799
20
-113.5008969999999948
11
174.3404779999999903
21
-113.405659
0
LINE
8
BLACK
6
CONTINUOUS
10
176.4357159999999851
20
-113.5008969999999948
11
176.2452399999999955
21
-113.405659
0
LINE
8
BLACK
6
CONTINUOUS
10
176.2452399999999955
20
-113.405659
11
176.1500020000000006
21
-113.2151819999999987
0
LINE
8
BLACK
6
CONTINUOUS
10
176.1500020000000006
20
-113.2151819999999987
11
176.1500020000000006
21
-111.5008969999999948
0
LINE
8
BLACK
6
CONTINUOUS
10
178.0547640000000058
20
-113.5008969999999948
11
178.0547640000000058
21
-112.4532779999999974
0
LINE
8
BLACK
6
CONTINUOUS
10
178.0547640000000058
20
-112.4532779999999974
11
177.9595259999999826
21
-112.2628009999999961
0
LINE
8
BLACK
6
CONTINUOUS
10
177.9595259999999826
20
-112.2628009999999961
11
177.7690499999999929
21
-112.1675630000000012
0
LINE
8
BLACK
6
CONTINUOUS
10
177.7690499999999929
20
-112.1675630000000012
11
177.3880969999999877
21
-112.1675630000000012
0
LINE
8
BLACK
6
CONTINUOUS
10
177.3880969999999877
20
-112.1675630000000012
11
177.197620999999998
21
-112.2628009999999961
0
LINE
8
BLACK
6
CONTINUOUS
10
178.0547640000000058
20
-113.405659
11
177.8642879999999877
21
-113.5008969999999948
0
LINE
8
BLACK
6
CONTINUOUS
10
177.8642879999999877
20
-113.5008969999999948
11
177.3880969999999877
21
-113.5008969999999948
0
LINE
8
BLACK
6
CONTINUOUS
10
177.3880969999999877
20
-113.5008969999999948
11
177.197620999999998
21
-113.405659
0
LINE
8
BLACK
6
CONTINUOUS
10
177.197620999999998
20
-113.405659
11
177.1023830000000032
21
-113.2151819999999987
0
LINE
8
BLACK
6
CONTINUOUS
10
177.1023830000000032
20
-113.2151819999999987
11
177.1023830000000032
21
-113.0247059999999948
0
LINE
8
BLACK
6
CONTINUOUS
10
177.1023830000000032
20
-113.0247059999999948
11
177.197620999999998
21
-112.8342299999999909
0
LINE
8
BLACK
6
CONTINUOUS
10
177.197620999999998
20
-112.8342299999999909
11
177.3880969999999877
21
-112.7389919999999961
0
LINE
8
BLACK
6
CONTINUOUS
10
177.3880969999999877
20
-112.7389919999999961
11
177.8642879999999877
21
-112.7389919999999961
0
LINE
8
BLACK
6
CONTINUOUS
10
177.8642879999999877
20
-112.7389919999999961
11
178.0547640000000058
21
-112.6437540000000013
0
LINE
8
BLACK
6
CONTINUOUS
10
178.7214309999999955
20
-112.1675630000000012
11
179.4833349999999825
21
-112.1675630000000012
0
LINE
8
BLACK
6
CONTINUOUS
10
179.00714499999998
20
-111.5008969999999948
11
179.00714499999998
21
-113.2151819999999987
0
LINE
8
BLACK
6
CONTINUOUS
10
179.00714499999998
20
-113.2151819999999987
11
179.1023830000000032
21
-113.405659
0
LINE
8
BLACK
6
CONTINUOUS
10
179.1023830000000032
20
-113.405659
11
179.2928589999999929
21
-113.5008969999999948
0
LINE
8
BLACK
6
CONTINUOUS
10
179.2928589999999929
20
-113.5008969999999948
11
179.4833349999999825
21
-113.5008969999999948
0
LINE
8
BLACK
6
CONTINUOUS
10
180.9119069999999851
20
-113.405659
11
180.7214309999999955
21
-113.5008969999999948
0
LINE
8
BLACK
6
CONTINUOUS
10
180.7214309999999955
20
-113.5008969999999948
11
180.3404779999999903
21
-113.5008969999999948
0
LINE
8
BLACK
6
CONTINUOUS
10
180.3404779999999903
20
-113.5008969999999948
11
180.1500020000000006
21
-113.405659
0
LINE
8
BLACK
6
CONTINUOUS
10
180.1500020000000006
20
-113.405659
11
180.0547640000000058
21
-113.2151819999999987
0
LINE
8
BLACK
6
CONTINUOUS
10
180.0547640000000058
20
-113.2151819999999987
11
180.0547640000000058
21
-112.4532779999999974
0
LINE
8
BLACK
6
CONTINUOUS
10
180.0547640000000058
20
-112.4532779999999974
11
180.1500020000000006
21
-112.2628009999999961
0
LINE
8
BLACK
6
CONTINUOUS
10
180.1500020000000006
20
-112.2628009999999961
11
180.3404779999999903
21
-112.1675630000000012
0
LINE
8
BLACK
6
CONTINUOUS
10
180.3404779999999903
20
-112.1675630000000012
11
180.7214309999999955
21
-112.1675630000000012
0
LINE
8
BLACK
6
CONTINUOUS
10
180.7214309999999955
20
-112.1675630000000012
11
180.9119069999999851
21
-112.2628009999999961
0
LINE
8
BLACK
6
CONTINUOUS
10
180.9119069999999851
20
-112.2628009999999961
11
181.00714499999998
21
-112.4532779999999974
0
LINE
8
BLACK
6
CONTINUOUS
10
181.00714499999998
20
-112.4532779999999974
11
181.00714499999998
21
-112.6437540000000013
0
LINE
8
BLACK
6
CONTINUOUS
10
181.00714499999998
20
-112.6437540000000013
11
180.0547640000000058
21
-112.8342299999999909
0
LINE
8
BLACK
6
CONTINUOUS
10
182.7214309999999955
20
-113.5008969999999948
11
182.7214309999999955
21
-111.5008969999999948
0
LINE
8
BLACK
6
CONTINUOUS
10
182.7214309999999955
20
-113.405659
11
182.5309550000000058
21
-113.5008969999999948
0
LINE
8
BLACK
6
CONTINUOUS
10
182.5309550000000058
20
-113.5008969999999948
11
182.1500020000000006
21
-113.5008969999999948
0
LINE
8
BLACK
6
CONTINUOUS
10
182.1500020000000006
20
-113.5008969999999948
11
181.9595259999999826
21
-113.405659
0
LINE
8
BLACK
6
CONTINUOUS
10
181.9595259999999826
20
-113.405659
11
181.8642879999999877
21
-113.3104199999999935
0
LINE
8
BLACK
6
CONTINUOUS
10
181.8642879999999877
20
-113.3104199999999935
11
181.7690499999999929
21
-113.1199439999999896
0
LINE
8
BLACK
6
CONTINUOUS
10
181.7690499999999929
20
-113.1199439999999896
11
181.7690499999999929
21
-112.5485159999999922
0
LINE
8
BLACK
6
CONTINUOUS
10
181.7690499999999929
20
-112.5485159999999922
11
181.8642879999999877
21
-112.3580389999999909
0
LINE
8
BLACK
6
CONTINUOUS
10
181.8642879999999877
20
-112.3580389999999909
11
181.9595259999999826
21
-112.2628009999999961
0
LINE
8
BLACK
6
CONTINUOUS
10
181.9595259999999826
20
-112.2628009999999961
11
182.1500020000000006
21
-112.1675630000000012
0
LINE
8
BLACK
6
CONTINUOUS
10
182.1500020000000006
20
-112.1675630000000012
11
182.5309550000000058
21
-112.1675630000000012
0
LINE
8
BLACK
6
CONTINUOUS
10
182.5309550000000058
20
-112.1675630000000012
11
182.7214309999999955
21
-112.2628009999999961
0
LINE
8
BLACK
6
CONTINUOUS
10
183.48333599999998
20
-114.2628009999999961
11
183.5785740000000033
21
-114.1675630000000012
0
LINE
8
BLACK
6
CONTINUOUS
10
183.5785740000000033
20
-114.1675630000000012
11
183.7690499999999929
21
-113.8818489999999883
0
LINE
8
BLACK
6
CONTINUOUS
10
183.7690499999999929
20
-113.8818489999999883
11
183.8642879999999877
21
-113.6913729999999987
0
LINE
8
BLACK
6
CONTINUOUS
10
183.8642879999999877
20
-113.6913729999999987
11
183.9595259999999826
21
-113.405659
0
LINE
8
BLACK
6
CONTINUOUS
10
183.9595259999999826
20
-113.405659
11
184.0547640000000058
21
-112.929468
0
LINE
8
BLACK
6
CONTINUOUS
10
184.0547640000000058
20
-112.929468
11
184.0547640000000058
21
-112.5485159999999922
0
LINE
8
BLACK
6
CONTINUOUS
10
184.0547640000000058
20
-112.5485159999999922
11
183.9595259999999826
21
-112.0723249999999922
0
LINE
8
BLACK
6
CONTINUOUS
10
183.9595259999999826
20
-112.0723249999999922
11
183.8642879999999877
21
-111.7866109999999935
0
LINE
8
BLACK
6
CONTINUOUS
10
183.8642879999999877
20
-111.7866109999999935
11
183.7690499999999929
21
-111.5961349999999896
0
LINE
8
BLACK
6
CONTINUOUS
10
183.7690499999999929
20
-111.5961349999999896
11
183.5785740000000033
21
-111.3104199999999935
0
LINE
8
BLACK
6
CONTINUOUS
10
183.5785740000000033
20
-111.3104199999999935
11
183.48333599999998
21
-111.2151819999999987
0
CIRCLE
8
BLACK
10
114.9231809999999996
20
-115.5860589999999917
40
1.
0
LINE
8
BLACK
6
CONTINUOUS
10
118.3404729999999887
20
-114.5008969999999948
11
119.57856799999999
21
-114.5008969999999948
0
LINE
8
BLACK
6
CONTINUOUS
10
119.57856799999999
20
-114.5008969999999948
11
118.9119010000000003
21
-115.2628009999999961
0
LINE
8
BLACK
6
CONTINUOUS
10
118.9119010000000003
20
-115.2628009999999961
11
119.1976159999999965
21
-115.2628009999999961
0
LINE
8
BLACK
6
CONTINUOUS
10
119.1976159999999965
20
-115.2628009999999961
11
119.3880920000000003
21
-115.3580389999999909
0
LINE
8
BLACK
6
CONTINUOUS
10
119.3880920000000003
20
-115.3580389999999909
11
119.4833299999999952
21
-115.4532779999999974
0
LINE
8
BLACK
6
CONTINUOUS
10
119.4833299999999952
20
-115.4532779999999974
11
119.57856799999999
21
-115.6437540000000013
0
LINE
8
BLACK
6
CONTINUOUS
10
119.57856799999999
20
-115.6437540000000013
11
119.57856799999999
21
-116.1199439999999896
0
LINE
8
BLACK
6
CONTINUOUS
10
119.57856799999999
20
-116.1199439999999896
11
119.4833299999999952
21
-116.3104199999999935
0
LINE
8
BLACK
6
CONTINUOUS
10
119.4833299999999952
20
-116.3104199999999935
11
119.3880920000000003
21
-116.405659
0
LINE
8
BLACK
6
CONTINUOUS
10
119.3880920000000003
20
-116.405659
11
119.1976159999999965
21
-116.5008969999999948
0
LINE
8
BLACK
6
CONTINUOUS
10
119.1976159999999965
20
-116.5008969999999948
11
118.6261870000000016
21
-116.5008969999999948
0
LINE
8
BLACK
6
CONTINUOUS
10
118.6261870000000016
20
-116.5008969999999948
11
118.4357109999999977
21
-116.405659
0
LINE
8
BLACK
6
CONTINUOUS
10
118.4357109999999977
20
-116.405659
11
118.3404729999999887
21
-116.3104199999999935
0
LINE
8
BLACK
6
CONTINUOUS
10
120.4357109999999977
20
-116.3104199999999935
11
120.5309489999999926
21
-116.405659
0
LINE
8
BLACK
6
CONTINUOUS
10
120.5309489999999926
20
-116.405659
11
120.4357109999999977
21
-116.5008969999999948
0
LINE
8
BLACK
6
CONTINUOUS
10
120.4357109999999977
20
-116.5008969999999948
11
120.3404729999999887
21
-116.405659
0
LINE
8
BLACK
6
CONTINUOUS
10
120.3404729999999887
20
-116.405659
11
120.4357109999999977
21
-116.3104199999999935
0
LINE
8
BLACK
6
CONTINUOUS
10
120.4357109999999977
20
-116.3104199999999935
11
120.4357109999999977
21
-116.5008969999999948
0
LINE
8
BLACK
6
CONTINUOUS
10
121.7690439999999938
20
-114.5008969999999948
11
121.9595209999999952
21
-114.5008969999999948
0
LINE
8
BLACK
6
CONTINUOUS
10
121.9595209999999952
20
-114.5008969999999948
11
122.149996999999999
21
-114.5961349999999896
0
LINE
8
BLACK
6
CONTINUOUS
10
122.149996999999999
20
-114.5961349999999896
11
122.2452349999999939
21
-114.6913729999999987
0
LINE
8
BLACK
6
CONTINUOUS
10
122.2452349999999939
20
-114.6913729999999987
11
122.3404729999999887
21
-114.8818489999999883
0
LINE
8
BLACK
6
CONTINUOUS
10
122.3404729999999887
20
-114.8818489999999883
11
122.4357109999999977
21
-115.2628009999999961
0
LINE
8
BLACK
6
CONTINUOUS
10
122.4357109999999977
20
-115.2628009999999961
11
122.4357109999999977
21
-115.7389919999999961
0
LINE
8
BLACK
6
CONTINUOUS
10
122.4357109999999977
20
-115.7389919999999961
11
122.3404729999999887
21
-116.1199439999999896
0
LINE
8
BLACK
6
CONTINUOUS
10
122.3404729999999887
20
-116.1199439999999896
11
122.2452349999999939
21
-116.3104199999999935
0
LINE
8
BLACK
6
CONTINUOUS
10
122.2452349999999939
20
-116.3104199999999935
11
122.149996999999999
21
-116.405659
0
LINE
8
BLACK
6
CONTINUOUS
10
122.149996999999999
20
-116.405659
11
121.9595209999999952
21
-116.5008969999999948
0
LINE
8
BLACK
6
CONTINUOUS
10
121.9595209999999952
20
-116.5008969999999948
11
121.7690439999999938
21
-116.5008969999999948
0
LINE
8
BLACK
6
CONTINUOUS
10
121.7690439999999938
20
-116.5008969999999948
11
121.57856799999999
21
-116.405659
0
LINE
8
BLACK
6
CONTINUOUS
10
121.57856799999999
20
-116.405659
11
121.4833299999999952
21
-116.3104199999999935
0
LINE
8
BLACK
6
CONTINUOUS
10
121.4833299999999952
20
-116.3104199999999935
11
121.3880920000000003
21
-116.1199439999999896
0
LINE
8
BLACK
6
CONTINUOUS
10
121.3880920000000003
20
-116.1199439999999896
11
121.2928539999999913
21
-115.7389919999999961
0
LINE
8
BLACK
6
CONTINUOUS
10
121.2928539999999913
20
-115.7389919999999961
11
121.2928539999999913
21
-115.2628009999999961
0
LINE
8
BLACK
6
CONTINUOUS
10
121.2928539999999913
20
-115.2628009999999961
11
121.3880920000000003
21
-114.8818489999999883
0
LINE
8
BLACK
6
CONTINUOUS
10
121.3880920000000003
20
-114.8818489999999883
11
121.4833299999999952
21
-114.6913729999999987
0
LINE
8
BLACK
6
CONTINUOUS
10
121.4833299999999952
20
-114.6913729999999987
11
121.57856799999999
21
-114.5961349999999896
0
LINE
8
BLACK
6
CONTINUOUS
10
121.57856799999999
20
-114.5961349999999896
11
121.7690439999999938
21
-114.5008969999999948
0
LINE
8
BLACK
6
CONTINUOUS
10
123.673805999999999
20
-114.5008969999999948
11
123.8642830000000004
21
-114.5008969999999948
0
LINE
8
BLACK
6
CONTINUOUS
10
123.8642830000000004
20
-114.5008969999999948
11
124.05475899999999
21
-114.5961349999999896
0
LINE
8
BLACK
6
CONTINUOUS
10
124.05475899999999
20
-114.5961349999999896
11
124.149996999999999
21
-114.6913729999999987
0
LINE
8
BLACK
6
CONTINUOUS
10
124.149996999999999
20
-114.6913729999999987
11
124.2452349999999939
21
-114.8818489999999883
0
LINE
8
BLACK
6
CONTINUOUS
10
124.2452349999999939
20
-114.8818489999999883
11
124.3404729999999887
21
-115.2628009999999961
0
LINE
8
BLACK
6
CONTINUOUS
10
124.3404729999999887
20
-115.2628009999999961
11
124.3404729999999887
21
-115.7389919999999961
0
LINE
8
BLACK
6
CONTINUOUS
10
124.3404729999999887
20
-115.7389919999999961
11
124.2452349999999939
21
-116.1199439999999896
0
LINE
8
BLACK
6
CONTINUOUS
10
124.2452349999999939
20
-116.1199439999999896
11
124.149996999999999
21
-116.3104199999999935
0
LINE
8
BLACK
6
CONTINUOUS
10
124.149996999999999
20
-116.3104199999999935
11
124.05475899999999
21
-116.405659
0
LINE
8
BLACK
6
CONTINUOUS
10
124.05475899999999
20
-116.405659
11
123.8642830000000004
21
-116.5008969999999948
0
LINE
8
BLACK
6
CONTINUOUS
10
123.8642830000000004
20
-116.5008969999999948
11
123.673805999999999
21
-116.5008969999999948
0
LINE
8
BLACK
6
CONTINUOUS
10
123.673805999999999
20
-116.5008969999999948
11
123.4833299999999952
21
-116.405659
0
LINE
8
BLACK
6
CONTINUOUS
10
123.4833299999999952
20
-116.405659
11
123.3880920000000003
21
-116.3104199999999935
0
LINE
8
BLACK
6
CONTINUOUS
10
123.3880920000000003
20
-116.3104199999999935
11
123.2928539999999913
21
-116.1199439999999896
0
LINE
8
BLACK
6
CONTINUOUS
10
123.2928539999999913
20
-116.1199439999999896
11
123.1976159999999965
21
-115.7389919999999961
0
LINE
8
BLACK
6
CONTINUOUS
10
123.1976159999999965
20
-115.7389919999999961
11
123.1976159999999965
21
-115.2628009999999961
0
LINE
8
BLACK
6
CONTINUOUS
10
123.1976159999999965
20
-115.2628009999999961
11
123.2928539999999913
21
-114.8818489999999883
0
LINE
8
BLACK
6
CONTINUOUS
10
123.2928539999999913
20
-114.8818489999999883
11
123.3880920000000003
21
-114.6913729999999987
0
LINE
8
BLACK
6
CONTINUOUS
10
123.3880920000000003
20
-114.6913729999999987
11
123.4833299999999952
21
-114.5961349999999896
0
LINE
8
BLACK
6
CONTINUOUS
10
123.4833299999999952
20
-114.5961349999999896
11
123.673805999999999
21
-114.5008969999999948
0
LINE
8
BLACK
6
CONTINUOUS
10
125.57856799999999
20
-114.5008969999999948
11
125.7690449999999913
21
-114.5008969999999948
0
LINE
8
BLACK
6
CONTINUOUS
10
125.7690449999999913
20
-114.5008969999999948
11
125.9595209999999952
21
-114.5961349999999896
0
LINE
8
BLACK
6
CONTINUOUS
10
125.9595209999999952
20
-114.5961349999999896
11
126.05475899999999
21
-114.6913729999999987
0
LINE
8
BLACK
6
CONTINUOUS
10
126.05475899999999
20
-114.6913729999999987
11
126.149996999999999
21
-114.8818489999999883
0
LINE
8
BLACK
6
CONTINUOUS
10
126.149996999999999
20
-114.8818489999999883
11
126.2452349999999939
21
-115.2628009999999961
0
LINE
8
BLACK
6
CONTINUOUS
10
126.2452349999999939
20
-115.2628009999999961
11
126.2452349999999939
21
-115.7389919999999961
0
LINE
8
BLACK
6
CONTINUOUS
10
126.2452349999999939
20
-115.7389919999999961
11
126.149996999999999
21
-116.1199439999999896
0
LINE
8
BLACK
6
CONTINUOUS
10
126.149996999999999
20
-116.1199439999999896
11
126.05475899999999
21
-116.3104199999999935
0
LINE
8
BLACK
6
CONTINUOUS
10
126.05475899999999
20
-116.3104199999999935
11
125.9595209999999952
21
-116.405659
0
LINE
8
BLACK
6
CONTINUOUS
10
125.9595209999999952
20
-116.405659
11
125.7690449999999913
21
-116.5008969999999948
0
LINE
8
BLACK
6
CONTINUOUS
10
125.7690449999999913
20
-116.5008969999999948
11
125.57856799999999
21
-116.5008969999999948
0
LINE
8
BLACK
6
CONTINUOUS
10
125.57856799999999
20
-116.5008969999999948
11
125.3880920000000003
21
-116.405659
0
LINE
8
BLACK
6
CONTINUOUS
10
125.3880920000000003
20
-116.405659
11
125.2928539999999913
21
-116.3104199999999935
0
LINE
8
BLACK
6
CONTINUOUS
10
125.2928539999999913
20
-116.3104199999999935
11
125.1976159999999965
21
-116.1199439999999896
0
LINE
8
BLACK
6
CONTINUOUS
10
125.1976159999999965
20
-116.1199439999999896
11
125.1023779999999874
21
-115.7389919999999961
0
LINE
8
BLACK
6
CONTINUOUS
10
125.1023779999999874
20
-115.7389919999999961
11
125.1023779999999874
21
-115.2628009999999961
0
LINE
8
BLACK
6
CONTINUOUS
10
125.1023779999999874
20
-115.2628009999999961
11
125.1976159999999965
21
-114.8818489999999883
0
LINE
8
BLACK
6
CONTINUOUS
10
125.1976159999999965
20
-114.8818489999999883
11
125.2928539999999913
21
-114.6913729999999987
0
LINE
8
BLACK
6
CONTINUOUS
10
125.2928539999999913
20
-114.6913729999999987
11
125.3880920000000003
21
-114.5961349999999896
0
LINE
8
BLACK
6
CONTINUOUS
10
125.3880920000000003
20
-114.5961349999999896
11
125.57856799999999
21
-114.5008969999999948
0
LINE
8
BLACK
6
CONTINUOUS
10
127.1023779999999874
20
-116.5008969999999948
11
127.1023779999999874
21
-115.1675630000000012
0
LINE
8
BLACK
6
CONTINUOUS
10
127.1023779999999874
20
-115.3580389999999909
11
127.1976159999999965
21
-115.2628009999999961
0
LINE
8
BLACK
6
CONTINUOUS
10
127.1976159999999965
20
-115.2628009999999961
11
127.3880920000000003
21
-115.1675630000000012
0
LINE
8
BLACK
6
CONTINUOUS
10
127.3880920000000003
20
-115.1675630000000012
11
127.6738069999999965
21
-115.1675630000000012
0
LINE
8
BLACK
6
CONTINUOUS
10
127.6738069999999965
20
-115.1675630000000012
11
127.8642830000000004
21
-115.2628009999999961
0
LINE
8
BLACK
6
CONTINUOUS
10
127.8642830000000004
20
-115.2628009999999961
11
127.9595209999999952
21
-115.4532779999999974
0
LINE
8
BLACK
6
CONTINUOUS
10
127.9595209999999952
20
-115.4532779999999974
11
127.9595209999999952
21
-116.5008969999999948
0
LINE
8
BLACK
6
CONTINUOUS
10
127.9595209999999952
20
-115.4532779999999974
11
128.05475899999999
21
-115.2628009999999961
0
LINE
8
BLACK
6
CONTINUOUS
10
128.05475899999999
20
-115.2628009999999961
11
128.2452350000000081
21
-115.1675630000000012
0
LINE
8
BLACK
6
CONTINUOUS
10
128.2452350000000081
20
-115.1675630000000012
11
128.5309489999999926
21
-115.1675630000000012
0
LINE
8
BLACK
6
CONTINUOUS
10
128.5309489999999926
20
-115.1675630000000012
11
128.7214260000000081
21
-115.2628009999999961
0
LINE
8
BLACK
6
CONTINUOUS
10
128.7214260000000081
20
-115.2628009999999961
11
128.8166640000000029
21
-115.4532779999999974
0
LINE
8
BLACK
6
CONTINUOUS
10
128.8166640000000029
20
-115.4532779999999974
11
128.8166640000000029
21
-116.5008969999999948
0
LINE
8
BLACK
6
CONTINUOUS
10
129.7690450000000055
20
-116.5008969999999948
11
129.7690450000000055
21
-115.1675630000000012
0
LINE
8
BLACK
6
CONTINUOUS
10
129.7690450000000055
20
-115.3580389999999909
11
129.8642830000000004
21
-115.2628009999999961
0
LINE
8
BLACK
6
CONTINUOUS
10
129.8642830000000004
20
-115.2628009999999961
11
130.05475899999999
21
-115.1675630000000012
0
LINE
8
BLACK
6
CONTINUOUS
10
130.05475899999999
20
-115.1675630000000012
11
130.3404740000000004
21
-115.1675630000000012
0
LINE
8
BLACK
6
CONTINUOUS
10
130.3404740000000004
20
-115.1675630000000012
11
130.53094999999999
21
-115.2628009999999961
0
LINE
8
BLACK
6
CONTINUOUS
10
130.53094999999999
20
-115.2628009999999961
11
130.6261879999999849
21
-115.4532779999999974
0
LINE
8
BLACK
6
CONTINUOUS
10
130.6261879999999849
20
-115.4532779999999974
11
130.6261879999999849
21
-116.5008969999999948
0
LINE
8
BLACK
6
CONTINUOUS
10
130.6261879999999849
20
-115.4532779999999974
11
130.7214260000000081
21
-115.2628009999999961
0
LINE
8
BLACK
6
CONTINUOUS
10
130.7214260000000081
20
-115.2628009999999961
11
130.9119019999999978
21
-115.1675630000000012
0
LINE
8
BLACK
6
CONTINUOUS
10
130.9119019999999978
20
-115.1675630000000012
11
131.1976159999999823
21
-115.1675630000000012
0
LINE
8
BLACK
6
CONTINUOUS
10
131.1976159999999823
20
-115.1675630000000012
11
131.3880929999999978
21
-115.2628009999999961
0
LINE
8
BLACK
6
CONTINUOUS
10
131.3880929999999978
20
-115.2628009999999961
11
131.4833309999999926
21
-115.4532779999999974
0
LINE
8
BLACK
6
CONTINUOUS
10
131.4833309999999926
20
-115.4532779999999974
11
131.4833309999999926
21
-116.5008969999999948
0
LINE
8
BLACK
6
CONTINUOUS
10
135.3880929999999978
20
-114.405659
11
133.6738079999999798
21
-116.9770869999999974
0
LINE
8
BLACK
6
CONTINUOUS
10
137.9595219999999927
20
-114.5008969999999948
11
138.1499989999999798
21
-114.5008969999999948
0
LINE
8
BLACK
6
CONTINUOUS
10
138.1499989999999798
20
-114.5008969999999948
11
138.3404749999999979
21
-114.5961349999999896
0
LINE
8
BLACK
6
CONTINUOUS
10
138.3404749999999979
20
-114.5961349999999896
11
138.4357129999999927
21
-114.6913729999999987
0
LINE
8
BLACK
6
CONTINUOUS
10
138.4357129999999927
20
-114.6913729999999987
11
138.5309509999999875
21
-114.8818489999999883
0
LINE
8
BLACK
6
CONTINUOUS
10
138.5309509999999875
20
-114.8818489999999883
11
138.6261889999999823
21
-115.2628009999999961
0
LINE
8
BLACK
6
CONTINUOUS
10
138.6261889999999823
20
-115.2628009999999961
11
138.6261889999999823
21
-115.7389919999999961
0
LINE
8
BLACK
6
CONTINUOUS
10
138.6261889999999823
20
-115.7389919999999961
11
138.5309509999999875
21
-116.1199439999999896
0
LINE
8
BLACK
6
CONTINUOUS
10
138.5309509999999875
20
-116.1199439999999896
11
138.4357129999999927
21
-116.3104199999999935
0
LINE
8
BLACK
6
CONTINUOUS
10
138.4357129999999927
20
-116.3104199999999935
11
138.3404749999999979
21
-116.405659
0
LINE
8
BLACK
6
CONTINUOUS
10
138.3404749999999979
20
-116.405659
11
138.1499989999999798
21
-116.5008969999999948
0
LINE
8
BLACK
6
CONTINUOUS
10
138.1499989999999798
20
-116.5008969999999948
11
137.9595219999999927
21
-116.5008969999999948
0
LINE
8
BLACK
6
CONTINUOUS
10
137.9595219999999927
20
-116.5008969999999948
11
137.769046000000003
21
-116.405659
0
LINE
8
BLACK
6
CONTINUOUS
10
137.769046000000003
20
-116.405659
11
137.6738079999999798
21
-116.3104199999999935
0
LINE
8
BLACK
6
CONTINUOUS
10
137.6738079999999798
20
-116.3104199999999935
11
137.5785699999999849
21
-116.1199439999999896
0
LINE
8
BLACK
6
CONTINUOUS
10
137.5785699999999849
20
-116.1199439999999896
11
137.4833319999999901
21
-115.7389919999999961
0
LINE
8
BLACK
6
CONTINUOUS
10
137.4833319999999901
20
-115.7389919999999961
11
137.4833319999999901
21
-115.2628009999999961
0
LINE
8
BLACK
6
CONTINUOUS
10
137.4833319999999901
20
-115.2628009999999961
11
137.5785699999999849
21
-114.8818489999999883
0
LINE
8
BLACK
6
CONTINUOUS
10
137.5785699999999849
20
-114.8818489999999883
11
137.6738079999999798
21
-114.6913729999999987
0
LINE
8
BLACK
6
CONTINUOUS
10
137.6738079999999798
20
-114.6913729999999987
11
137.769046000000003
21
-114.5961349999999896
0
LINE
8
BLACK
6
CONTINUOUS
10
137.769046000000003
20
-114.5961349999999896
11
137.9595219999999927
21
-114.5008969999999948
0
LINE
8
BLACK
6
CONTINUOUS
10
139.4833319999999901
20
-116.3104199999999935
11
139.5785699999999849
21
-116.405659
0
LINE
8
BLACK
6
CONTINUOUS
10
139.5785699999999849
20
-116.405659
11
139.4833319999999901
21
-116.5008969999999948
0
LINE
8
BLACK
6
CONTINUOUS
10
139.4833319999999901
20
-116.5008969999999948
11
139.3880939999999953
21
-116.405659
0
LINE
8
BLACK
6
CONTINUOUS
10
139.3880939999999953
20
-116.405659
11
139.4833319999999901
21
-116.3104199999999935
0
LINE
8
BLACK
6
CONTINUOUS
10
139.4833319999999901
20
-116.3104199999999935
11
139.4833319999999901
21
-116.5008969999999948
0
LINE
8
BLACK
6
CONTINUOUS
10
141.4833319999999901
20
-116.5008969999999948
11
140.3404749999999979
21
-116.5008969999999948
0
LINE
8
BLACK
6
CONTINUOUS
10
140.9119029999999952
20
-116.5008969999999948
11
140.9119029999999952
21
-114.5008969999999948
0
LINE
8
BLACK
6
CONTINUOUS
10
140.9119029999999952
20
-114.5008969999999948
11
140.7214270000000056
21
-114.7866109999999935
0
LINE
8
BLACK
6
CONTINUOUS
10
140.7214270000000056
20
-114.7866109999999935
11
140.5309509999999875
21
-114.9770869999999974
0
LINE
8
BLACK
6
CONTINUOUS
10
140.5309509999999875
20
-114.9770869999999974
11
140.3404749999999979
21
-115.0723249999999922
0
LINE
8
BLACK
6
CONTINUOUS
10
143.3880939999999953
20
-116.5008969999999948
11
142.245237000000003
21
-116.5008969999999948
0
LINE
8
BLACK
6
CONTINUOUS
10
142.8166650000000004
20
-116.5008969999999948
11
142.8166650000000004
21
-114.5008969999999948
0
LINE
8
BLACK
6
CONTINUOUS
10
142.8166650000000004
20
-114.5008969999999948
11
142.6261889999999823
21
-114.7866109999999935
0
LINE
8
BLACK
6
CONTINUOUS
10
142.6261889999999823
20
-114.7866109999999935
11
142.4357129999999927
21
-114.9770869999999974
0
LINE
8
BLACK
6
CONTINUOUS
10
142.4357129999999927
20
-114.9770869999999974
11
142.245237000000003
21
-115.0723249999999922
0
LINE
8
BLACK
6
CONTINUOUS
10
144.5309509999999875
20
-115.3580389999999909
11
144.3404749999999979
21
-115.2628009999999961
0
LINE
8
BLACK
6
CONTINUOUS
10
144.3404749999999979
20
-115.2628009999999961
11
144.245237000000003
21
-115.1675630000000012
0
LINE
8
BLACK
6
CONTINUOUS
10
144.245237000000003
20
-115.1675630000000012
11
144.1499989999999798
21
-114.9770869999999974
0
LINE
8
BLACK
6
CONTINUOUS
10
144.1499989999999798
20
-114.9770869999999974
11
144.1499989999999798
21
-114.8818489999999883
0
LINE
8
BLACK
6
CONTINUOUS
10
144.1499989999999798
20
-114.8818489999999883
11
144.245237000000003
21
-114.6913729999999987
0
LINE
8
BLACK
6
CONTINUOUS
10
144.245237000000003
20
-114.6913729999999987
11
144.3404749999999979
21
-114.5961349999999896
0
LINE
8
BLACK
6
CONTINUOUS
10
144.3404749999999979
20
-114.5961349999999896
11
144.5309509999999875
21
-114.5008969999999948
0
LINE
8
BLACK
6
CONTINUOUS
10
144.5309509999999875
20
-114.5008969999999948
11
144.9119039999999927
21
-114.5008969999999948
0
LINE
8
BLACK
6
CONTINUOUS
10
144.9119039999999927
20
-114.5008969999999948
11
145.1023799999999824
21
-114.5961349999999896
0
LINE
8
BLACK
6
CONTINUOUS
10
145.1023799999999824
20
-114.5961349999999896
11
145.1976180000000056
21
-114.6913729999999987
0
LINE
8
BLACK
6
CONTINUOUS
10
145.1976180000000056
20
-114.6913729999999987
11
145.2928560000000004
21
-114.8818489999999883
0
LINE
8
BLACK
6
CONTINUOUS
10
145.2928560000000004
20
-114.8818489999999883
11
145.2928560000000004
21
-114.9770869999999974
0
LINE
8
BLACK
6
CONTINUOUS
10
145.2928560000000004
20
-114.9770869999999974
11
145.1976180000000056
21
-115.1675630000000012
0
LINE
8
BLACK
6
CONTINUOUS
10
145.1976180000000056
20
-115.1675630000000012
11
145.1023799999999824
21
-115.2628009999999961
0
LINE
8
BLACK
6
CONTINUOUS
10
145.1023799999999824
20
-115.2628009999999961
11
144.9119039999999927
21
-115.3580389999999909
0
LINE
8
BLACK
6
CONTINUOUS
10
144.9119039999999927
20
-115.3580389999999909
11
144.5309509999999875
21
-115.3580389999999909
0
LINE
8
BLACK
6
CONTINUOUS
10
144.5309509999999875
20
-115.3580389999999909
11
144.3404749999999979
21
-115.4532779999999974
0
LINE
8
BLACK
6
CONTINUOUS
10
144.3404749999999979
20
-115.4532779999999974
11
144.245237000000003
21
-115.5485159999999922
0
LINE
8
BLACK
6
CONTINUOUS
10
144.245237000000003
20
-115.5485159999999922
11
144.1499989999999798
21
-115.7389919999999961
0
LINE
8
BLACK
6
CONTINUOUS
10
144.1499989999999798
20
-115.7389919999999961
11
144.1499989999999798
21
-116.1199439999999896
0
LINE
8
BLACK
6
CONTINUOUS
10
144.1499989999999798
20
-116.1199439999999896
11
144.245237000000003
21
-116.3104199999999935
0
LINE
8
BLACK
6
CONTINUOUS
10
144.245237000000003
20
-116.3104199999999935
11
144.3404749999999979
21
-116.405659
0
LINE
8
BLACK
6
CONTINUOUS
10
144.3404749999999979
20
-116.405659
11
144.5309509999999875
21
-116.5008969999999948
0
LINE
8
BLACK
6
CONTINUOUS
10
144.5309509999999875
20
-116.5008969999999948
11
144.9119039999999927
21
-116.5008969999999948
0
LINE
8
BLACK
6
CONTINUOUS
10
144.9119039999999927
20
-116.5008969999999948
11
145.1023799999999824
21
-116.405659
0
LINE
8
BLACK
6
CONTINUOUS
10
145.1023799999999824
20
-116.405659
11
145.1976180000000056
21
-116.3104199999999935
0
LINE
8
BLACK
6
CONTINUOUS
10
145.1976180000000056
20
-116.3104199999999935
11
145.2928560000000004
21
-116.1199439999999896
0
LINE
8
BLACK
6
CONTINUOUS
10
145.2928560000000004
20
-116.1199439999999896
11
145.2928560000000004
21
-115.7389919999999961
0
LINE
8
BLACK
6
CONTINUOUS
10
145.2928560000000004
20
-115.7389919999999961
11
145.1976180000000056
21
-115.5485159999999922
0
LINE
8
BLACK
6
CONTINUOUS
10
145.1976180000000056
20
-115.5485159999999922
11
145.1023799999999824
21
-115.4532779999999974
0
LINE
8
BLACK
6
CONTINUOUS
10
145.1023799999999824
20
-115.4532779999999974
11
144.9119039999999927
21
-115.3580389999999909
0
LINE
8
BLACK
6
CONTINUOUS
10
147.1976180000000056
20
-116.5008969999999948
11
146.054760999999985
21
-116.5008969999999948
0
LINE
8
BLACK
6
CONTINUOUS
10
146.6261889999999823
20
-116.5008969999999948
11
146.6261889999999823
21
-114.5008969999999948
0
LINE
8
BLACK
6
CONTINUOUS
10
146.6261889999999823
20
-114.5008969999999948
11
146.4357129999999927
21
-114.7866109999999935
0
LINE
8
BLACK
6
CONTINUOUS
10
146.4357129999999927
20
-114.7866109999999935
11
146.245237000000003
21
-114.9770869999999974
0
LINE
8
BLACK
6
CONTINUOUS
10
146.245237000000003
20
-114.9770869999999974
11
146.054760999999985
21
-115.0723249999999922
0
LINE
8
BLACK
6
CONTINUOUS
10
147.9595229999999901
20
-114.5008969999999948
11
147.9595229999999901
21
-114.8818489999999883
0
LINE
8
BLACK
6
CONTINUOUS
10
148.7214280000000031
20
-114.5008969999999948
11
148.7214280000000031
21
-114.8818489999999883
0
LINE
8
BLACK
6
CONTINUOUS
10
151.6738100000000031
20
-117.2628009999999961
11
151.5785709999999824
21
-117.1675630000000012
0
LINE
8
BLACK
6
CONTINUOUS
10
151.5785709999999824
20
-117.1675630000000012
11
151.3880949999999928
21
-116.8818489999999883
0
LINE
8
BLACK
6
CONTINUOUS
10
151.3880949999999928
20
-116.8818489999999883
11
151.2928569999999979
21
-116.6913729999999987
0
LINE
8
BLACK
6
CONTINUOUS
10
151.2928569999999979
20
-116.6913729999999987
11
151.1976190000000031
21
-116.405659
0
LINE
8
BLACK
6
CONTINUOUS
10
151.1976190000000031
20
-116.405659
11
151.1023809999999798
21
-115.929468
0
LINE
8
BLACK
6
CONTINUOUS
10
151.1023809999999798
20
-115.929468
11
151.1023809999999798
21
-115.5485159999999922
0
LINE
8
BLACK
6
CONTINUOUS
10
151.1023809999999798
20
-115.5485159999999922
11
151.1976190000000031
21
-115.0723249999999922
0
LINE
8
BLACK
6
CONTINUOUS
10
151.1976190000000031
20
-115.0723249999999922
11
151.2928569999999979
21
-114.7866109999999935
0
LINE
8
BLACK
6
CONTINUOUS
10
151.2928569999999979
20
-114.7866109999999935
11
151.3880949999999928
21
-114.5961349999999896
0
LINE
8
BLACK
6
CONTINUOUS
10
151.3880949999999928
20
-114.5961349999999896
11
151.5785709999999824
21
-114.3104199999999935
0
LINE
8
BLACK
6
CONTINUOUS
10
151.5785709999999824
20
-114.3104199999999935
11
151.6738100000000031
21
-114.2151819999999987
0
LINE
8
BLACK
6
CONTINUOUS
10
152.2452380000000005
20
-114.5008969999999948
11
153.4833329999999876
21
-114.5008969999999948
0
LINE
8
BLACK
6
CONTINUOUS
10
153.4833329999999876
20
-114.5008969999999948
11
152.8166659999999979
21
-115.2628009999999961
0
LINE
8
BLACK
6
CONTINUOUS
10
152.8166659999999979
20
-115.2628009999999961
11
153.1023809999999798
21
-115.2628009999999961
0
LINE
8
BLACK
6
CONTINUOUS
10
153.1023809999999798
20
-115.2628009999999961
11
153.2928569999999979
21
-115.3580389999999909
0
LINE
8
BLACK
6
CONTINUOUS
10
153.2928569999999979
20
-115.3580389999999909
11
153.3880949999999928
21
-115.4532779999999974
0
LINE
8
BLACK
6
CONTINUOUS
10
153.3880949999999928
20
-115.4532779999999974
11
153.4833329999999876
21
-115.6437540000000013
0
LINE
8
BLACK
6
CONTINUOUS
10
153.4833329999999876
20
-115.6437540000000013
11
153.4833329999999876
21
-116.1199439999999896
0
LINE
8
BLACK
6
CONTINUOUS
10
153.4833329999999876
20
-116.1199439999999896
11
153.3880949999999928
21
-116.3104199999999935
0
LINE
8
BLACK
6
CONTINUOUS
10
153.3880949999999928
20
-116.3104199999999935
11
153.2928569999999979
21
-116.405659
0
LINE
8
BLACK
6
CONTINUOUS
10
153.2928569999999979
20
-116.405659
11
153.1023809999999798
21
-116.5008969999999948
0
LINE
8
BLACK
6
CONTINUOUS
10
153.1023809999999798
20
-116.5008969999999948
11
152.530951999999985
21
-116.5008969999999948
0
LINE
8
BLACK
6
CONTINUOUS
10
152.530951999999985
20
-116.5008969999999948
11
152.3404759999999953
21
-116.405659
0
LINE
8
BLACK
6
CONTINUOUS
10
152.3404759999999953
20
-116.405659
11
152.2452380000000005
21
-116.3104199999999935
0
LINE
8
BLACK
6
CONTINUOUS
10
155.8642859999999928
20
-116.5008969999999948
11
155.8642859999999928
21
-114.5008969999999948
0
LINE
8
BLACK
6
CONTINUOUS
10
156.7214290000000005
20
-116.5008969999999948
11
156.7214290000000005
21
-115.4532779999999974
0
LINE
8
BLACK
6
CONTINUOUS
10
156.7214290000000005
20
-115.4532779999999974
11
156.6261910000000057
21
-115.2628009999999961
0
LINE
8
BLACK
6
CONTINUOUS
10
156.6261910000000057
20
-115.2628009999999961
11
156.4357149999999876
21
-115.1675630000000012
0
LINE
8
BLACK
6
CONTINUOUS
10
156.4357149999999876
20
-115.1675630000000012
11
156.1500000000000057
21
-115.1675630000000012
0
LINE
8
BLACK
6
CONTINUOUS
10
156.1500000000000057
20
-115.1675630000000012
11
155.9595239999999876
21
-115.2628009999999961
0
LINE
8
BLACK
6
CONTINUOUS
10
155.9595239999999876
20
-115.2628009999999961
11
155.8642859999999928
21
-115.3580389999999909
0
LINE
8
BLACK
6
CONTINUOUS
10
157.9595239999999876
20
-116.5008969999999948
11
157.769047999999998
21
-116.405659
0
LINE
8
BLACK
6
CONTINUOUS
10
157.769047999999998
20
-116.405659
11
157.6738100000000031
21
-116.3104199999999935
0
LINE
8
BLACK
6
CONTINUOUS
10
157.6738100000000031
20
-116.3104199999999935
11
157.5785719999999799
21
-116.1199439999999896
0
LINE
8
BLACK
6
CONTINUOUS
10
157.5785719999999799
20
-116.1199439999999896
11
157.5785719999999799
21
-115.5485159999999922
0
LINE
8
BLACK
6
CONTINUOUS
10
157.5785719999999799
20
-115.5485159999999922
11
157.6738100000000031
21
-115.3580389999999909
0
LINE
8
BLACK
6
CONTINUOUS
10
157.6738100000000031
20
-115.3580389999999909
11
157.769047999999998
21
-115.2628009999999961
0
LINE
8
BLACK
6
CONTINUOUS
10
157.769047999999998
20
-115.2628009999999961
11
157.9595239999999876
21
-115.1675630000000012
0
LINE
8
BLACK
6
CONTINUOUS
10
157.9595239999999876
20
-115.1675630000000012
11
158.245238999999998
21
-115.1675630000000012
0
LINE
8
BLACK
6
CONTINUOUS
10
158.245238999999998
20
-115.1675630000000012
11
158.4357149999999876
21
-115.2628009999999961
0
LINE
8
BLACK
6
CONTINUOUS
10
158.4357149999999876
20
-115.2628009999999961
11
158.5309529999999825
21
-115.3580389999999909
0
LINE
8
BLACK
6
CONTINUOUS
10
158.5309529999999825
20
-115.3580389999999909
11
158.6261910000000057
21
-115.5485159999999922
0
LINE
8
BLACK
6
CONTINUOUS
10
158.6261910000000057
20
-115.5485159999999922
11
158.6261910000000057
21
-116.1199439999999896
0
LINE
8
BLACK
6
CONTINUOUS
10
158.6261910000000057
20
-116.1199439999999896
11
158.5309529999999825
21
-116.3104199999999935
0
LINE
8
BLACK
6
CONTINUOUS
10
158.5309529999999825
20
-116.3104199999999935
11
158.4357149999999876
21
-116.405659
0
LINE
8
BLACK
6
CONTINUOUS
10
158.4357149999999876
20
-116.405659
11
158.245238999999998
21
-116.5008969999999948
0
LINE
8
BLACK
6
CONTINUOUS
10
158.245238999999998
20
-116.5008969999999948
11
157.9595239999999876
21
-116.5008969999999948
0
LINE
8
BLACK
6
CONTINUOUS
10
159.769047999999998
20
-116.5008969999999948
11
159.5785719999999799
21
-116.405659
0
LINE
8
BLACK
6
CONTINUOUS
10
159.5785719999999799
20
-116.405659
11
159.4833339999999851
21
-116.2151819999999987
0
LINE
8
BLACK
6
CONTINUOUS
10
159.4833339999999851
20
-116.2151819999999987
11
159.4833339999999851
21
-114.5008969999999948
0
LINE
8
BLACK
6
CONTINUOUS
10
161.2928579999999954
20
-116.405659
11
161.1023820000000057
21
-116.5008969999999948
0
LINE
8
BLACK
6
CONTINUOUS
10
161.1023820000000057
20
-116.5008969999999948
11
160.7214290000000005
21
-116.5008969999999948
0
LINE
8
BLACK
6
CONTINUOUS
10
160.7214290000000005
20
-116.5008969999999948
11
160.5309529999999825
21
-116.405659
0
LINE
8
BLACK
6
CONTINUOUS
10
160.5309529999999825
20
-116.405659
11
160.4357149999999876
21
-116.2151819999999987
0
LINE
8
BLACK
6
CONTINUOUS
10
160.4357149999999876
20
-116.2151819999999987
11
160.4357149999999876
21
-115.4532779999999974
0
LINE
8
BLACK
6
CONTINUOUS
10
160.4357149999999876
20
-115.4532779999999974
11
160.5309529999999825
21
-115.2628009999999961
0
LINE
8
BLACK
6
CONTINUOUS
10
160.5309529999999825
20
-115.2628009999999961
11
160.7214290000000005
21
-115.1675630000000012
0
LINE
8
BLACK
6
CONTINUOUS
10
160.7214290000000005
20
-115.1675630000000012
11
161.1023820000000057
21
-115.1675630000000012
0
LINE
8
BLACK
6
CONTINUOUS
10
161.1023820000000057
20
-115.1675630000000012
11
161.2928579999999954
21
-115.2628009999999961
0
LINE
8
BLACK
6
CONTINUOUS
10
161.2928579999999954
20
-115.2628009999999961
11
161.3880959999999902
21
-115.4532779999999974
0
LINE
8
BLACK
6
CONTINUOUS
10
161.3880959999999902
20
-115.4532779999999974
11
161.3880959999999902
21
-115.6437540000000013
0
LINE
8
BLACK
6
CONTINUOUS
10
161.3880959999999902
20
-115.6437540000000013
11
160.4357149999999876
21
-115.8342299999999909
0
LINE
8
BLACK
6
CONTINUOUS
10
162.1500010000000032
20
-116.405659
11
162.3404769999999928
21
-116.5008969999999948
0
LINE
8
BLACK
6
CONTINUOUS
10
162.3404769999999928
20
-116.5008969999999948
11
162.7214290000000005
21
-116.5008969999999948
0
LINE
8
BLACK
6
CONTINUOUS
10
162.7214290000000005
20
-116.5008969999999948
11
162.9119059999999877
21
-116.405659
0
LINE
8
BLACK
6
CONTINUOUS
10
162.9119059999999877
20
-116.405659
11
163.0071439999999825
21
-116.2151819999999987
0
LINE
8
BLACK
6
CONTINUOUS
10
163.0071439999999825
20
-116.2151819999999987
11
163.0071439999999825
21
-116.1199439999999896
0
LINE
8
BLACK
6
CONTINUOUS
10
163.0071439999999825
20
-116.1199439999999896
11
162.9119059999999877
21
-115.929468
0
LINE
8
BLACK
6
CONTINUOUS
10
162.9119059999999877
20
-115.929468
11
162.7214290000000005
21
-115.8342299999999909
0
LINE
8
BLACK
6
CONTINUOUS
10
162.7214290000000005
20
-115.8342299999999909
11
162.4357149999999876
21
-115.8342299999999909
0
LINE
8
BLACK
6
CONTINUOUS
10
162.4357149999999876
20
-115.8342299999999909
11
162.245238999999998
21
-115.7389919999999961
0
LINE
8
BLACK
6
CONTINUOUS
10
162.245238999999998
20
-115.7389919999999961
11
162.1500010000000032
21
-115.5485159999999922
0
LINE
8
BLACK
6
CONTINUOUS
10
162.1500010000000032
20
-115.5485159999999922
11
162.1500010000000032
21
-115.4532779999999974
0
LINE
8
BLACK
6
CONTINUOUS
10
162.1500010000000032
20
-115.4532779999999974
11
162.245238999999998
21
-115.2628009999999961
0
LINE
8
BLACK
6
CONTINUOUS
10
162.245238999999998
20
-115.2628009999999961
11
162.4357149999999876
21
-115.1675630000000012
0
LINE
8
BLACK
6
CONTINUOUS
10
162.4357149999999876
20
-115.1675630000000012
11
162.7214290000000005
21
-115.1675630000000012
0
LINE
8
BLACK
6
CONTINUOUS
10
162.7214290000000005
20
-115.1675630000000012
11
162.9119059999999877
21
-115.2628009999999961
0
LINE
8
BLACK
6
CONTINUOUS
10
163.6738110000000006
20
-117.2628009999999961
11
163.7690489999999954
21
-117.1675630000000012
0
LINE
8
BLACK
6
CONTINUOUS
10
163.7690489999999954
20
-117.1675630000000012
11
163.9595249999999851
21
-116.8818489999999883
0
LINE
8
BLACK
6
CONTINUOUS
10
163.9595249999999851
20
-116.8818489999999883
11
164.0547629999999799
21
-116.6913729999999987
0
LINE
8
BLACK
6
CONTINUOUS
10
164.0547629999999799
20
-116.6913729999999987
11
164.1500010000000032
21
-116.405659
0
LINE
8
BLACK
6
CONTINUOUS
10
164.1500010000000032
20
-116.405659
11
164.245238999999998
21
-115.929468
0
LINE
8
BLACK
6
CONTINUOUS
10
164.245238999999998
20
-115.929468
11
164.245238999999998
21
-115.5485159999999922
0
LINE
8
BLACK
6
CONTINUOUS
10
164.245238999999998
20
-115.5485159999999922
11
164.1500010000000032
21
-115.0723249999999922
0
LINE
8
BLACK
6
CONTINUOUS
10
164.1500010000000032
20
-115.0723249999999922
11
164.0547629999999799
21
-114.7866109999999935
0
LINE
8
BLACK
6
CONTINUOUS
10
164.0547629999999799
20
-114.7866109999999935
11
163.9595249999999851
21
-114.5961349999999896
0
LINE
8
BLACK
6
CONTINUOUS
10
163.9595249999999851
20
-114.5961349999999896
11
163.7690489999999954
21
-114.3104199999999935
0
LINE
8
BLACK
6
CONTINUOUS
10
163.7690489999999954
20
-114.3104199999999935
11
163.6738110000000006
21
-114.2151819999999987
0
LINE
8
BLACK
6
CONTINUOUS
10
167.2928589999999929
20
-117.2628009999999961
11
167.1976200000000006
21
-117.1675630000000012
0
LINE
8
BLACK
6
CONTINUOUS
10
167.1976200000000006
20
-117.1675630000000012
11
167.0071439999999825
21
-116.8818489999999883
0
LINE
8
BLACK
6
CONTINUOUS
10
167.0071439999999825
20
-116.8818489999999883
11
166.9119059999999877
21
-116.6913729999999987
0
LINE
8
BLACK
6
CONTINUOUS
10
166.9119059999999877
20
-116.6913729999999987
11
166.8166679999999928
21
-116.405659
0
LINE
8
BLACK
6
CONTINUOUS
10
166.8166679999999928
20
-116.405659
11
166.721429999999998
21
-115.929468
0
LINE
8
BLACK
6
CONTINUOUS
10
166.721429999999998
20
-115.929468
11
166.721429999999998
21
-115.5485159999999922
0
LINE
8
BLACK
6
CONTINUOUS
10
166.721429999999998
20
-115.5485159999999922
11
166.8166679999999928
21
-115.0723249999999922
0
LINE
8
BLACK
6
CONTINUOUS
10
166.8166679999999928
20
-115.0723249999999922
11
166.9119059999999877
21
-114.7866109999999935
0
LINE
8
BLACK
6
CONTINUOUS
10
166.9119059999999877
20
-114.7866109999999935
11
167.0071439999999825
21
-114.5961349999999896
0
LINE
8
BLACK
6
CONTINUOUS
10
167.0071439999999825
20
-114.5961349999999896
11
167.1976200000000006
21
-114.3104199999999935
0
LINE
8
BLACK
6
CONTINUOUS
10
167.1976200000000006
20
-114.3104199999999935
11
167.2928589999999929
21
-114.2151819999999987
0
LINE
8
BLACK
6
CONTINUOUS
10
168.0547629999999799
20
-115.1675630000000012
11
168.0547629999999799
21
-116.5008969999999948
0
LINE
8
BLACK
6
CONTINUOUS
10
168.0547629999999799
20
-115.3580389999999909
11
168.1500010000000032
21
-115.2628009999999961
0
LINE
8
BLACK
6
CONTINUOUS
10
168.1500010000000032
20
-115.2628009999999961
11
168.3404769999999928
21
-115.1675630000000012
0
LINE
8
BLACK
6
CONTINUOUS
10
168.3404769999999928
20
-115.1675630000000012
11
168.6261920000000032
21
-115.1675630000000012
0
LINE
8
BLACK
6
CONTINUOUS
10
168.6261920000000032
20
-115.1675630000000012
11
168.8166679999999928
21
-115.2628009999999961
0
LINE
8
BLACK
6
CONTINUOUS
10
168.8166679999999928
20
-115.2628009999999961
11
168.9119059999999877
21
-115.4532779999999974
0
LINE
8
BLACK
6
CONTINUOUS
10
168.9119059999999877
20
-115.4532779999999974
11
168.9119059999999877
21
-116.5008969999999948
0
LINE
8
BLACK
6
CONTINUOUS
10
170.1500010000000032
20
-116.5008969999999948
11
169.9595249999999851
21
-116.405659
0
LINE
8
BLACK
6
CONTINUOUS
10
169.9595249999999851
20
-116.405659
11
169.8642869999999903
21
-116.3104199999999935
0
LINE
8
BLACK
6
CONTINUOUS
10
169.8642869999999903
20
-116.3104199999999935
11
169.7690489999999954
21
-116.1199439999999896
0
LINE
8
BLACK
6
CONTINUOUS
10
169.7690489999999954
20
-116.1199439999999896
11
169.7690489999999954
21
-115.5485159999999922
0
LINE
8
BLACK
6
CONTINUOUS
10
169.7690489999999954
20
-115.5485159999999922
11
169.8642869999999903
21
-115.3580389999999909
0
LINE
8
BLACK
6
CONTINUOUS
10
169.8642869999999903
20
-115.3580389999999909
11
169.9595249999999851
21
-115.2628009999999961
0
LINE
8
BLACK
6
CONTINUOUS
10
169.9595249999999851
20
-115.2628009999999961
11
170.1500010000000032
21
-115.1675630000000012
0
LINE
8
BLACK
6
CONTINUOUS
10
170.1500010000000032
20
-115.1675630000000012
11
170.4357159999999851
21
-115.1675630000000012
0
LINE
8
BLACK
6
CONTINUOUS
10
170.4357159999999851
20
-115.1675630000000012
11
170.6261920000000032
21
-115.2628009999999961
0
LINE
8
BLACK
6
CONTINUOUS
10
170.6261920000000032
20
-115.2628009999999961
11
170.721429999999998
21
-115.3580389999999909
0
LINE
8
BLACK
6
CONTINUOUS
10
170.721429999999998
20
-115.3580389999999909
11
170.8166679999999928
21
-115.5485159999999922
0
LINE
8
BLACK
6
CONTINUOUS
10
170.8166679999999928
20
-115.5485159999999922
11
170.8166679999999928
21
-116.1199439999999896
0
LINE
8
BLACK
6
CONTINUOUS
10
170.8166679999999928
20
-116.1199439999999896
11
170.721429999999998
21
-116.3104199999999935
0
LINE
8
BLACK
6
CONTINUOUS
10
170.721429999999998
20
-116.3104199999999935
11
170.6261920000000032
21
-116.405659
0
LINE
8
BLACK
6
CONTINUOUS
10
170.6261920000000032
20
-116.405659
11
170.4357159999999851
21
-116.5008969999999948
0
LINE
8
BLACK
6
CONTINUOUS
10
170.4357159999999851
20
-116.5008969999999948
11
170.1500010000000032
21
-116.5008969999999948
0
LINE
8
BLACK
6
CONTINUOUS
10
171.3880969999999877
20
-115.1675630000000012
11
172.1500010000000032
21
-115.1675630000000012
0
LINE
8
BLACK
6
CONTINUOUS
10
171.6738110000000006
20
-114.5008969999999948
11
171.6738110000000006
21
-116.2151819999999987
0
LINE
8
BLACK
6
CONTINUOUS
10
171.6738110000000006
20
-116.2151819999999987
11
171.7690489999999954
21
-116.405659
0
LINE
8
BLACK
6
CONTINUOUS
10
171.7690489999999954
20
-116.405659
11
171.9595249999999851
21
-116.5008969999999948
0
LINE
8
BLACK
6
CONTINUOUS
10
171.9595249999999851
20
-116.5008969999999948
11
172.1500010000000032
21
-116.5008969999999948
0
LINE
8
BLACK
6
CONTINUOUS
10
174.3404779999999903
20
-115.1675630000000012
11
174.3404779999999903
21
-117.1675630000000012
0
LINE
8
BLACK
6
CONTINUOUS
10
174.3404779999999903
20
-115.2628009999999961
11
174.5309539999999799
21
-115.1675630000000012
0
LINE
8
BLACK
6
CONTINUOUS
10
174.5309539999999799
20
-115.1675630000000012
11
174.9119069999999851
21
-115.1675630000000012
0
LINE
8
BLACK
6
CONTINUOUS
10
174.9119069999999851
20
-115.1675630000000012
11
175.1023830000000032
21
-115.2628009999999961
0
LINE
8
BLACK
6
CONTINUOUS
10
175.1023830000000032
20
-115.2628009999999961
11
175.197620999999998
21
-115.3580389999999909
0
LINE
8
BLACK
6
CONTINUOUS
10
175.197620999999998
20
-115.3580389999999909
11
175.2928589999999929
21
-115.5485159999999922
0
LINE
8
BLACK
6
CONTINUOUS
10
175.2928589999999929
20
-115.5485159999999922
11
175.2928589999999929
21
-116.1199439999999896
0
LINE
8
BLACK
6
CONTINUOUS
10
175.2928589999999929
20
-116.1199439999999896
11
175.197620999999998
21
-116.3104199999999935
0
LINE
8
BLACK
6
CONTINUOUS
10
175.197620999999998
20
-116.3104199999999935
11
175.1023830000000032
21
-116.405659
0
LINE
8
BLACK
6
CONTINUOUS
10
175.1023830000000032
20
-116.405659
11
174.9119069999999851
21
-116.5008969999999948
0
LINE
8
BLACK
6
CONTINUOUS
10
174.9119069999999851
20
-116.5008969999999948
11
174.5309539999999799
21
-116.5008969999999948
0
LINE
8
BLACK
6
CONTINUOUS
10
174.5309539999999799
20
-116.5008969999999948
11
174.3404779999999903
21
-116.405659
0
LINE
8
BLACK
6
CONTINUOUS
10
176.4357159999999851
20
-116.5008969999999948
11
176.2452399999999955
21
-116.405659
0
LINE
8
BLACK
6
CONTINUOUS
10
176.2452399999999955
20
-116.405659
11
176.1500020000000006
21
-116.2151819999999987
0
LINE
8
BLACK
6
CONTINUOUS
10
176.1500020000000006
20
-116.2151819999999987
11
176.1500020000000006
21
-114.5008969999999948
0
LINE
8
BLACK
6
CONTINUOUS
10
178.0547640000000058
20
-116.5008969999999948
11
178.0547640000000058
21
-115.4532779999999974
0
LINE
8
BLACK
6
CONTINUOUS
10
178.0547640000000058
20
-115.4532779999999974
11
177.9595259999999826
21
-115.2628009999999961
0
LINE
8
BLACK
6
CONTINUOUS
10
177.9595259999999826
20
-115.2628009999999961
11
177.7690499999999929
21
-115.1675630000000012
0
LINE
8
BLACK
6
CONTINUOUS
10
177.7690499999999929
20
-115.1675630000000012
11
177.3880969999999877
21
-115.1675630000000012
0
LINE
8
BLACK
6
CONTINUOUS
10
177.3880969999999877
20
-115.1675630000000012
11
177.197620999999998
21
-115.2628009999999961
0
LINE
8
BLACK
6
CONTINUOUS
10
178.0547640000000058
20
-116.405659
11
177.8642879999999877
21
-116.5008969999999948
0
LINE
8
BLACK
6
CONTINUOUS
10
177.8642879999999877
20
-116.5008969999999948
11
177.3880969999999877
21
-116.5008969999999948
0
LINE
8
BLACK
6
CONTINUOUS
10
177.3880969999999877
20
-116.5008969999999948
11
177.197620999999998
21
-116.405659
0
LINE
8
BLACK
6
CONTINUOUS
10
177.197620999999998
20
-116.405659
11
177.1023830000000032
21
-116.2151819999999987
0
LINE
8
BLACK
6
CONTINUOUS
10
177.1023830000000032
20
-116.2151819999999987
11
177.1023830000000032
21
-116.0247059999999948
0
LINE
8
BLACK
6
CONTINUOUS
10
177.1023830000000032
20
-116.0247059999999948
11
177.197620999999998
21
-115.8342299999999909
0
LINE
8
BLACK
6
CONTINUOUS
10
177.197620999999998
20
-115.8342299999999909
11
177.3880969999999877
21
-115.7389919999999961
0
LINE
8
BLACK
6
CONTINUOUS
10
177.3880969999999877
20
-115.7389919999999961
11
177.8642879999999877
21
-115.7389919999999961
0
LINE
8
BLACK
6
CONTINUOUS
10
177.8642879999999877
20
-115.7389919999999961
11
178.0547640000000058
21
-115.6437540000000013
0
LINE
8
BLACK
6
CONTINUOUS
10
178.7214309999999955
20
-115.1675630000000012
11
179.4833349999999825
21
-115.1675630000000012
0
LINE
8
BLACK
6
CONTINUOUS
10
179.00714499999998
20
-114.5008969999999948
11
179.00714499999998
21
-116.2151819999999987
0
LINE
8
BLACK
6
CONTINUOUS
10
179.00714499999998
20
-116.2151819999999987
11
179.1023830000000032
21
-116.405659
0
LINE
8
BLACK
6
CONTINUOUS
10
179.1023830000000032
20
-116.405659
11
179.2928589999999929
21
-116.5008969999999948
0
LINE
8
BLACK
6
CONTINUOUS
10
179.2928589999999929
20
-116.5008969999999948
11
179.4833349999999825
21
-116.5008969999999948
0
LINE
8
BLACK
6
CONTINUOUS
10
180.9119069999999851
20
-116.405659
11
180.7214309999999955
21
-116.5008969999999948
0
LINE
8
BLACK
6
CONTINUOUS
10
180.7214309999999955
20
-116.5008969999999948
11
180.3404779999999903
21
-116.5008969999999948
0
LINE
8
BLACK
6
CONTINUOUS
10
180.3404779999999903
20
-116.5008969999999948
11
180.1500020000000006
21
-116.405659
0
LINE
8
BLACK
6
CONTINUOUS
10
180.1500020000000006
20
-116.405659
11
180.0547640000000058
21
-116.2151819999999987
0
LINE
8
BLACK
6
CONTINUOUS
10
180.0547640000000058
20
-116.2151819999999987
11
180.0547640000000058
21
-115.4532779999999974
0
LINE
8
BLACK
6
CONTINUOUS
10
180.0547640000000058
20
-115.4532779999999974
11
180.1500020000000006
21
-115.2628009999999961
0
LINE
8
BLACK
6
CONTINUOUS
10
180.1500020000000006
20
-115.2628009999999961
11
180.3404779999999903
21
-115.1675630000000012
0
LINE
8
BLACK
6
CONTINUOUS
10
180.3404779999999903
20
-115.1675630000000012
11
180.7214309999999955
21
-115.1675630000000012
0
LINE
8
BLACK
6
CONTINUOUS
10
180.7214309999999955
20
-115.1675630000000012
11
180.9119069999999851
21
-115.2628009999999961
0
LINE
8
BLACK
6
CONTINUOUS
10
180.9119069999999851
20
-115.2628009999999961
11
181.00714499999998
21
-115.4532779999999974
0
LINE
8
BLACK
6
CONTINUOUS
10
181.00714499999998
20
-115.4532779999999974
11
181.00714499999998
21
-115.6437540000000013
0
LINE
8
BLACK
6
CONTINUOUS
10
181.00714499999998
20
-115.6437540000000013
11
180.0547640000000058
21
-115.8342299999999909
0
LINE
8
BLACK
6
CONTINUOUS
10
182.7214309999999955
20
-116.5008969999999948
11
182.7214309999999955
21
-114.5008969999999948
0
LINE
8
BLACK
6
CONTINUOUS
10
182.7214309999999955
20
-116.405659
11
182.5309550000000058
21
-116.5008969999999948
0
LINE
8
BLACK
6
CONTINUOUS
10
182.5309550000000058
20
-116.5008969999999948
11
182.1500020000000006
21
-116.5008969999999948
0
LINE
8
BLACK
6
CONTINUOUS
10
182.1500020000000006
20
-116.5008969999999948
11
181.9595259999999826
21
-116.405659
0
LINE
8
BLACK
6
CONTINUOUS
10
181.9595259999999826
20
-116.405659
11
181.8642879999999877
21
-116.3104199999999935
0
LINE
8
BLACK
6
CONTINUOUS
10
181.8642879999999877
20
-116.3104199999999935
11
181.7690499999999929
21
-116.1199439999999896
0
LINE
8
BLACK
6
CONTINUOUS
10
181.7690499999999929
20
-116.1199439999999896
11
181.7690499999999929
21
-115.5485159999999922
0
LINE
8
BLACK
6
CONTINUOUS
10
181.7690499999999929
20
-115.5485159999999922
11
181.8642879999999877
21
-115.3580389999999909
0
LINE
8
BLACK
6
CONTINUOUS
10
181.8642879999999877
20
-115.3580389999999909
11
181.9595259999999826
21
-115.2628009999999961
0
LINE
8
BLACK
6
CONTINUOUS
10
181.9595259999999826
20
-115.2628009999999961
11
182.1500020000000006
21
-115.1675630000000012
0
LINE
8
BLACK
6
CONTINUOUS
10
182.1500020000000006
20
-115.1675630000000012
11
182.5309550000000058
21
-115.1675630000000012
0
LINE
8
BLACK
6
CONTINUOUS
10
182.5309550000000058
20
-115.1675630000000012
11
182.7214309999999955
21
-115.2628009999999961
0
LINE
8
BLACK
6
CONTINUOUS
10
183.48333599999998
20
-117.2628009999999961
11
183.5785740000000033
21
-117.1675630000000012
0
LINE
8
BLACK
6
CONTINUOUS
10
183.5785740000000033
20
-117.1675630000000012
11
183.7690499999999929
21
-116.8818489999999883
0
LINE
8
BLACK
6
CONTINUOUS
10
183.7690499999999929
20
-116.8818489999999883
11
183.8642879999999877
21
-116.6913729999999987
0
LINE
8
BLACK
6
CONTINUOUS
10
183.8642879999999877
20
-116.6913729999999987
11
183.9595259999999826
21
-116.405659
0
LINE
8
BLACK
6
CONTINUOUS
10
183.9595259999999826
20
-116.405659
11
184.0547640000000058
21
-115.929468
0
LINE
8
BLACK
6
CONTINUOUS
10
184.0547640000000058
20
-115.929468
11
184.0547640000000058
21
-115.5485159999999922
0
LINE
8
BLACK
6
CONTINUOUS
10
184.0547640000000058
20
-115.5485159999999922
11
183.9595259999999826
21
-115.0723249999999922
0
LINE
8
BLACK
6
CONTINUOUS
10
183.9595259999999826
20
-115.0723249999999922
11
183.8642879999999877
21
-114.7866109999999935
0
LINE
8
BLACK
6
CONTINUOUS
10
183.8642879999999877
20
-114.7866109999999935
11
183.7690499999999929
21
-114.5961349999999896
0
LINE
8
BLACK
6
CONTINUOUS
10
183.7690499999999929
20
-114.5961349999999896
11
183.5785740000000033
21
-114.3104199999999935
0
LINE
8
BLACK
6
CONTINUOUS
10
183.5785740000000033
20
-114.3104199999999935
11
183.48333599999998
21
-114.2151819999999987
0
LINE
8
BLACK
6
CONTINUOUS
10
114.9231809999999996
20
-117.7860589999999945
11
114.9231809999999996
21
-119.7860589999999945
0
LINE
8
BLACK
6
CONTINUOUS
10
113.9231809999999996
20
-118.7860589999999945
11
115.9231809999999996
21
-118.7860589999999945
0
LINE
8
BLACK
6
CONTINUOUS
10
119.3880920000000003
20
-118.3675629999999899
11
119.3880920000000003
21
-119.7008969999999977
0
LINE
8
BLACK
6
CONTINUOUS
10
118.9119010000000003
20
-117.6056589999999886
11
118.4357109999999977
21
-119.0342299999999938
0
LINE
8
BLACK
6
CONTINUOUS
10
118.4357109999999977
20
-119.0342299999999938
11
119.673805999999999
21
-119.0342299999999938
0
LINE
8
BLACK
6
CONTINUOUS
10
120.4357109999999977
20
-119.5104199999999963
11
120.5309489999999926
21
-119.6056589999999886
0
LINE
8
BLACK
6
CONTINUOUS
10
120.5309489999999926
20
-119.6056589999999886
11
120.4357109999999977
21
-119.7008969999999977
0
LINE
8
BLACK
6
CONTINUOUS
10
120.4357109999999977
20
-119.7008969999999977
11
120.3404729999999887
21
-119.6056589999999886
0
LINE
8
BLACK
6
CONTINUOUS
10
120.3404729999999887
20
-119.6056589999999886
11
120.4357109999999977
21
-119.5104199999999963
0
LINE
8
BLACK
6
CONTINUOUS
10
120.4357109999999977
20
-119.5104199999999963
11
120.4357109999999977
21
-119.7008969999999977
0
LINE
8
BLACK
6
CONTINUOUS
10
122.2452349999999939
20
-117.7008969999999977
11
121.8642819999999887
21
-117.7008969999999977
0
LINE
8
BLACK
6
CONTINUOUS
10
121.8642819999999887
20
-117.7008969999999977
11
121.673805999999999
21
-117.7961349999999925
0
LINE
8
BLACK
6
CONTINUOUS
10
121.673805999999999
20
-117.7961349999999925
11
121.57856799999999
21
-117.8913730000000015
0
LINE
8
BLACK
6
CONTINUOUS
10
121.57856799999999
20
-117.8913730000000015
11
121.3880920000000003
21
-118.1770870000000002
0
LINE
8
BLACK
6
CONTINUOUS
10
121.3880920000000003
20
-118.1770870000000002
11
121.2928539999999913
21
-118.5580389999999937
0
LINE
8
BLACK
6
CONTINUOUS
10
121.2928539999999913
20
-118.5580389999999937
11
121.2928539999999913
21
-119.3199439999999925
0
LINE
8
BLACK
6
CONTINUOUS
10
121.2928539999999913
20
-119.3199439999999925
11
121.3880920000000003
21
-119.5104199999999963
0
LINE
8
BLACK
6
CONTINUOUS
10
121.3880920000000003
20
-119.5104199999999963
11
121.4833299999999952
21
-119.6056589999999886
0
LINE
8
BLACK
6
CONTINUOUS
10
121.4833299999999952
20
-119.6056589999999886
11
121.673805999999999
21
-119.7008969999999977
0
LINE
8
BLACK
6
CONTINUOUS
10
121.673805999999999
20
-119.7008969999999977
11
122.05475899999999
21
-119.7008969999999977
0
LINE
8
BLACK
6
CONTINUOUS
10
122.05475899999999
20
-119.7008969999999977
11
122.2452349999999939
21
-119.6056589999999886
0
LINE
8
BLACK
6
CONTINUOUS
10
122.2452349999999939
20
-119.6056589999999886
11
122.3404729999999887
21
-119.5104199999999963
0
LINE
8
BLACK
6
CONTINUOUS
10
122.3404729999999887
20
-119.5104199999999963
11
122.4357109999999977
21
-119.3199439999999925
0
LINE
8
BLACK
6
CONTINUOUS
10
122.4357109999999977
20
-119.3199439999999925
11
122.4357109999999977
21
-118.8437539999999899
0
LINE
8
BLACK
6
CONTINUOUS
10
122.4357109999999977
20
-118.8437539999999899
11
122.3404729999999887
21
-118.6532780000000002
0
LINE
8
BLACK
6
CONTINUOUS
10
122.3404729999999887
20
-118.6532780000000002
11
122.2452349999999939
21
-118.5580389999999937
0
LINE
8
BLACK
6
CONTINUOUS
10
122.2452349999999939
20
-118.5580389999999937
11
122.05475899999999
21
-118.4628009999999989
0
LINE
8
BLACK
6
CONTINUOUS
10
122.05475899999999
20
-118.4628009999999989
11
121.673805999999999
21
-118.4628009999999989
0
LINE
8
BLACK
6
CONTINUOUS
10
121.673805999999999
20
-118.4628009999999989
11
121.4833299999999952
21
-118.5580389999999937
0
LINE
8
BLACK
6
CONTINUOUS
10
121.4833299999999952
20
-118.5580389999999937
11
121.3880920000000003
21
-118.6532780000000002
0
LINE
8
BLACK
6
CONTINUOUS
10
121.3880920000000003
20
-118.6532780000000002
11
121.2928539999999913
21
-118.8437539999999899
0
LINE
8
BLACK
6
CONTINUOUS
10
123.673805999999999
20
-117.7008969999999977
11
123.8642830000000004
21
-117.7008969999999977
0
LINE
8
BLACK
6
CONTINUOUS
10
123.8642830000000004
20
-117.7008969999999977
11
124.05475899999999
21
-117.7961349999999925
0
LINE
8
BLACK
6
CONTINUOUS
10
124.05475899999999
20
-117.7961349999999925
11
124.149996999999999
21
-117.8913730000000015
0
LINE
8
BLACK
6
CONTINUOUS
10
124.149996999999999
20
-117.8913730000000015
11
124.2452349999999939
21
-118.0818489999999912
0
LINE
8
BLACK
6
CONTINUOUS
10
124.2452349999999939
20
-118.0818489999999912
11
124.3404729999999887
21
-118.4628009999999989
0
LINE
8
BLACK
6
CONTINUOUS
10
124.3404729999999887
20
-118.4628009999999989
11
124.3404729999999887
21
-118.9389919999999989
0
LINE
8
BLACK
6
CONTINUOUS
10
124.3404729999999887
20
-118.9389919999999989
11
124.2452349999999939
21
-119.3199439999999925
0
LINE
8
BLACK
6
CONTINUOUS
10
124.2452349999999939
20
-119.3199439999999925
11
124.149996999999999
21
-119.5104199999999963
0
LINE
8
BLACK
6
CONTINUOUS
10
124.149996999999999
20
-119.5104199999999963
11
124.05475899999999
21
-119.6056589999999886
0
LINE
8
BLACK
6
CONTINUOUS
10
124.05475899999999
20
-119.6056589999999886
11
123.8642830000000004
21
-119.7008969999999977
0
LINE
8
BLACK
6
CONTINUOUS
10
123.8642830000000004
20
-119.7008969999999977
11
123.673805999999999
21
-119.7008969999999977
0
LINE
8
BLACK
6
CONTINUOUS
10
123.673805999999999
20
-119.7008969999999977
11
123.4833299999999952
21
-119.6056589999999886
0
LINE
8
BLACK
6
CONTINUOUS
10
123.4833299999999952
20
-119.6056589999999886
11
123.3880920000000003
21
-119.5104199999999963
0
LINE
8
BLACK
6
CONTINUOUS
10
123.3880920000000003
20
-119.5104199999999963
11
123.2928539999999913
21
-119.3199439999999925
0
LINE
8
BLACK
6
CONTINUOUS
10
123.2928539999999913
20
-119.3199439999999925
11
123.1976159999999965
21
-118.9389919999999989
0
LINE
8
BLACK
6
CONTINUOUS
10
123.1976159999999965
20
-118.9389919999999989
11
123.1976159999999965
21
-118.4628009999999989
0
LINE
8
BLACK
6
CONTINUOUS
10
123.1976159999999965
20
-118.4628009999999989
11
123.2928539999999913
21
-118.0818489999999912
0
LINE
8
BLACK
6
CONTINUOUS
10
123.2928539999999913
20
-118.0818489999999912
11
123.3880920000000003
21
-117.8913730000000015
0
LINE
8
BLACK
6
CONTINUOUS
10
123.3880920000000003
20
-117.8913730000000015
11
123.4833299999999952
21
-117.7961349999999925
0
LINE
8
BLACK
6
CONTINUOUS
10
123.4833299999999952
20
-117.7961349999999925
11
123.673805999999999
21
-117.7008969999999977
0
LINE
8
BLACK
6
CONTINUOUS
10
125.57856799999999
20
-117.7008969999999977
11
125.7690449999999913
21
-117.7008969999999977
0
LINE
8
BLACK
6
CONTINUOUS
10
125.7690449999999913
20
-117.7008969999999977
11
125.9595209999999952
21
-117.7961349999999925
0
LINE
8
BLACK
6
CONTINUOUS
10
125.9595209999999952
20
-117.7961349999999925
11
126.05475899999999
21
-117.8913730000000015
0
LINE
8
BLACK
6
CONTINUOUS
10
126.05475899999999
20
-117.8913730000000015
11
126.149996999999999
21
-118.0818489999999912
0
LINE
8
BLACK
6
CONTINUOUS
10
126.149996999999999
20
-118.0818489999999912
11
126.2452349999999939
21
-118.4628009999999989
0
LINE
8
BLACK
6
CONTINUOUS
10
126.2452349999999939
20
-118.4628009999999989
11
126.2452349999999939
21
-118.9389919999999989
0
LINE
8
BLACK
6
CONTINUOUS
10
126.2452349999999939
20
-118.9389919999999989
11
126.149996999999999
21
-119.3199439999999925
0
LINE
8
BLACK
6
CONTINUOUS
10
126.149996999999999
20
-119.3199439999999925
11
126.05475899999999
21
-119.5104199999999963
0
LINE
8
BLACK
6
CONTINUOUS
10
126.05475899999999
20
-119.5104199999999963
11
125.9595209999999952
21
-119.6056589999999886
0
LINE
8
BLACK
6
CONTINUOUS
10
125.9595209999999952
20
-119.6056589999999886
11
125.7690449999999913
21
-119.7008969999999977
0
LINE
8
BLACK
6
CONTINUOUS
10
125.7690449999999913
20
-119.7008969999999977
11
125.57856799999999
21
-119.7008969999999977
0
LINE
8
BLACK
6
CONTINUOUS
10
125.57856799999999
20
-119.7008969999999977
11
125.3880920000000003
21
-119.6056589999999886
0
LINE
8
BLACK
6
CONTINUOUS
10
125.3880920000000003
20
-119.6056589999999886
11
125.2928539999999913
21
-119.5104199999999963
0
LINE
8
BLACK
6
CONTINUOUS
10
125.2928539999999913
20
-119.5104199999999963
11
125.1976159999999965
21
-119.3199439999999925
0
LINE
8
BLACK
6
CONTINUOUS
10
125.1976159999999965
20
-119.3199439999999925
11
125.1023779999999874
21
-118.9389919999999989
0
LINE
8
BLACK
6
CONTINUOUS
10
125.1023779999999874
20
-118.9389919999999989
11
125.1023779999999874
21
-118.4628009999999989
0
LINE
8
BLACK
6
CONTINUOUS
10
125.1023779999999874
20
-118.4628009999999989
11
125.1976159999999965
21
-118.0818489999999912
0
LINE
8
BLACK
6
CONTINUOUS
10
125.1976159999999965
20
-118.0818489999999912
11
125.2928539999999913
21
-117.8913730000000015
0
LINE
8
BLACK
6
CONTINUOUS
10
125.2928539999999913
20
-117.8913730000000015
11
125.3880920000000003
21
-117.7961349999999925
0
LINE
8
BLACK
6
CONTINUOUS
10
125.3880920000000003
20
-117.7961349999999925
11
125.57856799999999
21
-117.7008969999999977
0
LINE
8
BLACK
6
CONTINUOUS
10
127.1023779999999874
20
-119.7008969999999977
11
127.1023779999999874
21
-118.3675629999999899
0
LINE
8
BLACK
6
CONTINUOUS
10
127.1023779999999874
20
-118.5580389999999937
11
127.1976159999999965
21
-118.4628009999999989
0
LINE
8
BLACK
6
CONTINUOUS
10
127.1976159999999965
20
-118.4628009999999989
11
127.3880920000000003
21
-118.3675629999999899
0
LINE
8
BLACK
6
CONTINUOUS
10
127.3880920000000003
20
-118.3675629999999899
11
127.6738069999999965
21
-118.3675629999999899
0
LINE
8
BLACK
6
CONTINUOUS
10
127.6738069999999965
20
-118.3675629999999899
11
127.8642830000000004
21
-118.4628009999999989
0
LINE
8
BLACK
6
CONTINUOUS
10
127.8642830000000004
20
-118.4628009999999989
11
127.9595209999999952
21
-118.6532780000000002
0
LINE
8
BLACK
6
CONTINUOUS
10
127.9595209999999952
20
-118.6532780000000002
11
127.9595209999999952
21
-119.7008969999999977
0
LINE
8
BLACK
6
CONTINUOUS
10
127.9595209999999952
20
-118.6532780000000002
11
128.05475899999999
21
-118.4628009999999989
0
LINE
8
BLACK
6
CONTINUOUS
10
128.05475899999999
20
-118.4628009999999989
11
128.2452350000000081
21
-118.3675629999999899
0
LINE
8
BLACK
6
CONTINUOUS
10
128.2452350000000081
20
-118.3675629999999899
11
128.5309489999999926
21
-118.3675629999999899
0
LINE
8
BLACK
6
CONTINUOUS
10
128.5309489999999926
20
-118.3675629999999899
11
128.7214260000000081
21
-118.4628009999999989
0
LINE
8
BLACK
6
CONTINUOUS
10
128.7214260000000081
20
-118.4628009999999989
11
128.8166640000000029
21
-118.6532780000000002
0
LINE
8
BLACK
6
CONTINUOUS
10
128.8166640000000029
20
-118.6532780000000002
11
128.8166640000000029
21
-119.7008969999999977
0
LINE
8
BLACK
6
CONTINUOUS
10
129.7690450000000055
20
-119.7008969999999977
11
129.7690450000000055
21
-118.3675629999999899
0
LINE
8
BLACK
6
CONTINUOUS
10
129.7690450000000055
20
-118.5580389999999937
11
129.8642830000000004
21
-118.4628009999999989
0
LINE
8
BLACK
6
CONTINUOUS
10
129.8642830000000004
20
-118.4628009999999989
11
130.05475899999999
21
-118.3675629999999899
0
LINE
8
BLACK
6
CONTINUOUS
10
130.05475899999999
20
-118.3675629999999899
11
130.3404740000000004
21
-118.3675629999999899
0
LINE
8
BLACK
6
CONTINUOUS
10
130.3404740000000004
20
-118.3675629999999899
11
130.53094999999999
21
-118.4628009999999989
0
LINE
8
BLACK
6
CONTINUOUS
10
130.53094999999999
20
-118.4628009999999989
11
130.6261879999999849
21
-118.6532780000000002
0
LINE
8
BLACK
6
CONTINUOUS
10
130.6261879999999849
20
-118.6532780000000002
11
130.6261879999999849
21
-119.7008969999999977
0
LINE
8
BLACK
6
CONTINUOUS
10
130.6261879999999849
20
-118.6532780000000002
11
130.7214260000000081
21
-118.4628009999999989
0
LINE
8
BLACK
6
CONTINUOUS
10
130.7214260000000081
20
-118.4628009999999989
11
130.9119019999999978
21
-118.3675629999999899
0
LINE
8
BLACK
6
CONTINUOUS
10
130.9119019999999978
20
-118.3675629999999899
11
131.1976159999999823
21
-118.3675629999999899
0
LINE
8
BLACK
6
CONTINUOUS
10
131.1976159999999823
20
-118.3675629999999899
11
131.3880929999999978
21
-118.4628009999999989
0
LINE
8
BLACK
6
CONTINUOUS
10
131.3880929999999978
20
-118.4628009999999989
11
131.4833309999999926
21
-118.6532780000000002
0
LINE
8
BLACK
6
CONTINUOUS
10
131.4833309999999926
20
-118.6532780000000002
11
131.4833309999999926
21
-119.7008969999999977
0
LINE
8
BLACK
6
CONTINUOUS
10
135.3880929999999978
20
-117.6056589999999886
11
133.6738079999999798
21
-120.1770870000000002
0
LINE
8
BLACK
6
CONTINUOUS
10
137.9595219999999927
20
-117.7008969999999977
11
138.1499989999999798
21
-117.7008969999999977
0
LINE
8
BLACK
6
CONTINUOUS
10
138.1499989999999798
20
-117.7008969999999977
11
138.3404749999999979
21
-117.7961349999999925
0
LINE
8
BLACK
6
CONTINUOUS
10
138.3404749999999979
20
-117.7961349999999925
11
138.4357129999999927
21
-117.8913730000000015
0
LINE
8
BLACK
6
CONTINUOUS
10
138.4357129999999927
20
-117.8913730000000015
11
138.5309509999999875
21
-118.0818489999999912
0
LINE
8
BLACK
6
CONTINUOUS
10
138.5309509999999875
20
-118.0818489999999912
11
138.6261889999999823
21
-118.4628009999999989
0
LINE
8
BLACK
6
CONTINUOUS
10
138.6261889999999823
20
-118.4628009999999989
11
138.6261889999999823
21
-118.9389919999999989
0
LINE
8
BLACK
6
CONTINUOUS
10
138.6261889999999823
20
-118.9389919999999989
11
138.5309509999999875
21
-119.3199439999999925
0
LINE
8
BLACK
6
CONTINUOUS
10
138.5309509999999875
20
-119.3199439999999925
11
138.4357129999999927
21
-119.5104199999999963
0
LINE
8
BLACK
6
CONTINUOUS
10
138.4357129999999927
20
-119.5104199999999963
11
138.3404749999999979
21
-119.6056589999999886
0
LINE
8
BLACK
6
CONTINUOUS
10
138.3404749999999979
20
-119.6056589999999886
11
138.1499989999999798
21
-119.7008969999999977
0
LINE
8
BLACK
6
CONTINUOUS
10
138.1499989999999798
20
-119.7008969999999977
11
137.9595219999999927
21
-119.7008969999999977
0
LINE
8
BLACK
6
CONTINUOUS
10
137.9595219999999927
20
-119.7008969999999977
11
137.769046000000003
21
-119.6056589999999886
0
LINE
8
BLACK
6
CONTINUOUS
10
137.769046000000003
20
-119.6056589999999886
11
137.6738079999999798
21
-119.5104199999999963
0
LINE
8
BLACK
6
CONTINUOUS
10
137.6738079999999798
20
-119.5104199999999963
11
137.5785699999999849
21
-119.3199439999999925
0
LINE
8
BLACK
6
CONTINUOUS
10
137.5785699999999849
20
-119.3199439999999925
11
137.4833319999999901
21
-118.9389919999999989
0
LINE
8
BLACK
6
CONTINUOUS
10
137.4833319999999901
20
-118.9389919999999989
11
137.4833319999999901
21
-118.4628009999999989
0
LINE
8
BLACK
6
CONTINUOUS
10
137.4833319999999901
20
-118.4628009999999989
11
137.5785699999999849
21
-118.0818489999999912
0
LINE
8
BLACK
6
CONTINUOUS
10
137.5785699999999849
20
-118.0818489999999912
11
137.6738079999999798
21
-117.8913730000000015
0
LINE
8
BLACK
6
CONTINUOUS
10
137.6738079999999798
20
-117.8913730000000015
11
137.769046000000003
21
-117.7961349999999925
0
LINE
8
BLACK
6
CONTINUOUS
10
137.769046000000003
20
-117.7961349999999925
11
137.9595219999999927
21
-117.7008969999999977
0
LINE
8
BLACK
6
CONTINUOUS
10
139.4833319999999901
20
-119.5104199999999963
11
139.5785699999999849
21
-119.6056589999999886
0
LINE
8
BLACK
6
CONTINUOUS
10
139.5785699999999849
20
-119.6056589999999886
11
139.4833319999999901
21
-119.7008969999999977
0
LINE
8
BLACK
6
CONTINUOUS
10
139.4833319999999901
20
-119.7008969999999977
11
139.3880939999999953
21
-119.6056589999999886
0
LINE
8
BLACK
6
CONTINUOUS
10
139.3880939999999953
20
-119.6056589999999886
11
139.4833319999999901
21
-119.5104199999999963
0
LINE
8
BLACK
6
CONTINUOUS
10
139.4833319999999901
20
-119.5104199999999963
11
139.4833319999999901
21
-119.7008969999999977
0
LINE
8
BLACK
6
CONTINUOUS
10
141.4833319999999901
20
-119.7008969999999977
11
140.3404749999999979
21
-119.7008969999999977
0
LINE
8
BLACK
6
CONTINUOUS
10
140.9119029999999952
20
-119.7008969999999977
11
140.9119029999999952
21
-117.7008969999999977
0
LINE
8
BLACK
6
CONTINUOUS
10
140.9119029999999952
20
-117.7008969999999977
11
140.7214270000000056
21
-117.9866109999999964
0
LINE
8
BLACK
6
CONTINUOUS
10
140.7214270000000056
20
-117.9866109999999964
11
140.5309509999999875
21
-118.1770870000000002
0
LINE
8
BLACK
6
CONTINUOUS
10
140.5309509999999875
20
-118.1770870000000002
11
140.3404749999999979
21
-118.272324999999995
0
LINE
8
BLACK
6
CONTINUOUS
10
142.6261889999999823
20
-118.5580389999999937
11
142.4357129999999927
21
-118.4628009999999989
0
LINE
8
BLACK
6
CONTINUOUS
10
142.4357129999999927
20
-118.4628009999999989
11
142.3404749999999979
21
-118.3675629999999899
0
LINE
8
BLACK
6
CONTINUOUS
10
142.3404749999999979
20
-118.3675629999999899
11
142.245237000000003
21
-118.1770870000000002
0
LINE
8
BLACK
6
CONTINUOUS
10
142.245237000000003
20
-118.1770870000000002
11
142.245237000000003
21
-118.0818489999999912
0
LINE
8
BLACK
6
CONTINUOUS
10
142.245237000000003
20
-118.0818489999999912
11
142.3404749999999979
21
-117.8913730000000015
0
LINE
8
BLACK
6
CONTINUOUS
10
142.3404749999999979
20
-117.8913730000000015
11
142.4357129999999927
21
-117.7961349999999925
0
LINE
8
BLACK
6
CONTINUOUS
10
142.4357129999999927
20
-117.7961349999999925
11
142.6261889999999823
21
-117.7008969999999977
0
LINE
8
BLACK
6
CONTINUOUS
10
142.6261889999999823
20
-117.7008969999999977
11
143.0071419999999875
21
-117.7008969999999977
0
LINE
8
BLACK
6
CONTINUOUS
10
143.0071419999999875
20
-117.7008969999999977
11
143.1976180000000056
21
-117.7961349999999925
0
LINE
8
BLACK
6
CONTINUOUS
10
143.1976180000000056
20
-117.7961349999999925
11
143.2928560000000004
21
-117.8913730000000015
0
LINE
8
BLACK
6
CONTINUOUS
10
143.2928560000000004
20
-117.8913730000000015
11
143.3880939999999953
21
-118.0818489999999912
0
LINE
8
BLACK
6
CONTINUOUS
10
143.3880939999999953
20
-118.0818489999999912
11
143.3880939999999953
21
-118.1770870000000002
0
LINE
8
BLACK
6
CONTINUOUS
10
143.3880939999999953
20
-118.1770870000000002
11
143.2928560000000004
21
-118.3675629999999899
0
LINE
8
BLACK
6
CONTINUOUS
10
143.2928560000000004
20
-118.3675629999999899
11
143.1976180000000056
21
-118.4628009999999989
0
LINE
8
BLACK
6
CONTINUOUS
10
143.1976180000000056
20
-118.4628009999999989
11
143.0071419999999875
21
-118.5580389999999937
0
LINE
8
BLACK
6
CONTINUOUS
10
143.0071419999999875
20
-118.5580389999999937
11
142.6261889999999823
21
-118.5580389999999937
0
LINE
8
BLACK
6
CONTINUOUS
10
142.6261889999999823
20
-118.5580389999999937
11
142.4357129999999927
21
-118.6532780000000002
0
LINE
8
BLACK
6
CONTINUOUS
10
142.4357129999999927
20
-118.6532780000000002
11
142.3404749999999979
21
-118.7485159999999951
0
LINE
8
BLACK
6
CONTINUOUS
10
142.3404749999999979
20
-118.7485159999999951
11
142.245237000000003
21
-118.9389919999999989
0
LINE
8
BLACK
6
CONTINUOUS
10
142.245237000000003
20
-118.9389919999999989
11
142.245237000000003
21
-119.3199439999999925
0
LINE
8
BLACK
6
CONTINUOUS
10
142.245237000000003
20
-119.3199439999999925
11
142.3404749999999979
21
-119.5104199999999963
0
LINE
8
BLACK
6
CONTINUOUS
10
142.3404749999999979
20
-119.5104199999999963
11
142.4357129999999927
21
-119.6056589999999886
0
LINE
8
BLACK
6
CONTINUOUS
10
142.4357129999999927
20
-119.6056589999999886
11
142.6261889999999823
21
-119.7008969999999977
0
LINE
8
BLACK
6
CONTINUOUS
10
142.6261889999999823
20
-119.7008969999999977
11
143.0071419999999875
21
-119.7008969999999977
0
LINE
8
BLACK
6
CONTINUOUS
10
143.0071419999999875
20
-119.7008969999999977
11
143.1976180000000056
21
-119.6056589999999886
0
LINE
8
BLACK
6
CONTINUOUS
10
143.1976180000000056
20
-119.6056589999999886
11
143.2928560000000004
21
-119.5104199999999963
0
LINE
8
BLACK
6
CONTINUOUS
10
143.2928560000000004
20
-119.5104199999999963
11
143.3880939999999953
21
-119.3199439999999925
0
LINE
8
BLACK
6
CONTINUOUS
10
143.3880939999999953
20
-119.3199439999999925
11
143.3880939999999953
21
-118.9389919999999989
0
LINE
8
BLACK
6
CONTINUOUS
10
143.3880939999999953
20
-118.9389919999999989
11
143.2928560000000004
21
-118.7485159999999951
0
LINE
8
BLACK
6
CONTINUOUS
10
143.2928560000000004
20
-118.7485159999999951
11
143.1976180000000056
21
-118.6532780000000002
0
LINE
8
BLACK
6
CONTINUOUS
10
143.1976180000000056
20
-118.6532780000000002
11
143.0071419999999875
21
-118.5580389999999937
0
LINE
8
BLACK
6
CONTINUOUS
10
145.2928560000000004
20
-119.7008969999999977
11
144.1499989999999798
21
-119.7008969999999977
0
LINE
8
BLACK
6
CONTINUOUS
10
144.7214270000000056
20
-119.7008969999999977
11
144.7214270000000056
21
-117.7008969999999977
0
LINE
8
BLACK
6
CONTINUOUS
10
144.7214270000000056
20
-117.7008969999999977
11
144.5309509999999875
21
-117.9866109999999964
0
LINE
8
BLACK
6
CONTINUOUS
10
144.5309509999999875
20
-117.9866109999999964
11
144.3404749999999979
21
-118.1770870000000002
0
LINE
8
BLACK
6
CONTINUOUS
10
144.3404749999999979
20
-118.1770870000000002
11
144.1499989999999798
21
-118.272324999999995
0
LINE
8
BLACK
6
CONTINUOUS
10
147.1976180000000056
20
-119.7008969999999977
11
146.054760999999985
21
-119.7008969999999977
0
LINE
8
BLACK
6
CONTINUOUS
10
146.6261889999999823
20
-119.7008969999999977
11
146.6261889999999823
21
-117.7008969999999977
0
LINE
8
BLACK
6
CONTINUOUS
10
146.6261889999999823
20
-117.7008969999999977
11
146.4357129999999927
21
-117.9866109999999964
0
LINE
8
BLACK
6
CONTINUOUS
10
146.4357129999999927
20
-117.9866109999999964
11
146.245237000000003
21
-118.1770870000000002
0
LINE
8
BLACK
6
CONTINUOUS
10
146.245237000000003
20
-118.1770870000000002
11
146.054760999999985
21
-118.272324999999995
0
LINE
8
BLACK
6
CONTINUOUS
10
147.9595229999999901
20
-117.7008969999999977
11
147.9595229999999901
21
-118.0818489999999912
0
LINE
8
BLACK
6
CONTINUOUS
10
148.7214280000000031
20
-117.7008969999999977
11
148.7214280000000031
21
-118.0818489999999912
0
LINE
8
BLACK
6
CONTINUOUS
10
151.6738100000000031
20
-120.4628009999999989
11
151.5785709999999824
21
-120.3675629999999899
0
LINE
8
BLACK
6
CONTINUOUS
10
151.5785709999999824
20
-120.3675629999999899
11
151.3880949999999928
21
-120.0818489999999912
0
LINE
8
BLACK
6
CONTINUOUS
10
151.3880949999999928
20
-120.0818489999999912
11
151.2928569999999979
21
-119.8913730000000015
0
LINE
8
BLACK
6
CONTINUOUS
10
151.2928569999999979
20
-119.8913730000000015
11
151.1976190000000031
21
-119.6056589999999886
0
LINE
8
BLACK
6
CONTINUOUS
10
151.1976190000000031
20
-119.6056589999999886
11
151.1023809999999798
21
-119.1294679999999886
0
LINE
8
BLACK
6
CONTINUOUS
10
151.1023809999999798
20
-119.1294679999999886
11
151.1023809999999798
21
-118.7485159999999951
0
LINE
8
BLACK
6
CONTINUOUS
10
151.1023809999999798
20
-118.7485159999999951
11
151.1976190000000031
21
-118.272324999999995
0
LINE
8
BLACK
6
CONTINUOUS
10
151.1976190000000031
20
-118.272324999999995
11
151.2928569999999979
21
-117.9866109999999964
0
LINE
8
BLACK
6
CONTINUOUS
10
151.2928569999999979
20
-117.9866109999999964
11
151.3880949999999928
21
-117.7961349999999925
0
LINE
8
BLACK
6
CONTINUOUS
10
151.3880949999999928
20
-117.7961349999999925
11
151.5785709999999824
21
-117.5104199999999963
0
LINE
8
BLACK
6
CONTINUOUS
10
151.5785709999999824
20
-117.5104199999999963
11
151.6738100000000031
21
-117.4151820000000015
0
LINE
8
BLACK
6
CONTINUOUS
10
153.4833329999999876
20
-119.7008969999999977
11
152.3404759999999953
21
-119.7008969999999977
0
LINE
8
BLACK
6
CONTINUOUS
10
152.9119039999999927
20
-119.7008969999999977
11
152.9119039999999927
21
-117.7008969999999977
0
LINE
8
BLACK
6
CONTINUOUS
10
152.9119039999999927
20
-117.7008969999999977
11
152.7214280000000031
21
-117.9866109999999964
0
LINE
8
BLACK
6
CONTINUOUS
10
152.7214280000000031
20
-117.9866109999999964
11
152.530951999999985
21
-118.1770870000000002
0
LINE
8
BLACK
6
CONTINUOUS
10
152.530951999999985
20
-118.1770870000000002
11
152.3404759999999953
21
-118.272324999999995
0
LINE
8
BLACK
6
CONTINUOUS
10
155.8642859999999928
20
-119.7008969999999977
11
155.8642859999999928
21
-117.7008969999999977
0
LINE
8
BLACK
6
CONTINUOUS
10
156.7214290000000005
20
-119.7008969999999977
11
156.7214290000000005
21
-118.6532780000000002
0
LINE
8
BLACK
6
CONTINUOUS
10
156.7214290000000005
20
-118.6532780000000002
11
156.6261910000000057
21
-118.4628009999999989
0
LINE
8
BLACK
6
CONTINUOUS
10
156.6261910000000057
20
-118.4628009999999989
11
156.4357149999999876
21
-118.3675629999999899
0
LINE
8
BLACK
6
CONTINUOUS
10
156.4357149999999876
20
-118.3675629999999899
11
156.1500000000000057
21
-118.3675629999999899
0
LINE
8
BLACK
6
CONTINUOUS
10
156.1500000000000057
20
-118.3675629999999899
11
155.9595239999999876
21
-118.4628009999999989
0
LINE
8
BLACK
6
CONTINUOUS
10
155.9595239999999876
20
-118.4628009999999989
11
155.8642859999999928
21
-118.5580389999999937
0
LINE
8
BLACK
6
CONTINUOUS
10
157.9595239999999876
20
-119.7008969999999977
11
157.769047999999998
21
-119.6056589999999886
0
LINE
8
BLACK
6
CONTINUOUS
10
157.769047999999998
20
-119.6056589999999886
11
157.6738100000000031
21
-119.5104199999999963
0
LINE
8
BLACK
6
CONTINUOUS
10
157.6738100000000031
20
-119.5104199999999963
11
157.5785719999999799
21
-119.3199439999999925
0
LINE
8
BLACK
6
CONTINUOUS
10
157.5785719999999799
20
-119.3199439999999925
11
157.5785719999999799
21
-118.7485159999999951
0
LINE
8
BLACK
6
CONTINUOUS
10
157.5785719999999799
20
-118.7485159999999951
11
157.6738100000000031
21
-118.5580389999999937
0
LINE
8
BLACK
6
CONTINUOUS
10
157.6738100000000031
20
-118.5580389999999937
11
157.769047999999998
21
-118.4628009999999989
0
LINE
8
BLACK
6
CONTINUOUS
10
157.769047999999998
20
-118.4628009999999989
11
157.9595239999999876
21
-118.3675629999999899
0
LINE
8
BLACK
6
CONTINUOUS
10
157.9595239999999876
20
-118.3675629999999899
11
158.245238999999998
21
-118.3675629999999899
0
LINE
8
BLACK
6
CONTINUOUS
10
158.245238999999998
20
-118.3675629999999899
11
158.4357149999999876
21
-118.4628009999999989
0
LINE
8
BLACK
6
CONTINUOUS
10
158.4357149999999876
20
-118.4628009999999989
11
158.5309529999999825
21
-118.5580389999999937
0
LINE
8
BLACK
6
CONTINUOUS
10
158.5309529999999825
20
-118.5580389999999937
11
158.6261910000000057
21
-118.7485159999999951
0
LINE
8
BLACK
6
CONTINUOUS
10
158.6261910000000057
20
-118.7485159999999951
11
158.6261910000000057
21
-119.3199439999999925
0
LINE
8
BLACK
6
CONTINUOUS
10
158.6261910000000057
20
-119.3199439999999925
11
158.5309529999999825
21
-119.5104199999999963
0
LINE
8
BLACK
6
CONTINUOUS
10
158.5309529999999825
20
-119.5104199999999963
11
158.4357149999999876
21
-119.6056589999999886
0
LINE
8
BLACK
6
CONTINUOUS
10
158.4357149999999876
20
-119.6056589999999886
11
158.245238999999998
21
-119.7008969999999977
0
LINE
8
BLACK
6
CONTINUOUS
10
158.245238999999998
20
-119.7008969999999977
11
157.9595239999999876
21
-119.7008969999999977
0
LINE
8
BLACK
6
CONTINUOUS
10
159.769047999999998
20
-119.7008969999999977
11
159.5785719999999799
21
-119.6056589999999886
0
LINE
8
BLACK
6
CONTINUOUS
10
159.5785719999999799
20
-119.6056589999999886
11
159.4833339999999851
21
-119.4151820000000015
0
LINE
8
BLACK
6
CONTINUOUS
10
159.4833339999999851
20
-119.4151820000000015
11
159.4833339999999851
21
-117.7008969999999977
0
LINE
8
BLACK
6
CONTINUOUS
10
161.2928579999999954
20
-119.6056589999999886
11
161.1023820000000057
21
-119.7008969999999977
0
LINE
8
BLACK
6
CONTINUOUS
10
161.1023820000000057
20
-119.7008969999999977
11
160.7214290000000005
21
-119.7008969999999977
0
LINE
8
BLACK
6
CONTINUOUS
10
160.7214290000000005
20
-119.7008969999999977
11
160.5309529999999825
21
-119.6056589999999886
0
LINE
8
BLACK
6
CONTINUOUS
10
160.5309529999999825
20
-119.6056589999999886
11
160.4357149999999876
21
-119.4151820000000015
0
LINE
8
BLACK
6
CONTINUOUS
10
160.4357149999999876
20
-119.4151820000000015
11
160.4357149999999876
21
-118.6532780000000002
0
LINE
8
BLACK
6
CONTINUOUS
10
160.4357149999999876
20
-118.6532780000000002
11
160.5309529999999825
21
-118.4628009999999989
0
LINE
8
BLACK
6
CONTINUOUS
10
160.5309529999999825
20
-118.4628009999999989
11
160.7214290000000005
21
-118.3675629999999899
0
LINE
8
BLACK
6
CONTINUOUS
10
160.7214290000000005
20
-118.3675629999999899
11
161.1023820000000057
21
-118.3675629999999899
0
LINE
8
BLACK
6
CONTINUOUS
10
161.1023820000000057
20
-118.3675629999999899
11
161.2928579999999954
21
-118.4628009999999989
0
LINE
8
BLACK
6
CONTINUOUS
10
161.2928579999999954
20
-118.4628009999999989
11
161.3880959999999902
21
-118.6532780000000002
0
LINE
8
BLACK
6
CONTINUOUS
10
161.3880959999999902
20
-118.6532780000000002
11
161.3880959999999902
21
-118.8437539999999899
0
LINE
8
BLACK
6
CONTINUOUS
10
161.3880959999999902
20
-118.8437539999999899
11
160.4357149999999876
21
-119.0342299999999938
0
LINE
8
BLACK
6
CONTINUOUS
10
162.0547629999999799
20
-120.4628009999999989
11
162.1500010000000032
21
-120.3675629999999899
0
LINE
8
BLACK
6
CONTINUOUS
10
162.1500010000000032
20
-120.3675629999999899
11
162.3404769999999928
21
-120.0818489999999912
0
LINE
8
BLACK
6
CONTINUOUS
10
162.3404769999999928
20
-120.0818489999999912
11
162.4357149999999876
21
-119.8913730000000015
0
LINE
8
BLACK
6
CONTINUOUS
10
162.4357149999999876
20
-119.8913730000000015
11
162.5309529999999825
21
-119.6056589999999886
0
LINE
8
BLACK
6
CONTINUOUS
10
162.5309529999999825
20
-119.6056589999999886
11
162.6261910000000057
21
-119.1294679999999886
0
LINE
8
BLACK
6
CONTINUOUS
10
162.6261910000000057
20
-119.1294679999999886
11
162.6261910000000057
21
-118.7485159999999951
0
LINE
8
BLACK
6
CONTINUOUS
10
162.6261910000000057
20
-118.7485159999999951
11
162.5309529999999825
21
-118.272324999999995
0
LINE
8
BLACK
6
CONTINUOUS
10
162.5309529999999825
20
-118.272324999999995
11
162.4357149999999876
21
-117.9866109999999964
0
LINE
8
BLACK
6
CONTINUOUS
10
162.4357149999999876
20
-117.9866109999999964
11
162.3404769999999928
21
-117.7961349999999925
0
LINE
8
BLACK
6
CONTINUOUS
10
162.3404769999999928
20
-117.7961349999999925
11
162.1500010000000032
21
-117.5104199999999963
0
LINE
8
BLACK
6
CONTINUOUS
10
162.1500010000000032
20
-117.5104199999999963
11
162.0547629999999799
21
-117.4151820000000015
0
LINE
8
BLACK
6
CONTINUOUS
10
165.6738110000000006
20
-120.4628009999999989
11
165.5785719999999799
21
-120.3675629999999899
0
LINE
8
BLACK
6
CONTINUOUS
10
165.5785719999999799
20
-120.3675629999999899
11
165.3880959999999902
21
-120.0818489999999912
0
LINE
8
BLACK
6
CONTINUOUS
10
165.3880959999999902
20
-120.0818489999999912
11
165.2928579999999954
21
-119.8913730000000015
0
LINE
8
BLACK
6
CONTINUOUS
10
165.2928579999999954
20
-119.8913730000000015
11
165.1976200000000006
21
-119.6056589999999886
0
LINE
8
BLACK
6
CONTINUOUS
10
165.1976200000000006
20
-119.6056589999999886
11
165.1023820000000057
21
-119.1294679999999886
0
LINE
8
BLACK
6
CONTINUOUS
10
165.1023820000000057
20
-119.1294679999999886
11
165.1023820000000057
21
-118.7485159999999951
0
LINE
8
BLACK
6
CONTINUOUS
10
165.1023820000000057
20
-118.7485159999999951
11
165.1976200000000006
21
-118.272324999999995
0
LINE
8
BLACK
6
CONTINUOUS
10
165.1976200000000006
20
-118.272324999999995
11
165.2928579999999954
21
-117.9866109999999964
0
LINE
8
BLACK
6
CONTINUOUS
10
165.2928579999999954
20
-117.9866109999999964
11
165.3880959999999902
21
-117.7961349999999925
0
LINE
8
BLACK
6
CONTINUOUS
10
165.3880959999999902
20
-117.7961349999999925
11
165.5785719999999799
21
-117.5104199999999963
0
LINE
8
BLACK
6
CONTINUOUS
10
165.5785719999999799
20
-117.5104199999999963
11
165.6738110000000006
21
-117.4151820000000015
0
LINE
8
BLACK
6
CONTINUOUS
10
166.4357149999999876
20
-118.3675629999999899
11
166.4357149999999876
21
-119.7008969999999977
0
LINE
8
BLACK
6
CONTINUOUS
10
166.4357149999999876
20
-118.5580389999999937
11
166.5309529999999825
21
-118.4628009999999989
0
LINE
8
BLACK
6
CONTINUOUS
10
166.5309529999999825
20
-118.4628009999999989
11
166.7214290000000005
21
-118.3675629999999899
0
LINE
8
BLACK
6
CONTINUOUS
10
166.7214290000000005
20
-118.3675629999999899
11
167.0071439999999825
21
-118.3675629999999899
0
LINE
8
BLACK
6
CONTINUOUS
10
167.0071439999999825
20
-118.3675629999999899
11
167.1976200000000006
21
-118.4628009999999989
0
LINE
8
BLACK
6
CONTINUOUS
10
167.1976200000000006
20
-118.4628009999999989
11
167.2928579999999954
21
-118.6532780000000002
0
LINE
8
BLACK
6
CONTINUOUS
10
167.2928579999999954
20
-118.6532780000000002
11
167.2928579999999954
21
-119.7008969999999977
0
LINE
8
BLACK
6
CONTINUOUS
10
168.5309529999999825
20
-119.7008969999999977
11
168.3404769999999928
21
-119.6056589999999886
0
LINE
8
BLACK
6
CONTINUOUS
10
168.3404769999999928
20
-119.6056589999999886
11
168.245238999999998
21
-119.5104199999999963
0
LINE
8
BLACK
6
CONTINUOUS
10
168.245238999999998
20
-119.5104199999999963
11
168.1500010000000032
21
-119.3199439999999925
0
LINE
8
BLACK
6
CONTINUOUS
10
168.1500010000000032
20
-119.3199439999999925
11
168.1500010000000032
21
-118.7485159999999951
0
LINE
8
BLACK
6
CONTINUOUS
10
168.1500010000000032
20
-118.7485159999999951
11
168.245238999999998
21
-118.5580389999999937
0
LINE
8
BLACK
6
CONTINUOUS
10
168.245238999999998
20
-118.5580389999999937
11
168.3404769999999928
21
-118.4628009999999989
0
LINE
8
BLACK
6
CONTINUOUS
10
168.3404769999999928
20
-118.4628009999999989
11
168.5309529999999825
21
-118.3675629999999899
0
LINE
8
BLACK
6
CONTINUOUS
10
168.5309529999999825
20
-118.3675629999999899
11
168.8166679999999928
21
-118.3675629999999899
0
LINE
8
BLACK
6
CONTINUOUS
10
168.8166679999999928
20
-118.3675629999999899
11
169.0071439999999825
21
-118.4628009999999989
0
LINE
8
BLACK
6
CONTINUOUS
10
169.0071439999999825
20
-118.4628009999999989
11
169.1023820000000057
21
-118.5580389999999937
0
LINE
8
BLACK
6
CONTINUOUS
10
169.1023820000000057
20
-118.5580389999999937
11
169.1976200000000006
21
-118.7485159999999951
0
LINE
8
BLACK
6
CONTINUOUS
10
169.1976200000000006
20
-118.7485159999999951
11
169.1976200000000006
21
-119.3199439999999925
0
LINE
8
BLACK
6
CONTINUOUS
10
169.1976200000000006
20
-119.3199439999999925
11
169.1023820000000057
21
-119.5104199999999963
0
LINE
8
BLACK
6
CONTINUOUS
10
169.1023820000000057
20
-119.5104199999999963
11
169.0071439999999825
21
-119.6056589999999886
0
LINE
8
BLACK
6
CONTINUOUS
10
169.0071439999999825
20
-119.6056589999999886
11
168.8166679999999928
21
-119.7008969999999977
0
LINE
8
BLACK
6
CONTINUOUS
10
168.8166679999999928
20
-119.7008969999999977
11
168.5309529999999825
21
-119.7008969999999977
0
LINE
8
BLACK
6
CONTINUOUS
10
169.7690489999999954
20
-118.3675629999999899
11
170.5309529999999825
21
-118.3675629999999899
0
LINE
8
BLACK
6
CONTINUOUS
10
170.0547629999999799
20
-117.7008969999999977
11
170.0547629999999799
21
-119.4151820000000015
0
LINE
8
BLACK
6
CONTINUOUS
10
170.0547629999999799
20
-119.4151820000000015
11
170.1500010000000032
21
-119.6056589999999886
0
LINE
8
BLACK
6
CONTINUOUS
10
170.1500010000000032
20
-119.6056589999999886
11
170.3404769999999928
21
-119.7008969999999977
0
LINE
8
BLACK
6
CONTINUOUS
10
170.3404769999999928
20
-119.7008969999999977
11
170.5309529999999825
21
-119.7008969999999977
0
LINE
8
BLACK
6
CONTINUOUS
10
172.721429999999998
20
-118.3675629999999899
11
172.721429999999998
21
-120.3675629999999899
0
LINE
8
BLACK
6
CONTINUOUS
10
172.721429999999998
20
-118.4628009999999989
11
172.9119059999999877
21
-118.3675629999999899
0
LINE
8
BLACK
6
CONTINUOUS
10
172.9119059999999877
20
-118.3675629999999899
11
173.2928589999999929
21
-118.3675629999999899
0
LINE
8
BLACK
6
CONTINUOUS
10
173.2928589999999929
20
-118.3675629999999899
11
173.4833349999999825
21
-118.4628009999999989
0
LINE
8
BLACK
6
CONTINUOUS
10
173.4833349999999825
20
-118.4628009999999989
11
173.5785730000000058
21
-118.5580389999999937
0
LINE
8
BLACK
6
CONTINUOUS
10
173.5785730000000058
20
-118.5580389999999937
11
173.6738110000000006
21
-118.7485159999999951
0
LINE
8
BLACK
6
CONTINUOUS
10
173.6738110000000006
20
-118.7485159999999951
11
173.6738110000000006
21
-119.3199439999999925
0
LINE
8
BLACK
6
CONTINUOUS
10
173.6738110000000006
20
-119.3199439999999925
11
173.5785730000000058
21
-119.5104199999999963
0
LINE
8
BLACK
6
CONTINUOUS
10
173.5785730000000058
20
-119.5104199999999963
11
173.4833349999999825
21
-119.6056589999999886
0
LINE
8
BLACK
6
CONTINUOUS
10
173.4833349999999825
20
-119.6056589999999886
11
173.2928589999999929
21
-119.7008969999999977
0
LINE
8
BLACK
6
CONTINUOUS
10
173.2928589999999929
20
-119.7008969999999977
11
172.9119059999999877
21
-119.7008969999999977
0
LINE
8
BLACK
6
CONTINUOUS
10
172.9119059999999877
20
-119.7008969999999977
11
172.721429999999998
21
-119.6056589999999886
0
LINE
8
BLACK
6
CONTINUOUS
10
174.8166679999999928
20
-119.7008969999999977
11
174.6261920000000032
21
-119.6056589999999886
0
LINE
8
BLACK
6
CONTINUOUS
10
174.6261920000000032
20
-119.6056589999999886
11
174.5309539999999799
21
-119.4151820000000015
0
LINE
8
BLACK
6
CONTINUOUS
10
174.5309539999999799
20
-119.4151820000000015
11
174.5309539999999799
21
-117.7008969999999977
0
LINE
8
BLACK
6
CONTINUOUS
10
176.4357159999999851
20
-119.7008969999999977
11
176.4357159999999851
21
-118.6532780000000002
0
LINE
8
BLACK
6
CONTINUOUS
10
176.4357159999999851
20
-118.6532780000000002
11
176.3404779999999903
21
-118.4628009999999989
0
LINE
8
BLACK
6
CONTINUOUS
10
176.3404779999999903
20
-118.4628009999999989
11
176.1500020000000006
21
-118.3675629999999899
0
LINE
8
BLACK
6
CONTINUOUS
10
176.1500020000000006
20
-118.3675629999999899
11
175.7690489999999954
21
-118.3675629999999899
0
LINE
8
BLACK
6
CONTINUOUS
10
175.7690489999999954
20
-118.3675629999999899
11
175.5785730000000058
21
-118.4628009999999989
0
LINE
8
BLACK
6
CONTINUOUS
10
176.4357159999999851
20
-119.6056589999999886
11
176.2452399999999955
21
-119.7008969999999977
0
LINE
8
BLACK
6
CONTINUOUS
10
176.2452399999999955
20
-119.7008969999999977
11
175.7690489999999954
21
-119.7008969999999977
0
LINE
8
BLACK
6
CONTINUOUS
10
175.7690489999999954
20
-119.7008969999999977
11
175.5785730000000058
21
-119.6056589999999886
0
LINE
8
BLACK
6
CONTINUOUS
10
175.5785730000000058
20
-119.6056589999999886
11
175.4833349999999825
21
-119.4151820000000015
0
LINE
8
BLACK
6
CONTINUOUS
10
175.4833349999999825
20
-119.4151820000000015
11
175.4833349999999825
21
-119.2247059999999976
0
LINE
8
BLACK
6
CONTINUOUS
10
175.4833349999999825
20
-119.2247059999999976
11
175.5785730000000058
21
-119.0342299999999938
0
LINE
8
BLACK
6
CONTINUOUS
10
175.5785730000000058
20
-119.0342299999999938
11
175.7690489999999954
21
-118.9389919999999989
0
LINE
8
BLACK
6
CONTINUOUS
10
175.7690489999999954
20
-118.9389919999999989
11
176.2452399999999955
21
-118.9389919999999989
0
LINE
8
BLACK
6
CONTINUOUS
10
176.2452399999999955
20
-118.9389919999999989
11
176.4357159999999851
21
-118.8437539999999899
0
LINE
8
BLACK
6
CONTINUOUS
10
177.1023830000000032
20
-118.3675629999999899
11
177.8642869999999903
21
-118.3675629999999899
0
LINE
8
BLACK
6
CONTINUOUS
10
177.3880969999999877
20
-117.7008969999999977
11
177.3880969999999877
21
-119.4151820000000015
0
LINE
8
BLACK
6
CONTINUOUS
10
177.3880969999999877
20
-119.4151820000000015
11
177.4833349999999825
21
-119.6056589999999886
0
LINE
8
BLACK
6
CONTINUOUS
10
177.4833349999999825
20
-119.6056589999999886
11
177.6738110000000006
21
-119.7008969999999977
0
LINE
8
BLACK
6
CONTINUOUS
10
177.6738110000000006
20
-119.7008969999999977
11
177.8642869999999903
21
-119.7008969999999977
0
LINE
8
BLACK
6
CONTINUOUS
10
179.2928589999999929
20
-119.6056589999999886
11
179.1023830000000032
21
-119.7008969999999977
0
LINE
8
BLACK
6
CONTINUOUS
10
179.1023830000000032
20
-119.7008969999999977
11
178.721429999999998
21
-119.7008969999999977
0
LINE
8
BLACK
6
CONTINUOUS
10
178.721429999999998
20
-119.7008969999999977
11
178.5309539999999799
21
-119.6056589999999886
0
LINE
8
BLACK
6
CONTINUOUS
10
178.5309539999999799
20
-119.6056589999999886
11
178.4357159999999851
21
-119.4151820000000015
0
LINE
8
BLACK
6
CONTINUOUS
10
178.4357159999999851
20
-119.4151820000000015
11
178.4357159999999851
21
-118.6532780000000002
0
LINE
8
BLACK
6
CONTINUOUS
10
178.4357159999999851
20
-118.6532780000000002
11
178.5309539999999799
21
-118.4628009999999989
0
LINE
8
BLACK
6
CONTINUOUS
10
178.5309539999999799
20
-118.4628009999999989
11
178.721429999999998
21
-118.3675629999999899
0
LINE
8
BLACK
6
CONTINUOUS
10
178.721429999999998
20
-118.3675629999999899
11
179.1023830000000032
21
-118.3675629999999899
0
LINE
8
BLACK
6
CONTINUOUS
10
179.1023830000000032
20
-118.3675629999999899
11
179.2928589999999929
21
-118.4628009999999989
0
LINE
8
BLACK
6
CONTINUOUS
10
179.2928589999999929
20
-118.4628009999999989
11
179.3880969999999877
21
-118.6532780000000002
0
LINE
8
BLACK
6
CONTINUOUS
10
179.3880969999999877
20
-118.6532780000000002
11
179.3880969999999877
21
-118.8437539999999899
0
LINE
8
BLACK
6
CONTINUOUS
10
179.3880969999999877
20
-118.8437539999999899
11
178.4357159999999851
21
-119.0342299999999938
0
LINE
8
BLACK
6
CONTINUOUS
10
181.1023830000000032
20
-119.7008969999999977
11
181.1023830000000032
21
-117.7008969999999977
0
LINE
8
BLACK
6
CONTINUOUS
10
181.1023830000000032
20
-119.6056589999999886
11
180.9119069999999851
21
-119.7008969999999977
0
LINE
8
BLACK
6
CONTINUOUS
10
180.9119069999999851
20
-119.7008969999999977
11
180.5309539999999799
21
-119.7008969999999977
0
LINE
8
BLACK
6
CONTINUOUS
10
180.5309539999999799
20
-119.7008969999999977
11
180.3404779999999903
21
-119.6056589999999886
0
LINE
8
BLACK
6
CONTINUOUS
10
180.3404779999999903
20
-119.6056589999999886
11
180.2452399999999955
21
-119.5104199999999963
0
LINE
8
BLACK
6
CONTINUOUS
10
180.2452399999999955
20
-119.5104199999999963
11
180.1500020000000006
21
-119.3199439999999925
0
LINE
8
BLACK
6
CONTINUOUS
10
180.1500020000000006
20
-119.3199439999999925
11
180.1500020000000006
21
-118.7485159999999951
0
LINE
8
BLACK
6
CONTINUOUS
10
180.1500020000000006
20
-118.7485159999999951
11
180.2452399999999955
21
-118.5580389999999937
0
LINE
8
BLACK
6
CONTINUOUS
10
180.2452399999999955
20
-118.5580389999999937
11
180.3404779999999903
21
-118.4628009999999989
0
LINE
8
BLACK
6
CONTINUOUS
10
180.3404779999999903
20
-118.4628009999999989
11
180.5309539999999799
21
-118.3675629999999899
0
LINE
8
BLACK
6
CONTINUOUS
10
180.5309539999999799
20
-118.3675629999999899
11
180.9119069999999851
21
-118.3675629999999899
0
LINE
8
BLACK
6
CONTINUOUS
10
180.9119069999999851
20
-118.3675629999999899
11
181.1023830000000032
21
-118.4628009999999989
0
LINE
8
BLACK
6
CONTINUOUS
10
181.8642879999999877
20
-120.4628009999999989
11
181.9595259999999826
21
-120.3675629999999899
0
LINE
8
BLACK
6
CONTINUOUS
10
181.9595259999999826
20
-120.3675629999999899
11
182.1500020000000006
21
-120.0818489999999912
0
LINE
8
BLACK
6
CONTINUOUS
10
182.1500020000000006
20
-120.0818489999999912
11
182.2452399999999955
21
-119.8913730000000015
0
LINE
8
BLACK
6
CONTINUOUS
10
182.2452399999999955
20
-119.8913730000000015
11
182.3404779999999903
21
-119.6056589999999886
0
LINE
8
BLACK
6
CONTINUOUS
10
182.3404779999999903
20
-119.6056589999999886
11
182.4357159999999851
21
-119.1294679999999886
0
LINE
8
BLACK
6
CONTINUOUS
10
182.4357159999999851
20
-119.1294679999999886
11
182.4357159999999851
21
-118.7485159999999951
0
LINE
8
BLACK
6
CONTINUOUS
10
182.4357159999999851
20
-118.7485159999999951
11
182.3404779999999903
21
-118.272324999999995
0
LINE
8
BLACK
6
CONTINUOUS
10
182.3404779999999903
20
-118.272324999999995
11
182.2452399999999955
21
-117.9866109999999964
0
LINE
8
BLACK
6
CONTINUOUS
10
182.2452399999999955
20
-117.9866109999999964
11
182.1500020000000006
21
-117.7961349999999925
0
LINE
8
BLACK
6
CONTINUOUS
10
182.1500020000000006
20
-117.7961349999999925
11
181.9595259999999826
21
-117.5104199999999963
0
LINE
8
BLACK
6
CONTINUOUS
10
181.9595259999999826
20
-117.5104199999999963
11
181.8642879999999877
21
-117.4151820000000015
  0
ENDSEC
  0
EOF
