M48
; DRILL file {KiCad 7.0.9} date Saturday, January 20, 2024 at 08:14:15 AM
; FORMAT={-:-/ absolute / metric / decimal}
; #@! TF.CreationDate,2024-01-20T08:14:15+10:00
; #@! TF.GenerationSoftware,Kicad,Pcbnew,7.0.9
; #@! TF.FileFunction,Plated,1,2,PTH
FMAT,2
METRIC
; #@! TA.AperFunction,Plated,PTH,ComponentDrill
T1C0.700
; #@! TA.AperFunction,Plated,PTH,ComponentDrill
T2C0.800
; #@! TA.AperFunction,Plated,PTH,ComponentDrill
T3C0.900
; #@! TA.AperFunction,Plated,PTH,ComponentDrill
T4C1.000
%
G90
G05
T1
X127.65Y-103.055
X127.65Y-104.955
X129.85Y-103.05
X129.85Y-104.95
T2
X129.222Y-86.312
X130.33Y-98.983
X132.02Y-88.807
X132.653Y-96.04
X154.793Y-86.815
X155.426Y-94.047
X157.085Y-83.874
X158.224Y-96.543
T3
X133.76Y-75.25
X134.2Y-92.35
X136.3Y-75.25
X136.74Y-92.35
X141.26Y-74.25
X141.325Y-94.55
X141.325Y-97.09
X143.8Y-74.25
X149.36Y-73.914
X150.25Y-91.35
X151.9Y-73.914
X152.79Y-91.35
T4
X122.05Y-94.07
X122.05Y-96.61
X122.05Y-99.15
X122.05Y-101.69
X122.05Y-104.23
X124.59Y-94.07
X124.59Y-96.61
X124.59Y-99.15
X124.59Y-101.69
X124.59Y-104.23
T0
M30
