  0
SECTION
  2
HEADER
  9
$ANGBASE
  50
0.0
  9
$ANGDIR
  70
1
  9
$MEASUREMENT
  70
1
  0
ENDSEC
  0
SECTION
  2
TABLES
  0
TABLE
  2
LTYPE
  70
4
  0
LTYPE
  5
40F
  2
CONTINUOUS
  70
0
  3
Solid line
  72
65
  73
0
  40
0.0
  0
LTYPE
  5
410
  2
DASHDOT
 70
0
  3
Dash Dot ____ _ ____ _
 72
65
 73
4
 40
2.0
 49
1.25
 49
-0.25
 49
0.25
 49
-0.25
  0
LTYPE
  5
411
  2
DASHED
 70
0
  3
Dashed __ __ __ __ __
 72
65
 73
2
 40
0.75
 49
0.5
 49
-0.25
  0
LTYPE
  5
43B
  2
DOTTED
 70
0
  3
Dotted .  .  .  .
 72
65
 73
2
 40
0.2
 49
0.0
 49
-0.2
  0
ENDTAB
  0
TABLE
  2
STYLE
  70
4
  0
STYLE
  2
KICAD
  70
0
  40
0
  41
1
  42
1
  50
0
  71
0
  3
isocp.shx
  0
STYLE
  2
KICADB
  70
0
  40
0
  41
1
  42
1
  50
0
  71
0
  3
isocp.shx
  0
STYLE
  2
KICADI
  70
0
  40
0
  41
1
  42
1
  50
15
  71
0
  3
isocp.shx
  0
STYLE
  2
KICADBI
  70
0
  40
0
  41
1
  42
1
  50
15
  71
0
  3
isocp.shx
  0
ENDTAB
  0
TABLE
  2
LAYER
  70
1
  0
LAYER
  2
BLACK
  70
0
  62
7
  6
CONTINUOUS
  0
ENDTAB
  0
ENDSEC
  0
SECTION
  2
ENTITIES
0
LINE
8
BLACK
6
CONTINUOUS
10
137.5499999999999829
20
-91.2000000000000028
11
133.5499999999999829
21
-91.2000000000000028
0
LINE
8
BLACK
6
CONTINUOUS
10
159.4150349999999889
20
-96.692032999999995
11
159.5032609999999806
21
-90.7928959999999989
0
ARC
8
BLACK
10
120.0557009999999991
20
-87.6692159999999916
40
4.1275018831507984
50
-264.99974108
51
-87.71679783
0
LINE
8
BLACK
6
CONTINUOUS
10
146.5499999999999829
20
-98.1999999999999886
11
142.5499999999999829
21
-98.1999999999999886
0
LINE
8
BLACK
6
CONTINUOUS
10
165.8635929999999803
20
-79.4504719999999907
11
158.6076730000000055
21
-80.0852819999999923
0
LINE
8
BLACK
6
CONTINUOUS
10
152.5499999999999829
20
-79.7000000000000028
11
148.5499999999999829
21
-79.7000000000000028
0
CIRCLE
8
BLACK
10
166.2233279999999809
20
-83.5622649999999965
40
2.15265
0
LINE
8
BLACK
6
CONTINUOUS
10
161.032213999999982
20
-89.1951959999999957
11
166.1075979999999959
21
-87.6881429999999966
0
LINE
8
BLACK
6
CONTINUOUS
10
137.0499999999999829
20
-80.7000000000000028
11
133.0499999999999829
21
-80.7000000000000028
0
LINE
8
BLACK
6
CONTINUOUS
10
140.5499999999999829
20
-75.2000000000000028
11
144.5499999999999829
21
-75.2000000000000028
0
ARC
8
BLACK
10
143.118758999999983
20
-85.5651829999999904
40
16.4120966224962075
50
59.75814183
51
75.95820264
0
CIRCLE
8
BLACK
10
143.1775570000000073
20
-85.4620529999999974
40
2.2999999999999998
0
LINE
8
BLACK
6
CONTINUOUS
10
144.5499999999999829
20
-79.7000000000000028
11
140.5499999999999829
21
-79.7000000000000028
0
LINE
8
BLACK
6
CONTINUOUS
10
133.0499999999999829
20
-80.7000000000000028
11
133.0499999999999829
21
-76.2000000000000028
0
ARC
8
BLACK
10
143.6525069999999857
20
-91.5733919999999983
40
15.3339663825974331
50
-62.26812759
51
-24.16812844
0
LINE
8
BLACK
6
CONTINUOUS
10
146.5499999999999829
20
-93.7000000000000028
11
146.5499999999999829
21
-98.1999999999999886
0
LINE
8
BLACK
6
CONTINUOUS
10
120.220136999999994
20
-92.8125890000000027
11
120.1901539999999926
21
-106.1810589999999905
0
LINE
8
BLACK
6
CONTINUOUS
10
126.9518199999999979
20
-82.9226159999999908
11
119.6959469999999897
21
-83.557423
0
ARC
8
BLACK
10
158.1366009999999847
20
-96.6729969999999952
40
1.2785747659598456
50
-87.15782622
51
-0.85303238
0
LINE
8
BLACK
6
CONTINUOUS
10
149.5499999999999829
20
-85.7000000000000028
11
153.5499999999999829
21
-85.7000000000000028
0
LINE
8
BLACK
6
CONTINUOUS
10
120.2201359999999966
20
-91.7934399999999897
11
120.220136999999994
21
-92.8125890000000027
0
LINE
8
BLACK
6
CONTINUOUS
10
140.5499999999999829
20
-79.7000000000000028
11
140.5499999999999829
21
-75.2000000000000028
0
LINE
8
BLACK
6
CONTINUOUS
10
120.1901539999999926
20
-106.1810589999999905
11
138.957398999999981
21
-106.1810589999999905
0
CIRCLE
8
BLACK
10
151.4173600000000022
20
-82.2316139999999933
40
1.5
0
LINE
8
BLACK
6
CONTINUOUS
10
152.5499999999999829
20
-75.2000000000000028
11
152.5499999999999829
21
-79.7000000000000028
0
CIRCLE
8
BLACK
10
120.0556839999999994
20
-87.6692180000000008
40
2.15265
0
CIRCLE
8
BLACK
10
143.5700170000000071
20
-90.7744610000000023
40
1.0436269999999999
0
LINE
8
BLACK
6
CONTINUOUS
10
148.5499999999999829
20
-75.2000000000000028
11
152.5499999999999829
21
-75.2000000000000028
0
LINE
8
BLACK
6
CONTINUOUS
10
133.0499999999999829
20
-76.2000000000000028
11
137.0499999999999829
21
-76.2000000000000028
0
LINE
8
BLACK
6
CONTINUOUS
10
133.5499999999999829
20
-86.7000000000000028
11
137.5499999999999829
21
-86.7000000000000028
0
CIRCLE
8
BLACK
10
157.1491189999999847
20
-90.2626179999999891
40
0.8999999999999999
0
LINE
8
BLACK
6
CONTINUOUS
10
153.5499999999999829
20
-90.2000000000000028
11
149.5499999999999829
21
-90.2000000000000028
0
CIRCLE
8
BLACK
10
144.6374150000000043
20
-102.1483139999999992
40
1.5
0
LINE
8
BLACK
6
CONTINUOUS
10
142.5499999999999829
20
-98.1999999999999886
11
142.5499999999999829
21
-93.7000000000000028
0
LINE
8
BLACK
6
CONTINUOUS
10
144.5499999999999829
20
-75.2000000000000028
11
144.5499999999999829
21
-79.7000000000000028
0
CIRCLE
8
BLACK
10
130.251862999999986
20
-92.6158229999999918
40
0.8999999999999999
0
LINE
8
BLACK
6
CONTINUOUS
10
142.5499999999999829
20
-93.7000000000000028
11
146.5499999999999829
21
-93.7000000000000028
0
LINE
8
BLACK
6
CONTINUOUS
10
137.0499999999999829
20
-76.2000000000000028
11
137.0499999999999829
21
-80.7000000000000028
0
CIRCLE
8
BLACK
10
134.5028460000000052
20
-83.7214799999999997
40
1.5
0
ARC
8
BLACK
10
166.2233289999999784
20
-83.5622649999999965
40
4.1275001762500425
50
-91.60673935
51
95.00002129
0
LINE
8
BLACK
6
CONTINUOUS
10
137.5499999999999829
20
-86.7000000000000028
11
137.5499999999999829
21
-91.2000000000000028
0
ARC
8
BLACK
10
143.1432719999999961
20
-85.5782669999999968
40
16.4109891119179814
50
19.55513706
51
59.85511063
0
LINE
8
BLACK
6
CONTINUOUS
10
153.5499999999999829
20
-85.7000000000000028
11
153.5499999999999829
21
-90.2000000000000028
0
LINE
8
BLACK
6
CONTINUOUS
10
138.957398999999981
20
-106.1810589999999905
11
150.7879309999999862
21
-105.1460209999999904
0
LINE
8
BLACK
6
CONTINUOUS
10
133.5499999999999829
20
-91.2000000000000028
11
133.5499999999999829
21
-86.7000000000000028
0
ARC
8
BLACK
10
161.4716980000000035
20
-91.1462009999999907
40
1.9998925427802292
50
102.69458035
51
169.82458528
0
LINE
8
BLACK
6
CONTINUOUS
10
151.3846810000000005
20
-71.3867290000000025
11
151.3847319999999854
21
-71.3866569999999996
0
LINE
8
BLACK
6
CONTINUOUS
10
149.5499999999999829
20
-90.2000000000000028
11
149.5499999999999829
21
-85.7000000000000028
0
LINE
8
BLACK
6
CONTINUOUS
10
148.5499999999999829
20
-79.7000000000000028
11
148.5499999999999829
21
-75.2000000000000028
0
LINE
8
BLACK
6
CONTINUOUS
10
157.6424209999999846
20
-97.851356999999993
11
158.1999999999999886
21
-97.9499999999999886
0
ARC
8
BLACK
10
143.1210209999999847
20
-85.5308179999999965
40
16.3782112095848191
50
75.93671124
51
170.83673007
0
LINE
8
BLACK
6
CONTINUOUS
10
127.2999999999999972
20
-102.7049999999999983
11
128.
21
-103.4050000000000011
0
LINE
8
BLACK
6
CONTINUOUS
10
128.
20
-102.7049999999999983
11
127.2999999999999972
21
-103.4050000000000011
0
LINE
8
BLACK
6
CONTINUOUS
10
127.2999999999999972
20
-104.6049999999999898
11
128.
21
-105.3049999999999926
0
LINE
8
BLACK
6
CONTINUOUS
10
128.
20
-104.6049999999999898
11
127.2999999999999972
21
-105.3049999999999926
0
LINE
8
BLACK
6
CONTINUOUS
10
129.5
20
-102.6999999999999886
11
130.1999999999999886
21
-103.3999999999999915
0
LINE
8
BLACK
6
CONTINUOUS
10
130.1999999999999886
20
-102.6999999999999886
11
129.5
21
-103.3999999999999915
0
LINE
8
BLACK
6
CONTINUOUS
10
129.5
20
-104.5999999999999943
11
130.1999999999999886
21
-105.2999999999999972
0
LINE
8
BLACK
6
CONTINUOUS
10
130.1999999999999886
20
-104.5999999999999943
11
129.5
21
-105.2999999999999972
0
CIRCLE
8
BLACK
10
129.2218639999999823
20
-86.3115820000000014
40
0.4
0
CIRCLE
8
BLACK
10
130.3304849999999817
20
-98.9831789999999927
40
0.4
0
CIRCLE
8
BLACK
10
132.0200189999999907
20
-88.8072030000000012
40
0.4
0
CIRCLE
8
BLACK
10
132.6527700000000038
20
-96.0395769999999942
40
0.4
0
CIRCLE
8
BLACK
10
154.7930299999999875
20
-86.8148229999999899
40
0.4
0
CIRCLE
8
BLACK
10
155.4257810000000006
20
-94.047196999999997
40
0.4
0
CIRCLE
8
BLACK
10
157.0854290000000049
20
-83.8738359999999972
40
0.4
0
CIRCLE
8
BLACK
10
158.2239359999999806
20
-96.5428179999999969
40
0.4
0
LINE
8
BLACK
6
CONTINUOUS
10
133.7599999999999909
20
-74.7999999999999972
11
133.7599999999999909
21
-75.7000000000000028
0
LINE
8
BLACK
6
CONTINUOUS
10
133.3100000000000023
20
-75.25
11
134.210000000000008
21
-75.25
0
LINE
8
BLACK
6
CONTINUOUS
10
134.1999999999999886
20
-91.8999999999999915
11
134.1999999999999886
21
-92.7999999999999972
0
LINE
8
BLACK
6
CONTINUOUS
10
133.75
20
-92.3499999999999943
11
134.6500000000000057
21
-92.3499999999999943
0
LINE
8
BLACK
6
CONTINUOUS
10
136.2999999999999829
20
-74.7999999999999972
11
136.2999999999999829
21
-75.7000000000000028
0
LINE
8
BLACK
6
CONTINUOUS
10
135.8499999999999943
20
-75.25
11
136.75
21
-75.25
0
LINE
8
BLACK
6
CONTINUOUS
10
136.7399999999999807
20
-91.8999999999999915
11
136.7399999999999807
21
-92.7999999999999972
0
LINE
8
BLACK
6
CONTINUOUS
10
136.289999999999992
20
-92.3499999999999943
11
137.1899999999999977
21
-92.3499999999999943
0
LINE
8
BLACK
6
CONTINUOUS
10
141.2599999999999909
20
-73.7999999999999972
11
141.2599999999999909
21
-74.7000000000000028
0
LINE
8
BLACK
6
CONTINUOUS
10
140.8100000000000023
20
-74.25
11
141.7099999999999795
21
-74.25
0
LINE
8
BLACK
6
CONTINUOUS
10
141.3249999999999886
20
-94.0999999999999943
11
141.3249999999999886
21
-95.
0
LINE
8
BLACK
6
CONTINUOUS
10
140.875
20
-94.5499999999999972
11
141.7750000000000057
21
-94.5499999999999972
0
LINE
8
BLACK
6
CONTINUOUS
10
141.3249999999999886
20
-96.6400000000000006
11
141.3249999999999886
21
-97.539999999999992
0
LINE
8
BLACK
6
CONTINUOUS
10
140.875
20
-97.0899999999999892
11
141.7750000000000057
21
-97.0899999999999892
0
LINE
8
BLACK
6
CONTINUOUS
10
143.7999999999999829
20
-73.7999999999999972
11
143.7999999999999829
21
-74.7000000000000028
0
LINE
8
BLACK
6
CONTINUOUS
10
143.3499999999999943
20
-74.25
11
144.25
21
-74.25
0
LINE
8
BLACK
6
CONTINUOUS
10
149.3599999999999852
20
-73.4639999999999986
11
149.3599999999999852
21
-74.3639999999999901
0
LINE
8
BLACK
6
CONTINUOUS
10
148.9099999999999966
20
-73.9140000000000015
11
149.8100000000000023
21
-73.9140000000000015
0
LINE
8
BLACK
6
CONTINUOUS
10
150.25
20
-90.8999999999999915
11
150.25
21
-91.7999999999999972
0
LINE
8
BLACK
6
CONTINUOUS
10
149.7999999999999829
20
-91.3499999999999943
11
150.6999999999999886
21
-91.3499999999999943
0
LINE
8
BLACK
6
CONTINUOUS
10
151.9000000000000057
20
-73.4639999999999986
11
151.9000000000000057
21
-74.3639999999999901
0
LINE
8
BLACK
6
CONTINUOUS
10
151.4499999999999886
20
-73.9140000000000015
11
152.3499999999999943
21
-73.9140000000000015
0
LINE
8
BLACK
6
CONTINUOUS
10
152.789999999999992
20
-90.8999999999999915
11
152.789999999999992
21
-91.7999999999999972
0
LINE
8
BLACK
6
CONTINUOUS
10
152.3400000000000034
20
-91.3499999999999943
11
153.2399999999999807
21
-91.3499999999999943
0
LINE
8
BLACK
6
CONTINUOUS
10
122.4035569999999922
20
-94.4235570000000024
11
122.4035569999999922
21
-93.7164429999999982
0
LINE
8
BLACK
6
CONTINUOUS
10
122.4035569999999922
20
-93.7164429999999982
11
121.6964429999999879
21
-93.7164429999999982
0
LINE
8
BLACK
6
CONTINUOUS
10
121.6964429999999879
20
-93.7164429999999982
11
121.6964429999999879
21
-94.4235570000000024
0
LINE
8
BLACK
6
CONTINUOUS
10
121.6964429999999879
20
-94.4235570000000024
11
122.4035569999999922
21
-94.4235570000000024
0
LINE
8
BLACK
6
CONTINUOUS
10
122.4035569999999922
20
-96.9635569999999944
11
122.4035569999999922
21
-96.2564429999999902
0
LINE
8
BLACK
6
CONTINUOUS
10
122.4035569999999922
20
-96.2564429999999902
11
121.6964429999999879
21
-96.2564429999999902
0
LINE
8
BLACK
6
CONTINUOUS
10
121.6964429999999879
20
-96.2564429999999902
11
121.6964429999999879
21
-96.9635569999999944
0
LINE
8
BLACK
6
CONTINUOUS
10
121.6964429999999879
20
-96.9635569999999944
11
122.4035569999999922
21
-96.9635569999999944
0
LINE
8
BLACK
6
CONTINUOUS
10
122.4035569999999922
20
-99.5035570000000007
11
122.4035569999999922
21
-98.7964429999999965
0
LINE
8
BLACK
6
CONTINUOUS
10
122.4035569999999922
20
-98.7964429999999965
11
121.6964429999999879
21
-98.7964429999999965
0
LINE
8
BLACK
6
CONTINUOUS
10
121.6964429999999879
20
-98.7964429999999965
11
121.6964429999999879
21
-99.5035570000000007
0
LINE
8
BLACK
6
CONTINUOUS
10
121.6964429999999879
20
-99.5035570000000007
11
122.4035569999999922
21
-99.5035570000000007
0
LINE
8
BLACK
6
CONTINUOUS
10
122.4035569999999922
20
-102.0435569999999927
11
122.4035569999999922
21
-101.3364429999999885
0
LINE
8
BLACK
6
CONTINUOUS
10
122.4035569999999922
20
-101.3364429999999885
11
121.6964429999999879
21
-101.3364429999999885
0
LINE
8
BLACK
6
CONTINUOUS
10
121.6964429999999879
20
-101.3364429999999885
11
121.6964429999999879
21
-102.0435569999999927
0
LINE
8
BLACK
6
CONTINUOUS
10
121.6964429999999879
20
-102.0435569999999927
11
122.4035569999999922
21
-102.0435569999999927
0
LINE
8
BLACK
6
CONTINUOUS
10
122.4035569999999922
20
-104.583556999999999
11
122.4035569999999922
21
-103.8764429999999948
0
LINE
8
BLACK
6
CONTINUOUS
10
122.4035569999999922
20
-103.8764429999999948
11
121.6964429999999879
21
-103.8764429999999948
0
LINE
8
BLACK
6
CONTINUOUS
10
121.6964429999999879
20
-103.8764429999999948
11
121.6964429999999879
21
-104.583556999999999
0
LINE
8
BLACK
6
CONTINUOUS
10
121.6964429999999879
20
-104.583556999999999
11
122.4035569999999922
21
-104.583556999999999
0
LINE
8
BLACK
6
CONTINUOUS
10
124.9435569999999984
20
-94.4235570000000024
11
124.9435569999999984
21
-93.7164429999999982
0
LINE
8
BLACK
6
CONTINUOUS
10
124.9435569999999984
20
-93.7164429999999982
11
124.2364429999999942
21
-93.7164429999999982
0
LINE
8
BLACK
6
CONTINUOUS
10
124.2364429999999942
20
-93.7164429999999982
11
124.2364429999999942
21
-94.4235570000000024
0
LINE
8
BLACK
6
CONTINUOUS
10
124.2364429999999942
20
-94.4235570000000024
11
124.9435569999999984
21
-94.4235570000000024
0
LINE
8
BLACK
6
CONTINUOUS
10
124.9435569999999984
20
-96.9635569999999944
11
124.9435569999999984
21
-96.2564429999999902
0
LINE
8
BLACK
6
CONTINUOUS
10
124.9435569999999984
20
-96.2564429999999902
11
124.2364429999999942
21
-96.2564429999999902
0
LINE
8
BLACK
6
CONTINUOUS
10
124.2364429999999942
20
-96.2564429999999902
11
124.2364429999999942
21
-96.9635569999999944
0
LINE
8
BLACK
6
CONTINUOUS
10
124.2364429999999942
20
-96.9635569999999944
11
124.9435569999999984
21
-96.9635569999999944
0
LINE
8
BLACK
6
CONTINUOUS
10
124.9435569999999984
20
-99.5035570000000007
11
124.9435569999999984
21
-98.7964429999999965
0
LINE
8
BLACK
6
CONTINUOUS
10
124.9435569999999984
20
-98.7964429999999965
11
124.2364429999999942
21
-98.7964429999999965
0
LINE
8
BLACK
6
CONTINUOUS
10
124.2364429999999942
20
-98.7964429999999965
11
124.2364429999999942
21
-99.5035570000000007
0
LINE
8
BLACK
6
CONTINUOUS
10
124.2364429999999942
20
-99.5035570000000007
11
124.9435569999999984
21
-99.5035570000000007
0
LINE
8
BLACK
6
CONTINUOUS
10
124.9435569999999984
20
-102.0435569999999927
11
124.9435569999999984
21
-101.3364429999999885
0
LINE
8
BLACK
6
CONTINUOUS
10
124.9435569999999984
20
-101.3364429999999885
11
124.2364429999999942
21
-101.3364429999999885
0
LINE
8
BLACK
6
CONTINUOUS
10
124.2364429999999942
20
-101.3364429999999885
11
124.2364429999999942
21
-102.0435569999999927
0
LINE
8
BLACK
6
CONTINUOUS
10
124.2364429999999942
20
-102.0435569999999927
11
124.9435569999999984
21
-102.0435569999999927
0
LINE
8
BLACK
6
CONTINUOUS
10
124.9435569999999984
20
-104.583556999999999
11
124.9435569999999984
21
-103.8764429999999948
0
LINE
8
BLACK
6
CONTINUOUS
10
124.9435569999999984
20
-103.8764429999999948
11
124.2364429999999942
21
-103.8764429999999948
0
LINE
8
BLACK
6
CONTINUOUS
10
124.2364429999999942
20
-103.8764429999999948
11
124.2364429999999942
21
-104.583556999999999
0
LINE
8
BLACK
6
CONTINUOUS
10
124.2364429999999942
20
-104.583556999999999
11
124.9435569999999984
21
-104.583556999999999
0
LINE
8
BLACK
6
CONTINUOUS
10
118.5309489999999926
20
-109.300896999999992
11
118.5309489999999926
21
-107.300896999999992
0
LINE
8
BLACK
6
CONTINUOUS
10
118.5309489999999926
20
-107.300896999999992
11
119.0071389999999951
21
-107.300896999999992
0
LINE
8
BLACK
6
CONTINUOUS
10
119.0071389999999951
20
-107.300896999999992
11
119.2928539999999913
21
-107.396135000000001
0
LINE
8
BLACK
6
CONTINUOUS
10
119.2928539999999913
20
-107.396135000000001
11
119.4833299999999952
21
-107.5866109999999907
0
LINE
8
BLACK
6
CONTINUOUS
10
119.4833299999999952
20
-107.5866109999999907
11
119.57856799999999
21
-107.7770869999999945
0
LINE
8
BLACK
6
CONTINUOUS
10
119.57856799999999
20
-107.7770869999999945
11
119.673805999999999
21
-108.1580389999999881
0
LINE
8
BLACK
6
CONTINUOUS
10
119.673805999999999
20
-108.1580389999999881
11
119.673805999999999
21
-108.4437539999999984
0
LINE
8
BLACK
6
CONTINUOUS
10
119.673805999999999
20
-108.4437539999999984
11
119.57856799999999
21
-108.8247059999999919
0
LINE
8
BLACK
6
CONTINUOUS
10
119.57856799999999
20
-108.8247059999999919
11
119.4833299999999952
21
-109.0151819999999958
0
LINE
8
BLACK
6
CONTINUOUS
10
119.4833299999999952
20
-109.0151819999999958
11
119.2928539999999913
21
-109.2056589999999971
0
LINE
8
BLACK
6
CONTINUOUS
10
119.2928539999999913
20
-109.2056589999999971
11
119.0071389999999951
21
-109.300896999999992
0
LINE
8
BLACK
6
CONTINUOUS
10
119.0071389999999951
20
-109.300896999999992
11
118.5309489999999926
21
-109.300896999999992
0
LINE
8
BLACK
6
CONTINUOUS
10
120.5309489999999926
20
-109.300896999999992
11
120.5309489999999926
21
-107.9675629999999984
0
LINE
8
BLACK
6
CONTINUOUS
10
120.5309489999999926
20
-108.3485159999999894
11
120.6261870000000016
21
-108.1580389999999881
0
LINE
8
BLACK
6
CONTINUOUS
10
120.6261870000000016
20
-108.1580389999999881
11
120.7214249999999964
21
-108.0628009999999932
0
LINE
8
BLACK
6
CONTINUOUS
10
120.7214249999999964
20
-108.0628009999999932
11
120.9119010000000003
21
-107.9675629999999984
0
LINE
8
BLACK
6
CONTINUOUS
10
120.9119010000000003
20
-107.9675629999999984
11
121.1023779999999874
21
-107.9675629999999984
0
LINE
8
BLACK
6
CONTINUOUS
10
121.7690439999999938
20
-109.300896999999992
11
121.7690439999999938
21
-107.9675629999999984
0
LINE
8
BLACK
6
CONTINUOUS
10
121.7690439999999938
20
-107.300896999999992
11
121.673805999999999
21
-107.396135000000001
0
LINE
8
BLACK
6
CONTINUOUS
10
121.673805999999999
20
-107.396135000000001
11
121.7690439999999938
21
-107.4913729999999958
0
LINE
8
BLACK
6
CONTINUOUS
10
121.7690439999999938
20
-107.4913729999999958
11
121.8642819999999887
21
-107.396135000000001
0
LINE
8
BLACK
6
CONTINUOUS
10
121.8642819999999887
20
-107.396135000000001
11
121.7690439999999938
21
-107.300896999999992
0
LINE
8
BLACK
6
CONTINUOUS
10
121.7690439999999938
20
-107.300896999999992
11
121.7690439999999938
21
-107.4913729999999958
0
LINE
8
BLACK
6
CONTINUOUS
10
123.0071389999999951
20
-109.300896999999992
11
122.8166629999999913
21
-109.2056589999999971
0
LINE
8
BLACK
6
CONTINUOUS
10
122.8166629999999913
20
-109.2056589999999971
11
122.7214249999999964
21
-109.0151819999999958
0
LINE
8
BLACK
6
CONTINUOUS
10
122.7214249999999964
20
-109.0151819999999958
11
122.7214249999999964
21
-107.300896999999992
0
LINE
8
BLACK
6
CONTINUOUS
10
124.0547579999999925
20
-109.300896999999992
11
123.8642819999999887
21
-109.2056589999999971
0
LINE
8
BLACK
6
CONTINUOUS
10
123.8642819999999887
20
-109.2056589999999971
11
123.7690439999999938
21
-109.0151819999999958
0
LINE
8
BLACK
6
CONTINUOUS
10
123.7690439999999938
20
-109.0151819999999958
11
123.7690439999999938
21
-107.300896999999992
0
LINE
8
BLACK
6
CONTINUOUS
10
126.3404729999999887
20
-109.300896999999992
11
126.3404729999999887
21
-107.300896999999992
0
LINE
8
BLACK
6
CONTINUOUS
10
126.3404729999999887
20
-107.300896999999992
11
127.0071399999999926
21
-108.7294679999999971
0
LINE
8
BLACK
6
CONTINUOUS
10
127.0071399999999926
20
-108.7294679999999971
11
127.673805999999999
21
-107.300896999999992
0
LINE
8
BLACK
6
CONTINUOUS
10
127.673805999999999
20
-107.300896999999992
11
127.673805999999999
21
-109.300896999999992
0
LINE
8
BLACK
6
CONTINUOUS
10
129.4833299999999952
20
-109.300896999999992
11
129.4833299999999952
21
-108.2532779999999946
0
LINE
8
BLACK
6
CONTINUOUS
10
129.4833299999999952
20
-108.2532779999999946
11
129.3880920000000003
21
-108.0628009999999932
0
LINE
8
BLACK
6
CONTINUOUS
10
129.3880920000000003
20
-108.0628009999999932
11
129.1976159999999823
21
-107.9675629999999984
0
LINE
8
BLACK
6
CONTINUOUS
10
129.1976159999999823
20
-107.9675629999999984
11
128.8166630000000055
21
-107.9675629999999984
0
LINE
8
BLACK
6
CONTINUOUS
10
128.8166630000000055
20
-107.9675629999999984
11
128.6261869999999874
21
-108.0628009999999932
0
LINE
8
BLACK
6
CONTINUOUS
10
129.4833299999999952
20
-109.2056589999999971
11
129.2928540000000055
21
-109.300896999999992
0
LINE
8
BLACK
6
CONTINUOUS
10
129.2928540000000055
20
-109.300896999999992
11
128.8166630000000055
21
-109.300896999999992
0
LINE
8
BLACK
6
CONTINUOUS
10
128.8166630000000055
20
-109.300896999999992
11
128.6261869999999874
21
-109.2056589999999971
0
LINE
8
BLACK
6
CONTINUOUS
10
128.6261869999999874
20
-109.2056589999999971
11
128.5309489999999926
21
-109.0151819999999958
0
LINE
8
BLACK
6
CONTINUOUS
10
128.5309489999999926
20
-109.0151819999999958
11
128.5309489999999926
21
-108.8247059999999919
0
LINE
8
BLACK
6
CONTINUOUS
10
128.5309489999999926
20
-108.8247059999999919
11
128.6261869999999874
21
-108.6342299999999881
0
LINE
8
BLACK
6
CONTINUOUS
10
128.6261869999999874
20
-108.6342299999999881
11
128.8166630000000055
21
-108.5389919999999933
0
LINE
8
BLACK
6
CONTINUOUS
10
128.8166630000000055
20
-108.5389919999999933
11
129.2928540000000055
21
-108.5389919999999933
0
LINE
8
BLACK
6
CONTINUOUS
10
129.2928540000000055
20
-108.5389919999999933
11
129.4833299999999952
21
-108.4437539999999984
0
LINE
8
BLACK
6
CONTINUOUS
10
130.4357109999999977
20
-107.9675629999999984
11
130.4357109999999977
21
-109.9675629999999984
0
LINE
8
BLACK
6
CONTINUOUS
10
130.4357109999999977
20
-108.0628009999999932
11
130.6261869999999874
21
-107.9675629999999984
0
LINE
8
BLACK
6
CONTINUOUS
10
130.6261869999999874
20
-107.9675629999999984
11
131.0071399999999926
21
-107.9675629999999984
0
LINE
8
BLACK
6
CONTINUOUS
10
131.0071399999999926
20
-107.9675629999999984
11
131.1976159999999823
21
-108.0628009999999932
0
LINE
8
BLACK
6
CONTINUOUS
10
131.1976159999999823
20
-108.0628009999999932
11
131.2928540000000055
21
-108.1580389999999881
0
LINE
8
BLACK
6
CONTINUOUS
10
131.2928540000000055
20
-108.1580389999999881
11
131.3880920000000003
21
-108.3485159999999894
0
LINE
8
BLACK
6
CONTINUOUS
10
131.3880920000000003
20
-108.3485159999999894
11
131.3880920000000003
21
-108.919944000000001
0
LINE
8
BLACK
6
CONTINUOUS
10
131.3880920000000003
20
-108.919944000000001
11
131.2928540000000055
21
-109.1104199999999906
0
LINE
8
BLACK
6
CONTINUOUS
10
131.2928540000000055
20
-109.1104199999999906
11
131.1976159999999823
21
-109.2056589999999971
0
LINE
8
BLACK
6
CONTINUOUS
10
131.1976159999999823
20
-109.2056589999999971
11
131.0071399999999926
21
-109.300896999999992
0
LINE
8
BLACK
6
CONTINUOUS
10
131.0071399999999926
20
-109.300896999999992
11
130.6261869999999874
21
-109.300896999999992
0
LINE
8
BLACK
6
CONTINUOUS
10
130.6261869999999874
20
-109.300896999999992
11
130.4357109999999977
21
-109.2056589999999971
0
LINE
8
BLACK
6
CONTINUOUS
10
132.2452350000000081
20
-109.1104199999999906
11
132.3404730000000029
21
-109.2056589999999971
0
LINE
8
BLACK
6
CONTINUOUS
10
132.3404730000000029
20
-109.2056589999999971
11
132.2452350000000081
21
-109.300896999999992
0
LINE
8
BLACK
6
CONTINUOUS
10
132.2452350000000081
20
-109.300896999999992
11
132.1499969999999848
21
-109.2056589999999971
0
LINE
8
BLACK
6
CONTINUOUS
10
132.1499969999999848
20
-109.2056589999999971
11
132.2452350000000081
21
-109.1104199999999906
0
LINE
8
BLACK
6
CONTINUOUS
10
132.2452350000000081
20
-109.1104199999999906
11
132.2452350000000081
21
-109.300896999999992
0
LINE
8
BLACK
6
CONTINUOUS
10
132.2452350000000081
20
-108.0628009999999932
11
132.3404730000000029
21
-108.1580389999999881
0
LINE
8
BLACK
6
CONTINUOUS
10
132.3404730000000029
20
-108.1580389999999881
11
132.2452350000000081
21
-108.2532779999999946
0
LINE
8
BLACK
6
CONTINUOUS
10
132.2452350000000081
20
-108.2532779999999946
11
132.1499969999999848
21
-108.1580389999999881
0
LINE
8
BLACK
6
CONTINUOUS
10
132.1499969999999848
20
-108.1580389999999881
11
132.2452350000000081
21
-108.0628009999999932
0
LINE
8
BLACK
6
CONTINUOUS
10
132.2452350000000081
20
-108.0628009999999932
11
132.2452350000000081
21
-108.2532779999999946
0
LINE
8
BLACK
6
CONTINUOUS
10
115.2231809999999967
20
-112.2360589999999974
11
115.9231809999999996
21
-112.9360590000000002
0
LINE
8
BLACK
6
CONTINUOUS
10
115.9231809999999996
20
-112.2360589999999974
11
115.2231809999999967
21
-112.9360590000000002
0
LINE
8
BLACK
6
CONTINUOUS
10
118.9119010000000003
20
-111.5008969999999948
11
119.1023780000000016
21
-111.5008969999999948
0
LINE
8
BLACK
6
CONTINUOUS
10
119.1023780000000016
20
-111.5008969999999948
11
119.2928539999999913
21
-111.5961349999999896
0
LINE
8
BLACK
6
CONTINUOUS
10
119.2928539999999913
20
-111.5961349999999896
11
119.3880920000000003
21
-111.6913729999999987
0
LINE
8
BLACK
6
CONTINUOUS
10
119.3880920000000003
20
-111.6913729999999987
11
119.4833299999999952
21
-111.8818489999999883
0
LINE
8
BLACK
6
CONTINUOUS
10
119.4833299999999952
20
-111.8818489999999883
11
119.57856799999999
21
-112.2628009999999961
0
LINE
8
BLACK
6
CONTINUOUS
10
119.57856799999999
20
-112.2628009999999961
11
119.57856799999999
21
-112.7389919999999961
0
LINE
8
BLACK
6
CONTINUOUS
10
119.57856799999999
20
-112.7389919999999961
11
119.4833299999999952
21
-113.1199439999999896
0
LINE
8
BLACK
6
CONTINUOUS
10
119.4833299999999952
20
-113.1199439999999896
11
119.3880920000000003
21
-113.3104199999999935
0
LINE
8
BLACK
6
CONTINUOUS
10
119.3880920000000003
20
-113.3104199999999935
11
119.2928539999999913
21
-113.405659
0
LINE
8
BLACK
6
CONTINUOUS
10
119.2928539999999913
20
-113.405659
11
119.1023780000000016
21
-113.5008969999999948
0
LINE
8
BLACK
6
CONTINUOUS
10
119.1023780000000016
20
-113.5008969999999948
11
118.9119010000000003
21
-113.5008969999999948
0
LINE
8
BLACK
6
CONTINUOUS
10
118.9119010000000003
20
-113.5008969999999948
11
118.7214249999999964
21
-113.405659
0
LINE
8
BLACK
6
CONTINUOUS
10
118.7214249999999964
20
-113.405659
11
118.6261870000000016
21
-113.3104199999999935
0
LINE
8
BLACK
6
CONTINUOUS
10
118.6261870000000016
20
-113.3104199999999935
11
118.5309489999999926
21
-113.1199439999999896
0
LINE
8
BLACK
6
CONTINUOUS
10
118.5309489999999926
20
-113.1199439999999896
11
118.4357109999999977
21
-112.7389919999999961
0
LINE
8
BLACK
6
CONTINUOUS
10
118.4357109999999977
20
-112.7389919999999961
11
118.4357109999999977
21
-112.2628009999999961
0
LINE
8
BLACK
6
CONTINUOUS
10
118.4357109999999977
20
-112.2628009999999961
11
118.5309489999999926
21
-111.8818489999999883
0
LINE
8
BLACK
6
CONTINUOUS
10
118.5309489999999926
20
-111.8818489999999883
11
118.6261870000000016
21
-111.6913729999999987
0
LINE
8
BLACK
6
CONTINUOUS
10
118.6261870000000016
20
-111.6913729999999987
11
118.7214249999999964
21
-111.5961349999999896
0
LINE
8
BLACK
6
CONTINUOUS
10
118.7214249999999964
20
-111.5961349999999896
11
118.9119010000000003
21
-111.5008969999999948
0
LINE
8
BLACK
6
CONTINUOUS
10
120.4357109999999977
20
-113.3104199999999935
11
120.5309489999999926
21
-113.405659
0
LINE
8
BLACK
6
CONTINUOUS
10
120.5309489999999926
20
-113.405659
11
120.4357109999999977
21
-113.5008969999999948
0
LINE
8
BLACK
6
CONTINUOUS
10
120.4357109999999977
20
-113.5008969999999948
11
120.3404729999999887
21
-113.405659
0
LINE
8
BLACK
6
CONTINUOUS
10
120.3404729999999887
20
-113.405659
11
120.4357109999999977
21
-113.3104199999999935
0
LINE
8
BLACK
6
CONTINUOUS
10
120.4357109999999977
20
-113.3104199999999935
11
120.4357109999999977
21
-113.5008969999999948
0
LINE
8
BLACK
6
CONTINUOUS
10
121.1976159999999965
20
-111.5008969999999948
11
122.5309489999999926
21
-111.5008969999999948
0
LINE
8
BLACK
6
CONTINUOUS
10
122.5309489999999926
20
-111.5008969999999948
11
121.673805999999999
21
-113.5008969999999948
0
LINE
8
BLACK
6
CONTINUOUS
10
123.673805999999999
20
-111.5008969999999948
11
123.8642830000000004
21
-111.5008969999999948
0
LINE
8
BLACK
6
CONTINUOUS
10
123.8642830000000004
20
-111.5008969999999948
11
124.05475899999999
21
-111.5961349999999896
0
LINE
8
BLACK
6
CONTINUOUS
10
124.05475899999999
20
-111.5961349999999896
11
124.149996999999999
21
-111.6913729999999987
0
LINE
8
BLACK
6
CONTINUOUS
10
124.149996999999999
20
-111.6913729999999987
11
124.2452349999999939
21
-111.8818489999999883
0
LINE
8
BLACK
6
CONTINUOUS
10
124.2452349999999939
20
-111.8818489999999883
11
124.3404729999999887
21
-112.2628009999999961
0
LINE
8
BLACK
6
CONTINUOUS
10
124.3404729999999887
20
-112.2628009999999961
11
124.3404729999999887
21
-112.7389919999999961
0
LINE
8
BLACK
6
CONTINUOUS
10
124.3404729999999887
20
-112.7389919999999961
11
124.2452349999999939
21
-113.1199439999999896
0
LINE
8
BLACK
6
CONTINUOUS
10
124.2452349999999939
20
-113.1199439999999896
11
124.149996999999999
21
-113.3104199999999935
0
LINE
8
BLACK
6
CONTINUOUS
10
124.149996999999999
20
-113.3104199999999935
11
124.05475899999999
21
-113.405659
0
LINE
8
BLACK
6
CONTINUOUS
10
124.05475899999999
20
-113.405659
11
123.8642830000000004
21
-113.5008969999999948
0
LINE
8
BLACK
6
CONTINUOUS
10
123.8642830000000004
20
-113.5008969999999948
11
123.673805999999999
21
-113.5008969999999948
0
LINE
8
BLACK
6
CONTINUOUS
10
123.673805999999999
20
-113.5008969999999948
11
123.4833299999999952
21
-113.405659
0
LINE
8
BLACK
6
CONTINUOUS
10
123.4833299999999952
20
-113.405659
11
123.3880920000000003
21
-113.3104199999999935
0
LINE
8
BLACK
6
CONTINUOUS
10
123.3880920000000003
20
-113.3104199999999935
11
123.2928539999999913
21
-113.1199439999999896
0
LINE
8
BLACK
6
CONTINUOUS
10
123.2928539999999913
20
-113.1199439999999896
11
123.1976159999999965
21
-112.7389919999999961
0
LINE
8
BLACK
6
CONTINUOUS
10
123.1976159999999965
20
-112.7389919999999961
11
123.1976159999999965
21
-112.2628009999999961
0
LINE
8
BLACK
6
CONTINUOUS
10
123.1976159999999965
20
-112.2628009999999961
11
123.2928539999999913
21
-111.8818489999999883
0
LINE
8
BLACK
6
CONTINUOUS
10
123.2928539999999913
20
-111.8818489999999883
11
123.3880920000000003
21
-111.6913729999999987
0
LINE
8
BLACK
6
CONTINUOUS
10
123.3880920000000003
20
-111.6913729999999987
11
123.4833299999999952
21
-111.5961349999999896
0
LINE
8
BLACK
6
CONTINUOUS
10
123.4833299999999952
20
-111.5961349999999896
11
123.673805999999999
21
-111.5008969999999948
0
LINE
8
BLACK
6
CONTINUOUS
10
125.57856799999999
20
-111.5008969999999948
11
125.7690449999999913
21
-111.5008969999999948
0
LINE
8
BLACK
6
CONTINUOUS
10
125.7690449999999913
20
-111.5008969999999948
11
125.9595209999999952
21
-111.5961349999999896
0
LINE
8
BLACK
6
CONTINUOUS
10
125.9595209999999952
20
-111.5961349999999896
11
126.05475899999999
21
-111.6913729999999987
0
LINE
8
BLACK
6
CONTINUOUS
10
126.05475899999999
20
-111.6913729999999987
11
126.149996999999999
21
-111.8818489999999883
0
LINE
8
BLACK
6
CONTINUOUS
10
126.149996999999999
20
-111.8818489999999883
11
126.2452349999999939
21
-112.2628009999999961
0
LINE
8
BLACK
6
CONTINUOUS
10
126.2452349999999939
20
-112.2628009999999961
11
126.2452349999999939
21
-112.7389919999999961
0
LINE
8
BLACK
6
CONTINUOUS
10
126.2452349999999939
20
-112.7389919999999961
11
126.149996999999999
21
-113.1199439999999896
0
LINE
8
BLACK
6
CONTINUOUS
10
126.149996999999999
20
-113.1199439999999896
11
126.05475899999999
21
-113.3104199999999935
0
LINE
8
BLACK
6
CONTINUOUS
10
126.05475899999999
20
-113.3104199999999935
11
125.9595209999999952
21
-113.405659
0
LINE
8
BLACK
6
CONTINUOUS
10
125.9595209999999952
20
-113.405659
11
125.7690449999999913
21
-113.5008969999999948
0
LINE
8
BLACK
6
CONTINUOUS
10
125.7690449999999913
20
-113.5008969999999948
11
125.57856799999999
21
-113.5008969999999948
0
LINE
8
BLACK
6
CONTINUOUS
10
125.57856799999999
20
-113.5008969999999948
11
125.3880920000000003
21
-113.405659
0
LINE
8
BLACK
6
CONTINUOUS
10
125.3880920000000003
20
-113.405659
11
125.2928539999999913
21
-113.3104199999999935
0
LINE
8
BLACK
6
CONTINUOUS
10
125.2928539999999913
20
-113.3104199999999935
11
125.1976159999999965
21
-113.1199439999999896
0
LINE
8
BLACK
6
CONTINUOUS
10
125.1976159999999965
20
-113.1199439999999896
11
125.1023779999999874
21
-112.7389919999999961
0
LINE
8
BLACK
6
CONTINUOUS
10
125.1023779999999874
20
-112.7389919999999961
11
125.1023779999999874
21
-112.2628009999999961
0
LINE
8
BLACK
6
CONTINUOUS
10
125.1023779999999874
20
-112.2628009999999961
11
125.1976159999999965
21
-111.8818489999999883
0
LINE
8
BLACK
6
CONTINUOUS
10
125.1976159999999965
20
-111.8818489999999883
11
125.2928539999999913
21
-111.6913729999999987
0
LINE
8
BLACK
6
CONTINUOUS
10
125.2928539999999913
20
-111.6913729999999987
11
125.3880920000000003
21
-111.5961349999999896
0
LINE
8
BLACK
6
CONTINUOUS
10
125.3880920000000003
20
-111.5961349999999896
11
125.57856799999999
21
-111.5008969999999948
0
LINE
8
BLACK
6
CONTINUOUS
10
127.1023779999999874
20
-113.5008969999999948
11
127.1023779999999874
21
-112.1675630000000012
0
LINE
8
BLACK
6
CONTINUOUS
10
127.1023779999999874
20
-112.3580389999999909
11
127.1976159999999965
21
-112.2628009999999961
0
LINE
8
BLACK
6
CONTINUOUS
10
127.1976159999999965
20
-112.2628009999999961
11
127.3880920000000003
21
-112.1675630000000012
0
LINE
8
BLACK
6
CONTINUOUS
10
127.3880920000000003
20
-112.1675630000000012
11
127.6738069999999965
21
-112.1675630000000012
0
LINE
8
BLACK
6
CONTINUOUS
10
127.6738069999999965
20
-112.1675630000000012
11
127.8642830000000004
21
-112.2628009999999961
0
LINE
8
BLACK
6
CONTINUOUS
10
127.8642830000000004
20
-112.2628009999999961
11
127.9595209999999952
21
-112.4532779999999974
0
LINE
8
BLACK
6
CONTINUOUS
10
127.9595209999999952
20
-112.4532779999999974
11
127.9595209999999952
21
-113.5008969999999948
0
LINE
8
BLACK
6
CONTINUOUS
10
127.9595209999999952
20
-112.4532779999999974
11
128.05475899999999
21
-112.2628009999999961
0
LINE
8
BLACK
6
CONTINUOUS
10
128.05475899999999
20
-112.2628009999999961
11
128.2452350000000081
21
-112.1675630000000012
0
LINE
8
BLACK
6
CONTINUOUS
10
128.2452350000000081
20
-112.1675630000000012
11
128.5309489999999926
21
-112.1675630000000012
0
LINE
8
BLACK
6
CONTINUOUS
10
128.5309489999999926
20
-112.1675630000000012
11
128.7214260000000081
21
-112.2628009999999961
0
LINE
8
BLACK
6
CONTINUOUS
10
128.7214260000000081
20
-112.2628009999999961
11
128.8166640000000029
21
-112.4532779999999974
0
LINE
8
BLACK
6
CONTINUOUS
10
128.8166640000000029
20
-112.4532779999999974
11
128.8166640000000029
21
-113.5008969999999948
0
LINE
8
BLACK
6
CONTINUOUS
10
129.7690450000000055
20
-113.5008969999999948
11
129.7690450000000055
21
-112.1675630000000012
0
LINE
8
BLACK
6
CONTINUOUS
10
129.7690450000000055
20
-112.3580389999999909
11
129.8642830000000004
21
-112.2628009999999961
0
LINE
8
BLACK
6
CONTINUOUS
10
129.8642830000000004
20
-112.2628009999999961
11
130.05475899999999
21
-112.1675630000000012
0
LINE
8
BLACK
6
CONTINUOUS
10
130.05475899999999
20
-112.1675630000000012
11
130.3404740000000004
21
-112.1675630000000012
0
LINE
8
BLACK
6
CONTINUOUS
10
130.3404740000000004
20
-112.1675630000000012
11
130.53094999999999
21
-112.2628009999999961
0
LINE
8
BLACK
6
CONTINUOUS
10
130.53094999999999
20
-112.2628009999999961
11
130.6261879999999849
21
-112.4532779999999974
0
LINE
8
BLACK
6
CONTINUOUS
10
130.6261879999999849
20
-112.4532779999999974
11
130.6261879999999849
21
-113.5008969999999948
0
LINE
8
BLACK
6
CONTINUOUS
10
130.6261879999999849
20
-112.4532779999999974
11
130.7214260000000081
21
-112.2628009999999961
0
LINE
8
BLACK
6
CONTINUOUS
10
130.7214260000000081
20
-112.2628009999999961
11
130.9119019999999978
21
-112.1675630000000012
0
LINE
8
BLACK
6
CONTINUOUS
10
130.9119019999999978
20
-112.1675630000000012
11
131.1976159999999823
21
-112.1675630000000012
0
LINE
8
BLACK
6
CONTINUOUS
10
131.1976159999999823
20
-112.1675630000000012
11
131.3880929999999978
21
-112.2628009999999961
0
LINE
8
BLACK
6
CONTINUOUS
10
131.3880929999999978
20
-112.2628009999999961
11
131.4833309999999926
21
-112.4532779999999974
0
LINE
8
BLACK
6
CONTINUOUS
10
131.4833309999999926
20
-112.4532779999999974
11
131.4833309999999926
21
-113.5008969999999948
0
LINE
8
BLACK
6
CONTINUOUS
10
135.3880929999999978
20
-111.405659
11
133.6738079999999798
21
-113.9770869999999974
0
LINE
8
BLACK
6
CONTINUOUS
10
137.9595219999999927
20
-111.5008969999999948
11
138.1499989999999798
21
-111.5008969999999948
0
LINE
8
BLACK
6
CONTINUOUS
10
138.1499989999999798
20
-111.5008969999999948
11
138.3404749999999979
21
-111.5961349999999896
0
LINE
8
BLACK
6
CONTINUOUS
10
138.3404749999999979
20
-111.5961349999999896
11
138.4357129999999927
21
-111.6913729999999987
0
LINE
8
BLACK
6
CONTINUOUS
10
138.4357129999999927
20
-111.6913729999999987
11
138.5309509999999875
21
-111.8818489999999883
0
LINE
8
BLACK
6
CONTINUOUS
10
138.5309509999999875
20
-111.8818489999999883
11
138.6261889999999823
21
-112.2628009999999961
0
LINE
8
BLACK
6
CONTINUOUS
10
138.6261889999999823
20
-112.2628009999999961
11
138.6261889999999823
21
-112.7389919999999961
0
LINE
8
BLACK
6
CONTINUOUS
10
138.6261889999999823
20
-112.7389919999999961
11
138.5309509999999875
21
-113.1199439999999896
0
LINE
8
BLACK
6
CONTINUOUS
10
138.5309509999999875
20
-113.1199439999999896
11
138.4357129999999927
21
-113.3104199999999935
0
LINE
8
BLACK
6
CONTINUOUS
10
138.4357129999999927
20
-113.3104199999999935
11
138.3404749999999979
21
-113.405659
0
LINE
8
BLACK
6
CONTINUOUS
10
138.3404749999999979
20
-113.405659
11
138.1499989999999798
21
-113.5008969999999948
0
LINE
8
BLACK
6
CONTINUOUS
10
138.1499989999999798
20
-113.5008969999999948
11
137.9595219999999927
21
-113.5008969999999948
0
LINE
8
BLACK
6
CONTINUOUS
10
137.9595219999999927
20
-113.5008969999999948
11
137.769046000000003
21
-113.405659
0
LINE
8
BLACK
6
CONTINUOUS
10
137.769046000000003
20
-113.405659
11
137.6738079999999798
21
-113.3104199999999935
0
LINE
8
BLACK
6
CONTINUOUS
10
137.6738079999999798
20
-113.3104199999999935
11
137.5785699999999849
21
-113.1199439999999896
0
LINE
8
BLACK
6
CONTINUOUS
10
137.5785699999999849
20
-113.1199439999999896
11
137.4833319999999901
21
-112.7389919999999961
0
LINE
8
BLACK
6
CONTINUOUS
10
137.4833319999999901
20
-112.7389919999999961
11
137.4833319999999901
21
-112.2628009999999961
0
LINE
8
BLACK
6
CONTINUOUS
10
137.4833319999999901
20
-112.2628009999999961
11
137.5785699999999849
21
-111.8818489999999883
0
LINE
8
BLACK
6
CONTINUOUS
10
137.5785699999999849
20
-111.8818489999999883
11
137.6738079999999798
21
-111.6913729999999987
0
LINE
8
BLACK
6
CONTINUOUS
10
137.6738079999999798
20
-111.6913729999999987
11
137.769046000000003
21
-111.5961349999999896
0
LINE
8
BLACK
6
CONTINUOUS
10
137.769046000000003
20
-111.5961349999999896
11
137.9595219999999927
21
-111.5008969999999948
0
LINE
8
BLACK
6
CONTINUOUS
10
139.4833319999999901
20
-113.3104199999999935
11
139.5785699999999849
21
-113.405659
0
LINE
8
BLACK
6
CONTINUOUS
10
139.5785699999999849
20
-113.405659
11
139.4833319999999901
21
-113.5008969999999948
0
LINE
8
BLACK
6
CONTINUOUS
10
139.4833319999999901
20
-113.5008969999999948
11
139.3880939999999953
21
-113.405659
0
LINE
8
BLACK
6
CONTINUOUS
10
139.3880939999999953
20
-113.405659
11
139.4833319999999901
21
-113.3104199999999935
0
LINE
8
BLACK
6
CONTINUOUS
10
139.4833319999999901
20
-113.3104199999999935
11
139.4833319999999901
21
-113.5008969999999948
0
LINE
8
BLACK
6
CONTINUOUS
10
140.8166650000000004
20
-111.5008969999999948
11
141.0071419999999875
21
-111.5008969999999948
0
LINE
8
BLACK
6
CONTINUOUS
10
141.0071419999999875
20
-111.5008969999999948
11
141.1976180000000056
21
-111.5961349999999896
0
LINE
8
BLACK
6
CONTINUOUS
10
141.1976180000000056
20
-111.5961349999999896
11
141.2928560000000004
21
-111.6913729999999987
0
LINE
8
BLACK
6
CONTINUOUS
10
141.2928560000000004
20
-111.6913729999999987
11
141.3880939999999953
21
-111.8818489999999883
0
LINE
8
BLACK
6
CONTINUOUS
10
141.3880939999999953
20
-111.8818489999999883
11
141.4833319999999901
21
-112.2628009999999961
0
LINE
8
BLACK
6
CONTINUOUS
10
141.4833319999999901
20
-112.2628009999999961
11
141.4833319999999901
21
-112.7389919999999961
0
LINE
8
BLACK
6
CONTINUOUS
10
141.4833319999999901
20
-112.7389919999999961
11
141.3880939999999953
21
-113.1199439999999896
0
LINE
8
BLACK
6
CONTINUOUS
10
141.3880939999999953
20
-113.1199439999999896
11
141.2928560000000004
21
-113.3104199999999935
0
LINE
8
BLACK
6
CONTINUOUS
10
141.2928560000000004
20
-113.3104199999999935
11
141.1976180000000056
21
-113.405659
0
LINE
8
BLACK
6
CONTINUOUS
10
141.1976180000000056
20
-113.405659
11
141.0071419999999875
21
-113.5008969999999948
0
LINE
8
BLACK
6
CONTINUOUS
10
141.0071419999999875
20
-113.5008969999999948
11
140.8166650000000004
21
-113.5008969999999948
0
LINE
8
BLACK
6
CONTINUOUS
10
140.8166650000000004
20
-113.5008969999999948
11
140.6261889999999823
21
-113.405659
0
LINE
8
BLACK
6
CONTINUOUS
10
140.6261889999999823
20
-113.405659
11
140.5309509999999875
21
-113.3104199999999935
0
LINE
8
BLACK
6
CONTINUOUS
10
140.5309509999999875
20
-113.3104199999999935
11
140.4357129999999927
21
-113.1199439999999896
0
LINE
8
BLACK
6
CONTINUOUS
10
140.4357129999999927
20
-113.1199439999999896
11
140.3404749999999979
21
-112.7389919999999961
0
LINE
8
BLACK
6
CONTINUOUS
10
140.3404749999999979
20
-112.7389919999999961
11
140.3404749999999979
21
-112.2628009999999961
0
LINE
8
BLACK
6
CONTINUOUS
10
140.3404749999999979
20
-112.2628009999999961
11
140.4357129999999927
21
-111.8818489999999883
0
LINE
8
BLACK
6
CONTINUOUS
10
140.4357129999999927
20
-111.8818489999999883
11
140.5309509999999875
21
-111.6913729999999987
0
LINE
8
BLACK
6
CONTINUOUS
10
140.5309509999999875
20
-111.6913729999999987
11
140.6261889999999823
21
-111.5961349999999896
0
LINE
8
BLACK
6
CONTINUOUS
10
140.6261889999999823
20
-111.5961349999999896
11
140.8166650000000004
21
-111.5008969999999948
0
LINE
8
BLACK
6
CONTINUOUS
10
142.245237000000003
20
-111.6913729999999987
11
142.3404749999999979
21
-111.5961349999999896
0
LINE
8
BLACK
6
CONTINUOUS
10
142.3404749999999979
20
-111.5961349999999896
11
142.5309509999999875
21
-111.5008969999999948
0
LINE
8
BLACK
6
CONTINUOUS
10
142.5309509999999875
20
-111.5008969999999948
11
143.0071419999999875
21
-111.5008969999999948
0
LINE
8
BLACK
6
CONTINUOUS
10
143.0071419999999875
20
-111.5008969999999948
11
143.1976180000000056
21
-111.5961349999999896
0
LINE
8
BLACK
6
CONTINUOUS
10
143.1976180000000056
20
-111.5961349999999896
11
143.2928560000000004
21
-111.6913729999999987
0
LINE
8
BLACK
6
CONTINUOUS
10
143.2928560000000004
20
-111.6913729999999987
11
143.3880939999999953
21
-111.8818489999999883
0
LINE
8
BLACK
6
CONTINUOUS
10
143.3880939999999953
20
-111.8818489999999883
11
143.3880939999999953
21
-112.0723249999999922
0
LINE
8
BLACK
6
CONTINUOUS
10
143.3880939999999953
20
-112.0723249999999922
11
143.2928560000000004
21
-112.3580389999999909
0
LINE
8
BLACK
6
CONTINUOUS
10
143.2928560000000004
20
-112.3580389999999909
11
142.1499989999999798
21
-113.5008969999999948
0
LINE
8
BLACK
6
CONTINUOUS
10
142.1499989999999798
20
-113.5008969999999948
11
143.3880939999999953
21
-113.5008969999999948
0
LINE
8
BLACK
6
CONTINUOUS
10
144.054760999999985
20
-111.5008969999999948
11
145.3880939999999953
21
-111.5008969999999948
0
LINE
8
BLACK
6
CONTINUOUS
10
145.3880939999999953
20
-111.5008969999999948
11
144.5309509999999875
21
-113.5008969999999948
0
LINE
8
BLACK
6
CONTINUOUS
10
147.0071419999999875
20
-111.5008969999999948
11
146.6261889999999823
21
-111.5008969999999948
0
LINE
8
BLACK
6
CONTINUOUS
10
146.6261889999999823
20
-111.5008969999999948
11
146.4357129999999927
21
-111.5961349999999896
0
LINE
8
BLACK
6
CONTINUOUS
10
146.4357129999999927
20
-111.5961349999999896
11
146.3404749999999979
21
-111.6913729999999987
0
LINE
8
BLACK
6
CONTINUOUS
10
146.3404749999999979
20
-111.6913729999999987
11
146.1499989999999798
21
-111.9770869999999974
0
LINE
8
BLACK
6
CONTINUOUS
10
146.1499989999999798
20
-111.9770869999999974
11
146.054760999999985
21
-112.3580389999999909
0
LINE
8
BLACK
6
CONTINUOUS
10
146.054760999999985
20
-112.3580389999999909
11
146.054760999999985
21
-113.1199439999999896
0
LINE
8
BLACK
6
CONTINUOUS
10
146.054760999999985
20
-113.1199439999999896
11
146.1499989999999798
21
-113.3104199999999935
0
LINE
8
BLACK
6
CONTINUOUS
10
146.1499989999999798
20
-113.3104199999999935
11
146.245237000000003
21
-113.405659
0
LINE
8
BLACK
6
CONTINUOUS
10
146.245237000000003
20
-113.405659
11
146.4357129999999927
21
-113.5008969999999948
0
LINE
8
BLACK
6
CONTINUOUS
10
146.4357129999999927
20
-113.5008969999999948
11
146.8166659999999979
21
-113.5008969999999948
0
LINE
8
BLACK
6
CONTINUOUS
10
146.8166659999999979
20
-113.5008969999999948
11
147.0071419999999875
21
-113.405659
0
LINE
8
BLACK
6
CONTINUOUS
10
147.0071419999999875
20
-113.405659
11
147.1023799999999824
21
-113.3104199999999935
0
LINE
8
BLACK
6
CONTINUOUS
10
147.1023799999999824
20
-113.3104199999999935
11
147.1976180000000056
21
-113.1199439999999896
0
LINE
8
BLACK
6
CONTINUOUS
10
147.1976180000000056
20
-113.1199439999999896
11
147.1976180000000056
21
-112.6437540000000013
0
LINE
8
BLACK
6
CONTINUOUS
10
147.1976180000000056
20
-112.6437540000000013
11
147.1023799999999824
21
-112.4532779999999974
0
LINE
8
BLACK
6
CONTINUOUS
10
147.1023799999999824
20
-112.4532779999999974
11
147.0071419999999875
21
-112.3580389999999909
0
LINE
8
BLACK
6
CONTINUOUS
10
147.0071419999999875
20
-112.3580389999999909
11
146.8166659999999979
21
-112.2628009999999961
0
LINE
8
BLACK
6
CONTINUOUS
10
146.8166659999999979
20
-112.2628009999999961
11
146.4357129999999927
21
-112.2628009999999961
0
LINE
8
BLACK
6
CONTINUOUS
10
146.4357129999999927
20
-112.2628009999999961
11
146.245237000000003
21
-112.3580389999999909
0
LINE
8
BLACK
6
CONTINUOUS
10
146.245237000000003
20
-112.3580389999999909
11
146.1499989999999798
21
-112.4532779999999974
0
LINE
8
BLACK
6
CONTINUOUS
10
146.1499989999999798
20
-112.4532779999999974
11
146.054760999999985
21
-112.6437540000000013
0
LINE
8
BLACK
6
CONTINUOUS
10
147.9595229999999901
20
-111.5008969999999948
11
147.9595229999999901
21
-111.8818489999999883
0
LINE
8
BLACK
6
CONTINUOUS
10
148.7214280000000031
20
-111.5008969999999948
11
148.7214280000000031
21
-111.8818489999999883
0
LINE
8
BLACK
6
CONTINUOUS
10
151.6738100000000031
20
-114.2628009999999961
11
151.5785709999999824
21
-114.1675630000000012
0
LINE
8
BLACK
6
CONTINUOUS
10
151.5785709999999824
20
-114.1675630000000012
11
151.3880949999999928
21
-113.8818489999999883
0
LINE
8
BLACK
6
CONTINUOUS
10
151.3880949999999928
20
-113.8818489999999883
11
151.2928569999999979
21
-113.6913729999999987
0
LINE
8
BLACK
6
CONTINUOUS
10
151.2928569999999979
20
-113.6913729999999987
11
151.1976190000000031
21
-113.405659
0
LINE
8
BLACK
6
CONTINUOUS
10
151.1976190000000031
20
-113.405659
11
151.1023809999999798
21
-112.929468
0
LINE
8
BLACK
6
CONTINUOUS
10
151.1023809999999798
20
-112.929468
11
151.1023809999999798
21
-112.5485159999999922
0
LINE
8
BLACK
6
CONTINUOUS
10
151.1023809999999798
20
-112.5485159999999922
11
151.1976190000000031
21
-112.0723249999999922
0
LINE
8
BLACK
6
CONTINUOUS
10
151.1976190000000031
20
-112.0723249999999922
11
151.2928569999999979
21
-111.7866109999999935
0
LINE
8
BLACK
6
CONTINUOUS
10
151.2928569999999979
20
-111.7866109999999935
11
151.3880949999999928
21
-111.5961349999999896
0
LINE
8
BLACK
6
CONTINUOUS
10
151.3880949999999928
20
-111.5961349999999896
11
151.5785709999999824
21
-111.3104199999999935
0
LINE
8
BLACK
6
CONTINUOUS
10
151.5785709999999824
20
-111.3104199999999935
11
151.6738100000000031
21
-111.2151819999999987
0
LINE
8
BLACK
6
CONTINUOUS
10
153.2928569999999979
20
-112.1675630000000012
11
153.2928569999999979
21
-113.5008969999999948
0
LINE
8
BLACK
6
CONTINUOUS
10
152.8166659999999979
20
-111.405659
11
152.3404759999999953
21
-112.8342299999999909
0
LINE
8
BLACK
6
CONTINUOUS
10
152.3404759999999953
20
-112.8342299999999909
11
153.5785709999999824
21
-112.8342299999999909
0
LINE
8
BLACK
6
CONTINUOUS
10
155.8642859999999928
20
-113.5008969999999948
11
155.8642859999999928
21
-111.5008969999999948
0
LINE
8
BLACK
6
CONTINUOUS
10
156.7214290000000005
20
-113.5008969999999948
11
156.7214290000000005
21
-112.4532779999999974
0
LINE
8
BLACK
6
CONTINUOUS
10
156.7214290000000005
20
-112.4532779999999974
11
156.6261910000000057
21
-112.2628009999999961
0
LINE
8
BLACK
6
CONTINUOUS
10
156.6261910000000057
20
-112.2628009999999961
11
156.4357149999999876
21
-112.1675630000000012
0
LINE
8
BLACK
6
CONTINUOUS
10
156.4357149999999876
20
-112.1675630000000012
11
156.1500000000000057
21
-112.1675630000000012
0
LINE
8
BLACK
6
CONTINUOUS
10
156.1500000000000057
20
-112.1675630000000012
11
155.9595239999999876
21
-112.2628009999999961
0
LINE
8
BLACK
6
CONTINUOUS
10
155.9595239999999876
20
-112.2628009999999961
11
155.8642859999999928
21
-112.3580389999999909
0
LINE
8
BLACK
6
CONTINUOUS
10
157.9595239999999876
20
-113.5008969999999948
11
157.769047999999998
21
-113.405659
0
LINE
8
BLACK
6
CONTINUOUS
10
157.769047999999998
20
-113.405659
11
157.6738100000000031
21
-113.3104199999999935
0
LINE
8
BLACK
6
CONTINUOUS
10
157.6738100000000031
20
-113.3104199999999935
11
157.5785719999999799
21
-113.1199439999999896
0
LINE
8
BLACK
6
CONTINUOUS
10
157.5785719999999799
20
-113.1199439999999896
11
157.5785719999999799
21
-112.5485159999999922
0
LINE
8
BLACK
6
CONTINUOUS
10
157.5785719999999799
20
-112.5485159999999922
11
157.6738100000000031
21
-112.3580389999999909
0
LINE
8
BLACK
6
CONTINUOUS
10
157.6738100000000031
20
-112.3580389999999909
11
157.769047999999998
21
-112.2628009999999961
0
LINE
8
BLACK
6
CONTINUOUS
10
157.769047999999998
20
-112.2628009999999961
11
157.9595239999999876
21
-112.1675630000000012
0
LINE
8
BLACK
6
CONTINUOUS
10
157.9595239999999876
20
-112.1675630000000012
11
158.245238999999998
21
-112.1675630000000012
0
LINE
8
BLACK
6
CONTINUOUS
10
158.245238999999998
20
-112.1675630000000012
11
158.4357149999999876
21
-112.2628009999999961
0
LINE
8
BLACK
6
CONTINUOUS
10
158.4357149999999876
20
-112.2628009999999961
11
158.5309529999999825
21
-112.3580389999999909
0
LINE
8
BLACK
6
CONTINUOUS
10
158.5309529999999825
20
-112.3580389999999909
11
158.6261910000000057
21
-112.5485159999999922
0
LINE
8
BLACK
6
CONTINUOUS
10
158.6261910000000057
20
-112.5485159999999922
11
158.6261910000000057
21
-113.1199439999999896
0
LINE
8
BLACK
6
CONTINUOUS
10
158.6261910000000057
20
-113.1199439999999896
11
158.5309529999999825
21
-113.3104199999999935
0
LINE
8
BLACK
6
CONTINUOUS
10
158.5309529999999825
20
-113.3104199999999935
11
158.4357149999999876
21
-113.405659
0
LINE
8
BLACK
6
CONTINUOUS
10
158.4357149999999876
20
-113.405659
11
158.245238999999998
21
-113.5008969999999948
0
LINE
8
BLACK
6
CONTINUOUS
10
158.245238999999998
20
-113.5008969999999948
11
157.9595239999999876
21
-113.5008969999999948
0
LINE
8
BLACK
6
CONTINUOUS
10
159.769047999999998
20
-113.5008969999999948
11
159.5785719999999799
21
-113.405659
0
LINE
8
BLACK
6
CONTINUOUS
10
159.5785719999999799
20
-113.405659
11
159.4833339999999851
21
-113.2151819999999987
0
LINE
8
BLACK
6
CONTINUOUS
10
159.4833339999999851
20
-113.2151819999999987
11
159.4833339999999851
21
-111.5008969999999948
0
LINE
8
BLACK
6
CONTINUOUS
10
161.2928579999999954
20
-113.405659
11
161.1023820000000057
21
-113.5008969999999948
0
LINE
8
BLACK
6
CONTINUOUS
10
161.1023820000000057
20
-113.5008969999999948
11
160.7214290000000005
21
-113.5008969999999948
0
LINE
8
BLACK
6
CONTINUOUS
10
160.7214290000000005
20
-113.5008969999999948
11
160.5309529999999825
21
-113.405659
0
LINE
8
BLACK
6
CONTINUOUS
10
160.5309529999999825
20
-113.405659
11
160.4357149999999876
21
-113.2151819999999987
0
LINE
8
BLACK
6
CONTINUOUS
10
160.4357149999999876
20
-113.2151819999999987
11
160.4357149999999876
21
-112.4532779999999974
0
LINE
8
BLACK
6
CONTINUOUS
10
160.4357149999999876
20
-112.4532779999999974
11
160.5309529999999825
21
-112.2628009999999961
0
LINE
8
BLACK
6
CONTINUOUS
10
160.5309529999999825
20
-112.2628009999999961
11
160.7214290000000005
21
-112.1675630000000012
0
LINE
8
BLACK
6
CONTINUOUS
10
160.7214290000000005
20
-112.1675630000000012
11
161.1023820000000057
21
-112.1675630000000012
0
LINE
8
BLACK
6
CONTINUOUS
10
161.1023820000000057
20
-112.1675630000000012
11
161.2928579999999954
21
-112.2628009999999961
0
LINE
8
BLACK
6
CONTINUOUS
10
161.2928579999999954
20
-112.2628009999999961
11
161.3880959999999902
21
-112.4532779999999974
0
LINE
8
BLACK
6
CONTINUOUS
10
161.3880959999999902
20
-112.4532779999999974
11
161.3880959999999902
21
-112.6437540000000013
0
LINE
8
BLACK
6
CONTINUOUS
10
161.3880959999999902
20
-112.6437540000000013
11
160.4357149999999876
21
-112.8342299999999909
0
LINE
8
BLACK
6
CONTINUOUS
10
162.1500010000000032
20
-113.405659
11
162.3404769999999928
21
-113.5008969999999948
0
LINE
8
BLACK
6
CONTINUOUS
10
162.3404769999999928
20
-113.5008969999999948
11
162.7214290000000005
21
-113.5008969999999948
0
LINE
8
BLACK
6
CONTINUOUS
10
162.7214290000000005
20
-113.5008969999999948
11
162.9119059999999877
21
-113.405659
0
LINE
8
BLACK
6
CONTINUOUS
10
162.9119059999999877
20
-113.405659
11
163.0071439999999825
21
-113.2151819999999987
0
LINE
8
BLACK
6
CONTINUOUS
10
163.0071439999999825
20
-113.2151819999999987
11
163.0071439999999825
21
-113.1199439999999896
0
LINE
8
BLACK
6
CONTINUOUS
10
163.0071439999999825
20
-113.1199439999999896
11
162.9119059999999877
21
-112.929468
0
LINE
8
BLACK
6
CONTINUOUS
10
162.9119059999999877
20
-112.929468
11
162.7214290000000005
21
-112.8342299999999909
0
LINE
8
BLACK
6
CONTINUOUS
10
162.7214290000000005
20
-112.8342299999999909
11
162.4357149999999876
21
-112.8342299999999909
0
LINE
8
BLACK
6
CONTINUOUS
10
162.4357149999999876
20
-112.8342299999999909
11
162.245238999999998
21
-112.7389919999999961
0
LINE
8
BLACK
6
CONTINUOUS
10
162.245238999999998
20
-112.7389919999999961
11
162.1500010000000032
21
-112.5485159999999922
0
LINE
8
BLACK
6
CONTINUOUS
10
162.1500010000000032
20
-112.5485159999999922
11
162.1500010000000032
21
-112.4532779999999974
0
LINE
8
BLACK
6
CONTINUOUS
10
162.1500010000000032
20
-112.4532779999999974
11
162.245238999999998
21
-112.2628009999999961
0
LINE
8
BLACK
6
CONTINUOUS
10
162.245238999999998
20
-112.2628009999999961
11
162.4357149999999876
21
-112.1675630000000012
0
LINE
8
BLACK
6
CONTINUOUS
10
162.4357149999999876
20
-112.1675630000000012
11
162.7214290000000005
21
-112.1675630000000012
0
LINE
8
BLACK
6
CONTINUOUS
10
162.7214290000000005
20
-112.1675630000000012
11
162.9119059999999877
21
-112.2628009999999961
0
LINE
8
BLACK
6
CONTINUOUS
10
163.6738110000000006
20
-114.2628009999999961
11
163.7690489999999954
21
-114.1675630000000012
0
LINE
8
BLACK
6
CONTINUOUS
10
163.7690489999999954
20
-114.1675630000000012
11
163.9595249999999851
21
-113.8818489999999883
0
LINE
8
BLACK
6
CONTINUOUS
10
163.9595249999999851
20
-113.8818489999999883
11
164.0547629999999799
21
-113.6913729999999987
0
LINE
8
BLACK
6
CONTINUOUS
10
164.0547629999999799
20
-113.6913729999999987
11
164.1500010000000032
21
-113.405659
0
LINE
8
BLACK
6
CONTINUOUS
10
164.1500010000000032
20
-113.405659
11
164.245238999999998
21
-112.929468
0
LINE
8
BLACK
6
CONTINUOUS
10
164.245238999999998
20
-112.929468
11
164.245238999999998
21
-112.5485159999999922
0
LINE
8
BLACK
6
CONTINUOUS
10
164.245238999999998
20
-112.5485159999999922
11
164.1500010000000032
21
-112.0723249999999922
0
LINE
8
BLACK
6
CONTINUOUS
10
164.1500010000000032
20
-112.0723249999999922
11
164.0547629999999799
21
-111.7866109999999935
0
LINE
8
BLACK
6
CONTINUOUS
10
164.0547629999999799
20
-111.7866109999999935
11
163.9595249999999851
21
-111.5961349999999896
0
LINE
8
BLACK
6
CONTINUOUS
10
163.9595249999999851
20
-111.5961349999999896
11
163.7690489999999954
21
-111.3104199999999935
0
LINE
8
BLACK
6
CONTINUOUS
10
163.7690489999999954
20
-111.3104199999999935
11
163.6738110000000006
21
-111.2151819999999987
0
CIRCLE
8
BLACK
10
115.5231809999999939
20
-115.2260589999999922
40
0.4
0
LINE
8
BLACK
6
CONTINUOUS
10
118.9119010000000003
20
-114.1408969999999954
11
119.1023780000000016
21
-114.1408969999999954
0
LINE
8
BLACK
6
CONTINUOUS
10
119.1023780000000016
20
-114.1408969999999954
11
119.2928539999999913
21
-114.2361349999999902
0
LINE
8
BLACK
6
CONTINUOUS
10
119.2928539999999913
20
-114.2361349999999902
11
119.3880920000000003
21
-114.3313729999999993
0
LINE
8
BLACK
6
CONTINUOUS
10
119.3880920000000003
20
-114.3313729999999993
11
119.4833299999999952
21
-114.5218489999999889
0
LINE
8
BLACK
6
CONTINUOUS
10
119.4833299999999952
20
-114.5218489999999889
11
119.57856799999999
21
-114.9028009999999966
0
LINE
8
BLACK
6
CONTINUOUS
10
119.57856799999999
20
-114.9028009999999966
11
119.57856799999999
21
-115.3789919999999967
0
LINE
8
BLACK
6
CONTINUOUS
10
119.57856799999999
20
-115.3789919999999967
11
119.4833299999999952
21
-115.7599439999999902
0
LINE
8
BLACK
6
CONTINUOUS
10
119.4833299999999952
20
-115.7599439999999902
11
119.3880920000000003
21
-115.950419999999994
0
LINE
8
BLACK
6
CONTINUOUS
10
119.3880920000000003
20
-115.950419999999994
11
119.2928539999999913
21
-116.0456590000000006
0
LINE
8
BLACK
6
CONTINUOUS
10
119.2928539999999913
20
-116.0456590000000006
11
119.1023780000000016
21
-116.1408969999999954
0
LINE
8
BLACK
6
CONTINUOUS
10
119.1023780000000016
20
-116.1408969999999954
11
118.9119010000000003
21
-116.1408969999999954
0
LINE
8
BLACK
6
CONTINUOUS
10
118.9119010000000003
20
-116.1408969999999954
11
118.7214249999999964
21
-116.0456590000000006
0
LINE
8
BLACK
6
CONTINUOUS
10
118.7214249999999964
20
-116.0456590000000006
11
118.6261870000000016
21
-115.950419999999994
0
LINE
8
BLACK
6
CONTINUOUS
10
118.6261870000000016
20
-115.950419999999994
11
118.5309489999999926
21
-115.7599439999999902
0
LINE
8
BLACK
6
CONTINUOUS
10
118.5309489999999926
20
-115.7599439999999902
11
118.4357109999999977
21
-115.3789919999999967
0
LINE
8
BLACK
6
CONTINUOUS
10
118.4357109999999977
20
-115.3789919999999967
11
118.4357109999999977
21
-114.9028009999999966
0
LINE
8
BLACK
6
CONTINUOUS
10
118.4357109999999977
20
-114.9028009999999966
11
118.5309489999999926
21
-114.5218489999999889
0
LINE
8
BLACK
6
CONTINUOUS
10
118.5309489999999926
20
-114.5218489999999889
11
118.6261870000000016
21
-114.3313729999999993
0
LINE
8
BLACK
6
CONTINUOUS
10
118.6261870000000016
20
-114.3313729999999993
11
118.7214249999999964
21
-114.2361349999999902
0
LINE
8
BLACK
6
CONTINUOUS
10
118.7214249999999964
20
-114.2361349999999902
11
118.9119010000000003
21
-114.1408969999999954
0
LINE
8
BLACK
6
CONTINUOUS
10
120.4357109999999977
20
-115.950419999999994
11
120.5309489999999926
21
-116.0456590000000006
0
LINE
8
BLACK
6
CONTINUOUS
10
120.5309489999999926
20
-116.0456590000000006
11
120.4357109999999977
21
-116.1408969999999954
0
LINE
8
BLACK
6
CONTINUOUS
10
120.4357109999999977
20
-116.1408969999999954
11
120.3404729999999887
21
-116.0456590000000006
0
LINE
8
BLACK
6
CONTINUOUS
10
120.3404729999999887
20
-116.0456590000000006
11
120.4357109999999977
21
-115.950419999999994
0
LINE
8
BLACK
6
CONTINUOUS
10
120.4357109999999977
20
-115.950419999999994
11
120.4357109999999977
21
-116.1408969999999954
0
LINE
8
BLACK
6
CONTINUOUS
10
121.673805999999999
20
-114.9980389999999915
11
121.4833299999999952
21
-114.9028009999999966
0
LINE
8
BLACK
6
CONTINUOUS
10
121.4833299999999952
20
-114.9028009999999966
11
121.3880920000000003
21
-114.8075630000000018
0
LINE
8
BLACK
6
CONTINUOUS
10
121.3880920000000003
20
-114.8075630000000018
11
121.2928539999999913
21
-114.6170869999999979
0
LINE
8
BLACK
6
CONTINUOUS
10
121.2928539999999913
20
-114.6170869999999979
11
121.2928539999999913
21
-114.5218489999999889
0
LINE
8
BLACK
6
CONTINUOUS
10
121.2928539999999913
20
-114.5218489999999889
11
121.3880920000000003
21
-114.3313729999999993
0
LINE
8
BLACK
6
CONTINUOUS
10
121.3880920000000003
20
-114.3313729999999993
11
121.4833299999999952
21
-114.2361349999999902
0
LINE
8
BLACK
6
CONTINUOUS
10
121.4833299999999952
20
-114.2361349999999902
11
121.673805999999999
21
-114.1408969999999954
0
LINE
8
BLACK
6
CONTINUOUS
10
121.673805999999999
20
-114.1408969999999954
11
122.05475899999999
21
-114.1408969999999954
0
LINE
8
BLACK
6
CONTINUOUS
10
122.05475899999999
20
-114.1408969999999954
11
122.2452349999999939
21
-114.2361349999999902
0
LINE
8
BLACK
6
CONTINUOUS
10
122.2452349999999939
20
-114.2361349999999902
11
122.3404729999999887
21
-114.3313729999999993
0
LINE
8
BLACK
6
CONTINUOUS
10
122.3404729999999887
20
-114.3313729999999993
11
122.4357109999999977
21
-114.5218489999999889
0
LINE
8
BLACK
6
CONTINUOUS
10
122.4357109999999977
20
-114.5218489999999889
11
122.4357109999999977
21
-114.6170869999999979
0
LINE
8
BLACK
6
CONTINUOUS
10
122.4357109999999977
20
-114.6170869999999979
11
122.3404729999999887
21
-114.8075630000000018
0
LINE
8
BLACK
6
CONTINUOUS
10
122.3404729999999887
20
-114.8075630000000018
11
122.2452349999999939
21
-114.9028009999999966
0
LINE
8
BLACK
6
CONTINUOUS
10
122.2452349999999939
20
-114.9028009999999966
11
122.05475899999999
21
-114.9980389999999915
0
LINE
8
BLACK
6
CONTINUOUS
10
122.05475899999999
20
-114.9980389999999915
11
121.673805999999999
21
-114.9980389999999915
0
LINE
8
BLACK
6
CONTINUOUS
10
121.673805999999999
20
-114.9980389999999915
11
121.4833299999999952
21
-115.093277999999998
0
LINE
8
BLACK
6
CONTINUOUS
10
121.4833299999999952
20
-115.093277999999998
11
121.3880920000000003
21
-115.1885159999999928
0
LINE
8
BLACK
6
CONTINUOUS
10
121.3880920000000003
20
-115.1885159999999928
11
121.2928539999999913
21
-115.3789919999999967
0
LINE
8
BLACK
6
CONTINUOUS
10
121.2928539999999913
20
-115.3789919999999967
11
121.2928539999999913
21
-115.7599439999999902
0
LINE
8
BLACK
6
CONTINUOUS
10
121.2928539999999913
20
-115.7599439999999902
11
121.3880920000000003
21
-115.950419999999994
0
LINE
8
BLACK
6
CONTINUOUS
10
121.3880920000000003
20
-115.950419999999994
11
121.4833299999999952
21
-116.0456590000000006
0
LINE
8
BLACK
6
CONTINUOUS
10
121.4833299999999952
20
-116.0456590000000006
11
121.673805999999999
21
-116.1408969999999954
0
LINE
8
BLACK
6
CONTINUOUS
10
121.673805999999999
20
-116.1408969999999954
11
122.05475899999999
21
-116.1408969999999954
0
LINE
8
BLACK
6
CONTINUOUS
10
122.05475899999999
20
-116.1408969999999954
11
122.2452349999999939
21
-116.0456590000000006
0
LINE
8
BLACK
6
CONTINUOUS
10
122.2452349999999939
20
-116.0456590000000006
11
122.3404729999999887
21
-115.950419999999994
0
LINE
8
BLACK
6
CONTINUOUS
10
122.3404729999999887
20
-115.950419999999994
11
122.4357109999999977
21
-115.7599439999999902
0
LINE
8
BLACK
6
CONTINUOUS
10
122.4357109999999977
20
-115.7599439999999902
11
122.4357109999999977
21
-115.3789919999999967
0
LINE
8
BLACK
6
CONTINUOUS
10
122.4357109999999977
20
-115.3789919999999967
11
122.3404729999999887
21
-115.1885159999999928
0
LINE
8
BLACK
6
CONTINUOUS
10
122.3404729999999887
20
-115.1885159999999928
11
122.2452349999999939
21
-115.093277999999998
0
LINE
8
BLACK
6
CONTINUOUS
10
122.2452349999999939
20
-115.093277999999998
11
122.05475899999999
21
-114.9980389999999915
0
LINE
8
BLACK
6
CONTINUOUS
10
123.673805999999999
20
-114.1408969999999954
11
123.8642830000000004
21
-114.1408969999999954
0
LINE
8
BLACK
6
CONTINUOUS
10
123.8642830000000004
20
-114.1408969999999954
11
124.05475899999999
21
-114.2361349999999902
0
LINE
8
BLACK
6
CONTINUOUS
10
124.05475899999999
20
-114.2361349999999902
11
124.149996999999999
21
-114.3313729999999993
0
LINE
8
BLACK
6
CONTINUOUS
10
124.149996999999999
20
-114.3313729999999993
11
124.2452349999999939
21
-114.5218489999999889
0
LINE
8
BLACK
6
CONTINUOUS
10
124.2452349999999939
20
-114.5218489999999889
11
124.3404729999999887
21
-114.9028009999999966
0
LINE
8
BLACK
6
CONTINUOUS
10
124.3404729999999887
20
-114.9028009999999966
11
124.3404729999999887
21
-115.3789919999999967
0
LINE
8
BLACK
6
CONTINUOUS
10
124.3404729999999887
20
-115.3789919999999967
11
124.2452349999999939
21
-115.7599439999999902
0
LINE
8
BLACK
6
CONTINUOUS
10
124.2452349999999939
20
-115.7599439999999902
11
124.149996999999999
21
-115.950419999999994
0
LINE
8
BLACK
6
CONTINUOUS
10
124.149996999999999
20
-115.950419999999994
11
124.05475899999999
21
-116.0456590000000006
0
LINE
8
BLACK
6
CONTINUOUS
10
124.05475899999999
20
-116.0456590000000006
11
123.8642830000000004
21
-116.1408969999999954
0
LINE
8
BLACK
6
CONTINUOUS
10
123.8642830000000004
20
-116.1408969999999954
11
123.673805999999999
21
-116.1408969999999954
0
LINE
8
BLACK
6
CONTINUOUS
10
123.673805999999999
20
-116.1408969999999954
11
123.4833299999999952
21
-116.0456590000000006
0
LINE
8
BLACK
6
CONTINUOUS
10
123.4833299999999952
20
-116.0456590000000006
11
123.3880920000000003
21
-115.950419999999994
0
LINE
8
BLACK
6
CONTINUOUS
10
123.3880920000000003
20
-115.950419999999994
11
123.2928539999999913
21
-115.7599439999999902
0
LINE
8
BLACK
6
CONTINUOUS
10
123.2928539999999913
20
-115.7599439999999902
11
123.1976159999999965
21
-115.3789919999999967
0
LINE
8
BLACK
6
CONTINUOUS
10
123.1976159999999965
20
-115.3789919999999967
11
123.1976159999999965
21
-114.9028009999999966
0
LINE
8
BLACK
6
CONTINUOUS
10
123.1976159999999965
20
-114.9028009999999966
11
123.2928539999999913
21
-114.5218489999999889
0
LINE
8
BLACK
6
CONTINUOUS
10
123.2928539999999913
20
-114.5218489999999889
11
123.3880920000000003
21
-114.3313729999999993
0
LINE
8
BLACK
6
CONTINUOUS
10
123.3880920000000003
20
-114.3313729999999993
11
123.4833299999999952
21
-114.2361349999999902
0
LINE
8
BLACK
6
CONTINUOUS
10
123.4833299999999952
20
-114.2361349999999902
11
123.673805999999999
21
-114.1408969999999954
0
LINE
8
BLACK
6
CONTINUOUS
10
125.57856799999999
20
-114.1408969999999954
11
125.7690449999999913
21
-114.1408969999999954
0
LINE
8
BLACK
6
CONTINUOUS
10
125.7690449999999913
20
-114.1408969999999954
11
125.9595209999999952
21
-114.2361349999999902
0
LINE
8
BLACK
6
CONTINUOUS
10
125.9595209999999952
20
-114.2361349999999902
11
126.05475899999999
21
-114.3313729999999993
0
LINE
8
BLACK
6
CONTINUOUS
10
126.05475899999999
20
-114.3313729999999993
11
126.149996999999999
21
-114.5218489999999889
0
LINE
8
BLACK
6
CONTINUOUS
10
126.149996999999999
20
-114.5218489999999889
11
126.2452349999999939
21
-114.9028009999999966
0
LINE
8
BLACK
6
CONTINUOUS
10
126.2452349999999939
20
-114.9028009999999966
11
126.2452349999999939
21
-115.3789919999999967
0
LINE
8
BLACK
6
CONTINUOUS
10
126.2452349999999939
20
-115.3789919999999967
11
126.149996999999999
21
-115.7599439999999902
0
LINE
8
BLACK
6
CONTINUOUS
10
126.149996999999999
20
-115.7599439999999902
11
126.05475899999999
21
-115.950419999999994
0
LINE
8
BLACK
6
CONTINUOUS
10
126.05475899999999
20
-115.950419999999994
11
125.9595209999999952
21
-116.0456590000000006
0
LINE
8
BLACK
6
CONTINUOUS
10
125.9595209999999952
20
-116.0456590000000006
11
125.7690449999999913
21
-116.1408969999999954
0
LINE
8
BLACK
6
CONTINUOUS
10
125.7690449999999913
20
-116.1408969999999954
11
125.57856799999999
21
-116.1408969999999954
0
LINE
8
BLACK
6
CONTINUOUS
10
125.57856799999999
20
-116.1408969999999954
11
125.3880920000000003
21
-116.0456590000000006
0
LINE
8
BLACK
6
CONTINUOUS
10
125.3880920000000003
20
-116.0456590000000006
11
125.2928539999999913
21
-115.950419999999994
0
LINE
8
BLACK
6
CONTINUOUS
10
125.2928539999999913
20
-115.950419999999994
11
125.1976159999999965
21
-115.7599439999999902
0
LINE
8
BLACK
6
CONTINUOUS
10
125.1976159999999965
20
-115.7599439999999902
11
125.1023779999999874
21
-115.3789919999999967
0
LINE
8
BLACK
6
CONTINUOUS
10
125.1023779999999874
20
-115.3789919999999967
11
125.1023779999999874
21
-114.9028009999999966
0
LINE
8
BLACK
6
CONTINUOUS
10
125.1023779999999874
20
-114.9028009999999966
11
125.1976159999999965
21
-114.5218489999999889
0
LINE
8
BLACK
6
CONTINUOUS
10
125.1976159999999965
20
-114.5218489999999889
11
125.2928539999999913
21
-114.3313729999999993
0
LINE
8
BLACK
6
CONTINUOUS
10
125.2928539999999913
20
-114.3313729999999993
11
125.3880920000000003
21
-114.2361349999999902
0
LINE
8
BLACK
6
CONTINUOUS
10
125.3880920000000003
20
-114.2361349999999902
11
125.57856799999999
21
-114.1408969999999954
0
LINE
8
BLACK
6
CONTINUOUS
10
127.1023779999999874
20
-116.1408969999999954
11
127.1023779999999874
21
-114.8075630000000018
0
LINE
8
BLACK
6
CONTINUOUS
10
127.1023779999999874
20
-114.9980389999999915
11
127.1976159999999965
21
-114.9028009999999966
0
LINE
8
BLACK
6
CONTINUOUS
10
127.1976159999999965
20
-114.9028009999999966
11
127.3880920000000003
21
-114.8075630000000018
0
LINE
8
BLACK
6
CONTINUOUS
10
127.3880920000000003
20
-114.8075630000000018
11
127.6738069999999965
21
-114.8075630000000018
0
LINE
8
BLACK
6
CONTINUOUS
10
127.6738069999999965
20
-114.8075630000000018
11
127.8642830000000004
21
-114.9028009999999966
0
LINE
8
BLACK
6
CONTINUOUS
10
127.8642830000000004
20
-114.9028009999999966
11
127.9595209999999952
21
-115.093277999999998
0
LINE
8
BLACK
6
CONTINUOUS
10
127.9595209999999952
20
-115.093277999999998
11
127.9595209999999952
21
-116.1408969999999954
0
LINE
8
BLACK
6
CONTINUOUS
10
127.9595209999999952
20
-115.093277999999998
11
128.05475899999999
21
-114.9028009999999966
0
LINE
8
BLACK
6
CONTINUOUS
10
128.05475899999999
20
-114.9028009999999966
11
128.2452350000000081
21
-114.8075630000000018
0
LINE
8
BLACK
6
CONTINUOUS
10
128.2452350000000081
20
-114.8075630000000018
11
128.5309489999999926
21
-114.8075630000000018
0
LINE
8
BLACK
6
CONTINUOUS
10
128.5309489999999926
20
-114.8075630000000018
11
128.7214260000000081
21
-114.9028009999999966
0
LINE
8
BLACK
6
CONTINUOUS
10
128.7214260000000081
20
-114.9028009999999966
11
128.8166640000000029
21
-115.093277999999998
0
LINE
8
BLACK
6
CONTINUOUS
10
128.8166640000000029
20
-115.093277999999998
11
128.8166640000000029
21
-116.1408969999999954
0
LINE
8
BLACK
6
CONTINUOUS
10
129.7690450000000055
20
-116.1408969999999954
11
129.7690450000000055
21
-114.8075630000000018
0
LINE
8
BLACK
6
CONTINUOUS
10
129.7690450000000055
20
-114.9980389999999915
11
129.8642830000000004
21
-114.9028009999999966
0
LINE
8
BLACK
6
CONTINUOUS
10
129.8642830000000004
20
-114.9028009999999966
11
130.05475899999999
21
-114.8075630000000018
0
LINE
8
BLACK
6
CONTINUOUS
10
130.05475899999999
20
-114.8075630000000018
11
130.3404740000000004
21
-114.8075630000000018
0
LINE
8
BLACK
6
CONTINUOUS
10
130.3404740000000004
20
-114.8075630000000018
11
130.53094999999999
21
-114.9028009999999966
0
LINE
8
BLACK
6
CONTINUOUS
10
130.53094999999999
20
-114.9028009999999966
11
130.6261879999999849
21
-115.093277999999998
0
LINE
8
BLACK
6
CONTINUOUS
10
130.6261879999999849
20
-115.093277999999998
11
130.6261879999999849
21
-116.1408969999999954
0
LINE
8
BLACK
6
CONTINUOUS
10
130.6261879999999849
20
-115.093277999999998
11
130.7214260000000081
21
-114.9028009999999966
0
LINE
8
BLACK
6
CONTINUOUS
10
130.7214260000000081
20
-114.9028009999999966
11
130.9119019999999978
21
-114.8075630000000018
0
LINE
8
BLACK
6
CONTINUOUS
10
130.9119019999999978
20
-114.8075630000000018
11
131.1976159999999823
21
-114.8075630000000018
0
LINE
8
BLACK
6
CONTINUOUS
10
131.1976159999999823
20
-114.8075630000000018
11
131.3880929999999978
21
-114.9028009999999966
0
LINE
8
BLACK
6
CONTINUOUS
10
131.3880929999999978
20
-114.9028009999999966
11
131.4833309999999926
21
-115.093277999999998
0
LINE
8
BLACK
6
CONTINUOUS
10
131.4833309999999926
20
-115.093277999999998
11
131.4833309999999926
21
-116.1408969999999954
0
LINE
8
BLACK
6
CONTINUOUS
10
135.3880929999999978
20
-114.0456590000000006
11
133.6738079999999798
21
-116.6170869999999979
0
LINE
8
BLACK
6
CONTINUOUS
10
137.9595219999999927
20
-114.1408969999999954
11
138.1499989999999798
21
-114.1408969999999954
0
LINE
8
BLACK
6
CONTINUOUS
10
138.1499989999999798
20
-114.1408969999999954
11
138.3404749999999979
21
-114.2361349999999902
0
LINE
8
BLACK
6
CONTINUOUS
10
138.3404749999999979
20
-114.2361349999999902
11
138.4357129999999927
21
-114.3313729999999993
0
LINE
8
BLACK
6
CONTINUOUS
10
138.4357129999999927
20
-114.3313729999999993
11
138.5309509999999875
21
-114.5218489999999889
0
LINE
8
BLACK
6
CONTINUOUS
10
138.5309509999999875
20
-114.5218489999999889
11
138.6261889999999823
21
-114.9028009999999966
0
LINE
8
BLACK
6
CONTINUOUS
10
138.6261889999999823
20
-114.9028009999999966
11
138.6261889999999823
21
-115.3789919999999967
0
LINE
8
BLACK
6
CONTINUOUS
10
138.6261889999999823
20
-115.3789919999999967
11
138.5309509999999875
21
-115.7599439999999902
0
LINE
8
BLACK
6
CONTINUOUS
10
138.5309509999999875
20
-115.7599439999999902
11
138.4357129999999927
21
-115.950419999999994
0
LINE
8
BLACK
6
CONTINUOUS
10
138.4357129999999927
20
-115.950419999999994
11
138.3404749999999979
21
-116.0456590000000006
0
LINE
8
BLACK
6
CONTINUOUS
10
138.3404749999999979
20
-116.0456590000000006
11
138.1499989999999798
21
-116.1408969999999954
0
LINE
8
BLACK
6
CONTINUOUS
10
138.1499989999999798
20
-116.1408969999999954
11
137.9595219999999927
21
-116.1408969999999954
0
LINE
8
BLACK
6
CONTINUOUS
10
137.9595219999999927
20
-116.1408969999999954
11
137.769046000000003
21
-116.0456590000000006
0
LINE
8
BLACK
6
CONTINUOUS
10
137.769046000000003
20
-116.0456590000000006
11
137.6738079999999798
21
-115.950419999999994
0
LINE
8
BLACK
6
CONTINUOUS
10
137.6738079999999798
20
-115.950419999999994
11
137.5785699999999849
21
-115.7599439999999902
0
LINE
8
BLACK
6
CONTINUOUS
10
137.5785699999999849
20
-115.7599439999999902
11
137.4833319999999901
21
-115.3789919999999967
0
LINE
8
BLACK
6
CONTINUOUS
10
137.4833319999999901
20
-115.3789919999999967
11
137.4833319999999901
21
-114.9028009999999966
0
LINE
8
BLACK
6
CONTINUOUS
10
137.4833319999999901
20
-114.9028009999999966
11
137.5785699999999849
21
-114.5218489999999889
0
LINE
8
BLACK
6
CONTINUOUS
10
137.5785699999999849
20
-114.5218489999999889
11
137.6738079999999798
21
-114.3313729999999993
0
LINE
8
BLACK
6
CONTINUOUS
10
137.6738079999999798
20
-114.3313729999999993
11
137.769046000000003
21
-114.2361349999999902
0
LINE
8
BLACK
6
CONTINUOUS
10
137.769046000000003
20
-114.2361349999999902
11
137.9595219999999927
21
-114.1408969999999954
0
LINE
8
BLACK
6
CONTINUOUS
10
139.4833319999999901
20
-115.950419999999994
11
139.5785699999999849
21
-116.0456590000000006
0
LINE
8
BLACK
6
CONTINUOUS
10
139.5785699999999849
20
-116.0456590000000006
11
139.4833319999999901
21
-116.1408969999999954
0
LINE
8
BLACK
6
CONTINUOUS
10
139.4833319999999901
20
-116.1408969999999954
11
139.3880939999999953
21
-116.0456590000000006
0
LINE
8
BLACK
6
CONTINUOUS
10
139.3880939999999953
20
-116.0456590000000006
11
139.4833319999999901
21
-115.950419999999994
0
LINE
8
BLACK
6
CONTINUOUS
10
139.4833319999999901
20
-115.950419999999994
11
139.4833319999999901
21
-116.1408969999999954
0
LINE
8
BLACK
6
CONTINUOUS
10
140.8166650000000004
20
-114.1408969999999954
11
141.0071419999999875
21
-114.1408969999999954
0
LINE
8
BLACK
6
CONTINUOUS
10
141.0071419999999875
20
-114.1408969999999954
11
141.1976180000000056
21
-114.2361349999999902
0
LINE
8
BLACK
6
CONTINUOUS
10
141.1976180000000056
20
-114.2361349999999902
11
141.2928560000000004
21
-114.3313729999999993
0
LINE
8
BLACK
6
CONTINUOUS
10
141.2928560000000004
20
-114.3313729999999993
11
141.3880939999999953
21
-114.5218489999999889
0
LINE
8
BLACK
6
CONTINUOUS
10
141.3880939999999953
20
-114.5218489999999889
11
141.4833319999999901
21
-114.9028009999999966
0
LINE
8
BLACK
6
CONTINUOUS
10
141.4833319999999901
20
-114.9028009999999966
11
141.4833319999999901
21
-115.3789919999999967
0
LINE
8
BLACK
6
CONTINUOUS
10
141.4833319999999901
20
-115.3789919999999967
11
141.3880939999999953
21
-115.7599439999999902
0
LINE
8
BLACK
6
CONTINUOUS
10
141.3880939999999953
20
-115.7599439999999902
11
141.2928560000000004
21
-115.950419999999994
0
LINE
8
BLACK
6
CONTINUOUS
10
141.2928560000000004
20
-115.950419999999994
11
141.1976180000000056
21
-116.0456590000000006
0
LINE
8
BLACK
6
CONTINUOUS
10
141.1976180000000056
20
-116.0456590000000006
11
141.0071419999999875
21
-116.1408969999999954
0
LINE
8
BLACK
6
CONTINUOUS
10
141.0071419999999875
20
-116.1408969999999954
11
140.8166650000000004
21
-116.1408969999999954
0
LINE
8
BLACK
6
CONTINUOUS
10
140.8166650000000004
20
-116.1408969999999954
11
140.6261889999999823
21
-116.0456590000000006
0
LINE
8
BLACK
6
CONTINUOUS
10
140.6261889999999823
20
-116.0456590000000006
11
140.5309509999999875
21
-115.950419999999994
0
LINE
8
BLACK
6
CONTINUOUS
10
140.5309509999999875
20
-115.950419999999994
11
140.4357129999999927
21
-115.7599439999999902
0
LINE
8
BLACK
6
CONTINUOUS
10
140.4357129999999927
20
-115.7599439999999902
11
140.3404749999999979
21
-115.3789919999999967
0
LINE
8
BLACK
6
CONTINUOUS
10
140.3404749999999979
20
-115.3789919999999967
11
140.3404749999999979
21
-114.9028009999999966
0
LINE
8
BLACK
6
CONTINUOUS
10
140.3404749999999979
20
-114.9028009999999966
11
140.4357129999999927
21
-114.5218489999999889
0
LINE
8
BLACK
6
CONTINUOUS
10
140.4357129999999927
20
-114.5218489999999889
11
140.5309509999999875
21
-114.3313729999999993
0
LINE
8
BLACK
6
CONTINUOUS
10
140.5309509999999875
20
-114.3313729999999993
11
140.6261889999999823
21
-114.2361349999999902
0
LINE
8
BLACK
6
CONTINUOUS
10
140.6261889999999823
20
-114.2361349999999902
11
140.8166650000000004
21
-114.1408969999999954
0
LINE
8
BLACK
6
CONTINUOUS
10
142.1499989999999798
20
-114.1408969999999954
11
143.3880939999999953
21
-114.1408969999999954
0
LINE
8
BLACK
6
CONTINUOUS
10
143.3880939999999953
20
-114.1408969999999954
11
142.7214270000000056
21
-114.9028009999999966
0
LINE
8
BLACK
6
CONTINUOUS
10
142.7214270000000056
20
-114.9028009999999966
11
143.0071419999999875
21
-114.9028009999999966
0
LINE
8
BLACK
6
CONTINUOUS
10
143.0071419999999875
20
-114.9028009999999966
11
143.1976180000000056
21
-114.9980389999999915
0
LINE
8
BLACK
6
CONTINUOUS
10
143.1976180000000056
20
-114.9980389999999915
11
143.2928560000000004
21
-115.093277999999998
0
LINE
8
BLACK
6
CONTINUOUS
10
143.2928560000000004
20
-115.093277999999998
11
143.3880939999999953
21
-115.2837540000000018
0
LINE
8
BLACK
6
CONTINUOUS
10
143.3880939999999953
20
-115.2837540000000018
11
143.3880939999999953
21
-115.7599439999999902
0
LINE
8
BLACK
6
CONTINUOUS
10
143.3880939999999953
20
-115.7599439999999902
11
143.2928560000000004
21
-115.950419999999994
0
LINE
8
BLACK
6
CONTINUOUS
10
143.2928560000000004
20
-115.950419999999994
11
143.1976180000000056
21
-116.0456590000000006
0
LINE
8
BLACK
6
CONTINUOUS
10
143.1976180000000056
20
-116.0456590000000006
11
143.0071419999999875
21
-116.1408969999999954
0
LINE
8
BLACK
6
CONTINUOUS
10
143.0071419999999875
20
-116.1408969999999954
11
142.4357129999999927
21
-116.1408969999999954
0
LINE
8
BLACK
6
CONTINUOUS
10
142.4357129999999927
20
-116.1408969999999954
11
142.245237000000003
21
-116.0456590000000006
0
LINE
8
BLACK
6
CONTINUOUS
10
142.245237000000003
20
-116.0456590000000006
11
142.1499989999999798
21
-115.950419999999994
0
LINE
8
BLACK
6
CONTINUOUS
10
145.2928560000000004
20
-116.1408969999999954
11
144.1499989999999798
21
-116.1408969999999954
0
LINE
8
BLACK
6
CONTINUOUS
10
144.7214270000000056
20
-116.1408969999999954
11
144.7214270000000056
21
-114.1408969999999954
0
LINE
8
BLACK
6
CONTINUOUS
10
144.7214270000000056
20
-114.1408969999999954
11
144.5309509999999875
21
-114.4266109999999941
0
LINE
8
BLACK
6
CONTINUOUS
10
144.5309509999999875
20
-114.4266109999999941
11
144.3404749999999979
21
-114.6170869999999979
0
LINE
8
BLACK
6
CONTINUOUS
10
144.3404749999999979
20
-114.6170869999999979
11
144.1499989999999798
21
-114.7123249999999928
0
LINE
8
BLACK
6
CONTINUOUS
10
147.1023799999999824
20
-114.1408969999999954
11
146.1499989999999798
21
-114.1408969999999954
0
LINE
8
BLACK
6
CONTINUOUS
10
146.1499989999999798
20
-114.1408969999999954
11
146.054760999999985
21
-115.093277999999998
0
LINE
8
BLACK
6
CONTINUOUS
10
146.054760999999985
20
-115.093277999999998
11
146.1499989999999798
21
-114.9980389999999915
0
LINE
8
BLACK
6
CONTINUOUS
10
146.1499989999999798
20
-114.9980389999999915
11
146.3404749999999979
21
-114.9028009999999966
0
LINE
8
BLACK
6
CONTINUOUS
10
146.3404749999999979
20
-114.9028009999999966
11
146.8166659999999979
21
-114.9028009999999966
0
LINE
8
BLACK
6
CONTINUOUS
10
146.8166659999999979
20
-114.9028009999999966
11
147.0071419999999875
21
-114.9980389999999915
0
LINE
8
BLACK
6
CONTINUOUS
10
147.0071419999999875
20
-114.9980389999999915
11
147.1023799999999824
21
-115.093277999999998
0
LINE
8
BLACK
6
CONTINUOUS
10
147.1023799999999824
20
-115.093277999999998
11
147.1976180000000056
21
-115.2837540000000018
0
LINE
8
BLACK
6
CONTINUOUS
10
147.1976180000000056
20
-115.2837540000000018
11
147.1976180000000056
21
-115.7599439999999902
0
LINE
8
BLACK
6
CONTINUOUS
10
147.1976180000000056
20
-115.7599439999999902
11
147.1023799999999824
21
-115.950419999999994
0
LINE
8
BLACK
6
CONTINUOUS
10
147.1023799999999824
20
-115.950419999999994
11
147.0071419999999875
21
-116.0456590000000006
0
LINE
8
BLACK
6
CONTINUOUS
10
147.0071419999999875
20
-116.0456590000000006
11
146.8166659999999979
21
-116.1408969999999954
0
LINE
8
BLACK
6
CONTINUOUS
10
146.8166659999999979
20
-116.1408969999999954
11
146.3404749999999979
21
-116.1408969999999954
0
LINE
8
BLACK
6
CONTINUOUS
10
146.3404749999999979
20
-116.1408969999999954
11
146.1499989999999798
21
-116.0456590000000006
0
LINE
8
BLACK
6
CONTINUOUS
10
146.1499989999999798
20
-116.0456590000000006
11
146.054760999999985
21
-115.950419999999994
0
LINE
8
BLACK
6
CONTINUOUS
10
147.9595229999999901
20
-114.1408969999999954
11
147.9595229999999901
21
-114.5218489999999889
0
LINE
8
BLACK
6
CONTINUOUS
10
148.7214280000000031
20
-114.1408969999999954
11
148.7214280000000031
21
-114.5218489999999889
0
LINE
8
BLACK
6
CONTINUOUS
10
151.6738100000000031
20
-116.9028009999999966
11
151.5785709999999824
21
-116.8075630000000018
0
LINE
8
BLACK
6
CONTINUOUS
10
151.5785709999999824
20
-116.8075630000000018
11
151.3880949999999928
21
-116.5218489999999889
0
LINE
8
BLACK
6
CONTINUOUS
10
151.3880949999999928
20
-116.5218489999999889
11
151.2928569999999979
21
-116.3313729999999993
0
LINE
8
BLACK
6
CONTINUOUS
10
151.2928569999999979
20
-116.3313729999999993
11
151.1976190000000031
21
-116.0456590000000006
0
LINE
8
BLACK
6
CONTINUOUS
10
151.1976190000000031
20
-116.0456590000000006
11
151.1023809999999798
21
-115.5694680000000005
0
LINE
8
BLACK
6
CONTINUOUS
10
151.1023809999999798
20
-115.5694680000000005
11
151.1023809999999798
21
-115.1885159999999928
0
LINE
8
BLACK
6
CONTINUOUS
10
151.1023809999999798
20
-115.1885159999999928
11
151.1976190000000031
21
-114.7123249999999928
0
LINE
8
BLACK
6
CONTINUOUS
10
151.1976190000000031
20
-114.7123249999999928
11
151.2928569999999979
21
-114.4266109999999941
0
LINE
8
BLACK
6
CONTINUOUS
10
151.2928569999999979
20
-114.4266109999999941
11
151.3880949999999928
21
-114.2361349999999902
0
LINE
8
BLACK
6
CONTINUOUS
10
151.3880949999999928
20
-114.2361349999999902
11
151.5785709999999824
21
-113.950419999999994
0
LINE
8
BLACK
6
CONTINUOUS
10
151.5785709999999824
20
-113.950419999999994
11
151.6738100000000031
21
-113.8551819999999992
0
LINE
8
BLACK
6
CONTINUOUS
10
152.7214280000000031
20
-114.9980389999999915
11
152.530951999999985
21
-114.9028009999999966
0
LINE
8
BLACK
6
CONTINUOUS
10
152.530951999999985
20
-114.9028009999999966
11
152.4357139999999902
21
-114.8075630000000018
0
LINE
8
BLACK
6
CONTINUOUS
10
152.4357139999999902
20
-114.8075630000000018
11
152.3404759999999953
21
-114.6170869999999979
0
LINE
8
BLACK
6
CONTINUOUS
10
152.3404759999999953
20
-114.6170869999999979
11
152.3404759999999953
21
-114.5218489999999889
0
LINE
8
BLACK
6
CONTINUOUS
10
152.3404759999999953
20
-114.5218489999999889
11
152.4357139999999902
21
-114.3313729999999993
0
LINE
8
BLACK
6
CONTINUOUS
10
152.4357139999999902
20
-114.3313729999999993
11
152.530951999999985
21
-114.2361349999999902
0
LINE
8
BLACK
6
CONTINUOUS
10
152.530951999999985
20
-114.2361349999999902
11
152.7214280000000031
21
-114.1408969999999954
0
LINE
8
BLACK
6
CONTINUOUS
10
152.7214280000000031
20
-114.1408969999999954
11
153.1023809999999798
21
-114.1408969999999954
0
LINE
8
BLACK
6
CONTINUOUS
10
153.1023809999999798
20
-114.1408969999999954
11
153.2928569999999979
21
-114.2361349999999902
0
LINE
8
BLACK
6
CONTINUOUS
10
153.2928569999999979
20
-114.2361349999999902
11
153.3880949999999928
21
-114.3313729999999993
0
LINE
8
BLACK
6
CONTINUOUS
10
153.3880949999999928
20
-114.3313729999999993
11
153.4833329999999876
21
-114.5218489999999889
0
LINE
8
BLACK
6
CONTINUOUS
10
153.4833329999999876
20
-114.5218489999999889
11
153.4833329999999876
21
-114.6170869999999979
0
LINE
8
BLACK
6
CONTINUOUS
10
153.4833329999999876
20
-114.6170869999999979
11
153.3880949999999928
21
-114.8075630000000018
0
LINE
8
BLACK
6
CONTINUOUS
10
153.3880949999999928
20
-114.8075630000000018
11
153.2928569999999979
21
-114.9028009999999966
0
LINE
8
BLACK
6
CONTINUOUS
10
153.2928569999999979
20
-114.9028009999999966
11
153.1023809999999798
21
-114.9980389999999915
0
LINE
8
BLACK
6
CONTINUOUS
10
153.1023809999999798
20
-114.9980389999999915
11
152.7214280000000031
21
-114.9980389999999915
0
LINE
8
BLACK
6
CONTINUOUS
10
152.7214280000000031
20
-114.9980389999999915
11
152.530951999999985
21
-115.093277999999998
0
LINE
8
BLACK
6
CONTINUOUS
10
152.530951999999985
20
-115.093277999999998
11
152.4357139999999902
21
-115.1885159999999928
0
LINE
8
BLACK
6
CONTINUOUS
10
152.4357139999999902
20
-115.1885159999999928
11
152.3404759999999953
21
-115.3789919999999967
0
LINE
8
BLACK
6
CONTINUOUS
10
152.3404759999999953
20
-115.3789919999999967
11
152.3404759999999953
21
-115.7599439999999902
0
LINE
8
BLACK
6
CONTINUOUS
10
152.3404759999999953
20
-115.7599439999999902
11
152.4357139999999902
21
-115.950419999999994
0
LINE
8
BLACK
6
CONTINUOUS
10
152.4357139999999902
20
-115.950419999999994
11
152.530951999999985
21
-116.0456590000000006
0
LINE
8
BLACK
6
CONTINUOUS
10
152.530951999999985
20
-116.0456590000000006
11
152.7214280000000031
21
-116.1408969999999954
0
LINE
8
BLACK
6
CONTINUOUS
10
152.7214280000000031
20
-116.1408969999999954
11
153.1023809999999798
21
-116.1408969999999954
0
LINE
8
BLACK
6
CONTINUOUS
10
153.1023809999999798
20
-116.1408969999999954
11
153.2928569999999979
21
-116.0456590000000006
0
LINE
8
BLACK
6
CONTINUOUS
10
153.2928569999999979
20
-116.0456590000000006
11
153.3880949999999928
21
-115.950419999999994
0
LINE
8
BLACK
6
CONTINUOUS
10
153.3880949999999928
20
-115.950419999999994
11
153.4833329999999876
21
-115.7599439999999902
0
LINE
8
BLACK
6
CONTINUOUS
10
153.4833329999999876
20
-115.7599439999999902
11
153.4833329999999876
21
-115.3789919999999967
0
LINE
8
BLACK
6
CONTINUOUS
10
153.4833329999999876
20
-115.3789919999999967
11
153.3880949999999928
21
-115.1885159999999928
0
LINE
8
BLACK
6
CONTINUOUS
10
153.3880949999999928
20
-115.1885159999999928
11
153.2928569999999979
21
-115.093277999999998
0
LINE
8
BLACK
6
CONTINUOUS
10
153.2928569999999979
20
-115.093277999999998
11
153.1023809999999798
21
-114.9980389999999915
0
LINE
8
BLACK
6
CONTINUOUS
10
155.8642859999999928
20
-116.1408969999999954
11
155.8642859999999928
21
-114.1408969999999954
0
LINE
8
BLACK
6
CONTINUOUS
10
156.7214290000000005
20
-116.1408969999999954
11
156.7214290000000005
21
-115.093277999999998
0
LINE
8
BLACK
6
CONTINUOUS
10
156.7214290000000005
20
-115.093277999999998
11
156.6261910000000057
21
-114.9028009999999966
0
LINE
8
BLACK
6
CONTINUOUS
10
156.6261910000000057
20
-114.9028009999999966
11
156.4357149999999876
21
-114.8075630000000018
0
LINE
8
BLACK
6
CONTINUOUS
10
156.4357149999999876
20
-114.8075630000000018
11
156.1500000000000057
21
-114.8075630000000018
0
LINE
8
BLACK
6
CONTINUOUS
10
156.1500000000000057
20
-114.8075630000000018
11
155.9595239999999876
21
-114.9028009999999966
0
LINE
8
BLACK
6
CONTINUOUS
10
155.9595239999999876
20
-114.9028009999999966
11
155.8642859999999928
21
-114.9980389999999915
0
LINE
8
BLACK
6
CONTINUOUS
10
157.9595239999999876
20
-116.1408969999999954
11
157.769047999999998
21
-116.0456590000000006
0
LINE
8
BLACK
6
CONTINUOUS
10
157.769047999999998
20
-116.0456590000000006
11
157.6738100000000031
21
-115.950419999999994
0
LINE
8
BLACK
6
CONTINUOUS
10
157.6738100000000031
20
-115.950419999999994
11
157.5785719999999799
21
-115.7599439999999902
0
LINE
8
BLACK
6
CONTINUOUS
10
157.5785719999999799
20
-115.7599439999999902
11
157.5785719999999799
21
-115.1885159999999928
0
LINE
8
BLACK
6
CONTINUOUS
10
157.5785719999999799
20
-115.1885159999999928
11
157.6738100000000031
21
-114.9980389999999915
0
LINE
8
BLACK
6
CONTINUOUS
10
157.6738100000000031
20
-114.9980389999999915
11
157.769047999999998
21
-114.9028009999999966
0
LINE
8
BLACK
6
CONTINUOUS
10
157.769047999999998
20
-114.9028009999999966
11
157.9595239999999876
21
-114.8075630000000018
0
LINE
8
BLACK
6
CONTINUOUS
10
157.9595239999999876
20
-114.8075630000000018
11
158.245238999999998
21
-114.8075630000000018
0
LINE
8
BLACK
6
CONTINUOUS
10
158.245238999999998
20
-114.8075630000000018
11
158.4357149999999876
21
-114.9028009999999966
0
LINE
8
BLACK
6
CONTINUOUS
10
158.4357149999999876
20
-114.9028009999999966
11
158.5309529999999825
21
-114.9980389999999915
0
LINE
8
BLACK
6
CONTINUOUS
10
158.5309529999999825
20
-114.9980389999999915
11
158.6261910000000057
21
-115.1885159999999928
0
LINE
8
BLACK
6
CONTINUOUS
10
158.6261910000000057
20
-115.1885159999999928
11
158.6261910000000057
21
-115.7599439999999902
0
LINE
8
BLACK
6
CONTINUOUS
10
158.6261910000000057
20
-115.7599439999999902
11
158.5309529999999825
21
-115.950419999999994
0
LINE
8
BLACK
6
CONTINUOUS
10
158.5309529999999825
20
-115.950419999999994
11
158.4357149999999876
21
-116.0456590000000006
0
LINE
8
BLACK
6
CONTINUOUS
10
158.4357149999999876
20
-116.0456590000000006
11
158.245238999999998
21
-116.1408969999999954
0
LINE
8
BLACK
6
CONTINUOUS
10
158.245238999999998
20
-116.1408969999999954
11
157.9595239999999876
21
-116.1408969999999954
0
LINE
8
BLACK
6
CONTINUOUS
10
159.769047999999998
20
-116.1408969999999954
11
159.5785719999999799
21
-116.0456590000000006
0
LINE
8
BLACK
6
CONTINUOUS
10
159.5785719999999799
20
-116.0456590000000006
11
159.4833339999999851
21
-115.8551819999999992
0
LINE
8
BLACK
6
CONTINUOUS
10
159.4833339999999851
20
-115.8551819999999992
11
159.4833339999999851
21
-114.1408969999999954
0
LINE
8
BLACK
6
CONTINUOUS
10
161.2928579999999954
20
-116.0456590000000006
11
161.1023820000000057
21
-116.1408969999999954
0
LINE
8
BLACK
6
CONTINUOUS
10
161.1023820000000057
20
-116.1408969999999954
11
160.7214290000000005
21
-116.1408969999999954
0
LINE
8
BLACK
6
CONTINUOUS
10
160.7214290000000005
20
-116.1408969999999954
11
160.5309529999999825
21
-116.0456590000000006
0
LINE
8
BLACK
6
CONTINUOUS
10
160.5309529999999825
20
-116.0456590000000006
11
160.4357149999999876
21
-115.8551819999999992
0
LINE
8
BLACK
6
CONTINUOUS
10
160.4357149999999876
20
-115.8551819999999992
11
160.4357149999999876
21
-115.093277999999998
0
LINE
8
BLACK
6
CONTINUOUS
10
160.4357149999999876
20
-115.093277999999998
11
160.5309529999999825
21
-114.9028009999999966
0
LINE
8
BLACK
6
CONTINUOUS
10
160.5309529999999825
20
-114.9028009999999966
11
160.7214290000000005
21
-114.8075630000000018
0
LINE
8
BLACK
6
CONTINUOUS
10
160.7214290000000005
20
-114.8075630000000018
11
161.1023820000000057
21
-114.8075630000000018
0
LINE
8
BLACK
6
CONTINUOUS
10
161.1023820000000057
20
-114.8075630000000018
11
161.2928579999999954
21
-114.9028009999999966
0
LINE
8
BLACK
6
CONTINUOUS
10
161.2928579999999954
20
-114.9028009999999966
11
161.3880959999999902
21
-115.093277999999998
0
LINE
8
BLACK
6
CONTINUOUS
10
161.3880959999999902
20
-115.093277999999998
11
161.3880959999999902
21
-115.2837540000000018
0
LINE
8
BLACK
6
CONTINUOUS
10
161.3880959999999902
20
-115.2837540000000018
11
160.4357149999999876
21
-115.4742299999999915
0
LINE
8
BLACK
6
CONTINUOUS
10
162.1500010000000032
20
-116.0456590000000006
11
162.3404769999999928
21
-116.1408969999999954
0
LINE
8
BLACK
6
CONTINUOUS
10
162.3404769999999928
20
-116.1408969999999954
11
162.7214290000000005
21
-116.1408969999999954
0
LINE
8
BLACK
6
CONTINUOUS
10
162.7214290000000005
20
-116.1408969999999954
11
162.9119059999999877
21
-116.0456590000000006
0
LINE
8
BLACK
6
CONTINUOUS
10
162.9119059999999877
20
-116.0456590000000006
11
163.0071439999999825
21
-115.8551819999999992
0
LINE
8
BLACK
6
CONTINUOUS
10
163.0071439999999825
20
-115.8551819999999992
11
163.0071439999999825
21
-115.7599439999999902
0
LINE
8
BLACK
6
CONTINUOUS
10
163.0071439999999825
20
-115.7599439999999902
11
162.9119059999999877
21
-115.5694680000000005
0
LINE
8
BLACK
6
CONTINUOUS
10
162.9119059999999877
20
-115.5694680000000005
11
162.7214290000000005
21
-115.4742299999999915
0
LINE
8
BLACK
6
CONTINUOUS
10
162.7214290000000005
20
-115.4742299999999915
11
162.4357149999999876
21
-115.4742299999999915
0
LINE
8
BLACK
6
CONTINUOUS
10
162.4357149999999876
20
-115.4742299999999915
11
162.245238999999998
21
-115.3789919999999967
0
LINE
8
BLACK
6
CONTINUOUS
10
162.245238999999998
20
-115.3789919999999967
11
162.1500010000000032
21
-115.1885159999999928
0
LINE
8
BLACK
6
CONTINUOUS
10
162.1500010000000032
20
-115.1885159999999928
11
162.1500010000000032
21
-115.093277999999998
0
LINE
8
BLACK
6
CONTINUOUS
10
162.1500010000000032
20
-115.093277999999998
11
162.245238999999998
21
-114.9028009999999966
0
LINE
8
BLACK
6
CONTINUOUS
10
162.245238999999998
20
-114.9028009999999966
11
162.4357149999999876
21
-114.8075630000000018
0
LINE
8
BLACK
6
CONTINUOUS
10
162.4357149999999876
20
-114.8075630000000018
11
162.7214290000000005
21
-114.8075630000000018
0
LINE
8
BLACK
6
CONTINUOUS
10
162.7214290000000005
20
-114.8075630000000018
11
162.9119059999999877
21
-114.9028009999999966
0
LINE
8
BLACK
6
CONTINUOUS
10
163.6738110000000006
20
-116.9028009999999966
11
163.7690489999999954
21
-116.8075630000000018
0
LINE
8
BLACK
6
CONTINUOUS
10
163.7690489999999954
20
-116.8075630000000018
11
163.9595249999999851
21
-116.5218489999999889
0
LINE
8
BLACK
6
CONTINUOUS
10
163.9595249999999851
20
-116.5218489999999889
11
164.0547629999999799
21
-116.3313729999999993
0
LINE
8
BLACK
6
CONTINUOUS
10
164.0547629999999799
20
-116.3313729999999993
11
164.1500010000000032
21
-116.0456590000000006
0
LINE
8
BLACK
6
CONTINUOUS
10
164.1500010000000032
20
-116.0456590000000006
11
164.245238999999998
21
-115.5694680000000005
0
LINE
8
BLACK
6
CONTINUOUS
10
164.245238999999998
20
-115.5694680000000005
11
164.245238999999998
21
-115.1885159999999928
0
LINE
8
BLACK
6
CONTINUOUS
10
164.245238999999998
20
-115.1885159999999928
11
164.1500010000000032
21
-114.7123249999999928
0
LINE
8
BLACK
6
CONTINUOUS
10
164.1500010000000032
20
-114.7123249999999928
11
164.0547629999999799
21
-114.4266109999999941
0
LINE
8
BLACK
6
CONTINUOUS
10
164.0547629999999799
20
-114.4266109999999941
11
163.9595249999999851
21
-114.2361349999999902
0
LINE
8
BLACK
6
CONTINUOUS
10
163.9595249999999851
20
-114.2361349999999902
11
163.7690489999999954
21
-113.950419999999994
0
LINE
8
BLACK
6
CONTINUOUS
10
163.7690489999999954
20
-113.950419999999994
11
163.6738110000000006
21
-113.8551819999999992
0
LINE
8
BLACK
6
CONTINUOUS
10
115.4731809999999967
20
-117.41605899999999
11
115.4731809999999967
21
-118.3160589999999956
0
LINE
8
BLACK
6
CONTINUOUS
10
115.0231809999999939
20
-117.8660589999999928
11
115.9231809999999996
21
-117.8660589999999928
0
LINE
8
BLACK
6
CONTINUOUS
10
118.9119010000000003
20
-116.780896999999996
11
119.1023780000000016
21
-116.780896999999996
0
LINE
8
BLACK
6
CONTINUOUS
10
119.1023780000000016
20
-116.780896999999996
11
119.2928539999999913
21
-116.8761349999999908
0
LINE
8
BLACK
6
CONTINUOUS
10
119.2928539999999913
20
-116.8761349999999908
11
119.3880920000000003
21
-116.9713729999999998
0
LINE
8
BLACK
6
CONTINUOUS
10
119.3880920000000003
20
-116.9713729999999998
11
119.4833299999999952
21
-117.1618489999999895
0
LINE
8
BLACK
6
CONTINUOUS
10
119.4833299999999952
20
-117.1618489999999895
11
119.57856799999999
21
-117.5428009999999972
0
LINE
8
BLACK
6
CONTINUOUS
10
119.57856799999999
20
-117.5428009999999972
11
119.57856799999999
21
-118.0189919999999972
0
LINE
8
BLACK
6
CONTINUOUS
10
119.57856799999999
20
-118.0189919999999972
11
119.4833299999999952
21
-118.3999439999999908
0
LINE
8
BLACK
6
CONTINUOUS
10
119.4833299999999952
20
-118.3999439999999908
11
119.3880920000000003
21
-118.5904199999999946
0
LINE
8
BLACK
6
CONTINUOUS
10
119.3880920000000003
20
-118.5904199999999946
11
119.2928539999999913
21
-118.6856590000000011
0
LINE
8
BLACK
6
CONTINUOUS
10
119.2928539999999913
20
-118.6856590000000011
11
119.1023780000000016
21
-118.780896999999996
0
LINE
8
BLACK
6
CONTINUOUS
10
119.1023780000000016
20
-118.780896999999996
11
118.9119010000000003
21
-118.780896999999996
0
LINE
8
BLACK
6
CONTINUOUS
10
118.9119010000000003
20
-118.780896999999996
11
118.7214249999999964
21
-118.6856590000000011
0
LINE
8
BLACK
6
CONTINUOUS
10
118.7214249999999964
20
-118.6856590000000011
11
118.6261870000000016
21
-118.5904199999999946
0
LINE
8
BLACK
6
CONTINUOUS
10
118.6261870000000016
20
-118.5904199999999946
11
118.5309489999999926
21
-118.3999439999999908
0
LINE
8
BLACK
6
CONTINUOUS
10
118.5309489999999926
20
-118.3999439999999908
11
118.4357109999999977
21
-118.0189919999999972
0
LINE
8
BLACK
6
CONTINUOUS
10
118.4357109999999977
20
-118.0189919999999972
11
118.4357109999999977
21
-117.5428009999999972
0
LINE
8
BLACK
6
CONTINUOUS
10
118.4357109999999977
20
-117.5428009999999972
11
118.5309489999999926
21
-117.1618489999999895
0
LINE
8
BLACK
6
CONTINUOUS
10
118.5309489999999926
20
-117.1618489999999895
11
118.6261870000000016
21
-116.9713729999999998
0
LINE
8
BLACK
6
CONTINUOUS
10
118.6261870000000016
20
-116.9713729999999998
11
118.7214249999999964
21
-116.8761349999999908
0
LINE
8
BLACK
6
CONTINUOUS
10
118.7214249999999964
20
-116.8761349999999908
11
118.9119010000000003
21
-116.780896999999996
0
LINE
8
BLACK
6
CONTINUOUS
10
120.4357109999999977
20
-118.5904199999999946
11
120.5309489999999926
21
-118.6856590000000011
0
LINE
8
BLACK
6
CONTINUOUS
10
120.5309489999999926
20
-118.6856590000000011
11
120.4357109999999977
21
-118.780896999999996
0
LINE
8
BLACK
6
CONTINUOUS
10
120.4357109999999977
20
-118.780896999999996
11
120.3404729999999887
21
-118.6856590000000011
0
LINE
8
BLACK
6
CONTINUOUS
10
120.3404729999999887
20
-118.6856590000000011
11
120.4357109999999977
21
-118.5904199999999946
0
LINE
8
BLACK
6
CONTINUOUS
10
120.4357109999999977
20
-118.5904199999999946
11
120.4357109999999977
21
-118.780896999999996
0
LINE
8
BLACK
6
CONTINUOUS
10
121.4833299999999952
20
-118.780896999999996
11
121.8642819999999887
21
-118.780896999999996
0
LINE
8
BLACK
6
CONTINUOUS
10
121.8642819999999887
20
-118.780896999999996
11
122.05475899999999
21
-118.6856590000000011
0
LINE
8
BLACK
6
CONTINUOUS
10
122.05475899999999
20
-118.6856590000000011
11
122.149996999999999
21
-118.5904199999999946
0
LINE
8
BLACK
6
CONTINUOUS
10
122.149996999999999
20
-118.5904199999999946
11
122.3404729999999887
21
-118.3047059999999959
0
LINE
8
BLACK
6
CONTINUOUS
10
122.3404729999999887
20
-118.3047059999999959
11
122.4357109999999977
21
-117.9237539999999882
0
LINE
8
BLACK
6
CONTINUOUS
10
122.4357109999999977
20
-117.9237539999999882
11
122.4357109999999977
21
-117.1618489999999895
0
LINE
8
BLACK
6
CONTINUOUS
10
122.4357109999999977
20
-117.1618489999999895
11
122.3404729999999887
21
-116.9713729999999998
0
LINE
8
BLACK
6
CONTINUOUS
10
122.3404729999999887
20
-116.9713729999999998
11
122.2452349999999939
21
-116.8761349999999908
0
LINE
8
BLACK
6
CONTINUOUS
10
122.2452349999999939
20
-116.8761349999999908
11
122.05475899999999
21
-116.780896999999996
0
LINE
8
BLACK
6
CONTINUOUS
10
122.05475899999999
20
-116.780896999999996
11
121.673805999999999
21
-116.780896999999996
0
LINE
8
BLACK
6
CONTINUOUS
10
121.673805999999999
20
-116.780896999999996
11
121.4833299999999952
21
-116.8761349999999908
0
LINE
8
BLACK
6
CONTINUOUS
10
121.4833299999999952
20
-116.8761349999999908
11
121.3880920000000003
21
-116.9713729999999998
0
LINE
8
BLACK
6
CONTINUOUS
10
121.3880920000000003
20
-116.9713729999999998
11
121.2928539999999913
21
-117.1618489999999895
0
LINE
8
BLACK
6
CONTINUOUS
10
121.2928539999999913
20
-117.1618489999999895
11
121.2928539999999913
21
-117.638038999999992
0
LINE
8
BLACK
6
CONTINUOUS
10
121.2928539999999913
20
-117.638038999999992
11
121.3880920000000003
21
-117.8285159999999934
0
LINE
8
BLACK
6
CONTINUOUS
10
121.3880920000000003
20
-117.8285159999999934
11
121.4833299999999952
21
-117.9237539999999882
0
LINE
8
BLACK
6
CONTINUOUS
10
121.4833299999999952
20
-117.9237539999999882
11
121.673805999999999
21
-118.0189919999999972
0
LINE
8
BLACK
6
CONTINUOUS
10
121.673805999999999
20
-118.0189919999999972
11
122.05475899999999
21
-118.0189919999999972
0
LINE
8
BLACK
6
CONTINUOUS
10
122.05475899999999
20
-118.0189919999999972
11
122.2452349999999939
21
-117.9237539999999882
0
LINE
8
BLACK
6
CONTINUOUS
10
122.2452349999999939
20
-117.9237539999999882
11
122.3404729999999887
21
-117.8285159999999934
0
LINE
8
BLACK
6
CONTINUOUS
10
122.3404729999999887
20
-117.8285159999999934
11
122.4357109999999977
21
-117.638038999999992
0
LINE
8
BLACK
6
CONTINUOUS
10
123.673805999999999
20
-116.780896999999996
11
123.8642830000000004
21
-116.780896999999996
0
LINE
8
BLACK
6
CONTINUOUS
10
123.8642830000000004
20
-116.780896999999996
11
124.05475899999999
21
-116.8761349999999908
0
LINE
8
BLACK
6
CONTINUOUS
10
124.05475899999999
20
-116.8761349999999908
11
124.149996999999999
21
-116.9713729999999998
0
LINE
8
BLACK
6
CONTINUOUS
10
124.149996999999999
20
-116.9713729999999998
11
124.2452349999999939
21
-117.1618489999999895
0
LINE
8
BLACK
6
CONTINUOUS
10
124.2452349999999939
20
-117.1618489999999895
11
124.3404729999999887
21
-117.5428009999999972
0
LINE
8
BLACK
6
CONTINUOUS
10
124.3404729999999887
20
-117.5428009999999972
11
124.3404729999999887
21
-118.0189919999999972
0
LINE
8
BLACK
6
CONTINUOUS
10
124.3404729999999887
20
-118.0189919999999972
11
124.2452349999999939
21
-118.3999439999999908
0
LINE
8
BLACK
6
CONTINUOUS
10
124.2452349999999939
20
-118.3999439999999908
11
124.149996999999999
21
-118.5904199999999946
0
LINE
8
BLACK
6
CONTINUOUS
10
124.149996999999999
20
-118.5904199999999946
11
124.05475899999999
21
-118.6856590000000011
0
LINE
8
BLACK
6
CONTINUOUS
10
124.05475899999999
20
-118.6856590000000011
11
123.8642830000000004
21
-118.780896999999996
0
LINE
8
BLACK
6
CONTINUOUS
10
123.8642830000000004
20
-118.780896999999996
11
123.673805999999999
21
-118.780896999999996
0
LINE
8
BLACK
6
CONTINUOUS
10
123.673805999999999
20
-118.780896999999996
11
123.4833299999999952
21
-118.6856590000000011
0
LINE
8
BLACK
6
CONTINUOUS
10
123.4833299999999952
20
-118.6856590000000011
11
123.3880920000000003
21
-118.5904199999999946
0
LINE
8
BLACK
6
CONTINUOUS
10
123.3880920000000003
20
-118.5904199999999946
11
123.2928539999999913
21
-118.3999439999999908
0
LINE
8
BLACK
6
CONTINUOUS
10
123.2928539999999913
20
-118.3999439999999908
11
123.1976159999999965
21
-118.0189919999999972
0
LINE
8
BLACK
6
CONTINUOUS
10
123.1976159999999965
20
-118.0189919999999972
11
123.1976159999999965
21
-117.5428009999999972
0
LINE
8
BLACK
6
CONTINUOUS
10
123.1976159999999965
20
-117.5428009999999972
11
123.2928539999999913
21
-117.1618489999999895
0
LINE
8
BLACK
6
CONTINUOUS
10
123.2928539999999913
20
-117.1618489999999895
11
123.3880920000000003
21
-116.9713729999999998
0
LINE
8
BLACK
6
CONTINUOUS
10
123.3880920000000003
20
-116.9713729999999998
11
123.4833299999999952
21
-116.8761349999999908
0
LINE
8
BLACK
6
CONTINUOUS
10
123.4833299999999952
20
-116.8761349999999908
11
123.673805999999999
21
-116.780896999999996
0
LINE
8
BLACK
6
CONTINUOUS
10
125.57856799999999
20
-116.780896999999996
11
125.7690449999999913
21
-116.780896999999996
0
LINE
8
BLACK
6
CONTINUOUS
10
125.7690449999999913
20
-116.780896999999996
11
125.9595209999999952
21
-116.8761349999999908
0
LINE
8
BLACK
6
CONTINUOUS
10
125.9595209999999952
20
-116.8761349999999908
11
126.05475899999999
21
-116.9713729999999998
0
LINE
8
BLACK
6
CONTINUOUS
10
126.05475899999999
20
-116.9713729999999998
11
126.149996999999999
21
-117.1618489999999895
0
LINE
8
BLACK
6
CONTINUOUS
10
126.149996999999999
20
-117.1618489999999895
11
126.2452349999999939
21
-117.5428009999999972
0
LINE
8
BLACK
6
CONTINUOUS
10
126.2452349999999939
20
-117.5428009999999972
11
126.2452349999999939
21
-118.0189919999999972
0
LINE
8
BLACK
6
CONTINUOUS
10
126.2452349999999939
20
-118.0189919999999972
11
126.149996999999999
21
-118.3999439999999908
0
LINE
8
BLACK
6
CONTINUOUS
10
126.149996999999999
20
-118.3999439999999908
11
126.05475899999999
21
-118.5904199999999946
0
LINE
8
BLACK
6
CONTINUOUS
10
126.05475899999999
20
-118.5904199999999946
11
125.9595209999999952
21
-118.6856590000000011
0
LINE
8
BLACK
6
CONTINUOUS
10
125.9595209999999952
20
-118.6856590000000011
11
125.7690449999999913
21
-118.780896999999996
0
LINE
8
BLACK
6
CONTINUOUS
10
125.7690449999999913
20
-118.780896999999996
11
125.57856799999999
21
-118.780896999999996
0
LINE
8
BLACK
6
CONTINUOUS
10
125.57856799999999
20
-118.780896999999996
11
125.3880920000000003
21
-118.6856590000000011
0
LINE
8
BLACK
6
CONTINUOUS
10
125.3880920000000003
20
-118.6856590000000011
11
125.2928539999999913
21
-118.5904199999999946
0
LINE
8
BLACK
6
CONTINUOUS
10
125.2928539999999913
20
-118.5904199999999946
11
125.1976159999999965
21
-118.3999439999999908
0
LINE
8
BLACK
6
CONTINUOUS
10
125.1976159999999965
20
-118.3999439999999908
11
125.1023779999999874
21
-118.0189919999999972
0
LINE
8
BLACK
6
CONTINUOUS
10
125.1023779999999874
20
-118.0189919999999972
11
125.1023779999999874
21
-117.5428009999999972
0
LINE
8
BLACK
6
CONTINUOUS
10
125.1023779999999874
20
-117.5428009999999972
11
125.1976159999999965
21
-117.1618489999999895
0
LINE
8
BLACK
6
CONTINUOUS
10
125.1976159999999965
20
-117.1618489999999895
11
125.2928539999999913
21
-116.9713729999999998
0
LINE
8
BLACK
6
CONTINUOUS
10
125.2928539999999913
20
-116.9713729999999998
11
125.3880920000000003
21
-116.8761349999999908
0
LINE
8
BLACK
6
CONTINUOUS
10
125.3880920000000003
20
-116.8761349999999908
11
125.57856799999999
21
-116.780896999999996
0
LINE
8
BLACK
6
CONTINUOUS
10
127.1023779999999874
20
-118.780896999999996
11
127.1023779999999874
21
-117.4475629999999882
0
LINE
8
BLACK
6
CONTINUOUS
10
127.1023779999999874
20
-117.638038999999992
11
127.1976159999999965
21
-117.5428009999999972
0
LINE
8
BLACK
6
CONTINUOUS
10
127.1976159999999965
20
-117.5428009999999972
11
127.3880920000000003
21
-117.4475629999999882
0
LINE
8
BLACK
6
CONTINUOUS
10
127.3880920000000003
20
-117.4475629999999882
11
127.6738069999999965
21
-117.4475629999999882
0
LINE
8
BLACK
6
CONTINUOUS
10
127.6738069999999965
20
-117.4475629999999882
11
127.8642830000000004
21
-117.5428009999999972
0
LINE
8
BLACK
6
CONTINUOUS
10
127.8642830000000004
20
-117.5428009999999972
11
127.9595209999999952
21
-117.7332779999999985
0
LINE
8
BLACK
6
CONTINUOUS
10
127.9595209999999952
20
-117.7332779999999985
11
127.9595209999999952
21
-118.780896999999996
0
LINE
8
BLACK
6
CONTINUOUS
10
127.9595209999999952
20
-117.7332779999999985
11
128.05475899999999
21
-117.5428009999999972
0
LINE
8
BLACK
6
CONTINUOUS
10
128.05475899999999
20
-117.5428009999999972
11
128.2452350000000081
21
-117.4475629999999882
0
LINE
8
BLACK
6
CONTINUOUS
10
128.2452350000000081
20
-117.4475629999999882
11
128.5309489999999926
21
-117.4475629999999882
0
LINE
8
BLACK
6
CONTINUOUS
10
128.5309489999999926
20
-117.4475629999999882
11
128.7214260000000081
21
-117.5428009999999972
0
LINE
8
BLACK
6
CONTINUOUS
10
128.7214260000000081
20
-117.5428009999999972
11
128.8166640000000029
21
-117.7332779999999985
0
LINE
8
BLACK
6
CONTINUOUS
10
128.8166640000000029
20
-117.7332779999999985
11
128.8166640000000029
21
-118.780896999999996
0
LINE
8
BLACK
6
CONTINUOUS
10
129.7690450000000055
20
-118.780896999999996
11
129.7690450000000055
21
-117.4475629999999882
0
LINE
8
BLACK
6
CONTINUOUS
10
129.7690450000000055
20
-117.638038999999992
11
129.8642830000000004
21
-117.5428009999999972
0
LINE
8
BLACK
6
CONTINUOUS
10
129.8642830000000004
20
-117.5428009999999972
11
130.05475899999999
21
-117.4475629999999882
0
LINE
8
BLACK
6
CONTINUOUS
10
130.05475899999999
20
-117.4475629999999882
11
130.3404740000000004
21
-117.4475629999999882
0
LINE
8
BLACK
6
CONTINUOUS
10
130.3404740000000004
20
-117.4475629999999882
11
130.53094999999999
21
-117.5428009999999972
0
LINE
8
BLACK
6
CONTINUOUS
10
130.53094999999999
20
-117.5428009999999972
11
130.6261879999999849
21
-117.7332779999999985
0
LINE
8
BLACK
6
CONTINUOUS
10
130.6261879999999849
20
-117.7332779999999985
11
130.6261879999999849
21
-118.780896999999996
0
LINE
8
BLACK
6
CONTINUOUS
10
130.6261879999999849
20
-117.7332779999999985
11
130.7214260000000081
21
-117.5428009999999972
0
LINE
8
BLACK
6
CONTINUOUS
10
130.7214260000000081
20
-117.5428009999999972
11
130.9119019999999978
21
-117.4475629999999882
0
LINE
8
BLACK
6
CONTINUOUS
10
130.9119019999999978
20
-117.4475629999999882
11
131.1976159999999823
21
-117.4475629999999882
0
LINE
8
BLACK
6
CONTINUOUS
10
131.1976159999999823
20
-117.4475629999999882
11
131.3880929999999978
21
-117.5428009999999972
0
LINE
8
BLACK
6
CONTINUOUS
10
131.3880929999999978
20
-117.5428009999999972
11
131.4833309999999926
21
-117.7332779999999985
0
LINE
8
BLACK
6
CONTINUOUS
10
131.4833309999999926
20
-117.7332779999999985
11
131.4833309999999926
21
-118.780896999999996
0
LINE
8
BLACK
6
CONTINUOUS
10
135.3880929999999978
20
-116.6856590000000011
11
133.6738079999999798
21
-119.2570869999999985
0
LINE
8
BLACK
6
CONTINUOUS
10
137.9595219999999927
20
-116.780896999999996
11
138.1499989999999798
21
-116.780896999999996
0
LINE
8
BLACK
6
CONTINUOUS
10
138.1499989999999798
20
-116.780896999999996
11
138.3404749999999979
21
-116.8761349999999908
0
LINE
8
BLACK
6
CONTINUOUS
10
138.3404749999999979
20
-116.8761349999999908
11
138.4357129999999927
21
-116.9713729999999998
0
LINE
8
BLACK
6
CONTINUOUS
10
138.4357129999999927
20
-116.9713729999999998
11
138.5309509999999875
21
-117.1618489999999895
0
LINE
8
BLACK
6
CONTINUOUS
10
138.5309509999999875
20
-117.1618489999999895
11
138.6261889999999823
21
-117.5428009999999972
0
LINE
8
BLACK
6
CONTINUOUS
10
138.6261889999999823
20
-117.5428009999999972
11
138.6261889999999823
21
-118.0189919999999972
0
LINE
8
BLACK
6
CONTINUOUS
10
138.6261889999999823
20
-118.0189919999999972
11
138.5309509999999875
21
-118.3999439999999908
0
LINE
8
BLACK
6
CONTINUOUS
10
138.5309509999999875
20
-118.3999439999999908
11
138.4357129999999927
21
-118.5904199999999946
0
LINE
8
BLACK
6
CONTINUOUS
10
138.4357129999999927
20
-118.5904199999999946
11
138.3404749999999979
21
-118.6856590000000011
0
LINE
8
BLACK
6
CONTINUOUS
10
138.3404749999999979
20
-118.6856590000000011
11
138.1499989999999798
21
-118.780896999999996
0
LINE
8
BLACK
6
CONTINUOUS
10
138.1499989999999798
20
-118.780896999999996
11
137.9595219999999927
21
-118.780896999999996
0
LINE
8
BLACK
6
CONTINUOUS
10
137.9595219999999927
20
-118.780896999999996
11
137.769046000000003
21
-118.6856590000000011
0
LINE
8
BLACK
6
CONTINUOUS
10
137.769046000000003
20
-118.6856590000000011
11
137.6738079999999798
21
-118.5904199999999946
0
LINE
8
BLACK
6
CONTINUOUS
10
137.6738079999999798
20
-118.5904199999999946
11
137.5785699999999849
21
-118.3999439999999908
0
LINE
8
BLACK
6
CONTINUOUS
10
137.5785699999999849
20
-118.3999439999999908
11
137.4833319999999901
21
-118.0189919999999972
0
LINE
8
BLACK
6
CONTINUOUS
10
137.4833319999999901
20
-118.0189919999999972
11
137.4833319999999901
21
-117.5428009999999972
0
LINE
8
BLACK
6
CONTINUOUS
10
137.4833319999999901
20
-117.5428009999999972
11
137.5785699999999849
21
-117.1618489999999895
0
LINE
8
BLACK
6
CONTINUOUS
10
137.5785699999999849
20
-117.1618489999999895
11
137.6738079999999798
21
-116.9713729999999998
0
LINE
8
BLACK
6
CONTINUOUS
10
137.6738079999999798
20
-116.9713729999999998
11
137.769046000000003
21
-116.8761349999999908
0
LINE
8
BLACK
6
CONTINUOUS
10
137.769046000000003
20
-116.8761349999999908
11
137.9595219999999927
21
-116.780896999999996
0
LINE
8
BLACK
6
CONTINUOUS
10
139.4833319999999901
20
-118.5904199999999946
11
139.5785699999999849
21
-118.6856590000000011
0
LINE
8
BLACK
6
CONTINUOUS
10
139.5785699999999849
20
-118.6856590000000011
11
139.4833319999999901
21
-118.780896999999996
0
LINE
8
BLACK
6
CONTINUOUS
10
139.4833319999999901
20
-118.780896999999996
11
139.3880939999999953
21
-118.6856590000000011
0
LINE
8
BLACK
6
CONTINUOUS
10
139.3880939999999953
20
-118.6856590000000011
11
139.4833319999999901
21
-118.5904199999999946
0
LINE
8
BLACK
6
CONTINUOUS
10
139.4833319999999901
20
-118.5904199999999946
11
139.4833319999999901
21
-118.780896999999996
0
LINE
8
BLACK
6
CONTINUOUS
10
140.8166650000000004
20
-116.780896999999996
11
141.0071419999999875
21
-116.780896999999996
0
LINE
8
BLACK
6
CONTINUOUS
10
141.0071419999999875
20
-116.780896999999996
11
141.1976180000000056
21
-116.8761349999999908
0
LINE
8
BLACK
6
CONTINUOUS
10
141.1976180000000056
20
-116.8761349999999908
11
141.2928560000000004
21
-116.9713729999999998
0
LINE
8
BLACK
6
CONTINUOUS
10
141.2928560000000004
20
-116.9713729999999998
11
141.3880939999999953
21
-117.1618489999999895
0
LINE
8
BLACK
6
CONTINUOUS
10
141.3880939999999953
20
-117.1618489999999895
11
141.4833319999999901
21
-117.5428009999999972
0
LINE
8
BLACK
6
CONTINUOUS
10
141.4833319999999901
20
-117.5428009999999972
11
141.4833319999999901
21
-118.0189919999999972
0
LINE
8
BLACK
6
CONTINUOUS
10
141.4833319999999901
20
-118.0189919999999972
11
141.3880939999999953
21
-118.3999439999999908
0
LINE
8
BLACK
6
CONTINUOUS
10
141.3880939999999953
20
-118.3999439999999908
11
141.2928560000000004
21
-118.5904199999999946
0
LINE
8
BLACK
6
CONTINUOUS
10
141.2928560000000004
20
-118.5904199999999946
11
141.1976180000000056
21
-118.6856590000000011
0
LINE
8
BLACK
6
CONTINUOUS
10
141.1976180000000056
20
-118.6856590000000011
11
141.0071419999999875
21
-118.780896999999996
0
LINE
8
BLACK
6
CONTINUOUS
10
141.0071419999999875
20
-118.780896999999996
11
140.8166650000000004
21
-118.780896999999996
0
LINE
8
BLACK
6
CONTINUOUS
10
140.8166650000000004
20
-118.780896999999996
11
140.6261889999999823
21
-118.6856590000000011
0
LINE
8
BLACK
6
CONTINUOUS
10
140.6261889999999823
20
-118.6856590000000011
11
140.5309509999999875
21
-118.5904199999999946
0
LINE
8
BLACK
6
CONTINUOUS
10
140.5309509999999875
20
-118.5904199999999946
11
140.4357129999999927
21
-118.3999439999999908
0
LINE
8
BLACK
6
CONTINUOUS
10
140.4357129999999927
20
-118.3999439999999908
11
140.3404749999999979
21
-118.0189919999999972
0
LINE
8
BLACK
6
CONTINUOUS
10
140.3404749999999979
20
-118.0189919999999972
11
140.3404749999999979
21
-117.5428009999999972
0
LINE
8
BLACK
6
CONTINUOUS
10
140.3404749999999979
20
-117.5428009999999972
11
140.4357129999999927
21
-117.1618489999999895
0
LINE
8
BLACK
6
CONTINUOUS
10
140.4357129999999927
20
-117.1618489999999895
11
140.5309509999999875
21
-116.9713729999999998
0
LINE
8
BLACK
6
CONTINUOUS
10
140.5309509999999875
20
-116.9713729999999998
11
140.6261889999999823
21
-116.8761349999999908
0
LINE
8
BLACK
6
CONTINUOUS
10
140.6261889999999823
20
-116.8761349999999908
11
140.8166650000000004
21
-116.780896999999996
0
LINE
8
BLACK
6
CONTINUOUS
10
142.1499989999999798
20
-116.780896999999996
11
143.3880939999999953
21
-116.780896999999996
0
LINE
8
BLACK
6
CONTINUOUS
10
143.3880939999999953
20
-116.780896999999996
11
142.7214270000000056
21
-117.5428009999999972
0
LINE
8
BLACK
6
CONTINUOUS
10
142.7214270000000056
20
-117.5428009999999972
11
143.0071419999999875
21
-117.5428009999999972
0
LINE
8
BLACK
6
CONTINUOUS
10
143.0071419999999875
20
-117.5428009999999972
11
143.1976180000000056
21
-117.638038999999992
0
LINE
8
BLACK
6
CONTINUOUS
10
143.1976180000000056
20
-117.638038999999992
11
143.2928560000000004
21
-117.7332779999999985
0
LINE
8
BLACK
6
CONTINUOUS
10
143.2928560000000004
20
-117.7332779999999985
11
143.3880939999999953
21
-117.9237539999999882
0
LINE
8
BLACK
6
CONTINUOUS
10
143.3880939999999953
20
-117.9237539999999882
11
143.3880939999999953
21
-118.3999439999999908
0
LINE
8
BLACK
6
CONTINUOUS
10
143.3880939999999953
20
-118.3999439999999908
11
143.2928560000000004
21
-118.5904199999999946
0
LINE
8
BLACK
6
CONTINUOUS
10
143.2928560000000004
20
-118.5904199999999946
11
143.1976180000000056
21
-118.6856590000000011
0
LINE
8
BLACK
6
CONTINUOUS
10
143.1976180000000056
20
-118.6856590000000011
11
143.0071419999999875
21
-118.780896999999996
0
LINE
8
BLACK
6
CONTINUOUS
10
143.0071419999999875
20
-118.780896999999996
11
142.4357129999999927
21
-118.780896999999996
0
LINE
8
BLACK
6
CONTINUOUS
10
142.4357129999999927
20
-118.780896999999996
11
142.245237000000003
21
-118.6856590000000011
0
LINE
8
BLACK
6
CONTINUOUS
10
142.245237000000003
20
-118.6856590000000011
11
142.1499989999999798
21
-118.5904199999999946
0
LINE
8
BLACK
6
CONTINUOUS
10
145.1976180000000056
20
-116.780896999999996
11
144.245237000000003
21
-116.780896999999996
0
LINE
8
BLACK
6
CONTINUOUS
10
144.245237000000003
20
-116.780896999999996
11
144.1499989999999798
21
-117.7332779999999985
0
LINE
8
BLACK
6
CONTINUOUS
10
144.1499989999999798
20
-117.7332779999999985
11
144.245237000000003
21
-117.638038999999992
0
LINE
8
BLACK
6
CONTINUOUS
10
144.245237000000003
20
-117.638038999999992
11
144.4357129999999927
21
-117.5428009999999972
0
LINE
8
BLACK
6
CONTINUOUS
10
144.4357129999999927
20
-117.5428009999999972
11
144.9119039999999927
21
-117.5428009999999972
0
LINE
8
BLACK
6
CONTINUOUS
10
144.9119039999999927
20
-117.5428009999999972
11
145.1023799999999824
21
-117.638038999999992
0
LINE
8
BLACK
6
CONTINUOUS
10
145.1023799999999824
20
-117.638038999999992
11
145.1976180000000056
21
-117.7332779999999985
0
LINE
8
BLACK
6
CONTINUOUS
10
145.1976180000000056
20
-117.7332779999999985
11
145.2928560000000004
21
-117.9237539999999882
0
LINE
8
BLACK
6
CONTINUOUS
10
145.2928560000000004
20
-117.9237539999999882
11
145.2928560000000004
21
-118.3999439999999908
0
LINE
8
BLACK
6
CONTINUOUS
10
145.2928560000000004
20
-118.3999439999999908
11
145.1976180000000056
21
-118.5904199999999946
0
LINE
8
BLACK
6
CONTINUOUS
10
145.1976180000000056
20
-118.5904199999999946
11
145.1023799999999824
21
-118.6856590000000011
0
LINE
8
BLACK
6
CONTINUOUS
10
145.1023799999999824
20
-118.6856590000000011
11
144.9119039999999927
21
-118.780896999999996
0
LINE
8
BLACK
6
CONTINUOUS
10
144.9119039999999927
20
-118.780896999999996
11
144.4357129999999927
21
-118.780896999999996
0
LINE
8
BLACK
6
CONTINUOUS
10
144.4357129999999927
20
-118.780896999999996
11
144.245237000000003
21
-118.6856590000000011
0
LINE
8
BLACK
6
CONTINUOUS
10
144.245237000000003
20
-118.6856590000000011
11
144.1499989999999798
21
-118.5904199999999946
0
LINE
8
BLACK
6
CONTINUOUS
10
147.0071419999999875
20
-117.4475629999999882
11
147.0071419999999875
21
-118.780896999999996
0
LINE
8
BLACK
6
CONTINUOUS
10
146.5309509999999875
20
-116.6856590000000011
11
146.054760999999985
21
-118.1142299999999921
0
LINE
8
BLACK
6
CONTINUOUS
10
146.054760999999985
20
-118.1142299999999921
11
147.2928560000000004
21
-118.1142299999999921
0
LINE
8
BLACK
6
CONTINUOUS
10
147.9595229999999901
20
-116.780896999999996
11
147.9595229999999901
21
-117.1618489999999895
0
LINE
8
BLACK
6
CONTINUOUS
10
148.7214280000000031
20
-116.780896999999996
11
148.7214280000000031
21
-117.1618489999999895
0
LINE
8
BLACK
6
CONTINUOUS
10
151.6738100000000031
20
-119.5428009999999972
11
151.5785709999999824
21
-119.4475629999999882
0
LINE
8
BLACK
6
CONTINUOUS
10
151.5785709999999824
20
-119.4475629999999882
11
151.3880949999999928
21
-119.1618489999999895
0
LINE
8
BLACK
6
CONTINUOUS
10
151.3880949999999928
20
-119.1618489999999895
11
151.2928569999999979
21
-118.9713729999999998
0
LINE
8
BLACK
6
CONTINUOUS
10
151.2928569999999979
20
-118.9713729999999998
11
151.1976190000000031
21
-118.6856590000000011
0
LINE
8
BLACK
6
CONTINUOUS
10
151.1976190000000031
20
-118.6856590000000011
11
151.1023809999999798
21
-118.2094680000000011
0
LINE
8
BLACK
6
CONTINUOUS
10
151.1023809999999798
20
-118.2094680000000011
11
151.1023809999999798
21
-117.8285159999999934
0
LINE
8
BLACK
6
CONTINUOUS
10
151.1023809999999798
20
-117.8285159999999934
11
151.1976190000000031
21
-117.3523249999999933
0
LINE
8
BLACK
6
CONTINUOUS
10
151.1976190000000031
20
-117.3523249999999933
11
151.2928569999999979
21
-117.0666109999999946
0
LINE
8
BLACK
6
CONTINUOUS
10
151.2928569999999979
20
-117.0666109999999946
11
151.3880949999999928
21
-116.8761349999999908
0
LINE
8
BLACK
6
CONTINUOUS
10
151.3880949999999928
20
-116.8761349999999908
11
151.5785709999999824
21
-116.5904199999999946
0
LINE
8
BLACK
6
CONTINUOUS
10
151.5785709999999824
20
-116.5904199999999946
11
151.6738100000000031
21
-116.4951819999999998
0
LINE
8
BLACK
6
CONTINUOUS
10
153.4833329999999876
20
-118.780896999999996
11
152.3404759999999953
21
-118.780896999999996
0
LINE
8
BLACK
6
CONTINUOUS
10
152.9119039999999927
20
-118.780896999999996
11
152.9119039999999927
21
-116.780896999999996
0
LINE
8
BLACK
6
CONTINUOUS
10
152.9119039999999927
20
-116.780896999999996
11
152.7214280000000031
21
-117.0666109999999946
0
LINE
8
BLACK
6
CONTINUOUS
10
152.7214280000000031
20
-117.0666109999999946
11
152.530951999999985
21
-117.2570869999999985
0
LINE
8
BLACK
6
CONTINUOUS
10
152.530951999999985
20
-117.2570869999999985
11
152.3404759999999953
21
-117.3523249999999933
0
LINE
8
BLACK
6
CONTINUOUS
10
154.2452380000000005
20
-116.9713729999999998
11
154.3404759999999953
21
-116.8761349999999908
0
LINE
8
BLACK
6
CONTINUOUS
10
154.3404759999999953
20
-116.8761349999999908
11
154.530951999999985
21
-116.780896999999996
0
LINE
8
BLACK
6
CONTINUOUS
10
154.530951999999985
20
-116.780896999999996
11
155.007142999999985
21
-116.780896999999996
0
LINE
8
BLACK
6
CONTINUOUS
10
155.007142999999985
20
-116.780896999999996
11
155.1976190000000031
21
-116.8761349999999908
0
LINE
8
BLACK
6
CONTINUOUS
10
155.1976190000000031
20
-116.8761349999999908
11
155.2928569999999979
21
-116.9713729999999998
0
LINE
8
BLACK
6
CONTINUOUS
10
155.2928569999999979
20
-116.9713729999999998
11
155.3880949999999928
21
-117.1618489999999895
0
LINE
8
BLACK
6
CONTINUOUS
10
155.3880949999999928
20
-117.1618489999999895
11
155.3880949999999928
21
-117.3523249999999933
0
LINE
8
BLACK
6
CONTINUOUS
10
155.3880949999999928
20
-117.3523249999999933
11
155.2928569999999979
21
-117.638038999999992
0
LINE
8
BLACK
6
CONTINUOUS
10
155.2928569999999979
20
-117.638038999999992
11
154.1500000000000057
21
-118.780896999999996
0
LINE
8
BLACK
6
CONTINUOUS
10
154.1500000000000057
20
-118.780896999999996
11
155.3880949999999928
21
-118.780896999999996
0
LINE
8
BLACK
6
CONTINUOUS
10
157.769047999999998
20
-118.780896999999996
11
157.769047999999998
21
-116.780896999999996
0
LINE
8
BLACK
6
CONTINUOUS
10
158.6261910000000057
20
-118.780896999999996
11
158.6261910000000057
21
-117.7332779999999985
0
LINE
8
BLACK
6
CONTINUOUS
10
158.6261910000000057
20
-117.7332779999999985
11
158.5309529999999825
21
-117.5428009999999972
0
LINE
8
BLACK
6
CONTINUOUS
10
158.5309529999999825
20
-117.5428009999999972
11
158.3404769999999928
21
-117.4475629999999882
0
LINE
8
BLACK
6
CONTINUOUS
10
158.3404769999999928
20
-117.4475629999999882
11
158.0547619999999824
21
-117.4475629999999882
0
LINE
8
BLACK
6
CONTINUOUS
10
158.0547619999999824
20
-117.4475629999999882
11
157.8642859999999928
21
-117.5428009999999972
0
LINE
8
BLACK
6
CONTINUOUS
10
157.8642859999999928
20
-117.5428009999999972
11
157.769047999999998
21
-117.638038999999992
0
LINE
8
BLACK
6
CONTINUOUS
10
159.8642859999999928
20
-118.780896999999996
11
159.6738100000000031
21
-118.6856590000000011
0
LINE
8
BLACK
6
CONTINUOUS
10
159.6738100000000031
20
-118.6856590000000011
11
159.5785719999999799
21
-118.5904199999999946
0
LINE
8
BLACK
6
CONTINUOUS
10
159.5785719999999799
20
-118.5904199999999946
11
159.4833339999999851
21
-118.3999439999999908
0
LINE
8
BLACK
6
CONTINUOUS
10
159.4833339999999851
20
-118.3999439999999908
11
159.4833339999999851
21
-117.8285159999999934
0
LINE
8
BLACK
6
CONTINUOUS
10
159.4833339999999851
20
-117.8285159999999934
11
159.5785719999999799
21
-117.638038999999992
0
LINE
8
BLACK
6
CONTINUOUS
10
159.5785719999999799
20
-117.638038999999992
11
159.6738100000000031
21
-117.5428009999999972
0
LINE
8
BLACK
6
CONTINUOUS
10
159.6738100000000031
20
-117.5428009999999972
11
159.8642859999999928
21
-117.4475629999999882
0
LINE
8
BLACK
6
CONTINUOUS
10
159.8642859999999928
20
-117.4475629999999882
11
160.1500010000000032
21
-117.4475629999999882
0
LINE
8
BLACK
6
CONTINUOUS
10
160.1500010000000032
20
-117.4475629999999882
11
160.3404769999999928
21
-117.5428009999999972
0
LINE
8
BLACK
6
CONTINUOUS
10
160.3404769999999928
20
-117.5428009999999972
11
160.4357149999999876
21
-117.638038999999992
0
LINE
8
BLACK
6
CONTINUOUS
10
160.4357149999999876
20
-117.638038999999992
11
160.5309529999999825
21
-117.8285159999999934
0
LINE
8
BLACK
6
CONTINUOUS
10
160.5309529999999825
20
-117.8285159999999934
11
160.5309529999999825
21
-118.3999439999999908
0
LINE
8
BLACK
6
CONTINUOUS
10
160.5309529999999825
20
-118.3999439999999908
11
160.4357149999999876
21
-118.5904199999999946
0
LINE
8
BLACK
6
CONTINUOUS
10
160.4357149999999876
20
-118.5904199999999946
11
160.3404769999999928
21
-118.6856590000000011
0
LINE
8
BLACK
6
CONTINUOUS
10
160.3404769999999928
20
-118.6856590000000011
11
160.1500010000000032
21
-118.780896999999996
0
LINE
8
BLACK
6
CONTINUOUS
10
160.1500010000000032
20
-118.780896999999996
11
159.8642859999999928
21
-118.780896999999996
0
LINE
8
BLACK
6
CONTINUOUS
10
161.6738100000000031
20
-118.780896999999996
11
161.4833339999999851
21
-118.6856590000000011
0
LINE
8
BLACK
6
CONTINUOUS
10
161.4833339999999851
20
-118.6856590000000011
11
161.3880959999999902
21
-118.4951819999999998
0
LINE
8
BLACK
6
CONTINUOUS
10
161.3880959999999902
20
-118.4951819999999998
11
161.3880959999999902
21
-116.780896999999996
0
LINE
8
BLACK
6
CONTINUOUS
10
163.1976200000000006
20
-118.6856590000000011
11
163.0071439999999825
21
-118.780896999999996
0
LINE
8
BLACK
6
CONTINUOUS
10
163.0071439999999825
20
-118.780896999999996
11
162.6261910000000057
21
-118.780896999999996
0
LINE
8
BLACK
6
CONTINUOUS
10
162.6261910000000057
20
-118.780896999999996
11
162.4357149999999876
21
-118.6856590000000011
0
LINE
8
BLACK
6
CONTINUOUS
10
162.4357149999999876
20
-118.6856590000000011
11
162.3404769999999928
21
-118.4951819999999998
0
LINE
8
BLACK
6
CONTINUOUS
10
162.3404769999999928
20
-118.4951819999999998
11
162.3404769999999928
21
-117.7332779999999985
0
LINE
8
BLACK
6
CONTINUOUS
10
162.3404769999999928
20
-117.7332779999999985
11
162.4357149999999876
21
-117.5428009999999972
0
LINE
8
BLACK
6
CONTINUOUS
10
162.4357149999999876
20
-117.5428009999999972
11
162.6261910000000057
21
-117.4475629999999882
0
LINE
8
BLACK
6
CONTINUOUS
10
162.6261910000000057
20
-117.4475629999999882
11
163.0071439999999825
21
-117.4475629999999882
0
LINE
8
BLACK
6
CONTINUOUS
10
163.0071439999999825
20
-117.4475629999999882
11
163.1976200000000006
21
-117.5428009999999972
0
LINE
8
BLACK
6
CONTINUOUS
10
163.1976200000000006
20
-117.5428009999999972
11
163.2928579999999954
21
-117.7332779999999985
0
LINE
8
BLACK
6
CONTINUOUS
10
163.2928579999999954
20
-117.7332779999999985
11
163.2928579999999954
21
-117.9237539999999882
0
LINE
8
BLACK
6
CONTINUOUS
10
163.2928579999999954
20
-117.9237539999999882
11
162.3404769999999928
21
-118.1142299999999921
0
LINE
8
BLACK
6
CONTINUOUS
10
164.0547629999999799
20
-118.6856590000000011
11
164.245238999999998
21
-118.780896999999996
0
LINE
8
BLACK
6
CONTINUOUS
10
164.245238999999998
20
-118.780896999999996
11
164.6261910000000057
21
-118.780896999999996
0
LINE
8
BLACK
6
CONTINUOUS
10
164.6261910000000057
20
-118.780896999999996
11
164.8166679999999928
21
-118.6856590000000011
0
LINE
8
BLACK
6
CONTINUOUS
10
164.8166679999999928
20
-118.6856590000000011
11
164.9119059999999877
21
-118.4951819999999998
0
LINE
8
BLACK
6
CONTINUOUS
10
164.9119059999999877
20
-118.4951819999999998
11
164.9119059999999877
21
-118.3999439999999908
0
LINE
8
BLACK
6
CONTINUOUS
10
164.9119059999999877
20
-118.3999439999999908
11
164.8166679999999928
21
-118.2094680000000011
0
LINE
8
BLACK
6
CONTINUOUS
10
164.8166679999999928
20
-118.2094680000000011
11
164.6261910000000057
21
-118.1142299999999921
0
LINE
8
BLACK
6
CONTINUOUS
10
164.6261910000000057
20
-118.1142299999999921
11
164.3404769999999928
21
-118.1142299999999921
0
LINE
8
BLACK
6
CONTINUOUS
10
164.3404769999999928
20
-118.1142299999999921
11
164.1500010000000032
21
-118.0189919999999972
0
LINE
8
BLACK
6
CONTINUOUS
10
164.1500010000000032
20
-118.0189919999999972
11
164.0547629999999799
21
-117.8285159999999934
0
LINE
8
BLACK
6
CONTINUOUS
10
164.0547629999999799
20
-117.8285159999999934
11
164.0547629999999799
21
-117.7332779999999985
0
LINE
8
BLACK
6
CONTINUOUS
10
164.0547629999999799
20
-117.7332779999999985
11
164.1500010000000032
21
-117.5428009999999972
0
LINE
8
BLACK
6
CONTINUOUS
10
164.1500010000000032
20
-117.5428009999999972
11
164.3404769999999928
21
-117.4475629999999882
0
LINE
8
BLACK
6
CONTINUOUS
10
164.3404769999999928
20
-117.4475629999999882
11
164.6261910000000057
21
-117.4475629999999882
0
LINE
8
BLACK
6
CONTINUOUS
10
164.6261910000000057
20
-117.4475629999999882
11
164.8166679999999928
21
-117.5428009999999972
0
LINE
8
BLACK
6
CONTINUOUS
10
165.5785730000000058
20
-119.5428009999999972
11
165.6738110000000006
21
-119.4475629999999882
0
LINE
8
BLACK
6
CONTINUOUS
10
165.6738110000000006
20
-119.4475629999999882
11
165.8642869999999903
21
-119.1618489999999895
0
LINE
8
BLACK
6
CONTINUOUS
10
165.8642869999999903
20
-119.1618489999999895
11
165.9595249999999851
21
-118.9713729999999998
0
LINE
8
BLACK
6
CONTINUOUS
10
165.9595249999999851
20
-118.9713729999999998
11
166.0547629999999799
21
-118.6856590000000011
0
LINE
8
BLACK
6
CONTINUOUS
10
166.0547629999999799
20
-118.6856590000000011
11
166.1500010000000032
21
-118.2094680000000011
0
LINE
8
BLACK
6
CONTINUOUS
10
166.1500010000000032
20
-118.2094680000000011
11
166.1500010000000032
21
-117.8285159999999934
0
LINE
8
BLACK
6
CONTINUOUS
10
166.1500010000000032
20
-117.8285159999999934
11
166.0547629999999799
21
-117.3523249999999933
0
LINE
8
BLACK
6
CONTINUOUS
10
166.0547629999999799
20
-117.3523249999999933
11
165.9595249999999851
21
-117.0666109999999946
0
LINE
8
BLACK
6
CONTINUOUS
10
165.9595249999999851
20
-117.0666109999999946
11
165.8642869999999903
21
-116.8761349999999908
0
LINE
8
BLACK
6
CONTINUOUS
10
165.8642869999999903
20
-116.8761349999999908
11
165.6738110000000006
21
-116.5904199999999946
0
LINE
8
BLACK
6
CONTINUOUS
10
165.6738110000000006
20
-116.5904199999999946
11
165.5785730000000058
21
-116.4951819999999998
0
LINE
8
BLACK
6
CONTINUOUS
10
115.7767379999999946
20
-120.8596159999999884
11
115.7767379999999946
21
-120.1525019999999984
0
LINE
8
BLACK
6
CONTINUOUS
10
115.7767379999999946
20
-120.1525019999999984
11
115.0696239999999904
21
-120.1525019999999984
0
LINE
8
BLACK
6
CONTINUOUS
10
115.0696239999999904
20
-120.1525019999999984
11
115.0696239999999904
21
-120.8596159999999884
0
LINE
8
BLACK
6
CONTINUOUS
10
115.0696239999999904
20
-120.8596159999999884
11
115.7767379999999946
21
-120.8596159999999884
0
LINE
8
BLACK
6
CONTINUOUS
10
119.57856799999999
20
-121.4208969999999965
11
118.4357109999999977
21
-121.4208969999999965
0
LINE
8
BLACK
6
CONTINUOUS
10
119.0071389999999951
20
-121.4208969999999965
11
119.0071389999999951
21
-119.4208969999999965
0
LINE
8
BLACK
6
CONTINUOUS
10
119.0071389999999951
20
-119.4208969999999965
11
118.8166629999999913
21
-119.7066109999999952
0
LINE
8
BLACK
6
CONTINUOUS
10
118.8166629999999913
20
-119.7066109999999952
11
118.6261870000000016
21
-119.8970869999999991
0
LINE
8
BLACK
6
CONTINUOUS
10
118.6261870000000016
20
-119.8970869999999991
11
118.4357109999999977
21
-119.9923249999999939
0
LINE
8
BLACK
6
CONTINUOUS
10
120.4357109999999977
20
-121.2304199999999952
11
120.5309489999999926
21
-121.3256589999999875
0
LINE
8
BLACK
6
CONTINUOUS
10
120.5309489999999926
20
-121.3256589999999875
11
120.4357109999999977
21
-121.4208969999999965
0
LINE
8
BLACK
6
CONTINUOUS
10
120.4357109999999977
20
-121.4208969999999965
11
120.3404729999999887
21
-121.3256589999999875
0
LINE
8
BLACK
6
CONTINUOUS
10
120.3404729999999887
20
-121.3256589999999875
11
120.4357109999999977
21
-121.2304199999999952
0
LINE
8
BLACK
6
CONTINUOUS
10
120.4357109999999977
20
-121.2304199999999952
11
120.4357109999999977
21
-121.4208969999999965
0
LINE
8
BLACK
6
CONTINUOUS
10
121.7690439999999938
20
-119.4208969999999965
11
121.9595209999999952
21
-119.4208969999999965
0
LINE
8
BLACK
6
CONTINUOUS
10
121.9595209999999952
20
-119.4208969999999965
11
122.149996999999999
21
-119.5161349999999914
0
LINE
8
BLACK
6
CONTINUOUS
10
122.149996999999999
20
-119.5161349999999914
11
122.2452349999999939
21
-119.6113730000000004
0
LINE
8
BLACK
6
CONTINUOUS
10
122.2452349999999939
20
-119.6113730000000004
11
122.3404729999999887
21
-119.80184899999999
0
LINE
8
BLACK
6
CONTINUOUS
10
122.3404729999999887
20
-119.80184899999999
11
122.4357109999999977
21
-120.1828009999999978
0
LINE
8
BLACK
6
CONTINUOUS
10
122.4357109999999977
20
-120.1828009999999978
11
122.4357109999999977
21
-120.6589919999999978
0
LINE
8
BLACK
6
CONTINUOUS
10
122.4357109999999977
20
-120.6589919999999978
11
122.3404729999999887
21
-121.0399439999999913
0
LINE
8
BLACK
6
CONTINUOUS
10
122.3404729999999887
20
-121.0399439999999913
11
122.2452349999999939
21
-121.2304199999999952
0
LINE
8
BLACK
6
CONTINUOUS
10
122.2452349999999939
20
-121.2304199999999952
11
122.149996999999999
21
-121.3256589999999875
0
LINE
8
BLACK
6
CONTINUOUS
10
122.149996999999999
20
-121.3256589999999875
11
121.9595209999999952
21
-121.4208969999999965
0
LINE
8
BLACK
6
CONTINUOUS
10
121.9595209999999952
20
-121.4208969999999965
11
121.7690439999999938
21
-121.4208969999999965
0
LINE
8
BLACK
6
CONTINUOUS
10
121.7690439999999938
20
-121.4208969999999965
11
121.57856799999999
21
-121.3256589999999875
0
LINE
8
BLACK
6
CONTINUOUS
10
121.57856799999999
20
-121.3256589999999875
11
121.4833299999999952
21
-121.2304199999999952
0
LINE
8
BLACK
6
CONTINUOUS
10
121.4833299999999952
20
-121.2304199999999952
11
121.3880920000000003
21
-121.0399439999999913
0
LINE
8
BLACK
6
CONTINUOUS
10
121.3880920000000003
20
-121.0399439999999913
11
121.2928539999999913
21
-120.6589919999999978
0
LINE
8
BLACK
6
CONTINUOUS
10
121.2928539999999913
20
-120.6589919999999978
11
121.2928539999999913
21
-120.1828009999999978
0
LINE
8
BLACK
6
CONTINUOUS
10
121.2928539999999913
20
-120.1828009999999978
11
121.3880920000000003
21
-119.80184899999999
0
LINE
8
BLACK
6
CONTINUOUS
10
121.3880920000000003
20
-119.80184899999999
11
121.4833299999999952
21
-119.6113730000000004
0
LINE
8
BLACK
6
CONTINUOUS
10
121.4833299999999952
20
-119.6113730000000004
11
121.57856799999999
21
-119.5161349999999914
0
LINE
8
BLACK
6
CONTINUOUS
10
121.57856799999999
20
-119.5161349999999914
11
121.7690439999999938
21
-119.4208969999999965
0
LINE
8
BLACK
6
CONTINUOUS
10
123.673805999999999
20
-119.4208969999999965
11
123.8642830000000004
21
-119.4208969999999965
0
LINE
8
BLACK
6
CONTINUOUS
10
123.8642830000000004
20
-119.4208969999999965
11
124.05475899999999
21
-119.5161349999999914
0
LINE
8
BLACK
6
CONTINUOUS
10
124.05475899999999
20
-119.5161349999999914
11
124.149996999999999
21
-119.6113730000000004
0
LINE
8
BLACK
6
CONTINUOUS
10
124.149996999999999
20
-119.6113730000000004
11
124.2452349999999939
21
-119.80184899999999
0
LINE
8
BLACK
6
CONTINUOUS
10
124.2452349999999939
20
-119.80184899999999
11
124.3404729999999887
21
-120.1828009999999978
0
LINE
8
BLACK
6
CONTINUOUS
10
124.3404729999999887
20
-120.1828009999999978
11
124.3404729999999887
21
-120.6589919999999978
0
LINE
8
BLACK
6
CONTINUOUS
10
124.3404729999999887
20
-120.6589919999999978
11
124.2452349999999939
21
-121.0399439999999913
0
LINE
8
BLACK
6
CONTINUOUS
10
124.2452349999999939
20
-121.0399439999999913
11
124.149996999999999
21
-121.2304199999999952
0
LINE
8
BLACK
6
CONTINUOUS
10
124.149996999999999
20
-121.2304199999999952
11
124.05475899999999
21
-121.3256589999999875
0
LINE
8
BLACK
6
CONTINUOUS
10
124.05475899999999
20
-121.3256589999999875
11
123.8642830000000004
21
-121.4208969999999965
0
LINE
8
BLACK
6
CONTINUOUS
10
123.8642830000000004
20
-121.4208969999999965
11
123.673805999999999
21
-121.4208969999999965
0
LINE
8
BLACK
6
CONTINUOUS
10
123.673805999999999
20
-121.4208969999999965
11
123.4833299999999952
21
-121.3256589999999875
0
LINE
8
BLACK
6
CONTINUOUS
10
123.4833299999999952
20
-121.3256589999999875
11
123.3880920000000003
21
-121.2304199999999952
0
LINE
8
BLACK
6
CONTINUOUS
10
123.3880920000000003
20
-121.2304199999999952
11
123.2928539999999913
21
-121.0399439999999913
0
LINE
8
BLACK
6
CONTINUOUS
10
123.2928539999999913
20
-121.0399439999999913
11
123.1976159999999965
21
-120.6589919999999978
0
LINE
8
BLACK
6
CONTINUOUS
10
123.1976159999999965
20
-120.6589919999999978
11
123.1976159999999965
21
-120.1828009999999978
0
LINE
8
BLACK
6
CONTINUOUS
10
123.1976159999999965
20
-120.1828009999999978
11
123.2928539999999913
21
-119.80184899999999
0
LINE
8
BLACK
6
CONTINUOUS
10
123.2928539999999913
20
-119.80184899999999
11
123.3880920000000003
21
-119.6113730000000004
0
LINE
8
BLACK
6
CONTINUOUS
10
123.3880920000000003
20
-119.6113730000000004
11
123.4833299999999952
21
-119.5161349999999914
0
LINE
8
BLACK
6
CONTINUOUS
10
123.4833299999999952
20
-119.5161349999999914
11
123.673805999999999
21
-119.4208969999999965
0
LINE
8
BLACK
6
CONTINUOUS
10
125.57856799999999
20
-119.4208969999999965
11
125.7690449999999913
21
-119.4208969999999965
0
LINE
8
BLACK
6
CONTINUOUS
10
125.7690449999999913
20
-119.4208969999999965
11
125.9595209999999952
21
-119.5161349999999914
0
LINE
8
BLACK
6
CONTINUOUS
10
125.9595209999999952
20
-119.5161349999999914
11
126.05475899999999
21
-119.6113730000000004
0
LINE
8
BLACK
6
CONTINUOUS
10
126.05475899999999
20
-119.6113730000000004
11
126.149996999999999
21
-119.80184899999999
0
LINE
8
BLACK
6
CONTINUOUS
10
126.149996999999999
20
-119.80184899999999
11
126.2452349999999939
21
-120.1828009999999978
0
LINE
8
BLACK
6
CONTINUOUS
10
126.2452349999999939
20
-120.1828009999999978
11
126.2452349999999939
21
-120.6589919999999978
0
LINE
8
BLACK
6
CONTINUOUS
10
126.2452349999999939
20
-120.6589919999999978
11
126.149996999999999
21
-121.0399439999999913
0
LINE
8
BLACK
6
CONTINUOUS
10
126.149996999999999
20
-121.0399439999999913
11
126.05475899999999
21
-121.2304199999999952
0
LINE
8
BLACK
6
CONTINUOUS
10
126.05475899999999
20
-121.2304199999999952
11
125.9595209999999952
21
-121.3256589999999875
0
LINE
8
BLACK
6
CONTINUOUS
10
125.9595209999999952
20
-121.3256589999999875
11
125.7690449999999913
21
-121.4208969999999965
0
LINE
8
BLACK
6
CONTINUOUS
10
125.7690449999999913
20
-121.4208969999999965
11
125.57856799999999
21
-121.4208969999999965
0
LINE
8
BLACK
6
CONTINUOUS
10
125.57856799999999
20
-121.4208969999999965
11
125.3880920000000003
21
-121.3256589999999875
0
LINE
8
BLACK
6
CONTINUOUS
10
125.3880920000000003
20
-121.3256589999999875
11
125.2928539999999913
21
-121.2304199999999952
0
LINE
8
BLACK
6
CONTINUOUS
10
125.2928539999999913
20
-121.2304199999999952
11
125.1976159999999965
21
-121.0399439999999913
0
LINE
8
BLACK
6
CONTINUOUS
10
125.1976159999999965
20
-121.0399439999999913
11
125.1023779999999874
21
-120.6589919999999978
0
LINE
8
BLACK
6
CONTINUOUS
10
125.1023779999999874
20
-120.6589919999999978
11
125.1023779999999874
21
-120.1828009999999978
0
LINE
8
BLACK
6
CONTINUOUS
10
125.1023779999999874
20
-120.1828009999999978
11
125.1976159999999965
21
-119.80184899999999
0
LINE
8
BLACK
6
CONTINUOUS
10
125.1976159999999965
20
-119.80184899999999
11
125.2928539999999913
21
-119.6113730000000004
0
LINE
8
BLACK
6
CONTINUOUS
10
125.2928539999999913
20
-119.6113730000000004
11
125.3880920000000003
21
-119.5161349999999914
0
LINE
8
BLACK
6
CONTINUOUS
10
125.3880920000000003
20
-119.5161349999999914
11
125.57856799999999
21
-119.4208969999999965
0
LINE
8
BLACK
6
CONTINUOUS
10
127.1023779999999874
20
-121.4208969999999965
11
127.1023779999999874
21
-120.0875629999999887
0
LINE
8
BLACK
6
CONTINUOUS
10
127.1023779999999874
20
-120.2780389999999926
11
127.1976159999999965
21
-120.1828009999999978
0
LINE
8
BLACK
6
CONTINUOUS
10
127.1976159999999965
20
-120.1828009999999978
11
127.3880920000000003
21
-120.0875629999999887
0
LINE
8
BLACK
6
CONTINUOUS
10
127.3880920000000003
20
-120.0875629999999887
11
127.6738069999999965
21
-120.0875629999999887
0
LINE
8
BLACK
6
CONTINUOUS
10
127.6738069999999965
20
-120.0875629999999887
11
127.8642830000000004
21
-120.1828009999999978
0
LINE
8
BLACK
6
CONTINUOUS
10
127.8642830000000004
20
-120.1828009999999978
11
127.9595209999999952
21
-120.3732779999999991
0
LINE
8
BLACK
6
CONTINUOUS
10
127.9595209999999952
20
-120.3732779999999991
11
127.9595209999999952
21
-121.4208969999999965
0
LINE
8
BLACK
6
CONTINUOUS
10
127.9595209999999952
20
-120.3732779999999991
11
128.05475899999999
21
-120.1828009999999978
0
LINE
8
BLACK
6
CONTINUOUS
10
128.05475899999999
20
-120.1828009999999978
11
128.2452350000000081
21
-120.0875629999999887
0
LINE
8
BLACK
6
CONTINUOUS
10
128.2452350000000081
20
-120.0875629999999887
11
128.5309489999999926
21
-120.0875629999999887
0
LINE
8
BLACK
6
CONTINUOUS
10
128.5309489999999926
20
-120.0875629999999887
11
128.7214260000000081
21
-120.1828009999999978
0
LINE
8
BLACK
6
CONTINUOUS
10
128.7214260000000081
20
-120.1828009999999978
11
128.8166640000000029
21
-120.3732779999999991
0
LINE
8
BLACK
6
CONTINUOUS
10
128.8166640000000029
20
-120.3732779999999991
11
128.8166640000000029
21
-121.4208969999999965
0
LINE
8
BLACK
6
CONTINUOUS
10
129.7690450000000055
20
-121.4208969999999965
11
129.7690450000000055
21
-120.0875629999999887
0
LINE
8
BLACK
6
CONTINUOUS
10
129.7690450000000055
20
-120.2780389999999926
11
129.8642830000000004
21
-120.1828009999999978
0
LINE
8
BLACK
6
CONTINUOUS
10
129.8642830000000004
20
-120.1828009999999978
11
130.05475899999999
21
-120.0875629999999887
0
LINE
8
BLACK
6
CONTINUOUS
10
130.05475899999999
20
-120.0875629999999887
11
130.3404740000000004
21
-120.0875629999999887
0
LINE
8
BLACK
6
CONTINUOUS
10
130.3404740000000004
20
-120.0875629999999887
11
130.53094999999999
21
-120.1828009999999978
0
LINE
8
BLACK
6
CONTINUOUS
10
130.53094999999999
20
-120.1828009999999978
11
130.6261879999999849
21
-120.3732779999999991
0
LINE
8
BLACK
6
CONTINUOUS
10
130.6261879999999849
20
-120.3732779999999991
11
130.6261879999999849
21
-121.4208969999999965
0
LINE
8
BLACK
6
CONTINUOUS
10
130.6261879999999849
20
-120.3732779999999991
11
130.7214260000000081
21
-120.1828009999999978
0
LINE
8
BLACK
6
CONTINUOUS
10
130.7214260000000081
20
-120.1828009999999978
11
130.9119019999999978
21
-120.0875629999999887
0
LINE
8
BLACK
6
CONTINUOUS
10
130.9119019999999978
20
-120.0875629999999887
11
131.1976159999999823
21
-120.0875629999999887
0
LINE
8
BLACK
6
CONTINUOUS
10
131.1976159999999823
20
-120.0875629999999887
11
131.3880929999999978
21
-120.1828009999999978
0
LINE
8
BLACK
6
CONTINUOUS
10
131.3880929999999978
20
-120.1828009999999978
11
131.4833309999999926
21
-120.3732779999999991
0
LINE
8
BLACK
6
CONTINUOUS
10
131.4833309999999926
20
-120.3732779999999991
11
131.4833309999999926
21
-121.4208969999999965
0
LINE
8
BLACK
6
CONTINUOUS
10
135.3880929999999978
20
-119.3256590000000017
11
133.6738079999999798
21
-121.8970869999999991
0
LINE
8
BLACK
6
CONTINUOUS
10
137.9595219999999927
20
-119.4208969999999965
11
138.1499989999999798
21
-119.4208969999999965
0
LINE
8
BLACK
6
CONTINUOUS
10
138.1499989999999798
20
-119.4208969999999965
11
138.3404749999999979
21
-119.5161349999999914
0
LINE
8
BLACK
6
CONTINUOUS
10
138.3404749999999979
20
-119.5161349999999914
11
138.4357129999999927
21
-119.6113730000000004
0
LINE
8
BLACK
6
CONTINUOUS
10
138.4357129999999927
20
-119.6113730000000004
11
138.5309509999999875
21
-119.80184899999999
0
LINE
8
BLACK
6
CONTINUOUS
10
138.5309509999999875
20
-119.80184899999999
11
138.6261889999999823
21
-120.1828009999999978
0
LINE
8
BLACK
6
CONTINUOUS
10
138.6261889999999823
20
-120.1828009999999978
11
138.6261889999999823
21
-120.6589919999999978
0
LINE
8
BLACK
6
CONTINUOUS
10
138.6261889999999823
20
-120.6589919999999978
11
138.5309509999999875
21
-121.0399439999999913
0
LINE
8
BLACK
6
CONTINUOUS
10
138.5309509999999875
20
-121.0399439999999913
11
138.4357129999999927
21
-121.2304199999999952
0
LINE
8
BLACK
6
CONTINUOUS
10
138.4357129999999927
20
-121.2304199999999952
11
138.3404749999999979
21
-121.3256589999999875
0
LINE
8
BLACK
6
CONTINUOUS
10
138.3404749999999979
20
-121.3256589999999875
11
138.1499989999999798
21
-121.4208969999999965
0
LINE
8
BLACK
6
CONTINUOUS
10
138.1499989999999798
20
-121.4208969999999965
11
137.9595219999999927
21
-121.4208969999999965
0
LINE
8
BLACK
6
CONTINUOUS
10
137.9595219999999927
20
-121.4208969999999965
11
137.769046000000003
21
-121.3256589999999875
0
LINE
8
BLACK
6
CONTINUOUS
10
137.769046000000003
20
-121.3256589999999875
11
137.6738079999999798
21
-121.2304199999999952
0
LINE
8
BLACK
6
CONTINUOUS
10
137.6738079999999798
20
-121.2304199999999952
11
137.5785699999999849
21
-121.0399439999999913
0
LINE
8
BLACK
6
CONTINUOUS
10
137.5785699999999849
20
-121.0399439999999913
11
137.4833319999999901
21
-120.6589919999999978
0
LINE
8
BLACK
6
CONTINUOUS
10
137.4833319999999901
20
-120.6589919999999978
11
137.4833319999999901
21
-120.1828009999999978
0
LINE
8
BLACK
6
CONTINUOUS
10
137.4833319999999901
20
-120.1828009999999978
11
137.5785699999999849
21
-119.80184899999999
0
LINE
8
BLACK
6
CONTINUOUS
10
137.5785699999999849
20
-119.80184899999999
11
137.6738079999999798
21
-119.6113730000000004
0
LINE
8
BLACK
6
CONTINUOUS
10
137.6738079999999798
20
-119.6113730000000004
11
137.769046000000003
21
-119.5161349999999914
0
LINE
8
BLACK
6
CONTINUOUS
10
137.769046000000003
20
-119.5161349999999914
11
137.9595219999999927
21
-119.4208969999999965
0
LINE
8
BLACK
6
CONTINUOUS
10
139.4833319999999901
20
-121.2304199999999952
11
139.5785699999999849
21
-121.3256589999999875
0
LINE
8
BLACK
6
CONTINUOUS
10
139.5785699999999849
20
-121.3256589999999875
11
139.4833319999999901
21
-121.4208969999999965
0
LINE
8
BLACK
6
CONTINUOUS
10
139.4833319999999901
20
-121.4208969999999965
11
139.3880939999999953
21
-121.3256589999999875
0
LINE
8
BLACK
6
CONTINUOUS
10
139.3880939999999953
20
-121.3256589999999875
11
139.4833319999999901
21
-121.2304199999999952
0
LINE
8
BLACK
6
CONTINUOUS
10
139.4833319999999901
20
-121.2304199999999952
11
139.4833319999999901
21
-121.4208969999999965
0
LINE
8
BLACK
6
CONTINUOUS
10
140.8166650000000004
20
-119.4208969999999965
11
141.0071419999999875
21
-119.4208969999999965
0
LINE
8
BLACK
6
CONTINUOUS
10
141.0071419999999875
20
-119.4208969999999965
11
141.1976180000000056
21
-119.5161349999999914
0
LINE
8
BLACK
6
CONTINUOUS
10
141.1976180000000056
20
-119.5161349999999914
11
141.2928560000000004
21
-119.6113730000000004
0
LINE
8
BLACK
6
CONTINUOUS
10
141.2928560000000004
20
-119.6113730000000004
11
141.3880939999999953
21
-119.80184899999999
0
LINE
8
BLACK
6
CONTINUOUS
10
141.3880939999999953
20
-119.80184899999999
11
141.4833319999999901
21
-120.1828009999999978
0
LINE
8
BLACK
6
CONTINUOUS
10
141.4833319999999901
20
-120.1828009999999978
11
141.4833319999999901
21
-120.6589919999999978
0
LINE
8
BLACK
6
CONTINUOUS
10
141.4833319999999901
20
-120.6589919999999978
11
141.3880939999999953
21
-121.0399439999999913
0
LINE
8
BLACK
6
CONTINUOUS
10
141.3880939999999953
20
-121.0399439999999913
11
141.2928560000000004
21
-121.2304199999999952
0
LINE
8
BLACK
6
CONTINUOUS
10
141.2928560000000004
20
-121.2304199999999952
11
141.1976180000000056
21
-121.3256589999999875
0
LINE
8
BLACK
6
CONTINUOUS
10
141.1976180000000056
20
-121.3256589999999875
11
141.0071419999999875
21
-121.4208969999999965
0
LINE
8
BLACK
6
CONTINUOUS
10
141.0071419999999875
20
-121.4208969999999965
11
140.8166650000000004
21
-121.4208969999999965
0
LINE
8
BLACK
6
CONTINUOUS
10
140.8166650000000004
20
-121.4208969999999965
11
140.6261889999999823
21
-121.3256589999999875
0
LINE
8
BLACK
6
CONTINUOUS
10
140.6261889999999823
20
-121.3256589999999875
11
140.5309509999999875
21
-121.2304199999999952
0
LINE
8
BLACK
6
CONTINUOUS
10
140.5309509999999875
20
-121.2304199999999952
11
140.4357129999999927
21
-121.0399439999999913
0
LINE
8
BLACK
6
CONTINUOUS
10
140.4357129999999927
20
-121.0399439999999913
11
140.3404749999999979
21
-120.6589919999999978
0
LINE
8
BLACK
6
CONTINUOUS
10
140.3404749999999979
20
-120.6589919999999978
11
140.3404749999999979
21
-120.1828009999999978
0
LINE
8
BLACK
6
CONTINUOUS
10
140.3404749999999979
20
-120.1828009999999978
11
140.4357129999999927
21
-119.80184899999999
0
LINE
8
BLACK
6
CONTINUOUS
10
140.4357129999999927
20
-119.80184899999999
11
140.5309509999999875
21
-119.6113730000000004
0
LINE
8
BLACK
6
CONTINUOUS
10
140.5309509999999875
20
-119.6113730000000004
11
140.6261889999999823
21
-119.5161349999999914
0
LINE
8
BLACK
6
CONTINUOUS
10
140.6261889999999823
20
-119.5161349999999914
11
140.8166650000000004
21
-119.4208969999999965
0
LINE
8
BLACK
6
CONTINUOUS
10
142.1499989999999798
20
-119.4208969999999965
11
143.3880939999999953
21
-119.4208969999999965
0
LINE
8
BLACK
6
CONTINUOUS
10
143.3880939999999953
20
-119.4208969999999965
11
142.7214270000000056
21
-120.1828009999999978
0
LINE
8
BLACK
6
CONTINUOUS
10
142.7214270000000056
20
-120.1828009999999978
11
143.0071419999999875
21
-120.1828009999999978
0
LINE
8
BLACK
6
CONTINUOUS
10
143.0071419999999875
20
-120.1828009999999978
11
143.1976180000000056
21
-120.2780389999999926
0
LINE
8
BLACK
6
CONTINUOUS
10
143.1976180000000056
20
-120.2780389999999926
11
143.2928560000000004
21
-120.3732779999999991
0
LINE
8
BLACK
6
CONTINUOUS
10
143.2928560000000004
20
-120.3732779999999991
11
143.3880939999999953
21
-120.5637539999999888
0
LINE
8
BLACK
6
CONTINUOUS
10
143.3880939999999953
20
-120.5637539999999888
11
143.3880939999999953
21
-121.0399439999999913
0
LINE
8
BLACK
6
CONTINUOUS
10
143.3880939999999953
20
-121.0399439999999913
11
143.2928560000000004
21
-121.2304199999999952
0
LINE
8
BLACK
6
CONTINUOUS
10
143.2928560000000004
20
-121.2304199999999952
11
143.1976180000000056
21
-121.3256589999999875
0
LINE
8
BLACK
6
CONTINUOUS
10
143.1976180000000056
20
-121.3256589999999875
11
143.0071419999999875
21
-121.4208969999999965
0
LINE
8
BLACK
6
CONTINUOUS
10
143.0071419999999875
20
-121.4208969999999965
11
142.4357129999999927
21
-121.4208969999999965
0
LINE
8
BLACK
6
CONTINUOUS
10
142.4357129999999927
20
-121.4208969999999965
11
142.245237000000003
21
-121.3256589999999875
0
LINE
8
BLACK
6
CONTINUOUS
10
142.245237000000003
20
-121.3256589999999875
11
142.1499989999999798
21
-121.2304199999999952
0
LINE
8
BLACK
6
CONTINUOUS
10
144.3404749999999979
20
-121.4208969999999965
11
144.7214270000000056
21
-121.4208969999999965
0
LINE
8
BLACK
6
CONTINUOUS
10
144.7214270000000056
20
-121.4208969999999965
11
144.9119039999999927
21
-121.3256589999999875
0
LINE
8
BLACK
6
CONTINUOUS
10
144.9119039999999927
20
-121.3256589999999875
11
145.0071419999999875
21
-121.2304199999999952
0
LINE
8
BLACK
6
CONTINUOUS
10
145.0071419999999875
20
-121.2304199999999952
11
145.1976180000000056
21
-120.9447059999999965
0
LINE
8
BLACK
6
CONTINUOUS
10
145.1976180000000056
20
-120.9447059999999965
11
145.2928560000000004
21
-120.5637539999999888
0
LINE
8
BLACK
6
CONTINUOUS
10
145.2928560000000004
20
-120.5637539999999888
11
145.2928560000000004
21
-119.80184899999999
0
LINE
8
BLACK
6
CONTINUOUS
10
145.2928560000000004
20
-119.80184899999999
11
145.1976180000000056
21
-119.6113730000000004
0
LINE
8
BLACK
6
CONTINUOUS
10
145.1976180000000056
20
-119.6113730000000004
11
145.1023799999999824
21
-119.5161349999999914
0
LINE
8
BLACK
6
CONTINUOUS
10
145.1023799999999824
20
-119.5161349999999914
11
144.9119039999999927
21
-119.4208969999999965
0
LINE
8
BLACK
6
CONTINUOUS
10
144.9119039999999927
20
-119.4208969999999965
11
144.5309509999999875
21
-119.4208969999999965
0
LINE
8
BLACK
6
CONTINUOUS
10
144.5309509999999875
20
-119.4208969999999965
11
144.3404749999999979
21
-119.5161349999999914
0
LINE
8
BLACK
6
CONTINUOUS
10
144.3404749999999979
20
-119.5161349999999914
11
144.245237000000003
21
-119.6113730000000004
0
LINE
8
BLACK
6
CONTINUOUS
10
144.245237000000003
20
-119.6113730000000004
11
144.1499989999999798
21
-119.80184899999999
0
LINE
8
BLACK
6
CONTINUOUS
10
144.1499989999999798
20
-119.80184899999999
11
144.1499989999999798
21
-120.2780389999999926
0
LINE
8
BLACK
6
CONTINUOUS
10
144.1499989999999798
20
-120.2780389999999926
11
144.245237000000003
21
-120.4685159999999939
0
LINE
8
BLACK
6
CONTINUOUS
10
144.245237000000003
20
-120.4685159999999939
11
144.3404749999999979
21
-120.5637539999999888
0
LINE
8
BLACK
6
CONTINUOUS
10
144.3404749999999979
20
-120.5637539999999888
11
144.5309509999999875
21
-120.6589919999999978
0
LINE
8
BLACK
6
CONTINUOUS
10
144.5309509999999875
20
-120.6589919999999978
11
144.9119039999999927
21
-120.6589919999999978
0
LINE
8
BLACK
6
CONTINUOUS
10
144.9119039999999927
20
-120.6589919999999978
11
145.1023799999999824
21
-120.5637539999999888
0
LINE
8
BLACK
6
CONTINUOUS
10
145.1023799999999824
20
-120.5637539999999888
11
145.1976180000000056
21
-120.4685159999999939
0
LINE
8
BLACK
6
CONTINUOUS
10
145.1976180000000056
20
-120.4685159999999939
11
145.2928560000000004
21
-120.2780389999999926
0
LINE
8
BLACK
6
CONTINUOUS
10
147.0071419999999875
20
-120.0875629999999887
11
147.0071419999999875
21
-121.4208969999999965
0
LINE
8
BLACK
6
CONTINUOUS
10
146.5309509999999875
20
-119.3256590000000017
11
146.054760999999985
21
-120.7542299999999926
0
LINE
8
BLACK
6
CONTINUOUS
10
146.054760999999985
20
-120.7542299999999926
11
147.2928560000000004
21
-120.7542299999999926
0
LINE
8
BLACK
6
CONTINUOUS
10
147.9595229999999901
20
-119.4208969999999965
11
147.9595229999999901
21
-119.80184899999999
0
LINE
8
BLACK
6
CONTINUOUS
10
148.7214280000000031
20
-119.4208969999999965
11
148.7214280000000031
21
-119.80184899999999
0
LINE
8
BLACK
6
CONTINUOUS
10
151.6738100000000031
20
-122.1828009999999978
11
151.5785709999999824
21
-122.0875629999999887
0
LINE
8
BLACK
6
CONTINUOUS
10
151.5785709999999824
20
-122.0875629999999887
11
151.3880949999999928
21
-121.80184899999999
0
LINE
8
BLACK
6
CONTINUOUS
10
151.3880949999999928
20
-121.80184899999999
11
151.2928569999999979
21
-121.6113730000000004
0
LINE
8
BLACK
6
CONTINUOUS
10
151.2928569999999979
20
-121.6113730000000004
11
151.1976190000000031
21
-121.3256589999999875
0
LINE
8
BLACK
6
CONTINUOUS
10
151.1976190000000031
20
-121.3256589999999875
11
151.1023809999999798
21
-120.8494679999999875
0
LINE
8
BLACK
6
CONTINUOUS
10
151.1023809999999798
20
-120.8494679999999875
11
151.1023809999999798
21
-120.4685159999999939
0
LINE
8
BLACK
6
CONTINUOUS
10
151.1023809999999798
20
-120.4685159999999939
11
151.1976190000000031
21
-119.9923249999999939
0
LINE
8
BLACK
6
CONTINUOUS
10
151.1976190000000031
20
-119.9923249999999939
11
151.2928569999999979
21
-119.7066109999999952
0
LINE
8
BLACK
6
CONTINUOUS
10
151.2928569999999979
20
-119.7066109999999952
11
151.3880949999999928
21
-119.5161349999999914
0
LINE
8
BLACK
6
CONTINUOUS
10
151.3880949999999928
20
-119.5161349999999914
11
151.5785709999999824
21
-119.2304199999999952
0
LINE
8
BLACK
6
CONTINUOUS
10
151.5785709999999824
20
-119.2304199999999952
11
151.6738100000000031
21
-119.1351820000000004
0
LINE
8
BLACK
6
CONTINUOUS
10
153.4833329999999876
20
-121.4208969999999965
11
152.3404759999999953
21
-121.4208969999999965
0
LINE
8
BLACK
6
CONTINUOUS
10
152.9119039999999927
20
-121.4208969999999965
11
152.9119039999999927
21
-119.4208969999999965
0
LINE
8
BLACK
6
CONTINUOUS
10
152.9119039999999927
20
-119.4208969999999965
11
152.7214280000000031
21
-119.7066109999999952
0
LINE
8
BLACK
6
CONTINUOUS
10
152.7214280000000031
20
-119.7066109999999952
11
152.530951999999985
21
-119.8970869999999991
0
LINE
8
BLACK
6
CONTINUOUS
10
152.530951999999985
20
-119.8970869999999991
11
152.3404759999999953
21
-119.9923249999999939
0
LINE
8
BLACK
6
CONTINUOUS
10
154.7214280000000031
20
-119.4208969999999965
11
154.9119049999999902
21
-119.4208969999999965
0
LINE
8
BLACK
6
CONTINUOUS
10
154.9119049999999902
20
-119.4208969999999965
11
155.1023809999999798
21
-119.5161349999999914
0
LINE
8
BLACK
6
CONTINUOUS
10
155.1023809999999798
20
-119.5161349999999914
11
155.1976190000000031
21
-119.6113730000000004
0
LINE
8
BLACK
6
CONTINUOUS
10
155.1976190000000031
20
-119.6113730000000004
11
155.2928569999999979
21
-119.80184899999999
0
LINE
8
BLACK
6
CONTINUOUS
10
155.2928569999999979
20
-119.80184899999999
11
155.3880949999999928
21
-120.1828009999999978
0
LINE
8
BLACK
6
CONTINUOUS
10
155.3880949999999928
20
-120.1828009999999978
11
155.3880949999999928
21
-120.6589919999999978
0
LINE
8
BLACK
6
CONTINUOUS
10
155.3880949999999928
20
-120.6589919999999978
11
155.2928569999999979
21
-121.0399439999999913
0
LINE
8
BLACK
6
CONTINUOUS
10
155.2928569999999979
20
-121.0399439999999913
11
155.1976190000000031
21
-121.2304199999999952
0
LINE
8
BLACK
6
CONTINUOUS
10
155.1976190000000031
20
-121.2304199999999952
11
155.1023809999999798
21
-121.3256589999999875
0
LINE
8
BLACK
6
CONTINUOUS
10
155.1023809999999798
20
-121.3256589999999875
11
154.9119049999999902
21
-121.4208969999999965
0
LINE
8
BLACK
6
CONTINUOUS
10
154.9119049999999902
20
-121.4208969999999965
11
154.7214280000000031
21
-121.4208969999999965
0
LINE
8
BLACK
6
CONTINUOUS
10
154.7214280000000031
20
-121.4208969999999965
11
154.530951999999985
21
-121.3256589999999875
0
LINE
8
BLACK
6
CONTINUOUS
10
154.530951999999985
20
-121.3256589999999875
11
154.4357139999999902
21
-121.2304199999999952
0
LINE
8
BLACK
6
CONTINUOUS
10
154.4357139999999902
20
-121.2304199999999952
11
154.3404759999999953
21
-121.0399439999999913
0
LINE
8
BLACK
6
CONTINUOUS
10
154.3404759999999953
20
-121.0399439999999913
11
154.2452380000000005
21
-120.6589919999999978
0
LINE
8
BLACK
6
CONTINUOUS
10
154.2452380000000005
20
-120.6589919999999978
11
154.2452380000000005
21
-120.1828009999999978
0
LINE
8
BLACK
6
CONTINUOUS
10
154.2452380000000005
20
-120.1828009999999978
11
154.3404759999999953
21
-119.80184899999999
0
LINE
8
BLACK
6
CONTINUOUS
10
154.3404759999999953
20
-119.80184899999999
11
154.4357139999999902
21
-119.6113730000000004
0
LINE
8
BLACK
6
CONTINUOUS
10
154.4357139999999902
20
-119.6113730000000004
11
154.530951999999985
21
-119.5161349999999914
0
LINE
8
BLACK
6
CONTINUOUS
10
154.530951999999985
20
-119.5161349999999914
11
154.7214280000000031
21
-119.4208969999999965
0
LINE
8
BLACK
6
CONTINUOUS
10
157.769047999999998
20
-121.4208969999999965
11
157.769047999999998
21
-119.4208969999999965
0
LINE
8
BLACK
6
CONTINUOUS
10
158.6261910000000057
20
-121.4208969999999965
11
158.6261910000000057
21
-120.3732779999999991
0
LINE
8
BLACK
6
CONTINUOUS
10
158.6261910000000057
20
-120.3732779999999991
11
158.5309529999999825
21
-120.1828009999999978
0
LINE
8
BLACK
6
CONTINUOUS
10
158.5309529999999825
20
-120.1828009999999978
11
158.3404769999999928
21
-120.0875629999999887
0
LINE
8
BLACK
6
CONTINUOUS
10
158.3404769999999928
20
-120.0875629999999887
11
158.0547619999999824
21
-120.0875629999999887
0
LINE
8
BLACK
6
CONTINUOUS
10
158.0547619999999824
20
-120.0875629999999887
11
157.8642859999999928
21
-120.1828009999999978
0
LINE
8
BLACK
6
CONTINUOUS
10
157.8642859999999928
20
-120.1828009999999978
11
157.769047999999998
21
-120.2780389999999926
0
LINE
8
BLACK
6
CONTINUOUS
10
159.8642859999999928
20
-121.4208969999999965
11
159.6738100000000031
21
-121.3256589999999875
0
LINE
8
BLACK
6
CONTINUOUS
10
159.6738100000000031
20
-121.3256589999999875
11
159.5785719999999799
21
-121.2304199999999952
0
LINE
8
BLACK
6
CONTINUOUS
10
159.5785719999999799
20
-121.2304199999999952
11
159.4833339999999851
21
-121.0399439999999913
0
LINE
8
BLACK
6
CONTINUOUS
10
159.4833339999999851
20
-121.0399439999999913
11
159.4833339999999851
21
-120.4685159999999939
0
LINE
8
BLACK
6
CONTINUOUS
10
159.4833339999999851
20
-120.4685159999999939
11
159.5785719999999799
21
-120.2780389999999926
0
LINE
8
BLACK
6
CONTINUOUS
10
159.5785719999999799
20
-120.2780389999999926
11
159.6738100000000031
21
-120.1828009999999978
0
LINE
8
BLACK
6
CONTINUOUS
10
159.6738100000000031
20
-120.1828009999999978
11
159.8642859999999928
21
-120.0875629999999887
0
LINE
8
BLACK
6
CONTINUOUS
10
159.8642859999999928
20
-120.0875629999999887
11
160.1500010000000032
21
-120.0875629999999887
0
LINE
8
BLACK
6
CONTINUOUS
10
160.1500010000000032
20
-120.0875629999999887
11
160.3404769999999928
21
-120.1828009999999978
0
LINE
8
BLACK
6
CONTINUOUS
10
160.3404769999999928
20
-120.1828009999999978
11
160.4357149999999876
21
-120.2780389999999926
0
LINE
8
BLACK
6
CONTINUOUS
10
160.4357149999999876
20
-120.2780389999999926
11
160.5309529999999825
21
-120.4685159999999939
0
LINE
8
BLACK
6
CONTINUOUS
10
160.5309529999999825
20
-120.4685159999999939
11
160.5309529999999825
21
-121.0399439999999913
0
LINE
8
BLACK
6
CONTINUOUS
10
160.5309529999999825
20
-121.0399439999999913
11
160.4357149999999876
21
-121.2304199999999952
0
LINE
8
BLACK
6
CONTINUOUS
10
160.4357149999999876
20
-121.2304199999999952
11
160.3404769999999928
21
-121.3256589999999875
0
LINE
8
BLACK
6
CONTINUOUS
10
160.3404769999999928
20
-121.3256589999999875
11
160.1500010000000032
21
-121.4208969999999965
0
LINE
8
BLACK
6
CONTINUOUS
10
160.1500010000000032
20
-121.4208969999999965
11
159.8642859999999928
21
-121.4208969999999965
0
LINE
8
BLACK
6
CONTINUOUS
10
161.6738100000000031
20
-121.4208969999999965
11
161.4833339999999851
21
-121.3256589999999875
0
LINE
8
BLACK
6
CONTINUOUS
10
161.4833339999999851
20
-121.3256589999999875
11
161.3880959999999902
21
-121.1351820000000004
0
LINE
8
BLACK
6
CONTINUOUS
10
161.3880959999999902
20
-121.1351820000000004
11
161.3880959999999902
21
-119.4208969999999965
0
LINE
8
BLACK
6
CONTINUOUS
10
163.1976200000000006
20
-121.3256589999999875
11
163.0071439999999825
21
-121.4208969999999965
0
LINE
8
BLACK
6
CONTINUOUS
10
163.0071439999999825
20
-121.4208969999999965
11
162.6261910000000057
21
-121.4208969999999965
0
LINE
8
BLACK
6
CONTINUOUS
10
162.6261910000000057
20
-121.4208969999999965
11
162.4357149999999876
21
-121.3256589999999875
0
LINE
8
BLACK
6
CONTINUOUS
10
162.4357149999999876
20
-121.3256589999999875
11
162.3404769999999928
21
-121.1351820000000004
0
LINE
8
BLACK
6
CONTINUOUS
10
162.3404769999999928
20
-121.1351820000000004
11
162.3404769999999928
21
-120.3732779999999991
0
LINE
8
BLACK
6
CONTINUOUS
10
162.3404769999999928
20
-120.3732779999999991
11
162.4357149999999876
21
-120.1828009999999978
0
LINE
8
BLACK
6
CONTINUOUS
10
162.4357149999999876
20
-120.1828009999999978
11
162.6261910000000057
21
-120.0875629999999887
0
LINE
8
BLACK
6
CONTINUOUS
10
162.6261910000000057
20
-120.0875629999999887
11
163.0071439999999825
21
-120.0875629999999887
0
LINE
8
BLACK
6
CONTINUOUS
10
163.0071439999999825
20
-120.0875629999999887
11
163.1976200000000006
21
-120.1828009999999978
0
LINE
8
BLACK
6
CONTINUOUS
10
163.1976200000000006
20
-120.1828009999999978
11
163.2928579999999954
21
-120.3732779999999991
0
LINE
8
BLACK
6
CONTINUOUS
10
163.2928579999999954
20
-120.3732779999999991
11
163.2928579999999954
21
-120.5637539999999888
0
LINE
8
BLACK
6
CONTINUOUS
10
163.2928579999999954
20
-120.5637539999999888
11
162.3404769999999928
21
-120.7542299999999926
0
LINE
8
BLACK
6
CONTINUOUS
10
164.0547629999999799
20
-121.3256589999999875
11
164.245238999999998
21
-121.4208969999999965
0
LINE
8
BLACK
6
CONTINUOUS
10
164.245238999999998
20
-121.4208969999999965
11
164.6261910000000057
21
-121.4208969999999965
0
LINE
8
BLACK
6
CONTINUOUS
10
164.6261910000000057
20
-121.4208969999999965
11
164.8166679999999928
21
-121.3256589999999875
0
LINE
8
BLACK
6
CONTINUOUS
10
164.8166679999999928
20
-121.3256589999999875
11
164.9119059999999877
21
-121.1351820000000004
0
LINE
8
BLACK
6
CONTINUOUS
10
164.9119059999999877
20
-121.1351820000000004
11
164.9119059999999877
21
-121.0399439999999913
0
LINE
8
BLACK
6
CONTINUOUS
10
164.9119059999999877
20
-121.0399439999999913
11
164.8166679999999928
21
-120.8494679999999875
0
LINE
8
BLACK
6
CONTINUOUS
10
164.8166679999999928
20
-120.8494679999999875
11
164.6261910000000057
21
-120.7542299999999926
0
LINE
8
BLACK
6
CONTINUOUS
10
164.6261910000000057
20
-120.7542299999999926
11
164.3404769999999928
21
-120.7542299999999926
0
LINE
8
BLACK
6
CONTINUOUS
10
164.3404769999999928
20
-120.7542299999999926
11
164.1500010000000032
21
-120.6589919999999978
0
LINE
8
BLACK
6
CONTINUOUS
10
164.1500010000000032
20
-120.6589919999999978
11
164.0547629999999799
21
-120.4685159999999939
0
LINE
8
BLACK
6
CONTINUOUS
10
164.0547629999999799
20
-120.4685159999999939
11
164.0547629999999799
21
-120.3732779999999991
0
LINE
8
BLACK
6
CONTINUOUS
10
164.0547629999999799
20
-120.3732779999999991
11
164.1500010000000032
21
-120.1828009999999978
0
LINE
8
BLACK
6
CONTINUOUS
10
164.1500010000000032
20
-120.1828009999999978
11
164.3404769999999928
21
-120.0875629999999887
0
LINE
8
BLACK
6
CONTINUOUS
10
164.3404769999999928
20
-120.0875629999999887
11
164.6261910000000057
21
-120.0875629999999887
0
LINE
8
BLACK
6
CONTINUOUS
10
164.6261910000000057
20
-120.0875629999999887
11
164.8166679999999928
21
-120.1828009999999978
0
LINE
8
BLACK
6
CONTINUOUS
10
165.5785730000000058
20
-122.1828009999999978
11
165.6738110000000006
21
-122.0875629999999887
0
LINE
8
BLACK
6
CONTINUOUS
10
165.6738110000000006
20
-122.0875629999999887
11
165.8642869999999903
21
-121.80184899999999
0
LINE
8
BLACK
6
CONTINUOUS
10
165.8642869999999903
20
-121.80184899999999
11
165.9595249999999851
21
-121.6113730000000004
0
LINE
8
BLACK
6
CONTINUOUS
10
165.9595249999999851
20
-121.6113730000000004
11
166.0547629999999799
21
-121.3256589999999875
0
LINE
8
BLACK
6
CONTINUOUS
10
166.0547629999999799
20
-121.3256589999999875
11
166.1500010000000032
21
-120.8494679999999875
0
LINE
8
BLACK
6
CONTINUOUS
10
166.1500010000000032
20
-120.8494679999999875
11
166.1500010000000032
21
-120.4685159999999939
0
LINE
8
BLACK
6
CONTINUOUS
10
166.1500010000000032
20
-120.4685159999999939
11
166.0547629999999799
21
-119.9923249999999939
0
LINE
8
BLACK
6
CONTINUOUS
10
166.0547629999999799
20
-119.9923249999999939
11
165.9595249999999851
21
-119.7066109999999952
0
LINE
8
BLACK
6
CONTINUOUS
10
165.9595249999999851
20
-119.7066109999999952
11
165.8642869999999903
21
-119.5161349999999914
0
LINE
8
BLACK
6
CONTINUOUS
10
165.8642869999999903
20
-119.5161349999999914
11
165.6738110000000006
21
-119.2304199999999952
0
LINE
8
BLACK
6
CONTINUOUS
10
165.6738110000000006
20
-119.2304199999999952
11
165.5785730000000058
21
-119.1351820000000004
  0
ENDSEC
  0
EOF
