%TF.GenerationSoftware,KiCad,Pcbnew,9.0.4*%
%TF.CreationDate,2025-10-04T10:08:01+10:00*%
%TF.ProjectId,Jet Ranger Test,4a657420-5261-46e6-9765-722054657374,rev?*%
%TF.SameCoordinates,Original*%
%TF.FileFunction,Copper,L2,Bot*%
%TF.FilePolarity,Positive*%
%FSLAX46Y46*%
G04 Gerber Fmt 4.6, Leading zero omitted, Abs format (unit mm)*
G04 Created by KiCad (PCBNEW 9.0.4) date 2025-10-04 10:08:01*
%MOMM*%
%LPD*%
G01*
G04 APERTURE LIST*
G04 Aperture macros list*
%AMRoundRect*
0 Rectangle with rounded corners*
0 $1 Rounding radius*
0 $2 $3 $4 $5 $6 $7 $8 $9 X,Y pos of 4 corners*
0 Add a 4 corners polygon primitive as box body*
4,1,4,$2,$3,$4,$5,$6,$7,$8,$9,$2,$3,0*
0 Add four circle primitives for the rounded corners*
1,1,$1+$1,$2,$3*
1,1,$1+$1,$4,$5*
1,1,$1+$1,$6,$7*
1,1,$1+$1,$8,$9*
0 Add four rect primitives between the rounded corners*
20,1,$1+$1,$2,$3,$4,$5,0*
20,1,$1+$1,$4,$5,$6,$7,0*
20,1,$1+$1,$6,$7,$8,$9,0*
20,1,$1+$1,$8,$9,$2,$3,0*%
G04 Aperture macros list end*
%TA.AperFunction,ComponentPad*%
%ADD10R,1.700000X1.700000*%
%TD*%
%TA.AperFunction,ComponentPad*%
%ADD11O,1.700000X1.700000*%
%TD*%
%TA.AperFunction,ComponentPad*%
%ADD12C,1.600000*%
%TD*%
%TA.AperFunction,ComponentPad*%
%ADD13RoundRect,0.250000X-0.600000X-0.725000X0.600000X-0.725000X0.600000X0.725000X-0.600000X0.725000X0*%
%TD*%
%TA.AperFunction,ComponentPad*%
%ADD14O,1.700000X1.950000*%
%TD*%
%TA.AperFunction,ComponentPad*%
%ADD15RoundRect,0.250000X-0.620000X-0.845000X0.620000X-0.845000X0.620000X0.845000X-0.620000X0.845000X0*%
%TD*%
%TA.AperFunction,ComponentPad*%
%ADD16O,1.740000X2.190000*%
%TD*%
%TA.AperFunction,ComponentPad*%
%ADD17C,1.700000*%
%TD*%
%TA.AperFunction,ComponentPad*%
%ADD18C,1.400000*%
%TD*%
%TA.AperFunction,ComponentPad*%
%ADD19RoundRect,0.250000X0.620000X0.845000X-0.620000X0.845000X-0.620000X-0.845000X0.620000X-0.845000X0*%
%TD*%
%TA.AperFunction,ComponentPad*%
%ADD20R,1.800000X1.800000*%
%TD*%
%TA.AperFunction,ComponentPad*%
%ADD21C,1.800000*%
%TD*%
%TA.AperFunction,ComponentPad*%
%ADD22R,1.665000X1.665000*%
%TD*%
%TA.AperFunction,ComponentPad*%
%ADD23C,1.665000*%
%TD*%
%TA.AperFunction,ViaPad*%
%ADD24C,0.600000*%
%TD*%
%TA.AperFunction,Conductor*%
%ADD25C,0.254000*%
%TD*%
%TA.AperFunction,Conductor*%
%ADD26C,0.200000*%
%TD*%
G04 APERTURE END LIST*
D10*
%TO.P,J1,1,Pin_1*%
%TO.N,unconnected-(J1-Pin_1-Pad1)*%
X127940000Y-97460000D03*
D11*
%TO.P,J1,2,Pin_2*%
%TO.N,/IOREF*%
X130480000Y-97460000D03*
%TO.P,J1,3,Pin_3*%
%TO.N,/~{RESET}*%
X133020000Y-97460000D03*
%TO.P,J1,4,Pin_4*%
%TO.N,+3V3*%
X135560000Y-97460000D03*
%TO.P,J1,5,Pin_5*%
%TO.N,+5V*%
X138100000Y-97460000D03*
%TO.P,J1,6,Pin_6*%
%TO.N,GND*%
X140640000Y-97460000D03*
%TO.P,J1,7,Pin_7*%
X143180000Y-97460000D03*
%TO.P,J1,8,Pin_8*%
%TO.N,VCC*%
X145720000Y-97460000D03*
%TD*%
D10*
%TO.P,J3,1,Pin_1*%
%TO.N,/A0*%
X150800000Y-97460000D03*
D11*
%TO.P,J3,2,Pin_2*%
%TO.N,/A1*%
X153340000Y-97460000D03*
%TO.P,J3,3,Pin_3*%
%TO.N,/A2*%
X155880000Y-97460000D03*
%TO.P,J3,4,Pin_4*%
%TO.N,/A3*%
X158420000Y-97460000D03*
%TO.P,J3,5,Pin_5*%
%TO.N,/A4*%
X160960000Y-97460000D03*
%TO.P,J3,6,Pin_6*%
%TO.N,/A5*%
X163500000Y-97460000D03*
%TD*%
D10*
%TO.P,J2,1,Pin_1*%
%TO.N,/A5*%
X118796000Y-49200000D03*
D11*
%TO.P,J2,2,Pin_2*%
%TO.N,/A4*%
X121336000Y-49200000D03*
%TO.P,J2,3,Pin_3*%
%TO.N,/AREF*%
X123876000Y-49200000D03*
%TO.P,J2,4,Pin_4*%
%TO.N,GND*%
X126416000Y-49200000D03*
%TO.P,J2,5,Pin_5*%
%TO.N,/13*%
X128956000Y-49200000D03*
%TO.P,J2,6,Pin_6*%
%TO.N,/12*%
X131496000Y-49200000D03*
%TO.P,J2,7,Pin_7*%
%TO.N,ES1_RST*%
X134036000Y-49200000D03*
%TO.P,J2,8,Pin_8*%
%TO.N,SS*%
X136576000Y-49200000D03*
%TO.P,J2,9,Pin_9*%
%TO.N,/\u002A9*%
X139116000Y-49200000D03*
%TO.P,J2,10,Pin_10*%
%TO.N,/8*%
X141656000Y-49200000D03*
%TD*%
D10*
%TO.P,J4,1,Pin_1*%
%TO.N,/7*%
X145720000Y-49200000D03*
D11*
%TO.P,J4,2,Pin_2*%
%TO.N,/\u002A6*%
X148260000Y-49200000D03*
%TO.P,J4,3,Pin_3*%
%TO.N,/\u002A5*%
X150800000Y-49200000D03*
%TO.P,J4,4,Pin_4*%
%TO.N,/4*%
X153340000Y-49200000D03*
%TO.P,J4,5,Pin_5*%
%TO.N,/\u002A3*%
X155880000Y-49200000D03*
%TO.P,J4,6,Pin_6*%
%TO.N,/2*%
X158420000Y-49200000D03*
%TO.P,J4,7,Pin_7*%
%TO.N,/COL2*%
X160960000Y-49200000D03*
%TO.P,J4,8,Pin_8*%
%TO.N,/COL1*%
X163500000Y-49200000D03*
%TD*%
D12*
%TO.P,C1,1*%
%TO.N,/A1*%
X186500000Y-60500000D03*
%TO.P,C1,2*%
%TO.N,GND*%
X186500000Y-58000000D03*
%TD*%
%TO.P,C4,1*%
%TO.N,/A3*%
X186500000Y-80000000D03*
%TO.P,C4,2*%
%TO.N,GND*%
X186500000Y-77500000D03*
%TD*%
D13*
%TO.P,J10,1,Pin_1*%
%TO.N,+5V*%
X175000000Y-88240000D03*
D14*
%TO.P,J10,2,Pin_2*%
%TO.N,/A4*%
X177500000Y-88240000D03*
%TO.P,J10,3,Pin_3*%
%TO.N,GND*%
X180000000Y-88240000D03*
%TD*%
D15*
%TO.P,J21,1,Pin_1*%
%TO.N,Net-(J20-Pin_1)*%
X157880000Y-35000000D03*
D16*
%TO.P,J21,2,Pin_2*%
%TO.N,Net-(J20-Pin_2)*%
X160420000Y-35000000D03*
%TO.P,J21,3,Pin_3*%
%TO.N,Net-(J20-Pin_3)*%
X162960000Y-35000000D03*
%TO.P,J21,4,Pin_4*%
%TO.N,Net-(J20-Pin_4)*%
X165500000Y-35000000D03*
%TD*%
D12*
%TO.P,C2,1*%
%TO.N,/A0*%
X186500000Y-50500000D03*
%TO.P,C2,2*%
%TO.N,GND*%
X186500000Y-48000000D03*
%TD*%
D15*
%TO.P,J20,1,Pin_1*%
%TO.N,Net-(J20-Pin_1)*%
X171000000Y-35000000D03*
D16*
%TO.P,J20,2,Pin_2*%
%TO.N,Net-(J20-Pin_2)*%
X173540000Y-35000000D03*
%TO.P,J20,3,Pin_3*%
%TO.N,Net-(J20-Pin_3)*%
X176080000Y-35000000D03*
%TO.P,J20,4,Pin_4*%
%TO.N,Net-(J20-Pin_4)*%
X178620000Y-35000000D03*
%TD*%
D10*
%TO.P,J16,1,Pin_1*%
%TO.N,/A0*%
X150800000Y-103500000D03*
D17*
%TO.P,J16,2,Pin_2*%
%TO.N,/A1*%
X153340000Y-103500000D03*
%TO.P,J16,3,Pin_3*%
%TO.N,/A2*%
X155880000Y-103500000D03*
%TO.P,J16,4,Pin_4*%
%TO.N,/A3*%
X158420000Y-103500000D03*
%TO.P,J16,5,Pin_5*%
%TO.N,/A4*%
X160960000Y-103500000D03*
%TO.P,J16,6,Pin_6*%
%TO.N,/A5*%
X163500000Y-103500000D03*
%TD*%
D15*
%TO.P,J22,1,Pin_1*%
%TO.N,Net-(J22-Pin_1)*%
X128960000Y-35000000D03*
D16*
%TO.P,J22,2,Pin_2*%
%TO.N,Net-(J22-Pin_2)*%
X131500000Y-35000000D03*
%TO.P,J22,3,Pin_3*%
%TO.N,Net-(J22-Pin_3)*%
X134040000Y-35000000D03*
%TO.P,J22,4,Pin_4*%
%TO.N,Net-(J22-Pin_4)*%
X136580000Y-35000000D03*
%TD*%
D18*
%TO.P,R2,1*%
%TO.N,+5V*%
X150800000Y-90000000D03*
%TO.P,R2,2*%
%TO.N,Net-(D2-A)*%
X153340000Y-90000000D03*
%TD*%
D19*
%TO.P,J11,1,Pin_1*%
%TO.N,/4*%
X153080000Y-57500000D03*
D16*
%TO.P,J11,2,Pin_2*%
%TO.N,/\u002A5*%
X150540000Y-57500000D03*
%TO.P,J11,3,Pin_3*%
%TO.N,/\u002A6*%
X148000000Y-57500000D03*
%TO.P,J11,4,Pin_4*%
%TO.N,/7*%
X145460000Y-57500000D03*
%TD*%
D13*
%TO.P,J8,1,Pin_1*%
%TO.N,+5V*%
X175000000Y-68720000D03*
D14*
%TO.P,J8,2,Pin_2*%
%TO.N,/A2*%
X177500000Y-68720000D03*
%TO.P,J8,3,Pin_3*%
%TO.N,GND*%
X180000000Y-68720000D03*
%TD*%
D20*
%TO.P,D2,1,K*%
%TO.N,GND*%
X150800000Y-83000000D03*
D21*
%TO.P,D2,2,A*%
%TO.N,Net-(D2-A)*%
X153340000Y-83000000D03*
%TD*%
D13*
%TO.P,J18,1,Pin_1*%
%TO.N,+5V*%
X175000000Y-98000000D03*
D14*
%TO.P,J18,2,Pin_2*%
%TO.N,/A5*%
X177500000Y-98000000D03*
%TO.P,J18,3,Pin_3*%
%TO.N,GND*%
X180000000Y-98000000D03*
%TD*%
D18*
%TO.P,R25,1*%
%TO.N,+3V3*%
X141280000Y-88000000D03*
%TO.P,R25,2*%
%TO.N,Net-(U2-INT)*%
X143820000Y-88000000D03*
%TD*%
D13*
%TO.P,J6,1,Pin_1*%
%TO.N,+5V*%
X175000000Y-58960000D03*
D14*
%TO.P,J6,2,Pin_2*%
%TO.N,/A1*%
X177500000Y-58960000D03*
%TO.P,J6,3,Pin_3*%
%TO.N,GND*%
X180000000Y-58960000D03*
%TD*%
D10*
%TO.P,J5,1,Pin_1*%
%TO.N,MISO*%
X163624700Y-69552200D03*
D17*
%TO.P,J5,2,Pin_2*%
%TO.N,+5V*%
X166164700Y-69552200D03*
%TO.P,J5,3,Pin_3*%
%TO.N,SCLK*%
X163624700Y-72092200D03*
%TO.P,J5,4,Pin_4*%
%TO.N,MOSI*%
X166164700Y-72092200D03*
%TO.P,J5,5,Pin_5*%
%TO.N,unconnected-(J5-Pin_5-Pad5)*%
X163624700Y-74632200D03*
%TO.P,J5,6,Pin_6*%
%TO.N,GND*%
X166164700Y-74632200D03*
%TD*%
D13*
%TO.P,J9,1,Pin_1*%
%TO.N,+5V*%
X175000000Y-78480000D03*
D14*
%TO.P,J9,2,Pin_2*%
%TO.N,/A3*%
X177500000Y-78480000D03*
%TO.P,J9,3,Pin_3*%
%TO.N,GND*%
X180000000Y-78480000D03*
%TD*%
D12*
%TO.P,C3,1*%
%TO.N,/A2*%
X186500000Y-70000000D03*
%TO.P,C3,2*%
%TO.N,GND*%
X186500000Y-67500000D03*
%TD*%
D13*
%TO.P,J13,1,Pin_1*%
%TO.N,/8*%
X161500000Y-87000000D03*
D14*
%TO.P,J13,2,Pin_2*%
%TO.N,GND*%
X164000000Y-87000000D03*
%TD*%
D15*
%TO.P,J25,1,Pin_1*%
%TO.N,Net-(J24-Pin_1)*%
X154760000Y-110000000D03*
D16*
%TO.P,J25,2,Pin_2*%
%TO.N,Net-(J24-Pin_2)*%
X157300000Y-110000000D03*
%TO.P,J25,3,Pin_3*%
%TO.N,Net-(J24-Pin_3)*%
X159840000Y-110000000D03*
%TO.P,J25,4,Pin_4*%
%TO.N,Net-(J24-Pin_4)*%
X162380000Y-110000000D03*
%TO.P,J25,5,Pin_5*%
%TO.N,Net-(J24-Pin_5)*%
X164920000Y-110000000D03*
%TO.P,J25,6,Pin_6*%
%TO.N,Net-(J24-Pin_6)*%
X167460000Y-110000000D03*
%TO.P,J25,7,Pin_7*%
%TO.N,Net-(J24-Pin_7)*%
X170000000Y-110000000D03*
%TO.P,J25,8,Pin_8*%
%TO.N,Net-(J24-Pin_8)*%
X172540000Y-110000000D03*
%TD*%
D15*
%TO.P,J23,1,Pin_1*%
%TO.N,Net-(J22-Pin_1)*%
X141500000Y-35000000D03*
D16*
%TO.P,J23,2,Pin_2*%
%TO.N,Net-(J22-Pin_2)*%
X144040000Y-35000000D03*
%TO.P,J23,3,Pin_3*%
%TO.N,Net-(J22-Pin_3)*%
X146580000Y-35000000D03*
%TO.P,J23,4,Pin_4*%
%TO.N,Net-(J22-Pin_4)*%
X149120000Y-35000000D03*
%TD*%
D22*
%TO.P,U2,A1,GND_1*%
%TO.N,GND*%
X117500000Y-87320000D03*
D23*
%TO.P,U2,A2,GND_2*%
X120040000Y-87320000D03*
%TO.P,U2,A3,MOSI*%
%TO.N,MOSI*%
X122580000Y-87320000D03*
%TO.P,U2,A4,SCLK*%
%TO.N,SCLK*%
X125120000Y-87320000D03*
%TO.P,U2,A5,CS*%
%TO.N,SS*%
X127660000Y-87320000D03*
%TO.P,U2,A6,INT*%
%TO.N,Net-(U2-INT)*%
X130200000Y-87320000D03*
D22*
%TO.P,U2,B1,GND_3*%
%TO.N,GND*%
X117500000Y-67000000D03*
D23*
%TO.P,U2,B2,3V3_1*%
%TO.N,+3V3*%
X120040000Y-67000000D03*
%TO.P,U2,B3,3V3_2*%
X122580000Y-67000000D03*
%TO.P,U2,B4,NC*%
%TO.N,unconnected-(U2-NC-PadB4)*%
X125120000Y-67000000D03*
%TO.P,U2,B5,RST*%
%TO.N,ES1_RST*%
X127660000Y-67000000D03*
%TO.P,U2,B6,MISO*%
%TO.N,MISO*%
X130200000Y-67000000D03*
%TD*%
D12*
%TO.P,C5,1*%
%TO.N,/A4*%
X186500000Y-89500000D03*
%TO.P,C5,2*%
%TO.N,GND*%
X186500000Y-87000000D03*
%TD*%
%TO.P,C6,1*%
%TO.N,/A5*%
X185500000Y-99000000D03*
%TO.P,C6,2*%
%TO.N,GND*%
X185500000Y-96500000D03*
%TD*%
D10*
%TO.P,J14,1,Pin_1*%
%TO.N,/7*%
X146000000Y-42000000D03*
D17*
%TO.P,J14,2,Pin_2*%
%TO.N,/\u002A6*%
X148540000Y-42000000D03*
%TO.P,J14,3,Pin_3*%
%TO.N,/\u002A5*%
X151080000Y-42000000D03*
%TO.P,J14,4,Pin_4*%
%TO.N,/4*%
X153620000Y-42000000D03*
%TO.P,J14,5,Pin_5*%
%TO.N,/\u002A3*%
X156160000Y-42000000D03*
%TO.P,J14,6,Pin_6*%
%TO.N,/2*%
X158700000Y-42000000D03*
%TO.P,J14,7,Pin_7*%
%TO.N,/COL2*%
X161240000Y-42000000D03*
%TO.P,J14,8,Pin_8*%
%TO.N,/COL1*%
X163780000Y-42000000D03*
%TD*%
D13*
%TO.P,J7,1,Pin_1*%
%TO.N,+5V*%
X175000000Y-49200000D03*
D14*
%TO.P,J7,2,Pin_2*%
%TO.N,/A0*%
X177500000Y-49200000D03*
%TO.P,J7,3,Pin_3*%
%TO.N,GND*%
X180000000Y-49200000D03*
%TD*%
D18*
%TO.P,R1,1*%
%TO.N,/13*%
X124780000Y-57000000D03*
%TO.P,R1,2*%
%TO.N,Net-(D1-A)*%
X127320000Y-57000000D03*
%TD*%
D19*
%TO.P,J12,1,Pin_1*%
%TO.N,/COL1*%
X165540000Y-57500000D03*
D16*
%TO.P,J12,2,Pin_2*%
%TO.N,/COL2*%
X163000000Y-57500000D03*
%TO.P,J12,3,Pin_3*%
%TO.N,/2*%
X160460000Y-57500000D03*
%TO.P,J12,4,Pin_4*%
%TO.N,/\u002A3*%
X157920000Y-57500000D03*
%TD*%
D19*
%TO.P,J19,1,Pin_1*%
%TO.N,+5V*%
X141000000Y-57500000D03*
D16*
%TO.P,J19,2,Pin_2*%
%TO.N,GND*%
X138460000Y-57500000D03*
%TO.P,J19,3,Pin_3*%
%TO.N,ES1_RST*%
X135920000Y-57500000D03*
%TO.P,J19,4,Pin_4*%
%TO.N,/12*%
X133380000Y-57500000D03*
%TD*%
D15*
%TO.P,J24,1,Pin_1*%
%TO.N,Net-(J24-Pin_1)*%
X129220000Y-110150000D03*
D16*
%TO.P,J24,2,Pin_2*%
%TO.N,Net-(J24-Pin_2)*%
X131760000Y-110150000D03*
%TO.P,J24,3,Pin_3*%
%TO.N,Net-(J24-Pin_3)*%
X134300000Y-110150000D03*
%TO.P,J24,4,Pin_4*%
%TO.N,Net-(J24-Pin_4)*%
X136840000Y-110150000D03*
%TO.P,J24,5,Pin_5*%
%TO.N,Net-(J24-Pin_5)*%
X139380000Y-110150000D03*
%TO.P,J24,6,Pin_6*%
%TO.N,Net-(J24-Pin_6)*%
X141920000Y-110150000D03*
%TO.P,J24,7,Pin_7*%
%TO.N,Net-(J24-Pin_7)*%
X144460000Y-110150000D03*
%TO.P,J24,8,Pin_8*%
%TO.N,Net-(J24-Pin_8)*%
X147000000Y-110150000D03*
%TD*%
D20*
%TO.P,D1,1,K*%
%TO.N,GND*%
X118500000Y-57000000D03*
D21*
%TO.P,D1,2,A*%
%TO.N,Net-(D1-A)*%
X121040000Y-57000000D03*
%TD*%
D10*
%TO.P,J15,1,Pin_1*%
%TO.N,/A5*%
X118640000Y-42000000D03*
D17*
%TO.P,J15,2,Pin_2*%
%TO.N,/A4*%
X121180000Y-42000000D03*
%TO.P,J15,3,Pin_3*%
%TO.N,/AREF*%
X123720000Y-42000000D03*
%TO.P,J15,4,Pin_4*%
%TO.N,GND*%
X126260000Y-42000000D03*
%TO.P,J15,5,Pin_5*%
%TO.N,/13*%
X128800000Y-42000000D03*
%TO.P,J15,6,Pin_6*%
%TO.N,/12*%
X131340000Y-42000000D03*
%TO.P,J15,7,Pin_7*%
%TO.N,ES1_RST*%
X133880000Y-42000000D03*
%TO.P,J15,8,Pin_8*%
%TO.N,SS*%
X136420000Y-42000000D03*
%TO.P,J15,9,Pin_9*%
%TO.N,/\u002A9*%
X138960000Y-42000000D03*
%TO.P,J15,10,Pin_10*%
%TO.N,/8*%
X141500000Y-42000000D03*
%TD*%
D10*
%TO.P,J17,1,Pin_1*%
%TO.N,unconnected-(J17-Pin_1-Pad1)*%
X128220000Y-103500000D03*
D17*
%TO.P,J17,2,Pin_2*%
%TO.N,/IOREF*%
X130760000Y-103500000D03*
%TO.P,J17,3,Pin_3*%
%TO.N,/~{RESET}*%
X133300000Y-103500000D03*
%TO.P,J17,4,Pin_4*%
%TO.N,+3V3*%
X135840000Y-103500000D03*
%TO.P,J17,5,Pin_5*%
%TO.N,+5V*%
X138380000Y-103500000D03*
%TO.P,J17,6,Pin_6*%
%TO.N,GND*%
X140920000Y-103500000D03*
%TO.P,J17,7,Pin_7*%
X143460000Y-103500000D03*
%TO.P,J17,8,Pin_8*%
%TO.N,VCC*%
X146000000Y-103500000D03*
%TD*%
D24*
%TO.N,/A0*%
X158119500Y-83180300D03*
%TD*%
D25*
%TO.N,GND*%
X152030300Y-83000000D02*
X152030300Y-82538500D01*
X152799100Y-81769700D02*
X159027200Y-81769700D01*
X140033200Y-99247100D02*
X140920000Y-100134000D01*
X138460000Y-57500000D02*
X137259700Y-57500000D01*
X126416000Y-52527900D02*
X123741000Y-52527900D01*
X129781200Y-90000200D02*
X136830000Y-97049000D01*
X186500000Y-67500000D02*
X182400300Y-67500000D01*
X137259700Y-57500000D02*
X137259700Y-58100100D01*
X119730300Y-56538600D02*
X119730300Y-57000000D01*
X126416000Y-52527900D02*
X126416000Y-49200000D01*
X123741000Y-52527900D02*
X119730300Y-56538600D01*
X143460000Y-103500000D02*
X140920000Y-103500000D01*
X159027200Y-81769700D02*
X166164700Y-74632200D01*
X139443000Y-98657000D02*
X140033200Y-99247100D01*
X178693600Y-86933600D02*
X180000000Y-88240000D01*
X140640000Y-97460000D02*
X140640000Y-98050100D01*
X186500000Y-48000000D02*
X182380300Y-48000000D01*
X136830000Y-97049000D02*
X136830000Y-97885400D01*
X118500000Y-57000000D02*
X119730300Y-57000000D01*
X182400300Y-67500000D02*
X181180300Y-68720000D01*
X140640000Y-98050100D02*
X141409600Y-98050100D01*
X117500000Y-87320000D02*
X120040000Y-87320000D01*
X182380300Y-48000000D02*
X181180300Y-49200000D01*
X165180300Y-87000000D02*
X165246700Y-86933600D01*
X141409600Y-98050100D02*
X141999700Y-97460000D01*
X143180000Y-97460000D02*
X141999700Y-97460000D01*
X180000000Y-68720000D02*
X181180300Y-68720000D01*
X132822400Y-58934300D02*
X126416000Y-52527900D01*
X165246700Y-86933600D02*
X178693600Y-86933600D01*
X122720200Y-90000200D02*
X129781200Y-90000200D01*
X186500000Y-87000000D02*
X182420300Y-87000000D01*
X140033200Y-99247100D02*
X140640000Y-98640300D01*
X164000000Y-87000000D02*
X165180300Y-87000000D01*
X182420300Y-87000000D02*
X181180300Y-88240000D01*
X180000000Y-88240000D02*
X181180300Y-88240000D01*
X120040000Y-87320000D02*
X122720200Y-90000200D01*
X152030300Y-82538500D02*
X152799100Y-81769700D01*
X180000000Y-49200000D02*
X181180300Y-49200000D01*
X150800000Y-83000000D02*
X152030300Y-83000000D01*
X140640000Y-98050100D02*
X140640000Y-98640300D01*
X136425500Y-58934300D02*
X132822400Y-58934300D01*
X137601600Y-98657000D02*
X139443000Y-98657000D01*
X140920000Y-100134000D02*
X140920000Y-103500000D01*
X136830000Y-97885400D02*
X137601600Y-98657000D01*
X137259700Y-58100100D02*
X136425500Y-58934300D01*
%TO.N,+5V*%
X150800000Y-90000000D02*
X150800000Y-89608500D01*
X175000000Y-78480000D02*
X174167800Y-77647800D01*
X170930000Y-82550000D02*
X175000000Y-78480000D01*
X166164700Y-69552200D02*
X157022100Y-60409600D01*
X138100000Y-97460000D02*
X139280300Y-97460000D01*
X143909600Y-60409600D02*
X141000000Y-57500000D01*
X174167800Y-77647800D02*
X174167800Y-69552200D01*
X150800000Y-89608500D02*
X157858500Y-82550000D01*
X146371500Y-90000000D02*
X150800000Y-90000000D01*
X157858500Y-82550000D02*
X170930000Y-82550000D01*
X139280300Y-97460000D02*
X139280300Y-97091200D01*
X175000000Y-49200000D02*
X175000000Y-58960000D01*
X139280300Y-97091200D02*
X146371500Y-90000000D01*
X157022100Y-60409600D02*
X143909600Y-60409600D01*
X174167800Y-69552200D02*
X166164700Y-69552200D01*
X174167800Y-69552200D02*
X175000000Y-68720000D01*
D26*
%TO.N,/A0*%
X151953300Y-89346500D02*
X158119500Y-83180300D01*
X151953300Y-95153400D02*
X151953300Y-89346500D01*
X150800000Y-96306700D02*
X151953300Y-95153400D01*
X179520800Y-50500000D02*
X186500000Y-50500000D01*
X178653300Y-49632500D02*
X179520800Y-50500000D01*
X150800000Y-97460000D02*
X150800000Y-96306700D01*
X178653300Y-49200000D02*
X178653300Y-49632500D01*
X177500000Y-49200000D02*
X178653300Y-49200000D01*
%TO.N,/A1*%
X177500000Y-58960000D02*
X178653300Y-58960000D01*
X162875700Y-83406600D02*
X153340000Y-92942300D01*
X153340000Y-92942300D02*
X153340000Y-97460000D01*
X176250500Y-64010300D02*
X176250500Y-79387200D01*
X179760800Y-60500000D02*
X176250500Y-64010300D01*
X176250500Y-79387200D02*
X172231100Y-83406600D01*
X179760800Y-60500000D02*
X186500000Y-60500000D01*
X178653300Y-59392500D02*
X179760800Y-60500000D01*
X178653300Y-58960000D02*
X178653300Y-59392500D01*
X172231100Y-83406600D02*
X162875700Y-83406600D01*
%TO.N,/A2*%
X178653300Y-68720000D02*
X178653300Y-69152500D01*
X177500000Y-68720000D02*
X178653300Y-68720000D01*
X178653300Y-69152500D02*
X179500800Y-70000000D01*
X179500800Y-70000000D02*
X186500000Y-70000000D01*
%TO.N,/A3*%
X164307200Y-84906400D02*
X172351900Y-84906400D01*
X172351900Y-84906400D02*
X177500000Y-79758300D01*
X162750500Y-86463100D02*
X164307200Y-84906400D01*
X162750500Y-91976200D02*
X162750500Y-86463100D01*
X186500000Y-80000000D02*
X177741700Y-80000000D01*
X177741700Y-80000000D02*
X177500000Y-79758300D01*
X158420000Y-96306700D02*
X162750500Y-91976200D01*
X177500000Y-78480000D02*
X177500000Y-79758300D01*
X158420000Y-97460000D02*
X158420000Y-96306700D01*
%TO.N,/4*%
X153080000Y-50613300D02*
X153080000Y-57500000D01*
X153340000Y-50353300D02*
X153080000Y-50613300D01*
X153340000Y-49200000D02*
X153340000Y-50353300D01*
%TO.N,/2*%
X158420000Y-49200000D02*
X158420000Y-50353300D01*
X158420000Y-50353300D02*
X160460000Y-52393300D01*
X160460000Y-52393300D02*
X160460000Y-57500000D01*
%TO.N,/\u002A3*%
X155880000Y-49200000D02*
X155880000Y-50353300D01*
X155880000Y-50353300D02*
X157920000Y-52393300D01*
X157920000Y-52393300D02*
X157920000Y-57500000D01*
%TO.N,MOSI*%
X164894700Y-73362200D02*
X166164700Y-72092200D01*
X122580000Y-87320000D02*
X123744200Y-88484200D01*
X123744200Y-88484200D02*
X125565300Y-88484200D01*
X126390000Y-87659500D02*
X126390000Y-86977700D01*
X126390000Y-86977700D02*
X140005500Y-73362200D01*
X140005500Y-73362200D02*
X164894700Y-73362200D01*
X125565300Y-88484200D02*
X126390000Y-87659500D01*
%TO.N,MISO*%
X161397700Y-68478500D02*
X162471400Y-69552200D01*
X161379600Y-68478400D02*
X161383200Y-68478400D01*
X159901200Y-67000000D02*
X161379600Y-68478400D01*
X163624700Y-69552200D02*
X162471400Y-69552200D01*
X161383300Y-68478500D02*
X161397700Y-68478500D01*
X130200000Y-67000000D02*
X159901200Y-67000000D01*
X161383200Y-68478400D02*
X161383300Y-68478500D01*
%TO.N,Net-(U2-INT)*%
X130533300Y-86986700D02*
X142806700Y-86986700D01*
X130200000Y-87320000D02*
X130533300Y-86986700D01*
X142806700Y-86986700D02*
X143820000Y-88000000D01*
%TO.N,SCLK*%
X125120000Y-87320000D02*
X140347800Y-72092200D01*
X140347800Y-72092200D02*
X163624700Y-72092200D01*
%TO.N,ES1_RST*%
X134036000Y-50353300D02*
X135920000Y-52237300D01*
X134036000Y-49200000D02*
X134036000Y-50353300D01*
X135920000Y-52237300D02*
X135920000Y-57500000D01*
%TO.N,/12*%
X133380000Y-52237300D02*
X133380000Y-57500000D01*
X131496000Y-49200000D02*
X131496000Y-50353300D01*
X131496000Y-50353300D02*
X133380000Y-52237300D01*
%TO.N,/A4*%
X162113300Y-97460000D02*
X162113300Y-97171700D01*
X186500000Y-89500000D02*
X186419200Y-89580800D01*
X160960000Y-97460000D02*
X162113300Y-97460000D01*
X177500000Y-88240000D02*
X176346700Y-88240000D01*
X169558400Y-89726600D02*
X175628400Y-89726600D01*
X179541900Y-89580800D02*
X178653300Y-88692200D01*
X178653300Y-88692200D02*
X178653300Y-88240000D01*
X175628400Y-89726600D02*
X176346700Y-89008300D01*
X177500000Y-88240000D02*
X178653300Y-88240000D01*
X176346700Y-89008300D02*
X176346700Y-88240000D01*
X162113300Y-97171700D02*
X169558400Y-89726600D01*
X186419200Y-89580800D02*
X179541900Y-89580800D01*
%TO.N,/COL2*%
X160960000Y-50353300D02*
X163000000Y-52393300D01*
X160960000Y-49200000D02*
X160960000Y-50353300D01*
X163000000Y-52393300D02*
X163000000Y-57500000D01*
%TO.N,/COL1*%
X163500000Y-49200000D02*
X163500000Y-50353300D01*
X163500000Y-50353300D02*
X165540000Y-52393300D01*
X165540000Y-52393300D02*
X165540000Y-57500000D01*
%TO.N,Net-(D1-A)*%
X122047500Y-55992500D02*
X126312500Y-55992500D01*
X121040000Y-57000000D02*
X122047500Y-55992500D01*
X126312500Y-55992500D02*
X127320000Y-57000000D01*
%TO.N,/A5*%
X175805900Y-96690900D02*
X176346700Y-97231700D01*
X165422400Y-96690900D02*
X175805900Y-96690900D01*
X176346700Y-97231700D02*
X176346700Y-98000000D01*
X177500000Y-98000000D02*
X176346700Y-98000000D01*
X163500000Y-97460000D02*
X164653300Y-97460000D01*
X164653300Y-97460000D02*
X165422400Y-96690900D01*
%TO.N,Net-(J20-Pin_4)*%
X168123300Y-36450000D02*
X166673300Y-35000000D01*
X178620000Y-35000000D02*
X177446700Y-35000000D01*
X177446700Y-35000000D02*
X177446700Y-35586600D01*
X165500000Y-35000000D02*
X166673300Y-35000000D01*
X176583300Y-36450000D02*
X168123300Y-36450000D01*
X177446700Y-35586600D02*
X176583300Y-36450000D01*
%TO.N,Net-(J20-Pin_2)*%
X162466000Y-33593900D02*
X161593300Y-34466600D01*
X171913900Y-33593900D02*
X162466000Y-33593900D01*
X172366700Y-34046700D02*
X171913900Y-33593900D01*
X172366700Y-35000000D02*
X172366700Y-34046700D01*
X161593300Y-34466600D02*
X161593300Y-35000000D01*
X160420000Y-35000000D02*
X161593300Y-35000000D01*
X173540000Y-35000000D02*
X172366700Y-35000000D01*
%TO.N,Net-(J22-Pin_2)*%
X133490200Y-33596500D02*
X142405400Y-33596500D01*
X144040000Y-35000000D02*
X142866700Y-35000000D01*
X142866700Y-34057800D02*
X142866700Y-35000000D01*
X132673300Y-35000000D02*
X132673300Y-34413400D01*
X142405400Y-33596500D02*
X142866700Y-34057800D01*
X131500000Y-35000000D02*
X132673300Y-35000000D01*
X132673300Y-34413400D02*
X133490200Y-33596500D01*
%TO.N,Net-(J22-Pin_3)*%
X134040000Y-35000000D02*
X135213300Y-35000000D01*
X145406700Y-35533400D02*
X145406700Y-35000000D01*
X135213300Y-35586600D02*
X136047000Y-36420300D01*
X135213300Y-35000000D02*
X135213300Y-35586600D01*
X146580000Y-35000000D02*
X145406700Y-35000000D01*
X136047000Y-36420300D02*
X144519800Y-36420300D01*
X144519800Y-36420300D02*
X145406700Y-35533400D01*
%TO.N,Net-(J24-Pin_6)*%
X150403200Y-108344700D02*
X153462500Y-111404000D01*
X144312000Y-108344700D02*
X150403200Y-108344700D01*
X166286700Y-110533400D02*
X166286700Y-110000000D01*
X143093300Y-109563400D02*
X144312000Y-108344700D01*
X143093300Y-110150000D02*
X143093300Y-109563400D01*
X167460000Y-110000000D02*
X166286700Y-110000000D01*
X165416100Y-111404000D02*
X166286700Y-110533400D01*
X141920000Y-110150000D02*
X143093300Y-110150000D01*
X153462500Y-111404000D02*
X165416100Y-111404000D01*
%TO.N,Net-(J24-Pin_2)*%
X156126700Y-109057800D02*
X156126700Y-110000000D01*
X155007300Y-107938400D02*
X156126700Y-109057800D01*
X131760000Y-110150000D02*
X132933300Y-110150000D01*
X157300000Y-110000000D02*
X156126700Y-110000000D01*
X132933300Y-110736600D02*
X133760600Y-111563900D01*
X132933300Y-110150000D02*
X132933300Y-110736600D01*
X138110000Y-110779100D02*
X138110000Y-109533500D01*
X139705100Y-107938400D02*
X155007300Y-107938400D01*
X133760600Y-111563900D02*
X137325200Y-111563900D01*
X138110000Y-109533500D02*
X139705100Y-107938400D01*
X137325200Y-111563900D02*
X138110000Y-110779100D01*
%TO.N,Net-(J24-Pin_4)*%
X159262200Y-107522100D02*
X161206700Y-109466600D01*
X139467900Y-107522100D02*
X159262200Y-107522100D01*
X161206700Y-109466600D02*
X161206700Y-110000000D01*
X136840000Y-110150000D02*
X139467900Y-107522100D01*
X162380000Y-110000000D02*
X161206700Y-110000000D01*
%TO.N,Net-(J24-Pin_7)*%
X146448600Y-108748100D02*
X148587200Y-108748100D01*
X168826700Y-110533400D02*
X168826700Y-110000000D01*
X145633300Y-110150000D02*
X145633300Y-109563400D01*
X148587200Y-108748100D02*
X151684200Y-111845100D01*
X167515000Y-111845100D02*
X168826700Y-110533400D01*
X144460000Y-110150000D02*
X145633300Y-110150000D01*
X145633300Y-109563400D02*
X146448600Y-108748100D01*
X151684200Y-111845100D02*
X167515000Y-111845100D01*
X170000000Y-110000000D02*
X168826700Y-110000000D01*
%TO.N,Net-(J24-Pin_8)*%
X171366700Y-110533400D02*
X171366700Y-110000000D01*
X150280000Y-112256700D02*
X169643400Y-112256700D01*
X172540000Y-110000000D02*
X171366700Y-110000000D01*
X148173300Y-110150000D02*
X150280000Y-112256700D01*
X147000000Y-110150000D02*
X148173300Y-110150000D01*
X169643400Y-112256700D02*
X171366700Y-110533400D01*
%TD*%
M02*
