  0
SECTION
  2
HEADER
  9
$ANGBASE
  50
0.0
  9
$ANGDIR
  70
1
  9
$MEASUREMENT
  70
1
  0
ENDSEC
  0
SECTION
  2
TABLES
  0
TABLE
  2
LTYPE
  70
4
  0
LTYPE
  5
40F
  2
CONTINUOUS
  70
0
  3
Solid line
  72
65
  73
0
  40
0.0
  0
LTYPE
  5
410
  2
DASHDOT
 70
0
  3
Dash Dot ____ _ ____ _
 72
65
 73
4
 40
2.0
 49
1.25
 49
-0.25
 49
0.25
 49
-0.25
  0
LTYPE
  5
411
  2
DASHED
 70
0
  3
Dashed __ __ __ __ __
 72
65
 73
2
 40
0.75
 49
0.5
 49
-0.25
  0
LTYPE
  5
43B
  2
DOTTED
 70
0
  3
Dotted .  .  .  .
 72
65
 73
2
 40
0.2
 49
0.0
 49
-0.2
  0
ENDTAB
  0
TABLE
  2
STYLE
  70
4
  0
STYLE
  2
KICAD
  70
0
  40
0
  41
1
  42
1
  50
0
  71
0
  3
isocp.shx
  0
STYLE
  2
KICADB
  70
0
  40
0
  41
1
  42
1
  50
0
  71
0
  3
isocp.shx
  0
STYLE
  2
KICADI
  70
0
  40
0
  41
1
  42
1
  50
15
  71
0
  3
isocp.shx
  0
STYLE
  2
KICADBI
  70
0
  40
0
  41
1
  42
1
  50
15
  71
0
  3
isocp.shx
  0
ENDTAB
  0
TABLE
  2
LAYER
  70
1
  0
LAYER
  2
BLACK
  70
0
  62
7
  6
CONTINUOUS
  0
ENDTAB
  0
ENDSEC
  0
SECTION
  2
ENTITIES
0
LINE
8
BLACK
6
CONTINUOUS
10
106.7184559999999891
20
-81.7212899999999962
11
106.806681999999995
21
-75.8221530000000001
0
LINE
8
BLACK
6
CONTINUOUS
10
80.0229339999999922
20
-64.4771690000000035
11
76.6689159999999958
21
-61.6628149999999948
0
ARC
8
BLACK
10
67.3481390000000033
20
-72.6316269999999946
40
4.1275013783676915
50
-265.00003658
51
-87.71650233
0
CIRCLE
8
BLACK
10
113.5267489999999952
20
-68.5915219999999977
40
2.15265
0
LINE
8
BLACK
6
CONTINUOUS
10
67.5125969999999995
20
-91.2190069999999906
11
86.2798420000000021
21
-91.2190069999999906
0
ARC
8
BLACK
10
108.7751809999999892
20
-76.1755179999999967
40
1.9999648750421379
50
102.69595529
51
169.82321034
0
ARC
8
BLACK
10
90.9609310000000022
20
-76.5981669999999895
40
15.3521504607256443
50
-62.24469541
51
-26.82763150
0
LINE
8
BLACK
6
CONTINUOUS
10
99.4280059999999963
20
-62.368938
11
96.1513980000000004
21
-60.074631999999994
0
ARC
8
BLACK
10
90.4369399999999928
20
-70.6111779999999953
40
16.4204768365244611
50
102.00505302
51
132.98673005
0
LINE
8
BLACK
6
CONTINUOUS
10
67.5125960000000021
20
-76.7558489999999978
11
67.5125969999999995
21
-77.7749979999999965
0
ARC
8
BLACK
10
90.4374150000000014
20
-70.6115609999999947
40
16.4210726080243283
50
146.97840961
51
170.44241112
0
ARC
8
BLACK
10
105.4399310000000014
20
-81.7021670000000029
40
1.2786671513184529
50
-87.15394538
51
-0.85691322
0
ARC
8
BLACK
10
90.4379229999999978
20
-70.6112059999999957
40
16.4207244468266147
50
59.76244844
51
88.01670411
0
CIRCLE
8
BLACK
10
67.3481439999999907
20
-72.6316269999999946
40
2.15265
0
LINE
8
BLACK
6
CONTINUOUS
10
101.8939539999999937
20
-58.8471890000000002
11
99.4280059999999963
21
-62.368938
0
ARC
8
BLACK
10
105.5530689999999936
20
-83.9780190000000033
40
0.9999960881120667
50
92.84582849
51
153.17245479
0
ARC
8
BLACK
10
113.5267499999999927
20
-68.5915219999999977
40
4.127500130595009
50
-91.60672837
51
95.00001031
0
LINE
8
BLACK
6
CONTINUOUS
10
96.1513980000000004
20
-60.074631999999994
11
98.7071749999999923
21
-56.4246049999999997
0
LINE
8
BLACK
6
CONTINUOUS
10
74.2442800000000034
20
-67.8850249999999988
11
66.9884069999999952
21
-68.5198319999999939
0
LINE
8
BLACK
6
CONTINUOUS
10
67.5125969999999995
20
-77.7749979999999965
11
67.5125969999999995
21
-91.2190069999999906
0
ARC
8
BLACK
10
90.437966000000003
20
-70.611148
40
16.4204256481433966
50
19.55686111
51
45.75988363
0
LINE
8
BLACK
6
CONTINUOUS
10
113.1670139999999947
20
-64.4797289999999919
11
105.9110939999999914
21
-65.1145389999999935
0
LINE
8
BLACK
6
CONTINUOUS
10
87.4030169999999913
20
-58.9104159999999979
11
87.0215149999999937
21
-54.54983
0
LINE
8
BLACK
6
CONTINUOUS
10
91.0062139999999999
20
-54.2003190000000004
11
91.3877959999999945
21
-58.5617929999999944
0
LINE
8
BLACK
6
CONTINUOUS
10
108.3356349999999964
20
-74.2244529999999969
11
113.411018999999996
21
-72.7173999999999978
0
CIRCLE
8
BLACK
10
90.8924599999999998
20
-75.8124090000000024
40
1.0436269999999999
0
LINE
8
BLACK
6
CONTINUOUS
10
86.2798420000000021
20
-91.2190069999999906
11
98.1103739999999931
21
-90.1839689999999905
0
LINE
8
BLACK
6
CONTINUOUS
10
91.3877959999999945
20
-58.5617929999999944
11
87.4030169999999913
21
-58.9104159999999979
0
LINE
8
BLACK
6
CONTINUOUS
10
79.2409839999999974
20
-58.5994089999999943
11
82.5940839999999952
21
-61.4129919999999956
0
LINE
8
BLACK
6
CONTINUOUS
10
82.5940839999999952
20
-61.4129919999999956
11
80.0229339999999922
21
-64.4771690000000035
0
LINE
8
BLACK
6
CONTINUOUS
10
76.651371999999995
20
-76.7766029999999944
11
78.4513719999999921
21
-78.5766029999999915
0
LINE
8
BLACK
6
CONTINUOUS
10
78.4513719999999921
20
-76.7766029999999944
11
76.651371999999995
21
-78.5766029999999915
0
LINE
8
BLACK
6
CONTINUOUS
10
103.5486279999999937
20
-74.4233969999999943
11
105.3486279999999908
21
-76.2233969999999914
0
LINE
8
BLACK
6
CONTINUOUS
10
105.3486279999999908
20
-74.4233969999999943
11
103.5486279999999937
21
-76.2233969999999914
0
CIRCLE
8
BLACK
10
81.8014829999999904
20
-68.7722969999999947
40
1.5
0
CIRCLE
8
BLACK
10
91.9369239999999905
20
-87.2090929999999958
40
1.5
0
CIRCLE
8
BLACK
10
98.7177409999999895
20
-67.3023549999999915
40
1.5
0
LINE
8
BLACK
6
CONTINUOUS
10
90.4770659999999936
20
-68.2228319999999968
11
90.4770659999999936
21
-72.8228319999999911
0
LINE
8
BLACK
6
CONTINUOUS
10
88.1770659999999964
20
-70.522831999999994
11
92.7770659999999907
21
-70.522831999999994
0
LINE
8
BLACK
6
CONTINUOUS
10
65.8234089999999981
20
-94.3388449999999921
11
65.8234089999999981
21
-92.3388449999999921
0
LINE
8
BLACK
6
CONTINUOUS
10
65.8234089999999981
20
-92.3388449999999921
11
66.2995990000000006
21
-92.3388449999999921
0
LINE
8
BLACK
6
CONTINUOUS
10
66.2995990000000006
20
-92.3388449999999921
11
66.5853139999999968
21
-92.4340830000000011
0
LINE
8
BLACK
6
CONTINUOUS
10
66.5853139999999968
20
-92.4340830000000011
11
66.7757900000000006
21
-92.6245589999999908
0
LINE
8
BLACK
6
CONTINUOUS
10
66.7757900000000006
20
-92.6245589999999908
11
66.8710279999999955
21
-92.8150349999999946
0
LINE
8
BLACK
6
CONTINUOUS
10
66.8710279999999955
20
-92.8150349999999946
11
66.9662659999999903
21
-93.1959870000000024
0
LINE
8
BLACK
6
CONTINUOUS
10
66.9662659999999903
20
-93.1959870000000024
11
66.9662659999999903
21
-93.4817019999999985
0
LINE
8
BLACK
6
CONTINUOUS
10
66.9662659999999903
20
-93.4817019999999985
11
66.8710279999999955
21
-93.862653999999992
0
LINE
8
BLACK
6
CONTINUOUS
10
66.8710279999999955
20
-93.862653999999992
11
66.7757900000000006
21
-94.0531299999999959
0
LINE
8
BLACK
6
CONTINUOUS
10
66.7757900000000006
20
-94.0531299999999959
11
66.5853139999999968
21
-94.2436069999999972
0
LINE
8
BLACK
6
CONTINUOUS
10
66.5853139999999968
20
-94.2436069999999972
11
66.2995990000000006
21
-94.3388449999999921
0
LINE
8
BLACK
6
CONTINUOUS
10
66.2995990000000006
20
-94.3388449999999921
11
65.8234089999999981
21
-94.3388449999999921
0
LINE
8
BLACK
6
CONTINUOUS
10
67.8234089999999981
20
-94.3388449999999921
11
67.8234089999999981
21
-93.0055109999999985
0
LINE
8
BLACK
6
CONTINUOUS
10
67.8234089999999981
20
-93.3864639999999895
11
67.9186469999999929
21
-93.1959870000000024
0
LINE
8
BLACK
6
CONTINUOUS
10
67.9186469999999929
20
-93.1959870000000024
11
68.0138850000000019
21
-93.1007489999999933
0
LINE
8
BLACK
6
CONTINUOUS
10
68.0138850000000019
20
-93.1007489999999933
11
68.2043609999999916
21
-93.0055109999999985
0
LINE
8
BLACK
6
CONTINUOUS
10
68.2043609999999916
20
-93.0055109999999985
11
68.3948379999999929
21
-93.0055109999999985
0
LINE
8
BLACK
6
CONTINUOUS
10
69.0615039999999993
20
-94.3388449999999921
11
69.0615039999999993
21
-93.0055109999999985
0
LINE
8
BLACK
6
CONTINUOUS
10
69.0615039999999993
20
-92.3388449999999921
11
68.9662659999999903
21
-92.4340830000000011
0
LINE
8
BLACK
6
CONTINUOUS
10
68.9662659999999903
20
-92.4340830000000011
11
69.0615039999999993
21
-92.5293209999999959
0
LINE
8
BLACK
6
CONTINUOUS
10
69.0615039999999993
20
-92.5293209999999959
11
69.1567419999999942
21
-92.4340830000000011
0
LINE
8
BLACK
6
CONTINUOUS
10
69.1567419999999942
20
-92.4340830000000011
11
69.0615039999999993
21
-92.3388449999999921
0
LINE
8
BLACK
6
CONTINUOUS
10
69.0615039999999993
20
-92.3388449999999921
11
69.0615039999999993
21
-92.5293209999999959
0
LINE
8
BLACK
6
CONTINUOUS
10
70.2995990000000006
20
-94.3388449999999921
11
70.1091229999999968
21
-94.2436069999999972
0
LINE
8
BLACK
6
CONTINUOUS
10
70.1091229999999968
20
-94.2436069999999972
11
70.0138850000000019
21
-94.0531299999999959
0
LINE
8
BLACK
6
CONTINUOUS
10
70.0138850000000019
20
-94.0531299999999959
11
70.0138850000000019
21
-92.3388449999999921
0
LINE
8
BLACK
6
CONTINUOUS
10
71.347217999999998
20
-94.3388449999999921
11
71.1567419999999942
21
-94.2436069999999972
0
LINE
8
BLACK
6
CONTINUOUS
10
71.1567419999999942
20
-94.2436069999999972
11
71.0615039999999993
21
-94.0531299999999959
0
LINE
8
BLACK
6
CONTINUOUS
10
71.0615039999999993
20
-94.0531299999999959
11
71.0615039999999993
21
-92.3388449999999921
0
LINE
8
BLACK
6
CONTINUOUS
10
73.6329329999999942
20
-94.3388449999999921
11
73.6329329999999942
21
-92.3388449999999921
0
LINE
8
BLACK
6
CONTINUOUS
10
73.6329329999999942
20
-92.3388449999999921
11
74.2995999999999981
21
-93.7674159999999972
0
LINE
8
BLACK
6
CONTINUOUS
10
74.2995999999999981
20
-93.7674159999999972
11
74.9662659999999903
21
-92.3388449999999921
0
LINE
8
BLACK
6
CONTINUOUS
10
74.9662659999999903
20
-92.3388449999999921
11
74.9662659999999903
21
-94.3388449999999921
0
LINE
8
BLACK
6
CONTINUOUS
10
76.7757900000000006
20
-94.3388449999999921
11
76.7757900000000006
21
-93.2912259999999947
0
LINE
8
BLACK
6
CONTINUOUS
10
76.7757900000000006
20
-93.2912259999999947
11
76.6805519999999916
21
-93.1007489999999933
0
LINE
8
BLACK
6
CONTINUOUS
10
76.6805519999999916
20
-93.1007489999999933
11
76.490076000000002
21
-93.0055109999999985
0
LINE
8
BLACK
6
CONTINUOUS
10
76.490076000000002
20
-93.0055109999999985
11
76.1091229999999968
21
-93.0055109999999985
0
LINE
8
BLACK
6
CONTINUOUS
10
76.1091229999999968
20
-93.0055109999999985
11
75.9186469999999929
21
-93.1007489999999933
0
LINE
8
BLACK
6
CONTINUOUS
10
76.7757900000000006
20
-94.2436069999999972
11
76.5853139999999968
21
-94.3388449999999921
0
LINE
8
BLACK
6
CONTINUOUS
10
76.5853139999999968
20
-94.3388449999999921
11
76.1091229999999968
21
-94.3388449999999921
0
LINE
8
BLACK
6
CONTINUOUS
10
76.1091229999999968
20
-94.3388449999999921
11
75.9186469999999929
21
-94.2436069999999972
0
LINE
8
BLACK
6
CONTINUOUS
10
75.9186469999999929
20
-94.2436069999999972
11
75.8234089999999981
21
-94.0531299999999959
0
LINE
8
BLACK
6
CONTINUOUS
10
75.8234089999999981
20
-94.0531299999999959
11
75.8234089999999981
21
-93.862653999999992
0
LINE
8
BLACK
6
CONTINUOUS
10
75.8234089999999981
20
-93.862653999999992
11
75.9186469999999929
21
-93.6721780000000024
0
LINE
8
BLACK
6
CONTINUOUS
10
75.9186469999999929
20
-93.6721780000000024
11
76.1091229999999968
21
-93.5769399999999933
0
LINE
8
BLACK
6
CONTINUOUS
10
76.1091229999999968
20
-93.5769399999999933
11
76.5853139999999968
21
-93.5769399999999933
0
LINE
8
BLACK
6
CONTINUOUS
10
76.5853139999999968
20
-93.5769399999999933
11
76.7757900000000006
21
-93.4817019999999985
0
LINE
8
BLACK
6
CONTINUOUS
10
77.7281710000000032
20
-93.0055109999999985
11
77.7281710000000032
21
-95.0055109999999985
0
LINE
8
BLACK
6
CONTINUOUS
10
77.7281710000000032
20
-93.1007489999999933
11
77.9186469999999929
21
-93.0055109999999985
0
LINE
8
BLACK
6
CONTINUOUS
10
77.9186469999999929
20
-93.0055109999999985
11
78.2995999999999981
21
-93.0055109999999985
0
LINE
8
BLACK
6
CONTINUOUS
10
78.2995999999999981
20
-93.0055109999999985
11
78.490076000000002
21
-93.1007489999999933
0
LINE
8
BLACK
6
CONTINUOUS
10
78.490076000000002
20
-93.1007489999999933
11
78.5853139999999968
21
-93.1959870000000024
0
LINE
8
BLACK
6
CONTINUOUS
10
78.5853139999999968
20
-93.1959870000000024
11
78.6805519999999916
21
-93.3864639999999895
0
LINE
8
BLACK
6
CONTINUOUS
10
78.6805519999999916
20
-93.3864639999999895
11
78.6805519999999916
21
-93.9578920000000011
0
LINE
8
BLACK
6
CONTINUOUS
10
78.6805519999999916
20
-93.9578920000000011
11
78.5853139999999968
21
-94.1483679999999907
0
LINE
8
BLACK
6
CONTINUOUS
10
78.5853139999999968
20
-94.1483679999999907
11
78.490076000000002
21
-94.2436069999999972
0
LINE
8
BLACK
6
CONTINUOUS
10
78.490076000000002
20
-94.2436069999999972
11
78.2995999999999981
21
-94.3388449999999921
0
LINE
8
BLACK
6
CONTINUOUS
10
78.2995999999999981
20
-94.3388449999999921
11
77.9186469999999929
21
-94.3388449999999921
0
LINE
8
BLACK
6
CONTINUOUS
10
77.9186469999999929
20
-94.3388449999999921
11
77.7281710000000032
21
-94.2436069999999972
0
LINE
8
BLACK
6
CONTINUOUS
10
79.5376949999999994
20
-94.1483679999999907
11
79.6329329999999942
21
-94.2436069999999972
0
LINE
8
BLACK
6
CONTINUOUS
10
79.6329329999999942
20
-94.2436069999999972
11
79.5376949999999994
21
-94.3388449999999921
0
LINE
8
BLACK
6
CONTINUOUS
10
79.5376949999999994
20
-94.3388449999999921
11
79.4424569999999903
21
-94.2436069999999972
0
LINE
8
BLACK
6
CONTINUOUS
10
79.4424569999999903
20
-94.2436069999999972
11
79.5376949999999994
21
-94.1483679999999907
0
LINE
8
BLACK
6
CONTINUOUS
10
79.5376949999999994
20
-94.1483679999999907
11
79.5376949999999994
21
-94.3388449999999921
0
LINE
8
BLACK
6
CONTINUOUS
10
79.5376949999999994
20
-93.1007489999999933
11
79.6329329999999942
21
-93.1959870000000024
0
LINE
8
BLACK
6
CONTINUOUS
10
79.6329329999999942
20
-93.1959870000000024
11
79.5376949999999994
21
-93.2912259999999947
0
LINE
8
BLACK
6
CONTINUOUS
10
79.5376949999999994
20
-93.2912259999999947
11
79.4424569999999903
21
-93.1959870000000024
0
LINE
8
BLACK
6
CONTINUOUS
10
79.4424569999999903
20
-93.1959870000000024
11
79.5376949999999994
21
-93.1007489999999933
0
LINE
8
BLACK
6
CONTINUOUS
10
79.5376949999999994
20
-93.1007489999999933
11
79.5376949999999994
21
-93.2912259999999947
0
LINE
8
BLACK
6
CONTINUOUS
10
61.4156409999999937
20
-96.7240070000000003
11
63.215640999999998
21
-98.5240069999999974
0
LINE
8
BLACK
6
CONTINUOUS
10
63.215640999999998
20
-96.7240070000000003
11
61.4156409999999937
21
-98.5240069999999974
0
LINE
8
BLACK
6
CONTINUOUS
10
66.8710279999999955
20
-98.5388449999999949
11
65.7281710000000032
21
-98.5388449999999949
0
LINE
8
BLACK
6
CONTINUOUS
10
66.2995990000000006
20
-98.5388449999999949
11
66.2995990000000006
21
-96.5388449999999949
0
LINE
8
BLACK
6
CONTINUOUS
10
66.2995990000000006
20
-96.5388449999999949
11
66.1091229999999968
21
-96.8245589999999936
0
LINE
8
BLACK
6
CONTINUOUS
10
66.1091229999999968
20
-96.8245589999999936
11
65.9186469999999929
21
-97.0150349999999975
0
LINE
8
BLACK
6
CONTINUOUS
10
65.9186469999999929
20
-97.0150349999999975
11
65.7281710000000032
21
-97.1102729999999923
0
LINE
8
BLACK
6
CONTINUOUS
10
67.7281710000000032
20
-98.3483679999999936
11
67.8234089999999981
21
-98.4436070000000001
0
LINE
8
BLACK
6
CONTINUOUS
10
67.8234089999999981
20
-98.4436070000000001
11
67.7281710000000032
21
-98.5388449999999949
0
LINE
8
BLACK
6
CONTINUOUS
10
67.7281710000000032
20
-98.5388449999999949
11
67.6329329999999942
21
-98.4436070000000001
0
LINE
8
BLACK
6
CONTINUOUS
10
67.6329329999999942
20
-98.4436070000000001
11
67.7281710000000032
21
-98.3483679999999936
0
LINE
8
BLACK
6
CONTINUOUS
10
67.7281710000000032
20
-98.3483679999999936
11
67.7281710000000032
21
-98.5388449999999949
0
LINE
8
BLACK
6
CONTINUOUS
10
68.9662659999999903
20
-97.395986999999991
11
68.7757900000000006
21
-97.3007489999999962
0
LINE
8
BLACK
6
CONTINUOUS
10
68.7757900000000006
20
-97.3007489999999962
11
68.6805519999999916
21
-97.2055110000000013
0
LINE
8
BLACK
6
CONTINUOUS
10
68.6805519999999916
20
-97.2055110000000013
11
68.5853139999999968
21
-97.0150349999999975
0
LINE
8
BLACK
6
CONTINUOUS
10
68.5853139999999968
20
-97.0150349999999975
11
68.5853139999999968
21
-96.9197970000000026
0
LINE
8
BLACK
6
CONTINUOUS
10
68.5853139999999968
20
-96.9197970000000026
11
68.6805519999999916
21
-96.7293209999999988
0
LINE
8
BLACK
6
CONTINUOUS
10
68.6805519999999916
20
-96.7293209999999988
11
68.7757900000000006
21
-96.6340829999999897
0
LINE
8
BLACK
6
CONTINUOUS
10
68.7757900000000006
20
-96.6340829999999897
11
68.9662659999999903
21
-96.5388449999999949
0
LINE
8
BLACK
6
CONTINUOUS
10
68.9662659999999903
20
-96.5388449999999949
11
69.3472189999999955
21
-96.5388449999999949
0
LINE
8
BLACK
6
CONTINUOUS
10
69.3472189999999955
20
-96.5388449999999949
11
69.5376949999999994
21
-96.6340829999999897
0
LINE
8
BLACK
6
CONTINUOUS
10
69.5376949999999994
20
-96.6340829999999897
11
69.6329329999999942
21
-96.7293209999999988
0
LINE
8
BLACK
6
CONTINUOUS
10
69.6329329999999942
20
-96.7293209999999988
11
69.7281710000000032
21
-96.9197970000000026
0
LINE
8
BLACK
6
CONTINUOUS
10
69.7281710000000032
20
-96.9197970000000026
11
69.7281710000000032
21
-97.0150349999999975
0
LINE
8
BLACK
6
CONTINUOUS
10
69.7281710000000032
20
-97.0150349999999975
11
69.6329329999999942
21
-97.2055110000000013
0
LINE
8
BLACK
6
CONTINUOUS
10
69.6329329999999942
20
-97.2055110000000013
11
69.5376949999999994
21
-97.3007489999999962
0
LINE
8
BLACK
6
CONTINUOUS
10
69.5376949999999994
20
-97.3007489999999962
11
69.3472189999999955
21
-97.395986999999991
0
LINE
8
BLACK
6
CONTINUOUS
10
69.3472189999999955
20
-97.395986999999991
11
68.9662659999999903
21
-97.395986999999991
0
LINE
8
BLACK
6
CONTINUOUS
10
68.9662659999999903
20
-97.395986999999991
11
68.7757900000000006
21
-97.4912259999999975
0
LINE
8
BLACK
6
CONTINUOUS
10
68.7757900000000006
20
-97.4912259999999975
11
68.6805519999999916
21
-97.5864639999999923
0
LINE
8
BLACK
6
CONTINUOUS
10
68.6805519999999916
20
-97.5864639999999923
11
68.5853139999999968
21
-97.7769399999999962
0
LINE
8
BLACK
6
CONTINUOUS
10
68.5853139999999968
20
-97.7769399999999962
11
68.5853139999999968
21
-98.1578919999999897
0
LINE
8
BLACK
6
CONTINUOUS
10
68.5853139999999968
20
-98.1578919999999897
11
68.6805519999999916
21
-98.3483679999999936
0
LINE
8
BLACK
6
CONTINUOUS
10
68.6805519999999916
20
-98.3483679999999936
11
68.7757900000000006
21
-98.4436070000000001
0
LINE
8
BLACK
6
CONTINUOUS
10
68.7757900000000006
20
-98.4436070000000001
11
68.9662659999999903
21
-98.5388449999999949
0
LINE
8
BLACK
6
CONTINUOUS
10
68.9662659999999903
20
-98.5388449999999949
11
69.3472189999999955
21
-98.5388449999999949
0
LINE
8
BLACK
6
CONTINUOUS
10
69.3472189999999955
20
-98.5388449999999949
11
69.5376949999999994
21
-98.4436070000000001
0
LINE
8
BLACK
6
CONTINUOUS
10
69.5376949999999994
20
-98.4436070000000001
11
69.6329329999999942
21
-98.3483679999999936
0
LINE
8
BLACK
6
CONTINUOUS
10
69.6329329999999942
20
-98.3483679999999936
11
69.7281710000000032
21
-98.1578919999999897
0
LINE
8
BLACK
6
CONTINUOUS
10
69.7281710000000032
20
-98.1578919999999897
11
69.7281710000000032
21
-97.7769399999999962
0
LINE
8
BLACK
6
CONTINUOUS
10
69.7281710000000032
20
-97.7769399999999962
11
69.6329329999999942
21
-97.5864639999999923
0
LINE
8
BLACK
6
CONTINUOUS
10
69.6329329999999942
20
-97.5864639999999923
11
69.5376949999999994
21
-97.4912259999999975
0
LINE
8
BLACK
6
CONTINUOUS
10
69.5376949999999994
20
-97.4912259999999975
11
69.3472189999999955
21
-97.395986999999991
0
LINE
8
BLACK
6
CONTINUOUS
10
70.9662659999999903
20
-96.5388449999999949
11
71.1567429999999916
21
-96.5388449999999949
0
LINE
8
BLACK
6
CONTINUOUS
10
71.1567429999999916
20
-96.5388449999999949
11
71.3472189999999955
21
-96.6340829999999897
0
LINE
8
BLACK
6
CONTINUOUS
10
71.3472189999999955
20
-96.6340829999999897
11
71.4424569999999903
21
-96.7293209999999988
0
LINE
8
BLACK
6
CONTINUOUS
10
71.4424569999999903
20
-96.7293209999999988
11
71.5376949999999994
21
-96.9197970000000026
0
LINE
8
BLACK
6
CONTINUOUS
10
71.5376949999999994
20
-96.9197970000000026
11
71.6329329999999942
21
-97.3007489999999962
0
LINE
8
BLACK
6
CONTINUOUS
10
71.6329329999999942
20
-97.3007489999999962
11
71.6329329999999942
21
-97.7769399999999962
0
LINE
8
BLACK
6
CONTINUOUS
10
71.6329329999999942
20
-97.7769399999999962
11
71.5376949999999994
21
-98.1578919999999897
0
LINE
8
BLACK
6
CONTINUOUS
10
71.5376949999999994
20
-98.1578919999999897
11
71.4424569999999903
21
-98.3483679999999936
0
LINE
8
BLACK
6
CONTINUOUS
10
71.4424569999999903
20
-98.3483679999999936
11
71.3472189999999955
21
-98.4436070000000001
0
LINE
8
BLACK
6
CONTINUOUS
10
71.3472189999999955
20
-98.4436070000000001
11
71.1567429999999916
21
-98.5388449999999949
0
LINE
8
BLACK
6
CONTINUOUS
10
71.1567429999999916
20
-98.5388449999999949
11
70.9662659999999903
21
-98.5388449999999949
0
LINE
8
BLACK
6
CONTINUOUS
10
70.9662659999999903
20
-98.5388449999999949
11
70.7757900000000006
21
-98.4436070000000001
0
LINE
8
BLACK
6
CONTINUOUS
10
70.7757900000000006
20
-98.4436070000000001
11
70.6805519999999916
21
-98.3483679999999936
0
LINE
8
BLACK
6
CONTINUOUS
10
70.6805519999999916
20
-98.3483679999999936
11
70.5853139999999968
21
-98.1578919999999897
0
LINE
8
BLACK
6
CONTINUOUS
10
70.5853139999999968
20
-98.1578919999999897
11
70.490076000000002
21
-97.7769399999999962
0
LINE
8
BLACK
6
CONTINUOUS
10
70.490076000000002
20
-97.7769399999999962
11
70.490076000000002
21
-97.3007489999999962
0
LINE
8
BLACK
6
CONTINUOUS
10
70.490076000000002
20
-97.3007489999999962
11
70.5853139999999968
21
-96.9197970000000026
0
LINE
8
BLACK
6
CONTINUOUS
10
70.5853139999999968
20
-96.9197970000000026
11
70.6805519999999916
21
-96.7293209999999988
0
LINE
8
BLACK
6
CONTINUOUS
10
70.6805519999999916
20
-96.7293209999999988
11
70.7757900000000006
21
-96.6340829999999897
0
LINE
8
BLACK
6
CONTINUOUS
10
70.7757900000000006
20
-96.6340829999999897
11
70.9662659999999903
21
-96.5388449999999949
0
LINE
8
BLACK
6
CONTINUOUS
10
72.8710279999999955
20
-96.5388449999999949
11
73.0615049999999968
21
-96.5388449999999949
0
LINE
8
BLACK
6
CONTINUOUS
10
73.0615049999999968
20
-96.5388449999999949
11
73.2519810000000007
21
-96.6340829999999897
0
LINE
8
BLACK
6
CONTINUOUS
10
73.2519810000000007
20
-96.6340829999999897
11
73.3472189999999955
21
-96.7293209999999988
0
LINE
8
BLACK
6
CONTINUOUS
10
73.3472189999999955
20
-96.7293209999999988
11
73.4424569999999903
21
-96.9197970000000026
0
LINE
8
BLACK
6
CONTINUOUS
10
73.4424569999999903
20
-96.9197970000000026
11
73.5376949999999994
21
-97.3007489999999962
0
LINE
8
BLACK
6
CONTINUOUS
10
73.5376949999999994
20
-97.3007489999999962
11
73.5376949999999994
21
-97.7769399999999962
0
LINE
8
BLACK
6
CONTINUOUS
10
73.5376949999999994
20
-97.7769399999999962
11
73.4424569999999903
21
-98.1578919999999897
0
LINE
8
BLACK
6
CONTINUOUS
10
73.4424569999999903
20
-98.1578919999999897
11
73.3472189999999955
21
-98.3483679999999936
0
LINE
8
BLACK
6
CONTINUOUS
10
73.3472189999999955
20
-98.3483679999999936
11
73.2519810000000007
21
-98.4436070000000001
0
LINE
8
BLACK
6
CONTINUOUS
10
73.2519810000000007
20
-98.4436070000000001
11
73.0615049999999968
21
-98.5388449999999949
0
LINE
8
BLACK
6
CONTINUOUS
10
73.0615049999999968
20
-98.5388449999999949
11
72.8710279999999955
21
-98.5388449999999949
0
LINE
8
BLACK
6
CONTINUOUS
10
72.8710279999999955
20
-98.5388449999999949
11
72.6805519999999916
21
-98.4436070000000001
0
LINE
8
BLACK
6
CONTINUOUS
10
72.6805519999999916
20
-98.4436070000000001
11
72.5853139999999968
21
-98.3483679999999936
0
LINE
8
BLACK
6
CONTINUOUS
10
72.5853139999999968
20
-98.3483679999999936
11
72.490076000000002
21
-98.1578919999999897
0
LINE
8
BLACK
6
CONTINUOUS
10
72.490076000000002
20
-98.1578919999999897
11
72.3948379999999929
21
-97.7769399999999962
0
LINE
8
BLACK
6
CONTINUOUS
10
72.3948379999999929
20
-97.7769399999999962
11
72.3948379999999929
21
-97.3007489999999962
0
LINE
8
BLACK
6
CONTINUOUS
10
72.3948379999999929
20
-97.3007489999999962
11
72.490076000000002
21
-96.9197970000000026
0
LINE
8
BLACK
6
CONTINUOUS
10
72.490076000000002
20
-96.9197970000000026
11
72.5853139999999968
21
-96.7293209999999988
0
LINE
8
BLACK
6
CONTINUOUS
10
72.5853139999999968
20
-96.7293209999999988
11
72.6805519999999916
21
-96.6340829999999897
0
LINE
8
BLACK
6
CONTINUOUS
10
72.6805519999999916
20
-96.6340829999999897
11
72.8710279999999955
21
-96.5388449999999949
0
LINE
8
BLACK
6
CONTINUOUS
10
74.3948379999999929
20
-98.5388449999999949
11
74.3948379999999929
21
-97.2055110000000013
0
LINE
8
BLACK
6
CONTINUOUS
10
74.3948379999999929
20
-97.395986999999991
11
74.490076000000002
21
-97.3007489999999962
0
LINE
8
BLACK
6
CONTINUOUS
10
74.490076000000002
20
-97.3007489999999962
11
74.6805519999999916
21
-97.2055110000000013
0
LINE
8
BLACK
6
CONTINUOUS
10
74.6805519999999916
20
-97.2055110000000013
11
74.966267000000002
21
-97.2055110000000013
0
LINE
8
BLACK
6
CONTINUOUS
10
74.966267000000002
20
-97.2055110000000013
11
75.1567429999999916
21
-97.3007489999999962
0
LINE
8
BLACK
6
CONTINUOUS
10
75.1567429999999916
20
-97.3007489999999962
11
75.2519810000000007
21
-97.4912259999999975
0
LINE
8
BLACK
6
CONTINUOUS
10
75.2519810000000007
20
-97.4912259999999975
11
75.2519810000000007
21
-98.5388449999999949
0
LINE
8
BLACK
6
CONTINUOUS
10
75.2519810000000007
20
-97.4912259999999975
11
75.3472189999999955
21
-97.3007489999999962
0
LINE
8
BLACK
6
CONTINUOUS
10
75.3472189999999955
20
-97.3007489999999962
11
75.5376949999999994
21
-97.2055110000000013
0
LINE
8
BLACK
6
CONTINUOUS
10
75.5376949999999994
20
-97.2055110000000013
11
75.8234089999999981
21
-97.2055110000000013
0
LINE
8
BLACK
6
CONTINUOUS
10
75.8234089999999981
20
-97.2055110000000013
11
76.0138859999999994
21
-97.3007489999999962
0
LINE
8
BLACK
6
CONTINUOUS
10
76.0138859999999994
20
-97.3007489999999962
11
76.1091239999999942
21
-97.4912259999999975
0
LINE
8
BLACK
6
CONTINUOUS
10
76.1091239999999942
20
-97.4912259999999975
11
76.1091239999999942
21
-98.5388449999999949
0
LINE
8
BLACK
6
CONTINUOUS
10
77.0615049999999968
20
-98.5388449999999949
11
77.0615049999999968
21
-97.2055110000000013
0
LINE
8
BLACK
6
CONTINUOUS
10
77.0615049999999968
20
-97.395986999999991
11
77.1567429999999916
21
-97.3007489999999962
0
LINE
8
BLACK
6
CONTINUOUS
10
77.1567429999999916
20
-97.3007489999999962
11
77.3472189999999955
21
-97.2055110000000013
0
LINE
8
BLACK
6
CONTINUOUS
10
77.3472189999999955
20
-97.2055110000000013
11
77.6329339999999917
21
-97.2055110000000013
0
LINE
8
BLACK
6
CONTINUOUS
10
77.6329339999999917
20
-97.2055110000000013
11
77.8234099999999955
21
-97.3007489999999962
0
LINE
8
BLACK
6
CONTINUOUS
10
77.8234099999999955
20
-97.3007489999999962
11
77.9186479999999904
21
-97.4912259999999975
0
LINE
8
BLACK
6
CONTINUOUS
10
77.9186479999999904
20
-97.4912259999999975
11
77.9186479999999904
21
-98.5388449999999949
0
LINE
8
BLACK
6
CONTINUOUS
10
77.9186479999999904
20
-97.4912259999999975
11
78.0138859999999994
21
-97.3007489999999962
0
LINE
8
BLACK
6
CONTINUOUS
10
78.0138859999999994
20
-97.3007489999999962
11
78.2043620000000033
21
-97.2055110000000013
0
LINE
8
BLACK
6
CONTINUOUS
10
78.2043620000000033
20
-97.2055110000000013
11
78.490076000000002
21
-97.2055110000000013
0
LINE
8
BLACK
6
CONTINUOUS
10
78.490076000000002
20
-97.2055110000000013
11
78.6805530000000033
21
-97.3007489999999962
0
LINE
8
BLACK
6
CONTINUOUS
10
78.6805530000000033
20
-97.3007489999999962
11
78.7757909999999981
21
-97.4912259999999975
0
LINE
8
BLACK
6
CONTINUOUS
10
78.7757909999999981
20
-97.4912259999999975
11
78.7757909999999981
21
-98.5388449999999949
0
LINE
8
BLACK
6
CONTINUOUS
10
82.6805530000000033
20
-96.4436070000000001
11
80.9662679999999995
21
-99.0150349999999975
0
LINE
8
BLACK
6
CONTINUOUS
10
85.2519819999999982
20
-96.5388449999999949
11
85.4424589999999995
21
-96.5388449999999949
0
LINE
8
BLACK
6
CONTINUOUS
10
85.4424589999999995
20
-96.5388449999999949
11
85.6329349999999891
21
-96.6340829999999897
0
LINE
8
BLACK
6
CONTINUOUS
10
85.6329349999999891
20
-96.6340829999999897
11
85.7281729999999982
21
-96.7293209999999988
0
LINE
8
BLACK
6
CONTINUOUS
10
85.7281729999999982
20
-96.7293209999999988
11
85.823410999999993
21
-96.9197970000000026
0
LINE
8
BLACK
6
CONTINUOUS
10
85.823410999999993
20
-96.9197970000000026
11
85.918649000000002
21
-97.3007489999999962
0
LINE
8
BLACK
6
CONTINUOUS
10
85.918649000000002
20
-97.3007489999999962
11
85.918649000000002
21
-97.7769399999999962
0
LINE
8
BLACK
6
CONTINUOUS
10
85.918649000000002
20
-97.7769399999999962
11
85.823410999999993
21
-98.1578919999999897
0
LINE
8
BLACK
6
CONTINUOUS
10
85.823410999999993
20
-98.1578919999999897
11
85.7281729999999982
21
-98.3483679999999936
0
LINE
8
BLACK
6
CONTINUOUS
10
85.7281729999999982
20
-98.3483679999999936
11
85.6329349999999891
21
-98.4436070000000001
0
LINE
8
BLACK
6
CONTINUOUS
10
85.6329349999999891
20
-98.4436070000000001
11
85.4424589999999995
21
-98.5388449999999949
0
LINE
8
BLACK
6
CONTINUOUS
10
85.4424589999999995
20
-98.5388449999999949
11
85.2519819999999982
21
-98.5388449999999949
0
LINE
8
BLACK
6
CONTINUOUS
10
85.2519819999999982
20
-98.5388449999999949
11
85.0615059999999943
21
-98.4436070000000001
0
LINE
8
BLACK
6
CONTINUOUS
10
85.0615059999999943
20
-98.4436070000000001
11
84.9662679999999995
21
-98.3483679999999936
0
LINE
8
BLACK
6
CONTINUOUS
10
84.9662679999999995
20
-98.3483679999999936
11
84.8710299999999904
21
-98.1578919999999897
0
LINE
8
BLACK
6
CONTINUOUS
10
84.8710299999999904
20
-98.1578919999999897
11
84.7757919999999956
21
-97.7769399999999962
0
LINE
8
BLACK
6
CONTINUOUS
10
84.7757919999999956
20
-97.7769399999999962
11
84.7757919999999956
21
-97.3007489999999962
0
LINE
8
BLACK
6
CONTINUOUS
10
84.7757919999999956
20
-97.3007489999999962
11
84.8710299999999904
21
-96.9197970000000026
0
LINE
8
BLACK
6
CONTINUOUS
10
84.8710299999999904
20
-96.9197970000000026
11
84.9662679999999995
21
-96.7293209999999988
0
LINE
8
BLACK
6
CONTINUOUS
10
84.9662679999999995
20
-96.7293209999999988
11
85.0615059999999943
21
-96.6340829999999897
0
LINE
8
BLACK
6
CONTINUOUS
10
85.0615059999999943
20
-96.6340829999999897
11
85.2519819999999982
21
-96.5388449999999949
0
LINE
8
BLACK
6
CONTINUOUS
10
86.7757919999999956
20
-98.3483679999999936
11
86.8710299999999904
21
-98.4436070000000001
0
LINE
8
BLACK
6
CONTINUOUS
10
86.8710299999999904
20
-98.4436070000000001
11
86.7757919999999956
21
-98.5388449999999949
0
LINE
8
BLACK
6
CONTINUOUS
10
86.7757919999999956
20
-98.5388449999999949
11
86.6805540000000008
21
-98.4436070000000001
0
LINE
8
BLACK
6
CONTINUOUS
10
86.6805540000000008
20
-98.4436070000000001
11
86.7757919999999956
21
-98.3483679999999936
0
LINE
8
BLACK
6
CONTINUOUS
10
86.7757919999999956
20
-98.3483679999999936
11
86.7757919999999956
21
-98.5388449999999949
0
LINE
8
BLACK
6
CONTINUOUS
10
88.1091249999999917
20
-96.5388449999999949
11
88.299601999999993
21
-96.5388449999999949
0
LINE
8
BLACK
6
CONTINUOUS
10
88.299601999999993
20
-96.5388449999999949
11
88.4900779999999969
21
-96.6340829999999897
0
LINE
8
BLACK
6
CONTINUOUS
10
88.4900779999999969
20
-96.6340829999999897
11
88.5853159999999917
21
-96.7293209999999988
0
LINE
8
BLACK
6
CONTINUOUS
10
88.5853159999999917
20
-96.7293209999999988
11
88.6805540000000008
21
-96.9197970000000026
0
LINE
8
BLACK
6
CONTINUOUS
10
88.6805540000000008
20
-96.9197970000000026
11
88.7757919999999956
21
-97.3007489999999962
0
LINE
8
BLACK
6
CONTINUOUS
10
88.7757919999999956
20
-97.3007489999999962
11
88.7757919999999956
21
-97.7769399999999962
0
LINE
8
BLACK
6
CONTINUOUS
10
88.7757919999999956
20
-97.7769399999999962
11
88.6805540000000008
21
-98.1578919999999897
0
LINE
8
BLACK
6
CONTINUOUS
10
88.6805540000000008
20
-98.1578919999999897
11
88.5853159999999917
21
-98.3483679999999936
0
LINE
8
BLACK
6
CONTINUOUS
10
88.5853159999999917
20
-98.3483679999999936
11
88.4900779999999969
21
-98.4436070000000001
0
LINE
8
BLACK
6
CONTINUOUS
10
88.4900779999999969
20
-98.4436070000000001
11
88.299601999999993
21
-98.5388449999999949
0
LINE
8
BLACK
6
CONTINUOUS
10
88.299601999999993
20
-98.5388449999999949
11
88.1091249999999917
21
-98.5388449999999949
0
LINE
8
BLACK
6
CONTINUOUS
10
88.1091249999999917
20
-98.5388449999999949
11
87.918649000000002
21
-98.4436070000000001
0
LINE
8
BLACK
6
CONTINUOUS
10
87.918649000000002
20
-98.4436070000000001
11
87.823410999999993
21
-98.3483679999999936
0
LINE
8
BLACK
6
CONTINUOUS
10
87.823410999999993
20
-98.3483679999999936
11
87.7281729999999982
21
-98.1578919999999897
0
LINE
8
BLACK
6
CONTINUOUS
10
87.7281729999999982
20
-98.1578919999999897
11
87.6329349999999891
21
-97.7769399999999962
0
LINE
8
BLACK
6
CONTINUOUS
10
87.6329349999999891
20
-97.7769399999999962
11
87.6329349999999891
21
-97.3007489999999962
0
LINE
8
BLACK
6
CONTINUOUS
10
87.6329349999999891
20
-97.3007489999999962
11
87.7281729999999982
21
-96.9197970000000026
0
LINE
8
BLACK
6
CONTINUOUS
10
87.7281729999999982
20
-96.9197970000000026
11
87.823410999999993
21
-96.7293209999999988
0
LINE
8
BLACK
6
CONTINUOUS
10
87.823410999999993
20
-96.7293209999999988
11
87.918649000000002
21
-96.6340829999999897
0
LINE
8
BLACK
6
CONTINUOUS
10
87.918649000000002
20
-96.6340829999999897
11
88.1091249999999917
21
-96.5388449999999949
0
LINE
8
BLACK
6
CONTINUOUS
10
89.4424589999999995
20
-96.5388449999999949
11
90.7757919999999956
21
-96.5388449999999949
0
LINE
8
BLACK
6
CONTINUOUS
10
90.7757919999999956
20
-96.5388449999999949
11
89.918649000000002
21
-98.5388449999999949
0
LINE
8
BLACK
6
CONTINUOUS
10
91.918649000000002
20
-96.5388449999999949
11
92.1091259999999892
21
-96.5388449999999949
0
LINE
8
BLACK
6
CONTINUOUS
10
92.1091259999999892
20
-96.5388449999999949
11
92.299601999999993
21
-96.6340829999999897
0
LINE
8
BLACK
6
CONTINUOUS
10
92.299601999999993
20
-96.6340829999999897
11
92.3948400000000021
21
-96.7293209999999988
0
LINE
8
BLACK
6
CONTINUOUS
10
92.3948400000000021
20
-96.7293209999999988
11
92.4900779999999969
21
-96.9197970000000026
0
LINE
8
BLACK
6
CONTINUOUS
10
92.4900779999999969
20
-96.9197970000000026
11
92.5853159999999917
21
-97.3007489999999962
0
LINE
8
BLACK
6
CONTINUOUS
10
92.5853159999999917
20
-97.3007489999999962
11
92.5853159999999917
21
-97.7769399999999962
0
LINE
8
BLACK
6
CONTINUOUS
10
92.5853159999999917
20
-97.7769399999999962
11
92.4900779999999969
21
-98.1578919999999897
0
LINE
8
BLACK
6
CONTINUOUS
10
92.4900779999999969
20
-98.1578919999999897
11
92.3948400000000021
21
-98.3483679999999936
0
LINE
8
BLACK
6
CONTINUOUS
10
92.3948400000000021
20
-98.3483679999999936
11
92.299601999999993
21
-98.4436070000000001
0
LINE
8
BLACK
6
CONTINUOUS
10
92.299601999999993
20
-98.4436070000000001
11
92.1091259999999892
21
-98.5388449999999949
0
LINE
8
BLACK
6
CONTINUOUS
10
92.1091259999999892
20
-98.5388449999999949
11
91.918649000000002
21
-98.5388449999999949
0
LINE
8
BLACK
6
CONTINUOUS
10
91.918649000000002
20
-98.5388449999999949
11
91.7281729999999982
21
-98.4436070000000001
0
LINE
8
BLACK
6
CONTINUOUS
10
91.7281729999999982
20
-98.4436070000000001
11
91.6329349999999891
21
-98.3483679999999936
0
LINE
8
BLACK
6
CONTINUOUS
10
91.6329349999999891
20
-98.3483679999999936
11
91.5376969999999943
21
-98.1578919999999897
0
LINE
8
BLACK
6
CONTINUOUS
10
91.5376969999999943
20
-98.1578919999999897
11
91.4424589999999995
21
-97.7769399999999962
0
LINE
8
BLACK
6
CONTINUOUS
10
91.4424589999999995
20
-97.7769399999999962
11
91.4424589999999995
21
-97.3007489999999962
0
LINE
8
BLACK
6
CONTINUOUS
10
91.4424589999999995
20
-97.3007489999999962
11
91.5376969999999943
21
-96.9197970000000026
0
LINE
8
BLACK
6
CONTINUOUS
10
91.5376969999999943
20
-96.9197970000000026
11
91.6329349999999891
21
-96.7293209999999988
0
LINE
8
BLACK
6
CONTINUOUS
10
91.6329349999999891
20
-96.7293209999999988
11
91.7281729999999982
21
-96.6340829999999897
0
LINE
8
BLACK
6
CONTINUOUS
10
91.7281729999999982
20
-96.6340829999999897
11
91.918649000000002
21
-96.5388449999999949
0
LINE
8
BLACK
6
CONTINUOUS
10
93.5376969999999943
20
-98.5388449999999949
11
93.918649000000002
21
-98.5388449999999949
0
LINE
8
BLACK
6
CONTINUOUS
10
93.918649000000002
20
-98.5388449999999949
11
94.1091259999999892
21
-98.4436070000000001
0
LINE
8
BLACK
6
CONTINUOUS
10
94.1091259999999892
20
-98.4436070000000001
11
94.2043639999999982
21
-98.3483679999999936
0
LINE
8
BLACK
6
CONTINUOUS
10
94.2043639999999982
20
-98.3483679999999936
11
94.3948400000000021
21
-98.0626539999999949
0
LINE
8
BLACK
6
CONTINUOUS
10
94.3948400000000021
20
-98.0626539999999949
11
94.4900779999999969
21
-97.6817020000000014
0
LINE
8
BLACK
6
CONTINUOUS
10
94.4900779999999969
20
-97.6817020000000014
11
94.4900779999999969
21
-96.9197970000000026
0
LINE
8
BLACK
6
CONTINUOUS
10
94.4900779999999969
20
-96.9197970000000026
11
94.3948400000000021
21
-96.7293209999999988
0
LINE
8
BLACK
6
CONTINUOUS
10
94.3948400000000021
20
-96.7293209999999988
11
94.299601999999993
21
-96.6340829999999897
0
LINE
8
BLACK
6
CONTINUOUS
10
94.299601999999993
20
-96.6340829999999897
11
94.1091259999999892
21
-96.5388449999999949
0
LINE
8
BLACK
6
CONTINUOUS
10
94.1091259999999892
20
-96.5388449999999949
11
93.7281729999999982
21
-96.5388449999999949
0
LINE
8
BLACK
6
CONTINUOUS
10
93.7281729999999982
20
-96.5388449999999949
11
93.5376969999999943
21
-96.6340829999999897
0
LINE
8
BLACK
6
CONTINUOUS
10
93.5376969999999943
20
-96.6340829999999897
11
93.4424589999999995
21
-96.7293209999999988
0
LINE
8
BLACK
6
CONTINUOUS
10
93.4424589999999995
20
-96.7293209999999988
11
93.3472209999999905
21
-96.9197970000000026
0
LINE
8
BLACK
6
CONTINUOUS
10
93.3472209999999905
20
-96.9197970000000026
11
93.3472209999999905
21
-97.395986999999991
0
LINE
8
BLACK
6
CONTINUOUS
10
93.3472209999999905
20
-97.395986999999991
11
93.4424589999999995
21
-97.5864639999999923
0
LINE
8
BLACK
6
CONTINUOUS
10
93.4424589999999995
20
-97.5864639999999923
11
93.5376969999999943
21
-97.6817020000000014
0
LINE
8
BLACK
6
CONTINUOUS
10
93.5376969999999943
20
-97.6817020000000014
11
93.7281729999999982
21
-97.7769399999999962
0
LINE
8
BLACK
6
CONTINUOUS
10
93.7281729999999982
20
-97.7769399999999962
11
94.1091259999999892
21
-97.7769399999999962
0
LINE
8
BLACK
6
CONTINUOUS
10
94.1091259999999892
20
-97.7769399999999962
11
94.299601999999993
21
-97.6817020000000014
0
LINE
8
BLACK
6
CONTINUOUS
10
94.299601999999993
20
-97.6817020000000014
11
94.3948400000000021
21
-97.5864639999999923
0
LINE
8
BLACK
6
CONTINUOUS
10
94.3948400000000021
20
-97.5864639999999923
11
94.4900779999999969
21
-97.395986999999991
0
LINE
8
BLACK
6
CONTINUOUS
10
95.2519829999999956
20
-96.5388449999999949
11
95.2519829999999956
21
-96.9197970000000026
0
LINE
8
BLACK
6
CONTINUOUS
10
96.0138879999999943
20
-96.5388449999999949
11
96.0138879999999943
21
-96.9197970000000026
0
LINE
8
BLACK
6
CONTINUOUS
10
98.9662699999999944
20
-99.3007489999999962
11
98.8710310000000021
21
-99.2055110000000013
0
LINE
8
BLACK
6
CONTINUOUS
10
98.8710310000000021
20
-99.2055110000000013
11
98.6805549999999982
21
-98.9197969999999884
0
LINE
8
BLACK
6
CONTINUOUS
10
98.6805549999999982
20
-98.9197969999999884
11
98.5853169999999892
21
-98.7293209999999988
0
LINE
8
BLACK
6
CONTINUOUS
10
98.5853169999999892
20
-98.7293209999999988
11
98.4900789999999944
21
-98.4436070000000001
0
LINE
8
BLACK
6
CONTINUOUS
10
98.4900789999999944
20
-98.4436070000000001
11
98.3948409999999996
21
-97.9674160000000001
0
LINE
8
BLACK
6
CONTINUOUS
10
98.3948409999999996
20
-97.9674160000000001
11
98.3948409999999996
21
-97.5864639999999923
0
LINE
8
BLACK
6
CONTINUOUS
10
98.3948409999999996
20
-97.5864639999999923
11
98.4900789999999944
21
-97.1102729999999923
0
LINE
8
BLACK
6
CONTINUOUS
10
98.4900789999999944
20
-97.1102729999999923
11
98.5853169999999892
21
-96.8245589999999936
0
LINE
8
BLACK
6
CONTINUOUS
10
98.5853169999999892
20
-96.8245589999999936
11
98.6805549999999982
21
-96.6340829999999897
0
LINE
8
BLACK
6
CONTINUOUS
10
98.6805549999999982
20
-96.6340829999999897
11
98.8710310000000021
21
-96.3483679999999936
0
LINE
8
BLACK
6
CONTINUOUS
10
98.8710310000000021
20
-96.3483679999999936
11
98.9662699999999944
21
-96.2531299999999987
0
LINE
8
BLACK
6
CONTINUOUS
10
99.6329360000000008
20
-96.7293209999999988
11
99.7281739999999957
21
-96.6340829999999897
0
LINE
8
BLACK
6
CONTINUOUS
10
99.7281739999999957
20
-96.6340829999999897
11
99.9186499999999995
21
-96.5388449999999949
0
LINE
8
BLACK
6
CONTINUOUS
10
99.9186499999999995
20
-96.5388449999999949
11
100.3948409999999996
21
-96.5388449999999949
0
LINE
8
BLACK
6
CONTINUOUS
10
100.3948409999999996
20
-96.5388449999999949
11
100.5853169999999892
21
-96.6340829999999897
0
LINE
8
BLACK
6
CONTINUOUS
10
100.5853169999999892
20
-96.6340829999999897
11
100.6805549999999982
21
-96.7293209999999988
0
LINE
8
BLACK
6
CONTINUOUS
10
100.6805549999999982
20
-96.7293209999999988
11
100.7757929999999931
21
-96.9197970000000026
0
LINE
8
BLACK
6
CONTINUOUS
10
100.7757929999999931
20
-96.9197970000000026
11
100.7757929999999931
21
-97.1102729999999923
0
LINE
8
BLACK
6
CONTINUOUS
10
100.7757929999999931
20
-97.1102729999999923
11
100.6805549999999982
21
-97.395986999999991
0
LINE
8
BLACK
6
CONTINUOUS
10
100.6805549999999982
20
-97.395986999999991
11
99.5376979999999918
21
-98.5388449999999949
0
LINE
8
BLACK
6
CONTINUOUS
10
99.5376979999999918
20
-98.5388449999999949
11
100.7757929999999931
21
-98.5388449999999949
0
LINE
8
BLACK
6
CONTINUOUS
10
103.1567459999999983
20
-98.5388449999999949
11
103.1567459999999983
21
-96.5388449999999949
0
LINE
8
BLACK
6
CONTINUOUS
10
104.0138889999999918
20
-98.5388449999999949
11
104.0138889999999918
21
-97.4912259999999975
0
LINE
8
BLACK
6
CONTINUOUS
10
104.0138889999999918
20
-97.4912259999999975
11
103.918650999999997
21
-97.3007489999999962
0
LINE
8
BLACK
6
CONTINUOUS
10
103.918650999999997
20
-97.3007489999999962
11
103.7281749999999931
21
-97.2055110000000013
0
LINE
8
BLACK
6
CONTINUOUS
10
103.7281749999999931
20
-97.2055110000000013
11
103.442459999999997
21
-97.2055110000000013
0
LINE
8
BLACK
6
CONTINUOUS
10
103.442459999999997
20
-97.2055110000000013
11
103.2519839999999931
21
-97.3007489999999962
0
LINE
8
BLACK
6
CONTINUOUS
10
103.2519839999999931
20
-97.3007489999999962
11
103.1567459999999983
21
-97.395986999999991
0
LINE
8
BLACK
6
CONTINUOUS
10
105.2519839999999931
20
-98.5388449999999949
11
105.0615079999999892
21
-98.4436070000000001
0
LINE
8
BLACK
6
CONTINUOUS
10
105.0615079999999892
20
-98.4436070000000001
11
104.9662699999999944
21
-98.3483679999999936
0
LINE
8
BLACK
6
CONTINUOUS
10
104.9662699999999944
20
-98.3483679999999936
11
104.8710319999999996
21
-98.1578919999999897
0
LINE
8
BLACK
6
CONTINUOUS
10
104.8710319999999996
20
-98.1578919999999897
11
104.8710319999999996
21
-97.5864639999999923
0
LINE
8
BLACK
6
CONTINUOUS
10
104.8710319999999996
20
-97.5864639999999923
11
104.9662699999999944
21
-97.395986999999991
0
LINE
8
BLACK
6
CONTINUOUS
10
104.9662699999999944
20
-97.395986999999991
11
105.0615079999999892
21
-97.3007489999999962
0
LINE
8
BLACK
6
CONTINUOUS
10
105.0615079999999892
20
-97.3007489999999962
11
105.2519839999999931
21
-97.2055110000000013
0
LINE
8
BLACK
6
CONTINUOUS
10
105.2519839999999931
20
-97.2055110000000013
11
105.5376989999999893
21
-97.2055110000000013
0
LINE
8
BLACK
6
CONTINUOUS
10
105.5376989999999893
20
-97.2055110000000013
11
105.7281749999999931
21
-97.3007489999999962
0
LINE
8
BLACK
6
CONTINUOUS
10
105.7281749999999931
20
-97.3007489999999962
11
105.8234130000000022
21
-97.395986999999991
0
LINE
8
BLACK
6
CONTINUOUS
10
105.8234130000000022
20
-97.395986999999991
11
105.918650999999997
21
-97.5864639999999923
0
LINE
8
BLACK
6
CONTINUOUS
10
105.918650999999997
20
-97.5864639999999923
11
105.918650999999997
21
-98.1578919999999897
0
LINE
8
BLACK
6
CONTINUOUS
10
105.918650999999997
20
-98.1578919999999897
11
105.8234130000000022
21
-98.3483679999999936
0
LINE
8
BLACK
6
CONTINUOUS
10
105.8234130000000022
20
-98.3483679999999936
11
105.7281749999999931
21
-98.4436070000000001
0
LINE
8
BLACK
6
CONTINUOUS
10
105.7281749999999931
20
-98.4436070000000001
11
105.5376989999999893
21
-98.5388449999999949
0
LINE
8
BLACK
6
CONTINUOUS
10
105.5376989999999893
20
-98.5388449999999949
11
105.2519839999999931
21
-98.5388449999999949
0
LINE
8
BLACK
6
CONTINUOUS
10
107.0615079999999892
20
-98.5388449999999949
11
106.8710319999999996
21
-98.4436070000000001
0
LINE
8
BLACK
6
CONTINUOUS
10
106.8710319999999996
20
-98.4436070000000001
11
106.7757939999999905
21
-98.2531299999999987
0
LINE
8
BLACK
6
CONTINUOUS
10
106.7757939999999905
20
-98.2531299999999987
11
106.7757939999999905
21
-96.5388449999999949
0
LINE
8
BLACK
6
CONTINUOUS
10
108.5853180000000009
20
-98.4436070000000001
11
108.394841999999997
21
-98.5388449999999949
0
LINE
8
BLACK
6
CONTINUOUS
10
108.394841999999997
20
-98.5388449999999949
11
108.0138889999999918
21
-98.5388449999999949
0
LINE
8
BLACK
6
CONTINUOUS
10
108.0138889999999918
20
-98.5388449999999949
11
107.8234130000000022
21
-98.4436070000000001
0
LINE
8
BLACK
6
CONTINUOUS
10
107.8234130000000022
20
-98.4436070000000001
11
107.7281749999999931
21
-98.2531299999999987
0
LINE
8
BLACK
6
CONTINUOUS
10
107.7281749999999931
20
-98.2531299999999987
11
107.7281749999999931
21
-97.4912259999999975
0
LINE
8
BLACK
6
CONTINUOUS
10
107.7281749999999931
20
-97.4912259999999975
11
107.8234130000000022
21
-97.3007489999999962
0
LINE
8
BLACK
6
CONTINUOUS
10
107.8234130000000022
20
-97.3007489999999962
11
108.0138889999999918
21
-97.2055110000000013
0
LINE
8
BLACK
6
CONTINUOUS
10
108.0138889999999918
20
-97.2055110000000013
11
108.394841999999997
21
-97.2055110000000013
0
LINE
8
BLACK
6
CONTINUOUS
10
108.394841999999997
20
-97.2055110000000013
11
108.5853180000000009
21
-97.3007489999999962
0
LINE
8
BLACK
6
CONTINUOUS
10
108.5853180000000009
20
-97.3007489999999962
11
108.6805559999999957
21
-97.4912259999999975
0
LINE
8
BLACK
6
CONTINUOUS
10
108.6805559999999957
20
-97.4912259999999975
11
108.6805559999999957
21
-97.6817020000000014
0
LINE
8
BLACK
6
CONTINUOUS
10
108.6805559999999957
20
-97.6817020000000014
11
107.7281749999999931
21
-97.872177999999991
0
LINE
8
BLACK
6
CONTINUOUS
10
109.4424609999999944
20
-98.4436070000000001
11
109.6329369999999983
21
-98.5388449999999949
0
LINE
8
BLACK
6
CONTINUOUS
10
109.6329369999999983
20
-98.5388449999999949
11
110.0138889999999918
21
-98.5388449999999949
0
LINE
8
BLACK
6
CONTINUOUS
10
110.0138889999999918
20
-98.5388449999999949
11
110.2043659999999932
21
-98.4436070000000001
0
LINE
8
BLACK
6
CONTINUOUS
10
110.2043659999999932
20
-98.4436070000000001
11
110.299603999999988
21
-98.2531299999999987
0
LINE
8
BLACK
6
CONTINUOUS
10
110.299603999999988
20
-98.2531299999999987
11
110.299603999999988
21
-98.1578919999999897
0
LINE
8
BLACK
6
CONTINUOUS
10
110.299603999999988
20
-98.1578919999999897
11
110.2043659999999932
21
-97.9674160000000001
0
LINE
8
BLACK
6
CONTINUOUS
10
110.2043659999999932
20
-97.9674160000000001
11
110.0138889999999918
21
-97.872177999999991
0
LINE
8
BLACK
6
CONTINUOUS
10
110.0138889999999918
20
-97.872177999999991
11
109.7281749999999931
21
-97.872177999999991
0
LINE
8
BLACK
6
CONTINUOUS
10
109.7281749999999931
20
-97.872177999999991
11
109.5376989999999893
21
-97.7769399999999962
0
LINE
8
BLACK
6
CONTINUOUS
10
109.5376989999999893
20
-97.7769399999999962
11
109.4424609999999944
21
-97.5864639999999923
0
LINE
8
BLACK
6
CONTINUOUS
10
109.4424609999999944
20
-97.5864639999999923
11
109.4424609999999944
21
-97.4912259999999975
0
LINE
8
BLACK
6
CONTINUOUS
10
109.4424609999999944
20
-97.4912259999999975
11
109.5376989999999893
21
-97.3007489999999962
0
LINE
8
BLACK
6
CONTINUOUS
10
109.5376989999999893
20
-97.3007489999999962
11
109.7281749999999931
21
-97.2055110000000013
0
LINE
8
BLACK
6
CONTINUOUS
10
109.7281749999999931
20
-97.2055110000000013
11
110.0138889999999918
21
-97.2055110000000013
0
LINE
8
BLACK
6
CONTINUOUS
10
110.0138889999999918
20
-97.2055110000000013
11
110.2043659999999932
21
-97.3007489999999962
0
LINE
8
BLACK
6
CONTINUOUS
10
110.9662709999999919
20
-99.3007489999999962
11
111.0615090000000009
21
-99.2055110000000013
0
LINE
8
BLACK
6
CONTINUOUS
10
111.0615090000000009
20
-99.2055110000000013
11
111.2519849999999906
21
-98.9197969999999884
0
LINE
8
BLACK
6
CONTINUOUS
10
111.2519849999999906
20
-98.9197969999999884
11
111.3472229999999996
21
-98.7293209999999988
0
LINE
8
BLACK
6
CONTINUOUS
10
111.3472229999999996
20
-98.7293209999999988
11
111.4424609999999944
21
-98.4436070000000001
0
LINE
8
BLACK
6
CONTINUOUS
10
111.4424609999999944
20
-98.4436070000000001
11
111.5376989999999893
21
-97.9674160000000001
0
LINE
8
BLACK
6
CONTINUOUS
10
111.5376989999999893
20
-97.9674160000000001
11
111.5376989999999893
21
-97.5864639999999923
0
LINE
8
BLACK
6
CONTINUOUS
10
111.5376989999999893
20
-97.5864639999999923
11
111.4424609999999944
21
-97.1102729999999923
0
LINE
8
BLACK
6
CONTINUOUS
10
111.4424609999999944
20
-97.1102729999999923
11
111.3472229999999996
21
-96.8245589999999936
0
LINE
8
BLACK
6
CONTINUOUS
10
111.3472229999999996
20
-96.8245589999999936
11
111.2519849999999906
21
-96.6340829999999897
0
LINE
8
BLACK
6
CONTINUOUS
10
111.2519849999999906
20
-96.6340829999999897
11
111.0615090000000009
21
-96.3483679999999936
0
LINE
8
BLACK
6
CONTINUOUS
10
111.0615090000000009
20
-96.3483679999999936
11
110.9662709999999919
21
-96.2531299999999987
0
LINE
8
BLACK
6
CONTINUOUS
10
114.5853189999999984
20
-99.3007489999999962
11
114.4900799999999919
21
-99.2055110000000013
0
LINE
8
BLACK
6
CONTINUOUS
10
114.4900799999999919
20
-99.2055110000000013
11
114.299603999999988
21
-98.9197969999999884
0
LINE
8
BLACK
6
CONTINUOUS
10
114.299603999999988
20
-98.9197969999999884
11
114.2043659999999932
21
-98.7293209999999988
0
LINE
8
BLACK
6
CONTINUOUS
10
114.2043659999999932
20
-98.7293209999999988
11
114.1091279999999983
21
-98.4436070000000001
0
LINE
8
BLACK
6
CONTINUOUS
10
114.1091279999999983
20
-98.4436070000000001
11
114.0138899999999893
21
-97.9674160000000001
0
LINE
8
BLACK
6
CONTINUOUS
10
114.0138899999999893
20
-97.9674160000000001
11
114.0138899999999893
21
-97.5864639999999923
0
LINE
8
BLACK
6
CONTINUOUS
10
114.0138899999999893
20
-97.5864639999999923
11
114.1091279999999983
21
-97.1102729999999923
0
LINE
8
BLACK
6
CONTINUOUS
10
114.1091279999999983
20
-97.1102729999999923
11
114.2043659999999932
21
-96.8245589999999936
0
LINE
8
BLACK
6
CONTINUOUS
10
114.2043659999999932
20
-96.8245589999999936
11
114.299603999999988
21
-96.6340829999999897
0
LINE
8
BLACK
6
CONTINUOUS
10
114.299603999999988
20
-96.6340829999999897
11
114.4900799999999919
21
-96.3483679999999936
0
LINE
8
BLACK
6
CONTINUOUS
10
114.4900799999999919
20
-96.3483679999999936
11
114.5853189999999984
21
-96.2531299999999987
0
LINE
8
BLACK
6
CONTINUOUS
10
115.3472229999999996
20
-97.2055110000000013
11
115.3472229999999996
21
-98.5388449999999949
0
LINE
8
BLACK
6
CONTINUOUS
10
115.3472229999999996
20
-97.395986999999991
11
115.4424609999999944
21
-97.3007489999999962
0
LINE
8
BLACK
6
CONTINUOUS
10
115.4424609999999944
20
-97.3007489999999962
11
115.6329369999999983
21
-97.2055110000000013
0
LINE
8
BLACK
6
CONTINUOUS
10
115.6329369999999983
20
-97.2055110000000013
11
115.9186519999999945
21
-97.2055110000000013
0
LINE
8
BLACK
6
CONTINUOUS
10
115.9186519999999945
20
-97.2055110000000013
11
116.1091279999999983
21
-97.3007489999999962
0
LINE
8
BLACK
6
CONTINUOUS
10
116.1091279999999983
20
-97.3007489999999962
11
116.2043659999999932
21
-97.4912259999999975
0
LINE
8
BLACK
6
CONTINUOUS
10
116.2043659999999932
20
-97.4912259999999975
11
116.2043659999999932
21
-98.5388449999999949
0
LINE
8
BLACK
6
CONTINUOUS
10
117.4424609999999944
20
-98.5388449999999949
11
117.2519849999999906
21
-98.4436070000000001
0
LINE
8
BLACK
6
CONTINUOUS
10
117.2519849999999906
20
-98.4436070000000001
11
117.1567469999999958
21
-98.3483679999999936
0
LINE
8
BLACK
6
CONTINUOUS
10
117.1567469999999958
20
-98.3483679999999936
11
117.0615090000000009
21
-98.1578919999999897
0
LINE
8
BLACK
6
CONTINUOUS
10
117.0615090000000009
20
-98.1578919999999897
11
117.0615090000000009
21
-97.5864639999999923
0
LINE
8
BLACK
6
CONTINUOUS
10
117.0615090000000009
20
-97.5864639999999923
11
117.1567469999999958
21
-97.395986999999991
0
LINE
8
BLACK
6
CONTINUOUS
10
117.1567469999999958
20
-97.395986999999991
11
117.2519849999999906
21
-97.3007489999999962
0
LINE
8
BLACK
6
CONTINUOUS
10
117.2519849999999906
20
-97.3007489999999962
11
117.4424609999999944
21
-97.2055110000000013
0
LINE
8
BLACK
6
CONTINUOUS
10
117.4424609999999944
20
-97.2055110000000013
11
117.7281759999999906
21
-97.2055110000000013
0
LINE
8
BLACK
6
CONTINUOUS
10
117.7281759999999906
20
-97.2055110000000013
11
117.9186519999999945
21
-97.3007489999999962
0
LINE
8
BLACK
6
CONTINUOUS
10
117.9186519999999945
20
-97.3007489999999962
11
118.0138899999999893
21
-97.395986999999991
0
LINE
8
BLACK
6
CONTINUOUS
10
118.0138899999999893
20
-97.395986999999991
11
118.1091279999999983
21
-97.5864639999999923
0
LINE
8
BLACK
6
CONTINUOUS
10
118.1091279999999983
20
-97.5864639999999923
11
118.1091279999999983
21
-98.1578919999999897
0
LINE
8
BLACK
6
CONTINUOUS
10
118.1091279999999983
20
-98.1578919999999897
11
118.0138899999999893
21
-98.3483679999999936
0
LINE
8
BLACK
6
CONTINUOUS
10
118.0138899999999893
20
-98.3483679999999936
11
117.9186519999999945
21
-98.4436070000000001
0
LINE
8
BLACK
6
CONTINUOUS
10
117.9186519999999945
20
-98.4436070000000001
11
117.7281759999999906
21
-98.5388449999999949
0
LINE
8
BLACK
6
CONTINUOUS
10
117.7281759999999906
20
-98.5388449999999949
11
117.4424609999999944
21
-98.5388449999999949
0
LINE
8
BLACK
6
CONTINUOUS
10
118.6805569999999932
20
-97.2055110000000013
11
119.4424609999999944
21
-97.2055110000000013
0
LINE
8
BLACK
6
CONTINUOUS
10
118.9662709999999919
20
-96.5388449999999949
11
118.9662709999999919
21
-98.2531299999999987
0
LINE
8
BLACK
6
CONTINUOUS
10
118.9662709999999919
20
-98.2531299999999987
11
119.0615090000000009
21
-98.4436070000000001
0
LINE
8
BLACK
6
CONTINUOUS
10
119.0615090000000009
20
-98.4436070000000001
11
119.2519849999999906
21
-98.5388449999999949
0
LINE
8
BLACK
6
CONTINUOUS
10
119.2519849999999906
20
-98.5388449999999949
11
119.4424609999999944
21
-98.5388449999999949
0
LINE
8
BLACK
6
CONTINUOUS
10
121.6329379999999958
20
-97.2055110000000013
11
121.6329379999999958
21
-99.2055110000000013
0
LINE
8
BLACK
6
CONTINUOUS
10
121.6329379999999958
20
-97.3007489999999962
11
121.8234139999999996
21
-97.2055110000000013
0
LINE
8
BLACK
6
CONTINUOUS
10
121.8234139999999996
20
-97.2055110000000013
11
122.2043669999999906
21
-97.2055110000000013
0
LINE
8
BLACK
6
CONTINUOUS
10
122.2043669999999906
20
-97.2055110000000013
11
122.3948429999999945
21
-97.3007489999999962
0
LINE
8
BLACK
6
CONTINUOUS
10
122.3948429999999945
20
-97.3007489999999962
11
122.4900809999999893
21
-97.395986999999991
0
LINE
8
BLACK
6
CONTINUOUS
10
122.4900809999999893
20
-97.395986999999991
11
122.5853189999999984
21
-97.5864639999999923
0
LINE
8
BLACK
6
CONTINUOUS
10
122.5853189999999984
20
-97.5864639999999923
11
122.5853189999999984
21
-98.1578919999999897
0
LINE
8
BLACK
6
CONTINUOUS
10
122.5853189999999984
20
-98.1578919999999897
11
122.4900809999999893
21
-98.3483679999999936
0
LINE
8
BLACK
6
CONTINUOUS
10
122.4900809999999893
20
-98.3483679999999936
11
122.3948429999999945
21
-98.4436070000000001
0
LINE
8
BLACK
6
CONTINUOUS
10
122.3948429999999945
20
-98.4436070000000001
11
122.2043669999999906
21
-98.5388449999999949
0
LINE
8
BLACK
6
CONTINUOUS
10
122.2043669999999906
20
-98.5388449999999949
11
121.8234139999999996
21
-98.5388449999999949
0
LINE
8
BLACK
6
CONTINUOUS
10
121.8234139999999996
20
-98.5388449999999949
11
121.6329379999999958
21
-98.4436070000000001
0
LINE
8
BLACK
6
CONTINUOUS
10
123.7281759999999906
20
-98.5388449999999949
11
123.537700000000001
21
-98.4436070000000001
0
LINE
8
BLACK
6
CONTINUOUS
10
123.537700000000001
20
-98.4436070000000001
11
123.4424619999999919
21
-98.2531299999999987
0
LINE
8
BLACK
6
CONTINUOUS
10
123.4424619999999919
20
-98.2531299999999987
11
123.4424619999999919
21
-96.5388449999999949
0
LINE
8
BLACK
6
CONTINUOUS
10
125.3472239999999971
20
-98.5388449999999949
11
125.3472239999999971
21
-97.4912259999999975
0
LINE
8
BLACK
6
CONTINUOUS
10
125.3472239999999971
20
-97.4912259999999975
11
125.2519859999999881
21
-97.3007489999999962
0
LINE
8
BLACK
6
CONTINUOUS
10
125.2519859999999881
20
-97.3007489999999962
11
125.0615099999999984
21
-97.2055110000000013
0
LINE
8
BLACK
6
CONTINUOUS
10
125.0615099999999984
20
-97.2055110000000013
11
124.6805569999999932
21
-97.2055110000000013
0
LINE
8
BLACK
6
CONTINUOUS
10
124.6805569999999932
20
-97.2055110000000013
11
124.4900809999999893
21
-97.3007489999999962
0
LINE
8
BLACK
6
CONTINUOUS
10
125.3472239999999971
20
-98.4436070000000001
11
125.1567479999999932
21
-98.5388449999999949
0
LINE
8
BLACK
6
CONTINUOUS
10
125.1567479999999932
20
-98.5388449999999949
11
124.6805569999999932
21
-98.5388449999999949
0
LINE
8
BLACK
6
CONTINUOUS
10
124.6805569999999932
20
-98.5388449999999949
11
124.4900809999999893
21
-98.4436070000000001
0
LINE
8
BLACK
6
CONTINUOUS
10
124.4900809999999893
20
-98.4436070000000001
11
124.3948429999999945
21
-98.2531299999999987
0
LINE
8
BLACK
6
CONTINUOUS
10
124.3948429999999945
20
-98.2531299999999987
11
124.3948429999999945
21
-98.0626539999999949
0
LINE
8
BLACK
6
CONTINUOUS
10
124.3948429999999945
20
-98.0626539999999949
11
124.4900809999999893
21
-97.872177999999991
0
LINE
8
BLACK
6
CONTINUOUS
10
124.4900809999999893
20
-97.872177999999991
11
124.6805569999999932
21
-97.7769399999999962
0
LINE
8
BLACK
6
CONTINUOUS
10
124.6805569999999932
20
-97.7769399999999962
11
125.1567479999999932
21
-97.7769399999999962
0
LINE
8
BLACK
6
CONTINUOUS
10
125.1567479999999932
20
-97.7769399999999962
11
125.3472239999999971
21
-97.6817020000000014
0
LINE
8
BLACK
6
CONTINUOUS
10
126.013891000000001
20
-97.2055110000000013
11
126.775794999999988
21
-97.2055110000000013
0
LINE
8
BLACK
6
CONTINUOUS
10
126.2996049999999997
20
-96.5388449999999949
11
126.2996049999999997
21
-98.2531299999999987
0
LINE
8
BLACK
6
CONTINUOUS
10
126.2996049999999997
20
-98.2531299999999987
11
126.3948429999999945
21
-98.4436070000000001
0
LINE
8
BLACK
6
CONTINUOUS
10
126.3948429999999945
20
-98.4436070000000001
11
126.5853189999999984
21
-98.5388449999999949
0
LINE
8
BLACK
6
CONTINUOUS
10
126.5853189999999984
20
-98.5388449999999949
11
126.775794999999988
21
-98.5388449999999949
0
LINE
8
BLACK
6
CONTINUOUS
10
128.2043669999999906
20
-98.4436070000000001
11
128.013891000000001
21
-98.5388449999999949
0
LINE
8
BLACK
6
CONTINUOUS
10
128.013891000000001
20
-98.5388449999999949
11
127.6329379999999958
21
-98.5388449999999949
0
LINE
8
BLACK
6
CONTINUOUS
10
127.6329379999999958
20
-98.5388449999999949
11
127.4424619999999919
21
-98.4436070000000001
0
LINE
8
BLACK
6
CONTINUOUS
10
127.4424619999999919
20
-98.4436070000000001
11
127.3472239999999971
21
-98.2531299999999987
0
LINE
8
BLACK
6
CONTINUOUS
10
127.3472239999999971
20
-98.2531299999999987
11
127.3472239999999971
21
-97.4912259999999975
0
LINE
8
BLACK
6
CONTINUOUS
10
127.3472239999999971
20
-97.4912259999999975
11
127.4424619999999919
21
-97.3007489999999962
0
LINE
8
BLACK
6
CONTINUOUS
10
127.4424619999999919
20
-97.3007489999999962
11
127.6329379999999958
21
-97.2055110000000013
0
LINE
8
BLACK
6
CONTINUOUS
10
127.6329379999999958
20
-97.2055110000000013
11
128.013891000000001
21
-97.2055110000000013
0
LINE
8
BLACK
6
CONTINUOUS
10
128.013891000000001
20
-97.2055110000000013
11
128.2043669999999906
21
-97.3007489999999962
0
LINE
8
BLACK
6
CONTINUOUS
10
128.2043669999999906
20
-97.3007489999999962
11
128.2996049999999855
21
-97.4912259999999975
0
LINE
8
BLACK
6
CONTINUOUS
10
128.2996049999999855
20
-97.4912259999999975
11
128.2996049999999855
21
-97.6817020000000014
0
LINE
8
BLACK
6
CONTINUOUS
10
128.2996049999999855
20
-97.6817020000000014
11
127.3472239999999971
21
-97.872177999999991
0
LINE
8
BLACK
6
CONTINUOUS
10
130.013891000000001
20
-98.5388449999999949
11
130.013891000000001
21
-96.5388449999999949
0
LINE
8
BLACK
6
CONTINUOUS
10
130.013891000000001
20
-98.4436070000000001
11
129.8234149999999829
21
-98.5388449999999949
0
LINE
8
BLACK
6
CONTINUOUS
10
129.8234149999999829
20
-98.5388449999999949
11
129.4424620000000061
21
-98.5388449999999949
0
LINE
8
BLACK
6
CONTINUOUS
10
129.4424620000000061
20
-98.5388449999999949
11
129.2519859999999881
21
-98.4436070000000001
0
LINE
8
BLACK
6
CONTINUOUS
10
129.2519859999999881
20
-98.4436070000000001
11
129.1567479999999932
21
-98.3483679999999936
0
LINE
8
BLACK
6
CONTINUOUS
10
129.1567479999999932
20
-98.3483679999999936
11
129.0615099999999984
21
-98.1578919999999897
0
LINE
8
BLACK
6
CONTINUOUS
10
129.0615099999999984
20
-98.1578919999999897
11
129.0615099999999984
21
-97.5864639999999923
0
LINE
8
BLACK
6
CONTINUOUS
10
129.0615099999999984
20
-97.5864639999999923
11
129.1567479999999932
21
-97.395986999999991
0
LINE
8
BLACK
6
CONTINUOUS
10
129.1567479999999932
20
-97.395986999999991
11
129.2519859999999881
21
-97.3007489999999962
0
LINE
8
BLACK
6
CONTINUOUS
10
129.2519859999999881
20
-97.3007489999999962
11
129.4424620000000061
21
-97.2055110000000013
0
LINE
8
BLACK
6
CONTINUOUS
10
129.4424620000000061
20
-97.2055110000000013
11
129.8234149999999829
21
-97.2055110000000013
0
LINE
8
BLACK
6
CONTINUOUS
10
129.8234149999999829
20
-97.2055110000000013
11
130.013891000000001
21
-97.3007489999999962
0
LINE
8
BLACK
6
CONTINUOUS
10
130.7757959999999855
20
-99.3007489999999962
11
130.8710339999999803
21
-99.2055110000000013
0
LINE
8
BLACK
6
CONTINUOUS
10
130.8710339999999803
20
-99.2055110000000013
11
131.0615099999999984
21
-98.9197969999999884
0
LINE
8
BLACK
6
CONTINUOUS
10
131.0615099999999984
20
-98.9197969999999884
11
131.1567479999999932
21
-98.7293209999999988
0
LINE
8
BLACK
6
CONTINUOUS
10
131.1567479999999932
20
-98.7293209999999988
11
131.2519859999999881
21
-98.4436070000000001
0
LINE
8
BLACK
6
CONTINUOUS
10
131.2519859999999881
20
-98.4436070000000001
11
131.3472239999999829
21
-97.9674160000000001
0
LINE
8
BLACK
6
CONTINUOUS
10
131.3472239999999829
20
-97.9674160000000001
11
131.3472239999999829
21
-97.5864639999999923
0
LINE
8
BLACK
6
CONTINUOUS
10
131.3472239999999829
20
-97.5864639999999923
11
131.2519859999999881
21
-97.1102729999999923
0
LINE
8
BLACK
6
CONTINUOUS
10
131.2519859999999881
20
-97.1102729999999923
11
131.1567479999999932
21
-96.8245589999999936
0
LINE
8
BLACK
6
CONTINUOUS
10
131.1567479999999932
20
-96.8245589999999936
11
131.0615099999999984
21
-96.6340829999999897
0
LINE
8
BLACK
6
CONTINUOUS
10
131.0615099999999984
20
-96.6340829999999897
11
130.8710339999999803
21
-96.3483679999999936
0
LINE
8
BLACK
6
CONTINUOUS
10
130.8710339999999803
20
-96.3483679999999936
11
130.7757959999999855
21
-96.2531299999999987
0
CIRCLE
8
BLACK
10
62.215640999999998
20
-100.6240069999999918
40
1.
0
LINE
8
BLACK
6
CONTINUOUS
10
65.6329329999999942
20
-99.5388449999999949
11
66.8710279999999955
21
-99.5388449999999949
0
LINE
8
BLACK
6
CONTINUOUS
10
66.8710279999999955
20
-99.5388449999999949
11
66.2043609999999916
21
-100.3007489999999962
0
LINE
8
BLACK
6
CONTINUOUS
10
66.2043609999999916
20
-100.3007489999999962
11
66.490076000000002
21
-100.3007489999999962
0
LINE
8
BLACK
6
CONTINUOUS
10
66.490076000000002
20
-100.3007489999999962
11
66.6805519999999916
21
-100.395986999999991
0
LINE
8
BLACK
6
CONTINUOUS
10
66.6805519999999916
20
-100.395986999999991
11
66.7757900000000006
21
-100.4912259999999975
0
LINE
8
BLACK
6
CONTINUOUS
10
66.7757900000000006
20
-100.4912259999999975
11
66.8710279999999955
21
-100.6817020000000014
0
LINE
8
BLACK
6
CONTINUOUS
10
66.8710279999999955
20
-100.6817020000000014
11
66.8710279999999955
21
-101.1578919999999897
0
LINE
8
BLACK
6
CONTINUOUS
10
66.8710279999999955
20
-101.1578919999999897
11
66.7757900000000006
21
-101.3483679999999936
0
LINE
8
BLACK
6
CONTINUOUS
10
66.7757900000000006
20
-101.3483679999999936
11
66.6805519999999916
21
-101.4436070000000001
0
LINE
8
BLACK
6
CONTINUOUS
10
66.6805519999999916
20
-101.4436070000000001
11
66.490076000000002
21
-101.5388449999999949
0
LINE
8
BLACK
6
CONTINUOUS
10
66.490076000000002
20
-101.5388449999999949
11
65.9186469999999929
21
-101.5388449999999949
0
LINE
8
BLACK
6
CONTINUOUS
10
65.9186469999999929
20
-101.5388449999999949
11
65.7281710000000032
21
-101.4436070000000001
0
LINE
8
BLACK
6
CONTINUOUS
10
65.7281710000000032
20
-101.4436070000000001
11
65.6329329999999942
21
-101.3483679999999936
0
LINE
8
BLACK
6
CONTINUOUS
10
67.7281710000000032
20
-101.3483679999999936
11
67.8234089999999981
21
-101.4436070000000001
0
LINE
8
BLACK
6
CONTINUOUS
10
67.8234089999999981
20
-101.4436070000000001
11
67.7281710000000032
21
-101.5388449999999949
0
LINE
8
BLACK
6
CONTINUOUS
10
67.7281710000000032
20
-101.5388449999999949
11
67.6329329999999942
21
-101.4436070000000001
0
LINE
8
BLACK
6
CONTINUOUS
10
67.6329329999999942
20
-101.4436070000000001
11
67.7281710000000032
21
-101.3483679999999936
0
LINE
8
BLACK
6
CONTINUOUS
10
67.7281710000000032
20
-101.3483679999999936
11
67.7281710000000032
21
-101.5388449999999949
0
LINE
8
BLACK
6
CONTINUOUS
10
69.0615039999999993
20
-99.5388449999999949
11
69.2519810000000007
21
-99.5388449999999949
0
LINE
8
BLACK
6
CONTINUOUS
10
69.2519810000000007
20
-99.5388449999999949
11
69.4424569999999903
21
-99.6340829999999897
0
LINE
8
BLACK
6
CONTINUOUS
10
69.4424569999999903
20
-99.6340829999999897
11
69.5376949999999994
21
-99.7293209999999988
0
LINE
8
BLACK
6
CONTINUOUS
10
69.5376949999999994
20
-99.7293209999999988
11
69.6329329999999942
21
-99.9197969999999884
0
LINE
8
BLACK
6
CONTINUOUS
10
69.6329329999999942
20
-99.9197969999999884
11
69.7281710000000032
21
-100.3007489999999962
0
LINE
8
BLACK
6
CONTINUOUS
10
69.7281710000000032
20
-100.3007489999999962
11
69.7281710000000032
21
-100.7769399999999962
0
LINE
8
BLACK
6
CONTINUOUS
10
69.7281710000000032
20
-100.7769399999999962
11
69.6329329999999942
21
-101.1578919999999897
0
LINE
8
BLACK
6
CONTINUOUS
10
69.6329329999999942
20
-101.1578919999999897
11
69.5376949999999994
21
-101.3483679999999936
0
LINE
8
BLACK
6
CONTINUOUS
10
69.5376949999999994
20
-101.3483679999999936
11
69.4424569999999903
21
-101.4436070000000001
0
LINE
8
BLACK
6
CONTINUOUS
10
69.4424569999999903
20
-101.4436070000000001
11
69.2519810000000007
21
-101.5388449999999949
0
LINE
8
BLACK
6
CONTINUOUS
10
69.2519810000000007
20
-101.5388449999999949
11
69.0615039999999993
21
-101.5388449999999949
0
LINE
8
BLACK
6
CONTINUOUS
10
69.0615039999999993
20
-101.5388449999999949
11
68.8710279999999955
21
-101.4436070000000001
0
LINE
8
BLACK
6
CONTINUOUS
10
68.8710279999999955
20
-101.4436070000000001
11
68.7757900000000006
21
-101.3483679999999936
0
LINE
8
BLACK
6
CONTINUOUS
10
68.7757900000000006
20
-101.3483679999999936
11
68.6805519999999916
21
-101.1578919999999897
0
LINE
8
BLACK
6
CONTINUOUS
10
68.6805519999999916
20
-101.1578919999999897
11
68.5853139999999968
21
-100.7769399999999962
0
LINE
8
BLACK
6
CONTINUOUS
10
68.5853139999999968
20
-100.7769399999999962
11
68.5853139999999968
21
-100.3007489999999962
0
LINE
8
BLACK
6
CONTINUOUS
10
68.5853139999999968
20
-100.3007489999999962
11
68.6805519999999916
21
-99.9197969999999884
0
LINE
8
BLACK
6
CONTINUOUS
10
68.6805519999999916
20
-99.9197969999999884
11
68.7757900000000006
21
-99.7293209999999988
0
LINE
8
BLACK
6
CONTINUOUS
10
68.7757900000000006
20
-99.7293209999999988
11
68.8710279999999955
21
-99.6340829999999897
0
LINE
8
BLACK
6
CONTINUOUS
10
68.8710279999999955
20
-99.6340829999999897
11
69.0615039999999993
21
-99.5388449999999949
0
LINE
8
BLACK
6
CONTINUOUS
10
70.9662659999999903
20
-99.5388449999999949
11
71.1567429999999916
21
-99.5388449999999949
0
LINE
8
BLACK
6
CONTINUOUS
10
71.1567429999999916
20
-99.5388449999999949
11
71.3472189999999955
21
-99.6340829999999897
0
LINE
8
BLACK
6
CONTINUOUS
10
71.3472189999999955
20
-99.6340829999999897
11
71.4424569999999903
21
-99.7293209999999988
0
LINE
8
BLACK
6
CONTINUOUS
10
71.4424569999999903
20
-99.7293209999999988
11
71.5376949999999994
21
-99.9197969999999884
0
LINE
8
BLACK
6
CONTINUOUS
10
71.5376949999999994
20
-99.9197969999999884
11
71.6329329999999942
21
-100.3007489999999962
0
LINE
8
BLACK
6
CONTINUOUS
10
71.6329329999999942
20
-100.3007489999999962
11
71.6329329999999942
21
-100.7769399999999962
0
LINE
8
BLACK
6
CONTINUOUS
10
71.6329329999999942
20
-100.7769399999999962
11
71.5376949999999994
21
-101.1578919999999897
0
LINE
8
BLACK
6
CONTINUOUS
10
71.5376949999999994
20
-101.1578919999999897
11
71.4424569999999903
21
-101.3483679999999936
0
LINE
8
BLACK
6
CONTINUOUS
10
71.4424569999999903
20
-101.3483679999999936
11
71.3472189999999955
21
-101.4436070000000001
0
LINE
8
BLACK
6
CONTINUOUS
10
71.3472189999999955
20
-101.4436070000000001
11
71.1567429999999916
21
-101.5388449999999949
0
LINE
8
BLACK
6
CONTINUOUS
10
71.1567429999999916
20
-101.5388449999999949
11
70.9662659999999903
21
-101.5388449999999949
0
LINE
8
BLACK
6
CONTINUOUS
10
70.9662659999999903
20
-101.5388449999999949
11
70.7757900000000006
21
-101.4436070000000001
0
LINE
8
BLACK
6
CONTINUOUS
10
70.7757900000000006
20
-101.4436070000000001
11
70.6805519999999916
21
-101.3483679999999936
0
LINE
8
BLACK
6
CONTINUOUS
10
70.6805519999999916
20
-101.3483679999999936
11
70.5853139999999968
21
-101.1578919999999897
0
LINE
8
BLACK
6
CONTINUOUS
10
70.5853139999999968
20
-101.1578919999999897
11
70.490076000000002
21
-100.7769399999999962
0
LINE
8
BLACK
6
CONTINUOUS
10
70.490076000000002
20
-100.7769399999999962
11
70.490076000000002
21
-100.3007489999999962
0
LINE
8
BLACK
6
CONTINUOUS
10
70.490076000000002
20
-100.3007489999999962
11
70.5853139999999968
21
-99.9197969999999884
0
LINE
8
BLACK
6
CONTINUOUS
10
70.5853139999999968
20
-99.9197969999999884
11
70.6805519999999916
21
-99.7293209999999988
0
LINE
8
BLACK
6
CONTINUOUS
10
70.6805519999999916
20
-99.7293209999999988
11
70.7757900000000006
21
-99.6340829999999897
0
LINE
8
BLACK
6
CONTINUOUS
10
70.7757900000000006
20
-99.6340829999999897
11
70.9662659999999903
21
-99.5388449999999949
0
LINE
8
BLACK
6
CONTINUOUS
10
72.8710279999999955
20
-99.5388449999999949
11
73.0615049999999968
21
-99.5388449999999949
0
LINE
8
BLACK
6
CONTINUOUS
10
73.0615049999999968
20
-99.5388449999999949
11
73.2519810000000007
21
-99.6340829999999897
0
LINE
8
BLACK
6
CONTINUOUS
10
73.2519810000000007
20
-99.6340829999999897
11
73.3472189999999955
21
-99.7293209999999988
0
LINE
8
BLACK
6
CONTINUOUS
10
73.3472189999999955
20
-99.7293209999999988
11
73.4424569999999903
21
-99.9197969999999884
0
LINE
8
BLACK
6
CONTINUOUS
10
73.4424569999999903
20
-99.9197969999999884
11
73.5376949999999994
21
-100.3007489999999962
0
LINE
8
BLACK
6
CONTINUOUS
10
73.5376949999999994
20
-100.3007489999999962
11
73.5376949999999994
21
-100.7769399999999962
0
LINE
8
BLACK
6
CONTINUOUS
10
73.5376949999999994
20
-100.7769399999999962
11
73.4424569999999903
21
-101.1578919999999897
0
LINE
8
BLACK
6
CONTINUOUS
10
73.4424569999999903
20
-101.1578919999999897
11
73.3472189999999955
21
-101.3483679999999936
0
LINE
8
BLACK
6
CONTINUOUS
10
73.3472189999999955
20
-101.3483679999999936
11
73.2519810000000007
21
-101.4436070000000001
0
LINE
8
BLACK
6
CONTINUOUS
10
73.2519810000000007
20
-101.4436070000000001
11
73.0615049999999968
21
-101.5388449999999949
0
LINE
8
BLACK
6
CONTINUOUS
10
73.0615049999999968
20
-101.5388449999999949
11
72.8710279999999955
21
-101.5388449999999949
0
LINE
8
BLACK
6
CONTINUOUS
10
72.8710279999999955
20
-101.5388449999999949
11
72.6805519999999916
21
-101.4436070000000001
0
LINE
8
BLACK
6
CONTINUOUS
10
72.6805519999999916
20
-101.4436070000000001
11
72.5853139999999968
21
-101.3483679999999936
0
LINE
8
BLACK
6
CONTINUOUS
10
72.5853139999999968
20
-101.3483679999999936
11
72.490076000000002
21
-101.1578919999999897
0
LINE
8
BLACK
6
CONTINUOUS
10
72.490076000000002
20
-101.1578919999999897
11
72.3948379999999929
21
-100.7769399999999962
0
LINE
8
BLACK
6
CONTINUOUS
10
72.3948379999999929
20
-100.7769399999999962
11
72.3948379999999929
21
-100.3007489999999962
0
LINE
8
BLACK
6
CONTINUOUS
10
72.3948379999999929
20
-100.3007489999999962
11
72.490076000000002
21
-99.9197969999999884
0
LINE
8
BLACK
6
CONTINUOUS
10
72.490076000000002
20
-99.9197969999999884
11
72.5853139999999968
21
-99.7293209999999988
0
LINE
8
BLACK
6
CONTINUOUS
10
72.5853139999999968
20
-99.7293209999999988
11
72.6805519999999916
21
-99.6340829999999897
0
LINE
8
BLACK
6
CONTINUOUS
10
72.6805519999999916
20
-99.6340829999999897
11
72.8710279999999955
21
-99.5388449999999949
0
LINE
8
BLACK
6
CONTINUOUS
10
74.3948379999999929
20
-101.5388449999999949
11
74.3948379999999929
21
-100.2055110000000013
0
LINE
8
BLACK
6
CONTINUOUS
10
74.3948379999999929
20
-100.395986999999991
11
74.490076000000002
21
-100.3007489999999962
0
LINE
8
BLACK
6
CONTINUOUS
10
74.490076000000002
20
-100.3007489999999962
11
74.6805519999999916
21
-100.2055110000000013
0
LINE
8
BLACK
6
CONTINUOUS
10
74.6805519999999916
20
-100.2055110000000013
11
74.966267000000002
21
-100.2055110000000013
0
LINE
8
BLACK
6
CONTINUOUS
10
74.966267000000002
20
-100.2055110000000013
11
75.1567429999999916
21
-100.3007489999999962
0
LINE
8
BLACK
6
CONTINUOUS
10
75.1567429999999916
20
-100.3007489999999962
11
75.2519810000000007
21
-100.4912259999999975
0
LINE
8
BLACK
6
CONTINUOUS
10
75.2519810000000007
20
-100.4912259999999975
11
75.2519810000000007
21
-101.5388449999999949
0
LINE
8
BLACK
6
CONTINUOUS
10
75.2519810000000007
20
-100.4912259999999975
11
75.3472189999999955
21
-100.3007489999999962
0
LINE
8
BLACK
6
CONTINUOUS
10
75.3472189999999955
20
-100.3007489999999962
11
75.5376949999999994
21
-100.2055110000000013
0
LINE
8
BLACK
6
CONTINUOUS
10
75.5376949999999994
20
-100.2055110000000013
11
75.8234089999999981
21
-100.2055110000000013
0
LINE
8
BLACK
6
CONTINUOUS
10
75.8234089999999981
20
-100.2055110000000013
11
76.0138859999999994
21
-100.3007489999999962
0
LINE
8
BLACK
6
CONTINUOUS
10
76.0138859999999994
20
-100.3007489999999962
11
76.1091239999999942
21
-100.4912259999999975
0
LINE
8
BLACK
6
CONTINUOUS
10
76.1091239999999942
20
-100.4912259999999975
11
76.1091239999999942
21
-101.5388449999999949
0
LINE
8
BLACK
6
CONTINUOUS
10
77.0615049999999968
20
-101.5388449999999949
11
77.0615049999999968
21
-100.2055110000000013
0
LINE
8
BLACK
6
CONTINUOUS
10
77.0615049999999968
20
-100.395986999999991
11
77.1567429999999916
21
-100.3007489999999962
0
LINE
8
BLACK
6
CONTINUOUS
10
77.1567429999999916
20
-100.3007489999999962
11
77.3472189999999955
21
-100.2055110000000013
0
LINE
8
BLACK
6
CONTINUOUS
10
77.3472189999999955
20
-100.2055110000000013
11
77.6329339999999917
21
-100.2055110000000013
0
LINE
8
BLACK
6
CONTINUOUS
10
77.6329339999999917
20
-100.2055110000000013
11
77.8234099999999955
21
-100.3007489999999962
0
LINE
8
BLACK
6
CONTINUOUS
10
77.8234099999999955
20
-100.3007489999999962
11
77.9186479999999904
21
-100.4912259999999975
0
LINE
8
BLACK
6
CONTINUOUS
10
77.9186479999999904
20
-100.4912259999999975
11
77.9186479999999904
21
-101.5388449999999949
0
LINE
8
BLACK
6
CONTINUOUS
10
77.9186479999999904
20
-100.4912259999999975
11
78.0138859999999994
21
-100.3007489999999962
0
LINE
8
BLACK
6
CONTINUOUS
10
78.0138859999999994
20
-100.3007489999999962
11
78.2043620000000033
21
-100.2055110000000013
0
LINE
8
BLACK
6
CONTINUOUS
10
78.2043620000000033
20
-100.2055110000000013
11
78.490076000000002
21
-100.2055110000000013
0
LINE
8
BLACK
6
CONTINUOUS
10
78.490076000000002
20
-100.2055110000000013
11
78.6805530000000033
21
-100.3007489999999962
0
LINE
8
BLACK
6
CONTINUOUS
10
78.6805530000000033
20
-100.3007489999999962
11
78.7757909999999981
21
-100.4912259999999975
0
LINE
8
BLACK
6
CONTINUOUS
10
78.7757909999999981
20
-100.4912259999999975
11
78.7757909999999981
21
-101.5388449999999949
0
LINE
8
BLACK
6
CONTINUOUS
10
82.6805530000000033
20
-99.4436070000000001
11
80.9662679999999995
21
-102.0150349999999975
0
LINE
8
BLACK
6
CONTINUOUS
10
85.2519819999999982
20
-99.5388449999999949
11
85.4424589999999995
21
-99.5388449999999949
0
LINE
8
BLACK
6
CONTINUOUS
10
85.4424589999999995
20
-99.5388449999999949
11
85.6329349999999891
21
-99.6340829999999897
0
LINE
8
BLACK
6
CONTINUOUS
10
85.6329349999999891
20
-99.6340829999999897
11
85.7281729999999982
21
-99.7293209999999988
0
LINE
8
BLACK
6
CONTINUOUS
10
85.7281729999999982
20
-99.7293209999999988
11
85.823410999999993
21
-99.9197969999999884
0
LINE
8
BLACK
6
CONTINUOUS
10
85.823410999999993
20
-99.9197969999999884
11
85.918649000000002
21
-100.3007489999999962
0
LINE
8
BLACK
6
CONTINUOUS
10
85.918649000000002
20
-100.3007489999999962
11
85.918649000000002
21
-100.7769399999999962
0
LINE
8
BLACK
6
CONTINUOUS
10
85.918649000000002
20
-100.7769399999999962
11
85.823410999999993
21
-101.1578919999999897
0
LINE
8
BLACK
6
CONTINUOUS
10
85.823410999999993
20
-101.1578919999999897
11
85.7281729999999982
21
-101.3483679999999936
0
LINE
8
BLACK
6
CONTINUOUS
10
85.7281729999999982
20
-101.3483679999999936
11
85.6329349999999891
21
-101.4436070000000001
0
LINE
8
BLACK
6
CONTINUOUS
10
85.6329349999999891
20
-101.4436070000000001
11
85.4424589999999995
21
-101.5388449999999949
0
LINE
8
BLACK
6
CONTINUOUS
10
85.4424589999999995
20
-101.5388449999999949
11
85.2519819999999982
21
-101.5388449999999949
0
LINE
8
BLACK
6
CONTINUOUS
10
85.2519819999999982
20
-101.5388449999999949
11
85.0615059999999943
21
-101.4436070000000001
0
LINE
8
BLACK
6
CONTINUOUS
10
85.0615059999999943
20
-101.4436070000000001
11
84.9662679999999995
21
-101.3483679999999936
0
LINE
8
BLACK
6
CONTINUOUS
10
84.9662679999999995
20
-101.3483679999999936
11
84.8710299999999904
21
-101.1578919999999897
0
LINE
8
BLACK
6
CONTINUOUS
10
84.8710299999999904
20
-101.1578919999999897
11
84.7757919999999956
21
-100.7769399999999962
0
LINE
8
BLACK
6
CONTINUOUS
10
84.7757919999999956
20
-100.7769399999999962
11
84.7757919999999956
21
-100.3007489999999962
0
LINE
8
BLACK
6
CONTINUOUS
10
84.7757919999999956
20
-100.3007489999999962
11
84.8710299999999904
21
-99.9197969999999884
0
LINE
8
BLACK
6
CONTINUOUS
10
84.8710299999999904
20
-99.9197969999999884
11
84.9662679999999995
21
-99.7293209999999988
0
LINE
8
BLACK
6
CONTINUOUS
10
84.9662679999999995
20
-99.7293209999999988
11
85.0615059999999943
21
-99.6340829999999897
0
LINE
8
BLACK
6
CONTINUOUS
10
85.0615059999999943
20
-99.6340829999999897
11
85.2519819999999982
21
-99.5388449999999949
0
LINE
8
BLACK
6
CONTINUOUS
10
86.7757919999999956
20
-101.3483679999999936
11
86.8710299999999904
21
-101.4436070000000001
0
LINE
8
BLACK
6
CONTINUOUS
10
86.8710299999999904
20
-101.4436070000000001
11
86.7757919999999956
21
-101.5388449999999949
0
LINE
8
BLACK
6
CONTINUOUS
10
86.7757919999999956
20
-101.5388449999999949
11
86.6805540000000008
21
-101.4436070000000001
0
LINE
8
BLACK
6
CONTINUOUS
10
86.6805540000000008
20
-101.4436070000000001
11
86.7757919999999956
21
-101.3483679999999936
0
LINE
8
BLACK
6
CONTINUOUS
10
86.7757919999999956
20
-101.3483679999999936
11
86.7757919999999956
21
-101.5388449999999949
0
LINE
8
BLACK
6
CONTINUOUS
10
88.7757919999999956
20
-101.5388449999999949
11
87.6329349999999891
21
-101.5388449999999949
0
LINE
8
BLACK
6
CONTINUOUS
10
88.2043630000000007
20
-101.5388449999999949
11
88.2043630000000007
21
-99.5388449999999949
0
LINE
8
BLACK
6
CONTINUOUS
10
88.2043630000000007
20
-99.5388449999999949
11
88.0138869999999969
21
-99.8245589999999936
0
LINE
8
BLACK
6
CONTINUOUS
10
88.0138869999999969
20
-99.8245589999999936
11
87.823410999999993
21
-100.0150349999999975
0
LINE
8
BLACK
6
CONTINUOUS
10
87.823410999999993
20
-100.0150349999999975
11
87.6329349999999891
21
-100.1102729999999923
0
LINE
8
BLACK
6
CONTINUOUS
10
90.6805540000000008
20
-101.5388449999999949
11
89.5376969999999943
21
-101.5388449999999949
0
LINE
8
BLACK
6
CONTINUOUS
10
90.1091249999999917
20
-101.5388449999999949
11
90.1091249999999917
21
-99.5388449999999949
0
LINE
8
BLACK
6
CONTINUOUS
10
90.1091249999999917
20
-99.5388449999999949
11
89.918649000000002
21
-99.8245589999999936
0
LINE
8
BLACK
6
CONTINUOUS
10
89.918649000000002
20
-99.8245589999999936
11
89.7281729999999982
21
-100.0150349999999975
0
LINE
8
BLACK
6
CONTINUOUS
10
89.7281729999999982
20
-100.0150349999999975
11
89.5376969999999943
21
-100.1102729999999923
0
LINE
8
BLACK
6
CONTINUOUS
10
91.823410999999993
20
-100.395986999999991
11
91.6329349999999891
21
-100.3007489999999962
0
LINE
8
BLACK
6
CONTINUOUS
10
91.6329349999999891
20
-100.3007489999999962
11
91.5376969999999943
21
-100.2055110000000013
0
LINE
8
BLACK
6
CONTINUOUS
10
91.5376969999999943
20
-100.2055110000000013
11
91.4424589999999995
21
-100.0150349999999975
0
LINE
8
BLACK
6
CONTINUOUS
10
91.4424589999999995
20
-100.0150349999999975
11
91.4424589999999995
21
-99.9197969999999884
0
LINE
8
BLACK
6
CONTINUOUS
10
91.4424589999999995
20
-99.9197969999999884
11
91.5376969999999943
21
-99.7293209999999988
0
LINE
8
BLACK
6
CONTINUOUS
10
91.5376969999999943
20
-99.7293209999999988
11
91.6329349999999891
21
-99.6340829999999897
0
LINE
8
BLACK
6
CONTINUOUS
10
91.6329349999999891
20
-99.6340829999999897
11
91.823410999999993
21
-99.5388449999999949
0
LINE
8
BLACK
6
CONTINUOUS
10
91.823410999999993
20
-99.5388449999999949
11
92.2043639999999982
21
-99.5388449999999949
0
LINE
8
BLACK
6
CONTINUOUS
10
92.2043639999999982
20
-99.5388449999999949
11
92.3948400000000021
21
-99.6340829999999897
0
LINE
8
BLACK
6
CONTINUOUS
10
92.3948400000000021
20
-99.6340829999999897
11
92.4900779999999969
21
-99.7293209999999988
0
LINE
8
BLACK
6
CONTINUOUS
10
92.4900779999999969
20
-99.7293209999999988
11
92.5853159999999917
21
-99.9197969999999884
0
LINE
8
BLACK
6
CONTINUOUS
10
92.5853159999999917
20
-99.9197969999999884
11
92.5853159999999917
21
-100.0150349999999975
0
LINE
8
BLACK
6
CONTINUOUS
10
92.5853159999999917
20
-100.0150349999999975
11
92.4900779999999969
21
-100.2055110000000013
0
LINE
8
BLACK
6
CONTINUOUS
10
92.4900779999999969
20
-100.2055110000000013
11
92.3948400000000021
21
-100.3007489999999962
0
LINE
8
BLACK
6
CONTINUOUS
10
92.3948400000000021
20
-100.3007489999999962
11
92.2043639999999982
21
-100.395986999999991
0
LINE
8
BLACK
6
CONTINUOUS
10
92.2043639999999982
20
-100.395986999999991
11
91.823410999999993
21
-100.395986999999991
0
LINE
8
BLACK
6
CONTINUOUS
10
91.823410999999993
20
-100.395986999999991
11
91.6329349999999891
21
-100.4912259999999975
0
LINE
8
BLACK
6
CONTINUOUS
10
91.6329349999999891
20
-100.4912259999999975
11
91.5376969999999943
21
-100.5864639999999923
0
LINE
8
BLACK
6
CONTINUOUS
10
91.5376969999999943
20
-100.5864639999999923
11
91.4424589999999995
21
-100.7769399999999962
0
LINE
8
BLACK
6
CONTINUOUS
10
91.4424589999999995
20
-100.7769399999999962
11
91.4424589999999995
21
-101.1578919999999897
0
LINE
8
BLACK
6
CONTINUOUS
10
91.4424589999999995
20
-101.1578919999999897
11
91.5376969999999943
21
-101.3483679999999936
0
LINE
8
BLACK
6
CONTINUOUS
10
91.5376969999999943
20
-101.3483679999999936
11
91.6329349999999891
21
-101.4436070000000001
0
LINE
8
BLACK
6
CONTINUOUS
10
91.6329349999999891
20
-101.4436070000000001
11
91.823410999999993
21
-101.5388449999999949
0
LINE
8
BLACK
6
CONTINUOUS
10
91.823410999999993
20
-101.5388449999999949
11
92.2043639999999982
21
-101.5388449999999949
0
LINE
8
BLACK
6
CONTINUOUS
10
92.2043639999999982
20
-101.5388449999999949
11
92.3948400000000021
21
-101.4436070000000001
0
LINE
8
BLACK
6
CONTINUOUS
10
92.3948400000000021
20
-101.4436070000000001
11
92.4900779999999969
21
-101.3483679999999936
0
LINE
8
BLACK
6
CONTINUOUS
10
92.4900779999999969
20
-101.3483679999999936
11
92.5853159999999917
21
-101.1578919999999897
0
LINE
8
BLACK
6
CONTINUOUS
10
92.5853159999999917
20
-101.1578919999999897
11
92.5853159999999917
21
-100.7769399999999962
0
LINE
8
BLACK
6
CONTINUOUS
10
92.5853159999999917
20
-100.7769399999999962
11
92.4900779999999969
21
-100.5864639999999923
0
LINE
8
BLACK
6
CONTINUOUS
10
92.4900779999999969
20
-100.5864639999999923
11
92.3948400000000021
21
-100.4912259999999975
0
LINE
8
BLACK
6
CONTINUOUS
10
92.3948400000000021
20
-100.4912259999999975
11
92.2043639999999982
21
-100.395986999999991
0
LINE
8
BLACK
6
CONTINUOUS
10
94.4900779999999969
20
-101.5388449999999949
11
93.3472209999999905
21
-101.5388449999999949
0
LINE
8
BLACK
6
CONTINUOUS
10
93.918649000000002
20
-101.5388449999999949
11
93.918649000000002
21
-99.5388449999999949
0
LINE
8
BLACK
6
CONTINUOUS
10
93.918649000000002
20
-99.5388449999999949
11
93.7281729999999982
21
-99.8245589999999936
0
LINE
8
BLACK
6
CONTINUOUS
10
93.7281729999999982
20
-99.8245589999999936
11
93.5376969999999943
21
-100.0150349999999975
0
LINE
8
BLACK
6
CONTINUOUS
10
93.5376969999999943
20
-100.0150349999999975
11
93.3472209999999905
21
-100.1102729999999923
0
LINE
8
BLACK
6
CONTINUOUS
10
95.2519829999999956
20
-99.5388449999999949
11
95.2519829999999956
21
-99.9197969999999884
0
LINE
8
BLACK
6
CONTINUOUS
10
96.0138879999999943
20
-99.5388449999999949
11
96.0138879999999943
21
-99.9197969999999884
0
LINE
8
BLACK
6
CONTINUOUS
10
98.9662699999999944
20
-102.3007489999999962
11
98.8710310000000021
21
-102.2055110000000013
0
LINE
8
BLACK
6
CONTINUOUS
10
98.8710310000000021
20
-102.2055110000000013
11
98.6805549999999982
21
-101.9197969999999884
0
LINE
8
BLACK
6
CONTINUOUS
10
98.6805549999999982
20
-101.9197969999999884
11
98.5853169999999892
21
-101.7293209999999988
0
LINE
8
BLACK
6
CONTINUOUS
10
98.5853169999999892
20
-101.7293209999999988
11
98.4900789999999944
21
-101.4436070000000001
0
LINE
8
BLACK
6
CONTINUOUS
10
98.4900789999999944
20
-101.4436070000000001
11
98.3948409999999996
21
-100.9674160000000001
0
LINE
8
BLACK
6
CONTINUOUS
10
98.3948409999999996
20
-100.9674160000000001
11
98.3948409999999996
21
-100.5864639999999923
0
LINE
8
BLACK
6
CONTINUOUS
10
98.3948409999999996
20
-100.5864639999999923
11
98.4900789999999944
21
-100.1102729999999923
0
LINE
8
BLACK
6
CONTINUOUS
10
98.4900789999999944
20
-100.1102729999999923
11
98.5853169999999892
21
-99.8245589999999936
0
LINE
8
BLACK
6
CONTINUOUS
10
98.5853169999999892
20
-99.8245589999999936
11
98.6805549999999982
21
-99.6340829999999897
0
LINE
8
BLACK
6
CONTINUOUS
10
98.6805549999999982
20
-99.6340829999999897
11
98.8710310000000021
21
-99.3483679999999936
0
LINE
8
BLACK
6
CONTINUOUS
10
98.8710310000000021
20
-99.3483679999999936
11
98.9662699999999944
21
-99.2531299999999987
0
LINE
8
BLACK
6
CONTINUOUS
10
99.5376979999999918
20
-99.5388449999999949
11
100.7757929999999931
21
-99.5388449999999949
0
LINE
8
BLACK
6
CONTINUOUS
10
100.7757929999999931
20
-99.5388449999999949
11
100.1091259999999892
21
-100.3007489999999962
0
LINE
8
BLACK
6
CONTINUOUS
10
100.1091259999999892
20
-100.3007489999999962
11
100.3948409999999996
21
-100.3007489999999962
0
LINE
8
BLACK
6
CONTINUOUS
10
100.3948409999999996
20
-100.3007489999999962
11
100.5853169999999892
21
-100.395986999999991
0
LINE
8
BLACK
6
CONTINUOUS
10
100.5853169999999892
20
-100.395986999999991
11
100.6805549999999982
21
-100.4912259999999975
0
LINE
8
BLACK
6
CONTINUOUS
10
100.6805549999999982
20
-100.4912259999999975
11
100.7757929999999931
21
-100.6817020000000014
0
LINE
8
BLACK
6
CONTINUOUS
10
100.7757929999999931
20
-100.6817020000000014
11
100.7757929999999931
21
-101.1578919999999897
0
LINE
8
BLACK
6
CONTINUOUS
10
100.7757929999999931
20
-101.1578919999999897
11
100.6805549999999982
21
-101.3483679999999936
0
LINE
8
BLACK
6
CONTINUOUS
10
100.6805549999999982
20
-101.3483679999999936
11
100.5853169999999892
21
-101.4436070000000001
0
LINE
8
BLACK
6
CONTINUOUS
10
100.5853169999999892
20
-101.4436070000000001
11
100.3948409999999996
21
-101.5388449999999949
0
LINE
8
BLACK
6
CONTINUOUS
10
100.3948409999999996
20
-101.5388449999999949
11
99.8234119999999905
21
-101.5388449999999949
0
LINE
8
BLACK
6
CONTINUOUS
10
99.8234119999999905
20
-101.5388449999999949
11
99.6329360000000008
21
-101.4436070000000001
0
LINE
8
BLACK
6
CONTINUOUS
10
99.6329360000000008
20
-101.4436070000000001
11
99.5376979999999918
21
-101.3483679999999936
0
LINE
8
BLACK
6
CONTINUOUS
10
103.1567459999999983
20
-101.5388449999999949
11
103.1567459999999983
21
-99.5388449999999949
0
LINE
8
BLACK
6
CONTINUOUS
10
104.0138889999999918
20
-101.5388449999999949
11
104.0138889999999918
21
-100.4912259999999975
0
LINE
8
BLACK
6
CONTINUOUS
10
104.0138889999999918
20
-100.4912259999999975
11
103.918650999999997
21
-100.3007489999999962
0
LINE
8
BLACK
6
CONTINUOUS
10
103.918650999999997
20
-100.3007489999999962
11
103.7281749999999931
21
-100.2055110000000013
0
LINE
8
BLACK
6
CONTINUOUS
10
103.7281749999999931
20
-100.2055110000000013
11
103.442459999999997
21
-100.2055110000000013
0
LINE
8
BLACK
6
CONTINUOUS
10
103.442459999999997
20
-100.2055110000000013
11
103.2519839999999931
21
-100.3007489999999962
0
LINE
8
BLACK
6
CONTINUOUS
10
103.2519839999999931
20
-100.3007489999999962
11
103.1567459999999983
21
-100.395986999999991
0
LINE
8
BLACK
6
CONTINUOUS
10
105.2519839999999931
20
-101.5388449999999949
11
105.0615079999999892
21
-101.4436070000000001
0
LINE
8
BLACK
6
CONTINUOUS
10
105.0615079999999892
20
-101.4436070000000001
11
104.9662699999999944
21
-101.3483679999999936
0
LINE
8
BLACK
6
CONTINUOUS
10
104.9662699999999944
20
-101.3483679999999936
11
104.8710319999999996
21
-101.1578919999999897
0
LINE
8
BLACK
6
CONTINUOUS
10
104.8710319999999996
20
-101.1578919999999897
11
104.8710319999999996
21
-100.5864639999999923
0
LINE
8
BLACK
6
CONTINUOUS
10
104.8710319999999996
20
-100.5864639999999923
11
104.9662699999999944
21
-100.395986999999991
0
LINE
8
BLACK
6
CONTINUOUS
10
104.9662699999999944
20
-100.395986999999991
11
105.0615079999999892
21
-100.3007489999999962
0
LINE
8
BLACK
6
CONTINUOUS
10
105.0615079999999892
20
-100.3007489999999962
11
105.2519839999999931
21
-100.2055110000000013
0
LINE
8
BLACK
6
CONTINUOUS
10
105.2519839999999931
20
-100.2055110000000013
11
105.5376989999999893
21
-100.2055110000000013
0
LINE
8
BLACK
6
CONTINUOUS
10
105.5376989999999893
20
-100.2055110000000013
11
105.7281749999999931
21
-100.3007489999999962
0
LINE
8
BLACK
6
CONTINUOUS
10
105.7281749999999931
20
-100.3007489999999962
11
105.8234130000000022
21
-100.395986999999991
0
LINE
8
BLACK
6
CONTINUOUS
10
105.8234130000000022
20
-100.395986999999991
11
105.918650999999997
21
-100.5864639999999923
0
LINE
8
BLACK
6
CONTINUOUS
10
105.918650999999997
20
-100.5864639999999923
11
105.918650999999997
21
-101.1578919999999897
0
LINE
8
BLACK
6
CONTINUOUS
10
105.918650999999997
20
-101.1578919999999897
11
105.8234130000000022
21
-101.3483679999999936
0
LINE
8
BLACK
6
CONTINUOUS
10
105.8234130000000022
20
-101.3483679999999936
11
105.7281749999999931
21
-101.4436070000000001
0
LINE
8
BLACK
6
CONTINUOUS
10
105.7281749999999931
20
-101.4436070000000001
11
105.5376989999999893
21
-101.5388449999999949
0
LINE
8
BLACK
6
CONTINUOUS
10
105.5376989999999893
20
-101.5388449999999949
11
105.2519839999999931
21
-101.5388449999999949
0
LINE
8
BLACK
6
CONTINUOUS
10
107.0615079999999892
20
-101.5388449999999949
11
106.8710319999999996
21
-101.4436070000000001
0
LINE
8
BLACK
6
CONTINUOUS
10
106.8710319999999996
20
-101.4436070000000001
11
106.7757939999999905
21
-101.2531299999999987
0
LINE
8
BLACK
6
CONTINUOUS
10
106.7757939999999905
20
-101.2531299999999987
11
106.7757939999999905
21
-99.5388449999999949
0
LINE
8
BLACK
6
CONTINUOUS
10
108.5853180000000009
20
-101.4436070000000001
11
108.394841999999997
21
-101.5388449999999949
0
LINE
8
BLACK
6
CONTINUOUS
10
108.394841999999997
20
-101.5388449999999949
11
108.0138889999999918
21
-101.5388449999999949
0
LINE
8
BLACK
6
CONTINUOUS
10
108.0138889999999918
20
-101.5388449999999949
11
107.8234130000000022
21
-101.4436070000000001
0
LINE
8
BLACK
6
CONTINUOUS
10
107.8234130000000022
20
-101.4436070000000001
11
107.7281749999999931
21
-101.2531299999999987
0
LINE
8
BLACK
6
CONTINUOUS
10
107.7281749999999931
20
-101.2531299999999987
11
107.7281749999999931
21
-100.4912259999999975
0
LINE
8
BLACK
6
CONTINUOUS
10
107.7281749999999931
20
-100.4912259999999975
11
107.8234130000000022
21
-100.3007489999999962
0
LINE
8
BLACK
6
CONTINUOUS
10
107.8234130000000022
20
-100.3007489999999962
11
108.0138889999999918
21
-100.2055110000000013
0
LINE
8
BLACK
6
CONTINUOUS
10
108.0138889999999918
20
-100.2055110000000013
11
108.394841999999997
21
-100.2055110000000013
0
LINE
8
BLACK
6
CONTINUOUS
10
108.394841999999997
20
-100.2055110000000013
11
108.5853180000000009
21
-100.3007489999999962
0
LINE
8
BLACK
6
CONTINUOUS
10
108.5853180000000009
20
-100.3007489999999962
11
108.6805559999999957
21
-100.4912259999999975
0
LINE
8
BLACK
6
CONTINUOUS
10
108.6805559999999957
20
-100.4912259999999975
11
108.6805559999999957
21
-100.6817020000000014
0
LINE
8
BLACK
6
CONTINUOUS
10
108.6805559999999957
20
-100.6817020000000014
11
107.7281749999999931
21
-100.872177999999991
0
LINE
8
BLACK
6
CONTINUOUS
10
109.4424609999999944
20
-101.4436070000000001
11
109.6329369999999983
21
-101.5388449999999949
0
LINE
8
BLACK
6
CONTINUOUS
10
109.6329369999999983
20
-101.5388449999999949
11
110.0138889999999918
21
-101.5388449999999949
0
LINE
8
BLACK
6
CONTINUOUS
10
110.0138889999999918
20
-101.5388449999999949
11
110.2043659999999932
21
-101.4436070000000001
0
LINE
8
BLACK
6
CONTINUOUS
10
110.2043659999999932
20
-101.4436070000000001
11
110.299603999999988
21
-101.2531299999999987
0
LINE
8
BLACK
6
CONTINUOUS
10
110.299603999999988
20
-101.2531299999999987
11
110.299603999999988
21
-101.1578919999999897
0
LINE
8
BLACK
6
CONTINUOUS
10
110.299603999999988
20
-101.1578919999999897
11
110.2043659999999932
21
-100.9674160000000001
0
LINE
8
BLACK
6
CONTINUOUS
10
110.2043659999999932
20
-100.9674160000000001
11
110.0138889999999918
21
-100.872177999999991
0
LINE
8
BLACK
6
CONTINUOUS
10
110.0138889999999918
20
-100.872177999999991
11
109.7281749999999931
21
-100.872177999999991
0
LINE
8
BLACK
6
CONTINUOUS
10
109.7281749999999931
20
-100.872177999999991
11
109.5376989999999893
21
-100.7769399999999962
0
LINE
8
BLACK
6
CONTINUOUS
10
109.5376989999999893
20
-100.7769399999999962
11
109.4424609999999944
21
-100.5864639999999923
0
LINE
8
BLACK
6
CONTINUOUS
10
109.4424609999999944
20
-100.5864639999999923
11
109.4424609999999944
21
-100.4912259999999975
0
LINE
8
BLACK
6
CONTINUOUS
10
109.4424609999999944
20
-100.4912259999999975
11
109.5376989999999893
21
-100.3007489999999962
0
LINE
8
BLACK
6
CONTINUOUS
10
109.5376989999999893
20
-100.3007489999999962
11
109.7281749999999931
21
-100.2055110000000013
0
LINE
8
BLACK
6
CONTINUOUS
10
109.7281749999999931
20
-100.2055110000000013
11
110.0138889999999918
21
-100.2055110000000013
0
LINE
8
BLACK
6
CONTINUOUS
10
110.0138889999999918
20
-100.2055110000000013
11
110.2043659999999932
21
-100.3007489999999962
0
LINE
8
BLACK
6
CONTINUOUS
10
110.9662709999999919
20
-102.3007489999999962
11
111.0615090000000009
21
-102.2055110000000013
0
LINE
8
BLACK
6
CONTINUOUS
10
111.0615090000000009
20
-102.2055110000000013
11
111.2519849999999906
21
-101.9197969999999884
0
LINE
8
BLACK
6
CONTINUOUS
10
111.2519849999999906
20
-101.9197969999999884
11
111.3472229999999996
21
-101.7293209999999988
0
LINE
8
BLACK
6
CONTINUOUS
10
111.3472229999999996
20
-101.7293209999999988
11
111.4424609999999944
21
-101.4436070000000001
0
LINE
8
BLACK
6
CONTINUOUS
10
111.4424609999999944
20
-101.4436070000000001
11
111.5376989999999893
21
-100.9674160000000001
0
LINE
8
BLACK
6
CONTINUOUS
10
111.5376989999999893
20
-100.9674160000000001
11
111.5376989999999893
21
-100.5864639999999923
0
LINE
8
BLACK
6
CONTINUOUS
10
111.5376989999999893
20
-100.5864639999999923
11
111.4424609999999944
21
-100.1102729999999923
0
LINE
8
BLACK
6
CONTINUOUS
10
111.4424609999999944
20
-100.1102729999999923
11
111.3472229999999996
21
-99.8245589999999936
0
LINE
8
BLACK
6
CONTINUOUS
10
111.3472229999999996
20
-99.8245589999999936
11
111.2519849999999906
21
-99.6340829999999897
0
LINE
8
BLACK
6
CONTINUOUS
10
111.2519849999999906
20
-99.6340829999999897
11
111.0615090000000009
21
-99.3483679999999936
0
LINE
8
BLACK
6
CONTINUOUS
10
111.0615090000000009
20
-99.3483679999999936
11
110.9662709999999919
21
-99.2531299999999987
0
LINE
8
BLACK
6
CONTINUOUS
10
114.5853189999999984
20
-102.3007489999999962
11
114.4900799999999919
21
-102.2055110000000013
0
LINE
8
BLACK
6
CONTINUOUS
10
114.4900799999999919
20
-102.2055110000000013
11
114.299603999999988
21
-101.9197969999999884
0
LINE
8
BLACK
6
CONTINUOUS
10
114.299603999999988
20
-101.9197969999999884
11
114.2043659999999932
21
-101.7293209999999988
0
LINE
8
BLACK
6
CONTINUOUS
10
114.2043659999999932
20
-101.7293209999999988
11
114.1091279999999983
21
-101.4436070000000001
0
LINE
8
BLACK
6
CONTINUOUS
10
114.1091279999999983
20
-101.4436070000000001
11
114.0138899999999893
21
-100.9674160000000001
0
LINE
8
BLACK
6
CONTINUOUS
10
114.0138899999999893
20
-100.9674160000000001
11
114.0138899999999893
21
-100.5864639999999923
0
LINE
8
BLACK
6
CONTINUOUS
10
114.0138899999999893
20
-100.5864639999999923
11
114.1091279999999983
21
-100.1102729999999923
0
LINE
8
BLACK
6
CONTINUOUS
10
114.1091279999999983
20
-100.1102729999999923
11
114.2043659999999932
21
-99.8245589999999936
0
LINE
8
BLACK
6
CONTINUOUS
10
114.2043659999999932
20
-99.8245589999999936
11
114.299603999999988
21
-99.6340829999999897
0
LINE
8
BLACK
6
CONTINUOUS
10
114.299603999999988
20
-99.6340829999999897
11
114.4900799999999919
21
-99.3483679999999936
0
LINE
8
BLACK
6
CONTINUOUS
10
114.4900799999999919
20
-99.3483679999999936
11
114.5853189999999984
21
-99.2531299999999987
0
LINE
8
BLACK
6
CONTINUOUS
10
115.3472229999999996
20
-100.2055110000000013
11
115.3472229999999996
21
-101.5388449999999949
0
LINE
8
BLACK
6
CONTINUOUS
10
115.3472229999999996
20
-100.395986999999991
11
115.4424609999999944
21
-100.3007489999999962
0
LINE
8
BLACK
6
CONTINUOUS
10
115.4424609999999944
20
-100.3007489999999962
11
115.6329369999999983
21
-100.2055110000000013
0
LINE
8
BLACK
6
CONTINUOUS
10
115.6329369999999983
20
-100.2055110000000013
11
115.9186519999999945
21
-100.2055110000000013
0
LINE
8
BLACK
6
CONTINUOUS
10
115.9186519999999945
20
-100.2055110000000013
11
116.1091279999999983
21
-100.3007489999999962
0
LINE
8
BLACK
6
CONTINUOUS
10
116.1091279999999983
20
-100.3007489999999962
11
116.2043659999999932
21
-100.4912259999999975
0
LINE
8
BLACK
6
CONTINUOUS
10
116.2043659999999932
20
-100.4912259999999975
11
116.2043659999999932
21
-101.5388449999999949
0
LINE
8
BLACK
6
CONTINUOUS
10
117.4424609999999944
20
-101.5388449999999949
11
117.2519849999999906
21
-101.4436070000000001
0
LINE
8
BLACK
6
CONTINUOUS
10
117.2519849999999906
20
-101.4436070000000001
11
117.1567469999999958
21
-101.3483679999999936
0
LINE
8
BLACK
6
CONTINUOUS
10
117.1567469999999958
20
-101.3483679999999936
11
117.0615090000000009
21
-101.1578919999999897
0
LINE
8
BLACK
6
CONTINUOUS
10
117.0615090000000009
20
-101.1578919999999897
11
117.0615090000000009
21
-100.5864639999999923
0
LINE
8
BLACK
6
CONTINUOUS
10
117.0615090000000009
20
-100.5864639999999923
11
117.1567469999999958
21
-100.395986999999991
0
LINE
8
BLACK
6
CONTINUOUS
10
117.1567469999999958
20
-100.395986999999991
11
117.2519849999999906
21
-100.3007489999999962
0
LINE
8
BLACK
6
CONTINUOUS
10
117.2519849999999906
20
-100.3007489999999962
11
117.4424609999999944
21
-100.2055110000000013
0
LINE
8
BLACK
6
CONTINUOUS
10
117.4424609999999944
20
-100.2055110000000013
11
117.7281759999999906
21
-100.2055110000000013
0
LINE
8
BLACK
6
CONTINUOUS
10
117.7281759999999906
20
-100.2055110000000013
11
117.9186519999999945
21
-100.3007489999999962
0
LINE
8
BLACK
6
CONTINUOUS
10
117.9186519999999945
20
-100.3007489999999962
11
118.0138899999999893
21
-100.395986999999991
0
LINE
8
BLACK
6
CONTINUOUS
10
118.0138899999999893
20
-100.395986999999991
11
118.1091279999999983
21
-100.5864639999999923
0
LINE
8
BLACK
6
CONTINUOUS
10
118.1091279999999983
20
-100.5864639999999923
11
118.1091279999999983
21
-101.1578919999999897
0
LINE
8
BLACK
6
CONTINUOUS
10
118.1091279999999983
20
-101.1578919999999897
11
118.0138899999999893
21
-101.3483679999999936
0
LINE
8
BLACK
6
CONTINUOUS
10
118.0138899999999893
20
-101.3483679999999936
11
117.9186519999999945
21
-101.4436070000000001
0
LINE
8
BLACK
6
CONTINUOUS
10
117.9186519999999945
20
-101.4436070000000001
11
117.7281759999999906
21
-101.5388449999999949
0
LINE
8
BLACK
6
CONTINUOUS
10
117.7281759999999906
20
-101.5388449999999949
11
117.4424609999999944
21
-101.5388449999999949
0
LINE
8
BLACK
6
CONTINUOUS
10
118.6805569999999932
20
-100.2055110000000013
11
119.4424609999999944
21
-100.2055110000000013
0
LINE
8
BLACK
6
CONTINUOUS
10
118.9662709999999919
20
-99.5388449999999949
11
118.9662709999999919
21
-101.2531299999999987
0
LINE
8
BLACK
6
CONTINUOUS
10
118.9662709999999919
20
-101.2531299999999987
11
119.0615090000000009
21
-101.4436070000000001
0
LINE
8
BLACK
6
CONTINUOUS
10
119.0615090000000009
20
-101.4436070000000001
11
119.2519849999999906
21
-101.5388449999999949
0
LINE
8
BLACK
6
CONTINUOUS
10
119.2519849999999906
20
-101.5388449999999949
11
119.4424609999999944
21
-101.5388449999999949
0
LINE
8
BLACK
6
CONTINUOUS
10
121.6329379999999958
20
-100.2055110000000013
11
121.6329379999999958
21
-102.2055110000000013
0
LINE
8
BLACK
6
CONTINUOUS
10
121.6329379999999958
20
-100.3007489999999962
11
121.8234139999999996
21
-100.2055110000000013
0
LINE
8
BLACK
6
CONTINUOUS
10
121.8234139999999996
20
-100.2055110000000013
11
122.2043669999999906
21
-100.2055110000000013
0
LINE
8
BLACK
6
CONTINUOUS
10
122.2043669999999906
20
-100.2055110000000013
11
122.3948429999999945
21
-100.3007489999999962
0
LINE
8
BLACK
6
CONTINUOUS
10
122.3948429999999945
20
-100.3007489999999962
11
122.4900809999999893
21
-100.395986999999991
0
LINE
8
BLACK
6
CONTINUOUS
10
122.4900809999999893
20
-100.395986999999991
11
122.5853189999999984
21
-100.5864639999999923
0
LINE
8
BLACK
6
CONTINUOUS
10
122.5853189999999984
20
-100.5864639999999923
11
122.5853189999999984
21
-101.1578919999999897
0
LINE
8
BLACK
6
CONTINUOUS
10
122.5853189999999984
20
-101.1578919999999897
11
122.4900809999999893
21
-101.3483679999999936
0
LINE
8
BLACK
6
CONTINUOUS
10
122.4900809999999893
20
-101.3483679999999936
11
122.3948429999999945
21
-101.4436070000000001
0
LINE
8
BLACK
6
CONTINUOUS
10
122.3948429999999945
20
-101.4436070000000001
11
122.2043669999999906
21
-101.5388449999999949
0
LINE
8
BLACK
6
CONTINUOUS
10
122.2043669999999906
20
-101.5388449999999949
11
121.8234139999999996
21
-101.5388449999999949
0
LINE
8
BLACK
6
CONTINUOUS
10
121.8234139999999996
20
-101.5388449999999949
11
121.6329379999999958
21
-101.4436070000000001
0
LINE
8
BLACK
6
CONTINUOUS
10
123.7281759999999906
20
-101.5388449999999949
11
123.537700000000001
21
-101.4436070000000001
0
LINE
8
BLACK
6
CONTINUOUS
10
123.537700000000001
20
-101.4436070000000001
11
123.4424619999999919
21
-101.2531299999999987
0
LINE
8
BLACK
6
CONTINUOUS
10
123.4424619999999919
20
-101.2531299999999987
11
123.4424619999999919
21
-99.5388449999999949
0
LINE
8
BLACK
6
CONTINUOUS
10
125.3472239999999971
20
-101.5388449999999949
11
125.3472239999999971
21
-100.4912259999999975
0
LINE
8
BLACK
6
CONTINUOUS
10
125.3472239999999971
20
-100.4912259999999975
11
125.2519859999999881
21
-100.3007489999999962
0
LINE
8
BLACK
6
CONTINUOUS
10
125.2519859999999881
20
-100.3007489999999962
11
125.0615099999999984
21
-100.2055110000000013
0
LINE
8
BLACK
6
CONTINUOUS
10
125.0615099999999984
20
-100.2055110000000013
11
124.6805569999999932
21
-100.2055110000000013
0
LINE
8
BLACK
6
CONTINUOUS
10
124.6805569999999932
20
-100.2055110000000013
11
124.4900809999999893
21
-100.3007489999999962
0
LINE
8
BLACK
6
CONTINUOUS
10
125.3472239999999971
20
-101.4436070000000001
11
125.1567479999999932
21
-101.5388449999999949
0
LINE
8
BLACK
6
CONTINUOUS
10
125.1567479999999932
20
-101.5388449999999949
11
124.6805569999999932
21
-101.5388449999999949
0
LINE
8
BLACK
6
CONTINUOUS
10
124.6805569999999932
20
-101.5388449999999949
11
124.4900809999999893
21
-101.4436070000000001
0
LINE
8
BLACK
6
CONTINUOUS
10
124.4900809999999893
20
-101.4436070000000001
11
124.3948429999999945
21
-101.2531299999999987
0
LINE
8
BLACK
6
CONTINUOUS
10
124.3948429999999945
20
-101.2531299999999987
11
124.3948429999999945
21
-101.0626539999999949
0
LINE
8
BLACK
6
CONTINUOUS
10
124.3948429999999945
20
-101.0626539999999949
11
124.4900809999999893
21
-100.872177999999991
0
LINE
8
BLACK
6
CONTINUOUS
10
124.4900809999999893
20
-100.872177999999991
11
124.6805569999999932
21
-100.7769399999999962
0
LINE
8
BLACK
6
CONTINUOUS
10
124.6805569999999932
20
-100.7769399999999962
11
125.1567479999999932
21
-100.7769399999999962
0
LINE
8
BLACK
6
CONTINUOUS
10
125.1567479999999932
20
-100.7769399999999962
11
125.3472239999999971
21
-100.6817020000000014
0
LINE
8
BLACK
6
CONTINUOUS
10
126.013891000000001
20
-100.2055110000000013
11
126.775794999999988
21
-100.2055110000000013
0
LINE
8
BLACK
6
CONTINUOUS
10
126.2996049999999997
20
-99.5388449999999949
11
126.2996049999999997
21
-101.2531299999999987
0
LINE
8
BLACK
6
CONTINUOUS
10
126.2996049999999997
20
-101.2531299999999987
11
126.3948429999999945
21
-101.4436070000000001
0
LINE
8
BLACK
6
CONTINUOUS
10
126.3948429999999945
20
-101.4436070000000001
11
126.5853189999999984
21
-101.5388449999999949
0
LINE
8
BLACK
6
CONTINUOUS
10
126.5853189999999984
20
-101.5388449999999949
11
126.775794999999988
21
-101.5388449999999949
0
LINE
8
BLACK
6
CONTINUOUS
10
128.2043669999999906
20
-101.4436070000000001
11
128.013891000000001
21
-101.5388449999999949
0
LINE
8
BLACK
6
CONTINUOUS
10
128.013891000000001
20
-101.5388449999999949
11
127.6329379999999958
21
-101.5388449999999949
0
LINE
8
BLACK
6
CONTINUOUS
10
127.6329379999999958
20
-101.5388449999999949
11
127.4424619999999919
21
-101.4436070000000001
0
LINE
8
BLACK
6
CONTINUOUS
10
127.4424619999999919
20
-101.4436070000000001
11
127.3472239999999971
21
-101.2531299999999987
0
LINE
8
BLACK
6
CONTINUOUS
10
127.3472239999999971
20
-101.2531299999999987
11
127.3472239999999971
21
-100.4912259999999975
0
LINE
8
BLACK
6
CONTINUOUS
10
127.3472239999999971
20
-100.4912259999999975
11
127.4424619999999919
21
-100.3007489999999962
0
LINE
8
BLACK
6
CONTINUOUS
10
127.4424619999999919
20
-100.3007489999999962
11
127.6329379999999958
21
-100.2055110000000013
0
LINE
8
BLACK
6
CONTINUOUS
10
127.6329379999999958
20
-100.2055110000000013
11
128.013891000000001
21
-100.2055110000000013
0
LINE
8
BLACK
6
CONTINUOUS
10
128.013891000000001
20
-100.2055110000000013
11
128.2043669999999906
21
-100.3007489999999962
0
LINE
8
BLACK
6
CONTINUOUS
10
128.2043669999999906
20
-100.3007489999999962
11
128.2996049999999855
21
-100.4912259999999975
0
LINE
8
BLACK
6
CONTINUOUS
10
128.2996049999999855
20
-100.4912259999999975
11
128.2996049999999855
21
-100.6817020000000014
0
LINE
8
BLACK
6
CONTINUOUS
10
128.2996049999999855
20
-100.6817020000000014
11
127.3472239999999971
21
-100.872177999999991
0
LINE
8
BLACK
6
CONTINUOUS
10
130.013891000000001
20
-101.5388449999999949
11
130.013891000000001
21
-99.5388449999999949
0
LINE
8
BLACK
6
CONTINUOUS
10
130.013891000000001
20
-101.4436070000000001
11
129.8234149999999829
21
-101.5388449999999949
0
LINE
8
BLACK
6
CONTINUOUS
10
129.8234149999999829
20
-101.5388449999999949
11
129.4424620000000061
21
-101.5388449999999949
0
LINE
8
BLACK
6
CONTINUOUS
10
129.4424620000000061
20
-101.5388449999999949
11
129.2519859999999881
21
-101.4436070000000001
0
LINE
8
BLACK
6
CONTINUOUS
10
129.2519859999999881
20
-101.4436070000000001
11
129.1567479999999932
21
-101.3483679999999936
0
LINE
8
BLACK
6
CONTINUOUS
10
129.1567479999999932
20
-101.3483679999999936
11
129.0615099999999984
21
-101.1578919999999897
0
LINE
8
BLACK
6
CONTINUOUS
10
129.0615099999999984
20
-101.1578919999999897
11
129.0615099999999984
21
-100.5864639999999923
0
LINE
8
BLACK
6
CONTINUOUS
10
129.0615099999999984
20
-100.5864639999999923
11
129.1567479999999932
21
-100.395986999999991
0
LINE
8
BLACK
6
CONTINUOUS
10
129.1567479999999932
20
-100.395986999999991
11
129.2519859999999881
21
-100.3007489999999962
0
LINE
8
BLACK
6
CONTINUOUS
10
129.2519859999999881
20
-100.3007489999999962
11
129.4424620000000061
21
-100.2055110000000013
0
LINE
8
BLACK
6
CONTINUOUS
10
129.4424620000000061
20
-100.2055110000000013
11
129.8234149999999829
21
-100.2055110000000013
0
LINE
8
BLACK
6
CONTINUOUS
10
129.8234149999999829
20
-100.2055110000000013
11
130.013891000000001
21
-100.3007489999999962
0
LINE
8
BLACK
6
CONTINUOUS
10
130.7757959999999855
20
-102.3007489999999962
11
130.8710339999999803
21
-102.2055110000000013
0
LINE
8
BLACK
6
CONTINUOUS
10
130.8710339999999803
20
-102.2055110000000013
11
131.0615099999999984
21
-101.9197969999999884
0
LINE
8
BLACK
6
CONTINUOUS
10
131.0615099999999984
20
-101.9197969999999884
11
131.1567479999999932
21
-101.7293209999999988
0
LINE
8
BLACK
6
CONTINUOUS
10
131.1567479999999932
20
-101.7293209999999988
11
131.2519859999999881
21
-101.4436070000000001
0
LINE
8
BLACK
6
CONTINUOUS
10
131.2519859999999881
20
-101.4436070000000001
11
131.3472239999999829
21
-100.9674160000000001
0
LINE
8
BLACK
6
CONTINUOUS
10
131.3472239999999829
20
-100.9674160000000001
11
131.3472239999999829
21
-100.5864639999999923
0
LINE
8
BLACK
6
CONTINUOUS
10
131.3472239999999829
20
-100.5864639999999923
11
131.2519859999999881
21
-100.1102729999999923
0
LINE
8
BLACK
6
CONTINUOUS
10
131.2519859999999881
20
-100.1102729999999923
11
131.1567479999999932
21
-99.8245589999999936
0
LINE
8
BLACK
6
CONTINUOUS
10
131.1567479999999932
20
-99.8245589999999936
11
131.0615099999999984
21
-99.6340829999999897
0
LINE
8
BLACK
6
CONTINUOUS
10
131.0615099999999984
20
-99.6340829999999897
11
130.8710339999999803
21
-99.3483679999999936
0
LINE
8
BLACK
6
CONTINUOUS
10
130.8710339999999803
20
-99.3483679999999936
11
130.7757959999999855
21
-99.2531299999999987
0
LINE
8
BLACK
6
CONTINUOUS
10
62.215640999999998
20
-102.8240069999999946
11
62.215640999999998
21
-104.8240069999999946
0
LINE
8
BLACK
6
CONTINUOUS
10
61.215640999999998
20
-103.8240069999999946
11
63.215640999999998
21
-103.8240069999999946
0
LINE
8
BLACK
6
CONTINUOUS
10
66.6805519999999916
20
-103.40551099999999
11
66.6805519999999916
21
-104.7388449999999978
0
LINE
8
BLACK
6
CONTINUOUS
10
66.2043609999999916
20
-102.6436069999999887
11
65.7281710000000032
21
-104.0721779999999939
0
LINE
8
BLACK
6
CONTINUOUS
10
65.7281710000000032
20
-104.0721779999999939
11
66.9662659999999903
21
-104.0721779999999939
0
LINE
8
BLACK
6
CONTINUOUS
10
67.7281710000000032
20
-104.5483679999999964
11
67.8234089999999981
21
-104.6436069999999887
0
LINE
8
BLACK
6
CONTINUOUS
10
67.8234089999999981
20
-104.6436069999999887
11
67.7281710000000032
21
-104.7388449999999978
0
LINE
8
BLACK
6
CONTINUOUS
10
67.7281710000000032
20
-104.7388449999999978
11
67.6329329999999942
21
-104.6436069999999887
0
LINE
8
BLACK
6
CONTINUOUS
10
67.6329329999999942
20
-104.6436069999999887
11
67.7281710000000032
21
-104.5483679999999964
0
LINE
8
BLACK
6
CONTINUOUS
10
67.7281710000000032
20
-104.5483679999999964
11
67.7281710000000032
21
-104.7388449999999978
0
LINE
8
BLACK
6
CONTINUOUS
10
69.5376949999999994
20
-102.7388449999999978
11
69.1567419999999942
21
-102.7388449999999978
0
LINE
8
BLACK
6
CONTINUOUS
10
69.1567419999999942
20
-102.7388449999999978
11
68.9662659999999903
21
-102.8340829999999926
0
LINE
8
BLACK
6
CONTINUOUS
10
68.9662659999999903
20
-102.8340829999999926
11
68.8710279999999955
21
-102.9293210000000016
0
LINE
8
BLACK
6
CONTINUOUS
10
68.8710279999999955
20
-102.9293210000000016
11
68.6805519999999916
21
-103.2150350000000003
0
LINE
8
BLACK
6
CONTINUOUS
10
68.6805519999999916
20
-103.2150350000000003
11
68.5853139999999968
21
-103.5959869999999938
0
LINE
8
BLACK
6
CONTINUOUS
10
68.5853139999999968
20
-103.5959869999999938
11
68.5853139999999968
21
-104.3578919999999925
0
LINE
8
BLACK
6
CONTINUOUS
10
68.5853139999999968
20
-104.3578919999999925
11
68.6805519999999916
21
-104.5483679999999964
0
LINE
8
BLACK
6
CONTINUOUS
10
68.6805519999999916
20
-104.5483679999999964
11
68.7757900000000006
21
-104.6436069999999887
0
LINE
8
BLACK
6
CONTINUOUS
10
68.7757900000000006
20
-104.6436069999999887
11
68.9662659999999903
21
-104.7388449999999978
0
LINE
8
BLACK
6
CONTINUOUS
10
68.9662659999999903
20
-104.7388449999999978
11
69.3472189999999955
21
-104.7388449999999978
0
LINE
8
BLACK
6
CONTINUOUS
10
69.3472189999999955
20
-104.7388449999999978
11
69.5376949999999994
21
-104.6436069999999887
0
LINE
8
BLACK
6
CONTINUOUS
10
69.5376949999999994
20
-104.6436069999999887
11
69.6329329999999942
21
-104.5483679999999964
0
LINE
8
BLACK
6
CONTINUOUS
10
69.6329329999999942
20
-104.5483679999999964
11
69.7281710000000032
21
-104.3578919999999925
0
LINE
8
BLACK
6
CONTINUOUS
10
69.7281710000000032
20
-104.3578919999999925
11
69.7281710000000032
21
-103.88170199999999
0
LINE
8
BLACK
6
CONTINUOUS
10
69.7281710000000032
20
-103.88170199999999
11
69.6329329999999942
21
-103.6912260000000003
0
LINE
8
BLACK
6
CONTINUOUS
10
69.6329329999999942
20
-103.6912260000000003
11
69.5376949999999994
21
-103.5959869999999938
0
LINE
8
BLACK
6
CONTINUOUS
10
69.5376949999999994
20
-103.5959869999999938
11
69.3472189999999955
21
-103.500748999999999
0
LINE
8
BLACK
6
CONTINUOUS
10
69.3472189999999955
20
-103.500748999999999
11
68.9662659999999903
21
-103.500748999999999
0
LINE
8
BLACK
6
CONTINUOUS
10
68.9662659999999903
20
-103.500748999999999
11
68.7757900000000006
21
-103.5959869999999938
0
LINE
8
BLACK
6
CONTINUOUS
10
68.7757900000000006
20
-103.5959869999999938
11
68.6805519999999916
21
-103.6912260000000003
0
LINE
8
BLACK
6
CONTINUOUS
10
68.6805519999999916
20
-103.6912260000000003
11
68.5853139999999968
21
-103.88170199999999
0
LINE
8
BLACK
6
CONTINUOUS
10
70.9662659999999903
20
-102.7388449999999978
11
71.1567429999999916
21
-102.7388449999999978
0
LINE
8
BLACK
6
CONTINUOUS
10
71.1567429999999916
20
-102.7388449999999978
11
71.3472189999999955
21
-102.8340829999999926
0
LINE
8
BLACK
6
CONTINUOUS
10
71.3472189999999955
20
-102.8340829999999926
11
71.4424569999999903
21
-102.9293210000000016
0
LINE
8
BLACK
6
CONTINUOUS
10
71.4424569999999903
20
-102.9293210000000016
11
71.5376949999999994
21
-103.1197969999999913
0
LINE
8
BLACK
6
CONTINUOUS
10
71.5376949999999994
20
-103.1197969999999913
11
71.6329329999999942
21
-103.500748999999999
0
LINE
8
BLACK
6
CONTINUOUS
10
71.6329329999999942
20
-103.500748999999999
11
71.6329329999999942
21
-103.976939999999999
0
LINE
8
BLACK
6
CONTINUOUS
10
71.6329329999999942
20
-103.976939999999999
11
71.5376949999999994
21
-104.3578919999999925
0
LINE
8
BLACK
6
CONTINUOUS
10
71.5376949999999994
20
-104.3578919999999925
11
71.4424569999999903
21
-104.5483679999999964
0
LINE
8
BLACK
6
CONTINUOUS
10
71.4424569999999903
20
-104.5483679999999964
11
71.3472189999999955
21
-104.6436069999999887
0
LINE
8
BLACK
6
CONTINUOUS
10
71.3472189999999955
20
-104.6436069999999887
11
71.1567429999999916
21
-104.7388449999999978
0
LINE
8
BLACK
6
CONTINUOUS
10
71.1567429999999916
20
-104.7388449999999978
11
70.9662659999999903
21
-104.7388449999999978
0
LINE
8
BLACK
6
CONTINUOUS
10
70.9662659999999903
20
-104.7388449999999978
11
70.7757900000000006
21
-104.6436069999999887
0
LINE
8
BLACK
6
CONTINUOUS
10
70.7757900000000006
20
-104.6436069999999887
11
70.6805519999999916
21
-104.5483679999999964
0
LINE
8
BLACK
6
CONTINUOUS
10
70.6805519999999916
20
-104.5483679999999964
11
70.5853139999999968
21
-104.3578919999999925
0
LINE
8
BLACK
6
CONTINUOUS
10
70.5853139999999968
20
-104.3578919999999925
11
70.490076000000002
21
-103.976939999999999
0
LINE
8
BLACK
6
CONTINUOUS
10
70.490076000000002
20
-103.976939999999999
11
70.490076000000002
21
-103.500748999999999
0
LINE
8
BLACK
6
CONTINUOUS
10
70.490076000000002
20
-103.500748999999999
11
70.5853139999999968
21
-103.1197969999999913
0
LINE
8
BLACK
6
CONTINUOUS
10
70.5853139999999968
20
-103.1197969999999913
11
70.6805519999999916
21
-102.9293210000000016
0
LINE
8
BLACK
6
CONTINUOUS
10
70.6805519999999916
20
-102.9293210000000016
11
70.7757900000000006
21
-102.8340829999999926
0
LINE
8
BLACK
6
CONTINUOUS
10
70.7757900000000006
20
-102.8340829999999926
11
70.9662659999999903
21
-102.7388449999999978
0
LINE
8
BLACK
6
CONTINUOUS
10
72.8710279999999955
20
-102.7388449999999978
11
73.0615049999999968
21
-102.7388449999999978
0
LINE
8
BLACK
6
CONTINUOUS
10
73.0615049999999968
20
-102.7388449999999978
11
73.2519810000000007
21
-102.8340829999999926
0
LINE
8
BLACK
6
CONTINUOUS
10
73.2519810000000007
20
-102.8340829999999926
11
73.3472189999999955
21
-102.9293210000000016
0
LINE
8
BLACK
6
CONTINUOUS
10
73.3472189999999955
20
-102.9293210000000016
11
73.4424569999999903
21
-103.1197969999999913
0
LINE
8
BLACK
6
CONTINUOUS
10
73.4424569999999903
20
-103.1197969999999913
11
73.5376949999999994
21
-103.500748999999999
0
LINE
8
BLACK
6
CONTINUOUS
10
73.5376949999999994
20
-103.500748999999999
11
73.5376949999999994
21
-103.976939999999999
0
LINE
8
BLACK
6
CONTINUOUS
10
73.5376949999999994
20
-103.976939999999999
11
73.4424569999999903
21
-104.3578919999999925
0
LINE
8
BLACK
6
CONTINUOUS
10
73.4424569999999903
20
-104.3578919999999925
11
73.3472189999999955
21
-104.5483679999999964
0
LINE
8
BLACK
6
CONTINUOUS
10
73.3472189999999955
20
-104.5483679999999964
11
73.2519810000000007
21
-104.6436069999999887
0
LINE
8
BLACK
6
CONTINUOUS
10
73.2519810000000007
20
-104.6436069999999887
11
73.0615049999999968
21
-104.7388449999999978
0
LINE
8
BLACK
6
CONTINUOUS
10
73.0615049999999968
20
-104.7388449999999978
11
72.8710279999999955
21
-104.7388449999999978
0
LINE
8
BLACK
6
CONTINUOUS
10
72.8710279999999955
20
-104.7388449999999978
11
72.6805519999999916
21
-104.6436069999999887
0
LINE
8
BLACK
6
CONTINUOUS
10
72.6805519999999916
20
-104.6436069999999887
11
72.5853139999999968
21
-104.5483679999999964
0
LINE
8
BLACK
6
CONTINUOUS
10
72.5853139999999968
20
-104.5483679999999964
11
72.490076000000002
21
-104.3578919999999925
0
LINE
8
BLACK
6
CONTINUOUS
10
72.490076000000002
20
-104.3578919999999925
11
72.3948379999999929
21
-103.976939999999999
0
LINE
8
BLACK
6
CONTINUOUS
10
72.3948379999999929
20
-103.976939999999999
11
72.3948379999999929
21
-103.500748999999999
0
LINE
8
BLACK
6
CONTINUOUS
10
72.3948379999999929
20
-103.500748999999999
11
72.490076000000002
21
-103.1197969999999913
0
LINE
8
BLACK
6
CONTINUOUS
10
72.490076000000002
20
-103.1197969999999913
11
72.5853139999999968
21
-102.9293210000000016
0
LINE
8
BLACK
6
CONTINUOUS
10
72.5853139999999968
20
-102.9293210000000016
11
72.6805519999999916
21
-102.8340829999999926
0
LINE
8
BLACK
6
CONTINUOUS
10
72.6805519999999916
20
-102.8340829999999926
11
72.8710279999999955
21
-102.7388449999999978
0
LINE
8
BLACK
6
CONTINUOUS
10
74.3948379999999929
20
-104.7388449999999978
11
74.3948379999999929
21
-103.40551099999999
0
LINE
8
BLACK
6
CONTINUOUS
10
74.3948379999999929
20
-103.5959869999999938
11
74.490076000000002
21
-103.500748999999999
0
LINE
8
BLACK
6
CONTINUOUS
10
74.490076000000002
20
-103.500748999999999
11
74.6805519999999916
21
-103.40551099999999
0
LINE
8
BLACK
6
CONTINUOUS
10
74.6805519999999916
20
-103.40551099999999
11
74.966267000000002
21
-103.40551099999999
0
LINE
8
BLACK
6
CONTINUOUS
10
74.966267000000002
20
-103.40551099999999
11
75.1567429999999916
21
-103.500748999999999
0
LINE
8
BLACK
6
CONTINUOUS
10
75.1567429999999916
20
-103.500748999999999
11
75.2519810000000007
21
-103.6912260000000003
0
LINE
8
BLACK
6
CONTINUOUS
10
75.2519810000000007
20
-103.6912260000000003
11
75.2519810000000007
21
-104.7388449999999978
0
LINE
8
BLACK
6
CONTINUOUS
10
75.2519810000000007
20
-103.6912260000000003
11
75.3472189999999955
21
-103.500748999999999
0
LINE
8
BLACK
6
CONTINUOUS
10
75.3472189999999955
20
-103.500748999999999
11
75.5376949999999994
21
-103.40551099999999
0
LINE
8
BLACK
6
CONTINUOUS
10
75.5376949999999994
20
-103.40551099999999
11
75.8234089999999981
21
-103.40551099999999
0
LINE
8
BLACK
6
CONTINUOUS
10
75.8234089999999981
20
-103.40551099999999
11
76.0138859999999994
21
-103.500748999999999
0
LINE
8
BLACK
6
CONTINUOUS
10
76.0138859999999994
20
-103.500748999999999
11
76.1091239999999942
21
-103.6912260000000003
0
LINE
8
BLACK
6
CONTINUOUS
10
76.1091239999999942
20
-103.6912260000000003
11
76.1091239999999942
21
-104.7388449999999978
0
LINE
8
BLACK
6
CONTINUOUS
10
77.0615049999999968
20
-104.7388449999999978
11
77.0615049999999968
21
-103.40551099999999
0
LINE
8
BLACK
6
CONTINUOUS
10
77.0615049999999968
20
-103.5959869999999938
11
77.1567429999999916
21
-103.500748999999999
0
LINE
8
BLACK
6
CONTINUOUS
10
77.1567429999999916
20
-103.500748999999999
11
77.3472189999999955
21
-103.40551099999999
0
LINE
8
BLACK
6
CONTINUOUS
10
77.3472189999999955
20
-103.40551099999999
11
77.6329339999999917
21
-103.40551099999999
0
LINE
8
BLACK
6
CONTINUOUS
10
77.6329339999999917
20
-103.40551099999999
11
77.8234099999999955
21
-103.500748999999999
0
LINE
8
BLACK
6
CONTINUOUS
10
77.8234099999999955
20
-103.500748999999999
11
77.9186479999999904
21
-103.6912260000000003
0
LINE
8
BLACK
6
CONTINUOUS
10
77.9186479999999904
20
-103.6912260000000003
11
77.9186479999999904
21
-104.7388449999999978
0
LINE
8
BLACK
6
CONTINUOUS
10
77.9186479999999904
20
-103.6912260000000003
11
78.0138859999999994
21
-103.500748999999999
0
LINE
8
BLACK
6
CONTINUOUS
10
78.0138859999999994
20
-103.500748999999999
11
78.2043620000000033
21
-103.40551099999999
0
LINE
8
BLACK
6
CONTINUOUS
10
78.2043620000000033
20
-103.40551099999999
11
78.490076000000002
21
-103.40551099999999
0
LINE
8
BLACK
6
CONTINUOUS
10
78.490076000000002
20
-103.40551099999999
11
78.6805530000000033
21
-103.500748999999999
0
LINE
8
BLACK
6
CONTINUOUS
10
78.6805530000000033
20
-103.500748999999999
11
78.7757909999999981
21
-103.6912260000000003
0
LINE
8
BLACK
6
CONTINUOUS
10
78.7757909999999981
20
-103.6912260000000003
11
78.7757909999999981
21
-104.7388449999999978
0
LINE
8
BLACK
6
CONTINUOUS
10
82.6805530000000033
20
-102.6436069999999887
11
80.9662679999999995
21
-105.2150350000000003
0
LINE
8
BLACK
6
CONTINUOUS
10
85.2519819999999982
20
-102.7388449999999978
11
85.4424589999999995
21
-102.7388449999999978
0
LINE
8
BLACK
6
CONTINUOUS
10
85.4424589999999995
20
-102.7388449999999978
11
85.6329349999999891
21
-102.8340829999999926
0
LINE
8
BLACK
6
CONTINUOUS
10
85.6329349999999891
20
-102.8340829999999926
11
85.7281729999999982
21
-102.9293210000000016
0
LINE
8
BLACK
6
CONTINUOUS
10
85.7281729999999982
20
-102.9293210000000016
11
85.823410999999993
21
-103.1197969999999913
0
LINE
8
BLACK
6
CONTINUOUS
10
85.823410999999993
20
-103.1197969999999913
11
85.918649000000002
21
-103.500748999999999
0
LINE
8
BLACK
6
CONTINUOUS
10
85.918649000000002
20
-103.500748999999999
11
85.918649000000002
21
-103.976939999999999
0
LINE
8
BLACK
6
CONTINUOUS
10
85.918649000000002
20
-103.976939999999999
11
85.823410999999993
21
-104.3578919999999925
0
LINE
8
BLACK
6
CONTINUOUS
10
85.823410999999993
20
-104.3578919999999925
11
85.7281729999999982
21
-104.5483679999999964
0
LINE
8
BLACK
6
CONTINUOUS
10
85.7281729999999982
20
-104.5483679999999964
11
85.6329349999999891
21
-104.6436069999999887
0
LINE
8
BLACK
6
CONTINUOUS
10
85.6329349999999891
20
-104.6436069999999887
11
85.4424589999999995
21
-104.7388449999999978
0
LINE
8
BLACK
6
CONTINUOUS
10
85.4424589999999995
20
-104.7388449999999978
11
85.2519819999999982
21
-104.7388449999999978
0
LINE
8
BLACK
6
CONTINUOUS
10
85.2519819999999982
20
-104.7388449999999978
11
85.0615059999999943
21
-104.6436069999999887
0
LINE
8
BLACK
6
CONTINUOUS
10
85.0615059999999943
20
-104.6436069999999887
11
84.9662679999999995
21
-104.5483679999999964
0
LINE
8
BLACK
6
CONTINUOUS
10
84.9662679999999995
20
-104.5483679999999964
11
84.8710299999999904
21
-104.3578919999999925
0
LINE
8
BLACK
6
CONTINUOUS
10
84.8710299999999904
20
-104.3578919999999925
11
84.7757919999999956
21
-103.976939999999999
0
LINE
8
BLACK
6
CONTINUOUS
10
84.7757919999999956
20
-103.976939999999999
11
84.7757919999999956
21
-103.500748999999999
0
LINE
8
BLACK
6
CONTINUOUS
10
84.7757919999999956
20
-103.500748999999999
11
84.8710299999999904
21
-103.1197969999999913
0
LINE
8
BLACK
6
CONTINUOUS
10
84.8710299999999904
20
-103.1197969999999913
11
84.9662679999999995
21
-102.9293210000000016
0
LINE
8
BLACK
6
CONTINUOUS
10
84.9662679999999995
20
-102.9293210000000016
11
85.0615059999999943
21
-102.8340829999999926
0
LINE
8
BLACK
6
CONTINUOUS
10
85.0615059999999943
20
-102.8340829999999926
11
85.2519819999999982
21
-102.7388449999999978
0
LINE
8
BLACK
6
CONTINUOUS
10
86.7757919999999956
20
-104.5483679999999964
11
86.8710299999999904
21
-104.6436069999999887
0
LINE
8
BLACK
6
CONTINUOUS
10
86.8710299999999904
20
-104.6436069999999887
11
86.7757919999999956
21
-104.7388449999999978
0
LINE
8
BLACK
6
CONTINUOUS
10
86.7757919999999956
20
-104.7388449999999978
11
86.6805540000000008
21
-104.6436069999999887
0
LINE
8
BLACK
6
CONTINUOUS
10
86.6805540000000008
20
-104.6436069999999887
11
86.7757919999999956
21
-104.5483679999999964
0
LINE
8
BLACK
6
CONTINUOUS
10
86.7757919999999956
20
-104.5483679999999964
11
86.7757919999999956
21
-104.7388449999999978
0
LINE
8
BLACK
6
CONTINUOUS
10
88.7757919999999956
20
-104.7388449999999978
11
87.6329349999999891
21
-104.7388449999999978
0
LINE
8
BLACK
6
CONTINUOUS
10
88.2043630000000007
20
-104.7388449999999978
11
88.2043630000000007
21
-102.7388449999999978
0
LINE
8
BLACK
6
CONTINUOUS
10
88.2043630000000007
20
-102.7388449999999978
11
88.0138869999999969
21
-103.0245589999999964
0
LINE
8
BLACK
6
CONTINUOUS
10
88.0138869999999969
20
-103.0245589999999964
11
87.823410999999993
21
-103.2150350000000003
0
LINE
8
BLACK
6
CONTINUOUS
10
87.823410999999993
20
-103.2150350000000003
11
87.6329349999999891
21
-103.3102729999999951
0
LINE
8
BLACK
6
CONTINUOUS
10
89.918649000000002
20
-103.5959869999999938
11
89.7281729999999982
21
-103.500748999999999
0
LINE
8
BLACK
6
CONTINUOUS
10
89.7281729999999982
20
-103.500748999999999
11
89.6329349999999891
21
-103.40551099999999
0
LINE
8
BLACK
6
CONTINUOUS
10
89.6329349999999891
20
-103.40551099999999
11
89.5376969999999943
21
-103.2150350000000003
0
LINE
8
BLACK
6
CONTINUOUS
10
89.5376969999999943
20
-103.2150350000000003
11
89.5376969999999943
21
-103.1197969999999913
0
LINE
8
BLACK
6
CONTINUOUS
10
89.5376969999999943
20
-103.1197969999999913
11
89.6329349999999891
21
-102.9293210000000016
0
LINE
8
BLACK
6
CONTINUOUS
10
89.6329349999999891
20
-102.9293210000000016
11
89.7281729999999982
21
-102.8340829999999926
0
LINE
8
BLACK
6
CONTINUOUS
10
89.7281729999999982
20
-102.8340829999999926
11
89.918649000000002
21
-102.7388449999999978
0
LINE
8
BLACK
6
CONTINUOUS
10
89.918649000000002
20
-102.7388449999999978
11
90.299601999999993
21
-102.7388449999999978
0
LINE
8
BLACK
6
CONTINUOUS
10
90.299601999999993
20
-102.7388449999999978
11
90.4900779999999969
21
-102.8340829999999926
0
LINE
8
BLACK
6
CONTINUOUS
10
90.4900779999999969
20
-102.8340829999999926
11
90.5853159999999917
21
-102.9293210000000016
0
LINE
8
BLACK
6
CONTINUOUS
10
90.5853159999999917
20
-102.9293210000000016
11
90.6805540000000008
21
-103.1197969999999913
0
LINE
8
BLACK
6
CONTINUOUS
10
90.6805540000000008
20
-103.1197969999999913
11
90.6805540000000008
21
-103.2150350000000003
0
LINE
8
BLACK
6
CONTINUOUS
10
90.6805540000000008
20
-103.2150350000000003
11
90.5853159999999917
21
-103.40551099999999
0
LINE
8
BLACK
6
CONTINUOUS
10
90.5853159999999917
20
-103.40551099999999
11
90.4900779999999969
21
-103.500748999999999
0
LINE
8
BLACK
6
CONTINUOUS
10
90.4900779999999969
20
-103.500748999999999
11
90.299601999999993
21
-103.5959869999999938
0
LINE
8
BLACK
6
CONTINUOUS
10
90.299601999999993
20
-103.5959869999999938
11
89.918649000000002
21
-103.5959869999999938
0
LINE
8
BLACK
6
CONTINUOUS
10
89.918649000000002
20
-103.5959869999999938
11
89.7281729999999982
21
-103.6912260000000003
0
LINE
8
BLACK
6
CONTINUOUS
10
89.7281729999999982
20
-103.6912260000000003
11
89.6329349999999891
21
-103.7864639999999952
0
LINE
8
BLACK
6
CONTINUOUS
10
89.6329349999999891
20
-103.7864639999999952
11
89.5376969999999943
21
-103.976939999999999
0
LINE
8
BLACK
6
CONTINUOUS
10
89.5376969999999943
20
-103.976939999999999
11
89.5376969999999943
21
-104.3578919999999925
0
LINE
8
BLACK
6
CONTINUOUS
10
89.5376969999999943
20
-104.3578919999999925
11
89.6329349999999891
21
-104.5483679999999964
0
LINE
8
BLACK
6
CONTINUOUS
10
89.6329349999999891
20
-104.5483679999999964
11
89.7281729999999982
21
-104.6436069999999887
0
LINE
8
BLACK
6
CONTINUOUS
10
89.7281729999999982
20
-104.6436069999999887
11
89.918649000000002
21
-104.7388449999999978
0
LINE
8
BLACK
6
CONTINUOUS
10
89.918649000000002
20
-104.7388449999999978
11
90.299601999999993
21
-104.7388449999999978
0
LINE
8
BLACK
6
CONTINUOUS
10
90.299601999999993
20
-104.7388449999999978
11
90.4900779999999969
21
-104.6436069999999887
0
LINE
8
BLACK
6
CONTINUOUS
10
90.4900779999999969
20
-104.6436069999999887
11
90.5853159999999917
21
-104.5483679999999964
0
LINE
8
BLACK
6
CONTINUOUS
10
90.5853159999999917
20
-104.5483679999999964
11
90.6805540000000008
21
-104.3578919999999925
0
LINE
8
BLACK
6
CONTINUOUS
10
90.6805540000000008
20
-104.3578919999999925
11
90.6805540000000008
21
-103.976939999999999
0
LINE
8
BLACK
6
CONTINUOUS
10
90.6805540000000008
20
-103.976939999999999
11
90.5853159999999917
21
-103.7864639999999952
0
LINE
8
BLACK
6
CONTINUOUS
10
90.5853159999999917
20
-103.7864639999999952
11
90.4900779999999969
21
-103.6912260000000003
0
LINE
8
BLACK
6
CONTINUOUS
10
90.4900779999999969
20
-103.6912260000000003
11
90.299601999999993
21
-103.5959869999999938
0
LINE
8
BLACK
6
CONTINUOUS
10
92.5853159999999917
20
-104.7388449999999978
11
91.4424589999999995
21
-104.7388449999999978
0
LINE
8
BLACK
6
CONTINUOUS
10
92.0138869999999969
20
-104.7388449999999978
11
92.0138869999999969
21
-102.7388449999999978
0
LINE
8
BLACK
6
CONTINUOUS
10
92.0138869999999969
20
-102.7388449999999978
11
91.823410999999993
21
-103.0245589999999964
0
LINE
8
BLACK
6
CONTINUOUS
10
91.823410999999993
20
-103.0245589999999964
11
91.6329349999999891
21
-103.2150350000000003
0
LINE
8
BLACK
6
CONTINUOUS
10
91.6329349999999891
20
-103.2150350000000003
11
91.4424589999999995
21
-103.3102729999999951
0
LINE
8
BLACK
6
CONTINUOUS
10
94.4900779999999969
20
-104.7388449999999978
11
93.3472209999999905
21
-104.7388449999999978
0
LINE
8
BLACK
6
CONTINUOUS
10
93.918649000000002
20
-104.7388449999999978
11
93.918649000000002
21
-102.7388449999999978
0
LINE
8
BLACK
6
CONTINUOUS
10
93.918649000000002
20
-102.7388449999999978
11
93.7281729999999982
21
-103.0245589999999964
0
LINE
8
BLACK
6
CONTINUOUS
10
93.7281729999999982
20
-103.0245589999999964
11
93.5376969999999943
21
-103.2150350000000003
0
LINE
8
BLACK
6
CONTINUOUS
10
93.5376969999999943
20
-103.2150350000000003
11
93.3472209999999905
21
-103.3102729999999951
0
LINE
8
BLACK
6
CONTINUOUS
10
95.2519829999999956
20
-102.7388449999999978
11
95.2519829999999956
21
-103.1197969999999913
0
LINE
8
BLACK
6
CONTINUOUS
10
96.0138879999999943
20
-102.7388449999999978
11
96.0138879999999943
21
-103.1197969999999913
0
LINE
8
BLACK
6
CONTINUOUS
10
98.9662699999999944
20
-105.500748999999999
11
98.8710310000000021
21
-105.40551099999999
0
LINE
8
BLACK
6
CONTINUOUS
10
98.8710310000000021
20
-105.40551099999999
11
98.6805549999999982
21
-105.1197969999999913
0
LINE
8
BLACK
6
CONTINUOUS
10
98.6805549999999982
20
-105.1197969999999913
11
98.5853169999999892
21
-104.9293210000000016
0
LINE
8
BLACK
6
CONTINUOUS
10
98.5853169999999892
20
-104.9293210000000016
11
98.4900789999999944
21
-104.6436069999999887
0
LINE
8
BLACK
6
CONTINUOUS
10
98.4900789999999944
20
-104.6436069999999887
11
98.3948409999999996
21
-104.1674159999999887
0
LINE
8
BLACK
6
CONTINUOUS
10
98.3948409999999996
20
-104.1674159999999887
11
98.3948409999999996
21
-103.7864639999999952
0
LINE
8
BLACK
6
CONTINUOUS
10
98.3948409999999996
20
-103.7864639999999952
11
98.4900789999999944
21
-103.3102729999999951
0
LINE
8
BLACK
6
CONTINUOUS
10
98.4900789999999944
20
-103.3102729999999951
11
98.5853169999999892
21
-103.0245589999999964
0
LINE
8
BLACK
6
CONTINUOUS
10
98.5853169999999892
20
-103.0245589999999964
11
98.6805549999999982
21
-102.8340829999999926
0
LINE
8
BLACK
6
CONTINUOUS
10
98.6805549999999982
20
-102.8340829999999926
11
98.8710310000000021
21
-102.5483679999999964
0
LINE
8
BLACK
6
CONTINUOUS
10
98.8710310000000021
20
-102.5483679999999964
11
98.9662699999999944
21
-102.4531300000000016
0
LINE
8
BLACK
6
CONTINUOUS
10
100.7757929999999931
20
-104.7388449999999978
11
99.6329360000000008
21
-104.7388449999999978
0
LINE
8
BLACK
6
CONTINUOUS
10
100.2043639999999982
20
-104.7388449999999978
11
100.2043639999999982
21
-102.7388449999999978
0
LINE
8
BLACK
6
CONTINUOUS
10
100.2043639999999982
20
-102.7388449999999978
11
100.0138879999999943
21
-103.0245589999999964
0
LINE
8
BLACK
6
CONTINUOUS
10
100.0138879999999943
20
-103.0245589999999964
11
99.8234119999999905
21
-103.2150350000000003
0
LINE
8
BLACK
6
CONTINUOUS
10
99.8234119999999905
20
-103.2150350000000003
11
99.6329360000000008
21
-103.3102729999999951
0
LINE
8
BLACK
6
CONTINUOUS
10
103.1567459999999983
20
-104.7388449999999978
11
103.1567459999999983
21
-102.7388449999999978
0
LINE
8
BLACK
6
CONTINUOUS
10
104.0138889999999918
20
-104.7388449999999978
11
104.0138889999999918
21
-103.6912260000000003
0
LINE
8
BLACK
6
CONTINUOUS
10
104.0138889999999918
20
-103.6912260000000003
11
103.918650999999997
21
-103.500748999999999
0
LINE
8
BLACK
6
CONTINUOUS
10
103.918650999999997
20
-103.500748999999999
11
103.7281749999999931
21
-103.40551099999999
0
LINE
8
BLACK
6
CONTINUOUS
10
103.7281749999999931
20
-103.40551099999999
11
103.442459999999997
21
-103.40551099999999
0
LINE
8
BLACK
6
CONTINUOUS
10
103.442459999999997
20
-103.40551099999999
11
103.2519839999999931
21
-103.500748999999999
0
LINE
8
BLACK
6
CONTINUOUS
10
103.2519839999999931
20
-103.500748999999999
11
103.1567459999999983
21
-103.5959869999999938
0
LINE
8
BLACK
6
CONTINUOUS
10
105.2519839999999931
20
-104.7388449999999978
11
105.0615079999999892
21
-104.6436069999999887
0
LINE
8
BLACK
6
CONTINUOUS
10
105.0615079999999892
20
-104.6436069999999887
11
104.9662699999999944
21
-104.5483679999999964
0
LINE
8
BLACK
6
CONTINUOUS
10
104.9662699999999944
20
-104.5483679999999964
11
104.8710319999999996
21
-104.3578919999999925
0
LINE
8
BLACK
6
CONTINUOUS
10
104.8710319999999996
20
-104.3578919999999925
11
104.8710319999999996
21
-103.7864639999999952
0
LINE
8
BLACK
6
CONTINUOUS
10
104.8710319999999996
20
-103.7864639999999952
11
104.9662699999999944
21
-103.5959869999999938
0
LINE
8
BLACK
6
CONTINUOUS
10
104.9662699999999944
20
-103.5959869999999938
11
105.0615079999999892
21
-103.500748999999999
0
LINE
8
BLACK
6
CONTINUOUS
10
105.0615079999999892
20
-103.500748999999999
11
105.2519839999999931
21
-103.40551099999999
0
LINE
8
BLACK
6
CONTINUOUS
10
105.2519839999999931
20
-103.40551099999999
11
105.5376989999999893
21
-103.40551099999999
0
LINE
8
BLACK
6
CONTINUOUS
10
105.5376989999999893
20
-103.40551099999999
11
105.7281749999999931
21
-103.500748999999999
0
LINE
8
BLACK
6
CONTINUOUS
10
105.7281749999999931
20
-103.500748999999999
11
105.8234130000000022
21
-103.5959869999999938
0
LINE
8
BLACK
6
CONTINUOUS
10
105.8234130000000022
20
-103.5959869999999938
11
105.918650999999997
21
-103.7864639999999952
0
LINE
8
BLACK
6
CONTINUOUS
10
105.918650999999997
20
-103.7864639999999952
11
105.918650999999997
21
-104.3578919999999925
0
LINE
8
BLACK
6
CONTINUOUS
10
105.918650999999997
20
-104.3578919999999925
11
105.8234130000000022
21
-104.5483679999999964
0
LINE
8
BLACK
6
CONTINUOUS
10
105.8234130000000022
20
-104.5483679999999964
11
105.7281749999999931
21
-104.6436069999999887
0
LINE
8
BLACK
6
CONTINUOUS
10
105.7281749999999931
20
-104.6436069999999887
11
105.5376989999999893
21
-104.7388449999999978
0
LINE
8
BLACK
6
CONTINUOUS
10
105.5376989999999893
20
-104.7388449999999978
11
105.2519839999999931
21
-104.7388449999999978
0
LINE
8
BLACK
6
CONTINUOUS
10
107.0615079999999892
20
-104.7388449999999978
11
106.8710319999999996
21
-104.6436069999999887
0
LINE
8
BLACK
6
CONTINUOUS
10
106.8710319999999996
20
-104.6436069999999887
11
106.7757939999999905
21
-104.4531300000000016
0
LINE
8
BLACK
6
CONTINUOUS
10
106.7757939999999905
20
-104.4531300000000016
11
106.7757939999999905
21
-102.7388449999999978
0
LINE
8
BLACK
6
CONTINUOUS
10
108.5853180000000009
20
-104.6436069999999887
11
108.394841999999997
21
-104.7388449999999978
0
LINE
8
BLACK
6
CONTINUOUS
10
108.394841999999997
20
-104.7388449999999978
11
108.0138889999999918
21
-104.7388449999999978
0
LINE
8
BLACK
6
CONTINUOUS
10
108.0138889999999918
20
-104.7388449999999978
11
107.8234130000000022
21
-104.6436069999999887
0
LINE
8
BLACK
6
CONTINUOUS
10
107.8234130000000022
20
-104.6436069999999887
11
107.7281749999999931
21
-104.4531300000000016
0
LINE
8
BLACK
6
CONTINUOUS
10
107.7281749999999931
20
-104.4531300000000016
11
107.7281749999999931
21
-103.6912260000000003
0
LINE
8
BLACK
6
CONTINUOUS
10
107.7281749999999931
20
-103.6912260000000003
11
107.8234130000000022
21
-103.500748999999999
0
LINE
8
BLACK
6
CONTINUOUS
10
107.8234130000000022
20
-103.500748999999999
11
108.0138889999999918
21
-103.40551099999999
0
LINE
8
BLACK
6
CONTINUOUS
10
108.0138889999999918
20
-103.40551099999999
11
108.394841999999997
21
-103.40551099999999
0
LINE
8
BLACK
6
CONTINUOUS
10
108.394841999999997
20
-103.40551099999999
11
108.5853180000000009
21
-103.500748999999999
0
LINE
8
BLACK
6
CONTINUOUS
10
108.5853180000000009
20
-103.500748999999999
11
108.6805559999999957
21
-103.6912260000000003
0
LINE
8
BLACK
6
CONTINUOUS
10
108.6805559999999957
20
-103.6912260000000003
11
108.6805559999999957
21
-103.88170199999999
0
LINE
8
BLACK
6
CONTINUOUS
10
108.6805559999999957
20
-103.88170199999999
11
107.7281749999999931
21
-104.0721779999999939
0
LINE
8
BLACK
6
CONTINUOUS
10
109.3472229999999996
20
-105.500748999999999
11
109.4424609999999944
21
-105.40551099999999
0
LINE
8
BLACK
6
CONTINUOUS
10
109.4424609999999944
20
-105.40551099999999
11
109.6329369999999983
21
-105.1197969999999913
0
LINE
8
BLACK
6
CONTINUOUS
10
109.6329369999999983
20
-105.1197969999999913
11
109.7281749999999931
21
-104.9293210000000016
0
LINE
8
BLACK
6
CONTINUOUS
10
109.7281749999999931
20
-104.9293210000000016
11
109.823412999999988
21
-104.6436069999999887
0
LINE
8
BLACK
6
CONTINUOUS
10
109.823412999999988
20
-104.6436069999999887
11
109.918650999999997
21
-104.1674159999999887
0
LINE
8
BLACK
6
CONTINUOUS
10
109.918650999999997
20
-104.1674159999999887
11
109.918650999999997
21
-103.7864639999999952
0
LINE
8
BLACK
6
CONTINUOUS
10
109.918650999999997
20
-103.7864639999999952
11
109.823412999999988
21
-103.3102729999999951
0
LINE
8
BLACK
6
CONTINUOUS
10
109.823412999999988
20
-103.3102729999999951
11
109.7281749999999931
21
-103.0245589999999964
0
LINE
8
BLACK
6
CONTINUOUS
10
109.7281749999999931
20
-103.0245589999999964
11
109.6329369999999983
21
-102.8340829999999926
0
LINE
8
BLACK
6
CONTINUOUS
10
109.6329369999999983
20
-102.8340829999999926
11
109.4424609999999944
21
-102.5483679999999964
0
LINE
8
BLACK
6
CONTINUOUS
10
109.4424609999999944
20
-102.5483679999999964
11
109.3472229999999996
21
-102.4531300000000016
0
LINE
8
BLACK
6
CONTINUOUS
10
112.9662709999999919
20
-105.500748999999999
11
112.8710319999999996
21
-105.40551099999999
0
LINE
8
BLACK
6
CONTINUOUS
10
112.8710319999999996
20
-105.40551099999999
11
112.6805559999999957
21
-105.1197969999999913
0
LINE
8
BLACK
6
CONTINUOUS
10
112.6805559999999957
20
-105.1197969999999913
11
112.5853180000000009
21
-104.9293210000000016
0
LINE
8
BLACK
6
CONTINUOUS
10
112.5853180000000009
20
-104.9293210000000016
11
112.4900799999999919
21
-104.6436069999999887
0
LINE
8
BLACK
6
CONTINUOUS
10
112.4900799999999919
20
-104.6436069999999887
11
112.394841999999997
21
-104.1674159999999887
0
LINE
8
BLACK
6
CONTINUOUS
10
112.394841999999997
20
-104.1674159999999887
11
112.394841999999997
21
-103.7864639999999952
0
LINE
8
BLACK
6
CONTINUOUS
10
112.394841999999997
20
-103.7864639999999952
11
112.4900799999999919
21
-103.3102729999999951
0
LINE
8
BLACK
6
CONTINUOUS
10
112.4900799999999919
20
-103.3102729999999951
11
112.5853180000000009
21
-103.0245589999999964
0
LINE
8
BLACK
6
CONTINUOUS
10
112.5853180000000009
20
-103.0245589999999964
11
112.6805559999999957
21
-102.8340829999999926
0
LINE
8
BLACK
6
CONTINUOUS
10
112.6805559999999957
20
-102.8340829999999926
11
112.8710319999999996
21
-102.5483679999999964
0
LINE
8
BLACK
6
CONTINUOUS
10
112.8710319999999996
20
-102.5483679999999964
11
112.9662709999999919
21
-102.4531300000000016
0
LINE
8
BLACK
6
CONTINUOUS
10
113.7281749999999931
20
-103.40551099999999
11
113.7281749999999931
21
-104.7388449999999978
0
LINE
8
BLACK
6
CONTINUOUS
10
113.7281749999999931
20
-103.5959869999999938
11
113.823412999999988
21
-103.500748999999999
0
LINE
8
BLACK
6
CONTINUOUS
10
113.823412999999988
20
-103.500748999999999
11
114.0138889999999918
21
-103.40551099999999
0
LINE
8
BLACK
6
CONTINUOUS
10
114.0138889999999918
20
-103.40551099999999
11
114.299603999999988
21
-103.40551099999999
0
LINE
8
BLACK
6
CONTINUOUS
10
114.299603999999988
20
-103.40551099999999
11
114.4900799999999919
21
-103.500748999999999
0
LINE
8
BLACK
6
CONTINUOUS
10
114.4900799999999919
20
-103.500748999999999
11
114.5853180000000009
21
-103.6912260000000003
0
LINE
8
BLACK
6
CONTINUOUS
10
114.5853180000000009
20
-103.6912260000000003
11
114.5853180000000009
21
-104.7388449999999978
0
LINE
8
BLACK
6
CONTINUOUS
10
115.823412999999988
20
-104.7388449999999978
11
115.6329369999999983
21
-104.6436069999999887
0
LINE
8
BLACK
6
CONTINUOUS
10
115.6329369999999983
20
-104.6436069999999887
11
115.5376989999999893
21
-104.5483679999999964
0
LINE
8
BLACK
6
CONTINUOUS
10
115.5376989999999893
20
-104.5483679999999964
11
115.4424609999999944
21
-104.3578919999999925
0
LINE
8
BLACK
6
CONTINUOUS
10
115.4424609999999944
20
-104.3578919999999925
11
115.4424609999999944
21
-103.7864639999999952
0
LINE
8
BLACK
6
CONTINUOUS
10
115.4424609999999944
20
-103.7864639999999952
11
115.5376989999999893
21
-103.5959869999999938
0
LINE
8
BLACK
6
CONTINUOUS
10
115.5376989999999893
20
-103.5959869999999938
11
115.6329369999999983
21
-103.500748999999999
0
LINE
8
BLACK
6
CONTINUOUS
10
115.6329369999999983
20
-103.500748999999999
11
115.823412999999988
21
-103.40551099999999
0
LINE
8
BLACK
6
CONTINUOUS
10
115.823412999999988
20
-103.40551099999999
11
116.1091279999999983
21
-103.40551099999999
0
LINE
8
BLACK
6
CONTINUOUS
10
116.1091279999999983
20
-103.40551099999999
11
116.299603999999988
21
-103.500748999999999
0
LINE
8
BLACK
6
CONTINUOUS
10
116.299603999999988
20
-103.500748999999999
11
116.394841999999997
21
-103.5959869999999938
0
LINE
8
BLACK
6
CONTINUOUS
10
116.394841999999997
20
-103.5959869999999938
11
116.4900799999999919
21
-103.7864639999999952
0
LINE
8
BLACK
6
CONTINUOUS
10
116.4900799999999919
20
-103.7864639999999952
11
116.4900799999999919
21
-104.3578919999999925
0
LINE
8
BLACK
6
CONTINUOUS
10
116.4900799999999919
20
-104.3578919999999925
11
116.394841999999997
21
-104.5483679999999964
0
LINE
8
BLACK
6
CONTINUOUS
10
116.394841999999997
20
-104.5483679999999964
11
116.299603999999988
21
-104.6436069999999887
0
LINE
8
BLACK
6
CONTINUOUS
10
116.299603999999988
20
-104.6436069999999887
11
116.1091279999999983
21
-104.7388449999999978
0
LINE
8
BLACK
6
CONTINUOUS
10
116.1091279999999983
20
-104.7388449999999978
11
115.823412999999988
21
-104.7388449999999978
0
LINE
8
BLACK
6
CONTINUOUS
10
117.0615090000000009
20
-103.40551099999999
11
117.823412999999988
21
-103.40551099999999
0
LINE
8
BLACK
6
CONTINUOUS
10
117.3472229999999996
20
-102.7388449999999978
11
117.3472229999999996
21
-104.4531300000000016
0
LINE
8
BLACK
6
CONTINUOUS
10
117.3472229999999996
20
-104.4531300000000016
11
117.4424609999999944
21
-104.6436069999999887
0
LINE
8
BLACK
6
CONTINUOUS
10
117.4424609999999944
20
-104.6436069999999887
11
117.6329369999999983
21
-104.7388449999999978
0
LINE
8
BLACK
6
CONTINUOUS
10
117.6329369999999983
20
-104.7388449999999978
11
117.823412999999988
21
-104.7388449999999978
0
LINE
8
BLACK
6
CONTINUOUS
10
120.0138899999999893
20
-103.40551099999999
11
120.0138899999999893
21
-105.40551099999999
0
LINE
8
BLACK
6
CONTINUOUS
10
120.0138899999999893
20
-103.500748999999999
11
120.2043659999999932
21
-103.40551099999999
0
LINE
8
BLACK
6
CONTINUOUS
10
120.2043659999999932
20
-103.40551099999999
11
120.5853189999999984
21
-103.40551099999999
0
LINE
8
BLACK
6
CONTINUOUS
10
120.5853189999999984
20
-103.40551099999999
11
120.775794999999988
21
-103.500748999999999
0
LINE
8
BLACK
6
CONTINUOUS
10
120.775794999999988
20
-103.500748999999999
11
120.8710329999999971
21
-103.5959869999999938
0
LINE
8
BLACK
6
CONTINUOUS
10
120.8710329999999971
20
-103.5959869999999938
11
120.9662709999999919
21
-103.7864639999999952
0
LINE
8
BLACK
6
CONTINUOUS
10
120.9662709999999919
20
-103.7864639999999952
11
120.9662709999999919
21
-104.3578919999999925
0
LINE
8
BLACK
6
CONTINUOUS
10
120.9662709999999919
20
-104.3578919999999925
11
120.8710329999999971
21
-104.5483679999999964
0
LINE
8
BLACK
6
CONTINUOUS
10
120.8710329999999971
20
-104.5483679999999964
11
120.775794999999988
21
-104.6436069999999887
0
LINE
8
BLACK
6
CONTINUOUS
10
120.775794999999988
20
-104.6436069999999887
11
120.5853189999999984
21
-104.7388449999999978
0
LINE
8
BLACK
6
CONTINUOUS
10
120.5853189999999984
20
-104.7388449999999978
11
120.2043659999999932
21
-104.7388449999999978
0
LINE
8
BLACK
6
CONTINUOUS
10
120.2043659999999932
20
-104.7388449999999978
11
120.0138899999999893
21
-104.6436069999999887
0
LINE
8
BLACK
6
CONTINUOUS
10
122.1091279999999983
20
-104.7388449999999978
11
121.9186519999999945
21
-104.6436069999999887
0
LINE
8
BLACK
6
CONTINUOUS
10
121.9186519999999945
20
-104.6436069999999887
11
121.8234139999999996
21
-104.4531300000000016
0
LINE
8
BLACK
6
CONTINUOUS
10
121.8234139999999996
20
-104.4531300000000016
11
121.8234139999999996
21
-102.7388449999999978
0
LINE
8
BLACK
6
CONTINUOUS
10
123.7281759999999906
20
-104.7388449999999978
11
123.7281759999999906
21
-103.6912260000000003
0
LINE
8
BLACK
6
CONTINUOUS
10
123.7281759999999906
20
-103.6912260000000003
11
123.6329379999999958
21
-103.500748999999999
0
LINE
8
BLACK
6
CONTINUOUS
10
123.6329379999999958
20
-103.500748999999999
11
123.4424619999999919
21
-103.40551099999999
0
LINE
8
BLACK
6
CONTINUOUS
10
123.4424619999999919
20
-103.40551099999999
11
123.0615090000000009
21
-103.40551099999999
0
LINE
8
BLACK
6
CONTINUOUS
10
123.0615090000000009
20
-103.40551099999999
11
122.8710329999999971
21
-103.500748999999999
0
LINE
8
BLACK
6
CONTINUOUS
10
123.7281759999999906
20
-104.6436069999999887
11
123.537700000000001
21
-104.7388449999999978
0
LINE
8
BLACK
6
CONTINUOUS
10
123.537700000000001
20
-104.7388449999999978
11
123.0615090000000009
21
-104.7388449999999978
0
LINE
8
BLACK
6
CONTINUOUS
10
123.0615090000000009
20
-104.7388449999999978
11
122.8710329999999971
21
-104.6436069999999887
0
LINE
8
BLACK
6
CONTINUOUS
10
122.8710329999999971
20
-104.6436069999999887
11
122.775794999999988
21
-104.4531300000000016
0
LINE
8
BLACK
6
CONTINUOUS
10
122.775794999999988
20
-104.4531300000000016
11
122.775794999999988
21
-104.2626539999999977
0
LINE
8
BLACK
6
CONTINUOUS
10
122.775794999999988
20
-104.2626539999999977
11
122.8710329999999971
21
-104.0721779999999939
0
LINE
8
BLACK
6
CONTINUOUS
10
122.8710329999999971
20
-104.0721779999999939
11
123.0615090000000009
21
-103.976939999999999
0
LINE
8
BLACK
6
CONTINUOUS
10
123.0615090000000009
20
-103.976939999999999
11
123.537700000000001
21
-103.976939999999999
0
LINE
8
BLACK
6
CONTINUOUS
10
123.537700000000001
20
-103.976939999999999
11
123.7281759999999906
21
-103.88170199999999
0
LINE
8
BLACK
6
CONTINUOUS
10
124.3948429999999945
20
-103.40551099999999
11
125.1567469999999958
21
-103.40551099999999
0
LINE
8
BLACK
6
CONTINUOUS
10
124.6805569999999932
20
-102.7388449999999978
11
124.6805569999999932
21
-104.4531300000000016
0
LINE
8
BLACK
6
CONTINUOUS
10
124.6805569999999932
20
-104.4531300000000016
11
124.775794999999988
21
-104.6436069999999887
0
LINE
8
BLACK
6
CONTINUOUS
10
124.775794999999988
20
-104.6436069999999887
11
124.9662709999999919
21
-104.7388449999999978
0
LINE
8
BLACK
6
CONTINUOUS
10
124.9662709999999919
20
-104.7388449999999978
11
125.1567469999999958
21
-104.7388449999999978
0
LINE
8
BLACK
6
CONTINUOUS
10
126.5853189999999984
20
-104.6436069999999887
11
126.3948429999999945
21
-104.7388449999999978
0
LINE
8
BLACK
6
CONTINUOUS
10
126.3948429999999945
20
-104.7388449999999978
11
126.0138899999999893
21
-104.7388449999999978
0
LINE
8
BLACK
6
CONTINUOUS
10
126.0138899999999893
20
-104.7388449999999978
11
125.8234139999999996
21
-104.6436069999999887
0
LINE
8
BLACK
6
CONTINUOUS
10
125.8234139999999996
20
-104.6436069999999887
11
125.7281759999999906
21
-104.4531300000000016
0
LINE
8
BLACK
6
CONTINUOUS
10
125.7281759999999906
20
-104.4531300000000016
11
125.7281759999999906
21
-103.6912260000000003
0
LINE
8
BLACK
6
CONTINUOUS
10
125.7281759999999906
20
-103.6912260000000003
11
125.8234139999999996
21
-103.500748999999999
0
LINE
8
BLACK
6
CONTINUOUS
10
125.8234139999999996
20
-103.500748999999999
11
126.0138899999999893
21
-103.40551099999999
0
LINE
8
BLACK
6
CONTINUOUS
10
126.0138899999999893
20
-103.40551099999999
11
126.3948429999999945
21
-103.40551099999999
0
LINE
8
BLACK
6
CONTINUOUS
10
126.3948429999999945
20
-103.40551099999999
11
126.5853189999999984
21
-103.500748999999999
0
LINE
8
BLACK
6
CONTINUOUS
10
126.5853189999999984
20
-103.500748999999999
11
126.6805569999999932
21
-103.6912260000000003
0
LINE
8
BLACK
6
CONTINUOUS
10
126.6805569999999932
20
-103.6912260000000003
11
126.6805569999999932
21
-103.88170199999999
0
LINE
8
BLACK
6
CONTINUOUS
10
126.6805569999999932
20
-103.88170199999999
11
125.7281759999999906
21
-104.0721779999999939
0
LINE
8
BLACK
6
CONTINUOUS
10
128.3948429999999803
20
-104.7388449999999978
11
128.3948429999999803
21
-102.7388449999999978
0
LINE
8
BLACK
6
CONTINUOUS
10
128.3948429999999803
20
-104.6436069999999887
11
128.2043669999999906
21
-104.7388449999999978
0
LINE
8
BLACK
6
CONTINUOUS
10
128.2043669999999906
20
-104.7388449999999978
11
127.8234139999999996
21
-104.7388449999999978
0
LINE
8
BLACK
6
CONTINUOUS
10
127.8234139999999996
20
-104.7388449999999978
11
127.6329379999999958
21
-104.6436069999999887
0
LINE
8
BLACK
6
CONTINUOUS
10
127.6329379999999958
20
-104.6436069999999887
11
127.537700000000001
21
-104.5483679999999964
0
LINE
8
BLACK
6
CONTINUOUS
10
127.537700000000001
20
-104.5483679999999964
11
127.4424619999999919
21
-104.3578919999999925
0
LINE
8
BLACK
6
CONTINUOUS
10
127.4424619999999919
20
-104.3578919999999925
11
127.4424619999999919
21
-103.7864639999999952
0
LINE
8
BLACK
6
CONTINUOUS
10
127.4424619999999919
20
-103.7864639999999952
11
127.537700000000001
21
-103.5959869999999938
0
LINE
8
BLACK
6
CONTINUOUS
10
127.537700000000001
20
-103.5959869999999938
11
127.6329379999999958
21
-103.500748999999999
0
LINE
8
BLACK
6
CONTINUOUS
10
127.6329379999999958
20
-103.500748999999999
11
127.8234139999999996
21
-103.40551099999999
0
LINE
8
BLACK
6
CONTINUOUS
10
127.8234139999999996
20
-103.40551099999999
11
128.2043669999999906
21
-103.40551099999999
0
LINE
8
BLACK
6
CONTINUOUS
10
128.2043669999999906
20
-103.40551099999999
11
128.3948429999999803
21
-103.500748999999999
0
LINE
8
BLACK
6
CONTINUOUS
10
129.1567479999999932
20
-105.500748999999999
11
129.2519859999999881
21
-105.40551099999999
0
LINE
8
BLACK
6
CONTINUOUS
10
129.2519859999999881
20
-105.40551099999999
11
129.4424620000000061
21
-105.1197969999999913
0
LINE
8
BLACK
6
CONTINUOUS
10
129.4424620000000061
20
-105.1197969999999913
11
129.537700000000001
21
-104.9293210000000016
0
LINE
8
BLACK
6
CONTINUOUS
10
129.537700000000001
20
-104.9293210000000016
11
129.6329379999999958
21
-104.6436069999999887
0
LINE
8
BLACK
6
CONTINUOUS
10
129.6329379999999958
20
-104.6436069999999887
11
129.7281759999999906
21
-104.1674159999999887
0
LINE
8
BLACK
6
CONTINUOUS
10
129.7281759999999906
20
-104.1674159999999887
11
129.7281759999999906
21
-103.7864639999999952
0
LINE
8
BLACK
6
CONTINUOUS
10
129.7281759999999906
20
-103.7864639999999952
11
129.6329379999999958
21
-103.3102729999999951
0
LINE
8
BLACK
6
CONTINUOUS
10
129.6329379999999958
20
-103.3102729999999951
11
129.537700000000001
21
-103.0245589999999964
0
LINE
8
BLACK
6
CONTINUOUS
10
129.537700000000001
20
-103.0245589999999964
11
129.4424620000000061
21
-102.8340829999999926
0
LINE
8
BLACK
6
CONTINUOUS
10
129.4424620000000061
20
-102.8340829999999926
11
129.2519859999999881
21
-102.5483679999999964
0
LINE
8
BLACK
6
CONTINUOUS
10
129.2519859999999881
20
-102.5483679999999964
11
129.1567479999999932
21
-102.4531300000000016
  0
ENDSEC
  0
EOF
