%TF.GenerationSoftware,KiCad,Pcbnew,7.0.9*%
%TF.CreationDate,2023-12-03T08:33:00+10:00*%
%TF.ProjectId,BATT-PCB,42415454-2d50-4434-922e-6b696361645f,rev?*%
%TF.SameCoordinates,Original*%
%TF.FileFunction,Profile,NP*%
%FSLAX46Y46*%
G04 Gerber Fmt 4.6, Leading zero omitted, Abs format (unit mm)*
G04 Created by KiCad (PCBNEW 7.0.9) date 2023-12-03 08:33:00*
%MOMM*%
%LPD*%
G01*
G04 APERTURE LIST*
%TA.AperFunction,Profile*%
%ADD10C,0.010000*%
%TD*%
G04 APERTURE END LIST*
D10*
X106718456Y-81721290D02*
X106806682Y-75822153D01*
X80022934Y-64477169D02*
X76668916Y-61662815D01*
X66988408Y-68519838D02*
G75*
G03*
X67512596Y-76755850I359732J-4111792D01*
G01*
X115679399Y-68591522D02*
G75*
G03*
X115679399Y-68591522I-2152650J0D01*
G01*
X67512597Y-91219007D02*
X86279842Y-91219007D01*
X108335629Y-74224425D02*
G75*
G03*
X106806682Y-75822153I439571J-1951075D01*
G01*
X98110387Y-90183993D02*
G75*
G03*
X104660704Y-83526715I-7149487J13585793D01*
G01*
X99428006Y-62368938D02*
X96151398Y-60074632D01*
X87021520Y-54549855D02*
G75*
G03*
X79240984Y-58599409I3415380J-16061345D01*
G01*
X67512596Y-76755849D02*
X67512597Y-77774998D01*
X76668930Y-61662824D02*
G75*
G03*
X74244280Y-67885025I13768470J-8948776D01*
G01*
X105503424Y-82979319D02*
G75*
G03*
X106718455Y-81721290I-63524J1277119D01*
G01*
X98707169Y-56424616D02*
G75*
G03*
X91006214Y-54200319I-8269269J-14186584D01*
G01*
X69500794Y-72631627D02*
G75*
G03*
X69500794Y-72631627I-2152650J0D01*
G01*
X101893954Y-58847189D02*
X99428006Y-62368938D01*
X105503419Y-82979221D02*
G75*
G03*
X104660704Y-83526715I49681J-998779D01*
G01*
X113411019Y-72717394D02*
G75*
G03*
X113167014Y-64479729I115731J4125874D01*
G01*
X96151398Y-60074632D02*
X98707175Y-56424605D01*
X74244280Y-67885025D02*
X66988407Y-68519832D01*
X67512597Y-77774998D02*
X67512597Y-91219007D01*
X105911120Y-65114530D02*
G75*
G03*
X101893954Y-58847189I-15473120J-5496670D01*
G01*
X113167014Y-64479729D02*
X105911094Y-65114539D01*
X87403017Y-58910416D02*
X87021515Y-54549830D01*
X91006214Y-54200319D02*
X91387796Y-58561793D01*
X108335635Y-74224453D02*
X113411019Y-72717400D01*
X91936087Y-75812409D02*
G75*
G03*
X91936087Y-75812409I-1043627J0D01*
G01*
X86279842Y-91219007D02*
X98110374Y-90183969D01*
X91387796Y-58561793D02*
X87403017Y-58910416D01*
X79240984Y-58599409D02*
X82594084Y-61412992D01*
X82594084Y-61412992D02*
X80022934Y-64477169D01*
M02*
