%TF.GenerationSoftware,KiCad,Pcbnew,7.0.9*%
%TF.CreationDate,2023-12-03T08:32:59+10:00*%
%TF.ProjectId,BATT-PCB,42415454-2d50-4434-922e-6b696361645f,rev?*%
%TF.SameCoordinates,Original*%
%TF.FileFunction,Legend,Top*%
%TF.FilePolarity,Positive*%
%FSLAX46Y46*%
G04 Gerber Fmt 4.6, Leading zero omitted, Abs format (unit mm)*
G04 Created by KiCad (PCBNEW 7.0.9) date 2023-12-03 08:32:59*
%MOMM*%
%LPD*%
G01*
G04 APERTURE LIST*
%ADD10C,0.200000*%
%ADD11C,0.300000*%
%ADD12C,0.100000*%
%ADD13C,0.150000*%
%ADD14C,0.120000*%
G04 APERTURE END LIST*
D10*
X67750000Y-77500000D02*
X71250000Y-77500000D01*
X71250000Y-80500000D01*
X67750000Y-80500000D01*
X67750000Y-77500000D01*
G36*
X67750000Y-77500000D02*
G01*
X71250000Y-77500000D01*
X71250000Y-80500000D01*
X67750000Y-80500000D01*
X67750000Y-77500000D01*
G37*
D11*
X69928572Y-77178328D02*
X69071429Y-77178328D01*
X69500000Y-77178328D02*
X69500000Y-75678328D01*
X69500000Y-75678328D02*
X69357143Y-75892614D01*
X69357143Y-75892614D02*
X69214286Y-76035471D01*
X69214286Y-76035471D02*
X69071429Y-76106900D01*
D12*
X78238096Y-89323609D02*
X78404762Y-89823609D01*
X78404762Y-89823609D02*
X78571429Y-89323609D01*
X78714286Y-89371228D02*
X78738095Y-89347419D01*
X78738095Y-89347419D02*
X78785714Y-89323609D01*
X78785714Y-89323609D02*
X78904762Y-89323609D01*
X78904762Y-89323609D02*
X78952381Y-89347419D01*
X78952381Y-89347419D02*
X78976190Y-89371228D01*
X78976190Y-89371228D02*
X79000000Y-89418847D01*
X79000000Y-89418847D02*
X79000000Y-89466466D01*
X79000000Y-89466466D02*
X78976190Y-89537895D01*
X78976190Y-89537895D02*
X78690476Y-89823609D01*
X78690476Y-89823609D02*
X79000000Y-89823609D01*
X79214285Y-89775990D02*
X79238095Y-89799800D01*
X79238095Y-89799800D02*
X79214285Y-89823609D01*
X79214285Y-89823609D02*
X79190476Y-89799800D01*
X79190476Y-89799800D02*
X79214285Y-89775990D01*
X79214285Y-89775990D02*
X79214285Y-89823609D01*
X79547618Y-89323609D02*
X79595237Y-89323609D01*
X79595237Y-89323609D02*
X79642856Y-89347419D01*
X79642856Y-89347419D02*
X79666666Y-89371228D01*
X79666666Y-89371228D02*
X79690475Y-89418847D01*
X79690475Y-89418847D02*
X79714285Y-89514085D01*
X79714285Y-89514085D02*
X79714285Y-89633133D01*
X79714285Y-89633133D02*
X79690475Y-89728371D01*
X79690475Y-89728371D02*
X79666666Y-89775990D01*
X79666666Y-89775990D02*
X79642856Y-89799800D01*
X79642856Y-89799800D02*
X79595237Y-89823609D01*
X79595237Y-89823609D02*
X79547618Y-89823609D01*
X79547618Y-89823609D02*
X79499999Y-89799800D01*
X79499999Y-89799800D02*
X79476190Y-89775990D01*
X79476190Y-89775990D02*
X79452380Y-89728371D01*
X79452380Y-89728371D02*
X79428571Y-89633133D01*
X79428571Y-89633133D02*
X79428571Y-89514085D01*
X79428571Y-89514085D02*
X79452380Y-89418847D01*
X79452380Y-89418847D02*
X79476190Y-89371228D01*
X79476190Y-89371228D02*
X79499999Y-89347419D01*
X79499999Y-89347419D02*
X79547618Y-89323609D01*
X76607142Y-90628609D02*
X76607142Y-90128609D01*
X76607142Y-90128609D02*
X76726190Y-90128609D01*
X76726190Y-90128609D02*
X76797618Y-90152419D01*
X76797618Y-90152419D02*
X76845237Y-90200038D01*
X76845237Y-90200038D02*
X76869047Y-90247657D01*
X76869047Y-90247657D02*
X76892856Y-90342895D01*
X76892856Y-90342895D02*
X76892856Y-90414323D01*
X76892856Y-90414323D02*
X76869047Y-90509561D01*
X76869047Y-90509561D02*
X76845237Y-90557180D01*
X76845237Y-90557180D02*
X76797618Y-90604800D01*
X76797618Y-90604800D02*
X76726190Y-90628609D01*
X76726190Y-90628609D02*
X76607142Y-90628609D01*
X77107142Y-90128609D02*
X77107142Y-90533371D01*
X77107142Y-90533371D02*
X77130952Y-90580990D01*
X77130952Y-90580990D02*
X77154761Y-90604800D01*
X77154761Y-90604800D02*
X77202380Y-90628609D01*
X77202380Y-90628609D02*
X77297618Y-90628609D01*
X77297618Y-90628609D02*
X77345237Y-90604800D01*
X77345237Y-90604800D02*
X77369047Y-90580990D01*
X77369047Y-90580990D02*
X77392856Y-90533371D01*
X77392856Y-90533371D02*
X77392856Y-90128609D01*
X77607143Y-90485752D02*
X77845238Y-90485752D01*
X77559524Y-90628609D02*
X77726190Y-90128609D01*
X77726190Y-90128609D02*
X77892857Y-90628609D01*
X78297618Y-90628609D02*
X78059523Y-90628609D01*
X78059523Y-90628609D02*
X78059523Y-90128609D01*
X78845237Y-90628609D02*
X78845237Y-90128609D01*
X78845237Y-90128609D02*
X79130951Y-90628609D01*
X79130951Y-90628609D02*
X79130951Y-90128609D01*
X79369047Y-90366704D02*
X79535714Y-90366704D01*
X79607142Y-90628609D02*
X79369047Y-90628609D01*
X79369047Y-90628609D02*
X79369047Y-90128609D01*
X79369047Y-90128609D02*
X79607142Y-90128609D01*
X79821428Y-90366704D02*
X79988095Y-90366704D01*
X80059523Y-90628609D02*
X79821428Y-90628609D01*
X79821428Y-90628609D02*
X79821428Y-90128609D01*
X79821428Y-90128609D02*
X80059523Y-90128609D01*
X80273809Y-90628609D02*
X80273809Y-90128609D01*
X80273809Y-90128609D02*
X80392857Y-90128609D01*
X80392857Y-90128609D02*
X80464285Y-90152419D01*
X80464285Y-90152419D02*
X80511904Y-90200038D01*
X80511904Y-90200038D02*
X80535714Y-90247657D01*
X80535714Y-90247657D02*
X80559523Y-90342895D01*
X80559523Y-90342895D02*
X80559523Y-90414323D01*
X80559523Y-90414323D02*
X80535714Y-90509561D01*
X80535714Y-90509561D02*
X80511904Y-90557180D01*
X80511904Y-90557180D02*
X80464285Y-90604800D01*
X80464285Y-90604800D02*
X80392857Y-90628609D01*
X80392857Y-90628609D02*
X80273809Y-90628609D01*
X81011904Y-90628609D02*
X80773809Y-90628609D01*
X80773809Y-90628609D02*
X80773809Y-90128609D01*
X81178571Y-90366704D02*
X81345238Y-90366704D01*
X81416666Y-90628609D02*
X81178571Y-90628609D01*
X81178571Y-90628609D02*
X81178571Y-90128609D01*
X81178571Y-90128609D02*
X81416666Y-90128609D01*
D11*
X84107143Y-78470828D02*
X85107143Y-79970828D01*
X85107143Y-78470828D02*
X84107143Y-79970828D01*
X85607143Y-78613685D02*
X85678571Y-78542257D01*
X85678571Y-78542257D02*
X85821429Y-78470828D01*
X85821429Y-78470828D02*
X86178571Y-78470828D01*
X86178571Y-78470828D02*
X86321429Y-78542257D01*
X86321429Y-78542257D02*
X86392857Y-78613685D01*
X86392857Y-78613685D02*
X86464286Y-78756542D01*
X86464286Y-78756542D02*
X86464286Y-78899400D01*
X86464286Y-78899400D02*
X86392857Y-79113685D01*
X86392857Y-79113685D02*
X85535714Y-79970828D01*
X85535714Y-79970828D02*
X86464286Y-79970828D01*
X86964285Y-78470828D02*
X87964285Y-78470828D01*
X87964285Y-78470828D02*
X87321428Y-79970828D01*
X89607142Y-79899400D02*
X89821428Y-79970828D01*
X89821428Y-79970828D02*
X90178570Y-79970828D01*
X90178570Y-79970828D02*
X90321428Y-79899400D01*
X90321428Y-79899400D02*
X90392856Y-79827971D01*
X90392856Y-79827971D02*
X90464285Y-79685114D01*
X90464285Y-79685114D02*
X90464285Y-79542257D01*
X90464285Y-79542257D02*
X90392856Y-79399400D01*
X90392856Y-79399400D02*
X90321428Y-79327971D01*
X90321428Y-79327971D02*
X90178570Y-79256542D01*
X90178570Y-79256542D02*
X89892856Y-79185114D01*
X89892856Y-79185114D02*
X89749999Y-79113685D01*
X89749999Y-79113685D02*
X89678570Y-79042257D01*
X89678570Y-79042257D02*
X89607142Y-78899400D01*
X89607142Y-78899400D02*
X89607142Y-78756542D01*
X89607142Y-78756542D02*
X89678570Y-78613685D01*
X89678570Y-78613685D02*
X89749999Y-78542257D01*
X89749999Y-78542257D02*
X89892856Y-78470828D01*
X89892856Y-78470828D02*
X90249999Y-78470828D01*
X90249999Y-78470828D02*
X90464285Y-78542257D01*
X90892856Y-78470828D02*
X91749999Y-78470828D01*
X91321427Y-79970828D02*
X91321427Y-78470828D01*
X92249998Y-79185114D02*
X92749998Y-79185114D01*
X92964284Y-79970828D02*
X92249998Y-79970828D01*
X92249998Y-79970828D02*
X92249998Y-78470828D01*
X92249998Y-78470828D02*
X92964284Y-78470828D01*
X93607141Y-79970828D02*
X93607141Y-78470828D01*
X93607141Y-78470828D02*
X94178570Y-78470828D01*
X94178570Y-78470828D02*
X94321427Y-78542257D01*
X94321427Y-78542257D02*
X94392856Y-78613685D01*
X94392856Y-78613685D02*
X94464284Y-78756542D01*
X94464284Y-78756542D02*
X94464284Y-78970828D01*
X94464284Y-78970828D02*
X94392856Y-79113685D01*
X94392856Y-79113685D02*
X94321427Y-79185114D01*
X94321427Y-79185114D02*
X94178570Y-79256542D01*
X94178570Y-79256542D02*
X93607141Y-79256542D01*
X95107141Y-79970828D02*
X95107141Y-78470828D01*
X95107141Y-78470828D02*
X95678570Y-78470828D01*
X95678570Y-78470828D02*
X95821427Y-78542257D01*
X95821427Y-78542257D02*
X95892856Y-78613685D01*
X95892856Y-78613685D02*
X95964284Y-78756542D01*
X95964284Y-78756542D02*
X95964284Y-78970828D01*
X95964284Y-78970828D02*
X95892856Y-79113685D01*
X95892856Y-79113685D02*
X95821427Y-79185114D01*
X95821427Y-79185114D02*
X95678570Y-79256542D01*
X95678570Y-79256542D02*
X95107141Y-79256542D01*
X96607141Y-79185114D02*
X97107141Y-79185114D01*
X97321427Y-79970828D02*
X96607141Y-79970828D01*
X96607141Y-79970828D02*
X96607141Y-78470828D01*
X96607141Y-78470828D02*
X97321427Y-78470828D01*
X98821427Y-79970828D02*
X98321427Y-79256542D01*
X97964284Y-79970828D02*
X97964284Y-78470828D01*
X97964284Y-78470828D02*
X98535713Y-78470828D01*
X98535713Y-78470828D02*
X98678570Y-78542257D01*
X98678570Y-78542257D02*
X98749999Y-78613685D01*
X98749999Y-78613685D02*
X98821427Y-78756542D01*
X98821427Y-78756542D02*
X98821427Y-78970828D01*
X98821427Y-78970828D02*
X98749999Y-79113685D01*
X98749999Y-79113685D02*
X98678570Y-79185114D01*
X98678570Y-79185114D02*
X98535713Y-79256542D01*
X98535713Y-79256542D02*
X97964284Y-79256542D01*
X81999999Y-82385828D02*
X81999999Y-80885828D01*
X81999999Y-80885828D02*
X82499999Y-81957257D01*
X82499999Y-81957257D02*
X82999999Y-80885828D01*
X82999999Y-80885828D02*
X82999999Y-82385828D01*
X84000000Y-80885828D02*
X84285714Y-80885828D01*
X84285714Y-80885828D02*
X84428571Y-80957257D01*
X84428571Y-80957257D02*
X84571428Y-81100114D01*
X84571428Y-81100114D02*
X84642857Y-81385828D01*
X84642857Y-81385828D02*
X84642857Y-81885828D01*
X84642857Y-81885828D02*
X84571428Y-82171542D01*
X84571428Y-82171542D02*
X84428571Y-82314400D01*
X84428571Y-82314400D02*
X84285714Y-82385828D01*
X84285714Y-82385828D02*
X84000000Y-82385828D01*
X84000000Y-82385828D02*
X83857143Y-82314400D01*
X83857143Y-82314400D02*
X83714285Y-82171542D01*
X83714285Y-82171542D02*
X83642857Y-81885828D01*
X83642857Y-81885828D02*
X83642857Y-81385828D01*
X83642857Y-81385828D02*
X83714285Y-81100114D01*
X83714285Y-81100114D02*
X83857143Y-80957257D01*
X83857143Y-80957257D02*
X84000000Y-80885828D01*
X85285714Y-80885828D02*
X85285714Y-82100114D01*
X85285714Y-82100114D02*
X85357143Y-82242971D01*
X85357143Y-82242971D02*
X85428572Y-82314400D01*
X85428572Y-82314400D02*
X85571429Y-82385828D01*
X85571429Y-82385828D02*
X85857143Y-82385828D01*
X85857143Y-82385828D02*
X86000000Y-82314400D01*
X86000000Y-82314400D02*
X86071429Y-82242971D01*
X86071429Y-82242971D02*
X86142857Y-82100114D01*
X86142857Y-82100114D02*
X86142857Y-80885828D01*
X86857143Y-82385828D02*
X86857143Y-80885828D01*
X86857143Y-80885828D02*
X87714286Y-82385828D01*
X87714286Y-82385828D02*
X87714286Y-80885828D01*
X88214287Y-80885828D02*
X89071430Y-80885828D01*
X88642858Y-82385828D02*
X88642858Y-80885828D01*
X90500001Y-80885828D02*
X91357144Y-80885828D01*
X90928572Y-82385828D02*
X90928572Y-80885828D01*
X91857143Y-82385828D02*
X91857143Y-80885828D01*
X91857143Y-81600114D02*
X92714286Y-81600114D01*
X92714286Y-82385828D02*
X92714286Y-80885828D01*
X93428572Y-82385828D02*
X93428572Y-80885828D01*
X94071430Y-82314400D02*
X94285716Y-82385828D01*
X94285716Y-82385828D02*
X94642858Y-82385828D01*
X94642858Y-82385828D02*
X94785716Y-82314400D01*
X94785716Y-82314400D02*
X94857144Y-82242971D01*
X94857144Y-82242971D02*
X94928573Y-82100114D01*
X94928573Y-82100114D02*
X94928573Y-81957257D01*
X94928573Y-81957257D02*
X94857144Y-81814400D01*
X94857144Y-81814400D02*
X94785716Y-81742971D01*
X94785716Y-81742971D02*
X94642858Y-81671542D01*
X94642858Y-81671542D02*
X94357144Y-81600114D01*
X94357144Y-81600114D02*
X94214287Y-81528685D01*
X94214287Y-81528685D02*
X94142858Y-81457257D01*
X94142858Y-81457257D02*
X94071430Y-81314400D01*
X94071430Y-81314400D02*
X94071430Y-81171542D01*
X94071430Y-81171542D02*
X94142858Y-81028685D01*
X94142858Y-81028685D02*
X94214287Y-80957257D01*
X94214287Y-80957257D02*
X94357144Y-80885828D01*
X94357144Y-80885828D02*
X94714287Y-80885828D01*
X94714287Y-80885828D02*
X94928573Y-80957257D01*
X96642858Y-82314400D02*
X96857144Y-82385828D01*
X96857144Y-82385828D02*
X97214286Y-82385828D01*
X97214286Y-82385828D02*
X97357144Y-82314400D01*
X97357144Y-82314400D02*
X97428572Y-82242971D01*
X97428572Y-82242971D02*
X97500001Y-82100114D01*
X97500001Y-82100114D02*
X97500001Y-81957257D01*
X97500001Y-81957257D02*
X97428572Y-81814400D01*
X97428572Y-81814400D02*
X97357144Y-81742971D01*
X97357144Y-81742971D02*
X97214286Y-81671542D01*
X97214286Y-81671542D02*
X96928572Y-81600114D01*
X96928572Y-81600114D02*
X96785715Y-81528685D01*
X96785715Y-81528685D02*
X96714286Y-81457257D01*
X96714286Y-81457257D02*
X96642858Y-81314400D01*
X96642858Y-81314400D02*
X96642858Y-81171542D01*
X96642858Y-81171542D02*
X96714286Y-81028685D01*
X96714286Y-81028685D02*
X96785715Y-80957257D01*
X96785715Y-80957257D02*
X96928572Y-80885828D01*
X96928572Y-80885828D02*
X97285715Y-80885828D01*
X97285715Y-80885828D02*
X97500001Y-80957257D01*
X98142857Y-82385828D02*
X98142857Y-80885828D01*
X98857143Y-82385828D02*
X98857143Y-80885828D01*
X98857143Y-80885828D02*
X99214286Y-80885828D01*
X99214286Y-80885828D02*
X99428572Y-80957257D01*
X99428572Y-80957257D02*
X99571429Y-81100114D01*
X99571429Y-81100114D02*
X99642858Y-81242971D01*
X99642858Y-81242971D02*
X99714286Y-81528685D01*
X99714286Y-81528685D02*
X99714286Y-81742971D01*
X99714286Y-81742971D02*
X99642858Y-82028685D01*
X99642858Y-82028685D02*
X99571429Y-82171542D01*
X99571429Y-82171542D02*
X99428572Y-82314400D01*
X99428572Y-82314400D02*
X99214286Y-82385828D01*
X99214286Y-82385828D02*
X98857143Y-82385828D01*
X100357143Y-81600114D02*
X100857143Y-81600114D01*
X101071429Y-82385828D02*
X100357143Y-82385828D01*
X100357143Y-82385828D02*
X100357143Y-80885828D01*
X100357143Y-80885828D02*
X101071429Y-80885828D01*
D13*
X75454819Y-87706666D02*
X74978628Y-88039999D01*
X75454819Y-88278094D02*
X74454819Y-88278094D01*
X74454819Y-88278094D02*
X74454819Y-87897142D01*
X74454819Y-87897142D02*
X74502438Y-87801904D01*
X74502438Y-87801904D02*
X74550057Y-87754285D01*
X74550057Y-87754285D02*
X74645295Y-87706666D01*
X74645295Y-87706666D02*
X74788152Y-87706666D01*
X74788152Y-87706666D02*
X74883390Y-87754285D01*
X74883390Y-87754285D02*
X74931009Y-87801904D01*
X74931009Y-87801904D02*
X74978628Y-87897142D01*
X74978628Y-87897142D02*
X74978628Y-88278094D01*
X75454819Y-86754285D02*
X75454819Y-87325713D01*
X75454819Y-87039999D02*
X74454819Y-87039999D01*
X74454819Y-87039999D02*
X74597676Y-87135237D01*
X74597676Y-87135237D02*
X74692914Y-87230475D01*
X74692914Y-87230475D02*
X74740533Y-87325713D01*
X81485827Y-59101858D02*
X80719782Y-58459070D01*
X80719782Y-58459070D02*
X80872827Y-58276679D01*
X80872827Y-58276679D02*
X81001132Y-58197853D01*
X81001132Y-58197853D02*
X81135307Y-58186114D01*
X81135307Y-58186114D02*
X81238872Y-58210854D01*
X81238872Y-58210854D02*
X81415394Y-58296811D01*
X81415394Y-58296811D02*
X81524829Y-58388638D01*
X81524829Y-58388638D02*
X81640134Y-58547552D01*
X81640134Y-58547552D02*
X81682481Y-58645248D01*
X81682481Y-58645248D02*
X81694220Y-58779423D01*
X81694220Y-58779423D02*
X81638872Y-58919466D01*
X81638872Y-58919466D02*
X81485827Y-59101858D01*
X81301352Y-57765983D02*
X81699268Y-57291765D01*
X81699268Y-57291765D02*
X81776832Y-57791984D01*
X81776832Y-57791984D02*
X81868659Y-57682549D01*
X81868659Y-57682549D02*
X81966355Y-57640202D01*
X81966355Y-57640202D02*
X82033443Y-57634332D01*
X82033443Y-57634332D02*
X82137008Y-57659072D01*
X82137008Y-57659072D02*
X82319400Y-57812116D01*
X82319400Y-57812116D02*
X82361747Y-57909813D01*
X82361747Y-57909813D02*
X82367617Y-57976900D01*
X82367617Y-57976900D02*
X82342877Y-58080465D01*
X82342877Y-58080465D02*
X82159223Y-58299335D01*
X82159223Y-58299335D02*
X82061527Y-58341683D01*
X82061527Y-58341683D02*
X81994440Y-58347552D01*
X91778987Y-55972113D02*
X91691831Y-54975918D01*
X91691831Y-54975918D02*
X91929020Y-54955167D01*
X91929020Y-54955167D02*
X92075484Y-54990154D01*
X92075484Y-54990154D02*
X92178660Y-55076729D01*
X92178660Y-55076729D02*
X92234398Y-55167455D01*
X92234398Y-55167455D02*
X92298437Y-55353056D01*
X92298437Y-55353056D02*
X92310888Y-55495369D01*
X92310888Y-55495369D02*
X92280051Y-55689271D01*
X92280051Y-55689271D02*
X92240914Y-55788297D01*
X92240914Y-55788297D02*
X92154339Y-55891473D01*
X92154339Y-55891473D02*
X92016176Y-55951362D01*
X92016176Y-55951362D02*
X91778987Y-55972113D01*
X92648888Y-54987789D02*
X92692176Y-54936200D01*
X92692176Y-54936200D02*
X92782901Y-54880462D01*
X92782901Y-54880462D02*
X93020090Y-54859711D01*
X93020090Y-54859711D02*
X93119116Y-54898848D01*
X93119116Y-54898848D02*
X93170704Y-54942136D01*
X93170704Y-54942136D02*
X93226443Y-55032861D01*
X93226443Y-55032861D02*
X93234743Y-55127737D01*
X93234743Y-55127737D02*
X93199756Y-55274200D01*
X93199756Y-55274200D02*
X92680306Y-55893258D01*
X92680306Y-55893258D02*
X93296997Y-55839304D01*
X101284514Y-60449212D02*
X101858091Y-59630060D01*
X101858091Y-59630060D02*
X102053127Y-59766625D01*
X102053127Y-59766625D02*
X102142835Y-59887572D01*
X102142835Y-59887572D02*
X102166224Y-60020213D01*
X102166224Y-60020213D02*
X102150604Y-60125541D01*
X102150604Y-60125541D02*
X102080359Y-60308883D01*
X102080359Y-60308883D02*
X101998420Y-60425904D01*
X101998420Y-60425904D02*
X101850160Y-60554620D01*
X101850160Y-60554620D02*
X101756526Y-60605322D01*
X101756526Y-60605322D02*
X101623885Y-60628710D01*
X101623885Y-60628710D02*
X101479550Y-60585778D01*
X101479550Y-60585778D02*
X101284514Y-60449212D01*
X102532746Y-61323233D02*
X102064659Y-60995475D01*
X102298702Y-61159354D02*
X102872279Y-60340202D01*
X102872279Y-60340202D02*
X102712325Y-60402597D01*
X102712325Y-60402597D02*
X102579684Y-60425985D01*
X102579684Y-60425985D02*
X102474356Y-60410366D01*
X74466666Y-80529819D02*
X74466666Y-81244104D01*
X74466666Y-81244104D02*
X74419047Y-81386961D01*
X74419047Y-81386961D02*
X74323809Y-81482200D01*
X74323809Y-81482200D02*
X74180952Y-81529819D01*
X74180952Y-81529819D02*
X74085714Y-81529819D01*
X75466666Y-81529819D02*
X74895238Y-81529819D01*
X75180952Y-81529819D02*
X75180952Y-80529819D01*
X75180952Y-80529819D02*
X75085714Y-80672676D01*
X75085714Y-80672676D02*
X74990476Y-80767914D01*
X74990476Y-80767914D02*
X74895238Y-80815533D01*
D14*
%TO.C,R1*%
X75920000Y-85620000D02*
X75920000Y-89460000D01*
X74080000Y-85620000D02*
X74080000Y-89460000D01*
%TO.C,D3*%
X80159061Y-64148467D02*
X80278564Y-64248742D01*
X81933220Y-65637164D02*
X82052723Y-65737438D01*
X81950663Y-62256266D02*
G75*
G03*
X80612195Y-63851135I157977J-1491658D01*
G01*
X82052352Y-65737128D02*
G75*
G03*
X84009858Y-63160156I56288J1989204D01*
G01*
X82357335Y-61773525D02*
G75*
G03*
X80159431Y-64148779I-248695J-1974399D01*
G01*
X82266851Y-65239557D02*
G75*
G03*
X83605069Y-63644478I-158211J1491633D01*
G01*
%TO.C,D2*%
X87983279Y-58780079D02*
X87996875Y-58935485D01*
X88185132Y-61087265D02*
X88198728Y-61242672D01*
X88702196Y-61042028D02*
G75*
G03*
X90776349Y-60860400I942871J1166616D01*
G01*
X90588121Y-58708944D02*
G75*
G03*
X88513939Y-58890248I-943054J-1166468D01*
G01*
X88198687Y-61242189D02*
G75*
G03*
X91405044Y-60804162I1446380J1366777D01*
G01*
X91217031Y-58655156D02*
G75*
G03*
X87983322Y-58780561I-1571964J-1220256D01*
G01*
%TO.C,D1*%
X96621386Y-60321191D02*
X96531908Y-60448979D01*
X95292983Y-62218347D02*
X95203505Y-62346135D01*
X95203783Y-62345738D02*
G75*
G03*
X97941556Y-64071198I1986540J117296D01*
G01*
X95718156Y-62516056D02*
G75*
G03*
X97423798Y-63710159I1472167J287614D01*
G01*
X98662536Y-61941059D02*
G75*
G03*
X96957080Y-60746687I-1472213J-287383D01*
G01*
X99178884Y-62304110D02*
G75*
G03*
X96621109Y-60321587I-1988561J75668D01*
G01*
%TO.C,J1*%
X68170000Y-78170000D02*
X69500000Y-78170000D01*
X70770000Y-78170000D02*
X73370000Y-78170000D01*
X68170000Y-79500000D02*
X68170000Y-78170000D01*
X68170000Y-80770000D02*
X70770000Y-80770000D01*
X73370000Y-78170000D02*
X73370000Y-90990000D01*
X68170000Y-90990000D02*
X73370000Y-90990000D01*
X68170000Y-80770000D02*
X68170000Y-90990000D01*
X70770000Y-80770000D02*
X70770000Y-78170000D01*
D13*
%TO.C,U1*%
X78140733Y-85449258D02*
G75*
G03*
X105310250Y-82877046I12859267J8949258D01*
G01*
X75870163Y-72592567D02*
G75*
G03*
X76817863Y-83061021I15129837J-3907433D01*
G01*
X103885864Y-67743602D02*
G75*
G03*
X76789369Y-70114238I-12885864J-8756397D01*
G01*
X106129837Y-80407433D02*
G75*
G03*
X105182136Y-69938979I-15129832J3907433D01*
G01*
%TD*%
M02*
