  0
SECTION
  2
HEADER
  9
$ANGBASE
  50
0.0
  9
$ANGDIR
  70
1
  9
$MEASUREMENT
  70
1
  0
ENDSEC
  0
SECTION
  2
TABLES
  0
TABLE
  2
LTYPE
  70
4
  0
LTYPE
  5
40F
  2
CONTINUOUS
  70
0
  3
Solid line
  72
65
  73
0
  40
0.0
  0
LTYPE
  5
410
  2
DASHDOT
 70
0
  3
Dash Dot ____ _ ____ _
 72
65
 73
4
 40
2.0
 49
1.25
 49
-0.25
 49
0.25
 49
-0.25
  0
LTYPE
  5
411
  2
DASHED
 70
0
  3
Dashed __ __ __ __ __
 72
65
 73
2
 40
0.75
 49
0.5
 49
-0.25
  0
LTYPE
  5
43B
  2
DOTTED
 70
0
  3
Dotted .  .  .  .
 72
65
 73
2
 40
0.2
 49
0.0
 49
-0.2
  0
ENDTAB
  0
TABLE
  2
STYLE
  70
4
  0
STYLE
  2
KICAD
  70
0
  40
0
  41
1
  42
1
  50
0
  71
0
  3
isocp.shx
  0
STYLE
  2
KICADB
  70
0
  40
0
  41
1
  42
1
  50
0
  71
0
  3
isocp.shx
  0
STYLE
  2
KICADI
  70
0
  40
0
  41
1
  42
1
  50
15
  71
0
  3
isocp.shx
  0
STYLE
  2
KICADBI
  70
0
  40
0
  41
1
  42
1
  50
15
  71
0
  3
isocp.shx
  0
ENDTAB
  0
TABLE
  2
LAYER
  70
1
  0
LAYER
  2
BLACK
  70
0
  62
7
  6
CONTINUOUS
  0
ENDTAB
  0
ENDSEC
  0
SECTION
  2
ENTITIES
0
LINE
8
BLACK
6
CONTINUOUS
10
113.03
20
-142.24
11
113.03
21
-44.45
0
LINE
8
BLACK
6
CONTINUOUS
10
210.82
20
-142.24
11
113.03
21
-142.24
0
LINE
8
BLACK
6
CONTINUOUS
10
210.82
20
-44.45
11
210.82
21
-142.24
0
LINE
8
BLACK
6
CONTINUOUS
10
113.03
20
-44.45
11
210.82
21
-44.45
0
LINE
8
BLACK
6
CONTINUOUS
10
128.624
20
-112.144
11
129.023
21
-112.544
0
LINE
8
BLACK
6
CONTINUOUS
10
129.023
20
-112.144
11
128.624
21
-112.544
0
LINE
8
BLACK
6
CONTINUOUS
10
172.416
20
-61.522
11
172.816
21
-61.922
0
LINE
8
BLACK
6
CONTINUOUS
10
172.816
20
-61.522
11
172.416
21
-61.922
0
CIRCLE
8
BLACK
10
127.127
20
-101.981
40
0.4
0
CIRCLE
8
BLACK
10
132.207
20
-101.981
40
0.4
0
CIRCLE
8
BLACK
10
200.914
20
-54.864
40
0.4
0
CIRCLE
8
BLACK
10
200.914
20
-57.404
40
0.4
0
CIRCLE
8
BLACK
10
200.914
20
-59.944
40
0.4
0
CIRCLE
8
BLACK
10
200.914
20
-62.484
40
0.4
0
CIRCLE
8
BLACK
10
200.914
20
-65.024
40
0.4
0
CIRCLE
8
BLACK
10
200.914
20
-67.564
40
0.4
0
CIRCLE
8
BLACK
10
200.914
20
-70.104
40
0.4
0
CIRCLE
8
BLACK
10
200.914
20
-72.644
40
0.4
0
CIRCLE
8
BLACK
10
200.914
20
-75.184
40
0.4
0
CIRCLE
8
BLACK
10
200.914
20
-77.724
40
0.4
0
CIRCLE
8
BLACK
10
200.914
20
-80.264
40
0.4
0
CIRCLE
8
BLACK
10
200.914
20
-82.804
40
0.4
0
CIRCLE
8
BLACK
10
208.534
20
-54.864
40
0.4
0
CIRCLE
8
BLACK
10
208.534
20
-57.404
40
0.4
0
CIRCLE
8
BLACK
10
208.534
20
-59.944
40
0.4
0
CIRCLE
8
BLACK
10
208.534
20
-62.484
40
0.4
0
CIRCLE
8
BLACK
10
208.534
20
-65.024
40
0.4
0
CIRCLE
8
BLACK
10
208.534
20
-67.564
40
0.4
0
CIRCLE
8
BLACK
10
208.534
20
-70.104
40
0.4
0
CIRCLE
8
BLACK
10
208.534
20
-72.644
40
0.4
0
CIRCLE
8
BLACK
10
208.534
20
-75.184
40
0.4
0
CIRCLE
8
BLACK
10
208.534
20
-77.724
40
0.4
0
CIRCLE
8
BLACK
10
208.534
20
-80.264
40
0.4
0
CIRCLE
8
BLACK
10
208.534
20
-82.804
40
0.4
0
CIRCLE
8
BLACK
10
157.861
20
-92.964
40
0.4
0
CIRCLE
8
BLACK
10
162.861
20
-92.964
40
0.4
0
CIRCLE
8
BLACK
10
188.214
20
-90.297
40
0.4
0
CIRCLE
8
BLACK
10
193.294
20
-90.297
40
0.4
0
CIRCLE
8
BLACK
10
155.575
20
-132.207
40
0.4
0
CIRCLE
8
BLACK
10
160.655
20
-132.207
40
0.4
0
CIRCLE
8
BLACK
10
126.238
20
-107.696
40
0.4
0
CIRCLE
8
BLACK
10
126.238
20
-110.236
40
0.4
0
CIRCLE
8
BLACK
10
126.238
20
-112.776
40
0.4
0
CIRCLE
8
BLACK
10
126.238
20
-115.316
40
0.4
0
CIRCLE
8
BLACK
10
126.238
20
-117.856
40
0.4
0
CIRCLE
8
BLACK
10
126.238
20
-120.396
40
0.4
0
CIRCLE
8
BLACK
10
126.238
20
-122.936
40
0.4
0
CIRCLE
8
BLACK
10
126.238
20
-125.476
40
0.4
0
CIRCLE
8
BLACK
10
126.238
20
-128.016
40
0.4
0
CIRCLE
8
BLACK
10
126.238
20
-130.556
40
0.4
0
CIRCLE
8
BLACK
10
126.238
20
-133.096
40
0.4
0
CIRCLE
8
BLACK
10
126.238
20
-135.636
40
0.4
0
CIRCLE
8
BLACK
10
133.858
20
-107.696
40
0.4
0
CIRCLE
8
BLACK
10
133.858
20
-110.236
40
0.4
0
CIRCLE
8
BLACK
10
133.858
20
-112.776
40
0.4
0
CIRCLE
8
BLACK
10
133.858
20
-115.316
40
0.4
0
CIRCLE
8
BLACK
10
133.858
20
-117.856
40
0.4
0
CIRCLE
8
BLACK
10
133.858
20
-120.396
40
0.4
0
CIRCLE
8
BLACK
10
133.858
20
-122.936
40
0.4
0
CIRCLE
8
BLACK
10
133.858
20
-125.476
40
0.4
0
CIRCLE
8
BLACK
10
133.858
20
-128.016
40
0.4
0
CIRCLE
8
BLACK
10
133.858
20
-130.556
40
0.4
0
CIRCLE
8
BLACK
10
133.858
20
-133.096
40
0.4
0
CIRCLE
8
BLACK
10
133.858
20
-135.636
40
0.4
0
CIRCLE
8
BLACK
10
115.697
20
-102.108
40
0.4
0
CIRCLE
8
BLACK
10
120.697
20
-102.108
40
0.4
0
CIRCLE
8
BLACK
10
128.778
20
-67.437
40
0.4
0
CIRCLE
8
BLACK
10
128.778
20
-69.977
40
0.4
0
CIRCLE
8
BLACK
10
128.778
20
-72.517
40
0.4
0
CIRCLE
8
BLACK
10
128.778
20
-75.057
40
0.4
0
CIRCLE
8
BLACK
10
128.778
20
-77.597
40
0.4
0
CIRCLE
8
BLACK
10
128.778
20
-80.137
40
0.4
0
CIRCLE
8
BLACK
10
128.778
20
-82.677
40
0.4
0
CIRCLE
8
BLACK
10
128.778
20
-85.217
40
0.4
0
CIRCLE
8
BLACK
10
128.778
20
-87.757
40
0.4
0
CIRCLE
8
BLACK
10
128.778
20
-90.297
40
0.4
0
CIRCLE
8
BLACK
10
128.778
20
-92.837
40
0.4
0
CIRCLE
8
BLACK
10
128.778
20
-95.377
40
0.4
0
CIRCLE
8
BLACK
10
136.398
20
-67.437
40
0.4
0
CIRCLE
8
BLACK
10
136.398
20
-69.977
40
0.4
0
CIRCLE
8
BLACK
10
136.398
20
-72.517
40
0.4
0
CIRCLE
8
BLACK
10
136.398
20
-75.057
40
0.4
0
CIRCLE
8
BLACK
10
136.398
20
-77.597
40
0.4
0
CIRCLE
8
BLACK
10
136.398
20
-80.137
40
0.4
0
CIRCLE
8
BLACK
10
136.398
20
-82.677
40
0.4
0
CIRCLE
8
BLACK
10
136.398
20
-85.217
40
0.4
0
CIRCLE
8
BLACK
10
136.398
20
-87.757
40
0.4
0
CIRCLE
8
BLACK
10
136.398
20
-90.297
40
0.4
0
CIRCLE
8
BLACK
10
136.398
20
-92.837
40
0.4
0
CIRCLE
8
BLACK
10
136.398
20
-95.377
40
0.4
0
CIRCLE
8
BLACK
10
168.402
20
-47.879
40
0.4
0
CIRCLE
8
BLACK
10
168.402
20
-50.419
40
0.4
0
CIRCLE
8
BLACK
10
168.402
20
-52.959
40
0.4
0
CIRCLE
8
BLACK
10
168.402
20
-55.499
40
0.4
0
CIRCLE
8
BLACK
10
168.402
20
-58.039
40
0.4
0
CIRCLE
8
BLACK
10
168.402
20
-60.579
40
0.4
0
CIRCLE
8
BLACK
10
168.402
20
-63.119
40
0.4
0
CIRCLE
8
BLACK
10
168.402
20
-65.659
40
0.4
0
CIRCLE
8
BLACK
10
168.402
20
-68.199
40
0.4
0
CIRCLE
8
BLACK
10
168.402
20
-70.739
40
0.4
0
CIRCLE
8
BLACK
10
168.402
20
-73.279
40
0.4
0
CIRCLE
8
BLACK
10
168.402
20
-75.819
40
0.4
0
CIRCLE
8
BLACK
10
176.022
20
-47.879
40
0.4
0
CIRCLE
8
BLACK
10
176.022
20
-50.419
40
0.4
0
CIRCLE
8
BLACK
10
176.022
20
-52.959
40
0.4
0
CIRCLE
8
BLACK
10
176.022
20
-55.499
40
0.4
0
CIRCLE
8
BLACK
10
176.022
20
-58.039
40
0.4
0
CIRCLE
8
BLACK
10
176.022
20
-60.579
40
0.4
0
CIRCLE
8
BLACK
10
176.022
20
-63.119
40
0.4
0
CIRCLE
8
BLACK
10
176.022
20
-65.659
40
0.4
0
CIRCLE
8
BLACK
10
176.022
20
-68.199
40
0.4
0
CIRCLE
8
BLACK
10
176.022
20
-70.739
40
0.4
0
CIRCLE
8
BLACK
10
176.022
20
-73.279
40
0.4
0
CIRCLE
8
BLACK
10
176.022
20
-75.819
40
0.4
0
CIRCLE
8
BLACK
10
182.818
20
-94.669
40
0.4
0
CIRCLE
8
BLACK
10
182.818
20
-97.209
40
0.4
0
CIRCLE
8
BLACK
10
182.818
20
-99.749
40
0.4
0
CIRCLE
8
BLACK
10
182.818
20
-102.289
40
0.4
0
CIRCLE
8
BLACK
10
182.818
20
-104.829
40
0.4
0
CIRCLE
8
BLACK
10
182.818
20
-107.369
40
0.4
0
CIRCLE
8
BLACK
10
182.818
20
-109.909
40
0.4
0
CIRCLE
8
BLACK
10
182.818
20
-112.449
40
0.4
0
CIRCLE
8
BLACK
10
182.818
20
-114.989
40
0.4
0
CIRCLE
8
BLACK
10
182.818
20
-117.529
40
0.4
0
CIRCLE
8
BLACK
10
182.818
20
-120.069
40
0.4
0
CIRCLE
8
BLACK
10
182.818
20
-122.609
40
0.4
0
CIRCLE
8
BLACK
10
190.438
20
-94.669
40
0.4
0
CIRCLE
8
BLACK
10
190.438
20
-97.209
40
0.4
0
CIRCLE
8
BLACK
10
190.438
20
-99.749
40
0.4
0
CIRCLE
8
BLACK
10
190.438
20
-102.289
40
0.4
0
CIRCLE
8
BLACK
10
190.438
20
-104.829
40
0.4
0
CIRCLE
8
BLACK
10
190.438
20
-107.369
40
0.4
0
CIRCLE
8
BLACK
10
190.438
20
-109.909
40
0.4
0
CIRCLE
8
BLACK
10
190.438
20
-112.449
40
0.4
0
CIRCLE
8
BLACK
10
190.438
20
-114.989
40
0.4
0
CIRCLE
8
BLACK
10
190.438
20
-117.529
40
0.4
0
CIRCLE
8
BLACK
10
190.438
20
-120.069
40
0.4
0
CIRCLE
8
BLACK
10
190.438
20
-122.609
40
0.4
0
CIRCLE
8
BLACK
10
170.053
20
-81.153
40
0.4
0
CIRCLE
8
BLACK
10
175.133
20
-81.153
40
0.4
0
CIRCLE
8
BLACK
10
196.85
20
-46.99
40
0.4
0
CIRCLE
8
BLACK
10
201.93
20
-46.99
40
0.4
0
CIRCLE
8
BLACK
10
154.178
20
-98.933
40
0.4
0
CIRCLE
8
BLACK
10
154.178
20
-101.473
40
0.4
0
CIRCLE
8
BLACK
10
154.178
20
-104.013
40
0.4
0
CIRCLE
8
BLACK
10
154.178
20
-106.553
40
0.4
0
CIRCLE
8
BLACK
10
154.178
20
-109.093
40
0.4
0
CIRCLE
8
BLACK
10
154.178
20
-111.633
40
0.4
0
CIRCLE
8
BLACK
10
154.178
20
-114.173
40
0.4
0
CIRCLE
8
BLACK
10
154.178
20
-116.713
40
0.4
0
CIRCLE
8
BLACK
10
154.178
20
-119.253
40
0.4
0
CIRCLE
8
BLACK
10
154.178
20
-121.793
40
0.4
0
CIRCLE
8
BLACK
10
154.178
20
-124.333
40
0.4
0
CIRCLE
8
BLACK
10
154.178
20
-126.873
40
0.4
0
CIRCLE
8
BLACK
10
161.798
20
-98.933
40
0.4
0
CIRCLE
8
BLACK
10
161.798
20
-101.473
40
0.4
0
CIRCLE
8
BLACK
10
161.798
20
-104.013
40
0.4
0
CIRCLE
8
BLACK
10
161.798
20
-106.553
40
0.4
0
CIRCLE
8
BLACK
10
161.798
20
-109.093
40
0.4
0
CIRCLE
8
BLACK
10
161.798
20
-111.633
40
0.4
0
CIRCLE
8
BLACK
10
161.798
20
-114.173
40
0.4
0
CIRCLE
8
BLACK
10
161.798
20
-116.713
40
0.4
0
CIRCLE
8
BLACK
10
161.798
20
-119.253
40
0.4
0
CIRCLE
8
BLACK
10
161.798
20
-121.793
40
0.4
0
CIRCLE
8
BLACK
10
161.798
20
-124.333
40
0.4
0
CIRCLE
8
BLACK
10
161.798
20
-126.873
40
0.4
0
CIRCLE
8
BLACK
10
116.268
20
-109.474
40
0.4
0
CIRCLE
8
BLACK
10
121.348
20
-109.474
40
0.4
0
CIRCLE
8
BLACK
10
131.191
20
-53.467
40
0.4
0
CIRCLE
8
BLACK
10
136.191
20
-53.467
40
0.4
0
LINE
8
BLACK
6
CONTINUOUS
10
206.961
20
-111.704
11
206.961
21
-112.704
0
LINE
8
BLACK
6
CONTINUOUS
10
206.461
20
-112.204
11
207.461
21
-112.204
0
LINE
8
BLACK
6
CONTINUOUS
10
206.961
20
-114.244
11
206.961
21
-115.244
0
LINE
8
BLACK
6
CONTINUOUS
10
206.461
20
-114.744
11
207.461
21
-114.744
0
LINE
8
BLACK
6
CONTINUOUS
10
206.961
20
-116.784
11
206.961
21
-117.784
0
LINE
8
BLACK
6
CONTINUOUS
10
206.461
20
-117.284
11
207.461
21
-117.284
0
LINE
8
BLACK
6
CONTINUOUS
10
206.961
20
-119.324
11
206.961
21
-120.324
0
LINE
8
BLACK
6
CONTINUOUS
10
206.461
20
-119.824
11
207.461
21
-119.824
0
LINE
8
BLACK
6
CONTINUOUS
10
206.961
20
-121.864
11
206.961
21
-122.864
0
LINE
8
BLACK
6
CONTINUOUS
10
206.461
20
-122.364
11
207.461
21
-122.364
0
LINE
8
BLACK
6
CONTINUOUS
10
206.961
20
-124.404
11
206.961
21
-125.404
0
LINE
8
BLACK
6
CONTINUOUS
10
206.461
20
-124.904
11
207.461
21
-124.904
0
LINE
8
BLACK
6
CONTINUOUS
10
206.961
20
-126.944
11
206.961
21
-127.944
0
LINE
8
BLACK
6
CONTINUOUS
10
206.461
20
-127.444
11
207.461
21
-127.444
0
LINE
8
BLACK
6
CONTINUOUS
10
206.961
20
-129.484
11
206.961
21
-130.484
0
LINE
8
BLACK
6
CONTINUOUS
10
206.461
20
-129.984
11
207.461
21
-129.984
0
LINE
8
BLACK
6
CONTINUOUS
10
168.656
20
-120.15
11
168.656
21
-121.15
0
LINE
8
BLACK
6
CONTINUOUS
10
168.156
20
-120.65
11
169.156
21
-120.65
0
LINE
8
BLACK
6
CONTINUOUS
10
168.656
20
-122.69
11
168.656
21
-123.69
0
LINE
8
BLACK
6
CONTINUOUS
10
168.156
20
-123.19
11
169.156
21
-123.19
0
LINE
8
BLACK
6
CONTINUOUS
10
168.656
20
-125.23
11
168.656
21
-126.23
0
LINE
8
BLACK
6
CONTINUOUS
10
168.156
20
-125.73
11
169.156
21
-125.73
0
LINE
8
BLACK
6
CONTINUOUS
10
168.656
20
-127.77
11
168.656
21
-128.77
0
LINE
8
BLACK
6
CONTINUOUS
10
168.156
20
-128.27
11
169.156
21
-128.27
0
LINE
8
BLACK
6
CONTINUOUS
10
168.656
20
-130.31
11
168.656
21
-131.31
0
LINE
8
BLACK
6
CONTINUOUS
10
168.156
20
-130.81
11
169.156
21
-130.81
0
LINE
8
BLACK
6
CONTINUOUS
10
168.656
20
-132.85
11
168.656
21
-133.85
0
LINE
8
BLACK
6
CONTINUOUS
10
168.156
20
-133.35
11
169.156
21
-133.35
0
LINE
8
BLACK
6
CONTINUOUS
10
168.656
20
-135.39
11
168.656
21
-136.39
0
LINE
8
BLACK
6
CONTINUOUS
10
168.156
20
-135.89
11
169.156
21
-135.89
0
LINE
8
BLACK
6
CONTINUOUS
10
168.656
20
-137.93
11
168.656
21
-138.93
0
LINE
8
BLACK
6
CONTINUOUS
10
168.156
20
-138.43
11
169.156
21
-138.43
0
LINE
8
BLACK
6
CONTINUOUS
10
180.975
20
-71.509
11
180.975
21
-72.509
0
LINE
8
BLACK
6
CONTINUOUS
10
180.475
20
-72.009
11
181.475
21
-72.009
0
LINE
8
BLACK
6
CONTINUOUS
10
180.975
20
-74.049
11
180.975
21
-75.049
0
LINE
8
BLACK
6
CONTINUOUS
10
180.475
20
-74.549
11
181.475
21
-74.549
0
LINE
8
BLACK
6
CONTINUOUS
10
180.975
20
-76.589
11
180.975
21
-77.589
0
LINE
8
BLACK
6
CONTINUOUS
10
180.475
20
-77.089
11
181.475
21
-77.089
0
LINE
8
BLACK
6
CONTINUOUS
10
180.975
20
-79.129
11
180.975
21
-80.129
0
LINE
8
BLACK
6
CONTINUOUS
10
180.475
20
-79.629
11
181.475
21
-79.629
0
LINE
8
BLACK
6
CONTINUOUS
10
180.975
20
-81.669
11
180.975
21
-82.669
0
LINE
8
BLACK
6
CONTINUOUS
10
180.475
20
-82.169
11
181.475
21
-82.169
0
LINE
8
BLACK
6
CONTINUOUS
10
180.975
20
-84.209
11
180.975
21
-85.209
0
LINE
8
BLACK
6
CONTINUOUS
10
180.475
20
-84.709
11
181.475
21
-84.709
0
LINE
8
BLACK
6
CONTINUOUS
10
180.975
20
-86.749
11
180.975
21
-87.749
0
LINE
8
BLACK
6
CONTINUOUS
10
180.475
20
-87.249
11
181.475
21
-87.249
0
LINE
8
BLACK
6
CONTINUOUS
10
180.975
20
-89.289
11
180.975
21
-90.289
0
LINE
8
BLACK
6
CONTINUOUS
10
180.475
20
-89.789
11
181.475
21
-89.789
0
LINE
8
BLACK
6
CONTINUOUS
10
202.311
20
-111.704
11
202.311
21
-112.704
0
LINE
8
BLACK
6
CONTINUOUS
10
201.811
20
-112.204
11
202.811
21
-112.204
0
LINE
8
BLACK
6
CONTINUOUS
10
202.311
20
-114.244
11
202.311
21
-115.244
0
LINE
8
BLACK
6
CONTINUOUS
10
201.811
20
-114.744
11
202.811
21
-114.744
0
LINE
8
BLACK
6
CONTINUOUS
10
202.311
20
-116.784
11
202.311
21
-117.784
0
LINE
8
BLACK
6
CONTINUOUS
10
201.811
20
-117.284
11
202.811
21
-117.284
0
LINE
8
BLACK
6
CONTINUOUS
10
202.311
20
-119.324
11
202.311
21
-120.324
0
LINE
8
BLACK
6
CONTINUOUS
10
201.811
20
-119.824
11
202.811
21
-119.824
0
LINE
8
BLACK
6
CONTINUOUS
10
202.311
20
-121.864
11
202.311
21
-122.864
0
LINE
8
BLACK
6
CONTINUOUS
10
201.811
20
-122.364
11
202.811
21
-122.364
0
LINE
8
BLACK
6
CONTINUOUS
10
202.311
20
-124.404
11
202.311
21
-125.404
0
LINE
8
BLACK
6
CONTINUOUS
10
201.811
20
-124.904
11
202.811
21
-124.904
0
LINE
8
BLACK
6
CONTINUOUS
10
202.311
20
-126.944
11
202.311
21
-127.944
0
LINE
8
BLACK
6
CONTINUOUS
10
201.811
20
-127.444
11
202.811
21
-127.444
0
LINE
8
BLACK
6
CONTINUOUS
10
202.311
20
-129.484
11
202.311
21
-130.484
0
LINE
8
BLACK
6
CONTINUOUS
10
201.811
20
-129.984
11
202.811
21
-129.984
0
LINE
8
BLACK
6
CONTINUOUS
10
196.596
20
-96.02
11
196.596
21
-97.02
0
LINE
8
BLACK
6
CONTINUOUS
10
196.096
20
-96.52
11
197.096
21
-96.52
0
LINE
8
BLACK
6
CONTINUOUS
10
196.596
20
-98.56
11
196.596
21
-99.56
0
LINE
8
BLACK
6
CONTINUOUS
10
196.096
20
-99.06
11
197.096
21
-99.06
0
LINE
8
BLACK
6
CONTINUOUS
10
196.596
20
-101.1
11
196.596
21
-102.1
0
LINE
8
BLACK
6
CONTINUOUS
10
196.096
20
-101.6
11
197.096
21
-101.6
0
LINE
8
BLACK
6
CONTINUOUS
10
196.596
20
-103.64
11
196.596
21
-104.64
0
LINE
8
BLACK
6
CONTINUOUS
10
196.096
20
-104.14
11
197.096
21
-104.14
0
LINE
8
BLACK
6
CONTINUOUS
10
196.596
20
-106.18
11
196.596
21
-107.18
0
LINE
8
BLACK
6
CONTINUOUS
10
196.096
20
-106.68
11
197.096
21
-106.68
0
LINE
8
BLACK
6
CONTINUOUS
10
196.596
20
-108.72
11
196.596
21
-109.72
0
LINE
8
BLACK
6
CONTINUOUS
10
196.096
20
-109.22
11
197.096
21
-109.22
0
LINE
8
BLACK
6
CONTINUOUS
10
196.596
20
-111.26
11
196.596
21
-112.26
0
LINE
8
BLACK
6
CONTINUOUS
10
196.096
20
-111.76
11
197.096
21
-111.76
0
LINE
8
BLACK
6
CONTINUOUS
10
196.596
20
-113.8
11
196.596
21
-114.8
0
LINE
8
BLACK
6
CONTINUOUS
10
196.096
20
-114.3
11
197.096
21
-114.3
0
LINE
8
BLACK
6
CONTINUOUS
10
120.058
20
-114.372
11
120.058
21
-115.372
0
LINE
8
BLACK
6
CONTINUOUS
10
119.558
20
-114.872
11
120.558
21
-114.872
0
LINE
8
BLACK
6
CONTINUOUS
10
120.058
20
-116.912
11
120.058
21
-117.912
0
LINE
8
BLACK
6
CONTINUOUS
10
119.558
20
-117.412
11
120.558
21
-117.412
0
LINE
8
BLACK
6
CONTINUOUS
10
120.058
20
-119.452
11
120.058
21
-120.452
0
LINE
8
BLACK
6
CONTINUOUS
10
119.558
20
-119.952
11
120.558
21
-119.952
0
LINE
8
BLACK
6
CONTINUOUS
10
120.058
20
-121.992
11
120.058
21
-122.992
0
LINE
8
BLACK
6
CONTINUOUS
10
119.558
20
-122.492
11
120.558
21
-122.492
0
LINE
8
BLACK
6
CONTINUOUS
10
120.058
20
-124.532
11
120.058
21
-125.532
0
LINE
8
BLACK
6
CONTINUOUS
10
119.558
20
-125.032
11
120.558
21
-125.032
0
LINE
8
BLACK
6
CONTINUOUS
10
120.058
20
-127.072
11
120.058
21
-128.072
0
LINE
8
BLACK
6
CONTINUOUS
10
119.558
20
-127.572
11
120.558
21
-127.572
0
LINE
8
BLACK
6
CONTINUOUS
10
120.058
20
-129.612
11
120.058
21
-130.612
0
LINE
8
BLACK
6
CONTINUOUS
10
119.558
20
-130.112
11
120.558
21
-130.112
0
LINE
8
BLACK
6
CONTINUOUS
10
120.058
20
-132.152
11
120.058
21
-133.152
0
LINE
8
BLACK
6
CONTINUOUS
10
119.558
20
-132.652
11
120.558
21
-132.652
0
LINE
8
BLACK
6
CONTINUOUS
10
180.848
20
-48.522
11
180.848
21
-49.522
0
LINE
8
BLACK
6
CONTINUOUS
10
180.348
20
-49.022
11
181.348
21
-49.022
0
LINE
8
BLACK
6
CONTINUOUS
10
180.848
20
-51.062
11
180.848
21
-52.062
0
LINE
8
BLACK
6
CONTINUOUS
10
180.348
20
-51.562
11
181.348
21
-51.562
0
LINE
8
BLACK
6
CONTINUOUS
10
180.848
20
-53.602
11
180.848
21
-54.602
0
LINE
8
BLACK
6
CONTINUOUS
10
180.348
20
-54.102
11
181.348
21
-54.102
0
LINE
8
BLACK
6
CONTINUOUS
10
180.848
20
-56.142
11
180.848
21
-57.142
0
LINE
8
BLACK
6
CONTINUOUS
10
180.348
20
-56.642
11
181.348
21
-56.642
0
LINE
8
BLACK
6
CONTINUOUS
10
180.848
20
-58.682
11
180.848
21
-59.682
0
LINE
8
BLACK
6
CONTINUOUS
10
180.348
20
-59.182
11
181.348
21
-59.182
0
LINE
8
BLACK
6
CONTINUOUS
10
180.848
20
-61.222
11
180.848
21
-62.222
0
LINE
8
BLACK
6
CONTINUOUS
10
180.348
20
-61.722
11
181.348
21
-61.722
0
LINE
8
BLACK
6
CONTINUOUS
10
180.848
20
-63.762
11
180.848
21
-64.762
0
LINE
8
BLACK
6
CONTINUOUS
10
180.348
20
-64.262
11
181.348
21
-64.262
0
LINE
8
BLACK
6
CONTINUOUS
10
180.848
20
-66.302
11
180.848
21
-67.302
0
LINE
8
BLACK
6
CONTINUOUS
10
180.348
20
-66.802
11
181.348
21
-66.802
0
LINE
8
BLACK
6
CONTINUOUS
10
196.66
20
-50.6175
11
196.66
21
-51.6175
0
LINE
8
BLACK
6
CONTINUOUS
10
196.16
20
-51.1175
11
197.16
21
-51.1175
0
LINE
8
BLACK
6
CONTINUOUS
10
196.66
20
-53.1575
11
196.66
21
-54.1575
0
LINE
8
BLACK
6
CONTINUOUS
10
196.16
20
-53.6575
11
197.16
21
-53.6575
0
LINE
8
BLACK
6
CONTINUOUS
10
196.66
20
-55.6975
11
196.66
21
-56.6975
0
LINE
8
BLACK
6
CONTINUOUS
10
196.16
20
-56.1975
11
197.16
21
-56.1975
0
LINE
8
BLACK
6
CONTINUOUS
10
196.66
20
-58.2375
11
196.66
21
-59.2375
0
LINE
8
BLACK
6
CONTINUOUS
10
196.16
20
-58.7375
11
197.16
21
-58.7375
0
LINE
8
BLACK
6
CONTINUOUS
10
196.66
20
-60.7775
11
196.66
21
-61.7775
0
LINE
8
BLACK
6
CONTINUOUS
10
196.16
20
-61.2775
11
197.16
21
-61.2775
0
LINE
8
BLACK
6
CONTINUOUS
10
196.66
20
-63.3175
11
196.66
21
-64.3175
0
LINE
8
BLACK
6
CONTINUOUS
10
196.16
20
-63.8175
11
197.16
21
-63.8175
0
LINE
8
BLACK
6
CONTINUOUS
10
196.66
20
-65.8575
11
196.66
21
-66.8575
0
LINE
8
BLACK
6
CONTINUOUS
10
196.16
20
-66.3575
11
197.16
21
-66.3575
0
LINE
8
BLACK
6
CONTINUOUS
10
196.66
20
-68.3975
11
196.66
21
-69.3975
0
LINE
8
BLACK
6
CONTINUOUS
10
196.16
20
-68.8975
11
197.16
21
-68.8975
0
LINE
8
BLACK
6
CONTINUOUS
10
121.762
20
-57.793
11
121.762
21
-58.793
0
LINE
8
BLACK
6
CONTINUOUS
10
121.262
20
-58.293
11
122.262
21
-58.293
0
LINE
8
BLACK
6
CONTINUOUS
10
121.262
20
-57.293
11
121.262
21
-59.293
0
LINE
8
BLACK
6
CONTINUOUS
10
122.262
20
-57.293
11
122.262
21
-59.293
0
ARC
8
BLACK
10
121.762
20
-59.293
40
0.5
50
180
51
360
0
ARC
8
BLACK
10
121.762
20
-57.293
40
0.5
50
0
51
180
0
LINE
8
BLACK
6
CONTINUOUS
10
124.762
20
-62.493
11
124.762
21
-63.493
0
LINE
8
BLACK
6
CONTINUOUS
10
124.262
20
-62.993
11
125.262
21
-62.993
0
LINE
8
BLACK
6
CONTINUOUS
10
123.762
20
-63.493
11
125.762
21
-63.493
0
LINE
8
BLACK
6
CONTINUOUS
10
123.762
20
-62.493
11
125.762
21
-62.493
0
ARC
8
BLACK
10
125.762
20
-62.993
40
0.5
50
270
51
450
0
ARC
8
BLACK
10
123.762
20
-62.993
40
0.5
50
90
51
270
0
LINE
8
BLACK
6
CONTINUOUS
10
127.762
20
-57.793
11
127.762
21
-58.793
0
LINE
8
BLACK
6
CONTINUOUS
10
127.262
20
-58.293
11
128.262
21
-58.293
0
LINE
8
BLACK
6
CONTINUOUS
10
127.262
20
-57.293
11
127.262
21
-59.293
0
LINE
8
BLACK
6
CONTINUOUS
10
128.262
20
-57.293
11
128.262
21
-59.293
0
ARC
8
BLACK
10
127.762
20
-59.293
40
0.5
50
180
51
360
0
ARC
8
BLACK
10
127.762
20
-57.293
40
0.5
50
0
51
180
0
LINE
8
BLACK
6
CONTINUOUS
10
196.596
20
-119.134
11
196.596
21
-120.134
0
LINE
8
BLACK
6
CONTINUOUS
10
196.096
20
-119.634
11
197.096
21
-119.634
0
LINE
8
BLACK
6
CONTINUOUS
10
196.596
20
-121.674
11
196.596
21
-122.674
0
LINE
8
BLACK
6
CONTINUOUS
10
196.096
20
-122.174
11
197.096
21
-122.174
0
LINE
8
BLACK
6
CONTINUOUS
10
196.596
20
-124.214
11
196.596
21
-125.214
0
LINE
8
BLACK
6
CONTINUOUS
10
196.096
20
-124.714
11
197.096
21
-124.714
0
LINE
8
BLACK
6
CONTINUOUS
10
196.596
20
-126.754
11
196.596
21
-127.754
0
LINE
8
BLACK
6
CONTINUOUS
10
196.096
20
-127.254
11
197.096
21
-127.254
0
LINE
8
BLACK
6
CONTINUOUS
10
196.596
20
-129.294
11
196.596
21
-130.294
0
LINE
8
BLACK
6
CONTINUOUS
10
196.096
20
-129.794
11
197.096
21
-129.794
0
LINE
8
BLACK
6
CONTINUOUS
10
196.596
20
-131.834
11
196.596
21
-132.834
0
LINE
8
BLACK
6
CONTINUOUS
10
196.096
20
-132.334
11
197.096
21
-132.334
0
LINE
8
BLACK
6
CONTINUOUS
10
196.596
20
-134.374
11
196.596
21
-135.374
0
LINE
8
BLACK
6
CONTINUOUS
10
196.096
20
-134.874
11
197.096
21
-134.874
0
LINE
8
BLACK
6
CONTINUOUS
10
196.596
20
-136.914
11
196.596
21
-137.914
0
LINE
8
BLACK
6
CONTINUOUS
10
196.096
20
-137.414
11
197.096
21
-137.414
0
LINE
8
BLACK
6
CONTINUOUS
10
168.656
20
-96.782
11
168.656
21
-97.782
0
LINE
8
BLACK
6
CONTINUOUS
10
168.156
20
-97.282
11
169.156
21
-97.282
0
LINE
8
BLACK
6
CONTINUOUS
10
168.656
20
-99.322
11
168.656
21
-100.322
0
LINE
8
BLACK
6
CONTINUOUS
10
168.156
20
-99.822
11
169.156
21
-99.822
0
LINE
8
BLACK
6
CONTINUOUS
10
168.656
20
-101.862
11
168.656
21
-102.862
0
LINE
8
BLACK
6
CONTINUOUS
10
168.156
20
-102.362
11
169.156
21
-102.362
0
LINE
8
BLACK
6
CONTINUOUS
10
168.656
20
-104.402
11
168.656
21
-105.402
0
LINE
8
BLACK
6
CONTINUOUS
10
168.156
20
-104.902
11
169.156
21
-104.902
0
LINE
8
BLACK
6
CONTINUOUS
10
168.656
20
-106.942
11
168.656
21
-107.942
0
LINE
8
BLACK
6
CONTINUOUS
10
168.156
20
-107.442
11
169.156
21
-107.442
0
LINE
8
BLACK
6
CONTINUOUS
10
168.656
20
-109.482
11
168.656
21
-110.482
0
LINE
8
BLACK
6
CONTINUOUS
10
168.156
20
-109.982
11
169.156
21
-109.982
0
LINE
8
BLACK
6
CONTINUOUS
10
168.656
20
-112.022
11
168.656
21
-113.022
0
LINE
8
BLACK
6
CONTINUOUS
10
168.156
20
-112.522
11
169.156
21
-112.522
0
LINE
8
BLACK
6
CONTINUOUS
10
168.656
20
-114.562
11
168.656
21
-115.562
0
LINE
8
BLACK
6
CONTINUOUS
10
168.156
20
-115.062
11
169.156
21
-115.062
0
LINE
8
BLACK
6
CONTINUOUS
10
138.557
20
-121.801
11
138.557
21
-122.801
0
LINE
8
BLACK
6
CONTINUOUS
10
138.057
20
-122.301
11
139.057
21
-122.301
0
LINE
8
BLACK
6
CONTINUOUS
10
138.557
20
-124.341
11
138.557
21
-125.341
0
LINE
8
BLACK
6
CONTINUOUS
10
138.057
20
-124.841
11
139.057
21
-124.841
0
LINE
8
BLACK
6
CONTINUOUS
10
138.557
20
-126.881
11
138.557
21
-127.881
0
LINE
8
BLACK
6
CONTINUOUS
10
138.057
20
-127.381
11
139.057
21
-127.381
0
LINE
8
BLACK
6
CONTINUOUS
10
138.557
20
-129.421
11
138.557
21
-130.421
0
LINE
8
BLACK
6
CONTINUOUS
10
138.057
20
-129.921
11
139.057
21
-129.921
0
LINE
8
BLACK
6
CONTINUOUS
10
138.557
20
-131.961
11
138.557
21
-132.961
0
LINE
8
BLACK
6
CONTINUOUS
10
138.057
20
-132.461
11
139.057
21
-132.461
0
LINE
8
BLACK
6
CONTINUOUS
10
138.557
20
-134.501
11
138.557
21
-135.501
0
LINE
8
BLACK
6
CONTINUOUS
10
138.057
20
-135.001
11
139.057
21
-135.001
0
LINE
8
BLACK
6
CONTINUOUS
10
138.557
20
-137.041
11
138.557
21
-138.041
0
LINE
8
BLACK
6
CONTINUOUS
10
138.057
20
-137.541
11
139.057
21
-137.541
0
LINE
8
BLACK
6
CONTINUOUS
10
138.557
20
-139.581
11
138.557
21
-140.581
0
LINE
8
BLACK
6
CONTINUOUS
10
138.057
20
-140.081
11
139.057
21
-140.081
0
LINE
8
BLACK
6
CONTINUOUS
10
144.78
20
-76.589
11
144.78
21
-77.589
0
LINE
8
BLACK
6
CONTINUOUS
10
144.28
20
-77.089
11
145.28
21
-77.089
0
LINE
8
BLACK
6
CONTINUOUS
10
144.78
20
-79.129
11
144.78
21
-80.129
0
LINE
8
BLACK
6
CONTINUOUS
10
144.28
20
-79.629
11
145.28
21
-79.629
0
LINE
8
BLACK
6
CONTINUOUS
10
144.78
20
-81.669
11
144.78
21
-82.669
0
LINE
8
BLACK
6
CONTINUOUS
10
144.28
20
-82.169
11
145.28
21
-82.169
0
LINE
8
BLACK
6
CONTINUOUS
10
144.78
20
-84.209
11
144.78
21
-85.209
0
LINE
8
BLACK
6
CONTINUOUS
10
144.28
20
-84.709
11
145.28
21
-84.709
0
LINE
8
BLACK
6
CONTINUOUS
10
144.78
20
-86.749
11
144.78
21
-87.749
0
LINE
8
BLACK
6
CONTINUOUS
10
144.28
20
-87.249
11
145.28
21
-87.249
0
LINE
8
BLACK
6
CONTINUOUS
10
144.78
20
-89.289
11
144.78
21
-90.289
0
LINE
8
BLACK
6
CONTINUOUS
10
144.28
20
-89.789
11
145.28
21
-89.789
0
LINE
8
BLACK
6
CONTINUOUS
10
144.78
20
-91.829
11
144.78
21
-92.829
0
LINE
8
BLACK
6
CONTINUOUS
10
144.28
20
-92.329
11
145.28
21
-92.329
0
LINE
8
BLACK
6
CONTINUOUS
10
144.78
20
-94.369
11
144.78
21
-95.369
0
LINE
8
BLACK
6
CONTINUOUS
10
144.28
20
-94.869
11
145.28
21
-94.869
0
LINE
8
BLACK
6
CONTINUOUS
10
115.408
20
-114.372
11
115.408
21
-115.372
0
LINE
8
BLACK
6
CONTINUOUS
10
114.908
20
-114.872
11
115.908
21
-114.872
0
LINE
8
BLACK
6
CONTINUOUS
10
115.408
20
-116.912
11
115.408
21
-117.912
0
LINE
8
BLACK
6
CONTINUOUS
10
114.908
20
-117.412
11
115.908
21
-117.412
0
LINE
8
BLACK
6
CONTINUOUS
10
115.408
20
-119.452
11
115.408
21
-120.452
0
LINE
8
BLACK
6
CONTINUOUS
10
114.908
20
-119.952
11
115.908
21
-119.952
0
LINE
8
BLACK
6
CONTINUOUS
10
115.408
20
-121.992
11
115.408
21
-122.992
0
LINE
8
BLACK
6
CONTINUOUS
10
114.908
20
-122.492
11
115.908
21
-122.492
0
LINE
8
BLACK
6
CONTINUOUS
10
115.408
20
-124.532
11
115.408
21
-125.532
0
LINE
8
BLACK
6
CONTINUOUS
10
114.908
20
-125.032
11
115.908
21
-125.032
0
LINE
8
BLACK
6
CONTINUOUS
10
115.408
20
-127.072
11
115.408
21
-128.072
0
LINE
8
BLACK
6
CONTINUOUS
10
114.908
20
-127.572
11
115.908
21
-127.572
0
LINE
8
BLACK
6
CONTINUOUS
10
115.408
20
-129.612
11
115.408
21
-130.612
0
LINE
8
BLACK
6
CONTINUOUS
10
114.908
20
-130.112
11
115.908
21
-130.112
0
LINE
8
BLACK
6
CONTINUOUS
10
115.408
20
-132.152
11
115.408
21
-133.152
0
LINE
8
BLACK
6
CONTINUOUS
10
114.908
20
-132.652
11
115.908
21
-132.652
0
LINE
8
BLACK
6
CONTINUOUS
10
138.684
20
-99.703
11
138.684
21
-100.703
0
LINE
8
BLACK
6
CONTINUOUS
10
138.184
20
-100.203
11
139.184
21
-100.203
0
LINE
8
BLACK
6
CONTINUOUS
10
138.684
20
-102.243
11
138.684
21
-103.243
0
LINE
8
BLACK
6
CONTINUOUS
10
138.184
20
-102.743
11
139.184
21
-102.743
0
LINE
8
BLACK
6
CONTINUOUS
10
138.684
20
-104.783
11
138.684
21
-105.783
0
LINE
8
BLACK
6
CONTINUOUS
10
138.184
20
-105.283
11
139.184
21
-105.283
0
LINE
8
BLACK
6
CONTINUOUS
10
138.684
20
-107.323
11
138.684
21
-108.323
0
LINE
8
BLACK
6
CONTINUOUS
10
138.184
20
-107.823
11
139.184
21
-107.823
0
LINE
8
BLACK
6
CONTINUOUS
10
138.684
20
-109.863
11
138.684
21
-110.863
0
LINE
8
BLACK
6
CONTINUOUS
10
138.184
20
-110.363
11
139.184
21
-110.363
0
LINE
8
BLACK
6
CONTINUOUS
10
138.684
20
-112.403
11
138.684
21
-113.403
0
LINE
8
BLACK
6
CONTINUOUS
10
138.184
20
-112.903
11
139.184
21
-112.903
0
LINE
8
BLACK
6
CONTINUOUS
10
138.684
20
-114.943
11
138.684
21
-115.943
0
LINE
8
BLACK
6
CONTINUOUS
10
138.184
20
-115.443
11
139.184
21
-115.443
0
LINE
8
BLACK
6
CONTINUOUS
10
138.684
20
-117.483
11
138.684
21
-118.483
0
LINE
8
BLACK
6
CONTINUOUS
10
138.184
20
-117.983
11
139.184
21
-117.983
0
LINE
8
BLACK
6
CONTINUOUS
10
144.907
20
-52.967
11
144.907
21
-53.967
0
LINE
8
BLACK
6
CONTINUOUS
10
144.407
20
-53.467
11
145.407
21
-53.467
0
LINE
8
BLACK
6
CONTINUOUS
10
144.907
20
-55.507
11
144.907
21
-56.507
0
LINE
8
BLACK
6
CONTINUOUS
10
144.407
20
-56.007
11
145.407
21
-56.007
0
LINE
8
BLACK
6
CONTINUOUS
10
144.907
20
-58.047
11
144.907
21
-59.047
0
LINE
8
BLACK
6
CONTINUOUS
10
144.407
20
-58.547
11
145.407
21
-58.547
0
LINE
8
BLACK
6
CONTINUOUS
10
144.907
20
-60.587
11
144.907
21
-61.587
0
LINE
8
BLACK
6
CONTINUOUS
10
144.407
20
-61.087
11
145.407
21
-61.087
0
LINE
8
BLACK
6
CONTINUOUS
10
144.907
20
-63.127
11
144.907
21
-64.127
0
LINE
8
BLACK
6
CONTINUOUS
10
144.407
20
-63.627
11
145.407
21
-63.627
0
LINE
8
BLACK
6
CONTINUOUS
10
144.907
20
-65.667
11
144.907
21
-66.667
0
LINE
8
BLACK
6
CONTINUOUS
10
144.407
20
-66.167
11
145.407
21
-66.167
0
LINE
8
BLACK
6
CONTINUOUS
10
144.907
20
-68.207
11
144.907
21
-69.207
0
LINE
8
BLACK
6
CONTINUOUS
10
144.407
20
-68.707
11
145.407
21
-68.707
0
LINE
8
BLACK
6
CONTINUOUS
10
144.907
20
-70.747
11
144.907
21
-71.747
0
LINE
8
BLACK
6
CONTINUOUS
10
144.407
20
-71.247
11
145.407
21
-71.247
0
LINE
8
BLACK
6
CONTINUOUS
10
196.786
20
-72.144
11
196.786
21
-73.144
0
LINE
8
BLACK
6
CONTINUOUS
10
196.286
20
-72.644
11
197.286
21
-72.644
0
LINE
8
BLACK
6
CONTINUOUS
10
196.786
20
-74.684
11
196.786
21
-75.684
0
LINE
8
BLACK
6
CONTINUOUS
10
196.286
20
-75.184
11
197.286
21
-75.184
0
LINE
8
BLACK
6
CONTINUOUS
10
196.786
20
-77.224
11
196.786
21
-78.224
0
LINE
8
BLACK
6
CONTINUOUS
10
196.286
20
-77.724
11
197.286
21
-77.724
0
LINE
8
BLACK
6
CONTINUOUS
10
196.786
20
-79.764
11
196.786
21
-80.764
0
LINE
8
BLACK
6
CONTINUOUS
10
196.286
20
-80.264
11
197.286
21
-80.264
0
LINE
8
BLACK
6
CONTINUOUS
10
196.786
20
-82.304
11
196.786
21
-83.304
0
LINE
8
BLACK
6
CONTINUOUS
10
196.286
20
-82.804
11
197.286
21
-82.804
0
LINE
8
BLACK
6
CONTINUOUS
10
196.786
20
-84.844
11
196.786
21
-85.844
0
LINE
8
BLACK
6
CONTINUOUS
10
196.286
20
-85.344
11
197.286
21
-85.344
0
LINE
8
BLACK
6
CONTINUOUS
10
196.786
20
-87.384
11
196.786
21
-88.384
0
LINE
8
BLACK
6
CONTINUOUS
10
196.286
20
-87.884
11
197.286
21
-87.884
0
LINE
8
BLACK
6
CONTINUOUS
10
196.786
20
-89.924
11
196.786
21
-90.924
0
LINE
8
BLACK
6
CONTINUOUS
10
196.286
20
-90.424
11
197.286
21
-90.424
0
LINE
8
BLACK
6
CONTINUOUS
10
118.661
20
-84.7523
11
118.661
21
-83.9037
0
LINE
8
BLACK
6
CONTINUOUS
10
118.661
20
-83.9037
11
117.813
21
-83.9037
0
LINE
8
BLACK
6
CONTINUOUS
10
117.813
20
-83.9037
11
117.813
21
-84.7523
0
LINE
8
BLACK
6
CONTINUOUS
10
117.813
20
-84.7523
11
118.661
21
-84.7523
0
LINE
8
BLACK
6
CONTINUOUS
10
118.661
20
-87.2923
11
118.661
21
-86.4437
0
LINE
8
BLACK
6
CONTINUOUS
10
118.661
20
-86.4437
11
117.813
21
-86.4437
0
LINE
8
BLACK
6
CONTINUOUS
10
117.813
20
-86.4437
11
117.813
21
-87.2923
0
LINE
8
BLACK
6
CONTINUOUS
10
117.813
20
-87.2923
11
118.661
21
-87.2923
0
LINE
8
BLACK
6
CONTINUOUS
10
118.661
20
-89.8323
11
118.661
21
-88.9837
0
LINE
8
BLACK
6
CONTINUOUS
10
118.661
20
-88.9837
11
117.813
21
-88.9837
0
LINE
8
BLACK
6
CONTINUOUS
10
117.813
20
-88.9837
11
117.813
21
-89.8323
0
LINE
8
BLACK
6
CONTINUOUS
10
117.813
20
-89.8323
11
118.661
21
-89.8323
0
LINE
8
BLACK
6
CONTINUOUS
10
118.661
20
-92.3723
11
118.661
21
-91.5237
0
LINE
8
BLACK
6
CONTINUOUS
10
118.661
20
-91.5237
11
117.813
21
-91.5237
0
LINE
8
BLACK
6
CONTINUOUS
10
117.813
20
-91.5237
11
117.813
21
-92.3723
0
LINE
8
BLACK
6
CONTINUOUS
10
117.813
20
-92.3723
11
118.661
21
-92.3723
0
LINE
8
BLACK
6
CONTINUOUS
10
118.661
20
-94.9123
11
118.661
21
-94.0637
0
LINE
8
BLACK
6
CONTINUOUS
10
118.661
20
-94.0637
11
117.813
21
-94.0637
0
LINE
8
BLACK
6
CONTINUOUS
10
117.813
20
-94.0637
11
117.813
21
-94.9123
0
LINE
8
BLACK
6
CONTINUOUS
10
117.813
20
-94.9123
11
118.661
21
-94.9123
0
LINE
8
BLACK
6
CONTINUOUS
10
118.661
20
-97.4523
11
118.661
21
-96.6037
0
LINE
8
BLACK
6
CONTINUOUS
10
118.661
20
-96.6037
11
117.813
21
-96.6037
0
LINE
8
BLACK
6
CONTINUOUS
10
117.813
20
-96.6037
11
117.813
21
-97.4523
0
LINE
8
BLACK
6
CONTINUOUS
10
117.813
20
-97.4523
11
118.661
21
-97.4523
0
LINE
8
BLACK
6
CONTINUOUS
10
161.46
20
-71.0363
11
161.46
21
-70.1877
0
LINE
8
BLACK
6
CONTINUOUS
10
161.46
20
-70.1877
11
160.612
21
-70.1877
0
LINE
8
BLACK
6
CONTINUOUS
10
160.612
20
-70.1877
11
160.612
21
-71.0363
0
LINE
8
BLACK
6
CONTINUOUS
10
160.612
20
-71.0363
11
161.46
21
-71.0363
0
LINE
8
BLACK
6
CONTINUOUS
10
161.46
20
-73.5763
11
161.46
21
-72.7277
0
LINE
8
BLACK
6
CONTINUOUS
10
161.46
20
-72.7277
11
160.612
21
-72.7277
0
LINE
8
BLACK
6
CONTINUOUS
10
160.612
20
-72.7277
11
160.612
21
-73.5763
0
LINE
8
BLACK
6
CONTINUOUS
10
160.612
20
-73.5763
11
161.46
21
-73.5763
0
LINE
8
BLACK
6
CONTINUOUS
10
161.46
20
-76.1163
11
161.46
21
-75.2677
0
LINE
8
BLACK
6
CONTINUOUS
10
161.46
20
-75.2677
11
160.612
21
-75.2677
0
LINE
8
BLACK
6
CONTINUOUS
10
160.612
20
-75.2677
11
160.612
21
-76.1163
0
LINE
8
BLACK
6
CONTINUOUS
10
160.612
20
-76.1163
11
161.46
21
-76.1163
0
LINE
8
BLACK
6
CONTINUOUS
10
161.46
20
-78.6563
11
161.46
21
-77.8077
0
LINE
8
BLACK
6
CONTINUOUS
10
161.46
20
-77.8077
11
160.612
21
-77.8077
0
LINE
8
BLACK
6
CONTINUOUS
10
160.612
20
-77.8077
11
160.612
21
-78.6563
0
LINE
8
BLACK
6
CONTINUOUS
10
160.612
20
-78.6563
11
161.46
21
-78.6563
0
LINE
8
BLACK
6
CONTINUOUS
10
151.681
20
-49.7003
11
151.681
21
-48.8517
0
LINE
8
BLACK
6
CONTINUOUS
10
151.681
20
-48.8517
11
150.833
21
-48.8517
0
LINE
8
BLACK
6
CONTINUOUS
10
150.833
20
-48.8517
11
150.833
21
-49.7003
0
LINE
8
BLACK
6
CONTINUOUS
10
150.833
20
-49.7003
11
151.681
21
-49.7003
0
LINE
8
BLACK
6
CONTINUOUS
10
151.681
20
-52.2403
11
151.681
21
-51.3917
0
LINE
8
BLACK
6
CONTINUOUS
10
151.681
20
-51.3917
11
150.833
21
-51.3917
0
LINE
8
BLACK
6
CONTINUOUS
10
150.833
20
-51.3917
11
150.833
21
-52.2403
0
LINE
8
BLACK
6
CONTINUOUS
10
150.833
20
-52.2403
11
151.681
21
-52.2403
0
LINE
8
BLACK
6
CONTINUOUS
10
151.681
20
-54.7803
11
151.681
21
-53.9317
0
LINE
8
BLACK
6
CONTINUOUS
10
151.681
20
-53.9317
11
150.833
21
-53.9317
0
LINE
8
BLACK
6
CONTINUOUS
10
150.833
20
-53.9317
11
150.833
21
-54.7803
0
LINE
8
BLACK
6
CONTINUOUS
10
150.833
20
-54.7803
11
151.681
21
-54.7803
0
LINE
8
BLACK
6
CONTINUOUS
10
151.681
20
-57.3203
11
151.681
21
-56.4717
0
LINE
8
BLACK
6
CONTINUOUS
10
151.681
20
-56.4717
11
150.833
21
-56.4717
0
LINE
8
BLACK
6
CONTINUOUS
10
150.833
20
-56.4717
11
150.833
21
-57.3203
0
LINE
8
BLACK
6
CONTINUOUS
10
150.833
20
-57.3203
11
151.681
21
-57.3203
0
LINE
8
BLACK
6
CONTINUOUS
10
151.681
20
-59.8603
11
151.681
21
-59.0117
0
LINE
8
BLACK
6
CONTINUOUS
10
151.681
20
-59.0117
11
150.833
21
-59.0117
0
LINE
8
BLACK
6
CONTINUOUS
10
150.833
20
-59.0117
11
150.833
21
-59.8603
0
LINE
8
BLACK
6
CONTINUOUS
10
150.833
20
-59.8603
11
151.681
21
-59.8603
0
LINE
8
BLACK
6
CONTINUOUS
10
151.681
20
-62.4003
11
151.681
21
-61.5517
0
LINE
8
BLACK
6
CONTINUOUS
10
151.681
20
-61.5517
11
150.833
21
-61.5517
0
LINE
8
BLACK
6
CONTINUOUS
10
150.833
20
-61.5517
11
150.833
21
-62.4003
0
LINE
8
BLACK
6
CONTINUOUS
10
150.833
20
-62.4003
11
151.681
21
-62.4003
0
LINE
8
BLACK
6
CONTINUOUS
10
206.608
20
-89.8958
11
206.608
21
-89.0472
0
LINE
8
BLACK
6
CONTINUOUS
10
206.608
20
-89.0472
11
205.76
21
-89.0472
0
LINE
8
BLACK
6
CONTINUOUS
10
205.76
20
-89.0472
11
205.76
21
-89.8958
0
LINE
8
BLACK
6
CONTINUOUS
10
205.76
20
-89.8958
11
206.608
21
-89.8958
0
LINE
8
BLACK
6
CONTINUOUS
10
206.608
20
-92.4358
11
206.608
21
-91.5872
0
LINE
8
BLACK
6
CONTINUOUS
10
206.608
20
-91.5872
11
205.76
21
-91.5872
0
LINE
8
BLACK
6
CONTINUOUS
10
205.76
20
-91.5872
11
205.76
21
-92.4358
0
LINE
8
BLACK
6
CONTINUOUS
10
205.76
20
-92.4358
11
206.608
21
-92.4358
0
LINE
8
BLACK
6
CONTINUOUS
10
206.608
20
-94.9758
11
206.608
21
-94.1272
0
LINE
8
BLACK
6
CONTINUOUS
10
206.608
20
-94.1272
11
205.76
21
-94.1272
0
LINE
8
BLACK
6
CONTINUOUS
10
205.76
20
-94.1272
11
205.76
21
-94.9758
0
LINE
8
BLACK
6
CONTINUOUS
10
205.76
20
-94.9758
11
206.608
21
-94.9758
0
LINE
8
BLACK
6
CONTINUOUS
10
206.608
20
-97.5158
11
206.608
21
-96.6672
0
LINE
8
BLACK
6
CONTINUOUS
10
206.608
20
-96.6672
11
205.76
21
-96.6672
0
LINE
8
BLACK
6
CONTINUOUS
10
205.76
20
-96.6672
11
205.76
21
-97.5158
0
LINE
8
BLACK
6
CONTINUOUS
10
205.76
20
-97.5158
11
206.608
21
-97.5158
0
LINE
8
BLACK
6
CONTINUOUS
10
206.608
20
-100.056
11
206.608
21
-99.2072
0
LINE
8
BLACK
6
CONTINUOUS
10
206.608
20
-99.2072
11
205.76
21
-99.2072
0
LINE
8
BLACK
6
CONTINUOUS
10
205.76
20
-99.2072
11
205.76
21
-100.056
0
LINE
8
BLACK
6
CONTINUOUS
10
205.76
20
-100.056
11
206.608
21
-100.056
0
LINE
8
BLACK
6
CONTINUOUS
10
206.608
20
-102.596
11
206.608
21
-101.747
0
LINE
8
BLACK
6
CONTINUOUS
10
206.608
20
-101.747
11
205.76
21
-101.747
0
LINE
8
BLACK
6
CONTINUOUS
10
205.76
20
-101.747
11
205.76
21
-102.596
0
LINE
8
BLACK
6
CONTINUOUS
10
205.76
20
-102.596
11
206.608
21
-102.596
0
LINE
8
BLACK
6
CONTINUOUS
10
206.608
20
-105.136
11
206.608
21
-104.287
0
LINE
8
BLACK
6
CONTINUOUS
10
206.608
20
-104.287
11
205.76
21
-104.287
0
LINE
8
BLACK
6
CONTINUOUS
10
205.76
20
-104.287
11
205.76
21
-105.136
0
LINE
8
BLACK
6
CONTINUOUS
10
205.76
20
-105.136
11
206.608
21
-105.136
0
LINE
8
BLACK
6
CONTINUOUS
10
206.608
20
-107.676
11
206.608
21
-106.827
0
LINE
8
BLACK
6
CONTINUOUS
10
206.608
20
-106.827
11
205.76
21
-106.827
0
LINE
8
BLACK
6
CONTINUOUS
10
205.76
20
-106.827
11
205.76
21
-107.676
0
LINE
8
BLACK
6
CONTINUOUS
10
205.76
20
-107.676
11
206.608
21
-107.676
0
LINE
8
BLACK
6
CONTINUOUS
10
118.788
20
-66.9723
11
118.788
21
-66.1237
0
LINE
8
BLACK
6
CONTINUOUS
10
118.788
20
-66.1237
11
117.94
21
-66.1237
0
LINE
8
BLACK
6
CONTINUOUS
10
117.94
20
-66.1237
11
117.94
21
-66.9723
0
LINE
8
BLACK
6
CONTINUOUS
10
117.94
20
-66.9723
11
118.788
21
-66.9723
0
LINE
8
BLACK
6
CONTINUOUS
10
118.788
20
-69.5123
11
118.788
21
-68.6637
0
LINE
8
BLACK
6
CONTINUOUS
10
118.788
20
-68.6637
11
117.94
21
-68.6637
0
LINE
8
BLACK
6
CONTINUOUS
10
117.94
20
-68.6637
11
117.94
21
-69.5123
0
LINE
8
BLACK
6
CONTINUOUS
10
117.94
20
-69.5123
11
118.788
21
-69.5123
0
LINE
8
BLACK
6
CONTINUOUS
10
118.788
20
-72.0523
11
118.788
21
-71.2037
0
LINE
8
BLACK
6
CONTINUOUS
10
118.788
20
-71.2037
11
117.94
21
-71.2037
0
LINE
8
BLACK
6
CONTINUOUS
10
117.94
20
-71.2037
11
117.94
21
-72.0523
0
LINE
8
BLACK
6
CONTINUOUS
10
117.94
20
-72.0523
11
118.788
21
-72.0523
0
LINE
8
BLACK
6
CONTINUOUS
10
118.788
20
-74.5923
11
118.788
21
-73.7437
0
LINE
8
BLACK
6
CONTINUOUS
10
118.788
20
-73.7437
11
117.94
21
-73.7437
0
LINE
8
BLACK
6
CONTINUOUS
10
117.94
20
-73.7437
11
117.94
21
-74.5923
0
LINE
8
BLACK
6
CONTINUOUS
10
117.94
20
-74.5923
11
118.788
21
-74.5923
0
LINE
8
BLACK
6
CONTINUOUS
10
118.788
20
-77.1323
11
118.788
21
-76.2837
0
LINE
8
BLACK
6
CONTINUOUS
10
118.788
20
-76.2837
11
117.94
21
-76.2837
0
LINE
8
BLACK
6
CONTINUOUS
10
117.94
20
-76.2837
11
117.94
21
-77.1323
0
LINE
8
BLACK
6
CONTINUOUS
10
117.94
20
-77.1323
11
118.788
21
-77.1323
0
LINE
8
BLACK
6
CONTINUOUS
10
118.788
20
-79.6723
11
118.788
21
-78.8237
0
LINE
8
BLACK
6
CONTINUOUS
10
118.788
20
-78.8237
11
117.94
21
-78.8237
0
LINE
8
BLACK
6
CONTINUOUS
10
117.94
20
-78.8237
11
117.94
21
-79.6723
0
LINE
8
BLACK
6
CONTINUOUS
10
117.94
20
-79.6723
11
118.788
21
-79.6723
0
LINE
8
BLACK
6
CONTINUOUS
10
146.728
20
-117.645
11
146.728
21
-116.797
0
LINE
8
BLACK
6
CONTINUOUS
10
146.728
20
-116.797
11
145.88
21
-116.797
0
LINE
8
BLACK
6
CONTINUOUS
10
145.88
20
-116.797
11
145.88
21
-117.645
0
LINE
8
BLACK
6
CONTINUOUS
10
145.88
20
-117.645
11
146.728
21
-117.645
0
LINE
8
BLACK
6
CONTINUOUS
10
146.728
20
-120.185
11
146.728
21
-119.337
0
LINE
8
BLACK
6
CONTINUOUS
10
146.728
20
-119.337
11
145.88
21
-119.337
0
LINE
8
BLACK
6
CONTINUOUS
10
145.88
20
-119.337
11
145.88
21
-120.185
0
LINE
8
BLACK
6
CONTINUOUS
10
145.88
20
-120.185
11
146.728
21
-120.185
0
LINE
8
BLACK
6
CONTINUOUS
10
146.728
20
-122.725
11
146.728
21
-121.877
0
LINE
8
BLACK
6
CONTINUOUS
10
146.728
20
-121.877
11
145.88
21
-121.877
0
LINE
8
BLACK
6
CONTINUOUS
10
145.88
20
-121.877
11
145.88
21
-122.725
0
LINE
8
BLACK
6
CONTINUOUS
10
145.88
20
-122.725
11
146.728
21
-122.725
0
LINE
8
BLACK
6
CONTINUOUS
10
151.681
20
-77.3863
11
151.681
21
-76.5377
0
LINE
8
BLACK
6
CONTINUOUS
10
151.681
20
-76.5377
11
150.833
21
-76.5377
0
LINE
8
BLACK
6
CONTINUOUS
10
150.833
20
-76.5377
11
150.833
21
-77.3863
0
LINE
8
BLACK
6
CONTINUOUS
10
150.833
20
-77.3863
11
151.681
21
-77.3863
0
LINE
8
BLACK
6
CONTINUOUS
10
151.681
20
-79.9263
11
151.681
21
-79.0777
0
LINE
8
BLACK
6
CONTINUOUS
10
151.681
20
-79.0777
11
150.833
21
-79.0777
0
LINE
8
BLACK
6
CONTINUOUS
10
150.833
20
-79.0777
11
150.833
21
-79.9263
0
LINE
8
BLACK
6
CONTINUOUS
10
150.833
20
-79.9263
11
151.681
21
-79.9263
0
LINE
8
BLACK
6
CONTINUOUS
10
151.681
20
-82.4663
11
151.681
21
-81.6177
0
LINE
8
BLACK
6
CONTINUOUS
10
151.681
20
-81.6177
11
150.833
21
-81.6177
0
LINE
8
BLACK
6
CONTINUOUS
10
150.833
20
-81.6177
11
150.833
21
-82.4663
0
LINE
8
BLACK
6
CONTINUOUS
10
150.833
20
-82.4663
11
151.681
21
-82.4663
0
LINE
8
BLACK
6
CONTINUOUS
10
151.681
20
-85.0063
11
151.681
21
-84.1577
0
LINE
8
BLACK
6
CONTINUOUS
10
151.681
20
-84.1577
11
150.833
21
-84.1577
0
LINE
8
BLACK
6
CONTINUOUS
10
150.833
20
-84.1577
11
150.833
21
-85.0063
0
LINE
8
BLACK
6
CONTINUOUS
10
150.833
20
-85.0063
11
151.681
21
-85.0063
0
LINE
8
BLACK
6
CONTINUOUS
10
151.681
20
-87.5463
11
151.681
21
-86.6977
0
LINE
8
BLACK
6
CONTINUOUS
10
151.681
20
-86.6977
11
150.833
21
-86.6977
0
LINE
8
BLACK
6
CONTINUOUS
10
150.833
20
-86.6977
11
150.833
21
-87.5463
0
LINE
8
BLACK
6
CONTINUOUS
10
150.833
20
-87.5463
11
151.681
21
-87.5463
0
LINE
8
BLACK
6
CONTINUOUS
10
151.681
20
-90.0863
11
151.681
21
-89.2377
0
LINE
8
BLACK
6
CONTINUOUS
10
151.681
20
-89.2377
11
150.833
21
-89.2377
0
LINE
8
BLACK
6
CONTINUOUS
10
150.833
20
-89.2377
11
150.833
21
-90.0863
0
LINE
8
BLACK
6
CONTINUOUS
10
150.833
20
-90.0863
11
151.681
21
-90.0863
0
LINE
8
BLACK
6
CONTINUOUS
10
151.681
20
-92.6263
11
151.681
21
-91.7777
0
LINE
8
BLACK
6
CONTINUOUS
10
151.681
20
-91.7777
11
150.833
21
-91.7777
0
LINE
8
BLACK
6
CONTINUOUS
10
150.833
20
-91.7777
11
150.833
21
-92.6263
0
LINE
8
BLACK
6
CONTINUOUS
10
150.833
20
-92.6263
11
151.681
21
-92.6263
0
LINE
8
BLACK
6
CONTINUOUS
10
151.681
20
-95.1663
11
151.681
21
-94.3177
0
LINE
8
BLACK
6
CONTINUOUS
10
151.681
20
-94.3177
11
150.833
21
-94.3177
0
LINE
8
BLACK
6
CONTINUOUS
10
150.833
20
-94.3177
11
150.833
21
-95.1663
0
LINE
8
BLACK
6
CONTINUOUS
10
150.833
20
-95.1663
11
151.681
21
-95.1663
0
LINE
8
BLACK
6
CONTINUOUS
10
161.333
20
-83.3553
11
161.333
21
-82.5067
0
LINE
8
BLACK
6
CONTINUOUS
10
161.333
20
-82.5067
11
160.485
21
-82.5067
0
LINE
8
BLACK
6
CONTINUOUS
10
160.485
20
-82.5067
11
160.485
21
-83.3553
0
LINE
8
BLACK
6
CONTINUOUS
10
160.485
20
-83.3553
11
161.333
21
-83.3553
0
LINE
8
BLACK
6
CONTINUOUS
10
161.333
20
-85.8953
11
161.333
21
-85.0467
0
LINE
8
BLACK
6
CONTINUOUS
10
161.333
20
-85.0467
11
160.485
21
-85.0467
0
LINE
8
BLACK
6
CONTINUOUS
10
160.485
20
-85.0467
11
160.485
21
-85.8953
0
LINE
8
BLACK
6
CONTINUOUS
10
160.485
20
-85.8953
11
161.333
21
-85.8953
0
LINE
8
BLACK
6
CONTINUOUS
10
161.333
20
-88.4353
11
161.333
21
-87.5867
0
LINE
8
BLACK
6
CONTINUOUS
10
161.333
20
-87.5867
11
160.485
21
-87.5867
0
LINE
8
BLACK
6
CONTINUOUS
10
160.485
20
-87.5867
11
160.485
21
-88.4353
0
LINE
8
BLACK
6
CONTINUOUS
10
160.485
20
-88.4353
11
161.333
21
-88.4353
0
LINE
8
BLACK
6
CONTINUOUS
10
170.477
20
-85.6413
11
170.477
21
-84.7927
0
LINE
8
BLACK
6
CONTINUOUS
10
170.477
20
-84.7927
11
169.629
21
-84.7927
0
LINE
8
BLACK
6
CONTINUOUS
10
169.629
20
-84.7927
11
169.629
21
-85.6413
0
LINE
8
BLACK
6
CONTINUOUS
10
169.629
20
-85.6413
11
170.477
21
-85.6413
0
LINE
8
BLACK
6
CONTINUOUS
10
170.477
20
-88.1813
11
170.477
21
-87.3327
0
LINE
8
BLACK
6
CONTINUOUS
10
170.477
20
-87.3327
11
169.629
21
-87.3327
0
LINE
8
BLACK
6
CONTINUOUS
10
169.629
20
-87.3327
11
169.629
21
-88.1813
0
LINE
8
BLACK
6
CONTINUOUS
10
169.629
20
-88.1813
11
170.477
21
-88.1813
0
LINE
8
BLACK
6
CONTINUOUS
10
170.477
20
-90.7213
11
170.477
21
-89.8727
0
LINE
8
BLACK
6
CONTINUOUS
10
170.477
20
-89.8727
11
169.629
21
-89.8727
0
LINE
8
BLACK
6
CONTINUOUS
10
169.629
20
-89.8727
11
169.629
21
-90.7213
0
LINE
8
BLACK
6
CONTINUOUS
10
169.629
20
-90.7213
11
170.477
21
-90.7213
0
LINE
8
BLACK
6
CONTINUOUS
10
170.477
20
-93.2613
11
170.477
21
-92.4127
0
LINE
8
BLACK
6
CONTINUOUS
10
170.477
20
-92.4127
11
169.629
21
-92.4127
0
LINE
8
BLACK
6
CONTINUOUS
10
169.629
20
-92.4127
11
169.629
21
-93.2613
0
LINE
8
BLACK
6
CONTINUOUS
10
169.629
20
-93.2613
11
170.477
21
-93.2613
0
LINE
8
BLACK
6
CONTINUOUS
10
176.192
20
-97.8333
11
176.192
21
-96.9847
0
LINE
8
BLACK
6
CONTINUOUS
10
176.192
20
-96.9847
11
175.344
21
-96.9847
0
LINE
8
BLACK
6
CONTINUOUS
10
175.344
20
-96.9847
11
175.344
21
-97.8333
0
LINE
8
BLACK
6
CONTINUOUS
10
175.344
20
-97.8333
11
176.192
21
-97.8333
0
LINE
8
BLACK
6
CONTINUOUS
10
176.192
20
-100.373
11
176.192
21
-99.5247
0
LINE
8
BLACK
6
CONTINUOUS
10
176.192
20
-99.5247
11
175.344
21
-99.5247
0
LINE
8
BLACK
6
CONTINUOUS
10
175.344
20
-99.5247
11
175.344
21
-100.373
0
LINE
8
BLACK
6
CONTINUOUS
10
175.344
20
-100.373
11
176.192
21
-100.373
0
LINE
8
BLACK
6
CONTINUOUS
10
176.192
20
-102.913
11
176.192
21
-102.065
0
LINE
8
BLACK
6
CONTINUOUS
10
176.192
20
-102.065
11
175.344
21
-102.065
0
LINE
8
BLACK
6
CONTINUOUS
10
175.344
20
-102.065
11
175.344
21
-102.913
0
LINE
8
BLACK
6
CONTINUOUS
10
175.344
20
-102.913
11
176.192
21
-102.913
0
LINE
8
BLACK
6
CONTINUOUS
10
176.192
20
-105.453
11
176.192
21
-104.605
0
LINE
8
BLACK
6
CONTINUOUS
10
176.192
20
-104.605
11
175.344
21
-104.605
0
LINE
8
BLACK
6
CONTINUOUS
10
175.344
20
-104.605
11
175.344
21
-105.453
0
LINE
8
BLACK
6
CONTINUOUS
10
175.344
20
-105.453
11
176.192
21
-105.453
0
LINE
8
BLACK
6
CONTINUOUS
10
176.192
20
-107.993
11
176.192
21
-107.145
0
LINE
8
BLACK
6
CONTINUOUS
10
176.192
20
-107.145
11
175.344
21
-107.145
0
LINE
8
BLACK
6
CONTINUOUS
10
175.344
20
-107.145
11
175.344
21
-107.993
0
LINE
8
BLACK
6
CONTINUOUS
10
175.344
20
-107.993
11
176.192
21
-107.993
0
LINE
8
BLACK
6
CONTINUOUS
10
176.192
20
-110.533
11
176.192
21
-109.685
0
LINE
8
BLACK
6
CONTINUOUS
10
176.192
20
-109.685
11
175.344
21
-109.685
0
LINE
8
BLACK
6
CONTINUOUS
10
175.344
20
-109.685
11
175.344
21
-110.533
0
LINE
8
BLACK
6
CONTINUOUS
10
175.344
20
-110.533
11
176.192
21
-110.533
0
LINE
8
BLACK
6
CONTINUOUS
10
176.192
20
-126.408
11
176.192
21
-125.56
0
LINE
8
BLACK
6
CONTINUOUS
10
176.192
20
-125.56
11
175.344
21
-125.56
0
LINE
8
BLACK
6
CONTINUOUS
10
175.344
20
-125.56
11
175.344
21
-126.408
0
LINE
8
BLACK
6
CONTINUOUS
10
175.344
20
-126.408
11
176.192
21
-126.408
0
LINE
8
BLACK
6
CONTINUOUS
10
176.192
20
-128.948
11
176.192
21
-128.1
0
LINE
8
BLACK
6
CONTINUOUS
10
176.192
20
-128.1
11
175.344
21
-128.1
0
LINE
8
BLACK
6
CONTINUOUS
10
175.344
20
-128.1
11
175.344
21
-128.948
0
LINE
8
BLACK
6
CONTINUOUS
10
175.344
20
-128.948
11
176.192
21
-128.948
0
LINE
8
BLACK
6
CONTINUOUS
10
176.192
20
-131.488
11
176.192
21
-130.64
0
LINE
8
BLACK
6
CONTINUOUS
10
176.192
20
-130.64
11
175.344
21
-130.64
0
LINE
8
BLACK
6
CONTINUOUS
10
175.344
20
-130.64
11
175.344
21
-131.488
0
LINE
8
BLACK
6
CONTINUOUS
10
175.344
20
-131.488
11
176.192
21
-131.488
0
LINE
8
BLACK
6
CONTINUOUS
10
176.192
20
-134.028
11
176.192
21
-133.18
0
LINE
8
BLACK
6
CONTINUOUS
10
176.192
20
-133.18
11
175.344
21
-133.18
0
LINE
8
BLACK
6
CONTINUOUS
10
175.344
20
-133.18
11
175.344
21
-134.028
0
LINE
8
BLACK
6
CONTINUOUS
10
175.344
20
-134.028
11
176.192
21
-134.028
0
LINE
8
BLACK
6
CONTINUOUS
10
176.192
20
-136.568
11
176.192
21
-135.72
0
LINE
8
BLACK
6
CONTINUOUS
10
176.192
20
-135.72
11
175.344
21
-135.72
0
LINE
8
BLACK
6
CONTINUOUS
10
175.344
20
-135.72
11
175.344
21
-136.568
0
LINE
8
BLACK
6
CONTINUOUS
10
175.344
20
-136.568
11
176.192
21
-136.568
0
LINE
8
BLACK
6
CONTINUOUS
10
176.192
20
-139.108
11
176.192
21
-138.26
0
LINE
8
BLACK
6
CONTINUOUS
10
176.192
20
-138.26
11
175.344
21
-138.26
0
LINE
8
BLACK
6
CONTINUOUS
10
175.344
20
-138.26
11
175.344
21
-139.108
0
LINE
8
BLACK
6
CONTINUOUS
10
175.344
20
-139.108
11
176.192
21
-139.108
0
LINE
8
BLACK
6
CONTINUOUS
10
161.46
20
-59.3523
11
161.46
21
-58.5037
0
LINE
8
BLACK
6
CONTINUOUS
10
161.46
20
-58.5037
11
160.612
21
-58.5037
0
LINE
8
BLACK
6
CONTINUOUS
10
160.612
20
-58.5037
11
160.612
21
-59.3523
0
LINE
8
BLACK
6
CONTINUOUS
10
160.612
20
-59.3523
11
161.46
21
-59.3523
0
LINE
8
BLACK
6
CONTINUOUS
10
161.46
20
-61.8923
11
161.46
21
-61.0437
0
LINE
8
BLACK
6
CONTINUOUS
10
161.46
20
-61.0437
11
160.612
21
-61.0437
0
LINE
8
BLACK
6
CONTINUOUS
10
160.612
20
-61.0437
11
160.612
21
-61.8923
0
LINE
8
BLACK
6
CONTINUOUS
10
160.612
20
-61.8923
11
161.46
21
-61.8923
0
LINE
8
BLACK
6
CONTINUOUS
10
161.46
20
-64.4323
11
161.46
21
-63.5837
0
LINE
8
BLACK
6
CONTINUOUS
10
161.46
20
-63.5837
11
160.612
21
-63.5837
0
LINE
8
BLACK
6
CONTINUOUS
10
160.612
20
-63.5837
11
160.612
21
-64.4323
0
LINE
8
BLACK
6
CONTINUOUS
10
160.612
20
-64.4323
11
161.46
21
-64.4323
0
LINE
8
BLACK
6
CONTINUOUS
10
151.681
20
-67.3533
11
151.681
21
-66.5047
0
LINE
8
BLACK
6
CONTINUOUS
10
151.681
20
-66.5047
11
150.833
21
-66.5047
0
LINE
8
BLACK
6
CONTINUOUS
10
150.833
20
-66.5047
11
150.833
21
-67.3533
0
LINE
8
BLACK
6
CONTINUOUS
10
150.833
20
-67.3533
11
151.681
21
-67.3533
0
LINE
8
BLACK
6
CONTINUOUS
10
151.681
20
-69.8933
11
151.681
21
-69.0447
0
LINE
8
BLACK
6
CONTINUOUS
10
151.681
20
-69.0447
11
150.833
21
-69.0447
0
LINE
8
BLACK
6
CONTINUOUS
10
150.833
20
-69.0447
11
150.833
21
-69.8933
0
LINE
8
BLACK
6
CONTINUOUS
10
150.833
20
-69.8933
11
151.681
21
-69.8933
0
LINE
8
BLACK
6
CONTINUOUS
10
151.681
20
-72.4333
11
151.681
21
-71.5847
0
LINE
8
BLACK
6
CONTINUOUS
10
151.681
20
-71.5847
11
150.833
21
-71.5847
0
LINE
8
BLACK
6
CONTINUOUS
10
150.833
20
-71.5847
11
150.833
21
-72.4333
0
LINE
8
BLACK
6
CONTINUOUS
10
150.833
20
-72.4333
11
151.681
21
-72.4333
0
LINE
8
BLACK
6
CONTINUOUS
10
188.257
20
-129.583
11
188.257
21
-128.735
0
LINE
8
BLACK
6
CONTINUOUS
10
188.257
20
-128.735
11
187.409
21
-128.735
0
LINE
8
BLACK
6
CONTINUOUS
10
187.409
20
-128.735
11
187.409
21
-129.583
0
LINE
8
BLACK
6
CONTINUOUS
10
187.409
20
-129.583
11
188.257
21
-129.583
0
LINE
8
BLACK
6
CONTINUOUS
10
188.257
20
-132.123
11
188.257
21
-131.275
0
LINE
8
BLACK
6
CONTINUOUS
10
188.257
20
-131.275
11
187.409
21
-131.275
0
LINE
8
BLACK
6
CONTINUOUS
10
187.409
20
-131.275
11
187.409
21
-132.123
0
LINE
8
BLACK
6
CONTINUOUS
10
187.409
20
-132.123
11
188.257
21
-132.123
0
LINE
8
BLACK
6
CONTINUOUS
10
188.257
20
-134.663
11
188.257
21
-133.815
0
LINE
8
BLACK
6
CONTINUOUS
10
188.257
20
-133.815
11
187.409
21
-133.815
0
LINE
8
BLACK
6
CONTINUOUS
10
187.409
20
-133.815
11
187.409
21
-134.663
0
LINE
8
BLACK
6
CONTINUOUS
10
187.409
20
-134.663
11
188.257
21
-134.663
0
LINE
8
BLACK
6
CONTINUOUS
10
188.257
20
-137.203
11
188.257
21
-136.355
0
LINE
8
BLACK
6
CONTINUOUS
10
188.257
20
-136.355
11
187.409
21
-136.355
0
LINE
8
BLACK
6
CONTINUOUS
10
187.409
20
-136.355
11
187.409
21
-137.203
0
LINE
8
BLACK
6
CONTINUOUS
10
187.409
20
-137.203
11
188.257
21
-137.203
0
LINE
8
BLACK
6
CONTINUOUS
10
146.728
20
-99.2303
11
146.728
21
-98.3817
0
LINE
8
BLACK
6
CONTINUOUS
10
146.728
20
-98.3817
11
145.88
21
-98.3817
0
LINE
8
BLACK
6
CONTINUOUS
10
145.88
20
-98.3817
11
145.88
21
-99.2303
0
LINE
8
BLACK
6
CONTINUOUS
10
145.88
20
-99.2303
11
146.728
21
-99.2303
0
LINE
8
BLACK
6
CONTINUOUS
10
146.728
20
-101.77
11
146.728
21
-100.922
0
LINE
8
BLACK
6
CONTINUOUS
10
146.728
20
-100.922
11
145.88
21
-100.922
0
LINE
8
BLACK
6
CONTINUOUS
10
145.88
20
-100.922
11
145.88
21
-101.77
0
LINE
8
BLACK
6
CONTINUOUS
10
145.88
20
-101.77
11
146.728
21
-101.77
0
LINE
8
BLACK
6
CONTINUOUS
10
146.728
20
-104.31
11
146.728
21
-103.462
0
LINE
8
BLACK
6
CONTINUOUS
10
146.728
20
-103.462
11
145.88
21
-103.462
0
LINE
8
BLACK
6
CONTINUOUS
10
145.88
20
-103.462
11
145.88
21
-104.31
0
LINE
8
BLACK
6
CONTINUOUS
10
145.88
20
-104.31
11
146.728
21
-104.31
0
LINE
8
BLACK
6
CONTINUOUS
10
146.728
20
-106.85
11
146.728
21
-106.002
0
LINE
8
BLACK
6
CONTINUOUS
10
146.728
20
-106.002
11
145.88
21
-106.002
0
LINE
8
BLACK
6
CONTINUOUS
10
145.88
20
-106.002
11
145.88
21
-106.85
0
LINE
8
BLACK
6
CONTINUOUS
10
145.88
20
-106.85
11
146.728
21
-106.85
0
LINE
8
BLACK
6
CONTINUOUS
10
146.728
20
-109.39
11
146.728
21
-108.542
0
LINE
8
BLACK
6
CONTINUOUS
10
146.728
20
-108.542
11
145.88
21
-108.542
0
LINE
8
BLACK
6
CONTINUOUS
10
145.88
20
-108.542
11
145.88
21
-109.39
0
LINE
8
BLACK
6
CONTINUOUS
10
145.88
20
-109.39
11
146.728
21
-109.39
0
LINE
8
BLACK
6
CONTINUOUS
10
146.728
20
-111.93
11
146.728
21
-111.082
0
LINE
8
BLACK
6
CONTINUOUS
10
146.728
20
-111.082
11
145.88
21
-111.082
0
LINE
8
BLACK
6
CONTINUOUS
10
145.88
20
-111.082
11
145.88
21
-111.93
0
LINE
8
BLACK
6
CONTINUOUS
10
145.88
20
-111.93
11
146.728
21
-111.93
0
LINE
8
BLACK
6
CONTINUOUS
10
188.13
20
-49.3193
11
188.13
21
-48.4707
0
LINE
8
BLACK
6
CONTINUOUS
10
188.13
20
-48.4707
11
187.282
21
-48.4707
0
LINE
8
BLACK
6
CONTINUOUS
10
187.282
20
-48.4707
11
187.282
21
-49.3193
0
LINE
8
BLACK
6
CONTINUOUS
10
187.282
20
-49.3193
11
188.13
21
-49.3193
0
LINE
8
BLACK
6
CONTINUOUS
10
188.13
20
-51.8593
11
188.13
21
-51.0107
0
LINE
8
BLACK
6
CONTINUOUS
10
188.13
20
-51.0107
11
187.282
21
-51.0107
0
LINE
8
BLACK
6
CONTINUOUS
10
187.282
20
-51.0107
11
187.282
21
-51.8593
0
LINE
8
BLACK
6
CONTINUOUS
10
187.282
20
-51.8593
11
188.13
21
-51.8593
0
LINE
8
BLACK
6
CONTINUOUS
10
188.13
20
-54.3993
11
188.13
21
-53.5507
0
LINE
8
BLACK
6
CONTINUOUS
10
188.13
20
-53.5507
11
187.282
21
-53.5507
0
LINE
8
BLACK
6
CONTINUOUS
10
187.282
20
-53.5507
11
187.282
21
-54.3993
0
LINE
8
BLACK
6
CONTINUOUS
10
187.282
20
-54.3993
11
188.13
21
-54.3993
0
LINE
8
BLACK
6
CONTINUOUS
10
188.13
20
-56.9393
11
188.13
21
-56.0907
0
LINE
8
BLACK
6
CONTINUOUS
10
188.13
20
-56.0907
11
187.282
21
-56.0907
0
LINE
8
BLACK
6
CONTINUOUS
10
187.282
20
-56.0907
11
187.282
21
-56.9393
0
LINE
8
BLACK
6
CONTINUOUS
10
187.282
20
-56.9393
11
188.13
21
-56.9393
0
LINE
8
BLACK
6
CONTINUOUS
10
188.13
20
-59.4793
11
188.13
21
-58.6307
0
LINE
8
BLACK
6
CONTINUOUS
10
188.13
20
-58.6307
11
187.282
21
-58.6307
0
LINE
8
BLACK
6
CONTINUOUS
10
187.282
20
-58.6307
11
187.282
21
-59.4793
0
LINE
8
BLACK
6
CONTINUOUS
10
187.282
20
-59.4793
11
188.13
21
-59.4793
0
LINE
8
BLACK
6
CONTINUOUS
10
188.13
20
-62.0193
11
188.13
21
-61.1707
0
LINE
8
BLACK
6
CONTINUOUS
10
188.13
20
-61.1707
11
187.282
21
-61.1707
0
LINE
8
BLACK
6
CONTINUOUS
10
187.282
20
-61.1707
11
187.282
21
-62.0193
0
LINE
8
BLACK
6
CONTINUOUS
10
187.282
20
-62.0193
11
188.13
21
-62.0193
0
LINE
8
BLACK
6
CONTINUOUS
10
188.257
20
-67.7343
11
188.257
21
-66.8857
0
LINE
8
BLACK
6
CONTINUOUS
10
188.257
20
-66.8857
11
187.409
21
-66.8857
0
LINE
8
BLACK
6
CONTINUOUS
10
187.409
20
-66.8857
11
187.409
21
-67.7343
0
LINE
8
BLACK
6
CONTINUOUS
10
187.409
20
-67.7343
11
188.257
21
-67.7343
0
LINE
8
BLACK
6
CONTINUOUS
10
188.257
20
-70.2743
11
188.257
21
-69.4257
0
LINE
8
BLACK
6
CONTINUOUS
10
188.257
20
-69.4257
11
187.409
21
-69.4257
0
LINE
8
BLACK
6
CONTINUOUS
10
187.409
20
-69.4257
11
187.409
21
-70.2743
0
LINE
8
BLACK
6
CONTINUOUS
10
187.409
20
-70.2743
11
188.257
21
-70.2743
0
LINE
8
BLACK
6
CONTINUOUS
10
188.257
20
-72.8143
11
188.257
21
-71.9657
0
LINE
8
BLACK
6
CONTINUOUS
10
188.257
20
-71.9657
11
187.409
21
-71.9657
0
LINE
8
BLACK
6
CONTINUOUS
10
187.409
20
-71.9657
11
187.409
21
-72.8143
0
LINE
8
BLACK
6
CONTINUOUS
10
187.409
20
-72.8143
11
188.257
21
-72.8143
0
LINE
8
BLACK
6
CONTINUOUS
10
188.257
20
-75.3543
11
188.257
21
-74.5057
0
LINE
8
BLACK
6
CONTINUOUS
10
188.257
20
-74.5057
11
187.409
21
-74.5057
0
LINE
8
BLACK
6
CONTINUOUS
10
187.409
20
-74.5057
11
187.409
21
-75.3543
0
LINE
8
BLACK
6
CONTINUOUS
10
187.409
20
-75.3543
11
188.257
21
-75.3543
0
LINE
8
BLACK
6
CONTINUOUS
10
188.257
20
-77.8943
11
188.257
21
-77.0457
0
LINE
8
BLACK
6
CONTINUOUS
10
188.257
20
-77.0457
11
187.409
21
-77.0457
0
LINE
8
BLACK
6
CONTINUOUS
10
187.409
20
-77.0457
11
187.409
21
-77.8943
0
LINE
8
BLACK
6
CONTINUOUS
10
187.409
20
-77.8943
11
188.257
21
-77.8943
0
LINE
8
BLACK
6
CONTINUOUS
10
188.257
20
-80.4343
11
188.257
21
-79.5857
0
LINE
8
BLACK
6
CONTINUOUS
10
188.257
20
-79.5857
11
187.409
21
-79.5857
0
LINE
8
BLACK
6
CONTINUOUS
10
187.409
20
-79.5857
11
187.409
21
-80.4343
0
LINE
8
BLACK
6
CONTINUOUS
10
187.409
20
-80.4343
11
188.257
21
-80.4343
0
LINE
8
BLACK
6
CONTINUOUS
10
188.257
20
-82.9743
11
188.257
21
-82.1257
0
LINE
8
BLACK
6
CONTINUOUS
10
188.257
20
-82.1257
11
187.409
21
-82.1257
0
LINE
8
BLACK
6
CONTINUOUS
10
187.409
20
-82.1257
11
187.409
21
-82.9743
0
LINE
8
BLACK
6
CONTINUOUS
10
187.409
20
-82.9743
11
188.257
21
-82.9743
0
LINE
8
BLACK
6
CONTINUOUS
10
188.257
20
-85.5143
11
188.257
21
-84.6657
0
LINE
8
BLACK
6
CONTINUOUS
10
188.257
20
-84.6657
11
187.409
21
-84.6657
0
LINE
8
BLACK
6
CONTINUOUS
10
187.409
20
-84.6657
11
187.409
21
-85.5143
0
LINE
8
BLACK
6
CONTINUOUS
10
187.409
20
-85.5143
11
188.257
21
-85.5143
0
LINE
8
BLACK
6
CONTINUOUS
10
176.192
20
-114.851
11
176.192
21
-114.003
0
LINE
8
BLACK
6
CONTINUOUS
10
176.192
20
-114.003
11
175.344
21
-114.003
0
LINE
8
BLACK
6
CONTINUOUS
10
175.344
20
-114.003
11
175.344
21
-114.851
0
LINE
8
BLACK
6
CONTINUOUS
10
175.344
20
-114.851
11
176.192
21
-114.851
0
LINE
8
BLACK
6
CONTINUOUS
10
176.192
20
-117.391
11
176.192
21
-116.543
0
LINE
8
BLACK
6
CONTINUOUS
10
176.192
20
-116.543
11
175.344
21
-116.543
0
LINE
8
BLACK
6
CONTINUOUS
10
175.344
20
-116.543
11
175.344
21
-117.391
0
LINE
8
BLACK
6
CONTINUOUS
10
175.344
20
-117.391
11
176.192
21
-117.391
0
LINE
8
BLACK
6
CONTINUOUS
10
176.192
20
-119.931
11
176.192
21
-119.083
0
LINE
8
BLACK
6
CONTINUOUS
10
176.192
20
-119.083
11
175.344
21
-119.083
0
LINE
8
BLACK
6
CONTINUOUS
10
175.344
20
-119.083
11
175.344
21
-119.931
0
LINE
8
BLACK
6
CONTINUOUS
10
175.344
20
-119.931
11
176.192
21
-119.931
0
LINE
8
BLACK
6
CONTINUOUS
10
176.192
20
-122.471
11
176.192
21
-121.623
0
LINE
8
BLACK
6
CONTINUOUS
10
176.192
20
-121.623
11
175.344
21
-121.623
0
LINE
8
BLACK
6
CONTINUOUS
10
175.344
20
-121.623
11
175.344
21
-122.471
0
LINE
8
BLACK
6
CONTINUOUS
10
175.344
20
-122.471
11
176.192
21
-122.471
0
LINE
8
BLACK
6
CONTINUOUS
10
146.728
20
-127.551
11
146.728
21
-126.703
0
LINE
8
BLACK
6
CONTINUOUS
10
146.728
20
-126.703
11
145.88
21
-126.703
0
LINE
8
BLACK
6
CONTINUOUS
10
145.88
20
-126.703
11
145.88
21
-127.551
0
LINE
8
BLACK
6
CONTINUOUS
10
145.88
20
-127.551
11
146.728
21
-127.551
0
LINE
8
BLACK
6
CONTINUOUS
10
146.728
20
-130.091
11
146.728
21
-129.243
0
LINE
8
BLACK
6
CONTINUOUS
10
146.728
20
-129.243
11
145.88
21
-129.243
0
LINE
8
BLACK
6
CONTINUOUS
10
145.88
20
-129.243
11
145.88
21
-130.091
0
LINE
8
BLACK
6
CONTINUOUS
10
145.88
20
-130.091
11
146.728
21
-130.091
0
LINE
8
BLACK
6
CONTINUOUS
10
146.728
20
-132.631
11
146.728
21
-131.783
0
LINE
8
BLACK
6
CONTINUOUS
10
146.728
20
-131.783
11
145.88
21
-131.783
0
LINE
8
BLACK
6
CONTINUOUS
10
145.88
20
-131.783
11
145.88
21
-132.631
0
LINE
8
BLACK
6
CONTINUOUS
10
145.88
20
-132.631
11
146.728
21
-132.631
0
LINE
8
BLACK
6
CONTINUOUS
10
146.728
20
-135.171
11
146.728
21
-134.323
0
LINE
8
BLACK
6
CONTINUOUS
10
146.728
20
-134.323
11
145.88
21
-134.323
0
LINE
8
BLACK
6
CONTINUOUS
10
145.88
20
-134.323
11
145.88
21
-135.171
0
LINE
8
BLACK
6
CONTINUOUS
10
145.88
20
-135.171
11
146.728
21
-135.171
0
LINE
8
BLACK
6
CONTINUOUS
10
146.728
20
-137.711
11
146.728
21
-136.863
0
LINE
8
BLACK
6
CONTINUOUS
10
146.728
20
-136.863
11
145.88
21
-136.863
0
LINE
8
BLACK
6
CONTINUOUS
10
145.88
20
-136.863
11
145.88
21
-137.711
0
LINE
8
BLACK
6
CONTINUOUS
10
145.88
20
-137.711
11
146.728
21
-137.711
0
LINE
8
BLACK
6
CONTINUOUS
10
146.728
20
-140.251
11
146.728
21
-139.403
0
LINE
8
BLACK
6
CONTINUOUS
10
146.728
20
-139.403
11
145.88
21
-139.403
0
LINE
8
BLACK
6
CONTINUOUS
10
145.88
20
-139.403
11
145.88
21
-140.251
0
LINE
8
BLACK
6
CONTINUOUS
10
145.88
20
-140.251
11
146.728
21
-140.251
0
LINE
8
BLACK
6
CONTINUOUS
10
115.869
20
-146.922
11
115.869
21
-143.922
0
LINE
8
BLACK
6
CONTINUOUS
10
115.869
20
-143.922
11
116.584
21
-143.922
0
LINE
8
BLACK
6
CONTINUOUS
10
116.584
20
-143.922
11
117.012
21
-144.065
0
LINE
8
BLACK
6
CONTINUOUS
10
117.012
20
-144.065
11
117.298
21
-144.351
0
LINE
8
BLACK
6
CONTINUOUS
10
117.298
20
-144.351
11
117.441
21
-144.636
0
LINE
8
BLACK
6
CONTINUOUS
10
117.441
20
-144.636
11
117.584
21
-145.208
0
LINE
8
BLACK
6
CONTINUOUS
10
117.584
20
-145.208
11
117.584
21
-145.636
0
LINE
8
BLACK
6
CONTINUOUS
10
117.584
20
-145.636
11
117.441
21
-146.208
0
LINE
8
BLACK
6
CONTINUOUS
10
117.441
20
-146.208
11
117.298
21
-146.494
0
LINE
8
BLACK
6
CONTINUOUS
10
117.298
20
-146.494
11
117.012
21
-146.779
0
LINE
8
BLACK
6
CONTINUOUS
10
117.012
20
-146.779
11
116.584
21
-146.922
0
LINE
8
BLACK
6
CONTINUOUS
10
116.584
20
-146.922
11
115.869
21
-146.922
0
LINE
8
BLACK
6
CONTINUOUS
10
118.869
20
-146.922
11
118.869
21
-144.922
0
LINE
8
BLACK
6
CONTINUOUS
10
118.869
20
-145.494
11
119.012
21
-145.208
0
LINE
8
BLACK
6
CONTINUOUS
10
119.012
20
-145.208
11
119.155
21
-145.065
0
LINE
8
BLACK
6
CONTINUOUS
10
119.155
20
-145.065
11
119.441
21
-144.922
0
LINE
8
BLACK
6
CONTINUOUS
10
119.441
20
-144.922
11
119.726
21
-144.922
0
LINE
8
BLACK
6
CONTINUOUS
10
120.726
20
-146.922
11
120.726
21
-144.922
0
LINE
8
BLACK
6
CONTINUOUS
10
120.726
20
-143.922
11
120.584
21
-144.065
0
LINE
8
BLACK
6
CONTINUOUS
10
120.584
20
-144.065
11
120.726
21
-144.208
0
LINE
8
BLACK
6
CONTINUOUS
10
120.726
20
-144.208
11
120.869
21
-144.065
0
LINE
8
BLACK
6
CONTINUOUS
10
120.869
20
-144.065
11
120.726
21
-143.922
0
LINE
8
BLACK
6
CONTINUOUS
10
120.726
20
-143.922
11
120.726
21
-144.208
0
LINE
8
BLACK
6
CONTINUOUS
10
122.584
20
-146.922
11
122.298
21
-146.779
0
LINE
8
BLACK
6
CONTINUOUS
10
122.298
20
-146.779
11
122.155
21
-146.494
0
LINE
8
BLACK
6
CONTINUOUS
10
122.155
20
-146.494
11
122.155
21
-143.922
0
LINE
8
BLACK
6
CONTINUOUS
10
124.155
20
-146.922
11
123.869
21
-146.779
0
LINE
8
BLACK
6
CONTINUOUS
10
123.869
20
-146.779
11
123.726
21
-146.494
0
LINE
8
BLACK
6
CONTINUOUS
10
123.726
20
-146.494
11
123.726
21
-143.922
0
LINE
8
BLACK
6
CONTINUOUS
10
127.584
20
-146.922
11
127.584
21
-143.922
0
LINE
8
BLACK
6
CONTINUOUS
10
127.584
20
-143.922
11
128.584
21
-146.065
0
LINE
8
BLACK
6
CONTINUOUS
10
128.584
20
-146.065
11
129.584
21
-143.922
0
LINE
8
BLACK
6
CONTINUOUS
10
129.584
20
-143.922
11
129.584
21
-146.922
0
LINE
8
BLACK
6
CONTINUOUS
10
132.298
20
-146.922
11
132.298
21
-145.351
0
LINE
8
BLACK
6
CONTINUOUS
10
132.298
20
-145.351
11
132.155
21
-145.065
0
LINE
8
BLACK
6
CONTINUOUS
10
132.155
20
-145.065
11
131.869
21
-144.922
0
LINE
8
BLACK
6
CONTINUOUS
10
131.869
20
-144.922
11
131.298
21
-144.922
0
LINE
8
BLACK
6
CONTINUOUS
10
131.298
20
-144.922
11
131.012
21
-145.065
0
LINE
8
BLACK
6
CONTINUOUS
10
132.298
20
-146.779
11
132.012
21
-146.922
0
LINE
8
BLACK
6
CONTINUOUS
10
132.012
20
-146.922
11
131.298
21
-146.922
0
LINE
8
BLACK
6
CONTINUOUS
10
131.298
20
-146.922
11
131.012
21
-146.779
0
LINE
8
BLACK
6
CONTINUOUS
10
131.012
20
-146.779
11
130.869
21
-146.494
0
LINE
8
BLACK
6
CONTINUOUS
10
130.869
20
-146.494
11
130.869
21
-146.208
0
LINE
8
BLACK
6
CONTINUOUS
10
130.869
20
-146.208
11
131.012
21
-145.922
0
LINE
8
BLACK
6
CONTINUOUS
10
131.012
20
-145.922
11
131.298
21
-145.779
0
LINE
8
BLACK
6
CONTINUOUS
10
131.298
20
-145.779
11
132.012
21
-145.779
0
LINE
8
BLACK
6
CONTINUOUS
10
132.012
20
-145.779
11
132.298
21
-145.636
0
LINE
8
BLACK
6
CONTINUOUS
10
133.726
20
-144.922
11
133.726
21
-147.922
0
LINE
8
BLACK
6
CONTINUOUS
10
133.726
20
-145.065
11
134.012
21
-144.922
0
LINE
8
BLACK
6
CONTINUOUS
10
134.012
20
-144.922
11
134.584
21
-144.922
0
LINE
8
BLACK
6
CONTINUOUS
10
134.584
20
-144.922
11
134.869
21
-145.065
0
LINE
8
BLACK
6
CONTINUOUS
10
134.869
20
-145.065
11
135.012
21
-145.208
0
LINE
8
BLACK
6
CONTINUOUS
10
135.012
20
-145.208
11
135.155
21
-145.494
0
LINE
8
BLACK
6
CONTINUOUS
10
135.155
20
-145.494
11
135.155
21
-146.351
0
LINE
8
BLACK
6
CONTINUOUS
10
135.155
20
-146.351
11
135.012
21
-146.636
0
LINE
8
BLACK
6
CONTINUOUS
10
135.012
20
-146.636
11
134.869
21
-146.779
0
LINE
8
BLACK
6
CONTINUOUS
10
134.869
20
-146.779
11
134.584
21
-146.922
0
LINE
8
BLACK
6
CONTINUOUS
10
134.584
20
-146.922
11
134.012
21
-146.922
0
LINE
8
BLACK
6
CONTINUOUS
10
134.012
20
-146.922
11
133.726
21
-146.779
0
LINE
8
BLACK
6
CONTINUOUS
10
136.441
20
-146.636
11
136.584
21
-146.779
0
LINE
8
BLACK
6
CONTINUOUS
10
136.584
20
-146.779
11
136.441
21
-146.922
0
LINE
8
BLACK
6
CONTINUOUS
10
136.441
20
-146.922
11
136.298
21
-146.779
0
LINE
8
BLACK
6
CONTINUOUS
10
136.298
20
-146.779
11
136.441
21
-146.636
0
LINE
8
BLACK
6
CONTINUOUS
10
136.441
20
-146.636
11
136.441
21
-146.922
0
LINE
8
BLACK
6
CONTINUOUS
10
136.441
20
-145.065
11
136.584
21
-145.208
0
LINE
8
BLACK
6
CONTINUOUS
10
136.584
20
-145.208
11
136.441
21
-145.351
0
LINE
8
BLACK
6
CONTINUOUS
10
136.441
20
-145.351
11
136.298
21
-145.208
0
LINE
8
BLACK
6
CONTINUOUS
10
136.298
20
-145.208
11
136.441
21
-145.065
0
LINE
8
BLACK
6
CONTINUOUS
10
136.441
20
-145.065
11
136.441
21
-145.351
0
LINE
8
BLACK
6
CONTINUOUS
10
112.605
20
-151.665
11
113.005
21
-152.065
0
LINE
8
BLACK
6
CONTINUOUS
10
113.005
20
-151.665
11
112.605
21
-152.065
0
LINE
8
BLACK
6
CONTINUOUS
10
116.441
20
-150.222
11
116.726
21
-150.222
0
LINE
8
BLACK
6
CONTINUOUS
10
116.726
20
-150.222
11
117.012
21
-150.365
0
LINE
8
BLACK
6
CONTINUOUS
10
117.012
20
-150.365
11
117.155
21
-150.508
0
LINE
8
BLACK
6
CONTINUOUS
10
117.155
20
-150.508
11
117.298
21
-150.794
0
LINE
8
BLACK
6
CONTINUOUS
10
117.298
20
-150.794
11
117.441
21
-151.365
0
LINE
8
BLACK
6
CONTINUOUS
10
117.441
20
-151.365
11
117.441
21
-152.079
0
LINE
8
BLACK
6
CONTINUOUS
10
117.441
20
-152.079
11
117.298
21
-152.651
0
LINE
8
BLACK
6
CONTINUOUS
10
117.298
20
-152.651
11
117.155
21
-152.936
0
LINE
8
BLACK
6
CONTINUOUS
10
117.155
20
-152.936
11
117.012
21
-153.079
0
LINE
8
BLACK
6
CONTINUOUS
10
117.012
20
-153.079
11
116.726
21
-153.222
0
LINE
8
BLACK
6
CONTINUOUS
10
116.726
20
-153.222
11
116.441
21
-153.222
0
LINE
8
BLACK
6
CONTINUOUS
10
116.441
20
-153.222
11
116.155
21
-153.079
0
LINE
8
BLACK
6
CONTINUOUS
10
116.155
20
-153.079
11
116.012
21
-152.936
0
LINE
8
BLACK
6
CONTINUOUS
10
116.012
20
-152.936
11
115.869
21
-152.651
0
LINE
8
BLACK
6
CONTINUOUS
10
115.869
20
-152.651
11
115.726
21
-152.079
0
LINE
8
BLACK
6
CONTINUOUS
10
115.726
20
-152.079
11
115.726
21
-151.365
0
LINE
8
BLACK
6
CONTINUOUS
10
115.726
20
-151.365
11
115.869
21
-150.794
0
LINE
8
BLACK
6
CONTINUOUS
10
115.869
20
-150.794
11
116.012
21
-150.508
0
LINE
8
BLACK
6
CONTINUOUS
10
116.012
20
-150.508
11
116.155
21
-150.365
0
LINE
8
BLACK
6
CONTINUOUS
10
116.155
20
-150.365
11
116.441
21
-150.222
0
LINE
8
BLACK
6
CONTINUOUS
10
118.726
20
-152.936
11
118.869
21
-153.079
0
LINE
8
BLACK
6
CONTINUOUS
10
118.869
20
-153.079
11
118.726
21
-153.222
0
LINE
8
BLACK
6
CONTINUOUS
10
118.726
20
-153.222
11
118.584
21
-153.079
0
LINE
8
BLACK
6
CONTINUOUS
10
118.584
20
-153.079
11
118.726
21
-152.936
0
LINE
8
BLACK
6
CONTINUOUS
10
118.726
20
-152.936
11
118.726
21
-153.222
0
LINE
8
BLACK
6
CONTINUOUS
10
121.441
20
-151.222
11
121.441
21
-153.222
0
LINE
8
BLACK
6
CONTINUOUS
10
120.726
20
-150.079
11
120.012
21
-152.222
0
LINE
8
BLACK
6
CONTINUOUS
10
120.012
20
-152.222
11
121.869
21
-152.222
0
LINE
8
BLACK
6
CONTINUOUS
10
123.584
20
-150.222
11
123.869
21
-150.222
0
LINE
8
BLACK
6
CONTINUOUS
10
123.869
20
-150.222
11
124.155
21
-150.365
0
LINE
8
BLACK
6
CONTINUOUS
10
124.155
20
-150.365
11
124.298
21
-150.508
0
LINE
8
BLACK
6
CONTINUOUS
10
124.298
20
-150.508
11
124.441
21
-150.794
0
LINE
8
BLACK
6
CONTINUOUS
10
124.441
20
-150.794
11
124.584
21
-151.365
0
LINE
8
BLACK
6
CONTINUOUS
10
124.584
20
-151.365
11
124.584
21
-152.079
0
LINE
8
BLACK
6
CONTINUOUS
10
124.584
20
-152.079
11
124.441
21
-152.651
0
LINE
8
BLACK
6
CONTINUOUS
10
124.441
20
-152.651
11
124.298
21
-152.936
0
LINE
8
BLACK
6
CONTINUOUS
10
124.298
20
-152.936
11
124.155
21
-153.079
0
LINE
8
BLACK
6
CONTINUOUS
10
124.155
20
-153.079
11
123.869
21
-153.222
0
LINE
8
BLACK
6
CONTINUOUS
10
123.869
20
-153.222
11
123.584
21
-153.222
0
LINE
8
BLACK
6
CONTINUOUS
10
123.584
20
-153.222
11
123.298
21
-153.079
0
LINE
8
BLACK
6
CONTINUOUS
10
123.298
20
-153.079
11
123.155
21
-152.936
0
LINE
8
BLACK
6
CONTINUOUS
10
123.155
20
-152.936
11
123.012
21
-152.651
0
LINE
8
BLACK
6
CONTINUOUS
10
123.012
20
-152.651
11
122.869
21
-152.079
0
LINE
8
BLACK
6
CONTINUOUS
10
122.869
20
-152.079
11
122.869
21
-151.365
0
LINE
8
BLACK
6
CONTINUOUS
10
122.869
20
-151.365
11
123.012
21
-150.794
0
LINE
8
BLACK
6
CONTINUOUS
10
123.012
20
-150.794
11
123.155
21
-150.508
0
LINE
8
BLACK
6
CONTINUOUS
10
123.155
20
-150.508
11
123.298
21
-150.365
0
LINE
8
BLACK
6
CONTINUOUS
10
123.298
20
-150.365
11
123.584
21
-150.222
0
LINE
8
BLACK
6
CONTINUOUS
10
125.869
20
-153.222
11
125.869
21
-151.222
0
LINE
8
BLACK
6
CONTINUOUS
10
125.869
20
-151.508
11
126.012
21
-151.365
0
LINE
8
BLACK
6
CONTINUOUS
10
126.012
20
-151.365
11
126.298
21
-151.222
0
LINE
8
BLACK
6
CONTINUOUS
10
126.298
20
-151.222
11
126.726
21
-151.222
0
LINE
8
BLACK
6
CONTINUOUS
10
126.726
20
-151.222
11
127.012
21
-151.365
0
LINE
8
BLACK
6
CONTINUOUS
10
127.012
20
-151.365
11
127.155
21
-151.651
0
LINE
8
BLACK
6
CONTINUOUS
10
127.155
20
-151.651
11
127.155
21
-153.222
0
LINE
8
BLACK
6
CONTINUOUS
10
127.155
20
-151.651
11
127.298
21
-151.365
0
LINE
8
BLACK
6
CONTINUOUS
10
127.298
20
-151.365
11
127.584
21
-151.222
0
LINE
8
BLACK
6
CONTINUOUS
10
127.584
20
-151.222
11
128.012
21
-151.222
0
LINE
8
BLACK
6
CONTINUOUS
10
128.012
20
-151.222
11
128.298
21
-151.365
0
LINE
8
BLACK
6
CONTINUOUS
10
128.298
20
-151.365
11
128.441
21
-151.651
0
LINE
8
BLACK
6
CONTINUOUS
10
128.441
20
-151.651
11
128.441
21
-153.222
0
LINE
8
BLACK
6
CONTINUOUS
10
129.869
20
-153.222
11
129.869
21
-151.222
0
LINE
8
BLACK
6
CONTINUOUS
10
129.869
20
-151.508
11
130.012
21
-151.365
0
LINE
8
BLACK
6
CONTINUOUS
10
130.012
20
-151.365
11
130.298
21
-151.222
0
LINE
8
BLACK
6
CONTINUOUS
10
130.298
20
-151.222
11
130.726
21
-151.222
0
LINE
8
BLACK
6
CONTINUOUS
10
130.726
20
-151.222
11
131.012
21
-151.365
0
LINE
8
BLACK
6
CONTINUOUS
10
131.012
20
-151.365
11
131.155
21
-151.651
0
LINE
8
BLACK
6
CONTINUOUS
10
131.155
20
-151.651
11
131.155
21
-153.222
0
LINE
8
BLACK
6
CONTINUOUS
10
131.155
20
-151.651
11
131.298
21
-151.365
0
LINE
8
BLACK
6
CONTINUOUS
10
131.298
20
-151.365
11
131.584
21
-151.222
0
LINE
8
BLACK
6
CONTINUOUS
10
131.584
20
-151.222
11
132.012
21
-151.222
0
LINE
8
BLACK
6
CONTINUOUS
10
132.012
20
-151.222
11
132.298
21
-151.365
0
LINE
8
BLACK
6
CONTINUOUS
10
132.298
20
-151.365
11
132.441
21
-151.651
0
LINE
8
BLACK
6
CONTINUOUS
10
132.441
20
-151.651
11
132.441
21
-153.222
0
LINE
8
BLACK
6
CONTINUOUS
10
138.298
20
-150.079
11
135.726
21
-153.936
0
LINE
8
BLACK
6
CONTINUOUS
10
142.155
20
-150.222
11
142.441
21
-150.222
0
LINE
8
BLACK
6
CONTINUOUS
10
142.441
20
-150.222
11
142.726
21
-150.365
0
LINE
8
BLACK
6
CONTINUOUS
10
142.726
20
-150.365
11
142.869
21
-150.508
0
LINE
8
BLACK
6
CONTINUOUS
10
142.869
20
-150.508
11
143.012
21
-150.794
0
LINE
8
BLACK
6
CONTINUOUS
10
143.012
20
-150.794
11
143.155
21
-151.365
0
LINE
8
BLACK
6
CONTINUOUS
10
143.155
20
-151.365
11
143.155
21
-152.079
0
LINE
8
BLACK
6
CONTINUOUS
10
143.155
20
-152.079
11
143.012
21
-152.651
0
LINE
8
BLACK
6
CONTINUOUS
10
143.012
20
-152.651
11
142.869
21
-152.936
0
LINE
8
BLACK
6
CONTINUOUS
10
142.869
20
-152.936
11
142.726
21
-153.079
0
LINE
8
BLACK
6
CONTINUOUS
10
142.726
20
-153.079
11
142.441
21
-153.222
0
LINE
8
BLACK
6
CONTINUOUS
10
142.441
20
-153.222
11
142.155
21
-153.222
0
LINE
8
BLACK
6
CONTINUOUS
10
142.155
20
-153.222
11
141.869
21
-153.079
0
LINE
8
BLACK
6
CONTINUOUS
10
141.869
20
-153.079
11
141.726
21
-152.936
0
LINE
8
BLACK
6
CONTINUOUS
10
141.726
20
-152.936
11
141.584
21
-152.651
0
LINE
8
BLACK
6
CONTINUOUS
10
141.584
20
-152.651
11
141.441
21
-152.079
0
LINE
8
BLACK
6
CONTINUOUS
10
141.441
20
-152.079
11
141.441
21
-151.365
0
LINE
8
BLACK
6
CONTINUOUS
10
141.441
20
-151.365
11
141.584
21
-150.794
0
LINE
8
BLACK
6
CONTINUOUS
10
141.584
20
-150.794
11
141.726
21
-150.508
0
LINE
8
BLACK
6
CONTINUOUS
10
141.726
20
-150.508
11
141.869
21
-150.365
0
LINE
8
BLACK
6
CONTINUOUS
10
141.869
20
-150.365
11
142.155
21
-150.222
0
LINE
8
BLACK
6
CONTINUOUS
10
144.441
20
-152.936
11
144.584
21
-153.079
0
LINE
8
BLACK
6
CONTINUOUS
10
144.584
20
-153.079
11
144.441
21
-153.222
0
LINE
8
BLACK
6
CONTINUOUS
10
144.441
20
-153.222
11
144.298
21
-153.079
0
LINE
8
BLACK
6
CONTINUOUS
10
144.298
20
-153.079
11
144.441
21
-152.936
0
LINE
8
BLACK
6
CONTINUOUS
10
144.441
20
-152.936
11
144.441
21
-153.222
0
LINE
8
BLACK
6
CONTINUOUS
10
146.441
20
-150.222
11
146.726
21
-150.222
0
LINE
8
BLACK
6
CONTINUOUS
10
146.726
20
-150.222
11
147.012
21
-150.365
0
LINE
8
BLACK
6
CONTINUOUS
10
147.012
20
-150.365
11
147.155
21
-150.508
0
LINE
8
BLACK
6
CONTINUOUS
10
147.155
20
-150.508
11
147.298
21
-150.794
0
LINE
8
BLACK
6
CONTINUOUS
10
147.298
20
-150.794
11
147.441
21
-151.365
0
LINE
8
BLACK
6
CONTINUOUS
10
147.441
20
-151.365
11
147.441
21
-152.079
0
LINE
8
BLACK
6
CONTINUOUS
10
147.441
20
-152.079
11
147.298
21
-152.651
0
LINE
8
BLACK
6
CONTINUOUS
10
147.298
20
-152.651
11
147.155
21
-152.936
0
LINE
8
BLACK
6
CONTINUOUS
10
147.155
20
-152.936
11
147.012
21
-153.079
0
LINE
8
BLACK
6
CONTINUOUS
10
147.012
20
-153.079
11
146.726
21
-153.222
0
LINE
8
BLACK
6
CONTINUOUS
10
146.726
20
-153.222
11
146.441
21
-153.222
0
LINE
8
BLACK
6
CONTINUOUS
10
146.441
20
-153.222
11
146.155
21
-153.079
0
LINE
8
BLACK
6
CONTINUOUS
10
146.155
20
-153.079
11
146.012
21
-152.936
0
LINE
8
BLACK
6
CONTINUOUS
10
146.012
20
-152.936
11
145.869
21
-152.651
0
LINE
8
BLACK
6
CONTINUOUS
10
145.869
20
-152.651
11
145.726
21
-152.079
0
LINE
8
BLACK
6
CONTINUOUS
10
145.726
20
-152.079
11
145.726
21
-151.365
0
LINE
8
BLACK
6
CONTINUOUS
10
145.726
20
-151.365
11
145.869
21
-150.794
0
LINE
8
BLACK
6
CONTINUOUS
10
145.869
20
-150.794
11
146.012
21
-150.508
0
LINE
8
BLACK
6
CONTINUOUS
10
146.012
20
-150.508
11
146.155
21
-150.365
0
LINE
8
BLACK
6
CONTINUOUS
10
146.155
20
-150.365
11
146.441
21
-150.222
0
LINE
8
BLACK
6
CONTINUOUS
10
150.298
20
-153.222
11
148.584
21
-153.222
0
LINE
8
BLACK
6
CONTINUOUS
10
149.441
20
-153.222
11
149.441
21
-150.222
0
LINE
8
BLACK
6
CONTINUOUS
10
149.441
20
-150.222
11
149.155
21
-150.651
0
LINE
8
BLACK
6
CONTINUOUS
10
149.155
20
-150.651
11
148.869
21
-150.936
0
LINE
8
BLACK
6
CONTINUOUS
10
148.869
20
-150.936
11
148.584
21
-151.079
0
LINE
8
BLACK
6
CONTINUOUS
10
152.869
20
-150.222
11
152.298
21
-150.222
0
LINE
8
BLACK
6
CONTINUOUS
10
152.298
20
-150.222
11
152.012
21
-150.365
0
LINE
8
BLACK
6
CONTINUOUS
10
152.012
20
-150.365
11
151.869
21
-150.508
0
LINE
8
BLACK
6
CONTINUOUS
10
151.869
20
-150.508
11
151.584
21
-150.936
0
LINE
8
BLACK
6
CONTINUOUS
10
151.584
20
-150.936
11
151.441
21
-151.508
0
LINE
8
BLACK
6
CONTINUOUS
10
151.441
20
-151.508
11
151.441
21
-152.651
0
LINE
8
BLACK
6
CONTINUOUS
10
151.441
20
-152.651
11
151.584
21
-152.936
0
LINE
8
BLACK
6
CONTINUOUS
10
151.584
20
-152.936
11
151.726
21
-153.079
0
LINE
8
BLACK
6
CONTINUOUS
10
151.726
20
-153.079
11
152.012
21
-153.222
0
LINE
8
BLACK
6
CONTINUOUS
10
152.012
20
-153.222
11
152.584
21
-153.222
0
LINE
8
BLACK
6
CONTINUOUS
10
152.584
20
-153.222
11
152.869
21
-153.079
0
LINE
8
BLACK
6
CONTINUOUS
10
152.869
20
-153.079
11
153.012
21
-152.936
0
LINE
8
BLACK
6
CONTINUOUS
10
153.012
20
-152.936
11
153.155
21
-152.651
0
LINE
8
BLACK
6
CONTINUOUS
10
153.155
20
-152.651
11
153.155
21
-151.936
0
LINE
8
BLACK
6
CONTINUOUS
10
153.155
20
-151.936
11
153.012
21
-151.651
0
LINE
8
BLACK
6
CONTINUOUS
10
153.012
20
-151.651
11
152.869
21
-151.508
0
LINE
8
BLACK
6
CONTINUOUS
10
152.869
20
-151.508
11
152.584
21
-151.365
0
LINE
8
BLACK
6
CONTINUOUS
10
152.584
20
-151.365
11
152.012
21
-151.365
0
LINE
8
BLACK
6
CONTINUOUS
10
152.012
20
-151.365
11
151.726
21
-151.508
0
LINE
8
BLACK
6
CONTINUOUS
10
151.726
20
-151.508
11
151.584
21
-151.651
0
LINE
8
BLACK
6
CONTINUOUS
10
151.584
20
-151.651
11
151.441
21
-151.936
0
LINE
8
BLACK
6
CONTINUOUS
10
154.298
20
-150.222
11
154.298
21
-150.794
0
LINE
8
BLACK
6
CONTINUOUS
10
155.441
20
-150.222
11
155.441
21
-150.794
0
LINE
8
BLACK
6
CONTINUOUS
10
159.869
20
-154.365
11
159.726
21
-154.222
0
LINE
8
BLACK
6
CONTINUOUS
10
159.726
20
-154.222
11
159.441
21
-153.794
0
LINE
8
BLACK
6
CONTINUOUS
10
159.441
20
-153.794
11
159.298
21
-153.508
0
LINE
8
BLACK
6
CONTINUOUS
10
159.298
20
-153.508
11
159.155
21
-153.079
0
LINE
8
BLACK
6
CONTINUOUS
10
159.155
20
-153.079
11
159.012
21
-152.365
0
LINE
8
BLACK
6
CONTINUOUS
10
159.012
20
-152.365
11
159.012
21
-151.794
0
LINE
8
BLACK
6
CONTINUOUS
10
159.012
20
-151.794
11
159.155
21
-151.079
0
LINE
8
BLACK
6
CONTINUOUS
10
159.155
20
-151.079
11
159.298
21
-150.651
0
LINE
8
BLACK
6
CONTINUOUS
10
159.298
20
-150.651
11
159.441
21
-150.365
0
LINE
8
BLACK
6
CONTINUOUS
10
159.441
20
-150.365
11
159.726
21
-149.936
0
LINE
8
BLACK
6
CONTINUOUS
10
159.726
20
-149.936
11
159.869
21
-149.794
0
LINE
8
BLACK
6
CONTINUOUS
10
160.869
20
-150.508
11
161.012
21
-150.365
0
LINE
8
BLACK
6
CONTINUOUS
10
161.012
20
-150.365
11
161.298
21
-150.222
0
LINE
8
BLACK
6
CONTINUOUS
10
161.298
20
-150.222
11
162.012
21
-150.222
0
LINE
8
BLACK
6
CONTINUOUS
10
162.012
20
-150.222
11
162.298
21
-150.365
0
LINE
8
BLACK
6
CONTINUOUS
10
162.298
20
-150.365
11
162.441
21
-150.508
0
LINE
8
BLACK
6
CONTINUOUS
10
162.441
20
-150.508
11
162.584
21
-150.794
0
LINE
8
BLACK
6
CONTINUOUS
10
162.584
20
-150.794
11
162.584
21
-151.079
0
LINE
8
BLACK
6
CONTINUOUS
10
162.584
20
-151.079
11
162.441
21
-151.508
0
LINE
8
BLACK
6
CONTINUOUS
10
162.441
20
-151.508
11
160.726
21
-153.222
0
LINE
8
BLACK
6
CONTINUOUS
10
160.726
20
-153.222
11
162.584
21
-153.222
0
LINE
8
BLACK
6
CONTINUOUS
10
166.155
20
-153.222
11
166.155
21
-150.222
0
LINE
8
BLACK
6
CONTINUOUS
10
167.441
20
-153.222
11
167.441
21
-151.651
0
LINE
8
BLACK
6
CONTINUOUS
10
167.441
20
-151.651
11
167.298
21
-151.365
0
LINE
8
BLACK
6
CONTINUOUS
10
167.298
20
-151.365
11
167.012
21
-151.222
0
LINE
8
BLACK
6
CONTINUOUS
10
167.012
20
-151.222
11
166.584
21
-151.222
0
LINE
8
BLACK
6
CONTINUOUS
10
166.584
20
-151.222
11
166.298
21
-151.365
0
LINE
8
BLACK
6
CONTINUOUS
10
166.298
20
-151.365
11
166.155
21
-151.508
0
LINE
8
BLACK
6
CONTINUOUS
10
169.298
20
-153.222
11
169.012
21
-153.079
0
LINE
8
BLACK
6
CONTINUOUS
10
169.012
20
-153.079
11
168.869
21
-152.936
0
LINE
8
BLACK
6
CONTINUOUS
10
168.869
20
-152.936
11
168.726
21
-152.651
0
LINE
8
BLACK
6
CONTINUOUS
10
168.726
20
-152.651
11
168.726
21
-151.794
0
LINE
8
BLACK
6
CONTINUOUS
10
168.726
20
-151.794
11
168.869
21
-151.508
0
LINE
8
BLACK
6
CONTINUOUS
10
168.869
20
-151.508
11
169.012
21
-151.365
0
LINE
8
BLACK
6
CONTINUOUS
10
169.012
20
-151.365
11
169.298
21
-151.222
0
LINE
8
BLACK
6
CONTINUOUS
10
169.298
20
-151.222
11
169.726
21
-151.222
0
LINE
8
BLACK
6
CONTINUOUS
10
169.726
20
-151.222
11
170.012
21
-151.365
0
LINE
8
BLACK
6
CONTINUOUS
10
170.012
20
-151.365
11
170.155
21
-151.508
0
LINE
8
BLACK
6
CONTINUOUS
10
170.155
20
-151.508
11
170.298
21
-151.794
0
LINE
8
BLACK
6
CONTINUOUS
10
170.298
20
-151.794
11
170.298
21
-152.651
0
LINE
8
BLACK
6
CONTINUOUS
10
170.298
20
-152.651
11
170.155
21
-152.936
0
LINE
8
BLACK
6
CONTINUOUS
10
170.155
20
-152.936
11
170.012
21
-153.079
0
LINE
8
BLACK
6
CONTINUOUS
10
170.012
20
-153.079
11
169.726
21
-153.222
0
LINE
8
BLACK
6
CONTINUOUS
10
169.726
20
-153.222
11
169.298
21
-153.222
0
LINE
8
BLACK
6
CONTINUOUS
10
172.012
20
-153.222
11
171.726
21
-153.079
0
LINE
8
BLACK
6
CONTINUOUS
10
171.726
20
-153.079
11
171.584
21
-152.794
0
LINE
8
BLACK
6
CONTINUOUS
10
171.584
20
-152.794
11
171.584
21
-150.222
0
LINE
8
BLACK
6
CONTINUOUS
10
174.298
20
-153.079
11
174.012
21
-153.222
0
LINE
8
BLACK
6
CONTINUOUS
10
174.012
20
-153.222
11
173.441
21
-153.222
0
LINE
8
BLACK
6
CONTINUOUS
10
173.441
20
-153.222
11
173.155
21
-153.079
0
LINE
8
BLACK
6
CONTINUOUS
10
173.155
20
-153.079
11
173.012
21
-152.794
0
LINE
8
BLACK
6
CONTINUOUS
10
173.012
20
-152.794
11
173.012
21
-151.651
0
LINE
8
BLACK
6
CONTINUOUS
10
173.012
20
-151.651
11
173.155
21
-151.365
0
LINE
8
BLACK
6
CONTINUOUS
10
173.155
20
-151.365
11
173.441
21
-151.222
0
LINE
8
BLACK
6
CONTINUOUS
10
173.441
20
-151.222
11
174.012
21
-151.222
0
LINE
8
BLACK
6
CONTINUOUS
10
174.012
20
-151.222
11
174.298
21
-151.365
0
LINE
8
BLACK
6
CONTINUOUS
10
174.298
20
-151.365
11
174.441
21
-151.651
0
LINE
8
BLACK
6
CONTINUOUS
10
174.441
20
-151.651
11
174.441
21
-151.936
0
LINE
8
BLACK
6
CONTINUOUS
10
174.441
20
-151.936
11
173.012
21
-152.222
0
LINE
8
BLACK
6
CONTINUOUS
10
175.584
20
-153.079
11
175.869
21
-153.222
0
LINE
8
BLACK
6
CONTINUOUS
10
175.869
20
-153.222
11
176.441
21
-153.222
0
LINE
8
BLACK
6
CONTINUOUS
10
176.441
20
-153.222
11
176.726
21
-153.079
0
LINE
8
BLACK
6
CONTINUOUS
10
176.726
20
-153.079
11
176.869
21
-152.794
0
LINE
8
BLACK
6
CONTINUOUS
10
176.869
20
-152.794
11
176.869
21
-152.651
0
LINE
8
BLACK
6
CONTINUOUS
10
176.869
20
-152.651
11
176.726
21
-152.365
0
LINE
8
BLACK
6
CONTINUOUS
10
176.726
20
-152.365
11
176.441
21
-152.222
0
LINE
8
BLACK
6
CONTINUOUS
10
176.441
20
-152.222
11
176.012
21
-152.222
0
LINE
8
BLACK
6
CONTINUOUS
10
176.012
20
-152.222
11
175.726
21
-152.079
0
LINE
8
BLACK
6
CONTINUOUS
10
175.726
20
-152.079
11
175.584
21
-151.794
0
LINE
8
BLACK
6
CONTINUOUS
10
175.584
20
-151.794
11
175.584
21
-151.651
0
LINE
8
BLACK
6
CONTINUOUS
10
175.584
20
-151.651
11
175.726
21
-151.365
0
LINE
8
BLACK
6
CONTINUOUS
10
175.726
20
-151.365
11
176.012
21
-151.222
0
LINE
8
BLACK
6
CONTINUOUS
10
176.012
20
-151.222
11
176.441
21
-151.222
0
LINE
8
BLACK
6
CONTINUOUS
10
176.441
20
-151.222
11
176.726
21
-151.365
0
LINE
8
BLACK
6
CONTINUOUS
10
177.869
20
-154.365
11
178.012
21
-154.222
0
LINE
8
BLACK
6
CONTINUOUS
10
178.012
20
-154.222
11
178.298
21
-153.794
0
LINE
8
BLACK
6
CONTINUOUS
10
178.298
20
-153.794
11
178.441
21
-153.508
0
LINE
8
BLACK
6
CONTINUOUS
10
178.441
20
-153.508
11
178.584
21
-153.079
0
LINE
8
BLACK
6
CONTINUOUS
10
178.584
20
-153.079
11
178.726
21
-152.365
0
LINE
8
BLACK
6
CONTINUOUS
10
178.726
20
-152.365
11
178.726
21
-151.794
0
LINE
8
BLACK
6
CONTINUOUS
10
178.726
20
-151.794
11
178.584
21
-151.079
0
LINE
8
BLACK
6
CONTINUOUS
10
178.584
20
-151.079
11
178.441
21
-150.651
0
LINE
8
BLACK
6
CONTINUOUS
10
178.441
20
-150.651
11
178.298
21
-150.365
0
LINE
8
BLACK
6
CONTINUOUS
10
178.298
20
-150.365
11
178.012
21
-149.936
0
LINE
8
BLACK
6
CONTINUOUS
10
178.012
20
-149.936
11
177.869
21
-149.794
0
CIRCLE
8
BLACK
10
112.605
20
-155.825
40
0.4
0
LINE
8
BLACK
6
CONTINUOUS
10
116.441
20
-154.182
11
116.726
21
-154.182
0
LINE
8
BLACK
6
CONTINUOUS
10
116.726
20
-154.182
11
117.012
21
-154.325
0
LINE
8
BLACK
6
CONTINUOUS
10
117.012
20
-154.325
11
117.155
21
-154.468
0
LINE
8
BLACK
6
CONTINUOUS
10
117.155
20
-154.468
11
117.298
21
-154.754
0
LINE
8
BLACK
6
CONTINUOUS
10
117.298
20
-154.754
11
117.441
21
-155.325
0
LINE
8
BLACK
6
CONTINUOUS
10
117.441
20
-155.325
11
117.441
21
-156.039
0
LINE
8
BLACK
6
CONTINUOUS
10
117.441
20
-156.039
11
117.298
21
-156.611
0
LINE
8
BLACK
6
CONTINUOUS
10
117.298
20
-156.611
11
117.155
21
-156.896
0
LINE
8
BLACK
6
CONTINUOUS
10
117.155
20
-156.896
11
117.012
21
-157.039
0
LINE
8
BLACK
6
CONTINUOUS
10
117.012
20
-157.039
11
116.726
21
-157.182
0
LINE
8
BLACK
6
CONTINUOUS
10
116.726
20
-157.182
11
116.441
21
-157.182
0
LINE
8
BLACK
6
CONTINUOUS
10
116.441
20
-157.182
11
116.155
21
-157.039
0
LINE
8
BLACK
6
CONTINUOUS
10
116.155
20
-157.039
11
116.012
21
-156.896
0
LINE
8
BLACK
6
CONTINUOUS
10
116.012
20
-156.896
11
115.869
21
-156.611
0
LINE
8
BLACK
6
CONTINUOUS
10
115.869
20
-156.611
11
115.726
21
-156.039
0
LINE
8
BLACK
6
CONTINUOUS
10
115.726
20
-156.039
11
115.726
21
-155.325
0
LINE
8
BLACK
6
CONTINUOUS
10
115.726
20
-155.325
11
115.869
21
-154.754
0
LINE
8
BLACK
6
CONTINUOUS
10
115.869
20
-154.754
11
116.012
21
-154.468
0
LINE
8
BLACK
6
CONTINUOUS
10
116.012
20
-154.468
11
116.155
21
-154.325
0
LINE
8
BLACK
6
CONTINUOUS
10
116.155
20
-154.325
11
116.441
21
-154.182
0
LINE
8
BLACK
6
CONTINUOUS
10
118.726
20
-156.896
11
118.869
21
-157.039
0
LINE
8
BLACK
6
CONTINUOUS
10
118.869
20
-157.039
11
118.726
21
-157.182
0
LINE
8
BLACK
6
CONTINUOUS
10
118.726
20
-157.182
11
118.584
21
-157.039
0
LINE
8
BLACK
6
CONTINUOUS
10
118.584
20
-157.039
11
118.726
21
-156.896
0
LINE
8
BLACK
6
CONTINUOUS
10
118.726
20
-156.896
11
118.726
21
-157.182
0
LINE
8
BLACK
6
CONTINUOUS
10
120.584
20
-155.468
11
120.298
21
-155.325
0
LINE
8
BLACK
6
CONTINUOUS
10
120.298
20
-155.325
11
120.155
21
-155.182
0
LINE
8
BLACK
6
CONTINUOUS
10
120.155
20
-155.182
11
120.012
21
-154.896
0
LINE
8
BLACK
6
CONTINUOUS
10
120.012
20
-154.896
11
120.012
21
-154.754
0
LINE
8
BLACK
6
CONTINUOUS
10
120.012
20
-154.754
11
120.155
21
-154.468
0
LINE
8
BLACK
6
CONTINUOUS
10
120.155
20
-154.468
11
120.298
21
-154.325
0
LINE
8
BLACK
6
CONTINUOUS
10
120.298
20
-154.325
11
120.584
21
-154.182
0
LINE
8
BLACK
6
CONTINUOUS
10
120.584
20
-154.182
11
121.155
21
-154.182
0
LINE
8
BLACK
6
CONTINUOUS
10
121.155
20
-154.182
11
121.441
21
-154.325
0
LINE
8
BLACK
6
CONTINUOUS
10
121.441
20
-154.325
11
121.584
21
-154.468
0
LINE
8
BLACK
6
CONTINUOUS
10
121.584
20
-154.468
11
121.726
21
-154.754
0
LINE
8
BLACK
6
CONTINUOUS
10
121.726
20
-154.754
11
121.726
21
-154.896
0
LINE
8
BLACK
6
CONTINUOUS
10
121.726
20
-154.896
11
121.584
21
-155.182
0
LINE
8
BLACK
6
CONTINUOUS
10
121.584
20
-155.182
11
121.441
21
-155.325
0
LINE
8
BLACK
6
CONTINUOUS
10
121.441
20
-155.325
11
121.155
21
-155.468
0
LINE
8
BLACK
6
CONTINUOUS
10
121.155
20
-155.468
11
120.584
21
-155.468
0
LINE
8
BLACK
6
CONTINUOUS
10
120.584
20
-155.468
11
120.298
21
-155.611
0
LINE
8
BLACK
6
CONTINUOUS
10
120.298
20
-155.611
11
120.155
21
-155.754
0
LINE
8
BLACK
6
CONTINUOUS
10
120.155
20
-155.754
11
120.012
21
-156.039
0
LINE
8
BLACK
6
CONTINUOUS
10
120.012
20
-156.039
11
120.012
21
-156.611
0
LINE
8
BLACK
6
CONTINUOUS
10
120.012
20
-156.611
11
120.155
21
-156.896
0
LINE
8
BLACK
6
CONTINUOUS
10
120.155
20
-156.896
11
120.298
21
-157.039
0
LINE
8
BLACK
6
CONTINUOUS
10
120.298
20
-157.039
11
120.584
21
-157.182
0
LINE
8
BLACK
6
CONTINUOUS
10
120.584
20
-157.182
11
121.155
21
-157.182
0
LINE
8
BLACK
6
CONTINUOUS
10
121.155
20
-157.182
11
121.441
21
-157.039
0
LINE
8
BLACK
6
CONTINUOUS
10
121.441
20
-157.039
11
121.584
21
-156.896
0
LINE
8
BLACK
6
CONTINUOUS
10
121.584
20
-156.896
11
121.726
21
-156.611
0
LINE
8
BLACK
6
CONTINUOUS
10
121.726
20
-156.611
11
121.726
21
-156.039
0
LINE
8
BLACK
6
CONTINUOUS
10
121.726
20
-156.039
11
121.584
21
-155.754
0
LINE
8
BLACK
6
CONTINUOUS
10
121.584
20
-155.754
11
121.441
21
-155.611
0
LINE
8
BLACK
6
CONTINUOUS
10
121.441
20
-155.611
11
121.155
21
-155.468
0
LINE
8
BLACK
6
CONTINUOUS
10
123.584
20
-154.182
11
123.869
21
-154.182
0
LINE
8
BLACK
6
CONTINUOUS
10
123.869
20
-154.182
11
124.155
21
-154.325
0
LINE
8
BLACK
6
CONTINUOUS
10
124.155
20
-154.325
11
124.298
21
-154.468
0
LINE
8
BLACK
6
CONTINUOUS
10
124.298
20
-154.468
11
124.441
21
-154.754
0
LINE
8
BLACK
6
CONTINUOUS
10
124.441
20
-154.754
11
124.584
21
-155.325
0
LINE
8
BLACK
6
CONTINUOUS
10
124.584
20
-155.325
11
124.584
21
-156.039
0
LINE
8
BLACK
6
CONTINUOUS
10
124.584
20
-156.039
11
124.441
21
-156.611
0
LINE
8
BLACK
6
CONTINUOUS
10
124.441
20
-156.611
11
124.298
21
-156.896
0
LINE
8
BLACK
6
CONTINUOUS
10
124.298
20
-156.896
11
124.155
21
-157.039
0
LINE
8
BLACK
6
CONTINUOUS
10
124.155
20
-157.039
11
123.869
21
-157.182
0
LINE
8
BLACK
6
CONTINUOUS
10
123.869
20
-157.182
11
123.584
21
-157.182
0
LINE
8
BLACK
6
CONTINUOUS
10
123.584
20
-157.182
11
123.298
21
-157.039
0
LINE
8
BLACK
6
CONTINUOUS
10
123.298
20
-157.039
11
123.155
21
-156.896
0
LINE
8
BLACK
6
CONTINUOUS
10
123.155
20
-156.896
11
123.012
21
-156.611
0
LINE
8
BLACK
6
CONTINUOUS
10
123.012
20
-156.611
11
122.869
21
-156.039
0
LINE
8
BLACK
6
CONTINUOUS
10
122.869
20
-156.039
11
122.869
21
-155.325
0
LINE
8
BLACK
6
CONTINUOUS
10
122.869
20
-155.325
11
123.012
21
-154.754
0
LINE
8
BLACK
6
CONTINUOUS
10
123.012
20
-154.754
11
123.155
21
-154.468
0
LINE
8
BLACK
6
CONTINUOUS
10
123.155
20
-154.468
11
123.298
21
-154.325
0
LINE
8
BLACK
6
CONTINUOUS
10
123.298
20
-154.325
11
123.584
21
-154.182
0
LINE
8
BLACK
6
CONTINUOUS
10
125.869
20
-157.182
11
125.869
21
-155.182
0
LINE
8
BLACK
6
CONTINUOUS
10
125.869
20
-155.468
11
126.012
21
-155.325
0
LINE
8
BLACK
6
CONTINUOUS
10
126.012
20
-155.325
11
126.298
21
-155.182
0
LINE
8
BLACK
6
CONTINUOUS
10
126.298
20
-155.182
11
126.726
21
-155.182
0
LINE
8
BLACK
6
CONTINUOUS
10
126.726
20
-155.182
11
127.012
21
-155.325
0
LINE
8
BLACK
6
CONTINUOUS
10
127.012
20
-155.325
11
127.155
21
-155.611
0
LINE
8
BLACK
6
CONTINUOUS
10
127.155
20
-155.611
11
127.155
21
-157.182
0
LINE
8
BLACK
6
CONTINUOUS
10
127.155
20
-155.611
11
127.298
21
-155.325
0
LINE
8
BLACK
6
CONTINUOUS
10
127.298
20
-155.325
11
127.584
21
-155.182
0
LINE
8
BLACK
6
CONTINUOUS
10
127.584
20
-155.182
11
128.012
21
-155.182
0
LINE
8
BLACK
6
CONTINUOUS
10
128.012
20
-155.182
11
128.298
21
-155.325
0
LINE
8
BLACK
6
CONTINUOUS
10
128.298
20
-155.325
11
128.441
21
-155.611
0
LINE
8
BLACK
6
CONTINUOUS
10
128.441
20
-155.611
11
128.441
21
-157.182
0
LINE
8
BLACK
6
CONTINUOUS
10
129.869
20
-157.182
11
129.869
21
-155.182
0
LINE
8
BLACK
6
CONTINUOUS
10
129.869
20
-155.468
11
130.012
21
-155.325
0
LINE
8
BLACK
6
CONTINUOUS
10
130.012
20
-155.325
11
130.298
21
-155.182
0
LINE
8
BLACK
6
CONTINUOUS
10
130.298
20
-155.182
11
130.726
21
-155.182
0
LINE
8
BLACK
6
CONTINUOUS
10
130.726
20
-155.182
11
131.012
21
-155.325
0
LINE
8
BLACK
6
CONTINUOUS
10
131.012
20
-155.325
11
131.155
21
-155.611
0
LINE
8
BLACK
6
CONTINUOUS
10
131.155
20
-155.611
11
131.155
21
-157.182
0
LINE
8
BLACK
6
CONTINUOUS
10
131.155
20
-155.611
11
131.298
21
-155.325
0
LINE
8
BLACK
6
CONTINUOUS
10
131.298
20
-155.325
11
131.584
21
-155.182
0
LINE
8
BLACK
6
CONTINUOUS
10
131.584
20
-155.182
11
132.012
21
-155.182
0
LINE
8
BLACK
6
CONTINUOUS
10
132.012
20
-155.182
11
132.298
21
-155.325
0
LINE
8
BLACK
6
CONTINUOUS
10
132.298
20
-155.325
11
132.441
21
-155.611
0
LINE
8
BLACK
6
CONTINUOUS
10
132.441
20
-155.611
11
132.441
21
-157.182
0
LINE
8
BLACK
6
CONTINUOUS
10
138.298
20
-154.039
11
135.726
21
-157.896
0
LINE
8
BLACK
6
CONTINUOUS
10
142.155
20
-154.182
11
142.441
21
-154.182
0
LINE
8
BLACK
6
CONTINUOUS
10
142.441
20
-154.182
11
142.726
21
-154.325
0
LINE
8
BLACK
6
CONTINUOUS
10
142.726
20
-154.325
11
142.869
21
-154.468
0
LINE
8
BLACK
6
CONTINUOUS
10
142.869
20
-154.468
11
143.012
21
-154.754
0
LINE
8
BLACK
6
CONTINUOUS
10
143.012
20
-154.754
11
143.155
21
-155.325
0
LINE
8
BLACK
6
CONTINUOUS
10
143.155
20
-155.325
11
143.155
21
-156.039
0
LINE
8
BLACK
6
CONTINUOUS
10
143.155
20
-156.039
11
143.012
21
-156.611
0
LINE
8
BLACK
6
CONTINUOUS
10
143.012
20
-156.611
11
142.869
21
-156.896
0
LINE
8
BLACK
6
CONTINUOUS
10
142.869
20
-156.896
11
142.726
21
-157.039
0
LINE
8
BLACK
6
CONTINUOUS
10
142.726
20
-157.039
11
142.441
21
-157.182
0
LINE
8
BLACK
6
CONTINUOUS
10
142.441
20
-157.182
11
142.155
21
-157.182
0
LINE
8
BLACK
6
CONTINUOUS
10
142.155
20
-157.182
11
141.869
21
-157.039
0
LINE
8
BLACK
6
CONTINUOUS
10
141.869
20
-157.039
11
141.726
21
-156.896
0
LINE
8
BLACK
6
CONTINUOUS
10
141.726
20
-156.896
11
141.584
21
-156.611
0
LINE
8
BLACK
6
CONTINUOUS
10
141.584
20
-156.611
11
141.441
21
-156.039
0
LINE
8
BLACK
6
CONTINUOUS
10
141.441
20
-156.039
11
141.441
21
-155.325
0
LINE
8
BLACK
6
CONTINUOUS
10
141.441
20
-155.325
11
141.584
21
-154.754
0
LINE
8
BLACK
6
CONTINUOUS
10
141.584
20
-154.754
11
141.726
21
-154.468
0
LINE
8
BLACK
6
CONTINUOUS
10
141.726
20
-154.468
11
141.869
21
-154.325
0
LINE
8
BLACK
6
CONTINUOUS
10
141.869
20
-154.325
11
142.155
21
-154.182
0
LINE
8
BLACK
6
CONTINUOUS
10
144.441
20
-156.896
11
144.584
21
-157.039
0
LINE
8
BLACK
6
CONTINUOUS
10
144.584
20
-157.039
11
144.441
21
-157.182
0
LINE
8
BLACK
6
CONTINUOUS
10
144.441
20
-157.182
11
144.298
21
-157.039
0
LINE
8
BLACK
6
CONTINUOUS
10
144.298
20
-157.039
11
144.441
21
-156.896
0
LINE
8
BLACK
6
CONTINUOUS
10
144.441
20
-156.896
11
144.441
21
-157.182
0
LINE
8
BLACK
6
CONTINUOUS
10
146.441
20
-154.182
11
146.726
21
-154.182
0
LINE
8
BLACK
6
CONTINUOUS
10
146.726
20
-154.182
11
147.012
21
-154.325
0
LINE
8
BLACK
6
CONTINUOUS
10
147.012
20
-154.325
11
147.155
21
-154.468
0
LINE
8
BLACK
6
CONTINUOUS
10
147.155
20
-154.468
11
147.298
21
-154.754
0
LINE
8
BLACK
6
CONTINUOUS
10
147.298
20
-154.754
11
147.441
21
-155.325
0
LINE
8
BLACK
6
CONTINUOUS
10
147.441
20
-155.325
11
147.441
21
-156.039
0
LINE
8
BLACK
6
CONTINUOUS
10
147.441
20
-156.039
11
147.298
21
-156.611
0
LINE
8
BLACK
6
CONTINUOUS
10
147.298
20
-156.611
11
147.155
21
-156.896
0
LINE
8
BLACK
6
CONTINUOUS
10
147.155
20
-156.896
11
147.012
21
-157.039
0
LINE
8
BLACK
6
CONTINUOUS
10
147.012
20
-157.039
11
146.726
21
-157.182
0
LINE
8
BLACK
6
CONTINUOUS
10
146.726
20
-157.182
11
146.441
21
-157.182
0
LINE
8
BLACK
6
CONTINUOUS
10
146.441
20
-157.182
11
146.155
21
-157.039
0
LINE
8
BLACK
6
CONTINUOUS
10
146.155
20
-157.039
11
146.012
21
-156.896
0
LINE
8
BLACK
6
CONTINUOUS
10
146.012
20
-156.896
11
145.869
21
-156.611
0
LINE
8
BLACK
6
CONTINUOUS
10
145.869
20
-156.611
11
145.726
21
-156.039
0
LINE
8
BLACK
6
CONTINUOUS
10
145.726
20
-156.039
11
145.726
21
-155.325
0
LINE
8
BLACK
6
CONTINUOUS
10
145.726
20
-155.325
11
145.869
21
-154.754
0
LINE
8
BLACK
6
CONTINUOUS
10
145.869
20
-154.754
11
146.012
21
-154.468
0
LINE
8
BLACK
6
CONTINUOUS
10
146.012
20
-154.468
11
146.155
21
-154.325
0
LINE
8
BLACK
6
CONTINUOUS
10
146.155
20
-154.325
11
146.441
21
-154.182
0
LINE
8
BLACK
6
CONTINUOUS
10
148.441
20
-154.182
11
150.298
21
-154.182
0
LINE
8
BLACK
6
CONTINUOUS
10
150.298
20
-154.182
11
149.298
21
-155.325
0
LINE
8
BLACK
6
CONTINUOUS
10
149.298
20
-155.325
11
149.726
21
-155.325
0
LINE
8
BLACK
6
CONTINUOUS
10
149.726
20
-155.325
11
150.012
21
-155.468
0
LINE
8
BLACK
6
CONTINUOUS
10
150.012
20
-155.468
11
150.155
21
-155.611
0
LINE
8
BLACK
6
CONTINUOUS
10
150.155
20
-155.611
11
150.298
21
-155.896
0
LINE
8
BLACK
6
CONTINUOUS
10
150.298
20
-155.896
11
150.298
21
-156.611
0
LINE
8
BLACK
6
CONTINUOUS
10
150.298
20
-156.611
11
150.155
21
-156.896
0
LINE
8
BLACK
6
CONTINUOUS
10
150.155
20
-156.896
11
150.012
21
-157.039
0
LINE
8
BLACK
6
CONTINUOUS
10
150.012
20
-157.039
11
149.726
21
-157.182
0
LINE
8
BLACK
6
CONTINUOUS
10
149.726
20
-157.182
11
148.869
21
-157.182
0
LINE
8
BLACK
6
CONTINUOUS
10
148.869
20
-157.182
11
148.584
21
-157.039
0
LINE
8
BLACK
6
CONTINUOUS
10
148.584
20
-157.039
11
148.441
21
-156.896
0
LINE
8
BLACK
6
CONTINUOUS
10
153.155
20
-157.182
11
151.441
21
-157.182
0
LINE
8
BLACK
6
CONTINUOUS
10
152.298
20
-157.182
11
152.298
21
-154.182
0
LINE
8
BLACK
6
CONTINUOUS
10
152.298
20
-154.182
11
152.012
21
-154.611
0
LINE
8
BLACK
6
CONTINUOUS
10
152.012
20
-154.611
11
151.726
21
-154.896
0
LINE
8
BLACK
6
CONTINUOUS
10
151.726
20
-154.896
11
151.441
21
-155.039
0
LINE
8
BLACK
6
CONTINUOUS
10
154.298
20
-154.182
11
154.298
21
-154.754
0
LINE
8
BLACK
6
CONTINUOUS
10
155.441
20
-154.182
11
155.441
21
-154.754
0
LINE
8
BLACK
6
CONTINUOUS
10
159.869
20
-158.325
11
159.726
21
-158.182
0
LINE
8
BLACK
6
CONTINUOUS
10
159.726
20
-158.182
11
159.441
21
-157.754
0
LINE
8
BLACK
6
CONTINUOUS
10
159.441
20
-157.754
11
159.298
21
-157.468
0
LINE
8
BLACK
6
CONTINUOUS
10
159.298
20
-157.468
11
159.155
21
-157.039
0
LINE
8
BLACK
6
CONTINUOUS
10
159.155
20
-157.039
11
159.012
21
-156.325
0
LINE
8
BLACK
6
CONTINUOUS
10
159.012
20
-156.325
11
159.012
21
-155.754
0
LINE
8
BLACK
6
CONTINUOUS
10
159.012
20
-155.754
11
159.155
21
-155.039
0
LINE
8
BLACK
6
CONTINUOUS
10
159.155
20
-155.039
11
159.298
21
-154.611
0
LINE
8
BLACK
6
CONTINUOUS
10
159.298
20
-154.611
11
159.441
21
-154.325
0
LINE
8
BLACK
6
CONTINUOUS
10
159.441
20
-154.325
11
159.726
21
-153.896
0
LINE
8
BLACK
6
CONTINUOUS
10
159.726
20
-153.896
11
159.869
21
-153.754
0
LINE
8
BLACK
6
CONTINUOUS
10
162.584
20
-157.182
11
160.869
21
-157.182
0
LINE
8
BLACK
6
CONTINUOUS
10
161.726
20
-157.182
11
161.726
21
-154.182
0
LINE
8
BLACK
6
CONTINUOUS
10
161.726
20
-154.182
11
161.441
21
-154.611
0
LINE
8
BLACK
6
CONTINUOUS
10
161.441
20
-154.611
11
161.155
21
-154.896
0
LINE
8
BLACK
6
CONTINUOUS
10
161.155
20
-154.896
11
160.869
21
-155.039
0
LINE
8
BLACK
6
CONTINUOUS
10
165.155
20
-154.182
11
164.584
21
-154.182
0
LINE
8
BLACK
6
CONTINUOUS
10
164.584
20
-154.182
11
164.298
21
-154.325
0
LINE
8
BLACK
6
CONTINUOUS
10
164.298
20
-154.325
11
164.155
21
-154.468
0
LINE
8
BLACK
6
CONTINUOUS
10
164.155
20
-154.468
11
163.869
21
-154.896
0
LINE
8
BLACK
6
CONTINUOUS
10
163.869
20
-154.896
11
163.726
21
-155.468
0
LINE
8
BLACK
6
CONTINUOUS
10
163.726
20
-155.468
11
163.726
21
-156.611
0
LINE
8
BLACK
6
CONTINUOUS
10
163.726
20
-156.611
11
163.869
21
-156.896
0
LINE
8
BLACK
6
CONTINUOUS
10
163.869
20
-156.896
11
164.012
21
-157.039
0
LINE
8
BLACK
6
CONTINUOUS
10
164.012
20
-157.039
11
164.298
21
-157.182
0
LINE
8
BLACK
6
CONTINUOUS
10
164.298
20
-157.182
11
164.869
21
-157.182
0
LINE
8
BLACK
6
CONTINUOUS
10
164.869
20
-157.182
11
165.155
21
-157.039
0
LINE
8
BLACK
6
CONTINUOUS
10
165.155
20
-157.039
11
165.298
21
-156.896
0
LINE
8
BLACK
6
CONTINUOUS
10
165.298
20
-156.896
11
165.441
21
-156.611
0
LINE
8
BLACK
6
CONTINUOUS
10
165.441
20
-156.611
11
165.441
21
-155.896
0
LINE
8
BLACK
6
CONTINUOUS
10
165.441
20
-155.896
11
165.298
21
-155.611
0
LINE
8
BLACK
6
CONTINUOUS
10
165.298
20
-155.611
11
165.155
21
-155.468
0
LINE
8
BLACK
6
CONTINUOUS
10
165.155
20
-155.468
11
164.869
21
-155.325
0
LINE
8
BLACK
6
CONTINUOUS
10
164.869
20
-155.325
11
164.298
21
-155.325
0
LINE
8
BLACK
6
CONTINUOUS
10
164.298
20
-155.325
11
164.012
21
-155.468
0
LINE
8
BLACK
6
CONTINUOUS
10
164.012
20
-155.468
11
163.869
21
-155.611
0
LINE
8
BLACK
6
CONTINUOUS
10
163.869
20
-155.611
11
163.726
21
-155.896
0
LINE
8
BLACK
6
CONTINUOUS
10
166.584
20
-154.468
11
166.726
21
-154.325
0
LINE
8
BLACK
6
CONTINUOUS
10
166.726
20
-154.325
11
167.012
21
-154.182
0
LINE
8
BLACK
6
CONTINUOUS
10
167.012
20
-154.182
11
167.726
21
-154.182
0
LINE
8
BLACK
6
CONTINUOUS
10
167.726
20
-154.182
11
168.012
21
-154.325
0
LINE
8
BLACK
6
CONTINUOUS
10
168.012
20
-154.325
11
168.155
21
-154.468
0
LINE
8
BLACK
6
CONTINUOUS
10
168.155
20
-154.468
11
168.298
21
-154.754
0
LINE
8
BLACK
6
CONTINUOUS
10
168.298
20
-154.754
11
168.298
21
-155.039
0
LINE
8
BLACK
6
CONTINUOUS
10
168.298
20
-155.039
11
168.155
21
-155.468
0
LINE
8
BLACK
6
CONTINUOUS
10
168.155
20
-155.468
11
166.441
21
-157.182
0
LINE
8
BLACK
6
CONTINUOUS
10
166.441
20
-157.182
11
168.298
21
-157.182
0
LINE
8
BLACK
6
CONTINUOUS
10
171.869
20
-157.182
11
171.869
21
-154.182
0
LINE
8
BLACK
6
CONTINUOUS
10
173.155
20
-157.182
11
173.155
21
-155.611
0
LINE
8
BLACK
6
CONTINUOUS
10
173.155
20
-155.611
11
173.012
21
-155.325
0
LINE
8
BLACK
6
CONTINUOUS
10
173.012
20
-155.325
11
172.726
21
-155.182
0
LINE
8
BLACK
6
CONTINUOUS
10
172.726
20
-155.182
11
172.298
21
-155.182
0
LINE
8
BLACK
6
CONTINUOUS
10
172.298
20
-155.182
11
172.012
21
-155.325
0
LINE
8
BLACK
6
CONTINUOUS
10
172.012
20
-155.325
11
171.869
21
-155.468
0
LINE
8
BLACK
6
CONTINUOUS
10
175.012
20
-157.182
11
174.726
21
-157.039
0
LINE
8
BLACK
6
CONTINUOUS
10
174.726
20
-157.039
11
174.584
21
-156.896
0
LINE
8
BLACK
6
CONTINUOUS
10
174.584
20
-156.896
11
174.441
21
-156.611
0
LINE
8
BLACK
6
CONTINUOUS
10
174.441
20
-156.611
11
174.441
21
-155.754
0
LINE
8
BLACK
6
CONTINUOUS
10
174.441
20
-155.754
11
174.584
21
-155.468
0
LINE
8
BLACK
6
CONTINUOUS
10
174.584
20
-155.468
11
174.726
21
-155.325
0
LINE
8
BLACK
6
CONTINUOUS
10
174.726
20
-155.325
11
175.012
21
-155.182
0
LINE
8
BLACK
6
CONTINUOUS
10
175.012
20
-155.182
11
175.441
21
-155.182
0
LINE
8
BLACK
6
CONTINUOUS
10
175.441
20
-155.182
11
175.726
21
-155.325
0
LINE
8
BLACK
6
CONTINUOUS
10
175.726
20
-155.325
11
175.869
21
-155.468
0
LINE
8
BLACK
6
CONTINUOUS
10
175.869
20
-155.468
11
176.012
21
-155.754
0
LINE
8
BLACK
6
CONTINUOUS
10
176.012
20
-155.754
11
176.012
21
-156.611
0
LINE
8
BLACK
6
CONTINUOUS
10
176.012
20
-156.611
11
175.869
21
-156.896
0
LINE
8
BLACK
6
CONTINUOUS
10
175.869
20
-156.896
11
175.726
21
-157.039
0
LINE
8
BLACK
6
CONTINUOUS
10
175.726
20
-157.039
11
175.441
21
-157.182
0
LINE
8
BLACK
6
CONTINUOUS
10
175.441
20
-157.182
11
175.012
21
-157.182
0
LINE
8
BLACK
6
CONTINUOUS
10
177.726
20
-157.182
11
177.441
21
-157.039
0
LINE
8
BLACK
6
CONTINUOUS
10
177.441
20
-157.039
11
177.298
21
-156.754
0
LINE
8
BLACK
6
CONTINUOUS
10
177.298
20
-156.754
11
177.298
21
-154.182
0
LINE
8
BLACK
6
CONTINUOUS
10
180.012
20
-157.039
11
179.726
21
-157.182
0
LINE
8
BLACK
6
CONTINUOUS
10
179.726
20
-157.182
11
179.155
21
-157.182
0
LINE
8
BLACK
6
CONTINUOUS
10
179.155
20
-157.182
11
178.869
21
-157.039
0
LINE
8
BLACK
6
CONTINUOUS
10
178.869
20
-157.039
11
178.726
21
-156.754
0
LINE
8
BLACK
6
CONTINUOUS
10
178.726
20
-156.754
11
178.726
21
-155.611
0
LINE
8
BLACK
6
CONTINUOUS
10
178.726
20
-155.611
11
178.869
21
-155.325
0
LINE
8
BLACK
6
CONTINUOUS
10
178.869
20
-155.325
11
179.155
21
-155.182
0
LINE
8
BLACK
6
CONTINUOUS
10
179.155
20
-155.182
11
179.726
21
-155.182
0
LINE
8
BLACK
6
CONTINUOUS
10
179.726
20
-155.182
11
180.012
21
-155.325
0
LINE
8
BLACK
6
CONTINUOUS
10
180.012
20
-155.325
11
180.155
21
-155.611
0
LINE
8
BLACK
6
CONTINUOUS
10
180.155
20
-155.611
11
180.155
21
-155.896
0
LINE
8
BLACK
6
CONTINUOUS
10
180.155
20
-155.896
11
178.726
21
-156.182
0
LINE
8
BLACK
6
CONTINUOUS
10
181.298
20
-157.039
11
181.584
21
-157.182
0
LINE
8
BLACK
6
CONTINUOUS
10
181.584
20
-157.182
11
182.155
21
-157.182
0
LINE
8
BLACK
6
CONTINUOUS
10
182.155
20
-157.182
11
182.441
21
-157.039
0
LINE
8
BLACK
6
CONTINUOUS
10
182.441
20
-157.039
11
182.584
21
-156.754
0
LINE
8
BLACK
6
CONTINUOUS
10
182.584
20
-156.754
11
182.584
21
-156.611
0
LINE
8
BLACK
6
CONTINUOUS
10
182.584
20
-156.611
11
182.441
21
-156.325
0
LINE
8
BLACK
6
CONTINUOUS
10
182.441
20
-156.325
11
182.155
21
-156.182
0
LINE
8
BLACK
6
CONTINUOUS
10
182.155
20
-156.182
11
181.726
21
-156.182
0
LINE
8
BLACK
6
CONTINUOUS
10
181.726
20
-156.182
11
181.441
21
-156.039
0
LINE
8
BLACK
6
CONTINUOUS
10
181.441
20
-156.039
11
181.298
21
-155.754
0
LINE
8
BLACK
6
CONTINUOUS
10
181.298
20
-155.754
11
181.298
21
-155.611
0
LINE
8
BLACK
6
CONTINUOUS
10
181.298
20
-155.611
11
181.441
21
-155.325
0
LINE
8
BLACK
6
CONTINUOUS
10
181.441
20
-155.325
11
181.726
21
-155.182
0
LINE
8
BLACK
6
CONTINUOUS
10
181.726
20
-155.182
11
182.155
21
-155.182
0
LINE
8
BLACK
6
CONTINUOUS
10
182.155
20
-155.182
11
182.441
21
-155.325
0
LINE
8
BLACK
6
CONTINUOUS
10
183.584
20
-158.325
11
183.726
21
-158.182
0
LINE
8
BLACK
6
CONTINUOUS
10
183.726
20
-158.182
11
184.012
21
-157.754
0
LINE
8
BLACK
6
CONTINUOUS
10
184.012
20
-157.754
11
184.155
21
-157.468
0
LINE
8
BLACK
6
CONTINUOUS
10
184.155
20
-157.468
11
184.298
21
-157.039
0
LINE
8
BLACK
6
CONTINUOUS
10
184.298
20
-157.039
11
184.441
21
-156.325
0
LINE
8
BLACK
6
CONTINUOUS
10
184.441
20
-156.325
11
184.441
21
-155.754
0
LINE
8
BLACK
6
CONTINUOUS
10
184.441
20
-155.754
11
184.298
21
-155.039
0
LINE
8
BLACK
6
CONTINUOUS
10
184.298
20
-155.039
11
184.155
21
-154.611
0
LINE
8
BLACK
6
CONTINUOUS
10
184.155
20
-154.611
11
184.012
21
-154.325
0
LINE
8
BLACK
6
CONTINUOUS
10
184.012
20
-154.325
11
183.726
21
-153.896
0
LINE
8
BLACK
6
CONTINUOUS
10
183.726
20
-153.896
11
183.584
21
-153.754
0
LINE
8
BLACK
6
CONTINUOUS
10
112.505
20
-159.285
11
112.505
21
-160.285
0
LINE
8
BLACK
6
CONTINUOUS
10
112.005
20
-159.785
11
113.005
21
-159.785
0
LINE
8
BLACK
6
CONTINUOUS
10
117.441
20
-161.142
11
115.726
21
-161.142
0
LINE
8
BLACK
6
CONTINUOUS
10
116.584
20
-161.142
11
116.584
21
-158.142
0
LINE
8
BLACK
6
CONTINUOUS
10
116.584
20
-158.142
11
116.298
21
-158.571
0
LINE
8
BLACK
6
CONTINUOUS
10
116.298
20
-158.571
11
116.012
21
-158.856
0
LINE
8
BLACK
6
CONTINUOUS
10
116.012
20
-158.856
11
115.726
21
-158.999
0
LINE
8
BLACK
6
CONTINUOUS
10
118.726
20
-160.856
11
118.869
21
-160.999
0
LINE
8
BLACK
6
CONTINUOUS
10
118.869
20
-160.999
11
118.726
21
-161.142
0
LINE
8
BLACK
6
CONTINUOUS
10
118.726
20
-161.142
11
118.584
21
-160.999
0
LINE
8
BLACK
6
CONTINUOUS
10
118.584
20
-160.999
11
118.726
21
-160.856
0
LINE
8
BLACK
6
CONTINUOUS
10
118.726
20
-160.856
11
118.726
21
-161.142
0
LINE
8
BLACK
6
CONTINUOUS
10
120.726
20
-158.142
11
121.012
21
-158.142
0
LINE
8
BLACK
6
CONTINUOUS
10
121.012
20
-158.142
11
121.298
21
-158.285
0
LINE
8
BLACK
6
CONTINUOUS
10
121.298
20
-158.285
11
121.441
21
-158.428
0
LINE
8
BLACK
6
CONTINUOUS
10
121.441
20
-158.428
11
121.584
21
-158.714
0
LINE
8
BLACK
6
CONTINUOUS
10
121.584
20
-158.714
11
121.726
21
-159.285
0
LINE
8
BLACK
6
CONTINUOUS
10
121.726
20
-159.285
11
121.726
21
-159.999
0
LINE
8
BLACK
6
CONTINUOUS
10
121.726
20
-159.999
11
121.584
21
-160.571
0
LINE
8
BLACK
6
CONTINUOUS
10
121.584
20
-160.571
11
121.441
21
-160.856
0
LINE
8
BLACK
6
CONTINUOUS
10
121.441
20
-160.856
11
121.298
21
-160.999
0
LINE
8
BLACK
6
CONTINUOUS
10
121.298
20
-160.999
11
121.012
21
-161.142
0
LINE
8
BLACK
6
CONTINUOUS
10
121.012
20
-161.142
11
120.726
21
-161.142
0
LINE
8
BLACK
6
CONTINUOUS
10
120.726
20
-161.142
11
120.441
21
-160.999
0
LINE
8
BLACK
6
CONTINUOUS
10
120.441
20
-160.999
11
120.298
21
-160.856
0
LINE
8
BLACK
6
CONTINUOUS
10
120.298
20
-160.856
11
120.155
21
-160.571
0
LINE
8
BLACK
6
CONTINUOUS
10
120.155
20
-160.571
11
120.012
21
-159.999
0
LINE
8
BLACK
6
CONTINUOUS
10
120.012
20
-159.999
11
120.012
21
-159.285
0
LINE
8
BLACK
6
CONTINUOUS
10
120.012
20
-159.285
11
120.155
21
-158.714
0
LINE
8
BLACK
6
CONTINUOUS
10
120.155
20
-158.714
11
120.298
21
-158.428
0
LINE
8
BLACK
6
CONTINUOUS
10
120.298
20
-158.428
11
120.441
21
-158.285
0
LINE
8
BLACK
6
CONTINUOUS
10
120.441
20
-158.285
11
120.726
21
-158.142
0
LINE
8
BLACK
6
CONTINUOUS
10
123.584
20
-158.142
11
123.869
21
-158.142
0
LINE
8
BLACK
6
CONTINUOUS
10
123.869
20
-158.142
11
124.155
21
-158.285
0
LINE
8
BLACK
6
CONTINUOUS
10
124.155
20
-158.285
11
124.298
21
-158.428
0
LINE
8
BLACK
6
CONTINUOUS
10
124.298
20
-158.428
11
124.441
21
-158.714
0
LINE
8
BLACK
6
CONTINUOUS
10
124.441
20
-158.714
11
124.584
21
-159.285
0
LINE
8
BLACK
6
CONTINUOUS
10
124.584
20
-159.285
11
124.584
21
-159.999
0
LINE
8
BLACK
6
CONTINUOUS
10
124.584
20
-159.999
11
124.441
21
-160.571
0
LINE
8
BLACK
6
CONTINUOUS
10
124.441
20
-160.571
11
124.298
21
-160.856
0
LINE
8
BLACK
6
CONTINUOUS
10
124.298
20
-160.856
11
124.155
21
-160.999
0
LINE
8
BLACK
6
CONTINUOUS
10
124.155
20
-160.999
11
123.869
21
-161.142
0
LINE
8
BLACK
6
CONTINUOUS
10
123.869
20
-161.142
11
123.584
21
-161.142
0
LINE
8
BLACK
6
CONTINUOUS
10
123.584
20
-161.142
11
123.298
21
-160.999
0
LINE
8
BLACK
6
CONTINUOUS
10
123.298
20
-160.999
11
123.155
21
-160.856
0
LINE
8
BLACK
6
CONTINUOUS
10
123.155
20
-160.856
11
123.012
21
-160.571
0
LINE
8
BLACK
6
CONTINUOUS
10
123.012
20
-160.571
11
122.869
21
-159.999
0
LINE
8
BLACK
6
CONTINUOUS
10
122.869
20
-159.999
11
122.869
21
-159.285
0
LINE
8
BLACK
6
CONTINUOUS
10
122.869
20
-159.285
11
123.012
21
-158.714
0
LINE
8
BLACK
6
CONTINUOUS
10
123.012
20
-158.714
11
123.155
21
-158.428
0
LINE
8
BLACK
6
CONTINUOUS
10
123.155
20
-158.428
11
123.298
21
-158.285
0
LINE
8
BLACK
6
CONTINUOUS
10
123.298
20
-158.285
11
123.584
21
-158.142
0
LINE
8
BLACK
6
CONTINUOUS
10
125.869
20
-161.142
11
125.869
21
-159.142
0
LINE
8
BLACK
6
CONTINUOUS
10
125.869
20
-159.428
11
126.012
21
-159.285
0
LINE
8
BLACK
6
CONTINUOUS
10
126.012
20
-159.285
11
126.298
21
-159.142
0
LINE
8
BLACK
6
CONTINUOUS
10
126.298
20
-159.142
11
126.726
21
-159.142
0
LINE
8
BLACK
6
CONTINUOUS
10
126.726
20
-159.142
11
127.012
21
-159.285
0
LINE
8
BLACK
6
CONTINUOUS
10
127.012
20
-159.285
11
127.155
21
-159.571
0
LINE
8
BLACK
6
CONTINUOUS
10
127.155
20
-159.571
11
127.155
21
-161.142
0
LINE
8
BLACK
6
CONTINUOUS
10
127.155
20
-159.571
11
127.298
21
-159.285
0
LINE
8
BLACK
6
CONTINUOUS
10
127.298
20
-159.285
11
127.584
21
-159.142
0
LINE
8
BLACK
6
CONTINUOUS
10
127.584
20
-159.142
11
128.012
21
-159.142
0
LINE
8
BLACK
6
CONTINUOUS
10
128.012
20
-159.142
11
128.298
21
-159.285
0
LINE
8
BLACK
6
CONTINUOUS
10
128.298
20
-159.285
11
128.441
21
-159.571
0
LINE
8
BLACK
6
CONTINUOUS
10
128.441
20
-159.571
11
128.441
21
-161.142
0
LINE
8
BLACK
6
CONTINUOUS
10
129.869
20
-161.142
11
129.869
21
-159.142
0
LINE
8
BLACK
6
CONTINUOUS
10
129.869
20
-159.428
11
130.012
21
-159.285
0
LINE
8
BLACK
6
CONTINUOUS
10
130.012
20
-159.285
11
130.298
21
-159.142
0
LINE
8
BLACK
6
CONTINUOUS
10
130.298
20
-159.142
11
130.726
21
-159.142
0
LINE
8
BLACK
6
CONTINUOUS
10
130.726
20
-159.142
11
131.012
21
-159.285
0
LINE
8
BLACK
6
CONTINUOUS
10
131.012
20
-159.285
11
131.155
21
-159.571
0
LINE
8
BLACK
6
CONTINUOUS
10
131.155
20
-159.571
11
131.155
21
-161.142
0
LINE
8
BLACK
6
CONTINUOUS
10
131.155
20
-159.571
11
131.298
21
-159.285
0
LINE
8
BLACK
6
CONTINUOUS
10
131.298
20
-159.285
11
131.584
21
-159.142
0
LINE
8
BLACK
6
CONTINUOUS
10
131.584
20
-159.142
11
132.012
21
-159.142
0
LINE
8
BLACK
6
CONTINUOUS
10
132.012
20
-159.142
11
132.298
21
-159.285
0
LINE
8
BLACK
6
CONTINUOUS
10
132.298
20
-159.285
11
132.441
21
-159.571
0
LINE
8
BLACK
6
CONTINUOUS
10
132.441
20
-159.571
11
132.441
21
-161.142
0
LINE
8
BLACK
6
CONTINUOUS
10
138.298
20
-157.999
11
135.726
21
-161.856
0
LINE
8
BLACK
6
CONTINUOUS
10
142.155
20
-158.142
11
142.441
21
-158.142
0
LINE
8
BLACK
6
CONTINUOUS
10
142.441
20
-158.142
11
142.726
21
-158.285
0
LINE
8
BLACK
6
CONTINUOUS
10
142.726
20
-158.285
11
142.869
21
-158.428
0
LINE
8
BLACK
6
CONTINUOUS
10
142.869
20
-158.428
11
143.012
21
-158.714
0
LINE
8
BLACK
6
CONTINUOUS
10
143.012
20
-158.714
11
143.155
21
-159.285
0
LINE
8
BLACK
6
CONTINUOUS
10
143.155
20
-159.285
11
143.155
21
-159.999
0
LINE
8
BLACK
6
CONTINUOUS
10
143.155
20
-159.999
11
143.012
21
-160.571
0
LINE
8
BLACK
6
CONTINUOUS
10
143.012
20
-160.571
11
142.869
21
-160.856
0
LINE
8
BLACK
6
CONTINUOUS
10
142.869
20
-160.856
11
142.726
21
-160.999
0
LINE
8
BLACK
6
CONTINUOUS
10
142.726
20
-160.999
11
142.441
21
-161.142
0
LINE
8
BLACK
6
CONTINUOUS
10
142.441
20
-161.142
11
142.155
21
-161.142
0
LINE
8
BLACK
6
CONTINUOUS
10
142.155
20
-161.142
11
141.869
21
-160.999
0
LINE
8
BLACK
6
CONTINUOUS
10
141.869
20
-160.999
11
141.726
21
-160.856
0
LINE
8
BLACK
6
CONTINUOUS
10
141.726
20
-160.856
11
141.584
21
-160.571
0
LINE
8
BLACK
6
CONTINUOUS
10
141.584
20
-160.571
11
141.441
21
-159.999
0
LINE
8
BLACK
6
CONTINUOUS
10
141.441
20
-159.999
11
141.441
21
-159.285
0
LINE
8
BLACK
6
CONTINUOUS
10
141.441
20
-159.285
11
141.584
21
-158.714
0
LINE
8
BLACK
6
CONTINUOUS
10
141.584
20
-158.714
11
141.726
21
-158.428
0
LINE
8
BLACK
6
CONTINUOUS
10
141.726
20
-158.428
11
141.869
21
-158.285
0
LINE
8
BLACK
6
CONTINUOUS
10
141.869
20
-158.285
11
142.155
21
-158.142
0
LINE
8
BLACK
6
CONTINUOUS
10
144.441
20
-160.856
11
144.584
21
-160.999
0
LINE
8
BLACK
6
CONTINUOUS
10
144.584
20
-160.999
11
144.441
21
-161.142
0
LINE
8
BLACK
6
CONTINUOUS
10
144.441
20
-161.142
11
144.298
21
-160.999
0
LINE
8
BLACK
6
CONTINUOUS
10
144.298
20
-160.999
11
144.441
21
-160.856
0
LINE
8
BLACK
6
CONTINUOUS
10
144.441
20
-160.856
11
144.441
21
-161.142
0
LINE
8
BLACK
6
CONTINUOUS
10
146.441
20
-158.142
11
146.726
21
-158.142
0
LINE
8
BLACK
6
CONTINUOUS
10
146.726
20
-158.142
11
147.012
21
-158.285
0
LINE
8
BLACK
6
CONTINUOUS
10
147.012
20
-158.285
11
147.155
21
-158.428
0
LINE
8
BLACK
6
CONTINUOUS
10
147.155
20
-158.428
11
147.298
21
-158.714
0
LINE
8
BLACK
6
CONTINUOUS
10
147.298
20
-158.714
11
147.441
21
-159.285
0
LINE
8
BLACK
6
CONTINUOUS
10
147.441
20
-159.285
11
147.441
21
-159.999
0
LINE
8
BLACK
6
CONTINUOUS
10
147.441
20
-159.999
11
147.298
21
-160.571
0
LINE
8
BLACK
6
CONTINUOUS
10
147.298
20
-160.571
11
147.155
21
-160.856
0
LINE
8
BLACK
6
CONTINUOUS
10
147.155
20
-160.856
11
147.012
21
-160.999
0
LINE
8
BLACK
6
CONTINUOUS
10
147.012
20
-160.999
11
146.726
21
-161.142
0
LINE
8
BLACK
6
CONTINUOUS
10
146.726
20
-161.142
11
146.441
21
-161.142
0
LINE
8
BLACK
6
CONTINUOUS
10
146.441
20
-161.142
11
146.155
21
-160.999
0
LINE
8
BLACK
6
CONTINUOUS
10
146.155
20
-160.999
11
146.012
21
-160.856
0
LINE
8
BLACK
6
CONTINUOUS
10
146.012
20
-160.856
11
145.869
21
-160.571
0
LINE
8
BLACK
6
CONTINUOUS
10
145.869
20
-160.571
11
145.726
21
-159.999
0
LINE
8
BLACK
6
CONTINUOUS
10
145.726
20
-159.999
11
145.726
21
-159.285
0
LINE
8
BLACK
6
CONTINUOUS
10
145.726
20
-159.285
11
145.869
21
-158.714
0
LINE
8
BLACK
6
CONTINUOUS
10
145.869
20
-158.714
11
146.012
21
-158.428
0
LINE
8
BLACK
6
CONTINUOUS
10
146.012
20
-158.428
11
146.155
21
-158.285
0
LINE
8
BLACK
6
CONTINUOUS
10
146.155
20
-158.285
11
146.441
21
-158.142
0
LINE
8
BLACK
6
CONTINUOUS
10
148.441
20
-158.142
11
150.298
21
-158.142
0
LINE
8
BLACK
6
CONTINUOUS
10
150.298
20
-158.142
11
149.298
21
-159.285
0
LINE
8
BLACK
6
CONTINUOUS
10
149.298
20
-159.285
11
149.726
21
-159.285
0
LINE
8
BLACK
6
CONTINUOUS
10
149.726
20
-159.285
11
150.012
21
-159.428
0
LINE
8
BLACK
6
CONTINUOUS
10
150.012
20
-159.428
11
150.155
21
-159.571
0
LINE
8
BLACK
6
CONTINUOUS
10
150.155
20
-159.571
11
150.298
21
-159.856
0
LINE
8
BLACK
6
CONTINUOUS
10
150.298
20
-159.856
11
150.298
21
-160.571
0
LINE
8
BLACK
6
CONTINUOUS
10
150.298
20
-160.571
11
150.155
21
-160.856
0
LINE
8
BLACK
6
CONTINUOUS
10
150.155
20
-160.856
11
150.012
21
-160.999
0
LINE
8
BLACK
6
CONTINUOUS
10
150.012
20
-160.999
11
149.726
21
-161.142
0
LINE
8
BLACK
6
CONTINUOUS
10
149.726
20
-161.142
11
148.869
21
-161.142
0
LINE
8
BLACK
6
CONTINUOUS
10
148.869
20
-161.142
11
148.584
21
-160.999
0
LINE
8
BLACK
6
CONTINUOUS
10
148.584
20
-160.999
11
148.441
21
-160.856
0
LINE
8
BLACK
6
CONTINUOUS
10
151.726
20
-161.142
11
152.298
21
-161.142
0
LINE
8
BLACK
6
CONTINUOUS
10
152.298
20
-161.142
11
152.584
21
-160.999
0
LINE
8
BLACK
6
CONTINUOUS
10
152.584
20
-160.999
11
152.726
21
-160.856
0
LINE
8
BLACK
6
CONTINUOUS
10
152.726
20
-160.856
11
153.012
21
-160.428
0
LINE
8
BLACK
6
CONTINUOUS
10
153.012
20
-160.428
11
153.155
21
-159.856
0
LINE
8
BLACK
6
CONTINUOUS
10
153.155
20
-159.856
11
153.155
21
-158.714
0
LINE
8
BLACK
6
CONTINUOUS
10
153.155
20
-158.714
11
153.012
21
-158.428
0
LINE
8
BLACK
6
CONTINUOUS
10
153.012
20
-158.428
11
152.869
21
-158.285
0
LINE
8
BLACK
6
CONTINUOUS
10
152.869
20
-158.285
11
152.584
21
-158.142
0
LINE
8
BLACK
6
CONTINUOUS
10
152.584
20
-158.142
11
152.012
21
-158.142
0
LINE
8
BLACK
6
CONTINUOUS
10
152.012
20
-158.142
11
151.726
21
-158.285
0
LINE
8
BLACK
6
CONTINUOUS
10
151.726
20
-158.285
11
151.584
21
-158.428
0
LINE
8
BLACK
6
CONTINUOUS
10
151.584
20
-158.428
11
151.441
21
-158.714
0
LINE
8
BLACK
6
CONTINUOUS
10
151.441
20
-158.714
11
151.441
21
-159.428
0
LINE
8
BLACK
6
CONTINUOUS
10
151.441
20
-159.428
11
151.584
21
-159.714
0
LINE
8
BLACK
6
CONTINUOUS
10
151.584
20
-159.714
11
151.726
21
-159.856
0
LINE
8
BLACK
6
CONTINUOUS
10
151.726
20
-159.856
11
152.012
21
-159.999
0
LINE
8
BLACK
6
CONTINUOUS
10
152.012
20
-159.999
11
152.584
21
-159.999
0
LINE
8
BLACK
6
CONTINUOUS
10
152.584
20
-159.999
11
152.869
21
-159.856
0
LINE
8
BLACK
6
CONTINUOUS
10
152.869
20
-159.856
11
153.012
21
-159.714
0
LINE
8
BLACK
6
CONTINUOUS
10
153.012
20
-159.714
11
153.155
21
-159.428
0
LINE
8
BLACK
6
CONTINUOUS
10
154.298
20
-158.142
11
154.298
21
-158.714
0
LINE
8
BLACK
6
CONTINUOUS
10
155.441
20
-158.142
11
155.441
21
-158.714
0
LINE
8
BLACK
6
CONTINUOUS
10
159.869
20
-162.285
11
159.726
21
-162.142
0
LINE
8
BLACK
6
CONTINUOUS
10
159.726
20
-162.142
11
159.441
21
-161.714
0
LINE
8
BLACK
6
CONTINUOUS
10
159.441
20
-161.714
11
159.298
21
-161.428
0
LINE
8
BLACK
6
CONTINUOUS
10
159.298
20
-161.428
11
159.155
21
-160.999
0
LINE
8
BLACK
6
CONTINUOUS
10
159.155
20
-160.999
11
159.012
21
-160.285
0
LINE
8
BLACK
6
CONTINUOUS
10
159.012
20
-160.285
11
159.012
21
-159.714
0
LINE
8
BLACK
6
CONTINUOUS
10
159.012
20
-159.714
11
159.155
21
-158.999
0
LINE
8
BLACK
6
CONTINUOUS
10
159.155
20
-158.999
11
159.298
21
-158.571
0
LINE
8
BLACK
6
CONTINUOUS
10
159.298
20
-158.571
11
159.441
21
-158.285
0
LINE
8
BLACK
6
CONTINUOUS
10
159.441
20
-158.285
11
159.726
21
-157.856
0
LINE
8
BLACK
6
CONTINUOUS
10
159.726
20
-157.856
11
159.869
21
-157.714
0
LINE
8
BLACK
6
CONTINUOUS
10
162.584
20
-161.142
11
160.869
21
-161.142
0
LINE
8
BLACK
6
CONTINUOUS
10
161.726
20
-161.142
11
161.726
21
-158.142
0
LINE
8
BLACK
6
CONTINUOUS
10
161.726
20
-158.142
11
161.441
21
-158.571
0
LINE
8
BLACK
6
CONTINUOUS
10
161.441
20
-158.571
11
161.155
21
-158.856
0
LINE
8
BLACK
6
CONTINUOUS
10
161.155
20
-158.856
11
160.869
21
-158.999
0
LINE
8
BLACK
6
CONTINUOUS
10
163.726
20
-158.428
11
163.869
21
-158.285
0
LINE
8
BLACK
6
CONTINUOUS
10
163.869
20
-158.285
11
164.155
21
-158.142
0
LINE
8
BLACK
6
CONTINUOUS
10
164.155
20
-158.142
11
164.869
21
-158.142
0
LINE
8
BLACK
6
CONTINUOUS
10
164.869
20
-158.142
11
165.155
21
-158.285
0
LINE
8
BLACK
6
CONTINUOUS
10
165.155
20
-158.285
11
165.298
21
-158.428
0
LINE
8
BLACK
6
CONTINUOUS
10
165.298
20
-158.428
11
165.441
21
-158.714
0
LINE
8
BLACK
6
CONTINUOUS
10
165.441
20
-158.714
11
165.441
21
-158.999
0
LINE
8
BLACK
6
CONTINUOUS
10
165.441
20
-158.999
11
165.298
21
-159.428
0
LINE
8
BLACK
6
CONTINUOUS
10
165.298
20
-159.428
11
163.584
21
-161.142
0
LINE
8
BLACK
6
CONTINUOUS
10
163.584
20
-161.142
11
165.441
21
-161.142
0
LINE
8
BLACK
6
CONTINUOUS
10
167.155
20
-159.428
11
166.869
21
-159.285
0
LINE
8
BLACK
6
CONTINUOUS
10
166.869
20
-159.285
11
166.726
21
-159.142
0
LINE
8
BLACK
6
CONTINUOUS
10
166.726
20
-159.142
11
166.584
21
-158.856
0
LINE
8
BLACK
6
CONTINUOUS
10
166.584
20
-158.856
11
166.584
21
-158.714
0
LINE
8
BLACK
6
CONTINUOUS
10
166.584
20
-158.714
11
166.726
21
-158.428
0
LINE
8
BLACK
6
CONTINUOUS
10
166.726
20
-158.428
11
166.869
21
-158.285
0
LINE
8
BLACK
6
CONTINUOUS
10
166.869
20
-158.285
11
167.155
21
-158.142
0
LINE
8
BLACK
6
CONTINUOUS
10
167.155
20
-158.142
11
167.726
21
-158.142
0
LINE
8
BLACK
6
CONTINUOUS
10
167.726
20
-158.142
11
168.012
21
-158.285
0
LINE
8
BLACK
6
CONTINUOUS
10
168.012
20
-158.285
11
168.155
21
-158.428
0
LINE
8
BLACK
6
CONTINUOUS
10
168.155
20
-158.428
11
168.298
21
-158.714
0
LINE
8
BLACK
6
CONTINUOUS
10
168.298
20
-158.714
11
168.298
21
-158.856
0
LINE
8
BLACK
6
CONTINUOUS
10
168.298
20
-158.856
11
168.155
21
-159.142
0
LINE
8
BLACK
6
CONTINUOUS
10
168.155
20
-159.142
11
168.012
21
-159.285
0
LINE
8
BLACK
6
CONTINUOUS
10
168.012
20
-159.285
11
167.726
21
-159.428
0
LINE
8
BLACK
6
CONTINUOUS
10
167.726
20
-159.428
11
167.155
21
-159.428
0
LINE
8
BLACK
6
CONTINUOUS
10
167.155
20
-159.428
11
166.869
21
-159.571
0
LINE
8
BLACK
6
CONTINUOUS
10
166.869
20
-159.571
11
166.726
21
-159.714
0
LINE
8
BLACK
6
CONTINUOUS
10
166.726
20
-159.714
11
166.584
21
-159.999
0
LINE
8
BLACK
6
CONTINUOUS
10
166.584
20
-159.999
11
166.584
21
-160.571
0
LINE
8
BLACK
6
CONTINUOUS
10
166.584
20
-160.571
11
166.726
21
-160.856
0
LINE
8
BLACK
6
CONTINUOUS
10
166.726
20
-160.856
11
166.869
21
-160.999
0
LINE
8
BLACK
6
CONTINUOUS
10
166.869
20
-160.999
11
167.155
21
-161.142
0
LINE
8
BLACK
6
CONTINUOUS
10
167.155
20
-161.142
11
167.726
21
-161.142
0
LINE
8
BLACK
6
CONTINUOUS
10
167.726
20
-161.142
11
168.012
21
-160.999
0
LINE
8
BLACK
6
CONTINUOUS
10
168.012
20
-160.999
11
168.155
21
-160.856
0
LINE
8
BLACK
6
CONTINUOUS
10
168.155
20
-160.856
11
168.298
21
-160.571
0
LINE
8
BLACK
6
CONTINUOUS
10
168.298
20
-160.571
11
168.298
21
-159.999
0
LINE
8
BLACK
6
CONTINUOUS
10
168.298
20
-159.999
11
168.155
21
-159.714
0
LINE
8
BLACK
6
CONTINUOUS
10
168.155
20
-159.714
11
168.012
21
-159.571
0
LINE
8
BLACK
6
CONTINUOUS
10
168.012
20
-159.571
11
167.726
21
-159.428
0
LINE
8
BLACK
6
CONTINUOUS
10
171.869
20
-161.142
11
171.869
21
-158.142
0
LINE
8
BLACK
6
CONTINUOUS
10
173.155
20
-161.142
11
173.155
21
-159.571
0
LINE
8
BLACK
6
CONTINUOUS
10
173.155
20
-159.571
11
173.012
21
-159.285
0
LINE
8
BLACK
6
CONTINUOUS
10
173.012
20
-159.285
11
172.726
21
-159.142
0
LINE
8
BLACK
6
CONTINUOUS
10
172.726
20
-159.142
11
172.298
21
-159.142
0
LINE
8
BLACK
6
CONTINUOUS
10
172.298
20
-159.142
11
172.012
21
-159.285
0
LINE
8
BLACK
6
CONTINUOUS
10
172.012
20
-159.285
11
171.869
21
-159.428
0
LINE
8
BLACK
6
CONTINUOUS
10
175.012
20
-161.142
11
174.726
21
-160.999
0
LINE
8
BLACK
6
CONTINUOUS
10
174.726
20
-160.999
11
174.584
21
-160.856
0
LINE
8
BLACK
6
CONTINUOUS
10
174.584
20
-160.856
11
174.441
21
-160.571
0
LINE
8
BLACK
6
CONTINUOUS
10
174.441
20
-160.571
11
174.441
21
-159.714
0
LINE
8
BLACK
6
CONTINUOUS
10
174.441
20
-159.714
11
174.584
21
-159.428
0
LINE
8
BLACK
6
CONTINUOUS
10
174.584
20
-159.428
11
174.726
21
-159.285
0
LINE
8
BLACK
6
CONTINUOUS
10
174.726
20
-159.285
11
175.012
21
-159.142
0
LINE
8
BLACK
6
CONTINUOUS
10
175.012
20
-159.142
11
175.441
21
-159.142
0
LINE
8
BLACK
6
CONTINUOUS
10
175.441
20
-159.142
11
175.726
21
-159.285
0
LINE
8
BLACK
6
CONTINUOUS
10
175.726
20
-159.285
11
175.869
21
-159.428
0
LINE
8
BLACK
6
CONTINUOUS
10
175.869
20
-159.428
11
176.012
21
-159.714
0
LINE
8
BLACK
6
CONTINUOUS
10
176.012
20
-159.714
11
176.012
21
-160.571
0
LINE
8
BLACK
6
CONTINUOUS
10
176.012
20
-160.571
11
175.869
21
-160.856
0
LINE
8
BLACK
6
CONTINUOUS
10
175.869
20
-160.856
11
175.726
21
-160.999
0
LINE
8
BLACK
6
CONTINUOUS
10
175.726
20
-160.999
11
175.441
21
-161.142
0
LINE
8
BLACK
6
CONTINUOUS
10
175.441
20
-161.142
11
175.012
21
-161.142
0
LINE
8
BLACK
6
CONTINUOUS
10
177.726
20
-161.142
11
177.441
21
-160.999
0
LINE
8
BLACK
6
CONTINUOUS
10
177.441
20
-160.999
11
177.298
21
-160.714
0
LINE
8
BLACK
6
CONTINUOUS
10
177.298
20
-160.714
11
177.298
21
-158.142
0
LINE
8
BLACK
6
CONTINUOUS
10
180.012
20
-160.999
11
179.726
21
-161.142
0
LINE
8
BLACK
6
CONTINUOUS
10
179.726
20
-161.142
11
179.155
21
-161.142
0
LINE
8
BLACK
6
CONTINUOUS
10
179.155
20
-161.142
11
178.869
21
-160.999
0
LINE
8
BLACK
6
CONTINUOUS
10
178.869
20
-160.999
11
178.726
21
-160.714
0
LINE
8
BLACK
6
CONTINUOUS
10
178.726
20
-160.714
11
178.726
21
-159.571
0
LINE
8
BLACK
6
CONTINUOUS
10
178.726
20
-159.571
11
178.869
21
-159.285
0
LINE
8
BLACK
6
CONTINUOUS
10
178.869
20
-159.285
11
179.155
21
-159.142
0
LINE
8
BLACK
6
CONTINUOUS
10
179.155
20
-159.142
11
179.726
21
-159.142
0
LINE
8
BLACK
6
CONTINUOUS
10
179.726
20
-159.142
11
180.012
21
-159.285
0
LINE
8
BLACK
6
CONTINUOUS
10
180.012
20
-159.285
11
180.155
21
-159.571
0
LINE
8
BLACK
6
CONTINUOUS
10
180.155
20
-159.571
11
180.155
21
-159.856
0
LINE
8
BLACK
6
CONTINUOUS
10
180.155
20
-159.856
11
178.726
21
-160.142
0
LINE
8
BLACK
6
CONTINUOUS
10
181.298
20
-160.999
11
181.584
21
-161.142
0
LINE
8
BLACK
6
CONTINUOUS
10
181.584
20
-161.142
11
182.155
21
-161.142
0
LINE
8
BLACK
6
CONTINUOUS
10
182.155
20
-161.142
11
182.441
21
-160.999
0
LINE
8
BLACK
6
CONTINUOUS
10
182.441
20
-160.999
11
182.584
21
-160.714
0
LINE
8
BLACK
6
CONTINUOUS
10
182.584
20
-160.714
11
182.584
21
-160.571
0
LINE
8
BLACK
6
CONTINUOUS
10
182.584
20
-160.571
11
182.441
21
-160.285
0
LINE
8
BLACK
6
CONTINUOUS
10
182.441
20
-160.285
11
182.155
21
-160.142
0
LINE
8
BLACK
6
CONTINUOUS
10
182.155
20
-160.142
11
181.726
21
-160.142
0
LINE
8
BLACK
6
CONTINUOUS
10
181.726
20
-160.142
11
181.441
21
-159.999
0
LINE
8
BLACK
6
CONTINUOUS
10
181.441
20
-159.999
11
181.298
21
-159.714
0
LINE
8
BLACK
6
CONTINUOUS
10
181.298
20
-159.714
11
181.298
21
-159.571
0
LINE
8
BLACK
6
CONTINUOUS
10
181.298
20
-159.571
11
181.441
21
-159.285
0
LINE
8
BLACK
6
CONTINUOUS
10
181.441
20
-159.285
11
181.726
21
-159.142
0
LINE
8
BLACK
6
CONTINUOUS
10
181.726
20
-159.142
11
182.155
21
-159.142
0
LINE
8
BLACK
6
CONTINUOUS
10
182.155
20
-159.142
11
182.441
21
-159.285
0
LINE
8
BLACK
6
CONTINUOUS
10
186.155
20
-159.999
11
188.441
21
-159.999
0
LINE
8
BLACK
6
CONTINUOUS
10
187.298
20
-161.142
11
187.298
21
-158.856
0
LINE
8
BLACK
6
CONTINUOUS
10
191.869
20
-158.142
11
193.726
21
-158.142
0
LINE
8
BLACK
6
CONTINUOUS
10
193.726
20
-158.142
11
192.726
21
-159.285
0
LINE
8
BLACK
6
CONTINUOUS
10
192.726
20
-159.285
11
193.155
21
-159.285
0
LINE
8
BLACK
6
CONTINUOUS
10
193.155
20
-159.285
11
193.441
21
-159.428
0
LINE
8
BLACK
6
CONTINUOUS
10
193.441
20
-159.428
11
193.584
21
-159.571
0
LINE
8
BLACK
6
CONTINUOUS
10
193.584
20
-159.571
11
193.726
21
-159.856
0
LINE
8
BLACK
6
CONTINUOUS
10
193.726
20
-159.856
11
193.726
21
-160.571
0
LINE
8
BLACK
6
CONTINUOUS
10
193.726
20
-160.571
11
193.584
21
-160.856
0
LINE
8
BLACK
6
CONTINUOUS
10
193.584
20
-160.856
11
193.441
21
-160.999
0
LINE
8
BLACK
6
CONTINUOUS
10
193.441
20
-160.999
11
193.155
21
-161.142
0
LINE
8
BLACK
6
CONTINUOUS
10
193.155
20
-161.142
11
192.298
21
-161.142
0
LINE
8
BLACK
6
CONTINUOUS
10
192.298
20
-161.142
11
192.012
21
-160.999
0
LINE
8
BLACK
6
CONTINUOUS
10
192.012
20
-160.999
11
191.869
21
-160.856
0
LINE
8
BLACK
6
CONTINUOUS
10
197.155
20
-160.999
11
197.441
21
-161.142
0
LINE
8
BLACK
6
CONTINUOUS
10
197.441
20
-161.142
11
198.012
21
-161.142
0
LINE
8
BLACK
6
CONTINUOUS
10
198.012
20
-161.142
11
198.298
21
-160.999
0
LINE
8
BLACK
6
CONTINUOUS
10
198.298
20
-160.999
11
198.441
21
-160.714
0
LINE
8
BLACK
6
CONTINUOUS
10
198.441
20
-160.714
11
198.441
21
-160.571
0
LINE
8
BLACK
6
CONTINUOUS
10
198.441
20
-160.571
11
198.298
21
-160.285
0
LINE
8
BLACK
6
CONTINUOUS
10
198.298
20
-160.285
11
198.012
21
-160.142
0
LINE
8
BLACK
6
CONTINUOUS
10
198.012
20
-160.142
11
197.584
21
-160.142
0
LINE
8
BLACK
6
CONTINUOUS
10
197.584
20
-160.142
11
197.298
21
-159.999
0
LINE
8
BLACK
6
CONTINUOUS
10
197.298
20
-159.999
11
197.155
21
-159.714
0
LINE
8
BLACK
6
CONTINUOUS
10
197.155
20
-159.714
11
197.155
21
-159.571
0
LINE
8
BLACK
6
CONTINUOUS
10
197.155
20
-159.571
11
197.298
21
-159.285
0
LINE
8
BLACK
6
CONTINUOUS
10
197.298
20
-159.285
11
197.584
21
-159.142
0
LINE
8
BLACK
6
CONTINUOUS
10
197.584
20
-159.142
11
198.012
21
-159.142
0
LINE
8
BLACK
6
CONTINUOUS
10
198.012
20
-159.142
11
198.298
21
-159.285
0
LINE
8
BLACK
6
CONTINUOUS
10
200.155
20
-161.142
11
199.869
21
-160.999
0
LINE
8
BLACK
6
CONTINUOUS
10
199.869
20
-160.999
11
199.726
21
-160.714
0
LINE
8
BLACK
6
CONTINUOUS
10
199.726
20
-160.714
11
199.726
21
-158.142
0
LINE
8
BLACK
6
CONTINUOUS
10
201.726
20
-161.142
11
201.441
21
-160.999
0
LINE
8
BLACK
6
CONTINUOUS
10
201.441
20
-160.999
11
201.298
21
-160.856
0
LINE
8
BLACK
6
CONTINUOUS
10
201.298
20
-160.856
11
201.155
21
-160.571
0
LINE
8
BLACK
6
CONTINUOUS
10
201.155
20
-160.571
11
201.155
21
-159.714
0
LINE
8
BLACK
6
CONTINUOUS
10
201.155
20
-159.714
11
201.298
21
-159.428
0
LINE
8
BLACK
6
CONTINUOUS
10
201.298
20
-159.428
11
201.441
21
-159.285
0
LINE
8
BLACK
6
CONTINUOUS
10
201.441
20
-159.285
11
201.726
21
-159.142
0
LINE
8
BLACK
6
CONTINUOUS
10
201.726
20
-159.142
11
202.155
21
-159.142
0
LINE
8
BLACK
6
CONTINUOUS
10
202.155
20
-159.142
11
202.441
21
-159.285
0
LINE
8
BLACK
6
CONTINUOUS
10
202.441
20
-159.285
11
202.584
21
-159.428
0
LINE
8
BLACK
6
CONTINUOUS
10
202.584
20
-159.428
11
202.726
21
-159.714
0
LINE
8
BLACK
6
CONTINUOUS
10
202.726
20
-159.714
11
202.726
21
-160.571
0
LINE
8
BLACK
6
CONTINUOUS
10
202.726
20
-160.571
11
202.584
21
-160.856
0
LINE
8
BLACK
6
CONTINUOUS
10
202.584
20
-160.856
11
202.441
21
-160.999
0
LINE
8
BLACK
6
CONTINUOUS
10
202.441
20
-160.999
11
202.155
21
-161.142
0
LINE
8
BLACK
6
CONTINUOUS
10
202.155
20
-161.142
11
201.726
21
-161.142
0
LINE
8
BLACK
6
CONTINUOUS
10
203.584
20
-159.142
11
204.726
21
-159.142
0
LINE
8
BLACK
6
CONTINUOUS
10
204.012
20
-158.142
11
204.012
21
-160.714
0
LINE
8
BLACK
6
CONTINUOUS
10
204.012
20
-160.714
11
204.155
21
-160.999
0
LINE
8
BLACK
6
CONTINUOUS
10
204.155
20
-160.999
11
204.441
21
-161.142
0
LINE
8
BLACK
6
CONTINUOUS
10
204.441
20
-161.142
11
204.726
21
-161.142
0
LINE
8
BLACK
6
CONTINUOUS
10
205.584
20
-160.999
11
205.869
21
-161.142
0
LINE
8
BLACK
6
CONTINUOUS
10
205.869
20
-161.142
11
206.441
21
-161.142
0
LINE
8
BLACK
6
CONTINUOUS
10
206.441
20
-161.142
11
206.726
21
-160.999
0
LINE
8
BLACK
6
CONTINUOUS
10
206.726
20
-160.999
11
206.869
21
-160.714
0
LINE
8
BLACK
6
CONTINUOUS
10
206.869
20
-160.714
11
206.869
21
-160.571
0
LINE
8
BLACK
6
CONTINUOUS
10
206.869
20
-160.571
11
206.726
21
-160.285
0
LINE
8
BLACK
6
CONTINUOUS
10
206.726
20
-160.285
11
206.441
21
-160.142
0
LINE
8
BLACK
6
CONTINUOUS
10
206.441
20
-160.142
11
206.012
21
-160.142
0
LINE
8
BLACK
6
CONTINUOUS
10
206.012
20
-160.142
11
205.726
21
-159.999
0
LINE
8
BLACK
6
CONTINUOUS
10
205.726
20
-159.999
11
205.584
21
-159.714
0
LINE
8
BLACK
6
CONTINUOUS
10
205.584
20
-159.714
11
205.584
21
-159.571
0
LINE
8
BLACK
6
CONTINUOUS
10
205.584
20
-159.571
11
205.726
21
-159.285
0
LINE
8
BLACK
6
CONTINUOUS
10
205.726
20
-159.285
11
206.012
21
-159.142
0
LINE
8
BLACK
6
CONTINUOUS
10
206.012
20
-159.142
11
206.441
21
-159.142
0
LINE
8
BLACK
6
CONTINUOUS
10
206.441
20
-159.142
11
206.726
21
-159.285
0
LINE
8
BLACK
6
CONTINUOUS
10
207.869
20
-162.285
11
208.012
21
-162.142
0
LINE
8
BLACK
6
CONTINUOUS
10
208.012
20
-162.142
11
208.298
21
-161.714
0
LINE
8
BLACK
6
CONTINUOUS
10
208.298
20
-161.714
11
208.441
21
-161.428
0
LINE
8
BLACK
6
CONTINUOUS
10
208.441
20
-161.428
11
208.584
21
-160.999
0
LINE
8
BLACK
6
CONTINUOUS
10
208.584
20
-160.999
11
208.726
21
-160.285
0
LINE
8
BLACK
6
CONTINUOUS
10
208.726
20
-160.285
11
208.726
21
-159.714
0
LINE
8
BLACK
6
CONTINUOUS
10
208.726
20
-159.714
11
208.584
21
-158.999
0
LINE
8
BLACK
6
CONTINUOUS
10
208.584
20
-158.999
11
208.441
21
-158.571
0
LINE
8
BLACK
6
CONTINUOUS
10
208.441
20
-158.571
11
208.298
21
-158.285
0
LINE
8
BLACK
6
CONTINUOUS
10
208.298
20
-158.285
11
208.012
21
-157.856
0
LINE
8
BLACK
6
CONTINUOUS
10
208.012
20
-157.856
11
207.869
21
-157.714
0
LINE
8
BLACK
6
CONTINUOUS
10
112.829
20
-164.169
11
112.829
21
-163.321
0
LINE
8
BLACK
6
CONTINUOUS
10
112.829
20
-163.321
11
111.981
21
-163.321
0
LINE
8
BLACK
6
CONTINUOUS
10
111.981
20
-163.321
11
111.981
21
-164.169
0
LINE
8
BLACK
6
CONTINUOUS
10
111.981
20
-164.169
11
112.829
21
-164.169
0
LINE
8
BLACK
6
CONTINUOUS
10
117.441
20
-165.102
11
115.726
21
-165.102
0
LINE
8
BLACK
6
CONTINUOUS
10
116.584
20
-165.102
11
116.584
21
-162.102
0
LINE
8
BLACK
6
CONTINUOUS
10
116.584
20
-162.102
11
116.298
21
-162.531
0
LINE
8
BLACK
6
CONTINUOUS
10
116.298
20
-162.531
11
116.012
21
-162.816
0
LINE
8
BLACK
6
CONTINUOUS
10
116.012
20
-162.816
11
115.726
21
-162.959
0
LINE
8
BLACK
6
CONTINUOUS
10
118.726
20
-164.816
11
118.869
21
-164.959
0
LINE
8
BLACK
6
CONTINUOUS
10
118.869
20
-164.959
11
118.726
21
-165.102
0
LINE
8
BLACK
6
CONTINUOUS
10
118.726
20
-165.102
11
118.584
21
-164.959
0
LINE
8
BLACK
6
CONTINUOUS
10
118.584
20
-164.959
11
118.726
21
-164.816
0
LINE
8
BLACK
6
CONTINUOUS
10
118.726
20
-164.816
11
118.726
21
-165.102
0
LINE
8
BLACK
6
CONTINUOUS
10
120.012
20
-162.388
11
120.155
21
-162.245
0
LINE
8
BLACK
6
CONTINUOUS
10
120.155
20
-162.245
11
120.441
21
-162.102
0
LINE
8
BLACK
6
CONTINUOUS
10
120.441
20
-162.102
11
121.155
21
-162.102
0
LINE
8
BLACK
6
CONTINUOUS
10
121.155
20
-162.102
11
121.441
21
-162.245
0
LINE
8
BLACK
6
CONTINUOUS
10
121.441
20
-162.245
11
121.584
21
-162.388
0
LINE
8
BLACK
6
CONTINUOUS
10
121.584
20
-162.388
11
121.726
21
-162.674
0
LINE
8
BLACK
6
CONTINUOUS
10
121.726
20
-162.674
11
121.726
21
-162.959
0
LINE
8
BLACK
6
CONTINUOUS
10
121.726
20
-162.959
11
121.584
21
-163.388
0
LINE
8
BLACK
6
CONTINUOUS
10
121.584
20
-163.388
11
119.869
21
-165.102
0
LINE
8
BLACK
6
CONTINUOUS
10
119.869
20
-165.102
11
121.726
21
-165.102
0
LINE
8
BLACK
6
CONTINUOUS
10
123.584
20
-162.102
11
123.869
21
-162.102
0
LINE
8
BLACK
6
CONTINUOUS
10
123.869
20
-162.102
11
124.155
21
-162.245
0
LINE
8
BLACK
6
CONTINUOUS
10
124.155
20
-162.245
11
124.298
21
-162.388
0
LINE
8
BLACK
6
CONTINUOUS
10
124.298
20
-162.388
11
124.441
21
-162.674
0
LINE
8
BLACK
6
CONTINUOUS
10
124.441
20
-162.674
11
124.584
21
-163.245
0
LINE
8
BLACK
6
CONTINUOUS
10
124.584
20
-163.245
11
124.584
21
-163.959
0
LINE
8
BLACK
6
CONTINUOUS
10
124.584
20
-163.959
11
124.441
21
-164.531
0
LINE
8
BLACK
6
CONTINUOUS
10
124.441
20
-164.531
11
124.298
21
-164.816
0
LINE
8
BLACK
6
CONTINUOUS
10
124.298
20
-164.816
11
124.155
21
-164.959
0
LINE
8
BLACK
6
CONTINUOUS
10
124.155
20
-164.959
11
123.869
21
-165.102
0
LINE
8
BLACK
6
CONTINUOUS
10
123.869
20
-165.102
11
123.584
21
-165.102
0
LINE
8
BLACK
6
CONTINUOUS
10
123.584
20
-165.102
11
123.298
21
-164.959
0
LINE
8
BLACK
6
CONTINUOUS
10
123.298
20
-164.959
11
123.155
21
-164.816
0
LINE
8
BLACK
6
CONTINUOUS
10
123.155
20
-164.816
11
123.012
21
-164.531
0
LINE
8
BLACK
6
CONTINUOUS
10
123.012
20
-164.531
11
122.869
21
-163.959
0
LINE
8
BLACK
6
CONTINUOUS
10
122.869
20
-163.959
11
122.869
21
-163.245
0
LINE
8
BLACK
6
CONTINUOUS
10
122.869
20
-163.245
11
123.012
21
-162.674
0
LINE
8
BLACK
6
CONTINUOUS
10
123.012
20
-162.674
11
123.155
21
-162.388
0
LINE
8
BLACK
6
CONTINUOUS
10
123.155
20
-162.388
11
123.298
21
-162.245
0
LINE
8
BLACK
6
CONTINUOUS
10
123.298
20
-162.245
11
123.584
21
-162.102
0
LINE
8
BLACK
6
CONTINUOUS
10
125.869
20
-165.102
11
125.869
21
-163.102
0
LINE
8
BLACK
6
CONTINUOUS
10
125.869
20
-163.388
11
126.012
21
-163.245
0
LINE
8
BLACK
6
CONTINUOUS
10
126.012
20
-163.245
11
126.298
21
-163.102
0
LINE
8
BLACK
6
CONTINUOUS
10
126.298
20
-163.102
11
126.726
21
-163.102
0
LINE
8
BLACK
6
CONTINUOUS
10
126.726
20
-163.102
11
127.012
21
-163.245
0
LINE
8
BLACK
6
CONTINUOUS
10
127.012
20
-163.245
11
127.155
21
-163.531
0
LINE
8
BLACK
6
CONTINUOUS
10
127.155
20
-163.531
11
127.155
21
-165.102
0
LINE
8
BLACK
6
CONTINUOUS
10
127.155
20
-163.531
11
127.298
21
-163.245
0
LINE
8
BLACK
6
CONTINUOUS
10
127.298
20
-163.245
11
127.584
21
-163.102
0
LINE
8
BLACK
6
CONTINUOUS
10
127.584
20
-163.102
11
128.012
21
-163.102
0
LINE
8
BLACK
6
CONTINUOUS
10
128.012
20
-163.102
11
128.298
21
-163.245
0
LINE
8
BLACK
6
CONTINUOUS
10
128.298
20
-163.245
11
128.441
21
-163.531
0
LINE
8
BLACK
6
CONTINUOUS
10
128.441
20
-163.531
11
128.441
21
-165.102
0
LINE
8
BLACK
6
CONTINUOUS
10
129.869
20
-165.102
11
129.869
21
-163.102
0
LINE
8
BLACK
6
CONTINUOUS
10
129.869
20
-163.388
11
130.012
21
-163.245
0
LINE
8
BLACK
6
CONTINUOUS
10
130.012
20
-163.245
11
130.298
21
-163.102
0
LINE
8
BLACK
6
CONTINUOUS
10
130.298
20
-163.102
11
130.726
21
-163.102
0
LINE
8
BLACK
6
CONTINUOUS
10
130.726
20
-163.102
11
131.012
21
-163.245
0
LINE
8
BLACK
6
CONTINUOUS
10
131.012
20
-163.245
11
131.155
21
-163.531
0
LINE
8
BLACK
6
CONTINUOUS
10
131.155
20
-163.531
11
131.155
21
-165.102
0
LINE
8
BLACK
6
CONTINUOUS
10
131.155
20
-163.531
11
131.298
21
-163.245
0
LINE
8
BLACK
6
CONTINUOUS
10
131.298
20
-163.245
11
131.584
21
-163.102
0
LINE
8
BLACK
6
CONTINUOUS
10
131.584
20
-163.102
11
132.012
21
-163.102
0
LINE
8
BLACK
6
CONTINUOUS
10
132.012
20
-163.102
11
132.298
21
-163.245
0
LINE
8
BLACK
6
CONTINUOUS
10
132.298
20
-163.245
11
132.441
21
-163.531
0
LINE
8
BLACK
6
CONTINUOUS
10
132.441
20
-163.531
11
132.441
21
-165.102
0
LINE
8
BLACK
6
CONTINUOUS
10
138.298
20
-161.959
11
135.726
21
-165.816
0
LINE
8
BLACK
6
CONTINUOUS
10
142.155
20
-162.102
11
142.441
21
-162.102
0
LINE
8
BLACK
6
CONTINUOUS
10
142.441
20
-162.102
11
142.726
21
-162.245
0
LINE
8
BLACK
6
CONTINUOUS
10
142.726
20
-162.245
11
142.869
21
-162.388
0
LINE
8
BLACK
6
CONTINUOUS
10
142.869
20
-162.388
11
143.012
21
-162.674
0
LINE
8
BLACK
6
CONTINUOUS
10
143.012
20
-162.674
11
143.155
21
-163.245
0
LINE
8
BLACK
6
CONTINUOUS
10
143.155
20
-163.245
11
143.155
21
-163.959
0
LINE
8
BLACK
6
CONTINUOUS
10
143.155
20
-163.959
11
143.012
21
-164.531
0
LINE
8
BLACK
6
CONTINUOUS
10
143.012
20
-164.531
11
142.869
21
-164.816
0
LINE
8
BLACK
6
CONTINUOUS
10
142.869
20
-164.816
11
142.726
21
-164.959
0
LINE
8
BLACK
6
CONTINUOUS
10
142.726
20
-164.959
11
142.441
21
-165.102
0
LINE
8
BLACK
6
CONTINUOUS
10
142.441
20
-165.102
11
142.155
21
-165.102
0
LINE
8
BLACK
6
CONTINUOUS
10
142.155
20
-165.102
11
141.869
21
-164.959
0
LINE
8
BLACK
6
CONTINUOUS
10
141.869
20
-164.959
11
141.726
21
-164.816
0
LINE
8
BLACK
6
CONTINUOUS
10
141.726
20
-164.816
11
141.584
21
-164.531
0
LINE
8
BLACK
6
CONTINUOUS
10
141.584
20
-164.531
11
141.441
21
-163.959
0
LINE
8
BLACK
6
CONTINUOUS
10
141.441
20
-163.959
11
141.441
21
-163.245
0
LINE
8
BLACK
6
CONTINUOUS
10
141.441
20
-163.245
11
141.584
21
-162.674
0
LINE
8
BLACK
6
CONTINUOUS
10
141.584
20
-162.674
11
141.726
21
-162.388
0
LINE
8
BLACK
6
CONTINUOUS
10
141.726
20
-162.388
11
141.869
21
-162.245
0
LINE
8
BLACK
6
CONTINUOUS
10
141.869
20
-162.245
11
142.155
21
-162.102
0
LINE
8
BLACK
6
CONTINUOUS
10
144.441
20
-164.816
11
144.584
21
-164.959
0
LINE
8
BLACK
6
CONTINUOUS
10
144.584
20
-164.959
11
144.441
21
-165.102
0
LINE
8
BLACK
6
CONTINUOUS
10
144.441
20
-165.102
11
144.298
21
-164.959
0
LINE
8
BLACK
6
CONTINUOUS
10
144.298
20
-164.959
11
144.441
21
-164.816
0
LINE
8
BLACK
6
CONTINUOUS
10
144.441
20
-164.816
11
144.441
21
-165.102
0
LINE
8
BLACK
6
CONTINUOUS
10
146.441
20
-162.102
11
146.726
21
-162.102
0
LINE
8
BLACK
6
CONTINUOUS
10
146.726
20
-162.102
11
147.012
21
-162.245
0
LINE
8
BLACK
6
CONTINUOUS
10
147.012
20
-162.245
11
147.155
21
-162.388
0
LINE
8
BLACK
6
CONTINUOUS
10
147.155
20
-162.388
11
147.298
21
-162.674
0
LINE
8
BLACK
6
CONTINUOUS
10
147.298
20
-162.674
11
147.441
21
-163.245
0
LINE
8
BLACK
6
CONTINUOUS
10
147.441
20
-163.245
11
147.441
21
-163.959
0
LINE
8
BLACK
6
CONTINUOUS
10
147.441
20
-163.959
11
147.298
21
-164.531
0
LINE
8
BLACK
6
CONTINUOUS
10
147.298
20
-164.531
11
147.155
21
-164.816
0
LINE
8
BLACK
6
CONTINUOUS
10
147.155
20
-164.816
11
147.012
21
-164.959
0
LINE
8
BLACK
6
CONTINUOUS
10
147.012
20
-164.959
11
146.726
21
-165.102
0
LINE
8
BLACK
6
CONTINUOUS
10
146.726
20
-165.102
11
146.441
21
-165.102
0
LINE
8
BLACK
6
CONTINUOUS
10
146.441
20
-165.102
11
146.155
21
-164.959
0
LINE
8
BLACK
6
CONTINUOUS
10
146.155
20
-164.959
11
146.012
21
-164.816
0
LINE
8
BLACK
6
CONTINUOUS
10
146.012
20
-164.816
11
145.869
21
-164.531
0
LINE
8
BLACK
6
CONTINUOUS
10
145.869
20
-164.531
11
145.726
21
-163.959
0
LINE
8
BLACK
6
CONTINUOUS
10
145.726
20
-163.959
11
145.726
21
-163.245
0
LINE
8
BLACK
6
CONTINUOUS
10
145.726
20
-163.245
11
145.869
21
-162.674
0
LINE
8
BLACK
6
CONTINUOUS
10
145.869
20
-162.674
11
146.012
21
-162.388
0
LINE
8
BLACK
6
CONTINUOUS
10
146.012
20
-162.388
11
146.155
21
-162.245
0
LINE
8
BLACK
6
CONTINUOUS
10
146.155
20
-162.245
11
146.441
21
-162.102
0
LINE
8
BLACK
6
CONTINUOUS
10
150.012
20
-163.102
11
150.012
21
-165.102
0
LINE
8
BLACK
6
CONTINUOUS
10
149.298
20
-161.959
11
148.584
21
-164.102
0
LINE
8
BLACK
6
CONTINUOUS
10
148.584
20
-164.102
11
150.441
21
-164.102
0
LINE
8
BLACK
6
CONTINUOUS
10
151.298
20
-162.102
11
153.298
21
-162.102
0
LINE
8
BLACK
6
CONTINUOUS
10
153.298
20
-162.102
11
152.012
21
-165.102
0
LINE
8
BLACK
6
CONTINUOUS
10
154.298
20
-162.102
11
154.298
21
-162.674
0
LINE
8
BLACK
6
CONTINUOUS
10
155.441
20
-162.102
11
155.441
21
-162.674
0
LINE
8
BLACK
6
CONTINUOUS
10
159.869
20
-166.245
11
159.726
21
-166.102
0
LINE
8
BLACK
6
CONTINUOUS
10
159.726
20
-166.102
11
159.441
21
-165.674
0
LINE
8
BLACK
6
CONTINUOUS
10
159.441
20
-165.674
11
159.298
21
-165.388
0
LINE
8
BLACK
6
CONTINUOUS
10
159.298
20
-165.388
11
159.155
21
-164.959
0
LINE
8
BLACK
6
CONTINUOUS
10
159.155
20
-164.959
11
159.012
21
-164.245
0
LINE
8
BLACK
6
CONTINUOUS
10
159.012
20
-164.245
11
159.012
21
-163.674
0
LINE
8
BLACK
6
CONTINUOUS
10
159.012
20
-163.674
11
159.155
21
-162.959
0
LINE
8
BLACK
6
CONTINUOUS
10
159.155
20
-162.959
11
159.298
21
-162.531
0
LINE
8
BLACK
6
CONTINUOUS
10
159.298
20
-162.531
11
159.441
21
-162.245
0
LINE
8
BLACK
6
CONTINUOUS
10
159.441
20
-162.245
11
159.726
21
-161.816
0
LINE
8
BLACK
6
CONTINUOUS
10
159.726
20
-161.816
11
159.869
21
-161.674
0
LINE
8
BLACK
6
CONTINUOUS
10
162.584
20
-165.102
11
160.869
21
-165.102
0
LINE
8
BLACK
6
CONTINUOUS
10
161.726
20
-165.102
11
161.726
21
-162.102
0
LINE
8
BLACK
6
CONTINUOUS
10
161.726
20
-162.102
11
161.441
21
-162.531
0
LINE
8
BLACK
6
CONTINUOUS
10
161.441
20
-162.531
11
161.155
21
-162.816
0
LINE
8
BLACK
6
CONTINUOUS
10
161.155
20
-162.816
11
160.869
21
-162.959
0
LINE
8
BLACK
6
CONTINUOUS
10
164.441
20
-162.102
11
164.726
21
-162.102
0
LINE
8
BLACK
6
CONTINUOUS
10
164.726
20
-162.102
11
165.012
21
-162.245
0
LINE
8
BLACK
6
CONTINUOUS
10
165.012
20
-162.245
11
165.155
21
-162.388
0
LINE
8
BLACK
6
CONTINUOUS
10
165.155
20
-162.388
11
165.298
21
-162.674
0
LINE
8
BLACK
6
CONTINUOUS
10
165.298
20
-162.674
11
165.441
21
-163.245
0
LINE
8
BLACK
6
CONTINUOUS
10
165.441
20
-163.245
11
165.441
21
-163.959
0
LINE
8
BLACK
6
CONTINUOUS
10
165.441
20
-163.959
11
165.298
21
-164.531
0
LINE
8
BLACK
6
CONTINUOUS
10
165.298
20
-164.531
11
165.155
21
-164.816
0
LINE
8
BLACK
6
CONTINUOUS
10
165.155
20
-164.816
11
165.012
21
-164.959
0
LINE
8
BLACK
6
CONTINUOUS
10
165.012
20
-164.959
11
164.726
21
-165.102
0
LINE
8
BLACK
6
CONTINUOUS
10
164.726
20
-165.102
11
164.441
21
-165.102
0
LINE
8
BLACK
6
CONTINUOUS
10
164.441
20
-165.102
11
164.155
21
-164.959
0
LINE
8
BLACK
6
CONTINUOUS
10
164.155
20
-164.959
11
164.012
21
-164.816
0
LINE
8
BLACK
6
CONTINUOUS
10
164.012
20
-164.816
11
163.869
21
-164.531
0
LINE
8
BLACK
6
CONTINUOUS
10
163.869
20
-164.531
11
163.726
21
-163.959
0
LINE
8
BLACK
6
CONTINUOUS
10
163.726
20
-163.959
11
163.726
21
-163.245
0
LINE
8
BLACK
6
CONTINUOUS
10
163.726
20
-163.245
11
163.869
21
-162.674
0
LINE
8
BLACK
6
CONTINUOUS
10
163.869
20
-162.674
11
164.012
21
-162.388
0
LINE
8
BLACK
6
CONTINUOUS
10
164.012
20
-162.388
11
164.155
21
-162.245
0
LINE
8
BLACK
6
CONTINUOUS
10
164.155
20
-162.245
11
164.441
21
-162.102
0
LINE
8
BLACK
6
CONTINUOUS
10
167.298
20
-162.102
11
167.584
21
-162.102
0
LINE
8
BLACK
6
CONTINUOUS
10
167.584
20
-162.102
11
167.869
21
-162.245
0
LINE
8
BLACK
6
CONTINUOUS
10
167.869
20
-162.245
11
168.012
21
-162.388
0
LINE
8
BLACK
6
CONTINUOUS
10
168.012
20
-162.388
11
168.155
21
-162.674
0
LINE
8
BLACK
6
CONTINUOUS
10
168.155
20
-162.674
11
168.298
21
-163.245
0
LINE
8
BLACK
6
CONTINUOUS
10
168.298
20
-163.245
11
168.298
21
-163.959
0
LINE
8
BLACK
6
CONTINUOUS
10
168.298
20
-163.959
11
168.155
21
-164.531
0
LINE
8
BLACK
6
CONTINUOUS
10
168.155
20
-164.531
11
168.012
21
-164.816
0
LINE
8
BLACK
6
CONTINUOUS
10
168.012
20
-164.816
11
167.869
21
-164.959
0
LINE
8
BLACK
6
CONTINUOUS
10
167.869
20
-164.959
11
167.584
21
-165.102
0
LINE
8
BLACK
6
CONTINUOUS
10
167.584
20
-165.102
11
167.298
21
-165.102
0
LINE
8
BLACK
6
CONTINUOUS
10
167.298
20
-165.102
11
167.012
21
-164.959
0
LINE
8
BLACK
6
CONTINUOUS
10
167.012
20
-164.959
11
166.869
21
-164.816
0
LINE
8
BLACK
6
CONTINUOUS
10
166.869
20
-164.816
11
166.726
21
-164.531
0
LINE
8
BLACK
6
CONTINUOUS
10
166.726
20
-164.531
11
166.584
21
-163.959
0
LINE
8
BLACK
6
CONTINUOUS
10
166.584
20
-163.959
11
166.584
21
-163.245
0
LINE
8
BLACK
6
CONTINUOUS
10
166.584
20
-163.245
11
166.726
21
-162.674
0
LINE
8
BLACK
6
CONTINUOUS
10
166.726
20
-162.674
11
166.869
21
-162.388
0
LINE
8
BLACK
6
CONTINUOUS
10
166.869
20
-162.388
11
167.012
21
-162.245
0
LINE
8
BLACK
6
CONTINUOUS
10
167.012
20
-162.245
11
167.298
21
-162.102
0
LINE
8
BLACK
6
CONTINUOUS
10
171.869
20
-165.102
11
171.869
21
-162.102
0
LINE
8
BLACK
6
CONTINUOUS
10
173.155
20
-165.102
11
173.155
21
-163.531
0
LINE
8
BLACK
6
CONTINUOUS
10
173.155
20
-163.531
11
173.012
21
-163.245
0
LINE
8
BLACK
6
CONTINUOUS
10
173.012
20
-163.245
11
172.726
21
-163.102
0
LINE
8
BLACK
6
CONTINUOUS
10
172.726
20
-163.102
11
172.298
21
-163.102
0
LINE
8
BLACK
6
CONTINUOUS
10
172.298
20
-163.102
11
172.012
21
-163.245
0
LINE
8
BLACK
6
CONTINUOUS
10
172.012
20
-163.245
11
171.869
21
-163.388
0
LINE
8
BLACK
6
CONTINUOUS
10
175.012
20
-165.102
11
174.726
21
-164.959
0
LINE
8
BLACK
6
CONTINUOUS
10
174.726
20
-164.959
11
174.584
21
-164.816
0
LINE
8
BLACK
6
CONTINUOUS
10
174.584
20
-164.816
11
174.441
21
-164.531
0
LINE
8
BLACK
6
CONTINUOUS
10
174.441
20
-164.531
11
174.441
21
-163.674
0
LINE
8
BLACK
6
CONTINUOUS
10
174.441
20
-163.674
11
174.584
21
-163.388
0
LINE
8
BLACK
6
CONTINUOUS
10
174.584
20
-163.388
11
174.726
21
-163.245
0
LINE
8
BLACK
6
CONTINUOUS
10
174.726
20
-163.245
11
175.012
21
-163.102
0
LINE
8
BLACK
6
CONTINUOUS
10
175.012
20
-163.102
11
175.441
21
-163.102
0
LINE
8
BLACK
6
CONTINUOUS
10
175.441
20
-163.102
11
175.726
21
-163.245
0
LINE
8
BLACK
6
CONTINUOUS
10
175.726
20
-163.245
11
175.869
21
-163.388
0
LINE
8
BLACK
6
CONTINUOUS
10
175.869
20
-163.388
11
176.012
21
-163.674
0
LINE
8
BLACK
6
CONTINUOUS
10
176.012
20
-163.674
11
176.012
21
-164.531
0
LINE
8
BLACK
6
CONTINUOUS
10
176.012
20
-164.531
11
175.869
21
-164.816
0
LINE
8
BLACK
6
CONTINUOUS
10
175.869
20
-164.816
11
175.726
21
-164.959
0
LINE
8
BLACK
6
CONTINUOUS
10
175.726
20
-164.959
11
175.441
21
-165.102
0
LINE
8
BLACK
6
CONTINUOUS
10
175.441
20
-165.102
11
175.012
21
-165.102
0
LINE
8
BLACK
6
CONTINUOUS
10
177.726
20
-165.102
11
177.441
21
-164.959
0
LINE
8
BLACK
6
CONTINUOUS
10
177.441
20
-164.959
11
177.298
21
-164.674
0
LINE
8
BLACK
6
CONTINUOUS
10
177.298
20
-164.674
11
177.298
21
-162.102
0
LINE
8
BLACK
6
CONTINUOUS
10
180.012
20
-164.959
11
179.726
21
-165.102
0
LINE
8
BLACK
6
CONTINUOUS
10
179.726
20
-165.102
11
179.155
21
-165.102
0
LINE
8
BLACK
6
CONTINUOUS
10
179.155
20
-165.102
11
178.869
21
-164.959
0
LINE
8
BLACK
6
CONTINUOUS
10
178.869
20
-164.959
11
178.726
21
-164.674
0
LINE
8
BLACK
6
CONTINUOUS
10
178.726
20
-164.674
11
178.726
21
-163.531
0
LINE
8
BLACK
6
CONTINUOUS
10
178.726
20
-163.531
11
178.869
21
-163.245
0
LINE
8
BLACK
6
CONTINUOUS
10
178.869
20
-163.245
11
179.155
21
-163.102
0
LINE
8
BLACK
6
CONTINUOUS
10
179.155
20
-163.102
11
179.726
21
-163.102
0
LINE
8
BLACK
6
CONTINUOUS
10
179.726
20
-163.102
11
180.012
21
-163.245
0
LINE
8
BLACK
6
CONTINUOUS
10
180.012
20
-163.245
11
180.155
21
-163.531
0
LINE
8
BLACK
6
CONTINUOUS
10
180.155
20
-163.531
11
180.155
21
-163.816
0
LINE
8
BLACK
6
CONTINUOUS
10
180.155
20
-163.816
11
178.726
21
-164.102
0
LINE
8
BLACK
6
CONTINUOUS
10
181.298
20
-164.959
11
181.584
21
-165.102
0
LINE
8
BLACK
6
CONTINUOUS
10
181.584
20
-165.102
11
182.155
21
-165.102
0
LINE
8
BLACK
6
CONTINUOUS
10
182.155
20
-165.102
11
182.441
21
-164.959
0
LINE
8
BLACK
6
CONTINUOUS
10
182.441
20
-164.959
11
182.584
21
-164.674
0
LINE
8
BLACK
6
CONTINUOUS
10
182.584
20
-164.674
11
182.584
21
-164.531
0
LINE
8
BLACK
6
CONTINUOUS
10
182.584
20
-164.531
11
182.441
21
-164.245
0
LINE
8
BLACK
6
CONTINUOUS
10
182.441
20
-164.245
11
182.155
21
-164.102
0
LINE
8
BLACK
6
CONTINUOUS
10
182.155
20
-164.102
11
181.726
21
-164.102
0
LINE
8
BLACK
6
CONTINUOUS
10
181.726
20
-164.102
11
181.441
21
-163.959
0
LINE
8
BLACK
6
CONTINUOUS
10
181.441
20
-163.959
11
181.298
21
-163.674
0
LINE
8
BLACK
6
CONTINUOUS
10
181.298
20
-163.674
11
181.298
21
-163.531
0
LINE
8
BLACK
6
CONTINUOUS
10
181.298
20
-163.531
11
181.441
21
-163.245
0
LINE
8
BLACK
6
CONTINUOUS
10
181.441
20
-163.245
11
181.726
21
-163.102
0
LINE
8
BLACK
6
CONTINUOUS
10
181.726
20
-163.102
11
182.155
21
-163.102
0
LINE
8
BLACK
6
CONTINUOUS
10
182.155
20
-163.102
11
182.441
21
-163.245
0
LINE
8
BLACK
6
CONTINUOUS
10
183.584
20
-166.245
11
183.726
21
-166.102
0
LINE
8
BLACK
6
CONTINUOUS
10
183.726
20
-166.102
11
184.012
21
-165.674
0
LINE
8
BLACK
6
CONTINUOUS
10
184.012
20
-165.674
11
184.155
21
-165.388
0
LINE
8
BLACK
6
CONTINUOUS
10
184.155
20
-165.388
11
184.298
21
-164.959
0
LINE
8
BLACK
6
CONTINUOUS
10
184.298
20
-164.959
11
184.441
21
-164.245
0
LINE
8
BLACK
6
CONTINUOUS
10
184.441
20
-164.245
11
184.441
21
-163.674
0
LINE
8
BLACK
6
CONTINUOUS
10
184.441
20
-163.674
11
184.298
21
-162.959
0
LINE
8
BLACK
6
CONTINUOUS
10
184.298
20
-162.959
11
184.155
21
-162.531
0
LINE
8
BLACK
6
CONTINUOUS
10
184.155
20
-162.531
11
184.012
21
-162.245
0
LINE
8
BLACK
6
CONTINUOUS
10
184.012
20
-162.245
11
183.726
21
-161.816
0
LINE
8
BLACK
6
CONTINUOUS
10
183.726
20
-161.816
11
183.584
21
-161.674
  0
ENDSEC
  0
EOF
