G04 #@! TF.GenerationSoftware,KiCad,Pcbnew,(5.1.5-0-10_14)*
G04 #@! TF.CreationDate,2020-06-21T14:20:04+10:00*
G04 #@! TF.ProjectId,Caution_Light_Panel,43617574-696f-46e5-9f4c-696768745f50,rev?*
G04 #@! TF.SameCoordinates,Original*
G04 #@! TF.FileFunction,Soldermask,Bot*
G04 #@! TF.FilePolarity,Negative*
%FSLAX46Y46*%
G04 Gerber Fmt 4.6, Leading zero omitted, Abs format (unit mm)*
G04 Created by KiCad (PCBNEW (5.1.5-0-10_14)) date 2020-06-21 14:20:04*
%MOMM*%
%LPD*%
G04 APERTURE LIST*
%ADD10O,2.200000X1.740000*%
%ADD11C,0.100000*%
%ADD12C,1.800000*%
%ADD13R,1.800000X1.800000*%
%ADD14C,2.500000*%
G04 APERTURE END LIST*
D10*
X135382000Y-96774000D03*
X135382000Y-94234000D03*
X135382000Y-91694000D03*
X135382000Y-89154000D03*
X135382000Y-86614000D03*
D11*
G36*
X136256505Y-83205204D02*
G01*
X136280773Y-83208804D01*
X136304572Y-83214765D01*
X136327671Y-83223030D01*
X136349850Y-83233520D01*
X136370893Y-83246132D01*
X136390599Y-83260747D01*
X136408777Y-83277223D01*
X136425253Y-83295401D01*
X136439868Y-83315107D01*
X136452480Y-83336150D01*
X136462970Y-83358329D01*
X136471235Y-83381428D01*
X136477196Y-83405227D01*
X136480796Y-83429495D01*
X136482000Y-83453999D01*
X136482000Y-84694001D01*
X136480796Y-84718505D01*
X136477196Y-84742773D01*
X136471235Y-84766572D01*
X136462970Y-84789671D01*
X136452480Y-84811850D01*
X136439868Y-84832893D01*
X136425253Y-84852599D01*
X136408777Y-84870777D01*
X136390599Y-84887253D01*
X136370893Y-84901868D01*
X136349850Y-84914480D01*
X136327671Y-84924970D01*
X136304572Y-84933235D01*
X136280773Y-84939196D01*
X136256505Y-84942796D01*
X136232001Y-84944000D01*
X134531999Y-84944000D01*
X134507495Y-84942796D01*
X134483227Y-84939196D01*
X134459428Y-84933235D01*
X134436329Y-84924970D01*
X134414150Y-84914480D01*
X134393107Y-84901868D01*
X134373401Y-84887253D01*
X134355223Y-84870777D01*
X134338747Y-84852599D01*
X134324132Y-84832893D01*
X134311520Y-84811850D01*
X134301030Y-84789671D01*
X134292765Y-84766572D01*
X134286804Y-84742773D01*
X134283204Y-84718505D01*
X134282000Y-84694001D01*
X134282000Y-83453999D01*
X134283204Y-83429495D01*
X134286804Y-83405227D01*
X134292765Y-83381428D01*
X134301030Y-83358329D01*
X134311520Y-83336150D01*
X134324132Y-83315107D01*
X134338747Y-83295401D01*
X134355223Y-83277223D01*
X134373401Y-83260747D01*
X134393107Y-83246132D01*
X134414150Y-83233520D01*
X134436329Y-83223030D01*
X134459428Y-83214765D01*
X134483227Y-83208804D01*
X134507495Y-83205204D01*
X134531999Y-83204000D01*
X136232001Y-83204000D01*
X136256505Y-83205204D01*
G37*
D10*
X159512000Y-93218000D03*
X159512000Y-90678000D03*
X159512000Y-88138000D03*
D11*
G36*
X160386505Y-84729204D02*
G01*
X160410773Y-84732804D01*
X160434572Y-84738765D01*
X160457671Y-84747030D01*
X160479850Y-84757520D01*
X160500893Y-84770132D01*
X160520599Y-84784747D01*
X160538777Y-84801223D01*
X160555253Y-84819401D01*
X160569868Y-84839107D01*
X160582480Y-84860150D01*
X160592970Y-84882329D01*
X160601235Y-84905428D01*
X160607196Y-84929227D01*
X160610796Y-84953495D01*
X160612000Y-84977999D01*
X160612000Y-86218001D01*
X160610796Y-86242505D01*
X160607196Y-86266773D01*
X160601235Y-86290572D01*
X160592970Y-86313671D01*
X160582480Y-86335850D01*
X160569868Y-86356893D01*
X160555253Y-86376599D01*
X160538777Y-86394777D01*
X160520599Y-86411253D01*
X160500893Y-86425868D01*
X160479850Y-86438480D01*
X160457671Y-86448970D01*
X160434572Y-86457235D01*
X160410773Y-86463196D01*
X160386505Y-86466796D01*
X160362001Y-86468000D01*
X158661999Y-86468000D01*
X158637495Y-86466796D01*
X158613227Y-86463196D01*
X158589428Y-86457235D01*
X158566329Y-86448970D01*
X158544150Y-86438480D01*
X158523107Y-86425868D01*
X158503401Y-86411253D01*
X158485223Y-86394777D01*
X158468747Y-86376599D01*
X158454132Y-86356893D01*
X158441520Y-86335850D01*
X158431030Y-86313671D01*
X158422765Y-86290572D01*
X158416804Y-86266773D01*
X158413204Y-86242505D01*
X158412000Y-86218001D01*
X158412000Y-84977999D01*
X158413204Y-84953495D01*
X158416804Y-84929227D01*
X158422765Y-84905428D01*
X158431030Y-84882329D01*
X158441520Y-84860150D01*
X158454132Y-84839107D01*
X158468747Y-84819401D01*
X158485223Y-84801223D01*
X158503401Y-84784747D01*
X158523107Y-84770132D01*
X158544150Y-84757520D01*
X158566329Y-84747030D01*
X158589428Y-84738765D01*
X158613227Y-84732804D01*
X158637495Y-84729204D01*
X158661999Y-84728000D01*
X160362001Y-84728000D01*
X160386505Y-84729204D01*
G37*
D12*
X174752000Y-106420000D03*
D13*
X174752000Y-103880000D03*
D12*
X174752000Y-96310400D03*
D13*
X174752000Y-93770400D03*
D12*
X174752000Y-86200400D03*
D13*
X174752000Y-83660400D03*
D12*
X174752000Y-76100400D03*
D13*
X174752000Y-73560400D03*
D12*
X167640000Y-106420000D03*
D13*
X167640000Y-103880000D03*
D12*
X167640000Y-96310400D03*
D13*
X167640000Y-93770400D03*
D12*
X167640000Y-86200400D03*
D13*
X167640000Y-83660400D03*
D12*
X167640000Y-76100400D03*
D13*
X167640000Y-73560400D03*
D12*
X151130000Y-106420000D03*
D13*
X151130000Y-103880000D03*
D12*
X151130000Y-96310400D03*
D13*
X151130000Y-93770400D03*
D12*
X151130000Y-86200400D03*
D13*
X151130000Y-83660400D03*
D12*
X151130000Y-76100400D03*
D13*
X151130000Y-73560400D03*
D12*
X143764000Y-106420000D03*
D13*
X143764000Y-103880000D03*
D12*
X143764000Y-96310400D03*
D13*
X143764000Y-93770400D03*
D12*
X143764000Y-86200400D03*
D13*
X143764000Y-83660400D03*
D12*
X143764000Y-76100400D03*
D13*
X143764000Y-73560400D03*
D12*
X127000000Y-106420000D03*
D13*
X127000000Y-103880000D03*
D12*
X127000000Y-96310400D03*
D13*
X127000000Y-93770400D03*
D12*
X127000000Y-86200400D03*
D13*
X127000000Y-83660400D03*
D12*
X127000000Y-76100400D03*
D13*
X127000000Y-73560400D03*
D12*
X119634000Y-106420000D03*
D13*
X119634000Y-103880000D03*
D12*
X119634000Y-96310400D03*
D13*
X119634000Y-93770400D03*
D12*
X119634000Y-86200400D03*
D13*
X119634000Y-83660400D03*
D12*
X119634000Y-76100400D03*
D13*
X119634000Y-73560400D03*
D14*
X109195000Y-72600400D03*
X185995000Y-72600400D03*
X109195000Y-107340000D03*
X185995000Y-107340000D03*
M02*
