%TF.GenerationSoftware,KiCad,Pcbnew,7.0.9*%
%TF.CreationDate,2023-11-25T11:24:36+10:00*%
%TF.ProjectId,VHF-FM,5648462d-464d-42e6-9b69-6361645f7063,rev?*%
%TF.SameCoordinates,Original*%
%TF.FileFunction,Soldermask,Top*%
%TF.FilePolarity,Negative*%
%FSLAX46Y46*%
G04 Gerber Fmt 4.6, Leading zero omitted, Abs format (unit mm)*
G04 Created by KiCad (PCBNEW 7.0.9) date 2023-11-25 11:24:36*
%MOMM*%
%LPD*%
G01*
G04 APERTURE LIST*
G04 Aperture macros list*
%AMRoundRect*
0 Rectangle with rounded corners*
0 $1 Rounding radius*
0 $2 $3 $4 $5 $6 $7 $8 $9 X,Y pos of 4 corners*
0 Add a 4 corners polygon primitive as box body*
4,1,4,$2,$3,$4,$5,$6,$7,$8,$9,$2,$3,0*
0 Add four circle primitives for the rounded corners*
1,1,$1+$1,$2,$3*
1,1,$1+$1,$4,$5*
1,1,$1+$1,$6,$7*
1,1,$1+$1,$8,$9*
0 Add four rect primitives between the rounded corners*
20,1,$1+$1,$2,$3,$4,$5,0*
20,1,$1+$1,$4,$5,$6,$7,0*
20,1,$1+$1,$6,$7,$8,$9,0*
20,1,$1+$1,$8,$9,$2,$3,0*%
G04 Aperture macros list end*
%ADD10RoundRect,0.250000X0.620000X0.845000X-0.620000X0.845000X-0.620000X-0.845000X0.620000X-0.845000X0*%
%ADD11O,1.740000X2.190000*%
%ADD12RoundRect,0.250000X-0.620000X-0.845000X0.620000X-0.845000X0.620000X0.845000X-0.620000X0.845000X0*%
%ADD13R,1.800000X1.800000*%
%ADD14O,1.800000X1.800000*%
G04 APERTURE END LIST*
D10*
%TO.C,J5*%
X149170000Y-71010000D03*
D11*
X146630000Y-71010000D03*
X144090000Y-71010000D03*
X141550000Y-71010000D03*
X139010000Y-71010000D03*
X136470000Y-71010000D03*
X133930000Y-71010000D03*
X131390000Y-71010000D03*
%TD*%
D12*
%TO.C,VHF_FM_ENC_2*%
X121470000Y-81470000D03*
D11*
X124010000Y-81470000D03*
X126550000Y-81470000D03*
X129090000Y-81470000D03*
X131630000Y-81470000D03*
X134170000Y-81470000D03*
%TD*%
D10*
%TO.C,SW5*%
X133370000Y-59490000D03*
D11*
X130830000Y-59490000D03*
X128290000Y-59490000D03*
%TD*%
D10*
%TO.C,J8*%
X153630000Y-94820000D03*
D11*
X151090000Y-94820000D03*
X148550000Y-94820000D03*
%TD*%
D10*
%TO.C,J7*%
X153720000Y-104870000D03*
D11*
X151180000Y-104870000D03*
X148640000Y-104870000D03*
X146100000Y-104870000D03*
%TD*%
D10*
%TO.C,J6*%
X137530000Y-101610000D03*
D11*
X134990000Y-101610000D03*
X132450000Y-101610000D03*
X129910000Y-101610000D03*
X127370000Y-101610000D03*
X124830000Y-101610000D03*
%TD*%
D10*
%TO.C,J4*%
X125220000Y-49320000D03*
D11*
X122680000Y-49320000D03*
X120140000Y-49320000D03*
X117600000Y-49320000D03*
%TD*%
D10*
%TO.C,J3*%
X111250000Y-65030000D03*
D11*
X108710000Y-65030000D03*
%TD*%
D10*
%TO.C,J2*%
X111410000Y-56220000D03*
D11*
X108870000Y-56220000D03*
%TD*%
D10*
%TO.C,J1*%
X137440000Y-49470000D03*
D11*
X134900000Y-49470000D03*
X132360000Y-49470000D03*
X129820000Y-49470000D03*
%TD*%
D10*
%TO.C,SW7*%
X147810000Y-49600000D03*
D11*
X145270000Y-49600000D03*
%TD*%
D10*
%TO.C,RV1*%
X153630000Y-85750000D03*
D11*
X151090000Y-85750000D03*
X148550000Y-85750000D03*
%TD*%
D13*
%TO.C,D4*%
X129610000Y-107280000D03*
D14*
X121990000Y-107280000D03*
%TD*%
D10*
%TO.C,J9*%
X127570000Y-91170000D03*
D11*
X125030000Y-91170000D03*
X122490000Y-91170000D03*
X119950000Y-91170000D03*
X117410000Y-91170000D03*
X114870000Y-91170000D03*
%TD*%
D10*
%TO.C,SW3*%
X155030000Y-59490000D03*
D11*
X152490000Y-59490000D03*
X149950000Y-59490000D03*
%TD*%
D13*
%TO.C,D2*%
X140960000Y-112100000D03*
D14*
X133340000Y-112100000D03*
%TD*%
D10*
%TO.C,SW1*%
X122410000Y-71010000D03*
D11*
X119870000Y-71010000D03*
X117330000Y-71010000D03*
%TD*%
D13*
%TO.C,D1*%
X140880000Y-107280000D03*
D14*
X133260000Y-107280000D03*
%TD*%
D10*
%TO.C,SW2*%
X144200000Y-59490000D03*
D11*
X141660000Y-59490000D03*
X139120000Y-59490000D03*
%TD*%
D13*
%TO.C,D3*%
X129540000Y-112100000D03*
D14*
X121920000Y-112100000D03*
%TD*%
D10*
%TO.C,SW4*%
X122540000Y-59490000D03*
D11*
X120000000Y-59490000D03*
X117460000Y-59490000D03*
%TD*%
D10*
%TO.C,SW6*%
X111490000Y-104750000D03*
D11*
X108950000Y-104750000D03*
%TD*%
M02*
