%TF.GenerationSoftware,KiCad,Pcbnew,7.0.9*%
%TF.CreationDate,2023-11-25T11:24:35+10:00*%
%TF.ProjectId,VHF-FM,5648462d-464d-42e6-9b69-6361645f7063,rev?*%
%TF.SameCoordinates,Original*%
%TF.FileFunction,Copper,L1,Top*%
%TF.FilePolarity,Positive*%
%FSLAX46Y46*%
G04 Gerber Fmt 4.6, Leading zero omitted, Abs format (unit mm)*
G04 Created by KiCad (PCBNEW 7.0.9) date 2023-11-25 11:24:35*
%MOMM*%
%LPD*%
G01*
G04 APERTURE LIST*
G04 Aperture macros list*
%AMRoundRect*
0 Rectangle with rounded corners*
0 $1 Rounding radius*
0 $2 $3 $4 $5 $6 $7 $8 $9 X,Y pos of 4 corners*
0 Add a 4 corners polygon primitive as box body*
4,1,4,$2,$3,$4,$5,$6,$7,$8,$9,$2,$3,0*
0 Add four circle primitives for the rounded corners*
1,1,$1+$1,$2,$3*
1,1,$1+$1,$4,$5*
1,1,$1+$1,$6,$7*
1,1,$1+$1,$8,$9*
0 Add four rect primitives between the rounded corners*
20,1,$1+$1,$2,$3,$4,$5,0*
20,1,$1+$1,$4,$5,$6,$7,0*
20,1,$1+$1,$6,$7,$8,$9,0*
20,1,$1+$1,$8,$9,$2,$3,0*%
G04 Aperture macros list end*
%TA.AperFunction,ComponentPad*%
%ADD10RoundRect,0.250000X0.620000X0.845000X-0.620000X0.845000X-0.620000X-0.845000X0.620000X-0.845000X0*%
%TD*%
%TA.AperFunction,ComponentPad*%
%ADD11O,1.740000X2.190000*%
%TD*%
%TA.AperFunction,ComponentPad*%
%ADD12RoundRect,0.250000X-0.620000X-0.845000X0.620000X-0.845000X0.620000X0.845000X-0.620000X0.845000X0*%
%TD*%
%TA.AperFunction,ComponentPad*%
%ADD13R,1.800000X1.800000*%
%TD*%
%TA.AperFunction,ComponentPad*%
%ADD14O,1.800000X1.800000*%
%TD*%
%TA.AperFunction,Conductor*%
%ADD15C,0.250000*%
%TD*%
G04 APERTURE END LIST*
D10*
%TO.P,J5,1,Pin_1*%
%TO.N,GND*%
X149170000Y-71010000D03*
D11*
%TO.P,J5,2,Pin_2*%
%TO.N,/VHF__FM_ENC_1_A*%
X146630000Y-71010000D03*
%TO.P,J5,3,Pin_3*%
%TO.N,/VHF__FM_ENC_1_B*%
X144090000Y-71010000D03*
%TO.P,J5,4,Pin_4*%
%TO.N,/VHF__FM_ENC_2_A*%
X141550000Y-71010000D03*
%TO.P,J5,5,Pin_5*%
%TO.N,/VHF__FM_ENC_2_B*%
X139010000Y-71010000D03*
%TO.P,J5,6,Pin_6*%
%TO.N,/VHF__FM_ENC_3_A*%
X136470000Y-71010000D03*
%TO.P,J5,7,Pin_7*%
%TO.N,/VHF__FM_ENC_3_B*%
X133930000Y-71010000D03*
%TO.P,J5,8,Pin_8*%
%TO.N,unconnected-(J5-Pin_8-Pad8)*%
X131390000Y-71010000D03*
%TD*%
D12*
%TO.P,VHF_FM_ENC_2,1,Pin_1*%
%TO.N,GND*%
X121470000Y-81470000D03*
D11*
%TO.P,VHF_FM_ENC_2,2,Pin_2*%
%TO.N,/VHF__FM_ENC_4_A*%
X124010000Y-81470000D03*
%TO.P,VHF_FM_ENC_2,3,Pin_3*%
%TO.N,/VHF__FM_ENC_4_B*%
X126550000Y-81470000D03*
%TO.P,VHF_FM_ENC_2,4,Pin_4*%
%TO.N,/VHF__FM_PRESET_A*%
X129090000Y-81470000D03*
%TO.P,VHF_FM_ENC_2,5,Pin_5*%
%TO.N,/VHF__FM_PRESET_B*%
X131630000Y-81470000D03*
%TO.P,VHF_FM_ENC_2,6,Pin_6*%
%TO.N,unconnected-(VHF_FM_ENC_2-Pin_6-Pad6)*%
X134170000Y-81470000D03*
%TD*%
D10*
%TO.P,SW5,1,1*%
%TO.N,/VHF__FM_ENC_3_A*%
X133370000Y-59490000D03*
D11*
%TO.P,SW5,2,2*%
%TO.N,GND*%
X130830000Y-59490000D03*
%TO.P,SW5,3,3*%
%TO.N,/VHF__FM_ENC_3_B*%
X128290000Y-59490000D03*
%TD*%
D10*
%TO.P,J8,1,Pin_1*%
%TO.N,/ANALOG_5V*%
X153630000Y-94820000D03*
D11*
%TO.P,J8,2,Pin_2*%
%TO.N,/VHF_FM_VOL*%
X151090000Y-94820000D03*
%TO.P,J8,3,Pin_3*%
%TO.N,/ANALOG_GND*%
X148550000Y-94820000D03*
%TD*%
D10*
%TO.P,J7,1,Pin_1*%
%TO.N,Net-(D2-K)*%
X153720000Y-104870000D03*
D11*
%TO.P,J7,2,Pin_2*%
%TO.N,/ROW0*%
X151180000Y-104870000D03*
%TO.P,J7,3,Pin_3*%
%TO.N,/ROW1*%
X148640000Y-104870000D03*
%TO.P,J7,4,Pin_4*%
%TO.N,/ROW2*%
X146100000Y-104870000D03*
%TD*%
D10*
%TO.P,J6,1,Pin_1*%
%TO.N,Net-(D1-K)*%
X137530000Y-101610000D03*
D11*
%TO.P,J6,2,Pin_2*%
%TO.N,/ROW0*%
X134990000Y-101610000D03*
%TO.P,J6,3,Pin_3*%
%TO.N,/ROW1*%
X132450000Y-101610000D03*
%TO.P,J6,4,Pin_4*%
%TO.N,/ROW2*%
X129910000Y-101610000D03*
%TO.P,J6,5,Pin_5*%
%TO.N,/ROW3*%
X127370000Y-101610000D03*
%TO.P,J6,6,Pin_6*%
%TO.N,unconnected-(J6-Pin_6-Pad6)*%
X124830000Y-101610000D03*
%TD*%
D10*
%TO.P,J4,1,Pin_1*%
%TO.N,Net-(J1-Pin_1)*%
X125220000Y-49320000D03*
D11*
%TO.P,J4,2,Pin_2*%
%TO.N,Net-(J1-Pin_2)*%
X122680000Y-49320000D03*
%TO.P,J4,3,Pin_3*%
%TO.N,Net-(J1-Pin_3)*%
X120140000Y-49320000D03*
%TO.P,J4,4,Pin_4*%
%TO.N,Net-(J1-Pin_4)*%
X117600000Y-49320000D03*
%TD*%
D10*
%TO.P,J3,1,Pin_1*%
%TO.N,Net-(J2-Pin_1)*%
X111250000Y-65030000D03*
D11*
%TO.P,J3,2,Pin_2*%
%TO.N,Net-(J2-Pin_2)*%
X108710000Y-65030000D03*
%TD*%
D10*
%TO.P,J2,1,Pin_1*%
%TO.N,Net-(J2-Pin_1)*%
X111410000Y-56220000D03*
D11*
%TO.P,J2,2,Pin_2*%
%TO.N,Net-(J2-Pin_2)*%
X108870000Y-56220000D03*
%TD*%
D10*
%TO.P,J1,1,Pin_1*%
%TO.N,Net-(J1-Pin_1)*%
X137440000Y-49470000D03*
D11*
%TO.P,J1,2,Pin_2*%
%TO.N,Net-(J1-Pin_2)*%
X134900000Y-49470000D03*
%TO.P,J1,3,Pin_3*%
%TO.N,Net-(J1-Pin_3)*%
X132360000Y-49470000D03*
%TO.P,J1,4,Pin_4*%
%TO.N,Net-(J1-Pin_4)*%
X129820000Y-49470000D03*
%TD*%
D10*
%TO.P,SW7,1,1*%
%TO.N,Net-(D4-K)*%
X147810000Y-49600000D03*
D11*
%TO.P,SW7,2,2*%
%TO.N,/ROW4*%
X145270000Y-49600000D03*
%TD*%
D10*
%TO.P,RV1,1,1*%
%TO.N,/ANALOG_5V*%
X153630000Y-85750000D03*
D11*
%TO.P,RV1,2,2*%
%TO.N,/VHF_FM_VOL*%
X151090000Y-85750000D03*
%TO.P,RV1,3,3*%
%TO.N,/ANALOG_GND*%
X148550000Y-85750000D03*
%TD*%
D13*
%TO.P,D4,1,K*%
%TO.N,Net-(D4-K)*%
X129610000Y-107280000D03*
D14*
%TO.P,D4,2,A*%
%TO.N,/COL6*%
X121990000Y-107280000D03*
%TD*%
D10*
%TO.P,J9,1,Pin_1*%
%TO.N,/COL6*%
X127570000Y-91170000D03*
D11*
%TO.P,J9,2,Pin_2*%
%TO.N,/COL7*%
X125030000Y-91170000D03*
%TO.P,J9,3,Pin_3*%
%TO.N,/ROW0*%
X122490000Y-91170000D03*
%TO.P,J9,4,Pin_4*%
%TO.N,/ROW1*%
X119950000Y-91170000D03*
%TO.P,J9,5,Pin_5*%
%TO.N,/ROW2*%
X117410000Y-91170000D03*
%TO.P,J9,6,Pin_6*%
%TO.N,/ROW3*%
X114870000Y-91170000D03*
%TD*%
D10*
%TO.P,SW3,1,1*%
%TO.N,/VHF__FM_ENC_1_A*%
X155030000Y-59490000D03*
D11*
%TO.P,SW3,2,2*%
%TO.N,GND*%
X152490000Y-59490000D03*
%TO.P,SW3,3,3*%
%TO.N,/VHF__FM_ENC_1_B*%
X149950000Y-59490000D03*
%TD*%
D13*
%TO.P,D2,1,K*%
%TO.N,Net-(D2-K)*%
X140960000Y-112100000D03*
D14*
%TO.P,D2,2,A*%
%TO.N,/COL7*%
X133340000Y-112100000D03*
%TD*%
D10*
%TO.P,SW1,1,1*%
%TO.N,/VHF__FM_PRESET_A*%
X122410000Y-71010000D03*
D11*
%TO.P,SW1,2,2*%
%TO.N,GND*%
X119870000Y-71010000D03*
%TO.P,SW1,3,3*%
%TO.N,/VHF__FM_PRESET_B*%
X117330000Y-71010000D03*
%TD*%
D13*
%TO.P,D1,1,K*%
%TO.N,Net-(D1-K)*%
X140880000Y-107280000D03*
D14*
%TO.P,D1,2,A*%
%TO.N,/COL6*%
X133260000Y-107280000D03*
%TD*%
D10*
%TO.P,SW2,1,1*%
%TO.N,/VHF__FM_ENC_2_A*%
X144200000Y-59490000D03*
D11*
%TO.P,SW2,2,2*%
%TO.N,GND*%
X141660000Y-59490000D03*
%TO.P,SW2,3,3*%
%TO.N,/VHF__FM_ENC_2_B*%
X139120000Y-59490000D03*
%TD*%
D13*
%TO.P,D3,1,K*%
%TO.N,Net-(D3-K)*%
X129540000Y-112100000D03*
D14*
%TO.P,D3,2,A*%
%TO.N,/COL7*%
X121920000Y-112100000D03*
%TD*%
D10*
%TO.P,SW4,1,1*%
%TO.N,/VHF__FM_ENC_4_A*%
X122540000Y-59490000D03*
D11*
%TO.P,SW4,2,2*%
%TO.N,GND*%
X120000000Y-59490000D03*
%TO.P,SW4,3,3*%
%TO.N,/VHF__FM_ENC_4_B*%
X117460000Y-59490000D03*
%TD*%
D10*
%TO.P,SW6,1,1*%
%TO.N,Net-(D3-K)*%
X111490000Y-104750000D03*
D11*
%TO.P,SW6,2,2*%
%TO.N,/ROW3*%
X108950000Y-104750000D03*
%TD*%
D15*
%TO.N,/VHF__FM_ENC_3_B*%
X132734700Y-63934700D02*
X132734700Y-71010000D01*
X129485300Y-60685300D02*
X132734700Y-63934700D01*
X129485300Y-59490000D02*
X129485300Y-60685300D01*
X133930000Y-71010000D02*
X132734700Y-71010000D01*
X128290000Y-59490000D02*
X129485300Y-59490000D01*
%TO.N,/VHF__FM_ENC_3_A*%
X136470000Y-62590000D02*
X136470000Y-71010000D01*
X133370000Y-59490000D02*
X136470000Y-62590000D01*
%TO.N,/VHF__FM_ENC_4_A*%
X124010000Y-60960000D02*
X124010000Y-81470000D01*
X122540000Y-59490000D02*
X124010000Y-60960000D01*
%TO.N,/VHF__FM_ENC_2_B*%
X139010000Y-61020300D02*
X139010000Y-71010000D01*
X139120000Y-60910300D02*
X139010000Y-61020300D01*
X139120000Y-59490000D02*
X139120000Y-60910300D01*
%TO.N,/VHF__FM_ENC_2_A*%
X141550000Y-62140000D02*
X141550000Y-71010000D01*
X144200000Y-59490000D02*
X141550000Y-62140000D01*
%TO.N,/VHF_FM_VOL*%
X151090000Y-85750000D02*
X151090000Y-94820000D01*
%TO.N,/VHF__FM_ENC_1_B*%
X145285300Y-62959400D02*
X145285300Y-71010000D01*
X148754700Y-59490000D02*
X145285300Y-62959400D01*
X144090000Y-71010000D02*
X145285300Y-71010000D01*
X149950000Y-59490000D02*
X148754700Y-59490000D01*
%TO.N,Net-(J2-Pin_2)*%
X108710000Y-57800300D02*
X108710000Y-65030000D01*
X108870000Y-57640300D02*
X108710000Y-57800300D01*
X108870000Y-56220000D02*
X108870000Y-57640300D01*
%TO.N,Net-(J2-Pin_1)*%
X111250000Y-56380000D02*
X111250000Y-65030000D01*
X111410000Y-56220000D02*
X111250000Y-56380000D01*
%TO.N,Net-(J1-Pin_3)*%
X121335300Y-48722300D02*
X121335300Y-49320000D01*
X122178800Y-47878800D02*
X121335300Y-48722300D01*
X130171100Y-47878800D02*
X122178800Y-47878800D01*
X131164700Y-48872400D02*
X130171100Y-47878800D01*
X131164700Y-49470000D02*
X131164700Y-48872400D01*
X132360000Y-49470000D02*
X131164700Y-49470000D01*
X120140000Y-49320000D02*
X121335300Y-49320000D01*
%TO.N,Net-(J1-Pin_1)*%
X126817500Y-50917500D02*
X125220000Y-49320000D01*
X135992500Y-50917500D02*
X126817500Y-50917500D01*
X137440000Y-49470000D02*
X135992500Y-50917500D01*
%TO.N,GND*%
X119870000Y-79870000D02*
X121470000Y-81470000D01*
X119870000Y-71010000D02*
X119870000Y-79870000D01*
X151294700Y-68885300D02*
X149170000Y-71010000D01*
X151294700Y-59490000D02*
X151294700Y-68885300D01*
X152490000Y-59490000D02*
X151294700Y-59490000D01*
%TO.N,/ANALOG_GND*%
X148550000Y-85750000D02*
X148550000Y-94820000D01*
%TO.N,/ANALOG_5V*%
X153630000Y-85750000D02*
X153630000Y-94820000D01*
%TO.N,/COL7*%
X125030000Y-91170000D02*
X123834700Y-91170000D01*
X121920000Y-112100000D02*
X121920000Y-110874700D01*
X133340000Y-112100000D02*
X132114700Y-112100000D01*
X129197000Y-109182300D02*
X132114700Y-112100000D01*
X123612400Y-109182300D02*
X129197000Y-109182300D01*
X123612400Y-92587600D02*
X123612400Y-109182300D01*
X123834700Y-92365300D02*
X123612400Y-92587600D01*
X123834700Y-91170000D02*
X123834700Y-92365300D01*
X123612400Y-109182300D02*
X121920000Y-110874700D01*
%TO.N,Net-(D4-K)*%
X147810000Y-59714400D02*
X147810000Y-49600000D01*
X142820000Y-64704400D02*
X147810000Y-59714400D01*
X142820000Y-74770900D02*
X142820000Y-64704400D01*
X128348400Y-89242500D02*
X142820000Y-74770900D01*
X127181000Y-89242500D02*
X128348400Y-89242500D01*
X126370500Y-90053000D02*
X127181000Y-89242500D01*
X126370500Y-92363000D02*
X126370500Y-90053000D01*
X128640000Y-94632500D02*
X126370500Y-92363000D01*
X128640000Y-105084700D02*
X128640000Y-94632500D01*
X129610000Y-106054700D02*
X128640000Y-105084700D01*
X129610000Y-107280000D02*
X129610000Y-106054700D01*
%TO.N,/COL6*%
X131180000Y-103974700D02*
X133260000Y-106054700D01*
X131180000Y-94780000D02*
X131180000Y-103974700D01*
X127570000Y-91170000D02*
X131180000Y-94780000D01*
X133260000Y-107280000D02*
X133260000Y-106054700D01*
%TO.N,Net-(D1-K)*%
X137530000Y-102704700D02*
X137530000Y-101610000D01*
X140880000Y-106054700D02*
X137530000Y-102704700D01*
X140880000Y-107280000D02*
X140880000Y-106054700D01*
%TD*%
M02*
