  0
SECTION
  2
HEADER
  9
$ANGBASE
  50
0.0
  9
$ANGDIR
  70
1
  9
$MEASUREMENT
  70
1
  0
ENDSEC
  0
SECTION
  2
TABLES
  0
TABLE
  2
LTYPE
  70
4
  0
LTYPE
  5
40F
  2
CONTINUOUS
  70
0
  3
Solid line
  72
65
  73
0
  40
0.0
  0
LTYPE
  5
410
  2
DASHDOT
 70
0
  3
Dash Dot ____ _ ____ _
 72
65
 73
4
 40
2.0
 49
1.25
 49
-0.25
 49
0.25
 49
-0.25
  0
LTYPE
  5
411
  2
DASHED
 70
0
  3
Dashed __ __ __ __ __
 72
65
 73
2
 40
0.75
 49
0.5
 49
-0.25
  0
LTYPE
  5
43B
  2
DOTTED
 70
0
  3
Dotted .  .  .  .
 72
65
 73
2
 40
0.2
 49
0.0
 49
-0.2
  0
ENDTAB
  0
TABLE
  2
STYLE
  70
4
  0
STYLE
  2
KICAD
  70
0
  40
0
  41
1
  42
1
  50
0
  71
0
  3
isocp.shx
  0
STYLE
  2
KICADB
  70
0
  40
0
  41
1
  42
1
  50
0
  71
0
  3
isocp.shx
  0
STYLE
  2
KICADI
  70
0
  40
0
  41
1
  42
1
  50
15
  71
0
  3
isocp.shx
  0
STYLE
  2
KICADBI
  70
0
  40
0
  41
1
  42
1
  50
15
  71
0
  3
isocp.shx
  0
ENDTAB
  0
TABLE
  2
LAYER
  70
1
  0
LAYER
  2
BLACK
  70
0
  62
7
  6
CONTINUOUS
  0
ENDTAB
  0
ENDSEC
  0
SECTION
  2
ENTITIES
0
LINE
8
BLACK
6
CONTINUOUS
10
43.9624999999999986
20
-57.2749999999999986
11
140.5
21
-57.25
0
CIRCLE
8
BLACK
10
93.375
20
-62.0999999999999943
40
3.0766259999999996
0
CIRCLE
8
BLACK
10
64.0999999999999943
20
-62.125
40
3.0479499999999997
0
CIRCLE
8
BLACK
10
120.1749999999999972
20
-62.0499999999999972
40
3.0721529999999997
0
LINE
8
BLACK
6
CONTINUOUS
10
140.5
20
-57.25
11
140.5
21
-67.5999999999999943
0
LINE
8
BLACK
6
CONTINUOUS
10
43.9499999999999957
20
-67.5750000000000028
11
43.9624999999999986
21
-57.2749999999999986
0
LINE
8
BLACK
6
CONTINUOUS
10
140.5
20
-67.5999999999999943
11
43.9499999999999957
21
-67.5750000000000028
0
LINE
8
BLACK
6
CONTINUOUS
10
68.3599999999999994
20
-62.2749999999999986
11
69.0600000000000023
21
-62.9749999999999943
0
LINE
8
BLACK
6
CONTINUOUS
10
69.0600000000000023
20
-62.2749999999999986
11
68.3599999999999994
21
-62.9749999999999943
0
LINE
8
BLACK
6
CONTINUOUS
10
73.4399999999999977
20
-62.2749999999999986
11
74.1400000000000006
21
-62.9749999999999943
0
LINE
8
BLACK
6
CONTINUOUS
10
74.1400000000000006
20
-62.2749999999999986
11
73.4399999999999977
21
-62.9749999999999943
0
LINE
8
BLACK
6
CONTINUOUS
10
127.0499999999999972
20
-61.7249999999999943
11
127.75
21
-62.4249999999999972
0
LINE
8
BLACK
6
CONTINUOUS
10
127.75
20
-61.7249999999999943
11
127.0499999999999972
21
-62.4249999999999972
0
LINE
8
BLACK
6
CONTINUOUS
10
132.1299999999999955
20
-61.7249999999999943
11
132.8299999999999841
21
-62.4249999999999972
0
LINE
8
BLACK
6
CONTINUOUS
10
132.8299999999999841
20
-61.7249999999999943
11
132.1299999999999955
21
-62.4249999999999972
0
CIRCLE
8
BLACK
10
46.2250000000000014
20
-62.6749999999999972
40
0.45
0
CIRCLE
8
BLACK
10
48.7650000000000006
20
-62.6749999999999972
40
0.45
0
CIRCLE
8
BLACK
10
76.2749999999999915
20
-62.6999999999999957
40
0.45
0
CIRCLE
8
BLACK
10
78.8149999999999977
20
-62.6999999999999957
40
0.45
0
CIRCLE
8
BLACK
10
106.1499999999999915
20
-62.6749999999999972
40
0.45
0
CIRCLE
8
BLACK
10
108.6899999999999977
20
-62.6749999999999972
40
0.45
0
CIRCLE
8
BLACK
10
136.1749999999999829
20
-62.6999999999999957
40
0.45
0
CIRCLE
8
BLACK
10
138.7150000000000034
20
-62.6999999999999957
40
0.45
0
LINE
8
BLACK
6
CONTINUOUS
10
54.9499999999999957
20
-61.1999999999999957
11
54.9499999999999957
21
-62.1999999999999957
0
LINE
8
BLACK
6
CONTINUOUS
10
54.4499999999999957
20
-61.6999999999999957
11
55.4499999999999957
21
-61.6999999999999957
0
LINE
8
BLACK
6
CONTINUOUS
10
57.4499999999999957
20
-61.1999999999999957
11
57.4499999999999957
21
-62.1999999999999957
0
LINE
8
BLACK
6
CONTINUOUS
10
56.9499999999999957
20
-61.6999999999999957
11
57.9499999999999957
21
-61.6999999999999957
0
LINE
8
BLACK
6
CONTINUOUS
10
46.5077679999999987
20
-70.7648379999999975
11
46.5077679999999987
21
-68.7648379999999975
0
LINE
8
BLACK
6
CONTINUOUS
10
46.5077679999999987
20
-68.7648379999999975
11
46.9839580000000012
21
-68.7648379999999975
0
LINE
8
BLACK
6
CONTINUOUS
10
46.9839580000000012
20
-68.7648379999999975
11
47.2696729999999974
21
-68.8600759999999923
0
LINE
8
BLACK
6
CONTINUOUS
10
47.2696729999999974
20
-68.8600759999999923
11
47.4601490000000013
21
-69.0505519999999962
0
LINE
8
BLACK
6
CONTINUOUS
10
47.4601490000000013
20
-69.0505519999999962
11
47.5553869999999961
21
-69.241028
0
LINE
8
BLACK
6
CONTINUOUS
10
47.5553869999999961
20
-69.241028
11
47.650624999999998
21
-69.6219799999999935
0
LINE
8
BLACK
6
CONTINUOUS
10
47.650624999999998
20
-69.6219799999999935
11
47.650624999999998
21
-69.9076950000000039
0
LINE
8
BLACK
6
CONTINUOUS
10
47.650624999999998
20
-69.9076950000000039
11
47.5553869999999961
21
-70.2886469999999974
0
LINE
8
BLACK
6
CONTINUOUS
10
47.5553869999999961
20
-70.2886469999999974
11
47.4601490000000013
21
-70.4791230000000013
0
LINE
8
BLACK
6
CONTINUOUS
10
47.4601490000000013
20
-70.4791230000000013
11
47.2696729999999974
21
-70.6696000000000026
0
LINE
8
BLACK
6
CONTINUOUS
10
47.2696729999999974
20
-70.6696000000000026
11
46.9839580000000012
21
-70.7648379999999975
0
LINE
8
BLACK
6
CONTINUOUS
10
46.9839580000000012
20
-70.7648379999999975
11
46.5077679999999987
21
-70.7648379999999975
0
LINE
8
BLACK
6
CONTINUOUS
10
48.5077679999999987
20
-70.7648379999999975
11
48.5077679999999987
21
-69.4315040000000039
0
LINE
8
BLACK
6
CONTINUOUS
10
48.5077679999999987
20
-69.8124569999999949
11
48.6030060000000006
21
-69.6219799999999935
0
LINE
8
BLACK
6
CONTINUOUS
10
48.6030060000000006
20
-69.6219799999999935
11
48.6982439999999954
21
-69.5267419999999987
0
LINE
8
BLACK
6
CONTINUOUS
10
48.6982439999999954
20
-69.5267419999999987
11
48.8887199999999993
21
-69.4315040000000039
0
LINE
8
BLACK
6
CONTINUOUS
10
48.8887199999999993
20
-69.4315040000000039
11
49.0791970000000006
21
-69.4315040000000039
0
LINE
8
BLACK
6
CONTINUOUS
10
49.7458629999999999
20
-70.7648379999999975
11
49.7458629999999999
21
-69.4315040000000039
0
LINE
8
BLACK
6
CONTINUOUS
10
49.7458629999999999
20
-68.7648379999999975
11
49.650624999999998
21
-68.8600759999999923
0
LINE
8
BLACK
6
CONTINUOUS
10
49.650624999999998
20
-68.8600759999999923
11
49.7458629999999999
21
-68.9553140000000013
0
LINE
8
BLACK
6
CONTINUOUS
10
49.7458629999999999
20
-68.9553140000000013
11
49.8411009999999948
21
-68.8600759999999923
0
LINE
8
BLACK
6
CONTINUOUS
10
49.8411009999999948
20
-68.8600759999999923
11
49.7458629999999999
21
-68.7648379999999975
0
LINE
8
BLACK
6
CONTINUOUS
10
49.7458629999999999
20
-68.7648379999999975
11
49.7458629999999999
21
-68.9553140000000013
0
LINE
8
BLACK
6
CONTINUOUS
10
50.9839580000000012
20
-70.7648379999999975
11
50.7934819999999974
21
-70.6696000000000026
0
LINE
8
BLACK
6
CONTINUOUS
10
50.7934819999999974
20
-70.6696000000000026
11
50.6982439999999954
21
-70.4791230000000013
0
LINE
8
BLACK
6
CONTINUOUS
10
50.6982439999999954
20
-70.4791230000000013
11
50.6982439999999954
21
-68.7648379999999975
0
LINE
8
BLACK
6
CONTINUOUS
10
52.0315769999999986
20
-70.7648379999999975
11
51.8411009999999948
21
-70.6696000000000026
0
LINE
8
BLACK
6
CONTINUOUS
10
51.8411009999999948
20
-70.6696000000000026
11
51.7458629999999999
21
-70.4791230000000013
0
LINE
8
BLACK
6
CONTINUOUS
10
51.7458629999999999
20
-70.4791230000000013
11
51.7458629999999999
21
-68.7648379999999975
0
LINE
8
BLACK
6
CONTINUOUS
10
54.3172919999999948
20
-70.7648379999999975
11
54.3172919999999948
21
-68.7648379999999975
0
LINE
8
BLACK
6
CONTINUOUS
10
54.3172919999999948
20
-68.7648379999999975
11
54.9839589999999987
21
-70.1934090000000026
0
LINE
8
BLACK
6
CONTINUOUS
10
54.9839589999999987
20
-70.1934090000000026
11
55.650624999999998
21
-68.7648379999999975
0
LINE
8
BLACK
6
CONTINUOUS
10
55.650624999999998
20
-68.7648379999999975
11
55.650624999999998
21
-70.7648379999999975
0
LINE
8
BLACK
6
CONTINUOUS
10
57.4601489999999941
20
-70.7648379999999975
11
57.4601489999999941
21
-69.7172190000000001
0
LINE
8
BLACK
6
CONTINUOUS
10
57.4601489999999941
20
-69.7172190000000001
11
57.3649109999999993
21
-69.5267419999999987
0
LINE
8
BLACK
6
CONTINUOUS
10
57.3649109999999993
20
-69.5267419999999987
11
57.1744349999999955
21
-69.4315040000000039
0
LINE
8
BLACK
6
CONTINUOUS
10
57.1744349999999955
20
-69.4315040000000039
11
56.7934819999999974
21
-69.4315040000000039
0
LINE
8
BLACK
6
CONTINUOUS
10
56.7934819999999974
20
-69.4315040000000039
11
56.6030060000000006
21
-69.5267419999999987
0
LINE
8
BLACK
6
CONTINUOUS
10
57.4601489999999941
20
-70.6696000000000026
11
57.2696729999999974
21
-70.7648379999999975
0
LINE
8
BLACK
6
CONTINUOUS
10
57.2696729999999974
20
-70.7648379999999975
11
56.7934819999999974
21
-70.7648379999999975
0
LINE
8
BLACK
6
CONTINUOUS
10
56.7934819999999974
20
-70.7648379999999975
11
56.6030060000000006
21
-70.6696000000000026
0
LINE
8
BLACK
6
CONTINUOUS
10
56.6030060000000006
20
-70.6696000000000026
11
56.5077679999999987
21
-70.4791230000000013
0
LINE
8
BLACK
6
CONTINUOUS
10
56.5077679999999987
20
-70.4791230000000013
11
56.5077679999999987
21
-70.2886469999999974
0
LINE
8
BLACK
6
CONTINUOUS
10
56.5077679999999987
20
-70.2886469999999974
11
56.6030060000000006
21
-70.0981709999999936
0
LINE
8
BLACK
6
CONTINUOUS
10
56.6030060000000006
20
-70.0981709999999936
11
56.7934819999999974
21
-70.0029329999999987
0
LINE
8
BLACK
6
CONTINUOUS
10
56.7934819999999974
20
-70.0029329999999987
11
57.2696729999999974
21
-70.0029329999999987
0
LINE
8
BLACK
6
CONTINUOUS
10
57.2696729999999974
20
-70.0029329999999987
11
57.4601489999999941
21
-69.9076950000000039
0
LINE
8
BLACK
6
CONTINUOUS
10
58.4125299999999967
20
-69.4315040000000039
11
58.4125299999999967
21
-71.4315039999999897
0
LINE
8
BLACK
6
CONTINUOUS
10
58.4125299999999967
20
-69.5267419999999987
11
58.6030060000000006
21
-69.4315040000000039
0
LINE
8
BLACK
6
CONTINUOUS
10
58.6030060000000006
20
-69.4315040000000039
11
58.9839589999999987
21
-69.4315040000000039
0
LINE
8
BLACK
6
CONTINUOUS
10
58.9839589999999987
20
-69.4315040000000039
11
59.1744349999999955
21
-69.5267419999999987
0
LINE
8
BLACK
6
CONTINUOUS
10
59.1744349999999955
20
-69.5267419999999987
11
59.2696729999999974
21
-69.6219799999999935
0
LINE
8
BLACK
6
CONTINUOUS
10
59.2696729999999974
20
-69.6219799999999935
11
59.3649109999999993
21
-69.8124569999999949
0
LINE
8
BLACK
6
CONTINUOUS
10
59.3649109999999993
20
-69.8124569999999949
11
59.3649109999999993
21
-70.3838849999999923
0
LINE
8
BLACK
6
CONTINUOUS
10
59.3649109999999993
20
-70.3838849999999923
11
59.2696729999999974
21
-70.5743609999999961
0
LINE
8
BLACK
6
CONTINUOUS
10
59.2696729999999974
20
-70.5743609999999961
11
59.1744349999999955
21
-70.6696000000000026
0
LINE
8
BLACK
6
CONTINUOUS
10
59.1744349999999955
20
-70.6696000000000026
11
58.9839589999999987
21
-70.7648379999999975
0
LINE
8
BLACK
6
CONTINUOUS
10
58.9839589999999987
20
-70.7648379999999975
11
58.6030060000000006
21
-70.7648379999999975
0
LINE
8
BLACK
6
CONTINUOUS
10
58.6030060000000006
20
-70.7648379999999975
11
58.4125299999999967
21
-70.6696000000000026
0
LINE
8
BLACK
6
CONTINUOUS
10
60.222054
20
-70.5743609999999961
11
60.3172919999999948
21
-70.6696000000000026
0
LINE
8
BLACK
6
CONTINUOUS
10
60.3172919999999948
20
-70.6696000000000026
11
60.222054
21
-70.7648379999999975
0
LINE
8
BLACK
6
CONTINUOUS
10
60.222054
20
-70.7648379999999975
11
60.126815999999998
21
-70.6696000000000026
0
LINE
8
BLACK
6
CONTINUOUS
10
60.126815999999998
20
-70.6696000000000026
11
60.222054
21
-70.5743609999999961
0
LINE
8
BLACK
6
CONTINUOUS
10
60.222054
20
-70.5743609999999961
11
60.222054
21
-70.7648379999999975
0
LINE
8
BLACK
6
CONTINUOUS
10
60.222054
20
-69.5267419999999987
11
60.3172919999999948
21
-69.6219799999999935
0
LINE
8
BLACK
6
CONTINUOUS
10
60.3172919999999948
20
-69.6219799999999935
11
60.222054
21
-69.7172190000000001
0
LINE
8
BLACK
6
CONTINUOUS
10
60.222054
20
-69.7172190000000001
11
60.126815999999998
21
-69.6219799999999935
0
LINE
8
BLACK
6
CONTINUOUS
10
60.126815999999998
20
-69.6219799999999935
11
60.222054
21
-69.5267419999999987
0
LINE
8
BLACK
6
CONTINUOUS
10
60.222054
20
-69.5267419999999987
11
60.222054
21
-69.7172190000000001
0
LINE
8
BLACK
6
CONTINUOUS
10
43.1999999999999957
20
-73.7000000000000028
11
43.8999999999999986
21
-74.3999999999999915
0
LINE
8
BLACK
6
CONTINUOUS
10
43.8999999999999986
20
-73.7000000000000028
11
43.1999999999999957
21
-74.3999999999999915
0
LINE
8
BLACK
6
CONTINUOUS
10
46.8887199999999993
20
-72.9648380000000003
11
47.0791970000000006
21
-72.9648380000000003
0
LINE
8
BLACK
6
CONTINUOUS
10
47.0791970000000006
20
-72.9648380000000003
11
47.2696729999999974
21
-73.0600759999999951
0
LINE
8
BLACK
6
CONTINUOUS
10
47.2696729999999974
20
-73.0600759999999951
11
47.3649109999999993
21
-73.15531399999999
0
LINE
8
BLACK
6
CONTINUOUS
10
47.3649109999999993
20
-73.15531399999999
11
47.4601490000000013
21
-73.3457899999999938
0
LINE
8
BLACK
6
CONTINUOUS
10
47.4601490000000013
20
-73.3457899999999938
11
47.5553869999999961
21
-73.7267420000000016
0
LINE
8
BLACK
6
CONTINUOUS
10
47.5553869999999961
20
-73.7267420000000016
11
47.5553869999999961
21
-74.2029330000000016
0
LINE
8
BLACK
6
CONTINUOUS
10
47.5553869999999961
20
-74.2029330000000016
11
47.4601490000000013
21
-74.5838849999999951
0
LINE
8
BLACK
6
CONTINUOUS
10
47.4601490000000013
20
-74.5838849999999951
11
47.3649109999999993
21
-74.774360999999999
0
LINE
8
BLACK
6
CONTINUOUS
10
47.3649109999999993
20
-74.774360999999999
11
47.2696729999999974
21
-74.8695999999999913
0
LINE
8
BLACK
6
CONTINUOUS
10
47.2696729999999974
20
-74.8695999999999913
11
47.0791970000000006
21
-74.9648380000000003
0
LINE
8
BLACK
6
CONTINUOUS
10
47.0791970000000006
20
-74.9648380000000003
11
46.8887199999999993
21
-74.9648380000000003
0
LINE
8
BLACK
6
CONTINUOUS
10
46.8887199999999993
20
-74.9648380000000003
11
46.6982439999999954
21
-74.8695999999999913
0
LINE
8
BLACK
6
CONTINUOUS
10
46.6982439999999954
20
-74.8695999999999913
11
46.6030060000000006
21
-74.774360999999999
0
LINE
8
BLACK
6
CONTINUOUS
10
46.6030060000000006
20
-74.774360999999999
11
46.5077679999999987
21
-74.5838849999999951
0
LINE
8
BLACK
6
CONTINUOUS
10
46.5077679999999987
20
-74.5838849999999951
11
46.4125299999999967
21
-74.2029330000000016
0
LINE
8
BLACK
6
CONTINUOUS
10
46.4125299999999967
20
-74.2029330000000016
11
46.4125299999999967
21
-73.7267420000000016
0
LINE
8
BLACK
6
CONTINUOUS
10
46.4125299999999967
20
-73.7267420000000016
11
46.5077679999999987
21
-73.3457899999999938
0
LINE
8
BLACK
6
CONTINUOUS
10
46.5077679999999987
20
-73.3457899999999938
11
46.6030060000000006
21
-73.15531399999999
0
LINE
8
BLACK
6
CONTINUOUS
10
46.6030060000000006
20
-73.15531399999999
11
46.6982439999999954
21
-73.0600759999999951
0
LINE
8
BLACK
6
CONTINUOUS
10
46.6982439999999954
20
-73.0600759999999951
11
46.8887199999999993
21
-72.9648380000000003
0
LINE
8
BLACK
6
CONTINUOUS
10
48.4125299999999967
20
-74.774360999999999
11
48.5077679999999987
21
-74.8695999999999913
0
LINE
8
BLACK
6
CONTINUOUS
10
48.5077679999999987
20
-74.8695999999999913
11
48.4125299999999967
21
-74.9648380000000003
0
LINE
8
BLACK
6
CONTINUOUS
10
48.4125299999999967
20
-74.9648380000000003
11
48.3172919999999948
21
-74.8695999999999913
0
LINE
8
BLACK
6
CONTINUOUS
10
48.3172919999999948
20
-74.8695999999999913
11
48.4125299999999967
21
-74.774360999999999
0
LINE
8
BLACK
6
CONTINUOUS
10
48.4125299999999967
20
-74.774360999999999
11
48.4125299999999967
21
-74.9648380000000003
0
LINE
8
BLACK
6
CONTINUOUS
10
49.1744349999999955
20
-72.9648380000000003
11
50.5077679999999987
21
-72.9648380000000003
0
LINE
8
BLACK
6
CONTINUOUS
10
50.5077679999999987
20
-72.9648380000000003
11
49.650624999999998
21
-74.9648380000000003
0
LINE
8
BLACK
6
CONTINUOUS
10
51.650624999999998
20
-72.9648380000000003
11
51.8411019999999994
21
-72.9648380000000003
0
LINE
8
BLACK
6
CONTINUOUS
10
51.8411019999999994
20
-72.9648380000000003
11
52.0315779999999961
21
-73.0600759999999951
0
LINE
8
BLACK
6
CONTINUOUS
10
52.0315779999999961
20
-73.0600759999999951
11
52.126815999999998
21
-73.15531399999999
0
LINE
8
BLACK
6
CONTINUOUS
10
52.126815999999998
20
-73.15531399999999
11
52.222054
21
-73.3457899999999938
0
LINE
8
BLACK
6
CONTINUOUS
10
52.222054
20
-73.3457899999999938
11
52.3172919999999948
21
-73.7267420000000016
0
LINE
8
BLACK
6
CONTINUOUS
10
52.3172919999999948
20
-73.7267420000000016
11
52.3172919999999948
21
-74.2029330000000016
0
LINE
8
BLACK
6
CONTINUOUS
10
52.3172919999999948
20
-74.2029330000000016
11
52.222054
21
-74.5838849999999951
0
LINE
8
BLACK
6
CONTINUOUS
10
52.222054
20
-74.5838849999999951
11
52.126815999999998
21
-74.774360999999999
0
LINE
8
BLACK
6
CONTINUOUS
10
52.126815999999998
20
-74.774360999999999
11
52.0315779999999961
21
-74.8695999999999913
0
LINE
8
BLACK
6
CONTINUOUS
10
52.0315779999999961
20
-74.8695999999999913
11
51.8411019999999994
21
-74.9648380000000003
0
LINE
8
BLACK
6
CONTINUOUS
10
51.8411019999999994
20
-74.9648380000000003
11
51.650624999999998
21
-74.9648380000000003
0
LINE
8
BLACK
6
CONTINUOUS
10
51.650624999999998
20
-74.9648380000000003
11
51.4601489999999941
21
-74.8695999999999913
0
LINE
8
BLACK
6
CONTINUOUS
10
51.4601489999999941
20
-74.8695999999999913
11
51.3649109999999993
21
-74.774360999999999
0
LINE
8
BLACK
6
CONTINUOUS
10
51.3649109999999993
20
-74.774360999999999
11
51.2696729999999974
21
-74.5838849999999951
0
LINE
8
BLACK
6
CONTINUOUS
10
51.2696729999999974
20
-74.5838849999999951
11
51.1744349999999955
21
-74.2029330000000016
0
LINE
8
BLACK
6
CONTINUOUS
10
51.1744349999999955
20
-74.2029330000000016
11
51.1744349999999955
21
-73.7267420000000016
0
LINE
8
BLACK
6
CONTINUOUS
10
51.1744349999999955
20
-73.7267420000000016
11
51.2696729999999974
21
-73.3457899999999938
0
LINE
8
BLACK
6
CONTINUOUS
10
51.2696729999999974
20
-73.3457899999999938
11
51.3649109999999993
21
-73.15531399999999
0
LINE
8
BLACK
6
CONTINUOUS
10
51.3649109999999993
20
-73.15531399999999
11
51.4601489999999941
21
-73.0600759999999951
0
LINE
8
BLACK
6
CONTINUOUS
10
51.4601489999999941
20
-73.0600759999999951
11
51.650624999999998
21
-72.9648380000000003
0
LINE
8
BLACK
6
CONTINUOUS
10
53.5553869999999961
20
-72.9648380000000003
11
53.7458639999999974
21
-72.9648380000000003
0
LINE
8
BLACK
6
CONTINUOUS
10
53.7458639999999974
20
-72.9648380000000003
11
53.9363399999999942
21
-73.0600759999999951
0
LINE
8
BLACK
6
CONTINUOUS
10
53.9363399999999942
20
-73.0600759999999951
11
54.0315779999999961
21
-73.15531399999999
0
LINE
8
BLACK
6
CONTINUOUS
10
54.0315779999999961
20
-73.15531399999999
11
54.126815999999998
21
-73.3457899999999938
0
LINE
8
BLACK
6
CONTINUOUS
10
54.126815999999998
20
-73.3457899999999938
11
54.222054
21
-73.7267420000000016
0
LINE
8
BLACK
6
CONTINUOUS
10
54.222054
20
-73.7267420000000016
11
54.222054
21
-74.2029330000000016
0
LINE
8
BLACK
6
CONTINUOUS
10
54.222054
20
-74.2029330000000016
11
54.126815999999998
21
-74.5838849999999951
0
LINE
8
BLACK
6
CONTINUOUS
10
54.126815999999998
20
-74.5838849999999951
11
54.0315779999999961
21
-74.774360999999999
0
LINE
8
BLACK
6
CONTINUOUS
10
54.0315779999999961
20
-74.774360999999999
11
53.9363399999999942
21
-74.8695999999999913
0
LINE
8
BLACK
6
CONTINUOUS
10
53.9363399999999942
20
-74.8695999999999913
11
53.7458639999999974
21
-74.9648380000000003
0
LINE
8
BLACK
6
CONTINUOUS
10
53.7458639999999974
20
-74.9648380000000003
11
53.5553869999999961
21
-74.9648380000000003
0
LINE
8
BLACK
6
CONTINUOUS
10
53.5553869999999961
20
-74.9648380000000003
11
53.3649109999999993
21
-74.8695999999999913
0
LINE
8
BLACK
6
CONTINUOUS
10
53.3649109999999993
20
-74.8695999999999913
11
53.2696729999999974
21
-74.774360999999999
0
LINE
8
BLACK
6
CONTINUOUS
10
53.2696729999999974
20
-74.774360999999999
11
53.1744349999999955
21
-74.5838849999999951
0
LINE
8
BLACK
6
CONTINUOUS
10
53.1744349999999955
20
-74.5838849999999951
11
53.0791970000000006
21
-74.2029330000000016
0
LINE
8
BLACK
6
CONTINUOUS
10
53.0791970000000006
20
-74.2029330000000016
11
53.0791970000000006
21
-73.7267420000000016
0
LINE
8
BLACK
6
CONTINUOUS
10
53.0791970000000006
20
-73.7267420000000016
11
53.1744349999999955
21
-73.3457899999999938
0
LINE
8
BLACK
6
CONTINUOUS
10
53.1744349999999955
20
-73.3457899999999938
11
53.2696729999999974
21
-73.15531399999999
0
LINE
8
BLACK
6
CONTINUOUS
10
53.2696729999999974
20
-73.15531399999999
11
53.3649109999999993
21
-73.0600759999999951
0
LINE
8
BLACK
6
CONTINUOUS
10
53.3649109999999993
20
-73.0600759999999951
11
53.5553869999999961
21
-72.9648380000000003
0
LINE
8
BLACK
6
CONTINUOUS
10
55.0791970000000006
20
-74.9648380000000003
11
55.0791970000000006
21
-73.6315039999999925
0
LINE
8
BLACK
6
CONTINUOUS
10
55.0791970000000006
20
-73.8219799999999964
11
55.1744349999999955
21
-73.7267420000000016
0
LINE
8
BLACK
6
CONTINUOUS
10
55.1744349999999955
20
-73.7267420000000016
11
55.3649109999999993
21
-73.6315039999999925
0
LINE
8
BLACK
6
CONTINUOUS
10
55.3649109999999993
20
-73.6315039999999925
11
55.6506259999999955
21
-73.6315039999999925
0
LINE
8
BLACK
6
CONTINUOUS
10
55.6506259999999955
20
-73.6315039999999925
11
55.8411019999999994
21
-73.7267420000000016
0
LINE
8
BLACK
6
CONTINUOUS
10
55.8411019999999994
20
-73.7267420000000016
11
55.9363399999999942
21
-73.9172190000000029
0
LINE
8
BLACK
6
CONTINUOUS
10
55.9363399999999942
20
-73.9172190000000029
11
55.9363399999999942
21
-74.9648380000000003
0
LINE
8
BLACK
6
CONTINUOUS
10
55.9363399999999942
20
-73.9172190000000029
11
56.0315779999999961
21
-73.7267420000000016
0
LINE
8
BLACK
6
CONTINUOUS
10
56.0315779999999961
20
-73.7267420000000016
11
56.222054
21
-73.6315039999999925
0
LINE
8
BLACK
6
CONTINUOUS
10
56.222054
20
-73.6315039999999925
11
56.5077679999999987
21
-73.6315039999999925
0
LINE
8
BLACK
6
CONTINUOUS
10
56.5077679999999987
20
-73.6315039999999925
11
56.698245
21
-73.7267420000000016
0
LINE
8
BLACK
6
CONTINUOUS
10
56.698245
20
-73.7267420000000016
11
56.7934829999999948
21
-73.9172190000000029
0
LINE
8
BLACK
6
CONTINUOUS
10
56.7934829999999948
20
-73.9172190000000029
11
56.7934829999999948
21
-74.9648380000000003
0
LINE
8
BLACK
6
CONTINUOUS
10
57.7458639999999974
20
-74.9648380000000003
11
57.7458639999999974
21
-73.6315039999999925
0
LINE
8
BLACK
6
CONTINUOUS
10
57.7458639999999974
20
-73.8219799999999964
11
57.8411019999999994
21
-73.7267420000000016
0
LINE
8
BLACK
6
CONTINUOUS
10
57.8411019999999994
20
-73.7267420000000016
11
58.0315779999999961
21
-73.6315039999999925
0
LINE
8
BLACK
6
CONTINUOUS
10
58.0315779999999961
20
-73.6315039999999925
11
58.3172929999999994
21
-73.6315039999999925
0
LINE
8
BLACK
6
CONTINUOUS
10
58.3172929999999994
20
-73.6315039999999925
11
58.5077689999999961
21
-73.7267420000000016
0
LINE
8
BLACK
6
CONTINUOUS
10
58.5077689999999961
20
-73.7267420000000016
11
58.6030069999999981
21
-73.9172190000000029
0
LINE
8
BLACK
6
CONTINUOUS
10
58.6030069999999981
20
-73.9172190000000029
11
58.6030069999999981
21
-74.9648380000000003
0
LINE
8
BLACK
6
CONTINUOUS
10
58.6030069999999981
20
-73.9172190000000029
11
58.698245
21
-73.7267420000000016
0
LINE
8
BLACK
6
CONTINUOUS
10
58.698245
20
-73.7267420000000016
11
58.8887209999999968
21
-73.6315039999999925
0
LINE
8
BLACK
6
CONTINUOUS
10
58.8887209999999968
20
-73.6315039999999925
11
59.1744349999999955
21
-73.6315039999999925
0
LINE
8
BLACK
6
CONTINUOUS
10
59.1744349999999955
20
-73.6315039999999925
11
59.3649119999999968
21
-73.7267420000000016
0
LINE
8
BLACK
6
CONTINUOUS
10
59.3649119999999968
20
-73.7267420000000016
11
59.4601499999999987
21
-73.9172190000000029
0
LINE
8
BLACK
6
CONTINUOUS
10
59.4601499999999987
20
-73.9172190000000029
11
59.4601499999999987
21
-74.9648380000000003
0
LINE
8
BLACK
6
CONTINUOUS
10
63.3649119999999968
20
-72.8695999999999913
11
61.6506270000000001
21
-75.4410280000000029
0
LINE
8
BLACK
6
CONTINUOUS
10
65.9363409999999988
20
-72.9648380000000003
11
66.1268180000000001
21
-72.9648380000000003
0
LINE
8
BLACK
6
CONTINUOUS
10
66.1268180000000001
20
-72.9648380000000003
11
66.317294000000004
21
-73.0600759999999951
0
LINE
8
BLACK
6
CONTINUOUS
10
66.317294000000004
20
-73.0600759999999951
11
66.4125319999999988
21
-73.15531399999999
0
LINE
8
BLACK
6
CONTINUOUS
10
66.4125319999999988
20
-73.15531399999999
11
66.5077699999999936
21
-73.3457899999999938
0
LINE
8
BLACK
6
CONTINUOUS
10
66.5077699999999936
20
-73.3457899999999938
11
66.6030080000000027
21
-73.7267420000000016
0
LINE
8
BLACK
6
CONTINUOUS
10
66.6030080000000027
20
-73.7267420000000016
11
66.6030080000000027
21
-74.2029330000000016
0
LINE
8
BLACK
6
CONTINUOUS
10
66.6030080000000027
20
-74.2029330000000016
11
66.5077699999999936
21
-74.5838849999999951
0
LINE
8
BLACK
6
CONTINUOUS
10
66.5077699999999936
20
-74.5838849999999951
11
66.4125319999999988
21
-74.774360999999999
0
LINE
8
BLACK
6
CONTINUOUS
10
66.4125319999999988
20
-74.774360999999999
11
66.317294000000004
21
-74.8695999999999913
0
LINE
8
BLACK
6
CONTINUOUS
10
66.317294000000004
20
-74.8695999999999913
11
66.1268180000000001
21
-74.9648380000000003
0
LINE
8
BLACK
6
CONTINUOUS
10
66.1268180000000001
20
-74.9648380000000003
11
65.9363409999999988
21
-74.9648380000000003
0
LINE
8
BLACK
6
CONTINUOUS
10
65.9363409999999988
20
-74.9648380000000003
11
65.7458649999999949
21
-74.8695999999999913
0
LINE
8
BLACK
6
CONTINUOUS
10
65.7458649999999949
20
-74.8695999999999913
11
65.6506270000000001
21
-74.774360999999999
0
LINE
8
BLACK
6
CONTINUOUS
10
65.6506270000000001
20
-74.774360999999999
11
65.555388999999991
21
-74.5838849999999951
0
LINE
8
BLACK
6
CONTINUOUS
10
65.555388999999991
20
-74.5838849999999951
11
65.4601509999999962
21
-74.2029330000000016
0
LINE
8
BLACK
6
CONTINUOUS
10
65.4601509999999962
20
-74.2029330000000016
11
65.4601509999999962
21
-73.7267420000000016
0
LINE
8
BLACK
6
CONTINUOUS
10
65.4601509999999962
20
-73.7267420000000016
11
65.555388999999991
21
-73.3457899999999938
0
LINE
8
BLACK
6
CONTINUOUS
10
65.555388999999991
20
-73.3457899999999938
11
65.6506270000000001
21
-73.15531399999999
0
LINE
8
BLACK
6
CONTINUOUS
10
65.6506270000000001
20
-73.15531399999999
11
65.7458649999999949
21
-73.0600759999999951
0
LINE
8
BLACK
6
CONTINUOUS
10
65.7458649999999949
20
-73.0600759999999951
11
65.9363409999999988
21
-72.9648380000000003
0
LINE
8
BLACK
6
CONTINUOUS
10
67.4601509999999962
20
-74.774360999999999
11
67.555388999999991
21
-74.8695999999999913
0
LINE
8
BLACK
6
CONTINUOUS
10
67.555388999999991
20
-74.8695999999999913
11
67.4601509999999962
21
-74.9648380000000003
0
LINE
8
BLACK
6
CONTINUOUS
10
67.4601509999999962
20
-74.9648380000000003
11
67.3649130000000014
21
-74.8695999999999913
0
LINE
8
BLACK
6
CONTINUOUS
10
67.3649130000000014
20
-74.8695999999999913
11
67.4601509999999962
21
-74.774360999999999
0
LINE
8
BLACK
6
CONTINUOUS
10
67.4601509999999962
20
-74.774360999999999
11
67.4601509999999962
21
-74.9648380000000003
0
LINE
8
BLACK
6
CONTINUOUS
10
68.7934839999999923
20
-72.9648380000000003
11
68.9839609999999936
21
-72.9648380000000003
0
LINE
8
BLACK
6
CONTINUOUS
10
68.9839609999999936
20
-72.9648380000000003
11
69.1744369999999975
21
-73.0600759999999951
0
LINE
8
BLACK
6
CONTINUOUS
10
69.1744369999999975
20
-73.0600759999999951
11
69.2696749999999923
21
-73.15531399999999
0
LINE
8
BLACK
6
CONTINUOUS
10
69.2696749999999923
20
-73.15531399999999
11
69.3649130000000014
21
-73.3457899999999938
0
LINE
8
BLACK
6
CONTINUOUS
10
69.3649130000000014
20
-73.3457899999999938
11
69.4601509999999962
21
-73.7267420000000016
0
LINE
8
BLACK
6
CONTINUOUS
10
69.4601509999999962
20
-73.7267420000000016
11
69.4601509999999962
21
-74.2029330000000016
0
LINE
8
BLACK
6
CONTINUOUS
10
69.4601509999999962
20
-74.2029330000000016
11
69.3649130000000014
21
-74.5838849999999951
0
LINE
8
BLACK
6
CONTINUOUS
10
69.3649130000000014
20
-74.5838849999999951
11
69.2696749999999923
21
-74.774360999999999
0
LINE
8
BLACK
6
CONTINUOUS
10
69.2696749999999923
20
-74.774360999999999
11
69.1744369999999975
21
-74.8695999999999913
0
LINE
8
BLACK
6
CONTINUOUS
10
69.1744369999999975
20
-74.8695999999999913
11
68.9839609999999936
21
-74.9648380000000003
0
LINE
8
BLACK
6
CONTINUOUS
10
68.9839609999999936
20
-74.9648380000000003
11
68.7934839999999923
21
-74.9648380000000003
0
LINE
8
BLACK
6
CONTINUOUS
10
68.7934839999999923
20
-74.9648380000000003
11
68.6030080000000027
21
-74.8695999999999913
0
LINE
8
BLACK
6
CONTINUOUS
10
68.6030080000000027
20
-74.8695999999999913
11
68.5077699999999936
21
-74.774360999999999
0
LINE
8
BLACK
6
CONTINUOUS
10
68.5077699999999936
20
-74.774360999999999
11
68.4125319999999988
21
-74.5838849999999951
0
LINE
8
BLACK
6
CONTINUOUS
10
68.4125319999999988
20
-74.5838849999999951
11
68.317294000000004
21
-74.2029330000000016
0
LINE
8
BLACK
6
CONTINUOUS
10
68.317294000000004
20
-74.2029330000000016
11
68.317294000000004
21
-73.7267420000000016
0
LINE
8
BLACK
6
CONTINUOUS
10
68.317294000000004
20
-73.7267420000000016
11
68.4125319999999988
21
-73.3457899999999938
0
LINE
8
BLACK
6
CONTINUOUS
10
68.4125319999999988
20
-73.3457899999999938
11
68.5077699999999936
21
-73.15531399999999
0
LINE
8
BLACK
6
CONTINUOUS
10
68.5077699999999936
20
-73.15531399999999
11
68.6030080000000027
21
-73.0600759999999951
0
LINE
8
BLACK
6
CONTINUOUS
10
68.6030080000000027
20
-73.0600759999999951
11
68.7934839999999923
21
-72.9648380000000003
0
LINE
8
BLACK
6
CONTINUOUS
10
70.2220559999999949
20
-73.15531399999999
11
70.3172939999999898
21
-73.0600759999999951
0
LINE
8
BLACK
6
CONTINUOUS
10
70.3172939999999898
20
-73.0600759999999951
11
70.5077699999999936
21
-72.9648380000000003
0
LINE
8
BLACK
6
CONTINUOUS
10
70.5077699999999936
20
-72.9648380000000003
11
70.9839609999999936
21
-72.9648380000000003
0
LINE
8
BLACK
6
CONTINUOUS
10
70.9839609999999936
20
-72.9648380000000003
11
71.1744369999999975
21
-73.0600759999999951
0
LINE
8
BLACK
6
CONTINUOUS
10
71.1744369999999975
20
-73.0600759999999951
11
71.2696749999999923
21
-73.15531399999999
0
LINE
8
BLACK
6
CONTINUOUS
10
71.2696749999999923
20
-73.15531399999999
11
71.3649130000000014
21
-73.3457899999999938
0
LINE
8
BLACK
6
CONTINUOUS
10
71.3649130000000014
20
-73.3457899999999938
11
71.3649130000000014
21
-73.5362659999999977
0
LINE
8
BLACK
6
CONTINUOUS
10
71.3649130000000014
20
-73.5362659999999977
11
71.2696749999999923
21
-73.8219799999999964
0
LINE
8
BLACK
6
CONTINUOUS
10
71.2696749999999923
20
-73.8219799999999964
11
70.1268180000000001
21
-74.9648380000000003
0
LINE
8
BLACK
6
CONTINUOUS
10
70.1268180000000001
20
-74.9648380000000003
11
71.3649130000000014
21
-74.9648380000000003
0
LINE
8
BLACK
6
CONTINUOUS
10
72.0315799999999911
20
-72.9648380000000003
11
73.3649130000000014
21
-72.9648380000000003
0
LINE
8
BLACK
6
CONTINUOUS
10
73.3649130000000014
20
-72.9648380000000003
11
72.5077699999999936
21
-74.9648380000000003
0
LINE
8
BLACK
6
CONTINUOUS
10
74.9839609999999936
20
-72.9648380000000003
11
74.6030080000000027
21
-72.9648380000000003
0
LINE
8
BLACK
6
CONTINUOUS
10
74.6030080000000027
20
-72.9648380000000003
11
74.4125319999999988
21
-73.0600759999999951
0
LINE
8
BLACK
6
CONTINUOUS
10
74.4125319999999988
20
-73.0600759999999951
11
74.3172939999999898
21
-73.15531399999999
0
LINE
8
BLACK
6
CONTINUOUS
10
74.3172939999999898
20
-73.15531399999999
11
74.1268180000000001
21
-73.4410280000000029
0
LINE
8
BLACK
6
CONTINUOUS
10
74.1268180000000001
20
-73.4410280000000029
11
74.0315799999999911
21
-73.8219799999999964
0
LINE
8
BLACK
6
CONTINUOUS
10
74.0315799999999911
20
-73.8219799999999964
11
74.0315799999999911
21
-74.5838849999999951
0
LINE
8
BLACK
6
CONTINUOUS
10
74.0315799999999911
20
-74.5838849999999951
11
74.1268180000000001
21
-74.774360999999999
0
LINE
8
BLACK
6
CONTINUOUS
10
74.1268180000000001
20
-74.774360999999999
11
74.2220559999999949
21
-74.8695999999999913
0
LINE
8
BLACK
6
CONTINUOUS
10
74.2220559999999949
20
-74.8695999999999913
11
74.4125319999999988
21
-74.9648380000000003
0
LINE
8
BLACK
6
CONTINUOUS
10
74.4125319999999988
20
-74.9648380000000003
11
74.7934849999999898
21
-74.9648380000000003
0
LINE
8
BLACK
6
CONTINUOUS
10
74.7934849999999898
20
-74.9648380000000003
11
74.9839609999999936
21
-74.8695999999999913
0
LINE
8
BLACK
6
CONTINUOUS
10
74.9839609999999936
20
-74.8695999999999913
11
75.0791990000000027
21
-74.774360999999999
0
LINE
8
BLACK
6
CONTINUOUS
10
75.0791990000000027
20
-74.774360999999999
11
75.1744369999999975
21
-74.5838849999999951
0
LINE
8
BLACK
6
CONTINUOUS
10
75.1744369999999975
20
-74.5838849999999951
11
75.1744369999999975
21
-74.1076949999999925
0
LINE
8
BLACK
6
CONTINUOUS
10
75.1744369999999975
20
-74.1076949999999925
11
75.0791990000000027
21
-73.9172190000000029
0
LINE
8
BLACK
6
CONTINUOUS
10
75.0791990000000027
20
-73.9172190000000029
11
74.9839609999999936
21
-73.8219799999999964
0
LINE
8
BLACK
6
CONTINUOUS
10
74.9839609999999936
20
-73.8219799999999964
11
74.7934849999999898
21
-73.7267420000000016
0
LINE
8
BLACK
6
CONTINUOUS
10
74.7934849999999898
20
-73.7267420000000016
11
74.4125319999999988
21
-73.7267420000000016
0
LINE
8
BLACK
6
CONTINUOUS
10
74.4125319999999988
20
-73.7267420000000016
11
74.2220559999999949
21
-73.8219799999999964
0
LINE
8
BLACK
6
CONTINUOUS
10
74.2220559999999949
20
-73.8219799999999964
11
74.1268180000000001
21
-73.9172190000000029
0
LINE
8
BLACK
6
CONTINUOUS
10
74.1268180000000001
20
-73.9172190000000029
11
74.0315799999999911
21
-74.1076949999999925
0
LINE
8
BLACK
6
CONTINUOUS
10
75.9363419999999962
20
-72.9648380000000003
11
75.9363419999999962
21
-73.3457899999999938
0
LINE
8
BLACK
6
CONTINUOUS
10
76.698246999999995
20
-72.9648380000000003
11
76.698246999999995
21
-73.3457899999999938
0
LINE
8
BLACK
6
CONTINUOUS
10
79.650628999999995
20
-75.7267420000000016
11
79.5553900000000027
21
-75.6315039999999925
0
LINE
8
BLACK
6
CONTINUOUS
10
79.5553900000000027
20
-75.6315039999999925
11
79.3649139999999989
21
-75.3457899999999938
0
LINE
8
BLACK
6
CONTINUOUS
10
79.3649139999999989
20
-75.3457899999999938
11
79.2696759999999898
21
-75.15531399999999
0
LINE
8
BLACK
6
CONTINUOUS
10
79.2696759999999898
20
-75.15531399999999
11
79.174437999999995
21
-74.8695999999999913
0
LINE
8
BLACK
6
CONTINUOUS
10
79.174437999999995
20
-74.8695999999999913
11
79.0792000000000002
21
-74.3934089999999912
0
LINE
8
BLACK
6
CONTINUOUS
10
79.0792000000000002
20
-74.3934089999999912
11
79.0792000000000002
21
-74.0124569999999977
0
LINE
8
BLACK
6
CONTINUOUS
10
79.0792000000000002
20
-74.0124569999999977
11
79.174437999999995
21
-73.5362659999999977
0
LINE
8
BLACK
6
CONTINUOUS
10
79.174437999999995
20
-73.5362659999999977
11
79.2696759999999898
21
-73.250551999999999
0
LINE
8
BLACK
6
CONTINUOUS
10
79.2696759999999898
20
-73.250551999999999
11
79.3649139999999989
21
-73.0600759999999951
0
LINE
8
BLACK
6
CONTINUOUS
10
79.3649139999999989
20
-73.0600759999999951
11
79.5553900000000027
21
-72.774360999999999
0
LINE
8
BLACK
6
CONTINUOUS
10
79.5553900000000027
20
-72.774360999999999
11
79.650628999999995
21
-72.6791229999999899
0
LINE
8
BLACK
6
CONTINUOUS
10
81.2696759999999898
20
-73.6315039999999925
11
81.2696759999999898
21
-74.9648380000000003
0
LINE
8
BLACK
6
CONTINUOUS
10
80.7934849999999898
20
-72.8695999999999913
11
80.3172950000000014
21
-74.2981709999999964
0
LINE
8
BLACK
6
CONTINUOUS
10
80.3172950000000014
20
-74.2981709999999964
11
81.5553900000000027
21
-74.2981709999999964
0
LINE
8
BLACK
6
CONTINUOUS
10
83.8411049999999989
20
-74.9648380000000003
11
83.8411049999999989
21
-72.9648380000000003
0
LINE
8
BLACK
6
CONTINUOUS
10
84.6982479999999924
20
-74.9648380000000003
11
84.6982479999999924
21
-73.9172190000000029
0
LINE
8
BLACK
6
CONTINUOUS
10
84.6982479999999924
20
-73.9172190000000029
11
84.6030099999999976
21
-73.7267420000000016
0
LINE
8
BLACK
6
CONTINUOUS
10
84.6030099999999976
20
-73.7267420000000016
11
84.4125339999999937
21
-73.6315039999999925
0
LINE
8
BLACK
6
CONTINUOUS
10
84.4125339999999937
20
-73.6315039999999925
11
84.1268189999999976
21
-73.6315039999999925
0
LINE
8
BLACK
6
CONTINUOUS
10
84.1268189999999976
20
-73.6315039999999925
11
83.9363429999999937
21
-73.7267420000000016
0
LINE
8
BLACK
6
CONTINUOUS
10
83.9363429999999937
20
-73.7267420000000016
11
83.8411049999999989
21
-73.8219799999999964
0
LINE
8
BLACK
6
CONTINUOUS
10
85.9363429999999937
20
-74.9648380000000003
11
85.7458669999999898
21
-74.8695999999999913
0
LINE
8
BLACK
6
CONTINUOUS
10
85.7458669999999898
20
-74.8695999999999913
11
85.650628999999995
21
-74.774360999999999
0
LINE
8
BLACK
6
CONTINUOUS
10
85.650628999999995
20
-74.774360999999999
11
85.5553910000000002
21
-74.5838849999999951
0
LINE
8
BLACK
6
CONTINUOUS
10
85.5553910000000002
20
-74.5838849999999951
11
85.5553910000000002
21
-74.0124569999999977
0
LINE
8
BLACK
6
CONTINUOUS
10
85.5553910000000002
20
-74.0124569999999977
11
85.650628999999995
21
-73.8219799999999964
0
LINE
8
BLACK
6
CONTINUOUS
10
85.650628999999995
20
-73.8219799999999964
11
85.7458669999999898
21
-73.7267420000000016
0
LINE
8
BLACK
6
CONTINUOUS
10
85.7458669999999898
20
-73.7267420000000016
11
85.9363429999999937
21
-73.6315039999999925
0
LINE
8
BLACK
6
CONTINUOUS
10
85.9363429999999937
20
-73.6315039999999925
11
86.2220579999999899
21
-73.6315039999999925
0
LINE
8
BLACK
6
CONTINUOUS
10
86.2220579999999899
20
-73.6315039999999925
11
86.4125339999999937
21
-73.7267420000000016
0
LINE
8
BLACK
6
CONTINUOUS
10
86.4125339999999937
20
-73.7267420000000016
11
86.5077720000000028
21
-73.8219799999999964
0
LINE
8
BLACK
6
CONTINUOUS
10
86.5077720000000028
20
-73.8219799999999964
11
86.6030099999999976
21
-74.0124569999999977
0
LINE
8
BLACK
6
CONTINUOUS
10
86.6030099999999976
20
-74.0124569999999977
11
86.6030099999999976
21
-74.5838849999999951
0
LINE
8
BLACK
6
CONTINUOUS
10
86.6030099999999976
20
-74.5838849999999951
11
86.5077720000000028
21
-74.774360999999999
0
LINE
8
BLACK
6
CONTINUOUS
10
86.5077720000000028
20
-74.774360999999999
11
86.4125339999999937
21
-74.8695999999999913
0
LINE
8
BLACK
6
CONTINUOUS
10
86.4125339999999937
20
-74.8695999999999913
11
86.2220579999999899
21
-74.9648380000000003
0
LINE
8
BLACK
6
CONTINUOUS
10
86.2220579999999899
20
-74.9648380000000003
11
85.9363429999999937
21
-74.9648380000000003
0
LINE
8
BLACK
6
CONTINUOUS
10
87.7458669999999898
20
-74.9648380000000003
11
87.5553910000000002
21
-74.8695999999999913
0
LINE
8
BLACK
6
CONTINUOUS
10
87.5553910000000002
20
-74.8695999999999913
11
87.4601529999999912
21
-74.6791229999999899
0
LINE
8
BLACK
6
CONTINUOUS
10
87.4601529999999912
20
-74.6791229999999899
11
87.4601529999999912
21
-72.9648380000000003
0
LINE
8
BLACK
6
CONTINUOUS
10
89.2696770000000015
20
-74.8695999999999913
11
89.0792009999999976
21
-74.9648380000000003
0
LINE
8
BLACK
6
CONTINUOUS
10
89.0792009999999976
20
-74.9648380000000003
11
88.6982479999999924
21
-74.9648380000000003
0
LINE
8
BLACK
6
CONTINUOUS
10
88.6982479999999924
20
-74.9648380000000003
11
88.5077720000000028
21
-74.8695999999999913
0
LINE
8
BLACK
6
CONTINUOUS
10
88.5077720000000028
20
-74.8695999999999913
11
88.4125339999999937
21
-74.6791229999999899
0
LINE
8
BLACK
6
CONTINUOUS
10
88.4125339999999937
20
-74.6791229999999899
11
88.4125339999999937
21
-73.9172190000000029
0
LINE
8
BLACK
6
CONTINUOUS
10
88.4125339999999937
20
-73.9172190000000029
11
88.5077720000000028
21
-73.7267420000000016
0
LINE
8
BLACK
6
CONTINUOUS
10
88.5077720000000028
20
-73.7267420000000016
11
88.6982479999999924
21
-73.6315039999999925
0
LINE
8
BLACK
6
CONTINUOUS
10
88.6982479999999924
20
-73.6315039999999925
11
89.0792009999999976
21
-73.6315039999999925
0
LINE
8
BLACK
6
CONTINUOUS
10
89.0792009999999976
20
-73.6315039999999925
11
89.2696770000000015
21
-73.7267420000000016
0
LINE
8
BLACK
6
CONTINUOUS
10
89.2696770000000015
20
-73.7267420000000016
11
89.3649149999999963
21
-73.9172190000000029
0
LINE
8
BLACK
6
CONTINUOUS
10
89.3649149999999963
20
-73.9172190000000029
11
89.3649149999999963
21
-74.1076949999999925
0
LINE
8
BLACK
6
CONTINUOUS
10
89.3649149999999963
20
-74.1076949999999925
11
88.4125339999999937
21
-74.2981709999999964
0
LINE
8
BLACK
6
CONTINUOUS
10
90.126819999999995
20
-74.8695999999999913
11
90.3172959999999989
21
-74.9648380000000003
0
LINE
8
BLACK
6
CONTINUOUS
10
90.3172959999999989
20
-74.9648380000000003
11
90.6982479999999924
21
-74.9648380000000003
0
LINE
8
BLACK
6
CONTINUOUS
10
90.6982479999999924
20
-74.9648380000000003
11
90.8887249999999938
21
-74.8695999999999913
0
LINE
8
BLACK
6
CONTINUOUS
10
90.8887249999999938
20
-74.8695999999999913
11
90.9839630000000028
21
-74.6791229999999899
0
LINE
8
BLACK
6
CONTINUOUS
10
90.9839630000000028
20
-74.6791229999999899
11
90.9839630000000028
21
-74.5838849999999951
0
LINE
8
BLACK
6
CONTINUOUS
10
90.9839630000000028
20
-74.5838849999999951
11
90.8887249999999938
21
-74.3934089999999912
0
LINE
8
BLACK
6
CONTINUOUS
10
90.8887249999999938
20
-74.3934089999999912
11
90.6982479999999924
21
-74.2981709999999964
0
LINE
8
BLACK
6
CONTINUOUS
10
90.6982479999999924
20
-74.2981709999999964
11
90.4125339999999937
21
-74.2981709999999964
0
LINE
8
BLACK
6
CONTINUOUS
10
90.4125339999999937
20
-74.2981709999999964
11
90.2220579999999899
21
-74.2029330000000016
0
LINE
8
BLACK
6
CONTINUOUS
10
90.2220579999999899
20
-74.2029330000000016
11
90.126819999999995
21
-74.0124569999999977
0
LINE
8
BLACK
6
CONTINUOUS
10
90.126819999999995
20
-74.0124569999999977
11
90.126819999999995
21
-73.9172190000000029
0
LINE
8
BLACK
6
CONTINUOUS
10
90.126819999999995
20
-73.9172190000000029
11
90.2220579999999899
21
-73.7267420000000016
0
LINE
8
BLACK
6
CONTINUOUS
10
90.2220579999999899
20
-73.7267420000000016
11
90.4125339999999937
21
-73.6315039999999925
0
LINE
8
BLACK
6
CONTINUOUS
10
90.4125339999999937
20
-73.6315039999999925
11
90.6982479999999924
21
-73.6315039999999925
0
LINE
8
BLACK
6
CONTINUOUS
10
90.6982479999999924
20
-73.6315039999999925
11
90.8887249999999938
21
-73.7267420000000016
0
LINE
8
BLACK
6
CONTINUOUS
10
91.6506299999999925
20
-75.7267420000000016
11
91.7458680000000015
21
-75.6315039999999925
0
LINE
8
BLACK
6
CONTINUOUS
10
91.7458680000000015
20
-75.6315039999999925
11
91.9363439999999912
21
-75.3457899999999938
0
LINE
8
BLACK
6
CONTINUOUS
10
91.9363439999999912
20
-75.3457899999999938
11
92.0315820000000002
21
-75.15531399999999
0
LINE
8
BLACK
6
CONTINUOUS
10
92.0315820000000002
20
-75.15531399999999
11
92.126819999999995
21
-74.8695999999999913
0
LINE
8
BLACK
6
CONTINUOUS
10
92.126819999999995
20
-74.8695999999999913
11
92.2220579999999899
21
-74.3934089999999912
0
LINE
8
BLACK
6
CONTINUOUS
10
92.2220579999999899
20
-74.3934089999999912
11
92.2220579999999899
21
-74.0124569999999977
0
LINE
8
BLACK
6
CONTINUOUS
10
92.2220579999999899
20
-74.0124569999999977
11
92.126819999999995
21
-73.5362659999999977
0
LINE
8
BLACK
6
CONTINUOUS
10
92.126819999999995
20
-73.5362659999999977
11
92.0315820000000002
21
-73.250551999999999
0
LINE
8
BLACK
6
CONTINUOUS
10
92.0315820000000002
20
-73.250551999999999
11
91.9363439999999912
21
-73.0600759999999951
0
LINE
8
BLACK
6
CONTINUOUS
10
91.9363439999999912
20
-73.0600759999999951
11
91.7458680000000015
21
-72.774360999999999
0
LINE
8
BLACK
6
CONTINUOUS
10
91.7458680000000015
20
-72.774360999999999
11
91.6506299999999925
21
-72.6791229999999899
0
CIRCLE
8
BLACK
10
43.4499999999999957
20
-76.6899999999999977
40
0.45
0
LINE
8
BLACK
6
CONTINUOUS
10
46.8887199999999993
20
-75.6048380000000009
11
47.0791970000000006
21
-75.6048380000000009
0
LINE
8
BLACK
6
CONTINUOUS
10
47.0791970000000006
20
-75.6048380000000009
11
47.2696729999999974
21
-75.7000759999999957
0
LINE
8
BLACK
6
CONTINUOUS
10
47.2696729999999974
20
-75.7000759999999957
11
47.3649109999999993
21
-75.7953139999999905
0
LINE
8
BLACK
6
CONTINUOUS
10
47.3649109999999993
20
-75.7953139999999905
11
47.4601490000000013
21
-75.9857899999999944
0
LINE
8
BLACK
6
CONTINUOUS
10
47.4601490000000013
20
-75.9857899999999944
11
47.5553869999999961
21
-76.3667420000000021
0
LINE
8
BLACK
6
CONTINUOUS
10
47.5553869999999961
20
-76.3667420000000021
11
47.5553869999999961
21
-76.8429330000000022
0
LINE
8
BLACK
6
CONTINUOUS
10
47.5553869999999961
20
-76.8429330000000022
11
47.4601490000000013
21
-77.2238849999999957
0
LINE
8
BLACK
6
CONTINUOUS
10
47.4601490000000013
20
-77.2238849999999957
11
47.3649109999999993
21
-77.4143609999999995
0
LINE
8
BLACK
6
CONTINUOUS
10
47.3649109999999993
20
-77.4143609999999995
11
47.2696729999999974
21
-77.5095999999999918
0
LINE
8
BLACK
6
CONTINUOUS
10
47.2696729999999974
20
-77.5095999999999918
11
47.0791970000000006
21
-77.6048380000000009
0
LINE
8
BLACK
6
CONTINUOUS
10
47.0791970000000006
20
-77.6048380000000009
11
46.8887199999999993
21
-77.6048380000000009
0
LINE
8
BLACK
6
CONTINUOUS
10
46.8887199999999993
20
-77.6048380000000009
11
46.6982439999999954
21
-77.5095999999999918
0
LINE
8
BLACK
6
CONTINUOUS
10
46.6982439999999954
20
-77.5095999999999918
11
46.6030060000000006
21
-77.4143609999999995
0
LINE
8
BLACK
6
CONTINUOUS
10
46.6030060000000006
20
-77.4143609999999995
11
46.5077679999999987
21
-77.2238849999999957
0
LINE
8
BLACK
6
CONTINUOUS
10
46.5077679999999987
20
-77.2238849999999957
11
46.4125299999999967
21
-76.8429330000000022
0
LINE
8
BLACK
6
CONTINUOUS
10
46.4125299999999967
20
-76.8429330000000022
11
46.4125299999999967
21
-76.3667420000000021
0
LINE
8
BLACK
6
CONTINUOUS
10
46.4125299999999967
20
-76.3667420000000021
11
46.5077679999999987
21
-75.9857899999999944
0
LINE
8
BLACK
6
CONTINUOUS
10
46.5077679999999987
20
-75.9857899999999944
11
46.6030060000000006
21
-75.7953139999999905
0
LINE
8
BLACK
6
CONTINUOUS
10
46.6030060000000006
20
-75.7953139999999905
11
46.6982439999999954
21
-75.7000759999999957
0
LINE
8
BLACK
6
CONTINUOUS
10
46.6982439999999954
20
-75.7000759999999957
11
46.8887199999999993
21
-75.6048380000000009
0
LINE
8
BLACK
6
CONTINUOUS
10
48.4125299999999967
20
-77.4143609999999995
11
48.5077679999999987
21
-77.5095999999999918
0
LINE
8
BLACK
6
CONTINUOUS
10
48.5077679999999987
20
-77.5095999999999918
11
48.4125299999999967
21
-77.6048380000000009
0
LINE
8
BLACK
6
CONTINUOUS
10
48.4125299999999967
20
-77.6048380000000009
11
48.3172919999999948
21
-77.5095999999999918
0
LINE
8
BLACK
6
CONTINUOUS
10
48.3172919999999948
20
-77.5095999999999918
11
48.4125299999999967
21
-77.4143609999999995
0
LINE
8
BLACK
6
CONTINUOUS
10
48.4125299999999967
20
-77.4143609999999995
11
48.4125299999999967
21
-77.6048380000000009
0
LINE
8
BLACK
6
CONTINUOUS
10
49.4601490000000013
20
-77.6048380000000009
11
49.8411009999999948
21
-77.6048380000000009
0
LINE
8
BLACK
6
CONTINUOUS
10
49.8411009999999948
20
-77.6048380000000009
11
50.0315779999999961
21
-77.5095999999999918
0
LINE
8
BLACK
6
CONTINUOUS
10
50.0315779999999961
20
-77.5095999999999918
11
50.126815999999998
21
-77.4143609999999995
0
LINE
8
BLACK
6
CONTINUOUS
10
50.126815999999998
20
-77.4143609999999995
11
50.3172919999999948
21
-77.1286470000000008
0
LINE
8
BLACK
6
CONTINUOUS
10
50.3172919999999948
20
-77.1286470000000008
11
50.4125299999999967
21
-76.7476949999999931
0
LINE
8
BLACK
6
CONTINUOUS
10
50.4125299999999967
20
-76.7476949999999931
11
50.4125299999999967
21
-75.9857899999999944
0
LINE
8
BLACK
6
CONTINUOUS
10
50.4125299999999967
20
-75.9857899999999944
11
50.3172919999999948
21
-75.7953139999999905
0
LINE
8
BLACK
6
CONTINUOUS
10
50.3172919999999948
20
-75.7953139999999905
11
50.222054
21
-75.7000759999999957
0
LINE
8
BLACK
6
CONTINUOUS
10
50.222054
20
-75.7000759999999957
11
50.0315779999999961
21
-75.6048380000000009
0
LINE
8
BLACK
6
CONTINUOUS
10
50.0315779999999961
20
-75.6048380000000009
11
49.650624999999998
21
-75.6048380000000009
0
LINE
8
BLACK
6
CONTINUOUS
10
49.650624999999998
20
-75.6048380000000009
11
49.4601490000000013
21
-75.7000759999999957
0
LINE
8
BLACK
6
CONTINUOUS
10
49.4601490000000013
20
-75.7000759999999957
11
49.3649109999999993
21
-75.7953139999999905
0
LINE
8
BLACK
6
CONTINUOUS
10
49.3649109999999993
20
-75.7953139999999905
11
49.2696729999999974
21
-75.9857899999999944
0
LINE
8
BLACK
6
CONTINUOUS
10
49.2696729999999974
20
-75.9857899999999944
11
49.2696729999999974
21
-76.4619799999999969
0
LINE
8
BLACK
6
CONTINUOUS
10
49.2696729999999974
20
-76.4619799999999969
11
49.3649109999999993
21
-76.6524569999999983
0
LINE
8
BLACK
6
CONTINUOUS
10
49.3649109999999993
20
-76.6524569999999983
11
49.4601490000000013
21
-76.7476949999999931
0
LINE
8
BLACK
6
CONTINUOUS
10
49.4601490000000013
20
-76.7476949999999931
11
49.650624999999998
21
-76.8429330000000022
0
LINE
8
BLACK
6
CONTINUOUS
10
49.650624999999998
20
-76.8429330000000022
11
50.0315779999999961
21
-76.8429330000000022
0
LINE
8
BLACK
6
CONTINUOUS
10
50.0315779999999961
20
-76.8429330000000022
11
50.222054
21
-76.7476949999999931
0
LINE
8
BLACK
6
CONTINUOUS
10
50.222054
20
-76.7476949999999931
11
50.3172919999999948
21
-76.6524569999999983
0
LINE
8
BLACK
6
CONTINUOUS
10
50.3172919999999948
20
-76.6524569999999983
11
50.4125299999999967
21
-76.4619799999999969
0
LINE
8
BLACK
6
CONTINUOUS
10
51.650624999999998
20
-75.6048380000000009
11
51.8411019999999994
21
-75.6048380000000009
0
LINE
8
BLACK
6
CONTINUOUS
10
51.8411019999999994
20
-75.6048380000000009
11
52.0315779999999961
21
-75.7000759999999957
0
LINE
8
BLACK
6
CONTINUOUS
10
52.0315779999999961
20
-75.7000759999999957
11
52.126815999999998
21
-75.7953139999999905
0
LINE
8
BLACK
6
CONTINUOUS
10
52.126815999999998
20
-75.7953139999999905
11
52.222054
21
-75.9857899999999944
0
LINE
8
BLACK
6
CONTINUOUS
10
52.222054
20
-75.9857899999999944
11
52.3172919999999948
21
-76.3667420000000021
0
LINE
8
BLACK
6
CONTINUOUS
10
52.3172919999999948
20
-76.3667420000000021
11
52.3172919999999948
21
-76.8429330000000022
0
LINE
8
BLACK
6
CONTINUOUS
10
52.3172919999999948
20
-76.8429330000000022
11
52.222054
21
-77.2238849999999957
0
LINE
8
BLACK
6
CONTINUOUS
10
52.222054
20
-77.2238849999999957
11
52.126815999999998
21
-77.4143609999999995
0
LINE
8
BLACK
6
CONTINUOUS
10
52.126815999999998
20
-77.4143609999999995
11
52.0315779999999961
21
-77.5095999999999918
0
LINE
8
BLACK
6
CONTINUOUS
10
52.0315779999999961
20
-77.5095999999999918
11
51.8411019999999994
21
-77.6048380000000009
0
LINE
8
BLACK
6
CONTINUOUS
10
51.8411019999999994
20
-77.6048380000000009
11
51.650624999999998
21
-77.6048380000000009
0
LINE
8
BLACK
6
CONTINUOUS
10
51.650624999999998
20
-77.6048380000000009
11
51.4601489999999941
21
-77.5095999999999918
0
LINE
8
BLACK
6
CONTINUOUS
10
51.4601489999999941
20
-77.5095999999999918
11
51.3649109999999993
21
-77.4143609999999995
0
LINE
8
BLACK
6
CONTINUOUS
10
51.3649109999999993
20
-77.4143609999999995
11
51.2696729999999974
21
-77.2238849999999957
0
LINE
8
BLACK
6
CONTINUOUS
10
51.2696729999999974
20
-77.2238849999999957
11
51.1744349999999955
21
-76.8429330000000022
0
LINE
8
BLACK
6
CONTINUOUS
10
51.1744349999999955
20
-76.8429330000000022
11
51.1744349999999955
21
-76.3667420000000021
0
LINE
8
BLACK
6
CONTINUOUS
10
51.1744349999999955
20
-76.3667420000000021
11
51.2696729999999974
21
-75.9857899999999944
0
LINE
8
BLACK
6
CONTINUOUS
10
51.2696729999999974
20
-75.9857899999999944
11
51.3649109999999993
21
-75.7953139999999905
0
LINE
8
BLACK
6
CONTINUOUS
10
51.3649109999999993
20
-75.7953139999999905
11
51.4601489999999941
21
-75.7000759999999957
0
LINE
8
BLACK
6
CONTINUOUS
10
51.4601489999999941
20
-75.7000759999999957
11
51.650624999999998
21
-75.6048380000000009
0
LINE
8
BLACK
6
CONTINUOUS
10
53.5553869999999961
20
-75.6048380000000009
11
53.7458639999999974
21
-75.6048380000000009
0
LINE
8
BLACK
6
CONTINUOUS
10
53.7458639999999974
20
-75.6048380000000009
11
53.9363399999999942
21
-75.7000759999999957
0
LINE
8
BLACK
6
CONTINUOUS
10
53.9363399999999942
20
-75.7000759999999957
11
54.0315779999999961
21
-75.7953139999999905
0
LINE
8
BLACK
6
CONTINUOUS
10
54.0315779999999961
20
-75.7953139999999905
11
54.126815999999998
21
-75.9857899999999944
0
LINE
8
BLACK
6
CONTINUOUS
10
54.126815999999998
20
-75.9857899999999944
11
54.222054
21
-76.3667420000000021
0
LINE
8
BLACK
6
CONTINUOUS
10
54.222054
20
-76.3667420000000021
11
54.222054
21
-76.8429330000000022
0
LINE
8
BLACK
6
CONTINUOUS
10
54.222054
20
-76.8429330000000022
11
54.126815999999998
21
-77.2238849999999957
0
LINE
8
BLACK
6
CONTINUOUS
10
54.126815999999998
20
-77.2238849999999957
11
54.0315779999999961
21
-77.4143609999999995
0
LINE
8
BLACK
6
CONTINUOUS
10
54.0315779999999961
20
-77.4143609999999995
11
53.9363399999999942
21
-77.5095999999999918
0
LINE
8
BLACK
6
CONTINUOUS
10
53.9363399999999942
20
-77.5095999999999918
11
53.7458639999999974
21
-77.6048380000000009
0
LINE
8
BLACK
6
CONTINUOUS
10
53.7458639999999974
20
-77.6048380000000009
11
53.5553869999999961
21
-77.6048380000000009
0
LINE
8
BLACK
6
CONTINUOUS
10
53.5553869999999961
20
-77.6048380000000009
11
53.3649109999999993
21
-77.5095999999999918
0
LINE
8
BLACK
6
CONTINUOUS
10
53.3649109999999993
20
-77.5095999999999918
11
53.2696729999999974
21
-77.4143609999999995
0
LINE
8
BLACK
6
CONTINUOUS
10
53.2696729999999974
20
-77.4143609999999995
11
53.1744349999999955
21
-77.2238849999999957
0
LINE
8
BLACK
6
CONTINUOUS
10
53.1744349999999955
20
-77.2238849999999957
11
53.0791970000000006
21
-76.8429330000000022
0
LINE
8
BLACK
6
CONTINUOUS
10
53.0791970000000006
20
-76.8429330000000022
11
53.0791970000000006
21
-76.3667420000000021
0
LINE
8
BLACK
6
CONTINUOUS
10
53.0791970000000006
20
-76.3667420000000021
11
53.1744349999999955
21
-75.9857899999999944
0
LINE
8
BLACK
6
CONTINUOUS
10
53.1744349999999955
20
-75.9857899999999944
11
53.2696729999999974
21
-75.7953139999999905
0
LINE
8
BLACK
6
CONTINUOUS
10
53.2696729999999974
20
-75.7953139999999905
11
53.3649109999999993
21
-75.7000759999999957
0
LINE
8
BLACK
6
CONTINUOUS
10
53.3649109999999993
20
-75.7000759999999957
11
53.5553869999999961
21
-75.6048380000000009
0
LINE
8
BLACK
6
CONTINUOUS
10
55.0791970000000006
20
-77.6048380000000009
11
55.0791970000000006
21
-76.2715039999999931
0
LINE
8
BLACK
6
CONTINUOUS
10
55.0791970000000006
20
-76.4619799999999969
11
55.1744349999999955
21
-76.3667420000000021
0
LINE
8
BLACK
6
CONTINUOUS
10
55.1744349999999955
20
-76.3667420000000021
11
55.3649109999999993
21
-76.2715039999999931
0
LINE
8
BLACK
6
CONTINUOUS
10
55.3649109999999993
20
-76.2715039999999931
11
55.6506259999999955
21
-76.2715039999999931
0
LINE
8
BLACK
6
CONTINUOUS
10
55.6506259999999955
20
-76.2715039999999931
11
55.8411019999999994
21
-76.3667420000000021
0
LINE
8
BLACK
6
CONTINUOUS
10
55.8411019999999994
20
-76.3667420000000021
11
55.9363399999999942
21
-76.5572190000000035
0
LINE
8
BLACK
6
CONTINUOUS
10
55.9363399999999942
20
-76.5572190000000035
11
55.9363399999999942
21
-77.6048380000000009
0
LINE
8
BLACK
6
CONTINUOUS
10
55.9363399999999942
20
-76.5572190000000035
11
56.0315779999999961
21
-76.3667420000000021
0
LINE
8
BLACK
6
CONTINUOUS
10
56.0315779999999961
20
-76.3667420000000021
11
56.222054
21
-76.2715039999999931
0
LINE
8
BLACK
6
CONTINUOUS
10
56.222054
20
-76.2715039999999931
11
56.5077679999999987
21
-76.2715039999999931
0
LINE
8
BLACK
6
CONTINUOUS
10
56.5077679999999987
20
-76.2715039999999931
11
56.698245
21
-76.3667420000000021
0
LINE
8
BLACK
6
CONTINUOUS
10
56.698245
20
-76.3667420000000021
11
56.7934829999999948
21
-76.5572190000000035
0
LINE
8
BLACK
6
CONTINUOUS
10
56.7934829999999948
20
-76.5572190000000035
11
56.7934829999999948
21
-77.6048380000000009
0
LINE
8
BLACK
6
CONTINUOUS
10
57.7458639999999974
20
-77.6048380000000009
11
57.7458639999999974
21
-76.2715039999999931
0
LINE
8
BLACK
6
CONTINUOUS
10
57.7458639999999974
20
-76.4619799999999969
11
57.8411019999999994
21
-76.3667420000000021
0
LINE
8
BLACK
6
CONTINUOUS
10
57.8411019999999994
20
-76.3667420000000021
11
58.0315779999999961
21
-76.2715039999999931
0
LINE
8
BLACK
6
CONTINUOUS
10
58.0315779999999961
20
-76.2715039999999931
11
58.3172929999999994
21
-76.2715039999999931
0
LINE
8
BLACK
6
CONTINUOUS
10
58.3172929999999994
20
-76.2715039999999931
11
58.5077689999999961
21
-76.3667420000000021
0
LINE
8
BLACK
6
CONTINUOUS
10
58.5077689999999961
20
-76.3667420000000021
11
58.6030069999999981
21
-76.5572190000000035
0
LINE
8
BLACK
6
CONTINUOUS
10
58.6030069999999981
20
-76.5572190000000035
11
58.6030069999999981
21
-77.6048380000000009
0
LINE
8
BLACK
6
CONTINUOUS
10
58.6030069999999981
20
-76.5572190000000035
11
58.698245
21
-76.3667420000000021
0
LINE
8
BLACK
6
CONTINUOUS
10
58.698245
20
-76.3667420000000021
11
58.8887209999999968
21
-76.2715039999999931
0
LINE
8
BLACK
6
CONTINUOUS
10
58.8887209999999968
20
-76.2715039999999931
11
59.1744349999999955
21
-76.2715039999999931
0
LINE
8
BLACK
6
CONTINUOUS
10
59.1744349999999955
20
-76.2715039999999931
11
59.3649119999999968
21
-76.3667420000000021
0
LINE
8
BLACK
6
CONTINUOUS
10
59.3649119999999968
20
-76.3667420000000021
11
59.4601499999999987
21
-76.5572190000000035
0
LINE
8
BLACK
6
CONTINUOUS
10
59.4601499999999987
20
-76.5572190000000035
11
59.4601499999999987
21
-77.6048380000000009
0
LINE
8
BLACK
6
CONTINUOUS
10
63.3649119999999968
20
-75.5095999999999918
11
61.6506270000000001
21
-78.0810280000000034
0
LINE
8
BLACK
6
CONTINUOUS
10
65.9363409999999988
20
-75.6048380000000009
11
66.1268180000000001
21
-75.6048380000000009
0
LINE
8
BLACK
6
CONTINUOUS
10
66.1268180000000001
20
-75.6048380000000009
11
66.317294000000004
21
-75.7000759999999957
0
LINE
8
BLACK
6
CONTINUOUS
10
66.317294000000004
20
-75.7000759999999957
11
66.4125319999999988
21
-75.7953139999999905
0
LINE
8
BLACK
6
CONTINUOUS
10
66.4125319999999988
20
-75.7953139999999905
11
66.5077699999999936
21
-75.9857899999999944
0
LINE
8
BLACK
6
CONTINUOUS
10
66.5077699999999936
20
-75.9857899999999944
11
66.6030080000000027
21
-76.3667420000000021
0
LINE
8
BLACK
6
CONTINUOUS
10
66.6030080000000027
20
-76.3667420000000021
11
66.6030080000000027
21
-76.8429330000000022
0
LINE
8
BLACK
6
CONTINUOUS
10
66.6030080000000027
20
-76.8429330000000022
11
66.5077699999999936
21
-77.2238849999999957
0
LINE
8
BLACK
6
CONTINUOUS
10
66.5077699999999936
20
-77.2238849999999957
11
66.4125319999999988
21
-77.4143609999999995
0
LINE
8
BLACK
6
CONTINUOUS
10
66.4125319999999988
20
-77.4143609999999995
11
66.317294000000004
21
-77.5095999999999918
0
LINE
8
BLACK
6
CONTINUOUS
10
66.317294000000004
20
-77.5095999999999918
11
66.1268180000000001
21
-77.6048380000000009
0
LINE
8
BLACK
6
CONTINUOUS
10
66.1268180000000001
20
-77.6048380000000009
11
65.9363409999999988
21
-77.6048380000000009
0
LINE
8
BLACK
6
CONTINUOUS
10
65.9363409999999988
20
-77.6048380000000009
11
65.7458649999999949
21
-77.5095999999999918
0
LINE
8
BLACK
6
CONTINUOUS
10
65.7458649999999949
20
-77.5095999999999918
11
65.6506270000000001
21
-77.4143609999999995
0
LINE
8
BLACK
6
CONTINUOUS
10
65.6506270000000001
20
-77.4143609999999995
11
65.555388999999991
21
-77.2238849999999957
0
LINE
8
BLACK
6
CONTINUOUS
10
65.555388999999991
20
-77.2238849999999957
11
65.4601509999999962
21
-76.8429330000000022
0
LINE
8
BLACK
6
CONTINUOUS
10
65.4601509999999962
20
-76.8429330000000022
11
65.4601509999999962
21
-76.3667420000000021
0
LINE
8
BLACK
6
CONTINUOUS
10
65.4601509999999962
20
-76.3667420000000021
11
65.555388999999991
21
-75.9857899999999944
0
LINE
8
BLACK
6
CONTINUOUS
10
65.555388999999991
20
-75.9857899999999944
11
65.6506270000000001
21
-75.7953139999999905
0
LINE
8
BLACK
6
CONTINUOUS
10
65.6506270000000001
20
-75.7953139999999905
11
65.7458649999999949
21
-75.7000759999999957
0
LINE
8
BLACK
6
CONTINUOUS
10
65.7458649999999949
20
-75.7000759999999957
11
65.9363409999999988
21
-75.6048380000000009
0
LINE
8
BLACK
6
CONTINUOUS
10
67.4601509999999962
20
-77.4143609999999995
11
67.555388999999991
21
-77.5095999999999918
0
LINE
8
BLACK
6
CONTINUOUS
10
67.555388999999991
20
-77.5095999999999918
11
67.4601509999999962
21
-77.6048380000000009
0
LINE
8
BLACK
6
CONTINUOUS
10
67.4601509999999962
20
-77.6048380000000009
11
67.3649130000000014
21
-77.5095999999999918
0
LINE
8
BLACK
6
CONTINUOUS
10
67.3649130000000014
20
-77.5095999999999918
11
67.4601509999999962
21
-77.4143609999999995
0
LINE
8
BLACK
6
CONTINUOUS
10
67.4601509999999962
20
-77.4143609999999995
11
67.4601509999999962
21
-77.6048380000000009
0
LINE
8
BLACK
6
CONTINUOUS
10
68.7934839999999923
20
-75.6048380000000009
11
68.9839609999999936
21
-75.6048380000000009
0
LINE
8
BLACK
6
CONTINUOUS
10
68.9839609999999936
20
-75.6048380000000009
11
69.1744369999999975
21
-75.7000759999999957
0
LINE
8
BLACK
6
CONTINUOUS
10
69.1744369999999975
20
-75.7000759999999957
11
69.2696749999999923
21
-75.7953139999999905
0
LINE
8
BLACK
6
CONTINUOUS
10
69.2696749999999923
20
-75.7953139999999905
11
69.3649130000000014
21
-75.9857899999999944
0
LINE
8
BLACK
6
CONTINUOUS
10
69.3649130000000014
20
-75.9857899999999944
11
69.4601509999999962
21
-76.3667420000000021
0
LINE
8
BLACK
6
CONTINUOUS
10
69.4601509999999962
20
-76.3667420000000021
11
69.4601509999999962
21
-76.8429330000000022
0
LINE
8
BLACK
6
CONTINUOUS
10
69.4601509999999962
20
-76.8429330000000022
11
69.3649130000000014
21
-77.2238849999999957
0
LINE
8
BLACK
6
CONTINUOUS
10
69.3649130000000014
20
-77.2238849999999957
11
69.2696749999999923
21
-77.4143609999999995
0
LINE
8
BLACK
6
CONTINUOUS
10
69.2696749999999923
20
-77.4143609999999995
11
69.1744369999999975
21
-77.5095999999999918
0
LINE
8
BLACK
6
CONTINUOUS
10
69.1744369999999975
20
-77.5095999999999918
11
68.9839609999999936
21
-77.6048380000000009
0
LINE
8
BLACK
6
CONTINUOUS
10
68.9839609999999936
20
-77.6048380000000009
11
68.7934839999999923
21
-77.6048380000000009
0
LINE
8
BLACK
6
CONTINUOUS
10
68.7934839999999923
20
-77.6048380000000009
11
68.6030080000000027
21
-77.5095999999999918
0
LINE
8
BLACK
6
CONTINUOUS
10
68.6030080000000027
20
-77.5095999999999918
11
68.5077699999999936
21
-77.4143609999999995
0
LINE
8
BLACK
6
CONTINUOUS
10
68.5077699999999936
20
-77.4143609999999995
11
68.4125319999999988
21
-77.2238849999999957
0
LINE
8
BLACK
6
CONTINUOUS
10
68.4125319999999988
20
-77.2238849999999957
11
68.317294000000004
21
-76.8429330000000022
0
LINE
8
BLACK
6
CONTINUOUS
10
68.317294000000004
20
-76.8429330000000022
11
68.317294000000004
21
-76.3667420000000021
0
LINE
8
BLACK
6
CONTINUOUS
10
68.317294000000004
20
-76.3667420000000021
11
68.4125319999999988
21
-75.9857899999999944
0
LINE
8
BLACK
6
CONTINUOUS
10
68.4125319999999988
20
-75.9857899999999944
11
68.5077699999999936
21
-75.7953139999999905
0
LINE
8
BLACK
6
CONTINUOUS
10
68.5077699999999936
20
-75.7953139999999905
11
68.6030080000000027
21
-75.7000759999999957
0
LINE
8
BLACK
6
CONTINUOUS
10
68.6030080000000027
20
-75.7000759999999957
11
68.7934839999999923
21
-75.6048380000000009
0
LINE
8
BLACK
6
CONTINUOUS
10
70.1268180000000001
20
-75.6048380000000009
11
71.3649130000000014
21
-75.6048380000000009
0
LINE
8
BLACK
6
CONTINUOUS
10
71.3649130000000014
20
-75.6048380000000009
11
70.6982459999999975
21
-76.3667420000000021
0
LINE
8
BLACK
6
CONTINUOUS
10
70.6982459999999975
20
-76.3667420000000021
11
70.9839609999999936
21
-76.3667420000000021
0
LINE
8
BLACK
6
CONTINUOUS
10
70.9839609999999936
20
-76.3667420000000021
11
71.1744369999999975
21
-76.4619799999999969
0
LINE
8
BLACK
6
CONTINUOUS
10
71.1744369999999975
20
-76.4619799999999969
11
71.2696749999999923
21
-76.5572190000000035
0
LINE
8
BLACK
6
CONTINUOUS
10
71.2696749999999923
20
-76.5572190000000035
11
71.3649130000000014
21
-76.7476949999999931
0
LINE
8
BLACK
6
CONTINUOUS
10
71.3649130000000014
20
-76.7476949999999931
11
71.3649130000000014
21
-77.2238849999999957
0
LINE
8
BLACK
6
CONTINUOUS
10
71.3649130000000014
20
-77.2238849999999957
11
71.2696749999999923
21
-77.4143609999999995
0
LINE
8
BLACK
6
CONTINUOUS
10
71.2696749999999923
20
-77.4143609999999995
11
71.1744369999999975
21
-77.5095999999999918
0
LINE
8
BLACK
6
CONTINUOUS
10
71.1744369999999975
20
-77.5095999999999918
11
70.9839609999999936
21
-77.6048380000000009
0
LINE
8
BLACK
6
CONTINUOUS
10
70.9839609999999936
20
-77.6048380000000009
11
70.4125319999999988
21
-77.6048380000000009
0
LINE
8
BLACK
6
CONTINUOUS
10
70.4125319999999988
20
-77.6048380000000009
11
70.2220559999999949
21
-77.5095999999999918
0
LINE
8
BLACK
6
CONTINUOUS
10
70.2220559999999949
20
-77.5095999999999918
11
70.1268180000000001
21
-77.4143609999999995
0
LINE
8
BLACK
6
CONTINUOUS
10
73.1744369999999975
20
-75.6048380000000009
11
72.2220559999999949
21
-75.6048380000000009
0
LINE
8
BLACK
6
CONTINUOUS
10
72.2220559999999949
20
-75.6048380000000009
11
72.1268180000000001
21
-76.5572190000000035
0
LINE
8
BLACK
6
CONTINUOUS
10
72.1268180000000001
20
-76.5572190000000035
11
72.2220559999999949
21
-76.4619799999999969
0
LINE
8
BLACK
6
CONTINUOUS
10
72.2220559999999949
20
-76.4619799999999969
11
72.4125319999999988
21
-76.3667420000000021
0
LINE
8
BLACK
6
CONTINUOUS
10
72.4125319999999988
20
-76.3667420000000021
11
72.8887229999999988
21
-76.3667420000000021
0
LINE
8
BLACK
6
CONTINUOUS
10
72.8887229999999988
20
-76.3667420000000021
11
73.0791990000000027
21
-76.4619799999999969
0
LINE
8
BLACK
6
CONTINUOUS
10
73.0791990000000027
20
-76.4619799999999969
11
73.1744369999999975
21
-76.5572190000000035
0
LINE
8
BLACK
6
CONTINUOUS
10
73.1744369999999975
20
-76.5572190000000035
11
73.2696749999999923
21
-76.7476949999999931
0
LINE
8
BLACK
6
CONTINUOUS
10
73.2696749999999923
20
-76.7476949999999931
11
73.2696749999999923
21
-77.2238849999999957
0
LINE
8
BLACK
6
CONTINUOUS
10
73.2696749999999923
20
-77.2238849999999957
11
73.1744369999999975
21
-77.4143609999999995
0
LINE
8
BLACK
6
CONTINUOUS
10
73.1744369999999975
20
-77.4143609999999995
11
73.0791990000000027
21
-77.5095999999999918
0
LINE
8
BLACK
6
CONTINUOUS
10
73.0791990000000027
20
-77.5095999999999918
11
72.8887229999999988
21
-77.6048380000000009
0
LINE
8
BLACK
6
CONTINUOUS
10
72.8887229999999988
20
-77.6048380000000009
11
72.4125319999999988
21
-77.6048380000000009
0
LINE
8
BLACK
6
CONTINUOUS
10
72.4125319999999988
20
-77.6048380000000009
11
72.2220559999999949
21
-77.5095999999999918
0
LINE
8
BLACK
6
CONTINUOUS
10
72.2220559999999949
20
-77.5095999999999918
11
72.1268180000000001
21
-77.4143609999999995
0
LINE
8
BLACK
6
CONTINUOUS
10
74.9839609999999936
20
-76.2715039999999931
11
74.9839609999999936
21
-77.6048380000000009
0
LINE
8
BLACK
6
CONTINUOUS
10
74.5077699999999936
20
-75.5095999999999918
11
74.0315799999999911
21
-76.938170999999997
0
LINE
8
BLACK
6
CONTINUOUS
10
74.0315799999999911
20
-76.938170999999997
11
75.2696749999999923
21
-76.938170999999997
0
LINE
8
BLACK
6
CONTINUOUS
10
75.9363419999999962
20
-75.6048380000000009
11
75.9363419999999962
21
-75.9857899999999944
0
LINE
8
BLACK
6
CONTINUOUS
10
76.698246999999995
20
-75.6048380000000009
11
76.698246999999995
21
-75.9857899999999944
0
LINE
8
BLACK
6
CONTINUOUS
10
79.650628999999995
20
-78.3667420000000021
11
79.5553900000000027
21
-78.2715039999999931
0
LINE
8
BLACK
6
CONTINUOUS
10
79.5553900000000027
20
-78.2715039999999931
11
79.3649139999999989
21
-77.9857899999999944
0
LINE
8
BLACK
6
CONTINUOUS
10
79.3649139999999989
20
-77.9857899999999944
11
79.2696759999999898
21
-77.7953139999999905
0
LINE
8
BLACK
6
CONTINUOUS
10
79.2696759999999898
20
-77.7953139999999905
11
79.174437999999995
21
-77.5095999999999918
0
LINE
8
BLACK
6
CONTINUOUS
10
79.174437999999995
20
-77.5095999999999918
11
79.0792000000000002
21
-77.0334089999999918
0
LINE
8
BLACK
6
CONTINUOUS
10
79.0792000000000002
20
-77.0334089999999918
11
79.0792000000000002
21
-76.6524569999999983
0
LINE
8
BLACK
6
CONTINUOUS
10
79.0792000000000002
20
-76.6524569999999983
11
79.174437999999995
21
-76.1762659999999983
0
LINE
8
BLACK
6
CONTINUOUS
10
79.174437999999995
20
-76.1762659999999983
11
79.2696759999999898
21
-75.8905519999999996
0
LINE
8
BLACK
6
CONTINUOUS
10
79.2696759999999898
20
-75.8905519999999996
11
79.3649139999999989
21
-75.7000759999999957
0
LINE
8
BLACK
6
CONTINUOUS
10
79.3649139999999989
20
-75.7000759999999957
11
79.5553900000000027
21
-75.4143609999999995
0
LINE
8
BLACK
6
CONTINUOUS
10
79.5553900000000027
20
-75.4143609999999995
11
79.650628999999995
21
-75.3191229999999905
0
LINE
8
BLACK
6
CONTINUOUS
10
80.698246999999995
20
-76.4619799999999969
11
80.5077709999999911
21
-76.3667420000000021
0
LINE
8
BLACK
6
CONTINUOUS
10
80.5077709999999911
20
-76.3667420000000021
11
80.4125329999999963
21
-76.2715039999999931
0
LINE
8
BLACK
6
CONTINUOUS
10
80.4125329999999963
20
-76.2715039999999931
11
80.3172950000000014
21
-76.0810280000000034
0
LINE
8
BLACK
6
CONTINUOUS
10
80.3172950000000014
20
-76.0810280000000034
11
80.3172950000000014
21
-75.9857899999999944
0
LINE
8
BLACK
6
CONTINUOUS
10
80.3172950000000014
20
-75.9857899999999944
11
80.4125329999999963
21
-75.7953139999999905
0
LINE
8
BLACK
6
CONTINUOUS
10
80.4125329999999963
20
-75.7953139999999905
11
80.5077709999999911
21
-75.7000759999999957
0
LINE
8
BLACK
6
CONTINUOUS
10
80.5077709999999911
20
-75.7000759999999957
11
80.698246999999995
21
-75.6048380000000009
0
LINE
8
BLACK
6
CONTINUOUS
10
80.698246999999995
20
-75.6048380000000009
11
81.0792000000000002
21
-75.6048380000000009
0
LINE
8
BLACK
6
CONTINUOUS
10
81.0792000000000002
20
-75.6048380000000009
11
81.2696759999999898
21
-75.7000759999999957
0
LINE
8
BLACK
6
CONTINUOUS
10
81.2696759999999898
20
-75.7000759999999957
11
81.3649139999999989
21
-75.7953139999999905
0
LINE
8
BLACK
6
CONTINUOUS
10
81.3649139999999989
20
-75.7953139999999905
11
81.4601519999999937
21
-75.9857899999999944
0
LINE
8
BLACK
6
CONTINUOUS
10
81.4601519999999937
20
-75.9857899999999944
11
81.4601519999999937
21
-76.0810280000000034
0
LINE
8
BLACK
6
CONTINUOUS
10
81.4601519999999937
20
-76.0810280000000034
11
81.3649139999999989
21
-76.2715039999999931
0
LINE
8
BLACK
6
CONTINUOUS
10
81.3649139999999989
20
-76.2715039999999931
11
81.2696759999999898
21
-76.3667420000000021
0
LINE
8
BLACK
6
CONTINUOUS
10
81.2696759999999898
20
-76.3667420000000021
11
81.0792000000000002
21
-76.4619799999999969
0
LINE
8
BLACK
6
CONTINUOUS
10
81.0792000000000002
20
-76.4619799999999969
11
80.698246999999995
21
-76.4619799999999969
0
LINE
8
BLACK
6
CONTINUOUS
10
80.698246999999995
20
-76.4619799999999969
11
80.5077709999999911
21
-76.5572190000000035
0
LINE
8
BLACK
6
CONTINUOUS
10
80.5077709999999911
20
-76.5572190000000035
11
80.4125329999999963
21
-76.6524569999999983
0
LINE
8
BLACK
6
CONTINUOUS
10
80.4125329999999963
20
-76.6524569999999983
11
80.3172950000000014
21
-76.8429330000000022
0
LINE
8
BLACK
6
CONTINUOUS
10
80.3172950000000014
20
-76.8429330000000022
11
80.3172950000000014
21
-77.2238849999999957
0
LINE
8
BLACK
6
CONTINUOUS
10
80.3172950000000014
20
-77.2238849999999957
11
80.4125329999999963
21
-77.4143609999999995
0
LINE
8
BLACK
6
CONTINUOUS
10
80.4125329999999963
20
-77.4143609999999995
11
80.5077709999999911
21
-77.5095999999999918
0
LINE
8
BLACK
6
CONTINUOUS
10
80.5077709999999911
20
-77.5095999999999918
11
80.698246999999995
21
-77.6048380000000009
0
LINE
8
BLACK
6
CONTINUOUS
10
80.698246999999995
20
-77.6048380000000009
11
81.0792000000000002
21
-77.6048380000000009
0
LINE
8
BLACK
6
CONTINUOUS
10
81.0792000000000002
20
-77.6048380000000009
11
81.2696759999999898
21
-77.5095999999999918
0
LINE
8
BLACK
6
CONTINUOUS
10
81.2696759999999898
20
-77.5095999999999918
11
81.3649139999999989
21
-77.4143609999999995
0
LINE
8
BLACK
6
CONTINUOUS
10
81.3649139999999989
20
-77.4143609999999995
11
81.4601519999999937
21
-77.2238849999999957
0
LINE
8
BLACK
6
CONTINUOUS
10
81.4601519999999937
20
-77.2238849999999957
11
81.4601519999999937
21
-76.8429330000000022
0
LINE
8
BLACK
6
CONTINUOUS
10
81.4601519999999937
20
-76.8429330000000022
11
81.3649139999999989
21
-76.6524569999999983
0
LINE
8
BLACK
6
CONTINUOUS
10
81.3649139999999989
20
-76.6524569999999983
11
81.2696759999999898
21
-76.5572190000000035
0
LINE
8
BLACK
6
CONTINUOUS
10
81.2696759999999898
20
-76.5572190000000035
11
81.0792000000000002
21
-76.4619799999999969
0
LINE
8
BLACK
6
CONTINUOUS
10
83.8411049999999989
20
-77.6048380000000009
11
83.8411049999999989
21
-75.6048380000000009
0
LINE
8
BLACK
6
CONTINUOUS
10
84.6982479999999924
20
-77.6048380000000009
11
84.6982479999999924
21
-76.5572190000000035
0
LINE
8
BLACK
6
CONTINUOUS
10
84.6982479999999924
20
-76.5572190000000035
11
84.6030099999999976
21
-76.3667420000000021
0
LINE
8
BLACK
6
CONTINUOUS
10
84.6030099999999976
20
-76.3667420000000021
11
84.4125339999999937
21
-76.2715039999999931
0
LINE
8
BLACK
6
CONTINUOUS
10
84.4125339999999937
20
-76.2715039999999931
11
84.1268189999999976
21
-76.2715039999999931
0
LINE
8
BLACK
6
CONTINUOUS
10
84.1268189999999976
20
-76.2715039999999931
11
83.9363429999999937
21
-76.3667420000000021
0
LINE
8
BLACK
6
CONTINUOUS
10
83.9363429999999937
20
-76.3667420000000021
11
83.8411049999999989
21
-76.4619799999999969
0
LINE
8
BLACK
6
CONTINUOUS
10
85.9363429999999937
20
-77.6048380000000009
11
85.7458669999999898
21
-77.5095999999999918
0
LINE
8
BLACK
6
CONTINUOUS
10
85.7458669999999898
20
-77.5095999999999918
11
85.650628999999995
21
-77.4143609999999995
0
LINE
8
BLACK
6
CONTINUOUS
10
85.650628999999995
20
-77.4143609999999995
11
85.5553910000000002
21
-77.2238849999999957
0
LINE
8
BLACK
6
CONTINUOUS
10
85.5553910000000002
20
-77.2238849999999957
11
85.5553910000000002
21
-76.6524569999999983
0
LINE
8
BLACK
6
CONTINUOUS
10
85.5553910000000002
20
-76.6524569999999983
11
85.650628999999995
21
-76.4619799999999969
0
LINE
8
BLACK
6
CONTINUOUS
10
85.650628999999995
20
-76.4619799999999969
11
85.7458669999999898
21
-76.3667420000000021
0
LINE
8
BLACK
6
CONTINUOUS
10
85.7458669999999898
20
-76.3667420000000021
11
85.9363429999999937
21
-76.2715039999999931
0
LINE
8
BLACK
6
CONTINUOUS
10
85.9363429999999937
20
-76.2715039999999931
11
86.2220579999999899
21
-76.2715039999999931
0
LINE
8
BLACK
6
CONTINUOUS
10
86.2220579999999899
20
-76.2715039999999931
11
86.4125339999999937
21
-76.3667420000000021
0
LINE
8
BLACK
6
CONTINUOUS
10
86.4125339999999937
20
-76.3667420000000021
11
86.5077720000000028
21
-76.4619799999999969
0
LINE
8
BLACK
6
CONTINUOUS
10
86.5077720000000028
20
-76.4619799999999969
11
86.6030099999999976
21
-76.6524569999999983
0
LINE
8
BLACK
6
CONTINUOUS
10
86.6030099999999976
20
-76.6524569999999983
11
86.6030099999999976
21
-77.2238849999999957
0
LINE
8
BLACK
6
CONTINUOUS
10
86.6030099999999976
20
-77.2238849999999957
11
86.5077720000000028
21
-77.4143609999999995
0
LINE
8
BLACK
6
CONTINUOUS
10
86.5077720000000028
20
-77.4143609999999995
11
86.4125339999999937
21
-77.5095999999999918
0
LINE
8
BLACK
6
CONTINUOUS
10
86.4125339999999937
20
-77.5095999999999918
11
86.2220579999999899
21
-77.6048380000000009
0
LINE
8
BLACK
6
CONTINUOUS
10
86.2220579999999899
20
-77.6048380000000009
11
85.9363429999999937
21
-77.6048380000000009
0
LINE
8
BLACK
6
CONTINUOUS
10
87.7458669999999898
20
-77.6048380000000009
11
87.5553910000000002
21
-77.5095999999999918
0
LINE
8
BLACK
6
CONTINUOUS
10
87.5553910000000002
20
-77.5095999999999918
11
87.4601529999999912
21
-77.3191229999999905
0
LINE
8
BLACK
6
CONTINUOUS
10
87.4601529999999912
20
-77.3191229999999905
11
87.4601529999999912
21
-75.6048380000000009
0
LINE
8
BLACK
6
CONTINUOUS
10
89.2696770000000015
20
-77.5095999999999918
11
89.0792009999999976
21
-77.6048380000000009
0
LINE
8
BLACK
6
CONTINUOUS
10
89.0792009999999976
20
-77.6048380000000009
11
88.6982479999999924
21
-77.6048380000000009
0
LINE
8
BLACK
6
CONTINUOUS
10
88.6982479999999924
20
-77.6048380000000009
11
88.5077720000000028
21
-77.5095999999999918
0
LINE
8
BLACK
6
CONTINUOUS
10
88.5077720000000028
20
-77.5095999999999918
11
88.4125339999999937
21
-77.3191229999999905
0
LINE
8
BLACK
6
CONTINUOUS
10
88.4125339999999937
20
-77.3191229999999905
11
88.4125339999999937
21
-76.5572190000000035
0
LINE
8
BLACK
6
CONTINUOUS
10
88.4125339999999937
20
-76.5572190000000035
11
88.5077720000000028
21
-76.3667420000000021
0
LINE
8
BLACK
6
CONTINUOUS
10
88.5077720000000028
20
-76.3667420000000021
11
88.6982479999999924
21
-76.2715039999999931
0
LINE
8
BLACK
6
CONTINUOUS
10
88.6982479999999924
20
-76.2715039999999931
11
89.0792009999999976
21
-76.2715039999999931
0
LINE
8
BLACK
6
CONTINUOUS
10
89.0792009999999976
20
-76.2715039999999931
11
89.2696770000000015
21
-76.3667420000000021
0
LINE
8
BLACK
6
CONTINUOUS
10
89.2696770000000015
20
-76.3667420000000021
11
89.3649149999999963
21
-76.5572190000000035
0
LINE
8
BLACK
6
CONTINUOUS
10
89.3649149999999963
20
-76.5572190000000035
11
89.3649149999999963
21
-76.7476949999999931
0
LINE
8
BLACK
6
CONTINUOUS
10
89.3649149999999963
20
-76.7476949999999931
11
88.4125339999999937
21
-76.938170999999997
0
LINE
8
BLACK
6
CONTINUOUS
10
90.126819999999995
20
-77.5095999999999918
11
90.3172959999999989
21
-77.6048380000000009
0
LINE
8
BLACK
6
CONTINUOUS
10
90.3172959999999989
20
-77.6048380000000009
11
90.6982479999999924
21
-77.6048380000000009
0
LINE
8
BLACK
6
CONTINUOUS
10
90.6982479999999924
20
-77.6048380000000009
11
90.8887249999999938
21
-77.5095999999999918
0
LINE
8
BLACK
6
CONTINUOUS
10
90.8887249999999938
20
-77.5095999999999918
11
90.9839630000000028
21
-77.3191229999999905
0
LINE
8
BLACK
6
CONTINUOUS
10
90.9839630000000028
20
-77.3191229999999905
11
90.9839630000000028
21
-77.2238849999999957
0
LINE
8
BLACK
6
CONTINUOUS
10
90.9839630000000028
20
-77.2238849999999957
11
90.8887249999999938
21
-77.0334089999999918
0
LINE
8
BLACK
6
CONTINUOUS
10
90.8887249999999938
20
-77.0334089999999918
11
90.6982479999999924
21
-76.938170999999997
0
LINE
8
BLACK
6
CONTINUOUS
10
90.6982479999999924
20
-76.938170999999997
11
90.4125339999999937
21
-76.938170999999997
0
LINE
8
BLACK
6
CONTINUOUS
10
90.4125339999999937
20
-76.938170999999997
11
90.2220579999999899
21
-76.8429330000000022
0
LINE
8
BLACK
6
CONTINUOUS
10
90.2220579999999899
20
-76.8429330000000022
11
90.126819999999995
21
-76.6524569999999983
0
LINE
8
BLACK
6
CONTINUOUS
10
90.126819999999995
20
-76.6524569999999983
11
90.126819999999995
21
-76.5572190000000035
0
LINE
8
BLACK
6
CONTINUOUS
10
90.126819999999995
20
-76.5572190000000035
11
90.2220579999999899
21
-76.3667420000000021
0
LINE
8
BLACK
6
CONTINUOUS
10
90.2220579999999899
20
-76.3667420000000021
11
90.4125339999999937
21
-76.2715039999999931
0
LINE
8
BLACK
6
CONTINUOUS
10
90.4125339999999937
20
-76.2715039999999931
11
90.6982479999999924
21
-76.2715039999999931
0
LINE
8
BLACK
6
CONTINUOUS
10
90.6982479999999924
20
-76.2715039999999931
11
90.8887249999999938
21
-76.3667420000000021
0
LINE
8
BLACK
6
CONTINUOUS
10
91.6506299999999925
20
-78.3667420000000021
11
91.7458680000000015
21
-78.2715039999999931
0
LINE
8
BLACK
6
CONTINUOUS
10
91.7458680000000015
20
-78.2715039999999931
11
91.9363439999999912
21
-77.9857899999999944
0
LINE
8
BLACK
6
CONTINUOUS
10
91.9363439999999912
20
-77.9857899999999944
11
92.0315820000000002
21
-77.7953139999999905
0
LINE
8
BLACK
6
CONTINUOUS
10
92.0315820000000002
20
-77.7953139999999905
11
92.126819999999995
21
-77.5095999999999918
0
LINE
8
BLACK
6
CONTINUOUS
10
92.126819999999995
20
-77.5095999999999918
11
92.2220579999999899
21
-77.0334089999999918
0
LINE
8
BLACK
6
CONTINUOUS
10
92.2220579999999899
20
-77.0334089999999918
11
92.2220579999999899
21
-76.6524569999999983
0
LINE
8
BLACK
6
CONTINUOUS
10
92.2220579999999899
20
-76.6524569999999983
11
92.126819999999995
21
-76.1762659999999983
0
LINE
8
BLACK
6
CONTINUOUS
10
92.126819999999995
20
-76.1762659999999983
11
92.0315820000000002
21
-75.8905519999999996
0
LINE
8
BLACK
6
CONTINUOUS
10
92.0315820000000002
20
-75.8905519999999996
11
91.9363439999999912
21
-75.7000759999999957
0
LINE
8
BLACK
6
CONTINUOUS
10
91.9363439999999912
20
-75.7000759999999957
11
91.7458680000000015
21
-75.4143609999999995
0
LINE
8
BLACK
6
CONTINUOUS
10
91.7458680000000015
20
-75.4143609999999995
11
91.6506299999999925
21
-75.3191229999999905
0
LINE
8
BLACK
6
CONTINUOUS
10
43.3999999999999986
20
-78.8299999999999983
11
43.3999999999999986
21
-79.8299999999999983
0
LINE
8
BLACK
6
CONTINUOUS
10
42.8999999999999986
20
-79.3299999999999983
11
43.8999999999999986
21
-79.3299999999999983
0
LINE
8
BLACK
6
CONTINUOUS
10
47.5553869999999961
20
-80.2448380000000014
11
46.4125299999999967
21
-80.2448380000000014
0
LINE
8
BLACK
6
CONTINUOUS
10
46.9839580000000012
20
-80.2448380000000014
11
46.9839580000000012
21
-78.2448380000000014
0
LINE
8
BLACK
6
CONTINUOUS
10
46.9839580000000012
20
-78.2448380000000014
11
46.7934819999999974
21
-78.5305520000000001
0
LINE
8
BLACK
6
CONTINUOUS
10
46.7934819999999974
20
-78.5305520000000001
11
46.6030060000000006
21
-78.7210279999999898
0
LINE
8
BLACK
6
CONTINUOUS
10
46.6030060000000006
20
-78.7210279999999898
11
46.4125299999999967
21
-78.8162659999999988
0
LINE
8
BLACK
6
CONTINUOUS
10
48.4125299999999967
20
-80.0543610000000001
11
48.5077679999999987
21
-80.1495999999999924
0
LINE
8
BLACK
6
CONTINUOUS
10
48.5077679999999987
20
-80.1495999999999924
11
48.4125299999999967
21
-80.2448380000000014
0
LINE
8
BLACK
6
CONTINUOUS
10
48.4125299999999967
20
-80.2448380000000014
11
48.3172919999999948
21
-80.1495999999999924
0
LINE
8
BLACK
6
CONTINUOUS
10
48.3172919999999948
20
-80.1495999999999924
11
48.4125299999999967
21
-80.0543610000000001
0
LINE
8
BLACK
6
CONTINUOUS
10
48.4125299999999967
20
-80.0543610000000001
11
48.4125299999999967
21
-80.2448380000000014
0
LINE
8
BLACK
6
CONTINUOUS
10
49.7458629999999999
20
-78.2448380000000014
11
49.9363400000000013
21
-78.2448380000000014
0
LINE
8
BLACK
6
CONTINUOUS
10
49.9363400000000013
20
-78.2448380000000014
11
50.126815999999998
21
-78.3400759999999963
0
LINE
8
BLACK
6
CONTINUOUS
10
50.126815999999998
20
-78.3400759999999963
11
50.222054
21
-78.4353139999999911
0
LINE
8
BLACK
6
CONTINUOUS
10
50.222054
20
-78.4353139999999911
11
50.3172919999999948
21
-78.625789999999995
0
LINE
8
BLACK
6
CONTINUOUS
10
50.3172919999999948
20
-78.625789999999995
11
50.4125299999999967
21
-79.0067420000000027
0
LINE
8
BLACK
6
CONTINUOUS
10
50.4125299999999967
20
-79.0067420000000027
11
50.4125299999999967
21
-79.4829330000000027
0
LINE
8
BLACK
6
CONTINUOUS
10
50.4125299999999967
20
-79.4829330000000027
11
50.3172919999999948
21
-79.8638849999999962
0
LINE
8
BLACK
6
CONTINUOUS
10
50.3172919999999948
20
-79.8638849999999962
11
50.222054
21
-80.0543610000000001
0
LINE
8
BLACK
6
CONTINUOUS
10
50.222054
20
-80.0543610000000001
11
50.126815999999998
21
-80.1495999999999924
0
LINE
8
BLACK
6
CONTINUOUS
10
50.126815999999998
20
-80.1495999999999924
11
49.9363400000000013
21
-80.2448380000000014
0
LINE
8
BLACK
6
CONTINUOUS
10
49.9363400000000013
20
-80.2448380000000014
11
49.7458629999999999
21
-80.2448380000000014
0
LINE
8
BLACK
6
CONTINUOUS
10
49.7458629999999999
20
-80.2448380000000014
11
49.5553869999999961
21
-80.1495999999999924
0
LINE
8
BLACK
6
CONTINUOUS
10
49.5553869999999961
20
-80.1495999999999924
11
49.4601490000000013
21
-80.0543610000000001
0
LINE
8
BLACK
6
CONTINUOUS
10
49.4601490000000013
20
-80.0543610000000001
11
49.3649109999999993
21
-79.8638849999999962
0
LINE
8
BLACK
6
CONTINUOUS
10
49.3649109999999993
20
-79.8638849999999962
11
49.2696729999999974
21
-79.4829330000000027
0
LINE
8
BLACK
6
CONTINUOUS
10
49.2696729999999974
20
-79.4829330000000027
11
49.2696729999999974
21
-79.0067420000000027
0
LINE
8
BLACK
6
CONTINUOUS
10
49.2696729999999974
20
-79.0067420000000027
11
49.3649109999999993
21
-78.625789999999995
0
LINE
8
BLACK
6
CONTINUOUS
10
49.3649109999999993
20
-78.625789999999995
11
49.4601490000000013
21
-78.4353139999999911
0
LINE
8
BLACK
6
CONTINUOUS
10
49.4601490000000013
20
-78.4353139999999911
11
49.5553869999999961
21
-78.3400759999999963
0
LINE
8
BLACK
6
CONTINUOUS
10
49.5553869999999961
20
-78.3400759999999963
11
49.7458629999999999
21
-78.2448380000000014
0
LINE
8
BLACK
6
CONTINUOUS
10
51.650624999999998
20
-78.2448380000000014
11
51.8411019999999994
21
-78.2448380000000014
0
LINE
8
BLACK
6
CONTINUOUS
10
51.8411019999999994
20
-78.2448380000000014
11
52.0315779999999961
21
-78.3400759999999963
0
LINE
8
BLACK
6
CONTINUOUS
10
52.0315779999999961
20
-78.3400759999999963
11
52.126815999999998
21
-78.4353139999999911
0
LINE
8
BLACK
6
CONTINUOUS
10
52.126815999999998
20
-78.4353139999999911
11
52.222054
21
-78.625789999999995
0
LINE
8
BLACK
6
CONTINUOUS
10
52.222054
20
-78.625789999999995
11
52.3172919999999948
21
-79.0067420000000027
0
LINE
8
BLACK
6
CONTINUOUS
10
52.3172919999999948
20
-79.0067420000000027
11
52.3172919999999948
21
-79.4829330000000027
0
LINE
8
BLACK
6
CONTINUOUS
10
52.3172919999999948
20
-79.4829330000000027
11
52.222054
21
-79.8638849999999962
0
LINE
8
BLACK
6
CONTINUOUS
10
52.222054
20
-79.8638849999999962
11
52.126815999999998
21
-80.0543610000000001
0
LINE
8
BLACK
6
CONTINUOUS
10
52.126815999999998
20
-80.0543610000000001
11
52.0315779999999961
21
-80.1495999999999924
0
LINE
8
BLACK
6
CONTINUOUS
10
52.0315779999999961
20
-80.1495999999999924
11
51.8411019999999994
21
-80.2448380000000014
0
LINE
8
BLACK
6
CONTINUOUS
10
51.8411019999999994
20
-80.2448380000000014
11
51.650624999999998
21
-80.2448380000000014
0
LINE
8
BLACK
6
CONTINUOUS
10
51.650624999999998
20
-80.2448380000000014
11
51.4601489999999941
21
-80.1495999999999924
0
LINE
8
BLACK
6
CONTINUOUS
10
51.4601489999999941
20
-80.1495999999999924
11
51.3649109999999993
21
-80.0543610000000001
0
LINE
8
BLACK
6
CONTINUOUS
10
51.3649109999999993
20
-80.0543610000000001
11
51.2696729999999974
21
-79.8638849999999962
0
LINE
8
BLACK
6
CONTINUOUS
10
51.2696729999999974
20
-79.8638849999999962
11
51.1744349999999955
21
-79.4829330000000027
0
LINE
8
BLACK
6
CONTINUOUS
10
51.1744349999999955
20
-79.4829330000000027
11
51.1744349999999955
21
-79.0067420000000027
0
LINE
8
BLACK
6
CONTINUOUS
10
51.1744349999999955
20
-79.0067420000000027
11
51.2696729999999974
21
-78.625789999999995
0
LINE
8
BLACK
6
CONTINUOUS
10
51.2696729999999974
20
-78.625789999999995
11
51.3649109999999993
21
-78.4353139999999911
0
LINE
8
BLACK
6
CONTINUOUS
10
51.3649109999999993
20
-78.4353139999999911
11
51.4601489999999941
21
-78.3400759999999963
0
LINE
8
BLACK
6
CONTINUOUS
10
51.4601489999999941
20
-78.3400759999999963
11
51.650624999999998
21
-78.2448380000000014
0
LINE
8
BLACK
6
CONTINUOUS
10
53.5553869999999961
20
-78.2448380000000014
11
53.7458639999999974
21
-78.2448380000000014
0
LINE
8
BLACK
6
CONTINUOUS
10
53.7458639999999974
20
-78.2448380000000014
11
53.9363399999999942
21
-78.3400759999999963
0
LINE
8
BLACK
6
CONTINUOUS
10
53.9363399999999942
20
-78.3400759999999963
11
54.0315779999999961
21
-78.4353139999999911
0
LINE
8
BLACK
6
CONTINUOUS
10
54.0315779999999961
20
-78.4353139999999911
11
54.126815999999998
21
-78.625789999999995
0
LINE
8
BLACK
6
CONTINUOUS
10
54.126815999999998
20
-78.625789999999995
11
54.222054
21
-79.0067420000000027
0
LINE
8
BLACK
6
CONTINUOUS
10
54.222054
20
-79.0067420000000027
11
54.222054
21
-79.4829330000000027
0
LINE
8
BLACK
6
CONTINUOUS
10
54.222054
20
-79.4829330000000027
11
54.126815999999998
21
-79.8638849999999962
0
LINE
8
BLACK
6
CONTINUOUS
10
54.126815999999998
20
-79.8638849999999962
11
54.0315779999999961
21
-80.0543610000000001
0
LINE
8
BLACK
6
CONTINUOUS
10
54.0315779999999961
20
-80.0543610000000001
11
53.9363399999999942
21
-80.1495999999999924
0
LINE
8
BLACK
6
CONTINUOUS
10
53.9363399999999942
20
-80.1495999999999924
11
53.7458639999999974
21
-80.2448380000000014
0
LINE
8
BLACK
6
CONTINUOUS
10
53.7458639999999974
20
-80.2448380000000014
11
53.5553869999999961
21
-80.2448380000000014
0
LINE
8
BLACK
6
CONTINUOUS
10
53.5553869999999961
20
-80.2448380000000014
11
53.3649109999999993
21
-80.1495999999999924
0
LINE
8
BLACK
6
CONTINUOUS
10
53.3649109999999993
20
-80.1495999999999924
11
53.2696729999999974
21
-80.0543610000000001
0
LINE
8
BLACK
6
CONTINUOUS
10
53.2696729999999974
20
-80.0543610000000001
11
53.1744349999999955
21
-79.8638849999999962
0
LINE
8
BLACK
6
CONTINUOUS
10
53.1744349999999955
20
-79.8638849999999962
11
53.0791970000000006
21
-79.4829330000000027
0
LINE
8
BLACK
6
CONTINUOUS
10
53.0791970000000006
20
-79.4829330000000027
11
53.0791970000000006
21
-79.0067420000000027
0
LINE
8
BLACK
6
CONTINUOUS
10
53.0791970000000006
20
-79.0067420000000027
11
53.1744349999999955
21
-78.625789999999995
0
LINE
8
BLACK
6
CONTINUOUS
10
53.1744349999999955
20
-78.625789999999995
11
53.2696729999999974
21
-78.4353139999999911
0
LINE
8
BLACK
6
CONTINUOUS
10
53.2696729999999974
20
-78.4353139999999911
11
53.3649109999999993
21
-78.3400759999999963
0
LINE
8
BLACK
6
CONTINUOUS
10
53.3649109999999993
20
-78.3400759999999963
11
53.5553869999999961
21
-78.2448380000000014
0
LINE
8
BLACK
6
CONTINUOUS
10
55.0791970000000006
20
-80.2448380000000014
11
55.0791970000000006
21
-78.9115039999999937
0
LINE
8
BLACK
6
CONTINUOUS
10
55.0791970000000006
20
-79.1019799999999975
11
55.1744349999999955
21
-79.0067420000000027
0
LINE
8
BLACK
6
CONTINUOUS
10
55.1744349999999955
20
-79.0067420000000027
11
55.3649109999999993
21
-78.9115039999999937
0
LINE
8
BLACK
6
CONTINUOUS
10
55.3649109999999993
20
-78.9115039999999937
11
55.6506259999999955
21
-78.9115039999999937
0
LINE
8
BLACK
6
CONTINUOUS
10
55.6506259999999955
20
-78.9115039999999937
11
55.8411019999999994
21
-79.0067420000000027
0
LINE
8
BLACK
6
CONTINUOUS
10
55.8411019999999994
20
-79.0067420000000027
11
55.9363399999999942
21
-79.1972189999999898
0
LINE
8
BLACK
6
CONTINUOUS
10
55.9363399999999942
20
-79.1972189999999898
11
55.9363399999999942
21
-80.2448380000000014
0
LINE
8
BLACK
6
CONTINUOUS
10
55.9363399999999942
20
-79.1972189999999898
11
56.0315779999999961
21
-79.0067420000000027
0
LINE
8
BLACK
6
CONTINUOUS
10
56.0315779999999961
20
-79.0067420000000027
11
56.222054
21
-78.9115039999999937
0
LINE
8
BLACK
6
CONTINUOUS
10
56.222054
20
-78.9115039999999937
11
56.5077679999999987
21
-78.9115039999999937
0
LINE
8
BLACK
6
CONTINUOUS
10
56.5077679999999987
20
-78.9115039999999937
11
56.698245
21
-79.0067420000000027
0
LINE
8
BLACK
6
CONTINUOUS
10
56.698245
20
-79.0067420000000027
11
56.7934829999999948
21
-79.1972189999999898
0
LINE
8
BLACK
6
CONTINUOUS
10
56.7934829999999948
20
-79.1972189999999898
11
56.7934829999999948
21
-80.2448380000000014
0
LINE
8
BLACK
6
CONTINUOUS
10
57.7458639999999974
20
-80.2448380000000014
11
57.7458639999999974
21
-78.9115039999999937
0
LINE
8
BLACK
6
CONTINUOUS
10
57.7458639999999974
20
-79.1019799999999975
11
57.8411019999999994
21
-79.0067420000000027
0
LINE
8
BLACK
6
CONTINUOUS
10
57.8411019999999994
20
-79.0067420000000027
11
58.0315779999999961
21
-78.9115039999999937
0
LINE
8
BLACK
6
CONTINUOUS
10
58.0315779999999961
20
-78.9115039999999937
11
58.3172929999999994
21
-78.9115039999999937
0
LINE
8
BLACK
6
CONTINUOUS
10
58.3172929999999994
20
-78.9115039999999937
11
58.5077689999999961
21
-79.0067420000000027
0
LINE
8
BLACK
6
CONTINUOUS
10
58.5077689999999961
20
-79.0067420000000027
11
58.6030069999999981
21
-79.1972189999999898
0
LINE
8
BLACK
6
CONTINUOUS
10
58.6030069999999981
20
-79.1972189999999898
11
58.6030069999999981
21
-80.2448380000000014
0
LINE
8
BLACK
6
CONTINUOUS
10
58.6030069999999981
20
-79.1972189999999898
11
58.698245
21
-79.0067420000000027
0
LINE
8
BLACK
6
CONTINUOUS
10
58.698245
20
-79.0067420000000027
11
58.8887209999999968
21
-78.9115039999999937
0
LINE
8
BLACK
6
CONTINUOUS
10
58.8887209999999968
20
-78.9115039999999937
11
59.1744349999999955
21
-78.9115039999999937
0
LINE
8
BLACK
6
CONTINUOUS
10
59.1744349999999955
20
-78.9115039999999937
11
59.3649119999999968
21
-79.0067420000000027
0
LINE
8
BLACK
6
CONTINUOUS
10
59.3649119999999968
20
-79.0067420000000027
11
59.4601499999999987
21
-79.1972189999999898
0
LINE
8
BLACK
6
CONTINUOUS
10
59.4601499999999987
20
-79.1972189999999898
11
59.4601499999999987
21
-80.2448380000000014
0
LINE
8
BLACK
6
CONTINUOUS
10
63.3649119999999968
20
-78.1495999999999924
11
61.6506270000000001
21
-80.7210279999999898
0
LINE
8
BLACK
6
CONTINUOUS
10
65.9363409999999988
20
-78.2448380000000014
11
66.1268180000000001
21
-78.2448380000000014
0
LINE
8
BLACK
6
CONTINUOUS
10
66.1268180000000001
20
-78.2448380000000014
11
66.317294000000004
21
-78.3400759999999963
0
LINE
8
BLACK
6
CONTINUOUS
10
66.317294000000004
20
-78.3400759999999963
11
66.4125319999999988
21
-78.4353139999999911
0
LINE
8
BLACK
6
CONTINUOUS
10
66.4125319999999988
20
-78.4353139999999911
11
66.5077699999999936
21
-78.625789999999995
0
LINE
8
BLACK
6
CONTINUOUS
10
66.5077699999999936
20
-78.625789999999995
11
66.6030080000000027
21
-79.0067420000000027
0
LINE
8
BLACK
6
CONTINUOUS
10
66.6030080000000027
20
-79.0067420000000027
11
66.6030080000000027
21
-79.4829330000000027
0
LINE
8
BLACK
6
CONTINUOUS
10
66.6030080000000027
20
-79.4829330000000027
11
66.5077699999999936
21
-79.8638849999999962
0
LINE
8
BLACK
6
CONTINUOUS
10
66.5077699999999936
20
-79.8638849999999962
11
66.4125319999999988
21
-80.0543610000000001
0
LINE
8
BLACK
6
CONTINUOUS
10
66.4125319999999988
20
-80.0543610000000001
11
66.317294000000004
21
-80.1495999999999924
0
LINE
8
BLACK
6
CONTINUOUS
10
66.317294000000004
20
-80.1495999999999924
11
66.1268180000000001
21
-80.2448380000000014
0
LINE
8
BLACK
6
CONTINUOUS
10
66.1268180000000001
20
-80.2448380000000014
11
65.9363409999999988
21
-80.2448380000000014
0
LINE
8
BLACK
6
CONTINUOUS
10
65.9363409999999988
20
-80.2448380000000014
11
65.7458649999999949
21
-80.1495999999999924
0
LINE
8
BLACK
6
CONTINUOUS
10
65.7458649999999949
20
-80.1495999999999924
11
65.6506270000000001
21
-80.0543610000000001
0
LINE
8
BLACK
6
CONTINUOUS
10
65.6506270000000001
20
-80.0543610000000001
11
65.555388999999991
21
-79.8638849999999962
0
LINE
8
BLACK
6
CONTINUOUS
10
65.555388999999991
20
-79.8638849999999962
11
65.4601509999999962
21
-79.4829330000000027
0
LINE
8
BLACK
6
CONTINUOUS
10
65.4601509999999962
20
-79.4829330000000027
11
65.4601509999999962
21
-79.0067420000000027
0
LINE
8
BLACK
6
CONTINUOUS
10
65.4601509999999962
20
-79.0067420000000027
11
65.555388999999991
21
-78.625789999999995
0
LINE
8
BLACK
6
CONTINUOUS
10
65.555388999999991
20
-78.625789999999995
11
65.6506270000000001
21
-78.4353139999999911
0
LINE
8
BLACK
6
CONTINUOUS
10
65.6506270000000001
20
-78.4353139999999911
11
65.7458649999999949
21
-78.3400759999999963
0
LINE
8
BLACK
6
CONTINUOUS
10
65.7458649999999949
20
-78.3400759999999963
11
65.9363409999999988
21
-78.2448380000000014
0
LINE
8
BLACK
6
CONTINUOUS
10
67.4601509999999962
20
-80.0543610000000001
11
67.555388999999991
21
-80.1495999999999924
0
LINE
8
BLACK
6
CONTINUOUS
10
67.555388999999991
20
-80.1495999999999924
11
67.4601509999999962
21
-80.2448380000000014
0
LINE
8
BLACK
6
CONTINUOUS
10
67.4601509999999962
20
-80.2448380000000014
11
67.3649130000000014
21
-80.1495999999999924
0
LINE
8
BLACK
6
CONTINUOUS
10
67.3649130000000014
20
-80.1495999999999924
11
67.4601509999999962
21
-80.0543610000000001
0
LINE
8
BLACK
6
CONTINUOUS
10
67.4601509999999962
20
-80.0543610000000001
11
67.4601509999999962
21
-80.2448380000000014
0
LINE
8
BLACK
6
CONTINUOUS
10
68.7934839999999923
20
-78.2448380000000014
11
68.9839609999999936
21
-78.2448380000000014
0
LINE
8
BLACK
6
CONTINUOUS
10
68.9839609999999936
20
-78.2448380000000014
11
69.1744369999999975
21
-78.3400759999999963
0
LINE
8
BLACK
6
CONTINUOUS
10
69.1744369999999975
20
-78.3400759999999963
11
69.2696749999999923
21
-78.4353139999999911
0
LINE
8
BLACK
6
CONTINUOUS
10
69.2696749999999923
20
-78.4353139999999911
11
69.3649130000000014
21
-78.625789999999995
0
LINE
8
BLACK
6
CONTINUOUS
10
69.3649130000000014
20
-78.625789999999995
11
69.4601509999999962
21
-79.0067420000000027
0
LINE
8
BLACK
6
CONTINUOUS
10
69.4601509999999962
20
-79.0067420000000027
11
69.4601509999999962
21
-79.4829330000000027
0
LINE
8
BLACK
6
CONTINUOUS
10
69.4601509999999962
20
-79.4829330000000027
11
69.3649130000000014
21
-79.8638849999999962
0
LINE
8
BLACK
6
CONTINUOUS
10
69.3649130000000014
20
-79.8638849999999962
11
69.2696749999999923
21
-80.0543610000000001
0
LINE
8
BLACK
6
CONTINUOUS
10
69.2696749999999923
20
-80.0543610000000001
11
69.1744369999999975
21
-80.1495999999999924
0
LINE
8
BLACK
6
CONTINUOUS
10
69.1744369999999975
20
-80.1495999999999924
11
68.9839609999999936
21
-80.2448380000000014
0
LINE
8
BLACK
6
CONTINUOUS
10
68.9839609999999936
20
-80.2448380000000014
11
68.7934839999999923
21
-80.2448380000000014
0
LINE
8
BLACK
6
CONTINUOUS
10
68.7934839999999923
20
-80.2448380000000014
11
68.6030080000000027
21
-80.1495999999999924
0
LINE
8
BLACK
6
CONTINUOUS
10
68.6030080000000027
20
-80.1495999999999924
11
68.5077699999999936
21
-80.0543610000000001
0
LINE
8
BLACK
6
CONTINUOUS
10
68.5077699999999936
20
-80.0543610000000001
11
68.4125319999999988
21
-79.8638849999999962
0
LINE
8
BLACK
6
CONTINUOUS
10
68.4125319999999988
20
-79.8638849999999962
11
68.317294000000004
21
-79.4829330000000027
0
LINE
8
BLACK
6
CONTINUOUS
10
68.317294000000004
20
-79.4829330000000027
11
68.317294000000004
21
-79.0067420000000027
0
LINE
8
BLACK
6
CONTINUOUS
10
68.317294000000004
20
-79.0067420000000027
11
68.4125319999999988
21
-78.625789999999995
0
LINE
8
BLACK
6
CONTINUOUS
10
68.4125319999999988
20
-78.625789999999995
11
68.5077699999999936
21
-78.4353139999999911
0
LINE
8
BLACK
6
CONTINUOUS
10
68.5077699999999936
20
-78.4353139999999911
11
68.6030080000000027
21
-78.3400759999999963
0
LINE
8
BLACK
6
CONTINUOUS
10
68.6030080000000027
20
-78.3400759999999963
11
68.7934839999999923
21
-78.2448380000000014
0
LINE
8
BLACK
6
CONTINUOUS
10
70.1268180000000001
20
-78.2448380000000014
11
71.3649130000000014
21
-78.2448380000000014
0
LINE
8
BLACK
6
CONTINUOUS
10
71.3649130000000014
20
-78.2448380000000014
11
70.6982459999999975
21
-79.0067420000000027
0
LINE
8
BLACK
6
CONTINUOUS
10
70.6982459999999975
20
-79.0067420000000027
11
70.9839609999999936
21
-79.0067420000000027
0
LINE
8
BLACK
6
CONTINUOUS
10
70.9839609999999936
20
-79.0067420000000027
11
71.1744369999999975
21
-79.1019799999999975
0
LINE
8
BLACK
6
CONTINUOUS
10
71.1744369999999975
20
-79.1019799999999975
11
71.2696749999999923
21
-79.1972189999999898
0
LINE
8
BLACK
6
CONTINUOUS
10
71.2696749999999923
20
-79.1972189999999898
11
71.3649130000000014
21
-79.3876949999999937
0
LINE
8
BLACK
6
CONTINUOUS
10
71.3649130000000014
20
-79.3876949999999937
11
71.3649130000000014
21
-79.8638849999999962
0
LINE
8
BLACK
6
CONTINUOUS
10
71.3649130000000014
20
-79.8638849999999962
11
71.2696749999999923
21
-80.0543610000000001
0
LINE
8
BLACK
6
CONTINUOUS
10
71.2696749999999923
20
-80.0543610000000001
11
71.1744369999999975
21
-80.1495999999999924
0
LINE
8
BLACK
6
CONTINUOUS
10
71.1744369999999975
20
-80.1495999999999924
11
70.9839609999999936
21
-80.2448380000000014
0
LINE
8
BLACK
6
CONTINUOUS
10
70.9839609999999936
20
-80.2448380000000014
11
70.4125319999999988
21
-80.2448380000000014
0
LINE
8
BLACK
6
CONTINUOUS
10
70.4125319999999988
20
-80.2448380000000014
11
70.2220559999999949
21
-80.1495999999999924
0
LINE
8
BLACK
6
CONTINUOUS
10
70.2220559999999949
20
-80.1495999999999924
11
70.1268180000000001
21
-80.0543610000000001
0
LINE
8
BLACK
6
CONTINUOUS
10
72.3172939999999898
20
-80.2448380000000014
11
72.6982459999999975
21
-80.2448380000000014
0
LINE
8
BLACK
6
CONTINUOUS
10
72.6982459999999975
20
-80.2448380000000014
11
72.8887229999999988
21
-80.1495999999999924
0
LINE
8
BLACK
6
CONTINUOUS
10
72.8887229999999988
20
-80.1495999999999924
11
72.9839609999999936
21
-80.0543610000000001
0
LINE
8
BLACK
6
CONTINUOUS
10
72.9839609999999936
20
-80.0543610000000001
11
73.1744369999999975
21
-79.7686470000000014
0
LINE
8
BLACK
6
CONTINUOUS
10
73.1744369999999975
20
-79.7686470000000014
11
73.2696749999999923
21
-79.3876949999999937
0
LINE
8
BLACK
6
CONTINUOUS
10
73.2696749999999923
20
-79.3876949999999937
11
73.2696749999999923
21
-78.625789999999995
0
LINE
8
BLACK
6
CONTINUOUS
10
73.2696749999999923
20
-78.625789999999995
11
73.1744369999999975
21
-78.4353139999999911
0
LINE
8
BLACK
6
CONTINUOUS
10
73.1744369999999975
20
-78.4353139999999911
11
73.0791990000000027
21
-78.3400759999999963
0
LINE
8
BLACK
6
CONTINUOUS
10
73.0791990000000027
20
-78.3400759999999963
11
72.8887229999999988
21
-78.2448380000000014
0
LINE
8
BLACK
6
CONTINUOUS
10
72.8887229999999988
20
-78.2448380000000014
11
72.5077699999999936
21
-78.2448380000000014
0
LINE
8
BLACK
6
CONTINUOUS
10
72.5077699999999936
20
-78.2448380000000014
11
72.3172939999999898
21
-78.3400759999999963
0
LINE
8
BLACK
6
CONTINUOUS
10
72.3172939999999898
20
-78.3400759999999963
11
72.2220559999999949
21
-78.4353139999999911
0
LINE
8
BLACK
6
CONTINUOUS
10
72.2220559999999949
20
-78.4353139999999911
11
72.1268180000000001
21
-78.625789999999995
0
LINE
8
BLACK
6
CONTINUOUS
10
72.1268180000000001
20
-78.625789999999995
11
72.1268180000000001
21
-79.1019799999999975
0
LINE
8
BLACK
6
CONTINUOUS
10
72.1268180000000001
20
-79.1019799999999975
11
72.2220559999999949
21
-79.2924569999999989
0
LINE
8
BLACK
6
CONTINUOUS
10
72.2220559999999949
20
-79.2924569999999989
11
72.3172939999999898
21
-79.3876949999999937
0
LINE
8
BLACK
6
CONTINUOUS
10
72.3172939999999898
20
-79.3876949999999937
11
72.5077699999999936
21
-79.4829330000000027
0
LINE
8
BLACK
6
CONTINUOUS
10
72.5077699999999936
20
-79.4829330000000027
11
72.8887229999999988
21
-79.4829330000000027
0
LINE
8
BLACK
6
CONTINUOUS
10
72.8887229999999988
20
-79.4829330000000027
11
73.0791990000000027
21
-79.3876949999999937
0
LINE
8
BLACK
6
CONTINUOUS
10
73.0791990000000027
20
-79.3876949999999937
11
73.1744369999999975
21
-79.2924569999999989
0
LINE
8
BLACK
6
CONTINUOUS
10
73.1744369999999975
20
-79.2924569999999989
11
73.2696749999999923
21
-79.1019799999999975
0
LINE
8
BLACK
6
CONTINUOUS
10
74.9839609999999936
20
-78.9115039999999937
11
74.9839609999999936
21
-80.2448380000000014
0
LINE
8
BLACK
6
CONTINUOUS
10
74.5077699999999936
20
-78.1495999999999924
11
74.0315799999999911
21
-79.5781709999999975
0
LINE
8
BLACK
6
CONTINUOUS
10
74.0315799999999911
20
-79.5781709999999975
11
75.2696749999999923
21
-79.5781709999999975
0
LINE
8
BLACK
6
CONTINUOUS
10
75.9363419999999962
20
-78.2448380000000014
11
75.9363419999999962
21
-78.625789999999995
0
LINE
8
BLACK
6
CONTINUOUS
10
76.698246999999995
20
-78.2448380000000014
11
76.698246999999995
21
-78.625789999999995
0
LINE
8
BLACK
6
CONTINUOUS
10
79.650628999999995
20
-81.0067420000000027
11
79.5553900000000027
21
-80.9115039999999937
0
LINE
8
BLACK
6
CONTINUOUS
10
79.5553900000000027
20
-80.9115039999999937
11
79.3649139999999989
21
-80.625789999999995
0
LINE
8
BLACK
6
CONTINUOUS
10
79.3649139999999989
20
-80.625789999999995
11
79.2696759999999898
21
-80.4353139999999911
0
LINE
8
BLACK
6
CONTINUOUS
10
79.2696759999999898
20
-80.4353139999999911
11
79.174437999999995
21
-80.1495999999999924
0
LINE
8
BLACK
6
CONTINUOUS
10
79.174437999999995
20
-80.1495999999999924
11
79.0792000000000002
21
-79.6734089999999924
0
LINE
8
BLACK
6
CONTINUOUS
10
79.0792000000000002
20
-79.6734089999999924
11
79.0792000000000002
21
-79.2924569999999989
0
LINE
8
BLACK
6
CONTINUOUS
10
79.0792000000000002
20
-79.2924569999999989
11
79.174437999999995
21
-78.8162659999999988
0
LINE
8
BLACK
6
CONTINUOUS
10
79.174437999999995
20
-78.8162659999999988
11
79.2696759999999898
21
-78.5305520000000001
0
LINE
8
BLACK
6
CONTINUOUS
10
79.2696759999999898
20
-78.5305520000000001
11
79.3649139999999989
21
-78.3400759999999963
0
LINE
8
BLACK
6
CONTINUOUS
10
79.3649139999999989
20
-78.3400759999999963
11
79.5553900000000027
21
-78.0543610000000001
0
LINE
8
BLACK
6
CONTINUOUS
10
79.5553900000000027
20
-78.0543610000000001
11
79.650628999999995
21
-77.9591229999999911
0
LINE
8
BLACK
6
CONTINUOUS
10
80.3172950000000014
20
-78.4353139999999911
11
80.4125329999999963
21
-78.3400759999999963
0
LINE
8
BLACK
6
CONTINUOUS
10
80.4125329999999963
20
-78.3400759999999963
11
80.6030090000000001
21
-78.2448380000000014
0
LINE
8
BLACK
6
CONTINUOUS
10
80.6030090000000001
20
-78.2448380000000014
11
81.0792000000000002
21
-78.2448380000000014
0
LINE
8
BLACK
6
CONTINUOUS
10
81.0792000000000002
20
-78.2448380000000014
11
81.2696759999999898
21
-78.3400759999999963
0
LINE
8
BLACK
6
CONTINUOUS
10
81.2696759999999898
20
-78.3400759999999963
11
81.3649139999999989
21
-78.4353139999999911
0
LINE
8
BLACK
6
CONTINUOUS
10
81.3649139999999989
20
-78.4353139999999911
11
81.4601519999999937
21
-78.625789999999995
0
LINE
8
BLACK
6
CONTINUOUS
10
81.4601519999999937
20
-78.625789999999995
11
81.4601519999999937
21
-78.8162659999999988
0
LINE
8
BLACK
6
CONTINUOUS
10
81.4601519999999937
20
-78.8162659999999988
11
81.3649139999999989
21
-79.1019799999999975
0
LINE
8
BLACK
6
CONTINUOUS
10
81.3649139999999989
20
-79.1019799999999975
11
80.2220569999999924
21
-80.2448380000000014
0
LINE
8
BLACK
6
CONTINUOUS
10
80.2220569999999924
20
-80.2448380000000014
11
81.4601519999999937
21
-80.2448380000000014
0
LINE
8
BLACK
6
CONTINUOUS
10
83.8411049999999989
20
-80.2448380000000014
11
83.8411049999999989
21
-78.2448380000000014
0
LINE
8
BLACK
6
CONTINUOUS
10
84.6982479999999924
20
-80.2448380000000014
11
84.6982479999999924
21
-79.1972189999999898
0
LINE
8
BLACK
6
CONTINUOUS
10
84.6982479999999924
20
-79.1972189999999898
11
84.6030099999999976
21
-79.0067420000000027
0
LINE
8
BLACK
6
CONTINUOUS
10
84.6030099999999976
20
-79.0067420000000027
11
84.4125339999999937
21
-78.9115039999999937
0
LINE
8
BLACK
6
CONTINUOUS
10
84.4125339999999937
20
-78.9115039999999937
11
84.1268189999999976
21
-78.9115039999999937
0
LINE
8
BLACK
6
CONTINUOUS
10
84.1268189999999976
20
-78.9115039999999937
11
83.9363429999999937
21
-79.0067420000000027
0
LINE
8
BLACK
6
CONTINUOUS
10
83.9363429999999937
20
-79.0067420000000027
11
83.8411049999999989
21
-79.1019799999999975
0
LINE
8
BLACK
6
CONTINUOUS
10
85.9363429999999937
20
-80.2448380000000014
11
85.7458669999999898
21
-80.1495999999999924
0
LINE
8
BLACK
6
CONTINUOUS
10
85.7458669999999898
20
-80.1495999999999924
11
85.650628999999995
21
-80.0543610000000001
0
LINE
8
BLACK
6
CONTINUOUS
10
85.650628999999995
20
-80.0543610000000001
11
85.5553910000000002
21
-79.8638849999999962
0
LINE
8
BLACK
6
CONTINUOUS
10
85.5553910000000002
20
-79.8638849999999962
11
85.5553910000000002
21
-79.2924569999999989
0
LINE
8
BLACK
6
CONTINUOUS
10
85.5553910000000002
20
-79.2924569999999989
11
85.650628999999995
21
-79.1019799999999975
0
LINE
8
BLACK
6
CONTINUOUS
10
85.650628999999995
20
-79.1019799999999975
11
85.7458669999999898
21
-79.0067420000000027
0
LINE
8
BLACK
6
CONTINUOUS
10
85.7458669999999898
20
-79.0067420000000027
11
85.9363429999999937
21
-78.9115039999999937
0
LINE
8
BLACK
6
CONTINUOUS
10
85.9363429999999937
20
-78.9115039999999937
11
86.2220579999999899
21
-78.9115039999999937
0
LINE
8
BLACK
6
CONTINUOUS
10
86.2220579999999899
20
-78.9115039999999937
11
86.4125339999999937
21
-79.0067420000000027
0
LINE
8
BLACK
6
CONTINUOUS
10
86.4125339999999937
20
-79.0067420000000027
11
86.5077720000000028
21
-79.1019799999999975
0
LINE
8
BLACK
6
CONTINUOUS
10
86.5077720000000028
20
-79.1019799999999975
11
86.6030099999999976
21
-79.2924569999999989
0
LINE
8
BLACK
6
CONTINUOUS
10
86.6030099999999976
20
-79.2924569999999989
11
86.6030099999999976
21
-79.8638849999999962
0
LINE
8
BLACK
6
CONTINUOUS
10
86.6030099999999976
20
-79.8638849999999962
11
86.5077720000000028
21
-80.0543610000000001
0
LINE
8
BLACK
6
CONTINUOUS
10
86.5077720000000028
20
-80.0543610000000001
11
86.4125339999999937
21
-80.1495999999999924
0
LINE
8
BLACK
6
CONTINUOUS
10
86.4125339999999937
20
-80.1495999999999924
11
86.2220579999999899
21
-80.2448380000000014
0
LINE
8
BLACK
6
CONTINUOUS
10
86.2220579999999899
20
-80.2448380000000014
11
85.9363429999999937
21
-80.2448380000000014
0
LINE
8
BLACK
6
CONTINUOUS
10
87.7458669999999898
20
-80.2448380000000014
11
87.5553910000000002
21
-80.1495999999999924
0
LINE
8
BLACK
6
CONTINUOUS
10
87.5553910000000002
20
-80.1495999999999924
11
87.4601529999999912
21
-79.9591229999999911
0
LINE
8
BLACK
6
CONTINUOUS
10
87.4601529999999912
20
-79.9591229999999911
11
87.4601529999999912
21
-78.2448380000000014
0
LINE
8
BLACK
6
CONTINUOUS
10
89.2696770000000015
20
-80.1495999999999924
11
89.0792009999999976
21
-80.2448380000000014
0
LINE
8
BLACK
6
CONTINUOUS
10
89.0792009999999976
20
-80.2448380000000014
11
88.6982479999999924
21
-80.2448380000000014
0
LINE
8
BLACK
6
CONTINUOUS
10
88.6982479999999924
20
-80.2448380000000014
11
88.5077720000000028
21
-80.1495999999999924
0
LINE
8
BLACK
6
CONTINUOUS
10
88.5077720000000028
20
-80.1495999999999924
11
88.4125339999999937
21
-79.9591229999999911
0
LINE
8
BLACK
6
CONTINUOUS
10
88.4125339999999937
20
-79.9591229999999911
11
88.4125339999999937
21
-79.1972189999999898
0
LINE
8
BLACK
6
CONTINUOUS
10
88.4125339999999937
20
-79.1972189999999898
11
88.5077720000000028
21
-79.0067420000000027
0
LINE
8
BLACK
6
CONTINUOUS
10
88.5077720000000028
20
-79.0067420000000027
11
88.6982479999999924
21
-78.9115039999999937
0
LINE
8
BLACK
6
CONTINUOUS
10
88.6982479999999924
20
-78.9115039999999937
11
89.0792009999999976
21
-78.9115039999999937
0
LINE
8
BLACK
6
CONTINUOUS
10
89.0792009999999976
20
-78.9115039999999937
11
89.2696770000000015
21
-79.0067420000000027
0
LINE
8
BLACK
6
CONTINUOUS
10
89.2696770000000015
20
-79.0067420000000027
11
89.3649149999999963
21
-79.1972189999999898
0
LINE
8
BLACK
6
CONTINUOUS
10
89.3649149999999963
20
-79.1972189999999898
11
89.3649149999999963
21
-79.3876949999999937
0
LINE
8
BLACK
6
CONTINUOUS
10
89.3649149999999963
20
-79.3876949999999937
11
88.4125339999999937
21
-79.5781709999999975
0
LINE
8
BLACK
6
CONTINUOUS
10
90.126819999999995
20
-80.1495999999999924
11
90.3172959999999989
21
-80.2448380000000014
0
LINE
8
BLACK
6
CONTINUOUS
10
90.3172959999999989
20
-80.2448380000000014
11
90.6982479999999924
21
-80.2448380000000014
0
LINE
8
BLACK
6
CONTINUOUS
10
90.6982479999999924
20
-80.2448380000000014
11
90.8887249999999938
21
-80.1495999999999924
0
LINE
8
BLACK
6
CONTINUOUS
10
90.8887249999999938
20
-80.1495999999999924
11
90.9839630000000028
21
-79.9591229999999911
0
LINE
8
BLACK
6
CONTINUOUS
10
90.9839630000000028
20
-79.9591229999999911
11
90.9839630000000028
21
-79.8638849999999962
0
LINE
8
BLACK
6
CONTINUOUS
10
90.9839630000000028
20
-79.8638849999999962
11
90.8887249999999938
21
-79.6734089999999924
0
LINE
8
BLACK
6
CONTINUOUS
10
90.8887249999999938
20
-79.6734089999999924
11
90.6982479999999924
21
-79.5781709999999975
0
LINE
8
BLACK
6
CONTINUOUS
10
90.6982479999999924
20
-79.5781709999999975
11
90.4125339999999937
21
-79.5781709999999975
0
LINE
8
BLACK
6
CONTINUOUS
10
90.4125339999999937
20
-79.5781709999999975
11
90.2220579999999899
21
-79.4829330000000027
0
LINE
8
BLACK
6
CONTINUOUS
10
90.2220579999999899
20
-79.4829330000000027
11
90.126819999999995
21
-79.2924569999999989
0
LINE
8
BLACK
6
CONTINUOUS
10
90.126819999999995
20
-79.2924569999999989
11
90.126819999999995
21
-79.1972189999999898
0
LINE
8
BLACK
6
CONTINUOUS
10
90.126819999999995
20
-79.1972189999999898
11
90.2220579999999899
21
-79.0067420000000027
0
LINE
8
BLACK
6
CONTINUOUS
10
90.2220579999999899
20
-79.0067420000000027
11
90.4125339999999937
21
-78.9115039999999937
0
LINE
8
BLACK
6
CONTINUOUS
10
90.4125339999999937
20
-78.9115039999999937
11
90.6982479999999924
21
-78.9115039999999937
0
LINE
8
BLACK
6
CONTINUOUS
10
90.6982479999999924
20
-78.9115039999999937
11
90.8887249999999938
21
-79.0067420000000027
0
LINE
8
BLACK
6
CONTINUOUS
10
91.6506299999999925
20
-81.0067420000000027
11
91.7458680000000015
21
-80.9115039999999937
0
LINE
8
BLACK
6
CONTINUOUS
10
91.7458680000000015
20
-80.9115039999999937
11
91.9363439999999912
21
-80.625789999999995
0
LINE
8
BLACK
6
CONTINUOUS
10
91.9363439999999912
20
-80.625789999999995
11
92.0315820000000002
21
-80.4353139999999911
0
LINE
8
BLACK
6
CONTINUOUS
10
92.0315820000000002
20
-80.4353139999999911
11
92.126819999999995
21
-80.1495999999999924
0
LINE
8
BLACK
6
CONTINUOUS
10
92.126819999999995
20
-80.1495999999999924
11
92.2220579999999899
21
-79.6734089999999924
0
LINE
8
BLACK
6
CONTINUOUS
10
92.2220579999999899
20
-79.6734089999999924
11
92.2220579999999899
21
-79.2924569999999989
0
LINE
8
BLACK
6
CONTINUOUS
10
92.2220579999999899
20
-79.2924569999999989
11
92.126819999999995
21
-78.8162659999999988
0
LINE
8
BLACK
6
CONTINUOUS
10
92.126819999999995
20
-78.8162659999999988
11
92.0315820000000002
21
-78.5305520000000001
0
LINE
8
BLACK
6
CONTINUOUS
10
92.0315820000000002
20
-78.5305520000000001
11
91.9363439999999912
21
-78.3400759999999963
0
LINE
8
BLACK
6
CONTINUOUS
10
91.9363439999999912
20
-78.3400759999999963
11
91.7458680000000015
21
-78.0543610000000001
0
LINE
8
BLACK
6
CONTINUOUS
10
91.7458680000000015
20
-78.0543610000000001
11
91.6506299999999925
21
-77.9591229999999911
  0
ENDSEC
  0
EOF
