  0
SECTION
  2
HEADER
  9
$ANGBASE
  50
0.0
  9
$ANGDIR
  70
1
  9
$MEASUREMENT
  70
1
  0
ENDSEC
  0
SECTION
  2
TABLES
  0
TABLE
  2
LTYPE
  70
4
  0
LTYPE
  5
40F
  2
CONTINUOUS
  70
0
  3
Solid line
  72
65
  73
0
  40
0.0
  0
LTYPE
  5
410
  2
DASHDOT
 70
0
  3
Dash Dot ____ _ ____ _
 72
65
 73
4
 40
2.0
 49
1.25
 49
-0.25
 49
0.25
 49
-0.25
  0
LTYPE
  5
411
  2
DASHED
 70
0
  3
Dashed __ __ __ __ __
 72
65
 73
2
 40
0.75
 49
0.5
 49
-0.25
  0
LTYPE
  5
43B
  2
DOTTED
 70
0
  3
Dotted .  .  .  .
 72
65
 73
2
 40
0.2
 49
0.0
 49
-0.2
  0
ENDTAB
  0
TABLE
  2
STYLE
  70
4
  0
STYLE
  2
KICAD
  70
0
  40
0
  41
1
  42
1
  50
0
  71
0
  3
isocp.shx
  0
STYLE
  2
KICADB
  70
0
  40
0
  41
1
  42
1
  50
0
  71
0
  3
isocp.shx
  0
STYLE
  2
KICADI
  70
0
  40
0
  41
1
  42
1
  50
15
  71
0
  3
isocp.shx
  0
STYLE
  2
KICADBI
  70
0
  40
0
  41
1
  42
1
  50
15
  71
0
  3
isocp.shx
  0
ENDTAB
  0
TABLE
  2
LAYER
  70
1
  0
LAYER
  2
BLACK
  70
0
  62
7
  6
CONTINUOUS
  0
ENDTAB
  0
ENDSEC
  0
SECTION
  2
ENTITIES
0
LINE
8
BLACK
6
CONTINUOUS
10
43.9624999999999986
20
-57.2749999999999986
11
140.5
21
-57.25
0
CIRCLE
8
BLACK
10
93.375
20
-62.0999999999999943
40
3.0766259999999996
0
CIRCLE
8
BLACK
10
64.0999999999999943
20
-62.125
40
3.0479499999999997
0
CIRCLE
8
BLACK
10
120.1749999999999972
20
-62.0499999999999972
40
3.0721529999999997
0
LINE
8
BLACK
6
CONTINUOUS
10
140.5
20
-57.25
11
140.5
21
-67.5999999999999943
0
LINE
8
BLACK
6
CONTINUOUS
10
43.9499999999999957
20
-67.5750000000000028
11
43.9624999999999986
21
-57.2749999999999986
0
LINE
8
BLACK
6
CONTINUOUS
10
140.5
20
-67.5999999999999943
11
43.9499999999999957
21
-67.5750000000000028
0
LINE
8
BLACK
6
CONTINUOUS
10
46.5077679999999987
20
-70.7648379999999975
11
46.5077679999999987
21
-68.7648379999999975
0
LINE
8
BLACK
6
CONTINUOUS
10
46.5077679999999987
20
-68.7648379999999975
11
46.9839580000000012
21
-68.7648379999999975
0
LINE
8
BLACK
6
CONTINUOUS
10
46.9839580000000012
20
-68.7648379999999975
11
47.2696729999999974
21
-68.8600759999999923
0
LINE
8
BLACK
6
CONTINUOUS
10
47.2696729999999974
20
-68.8600759999999923
11
47.4601490000000013
21
-69.0505519999999962
0
LINE
8
BLACK
6
CONTINUOUS
10
47.4601490000000013
20
-69.0505519999999962
11
47.5553869999999961
21
-69.241028
0
LINE
8
BLACK
6
CONTINUOUS
10
47.5553869999999961
20
-69.241028
11
47.650624999999998
21
-69.6219799999999935
0
LINE
8
BLACK
6
CONTINUOUS
10
47.650624999999998
20
-69.6219799999999935
11
47.650624999999998
21
-69.9076950000000039
0
LINE
8
BLACK
6
CONTINUOUS
10
47.650624999999998
20
-69.9076950000000039
11
47.5553869999999961
21
-70.2886469999999974
0
LINE
8
BLACK
6
CONTINUOUS
10
47.5553869999999961
20
-70.2886469999999974
11
47.4601490000000013
21
-70.4791230000000013
0
LINE
8
BLACK
6
CONTINUOUS
10
47.4601490000000013
20
-70.4791230000000013
11
47.2696729999999974
21
-70.6696000000000026
0
LINE
8
BLACK
6
CONTINUOUS
10
47.2696729999999974
20
-70.6696000000000026
11
46.9839580000000012
21
-70.7648379999999975
0
LINE
8
BLACK
6
CONTINUOUS
10
46.9839580000000012
20
-70.7648379999999975
11
46.5077679999999987
21
-70.7648379999999975
0
LINE
8
BLACK
6
CONTINUOUS
10
48.5077679999999987
20
-70.7648379999999975
11
48.5077679999999987
21
-69.4315040000000039
0
LINE
8
BLACK
6
CONTINUOUS
10
48.5077679999999987
20
-69.8124569999999949
11
48.6030060000000006
21
-69.6219799999999935
0
LINE
8
BLACK
6
CONTINUOUS
10
48.6030060000000006
20
-69.6219799999999935
11
48.6982439999999954
21
-69.5267419999999987
0
LINE
8
BLACK
6
CONTINUOUS
10
48.6982439999999954
20
-69.5267419999999987
11
48.8887199999999993
21
-69.4315040000000039
0
LINE
8
BLACK
6
CONTINUOUS
10
48.8887199999999993
20
-69.4315040000000039
11
49.0791970000000006
21
-69.4315040000000039
0
LINE
8
BLACK
6
CONTINUOUS
10
49.7458629999999999
20
-70.7648379999999975
11
49.7458629999999999
21
-69.4315040000000039
0
LINE
8
BLACK
6
CONTINUOUS
10
49.7458629999999999
20
-68.7648379999999975
11
49.650624999999998
21
-68.8600759999999923
0
LINE
8
BLACK
6
CONTINUOUS
10
49.650624999999998
20
-68.8600759999999923
11
49.7458629999999999
21
-68.9553140000000013
0
LINE
8
BLACK
6
CONTINUOUS
10
49.7458629999999999
20
-68.9553140000000013
11
49.8411009999999948
21
-68.8600759999999923
0
LINE
8
BLACK
6
CONTINUOUS
10
49.8411009999999948
20
-68.8600759999999923
11
49.7458629999999999
21
-68.7648379999999975
0
LINE
8
BLACK
6
CONTINUOUS
10
49.7458629999999999
20
-68.7648379999999975
11
49.7458629999999999
21
-68.9553140000000013
0
LINE
8
BLACK
6
CONTINUOUS
10
50.9839580000000012
20
-70.7648379999999975
11
50.7934819999999974
21
-70.6696000000000026
0
LINE
8
BLACK
6
CONTINUOUS
10
50.7934819999999974
20
-70.6696000000000026
11
50.6982439999999954
21
-70.4791230000000013
0
LINE
8
BLACK
6
CONTINUOUS
10
50.6982439999999954
20
-70.4791230000000013
11
50.6982439999999954
21
-68.7648379999999975
0
LINE
8
BLACK
6
CONTINUOUS
10
52.0315769999999986
20
-70.7648379999999975
11
51.8411009999999948
21
-70.6696000000000026
0
LINE
8
BLACK
6
CONTINUOUS
10
51.8411009999999948
20
-70.6696000000000026
11
51.7458629999999999
21
-70.4791230000000013
0
LINE
8
BLACK
6
CONTINUOUS
10
51.7458629999999999
20
-70.4791230000000013
11
51.7458629999999999
21
-68.7648379999999975
0
LINE
8
BLACK
6
CONTINUOUS
10
54.3172919999999948
20
-70.7648379999999975
11
54.3172919999999948
21
-68.7648379999999975
0
LINE
8
BLACK
6
CONTINUOUS
10
54.3172919999999948
20
-68.7648379999999975
11
54.9839589999999987
21
-70.1934090000000026
0
LINE
8
BLACK
6
CONTINUOUS
10
54.9839589999999987
20
-70.1934090000000026
11
55.650624999999998
21
-68.7648379999999975
0
LINE
8
BLACK
6
CONTINUOUS
10
55.650624999999998
20
-68.7648379999999975
11
55.650624999999998
21
-70.7648379999999975
0
LINE
8
BLACK
6
CONTINUOUS
10
57.4601489999999941
20
-70.7648379999999975
11
57.4601489999999941
21
-69.7172190000000001
0
LINE
8
BLACK
6
CONTINUOUS
10
57.4601489999999941
20
-69.7172190000000001
11
57.3649109999999993
21
-69.5267419999999987
0
LINE
8
BLACK
6
CONTINUOUS
10
57.3649109999999993
20
-69.5267419999999987
11
57.1744349999999955
21
-69.4315040000000039
0
LINE
8
BLACK
6
CONTINUOUS
10
57.1744349999999955
20
-69.4315040000000039
11
56.7934819999999974
21
-69.4315040000000039
0
LINE
8
BLACK
6
CONTINUOUS
10
56.7934819999999974
20
-69.4315040000000039
11
56.6030060000000006
21
-69.5267419999999987
0
LINE
8
BLACK
6
CONTINUOUS
10
57.4601489999999941
20
-70.6696000000000026
11
57.2696729999999974
21
-70.7648379999999975
0
LINE
8
BLACK
6
CONTINUOUS
10
57.2696729999999974
20
-70.7648379999999975
11
56.7934819999999974
21
-70.7648379999999975
0
LINE
8
BLACK
6
CONTINUOUS
10
56.7934819999999974
20
-70.7648379999999975
11
56.6030060000000006
21
-70.6696000000000026
0
LINE
8
BLACK
6
CONTINUOUS
10
56.6030060000000006
20
-70.6696000000000026
11
56.5077679999999987
21
-70.4791230000000013
0
LINE
8
BLACK
6
CONTINUOUS
10
56.5077679999999987
20
-70.4791230000000013
11
56.5077679999999987
21
-70.2886469999999974
0
LINE
8
BLACK
6
CONTINUOUS
10
56.5077679999999987
20
-70.2886469999999974
11
56.6030060000000006
21
-70.0981709999999936
0
LINE
8
BLACK
6
CONTINUOUS
10
56.6030060000000006
20
-70.0981709999999936
11
56.7934819999999974
21
-70.0029329999999987
0
LINE
8
BLACK
6
CONTINUOUS
10
56.7934819999999974
20
-70.0029329999999987
11
57.2696729999999974
21
-70.0029329999999987
0
LINE
8
BLACK
6
CONTINUOUS
10
57.2696729999999974
20
-70.0029329999999987
11
57.4601489999999941
21
-69.9076950000000039
0
LINE
8
BLACK
6
CONTINUOUS
10
58.4125299999999967
20
-69.4315040000000039
11
58.4125299999999967
21
-71.4315039999999897
0
LINE
8
BLACK
6
CONTINUOUS
10
58.4125299999999967
20
-69.5267419999999987
11
58.6030060000000006
21
-69.4315040000000039
0
LINE
8
BLACK
6
CONTINUOUS
10
58.6030060000000006
20
-69.4315040000000039
11
58.9839589999999987
21
-69.4315040000000039
0
LINE
8
BLACK
6
CONTINUOUS
10
58.9839589999999987
20
-69.4315040000000039
11
59.1744349999999955
21
-69.5267419999999987
0
LINE
8
BLACK
6
CONTINUOUS
10
59.1744349999999955
20
-69.5267419999999987
11
59.2696729999999974
21
-69.6219799999999935
0
LINE
8
BLACK
6
CONTINUOUS
10
59.2696729999999974
20
-69.6219799999999935
11
59.3649109999999993
21
-69.8124569999999949
0
LINE
8
BLACK
6
CONTINUOUS
10
59.3649109999999993
20
-69.8124569999999949
11
59.3649109999999993
21
-70.3838849999999923
0
LINE
8
BLACK
6
CONTINUOUS
10
59.3649109999999993
20
-70.3838849999999923
11
59.2696729999999974
21
-70.5743609999999961
0
LINE
8
BLACK
6
CONTINUOUS
10
59.2696729999999974
20
-70.5743609999999961
11
59.1744349999999955
21
-70.6696000000000026
0
LINE
8
BLACK
6
CONTINUOUS
10
59.1744349999999955
20
-70.6696000000000026
11
58.9839589999999987
21
-70.7648379999999975
0
LINE
8
BLACK
6
CONTINUOUS
10
58.9839589999999987
20
-70.7648379999999975
11
58.6030060000000006
21
-70.7648379999999975
0
LINE
8
BLACK
6
CONTINUOUS
10
58.6030060000000006
20
-70.7648379999999975
11
58.4125299999999967
21
-70.6696000000000026
0
LINE
8
BLACK
6
CONTINUOUS
10
60.222054
20
-70.5743609999999961
11
60.3172919999999948
21
-70.6696000000000026
0
LINE
8
BLACK
6
CONTINUOUS
10
60.3172919999999948
20
-70.6696000000000026
11
60.222054
21
-70.7648379999999975
0
LINE
8
BLACK
6
CONTINUOUS
10
60.222054
20
-70.7648379999999975
11
60.126815999999998
21
-70.6696000000000026
0
LINE
8
BLACK
6
CONTINUOUS
10
60.126815999999998
20
-70.6696000000000026
11
60.222054
21
-70.5743609999999961
0
LINE
8
BLACK
6
CONTINUOUS
10
60.222054
20
-70.5743609999999961
11
60.222054
21
-70.7648379999999975
0
LINE
8
BLACK
6
CONTINUOUS
10
60.222054
20
-69.5267419999999987
11
60.3172919999999948
21
-69.6219799999999935
0
LINE
8
BLACK
6
CONTINUOUS
10
60.3172919999999948
20
-69.6219799999999935
11
60.222054
21
-69.7172190000000001
0
LINE
8
BLACK
6
CONTINUOUS
10
60.222054
20
-69.7172190000000001
11
60.126815999999998
21
-69.6219799999999935
0
LINE
8
BLACK
6
CONTINUOUS
10
60.126815999999998
20
-69.6219799999999935
11
60.222054
21
-69.5267419999999987
0
LINE
8
BLACK
6
CONTINUOUS
10
60.222054
20
-69.5267419999999987
11
60.222054
21
-69.7172190000000001
  0
ENDSEC
  0
EOF
